<?xml version="1.0" encoding="UTF-8" standalone="no"?>
<svg xmlns:xlink="http://www.w3.org/1999/xlink" height="45.4px" width="31.75px" xmlns="http://www.w3.org/2000/svg">
  <g transform="matrix(1.0, 0.0, 0.0, 1.0, 19.35, 24.1)">
    <path d="M0.4 16.4 L-1.4 16.05 Q-2.4 14.15 -2.9 13.95 -3.35 13.7 -4.75 13.35 L-6.35 12.9 -5.85 12.45 -4.9 11.65 Q-4.35 11.0 -4.35 10.65 L-4.35 10.05 Q-4.4 8.95 -4.7 8.0 -5.1 6.9 -5.75 6.0 -6.2 5.5 -6.65 5.0 L-7.6 4.25 -8.15 3.85 Q-10.85 1.85 -10.85 -0.8 -10.85 -4.3 -9.0 -4.9 -8.15 -5.0 -7.3 -5.15 L-5.7 -5.15 Q-4.25 -5.5 -2.65 -6.6 -1.05 -7.65 -0.85 -8.6 L-0.8 -8.9 -1.0 -9.45 -1.2 -10.05 -0.6 -11.45 -0.5 -11.65 -0.05 -13.2 -0.05 -13.5 Q0.0 -14.7 0.35 -15.4 L0.7 -15.8 1.75 -16.25 Q2.3 -16.3 2.85 -16.4 L3.35 -16.4 3.55 -16.4 Q5.3 -16.25 7.05 -16.05 8.95 -15.65 10.05 -14.7 L10.9 -13.8" fill="none" stroke="#ffffff" stroke-linecap="round" stroke-linejoin="round" stroke-width="3.0">
      <animate attributeName="stroke" dur="2s" repeatCount="indefinite" values="#ffffff;#ffffff"/>
      <animate attributeName="stroke-width" dur="2s" repeatCount="indefinite" values="3.0;3.0"/>
      <animate attributeName="fill-opacity" dur="2s" repeatCount="indefinite" values="1.0;1.0"/>
      <animate attributeName="d" dur="2s" repeatCount="indefinite" values="M0.4 16.4 L-1.4 16.05 Q-2.4 14.15 -2.9 13.95 -3.35 13.7 -4.75 13.35 L-6.35 12.9 -5.85 12.45 -4.9 11.65 Q-4.35 11.0 -4.35 10.65 L-4.35 10.05 Q-4.4 8.95 -4.7 8.0 -5.1 6.9 -5.75 6.0 -6.2 5.5 -6.65 5.0 L-7.6 4.25 -8.15 3.85 Q-10.85 1.85 -10.85 -0.8 -10.85 -4.3 -9.0 -4.9 -8.15 -5.0 -7.3 -5.15 L-5.7 -5.15 Q-4.25 -5.5 -2.65 -6.6 -1.05 -7.65 -0.85 -8.6 L-0.8 -8.9 -1.0 -9.45 -1.2 -10.05 -0.6 -11.45 -0.5 -11.65 -0.05 -13.2 -0.05 -13.5 Q0.0 -14.7 0.35 -15.4 L0.7 -15.8 1.75 -16.25 Q2.3 -16.3 2.85 -16.4 L3.35 -16.4 3.55 -16.4 Q5.3 -16.25 7.05 -16.05 8.95 -15.65 10.05 -14.7 L10.9 -13.8;M-11.25 19.8 L-13.2 19.3 Q-14.75 18.6 -16.3 17.9 -17.55 17.1 -17.55 16.4 L-17.3 14.8 -17.25 14.05 -17.45 12.9 Q-17.6 12.35 -17.75 11.75 L-17.85 11.0 Q-17.85 10.05 -16.7 9.15 -15.85 8.5 -15.0 7.8 -14.6 7.35 -14.45 6.05 L-14.25 5.1 -13.7 4.2 Q-10.65 3.25 -7.6 2.3 -4.25 1.15 -3.35 -1.05 -3.0 -1.85 -3.0 -2.8 L-3.2 -4.5 Q-3.65 -6.15 -4.95 -7.45 -6.0 -8.45 -7.6 -9.25 L-7.85 -9.35 -8.2 -9.55 -8.75 -9.75 -10.35 -10.45 -10.75 -10.65 -12.1 -11.65 -12.2 -12.05 Q-11.7 -12.95 -11.2 -13.85 L-10.75 -14.55 -10.2 -15.55 Q-10.2 -16.15 -10.55 -16.65 L-10.9 -17.1 -10.95 -17.25 Q-10.95 -18.65 -7.8 -19.35 -4.7 -20.05 -4.7 -21.05 L-5.25 -22.6"/>
    </path>
  </g>
</svg>
