<?xml version="1.0" encoding="UTF-8" standalone="no"?>
<svg xmlns:xlink="http://www.w3.org/1999/xlink" height="35.8px" width="27.05px" xmlns="http://www.w3.org/2000/svg">
  <g transform="matrix(1.0, 0.0, 0.0, 1.0, 12.35, 17.9)">
    <path d="M8.0 13.55 L7.6 12.75 Q7.55 11.8 7.75 11.15 L8.1 10.3 8.4 9.55 8.65 8.95 Q8.65 8.65 8.6 8.35 8.5 7.25 7.9 6.9 7.05 6.75 6.2 6.6 6.0 6.6 5.75 6.55 4.0 6.3 3.8 4.15 3.8 2.1 4.3 1.8 L4.45 1.7 5.6 1.4 5.9 1.3 6.5 0.9 6.75 0.15 Q6.9 -0.5 7.05 -1.2 L7.05 -1.4 7.15 -1.6 7.15 -1.85 7.25 -2.35 Q7.3 -2.75 7.35 -3.15 7.5 -3.65 7.65 -4.15 7.75 -4.35 7.9 -4.55 8.3 -5.05 9.05 -5.15 L9.6 -5.2 Q11.4 -5.2 13.2 -5.2" fill="none" stroke="#ffffff" stroke-linecap="round" stroke-linejoin="round" stroke-width="3.0">
      <animate attributeName="stroke" dur="2s" repeatCount="indefinite" values="#ffffff;#ffffff"/>
      <animate attributeName="stroke-width" dur="2s" repeatCount="indefinite" values="3.0;3.0"/>
      <animate attributeName="fill-opacity" dur="2s" repeatCount="indefinite" values="1.0;1.0"/>
      <animate attributeName="d" dur="2s" repeatCount="indefinite" values="M8.0 13.55 L7.6 12.75 Q7.55 11.8 7.75 11.15 L8.1 10.3 8.4 9.55 8.65 8.95 Q8.65 8.65 8.6 8.35 8.5 7.25 7.9 6.9 7.05 6.75 6.2 6.6 6.0 6.6 5.75 6.55 4.0 6.3 3.8 4.15 3.8 2.1 4.3 1.8 L4.45 1.7 5.6 1.4 5.9 1.3 6.5 0.9 6.75 0.15 Q6.9 -0.5 7.05 -1.2 L7.05 -1.4 7.15 -1.6 7.15 -1.85 7.25 -2.35 Q7.3 -2.75 7.35 -3.15 7.5 -3.65 7.65 -4.15 7.75 -4.35 7.9 -4.55 8.3 -5.05 9.05 -5.15 L9.6 -5.2 Q11.4 -5.2 13.2 -5.2;M0.4 16.4 L-0.9 16.2 Q-1.6 14.55 -2.9 13.95 L-4.55 13.4 -6.35 12.9 -5.1 11.85 Q-4.35 11.05 -4.35 10.65 -4.35 8.9 -4.9 7.5 -5.5 6.05 -6.7 5.0 -7.1 4.6 -7.6 4.25 -10.85 2.1 -10.85 -0.8 -10.55 -4.3 -9.1 -4.9 L-9.0 -4.9 -6.35 -5.15 -5.7 -5.15 -4.15 -5.7 -2.65 -6.6 Q-0.8 -7.85 -0.8 -8.9 L-1.0 -9.45 -1.2 -10.05 -1.0 -10.45 -0.6 -11.45 Q-0.05 -12.85 -0.05 -13.2 -0.05 -14.4 0.25 -15.1 0.4 -15.55 0.7 -15.8 1.4 -16.4 3.35 -16.4 L4.65 -16.35 Q9.4 -16.1 10.9 -13.8"/>
    </path>
  </g>
</svg>
