<?xml version="1.0" encoding="UTF-8" standalone="no"?>
<svg xmlns:xlink="http://www.w3.org/1999/xlink" height="58.25px" width="69.15px" xmlns="http://www.w3.org/2000/svg">
  <g transform="matrix(1.0, 0.0, 0.0, 1.0, 34.1, 29.1)">
    <path d="M31.1 -7.05 Q34.05 -3.9 34.05 2.55 34.05 3.1 31.9 6.7 29.3 11.1 26.2 15.0 16.85 26.75 8.7 26.75 L4.95 26.15 1.2 25.55 Q-0.2 25.55 -1.55 26.45 -2.95 27.35 -5.45 27.35 -21.85 27.35 -28.5 16.05 -32.1 9.9 -32.1 2.4 -32.1 1.45 -30.2 -1.5 -27.95 -5.0 -25.85 -5.7 -27.25 -7.95 -27.85 -9.55 -28.5 -11.2 -28.2 -14.1 -27.9 -16.95 -25.1 -18.65 -22.35 -20.4 -14.4 -20.4 -11.8 -20.4 -9.25 -22.9 -5.7 -26.3 -4.55 -26.9 2.4 -30.6 18.75 -18.75 25.0 -12.15 31.1 -7.05 M-13.95 2.4 L-13.8 2.55 -12.6 2.25 -12.6 0.9 -13.95 1.05 -13.95 2.4" fill="#ffffff" fill-rule="evenodd" stroke="none"/>
    <path d="M4.9 -11.85 Q8.3 -11.85 14.6 -3.5 20.35 4.1 20.35 5.65 20.35 13.6 15.25 19.9 10.2 26.15 3.95 26.15 0.0 26.15 -1.05 24.8 L-1.4 23.0 Q-3.25 23.8 -6.7 25.55 -9.7 26.9 -11.75 26.9 -15.05 26.9 -20.45 20.65 -25.4 14.95 -25.4 13.25 -25.4 11.35 -24.6 9.65 -26.2 9.15 -26.75 8.35 -27.1 7.9 -27.1 7.2 -27.1 4.45 -26.8 3.15 -26.05 -0.2 -23.5 -0.2 -22.5 -0.2 -21.4 0.7 -20.15 1.7 -19.7 1.8 L-19.4 1.7 Q-20.1 0.35 -20.1 -2.15 -20.1 -12.8 -14.85 -13.35 L-9.95 -12.7 -4.95 -11.85 Q-2.75 -11.85 -1.9 -11.3 -1.0 -10.8 -0.65 -10.8 L1.25 -11.3 4.9 -11.85 M14.2 6.9 L15.25 5.95 Q15.0 4.6 11.75 4.95 L11.85 5.0 14.2 6.9 M-18.45 10.95 L-18.1 12.15 -17.45 13.0 Q-16.8 12.3 -16.65 11.15 L-16.6 9.55 Q-18.15 10.25 -18.45 10.95" fill="#d1d0a5" fill-opacity="0.3019608" fill-rule="evenodd" stroke="none"/>
    <path d="M0.5 -0.3 L-0.75 1.7 0.45 2.35 1.6 2.85 3.0 2.35 Q4.1 1.8 5.3 1.8 9.25 1.8 9.6 4.5 9.8 5.95 9.2 7.95 10.7 7.9 11.5 7.05 12.25 6.25 15.15 6.25 17.85 6.25 18.2 9.15 18.35 10.65 18.0 12.5 L19.5 11.0 Q20.55 10.05 21.95 10.05 23.0 10.05 23.65 10.55 L24.45 11.35 Q24.6 8.9 27.3 6.7 29.7 4.75 31.45 4.75 33.95 4.75 34.75 7.3 35.15 8.6 35.05 9.85 35.05 10.95 32.8 13.7 30.25 17.0 26.5 19.9 15.9 28.15 3.6 28.15 0.75 28.15 0.05 26.45 L-0.1 24.7 -0.2 24.45 Q-5.85 26.15 -10.35 26.4 L-15.55 26.35 Q-18.9 26.35 -20.1 24.4 -20.65 23.5 -20.65 22.15 -23.9 21.7 -24.5 19.5 L-24.6 16.4 -24.7 16.2 -25.7 16.65 -26.9 16.85 Q-31.55 16.85 -33.25 15.05 -34.1 14.2 -34.1 13.05 -34.1 11.8 -31.15 9.1 -27.5 5.7 -23.3 5.7 -22.3 5.7 -19.75 6.8 L-16.85 7.85 Q-16.75 7.85 -14.2 3.45 -11.65 -0.95 -9.5 -0.95 -8.65 -0.95 -7.0 0.1 -6.15 -2.2 -2.75 -4.3 0.95 -6.6 0.95 -2.15 0.95 -1.15 0.5 -0.3 M-3.8 7.4 Q-4.8 8.0 -5.55 9.2 L-6.55 11.35 -3.3 7.4 -3.8 7.4" fill="#d1d0a5" fill-opacity="0.3019608" fill-rule="evenodd" stroke="none"/>
    <path d="M1.7 16.1 L1.7 16.3 6.65 16.7 Q7.15 17.1 7.2 18.1 L9.95 14.8 Q11.9 12.4 13.25 12.4 14.6 12.4 15.05 13.55 L15.25 14.85 Q15.25 15.15 13.65 17.25 11.7 19.75 9.35 21.95 2.15 28.7 -4.55 28.7 -8.1 28.7 -9.9 27.25 -11.3 26.1 -11.45 24.15 L-11.45 23.95 Q-12.2 24.45 -13.3 24.45 -15.65 24.45 -16.0 22.75 L-15.9 20.9 -17.1 19.55 -18.35 17.95 Q-18.35 16.85 -18.0 16.1 -17.6 15.3 -16.6 14.4 L-17.25 13.4 Q-17.6 12.75 -17.6 12.1 -17.6 8.2 -14.8 7.85 -11.6 7.45 -7.65 13.65 L-3.55 11.95 Q-2.0 11.25 -0.95 11.25 1.85 11.25 2.1 13.35 2.25 14.25 1.7 16.1 M-8.35 20.35 L-7.4 19.5 -8.05 19.9 -8.35 20.35" fill="#d1d0a5" fill-opacity="0.3019608" fill-rule="evenodd" stroke="none"/>
    <path d="M1.9 -3.0 Q2.2 -0.9 2.6 0.45 L2.25 0.6 1.1 -1.8 1.05 -3.65 Q1.05 -5.75 1.35 -6.15 L1.9 -3.0 M7.25 18.3 Q7.8 20.9 8.75 22.35 7.7 21.9 6.75 19.4 6.0 17.45 6.0 16.9 L6.35 14.4 7.25 18.3 M9.3 17.7 Q10.05 18.6 11.45 21.3 L11.25 21.6 9.95 19.95 9.0 18.45 Q9.0 17.9 9.3 17.7 M1.4 15.45 Q0.6 15.1 0.1 14.2 -0.3 13.4 -0.3 12.65 L0.0 11.85 1.55 15.2 1.4 15.45 M12.9 19.95 L12.8 20.1 12.3 19.55 12.3 18.75 12.6 18.75 12.9 19.95 M-17.75 -0.9 Q-17.5 -0.3 -17.1 2.5 -16.75 4.8 -15.9 6.15 L-15.9 6.2 Q-18.3 5.0 -18.3 1.05 L-18.0 -0.9 -17.75 -0.9 M-0.8 -3.3 L-1.4 -3.0 -1.2 -2.3 -1.35 -2.1 Q-1.85 -2.6 -1.85 -3.05 L-1.8 -3.5 -1.25 -3.5 -0.8 -3.3 M-19.8 11.75 L-20.25 14.6 Q-20.25 16.25 -18.0 23.6 L-18.3 23.75 -19.95 19.45 -21.0 16.2 Q-21.0 12.1 -20.25 11.55 L-19.85 11.55 -19.8 11.75 M-18.75 6.05 Q-19.5 5.6 -20.15 2.75 L-20.3 2.45 Q-19.55 2.7 -19.3 3.8 L-18.5 5.85 -18.75 6.05 M-10.35 17.85 Q-9.45 21.75 -8.15 24.05 -8.75 23.7 -9.75 21.7 L-10.7 19.5 -10.65 17.85 -10.35 17.85 M-16.4 16.55 L-16.2 19.45 -14.6 22.95 -14.7 22.95 -16.85 20.55 Q-17.25 19.8 -17.25 18.25 -17.25 16.0 -16.5 15.6 L-16.4 16.55 M-0.6 16.6 L-0.75 16.7 Q-2.0 15.4 -2.65 13.15 L-3.6 9.2 Q-2.85 10.0 -2.1 12.55 -1.15 15.6 -0.6 16.6 M-7.95 13.65 L-7.8 13.65 Q-7.6 19.1 -4.05 26.1 L-4.35 26.4 -6.55 21.95 Q-8.3 18.0 -8.3 17.05 L-7.95 13.65 M-0.8 23.6 Q-2.25 23.1 -3.05 21.5 L-3.95 18.9 Q-3.0 19.2 -2.25 20.75 L-0.8 23.6 M-22.7 14.85 L-21.8 18.45 -20.55 22.05 -20.7 22.2 Q-21.25 21.75 -22.15 19.25 L-23.0 16.45 -22.95 14.85 -22.7 14.85" fill="#333333" fill-rule="evenodd" stroke="none"/>
    <path d="M9.8 -26.6 Q13.5 -24.55 13.9 -22.8 L14.1 -22.55 Q14.75 -22.1 14.75 -21.65 L14.75 -21.5 15.1 -20.8 15.05 -20.5 19.6 -20.2 20.8 -19.8 21.45 -19.55 22.35 -19.1 24.95 -17.05 Q27.15 -13.4 27.15 -9.8 L27.1 -8.2 28.6 -7.45 Q30.8 -5.85 32.15 -2.95 33.55 0.15 33.55 2.8 33.55 8.7 29.5 12.8 L26.25 15.3 Q25.5 17.7 22.4 20.95 17.25 26.25 10.2 26.25 L7.95 26.1 Q7.0 27.15 3.6 28.05 L2.8 28.25 -1.9 29.15 -3.0 29.1 -3.15 29.1 Q-8.15 29.1 -12.0 26.75 L-14.25 25.05 -17.4 25.4 Q-22.4 25.4 -26.3 20.8 -29.4 17.15 -29.4 15.2 L-29.25 12.9 -29.2 12.75 Q-31.3 11.6 -32.5 8.4 L-33.55 3.1 Q-33.55 -0.45 -32.2 -2.85 L-30.9 -4.6 Q-30.4 -5.35 -28.7 -6.25 -27.05 -7.05 -25.55 -6.75 L-26.35 -8.2 Q-26.75 -9.2 -26.75 -10.6 L-26.55 -12.85 Q-26.45 -14.7 -25.25 -16.8 L-24.8 -17.55 -24.6 -17.85 -24.1 -18.55 Q-21.65 -21.95 -14.7 -22.9 L-12.45 -22.7 Q-11.6 -24.25 -8.7 -26.25 -3.6 -29.8 2.7 -28.95 5.75 -28.85 9.8 -26.6 M12.1 -23.35 Q9.0 -25.65 6.35 -26.35 L-0.35 -27.1 Q-4.35 -27.1 -7.25 -25.6 -10.2 -24.1 -12.8 -20.45 L-12.95 -20.4 -12.8 -21.5 -12.6 -22.4 Q-16.7 -21.55 -19.15 -20.5 -20.65 -19.9 -21.75 -18.95 L-23.3 -17.4 Q-24.2 -16.55 -24.85 -14.45 -25.4 -12.6 -25.4 -11.25 -25.4 -9.7 -24.65 -7.95 -23.9 -6.2 -22.65 -4.75 -22.65 -4.65 -22.85 -4.6 L-24.2 -5.65 -24.65 -5.55 -25.4 -5.75 Q-27.05 -5.75 -28.65 -4.95 -30.4 -3.8 -31.25 -2.0 -32.2 -0.05 -32.2 3.1 L-32.1 5.4 -31.2 8.15 Q-30.8 9.35 -29.55 10.6 L-27.3 12.3 -26.2 12.9 -26.3 13.15 -26.65 13.35 -28.55 13.05 Q-28.5 16.0 -26.1 19.25 -22.45 24.25 -15.2 24.25 L-14.9 24.25 -15.25 23.25 Q-15.25 22.45 -14.55 22.95 L-13.9 23.65 -13.85 23.95 -13.25 23.9 -11.9 23.5 -13.1 24.55 Q-12.4 25.05 -8.75 26.25 -4.65 27.6 -2.35 27.75 L2.9 27.0 4.4 26.35 6.0 25.5 5.5 25.25 4.0 24.05 3.95 24.05 4.1 24.0 6.0 24.45 7.95 24.85 8.55 24.0 8.65 24.0 8.45 24.8 8.45 24.85 8.9 24.85 Q14.25 24.85 17.4 23.1 L21.6 19.85 Q22.5 19.1 23.9 16.15 L22.05 16.35 Q21.55 16.35 21.55 15.9 21.55 15.6 24.45 14.15 L27.5 12.65 Q29.0 11.55 30.5 9.35 31.2 8.3 31.7 6.15 L32.2 2.8 Q32.2 -0.6 30.6 -3.3 29.05 -5.9 26.8 -6.7 L26.75 -6.75 26.1 -6.15 25.85 -6.5 26.2 -7.25 Q26.2 -12.3 24.95 -14.75 23.95 -16.75 22.15 -18.0 L21.6 -18.25 Q19.8 -19.05 15.2 -19.05 L12.65 -18.75 12.15 -18.8 12.0 -19.25 12.2 -19.6 11.9 -19.65 11.8 -19.95 Q11.8 -20.1 12.35 -20.25 L14.35 -20.5 Q12.6 -22.9 11.85 -23.2 L12.1 -23.35 M-13.3 24.7 L-12.6 25.2 -13.15 24.6 -13.3 24.7" fill="#333333" fill-rule="evenodd" stroke="none"/>
  </g>
</svg>
