<?xml version="1.0" encoding="UTF-8" standalone="no"?>
<svg xmlns:xlink="http://www.w3.org/1999/xlink" height="31.8px" width="57.4px" xmlns="http://www.w3.org/2000/svg">
  <g transform="matrix(1.0, 0.0, 0.0, 1.0, 2.25, 0.9)">
    <path d="M54.3 30.05 L-1.45 30.05 -1.45 -0.1 54.3 -0.1 54.3 30.05" fill="#ffffff" fill-rule="evenodd" stroke="none"/>
    <path d="M8.55 -0.1 L6.45 -0.05 4.35 -0.15 2.6 -0.25 1.05 -0.1 -1.45 -0.1 -1.65 1.7 -1.6 4.05 -1.6 6.1 -1.6 8.0 -1.35 10.25 -1.15 12.15 Q-1.05 12.9 -1.45 13.9 M39.05 -0.1 L36.85 0.3 34.85 0.3 33.05 -0.15 30.95 -0.3 28.95 0.05 26.85 -0.1 24.85 -0.2 23.0 0.1 21.05 -0.1 M54.3 12.8 L54.5 11.05 54.5 8.75 54.45 6.95 54.55 5.0 54.6 2.8 54.4 1.05 54.3 -0.1 52.1 -0.3 50.15 0.05 48.15 0.1 46.15 0.0 44.4 0.25 42.6 0.15 40.3 -0.1 M-1.45 15.15 Q-1.4 16.6 -1.65 17.55 -1.85 18.55 -1.65 19.55 L-1.45 21.1 -1.55 22.95 -1.55 25.3 Q-1.45 26.35 -1.65 27.15 -1.85 27.95 -1.65 28.55 L-1.45 30.05 0.55 29.8 2.95 30.0 4.8 30.35 6.5 30.15 8.35 30.05 10.55 30.1 12.55 30.15 14.35 30.25 16.55 30.05 M52.2 30.05 L53.45 30.0 54.3 30.05 Q54.7 28.9 54.6 28.0 L54.6 26.05 54.55 24.05 54.35 22.3 54.2 20.35 54.2 18.15 54.4 16.1 Q54.55 15.05 54.3 14.05 M35.0 30.05 L37.0 29.8 39.15 30.25 40.95 30.05 43.05 29.85 45.05 29.9 46.85 29.85 49.05 29.95 51.0 30.05 M19.75 -0.1 L17.9 0.0 15.95 0.0 14.0 0.05 11.7 0.0 9.75 -0.1 M17.8 30.05 Q18.85 29.65 19.8 30.05 L21.8 30.2 23.75 30.05 25.85 30.0 27.75 29.9 29.7 30.25 31.6 30.15 33.8 30.05" fill="none" stroke="#ffffff" stroke-linecap="round" stroke-linejoin="round" stroke-width="1.0"/>
    <path d="M50.75 3.4 L50.6 2.35 49.75 2.35 48.65 2.1 47.65 2.2 46.65 2.35 45.7 2.25 44.6 2.3 43.6 2.25 42.7 2.2 41.85 2.15 40.95 2.2 39.9 2.15 38.8 2.3 Q38.2 2.65 37.65 2.3 37.1 1.95 36.6 1.95 L35.45 2.2 34.5 2.4 33.75 2.4 32.95 2.4 31.8 2.15 30.45 2.2 29.3 2.45 28.45 2.5 27.6 2.7 26.7 2.65 25.55 2.45 24.7 2.4 23.65 2.4 22.45 2.5 21.65 2.45 20.55 2.3 19.7 2.3 18.75 2.1 17.55 2.0 Q17.0 2.2 16.65 2.0 L15.7 1.95 14.6 2.2 13.85 2.35 12.85 2.15 Q12.15 1.95 11.7 2.15 L10.5 2.6 9.45 2.45 Q9.2 2.1 8.65 2.05 L7.85 2.05 6.8 2.2 5.45 2.35 4.25 2.35 3.1 2.45 2.75 2.4 1.95 2.35 Q2.2 2.5 2.1 3.1 L1.85 4.3 Q1.65 4.95 1.8 5.45 L2.0 6.45 2.0 7.5 Q1.95 8.0 2.2 8.4 2.45 8.85 2.25 9.35 L2.0 10.25 2.05 11.05 2.3 12.2 Q2.45 12.9 2.0 13.35 1.55 13.8 1.7 14.15 L1.9 15.2 1.9 16.35 1.7 17.35 Q1.55 17.85 1.75 18.35 L1.95 19.4 1.95 20.4 2.0 21.1 1.8 22.25 Q1.6 23.2 1.7 23.5 L1.85 24.4 1.95 25.2 2.0 25.85 1.95 27.25 2.85 27.25 3.75 27.25 4.6 27.45 Q5.0 27.65 5.7 27.45 L7.15 27.15 8.15 27.15 8.9 27.25 9.9 27.25 10.95 27.35 11.95 27.6 12.95 27.3 Q13.45 26.95 13.95 26.9 L15.1 27.1 16.1 27.25 16.9 27.2 17.8 27.25 18.95 27.2 19.95 27.1 20.65 27.15 21.7 27.0 Q22.4 26.75 22.85 27.0 L23.85 27.25 24.95 27.4 Q25.5 27.6 25.95 27.4 L26.9 27.2 27.8 27.3 28.85 27.35 29.8 27.25 30.75 27.15 31.7 27.2 32.65 27.25 33.6 27.1 Q33.95 26.95 34.5 27.3 35.05 27.7 35.8 27.7 L37.0 27.55 38.0 27.35 39.05 27.25 39.9 26.95 40.85 27.05 41.9 27.35 Q42.45 27.5 43.0 27.1 43.6 26.75 44.0 26.95 L44.9 27.0 Q45.35 26.85 45.8 27.25 46.3 27.7 46.9 27.7 L48.1 27.55 48.9 27.45 49.45 27.35 50.6 27.25 50.6 26.45 50.55 25.25 50.65 24.0 50.75 23.0 50.75 22.05 50.65 21.25 50.55 20.45 50.45 19.35 50.45 18.0 50.55 17.1 50.65 16.25 Q50.8 15.75 50.55 15.25 50.35 14.75 50.5 14.15 L50.6 12.95 50.55 12.05 50.7 11.05 Q50.85 10.35 50.6 10.25 50.35 10.2 50.45 9.5 L50.5 8.1 Q50.45 7.45 50.55 6.9 L50.75 6.1 50.8 5.2 50.8 3.95 50.75 3.4 Z" fill="none" stroke="#90c7b7" stroke-linecap="round" stroke-linejoin="round" stroke-opacity="0.5019608" stroke-width="1.0"/>
  </g>
</svg>
