<?xml version="1.0" encoding="UTF-8" standalone="no"?>
<svg xmlns:xlink="http://www.w3.org/1999/xlink" height="31.3px" width="100.0px" xmlns="http://www.w3.org/2000/svg">
  <g transform="matrix(1.0, 0.0, 0.0, 1.0, 2.45, 0.65)">
    <path d="M96.3 30.05 L-1.45 30.05 -1.45 -0.1 96.3 -0.1 96.3 30.05" fill="#ffffff" fill-rule="evenodd" stroke="none"/>
    <path d="M20.75 -0.1 L18.05 0.0 14.75 0.05 11.7 0.0 9.0 -0.1 6.15 -0.1 3.15 -0.05 0.95 -0.05 -1.45 -0.1 -1.45 1.45 -1.3 2.95 Q-1.1 4.0 -1.3 4.65 -1.5 5.35 -1.3 6.15 -1.1 7.0 -1.35 7.75 -1.65 8.55 -1.6 9.5 L-1.6 11.25 -1.5 12.8 -1.45 14.05 M68.15 -0.1 L65.75 -0.05 62.3 -0.05 59.1 -0.1 56.85 -0.25 53.85 -0.2 50.65 -0.1 47.7 -0.25 44.8 -0.1 M43.05 -0.1 L40.5 0.05 37.2 0.05 33.55 -0.15 31.0 -0.1 28.7 -0.1 26.15 -0.05 22.65 -0.1 M96.3 4.55 Q96.5 3.85 96.35 3.0 L96.15 1.8 96.3 -0.1 93.4 -0.1 90.3 -0.1 87.45 -0.1 84.65 -0.1 81.55 -0.1 78.45 -0.05 75.5 -0.1 72.9 0.0 70.05 -0.1 M-1.45 15.0 L-1.65 16.8 Q-1.9 17.6 -1.3 18.25 -0.7 18.95 -1.15 19.65 -1.6 20.35 -1.2 21.15 -0.85 21.9 -1.15 22.8 L-1.45 24.45 -1.3 26.05 Q-1.15 26.95 -1.45 27.55 -1.65 28.25 -1.45 29.15 -0.8 29.15 -1.45 30.05 L1.5 30.2 4.15 30.2 6.75 30.2 9.65 30.25 13.3 30.05 16.35 29.9 19.0 30.25 22.05 30.2 25.05 30.1 27.75 30.05 M96.3 18.1 Q96.9 17.25 96.45 16.4 96.1 15.55 96.15 14.8 L96.2 13.35 96.3 11.85 Q96.35 11.05 96.0 10.1 95.65 9.15 95.65 8.65 L95.65 7.05 Q95.7 6.05 96.3 5.55 M57.65 30.05 L60.5 29.9 63.25 30.05 66.25 30.15 69.25 30.15 72.35 30.0 75.2 30.05 78.15 29.9 81.0 30.05 M82.9 30.05 L85.8 30.1 88.85 30.05 91.75 29.9 93.6 30.05 96.3 30.05 Q96.95 29.35 96.75 28.55 L96.3 26.95 Q96.1 26.15 96.35 25.35 96.65 24.6 96.5 23.7 L96.15 22.3 Q95.95 21.85 96.35 21.0 96.8 20.25 96.3 19.1 M29.65 30.05 L32.75 30.05 35.6 30.05 38.45 30.15 41.1 30.25 44.0 30.15 47.05 30.15 50.25 30.25 53.35 30.05 Q54.6 29.85 55.9 30.05" fill="none" stroke="#ffffff" stroke-linecap="round" stroke-linejoin="round" stroke-width="1.0"/>
  </g>
</svg>
