<?xml version="1.0" encoding="UTF-8" standalone="no"?>
<svg xmlns:xlink="http://www.w3.org/1999/xlink" height="179.8px" width="339.8px" xmlns="http://www.w3.org/2000/svg">
  <g transform="matrix(1.0, 0.0, 0.0, 1.0, 0.9, 0.9)">
    <path d="M338.0 177.95 L0.0 177.95 0.0 0.0 338.0 0.0 338.0 177.95" fill="#ffffff" fill-rule="evenodd" stroke="none"/>
    <path d="M5.8 -0.2 L4.05 0.0 2.5 0.1 0.0 0.0 Q0.45 1.0 0.0 1.8 -0.45 2.65 -0.15 4.0 0.15 5.4 -0.1 6.35 -0.35 7.3 -0.1 7.95 L0.1 9.85 -0.1 12.0 -0.1 14.0 -0.05 15.8 -0.15 17.85 Q-0.1 19.2 -0.2 20.35 L-0.4 22.15 Q-0.45 22.85 -0.1 23.9 0.3 25.0 0.15 26.0 L-0.05 27.9 -0.15 29.7 Q-0.2 30.6 0.15 31.8 0.5 33.05 0.15 34.15 L-0.15 36.15 -0.05 38.0 Q0.0 39.0 0.2 39.75 0.45 40.55 0.2 41.75 L0.05 44.0 0.05 46.0 -0.05 48.0 0.0 50.0 -0.05 51.95 0.0 53.9 0.05 55.9 -0.05 58.0 Q-0.05 59.1 0.2 60.0 0.5 60.9 0.0 61.95 -0.45 63.0 -0.15 64.05 0.2 65.1 -0.05 66.2 L-0.35 68.1 -0.2 70.05 0.0 72.1 0.05 74.2 0.25 76.4 0.35 78.4 0.3 80.25 -0.05 82.15 Q-0.4 83.25 -0.1 84.0 0.25 84.8 -0.05 86.0 -0.3 87.2 0.05 88.15 0.4 89.15 0.2 89.9 L0.0 91.8 Q0.0 92.95 0.15 93.9 0.35 94.85 -0.05 96.05 -0.45 97.25 -0.15 97.9 0.2 98.6 -0.15 99.6 -0.5 100.65 -0.15 101.8 0.2 102.95 0.2 104.0 L0.05 106.25 Q-0.1 107.4 0.15 108.35 L0.2 109.95 -0.25 111.7 Q-0.45 112.8 -0.25 113.95 0.0 115.1 -0.1 116.05 L-0.2 118.2 -0.05 119.95 0.0 121.8 -0.05 124.0 0.0 125.95 0.2 128.0 Q0.35 129.0 0.15 130.0 L-0.15 132.05 Q-0.25 133.1 0.05 134.05 0.35 135.0 0.15 136.2 L0.0 138.0 0.05 140.0 Q0.15 141.45 -0.1 142.0 -0.35 142.55 -0.1 143.75 L0.25 145.95 0.15 148.1 0.0 150.15 -0.1 151.95 -0.05 153.75 -0.05 155.7 0.0 157.8 0.05 159.75 0.0 161.8 0.0 163.9 -0.1 166.0 Q-0.2 167.0 0.1 167.9 0.45 168.85 0.2 169.9 L-0.2 172.0 Q-0.35 173.0 -0.15 174.0 L0.0 175.6 0.0 177.95 Q1.0 177.5 2.15 177.6 L4.15 177.7 6.05 177.85 8.1 177.95 10.1 178.0 11.95 178.0 14.1 177.95 15.95 177.8 17.6 178.0 19.75 178.35 22.15 177.95 24.0 177.8 26.05 177.85 28.1 177.65 29.65 177.75 31.55 177.95 33.8 177.9 36.0 178.1 37.75 177.9 39.75 177.65 42.2 178.15 44.25 178.25 46.15 178.25 48.05 178.05 50.0 177.85 52.1 177.8 54.0 177.95 55.75 178.3 58.0 178.2 60.15 177.95 62.1 177.95 64.25 177.85 66.1 177.65 68.2 177.65 70.1 177.85 72.0 178.15 Q73.3 178.35 74.3 178.15 L76.3 177.8 78.15 177.75 79.95 177.9 82.0 177.8 84.1 177.85 86.05 178.05 88.05 177.95 90.15 177.75 91.95 177.8 93.65 177.95 96.05 177.95 98.35 178.1 Q99.45 178.3 100.45 178.1 L102.15 177.9 103.95 177.9 106.25 177.8 107.95 177.9 109.75 178.15 112.0 178.05 114.0 177.95 116.1 178.05 118.05 178.2 119.9 178.05 122.2 177.75 124.35 178.0 126.25 178.25 127.9 178.05 129.9 178.0 132.1 178.0 133.85 178.15 135.8 178.4 137.95 178.2 140.05 177.95 142.1 177.95 143.85 177.95 145.55 177.95 147.7 178.0 150.05 177.85 152.25 177.8 154.15 178.0 156.15 178.0 158.0 177.8 159.85 177.75 162.05 178.0 164.05 177.95 165.8 177.8 167.75 177.9 169.9 178.1 171.75 178.15 173.85 178.05 176.2 178.0 177.9 177.8 179.8 177.6 181.85 177.7 183.8 177.95 185.85 177.85 187.7 177.85 189.8 177.9 191.95 178.05 193.95 177.95 195.85 177.8 197.85 177.95 200.1 177.85 201.95 177.9 203.95 178.15 206.3 177.95 208.3 177.7 209.9 178.05 211.8 178.1 214.0 177.9 216.0 177.85 218.0 177.85 220.0 177.95 222.05 177.9 223.8 177.7 225.75 177.85 228.05 177.7 230.1 177.65 232.25 177.85 234.2 178.05 236.05 178.05 237.95 177.9 239.85 177.9 241.7 178.05 243.8 177.9 246.1 177.8 247.85 177.75 Q248.55 177.6 249.9 177.75 L252.05 177.85 253.7 177.95 255.65 178.05 257.95 177.9 259.85 177.95 261.8 177.9 264.0 178.0 Q265.05 178.2 266.0 178.0 L267.95 177.9 269.7 177.85 271.55 177.9 273.8 178.0 275.95 177.95 277.95 177.85 279.75 177.6 281.7 177.7 283.7 177.95 285.7 178.0 287.95 177.95 290.15 177.95 292.25 178.05 293.95 178.05 296.0 177.85 298.0 178.0 299.8 178.05 302.1 177.9 304.1 178.0 306.05 177.95 307.9 177.95 309.65 177.85 311.75 177.7 314.0 178.0 315.95 178.3 317.9 178.15 319.95 177.8 322.0 177.7 324.05 177.9 326.15 177.9 328.15 177.85 330.2 178.2 332.2 178.0 333.95 177.75 Q334.85 177.95 335.35 177.75 L338.0 177.95 337.95 175.7 338.0 173.7 338.1 171.75 337.85 170.0 Q337.55 169.0 337.75 168.05 L338.1 166.0 338.3 163.85 Q338.4 162.8 338.15 161.75 337.9 160.75 338.0 159.85 338.15 159.0 337.95 158.2 337.75 157.4 337.95 156.3 L338.0 154.25 Q337.9 153.35 337.95 152.2 L338.0 149.8 337.95 147.8 337.8 146.15 Q337.65 145.25 337.8 143.95 L338.15 142.0 Q338.35 141.3 338.15 139.95 L338.0 137.55 337.95 135.85 337.95 134.15 338.0 132.0 338.0 129.9 338.15 127.9 337.95 125.85 Q337.7 124.75 337.85 123.8 L338.0 121.85 338.2 119.9 338.25 117.95 338.25 115.9 Q338.4 114.85 338.15 113.9 337.9 112.95 337.95 111.75 L338.05 109.7 337.95 107.75 337.8 105.75 337.9 103.85 338.0 101.8 337.75 99.85 Q337.55 98.85 337.85 97.95 L338.25 96.15 338.4 93.8 Q338.45 92.45 338.1 91.9 337.8 91.35 337.9 90.05 L337.9 87.85 337.9 85.8 338.05 83.8 338.05 81.9 338.05 80.0 338.0 77.95 338.0 75.95 338.0 74.05 338.0 72.2 337.95 70.15 338.05 67.95 Q338.2 67.0 337.85 65.9 337.55 64.85 337.75 63.75 L337.95 61.55 337.9 59.95 337.9 58.1 338.05 55.7 338.15 53.75 338.1 51.9 338.0 49.9 338.2 47.95 Q338.4 46.95 338.2 45.9 L338.0 43.7 337.85 41.95 Q337.7 41.4 337.85 40.4 L338.05 38.2 338.0 35.75 338.0 33.55 337.95 31.65 Q337.8 30.85 338.0 29.8 338.25 28.8 338.1 27.75 L337.9 26.0 337.85 24.15 337.9 21.95 337.95 19.95 338.0 17.95 337.95 15.95 337.95 14.05 337.75 11.85 Q337.55 10.55 337.85 9.75 338.15 8.95 338.05 7.8 L338.15 5.8 Q338.35 4.95 338.2 3.7 338.1 2.5 337.8 2.2 337.55 1.95 338.0 0.0 L336.0 -0.2 333.85 0.0 331.9 0.35 329.9 -0.05 328.1 -0.15 325.9 0.0 323.9 0.0 321.95 -0.2 319.85 -0.15 317.8 0.35 315.6 0.15 313.9 -0.1 312.15 0.0 309.95 -0.1 307.85 -0.3 306.15 -0.2 304.15 0.15 301.85 0.15 299.95 0.0 298.2 -0.25 Q297.45 -0.45 296.2 -0.25 L294.05 0.0 292.05 0.0 289.95 0.0 288.0 0.0 285.95 -0.05 284.0 -0.1 282.05 -0.1 279.95 0.0 278.2 0.0 276.0 -0.05 273.85 0.05 271.95 0.2 269.65 0.1 267.8 0.05 266.0 0.1 264.05 0.2 262.25 0.4 260.35 0.4 258.3 0.25 255.95 0.15 253.9 0.0 Q253.25 -0.2 251.95 0.0 L250.05 0.15 248.2 -0.1 246.0 -0.2 244.15 -0.1 241.95 0.05 239.85 -0.1 237.85 -0.4 235.85 -0.2 234.2 0.0 232.05 0.25 230.15 0.35 228.2 -0.05 225.75 -0.3 223.75 -0.05 221.9 0.05 219.8 0.2 217.95 -0.05 216.0 -0.2 213.95 0.0 212.0 -0.05 210.2 0.0 208.15 0.0 205.85 0.05 204.05 0.05 202.15 0.2 200.0 0.0 Q199.0 -0.45 198.05 0.0 197.15 0.45 195.9 0.0 L193.9 -0.25 192.25 -0.05 190.15 0.1 188.0 0.15 185.9 -0.05 183.95 -0.25 181.95 -0.3 180.0 -0.2 178.05 -0.25 176.0 -0.2 174.0 -0.1 171.9 0.0 170.1 -0.1 168.2 -0.1 165.8 0.0 163.85 0.0 162.0 0.1 160.0 0.1 158.05 -0.05 156.0 0.05 154.0 0.1 151.8 0.1 149.7 -0.1 147.9 -0.15 145.9 0.05 144.15 0.0 142.2 -0.2 Q141.0 -0.4 140.0 -0.2 L137.9 0.0 135.9 -0.05 134.1 -0.1 132.05 -0.1 130.2 0.0 128.25 0.05 126.0 0.05 124.0 0.05 122.1 0.2 120.1 0.2 117.95 0.05 116.1 0.0 114.1 0.0 112.0 -0.15 110.15 0.0 108.1 0.15 105.85 -0.05 103.75 -0.2 101.85 -0.4 99.95 0.0 98.05 0.25 96.3 0.1 94.15 0.05 91.85 -0.05 90.05 0.15 88.35 0.1 Q87.45 -0.1 86.3 0.1 85.2 0.3 84.2 0.1 L82.25 -0.05 80.15 0.05 78.25 -0.15 76.05 -0.3 73.75 -0.35 71.75 -0.3 69.8 0.0 67.9 0.0 65.8 -0.05 63.85 -0.15 Q63.05 -0.35 62.1 -0.15 L60.15 0.25 58.05 0.35 56.05 0.05 53.95 -0.15 51.9 -0.1 49.8 -0.05 48.05 0.05 46.35 0.05 44.15 0.25 Q43.0 0.5 42.2 0.25 L40.3 0.0 38.1 -0.05 36.05 -0.05 34.15 0.05 32.1 0.05 29.95 -0.1 27.95 -0.3 25.9 0.0 23.95 0.35 22.05 0.15 20.1 0.1 18.15 0.15 16.05 -0.05 14.0 0.0 12.0 -0.05 10.0 -0.05 7.75 -0.2 Q6.5 -0.4 5.8 -0.2 Z" fill="none" stroke="#ffffff" stroke-linecap="round" stroke-linejoin="round" stroke-width="1.0"/>
  </g>
</svg>
