<?xml version="1.0" encoding="UTF-8" standalone="no"?>
<svg xmlns:xlink="http://www.w3.org/1999/xlink" height="171.35px" width="331.3px" xmlns="http://www.w3.org/2000/svg">
  <g transform="matrix(1.0, 0.0, 0.0, 1.0, -3.7, -3.05)">
    <path d="M334.05 9.95 L334.2 7.85 Q334.25 6.75 333.95 6.25 333.65 5.8 334.15 4.0 L332.3 4.0 330.4 3.8 328.2 3.85 326.1 3.9 324.2 4.1 322.15 4.15 319.9 3.85 Q318.7 3.7 318.1 3.85 L316.3 4.05 314.1 4.0 312.35 3.8 310.35 3.8 308.05 4.0 306.2 4.05 304.25 4.1 302.15 3.85 300.25 3.8 298.25 4.05 296.1 4.1 294.3 4.2 292.3 4.1 290.1 4.0 288.1 4.0 286.1 4.0 283.95 3.9 282.0 3.95 280.25 4.05 278.25 3.95 276.15 3.95 274.15 3.9 272.15 3.9 270.15 4.05 268.15 3.95 266.15 3.7 264.35 3.85 262.1 4.0 259.85 3.75 258.1 3.95 Q257.15 4.45 256.15 4.35 L254.3 4.15 252.05 4.2 249.8 4.3 248.05 4.3 246.1 4.15 244.1 3.8 Q243.2 3.6 242.2 3.8 241.2 4.0 240.15 3.8 239.15 3.6 238.3 3.8 L236.3 4.25 234.15 4.15 232.15 3.7 230.05 3.85 228.0 3.9 226.0 3.6 223.9 3.8 222.1 4.15 220.05 4.1 217.85 4.0 216.25 3.9 214.45 3.95 212.2 3.85 210.15 3.75 208.2 4.0 206.2 4.1 203.95 4.0 202.0 4.05 200.4 3.95 198.3 3.85 196.15 3.8 194.25 3.85 192.5 4.0 190.4 4.0 188.1 3.9 186.15 3.95 184.1 4.1 182.05 3.95 180.1 3.8 178.15 3.8 176.15 3.9 173.9 3.9 171.95 3.8 170.1 3.85 168.05 3.95 166.1 3.9 164.15 3.8 162.2 3.75 160.0 3.95 158.0 4.1 156.25 4.1 154.05 4.0 151.8 3.95 150.0 3.8 148.1 3.6 146.1 3.8 144.2 4.1 142.15 4.1 140.15 3.95 138.15 3.85 136.1 3.8 134.2 3.7 132.25 3.55 130.25 3.55 128.3 3.85 126.15 4.05 124.1 4.25 121.95 4.35 119.9 4.2 118.0 4.0 116.1 3.95 114.15 4.0 112.15 3.85 110.1 3.95 107.95 4.05 105.95 3.8 104.3 3.65 102.55 3.6 100.2 3.8 97.95 4.0 96.05 4.05 94.2 4.05 92.1 4.15 90.05 4.25 88.15 3.95 86.35 3.7 84.45 3.9 82.25 4.05 80.15 4.2 78.15 4.0 76.4 3.75 74.4 3.95 72.2 4.0 70.05 4.0 67.85 4.15 66.0 4.15 63.9 4.2 Q62.65 4.4 61.85 4.2 L59.95 4.15 57.95 4.05 56.1 3.9 54.15 3.9 52.1 3.9 50.1 3.9 48.0 3.95 45.95 4.05 43.9 4.0 41.75 3.85 39.95 3.95 38.15 4.05 36.05 3.95 34.05 3.8 Q33.1 3.65 32.1 3.8 L30.1 3.95 28.1 4.15 26.1 4.05 24.35 3.95 22.15 4.1 19.7 3.95 18.0 4.1 16.45 4.0 14.35 3.8 12.2 3.95 10.15 3.9 8.05 3.95 6.5 4.15 4.65 4.0 4.65 6.0 4.45 8.0 Q4.25 8.75 4.3 9.85 L4.5 12.0 4.55 14.1 Q4.5 15.2 4.8 16.1 5.1 17.05 4.9 18.05 L4.45 20.0 Q4.2 20.95 4.3 21.8 L4.35 23.8 Q4.25 24.95 4.45 26.05 L4.85 28.25 5.05 30.15 4.75 32.15 Q4.5 33.3 4.55 34.35 L4.85 36.3 Q5.05 37.15 4.85 38.0 4.65 38.9 4.75 39.95 L4.85 42.0 4.9 44.0 4.75 46.0 4.45 47.9 Q4.3 48.85 4.45 50.0 L4.6 52.0 4.55 53.8 4.3 55.95 Q4.2 57.1 4.6 58.0 5.0 58.9 4.9 60.0 L4.7 61.8 4.5 63.85 4.3 66.05 4.45 68.0 Q4.7 69.1 4.45 70.05 L4.2 71.8 4.4 73.55 4.75 75.7 4.8 77.95 4.65 79.75 4.45 81.75 Q4.3 83.0 4.6 84.0 4.95 85.0 4.8 85.95 4.65 86.9 4.75 88.05 L4.75 90.15 4.65 92.05 4.6 93.8 4.7 95.7 4.7 97.7 Q4.6 98.6 4.65 99.75 L4.65 101.95 4.4 104.1 Q4.2 105.2 4.35 106.1 L4.5 107.85 4.6 109.85 4.6 111.9 4.35 113.8 Q4.15 114.75 4.4 115.75 L4.7 117.85 4.5 119.7 Q4.25 120.55 4.4 121.65 L4.6 123.9 Q4.65 125.0 4.85 125.8 5.1 126.6 4.85 127.65 L4.65 129.95 Q4.65 131.15 4.9 132.0 5.15 132.85 4.95 133.9 L4.75 136.05 4.65 138.05 Q4.55 139.0 4.75 140.0 4.95 141.0 4.7 142.0 4.45 143.0 4.55 144.0 L4.5 146.05 Q4.35 147.1 4.5 148.0 L4.6 149.9 4.45 151.95 4.25 154.2 Q4.2 155.35 4.3 155.9 L4.55 157.75 4.65 160.2 Q4.65 161.45 4.8 162.2 L4.8 164.15 4.65 166.1 4.5 167.85 Q4.35 168.85 4.7 169.85 L4.95 171.3 4.65 173.5 6.6 173.45 8.65 173.4 10.6 173.35 12.8 173.4 14.8 173.4 16.55 173.45 18.6 173.6 20.45 173.6 22.4 173.5 24.8 173.7 Q26.0 173.95 26.8 173.7 L28.55 173.5 30.5 173.4 32.35 173.4 34.4 173.25 Q35.65 173.0 36.7 173.25 L38.7 173.55 40.5 173.5 42.55 173.45 44.65 173.45 46.65 173.45 48.8 173.5 50.8 173.5 52.8 173.5 54.85 173.35 56.45 173.45 Q57.15 173.65 58.45 173.45 L60.55 173.35 62.35 173.3 Q63.4 173.1 64.5 173.3 L66.65 173.7 68.65 173.6 70.7 173.4 72.6 173.65 74.35 173.7 76.4 173.45 78.45 173.2 80.35 173.25 82.6 173.55 84.7 173.55 86.65 173.45 88.8 173.45 90.85 173.55 92.6 173.55 94.65 173.5 96.6 173.5 98.65 173.7 100.75 173.7 102.5 173.45 104.5 173.5 106.6 173.55 108.85 173.35 110.85 173.4 112.65 173.6 114.6 173.35 116.6 173.2 118.7 173.45 120.75 173.5 122.65 173.5 124.65 173.4 126.65 173.2 128.9 173.45 Q130.15 173.85 130.9 173.45 L132.65 173.15 134.6 173.35 136.65 173.55 138.7 173.7 140.65 173.4 142.85 173.25 144.85 173.5 146.85 173.6 149.05 173.45 150.75 173.35 152.55 173.5 154.65 173.5 156.65 173.7 158.65 173.6 160.45 173.35 162.25 173.45 164.55 173.5 166.65 173.4 168.5 173.5 170.7 173.55 172.75 173.5 174.65 173.45 176.4 173.35 178.4 173.45 180.65 173.55 182.65 173.5 184.75 173.5 186.8 173.5 188.85 173.5 190.85 173.55 192.7 173.3 194.75 173.2 196.55 173.55 198.6 173.6 200.6 173.65 202.65 173.85 204.7 173.9 206.6 173.85 208.65 173.7 210.4 173.5 212.45 173.6 Q213.65 173.8 214.55 173.6 L216.55 173.5 218.7 173.6 220.7 173.3 Q221.6 173.0 222.7 173.3 L224.8 173.65 226.65 173.4 228.65 173.3 Q229.8 173.55 230.7 173.3 231.65 173.1 232.45 173.3 L234.4 173.35 236.4 173.3 238.5 173.4 240.65 173.45 242.65 173.45 244.45 173.4 246.55 173.55 248.9 173.75 250.75 173.75 252.5 173.5 254.7 173.3 256.75 173.3 258.65 173.3 260.8 173.4 262.85 173.35 264.6 173.3 266.8 173.35 268.8 173.45 270.65 173.5 272.95 173.5 274.85 173.55 276.4 173.6 278.2 173.5 280.35 173.5 282.55 173.5 284.8 173.4 286.8 173.25 288.45 173.45 290.35 173.6 292.75 173.25 294.85 173.35 Q295.65 173.75 296.8 173.35 L299.05 173.3 301.1 173.55 302.95 173.3 304.7 173.35 306.65 173.65 Q307.65 173.85 308.5 173.65 L310.5 173.55 312.55 173.45 314.4 173.5 316.5 173.55 318.7 173.4 320.9 173.35 322.95 173.35 324.8 173.5 326.8 173.65 328.6 173.75 330.4 173.7 332.05 173.65 334.15 173.5 334.15 171.2 334.15 169.35 334.15 167.45 334.0 165.25 334.0 163.4 334.2 161.65 334.2 159.55 Q334.2 158.5 334.35 157.4 334.5 156.35 334.3 155.5 L334.0 153.55 334.0 151.4 334.2 149.5 334.15 147.8 334.3 145.75 Q334.5 144.6 334.3 143.5 L334.1 141.6 333.85 139.5 Q333.65 138.25 333.95 137.25 334.3 136.3 334.2 135.35 L334.15 133.25 334.15 131.35 334.05 129.6 333.8 127.55 Q333.65 126.45 333.8 125.4 L334.05 123.45 334.35 121.7 334.35 119.7 334.25 117.4 334.15 115.4 Q334.0 114.45 334.25 113.55 334.55 112.7 334.35 111.6 L333.95 109.35 Q333.75 108.2 334.0 107.5 L334.25 105.6 334.05 103.55 Q333.85 102.65 334.0 101.4 L334.0 99.3 Q333.9 98.45 334.1 97.6 L334.25 95.45 334.15 93.25 334.15 91.55 334.05 89.75 334.05 87.45 334.25 85.45 334.25 83.75 334.25 81.8 334.35 79.65 334.25 77.7 334.1 75.7 334.1 73.5 334.15 71.65 334.0 69.65 333.75 67.45 Q333.7 66.4 333.9 65.45 L334.15 63.45 334.15 61.3 334.2 59.25 334.2 57.45 334.35 55.45 Q334.6 54.35 334.15 53.2 333.7 52.1 333.9 51.25 334.15 50.45 333.95 49.45 L333.75 47.45 333.95 45.45 334.15 43.55 334.1 41.75 334.35 39.7 Q334.6 38.5 334.35 37.5 334.15 36.55 334.3 35.6 L334.3 33.5 Q334.15 32.4 334.3 31.2 334.45 30.0 334.1 29.25 333.8 28.5 333.9 27.4 L334.05 25.45 334.15 23.6 334.15 21.55 334.15 19.45 334.3 17.35 Q334.45 16.25 334.15 15.3 333.85 14.35 333.9 13.35 L334.0 11.6 334.05 9.95 Z" fill="none" stroke="#90c7b7" stroke-linecap="round" stroke-linejoin="round" stroke-opacity="0.5019608" stroke-width="1.0"/>
  </g>
</svg>
