<?xml version="1.0" encoding="UTF-8" standalone="no"?>
<svg xmlns:xlink="http://www.w3.org/1999/xlink" height="9.2px" width="2.5px" xmlns="http://www.w3.org/2000/svg">
  <g transform="matrix(1.0, 0.0, 0.0, 1.0, 1.45, 4.05)">
    <path d="M0.25 -3.65 L-0.15 -3.1 0.25 -2.05 0.3 -2.05 Q0.4 -7.8 1.05 3.0 1.2 5.5 -0.1 4.85 0.05 5.15 -0.3 5.15 L-0.75 4.25 -1.1 2.85 -1.45 0.45 -1.3 -1.75 -0.9 -2.85 -0.35 -3.3 0.05 -3.65 0.25 -3.65 M-0.9 -1.1 L-1.05 0.35 -0.9 2.15 -0.7 -0.4 Q-0.45 -2.05 -0.5 -2.9 L-0.9 -1.1 M-0.2 1.65 L-0.45 0.05 -0.5 0.05 -0.5 2.8 Q-0.2 2.2 -0.2 1.65 M-0.1 4.1 L0.15 4.45 0.5 4.4 0.55 4.25 0.0 2.7 -0.2 3.65 -0.1 4.1 M0.2 1.05 L0.2 1.7 0.25 1.75 0.25 1.0 0.2 1.05" fill="#333333" fill-rule="evenodd" stroke="none"/>
  </g>
</svg>
