<?xml version="1.0" encoding="UTF-8" standalone="no"?>
<svg xmlns:xlink="http://www.w3.org/1999/xlink" height="36.2px" width="41.3px" xmlns="http://www.w3.org/2000/svg">
  <g transform="matrix(1.0, 0.0, 0.0, 1.0, 20.65, 18.1)">
    <path d="M-5.85 -16.95 L-5.15 -17.55 -3.05 -17.85 6.8 -18.1 6.8 -18.0 7.75 -17.9 8.3 -17.7 Q10.2 -17.15 11.85 -16.1 L13.45 -15.1 14.55 -14.5 15.1 -13.9 15.5 -13.35 15.9 -12.8 16.7 -12.25 17.8 -11.65 18.35 -11.1 18.9 -10.5 19.25 -9.95 19.5 -9.4 19.65 -8.25 19.7 -7.1 19.7 -5.95 19.7 -4.25 19.6 -3.15 19.5 -2.55 19.1 -2.0 18.55 -1.45 18.0 -0.85 18.55 -0.3 19.1 0.3 19.5 0.85 19.7 1.4 19.85 2.0 20.2 2.55 20.45 3.1 20.45 3.7 20.45 4.8 20.45 5.95 20.45 7.65 20.4 8.8 20.25 9.35 19.85 9.95 19.5 10.5 18.55 11.1 17.6 11.65 17.05 12.2 16.45 12.8 15.5 13.35 14.4 13.9 12.85 14.25 11.0 14.6 10.6 14.85 10.55 15.4 10.4 16.0 10.2 16.55 9.85 17.15 9.1 17.7 7.55 18.1 -3.4 17.8 -3.8 17.7 -5.75 16.85 Q-8.25 15.95 -10.5 14.6 -12.4 13.45 -13.65 11.65 L-14.05 11.1 -14.2 10.5 -14.4 9.95 -14.6 9.35 -14.8 8.8 -15.0 8.25 -15.15 7.65 -15.15 7.1 -15.15 6.55 -15.15 5.95 -15.2 5.4 -15.35 4.8 -15.75 4.25 -16.1 3.65 -16.35 3.15 -16.65 2.55 -16.85 2.0 -16.85 1.4 -16.85 0.3 -16.85 -0.3 -16.85 -0.85 -16.9 -1.4 -17.05 -2.0 -17.65 -2.55 -17.85 -3.1 -18.15 -3.7 -18.4 -4.25 -18.4 -4.85 -18.4 -5.4 -18.4 -5.95 -17.8 -7.1 -16.35 -8.85 -15.15 -9.9 -14.4 -10.5 -12.9 -10.9 Q-12.5 -11.0 -12.3 -11.25 -12.15 -11.35 -12.15 -11.65 L-11.9 -12.2 -11.55 -12.75 -11.0 -13.35 -9.85 -13.75 -8.9 -14.1 -8.35 -14.7 -7.2 -15.25 -6.85 -15.8 -6.45 -16.35 -5.85 -16.95" fill="#5b5546" fill-opacity="0.3019608" fill-rule="evenodd" stroke="none"/>
    <path d="M-6.8 -16.75 L-6.1 -17.35 -4.55 -17.7 -1.55 -17.7 -1.5 -17.6 0.0 -17.35 1.1 -16.75 2.25 -16.2 3.4 -15.65 8.3 -15.3 Q10.9 -15.05 13.25 -13.7 L14.2 -13.15 14.75 -12.6 15.1 -12.0 15.35 -11.5 15.65 -10.9 15.9 -10.35 16.0 -9.75 16.1 -6.9 16.1 -5.2 16.1 -4.1 16.1 -3.5 16.45 -2.95 16.65 -2.35 16.85 -1.8 17.05 -1.25 17.05 -0.1 17.1 1.05 17.2 2.2 17.15 2.75 17.05 3.3 16.8 3.85 16.5 4.45 16.25 5.0 Q12.6 7.95 7.9 8.85 L3.0 9.95 1.5 9.9 0.35 9.75 -0.4 9.35 -1.5 8.75 -2.3 8.25 -5.15 8.25 -6.85 8.6 -9.1 8.6 -10.6 8.25 -11.75 7.7 Q-14.1 6.7 -15.6 4.75 L-16.65 3.1 -16.85 2.55 -17.0 1.4 -17.05 -0.85 -17.05 -3.15 -17.05 -4.25 -17.05 -4.85 -16.85 -5.4 -16.7 -5.95 -16.5 -6.55 -16.3 -7.1 -15.95 -7.7 -15.7 -8.25 -15.4 -8.85 -15.15 -9.4 -14.05 -10.5 -13.45 -11.1 -12.9 -11.65 -12.15 -12.2 -10.6 -12.6 -9.5 -12.85 -9.3 -13.0 -9.1 -13.35 -8.75 -13.95 -8.5 -14.5 -8.2 -15.1 -7.95 -15.65 -7.4 -16.2 -6.8 -16.75" fill="#5b5546" fill-opacity="0.3019608" fill-rule="evenodd" stroke="none"/>
    <path d="M15.9 -7.85 L15.9 -7.75 16.85 -7.7 17.95 -6.7 18.3 -6.15 18.6 -5.6 18.95 -5.05 19.45 -4.45 19.85 -3.9 19.85 -3.3 19.85 -2.75 20.05 -2.2 20.25 -1.6 20.45 -1.05 20.65 -0.5 20.65 0.65 20.65 1.8 20.65 2.35 20.65 2.95 20.65 3.5 20.6 4.05 20.45 4.65 20.05 5.2 19.7 5.75 19.3 6.3 18.8 6.95 18.55 7.5 18.55 8.05 18.5 8.6 18.35 9.2 18.1 9.7 17.6 10.3 17.05 10.9 16.05 11.45 13.45 12.65 11.55 13.6 9.85 14.65 8.3 14.95 5.85 15.3 5.65 15.45 5.25 15.8 4.55 16.4 3.0 16.75 1.5 16.7 0.0 16.55 -1.15 16.35 -1.55 16.2 -1.9 15.8 -2.4 15.2 -2.65 14.65 -2.85 14.1 -3.05 13.55 -3.4 12.95 -3.65 12.4 -3.9 11.8 -4.0 11.25 -4.0 10.7 -4.0 8.4 -4.0 7.3 -4.0 6.7 -3.95 5.6 -3.8 5.0 -3.45 4.45 -3.25 3.9 -2.65 3.3 -2.1 2.75 -1.15 2.15 -0.6 1.6 -0.2 1.05 0.35 0.45 0.95 -0.1 1.5 -0.65 2.45 -1.25 3.75 -1.6 4.55 -1.6 5.65 -1.45 6.4 -1.05 7.0 -0.5 7.75 -0.5 8.4 -1.1 8.7 -1.6 8.7 -2.2 8.7 -2.75 8.7 -3.3 8.75 -3.9 8.9 -4.45 9.1 -5.0 9.5 -5.55 10.0 -6.15 11.35 -6.55 12.5 -6.9 13.25 -7.5 14.4 -7.85 15.9 -7.85" fill="#5b5546" fill-opacity="0.3019608" fill-rule="evenodd" stroke="none"/>
    <path d="M-4.2 -5.75 L-3.85 -5.2 -3.6 -4.65 -3.35 -4.15 -2.65 -3.5 -1.55 -3.4 1.5 -3.25 2.6 -3.1 3.0 -2.95 3.75 -2.55 4.9 -2.0 5.45 -1.4 5.85 -0.85 6.2 -0.25 6.4 0.3 6.95 0.85 7.4 1.4 7.95 2.0 9.75 3.2 10.95 4.3 11.75 5.45 12.1 6.55 12.35 7.1 12.65 7.65 12.85 8.25 13.05 8.8 13.25 9.35 13.2 9.95 13.3 11.65 13.45 12.8 13.45 13.35 13.45 13.9 13.4 14.5 13.25 15.6 12.65 16.15 11.9 16.75 10.6 17.15 4.55 17.15 3.0 16.8 1.5 16.6 0.0 16.55 -1.35 16.2 -2.3 15.6 -8.35 15.15 -9.85 14.85 -11.55 13.9 -12.3 13.3 -12.9 12.8 -13.45 12.2 -14.6 11.1 -14.85 10.55 -15.15 9.9 -15.35 9.35 -15.35 8.8 -15.35 7.65 -15.35 7.1 -15.35 6.55 -15.35 5.95 -15.35 5.4 -15.35 4.8 -15.35 4.25 -17.45 3.9 -18.55 3.65 -18.95 3.5 -19.55 3.1 -19.9 2.55 -20.25 1.95 -20.45 1.4 -20.6 0.85 -20.65 -0.3 -20.65 -0.85 -20.65 -1.45 -20.65 -2.0 -20.65 -2.55 -20.65 -3.15 -20.65 -3.7 -20.3 -4.3 -20.05 -4.8 -19.7 -5.4 -18.95 -5.95 -17.8 -6.55 -16.7 -7.1 -14.4 -8.25 -12.9 -8.6 -12.15 -8.6 -12.1 -8.5 -10.6 -8.25 -9.85 -7.7 -9.3 -7.3 -6.85 -7.05 -5.7 -6.85 -5.3 -6.75 -4.75 -6.3 -4.2 -5.75" fill="#5b5546" fill-opacity="0.3019608" fill-rule="evenodd" stroke="none"/>
    <path d="M6.05 -12.6 L7.15 -12.5 7.1 -9.85 Q6.95 -7.15 8.6 -5.75 L8.95 -6.3 9.2 -7.25 9.35 -9.05 10.1 -8.8 10.1 -6.8 Q9.95 -4.75 8.15 -4.1 L6.9 -5.0 6.65 -4.65 Q5.25 -1.25 1.4 -2.0 -0.7 -3.2 -0.65 -5.65 -1.6 -3.9 -3.1 -2.3 -6.95 1.85 -7.65 -3.65 L-9.15 -4.2 -9.2 -4.6 -9.15 -5.45 -9.0 -5.85 Q-8.65 -6.35 -8.55 -6.9 L-7.95 -7.45 -7.4 -9.15 -6.85 -9.2 -6.1 -8.7 -5.55 -2.45 Q-0.9 -7.0 -0.2 -13.65 L1.0 -13.3 Q0.65 -8.55 1.65 -3.9 L4.05 -3.75 4.5 -4.35 Q6.35 -8.1 6.05 -12.6" fill="#333333" fill-rule="evenodd" stroke="none"/>
    <path d="M4.3 -0.05 L4.3 0.0 4.6 0.0 4.8 0.1 4.95 0.25 5.1 0.4 5.2 0.55 5.3 0.7 5.35 0.8 5.45 0.95 5.55 1.1 5.6 1.25 5.65 1.4 5.65 1.55 5.65 1.65 5.65 1.8 5.7 1.95 5.75 2.1 5.75 2.25 5.75 2.65 5.75 3.1 5.75 3.4 5.75 3.5 5.75 3.65 5.8 3.8 5.8 3.95 5.8 4.1 5.8 4.25 5.8 4.35 5.8 4.5 5.75 4.65 5.75 4.8 5.75 4.95 5.75 5.1 5.7 5.25 5.7 5.35 5.7 5.5 5.7 5.65 5.7 5.8 5.65 5.95 5.65 6.1 5.55 6.2 5.5 6.35 5.45 6.5 5.4 6.65 5.35 6.8 5.3 6.95 5.2 7.05 5.1 7.35 5.05 7.65 5.0 7.8 4.95 7.9 4.9 8.05 4.8 8.2 4.75 8.35 4.75 8.5 4.7 8.65 4.65 8.8 4.55 8.9 4.5 9.05 4.5 9.2 4.5 9.35 4.5 9.5 4.5 9.65 4.5 9.75 4.5 9.9 4.55 10.05 4.55 10.6 4.55 11.35 4.55 11.75 4.55 12.05 5.1 11.85 6.95 9.9 8.05 8.45 8.1 8.3 8.2 8.15 8.3 8.0 8.35 7.9 8.4 7.75 8.5 7.6 8.6 7.45 8.65 7.3 8.75 7.15 8.85 7.05 8.9 6.9 9.0 6.75 9.05 6.6 9.15 6.45 9.2 6.3 9.25 6.15 9.3 6.05 9.4 5.9 9.45 5.75 9.55 5.6 9.6 5.45 9.7 5.3 9.75 5.2 9.85 5.05 9.95 4.9 10.0 4.75 10.1 4.6 10.1 4.45 10.15 4.35 10.25 4.2 10.3 4.05 10.35 3.9 10.45 3.75 10.5 3.6 10.55 3.45 10.65 3.35 10.7 3.2 10.8 3.05 10.85 2.9 10.95 2.75 11.05 2.35 11.15 1.9 11.2 1.65 11.3 1.35 11.3 1.2 11.3 1.05 11.35 0.9 11.45 0.8 11.55 0.65 11.75 0.5 12.05 0.4 12.45 0.5 12.65 0.65 12.75 0.8 12.8 0.9 12.8 1.05 12.85 1.2 12.85 1.35 12.85 1.5 12.85 1.65 12.85 1.75 12.85 1.9 12.8 2.2 12.8 2.35 12.75 2.5 12.75 2.6 12.75 2.75 12.65 2.9 12.6 3.05 12.5 3.2 12.45 3.35 12.45 4.9 12.45 6.45 12.45 7.45 12.5 7.75 12.55 7.9 12.6 8.0 12.65 8.15 12.7 8.3 12.85 8.3 13.2 8.2 13.25 8.15 13.35 8.05 13.4 7.9 13.4 7.8 13.45 7.65 13.45 7.5 13.45 7.35 13.45 7.2 13.45 7.05 13.45 6.95 13.5 6.8 13.25 6.65 13.2 6.6 13.1 6.45 13.15 6.3 13.2 6.15 13.45 6.1 13.65 6.05 13.95 6.0 14.25 6.1 14.35 6.2 14.35 6.35 14.4 6.5 14.45 6.65 14.45 6.8 14.45 6.95 14.5 7.05 14.5 7.2 14.5 7.35 14.5 7.5 14.55 7.65 14.55 7.8 14.55 7.9 14.55 8.05 14.55 8.2 14.6 8.35 14.55 8.5 14.55 8.65 14.4 8.8 14.3 8.9 14.15 9.05 14.0 9.2 13.15 9.55 12.25 9.75 11.9 9.7 11.75 9.55 11.6 9.4 11.5 9.25 11.4 9.1 11.3 8.7 11.2 8.25 11.1 7.95 11.0 7.7 11.0 7.55 11.0 7.25 11.0 7.0 11.0 6.85 11.0 6.7 11.0 6.55 10.95 6.65 10.9 6.8 10.85 6.95 10.75 7.05 10.7 7.2 10.6 7.35 10.55 7.5 10.45 7.65 10.4 7.8 10.3 7.9 10.25 8.05 10.15 8.2 10.1 8.35 10.0 8.5 9.95 8.65 9.85 8.8 9.75 8.9 9.7 9.05 9.2 9.75 7.7 11.75 6.4 13.2 6.15 13.3 5.45 13.75 4.9 14.05 4.55 14.15 4.1 14.1 3.85 14.1 3.65 14.0 3.45 13.85 3.3 13.7 3.1 13.55 3.0 13.4 2.95 13.25 2.85 13.0 2.75 12.7 2.7 12.55 2.65 12.4 2.65 12.3 2.6 12.35 2.45 12.5 2.3 12.65 2.15 12.8 1.95 12.95 1.0 13.65 0.4 14.1 0.0 14.15 -0.95 14.15 -1.35 14.1 -1.75 13.8 -1.95 13.65 -2.1 13.5 -2.2 13.35 -2.25 13.25 -2.35 13.1 -2.4 12.95 -2.45 12.8 -2.55 12.5 -2.75 11.95 -2.85 11.55 -2.9 11.25 -2.9 10.95 -2.9 9.8 -2.9 8.8 -2.9 8.25 -3.4 8.75 -3.75 9.2 -4.05 9.5 -4.55 9.75 -5.45 10.35 -5.75 10.6 -6.0 10.75 -6.4 10.9 -6.85 11.0 -7.2 11.0 -7.5 10.95 -7.65 10.85 -7.85 10.7 -7.95 10.6 -8.05 10.45 -8.1 10.3 -8.15 10.15 -8.15 10.0 -8.15 8.75 -8.15 7.45 -8.15 6.6 -8.1 6.45 -8.15 6.3 -8.25 6.15 -8.3 6.05 -8.3 5.9 -8.3 5.75 -8.25 5.6 -8.15 5.45 -8.1 5.3 -8.05 5.2 -7.95 5.05 -7.85 4.9 -7.75 4.75 -7.65 4.6 -7.6 4.45 -7.5 4.35 -7.45 4.2 -7.3 4.05 -7.05 3.9 -6.7 3.8 -6.4 3.85 -6.15 3.95 -6.0 4.1 -5.9 4.25 -5.8 4.35 -5.75 4.5 -5.75 4.65 -5.75 4.8 -5.75 4.95 -5.75 5.1 -5.75 5.25 -5.8 5.35 -5.9 5.5 -6.0 6.1 -6.1 6.5 -6.2 6.8 -6.25 7.05 -6.25 7.5 -6.25 7.9 -6.25 8.2 -6.25 8.35 -6.2 8.45 -6.05 8.4 -5.8 8.25 -5.5 8.1 -5.2 7.95 -4.55 7.25 -3.75 6.25 -3.3 5.7 -3.25 5.55 -3.2 5.4 -3.1 5.25 -3.05 5.15 -2.95 5.0 -2.85 4.85 -2.7 4.4 -2.6 4.0 -2.5 3.7 -2.45 3.45 -2.45 3.0 -2.45 2.7 -2.45 2.45 -2.45 2.3 -2.45 2.15 -2.4 2.0 -2.35 1.85 -2.3 1.7 -2.15 1.6 -1.9 1.45 -1.5 1.35 -1.25 1.4 -1.1 1.45 -0.95 1.55 -0.8 1.65 -0.65 1.8 -0.6 1.95 -0.6 2.1 -0.6 2.65 -0.6 3.4 -0.6 3.95 -0.6 4.25 -0.6 4.35 -0.8 5.25 -0.9 5.95 -1.0 6.35 -1.0 7.9 -1.0 9.65 -1.0 10.75 -0.95 10.9 -0.9 11.2 -0.85 11.45 -0.8 11.6 -0.8 11.75 -0.75 11.9 -0.65 12.05 -0.6 12.2 -0.3 12.25 0.25 11.85 0.6 11.55 1.0 11.3 1.1 11.15 1.2 11.0 1.25 10.85 1.3 10.7 1.4 10.6 1.6 10.3 1.7 10.15 1.8 10.0 1.9 9.85 1.95 9.7 2.05 9.6 2.2 9.3 2.3 9.15 2.4 9.0 2.5 8.85 2.55 8.75 2.65 8.6 2.7 8.45 2.7 7.9 2.7 7.3 2.7 6.9 2.7 6.6 2.75 6.45 2.75 6.3 2.75 6.15 2.75 6.05 2.8 5.9 2.8 5.75 2.8 5.6 2.85 5.45 2.85 5.3 2.85 5.2 2.85 5.05 2.85 4.9 2.85 4.75 2.85 4.6 2.9 4.45 2.9 4.35 2.9 4.2 2.9 4.05 2.95 3.9 2.95 3.75 2.95 3.6 2.95 3.45 3.0 3.35 2.95 3.05 2.95 2.2 2.95 1.5 3.0 1.05 3.0 0.9 3.05 0.8 3.15 0.65 3.25 0.5 3.35 0.35 3.5 0.2 3.75 0.05 4.1 -0.05 4.3 -0.05" fill="#333333" fill-rule="evenodd" stroke="none"/>
  </g>
</svg>
