<?xml version="1.0" encoding="UTF-8" standalone="no"?>
<svg xmlns:xlink="http://www.w3.org/1999/xlink" height="137.4px" width="167.0px" xmlns="http://www.w3.org/2000/svg">
  <g transform="matrix(1.0, 0.0, 0.0, 1.0, 86.3, 69.65)">
    <path d="M47.1 -50.55 Q57.6 -47.1 62.95 -41.9 67.65 -37.35 67.75 -32.15 67.85 -25.85 72.2 -21.9 L75.15 -18.8 Q76.5 -16.8 76.5 -13.8 76.5 -7.85 76.2 -5.7 75.6 -1.2 73.3 2.25 78.3 7.15 79.05 8.8 79.55 9.85 79.55 14.3 79.55 16.8 75.2 22.2 L67.75 30.5 Q66.65 31.65 66.4 34.25 66.1 37.7 65.7 38.75 63.75 44.2 51.35 45.15 50.8 50.5 48.15 54.35 42.8 62.15 30.65 62.15 19.4 62.15 15.95 60.5 L14.5 59.35 Q14.15 58.85 13.75 58.85 L10.4 61.5 Q6.5 64.1 -0.25 64.1 -6.0 64.1 -7.25 63.1 -8.5 62.05 -9.35 62.05 -9.95 62.05 -11.15 63.9 -13.0 65.75 -17.05 65.75 -18.65 65.75 -36.05 60.6 L-61.9 52.6 Q-71.0 49.65 -74.2 45.85 -76.35 43.25 -76.35 38.75 L-76.3 36.0 Q-76.05 34.2 -75.05 33.55 L-82.2 28.55 Q-83.35 27.35 -83.35 24.3 -83.35 19.0 -81.2 12.5 -79.05 6.05 -79.05 4.0 L-82.65 -0.35 Q-86.3 -5.35 -86.3 -8.6 -86.3 -13.6 -84.05 -19.0 -80.5 -27.6 -73.4 -25.0 -73.05 -25.8 -73.15 -28.4 -73.25 -31.0 -72.5 -32.45 -70.05 -37.45 -55.75 -39.05 -54.75 -47.1 -51.55 -52.7 -46.15 -62.0 -35.75 -62.0 -28.7 -62.0 -26.6 -60.45 L-25.3 -59.4 Q-24.55 -58.9 -23.05 -58.9 -19.8 -58.9 -15.35 -61.9 L-7.65 -67.35 Q2.25 -73.3 11.85 -63.85 12.85 -62.3 19.95 -60.85 L22.65 -60.25 24.15 -60.6 Q27.25 -61.0 31.25 -59.9 40.15 -57.45 41.4 -52.2 L47.1 -50.55 M69.4 22.5 L69.25 22.4 69.35 22.55 69.4 22.5" fill="#ffffff" fill-rule="evenodd" stroke="none"/>
    <path d="M18.4 -58.55 L19.2 -59.25 14.1 -63.35 Q9.05 -66.85 3.8 -66.85 -2.95 -66.85 -11.95 -62.05 L-20.45 -57.3 Q-22.05 -57.3 -22.5 -57.75 L-22.4 -57.85 -23.65 -58.5 -25.15 -59.3 -26.9 -59.2 -31.05 -59.65 -35.2 -60.15 Q-46.35 -60.15 -49.8 -53.25 -52.5 -47.9 -50.05 -42.9 -50.25 -42.35 -50.75 -42.15 L-51.2 -42.25 -58.3 -39.6 Q-65.35 -36.7 -67.2 -34.45 -68.8 -32.5 -69.4 -30.1 L-69.6 -28.5 -68.05 -28.15 -69.6 -27.55 Q-69.55 -26.4 -69.1 -25.4 L-69.2 -25.2 -69.65 -24.9 Q-70.9 -25.55 -71.5 -26.65 -75.6 -24.3 -77.15 -20.25 -78.3 -17.35 -78.3 -11.1 L-77.8 -10.1 -77.2 -9.05 Q-75.05 -10.4 -72.25 -11.1 L-72.05 -10.5 Q-77.45 -7.9 -80.05 -2.4 -82.1 1.85 -82.1 6.7 -82.1 10.7 -81.7 11.5 -80.75 13.25 -75.15 17.5 L-77.95 16.8 Q-78.85 17.45 -79.8 19.3 -81.05 21.7 -81.05 23.0 -81.05 36.0 -64.35 35.05 L-63.6 35.15 Q-63.4 35.25 -63.4 35.9 -63.4 36.45 -66.05 37.1 L-71.3 37.8 Q-72.45 38.4 -72.95 39.7 -73.25 40.4 -73.25 42.85 -73.25 46.8 -71.6 49.15 -69.5 52.1 -64.4 54.05 L-59.2 51.9 -54.8 51.8 Q-54.8 52.65 -55.85 53.7 -54.7 56.45 -52.8 57.85 -46.9 62.3 -31.8 62.3 -30.65 62.3 -28.05 61.25 L-28.0 61.25 Q-28.95 59.85 -28.95 58.35 L-28.75 56.6 -28.3 56.6 -25.8 60.35 Q-25.0 60.0 -24.6 59.8 L-25.7 60.45 Q-21.85 65.05 -16.95 65.05 -5.9 65.05 -1.1 63.0 L-1.3 62.8 Q-2.15 61.25 -2.8 60.6 L1.1 61.7 1.55 61.25 2.65 60.15 2.9 60.05 Q3.15 60.1 3.15 60.7 3.15 61.15 2.6 61.75 L10.55 60.9 Q8.85 59.15 7.8 56.55 L8.0 56.1 Q8.15 55.85 8.75 55.85 9.75 55.85 13.25 59.35 L13.85 59.75 14.75 59.3 Q17.05 58.0 19.7 55.75 L20.25 55.85 20.4 56.55 Q17.85 58.95 15.35 60.6 19.75 62.8 26.2 62.8 34.6 62.8 44.05 54.8 L48.35 50.85 Q52.25 46.9 53.25 43.95 54.3 44.0 54.55 44.85 L54.65 46.1 Q54.65 47.4 53.5 49.2 59.15 46.8 64.2 41.85 70.95 35.25 70.95 30.4 70.95 28.95 70.0 26.65 69.25 24.75 68.55 24.25 65.2 26.05 61.75 26.05 L60.55 25.85 59.75 25.45 Q59.6 26.05 59.6 25.05 59.6 24.5 67.95 20.15 76.25 14.95 76.25 10.35 76.25 8.95 75.15 7.25 L74.65 6.55 Q73.35 7.2 72.0 7.2 70.5 7.2 69.25 6.55 69.15 6.95 69.15 5.95 69.15 5.55 73.45 1.25 77.75 -3.9 77.75 -8.45 77.75 -13.6 75.15 -18.15 71.75 -24.1 64.5 -27.3 L63.35 -26.5 63.35 -26.05 63.1 -26.05 63.0 -27.75 Q75.2 -24.65 78.85 -16.95 80.7 -13.05 80.7 -3.45 80.7 -1.45 78.5 2.35 77.05 4.85 75.4 6.05 76.55 7.3 77.15 8.8 77.85 10.65 77.85 14.05 77.85 16.35 73.2 20.75 L71.15 22.55 Q72.45 23.35 72.95 25.3 L73.2 32.7 Q73.2 33.75 71.5 36.65 69.55 40.05 66.8 43.1 59.4 51.5 51.4 51.8 49.05 54.3 45.1 57.5 34.7 65.9 26.7 65.9 17.4 65.9 12.3 62.35 8.55 64.1 4.95 64.1 L0.2 63.6 -1.3 64.45 Q-6.5 67.4 -11.55 67.4 -21.05 67.4 -25.75 63.65 L-27.45 62.0 -28.4 62.95 Q-31.4 65.05 -38.45 65.05 -46.0 65.05 -52.45 60.9 -57.85 57.4 -57.85 55.2 -59.75 56.35 -61.7 56.35 L-64.8 55.9 -65.15 55.95 Q-71.0 55.95 -74.05 51.05 -76.0 47.9 -76.0 45.45 -76.0 41.35 -75.35 39.75 -74.75 38.3 -73.6 37.6 -77.45 36.7 -80.55 32.65 -82.5 30.05 -83.5 27.35 -83.5 23.45 -82.85 21.2 -81.85 17.9 -79.3 16.3 -82.9 14.9 -83.95 12.85 -84.55 11.75 -84.55 6.75 -84.55 0.95 -82.5 -3.15 -80.85 -6.5 -77.9 -8.55 -79.45 -9.95 -80.0 -12.45 -80.3 -13.95 -80.3 -17.0 -80.3 -20.85 -77.8 -24.65 -75.45 -28.1 -72.0 -28.55 L-72.05 -29.6 Q-72.05 -30.95 -70.85 -33.4 -69.35 -36.4 -67.05 -38.7 -60.85 -44.75 -52.0 -42.8 -52.55 -43.55 -52.55 -44.95 -52.55 -51.65 -48.05 -56.45 -40.35 -64.75 -22.4 -60.25 L-21.75 -59.75 -22.15 -59.65 -21.5 -58.95 -21.4 -59.2 -21.2 -58.95 -21.2 -58.7 -21.2 -58.65 Q-16.7 -62.7 -9.8 -65.25 -3.2 -67.7 3.5 -68.05 10.35 -68.4 14.8 -66.35 19.3 -64.2 20.2 -60.05 21.6 -61.1 23.1 -61.6 26.15 -62.65 34.1 -63.45 37.1 -62.0 39.1 -58.0 40.5 -55.2 40.65 -53.4 48.5 -53.45 56.85 -47.7 61.25 -44.7 64.3 -40.95 67.15 -37.5 67.15 -35.65 67.15 -33.3 66.65 -31.35 65.9 -28.55 64.2 -27.55 65.0 -30.45 65.0 -31.7 65.0 -37.65 58.1 -43.2 51.5 -48.5 40.5 -51.1 L40.35 -48.0 39.4 -47.55 Q38.65 -48.8 38.5 -51.55 L34.1 -52.35 38.45 -53.25 38.55 -56.2 Q37.75 -61.65 30.05 -61.65 26.1 -61.65 22.3 -59.95 L19.2 -58.25 18.4 -58.55" fill="#333333" fill-rule="evenodd" stroke="none"/>
    <path d="M37.8 -26.95 Q39.75 -25.0 41.6 -24.55 48.5 -22.75 52.7 -18.7 56.1 -15.4 56.4 -12.25 57.55 -2.95 63.15 2.1 65.95 4.6 66.75 5.85 68.3 8.3 68.3 12.35 L64.45 24.95 Q60.55 37.75 60.55 41.6 60.55 47.35 60.15 48.6 58.8 52.45 52.95 55.5 48.4 57.9 44.9 58.15 L39.65 57.6 Q33.5 56.35 26.3 60.9 23.25 62.9 21.45 65.05 19.55 66.25 11.3 66.25 3.55 66.25 0.65 64.35 L-0.9 63.0 Q-1.55 62.4 -2.4 62.4 -2.9 62.4 -5.6 64.35 -8.3 66.25 -14.05 66.25 -32.95 66.25 -49.95 46.0 -55.65 39.2 -60.0 31.45 -63.55 25.1 -63.55 23.5 -63.55 18.55 -63.05 17.35 -61.75 14.15 -55.75 10.2 L-59.1 6.2 Q-59.6 5.45 -59.6 3.35 -59.6 -3.95 -52.35 -13.5 -45.9 -22.05 -36.05 -29.6 -26.4 -36.95 -18.65 -39.45 -10.3 -42.15 -8.3 -37.65 -5.65 -37.65 0.05 -35.9 L5.4 -34.2 Q6.1 -34.2 6.45 -35.1 7.95 -36.0 14.7 -36.0 27.55 -36.0 33.85 -30.85 L37.8 -26.95 M-35.3 -25.85 L-35.45 -25.7 -35.25 -25.5 -35.3 -25.85 M-27.05 48.8 Q-27.85 48.25 -28.7 48.15 -29.6 48.1 -29.8 48.65 L-27.05 48.8 M-52.5 0.3 L-52.15 0.3 -52.0 -1.5 -52.5 0.3" fill="#d1d0a5" fill-opacity="0.3019608" fill-rule="evenodd" stroke="none"/>
    <path d="M24.0 -6.0 L24.55 -6.15 Q21.1 -7.9 20.6 -7.65 21.05 -6.6 24.0 -6.0 M30.7 -12.5 L33.45 -7.85 Q34.85 -6.35 40.65 -3.05 45.6 -0.25 46.95 2.6 L52.75 15.0 Q55.0 20.7 55.0 26.15 55.0 27.95 53.95 31.7 52.5 36.9 49.95 41.2 42.25 54.15 27.9 54.15 L24.45 53.45 Q21.95 52.75 21.0 52.75 20.0 52.75 19.35 54.25 L17.85 57.55 Q15.0 62.3 6.0 62.3 -9.7 62.3 -27.8 48.8 -34.65 43.7 -39.4 38.35 -43.85 33.35 -43.85 31.2 -43.85 -1.05 -0.35 -16.2 17.4 -22.35 25.75 -17.4 28.55 -15.7 30.7 -12.5 M1.5 12.05 Q0.6 12.05 0.0 12.8 L1.3 15.0 1.5 12.05 M9.25 40.5 L9.95 41.3 Q10.75 41.8 12.0 41.8 14.15 41.8 19.2 37.1 L18.75 37.3 9.25 40.5 M39.35 25.85 L37.4 25.7 35.7 25.65 35.7 25.85 35.5 27.05 35.3 28.2 35.25 28.75 Q37.3 28.0 38.2 27.35 L39.15 26.5 39.35 25.85 M-12.8 -2.6 Q-9.35 -2.8 -5.8 -5.0 L-1.2 -7.85 -6.3 -5.75 -11.9 -3.15 -12.8 -2.6 M-7.85 40.1 Q-5.6 37.85 -5.6 36.9 -6.05 36.9 -8.3 38.25 -8.3 39.9 -7.85 40.1 M-26.3 13.95 Q-23.5 12.05 -22.3 10.75 L-26.05 13.75 -26.3 13.95" fill="#d1d0a5" fill-opacity="0.3019608" fill-rule="evenodd" stroke="none"/>
    <path d="M43.5 33.75 L49.25 28.15 Q53.75 23.6 56.8 23.6 59.5 23.6 60.9 25.85 61.85 27.4 61.85 28.75 61.85 39.2 52.95 47.5 38.6 60.9 5.6 60.9 1.4 60.9 -2.35 59.9 L-5.4 58.85 -11.7 59.05 Q-10.85 61.0 -12.75 64.05 -15.05 67.75 -19.65 67.75 -22.85 67.75 -24.35 66.4 L-26.05 65.05 -30.3 66.05 Q-33.85 67.0 -36.35 67.0 -48.0 67.0 -51.8 59.85 -53.7 56.25 -53.3 52.5 -54.0 49.3 -52.35 46.9 -49.15 42.1 -37.5 44.4 -37.25 35.9 -23.3 27.3 -11.1 19.85 5.5 15.5 21.85 11.2 29.75 13.25 36.9 15.1 32.8 21.6 34.15 20.8 36.25 20.8 42.2 20.8 43.1 25.75 43.6 28.5 43.5 33.75 M30.45 25.1 L30.65 24.5 30.25 24.9 30.45 25.1 M-40.8 55.35 L-40.1 56.25 Q-38.8 57.25 -31.95 57.15 -33.4 56.25 -35.8 55.35 -39.7 53.85 -42.35 54.25 L-42.15 54.45 Q-41.2 54.75 -40.8 55.35" fill="#d1d0a5" fill-opacity="0.3019608" fill-rule="evenodd" stroke="none"/>
    <path d="M72.8 -6.15 Q74.4 -4.35 75.65 -1.2 76.85 1.9 76.85 4.0 76.85 6.3 75.8 11.8 74.3 19.45 71.7 25.9 63.9 45.35 49.55 45.35 40.55 45.35 38.35 42.05 37.65 41.05 37.5 39.4 L37.2 37.5 34.25 40.75 30.65 44.8 Q28.95 43.65 28.35 41.85 L27.8 39.75 Q20.8 39.75 18.55 38.25 17.4 37.4 17.4 35.5 17.4 32.85 29.05 24.85 40.55 16.95 43.85 16.95 46.45 16.95 47.5 19.1 48.05 20.2 48.05 21.35 L47.4 24.3 Q46.75 26.35 46.75 27.25 46.75 28.2 45.95 30.15 45.15 32.05 45.15 33.0 45.15 34.85 45.35 35.35 45.7 36.35 46.95 36.35 50.4 36.35 50.7 28.0 L50.3 19.65 Q50.3 10.6 52.35 5.2 56.3 -5.35 67.0 -1.0 68.55 -10.9 72.8 -6.15" fill="#d1d0a5" fill-opacity="0.3019608" fill-rule="evenodd" stroke="none"/>
    <path d="M-29.5 50.8 L-28.45 51.3 Q-29.1 55.7 -26.55 59.5 L-27.05 59.5 Q-33.3 56.4 -29.5 50.8 M-32.6 58.45 L-33.2 57.9 Q-37.65 49.8 -31.35 46.0 -35.0 52.15 -31.8 58.3 L-32.6 58.45 M-1.65 61.3 Q-2.85 57.7 -1.55 54.2 L-0.4 53.9 Q0.0 57.8 -1.65 61.3 M-47.55 56.7 L-48.2 56.6 Q-55.3 50.9 -53.25 40.7 L-47.55 56.7 M-56.7 37.1 L-55.15 36.65 -54.65 36.8 -54.85 37.35 Q-57.5 42.65 -55.35 48.2 L-56.55 48.15 -56.8 47.85 Q-59.75 42.7 -56.7 37.1 M-46.1 24.9 L-48.7 33.65 Q-49.25 36.35 -47.9 38.45 L-46.3 40.85 Q-48.25 41.45 -49.15 39.75 -53.9 31.05 -46.1 24.9 M-65.05 48.05 Q-68.15 46.05 -67.45 42.15 -65.15 44.4 -64.3 47.85 L-64.45 48.35 -65.05 48.05 M-6.25 38.55 Q-6.1 39.05 -6.25 39.5 -8.95 48.15 -4.85 55.3 L-6.05 55.8 -6.9 55.3 Q-11.05 47.65 -6.6 39.05 L-6.25 38.55 M-12.6 37.05 L-12.5 37.6 Q-15.2 46.75 -13.15 56.4 L-13.5 56.75 Q-15.65 53.95 -16.3 50.45 -17.9 41.4 -12.6 37.05 M-40.1 26.1 Q-39.45 26.1 -39.45 26.75 -40.6 32.05 -36.85 35.65 L-38.05 36.5 Q-42.8 32.7 -40.6 26.2 L-40.1 26.1 M-39.15 44.8 L-40.15 47.0 -39.75 49.35 Q-38.6 54.45 -36.95 58.0 L-37.2 57.75 Q-42.35 51.95 -40.8 44.35 L-39.15 44.8 M-30.45 39.0 Q-35.0 36.35 -34.35 29.8 -33.7 23.05 -30.1 22.6 -35.2 31.25 -29.6 38.7 -30.0 39.3 -30.45 39.0 M-23.35 7.75 Q-22.4 11.95 -23.3 16.35 -24.75 23.4 -19.65 25.65 L-19.85 27.05 -21.3 26.95 Q-29.5 18.85 -23.35 7.75 M-13.6 22.95 Q-14.35 23.45 -14.8 23.25 L-15.9 22.45 Q-14.65 21.7 -14.3 20.45 -12.85 15.05 -9.3 11.5 -8.45 15.6 -10.7 19.8 L-10.3 20.45 -7.4 20.15 -7.55 21.35 -8.15 21.75 Q-9.85 23.05 -11.8 22.15 L-12.2 21.65 -13.6 22.95 M-15.4 12.65 Q-16.85 17.4 -16.2 22.2 -19.9 18.7 -16.25 12.35 L-15.4 12.65 M-2.5 9.25 L-2.95 8.55 Q-6.6 -0.75 -1.35 -7.75 -2.3 0.7 -2.0 9.25 L-2.5 9.25 M-6.55 -19.55 L-7.15 -20.35 Q-10.45 -24.85 -9.25 -30.05 -8.0 -24.75 -5.3 -20.25 L-6.0 -19.5 -6.55 -19.55 M-38.75 -38.05 L-37.85 -38.4 Q-39.35 -30.45 -35.2 -24.0 L-36.1 -23.6 -36.75 -23.9 Q-42.3 -29.8 -38.75 -38.05 M-32.85 -30.15 L-31.65 -30.9 -30.25 -28.4 -30.3 -28.35 -32.85 -30.15 M-17.3 -35.05 L-16.55 -36.3 -15.6 -37.4 -15.1 -36.9 Q-19.85 -26.3 -15.4 -15.35 L-15.75 -15.1 -16.5 -16.35 Q-20.45 -24.65 -17.85 -33.85 L-17.3 -35.05 M-3.15 -31.0 Q-2.75 -30.15 -2.9 -29.2 -3.85 -22.65 -1.55 -16.25 L-2.3 -16.9 Q-6.6 -23.2 -4.55 -31.0 L-3.15 -31.0 M5.15 53.4 L6.15 53.8 Q4.05 58.65 5.5 63.8 0.7 59.15 4.4 53.6 L5.15 53.4 M18.05 56.55 L17.4 55.8 Q15.9 53.55 17.0 50.95 L18.75 55.85 18.05 56.55 M10.55 53.05 L11.65 59.0 Q12.3 60.6 12.55 62.35 12.8 64.1 12.0 64.1 L11.7 63.85 Q8.25 58.8 8.75 52.65 L10.55 53.05 M24.2 50.0 L24.75 49.7 24.5 51.95 26.9 54.8 26.35 55.1 Q21.2 54.65 24.2 50.0 M32.05 38.3 L32.6 38.5 Q31.8 45.6 35.95 51.2 35.6 47.7 38.25 45.6 L39.55 45.8 Q36.45 52.5 41.55 58.55 L40.5 59.2 40.1 59.1 Q37.1 57.35 36.65 53.55 L36.35 53.55 Q28.5 47.9 31.55 38.45 L32.05 38.3 M28.95 47.9 L29.35 48.2 33.2 59.35 32.4 59.65 32.15 59.45 Q28.25 54.25 28.95 47.9 M37.1 36.6 Q35.3 36.85 34.8 35.15 32.55 27.35 39.35 25.7 35.05 30.5 37.5 36.0 L37.1 36.6 M10.8 39.85 L10.85 40.15 Q9.95 46.2 11.05 52.0 L9.5 49.9 Q7.4 45.3 9.6 40.75 9.9 40.15 10.35 39.7 L10.6 39.65 10.8 39.85 M6.8 41.45 L6.5 41.25 Q-0.8 33.35 7.4 26.65 1.1 35.2 8.5 40.65 L6.8 41.45 M0.05 44.5 L1.5 43.25 Q1.15 48.35 4.8 51.5 L4.25 51.4 Q0.0 49.4 0.05 44.5 M13.85 28.05 Q16.2 32.6 19.55 36.3 L18.25 37.0 17.35 36.7 Q14.2 34.75 13.55 30.75 L11.5 33.4 10.75 32.75 12.95 28.5 13.85 28.05 M9.6 18.25 Q7.45 16.7 8.05 14.2 L9.25 11.85 10.55 12.15 10.6 12.7 9.15 14.9 10.6 18.45 10.05 18.5 9.6 18.25 M2.75 8.0 L3.0 8.55 Q3.75 10.25 2.95 11.85 1.7 16.8 4.1 21.4 L3.75 21.4 Q-3.1 15.2 2.75 8.0 M30.1 20.45 L30.3 20.95 Q27.2 27.7 31.5 33.9 L31.4 34.45 30.9 34.25 Q24.05 27.7 30.1 20.45 M41.65 42.95 L42.75 36.4 44.6 56.35 44.25 56.25 Q40.65 50.7 41.65 42.95 M51.8 41.0 L51.15 41.3 50.7 40.95 Q48.15 35.55 52.75 31.9 L50.9 39.55 51.35 39.75 52.35 39.85 51.8 41.0 M45.1 43.6 L46.5 41.1 47.55 53.05 46.3 53.05 46.0 52.2 Q44.9 47.95 45.1 43.6 M58.2 27.15 L58.45 26.05 62.2 35.75 61.95 35.7 Q57.4 33.15 58.2 27.15 M57.3 22.75 Q54.9 20.2 55.55 16.4 58.0 19.15 58.3 22.8 L57.75 23.0 57.3 22.75 M42.95 13.85 L42.75 15.0 42.35 16.4 Q41.9 19.0 43.85 20.9 L43.1 20.75 Q38.5 18.1 41.95 13.9 L42.95 13.85 M66.3 15.6 L67.5 15.7 Q67.9 17.1 67.05 18.05 L66.7 18.4 66.3 15.6 M47.55 -1.5 L46.2 -0.85 Q44.95 -1.75 44.9 -3.25 L45.05 -4.35 45.3 -5.05 47.55 -1.5 M33.45 -6.2 L33.7 -0.95 Q34.1 0.75 35.35 2.05 L36.15 2.85 35.85 3.2 35.25 3.35 Q33.4 2.65 32.65 0.85 31.05 -2.95 33.45 -6.2 M24.6 -1.7 L24.1 -3.5 24.1 -4.0 24.45 -5.0 24.8 -5.45 25.3 -5.8 25.85 -5.75 25.25 -4.75 25.7 -2.4 26.5 -0.1 24.6 -1.7 M25.25 -14.6 L24.3 -15.35 Q17.0 -22.7 25.0 -29.5 19.95 -21.7 25.25 -14.6 M32.9 -17.05 Q30.65 -20.25 31.9 -24.1 L34.2 -16.65 33.25 -16.6 32.9 -17.05 M6.0 -5.8 L7.45 -6.45 Q6.25 -1.45 7.5 3.4 L6.9 2.9 Q3.75 -1.3 6.0 -5.8 M0.55 -3.15 L2.05 -1.75 Q4.0 0.8 4.55 4.0 L4.45 3.95 Q1.45 1.0 0.55 -3.15 M18.35 -26.0 L18.75 -25.75 17.9 -7.75 Q13.4 -16.9 18.35 -26.0 M9.55 -37.1 L13.15 -33.0 12.8 -31.9 9.0 -36.0 9.55 -37.1" fill="#333333" fill-rule="evenodd" stroke="none"/>
  </g>
</svg>
