<?xml version="1.0" encoding="UTF-8" standalone="no"?>
<svg xmlns:xlink="http://www.w3.org/1999/xlink" height="140.3px" width="178.5px" xmlns="http://www.w3.org/2000/svg">
  <g transform="matrix(1.0, 0.0, 0.0, 1.0, 90.35, 69.7)">
    <path d="M47.65 -55.15 L48.35 -54.0 48.75 -52.85 48.8 -51.7 49.35 -50.6 49.95 -49.35 50.45 -48.25 52.4 -47.5 54.4 -46.75 55.55 -45.6 58.0 -44.85 61.55 -44.05 63.9 -42.85 65.9 -41.75 67.1 -40.65 69.5 -38.3 70.65 -37.1 71.45 -36.05 72.2 -34.8 72.7 -33.7 73.85 -32.55 74.55 -31.4 75.05 -30.25 75.35 -29.1 75.45 -28.0 75.45 -26.85 75.45 -25.65 75.45 -24.5 75.45 -23.4 76.25 -22.2 77.05 -21.05 77.75 -19.9 78.25 -18.8 80.25 -17.6 82.25 -16.45 83.35 -15.3 84.1 -14.15 84.6 -13.0 84.6 -8.4 84.6 -2.7 84.6 0.8 84.5 3.05 84.25 4.2 Q83.8 4.75 83.7 5.4 83.6 5.95 83.8 6.5 L85.4 7.7 86.55 8.85 87.3 10.0 87.8 11.1 88.15 12.25 88.15 13.4 88.1 14.55 87.9 15.7 87.8 16.85 87.7 17.95 87.4 19.15 86.6 20.3 Q84.7 22.75 82.35 25.0 L80.2 27.15 79.0 28.3 77.45 29.5 74.35 30.45 73.45 31.0 73.45 32.2 73.45 36.8 73.45 40.2 73.45 42.5 73.35 43.65 73.1 44.8 Q72.5 46.9 70.85 48.4 L66.7 51.65 63.15 53.95 61.15 55.15 57.95 55.7 48.85 56.5 48.8 56.65 47.55 58.5 46.45 59.75 45.25 60.9 44.0 62.0 42.45 63.15 39.3 63.95 37.65 64.75 34.5 65.5 32.9 66.25 29.35 67.0 21.4 67.0 15.05 66.85 12.65 66.6 11.05 65.85 9.5 65.1 7.5 66.25 4.3 67.0 2.7 67.75 -0.5 68.55 -2.05 69.3 Q-14.5 71.55 -27.1 69.95 L-28.3 69.7 -29.85 68.95 -32.3 67.75 -34.65 66.6 -50.95 65.35 -52.15 65.1 -53.35 64.35 -54.95 63.15 -57.3 62.4 -58.55 62.0 -59.7 61.25 -61.3 60.15 -62.95 59.05 -65.25 57.8 -67.65 56.65 Q-70.0 54.1 -72.8 52.0 -74.7 50.6 -75.9 48.55 L-77.15 46.3 -77.6 45.15 -77.6 44.0 -77.6 42.9 -77.6 41.75 -77.6 40.55 -77.6 39.45 -77.6 38.3 -78.35 37.15 -79.2 35.95 -79.9 34.8 -80.45 33.75 -81.15 32.55 -81.55 31.4 -82.0 30.25 -82.35 29.1 -82.35 27.95 -82.35 26.8 -82.35 25.65 -82.35 24.5 -82.8 23.35 -83.15 22.2 -83.55 21.05 -83.95 19.9 -83.95 18.8 -83.95 15.3 -83.95 8.4 -83.95 3.8 -83.95 1.55 -83.95 0.35 -83.55 -0.8 -83.15 -1.9 -83.55 -3.05 -83.95 -4.25 -83.95 -6.5 -83.95 -8.85 -83.95 -10.0 -83.95 -11.1 -83.9 -12.25 -83.55 -13.45 -82.9 -14.6 Q-81.75 -17.3 -79.45 -19.45 L-76.65 -22.5 -74.7 -25.05 Q-74.45 -25.45 -74.45 -26.05 L-74.45 -27.2 -74.45 -28.35 -74.0 -29.5 -73.65 -30.65 -73.2 -31.8 -72.4 -32.9 -71.25 -34.1 -69.25 -35.2 -66.1 -36.05 -65.6 -36.35 Q-64.65 -36.8 -63.9 -37.4 -63.45 -37.75 -63.3 -38.3 L-63.3 -39.45 -63.3 -40.65 -63.3 -41.75 -63.3 -42.9 -63.2 -44.0 -62.9 -45.2 -61.6 -47.45 -60.9 -48.65 -60.05 -49.75 -58.9 -50.95 -57.75 -52.1 -55.7 -53.2 -51.35 -55.45 -48.55 -56.65 -45.4 -57.8 -44.15 -58.95 -42.55 -60.1 -40.65 -61.3 -37.45 -62.05 -31.1 -62.05 -27.5 -61.3 -25.5 -60.15 -24.3 -59.0 -22.7 -58.5 Q-22.3 -58.4 -21.95 -58.65 L-21.2 -59.8 -20.0 -62.05 -19.5 -63.2 -18.75 -64.35 -17.9 -65.45 -16.75 -66.65 Q-15.6 -67.2 -14.4 -67.8 L-12.0 -68.95 -8.85 -69.7 5.5 -69.7 5.55 -69.5 9.05 -68.95 11.45 -67.8 13.85 -66.65 16.2 -64.35 17.4 -63.2 18.55 -62.0 19.3 -60.85 19.85 -59.75 27.75 -59.75 30.95 -60.5 35.7 -60.4 38.1 -60.15 40.1 -59.45 42.85 -58.6 44.0 -58.15 45.65 -57.45 46.75 -56.25 47.65 -55.15" fill="#5b5546" fill-opacity="0.3019608" fill-rule="evenodd" stroke="none"/>
    <path d="M16.65 -17.6 L16.7 -17.4 19.0 -17.2 21.4 -16.45 23.35 -15.3 24.95 -14.2 27.75 -13.0 40.45 -12.65 43.25 -12.65 44.45 -12.9 54.0 -13.95 54.8 -14.2 56.35 -14.95 59.55 -15.7 62.75 -15.7 65.9 -15.7 66.75 -16.0 69.1 -16.45 71.45 -16.0 72.25 -15.7 73.4 -14.9 74.65 -13.8 75.7 -12.55 76.25 -11.5 76.25 -10.35 76.25 -9.2 76.35 -8.05 76.65 -6.9 77.45 -5.75 78.15 -4.6 78.65 -3.45 78.65 -2.3 78.65 -1.15 78.65 -0.05 78.65 1.15 78.55 2.3 78.25 3.45 77.45 4.55 77.35 5.75 77.15 6.9 77.05 8.0 Q78.15 11.95 78.05 16.1 77.95 19.55 78.15 22.95 L78.1 27.6 77.8 28.7 77.3 29.75 76.4 31.1 75.9 32.2 75.45 33.3 75.05 34.45 74.65 35.6 73.0 37.85 71.9 39.05 70.7 40.2 69.5 41.35 68.3 42.5 65.9 43.6 63.1 44.65 59.55 45.6 58.75 45.95 58.75 46.75 58.65 47.85 58.35 49.0 57.85 50.05 56.85 51.35 55.95 52.4 54.8 53.6 Q51.6 55.7 48.0 57.05 27.95 64.65 6.3 59.75 L4.7 60.15 -0.15 61.7 Q-7.25 63.4 -14.4 62.0 L-15.95 61.65 -16.75 61.25 -18.4 60.55 -21.6 59.45 -24.3 58.55 -25.45 59.8 -26.35 60.85 -27.5 62.0 -28.7 63.15 Q-29.85 63.8 -31.15 64.25 -34.2 65.5 -37.45 65.6 L-41.35 65.3 -43.8 64.75 -45.7 63.45 -48.45 61.15 -49.35 60.15 -50.2 58.95 -50.95 57.8 -51.35 56.65 -51.75 55.55 -52.15 54.35 -52.15 53.2 -52.15 52.1 -52.15 50.95 -52.15 49.75 -52.55 48.6 -52.95 47.5 -53.35 46.35 -53.75 45.15 -53.75 44.0 -53.75 42.9 -53.65 41.75 -53.45 40.55 -53.35 39.45 -52.65 38.25 -52.05 37.2 -51.35 35.95 -50.55 34.85 -48.9 33.75 -46.95 32.65 Q-45.4 31.95 -44.1 31.0 -43.8 30.8 -43.8 30.25 L-43.8 26.8 -43.8 22.2 -43.8 18.8 -43.7 16.45 -43.4 15.3 -42.95 14.2 -42.3 12.95 -41.85 11.85 -40.65 10.7 -39.4 9.6 -37.45 8.4 -35.0 7.75 -32.65 7.25 -30.3 7.7 -28.7 8.0 -27.15 8.8 -25.1 9.95 -24.0 11.15 -23.15 12.25 -22.4 13.4 -21.95 14.55 -21.65 15.7 -21.55 16.85 -21.4 17.95 -21.15 18.35 -20.8 17.6 -20.25 16.5 -19.65 15.3 -19.05 14.2 -18.45 12.95 -17.95 11.85 -16.75 10.7 -15.6 9.6 -13.6 8.4 -11.2 7.9 -2.5 7.3 -1.25 7.25 Q-1.05 6.9 -1.1 6.55 -1.55 3.1 -1.35 -0.4 -1.25 -3.25 -1.45 -6.15 -1.55 -7.9 -1.0 -9.65 -0.85 -10.15 -0.85 -10.75 L-0.15 -11.9 0.4 -12.95 1.2 -14.15 2.3 -15.35 4.35 -16.4 6.3 -17.2 8.7 -17.45 16.65 -17.6" fill="#5b5546" fill-opacity="0.3019608" fill-rule="evenodd" stroke="none"/>
    <path d="M-83.95 -2.7 L-83.15 -3.8 -82.35 -5.0 -82.0 -6.15 -81.55 -7.3 Q-79.75 -10.8 -77.35 -14.05 -74.45 -17.9 -70.15 -20.1 -66.7 -21.85 -62.9 -22.2 L-62.85 -22.0 -60.5 -21.8 -58.9 -21.4 -57.75 -21.0 -56.1 -20.3 -54.95 -19.15 -53.8 -18.0 -52.95 -16.85 -52.25 -15.65 -51.75 -14.55 -51.45 -13.4 -51.35 -12.25 -51.35 -11.1 -51.35 -10.0 -51.25 -8.85 -50.95 -7.65 -50.25 -6.5 -49.75 -5.4 Q-49.55 -4.8 -49.15 -4.5 L-46.6 -3.0 -44.6 -1.9 -43.4 -0.8 -42.2 0.35 -41.0 1.55 -37.85 1.55 -35.05 0.8 Q-31.5 -0.1 -27.9 0.75 L-24.0 1.7 Q-22.5 2.1 -21.15 2.65 L-19.95 3.8 -18.75 5.0 -17.55 6.15 -16.75 6.9 -14.4 6.8 -12.0 6.5 -8.85 6.9 -6.45 7.3 -4.85 7.6 -2.85 8.0 -1.25 7.65 0.35 6.55 2.3 5.35 4.7 4.8 11.85 4.5 15.85 5.0 17.4 5.75 19.85 6.9 22.2 8.0 23.4 9.15 24.6 10.3 25.75 11.1 34.1 11.7 38.05 12.4 40.9 13.4 42.1 14.55 43.2 15.75 44.1 16.85 44.75 18.0 45.25 19.15 46.45 20.3 47.6 21.5 48.45 22.55 49.2 23.75 50.0 24.9 50.25 27.15 50.45 31.75 50.45 35.2 50.45 37.55 50.45 39.8 50.0 40.95 49.65 42.15 49.2 43.25 47.15 45.5 46.0 46.75 44.85 47.85 43.65 49.0 42.45 50.15 37.55 52.15 Q33.15 53.6 28.6 54.45 L20.2 55.9 19.0 57.05 16.65 58.2 Q15.4 58.75 14.25 59.45 L12.65 60.45 10.65 61.65 7.85 62.35 5.5 62.8 3.15 62.35 1.5 62.0 -0.05 61.25 -2.05 60.15 -3.2 58.9 -3.95 57.75 -4.5 56.7 -5.15 55.5 -5.6 54.35 -13.05 56.0 Q-19.25 57.7 -25.4 55.65 -28.7 54.55 -31.85 55.15 L-33.5 56.25 -35.45 57.45 -38.25 57.95 -45.4 58.25 -49.75 57.8 -50.95 57.05 -52.95 55.9 -54.1 54.8 -59.7 53.95 -62.1 53.5 -64.9 52.85 -66.45 51.7 -68.05 50.5 -69.2 49.35 -70.0 48.25 -70.45 47.1 -70.85 45.95 -71.25 44.8 -71.65 43.65 -72.45 42.5 -73.95 41.3 -76.3 39.0 -77.1 37.9 -77.7 36.8 -78.3 35.55 -78.8 34.45 -79.1 33.3 -79.2 32.2 -79.2 31.0 -79.2 29.85 -79.2 28.7 -79.2 27.6 -79.9 26.35 -80.35 25.25 -80.8 24.15 Q-80.8 23.55 -81.1 23.3 -81.8 22.55 -82.7 22.15 L-84.35 21.4 -86.35 20.3 -87.5 19.1 -88.25 17.95 -88.8 16.85 -89.45 15.65 -89.9 14.55 -90.25 13.35 -90.35 12.25 -90.35 11.1 -90.35 9.95 -90.35 8.8 -90.35 7.65 -89.9 6.5 -89.55 5.35 -89.15 4.2 -88.35 3.05 -86.65 0.8 -84.75 -1.6 -83.95 -2.7" fill="#5b5546" fill-opacity="0.3019608" fill-rule="evenodd" stroke="none"/>
    <path d="M5.85 -55.95 L7.1 -56.7 11.9 -57.4 24.55 -57.8 24.6 -57.6 26.95 -57.45 38.1 -55.6 Q40.95 -54.95 43.6 -53.85 L50.15 -50.8 Q58.45 -46.4 64.2 -39.25 L67.5 -34.45 68.3 -32.2 68.7 -31.0 69.1 -29.85 69.5 -28.75 70.3 -27.6 71.1 -26.4 71.9 -25.3 71.95 -24.15 72.2 -21.8 72.25 -20.7 72.35 -19.55 72.7 -18.4 73.85 -17.2 74.75 -16.15 75.9 -14.95 76.35 -13.85 77.0 -12.6 77.5 -11.55 Q77.8 -10.9 78.25 -10.35 L78.4 -9.25 Q78.85 -7.55 78.7 -5.75 L78.65 -3.45 78.5 -0.05 78.3 2.3 78.25 3.45 76.3 6.9 75.1 9.15 73.4 12.6 72.2 14.9 71.45 16.1 70.7 18.35 70.3 19.55 69.9 20.65 69.5 21.8 68.8 23.05 68.25 24.1 67.0 26.35 65.55 28.7 64.65 29.8 63.55 31.0 58.65 32.6 52.45 34.0 52.0 34.45 51.15 35.55 50.0 36.8 48.8 37.9 43.15 41.1 37.9 44.0 Q37.5 44.2 37.3 44.8 L37.3 45.95 37.2 47.1 37.0 48.25 36.9 49.4 36.1 50.55 35.3 51.7 34.45 52.8 33.3 53.95 28.45 55.5 Q16.65 58.0 4.65 56.0 L3.95 55.9 Q0.95 57.5 -2.4 57.9 -14.3 59.2 -25.5 55.9 L-27.9 55.15 -29.85 53.95 -35.75 51.85 Q-40.15 49.95 -44.2 47.5 L-46.2 46.35 -50.2 45.9 -52.55 45.5 -54.1 45.15 -55.35 44.8 -56.55 44.0 -58.05 42.85 -59.3 41.75 -62.1 40.95 -63.65 40.55 -65.25 39.8 -67.25 38.65 -68.3 37.45 -69.7 35.25 -70.35 34.05 -70.9 33.0 -71.65 31.75 -72.0 30.6 -72.45 29.5 -72.75 28.35 -72.8 27.15 -75.65 26.45 -78.0 25.95 -80.8 25.25 -82.35 24.15 -83.95 22.9 -85.1 21.75 -85.9 20.65 -86.35 19.55 -86.7 18.35 -87.15 17.2 -87.55 16.1 -87.55 14.95 -87.55 13.75 -87.55 12.6 -87.55 10.35 -87.55 8.0 -87.55 6.9 -87.55 5.75 -87.15 4.55 -86.7 3.45 -86.35 2.3 Q-85.25 0.3 -83.45 -1.0 L-76.3 -5.6 Q-72.3 -7.8 -69.9 -11.65 -69.65 -12.05 -69.65 -12.65 L-68.85 -13.8 -68.75 -14.95 -68.45 -16.1 -68.05 -17.2 -68.05 -18.4 -68.0 -19.55 -67.75 -20.7 -67.65 -21.8 -66.85 -23.0 -66.45 -24.15 -66.1 -25.3 -65.3 -26.45 -63.9 -28.6 -61.6 -30.95 -60.05 -32.15 -58.1 -33.35 -55.7 -34.0 -53.35 -34.35 -50.6 -34.75 -49.75 -35.2 -47.35 -37.5 -44.5 -39.65 -42.4 -41.25 Q-42.0 -41.55 -41.85 -42.15 L-41.85 -43.3 -41.85 -44.4 -41.4 -45.6 -41.0 -46.75 -40.65 -47.85 -39.85 -49.0 -38.95 -50.15 -37.85 -51.35 -35.85 -52.45 -31.1 -53.55 Q-17.3 -56.4 -5.8 -49.85 L-4.85 -49.8 -4.0 -50.9 -2.8 -52.05 -1.2 -53.2 0.75 -54.4 3.15 -55.1 5.1 -55.6 5.85 -55.95" fill="#5b5546" fill-opacity="0.3019608" fill-rule="evenodd" stroke="none"/>
    <path d="M48.7 -51.7 Q49.2 -51.25 50.0 -51.1 L55.55 -50.15 56.8 -49.85 57.9 -49.05 59.15 -48.0 60.35 -46.9 63.25 -44.65 65.5 -43.4 66.7 -42.25 67.95 -41.1 69.55 -40.0 71.85 -38.8 73.05 -37.65 74.1 -36.4 75.5 -34.2 76.3 -33.1 77.4 -31.85 79.3 -29.5 79.8 -28.45 80.15 -27.25 80.3 -26.15 80.6 -25.0 81.35 -23.85 81.8 -22.7 82.05 -21.55 82.2 -19.3 82.2 -18.1 82.2 -15.8 82.2 -14.7 82.2 -13.5 82.05 -11.25 81.8 -10.1 81.35 -8.95 80.8 -7.7 80.6 -6.65 80.6 -3.15 80.6 3.75 80.6 8.35 80.6 9.5 80.6 12.95 80.45 16.35 80.25 17.55 79.7 18.65 79.05 19.8 78.6 20.95 78.25 22.15 77.35 23.2 76.2 24.35 Q75.45 24.95 74.85 25.7 L74.25 26.7 74.25 27.85 74.15 29.0 73.85 30.15 73.35 31.3 72.7 32.45 72.7 33.6 72.7 34.75 72.25 35.9 71.85 37.05 71.45 38.2 70.7 39.3 70.25 40.5 69.9 41.65 69.5 42.8 68.7 43.9 67.85 45.05 66.7 46.25 64.7 47.35 63.75 48.6 63.5 49.7 63.5 50.85 63.5 51.95 63.5 53.1 63.15 54.3 62.7 55.45 62.35 56.55 61.15 57.7 59.95 58.9 58.7 60.0 56.8 61.15 48.4 62.0 45.25 61.9 44.0 63.1 42.85 64.25 40.45 65.35 37.65 66.45 32.9 68.0 29.35 68.85 13.45 68.85 9.85 68.1 5.45 68.1 Q-9.05 71.2 -23.5 69.55 L-26.3 69.15 -31.4 67.8 -45.85 62.3 -50.2 62.15 Q-54.35 62.3 -58.1 60.7 L-60.6 59.8 -65.25 58.45 -67.65 57.7 -69.3 56.6 -72.85 54.3 -74.85 53.1 -76.0 51.95 -77.15 50.8 -79.15 48.5 -80.0 47.35 -80.75 46.2 -81.95 43.9 -82.4 42.8 -82.65 40.5 -82.8 37.05 -82.8 34.75 -82.8 33.6 -82.8 32.45 -82.8 30.15 -82.8 29.0 -82.8 26.7 -82.8 25.55 -84.0 24.4 -85.2 23.25 -86.3 22.1 -87.15 20.95 -87.95 19.8 -88.35 18.65 -88.75 17.55 -89.15 16.35 -89.15 14.05 -89.15 11.75 -89.15 9.5 -89.15 8.35 -89.15 7.15 -89.15 4.9 -89.15 3.75 -89.0 1.45 -88.75 0.3 -88.3 -0.85 -87.55 -2.05 -86.75 -3.15 -86.15 -4.35 Q-86.0 -4.85 -86.0 -5.5 L-86.0 -6.65 -86.0 -7.75 -86.0 -8.9 -85.55 -10.1 -85.2 -11.2 -84.5 -13.5 -84.3 -14.65 -84.0 -15.8 -83.2 -18.1 -82.8 -19.3 -81.55 -20.4 -80.35 -21.5 -78.8 -22.7 -76.45 -23.4 -74.85 -23.85 -74.0 -24.25 -72.45 -25.0 -71.25 -26.15 -70.05 -27.3 -69.95 -28.45 -69.65 -29.6 -69.3 -30.75 -68.85 -31.85 -68.45 -33.05 -68.1 -34.2 -67.35 -35.35 -66.85 -36.45 -66.75 -37.65 -66.5 -38.8 -66.1 -39.95 -65.65 -41.05 -65.3 -42.25 -64.15 -43.45 -63.25 -44.5 -62.1 -45.65 -60.1 -46.8 -55.4 -49.15 -53.4 -50.25 -52.2 -51.45 -51.75 -52.6 -51.4 -53.7 -50.6 -54.85 -49.65 -55.95 -47.0 -58.3 -45.4 -59.45 -40.65 -60.95 Q-29.15 -64.45 -16.8 -62.9 L-15.6 -64.05 -13.6 -65.2 -10.4 -65.8 -4.1 -66.55 -0.85 -66.85 7.1 -67.1 7.15 -66.9 10.2 -66.35 12.65 -65.2 15.0 -64.05 16.15 -62.85 17.0 -61.75 17.75 -60.6 18.2 -59.45 26.15 -59.05 27.35 -59.85 29.35 -61.0 32.55 -61.75 38.85 -61.2 42.45 -60.65 43.95 -59.4 45.25 -58.3 46.45 -57.15 47.6 -56.05 48.0 -54.85 48.35 -53.7 48.45 -52.6 Q48.45 -52.0 48.7 -51.7" fill="#5b5546" fill-opacity="0.3019608" fill-rule="evenodd" stroke="none"/>
    <path d="M47.7 24.75 L47.7 24.5 47.7 24.2 47.7 23.9 47.9 23.65 48.2 23.35 48.65 23.15 48.65 23.2 49.05 23.25 49.3 23.45 49.55 23.75 49.6 24.0 49.6 26.0 49.6 28.55 49.6 30.85 49.3 31.95 49.05 33.1 48.75 33.95 48.75 34.25 48.75 34.5 48.65 34.8 48.65 35.1 48.65 35.35 48.6 35.65 48.45 36.5 48.25 37.35 48.1 37.95 48.1 38.2 48.1 38.5 48.1 38.8 48.1 39.05 48.1 39.35 48.3 39.65 48.35 39.9 48.45 40.2 48.55 40.5 48.65 40.75 48.85 41.05 49.05 41.6 49.15 41.9 49.25 42.2 49.3 42.5 49.5 42.75 49.7 43.05 50.35 43.15 50.65 43.05 50.9 42.85 51.4 42.3 51.8 41.7 51.95 41.45 52.2 40.0 52.7 38.3 53.1 37.15 53.1 36.9 53.1 36.6 53.2 36.05 53.3 35.75 53.3 35.45 53.4 35.2 53.4 34.9 53.4 34.6 53.5 34.05 53.55 33.75 53.6 33.5 53.7 33.2 53.7 32.9 53.7 32.65 53.75 32.35 53.85 32.05 53.85 30.35 53.85 28.35 53.85 26.65 54.05 26.4 54.25 26.1 54.7 25.9 55.1 26.0 55.3 26.1 55.45 26.3 55.55 26.55 55.55 28.25 55.55 30.25 55.55 31.95 55.65 32.25 55.65 32.55 55.65 32.8 55.65 33.1 55.55 33.4 55.55 33.95 55.55 34.8 55.55 35.65 55.55 36.25 55.85 37.65 56.25 39.65 56.7 41.35 56.9 41.6 57.0 41.9 57.2 42.2 57.3 42.5 57.55 42.75 59.75 42.75 59.95 42.5 60.3 41.9 60.5 41.6 60.7 41.35 61.45 39.05 62.6 35.65 63.35 32.55 63.35 31.1 63.35 29.7 63.35 28.55 63.55 28.25 63.7 28.0 64.2 27.8 64.75 28.0 64.95 28.25 65.05 28.55 65.05 31.4 65.05 34.8 65.05 37.95 65.25 38.5 65.4 39.05 65.55 39.35 65.7 39.55 65.8 39.45 65.9 39.15 66.0 38.9 66.1 38.6 66.25 38.3 66.7 36.3 67.15 34.3 67.6 32.65 67.6 32.35 67.6 32.05 67.7 31.8 67.8 31.5 67.9 31.2 68.35 31.0 68.7 31.15 68.95 31.3 69.0 31.6 69.1 31.85 69.1 32.15 69.1 32.45 69.1 32.7 69.1 33.0 68.65 35.0 68.0 37.85 67.3 40.4 67.3 40.7 67.3 40.95 67.2 41.25 66.95 41.55 66.65 41.8 66.1 42.0 65.35 42.0 64.85 41.8 64.65 41.55 64.45 41.25 64.3 40.95 64.0 40.1 63.7 39.25 63.45 38.8 63.35 39.05 62.95 40.2 62.65 41.05 62.5 41.6 62.3 41.9 62.2 42.2 61.65 43.05 61.05 43.9 60.6 44.45 60.0 44.65 57.35 44.65 56.9 44.45 56.25 43.85 55.85 43.35 55.65 43.05 55.55 42.75 55.4 42.5 55.3 42.2 55.1 41.9 55.0 41.65 54.75 40.8 54.45 39.95 54.35 39.85 54.25 40.1 Q54.05 40.5 54.0 40.95 L53.85 41.8 53.7 42.4 53.3 42.95 52.35 44.1 51.7 44.65 50.85 44.95 50.15 45.15 49.8 45.15 49.25 44.9 48.65 44.65 48.3 44.35 48.1 44.1 47.9 43.8 47.7 43.5 47.5 43.25 47.45 42.95 47.25 42.65 47.15 42.4 47.05 42.1 46.95 41.8 46.8 41.6 46.65 41.55 46.45 41.8 45.5 42.9 44.3 43.8 43.75 44.0 41.45 44.0 41.1 43.9 40.8 43.7 40.6 43.4 40.4 43.15 40.3 42.85 40.15 42.55 40.05 42.0 39.95 41.7 39.85 41.45 39.75 41.15 39.75 39.45 39.75 37.75 39.75 36.6 40.0 35.2 40.25 33.45 40.6 32.05 40.8 31.8 40.9 31.5 41.0 31.2 41.2 30.9 41.35 30.65 41.85 30.45 42.2 30.55 42.6 30.65 42.7 30.75 42.85 30.95 42.95 31.2 43.0 31.5 43.05 31.8 43.25 32.05 43.0 32.25 42.6 32.15 42.5 32.25 42.4 32.55 42.4 32.8 42.4 33.1 42.35 33.4 42.1 34.8 41.9 36.25 41.65 37.35 41.65 37.65 41.65 38.8 41.65 39.9 41.65 40.5 41.8 41.05 41.85 41.35 41.95 41.6 42.05 41.9 43.55 42.0 43.9 41.8 44.7 40.95 45.05 40.4 45.25 40.1 45.35 39.85 45.45 39.55 45.65 39.25 45.8 38.7 46.0 38.1 46.1 37.55 46.2 37.25 46.2 35.3 46.2 33.0 46.2 31.3 46.75 29.3 47.25 26.75 47.7 24.75" fill="#333333" fill-rule="evenodd" stroke="none"/>
    <path d="M45.25 47.8 L45.55 47.5 46.0 47.3 46.5 47.5 46.65 47.8 46.65 48.05 46.65 48.65 46.65 49.5 46.65 50.35 46.65 50.9 46.75 51.2 46.75 51.45 46.65 51.75 46.5 52.05 46.3 52.35 46.1 52.6 46.0 52.9 45.9 53.2 45.8 53.45 45.7 53.75 45.25 54.3 44.85 54.6 44.4 54.9 44.2 55.15 44.1 55.45 43.85 55.75 43.35 55.95 41.45 55.95 41.1 55.8 41.0 55.75 40.9 55.55 40.7 55.35 40.5 55.45 39.55 56.25 38.45 56.8 37.65 56.8 37.1 56.6 36.45 56.3 36.15 56.0 35.95 55.75 35.8 55.45 35.7 55.15 35.6 55.0 35.4 55.25 35.3 55.55 35.1 55.85 34.95 56.1 34.85 56.4 34.45 56.95 33.05 58.7 31.9 59.8 31.25 60.0 29.35 59.95 28.75 59.8 28.6 59.6 28.4 59.35 28.3 59.05 27.9 57.9 27.65 57.05 27.55 56.5 27.55 56.2 27.5 55.95 27.45 55.95 27.15 56.2 26.9 56.5 26.6 56.8 25.95 56.95 24.4 56.95 23.85 56.8 23.2 56.15 22.8 55.65 22.6 55.35 22.25 54.2 21.95 53.1 21.75 52.25 20.7 52.7 19.5 53.2 18.75 53.15 18.3 53.05 18.05 52.9 17.9 52.6 17.7 52.35 17.5 52.05 17.4 51.75 17.3 51.45 17.3 50.9 17.3 50.35 17.3 49.75 17.3 49.5 17.4 49.2 17.5 48.9 17.75 48.6 18.0 48.35 18.25 48.05 18.75 47.9 19.1 48.0 19.3 48.05 19.45 48.25 19.55 48.55 19.6 48.8 19.5 49.1 19.4 49.4 19.4 49.65 19.4 49.95 19.4 50.25 19.4 50.55 19.4 50.8 19.75 50.8 20.15 50.55 20.35 49.95 20.5 49.4 20.65 48.85 20.7 48.55 20.7 46.55 20.7 44.3 20.7 42.3 20.8 42.0 20.9 41.7 21.2 41.45 21.75 41.25 22.25 41.35 22.35 41.45 22.6 41.65 22.9 41.9 23.1 42.2 23.2 42.5 23.2 42.75 23.2 43.05 23.2 43.35 23.2 43.6 23.2 43.9 23.3 44.45 23.45 45.05 23.5 45.3 23.55 45.6 23.55 47.3 23.55 49.0 23.55 50.45 23.9 51.85 24.35 53.55 24.7 54.7 25.55 54.75 25.65 54.7 25.8 54.5 26.0 54.2 26.1 53.95 26.3 53.65 26.4 53.35 26.6 53.1 26.7 52.8 26.8 52.5 26.9 52.25 26.95 51.95 27.15 51.65 27.3 50.8 27.45 49.95 27.55 49.4 27.55 46.55 27.55 42.55 27.55 38.9 27.65 38.6 27.75 38.3 28.0 38.05 28.6 37.85 29.05 37.95 29.35 38.1 29.55 38.4 29.6 38.7 29.6 42.95 29.6 49.75 29.6 56.0 29.8 56.6 29.9 57.15 30.0 57.45 30.1 57.7 30.85 57.75 30.95 57.7 31.45 57.25 32.65 55.85 33.2 55.0 33.3 54.7 33.5 54.4 33.6 54.15 33.8 53.85 33.9 53.55 34.05 53.25 34.15 53.0 34.35 52.7 34.5 52.15 34.6 51.55 34.75 51.0 34.85 50.7 34.85 48.75 34.85 46.45 34.85 44.75 34.95 44.45 34.95 44.2 34.95 43.9 35.0 43.6 35.0 43.35 35.0 43.05 35.1 42.75 35.1 42.5 35.1 42.2 35.2 41.9 35.25 41.65 35.3 41.35 35.3 41.05 35.3 40.75 35.4 40.2 35.45 39.9 35.5 39.65 35.6 39.35 35.6 37.95 35.6 36.5 35.6 35.65 35.8 35.4 36.05 35.1 36.55 34.9 36.55 34.95 36.9 35.05 37.1 35.1 37.3 35.3 37.45 35.6 37.5 35.85 37.5 38.1 37.5 40.95 37.5 43.25 37.6 43.5 37.6 44.95 37.6 46.35 37.6 47.5 37.5 47.8 37.45 48.05 37.4 48.35 37.4 48.65 37.4 48.9 37.3 49.2 37.3 49.5 37.3 49.75 37.05 50.6 36.85 51.45 36.75 52.05 36.8 52.35 37.2 53.45 37.5 54.3 37.65 54.9 38.45 54.95 38.6 54.9 38.8 54.7 39.1 54.4 39.4 54.15 39.45 53.85 39.65 53.55 39.75 53.25 39.95 53.0 40.05 52.7 40.25 52.4 40.3 52.15 40.3 51.55 40.3 50.7 40.3 49.85 40.3 49.3 40.4 49.0 40.5 48.75 40.6 48.45 40.8 48.15 40.9 47.9 41.0 47.6 41.0 47.3 41.0 47.0 41.0 46.75 41.2 46.45 41.35 46.15 41.85 46.0 42.2 46.1 42.5 46.25 42.65 46.55 42.7 46.85 42.7 48.25 42.7 49.65 42.7 50.55 42.55 51.4 42.35 52.25 42.1 52.8 41.95 53.1 41.85 53.35 41.95 53.65 42.05 53.95 42.1 54.2 42.85 54.25 43.05 54.15 43.25 53.85 43.65 53.55 44.1 53.25 44.3 53.0 44.4 52.7 44.5 52.4 44.7 52.15 44.8 51.85 44.95 51.55 45.15 51.3 45.3 51.0 45.35 50.7 45.35 50.15 45.35 49.6 45.35 49.0 45.35 48.75 45.05 48.65 44.85 48.35 45.05 48.05 45.25 47.8" fill="#333333" fill-rule="evenodd" stroke="none"/>
    <path d="M31.5 16.45 L31.7 16.15 31.9 15.85 32.35 15.7 32.75 15.8 32.95 15.85 33.1 16.05 33.2 16.35 33.25 16.6 33.3 16.9 33.3 19.2 33.3 22.0 33.3 24.3 33.4 24.6 33.5 24.85 33.55 25.15 33.6 25.45 33.8 25.7 34.0 26.0 34.15 26.3 34.25 26.55 34.35 26.85 34.45 27.15 34.75 27.4 35.6 27.45 35.8 27.3 36.05 27.05 36.55 26.75 36.8 26.45 37.0 26.2 37.2 25.9 37.4 25.6 37.55 25.05 37.65 24.5 37.8 23.9 37.85 23.65 38.05 23.35 38.15 23.05 38.35 22.8 38.45 22.5 38.55 22.2 38.6 21.95 38.7 21.65 38.7 21.35 38.7 21.05 38.7 20.8 38.7 20.5 38.7 20.2 38.8 19.95 38.8 19.65 38.8 19.35 38.8 19.1 38.8 18.8 39.0 18.5 39.1 18.25 39.2 17.95 39.3 17.65 39.55 17.4 39.8 17.7 39.85 17.95 39.75 18.25 39.65 18.5 39.55 18.8 39.55 19.1 39.55 19.35 39.55 19.65 39.55 19.95 39.65 20.2 39.65 20.8 39.65 21.35 39.65 21.95 39.65 22.2 39.45 22.5 39.4 22.8 39.05 23.95 38.8 25.05 38.6 25.9 38.2 26.45 37.05 27.85 36.25 28.75 35.8 28.95 34.65 29.05 34.25 28.95 33.9 28.75 33.4 28.45 33.25 28.15 33.15 28.0 33.05 28.25 32.95 28.55 32.85 28.85 32.65 29.1 32.45 29.4 32.25 29.7 32.2 30.0 31.8 30.55 30.7 31.9 29.55 32.8 28.95 33.0 27.05 33.1 26.6 33.0 26.3 32.9 25.75 32.7 25.25 32.45 25.0 32.15 24.8 31.95 24.7 32.25 24.7 32.55 24.5 32.8 24.4 33.1 24.3 33.4 24.15 33.65 24.05 33.95 23.95 34.25 23.85 34.5 23.65 34.8 23.55 35.1 23.15 35.65 22.0 37.05 20.9 38.2 20.25 38.4 18.65 38.25 17.4 37.95 16.45 37.05 16.0 36.5 15.8 36.25 15.5 34.8 15.2 33.1 14.95 31.95 14.95 31.7 14.95 31.4 14.95 31.1 14.95 30.85 14.2 31.0 13.45 31.2 12.3 31.15 11.8 31.1 11.65 31.0 11.25 30.8 10.85 30.55 10.7 30.25 10.5 30.0 10.3 29.7 10.2 29.4 10.15 29.1 10.1 28.85 10.3 28.55 10.3 28.25 10.3 28.0 10.4 27.7 10.5 27.4 10.5 27.15 10.5 26.85 10.6 26.55 10.7 26.3 11.15 26.1 11.5 26.25 11.7 26.4 11.8 26.65 11.8 26.95 11.8 27.25 11.9 27.5 12.0 27.8 12.0 28.1 12.0 28.35 12.2 28.65 12.3 28.95 13.5 29.05 13.8 28.95 14.3 28.75 14.65 28.45 14.85 28.2 14.85 27.9 14.95 27.6 14.95 27.3 14.95 26.45 14.95 25.6 14.95 25.05 15.05 24.75 15.05 24.5 15.05 24.2 15.05 23.9 15.05 23.65 15.05 23.35 15.15 23.05 15.25 22.8 15.5 22.5 16.1 22.3 16.75 22.5 16.95 22.8 17.1 23.1 17.1 23.35 17.1 23.65 17.1 23.9 17.1 24.2 17.1 24.5 17.1 24.75 17.2 25.05 17.2 27.05 17.2 29.6 17.2 31.6 17.5 33.0 17.7 34.45 17.95 35.3 18.2 35.55 18.45 35.85 18.85 36.15 19.85 36.2 19.95 36.15 20.65 35.35 21.35 34.5 21.75 33.95 21.85 33.65 21.95 33.4 22.05 33.1 22.25 32.8 22.35 32.55 22.45 32.25 22.6 31.95 22.65 31.7 22.7 31.4 22.7 31.1 22.7 30.85 22.8 30.55 22.8 30.25 22.8 30.0 22.9 29.7 22.9 29.4 23.0 29.1 23.0 28.85 23.0 28.55 23.05 28.25 23.1 28.0 23.0 27.7 23.0 25.15 23.0 22.3 23.0 19.75 23.1 19.2 23.2 18.6 23.3 18.05 23.35 17.75 23.35 17.2 23.35 16.6 23.35 16.05 23.35 15.75 23.45 15.5 23.55 15.2 23.85 14.9 24.4 14.75 24.4 14.8 24.9 14.8 25.15 15.0 25.35 15.3 25.45 15.6 25.45 18.7 25.45 22.7 25.45 26.4 25.35 26.65 25.35 26.95 25.35 27.25 25.3 27.5 25.25 27.8 25.3 28.1 25.35 28.35 25.45 28.65 25.55 28.95 25.75 29.2 25.85 29.5 26.0 29.8 26.1 30.05 26.3 30.35 26.5 30.65 26.95 30.9 28.95 30.9 29.6 30.3 30.0 29.8 30.2 29.5 30.3 29.2 30.5 28.95 30.65 28.65 30.85 28.35 31.05 28.1 31.1 27.8 31.25 27.25 31.35 26.65 31.4 26.4 31.4 23.8 31.4 20.4 31.4 17.3 31.5 17.0 31.5 16.7 31.5 16.45" fill="#333333" fill-rule="evenodd" stroke="none"/>
    <path d="M67.3 11.6 L67.6 11.3 67.85 11.65 67.9 11.9 67.9 12.15 67.9 12.45 67.9 12.75 67.9 13.0 67.9 13.3 67.6 14.45 67.25 15.9 66.85 17.0 66.65 17.25 65.8 18.15 65.25 18.7 63.45 18.8 63.15 18.7 62.95 18.5 62.75 18.25 62.7 17.95 62.7 17.65 62.7 17.4 62.6 17.1 62.3 16.8 62.2 16.55 62.2 16.25 62.2 15.95 62.2 15.7 62.2 15.4 62.1 15.1 62.0 14.8 61.95 14.55 61.9 14.35 61.75 14.9 61.7 15.2 61.65 15.5 61.55 15.75 61.55 16.05 61.55 16.35 61.45 16.65 61.35 17.2 61.15 17.75 61.05 18.05 60.5 18.9 59.8 19.8 59.35 20.3 59.25 20.6 59.0 20.9 58.5 21.05 57.0 21.05 56.5 20.9 56.25 20.6 55.7 20.3 55.3 20.05 55.05 19.8 54.8 19.75 53.6 21.15 Q52.9 21.7 52.05 21.95 L50.15 21.95 49.6 21.75 49.2 21.45 48.75 21.15 48.35 20.9 48.2 20.6 48.0 20.3 47.8 20.05 47.7 19.75 47.5 19.45 47.35 19.2 47.25 18.9 46.85 18.6 46.4 18.45 46.3 18.35 46.45 18.05 46.5 17.75 46.4 17.45 46.3 17.2 46.3 15.75 46.3 14.05 46.3 12.65 46.5 12.35 46.65 12.1 47.15 11.9 47.7 12.1 47.9 12.35 48.0 12.65 48.0 14.05 48.0 15.5 48.0 16.35 48.1 16.6 48.2 16.9 48.3 17.2 48.35 17.45 48.55 17.75 48.65 18.05 48.85 18.35 48.95 18.6 49.35 19.15 49.8 19.7 50.15 20.05 52.05 20.1 52.25 20.05 52.45 19.85 53.0 19.25 53.4 18.7 53.6 18.4 53.6 18.15 53.8 17.0 54.05 15.85 54.25 15.0 54.25 13.3 54.25 11.3 54.25 9.6 54.45 9.35 54.65 9.05 55.1 8.85 55.1 8.9 55.5 8.95 55.75 9.15 55.9 9.45 55.95 9.7 55.95 11.7 55.95 13.7 55.95 15.4 55.85 15.7 55.85 15.95 55.85 16.8 55.85 17.4 55.85 17.95 55.95 18.25 56.15 18.5 56.35 18.8 56.6 19.1 57.1 19.35 58.05 19.4 58.2 19.25 58.7 18.7 59.4 17.85 59.75 17.3 60.1 15.55 60.75 13.05 61.25 10.75 61.25 10.45 61.25 10.2 61.35 9.9 61.45 9.6 61.9 9.4 62.6 9.6 62.8 9.95 62.85 10.2 62.75 10.45 62.75 11.6 62.75 12.75 62.75 13.6 62.9 14.15 62.95 14.45 63.05 14.75 63.15 15.0 63.15 15.3 63.15 15.6 63.15 15.85 63.15 16.15 63.15 16.45 63.35 17.0 63.4 17.3 63.45 17.55 63.55 17.85 64.95 17.85 65.5 17.3 66.05 16.7 66.25 16.45 66.65 15.3 67.1 13.85 67.3 13.0 67.3 12.75 67.3 12.45 67.3 12.15 67.3 11.9 67.3 11.6" fill="#333333" fill-rule="evenodd" stroke="none"/>
    <path d="M53.6 -4.15 L53.8 -4.0 53.95 -3.7 54.0 -3.45 54.0 -3.15 54.0 -2.3 54.0 -1.75 54.0 -1.15 54.05 -0.85 54.1 -0.6 54.15 -0.3 54.25 0.0 54.35 0.25 54.35 0.55 54.35 0.85 54.35 1.1 54.55 1.4 54.75 1.65 55.0 1.95 56.65 2.0 56.8 1.95 57.7 1.25 58.5 0.35 58.9 -0.2 59.0 -0.5 59.2 -0.8 59.5 -2.2 59.8 -3.65 60.05 -4.45 60.05 -5.05 60.05 -5.6 60.05 -5.9 60.05 -6.2 60.15 -6.45 60.25 -6.75 60.3 -7.05 60.4 -7.3 60.5 -7.6 60.7 -7.9 61.15 -8.05 61.55 -8.05 61.55 -8.0 62.05 -7.9 62.3 -7.6 62.4 -7.3 62.5 -7.05 62.6 -6.75 62.7 -6.45 62.7 -4.75 62.7 -2.75 62.7 -1.35 62.8 -1.05 62.9 -0.8 62.95 -0.5 63.0 -0.2 63.05 0.05 63.25 0.35 63.35 0.65 63.55 0.95 63.65 1.2 64.15 1.75 64.5 2.05 64.95 2.35 66.65 2.35 66.85 2.25 67.05 1.95 67.15 1.7 67.5 0.55 67.85 -0.6 68.1 -1.45 68.1 -1.75 68.1 -3.15 68.1 -4.55 68.1 -5.7 68.2 -6.0 68.3 -6.25 68.75 -6.45 69.1 -6.35 69.2 -6.25 69.4 -6.1 69.4 -4.4 69.4 -2.4 69.4 -0.95 69.15 0.15 68.8 1.6 68.35 2.7 68.15 3.0 67.9 3.3 67.6 3.6 67.35 3.85 66.85 4.05 64.95 4.05 64.6 3.95 64.3 3.75 63.9 3.5 63.45 3.2 63.15 2.9 62.6 2.35 62.4 2.05 62.2 1.8 62.1 1.5 61.95 1.2 61.85 0.95 61.65 0.65 61.5 0.05 61.35 -0.5 61.25 -0.8 61.15 -1.05 61.15 -1.35 61.15 -1.65 61.15 -1.9 61.15 -2.2 61.1 -2.2 61.0 -1.65 60.85 -1.05 60.7 -0.5 60.6 -0.2 60.4 0.05 60.3 0.35 60.15 0.65 60.05 0.95 59.75 1.2 58.6 2.35 57.75 3.2 57.2 3.45 56.65 3.65 55.1 3.65 54.75 3.6 54.35 3.4 53.9 3.1 53.7 2.8 53.3 2.25 53.1 1.95 52.95 1.7 52.85 1.4 52.85 1.1 52.85 1.0 52.65 1.2 52.55 1.5 52.05 2.05 51.25 2.9 50.65 3.5 50.2 3.65 49.05 3.55 48.7 3.45 48.6 3.4 48.5 3.2 48.4 2.9 48.5 2.65 48.55 2.35 48.6 2.05 48.85 1.8 49.35 1.8 49.55 2.05 49.9 2.1 50.0 2.05 50.2 1.85 50.75 1.3 51.05 1.0 51.25 0.75 51.3 0.45 51.5 0.15 51.85 -1.0 52.2 -2.1 52.45 -2.95 52.45 -3.25 52.45 -3.55 52.55 -3.8 52.75 -4.1 53.2 -4.3 53.6 -4.15" fill="#333333" fill-rule="evenodd" stroke="none"/>
    <path d="M38.35 -25.1 L38.55 -25.4 38.75 -25.7 39.2 -25.85 39.3 -25.9 39.5 -26.05 39.8 -26.35 40.15 -26.65 40.7 -26.75 41.1 -26.9 41.65 -27.1 42.05 -27.0 41.65 -26.75 40.6 -25.9 40.05 -25.3 39.95 -25.0 39.85 -24.75 39.75 -24.45 39.6 -24.15 39.5 -23.9 39.35 -23.6 39.3 -23.3 39.3 -23.05 39.3 -22.2 39.3 -21.35 39.3 -20.75 39.4 -20.5 39.7 -20.2 40.25 -20.1 40.9 -20.3 41.4 -20.55 42.0 -21.4 42.85 -22.5 43.45 -23.4 44.05 -25.1 44.7 -27.4 45.15 -29.4 45.15 -29.65 45.15 -30.5 45.15 -31.1 45.15 -31.65 45.35 -31.95 45.55 -32.2 46.0 -32.4 46.05 -32.35 46.4 -32.3 46.6 -32.2 46.75 -32.0 46.85 -31.75 46.85 -29.2 46.85 -25.8 46.85 -22.65 47.15 -21.8 47.45 -20.95 47.65 -20.4 47.8 -20.1 48.5 -20.1 48.8 -20.35 50.05 -21.75 50.85 -22.95 50.95 -23.2 51.15 -23.5 51.25 -23.8 51.4 -24.1 51.6 -24.35 51.7 -24.65 51.8 -24.95 51.9 -25.2 52.1 -25.5 52.2 -26.05 52.25 -26.65 52.4 -27.2 52.45 -27.5 52.45 -28.9 52.45 -30.35 52.45 -31.2 52.55 -31.45 52.75 -31.75 53.2 -31.95 53.6 -31.8 53.7 -31.75 53.85 -31.55 54.0 -31.25 54.0 -29.3 54.0 -26.75 54.0 -24.75 54.05 -24.45 54.15 -24.15 54.25 -23.9 54.35 -23.6 54.85 -23.05 55.3 -22.45 55.8 -21.9 57.0 -21.85 57.2 -21.9 57.5 -22.1 57.65 -22.35 57.75 -22.65 57.95 -22.95 58.15 -23.2 58.25 -23.5 58.25 -23.8 58.25 -24.65 58.25 -25.2 58.25 -25.8 58.35 -26.05 58.45 -26.35 58.9 -26.55 59.35 -26.35 59.5 -26.05 59.55 -25.8 59.55 -25.2 59.55 -24.35 59.55 -23.5 59.55 -22.95 59.35 -22.65 59.3 -22.35 59.2 -22.1 59.1 -21.8 58.9 -21.5 58.7 -21.25 58.45 -20.95 58.15 -20.65 57.55 -20.4 57.0 -20.2 55.85 -20.2 55.5 -20.3 55.3 -20.4 54.95 -20.6 54.55 -20.85 54.2 -21.45 53.35 -22.65 Q52.95 -23.2 52.75 -22.95 L52.55 -22.65 52.45 -22.35 52.25 -22.1 52.2 -21.8 52.0 -21.5 50.65 -19.85 49.25 -18.4 48.65 -18.2 47.55 -18.2 47.05 -18.4 46.7 -18.7 46.5 -18.95 46.3 -19.25 46.2 -19.55 46.0 -19.8 45.95 -20.1 45.65 -20.95 45.35 -21.8 45.15 -22.35 45.15 -22.65 45.15 -22.95 45.05 -22.95 45.0 -22.65 44.9 -22.35 44.45 -21.8 43.4 -20.35 42.5 -19.25 41.45 -18.75 39.95 -18.2 39.6 -18.3 39.4 -18.4 39.0 -18.6 38.55 -18.85 38.25 -19.15 38.0 -19.45 37.8 -19.7 37.7 -20.0 37.6 -20.3 37.6 -20.55 37.6 -21.7 37.6 -22.85 37.6 -23.7 37.8 -24.0 37.9 -24.25 38.05 -24.55 38.25 -24.85 38.35 -25.1" fill="#333333" fill-rule="evenodd" stroke="none"/>
    <path d="M34.45 -45.65 L34.45 -45.95 34.45 -46.25 34.45 -46.5 34.55 -46.8 34.75 -46.75 34.85 -46.35 34.85 -45.75 34.85 -45.2 35.0 -44.6 35.15 -44.05 35.3 -43.5 35.3 -42.9 35.3 -42.35 35.3 -41.8 35.4 -41.5 35.4 -41.2 35.4 -40.95 35.4 -40.65 35.4 -40.35 35.4 -40.1 35.5 -39.8 35.5 -39.25 35.5 -38.4 35.5 -37.5 35.4 -37.25 34.5 -36.2 32.75 -34.7 32.3 -34.4 31.9 -34.1 31.25 -34.0 30.95 -34.15 30.6 -34.3 30.1 -34.6 29.85 -34.85 29.15 -34.7 28.7 -34.4 28.2 -34.2 27.45 -34.2 27.1 -34.3 26.9 -34.4 26.5 -34.6 26.15 -34.85 25.95 -35.15 25.25 -36.05 24.8 -36.6 24.7 -36.85 24.7 -37.15 24.7 -37.7 24.7 -38.3 24.7 -38.85 24.8 -39.15 24.9 -39.4 25.1 -39.7 25.55 -39.9 25.9 -39.75 26.15 -39.6 26.3 -39.3 26.4 -39.05 26.4 -38.45 26.4 -37.9 26.4 -37.35 26.6 -37.05 26.9 -36.75 27.1 -36.5 27.15 -36.2 27.35 -35.9 28.4 -35.8 28.8 -36.0 29.25 -36.3 29.35 -36.6 29.45 -36.85 29.45 -38.3 29.45 -40.55 29.45 -42.85 29.55 -43.1 29.65 -43.4 30.1 -43.6 30.45 -43.45 30.7 -43.3 30.75 -43.0 30.75 -41.6 30.75 -39.05 30.75 -36.5 30.7 -36.2 30.7 -35.9 30.75 -35.65 30.95 -35.35 31.8 -35.25 32.2 -35.45 32.8 -35.95 33.6 -36.6 33.9 -36.85 34.3 -37.45 34.55 -38.0 34.55 -38.3 34.55 -38.55 34.55 -38.85 34.55 -39.15 34.55 -39.4 34.65 -39.7 34.65 -40.25 34.65 -40.85 34.65 -41.4 34.75 -41.7 34.75 -42.25 34.75 -42.85 34.75 -43.4 34.65 -43.7 34.5 -44.25 34.35 -44.8 34.45 -45.1 34.45 -45.4 34.45 -45.65" fill="#333333" fill-rule="evenodd" stroke="none"/>
    <path d="M20.3 -1.35 L20.55 -1.65 21.0 -1.8 21.4 -1.7 21.6 -1.65 21.75 -1.45 21.95 -1.15 22.05 -0.85 22.35 0.25 22.7 1.4 23.0 2.25 23.2 2.55 23.2 2.8 23.4 3.65 23.5 4.25 23.6 4.8 23.6 6.5 23.6 8.2 23.6 9.35 23.4 9.65 23.3 9.9 23.15 10.2 23.1 10.5 23.3 10.75 24.5 10.85 25.1 10.7 25.55 10.4 25.95 10.1 26.15 9.85 26.6 9.25 27.0 8.7 27.15 8.4 27.25 8.1 27.45 7.85 27.55 7.55 27.75 7.25 27.85 7.0 28.05 6.7 Q28.15 5.85 28.4 4.95 L29.05 2.7 29.65 1.0 29.65 0.75 29.65 0.45 29.7 0.15 29.75 -0.1 29.85 -0.4 29.85 -0.7 29.85 -0.95 29.9 -1.25 29.9 -2.95 29.9 -4.65 29.9 -6.1 30.0 -6.35 30.1 -6.65 30.15 -6.95 30.2 -7.2 30.3 -7.5 30.5 -7.8 30.75 -8.05 31.25 -8.25 31.25 -8.2 31.8 -8.05 32.1 -7.8 32.35 -7.5 32.55 -7.2 32.55 -6.95 32.55 -3.55 32.55 1.6 32.55 6.15 32.65 6.4 33.0 7.55 33.25 8.7 33.6 9.45 33.9 9.35 34.15 8.5 34.4 7.65 34.55 7.1 34.55 6.8 34.55 6.5 34.55 6.25 34.55 5.95 34.55 5.65 34.65 5.4 34.65 3.65 34.65 1.7 34.65 0.25 34.75 0.0 34.95 -0.3 35.4 -0.5 35.9 -0.3 36.15 0.0 36.2 0.25 36.35 0.55 36.45 0.85 36.45 1.1 36.4 1.4 36.35 1.7 36.75 3.4 37.45 5.65 37.95 7.35 38.25 7.65 38.55 7.95 38.8 8.2 40.6 8.2 40.9 7.95 41.0 7.65 41.1 7.35 41.2 7.1 41.3 6.8 41.5 6.5 41.7 6.25 41.95 5.95 42.15 5.65 42.25 5.4 42.25 5.1 42.25 4.8 42.25 4.5 42.35 4.25 42.5 3.95 42.65 3.65 42.7 3.4 42.7 3.1 42.7 2.8 42.7 2.55 42.7 2.25 42.9 1.95 43.2 2.15 43.25 2.35 43.25 2.65 43.25 2.9 43.25 3.2 43.25 3.5 43.25 3.75 43.2 4.05 43.05 4.35 43.0 4.6 43.0 4.9 43.0 5.2 43.0 5.45 43.0 5.75 42.8 6.05 42.6 6.3 42.4 6.6 42.25 7.2 42.05 7.75 41.95 8.05 41.85 8.3 41.65 8.6 41.55 8.9 41.2 9.15 40.6 9.45 38.8 9.55 38.55 9.4 38.35 9.25 37.8 8.7 37.25 8.1 36.75 7.55 36.65 7.25 36.55 7.0 36.45 6.7 36.3 6.5 36.25 6.6 36.25 6.9 36.25 7.2 36.25 7.45 36.15 7.75 35.9 8.6 35.7 9.45 35.5 10.0 35.3 10.3 35.2 10.6 35.05 10.85 34.85 11.15 34.3 11.35 33.15 11.45 32.65 11.25 32.3 10.95 32.0 10.65 31.8 10.4 31.7 10.1 31.55 9.85 31.15 8.7 30.9 7.55 30.7 6.7 30.7 6.4 30.7 6.15 30.7 5.85 30.7 5.55 30.7 5.3 30.6 5.5 30.35 6.35 30.2 6.9 30.0 7.45 29.85 7.75 29.75 8.05 29.55 8.3 29.45 8.6 29.25 8.9 29.15 9.15 28.95 9.45 28.9 9.75 28.45 10.25 27.8 11.15 27.35 11.7 26.9 12.0 26.5 12.3 26.05 12.55 25.2 12.85 24.45 13.05 23.3 13.0 22.8 12.95 22.65 12.85 21.9 12.35 21.6 12.1 21.4 11.8 20.65 11.95 17.8 11.7 17.05 11.25 16.0 10.1 15.6 9.55 15.55 9.25 15.35 9.0 15.25 8.7 15.15 8.4 15.05 8.1 15.05 7.85 15.05 7.55 15.05 7.25 15.05 7.0 15.15 6.7 15.15 6.4 15.15 6.15 15.35 5.85 15.35 5.55 15.45 5.3 15.6 5.0 16.1 4.8 16.45 4.95 16.65 5.1 16.8 5.4 16.85 5.65 17.05 5.95 17.05 6.25 17.05 6.5 17.15 6.8 17.15 7.1 17.15 7.35 17.25 7.65 17.35 7.95 17.4 8.2 17.5 8.5 17.6 8.8 17.8 9.05 18.0 9.35 18.45 9.65 20.45 9.7 20.45 9.65 20.35 9.15 20.2 8.3 20.05 7.75 20.0 7.45 20.0 5.75 20.0 4.05 20.0 2.9 20.05 2.65 20.05 2.35 20.05 0.95 20.05 -0.2 20.05 -1.05 20.3 -1.35" fill="#333333" fill-rule="evenodd" stroke="none"/>
    <path d="M9.75 42.5 L10.05 42.7 10.2 42.95 10.3 43.25 10.3 43.55 10.3 45.25 10.3 46.95 10.3 48.1 10.15 48.65 9.95 49.25 9.75 49.8 9.65 50.1 9.45 50.35 9.35 50.65 9.2 50.95 9.1 51.2 8.9 51.5 8.8 51.8 8.6 52.05 8.5 52.35 8.4 52.65 8.25 52.9 8.15 53.2 8.05 53.5 7.85 53.75 7.75 54.05 7.65 54.35 7.55 54.6 7.4 54.9 7.4 55.2 7.2 55.5 7.1 55.75 6.9 56.05 6.8 56.35 6.6 56.6 6.55 56.9 6.55 57.2 6.55 57.75 6.55 58.05 6.55 58.3 6.55 58.6 6.6 58.9 6.8 59.15 6.9 59.45 7.1 59.75 7.3 60.0 7.75 60.0 8.6 59.45 9.0 59.15 Q9.2 59.05 9.35 58.9 L9.55 58.6 10.0 58.0 10.2 57.75 10.4 57.45 10.5 57.2 10.7 56.9 10.8 56.6 11.0 56.35 11.05 56.05 11.25 55.75 11.45 55.2 11.75 54.35 11.95 53.75 12.0 53.5 12.0 52.65 12.0 51.8 12.0 51.2 12.0 50.95 12.1 50.65 12.1 50.1 12.1 48.65 12.1 47.25 12.1 46.4 12.2 46.1 12.2 45.8 12.2 45.25 12.2 44.7 12.2 44.4 12.2 44.1 12.4 43.85 12.6 43.55 13.05 43.35 13.45 43.45 13.75 43.65 13.85 43.95 13.9 44.2 13.9 44.5 13.9 45.05 13.9 45.35 13.9 45.65 13.9 45.9 14.0 46.2 14.0 46.75 14.0 48.2 14.0 49.6 14.0 50.45 14.1 50.75 14.1 51.3 14.1 52.45 14.1 53.6 14.1 54.15 13.9 54.7 13.75 55.3 13.55 55.85 13.45 56.15 13.25 56.4 13.15 56.7 12.95 57.0 12.85 57.3 12.7 57.55 12.6 57.85 12.4 58.15 12.3 58.4 12.1 58.7 11.55 59.55 11.1 60.1 10.9 60.4 10.5 60.7 9.25 61.55 Q8.85 61.8 8.4 62.1 L7.75 62.3 7.0 62.3 6.45 62.1 6.1 61.8 5.6 61.25 5.2 60.7 5.0 60.4 4.9 60.1 4.65 59.95 3.9 60.5 3.5 60.8 3.1 61.05 1.4 61.55 Q0.35 61.8 -0.65 61.55 L-1.05 61.35 -1.5 61.05 -1.8 60.75 -2.0 60.5 -2.1 60.2 -2.2 59.95 -2.3 59.65 -2.35 59.35 -2.55 59.05 -2.65 58.8 -2.85 58.5 -2.95 58.2 -3.15 57.95 -3.25 57.65 -3.25 57.35 -3.25 57.1 -3.25 56.8 -3.25 56.6 -3.4 56.9 -3.6 57.2 -3.7 57.45 -3.8 57.75 -3.9 58.05 -4.1 58.3 -4.25 58.6 -4.65 58.85 -5.25 59.15 -5.9 59.35 -6.25 59.35 -6.75 59.25 -7.0 59.05 -7.3 58.8 -7.6 58.5 -7.85 58.2 -7.95 57.95 -8.15 57.65 -8.35 57.1 -8.6 56.25 -8.8 55.45 -9.0 55.3 -9.2 55.55 -9.6 56.1 -9.85 56.45 -10.05 56.7 -10.45 57.0 -10.9 57.3 -11.3 57.55 -11.95 57.75 -14.2 57.65 -14.8 57.55 -14.95 57.35 -15.15 57.1 -15.25 56.8 -15.35 56.5 -15.55 56.25 -15.65 55.95 -15.8 55.65 -15.75 55.4 -15.65 55.1 -15.35 54.8 -15.25 54.55 -15.05 54.25 -14.7 54.35 -14.65 54.6 -14.4 54.9 -14.15 55.2 -13.95 55.5 -12.15 55.55 -11.85 55.4 -11.45 55.1 -11.3 54.8 -11.05 54.55 -10.8 54.25 -10.6 53.95 -10.45 53.4 -10.25 52.55 -10.05 51.7 -9.95 51.1 -9.95 50.85 -9.95 50.55 -9.95 50.25 -9.85 50.0 -9.75 49.7 -9.5 49.4 -8.9 49.25 -8.45 49.3 -8.15 49.5 -7.95 49.8 -7.9 50.1 -7.85 50.35 -7.7 50.65 Q-7.3 51.75 -7.05 52.95 L-6.6 55.2 Q-6.35 56.15 -5.9 56.6 L-5.8 56.35 -5.6 56.05 -5.5 55.75 -5.3 55.5 -5.1 55.2 -4.95 54.9 -4.75 54.35 -4.55 53.75 -4.35 53.2 -4.25 52.9 -4.1 52.65 -4.0 52.35 -3.6 50.9 -3.3 49.5 -3.15 48.65 -3.15 48.35 -3.15 48.1 -3.15 47.8 -3.05 47.25 -2.95 46.65 -2.85 46.4 -2.75 46.1 -2.75 45.8 -2.75 45.55 -2.75 45.25 -2.75 44.95 -2.65 44.7 -2.55 44.4 -2.3 44.1 -1.7 43.9 -1.05 44.1 -0.85 44.4 -0.7 44.7 -0.65 44.95 -0.65 45.8 -0.65 46.4 -0.65 46.95 -0.65 47.25 -0.75 47.8 -0.85 48.35 -0.95 48.65 -1.05 48.95 -1.05 49.5 -1.05 50.65 -1.05 51.8 -1.05 52.35 -0.95 52.65 -0.95 54.35 -0.95 56.05 -0.95 57.2 -0.75 57.45 -0.65 57.75 -0.5 58.05 -0.4 58.3 -0.2 58.6 -0.1 58.9 0.0 59.15 1.25 59.25 1.9 59.05 2.7 58.45 3.3 57.9 3.5 57.65 3.6 57.35 3.8 57.1 3.95 56.8 4.15 56.5 4.25 56.25 4.4 55.95 4.45 55.65 4.45 55.4 4.45 55.1 4.45 54.8 4.5 54.5 4.55 54.25 4.65 53.95 4.65 53.7 4.65 53.4 4.7 53.1 5.0 51.7 5.45 50.3 5.7 49.4 5.85 49.15 5.95 48.85 6.15 48.55 6.25 48.3 6.45 48.0 6.55 47.7 6.7 47.45 6.8 47.15 7.3 45.7 7.7 44.3 7.95 43.45 8.15 43.15 8.35 42.9 8.7 42.6 9.3 42.4 9.3 42.45 9.75 42.5" fill="#333333" fill-rule="evenodd" stroke="none"/>
    <path d="M3.95 35.0 L4.05 34.75 4.15 34.45 4.35 34.15 4.75 33.9 5.15 34.25 5.2 34.45 5.1 35.0 5.0 35.3 4.95 35.6 4.9 35.85 5.0 36.15 5.0 36.45 5.0 36.7 5.0 37.0 5.0 37.3 5.0 37.6 4.9 37.85 4.8 38.15 4.75 38.45 4.75 38.7 4.55 39.0 3.55 39.55 2.45 40.05 0.95 40.05 0.55 39.9 0.45 39.85 0.0 39.4 -1.05 38.2 Q-1.55 37.6 -1.8 37.85 L-1.85 38.15 -2.0 38.45 -2.1 38.7 -2.3 39.0 -2.35 39.3 -2.55 39.55 -2.65 39.85 -2.85 40.15 -2.95 40.4 -3.35 40.95 -4.0 41.8 -4.45 42.4 -5.6 43.0 -7.75 43.75 -8.9 43.75 -9.5 43.55 -9.95 43.25 -10.35 42.95 -10.8 42.8 -10.9 43.05 -11.1 43.35 -11.95 44.2 -12.6 44.75 -13.45 45.05 -14.2 45.25 -15.35 45.2 -15.8 45.15 -16.1 44.95 -18.15 43.2 -19.15 41.85 -19.25 41.55 -19.4 41.25 -19.6 41.0 -19.8 40.4 -19.9 40.15 -19.95 39.85 -20.0 39.55 -20.25 39.75 -20.55 40.05 -20.85 40.3 -21.1 40.6 -21.8 40.8 -23.75 40.55 -23.95 40.4 -24.15 40.15 -24.3 39.85 -24.35 39.55 -24.25 39.0 -24.1 38.4 -24.05 38.15 -23.95 37.85 -23.8 37.6 -23.3 37.4 -22.95 37.5 -22.85 37.6 -22.65 37.8 -22.55 38.05 -22.55 38.35 -22.25 38.45 -22.0 38.25 -21.7 37.95 -21.4 37.65 -21.2 37.4 -21.1 37.1 -20.95 36.8 -20.85 36.55 -20.65 36.25 -20.55 35.95 -20.55 35.7 -20.55 34.25 -20.55 32.85 -20.55 31.7 -20.45 31.4 -20.35 31.15 -20.1 30.85 -19.5 30.65 -19.05 30.8 -18.95 30.85 -18.65 31.05 -18.5 31.35 -18.45 31.6 -18.45 33.3 -18.45 35.0 -18.45 36.15 -18.2 37.6 -17.85 39.25 -17.55 40.4 -17.0 41.3 -16.3 42.15 -15.75 42.7 -15.25 42.95 -14.1 43.05 -13.65 42.9 -13.35 42.6 -13.1 42.3 -12.8 42.05 -12.7 41.75 -12.6 41.45 -12.45 41.15 -12.4 40.9 -12.45 40.6 -12.6 40.3 -12.7 40.05 -12.9 39.75 -13.0 39.45 -13.0 37.75 -13.0 36.05 -13.0 34.65 -12.9 34.35 -12.9 32.65 -12.9 30.65 -12.9 28.95 -12.8 28.4 -12.7 28.1 -12.65 27.85 -12.6 27.55 -12.6 27.25 -12.6 26.95 -12.5 26.7 -12.5 26.1 -12.5 25.55 -12.5 25.0 -12.5 24.7 -12.3 24.4 -12.05 24.15 -11.55 23.95 -11.55 24.0 -11.0 24.15 -10.7 24.4 -10.45 24.7 -10.3 25.0 -10.25 25.25 -10.25 25.85 -10.25 26.4 -10.25 26.7 -10.25 26.95 -10.15 27.55 -10.05 28.1 -9.95 28.65 -9.85 28.95 -9.85 29.55 -9.85 30.4 -9.85 31.25 -9.85 31.8 -9.75 32.1 -9.75 34.35 -9.75 36.9 -9.75 39.2 -9.85 39.45 -9.9 39.75 -9.95 40.05 -9.95 40.3 -9.85 40.6 -9.55 40.9 -9.3 41.2 -8.8 41.45 -7.7 41.55 -7.4 41.45 -6.35 41.0 -5.8 40.7 -5.6 40.45 -5.15 39.85 -4.95 39.55 -4.75 39.3 -4.65 39.0 -4.45 38.7 -4.35 38.45 -4.15 38.15 -4.1 37.85 -3.95 37.55 -3.9 37.3 -3.9 36.7 -3.9 36.15 -3.9 35.6 -3.9 35.3 -3.8 35.0 -3.8 34.75 -3.8 34.45 -3.8 34.15 -4.05 33.35 -4.25 32.45 -4.35 31.9 -4.35 31.6 -4.35 30.2 -4.35 28.75 -4.35 27.65 -4.25 27.35 -4.15 27.05 -3.9 26.75 -3.7 26.5 -3.25 26.3 -2.85 26.4 -2.65 26.5 -2.5 26.7 -2.35 26.95 -2.35 27.25 -2.35 27.55 -2.35 27.8 -2.35 28.1 -2.35 28.4 -2.3 28.95 -2.15 29.5 -2.1 29.8 -2.0 30.1 -2.0 30.65 -2.0 31.5 -2.0 32.1 -2.0 32.35 -1.9 32.65 -1.9 33.2 -1.9 34.05 -1.9 34.65 -1.9 34.9 -1.7 35.2 -1.6 35.5 -1.4 35.75 -0.1 37.2 1.05 38.35 2.45 38.4 2.65 38.35 3.0 38.15 3.5 37.85 3.6 37.6 3.7 37.3 3.7 37.0 3.7 36.7 3.7 36.45 3.7 36.15 3.8 35.6 3.95 35.0" fill="#333333" fill-rule="evenodd" stroke="none"/>
    <path d="M-35.5 45.9 L-35.5 46.2 -35.2 47.6 -35.0 49.05 -34.75 50.15 -34.75 51.9 -34.75 53.6 -34.75 54.7 -34.55 55.3 -34.3 56.15 -34.1 56.7 -34.0 57.0 -33.8 57.3 -33.7 57.55 -33.65 57.85 -33.4 58.1 -33.15 58.4 -32.95 58.7 -32.75 59.0 -32.3 59.25 -30.9 59.25 -30.7 59.15 -30.4 58.85 -30.2 58.6 -30.05 58.3 -29.85 58.05 -29.75 57.75 -29.65 57.45 -29.55 57.2 -29.45 56.9 -29.25 56.6 -29.0 55.5 -28.65 54.35 -28.5 53.75 -28.5 51.5 -28.5 48.65 -28.5 46.1 -28.4 45.8 -28.3 45.55 -28.05 45.25 -27.45 45.05 -27.0 45.2 -26.9 45.25 -26.6 45.45 -26.45 45.7 -26.25 46.0 -26.15 46.3 -26.15 48.0 -26.15 49.7 -26.15 51.1 -25.8 52.8 -25.4 54.8 -25.0 56.25 -24.8 56.5 -24.7 56.8 -24.65 57.1 -24.55 57.35 -24.35 57.65 -24.25 57.95 -24.05 58.2 -23.95 58.5 -23.7 58.8 -23.4 59.05 -23.0 59.35 -21.3 59.4 -21.2 59.35 -21.05 59.15 -20.75 58.9 -20.45 58.6 -20.25 58.05 -20.2 57.75 -20.15 57.45 -20.1 57.2 -20.1 56.6 -20.1 56.05 -20.1 55.75 -20.1 55.5 -20.0 55.2 -20.0 54.9 -20.0 53.75 -20.0 52.65 -20.0 51.8 -19.9 51.5 -19.9 50.95 -19.9 50.35 -19.9 50.1 -19.9 49.8 -19.7 49.5 -19.5 49.25 -19.4 48.95 -19.25 48.65 -18.75 48.45 -18.4 48.6 -18.2 48.75 -18.1 49.05 -18.1 49.3 -18.2 49.6 -18.35 49.9 -18.4 50.15 -18.4 50.45 -18.4 50.75 -18.4 51.0 -18.4 51.3 -18.3 51.6 -18.3 51.9 -18.3 53.0 -18.3 54.15 -18.3 55.0 -18.2 55.3 -18.2 55.55 -18.2 56.4 -18.2 57.3 -18.2 57.85 -18.35 58.4 -18.4 58.7 -18.45 59.0 -18.55 59.25 -19.05 59.8 -19.9 60.7 -20.45 61.25 -21.05 61.45 -22.9 61.45 Q-24.2 61.1 -25.05 60.15 L-25.75 59.25 -25.85 59.0 -26.05 58.7 -26.15 58.4 -26.35 58.15 -26.45 57.85 -26.5 57.55 -26.7 57.3 -26.8 57.0 -26.9 56.7 -27.0 56.5 -27.1 56.8 -27.2 57.1 -27.3 57.35 -27.4 57.65 -27.55 57.95 -27.65 58.2 -27.75 58.5 -27.85 58.8 -28.4 59.65 -29.25 60.8 -29.85 61.35 -30.5 61.55 -32.4 61.5 -32.85 61.45 -33.15 61.25 -34.0 60.7 -34.4 60.4 -34.8 59.85 -35.25 59.25 -35.45 59.0 -35.5 58.7 -35.7 58.4 -36.1 58.4 -36.65 58.65 -37.3 58.9 -39.2 58.8 -39.9 58.6 -40.55 57.75 -41.55 56.3 -42.15 55.5 -42.25 55.2 -42.45 54.9 -42.55 54.6 -42.7 54.35 -42.8 54.15 -43.0 54.45 -43.1 54.7 -44.05 55.85 Q-44.75 56.45 -45.65 56.6 L-46.4 56.6 -46.9 56.5 -47.0 56.4 -47.15 56.2 -47.35 55.95 -47.55 55.65 -47.75 55.4 -47.85 54.8 -47.95 54.55 -48.0 54.25 -48.0 53.95 -47.85 53.7 -47.65 53.4 -47.55 53.1 -47.55 52.8 -47.55 52.55 -47.35 52.25 -46.85 52.45 -46.8 52.65 -46.8 52.9 -46.75 53.15 -46.5 53.5 -46.3 53.75 -46.2 54.05 -46.15 54.35 -45.75 54.45 -45.5 54.25 -45.2 53.95 -45.0 53.7 -44.9 53.4 -44.8 53.1 -44.8 52.8 -44.8 51.4 -44.8 50.0 -44.8 49.15 -44.7 48.85 -44.6 48.55 -44.35 48.3 -43.75 48.1 -43.3 48.2 -43.0 48.35 -42.8 48.65 -42.75 48.95 -42.6 49.5 -42.45 50.1 -42.35 50.35 -42.15 50.65 -42.05 50.95 -41.85 51.2 -41.75 51.5 -41.6 51.8 -41.5 52.05 -41.3 52.35 -41.2 52.65 -41.0 52.9 -40.9 53.2 -40.75 53.5 -40.65 53.75 -40.45 54.05 -40.35 54.35 -39.75 55.2 -39.15 56.05 -38.75 56.6 -37.4 56.65 -37.2 56.6 -37.1 56.45 -36.95 56.15 -36.85 55.85 -36.85 55.55 -36.95 55.0 -37.05 54.7 -37.15 54.45 -37.2 54.15 -37.2 53.6 -37.2 52.75 -37.2 52.15 -37.2 51.9 -37.3 51.3 -37.4 50.75 -37.5 50.2 -37.6 49.9 -37.6 48.2 -37.6 46.5 -37.6 45.35 -37.5 45.05 -37.4 44.75 -37.15 44.5 -36.55 44.3 -36.55 44.35 -35.9 44.5 -35.7 44.75 -35.55 45.05 -35.5 45.35 -35.5 45.65 -35.5 45.9" fill="#333333" fill-rule="evenodd" stroke="none"/>
    <path d="M3.2 8.35 L3.3 8.4 3.45 8.6 3.6 8.9 3.6 9.15 3.6 9.45 3.6 9.75 3.6 10.0 3.6 10.3 3.7 10.6 3.8 10.85 3.9 11.15 3.95 11.45 3.95 11.7 3.95 12.0 3.95 12.3 3.95 12.55 3.95 12.85 4.05 13.15 4.15 13.45 4.25 13.7 4.35 14.0 4.45 14.3 4.65 14.55 4.75 14.85 4.9 15.15 5.0 15.4 5.4 15.7 5.75 16.0 5.95 16.25 6.15 16.55 6.35 16.8 6.6 17.1 7.2 17.4 7.55 17.4 7.65 17.1 7.85 16.85 8.05 16.55 8.25 16.25 8.35 16.0 8.4 15.7 8.5 15.4 8.5 15.15 8.5 14.3 8.5 13.7 8.5 13.15 8.6 12.85 8.6 12.55 8.6 12.3 8.6 12.0 8.6 11.7 8.7 11.45 8.8 11.15 9.3 10.95 9.85 11.15 10.05 11.45 10.15 11.7 10.05 12.0 10.05 13.45 10.05 14.85 10.05 15.7 9.95 16.0 9.85 16.25 9.75 16.55 9.65 16.85 9.45 17.1 9.35 17.4 9.3 17.7 9.2 17.95 9.0 18.25 8.9 18.55 8.6 18.8 8.35 19.1 7.75 19.3 7.0 19.3 6.55 19.1 6.15 18.85 5.7 18.55 5.2 18.25 5.0 17.95 4.8 17.7 4.65 17.4 4.55 17.1 4.35 16.85 4.05 16.55 3.8 16.25 3.6 16.0 3.5 15.7 3.3 15.4 3.15 15.2 3.0 15.15 3.0 15.4 2.8 16.55 2.55 17.4 2.35 17.95 2.15 18.25 2.1 18.55 1.9 18.8 1.8 19.1 1.25 19.95 0.55 20.8 0.0 21.4 -0.55 21.55 -2.45 21.55 -2.85 21.5 -5.7 19.5 -7.1 17.8 -7.2 17.5 -7.4 17.2 -7.6 16.95 -7.7 16.65 -7.85 16.35 -7.95 16.1 -8.2 15.9 -8.25 16.0 -8.35 16.25 -8.35 16.55 -8.35 16.85 -8.45 17.4 -8.6 17.95 -8.8 18.55 -8.9 18.8 -9.1 19.1 -9.3 19.4 -9.65 19.7 -10.5 19.95 -11.2 20.15 -12.7 20.15 -13.05 20.05 -13.25 19.95 -13.45 19.75 -13.65 19.5 -13.75 19.2 -13.95 18.9 -14.0 18.65 -14.2 18.35 -14.3 18.05 -14.4 17.8 -14.4 17.5 -14.3 17.2 -14.3 16.95 -14.3 16.65 -14.2 16.35 -14.1 16.1 -14.05 15.8 -14.0 15.5 -13.95 15.25 -13.65 14.95 -13.15 14.95 -12.9 15.25 -12.9 15.5 -12.9 15.8 -12.7 16.1 -12.6 16.35 -12.6 16.65 -12.6 16.95 -12.6 17.2 -12.4 17.5 -12.3 17.8 -12.15 18.05 -11.0 18.15 -10.7 17.95 -10.6 17.7 -10.5 17.4 -10.4 17.1 -10.35 16.85 -10.35 16.55 -10.15 16.25 -10.05 16.0 -9.95 15.4 -9.85 14.85 -9.75 14.55 -9.75 13.15 -9.75 11.45 -9.75 10.0 -9.55 9.75 -9.4 9.45 -8.9 9.25 -8.35 9.45 -8.15 9.75 -7.95 10.0 -7.85 10.3 -7.7 10.6 -7.7 10.85 -7.7 11.15 -7.7 11.45 -7.7 11.7 -7.7 12.0 -7.7 12.3 -7.6 12.55 -7.5 12.85 -7.4 13.15 -7.35 13.4 -7.3 13.7 -7.1 14.0 -7.0 14.3 -6.8 14.55 -6.75 14.85 -6.55 15.15 -6.45 15.4 -6.25 15.7 -6.15 16.0 -6.0 16.25 -4.45 18.25 -2.65 19.7 -0.85 19.7 -0.75 19.7 -0.6 19.5 -0.1 18.9 0.1 18.65 0.3 18.35 0.35 18.05 0.55 17.8 0.65 17.5 0.85 17.2 1.15 15.8 1.45 14.1 Q1.5 13.5 1.7 12.95 L1.7 11.8 1.7 10.7 1.7 9.85 1.8 9.55 1.9 9.25 2.0 9.0 2.15 8.7 2.35 8.4 2.85 8.2 2.85 8.25 3.2 8.35" fill="#333333" fill-rule="evenodd" stroke="none"/>
    <path d="M17.6 -16.4 L17.8 -16.7 18.25 -16.95 18.35 -16.95 18.55 -16.95 18.6 -16.8 18.45 -16.5 18.35 -16.2 18.35 -15.65 18.35 -15.1 18.35 -14.5 18.35 -14.25 18.45 -13.95 18.45 -13.4 18.45 -12.8 18.45 -12.25 18.45 -11.95 18.55 -11.65 18.55 -11.1 18.55 -10.25 18.55 -9.4 18.55 -8.85 18.4 -7.95 18.25 -7.15 18.2 -6.55 18.0 -6.25 17.9 -6.0 17.8 -5.7 17.7 -5.4 17.6 -5.15 17.4 -4.85 17.35 -4.55 17.25 -4.3 17.15 -4.0 17.05 -3.7 15.95 -2.8 15.25 -2.3 13.8 -2.2 13.55 -2.3 13.15 -2.5 12.7 -2.75 12.4 -3.05 12.1 -3.3 11.95 -3.35 11.95 -3.05 11.95 -2.75 11.95 -2.5 11.95 -2.2 11.85 -1.9 11.75 -1.65 11.65 -1.35 11.55 -1.05 11.35 -0.8 11.25 -0.5 11.15 -0.2 10.1 1.15 Q9.1 2.1 7.75 2.55 L6.6 2.55 6.25 2.4 6.05 2.25 5.75 2.0 4.75 1.1 4.15 0.55 4.05 0.25 3.9 0.0 3.55 -1.45 3.25 -2.85 3.0 -4.0 2.85 -3.8 2.65 -3.55 2.55 -3.25 2.35 -3.0 1.2 -1.85 0.0 -0.95 -0.55 -0.8 -2.85 -0.8 -3.2 -0.9 -3.4 -0.95 -3.6 -1.15 -3.9 -1.45 -4.15 -1.75 -4.25 -2.0 -4.45 -2.3 -4.55 -2.6 -4.65 -2.85 -4.75 -3.15 -4.85 -3.45 -4.85 -3.7 -4.85 -4.0 -4.85 -4.3 -4.75 -4.55 -4.75 -4.85 -4.75 -5.15 -4.75 -5.4 -4.65 -5.7 -4.45 -6.0 -3.95 -6.15 -3.7 -6.2 -3.4 -6.35 -2.85 -6.65 -2.45 -6.3 -2.35 -6.1 -2.55 -5.8 -2.95 -5.5 -3.15 -5.2 -3.25 -4.95 -3.2 -4.65 -3.15 -4.4 -3.15 -4.1 -3.15 -3.8 -3.05 -3.55 -2.95 -3.25 -2.85 -2.95 -2.65 -2.65 -0.75 -2.65 -0.55 -2.65 0.05 -3.2 0.9 -4.05 1.3 -4.55 1.4 -4.85 1.6 -5.15 1.7 -5.4 1.8 -5.7 2.0 -6.0 2.35 -7.15 2.6 -8.25 2.75 -9.1 2.75 -9.7 2.75 -10.55 2.75 -11.4 2.75 -11.95 2.95 -12.25 3.1 -12.5 3.6 -12.7 4.15 -12.5 4.35 -12.25 4.45 -11.95 4.45 -9.95 4.45 -7.7 4.45 -5.7 4.75 -4.3 5.1 -2.3 5.6 -0.6 6.05 -0.05 6.35 0.25 6.6 0.55 6.7 0.85 7.75 0.9 7.95 0.85 8.3 0.6 9.35 -0.25 9.75 -0.8 9.85 -1.05 9.95 -1.35 10.05 -1.65 10.2 -1.9 10.3 -2.2 10.4 -2.5 10.4 -5.05 10.4 -8.75 10.4 -12.15 10.5 -12.45 10.5 -12.7 10.5 -13.0 10.5 -13.3 10.6 -13.55 10.7 -13.85 11.15 -14.05 11.55 -13.9 11.75 -13.75 11.85 -13.45 11.85 -13.2 11.85 -12.9 11.85 -12.6 11.95 -12.35 11.95 -12.05 11.95 -11.2 11.95 -10.35 11.95 -9.8 12.0 -9.5 12.1 -9.2 12.15 -8.95 12.2 -8.65 12.2 -7.8 12.2 -6.95 12.2 -6.35 12.4 -5.8 12.5 -5.25 12.7 -4.65 12.8 -4.4 12.95 -4.1 13.15 -3.8 13.55 -3.55 14.85 -3.5 15.05 -3.6 15.5 -3.9 15.9 -4.2 16.1 -4.45 16.2 -4.75 16.4 -5.35 16.55 -5.9 16.65 -6.2 16.85 -6.45 16.95 -6.75 17.2 -7.6 17.3 -8.45 17.4 -9.0 17.4 -9.3 17.4 -10.15 17.4 -11.0 17.4 -11.6 17.5 -11.85 17.5 -12.45 17.5 -13.0 17.5 -13.55 17.5 -13.85 17.6 -14.15 17.6 -15.0 17.6 -15.85 17.6 -16.4" fill="#333333" fill-rule="evenodd" stroke="none"/>
    <path d="M7.55 -27.1 L7.6 -26.85 7.65 -26.55 7.75 -26.25 7.85 -25.95 7.95 -25.7 8.15 -25.4 8.25 -25.1 8.4 -24.85 8.5 -24.55 8.6 -24.25 8.7 -24.0 8.7 -23.7 8.7 -23.4 8.7 -23.15 8.9 -22.85 9.2 -22.55 9.45 -22.25 9.65 -22.0 9.75 -21.7 10.3 -21.65 10.3 -21.7 10.4 -21.9 10.4 -22.2 10.4 -22.45 10.4 -22.75 10.5 -23.05 10.5 -23.3 10.5 -23.6 10.5 -23.9 10.6 -24.15 10.6 -24.45 10.6 -24.75 10.6 -25.0 10.8 -25.3 11.0 -25.0 11.0 -24.75 11.0 -24.45 11.05 -24.15 11.05 -23.9 11.05 -23.6 11.05 -23.3 11.15 -23.05 11.15 -22.75 11.15 -22.45 11.15 -22.2 11.25 -21.9 11.25 -21.6 11.25 -21.35 11.35 -21.05 11.35 -20.75 11.05 -20.5 9.65 -20.4 9.3 -20.55 9.0 -20.85 8.7 -21.15 8.6 -21.4 8.4 -21.7 8.2 -22.0 7.95 -22.3 7.65 -22.55 7.55 -22.85 7.55 -23.15 7.55 -23.4 7.5 -23.7 7.4 -24.0 7.3 -24.25 7.2 -24.55 7.1 -24.75 6.75 -23.6 6.45 -22.45 6.15 -21.6 5.95 -21.35 5.85 -21.05 5.6 -20.75 5.1 -20.45 4.75 -20.2 4.55 -19.9 3.95 -19.7 2.45 -19.7 1.9 -19.95 1.3 -20.2 1.05 -20.5 0.85 -20.75 0.75 -21.05 0.45 -21.35 -0.05 -21.9 -0.5 -22.45 -0.65 -22.75 -0.75 -23.05 -0.95 -23.3 -1.05 -23.6 -1.05 -23.9 -1.05 -24.15 -1.05 -24.45 -1.05 -24.75 -1.15 -25.0 -1.35 -25.6 -1.45 -25.9 -1.55 -26.05 -1.6 -25.95 -1.6 -25.7 -1.6 -25.4 -1.6 -25.1 -1.95 -23.7 -2.3 -22.3 -2.55 -21.4 -2.95 -20.85 -3.7 -20.0 -4.35 -19.45 -5.2 -19.15 -5.9 -18.95 -7.0 -18.95 -7.4 -19.05 -7.6 -19.15 -8.7 -19.65 -9.4 -19.9 -10.05 -20.75 -10.75 -21.65 -11.2 -22.2 -11.3 -22.45 -11.35 -22.75 -11.45 -23.05 -11.55 -23.3 -11.55 -23.5 -11.75 -23.2 -11.85 -22.95 Q-12.15 -22.4 -12.7 -22.15 L-13.85 -21.6 -14.6 -21.7 -14.95 -21.85 -15.15 -22.0 -15.25 -22.3 -15.45 -22.55 -15.55 -22.85 -15.45 -23.15 -14.95 -23.4 -14.0 -23.35 -13.85 -23.4 -13.55 -23.6 -13.25 -23.9 -13.15 -24.15 -13.15 -24.45 -13.15 -25.9 -13.15 -27.0 -13.15 -27.85 -13.0 -28.15 -12.8 -28.45 -12.3 -28.6 -11.95 -28.5 -11.75 -28.45 -11.3 -27.4 -11.0 -26.25 -10.7 -25.4 -10.5 -25.1 -10.35 -24.85 -10.15 -24.55 -9.95 -24.25 -9.9 -24.0 -9.85 -23.7 -9.75 -23.4 -9.65 -23.15 -9.55 -22.85 -9.3 -22.55 -8.8 -22.0 -8.6 -21.7 -8.45 -21.4 -7.95 -21.15 -7.2 -20.85 -5.7 -20.75 -5.2 -20.95 -4.95 -21.25 -4.45 -21.8 -4.25 -22.1 -4.1 -22.35 -3.7 -23.5 -3.5 -24.65 -3.3 -25.5 -3.3 -27.2 -3.3 -29.2 -3.3 -30.9 -3.15 -31.2 -2.95 -31.45 -2.45 -31.65 -2.1 -31.65 -2.1 -31.6 -1.7 -31.55 -1.5 -31.45 -1.35 -31.25 -1.05 -31.0 -0.85 -30.7 -0.45 -29.0 0.15 -26.75 0.65 -25.0 0.65 -24.75 0.65 -24.45 0.65 -24.15 0.75 -23.9 0.85 -23.6 1.05 -23.35 1.5 -22.75 1.8 -22.45 2.1 -22.2 2.15 -21.9 2.35 -21.6 4.05 -21.6 4.55 -21.9 4.75 -22.2 4.8 -22.45 5.1 -23.35 5.3 -24.15 5.5 -24.75 5.5 -25.0 5.5 -25.3 5.5 -25.6 5.5 -25.9 5.6 -26.15 5.6 -26.45 5.6 -26.75 5.6 -27.0 5.6 -27.3 5.7 -27.6 5.75 -27.85 6.25 -28.05 6.6 -27.95 6.9 -27.85 7.1 -27.7 7.35 -27.4 7.55 -27.1" fill="#333333" fill-rule="evenodd" stroke="none"/>
    <path d="M7.4 -51.65 L7.4 -51.6 7.75 -51.5 7.85 -51.45 8.0 -51.25 8.1 -50.95 8.15 -50.7 8.35 -50.4 8.4 -50.1 8.6 -49.85 8.7 -49.55 8.9 -49.25 9.0 -48.7 9.1 -48.15 9.3 -47.55 9.35 -47.3 9.35 -47.0 9.35 -45.55 9.35 -44.15 9.35 -43.0 9.45 -42.75 9.55 -42.45 9.65 -42.15 9.85 -41.9 10.15 -41.6 11.35 -41.5 11.65 -41.7 11.9 -42.0 12.1 -42.25 12.3 -42.55 12.4 -42.85 12.4 -44.8 12.4 -46.8 12.4 -48.5 12.5 -48.8 12.6 -49.1 13.05 -49.25 13.45 -49.15 13.55 -49.1 13.75 -48.9 14.0 -48.6 14.1 -48.3 14.1 -48.05 14.1 -47.75 14.1 -47.45 14.1 -47.2 14.1 -46.9 14.3 -46.6 14.4 -46.35 14.6 -46.05 14.65 -45.75 14.75 -45.5 14.85 -45.2 14.85 -44.9 14.85 -44.65 14.85 -44.35 14.85 -44.05 14.95 -43.8 15.05 -43.5 15.25 -43.2 15.35 -42.9 15.55 -42.65 15.6 -42.35 15.8 -42.1 16.1 -41.8 16.85 -41.6 17.15 -41.6 17.2 -41.8 17.25 -42.05 17.25 -42.35 17.35 -42.65 17.35 -42.9 17.35 -43.2 17.4 -43.5 17.4 -43.8 17.4 -44.05 17.5 -44.35 17.6 -44.9 17.7 -45.2 17.8 -45.5 18.0 -45.75 18.2 -45.5 18.1 -45.2 17.95 -44.65 17.85 -44.05 17.8 -43.8 17.9 -43.5 17.9 -43.2 17.9 -42.9 18.0 -42.65 18.0 -42.35 18.0 -42.05 18.0 -41.8 18.05 -41.5 18.1 -41.2 17.8 -40.95 17.5 -40.65 16.85 -40.45 16.1 -40.45 15.85 -40.6 15.6 -40.75 15.05 -41.3 14.4 -41.9 14.2 -42.15 14.1 -42.45 13.9 -42.75 13.8 -42.9 13.75 -42.65 13.7 -42.35 13.65 -42.05 13.45 -41.8 12.5 -40.65 Q11.9 -40.15 11.15 -39.9 L10.05 -39.9 9.6 -40.1 9.35 -40.25 9.3 -40.0 9.1 -39.4 9.05 -39.15 9.0 -38.85 7.95 -37.75 6.6 -36.85 5.75 -36.6 4.35 -36.3 2.95 -36.8 1.8 -37.35 1.5 -37.6 Q0.95 -38.1 0.55 -38.75 L0.0 -39.6 -0.1 -39.9 -0.3 -40.2 -0.4 -40.45 -0.5 -40.75 -0.6 -41.05 -0.65 -41.2 -1.75 -40.7 Q-2.45 -40.4 -3.25 -40.2 L-5.1 -40.2 -5.5 -40.3 -5.7 -40.35 -5.8 -40.55 -5.95 -40.85 -6.35 -41.1 -6.45 -41.4 -6.35 -41.7 -5.9 -42.0 -3.05 -42.0 -2.45 -42.15 -2.0 -42.45 -1.85 -42.75 -1.8 -43.0 -1.8 -43.3 -1.8 -44.45 -1.8 -45.55 -1.8 -46.45 -1.6 -46.7 -1.45 -47.0 -0.95 -47.2 -0.6 -47.1 -0.4 -47.0 -0.2 -46.8 -0.1 -46.5 -0.1 -46.25 -0.1 -45.95 0.0 -45.65 0.1 -45.4 0.3 -45.1 0.5 -44.25 0.75 -43.4 0.95 -42.85 1.15 -42.55 1.25 -42.0 1.4 -41.4 1.6 -40.85 1.7 -40.55 1.9 -40.25 2.25 -39.7 2.65 -39.15 2.95 -38.85 3.4 -38.6 Q3.8 -38.4 4.15 -38.3 L5.3 -38.2 6.25 -38.65 6.7 -38.95 7.0 -39.25 7.3 -39.5 7.4 -39.8 7.5 -40.1 7.55 -40.35 7.65 -40.65 7.65 -41.5 7.65 -42.35 7.65 -42.9 7.55 -43.2 7.4 -43.5 7.3 -43.8 7.2 -44.35 7.1 -44.65 7.0 -44.9 7.0 -45.2 7.0 -45.5 7.0 -45.75 7.0 -46.05 7.0 -46.35 6.9 -46.6 6.75 -47.2 6.7 -47.45 6.6 -47.75 6.6 -48.9 6.6 -50.05 6.6 -50.9 6.7 -51.15 6.9 -51.45 7.4 -51.65" fill="#333333" fill-rule="evenodd" stroke="none"/>
    <path d="M-32.85 -2.5 L-32.7 -2.2 -32.6 -1.9 -32.4 -1.65 -32.15 -0.75 -31.95 0.05 -31.85 0.65 -31.85 0.95 -31.85 1.2 -31.85 1.5 -31.85 1.8 -31.85 2.05 -31.75 2.35 -31.55 2.9 -31.45 3.5 -31.35 3.75 -31.35 4.05 -31.35 4.35 -31.35 4.6 -31.35 4.9 -31.35 5.2 -31.25 5.45 -31.15 5.75 -31.05 6.05 -30.95 6.3 -30.8 6.6 -28.6 6.6 -27.2 5.7 -26.25 5.2 -26.05 4.9 -25.6 4.3 -25.2 3.75 -25.0 3.5 -24.9 3.2 -24.7 2.9 -24.65 2.65 -24.45 2.35 -24.35 2.05 -24.1 1.2 -24.0 0.35 -23.85 -0.2 -23.85 -2.2 -23.85 -4.75 -23.85 -6.75 -23.65 -7.0 -23.4 -7.3 -22.9 -7.5 -22.55 -7.4 -22.25 -7.2 -22.05 -6.9 -22.0 -6.65 -22.0 -3.8 -22.0 -0.1 -22.0 3.3 -21.7 4.4 -21.5 5.25 -21.3 6.15 -21.1 6.4 -20.75 6.7 -19.7 6.8 -19.25 6.6 -18.75 6.3 -18.4 6.05 -18.2 5.75 -18.1 5.45 -17.9 5.2 -17.8 4.9 -17.35 4.3 -16.95 3.75 -16.75 3.5 -16.65 3.2 -16.55 2.9 -16.5 2.65 -16.5 2.35 -16.6 2.05 -16.75 1.8 -16.85 1.5 -16.85 -0.5 -16.85 -3.35 -16.85 -5.9 -16.75 -6.2 -16.6 -6.75 -16.45 -7.3 -16.4 -7.6 -16.2 -7.9 -15.75 -8.05 -15.7 -8.0 -15.35 -7.9 -15.15 -7.8 -15.0 -7.5 -14.95 -7.2 -14.95 -6.95 -14.95 -6.65 -14.8 -6.1 -14.7 -5.5 -14.6 -4.95 -14.5 -4.65 -14.5 -2.65 -14.5 -0.4 -14.5 1.6 -14.55 1.9 -14.6 2.15 -14.7 2.45 -14.6 2.7 -13.05 2.75 -12.9 2.7 -12.35 2.25 -11.9 1.65 -11.85 1.4 -11.85 1.1 -11.85 0.85 -11.85 0.55 -11.75 0.25 -11.85 0.0 -12.2 -0.3 -12.3 -0.6 -12.3 -0.85 -12.15 -1.15 -11.65 -1.15 -11.2 -0.85 -10.9 -0.6 -10.65 -0.3 -10.6 0.0 -10.6 0.25 -10.5 0.55 -10.5 0.85 -10.5 1.1 -10.5 1.4 -10.5 1.7 -10.45 1.95 -10.4 2.25 -10.5 2.55 -11.1 3.1 -11.65 3.65 -11.95 3.95 -12.5 4.2 -13.05 4.45 -14.95 4.5 -15.45 4.6 -15.65 4.9 -15.8 5.2 -15.9 5.45 -16.0 5.75 -16.2 6.05 -16.3 6.3 -16.5 6.6 -16.6 6.9 -17.45 7.75 -18.4 8.3 -19.25 8.6 -19.9 8.8 -20.65 8.8 -21.05 8.7 -21.4 8.5 -22.55 7.65 -23.0 7.1 -23.3 6.25 -23.65 5.45 -23.85 5.3 -24.35 5.85 -24.55 6.1 -24.8 6.4 -24.9 6.7 -25.1 7.0 -26.6 7.9 -27.95 8.7 -28.6 8.9 -31.85 8.7 -32.0 8.5 -32.4 7.95 -32.75 7.35 -32.95 7.1 -33.05 6.8 -33.25 6.25 -33.35 5.95 -33.45 5.65 -33.45 5.4 -33.45 5.1 -33.45 4.8 -33.45 4.5 -33.45 4.25 -33.5 3.95 -33.65 3.4 -33.8 2.8 -33.8 2.55 -33.7 2.25 -33.7 1.95 -33.7 1.7 -33.7 1.4 -33.7 1.1 -33.85 0.55 -34.0 -0.05 -34.1 -0.6 -34.2 -0.85 -34.4 -1.15 -34.55 -1.4 -34.65 -1.45 -34.95 -0.35 -35.1 0.55 -35.25 1.4 -35.45 1.7 -35.5 1.95 -35.7 2.25 -35.8 2.55 -36.0 3.1 -36.2 3.65 -36.3 3.95 -36.45 4.25 -37.2 5.1 -37.8 5.65 -38.45 5.85 -39.2 5.8 -39.65 5.7 -39.9 5.55 -40.1 5.3 -40.35 5.0 -40.45 4.7 -40.55 4.15 -40.75 3.6 -40.8 3.3 -40.75 3.0 -40.55 2.7 -40.45 2.45 -40.15 2.15 -39.6 2.25 -39.4 2.55 -39.2 2.8 -39.1 3.1 -39.0 3.35 -38.85 3.6 -38.65 3.45 -38.4 3.2 -38.15 2.9 -38.1 2.65 -38.0 2.35 -37.8 2.05 -37.6 1.8 -37.5 1.5 -37.3 1.2 -37.0 0.05 -36.6 -1.6 -36.2 -3.05 -36.0 -3.35 -35.9 -3.6 -35.5 -3.9 -35.05 -4.1 -34.3 -4.1 -33.7 -3.9 -33.45 -3.6 -33.25 -3.35 -33.15 -3.05 -32.95 -2.75 -32.85 -2.5" fill="#333333" fill-rule="evenodd" stroke="none"/>
    <path d="M-31.85 30.65 L-31.75 30.4 -31.45 30.1 -30.95 30.1 -30.7 30.4 -30.5 30.65 -30.3 30.95 -30.2 31.25 -30.2 31.5 -30.2 32.35 -30.2 33.2 -30.2 33.8 -30.1 34.05 -30.1 34.65 -30.1 35.2 -30.1 35.5 -30.1 35.8 -30.05 36.05 -30.05 36.35 -30.05 37.2 -30.05 38.05 -30.05 38.6 -30.1 38.9 -30.2 39.45 -30.35 40.05 -30.4 40.3 -30.95 41.2 -31.75 42.3 -32.1 42.9 -33.2 43.4 -34.65 43.9 -35.45 43.9 -35.9 43.75 -36.55 43.15 -37.65 42.0 -38.1 41.45 -38.15 41.2 -38.35 40.9 -38.45 40.6 -38.65 40.3 -38.75 40.05 -38.85 39.75 -38.95 39.45 -39.0 39.2 -39.2 38.9 -39.3 38.6 -39.4 38.35 -39.5 38.15 -39.7 38.45 -39.8 38.7 -40.15 39.3 -41.15 40.4 -41.75 41.0 -42.65 41.25 -43.4 41.45 -45.75 41.3 -45.85 41.25 -46.6 40.25 -47.55 38.8 -48.1 38.05 -48.55 38.65 -49.5 39.8 -50.5 40.6 -52.1 41.05 -52.85 41.2 Q-53.95 40.95 -54.9 40.4 L-55.8 39.85 -56.05 39.55 -56.25 39.3 -56.45 39.0 -56.65 38.7 -56.75 38.45 -56.9 38.15 -57.0 37.85 -57.2 37.6 -57.8 37.65 -58.15 37.65 -58.9 37.45 -59.65 37.2 -60.05 36.9 -60.8 36.35 -61.2 36.05 -61.3 35.8 -61.35 35.5 -61.45 35.2 -61.65 34.95 -61.95 34.65 -62.05 34.35 -62.25 34.05 -62.15 33.8 -62.05 33.5 -61.55 33.3 -61.2 33.45 -61.1 33.5 -60.9 33.7 -60.7 34.0 -60.5 34.25 -60.25 34.55 -59.7 34.85 -59.3 35.1 -58.8 35.15 -58.8 35.1 -58.8 34.9 -58.8 33.5 -58.8 32.1 -58.8 30.95 -58.7 30.65 -58.65 30.4 -58.35 30.1 -57.8 29.9 -57.3 30.05 -57.2 30.1 -56.9 30.3 -56.8 30.6 -56.75 30.85 -56.75 31.15 -56.75 31.4 -56.3 32.85 -55.85 34.55 -55.6 35.95 -55.4 36.25 -55.3 36.55 -55.1 36.8 -54.75 37.4 -54.55 37.65 -54.35 37.95 -54.0 38.25 -53.6 38.5 -52.95 38.8 -51.7 38.8 -51.05 38.25 -50.05 37.1 -49.65 36.55 -49.45 35.95 -49.25 35.4 -49.05 34.85 -48.95 34.55 -48.95 32.25 -48.95 29.45 -48.95 27.15 -48.85 26.85 -48.8 26.6 -48.5 26.3 -47.95 26.1 -47.9 26.15 -47.45 26.2 -47.15 26.4 -47.0 26.7 -46.9 26.95 -46.9 28.65 -46.9 30.4 -46.9 31.8 -46.8 32.35 -46.7 32.95 -46.6 33.5 -46.5 33.8 -46.5 34.05 -46.5 34.9 -46.5 35.8 -46.5 36.35 -46.3 36.65 -46.2 36.9 -46.05 37.2 -45.95 37.5 -45.75 37.75 -45.35 38.35 -45.0 38.9 -44.8 39.2 -43.3 39.3 -43.0 39.2 -42.75 39.0 -42.2 38.4 -41.75 37.85 -41.6 37.6 -41.5 37.3 -41.4 37.0 -41.3 36.7 -41.2 36.45 -41.0 36.15 -40.9 35.85 -40.9 33.6 -40.9 30.75 -40.9 28.5 -40.7 28.2 -40.45 27.9 -39.95 27.75 -39.6 27.8 -39.2 27.9 -38.95 28.1 -38.8 28.4 -38.75 28.65 -38.75 28.95 -38.75 29.25 -38.75 29.55 -38.65 29.8 -38.55 30.4 -38.45 30.95 -38.35 31.25 -38.35 31.8 -38.35 32.65 -38.35 33.2 -38.35 33.5 -38.0 34.9 -37.7 36.9 -37.3 38.35 -37.15 38.6 -37.05 38.9 -36.95 39.2 -36.85 39.45 -36.75 39.75 -36.55 40.05 -36.45 40.3 -36.3 40.6 -36.2 40.9 -36.0 41.2 -35.8 41.45 -35.5 41.75 -35.25 42.05 -34.2 42.05 -33.55 41.75 -33.25 41.45 -32.7 40.6 -32.3 40.05 -32.1 39.75 -32.05 39.45 -31.9 38.9 -31.8 38.35 -31.75 38.05 -31.75 37.5 -31.75 36.9 -31.75 36.65 -31.75 36.35 -31.65 36.05 -31.65 35.5 -31.65 34.9 -31.65 34.65 -31.65 34.35 -31.55 34.05 -31.55 33.5 -31.55 32.65 -31.55 31.8 -31.55 31.25 -31.75 30.95 -31.85 30.65" fill="#333333" fill-rule="evenodd" stroke="none"/>
    <path d="M-26.7 12.3 L-26.7 13.15 -26.7 13.7 -26.35 15.4 -25.95 17.7 -25.6 19.4 -25.4 19.7 -25.3 19.95 -25.1 20.25 -25.0 20.55 -24.8 20.8 -24.7 21.1 -24.55 21.4 -24.45 21.65 -24.25 21.95 -24.15 22.25 -23.55 22.8 -22.85 23.65 -22.45 24.2 -21.9 24.35 -21.7 24.3 -21.65 24.05 -21.6 23.75 -21.6 23.45 -21.6 22.6 -21.6 21.75 -21.6 21.2 -21.7 20.9 -21.8 20.6 -21.9 20.35 -21.8 20.05 -21.8 19.75 -21.8 19.5 -21.8 19.2 -21.7 18.9 -21.7 18.65 -21.7 18.35 -21.7 18.05 -21.4 17.8 -21.2 18.1 -21.1 18.35 -21.1 18.65 -21.1 18.9 -21.05 19.2 -21.05 19.5 -21.05 19.75 -20.85 20.35 -20.65 20.9 -20.55 21.2 -20.45 21.5 -20.45 21.75 -20.45 22.6 -20.45 23.2 -20.45 23.75 -20.35 24.05 -20.35 24.3 -20.35 24.6 -20.35 24.9 -20.35 25.15 -20.35 25.45 -20.55 25.75 -21.05 25.95 -22.15 26.0 -22.55 25.95 -22.75 25.85 -23.1 25.65 -23.5 25.35 -23.85 24.8 Q-24.25 24.15 -24.8 23.65 L-25.6 22.8 -25.65 22.5 -25.85 22.25 -25.95 21.95 -26.15 21.65 -26.25 21.4 -26.45 21.1 -26.5 20.8 -26.7 20.55 -26.8 20.35 -26.9 20.6 -27.15 21.45 -27.4 22.35 -27.55 22.9 -27.95 23.45 -28.15 23.75 -28.3 24.05 -28.5 24.3 -28.6 24.6 -29.0 24.85 -29.55 25.15 -30.1 25.35 -30.9 25.35 -31.25 25.25 -31.45 25.15 -31.8 24.95 -32.3 24.7 -32.9 23.85 -33.85 22.65 -34.5 21.85 -34.55 21.55 -34.75 21.3 -34.85 21.0 -35.05 20.7 -35.15 20.45 -35.35 20.15 -35.45 19.85 -35.6 19.6 -35.7 19.3 -35.9 19.0 -35.9 18.75 -36.05 18.45 -36.1 18.45 -36.1 19.0 -36.1 19.85 -36.1 20.7 -36.1 21.3 -36.2 21.85 -36.35 22.4 -36.45 22.7 -36.55 23.0 -36.75 23.25 -37.75 24.05 -38.85 24.6 -39.6 24.6 -39.95 24.5 -41.3 23.75 -42.15 23.2 -42.35 22.9 -42.55 22.6 -42.7 22.35 -42.8 22.05 -43.0 21.75 -43.1 21.5 -43.2 21.2 -43.3 20.9 -43.35 20.6 -43.4 20.35 -43.55 20.05 Q-43.65 19.9 -43.8 19.9 L-43.95 19.95 -44.45 20.5 -45.0 21.1 -45.55 21.65 -46.05 21.85 -46.8 21.75 -47.15 21.6 -47.25 21.5 -47.45 21.2 -47.35 20.9 -47.25 20.6 -46.8 20.45 -46.35 20.3 -46.2 20.25 -46.05 20.05 -45.5 19.45 -45.25 19.2 -45.1 18.9 -45.0 18.65 -44.6 17.5 -44.35 16.65 -44.25 16.1 -44.05 15.8 -43.85 15.5 -43.4 15.3 -43.0 15.4 -42.7 15.6 -42.55 15.9 -42.55 16.15 -42.55 16.45 -42.55 17.3 -42.55 17.9 -42.55 18.45 -42.35 18.75 -42.15 19.0 -41.95 19.3 -41.75 19.85 -41.6 20.45 -41.5 20.7 -41.5 21.0 -41.3 21.3 -41.1 21.55 -40.9 21.85 -40.65 22.15 -40.15 22.45 -39.8 22.7 -38.85 22.8 -38.55 22.6 -38.3 22.3 -38.1 22.05 -38.0 21.75 -37.9 21.45 -37.85 21.2 -37.8 20.9 -37.8 17.8 -37.8 13.25 -37.8 9.25 -37.6 9.0 -37.4 8.7 -36.95 8.5 -36.55 8.5 -36.55 8.55 -36.0 8.7 -35.8 9.0 -35.6 9.25 -35.5 9.55 -35.2 10.7 -35.05 11.55 -34.95 12.1 -34.95 12.4 -34.95 13.25 -34.95 14.1 -34.95 14.65 -34.7 16.1 -34.4 17.5 -34.2 18.65 -34.0 18.9 -33.9 19.2 -33.7 19.5 -33.65 19.75 -33.45 20.05 -33.35 20.35 -33.15 20.6 -33.05 20.9 -32.65 21.45 -31.6 22.65 -30.95 23.45 -30.15 23.45 -29.95 23.35 -29.75 23.1 -29.65 22.8 -29.45 22.5 -29.25 22.25 -29.1 21.95 -28.7 20.85 -28.5 19.7 -28.3 18.8 -28.3 18.55 -28.3 17.7 -28.3 17.1 -28.3 16.55 -28.25 16.25 -28.25 14.55 -28.25 12.55 -28.25 10.85 -28.15 10.6 -27.95 10.3 -27.45 10.1 -27.0 10.3 -26.75 10.6 -26.7 10.85 -26.7 11.45 -26.7 12.3" fill="#333333" fill-rule="evenodd" stroke="none"/>
    <path d="M-50.2 10.4 L-50.1 10.7 -50.1 10.95 -50.1 11.25 -50.1 11.55 -50.0 11.8 -50.0 12.65 -50.0 13.5 -50.0 14.35 -50.0 14.95 -49.9 15.25 -49.9 16.1 -49.9 16.65 -49.9 17.2 -49.9 17.8 -50.0 18.05 -50.1 18.65 -50.2 19.2 -50.3 19.75 -50.4 20.05 -50.6 20.35 -50.75 20.6 -50.95 20.9 -51.15 21.2 -51.25 21.5 -51.35 21.75 -51.45 22.05 -51.6 22.35 -52.1 22.6 -52.45 22.9 -52.75 23.2 -53.25 23.35 -54.0 23.35 -54.35 23.3 -55.3 22.7 -56.75 21.3 -57.6 20.15 -57.7 19.85 -57.85 19.6 -57.95 19.3 -58.15 19.0 -58.25 18.75 -58.45 18.45 -58.55 18.15 -58.7 17.9 -58.8 17.6 -59.0 17.0 -59.1 16.45 -59.2 15.9 -59.3 15.6 -59.3 15.05 -59.3 13.6 -59.3 12.5 -59.3 11.65 -59.4 11.35 -59.55 11.1 -59.65 11.05 -59.75 11.65 -59.9 12.2 -60.05 12.75 -60.15 13.05 -60.35 13.35 -60.45 13.6 -60.6 13.9 -60.65 14.2 -60.7 14.45 -60.9 14.75 -61.0 15.05 -61.2 15.3 -61.3 15.6 -61.65 16.2 -62.75 17.6 Q-63.55 18.4 -64.6 18.65 L-65.35 18.65 -65.9 18.45 -66.5 18.15 -66.85 17.9 -67.05 17.6 -67.15 17.3 -67.35 17.05 -67.45 16.75 -67.65 16.45 -67.7 16.15 -67.8 15.9 -67.9 15.6 -68.0 15.3 -68.1 15.05 -68.1 14.45 -68.1 13.35 -68.1 12.2 -68.1 11.35 -68.3 11.05 -68.6 10.8 -68.95 10.5 -68.6 10.2 -68.1 9.65 -67.9 9.35 -67.7 9.05 -67.25 8.9 -66.85 9.0 -66.6 9.15 -66.45 9.45 -66.4 9.75 -66.4 10.0 -66.4 11.7 -66.4 13.45 -66.4 14.85 -66.2 15.1 -65.9 15.4 -65.85 15.7 -65.65 16.0 -65.55 16.25 -65.35 16.55 -64.4 16.55 -64.15 16.25 -63.65 15.7 -63.25 15.15 -63.1 14.85 -63.0 14.55 -62.8 14.3 -62.7 14.0 -62.5 13.7 -62.4 13.45 -62.15 13.15 -61.95 12.85 -61.85 12.55 -61.65 12.3 -61.6 12.0 -61.45 11.45 -61.35 10.85 -61.2 10.3 -61.1 10.0 -60.9 9.75 -60.7 9.45 -60.5 9.15 -60.35 8.9 -60.15 8.6 -59.75 8.3 -59.3 8.1 -59.3 8.15 -58.7 8.3 -58.55 8.6 -58.4 9.15 -58.15 10.0 -57.9 10.9 -57.8 11.45 -57.8 12.0 -57.75 13.15 -57.8 14.3 -57.8 15.15 -57.7 15.7 -57.55 16.25 -57.45 16.85 -57.4 17.1 -57.2 17.4 -57.1 17.7 -56.9 17.95 -56.85 18.25 -56.65 18.55 -56.55 18.8 -56.35 19.1 -56.25 19.4 -56.05 19.7 -56.0 19.95 -55.4 20.55 -54.85 21.1 -54.2 21.65 -53.3 21.7 -53.25 21.65 -52.85 21.5 -52.55 21.2 -52.45 20.9 -52.4 20.6 -52.2 20.35 -52.1 20.05 -51.9 19.75 -51.7 19.5 -51.55 19.2 -51.45 18.65 -51.35 18.05 -51.3 17.8 -51.25 17.5 -51.25 17.2 -51.25 16.65 -51.25 16.1 -51.25 15.8 -51.25 15.5 -51.15 15.25 -51.15 14.65 -51.15 13.5 -51.15 12.65 -51.15 11.8 -51.25 11.55 -51.15 11.25 -51.05 10.95 -50.95 10.7 -50.85 10.4 -50.6 10.1 -50.2 10.4" fill="#333333" fill-rule="evenodd" stroke="none"/>
    <path d="M-44.15 -26.9 L-44.15 -26.85 -43.8 -26.75 -43.55 -26.65 -43.5 -26.35 -43.45 -25.2 -43.45 -24.1 -43.5 -23.2 -43.25 -22.4 -43.1 -21.5 -43.0 -20.95 -43.0 -19.55 -43.0 -17.55 -43.0 -15.85 -42.9 -15.55 -42.85 -15.25 -42.8 -15.0 -42.6 -14.7 -42.45 -14.4 -42.25 -14.15 -42.05 -13.85 -41.95 -13.55 -41.85 -13.3 -41.75 -13.0 -41.7 -12.7 -41.45 -12.45 -40.9 -11.9 -40.55 -11.6 -39.9 -11.3 -39.2 -11.2 -38.65 -11.4 -38.1 -11.65 -37.8 -11.95 -37.5 -12.25 -37.5 -12.5 -37.4 -12.8 -37.3 -13.1 -37.2 -13.4 -37.2 -13.65 -37.2 -13.95 -37.2 -14.25 -37.2 -14.5 -37.3 -14.8 -37.4 -15.1 -37.5 -15.35 -37.6 -15.65 -37.6 -15.95 -37.6 -16.2 -37.6 -16.5 -37.6 -16.8 -37.6 -17.05 -37.7 -17.35 -37.8 -17.65 -37.9 -17.9 -38.0 -18.2 -38.0 -19.65 -38.0 -21.35 -38.0 -22.75 -37.9 -23.05 -37.8 -23.3 -37.3 -23.5 -36.95 -23.4 -36.85 -23.3 -36.45 -22.3 -36.15 -20.85 -35.9 -19.7 -35.9 -18.0 -35.9 -16.3 -35.9 -14.9 -35.8 -14.6 -35.6 -14.05 -35.5 -13.75 -35.45 -13.45 -35.2 -13.2 -34.95 -12.9 -34.65 -12.6 -33.45 -12.55 -33.25 -12.6 -33.15 -12.8 -32.95 -13.1 -32.95 -13.4 -32.95 -13.65 -32.85 -13.95 -32.85 -15.65 -32.85 -17.35 -32.85 -18.75 -32.6 -19.05 -32.0 -18.95 -31.9 -18.7 -31.85 -18.4 -31.65 -18.1 -31.55 -17.85 -31.35 -17.55 -31.25 -17.25 -31.05 -16.95 -30.95 -16.7 -30.8 -16.4 -30.7 -16.1 -30.5 -15.85 -30.4 -15.55 -30.2 -15.25 -30.05 -15.0 -29.65 -14.7 -29.05 -14.8 -29.0 -15.0 -29.0 -15.25 -29.0 -15.55 -29.0 -15.85 -29.0 -16.1 -29.15 -16.4 -29.25 -16.7 -29.25 -16.95 -29.25 -17.25 -29.25 -17.55 -29.0 -17.85 -28.7 -17.55 -28.7 -17.25 -28.6 -16.95 -28.3 -16.7 -28.25 -16.4 -28.25 -15.55 -28.25 -14.7 -28.25 -14.15 -28.4 -13.85 -29.55 -13.85 -30.2 -14.15 -30.6 -14.4 -30.8 -14.7 -30.95 -15.0 -31.05 -15.25 -31.25 -15.55 -31.35 -15.85 -31.55 -16.1 -31.65 -16.4 -31.85 -16.6 -31.9 -16.5 -31.9 -15.65 -31.9 -14.8 -31.9 -14.25 -31.85 -13.95 -31.85 -13.65 -31.85 -13.4 -31.85 -13.1 -31.85 -12.8 -31.9 -12.5 -32.1 -12.25 -32.3 -11.95 -32.7 -11.7 -33.25 -11.4 -34.85 -11.4 -35.2 -11.7 -35.8 -12.25 -36.0 -12.45 -36.2 -12.15 -36.2 -11.85 -36.3 -11.6 -37.15 -10.75 Q-38.1 -10.0 -39.2 -9.7 L-39.85 -9.9 -41.3 -10.45 -41.65 -10.75 -42.5 -11.6 -42.9 -12.15 -43.0 -12.45 -43.1 -12.7 -43.2 -13.0 -43.4 -13.3 -43.6 -13.45 -43.65 -13.4 -43.75 -13.1 -43.95 -12.8 -44.05 -12.5 -44.25 -12.25 -44.35 -11.95 -44.5 -11.65 -44.6 -11.4 -44.8 -11.1 -44.9 -10.8 -45.1 -10.55 -45.2 -10.25 -45.35 -9.95 -45.45 -9.7 -45.85 -9.15 -46.4 -8.55 -46.7 -8.25 -47.15 -8.05 -47.55 -8.05 -48.0 -8.25 -48.2 -8.55 -48.4 -8.85 -48.5 -9.1 -48.7 -9.4 -48.8 -9.7 -48.95 -9.95 -49.05 -10.25 -49.25 -10.55 -49.35 -10.8 -49.45 -11.1 -49.45 -11.4 -49.45 -11.65 -49.45 -11.95 -49.45 -12.25 -49.45 -12.5 -49.75 -13.65 -49.95 -14.8 -50.1 -15.55 -50.2 -15.25 -50.3 -15.0 -50.4 -14.7 -50.5 -14.4 -50.7 -14.15 -50.95 -13.85 -51.25 -13.55 -51.7 -13.4 -52.85 -13.4 -53.2 -13.5 -53.3 -13.55 -53.45 -13.75 -53.6 -14.05 -53.8 -14.3 -53.9 -14.6 -53.95 -14.9 -54.0 -15.1 -54.2 -14.8 -54.55 -14.9 -54.45 -15.15 -54.35 -15.45 -54.25 -15.75 -54.2 -16.05 -54.05 -16.35 -54.0 -16.6 -54.0 -16.9 -54.0 -17.45 -54.0 -18.0 -54.0 -18.3 -53.9 -18.6 -53.7 -18.85 -53.25 -19.05 -52.85 -18.9 -52.65 -18.75 -52.5 -18.45 -52.45 -18.2 -52.45 -17.05 -52.45 -15.95 -52.45 -15.1 -52.0 -15.05 -51.9 -15.15 -51.5 -16.3 -51.15 -17.45 -50.95 -18.3 -50.95 -19.15 -50.95 -20.0 -50.95 -20.55 -50.85 -20.85 -50.65 -21.15 -50.2 -21.35 -49.85 -21.2 -49.65 -21.05 -49.45 -20.75 -49.4 -20.5 -49.35 -20.2 -49.15 -19.9 -49.05 -19.65 -49.05 -19.35 -49.05 -19.05 -49.05 -18.75 -49.05 -18.5 -49.05 -18.2 -48.75 -16.5 -48.35 -14.5 -47.95 -12.8 -47.95 -12.5 -47.95 -12.25 -47.95 -11.95 -47.95 -11.65 -47.95 -11.4 -47.85 -11.1 -47.65 -10.8 -47.55 -10.55 -47.35 -10.25 -47.2 -10.0 -47.05 -9.95 -46.9 -10.25 -46.8 -10.55 -46.6 -10.8 -46.5 -11.1 -46.3 -11.4 -46.2 -11.65 -46.05 -11.95 -45.95 -12.25 -45.75 -12.5 -45.65 -12.8 -45.45 -13.1 -45.35 -13.4 -45.2 -13.65 -45.1 -13.95 -44.9 -14.5 -44.7 -15.1 -44.5 -15.65 -44.5 -17.05 -44.5 -18.5 -44.5 -19.9 -44.6 -20.2 -44.65 -20.45 -44.7 -20.75 -44.8 -21.05 -44.8 -21.35 -44.8 -21.6 -44.8 -21.9 -44.8 -22.2 -44.85 -22.45 -44.9 -22.75 -44.8 -23.05 -44.8 -24.15 -44.8 -25.3 -44.8 -26.15 -44.7 -26.45 -44.6 -26.75 -44.15 -26.9" fill="#333333" fill-rule="evenodd" stroke="none"/>
    <path d="M-68.5 -9.85 L-68.0 -10.05 -67.65 -10.05 -67.6 -10.0 -67.25 -9.95 -66.75 -9.8 -66.5 -9.5 -66.4 -9.2 -66.2 -8.9 -66.1 -8.65 -65.9 -8.35 -65.85 -8.05 -65.75 -7.8 -65.75 -7.5 -65.75 -4.4 -65.75 -0.95 -65.75 2.15 -65.55 2.7 -65.35 3.3 -65.15 3.85 -64.95 4.45 -64.8 4.7 -64.4 5.0 -62.5 5.1 -62.05 4.9 -61.85 4.6 -61.45 4.05 -61.1 3.5 -60.7 2.9 -60.6 2.65 -60.45 2.35 -60.35 2.05 -60.05 0.9 -59.85 0.05 -59.6 -0.8 -59.6 -1.35 -59.6 -2.75 -59.55 -4.2 -59.6 -5.35 -59.5 -5.6 -59.4 -5.9 -59.3 -6.45 -59.25 -6.75 -59.2 -7.05 -59.2 -7.3 -59.2 -7.6 -59.1 -7.9 -59.0 -8.15 -58.55 -8.35 -58.15 -8.2 -57.95 -8.05 -57.85 -7.8 -57.85 -4.65 -57.85 -1.8 -57.85 0.45 -57.8 0.75 -57.7 1.0 -57.6 1.3 -57.2 1.85 -56.85 2.45 -56.65 2.7 -56.35 3.0 -55.9 3.3 -55.3 3.6 -54.75 3.65 -54.35 3.5 -54.1 3.2 -53.8 2.9 -53.6 2.65 -53.5 2.35 -53.25 1.5 -52.95 0.65 -52.75 0.05 -52.75 -0.2 -52.75 -0.8 -52.75 -1.35 -52.75 -1.65 -52.75 -1.9 -52.65 -2.2 -52.55 -2.5 -52.1 -2.65 -51.7 -2.55 -51.6 -2.5 -51.5 -2.25 -51.4 -2.0 -51.25 -1.75 -51.1 -1.45 -51.05 -1.15 -51.05 -0.6 -51.05 0.0 -51.05 0.55 -51.05 1.1 -50.95 1.4 -50.75 1.7 -50.65 1.95 -50.65 2.25 -50.65 2.55 -50.5 2.8 -50.0 2.85 -49.8 2.7 -49.55 2.45 -49.35 2.15 -49.3 1.9 -49.25 1.6 -49.25 1.3 -49.25 1.0 -49.15 0.75 -48.7 0.45 -48.2 0.75 -48.15 1.0 -48.1 1.3 -48.0 1.6 -48.0 1.85 -48.0 2.15 -48.0 2.45 -48.0 2.7 -48.25 3.0 -48.8 3.6 -49.05 3.85 -49.35 4.15 -49.8 4.35 -50.6 4.35 -50.95 4.2 -51.05 4.15 -51.25 3.95 -51.55 3.65 -51.8 3.4 -51.9 3.1 -52.0 2.8 -52.0 2.55 -52.0 2.45 -52.1 2.65 -52.3 2.9 -52.4 3.2 -52.6 3.45 -53.05 4.05 -53.3 4.35 -53.6 4.6 -54.2 4.9 -54.75 5.1 -55.1 5.1 -55.5 5.0 -56.05 4.7 -56.65 4.4 -57.1 4.15 -57.4 3.85 -57.95 3.25 -58.35 2.75 -58.7 2.25 -58.9 2.55 -59.0 2.8 -59.1 3.1 -59.2 3.4 -59.95 4.5 -60.5 5.4 -61.2 6.25 -62.05 6.5 -62.7 6.7 -64.2 6.7 -64.6 6.6 -65.15 6.3 -66.1 5.45 -66.5 4.9 -66.7 4.35 -66.85 3.75 -67.05 3.2 -67.25 2.65 -67.25 2.35 -67.25 -1.05 -67.25 -4.45 -67.25 -7.6 -67.45 -7.8 -67.7 -7.9 -68.0 -7.6 -68.2 -7.3 -68.3 -7.05 -68.4 -6.75 -68.5 -6.45 -68.55 -6.2 -68.65 -5.9 -68.85 -5.6 -69.25 -5.35 -69.6 -5.05 -69.8 -4.75 -69.9 -4.45 -70.0 -4.2 -70.3 -3.9 -70.65 -3.6 -70.75 -3.35 -70.9 -3.1 -71.15 -3.05 -71.1 -3.35 -71.05 -3.6 -71.05 -3.9 -71.2 -4.2 -71.2 -4.45 -71.15 -4.75 -71.05 -5.05 -71.0 -5.3 -70.95 -5.6 -70.85 -5.9 -70.55 -6.2 -70.3 -6.45 -70.2 -6.75 -70.1 -7.05 -70.0 -7.3 -69.9 -7.6 -69.8 -7.9 -69.6 -8.15 -69.5 -8.45 -69.3 -8.75 -68.85 -9.3 -68.65 -9.6 -68.5 -9.85" fill="#333333" fill-rule="evenodd" stroke="none"/>
  </g>
</svg>
