<?xml version="1.0" encoding="UTF-8" standalone="no"?>
<svg xmlns:xlink="http://www.w3.org/1999/xlink" height="137.9px" width="165.5px" xmlns="http://www.w3.org/2000/svg">
  <g transform="matrix(1.0, 0.0, 0.0, 1.0, 85.4, 69.4)">
    <path d="M16.5 -61.25 Q19.65 -59.4 23.0 -59.4 23.8 -59.4 23.9 -59.95 L29.85 -60.55 Q43.6 -60.55 51.0 -51.85 L53.3 -48.4 Q55.4 -47.75 58.05 -45.6 65.75 -39.45 65.75 -33.05 L65.7 -29.95 65.95 -29.7 Q74.0 -20.95 74.0 -19.5 L74.0 -19.25 76.25 -15.15 Q78.5 -10.5 80.0 -5.75 80.0 -3.65 78.85 -0.7 79.55 0.9 79.55 2.5 79.55 6.2 78.85 7.55 L74.5 14.75 Q75.65 16.5 76.4 19.35 77.0 21.65 77.0 23.0 77.0 30.9 73.4 35.45 67.55 42.85 51.5 45.3 51.5 51.05 47.1 56.0 41.15 62.65 29.85 62.65 22.75 62.65 21.8 61.9 20.85 61.15 19.5 61.15 16.6 62.8 12.95 64.5 5.6 67.8 1.25 67.8 -11.05 67.8 -17.65 64.85 -20.9 63.4 -22.3 61.9 -23.35 61.9 -24.35 62.5 L-26.65 63.75 Q-30.7 65.6 -39.6 65.6 -47.65 65.6 -61.7 55.7 -75.25 46.15 -75.25 41.9 -75.25 39.5 -74.3 35.9 -73.15 31.55 -71.75 31.1 -77.6 29.35 -81.7 24.95 -85.4 21.0 -85.4 17.8 -85.4 14.7 -84.7 10.25 -83.6 3.35 -81.5 1.35 -84.05 -0.4 -84.6 -3.35 -84.8 -4.35 -84.8 -8.55 -84.8 -14.0 -84.25 -16.25 -82.6 -23.1 -76.9 -23.1 L-73.9 -22.6 -73.15 -21.75 Q-72.5 -22.55 -70.9 -26.35 L-67.6 -33.2 Q-62.5 -42.15 -55.4 -42.15 -53.0 -42.15 -50.7 -41.3 L-48.25 -40.1 -47.5 -43.55 Q-46.55 -47.2 -45.1 -50.1 -40.6 -59.4 -32.65 -59.4 L-27.45 -59.15 -25.5 -57.75 Q-24.55 -59.55 -18.55 -63.25 -13.1 -66.6 -7.6 -69.1 3.25 -70.5 10.95 -65.2 14.65 -62.35 16.5 -61.25 M48.9 -36.0 L47.2 -36.5 45.25 -36.75 Q45.3 -36.5 46.85 -35.6 L47.8 -35.7 48.9 -36.0 M65.2 -23.25 L64.1 -24.95 61.5 -19.9 65.0 -20.05 64.95 -22.7 65.2 -23.25 M67.2 -4.25 L67.25 -4.15 67.3 -4.2 67.2 -4.25" fill="#ffffff" fill-rule="evenodd" stroke="none"/>
    <path d="M52.0 -50.1 Q66.15 -45.3 66.15 -31.9 L66.1 -30.3 65.8 -29.5 66.0 -27.75 Q65.9 -26.65 65.0 -26.65 64.15 -26.65 63.75 -27.65 L63.55 -28.55 Q63.55 -29.85 64.25 -30.2 L63.4 -34.5 Q62.05 -40.5 60.65 -42.4 57.7 -46.45 52.35 -48.5 47.85 -50.15 40.1 -51.05 39.8 -49.5 38.9 -48.85 L38.5 -49.15 38.8 -49.7 39.1 -50.4 39.1 -51.15 37.9 -51.3 37.9 -51.25 37.85 -51.7 Q37.85 -51.95 38.95 -52.0 38.6 -54.1 37.35 -56.55 34.65 -61.8 29.6 -61.8 27.15 -61.8 23.65 -60.75 21.0 -59.95 19.5 -59.15 L19.0 -59.5 19.2 -59.65 19.1 -59.65 14.85 -63.45 Q9.5 -67.25 3.6 -67.25 -5.25 -67.25 -12.0 -62.55 -17.45 -57.6 -18.5 -57.05 L-18.95 -57.15 -19.05 -57.3 -19.1 -57.3 Q-20.65 -57.3 -22.7 -57.95 -25.85 -58.9 -26.55 -60.75 L-26.3 -60.85 -28.6 -61.4 Q-30.2 -61.6 -32.65 -61.4 -46.1 -61.4 -50.6 -53.0 -52.9 -48.75 -52.5 -44.05 L-52.25 -43.5 -51.9 -43.15 -52.0 -43.0 Q-52.95 -43.75 -53.5 -45.6 -53.9 -46.95 -53.9 -48.05 -53.9 -59.9 -38.7 -62.3 -33.25 -63.15 -28.25 -62.35 -24.8 -61.75 -23.85 -60.85 L-22.25 -60.35 Q-20.1 -59.55 -19.05 -58.7 -18.4 -62.2 -13.05 -64.9 -7.55 -67.65 0.35 -68.4 8.25 -69.2 13.7 -67.45 19.8 -65.55 19.8 -61.25 L19.45 -59.8 Q27.8 -65.65 34.55 -61.25 37.1 -59.65 38.8 -56.9 40.25 -54.55 40.25 -52.8 L40.25 -52.0 42.25 -51.95 Q47.4 -51.65 52.0 -50.1 M80.1 -7.3 Q80.1 -2.75 76.95 2.85 73.4 9.05 68.5 11.25 69.95 8.05 75.4 -1.0 78.05 -5.45 78.05 -10.8 78.05 -14.9 75.05 -18.45 72.2 -21.8 65.25 -26.3 68.25 -26.7 72.5 -23.45 75.9 -20.85 77.85 -18.0 79.3 -16.15 79.8 -12.75 L80.1 -7.3 M75.05 7.3 L76.0 7.3 Q76.6 12.2 76.6 14.8 76.6 16.7 72.05 20.5 66.95 24.85 62.4 24.85 L60.1 24.75 Q59.9 25.1 59.9 24.5 59.9 24.15 67.4 20.9 74.9 16.4 74.9 9.5 L75.05 7.3 M72.45 36.25 Q70.7 39.7 68.3 42.85 61.35 51.85 54.15 51.85 L51.85 51.5 51.5 51.35 48.95 55.05 Q41.55 64.6 30.0 64.6 23.55 64.6 19.0 63.15 L15.65 61.75 14.75 62.15 Q12.4 63.05 8.9 63.05 L3.85 62.75 1.35 64.5 Q-3.8 67.55 -10.15 67.55 -18.9 67.55 -24.3 64.25 L-27.25 62.0 -28.95 63.2 -36.55 63.9 Q-45.1 63.9 -52.5 59.65 -57.7 56.7 -58.8 54.25 -61.45 56.05 -64.65 56.05 -69.8 56.05 -73.25 51.4 -75.8 48.05 -75.8 46.15 L-75.8 41.35 Q-75.45 37.15 -73.8 37.0 L-73.65 37.1 -73.55 37.5 Q-73.55 37.85 -73.8 37.9 L-74.1 38.3 -74.2 41.1 Q-74.15 44.0 -73.65 46.35 -72.05 53.6 -66.05 53.6 -62.2 53.6 -58.9 51.85 L-55.8 49.75 -55.5 49.85 -55.45 49.8 -55.4 50.25 Q-55.4 51.15 -57.0 52.7 L-55.85 53.7 -51.0 58.25 Q-43.75 60.4 -42.3 61.55 L-28.65 61.65 -27.45 61.8 Q-28.55 60.5 -28.55 59.3 -28.55 57.25 -27.65 57.3 -26.75 57.3 -26.75 58.8 -26.75 61.1 -21.6 63.25 -16.55 65.35 -11.55 65.35 -5.1 65.35 0.05 63.0 L1.65 62.2 1.6 62.2 Q-0.6 61.5 -0.6 60.3 -0.6 59.0 1.7 59.75 L4.15 60.5 Q5.5 59.35 6.25 58.0 L6.35 58.0 Q6.35 59.45 5.55 60.8 L14.6 60.05 Q16.8 59.3 17.4 59.3 L17.05 59.75 16.85 60.35 16.85 60.5 Q17.8 60.5 20.45 61.5 24.05 62.5 29.8 62.5 38.35 62.5 44.7 55.75 L49.7 49.7 Q52.75 45.95 55.0 44.05 53.8 47.25 52.2 50.15 56.85 48.05 61.55 44.85 72.0 37.6 72.0 30.35 L71.45 27.3 Q70.75 24.65 70.0 24.05 72.05 21.8 73.2 26.5 74.0 29.65 74.0 32.4 74.0 33.3 72.45 36.25 M-52.5 -42.5 Q-65.05 -39.2 -67.75 -33.5 -68.75 -31.45 -68.75 -28.6 L-68.5 -23.85 -68.9 -23.5 Q-70.5 -24.95 -70.5 -29.0 -70.5 -33.4 -67.0 -37.3 -62.15 -42.8 -52.6 -42.8 L-52.5 -42.5 M-71.05 -28.35 Q-71.05 -28.05 -75.2 -24.4 -79.35 -19.95 -79.35 -15.8 -79.35 -13.4 -77.25 -10.55 L-76.35 -9.45 Q-74.05 -11.1 -71.0 -12.05 -70.85 -12.05 -70.85 -11.45 -70.85 -10.95 -76.1 -6.0 -81.4 0.0 -81.4 5.8 -81.4 8.85 -80.75 10.25 -79.8 12.35 -76.3 15.25 L-76.4 15.6 -77.0 15.85 Q-80.85 15.85 -82.45 10.9 -83.2 8.45 -83.25 5.8 -83.25 -2.95 -78.45 -7.7 -80.0 -8.75 -80.8 -11.3 -81.5 -13.45 -81.5 -15.75 -81.5 -20.1 -79.75 -23.25 -77.2 -27.85 -71.25 -29.0 -71.05 -29.0 -71.05 -28.35 M-80.9 20.7 L-81.4 23.45 Q-81.4 33.1 -71.25 35.15 L-64.25 35.9 Q-61.1 36.1 -61.1 36.8 -61.1 37.1 -62.3 37.7 -63.45 38.3 -63.8 38.3 -74.7 38.3 -79.85 33.0 -83.3 29.35 -83.3 24.8 -83.3 22.3 -82.45 19.45 -81.15 15.05 -78.8 17.55 -80.15 18.0 -80.9 20.7" fill="#333333" fill-rule="evenodd" stroke="none"/>
    <path d="M10.05 -37.75 Q16.1 -39.45 17.75 -39.45 24.6 -39.45 39.35 -29.15 52.85 -19.75 58.7 -12.45 60.1 -10.7 60.1 -5.6 60.05 -0.65 62.1 1.65 L68.8 9.2 Q69.7 10.55 69.7 15.25 69.7 17.95 67.85 24.1 65.5 31.95 61.75 38.6 50.75 58.1 33.3 58.1 23.95 58.1 18.7 56.3 15.2 54.45 14.55 54.45 L7.05 57.7 Q-1.05 60.9 -4.8 60.9 -14.7 60.9 -18.4 57.25 -19.55 56.15 -20.25 54.5 -20.9 52.9 -21.1 52.75 L-25.7 53.55 -30.95 54.0 Q-47.4 54.0 -53.4 44.1 -57.9 36.6 -57.7 19.5 -61.55 17.4 -62.65 15.65 -63.3 14.55 -63.3 12.25 -63.3 10.5 -61.8 7.1 -65.65 5.0 -65.65 3.9 -66.1 -5.4 -62.6 -13.6 -55.75 -29.8 -35.95 -29.8 L-28.6 -29.25 Q-28.45 -28.45 -27.75 -28.1 -20.3 -44.1 -10.1 -41.8 -7.5 -41.2 -2.3 -38.45 2.2 -36.05 4.15 -36.05 L10.05 -37.75" fill="#d1d0a5" fill-opacity="0.3019608" fill-rule="evenodd" stroke="none"/>
    <path d="M31.0 -0.45 L31.4 -0.25 34.0 0.0 34.0 -0.45 31.0 -0.45 M48.05 -6.15 Q55.25 -2.4 60.35 8.5 62.95 14.0 64.1 19.0 64.1 24.35 61.4 29.3 57.85 35.8 49.0 43.1 46.6 45.05 43.9 49.35 40.65 54.55 39.2 56.2 32.35 64.0 17.25 64.0 L0.0 65.3 -1.65 66.9 Q-3.35 68.5 -5.25 68.5 -8.45 68.5 -13.85 64.1 -17.05 61.55 -19.5 58.85 -20.5 59.6 -22.15 60.15 L-25.3 60.75 Q-27.9 60.75 -40.85 52.05 -54.25 43.05 -54.25 40.1 -54.25 38.75 -53.0 35.85 L-51.8 32.4 Q-51.8 31.75 -54.45 27.2 -57.15 22.65 -57.15 19.95 L-57.0 15.1 Q-56.15 11.9 -52.2 11.9 -49.85 11.9 -47.9 13.8 L-45.9 16.0 Q-45.65 14.5 -44.45 13.25 -42.95 11.7 -40.85 11.7 -39.4 11.7 -37.8 12.55 -36.25 13.4 -35.25 14.7 -32.65 11.45 -29.95 8.75 -24.75 3.55 -21.15 3.55 -18.15 3.55 -7.1 9.8 -4.6 8.3 -0.35 3.7 3.8 -0.75 7.35 -2.8 19.35 -9.7 48.05 -6.15 M48.65 3.0 Q49.45 4.75 49.0 8.7 L49.95 8.4 Q50.15 8.1 50.15 6.8 50.15 5.4 49.75 4.3 49.35 3.2 48.65 2.8 L48.65 3.0 M41.9 1.4 L43.5 0.75 Q41.6 0.75 41.05 1.65 L41.9 1.4 M55.95 19.85 Q56.4 23.4 55.85 26.6 L55.85 31.2 55.95 31.4 Q57.3 29.15 57.3 25.2 57.3 21.25 55.95 19.65 L55.95 19.85 M-45.55 39.55 L-44.0 41.25 Q-42.9 42.2 -41.25 42.9 L-39.75 43.1 -42.1 41.2 Q-44.25 39.7 -45.55 39.55" fill="#d1d0a5" fill-opacity="0.3019608" fill-rule="evenodd" stroke="none"/>
    <path d="M13.5 -1.75 Q12.8 1.15 12.8 2.05 12.8 2.35 14.9 5.1 16.95 8.45 16.95 11.7 L16.95 12.25 19.65 12.05 Q19.55 10.8 19.9 8.65 L20.25 5.5 Q20.25 2.8 17.95 -0.75 L14.15 -6.0 14.15 -5.8 13.5 -1.75 M19.65 -10.8 Q26.6 -6.45 26.6 5.3 L25.85 10.55 Q25.1 14.9 25.1 15.8 L27.35 22.95 Q27.35 28.2 19.95 37.0 12.05 46.4 4.3 48.65 L4.1 48.8 15.65 49.95 Q16.2 49.95 23.25 41.85 30.35 33.75 32.5 33.75 38.85 33.75 37.2 41.6 L37.2 42.35 Q42.4 39.2 45.85 36.05 L49.95 31.85 Q51.7 30.1 53.6 29.5 55.9 28.75 60.75 28.75 L63.1 27.7 Q65.4 26.6 66.65 26.6 69.95 26.6 71.15 29.5 71.75 30.95 71.7 32.6 71.7 37.15 65.2 42.5 57.85 48.6 48.45 49.2 47.6 49.25 35.7 57.55 24.0 65.7 18.9 65.7 -22.4 65.7 -37.5 56.05 -46.75 50.15 -46.75 38.6 -46.75 31.9 -46.55 31.05 -45.55 26.05 -40.85 26.05 -39.6 26.05 -36.55 27.5 L-33.05 29.15 Q-27.0 13.7 -16.6 2.6 -7.1 -7.45 3.15 -11.2 13.2 -14.8 19.65 -10.8 M6.9 14.3 L6.75 14.5 4.3 18.15 1.65 21.9 Q4.2 20.8 5.7 18.4 7.05 16.25 6.9 14.3 M-23.4 37.65 L-23.25 37.85 -21.5 39.55 Q-20.5 40.6 -19.65 40.65 L-20.45 38.95 Q-21.05 37.9 -23.4 37.65 M-12.05 47.15 Q-11.5 47.7 -10.65 47.9 L-6.35 48.25 -10.05 47.4 -12.05 47.15" fill="#d1d0a5" fill-opacity="0.3019608" fill-rule="evenodd" stroke="none"/>
    <path d="M23.55 -27.5 L22.4 -24.45 Q21.2 -21.25 21.2 -18.3 21.2 -17.85 21.5 -17.6 L22.2 -16.45 22.15 -16.15 Q22.05 -16.0 21.75 -16.0 20.25 -16.0 19.9 -18.4 19.75 -19.6 19.85 -20.85 19.85 -23.65 20.45 -25.55 21.4 -28.3 23.45 -27.8 L23.55 -27.5 M16.65 -22.2 L16.95 -21.2 Q16.95 -19.5 17.95 -13.4 L18.25 -11.7 18.25 -12.0 18.55 -12.0 18.6 -11.75 18.75 -11.8 18.65 -11.55 19.0 -9.75 18.8 -8.35 18.9 -7.85 Q19.7 -6.1 21.25 -6.1 L22.65 -6.25 23.05 -8.65 21.6 -10.9 Q19.8 -13.9 19.8 -14.2 L20.0 -15.95 20.25 -15.95 Q21.0 -13.45 23.45 -9.15 L23.5 -9.25 23.85 -8.4 24.45 -7.4 24.15 -7.15 24.0 -7.3 Q23.85 -5.25 22.0 -5.25 19.9 -5.25 18.6 -7.1 L18.4 -5.25 18.0 -5.0 Q17.6 -5.5 17.55 -6.35 L17.5 -7.8 17.55 -8.15 Q16.9 -9.45 16.45 -12.55 L16.0 -17.95 15.75 -19.8 Q15.7 -21.75 16.65 -22.2 M12.25 -13.1 L12.35 -9.65 13.8 -5.0 13.5 -4.6 Q11.6 -7.95 11.3 -9.05 11.15 -9.7 11.15 -12.75 11.15 -16.4 11.45 -17.8 11.95 -20.3 13.8 -22.4 L12.35 -17.3 12.25 -13.1 M6.75 -3.4 L6.45 -1.9 Q6.15 -0.7 6.15 0.35 L5.8 0.55 Q5.4 0.1 5.4 -1.8 L5.45 -3.05 Q5.6 -3.65 6.45 -4.3 L6.75 -3.4 M33.8 -18.4 L33.35 -18.3 Q32.6 -18.3 32.0 -19.7 31.5 -20.8 31.5 -21.2 31.5 -22.2 31.95 -22.5 32.65 -21.7 33.8 -18.4 M32.7 -5.65 Q33.1 -4.8 34.15 1.8 34.4 1.95 33.9 1.95 33.15 1.95 32.65 0.5 32.25 -0.6 32.25 -1.3 32.25 -6.65 32.7 -5.65 M42.75 7.35 Q43.5 8.2 44.7 10.9 46.25 13.25 49.5 13.25 L49.85 13.3 50.0 13.75 Q50.0 14.5 49.65 14.85 49.15 15.3 47.85 15.3 45.1 15.3 43.85 12.3 L42.5 7.5 Q42.6 7.35 42.75 7.35 M49.75 22.15 Q50.1 24.25 49.4 28.65 49.3 32.55 52.6 34.85 52.3 35.3 51.75 35.3 49.2 35.3 48.5 31.8 L48.35 28.3 48.45 24.6 Q48.75 22.1 49.75 22.15 M53.75 25.15 L54.25 26.3 Q54.25 28.4 54.75 29.25 55.8 31.0 56.6 33.55 L57.45 31.25 Q57.9 29.55 58.75 29.55 59.65 29.55 60.1 32.0 L59.15 32.6 Q59.15 33.55 58.5 34.75 57.7 36.1 56.75 36.1 55.3 36.1 53.9 32.7 L52.85 29.25 Q52.85 28.45 53.15 27.15 53.4 25.9 53.75 25.15 M45.7 48.8 Q46.65 50.75 46.75 51.6 L46.7 51.95 46.25 52.1 Q45.2 52.1 44.0 49.55 L43.0 47.0 Q43.0 44.75 43.9 44.55 44.75 44.4 44.75 46.0 44.75 46.95 45.7 48.8 M24.25 1.9 Q23.0 3.0 22.65 4.4 22.4 5.2 22.4 6.8 22.4 7.45 22.9 8.25 21.95 8.3 21.65 7.1 21.5 6.55 21.5 5.3 21.5 4.2 21.95 3.4 22.3 2.75 23.5 1.6 L24.25 1.9 M27.0 17.4 Q24.6 19.45 23.8 22.55 23.3 24.45 23.3 27.85 23.3 31.55 25.05 35.5 L26.8 39.3 27.35 39.95 28.3 40.8 Q24.65 39.7 22.85 35.15 21.55 31.9 21.55 28.45 21.55 24.15 22.25 21.95 23.45 18.05 27.0 17.4 M37.35 23.4 L37.4 23.8 36.8 25.1 Q36.15 26.45 36.15 27.5 36.15 28.5 37.1 33.55 37.1 33.9 37.4 34.2 L37.75 34.8 Q37.75 35.0 37.25 35.05 L35.6 32.55 Q34.75 31.1 34.75 29.9 L34.95 25.7 Q35.5 22.25 37.25 23.4 L37.35 23.4 M30.9 24.5 L30.35 26.45 Q30.35 28.9 31.95 31.65 L33.5 34.2 33.45 34.6 32.95 34.8 Q31.15 34.8 29.75 31.7 28.7 29.35 28.7 28.4 28.7 25.45 29.8 23.2 30.9 20.95 30.9 24.5 M18.05 1.85 Q18.05 7.4 19.9 9.9 L19.5 10.15 17.4 6.95 Q17.25 6.6 17.25 4.55 17.25 1.4 18.55 -0.85 L18.8 0.0 18.45 0.95 18.05 1.85 M4.25 2.3 L3.8 2.45 Q3.0 2.45 2.65 1.15 L2.3 -0.5 Q3.45 -0.8 3.75 0.15 L4.3 2.15 4.25 2.3 M0.75 9.65 Q2.7 9.55 3.6 13.0 L4.9 18.8 4.85 19.05 4.5 19.15 Q2.75 19.15 0.65 10.8 L0.75 9.65 M9.0 14.9 Q9.0 15.95 9.8 17.45 L10.55 19.2 10.5 19.85 9.75 20.1 Q7.9 20.1 7.2 17.55 L6.9 14.95 Q6.9 12.8 8.65 11.0 10.4 9.15 10.4 11.3 L9.7 12.6 Q9.0 13.95 9.0 14.9 M18.05 33.85 Q19.65 36.75 19.65 37.3 L19.25 37.5 Q18.2 37.15 16.45 34.3 14.75 31.5 14.75 30.4 L14.75 29.15 15.85 29.2 17.25 30.25 16.25 30.85 18.05 33.85 M5.9 30.25 Q6.45 28.85 7.4 33.85 L8.0 37.9 Q8.4 40.45 8.9 42.1 L8.85 42.4 8.5 42.5 Q6.85 42.5 6.05 38.25 L5.5 33.95 Q5.5 31.25 5.9 30.25 M2.4 45.5 Q2.4 44.0 4.1 47.2 L6.8 52.6 Q6.75 52.8 6.25 52.85 L2.75 48.8 Q2.4 48.25 2.4 45.5 M9.05 47.55 Q9.05 45.8 10.55 44.05 12.0 42.25 12.0 44.6 L11.2 46.35 Q10.45 48.55 10.75 51.1 11.05 51.3 10.4 51.3 9.45 51.3 9.15 49.45 L9.05 47.55 M15.5 45.85 Q16.3 47.05 16.45 51.2 16.55 54.75 18.8 56.65 L18.15 57.35 Q17.7 57.75 17.5 57.75 16.05 57.75 15.05 55.0 L14.4 52.2 14.4 49.35 Q14.55 46.5 15.5 45.85 M25.85 32.15 Q25.85 32.65 26.25 33.0 L25.8 33.2 Q24.75 32.7 24.75 30.5 L25.45 25.85 Q25.9 23.0 25.05 21.15 26.35 18.8 26.35 27.2 L25.85 32.15 M24.4 48.55 L24.5 52.0 Q24.5 55.15 26.0 56.55 L27.5 58.3 27.05 59.0 26.0 59.3 Q23.95 59.3 23.0 56.1 L22.4 52.8 Q22.4 50.35 22.75 46.4 24.3 46.5 24.4 48.55 M32.9 44.9 Q33.25 50.3 35.7 54.25 L38.0 58.05 37.85 58.6 Q37.85 58.8 37.25 58.8 34.05 58.8 32.1 53.4 L30.8 47.9 Q30.8 43.85 31.25 41.25 31.9 37.8 32.9 44.9 M37.4 42.55 Q38.25 41.25 38.25 44.9 38.25 47.45 40.85 55.55 40.85 56.4 40.0 56.4 38.35 56.4 37.25 52.0 L36.5 47.55 Q36.5 43.8 37.4 42.55 M0.5 58.85 L0.4 58.85 0.4 59.05 0.0 59.1 Q-1.5 59.1 -1.95 56.25 L-2.15 53.35 -1.95 49.25 -1.5 45.1 Q0.1 47.15 0.45 52.75 0.65 55.6 0.5 58.5 L0.5 58.85 M-43.85 -4.5 L-43.65 -4.5 -43.25 0.65 Q-43.0 3.9 -42.55 5.75 L-42.75 5.85 -43.95 2.35 -44.1 -0.55 -43.85 -4.5 M-13.5 -35.6 Q-12.6 -36.25 -12.6 -34.25 -13.0 -32.6 -13.35 -32.15 L-13.6 -32.05 -13.25 -34.0 -13.75 -34.4 Q-15.6 -31.4 -16.15 -27.8 -16.5 -25.75 -16.5 -21.4 L-16.4 -18.1 -15.0 -13.8 -15.2 -13.45 Q-15.35 -13.25 -15.75 -13.25 -17.7 -13.25 -18.25 -17.3 -18.5 -19.35 -18.4 -21.4 -18.4 -26.6 -15.5 -32.6 -14.35 -35.0 -13.5 -35.6 M-1.95 -25.3 L-2.25 -17.95 Q-2.25 -17.55 -1.65 -16.7 L-1.75 -16.55 Q-3.3 -18.9 -3.15 -26.25 -3.15 -32.35 -2.6 -32.5 -1.8 -29.7 -1.95 -25.3 M-37.9 -37.5 L-38.75 -33.2 -39.25 -30.15 Q-39.25 -25.4 -36.1 -25.15 L-36.95 -24.7 -38.25 -24.5 Q-39.65 -24.5 -40.35 -27.2 L-40.75 -29.95 Q-40.75 -30.8 -39.95 -34.05 -39.15 -37.35 -38.75 -37.9 L-37.9 -37.5 M-31.8 -29.5 Q-31.8 -30.95 -29.95 -33.4 -28.1 -35.85 -28.1 -33.0 L-28.85 -31.4 Q-29.65 -29.95 -29.65 -29.45 -29.65 -28.7 -29.1 -27.95 L-27.85 -26.4 Q-28.6 -25.9 -29.0 -25.9 -30.55 -25.9 -31.35 -27.65 L-31.8 -29.5 M-6.3 -21.75 Q-6.3 -21.5 -6.6 -21.3 -6.85 -21.15 -7.0 -21.15 L-7.8 -22.75 -8.4 -24.4 Q-8.4 -28.8 -7.8 -29.2 -7.0 -27.7 -6.6 -24.75 -6.3 -22.8 -6.3 -21.75 M-1.05 -5.6 Q-2.45 2.05 -2.45 3.0 L-2.15 5.6 -1.85 7.95 -1.9 8.35 Q-1.9 8.55 -2.4 8.55 -3.7 8.55 -3.95 5.8 L-3.95 3.05 Q-3.95 -0.75 -3.75 -1.8 -3.25 -4.7 -1.15 -6.05 L-1.05 -5.6 M-14.4 11.05 Q-15.3 11.35 -15.75 12.55 -16.1 13.45 -16.1 14.45 -16.1 17.7 -15.75 18.75 -15.25 20.2 -12.85 23.3 L-13.45 23.75 -14.0 24.0 Q-15.9 24.0 -17.1 20.85 -17.9 18.65 -17.9 17.4 -17.9 14.45 -17.6 13.25 -16.95 10.35 -14.75 10.3 L-14.4 11.05 M-6.75 13.9 L-6.15 14.4 Q-6.5 15.95 -7.25 16.7 -7.9 17.35 -7.9 17.9 L-7.85 19.3 -6.9 21.15 -7.0 21.3 -9.35 19.75 -9.5 18.05 -9.25 15.9 Q-8.75 14.8 -6.75 13.9 M-23.45 8.05 L-23.9 10.3 Q-23.9 15.5 -23.5 17.8 -22.7 22.6 -20.1 24.05 L-20.75 24.55 Q-21.0 24.9 -22.0 24.9 -24.15 24.9 -25.1 20.45 L-25.65 15.9 Q-25.65 5.5 -23.5 5.55 -23.2 5.65 -23.15 5.75 L-23.05 6.3 -23.45 8.05 M-32.1 21.6 Q-32.5 24.9 -30.85 29.75 L-27.8 38.1 -28.25 38.5 Q-29.85 37.75 -31.8 33.3 -33.6 29.15 -33.6 27.05 -34.25 25.15 -34.25 23.5 -34.3 20.15 -31.0 21.25 L-32.1 21.6 M-37.05 37.05 L-37.15 37.55 -37.25 37.7 -37.75 37.85 Q-39.55 37.85 -39.9 34.9 L-39.9 32.1 Q-38.15 22.15 -38.1 28.35 L-37.75 32.5 Q-37.6 35.2 -37.05 37.05 M-39.35 43.1 Q-39.9 43.65 -39.9 44.5 L-38.25 51.35 -36.15 59.05 -36.75 59.6 Q-38.75 57.5 -41.3 47.3 L-40.95 44.9 Q-40.5 43.05 -40.0 42.6 L-39.35 43.1 M-31.6 47.0 L-32.2 50.05 Q-32.8 52.3 -32.8 53.4 L-31.8 59.7 -32.0 60.85 Q-34.1 58.95 -34.5 57.2 L-34.65 53.4 Q-34.65 50.95 -33.1 48.05 -31.6 45.15 -31.6 47.0 M-4.1 31.45 L-4.25 29.15 -4.1 25.55 Q-3.75 23.6 -2.65 27.35 -2.65 31.5 -1.35 34.5 L-1.5 34.6 -4.1 31.45 M-14.0 38.05 L-13.5 39.5 -13.25 40.9 -13.85 44.45 Q-13.85 50.1 -13.45 52.15 L-10.85 61.6 -10.95 61.95 Q-11.1 62.15 -11.5 62.15 -13.45 62.15 -14.75 55.25 L-15.65 48.25 -16.3 42.65 Q-16.45 39.75 -14.0 38.05 M-4.1 41.8 L-4.75 41.25 -4.9 41.25 -4.75 42.05 -5.5 46.4 Q-5.5 51.35 -4.3 56.4 L-3.1 61.3 -3.15 61.65 -3.25 61.65 -3.3 61.85 -3.75 61.9 Q-5.5 61.9 -6.65 56.4 L-7.5 50.8 -7.25 43.8 Q-6.5 39.25 -3.9 41.6 L-4.1 41.8 M-49.15 0.5 Q-49.15 -6.4 -48.65 -7.05 -48.1 -3.7 -47.85 1.1 L-47.55 9.35 -47.85 9.6 -48.85 4.5 -49.15 0.5 M-47.4 35.0 L-47.75 39.0 Q-47.75 39.65 -47.15 40.5 L-47.35 41.0 -47.3 41.05 -47.75 41.1 Q-49.1 41.1 -49.35 38.25 L-49.35 35.3 Q-49.35 31.55 -48.2 29.45 -47.1 27.4 -47.1 30.8 L-47.4 35.0 M-51.65 39.65 L-51.55 40.05 -52.1 41.05 Q-52.1 46.2 -51.35 49.25 -50.2 54.1 -46.8 57.3 L-47.6 57.95 -48.25 58.25 Q-50.3 58.25 -52.15 52.95 L-53.65 47.6 -53.65 43.9 Q-53.45 40.35 -52.25 39.1 L-51.65 39.65 M-52.05 41.6 Q-51.85 41.2 -51.25 41.1 -50.7 41.7 -50.6 42.95 L-50.3 45.35 -50.5 45.5 Q-51.3 44.8 -51.55 43.55 -51.85 41.95 -52.05 41.6 M-23.9 51.5 Q-24.5 53.1 -25.4 53.45 -26.05 53.7 -26.05 54.1 L-25.6 55.25 Q-25.15 56.0 -25.15 56.35 L-24.85 56.7 Q-24.6 56.7 -24.6 57.0 L-24.85 57.15 -25.15 56.85 Q-25.35 56.65 -25.75 56.65 -27.15 56.65 -27.4 55.35 L-27.4 54.0 Q-27.4 52.6 -27.2 52.3 -26.75 51.55 -24.5 51.0 L-23.9 51.5" fill="#333333" fill-rule="evenodd" stroke="none"/>
  </g>
</svg>
