<?xml version="1.0" encoding="UTF-8" standalone="no"?>
<svg xmlns:xlink="http://www.w3.org/1999/xlink" height="29.8px" width="28.95px" xmlns="http://www.w3.org/2000/svg">
  <g transform="matrix(1.0, 0.0, 0.0, 1.0, 0.25, 0.25)">
    <path d="M2.65 3.85 L6.5 0.55 28.3 26.0 24.45 29.3 2.65 3.85" fill="#93c7b7" fill-rule="evenodd" stroke="none"/>
    <path d="M11.4 6.5 L10.1 5.15 8.85 3.65 7.95 2.35 6.5 0.55 Q5.25 1.2 4.75 1.75 L3.8 2.75 2.65 3.85 Q3.3 4.45 3.75 5.4 4.2 6.35 5.0 7.05 L6.5 8.45 7.9 9.85 8.95 11.55 Q9.35 12.55 10.4 13.25 L11.75 14.3 12.9 15.7 14.4 17.4 15.85 18.8 17.2 20.45 18.4 21.85 19.5 23.1 20.85 24.9 22.2 26.5 22.9 27.55 Q23.05 28.05 24.45 29.3 24.8 28.45 25.75 27.8 L27.05 26.9 28.3 26.0 27.1 24.55 25.75 23.0 24.15 21.3 22.7 19.55 21.6 18.2 20.5 16.95 19.25 15.5 17.95 13.9 16.45 12.35 15.1 10.8 13.95 9.35 12.75 8.0 11.4 6.5 Z" fill="none" stroke="#93c7b7" stroke-linecap="round" stroke-linejoin="round" stroke-width="0.5"/>
    <path d="M0.0 24.0 L24.9 0.0 28.45 3.7 3.5 27.7 0.0 24.0" fill="#93c7b7" fill-rule="evenodd" stroke="none"/>
    <path d="M24.9 0.0 Q23.8 0.75 23.25 1.45 L22.05 2.85 20.9 4.2 19.45 5.55 17.85 6.95 16.45 8.3 15.1 9.7 13.5 11.15 11.9 12.45 10.5 13.75 8.95 15.25 7.45 16.8 6.0 18.15 4.55 19.6 3.1 21.05 1.65 22.35 0.7 23.45 0.0 24.0 Q0.95 24.55 1.55 25.35 L2.7 26.45 Q3.25 26.8 3.5 27.7 4.65 27.15 5.0 26.3 5.35 25.5 6.1 24.85 L7.6 23.45 9.1 21.95 10.55 20.75 12.05 19.45 13.6 17.85 15.05 16.25 16.5 14.8 17.9 13.4 19.4 12.15 20.9 10.95 22.55 9.45 24.05 8.1 25.45 6.85 26.9 5.35 27.9 4.25 28.45 3.7 Q28.2 3.05 27.35 2.2 L26.1 0.85 Q25.7 0.4 24.9 0.0 Z" fill="none" stroke="#93c7b7" stroke-linecap="round" stroke-linejoin="round" stroke-width="0.5"/>
  </g>
</svg>
