<?xml version="1.0" encoding="UTF-8" standalone="no"?>
<svg xmlns:xlink="http://www.w3.org/1999/xlink" height="139.5px" width="164.95px" xmlns="http://www.w3.org/2000/svg">
  <g transform="matrix(1.0, 0.0, 0.0, 1.0, 85.3, 70.6)">
    <path d="M9.9 -69.65 Q12.5 -67.75 14.6 -66.85 18.45 -65.25 24.8 -65.25 37.45 -65.25 41.75 -58.05 43.8 -54.55 43.8 -48.0 58.0 -47.6 65.0 -41.85 70.15 -37.55 70.35 -31.65 70.5 -25.85 74.05 -21.05 77.55 -16.35 77.55 -12.1 77.55 -10.25 75.8 -6.0 73.8 -1.05 71.65 0.5 77.2 5.05 78.15 7.05 78.55 7.9 78.55 12.1 78.55 14.35 76.0 20.95 72.9 29.15 68.35 36.25 55.0 57.25 37.15 57.25 35.95 58.45 33.2 59.65 27.75 62.05 19.85 62.05 12.7 62.05 11.65 60.7 L10.95 59.75 8.5 59.35 Q7.85 59.35 7.25 60.75 6.4 62.7 5.45 63.75 1.4 68.15 -11.4 68.15 -21.65 68.15 -24.9 65.1 -25.75 64.3 -26.3 63.0 -26.65 62.05 -27.0 62.05 L-38.8 63.05 Q-60.95 63.05 -64.9 54.65 -65.85 52.7 -66.3 47.7 -66.7 43.6 -68.3 42.1 -77.55 33.15 -79.25 30.85 -82.25 26.7 -82.25 20.8 L-82.1 18.05 -79.4 14.1 -84.95 5.6 Q-85.3 4.8 -85.3 -0.8 -85.3 -3.35 -84.55 -4.5 L-82.9 -5.95 Q-80.55 -7.75 -80.55 -14.55 L-81.15 -18.05 Q-81.6 -20.4 -81.1 -21.8 -79.55 -26.2 -67.8 -27.55 L-67.2 -31.15 Q-66.8 -33.45 -65.7 -35.1 -62.65 -39.85 -52.05 -42.5 -51.65 -47.1 -47.7 -52.05 -41.75 -59.5 -31.4 -59.5 -29.65 -59.5 -27.15 -56.95 -24.65 -54.4 -24.35 -54.4 L-17.55 -59.75 Q-10.5 -65.35 -8.0 -66.4 0.3 -69.95 4.4 -70.5 7.6 -70.95 9.9 -69.65" fill="#ffffff" fill-rule="evenodd" stroke="none"/>
    <path d="M19.35 -61.95 L20.3 -62.5 Q23.3 -63.6 31.25 -63.3 36.5 -62.1 38.45 -59.7 39.75 -58.1 39.75 -55.25 L39.7 -53.05 39.6 -52.2 40.2 -52.2 44.55 -52.1 Q57.95 -48.85 62.65 -43.15 65.9 -39.15 65.9 -31.4 65.9 -28.9 65.25 -27.9 68.95 -27.75 71.9 -24.8 73.85 -22.8 76.3 -18.8 L79.35 -12.6 Q79.65 -11.55 79.65 -7.5 79.65 -5.1 77.0 0.7 73.45 8.4 68.8 8.4 L67.5 8.15 Q67.4 8.5 67.4 7.9 67.4 7.05 72.5 2.3 77.6 -3.5 77.6 -9.4 77.6 -13.65 74.0 -19.05 69.8 -25.4 63.85 -27.0 L63.75 -27.25 Q63.2 -27.35 63.05 -27.75 L63.0 -28.35 63.65 -34.15 Q63.65 -39.9 57.85 -45.1 51.05 -51.2 39.35 -51.35 L39.05 -50.75 Q39.35 -50.6 38.75 -50.6 37.9 -50.6 37.7 -51.35 L35.8 -51.3 37.65 -51.95 37.65 -52.35 37.75 -56.15 Q36.75 -61.75 24.25 -61.75 22.25 -61.75 20.55 -60.95 L18.85 -59.95 18.55 -59.65 18.5 -59.8 18.05 -59.6 17.55 -59.9 17.95 -60.5 Q16.5 -62.3 13.4 -63.55 8.95 -65.3 2.35 -65.3 -5.9 -65.3 -11.4 -63.0 -14.2 -61.85 -19.5 -58.1 L-19.85 -58.2 -20.0 -58.55 -20.15 -58.4 Q-20.4 -58.05 -20.85 -58.05 L-23.1 -58.5 Q-23.9 -58.65 -25.0 -59.2 L-25.8 -59.55 -28.35 -59.9 -29.4 -60.2 Q-30.0 -60.55 -30.65 -60.55 -43.45 -60.55 -49.1 -55.4 -52.6 -52.25 -52.6 -48.55 -52.6 -47.0 -51.8 -45.45 L-49.75 -42.25 -50.05 -41.8 -50.4 -41.55 -51.5 -41.75 -53.45 -41.6 Q-57.4 -41.5 -60.5 -40.0 -62.0 -39.25 -63.5 -37.6 L-65.3 -35.05 Q-68.0 -29.95 -67.35 -25.15 L-67.35 -25.05 -67.8 -25.0 Q-68.9 -25.0 -69.2 -27.2 L-69.25 -27.7 -69.4 -27.65 -70.3 -27.8 Q-75.2 -27.8 -77.35 -22.55 -78.4 -19.9 -78.5 -17.25 -78.5 -15.05 -78.05 -14.25 L-75.65 -11.35 Q-72.95 -12.7 -69.15 -13.05 -69.0 -13.05 -69.0 -12.4 -69.0 -11.5 -69.8 -11.35 -70.6 -11.15 -70.6 -11.5 -77.0 -9.85 -79.4 -4.15 -80.75 -0.9 -80.75 4.3 -80.75 8.8 -78.0 13.15 L-75.25 17.55 Q-75.25 18.2 -75.35 18.1 L-75.5 18.2 -76.0 18.3 Q-77.45 18.3 -78.6 17.6 L-80.05 20.0 Q-81.0 21.4 -81.0 21.75 -81.0 27.2 -80.1 28.9 -77.15 34.5 -66.25 34.5 L-65.15 34.25 -63.85 33.8 -63.65 34.0 Q-65.4 34.2 -66.0 35.25 -66.55 36.1 -70.6 36.1 L-74.35 35.7 -73.8 36.5 Q-73.85 36.9 -74.35 36.4 L-74.3 37.0 Q-74.3 39.35 -74.9 40.3 -75.5 41.3 -75.5 43.0 -75.5 46.25 -74.0 49.05 -71.4 53.9 -65.4 53.9 -60.8 53.9 -56.95 52.4 L-53.75 50.85 -53.2 51.0 -53.0 51.3 -53.0 51.55 Q-53.0 52.25 -54.35 53.2 L-54.15 53.45 -50.3 58.3 Q-44.65 60.5 -42.45 60.95 L-27.75 61.75 Q-28.35 60.8 -28.35 60.0 L-28.25 59.1 Q-27.3 59.05 -24.2 62.5 -20.0 66.0 -13.6 66.0 -6.65 66.0 -0.55 64.2 3.05 63.15 4.65 62.2 L1.05 61.25 1.0 61.0 Q1.0 60.8 1.9 60.5 2.9 60.15 3.85 60.15 L11.3 61.4 14.95 61.0 Q16.2 60.55 17.35 60.55 L18.45 60.2 17.55 59.65 17.6 59.5 20.05 59.75 22.7 60.75 Q24.95 61.75 26.25 61.75 33.8 61.75 40.1 57.75 43.45 55.6 45.65 52.9 L47.4 50.5 45.65 50.3 Q45.55 50.4 45.55 49.8 45.55 49.4 49.0 48.4 L50.55 46.35 Q53.5 42.6 53.5 45.25 53.5 45.9 52.8 47.25 L58.1 45.2 Q70.6 39.45 70.6 28.3 70.6 26.0 70.15 24.65 L69.7 22.85 Q66.35 26.65 63.1 26.65 61.55 26.3 61.25 26.0 69.15 20.65 71.75 17.3 74.25 14.0 74.25 9.15 L74.0 8.5 73.75 7.9 Q73.75 7.4 74.1 6.85 74.9 7.15 75.4 9.65 L75.75 13.0 Q73.15 18.5 70.6 21.8 L71.1 22.75 Q72.5 25.8 72.5 28.55 72.5 35.65 67.85 41.75 61.9 49.55 50.6 50.45 48.5 53.15 45.75 55.7 36.85 64.05 28.9 64.05 24.15 64.05 20.8 62.05 L18.5 60.25 16.55 61.95 Q14.35 63.35 11.4 63.35 L6.05 62.5 5.55 62.4 Q3.75 63.85 -0.7 65.8 -6.35 68.25 -10.05 68.25 -19.3 68.25 -24.6 64.6 L-26.6 63.0 -26.65 63.4 -35.05 64.1 Q-42.75 64.1 -49.6 61.15 -56.25 58.3 -56.25 55.3 L-56.2 54.25 -56.7 54.45 Q-60.5 56.3 -63.4 56.3 -72.65 56.3 -76.0 50.25 -77.6 47.4 -77.6 43.3 -77.6 42.3 -76.5 39.15 -75.55 36.35 -74.85 35.6 -78.45 34.6 -80.7 31.75 -83.0 28.9 -83.0 26.5 -83.0 22.0 -82.7 20.45 -81.85 16.65 -79.3 17.1 -81.15 15.45 -82.15 11.7 -83.1 8.2 -83.1 4.3 -83.1 -2.1 -81.35 -5.65 -79.95 -8.6 -77.35 -10.35 -79.1 -11.05 -80.0 -13.5 -80.65 -15.2 -80.75 -17.05 -80.75 -24.8 -74.9 -27.95 -72.85 -29.05 -70.9 -29.15 L-69.25 -28.9 -69.25 -29.4 Q-69.25 -37.9 -59.95 -41.85 -56.6 -43.25 -53.55 -43.4 L-53.25 -43.4 -54.0 -45.0 Q-54.65 -46.7 -54.8 -48.5 -54.8 -54.5 -49.85 -58.15 -45.7 -61.2 -38.95 -62.05 L-27.85 -61.75 -26.6 -61.45 -25.05 -61.35 -19.95 -59.0 Q-19.7 -62.25 -13.85 -64.5 -8.35 -66.6 -0.3 -67.05 7.65 -67.55 13.25 -66.1 18.7 -64.7 19.35 -61.95" fill="#333333" fill-rule="evenodd" stroke="none"/>
    <path d="M30.0 -26.95 Q30.2 -26.6 31.4 -26.6 32.3 -26.6 33.65 -27.35 34.95 -28.1 35.9 -28.1 45.1 -28.1 50.75 -20.6 54.9 -15.05 54.9 -10.75 54.9 -5.35 57.4 -2.85 59.05 -1.2 62.85 -0.25 67.1 0.85 68.25 1.6 70.75 3.25 70.75 7.1 70.75 10.8 68.85 18.85 66.3 29.5 62.0 38.45 49.3 64.95 27.25 64.95 24.55 64.95 22.95 62.75 21.75 61.05 21.9 59.8 20.95 60.2 19.75 61.25 L17.2 62.9 Q12.65 64.75 -1.5 64.75 -33.6 64.75 -52.0 38.45 -57.95 29.95 -61.65 19.8 -64.3 12.55 -64.3 10.2 -64.3 6.5 -63.35 4.8 L-61.2 2.6 Q-58.1 -0.2 -58.1 -9.8 -58.1 -11.95 -59.35 -16.45 -60.25 -19.8 -59.45 -21.15 -57.2 -24.9 -34.75 -24.9 L-29.35 -30.35 -24.0 -36.0 Q-12.85 -45.1 -8.1 -41.0 -7.2 -40.25 -5.1 -37.05 -3.6 -34.75 -2.25 -34.75 L1.7 -36.35 Q5.6 -37.95 10.1 -37.95 16.3 -37.95 22.2 -35.6 29.8 -32.6 30.05 -27.35 L30.0 -26.95 M14.3 -28.75 L14.4 -28.55 14.5 -29.8 Q12.4 -32.5 10.25 -34.0 6.0 -36.95 6.0 -31.2 7.25 -30.5 10.0 -29.9 L14.3 -28.75 M2.05 50.9 L2.25 50.3 -1.75 51.5 -4.85 52.0 Q-7.15 52.0 -9.2 50.7 L-11.9 48.75 Q-14.2 47.5 -17.3 55.2 L-16.05 55.9 -13.95 56.25 2.05 56.05 Q1.45 53.35 2.05 50.9 M-25.1 -17.5 Q-25.1 -16.95 -24.9 -16.75 -24.45 -16.75 -21.45 -17.7 -18.05 -18.75 -17.5 -19.5 L-17.5 -19.85 Q-19.5 -20.55 -21.95 -19.4 -23.3 -18.75 -25.1 -17.5 M-4.65 -23.8 L-2.25 -24.15 -3.65 -24.2 -4.65 -23.8 M-21.15 20.8 L-12.75 18.6 Q-6.7 16.85 -4.1 15.25 -14.75 18.2 -21.15 20.8 M-56.65 12.75 L-56.7 12.25 -56.7 12.45 -56.65 12.75 M-50.7 21.75 Q-47.2 21.75 -44.1 19.8 -40.9 17.8 -41.6 15.8 -53.0 16.7 -55.85 15.6 L-54.45 18.2 Q-52.25 21.75 -50.7 21.75 M-43.3 38.4 L-43.1 38.4 -43.25 37.15 Q-43.35 36.45 -44.6 35.4 L-44.6 35.5 -43.3 38.4" fill="#d1d0a5" fill-opacity="0.3019608" fill-rule="evenodd" stroke="none"/>
    <path d="M13.5 -11.05 L24.9 -12.65 Q44.6 -12.65 55.0 -0.95 58.6 3.1 60.55 8.0 62.05 11.75 62.05 14.05 62.05 16.05 60.5 22.6 58.4 31.4 55.2 38.8 45.45 61.5 29.9 61.5 26.2 61.5 24.4 60.3 22.65 59.05 21.75 59.05 L3.85 64.0 Q-14.65 68.9 -21.15 68.9 -36.6 68.9 -37.85 65.4 -38.25 64.3 -37.25 62.35 L-36.05 59.6 -35.7 59.05 -40.05 59.5 -42.35 59.8 Q-58.3 59.8 -71.7 38.9 -71.7 36.45 -70.75 35.25 -69.35 33.45 -65.5 33.45 -61.2 33.45 -57.65 35.5 -54.6 37.75 -53.7 38.05 L-55.6 32.15 Q-56.4 29.25 -56.4 26.6 -56.95 21.6 -55.6 17.7 -52.85 10.0 -43.1 12.25 -42.65 9.65 -38.75 3.8 -34.3 -2.85 -29.1 -7.55 -14.4 -20.95 -5.4 -8.6 L1.1 -8.6 Q3.2 -9.4 13.5 -11.05 M45.55 19.3 L45.55 19.1 Q44.75 19.55 42.5 21.4 L39.55 23.8 39.35 24.0 Q41.2 23.15 43.05 21.6 L45.55 19.3 M16.35 19.2 Q13.6 19.95 8.8 21.75 10.8 22.5 14.55 20.85 16.15 20.15 19.2 18.35 L16.35 19.2 M-16.5 22.3 L-15.65 21.75 Q-17.3 21.6 -17.95 21.75 L-19.2 22.3 -19.1 22.85 Q-17.3 22.85 -16.5 22.3 M-29.8 8.8 Q-30.65 10.35 -30.65 12.05 -29.3 10.2 -29.35 9.7 L-29.8 8.7 -29.8 8.8 M-36.45 47.3 L-37.0 49.75 -30.25 49.75 Q-31.05 49.5 -33.45 47.95 -35.1 46.95 -36.45 47.3 M-34.2 34.75 Q-31.7 34.95 -29.55 32.6 L-27.05 29.7 Q-30.75 29.6 -33.65 34.2 L-34.2 34.75 M-44.25 33.05 Q-43.8 32.4 -43.1 30.45 L-44.15 31.5 Q-44.9 32.35 -45.05 32.9 L-44.25 33.05 M-9.45 54.8 Q-11.05 53.25 -12.65 53.25 L-12.25 53.7 -12.05 55.2 Q-12.05 56.45 -12.55 57.3 L-13.75 58.85 -14.3 59.25 -11.05 58.5 Q-8.05 57.7 -7.3 57.15 L-9.45 54.8 M-25.25 50.5 Q-24.35 50.7 -16.95 50.5 L-21.15 50.3 -22.65 50.5 -25.25 50.5" fill="#d1d0a5" fill-opacity="0.3019608" fill-rule="evenodd" stroke="none"/>
    <path d="M52.2 16.75 Q58.1 16.75 60.0 23.0 61.0 26.1 60.75 29.4 60.75 30.5 59.65 34.55 L58.5 38.8 Q58.5 39.75 59.45 41.6 60.35 43.5 60.35 44.4 60.35 45.1 54.1 48.9 47.3 53.05 38.95 57.2 15.7 68.7 3.75 68.7 0.35 68.7 -1.0 67.65 L-2.4 65.9 Q-13.65 55.0 -16.9 54.15 -18.35 53.75 -19.0 55.0 -19.35 55.6 -19.9 58.2 -21.2 63.9 -24.85 65.6 -30.9 68.45 -45.05 63.8 -49.85 62.25 -51.5 60.9 -52.75 59.9 -52.75 58.3 -52.75 55.8 -51.75 54.85 -50.95 54.1 -48.2 53.35 -38.25 50.75 -29.7 46.0 -35.75 43.35 -37.05 41.1 -37.5 40.3 -37.5 36.8 -37.5 31.6 -33.65 28.85 -29.75 26.05 -15.45 21.0 L30.25 10.75 Q35.2 10.75 38.0 14.6 L39.6 17.25 Q40.3 18.45 40.65 18.45 L46.45 17.6 52.2 16.75 M26.3 22.5 L26.85 23.45 Q27.35 24.0 28.55 24.0 L29.95 23.85 30.65 23.25 31.0 22.65 Q30.45 21.55 30.45 21.15 L28.6 21.3 27.25 21.9 26.3 22.5 M-11.25 32.45 Q-14.3 33.15 -15.05 33.8 L-15.45 34.0 Q-10.4 33.8 -8.05 31.75 L-11.25 32.45" fill="#d1d0a5" fill-opacity="0.3019608" fill-rule="evenodd" stroke="none"/>
    <path d="M15.35 -18.0 L15.05 -18.3 Q14.75 -17.95 14.75 -17.35 14.75 -14.35 16.0 -9.4 L17.25 -5.0 Q17.25 -4.65 16.5 -4.0 15.75 -4.9 14.35 -9.65 13.05 -14.25 13.05 -15.55 13.05 -21.4 15.65 -18.0 15.55 -17.85 15.35 -18.0 M18.35 -17.3 Q18.6 -19.55 19.0 -19.8 21.9 -13.55 21.9 -5.55 21.65 -4.5 21.8 -4.0 L21.55 -3.85 Q21.0 -4.55 19.65 -8.65 18.15 -13.05 18.15 -14.65 L18.35 -17.3 M27.65 -5.85 L27.25 -5.5 Q26.05 -6.35 25.7 -7.05 25.4 -7.55 25.4 -8.6 L25.5 -9.75 26.0 -9.75 27.65 -5.85 M42.35 6.65 Q43.45 9.2 46.15 11.4 L46.15 11.75 45.75 11.9 Q43.9 11.9 42.0 9.15 40.5 6.9 40.5 6.15 L41.0 1.85 41.25 1.85 Q41.7 5.05 42.35 6.65 M51.1 15.95 L50.5 21.75 Q50.5 28.6 50.85 30.55 51.6 35.4 54.9 39.65 L54.75 40.0 Q51.9 38.7 50.25 34.5 48.9 31.1 48.9 27.75 48.9 24.8 49.5 20.35 50.25 14.85 51.25 13.6 50.95 14.4 51.0 15.15 L51.1 15.95 M58.75 29.5 L60.65 32.3 Q60.65 32.65 58.0 34.6 56.95 34.6 55.35 30.8 54.0 27.45 54.0 26.8 L54.2 26.05 Q54.45 25.3 54.75 25.1 L56.35 28.15 57.6 31.1 57.75 30.25 Q57.95 29.5 58.75 29.5 M43.3 47.75 Q43.0 48.05 43.0 48.5 L43.65 50.25 43.6 50.55 43.5 50.85 43.0 51.0 Q41.75 51.0 41.5 49.75 L41.5 48.4 Q41.5 47.05 42.55 46.45 43.6 45.85 43.6 47.25 L43.3 47.75 M26.8 5.75 L27.05 7.05 26.8 7.75 26.55 8.45 26.85 9.05 27.25 10.05 Q27.55 10.25 26.9 10.25 26.0 10.25 25.8 9.4 L25.8 8.45 Q25.8 7.9 26.05 7.3 L26.5 5.75 26.8 5.75 M22.3 2.15 Q22.8 3.55 22.85 6.2 22.95 9.15 23.25 10.4 L23.25 10.55 Q22.0 10.2 21.65 8.45 L21.55 5.9 Q21.55 2.75 22.3 2.15 M26.25 19.15 L26.4 19.3 26.5 19.75 26.0 21.9 Q25.5 23.2 25.5 24.6 25.5 26.85 26.3 29.4 27.25 32.65 29.0 33.8 29.3 34.0 28.65 34.0 L27.95 33.75 27.25 33.5 Q25.45 33.5 24.5 29.1 L23.9 24.65 Q23.9 22.95 24.5 21.4 25.15 19.6 26.25 19.15 M0.0 9.15 Q1.95 10.3 2.9 13.55 L4.65 19.4 Q4.65 19.6 4.25 19.65 1.85 18.1 0.0 10.3 L0.0 9.15 M10.1 18.5 L11.9 23.25 Q9.95 22.95 8.35 20.2 6.9 17.75 6.9 15.8 6.9 6.4 9.0 13.85 9.0 15.6 10.1 18.5 M15.8 32.0 Q15.8 28.55 17.0 27.8 L17.0 30.6 Q17.05 32.5 17.55 33.75 L17.6 34.0 17.15 34.1 Q16.05 34.1 15.8 33.25 L15.8 32.0 M7.25 30.35 Q7.35 31.55 8.45 33.65 L9.8 36.75 9.85 37.0 Q9.85 37.15 9.5 37.15 8.0 37.15 6.65 34.75 5.55 32.8 5.55 31.95 L5.75 27.4 Q7.3 27.1 7.7 28.5 L8.25 31.3 8.05 31.5 7.3 30.35 7.25 30.35 M1.25 34.35 L-1.05 29.75 Q-2.85 25.75 -2.85 24.75 L-3.0 23.25 Q-2.95 21.85 -1.75 21.8 -1.85 24.2 -0.7 28.0 L1.25 34.15 1.25 34.35 M3.45 46.25 L4.0 45.65 Q5.4 47.7 6.25 50.8 L7.25 55.9 7.25 56.1 Q5.75 55.6 4.25 51.6 3.0 48.2 3.0 46.8 L3.45 46.25 M19.25 47.5 L18.45 49.9 18.25 51.8 Q18.25 52.9 20.55 58.3 L22.8 64.3 22.75 64.65 22.5 64.6 Q21.15 63.75 18.6 58.7 16.15 53.9 16.15 53.05 16.15 50.75 16.65 48.95 17.45 45.9 19.25 47.5 M37.4 28.5 L37.25 31.8 37.25 36.9 Q37.35 37.15 36.75 37.15 35.6 37.15 35.35 34.8 L35.35 32.35 Q35.35 31.6 36.4 28.85 37.4 26.1 37.4 28.5 M31.75 30.1 Q32.05 31.05 34.4 34.75 L34.4 35.05 Q34.35 35.25 34.0 35.25 31.95 35.25 30.75 31.9 29.9 29.65 29.9 28.35 29.9 24.7 31.25 22.8 31.5 23.15 31.5 26.2 31.5 29.4 31.75 30.1 M30.0 39.25 L29.55 43.4 Q29.55 46.85 30.85 51.15 L32.1 55.25 31.85 55.4 Q28.25 52.0 28.25 46.1 L28.45 42.45 Q28.85 40.35 30.0 39.25 M35.5 41.1 Q36.1 42.55 36.9 47.45 37.65 51.9 39.0 54.35 L38.85 54.55 Q37.25 54.25 35.9 51.05 34.75 48.3 34.75 46.55 L34.9 43.6 Q35.15 41.45 35.5 41.1 M25.65 50.5 L25.4 51.9 25.15 53.25 Q25.15 53.6 25.9 55.75 25.9 56.4 25.3 56.8 24.05 55.6 23.85 55.05 L23.75 53.25 23.85 51.35 25.0 48.8 25.45 49.8 25.65 50.5 M15.95 61.6 L15.75 61.55 Q13.45 60.35 12.1 57.15 11.05 54.6 11.05 52.15 11.05 49.0 11.45 47.8 11.95 46.25 12.8 51.65 12.8 53.8 14.4 57.55 L16.0 61.25 15.95 61.6 M-16.35 -27.0 Q-16.0 -26.2 -16.0 -25.5 L-16.25 -24.3 -16.5 -23.15 Q-16.5 -15.15 -14.85 -13.25 L-14.9 -13.05 Q-16.95 -14.65 -17.35 -16.25 L-17.5 -19.75 -17.1 -23.15 Q-16.75 -25.55 -16.75 -27.0 L-16.35 -27.0 M-7.75 -29.65 Q-7.0 -27.85 -6.6 -24.55 L-5.9 -19.35 -6.5 -18.85 -8.35 -22.95 -8.5 -25.8 Q-8.5 -29.05 -7.75 -29.65 M-17.25 21.8 Q-17.95 23.25 -19.6 23.25 -23.65 23.25 -25.9 17.6 -27.05 14.8 -27.35 11.9 -27.35 9.25 -26.25 7.35 -25.0 5.05 -23.55 9.5 L-23.75 9.6 -24.15 8.6 Q-24.4 7.95 -24.9 7.8 L-25.25 7.85 Q-25.25 9.15 -25.6 11.8 -25.6 13.4 -24.35 16.7 -22.6 21.25 -20.0 21.25 -19.1 21.25 -18.7 16.5 -18.35 11.75 -17.5 11.75 -17.25 11.75 -16.3 15.95 -15.35 20.2 -12.5 20.3 L-12.45 20.25 -12.4 20.65 -12.5 21.85 Q-12.85 22.55 -14.25 22.55 -15.7 22.55 -16.35 21.55 -16.75 20.35 -17.0 20.05 -16.7 20.6 -17.25 21.8 M-33.9 25.4 Q-33.1 22.3 -30.4 23.5 -32.3 24.05 -32.3 27.3 -32.3 31.7 -31.7 33.2 -30.95 35.05 -26.85 40.0 -27.15 40.4 -28.5 40.4 -31.0 40.4 -32.85 35.3 L-34.25 30.15 Q-34.25 26.75 -33.9 25.4 M-32.65 47.85 L-32.9 48.9 -33.15 49.9 Q-33.15 51.15 -30.6 60.05 L-30.85 60.6 Q-31.15 60.9 -31.5 60.9 -33.85 60.9 -34.85 57.15 L-35.35 53.25 Q-35.35 49.2 -34.0 46.8 -32.65 44.35 -32.65 47.85 M-13.0 36.4 Q-13.7 36.75 -14.0 37.45 L-14.25 38.3 Q-14.25 45.65 -13.55 49.75 -12.5 55.75 -9.25 61.55 L-9.5 61.95 Q-9.7 62.25 -10.0 62.25 -12.5 62.25 -14.5 54.8 L-16.0 47.3 Q-16.0 42.6 -15.55 39.25 -14.75 32.5 -12.6 37.15 -12.75 37.3 -12.9 37.0 L-13.0 36.4 M-2.85 46.2 Q-3.4 47.25 -3.4 48.45 -3.4 51.1 -2.95 52.35 L-0.9 57.0 Q-0.6 57.3 -1.25 57.3 -4.15 57.3 -5.1 53.15 -5.5 51.4 -5.5 48.55 -5.5 45.05 -4.95 43.55 -4.05 41.2 -1.6 42.9 -2.05 44.6 -2.85 46.2 M-8.9 49.05 L-8.75 52.25 Q-8.75 54.15 -7.85 55.8 -7.0 57.45 -7.0 58.25 L-7.25 58.8 Q-7.6 59.15 -8.0 59.15 -9.5 59.15 -10.2 56.25 L-10.65 53.25 -10.6 47.25 Q-9.15 47.15 -8.9 49.05 M-43.75 26.05 Q-42.9 24.4 -42.9 29.8 -42.9 32.5 -42.3 37.8 -42.35 38.1 -42.75 38.25 -44.6 36.1 -44.6 32.85 -44.6 27.7 -43.75 26.05 M-52.3 29.05 L-52.1 26.2 Q-51.85 24.0 -51.5 23.85 -51.0 25.85 -50.3 32.0 -49.65 37.35 -48.6 40.5 L-48.65 40.65 Q-50.55 39.3 -51.6 34.25 -52.3 30.95 -52.3 29.05 M-42.9 44.25 Q-43.35 44.95 -43.35 45.9 -43.35 48.9 -41.05 52.7 L-38.75 56.05 Q-38.75 56.85 -40.0 56.85 -41.2 56.85 -43.1 52.7 L-44.75 48.5 -44.5 46.15 Q-44.15 44.2 -43.75 43.85 -43.2 43.95 -42.9 44.25 M-24.5 56.15 Q-24.9 56.55 -25.25 56.55 -26.15 56.55 -26.8 54.55 L-27.3 52.55 Q-27.3 49.25 -25.7 51.35 -24.1 53.4 -24.1 55.5 L-24.5 56.15" fill="#333333" fill-rule="evenodd" stroke="none"/>
    <path d="M22.9 -27.05 L23.05 -26.65 22.1 -23.7 Q21.1 -20.75 21.1 -19.25 L20.95 -19.15 Q20.4 -21.05 20.4 -22.25 20.4 -23.1 21.1 -25.0 21.9 -27.0 22.55 -27.15 L22.9 -27.05 M18.8 1.45 L18.4 3.6 18.0 5.6 18.4 7.35 18.8 8.45 18.75 8.8 18.65 8.85 18.35 8.95 Q17.55 8.95 17.05 7.25 L16.7 5.45 Q16.7 2.55 17.75 0.75 18.8 -1.0 18.8 1.45 M-47.0 -3.35 L-47.35 1.9 -47.7 7.9 -47.45 8.45 -47.25 9.0 -47.3 9.4 -47.35 9.5 -47.75 9.6 Q-48.85 9.6 -49.05 7.15 L-49.05 4.6 -48.9 -0.3 Q-48.65 -3.0 -47.45 -4.65 -47.0 -3.85 -47.0 -3.35 M-43.7 -0.2 Q-43.35 2.05 -42.85 3.3 -45.1 3.4 -45.1 -1.0 -45.1 -2.75 -44.55 -3.2 -43.95 -2.2 -43.7 -0.2 M-30.75 -29.55 Q-30.75 -31.85 -29.95 -32.95 -29.15 -34.1 -29.15 -32.2 L-29.55 -29.5 -29.5 -27.55 -28.7 -24.65 -29.1 -24.45 -30.65 -27.3 -30.75 -29.55 M-38.75 -36.9 Q-38.25 -36.1 -38.25 -34.9 L-38.65 -32.9 -38.25 -28.8 Q-37.8 -25.4 -37.3 -24.7 L-37.75 -24.6 Q-39.4 -24.6 -39.7 -27.1 L-39.7 -29.7 -39.65 -33.2 Q-39.5 -34.65 -38.75 -36.9 M-1.55 -5.05 L-2.55 -3.3 -2.9 -1.6 Q-2.9 4.15 -1.95 7.95 -3.45 5.75 -3.75 4.6 L-3.95 1.4 -3.75 -2.2 Q-3.35 -4.5 -2.2 -5.3 L-1.55 -5.05 M-5.55 13.6 L-5.45 13.55 -5.4 13.9 -6.2 15.7 -7.0 17.85 -6.95 19.7 -5.9 22.3 -6.0 22.4 -8.05 20.05 -8.2 17.8 -8.05 15.2 Q-7.6 13.95 -5.55 13.6 M-52.8 41.0 Q-51.9 42.85 -51.3 50.0 -50.85 55.55 -47.05 59.0 -47.05 59.6 -47.55 59.6 -51.3 59.6 -52.75 51.05 L-53.45 42.2 Q-53.3 41.15 -52.8 41.0" fill="#333333" fill-rule="evenodd" stroke="none"/>
  </g>
</svg>
