<?xml version="1.0" encoding="UTF-8" standalone="no"?>
<svg xmlns:xlink="http://www.w3.org/1999/xlink" height="14.0px" width="11.7px" xmlns="http://www.w3.org/2000/svg">
  <g transform="matrix(1.0, 0.0, 0.0, 1.0, 5.15, 7.2)">
    <path d="M3.5 -6.4 L3.35 -6.15 3.55 -5.9 Q3.85 -5.95 3.95 -6.15 L4.8 -4.75 5.05 -4.4 5.1 -4.35 5.2 -4.1 5.7 -3.3 5.85 -3.2 5.9 -2.85 6.0 -2.6 Q6.55 -0.9 6.55 1.85 6.65 2.3 6.2 2.3 L6.0 2.25 Q5.6 5.05 3.05 5.75 L2.85 5.8 2.2 6.35 0.55 6.8 Q-0.4 6.8 -1.95 6.05 L-3.25 5.2 -4.8 4.3 Q-5.15 3.9 -5.15 2.1 -5.15 -2.75 -3.45 -5.05 L-2.85 -5.6 -2.45 -6.15 Q-1.25 -7.05 0.4 -7.2 2.1 -7.35 3.5 -6.4" fill="#d1d0a5" fill-rule="evenodd" stroke="none"/>
  </g>
</svg>
