<?xml version="1.0" encoding="UTF-8" standalone="no"?>
<svg xmlns:xlink="http://www.w3.org/1999/xlink" height="14.6px" width="13.85px" xmlns="http://www.w3.org/2000/svg">
  <g transform="matrix(1.0, 0.0, 0.0, 1.0, 6.0, 7.3)">
    <path d="M0.0 -6.45 L-1.15 -6.25 Q-1.9 -5.9 -2.15 -5.85 L-2.25 -5.85 Q-3.45 -4.8 -4.2 -3.05 L-1.75 -3.7 -3.4 -3.65 -3.6 -4.05 Q-3.6 -4.65 -2.05 -5.1 L0.9 -5.95 1.0 -5.7 Q1.0 -5.45 -2.55 -4.2 L-2.85 -4.05 Q-1.25 -4.15 2.45 -5.2 2.3 -5.3 2.25 -5.5 1.3 -6.1 0.05 -6.3 L0.0 -6.45 M4.55 -5.5 L5.1 -5.1 5.65 -4.65 5.7 -4.65 6.3 -3.65 6.7 -3.1 Q7.85 -1.35 7.85 0.75 7.85 2.45 7.45 3.3 6.7 4.8 4.5 5.6 3.45 7.3 1.6 7.3 L0.75 7.15 -0.35 7.3 -1.95 6.95 -0.45 6.55 -1.15 6.4 -1.75 6.35 -1.45 6.45 -1.4 6.75 -1.65 6.8 Q-4.35 6.8 -5.4 4.7 -6.0 3.5 -6.0 1.8 -6.0 -0.15 -5.35 -2.0 L-5.4 -2.0 -5.55 -2.0 -5.6 -2.2 -5.05 -2.8 -4.85 -3.25 Q-4.2 -4.65 -3.25 -5.6 L-3.3 -5.55 -3.25 -5.65 -3.05 -5.9 -2.95 -5.9 Q-1.75 -6.95 -0.1 -7.3 L-0.05 -7.1 -0.1 -7.05 0.4 -7.15 Q2.9 -7.45 3.0 -5.7 5.5 -4.05 5.5 0.7 L5.45 1.5 6.35 1.25 6.4 0.35 6.05 -1.05 Q5.7 -2.3 5.35 -2.45 6.55 -3.85 6.95 0.9 L6.9 1.5 6.9 1.6 5.75 4.0 5.1 4.95 Q6.35 4.15 6.9 3.15 7.4 2.3 7.4 0.75 7.4 -1.45 6.2 -3.05 5.4 -4.2 2.0 -7.3 L4.05 -5.9 4.55 -5.5 M3.35 -3.6 Q3.35 -3.3 0.15 -2.4 L-0.05 -2.75 0.6 -2.95 -0.8 -2.7 -1.5 -2.4 -3.75 -1.25 -3.85 -1.2 Q-1.8 -1.25 0.7 -2.2 L3.4 -3.15 Q4.2 -3.15 4.2 -2.8 L-1.05 -0.75 0.2 -1.1 2.8 -1.5 3.35 -1.45 3.45 -1.15 Q3.45 -0.75 1.65 -0.1 L-0.85 0.75 -0.95 0.8 3.75 0.05 Q4.35 0.05 4.35 0.4 L4.3 0.75 -0.05 1.65 3.55 1.5 Q4.0 1.5 4.1 1.75 L4.15 1.9 4.15 1.95 4.75 1.7 4.75 0.75 Q4.75 -3.1 3.0 -4.85 L-4.15 -2.45 0.25 -3.25 1.75 -3.6 1.75 -3.55 3.05 -3.85 3.35 -3.6 M-4.8 -1.0 Q-4.8 -1.4 -1.95 -2.45 L-4.6 -2.05 Q-5.25 -0.2 -5.25 1.7 L-5.15 2.9 -5.1 2.9 Q-4.8 3.6 -3.15 4.2 L-2.9 4.3 -2.9 4.0 -0.65 3.35 -0.25 2.95 1.35 2.4 -2.85 2.5 Q-2.55 2.45 -2.8 2.1 L-2.85 1.8 -4.05 1.75 -4.1 1.45 Q-4.1 1.0 -2.25 0.35 L-0.75 -0.1 -1.5 0.1 -3.2 0.35 -3.85 0.2 -3.9 0.05 -3.65 -0.35 -3.0 -0.65 -4.7 -0.7 -4.8 -1.0 M-4.75 4.25 Q-4.1 5.25 -2.1 6.15 L-1.95 6.1 -2.3 5.75 -1.1 5.9 0.05 5.6 Q-1.4 5.55 -3.25 4.75 L-5.0 3.7 -4.75 4.25 M-0.2 4.9 L-0.2 4.8 1.4 3.85 1.55 3.8 0.35 3.8 0.3 3.8 -2.0 4.55 -0.2 4.9 M5.3 2.65 L5.1 4.1 5.05 4.3 Q5.8 3.25 6.15 2.15 L5.3 2.65 M2.1 5.0 L3.15 4.75 3.25 4.9 3.05 5.0 3.75 5.0 4.3 4.0 4.6 3.05 2.2 4.3 2.55 4.55 1.95 5.0 2.1 5.0 M2.1 3.4 L2.15 3.5 3.55 2.8 1.95 3.3 2.1 3.4" fill="#333333" fill-rule="evenodd" stroke="none"/>
  </g>
</svg>
