<?xml version="1.0" encoding="UTF-8" standalone="no"?>
<svg xmlns:xlink="http://www.w3.org/1999/xlink" height="4.1px" width="9.0px" xmlns="http://www.w3.org/2000/svg">
  <g transform="matrix(1.0, 0.0, 0.0, 1.0, 4.5, 2.05)">
    <path d="M0.0 -0.05 Q0.0 -1.8 2.25 -2.05 4.5 -2.25 4.5 0.55 L4.05 1.4 Q3.5 2.05 2.65 2.05 1.15 2.05 0.45 1.1 0.0 0.65 0.0 0.0 0.0 0.65 -0.45 1.1 -1.15 2.05 -2.65 2.05 -3.5 2.05 -4.05 1.4 L-4.5 0.55 Q-4.5 -2.25 -2.25 -2.05 0.0 -1.8 0.0 -0.05 M4.0 -0.15 L4.1 -0.1 3.95 -0.35 3.95 -0.3 3.7 -0.75 2.55 -1.4 Q1.0 -1.4 0.8 -0.65 L0.9 -0.65 0.85 -0.3 0.85 -0.15 0.8 -0.15 0.85 0.3 0.85 0.15 1.25 -0.05 2.9 -0.3 4.0 -0.15 4.0 0.0 4.05 0.0 4.0 -0.15 M3.9 0.45 L2.9 0.25 1.35 0.55 1.05 0.8 Q1.3 1.25 2.05 1.25 L3.6 0.85 4.0 0.5 3.9 0.45 M-3.95 -0.3 L-3.75 -0.3 -3.85 -0.15 -3.6 -0.25 -2.25 -0.4 -0.7 -0.05 -0.65 -0.15 -0.9 -0.6 -1.45 -0.55 -0.8 -0.65 Q-1.0 -1.4 -2.55 -1.4 L-3.7 -0.75 -3.95 -0.3 -4.0 0.0 -3.95 -0.3 M-1.0 0.5 L-1.25 0.35 -2.45 0.2 Q-3.25 0.2 -3.9 0.5 L-3.95 0.5 -3.6 0.85 -2.75 1.2 -2.75 1.15 -2.7 1.2 -2.05 1.25 Q-1.15 1.25 -0.9 0.5 L-1.0 0.5" fill="#333333" fill-rule="evenodd" stroke="none"/>
    <path d="M4.0 -0.15 L2.9 -0.3 1.25 -0.05 0.85 0.15 0.85 0.3 0.8 -0.15 0.85 -0.15 0.85 -0.3 0.9 -0.65 0.8 -0.65 Q1.0 -1.4 2.55 -1.4 L3.7 -0.75 3.95 -0.3 3.95 -0.35 4.1 -0.1 4.0 -0.15 3.95 -0.3 4.0 -0.15 M3.9 0.45 L4.0 0.5 3.6 0.85 2.05 1.25 Q1.3 1.25 1.05 0.8 L1.35 0.55 2.9 0.25 3.9 0.45 M-3.95 -0.3 L-3.7 -0.75 -2.55 -1.4 Q-1.0 -1.4 -0.8 -0.65 L-1.45 -0.55 -0.9 -0.6 -0.65 -0.15 -0.7 -0.05 -2.25 -0.4 -3.6 -0.25 -3.85 -0.15 -3.75 -0.3 -3.95 -0.3 M-1.0 0.5 L-0.9 0.5 Q-1.15 1.25 -2.05 1.25 L-2.7 1.2 -2.75 1.15 -2.75 1.2 -3.6 0.85 -3.95 0.5 -3.9 0.5 Q-3.25 0.2 -2.45 0.2 L-1.25 0.35 -1.0 0.5" fill="#cccc99" fill-rule="evenodd" stroke="none"/>
    <path d="M4.0 -0.15 L4.05 0.0 4.0 0.0 4.0 -0.15 3.95 -0.3 4.0 -0.15 M-3.95 -0.3 L-4.0 0.0 -3.95 -0.3" fill="#ffffff" fill-rule="evenodd" stroke="none"/>
  </g>
</svg>
