<?xml version="1.0" encoding="UTF-8" standalone="no"?>
<svg xmlns:xlink="http://www.w3.org/1999/xlink" height="4.1px" width="9.0px" xmlns="http://www.w3.org/2000/svg">
  <g transform="matrix(1.0, 0.0, 0.0, 1.0, 4.5, 2.05)">
    <path d="M3.95 -0.3 L3.7 -0.75 2.55 -1.4 Q1.0 -1.4 0.8 -0.65 L3.95 -0.3 4.0 0.0 3.45 0.05 2.65 0.05 2.75 0.35 2.65 0.4 1.9 0.55 1.7 0.5 1.7 0.05 1.75 0.0 0.8 -0.15 Q0.8 1.25 2.05 1.25 L3.6 0.85 4.05 0.2 3.95 -0.3 M0.0 -0.05 Q0.0 -1.8 2.25 -2.05 4.5 -2.25 4.5 0.55 L4.05 1.4 Q3.5 2.05 2.65 2.05 1.15 2.05 0.45 1.1 0.0 0.65 0.0 0.0 0.0 0.65 -0.45 1.1 -1.15 2.05 -2.65 2.05 -3.5 2.05 -4.05 1.4 L-4.5 0.55 Q-4.5 -2.25 -2.25 -2.05 0.0 -1.8 0.0 -0.05 M-3.95 -0.3 L-0.8 -0.65 Q-1.0 -1.4 -2.55 -1.4 L-3.7 -0.75 -3.95 -0.3 -4.05 0.2 -3.6 0.85 -2.05 1.25 Q-0.8 1.25 -0.8 -0.15 L-1.75 0.0 -1.7 0.05 -1.7 0.5 -1.9 0.55 -2.65 0.4 -2.75 0.35 -2.65 0.05 -3.45 0.05 -4.0 0.0 -3.95 -0.3" fill="#333333" fill-rule="evenodd" stroke="none"/>
    <path d="M3.95 -0.3 L0.8 -0.65 Q1.0 -1.4 2.55 -1.4 L3.7 -0.75 3.95 -0.3 M-3.95 -0.3 L-3.7 -0.75 -2.55 -1.4 Q-1.0 -1.4 -0.8 -0.65 L-3.95 -0.3" fill="#cccc99" fill-rule="evenodd" stroke="none"/>
    <path d="M3.95 -0.3 L4.05 0.2 3.6 0.85 2.05 1.25 Q0.8 1.25 0.8 -0.15 L1.75 0.0 1.7 0.05 1.7 0.5 1.9 0.55 2.65 0.4 2.75 0.35 2.65 0.05 3.45 0.05 4.0 0.0 3.95 -0.3 M-3.95 -0.3 L-4.0 0.0 -3.45 0.05 -2.65 0.05 -2.75 0.35 -2.65 0.4 -1.9 0.55 -1.7 0.5 -1.7 0.05 -1.75 0.0 -0.8 -0.15 Q-0.8 1.25 -2.05 1.25 L-3.6 0.85 -4.05 0.2 -3.95 -0.3" fill="#ffffff" fill-rule="evenodd" stroke="none"/>
  </g>
</svg>
