<?xml version="1.0" encoding="UTF-8" standalone="no"?>
<svg xmlns:xlink="http://www.w3.org/1999/xlink" height="3.85px" width="8.5px" xmlns="http://www.w3.org/2000/svg">
  <g transform="matrix(1.0, 0.0, 0.0, 1.0, -4.0, 6.9)">
    <path d="M9.1 -4.4 Q9.3 -4.3 9.35 -4.3 L9.2 -4.4 9.1 -4.4 M9.5 -5.2 L9.45 -5.0 Q10.35 -4.5 10.75 -4.35 L10.9 -4.4 10.05 -4.9 10.0 -4.9 Q9.85 -4.9 9.75 -5.05 L9.75 -5.1 9.5 -5.2 M10.95 -5.2 L10.6 -5.45 10.3 -5.55 10.0 -5.65 10.05 -5.5 10.95 -5.1 10.95 -5.2 M9.6 -6.35 L9.75 -6.25 Q11.45 -5.9 11.45 -5.35 L11.35 -5.15 11.1 -5.3 11.2 -5.05 Q11.25 -4.7 10.95 -4.8 L11.3 -4.55 Q12.1 -4.9 12.2 -5.3 L11.15 -5.95 9.6 -6.35 M9.5 -6.3 L9.55 -6.35 8.9 -6.4 9.5 -6.3 M8.4 -4.7 L8.35 -4.75 7.3 -5.2 6.35 -5.3 8.4 -4.7 M8.6 -4.05 L8.65 -4.05 8.55 -4.1 8.6 -4.05 M5.4 -6.3 Q6.65 -6.9 8.35 -6.9 9.5 -6.85 10.9 -6.2 L12.15 -5.5 12.35 -5.5 12.4 -5.3 12.5 -5.15 12.4 -5.2 12.4 -5.1 Q12.4 -4.55 11.65 -4.2 L11.65 -4.05 Q11.8 -3.8 11.2 -3.8 L10.65 -3.85 7.4 -3.55 9.7 -3.35 10.25 -3.45 10.25 -3.4 9.85 -3.15 8.3 -3.05 Q6.3 -3.05 4.0 -4.75 L4.3 -4.75 4.1 -5.0 4.15 -5.1 4.55 -4.9 4.6 -5.1 4.6 -5.2 4.65 -5.3 4.6 -5.45 4.8 -5.7 5.05 -5.65 Q5.3 -5.8 5.7 -5.95 L5.7 -6.05 5.25 -5.95 4.7 -5.7 4.1 -5.5 4.1 -5.55 Q4.35 -5.65 5.4 -6.3" fill="#333333" fill-rule="evenodd" stroke="none"/>
  </g>
</svg>
