<?xml version="1.0" encoding="UTF-8" standalone="no"?>
<svg xmlns:xlink="http://www.w3.org/1999/xlink" height="29.8px" width="28.95px" xmlns="http://www.w3.org/2000/svg">
  <g transform="matrix(1.0, 0.0, 0.0, 1.0, 0.25, 0.25)">
    <path d="M2.65 3.85 L6.5 0.55 28.3 26.0 24.45 29.3 2.65 3.85" fill="#e66b7f" fill-rule="evenodd" stroke="none"/>
    <path d="M25.55 22.85 L24.15 21.55 22.75 20.15 Q22.15 19.5 21.9 18.55 21.65 17.65 20.75 16.75 L19.2 15.3 17.75 14.0 16.55 12.75 15.45 11.2 14.25 9.3 Q13.7 8.4 12.85 7.8 L11.4 6.45 10.1 4.8 8.6 3.1 7.8 2.1 6.5 0.55 4.95 2.05 Q4.25 2.5 3.85 2.8 L2.65 3.85 Q2.8 4.9 3.7 5.35 L5.2 6.7 6.45 8.55 7.6 10.3 9.05 11.65 10.5 13.0 11.75 14.65 13.3 16.2 14.45 17.45 15.25 19.0 Q15.8 20.0 16.7 20.5 L18.25 22.0 19.4 23.5 20.9 25.1 22.25 26.85 Q22.65 27.6 23.0 27.8 L24.45 29.3 26.25 27.9 27.45 27.0 28.3 26.0 Q27.8 24.95 27.0 24.2 L25.55 22.85 Z" fill="none" stroke="#e66b7f" stroke-linecap="round" stroke-linejoin="round" stroke-width="0.5"/>
    <path d="M0.0 24.0 L24.9 0.0 28.45 3.7 3.5 27.7 0.0 24.0" fill="#e66b7f" fill-rule="evenodd" stroke="none"/>
    <path d="M28.45 3.7 L26.8 2.1 25.9 1.0 24.9 0.0 Q24.65 0.7 23.5 1.2 22.35 1.75 21.95 2.8 21.55 3.9 20.6 4.55 L19.2 5.55 18.0 6.85 16.35 8.4 14.9 9.8 13.45 11.0 Q12.6 11.45 11.85 12.45 L10.3 14.35 8.7 15.55 Q7.9 15.95 7.5 16.7 L6.25 18.2 4.6 19.5 3.0 20.7 Q2.25 21.3 1.85 22.2 1.5 23.15 0.8 23.6 0.15 24.1 0.0 24.0 0.3 25.1 1.3 25.4 2.3 25.7 2.45 26.05 L3.5 27.7 5.05 26.3 6.55 24.7 7.95 23.3 9.05 22.0 10.5 20.35 Q11.35 19.5 11.95 19.2 L13.1 18.1 Q13.7 17.3 14.8 16.4 L16.75 14.85 18.1 13.75 19.35 12.45 20.8 11.05 22.35 9.55 23.85 7.9 25.25 6.55 26.65 5.25 27.6 4.3 Q27.85 3.9 28.45 3.7 Z" fill="none" stroke="#e66b7f" stroke-linecap="round" stroke-linejoin="round" stroke-width="0.5"/>
  </g>
</svg>
