<?xml version="1.0" encoding="UTF-8" standalone="no"?>
<svg xmlns:xlink="http://www.w3.org/1999/xlink" height="3.85px" width="8.45px" xmlns="http://www.w3.org/2000/svg">
  <g transform="matrix(1.0, 0.0, 0.0, 1.0, -4.1, 6.9)">
    <path d="M8.15 -6.15 L8.2 -6.15 Q8.8 -5.85 9.6 -5.75 L9.5 -5.85 9.0 -6.15 8.05 -6.2 8.15 -6.15 M7.35 -5.65 L7.4 -5.6 9.25 -5.15 8.35 -5.45 7.35 -5.65 M7.1 -5.7 L7.1 -5.75 Q6.95 -5.8 6.95 -6.05 L6.35 -5.9 7.1 -5.7 M8.1 -3.55 L8.65 -3.55 Q10.05 -3.55 10.9 -4.2 L11.7 -4.85 Q11.5 -4.95 11.2 -5.2 L10.7 -5.6 10.65 -5.4 10.55 -5.25 10.95 -4.8 Q10.95 -4.45 10.0 -4.5 L9.7 -3.95 8.95 -3.7 8.35 -3.7 8.1 -3.6 8.1 -3.55 M6.85 -6.25 L6.95 -6.3 Q5.8 -6.15 5.15 -5.8 L5.4 -5.75 Q5.6 -5.75 6.85 -6.25 M5.15 -6.25 L6.25 -6.6 8.9 -6.9 11.4 -6.3 Q12.55 -5.7 12.55 -5.3 L12.4 -5.15 12.1 -5.35 12.15 -5.1 12.0 -4.85 Q11.05 -3.05 8.7 -3.05 7.5 -3.05 6.4 -3.55 L6.35 -3.6 Q5.55 -3.8 4.85 -4.3 L4.45 -4.65 4.1 -5.0 4.15 -5.1 4.45 -4.9 4.75 -5.1 5.45 -4.9 6.3 -4.75 6.1 -4.8 4.7 -5.25 4.5 -5.3 4.3 -5.25 4.2 -5.3 4.2 -5.5 4.3 -5.65 4.3 -5.8 Q4.35 -6.0 4.65 -6.0 L5.15 -6.25" fill="#333333" fill-rule="evenodd" stroke="none"/>
  </g>
</svg>
