<?xml version="1.0" encoding="UTF-8" standalone="no"?>
<svg xmlns:xlink="http://www.w3.org/1999/xlink" height="49.8px" width="25.6px" xmlns="http://www.w3.org/2000/svg">
  <g transform="matrix(1.0, 0.0, 0.0, 1.0, 12.8, 14.3)">
    <path d="M1.25 -14.0 L1.35 -13.8 1.45 -13.65 1.55 -13.45 1.55 -13.25 1.55 -13.05 1.6 -12.95 3.75 -12.85 4.0 -13.1 4.15 -13.25 4.3 -13.45 4.7 -13.6 5.25 -13.7 5.25 -13.75 6.25 -13.65 7.45 -13.25 8.75 -13.0 9.15 -12.85 9.3 -12.7 9.45 -12.5 9.55 -12.3 9.9 -12.15 10.25 -11.95 10.55 -11.75 10.8 -11.55 10.95 -11.35 11.05 -11.2 11.15 -11.0 11.2 -10.8 11.25 -10.6 11.55 -10.25 11.75 -9.85 11.8 -9.7 11.9 -9.5 12.0 -9.1 12.0 -8.75 12.0 -8.2 12.0 -7.8 12.0 -7.05 12.0 -6.7 12.05 -6.5 12.15 -6.3 12.2 -6.1 12.25 -5.95 12.25 -5.2 12.25 -4.45 Q12.3 -3.75 12.0 -3.15 L11.5 -2.35 Q9.8 -1.45 7.9 -0.95 6.05 -0.45 4.15 -0.95 0.2 0.4 -3.45 -1.25 L-4.75 -1.3 -5.0 -1.15 -5.2 -1.0 -5.4 -0.95 -5.75 -0.85 -7.85 -1.3 -8.9 -1.9 -9.5 -2.05 -9.75 -2.25 -9.85 -2.35 -10.7 -2.65 -11.5 -2.8 -11.75 -3.0 -11.95 -3.2 -12.1 -3.4 -12.25 -3.55 -12.3 -4.3 Q-12.2 -4.85 -12.25 -5.45 L-12.2 -6.2 -12.05 -6.35 -12.0 -6.35 -12.05 -6.65 -12.05 -7.0 -12.05 -7.2 -12.05 -7.35 -12.05 -7.75 -12.05 -7.95 -11.95 -8.3 -11.65 -8.85 -11.55 -9.05 -11.15 -9.6 -11.05 -9.8 -10.85 -10.0 -10.55 -10.2 -10.5 -10.25 -10.5 -10.35 -10.45 -10.55 -10.35 -10.75 -9.9 -11.3 -9.1 -12.05 -8.1 -12.4 -7.15 -12.8 -6.85 -12.95 -6.5 -12.95 -6.5 -13.0 -6.05 -12.85 -5.85 -12.65 -5.7 -12.5 -2.8 -12.85 -2.75 -13.0 -2.65 -13.2 -2.55 -13.35 -2.35 -13.55 -2.1 -13.65 -1.45 -13.85 -1.2 -14.05 -1.0 -14.2 -0.85 -14.25 -0.5 -14.3 0.5 -14.25 1.0 -14.2 1.25 -14.0" fill="#abaa5c" fill-rule="evenodd" stroke="none"/>
    <path d="M-6.4 -0.6 L-6.3 -0.65 -6.25 -0.7 -6.15 -0.7 -6.05 -0.7 -6.05 -0.75 -5.0 -0.7 -4.75 -0.65 -2.1 -0.55 -1.85 -0.55 Q-1.3 -0.45 -0.95 0.0 L-0.9 0.05 -0.8 0.05 -0.75 0.05 -0.65 0.0 -0.55 0.05 -0.5 0.05 -0.4 0.1 -0.35 0.15 -0.3 0.3 -0.3 0.35 -0.3 0.45 -0.25 0.5 -0.25 0.65 -0.25 0.8 -0.25 1.0 -0.25 1.15 -0.25 1.2 -0.25 1.3 -0.25 1.35 -0.25 1.55 -0.3 1.8 -0.3 1.85 -0.35 1.9 -0.45 2.0 -0.5 2.05 -0.6 2.1 -0.65 2.15 -0.65 2.25 -0.7 2.3 -0.7 2.4 -0.75 2.45 -0.75 2.5 -0.8 2.55 -1.05 2.65 -1.1 2.65 -1.3 2.6 -1.35 2.55 -1.45 2.45 -1.8 2.4 -2.4 2.45 -3.45 2.65 -4.25 2.55 -4.3 2.5 -4.35 2.4 -4.4 2.35 -4.5 2.25 -4.5 2.2 -4.9 2.2 -5.15 2.25 Q-6.25 2.45 -6.5 1.45 L-6.7 -0.35 -6.65 -0.35 -6.65 -0.4 -6.6 -0.45 -6.55 -0.5 -6.45 -0.6 -6.4 -0.6" fill="#b0cedc" fill-rule="evenodd" stroke="none"/>
    <path d="M0.05 -11.05 L0.1 -10.95 0.1 -10.85 0.1 -10.75 0.1 -10.65 0.1 -10.55 0.1 -10.45 0.1 -10.4 0.05 -10.3 0.0 -10.2 -0.15 -10.0 -0.35 -9.8 -0.45 -9.7 -0.55 -9.65 -0.75 -9.65 -0.85 -9.65 -1.15 -9.7 -1.3 -9.8 Q-3.35 -9.25 -5.3 -8.35 L-8.0 -8.2 -8.25 -8.2 -8.55 -8.1 -9.3 -7.35 -9.9 -6.8 -9.9 -6.7 -9.9 -6.6 -9.9 -6.5 -9.9 -6.4 -9.9 -6.3 -9.95 -6.2 -10.0 -6.15 -10.05 -6.05 -10.15 -5.95 -10.3 -5.85 -10.45 -5.55 -10.65 -5.1 -10.65 -5.0 -10.75 -4.9 -10.9 -4.8 -11.0 -4.75 -11.05 -4.7 -11.25 -4.7 -11.55 -4.75 -11.7 -4.85 -11.8 -4.95 -11.9 -5.05 -11.95 -5.6 -11.95 -6.45 -11.95 -6.55 -11.9 -6.65 -11.9 -6.7 -11.9 -6.8 -12.0 -6.9 -12.05 -7.0 -12.15 -7.1 -12.15 -7.2 -12.2 -7.3 -12.2 -7.45 -12.15 -7.75 -12.15 -8.15 Q-10.25 -10.65 -6.85 -10.8 L-0.6 -11.4 -0.5 -11.35 -0.25 -11.3 -0.1 -11.2 0.0 -11.1 0.05 -11.05" fill="#ffffff" fill-opacity="0.16078432" fill-rule="evenodd" stroke="none"/>
    <path d="M-10.9 -9.2 L-10.75 -9.5 -9.85 -10.2 Q-8.35 -11.0 -6.75 -11.2 L-5.6 -11.25 Q-4.7 -11.45 -4.05 -10.95 L-4.0 -10.85 -4.0 -10.75 -3.95 -10.65 -3.9 -10.55 -3.75 -10.45 -3.7 -10.35 -3.65 -10.3 -3.65 -10.2 -3.65 -10.1 -3.65 -10.0 -3.7 -9.9 -3.7 -9.8 -3.7 -9.7 -3.7 -9.65 -3.75 -9.55 -3.75 -9.45 -3.8 -9.35 -3.85 -9.25 -4.1 -9.05 -4.2 -8.95 -4.3 -8.9 -4.3 -8.8 -4.3 -8.7 -4.3 -8.6 -4.3 -8.5 -4.35 -8.4 -4.4 -8.3 -4.4 -8.2 -4.4 -8.15 -4.4 -8.05 -4.4 -7.95 -4.4 -7.85 -4.4 -7.75 -4.45 -7.65 -4.5 -7.55 -4.5 -7.45 -4.55 -7.4 -4.55 -7.3 -4.6 -7.2 -4.65 -7.1 -4.85 -6.9 -4.9 -6.8 -5.05 -6.75 -5.15 -6.65 -6.0 -6.45 -8.25 -6.2 -8.45 -6.05 -8.6 -5.85 -8.65 -5.75 -9.05 -5.35 -9.1 -5.3 -9.15 -5.0 -9.15 -4.9 -9.15 -4.8 -9.15 -4.35 -9.15 -3.8 -8.85 -3.65 -8.4 -3.45 -8.3 -3.4 -8.05 -3.2 -7.85 -3.15 -7.65 -3.05 -7.55 -2.95 -7.5 -2.9 -7.4 -2.8 -7.3 -2.7 -7.25 -2.6 -7.2 -2.5 -7.15 -2.4 -7.15 -2.3 -7.15 -2.2 -7.15 -2.1 -7.2 -2.05 -7.2 -1.95 -7.25 -1.85 -7.35 -1.75 -7.5 -1.65 -7.55 -1.6 -7.65 -1.55 -8.0 -1.55 -8.3 -1.6 -8.45 -1.7 -8.7 -1.85 -8.85 -2.0 -8.95 -2.05 -9.05 -2.15 -9.25 -2.15 -9.3 -2.1 -9.4 -2.05 -9.6 -2.05 -9.9 -2.1 -10.05 -2.2 -10.15 -2.3 -10.25 -2.4 -10.3 -2.45 -10.35 -2.55 -10.4 -2.65 -10.45 -2.75 -10.9 -3.15 -11.1 -3.3 -11.8 -4.25 -11.9 -4.35 -12.0 -4.65 -12.0 -4.7 -12.05 -4.8 -12.1 -5.45 -11.95 -6.15 -11.95 -6.2 -11.95 -6.4 -11.95 -6.5 -11.95 -6.6 -11.95 -6.7 -11.95 -6.8 -11.8 -7.15 -11.65 -7.6 -10.9 -9.2" fill="#ffffff" fill-opacity="0.16078432" fill-rule="evenodd" stroke="none"/>
    <path d="M1.15 -13.35 L1.3 -13.4 2.2 -13.8 2.5 -13.9 2.75 -13.8 2.9 -13.7 3.0 -13.6 3.05 -13.55 3.1 -13.45 3.1 -13.35 3.25 -13.3 3.5 -13.25 3.6 -13.25 5.8 -13.4 5.9 -13.3 5.95 -13.2 6.0 -13.15 8.75 -13.1 Q10.05 -12.85 11.1 -12.15 L11.2 -11.95 11.35 -11.65 11.4 -11.45 11.4 -11.4 11.4 -11.3 11.4 -11.2 11.4 -11.1 11.35 -11.0 11.35 -10.9 11.2 -10.7 11.1 -10.65 Q9.5 -10.25 8.0 -10.95 L6.6 -10.95 6.25 -10.85 5.85 -10.8 5.7 -10.7 5.6 -10.65 5.25 -10.6 4.95 -10.65 4.8 -10.75 4.7 -10.85 3.15 -9.8 Q2.95 -9.65 2.75 -9.6 L2.45 -9.65 2.3 -9.75 2.2 -9.85 2.15 -9.95 2.1 -10.05 2.1 -10.15 2.0 -10.15 1.95 -10.15 1.75 -10.1 1.45 -10.15 1.3 -10.25 1.2 -10.35 1.15 -10.45 1.1 -10.55 1.1 -10.65 1.1 -10.7 0.5 -10.85 0.2 -10.85 0.1 -10.95 0.0 -11.05 -0.15 -11.05 -0.5 -11.05 -0.8 -11.1 -0.9 -11.2 -1.0 -11.3 -1.05 -11.4 -1.1 -11.45 -3.75 -11.3 -3.85 -11.4 -3.9 -11.5 -6.75 -10.65 -7.0 -10.55 -7.25 -10.65 -7.4 -10.75 -7.5 -10.8 -7.6 -11.0 -7.6 -11.3 -7.55 -11.45 Q-5.95 -12.6 -4.0 -12.95 L-2.65 -13.05 Q-1.85 -13.7 -0.9 -14.0 L-0.6 -14.1 -0.5 -14.1 -0.25 -14.0 -0.1 -13.95 -0.05 -13.85 0.0 -13.75 0.05 -13.65 0.1 -13.55 0.1 -13.45 0.05 -13.4 0.0 -13.3 0.0 -13.2 0.25 -13.15 0.9 -13.4 1.15 -13.35" fill="#ffffff" fill-opacity="0.16078432" fill-rule="evenodd" stroke="none"/>
    <path d="M3.75 -13.7 L5.9 -13.7 6.15 -13.65 6.25 -13.55 6.35 -13.45 6.4 -13.4 6.45 -13.3 6.45 -13.2 6.45 -13.1 6.4 -13.0 6.3 -12.8 6.25 -12.7 6.15 -12.7 3.75 -12.2 3.75 -12.15 3.7 -12.05 3.7 -11.95 3.6 -11.85 3.5 -11.75 3.2 -11.45 3.15 -11.35 3.1 -11.3 3.05 -11.2 3.0 -11.1 3.0 -11.0 3.0 -10.9 3.0 -10.8 3.0 -10.7 3.05 -10.65 3.2 -10.5 3.45 -10.35 3.65 -10.25 4.05 -9.95 4.25 -9.8 4.3 -9.7 4.45 -9.5 4.8 -9.15 4.9 -9.0 5.0 -8.85 5.2 -8.45 5.3 -8.4 5.4 -8.3 5.45 -8.2 5.5 -8.1 5.5 -8.0 5.6 -7.9 5.7 -7.8 5.75 -7.7 5.8 -7.65 6.0 -7.35 6.0 -7.25 6.0 -7.15 6.0 -7.05 6.0 -6.9 6.0 -6.7 5.95 -6.6 5.95 -6.5 5.85 -6.3 5.8 -6.2 5.7 -6.15 5.5 -6.05 5.3 -6.15 5.0 -6.35 4.85 -6.5 4.8 -6.6 4.8 -6.7 4.8 -6.8 4.75 -6.85 4.65 -6.95 4.45 -7.15 4.4 -7.25 4.35 -7.35 4.35 -7.45 4.25 -7.55 4.1 -7.7 3.85 -8.2 3.75 -8.3 3.65 -8.4 3.45 -8.55 3.4 -8.65 3.35 -8.75 3.25 -8.85 3.2 -8.95 3.15 -9.05 3.0 -9.15 2.85 -9.15 2.65 -9.15 2.45 -9.15 2.25 -9.25 2.1 -9.3 2.0 -9.4 1.95 -9.5 1.85 -9.6 1.75 -9.7 1.65 -9.75 1.3 -9.95 1.2 -10.05 0.95 -10.35 0.7 -10.7 0.6 -10.8 -0.05 -11.1 -0.15 -11.15 -0.35 -11.2 -0.6 -11.25 -0.7 -11.35 -0.8 -11.45 -0.9 -11.55 -0.9 -11.65 -0.9 -11.7 -0.9 -11.9 -0.9 -12.1 -0.85 -12.2 -0.75 -12.3 -0.65 -12.4 -0.55 -12.4 -0.1 -12.45 0.05 -12.45 0.2 -12.5 0.3 -12.6 0.55 -12.75 0.8 -12.95 1.0 -13.0 3.25 -13.6 3.55 -13.7 3.75 -13.7" fill="#ffffff" fill-opacity="0.16078432" fill-rule="evenodd" stroke="none"/>
    <path d="M0.0 -12.1 L-0.3 -11.8 -0.4 -11.75 -4.95 -11.6 -6.3 -11.3 -6.4 -11.2 -6.8 -10.95 -6.85 -10.9 -7.35 -10.75 -7.55 -10.85 -7.75 -11.0 -7.75 -11.1 -7.75 -11.2 -7.75 -11.3 -6.65 -12.05 -3.0 -12.7 -1.45 -12.7 -0.4 -12.55 -0.25 -12.45 -0.05 -12.25 0.0 -12.2 0.0 -12.1" fill="#ffffff" fill-opacity="0.16078432" fill-rule="evenodd" stroke="none"/>
    <path d="M8.6 -7.95 L9.75 -7.9 10.2 -7.8 10.3 -7.7 10.8 -7.1 11.2 -6.3 11.2 -6.2 11.2 -6.0 11.2 -5.65 11.2 -5.35 11.2 -5.25 11.25 -5.15 11.3 -5.05 11.3 -4.95 11.3 -4.9 11.3 -4.8 11.3 -4.7 11.3 -4.6 11.25 -4.5 11.2 -4.4 11.2 -4.3 11.1 -4.2 11.0 -4.15 10.65 -3.85 10.3 -3.45 10.1 -3.4 9.9 -3.3 9.8 -3.2 9.8 -3.1 9.8 -2.8 9.7 -2.45 9.6 -2.15 9.5 -2.05 8.75 -1.85 8.35 -1.95 8.2 -1.95 6.6 -0.8 4.05 -0.85 3.7 -0.85 1.2 -0.6 1.1 -0.65 1.05 -0.7 -2.1 -0.55 -2.7 -0.75 -2.8 -0.85 -2.9 -0.95 -3.1 -1.0 Q-3.75 -1.25 -4.35 -1.65 L-4.55 -1.8 -4.6 -1.9 -4.65 -2.0 -4.7 -2.2 -4.8 -2.45 -4.8 -2.55 -4.8 -3.05 -4.7 -3.8 -4.6 -4.05 -3.9 -4.9 Q-2.9 -6.1 -1.45 -6.65 -0.6 -7.45 0.6 -7.55 2.05 -7.65 3.35 -6.9 L3.5 -6.9 4.2 -6.65 4.55 -6.35 4.6 -6.25 4.65 -6.15 4.7 -6.05 4.75 -5.95 4.85 -5.9 5.0 -5.6 5.05 -5.45 5.45 -5.9 Q6.35 -7.05 7.85 -6.9 L7.9 -6.95 7.9 -7.05 7.9 -7.15 7.9 -7.3 7.9 -7.4 7.95 -7.5 8.0 -7.6 8.05 -7.7 8.15 -7.75 8.3 -7.9 8.6 -7.9 8.6 -7.95" fill="#333333" fill-opacity="0.16078432" fill-rule="evenodd" stroke="none"/>
    <path d="M0.8 -10.35 L0.85 -10.45 0.95 -10.55 1.05 -10.6 1.1 -10.65 1.25 -10.65 1.25 -10.7 1.45 -10.65 4.15 -8.2 5.75 -6.05 5.75 -5.4 5.8 -4.65 5.8 -4.05 Q5.2 -2.6 4.0 -1.65 2.7 -0.6 1.05 -0.6 L0.4 -0.4 0.1 -0.25 -0.2 -0.35 -0.4 -0.4 -0.45 -0.5 -0.55 -0.6 -0.75 -0.65 -2.4 -0.55 -4.05 -0.55 -5.9 -0.35 -6.4 -0.4 -6.45 -0.5 -6.6 -0.7 -6.65 -0.9 -6.65 -0.95 -6.65 -1.05 -6.65 -1.15 -6.65 -1.25 -6.6 -1.35 -6.55 -1.45 Q-4.4 -2.65 -1.8 -2.2 L-0.8 -2.25 1.2 -3.8 2.35 -4.7 2.6 -4.95 2.85 -5.25 2.95 -5.35 3.0 -5.45 3.0 -5.55 3.05 -5.65 3.15 -5.7 3.2 -5.8 3.3 -5.9 3.45 -5.95 3.55 -6.0 3.75 -6.05 3.75 -6.15 3.8 -6.35 3.85 -6.55 2.4 -8.3 Q1.45 -9.15 0.8 -10.2 L0.8 -10.3 0.8 -10.35" fill="#333333" fill-opacity="0.16078432" fill-rule="evenodd" stroke="none"/>
    <path d="M4.8 -3.35 L4.85 -3.45 8.2 -4.25 8.7 -4.8 9.05 -5.1 9.35 -5.45 9.6 -5.65 10.2 -6.25 10.6 -6.7 10.65 -7.15 10.7 -7.7 10.7 -7.8 10.7 -7.9 10.8 -8.1 10.8 -8.3 10.8 -8.35 10.85 -8.45 11.1 -8.7 11.15 -8.75 11.3 -9.0 11.35 -9.05 11.45 -8.8 11.6 -8.7 11.7 -8.65 11.8 -8.45 11.85 -8.35 11.85 -8.25 11.85 -8.05 11.95 -7.9 11.95 -7.8 12.0 -7.7 12.0 -7.6 12.0 -7.4 12.05 -7.3 12.05 -7.2 12.1 -6.3 11.95 -5.35 11.65 -5.05 11.5 -4.9 10.95 -3.7 Q10.6 -3.2 10.05 -3.0 9.75 -1.5 8.05 -1.1 L7.2 -0.85 Q5.8 -0.25 4.3 -0.25 L3.95 -0.55 3.9 -0.7 3.9 -0.8 3.85 -0.9 3.9 -1.0 3.9 -1.2 3.95 -1.3 4.05 -1.4 3.85 -1.65 3.8 -1.75 3.8 -1.95 3.8 -2.05 3.8 -2.15 3.8 -2.2 3.9 -2.4 4.4 -2.8 4.6 -2.9 4.6 -2.95 4.65 -3.15 4.8 -3.35" fill="#333333" fill-opacity="0.16078432" fill-rule="evenodd" stroke="none"/>
    <path d="M-6.4 -0.55 L-4.9 -0.55 -3.25 -0.1 -2.45 -0.1 -1.05 -0.05 -0.9 0.0 -0.85 0.05 -0.85 0.1 -0.8 0.15 -0.8 0.25 -0.75 0.25 -0.7 0.3 -0.65 0.25 -0.55 0.2 -0.5 0.15 -0.4 0.15 -0.3 0.1 -0.2 0.15 -0.05 0.2 0.0 0.25 0.25 0.45 0.35 0.65 0.35 0.75 0.3 0.8 0.3 0.9 0.25 0.95 0.2 1.0 0.05 1.05 -0.05 1.1 -0.3 1.1 -0.3 1.2 -0.35 1.25 -0.35 1.35 -0.4 1.4 -0.4 1.5 -0.4 1.6 -0.4 1.65 -0.4 1.85 -0.4 2.05 -0.45 2.3 -0.5 2.35 -0.55 2.4 -0.6 2.45 -0.65 2.5 -0.65 2.55 -0.7 2.6 -0.8 2.6 -0.85 2.65 -0.95 2.65 -1.1 2.65 -1.25 2.55 -1.3 2.5 -1.4 2.4 -1.4 2.25 -1.35 2.2 -1.3 2.15 -1.25 2.1 -1.25 2.05 -1.2 2.0 -1.2 1.9 -1.2 1.8 -1.2 1.75 -1.2 1.55 -1.2 1.35 -1.2 1.15 -2.05 1.05 -2.2 1.0 -2.25 1.0 -3.1 0.85 -5.7 0.6 -6.55 0.45 -6.55 0.4 -6.65 0.3 -6.75 0.25 -6.8 0.2 -6.8 0.15 -6.85 0.1 -6.85 0.0 -6.85 -0.1 -6.85 -0.15 -6.8 -0.25 -6.75 -0.35 -6.7 -0.4 -6.65 -0.45 -6.55 -0.5 -6.4 -0.5 -6.4 -0.55" fill="#333333" fill-opacity="0.16078432" fill-rule="evenodd" stroke="none"/>
    <path d="M-3.8 -0.75 L-3.8 -0.8 -3.65 -0.75 -3.6 -0.7 -3.5 -0.6 -3.45 -0.55 -3.4 -0.55 -3.3 -0.55 -3.2 -0.55 -3.1 -0.5 -3.05 -0.45 -3.0 -0.45 -2.05 -0.15 -1.6 0.1 -1.55 0.1 -1.3 0.1 -1.25 0.05 -1.15 0.0 -1.1 -0.05 -1.05 -0.05 -0.95 -0.05 -0.85 -0.05 -0.75 0.0 -0.65 0.1 -0.6 0.1 -0.55 0.25 -0.45 0.5 -0.4 0.7 -0.4 0.85 -0.35 1.1 -0.35 1.4 -0.35 1.6 -0.35 1.75 -0.4 1.85 -0.45 2.0 -0.5 2.15 -0.55 2.2 -0.65 2.25 -0.7 2.3 -0.7 2.35 -0.75 2.35 -0.75 2.4 -0.8 2.45 -0.95 2.55 -1.25 2.6 -2.0 2.8 -2.7 2.75 -2.75 2.75 -2.9 2.75 Q-3.6 3.05 -4.15 2.55 L-4.3 2.4 -4.35 2.1 -4.35 1.85 -4.3 1.65 -4.25 1.55 -3.8 1.15 -3.2 0.7 -3.75 0.3 -4.15 -0.15 -4.2 -0.25 -4.2 -0.35 -4.15 -0.5 -4.1 -0.6 -4.1 -0.65 -4.05 -0.7 -3.95 -0.75 -3.8 -0.75" fill="#333333" fill-opacity="0.16078432" fill-rule="evenodd" stroke="none"/>
    <path d="M3.2 -13.15 L1.45 -12.85 -0.3 -12.4 -0.5 -12.35 -1.4 -11.85 -0.05 -11.5 0.45 -11.25 0.8 -10.95 0.65 -10.85 -0.65 -11.05 -2.05 -11.3 -5.25 -11.1 -5.4 -11.1 -5.4 -11.15 -7.15 -10.75 -8.25 -10.5 -8.75 -10.3 Q-9.85 -9.8 -10.65 -8.7 L-11.45 -7.25 -11.75 -6.45 -11.9 -5.6 -11.9 -4.8 -11.75 -4.3 -11.5 -3.9 -10.85 -3.15 Q-10.15 -2.6 -9.35 -2.2 L-7.85 -1.6 -7.25 -1.45 -6.0 -1.15 -6.7 -1.7 -6.7 -1.8 -6.7 -1.85 -6.6 -1.95 -6.55 -2.05 -3.2 -1.05 -1.4 -0.7 0.8 -0.45 0.95 -0.55 1.85 -1.0 3.35 -1.8 4.4 -2.65 4.9 -3.45 5.0 -3.95 5.05 -4.55 4.95 -5.25 4.45 -6.65 3.4 -8.15 2.85 -8.7 1.7 -9.7 0.8 -10.5 0.75 -10.65 0.8 -10.75 0.9 -10.8 1.25 -10.8 1.85 -10.45 2.35 -10.15 3.3 -9.45 4.65 -8.1 5.55 -6.65 5.8 -5.75 5.8 -3.8 5.45 -2.6 5.1 -2.1 3.85 -0.85 5.05 -0.95 6.15 -1.15 7.2 -1.55 8.8 -2.25 10.25 -3.35 10.9 -4.05 11.65 -5.7 11.95 -7.65 11.8 -8.75 11.4 -10.0 10.15 -11.2 9.3 -11.85 8.55 -12.25 7.85 -12.55 7.15 -12.8 5.65 -13.1 4.05 -13.15 3.2 -13.15 M2.1 -13.75 L3.75 -14.0 5.6 -14.0 7.35 -13.6 8.35 -13.2 9.2 -12.7 9.35 -12.7 Q9.95 -11.85 10.8 -11.4 L11.05 -11.35 11.15 -11.25 11.4 -11.1 12.15 -9.85 12.55 -8.9 12.75 -7.85 12.8 -6.8 12.6 -5.7 11.95 -4.15 11.1 -3.1 10.2 -2.1 8.75 -1.05 7.45 -0.5 6.1 -0.2 4.65 0.0 2.9 -0.15 2.2 0.0 1.35 0.3 0.0 0.3 0.1 1.25 0.05 2.25 0.05 2.3 0.0 2.4 -0.05 2.5 -0.15 2.55 -0.3 2.65 -0.35 2.7 -0.55 2.75 -0.65 2.8 -0.8 2.75 -1.2 2.85 -1.65 3.15 -1.75 4.0 -1.75 4.3 Q-1.95 10.75 -1.5 17.05 -1.2 21.0 -0.5 24.65 L0.6 29.95 0.7 29.95 0.8 30.2 0.8 30.35 0.85 30.5 0.85 31.4 1.25 32.55 1.35 33.45 1.3 33.6 1.2 33.75 1.1 33.6 0.9 33.0 0.95 33.45 0.95 33.75 0.95 34.05 0.95 34.2 0.9 34.3 0.85 34.45 0.8 34.6 0.7 34.75 0.55 34.6 0.5 34.45 0.35 34.2 0.35 34.3 0.3 34.3 0.25 34.45 0.2 34.6 0.1 34.75 -0.05 34.6 -0.2 34.45 -0.25 34.3 -0.4 34.05 -0.45 34.05 -0.5 34.3 Q-0.7 34.75 -0.95 34.3 -1.05 34.05 -1.1 34.2 L-1.15 34.3 -1.3 34.45 -1.45 34.45 -1.4 35.05 -1.4 35.2 -1.45 35.35 -1.5 35.5 -1.6 35.35 -1.85 34.3 -2.05 33.75 -2.15 33.6 -2.55 32.0 -2.8 30.95 Q-3.95 25.7 -4.55 19.85 L-5.1 13.1 -5.05 6.95 Q-5.05 4.9 -4.7 2.85 L-4.7 2.8 -5.85 2.6 -6.8 2.15 -6.9 2.05 -7.0 1.95 -7.05 1.9 -7.05 1.8 -7.0 1.75 -6.95 1.7 -6.9 1.65 -6.85 1.65 -6.8 1.7 -6.85 1.6 -6.85 1.55 -6.9 0.5 -6.9 -0.4 -6.85 -0.55 -7.6 -0.8 -9.35 -1.25 -10.45 -1.85 -11.75 -3.0 -12.7 -4.55 -12.8 -5.15 -12.55 -6.95 -12.05 -7.85 -11.05 -9.4 -9.9 -10.5 -9.45 -10.8 -8.25 -11.9 -6.8 -12.65 Q-6.2 -12.9 -5.65 -13.25 L-3.7 -13.75 -1.8 -13.85 0.0 -13.95 1.1 -13.85 2.1 -13.75 M0.3 30.95 L-0.15 29.05 -0.15 29.5 0.0 30.1 0.3 31.25 0.3 30.95 M-6.45 -0.45 L-6.5 -0.1 -6.45 0.45 -6.45 0.55 -6.4 0.95 Q-6.3 1.2 -6.35 1.4 L-6.3 1.5 -6.25 1.65 -6.25 1.8 -6.25 1.9 -4.35 2.25 -1.25 2.3 -1.15 2.3 -1.0 2.25 -0.95 2.25 -0.85 2.25 -0.75 2.25 -0.65 2.3 -0.65 2.25 -0.55 2.15 -0.45 2.1 -0.5 1.1 -0.4 0.3 -2.1 0.1 -3.8 -0.3 -5.45 -0.25 -5.85 -0.35 -6.45 -0.45 M-6.25 -12.3 L-6.8 -11.95 -8.45 -11.0 -5.1 -11.85 Q-4.3 -12.45 -4.0 -12.95 L-6.25 -12.3 M-1.0 -13.25 L-2.35 -13.05 -2.7 -12.9 -3.3 -12.6 -4.3 -11.9 -2.2 -11.95 -2.25 -12.05 Q-0.85 -12.95 0.8 -13.4 L-1.0 -13.25 M-2.05 3.3 L-2.4 3.3 -2.3 3.6 -2.15 4.3 -2.1 4.45 -2.1 3.85 -2.05 3.3 M-4.6 10.15 L-4.65 10.0 -4.65 12.8 Q-4.3 19.55 -3.3 25.55 L-3.05 27.0 -2.9 27.3 -2.85 27.45 -2.85 27.75 -2.8 27.6 -2.75 27.6 -2.65 27.45 -2.65 27.15 -2.6 26.85 -2.5 26.85 -2.65 26.0 Q-2.75 25.85 -2.8 26.0 L-3.15 25.85 -3.2 25.7 -3.5 23.35 -3.8 21.45 -4.0 19.85 -4.0 19.55 -4.35 16.6 -4.6 11.5 -4.6 10.15 M-2.3 11.65 L-2.3 12.5 -2.3 12.8 -2.3 13.25 -2.3 13.95 -2.3 14.25 -2.15 15.45 -2.15 15.3 -2.2 10.0 -2.2 9.35 -2.25 9.45 -2.25 9.85 -2.3 10.15 -2.3 10.45 -2.3 11.65 M-1.4 27.45 L-1.5 27.15 -1.5 27.3 -1.5 27.6 -1.4 27.45 M-0.8 26.0 L-0.7 26.25 -0.8 25.85 -0.8 26.0 M-1.4 29.65 L-1.4 30.1 -1.45 30.2 -1.45 30.35 -1.3 30.95 -1.35 30.2 -1.4 29.65" fill="#333333" fill-rule="evenodd" stroke="none"/>
  </g>
</svg>
