<?xml version="1.0" encoding="UTF-8" standalone="no"?>
<svg xmlns:xlink="http://www.w3.org/1999/xlink" height="34.15px" width="51.65px" xmlns="http://www.w3.org/2000/svg">
  <g transform="matrix(1.0, 0.0, 0.0, 1.0, 25.85, 17.1)">
    <path d="M1.8 -8.0 L2.95 -6.05 3.65 -4.3 4.65 -0.9 Q5.15 1.45 5.15 3.5 L5.2 6.65 5.2 9.15 4.65 12.75 4.2 14.3 Q3.6 15.75 2.3 16.5 L1.5 17.05 1.4 17.0 1.05 15.85 1.55 14.8 2.15 14.0 2.3 13.6 2.6 12.95 Q2.85 12.55 3.2 7.95 3.5 3.35 2.5 -1.0 L0.55 -8.35 0.65 -8.45 1.05 -8.55 1.2 -8.35 1.7 -8.1 1.8 -8.0 M-10.7 1.3 Q-10.4 3.6 -10.45 5.95 L-10.65 7.6 Q-10.85 8.75 -11.55 10.25 -12.3 11.7 -13.3 12.8 L-13.95 12.3 Q-14.0 11.45 -13.65 10.75 -11.8 6.85 -12.1 2.85 -12.3 0.45 -12.85 -2.1 L-12.55 -3.15 Q-12.05 -3.55 -11.75 -2.85 -11.0 -0.85 -10.7 1.3 M-2.0 -4.15 L-1.45 -2.1 Q-0.95 -0.95 -0.8 0.25 L-0.45 5.1 Q-0.35 9.7 -1.5 14.1 L-1.5 14.75 -2.95 16.75 -3.9 16.75 -4.1 15.35 Q-3.4 13.5 -3.05 11.55 -2.15 6.5 -2.4 1.35 L-2.65 -0.5 Q-3.25 -3.9 -4.95 -7.05 L-4.6 -7.55 -3.85 -7.6 Q-2.9 -6.9 -2.85 -5.75 L-2.8 -5.65 Q-2.15 -5.05 -2.0 -4.15" fill="#ffffff" fill-rule="evenodd" stroke="none"/>
    <path d="M-6.85 -3.6 L-6.2 -0.15 -5.7 2.65 Q-5.5 3.6 -5.45 4.6 L-5.5 7.25 Q-5.7 10.35 -7.2 12.85 L-9.05 15.45 -9.65 15.25 -10.05 14.5 Q-9.0 12.5 -8.3 10.45 L-7.95 9.55 -7.8 9.05 -7.75 7.5 Q-7.25 4.2 -7.55 1.05 -7.8 -1.85 -8.6 -4.75 L-8.75 -5.7 -8.1 -5.9 -7.1 -4.45 -6.85 -3.6" fill="#ffffff" fill-rule="evenodd" stroke="none"/>
    <path d="M-24.8 -1.25 Q-22.95 -3.25 -20.45 -3.05 L-18.5 -2.55 Q-17.5 -2.05 -17.05 -1.25 L-16.9 -1.05 -16.6 0.5 Q-16.5 1.35 -16.75 1.95 L-17.25 2.8 -18.2 3.45 -18.4 3.55 -18.3 3.6 -18.25 3.65 -18.2 3.7 -18.1 3.75 Q-17.3 4.25 -16.85 5.15 L-16.75 5.35 -16.9 5.25 -17.05 5.15 -17.1 5.15 -17.2 5.1 -17.3 5.1 -17.35 5.05 -17.4 5.05 -18.1 5.05 -18.2 5.05 -18.25 5.1 -18.35 5.15 -18.45 5.25 -18.5 5.3 -18.5 5.35 -18.55 5.35 -18.55 5.4 -18.7 5.55 -18.7 5.6 -18.75 5.6 -18.75 5.7 -18.8 5.7 -18.8 5.85 -18.85 5.9 -18.85 6.05 -18.9 6.0 -18.9 5.95 -19.05 5.8 -19.1 5.8 -19.15 5.75 -19.2 5.7 -19.3 5.65 -19.35 5.65 -19.45 5.6 -19.55 5.55 -19.65 5.55 -19.75 5.55 -19.8 5.5 -19.9 5.5 -20.05 5.5 -20.05 5.45 -20.1 5.45 -20.85 5.45 -20.95 5.45 -21.0 5.5 -21.05 5.55 -21.1 5.55 -21.15 5.6 -21.35 5.8 -21.4 5.8 -21.45 5.85 -21.5 5.85 -21.5 5.9 -21.55 5.95 -21.55 6.0 -21.6 6.05 -21.65 6.05 -21.7 6.0 -21.8 5.9 -21.9 5.8 -21.95 5.75 -22.0 5.75 -22.0 5.7 -22.15 5.55 -22.3 5.45 -22.35 5.45 -22.55 5.4 -23.3 5.4 -23.4 5.45 -23.55 5.45 -23.6 5.5 -23.65 5.55 -23.7 5.55 -23.75 5.6 -23.8 5.65 -23.8 5.7 -23.85 5.7 -23.85 5.75 -23.9 5.75 -23.95 5.8 -24.0 5.85 -24.0 5.9 -24.05 5.85 -24.05 5.7 -24.1 5.7 -24.1 5.6 -24.15 5.6 -24.15 5.5 -24.2 5.45 -24.2 5.4 -24.25 5.4 -24.4 5.25 -24.5 5.15 -24.55 5.1 -24.8 5.05 -25.6 5.05 -25.65 5.05 -25.0 4.25 -24.55 3.75 -24.45 3.7 -24.4 3.7 Q-25.35 3.3 -25.7 2.35 -25.95 1.65 -25.8 1.0 L-25.8 0.85 -25.8 0.65 -25.7 0.5 -25.45 0.05 Q-25.35 -0.7 -24.8 -1.25 M-24.25 0.1 L-24.55 0.35 -24.8 0.55 -24.85 0.7 -24.9 0.7 -24.9 0.8 -24.9 1.1 -24.9 1.3 -24.9 1.5 -24.9 1.7 -24.9 1.75 -24.85 1.75 -24.85 1.8 -24.75 1.95 -24.35 2.25 -24.05 2.35 -23.75 2.4 -23.05 2.45 -22.6 2.3 -22.5 2.15 -22.4 2.0 -22.3 1.9 -22.3 1.8 -22.15 1.65 -22.15 1.6 -22.15 1.5 -22.15 1.25 -22.15 1.0 -22.25 0.75 -22.3 0.6 -22.35 0.55 -22.6 0.25 -22.95 0.0 -23.05 -0.05 -23.1 -0.05 -23.25 -0.05 -23.4 -0.1 -23.7 -0.1 -24.0 -0.05 -24.2 0.0 -24.25 0.1 M-19.45 -0.15 L-19.9 0.0 -20.15 0.2 -20.15 0.25 -20.25 0.25 -20.25 0.3 -20.3 0.35 -20.35 0.45 -20.4 0.55 -20.5 0.6 -20.5 0.65 -20.55 0.7 -20.55 0.8 -20.55 0.9 -20.55 1.0 -20.55 1.15 -20.55 1.3 -20.55 1.4 -20.55 1.5 -20.5 1.5 -20.5 1.65 -20.45 1.65 -20.45 1.7 -20.45 1.8 -20.35 1.95 -20.3 2.05 -20.2 2.2 -20.15 2.25 -18.8 2.5 Q-18.15 2.4 -17.7 1.95 L-17.65 1.9 -17.6 1.85 -17.6 1.8 -17.55 1.75 -17.55 1.65 -17.5 1.6 -17.5 1.5 -17.5 1.4 -17.5 1.3 -17.5 1.25 -17.5 1.15 -17.5 1.05 -17.55 1.0 -17.55 0.9 -17.55 0.8 -17.55 0.75 -17.6 0.75 -17.6 0.7 -17.65 0.65 -17.65 0.6 -17.75 0.5 -17.8 0.4 -17.8 0.35 -17.85 0.3 -17.95 0.2 -18.1 0.1 -18.3 -0.05 -18.35 -0.1 -18.4 -0.1 -18.5 -0.1 -18.65 -0.15 -18.9 -0.2 -18.95 -0.2 -19.45 -0.15 M-18.9 4.05 L-18.9 3.95 -19.05 3.8 -19.15 3.7 -19.2 3.65 -19.25 3.65 -19.3 3.6 -19.4 3.6 -19.6 3.6 -19.7 3.6 -19.75 3.65 -19.9 3.65 -19.95 3.7 -20.0 3.7 -20.0 3.75 -20.05 3.8 -20.1 3.8 -20.15 3.85 -20.2 3.9 -20.2 3.95 -20.25 4.0 -20.25 4.05 -20.3 4.1 -20.3 4.15 -20.35 4.2 -20.35 4.5 -20.3 4.5 -20.3 4.65 -20.25 4.7 -20.25 4.75 -20.2 4.75 -20.15 4.8 -19.65 4.8 -19.35 4.65 -19.3 4.65 -19.1 4.55 -18.95 4.4 -18.9 4.35 -18.9 4.25 -18.9 4.15 -18.9 4.05 M-18.3 6.05 L-18.3 5.9 -18.25 5.85 -18.2 5.8 -18.2 5.75 -18.15 5.75 -18.15 5.7 -18.05 5.6 -18.05 5.55 -17.45 5.55 -17.4 5.6 -17.35 5.65 -17.2 5.65 -17.15 5.7 -17.1 5.75 -17.05 5.8 -17.0 5.8 -17.0 5.9 -16.9 5.9 -16.9 6.0 -16.85 6.0 -16.85 6.05 -16.8 6.1 -16.8 6.2 -16.75 6.2 -16.75 6.4 -16.7 6.4 -16.7 6.5 -17.15 6.65 -17.65 6.9 -17.85 6.9 -17.95 6.9 -18.0 6.95 -18.35 6.95 -18.35 6.85 -18.4 6.8 -18.4 6.7 -18.4 6.65 -18.4 6.55 -18.4 6.4 -18.4 6.35 -18.35 6.35 -18.35 6.05 -18.3 6.05 M-20.85 6.05 L-20.75 5.95 -20.15 5.95 -20.15 6.0 -20.0 6.0 -19.95 6.05 -19.85 6.05 -19.7 6.05 -19.65 6.1 -19.6 6.1 -19.6 6.15 -19.45 6.15 -19.3 6.3 -19.3 6.35 -19.25 6.35 -19.25 6.5 -19.2 6.5 -19.2 6.55 -19.15 6.6 -19.15 6.7 -19.1 6.75 -19.1 6.8 -19.05 6.85 -19.0 6.9 -19.0 7.05 -18.95 7.05 -18.95 7.1 -21.1 7.2 -21.15 7.2 -21.25 7.2 -21.25 7.05 -21.25 6.85 -21.25 6.7 -21.25 6.65 -21.2 6.65 -21.2 6.5 -21.15 6.5 -21.15 6.3 -21.1 6.25 -21.0 6.15 -20.95 6.1 -20.9 6.1 -20.9 6.05 -20.85 6.05 M-22.6 3.5 L-22.75 3.45 -22.8 3.45 -23.0 3.45 -23.1 3.45 -23.15 3.5 -23.25 3.55 -23.35 3.65 -23.4 3.75 -23.45 3.8 -23.5 3.85 -23.5 4.25 -23.45 4.3 -23.4 4.4 -23.25 4.5 -23.2 4.55 -23.15 4.6 -23.1 4.6 -23.1 4.65 -23.05 4.65 -22.75 4.65 -22.65 4.6 -22.45 4.55 -22.25 4.45 -22.2 4.4 -22.15 4.35 -22.15 4.1 -22.15 4.0 -22.15 3.95 -22.2 3.9 -22.25 3.85 -22.25 3.8 -22.3 3.75 -22.3 3.7 -22.35 3.7 -22.35 3.65 -22.4 3.6 -22.45 3.55 -22.6 3.5 M-23.6 6.15 L-23.55 6.15 -23.35 5.95 -23.25 5.95 -23.2 5.9 -23.15 5.9 -22.6 5.9 -22.6 5.95 -22.45 5.95 -22.45 6.0 -22.4 6.05 -22.35 6.1 -22.25 6.15 -22.2 6.2 -22.05 6.35 -22.05 6.6 -22.0 6.6 -22.0 6.65 -22.0 6.75 -22.0 6.8 -22.0 6.9 -22.0 7.05 -21.95 7.05 -21.95 7.1 -21.9 7.15 -23.7 6.9 -23.7 6.8 -23.7 6.65 -23.7 6.5 -23.7 6.45 -23.65 6.4 -23.65 6.25 -23.6 6.25 -23.6 6.15 M-25.5 5.9 L-25.5 5.65 -25.45 5.65 -25.45 5.55 -24.85 5.55 -24.8 5.6 -24.75 5.65 -24.7 5.65 -24.7 5.7 -24.55 5.85 -24.55 6.05 -24.5 6.1 -24.5 6.25 -24.45 6.25 -24.45 6.3 -24.4 6.35 -24.4 6.45 -24.35 6.45 -24.35 6.5 -24.3 6.55 -24.3 6.7 -24.25 6.7 -24.25 6.75 -25.6 6.3 -25.6 6.2 -25.6 6.1 -25.6 6.05 -25.55 6.05 -25.55 5.9 -25.5 5.9" fill="#ffffff" fill-rule="evenodd" stroke="none"/>
    <path d="M13.95 -14.25 L14.45 -13.95 Q15.3 -13.35 14.45 -12.45 L14.3 -12.3 Q14.15 -10.85 12.75 -10.55 L11.6 -11.25 Q11.25 -11.5 11.25 -11.95 11.45 -12.9 11.9 -13.85 12.7 -14.75 13.95 -14.25 M15.45 -10.25 L15.45 -10.35 15.45 -10.45 16.3 -11.65 Q17.15 -12.15 18.1 -12.1 L18.3 -12.0 Q18.6 -11.45 18.5 -10.7 L18.5 -10.25 17.25 -9.0 15.9 -9.15 15.75 -9.8 Q15.45 -10.05 15.45 -10.25 M9.4 -16.0 L10.05 -15.6 Q10.4 -15.1 10.1 -14.45 9.95 -14.2 10.05 -13.8 L9.95 -12.7 Q8.9 -11.7 7.2 -11.8 L6.2 -12.2 6.05 -12.4 6.1 -13.15 6.25 -13.7 6.7 -15.45 6.75 -15.55 Q7.1 -16.05 7.9 -16.15 L9.4 -16.0 M4.4 -16.45 L4.4 -16.35 4.5 -15.8 4.35 -14.5 4.1 -13.35 3.85 -12.35 3.75 -12.25 3.15 -12.0 Q2.0 -11.8 0.9 -12.0 L0.4 -12.55 0.4 -12.65 0.35 -12.85 0.3 -13.7 0.1 -14.35 0.15 -16.1 0.3 -16.65 1.35 -17.0 3.3 -17.1 4.4 -16.45 M19.0 -8.5 L20.3 -9.5 21.0 -9.75 21.35 -9.55 Q21.8 -8.95 21.9 -8.15 L21.7 -7.95 21.05 -7.1 20.0 -6.5 19.1 -6.8 19.05 -6.85 19.0 -7.0 19.0 -8.5 M21.95 -5.65 L23.4 -5.85 Q24.0 -5.2 23.65 -4.3 L23.65 -4.2 22.55 -4.0 21.8 -4.6 21.8 -5.35 21.95 -5.65 M25.3 0.4 L25.45 0.4 25.65 0.55 25.75 0.7 25.8 0.8 25.8 0.9 25.8 1.25 25.75 1.45 25.75 1.55 25.7 1.65 25.55 1.75 25.35 1.8 25.1 1.85 24.95 1.85 24.75 1.8 24.7 1.8 24.6 1.75 24.55 1.65 24.5 1.55 24.45 1.45 24.45 1.35 24.45 1.1 24.45 0.9 24.45 0.8 24.55 0.7 24.6 0.6 24.7 0.5 24.95 0.45 25.3 0.4 M24.95 -1.9 L24.9 -1.55 24.85 -1.35 23.85 -1.15 Q23.65 -1.2 23.55 -1.3 L23.45 -1.4 23.35 -1.55 23.25 -1.85 23.25 -1.95 23.25 -2.05 23.3 -2.15 23.3 -2.25 23.35 -2.35 23.95 -2.55 24.6 -2.6 24.7 -2.55 24.8 -2.55 24.85 -2.5 24.95 -1.9 M-2.5 -15.95 Q-2.0 -15.05 -1.85 -14.05 -1.7 -13.1 -1.85 -12.2 -3.1 -11.15 -4.4 -12.05 L-5.1 -13.8 -5.15 -14.3 -5.3 -14.8 -5.25 -15.35 Q-4.4 -16.2 -3.55 -16.1 L-2.5 -15.95 M-7.5 -14.6 Q-7.1 -14.45 -7.15 -14.0 L-6.85 -12.15 Q-6.75 -11.65 -7.05 -11.1 -7.5 -10.5 -8.1 -11.0 L-8.8 -10.95 Q-9.8 -11.5 -10.1 -12.7 -10.3 -13.5 -10.0 -14.15 -8.8 -14.9 -7.5 -14.6 M-12.8 -12.1 L-12.2 -11.8 -11.45 -10.45 -11.15 -9.95 -11.25 -9.6 -11.3 -9.4 -11.5 -8.9 -12.0 -8.6 -12.65 -8.65 -13.25 -9.0 -14.2 -10.6 -14.2 -11.0 -14.15 -11.35 -14.1 -11.55 -13.6 -12.0 -12.8 -12.1 M-14.2 -7.15 L-14.5 -6.5 -15.3 -6.15 Q-16.7 -6.3 -17.15 -7.35 L-17.15 -8.35 -16.55 -9.1 -16.3 -9.15 Q-15.0 -8.7 -14.15 -7.6 L-14.2 -7.15 M-18.3 -5.65 L-17.85 -5.75 -17.35 -5.55 -17.0 -5.3 -16.95 -5.1 -16.85 -4.75 -16.95 -4.25 -17.15 -4.15 -17.35 -3.9 -17.75 -3.85 Q-18.55 -4.15 -18.85 -4.9 L-18.9 -5.0 -18.9 -5.15 -18.75 -5.35 -18.3 -5.65" fill="#ffffff" fill-rule="evenodd" stroke="none"/>
    <path d="M11.2 3.1 L11.25 3.1 11.25 3.15 11.3 3.2 11.3 3.25 11.4 3.25 11.4 3.3 11.45 3.3 11.6 3.3 11.75 3.25 11.9 3.25 12.0 3.2 12.05 3.2 12.05 3.15 12.1 3.1 12.1 2.7 11.9 2.5 11.8 2.5 11.65 2.5 11.5 2.5 11.45 2.55 11.4 2.6 11.4 2.65 11.35 2.65 11.35 2.7 11.3 2.7 11.3 2.75 11.25 2.75 11.25 2.8 11.2 2.85 11.2 3.1 M12.95 1.15 L12.75 1.2 12.65 1.3 12.65 1.35 12.6 1.35 12.6 1.45 12.6 1.6 12.6 1.75 12.6 1.9 12.6 1.95 12.65 1.95 12.65 2.0 12.7 2.0 12.7 2.05 12.75 2.05 12.75 2.1 12.85 2.1 12.9 2.15 12.95 2.15 13.35 2.1 13.5 2.0 13.55 1.95 13.55 1.7 13.55 1.6 13.55 1.55 13.5 1.5 13.5 1.3 13.45 1.25 13.4 1.2 13.35 1.2 13.35 1.15 13.25 1.15 13.15 1.15 13.05 1.15 12.95 1.15 M15.45 0.4 L15.4 0.35 15.35 0.3 15.3 0.25 15.25 0.25 15.15 0.2 15.1 0.15 15.05 0.15 14.95 0.15 14.9 0.15 14.85 0.2 14.8 0.2 14.8 0.25 14.75 0.25 14.75 0.3 14.7 0.3 14.7 0.4 14.65 0.4 14.6 0.45 14.55 0.45 14.55 0.5 14.5 0.5 14.4 0.6 14.4 0.65 14.35 0.65 14.35 0.85 14.35 0.95 14.35 1.0 14.4 1.0 14.4 1.1 14.45 1.15 14.55 1.25 14.65 1.35 15.25 1.3 15.4 1.25 15.45 1.25 15.45 1.2 15.55 1.1 15.6 1.05 15.6 0.9 15.6 0.8 15.6 0.7 15.55 0.65 15.55 0.55 15.5 0.55 15.5 0.5 15.45 0.45 15.45 0.4 M15.45 1.75 L15.05 1.9 14.05 2.25 Q13.5 2.45 12.75 3.15 12.0 3.7 11.75 4.3 L11.45 5.2 10.9 6.4 11.2 6.95 10.85 7.4 10.6 7.5 10.05 7.1 9.95 7.0 9.85 7.05 9.15 6.45 9.15 6.4 9.15 6.3 9.25 6.3 9.25 6.15 9.3 6.05 9.35 5.95 9.5 5.85 9.55 5.85 9.65 5.8 9.7 5.8 9.8 5.8 9.9 5.75 10.45 3.6 Q10.9 2.25 11.9 1.2 13.8 -0.45 16.0 -0.5 17.7 -0.4 18.9 0.4 L19.2 0.8 19.25 0.8 19.25 0.85 19.7 1.45 20.25 2.45 20.35 2.65 20.4 2.75 20.4 2.95 20.4 3.0 20.35 3.15 Q20.8 4.6 20.4 6.2 L19.15 8.65 17.5 10.3 17.5 10.45 17.55 10.45 17.55 10.5 17.6 10.65 17.6 10.75 17.6 10.85 17.6 11.0 17.5 11.05 17.45 11.1 17.4 11.2 17.3 11.25 17.3 11.3 Q16.8 11.2 16.35 10.9 L16.25 10.85 16.1 10.8 15.7 10.6 15.55 10.0 16.5 9.65 16.8 9.25 17.65 8.25 18.35 6.5 Q18.55 5.55 18.2 4.15 17.9 2.7 16.5 1.9 L15.45 1.75 M17.6 0.55 L17.55 0.5 17.45 0.5 17.25 0.5 17.15 0.5 17.1 0.55 17.05 0.6 17.05 0.65 17.0 0.65 17.0 0.75 16.95 0.75 16.95 0.8 16.9 0.8 16.9 0.85 16.85 0.85 16.85 1.0 16.85 1.15 16.85 1.25 16.85 1.35 16.9 1.5 17.05 1.65 17.2 1.8 17.8 1.8 18.05 1.65 18.1 1.6 18.1 1.55 18.15 1.55 18.25 1.45 18.3 1.45 18.3 1.4 18.35 1.35 18.35 1.05 18.3 1.0 18.25 0.95 18.25 0.9 18.2 0.8 18.05 0.7 18.0 0.7 17.8 0.6 17.6 0.55 M18.4 2.75 L18.4 2.85 18.45 2.9 18.45 3.2 18.5 3.25 18.55 3.3 18.65 3.4 18.7 3.4 18.75 3.45 19.3 3.4 19.45 3.3 19.55 3.2 19.55 3.15 19.55 3.05 19.55 2.95 19.55 2.85 19.55 2.65 19.55 2.55 19.45 2.45 19.35 2.35 19.3 2.35 19.2 2.25 18.95 2.25 18.9 2.3 18.85 2.35 18.65 2.4 18.55 2.45 18.5 2.45 18.5 2.5 18.45 2.5 18.45 2.55 18.4 2.55 18.4 2.65 18.4 2.75 M19.1 4.7 L19.05 4.75 19.05 4.85 19.05 4.95 19.05 5.1 19.05 5.2 19.05 5.25 19.1 5.25 19.1 5.3 19.15 5.35 19.15 5.4 19.2 5.45 19.25 5.45 19.25 5.5 19.3 5.5 19.45 5.5 19.6 5.45 19.7 5.45 19.8 5.4 20.05 5.15 20.05 4.95 20.05 4.85 20.05 4.8 20.0 4.75 20.0 4.7 19.95 4.7 19.95 4.65 19.9 4.6 19.8 4.5 19.7 4.5 19.4 4.5 19.35 4.5 19.25 4.5 19.25 4.55 19.2 4.55 19.1 4.65 19.1 4.7 M18.7 6.95 L18.7 7.05 18.7 7.1 18.75 7.1 18.75 7.15 18.85 7.25 18.95 7.35 19.3 7.35 19.6 7.2 19.7 7.1 19.7 6.75 19.65 6.7 19.65 6.65 19.6 6.65 19.6 6.6 19.5 6.5 19.4 6.4 19.3 6.4 19.1 6.4 19.0 6.4 18.95 6.45 18.9 6.5 18.8 6.6 18.7 6.7 18.7 6.95 M18.55 8.0 L18.25 8.0 18.2 8.05 18.15 8.1 18.15 8.15 18.1 8.15 18.1 8.25 18.1 8.35 18.1 8.45 18.15 8.5 18.15 8.55 18.2 8.6 18.25 8.6 18.25 8.65 18.35 8.65 18.45 8.65 18.55 8.65 18.6 8.6 18.65 8.55 18.7 8.5 18.7 8.15 18.65 8.1 18.6 8.05 18.55 8.0 M11.25 4.1 L11.15 4.0 10.9 4.0 10.85 4.05 10.8 4.1 10.8 4.15 10.75 4.2 10.75 4.25 10.7 4.35 10.7 4.4 10.75 4.45 10.75 4.5 10.9 4.65 11.0 4.65 11.2 4.65 11.25 4.6 11.3 4.6 11.3 4.55 11.35 4.5 11.35 4.25 11.3 4.2 11.3 4.15 11.25 4.1" fill="#ffffff" fill-rule="evenodd" stroke="none"/>
    <path d="M15.45 1.75 L16.5 1.9 Q17.9 2.7 18.2 4.15 18.55 5.55 18.35 6.5 L17.65 8.25 16.8 9.25 16.5 9.65 15.55 10.0 15.7 10.6 16.1 10.8 16.25 10.85 16.35 10.9 Q16.8 11.2 17.3 11.3 L17.3 11.25 17.4 11.2 17.45 11.1 17.5 11.05 17.6 11.0 17.6 10.85 17.6 10.75 17.6 10.65 17.55 10.5 17.55 10.45 17.5 10.45 17.5 10.3 19.15 8.65 20.4 6.2 Q20.8 4.6 20.35 3.15 L20.4 3.0 20.4 2.95 20.4 2.75 20.35 2.65 20.25 2.45 19.7 1.45 19.25 0.85 19.25 0.8 19.2 0.8 18.9 0.4 Q17.7 -0.4 16.0 -0.5 13.8 -0.45 11.9 1.2 10.9 2.25 10.45 3.6 L9.9 5.75 9.8 5.8 9.7 5.8 9.65 5.8 9.55 5.85 9.5 5.85 9.35 5.95 9.3 6.05 9.25 6.15 9.25 6.3 9.15 6.3 9.15 6.4 9.15 6.45 9.85 7.05 9.95 7.0 10.05 7.1 10.6 7.5 10.85 7.4 11.2 6.95 10.9 6.4 11.45 5.2 11.75 4.3 Q12.0 3.7 12.75 3.15 13.5 2.45 14.05 2.25 L15.05 1.9 15.45 1.75 Z" fill="none" stroke="#ffffff" stroke-linecap="round" stroke-linejoin="round" stroke-width="0.5"/>
  </g>
</svg>
