<?xml version="1.0" encoding="UTF-8" standalone="no"?>
<svg xmlns:xlink="http://www.w3.org/1999/xlink" height="34.2px" width="51.95px" xmlns="http://www.w3.org/2000/svg">
  <g transform="matrix(1.0, 0.0, 0.0, 1.0, 25.75, 17.1)">
    <path d="M11.85 -14.0 L12.3 -14.5 Q13.35 -14.9 14.4 -14.1 14.85 -13.55 14.7 -12.7 L14.35 -11.9 13.8 -10.85 Q12.5 -10.25 11.45 -11.3 11.1 -12.8 11.8 -13.95 L11.85 -14.0 M4.0 -17.1 L4.65 -16.4 4.75 -16.35 Q4.9 -14.7 4.6 -13.1 L4.4 -12.7 4.3 -12.3 1.4 -12.0 Q0.45 -12.75 0.25 -13.7 0.0 -15.0 0.3 -16.35 L1.45 -17.1 4.0 -17.1 M6.95 -15.0 Q7.05 -15.75 7.8 -16.2 9.7 -16.45 10.35 -14.65 10.45 -13.8 9.9 -13.2 L9.0 -12.0 6.75 -12.15 6.45 -12.95 6.6 -14.0 6.95 -15.0 M1.25 -8.25 L1.45 -8.05 Q2.15 -7.7 2.3 -6.9 L2.3 -6.8 Q3.3 -6.1 3.4 -5.0 L3.6 -3.85 4.0 -2.35 4.8 0.8 Q5.3 3.25 5.45 5.85 L5.4 9.65 5.1 10.1 Q4.7 13.4 3.45 16.35 L2.55 17.0 Q1.95 17.25 1.55 16.8 1.5 15.9 1.9 15.15 2.65 13.65 2.95 11.95 L3.35 8.3 3.25 3.9 3.15 3.3 3.1 3.2 Q2.9 -2.2 0.8 -7.2 0.6 -7.6 0.65 -8.05 L0.8 -8.3 1.25 -8.25 M18.65 -10.8 L18.65 -10.55 Q18.1 -9.4 16.8 -9.0 L15.9 -9.3 Q15.55 -9.7 15.65 -10.35 L17.0 -12.2 17.6 -12.25 18.3 -11.8 18.65 -10.8 M19.0 -7.45 L18.95 -8.05 Q19.2 -8.8 19.75 -9.25 L19.85 -9.35 21.05 -9.65 21.8 -8.65 21.85 -8.1 Q22.0 -7.65 21.55 -7.4 L21.05 -6.95 19.3 -6.9 Q18.9 -7.15 19.0 -7.45 M23.8 -4.8 L23.8 -4.65 22.6 -4.0 21.8 -4.4 21.65 -5.35 Q22.3 -6.05 23.45 -5.8 L23.8 -4.8 M24.85 -1.7 L24.8 -1.4 23.3 -1.5 Q23.0 -1.65 23.1 -1.95 23.3 -2.8 24.55 -2.8 24.8 -2.9 24.95 -2.65 L24.85 -1.7 M26.2 1.25 L24.5 1.2 24.6 1.0 24.8 0.5 24.85 0.4 24.95 0.35 26.2 0.2 26.2 1.25 M-25.35 -0.15 L-25.35 -0.25 -25.35 -0.5 -25.3 -0.5 -25.3 -0.55 -25.25 -0.6 -25.25 -0.65 -25.2 -0.75 -25.15 -0.85 -24.95 -1.1 -24.85 -1.2 -24.75 -1.3 -24.65 -1.5 -24.5 -1.65 -24.5 -1.75 -24.45 -1.8 -24.45 -1.85 -24.35 -1.95 -24.3 -1.95 -24.2 -2.0 -24.15 -2.05 -24.1 -2.1 -23.8 -2.25 -23.55 -2.3 -23.45 -2.3 -23.45 -2.35 -23.35 -2.4 -23.25 -2.45 -23.2 -2.5 -23.2 -2.55 -23.15 -2.6 -22.05 -2.95 -20.3 -3.0 -19.05 -2.8 Q-18.25 -2.65 -17.65 -2.1 L-17.4 -1.75 -17.3 -1.7 -17.3 -1.65 -17.25 -1.55 -17.2 -1.5 -17.2 -1.35 -17.05 -1.25 -17.0 -1.15 -16.9 -0.9 -16.9 -0.8 -16.85 -0.75 -16.85 -0.65 -16.8 -0.55 -16.8 -0.5 -16.75 -0.45 -16.75 -0.4 -16.7 -0.35 -16.7 0.1 -16.7 0.6 -16.7 1.0 -16.7 1.4 -16.7 1.5 -16.75 1.55 -16.75 1.6 -16.8 1.65 -16.85 1.7 -16.9 1.8 -16.9 1.85 -16.95 1.9 -16.95 1.95 -17.0 2.0 -17.05 2.05 -17.05 2.15 -17.1 2.2 -17.1 2.25 -17.15 2.3 -17.2 2.35 -17.25 2.4 -17.25 2.45 -17.3 2.5 -17.35 2.5 -17.4 2.6 -17.45 2.6 -17.5 2.65 -17.55 2.75 -17.6 2.8 -17.65 2.85 -17.7 2.9 -17.7 2.95 -17.75 3.0 -17.85 3.1 -18.05 3.2 -18.4 3.4 -18.6 3.55 -18.6 3.6 -18.55 3.65 -18.45 3.65 Q-18.2 3.75 -18.0 3.95 L-17.75 4.2 -17.5 4.5 -17.45 4.55 -17.4 4.55 -17.3 4.65 -17.15 4.85 -17.1 4.9 -17.05 4.95 -17.0 5.0 -17.0 5.05 -18.0 5.05 -18.05 5.05 -18.1 5.1 -18.15 5.1 -18.2 5.15 -18.25 5.15 -18.4 5.3 -18.5 5.35 -18.6 5.45 -18.65 5.5 -18.7 5.55 -18.7 5.6 -18.75 5.65 -18.8 5.7 -18.8 5.75 -18.85 5.8 -18.85 6.0 -18.9 6.0 -18.9 6.05 -19.0 6.05 -19.0 6.0 -19.05 6.0 -19.05 5.95 -19.15 5.85 -19.2 5.85 -19.3 5.75 -19.45 5.6 -19.65 5.55 -19.65 5.5 -19.7 5.5 -19.8 5.45 -20.6 5.45 -20.7 5.45 -20.75 5.5 -20.8 5.5 -20.85 5.55 -20.9 5.55 -20.95 5.6 -21.0 5.65 -21.05 5.7 -21.15 5.75 -21.2 5.8 -21.25 5.8 -21.3 5.85 -21.35 5.9 -21.35 5.95 -21.4 5.95 -21.45 6.0 -21.5 6.05 -21.5 6.1 -21.55 6.1 -21.55 6.15 -21.6 6.2 -21.65 6.15 -21.65 6.1 -21.7 6.1 -21.7 6.05 -21.8 5.95 -21.8 5.9 -21.9 5.9 -21.9 5.85 -21.95 5.85 -21.95 5.8 -22.05 5.7 -22.3 5.6 -22.5 5.55 -22.55 5.5 -22.6 5.45 -22.7 5.45 -22.8 5.45 -22.8 5.4 -22.85 5.4 -23.25 5.4 -23.35 5.45 -23.45 5.45 -23.5 5.5 -23.55 5.55 -23.65 5.6 -23.75 5.7 -23.75 5.75 -23.8 5.75 -23.8 5.85 -23.85 5.85 -23.85 5.95 -23.9 5.9 -23.9 5.85 -23.95 5.8 -23.95 5.75 -24.0 5.75 -24.0 5.7 -24.05 5.65 -24.05 5.6 -24.1 5.55 -24.2 5.45 -24.25 5.45 -24.3 5.4 -24.35 5.4 -24.5 5.3 -24.6 5.2 -24.65 5.2 -24.65 5.15 -24.75 5.15 -24.9 5.1 -25.0 5.05 -25.1 5.05 -25.1 5.0 -25.2 5.0 -25.45 5.0 -25.35 4.95 -25.25 4.85 -25.25 4.8 -25.2 4.8 -25.1 4.7 -25.05 4.6 -25.05 4.5 -25.0 4.45 -25.0 4.4 -24.95 4.35 -24.95 4.25 -24.9 4.2 -24.9 4.15 -24.8 4.1 -24.8 4.05 -24.75 4.0 -24.7 3.9 -24.65 3.85 -24.65 3.8 -24.65 3.75 -24.75 3.6 -25.1 3.15 -25.35 2.8 -25.5 2.45 -25.5 2.4 -25.6 2.3 -25.6 2.2 -25.65 2.15 -25.65 2.1 -25.65 1.75 -25.65 1.3 -25.65 1.0 -25.65 0.65 -25.65 0.55 -25.6 0.5 -25.6 0.25 -25.55 0.2 -25.45 0.0 -25.45 -0.05 -25.4 -0.1 -25.35 -0.15 M-23.4 -0.1 L-23.65 -0.1 -23.85 -0.05 -23.9 0.0 -23.95 0.0 -24.35 0.15 -24.55 0.3 -24.6 0.35 -24.65 0.4 -24.7 0.45 -24.7 0.5 -24.8 0.6 -24.8 0.65 -24.85 0.7 -24.85 0.75 -24.9 0.8 -24.9 0.85 -24.9 0.95 -24.9 1.1 -24.9 1.25 -24.9 1.5 -24.9 1.75 -24.45 2.2 Q-23.45 2.55 -22.5 2.2 L-22.45 2.15 -22.35 2.05 -22.3 1.95 -22.3 1.9 -22.25 1.85 -22.25 1.75 -22.25 1.6 -22.25 1.45 -22.25 1.3 -22.3 1.05 -22.3 0.75 -22.35 0.7 -22.35 0.65 -22.4 0.6 -22.45 0.5 -22.5 0.45 -22.55 0.4 -22.55 0.35 -22.6 0.3 -22.65 0.3 -22.7 0.2 -22.75 0.15 -22.85 0.1 -22.95 0.05 -23.05 0.0 -23.15 0.0 -23.2 -0.05 -23.25 -0.05 -23.3 -0.1 -23.4 -0.1 M-8.45 -14.8 L-7.6 -14.5 Q-6.95 -13.7 -6.7 -12.7 L-6.65 -12.0 Q-6.6 -11.6 -6.85 -11.2 -8.2 -10.4 -9.4 -11.45 L-10.0 -12.55 -10.4 -13.9 Q-10.1 -14.4 -9.3 -14.6 L-8.45 -14.8 M-5.3 -15.5 Q-4.75 -15.5 -4.5 -15.8 L-4.0 -16.05 -3.5 -16.25 -2.05 -15.4 Q-2.3 -14.15 -1.8 -12.95 L-1.75 -12.6 -1.75 -12.35 -2.0 -11.95 -2.0 -11.85 -4.05 -11.7 -4.4 -11.85 -4.65 -12.1 Q-5.3 -13.0 -5.6 -13.85 L-5.6 -13.95 -5.45 -15.2 -5.4 -15.5 -5.3 -15.5 M-11.1 -9.4 L-11.15 -9.3 Q-12.5 -8.25 -13.6 -9.65 L-14.1 -10.5 Q-14.15 -11.85 -12.95 -12.3 L-12.1 -12.05 Q-11.65 -11.7 -11.35 -11.0 -10.95 -10.25 -11.1 -9.4 M-14.25 -6.9 Q-14.7 -6.5 -15.4 -6.45 -16.25 -6.8 -16.75 -7.5 L-16.95 -7.8 Q-16.9 -8.7 -16.3 -9.3 -15.3 -9.4 -14.7 -8.6 L-14.2 -8.0 -14.25 -6.9 M-16.7 -4.7 L-16.7 -4.45 Q-17.15 -3.85 -18.0 -4.05 L-18.7 -4.9 -18.45 -5.8 Q-17.65 -5.95 -17.0 -5.5 -16.6 -5.25 -16.7 -4.7 M-19.5 -0.15 L-19.75 0.0 -19.8 0.05 -20.0 0.05 -20.1 0.05 -20.2 0.1 -20.3 0.15 -20.35 0.2 -20.4 0.25 -20.45 0.3 -20.5 0.3 -20.6 0.4 -20.6 0.5 -20.65 0.55 -20.65 0.65 -20.65 0.8 -20.65 0.95 -20.65 1.0 -20.65 1.15 -20.65 1.35 -20.65 1.45 -20.6 1.5 -20.6 1.55 -20.55 1.6 -20.5 1.7 -20.45 1.75 -20.35 1.9 -20.35 1.95 -20.25 2.05 -20.15 2.1 -20.1 2.15 -19.95 2.3 -19.85 2.4 -19.8 2.45 -19.7 2.45 -18.9 2.5 -18.4 2.3 -18.3 2.2 -18.25 2.15 -18.2 2.1 -18.15 2.05 -18.1 2.0 -18.05 2.0 -17.9 1.85 -17.85 1.8 -17.85 1.75 -17.8 1.65 -17.8 1.45 -17.8 1.25 -17.8 1.05 -17.8 0.65 -17.8 0.55 -17.8 0.5 -17.85 0.5 -17.85 0.45 -17.9 0.4 -17.95 0.3 -18.0 0.25 -18.05 0.2 -18.1 0.1 -18.2 0.0 -18.25 -0.05 -18.35 -0.05 -18.4 -0.1 -18.5 -0.1 -18.65 -0.15 -18.7 -0.15 -18.7 -0.2 -18.8 -0.2 -18.9 -0.2 -19.2 -0.2 -19.5 -0.15 M-12.45 -3.25 L-11.9 -3.0 -11.7 -2.8 -10.6 0.1 -10.35 0.85 Q-9.95 2.8 -10.1 4.7 L-10.25 6.3 -10.45 6.85 -10.65 7.55 Q-10.6 8.1 -10.85 8.65 L-11.7 10.2 -12.5 11.4 -13.2 12.55 -13.5 12.7 Q-14.05 12.25 -13.85 11.2 -13.65 10.2 -12.95 9.5 -12.7 7.3 -12.05 5.1 -11.55 3.5 -11.95 2.15 L-12.3 0.7 Q-12.7 -1.2 -12.7 -3.0 L-12.6 -3.2 -12.45 -3.25 M-4.9 -7.4 L-4.15 -7.65 Q-3.25 -7.35 -2.75 -6.45 L-2.1 -5.05 -1.35 -3.25 -1.15 -2.75 -0.65 -0.85 -0.4 0.8 -0.25 2.5 -0.15 4.05 -0.2 4.55 -0.25 5.7 -0.3 7.0 -0.3 8.35 Q-0.25 9.25 -0.5 10.3 L-0.8 12.05 -1.15 13.2 -1.55 13.55 -2.45 16.0 -3.55 16.8 -3.8 16.85 Q-4.3 16.1 -3.75 15.05 -3.3 14.3 -3.25 13.45 L-3.05 12.4 -2.85 11.55 -2.5 10.15 -2.4 10.0 -2.0 7.7 Q-1.75 6.95 -1.95 6.25 L-1.95 5.55 Q-1.8 4.65 -2.05 3.9 L-2.1 3.7 Q-2.2 2.2 -2.45 1.05 L-2.7 -0.4 -2.7 -0.55 -3.0 -1.85 -3.0 -1.9 -3.15 -2.8 -3.15 -3.0 -3.45 -4.05 -4.0 -5.05 -4.35 -6.05 Q-4.85 -6.3 -4.85 -6.9 L-4.9 -7.4 M-6.65 -3.15 L-6.25 -2.2 -5.8 -0.4 -5.7 1.05 -5.5 2.3 Q-5.35 3.2 -5.55 4.15 -5.7 4.75 -5.5 5.2 -5.2 5.95 -5.35 6.75 L-5.5 7.85 -5.75 8.9 -6.3 10.15 -6.55 10.5 Q-6.65 11.45 -7.15 12.55 L-7.55 13.15 -8.2 14.35 Q-8.4 15.05 -9.05 15.4 L-9.55 15.4 Q-9.8 14.7 -9.65 14.05 L-9.7 13.6 -8.85 12.35 -8.5 11.55 Q-7.7 8.05 -7.45 4.6 L-7.35 2.75 -7.25 2.6 -7.7 -0.25 -8.05 -2.7 -8.45 -4.4 -8.4 -5.4 -8.35 -5.6 Q-7.75 -5.6 -7.5 -5.0 L-7.4 -4.9 -6.65 -3.15 M-18.95 3.65 L-19.05 3.55 -19.25 3.45 -19.35 3.4 -19.45 3.4 -19.65 3.4 -19.75 3.4 -19.85 3.45 -19.95 3.5 -20.05 3.6 -20.2 3.75 -20.25 3.85 -20.3 3.9 -20.3 4.0 -20.3 4.1 -20.3 4.2 -20.3 4.3 -20.3 4.35 -20.25 4.4 -20.25 4.5 -20.2 4.55 -20.15 4.6 -20.05 4.65 -20.0 4.7 -19.95 4.7 -19.8 4.75 -19.15 4.65 -19.0 4.55 -18.9 4.45 -18.9 4.4 -18.85 4.35 -18.85 4.3 -18.8 4.3 -18.8 3.9 -18.85 3.85 -18.85 3.8 -18.9 3.75 -18.95 3.65 M-19.9 6.0 L-19.85 6.05 -19.75 6.05 -19.7 6.1 -19.65 6.15 -19.6 6.15 -19.5 6.25 -19.4 6.35 -19.35 6.4 -19.2 6.55 -19.15 6.55 -19.15 6.6 -19.1 6.6 -19.1 6.65 -19.05 6.7 -19.05 6.9 -19.05 7.0 -19.05 7.1 -19.0 7.1 -19.0 7.15 -18.95 7.2 -19.85 7.3 -21.35 7.35 -21.35 7.25 -21.35 7.15 -21.35 7.05 -21.35 6.95 -21.3 6.9 -21.3 6.6 -21.25 6.6 -21.2 6.55 -21.15 6.55 -21.15 6.5 -21.1 6.45 -21.0 6.35 -21.0 6.3 -20.95 6.3 -20.9 6.25 -20.75 6.15 -20.7 6.1 -20.55 6.0 -20.5 5.95 -20.0 5.95 -19.9 6.0 M-17.85 5.55 L-17.15 5.55 -17.1 5.6 -17.05 5.6 -17.0 5.65 -16.9 5.65 -16.85 5.7 -16.8 5.75 -16.75 5.75 -16.7 5.8 -16.7 6.05 -16.65 6.1 -16.65 6.15 -16.65 6.3 -16.65 6.4 -16.65 6.6 -16.7 6.65 -16.7 6.7 -16.75 6.75 -16.8 6.8 -17.1 6.8 -17.95 6.95 -18.35 7.05 -18.35 7.0 -18.35 6.9 -18.35 6.8 -18.35 6.75 -18.4 6.7 -18.4 6.5 -18.4 6.4 -18.4 6.3 -18.4 6.25 -18.35 6.2 -18.35 6.0 -18.3 5.95 -18.25 5.9 -18.2 5.85 -18.2 5.8 -18.15 5.8 -18.15 5.75 -18.1 5.75 -18.05 5.7 -18.0 5.7 -18.0 5.65 -17.95 5.6 -17.9 5.6 -17.85 5.55 M-23.25 3.4 L-23.35 3.45 -23.5 3.6 -23.5 3.65 -23.55 3.7 -23.55 3.9 -23.55 4.0 -23.55 4.1 -23.55 4.15 -23.5 4.2 -23.5 4.3 -23.4 4.4 -22.8 4.65 -22.25 4.55 -22.15 4.45 -22.15 4.4 -22.1 4.35 -22.1 4.3 -22.05 4.3 -22.05 4.25 -22.05 4.15 -22.05 4.05 -22.05 3.95 -22.05 3.8 -22.05 3.7 -22.05 3.65 -22.1 3.6 -22.1 3.55 -22.15 3.55 -22.15 3.5 -22.25 3.4 -22.35 3.35 -22.45 3.3 -22.55 3.3 -22.75 3.3 -23.05 3.35 -23.25 3.4 M-24.7 5.75 L-24.6 5.8 -24.55 5.85 -24.45 5.95 -24.45 6.0 -24.4 6.0 -24.4 6.1 -24.35 6.15 -24.3 6.2 -24.3 6.4 -24.25 6.4 -24.25 6.45 -24.2 6.5 -24.2 6.55 -24.2 6.75 -24.2 7.0 -25.55 6.65 -25.6 6.6 -25.7 6.5 -25.7 6.45 -25.75 6.4 -25.75 6.2 -25.75 6.1 -25.75 6.05 -25.7 6.0 -25.7 5.8 -25.65 5.8 -25.65 5.75 -25.6 5.75 -25.6 5.7 -25.55 5.65 -25.55 5.6 -25.5 5.55 -25.45 5.55 -25.4 5.5 -25.35 5.5 -25.25 5.5 -25.25 5.55 -25.1 5.55 -25.05 5.6 -25.0 5.6 -24.95 5.65 -24.9 5.65 -24.85 5.7 -24.8 5.7 -24.75 5.75 -24.7 5.75 M-23.35 6.05 L-23.3 6.0 -23.25 5.95 -23.2 5.95 -23.15 5.9 -23.1 5.9 -22.95 5.9 -22.95 5.95 -22.8 5.95 -22.75 6.0 -22.7 6.0 -22.65 6.05 -22.55 6.05 -22.5 6.1 -22.4 6.1 -22.35 6.15 -22.3 6.2 -22.3 6.25 -22.25 6.3 -22.15 6.35 -22.15 6.4 -22.1 6.4 -22.1 6.45 -22.05 6.5 -22.05 6.55 -22.0 6.55 -22.0 6.65 -21.95 6.65 -21.95 6.75 -21.95 6.9 -21.95 7.2 -21.95 7.3 -23.6 7.1 -23.6 6.9 -23.55 6.9 -23.55 6.8 -23.5 6.8 -23.5 6.75 -23.45 6.7 -23.45 6.35 -23.4 6.3 -23.4 6.15 -23.35 6.15 -23.35 6.05" fill="#ffffff" fill-rule="evenodd" stroke="none"/>
    <path d="M19.2 7.7 L19.2 7.65 19.15 7.7 19.05 7.65 19.0 7.7 18.95 7.65 18.9 7.65 18.9 7.6 18.8 7.45 18.8 7.35 18.7 7.2 18.7 7.05 18.7 7.0 18.75 7.0 18.75 6.9 19.1 6.7 19.35 6.8 19.4 6.9 19.5 7.0 19.55 7.15 19.55 7.25 19.5 7.3 19.5 7.35 19.55 7.35 19.5 7.35 19.5 7.4 19.45 7.45 19.5 7.5 19.45 7.5 19.4 7.6 19.2 7.7 M20.05 5.25 L20.1 5.4 20.05 5.55 20.0 5.6 20.0 5.65 19.9 5.7 19.8 5.75 19.65 5.85 19.55 5.9 19.5 5.95 19.5 5.9 19.45 5.9 19.4 5.85 19.35 5.9 19.35 5.85 19.3 5.85 19.25 5.75 19.15 5.8 19.15 5.75 19.0 5.35 19.0 5.15 19.05 5.1 Q19.1 5.05 19.25 4.95 L19.35 4.9 19.4 4.9 19.6 4.8 19.7 4.85 19.75 4.85 19.8 4.9 19.85 4.9 19.9 5.0 19.95 5.05 20.0 5.15 20.05 5.25 M19.4 2.65 L19.45 2.7 19.55 2.7 19.6 2.75 19.65 2.8 19.75 2.85 19.8 2.9 19.85 2.9 19.9 3.0 19.9 3.05 19.9 3.1 19.9 3.15 19.85 3.2 19.9 3.25 19.85 3.25 19.75 3.3 19.8 3.35 19.8 3.45 19.85 3.5 19.8 3.5 19.8 3.55 19.75 3.7 19.7 3.75 19.75 3.8 19.6 3.9 19.5 3.95 19.45 3.95 19.4 3.9 19.3 3.95 19.15 3.9 19.0 3.85 18.75 3.3 18.7 3.15 18.7 3.1 18.75 3.05 18.75 2.95 18.75 2.9 18.9 2.8 19.0 2.75 19.05 2.7 19.15 2.75 19.25 2.7 19.25 2.75 19.3 2.7 19.4 2.7 19.4 2.65 M18.25 3.35 L18.35 3.75 18.5 4.85 18.4 6.4 17.9 7.85 17.25 8.55 Q16.8 8.9 16.5 9.6 L15.85 9.65 Q15.65 9.75 15.65 10.15 L15.7 10.4 16.3 10.7 16.45 10.75 16.45 10.85 17.35 11.2 17.4 11.15 Q17.35 11.05 17.45 11.1 L17.4 11.0 17.55 10.95 17.6 10.85 17.65 10.75 17.65 10.6 17.65 10.55 17.65 10.4 17.6 10.35 17.55 10.25 17.55 10.2 19.15 8.6 Q20.05 7.55 20.5 6.15 20.95 3.7 19.9 1.75 18.95 0.3 17.65 -0.3 L17.2 -0.4 17.15 -0.35 16.35 -0.45 15.25 -0.45 15.05 -0.4 14.9 -0.4 14.7 -0.3 14.65 -0.3 14.6 -0.15 Q13.1 0.15 11.9 1.3 10.9 2.35 10.45 3.6 L9.8 5.85 9.65 5.95 9.65 5.9 9.45 5.95 9.35 6.0 9.25 6.05 9.15 6.1 9.15 6.25 9.15 6.3 9.05 6.4 9.1 6.5 9.05 6.5 9.9 7.15 9.95 7.25 10.05 7.3 10.45 7.55 11.05 7.4 10.85 6.4 11.05 5.95 11.55 4.7 Q11.95 3.9 12.7 3.2 13.4 2.6 14.8 2.2 16.2 1.7 17.6 2.5 L18.25 3.35 M18.2 0.9 L18.3 0.9 18.35 1.0 18.45 1.15 18.5 1.25 18.45 1.35 18.45 1.4 18.4 1.45 18.4 1.5 18.3 1.55 18.35 1.55 18.35 1.6 18.3 1.65 18.35 1.7 18.2 1.75 18.1 1.85 18.0 1.9 17.9 1.95 17.7 1.95 17.55 1.95 17.3 1.85 17.0 1.35 17.05 1.05 17.05 1.0 17.1 1.0 17.1 0.95 17.1 0.8 17.05 0.75 17.1 0.7 17.15 0.65 17.4 0.5 17.45 0.5 17.55 0.55 17.6 0.5 17.7 0.5 17.85 0.55 17.85 0.6 18.05 0.75 18.2 0.9 M16.0 1.25 L15.9 1.3 15.8 1.35 15.75 1.3 15.5 1.45 15.4 1.5 15.35 1.45 15.25 1.4 15.2 1.35 15.15 1.35 14.9 0.85 14.9 0.65 14.95 0.5 15.0 0.5 15.1 0.45 15.15 0.4 15.25 0.35 15.45 0.25 15.5 0.2 15.65 0.25 15.8 0.3 15.8 0.35 15.9 0.35 16.05 0.6 16.05 0.65 16.05 0.75 16.1 0.9 16.1 1.05 16.1 1.1 16.05 1.1 16.1 1.1 16.05 1.15 16.05 1.2 16.0 1.25 M13.85 1.65 L13.85 1.75 13.75 1.8 13.7 1.85 13.55 1.9 13.45 1.95 13.4 2.0 13.35 1.95 13.3 1.95 13.25 1.95 13.15 1.95 13.1 1.95 13.05 1.9 13.0 1.75 12.95 1.65 12.9 1.55 12.9 1.4 13.0 1.1 13.2 1.0 13.25 0.95 13.3 0.9 13.35 0.95 13.4 0.9 13.45 0.95 13.5 0.95 13.55 0.9 13.65 0.95 13.7 1.05 13.85 1.3 13.9 1.35 13.95 1.45 13.95 1.5 13.9 1.65 13.85 1.65 M12.0 3.2 L11.95 3.2 11.95 3.15 11.95 3.2 11.8 3.2 11.65 3.15 11.45 2.85 11.45 2.5 11.45 2.35 11.8 2.2 11.85 2.2 11.9 2.2 11.9 2.25 11.95 2.2 12.1 2.2 12.25 2.25 12.3 2.35 12.4 2.5 12.45 2.6 12.45 2.7 12.4 2.75 12.35 2.85 12.3 3.0 12.1 3.15 12.0 3.2 M11.15 3.75 L11.2 3.8 11.3 3.8 11.45 4.05 11.4 4.15 11.4 4.2 11.35 4.25 11.35 4.3 11.3 4.35 11.2 4.4 11.1 4.45 11.05 4.4 11.0 4.45 10.9 4.4 10.9 4.35 10.9 4.4 10.85 4.3 10.8 4.2 10.75 4.15 10.7 4.05 10.75 4.0 10.75 3.9 11.05 3.75 11.15 3.75 M18.3 8.15 L18.45 8.2 18.55 8.4 18.55 8.5 18.5 8.55 18.5 8.6 18.5 8.65 18.45 8.7 18.35 8.8 18.3 8.8 18.25 8.8 18.2 8.8 18.0 8.75 17.95 8.7 17.85 8.5 17.9 8.4 17.85 8.35 17.9 8.35 17.9 8.25 18.15 8.15 18.2 8.15 18.25 8.15 18.3 8.15" fill="#ffffff" fill-rule="evenodd" stroke="none"/>
    <path d="M18.25 3.35 L17.6 2.5 Q16.2 1.7 14.8 2.2 13.4 2.6 12.7 3.2 11.95 3.9 11.55 4.7 L11.05 5.95 10.85 6.4 11.05 7.4 10.45 7.55 10.05 7.3 9.95 7.25 9.9 7.15 9.05 6.5 9.1 6.5 9.05 6.4 9.15 6.3 9.15 6.25 9.15 6.1 9.25 6.05 9.35 6.0 9.45 5.95 9.65 5.9 9.65 5.95 9.8 5.85 10.45 3.6 Q10.9 2.35 11.9 1.3 13.1 0.15 14.6 -0.15 L14.65 -0.3 14.7 -0.3 14.9 -0.4 15.05 -0.4 15.25 -0.45 16.35 -0.45 17.15 -0.35 17.2 -0.4 17.65 -0.3 Q18.95 0.3 19.9 1.75 20.95 3.7 20.5 6.15 20.05 7.55 19.15 8.6 L17.55 10.2 17.55 10.25 17.6 10.35 17.65 10.4 17.65 10.55 17.65 10.6 17.65 10.75 17.6 10.85 17.55 10.95 17.4 11.0 17.45 11.1 Q17.35 11.05 17.4 11.15 L17.35 11.2 16.45 10.85 16.45 10.75 16.3 10.7 15.7 10.4 15.65 10.15 Q15.65 9.75 15.85 9.65 L16.5 9.6 Q16.8 8.9 17.25 8.55 L17.9 7.85 18.4 6.4 18.5 4.85 18.35 3.75 18.25 3.35 Z" fill="none" stroke="#ffffff" stroke-linecap="round" stroke-linejoin="round" stroke-width="0.5"/>
  </g>
</svg>
