<?xml version="1.0" encoding="UTF-8" standalone="no"?>
<svg xmlns:xlink="http://www.w3.org/1999/xlink" height="10.9px" width="28.0px" xmlns="http://www.w3.org/2000/svg">
  <g transform="matrix(1.0, 0.0, 0.0, 1.0, -72.7, -5.8)">
    <path d="M98.05 13.5 L98.15 13.7 Q99.05 14.05 99.9 14.55 100.5 14.9 100.7 15.6 L100.65 15.7 100.6 16.0 100.55 16.15 100.5 16.25 100.45 16.4 100.3 16.5 100.15 16.6 99.9 16.65 98.75 16.7 Q96.3 16.9 94.45 15.45 L93.8 15.05 93.65 14.95 93.55 14.75 93.45 14.6 93.4 14.45 93.4 14.3 93.45 14.05 93.5 13.9 93.6 13.75 93.7 13.65 93.85 13.55 93.95 13.45 94.0 13.3 94.15 13.05 94.25 12.95 94.45 12.8 95.7 12.65 97.2 12.85 97.55 13.0 97.9 13.35 98.05 13.5 M81.15 7.35 L81.3 7.45 81.45 7.65 81.55 7.8 81.65 8.0 81.7 8.15 81.7 8.3 81.7 8.4 81.65 8.55 81.7 8.85 81.7 9.0 81.65 9.15 81.65 9.3 81.6 9.45 81.55 9.55 81.6 9.75 81.65 9.9 81.7 10.05 81.65 10.2 81.4 11.15 81.25 11.7 81.2 11.85 81.15 11.95 81.15 12.1 81.05 12.25 80.95 12.35 80.95 12.5 80.9 12.6 80.85 12.75 80.8 12.9 80.75 13.0 80.65 13.15 80.65 13.3 80.65 13.45 80.6 13.6 80.55 13.7 80.5 13.85 80.45 14.0 80.35 14.1 80.25 14.2 80.05 14.3 79.8 14.4 79.7 14.4 79.65 14.4 79.5 14.5 Q76.15 14.55 73.45 12.8 L73.3 12.35 Q72.9 12.0 72.75 11.45 L72.75 10.9 72.8 10.75 72.85 10.6 72.9 10.5 72.95 10.35 72.9 10.3 72.85 10.15 72.8 9.95 72.8 9.8 72.8 9.7 72.75 9.5 72.75 9.35 72.9 8.8 73.05 8.25 73.1 8.0 73.15 7.85 73.55 7.2 74.25 6.25 74.65 5.9 74.95 5.85 75.6 5.8 76.15 5.85 76.15 5.9 76.7 6.1 76.9 6.2 76.95 6.3 77.05 6.4 80.9 7.2 81.15 7.35 M91.25 11.7 L91.25 11.85 90.95 12.95 90.65 13.6 90.5 13.75 90.4 14.0 90.35 14.15 90.25 14.55 90.2 14.7 90.1 14.8 90.05 14.9 89.9 15.05 89.55 15.2 88.15 15.4 Q86.0 15.25 84.2 14.15 L84.1 13.85 84.0 13.5 84.0 13.35 84.0 13.2 84.05 13.1 84.05 12.8 84.05 12.65 84.05 12.5 84.1 12.2 84.3 11.55 84.5 11.0 84.5 10.85 84.6 10.75 84.7 10.6 84.8 10.5 84.85 10.35 84.9 10.1 85.0 9.8 85.05 9.7 85.3 9.45 85.4 9.35 85.6 9.25 Q86.2 9.1 86.8 9.25 L88.65 9.7 90.15 10.2 90.25 10.3 90.35 10.4 90.45 10.6 90.65 10.75 90.85 10.9 91.0 11.2 91.2 11.55 91.25 11.7" fill="#ffffff" fill-rule="evenodd" stroke="none"/>
  </g>
</svg>
