<?xml version="1.0" encoding="UTF-8" standalone="no"?>
<svg xmlns:xlink="http://www.w3.org/1999/xlink" height="9.85px" width="2.6px" xmlns="http://www.w3.org/2000/svg">
  <g transform="matrix(1.0, 0.0, 0.0, 1.0, 1.3, 4.9)">
    <path d="M1.1 -0.35 L1.0 1.4 1.0 1.65 0.8 2.75 0.65 3.35 0.55 4.0 Q0.85 3.9 0.8 3.45 0.75 2.8 1.05 2.6 L1.3 3.65 1.25 4.45 0.95 4.5 0.9 4.7 0.15 4.95 Q-0.5 4.95 -0.5 4.6 L-0.5 4.45 -0.65 4.35 -0.85 3.75 -0.85 3.7 -0.65 3.6 -0.6 3.65 -1.05 2.2 -1.3 0.3 Q-1.3 -2.25 -0.9 -3.6 -0.6 -4.95 0.1 -4.9 L-0.25 -4.55 -0.05 -3.95 -0.05 -4.25 0.35 -4.7 Q1.1 -1.5 1.1 -0.35 M-0.45 -3.25 L-0.55 -2.9 -0.55 -2.8 -0.5 -2.8 -0.4 -3.35 -0.45 -3.25 M-0.65 -0.85 L-0.65 -0.15 -0.6 0.25 Q-0.4 2.0 0.0 2.45 L-0.6 -2.65 -0.65 -0.85" fill="#333333" fill-rule="evenodd" stroke="none"/>
  </g>
</svg>
