<?xml version="1.0" encoding="UTF-8" standalone="no"?>
<svg xmlns:xlink="http://www.w3.org/1999/xlink" height="8.5px" width="4.35px" xmlns="http://www.w3.org/2000/svg">
  <g transform="matrix(1.0, 0.0, 0.0, 1.0, 1.2, 3.45)">
    <path d="M0.0 -3.1 L0.15 -3.25 0.6 -1.1 0.7 -0.8 Q0.8 -0.45 2.0 1.05 3.15 2.45 3.15 3.05 L3.05 3.6 3.15 4.1 3.15 4.15 3.15 4.25 3.15 4.75 Q3.0 5.05 2.25 5.05 1.8 5.05 1.1 3.85 L0.7 3.1 Q-0.6 2.5 -1.2 -1.05 -1.2 -3.45 -0.3 -3.45 0.1 -3.45 0.0 -3.15 L0.0 -3.1 M2.5 3.05 L2.55 3.05 2.3 2.65 2.5 3.05 M0.4 0.1 L-0.35 -2.35 -0.35 -2.05 -0.35 -2.0 -0.3 -1.95 -0.3 -1.8 -0.3 -1.75 0.05 0.0 Q0.5 1.7 0.85 1.8 L0.4 0.1 M-0.7 -1.6 L-0.75 -1.6 -0.3 0.4 -0.7 -1.35 -0.7 -1.55 -0.7 -1.6" fill="#333333" fill-rule="evenodd" stroke="none"/>
  </g>
</svg>
