<?xml version="1.0" encoding="UTF-8" standalone="no"?>
<svg xmlns:xlink="http://www.w3.org/1999/xlink" height="9.65px" width="2.3px" xmlns="http://www.w3.org/2000/svg">
  <g transform="matrix(1.0, 0.0, 0.0, 1.0, 0.55, 4.55)">
    <path d="M0.95 3.6 L0.65 3.7 0.45 3.6 0.45 4.1 0.45 4.45 0.7 4.6 0.95 4.25 0.95 3.6 M1.2 2.95 L1.15 2.95 1.2 3.35 1.25 3.25 1.2 2.95 M0.1 -4.55 L0.25 -4.25 1.0 -2.45 1.35 -0.7 1.35 0.05 1.75 2.8 1.75 3.5 1.75 3.75 Q1.7 5.1 0.65 5.1 L0.35 4.95 0.1 5.1 -0.15 4.85 -0.25 4.45 -0.55 -3.3 -0.3 -4.1 Q0.6 -2.6 1.1 0.25 L0.6 -2.25 0.1 -4.1 0.1 -4.2 -0.15 -4.4 0.1 -4.55" fill="#333333" fill-rule="evenodd" stroke="none"/>
  </g>
</svg>
