<?xml version="1.0" encoding="UTF-8" standalone="no"?>
<svg xmlns:xlink="http://www.w3.org/1999/xlink" height="6.1px" width="5.0px" xmlns="http://www.w3.org/2000/svg">
  <g transform="matrix(1.0, 0.0, 0.0, 1.0, 4.15, 4.3)">
    <path d="M-1.35 0.55 L-1.65 0.4 -1.65 0.65 -1.35 0.8 -1.35 0.55 M-2.35 -1.55 L-2.3 -1.9 -2.6 -1.3 -2.3 -0.85 -2.35 -1.55 M-3.3 -0.95 L-3.1 -0.7 -3.2 -0.9 -3.3 -0.95 M-3.4 -1.95 L-3.45 -1.9 -3.35 -1.5 -3.4 -1.95 M-2.8 -3.5 L-2.7 -3.55 -2.35 -3.65 -2.8 -3.5 M-0.7 -3.25 L-1.3 -3.2 -1.5 -3.05 -1.4 -3.0 -0.7 -3.25 M-0.3 -3.9 L-0.8 -3.85 -0.3 -3.8 -0.3 -3.9 M-1.7 -3.15 L-1.6 -3.1 -1.5 -3.2 -1.7 -3.15 M0.85 -3.3 L0.0 -3.1 -0.45 -3.1 -1.2 -2.8 -1.2 -2.75 -1.6 -2.6 -1.8 -2.45 -1.85 -1.7 -1.75 -0.75 -1.0 -0.15 -0.7 0.0 -0.45 0.15 -0.5 0.2 Q0.0 0.6 0.0 1.1 0.0 1.5 -0.6 1.55 L-0.6 1.8 -0.95 1.8 -1.15 1.65 -1.25 1.65 Q-2.15 1.65 -2.3 1.25 L-3.45 0.25 Q-4.15 -0.7 -4.15 -1.45 L-4.0 -2.75 -4.05 -2.85 -3.4 -3.55 -2.0 -4.0 -1.5 -3.95 -0.75 -4.15 -0.25 -4.15 0.2 -4.2 Q0.85 -3.85 0.85 -3.5 L0.85 -3.3" fill="#333333" fill-rule="evenodd" stroke="none"/>
  </g>
</svg>
