<?xml version="1.0" encoding="UTF-8" standalone="no"?>
<svg xmlns:xlink="http://www.w3.org/1999/xlink" height="9.15px" width="5.3px" xmlns="http://www.w3.org/2000/svg">
  <g transform="matrix(1.0, 0.0, 0.0, 1.0, 0.85, 4.2)">
    <path d="M0.35 -3.7 L0.2 -3.9 0.45 -3.9 -0.25 -4.0 0.35 -3.7 M0.5 -3.85 L1.0 -3.2 2.85 -0.9 Q4.25 1.55 4.25 3.2 L4.25 3.45 4.4 4.15 Q4.55 4.75 4.1 4.85 L3.75 4.95 3.15 4.7 3.0 4.7 2.8 4.65 2.75 4.6 2.8 4.6 2.65 4.1 2.65 4.05 2.3 3.15 1.75 0.8 0.4 -1.85 -0.6 -3.55 -0.55 -3.7 0.1 -3.55 -0.45 -4.0 -0.65 -4.0 -0.85 -3.95 -0.8 -4.2 0.65 -4.05 0.85 -3.6 0.8 -3.6 0.5 -3.85" fill="#333333" fill-rule="evenodd" stroke="none"/>
  </g>
</svg>
