<?xml version="1.0" encoding="UTF-8" standalone="no"?>
<svg xmlns:xlink="http://www.w3.org/1999/xlink" height="8.35px" width="4.8px" xmlns="http://www.w3.org/2000/svg">
  <g transform="matrix(1.0, 0.0, 0.0, 1.0, 1.15, 3.45)">
    <path d="M0.5 -1.3 Q0.75 -0.5 1.3 0.4 L2.25 1.65 3.25 2.85 Q3.8 3.7 3.6 4.25 3.4 4.8 2.65 4.9 1.9 4.95 1.25 4.15 0.55 3.35 0.15 2.3 L-0.2 1.55 -0.3 1.4 -0.6 0.7 -0.9 -0.25 -1.05 -1.05 -1.0 -2.6 -0.75 -3.05 Q-0.45 -3.4 -0.25 -3.15 L-0.15 -3.0 Q0.0 -3.9 0.15 -3.0 0.25 -2.15 0.5 -1.3" fill="#333333" fill-rule="evenodd" stroke="none"/>
  </g>
</svg>
