<?xml version="1.0" encoding="UTF-8" standalone="no"?>
<svg xmlns:xlink="http://www.w3.org/1999/xlink" height="6.6px" width="4.6px" xmlns="http://www.w3.org/2000/svg">
  <g transform="matrix(1.0, 0.0, 0.0, 1.0, 2.9, 4.25)">
    <path d="M0.65 -3.1 L-0.4 -2.05 -0.5 -1.9 -0.15 -1.75 -0.55 -1.6 -0.5 -1.4 -0.7 -1.05 Q-0.7 -0.1 1.25 -0.1 L1.55 0.25 1.4 0.6 1.55 1.1 1.7 1.65 1.55 2.2 -0.2 2.35 Q-1.05 2.45 -1.6 1.85 L-2.55 0.7 -2.9 -0.65 Q-2.9 -1.85 -2.25 -2.75 L-2.0 -3.05 -1.5 -3.6 -1.4 -3.55 0.45 -4.25 0.5 -4.2 0.5 -4.15 0.95 -3.6 0.65 -3.15 0.65 -3.1 M0.2 -4.05 L-0.15 -3.9 0.1 -3.55 -0.1 -3.2 0.65 -3.65 0.2 -4.05 M-1.7 -2.75 Q-1.3 -2.9 -1.55 -2.95 L-1.7 -2.85 -1.7 -2.75 M-2.5 -0.6 Q-2.5 0.15 -2.05 0.7 L-2.0 0.55 -2.2 -0.55 -2.5 -0.6 M-0.55 0.4 L-1.0 -0.3 -0.9 0.1 Q-0.8 0.35 -0.55 0.4" fill="#333333" fill-rule="evenodd" stroke="none"/>
  </g>
</svg>
