<?xml version="1.0" encoding="UTF-8" standalone="no"?>
<svg xmlns:xlink="http://www.w3.org/1999/xlink" height="6.3px" width="4.5px" xmlns="http://www.w3.org/2000/svg">
  <g transform="matrix(1.0, 0.0, 0.0, 1.0, 2.65, 3.75)">
    <path d="M0.2 -3.15 L-0.45 -1.95 Q-0.7 -1.25 -0.55 -0.8 L-0.2 -0.3 -0.15 -0.25 -0.05 -0.2 0.0 -0.2 0.05 -0.15 0.15 -0.1 0.2 -0.1 0.2 -0.05 0.25 -0.05 0.3 0.0 0.35 0.0 0.4 0.05 0.6 0.05 0.7 0.1 0.85 0.1 0.9 0.1 Q1.25 0.05 1.6 0.45 L1.65 0.5 1.85 0.9 Q1.95 1.7 1.5 1.95 0.9 2.6 0.0 2.55 L-1.0 2.15 -1.8 1.4 -2.45 0.6 -2.55 0.45 -2.55 -1.45 Q-2.5 -2.1 -1.9 -2.75 -1.35 -3.45 -0.7 -3.65 -0.1 -3.9 -0.5 -3.45 L-0.35 -3.45 -0.2 -3.55 Q0.15 -3.45 -0.15 -3.15 L-0.2 -3.05 -0.1 -3.15 Q0.1 -3.5 0.45 -3.35 L0.3 -3.3 0.2 -3.15 M-0.75 -2.0 L-0.95 -1.2 -0.95 -1.1 Q-0.8 -1.2 -0.8 -1.8 L-0.75 -2.0 M0.2 1.3 L0.05 1.3 0.1 1.3 0.15 1.35 0.25 1.4 0.25 1.35 0.2 1.35 0.2 1.3 M0.55 1.0 L0.45 1.05 0.5 1.1 0.55 1.15 0.55 1.3 0.6 1.3 0.6 1.35 0.65 1.35 0.65 1.4 0.7 1.4 0.75 1.45 0.8 1.5 0.9 1.5 0.9 1.45 0.95 1.45 0.9 1.4 0.85 1.4 0.85 1.35 0.8 1.3 0.75 1.25 0.7 1.25 0.7 1.2 0.65 1.15 0.6 1.1 0.55 1.0 M-0.1 0.05 L-0.15 0.05 -0.2 0.0 -0.3 -0.05 -0.3 0.0 -0.25 0.0 -0.25 0.05 -0.2 0.05 -0.2 0.1 -0.15 0.1 -0.15 0.15 -0.1 0.2 -0.1 0.3 0.0 0.3 0.0 0.35 0.1 0.35 0.1 0.4 0.15 0.4 0.25 0.4 0.3 0.4 0.4 0.4 0.5 0.4 0.8 0.4 0.85 0.4 0.8 0.35 0.6 0.35 0.4 0.3 0.25 0.25 0.2 0.25 0.15 0.2 0.1 0.2 0.1 0.15 0.05 0.15 0.0 0.1 -0.1 0.05" fill="#333333" fill-rule="evenodd" stroke="none"/>
  </g>
</svg>
