<?xml version="1.0" encoding="UTF-8" standalone="no"?>
<svg xmlns:xlink="http://www.w3.org/1999/xlink" height="9.6px" width="4.4px" xmlns="http://www.w3.org/2000/svg">
  <g transform="matrix(1.0, 0.0, 0.0, 1.0, 3.95, 4.3)">
    <path d="M0.45 -3.9 L0.3 -2.95 0.4 -2.45 -0.35 1.5 -1.05 4.3 Q-1.55 5.3 -3.1 5.3 L-3.5 4.7 -3.6 4.7 -3.95 4.45 -3.65 3.9 -3.6 3.85 -2.0 0.6 -1.55 -0.5 -1.25 -3.15 -0.95 -3.5 -0.7 -3.4 -0.5 -3.95 0.1 -4.3 Q0.55 -4.3 0.45 -3.9 M-2.8 3.8 L-2.9 3.95 -2.85 4.05 -2.8 3.8 M-2.35 4.5 Q-1.65 4.25 -1.45 3.1 L-2.35 4.5" fill="#333333" fill-rule="evenodd" stroke="none"/>
  </g>
</svg>
