<?xml version="1.0" encoding="UTF-8" standalone="no"?>
<svg xmlns:xlink="http://www.w3.org/1999/xlink" height="9.15px" width="4.1px" xmlns="http://www.w3.org/2000/svg">
  <g transform="matrix(1.0, 0.0, 0.0, 1.0, 3.6, 4.05)">
    <path d="M0.25 -4.05 L0.3 -4.05 0.3 -4.0 0.35 -4.0 0.35 -3.95 0.4 -3.95 0.4 -3.8 0.45 -3.75 0.45 -3.7 0.5 -3.6 0.5 -3.55 0.45 -3.5 0.45 -3.45 0.4 -3.35 0.4 -3.3 0.45 -3.25 0.45 -3.15 0.45 -3.05 0.4 -2.95 0.45 -2.9 0.45 -2.8 0.45 -2.75 0.5 -2.65 0.5 -2.3 0.45 -2.3 0.45 -2.2 0.45 -2.1 0.45 -2.05 0.45 -1.95 0.45 -1.9 0.4 -1.85 0.4 -1.8 0.35 -1.7 0.35 -1.55 0.3 -1.5 0.3 -1.45 0.25 -1.4 0.25 -1.3 0.2 -1.25 0.25 -1.2 0.25 -1.0 0.2 -0.95 0.2 -0.9 0.2 -0.8 -0.1 0.95 -0.6 2.7 -1.2 4.35 Q-1.6 5.1 -2.05 5.1 L-2.6 5.05 -2.7 4.95 -2.75 4.95 -2.9 4.95 -3.05 5.0 -3.15 4.85 -3.3 4.7 -3.4 4.6 -3.55 4.45 -3.6 4.25 -3.6 4.15 -3.6 4.05 -3.6 4.0 -3.55 3.95 -3.3 3.75 -3.3 3.55 -3.25 3.35 -1.8 0.4 Q-1.2 -0.95 -1.1 -2.4 L-1.05 -2.9 -0.85 -3.4 -0.6 -3.5 -0.6 -3.55 -0.5 -3.6 -0.5 -3.7 -0.45 -3.8 -0.45 -3.85 -0.45 -3.95 -0.2 -3.9 -0.2 -3.85 -0.15 -3.9 -0.05 -3.95 0.05 -3.95 0.05 -4.0 0.1 -4.05 0.15 -4.05 0.25 -4.05 M-1.85 1.45 L-2.4 2.5 -1.6 1.2 -1.85 1.45 M-1.4 4.0 L-1.8 4.0 -1.6 4.3 -1.4 4.0" fill="#333333" fill-rule="evenodd" stroke="none"/>
  </g>
</svg>
