<?xml version="1.0" encoding="UTF-8" standalone="no"?>
<svg xmlns:xlink="http://www.w3.org/1999/xlink" height="454.85px" width="617.85px" xmlns="http://www.w3.org/2000/svg">
  <g transform="matrix(1.0, 0.0, 0.0, 1.0, 14.95, 18.0)">
    <path d="M602.0 435.95 L-14.0 435.95 -14.0 -17.0 602.0 -17.0 602.0 435.95" fill="#ffffff" fill-rule="evenodd" stroke="none"/>
    <path d="M17.85 -17.35 L15.9 -17.05 14.05 -16.85 12.1 -17.25 9.9 -17.2 7.95 -17.05 5.85 -17.15 3.8 -17.05 1.95 -16.8 -0.15 -16.85 -2.1 -16.8 Q-2.85 -16.6 -3.95 -16.8 L-6.0 -17.0 -7.95 -17.0 -10.0 -16.8 -11.5 -16.9 -14.0 -17.0 -14.05 -15.05 -14.25 -13.0 -14.25 -11.05 -14.15 -9.0 -14.35 -7.1 -14.1 -5.35 Q-13.75 -4.35 -13.85 -3.2 L-14.0 -1.05 -13.85 1.1 -13.65 3.2 Q-13.6 4.15 -14.0 5.25 -14.35 6.35 -14.2 6.9 L-13.9 8.55 -13.9 10.8 -13.85 12.85 Q-13.7 13.75 -13.8 14.9 L-13.95 17.25 Q-13.95 18.4 -14.2 19.25 L-14.4 21.05 -14.45 23.05 Q-14.5 24.1 -14.2 24.95 -13.85 25.8 -13.95 26.9 L-14.2 29.1 Q-14.4 30.2 -14.2 31.0 -13.95 31.8 -14.0 32.7 L-13.85 34.65 Q-13.7 35.65 -13.95 36.8 L-14.05 38.8 -14.05 40.8 -14.05 43.05 -14.1 45.2 -14.0 47.35 Q-13.8 48.4 -14.1 49.1 -14.4 49.85 -14.3 51.05 L-13.9 53.15 Q-13.6 54.05 -13.8 55.05 L-14.15 57.1 -14.2 59.1 Q-14.05 60.1 -14.05 61.05 L-14.05 63.0 -14.25 65.0 -14.2 66.95 Q-13.95 67.95 -14.2 69.1 -14.4 70.25 -14.2 70.9 L-14.0 72.65 -14.0 75.05 -14.0 77.2 -14.0 78.95 -14.0 80.9 -13.8 82.95 Q-13.6 83.95 -13.75 84.95 L-14.05 87.0 -14.2 89.15 -14.1 90.85 -13.85 92.75 Q-13.65 94.0 -14.0 95.15 -14.35 96.3 -14.15 97.1 -13.9 97.9 -14.0 99.1 L-13.9 101.15 Q-13.65 102.05 -13.9 103.0 L-14.1 104.95 -14.2 106.9 -14.2 109.0 -14.15 111.05 Q-14.25 112.0 -13.95 113.0 -13.6 114.05 -14.0 114.85 -14.35 115.7 -14.05 116.75 -13.7 117.85 -13.65 119.05 -13.55 120.25 -13.8 120.95 L-14.0 122.75 -13.95 124.9 Q-13.95 126.0 -14.25 126.9 -14.5 127.85 -14.35 128.7 -14.15 129.6 -14.1 130.85 L-13.95 133.05 -14.1 135.0 -14.15 137.0 Q-14.0 138.0 -14.2 139.0 L-14.45 141.0 -14.1 143.2 Q-13.75 144.45 -13.85 145.25 L-13.95 147.1 -14.1 149.25 -14.3 151.15 -14.2 153.0 -14.0 154.95 -13.95 156.95 -14.15 159.05 -14.2 161.0 -13.95 162.95 -13.85 165.2 -13.95 167.35 -14.1 168.9 -14.2 170.95 -14.15 173.35 -14.05 174.9 -14.0 176.75 -13.9 178.9 -13.95 180.95 -14.0 182.9 -13.8 184.8 Q-13.65 185.8 -14.05 186.9 -14.45 188.0 -14.0 189.05 -13.55 190.1 -13.8 191.0 L-14.1 192.95 -14.05 195.0 Q-13.85 196.0 -14.0 196.8 L-13.95 198.75 Q-13.75 199.95 -13.95 201.2 L-14.05 203.05 -14.05 204.75 -14.1 207.15 -14.1 209.1 -13.95 210.9 -14.0 213.2 -14.0 215.15 Q-13.9 216.0 -13.95 217.0 L-14.0 219.0 -14.0 220.85 -13.95 222.9 -13.9 225.05 -13.9 227.0 -13.8 229.0 Q-13.6 230.0 -13.9 230.75 -14.2 231.55 -14.1 232.75 L-14.0 235.2 -14.2 237.15 Q-14.4 237.95 -14.25 238.95 L-14.05 241.0 Q-13.95 242.0 -14.15 242.95 -14.35 243.95 -14.2 244.9 L-14.0 247.1 -14.0 249.0 -14.0 250.8 -14.0 253.0 -13.8 254.85 Q-13.55 255.7 -13.75 256.85 L-14.05 259.0 -13.85 260.95 Q-13.55 261.95 -13.75 263.1 L-14.0 265.15 -13.9 267.0 Q-13.7 268.0 -13.85 269.0 -14.0 270.05 -13.8 270.95 -13.6 271.9 -13.8 272.8 L-13.8 274.95 Q-13.6 276.15 -13.85 277.05 L-14.15 278.85 -14.25 281.0 -14.1 283.05 Q-13.9 283.9 -13.85 284.8 L-13.9 286.85 -14.0 289.0 Q-13.9 290.0 -13.95 291.05 -13.95 292.1 -14.1 292.95 L-14.05 294.8 Q-13.9 295.8 -14.0 297.05 L-14.05 299.1 -13.75 301.05 Q-13.5 302.15 -13.75 303.25 -14.0 304.4 -13.85 305.15 -13.65 305.95 -13.9 306.75 L-14.15 308.8 -13.95 311.1 Q-13.8 312.2 -14.15 313.2 -14.45 314.2 -14.15 314.95 -13.85 315.7 -14.15 316.9 L-14.2 319.15 -14.05 321.1 -13.9 323.2 -13.65 325.15 Q-13.55 326.0 -13.75 327.1 L-14.15 329.1 Q-14.3 330.05 -13.9 331.15 -13.5 332.3 -13.8 333.0 -14.1 333.7 -13.9 334.9 -13.7 336.1 -13.85 337.05 L-14.2 338.95 Q-14.4 339.95 -14.2 341.0 L-14.05 342.9 -13.9 344.75 Q-13.7 345.75 -13.85 346.9 L-14.1 349.05 Q-14.25 350.05 -14.0 351.05 L-13.7 353.15 -13.65 355.1 -13.6 356.85 Q-13.6 357.75 -13.95 358.7 -14.25 359.65 -13.9 361.0 -13.55 362.4 -13.7 363.2 L-13.85 365.0 -13.95 367.0 -14.2 369.0 -14.35 371.2 -14.2 373.15 -14.1 375.15 -14.05 377.0 -14.1 379.0 -14.1 381.15 Q-14.0 381.95 -14.2 382.95 -14.4 384.0 -13.95 385.0 -13.5 386.0 -13.65 387.0 L-13.95 388.95 -13.9 390.95 Q-13.65 392.0 -13.7 393.1 L-14.0 394.85 Q-14.25 395.5 -14.1 396.6 L-14.0 398.65 -14.0 400.75 Q-13.95 402.0 -14.05 403.1 L-14.1 404.95 -14.1 406.85 -14.05 409.0 -13.9 410.9 -13.9 412.85 -13.9 414.75 Q-13.75 415.6 -14.0 416.95 L-14.15 419.3 -13.9 421.15 Q-13.75 422.05 -13.95 423.1 L-14.1 425.0 -13.95 426.75 -13.85 428.85 -13.8 430.8 -13.9 432.75 -13.95 434.5 Q-13.8 435.1 -14.0 435.95 L-12.2 435.95 -10.05 435.95 -7.95 436.15 -6.25 436.1 -3.95 435.9 -1.8 436.05 0.05 436.0 2.1 436.1 3.95 436.25 5.7 436.0 7.8 435.95 10.1 435.85 12.1 435.8 13.8 435.9 16.0 435.9 18.4 435.85 20.15 435.95 21.95 436.05 24.05 436.05 25.95 435.9 27.85 436.1 30.15 436.2 32.35 436.0 34.15 435.95 36.0 435.95 38.0 435.8 40.0 435.8 42.1 436.1 44.25 436.3 46.2 435.85 Q47.0 435.5 47.8 435.85 L49.8 436.0 52.2 435.8 54.15 436.1 55.95 436.15 57.95 435.75 59.95 435.95 62.15 436.15 64.15 436.0 66.0 435.85 67.95 436.05 69.95 436.15 72.0 435.85 74.0 435.85 76.0 435.95 77.75 435.65 Q78.55 435.45 79.7 435.65 80.9 435.9 81.95 435.65 L84.05 435.55 86.05 435.75 88.0 436.05 90.15 436.15 91.95 435.75 93.85 435.8 95.85 436.0 97.6 436.2 99.8 436.05 102.1 436.0 104.2 436.35 106.1 436.0 108.0 435.95 110.05 436.15 Q111.1 435.95 111.95 436.15 L113.85 436.2 116.0 436.0 118.15 435.95 120.05 435.75 121.9 435.95 123.9 436.15 125.85 436.1 127.9 436.05 130.0 436.0 131.9 435.9 134.1 435.75 136.0 435.8 137.6 435.85 139.65 435.8 141.9 435.9 144.05 435.9 145.9 435.85 147.85 435.85 149.9 435.85 152.0 435.75 154.1 435.7 156.25 435.8 158.35 435.9 160.05 435.8 161.95 435.85 163.9 436.1 166.0 436.15 168.0 436.0 169.95 435.95 171.8 435.9 173.8 436.05 Q175.0 436.3 175.85 436.05 L177.8 435.6 180.0 435.65 182.1 435.7 Q183.0 435.5 184.1 435.7 L186.15 436.0 188.1 435.8 190.05 435.7 192.0 435.85 193.85 435.95 195.85 436.2 198.0 436.15 199.75 435.75 201.8 435.8 204.15 436.0 206.05 435.95 207.75 436.0 210.05 436.2 212.3 436.15 214.1 435.95 216.0 435.9 217.95 435.9 220.1 435.9 222.05 435.9 223.9 435.8 226.15 435.8 228.15 435.95 229.9 436.05 232.2 435.9 234.0 435.85 235.75 436.0 238.05 436.0 240.1 436.05 241.8 435.85 243.75 435.5 246.0 435.75 248.1 436.05 250.0 436.1 251.85 436.0 253.95 436.15 256.05 436.1 257.85 435.9 259.75 436.1 261.8 435.9 263.9 435.85 266.05 436.0 268.0 435.75 270.0 435.9 271.85 435.85 273.95 435.7 276.15 436.15 277.9 436.1 279.95 435.85 282.2 435.8 284.25 435.65 286.2 435.65 288.05 435.85 290.0 436.05 292.0 436.05 294.0 435.95 296.15 436.05 298.15 436.0 300.2 435.85 302.2 435.8 303.9 435.85 306.1 436.0 308.2 436.0 310.2 436.15 312.15 436.35 313.95 436.35 316.1 436.3 318.1 436.2 319.95 436.05 322.05 436.15 Q323.1 436.35 324.05 436.15 L325.75 436.05 327.6 435.85 329.95 435.55 332.1 435.6 334.0 435.95 336.0 435.9 338.15 435.6 340.3 435.8 342.05 436.0 343.95 435.85 Q345.05 435.7 345.9 435.85 L347.8 436.15 349.95 435.95 352.0 435.75 354.0 435.9 356.25 436.1 358.15 436.15 359.9 436.0 362.1 436.0 364.15 436.0 366.1 435.75 368.05 435.8 370.0 435.95 371.8 436.05 373.6 436.1 375.8 435.85 377.9 435.6 380.0 435.7 382.15 435.95 384.1 435.9 386.0 435.65 387.9 435.5 390.05 435.75 392.1 435.8 Q392.95 435.65 394.0 435.8 L396.2 435.95 398.05 435.95 399.9 435.95 401.95 435.95 403.85 435.95 405.7 435.7 407.85 435.8 410.05 435.9 412.05 435.85 414.1 436.0 416.1 436.1 418.15 436.2 420.1 435.85 Q421.1 435.5 421.95 435.5 L423.9 435.75 425.8 435.8 427.55 435.95 429.75 436.2 431.95 436.0 433.95 436.1 435.8 436.3 437.7 435.9 Q438.85 435.5 439.8 435.9 L441.95 436.05 444.05 435.7 445.85 435.6 447.8 435.75 449.95 435.85 452.0 435.85 453.75 435.7 Q454.55 435.5 455.7 435.7 L458.15 436.05 460.0 436.25 461.9 436.15 464.15 435.95 466.15 436.1 468.35 436.2 470.35 435.8 472.1 435.7 473.95 435.9 475.95 435.9 478.2 435.9 480.35 436.05 482.1 436.15 484.0 435.95 485.8 435.85 487.7 436.15 489.9 436.0 491.95 435.8 494.1 435.8 Q495.2 435.65 496.1 435.8 L498.1 436.15 500.2 436.05 501.95 435.85 503.8 436.0 505.8 435.95 507.65 435.6 509.6 435.7 512.0 435.9 514.1 435.8 515.95 436.05 517.85 436.2 519.9 436.15 521.85 436.35 523.8 436.15 525.95 435.9 528.05 435.95 530.05 436.25 532.15 436.1 534.15 435.9 536.05 436.0 537.95 435.8 539.9 435.95 542.0 436.3 543.95 436.15 546.05 436.1 548.25 436.05 550.4 436.0 552.2 435.8 553.85 435.7 555.9 435.85 557.95 435.8 559.9 435.7 Q560.95 435.55 561.85 435.7 L563.8 436.05 565.9 436.3 568.0 436.3 569.95 436.05 571.9 436.05 573.95 436.3 576.05 436.2 577.95 436.0 579.9 435.95 581.8 435.9 583.8 435.95 586.0 435.85 587.95 435.85 590.0 435.9 592.2 435.95 594.25 435.85 596.05 435.8 597.75 435.9 599.3 435.95 602.0 435.95 Q601.7 435.25 601.9 434.1 L602.05 431.75 601.95 429.75 602.0 427.9 601.9 426.05 Q601.75 425.25 601.75 424.1 601.75 423.0 601.9 421.85 L602.05 419.95 602.05 418.25 602.15 416.3 602.1 414.35 601.85 412.0 601.7 410.05 Q601.65 409.4 602.0 408.25 602.4 407.1 602.2 406.1 L602.0 404.0 602.0 401.75 602.0 399.6 602.2 397.75 602.15 395.85 Q601.9 394.8 602.15 393.9 602.45 393.0 602.0 391.85 601.6 390.75 602.0 389.85 602.4 388.95 602.15 387.75 L601.95 386.0 602.0 384.3 602.0 382.0 601.95 380.05 601.95 378.25 602.1 375.95 Q602.2 374.7 601.85 373.85 601.5 373.0 601.6 371.95 L601.65 369.95 Q601.55 369.0 601.75 367.9 L602.1 365.85 601.95 363.85 Q601.7 362.85 601.85 361.9 L602.0 360.05 601.9 358.05 601.85 356.05 601.75 353.95 Q601.6 352.7 601.95 351.8 L602.3 350.05 602.15 348.0 602.1 345.85 602.0 344.0 601.75 342.1 601.85 340.15 601.8 338.05 Q601.6 336.9 601.75 336.0 L602.0 333.9 602.05 332.05 601.85 330.2 601.75 327.95 601.95 326.1 602.15 324.1 Q602.2 322.95 601.9 321.95 601.6 320.95 601.85 319.95 602.15 318.95 601.95 318.0 601.8 317.1 601.9 315.85 L602.0 313.75 601.9 312.15 601.8 310.05 Q601.75 308.75 601.85 307.6 602.0 306.5 601.75 305.7 601.55 304.95 601.85 303.9 L602.1 302.1 601.9 300.15 Q601.7 298.95 601.8 298.0 L601.95 295.95 601.9 293.9 602.15 291.95 Q602.45 290.95 602.2 289.95 L601.95 287.8 Q601.95 286.7 602.1 286.05 L602.05 284.0 601.8 281.6 Q601.75 280.6 602.0 279.95 602.25 279.35 601.95 278.1 601.7 276.9 601.85 276.05 L602.0 274.05 602.2 271.75 602.25 269.85 602.0 268.25 Q601.9 267.35 601.95 266.15 L601.8 263.95 Q601.6 262.9 601.85 261.9 L602.1 260.1 602.05 258.0 602.0 255.6 601.8 253.7 601.7 251.9 601.8 249.9 602.15 248.0 Q602.45 247.1 602.0 245.95 601.55 244.85 601.75 243.85 L602.05 241.95 602.1 239.75 602.15 237.75 602.15 235.9 Q602.05 234.9 602.2 234.15 602.4 233.4 602.05 232.3 601.75 231.25 601.7 230.0 601.65 228.8 602.05 227.85 602.5 226.95 602.35 226.15 L602.15 224.0 602.05 221.65 602.0 219.9 601.95 218.3 602.0 216.0 602.05 213.8 602.0 211.9 602.2 209.7 Q602.4 208.6 602.2 207.65 L602.0 205.85 602.0 203.9 602.2 201.9 602.3 199.75 602.1 197.65 602.1 195.8 602.1 194.1 602.1 192.1 602.15 189.9 601.95 187.9 601.85 185.95 602.1 184.15 Q602.35 183.25 602.25 181.95 L602.15 179.8 602.0 177.7 Q601.9 176.45 602.15 175.9 602.45 175.4 602.15 174.05 601.9 172.7 601.95 172.05 L602.2 170.15 602.35 168.0 602.25 166.1 602.0 163.9 601.75 161.8 601.85 159.95 Q602.0 159.05 601.75 158.0 601.5 156.95 601.75 155.75 L601.9 153.85 601.95 152.0 602.05 149.7 601.8 147.8 Q601.6 147.1 601.8 146.15 602.0 145.25 601.8 143.9 601.65 142.55 601.8 141.5 L601.95 139.75 601.95 138.0 601.75 136.2 Q601.55 135.35 601.8 133.9 L601.95 131.55 Q601.9 130.65 602.0 129.85 L602.1 128.0 601.95 126.0 601.7 123.8 601.6 121.65 601.8 119.85 Q602.0 118.85 601.8 118.0 601.6 117.15 601.85 116.0 L602.25 113.9 Q602.45 113.0 602.0 112.0 601.6 111.05 601.9 110.15 602.25 109.3 602.25 108.1 L602.05 105.85 Q601.85 104.8 601.95 104.05 602.05 103.35 601.75 101.9 601.5 100.45 601.8 99.6 L602.05 97.85 601.95 95.85 601.95 94.0 601.8 91.95 Q601.7 90.7 601.85 90.0 L602.0 88.1 602.1 85.65 602.1 83.7 601.8 81.95 Q601.65 81.0 601.8 80.05 L601.9 78.05 601.9 75.85 Q602.0 74.75 601.75 73.8 601.5 72.9 601.6 71.95 L601.7 70.1 Q601.65 69.15 601.95 68.05 602.3 66.95 602.15 66.0 L602.2 63.95 Q602.35 62.8 602.15 61.75 601.95 60.75 602.1 59.85 L602.3 58.15 602.15 56.25 601.9 53.8 Q601.85 52.5 602.1 51.75 L602.4 50.2 602.2 48.2 Q601.95 47.05 602.05 46.05 L602.2 43.85 602.2 41.7 602.1 39.7 601.85 37.6 Q601.65 36.5 601.8 35.7 L601.9 33.85 602.0 31.85 602.05 29.95 Q601.95 28.95 602.15 27.7 602.4 26.5 602.15 25.65 601.9 24.8 601.95 23.75 L602.1 21.9 602.2 20.0 602.1 17.95 602.15 15.75 Q602.3 14.55 602.05 13.7 601.8 12.9 601.85 11.85 L601.95 9.95 601.7 8.1 601.5 5.85 Q601.55 4.6 601.85 3.9 L602.2 2.1 Q602.3 0.95 602.05 0.0 601.8 -0.95 601.85 -2.0 L601.95 -4.0 602.0 -5.85 601.95 -7.9 601.8 -10.2 601.7 -12.35 601.8 -14.2 601.9 -15.35 602.0 -17.0 600.0 -17.1 597.85 -17.1 595.75 -17.15 593.9 -17.1 591.8 -16.95 589.8 -16.95 588.05 -17.15 585.8 -16.9 583.65 -16.75 581.75 -17.0 579.65 -17.0 577.85 -17.2 576.1 -17.4 574.0 -16.95 572.1 -16.65 570.15 -16.8 568.0 -17.0 565.9 -17.05 563.75 -17.0 561.85 -16.9 Q561.0 -16.75 560.0 -16.9 L557.95 -17.0 555.85 -17.0 554.1 -17.0 552.35 -17.2 Q551.2 -17.4 550.05 -17.2 L547.95 -17.0 545.95 -16.9 543.95 -17.15 542.0 -17.5 540.0 -17.15 537.95 -17.0 536.0 -16.9 534.0 -16.8 532.05 -17.25 529.85 -17.25 527.75 -16.95 526.0 -16.85 523.9 -17.05 521.8 -17.1 519.9 -16.85 518.1 -16.8 516.05 -17.1 513.7 -17.15 511.8 -17.05 510.0 -17.05 508.1 -17.15 506.0 -17.15 503.9 -17.1 502.0 -17.0 Q501.0 -16.8 499.75 -17.0 L497.75 -17.1 496.1 -17.05 494.25 -17.0 492.1 -16.95 489.75 -16.9 487.8 -16.65 485.95 -16.7 483.9 -17.15 482.0 -17.2 480.0 -17.1 478.0 -17.05 476.0 -17.15 Q475.1 -17.35 474.15 -17.15 L472.3 -16.95 470.35 -17.25 467.95 -17.2 465.8 -16.95 464.25 -17.05 462.35 -16.85 460.1 -17.0 457.75 -17.15 455.75 -17.0 453.95 -16.8 451.95 -16.85 449.95 -17.1 448.15 -17.05 446.15 -17.2 Q445.0 -17.4 444.2 -17.2 L442.15 -17.0 439.7 -17.25 437.75 -17.3 436.05 -16.95 434.05 -16.9 431.85 -16.9 429.9 -16.95 428.05 -17.15 425.95 -17.3 424.1 -17.1 422.15 -17.0 419.95 -17.05 417.9 -16.95 415.75 -17.1 413.9 -17.2 412.1 -17.15 409.8 -17.2 407.65 -17.35 405.8 -17.2 Q405.0 -17.0 403.8 -17.2 L401.8 -17.25 399.95 -16.95 397.8 -17.15 Q396.65 -17.5 395.75 -17.15 L394.0 -17.0 392.3 -17.1 390.0 -17.0 387.55 -17.2 385.85 -17.3 383.95 -17.2 381.65 -17.1 379.65 -17.0 377.65 -17.1 375.85 -16.85 374.1 -16.65 371.95 -16.9 369.85 -16.8 Q369.0 -16.6 367.95 -16.8 L366.15 -16.9 364.25 -16.75 362.05 -16.95 359.8 -16.95 357.85 -16.75 355.95 -16.7 353.95 -16.9 351.95 -16.95 350.1 -16.75 348.1 -16.95 345.95 -17.2 343.9 -17.05 341.8 -16.95 339.85 -17.0 338.15 -17.05 336.1 -16.9 333.95 -17.0 331.95 -17.3 329.85 -17.3 327.8 -17.05 326.0 -17.15 324.25 -17.05 322.15 -16.8 319.9 -16.85 318.0 -16.8 316.0 -16.9 314.1 -17.15 312.35 -17.05 310.35 -16.95 308.05 -16.95 305.8 -17.25 Q304.65 -17.45 303.8 -17.25 L301.85 -16.95 299.95 -16.9 297.85 -17.1 295.8 -17.1 294.2 -16.85 292.15 -17.0 289.85 -17.15 288.05 -17.05 286.15 -16.9 284.1 -16.8 282.05 -17.1 279.9 -17.0 277.95 -16.8 276.0 -17.1 274.1 -17.25 272.05 -16.95 269.9 -17.0 267.85 -17.3 265.85 -17.35 263.8 -17.2 Q262.75 -17.0 261.85 -17.2 261.0 -17.4 260.05 -17.2 L258.05 -17.0 256.0 -17.15 254.15 -17.15 252.35 -16.95 250.2 -16.95 248.0 -17.0 246.0 -16.85 243.9 -16.8 241.9 -17.0 239.75 -17.0 238.0 -16.75 236.2 -16.8 234.15 -16.95 232.35 -16.95 230.2 -17.0 228.0 -17.05 226.0 -17.3 223.8 -17.25 221.75 -17.05 219.85 -17.1 217.85 -17.05 215.85 -16.7 214.0 -16.75 212.25 -16.95 210.05 -17.0 208.0 -17.15 206.0 -17.05 204.0 -17.0 201.85 -16.9 200.0 -16.8 198.2 -16.85 196.15 -17.15 194.05 -17.45 191.95 -17.4 190.2 -17.3 188.2 -17.35 185.8 -17.2 183.6 -16.85 181.75 -16.95 180.0 -17.15 178.1 -17.15 176.35 -17.2 174.4 -17.25 171.9 -16.95 169.75 -16.85 168.0 -17.2 165.85 -17.2 163.85 -17.1 161.85 -17.1 159.8 -17.05 157.8 -17.0 155.9 -17.0 153.95 -17.15 152.1 -17.25 150.15 -17.15 Q149.0 -17.0 148.05 -17.15 L145.8 -17.3 143.7 -17.0 141.95 -16.9 139.95 -16.85 Q138.9 -16.65 138.0 -16.85 L136.1 -17.0 134.1 -17.1 132.05 -17.1 129.85 -16.95 127.9 -16.95 125.9 -16.8 123.85 -16.9 122.0 -17.05 Q121.0 -16.85 120.0 -17.05 L117.9 -16.95 115.85 -16.85 114.15 -17.0 112.25 -17.0 110.05 -17.0 107.95 -17.2 105.95 -17.0 Q105.05 -16.55 104.0 -17.0 103.0 -17.45 102.15 -17.3 L100.1 -17.05 97.9 -16.85 95.75 -17.05 93.75 -17.4 91.9 -17.2 90.1 -17.1 88.2 -16.85 85.85 -16.9 84.0 -17.15 82.15 -17.0 80.0 -16.85 78.15 -16.7 76.1 -16.8 73.85 -17.25 71.95 -17.15 70.2 -16.95 68.15 -17.05 66.1 -17.05 63.95 -16.8 62.0 -16.65 60.1 -16.9 57.95 -16.95 56.2 -16.95 54.1 -16.9 52.1 -16.9 50.15 -17.0 48.0 -17.0 45.85 -16.8 43.7 -16.85 42.1 -17.05 40.05 -16.95 37.95 -16.95 35.95 -17.05 33.8 -17.0 31.9 -17.0 29.85 -17.15 27.8 -17.15 Q27.0 -17.0 26.2 -17.15 L24.25 -17.05 Q23.05 -16.8 22.0 -17.05 L19.85 -17.25 17.85 -17.35 Z" fill="none" stroke="#ffffff" stroke-linecap="round" stroke-linejoin="round" stroke-width="1.0"/>
    <path d="M16.7 -12.7 L14.6 -12.7 12.45 -12.8 10.4 -12.75 8.5 -13.0 Q7.55 -13.2 6.65 -13.0 L4.45 -12.8 2.3 -12.95 0.45 -12.95 -1.5 -12.9 -3.4 -12.9 -5.45 -12.7 -7.05 -12.9 -9.5 -12.8 Q-9.05 -11.8 -9.3 -11.0 L-9.75 -8.9 -9.8 -6.6 -9.65 -4.6 -9.5 -2.7 Q-9.4 -1.75 -9.65 -0.6 -9.85 0.55 -9.55 1.35 -9.2 2.2 -9.35 3.2 L-9.5 5.25 -9.4 7.25 -9.4 9.2 -9.5 11.2 -9.75 13.15 Q-9.95 14.1 -9.75 15.25 -9.5 16.4 -9.65 17.3 L-9.9 19.2 -10.0 21.0 -9.9 22.85 -9.45 25.0 Q-9.05 26.2 -9.15 27.1 L-9.4 29.35 -9.6 31.35 -9.75 32.95 -9.85 35.05 -9.65 37.35 -9.5 39.25 -9.35 40.9 Q-9.15 41.7 -9.3 43.0 L-9.5 45.35 -9.6 47.25 -9.35 49.15 Q-9.05 50.25 -9.2 51.2 L-9.4 53.35 -9.55 55.35 -9.35 57.3 Q-9.1 58.4 -9.45 59.45 -9.8 60.5 -9.6 61.5 L-9.2 63.35 Q-9.0 64.25 -9.3 65.3 L-9.5 67.4 -9.3 69.3 Q-9.15 70.25 -9.45 71.4 L-9.6 73.35 -9.5 75.3 -9.4 77.3 Q-9.25 78.2 -9.55 79.2 -9.8 80.25 -9.45 81.35 -9.1 82.45 -9.1 83.4 L-9.3 85.5 -9.5 87.55 -9.55 89.3 -9.5 91.2 -9.4 93.05 -9.45 95.05 -9.6 97.25 -9.55 99.3 Q-9.4 100.2 -9.7 101.45 L-9.85 103.45 Q-9.65 104.25 -9.8 105.2 L-9.85 107.15 -9.6 109.25 -9.6 111.25 -9.65 113.2 -9.4 115.2 Q-9.15 116.2 -9.4 117.2 L-9.6 119.2 -9.4 121.2 -9.25 123.1 -9.35 124.95 -9.4 127.1 -9.35 129.15 -9.45 131.0 -9.65 133.3 -9.65 135.1 -9.55 136.8 -9.7 139.0 -9.65 141.1 -9.5 143.25 -9.45 145.45 -9.4 147.3 -9.4 149.2 Q-9.3 150.4 -9.45 151.1 L-9.5 153.0 -9.35 155.2 -9.35 157.4 -9.25 159.3 Q-9.1 160.0 -9.5 160.9 -9.85 161.85 -9.75 163.0 L-9.55 165.05 -9.5 166.9 -9.55 169.05 -9.65 171.2 -9.5 173.45 -9.45 175.25 -9.5 177.1 Q-9.45 178.4 -9.55 179.3 L-9.55 181.2 -9.55 183.1 -9.4 185.1 Q-9.15 186.2 -9.3 187.35 L-9.45 189.35 -9.3 191.15 Q-9.15 192.2 -9.55 193.2 -9.95 194.2 -9.7 195.35 -9.4 196.55 -9.5 197.2 L-9.55 198.9 -9.5 200.95 -9.3 203.3 Q-9.1 204.7 -9.45 205.25 -9.8 205.85 -9.45 207.0 -9.1 208.2 -9.2 209.1 L-9.35 211.1 -9.35 213.35 Q-9.25 214.55 -9.4 215.3 L-9.7 217.1 Q-9.9 218.2 -9.75 219.3 L-9.4 221.4 Q-9.15 222.4 -9.3 223.35 L-9.4 225.15 -9.4 226.95 -9.3 229.05 Q-9.1 230.2 -9.35 231.1 L-9.7 233.05 -9.85 234.95 -9.8 236.85 -9.6 239.2 Q-9.5 240.5 -9.65 241.25 -9.8 242.05 -9.55 243.35 -9.25 244.65 -9.5 245.5 -9.75 246.4 -9.6 247.2 -9.45 248.0 -9.6 249.0 L-9.6 251.2 Q-9.45 252.4 -9.75 253.3 -10.0 254.2 -9.8 255.2 -9.6 256.2 -9.8 257.2 -10.0 258.2 -9.8 259.3 L-9.55 261.25 -9.6 263.0 -9.7 265.1 -9.55 267.4 Q-9.35 268.6 -9.45 269.6 L-9.5 271.45 -9.55 273.35 -9.4 275.55 Q-9.2 276.7 -9.4 277.4 L-9.55 278.95 -9.7 280.8 Q-9.9 281.75 -9.6 283.1 -9.25 284.45 -9.55 285.5 -9.8 286.6 -9.65 287.25 -9.45 287.9 -9.7 288.85 -9.95 289.8 -9.75 290.85 -9.5 291.9 -9.5 293.25 L-9.5 295.15 -9.5 296.95 -9.35 299.2 Q-9.2 300.2 -9.35 301.2 L-9.4 303.2 Q-9.25 304.2 -9.5 305.4 -9.75 306.6 -9.6 307.4 -9.4 308.2 -9.55 309.1 L-9.7 311.1 -9.45 313.15 Q-9.15 314.1 -9.2 315.35 -9.2 316.6 -9.35 317.25 L-9.4 318.95 Q-9.3 320.0 -9.35 320.95 L-9.35 323.05 Q-9.3 324.2 -9.5 325.15 -9.7 326.1 -9.55 327.15 -9.4 328.25 -9.55 329.15 L-9.5 331.1 Q-9.3 332.15 -9.25 333.25 -9.15 334.35 -9.55 335.25 -9.95 336.2 -9.65 337.2 -9.35 338.25 -9.55 339.15 -9.75 340.1 -9.6 341.25 -9.4 342.4 -9.6 343.35 -9.8 344.35 -9.6 345.25 L-9.4 347.15 -9.45 349.05 -9.4 351.0 Q-9.3 352.05 -9.55 353.2 L-9.8 355.35 -9.8 357.25 -9.75 359.35 -9.6 361.25 -9.55 363.2 -9.5 365.3 -9.35 367.2 Q-9.2 368.2 -9.35 369.35 L-9.4 371.15 Q-9.3 371.8 -9.6 373.2 L-9.75 375.4 -9.5 377.0 Q-9.35 377.8 -9.6 378.85 -9.8 379.95 -9.5 381.2 -9.2 382.45 -9.35 383.2 L-9.6 385.2 -9.55 387.1 -9.35 388.75 Q-9.3 389.7 -9.65 390.9 L-9.95 393.4 -9.75 395.45 -9.55 397.3 -9.55 399.3 -9.5 401.25 -9.5 403.3 -9.75 405.25 Q-10.0 406.25 -9.6 407.05 -9.15 407.85 -9.4 409.2 L-9.45 411.4 Q-9.25 412.25 -9.4 413.4 L-9.6 415.15 -9.6 416.8 -9.35 418.95 Q-9.2 420.1 -9.35 420.9 L-9.5 423.0 -9.5 425.15 -9.5 426.95 -9.6 428.5 -9.5 429.8 -7.35 429.6 -5.3 429.65 -3.6 429.8 -1.85 429.9 0.65 429.85 2.85 429.65 4.7 429.85 6.75 430.1 8.75 429.9 10.8 429.95 12.7 430.0 14.5 429.8 16.55 429.8 18.45 429.75 20.35 429.6 22.2 429.65 24.35 429.95 Q25.6 430.15 26.5 429.95 L28.4 429.7 30.4 429.85 Q31.5 430.05 32.25 429.85 L34.25 429.6 36.65 429.8 38.5 429.9 40.25 429.55 42.4 429.75 44.7 429.7 46.6 429.55 48.4 429.9 50.45 429.9 52.3 429.55 54.35 429.65 56.55 429.95 58.55 430.1 60.45 429.95 62.3 429.8 64.35 429.9 66.55 429.8 68.8 429.7 70.6 429.65 72.5 429.9 74.65 430.05 76.65 429.85 78.45 430.0 80.3 430.15 82.45 430.15 84.5 430.2 86.3 430.15 88.4 430.15 90.4 430.0 92.3 429.75 94.4 429.8 96.4 429.55 98.5 429.65 100.45 430.0 102.6 429.8 Q103.8 429.6 104.65 429.8 105.5 430.0 106.4 429.8 L108.5 429.7 110.6 429.8 112.35 429.65 114.35 429.9 116.55 430.05 118.65 429.9 120.8 429.6 122.6 429.5 124.35 429.75 126.55 429.75 128.45 429.8 130.55 429.7 132.45 429.75 134.3 429.85 136.45 430.0 138.45 430.05 140.6 429.95 142.45 429.9 144.35 429.8 146.4 429.9 148.4 430.0 150.5 429.75 152.45 429.55 154.6 429.7 156.65 429.8 158.6 429.6 160.6 429.8 162.4 430.0 164.45 430.05 Q165.6 430.3 166.55 430.05 L168.75 429.6 170.55 429.8 Q171.2 430.25 172.5 430.2 L174.6 429.9 176.6 429.7 178.85 429.75 180.55 429.75 182.3 429.85 184.5 429.7 186.5 429.6 188.45 429.7 190.25 429.7 192.45 429.8 194.55 429.85 196.35 429.8 198.65 430.05 200.75 430.0 202.65 429.75 204.55 429.7 206.5 429.55 208.45 429.65 210.4 429.8 212.5 430.0 214.55 429.95 216.6 429.9 218.65 429.95 220.35 429.9 222.35 429.9 224.55 429.85 226.65 429.85 228.6 429.6 Q229.5 429.45 230.55 429.6 L232.55 429.65 234.55 429.8 236.45 429.9 238.2 429.7 240.25 429.65 242.5 429.65 244.4 429.9 246.45 429.95 248.45 429.75 250.55 429.7 Q251.75 429.55 252.65 429.7 253.55 429.9 254.45 429.7 L256.45 429.65 258.7 429.7 260.7 429.75 262.5 429.8 264.5 429.85 266.5 429.85 268.45 429.8 270.7 430.0 Q271.95 430.25 272.7 430.0 L274.3 429.55 276.4 429.5 278.7 429.65 280.7 429.8 282.6 429.65 284.7 429.75 286.65 429.95 288.5 429.8 290.55 429.9 292.55 429.9 294.5 429.8 296.5 429.55 Q297.55 429.35 298.45 429.55 L300.55 429.65 302.6 429.4 304.5 429.3 306.3 429.4 308.15 429.85 310.3 430.15 312.4 429.9 314.65 429.7 316.65 429.55 318.25 429.45 320.35 429.65 322.65 429.8 324.55 429.95 326.2 430.0 328.3 429.8 330.65 429.7 332.55 429.95 334.45 430.1 336.5 429.9 338.65 429.75 340.65 429.95 342.6 429.85 344.75 429.7 346.8 430.1 348.65 430.0 350.6 429.8 352.7 430.0 354.6 429.85 356.7 429.7 358.65 429.8 360.6 429.9 362.6 429.75 364.5 429.85 366.65 430.2 368.7 430.0 370.8 429.8 372.85 429.75 374.6 429.8 376.5 429.9 378.35 429.85 380.35 429.7 382.55 429.75 384.6 429.6 386.75 429.45 388.75 429.5 390.5 429.45 392.45 429.7 394.55 429.7 396.55 429.65 398.5 429.9 Q399.55 430.15 400.5 429.9 L402.5 429.7 404.5 429.9 406.5 430.05 408.4 429.95 410.25 429.9 412.4 429.95 414.45 429.85 416.3 429.65 Q417.35 429.5 418.6 429.65 L420.4 429.75 422.1 429.6 424.3 429.65 426.4 429.8 428.55 429.85 430.75 429.9 432.6 429.9 434.5 429.85 436.4 429.8 438.3 429.95 440.5 429.95 442.7 430.05 444.6 429.8 446.2 429.55 448.3 429.75 450.35 429.8 452.2 429.75 454.35 429.65 456.5 429.8 458.75 429.85 460.55 429.8 462.4 429.75 464.6 429.75 466.5 429.75 468.4 429.9 470.4 430.0 472.65 429.85 474.65 430.0 476.45 429.75 478.5 429.6 480.65 429.8 482.5 429.75 484.2 429.8 486.25 430.0 488.6 429.85 Q490.0 429.5 490.55 429.85 L492.3 430.1 494.4 429.95 496.4 429.95 498.65 429.9 500.6 429.6 502.4 429.55 504.6 429.9 506.7 430.0 508.65 429.9 510.45 429.9 512.25 430.0 514.35 429.95 516.4 429.6 518.35 429.45 520.25 429.5 522.15 429.7 524.5 429.65 526.55 429.75 528.65 429.8 530.8 429.7 532.5 429.7 534.3 429.7 536.5 429.55 538.6 429.5 Q539.5 429.7 540.5 429.5 541.5 429.3 542.5 429.5 L544.6 429.75 546.55 429.7 548.3 429.6 550.4 429.75 552.7 429.85 554.9 429.8 556.75 429.75 558.65 429.9 Q559.7 430.1 560.85 429.9 L562.7 429.75 564.25 429.6 566.1 429.7 568.4 429.75 570.8 429.65 572.55 429.6 574.15 429.55 576.15 429.8 578.55 429.8 580.45 429.8 582.25 429.95 584.5 429.95 586.5 429.9 588.5 429.8 590.7 429.7 592.7 429.75 593.9 429.6 596.45 429.8 596.5 427.95 596.6 425.7 596.5 423.8 596.45 421.9 596.45 419.7 596.5 417.65 596.3 415.65 596.2 413.8 596.3 411.65 596.3 409.65 596.4 407.7 596.45 405.6 596.2 403.7 596.05 401.45 Q596.0 400.35 596.1 399.6 L596.25 397.8 596.6 395.75 Q596.9 394.8 596.55 393.65 596.2 392.5 596.25 391.65 L596.4 389.9 596.4 387.7 596.25 385.45 Q596.2 384.55 596.3 383.6 L596.55 381.75 Q596.7 380.8 596.35 379.8 596.05 378.8 596.35 377.7 596.65 376.65 596.55 375.55 L596.4 373.65 596.4 371.8 596.4 369.8 596.45 368.0 596.45 365.75 596.2 363.7 Q596.0 363.1 596.3 361.75 L596.45 359.7 Q596.35 359.0 596.65 357.65 596.95 356.35 596.7 355.8 596.45 355.25 596.65 353.85 596.9 352.45 596.65 351.7 596.4 351.0 596.4 349.7 L596.4 347.55 596.4 345.9 596.45 344.05 596.7 341.85 Q596.9 340.6 596.65 339.6 L596.5 337.7 596.35 335.9 Q596.15 335.05 596.4 334.1 596.7 333.15 596.5 331.9 L596.35 329.7 596.45 327.8 596.4 325.75 596.4 323.75 596.25 321.8 596.05 319.8 596.15 317.95 596.4 315.8 596.35 313.65 596.35 312.0 596.45 310.0 596.35 307.75 596.35 305.7 596.3 303.6 596.15 301.55 596.2 299.55 596.3 297.75 596.45 296.05 596.45 294.15 596.45 291.95 596.45 289.9 596.45 287.95 596.4 285.7 596.35 283.6 596.3 281.75 596.5 279.75 596.7 277.9 596.75 275.9 596.55 273.8 Q596.35 272.8 596.45 271.65 L596.5 269.85 596.55 268.1 596.7 266.1 596.85 264.15 596.8 262.0 596.5 259.95 Q596.25 259.0 596.4 257.9 L596.5 255.8 596.6 254.0 596.7 251.85 596.55 249.85 596.25 248.15 Q596.1 247.0 596.25 245.9 L596.55 243.6 596.5 241.65 596.3 240.05 596.45 238.0 596.55 235.95 596.45 233.85 596.4 231.6 596.2 229.65 Q596.0 228.8 596.05 227.8 L596.3 225.7 596.3 223.9 596.1 222.0 Q596.1 220.85 596.35 219.75 L596.5 217.8 596.35 215.9 596.35 213.8 596.45 212.05 596.65 210.05 Q596.9 208.85 596.6 207.8 596.3 206.8 596.45 205.75 L596.5 203.75 596.45 201.8 596.5 199.65 596.6 197.65 596.65 195.9 596.45 193.95 Q596.3 192.9 596.6 191.7 L596.75 189.55 596.7 187.75 596.9 185.9 Q596.95 184.9 596.45 184.0 596.0 183.1 596.35 181.95 596.7 180.8 596.55 179.8 L596.45 177.8 596.45 175.9 596.45 174.1 596.6 172.05 Q596.8 170.95 596.45 169.85 596.15 168.8 596.3 167.8 L596.45 165.8 596.25 163.85 Q596.05 162.9 596.3 161.8 L596.65 159.65 596.8 157.65 Q596.85 156.8 596.4 155.85 596.0 154.9 596.15 153.85 L596.6 151.9 Q596.85 150.95 596.4 149.85 595.95 148.8 596.05 147.85 L596.5 145.85 Q596.9 144.8 596.65 143.8 L596.45 141.85 596.45 139.85 596.2 137.8 Q596.0 136.8 596.25 135.75 L596.45 133.75 596.25 131.75 Q596.05 130.75 596.25 129.8 L596.4 128.0 596.6 126.15 596.55 123.9 596.3 121.75 596.45 119.8 596.7 117.75 596.6 116.0 596.4 113.95 Q596.35 112.8 596.6 111.95 596.9 111.15 596.45 109.95 596.0 108.8 596.2 107.95 596.45 107.15 596.25 105.95 596.1 104.75 596.25 103.9 L596.6 102.0 Q596.85 100.9 596.7 99.8 L596.45 97.7 596.4 95.75 596.5 93.9 596.3 91.7 Q596.1 90.45 596.25 89.7 L596.55 87.8 596.55 85.8 Q596.4 84.95 596.4 83.9 L596.4 81.85 596.35 79.7 596.45 77.7 596.6 75.9 596.55 73.95 Q596.4 72.9 596.6 71.8 596.8 70.7 596.6 69.9 L596.3 67.95 596.3 65.95 596.4 63.95 596.35 61.9 Q596.25 60.95 596.5 59.85 596.75 58.75 596.6 57.95 L596.35 56.1 Q596.25 55.0 596.3 53.9 L596.45 51.8 596.5 49.9 596.45 47.8 596.5 45.7 596.25 43.7 Q596.0 42.65 596.25 41.55 L596.45 39.6 596.45 37.75 596.35 35.85 Q596.25 34.95 596.5 33.85 L596.65 32.0 Q596.5 31.25 596.5 30.1 L596.5 27.75 596.45 25.65 596.4 23.95 596.45 21.9 Q596.45 20.65 596.6 19.9 L596.65 17.95 596.25 15.9 Q595.95 15.0 595.95 13.9 L596.05 11.7 596.3 9.65 596.3 7.55 596.2 5.35 596.35 3.4 Q596.45 2.4 596.2 1.5 595.95 0.6 596.15 -0.25 L596.6 -2.0 Q596.85 -2.95 596.7 -4.1 L596.3 -6.4 Q596.1 -7.55 596.25 -8.35 L596.5 -10.15 596.45 -11.85 Q596.3 -12.5 596.45 -12.8 L594.65 -12.65 592.55 -12.8 590.55 -12.7 588.55 -12.85 586.7 -13.2 584.55 -13.2 582.25 -13.05 580.05 -12.9 578.2 -12.85 576.45 -12.7 574.3 -12.85 572.25 -12.95 570.35 -12.75 568.4 -12.7 566.3 -12.75 564.05 -13.05 562.4 -13.25 560.65 -13.05 558.55 -12.85 556.5 -12.65 554.35 -12.55 552.2 -12.65 550.45 -12.75 548.75 -12.85 546.6 -13.0 544.7 -13.0 542.65 -12.6 540.5 -12.5 538.55 -12.7 536.55 -12.9 534.6 -12.7 532.5 -12.65 530.5 -12.55 528.2 -12.45 526.25 -12.6 524.5 -12.75 522.65 -12.75 520.65 -12.8 518.5 -12.85 516.45 -12.85 514.5 -12.9 512.5 -12.9 510.3 -12.6 508.25 -12.35 506.35 -12.7 504.7 -12.9 502.9 -12.8 500.85 -12.8 498.45 -12.8 496.25 -12.8 494.45 -12.8 492.25 -12.85 490.45 -12.85 488.65 -12.8 486.55 -13.05 484.5 -13.2 482.25 -12.95 480.25 -12.6 Q479.45 -12.4 478.5 -12.6 L476.5 -12.85 474.4 -12.85 472.55 -12.9 470.55 -12.75 468.55 -12.85 466.6 -12.9 Q465.5 -12.7 464.3 -12.9 L462.3 -12.7 Q461.45 -12.3 460.45 -12.4 L458.35 -12.7 456.55 -12.9 454.55 -12.85 452.4 -12.8 450.35 -13.0 Q449.25 -13.25 448.5 -13.0 L446.6 -12.7 444.45 -12.9 442.4 -13.15 440.45 -12.9 438.55 -12.75 436.55 -12.85 434.4 -12.7 Q433.35 -12.5 432.4 -12.7 L430.45 -12.65 428.45 -12.55 426.6 -12.7 424.6 -12.6 422.65 -12.7 420.7 -12.65 418.5 -12.4 416.2 -12.6 414.2 -12.8 412.2 -12.75 410.0 -12.85 408.2 -13.05 406.45 -13.0 404.45 -12.55 Q403.35 -12.3 402.4 -12.55 L400.45 -12.8 398.5 -13.05 Q397.55 -13.25 396.35 -13.05 L394.45 -12.6 Q393.7 -12.4 392.55 -12.6 L390.45 -12.75 388.4 -12.85 386.4 -12.9 384.6 -12.8 382.8 -12.7 380.6 -12.75 378.4 -12.8 376.45 -12.8 374.6 -13.05 372.6 -12.85 370.4 -12.45 368.2 -12.6 366.25 -12.8 364.6 -13.05 362.65 -13.0 360.5 -12.85 358.4 -12.85 356.3 -12.75 354.55 -12.75 352.55 -12.8 350.45 -12.8 348.5 -12.8 346.7 -12.75 344.7 -12.6 342.3 -12.85 340.35 -12.9 Q339.65 -12.55 338.6 -12.55 L336.75 -12.7 334.7 -12.85 332.3 -13.05 330.35 -12.85 328.35 -12.65 326.3 -12.75 324.45 -12.8 322.45 -12.8 320.45 -12.7 318.45 -12.8 316.7 -12.8 314.65 -12.9 312.45 -12.85 310.4 -12.75 308.5 -12.65 306.55 -12.75 304.25 -12.95 302.2 -13.0 300.4 -13.2 298.45 -12.95 296.5 -12.6 294.5 -12.7 292.45 -12.75 290.2 -12.75 288.4 -12.75 286.85 -12.75 284.6 -12.8 282.45 -12.95 280.25 -12.95 278.05 -12.85 276.3 -12.65 274.5 -12.7 272.5 -13.0 270.5 -12.95 268.5 -12.85 266.5 -12.85 264.65 -12.75 262.5 -12.7 260.25 -12.95 258.3 -12.85 256.4 -12.5 254.45 -12.6 252.45 -12.85 250.45 -12.9 248.45 -12.8 246.55 -12.7 Q245.65 -12.55 244.45 -12.7 L242.3 -12.65 Q241.4 -12.45 240.45 -12.65 L238.25 -12.8 236.0 -12.75 234.2 -12.8 232.55 -12.75 230.8 -12.7 228.7 -12.8 226.45 -12.8 224.35 -12.8 222.2 -12.75 220.3 -12.5 218.6 -12.7 216.25 -12.9 214.2 -12.8 212.5 -12.9 210.65 -12.9 208.55 -12.7 206.45 -12.85 204.4 -12.75 202.4 -12.55 200.5 -12.65 198.65 -12.7 196.55 -12.7 194.45 -12.7 192.4 -13.05 190.4 -13.25 188.35 -12.95 186.25 -12.8 184.45 -12.8 182.5 -12.6 180.45 -12.65 178.6 -12.75 176.55 -12.8 174.6 -12.7 172.65 -12.75 170.4 -12.8 168.25 -12.55 166.3 -12.65 164.3 -12.8 162.15 -12.8 160.1 -12.7 158.15 -12.65 156.4 -12.8 154.75 -12.8 152.75 -12.75 150.5 -12.8 148.4 -12.7 146.35 -12.65 144.45 -12.8 142.55 -12.65 Q141.55 -12.5 140.6 -12.65 L138.6 -12.95 136.55 -13.0 134.55 -12.95 132.35 -13.15 130.1 -13.05 128.15 -12.9 126.3 -13.15 124.6 -13.25 122.65 -13.2 120.45 -12.75 118.5 -12.6 116.5 -12.95 114.65 -12.8 112.65 -12.7 110.5 -13.0 Q109.55 -13.2 108.7 -13.0 L106.5 -12.8 104.3 -12.9 102.2 -12.95 100.2 -13.0 98.5 -12.95 96.5 -12.65 94.3 -12.6 92.5 -12.85 90.65 -12.75 88.35 -12.7 86.45 -12.85 84.55 -12.7 82.7 -12.8 80.6 -12.85 78.4 -12.8 76.55 -12.8 74.35 -12.95 72.2 -12.95 70.45 -12.9 68.55 -13.1 66.35 -13.1 64.25 -13.05 62.55 -12.85 60.65 -12.9 58.45 -12.7 56.45 -12.55 54.5 -12.7 52.4 -12.8 50.35 -12.95 48.35 -12.85 46.45 -12.95 44.5 -12.9 42.55 -12.75 40.55 -12.75 38.4 -12.85 36.4 -13.05 Q35.4 -13.25 34.25 -13.05 L32.45 -12.55 30.6 -12.6 28.3 -13.05 26.2 -13.0 24.35 -12.55 22.5 -12.75 20.5 -12.85 18.55 -12.65 16.7 -12.7 Z" fill="none" stroke="#90c7b7" stroke-linecap="round" stroke-linejoin="round" stroke-opacity="0.5019608" stroke-width="1.0"/>
  </g>
</svg>
