<?xml version="1.0" encoding="UTF-8" standalone="no"?>
<svg xmlns:xlink="http://www.w3.org/1999/xlink" height="11.45px" width="13.8px" xmlns="http://www.w3.org/2000/svg">
  <g transform="matrix(1.0, 0.0, 0.0, 1.0, 6.9, 5.75)">
    <path d="M2.8 1.5 L2.95 1.4 Q3.65 1.05 3.65 0.35 L2.8 1.5 M-1.35 -2.7 L-2.05 -0.8 Q0.45 -1.4 0.3 -4.0 L-0.35 -4.0 -1.35 -2.7 M5.3 -0.8 L5.0 0.35 Q4.75 1.2 4.1 1.8 L2.85 3.05 2.8 3.35 Q3.85 4.9 5.85 4.7 6.75 4.45 6.9 5.15 L6.8 5.25 5.95 5.55 5.6 5.7 Q4.45 5.65 3.25 5.2 L2.35 4.45 Q1.85 3.6 1.1 3.5 L-0.65 3.7 Q-2.15 3.3 -3.2 2.05 L-3.2 0.4 -3.8 0.25 -4.95 0.05 Q-5.85 -0.25 -6.65 -1.0 -6.95 -1.85 -6.9 -2.7 L-6.7 -3.45 Q-6.1 -5.4 -4.1 -5.75 -4.25 -5.25 -4.8 -5.0 L-5.3 -4.65 Q-6.15 -3.85 -6.15 -2.75 L-6.05 -1.65 -5.5 -1.25 Q-4.9 -0.9 -4.15 -0.7 L-3.3 -0.75 -2.7 -2.4 Q-2.4 -3.65 -1.5 -4.35 L-0.7 -5.0 1.3 -4.9 Q1.6 -3.7 1.2 -2.5 0.5 -0.3 -1.55 0.2 L-2.1 0.55 -2.1 1.5 -1.5 1.8 0.6 2.5 1.1 2.35 1.5 2.05 1.5 1.85 Q2.1 -1.0 5.15 -1.35 L5.3 -0.8" fill="#333333" fill-rule="evenodd" stroke="none"/>
  </g>
</svg>
