<?xml version="1.0" encoding="UTF-8" standalone="no"?>
<svg xmlns:xlink="http://www.w3.org/1999/xlink" height="46.4px" width="46.5px" xmlns="http://www.w3.org/2000/svg">
  <g transform="matrix(1.0, 0.0, 0.0, 1.0, -1.8, -1.8)">
    <path d="M42.5 10.5 Q42.0 9.65 41.0 8.95 39.4 8.0 37.7 6.7 36.05 5.45 34.2 4.45 32.35 3.4 30.4 3.05 L27.4 2.75 25.0 2.35 21.15 2.55 Q19.35 2.75 17.25 3.7 L13.15 5.7 Q11.2 6.8 10.5 7.25 9.85 7.7 8.95 8.95 L6.25 12.25 Q4.8 13.95 4.05 15.9 3.3 17.8 2.7 19.65 2.15 21.5 2.4 22.95 2.7 24.4 2.35 25.0 L2.85 29.3 Q3.25 31.1 4.15 33.05 L6.05 36.6 7.45 39.25 Q7.95 40.3 8.95 41.0 10.5 42.8 12.15 43.85 13.85 44.9 15.75 45.75 17.65 46.6 19.85 47.05 L23.05 47.35 25.0 47.65 29.2 47.45 33.05 46.2 Q35.0 45.35 36.85 43.95 38.8 42.6 39.5 42.15 L41.0 41.0 43.5 37.6 Q44.75 36.0 45.55 33.95 L46.8 29.95 47.6 26.95 Q47.95 25.9 47.65 25.0 47.8 23.35 47.35 20.9 46.95 18.5 46.1 16.7 L44.15 13.2 42.5 10.5 Z" fill="none" stroke="#e66b7f" stroke-linecap="round" stroke-linejoin="round" stroke-opacity="0.5019608" stroke-width="1.5"/>
  </g>
</svg>
