<?xml version="1.0" encoding="UTF-8" standalone="no"?>
<svg xmlns:xlink="http://www.w3.org/1999/xlink" height="175.7px" width="247.55px" xmlns="http://www.w3.org/2000/svg">
  <g transform="matrix(1.0, 0.0, 0.0, 1.0, 0.9, 0.9)">
    <path d="M245.75 173.95 L0.0 173.95 0.0 0.0 245.75 0.0 245.75 173.95" fill="#ffffff" fill-rule="evenodd" stroke="none"/>
    <path d="M9.6 -0.4 L7.7 0.0 5.8 0.25 4.05 0.1 2.4 0.05 0.0 0.0 Q0.45 1.0 0.0 1.8 -0.45 2.65 -0.15 4.0 0.15 5.4 -0.1 6.35 -0.35 7.3 -0.1 7.95 L0.1 9.85 -0.1 12.0 -0.1 14.0 -0.05 15.8 -0.15 17.85 Q-0.1 19.2 -0.2 20.35 L-0.4 22.15 Q-0.45 22.85 -0.1 23.9 0.3 25.0 0.15 26.0 L-0.05 27.9 -0.15 29.7 Q-0.2 30.6 0.15 31.8 0.5 33.05 0.15 34.15 L-0.15 36.15 -0.05 38.0 Q0.0 39.0 0.2 39.75 0.45 40.55 0.2 41.75 L0.05 44.0 0.05 46.0 -0.05 48.0 0.0 50.0 -0.05 51.95 0.0 53.9 0.05 55.9 -0.05 58.0 Q-0.05 59.1 0.2 60.0 0.5 60.9 0.0 61.95 -0.45 63.0 -0.15 64.05 0.2 65.1 -0.05 66.2 L-0.35 68.1 -0.2 70.05 0.0 72.1 0.05 74.2 0.25 76.4 0.35 78.4 0.3 80.25 -0.05 82.15 Q-0.4 83.25 -0.1 84.0 0.25 84.8 -0.05 86.0 -0.3 87.2 0.05 88.15 0.4 89.15 0.2 89.9 L0.0 91.8 Q0.0 92.95 0.15 93.9 0.35 94.85 -0.05 96.05 -0.45 97.25 -0.15 97.9 0.2 98.6 -0.15 99.6 -0.5 100.65 -0.15 101.8 0.2 102.95 0.2 104.0 L0.05 106.25 Q-0.1 107.4 0.15 108.35 L0.2 109.95 -0.25 111.7 Q-0.45 112.8 -0.25 113.95 0.0 115.1 -0.1 116.05 L-0.2 118.2 -0.05 119.95 0.0 121.8 -0.05 124.0 0.0 125.95 0.2 128.0 Q0.35 129.0 0.15 130.0 L-0.15 132.05 Q-0.25 133.1 0.05 134.05 0.35 135.0 0.15 136.2 L0.0 138.0 0.05 140.0 Q0.15 141.45 -0.1 142.0 -0.35 142.55 -0.1 143.75 L0.25 145.95 0.15 148.1 0.0 150.15 -0.1 151.95 -0.05 153.75 -0.05 155.7 0.0 157.8 0.05 159.75 0.0 161.8 0.0 163.9 -0.1 166.0 Q-0.2 167.0 0.1 167.9 0.45 168.85 0.2 169.9 L-0.2 171.5 0.0 173.95 2.15 174.05 4.0 173.95 5.8 173.9 7.7 173.95 9.8 173.7 Q10.85 173.5 12.0 173.7 L14.05 173.95 16.2 173.85 18.35 173.85 20.1 174.15 22.0 174.0 24.0 173.75 25.9 173.95 27.7 174.0 29.6 173.9 31.7 173.85 33.95 173.85 36.25 173.95 38.25 173.75 40.0 173.8 41.8 174.0 43.65 173.95 45.9 173.7 48.05 173.85 50.1 174.1 52.0 173.9 53.85 174.0 55.9 173.9 57.95 173.85 60.05 173.75 62.05 173.8 63.95 173.9 65.95 173.9 67.75 174.0 69.8 173.7 71.8 173.65 73.8 173.9 75.8 173.85 77.65 173.9 80.0 173.85 82.25 173.95 84.1 174.1 85.8 173.95 87.65 173.9 90.0 173.9 92.1 173.95 94.1 173.7 Q95.25 173.5 96.15 173.7 L98.05 173.95 100.0 174.15 101.8 174.25 103.95 173.9 106.15 173.65 107.95 174.0 109.95 174.05 112.0 173.9 114.2 174.15 116.05 174.05 117.9 173.85 120.05 174.1 121.95 174.1 123.95 173.95 125.95 173.95 128.05 174.0 130.15 174.1 132.05 174.05 133.9 173.95 136.05 173.95 137.95 174.05 139.7 174.0 142.05 174.05 144.2 174.1 146.0 173.8 148.05 173.7 150.05 174.0 Q151.0 174.35 151.9 174.0 L153.9 173.85 156.0 174.1 157.75 174.05 159.5 173.9 161.9 173.75 Q163.3 173.6 164.05 173.75 L165.9 173.95 167.8 173.8 Q168.65 173.6 169.9 173.8 171.2 174.05 172.05 173.8 L174.05 173.75 176.1 173.7 Q177.0 173.5 177.95 173.7 L179.95 173.9 181.8 173.9 183.75 174.0 185.95 174.05 188.0 174.2 190.2 174.25 192.2 173.85 194.0 173.65 196.2 174.0 198.2 174.25 200.0 174.1 201.9 174.05 203.9 173.9 206.05 173.6 208.05 173.75 210.0 173.9 211.95 174.15 Q212.95 174.35 214.15 174.15 L216.15 174.05 218.0 174.05 220.1 174.05 221.95 174.2 223.6 174.05 225.6 173.75 227.75 173.55 229.9 173.7 231.95 173.95 234.1 173.8 235.95 173.75 237.85 173.85 240.05 173.9 242.1 173.8 243.55 173.55 245.75 173.95 245.75 171.95 245.8 169.95 245.85 167.75 245.95 165.85 245.85 163.95 245.5 161.95 Q245.35 160.95 245.75 159.95 246.15 158.95 245.9 157.9 245.65 156.9 245.75 156.0 L245.7 153.9 245.6 151.85 245.95 149.75 Q246.25 148.5 245.85 147.7 245.45 146.95 245.8 145.95 246.2 144.95 245.75 143.95 245.3 143.0 245.5 142.1 L245.95 139.9 Q246.15 138.6 245.75 138.0 245.4 137.45 245.55 136.0 L245.6 133.8 Q245.5 133.05 245.55 132.0 L245.65 129.95 245.6 127.85 Q245.45 126.75 245.65 125.7 L245.7 123.85 Q245.6 123.1 245.65 122.0 L245.8 119.95 245.8 117.9 Q245.75 116.8 245.85 115.85 L245.85 114.0 245.75 112.15 245.75 110.15 Q245.7 109.05 245.8 108.1 L245.75 106.25 Q245.6 105.4 245.85 104.05 L246.1 101.8 245.9 99.9 Q245.75 98.95 245.75 97.8 L245.65 95.6 245.55 93.9 245.5 92.1 Q245.4 90.95 245.8 89.85 246.25 88.75 246.15 87.85 L245.9 85.8 245.85 83.75 Q246.0 82.85 245.8 81.85 L245.5 80.1 Q245.35 79.35 245.5 78.35 L245.65 76.4 245.65 74.1 Q245.65 72.8 245.8 71.85 L245.85 70.15 245.65 68.1 Q245.55 66.9 245.75 65.9 L246.0 63.8 246.1 61.85 245.9 60.0 Q245.75 58.9 245.95 58.0 246.15 57.1 245.95 56.0 L245.7 54.0 245.5 51.95 245.35 50.05 245.6 48.2 Q245.9 47.1 245.65 45.8 245.45 44.55 245.55 43.75 L245.7 42.1 245.65 40.1 245.6 37.95 245.65 35.95 245.7 34.15 245.75 32.1 245.75 30.1 245.65 28.15 Q245.5 26.95 245.8 25.95 L246.05 23.95 245.65 21.95 Q245.35 20.95 245.55 19.9 L245.8 17.9 245.8 15.75 245.8 13.65 245.8 11.95 245.7 10.1 245.6 8.0 Q245.55 6.95 245.85 5.75 246.2 4.6 245.95 3.95 L245.6 2.55 Q245.45 1.85 245.75 0.0 L243.75 -0.2 241.6 0.0 239.65 0.35 237.65 -0.05 235.85 -0.15 233.65 0.0 231.65 0.0 229.7 -0.2 227.6 -0.15 225.55 0.35 223.35 0.15 221.65 -0.1 219.9 0.0 217.7 -0.1 215.6 -0.3 213.9 -0.2 211.9 0.15 209.6 0.15 207.7 0.0 205.95 -0.25 Q205.2 -0.45 203.95 -0.25 L201.8 0.0 199.8 0.0 197.7 0.0 195.75 0.0 193.7 -0.05 191.75 -0.1 189.8 -0.1 187.7 0.0 185.95 0.0 183.75 -0.05 181.6 0.05 179.7 0.2 177.4 0.1 175.55 0.05 173.75 0.1 171.8 0.2 170.0 0.4 168.1 0.4 166.05 0.25 163.7 0.15 161.65 0.0 Q161.0 -0.2 159.7 0.0 L157.8 0.15 155.95 -0.1 153.75 -0.2 151.9 -0.1 149.7 0.05 147.6 -0.1 145.6 -0.4 143.6 -0.2 141.95 0.0 139.8 0.25 137.9 0.35 135.95 -0.05 133.5 -0.3 131.5 -0.05 129.65 0.05 127.55 0.2 125.7 -0.05 123.75 -0.2 121.7 0.0 119.75 -0.05 117.95 0.0 115.9 0.0 113.6 0.05 111.8 0.05 109.9 0.2 107.75 0.0 Q106.75 -0.45 105.8 0.0 104.9 0.45 103.65 0.0 L101.65 -0.25 100.0 -0.05 97.9 0.1 95.75 0.15 93.65 -0.05 91.7 -0.25 89.7 -0.3 87.75 -0.2 85.8 -0.25 83.75 -0.2 81.75 -0.1 79.65 0.0 77.85 -0.1 75.95 -0.1 73.55 0.0 71.6 0.0 69.75 0.1 67.75 0.1 65.8 -0.05 63.75 0.05 61.75 0.1 59.55 0.1 57.45 -0.1 55.65 -0.15 53.65 0.05 51.9 0.0 49.95 -0.2 Q48.75 -0.4 47.75 -0.2 L45.65 0.0 43.65 -0.05 41.85 -0.1 39.8 -0.1 37.95 0.0 36.0 0.05 33.75 0.05 31.75 0.05 29.85 0.2 27.85 0.2 25.7 0.05 23.85 0.0 21.85 0.0 19.75 -0.15 17.9 0.0 15.85 0.15 13.6 -0.05 11.5 -0.2 9.6 -0.4 Z" fill="none" stroke="#ffffff" stroke-linecap="round" stroke-linejoin="round" stroke-width="1.0"/>
  </g>
</svg>
