<?xml version="1.0" encoding="UTF-8" standalone="no"?>
<svg xmlns:xlink="http://www.w3.org/1999/xlink" height="30.0px" width="229.45px" xmlns="http://www.w3.org/2000/svg">
  <g transform="matrix(1.0, 0.0, 0.0, 1.0, 1.0, 1.0)">
    <path d="M227.45 0.0 L223.45 0.2 219.45 0.45 216.45 0.65 211.95 0.95 207.95 1.15 203.95 1.35 199.95 1.6 196.95 1.8 193.95 2.0 189.95 2.2 185.95 2.4 181.95 2.6 178.95 2.8 174.45 3.1 170.45 3.3 166.45 3.55 162.45 3.8 158.45 4.05 155.45 4.25 153.95 4.35 149.95 4.55 145.95 4.8 141.95 5.05 137.9 5.3 134.9 5.5 132.5 5.65 128.5 5.9 124.5 6.2 120.5 6.5 116.5 6.8 113.5 7.05 111.5 7.25 107.5 7.65 103.5 8.05 99.5 8.45 95.5 8.95 92.5 9.3 90.5 9.55 86.5 10.05 82.5 10.55 78.5 11.05 75.5 11.4 71.0 12.05 67.0 12.6 63.0 13.15 59.0 13.75 56.0 14.25 53.5 14.65 49.5 15.25 45.5 15.95 42.5 16.45 39.5 17.0 35.5 17.75 32.55 18.35 28.1 19.4 24.2 20.35 20.35 21.4 17.45 22.25 13.05 23.65 9.2 25.0 6.45 26.1 4.65 26.9 1.8 27.7 0.0 28.0" fill="none" stroke="#ffffff" stroke-linecap="round" stroke-linejoin="round" stroke-width="2.0"/>
  </g>
</svg>
