<?xml version="1.0" encoding="UTF-8" standalone="no"?>
<svg xmlns:xlink="http://www.w3.org/1999/xlink" height="199.55px" width="485.25px" xmlns="http://www.w3.org/2000/svg">
  <g transform="matrix(1.0, 0.0, 0.0, 1.0, 2.5, 2.65)">
    <path d="M480.15 194.05 L0.0 194.05 0.0 0.0 480.15 0.0 480.15 194.05" fill="#65b3a0" fill-rule="evenodd" stroke="none"/>
    <path d="M64.0 0.0 L58.55 0.35 Q55.05 0.8 52.05 0.45 L45.8 -0.1 39.85 -0.75 Q37.2 -1.15 33.9 -0.8 L28.0 -0.55 22.1 -0.7 15.95 -0.6 10.0 0.0 M160.6 0.0 L153.9 -0.2 148.25 0.1 141.95 0.55 Q138.95 1.15 136.4 -0.1 133.85 -1.3 130.6 -0.6 L124.45 -0.05 118.6 0.0 M223.85 0.0 Q220.85 -0.9 217.85 -0.55 L212.4 -0.3 205.7 0.15 Q201.5 0.75 199.5 -0.25 197.5 -1.25 193.4 -1.15 L187.4 -0.65 182.55 0.05 176.1 0.75 170.35 1.1 Q168.1 1.05 163.85 0.0 M320.45 0.0 L314.35 0.05 Q311.25 0.25 309.05 -0.05 306.9 -0.3 302.5 -0.15 L296.1 0.15 290.3 0.55 283.35 0.3 Q280.25 -0.25 277.85 0.25 L272.45 0.0 M383.75 0.0 L377.35 0.4 371.65 -0.05 366.45 -0.7 Q364.1 -1.35 360.4 -0.65 L353.9 0.0 347.95 -0.05 341.65 -0.05 335.75 0.0 329.7 -0.05 323.75 0.0 M434.95 0.0 Q431.55 -1.35 428.6 -0.35 425.65 0.65 422.35 1.05 419.05 1.45 415.85 0.45 412.65 -0.5 410.75 -0.25 L405.45 0.05 398.9 -0.3 392.5 -0.95 Q389.3 -1.2 386.95 0.0 M480.15 0.8 L480.15 0.0 474.15 -0.55 Q469.75 -1.1 467.65 0.05 465.6 1.2 461.8 1.0 458.05 0.85 455.8 -0.15 L450.4 -0.4 443.8 0.1 Q440.35 -0.15 438.15 0.0 M480.15 40.0 L480.5 34.6 Q480.7 31.45 480.35 28.75 480.05 26.05 480.05 22.35 L480.1 15.3 479.95 9.2 Q479.8 6.45 480.15 4.0 M480.15 97.3 Q481.15 95.05 480.65 91.65 480.15 88.3 480.5 85.5 480.9 82.75 479.75 80.25 478.65 77.75 479.3 74.05 480.0 70.35 480.0 67.8 L480.25 62.35 Q480.5 59.5 480.3 56.5 480.15 53.55 480.35 50.0 480.6 46.45 480.15 43.3 M350.65 194.05 L356.3 194.25 361.65 194.55 368.45 193.35 Q371.75 192.65 374.65 193.35 L380.0 194.3 386.65 194.05 M293.35 194.05 L299.1 193.35 Q302.45 192.7 305.55 193.35 L311.45 194.0 317.4 194.0 323.65 194.05 329.95 193.8 334.95 193.5 340.45 193.25 Q344.1 193.0 347.35 194.05 M389.95 194.05 L396.6 193.8 402.75 194.2 408.15 194.4 Q411.0 194.05 413.95 194.3 L420.25 195.05 426.4 195.35 Q429.3 195.2 431.95 194.05 M480.15 130.5 L480.5 124.35 480.4 118.45 480.2 112.4 480.2 105.7 480.15 100.5 M480.15 187.75 L480.3 181.65 Q480.45 178.6 480.0 175.6 479.55 172.65 479.85 169.65 L480.2 163.9 479.9 157.9 Q479.65 154.65 480.05 151.7 480.5 148.75 480.6 145.15 480.7 141.6 481.15 139.45 481.6 137.35 480.15 133.75 M435.25 194.05 Q439.2 192.65 441.7 193.35 L447.55 194.6 Q450.85 195.15 453.55 194.6 L459.25 194.05 465.9 193.85 471.55 194.0 Q473.5 194.3 476.1 193.4 478.7 192.55 480.15 190.95 M269.15 0.0 Q266.4 1.35 263.85 1.25 L258.2 1.25 252.15 0.75 245.1 0.4 238.95 0.1 Q236.95 -0.55 233.05 0.05 229.2 0.65 227.15 0.0 M172.9 194.05 L179.15 194.0 185.0 193.95 191.35 194.15 197.25 194.25 202.85 193.7 208.8 193.1 Q211.9 192.95 214.65 194.1 217.45 195.25 220.8 195.15 L227.05 194.6 232.9 194.05 M115.6 194.05 Q118.85 195.2 121.8 195.05 L127.8 194.2 133.5 193.65 139.25 193.75 145.05 193.9 151.75 194.15 158.7 194.15 164.05 194.75 Q166.6 195.5 169.6 194.05 M236.1 194.05 L242.25 193.95 Q245.15 193.75 248.15 194.0 251.2 194.3 254.15 193.95 257.1 193.65 260.1 193.9 L265.35 193.5 Q267.65 192.9 271.6 193.45 L278.3 194.05 284.1 194.35 290.1 194.05 M115.3 0.0 L109.85 0.0 102.9 0.15 97.4 0.1 91.8 0.6 Q88.3 1.3 85.3 0.0 82.3 -1.3 79.5 0.0 76.75 1.3 72.95 -0.05 69.2 -1.4 67.3 0.0 M6.8 0.0 Q3.2 0.0 2.5 1.1 1.8 2.2 0.8 5.2 -0.15 8.2 -0.6 11.15 -1.0 14.15 -0.45 17.15 0.15 20.15 0.05 23.55 L0.05 29.55 0.0 35.2 M0.0 38.45 L0.0 44.8 Q0.15 47.45 -0.55 50.75 -1.25 54.05 -0.85 56.25 -0.45 58.45 -0.3 62.1 -0.1 65.75 -0.3 68.65 -0.45 71.6 0.45 74.5 1.4 77.45 0.7 79.85 0.0 82.25 0.0 86.45 M0.0 134.85 Q0.65 138.95 0.3 141.55 0.0 144.2 -0.05 147.05 -0.1 149.9 0.3 152.95 0.7 156.0 0.25 158.9 -0.15 161.8 0.0 164.4 L0.45 170.95 Q0.75 174.9 0.0 176.85 M0.0 89.65 Q-0.4 92.7 -0.2 95.55 L0.4 101.35 Q0.75 104.3 0.25 107.3 -0.25 110.3 0.6 113.65 1.45 117.0 0.8 119.9 0.15 122.8 0.1 125.8 L0.0 131.65 M0.0 180.05 Q-0.75 183.05 -0.75 185.5 -0.75 188.0 0.55 189.8 1.9 191.65 4.45 193.5 7.0 195.35 10.25 194.75 L16.95 194.3 22.45 194.15 Q24.45 193.85 28.0 194.05 M31.2 194.05 L38.2 194.3 Q41.5 193.7 44.1 194.3 46.75 194.9 49.85 194.4 L55.95 193.95 61.65 194.25 67.9 193.65 Q71.5 192.85 73.2 194.05 M76.4 194.05 Q78.95 192.6 81.65 193.2 L87.75 194.15 Q91.2 194.5 94.15 194.1 L99.75 193.95 105.95 193.6 Q109.5 193.0 112.4 194.05" fill="none" stroke="#65b3a0" stroke-linecap="round" stroke-linejoin="round" stroke-width="3.0"/>
  </g>
</svg>
