<?xml version="1.0" encoding="UTF-8" standalone="no"?>
<svg xmlns:xlink="http://www.w3.org/1999/xlink" height="17.2px" width="17.2px" xmlns="http://www.w3.org/2000/svg">
  <g transform="matrix(1.0, 0.0, 0.0, 1.0, 9.4, 8.0)">
    <path d="M6.45 -4.8 L6.5 -4.6 6.55 -4.45 6.65 -4.25 6.65 -4.05 6.65 -3.7 6.6 -3.3 6.4 -2.55 6.25 -2.2 6.45 -2.0 6.7 -1.8 7.0 -1.6 7.3 -1.45 7.5 -1.25 7.6 -1.05 7.7 -0.85 7.75 -0.7 7.75 -0.5 7.75 -0.3 7.75 -0.1 7.75 0.05 7.75 0.65 7.75 1.0 7.7 1.2 7.6 1.4 7.5 1.55 7.4 1.75 7.15 2.15 6.85 2.3 6.0 2.9 4.2 3.8 4.2 4.0 4.25 4.4 4.25 4.75 4.25 5.5 4.25 5.9 4.2 6.05 4.1 6.25 4.0 6.45 3.95 6.6 3.75 7.0 3.55 7.2 3.35 7.35 3.15 7.55 2.85 7.65 1.75 7.75 0.7 7.65 0.45 7.45 -0.45 7.05 -1.7 6.3 -1.8 6.2 -2.5 6.3 Q-6.1 7.3 -8.45 4.7 L-8.5 4.5 -8.5 4.3 -8.5 4.15 -8.5 3.95 -8.5 3.55 -8.45 3.2 -8.45 3.0 -8.5 2.6 -8.5 2.05 -8.5 1.15 -8.45 0.75 -8.3 0.55 -7.95 0.2 -7.55 -0.2 -7.05 -0.75 -7.2 -0.95 -7.35 -1.15 -7.45 -1.3 -7.5 -1.5 -7.5 -1.85 -7.5 -2.25 -7.5 -3.0 -7.45 -3.35 -7.5 -3.55 -7.5 -3.75 -7.5 -3.95 -7.45 -4.1 -7.35 -4.3 -7.25 -4.5 -7.1 -4.7 -7.0 -4.85 -6.7 -5.25 -6.3 -5.6 -5.75 -5.7 -4.75 -5.6 -4.35 -5.55 -4.05 -5.65 -3.85 -5.7 -3.5 -5.75 -2.55 -5.85 -2.45 -6.05 -2.1 -6.45 -1.25 -7.0 -0.6 -7.3 -0.25 -7.35 3.9 -7.05 Q5.25 -6.55 6.2 -5.35 L6.25 -5.2 6.35 -5.0 6.45 -4.8" fill="#908282" fill-opacity="0.5019608" fill-rule="evenodd" stroke="none"/>
    <path d="M2.7 -5.45 L2.8 -5.25 3.05 -4.7 3.2 -4.3 3.2 -4.1 3.2 -3.55 3.2 -2.65 3.25 -2.3 3.4 -2.25 4.3 -1.8 5.05 -1.2 5.25 -1.0 5.35 -0.8 5.45 -0.6 5.5 -0.45 5.45 0.3 Q5.25 1.7 4.1 2.55 L3.55 2.95 3.6 3.1 3.65 3.3 3.7 3.5 3.75 3.7 3.75 3.9 3.75 4.05 3.75 4.25 3.75 4.45 3.7 4.6 3.6 4.8 3.5 5.0 Q2.9 5.75 1.95 6.0 L-1.05 5.9 -1.3 5.7 -1.5 5.5 -1.6 5.3 -1.7 5.15 -1.75 4.95 -1.75 4.75 Q-4.15 5.3 -6.4 4.35 L-7.3 3.75 -7.5 3.55 -7.55 3.4 -7.6 3.2 -7.6 3.0 -7.6 2.65 -7.6 1.9 -7.6 1.5 -7.55 1.3 -7.5 1.15 -7.4 0.95 -7.3 0.75 -7.1 0.55 -6.65 0.2 -6.0 -0.2 -5.95 -0.35 -6.0 -0.55 -6.05 -0.75 -6.05 -0.95 -6.05 -1.5 -6.05 -2.45 -6.0 -2.6 -5.9 -2.8 -5.75 -3.0 -5.5 -3.4 -5.45 -3.55 -4.95 -3.9 Q-3.9 -4.5 -2.7 -4.45 L-2.1 -4.95 Q-0.85 -5.7 0.5 -5.95 L1.75 -5.85 2.55 -5.6 2.7 -5.45" fill="#908282" fill-opacity="0.5019608" fill-rule="evenodd" stroke="none"/>
    <path d="M4.75 -3.3 L5.75 -3.2 6.55 -2.95 6.75 -2.75 6.85 -2.55 6.95 -2.35 7.15 -2.15 7.3 -2.0 7.5 -1.8 7.65 -1.6 7.7 -1.45 7.75 -1.25 7.8 -1.05 7.8 -0.85 7.8 -0.1 7.8 0.8 7.8 1.2 7.75 1.35 7.55 1.75 7.15 2.35 7.05 2.5 6.6 2.85 Q5.7 3.5 4.65 3.65 L4.7 3.8 4.75 4.0 4.8 4.2 4.8 4.4 4.8 5.15 4.8 6.05 4.8 6.45 4.75 6.6 4.65 6.8 4.55 7.0 4.45 7.2 Q0.75 9.15 -3.05 6.9 L-3.3 6.7 -5.5 6.6 -6.0 6.5 -6.25 6.3 -6.35 6.2 -6.75 6.05 -7.05 5.9 -7.25 5.7 -7.35 5.5 -7.55 5.1 -7.7 4.75 -7.7 4.55 -7.7 4.4 -7.7 4.2 -7.7 3.8 -7.6 3.65 -7.55 3.45 -7.3 3.05 -7.0 2.7 -6.95 2.5 -6.85 2.3 -6.6 1.95 -6.25 1.55 -3.25 1.35 Q-2.3 1.55 -1.45 2.05 L-0.8 1.9 1.15 1.7 1.15 1.55 1.2 1.4 1.2 1.0 1.2 0.45 1.4 0.1 Q1.95 -0.7 2.9 -1.0 L3.4 -1.1 3.4 -1.3 3.45 -1.5 3.45 -1.85 3.45 -2.25 3.5 -2.45 3.6 -2.6 3.7 -2.8 3.9 -3.0 4.2 -3.2 4.75 -3.3" fill="#908282" fill-opacity="0.5019608" fill-rule="evenodd" stroke="none"/>
    <path d="M4.5 -6.5 L5.0 -6.35 5.3 -6.2 5.55 -5.8 6.0 -5.05 6.05 -4.85 6.05 -4.5 6.05 -3.75 6.05 -3.2 6.0 -3.0 5.95 -2.8 5.75 -2.45 6.65 -1.65 Q7.15 -1.2 7.3 -0.55 L7.3 0.2 7.3 1.3 7.3 1.7 7.25 1.85 7.15 2.05 7.05 2.25 5.75 3.15 Q5.2 3.4 4.7 3.75 L4.95 4.35 5.4 5.25 5.55 5.65 5.55 5.8 5.55 6.2 5.55 6.75 5.55 6.95 5.5 7.1 5.4 7.3 5.2 7.7 Q2.6 10.15 -0.8 8.55 L-1.1 8.2 -1.5 7.45 -1.55 7.25 -1.7 7.05 -1.85 6.9 -1.95 6.7 -2.0 6.5 -2.0 6.3 Q-2.05 6.2 -2.15 6.2 L-2.5 6.15 Q-6.1 7.05 -8.85 5.25 L-8.9 5.05 -8.95 4.9 -8.95 4.5 -8.95 4.3 -8.85 4.15 -8.8 3.95 -8.7 3.75 Q-6.25 3.0 -3.5 3.15 L-2.65 3.0 -1.5 2.75 -1.0 2.9 -0.7 3.05 0.0 4.4 0.75 6.25 2.7 6.3 2.95 6.15 2.85 5.95 2.75 5.75 2.7 5.55 2.5 5.4 2.2 5.2 2.0 5.05 1.45 4.95 1.15 4.75 0.75 4.35 0.5 4.0 0.45 3.8 0.45 3.65 0.45 3.25 0.45 3.05 0.5 2.9 0.6 2.7 0.7 2.5 Q2.15 1.7 3.8 1.15 L4.7 0.55 Q4.3 -0.3 3.25 -0.7 2.6 -0.9 2.25 -1.5 L2.2 -1.7 2.2 -1.85 2.2 -2.25 2.2 -2.45 2.25 -2.6 2.35 -2.8 2.45 -3.0 2.6 -3.15 3.2 -3.6 3.4 -3.75 3.4 -3.95 3.4 -4.1 3.25 -4.5 3.2 -4.7 3.2 -4.85 3.2 -5.05 3.2 -5.25 3.25 -5.45 3.3 -5.6 3.4 -5.8 3.5 -6.0 3.7 -6.2 3.95 -6.35 4.5 -6.45 4.5 -6.5" fill="#908282" fill-opacity="0.5019608" fill-rule="evenodd" stroke="none"/>
    <path d="M3.75 -7.55 L3.85 -7.45 4.0 -7.3 4.2 -7.1 4.45 -6.8 4.75 -6.55 4.8 -6.45 4.85 -6.25 4.95 -6.0 5.1 -5.5 5.2 -5.05 5.15 -4.95 5.15 -4.65 5.15 -4.3 5.1 -3.55 5.1 -3.25 5.05 -3.15 5.0 -3.05 4.95 -3.0 4.9 -2.9 4.9 -2.85 5.1 -2.9 5.35 -2.8 5.65 -2.7 5.85 -2.65 6.65 -1.9 7.4 -0.75 7.45 -0.65 7.45 -0.55 7.45 -0.5 7.5 -0.3 7.5 0.0 7.6 0.25 7.65 0.85 7.65 1.5 7.6 1.6 7.55 1.7 7.45 1.95 7.3 2.25 Q6.5 2.95 5.5 3.3 L4.35 3.7 4.5 3.85 4.8 4.1 4.85 4.2 4.85 4.3 4.9 4.4 4.95 4.5 4.95 4.85 5.0 5.45 5.05 6.0 5.05 6.1 4.9 6.45 4.65 7.05 4.45 7.5 Q1.4 9.7 -1.7 7.4 L-1.85 7.15 -2.0 6.75 -2.1 6.25 -2.1 6.2 -2.05 6.1 -2.05 6.0 -2.05 5.95 -2.1 6.0 -2.15 6.1 -2.45 6.4 -2.8 6.55 -2.9 6.65 -2.95 6.7 Q-6.35 7.65 -8.7 5.2 L-9.4 4.15 -9.35 3.2 -9.3 2.35 -9.05 1.5 -8.45 0.7 -7.75 -0.05 -7.4 -0.3 -7.2 -0.4 -7.0 -0.5 -6.9 -0.55 -6.75 -0.55 -6.65 -0.55 -6.4 -0.6 -6.4 -0.65 -6.0 -0.65 -5.55 -0.45 -5.5 -0.35 -5.55 -0.25 -5.55 -0.15 -5.6 -0.1 -5.65 -0.1 -5.75 0.0 -5.9 0.05 -5.95 0.05 -6.0 0.0 -6.55 0.0 Q-7.6 0.55 -8.15 1.6 -8.7 2.65 -8.65 3.85 L-8.65 3.95 Q-7.2 6.6 -3.9 6.2 L-2.4 5.7 -2.25 5.7 -2.1 5.6 -1.95 5.55 -1.95 5.5 -1.9 5.45 -1.85 5.35 -1.8 5.3 -1.6 5.2 -1.45 5.25 -1.35 5.35 -1.35 5.45 -1.4 5.5 -1.45 5.6 -1.45 5.7 -1.45 5.8 -1.45 5.9 -1.45 6.0 -1.4 6.2 -1.35 6.35 -1.3 6.65 -1.2 6.85 Q0.5 8.0 2.55 7.65 L3.2 7.35 3.7 7.0 3.85 6.7 3.95 6.35 4.15 5.85 4.15 5.5 4.15 5.0 4.05 4.45 3.9 4.25 3.75 4.1 3.6 3.85 3.45 3.85 3.15 3.9 3.0 3.95 2.8 3.85 2.75 3.75 2.7 3.7 2.7 3.6 2.75 3.5 2.85 3.4 3.0 3.4 2.95 3.35 2.85 3.25 2.75 3.1 2.25 2.7 2.3 2.7 2.5 2.8 2.7 2.9 2.9 2.9 3.1 2.9 3.4 3.05 3.6 3.2 3.6 3.15 5.35 2.5 6.6 1.75 6.7 1.65 6.7 1.55 6.75 1.45 6.85 1.25 6.85 1.2 6.85 1.1 6.85 1.0 6.85 0.8 6.75 0.55 6.65 0.05 6.6 -0.5 5.8 -1.7 Q5.15 -2.3 4.25 -2.3 L4.1 -2.4 4.1 -2.5 4.1 -2.55 4.15 -2.65 4.35 -2.75 4.6 -2.8 4.6 -2.85 4.55 -2.95 4.55 -3.05 4.55 -3.15 4.6 -3.25 4.6 -3.3 4.55 -3.5 4.55 -3.8 4.55 -4.25 4.55 -4.8 4.5 -4.9 4.45 -5.1 4.45 -5.3 4.4 -5.45 4.2 -5.95 4.2 -6.05 Q3.4 -7.1 2.1 -7.1 L-0.5 -6.95 Q-1.75 -6.8 -2.25 -5.65 L-2.25 -5.6 -2.05 -5.25 -2.0 -5.15 -2.0 -5.05 -2.0 -4.95 -2.0 -4.85 -2.05 -4.75 -2.1 -4.65 -2.15 -4.55 -2.15 -4.5 -2.15 -4.4 -2.2 -4.3 -2.3 -4.25 -2.35 -4.35 -2.4 -4.45 -2.4 -4.55 -2.4 -4.65 -2.45 -4.75 -2.5 -4.8 -2.5 -4.9 -2.55 -4.95 -2.65 -4.8 -2.65 -4.75 -2.65 -4.65 -2.65 -4.55 -2.65 -4.45 -2.65 -4.35 -2.65 -4.25 -2.7 -4.15 -2.75 -4.1 -2.9 -4.0 -3.05 -4.1 -3.15 -4.15 -3.15 -4.25 -3.15 -4.35 -3.15 -4.45 -3.15 -4.55 -3.15 -4.65 -3.15 -4.75 -3.2 -4.8 -3.25 -4.9 -3.3 -5.0 -3.3 -5.1 -3.25 -5.2 -3.2 -5.4 -3.3 -5.45 -5.2 -5.55 -5.8 -5.2 Q-6.7 -4.6 -6.85 -3.6 L-7.0 -2.75 -7.0 -2.65 -7.0 -2.55 -7.0 -2.5 -7.0 -2.3 -7.0 -2.1 -6.95 -2.0 -6.95 -1.8 -6.8 -1.45 -6.6 -1.0 -6.45 -0.9 -6.4 -0.75 -6.4 -0.7 -6.45 -0.7 -6.65 -0.8 -6.7 -0.75 -6.8 -0.75 -6.9 -0.7 -7.1 -0.75 -7.2 -0.85 -7.25 -0.95 -7.3 -1.05 -7.4 -1.15 -7.55 -1.25 -7.6 -1.35 -7.65 -1.4 -7.7 -1.5 -7.75 -1.7 -7.8 -1.9 -7.8 -2.0 -7.8 -2.55 -7.65 -3.65 -7.6 -4.25 -7.5 -4.5 -6.4 -5.7 -5.3 -6.35 -5.15 -6.35 -5.15 -6.4 -3.1 -6.2 -2.9 -6.1 -2.65 -6.6 -1.95 -7.35 -1.8 -7.45 -1.15 -7.7 -0.4 -7.95 -0.15 -8.0 2.1 -7.95 Q2.95 -7.95 3.75 -7.55" fill="#333333" fill-rule="evenodd" stroke="none"/>
  </g>
</svg>
