<?xml version="1.0" encoding="UTF-8" standalone="no"?>
<svg xmlns:xlink="http://www.w3.org/1999/xlink" height="18.0px" width="17.75px" xmlns="http://www.w3.org/2000/svg">
  <g transform="matrix(1.0, 0.0, 0.0, 1.0, 9.45, 8.7)">
    <path d="M1.65 -8.35 L3.75 -7.95 4.45 -7.7 4.6 -7.5 4.75 -7.3 4.9 -7.1 4.9 -6.95 4.95 -6.75 4.95 -6.55 4.95 -6.35 4.95 -6.2 5.0 -6.0 5.05 -5.8 5.05 -5.25 5.05 -5.05 5.05 -4.1 5.05 -2.6 5.0 -2.45 4.95 -2.25 5.05 -2.1 5.25 -1.85 5.4 -1.7 5.5 -1.5 Q5.85 -1.25 6.25 -1.15 L6.7 -1.0 7.25 -0.6 7.35 -0.45 7.55 -0.05 7.65 0.15 7.7 0.3 7.8 0.7 7.8 0.9 7.8 1.05 7.8 1.25 7.65 1.65 7.55 1.8 7.45 2.0 7.3 2.2 7.05 2.55 6.8 2.75 6.55 2.9 6.2 3.15 6.1 3.3 6.05 3.5 6.05 3.7 6.0 3.9 5.9 4.25 5.8 4.45 5.75 4.6 5.55 5.0 5.55 5.2 5.55 5.4 5.55 5.55 5.55 5.75 5.55 5.95 5.4 6.3 5.35 6.5 5.25 6.7 5.15 6.9 4.9 7.25 3.6 7.95 Q1.35 8.6 -0.55 7.55 L-0.75 7.4 -0.95 7.2 -2.45 6.6 -2.8 6.4 -3.3 6.05 -3.4 5.85 -3.5 5.7 -3.55 5.5 -6.05 5.15 -6.45 5.0 -6.8 4.8 -7.0 4.6 -7.3 4.25 -7.4 4.05 -7.5 3.9 -7.55 3.7 -7.55 3.5 -7.55 3.15 -7.55 2.95 -7.55 2.75 -7.55 2.55 -7.5 2.4 -7.3 2.0 -7.2 1.8 -7.0 1.65 -6.8 1.45 -6.2 1.05 -5.95 0.9 -5.65 0.65 -5.55 0.5 -5.6 0.4 -5.75 0.3 -6.3 0.2 -6.8 -0.2 -7.0 -0.35 -7.25 -0.55 -7.8 -0.95 -8.1 -1.3 -8.25 -1.5 -8.3 -1.7 -8.4 -1.9 -8.55 -2.25 -8.55 -2.6 -8.55 -2.8 -8.55 -3.0 -8.55 -3.35 -8.55 -3.95 -8.5 -4.1 -8.35 -4.5 -8.25 -4.7 -8.15 -4.85 -8.05 -5.05 -7.85 -5.25 -7.7 -5.45 -7.5 -5.6 -7.3 -5.8 -5.25 -6.3 -2.45 -6.45 -2.3 -6.55 -2.2 -6.75 -2.0 -6.95 -1.65 -7.15 -1.2 -7.5 -1.0 -7.7 -0.75 -7.8 -0.6 -7.85 -0.35 -8.0 -0.1 -8.2 0.15 -8.3 0.5 -8.35 1.65 -8.35" fill="#908282" fill-opacity="0.5019608" fill-rule="evenodd" stroke="none"/>
    <path d="M1.75 -7.5 L2.25 -7.45 2.45 -7.2 3.2 -6.6 3.65 -6.3 3.7 -6.15 4.5 -5.5 5.05 -5.2 5.2 -5.0 5.45 -4.6 5.65 -4.25 5.8 -3.85 5.8 -3.7 5.8 -3.3 5.8 -2.95 5.8 -2.55 5.8 -2.35 5.9 -2.3 6.75 -2.0 7.05 -1.85 7.25 -1.7 7.5 -1.3 7.8 -0.75 7.95 -0.35 7.95 -0.2 7.95 0.2 7.95 0.55 7.95 0.95 7.95 1.15 8.0 1.3 8.05 1.5 8.15 1.7 8.2 1.9 8.2 2.05 8.2 2.65 8.2 3.2 8.2 3.75 Q6.85 6.2 4.15 7.35 L-0.25 7.2 -0.45 7.0 -0.6 6.8 -0.75 6.6 -0.8 6.5 Q-2.65 6.4 -4.2 5.3 L-5.3 4.2 -5.4 3.6 -5.35 2.7 -5.35 1.75 -5.3 1.55 -5.3 1.5 -5.5 1.35 -6.55 1.0 -6.8 0.8 -7.0 0.65 -7.1 0.45 -7.2 0.25 -7.25 0.05 -7.3 -0.1 -7.3 -0.3 -7.3 -0.5 -7.3 -0.85 -7.3 -1.05 -7.3 -1.25 -7.25 -1.45 -7.1 -1.8 -6.9 -2.2 -6.7 -2.55 -6.7 -2.75 -6.7 -3.1 -6.7 -3.7 -6.7 -4.25 -6.6 -4.45 -6.5 -4.65 -6.3 -5.0 -6.1 -5.2 -5.8 -5.3 Q-4.7 -5.5 -3.55 -5.3 L-3.3 -5.5 -1.8 -7.0 Q-0.55 -7.9 1.0 -7.55 L1.75 -7.5 M-5.55 -0.6 L-4.85 -0.45 -5.55 -0.8 -5.7 -0.85 -5.7 -0.8 -5.55 -0.6" fill="#908282" fill-opacity="0.5019608" fill-rule="evenodd" stroke="none"/>
    <path d="M0.4 -3.75 L0.9 -4.3 2.0 -5.05 2.5 -5.15 2.5 -5.2 Q3.45 -5.0 4.05 -4.2 L5.2 -3.0 5.25 -2.8 5.15 -2.5 Q4.9 -2.25 4.95 -1.85 L5.2 -1.6 6.2 -0.95 6.35 -0.75 6.5 -0.55 6.65 -0.35 6.65 0.0 6.7 0.55 6.7 1.15 6.65 1.3 6.55 1.5 6.45 1.7 6.45 1.9 6.45 2.25 6.45 2.65 6.45 2.8 6.4 3.0 6.3 3.2 6.25 3.4 6.1 3.55 5.85 3.75 5.5 3.95 5.55 4.1 5.6 4.3 5.8 4.7 5.9 4.9 5.9 5.25 5.9 5.8 5.9 6.4 5.55 7.15 4.75 8.05 4.5 8.25 Q1.65 9.7 -0.75 8.0 -1.8 7.5 -3.25 7.1 L-3.6 6.95 -3.8 6.75 -4.0 6.55 -4.1 6.35 -4.2 6.2 -4.3 6.0 -4.35 5.8 -4.35 5.65 -4.35 5.25 -4.35 4.9 -4.35 4.7 -4.4 4.5 -4.6 4.15 -4.8 3.55 -4.85 3.4 -4.85 3.0 -4.9 2.45 -4.8 1.9 -4.2 1.1 -3.0 0.0 -0.2 -0.2 -0.2 -0.35 -0.2 -0.55 -0.2 -0.75 -0.1 -0.95 0.15 -1.3 0.7 -1.85 0.5 -2.05 0.4 -2.25 0.3 -2.45 0.3 -2.6 0.3 -3.0 0.35 -3.55 0.4 -3.75" fill="#908282" fill-opacity="0.5019608" fill-rule="evenodd" stroke="none"/>
    <path d="M3.75 -3.55 Q4.95 -3.75 5.8 -2.9 L6.75 -1.55 6.9 -1.4 7.8 -0.95 8.0 -0.8 8.1 -0.6 8.2 -0.45 8.25 -0.25 8.3 -0.05 8.3 0.15 8.3 0.5 8.3 1.05 8.3 1.45 8.25 1.6 8.15 1.8 7.95 2.2 7.75 2.55 7.55 2.75 6.95 3.1 6.2 3.5 6.15 3.7 6.25 3.9 6.3 4.05 6.3 4.25 6.3 4.65 6.3 5.4 6.3 5.95 6.25 6.1 6.1 6.5 5.7 7.25 5.45 7.65 Q3.1 9.75 0.1 8.6 L-0.8 8.4 -1.2 7.95 -1.85 7.05 -2.25 6.3 -2.25 6.15 -2.25 5.95 -2.35 5.75 -2.45 5.55 -2.45 5.4 -2.45 5.2 -2.45 5.0 -7.5 5.55 -8.0 5.5 -8.25 5.3 -8.45 5.1 -8.55 4.95 -8.6 4.75 -8.6 4.55 -8.6 4.4 -8.6 4.2 -8.55 4.0 -8.35 3.8 -7.95 3.45 -7.75 3.3 -7.6 3.25 -6.6 3.0 -5.95 2.7 -5.5 2.55 -5.2 2.65 Q-3.5 2.0 -1.75 2.2 -1.05 2.3 -0.45 2.65 L-0.3 2.8 -0.2 3.0 -0.1 3.2 -0.05 3.4 -0.05 3.55 -0.05 3.95 -0.05 4.5 -0.05 4.9 0.0 5.05 0.05 5.25 0.15 5.45 0.3 5.8 0.5 6.0 0.7 6.15 1.25 6.4 2.7 6.4 3.05 6.2 3.4 6.0 3.5 5.8 3.6 5.65 3.7 5.45 3.7 5.25 3.7 5.05 3.7 4.9 3.6 4.7 3.4 4.5 3.25 4.4 3.2 4.35 2.7 4.15 1.95 3.8 1.75 3.6 1.65 3.45 1.5 3.25 1.45 3.05 1.45 2.9 1.45 2.7 1.45 2.5 1.5 2.3 1.6 2.15 1.7 1.95 1.9 1.75 2.2 1.55 2.75 1.45 3.45 1.3 3.75 1.15 3.8 0.95 3.9 0.75 4.0 0.55 4.2 0.2 4.2 0.0 4.2 -0.2 4.2 -0.35 4.2 -0.55 4.15 -0.65 3.75 -0.7 2.95 -0.8 2.65 -1.0 2.45 -1.2 2.35 -1.4 2.25 -1.55 2.2 -1.75 2.2 -1.95 2.2 -2.1 2.2 -2.3 2.25 -2.5 2.5 -2.85 Q2.8 -3.25 3.2 -3.45 L3.75 -3.55" fill="#908282" fill-opacity="0.5019608" fill-rule="evenodd" stroke="none"/>
    <path d="M3.85 -7.75 Q5.05 -7.05 5.4 -5.8 L5.4 -5.6 5.4 -5.05 5.35 -4.4 5.35 -4.0 5.3 -3.9 5.2 -3.65 5.1 -3.35 5.0 -3.15 4.9 -3.05 4.5 -2.85 4.1 -2.75 3.95 -2.8 3.95 -2.9 4.0 -2.95 4.1 -3.05 4.2 -3.15 4.25 -3.25 4.35 -3.35 4.4 -3.45 4.45 -3.55 4.5 -3.65 4.55 -3.8 4.6 -4.0 4.65 -4.1 4.65 -4.2 4.6 -4.65 4.6 -5.3 4.6 -5.6 4.55 -5.7 4.4 -6.05 4.1 -6.55 3.95 -6.75 Q2.2 -7.95 0.15 -7.65 L-1.2 -7.0 -1.95 -6.3 -2.0 -6.25 -2.2 -6.25 -2.25 -6.15 -2.3 -6.05 -2.35 -5.95 -2.5 -5.9 -2.65 -5.95 -2.65 -6.05 -2.65 -6.15 -2.6 -6.2 -2.55 -6.3 -2.5 -6.4 -2.55 -6.5 -2.55 -6.6 -2.55 -6.7 -2.4 -6.85 -1.95 -7.35 -1.45 -7.9 -1.2 -8.1 0.0 -8.65 0.1 -8.65 0.25 -8.7 Q2.2 -8.75 3.85 -7.75 M4.15 -2.0 L4.85 -2.1 6.1 -2.0 6.95 -1.8 7.05 -1.75 7.4 -1.45 7.9 -1.0 8.0 -0.9 8.05 -0.8 8.2 -0.15 8.2 0.9 8.15 1.45 8.05 1.65 7.45 2.5 6.55 3.5 6.35 3.6 6.2 3.7 6.1 3.8 5.95 3.9 5.9 3.95 5.7 4.0 5.6 4.05 5.65 4.15 Q6.0 4.85 5.95 5.65 L5.95 6.2 Q4.95 8.95 1.85 9.25 -0.9 9.5 -3.0 7.95 L-3.45 7.45 -3.55 7.25 -3.6 7.0 -3.6 6.7 -3.6 6.35 -3.55 6.25 -3.5 6.15 -3.35 5.95 -3.2 5.8 -3.15 5.7 -3.1 5.7 -3.0 5.65 -2.85 5.75 -2.8 5.8 -2.75 5.9 -2.8 6.0 -2.85 6.1 -2.9 6.2 -2.9 6.25 -2.9 6.35 -2.9 6.45 -2.9 6.55 -2.9 6.65 -2.9 6.75 -2.9 6.85 -2.9 6.95 -2.85 7.0 Q-0.75 8.95 2.3 8.3 4.35 7.9 5.05 6.05 L5.05 5.75 5.0 5.4 4.95 4.85 4.9 4.65 4.8 4.45 4.65 4.3 4.5 4.1 4.4 4.0 3.9 3.75 3.3 3.45 3.1 3.35 2.95 3.3 2.9 3.2 2.85 3.1 2.9 3.05 2.95 2.95 3.1 2.95 3.3 2.85 3.4 2.8 3.45 2.75 3.6 2.75 4.45 3.05 5.15 3.4 5.3 3.6 5.45 3.45 5.7 3.25 5.8 3.15 5.95 2.95 6.6 2.2 7.35 1.2 7.4 1.1 7.45 0.7 7.5 0.15 7.35 -0.4 7.3 -0.5 6.9 -0.9 6.2 -1.35 4.85 -1.45 4.2 -1.35 4.1 -1.35 3.9 -1.4 3.85 -1.5 3.8 -1.55 3.8 -1.65 4.15 -2.0 M-2.65 -6.25 L-2.7 -6.15 -2.75 -6.05 -2.85 -5.95 -3.05 -5.9 Q-5.4 -6.45 -7.4 -4.9 -8.1 -4.35 -8.45 -3.55 L-8.55 -3.35 -8.55 -3.25 -8.55 -2.8 -8.45 -2.15 -8.4 -1.85 -7.8 -1.3 Q-6.9 -0.4 -5.75 0.15 L-5.55 0.2 -5.5 0.3 -5.45 0.4 -5.35 0.45 -4.8 0.6 Q-4.65 0.65 -4.55 0.75 L-4.6 0.8 -4.95 0.8 -5.35 0.7 -5.35 0.75 -5.4 0.85 -5.45 0.95 -5.5 1.05 -5.65 1.1 -5.8 1.1 -5.9 1.15 -6.1 1.25 -6.35 1.55 -6.75 1.95 -7.0 2.6 -7.05 3.15 -7.05 3.6 -5.85 4.95 -4.2 5.2 -4.1 5.15 -4.05 5.1 -3.75 5.0 -3.6 5.05 -3.55 5.15 -3.5 5.25 -3.5 5.35 -3.5 5.45 -3.5 5.5 -3.55 5.6 -3.55 5.7 -3.6 5.8 -3.65 5.9 -3.75 6.0 -4.05 6.15 -4.1 6.2 Q-5.85 6.4 -7.1 5.15 L-7.55 4.65 -7.7 4.35 -7.9 3.9 -7.95 3.8 -7.95 2.95 -7.8 2.1 -7.55 1.55 -7.05 1.05 -6.65 0.65 -6.55 0.6 -6.4 0.6 -8.2 -0.4 -8.3 -0.5 -8.75 -1.0 -9.15 -1.35 -9.15 -1.45 -9.3 -1.8 -9.4 -2.2 -9.45 -2.4 -9.45 -2.5 -9.45 -2.85 -9.45 -3.25 -9.45 -3.4 -9.4 -3.5 -9.1 -4.15 -8.55 -5.1 -7.15 -6.05 -5.15 -6.85 -4.9 -6.9 -3.55 -6.8 Q-3.05 -6.75 -2.7 -6.4 L-2.65 -6.3 -2.65 -6.25" fill="#333333" fill-rule="evenodd" stroke="none"/>
  </g>
</svg>
