<?xml version="1.0" encoding="UTF-8" standalone="no"?>
<svg xmlns:xlink="http://www.w3.org/1999/xlink" height="15.6px" width="18.05px" xmlns="http://www.w3.org/2000/svg">
  <g transform="matrix(1.0, 0.0, 0.0, 1.0, 9.55, 7.15)">
    <path d="M1.5 -6.7 L2.7 -6.45 3.65 -5.8 3.75 -5.6 3.8 -5.45 3.9 -5.25 3.95 -5.05 3.95 -4.85 3.95 -4.7 3.95 -4.5 3.95 -4.3 4.05 -4.15 4.25 -3.95 4.45 -3.75 4.65 -3.55 4.75 -3.35 4.8 -3.2 4.9 -3.0 4.95 -2.8 4.95 -2.6 4.95 -2.45 4.95 -2.25 5.3 -2.0 7.05 -1.2 7.25 -1.0 7.45 -0.65 7.7 -0.05 7.75 0.15 7.75 0.3 7.7 0.5 7.7 0.9 7.7 1.45 7.05 2.7 Q6.2 4.15 4.55 4.65 L4.4 4.85 4.3 5.0 4.25 5.2 4.1 5.35 3.95 5.55 3.55 5.95 3.3 6.15 3.2 6.3 3.1 6.5 3.0 6.7 2.85 6.85 2.65 7.05 0.5 7.25 -0.05 7.15 -0.3 6.95 -0.5 6.75 -0.6 6.65 -6.55 6.4 -7.5 5.55 Q-8.45 4.9 -8.75 3.75 L-8.75 3.55 -8.75 3.0 -8.75 2.05 -8.75 1.7 -8.45 1.15 Q-7.7 0.15 -6.55 -0.35 L-6.65 -0.55 -6.8 -0.75 -7.0 -0.95 -7.05 -1.1 -7.1 -1.3 -7.1 -1.7 -7.1 -2.25 -7.1 -2.8 -6.65 -3.7 Q-5.85 -4.95 -4.5 -5.55 L-3.0 -5.6 -1.2 -5.25 -0.8 -5.55 1.0 -6.55 1.5 -6.65 1.5 -6.7" fill="#908282" fill-opacity="0.5019608" fill-rule="evenodd" stroke="none"/>
    <path d="M2.05 -4.95 L2.25 -4.75 2.3 -4.55 2.5 -4.2 2.5 -4.0 2.5 -3.8 2.5 -3.6 2.5 -3.45 2.45 -3.25 2.3 -2.9 2.0 -2.5 3.65 -1.85 5.2 -0.8 5.45 -0.25 5.95 0.9 6.0 1.05 6.0 1.25 6.0 1.65 6.0 2.2 6.0 2.4 5.65 3.3 4.55 4.65 4.5 4.8 4.5 5.0 4.5 5.2 4.5 5.4 4.25 5.95 3.15 7.05 -0.05 7.15 -0.3 6.95 -0.55 6.75 -0.95 6.65 Q-3.5 7.7 -5.95 6.3 L-6.35 5.95 -6.95 5.2 -7.0 4.25 -7.0 2.75 -7.0 2.55 -6.95 2.4 -6.85 2.2 -6.7 1.8 -6.6 1.65 -6.45 1.45 -6.25 1.25 -6.05 1.05 -6.1 0.9 -6.2 0.7 -6.25 0.5 -6.25 -0.6 -6.2 -2.3 -6.2 -2.7 Q-4.75 -4.65 -2.45 -3.65 L-2.2 -3.5 -2.0 -3.5 -1.6 -3.55 -1.5 -3.75 -1.3 -3.95 -1.05 -4.1 -0.45 -4.3 -0.05 -4.65 0.9 -5.2 1.25 -5.2 1.25 -5.25 1.75 -5.1 2.05 -4.95" fill="#908282" fill-opacity="0.5019608" fill-rule="evenodd" stroke="none"/>
    <path d="M4.15 -6.2 L4.5 -5.85 4.6 -5.3 4.25 -4.35 4.2 -4.2 4.7 -3.4 Q5.15 -2.95 5.7 -2.7 L5.85 -2.5 6.0 -2.3 6.15 -2.1 7.05 -1.35 7.45 -0.6 7.45 0.3 7.45 1.65 7.45 1.8 7.3 2.2 7.05 2.95 7.0 3.15 6.85 3.3 6.45 3.7 6.25 3.8 5.0 4.15 4.2 4.3 4.2 4.7 4.2 5.45 4.2 5.8 4.15 6.0 4.05 6.2 4.0 6.4 Q1.95 9.25 -0.9 7.45 L-1.1 7.3 -1.5 7.15 -1.85 6.95 -2.25 6.55 -2.8 6.0 -3.0 6.0 -3.5 6.05 -3.7 6.25 -3.95 6.45 Q-6.95 7.45 -9.35 5.9 L-9.45 5.7 -9.55 5.3 -9.55 4.95 -9.45 4.75 -9.3 4.55 -9.1 4.4 -7.4 4.25 -7.25 4.3 -4.85 3.95 -4.6 3.6 -3.85 2.8 -3.6 2.7 -3.25 2.65 -3.0 2.65 -2.3 2.9 -2.0 2.9 -1.35 3.2 -1.25 3.4 -1.2 3.55 -1.1 3.75 -1.1 3.95 -1.1 4.15 -1.1 4.5 -1.0 4.7 -0.8 4.9 -0.6 5.05 -0.25 5.25 0.45 5.65 1.35 5.6 1.55 5.5 1.75 5.1 1.75 4.55 1.7 4.4 1.5 4.25 0.5 3.7 0.4 3.5 0.3 2.95 0.3 2.55 0.4 2.4 0.45 2.2 0.55 2.0 Q2.6 1.15 4.9 1.5 L5.0 1.1 5.05 0.4 5.0 0.2 3.65 -0.95 3.05 -1.5 2.95 -1.7 2.85 -1.85 2.75 -2.05 2.25 -2.65 1.65 -3.55 1.6 -3.75 1.55 -4.1 1.55 -4.7 1.65 -4.85 1.7 -5.05 Q2.2 -5.8 3.0 -6.15 L3.75 -6.35 4.15 -6.2" fill="#908282" fill-opacity="0.5019608" fill-rule="evenodd" stroke="none"/>
    <path d="M0.8 -3.2 L1.0 -3.0 1.15 -2.85 1.35 -2.6 1.5 -2.45 1.75 -2.45 2.0 -2.55 2.15 -2.6 2.5 -2.7 3.0 -2.55 3.3 -2.35 3.45 -2.2 3.55 -2.0 3.65 -1.8 3.75 -1.65 4.05 -1.45 4.25 -1.25 4.35 -1.1 4.55 -1.05 4.7 -1.2 4.9 -1.35 5.05 -1.55 5.4 -1.65 5.75 -1.75 6.45 -1.55 7.4 -0.9 7.55 -0.7 7.65 -0.5 7.9 -0.15 8.2 0.45 8.25 0.65 8.25 0.8 8.25 1.0 8.25 1.2 8.25 1.55 8.2 1.75 8.15 1.95 8.05 2.15 7.95 2.3 7.55 2.7 6.8 3.4 6.25 3.45 4.2 3.55 3.85 3.8 3.7 3.95 3.85 4.15 4.1 4.5 4.45 5.25 4.5 5.45 4.5 5.65 4.5 5.8 4.5 6.2 4.5 6.55 4.45 6.75 4.4 6.95 4.3 7.15 4.2 7.3 4.0 7.5 3.6 7.85 3.4 8.05 1.75 8.2 0.2 7.9 -0.05 7.7 -0.25 7.5 -0.35 7.3 -0.45 7.15 -0.5 6.95 -0.5 6.75 -0.5 6.55 -0.5 6.4 -0.55 6.25 -0.85 6.2 -1.05 6.4 -1.25 6.55 -1.75 6.95 -4.75 6.9 -5.25 6.75 -5.5 6.55 -5.7 6.4 -6.05 6.0 -6.1 5.8 -6.1 5.65 -6.1 5.25 -6.1 4.7 -6.05 4.5 -5.85 4.3 -5.5 3.95 -5.35 3.75 -5.45 3.6 -5.6 3.35 -5.7 3.2 -5.75 3.0 -5.75 2.65 -5.75 1.9 -5.75 1.3 -5.7 1.15 -5.6 0.95 -5.5 0.75 -5.3 0.55 -5.05 0.4 -4.5 0.25 -3.35 0.15 -3.35 -0.05 -3.35 -0.25 -3.35 -0.45 -3.3 -0.6 -3.25 -0.8 -3.2 -1.0 -3.2 -1.2 -3.25 -1.55 -3.25 -2.1 -3.2 -2.5 -3.05 -2.7 -2.85 -2.85 -2.7 -3.05 -2.35 -3.15 -1.3 -3.35 -0.75 -3.5 0.0 -3.45 0.8 -3.2" fill="#908282" fill-opacity="0.5019608" fill-rule="evenodd" stroke="none"/>
    <path d="M0.6 -7.15 L2.85 -6.8 Q3.7 -6.5 4.35 -5.9 L4.4 -5.8 4.45 -5.7 4.45 -5.6 4.45 -5.5 4.45 -5.05 4.4 -4.75 4.45 -4.3 4.45 -4.1 4.4 -4.0 4.35 -3.9 4.35 -3.8 4.3 -3.75 4.3 -3.65 4.3 -3.6 Q5.7 -3.25 6.95 -2.35 8.15 -1.55 8.5 -0.05 L8.5 0.6 8.5 1.05 8.5 1.5 8.5 1.8 8.25 2.3 8.1 2.55 7.95 2.85 7.05 3.6 6.55 4.05 6.35 4.25 4.7 4.85 4.7 5.45 4.7 6.0 4.7 6.45 Q2.8 9.4 -0.65 8.0 -1.35 7.75 -1.65 7.05 L-1.65 6.6 -1.6 6.05 -1.55 5.65 -1.65 5.45 -1.65 5.25 -1.65 5.1 -1.6 5.05 -1.55 5.0 -1.4 4.95 -1.25 5.0 -1.15 5.1 -1.1 5.2 -1.0 5.3 -0.95 5.4 -0.9 5.85 -0.9 6.45 -0.9 6.8 -0.8 6.9 -0.7 7.0 -0.65 7.1 Q1.9 8.35 3.7 6.4 L3.8 6.3 3.8 5.95 3.8 5.45 3.8 5.1 3.75 5.1 3.15 5.0 3.1 4.95 3.25 4.75 3.4 4.65 3.45 4.55 3.5 4.55 3.4 4.45 2.75 3.75 2.6 3.6 2.35 3.4 2.05 3.2 2.0 3.1 1.45 2.95 1.35 2.9 Q1.5 2.65 1.75 2.75 L2.25 2.75 2.25 2.7 2.45 2.75 2.7 2.95 3.2 3.2 3.55 3.45 4.0 3.85 4.2 4.1 4.3 4.2 6.3 3.1 7.25 2.4 7.45 2.05 7.6 1.75 7.7 1.55 7.7 1.0 7.7 0.7 7.7 0.45 7.7 0.15 Q7.45 -0.7 6.8 -1.25 5.65 -2.3 4.25 -3.0 L4.2 -3.0 4.2 -2.9 4.25 -2.8 4.2 -2.7 4.1 -2.65 3.95 -2.7 3.9 -2.8 3.85 -2.9 3.8 -3.0 3.75 -3.05 3.75 -3.2 3.25 -3.35 3.0 -3.5 3.0 -3.6 3.0 -3.7 3.1 -3.8 3.25 -3.85 3.7 -3.75 3.7 -3.9 3.7 -4.0 3.75 -4.1 3.75 -4.2 3.75 -4.55 3.75 -4.85 3.75 -5.15 3.7 -5.4 Q2.3 -6.65 0.45 -6.3 -0.7 -6.1 -1.65 -5.5 L-1.6 -5.4 -1.6 -5.3 -1.6 -5.2 -1.6 -5.1 -1.6 -5.0 -1.65 -5.0 -1.8 -5.0 -1.8 -5.1 -1.85 -5.2 -1.9 -5.25 -1.95 -5.25 -2.0 -5.2 -2.25 -5.0 -2.35 -4.9 -2.4 -4.8 -2.45 -4.75 -2.55 -4.65 -2.75 -4.65 -2.85 -4.7 -2.85 -4.8 -2.75 -4.95 -2.65 -5.15 -2.55 -5.25 -2.55 -5.35 -2.55 -5.4 -2.65 -5.45 -5.3 -5.4 -5.5 -5.35 Q-6.15 -5.2 -6.55 -4.65 L-7.2 -3.65 -7.2 -3.55 -7.3 -3.0 -7.3 -2.05 -7.3 -1.4 -7.3 -1.3 -7.2 -1.1 -7.15 -1.0 -7.15 -0.9 -7.05 -0.85 -6.5 -0.5 -6.4 -0.45 -6.35 -0.35 -6.3 -0.25 -6.05 0.05 -5.9 0.0 -5.8 0.1 -5.65 0.25 -5.75 0.4 -5.95 0.6 Q-6.85 0.8 -7.6 1.3 L-8.05 1.7 -8.35 2.35 -8.45 2.8 -8.55 3.1 -8.55 3.65 -8.55 4.1 -8.5 4.5 -8.35 4.85 -8.15 5.25 -8.05 5.35 Q-5.55 7.2 -2.45 6.3 L-2.35 6.2 -2.15 6.05 -2.0 6.05 -1.8 6.2 -1.95 6.45 -2.25 6.75 -2.3 6.85 -2.3 6.95 Q-4.8 8.15 -7.3 6.85 L-8.65 6.0 -9.1 5.35 -9.3 4.9 -9.4 4.7 -9.45 3.85 -9.45 3.4 -9.45 2.85 -9.15 2.1 -8.95 1.6 -8.8 1.35 Q-8.1 0.5 -7.05 0.25 L-6.2 0.05 -6.3 0.0 -6.45 0.0 -6.65 0.1 -6.85 0.0 -7.6 -0.3 -7.7 -0.35 -7.8 -0.45 -7.95 -0.75 -8.0 -0.8 -8.05 -0.9 -8.15 -1.1 -8.2 -1.2 -8.2 -1.3 -8.2 -1.95 -8.15 -3.05 -8.1 -3.75 -8.05 -3.8 -7.7 -4.4 -7.0 -5.45 -6.7 -5.7 -6.55 -5.8 -5.6 -6.15 -5.4 -6.25 -5.25 -6.25 -3.75 -6.15 -2.65 -6.05 -2.5 -6.0 -2.2 -5.85 -2.15 -5.9 -2.05 -6.1 -1.25 -6.6 0.1 -7.05 0.6 -7.15" fill="#333333" fill-rule="evenodd" stroke="none"/>
  </g>
</svg>
