<?xml version="1.0" encoding="UTF-8" standalone="no"?>
<svg xmlns:xlink="http://www.w3.org/1999/xlink" height="16.65px" width="18.85px" xmlns="http://www.w3.org/2000/svg">
  <g transform="matrix(1.0, 0.0, 0.0, 1.0, 9.15, 7.95)">
    <path d="M0.75 -6.45 L2.25 -6.2 3.2 -5.75 3.3 -5.55 3.4 -5.4 3.65 -5.0 3.9 -4.6 3.9 -4.45 3.95 -4.25 4.0 -4.05 4.15 -3.85 4.2 -3.8 4.75 -3.55 5.8 -3.1 6.0 -2.95 6.15 -2.75 6.25 -2.55 6.4 -2.4 6.75 -2.2 7.4 -1.8 7.5 -1.6 7.6 -1.45 7.7 -1.25 7.85 -0.85 7.95 -0.7 7.95 -0.5 7.95 -0.3 7.95 0.05 7.95 0.65 7.9 0.8 7.8 1.0 7.55 1.35 7.2 1.75 6.95 2.1 5.85 3.15 Q5.25 3.55 5.2 4.0 L5.25 4.2 5.25 4.4 5.25 4.55 5.2 4.95 5.2 5.15 5.15 5.3 5.05 5.5 4.8 5.85 4.4 6.25 4.25 6.45 4.15 6.65 3.85 6.8 3.45 7.0 3.0 7.3 Q1.45 7.95 -0.25 7.65 -1.3 7.45 -2.0 6.65 L-2.1 6.45 -2.15 6.25 -2.2 6.05 -2.2 5.9 -2.2 5.7 -2.2 5.65 -2.6 5.65 -2.8 5.8 -3.05 6.0 -3.2 6.15 -3.75 6.25 Q-5.0 6.4 -5.95 5.55 L-6.1 5.35 -6.2 5.2 -6.25 5.0 -6.45 4.8 -6.6 4.6 -6.7 4.45 -6.75 4.25 -6.8 4.15 Q-7.05 3.95 -7.3 3.9 L-7.55 3.7 -7.75 3.5 -7.85 3.3 -7.95 3.15 -8.0 2.95 -8.0 2.75 -8.0 2.55 -7.95 2.4 -7.85 2.2 -7.75 2.0 -7.55 1.8 -7.35 1.65 -7.2 1.45 -6.8 1.25 -6.4 1.05 -5.75 0.75 -5.7 0.7 Q-5.8 0.55 -6.0 0.5 L-6.75 0.25 -7.0 0.05 -7.25 -0.1 -7.6 -0.35 -7.8 -0.5 -8.0 -0.7 -8.05 -0.85 -8.1 -1.05 -8.1 -1.25 -8.1 -1.6 -8.1 -2.35 -8.1 -2.95 -8.05 -3.1 -8.0 -3.3 -7.8 -3.7 -7.55 -4.25 Q-5.65 -6.0 -2.95 -5.4 L-1.7 -4.95 Q-1.55 -4.95 -1.45 -5.05 L-1.05 -5.35 -0.5 -5.95 -0.1 -6.1 0.25 -6.3 0.75 -6.4 0.75 -6.45 M1.55 -0.3 L1.55 -0.5 Q0.6 -0.75 -0.6 -1.3 L-0.85 -1.25 -1.2 -0.9 -1.5 -0.7 -2.05 -0.15 -2.6 0.25 -1.1 1.35 0.0 2.3 0.15 2.4 0.65 2.45 0.9 2.3 1.05 2.15 1.05 1.75 1.05 1.4 1.05 1.0 1.2 0.65 1.4 0.25 1.55 -0.1 1.55 -0.3" fill="#908282" fill-opacity="0.5019608" fill-rule="evenodd" stroke="none"/>
    <path d="M4.05 -4.7 L4.25 -4.5 4.3 -4.3 4.5 -3.95 4.5 -3.75 4.5 -3.55 4.5 -3.45 6.05 -2.95 6.25 -2.75 6.3 -2.55 6.5 -2.2 6.55 -2.05 7.25 -1.6 7.55 -1.45 7.75 -1.25 7.8 -1.05 8.0 -0.7 8.0 -0.5 8.0 -0.3 8.0 -0.1 8.1 0.05 8.25 0.25 8.45 0.65 8.5 0.8 8.5 1.0 8.5 1.2 8.5 1.55 8.5 1.75 8.5 1.95 8.45 2.1 8.3 2.5 8.15 2.85 8.1 3.05 8.0 3.25 7.8 3.45 6.8 4.1 6.6 4.2 5.5 4.4 5.5 4.55 5.45 4.75 5.3 5.15 5.15 5.3 4.95 5.5 4.7 5.7 4.55 5.9 4.45 6.05 4.2 6.25 3.95 6.45 3.8 6.65 3.3 7.2 3.1 7.35 2.9 7.55 0.75 7.9 -1.05 7.9 -1.3 7.7 -1.85 7.15 -2.05 6.95 -2.2 6.75 -2.3 6.55 -5.3 5.9 -5.55 5.7 -6.0 5.1 -6.05 4.95 -6.15 4.75 -6.25 4.55 -6.25 4.4 -6.25 3.65 -6.25 3.45 -6.25 2.7 -6.25 2.3 -6.2 2.15 -6.1 1.95 -6.0 1.75 -5.4 1.15 -5.25 1.0 -5.05 0.8 -4.8 0.65 -5.0 0.45 -5.5 0.05 -6.0 -0.3 -6.15 -0.7 -6.2 -1.25 -6.2 -1.6 -6.2 -2.75 -6.2 -3.3 -6.1 -3.5 -6.05 -3.7 -5.95 -4.05 -5.85 -4.25 -5.8 -4.45 -5.65 -4.6 -5.3 -5.0 -4.95 -5.35 -4.75 -5.5 -4.6 -5.55 -4.25 -5.7 -3.75 -6.0 -3.6 -6.05 -3.25 -6.1 -2.75 -6.15 -2.75 -6.2 -1.5 -6.1 -0.75 -5.95 -0.65 -5.95 1.8 -5.7 2.0 -5.5 2.1 -5.3 2.2 -5.1 2.25 -5.05 3.75 -4.85 4.05 -4.7 M0.75 -0.4 L-0.25 -0.3 -1.1 0.3 -2.2 0.75 Q-1.4 1.1 -0.85 1.75 L-0.35 2.65 -0.25 3.0 -0.2 3.1 0.25 3.2 1.0 2.95 1.45 2.7 Q1.2 2.45 1.25 2.15 L1.25 1.55 1.25 1.0 1.25 0.8 1.3 0.65 1.4 0.45 1.45 0.25 1.55 0.05 1.65 -0.1 Q1.55 -0.4 0.75 -0.4" fill="#908282" fill-opacity="0.5019608" fill-rule="evenodd" stroke="none"/>
    <path d="M1.5 -7.55 L1.7 -7.75 1.95 -7.85 2.25 -7.9 2.25 -7.95 2.7 -7.8 2.95 -7.6 3.05 -7.45 3.3 -6.85 3.4 -6.5 3.95 -5.7 4.4 -4.8 4.4 -3.85 4.4 -2.75 4.4 -2.35 4.3 -2.2 4.25 -2.0 4.15 -1.8 3.55 -1.45 2.95 -0.85 2.6 -0.65 2.05 -0.3 -0.5 -0.35 -0.9 -0.25 -1.1 -0.1 -1.3 0.1 -1.35 0.25 -1.45 0.45 -1.6 0.6 -1.8 0.8 Q-2.9 1.1 -3.75 1.75 L-3.95 1.9 -4.15 1.95 -4.5 2.0 -5.0 1.9 -5.25 1.7 -5.35 1.5 -5.45 1.3 -5.5 0.95 -5.45 0.75 -5.3 0.35 -5.2 0.0 Q-4.45 -0.85 -3.4 -1.3 L-2.8 -1.85 -2.8 -2.05 -2.55 -2.4 -2.1 -2.8 -2.05 -3.0 -1.7 -3.35 -1.5 -3.5 -1.35 -3.55 -1.0 -3.6 -0.5 -3.5 -0.25 -3.3 -0.1 -3.1 0.0 -2.95 0.15 -2.55 0.4 -2.5 1.2 -2.5 1.6 -2.85 2.15 -3.45 2.15 -3.6 2.15 -4.0 2.05 -4.55 1.6 -5.15 Q1.25 -5.55 1.15 -6.05 L1.15 -6.25 1.15 -6.65 1.2 -7.0 1.25 -7.2 1.5 -7.55" fill="#908282" fill-opacity="0.5019608" fill-rule="evenodd" stroke="none"/>
    <path d="M7.0 -1.95 L7.25 -1.75 7.4 -1.55 7.7 -1.0 7.9 -0.6 7.9 0.15 7.95 1.25 7.95 1.65 7.75 2.2 7.05 3.15 6.9 3.3 Q6.6 4.0 5.9 4.4 5.25 4.75 4.7 5.2 L4.7 5.75 4.7 6.7 4.7 7.05 4.65 7.25 4.55 7.45 4.5 7.65 4.35 7.8 4.15 8.0 3.85 8.1 Q3.3 8.2 2.9 8.55 L-0.25 8.5 -1.6 7.2 -2.7 6.05 -2.75 5.9 -2.85 5.7 -2.95 5.5 -7.7 5.75 -7.9 5.55 -8.05 5.35 -8.1 5.2 -8.1 5.0 -8.1 4.8 -8.05 4.65 -7.9 4.45 -7.7 4.25 -1.75 3.3 -1.5 3.5 -1.3 3.85 -0.9 4.6 -0.75 5.0 -0.15 5.55 0.8 6.25 0.9 6.3 2.15 6.25 2.15 6.15 1.5 5.65 1.3 5.5 1.2 5.3 1.15 5.15 1.05 4.95 1.05 4.75 1.1 4.4 1.15 4.0 1.25 3.8 1.65 3.45 1.9 3.25 4.25 2.55 4.55 2.4 4.7 2.2 5.0 1.8 5.2 1.65 5.3 1.45 5.4 1.25 5.55 0.9 5.55 0.7 5.55 0.15 5.55 -0.45 5.5 -0.6 5.45 -0.8 5.45 -1.2 5.5 -1.35 5.6 -1.55 5.75 -1.75 6.0 -1.95 6.5 -2.05 7.0 -1.95" fill="#908282" fill-opacity="0.5019608" fill-rule="evenodd" stroke="none"/>
    <path d="M3.15 -5.35 L3.3 -5.2 3.5 -5.0 3.65 -4.85 5.0 -4.6 5.8 -4.35 5.95 -4.2 6.1 -3.8 6.3 -3.25 6.45 -3.05 6.9 -2.9 8.05 -2.45 8.4 -2.1 8.9 -1.3 8.95 -1.1 9.0 -0.95 9.2 -0.75 9.4 -0.55 9.5 -0.35 9.55 -0.2 9.65 0.0 9.7 0.2 9.7 0.4 9.7 0.55 9.7 0.95 9.7 1.3 9.65 1.5 9.55 1.7 9.5 1.9 8.35 2.95 6.75 3.7 6.4 3.8 6.1 4.0 5.4 4.45 5.4 4.55 5.4 4.75 5.5 4.95 5.55 5.15 5.55 5.3 5.55 5.5 5.55 5.9 5.55 6.05 5.4 6.45 4.75 7.2 4.55 7.35 4.3 7.55 -1.0 7.25 -1.25 7.05 -1.45 6.85 -1.55 6.7 -1.65 6.15 -1.6 5.4 -1.65 5.2 -1.55 4.65 -1.5 4.45 -1.35 4.25 -1.1 3.9 -1.0 3.7 -0.8 3.5 -0.6 3.3 Q0.5 2.75 1.75 2.6 L2.8 2.5 2.8 2.3 2.8 1.95 2.8 1.4 2.8 1.2 2.8 1.0 3.15 0.45 3.9 -0.3 4.15 -0.5 Q2.3 -0.05 1.0 -1.05 L0.85 -1.45 0.8 -2.2 0.8 -2.35 0.8 -2.55 0.8 -2.75 0.9 -2.95 1.0 -3.1 1.15 -3.3 1.25 -3.5 1.25 -3.7 1.2 -3.85 1.15 -4.05 1.05 -4.25 1.05 -4.45 1.05 -4.6 1.1 -4.8 1.15 -5.0 1.25 -5.2 1.45 -5.35 1.75 -5.55 2.25 -5.65 2.25 -5.7 2.75 -5.55 3.15 -5.35" fill="#908282" fill-opacity="0.5019608" fill-rule="evenodd" stroke="none"/>
    <path d="M0.5 -7.2 L0.5 -7.25 Q1.9 -7.45 3.05 -6.8 3.95 -6.3 4.2 -5.35 L4.25 -5.25 4.2 -5.15 4.2 -5.05 4.2 -4.8 4.2 -4.6 4.2 -4.5 4.15 -4.4 4.1 -4.3 4.1 -4.25 4.1 -4.15 4.1 -4.05 4.1 -3.95 4.05 -3.85 4.05 -3.8 3.95 -3.75 3.85 -3.75 3.65 -3.8 3.6 -3.9 3.55 -4.0 3.55 -4.05 3.55 -4.15 3.55 -4.25 3.55 -4.35 3.5 -4.45 3.45 -4.55 3.45 -4.65 3.45 -4.75 3.45 -4.8 3.45 -5.0 3.2 -5.55 Q2.85 -6.2 2.1 -6.35 0.95 -6.6 -0.2 -6.35 L-0.35 -6.25 -0.75 -5.85 -1.0 -5.4 -1.15 -5.15 -1.15 -5.05 -1.2 -4.95 -1.25 -4.85 -1.3 -4.75 -1.35 -4.65 -1.5 -4.6 -1.7 -4.7 -1.75 -4.75 -1.8 -4.8 -1.9 -4.85 -1.85 -4.95 -1.85 -5.05 -1.85 -5.15 -1.8 -5.25 -1.85 -5.3 -1.85 -5.4 -1.9 -5.5 -1.95 -5.6 Q-4.45 -6.6 -6.6 -4.9 L-7.7 -3.85 -7.75 -3.75 -7.9 -3.45 -8.0 -3.3 -8.15 -3.1 -8.15 -3.0 -8.25 -2.55 -8.35 -2.0 -8.35 -1.6 -8.3 -1.5 -8.25 -1.3 -8.2 -1.25 -8.2 -1.15 -8.15 -1.05 -8.1 -0.95 -7.65 -0.6 -7.25 -0.2 -7.05 -0.1 -6.45 0.2 -6.25 0.35 -6.3 0.45 -6.3 0.55 -6.3 0.6 -6.1 0.65 -6.0 0.7 -5.9 0.8 -5.85 0.9 -5.9 0.95 -6.1 0.9 -6.45 0.95 -6.85 1.25 -7.2 1.5 -7.35 1.8 -7.5 2.2 -7.55 2.35 -7.65 2.45 -7.65 2.95 -7.65 3.3 -7.65 3.75 -7.65 3.85 -7.5 4.25 -7.4 4.5 -7.2 4.8 -7.15 4.9 -6.75 5.2 -6.2 5.45 Q-4.8 5.7 -3.55 5.05 L-3.4 5.0 -3.3 4.9 -3.2 4.8 -3.05 4.65 -2.9 4.65 -2.75 4.7 -2.45 4.55 -2.25 4.45 -2.1 4.55 -2.05 4.6 -2.0 4.7 -2.05 4.9 -2.15 5.0 -2.15 5.35 -2.15 5.75 -2.15 6.0 Q-1.35 7.6 0.5 7.65 L2.65 7.45 3.7 7.0 4.1 6.4 4.35 5.85 4.35 5.7 4.4 5.4 4.45 5.2 4.4 5.0 4.4 4.85 4.4 4.8 4.35 4.8 3.85 4.8 3.65 4.7 3.55 4.55 3.55 4.45 3.55 4.4 3.6 4.25 4.1 4.1 4.05 4.05 4.05 4.0 4.05 3.9 4.1 3.85 4.1 3.8 4.25 3.75 4.4 3.85 4.5 3.95 Q5.95 3.4 7.2 2.4 8.0 1.75 8.1 0.7 8.15 -0.45 7.5 -1.45 6.75 -2.6 5.4 -2.9 L3.95 -3.15 3.75 -3.15 3.45 -3.25 3.45 -3.3 4.45 -3.65 5.25 -3.65 5.45 -3.65 5.7 -3.6 5.85 -3.65 6.7 -3.3 6.95 -3.2 Q7.9 -2.7 8.35 -1.75 8.95 -0.6 8.9 0.75 L8.95 0.95 8.85 1.6 8.6 2.15 8.1 3.0 6.8 3.85 5.4 4.55 5.1 4.6 5.15 4.7 5.15 4.9 5.2 5.2 5.3 5.35 5.3 5.65 5.25 5.95 5.2 6.2 Q4.6 8.15 2.5 8.45 0.05 8.85 -1.95 7.5 L-2.9 6.3 -2.9 5.65 -2.85 5.3 -2.95 5.35 -3.05 5.45 -3.05 5.5 -3.15 5.6 Q-5.25 7.05 -7.5 5.65 L-7.7 5.5 -8.05 4.95 -8.2 4.55 -8.4 4.1 -8.4 3.5 -8.4 3.15 -8.4 2.5 -8.4 2.4 -8.2 2.0 -8.05 1.75 -7.9 1.45 -7.8 1.25 -7.1 0.75 -6.6 0.6 -7.65 0.25 -7.9 0.2 -8.0 0.1 -8.5 -0.25 -8.85 -0.55 -8.9 -0.65 -9.0 -0.9 -9.05 -1.1 -9.15 -1.4 -9.15 -1.5 -9.15 -1.75 -9.15 -2.05 -9.15 -2.5 Q-8.9 -3.75 -8.05 -4.7 -6.9 -5.9 -5.35 -6.55 L-4.15 -6.75 -2.75 -6.65 -1.8 -6.4 -1.7 -6.3 -1.55 -6.1 -1.5 -6.0 -1.45 -6.05 -1.4 -6.15 -1.3 -6.25 -1.2 -6.45 -1.15 -6.55 -0.9 -6.7 -0.4 -7.05 -0.3 -7.1 -0.15 -7.15 0.05 -7.15 0.5 -7.2 M0.35 -0.6 L0.65 -0.6 0.9 -0.65 1.0 -0.7 1.1 -0.65 1.5 -0.7 1.5 -0.75 1.55 -0.8 1.6 -0.85 1.75 -0.9 1.9 -1.0 2.0 -1.0 2.1 -0.95 2.15 -0.9 2.2 -0.85 2.2 -0.65 2.15 -0.6 1.95 -0.5 1.9 -0.45 1.9 -0.4 1.85 -0.35 1.45 -0.2 1.45 -0.1 1.4 -0.05 1.35 0.0 1.25 0.05 1.2 0.1 1.15 0.1 1.1 0.15 1.05 0.2 1.05 0.3 1.0 0.45 0.95 0.55 0.95 0.7 0.95 0.9 0.95 1.0 1.0 1.15 1.05 1.4 1.1 1.5 1.2 1.6 1.45 1.75 1.45 1.95 1.4 2.0 1.4 2.15 1.35 2.2 1.3 2.25 1.15 2.25 1.05 2.25 0.95 2.2 0.9 2.15 0.85 2.1 0.8 2.1 0.05 2.15 -0.1 2.2 -1.1 2.7 -1.35 2.85 -1.4 2.9 -1.4 2.95 -1.5 3.05 -1.6 3.15 -1.7 3.15 -1.8 3.15 -1.8 3.1 -1.85 3.05 -1.85 3.0 -1.9 2.95 -1.95 2.9 -1.95 2.85 -2.0 2.85 -2.0 2.8 -2.0 2.5 -2.0 2.25 -2.0 1.95 -2.0 1.8 -2.35 1.3 Q-2.65 1.1 -2.95 1.05 L-3.1 1.0 -3.2 0.95 -3.55 0.9 -3.65 0.8 -3.65 0.6 -3.55 0.5 -3.25 0.5 -3.25 0.45 -3.2 0.5 -3.2 0.45 -3.15 0.4 -3.1 0.35 -3.0 0.35 -2.8 0.35 -2.65 0.4 Q-2.05 0.25 -1.65 -0.2 L-1.6 -0.35 -1.45 -0.55 -1.45 -0.6 -1.45 -0.7 -1.45 -0.8 -1.45 -0.85 -1.5 -0.95 -1.5 -1.05 -1.5 -1.15 -1.45 -1.15 -1.45 -1.35 -1.45 -1.6 -1.35 -1.7 -1.25 -1.75 -1.15 -1.7 -1.05 -1.6 -1.0 -1.6 -1.0 -1.5 -1.0 -1.4 -1.0 -1.35 -0.95 -1.3 Q-0.6 -0.7 0.1 -0.65 L0.35 -0.6 M0.4 0.45 L0.45 0.25 0.6 -0.05 -0.2 -0.15 -0.75 -0.35 -0.85 -0.4 -0.85 -0.5 -0.95 -0.6 -0.95 -0.5 -0.9 -0.45 Q-1.0 0.0 -1.35 0.3 L-1.8 0.7 -2.05 0.85 -1.8 1.1 -1.6 1.3 -1.5 1.65 -1.5 2.0 -1.5 2.25 -1.5 2.3 -0.35 1.7 -0.1 1.6 0.05 1.55 0.45 1.55 0.4 1.35 0.35 1.2 0.35 0.9 0.4 0.6 0.4 0.45" fill="#333333" fill-rule="evenodd" stroke="none"/>
  </g>
</svg>
