<?xml version="1.0" encoding="UTF-8" standalone="no"?>
<svg xmlns:xlink="http://www.w3.org/1999/xlink" height="18.35px" width="20.15px" xmlns="http://www.w3.org/2000/svg">
  <g transform="matrix(1.0, 0.0, 0.0, 1.0, 9.7, 8.9)">
    <path d="M5.45 -6.35 L5.65 -6.4 6.0 -6.45 6.5 -6.3 6.8 -6.1 6.95 -5.95 7.05 -5.75 7.15 -5.55 7.2 -5.35 7.2 -5.2 7.2 -5.0 7.2 -4.8 7.2 -4.6 7.15 -4.45 7.05 -4.25 7.0 -4.05 6.9 -3.85 8.25 -3.65 9.05 -3.35 9.2 -3.2 9.3 -3.0 9.4 -2.8 9.45 -2.6 9.45 -2.45 9.45 -2.25 9.45 -2.05 9.45 -1.85 9.4 -1.7 9.3 -1.5 9.2 -1.3 9.05 -1.15 8.75 -0.95 8.8 -0.75 8.9 -0.55 8.95 -0.35 8.95 -0.2 8.95 0.0 8.95 0.2 9.1 0.35 9.45 0.55 9.6 0.75 9.75 0.95 9.9 1.15 9.9 1.3 9.95 1.5 9.95 1.9 9.95 2.25 9.95 2.8 9.95 3.0 9.85 3.2 9.75 3.4 9.7 3.55 9.7 3.75 9.7 3.95 9.6 4.1 9.5 4.3 9.35 4.5 9.2 4.7 9.0 4.8 6.75 5.0 Q6.15 4.9 5.75 4.45 L5.65 4.25 5.6 4.05 5.55 3.9 5.55 3.7 5.55 3.5 5.65 3.3 5.7 3.15 5.75 3.0 5.75 2.95 5.25 2.8 4.95 2.6 4.55 2.25 4.45 2.05 4.4 1.9 4.3 1.7 4.3 1.5 4.3 1.3 4.3 1.15 4.3 0.95 4.3 0.75 4.3 0.55 4.25 0.4 4.15 0.2 4.05 0.0 4.05 -0.2 4.05 -0.35 4.05 -0.55 4.05 -0.95 4.1 -1.3 4.15 -1.5 3.0 -1.75 Q1.7 -1.65 0.8 -2.5 L0.4 -2.7 0.0 -2.85 -0.35 -3.0 Q-1.75 -2.1 -3.3 -1.45 -5.05 -0.7 -6.95 -0.2 L-7.5 -0.05 -7.75 -0.1 -8.2 -0.2 -8.45 -0.4 -8.6 -0.55 -8.65 -0.75 -8.7 -0.95 -8.65 -1.1 -8.6 -1.3 -8.65 -1.5 -8.75 -1.7 -8.8 -1.85 -8.85 -2.05 -8.85 -2.25 -8.85 -2.45 -8.85 -2.6 -8.85 -2.8 -8.8 -3.0 -8.7 -3.2 -8.6 -3.35 -8.5 -3.55 -8.1 -3.95 -7.75 -4.3 -7.2 -4.85 -6.95 -5.05 -6.8 -5.25 -6.75 -5.45 -6.55 -5.8 -6.35 -6.2 -6.2 -6.55 -6.0 -6.75 -5.8 -6.95 -5.45 -7.3 -5.05 -7.7 -4.85 -7.85 -4.5 -8.05 -4.1 -8.25 -3.75 -8.45 -3.25 -8.55 -1.55 -8.35 0.0 -7.7 0.3 -7.7 Q2.1 -8.4 3.9 -7.7 4.8 -7.3 5.35 -6.5 L5.45 -6.35" fill="#908282" fill-opacity="0.5019608" fill-rule="evenodd" stroke="none"/>
    <path d="M2.4 -8.05 L2.75 -8.1 4.8 -7.35 6.2 -6.1 6.25 -5.95 6.3 -5.75 6.4 -5.55 6.4 -5.35 6.4 -5.2 6.4 -5.0 6.4 -4.8 6.4 -4.6 6.3 -4.45 6.2 -4.05 6.1 -3.7 5.85 -3.1 5.9 -2.95 6.0 -2.75 6.25 -2.55 6.4 -2.35 6.5 -2.2 6.6 -2.1 7.0 -1.9 7.8 -1.6 7.95 -1.5 9.05 -1.05 9.85 -0.15 10.25 0.4 10.3 0.55 10.4 0.75 10.45 0.95 10.45 1.15 10.45 1.3 10.45 1.7 10.45 2.05 10.45 2.45 10.4 2.65 10.3 2.8 10.2 3.0 10.1 3.2 10.0 3.4 9.05 4.1 7.6 4.85 7.25 4.95 6.75 4.8 6.45 4.6 6.25 4.45 6.15 4.25 6.1 4.05 6.05 3.9 6.05 3.7 6.05 3.5 6.0 3.3 5.95 3.15 5.9 2.95 5.45 2.7 4.0 2.25 3.75 2.05 3.55 1.85 3.45 1.7 3.4 1.5 3.4 1.3 3.35 0.95 3.35 0.55 3.3 0.2 3.4 0.0 3.5 -0.2 3.7 -0.55 3.85 -0.95 3.8 -1.1 3.7 -1.3 3.65 -1.5 3.65 -1.7 3.6 -1.75 3.0 -1.9 2.25 -2.0 2.0 -2.2 0.5 -2.55 Q0.0 -2.7 -0.35 -3.05 L-0.55 -3.2 -1.35 -3.25 -1.35 -3.05 -1.35 -2.85 -1.35 -2.7 -1.45 -2.5 -1.5 -2.3 -1.55 -2.1 -2.9 -1.1 Q-4.05 -0.45 -5.45 -0.55 L-5.6 -0.35 -5.8 -0.2 -6.2 0.2 -6.45 0.4 -6.65 0.45 -7.0 0.55 -7.5 0.45 -7.75 0.25 -7.95 0.05 -8.0 -0.1 -8.05 -0.3 -8.15 -0.7 -8.15 -0.9 -8.2 -1.05 -8.05 -1.6 -7.6 -2.35 -6.95 -3.3 -6.9 -3.5 -6.85 -3.7 -6.8 -3.85 -6.75 -4.05 -6.55 -4.25 -6.25 -4.65 -6.15 -4.8 -6.05 -5.0 -4.15 -6.15 -1.5 -6.25 -1.25 -6.05 -1.05 -5.85 -0.95 -5.75 -0.9 -5.8 -0.8 -6.0 -0.45 -6.35 -0.25 -6.55 0.0 -6.75 0.5 -6.85 1.0 -6.85 1.4 -6.85 1.45 -7.0 1.55 -7.2 1.7 -7.4 1.75 -7.55 1.95 -7.75 2.15 -7.9 2.4 -8.05" fill="#908282" fill-opacity="0.5019608" fill-rule="evenodd" stroke="none"/>
    <path d="M2.55 -3.95 L2.55 -4.1 2.6 -4.3 2.65 -4.5 3.25 -5.0 4.75 -5.45 5.0 -5.4 5.5 -5.3 5.8 -5.1 5.95 -4.95 6.05 -4.75 6.15 -4.55 6.2 -4.35 6.2 -4.2 6.2 -3.8 6.2 -3.25 6.2 -3.05 6.0 -2.5 5.45 -1.55 5.05 -1.0 Q6.2 -0.5 8.0 0.1 L8.8 0.4 8.95 0.55 9.05 0.75 9.15 0.95 9.2 1.15 9.2 1.3 9.2 1.5 9.2 1.7 9.2 2.05 9.15 2.25 9.05 2.45 9.0 2.65 8.85 2.8 8.7 3.0 8.5 3.2 8.45 3.4 8.4 3.55 8.4 3.75 8.25 4.15 8.1 4.3 7.9 4.5 6.75 4.7 Q6.15 4.65 5.75 4.2 L5.65 4.0 5.6 3.8 5.55 3.45 5.55 3.05 5.65 2.9 5.7 2.7 5.8 2.5 6.0 2.3 6.15 2.1 6.15 2.0 3.5 1.25 2.8 0.75 2.7 0.55 2.65 0.4 2.55 0.2 2.55 0.0 2.55 -0.35 2.55 -0.95 2.55 -1.25 1.0 -1.5 0.25 -1.75 0.0 -1.95 -0.6 -2.3 -0.95 -2.5 -0.95 -2.3 -0.95 -2.1 -0.95 -1.95 -1.0 -1.75 -1.05 -1.55 -1.2 -1.35 Q-3.0 0.0 -5.45 -0.35 L-6.05 0.0 -7.05 0.7 -7.2 0.75 -7.5 0.8 -7.9 0.65 -8.1 0.5 -8.25 0.3 -8.3 0.1 -8.3 -0.05 -8.3 -0.45 -8.25 -0.6 -8.1 -0.8 -8.0 -1.0 -7.95 -1.2 -7.9 -1.35 -7.85 -1.55 -7.8 -1.75 -7.6 -1.95 -7.45 -2.1 -7.2 -2.3 -4.3 -2.6 -4.3 -3.2 -4.35 -4.1 -4.25 -4.85 -4.15 -5.05 -4.0 -5.25 -3.75 -5.45 -3.25 -5.55 -2.75 -5.45 -2.6 -5.5 -2.45 -5.6 -2.25 -5.8 -2.0 -6.0 -1.5 -6.1 -1.0 -5.95 -0.7 -5.8 -0.3 -5.6 -0.15 -5.45 0.0 -5.25 0.1 -5.05 0.2 -4.85 0.4 -4.7 0.55 -4.5 0.75 -4.3 0.95 -4.1 1.75 -3.85 2.55 -3.75 2.55 -3.95" fill="#908282" fill-opacity="0.5019608" fill-rule="evenodd" stroke="none"/>
    <path d="M-1.85 6.05 L-2.3 6.4 -3.0 6.95 -5.75 7.3 -6.25 7.25 -6.5 7.05 -6.65 6.85 -6.75 6.75 -6.9 6.7 -7.1 6.6 -7.5 6.5 -7.75 6.3 -7.95 6.15 -8.05 5.95 -8.15 5.75 -8.3 5.4 -8.5 5.2 -8.7 5.0 -8.8 4.8 -8.85 4.65 -8.95 4.45 -8.95 4.25 -8.95 4.05 -8.9 3.7 -8.85 3.5 -8.75 3.3 Q-8.35 2.9 -7.8 2.75 L-7.6 2.55 -7.45 2.4 -7.25 2.25 -7.1 2.2 -6.75 2.15 -6.25 2.25 -6.0 2.45 -5.85 2.65 -5.75 2.8 -3.0 3.3 Q-2.25 3.55 -1.8 4.2 L-1.7 4.4 -1.65 4.75 -1.65 5.5 -1.7 5.7 -1.8 5.9 -1.85 6.05" fill="#908282" fill-opacity="0.5019608" fill-rule="evenodd" stroke="none"/>
    <path d="M5.9 6.15 L5.9 6.3 5.9 6.7 5.9 7.05 5.9 7.65 5.8 7.8 5.75 8.0 5.65 8.2 Q3.0 10.1 -0.4 9.05 L-1.75 8.75 -2.0 8.55 -2.2 8.35 -2.3 8.2 -2.35 8.0 -2.35 7.8 -2.35 7.65 -2.35 7.45 -2.3 7.25 -2.1 7.05 -1.95 6.9 -1.7 6.7 -1.65 6.5 -1.6 6.3 -1.6 6.15 -1.6 5.95 -1.55 5.75 -1.3 5.35 -1.1 5.0 -0.95 4.65 -0.75 4.45 -0.5 4.25 -0.1 4.05 0.15 3.95 0.5 3.9 1.95 4.15 3.15 4.45 3.3 4.65 3.4 4.75 3.45 4.8 Q4.35 4.75 5.05 5.2 L5.65 5.55 5.75 5.75 5.8 5.95 5.9 6.15" fill="#908282" fill-opacity="0.5019608" fill-rule="evenodd" stroke="none"/>
    <path d="M-3.5 3.0 L-2.25 3.25 -2.0 3.45 -1.85 3.65 -1.75 3.8 -1.7 4.0 -1.6 4.2 -1.6 4.4 -1.6 4.55 -1.6 4.75 -1.6 4.95 -1.85 5.5 Q-2.35 6.75 -3.75 6.9 L-4.6 7.05 -4.85 7.25 -6.5 7.4 Q-8.2 6.9 -9.5 5.9 L-9.6 5.7 -9.65 5.5 -9.7 5.3 -9.7 5.15 -9.6 4.75 -9.5 4.6 Q-8.9 3.95 -8.0 4.1 L-7.1 4.25 -6.95 4.1 -6.75 3.95 -6.55 3.75 -6.35 3.55 -6.0 3.35 -5.75 3.2 -5.5 3.0 -5.0 2.9 -3.5 3.0" fill="#908282" fill-opacity="0.5019608" fill-rule="evenodd" stroke="none"/>
    <path d="M6.2 6.1 L6.3 6.3 6.3 6.5 6.3 6.7 6.3 6.9 6.25 7.05 6.15 7.25 6.05 7.45 Q2.8 10.05 -1.5 9.25 L-2.5 8.7 -2.6 8.5 -2.65 8.3 -2.65 7.95 -2.6 7.55 -2.5 7.4 -2.35 7.2 -2.1 7.0 -1.5 6.85 -0.1 6.7 -0.1 6.5 -0.1 6.3 -0.1 5.95 -0.05 5.55 0.05 5.4 0.25 5.2 0.65 4.8 0.9 4.7 1.35 4.55 1.65 4.45 2.0 4.4 2.5 4.4 3.0 4.5 3.25 4.7 3.45 4.9 3.75 5.25 5.25 5.45 5.75 5.55 6.0 5.75 6.1 5.95 6.2 6.1" fill="#908282" fill-opacity="0.5019608" fill-rule="evenodd" stroke="none"/>
    <path d="M5.3 6.1 L5.45 6.25 Q5.0 8.5 2.35 9.1 0.35 9.6 -1.0 8.55 L-1.05 8.35 -1.0 8.0 -0.95 7.8 3.4 6.7 4.65 6.05 4.75 6.0 5.0 5.95 5.3 6.1" fill="#908282" fill-opacity="0.5019608" fill-rule="evenodd" stroke="none"/>
    <path d="M-3.5 3.7 L-3.2 3.85 -2.95 4.2 -2.9 4.4 -2.9 4.75 -2.95 4.95 -3.0 5.1 -3.2 5.3 -3.3 5.5 -3.3 5.7 -3.4 6.05 -3.5 6.25 -3.65 6.4 -3.8 6.55 -3.95 6.65 -4.25 6.7 -5.3 6.7 -7.0 7.05 -7.25 7.05 -7.65 6.9 -7.85 6.75 -8.1 6.2 -8.0 5.45 -5.8 4.45 -5.65 4.25 -5.5 4.15 -5.35 4.05 -4.25 4.0 -4.0 3.9 -3.75 3.8 -3.5 3.7" fill="#908282" fill-opacity="0.5019608" fill-rule="evenodd" stroke="none"/>
    <path d="M1.25 -8.9 L2.6 -8.85 3.55 -8.7 3.7 -8.65 4.2 -8.35 4.75 -7.95 4.85 -7.9 5.05 -7.5 5.75 -6.25 6.25 -4.6 6.25 -4.5 6.2 -4.4 6.2 -4.3 6.15 -4.2 6.15 -4.1 6.25 -4.1 6.6 -4.15 Q7.3 -3.95 7.75 -3.45 L8.5 -2.7 Q9.2 -1.75 9.4 -0.55 L9.6 2.35 Q9.2 3.35 8.3 4.05 L6.8 4.75 6.65 4.75 6.6 4.8 6.55 4.8 6.55 4.85 6.25 4.9 6.1 4.9 6.0 4.9 5.65 4.75 5.45 4.75 5.45 4.7 5.5 4.7 5.55 4.7 5.4 4.6 5.4 4.55 5.4 4.5 5.4 4.4 5.4 4.35 5.35 4.25 5.3 4.15 5.2 4.05 5.15 4.0 5.1 3.55 Q5.05 3.05 5.25 2.6 L5.3 2.55 5.5 2.35 Q4.35 2.2 3.5 1.2 L3.0 0.6 3.0 0.5 3.0 0.35 3.0 0.1 3.0 -0.1 3.0 -0.15 3.05 -0.5 3.15 -0.85 3.2 -1.2 3.4 -1.4 Q1.35 -1.1 -0.25 -2.65 L-0.9 -3.45 -0.95 -3.5 -1.75 -3.3 -1.75 -3.2 -1.7 -3.15 -1.7 -3.1 -1.75 -2.55 -2.0 -1.95 Q-3.45 -0.25 -5.55 -0.55 L-5.55 -0.45 -5.55 -0.4 -5.65 -0.15 -5.85 0.15 -5.95 0.25 -6.1 0.3 -6.15 0.35 -6.2 0.45 -6.5 0.65 -6.95 0.8 -7.65 0.85 -7.7 0.75 -7.75 0.75 Q-7.9 0.6 -8.1 0.55 L-8.7 0.45 -8.6 0.45 -8.6 0.35 -8.7 0.3 -8.8 0.2 -8.9 0.1 -9.2 -0.2 -9.3 -0.3 -9.3 -0.35 -9.45 -0.65 -9.55 -0.85 -9.55 -0.95 -9.55 -1.05 -9.55 -1.9 -9.55 -2.55 -9.55 -2.65 -9.55 -2.8 -9.55 -3.1 -9.5 -3.2 -9.4 -3.65 -9.0 -4.8 -8.95 -4.9 -8.75 -5.35 -8.35 -6.2 -8.25 -6.3 -8.15 -6.4 -7.7 -6.85 -7.3 -7.2 -7.2 -7.3 -6.25 -7.7 -4.65 -8.1 -3.75 -8.15 -2.15 -8.0 -1.75 -7.9 -1.7 -7.8 -1.7 -7.85 -1.65 -7.95 -1.3 -8.2 Q-0.9 -8.35 -0.55 -8.6 L-0.45 -8.7 -0.25 -8.75 1.25 -8.85 1.25 -8.9 M3.2 -8.05 L0.6 -8.1 -0.3 -8.0 -0.5 -7.9 -0.9 -7.7 -1.1 -7.65 -1.1 -7.55 -1.15 -7.45 -1.15 -7.35 -1.2 -7.25 -1.2 -7.2 -1.3 -7.15 -1.4 -7.15 -1.6 -7.2 -1.65 -7.25 Q-4.15 -7.85 -6.45 -6.8 L-7.55 -5.9 -7.75 -5.7 -7.8 -5.65 -7.95 -5.25 -8.35 -4.2 -8.5 -3.95 -8.65 -3.45 -8.8 -2.9 -8.8 -2.8 -8.8 -2.7 -8.8 -2.05 -8.8 -1.4 -8.8 -1.2 -8.8 -1.15 -8.8 -1.05 -8.75 -0.95 -8.7 -0.85 -8.6 -0.65 -8.55 -0.55 -8.45 -0.45 -8.4 -0.4 -8.3 -0.3 -8.25 -0.2 -8.2 -0.1 -8.05 0.0 -7.95 0.1 -7.75 0.3 -7.7 0.3 -7.7 0.25 -7.65 0.2 -7.55 0.15 Q-6.7 0.3 -6.1 -0.35 L-6.05 -0.5 -6.05 -0.65 -6.1 -0.65 -6.65 -1.15 -6.65 -1.25 -6.55 -1.4 -6.5 -1.5 -6.45 -1.5 -6.45 -1.55 -6.35 -1.55 -6.25 -1.5 -6.2 -1.5 -6.15 -1.55 -6.05 -1.6 -5.95 -1.55 -5.75 -1.25 -5.7 -1.2 Q-4.35 -0.8 -3.05 -1.7 -2.4 -2.15 -2.2 -2.85 L-2.2 -3.05 -2.2 -3.35 -2.5 -3.5 -2.5 -3.9 -2.5 -4.0 -2.55 -4.25 -2.4 -4.2 -2.2 -4.15 -2.2 -4.1 -2.15 -4.05 -2.05 -4.05 -2.05 -4.0 -2.1 -4.0 -2.05 -3.95 -1.95 -3.9 -1.9 -3.8 -1.5 -3.9 -1.05 -4.1 -1.0 -4.1 -1.0 -4.15 -1.0 -4.25 -0.95 -4.35 -0.95 -4.45 -0.9 -4.55 -0.85 -4.55 -0.8 -4.6 -0.7 -4.6 -0.6 -4.55 -0.55 -4.5 -0.5 -4.5 -0.5 -4.45 -0.45 -4.35 -0.45 -4.3 -0.45 -4.2 -0.45 -4.05 -0.45 -4.0 -0.5 -3.9 -0.55 -3.8 -0.5 -3.8 -0.5 -3.7 Q0.9 -1.7 3.3 -2.0 3.95 -2.1 4.45 -2.45 L4.75 -2.4 4.9 -2.35 4.85 -2.3 4.85 -2.2 4.8 -2.15 4.8 -2.05 4.8 -1.95 4.8 -1.9 4.4 -1.65 4.0 -1.25 3.95 -1.25 3.95 -1.2 3.8 -1.05 3.8 -1.0 3.75 -0.7 3.7 -0.45 3.6 -0.15 3.6 -0.1 3.6 0.0 3.6 0.2 3.6 0.25 Q4.0 1.05 4.8 1.4 L6.4 1.85 6.5 1.9 6.5 1.95 6.55 2.0 6.55 2.2 6.5 2.25 6.35 2.4 6.15 2.45 6.0 2.6 5.8 2.8 5.65 3.35 5.7 3.9 5.7 4.1 6.05 4.4 6.1 4.35 7.9 3.35 8.55 2.8 8.65 2.6 8.75 2.4 8.85 2.2 8.9 1.45 8.9 0.55 8.9 -0.05 8.3 -1.7 Q7.7 -2.9 6.6 -3.6 L6.25 -3.7 6.1 -3.75 6.0 -3.65 5.85 -3.55 5.8 -3.45 5.7 -3.5 5.7 -3.55 5.65 -3.65 5.55 -3.75 5.55 -3.85 5.55 -3.95 5.55 -4.05 5.55 -4.15 5.45 -4.5 5.05 -5.7 4.2 -7.3 4.1 -7.4 3.85 -7.6 3.45 -7.9 3.2 -8.05 M5.25 5.4 L5.2 5.45 5.45 6.15 5.3 6.45 4.65 7.95 4.55 8.0 4.35 8.2 4.3 8.25 4.05 8.35 Q2.55 9.1 0.95 9.45 L-0.2 9.25 Q-1.45 9.0 -2.45 8.25 L-2.6 7.95 -2.7 7.7 -2.75 7.6 -2.75 7.05 -2.65 6.35 -2.6 6.3 -2.5 6.25 -2.4 6.2 -2.1 6.15 -1.8 6.15 -1.8 5.55 Q-1.75 4.35 -0.65 3.75 L0.65 3.3 1.55 3.3 2.1 3.45 2.2 3.5 2.25 3.55 2.3 3.6 2.4 3.65 2.6 3.75 2.65 3.8 3.25 4.35 3.45 4.7 3.6 5.0 4.25 4.75 4.9 4.95 5.1 4.95 5.25 5.25 5.25 5.4 M1.85 3.95 Q0.75 3.75 -0.25 4.25 -0.9 4.6 -1.2 5.3 L-1.2 5.4 -1.25 5.65 -1.25 6.2 -1.25 6.5 -1.15 6.55 -1.1 6.6 -1.1 6.65 -1.05 6.7 -1.05 6.85 -1.7 6.75 -1.85 6.8 -1.85 6.75 -1.9 6.7 -2.1 6.65 -2.1 6.85 -2.05 6.95 -2.1 6.95 -2.2 7.05 -2.2 7.3 -2.15 7.4 -2.1 7.5 -2.05 7.6 -2.0 7.65 -1.95 7.7 Q0.75 9.35 3.8 8.1 L4.4 7.65 4.5 7.45 4.55 7.3 4.55 7.2 4.55 7.0 4.75 6.7 4.75 6.65 4.75 6.5 4.75 6.4 4.75 6.3 4.75 6.25 4.8 6.2 4.8 6.15 4.8 5.95 4.75 5.8 4.7 5.65 4.5 5.5 4.25 5.45 4.05 5.5 3.9 5.5 3.8 5.6 3.7 5.7 3.55 5.7 3.05 5.9 3.05 5.85 3.1 5.8 3.15 5.75 3.15 5.65 3.1 5.55 3.15 5.5 3.15 5.4 3.15 5.3 3.15 5.25 3.1 5.2 2.8 4.7 2.15 4.1 2.0 4.0 1.85 3.95 M-2.4 -3.95 L-2.3 -4.0 -2.5 -4.0 -2.45 -3.95 -2.4 -3.9 -2.4 -3.95 M-2.6 4.35 L-2.9 3.9 -3.45 3.45 -3.75 3.25 -4.95 2.85 -5.35 2.8 -5.4 2.8 -5.45 2.85 -6.45 3.1 -6.65 3.25 -6.65 3.35 -6.7 3.4 -6.7 3.5 -6.75 3.5 -6.8 3.55 -6.8 3.65 -6.85 3.7 -6.85 3.8 -6.9 3.95 -6.95 3.95 -7.05 4.0 -7.15 3.95 -7.2 3.95 -7.2 3.85 -7.25 3.7 -7.25 3.55 -7.25 3.5 -7.3 3.25 -7.3 3.2 -7.25 3.15 -7.25 3.05 -7.25 2.9 -7.25 2.8 -7.25 2.6 -7.25 2.45 Q-7.7 2.3 -8.15 2.45 L-8.85 2.85 -8.85 4.45 -8.8 4.65 -8.7 4.85 -8.7 4.95 -8.65 5.05 Q-6.7 7.3 -3.9 6.4 L-3.1 5.85 -2.65 5.4 -2.6 5.25 -2.6 5.15 -2.6 4.75 -2.6 4.55 -2.6 4.35 M-2.1 4.4 L-2.1 4.85 -2.1 5.15 -2.1 5.35 -2.1 5.4 -2.15 5.45 -2.15 5.5 -2.55 6.0 -3.0 6.35 -3.0 6.4 -3.05 6.5 -3.15 6.7 -3.5 7.0 -3.75 7.15 -3.85 7.2 Q-7.25 8.15 -9.3 5.45 L-9.65 4.65 -9.65 3.7 -9.65 3.6 -9.65 3.4 -9.7 3.35 -9.7 3.25 -9.65 3.1 -9.6 3.0 -9.55 2.9 -9.55 2.75 -9.45 2.6 -9.4 2.45 -9.3 2.35 -9.05 2.25 -8.9 2.1 -8.9 2.15 -8.1 1.85 -8.0 1.85 -8.0 1.8 -7.5 1.8 Q-7.15 1.85 -6.85 2.05 L-6.85 2.1 -6.8 2.2 -6.75 2.25 -6.75 2.35 -6.75 2.5 -6.75 2.6 -6.75 2.7 -6.5 2.6 -6.35 2.45 -6.25 2.35 -6.2 2.35 -5.95 2.25 -5.75 2.2 Q-4.45 2.3 -3.35 2.9 -2.9 3.15 -2.6 3.5 L-2.1 4.15 -2.1 4.4" fill="#333333" fill-rule="evenodd" stroke="none"/>
  </g>
</svg>
