<?xml version="1.0" encoding="UTF-8" standalone="no"?>
<svg xmlns:xlink="http://www.w3.org/1999/xlink" height="17.6px" width="19.65px" xmlns="http://www.w3.org/2000/svg">
  <g transform="matrix(1.0, 0.0, 0.0, 1.0, 9.25, 8.55)">
    <path d="M-8.6 -0.5 L-8.5 -0.85 -8.35 -1.0 -8.25 -1.05 -8.0 -1.1 -7.45 -0.95 -6.7 -0.6 -6.55 -0.45 -6.6 -0.1 -6.75 0.35 -7.1 0.8 -7.2 0.85 -7.5 0.95 -7.75 0.9 -8.25 0.8 -8.5 0.6 -8.6 0.45 -8.6 0.05 -8.6 -0.1 -8.6 -0.5" fill="#908282" fill-opacity="0.5019608" fill-rule="evenodd" stroke="none"/>
    <path d="M0.15 -7.35 L0.25 -7.2 0.3 -7.0 0.4 -6.8 0.35 -6.65 0.3 -6.45 0.1 -6.1 -0.05 -5.85 -0.25 -5.75 -0.75 -5.65 -1.7 -5.5 -1.6 -5.3 -1.55 -5.15 -1.45 -4.95 -1.45 -4.75 -1.45 -4.55 -1.45 -4.35 -1.45 -4.0 -1.45 -3.8 -1.55 -3.6 -1.65 -3.45 -1.75 -3.25 -1.95 -3.05 -2.3 -2.7 -2.95 -2.1 Q-5.35 -1.2 -7.7 -2.05 L-8.3 -2.55 -8.35 -2.95 -8.35 -3.7 -8.35 -4.45 -8.35 -4.8 -8.35 -5.2 -7.9 -6.1 -6.95 -7.0 -6.0 -7.75 -5.85 -7.8 -5.5 -7.85 -4.75 -7.85 -4.25 -7.75 -4.0 -7.55 -2.6 -7.7 -0.25 -7.75 0.0 -7.55 0.15 -7.35" fill="#908282" fill-opacity="0.5019608" fill-rule="evenodd" stroke="none"/>
    <path d="M-2.0 -7.05 L-1.5 -6.9 -1.0 -6.55 -0.85 -6.35 -0.85 -6.2 -0.85 -6.0 -0.85 -5.8 -0.95 -5.6 -1.0 -5.45 -1.2 -5.25 -1.35 -5.05 -1.55 -4.85 -1.6 -4.7 -1.6 -4.3 -1.6 -3.75 -1.6 -3.55 -1.7 -3.4 -1.95 -3.0 -2.3 -2.6 -2.4 -2.45 -2.5 -2.25 -2.75 -2.05 -3.0 -1.85 -3.2 -1.7 Q-5.15 -0.8 -7.25 -1.1 L-7.5 -1.3 -7.6 -1.5 -7.7 -1.7 -7.75 -1.9 -7.75 -2.05 -7.7 -2.25 -7.55 -2.65 -7.45 -3.0 -7.5 -3.2 -7.6 -3.55 -7.5 -4.1 -7.4 -4.3 -7.25 -4.5 -7.0 -4.7 -6.5 -4.8 -6.25 -4.8 -5.75 -4.7 -5.5 -4.5 -5.35 -4.35 -5.25 -4.35 -4.1 -4.2 -4.2 -4.35 -4.3 -4.55 -4.35 -4.75 -4.35 -4.95 -4.4 -5.3 -4.3 -5.85 -4.2 -6.05 -3.85 -6.45 -3.5 -6.75 -3.0 -6.85 -2.0 -7.05" fill="#908282" fill-opacity="0.5019608" fill-rule="evenodd" stroke="none"/>
    <path d="M5.55 -6.6 L5.9 -6.05 5.9 -5.85 5.95 -5.7 5.95 -5.5 5.95 -5.1 5.85 -4.95 5.75 -4.75 5.65 -4.55 5.6 -4.4 5.55 -4.2 5.3 -3.85 4.95 -3.45 4.5 -3.05 2.75 -3.0 2.25 -3.1 2.05 -3.25 2.0 -3.3 0.6 -3.65 -0.3 -4.25 -0.5 -4.45 -0.55 -4.6 -0.6 -4.8 -0.6 -5.0 -0.6 -5.35 -0.6 -5.95 -0.55 -6.1 0.1 -6.85 Q0.85 -7.35 1.75 -7.5 L2.0 -7.7 2.4 -7.8 2.85 -7.95 3.15 -8.05 3.5 -8.1 4.0 -8.1 4.35 -8.05 4.75 -7.95 5.0 -7.75 5.2 -7.4 5.55 -6.6" fill="#908282" fill-opacity="0.5019608" fill-rule="evenodd" stroke="none"/>
    <path d="M5.95 -6.45 L6.2 -5.7 6.4 -5.1 6.4 -4.95 6.4 -4.75 6.4 -4.35 6.4 -4.2 6.1 -3.85 5.25 -3.3 5.15 -3.25 2.5 -3.1 1.75 -3.5 Q1.4 -3.7 1.2 -4.05 L1.15 -4.25 1.15 -4.45 1.15 -4.6 1.15 -4.8 1.2 -5.0 1.4 -5.2 1.75 -5.5 2.25 -5.6 3.2 -5.75 3.15 -5.95 3.15 -6.1 3.15 -6.5 3.2 -6.7 3.3 -6.85 3.5 -7.05 3.7 -7.25 3.95 -7.35 4.25 -7.4 4.25 -7.45 5.0 -7.1 5.8 -6.8 5.95 -6.45" fill="#908282" fill-opacity="0.5019608" fill-rule="evenodd" stroke="none"/>
    <path d="M4.8 -1.5 L5.15 -1.85 5.75 -2.45 6.25 -2.55 7.5 -2.8 8.5 -2.75 9.0 -2.7 9.25 -2.5 9.55 -2.1 9.8 -1.55 9.8 -1.35 9.8 -1.2 9.8 -1.0 9.75 -0.6 9.8 -0.45 10.0 -0.25 10.1 -0.05 10.2 0.1 10.3 0.3 10.3 0.7 10.35 2.0 10.4 3.15 10.3 3.3 10.25 3.5 10.05 3.85 9.95 4.05 9.8 4.25 9.55 4.45 9.35 4.55 9.0 4.65 8.5 4.5 8.25 4.3 8.05 4.1 7.95 3.95 7.9 3.75 7.9 3.55 7.9 3.4 7.9 3.0 7.95 2.8 8.05 2.6 8.15 2.45 8.15 2.25 8.15 2.05 8.2 1.95 Q6.95 2.0 5.85 1.25 L4.75 0.2 4.7 0.0 4.7 -0.35 4.7 -0.95 4.7 -1.3 4.8 -1.5" fill="#908282" fill-opacity="0.5019608" fill-rule="evenodd" stroke="none"/>
    <path d="M7.5 -2.35 L8.0 -2.35 8.5 -2.25 8.75 -2.05 9.15 -1.7 9.7 -1.1 9.75 -0.95 9.8 -0.75 9.9 -0.55 9.9 -0.2 9.9 0.55 9.9 1.5 9.8 1.7 9.65 2.05 9.45 2.6 9.3 3.0 9.15 3.15 8.95 3.4 8.5 3.5 8.0 3.4 7.75 3.2 7.65 3.0 7.55 2.8 7.45 2.45 7.4 2.25 7.1 2.15 6.75 2.0 6.5 1.8 6.3 1.65 5.95 1.25 5.9 0.85 5.9 0.15 5.9 -0.8 5.95 -1.0 6.05 -1.2 6.15 -1.35 6.25 -1.55 6.45 -1.75 6.65 -1.95 7.0 -2.25 7.15 -2.3 7.5 -2.35" fill="#908282" fill-opacity="0.5019608" fill-rule="evenodd" stroke="none"/>
    <path d="M1.55 5.1 L2.7 5.4 2.9 5.6 3.05 5.75 3.2 5.95 3.25 6.15 3.25 6.3 3.2 6.5 3.2 6.7 3.2 6.9 3.1 7.05 3.0 7.25 2.85 7.45 2.7 7.65 2.5 7.8 2.4 8.0 2.3 8.2 2.15 8.4 1.95 8.55 1.75 8.75 1.5 8.95 1.0 9.05 0.5 8.95 0.25 8.75 0.05 8.55 0.05 8.5 -0.25 8.45 -0.55 8.3 -0.7 8.15 -0.85 7.95 -1.0 7.75 -1.05 7.55 -1.1 7.4 -1.1 7.2 -1.1 7.0 -1.1 6.8 -1.05 6.65 -1.05 6.45 -1.05 6.25 -1.0 6.05 -0.8 5.7 -0.7 5.5 -0.35 5.15 -0.1 5.05 0.25 4.95 1.55 5.1" fill="#908282" fill-opacity="0.5019608" fill-rule="evenodd" stroke="none"/>
    <path d="M1.5 5.75 L2.5 5.8 Q3.05 5.85 3.45 6.25 L3.55 6.45 3.65 6.65 3.7 6.8 3.75 7.2 3.75 7.35 3.45 7.95 2.75 8.65 0.75 8.8 Q0.0 8.7 -0.3 8.05 L-0.35 7.85 -0.35 7.7 -0.35 7.5 -0.3 7.3 -0.2 7.15 0.25 6.6 1.0 5.9 1.15 5.85 1.5 5.8 1.5 5.75" fill="#908282" fill-opacity="0.5019608" fill-rule="evenodd" stroke="none"/>
    <path d="M-4.0 6.05 L-4.05 6.25 -4.15 6.45 -4.25 6.65 -4.4 6.8 -4.6 7.0 -4.75 7.15 -4.9 7.15 Q-5.95 7.45 -7.0 7.15 L-7.25 6.95 -7.35 6.75 -7.45 6.55 -7.5 6.4 -7.5 6.2 -7.5 6.0 -7.5 5.65 -7.45 5.05 -7.3 4.9 -7.1 4.7 -6.95 4.5 -6.75 4.4 -6.6 4.35 -6.25 4.3 -6.25 4.25 -5.25 4.35 -4.35 4.55 -4.25 4.75 -4.15 4.95 -4.05 5.1 -3.95 5.3 -3.95 5.5 -3.95 5.7 -3.95 5.9 -4.0 6.05" fill="#908282" fill-opacity="0.5019608" fill-rule="evenodd" stroke="none"/>
    <path d="M-4.05 4.95 L-3.8 5.15 -3.7 5.3 -3.5 5.65 -3.35 6.45 -3.45 6.55 -3.5 6.6 -4.2 6.8 -4.35 7.0 -4.5 7.15 -5.0 7.2 -6.5 7.15 -6.75 6.95 -6.85 6.75 -6.95 6.55 -7.0 6.2 -7.0 6.0 -6.9 5.8 -6.8 5.65 -6.6 5.45 -6.3 5.25 -5.95 5.05 -5.7 4.95 -5.55 4.9 -5.25 4.85 -5.25 4.8 -4.5 4.85 -4.05 4.95" fill="#908282" fill-opacity="0.5019608" fill-rule="evenodd" stroke="none"/>
    <path d="M5.6 -7.1 L5.85 -6.75 6.1 -6.3 6.15 -6.2 6.15 -6.0 6.1 -5.7 6.05 -5.45 6.05 -5.25 6.0 -5.15 6.0 -5.05 6.0 -4.95 6.0 -4.9 5.95 -4.9 5.9 -4.95 5.85 -4.9 5.85 -4.8 5.8 -4.6 5.7 -4.2 5.55 -3.85 5.5 -3.75 5.4 -3.65 5.3 -3.55 5.1 -3.35 4.95 -3.2 Q2.55 -2.0 0.65 -3.9 L-0.25 -5.2 -0.25 -5.3 -0.25 -5.55 -0.25 -5.95 -0.25 -6.5 -0.25 -6.6 -0.2 -6.7 -0.05 -7.0 0.15 -7.35 0.35 -7.7 0.85 -8.05 2.25 -8.4 2.75 -8.5 4.1 -8.35 4.95 -7.95 5.05 -7.9 5.1 -7.8 5.2 -7.7 5.4 -7.5 5.45 -7.4 5.6 -7.1 M5.25 -6.55 L5.25 -6.65 5.3 -6.7 Q4.8 -7.55 3.9 -7.75 L2.65 -7.8 1.65 -7.55 1.0 -7.3 0.75 -6.95 0.55 -6.45 0.5 -6.4 0.5 -6.0 0.5 -5.65 0.5 -5.45 Q0.75 -4.85 1.15 -4.4 L2.45 -3.6 3.95 -3.55 4.35 -3.7 4.6 -4.0 4.95 -4.3 5.0 -4.65 5.1 -5.05 5.15 -5.15 5.15 -5.4 5.15 -5.7 5.15 -5.95 5.2 -6.05 5.2 -6.15 5.2 -6.25 5.2 -6.35 5.2 -6.45 5.25 -6.55 M4.95 -1.95 L5.0 -2.05 5.3 -2.25 5.35 -2.4 5.4 -2.45 5.7 -2.65 5.95 -2.85 6.1 -2.9 6.1 -3.0 6.15 -3.1 6.2 -3.2 6.3 -3.25 6.4 -3.3 6.75 -3.3 6.9 -3.35 Q8.4 -3.25 9.4 -2.1 10.05 -1.3 10.35 -0.3 L10.35 0.75 10.3 2.45 10.05 3.35 9.2 4.0 7.75 4.6 7.6 4.65 7.4 4.65 7.2 4.6 7.15 4.55 7.25 4.5 7.4 4.45 7.6 4.4 8.25 4.0 9.15 3.3 9.35 3.1 9.6 2.3 9.65 0.85 9.65 -0.05 Q9.5 -0.9 8.95 -1.5 8.15 -2.5 7.0 -2.7 L6.95 -2.65 6.8 -2.55 6.65 -2.6 6.35 -2.55 6.0 -2.25 5.7 -1.95 5.5 -1.8 5.45 -1.7 5.4 -1.6 5.4 -1.55 5.35 -1.4 5.3 -1.3 5.3 -1.05 5.3 -0.85 5.35 -0.4 5.35 0.1 6.15 1.0 Q7.25 1.8 8.65 1.85 L8.75 1.95 8.85 2.05 8.9 2.1 8.7 2.3 8.7 2.35 8.95 2.6 8.9 2.7 8.85 2.75 8.75 2.8 8.6 2.8 8.5 2.75 8.4 2.75 7.95 2.8 7.85 2.9 7.8 3.0 7.65 3.2 Q7.55 3.35 7.6 3.55 L7.65 3.65 7.7 3.7 7.75 3.75 7.85 3.85 8.0 4.0 7.95 4.1 7.9 4.15 7.75 4.25 7.6 4.3 7.5 4.3 7.3 4.25 7.2 4.15 7.15 4.05 7.0 3.95 6.95 3.85 6.95 3.8 6.95 3.7 6.95 3.6 6.95 3.4 6.95 3.3 6.95 3.2 7.05 3.0 7.2 2.75 7.25 2.65 7.35 2.55 Q7.4 2.45 7.5 2.45 6.5 2.25 5.7 1.65 L5.45 1.45 4.7 0.65 4.7 0.55 4.6 0.45 4.6 0.15 4.6 0.1 4.6 -0.2 4.65 -0.8 4.7 -1.1 4.7 -1.25 4.7 -1.35 4.75 -1.55 4.8 -1.65 4.85 -1.7 4.85 -1.8 4.9 -1.9 4.95 -1.95 M0.9 4.45 Q1.8 4.85 2.55 5.5 L3.5 6.6 3.55 6.85 3.55 7.15 3.55 7.45 3.55 7.6 3.5 7.7 3.4 7.9 3.3 8.1 3.25 8.2 Q1.3 9.7 -1.0 8.5 L-1.3 8.25 -1.4 8.05 -1.5 7.85 -1.55 7.7 -1.6 7.6 -1.6 7.4 -1.6 7.2 -1.6 7.05 -1.6 6.85 -1.5 6.55 -1.45 6.3 -1.4 6.0 -1.3 5.8 -1.2 5.7 -1.1 5.6 -0.95 5.45 -0.8 5.25 -0.55 5.05 -0.45 4.95 -0.45 4.85 -0.5 4.8 Q0.05 4.4 0.75 4.45 L0.9 4.45 M0.25 5.3 L0.05 5.4 -0.2 5.6 -0.35 5.7 -0.4 5.8 -0.5 5.9 -0.6 5.95 -0.65 6.05 -0.7 6.15 -0.75 6.45 -0.85 6.8 -0.9 7.0 -0.9 7.1 -0.9 7.2 -0.9 7.3 -0.9 7.35 -0.9 7.45 -0.8 7.65 -0.65 7.85 -0.55 7.95 Q1.1 8.7 2.55 7.7 L2.6 7.6 2.7 7.55 2.75 7.45 2.75 7.35 2.75 7.25 2.75 7.15 2.75 7.05 2.75 6.95 2.15 6.25 0.75 5.25 0.25 5.3 M4.05 5.85 L4.1 5.75 4.2 5.65 4.6 5.55 4.75 5.55 5.0 6.0 4.95 6.35 4.9 6.45 4.85 6.45 4.75 6.5 Q4.3 6.6 4.0 6.3 L4.05 6.1 4.05 5.95 4.05 5.85 M-2.85 -8.3 L-2.05 -8.0 -1.45 -7.75 -0.8 -7.15 -0.8 -6.95 -0.8 -6.75 -0.8 -6.55 -0.75 -6.4 -1.0 -6.0 -1.4 -5.65 -1.55 -5.45 -1.8 -5.35 -1.8 -5.3 -1.75 -5.2 -1.75 -5.1 -1.7 -5.0 -1.65 -4.05 -1.65 -3.2 -1.95 -2.65 -2.3 -2.2 Q-4.8 -0.5 -7.65 -1.8 L-7.75 -1.9 -7.8 -2.1 -7.8 -2.2 -7.8 -2.3 -7.8 -2.35 -7.85 -2.35 -8.05 -2.4 -8.15 -2.5 -8.2 -2.6 -8.25 -2.7 -8.25 -2.8 -8.3 -2.95 -8.45 -3.25 -8.5 -3.35 -8.5 -3.55 -8.5 -4.0 -8.5 -4.95 -8.5 -5.15 -8.45 -5.4 -8.4 -5.9 -7.9 -6.7 -6.6 -7.7 -4.5 -8.3 -2.85 -8.3 M-2.75 -7.7 Q-4.55 -7.9 -6.25 -7.1 -6.9 -6.8 -7.3 -6.3 L-7.35 -6.2 -7.4 -6.1 -7.5 -6.0 -7.55 -5.9 -7.65 -5.7 -7.7 -5.15 -7.75 -4.3 -7.75 -4.15 -7.75 -3.85 -7.75 -3.3 -7.7 -3.2 -7.65 -3.1 -7.65 -3.0 -7.6 -2.9 -7.55 -2.8 -7.55 -2.7 -7.55 -2.6 -7.5 -2.65 -7.45 -2.55 -7.4 -2.4 -7.35 -2.3 -7.3 -2.25 -7.25 -2.2 Q-4.75 -1.3 -2.9 -2.85 L-2.4 -3.35 -2.35 -4.2 -2.3 -5.05 -2.3 -5.1 -2.25 -5.2 -2.85 -5.05 -3.25 -5.2 -3.4 -5.35 -3.4 -5.45 -3.4 -5.5 -3.3 -5.65 -2.65 -5.9 -1.9 -6.1 -1.8 -6.2 -1.65 -6.4 -1.55 -6.45 -1.45 -6.55 -1.4 -6.65 -1.4 -6.75 -1.4 -6.85 -1.4 -6.95 -1.5 -7.05 -1.55 -7.1 -1.65 -7.2 -2.0 -7.4 -2.3 -7.6 -2.35 -7.65 -2.4 -7.65 -2.6 -7.6 -2.75 -7.7 M-8.9 -1.05 L-8.75 -1.15 -8.65 -1.25 -8.55 -1.35 -8.3 -1.35 -8.1 -1.35 -7.95 -1.4 -7.9 -1.4 -7.75 -1.4 -7.75 -1.45 -6.95 -1.0 -6.5 -0.55 -6.45 -0.35 -6.45 -0.15 -6.45 0.05 -6.5 0.1 -6.55 0.2 -6.55 0.3 -6.65 0.4 -6.75 0.5 -6.9 0.55 -7.0 0.6 -8.0 0.6 -8.2 0.55 -8.55 0.25 -8.9 -0.15 -9.0 -0.3 -9.0 -0.5 -9.0 -0.7 -9.0 -0.9 -9.0 -0.95 -8.9 -1.05 M-8.15 -1.05 L-8.3 -1.1 -8.35 -1.05 -8.4 -0.95 -8.5 -0.9 -8.5 -0.7 -8.5 -0.5 -8.5 -0.4 -8.2 -0.15 -8.0 0.05 Q-7.25 0.3 -7.05 -0.2 L-7.65 -0.75 -7.9 -0.9 -8.15 -1.05 M-4.8 5.25 L-5.65 4.5 -6.0 4.3 -6.05 4.3 -6.15 4.3 -6.8 4.8 -7.25 5.25 -7.25 5.55 -7.25 5.8 -7.15 6.1 Q-5.6 7.05 -4.4 5.9 -4.45 5.5 -4.8 5.25 M-3.65 6.1 Q-4.05 7.1 -5.2 7.2 L-7.0 7.05 -7.35 6.75 -7.7 6.45 -7.8 6.35 -7.85 6.0 -7.8 5.6 -7.8 5.15 -7.75 4.95 Q-7.5 4.65 -7.1 4.45 L-6.5 3.9 -6.4 3.85 -6.4 3.8 -6.25 3.8 -6.1 3.8 -5.9 3.8 -5.75 3.8 -5.4 3.95 -5.05 4.05 -4.25 4.65 Q-3.9 5.0 -3.7 5.45 L-3.65 5.55 -3.65 5.6 -3.65 5.7 -3.65 5.9 -3.65 6.0 -3.65 6.1 M-8.65 3.2 L-8.5 3.3 -8.4 3.4 -8.35 3.45 -8.3 3.65 -8.35 3.95 -8.45 4.2 -8.6 4.25 -9.25 4.05 -9.2 3.8 -9.15 3.3 -9.0 3.2 -8.85 3.2 -8.65 3.2" fill="#333333" fill-rule="evenodd" stroke="none"/>
  </g>
</svg>
