<?xml version="1.0" encoding="UTF-8" standalone="no"?>
<svg xmlns:xlink="http://www.w3.org/1999/xlink" height="18.65px" width="19.8px" xmlns="http://www.w3.org/2000/svg">
  <g transform="matrix(1.0, 0.0, 0.0, 1.0, 9.2, 9.8)">
    <path d="M-4.25 -7.9 L-3.75 -7.65 -3.7 -7.55 -3.65 -7.45 -3.65 -7.4 -3.6 -7.3 -3.6 -7.1 -3.6 -6.15 -3.6 -5.3 -3.7 -5.15 -4.05 -4.2 -4.4 -3.55 Q-5.5 -2.15 -7.1 -2.75 L-8.05 -3.35 -8.1 -3.45 -8.15 -3.55 -8.15 -3.65 -8.25 -3.8 -8.25 -4.0 -8.25 -4.85 -8.25 -5.6 -8.2 -5.7 -8.15 -5.8 -8.15 -5.9 -7.7 -6.4 -6.3 -7.7 -6.2 -7.75 -5.35 -7.85 -5.0 -7.9 -4.25 -7.9" fill="#908282" fill-opacity="0.5019608" fill-rule="evenodd" stroke="none"/>
    <path d="M-4.7 -7.05 L-4.5 -7.1 -4.25 -7.0 -4.1 -6.95 -4.05 -6.85 -3.95 -6.65 -3.9 -6.45 -3.9 -6.4 -3.9 -6.3 -3.9 -6.2 -3.95 -6.0 -4.2 -5.65 -4.25 -5.55 -4.8 -5.0 -5.15 -4.4 -5.25 -4.3 -5.55 -4.1 -5.6 -4.05 -5.6 -3.95 -5.65 -3.75 -5.65 -3.45 -5.65 -3.4 -5.6 -3.3 -5.5 -3.1 -5.45 -2.8 -5.45 -2.7 -5.5 -2.55 -5.6 -2.35 -8.3 -2.1 -8.4 -2.2 -8.6 -2.4 -8.65 -2.55 -8.65 -2.65 -8.65 -2.75 -8.65 -2.85 -8.6 -2.95 -8.4 -3.1 -8.3 -3.2 -6.9 -3.4 -6.9 -3.6 -6.9 -3.95 -6.9 -4.25 -6.7 -4.75 -6.3 -5.45 -5.75 -6.0 -5.15 -6.5 -5.1 -6.6 -5.05 -6.7 -5.0 -6.9 -4.9 -6.95 -4.75 -7.05 -4.7 -7.05" fill="#908282" fill-opacity="0.5019608" fill-rule="evenodd" stroke="none"/>
    <path d="M-2.55 -8.7 L-2.45 -8.75 -2.25 -8.75 -2.25 -8.8 -1.85 -8.75 -1.6 -8.7 -1.25 -8.65 -1.15 -8.55 -1.1 -8.45 -1.05 -8.35 -1.0 -8.25 -1.0 -8.05 -1.0 -7.8 Q-0.95 -7.4 -1.2 -7.15 L-1.25 -7.1 -1.5 -7.0 -2.25 -7.1 -2.35 -7.2 -2.45 -7.3 -2.45 -7.4 -2.5 -7.45 -2.5 -7.55 -2.55 -7.65 -2.65 -7.75 -2.7 -7.85 -2.75 -7.95 -2.8 -8.05 -2.8 -8.15 -2.8 -8.2 -2.8 -8.3 -2.8 -8.4 -2.75 -8.5 -2.65 -8.6 -2.55 -8.7" fill="#908282" fill-opacity="0.5019608" fill-rule="evenodd" stroke="none"/>
    <path d="M5.55 -7.8 L5.6 -7.7 5.6 -7.6 5.6 -7.5 5.6 -7.3 5.6 -7.15 5.45 -6.85 5.3 -6.55 5.2 -6.45 4.75 -6.1 4.65 -6.05 4.4 -5.95 Q3.65 -5.35 2.7 -5.6 1.75 -5.9 1.35 -6.8 L1.35 -6.9 1.35 -7.0 1.35 -7.3 1.35 -7.4 1.35 -7.45 1.35 -7.65 1.4 -7.75 1.45 -7.85 1.55 -8.05 1.65 -8.2 1.7 -8.3 1.75 -8.4 1.85 -8.5 1.95 -8.6 2.05 -8.7 2.25 -8.8 2.45 -8.85 2.65 -8.85 2.65 -8.9 3.75 -8.9 4.8 -8.65 4.9 -8.55 4.95 -8.45 5.0 -8.35 5.2 -8.25 5.35 -8.15 5.45 -8.05 5.5 -7.95 5.5 -7.9 5.55 -7.8" fill="#908282" fill-opacity="0.5019608" fill-rule="evenodd" stroke="none"/>
    <path d="M5.55 -6.35 L5.3 -5.95 Q4.6 -5.4 3.65 -5.55 2.95 -5.65 2.6 -6.2 L2.6 -6.3 2.6 -6.4 2.6 -6.5 2.6 -6.7 2.6 -6.9 2.6 -6.95 2.65 -7.05 2.7 -7.15 3.3 -7.6 4.0 -7.8 5.0 -7.7 5.7 -7.2 5.7 -7.1 5.7 -7.0 5.7 -6.9 5.7 -6.8 5.7 -6.7 5.7 -6.65 5.65 -6.55 5.55 -6.35" fill="#908282" fill-opacity="0.5019608" fill-rule="evenodd" stroke="none"/>
    <path d="M7.4 -2.25 L8.35 -2.75 8.75 -2.85 9.65 -2.75 10.35 -2.4 10.4 -2.3 10.45 -2.2 10.5 -2.1 10.55 -1.95 10.6 -1.85 10.6 -1.75 10.6 -1.65 10.55 -1.55 10.55 -1.4 10.55 -1.2 10.5 -1.1 10.4 -0.8 10.0 -0.25 9.85 -0.05 9.65 0.05 9.4 0.2 Q9.15 0.4 8.85 0.55 7.75 0.9 7.05 0.25 L6.55 -0.6 6.55 -0.7 6.55 -0.8 6.55 -0.9 6.55 -0.95 6.55 -1.05 6.55 -1.15 6.6 -1.25 6.7 -1.45 6.95 -1.8 7.15 -2.1 7.4 -2.25" fill="#908282" fill-opacity="0.5019608" fill-rule="evenodd" stroke="none"/>
    <path d="M8.5 -1.25 L8.75 -1.3 9.4 -1.25 Q9.7 -1.2 9.85 -0.95 L9.9 -0.85 9.95 -0.8 10.0 -0.7 10.05 -0.6 10.05 -0.4 10.05 -0.05 9.85 0.6 9.75 0.7 9.7 0.8 9.6 0.9 9.5 0.95 8.75 1.05 Q8.3 1.0 8.0 0.7 L7.95 0.6 7.9 0.55 7.85 0.45 7.85 0.35 7.85 0.25 7.85 0.15 7.85 -0.05 7.85 -0.3 7.85 -0.4 7.85 -0.5 7.9 -0.6 7.95 -0.7 8.0 -0.8 8.1 -0.9 8.3 -1.05 8.5 -1.25" fill="#908282" fill-opacity="0.5019608" fill-rule="evenodd" stroke="none"/>
    <path d="M1.7 7.35 L1.2 7.95 0.85 8.2 0.4 8.25 -0.5 8.2 -0.65 8.1 -0.7 8.0 -0.75 7.9 -0.75 7.8 -0.75 7.7 -0.75 7.6 -0.75 7.45 -0.75 7.25 -0.7 7.15 -0.65 6.95 -0.4 6.7 -0.3 6.6 -0.2 6.55 0.0 6.45 0.1 6.4 0.25 6.3 0.4 6.3 0.9 6.3 1.1 6.35 1.25 6.45 1.35 6.5 1.6 6.7 1.65 6.8 1.7 6.9 1.75 7.1 1.75 7.2 1.7 7.35" fill="#908282" fill-opacity="0.5019608" fill-rule="evenodd" stroke="none"/>
    <path d="M0.4 7.3 L0.9 7.4 1.2 7.7 1.2 7.8 1.15 7.85 1.1 7.95 0.6 8.2 0.25 8.3 0.0 8.25 -0.1 8.15 -0.2 8.05 -0.25 7.85 -0.25 7.8 -0.2 7.7 -0.15 7.6 -0.05 7.5 0.05 7.4 0.2 7.35 0.25 7.3 0.4 7.3" fill="#908282" fill-opacity="0.5019608" fill-rule="evenodd" stroke="none"/>
    <path d="M-4.8 5.5 L-4.3 5.6 -4.15 5.7 -4.1 5.8 -4.1 5.85 -4.05 6.05 -4.05 6.15 -4.4 6.6 -5.05 7.05 -5.25 7.1 -6.55 7.0 -6.7 6.9 -6.8 6.8 -6.8 6.7 -6.8 6.6 -6.8 6.35 -6.8 6.25 -6.8 6.15 -6.8 6.05 -6.75 5.95 -6.7 5.9 -6.6 5.75 -6.4 5.5 -6.3 5.4 -6.2 5.35 -6.0 5.3 -5.35 5.3 -4.95 5.45 -4.8 5.5" fill="#908282" fill-opacity="0.5019608" fill-rule="evenodd" stroke="none"/>
    <path d="M6.1 -7.8 L6.25 -7.5 6.25 -7.45 6.3 -7.05 6.25 -6.75 6.15 -6.5 6.1 -6.3 Q5.05 -5.3 3.65 -5.4 L2.4 -5.55 2.0 -5.9 1.65 -6.2 1.6 -6.3 1.55 -6.35 1.4 -6.65 1.35 -6.85 1.35 -7.3 1.3 -7.7 1.35 -8.05 1.35 -8.45 1.5 -8.7 1.65 -9.0 1.75 -9.2 1.85 -9.3 2.55 -9.7 2.9 -9.8 3.05 -9.8 3.35 -9.75 Q3.95 -9.35 4.65 -9.0 L5.75 -8.35 5.95 -8.1 6.1 -7.8 M5.4 -7.45 L5.25 -7.75 Q3.95 -8.8 2.35 -9.1 L2.1 -8.7 1.9 -8.35 1.95 -7.7 1.95 -7.05 2.0 -6.85 2.1 -6.65 2.4 -6.4 2.6 -6.2 3.6 -6.05 4.35 -6.05 5.4 -6.7 5.45 -6.8 5.5 -6.9 5.5 -7.0 5.5 -7.1 5.5 -7.2 5.4 -7.45 M9.0 -3.3 L9.35 -3.2 9.45 -3.15 9.7 -2.75 10.0 -2.3 10.0 -2.2 10.0 -1.25 10.0 -0.05 10.0 0.05 9.85 0.55 9.45 1.1 9.35 1.15 Q7.25 1.55 6.35 -0.25 L6.2 -0.55 6.2 -0.75 6.2 -0.95 6.2 -1.15 6.4 -1.65 6.95 -2.45 7.3 -2.6 7.7 -2.75 7.8 -2.85 7.75 -2.95 7.75 -3.05 7.8 -3.1 8.1 -3.3 8.75 -3.35 9.0 -3.3 M7.35 -2.05 L7.0 -1.5 6.85 -1.05 6.8 -0.85 6.85 -0.65 6.9 -0.45 6.95 -0.4 Q7.2 0.0 7.6 0.25 L8.2 0.45 9.0 0.45 9.1 0.25 9.2 0.05 9.25 -0.05 9.25 -0.8 9.25 -1.55 9.25 -1.9 9.15 -2.2 8.95 -2.45 8.9 -2.55 8.25 -2.65 8.25 -2.5 8.05 -2.35 7.75 -2.25 7.45 -2.15 7.35 -2.05 M9.3 2.95 L9.4 2.85 9.45 2.8 9.5 2.75 9.75 2.6 9.75 2.55 9.9 2.65 9.95 2.7 10.05 3.0 9.95 3.35 9.9 3.45 9.8 3.55 9.75 3.55 9.65 3.6 9.4 3.6 9.25 3.5 9.15 3.35 9.15 3.25 9.25 3.05 9.3 2.95 M0.25 6.0 L1.1 6.45 1.7 6.8 1.8 7.0 1.9 7.2 1.95 7.35 2.0 7.45 2.0 7.55 2.0 7.65 2.0 7.75 1.85 8.05 1.65 8.3 1.4 8.55 -0.4 8.75 -1.3 8.05 -1.3 7.85 -1.3 7.65 -1.3 7.45 -1.3 7.2 -1.25 7.1 -1.2 7.0 -1.15 6.9 -1.1 6.8 -1.05 6.7 -0.95 6.6 -0.85 6.55 -0.75 6.45 -0.7 6.35 -0.65 6.35 -0.5 6.3 -0.4 6.3 -0.15 6.25 -0.05 6.15 0.0 6.05 0.25 6.0 M0.05 6.7 L-0.1 6.75 -0.3 6.8 -0.5 7.0 -0.6 7.1 -0.7 7.3 -0.75 7.35 -0.7 7.55 -0.7 7.65 -0.65 7.85 -0.25 8.05 0.1 8.15 1.1 7.85 1.2 7.8 1.25 7.6 1.25 7.5 1.2 7.3 0.4 6.8 0.05 6.7 M-2.55 -8.55 L-2.3 -8.65 -2.15 -8.7 -2.0 -8.7 -1.4 -8.45 -1.0 -8.1 -1.0 -8.0 -1.0 -7.8 -1.0 -7.7 -1.0 -7.65 -1.0 -7.55 -1.0 -7.45 -1.05 -7.35 -1.1 -7.25 -1.15 -7.15 -1.2 -7.1 -1.35 -7.0 -2.1 -7.0 -2.4 -7.15 -2.75 -7.35 -2.8 -7.45 -2.8 -7.65 -2.8 -7.8 -2.8 -8.0 -2.8 -8.2 -2.75 -8.3 -2.75 -8.4 -2.65 -8.45 -2.55 -8.55 M-4.0 -8.0 L-4.05 -7.95 -4.1 -7.9 -4.0 -7.8 -3.9 -7.7 -3.65 -7.25 -3.5 -6.8 -3.5 -6.2 -3.5 -5.55 -3.5 -5.45 -3.55 -5.3 -3.7 -5.0 -3.75 -4.9 -4.6 -4.1 -5.25 -3.8 -5.45 -3.85 -5.55 -3.95 -5.65 -4.05 -5.65 -4.2 -5.65 -4.3 -4.65 -5.05 -4.35 -5.35 -4.3 -5.45 -4.25 -5.55 -4.25 -5.65 -4.2 -6.0 -4.2 -6.4 -4.2 -6.55 -4.3 -6.85 -4.35 -7.15 -4.4 -7.3 -4.45 -7.4 -4.6 -7.6 -4.65 -7.7 -4.6 -7.85 -6.6 -7.4 -7.75 -6.65 -8.05 -5.9 -8.3 -5.25 -8.35 -4.5 -8.35 -4.15 -8.3 -4.05 -8.25 -3.85 -8.15 -3.55 -8.05 -3.3 -7.95 -3.2 -7.85 -3.1 -7.8 -3.0 -7.75 -2.9 -7.75 -2.85 -6.05 -2.8 -5.95 -2.9 -5.85 -3.35 -5.6 -3.75 -5.55 -3.8 -5.45 -3.7 -5.3 -3.6 -5.2 -3.3 -5.15 -2.95 -5.3 -2.55 -5.55 -2.2 -7.7 -2.0 -7.95 -2.2 -8.25 -2.4 -8.25 -2.55 -8.2 -2.7 -8.3 -2.8 -8.35 -2.8 -8.55 -2.9 -8.7 -3.05 -8.95 -3.55 -9.15 -4.0 -9.15 -4.1 -9.2 -4.65 -9.1 -5.3 -8.9 -5.95 -8.8 -6.35 -8.75 -6.45 -8.6 -6.65 -8.45 -6.9 -8.35 -7.1 -8.15 -7.3 -7.6 -7.75 Q-7.45 -7.9 -7.25 -8.0 L-6.15 -8.2 -5.25 -8.45 -4.6 -8.45 Q-4.1 -8.45 -4.0 -8.1 L-4.0 -8.0 M-2.35 -8.35 L-2.45 -8.05 -2.4 -7.8 -2.4 -7.7 -2.25 -7.6 -1.55 -7.65 -1.65 -7.8 -1.8 -7.95 -2.1 -8.35 -2.35 -8.35 M-7.85 -0.8 L-7.8 -0.7 -7.9 -0.55 -8.05 -0.3 -8.25 -0.25 -8.55 -0.45 -8.45 -0.85 -8.1 -1.15 -7.95 -1.1 -7.9 -1.0 -7.85 -0.8 M-4.5 6.1 L-4.45 6.2 -4.45 6.4 -4.45 6.7 -4.5 6.85 -4.55 6.95 -4.85 7.2 -5.25 7.4 -6.0 7.4 -6.2 7.35 -6.8 7.1 -7.0 7.05 -7.05 6.95 -7.05 6.85 -7.15 6.65 -7.1 6.45 -7.05 6.0 -6.8 5.6 -6.7 5.55 -6.55 5.45 -6.3 5.35 -6.1 5.35 -6.1 5.3 -5.8 5.4 -5.45 5.55 -5.5 5.55 -5.7 5.6 -5.5 5.6 -5.35 5.6 -5.15 5.65 -4.75 5.85 -4.5 6.1 M-6.55 6.1 L-6.55 6.3 -6.6 6.45 -6.45 6.6 -6.1 6.8 Q-5.35 7.05 -5.05 6.55 L-5.1 6.45 -5.1 6.35 -5.2 6.25 -5.3 6.15 -5.45 6.05 -5.55 6.0 -5.95 5.75 -6.15 5.7 -6.3 5.8 -6.4 5.9 -6.5 6.0 -6.55 6.1" fill="#333333" fill-rule="evenodd" stroke="none"/>
  </g>
</svg>
