<?xml version="1.0" encoding="UTF-8" standalone="no"?>
<svg xmlns:xlink="http://www.w3.org/1999/xlink" height="10.05px" width="18.45px" xmlns="http://www.w3.org/2000/svg">
  <g transform="matrix(1.0, 0.0, 0.0, 1.0, 8.5, 11.65)">
    <path d="M5.35 -11.35 L5.45 -11.25 5.5 -11.15 5.55 -11.05 5.55 -10.95 5.55 -10.9 5.5 -10.8 5.5 -10.7 5.4 -10.6 5.3 -10.55 5.15 -10.5 4.8 -10.65 4.55 -10.95 4.55 -11.05 4.55 -11.1 4.6 -11.2 4.75 -11.3 4.8 -11.35 5.0 -11.4 5.0 -11.45 5.15 -11.4 5.35 -11.35" fill="#908282" fill-opacity="0.5019608" fill-rule="evenodd" stroke="none"/>
    <path d="M5.35 -11.2 L5.35 -11.15 5.45 -11.05 5.4 -10.95 5.4 -10.85 5.35 -10.75 5.35 -10.65 5.3 -10.55 5.25 -10.5 4.3 -10.5 3.95 -10.7 3.75 -10.9 3.75 -10.95 3.75 -11.05 3.75 -11.15 3.7 -11.2 3.9 -11.5 3.95 -11.65 4.45 -11.55 5.3 -11.3 5.35 -11.2 M4.25 -10.9 L5.0 -10.9 4.75 -11.05 4.5 -11.1 4.05 -11.2 4.1 -11.05 4.25 -10.9 M9.8 -2.4 L9.95 -2.0 9.95 -1.9 9.95 -1.8 9.9 -1.75 9.85 -1.65 9.65 -1.6 9.3 -1.7 9.25 -1.8 9.25 -2.0 9.25 -2.2 9.25 -2.3 9.2 -2.4 9.2 -2.45 9.2 -2.55 9.25 -2.65 9.4 -2.7 9.55 -2.65 9.8 -2.4 M-7.6 -8.15 L-7.4 -8.05 -7.25 -7.85 -7.35 -7.7 -7.4 -7.6 -7.4 -7.5 -7.5 -7.3 -7.65 -7.05 -7.75 -6.95 -8.25 -6.95 -8.4 -7.0 -8.5 -7.1 -8.45 -7.2 -8.45 -7.3 -8.45 -7.4 -8.45 -7.45 -8.35 -7.65 -8.3 -7.75 -8.25 -7.85 -7.9 -8.05 -7.6 -8.15" fill="#333333" fill-rule="evenodd" stroke="none"/>
  </g>
</svg>
