<?xml version="1.0" encoding="UTF-8" standalone="no"?>
<svg xmlns:xlink="http://www.w3.org/1999/xlink" height="12.65px" width="12.75px" xmlns="http://www.w3.org/2000/svg">
  <g transform="matrix(1.0, 0.0, 0.0, 1.0, 6.85, 6.9)">
    <path d="M5.35 1.9 Q4.5 3.7 2.95 4.75 1.4 5.75 -0.5 5.75 -1.75 5.8 -3.0 5.25 -4.7 4.5 -5.85 2.95 -6.95 1.35 -6.85 -0.6 -6.75 -2.45 -5.85 -4.05 -4.85 -5.65 -2.95 -6.4 L0.7 -6.75 Q2.55 -6.45 3.95 -5.05 5.3 -3.7 5.7 -1.85 6.25 -0.05 5.35 1.9" fill="#ffffff" fill-opacity="0.0" fill-rule="evenodd" stroke="none"/>
    <path d="M2.95 4.75 L-1.05 5.05 Q-3.15 4.9 -4.25 3.6 -5.4 2.35 -5.95 0.25 -6.5 -1.85 -5.3 -3.2 -4.15 -4.55 -2.4 -5.6 -0.7 -6.65 1.0 -6.3 2.7 -5.95 4.0 -4.3 5.3 -2.65 5.3 -0.8 L5.0 2.1 Q4.65 3.1 2.95 4.75 Z" fill="none" stroke="#ffffff" stroke-linecap="round" stroke-linejoin="round" stroke-width="1.0"/>
  </g>
</svg>
