<?xml version="1.0" encoding="UTF-8" standalone="no"?>
<svg xmlns:xlink="http://www.w3.org/1999/xlink" height="42.05px" width="38.6px" xmlns="http://www.w3.org/2000/svg">
  <g transform="matrix(1.0, 0.0, 0.0, 1.0, 18.9, 20.4)">
    <path d="M-14.9 -7.35 L-14.8 -7.25 -14.75 -7.15 -14.7 -7.05 -14.65 -7.0 -14.65 -6.9 -14.65 -6.8 -14.65 -6.7 -14.7 -6.6 -14.75 -6.5 -14.85 -6.4 -14.95 -6.3 -17.5 -6.6 -18.4 -6.8 -18.6 -7.0 -18.7 -7.05 -18.85 -7.25 -18.9 -7.45 -18.9 -7.55 -18.9 -7.65 -18.85 -7.75 -18.7 -7.9 -18.65 -8.0 -18.55 -8.05 -18.45 -8.1 -18.25 -8.1 -18.25 -8.15 -16.4 -7.9 -14.95 -7.45 -14.9 -7.35" fill="#ffffff" fill-rule="evenodd" stroke="none"/>
    <path d="M16.65 -9.45 L16.9 -9.2 16.9 -9.1 16.85 -8.9 16.75 -8.65 16.7 -8.55 16.6 -8.45 16.5 -8.35 16.45 -8.3 Q15.4 -8.05 14.5 -7.45 L14.0 -7.05 13.95 -7.0 13.75 -7.0 13.65 -7.0 13.35 -7.05 13.25 -7.05 13.2 -7.05 13.0 -7.0 12.7 -7.05 12.55 -7.15 12.45 -7.25 12.35 -7.35 12.35 -7.45 12.35 -7.55 12.35 -7.65 12.35 -7.75 12.4 -7.8 12.5 -8.0 12.7 -8.2 12.85 -8.3 12.95 -8.4 13.0 -8.5 Q14.2 -9.05 15.5 -9.4 L16.05 -9.6 16.25 -9.6 16.25 -9.65 16.65 -9.45" fill="#ffffff" fill-rule="evenodd" stroke="none"/>
    <path d="M-15.25 10.25 L-15.05 10.2 -14.55 9.8 -14.05 9.55 -13.95 9.55 -13.75 9.5 -13.5 9.6 -13.25 9.75 -13.2 9.85 -13.15 9.95 -13.15 10.0 -13.1 10.1 -13.1 10.2 -13.2 10.4 -13.35 10.7 -14.65 11.55 -15.1 11.8 -15.15 11.9 -15.25 12.0 -15.4 12.2 -15.55 12.3 -15.8 12.45 -15.9 12.55 -16.1 12.65 -16.35 12.7 -16.65 12.65 -16.8 12.55 -16.9 12.45 -17.0 12.35 -17.05 12.2 -17.1 11.8 -17.05 11.6 -16.8 11.15 -16.25 10.6 -15.9 10.4 -15.25 10.25" fill="#ffffff" fill-rule="evenodd" stroke="none"/>
    <path d="M16.6 9.15 L16.85 9.05 17.2 8.95 17.5 8.9 18.65 9.25 Q19.15 9.35 19.5 9.7 L19.6 9.8 19.6 9.9 19.65 10.0 19.7 10.1 19.65 10.2 19.65 10.25 19.6 10.35 19.6 10.45 19.5 10.55 Q19.35 10.85 19.0 10.8 L17.95 10.6 17.8 10.5 17.65 10.4 17.55 10.35 17.5 10.25 17.45 10.25 17.25 10.15 17.1 10.1 17.0 10.0 16.9 9.9 16.85 9.8 16.7 9.7 16.6 9.6 16.55 9.5 16.55 9.45 16.55 9.35 16.6 9.25 16.6 9.15" fill="#ffffff" fill-rule="evenodd" stroke="none"/>
    <path d="M0.1 -20.25 L0.2 -20.15 0.25 -19.95 0.3 -19.8 0.3 -19.7 0.4 -19.6 0.45 -19.5 0.5 -18.9 0.4 -18.2 0.4 -18.0 0.35 -17.9 0.3 -17.8 0.25 -17.75 0.2 -17.65 0.05 -17.55 -0.05 -17.5 -0.25 -17.45 -0.55 -17.5 -0.7 -17.6 -0.8 -17.7 -0.85 -17.8 -0.9 -17.9 -0.9 -18.0 -0.9 -18.8 -0.8 -19.95 -0.8 -20.05 -0.75 -20.1 -0.65 -20.25 -0.55 -20.3 -0.45 -20.35 -0.25 -20.4 0.0 -20.35 0.1 -20.25" fill="#ffffff" fill-rule="evenodd" stroke="none"/>
    <path d="M0.55 19.2 L0.6 19.4 0.65 19.6 0.7 19.85 0.7 19.95 0.75 20.05 0.75 20.15 0.75 20.35 0.75 20.45 0.75 20.6 0.75 20.7 0.7 20.9 0.6 21.1 0.45 21.35 0.2 21.55 0.1 21.6 -0.1 21.65 -0.4 21.6 -0.55 21.5 -0.65 21.4 -0.7 21.3 -0.75 21.2 -0.75 21.1 -0.75 20.95 -0.75 20.75 -0.75 20.45 -0.75 20.35 -0.75 20.3 -0.8 20.2 -0.85 20.1 -0.9 20.0 -0.9 19.7 -0.9 19.45 -0.85 19.15 -0.8 19.05 -0.7 18.95 -0.6 18.85 -0.45 18.8 -0.25 18.8 -0.25 18.75 0.0 18.8 0.2 18.85 0.4 19.0 0.5 19.1 0.55 19.2" fill="#ffffff" fill-rule="evenodd" stroke="none"/>
  </g>
</svg>
