<?xml version="1.0" encoding="UTF-8" standalone="no"?>
<svg xmlns:xlink="http://www.w3.org/1999/xlink" height="140.55px" width="151.0px" xmlns="http://www.w3.org/2000/svg">
  <g transform="matrix(1.0, 0.0, 0.0, 1.0, 73.6, 76.75)">
    <path d="M26.15 -49.85 L26.9 -50.25 28.0 -50.95 29.55 -52.15 30.2 -52.75 Q31.0 -53.7 32.2 -53.2 33.05 -52.55 32.8 -51.55 L32.5 -50.5 Q31.65 -46.85 31.25 -43.35 L30.7 -39.65 30.1 -36.4 29.35 -31.4 30.8 -31.3 34.9 -31.95 44.85 -32.5 Q47.25 -32.35 49.7 -32.55 57.3 -32.8 64.65 -34.55 65.75 -34.9 66.45 -34.0 L66.3 -32.8 61.8 -29.5 61.25 -28.8 59.7 -27.3 58.6 -26.2 58.15 -25.55 57.25 -24.2 Q52.6 -18.8 48.8 -13.1 L48.35 -12.5 47.6 -11.75 45.8 -9.3 40.9 -2.35 Q42.75 -2.25 43.9 -0.9 44.8 0.2 46.2 0.65 47.75 1.15 48.4 2.55 L49.3 3.25 50.85 3.75 Q51.5 3.9 51.85 4.6 52.1 5.25 52.7 5.55 53.8 6.05 54.7 7.05 L55.75 8.6 60.25 11.05 61.35 11.8 62.55 13.1 Q63.45 14.55 64.65 15.8 L65.25 16.1 65.9 16.8 Q68.75 17.75 71.65 18.3 72.7 18.25 73.6 18.85 L76.05 20.0 Q76.6 20.25 76.95 20.65 77.75 21.35 77.2 22.35 L76.45 22.7 75.6 22.55 70.6 22.5 63.5 21.8 58.85 21.45 Q55.85 21.05 53.25 21.35 L47.7 21.2 42.05 21.45 Q37.95 21.9 33.6 21.55 L31.35 21.5 27.8 21.65 28.2 24.1 28.05 25.0 Q27.5 26.0 27.45 27.3 L27.4 29.05 27.5 30.7 Q27.65 31.95 27.3 33.2 L26.6 35.65 Q26.15 37.25 26.35 38.75 26.5 39.85 27.05 40.85 28.45 43.5 29.05 46.25 29.9 49.9 29.9 53.75 L30.5 54.0 30.7 55.55 30.35 55.75 28.2 55.9 24.95 52.65 22.85 50.8 Q21.85 50.05 21.3 49.0 20.4 47.35 18.55 46.55 16.85 45.85 15.45 44.4 13.95 42.7 11.8 41.95 10.25 41.45 9.4 40.3 7.55 37.85 4.9 36.2 L4.45 34.9 Q3.9 35.05 3.5 35.55 2.8 36.5 2.4 37.35 L1.95 38.05 Q1.1 39.1 0.35 40.3 -4.05 46.95 -9.5 52.9 L-10.4 54.15 Q-11.05 55.35 -12.05 56.3 L-13.85 58.2 Q-15.9 60.25 -17.45 62.7 -18.45 64.3 -20.0 63.55 L-21.45 57.5 -20.95 56.25 -21.7 50.75 -21.6 49.65 Q-21.15 48.8 -21.35 47.9 -21.55 46.9 -21.3 46.05 -21.15 45.4 -21.3 44.65 L-22.5 39.05 -21.4 36.25 -22.3 33.45 -23.5 33.9 Q-32.85 37.7 -42.15 41.8 L-44.55 42.4 -45.3 42.45 -45.9 41.45 Q-44.75 38.9 -43.2 36.85 L-42.75 36.4 Q-42.1 36.0 -42.0 35.15 -41.7 32.65 -40.05 30.85 L-39.15 28.55 Q-37.95 27.65 -37.35 26.25 L-37.1 25.65 Q-35.7 20.8 -32.65 16.6 -35.4 15.9 -38.1 14.3 -38.85 13.85 -38.95 12.95 L-39.1 12.8 -40.8 12.45 -43.05 11.45 Q-46.5 10.15 -49.85 9.15 L-53.75 8.0 Q-55.15 7.85 -56.35 7.25 -58.95 6.1 -61.8 5.1 -62.85 4.75 -63.7 4.05 -64.8 3.0 -66.1 2.1 L-66.6 1.75 Q-68.2 0.3 -69.85 -0.8 L-72.3 -1.5 -73.15 -1.45 -73.6 -2.2 -73.3 -2.55 Q-67.2 -4.2 -60.95 -6.4 -58.7 -7.05 -56.6 -8.1 L-55.85 -8.45 -51.8 -10.1 -37.95 -14.95 -38.95 -16.7 Q-39.8 -18.55 -40.25 -20.45 L-42.05 -22.7 -42.6 -23.05 -42.8 -23.25 -43.35 -24.0 -44.1 -24.9 -44.35 -25.3 -44.75 -26.35 -47.55 -29.45 -48.8 -30.0 -47.9 -31.2 -47.5 -31.2 -46.95 -30.9 Q-34.7 -28.75 -22.25 -27.95 -21.45 -33.0 -20.95 -38.15 L-20.8 -40.2 -20.8 -44.8 -19.9 -45.65 -19.7 -48.25 Q-19.65 -52.45 -21.0 -56.55 -20.0 -58.55 -19.65 -60.8 -19.4 -62.15 -19.55 -63.6 L-19.95 -66.9 Q-20.1 -68.2 -19.6 -69.45 -19.05 -70.75 -18.85 -72.0 L-18.7 -73.6 -18.85 -74.3 Q-19.45 -75.8 -18.85 -76.75 L-17.8 -76.7 Q-16.5 -74.5 -14.8 -72.4 L-12.05 -68.65 -9.55 -65.4 Q-7.6 -63.1 -6.45 -60.0 L-6.15 -59.4 -4.15 -55.8 -2.85 -52.75 -1.55 -49.9 -0.15 -47.3 Q0.95 -45.3 2.65 -43.45 3.5 -42.55 3.7 -41.45 3.8 -40.95 4.15 -40.4 L5.45 -38.65 5.7 -38.25 7.35 -35.05 26.15 -49.85" fill="#ffffff" fill-rule="evenodd" stroke="none"/>
  </g>
</svg>
