<?xml version="1.0" encoding="UTF-8" standalone="no"?>
<svg xmlns:xlink="http://www.w3.org/1999/xlink" height="119.95px" width="161.45px" xmlns="http://www.w3.org/2000/svg">
  <g transform="matrix(1.0, 0.0, 0.0, 1.0, 72.8, 64.65)">
    <path d="M-14.95 -54.35 L-15.1 -54.15 -15.2 -53.75 -15.1 -53.3 -14.95 -53.15 -14.75 -53.3 -14.7 -53.75 -14.75 -54.15 -14.95 -54.35 M6.2 31.95 L8.35 32.7 6.8 30.8 6.2 31.95 M21.45 -49.8 Q23.3 -51.2 25.3 -52.4 L27.25 -54.05 30.0 -55.7 Q31.4 -56.5 32.35 -57.6 33.5 -58.9 35.15 -59.7 L37.55 -61.1 38.75 -60.8 Q39.2 -60.25 39.05 -59.55 L37.75 -52.8 37.55 -52.3 36.8 -50.45 Q36.35 -48.75 36.35 -47.1 36.3 -45.35 35.3 -43.85 L35.05 -42.4 35.15 -42.0 35.25 -41.3 35.15 -40.45 34.55 -37.95 33.95 -35.7 Q33.55 -33.3 32.25 -31.5 L33.65 -32.0 Q34.5 -32.4 35.25 -32.0 L40.15 -32.7 47.1 -32.9 50.3 -33.6 55.7 -34.05 63.0 -34.85 Q63.45 -34.55 63.6 -33.85 L63.5 -33.25 61.9 -31.1 54.5 -22.85 52.95 -20.8 50.7 -18.1 Q50.0 -17.4 49.7 -16.45 49.5 -15.7 49.1 -15.5 48.3 -15.05 47.95 -14.4 L47.2 -13.3 45.9 -11.75 44.5 -9.7 Q42.45 -5.75 39.7 -2.7 L40.65 -2.5 40.2 -2.2 40.7 -0.95 43.25 1.3 44.2 1.5 47.45 3.9 48.1 3.5 49.0 3.65 Q51.55 6.2 54.9 7.4 L56.25 8.25 Q57.8 9.6 59.8 9.65 61.15 9.65 62.25 10.45 62.85 10.8 63.0 11.4 L68.85 14.4 Q71.2 15.6 73.75 16.35 L74.05 16.75 74.8 17.0 Q75.35 17.6 76.1 18.0 L78.65 19.2 80.0 19.85 Q82.5 21.0 83.9 23.3 L84.65 23.45 85.35 23.75 Q85.95 24.2 87.0 24.35 88.1 24.35 88.65 25.25 L88.25 26.65 Q87.35 27.15 86.1 27.15 L83.65 26.7 78.6 26.2 Q76.0 25.85 73.7 25.0 L72.25 24.45 64.55 23.85 62.65 23.4 57.45 23.85 55.4 23.8 Q53.9 23.25 52.15 23.45 L46.5 23.7 43.85 24.15 37.55 24.4 33.3 24.05 30.4 23.15 27.9 22.35 27.95 24.6 Q27.8 25.95 28.0 27.35 L28.0 28.9 27.25 32.35 Q27.4 33.45 27.15 34.7 L27.15 35.1 27.95 39.95 28.2 41.55 Q29.15 47.7 31.1 53.8 L30.9 54.5 30.1 55.1 28.95 54.8 28.65 53.95 27.55 52.7 26.2 51.85 Q23.8 51.15 22.25 49.7 L20.95 49.1 20.7 48.75 17.75 46.55 17.65 46.1 3.2 35.05 -6.2 42.8 -7.05 45.1 -8.1 46.9 -10.95 51.4 -11.5 51.75 -13.55 54.05 Q-14.85 55.6 -16.6 55.2 L-17.15 54.25 Q-16.45 52.45 -17.0 50.75 L-18.25 45.4 -18.45 44.3 -19.95 37.8 -20.5 34.55 Q-23.75 36.1 -26.95 38.1 -33.1 42.05 -39.95 45.35 L-42.75 46.85 Q-46.4 49.0 -50.6 49.55 L-51.5 50.35 -52.65 50.0 -52.85 49.2 Q-52.95 48.55 -52.65 48.05 -51.35 46.1 -49.65 44.3 L-47.9 40.55 Q-46.75 38.35 -45.1 36.45 -44.65 34.5 -43.3 33.05 -42.65 32.4 -42.5 31.75 L-41.95 30.4 Q-40.9 28.85 -40.45 26.95 -38.05 23.9 -37.1 20.1 -36.4 17.15 -34.75 14.95 -37.45 13.55 -39.65 11.45 L-40.5 10.8 Q-43.35 9.25 -46.4 8.45 L-47.0 8.15 Q-48.8 8.1 -50.15 6.85 L-51.2 6.45 Q-51.8 6.05 -52.55 5.85 L-57.7 5.45 -59.2 4.9 Q-62.2 4.3 -64.55 2.35 -65.4 1.65 -66.35 1.4 -67.85 0.85 -69.05 -0.3 -70.35 -0.5 -71.2 -1.2 L-72.35 -1.95 Q-72.8 -2.3 -72.8 -2.75 L-72.45 -3.1 -71.4 -3.6 -65.05 -5.1 Q-62.2 -5.95 -59.3 -7.25 -56.1 -8.6 -52.75 -9.5 -51.95 -9.75 -51.35 -10.45 L-50.9 -10.8 Q-48.5 -11.9 -46.4 -13.1 L-45.75 -13.4 -41.65 -15.05 -42.6 -16.6 -43.75 -18.4 -44.15 -18.95 Q-46.3 -20.3 -47.9 -22.15 L-48.7 -23.5 Q-49.0 -24.5 -49.7 -25.15 -51.0 -26.35 -51.7 -28.0 L-52.1 -28.35 -52.8 -29.75 -53.55 -31.85 -58.15 -37.05 -57.5 -37.45 -56.5 -37.45 -56.2 -37.15 -54.7 -36.75 -53.5 -36.8 -52.7 -36.6 -49.55 -35.9 -47.7 -35.35 -44.85 -34.35 Q-43.4 -33.7 -42.0 -33.4 L-33.55 -32.55 -30.75 -32.65 -28.45 -32.3 Q-23.8 -31.6 -19.45 -29.95 -18.85 -32.2 -18.85 -34.55 L-18.55 -37.8 -18.4 -38.45 Q-17.05 -42.6 -17.25 -46.85 L-16.5 -47.7 Q-17.5 -50.55 -17.1 -53.55 L-16.15 -58.35 -16.5 -59.85 -16.4 -61.3 Q-16.15 -63.1 -15.05 -64.5 L-14.2 -64.65 -13.35 -64.4 -12.75 -63.9 -12.35 -62.35 Q-9.95 -60.15 -8.65 -57.1 L-8.45 -56.5 Q-8.05 -55.05 -7.15 -54.25 -5.7 -52.95 -4.95 -51.0 L-3.75 -49.7 -3.05 -48.3 Q-2.5 -46.95 -1.5 -45.95 -0.6 -44.95 0.0 -43.6 L1.0 -41.8 3.35 -40.7 4.65 -39.8 7.7 -37.65 10.7 -40.05 10.95 -40.8 Q12.6 -41.75 13.9 -43.2 L14.95 -44.4 Q16.5 -45.5 17.85 -47.05 L18.95 -48.05 21.45 -49.8" fill="#ffffff" fill-rule="evenodd" stroke="none"/>
  </g>
</svg>
