<?xml version="1.0" encoding="UTF-8" standalone="no"?>
<svg xmlns:xlink="http://www.w3.org/1999/xlink" height="143.0px" width="145.2px" xmlns="http://www.w3.org/2000/svg">
  <g transform="matrix(1.0, 0.0, 0.0, 1.0, 66.85, 78.75)">
    <path d="M6.45 37.75 L6.2 37.6 5.95 37.5 Q6.25 38.55 7.2 38.9 L7.1 38.25 6.45 37.75 M24.95 -50.8 Q27.25 -52.6 28.9 -54.95 L30.4 -57.0 32.2 -58.65 36.85 -61.75 39.05 -61.85 39.05 -60.8 38.55 -60.5 38.45 -60.05 38.3 -59.55 37.75 -58.2 36.75 -55.25 35.9 -52.25 35.8 -51.15 Q35.6 -48.1 34.95 -45.1 L34.65 -43.45 Q33.95 -36.45 32.25 -29.4 L37.6 -29.7 46.55 -30.35 51.45 -30.2 55.15 -30.1 Q56.95 -30.35 57.6 -29.1 57.55 -28.35 56.9 -27.95 53.05 -25.15 50.1 -21.4 L47.55 -17.85 41.4 -8.95 40.55 -7.6 37.4 -2.3 39.2 -1.4 40.4 -0.95 Q41.55 -0.25 42.05 0.85 43.35 1.4 44.25 2.4 L45.4 3.55 47.45 4.7 Q49.9 4.8 51.65 6.7 53.45 8.55 55.6 9.9 56.6 9.85 57.55 10.3 58.85 11.0 60.25 11.5 61.2 11.8 61.95 12.5 L63.5 13.8 Q65.6 15.4 68.0 16.35 69.5 16.85 70.7 18.0 72.45 17.85 73.75 19.0 75.05 20.05 76.65 20.6 77.75 21.1 78.35 22.05 L78.0 23.1 Q77.05 23.65 75.95 23.45 L73.3 23.15 Q72.75 23.0 72.0 23.15 L70.1 23.2 66.4 22.55 60.45 22.0 53.35 21.65 51.2 21.7 46.25 21.55 39.5 22.5 36.15 22.35 33.95 22.1 29.0 22.55 Q29.2 24.9 29.8 27.0 L29.75 28.15 Q29.35 29.35 29.7 30.5 30.2 32.05 30.35 33.7 L30.55 34.8 31.9 39.25 32.05 40.4 32.05 41.1 32.3 42.4 Q33.0 45.05 34.0 47.4 34.45 48.5 34.05 49.7 L34.55 53.25 34.25 53.75 34.65 55.25 Q34.35 56.25 34.65 57.15 35.45 59.2 35.35 61.3 35.3 62.85 34.8 64.2 L33.45 64.25 32.85 63.25 31.5 62.2 30.95 61.5 Q29.4 59.6 27.4 58.25 L26.3 57.0 25.25 56.0 Q22.7 54.75 20.45 52.7 19.0 51.45 17.9 50.05 16.8 48.6 15.25 47.85 13.65 47.1 12.3 46.0 L11.65 45.6 Q10.4 44.95 9.55 44.0 8.0 42.3 6.2 41.05 L5.35 40.45 Q4.35 40.05 3.55 38.95 L2.65 37.9 0.1 34.85 -0.75 34.6 -3.0 37.1 -3.55 37.35 -3.8 37.85 -9.1 42.3 Q-11.9 45.0 -14.15 47.75 L-14.95 47.55 -15.25 47.2 Q-16.05 45.55 -15.1 43.95 L-17.4 32.7 Q-19.15 33.8 -21.05 34.7 L-24.85 36.65 -33.0 40.95 -35.3 42.35 Q-39.25 44.8 -44.05 46.65 -47.3 47.85 -49.95 49.85 -51.6 51.15 -53.3 50.6 -53.9 49.45 -53.5 48.5 L-53.1 47.9 Q-50.95 45.6 -49.5 43.0 L-48.65 41.6 Q-47.25 39.75 -46.95 37.65 L-41.95 30.75 Q-39.75 27.5 -38.65 23.5 L-38.4 22.45 -38.05 20.65 Q-37.1 16.55 -34.3 13.4 L-34.75 13.3 -35.55 12.95 Q-36.55 12.65 -37.45 11.85 -39.25 10.25 -41.6 10.0 -43.0 8.75 -44.65 7.65 L-46.15 6.55 Q-49.0 4.2 -52.65 3.9 L-53.3 3.15 -53.6 3.0 -54.7 2.6 Q-56.35 2.35 -57.55 1.45 L-58.95 0.6 -59.95 0.05 -63.15 -2.4 -64.35 -2.35 -63.95 -4.05 -63.2 -3.85 -54.55 -7.15 Q-51.45 -8.5 -48.05 -9.55 -44.95 -10.4 -44.8 -11.4 -45.8 -12.05 -46.0 -13.2 L-46.5 -14.65 -47.6 -16.65 Q-48.65 -18.7 -50.2 -20.55 L-50.55 -20.8 -53.65 -23.05 Q-55.7 -24.3 -57.2 -26.5 L-58.4 -27.75 Q-59.8 -28.95 -60.0 -30.75 L-61.9 -32.55 Q-62.2 -33.9 -63.1 -34.9 L-64.65 -36.9 -65.9 -38.35 Q-67.0 -39.3 -66.8 -40.65 L-66.4 -41.2 -65.1 -41.55 Q-63.8 -40.3 -62.0 -40.1 -60.9 -40.15 -60.2 -39.55 -59.5 -38.9 -58.7 -38.65 L-55.05 -38.1 -54.6 -38.1 Q-53.4 -38.25 -52.25 -37.6 L-51.75 -37.65 -47.3 -37.8 -42.95 -36.7 Q-39.5 -35.65 -36.0 -35.65 L-24.55 -32.3 -22.85 -32.25 Q-21.65 -34.8 -21.75 -37.7 L-21.95 -39.7 -22.2 -40.85 -22.45 -42.35 Q-22.6 -45.45 -22.25 -48.6 L-22.2 -49.55 -22.3 -54.05 -22.35 -57.3 Q-22.35 -59.15 -21.55 -60.65 -21.55 -62.1 -20.95 -63.65 L-20.75 -64.55 -20.85 -66.55 Q-20.95 -67.8 -20.45 -69.0 L-20.15 -70.65 -20.1 -78.2 -19.55 -78.75 -18.65 -78.3 Q-18.1 -75.85 -16.8 -73.75 L-15.3 -71.35 -14.9 -70.85 -11.25 -67.9 Q-10.8 -66.1 -9.45 -64.95 L-8.1 -63.45 Q-7.2 -62.2 -6.8 -60.8 -6.45 -59.45 -5.75 -58.2 -4.85 -56.45 -3.4 -54.9 L-2.55 -53.7 -1.8 -52.6 Q-0.65 -51.25 0.2 -49.6 L0.9 -48.45 Q1.45 -47.4 2.45 -46.4 L3.35 -44.95 4.6 -42.3 4.9 -41.8 5.85 -39.9 7.85 -38.15 9.75 -39.6 10.65 -40.3 13.15 -42.1 Q18.1 -44.85 22.5 -48.65 L24.95 -50.8" fill="#ffffff" fill-rule="evenodd" stroke="none"/>
  </g>
</svg>
