<?xml version="1.0" encoding="UTF-8" standalone="no"?>
<svg xmlns:xlink="http://www.w3.org/1999/xlink" height="26.15px" width="34.5px" xmlns="http://www.w3.org/2000/svg">
  <g transform="matrix(1.0, 0.0, 0.0, 1.0, 17.25, 13.05)">
    <path d="M6.45 -0.1 L5.4 -0.1 3.8 -0.75 3.55 -0.7 3.3 -0.35 3.3 0.35 3.15 1.75 2.5 3.65 4.35 4.1 5.7 4.6 6.2 4.6 7.15 3.9 7.75 3.45 7.85 3.15 7.95 2.15 8.2 1.7 8.5 1.35 7.8 0.75 6.45 -0.1 M12.8 -8.6 L13.1 -7.85 13.15 -7.55 13.05 -6.85 12.15 -5.25 13.7 -4.8 13.75 -4.75 14.35 -4.3 14.85 -3.9 Q15.35 -3.45 16.05 -1.15 16.45 0.35 17.0 0.95 L16.85 0.95 15.7 2.7 15.7 3.0 15.7 5.15 Q15.8 6.05 14.9 6.5 L14.0 6.95 13.3 7.35 Q13.2 9.05 11.6 9.55 L10.7 9.5 Q9.15 9.4 7.8 9.95 L6.8 10.75 6.2 11.1 5.85 11.45 Q5.35 12.2 4.4 12.25 L1.25 11.9 Q0.55 11.65 0.05 11.15 L-0.95 10.25 Q-1.7 10.55 -2.15 11.25 -2.7 12.05 -3.75 12.3 L-6.05 11.4 Q-6.55 11.6 -7.05 11.4 L-8.35 11.05 -8.7 10.6 Q-9.8 10.4 -10.75 9.7 L-11.65 8.7 -11.65 8.3 -11.7 8.0 -11.8 7.9 -13.15 7.5 -14.0 6.9 -14.55 6.3 -14.55 3.75 -14.4 3.05 Q-14.1 2.35 -14.15 1.75 -15.4 3.35 -16.15 2.45 -16.95 1.55 -16.95 0.55 -17.0 -0.45 -16.65 -1.1 L-16.45 -1.4 -15.95 -2.05 -14.1 -4.0 -12.3 -5.4 Q-11.35 -6.0 -10.95 -6.85 L-10.95 -7.15 -10.9 -7.9 -10.8 -8.2 -10.35 -8.85 -6.6 -9.5 -5.2 -10.05 -5.15 -10.75 -5.05 -11.1 -4.6 -11.7 Q-2.95 -12.4 -1.6 -11.4 L-0.8 -11.35 Q-0.3 -11.35 -0.15 -9.9 1.65 -11.45 3.05 -11.55 L5.6 -11.7 5.9 -11.3 6.25 -10.6 6.3 -10.3 6.35 -9.8 9.3 -9.4 11.55 -9.0 12.8 -8.6" fill="#aea551" fill-rule="evenodd" stroke="none"/>
    <path d="M10.2 -4.3 Q10.5 -5.25 11.55 -5.35 L13.0 -5.25 16.5 -2.05 Q16.85 -0.35 16.45 1.3 L16.05 2.3 Q16.55 4.2 15.6 5.75 L15.15 6.1 13.75 6.6 Q13.2 8.6 11.5 9.0 L9.9 9.25 9.65 9.6 8.95 9.9 8.45 9.9 Q6.95 11.35 4.55 10.8 3.1 11.2 1.7 11.95 L0.6 12.15 -6.7 11.65 Q-9.5 11.75 -11.3 9.9 -12.55 8.7 -13.95 7.7 -14.9 5.05 -13.25 3.3 L-12.75 3.0 -12.05 3.25 -10.6 5.3 -9.65 5.55 -9.1 6.25 -8.75 7.6 Q-6.55 6.65 -4.0 6.2 -2.85 6.0 -1.95 6.75 -0.8 4.5 1.5 3.95 L5.15 4.25 Q6.0 2.6 7.8 1.55 L8.55 1.15 8.35 0.75 Q6.85 0.45 5.85 -0.65 L5.4 -1.25 5.35 -1.55 Q7.0 -3.5 10.15 -3.3 L10.2 -4.3" fill="#663333" fill-opacity="0.2" fill-rule="evenodd" stroke="none"/>
    <path d="M6.25 -4.7 L7.65 -3.3 8.45 -3.45 8.95 -4.05 Q12.35 -2.75 12.85 0.6 13.4 3.95 12.55 4.45 11.6 4.9 11.4 5.85 11.15 6.8 10.55 7.35 L9.8 7.7 8.95 7.5 7.9 7.8 Q5.25 10.3 1.5 10.3 L-1.25 10.6 -2.35 10.1 Q-5.5 10.8 -7.4 8.3 L-8.05 7.3 -8.05 7.25 -8.2 7.55 -8.9 8.55 -9.55 8.3 -9.8 7.95 -10.05 4.7 -9.65 3.95 -6.5 3.5 Q-6.65 1.0 -4.7 0.15 L-4.05 0.55 -4.0 1.05 Q-3.95 -1.15 -2.6 -3.1 L-2.2 -3.2 -1.75 -3.15 -1.05 -2.85 Q-0.3 -2.8 0.75 -3.8 2.65 -5.6 4.05 -3.6 4.65 -4.4 5.6 -4.6 L6.25 -4.7 M4.3 3.65 L5.0 4.6 5.95 4.6 Q8.4 3.25 8.35 0.6 7.1 -0.5 5.5 -0.6 L4.85 0.75 1.95 1.1 2.1 2.2 Q2.75 3.65 4.3 3.65" fill="#663333" fill-opacity="0.2" fill-rule="evenodd" stroke="none"/>
    <path d="M6.0 -11.15 Q6.75 -9.5 5.3 -8.3 L5.05 -8.1 4.05 -8.05 3.95 -8.25 3.75 -8.5 3.4 -8.7 3.25 -9.4 3.3 -9.85 5.1 -11.4 6.0 -11.15" fill="#663333" fill-opacity="0.2" fill-rule="evenodd" stroke="none"/>
    <path d="M4.5 -11.1 Q1.35 -9.1 -2.7 -8.1 L-2.85 -7.05 Q-6.2 -8.25 -7.85 -6.7 L-11.25 -6.5 Q-11.85 -6.7 -12.05 -7.4 L-12.0 -8.45 -11.55 -9.1 -5.1 -9.95 -5.05 -11.7 -4.1 -12.45 -3.55 -12.2 -2.85 -10.5 4.3 -11.5 4.5 -11.1" fill="#ffffff" fill-opacity="0.2" fill-rule="evenodd" stroke="none"/>
    <path d="M-8.25 -5.0 Q-12.6 -3.6 -13.5 -0.9 L-11.55 -0.6 -12.4 2.1 Q-11.05 0.9 -11.5 3.75 -12.0 6.5 -10.05 3.4 L-11.55 5.55 -12.3 5.8 -13.15 5.55 -13.7 4.85 -13.75 2.7 -14.7 2.7 -15.4 2.45 -15.9 1.7 Q-16.3 -4.25 -10.65 -5.4 L-9.8 -5.5 -9.55 -5.1 -8.25 -5.0" fill="#ffffff" fill-opacity="0.2" fill-rule="evenodd" stroke="none"/>
    <path d="M-6.9 -8.7 L-7.05 -8.65 -7.8 -8.65 -8.05 -8.55 -9.1 -8.2 -9.6 -7.95 -9.7 -7.95 -9.8 -7.95 Q-9.95 -7.9 -10.2 -7.8 L-10.3 -7.7 -10.4 -7.6 -10.7 -7.45 -10.75 -7.35 -10.8 -7.25 -10.85 -7.15 -11.0 -7.1 -11.15 -7.15 -11.15 -7.25 -11.2 -7.35 -11.2 -7.45 -11.25 -7.5 -11.25 -7.6 -11.2 -7.7 -11.15 -7.8 -11.0 -7.9 -10.9 -7.95 -10.8 -8.05 -10.65 -8.2 -10.45 -8.3 -9.95 -8.5 -9.65 -8.65 -9.55 -8.75 -9.4 -8.85 -8.05 -9.25 -7.1 -9.35 -6.95 -9.4 -6.8 -9.45 -5.35 -9.5 -3.8 -9.5 -3.6 -9.4 -3.5 -9.35 -3.45 -9.35 -3.1 -9.2 -2.9 -9.15 -2.85 -9.05 -2.85 -8.95 -2.9 -8.9 -2.95 -8.85 -3.1 -8.75 -3.15 -8.7 -3.3 -8.65 -3.45 -8.65 -3.8 -8.65 -3.95 -8.7 -4.05 -8.7 -6.8 -8.75 -6.9 -8.7" fill="#ffffff" fill-opacity="0.2" fill-rule="evenodd" stroke="none"/>
    <path d="M-11.35 -4.8 L-11.55 -4.7 -11.7 -4.65 -11.8 -4.55 -12.65 -4.0 -13.25 -3.55 -13.5 -3.35 -13.95 -2.95 -14.2 -2.55 -14.35 -2.25 -14.6 -2.05 -14.65 -1.95 -14.75 -1.8 -14.8 -1.6 -14.9 -1.5 -14.9 -1.4 -14.9 -1.3 -14.95 -1.2 -15.0 -1.1 -15.05 -1.05 -15.05 -0.95 -15.15 -0.8 -15.15 -0.6 -15.2 -0.5 -15.15 -0.4 -15.15 -0.35 -15.2 -0.25 -15.25 -0.15 -15.3 -0.05 -15.3 0.05 -15.3 0.15 -15.3 0.25 -15.3 0.35 -15.3 0.45 -15.25 0.55 -15.2 0.65 -15.15 0.75 -15.1 0.85 -14.95 1.05 -14.8 1.2 -14.75 1.3 -14.65 1.4 -14.65 1.5 -14.6 1.55 -14.6 1.75 -14.65 1.9 -14.65 2.0 -14.65 2.1 -14.65 2.2 -14.75 2.3 -14.8 2.4 -14.9 2.45 -14.95 2.45 -15.1 2.5 -15.3 2.45 -15.45 2.35 -15.5 2.25 -15.5 2.15 -15.5 2.05 -15.5 2.0 -15.55 1.9 -15.6 1.8 -15.7 1.6 -15.75 1.55 -15.75 1.45 -15.8 1.35 -15.85 1.3 -15.9 1.2 -15.95 1.1 -15.95 1.0 -16.0 0.9 -16.1 0.8 -16.15 0.7 -16.15 0.45 -16.15 0.3 -16.15 0.1 -16.15 -0.1 -16.1 -0.25 -16.1 -0.35 -16.0 -0.45 -16.0 -0.55 -15.95 -0.75 -15.9 -0.85 -15.9 -0.95 -15.85 -1.05 -15.85 -1.15 -15.75 -1.25 -15.75 -1.35 -15.7 -1.45 -15.7 -1.55 -15.65 -1.6 -15.65 -1.7 -15.25 -2.4 -14.8 -2.95 -14.3 -3.6 -14.05 -3.85 -13.5 -4.25 -13.1 -4.45 -13.0 -4.55 Q-12.55 -4.7 -12.15 -5.0 L-11.7 -5.2 -11.5 -5.25 -11.35 -5.2 -11.3 -5.1 -11.25 -5.0 -11.3 -4.9 -11.35 -4.8" fill="#ffffff" fill-opacity="0.2" fill-rule="evenodd" stroke="none"/>
    <path d="M10.8 -8.35 L10.8 -8.25 10.9 -8.15 10.95 -8.05 11.0 -7.85 10.95 -7.85 10.9 -7.75 10.8 -7.65 10.75 -7.6 10.65 -7.55 10.5 -7.5 10.3 -7.6 10.15 -7.7 10.1 -7.75 10.05 -7.75 9.85 -7.8 9.6 -7.85 8.1 -7.9 6.9 -7.9 6.8 -7.9 5.1 -7.65 3.6 -7.35 3.35 -7.35 3.25 -7.35 3.15 -7.3 2.95 -7.35 2.85 -7.45 2.85 -7.55 2.85 -7.65 2.85 -7.7 2.9 -7.85 3.1 -7.85 3.25 -7.95 4.55 -8.3 6.5 -8.55 6.6 -8.6 6.85 -8.65 8.1 -8.7 9.6 -8.7 9.8 -8.65 9.9 -8.6 10.25 -8.55 10.4 -8.5 10.5 -8.5 10.7 -8.45 10.8 -8.35" fill="#ffffff" fill-opacity="0.2" fill-rule="evenodd" stroke="none"/>
    <path d="M-12.0 -5.1 L-12.0 -5.3 -11.95 -5.4 -11.9 -5.55 -10.35 -7.15 -7.7 -8.75 -6.1 -9.25 -5.8 -9.35 -5.35 -9.3 -4.95 -9.2 -4.7 -9.05 -4.6 -8.9 -4.55 -8.7 -4.55 -8.6 -4.6 -8.4 -4.65 -8.25 Q-4.75 -8.15 -4.85 -8.15 L-5.05 -8.0 -5.35 -7.95 -5.75 -7.85 -6.25 -7.7 -6.25 -7.6 -5.8 -7.55 -5.55 -7.35 -5.45 -7.2 -5.4 -7.05 -5.3 -6.9 -5.3 -6.75 -5.3 -6.55 -5.3 -6.4 -5.35 -6.25 -5.4 -6.1 -5.45 -5.95 -5.55 -5.8 -5.75 -5.65 -6.05 -5.4 -6.15 -5.25 -6.3 -5.15 -6.5 -4.95 -6.8 -4.8 -7.25 -4.6 -7.45 -4.45 -7.6 -4.35 -7.25 -4.15 -7.0 -4.0 -6.8 -3.8 -6.75 -3.7 -6.7 -3.55 -6.65 -3.35 -6.65 -3.2 -6.65 -3.15 -6.5 -3.2 -6.25 -3.3 -5.8 -3.45 -5.4 -3.35 -5.25 -3.2 -5.1 -3.05 -5.05 -2.9 -5.0 -2.75 -5.0 -2.55 -5.0 -2.4 -5.05 -2.25 -5.1 -2.1 -5.15 -1.95 -5.3 -1.8 -5.55 -1.45 -5.85 -1.15 -6.25 -0.95 -6.7 -0.8 -7.25 -0.65 -8.2 -0.65 -8.7 -0.75 -8.95 -0.9 -9.1 -1.05 -9.2 -1.2 -9.25 -1.55 -9.3 -1.6 -11.35 -1.8 -11.65 -1.95 -12.0 -2.1 -12.15 -2.25 -12.35 -2.4 -12.5 -2.6 -12.6 -2.75 -12.6 -2.9 -12.6 -3.05 -12.6 -3.4 -12.6 -3.85 -12.55 -4.15 -12.45 -4.3 -12.35 -4.5 -12.3 -4.65 -12.05 -4.95 -12.0 -5.1" fill="#ffffff" fill-opacity="0.2" fill-rule="evenodd" stroke="none"/>
    <path d="M5.6 -1.2 L5.1 -1.2 Q4.9 -1.4 4.9 -0.85 L4.7 0.1 Q4.55 0.45 3.95 0.5 3.2 0.55 2.6 -0.1 L2.65 0.25 Q2.9 1.7 2.25 3.3 L2.45 3.25 3.15 3.4 Q4.55 3.95 5.55 4.95 5.65 4.25 6.4 3.95 L6.8 3.9 6.8 2.95 Q6.85 2.1 7.2 1.7 7.45 1.35 7.55 1.5 L7.8 1.45 8.15 1.1 7.25 0.95 6.15 -0.1 Q5.55 -1.0 5.6 -1.2 M4.3 -3.0 L4.3 -3.3 4.65 -3.25 Q5.0 -2.6 5.45 -2.1 6.15 -2.05 6.3 -2.9 6.75 -2.35 6.35 -1.45 6.85 -0.1 8.05 0.1 L8.9 0.15 Q9.55 0.35 9.6 0.7 L8.45 1.8 Q7.85 2.65 7.8 3.35 7.75 4.15 8.25 4.45 L8.25 4.55 8.25 4.85 7.8 5.2 7.15 4.75 6.45 4.55 6.15 5.05 6.0 5.5 5.95 6.35 5.75 6.7 5.5 6.45 4.6 5.2 3.3 4.25 2.05 3.95 1.4 4.85 -0.15 4.75 -0.65 3.0 Q-0.7 2.1 -0.55 2.4 L-0.15 3.55 Q0.2 4.4 1.3 3.55 2.05 2.75 1.9 1.7 L1.9 1.05 1.8 -0.8 1.6 -1.55 1.65 -1.65 Q1.65 -1.9 1.95 -1.55 L2.25 -1.15 2.45 -1.05 2.95 -0.6 Q3.3 -0.2 3.75 -0.6 4.2 -1.05 4.3 -3.0" fill="#333333" fill-rule="evenodd" stroke="none"/>
    <path d="M-3.95 -11.85 L-3.25 -10.65 -1.8 -9.75 -1.95 -9.1 Q-3.3 -9.3 -3.75 -9.85 L-4.85 -10.9 -4.95 -11.4 -4.9 -11.9 -4.8 -12.3 -4.7 -12.6 -4.15 -13.05 Q-0.6 -13.05 -0.1 -9.65 L-0.15 -9.5 -1.45 -10.9 Q-2.15 -11.9 -3.85 -11.85 L-3.95 -11.85" fill="#333333" fill-rule="evenodd" stroke="none"/>
    <path d="M-4.5 -9.8 L-3.2 -9.4 -3.05 -9.3 -3.35 -9.05 Q-7.1 -9.65 -10.3 -8.45 -11.2 -7.95 -10.8 -7.45 L-10.75 -7.35 -8.95 -6.7 -9.05 -6.35 Q-9.35 -6.15 -9.65 -6.05 L-10.15 -5.85 -10.4 -5.8 -10.7 -5.9 Q-11.25 -6.15 -11.65 -6.5 L-11.9 -6.9 Q-12.25 -7.75 -11.55 -8.65 -9.15 -10.65 -6.3 -10.05 L-5.5 -9.85 -4.5 -9.8" fill="#333333" fill-rule="evenodd" stroke="none"/>
    <path d="M-10.5 -5.65 L-10.55 -5.6 -10.6 -5.6 -10.65 -5.65 -12.25 -5.1 Q-15.8 -3.6 -16.3 1.6 -16.1 1.7 -16.0 2.05 L-14.95 2.15 -13.8 2.25 -13.95 2.95 Q-17.2 4.15 -17.25 1.2 -17.55 -3.8 -11.75 -6.15 L-11.3 -6.35 -10.5 -5.75 -10.5 -5.65" fill="#333333" fill-rule="evenodd" stroke="none"/>
    <path d="M-13.4 2.65 L-14.0 5.45 -14.0 6.8 -12.35 7.7 Q-12.0 7.75 -11.75 8.05 L-11.75 8.8 -12.0 9.2 Q-15.5 9.0 -15.2 5.35 -15.05 3.35 -13.55 2.5 L-13.4 2.65" fill="#333333" fill-rule="evenodd" stroke="none"/>
    <path d="M-10.75 9.8 L-10.45 10.1 -9.3 9.9 -8.55 9.45 Q-8.1 9.95 -8.45 10.85 L-8.85 11.4 Q-12.4 12.35 -12.5 8.5 -12.55 7.35 -12.0 6.5 L-11.8 6.6 Q-11.6 6.65 -11.5 6.85 L-11.45 8.55 -10.75 9.8" fill="#333333" fill-rule="evenodd" stroke="none"/>
    <path d="M-5.0 11.55 L-5.2 12.25 Q-7.7 13.3 -8.9 10.5 -9.6 9.05 -8.4 8.9 L-8.15 9.1 -8.1 9.35 -8.0 9.9 -7.0 11.1 -6.2 11.0 -5.8 10.6 -5.4 10.65 -5.0 11.55" fill="#333333" fill-rule="evenodd" stroke="none"/>
    <path d="M-2.05 10.15 L-1.9 10.65 -1.5 10.7 -1.0 11.45 Q-2.6 14.3 -5.35 12.15 -5.95 11.65 -6.15 10.95 L-6.55 9.8 Q-6.55 9.35 -6.85 9.3 L-6.95 9.25 -8.15 9.2 Q-8.7 8.15 -8.55 7.6 L-7.8 6.05 Q-8.1 7.45 -7.55 8.45 L-7.3 8.35 -5.7 7.1 Q-6.05 9.25 -5.35 10.45 -4.75 11.6 -4.05 11.8 -3.4 12.0 -2.95 11.6 -2.45 11.15 -2.3 10.4 -2.15 9.6 -2.05 10.15" fill="#333333" fill-rule="evenodd" stroke="none"/>
    <path d="M4.85 -8.2 L4.9 -8.2 Q6.2 -10.05 5.7 -11.5 3.3 -11.4 1.5 -10.1 L0.4 -9.45 -0.3 -9.8 Q2.1 -12.2 6.05 -12.75 L6.75 -12.1 Q7.05 -10.45 6.2 -8.75 L5.1 -8.25 4.9 -8.1 4.9 -8.2 4.85 -8.2" fill="#333333" fill-rule="evenodd" stroke="none"/>
    <path d="M12.25 -8.3 L7.7 -8.65 4.45 -8.2 4.6 -8.45 Q8.05 -10.25 12.25 -9.7 L13.35 -8.9 13.7 -7.45 Q13.0 -5.7 11.05 -5.6 L11.1 -5.7 10.7 -6.35 11.9 -7.45 12.25 -8.3" fill="#333333" fill-rule="evenodd" stroke="none"/>
    <path d="M11.45 -5.15 Q15.1 -5.95 16.55 -2.25 17.3 -0.5 17.25 1.4 16.9 3.05 14.6 1.85 L15.1 1.65 Q14.2 1.55 14.05 0.1 L15.75 0.85 15.8 0.9 16.0 0.65 Q15.85 -3.7 12.1 -4.6 L10.95 -4.9 11.45 -5.15" fill="#333333" fill-rule="evenodd" stroke="none"/>
    <path d="M5.85 9.4 Q5.8 11.65 4.65 12.05 3.4 12.4 3.25 11.8 L2.15 13.0 Q-0.25 13.5 -1.15 11.8 -1.8 10.5 -0.8 10.0 0.0 9.9 -0.15 10.25 L0.25 9.8 Q-0.1 11.1 1.75 11.6 L2.95 9.25 3.25 9.3 2.95 9.3 4.1 10.35 5.0 9.25 5.35 8.75 5.85 9.4" fill="#333333" fill-rule="evenodd" stroke="none"/>
    <path d="M8.9 6.75 Q10.7 7.9 8.95 10.25 7.95 11.45 6.45 11.85 5.55 11.95 4.95 11.05 L5.1 9.35 5.5 8.7 5.9 9.8 6.0 10.35 Q7.55 11.05 8.45 8.2 L8.4 8.3 Q8.5 7.5 8.75 6.9 L8.9 6.75" fill="#333333" fill-rule="evenodd" stroke="none"/>
    <path d="M11.1 8.6 Q10.5 9.25 9.3 8.75 L9.0 8.0 8.95 7.2 9.2 6.95 9.5 7.15 9.65 7.3 10.05 7.75 Q10.9 6.9 11.2 5.0 12.25 6.55 11.3 8.35 L11.1 8.6" fill="#333333" fill-rule="evenodd" stroke="none"/>
    <path d="M13.25 6.0 Q14.7 7.55 12.75 10.0 11.4 11.65 9.85 10.6 L8.3 9.5 8.35 8.55 Q9.8 9.9 11.7 9.5 12.65 8.15 12.85 6.55 L13.25 6.0" fill="#333333" fill-rule="evenodd" stroke="none"/>
    <path d="M15.5 1.95 Q16.6 3.9 16.3 6.15 15.3 7.25 13.7 7.0 L13.15 6.85 13.1 6.65 13.25 6.05 15.1 5.7 15.35 5.35 Q15.75 4.15 14.4 1.5 15.1 1.4 15.5 1.95" fill="#333333" fill-rule="evenodd" stroke="none"/>
    <path d="M-14.1 3.65 Q-14.35 3.7 -14.2 1.6 -13.95 -0.55 -11.45 -2.3 -13.05 -0.3 -13.2 2.15 L-13.2 2.55 -12.35 2.6 -11.5 2.0 -11.5 2.2 Q-11.35 2.45 -11.55 2.7 L-11.8 3.25 Q-12.75 3.85 -14.1 3.65" fill="#333333" fill-rule="evenodd" stroke="none"/>
    <path d="M10.35 -5.15 L10.85 -4.4 11.15 -3.1 11.25 -2.15 10.95 -1.55 10.6 -1.4 9.7 -1.4 Q8.95 -1.35 8.45 -2.15 8.0 -3.0 8.25 -3.35 L8.4 -3.7 8.45 -3.75 8.55 -3.5 Q9.35 -2.1 10.7 -2.25 L10.6 -2.55 10.6 -2.85 Q10.6 -4.1 9.7 -5.2 9.2 -5.7 9.3 -6.1 L10.35 -5.15" fill="#333333" fill-rule="evenodd" stroke="none"/>
    <path d="M-0.6 9.3 Q0.35 8.4 0.55 7.0 1.9 8.6 -0.35 10.95 L-1.8 10.8 -2.65 9.2 -2.55 8.3 -1.35 9.65 -0.6 9.3" fill="#333333" fill-rule="evenodd" stroke="none"/>
    <path d="M-13.1 5.1 L-13.0 5.15 -12.95 5.25 -12.95 5.35 -13.0 5.4 -13.05 5.5 -13.15 5.6 -13.25 5.6 -13.4 5.65 -13.5 5.75 -13.6 5.8 -13.65 5.9 -13.75 6.0 -14.25 6.45 -14.45 6.8 -14.7 7.2 -14.75 7.3 -14.75 7.4 -14.85 7.5 -15.0 7.5 -15.05 7.45 -15.15 7.35 -15.15 7.25 -15.15 7.15 -15.2 7.1 -15.0 6.45 -14.6 5.95 -14.05 5.5 -14.0 5.45 -13.9 5.35 -13.8 5.25 -13.75 5.15 -13.6 5.1 -13.45 5.1 -13.35 5.05 -13.25 5.05 -13.1 5.1" fill="#333333" fill-rule="evenodd" stroke="none"/>
    <path d="M-12.9 6.0 L-12.9 5.95 -12.8 5.95 -12.75 5.95 -12.65 6.05 -12.6 6.1 -12.65 6.2 -12.7 6.3 -12.7 6.4 -12.75 6.45 -12.95 6.65 -13.05 6.75 -13.2 6.9 -13.35 7.15 -13.5 7.35 -13.55 7.45 -13.6 7.5 -13.65 7.6 -13.75 7.7 -13.75 7.75 -13.8 7.85 -13.8 7.95 -13.8 8.05 -13.8 8.2 -13.85 8.45 -13.9 8.65 -13.9 8.75 -13.95 8.8 -14.05 8.8 -14.15 8.85 -14.3 8.8 -14.4 8.7 -14.45 8.4 -14.45 8.2 -14.45 8.0 -14.45 7.8 -14.4 7.75 -14.4 7.7 -14.35 7.6 -14.25 7.4 -14.2 7.2 -14.05 7.05 -13.95 7.0 -13.8 6.7 -13.5 6.45 -13.4 6.35 -13.25 6.25 -12.95 6.1 -12.9 6.0" fill="#333333" fill-rule="evenodd" stroke="none"/>
    <path d="M2.2 0.6 L2.3 0.65 2.45 0.7 2.5 0.8 2.5 0.9 2.5 1.0 2.5 1.05 2.4 1.15 2.3 1.15 2.15 1.15 2.05 1.1 1.95 1.0 1.2 1.05 1.15 1.1 1.05 1.15 0.9 1.1 0.85 1.0 0.8 0.9 0.85 0.8 0.9 0.7 1.0 0.6 1.05 0.55 1.15 0.55 1.95 0.55 2.1 0.55 2.2 0.6" fill="#333333" fill-rule="evenodd" stroke="none"/>
    <path d="M1.8 1.85 L1.85 1.9 1.8 2.0 1.75 2.1 1.7 2.15 1.6 2.15 1.5 2.15 1.05 2.15 0.9 2.1 0.85 2.0 0.8 1.9 0.8 1.85 0.85 1.8 0.9 1.7 0.95 1.7 1.05 1.7 1.05 1.65 1.5 1.65 1.6 1.7 1.75 1.75 1.8 1.85" fill="#333333" fill-rule="evenodd" stroke="none"/>
    <path d="M14.25 3.25 L14.75 3.25 14.9 3.25 15.0 3.3 15.2 3.3 15.35 3.4 15.55 3.5 15.6 3.6 15.65 3.65 15.7 3.75 15.7 3.8 15.7 3.85 15.6 3.95 15.5 3.85 15.45 3.85 15.3 3.8 15.2 3.8 15.0 3.75 14.9 3.75 14.8 3.7 14.25 3.65 13.9 3.6 13.8 3.5 13.8 3.4 13.85 3.3 14.0 3.25 14.25 3.25" fill="#333333" fill-rule="evenodd" stroke="none"/>
    <path d="M14.1 4.15 L14.25 4.15 14.25 4.1 14.7 4.1 14.75 4.15 15.35 4.2 15.5 4.25 15.6 4.35 15.6 4.45 15.7 4.5 15.75 4.6 15.8 4.7 15.75 4.8 15.7 4.9 15.6 4.95 15.4 4.9 15.25 4.8 15.0 4.7 14.75 4.7 14.25 4.65 14.05 4.55 14.0 4.45 13.95 4.45 13.95 4.35 14.0 4.25 14.1 4.15" fill="#333333" fill-rule="evenodd" stroke="none"/>
  </g>
</svg>
