<?xml version="1.0" encoding="UTF-8" standalone="no"?>
<svg xmlns:xlink="http://www.w3.org/1999/xlink" height="38.15px" width="209.0px" xmlns="http://www.w3.org/2000/svg">
  <g transform="matrix(1.0, 0.0, 0.0, 1.0, 104.5, 19.05)">
    <path d="M103.3 -17.45 L103.45 -16.9 Q101.25 -4.0 89.8 -5.6 79.2 -7.05 64.4 -0.1 48.95 7.1 34.15 0.75 19.75 -5.4 6.75 -7.15 -6.05 -8.8 -18.55 3.9 -31.6 17.1 -47.4 17.6 -63.4 18.1 -77.55 1.8 -91.1 -13.85 -102.2 -11.7 L-102.75 -11.8 -103.05 -12.3 -102.95 -12.85 -102.5 -13.15 Q-90.7 -15.65 -76.4 0.8 -62.8 16.5 -47.45 16.1 -32.2 15.6 -19.6 2.85 -6.55 -10.5 6.95 -8.65 20.15 -6.9 34.75 -0.65 48.95 5.4 63.75 -1.45 79.0 -8.65 90.0 -7.1 100.05 -5.8 101.95 -17.15 102.0 -17.5 102.3 -17.65 L102.85 -17.8 103.3 -17.45" fill="#ffcc33" fill-rule="evenodd" stroke="none"/>
    <path d="M-94.15 -13.35 L-92.35 -12.65 -91.1 -11.9 -91.0 -11.75 -90.55 -11.35 -90.15 -10.95 -90.0 -10.8 -89.95 -10.6 -89.9 -10.4 -89.85 -10.25 -89.8 -10.05 -89.65 -9.85 -89.55 -9.65 -89.5 -9.5 -89.45 -9.3 -89.5 -9.1 -89.55 -8.95 -89.7 -8.75 -89.8 -8.6 -89.95 -8.55 -90.25 -8.5 -90.7 -8.6 -90.85 -8.8 -91.05 -9.0 -91.25 -9.15 -91.6 -9.4 -91.85 -9.55 -92.1 -9.75 -92.95 -10.1 -94.6 -10.8 -94.85 -10.85 -95.35 -11.0 -96.2 -11.25 -99.0 -11.15 -99.5 -11.05 -103.25 -11.05 -103.8 -11.15 -104.05 -11.35 -104.25 -11.55 -104.35 -11.75 -104.45 -11.9 -104.5 -12.1 -104.5 -12.3 -104.5 -12.5 -104.45 -12.65 -104.35 -12.85 -104.25 -13.05 -104.05 -13.25 -103.8 -13.4 -102.5 -13.7 -96.0 -13.85 -94.15 -13.35" fill="#663333" fill-opacity="0.2" fill-rule="evenodd" stroke="none"/>
    <path d="M-103.55 -12.35 L-103.55 -12.55 -103.55 -12.75 -103.5 -12.9 -103.4 -13.1 -103.25 -13.3 -103.0 -13.5 -102.5 -13.6 -101.0 -13.55 -99.5 -13.5 -97.0 -13.3 -96.1 -13.1 -95.95 -12.9 -95.85 -12.75 -95.85 -12.55 -95.85 -12.35 -95.95 -12.15 -96.1 -12.0 -97.0 -11.8 -97.5 -11.75 -101.0 -11.55 -102.5 -11.5 -103.0 -11.6 -103.25 -11.8 -103.4 -12.0 -103.5 -12.15 -103.55 -12.35" fill="#663333" fill-opacity="0.2" fill-rule="evenodd" stroke="none"/>
    <path d="M-60.3 15.35 Q-62.75 14.45 -65.25 13.8 L-65.7 13.7 -66.0 13.5 -66.3 13.35 -66.7 13.15 -66.85 12.95 -67.0 12.75 -67.05 12.6 -67.05 12.4 -67.05 12.2 -66.95 12.0 -66.75 11.85 -66.55 11.7 -66.25 11.65 -65.8 11.8 -65.45 11.95 -65.2 12.1 -54.0 14.8 -51.05 15.35 Q-45.0 16.15 -39.0 15.25 L-35.3 14.2 -35.05 14.0 -34.75 13.8 -34.5 13.65 -34.25 13.5 -34.1 13.45 -33.75 13.4 -33.3 13.35 -32.95 13.15 -32.7 13.0 -32.55 12.95 -32.25 12.9 -31.85 12.95 -31.6 12.9 -31.45 12.7 -31.2 12.65 -31.2 12.8 -31.35 13.0 -31.5 13.2 -31.5 13.4 -31.45 13.6 -31.45 13.75 -31.5 13.95 -31.6 14.1 -31.75 14.35 -32.05 14.5 -32.45 14.7 -32.8 14.9 -32.95 15.1 -33.05 15.25 -33.3 15.45 -33.6 15.65 -34.2 16.0 -34.35 16.2 -34.55 16.4 Q-39.5 18.65 -45.0 18.35 L-50.05 17.9 Q-55.35 17.25 -60.3 15.35" fill="#663333" fill-opacity="0.2" fill-rule="evenodd" stroke="none"/>
    <path d="M-17.65 3.1 L-17.6 3.25 -17.7 3.45 -17.8 3.65 -18.0 3.75 -18.35 3.9 -19.4 4.7 -20.45 5.6 -20.7 5.75 -20.8 5.95 Q-24.1 9.35 -27.7 12.4 L-29.0 13.25 Q-34.35 16.1 -40.25 17.0 L-41.75 17.2 -42.75 17.2 -43.75 17.25 -44.25 17.15 -44.45 17.0 -45.75 16.95 -46.2 16.85 -46.35 16.65 -46.45 16.45 -46.5 16.25 -46.5 16.1 -46.4 15.9 -46.3 15.7 -46.2 15.6 -45.75 15.5 -44.35 15.35 -44.1 15.2 -43.25 15.1 -42.75 15.0 -42.45 14.9 -42.1 14.75 Q-36.0 13.85 -30.4 11.2 -28.5 10.3 -27.0 8.85 L-24.45 6.6 Q-23.65 5.45 -22.5 4.7 L-19.95 3.05 -19.05 2.5 -18.75 2.5 -18.75 2.45 -18.45 2.5 -18.25 2.6 -17.95 2.7 -17.75 2.9 -17.65 3.1" fill="#663333" fill-opacity="0.2" fill-rule="evenodd" stroke="none"/>
    <path d="M101.7 -12.65 L102.0 -12.7 102.0 -12.75 102.45 -12.6 102.7 -12.4 102.8 -12.25 102.85 -12.05 102.8 -11.85 102.75 -11.65 102.5 -11.5 102.3 -11.3 102.3 -11.1 102.25 -10.9 102.15 -10.75 102.05 -10.55 102.0 -10.35 101.85 -10.2 101.7 -10.0 101.55 -9.8 101.45 -9.6 101.4 -9.4 101.3 -9.25 101.2 -9.05 100.8 -8.7 100.3 -8.1 100.05 -7.9 99.8 -7.75 99.75 -7.55 99.6 -7.35 99.45 -7.15 99.1 -7.0 98.45 -6.6 98.15 -6.4 97.65 -6.1 Q96.95 -5.6 96.15 -5.35 L95.75 -5.3 95.4 -5.15 95.15 -5.05 93.5 -4.75 92.25 -4.5 85.65 -4.75 84.75 -4.9 84.5 -5.15 84.45 -5.25 84.25 -5.3 83.95 -5.4 83.8 -5.65 83.75 -5.8 83.8 -5.95 83.95 -6.15 84.4 -6.35 84.55 -6.55 84.75 -6.65 Q88.1 -7.65 91.7 -7.4 L93.2 -7.45 Q95.6 -7.8 97.75 -8.8 L98.0 -9.0 98.15 -9.15 98.3 -9.35 99.55 -10.3 100.75 -11.55 101.05 -12.15 101.25 -12.35 101.5 -12.55 101.7 -12.65" fill="#663333" fill-opacity="0.2" fill-rule="evenodd" stroke="none"/>
    <path d="M83.7 -7.25 L84.25 -7.3 94.0 -7.15 94.15 -7.2 94.5 -7.3 95.3 -7.35 96.2 -7.6 97.25 -7.85 97.65 -7.75 97.9 -7.55 98.0 -7.35 98.05 -7.15 98.05 -7.0 98.0 -6.8 97.95 -6.6 97.75 -6.4 96.1 -5.65 94.7 -5.25 94.5 -5.1 77.75 -3.9 77.4 -4.0 77.3 -4.0 77.05 -3.95 76.75 -3.85 76.3 -4.0 75.9 -4.0 75.5 -3.85 75.2 -4.0 75.1 -4.2 75.05 -4.35 75.15 -4.55 75.4 -4.7 75.75 -4.9 75.85 -5.1 75.95 -5.3 76.15 -5.5 76.3 -5.6 76.45 -5.65 76.7 -5.75 77.0 -5.85 77.25 -6.05 80.2 -6.85 83.7 -7.25" fill="#663333" fill-opacity="0.2" fill-rule="evenodd" stroke="none"/>
    <path d="M39.5 0.2 L40.0 0.55 40.25 0.7 40.7 0.85 40.95 1.0 41.15 1.2 41.5 1.4 41.6 1.6 41.7 1.75 41.9 1.95 41.7 2.15 41.6 2.3 41.5 2.5 41.3 2.65 41.0 2.7 40.7 2.65 40.65 2.65 40.25 2.7 40.1 2.75 39.75 2.85 39.25 2.7 38.9 2.5 38.65 2.4 38.5 2.35 38.0 2.2 37.75 2.1 37.25 1.95 37.0 1.85 36.5 1.7 36.25 1.6 35.25 1.35 34.75 1.2 34.0 0.85 33.0 0.45 32.75 0.25 32.65 0.15 32.5 0.1 32.0 -0.05 31.25 -0.4 30.25 -0.8 29.75 -1.15 29.0 -1.55 28.75 -1.65 27.75 -1.9 27.25 -2.05 27.0 -2.15 26.0 -2.4 25.5 -2.55 25.15 -2.75 24.9 -2.85 24.75 -2.9 24.25 -3.05 24.0 -3.15 23.5 -3.3 23.25 -3.4 22.25 -3.65 21.75 -3.8 21.5 -3.9 21.0 -4.05 20.75 -4.15 17.25 -4.8 17.05 -4.9 14.7 -5.4 13.25 -5.65 Q12.45 -6.15 11.5 -6.2 L11.05 -6.3 10.9 -6.4 10.5 -6.5 10.05 -6.6 9.9 -6.8 9.55 -7.0 9.45 -7.15 9.35 -7.35 9.3 -7.55 9.35 -7.75 9.45 -7.9 9.55 -8.1 9.95 -8.25 10.25 -8.25 10.25 -8.3 10.7 -8.2 11.0 -8.1 11.45 -8.0 12.25 -8.0 13.3 -7.65 13.7 -7.55 13.75 -7.55 14.5 -7.55 18.75 -6.9 21.75 -6.3 22.0 -6.15 23.0 -5.9 23.5 -5.8 23.75 -5.65 24.25 -5.55 24.5 -5.4 25.0 -5.3 25.25 -5.15 25.75 -5.05 26.05 -4.85 26.4 -4.75 26.75 -4.65 27.25 -4.55 27.5 -4.4 28.5 -4.15 29.0 -4.05 29.25 -3.9 29.75 -3.8 30.45 -3.4 31.05 -3.05 31.25 -2.9 31.75 -2.8 33.6 -1.85 34.4 -1.5 35.0 -1.3 35.3 -1.1 35.65 -1.0 36.0 -0.9 36.5 -0.8 36.8 -0.6 37.15 -0.5 37.5 -0.4 38.0 -0.3 38.25 -0.15 38.75 -0.05 39.0 0.1 39.5 0.2" fill="#663333" fill-opacity="0.2" fill-rule="evenodd" stroke="none"/>
    <path d="M26.0 -3.35 L26.25 -3.35 26.5 -3.3 26.75 -3.25 27.0 -3.15 27.55 -3.1 28.2 -3.0 28.5 -3.0 32.75 -1.65 34.55 -0.8 40.0 0.95 Q46.8 2.95 53.95 2.5 L54.25 2.45 54.65 2.5 55.0 2.5 55.3 2.7 55.4 2.85 55.4 3.0 55.3 3.2 55.05 3.4 54.9 3.6 54.75 3.75 54.55 3.9 54.25 3.95 53.95 4.0 53.5 4.15 53.3 4.25 Q47.6 4.7 42.05 3.3 L37.85 2.2 37.05 1.95 33.1 0.15 30.05 -1.0 28.15 -1.75 Q27.3 -1.9 26.5 -2.2 L24.5 -2.6 24.2 -2.75 24.1 -2.95 24.05 -3.1 24.15 -3.3 24.25 -3.4 24.5 -3.5 25.25 -3.5 25.25 -3.55 25.5 -3.5 25.75 -3.4 26.0 -3.35" fill="#663333" fill-opacity="0.2" fill-rule="evenodd" stroke="none"/>
    <path d="M3.45 -8.85 L3.7 -8.65 3.8 -8.5 3.85 -8.3 3.9 -8.1 3.9 -7.9 3.75 -7.75 3.55 -7.55 3.3 -7.35 3.0 -7.25 2.7 -7.4 2.65 -7.5 2.6 -7.5 2.05 -7.55 1.8 -7.5 0.9 -7.15 -0.2 -6.85 -0.45 -6.75 -4.85 -5.35 Q-7.65 -4.3 -10.3 -2.9 L-11.35 -2.3 -11.5 -2.25 -11.75 -2.15 -12.1 -2.25 -12.35 -2.25 -12.35 -2.4 -12.35 -2.6 -12.35 -2.8 Q-12.15 -3.75 -11.35 -4.35 -9.85 -5.55 -7.95 -6.1 L-6.55 -6.65 -3.45 -7.65 -0.65 -8.5 1.7 -9.0 2.0 -9.0 2.0 -9.05 3.0 -9.0 3.45 -8.85" fill="#ffff99" fill-opacity="0.2" fill-rule="evenodd" stroke="none"/>
    <path d="M-2.1 -7.3 L-1.9 -7.1 -1.8 -6.9 -1.8 -6.75 -1.9 -6.55 -2.05 -6.35 -4.6 -5.2 -5.8 -4.65 -6.05 -4.5 -10.5 -2.6 Q-11.65 -2.1 -12.5 -1.15 L-13.55 0.2 -13.7 0.4 -13.75 0.6 -13.8 0.75 -13.85 0.95 -14.0 1.15 -14.05 1.3 -14.2 1.5 -14.45 1.7 -14.55 1.9 -14.6 2.1 -14.65 2.25 -14.7 2.45 -14.8 2.6 -15.2 2.7 -15.3 2.5 -15.3 2.35 -15.3 2.15 -15.25 1.95 -15.25 1.75 -15.3 1.6 -15.45 1.4 -15.55 1.2 -15.55 1.0 -15.55 0.85 -15.55 0.65 -15.5 0.45 -15.45 0.25 -15.35 0.1 -15.3 -0.1 -15.25 -0.3 -15.25 -0.5 -15.25 -0.65 -15.2 -0.85 Q-14.25 -2.55 -12.6 -3.55 -10.2 -5.1 -7.45 -6.0 L-2.5 -7.4 -2.1 -7.3" fill="#ffff99" fill-opacity="0.2" fill-rule="evenodd" stroke="none"/>
    <path d="M-80.75 -3.45 L-80.45 -3.25 -80.05 -2.85 -79.65 -2.5 -79.25 -2.1 -79.05 -1.9 -77.9 -1.0 -76.75 0.15 -75.8 1.1 -75.25 1.45 -74.75 1.8 -74.2 2.2 -71.65 4.25 Q-70.3 5.2 -69.2 6.45 L-68.05 7.85 -68.0 8.0 -67.95 8.2 -67.85 8.4 -67.75 8.55 -67.55 8.75 -67.45 8.95 -67.3 9.15 -67.25 9.35 -67.25 9.5 -67.3 9.7 -67.45 9.9 -67.75 10.0 -68.1 9.9 -68.3 9.7 -68.45 9.5 -68.6 9.3 -68.75 9.15 -68.85 9.05 -69.2 8.9 -69.35 8.7 -69.55 8.5 -69.7 8.35 -69.85 8.15 -70.0 7.95 -70.5 7.55 -71.15 7.05 -71.8 6.45 -72.35 6.05 -72.9 5.7 -73.45 5.35 -76.2 3.1 -78.9 0.65 -80.1 -0.85 -80.7 -1.45 -81.2 -1.95 -81.65 -2.55 -81.75 -2.75 -81.95 -2.9 -82.1 -3.1 -82.25 -3.3 -82.35 -3.5 -82.45 -3.7 -82.5 -3.85 -82.4 -4.05 -82.3 -4.15 -82.25 -4.25 -82.0 -4.25 -82.0 -4.3 -81.7 -4.15 -81.45 -4.0 -81.2 -3.8 -80.75 -3.45" fill="#ffff99" fill-opacity="0.2" fill-rule="evenodd" stroke="none"/>
    <path d="M61.2 0.1 L61.3 -0.1 61.55 -0.3 62.0 -0.5 62.45 -0.65 62.65 -0.85 64.4 -1.75 65.9 -2.55 Q67.5 -2.9 68.95 -3.8 L70.15 -4.5 70.5 -4.55 70.95 -4.55 71.25 -4.7 71.45 -4.8 71.75 -4.85 72.15 -4.75 72.4 -4.55 72.5 -4.35 72.55 -4.15 72.55 -4.0 72.5 -3.8 72.45 -3.6 72.25 -3.4 72.1 -3.25 71.95 -3.05 71.55 -2.9 71.2 -2.8 Q69.05 -1.4 66.65 -0.45 L64.0 0.7 63.75 0.85 63.6 0.85 63.05 0.95 62.65 1.15 62.3 1.25 62.0 1.35 61.5 1.25 61.2 1.4 61.0 1.45 60.75 1.5 60.4 1.4 60.25 1.2 60.2 1.0 60.2 0.85 60.3 0.65 60.5 0.45 60.95 0.25 61.2 0.1" fill="#ffff99" fill-opacity="0.2" fill-rule="evenodd" stroke="none"/>
    <path d="M103.3 -17.45 L102.85 -17.8 102.3 -17.65 Q102.0 -17.5 101.95 -17.15 100.05 -5.8 90.0 -7.1 79.0 -8.65 63.75 -1.45 48.95 5.4 34.75 -0.65 20.15 -6.9 6.95 -8.65 -6.55 -10.5 -19.6 2.85 -32.2 15.6 -47.45 16.1 -62.8 16.5 -76.4 0.8 -90.7 -15.65 -102.5 -13.15 L-102.95 -12.85 -103.05 -12.3 -102.75 -11.8 -102.2 -11.7 Q-91.1 -13.85 -77.55 1.8 -63.4 18.1 -47.4 17.6 -31.6 17.1 -18.55 3.9 -6.05 -8.8 6.75 -7.15 19.75 -5.4 34.15 0.75 48.95 7.1 64.4 -0.1 79.2 -7.05 89.8 -5.6 101.25 -4.0 103.45 -16.9 L103.3 -17.45 M104.1 -18.2 Q104.6 -17.55 104.5 -16.7 102.45 -2.45 89.8 -4.25 79.4 -5.7 65.15 1.1 49.4 8.6 34.0 2.0 19.6 -4.1 6.7 -5.85 -5.65 -7.4 -17.3 4.9 -30.3 18.6 -46.6 19.1 L-46.65 19.1 Q-63.15 19.65 -78.2 2.75 -91.55 -12.3 -102.0 -10.45 -102.8 -10.3 -103.5 -10.7 -104.2 -11.2 -104.4 -12.0 -104.55 -12.8 -104.1 -13.55 -103.7 -14.25 -102.9 -14.4 -90.55 -17.15 -75.25 0.1 -61.65 15.35 -46.85 15.05 -32.1 14.5 -20.2 2.05 -6.95 -11.8 7.15 -9.8 20.5 -8.05 35.45 -1.7 49.3 4.2 63.35 -2.5 78.9 -9.9 90.2 -8.25 99.05 -7.2 100.55 -17.35 100.6 -18.2 101.3 -18.65 101.95 -19.15 102.8 -19.0 103.6 -18.9 104.1 -18.2" fill="#333333" fill-rule="evenodd" stroke="none"/>
  </g>
</svg>
