<?xml version="1.0" encoding="UTF-8" standalone="no"?>
<svg xmlns:xlink="http://www.w3.org/1999/xlink" height="21.7px" width="23.1px" xmlns="http://www.w3.org/2000/svg">
  <g transform="matrix(1.0, 0.0, 0.0, 1.0, 11.55, 10.8)">
    <path d="M-6.35 -4.95 L-6.2 -4.8 -5.8 -4.7 -5.55 -4.5 -5.3 -4.3 -5.15 -4.1 -5.0 -3.95 -4.95 -3.75 -4.9 -3.55 -4.85 -3.35 -4.85 -3.2 -4.9 -3.0 -4.9 -2.8 -4.95 -2.6 -4.95 -2.45 -4.9 -2.05 -4.85 -1.7 -4.85 -1.3 -4.95 -0.75 -5.0 -0.55 -5.15 -0.4 -5.3 -0.2 -5.5 0.0 -5.75 0.2 -5.95 0.3 -6.25 0.35 -8.0 0.4 -8.45 0.25 -8.7 0.05 -9.05 -0.3 -9.25 -0.5 -9.55 -0.85 -9.6 -1.05 -9.6 -1.25 -9.6 -1.45 -9.6 -1.6 -9.6 -1.8 -9.6 -2.0 -9.6 -2.2 -9.55 -2.35 -9.45 -2.55 -9.35 -2.75 -9.35 -2.95 -9.3 -3.1 -9.2 -3.3 -9.05 -3.5 -9.05 -3.7 -9.05 -3.85 -9.05 -4.05 -9.05 -4.25 -8.95 -4.45 -8.75 -4.6 -8.55 -4.8 -8.45 -4.95 -8.3 -5.0 -8.0 -5.05 -6.75 -5.05 -6.35 -4.95" fill="#663333" fill-opacity="0.101960786" fill-rule="evenodd" stroke="none"/>
    <path d="M-6.85 -4.35 L-6.7 -4.2 -6.55 -4.0 -6.5 -3.8 -6.5 -3.6 -6.5 -3.45 -6.55 -3.25 -6.65 -3.05 -6.7 -2.85 -6.75 -2.7 -6.75 -2.5 -6.7 -2.3 -6.6 -2.1 -6.5 -1.95 -6.45 -1.75 -6.4 -1.55 -6.35 -1.35 -6.4 -1.2 -6.45 -1.0 -6.5 -0.8 -6.6 -0.6 -6.8 -0.5 -7.25 -0.4 -8.75 -0.35 -9.2 -0.5 -9.45 -0.7 -9.6 -0.9 -9.75 -1.05 -9.85 -1.25 -9.85 -1.45 -9.85 -1.6 -9.85 -2.0 -9.85 -2.55 -9.85 -2.95 -9.8 -3.1 -9.7 -3.3 -9.6 -3.5 -9.5 -3.7 -9.35 -3.85 -9.05 -4.05 -8.75 -4.25 -8.55 -4.45 -8.3 -4.55 -8.0 -4.6 -7.7 -4.55 -7.25 -4.5 -6.85 -4.35" fill="#663333" fill-opacity="0.101960786" fill-rule="evenodd" stroke="none"/>
    <path d="M6.05 -7.75 L6.2 -7.55 6.25 -7.35 6.25 -7.2 6.25 -7.0 6.25 -6.8 6.25 -6.6 6.25 -6.45 6.2 -6.25 6.1 -6.05 6.0 -5.9 5.8 -5.7 5.65 -5.55 5.05 -5.45 4.95 -5.25 4.75 -5.05 4.65 -4.85 4.5 -4.7 4.4 -4.55 4.5 -4.5 4.95 -4.35 5.2 -4.2 5.4 -4.0 5.5 -3.85 7.5 -3.75 8.0 -3.6 8.25 -3.5 8.7 -3.35 8.95 -3.2 9.05 -3.0 9.2 -2.8 9.25 -2.6 9.25 -2.45 9.25 -2.25 9.25 -2.05 9.25 -1.85 9.2 -1.7 9.05 -1.5 8.95 -1.3 8.7 -1.1 7.0 -0.8 5.8 -0.6 5.9 -0.45 6.0 -0.25 6.15 -0.05 6.2 0.15 6.25 0.3 6.3 0.5 6.4 0.7 6.4 2.0 6.4 3.9 6.4 5.95 6.4 7.65 6.3 7.8 6.25 8.0 6.2 8.2 5.95 8.55 5.6 8.95 5.25 9.3 4.7 9.9 4.3 10.05 3.8 10.25 3.25 10.4 0.0 10.4 -0.5 10.25 -0.75 10.05 -0.95 9.85 -1.05 9.7 -1.1 9.5 -1.1 9.3 -1.1 9.15 -1.1 8.95 -1.15 8.75 -1.25 8.55 -1.45 8.4 -1.6 8.2 -1.8 8.0 -2.05 7.65 -2.1 7.45 -2.1 7.25 -2.1 7.05 -2.1 6.9 -2.1 6.7 -2.1 6.5 -2.1 6.3 -2.05 6.15 -2.0 5.95 -2.0 5.4 -2.0 5.0 -2.0 4.25 -2.0 3.7 -2.0 2.95 -1.9 2.55 -1.8 2.2 -1.75 1.8 -1.75 1.25 -1.7 0.9 -1.6 0.7 -1.5 0.5 -1.4 0.3 -1.3 0.15 -1.2 -0.05 -1.05 -0.25 -1.0 -0.45 -0.95 -0.6 -0.8 -0.8 -0.7 -1.0 -0.5 -1.2 -0.5 -1.35 -0.5 -1.55 -0.5 -1.95 -0.5 -2.1 -0.5 -2.5 -0.5 -2.85 -0.5 -3.05 -0.55 -3.25 -0.65 -3.45 -0.75 -3.6 -0.85 -3.8 -0.9 -4.2 -0.95 -4.55 -0.95 -4.95 -0.95 -5.5 -0.95 -5.85 -0.95 -6.05 -0.85 -6.25 -0.8 -6.45 -0.75 -6.6 -0.7 -6.8 -0.4 -7.4 -0.2 -7.75 0.45 -8.5 1.0 -9.05 1.3 -9.25 1.5 -9.45 1.75 -9.6 2.25 -9.7 2.25 -9.75 2.5 -9.75 3.0 -9.75 3.25 -9.75 3.7 -9.6 4.05 -9.45 4.4 -9.25 4.55 -9.05 4.75 -8.85 4.9 -8.7 5.15 -8.5 5.4 -8.3 5.7 -8.1 5.95 -7.95 6.05 -7.75" fill="#663333" fill-opacity="0.101960786" fill-rule="evenodd" stroke="none"/>
    <path d="M1.8 -9.4 L2.75 -9.05 3.5 -8.5 3.95 -7.95 4.0 -7.75 4.05 -7.55 4.1 -7.2 4.15 -6.65 4.1 -5.85 4.05 -5.3 4.0 -5.1 3.95 -4.95 3.9 -4.75 3.85 -4.55 3.8 -4.35 3.75 -4.2 3.65 -4.0 3.55 -3.8 3.4 -3.6 3.2 -3.45 3.15 -3.25 3.25 -3.05 3.3 -2.85 3.35 -2.7 3.4 -2.5 3.4 -2.3 3.4 -2.1 3.4 -1.95 3.4 -1.75 3.4 -1.55 3.3 -1.4 3.2 -1.2 3.05 -1.0 3.0 -0.8 2.95 -0.6 2.75 -0.45 2.55 -0.25 2.9 -0.05 3.2 0.15 3.35 0.3 3.5 0.5 3.65 0.7 3.7 0.9 3.75 1.05 3.8 1.25 3.9 1.45 3.9 1.65 3.9 1.8 3.9 2.0 3.9 2.2 3.9 2.4 3.9 2.55 3.8 2.75 3.75 2.95 3.7 3.15 3.65 3.3 3.65 3.5 3.55 3.7 3.45 3.9 3.35 4.05 3.25 4.25 3.4 4.45 3.55 4.65 3.7 4.8 3.8 5.0 3.9 5.2 3.9 5.4 3.95 5.55 3.95 5.75 3.95 5.95 3.95 6.3 3.9 6.9 3.9 7.25 3.8 7.45 3.7 7.65 3.6 7.8 3.5 8.0 3.35 8.2 3.2 8.4 3.2 8.55 3.2 8.75 3.15 8.95 3.15 9.15 3.05 9.3 2.95 9.5 2.85 9.7 2.75 9.9 2.65 10.05 2.35 10.25 2.1 10.35 1.75 10.5 1.4 10.7 1.15 10.8 0.75 10.85 -0.25 10.9 -0.75 10.75 -1.1 10.55 -1.5 10.4 -1.85 10.2 -2.05 10.0 -2.25 9.8 -2.35 9.6 -2.45 9.45 -2.55 9.25 -2.7 9.05 -3.0 8.85 -3.25 8.7 -3.55 8.5 -3.75 8.3 -3.95 8.15 -4.1 7.95 -4.3 7.75 -4.5 7.55 -4.55 7.4 -4.7 7.2 -4.75 7.0 -4.8 6.8 -4.85 6.65 -4.85 6.45 -4.85 6.05 -4.85 5.5 -4.9 4.55 -4.8 3.65 -4.75 3.45 -4.55 3.25 -4.4 3.05 -4.25 2.9 -4.15 2.7 -4.05 2.5 -3.85 2.3 -3.7 2.15 -3.65 1.95 -3.6 1.75 -3.6 1.55 -3.6 1.4 -3.6 1.2 -3.6 0.8 -3.6 0.65 -3.55 0.45 -3.5 0.25 -3.45 0.05 -3.4 -0.1 -3.3 -0.5 -3.1 -1.05 -3.05 -1.25 -2.95 -1.45 -2.85 -1.6 -2.75 -1.8 -2.65 -2.0 -2.55 -2.2 -2.35 -2.55 -2.45 -2.75 -2.55 -2.95 -2.7 -3.1 -2.8 -3.3 -2.85 -3.5 -2.85 -3.85 -2.85 -4.6 -2.8 -5.95 -2.8 -7.25 -2.75 -7.45 -2.7 -7.6 -2.6 -7.8 -2.55 -8.0 -2.5 -8.2 -2.35 -8.35 -2.2 -8.55 -1.85 -8.75 -1.55 -8.95 -1.25 -9.15 -1.0 -9.3 -0.75 -9.45 -0.6 -9.5 -0.25 -9.55 1.25 -9.55 1.8 -9.4" fill="#663333" fill-opacity="0.101960786" fill-rule="evenodd" stroke="none"/>
    <path d="M2.25 -3.2 L2.5 -3.0 2.65 -2.8 2.7 -2.7 3.05 -2.6 3.4 -2.6 3.65 -2.7 3.8 -2.8 4.25 -2.9 5.9 -3.05 6.15 -3.2 8.75 -3.25 9.2 -3.1 9.45 -2.95 9.55 -2.75 9.7 -2.55 9.75 -2.35 9.75 -2.2 9.75 -2.0 9.75 -1.8 9.75 -1.6 9.7 -1.45 9.55 -1.25 9.45 -1.05 9.4 -0.85 9.3 -0.7 9.15 -0.5 8.95 -0.3 8.7 -0.1 8.25 0.0 5.3 0.2 5.05 0.35 4.5 0.75 4.05 1.1 3.9 1.25 3.5 1.3 2.0 1.3 1.5 1.2 1.25 1.0 1.1 0.8 1.0 0.65 0.95 0.45 0.95 0.25 0.95 0.05 0.95 -0.1 0.95 -0.3 1.05 -0.5 1.05 -0.65 0.9 -0.9 0.75 -1.05 0.7 -1.25 0.7 -1.45 0.7 -1.8 0.7 -2.0 0.7 -2.2 0.7 -2.35 0.7 -2.55 0.8 -2.75 0.95 -2.95 1.15 -3.1 1.4 -3.25 1.75 -3.3 2.25 -3.2" fill="#663333" fill-opacity="0.101960786" fill-rule="evenodd" stroke="none"/>
    <path d="M7.65 2.7 L7.65 2.85 7.65 3.05 7.5 3.25 7.4 3.45 7.3 3.65 7.2 3.8 7.0 4.0 6.5 4.25 6.25 4.45 5.95 4.6 5.55 4.8 2.5 4.9 0.45 4.35 -1.55 3.8 -2.2 3.65 -2.4 3.45 -2.65 3.25 -2.95 3.05 -3.3 2.7 -3.8 2.15 -4.1 1.7 -4.1 1.55 -4.1 1.4 -4.05 1.2 -4.0 1.0 -3.95 0.8 -3.8 0.7 -3.75 0.65 -3.5 0.6 -3.5 0.55 -3.2 0.7 -3.0 0.9 -2.95 1.05 -2.85 1.25 -2.65 1.45 -2.2 1.8 -1.75 2.2 -0.15 2.6 1.3 2.85 2.3 3.15 4.25 3.0 4.4 2.8 4.55 2.65 Q4.7 2.55 4.8 2.5 L4.95 2.45 5.2 2.35 5.65 2.25 5.9 2.05 6.05 1.95 6.2 1.9 6.5 1.85 6.75 1.8 7.2 1.95 7.45 2.15 7.55 2.3 7.65 2.5 7.65 2.7" fill="#663333" fill-opacity="0.101960786" fill-rule="evenodd" stroke="none"/>
    <path d="M-6.75 -4.0 L-6.35 -3.9 -6.0 -3.8 -5.6 -3.7 -5.35 -3.5 -5.25 -3.3 -5.2 -3.1 -5.2 -2.95 -5.2 -2.75 -5.25 -2.55 -5.3 -2.4 -5.45 -2.2 -5.55 -2.05 -5.7 -2.0 -6.0 -1.95 -6.35 -1.8 -6.75 -1.6 -6.95 -1.45 -7.05 -1.25 -7.25 -1.05 -7.45 -0.95 -7.75 -0.85 -8.2 -1.0 -8.45 -1.2 -8.55 -1.35 -8.6 -1.55 -8.6 -1.75 -8.65 -1.95 -8.7 -2.1 -8.75 -2.3 -8.85 -2.5 -8.85 -2.7 -8.85 -2.85 -8.8 -3.05 -8.75 -3.25 -8.55 -3.45 -8.3 -3.55 -7.95 -3.7 -7.7 -3.85 -7.5 -4.0 -7.25 -4.05 -6.75 -4.0" fill="#663333" fill-opacity="0.101960786" fill-rule="evenodd" stroke="none"/>
    <path d="M5.75 -7.8 L5.75 -7.6 5.75 -7.45 5.75 -7.25 5.75 -7.05 5.75 -6.85 5.75 -6.7 5.7 -6.5 5.6 -6.3 5.5 -6.15 5.3 -5.95 5.15 -5.8 4.65 -5.7 4.25 -5.5 4.0 -5.35 3.85 -5.35 2.5 -5.05 1.0 -4.75 -2.25 -4.75 -2.75 -4.85 -3.0 -5.05 -3.1 -5.2 -3.25 -5.2 -5.5 -5.3 -5.95 -5.45 -6.3 -5.65 -6.6 -5.8 -6.8 -6.0 -6.85 -6.2 -6.9 -6.4 -6.95 -6.55 -6.95 -6.75 -6.95 -6.95 -6.95 -7.1 -6.95 -7.3 -6.95 -7.5 -6.95 -7.7 -6.85 -7.85 -5.9 -8.75 -3.55 -9.7 -2.8 -9.85 -2.5 -9.9 -2.5 -9.95 2.25 -9.8 3.95 -9.25 4.5 -9.25 4.95 -9.1 5.25 -8.95 5.45 -8.75 5.55 -8.55 5.65 -8.35 5.7 -8.2 5.75 -8.0 5.75 -7.8" fill="#663333" fill-opacity="0.101960786" fill-rule="evenodd" stroke="none"/>
    <path d="M5.75 -8.75 L5.9 -8.55 5.9 -8.35 5.95 -8.2 5.95 -8.0 5.95 -7.8 5.95 -7.6 5.85 -7.45 5.75 -7.25 5.6 -7.05 5.45 -6.9 5.2 -6.7 4.7 -6.5 4.3 -6.3 4.05 -6.2 3.05 -5.95 0.8 -5.45 -5.05 -5.75 -5.3 -5.95 -5.5 -6.1 -5.7 -6.3 -5.8 -6.5 -5.8 -6.7 -5.8 -6.85 -5.8 -7.05 -5.8 -7.25 -5.8 -7.45 -5.8 -7.6 -5.8 -7.8 -5.8 -8.0 -5.7 -8.2 -5.5 -8.35 -5.25 -8.55 -5.1 -8.75 -5.05 -8.95 -5.0 -9.1 -4.9 -9.3 -4.75 -9.5 -4.5 -9.7 -4.0 -9.8 -3.5 -9.95 -3.3 -10.1 -3.1 -10.3 -2.8 -10.5 -2.5 -10.7 -2.0 -10.8 -0.25 -10.8 0.85 -10.45 2.7 -9.9 4.9 -9.25 5.65 -8.95 5.75 -8.75" fill="#663333" fill-opacity="0.101960786" fill-rule="evenodd" stroke="none"/>
    <path d="M-5.45 0.05 L-5.4 0.15 -5.35 0.25 -5.35 0.35 -5.35 0.45 -5.4 0.55 -5.35 1.3 -5.35 2.2 -5.45 2.85 -5.45 3.25 -5.5 3.8 -5.45 4.35 -5.55 6.05 -5.5 7.85 -5.45 9.05 -5.5 9.15 -5.55 9.25 -5.6 9.35 -5.7 9.45 -5.8 9.5 -6.0 9.55 -6.25 9.45 -6.35 9.35 -6.45 9.25 -6.5 9.2 -6.5 6.85 -6.4 4.4 -6.35 2.9 -6.3 2.8 -6.25 2.6 -6.2 2.45 -6.15 2.25 -6.15 1.8 -6.15 1.15 -6.15 0.45 -6.1 0.4 -6.05 0.3 -6.0 0.2 -5.9 0.1 -5.8 0.05 -5.65 0.0 -5.45 0.05" fill="#ffffff" fill-opacity="0.101960786" fill-rule="evenodd" stroke="none"/>
    <path d="M-10.15 -5.75 L-10.05 -5.85 -9.95 -5.9 -9.8 -5.95 -8.5 -6.05 -8.15 -6.1 -7.25 -6.1 -7.05 -6.05 -6.95 -5.95 -6.8 -5.85 -6.7 -5.75 -6.5 -5.65 -6.4 -5.55 -6.2 -5.45 -6.15 -5.4 -6.0 -5.4 -5.85 -5.35 -5.8 -5.35 -5.65 -5.4 -5.5 -5.3 -5.45 -5.2 -5.45 -5.1 -5.45 -5.05 -5.45 -4.95 -5.5 -4.85 -5.6 -4.75 -5.75 -4.7 -5.85 -4.65 -6.0 -4.65 -6.25 -4.65 -6.45 -4.7 -6.55 -4.75 -6.65 -4.75 -6.9 -4.8 -6.95 -4.9 -7.05 -5.0 -7.15 -5.05 -7.9 -5.0 -8.55 -4.95 -8.7 -4.85 -8.85 -4.75 -8.95 -4.65 -9.15 -4.55 -9.3 -4.45 -9.4 -4.4 -9.45 -4.3 -9.55 -4.2 -9.7 -4.1 -9.7 -4.0 -9.7 -3.9 -9.7 -3.8 -9.7 -3.7 -9.7 -3.65 -9.7 -3.55 -9.7 -3.45 -9.7 -3.35 -9.65 -3.15 -9.65 -2.95 -9.65 -2.8 -9.65 -2.5 -9.65 -2.3 -9.6 -2.2 -9.55 -2.05 -9.5 -1.85 -9.45 -1.65 -9.35 -1.4 -9.3 -1.2 -9.25 -1.1 -9.25 -1.0 -9.2 -0.9 -9.2 -0.8 -9.2 -0.7 -9.2 -0.65 -9.2 -0.55 -9.2 -0.45 -9.15 -0.35 -9.1 -0.25 -9.05 -0.15 -9.0 -0.05 -9.0 0.05 -8.95 0.1 -8.95 0.2 -8.95 0.3 -8.95 0.4 -9.0 0.5 -9.05 0.6 -9.1 0.7 -9.2 0.8 -9.3 0.85 -9.5 0.85 -9.7 0.85 -9.75 0.8 -10.25 0.7 -10.35 0.6 -10.55 0.45 -10.7 0.25 -10.85 0.05 -10.9 -0.05 -10.95 -0.15 -10.95 -0.2 -10.95 -0.3 -10.95 -0.4 -10.95 -0.5 -11.0 -0.6 -11.05 -0.7 -11.15 -0.8 -11.15 -0.9 -11.2 -0.95 -11.25 -1.05 -11.3 -1.15 -11.35 -1.25 -11.4 -1.35 -11.4 -1.45 -11.45 -1.55 -11.45 -1.65 -11.5 -1.7 -11.5 -1.8 -11.5 -2.0 -11.5 -2.2 -11.5 -2.4 -11.5 -2.55 -11.5 -2.75 -11.45 -2.85 -11.45 -2.95 -11.4 -3.05 -11.4 -3.15 -11.4 -3.2 -11.4 -3.3 -11.35 -3.4 -11.3 -3.5 -11.25 -3.6 -11.2 -3.7 -11.1 -3.8 -11.0 -3.9 -10.95 -3.95 -10.9 -4.05 -10.85 -4.15 -10.8 -4.25 -10.8 -4.35 -10.8 -4.45 -10.8 -4.65 -10.8 -4.7 -10.8 -4.8 -10.8 -4.9 -10.75 -5.1 -10.7 -5.2 -10.55 -5.4 -10.35 -5.55 -10.15 -5.75" fill="#ffffff" fill-opacity="0.101960786" fill-rule="evenodd" stroke="none"/>
    <path d="M9.1 -4.85 L9.2 -4.75 9.25 -4.65 9.25 -4.55 9.3 -4.4 9.3 -4.2 9.3 -3.8 9.3 -3.65 9.25 -3.55 9.2 -3.45 9.05 -3.35 8.85 -3.25 8.65 -3.15 8.55 -3.1 8.5 -3.05 8.3 -3.0 8.25 -2.9 8.15 -2.8 8.0 -2.8 7.8 -2.8 7.55 -2.85 7.5 -2.85 7.35 -2.8 7.1 -2.9 6.95 -2.95 6.8 -3.0 6.65 -3.1 6.55 -3.2 6.55 -3.3 6.55 -3.4 6.55 -3.45 6.55 -3.55 6.55 -3.65 6.55 -3.75 6.6 -3.85 6.75 -4.0 7.0 -4.3 7.3 -4.5 7.35 -4.6 7.4 -4.7 7.5 -4.8 7.6 -4.9 7.75 -4.95 7.85 -5.05 7.95 -5.05 8.1 -5.1 8.6 -5.1 8.8 -5.05 8.95 -4.95 9.1 -4.85" fill="#ffffff" fill-opacity="0.101960786" fill-rule="evenodd" stroke="none"/>
    <path d="M7.85 -5.3 L8.35 -5.25 8.8 -5.15 9.9 -4.7 10.45 -4.35 10.5 -4.25 10.55 -4.15 10.6 -4.05 10.6 -3.9 10.6 -3.7 10.6 -3.4 10.6 -3.2 10.6 -2.85 10.55 -2.4 10.5 -2.3 10.45 -2.2 10.35 -2.1 10.3 -2.05 10.1 -2.0 9.85 -2.05 9.7 -2.15 9.65 -2.25 9.6 -2.35 9.6 -2.45 9.5 -2.55 9.3 -2.65 9.2 -2.7 9.15 -2.8 9.05 -2.9 8.9 -3.0 8.8 -3.1 8.7 -3.2 8.6 -3.3 8.4 -3.45 8.2 -3.65 8.2 -3.75 8.1 -3.85 8.05 -3.95 7.95 -4.05 7.8 -4.15 7.7 -4.2 7.55 -4.3 7.35 -4.4 6.6 -4.35 6.55 -4.3 6.35 -4.25 6.1 -4.3 5.95 -4.4 5.8 -4.4 5.7 -4.5 5.75 -4.6 5.8 -4.7 5.85 -4.8 5.85 -4.9 5.85 -4.95 5.85 -5.05 5.9 -5.15 5.95 -5.25 6.1 -5.35 6.35 -5.4 7.35 -5.4 7.6 -5.35 7.85 -5.3 M9.3 -3.85 L9.35 -3.75 9.55 -3.7 9.45 -3.8 9.2 -3.95 9.3 -3.85" fill="#ffffff" fill-opacity="0.101960786" fill-rule="evenodd" stroke="none"/>
    <path d="M-7.05 0.65 L-6.8 0.6 -6.75 0.6 -6.4 0.4 -6.2 0.3 -6.25 5.4 -6.3 6.9 -6.3 7.1 -6.35 7.3 -6.4 7.55 -6.4 7.65 Q-6.65 8.3 -6.5 8.95 L-6.5 9.15 -6.75 9.5 -7.05 9.4 Q-7.7 8.7 -7.25 7.45 -6.95 6.55 -7.0 5.7 L-7.05 3.9 -7.05 2.05 -7.05 0.65 M-6.6 -8.1 L-6.45 -8.1 Q-5.8 -7.45 -5.9 -6.35 L-5.95 -5.3 -6.0 -5.4 -6.35 -5.55 -6.55 -5.55 -6.6 -5.6 -6.65 -5.65 -6.75 -5.75 -6.8 -5.8 -6.85 -6.6 -6.6 -8.1" fill="#333333" fill-rule="evenodd" stroke="none"/>
    <path d="M5.8 -0.75 L6.55 -0.7 6.55 1.8 6.55 2.75 6.5 3.65 6.55 4.9 6.7 6.05 6.7 6.15 6.7 6.25 6.7 6.4 6.7 6.5 6.8 6.85 7.0 8.0 Q6.9 8.5 6.4 8.5 L6.05 8.15 5.65 7.1 5.5 4.75 5.55 3.65 5.55 2.5 5.55 1.3 5.55 0.15 5.6 -0.8 5.7 -0.8 5.8 -0.75 M5.25 -8.2 L6.15 -4.85 5.35 -4.8 5.3 -5.1 5.1 -6.6 4.95 -8.15 5.25 -8.2" fill="#333333" fill-rule="evenodd" stroke="none"/>
    <path d="M-5.25 -4.0 L-5.5 -4.1 -6.9 -5.25 -8.6 -5.3 Q-9.8 -5.05 -10.35 -4.05 L-10.45 -3.8 Q-10.9 -2.7 -10.65 -1.7 -10.1 0.35 -8.1 0.45 -6.55 0.5 -5.3 -0.65 L-5.1 -0.9 -5.1 -0.3 -5.25 0.2 -5.45 0.6 Q-6.25 1.15 -7.15 1.4 L-8.65 1.3 -10.0 0.85 Q-10.8 0.4 -11.2 -0.5 L-11.45 -1.4 Q-11.65 -2.35 -11.5 -3.3 L-10.85 -4.85 Q-10.3 -5.55 -9.45 -5.85 L-7.7 -6.05 Q-6.8 -6.15 -6.05 -5.45 L-5.85 -5.3 Q-5.05 -4.55 -5.0 -3.9 L-5.25 -4.0" fill="#333333" fill-rule="evenodd" stroke="none"/>
    <path d="M-9.35 -1.55 L-9.15 -3.25 Q-8.85 -4.1 -8.2 -4.35 L-7.55 -4.15 Q-7.4 -3.9 -7.7 -3.8 -8.35 -3.75 -8.55 -3.0 L-8.55 -1.6 Q-7.75 -1.05 -7.05 -1.2 -6.6 -1.3 -6.45 -0.8 -6.45 -0.6 -6.85 -0.55 -8.0 -0.3 -9.05 -1.0 L-9.35 -1.55" fill="#333333" fill-rule="evenodd" stroke="none"/>
    <path d="M-4.55 -5.85 L-4.5 -5.9 -4.4 -5.9 -4.4 -5.95 -4.3 -5.9 -4.2 -5.9 -4.2 -5.95 -4.1 -5.9 -4.05 -5.85 -4.0 -5.5 -4.0 -5.1 -4.0 -4.8 -4.05 -4.15 -4.05 -3.45 -4.05 -2.95 -3.85 -1.85 -3.55 -0.7 -3.35 -0.05 -3.35 0.0 -3.3 0.05 -3.25 0.15 -3.25 0.25 -3.2 0.3 -1.95 1.85 -1.6 2.15 Q-0.2 3.05 1.35 3.15 L1.8 3.2 1.9 3.2 2.45 3.25 3.0 3.25 3.65 3.2 4.6 2.85 5.4 2.45 5.6 2.1 6.0 1.75 6.05 1.7 6.05 1.6 6.1 1.55 6.15 1.5 6.15 1.35 6.2 1.3 6.3 1.2 6.35 1.2 6.45 1.25 6.55 1.35 6.55 1.65 6.5 1.75 6.5 1.85 6.15 2.55 Q5.85 3.15 4.55 3.55 L3.25 3.75 1.95 3.8 1.85 3.8 0.3 3.65 Q-1.2 3.25 -2.45 2.35 L-3.1 1.65 -3.75 0.85 -3.75 0.8 -3.8 0.75 -3.8 0.7 -3.85 0.65 -3.9 0.55 -3.95 0.5 -3.95 0.4 -4.0 0.3 -4.0 0.25 -4.05 0.15 -4.1 0.1 -4.3 -0.6 -4.5 -1.4 -4.6 -1.85 -4.7 -2.75 -4.75 -3.6 -4.75 -3.8 -4.75 -3.95 -4.75 -4.3 -4.7 -4.4 -4.65 -4.6 -4.6 -4.85 -4.6 -4.9 -4.6 -5.15 -4.6 -5.45 -4.55 -5.75 -4.55 -5.85" fill="#333333" fill-rule="evenodd" stroke="none"/>
    <path d="M-2.0 -5.6 L-2.0 -5.65 Q-1.6 -5.65 -1.7 -5.2 L-1.65 -2.8 -1.55 -2.25 -1.5 -1.8 -1.45 -1.55 -1.3 -1.2 -1.25 -1.0 Q-0.15 1.25 2.05 1.75 L3.6 1.85 Q4.6 1.7 5.35 1.2 L5.5 0.95 Q5.85 0.3 6.2 0.8 6.1 1.65 5.45 1.95 L4.9 2.1 4.35 2.25 4.3 2.25 3.15 2.35 3.1 2.35 1.4 2.2 0.0 1.5 -0.9 0.8 -1.6 -0.25 Q-2.2 -1.15 -2.3 -2.0 L-2.5 -3.8 -2.25 -5.65 -2.0 -5.6" fill="#333333" fill-rule="evenodd" stroke="none"/>
    <path d="M-6.3 -8.2 L-6.25 -8.0 -6.25 -7.85 -6.25 -7.7 -6.3 -7.65 -6.35 -7.65 -6.35 -7.85 -6.35 -8.1 -6.3 -8.2" fill="#333333" fill-rule="evenodd" stroke="none"/>
    <path d="M-4.4 -9.0 L-5.2 -8.35 -5.65 -7.9 -5.65 -7.65 -5.8 -7.3 -5.8 -7.25 -5.85 -7.15 -6.1 -7.1 -6.3 -7.0 -6.35 -7.1 -6.6 -7.3 -6.65 -7.35 -6.65 -7.45 -6.65 -8.05 Q-5.35 -10.15 -2.7 -10.55 L-1.6 -10.6 2.55 -10.15 Q4.7 -9.65 5.4 -7.6 L3.9 -8.95 Q3.2 -9.65 2.2 -9.75 L-2.7 -9.9 Q-3.7 -9.7 -4.4 -9.0" fill="#333333" fill-rule="evenodd" stroke="none"/>
    <path d="M1.25 9.85 L2.35 9.9 3.35 9.85 5.25 9.35 5.35 9.35 5.65 9.1 5.75 9.1 5.8 9.1 5.85 9.0 5.9 8.95 6.0 8.95 6.05 8.85 6.2 8.35 6.2 8.2 Q6.4 7.75 6.05 7.9 L6.0 7.9 5.9 7.8 5.85 7.75 5.9 7.6 5.95 7.5 6.0 7.45 6.3 7.3 6.55 7.3 6.65 7.45 6.8 8.05 6.75 8.35 6.75 8.5 6.75 8.55 6.7 8.55 6.65 8.85 6.5 9.3 5.45 9.8 Q2.3 10.95 -0.95 10.55 L-3.75 10.5 -5.25 10.45 -6.7 9.8 -6.8 9.65 -6.85 9.65 -7.0 9.65 -7.05 9.6 -7.2 9.1 Q-6.75 8.95 -6.05 9.4 L-4.5 9.75 -3.1 9.8 -1.55 9.85 0.15 9.8 1.25 9.85" fill="#333333" fill-rule="evenodd" stroke="none"/>
    <path d="M10.7 -5.05 L10.8 -4.95 10.9 -4.65 11.55 -3.0 11.55 -2.7 11.5 -2.45 11.4 -2.15 11.15 -1.9 10.0 -1.0 9.75 -0.95 8.5 -0.35 8.05 -0.25 6.85 -0.1 Q4.4 -0.05 2.1 -1.0 L2.0 -1.1 1.95 -1.35 1.95 -1.55 2.25 -1.9 5.6 -1.3 7.0 -1.35 8.65 -1.65 9.05 -1.75 9.45 -1.95 Q10.0 -2.25 10.55 -2.9 L10.5 -3.05 10.5 -3.15 10.35 -3.55 10.3 -3.65 10.25 -3.8 9.65 -4.55 7.6 -4.6 6.35 -4.65 6.3 -4.65 4.55 -4.55 Q3.6 -4.3 3.45 -5.0 L4.1 -5.1 5.9 -5.25 7.55 -5.4 8.7 -5.5 9.6 -5.55 10.7 -5.05" fill="#333333" fill-rule="evenodd" stroke="none"/>
    <path d="M4.55 -2.6 L4.6 -2.55 4.7 -2.3 4.6 -1.9 4.6 -1.85 Q5.15 -2.0 5.6 -2.55 L5.8 -2.45 Q6.1 -2.2 6.0 -1.95 6.45 -1.9 6.5 -2.25 6.6 -2.75 7.0 -2.4 L6.95 -2.1 Q6.55 -1.2 5.85 -1.55 5.5 -2.2 4.95 -1.4 L4.1 -1.45 Q3.45 -0.9 3.1 -1.05 L3.05 -1.2 3.35 -2.1 3.85 -2.75 3.3 -1.4 Q3.6 -1.2 3.95 -1.9 L4.55 -2.6" fill="#333333" fill-rule="evenodd" stroke="none"/>
    <path d="M-2.8 -3.3 L-2.8 -3.35 Q-3.6 -3.35 -4.3 -3.7 L-1.95 -3.6 -1.95 -3.55 -2.35 -2.95 -3.35 -2.4 -4.05 -1.85 -1.3 -1.65 -1.45 -1.5 -2.15 -0.5 -2.55 0.15 -0.4 -0.05 -0.35 0.1 Q-0.25 0.6 -0.5 1.05 L-0.85 1.85 -0.55 1.75 0.15 1.65 0.6 1.35 1.2 1.35 1.45 1.5 1.5 1.6 1.65 2.5 1.75 2.65 1.95 2.4 2.15 2.05 Q2.45 1.6 2.95 1.9 L3.45 2.8 4.4 1.8 4.5 1.8 5.05 2.05 5.15 2.3 5.2 2.4 5.35 2.5 6.0 2.1 6.4 2.15 6.1 2.7 5.1 2.75 4.65 2.45 4.15 2.85 3.9 3.15 Q3.6 3.55 3.25 3.35 L3.1 3.2 2.85 2.75 2.65 2.5 2.6 2.5 1.8 3.4 1.05 3.6 1.1 1.95 1.05 1.9 Q0.7 1.85 0.2 2.15 L0.0 2.3 -1.35 2.75 -1.45 2.25 -1.25 1.35 -0.85 0.45 -3.05 0.65 -2.95 0.0 -2.05 -1.4 -4.0 -1.4 Q-4.75 -1.15 -4.8 -1.7 L-4.4 -2.4 -2.8 -3.3" fill="#333333" fill-rule="evenodd" stroke="none"/>
  </g>
</svg>
