<?xml version="1.0" encoding="UTF-8" standalone="no"?>
<svg xmlns:xlink="http://www.w3.org/1999/xlink" height="21.1px" width="23.55px" xmlns="http://www.w3.org/2000/svg">
  <g transform="matrix(1.0, 0.0, 0.0, 1.0, 11.55, 10.75)">
    <path d="M3.0 -9.75 L3.45 -9.6 3.7 -9.45 3.8 -9.25 3.95 -9.05 4.0 -8.85 4.0 -8.7 4.0 -8.5 4.15 -8.3 4.15 -8.1 4.2 -7.95 4.2 -7.75 4.2 -7.55 4.2 -7.35 4.1 -7.2 4.0 -7.0 3.9 -6.8 3.75 -6.6 3.65 -6.45 3.5 -6.25 3.4 -6.05 3.05 -5.9 2.7 -5.7 2.25 -5.55 -2.3 -5.7 -2.55 -5.75 -4.5 -5.95 -4.95 -6.05 -5.1 -6.25 -5.25 -6.45 -5.3 -6.65 -5.3 -6.8 -5.3 -7.0 -5.3 -7.2 -5.35 -7.35 -5.45 -7.55 -5.45 -7.75 -5.45 -7.95 -5.4 -8.1 -5.35 -8.3 -5.3 -8.5 -5.1 -8.7 -4.95 -8.85 -4.5 -9.25 -4.1 -9.6 -3.95 -9.75 -3.5 -9.85 -1.85 -9.95 -1.5 -10.0 -0.5 -10.0 2.25 -10.0 2.7 -9.85 3.0 -9.75" fill="#663333" fill-opacity="0.101960786" fill-rule="evenodd" stroke="none"/>
    <path d="M5.3 -7.8 L5.55 -7.55 5.8 -7.35 5.95 -7.2 6.05 -7.0 6.2 -6.8 6.25 -6.6 6.25 -6.45 6.2 -6.25 6.15 -6.05 6.0 -5.9 5.8 -5.7 5.55 -5.5 5.45 -5.3 5.25 -5.1 5.05 -4.95 4.9 -4.8 4.4 -4.7 4.0 -4.5 3.75 -4.35 3.25 -4.3 -4.0 -4.75 -7.25 -5.35 -7.5 -5.55 -7.6 -5.75 -7.7 -5.95 -7.75 -6.15 -7.75 -6.3 -7.75 -6.5 -7.65 -6.7 -7.55 -6.85 -7.35 -7.05 -7.1 -7.2 -6.8 -7.35 -6.7 -7.5 -6.65 -7.7 -6.55 -7.85 -6.45 -8.05 -6.3 -8.25 -6.2 -8.45 -6.1 -8.6 -6.05 -8.8 -6.0 -9.0 -5.8 -9.2 -5.5 -9.35 -4.9 -9.75 -3.7 -10.5 -3.5 -10.6 -3.35 -10.65 -3.0 -10.7 -3.0 -10.75 0.25 -10.75 0.75 -10.6 1.1 -10.4 1.35 -10.25 1.55 -10.05 1.65 -9.85 1.7 -9.7 1.75 -9.5 1.75 -9.4 4.0 -9.2 4.45 -9.05 4.7 -8.85 4.85 -8.7 5.0 -8.5 5.1 -8.3 5.2 -8.1 5.2 -7.95 5.3 -7.8" fill="#663333" fill-opacity="0.101960786" fill-rule="evenodd" stroke="none"/>
    <path d="M-5.5 -5.2 L-5.0 -5.05 -4.5 -4.85 -4.1 -4.7 -3.95 -4.5 -3.75 -4.3 -3.7 -4.1 -3.6 -3.95 -3.55 -3.75 -3.55 -3.55 -3.55 -3.35 -3.55 -3.2 -3.55 -2.8 -3.55 -2.25 -3.55 -1.85 -3.65 -1.7 -3.75 -1.5 -3.9 -1.3 -4.05 -1.15 -4.55 -0.75 -4.65 -0.55 -4.75 -0.35 -4.85 -0.2 -5.1 0.0 -5.25 0.15 -5.4 0.15 -5.75 0.25 -6.75 0.25 -7.25 0.15 -7.5 0.0 -8.0 -0.1 -8.35 -0.3 -8.7 -0.5 -8.85 -0.7 -9.05 -0.9 -9.2 -1.05 -9.25 -1.25 -9.25 -1.45 -9.25 -1.8 -9.25 -2.55 -9.25 -3.5 -9.15 -3.7 -9.05 -3.85 -8.85 -4.05 -8.55 -4.25 -8.35 -4.45 -8.05 -4.6 -7.7 -4.8 -7.3 -5.0 -7.05 -5.1 -6.75 -5.15 -6.75 -5.2 -5.5 -5.2" fill="#663333" fill-opacity="0.101960786" fill-rule="evenodd" stroke="none"/>
    <path d="M-6.5 -4.2 L-6.2 -4.05 -6.1 -3.85 -6.05 -3.7 -6.0 -3.5 -5.95 -3.3 -5.95 -3.1 -5.95 -2.95 -6.0 -2.75 -6.05 -2.55 -6.25 -2.35 -6.35 -2.2 -6.4 -2.0 -6.45 -1.6 -6.4 -1.05 -6.5 -0.5 -6.6 -0.35 -6.75 -0.15 -6.95 0.0 -7.25 0.05 -8.5 0.05 -8.95 -0.05 -9.1 -0.25 -9.3 -0.45 -9.5 -0.6 -9.55 -1.0 -9.55 -1.55 -9.55 -2.3 -9.55 -2.7 -9.5 -2.85 -9.3 -3.05 -9.1 -3.25 -8.75 -3.6 -8.45 -3.8 -8.2 -3.95 -8.05 -4.0 -7.7 -4.1 -7.5 -4.25 -7.25 -4.3 -6.75 -4.25 -6.5 -4.2" fill="#663333" fill-opacity="0.101960786" fill-rule="evenodd" stroke="none"/>
    <path d="M5.3 -6.25 L5.25 -6.15 4.9 -6.0 4.85 -5.8 4.8 -5.6 4.8 -5.25 4.8 -4.7 4.8 -4.3 4.75 -4.1 4.7 -3.95 4.75 -3.75 4.8 -3.55 4.8 -3.35 4.8 -3.2 4.8 -3.0 4.8 -2.8 4.8 -2.6 4.75 -2.45 4.65 -2.25 4.6 -2.05 4.55 -1.85 4.55 -1.7 4.55 -1.5 4.55 -1.1 4.6 -1.0 5.0 -0.75 5.25 -0.55 5.45 -0.35 5.6 -0.2 5.95 0.2 6.05 0.4 6.15 0.55 6.2 0.75 6.25 0.95 6.3 1.15 6.4 1.3 6.4 1.5 6.4 1.7 6.35 1.85 6.35 2.25 6.3 2.8 6.3 3.0 6.2 3.2 6.1 3.35 6.0 3.55 6.0 3.75 6.05 3.95 6.15 4.15 6.15 4.3 6.15 5.45 6.15 6.75 6.1 8.25 6.05 8.65 6.0 8.8 5.9 9.0 5.8 9.15 5.5 9.55 5.25 9.75 4.75 9.9 3.75 9.9 3.25 9.75 2.9 9.55 2.5 9.4 2.15 9.2 1.95 9.0 1.75 8.8 1.7 8.65 1.65 8.45 1.65 8.25 1.65 8.05 1.55 7.9 1.45 7.7 1.4 7.3 1.4 5.65 1.4 4.15 1.45 2.05 1.35 1.9 1.25 1.7 1.2 1.5 1.1 1.3 1.0 1.15 0.95 0.95 0.95 0.4 0.95 -0.55 0.95 -1.1 0.95 -1.7 1.0 -1.85 1.05 -2.05 0.95 -2.2 0.65 -2.45 0.45 -2.65 0.2 -3.0 -0.25 -3.55 -0.7 -4.1 -0.75 -4.3 -0.75 -4.7 -0.75 -5.25 -0.75 -6.0 -0.75 -6.2 -0.7 -6.35 -0.6 -6.55 -0.55 -6.75 -0.5 -6.95 -0.45 -7.1 -0.3 -7.3 0.0 -7.7 0.55 -8.25 1.0 -8.6 1.5 -8.7 1.5 -8.75 3.25 -8.75 3.7 -8.6 4.0 -8.45 4.2 -8.25 4.3 -8.05 4.4 -7.85 4.45 -7.7 4.5 -7.5 4.5 -7.3 4.5 -7.1 4.5 -7.05 5.0 -6.95 5.3 -6.75 5.4 -6.6 5.4 -6.45 5.3 -6.25" fill="#663333" fill-opacity="0.101960786" fill-rule="evenodd" stroke="none"/>
    <path d="M1.75 -9.5 L1.9 -9.45 2.4 -9.3 2.55 -9.1 2.6 -8.95 2.5 -8.75 2.25 -8.6 1.75 -8.5 1.45 -8.3 1.25 -8.1 1.05 -7.95 1.3 -7.75 2.05 -7.35 2.45 -6.95 2.8 -6.45 2.85 -6.25 2.95 -6.05 3.05 -5.85 Q3.2 -5.8 3.3 -5.7 L3.55 -5.5 3.7 -5.3 3.8 -5.1 3.85 -4.95 3.9 -4.75 4.0 -4.55 4.1 -4.4 4.2 -4.2 4.7 -2.7 4.9 -1.35 4.9 0.5 4.9 2.0 4.8 2.2 4.75 2.4 4.7 2.55 4.55 2.75 4.5 2.95 4.45 3.15 4.05 3.5 3.9 3.7 3.7 3.9 3.7 4.05 3.7 4.25 3.7 4.45 3.7 4.65 3.75 4.8 3.8 5.0 3.9 5.2 3.95 5.4 3.95 5.75 3.95 5.95 3.95 6.15 3.95 6.5 4.0 6.55 4.25 6.45 4.5 6.3 4.75 6.25 5.05 6.4 5.2 6.55 5.25 6.75 5.2 6.95 5.05 7.15 4.75 7.3 4.45 7.5 4.25 7.7 4.0 8.3 3.55 9.0 3.3 9.35 2.65 9.9 0.75 9.95 -0.75 9.9 -1.25 9.75 -1.7 9.35 -1.85 9.2 -2.05 9.0 -2.15 8.8 -2.25 8.6 -2.3 8.45 -2.4 7.7 -2.35 7.15 -2.35 6.55 -2.35 6.0 -2.35 5.45 -2.3 5.25 -2.25 5.05 -2.2 4.9 -2.1 4.7 -2.15 4.5 -2.2 4.3 -2.25 4.15 -2.3 3.95 -2.35 3.75 -2.35 3.0 -2.35 2.45 -2.35 1.9 -2.35 1.3 -2.35 0.75 -2.3 0.55 -2.2 0.4 Q-2.2 -0.05 -2.65 -0.4 L-3.3 -1.1 -3.8 -1.85 -4.05 -2.25 -4.15 -3.2 -4.1 -3.95 -4.1 -4.7 -4.15 -5.6 -4.05 -6.2 -3.9 -6.55 -3.8 -6.75 -3.5 -7.3 -3.3 -7.5 -3.1 -7.7 -2.75 -7.85 -2.5 -8.0 -2.0 -8.1 -1.0 -8.15 -0.6 -8.2 -0.2 -8.55 0.0 -8.75 0.5 -9.15 0.65 -9.25 0.75 -9.3 1.15 -9.4 1.5 -9.55 1.75 -9.5" fill="#663333" fill-opacity="0.101960786" fill-rule="evenodd" stroke="none"/>
    <path d="M4.55 -3.85 L7.5 -3.75 8.0 -3.6 8.35 -3.45 8.55 -3.3 9.0 -3.3 9.5 -3.2 9.75 -3.0 9.85 -2.8 9.95 -2.65 10.05 -2.45 10.05 -2.25 10.05 -2.05 10.05 -1.85 10.0 -1.7 9.9 -1.5 9.8 -1.3 9.7 -0.95 9.65 -0.75 9.55 -0.55 9.2 -0.2 9.0 0.0 8.75 0.2 7.55 0.4 7.4 0.4 2.5 0.5 2.0 0.4 1.3 0.0 0.95 -0.4 0.8 -0.55 0.75 -0.95 0.75 -1.1 0.75 -1.3 0.75 -1.7 0.75 -1.85 0.75 -2.05 0.75 -2.25 0.85 -2.45 0.95 -2.6 1.15 -2.8 1.9 -3.15 2.45 -3.35 3.4 -3.7 3.8 -3.8 4.0 -3.95 4.05 -4.0 4.25 -4.0 4.4 -4.0 4.55 -3.85" fill="#663333" fill-opacity="0.101960786" fill-rule="evenodd" stroke="none"/>
    <path d="M1.0 -2.7 L1.5 -2.8 5.25 -2.85 5.4 -2.9 5.75 -3.0 7.0 -3.2 7.25 -3.35 8.5 -3.7 10.5 -4.0 11.0 -4.0 11.45 -3.85 11.7 -3.7 11.8 -3.5 11.95 -3.3 12.0 -3.1 12.0 -2.95 11.95 -2.75 11.9 -2.55 11.75 -2.4 11.55 -2.2 11.2 -2.0 11.0 -1.8 10.95 -1.6 10.9 -1.45 10.9 -1.25 10.8 -1.05 10.7 -0.85 10.45 -0.7 10.0 -0.55 1.5 -0.7 1.0 -0.8 0.75 -1.0 0.6 -1.2 0.5 -1.35 0.45 -1.55 0.45 -1.75 0.45 -1.95 0.5 -2.1 0.6 -2.3 0.75 -2.5 1.0 -2.7" fill="#663333" fill-opacity="0.101960786" fill-rule="evenodd" stroke="none"/>
    <path d="M-4.8 0.25 L-4.8 0.35 -4.75 0.45 -4.75 0.55 -4.8 0.6 -4.85 0.7 -4.9 0.8 -5.0 0.9 -5.0 1.1 -5.0 1.3 -4.95 1.45 -4.95 1.55 -4.95 1.65 -4.9 1.75 -4.9 1.85 -4.9 1.95 -4.8 2.05 -4.8 2.1 -4.75 2.2 -4.7 2.3 -4.65 2.4 -4.45 2.95 -4.3 3.55 -4.15 4.0 -4.15 5.2 -4.15 6.45 -4.15 7.45 -4.15 7.55 -4.2 7.65 -4.3 7.85 -4.35 8.05 -4.4 8.2 -4.45 8.3 -4.5 8.4 -4.55 8.5 -4.6 8.6 -5.0 9.0 -5.2 9.35 -5.25 9.45 -5.4 9.55 -5.45 9.6 -5.65 9.6 -5.9 9.55 -6.05 9.45 -6.1 9.35 -6.15 9.3 -6.2 9.0 -6.2 8.7 -6.2 8.55 -6.2 8.45 -6.25 8.5 -6.35 8.6 -6.45 8.7 -6.55 8.75 -6.6 8.75 -6.75 8.8 -6.95 8.75 -7.1 8.65 -7.2 8.55 -7.2 7.55 -7.1 6.4 -6.9 5.55 -6.7 4.35 -6.55 3.05 -6.55 2.0 -6.5 1.9 -6.45 1.8 -6.4 1.7 -6.35 1.45 -6.4 1.15 -6.4 0.85 -6.4 0.8 -6.4 0.7 -6.35 0.6 -6.3 0.5 -6.2 0.4 -6.15 0.35 -6.05 0.3 -5.9 0.3 -5.75 0.3 -5.7 0.35 -5.55 0.3 -5.45 0.2 -5.4 0.15 -5.3 0.15 -5.15 0.1 -4.95 0.1 -4.85 0.1 -4.75 0.05 -4.7 0.05 -4.75 0.15 -4.8 0.25 M-5.4 3.65 L-5.4 4.6 -5.3 5.55 -5.2 6.05 -5.2 5.4 -5.2 4.75 -5.2 4.3 -5.3 4.0 -5.35 3.7 -5.4 3.65" fill="#ffffff" fill-opacity="0.101960786" fill-rule="evenodd" stroke="none"/>
    <path d="M-10.15 -5.0 L-10.05 -5.1 -9.95 -5.2 -9.75 -5.35 -9.7 -5.35 -9.45 -5.45 -9.1 -5.6 -8.5 -5.8 -8.2 -5.9 -8.0 -5.9 -6.65 -5.9 -6.0 -5.85 -5.8 -5.75 -5.6 -5.7 -5.4 -5.6 -5.2 -5.55 -5.15 -5.45 -5.05 -5.35 -5.05 -5.3 -5.05 -5.2 -5.1 -5.1 -5.15 -5.0 -5.2 -4.95 -5.25 -4.9 -5.45 -4.9 -5.45 -4.8 -5.4 -4.7 -5.4 -4.6 -5.4 -4.5 -5.45 -4.4 -5.5 -4.3 -5.65 -4.25 -5.8 -4.3 -5.9 -4.35 -6.05 -4.4 -6.15 -4.4 -6.4 -4.4 -6.65 -4.45 -6.8 -4.55 -7.0 -4.65 -7.15 -4.75 -7.2 -4.8 -7.25 -4.85 -8.05 -4.85 -8.55 -4.75 -9.05 -4.45 -9.15 -4.4 -9.25 -4.3 -9.3 -4.2 -9.3 -4.1 -9.35 -4.0 -9.4 -3.9 -9.4 -3.8 -9.4 -3.7 -9.4 -3.65 -9.4 -3.45 -9.4 -3.25 -9.4 -2.9 -9.4 -2.8 -9.4 -2.7 -9.35 -2.6 -9.3 -2.5 -9.3 -2.4 -9.25 -2.3 -9.25 -2.2 -9.2 -2.05 -9.15 -1.95 -9.1 -1.85 -9.05 -1.75 -9.05 -1.65 -9.0 -1.55 -9.0 -1.45 -9.0 -1.4 -9.0 -1.3 -9.0 -1.2 -9.0 -1.1 -9.0 -1.0 -9.0 -0.8 -9.05 -0.65 -9.05 -0.55 -9.15 -0.45 -9.2 -0.35 -9.3 -0.3 -9.5 -0.25 -9.65 -0.25 -9.9 -0.3 -10.05 -0.4 -10.1 -0.5 -10.15 -0.6 -10.25 -0.7 -10.35 -0.8 -10.4 -0.9 -10.4 -0.95 -10.5 -1.05 -10.55 -1.15 -10.65 -1.25 -10.65 -1.35 -10.7 -1.45 -10.75 -1.55 -10.8 -1.65 -10.85 -1.7 -10.85 -1.8 -10.9 -1.9 -10.9 -2.0 -10.9 -2.2 -10.9 -2.4 -10.85 -2.75 -10.85 -2.95 -10.8 -3.05 -10.75 -3.15 -10.7 -3.2 -10.65 -3.3 -10.65 -3.4 -10.55 -3.5 -10.45 -3.6 -10.45 -3.7 -10.45 -3.8 -10.4 -3.9 -10.4 -3.95 -10.4 -4.05 -10.4 -4.25 -10.4 -4.55 -10.4 -4.65 -10.35 -4.7 -10.3 -4.8 -10.2 -4.9 -10.15 -5.0" fill="#ffffff" fill-opacity="0.101960786" fill-rule="evenodd" stroke="none"/>
    <path d="M4.85 -4.8 L5.15 -5.05 5.45 -5.25 5.7 -5.35 5.95 -5.4 6.1 -5.4 6.25 -5.4 6.25 -5.45 8.0 -5.35 9.0 -5.4 9.35 -5.35 9.55 -5.3 9.6 -5.2 9.65 -5.1 9.65 -5.0 9.65 -4.9 9.6 -4.8 9.55 -4.7 9.6 -4.6 9.65 -4.55 9.7 -4.45 9.75 -4.35 9.75 -4.25 9.75 -4.15 9.8 -4.05 9.8 -3.95 9.8 -3.9 9.75 -3.8 9.7 -3.7 9.7 -3.6 9.65 -3.5 9.6 -3.4 9.55 -3.3 9.55 -3.2 9.5 -3.15 9.4 -3.05 9.35 -2.95 9.3 -2.95 9.05 -2.85 8.85 -2.8 8.75 -2.7 8.65 -2.6 8.55 -2.5 8.45 -2.4 8.3 -2.3 8.1 -2.25 7.5 -2.25 7.25 -2.3 7.1 -2.4 7.05 -2.5 7.05 -2.6 7.0 -2.7 7.0 -2.8 7.0 -2.9 6.0 -2.95 5.35 -3.1 4.8 -3.4 4.7 -3.45 4.65 -3.55 4.65 -3.65 4.6 -3.75 4.6 -3.85 4.6 -3.95 4.6 -4.05 4.6 -4.15 4.65 -4.2 4.65 -4.4 4.7 -4.5 4.75 -4.6 4.8 -4.7 4.85 -4.8 M5.75 -3.95 L5.85 -3.9 6.6 -3.95 6.55 -4.05 6.55 -4.15 6.55 -4.2 6.55 -4.3 6.55 -4.4 6.55 -4.45 6.1 -4.5 6.05 -4.5 5.85 -4.4 5.7 -4.3 5.65 -4.2 5.55 -4.15 5.6 -4.05 5.7 -3.95 5.75 -3.95" fill="#ffffff" fill-opacity="0.101960786" fill-rule="evenodd" stroke="none"/>
    <path d="M9.45 -4.9 L9.7 -4.8 9.85 -4.7 9.95 -4.6 10.05 -4.55 10.1 -4.45 10.15 -4.35 10.2 -4.25 10.2 -4.15 10.2 -4.05 10.2 -3.95 10.15 -3.9 10.1 -3.8 10.05 -3.7 9.95 -3.5 9.7 -3.2 9.45 -3.05 9.25 -2.95 9.15 -2.9 9.0 -2.85 8.1 -2.85 7.85 -2.9 7.8 -3.0 7.7 -3.1 7.7 -3.2 7.7 -3.3 7.7 -3.4 7.7 -3.45 7.7 -3.55 7.75 -3.65 7.8 -3.75 7.9 -3.85 8.0 -3.95 8.15 -4.05 8.1 -4.1 8.05 -4.2 8.05 -4.3 8.05 -4.4 8.05 -4.5 8.05 -4.6 8.05 -4.7 8.15 -4.8 8.2 -4.9 8.35 -4.95 8.5 -4.95 9.25 -4.95 9.45 -4.9" fill="#ffffff" fill-opacity="0.101960786" fill-rule="evenodd" stroke="none"/>
    <path d="M-10.2 -4.3 L-10.35 -3.95 Q-10.9 -3.1 -10.65 -2.15 L-10.35 -1.25 Q-10.1 -0.45 -8.95 0.1 -7.85 0.65 -6.05 0.1 L-5.7 -0.4 -5.25 -0.7 -4.65 -0.55 Q-4.65 0.15 -5.25 0.65 -5.8 1.15 -6.5 1.35 L-8.3 1.3 -9.7 0.8 -10.75 -0.1 Q-11.35 -1.0 -11.5 -2.0 L-11.45 -3.4 Q-11.2 -4.45 -10.55 -5.15 -9.2 -6.5 -7.5 -6.05 -6.15 -5.7 -5.3 -4.75 L-5.3 -4.6 Q-5.2 -4.3 -5.5 -4.1 L-5.6 -4.4 Q-6.35 -5.25 -7.35 -5.55 -9.0 -5.65 -10.1 -4.5 L-10.2 -4.3" fill="#333333" fill-rule="evenodd" stroke="none"/>
    <path d="M-6.9 -4.0 Q-6.95 -3.7 -7.15 -3.75 -7.85 -4.1 -8.3 -3.4 L-8.45 -3.2 Q-8.85 -2.5 -8.4 -1.6 -7.85 -0.95 -6.8 -1.25 -6.2 -1.3 -6.45 -0.85 L-8.65 -0.8 -9.25 -1.65 -9.2 -3.15 -8.4 -4.2 -8.15 -4.3 Q-7.4 -4.5 -6.9 -4.0" fill="#333333" fill-rule="evenodd" stroke="none"/>
    <path d="M3.55 -4.4 Q3.35 -4.55 3.5 -4.85 3.6 -5.2 4.9 -5.25 L6.85 -5.5 8.0 -5.75 9.3 -5.75 9.6 -5.55 10.25 -5.2 Q10.45 -4.9 10.8 -4.75 L11.2 -4.55 11.35 -4.3 11.45 -4.15 11.45 -4.0 11.45 -3.0 Q11.2 -2.05 10.5 -1.45 8.4 0.35 6.55 0.2 4.65 0.0 3.35 -0.65 2.0 -1.3 2.2 -1.3 L2.35 -1.4 2.3 -2.05 Q2.55 -2.25 3.1 -1.7 3.6 -1.15 6.3 -1.05 8.95 -0.95 10.25 -3.0 L10.35 -3.2 10.4 -3.45 10.45 -3.65 9.7 -4.5 8.5 -4.9 3.55 -4.4" fill="#333333" fill-rule="evenodd" stroke="none"/>
    <path d="M5.0 -1.85 L4.75 -2.05 3.65 -1.95 3.65 -2.05 3.6 -2.3 3.6 -2.4 3.75 -2.5 3.85 -2.4 Q4.3 -2.1 4.8 -2.65 5.2 -3.05 5.2 -2.4 5.25 -1.75 5.95 -2.0 6.75 -2.3 6.7 -3.05 6.95 -3.25 7.1 -2.9 7.25 -2.55 7.05 -2.3 L6.6 -1.85 5.75 -1.6 5.0 -1.85" fill="#333333" fill-rule="evenodd" stroke="none"/>
    <path d="M5.35 -7.95 L5.4 -7.75 5.55 -7.25 5.65 -6.55 5.8 -6.05 Q6.05 -5.5 5.55 -4.9 5.1 -5.55 5.0 -6.55 4.95 -7.1 4.5 -7.65 L3.95 -8.35 Q2.55 -9.75 0.4 -9.8 L-3.15 -9.7 -4.1 -9.3 -4.75 -8.95 -4.9 -8.8 -5.1 -8.5 -5.25 -8.15 -5.65 -7.05 -5.8 -5.65 -5.9 -5.4 -6.2 -5.2 -6.45 -5.4 Q-6.7 -5.7 -6.65 -6.3 L-6.25 -8.05 -5.55 -9.2 -4.6 -10.0 -2.7 -10.6 -1.05 -10.55 0.55 -10.65 0.85 -10.5 2.05 -10.4 Q3.05 -10.05 3.65 -9.55 L5.05 -8.3 5.25 -8.15 5.35 -7.95" fill="#333333" fill-rule="evenodd" stroke="none"/>
    <path d="M-6.15 0.6 L-6.15 1.4 -6.15 8.65 Q-6.45 9.3 -6.95 8.9 -7.2 8.05 -7.0 7.05 L-6.9 5.9 -6.9 4.75 -6.9 3.6 -6.8 1.65 -6.6 0.65 Q-6.45 0.1 -6.15 0.6" fill="#333333" fill-rule="evenodd" stroke="none"/>
    <path d="M5.8 -0.15 L5.85 -0.2 6.15 0.05 Q6.5 1.1 6.5 2.25 6.5 3.85 6.65 5.25 L6.9 7.9 6.9 8.1 6.95 8.45 6.5 8.85 Q6.1 8.9 6.05 8.6 L5.9 6.9 5.75 5.05 Q5.5 4.1 5.55 3.1 L5.55 1.3 5.65 0.15 5.8 -0.15" fill="#333333" fill-rule="evenodd" stroke="none"/>
    <path d="M0.7 9.5 L2.3 9.5 4.15 9.2 5.35 8.9 5.4 8.8 5.5 8.7 5.5 8.6 5.55 8.55 5.6 8.45 5.65 8.35 5.7 8.25 6.3 8.3 6.35 8.45 6.35 8.5 6.35 8.6 6.35 8.7 6.3 8.75 6.25 8.85 5.95 9.45 Q2.7 10.6 -0.9 10.25 L-2.6 10.25 -3.95 10.1 -5.8 9.85 -6.45 9.5 -6.75 9.3 Q-7.15 9.1 -6.9 8.6 L-6.7 8.6 Q-6.35 8.7 -6.1 9.1 L-5.75 9.2 -4.0 9.4 -2.65 9.5 -1.0 9.5 0.7 9.5" fill="#333333" fill-rule="evenodd" stroke="none"/>
    <path d="M-4.55 -5.55 L-4.35 -5.55 -4.25 -4.6 -3.9 -1.8 -3.3 -0.3 -2.9 0.4 -2.1 1.35 -1.05 2.1 0.05 2.85 1.25 3.2 2.85 3.25 4.05 3.25 4.95 2.75 5.8 2.25 Q6.55 1.7 6.8 2.15 L5.6 3.35 4.1 4.0 2.45 4.15 0.8 3.8 -0.65 3.1 -2.1 2.2 -3.2 1.0 -3.9 -0.1 -4.4 -1.35 -4.65 -2.4 -4.7 -3.4 -4.7 -4.5 -4.55 -5.55" fill="#333333" fill-rule="evenodd" stroke="none"/>
    <path d="M-2.2 -4.8 Q-1.85 -5.45 -1.85 -4.85 L-1.65 -2.4 -1.55 -1.85 -1.4 -1.55 -1.3 -1.25 -0.95 -0.5 0.5 0.65 Q1.6 1.2 2.9 1.4 L5.4 1.35 5.75 0.8 5.9 0.75 6.0 0.85 6.1 1.0 6.1 1.35 6.0 1.65 6.0 1.75 5.95 1.8 5.85 2.0 5.6 2.1 3.85 2.2 2.25 2.05 1.6 1.8 0.0 1.25 -1.25 0.3 -2.05 -1.35 Q-2.4 -2.35 -2.35 -3.2 L-2.2 -4.8" fill="#333333" fill-rule="evenodd" stroke="none"/>
    <path d="M-2.1 -3.5 L-2.15 -3.25 -3.5 -2.2 -1.85 -1.9 -1.85 -1.85 Q-1.65 -1.0 -2.0 -0.3 L-2.35 0.35 -1.7 0.25 Q-1.2 0.05 -0.9 0.25 L-0.95 0.45 -1.1 1.05 -1.3 1.75 -0.45 1.7 0.1 1.35 Q0.75 0.85 1.2 1.35 L1.2 1.5 1.4 2.35 1.55 2.7 1.6 2.7 1.9 2.35 2.35 1.75 2.6 1.5 2.85 1.7 3.25 2.5 3.55 2.85 4.1 1.95 4.6 1.9 4.65 1.95 4.9 2.35 Q5.05 2.65 5.15 2.4 L5.5 2.0 5.7 2.2 5.7 2.65 5.55 2.9 Q5.15 3.25 4.75 2.8 4.4 2.4 4.3 2.6 L4.0 3.05 3.75 3.3 3.6 3.4 3.4 3.35 2.9 2.8 2.6 2.25 2.1 2.85 Q1.75 3.35 1.25 3.35 L1.2 3.25 1.0 2.65 0.65 1.7 -0.6 2.1 -1.8 2.25 -1.75 1.25 -1.6 0.9 -2.3 0.95 Q-2.65 1.2 -2.95 0.95 L-2.85 0.3 -2.3 -0.75 -2.2 -1.55 -2.6 -1.6 Q-3.7 -1.55 -4.35 -2.1 L-2.7 -3.15 -3.45 -3.05 -4.0 -3.6 -2.1 -3.5" fill="#333333" fill-rule="evenodd" stroke="none"/>
    <path d="M-4.1 -5.75 L-4.05 -5.7 -4.05 -4.9 -4.0 -4.05 -4.05 -3.5 -4.1 -3.45 -4.1 -3.4 -4.2 -3.35 -4.3 -3.4 -4.35 -3.45 -4.4 -3.75 -4.35 -4.1 -4.35 -4.4 -4.4 -4.45 -4.4 -4.5 -4.4 -4.65 -4.4 -4.85 -4.4 -5.05 -4.4 -5.1 -4.45 -5.15 -4.45 -5.2 -4.5 -5.25 -4.5 -5.45 -4.45 -5.5 -4.45 -5.6 -4.4 -5.65 -4.4 -5.7 -4.35 -5.75 -4.35 -5.8 -4.15 -5.8 -4.1 -5.75" fill="#333333" fill-rule="evenodd" stroke="none"/>
    <path d="M-1.85 -5.6 L-1.8 -5.3 -1.8 -4.9 -1.85 -4.5 -1.9 -4.45 -1.95 -4.4 -1.95 -4.05 -1.95 -4.0 -1.95 -3.85 -1.9 -3.75 -1.9 -3.6 -1.85 -3.55 -1.8 -3.5 -1.8 -3.45 -1.75 -3.4 -1.8 -3.4 -1.8 -3.25 -1.95 -3.25 -2.0 -3.2 -2.1 -3.25 -2.15 -3.3 -2.15 -3.35 -2.2 -3.4 -2.25 -3.45 -2.25 -3.55 -2.3 -3.6 -2.3 -3.75 -2.3 -3.85 -2.25 -3.9 -2.3 -3.95 -2.3 -4.05 -2.35 -4.45 -2.3 -4.95 -2.3 -5.4 -2.3 -5.45 -2.25 -5.5 -2.25 -5.6 -2.2 -5.65 -2.2 -5.7 -2.15 -5.7 -2.15 -5.75 -2.05 -5.75 -1.95 -5.75 -1.85 -5.65 -1.85 -5.6" fill="#333333" fill-rule="evenodd" stroke="none"/>
  </g>
</svg>
