<?xml version="1.0" encoding="UTF-8" standalone="no"?>
<svg xmlns:xlink="http://www.w3.org/1999/xlink" height="47.55px" width="32.25px" xmlns="http://www.w3.org/2000/svg">
  <g transform="matrix(1.0, 0.0, 0.0, 1.0, 16.4, 23.5)">
    <path d="M5.15 -14.95 L6.0 -13.7 Q6.5 -12.7 7.35 -11.95 L7.8 -11.4 8.0 -10.8 8.2 -10.2 8.4 -9.6 8.6 -9.0 8.6 -7.8 8.6 -4.8 8.6 -3.0 8.55 -1.2 8.4 -0.6 8.15 0.0 7.9 0.65 7.8 1.2 7.8 1.8 7.8 2.4 7.8 3.0 7.8 3.6 7.6 4.2 7.4 4.8 7.2 5.4 7.0 6.0 7.25 6.6 7.55 7.2 7.8 7.8 7.95 9.0 8.0 11.4 8.0 12.6 7.95 14.4 7.8 15.0 7.35 15.6 6.8 16.2 6.0 16.8 5.55 17.4 5.0 18.0 4.4 18.6 3.6 19.2 3.2 19.8 2.4 20.4 0.8 20.8 -1.6 20.8 -3.0 20.4 -4.0 19.8 -4.55 19.2 -5.0 18.6 -5.2 18.0 -5.4 17.4 -6.0 16.8 -6.55 16.15 -6.8 15.6 -7.0 15.0 -7.2 14.4 -7.4 13.8 -7.75 13.2 -8.0 12.6 -8.0 11.4 -8.0 9.0 -8.0 7.8 -7.95 6.0 -7.8 5.4 -7.4 4.8 -7.0 4.2 -6.2 3.6 -5.2 3.0 -4.2 2.4 -5.6 2.0 -6.6 1.8 -7.2 1.35 -7.75 0.8 -8.2 0.2 -8.35 -0.4 -8.4 -1.0 -8.75 -1.6 -9.0 -2.2 Q-9.45 -4.25 -9.4 -6.4 L-9.4 -11.2 Q-9.45 -12.75 -9.0 -14.2 L-8.8 -14.8 -8.35 -15.4 -7.8 -16.0 -6.4 -16.4 -4.0 -16.4 2.4 -16.6 2.45 -16.5 3.8 -16.2 5.15 -14.95" fill="#663333" fill-opacity="0.2" fill-rule="evenodd" stroke="none"/>
    <path d="M9.4 -3.2 L9.4 -1.4 9.4 1.0 Q9.4 3.1 9.55 5.2 9.65 6.7 10.2 8.2 L10.4 8.8 10.4 10.0 10.4 11.8 10.4 13.6 10.35 14.2 10.2 14.8 9.8 15.4 9.4 16.0 8.6 16.6 8.35 17.2 8.0 17.8 7.6 18.4 7.2 19.0 6.4 19.6 4.8 20.0 2.4 20.0 1.4 20.0 0.8 20.4 -0.8 20.8 -2.0 20.6 -2.6 20.2 -3.4 19.6 -4.25 18.45 -4.75 17.75 -5.0 17.2 -5.2 16.6 -5.3 16.0 -5.2 15.4 -5.1 14.8 -5.2 14.2 -5.45 13.6 -5.75 13.0 -6.05 12.4 -6.3 11.75 -6.4 11.2 -6.4 10.6 -6.4 8.2 -6.55 5.8 -6.55 4.6 -6.4 4.0 Q-5.7 2.5 -4.15 1.7 L-1.85 0.5 -1.4 0.2 -1.4 -1.0 -1.4 -2.2 -1.4 -2.8 -1.35 -3.4 -1.2 -4.0 -0.95 -4.6 -0.6 -5.2 0.2 -5.8 1.6 -6.2 5.6 -6.2 5.6 -6.1 6.6 -6.0 7.4 -5.6 8.0 -5.0 8.6 -4.4 9.15 -3.75 9.4 -3.2" fill="#663333" fill-opacity="0.2" fill-rule="evenodd" stroke="none"/>
    <path d="M1.75 -3.95 L2.0 -3.4 2.15 -2.8 2.2 -2.2 2.2 -1.6 2.15 -1.0 2.0 -0.4 1.55 0.2 1.0 0.8 0.15 1.5 Q0.0 1.7 0.0 2.0 L0.35 2.6 0.55 3.2 0.6 3.8 1.25 4.95 2.15 6.25 2.45 6.8 2.75 7.4 3.0 8.0 3.0 10.4 3.0 12.8 2.95 14.0 2.85 14.6 2.8 15.2 3.6 15.8 4.15 16.4 4.55 17.0 4.8 17.6 4.8 18.2 4.75 18.8 4.6 19.4 4.35 20.0 4.0 20.6 3.2 21.2 1.6 21.6 -1.6 21.6 -8.0 20.8 -9.2 20.55 -9.6 20.4 -10.0 20.0 -10.55 19.35 -10.8 18.8 -11.0 18.2 -11.2 17.6 -11.2 17.0 -11.2 16.4 -11.15 15.8 -11.0 15.2 -10.75 14.6 -10.5 13.95 -10.4 13.4 -10.4 12.2 -10.4 11.6 -10.4 11.0 -10.4 10.4 -10.4 9.8 -10.6 9.2 -10.8 8.6 -11.0 8.0 -11.15 7.4 -11.2 6.8 -11.05 5.6 -11.0 5.0 -11.0 4.4 -11.0 3.8 -11.0 3.2 -10.8 2.6 -10.6 2.0 -10.4 1.4 -10.6 0.8 -10.8 0.2 -11.0 -0.4 -11.0 -1.0 -11.0 -2.8 -11.0 -4.6 -11.0 -5.2 -10.95 -5.8 -10.8 -6.4 -10.55 -7.0 -10.2 -7.6 -9.4 -8.2 -8.0 -8.5 -5.6 -8.75 -4.0 -8.8 -4.0 -8.7 -2.8 -8.6 -1.8 -8.2 -1.0 -7.6 -0.4 -7.0 -0.2 -6.4 0.0 -5.8 0.6 -5.2 1.2 -4.6 1.75 -3.95" fill="#663333" fill-opacity="0.2" fill-rule="evenodd" stroke="none"/>
    <path d="M8.2 14.0 L8.8 14.4 9.15 15.0 9.35 15.6 9.4 16.2 9.3 16.75 8.95 17.35 7.8 18.6 7.2 19.2 6.2 19.8 5.4 20.4 4.0 20.8 Q-1.3 21.3 -6.6 20.8 L-7.2 20.45 -8.75 19.5 -9.4 19.0 -9.6 18.4 -9.75 17.8 -9.8 17.2 -9.55 16.6 -9.2 16.0 -8.4 15.4 -7.2 15.05 -6.0 14.8 -5.4 14.4 -4.0 14.0 -2.6 14.4 Q1.65 15.4 5.4 14.6 L6.0 14.2 7.2 13.8 7.2 13.9 8.2 14.0" fill="#663333" fill-opacity="0.2" fill-rule="evenodd" stroke="none"/>
    <path d="M3.2 20.6 L3.6 20.7 3.85 20.7 3.95 20.65 4.1 20.5 4.4 20.4 4.65 20.45 4.75 20.5 4.85 20.6 5.0 20.65 5.4 20.6 5.6 20.6 5.9 20.65 6.1 20.75 6.25 20.9 6.35 21.05 6.4 21.2 6.4 21.5 6.4 21.8 6.4 21.95 6.4 22.1 6.35 22.25 6.3 22.4 6.2 22.55 4.6 23.25 3.8 23.45 3.6 23.55 3.2 23.65 1.5 23.75 1.4 23.8 1.2 23.95 0.8 24.05 -0.55 23.9 -4.6 23.15 -4.95 22.85 -5.1 22.7 -5.25 22.55 -5.35 22.4 -5.55 22.25 -5.7 22.1 -5.85 21.95 -5.9 21.8 -6.0 21.65 -6.05 21.5 -6.05 21.35 -6.1 21.2 -6.2 21.05 -6.25 20.9 -6.25 20.75 -6.2 20.6 -6.15 20.45 -6.05 20.3 -5.95 20.15 -5.8 20.0 -5.6 19.85 -5.2 19.75 -4.8 19.75 -4.8 19.8 -4.5 19.8 -3.05 20.35 -2.5 20.5 3.2 20.6" fill="#663333" fill-opacity="0.2" fill-rule="evenodd" stroke="none"/>
    <path d="M2.95 20.7 L4.2 20.45 4.65 20.35 4.75 20.25 4.9 20.1 5.2 20.0 5.45 20.05 5.55 20.1 5.7 20.2 6.15 20.35 6.35 20.5 6.5 20.65 6.55 20.8 6.55 20.95 6.55 21.1 6.5 21.25 6.45 21.4 6.3 21.55 6.15 21.7 5.95 21.85 5.6 21.95 2.8 22.4 1.0 22.4 -3.9 22.0 -4.1 21.9 -4.5 21.8 -4.55 21.8 -4.6 21.9 -4.65 22.05 -4.8 22.2 -5.0 22.35 -5.4 22.45 -5.7 22.4 -5.85 22.3 -6.05 22.15 -6.1 22.0 -6.2 21.85 -6.25 21.7 -6.25 21.55 -6.25 21.4 -6.35 21.25 -6.4 21.1 -6.4 20.95 -6.4 20.8 -6.35 20.65 -6.3 20.5 -6.25 20.35 -6.1 20.2 -5.95 20.05 -5.75 19.9 -5.5 19.8 -5.2 19.75 -5.2 19.8 -4.9 19.8 -4.8 19.85 -4.65 19.95 -4.2 20.1 -1.15 20.5 -0.95 20.45 -0.75 20.3 -0.4 20.2 0.0 20.2 0.3 20.25 0.5 20.35 0.9 20.45 1.1 20.55 1.4 20.7 2.95 20.7" fill="#663333" fill-opacity="0.2" fill-rule="evenodd" stroke="none"/>
    <path d="M10.3 -19.7 L10.4 -19.4 10.8 -19.2 11.3 -19.1 11.9 -18.6 12.5 -18.0 12.8 -17.7 13.1 -17.4 13.2 -17.1 13.3 -16.8 13.5 -16.5 13.6 -16.2 13.6 -15.9 13.7 -15.6 Q14.0 -14.9 14.45 -14.35 L15.0 -13.5 15.15 -13.2 15.2 -12.9 15.2 -12.3 15.2 -11.7 15.2 -11.1 15.2 -10.8 15.3 -10.5 15.5 -10.2 15.6 -9.9 15.7 -9.3 15.7 -8.7 15.7 -8.1 15.7 -7.8 15.6 -7.5 15.4 -7.2 15.1 -6.9 14.95 -6.6 14.9 -6.3 14.9 -5.4 14.9 -0.6 14.9 3.3 14.95 5.1 14.8 8.1 14.3 8.7 13.9 9.0 13.6 9.3 13.2 9.6 13.0 9.9 12.4 10.1 12.0 10.0 11.8 9.9 11.6 9.7 11.5 9.5 11.5 9.2 11.6 8.9 11.6 8.6 11.6 8.3 11.7 8.0 11.9 7.7 12.1 7.4 12.25 7.1 12.3 6.8 12.3 5.6 12.3 0.8 12.3 -3.1 12.25 -4.9 12.4 -7.9 12.5 -8.2 12.7 -8.5 13.05 -8.85 13.1 -9.1 13.0 -9.4 12.9 -9.7 12.8 -10.0 12.8 -10.6 12.8 -11.2 12.8 -11.8 12.8 -12.1 12.7 -12.4 12.6 -12.7 12.4 -13.0 12.2 -13.3 11.9 -13.6 11.6 -14.2 11.5 -14.5 11.3 -14.8 11.2 -15.1 11.2 -15.4 11.1 -15.7 10.9 -16.0 10.8 -16.3 10.0 -16.7 9.2 -17.1 8.7 -17.3 8.5 -17.4 8.35 -17.6 8.2 -17.9 8.05 -18.2 8.0 -18.5 7.85 -18.7 7.1 -19.0 6.9 -19.15 6.2 -19.5 4.8 -19.7 3.6 -19.8 3.2 -19.9 2.9 -20.1 2.0 -20.25 0.4 -20.5 0.05 -20.65 -0.1 -20.8 -0.25 -21.1 -0.2 -21.4 Q0.05 -22.0 0.8 -22.0 L2.0 -22.1 3.2 -22.2 Q3.85 -21.85 4.8 -21.85 L7.3 -21.75 7.4 -21.7 7.7 -21.5 8.0 -21.2 8.7 -20.9 9.3 -20.6 9.8 -20.3 10.1 -20.0 10.3 -19.7" fill="#ffffff" fill-opacity="0.101960786" fill-rule="evenodd" stroke="none"/>
    <path d="M11.0 -16.7 L11.95 -15.85 12.9 -14.6 13.0 -14.3 13.15 -14.0 13.4 -13.7 13.55 -13.4 13.6 -13.1 13.6 -12.8 13.55 -12.55 13.3 -12.2 12.8 -12.0 12.4 -12.15 12.2 -12.3 12.1 -12.6 12.0 -12.9 11.8 -13.2 11.3 -13.8 10.7 -14.4 10.1 -15.0 9.8 -15.3 9.1 -15.6 8.8 -15.9 8.6 -16.2 8.5 -16.5 8.0 -16.7 7.7 -16.9 6.8 -16.95 6.3 -17.0 6.1 -17.15 5.4 -17.5 4.0 -17.6 3.6 -17.6 3.1 -17.7 2.8 -17.9 1.6 -18.35 1.1 -18.5 0.9 -18.6 -2.9 -18.55 -3.1 -18.5 -3.5 -18.35 -3.7 -18.2 -4.0 -17.9 -4.5 -17.6 -4.9 -17.3 -5.6 -17.1 -5.8 -17.1 -6.2 -16.8 -6.5 -16.5 -7.1 -16.3 -8.0 -15.9 -9.1 -15.45 -9.2 -15.4 -9.4 -15.2 -10.0 -14.6 -10.2 -14.3 -10.3 -14.0 -10.3 -13.7 -10.45 -13.4 -10.7 -13.1 -10.95 -12.8 -11.1 -12.5 -11.1 -12.2 -11.2 -11.9 -11.4 -11.6 -11.7 -11.3 -12.0 -11.0 -12.1 -10.7 -12.3 -10.4 -12.4 -10.1 -12.4 -9.8 -12.5 -9.5 -12.7 -9.2 -12.8 -8.9 -12.8 -8.6 -12.9 -8.3 -13.1 -8.0 -13.35 -7.7 -13.7 -7.1 -13.9 -6.8 -14.0 -6.5 -14.0 -5.9 -14.0 -5.3 -14.0 -4.7 -14.0 -4.1 -13.95 -3.5 -13.9 -3.2 -13.7 -2.9 -13.6 -2.6 -13.6 -2.3 -13.6 -2.0 -13.5 -1.7 -13.3 -1.4 -13.1 -1.1 -12.7 -0.8 -12.1 -0.2 -11.65 0.4 -11.3 1.0 -11.2 1.3 -11.2 1.6 -11.2 3.4 -11.2 4.9 -11.2 6.1 -11.2 7.3 -11.2 7.6 -11.0 8.2 -10.9 8.5 -10.8 8.8 -10.6 9.4 -10.5 9.7 -10.4 10.0 -10.4 10.3 -10.4 10.6 -10.3 10.9 -10.2 11.2 -10.2 11.5 -10.2 11.8 -10.3 12.1 -10.45 12.4 -10.5 12.7 -10.6 13.0 -10.85 12.95 -11.1 12.7 -11.6 12.5 -11.9 12.3 -12.1 12.0 -12.2 11.7 -12.3 11.4 -12.5 11.1 -12.7 10.8 -12.8 10.5 -13.0 9.9 -13.1 9.6 -13.3 9.0 -13.5 8.4 -13.6 8.1 -13.6 6.3 -13.6 4.8 -13.6 3.6 -13.6 2.4 -13.6 2.1 -13.9 1.8 -14.1 1.5 -14.3 1.2 -14.8 0.9 -15.1 0.6 -15.45 0.0 -15.6 -0.3 -15.8 -0.6 -15.9 -0.9 -16.0 -1.2 -16.0 -1.5 -16.2 -1.8 -16.3 -2.1 -16.35 -2.4 -16.4 -3.6 -16.4 -4.8 -16.4 -6.0 -16.35 -7.2 -16.3 -7.5 -16.2 -7.8 -16.0 -8.1 -16.0 -8.4 -15.9 -8.7 -15.8 -9.0 -15.6 -9.3 -15.25 -9.65 -15.2 -9.9 -15.15 -10.2 -14.9 -10.8 -14.7 -11.1 -14.6 -11.4 -14.4 -11.7 -14.4 -12.0 -14.3 -12.3 -14.2 -12.6 -14.0 -12.9 -13.7 -13.2 -13.6 -13.5 -13.5 -13.8 -13.3 -14.1 -13.2 -14.4 -13.1 -14.7 -12.8 -15.3 -12.6 -15.6 -12.25 -16.2 -11.75 -16.75 -11.4 -17.1 -10.9 -17.3 -10.8 -17.4 -10.6 -17.6 -10.2 -17.9 -8.9 -18.5 -7.8 -19.1 -6.5 -19.7 -6.2 -19.9 -5.4 -20.2 -5.2 -20.5 -5.0 -20.8 -4.6 -21.1 -4.0 -21.3 2.4 -21.3 2.4 -21.25 6.0 -21.2 6.7 -21.0 7.6 -20.8 8.1 -20.7 8.4 -20.5 8.7 -20.2 9.15 -19.55 9.2 -19.3 9.2 -19.0 9.25 -18.75 9.6 -18.5 9.8 -18.4 10.0 -18.2 10.15 -17.9 Q10.5 -17.25 11.0 -16.7" fill="#ffffff" fill-opacity="0.101960786" fill-rule="evenodd" stroke="none"/>
    <path d="M-8.95 15.2 L-8.9 15.3 -8.85 15.55 -8.85 15.85 -8.85 16.05 -8.8 16.15 -8.8 16.25 -8.8 16.35 -8.75 16.5 -8.75 16.6 -8.75 16.7 -8.5 17.45 -8.3 18.2 -8.15 18.6 -8.05 18.75 -7.95 18.95 -7.9 19.05 -7.7 19.3 -7.55 19.6 -7.4 19.8 -7.25 19.8 -7.2 19.75 -7.2 19.6 -7.2 19.4 -7.2 19.2 -7.2 19.1 -7.4 18.1 -7.4 17.05 -7.4 16.4 -7.4 16.3 -7.3 16.2 -7.15 16.15 -7.0 16.2 -6.95 16.3 -6.9 16.4 -6.9 16.5 -6.85 16.6 -6.8 16.65 -6.75 16.75 -6.6 17.7 -6.5 18.65 -6.5 19.2 -6.55 19.3 -6.55 19.4 -6.55 19.5 -6.55 19.6 -6.45 19.65 -6.35 19.7 -6.25 19.7 -6.2 19.6 -5.95 18.65 -5.9 17.75 -5.9 17.15 -5.9 17.1 -5.85 17.0 -5.8 16.95 -5.65 16.9 -5.5 16.95 -5.45 17.05 -5.35 17.9 -5.25 18.75 -5.15 19.3 -5.1 19.4 -5.05 19.5 -5.0 19.6 -4.95 19.65 -4.9 19.6 -4.8 19.5 -4.75 19.4 -4.75 19.35 -4.7 19.25 -4.7 19.15 -4.7 19.05 -4.7 18.95 -4.65 18.85 -4.6 18.75 -4.6 18.65 -4.55 18.6 -4.55 18.5 -4.55 18.4 -4.45 18.3 -4.35 18.3 -4.3 18.4 -4.3 18.5 -4.3 18.6 -4.3 18.65 -4.35 18.75 -4.35 18.85 -4.3 18.95 -4.3 19.05 -4.3 19.25 -4.3 19.4 -4.3 19.6 -4.45 19.9 -4.7 20.15 -4.75 20.25 -4.8 20.25 -4.9 20.3 -5.1 20.25 -5.25 20.15 -5.4 19.95 -5.5 19.75 -5.55 19.65 Q-5.6 19.45 -5.7 19.65 L-5.8 19.95 -6.0 20.25 -6.15 20.3 -6.5 20.3 -6.65 20.25 -6.75 20.15 -6.8 20.2 -6.95 20.3 -7.05 20.35 -7.15 20.4 -7.45 20.3 -7.65 20.25 -8.0 19.85 -8.2 19.5 -8.25 19.4 -8.3 19.3 -8.3 19.2 -8.45 19.0 -8.55 18.85 -8.65 18.65 -8.95 17.7 -9.15 16.75 -9.2 16.2 -9.15 15.85 -9.2 15.45 Q-9.2 15.2 -9.0 15.2 L-8.95 15.2" fill="#333333" fill-rule="evenodd" stroke="none"/>
    <path d="M-0.2 19.1 L-0.2 19.15 -0.2 19.25 -0.2 19.35 -0.15 19.55 -0.05 19.75 0.0 19.9 0.05 20.0 0.1 20.1 0.15 20.15 0.3 20.15 0.3 20.05 0.35 19.95 0.35 19.85 0.45 19.8 0.55 19.75 0.5 19.85 0.5 19.95 0.45 20.05 0.4 20.15 0.4 20.25 0.4 20.35 0.45 20.4 0.35 20.5 0.25 20.6 0.0 20.6 -0.15 20.55 -0.25 20.45 -0.3 20.35 -0.35 20.25 -0.4 20.15 -0.45 20.1 -0.5 20.15 -0.7 20.4 -0.85 20.55 -0.9 20.55 -1.0 20.6 -1.25 20.6 -1.4 20.55 -1.45 20.5 -1.5 20.6 -1.55 20.65 -1.6 20.75 -1.7 20.85 -1.85 20.95 -2.0 21.0 -2.15 21.0 -2.3 20.95 -2.4 20.85 -2.5 20.75 -2.6 20.65 -2.65 20.6 -2.65 20.5 -2.7 20.4 -2.7 20.3 -2.7 20.2 -2.7 20.0 -2.7 19.85 -2.7 19.75 -2.75 19.65 -2.8 19.55 -2.85 19.45 -2.85 19.25 -2.85 19.0 -2.85 18.7 -2.85 18.6 -2.8 18.5 -2.6 18.5 -2.5 18.6 -2.5 18.65 -2.45 18.85 -2.45 19.05 -2.45 19.15 -2.45 19.25 -2.4 19.35 -2.35 19.4 -2.3 19.5 -2.3 19.7 -2.3 20.0 -2.25 20.25 -2.2 20.35 -2.15 20.45 -2.0 20.45 -1.95 20.4 -1.85 20.15 -1.7 19.75 -1.65 19.5 -1.65 19.2 -1.65 18.85 -1.65 18.45 -1.55 18.4 -1.55 18.35 -1.4 18.35 -1.25 18.4 -1.2 18.5 -1.2 18.95 -1.2 19.4 -1.2 19.9 -1.2 20.0 -1.1 20.1 -1.05 20.05 -0.95 19.95 -0.9 19.85 -0.9 19.75 -0.9 19.65 -0.9 19.6 -0.85 19.5 -0.8 19.4 -0.7 19.3 -0.7 19.2 -0.7 19.1 -0.7 19.0 -0.6 18.95 -0.5 18.9 -0.4 18.95 -0.25 19.0 -0.2 19.1" fill="#333333" fill-rule="evenodd" stroke="none"/>
    <path d="M-4.85 15.2 L-4.75 15.15 -4.7 15.15 -4.6 15.3 -4.6 15.35 -4.5 15.85 -4.4 16.3 -4.3 16.65 -4.15 16.95 -4.0 17.25 -3.8 17.5 -3.65 17.5 -3.6 17.4 -3.55 17.35 -3.5 17.25 -3.45 17.05 -3.4 16.95 -3.4 16.85 -3.4 16.6 -3.4 16.3 -3.4 16.0 -3.4 15.9 -3.35 15.85 -3.3 15.75 -3.15 15.65 -3.0 15.75 -2.95 15.85 -2.95 16.3 -2.95 16.75 -2.95 17.15 -2.9 17.25 -2.85 17.35 -2.7 17.35 -2.6 17.15 -2.4 16.95 -2.3 16.75 -2.25 16.65 -2.25 16.6 -2.25 16.5 -2.2 16.4 -2.2 16.3 -2.15 16.2 -2.05 16.1 -1.9 16.05 -1.75 16.1 -1.7 16.2 -1.65 16.5 -1.65 16.75 -1.65 17.05 -1.6 17.25 -1.55 17.4 -1.45 17.6 -1.4 17.7 -1.35 17.75 -1.15 17.75 -1.05 17.65 -0.95 17.55 -0.9 17.45 -0.75 17.35 -0.6 17.45 -0.55 17.55 -0.6 17.65 -0.65 17.75 -0.65 17.85 -0.65 17.9 -0.75 18.0 -0.95 18.2 -1.05 18.25 -1.15 18.3 -1.4 18.3 -1.55 18.25 -1.85 17.95 -2.0 17.65 -2.05 17.6 -2.05 17.5 -2.1 17.4 -2.15 17.4 -2.2 17.5 -2.35 17.65 -2.45 17.85 -2.55 17.85 -2.65 17.9 -2.9 17.9 -3.15 17.85 -3.2 17.75 -3.25 17.8 -3.3 17.9 -3.35 17.95 -3.4 18.0 -3.5 18.0 -3.9 18.0 -4.05 17.95 -4.15 17.85 -4.3 17.55 -4.45 17.3 -4.55 17.1 -4.7 16.65 -4.85 16.1 -4.95 15.7 -4.95 15.6 -4.9 15.4 -4.9 15.35 -4.9 15.25 -4.85 15.2" fill="#333333" fill-rule="evenodd" stroke="none"/>
    <path d="M2.75 17.6 L2.8 17.5 2.9 17.45 3.0 17.4 3.15 17.45 3.2 17.55 3.25 18.5 3.25 19.5 3.45 20.35 3.65 20.35 3.7 20.25 3.8 20.05 3.85 19.95 3.95 19.85 4.0 19.65 4.05 19.5 4.15 19.2 4.15 19.1 4.2 19.0 4.25 18.9 4.25 18.85 4.25 18.75 4.25 18.65 4.25 18.55 4.3 18.45 4.3 18.35 4.35 18.25 4.4 18.15 4.6 18.1 4.75 18.15 4.8 18.25 4.85 18.35 4.85 18.45 4.85 18.55 4.85 18.65 4.85 18.75 4.85 18.9 4.85 19.1 4.85 19.3 4.85 19.4 4.95 19.6 5.0 19.75 5.1 20.05 5.1 20.1 5.25 20.0 5.4 19.7 5.5 19.4 5.5 19.35 5.5 19.25 5.55 19.15 5.6 19.05 5.6 18.95 5.6 18.85 5.6 18.75 5.65 18.65 5.8 18.65 5.9 18.75 5.9 18.85 5.9 18.95 5.9 19.05 5.95 19.15 5.95 19.25 6.0 19.35 6.0 19.4 6.0 19.5 6.05 19.6 5.95 19.8 5.85 20.0 5.8 20.15 5.75 20.25 5.7 20.35 5.7 20.45 5.65 20.55 5.6 20.65 5.55 20.75 5.45 20.8 5.35 20.85 5.1 20.85 4.9 20.75 4.8 20.65 4.75 20.6 4.6 20.5 4.55 20.4 4.55 20.3 4.5 20.2 4.5 20.1 4.45 20.05 4.3 20.3 4.15 20.6 4.05 20.85 3.95 20.9 3.85 20.9 3.6 20.9 3.35 20.85 3.1 20.75 3.05 20.65 2.95 20.7 2.9 20.75 2.85 20.75 2.75 20.8 2.6 20.75 2.5 20.65 2.4 20.55 2.3 20.45 2.2 20.35 2.1 20.2 2.0 20.0 1.9 19.8 1.85 19.7 1.85 19.5 1.85 19.35 1.8 19.05 1.8 18.95 1.7 18.85 1.65 18.65 1.6 18.6 1.55 18.5 1.55 18.4 1.55 18.2 1.55 18.1 1.55 17.9 1.5 17.85 1.45 17.75 1.4 17.65 1.4 17.55 1.45 17.45 1.5 17.4 1.6 17.4 1.65 17.4 1.75 17.5 1.85 17.65 1.95 17.85 1.95 17.95 1.95 18.05 1.95 18.15 1.95 18.25 1.95 18.35 2.0 18.4 2.05 18.5 2.1 18.6 2.15 18.7 2.2 18.8 2.2 18.9 2.25 19.0 2.25 19.1 2.25 19.15 2.25 19.25 2.3 19.35 2.3 19.45 2.4 19.65 2.5 19.8 2.7 20.1 2.75 19.25 2.75 18.4 2.75 17.65 2.75 17.6" fill="#333333" fill-rule="evenodd" stroke="none"/>
    <path d="M-0.05 15.25 L-0.05 15.35 0.0 15.45 0.05 15.55 0.05 15.65 0.1 15.75 0.2 15.9 0.35 16.1 0.5 16.2 0.7 16.3 1.1 16.3 1.15 16.2 1.2 16.1 1.3 16.0 1.3 15.85 1.25 15.55 1.3 15.25 1.3 15.15 1.35 15.1 1.4 15.0 1.55 15.0 1.65 15.1 1.7 15.65 1.75 16.3 1.9 16.85 1.95 16.95 2.0 17.0 2.2 17.0 2.4 16.7 2.65 16.35 2.8 16.05 2.85 15.95 2.85 15.85 2.9 15.75 2.95 15.65 3.0 15.6 3.0 15.5 3.05 15.4 3.05 15.3 3.1 15.2 3.1 15.1 3.1 15.0 3.1 14.9 3.1 14.85 3.15 14.75 3.2 14.7 3.35 14.65 3.5 14.7 3.55 14.8 3.6 14.9 3.6 15.1 3.6 15.25 3.6 15.35 3.7 15.65 3.8 16.0 3.85 16.3 3.85 16.4 3.85 16.45 4.0 16.5 4.1 16.4 4.2 16.3 4.25 16.2 4.3 16.1 4.35 16.0 4.35 15.9 4.35 15.85 4.4 15.75 4.5 15.65 4.5 15.55 4.55 15.45 4.55 15.35 4.55 15.25 4.6 15.3 4.65 15.35 4.65 15.45 4.65 15.55 4.7 15.65 4.75 15.75 4.75 15.85 4.75 15.9 4.75 16.0 4.7 16.1 4.7 16.2 4.75 16.3 4.7 16.4 4.6 16.6 4.45 16.75 4.35 16.85 4.2 16.95 4.1 17.0 4.0 17.05 3.85 17.05 3.65 17.0 3.5 16.9 3.4 16.8 3.35 16.7 3.35 16.6 3.35 16.5 3.35 16.4 3.3 16.35 3.05 16.6 2.8 17.1 2.55 17.45 2.45 17.5 2.35 17.55 1.85 17.55 1.7 17.5 1.6 17.4 1.55 17.3 1.5 17.1 1.45 16.9 1.35 16.75 1.25 16.75 0.65 16.7 0.5 16.6 0.1 16.4 0.05 16.35 -0.05 16.25 -0.1 16.15 -0.1 16.05 -0.15 15.95 -0.15 15.85 -0.2 15.65 -0.25 15.6 -0.3 15.5 -0.3 15.4 -0.25 15.3 -0.25 15.2 -0.25 15.15 -0.15 15.1 -0.05 15.15 -0.05 15.25" fill="#333333" fill-rule="evenodd" stroke="none"/>
    <path d="M9.75 16.65 L9.7 16.85 9.65 17.05 9.65 17.15 9.6 17.25 9.55 17.35 9.55 17.4 9.55 17.5 9.55 17.6 9.55 17.8 9.6 17.8 9.75 17.75 9.85 17.65 10.05 17.65 10.15 17.75 10.15 17.85 10.1 17.9 9.9 18.15 9.8 18.3 9.8 18.35 9.7 18.4 9.6 18.4 9.35 18.4 9.15 18.35 8.75 18.7 8.25 19.3 8.15 19.4 8.0 19.45 7.5 19.4 7.3 19.35 7.2 19.25 7.1 19.1 6.95 18.9 6.85 18.8 6.8 18.7 6.8 18.6 6.8 18.5 6.8 18.35 6.7 18.4 6.65 18.5 6.45 18.6 6.25 18.65 6.1 18.65 5.95 18.6 5.85 18.5 5.75 18.3 5.7 18.1 5.6 17.9 5.6 17.1 5.65 16.25 5.7 15.6 5.75 15.55 5.85 15.5 5.9 15.5 6.0 15.6 6.05 16.35 6.1 17.2 6.1 17.75 6.15 17.85 6.2 17.95 6.25 18.0 6.3 17.9 6.3 17.85 6.35 17.75 6.35 17.65 6.45 17.55 6.45 17.45 6.55 17.35 6.55 17.25 6.6 17.1 6.65 16.9 6.7 16.8 6.75 16.6 6.8 16.4 6.8 16.25 6.85 16.15 6.9 16.1 6.95 16.05 7.1 16.0 7.25 16.1 7.3 16.15 7.35 16.25 7.35 17.0 7.35 17.85 7.35 18.4 7.4 18.5 7.45 18.6 7.55 18.7 7.6 18.8 7.75 18.85 7.95 18.75 8.4 18.2 8.7 17.65 8.8 17.45 8.85 17.35 8.85 17.25 8.95 17.15 8.95 17.0 9.0 16.7 9.05 16.4 9.1 16.25 9.15 16.05 9.2 15.85 9.2 15.75 9.2 15.7 9.3 15.6 9.35 15.5 9.5 15.5 9.65 15.55 9.75 15.65 9.8 15.75 9.8 15.9 9.8 16.2 9.8 16.5 9.75 16.65" fill="#333333" fill-rule="evenodd" stroke="none"/>
    <path d="M6.2 12.6 Q6.2 12.3 6.35 12.1 L6.45 12.95 6.5 13.8 6.5 14.25 6.5 14.35 6.55 14.45 6.65 14.55 6.95 14.5 7.05 14.4 7.1 14.25 7.1 14.05 7.1 13.85 7.1 13.75 7.2 13.6 7.25 13.4 7.3 13.3 7.3 13.2 7.3 13.1 7.3 13.0 7.3 12.9 7.3 12.85 7.35 12.75 7.45 12.65 7.6 12.6 7.75 12.65 7.8 12.75 7.8 12.85 7.8 12.9 7.8 13.0 7.8 13.1 7.8 13.3 7.8 13.4 7.8 13.5 7.8 13.6 7.75 13.65 7.7 13.75 7.7 13.85 7.65 13.95 7.6 14.05 7.55 14.15 7.55 14.25 7.55 14.35 7.55 14.4 7.55 14.5 7.55 14.6 7.55 14.7 7.6 14.8 7.7 14.85 8.1 14.85 8.3 14.75 8.5 14.65 8.75 14.35 8.9 14.1 8.95 14.0 9.0 13.8 9.05 13.6 9.05 13.4 9.1 13.35 9.15 13.25 9.2 13.15 9.2 13.05 9.3 12.95 9.4 12.85 9.45 12.8 9.6 12.75 9.75 12.85 9.8 12.9 9.85 13.0 9.85 13.2 9.85 13.4 9.85 13.6 9.8 13.7 9.75 13.75 9.65 13.85 9.6 13.95 9.55 14.05 9.55 14.25 9.55 14.4 9.55 14.6 9.55 14.65 9.8 14.7 10.05 14.5 10.3 14.35 10.6 13.9 10.95 13.4 11.1 13.2 11.25 13.1 11.4 13.2 11.45 13.3 11.35 13.5 11.2 13.65 11.1 13.85 11.05 13.95 11.05 14.05 10.95 14.25 10.85 14.4 10.8 14.5 10.75 14.6 10.7 14.7 10.3 15.1 9.85 15.35 9.5 15.35 9.3 15.25 9.15 15.15 9.05 15.1 8.95 15.0 8.35 15.25 8.0 15.4 7.75 15.4 7.55 15.3 7.35 15.25 7.25 15.15 7.2 15.05 7.15 15.0 7.1 15.0 7.0 15.0 6.6 15.0 6.45 14.95 6.35 14.85 6.35 14.75 6.3 14.65 6.25 14.6 6.2 14.5 6.2 13.55 6.2 12.6" fill="#333333" fill-rule="evenodd" stroke="none"/>
    <path d="M2.95 11.25 L2.9 12.2 3.1 13.25 3.3 13.85 3.3 13.9 3.55 13.85 3.7 13.65 3.9 13.4 4.05 13.2 4.05 13.0 4.1 12.85 4.1 12.65 4.1 12.55 4.2 12.45 4.2 12.35 4.3 12.25 4.3 12.15 4.35 12.1 4.35 12.0 4.35 11.7 4.35 11.35 4.35 10.95 4.45 10.9 4.45 10.85 4.6 10.85 4.75 10.9 4.8 11.0 4.8 11.25 4.8 11.65 4.8 12.0 4.85 12.1 4.8 12.6 4.75 13.15 4.75 13.6 4.8 13.7 4.8 13.8 4.75 13.9 4.7 14.0 4.5 14.05 4.35 14.0 4.25 13.9 4.25 13.8 4.2 13.8 4.0 14.05 3.85 14.25 3.7 14.3 3.6 14.35 3.5 14.35 3.25 14.35 3.05 14.3 2.95 14.2 2.85 14.1 2.85 13.9 2.75 13.65 2.65 13.35 2.6 13.25 2.6 13.1 2.6 12.8 2.55 12.5 2.5 12.6 2.45 12.65 2.45 12.75 2.45 12.85 2.4 12.95 2.35 13.05 2.3 13.15 2.3 13.25 2.25 13.3 2.15 13.4 1.95 13.5 1.65 13.5 1.5 13.4 1.4 13.3 1.3 13.15 1.2 12.95 1.15 12.85 1.1 12.75 1.1 12.65 1.1 12.6 1.1 12.5 1.05 12.4 1.05 12.3 1.0 12.2 0.95 12.1 0.95 12.0 1.0 11.9 1.0 11.85 1.0 11.75 1.0 11.65 1.1 11.55 1.2 11.65 1.2 11.75 1.2 11.85 1.2 11.9 1.2 12.0 1.25 12.1 1.3 12.2 1.3 12.3 1.3 12.4 1.35 12.5 1.45 12.6 1.45 12.65 1.45 12.75 1.5 12.85 1.55 12.95 1.6 13.05 1.7 13.15 1.75 13.2 1.95 13.15 2.0 13.1 2.05 13.0 2.1 12.8 2.15 12.6 2.15 12.5 2.2 12.45 2.25 12.35 2.35 11.95 2.45 11.5 2.4 11.1 2.4 11.0 2.45 10.9 2.65 10.9 2.8 11.0 2.85 11.1 2.9 11.15 2.95 11.25" fill="#333333" fill-rule="evenodd" stroke="none"/>
    <path d="M-3.4 13.05 L-3.3 12.6 -3.25 12.6 -3.15 12.65 -3.15 12.85 -3.15 13.15 -3.1 13.4 -3.05 13.5 -3.0 13.6 -2.9 13.9 -2.8 14.25 -2.7 14.55 -2.65 14.65 -2.3 14.6 -2.3 14.4 -2.2 14.2 -2.15 14.0 -2.15 13.45 -2.15 12.8 -2.15 12.35 -2.1 12.3 -2.0 12.25 -1.95 12.25 -1.85 12.35 -1.85 13.2 -1.85 14.15 -1.85 14.8 -1.8 14.85 -1.55 14.9 -1.45 14.5 -1.3 14.05 -1.2 13.75 -1.2 13.65 -1.2 13.6 -1.15 13.5 -1.1 13.4 -1.1 13.3 -1.05 13.2 -1.0 13.1 -0.95 13.0 -0.85 12.9 -0.45 12.9 -0.3 13.0 -0.2 13.1 -0.2 13.2 -0.15 13.3 -0.15 13.4 -0.05 13.5 -0.05 13.6 0.0 13.65 0.05 13.75 0.05 13.85 0.0 14.05 0.0 14.25 0.0 14.35 0.0 14.4 -0.1 14.5 -0.25 14.5 -0.3 14.4 -0.3 14.35 -0.35 14.15 -0.35 13.95 -0.35 13.85 -0.4 13.75 -0.45 13.65 -0.45 13.6 -0.5 13.5 -0.55 13.4 -0.6 13.3 -0.65 13.25 -0.75 13.35 -0.8 13.4 -0.8 13.5 -0.8 13.7 -0.8 13.9 -0.95 14.25 -1.1 14.75 -1.2 15.0 -1.25 15.1 -1.35 15.2 -1.55 15.3 -1.85 15.3 -1.95 15.2 -2.05 15.1 -2.15 15.0 -2.25 15.05 -2.75 15.0 -2.85 14.9 -3.0 14.75 -3.05 14.65 -3.25 13.9 -3.4 13.05" fill="#333333" fill-rule="evenodd" stroke="none"/>
    <path d="M-4.85 13.65 L-4.95 13.95 -5.0 14.35 -5.05 14.6 -5.1 14.7 -5.2 14.8 -5.3 14.9 -5.4 15.0 -5.5 15.0 -6.0 15.0 -6.2 14.95 -6.35 14.85 -6.45 14.75 -6.5 14.65 -6.55 14.6 -6.6 14.5 -6.65 14.4 -6.65 14.3 -6.65 14.2 -6.8 14.4 -6.9 14.65 -7.1 14.95 -7.25 15.05 -7.4 15.1 -7.75 15.1 -7.95 15.05 -8.05 14.95 -8.15 14.85 -8.25 14.75 -8.3 14.85 -8.4 14.9 -8.5 15.0 -9.0 14.95 -9.1 14.85 -9.3 14.5 -9.55 14.0 -9.7 13.75 -9.7 13.65 -9.75 13.45 -9.8 13.25 -9.8 13.0 -9.8 12.7 -9.8 12.4 -9.75 12.35 -9.6 12.3 -9.55 12.4 -9.55 12.6 -9.5 12.85 -9.5 13.15 -9.45 13.25 -9.45 13.35 -9.4 13.4 -9.4 13.5 -9.15 13.9 -8.95 14.25 -8.85 14.45 -8.8 14.5 -8.65 14.55 -8.6 14.45 -8.55 14.35 -8.55 14.25 -8.5 14.15 -8.45 14.1 -8.35 13.4 -8.35 12.75 -8.3 12.3 -8.25 12.25 -8.15 12.25 -8.1 12.25 -8.0 12.35 -7.95 13.1 -7.95 13.85 -7.95 14.4 -7.9 14.5 -7.8 14.55 -7.7 14.65 -7.4 14.6 -7.35 14.5 -7.3 14.4 -7.25 14.35 -7.2 14.25 -7.15 14.15 -7.15 14.05 -7.1 13.95 -7.05 13.85 -6.95 13.65 -6.85 13.5 -6.85 13.4 -6.85 13.3 -6.85 13.2 -6.9 13.1 -6.85 13.0 -6.8 12.95 -6.65 12.9 -6.5 13.0 -6.45 13.1 -6.4 13.15 -6.4 13.25 -6.35 13.35 -6.3 13.45 -6.3 13.55 -6.3 13.65 -6.3 13.75 -6.3 13.85 -6.3 13.9 -6.25 14.0 -6.2 14.1 -6.2 14.2 -6.2 14.3 -6.15 14.4 -6.05 14.5 -5.95 14.55 -5.55 14.5 -5.45 14.4 -5.4 14.35 -5.4 14.25 -5.4 14.15 -5.4 14.05 -5.3 13.95 -5.3 13.85 -5.25 13.75 -5.2 13.65 -5.15 13.6 -5.0 13.5 -4.9 13.6 -4.85 13.65" fill="#333333" fill-rule="evenodd" stroke="none"/>
    <path d="M-3.95 10.15 L-3.9 10.25 -3.85 10.35 -3.85 10.4 -3.95 10.5 -4.05 10.6 -4.05 10.7 -4.1 10.8 -4.15 11.0 -4.2 11.2 -4.25 11.35 -4.3 11.45 -4.35 11.55 -4.55 11.75 -4.7 11.9 -4.8 11.95 -4.9 12.0 -5.15 12.0 -5.35 11.95 -5.5 11.85 -5.6 11.75 -5.65 11.65 -5.7 11.6 -5.7 11.5 -5.8 11.4 -5.85 11.3 -5.9 11.2 -5.95 11.15 -6.0 11.35 -6.05 11.5 -6.15 11.7 -6.2 11.8 -6.25 11.9 -6.35 12.0 -6.4 12.05 -7.0 12.05 -7.1 11.95 -7.2 11.85 -7.25 11.75 -7.3 11.65 -7.4 11.3 -7.5 10.9 -7.55 10.75 -7.55 10.35 -7.5 10.0 -7.4 9.75 -7.35 9.85 -7.3 9.95 -7.3 10.15 -7.3 10.35 -7.3 10.5 -7.15 10.9 -7.05 11.25 -6.95 11.55 -6.9 11.65 -6.55 11.65 -6.5 11.55 -6.45 11.45 -6.4 11.35 -6.4 11.25 -6.4 11.15 -6.3 11.0 -6.2 10.8 -6.15 10.7 -6.15 10.6 -6.15 10.5 -6.15 10.4 -6.15 10.35 -6.1 10.25 -6.0 10.15 -5.85 10.15 -5.75 10.25 -5.7 10.35 -5.65 10.4 -5.6 10.6 -5.55 10.8 -5.45 11.0 -5.45 11.1 -5.35 11.25 -5.25 11.45 -5.15 11.55 -4.95 11.5 -4.85 11.4 -4.75 11.35 -4.7 11.25 -4.65 11.05 -4.6 10.85 -4.55 10.65 -4.45 10.6 -4.4 10.5 -4.4 10.4 -4.35 10.3 -4.35 10.2 -4.35 10.1 -4.35 10.0 -4.3 9.9 -4.1 9.9 -4.0 10.0 -4.0 10.1 -3.95 10.15" fill="#333333" fill-rule="evenodd" stroke="none"/>
    <path d="M-0.55 8.25 L-0.55 8.35 -0.65 8.45 -0.7 8.45 -0.75 8.5 -0.75 8.6 -0.8 8.8 -0.9 9.0 -0.95 9.1 -1.0 9.15 -1.1 9.25 -1.5 9.25 -1.8 9.15 -1.9 9.1 -1.9 9.0 -1.95 8.9 -2.05 8.8 -2.05 8.7 -2.05 8.5 -2.05 8.25 -2.05 7.95 -2.05 7.85 -2.0 7.9 -1.95 8.05 -1.95 8.25 -1.95 8.4 -1.95 8.5 -1.9 8.6 -1.85 8.7 -1.8 8.8 -1.75 8.9 -1.65 8.95 -1.55 9.0 -1.4 9.0 -1.2 8.9 -1.2 8.85 -1.15 8.75 -1.1 8.65 -1.1 8.55 -1.05 8.45 -1.05 8.15 -1.1 7.8 -1.0 7.55 -0.85 7.5 -0.7 7.6 -0.65 7.7 -0.6 7.8 -0.6 7.9 -0.6 8.0 -0.6 8.1 -0.55 8.15 -0.55 8.25" fill="#333333" fill-rule="evenodd" stroke="none"/>
    <path d="M12.05 8.75 L12.05 8.65 12.1 8.55 12.15 8.45 12.15 8.35 12.2 8.3 12.25 8.25 12.3 8.25 12.35 8.35 12.35 8.4 12.35 8.5 12.4 8.6 12.4 8.7 12.35 8.8 12.25 9.2 12.1 9.55 12.05 9.85 11.8 10.2 11.6 10.55 11.45 10.85 11.3 10.95 11.1 11.0 10.85 11.1 10.5 11.05 10.4 10.95 10.35 10.85 10.3 10.75 10.25 10.8 10.25 10.9 10.1 11.0 9.85 11.05 9.6 11.0 9.4 10.9 9.25 10.75 9.1 10.55 8.95 10.35 9.0 9.9 9.0 9.4 8.9 8.95 8.95 8.9 9.05 8.85 9.1 8.9 9.15 9.3 9.2 9.65 9.2 10.15 9.3 10.3 9.45 10.5 9.55 10.6 9.65 10.65 9.9 10.65 9.9 10.55 9.95 10.45 10.05 10.35 10.05 10.25 10.1 10.15 10.1 10.1 10.15 10.0 10.15 9.9 10.15 9.8 10.2 9.7 10.25 9.6 10.3 9.5 10.3 9.4 10.3 9.35 10.35 9.25 10.4 9.15 10.55 9.15 10.65 9.25 10.7 9.7 10.7 10.15 10.7 10.55 10.7 10.6 10.95 10.65 11.1 10.6 11.3 10.3 11.45 10.05 11.6 9.75 11.65 9.65 11.7 9.5 11.75 9.4 11.8 9.3 11.85 9.2 11.85 9.1 11.9 9.0 11.95 8.9 12.0 8.85 12.05 8.75" fill="#333333" fill-rule="evenodd" stroke="none"/>
    <path d="M10.6 5.1 L10.75 5.0 10.85 5.1 10.9 5.15 10.85 5.35 10.8 5.55 10.7 5.75 10.7 5.85 10.7 5.9 10.65 6.0 10.6 6.1 10.55 6.2 10.5 6.3 10.35 6.35 10.1 6.35 9.95 6.3 9.85 6.2 9.75 6.1 9.7 6.0 9.65 5.9 9.6 5.85 9.55 5.65 9.55 5.55 9.55 5.45 9.45 5.35 9.35 5.4 9.3 5.5 9.25 5.6 9.2 5.65 9.2 5.75 9.0 6.05 8.8 6.35 8.65 6.4 8.25 6.4 8.05 6.35 7.9 6.25 7.8 6.05 7.6 5.75 7.5 5.6 7.5 5.3 7.5 4.95 7.45 4.55 7.6 4.7 7.65 5.1 7.65 5.45 7.8 5.65 7.9 5.85 8.05 6.0 8.2 6.1 8.35 6.15 8.6 6.1 8.7 6.0 8.75 5.9 8.8 5.8 8.85 5.7 8.85 5.6 8.9 5.5 8.95 5.4 9.05 5.25 9.15 5.05 9.15 4.95 9.2 4.75 9.2 4.6 9.2 4.5 9.25 4.45 9.35 4.4 9.5 4.4 9.55 4.4 9.65 4.5 9.7 4.65 9.75 4.85 9.8 5.05 9.85 5.15 9.9 5.25 9.95 5.35 9.95 5.4 10.0 5.5 10.05 5.6 10.05 5.7 10.1 5.8 10.2 5.85 10.25 5.8 10.35 5.75 10.4 5.65 10.45 5.55 10.5 5.35 10.55 5.25 10.55 5.15 10.6 5.1" fill="#333333" fill-rule="evenodd" stroke="none"/>
    <path d="M12.05 1.15 L12.1 0.95 12.15 0.75 12.15 0.65 12.2 0.6 12.35 0.6 12.5 0.65 12.55 0.75 12.55 0.85 12.6 0.9 12.65 1.0 12.7 1.1 12.7 1.2 12.75 1.3 12.75 1.4 12.75 1.5 12.75 1.6 12.75 1.65 12.8 1.75 12.8 1.85 12.85 1.95 12.9 2.0 13.05 2.0 13.05 1.9 13.1 1.7 13.15 1.5 13.2 1.4 13.25 1.35 13.25 1.15 13.25 0.95 13.25 0.75 13.25 0.65 13.2 0.6 13.2 0.5 13.15 0.4 13.15 0.3 13.2 0.2 13.25 0.15 13.35 0.15 13.4 0.15 13.5 0.25 13.55 0.35 13.6 0.4 13.6 0.5 13.65 0.6 13.7 0.7 13.75 0.9 13.75 1.1 13.75 1.25 13.75 1.35 13.75 1.45 13.7 1.55 13.6 1.75 13.55 2.0 13.5 2.3 13.45 2.4 13.4 2.5 13.25 2.55 12.85 2.55 12.7 2.5 12.6 2.4 12.4 2.2 12.3 2.0 12.3 1.9 12.25 1.85 12.2 1.85 12.05 2.1 11.85 2.5 11.7 2.75 11.55 2.85 11.4 2.95 11.0 2.95 10.9 2.85 10.85 2.75 10.8 2.65 10.75 2.6 10.7 2.5 10.7 1.85 10.75 1.1 10.8 0.5 10.95 1.1 11.0 1.75 11.0 2.3 11.05 2.4 11.1 2.5 11.1 2.55 11.15 2.55 11.35 2.55 11.55 2.3 11.7 2.0 11.8 1.8 11.85 1.7 11.85 1.6 11.85 1.5 11.9 1.45 11.95 1.35 12.05 1.15" fill="#333333" fill-rule="evenodd" stroke="none"/>
    <path d="M-10.3 5.85 L-10.25 5.75 -9.85 5.75 -9.75 5.85 -9.8 5.95 -9.8 6.05 -9.8 6.15 -9.75 6.25 -9.75 6.35 -9.7 6.4 -9.8 6.4 -9.9 6.35 -10.0 6.25 -10.05 6.25 -10.05 6.35 -10.05 6.4 -10.05 6.5 -10.05 6.6 -10.1 6.7 -10.15 6.8 -10.2 6.9 -10.25 7.0 -10.25 7.1 -10.25 7.15 -10.25 7.25 -10.3 7.35 -10.3 7.45 -10.4 7.5 -10.5 7.55 -10.9 7.55 -11.05 7.5 -11.15 7.4 -11.2 7.3 -11.25 7.2 -11.35 7.0 -11.4 6.9 -11.45 6.85 -11.45 6.75 -11.5 6.65 -11.55 6.55 -11.6 6.45 -11.65 6.25 -11.7 6.1 -11.7 6.0 -11.8 5.9 -11.85 5.8 -11.9 5.7 -11.85 5.6 -11.85 5.5 -11.8 5.4 -11.65 5.4 -11.6 5.4 -11.5 5.5 -11.4 5.7 -11.3 5.85 -11.25 5.95 -11.2 6.15 -11.15 6.35 -11.15 6.4 -11.05 6.5 -11.05 6.6 -11.0 6.7 -10.95 6.8 -10.9 6.9 -10.85 7.0 -10.7 6.95 -10.7 6.9 -10.65 6.8 -10.6 6.7 -10.55 6.6 -10.5 6.5 -10.45 6.4 -10.45 6.35 -10.45 6.25 -10.4 6.15 -10.35 6.05 -10.3 5.95 -10.3 5.85" fill="#333333" fill-rule="evenodd" stroke="none"/>
    <path d="M9.55 -13.65 L9.6 -13.75 9.65 -13.85 9.8 -13.85 9.9 -13.75 9.95 -13.65 9.95 -13.6 10.15 -13.3 10.55 -12.9 10.75 -12.65 10.8 -12.65 10.95 -12.65 10.95 -12.75 10.95 -12.85 10.95 -12.95 10.95 -13.05 10.8 -13.4 10.7 -13.9 10.6 -14.25 10.55 -14.35 10.5 -14.45 10.45 -14.55 10.4 -14.65 10.35 -14.75 10.4 -14.8 10.5 -14.8 10.55 -14.8 10.65 -14.7 10.7 -14.6 10.8 -14.5 10.85 -14.4 10.9 -14.35 10.95 -14.25 10.95 -14.15 11.0 -13.95 11.0 -13.85 11.05 -13.75 11.2 -13.4 11.25 -12.9 11.25 -12.45 11.2 -12.35 11.1 -12.3 10.65 -12.35 10.45 -12.5 10.15 -12.75 10.0 -12.85 10.05 -12.75 10.1 -12.65 10.05 -12.55 9.95 -12.55 9.85 -12.65 9.8 -12.75 9.65 -12.9 9.6 -13.0 9.6 -13.1 9.55 -13.2 9.55 -13.3 9.55 -13.4 9.55 -13.5 9.55 -13.6 9.55 -13.65" fill="#333333" fill-rule="evenodd" stroke="none"/>
    <path d="M5.15 -20.85 L5.4 -20.65 5.65 -20.5 5.85 -20.3 6.0 -20.2 6.15 -19.9 6.3 -19.65 6.6 -19.15 6.7 -18.9 6.7 -18.8 6.65 -18.7 6.5 -18.65 6.1 -18.65 4.75 -19.25 3.55 -19.85 3.1 -19.85 3.2 -19.75 3.65 -19.35 4.15 -19.0 4.35 -18.8 4.45 -18.7 4.45 -18.6 4.5 -18.5 4.55 -18.4 4.55 -18.35 4.65 -18.25 4.7 -18.15 4.75 -18.05 4.8 -17.95 4.8 -17.85 4.8 -17.75 4.8 -17.65 4.75 -17.6 4.7 -17.55 4.6 -17.5 4.35 -17.5 4.15 -17.55 4.0 -17.65 3.8 -17.75 3.65 -17.85 3.6 -17.9 3.45 -18.0 3.4 -18.1 3.35 -18.2 3.4 -18.3 3.45 -18.35 3.45 -18.4 3.6 -18.4 3.75 -18.35 3.9 -18.25 3.95 -18.15 4.1 -18.1 4.1 -18.15 4.1 -18.25 4.05 -18.35 4.05 -18.4 3.65 -18.8 3.15 -19.15 2.75 -19.55 2.7 -19.65 2.65 -19.75 2.65 -19.85 2.6 -19.9 2.6 -20.0 2.6 -20.1 2.6 -20.2 2.7 -20.25 2.7 -20.3 2.85 -20.35 3.5 -20.35 4.9 -19.7 6.05 -19.15 6.15 -19.15 6.05 -19.35 5.95 -19.5 5.85 -19.7 5.7 -20.0 5.45 -20.15 5.2 -20.35 5.0 -20.55 4.9 -20.65 4.9 -20.75 4.95 -20.85 5.1 -20.85 5.15 -20.85" fill="#333333" fill-rule="evenodd" stroke="none"/>
    <path d="M10.0 -17.9 L10.3 -17.7 10.35 -17.6 10.3 -17.5 10.0 -17.5 9.85 -17.6 9.7 -17.65 9.45 -17.75 9.3 -17.85 9.3 -17.7 9.3 -17.5 9.3 -17.35 9.25 -17.05 9.25 -16.95 9.25 -16.75 9.25 -16.65 9.25 -16.6 9.2 -16.5 9.15 -16.4 9.1 -16.35 9.0 -16.3 8.65 -16.35 8.5 -16.4 8.35 -16.5 8.35 -16.6 8.3 -16.7 8.15 -16.8 7.95 -16.9 7.85 -17.0 7.8 -17.1 7.6 -17.15 7.5 -17.25 7.5 -17.35 7.55 -17.45 7.65 -17.45 7.8 -17.35 7.95 -17.25 8.05 -17.15 8.15 -17.1 8.35 -17.0 8.45 -16.9 8.55 -16.8 8.6 -16.7 8.75 -16.65 8.9 -16.7 8.95 -16.75 8.95 -16.95 8.9 -17.15 8.9 -17.4 8.9 -17.7 8.9 -17.9 8.9 -18.15 8.95 -18.25 9.0 -18.25 9.1 -18.3 9.3 -18.25 9.65 -18.1 10.0 -17.9" fill="#333333" fill-rule="evenodd" stroke="none"/>
    <path d="M7.9 -4.2 L7.95 -4.1 7.95 -3.85 7.95 -3.55 7.95 -3.25 7.95 -3.15 8.1 -2.4 8.2 -1.65 8.25 -1.1 8.3 -1.0 8.35 -0.9 8.35 -0.85 8.4 -0.75 8.45 -0.65 8.45 -0.6 8.55 -0.55 8.85 -0.6 8.9 -0.65 8.95 -0.75 9.0 -0.85 9.05 -0.95 9.1 -1.05 9.1 -1.15 9.15 -1.25 9.15 -1.35 9.2 -1.4 9.25 -1.5 9.3 -1.6 9.35 -1.7 9.35 -2.0 9.35 -2.25 9.35 -2.55 9.35 -2.65 9.4 -2.75 9.55 -2.75 9.65 -2.65 9.65 -2.25 9.75 -1.9 9.85 -1.5 10.0 -1.35 10.2 -1.15 10.25 -1.1 10.85 -1.1 10.9 -1.15 11.0 -1.25 11.1 -1.15 11.1 -1.1 11.15 -1.0 11.15 -0.9 11.1 -0.8 11.1 -0.75 10.15 -0.75 9.85 -1.0 9.55 -1.35 9.5 -1.4 9.5 -1.3 9.45 -1.1 9.4 -0.9 9.25 -0.65 9.05 -0.35 8.95 -0.25 8.85 -0.2 8.5 -0.25 8.25 -0.35 8.15 -0.4 8.1 -0.5 8.05 -0.7 8.0 -0.9 7.95 -1.0 7.85 -1.55 7.85 -2.1 7.8 -2.5 7.7 -2.05 7.6 -1.5 7.45 -1.05 7.3 -0.75 6.95 -0.4 6.85 -0.3 6.75 -0.25 6.4 -0.25 6.25 -0.35 6.2 -0.45 6.15 -0.55 6.1 -0.65 6.05 -0.75 6.0 -0.85 5.95 -0.9 5.95 -1.0 5.9 -1.1 5.85 -1.2 5.85 -1.3 5.85 -1.4 5.8 -1.5 5.7 -1.6 5.75 -1.65 5.85 -1.75 6.05 -1.7 6.1 -1.6 6.1 -1.5 6.1 -1.4 6.1 -1.35 6.1 -1.25 6.15 -1.15 6.2 -1.05 6.2 -0.95 6.25 -0.85 6.3 -0.75 6.35 -0.65 6.4 -0.6 6.5 -0.5 6.75 -0.55 6.9 -0.75 7.1 -1.0 7.2 -1.1 7.35 -1.55 7.45 -2.15 7.45 -2.5 7.5 -2.6 7.55 -2.8 7.6 -3.0 7.6 -3.15 7.6 -3.45 7.6 -3.75 7.7 -3.9 7.7 -4.1 7.75 -4.15 7.9 -4.2" fill="#333333" fill-rule="evenodd" stroke="none"/>
    <path d="M13.35 -14.5 L13.35 -14.85 13.7 -14.4 14.3 -13.5 15.2 -11.3 Q16.15 -8.9 15.75 -6.25 L15.45 -5.85 15.6 -2.2 15.5 1.3 15.1 3.0 14.6 3.65 14.0 4.0 13.9 4.65 14.0 7.0 13.8 10.3 Q13.5 12.5 12.8 14.65 L12.4 14.95 12.25 15.9 Q11.3 19.15 8.9 21.6 8.3 22.25 7.75 21.95 L7.1 21.25 6.0 22.35 Q4.4 22.45 3.7 21.1 3.15 21.85 2.3 21.9 L1.25 21.5 1.2 21.4 Q0.95 20.65 0.7 20.95 -0.2 22.2 -1.4 22.75 L-1.75 22.7 Q-2.9 21.95 -3.55 20.85 L-3.6 21.0 -3.9 21.45 Q-4.2 21.8 -4.65 21.9 -5.1 21.8 -5.4 21.35 -5.9 20.7 -6.2 20.9 L-7.15 21.7 Q-8.15 21.75 -8.9 21.25 L-9.65 20.5 -10.2 19.35 -10.75 17.0 -10.9 15.8 -10.9 15.6 Q-11.05 14.8 -11.55 14.4 -12.55 13.55 -12.8 12.25 L-12.95 11.4 Q-13.75 7.3 -13.6 3.25 L-13.8 3.25 -14.55 2.8 Q-15.25 1.65 -15.4 0.25 L-15.5 -1.4 -15.6 -2.9 -15.6 -3.05 -15.45 -5.45 -14.95 -7.95 -14.4 -9.45 -14.35 -9.55 -14.85 -9.65 -14.95 -9.8 -15.05 -10.55 -15.0 -11.15 -14.9 -11.85 -14.9 -12.1 -14.9 -12.2 -14.8 -12.65 -14.2 -14.1 Q-11.95 -18.8 -7.3 -20.65 L-6.7 -20.75 Q-6.25 -20.8 -6.05 -20.4 L-6.05 -20.3 -6.65 -20.15 Q-8.75 -19.35 -10.25 -17.65 L-11.65 -16.1 Q-12.7 -15.15 -13.3 -13.75 L-13.9 -12.05 -14.05 -11.05 -13.75 -10.6 -13.75 -10.5 -13.85 -9.75 -14.35 -7.5 -14.6 -5.95 -14.6 -0.9 -14.1 1.6 -13.05 1.7 -13.05 1.9 -13.0 1.9 -12.9 7.65 -12.7 9.4 Q-12.4 11.15 -11.6 12.9 L-11.6 12.55 -11.3 12.25 -11.05 12.4 Q-10.7 12.75 -10.65 13.3 L-10.6 13.7 -10.45 15.05 -10.35 15.75 -9.55 18.45 Q-9.25 19.2 -8.8 19.4 -8.3 19.65 -8.05 20.4 L-6.75 19.1 -6.0 19.25 -5.05 20.1 -4.85 19.9 -4.55 19.55 -4.3 19.45 Q-3.7 19.3 -3.7 19.45 L-3.05 19.55 -3.05 19.65 Q-2.85 20.1 -3.05 19.55 L-2.8 20.05 -2.75 20.15 -2.7 20.35 -2.55 20.7 -1.5 20.9 Q-0.55 20.3 -0.2 19.2 L0.15 18.9 Q0.5 18.4 0.95 18.8 L1.0 19.1 1.1 19.15 1.15 19.45 1.25 20.05 1.65 20.6 2.55 20.55 2.85 20.1 3.65 19.6 Q4.05 19.75 4.15 20.0 L4.3 20.3 4.35 20.4 Q4.7 20.9 5.4 20.95 L5.85 20.6 6.0 20.2 6.15 19.95 6.55 19.85 Q6.9 20.05 7.05 19.55 L7.25 19.6 7.45 19.95 7.45 20.0 7.75 20.55 Q8.9 20.05 9.7 18.65 10.6 17.1 11.0 15.5 L11.45 13.4 11.85 13.15 Q12.75 10.1 13.05 7.0 L13.05 5.45 12.95 4.7 13.1 4.25 13.25 3.9 13.5 3.45 13.2 1.9 13.55 1.65 14.0 1.75 14.15 1.6 14.3 1.3 14.3 1.15 Q14.75 -2.45 14.4 -5.95 L13.9 -6.6 Q13.75 -6.95 14.15 -7.25 L14.5 -7.15 14.55 -7.1 14.65 -7.05 14.75 -8.8 Q14.8 -9.8 14.3 -10.95 L13.4 -13.15 Q13.0 -14.0 13.05 -14.9 L13.35 -14.5 M5.15 -22.3 L6.8 -22.0 Q7.05 -21.95 7.1 -21.45 L7.0 -21.35 Q7.55 -20.85 9.25 -20.05 11.65 -19.0 13.1 -16.8 13.6 -16.1 13.55 -15.45 L13.45 -15.35 13.25 -15.1 13.1 -15.05 Q12.7 -15.0 12.7 -15.3 L12.65 -16.15 12.1 -17.1 Q9.35 -19.7 5.8 -20.9 L5.75 -20.95 5.9 -21.2 6.05 -21.3 Q6.2 -21.5 5.25 -21.7 L3.25 -21.55 Q2.25 -21.2 2.25 -21.8 3.8 -22.55 5.15 -22.3 M-0.1 -22.55 Q0.05 -23.25 0.75 -23.5 L1.25 -22.9 1.65 -21.5 1.65 -21.4 Q1.45 -21.05 1.05 -21.05 0.5 -21.5 0.5 -22.2 L-0.2 -21.1 -2.85 -21.8 -5.3 -21.65 Q-5.2 -21.65 -5.25 -21.1 L-5.2 -20.7 -5.4 -20.65 Q-5.9 -20.6 -6.45 -21.3 L-6.45 -21.4 Q-6.4 -21.9 -5.95 -22.3 L-4.3 -22.5 Q-2.85 -22.7 -0.25 -21.75 L-0.1 -22.55" fill="#333333" fill-rule="evenodd" stroke="none"/>
    <path d="M9.7 17.75 L9.65 17.9 9.55 18.05 9.5 18.2 9.4 18.35 9.35 18.5 9.3 18.65 9.25 18.8 9.2 18.95 8.7 19.9 7.95 20.75 7.55 21.15 7.45 21.2 7.25 21.25 6.25 21.1 6.0 21.05 5.85 20.9 5.75 20.75 5.7 20.6 5.65 20.45 5.55 20.3 5.55 20.15 5.55 20.0 5.55 19.85 5.5 19.7 5.45 19.55 5.4 19.4 5.4 19.25 5.5 19.1 5.7 19.05 5.85 19.2 5.95 19.35 6.0 19.5 6.1 19.65 6.15 19.8 6.15 19.95 6.15 20.1 6.25 20.25 6.45 20.3 7.1 20.2 7.5 19.7 7.9 19.15 8.1 18.85 8.15 18.7 8.2 18.55 8.25 18.4 8.3 18.25 8.55 17.95 8.85 17.5 9.05 17.2 9.25 17.15 9.35 17.15 9.5 17.3 9.55 17.45 9.65 17.6 9.7 17.75" fill="#333333" fill-rule="evenodd" stroke="none"/>
    <path d="M6.9 9.9 L7.1 9.85 7.3 9.85 7.35 9.7 7.5 9.55 7.6 9.4 7.65 9.25 7.7 9.1 7.7 8.95 7.7 8.8 7.7 8.65 7.8 8.35 7.9 8.05 7.95 7.9 7.95 7.75 7.95 7.6 7.95 7.45 7.95 7.35 7.95 7.3 8.05 7.3 8.1 7.3 8.15 7.6 8.15 7.9 8.2 8.2 8.15 8.35 8.1 8.5 8.05 8.65 8.0 8.8 8.0 8.95 8.0 9.1 8.0 9.25 8.05 9.4 7.95 9.55 7.9 9.7 7.9 9.85 7.8 10.0 7.75 10.15 7.75 10.3 7.7 10.45 7.6 10.6 7.5 10.75 7.45 10.8 7.25 10.9 7.05 10.9 6.8 10.8 6.7 10.65 6.7 10.5 6.7 10.35 6.7 10.2 6.75 10.05 6.9 9.9" fill="#333333" fill-rule="evenodd" stroke="none"/>
    <path d="M-11.9 -0.7 L-11.9 0.05 -11.9 0.8 -11.85 1.55 -11.8 1.7 -11.75 1.85 -11.7 2.0 -11.7 2.15 -11.6 2.3 -11.5 2.6 -11.4 2.9 -11.3 3.2 -11.25 3.35 -11.15 3.5 -10.95 3.65 -10.7 3.8 -10.6 3.95 -10.7 4.1 -10.8 4.2 -10.95 4.25 -11.15 4.3 -11.35 4.3 -11.6 4.2 -11.7 4.05 -11.8 3.9 -11.85 3.75 -11.95 3.6 -12.05 3.3 -12.15 3.0 -12.25 2.7 -12.3 2.55 -12.3 2.4 -12.3 2.25 -12.45 1.2 -12.4 0.15 -12.4 -0.75 -12.3 -0.8 -12.15 -0.85 -12.05 -0.85 -11.9 -0.7" fill="#333333" fill-rule="evenodd" stroke="none"/>
    <path d="M12.7 -9.6 L12.85 -9.6 12.95 -9.6 13.05 -9.45 13.05 -9.3 13.1 -9.15 13.15 -9.0 13.2 -8.85 13.3 -8.7 13.3 -8.25 13.35 -7.8 13.5 -7.2 13.5 -6.15 13.55 -5.1 13.55 -4.2 13.5 -4.05 13.4 -3.9 13.35 -3.75 13.35 -3.6 13.35 -3.45 13.3 -3.3 13.2 -3.2 13.05 -3.15 12.7 -3.2 12.55 -3.35 12.55 -3.8 12.55 -4.25 12.55 -4.7 12.55 -4.85 12.6 -5.0 12.8 -5.15 12.95 -5.25 13.0 -6.15 13.0 -7.05 12.8 -7.8 12.8 -8.1 12.8 -8.4 12.8 -8.7 12.75 -8.85 12.65 -9.15 12.65 -9.3 12.65 -9.45 12.7 -9.55 12.7 -9.6" fill="#333333" fill-rule="evenodd" stroke="none"/>
  </g>
</svg>
