<?xml version="1.0" encoding="UTF-8" standalone="no"?>
<svg xmlns:xlink="http://www.w3.org/1999/xlink" height="47.7px" width="32.15px" xmlns="http://www.w3.org/2000/svg">
  <g transform="matrix(1.0, 0.0, 0.0, 1.0, 16.4, 23.65)">
    <path d="M4.55 -1.2 L4.8 -0.6 5.4 0.0 6.6 0.4 7.0 0.6 8.2 1.6 8.8 2.2 9.4 2.8 10.0 3.4 10.25 4.0 10.55 4.6 10.8 5.2 10.95 6.4 11.0 9.4 10.9 11.2 10.7 14.2 10.6 15.4 9.75 16.55 9.2 17.2 8.6 17.8 7.8 18.4 6.4 18.8 6.2 18.95 5.4 19.35 4.0 19.8 1.6 19.75 0.2 19.6 -1.6 20.0 -3.2 19.95 -4.4 19.75 -4.8 19.6 -5.2 19.2 -5.75 18.55 -6.0 18.0 -6.2 17.4 -6.4 16.8 -6.6 16.2 -7.4 15.6 -8.4 15.0 -8.8 14.4 -9.2 13.8 -9.6 13.2 -9.8 12.6 -10.0 12.0 -10.2 11.4 -10.2 10.8 -10.2 8.4 -10.2 7.2 -10.2 4.8 -10.15 3.6 -10.0 3.0 -9.6 2.4 -9.15 1.8 -8.6 1.2 -7.8 0.6 -6.0 0.0 -5.4 -0.6 -5.2 -1.2 -5.0 -1.8 -4.55 -2.4 -4.0 -3.0 -3.0 -3.6 -1.6 -4.0 0.8 -4.0 0.8 -3.9 2.4 -3.6 3.2 -3.0 3.75 -2.4 4.2 -1.8 4.55 -1.2" fill="#663333" fill-opacity="0.2" fill-rule="evenodd" stroke="none"/>
    <path d="M0.25 -9.6 L0.6 -9.0 1.4 -8.4 3.2 -7.8 4.0 -7.2 4.6 -6.6 4.85 -6.0 5.4 -4.8 6.05 -3.6 6.35 -3.0 6.6 -2.4 6.6 0.0 6.6 3.6 6.55 7.2 6.4 8.4 5.5 10.15 4.0 12.0 3.4 12.6 2.8 13.2 1.6 13.8 Q0.9 14.6 0.5 15.55 L-0.25 16.75 -0.8 17.4 -1.6 18.0 -3.2 18.4 -4.8 18.4 -6.2 17.95 -7.2 17.6 -8.0 18.0 -8.4 17.5 -8.4 17.0 -10.2 16.4 -11.0 15.8 -11.4 15.2 -11.8 14.6 -11.95 14.0 -12.0 13.4 -12.35 12.8 -12.6 12.2 -12.75 11.0 -12.8 8.6 -12.8 6.8 -12.8 6.2 -12.8 5.6 -12.6 5.0 -12.4 4.4 -12.2 3.8 -12.0 3.2 -12.15 2.6 -12.2 2.0 -12.0 1.4 -11.8 0.8 -11.8 0.2 -11.8 -0.4 -11.6 -1.0 -11.45 -1.6 -11.4 -2.2 -11.0 -2.8 -10.8 -3.4 -10.6 -4.0 -10.25 -4.6 -10.0 -5.2 -9.45 -5.8 -9.1 -6.45 -9.0 -7.0 -9.0 -7.6 -9.0 -8.2 -9.0 -8.8 -9.0 -9.4 -8.65 -10.0 -8.35 -10.6 -8.0 -11.2 -7.2 -11.8 -5.6 -12.2 -3.2 -12.2 -3.2 -12.1 -2.0 -11.95 -1.6 -11.8 -0.45 -10.75 -0.05 -10.2 0.25 -9.6" fill="#663333" fill-opacity="0.2" fill-rule="evenodd" stroke="none"/>
    <path d="M0.0 -18.0 L0.0 -17.9 1.2 -17.8 2.0 -17.45 4.0 -16.75 5.2 -16.2 6.2 -15.6 6.8 -15.0 7.4 -14.4 7.65 -13.8 8.0 -13.2 8.45 -12.6 9.0 -12.0 9.25 -11.4 9.55 -10.8 9.8 -10.2 9.9 -9.6 10.0 -6.6 10.0 -3.6 9.95 -1.2 9.8 0.0 9.45 0.6 9.2 1.2 9.2 1.8 9.15 2.4 9.0 3.0 8.6 3.6 8.3 4.25 8.2 4.8 8.2 6.6 8.2 7.8 8.2 8.4 8.2 9.0 8.15 9.6 8.0 10.2 7.55 10.8 7.05 11.4 6.7 12.05 6.6 12.6 6.6 13.2 6.15 14.4 5.75 15.0 5.2 15.6 4.5 16.25 4.2 16.8 4.15 17.4 4.0 18.0 3.8 18.6 3.2 19.2 2.4 19.8 0.8 20.2 -3.2 20.1 -4.4 19.95 -4.8 19.8 -5.4 19.35 -6.0 18.8 -7.6 18.35 -8.0 18.2 -8.6 17.8 -9.0 17.2 -9.35 16.6 -9.6 16.0 Q-9.95 14.85 -9.85 13.6 L-9.8 10.6 -9.8 8.8 -9.75 7.6 -9.6 7.0 -9.25 6.4 -8.95 5.8 -8.65 5.2 -8.4 4.6 -8.65 4.0 -9.0 3.4 -9.2 2.8 -9.4 2.2 -9.6 1.6 -9.95 1.0 -10.25 0.4 -10.5 -0.25 -10.6 -0.8 -10.6 -3.2 -10.6 -6.2 -10.6 -8.0 -10.55 -9.2 -10.4 -9.8 -10.05 -10.4 -9.8 -11.0 Q-9.3 -11.6 -8.95 -12.3 L-7.9 -14.05 -7.15 -15.2 -6.75 -15.8 -6.2 -16.4 -5.0 -17.0 -4.0 -17.6 -2.4 -18.0 0.0 -18.0" fill="#663333" fill-opacity="0.2" fill-rule="evenodd" stroke="none"/>
    <path d="M3.1 20.7 L3.9 21.0 5.8 21.2 6.05 21.25 6.15 21.3 6.25 21.4 6.35 21.55 6.4 21.7 6.4 21.85 6.4 22.0 6.3 22.15 6.25 22.3 6.25 22.45 6.25 22.6 6.0 22.9 5.85 23.05 5.7 23.2 5.55 23.35 5.2 23.45 3.4 23.55 3.15 23.5 2.95 23.4 2.45 23.25 2.2 23.1 2.0 22.95 1.75 22.8 1.35 22.7 1.25 22.65 -2.4 22.65 -2.8 22.6 -3.6 22.55 -3.65 22.55 -3.65 22.65 -3.8 22.8 -4.0 22.95 -4.4 23.05 -4.6 23.05 -4.9 23.0 -5.05 22.9 -5.25 22.75 -5.45 22.6 -6.25 22.15 -6.65 21.55 -6.65 21.4 -6.65 21.25 -6.55 21.1 -6.5 20.95 -6.4 20.8 -6.2 20.65 -5.8 20.55 -5.6 20.55 -5.3 20.55 -5.3 20.5 -5.2 20.4 -5.0 20.25 -4.6 20.15 -4.4 20.15 -4.1 20.2 -4.0 20.25 -3.8 20.35 -3.5 20.5 -3.35 20.65 -2.8 20.8 Q-1.7 21.1 -0.8 20.8 L-0.8 20.7 -0.75 20.55 -0.65 20.4 -0.55 20.25 -0.35 20.1 0.0 20.0 0.8 20.0 0.8 20.05 1.1 20.05 1.5 20.15 3.1 20.7" fill="#663333" fill-opacity="0.2" fill-rule="evenodd" stroke="none"/>
    <path d="M4.2 20.55 L4.6 20.45 5.8 20.5 6.05 20.55 6.25 20.6 6.4 20.7 6.55 20.85 6.65 21.0 6.65 21.15 6.65 21.3 6.6 21.45 6.5 21.6 6.35 21.75 5.8 21.9 5.4 21.95 4.55 22.0 4.4 22.1 2.8 22.35 1.5 22.55 1.5 22.65 1.45 22.8 1.3 22.95 1.15 23.1 1.0 23.25 0.8 23.4 0.4 23.5 -0.2 23.5 -0.65 23.4 -1.35 23.4 -1.4 23.4 -1.5 23.5 -1.8 23.65 -2.0 23.8 -2.2 23.95 -2.6 24.05 -3.4 24.05 -3.7 24.0 -3.85 23.9 -4.05 23.75 -4.25 23.6 -4.35 23.45 -4.45 23.3 -4.5 23.15 -4.5 23.0 -4.5 22.85 -4.5 22.7 -4.8 22.55 -5.05 22.4 -5.3 22.25 Q-5.4 22.2 -5.55 22.1 L-5.7 21.95 -6.0 21.8 -6.2 21.65 -6.5 21.35 -6.6 21.2 -6.65 21.05 -6.7 20.9 -6.7 20.75 -6.65 20.6 -6.6 20.45 -6.55 20.3 -6.4 20.15 -6.2 20.0 -5.8 19.9 -3.8 19.9 -3.4 20.0 -3.2 20.0 -3.0 19.85 -2.6 19.75 0.6 19.7 0.8 19.7 0.8 19.75 1.1 19.8 1.25 19.95 1.3 20.1 1.4 20.25 1.45 20.4 1.45 20.55 1.45 20.65 2.95 20.7 3.4 20.6 4.0 20.6 4.2 20.55" fill="#663333" fill-opacity="0.2" fill-rule="evenodd" stroke="none"/>
    <path d="M10.2 -20.35 L11.5 -19.4 11.8 -19.1 12.0 -18.8 12.1 -18.5 12.1 -18.2 12.1 -17.9 12.1 -17.6 12.1 -17.3 11.9 -17.0 11.7 -16.7 11.9 -16.4 12.3 -16.1 12.8 -15.8 13.1 -15.5 13.2 -15.2 13.4 -14.9 13.6 -14.6 13.85 -14.25 13.9 -14.0 13.9 -13.7 13.85 -13.4 13.7 -13.1 13.2 -12.9 12.85 -13.05 12.7 -13.2 12.5 -13.5 12.4 -13.8 12.2 -14.1 12.0 -14.4 11.8 -14.7 11.2 -14.9 11.1 -15.0 10.9 -15.2 10.4 -15.5 9.9 -15.8 9.6 -16.1 9.0 -16.4 8.6 -16.7 8.2 -17.0 7.7 -17.3 7.2 -17.6 5.2 -17.8 4.8 -17.9 4.4 -18.1 3.7 -18.4 1.3 -18.8 0.0 -19.0 -0.4 -19.1 -0.6 -19.2 -4.0 -19.3 -4.7 -19.3 -5.1 -19.2 -5.3 -19.05 -5.9 -18.75 -6.1 -18.65 -6.75 -18.2 -6.8 -18.0 -7.0 -17.7 -7.3 -17.4 -7.6 -17.1 -7.9 -16.8 -8.0 -16.5 -8.1 -16.2 -8.4 -15.9 -9.0 -15.3 -9.3 -15.0 -9.5 -14.7 -9.6 -14.4 -9.6 -14.1 -9.7 -13.8 -9.9 -13.5 -10.0 -13.2 -10.2 -12.9 -10.4 -12.6 -10.4 -12.3 -10.4 -12.0 -10.6 -11.7 -10.8 -11.4 -10.8 -11.1 -10.8 -10.8 -11.0 -10.5 -11.2 -10.2 -11.3 -9.9 -11.5 -9.6 -11.6 -9.3 -11.6 -9.0 -11.6 -8.7 -11.6 -8.4 -11.8 -8.1 -12.1 -7.8 -12.4 -7.5 -12.65 -7.2 -12.8 -6.9 -12.8 -6.6 -12.8 -6.3 -12.8 -6.0 -13.0 -5.7 -13.15 -5.4 -13.2 -5.1 -13.2 -4.5 -13.2 -3.9 -13.2 -3.0 -13.2 -2.4 -13.2 -2.1 -13.2 -1.8 -13.3 -1.5 -13.5 -1.2 -13.6 -0.9 -13.6 -0.6 -13.6 -0.3 -13.6 0.0 -13.6 0.3 -13.7 0.6 -13.9 0.9 -14.0 1.2 -14.0 1.5 -13.95 1.8 -13.8 2.1 -13.65 2.4 -13.6 2.7 -13.6 3.0 -13.6 3.3 -13.5 3.6 -13.1 3.8 -12.8 4.0 -12.5 4.3 -12.3 4.6 -12.15 4.9 -12.1 5.2 -12.1 7.6 -12.1 9.7 -12.1 11.5 -12.15 12.7 -12.2 13.3 -12.4 13.6 -12.6 13.9 -13.2 14.1 -13.7 13.9 -13.9 13.6 -14.1 13.3 -14.25 13.0 -14.3 12.7 -14.3 11.5 -14.3 9.7 -14.3 8.2 -14.3 7.0 -14.3 6.4 -14.3 6.1 -14.5 5.8 -14.9 5.5 -15.2 5.2 -15.6 4.9 -15.8 4.6 -15.9 4.3 -16.0 4.0 -16.0 3.7 -16.2 3.4 -16.3 3.1 -16.35 2.8 -16.4 2.2 -16.4 1.6 -16.4 1.0 -16.4 0.7 -16.4 0.4 -16.4 0.1 -16.4 -0.2 -16.2 -0.5 -16.1 -0.8 -16.0 -1.1 -16.0 -1.4 -16.0 -1.7 -16.0 -2.0 -15.9 -2.3 -15.8 -2.6 -15.65 -2.9 -15.6 -3.2 -15.6 -3.8 -15.6 -4.4 -15.6 -5.3 -15.6 -5.9 -15.6 -6.2 -15.6 -6.5 -15.5 -6.8 -15.3 -7.1 -15.2 -7.4 -15.2 -7.7 -15.1 -8.0 -14.9 -8.3 -14.8 -8.6 -14.6 -8.9 -14.5 -9.2 -14.2 -9.5 -14.0 -9.8 -14.0 -10.1 -14.0 -10.4 -13.9 -10.7 -13.8 -11.0 -13.6 -11.3 -13.35 -11.6 -13.2 -11.9 -13.15 -12.2 -13.0 -12.5 -12.9 -12.8 -12.85 -13.1 -12.8 -13.7 -12.8 -14.0 -12.8 -14.3 -12.8 -14.6 -12.8 -14.9 -12.7 -15.2 -12.5 -15.5 -12.4 -15.8 -12.2 -16.1 -12.1 -16.4 -11.85 -16.7 -11.5 -17.3 -11.3 -17.6 -11.0 -17.9 -10.6 -18.2 -10.1 -18.5 -9.9 -18.8 -9.8 -19.1 -9.5 -19.4 -9.2 -19.7 -9.1 -20.0 -8.9 -20.3 -8.6 -20.6 -7.4 -21.0 -6.9 -21.2 -6.6 -21.4 -6.1 -21.6 -5.8 -21.8 -5.2 -22.0 -4.4 -22.0 -3.0 -22.1 -2.4 -22.3 -0.4 -22.3 0.4 -22.15 6.1 -21.8 6.4 -21.6 6.7 -21.4 8.0 -21.25 8.4 -21.2 8.7 -21.05 10.2 -20.35" fill="#ffffff" fill-opacity="0.101960786" fill-rule="evenodd" stroke="none"/>
    <path d="M10.5 -19.5 L10.8 -19.2 11.1 -18.9 11.4 -18.6 11.7 -18.3 11.85 -18.0 11.9 -17.7 11.9 -17.4 11.9 -17.1 11.9 -16.8 11.9 -16.5 11.9 -16.2 11.9 -15.9 12.0 -15.6 12.2 -15.3 12.3 -15.0 12.3 -14.7 12.3 -14.4 12.4 -14.1 12.7 -13.8 13.0 -13.5 13.2 -13.2 13.3 -12.9 13.5 -12.6 13.6 -12.3 13.6 -12.0 13.7 -11.7 13.9 -11.4 14.0 -11.1 14.0 -10.8 14.0 -10.5 14.0 -10.2 14.2 -9.9 14.35 -9.6 14.4 -9.3 14.4 -9.0 14.4 -8.7 14.4 -8.4 14.5 -8.1 14.7 -7.8 14.8 -7.5 14.8 -7.2 14.8 -6.9 14.8 -6.6 15.0 -6.3 15.15 -6.0 15.2 -5.7 15.2 -4.5 15.2 -3.9 15.2 -3.6 15.2 -3.0 15.2 -2.7 15.2 -2.1 15.2 -1.8 15.2 -1.5 15.2 -1.2 15.0 -0.9 14.9 -0.6 14.9 0.0 14.85 1.5 14.8 3.6 14.8 4.5 14.8 5.4 14.8 6.0 14.8 6.3 14.7 6.6 14.4 6.9 13.5 7.8 13.2 8.1 12.7 8.7 12.5 9.0 12.0 9.6 11.7 9.9 11.5 10.2 11.3 10.5 10.8 10.7 10.35 10.45 10.2 10.2 10.0 9.9 9.9 9.6 10.0 9.3 10.1 9.0 10.1 8.7 10.2 8.4 10.6 7.8 10.8 7.5 11.1 6.9 11.3 6.6 11.9 6.0 12.2 5.7 12.35 5.4 12.4 5.1 12.4 4.2 12.4 2.4 12.3 0.9 12.3 0.0 12.3 -0.6 12.4 -1.2 12.5 -1.5 12.6 -1.8 12.75 -2.1 12.8 -2.4 12.8 -3.0 12.8 -3.3 12.8 -3.6 12.8 -3.9 12.8 -4.2 12.8 -4.5 12.7 -4.8 12.6 -5.1 12.45 -5.4 12.4 -5.7 12.4 -6.0 12.35 -6.3 12.2 -6.6 12.1 -6.9 12.0 -7.2 12.0 -7.5 12.0 -7.8 12.0 -8.1 11.9 -8.4 11.8 -8.7 11.65 -9.0 11.6 -9.3 11.6 -9.6 11.6 -9.9 11.6 -10.2 11.5 -10.5 11.3 -10.8 11.2 -11.1 11.2 -11.4 10.9 -12.0 10.8 -12.3 10.6 -12.6 10.4 -12.9 10.2 -13.2 10.1 -13.5 9.9 -13.8 9.8 -14.1 9.7 -14.4 9.6 -14.7 8.8 -15.6 8.5 -15.9 7.9 -16.5 7.6 -16.8 7.0 -17.4 6.7 -17.7 6.4 -18.0 6.1 -18.3 5.6 -18.6 5.2 -18.9 5.0 -19.2 4.9 -19.5 3.2 -19.65 -0.4 -19.75 -2.2 -19.7 -2.8 -19.5 -3.6 -19.5 -5.1 -19.4 -5.6 -19.2 -6.0 -19.2 -7.2 -19.3 -8.0 -19.3 -8.2 -19.15 -8.7 -18.9 -8.95 -18.55 -9.0 -18.3 -10.0 -18.25 -10.2 -18.3 -10.05 -18.45 -9.4 -18.75 -9.4 -18.8 -9.3 -19.0 -9.1 -19.3 -9.0 -19.6 -8.8 -19.9 -8.5 -20.2 -8.2 -20.5 -7.2 -20.65 -6.0 -20.8 -5.7 -21.0 -5.2 -21.2 -3.6 -21.3 -2.9 -21.5 -2.4 -21.7 -0.4 -21.8 3.2 -21.85 6.8 -21.9 6.8 -21.85 7.3 -21.8 7.6 -21.6 8.1 -21.4 8.4 -21.2 8.9 -21.0 9.0 -20.9 9.3 -20.7 9.6 -20.4 9.9 -20.1 10.1 -19.8 10.5 -19.5" fill="#ffffff" fill-opacity="0.101960786" fill-rule="evenodd" stroke="none"/>
    <path d="M-11.6 5.2 L-11.45 5.25 -11.45 5.35 -11.4 5.4 -11.4 5.5 -11.35 5.55 -11.35 5.65 -11.35 5.7 -11.35 5.8 -11.3 5.95 -11.25 6.05 -11.2 6.25 -11.15 6.3 -11.15 6.4 -11.1 6.55 -11.05 6.7 -11.0 6.75 -10.95 6.7 -10.9 6.5 -10.8 6.3 -10.8 6.2 -10.8 6.05 -10.8 5.9 -10.8 5.85 -10.75 5.75 -10.7 5.7 -10.65 5.6 -10.5 5.55 -10.35 5.6 -10.3 5.7 -10.25 5.75 -10.2 5.85 -10.2 6.0 -10.2 6.2 -10.2 6.45 -10.25 6.55 -10.35 6.8 -10.4 7.05 -10.4 7.1 -10.45 7.2 -10.55 7.25 -10.6 7.3 -10.65 7.4 -11.05 7.4 -11.4 7.2 -11.45 7.1 -11.6 6.5 -11.8 5.9 -11.8 5.4 -11.75 5.3 -11.7 5.25 -11.6 5.2" fill="#333333" fill-rule="evenodd" stroke="none"/>
    <path d="M-5.5 9.8 L-5.45 9.85 -5.45 10.3 -5.45 10.85 -5.45 11.35 -5.4 11.4 -5.2 11.4 -4.95 11.1 -4.7 10.75 -4.65 10.5 -4.55 10.45 -4.5 10.4 -4.4 10.35 -4.25 10.4 -4.2 10.5 -4.15 10.55 -4.15 10.6 -4.1 10.7 -4.35 11.25 -4.85 11.8 -5.05 11.95 -5.2 12.0 -5.4 11.95 -5.55 11.9 -5.65 11.9 -5.7 11.95 -5.75 12.05 -5.8 12.1 -5.85 12.2 -6.0 12.25 -6.3 12.2 -6.7 12.05 -6.8 11.9 -6.95 11.65 -7.1 11.45 -7.1 11.35 -7.15 11.2 -7.2 11.05 -7.2 10.9 -7.25 10.85 -7.3 10.75 -7.3 10.7 -7.35 10.6 -7.35 10.55 -7.4 10.45 -7.4 10.4 -7.4 10.25 -7.4 10.0 -7.35 9.85 -7.3 9.8 -7.2 9.75 -7.05 9.8 -7.05 9.95 -7.0 10.15 -7.0 10.35 -6.95 10.45 -6.95 10.5 -6.9 10.6 -6.85 10.7 -6.85 10.75 -6.8 10.85 -6.75 10.9 -6.75 11.0 -6.75 11.05 -6.7 11.2 -6.6 11.35 -6.45 11.6 -6.35 11.75 -6.15 11.75 -6.1 11.65 -6.05 11.6 -6.05 11.5 -6.0 11.45 -6.0 11.35 -6.0 11.3 -6.05 11.2 -6.05 10.9 -6.05 10.45 -6.05 10.0 -6.05 9.95 -6.0 9.85 -5.9 9.8 -5.85 9.7 -5.7 9.65 -5.55 9.7 -5.5 9.8" fill="#333333" fill-rule="evenodd" stroke="none"/>
    <path d="M0.7 8.35 L0.7 8.4 0.7 8.5 0.65 8.6 0.6 8.65 0.5 8.75 0.45 8.8 0.3 8.85 -0.35 8.85 -0.5 8.95 -0.75 9.3 -0.9 9.45 -0.95 9.5 -1.0 9.5 -1.1 9.55 -1.5 9.55 -1.65 9.5 -1.75 9.4 -1.9 9.3 -2.0 9.25 -2.1 9.2 -2.15 9.1 -2.15 9.05 -2.2 8.95 -2.25 8.9 -2.3 8.8 -2.35 8.65 -2.45 8.45 -2.45 8.3 -2.45 8.2 -2.45 8.15 -2.45 8.05 -2.45 8.0 -2.4 7.9 -2.25 7.9 -2.15 7.95 -2.15 8.1 -2.05 8.35 -2.0 8.55 -1.95 8.65 -1.95 8.7 -1.9 8.8 -1.85 8.85 -1.8 8.95 -1.65 9.0 -1.55 9.05 -1.15 9.05 -1.0 8.9 -0.8 8.65 -0.7 8.5 -0.7 8.45 -0.65 8.35 -0.65 8.3 -0.6 8.2 -0.6 8.15 -0.6 8.05 -0.6 8.0 -0.6 7.9 -0.55 7.85 -0.4 7.8 -0.25 7.85 -0.15 7.9 -0.1 8.0 -0.1 8.05 -0.05 8.15 -0.05 8.2 0.0 8.3 0.05 8.3 0.3 8.3 0.35 8.2 0.4 8.15 0.55 8.15 0.6 8.2 0.65 8.3 0.7 8.35" fill="#333333" fill-rule="evenodd" stroke="none"/>
    <path d="M-8.3 12.35 L-8.15 12.4 -8.05 12.45 -8.0 12.75 -7.85 13.2 -7.7 13.65 -7.65 13.5 -7.6 13.25 -7.6 12.95 -7.6 12.8 -7.6 12.7 -7.55 12.65 -7.5 12.55 -7.4 12.5 -7.3 12.5 -7.15 12.55 -7.05 12.6 -7.0 12.7 -7.0 12.75 -6.95 12.85 -6.95 12.9 -6.95 13.0 -6.95 13.05 -6.9 13.35 -6.8 13.75 -6.7 14.1 -6.65 14.2 -6.6 14.25 -6.35 14.25 -6.3 14.15 -6.2 14.1 -6.2 14.0 -6.15 13.95 -6.15 13.85 -6.1 13.8 -6.1 13.7 -6.05 13.65 -6.05 13.55 -6.0 13.5 -6.0 13.4 -6.0 13.35 -5.95 13.25 -5.9 13.2 -5.85 13.1 -5.75 13.05 -5.6 13.0 -5.45 13.05 -5.35 13.1 -5.3 13.2 -5.3 13.35 -5.25 13.55 -5.25 13.8 -5.25 13.95 -5.25 14.0 -5.2 14.1 -5.2 14.15 -5.15 14.25 -5.15 14.3 -5.15 14.4 -5.15 14.45 -5.1 14.55 -5.1 14.6 -5.1 14.7 -5.15 14.75 -5.2 14.8 -5.25 14.9 -5.3 14.9 -5.4 14.95 -5.55 14.9 -5.65 14.8 -5.7 14.75 -5.8 14.65 -5.85 14.7 -5.9 14.75 -5.95 14.85 -6.0 14.9 -6.2 14.9 -6.7 14.95 -6.85 14.9 -6.95 14.8 -7.0 14.75 -7.1 14.65 -7.15 14.6 -7.25 14.65 -7.3 14.7 -7.35 14.75 -7.45 14.85 -7.6 14.9 -7.75 14.85 -7.85 14.8 -7.9 14.7 -8.0 14.55 -8.1 14.4 -8.1 14.35 -8.15 14.25 -8.15 14.2 -8.2 14.1 -8.25 14.15 -8.3 14.35 -8.4 14.6 -8.4 14.65 -8.45 14.75 -8.5 14.8 -8.55 14.85 -8.65 15.0 -8.7 15.0 -8.8 15.05 -9.0 15.05 -9.15 15.0 -9.3 14.85 -9.45 14.65 -9.55 14.4 -9.55 14.35 -9.55 14.25 -9.65 13.75 -9.6 13.15 -9.55 12.55 -9.5 12.5 -9.5 12.45 -9.4 12.45 -9.25 12.5 -9.25 12.55 -9.2 12.65 -9.2 12.7 -9.2 13.0 -9.15 13.45 -9.15 13.9 -9.15 14.0 -9.1 14.05 -9.1 14.15 -9.05 14.2 -9.05 14.3 -9.0 14.35 -8.95 14.4 -8.9 14.25 -8.8 13.95 -8.8 13.65 -8.75 13.5 -8.75 13.45 -8.75 13.35 -8.7 13.3 -8.7 13.2 -8.65 13.15 -8.65 13.05 -8.65 13.0 -8.65 12.85 -8.65 12.7 -8.65 12.6 -8.65 12.55 -8.6 12.45 -8.55 12.4 -8.4 12.35 -8.3 12.35" fill="#333333" fill-rule="evenodd" stroke="none"/>
    <path d="M-4.6 18.1 L-4.6 18.0 -4.55 17.95 -4.5 17.85 -4.4 17.8 -4.3 17.8 -4.15 17.85 -4.05 17.9 -4.0 18.0 -3.95 18.15 -3.85 18.35 -3.8 18.55 -3.8 18.65 -3.8 18.7 -3.8 18.8 -3.8 18.9 -3.8 18.95 -3.8 19.05 -3.8 19.1 -3.8 19.2 -3.8 19.25 -3.85 19.3 -3.85 19.35 -3.9 19.4 -4.0 19.45 -4.15 19.4 -4.2 19.3 -4.25 19.35 -4.3 19.5 -4.4 19.65 -4.45 19.75 -4.5 19.8 -4.6 19.8 -4.75 19.85 -4.9 19.9 -5.2 19.9 -5.35 19.85 -5.55 19.65 -5.7 19.35 -5.8 19.15 -5.85 19.2 -5.85 19.3 -5.9 19.35 -5.95 19.45 -6.05 19.5 -6.15 19.6 -6.3 19.65 -6.4 19.6 -6.6 19.55 -6.65 19.55 -6.7 19.7 -6.7 19.95 -6.7 20.15 -6.75 20.2 -6.8 20.35 -6.9 20.55 -6.95 20.6 -7.1 20.6 -7.2 20.55 -7.35 20.55 -7.55 20.25 -7.75 19.85 -7.85 19.7 -7.9 19.65 -7.9 19.55 -7.95 19.5 -8.0 19.4 -8.05 19.25 -8.1 19.1 -8.1 19.05 -8.15 18.95 -8.25 18.8 -8.3 18.65 -8.5 18.05 -8.7 17.45 -8.8 17.0 -8.85 16.9 -8.9 16.85 -8.9 16.65 -8.9 16.35 -8.85 16.05 -8.8 16.0 -8.8 15.95 -8.7 15.95 -8.55 16.0 -8.55 16.15 -8.5 16.35 -8.5 16.6 -8.5 16.65 -8.45 16.75 -8.4 16.8 -8.4 16.9 -8.35 16.95 -8.3 17.05 -8.25 17.25 -8.15 17.55 -8.1 17.8 -8.05 17.85 -8.0 18.0 -7.95 18.25 -7.85 18.45 -7.75 18.6 -7.65 18.85 -7.5 19.05 -7.5 19.15 -7.45 19.2 -7.4 19.3 -7.4 19.35 -7.35 19.45 -7.35 19.5 -7.3 19.5 -7.3 19.45 -7.25 19.4 -7.2 19.35 -7.2 19.25 -7.25 18.25 -7.3 17.3 -7.3 16.5 -7.3 16.4 -7.25 16.35 -7.15 16.25 -7.0 16.2 -6.85 16.25 -6.8 16.35 -6.7 16.4 -6.7 16.55 -6.7 16.8 -6.7 17.0 -6.6 17.45 -6.6 17.9 -6.6 18.35 -6.6 18.4 -6.5 18.6 -6.4 18.7 -6.35 18.75 -6.3 18.6 -6.25 18.35 -6.2 18.15 -6.2 18.05 -6.2 18.0 -6.2 17.9 -6.2 17.85 -6.15 17.75 -6.15 17.7 -6.1 17.6 -6.1 17.55 -6.1 17.45 -6.1 17.4 -6.1 17.3 -6.1 17.25 -6.05 17.15 -6.0 17.1 -5.9 17.05 -5.8 17.0 -5.7 17.0 -5.55 17.05 -5.5 17.15 -5.4 17.2 -5.4 17.3 -5.4 17.35 -5.4 17.45 -5.4 17.5 -5.3 17.95 -5.25 18.45 -5.2 18.95 -5.15 19.0 -5.1 19.15 -4.95 19.25 -4.95 19.2 -4.85 19.05 -4.8 18.9 -4.75 18.85 -4.75 18.75 -4.7 18.7 -4.7 18.6 -4.7 18.55 -4.7 18.45 -4.65 18.4 -4.65 18.3 -4.6 18.25 -4.6 18.15 -4.6 18.1" fill="#333333" fill-rule="evenodd" stroke="none"/>
    <path d="M0.15 18.45 L0.25 18.5 0.3 18.6 0.3 18.65 0.35 18.75 0.35 18.8 0.35 18.9 0.3 18.95 0.25 19.05 0.25 19.1 0.25 19.2 0.25 19.25 0.25 19.35 0.15 19.55 0.1 19.8 0.0 20.0 -0.05 20.1 -0.05 20.15 -0.1 20.25 -0.1 20.3 -0.3 20.6 -0.5 20.9 -0.6 21.05 -0.75 21.1 -0.8 21.2 -0.85 21.2 -1.0 21.2 -1.2 21.25 -1.35 21.2 -1.55 21.05 -1.75 20.8 -1.8 20.75 -1.8 20.65 -1.85 20.6 -1.85 20.5 -1.85 20.45 -1.9 20.45 -2.0 20.4 -2.15 20.35 -2.35 20.2 -2.55 19.95 -2.6 19.9 -2.6 19.85 -2.65 19.75 -2.65 19.7 -2.7 19.6 -2.8 19.7 -2.85 19.9 -2.9 20.15 -2.95 20.25 -3.0 20.3 -3.0 20.35 -3.1 20.35 -3.2 20.4 -3.4 20.4 -3.55 20.35 -3.85 20.0 -4.1 19.6 -4.15 19.45 -4.2 19.15 -4.3 18.85 -4.35 18.65 -4.4 18.55 -4.5 18.25 -4.6 17.95 -4.65 17.75 -4.65 17.3 -4.65 16.85 -4.6 16.4 -4.6 16.3 -4.55 16.25 -4.55 16.15 -4.55 16.1 -4.55 16.0 -4.55 15.85 -4.5 15.8 -4.35 15.8 -4.3 15.85 -4.25 15.95 -4.25 16.0 -4.2 16.1 -4.2 16.15 -4.2 16.25 -4.2 16.3 -4.15 16.4 -4.15 16.75 -4.15 17.2 -4.15 17.6 -4.1 17.75 -4.05 17.9 -4.0 18.0 -4.0 18.1 -3.95 18.15 -3.9 18.25 -3.9 18.35 -3.85 18.4 -3.8 18.5 -3.75 18.7 -3.65 19.0 -3.6 19.25 -3.6 19.3 -3.5 19.45 -3.4 19.55 -3.35 19.35 -3.25 19.05 -3.2 18.75 -3.15 18.0 -3.1 17.2 -3.1 16.65 -3.05 16.6 -3.0 16.5 -2.95 16.45 -2.9 16.45 -2.8 16.4 -2.65 16.45 -2.6 16.55 -2.5 16.6 -2.5 17.15 -2.5 17.65 -2.5 18.1 -2.4 18.45 -2.35 18.85 -2.25 19.15 -2.2 19.25 -2.15 19.3 -2.15 19.4 -2.1 19.45 -2.05 19.55 -2.05 19.6 -1.95 19.7 -1.95 18.6 -1.85 17.45 -1.8 16.65 -1.8 16.6 -1.75 16.5 -1.65 16.45 -1.5 16.4 -1.35 16.45 -1.25 16.5 -1.15 16.65 -1.05 16.75 -0.9 17.5 -0.85 18.3 -0.85 18.9 -0.9 19.05 -0.95 19.25 -1.0 19.5 -1.1 19.65 -1.15 19.8 -1.25 19.95 -1.25 20.05 -1.25 20.1 -1.25 20.2 -1.25 20.25 -1.2 20.35 -1.2 20.4 -1.15 20.45 -1.1 20.55 -1.0 20.5 -0.9 20.35 -0.8 20.2 -0.75 20.05 -0.7 20.0 -0.7 19.9 -0.65 19.85 -0.6 19.75 -0.6 19.7 -0.55 19.6 -0.55 19.55 -0.5 19.45 -0.45 19.4 -0.45 19.3 -0.4 19.25 -0.4 19.15 -0.4 19.1 -0.4 19.0 -0.4 18.85 -0.35 18.8 -0.35 18.7 -0.3 18.65 -0.3 18.55 -0.2 18.5 -0.15 18.45 -0.1 18.4 0.0 18.4 0.15 18.45" fill="#333333" fill-rule="evenodd" stroke="none"/>
    <path d="M1.75 13.5 L1.8 13.55 1.8 13.65 1.8 13.7 1.8 13.85 1.8 14.0 1.8 14.05 1.8 14.15 1.75 14.2 1.75 14.3 1.75 14.4 1.75 14.45 1.75 14.55 1.7 14.6 1.7 14.7 1.65 14.75 1.65 14.85 1.6 14.9 1.55 15.0 1.55 15.05 1.5 15.15 1.4 15.3 1.25 15.5 1.05 15.7 0.3 15.75 0.15 15.7 0.05 15.6 -0.05 15.45 -0.2 15.3 -0.2 15.25 -0.25 15.25 -0.3 15.35 -0.35 15.45 -0.4 15.5 -0.5 15.5 -1.0 15.55 -1.15 15.5 -1.25 15.4 -1.35 15.25 -1.55 15.05 -1.55 15.0 -1.7 15.2 -1.9 15.5 -2.05 15.7 -2.1 15.7 -2.25 15.75 -2.4 15.8 -2.5 15.85 -2.8 15.85 -2.95 15.8 -3.05 15.65 -3.25 15.4 -3.4 15.2 -3.4 15.1 -3.45 14.95 -3.55 14.75 -3.55 14.6 -3.55 14.5 -3.6 14.45 -3.6 14.3 -3.65 14.15 -3.65 14.05 -3.65 14.0 -3.65 13.8 -3.6 13.7 -3.65 13.6 -3.7 13.55 -3.7 13.5 -3.55 13.45 -3.45 13.5 -3.35 13.6 -3.35 13.65 -3.35 13.75 -3.35 13.8 -3.35 13.9 -3.35 13.95 -3.35 14.05 -3.3 14.2 -3.3 14.35 -3.25 14.4 -3.2 14.5 -3.2 14.55 -3.15 14.7 -3.1 14.85 -3.05 14.95 -3.0 15.0 -2.95 15.1 -2.85 15.25 -2.8 15.3 -2.75 15.35 -2.4 15.35 -2.35 15.25 -2.2 15.1 -2.1 14.95 -2.1 14.9 -2.05 14.8 -2.05 14.75 -2.0 14.65 -1.8 13.5 -1.7 12.35 -1.7 11.5 -1.65 11.45 -1.6 11.35 -1.55 11.3 -1.4 11.25 -1.25 11.3 -1.15 11.35 -1.15 11.45 -1.1 11.5 -1.1 11.6 -1.1 12.55 -1.1 13.6 -1.1 14.35 -1.05 14.45 -1.05 14.55 -1.0 14.65 -1.0 14.7 -0.95 14.8 -0.9 14.85 -0.75 14.85 -0.65 14.7 -0.45 14.4 -0.35 14.15 -0.35 14.05 -0.3 14.0 -0.3 13.85 -0.3 13.7 -0.3 13.6 -0.25 13.5 -0.2 13.35 -0.2 13.25 -0.2 13.2 -0.2 13.1 -0.2 13.05 -0.15 12.95 -0.1 12.9 0.0 12.85 0.1 12.8 0.25 12.85 0.3 12.95 0.4 13.0 0.4 13.1 0.4 13.15 0.4 13.25 0.4 13.3 0.45 13.4 0.4 13.85 0.4 14.45 0.4 14.95 0.4 15.0 0.8 15.05 0.85 14.95 0.85 14.85 0.9 14.8 0.95 14.75 1.0 14.65 1.0 14.6 1.05 14.5 1.05 14.45 1.1 14.35 1.1 14.25 1.15 14.15 1.2 14.0 1.25 13.85 1.25 13.75 1.25 13.7 1.25 13.6 1.25 13.55 1.3 13.45 1.3 13.4 1.3 13.3 1.35 13.25 1.4 13.2 1.4 13.15 1.5 13.15 1.65 13.2 1.65 13.25 1.65 13.35 1.7 13.4 1.75 13.5" fill="#333333" fill-rule="evenodd" stroke="none"/>
    <path d="M1.9 11.35 L2.0 11.35 2.1 11.4 2.15 11.45 2.15 11.5 2.15 11.6 2.1 11.7 2.1 12.0 2.1 12.45 2.2 12.9 2.2 12.95 2.3 13.05 2.5 13.1 3.0 13.15 3.15 13.1 3.25 13.0 3.35 12.95 3.35 12.85 3.4 12.8 3.45 12.7 3.5 12.55 3.55 12.4 3.6 12.25 3.65 12.2 3.7 12.05 3.75 11.7 3.85 11.45 3.9 11.35 3.95 11.3 4.1 11.25 4.25 11.3 4.3 11.35 4.35 11.45 4.35 11.6 4.35 11.8 4.4 12.1 4.4 12.2 4.35 12.25 4.35 12.35 4.3 12.4 4.2 12.55 4.0 12.85 3.9 13.1 3.85 13.4 3.85 13.8 3.9 14.3 3.95 14.35 3.95 14.45 4.0 14.5 4.05 14.55 4.1 14.55 4.5 14.6 4.65 14.55 5.0 14.15 5.4 13.6 5.5 13.5 5.5 13.4 5.5 13.35 5.5 13.25 5.5 13.2 5.65 12.8 5.75 12.35 5.8 12.0 5.8 11.9 5.85 11.85 5.95 11.75 6.1 11.7 6.25 11.75 6.3 11.85 6.4 11.9 6.4 12.05 6.4 12.3 6.4 12.5 6.4 12.6 6.3 12.8 6.25 13.2 6.15 13.55 6.1 13.65 6.1 13.7 6.1 13.85 6.1 14.0 6.1 14.15 6.1 14.2 6.15 14.3 6.25 14.45 6.3 14.55 6.25 14.6 6.2 14.65 6.15 14.75 6.1 14.75 6.0 14.75 5.8 14.8 5.65 14.75 5.55 14.65 5.5 14.6 5.4 14.65 5.2 14.85 5.0 15.05 4.75 15.15 4.0 15.2 3.85 15.15 3.65 14.9 3.45 14.65 3.35 14.4 3.35 14.25 3.35 13.95 3.35 13.65 3.35 13.6 3.3 13.55 3.2 13.6 3.0 13.65 2.9 13.65 2.6 13.65 2.45 13.6 2.2 13.55 2.1 13.45 2.0 13.4 1.9 13.3 1.8 13.25 1.8 13.15 1.75 13.0 1.7 12.85 1.7 12.8 1.7 12.5 1.7 12.05 1.75 11.6 1.75 11.5 1.85 11.45 1.9 11.4 1.9 11.35" fill="#333333" fill-rule="evenodd" stroke="none"/>
    <path d="M5.2 17.55 L5.4 17.6 5.5 17.65 5.5 17.75 5.55 17.8 5.55 17.9 5.6 17.95 5.6 18.05 5.6 18.1 5.35 18.85 5.15 19.65 5.1 20.2 5.65 19.7 6.1 19.0 6.25 18.8 6.3 18.65 6.35 18.4 6.4 18.2 6.4 18.1 6.4 18.05 6.45 17.95 6.5 17.9 6.6 17.85 6.7 17.8 6.85 17.85 6.9 17.95 7.0 18.0 7.0 18.1 7.0 18.15 7.0 18.25 7.05 18.3 7.05 18.4 7.0 18.6 6.95 18.9 6.9 19.15 6.2 20.15 Q5.7 20.95 4.8 21.2 L4.65 21.15 4.55 21.05 4.4 20.9 4.35 20.85 4.35 20.65 4.35 20.45 4.35 20.25 Q4.2 20.25 4.0 20.45 L3.5 20.95 3.4 21.0 3.2 21.05 2.8 21.05 2.65 21.0 2.5 20.95 2.45 21.05 2.35 21.1 2.3 21.15 2.25 21.25 2.1 21.25 1.8 21.2 1.65 21.2 1.4 20.95 1.15 20.75 1.1 20.65 1.0 20.35 0.95 20.05 0.9 19.75 0.9 18.95 0.9 18.0 0.95 17.45 1.0 17.35 1.0 17.3 1.0 17.2 1.0 17.15 1.05 17.05 1.1 17.0 1.2 16.95 1.35 17.0 1.35 17.05 1.4 17.15 1.4 17.2 1.4 17.3 1.4 17.35 1.45 17.45 1.45 17.5 1.5 18.15 1.5 18.95 1.5 19.55 1.55 19.75 1.65 20.05 1.7 20.3 1.7 20.35 1.8 20.45 1.85 20.5 1.9 20.5 2.05 20.35 2.15 20.2 2.2 20.15 2.2 20.05 2.2 19.95 2.2 19.9 2.25 19.75 2.3 18.85 2.35 17.9 2.35 17.3 2.35 17.2 2.4 17.15 2.45 17.05 2.55 17.0 2.6 17.0 2.7 16.95 2.9 17.0 2.95 17.1 3.0 17.15 3.05 17.25 3.05 18.3 3.0 19.4 2.95 20.25 3.15 20.3 4.15 19.1 4.8 17.85 5.0 17.6 5.1 17.55 5.2 17.55" fill="#333333" fill-rule="evenodd" stroke="none"/>
    <path d="M5.25 15.35 L5.25 15.5 5.25 15.7 5.25 16.0 5.25 16.1 5.25 16.15 5.2 16.25 5.2 16.4 5.3 16.35 5.4 16.2 5.45 16.15 5.45 16.05 5.45 16.0 5.45 15.9 5.45 15.85 5.5 15.75 5.5 15.7 5.55 15.6 5.65 15.55 5.8 15.5 5.95 15.55 6.05 15.6 6.1 15.7 6.1 15.75 6.15 15.9 6.15 16.05 6.15 16.2 6.15 16.3 6.1 16.35 6.1 16.45 5.9 16.75 5.55 17.2 5.3 17.4 5.1 17.45 4.7 17.45 4.55 17.4 4.45 17.35 4.4 17.25 4.35 17.2 4.35 17.15 4.25 17.2 4.15 17.3 3.8 17.35 3.3 17.45 3.15 17.4 3.05 17.3 3.0 17.25 2.95 17.15 2.9 17.1 2.9 17.0 2.9 16.95 2.9 16.8 2.9 16.65 2.75 16.7 2.45 17.0 2.25 17.15 2.1 17.15 2.0 17.2 1.85 17.15 1.75 17.05 1.65 17.0 1.55 16.9 1.5 16.85 1.45 16.75 1.45 16.7 1.4 16.6 1.4 16.55 1.4 16.4 1.4 16.15 1.4 15.85 1.4 15.8 1.45 15.7 1.45 15.65 1.45 15.55 1.45 15.5 1.45 15.4 1.5 15.35 1.5 15.25 1.6 15.2 1.7 15.25 1.7 15.35 1.75 15.4 1.75 15.5 1.75 15.55 1.75 15.65 1.75 15.7 1.8 15.8 1.8 15.85 1.8 16.0 1.8 16.25 1.85 16.4 1.85 16.45 1.9 16.5 1.95 16.6 2.1 16.6 2.2 16.5 2.3 16.35 2.45 16.2 2.45 16.15 2.5 16.05 2.5 16.0 2.55 15.9 2.55 15.8 2.6 15.75 2.7 15.6 2.75 15.55 2.75 15.45 2.8 15.3 2.85 15.1 2.9 14.95 2.9 14.85 2.9 14.8 2.9 14.7 2.9 14.65 2.95 14.55 3.0 14.5 3.1 14.45 3.2 14.4 3.35 14.45 3.4 14.55 3.5 14.6 3.5 15.3 3.55 16.1 3.55 16.7 3.8 16.75 3.9 16.65 4.05 16.35 4.3 15.9 4.5 15.7 4.5 15.6 4.55 15.55 4.55 15.45 4.55 15.4 4.55 15.3 4.6 15.25 4.65 15.15 4.75 15.1 4.8 15.1 4.9 15.05 5.1 15.1 5.15 15.2 5.2 15.25 5.25 15.35" fill="#333333" fill-rule="evenodd" stroke="none"/>
    <path d="M6.25 16.2 L6.0 16.25 6.0 16.8 6.05 17.45 6.05 18.05 6.05 18.1 6.1 18.2 6.15 18.35 6.2 18.65 6.3 18.95 6.3 19.05 6.4 19.0 6.55 18.8 6.75 18.55 6.75 18.5 6.8 18.4 6.8 18.35 6.85 18.25 6.9 18.2 6.9 18.1 6.95 18.0 7.05 17.9 7.15 17.75 7.2 17.65 7.35 17.2 7.5 16.6 7.6 16.15 7.6 16.1 7.6 16.0 7.6 15.95 7.6 15.85 7.65 15.8 7.7 15.7 7.75 15.65 7.8 15.65 7.9 15.6 8.05 15.65 8.1 15.75 8.2 15.8 8.2 15.9 8.2 16.05 8.2 16.15 8.25 16.35 8.05 17.35 7.85 18.5 7.85 19.35 7.95 19.4 8.35 18.95 8.7 18.45 8.8 18.2 8.95 17.7 9.1 17.05 9.3 16.55 9.35 16.5 9.35 16.4 9.4 16.35 9.4 16.25 9.45 16.1 9.5 16.05 9.55 15.95 9.65 15.9 9.7 15.9 9.8 15.85 10.0 15.9 10.05 16.0 10.1 16.05 10.15 16.15 10.15 16.65 9.95 17.35 9.8 17.85 9.75 17.95 9.65 18.1 9.6 18.25 9.55 18.3 Q9.75 18.4 10.0 17.95 L10.4 17.3 10.6 17.0 10.6 16.95 10.6 16.85 10.65 16.7 10.7 16.55 10.7 16.45 10.7 16.35 10.75 16.25 10.8 16.2 10.9 16.2 11.0 16.2 11.15 16.25 11.2 16.35 11.3 16.4 11.3 16.5 11.3 16.6 11.35 16.7 11.3 16.75 11.3 16.85 11.3 16.9 11.25 17.1 11.25 17.2 11.25 17.3 11.05 17.6 10.8 18.05 10.65 18.35 10.3 18.75 9.75 19.25 9.7 19.3 9.6 19.3 9.5 19.35 9.2 19.35 9.0 19.3 8.9 19.35 8.8 19.5 8.6 19.7 8.45 19.95 8.3 20.0 7.9 20.15 7.7 20.15 7.55 20.1 7.25 19.95 7.2 19.9 7.15 19.8 7.15 19.65 7.2 19.4 7.2 19.2 7.2 19.05 7.1 19.1 6.9 19.4 6.7 19.65 6.6 19.65 6.5 19.7 6.2 19.7 6.05 19.65 5.95 19.55 5.9 19.5 5.85 19.45 5.8 19.35 5.7 19.05 5.6 18.7 5.55 18.3 5.55 17.65 5.6 16.85 5.65 16.3 5.65 16.2 5.7 16.1 5.8 16.05 5.85 16.0 5.9 16.0 6.25 16.05 6.3 16.1 6.25 16.2" fill="#333333" fill-rule="evenodd" stroke="none"/>
    <path d="M11.1 12.1 L11.15 12.2 11.2 12.25 11.25 12.35 11.25 12.65 11.25 13.1 11.25 13.55 11.25 13.6 11.25 13.7 11.2 13.85 11.2 14.0 11.2 14.15 11.2 14.2 11.25 14.3 11.2 14.35 11.2 14.45 11.2 14.5 11.15 14.6 11.15 14.65 11.1 14.7 11.05 14.8 11.0 14.85 10.95 14.95 10.8 14.95 10.65 14.9 10.55 14.85 10.5 14.75 Q10.35 14.7 10.25 14.9 L9.8 15.35 9.7 15.5 9.6 15.5 9.5 15.55 9.3 15.5 9.15 15.5 9.05 15.4 9.0 15.35 8.9 15.25 8.85 15.2 8.85 15.1 8.8 15.05 8.75 15.0 8.7 15.05 8.65 15.1 8.65 15.2 8.6 15.3 8.6 15.35 8.55 15.45 8.55 15.5 8.5 15.6 8.45 15.65 8.4 15.75 8.25 15.8 8.2 15.85 8.15 15.9 8.0 15.9 7.7 15.85 7.55 15.85 7.5 15.75 7.4 15.6 7.2 15.35 7.15 15.3 7.15 14.7 7.15 13.95 7.2 13.35 7.2 13.3 7.15 13.2 7.1 13.1 7.1 13.05 7.15 13.0 7.2 13.0 7.3 12.95 7.4 12.95 7.5 13.0 7.55 13.05 7.6 13.65 7.65 14.4 7.65 15.0 7.7 15.05 7.75 15.15 7.8 15.25 7.9 15.25 7.95 15.25 8.0 15.2 8.05 15.0 8.15 14.8 8.2 14.75 8.2 14.65 8.25 14.45 8.3 14.2 8.35 14.05 8.4 14.0 8.5 13.65 8.6 13.2 8.6 12.8 8.65 12.7 8.65 12.65 8.7 12.55 8.7 12.5 8.7 12.4 8.7 12.35 8.75 12.25 8.8 12.2 8.9 12.15 9.0 12.1 9.15 12.15 9.2 12.25 9.3 12.3 9.3 13.05 9.3 13.95 9.35 14.65 9.4 14.7 9.55 14.7 9.7 14.55 9.85 14.3 10.0 14.1 10.05 14.0 10.05 13.95 10.1 13.85 10.15 13.8 10.15 13.7 10.2 13.65 10.2 13.55 10.25 13.5 10.3 13.4 10.3 13.35 10.35 13.25 10.35 13.2 10.4 13.1 10.45 13.05 10.5 12.9 10.55 12.8 10.55 12.75 10.55 12.6 10.55 12.45 10.6 12.3 10.6 12.2 10.7 12.15 10.8 12.1 10.9 12.05 11.1 12.1" fill="#333333" fill-rule="evenodd" stroke="none"/>
    <path d="M10.3 8.95 L10.4 8.95 10.55 9.0 10.6 9.05 10.65 9.15 10.7 9.6 10.7 10.2 10.7 10.7 10.7 10.75 10.85 10.75 10.9 10.7 11.0 10.5 11.15 10.3 11.2 10.25 11.25 10.15 11.25 10.1 11.3 10.0 11.35 9.95 11.35 9.85 11.4 9.8 11.4 9.7 11.45 9.65 11.5 9.55 11.5 9.5 11.5 9.4 11.5 9.35 11.55 9.25 11.6 9.1 11.65 8.9 11.7 8.75 11.75 8.65 11.8 8.6 11.9 8.55 12.0 8.5 12.15 8.55 12.2 8.65 12.3 8.7 12.3 8.95 12.25 9.3 12.15 9.65 12.15 9.75 12.1 9.85 12.05 9.9 12.0 10.05 11.95 10.15 11.95 10.2 11.9 10.3 11.9 10.35 11.85 10.45 11.65 10.7 11.35 11.15 11.2 11.4 11.0 11.4 10.35 11.35 10.25 11.25 10.2 11.2 10.15 11.15 10.15 11.05 10.1 10.95 10.1 10.85 10.1 10.75 10.1 10.7 10.05 10.7 10.0 10.8 10.0 10.9 9.95 10.95 9.9 11.05 9.85 11.1 9.7 11.25 9.65 11.3 9.6 11.3 9.5 11.35 9.2 11.35 9.05 11.3 8.95 11.25 8.85 11.15 8.75 11.05 8.7 11.0 8.7 10.95 8.65 10.85 8.6 10.7 8.6 10.55 8.6 10.4 8.6 10.2 8.6 9.9 8.6 9.8 8.6 9.75 8.65 9.65 8.65 9.6 8.65 9.5 8.65 9.35 8.7 9.2 8.7 9.15 8.85 9.1 8.95 9.2 8.95 9.3 8.95 9.5 8.95 9.65 8.95 9.7 9.0 9.8 9.0 9.85 9.0 10.0 9.0 10.25 9.0 10.4 9.0 10.45 9.05 10.55 9.05 10.6 9.1 10.7 9.1 10.75 9.15 10.8 9.45 10.8 9.5 10.75 9.5 10.65 9.5 10.55 9.55 10.5 9.6 10.45 9.65 10.35 9.7 10.3 9.75 10.2 9.8 10.0 9.9 9.7 10.0 9.4 10.05 9.3 10.05 9.25 10.05 9.15 10.05 9.1 10.1 9.0 10.2 8.95 10.3 8.95" fill="#333333" fill-rule="evenodd" stroke="none"/>
    <path d="M10.3 3.4 L10.45 3.45 10.5 3.55 10.6 3.6 10.65 4.6 10.65 5.65 10.65 6.4 10.75 6.35 10.9 6.3 11.05 6.35 11.15 6.4 11.15 6.45 11.2 6.55 11.25 6.65 11.25 6.7 11.25 6.8 11.25 6.9 11.25 7.0 11.2 7.05 11.15 7.15 11.05 7.2 11.0 7.3 10.8 7.35 10.6 7.35 10.45 7.3 10.35 7.25 10.3 7.15 10.2 7.1 10.1 6.9 10.05 6.85 10.05 6.8 10.0 6.7 10.0 6.65 10.0 6.4 9.95 6.05 9.95 5.65 9.95 5.6 9.9 5.65 9.8 5.8 9.65 6.0 9.6 6.1 9.5 6.15 9.4 6.25 9.2 6.3 9.1 6.3 8.95 6.25 8.85 6.15 8.8 6.05 8.7 5.9 8.65 5.85 8.6 5.8 8.6 5.85 8.55 5.9 8.5 6.05 8.45 6.25 8.4 6.5 8.35 6.6 8.3 6.65 8.25 6.8 8.1 7.0 8.05 7.1 7.9 7.15 7.7 7.1 7.55 7.1 7.5 7.0 7.5 6.9 7.5 6.8 7.45 6.7 7.45 6.65 7.4 6.55 7.4 6.05 7.4 5.35 7.5 4.85 7.5 4.75 7.65 4.75 7.7 4.8 7.75 4.9 7.8 5.3 7.8 5.95 7.8 6.45 7.85 6.35 7.95 6.15 8.0 5.9 8.05 5.8 8.05 5.7 8.1 5.65 8.2 5.5 8.25 5.4 8.3 5.35 8.35 5.2 8.4 5.05 8.45 4.9 8.45 4.8 8.55 4.75 8.6 4.7 8.7 4.65 8.8 4.65 8.95 4.7 9.0 4.8 9.05 4.85 9.05 4.95 9.05 5.0 9.05 5.1 9.05 5.15 9.1 5.25 9.1 5.3 9.15 5.4 9.15 5.45 9.15 5.55 9.15 5.6 9.2 5.65 9.45 5.35 9.75 4.8 9.9 4.5 9.9 4.4 9.9 4.3 9.9 4.15 9.9 4.0 9.95 3.9 9.95 3.85 9.95 3.75 10.0 3.6 10.05 3.55 10.15 3.45 10.3 3.4" fill="#333333" fill-rule="evenodd" stroke="none"/>
    <path d="M7.9 -5.25 L8.05 -5.2 8.1 -5.15 8.15 -5.05 8.2 -4.25 8.1 -3.25 8.05 -2.5 8.05 -2.45 8.0 -2.35 8.0 -2.3 8.0 -2.2 8.0 -2.15 8.0 -2.05 8.0 -2.0 8.1 -1.6 8.25 -1.1 8.4 -0.65 8.45 -0.55 8.5 -0.5 8.55 -0.45 8.65 -0.25 8.7 -0.3 8.8 -0.35 8.8 -0.4 8.85 -0.5 8.9 -0.65 8.95 -0.8 9.0 -0.85 9.05 -0.95 9.1 -1.0 9.1 -1.1 9.1 -1.15 9.1 -1.25 9.1 -1.3 9.1 -1.4 9.15 -1.45 9.15 -1.55 9.2 -1.6 9.2 -1.7 9.2 -1.75 9.2 -1.85 9.3 -1.9 9.35 -1.95 9.4 -2.0 9.5 -2.0 9.65 -1.95 9.75 -1.9 9.8 -1.8 9.8 -1.65 9.85 -1.45 9.85 -1.15 9.85 -1.0 9.9 -1.0 10.0 -1.1 10.1 -1.1 10.25 -1.05 10.3 -1.0 10.35 -0.9 10.35 -0.85 10.4 -0.75 10.4 -0.65 10.45 -0.55 10.4 -0.5 10.4 -0.4 10.4 -0.3 10.35 -0.25 10.3 -0.15 10.25 -0.1 10.15 0.0 10.0 0.05 9.8 0.05 9.65 0.0 9.55 -0.1 9.5 -0.2 9.45 -0.2 9.4 -0.1 9.2 0.15 9.0 0.35 8.9 0.35 8.8 0.4 8.6 0.4 8.45 0.35 8.15 0.05 7.9 -0.3 7.8 -0.55 7.75 -0.6 7.75 -0.7 7.7 -0.85 7.65 -1.0 7.45 -0.8 7.15 -0.35 6.95 0.0 6.8 0.05 6.7 0.1 6.6 0.15 6.4 0.05 6.1 -0.2 6.05 -0.25 6.05 -0.3 6.05 -0.4 6.05 -0.55 6.05 -0.7 6.1 -0.75 6.1 -0.85 6.15 -0.9 6.2 -1.0 6.25 -1.05 6.3 -1.15 6.35 -1.2 6.45 -1.25 6.5 -1.15 6.45 -1.1 6.4 -1.0 6.4 -0.95 6.35 -0.85 6.35 -0.8 6.35 -0.7 6.35 -0.6 6.35 -0.5 6.35 -0.4 6.4 -0.35 6.6 -0.35 6.65 -0.45 6.75 -0.5 6.75 -0.55 6.8 -0.65 6.85 -0.7 6.9 -0.8 6.95 -0.95 7.1 -1.15 7.2 -1.5 7.3 -1.9 7.45 -2.3 7.45 -3.2 7.45 -4.25 7.55 -5.0 7.55 -5.05 7.6 -5.15 7.65 -5.2 7.8 -5.25 7.9 -5.25" fill="#333333" fill-rule="evenodd" stroke="none"/>
    <path d="M12.1 -0.05 L12.25 0.0 12.3 0.05 12.35 0.15 12.4 1.05 12.4 2.0 12.4 2.75 12.45 2.85 12.45 2.95 12.5 3.05 12.5 3.1 12.65 3.15 12.7 3.05 12.75 3.0 12.8 2.9 12.85 2.85 12.95 2.5 13.05 2.1 13.1 1.65 13.1 1.55 13.15 1.5 13.15 1.4 13.2 1.35 13.2 1.25 13.2 1.2 13.2 1.1 13.25 1.05 13.3 0.95 13.4 0.9 13.5 0.9 13.65 0.95 13.75 1.0 13.8 1.1 13.85 1.4 13.8 1.75 13.85 2.2 13.9 2.2 14.0 2.15 14.0 2.05 14.15 2.05 14.2 2.1 14.25 2.15 14.3 2.25 14.35 2.35 14.35 2.4 14.35 2.55 14.3 2.7 14.3 2.8 14.25 2.85 14.2 2.9 14.2 3.0 14.1 3.0 13.7 3.0 13.55 3.0 13.3 3.3 12.95 3.65 12.85 3.8 12.7 3.8 12.5 3.85 12.35 3.8 12.2 3.7 12.1 3.65 12.05 3.55 12.0 3.5 11.95 3.4 11.95 3.35 11.85 3.2 11.8 2.95 11.8 2.8 11.75 2.85 11.5 3.15 11.25 3.35 11.1 3.35 10.6 3.35 10.45 3.3 10.4 3.25 10.35 3.15 10.35 3.1 10.3 3.0 10.25 2.95 10.15 2.75 10.1 2.7 10.1 2.25 10.15 1.75 10.2 1.3 10.25 1.2 10.35 1.2 10.45 1.3 10.45 1.6 10.45 2.05 10.5 2.5 10.55 2.55 10.6 2.65 10.65 2.7 10.7 2.8 10.75 2.8 10.9 2.85 11.05 2.8 11.1 2.7 11.15 2.6 11.25 2.55 11.3 2.5 11.4 1.95 11.6 1.3 11.75 0.75 11.75 0.7 11.75 0.6 11.75 0.55 11.75 0.45 11.75 0.4 11.8 0.3 11.85 0.25 11.85 0.15 11.85 0.1 11.9 0.0 12.0 -0.05 12.1 -0.05" fill="#333333" fill-rule="evenodd" stroke="none"/>
    <path d="M5.15 -20.95 L5.15 -20.9 5.2 -20.8 5.4 -20.65 5.75 -20.45 5.95 -20.3 6.2 -20.0 6.5 -19.7 6.75 -19.4 6.8 -19.3 6.8 -19.25 6.75 -19.2 6.75 -19.1 6.7 -19.05 6.65 -18.95 6.6 -18.95 6.5 -18.95 6.2 -18.9 Q5.65 -19.05 5.15 -19.35 L4.5 -19.65 4.45 -19.6 4.5 -19.5 4.55 -19.35 4.6 -19.3 4.65 -19.2 4.65 -19.15 4.7 -19.1 4.7 -19.0 4.75 -18.9 4.75 -18.85 4.75 -18.6 4.75 -18.4 4.75 -18.15 4.75 -17.95 4.75 -17.8 4.7 -17.75 4.65 -17.65 4.6 -17.6 4.5 -17.55 4.3 -17.55 4.15 -17.6 4.05 -17.7 3.95 -17.75 3.85 -17.75 3.8 -17.7 3.75 -17.65 3.7 -17.75 3.65 -17.8 3.6 -17.8 3.5 -17.85 3.4 -17.85 3.35 -17.95 3.35 -18.0 3.35 -18.1 3.5 -18.15 3.9 -18.2 4.05 -18.15 4.25 -18.15 4.25 -18.2 4.25 -18.35 4.25 -18.5 4.25 -18.55 4.25 -18.7 4.25 -18.8 4.05 -19.15 3.85 -19.45 3.6 -19.8 Q3.5 -19.95 3.55 -20.05 L3.55 -20.15 3.55 -20.2 3.6 -20.3 3.7 -20.35 3.8 -20.35 4.2 -20.35 5.05 -20.05 5.45 -19.85 5.05 -20.15 4.85 -20.3 4.8 -20.4 4.7 -20.45 4.55 -20.65 4.5 -20.7 4.5 -20.75 4.5 -20.85 4.5 -20.95 4.55 -21.0 4.6 -21.05 4.65 -21.1 4.7 -21.15 4.8 -21.15 5.0 -21.1 5.1 -21.05 5.15 -20.95" fill="#333333" fill-rule="evenodd" stroke="none"/>
    <path d="M10.6 -17.35 L10.8 -17.1 10.85 -17.0 10.85 -16.95 10.8 -16.9 10.75 -16.8 10.6 -16.75 10.4 -16.8 10.25 -16.8 10.2 -16.9 10.1 -16.95 10.05 -16.95 10.0 -16.75 10.0 -16.6 10.0 -16.45 10.0 -16.3 10.0 -16.15 9.95 -16.1 9.9 -16.05 9.8 -16.0 9.6 -16.0 9.3 -16.0 9.2 -16.05 9.1 -16.15 9.05 -16.2 8.95 -16.3 8.85 -16.35 8.7 -16.5 8.55 -16.65 8.4 -16.85 8.35 -16.9 8.4 -16.95 8.5 -17.05 8.65 -16.95 8.7 -16.9 8.85 -16.75 8.95 -16.7 9.05 -16.6 9.1 -16.55 9.25 -16.5 9.35 -16.4 9.6 -16.4 9.6 -16.5 9.6 -16.55 9.6 -16.65 9.6 -16.75 9.6 -16.85 9.55 -16.95 9.55 -17.05 9.5 -17.1 9.45 -17.35 9.5 -17.45 9.5 -17.6 9.55 -17.75 9.6 -17.8 9.7 -17.8 9.85 -17.75 9.9 -17.75 10.05 -17.7 10.4 -17.5 10.6 -17.35" fill="#333333" fill-rule="evenodd" stroke="none"/>
    <path d="M10.55 -14.3 L10.7 -14.35 10.85 -14.3 10.9 -14.25 10.95 -14.2 11.05 -14.1 11.15 -14.0 11.15 -13.95 11.15 -13.85 11.15 -13.8 11.2 -13.75 11.3 -13.55 11.4 -13.5 11.45 -13.4 11.4 -13.4 11.3 -13.4 11.25 -13.5 11.2 -13.6 11.1 -13.65 11.05 -13.7 11.0 -13.65 11.0 -13.45 10.95 -13.2 11.0 -12.9 11.0 -12.75 10.95 -12.7 10.9 -12.65 10.85 -12.55 10.8 -12.55 10.7 -12.5 10.55 -12.55 10.4 -12.6 10.25 -12.6 10.2 -12.7 10.1 -12.85 10.05 -12.9 9.95 -13.05 9.95 -13.15 9.95 -13.3 9.95 -13.45 10.0 -13.65 10.0 -13.7 10.15 -13.75 10.25 -13.7 10.2 -13.6 10.2 -13.55 10.2 -13.45 10.25 -13.4 10.25 -13.3 10.25 -13.25 10.25 -13.15 10.3 -13.1 10.4 -13.05 10.45 -13.3 10.4 -13.55 10.4 -13.85 10.4 -14.1 10.45 -14.15 10.5 -14.25 10.55 -14.3" fill="#333333" fill-rule="evenodd" stroke="none"/>
    <path d="M14.4 -8.05 L14.55 -8.0 14.65 -7.95 14.65 -7.85 14.7 -7.8 14.7 -7.7 14.7 -7.65 14.7 -7.55 14.7 -7.5 14.7 -7.4 14.7 -7.35 14.65 -7.25 14.65 -7.2 14.6 -7.1 14.6 -6.9 14.6 -6.5 14.6 -6.2 14.6 -6.15 14.55 -6.1 14.55 -6.0 14.5 -5.9 14.5 -5.85 14.45 -5.75 14.4 -5.7 14.4 -5.65 14.3 -5.65 14.2 -5.6 14.1 -5.65 13.95 -5.65 13.9 -5.75 13.85 -5.8 13.8 -5.9 13.8 -5.95 13.7 -6.05 13.65 -6.1 13.55 -6.2 13.55 -6.25 13.5 -6.45 13.45 -6.65 13.4 -6.8 13.4 -6.85 13.4 -6.95 13.4 -7.05 13.4 -7.15 13.4 -7.25 13.45 -7.35 13.55 -7.45 13.6 -7.5 13.6 -7.55 13.7 -7.55 13.8 -7.5 13.85 -7.45 13.85 -7.35 13.85 -7.3 13.8 -7.2 13.8 -7.15 13.8 -7.05 13.8 -7.0 13.85 -6.9 13.9 -6.75 13.95 -6.65 14.0 -6.5 14.0 -6.6 14.0 -6.9 14.0 -7.2 14.0 -7.25 14.05 -7.35 14.05 -7.4 14.1 -7.5 14.1 -7.55 14.1 -7.65 14.1 -7.7 14.1 -7.8 14.15 -7.85 14.2 -7.95 14.25 -8.0 14.4 -8.05" fill="#333333" fill-rule="evenodd" stroke="none"/>
    <path d="M1.45 -23.5 L1.5 -23.2 1.55 -22.75 1.5 -22.3 1.4 -22.2 1.2 -22.05 0.95 -22.15 0.85 -22.3 0.85 -22.45 0.8 -22.55 0.75 -22.5 0.7 -22.35 0.6 -22.2 0.25 -22.15 0.1 -22.3 0.1 -22.45 0.1 -22.6 0.1 -22.75 0.15 -22.9 0.25 -23.05 0.6 -23.2 0.75 -23.35 1.0 -23.55 1.2 -23.65 1.3 -23.65 1.45 -23.5" fill="#333333" fill-rule="evenodd" stroke="none"/>
    <path d="M7.45 -22.9 L7.55 -22.75 7.55 -22.45 7.6 -22.0 7.65 -21.55 7.65 -21.4 7.6 -21.25 7.5 -21.1 7.4 -21.0 7.2 -20.95 6.9 -21.05 6.8 -21.2 6.75 -21.35 6.75 -21.65 6.75 -21.95 6.75 -22.1 5.0 -22.25 3.8 -21.95 2.05 -21.65 1.8 -21.55 1.5 -21.65 1.4 -21.8 1.45 -21.95 1.6 -22.1 1.85 -22.1 2.05 -22.2 3.8 -22.55 5.2 -22.95 7.2 -23.0 7.45 -22.9" fill="#333333" fill-rule="evenodd" stroke="none"/>
    <path d="M-2.45 -22.25 L-2.6 -22.25 -5.5 -22.15 -5.7 -22.0 -5.55 -21.85 -5.5 -21.7 -5.5 -21.55 -5.55 -21.4 -5.6 -21.35 -5.8 -21.25 -6.0 -21.2 -6.4 -21.2 -6.65 -21.3 -6.75 -21.45 -6.8 -21.6 -6.8 -21.75 -6.65 -22.05 -6.5 -22.2 -6.35 -22.35 -6.2 -22.5 -6.05 -22.65 -5.8 -22.8 -5.6 -22.9 -5.4 -22.9 -5.4 -22.95 -2.6 -22.95 -2.35 -22.85 -2.15 -22.75 -1.5 -22.65 -1.15 -22.5 -0.85 -22.35 -0.6 -22.2 -0.5 -22.05 -0.55 -21.9 -0.7 -21.75 -0.95 -21.75 -1.25 -21.9 -1.45 -22.0 -1.55 -22.05 -2.15 -22.15 -2.45 -22.25" fill="#333333" fill-rule="evenodd" stroke="none"/>
    <path d="M-5.5 -21.75 L-5.4 -21.6 -5.5 -21.45 -5.5 -21.3 -5.6 -21.2 -5.65 -21.2 -5.7 -21.3 -6.4 -21.35 -6.6 -21.3 -6.8 -21.25 -7.15 -21.15 -7.4 -21.0 -7.65 -20.85 -7.9 -20.7 -8.25 -20.4 -9.2 -19.65 -9.65 -19.35 -10.1 -19.05 -10.95 -18.0 -11.7 -17.1 -12.6 -15.9 -13.35 -14.55 -13.4 -14.4 -13.6 -13.65 -13.65 -13.35 -13.75 -12.9 -13.8 -12.6 -13.85 -12.45 -13.85 -12.3 -13.85 -11.85 -13.85 -11.4 -13.8 -11.25 -13.8 -11.1 -13.75 -11.1 -13.6 -11.2 -13.4 -11.25 -13.15 -11.15 -13.05 -11.0 -12.9 -10.85 -12.85 -10.7 -12.85 -10.55 -12.9 -10.4 -13.05 -10.25 -13.2 -10.1 -13.25 -9.95 -13.3 -9.85 -13.4 -9.8 -13.6 -9.75 -14.0 -9.75 -14.2 -9.8 -14.45 -9.9 -14.6 -10.05 -14.6 -10.95 -14.55 -11.7 -14.5 -12.6 -14.35 -13.5 -14.2 -14.4 -13.7 -15.45 -13.05 -16.5 -12.0 -17.85 -10.65 -19.45 -10.6 -19.5 -9.25 -20.35 -8.85 -20.65 -8.5 -20.95 -8.25 -21.1 -7.0 -21.7 -6.8 -21.75 -6.6 -21.8 -6.4 -21.8 -6.4 -21.85 -5.5 -21.75" fill="#333333" fill-rule="evenodd" stroke="none"/>
    <path d="M-13.7 -11.6 L-13.55 -11.45 -13.55 -11.3 -13.55 -11.15 -13.55 -11.0 -13.55 -10.85 -13.55 -10.7 -13.65 -10.55 -13.7 -10.4 -13.8 -10.25 -14.8 -5.9 Q-15.15 -3.7 -15.1 -1.4 -15.1 -0.1 -14.65 1.15 L-14.45 1.45 -14.25 1.75 -14.1 2.05 -14.05 2.15 -13.3 2.2 -13.0 2.1 -12.75 2.2 -12.6 2.35 -12.5 2.5 -12.5 2.65 -12.5 2.8 -12.55 2.95 -12.6 3.1 -12.7 3.2 -12.8 3.25 -13.0 3.3 -14.2 3.3 -14.5 3.2 -14.65 3.05 -14.75 2.9 -14.85 2.75 -14.85 2.6 -14.9 2.45 -15.05 2.15 -15.25 1.85 -15.45 1.55 -15.55 1.1 -15.7 0.65 -15.75 0.2 -15.8 0.05 -15.8 -2.65 -15.6 -5.5 -15.2 -7.45 -15.1 -7.6 -15.0 -8.5 -14.8 -9.25 -14.55 -10.0 -14.35 -10.3 -14.2 -10.6 -14.05 -10.9 -14.05 -11.05 -14.05 -11.2 -14.05 -11.35 -14.05 -11.5 -13.95 -11.55 -13.8 -11.6 -13.7 -11.6" fill="#333333" fill-rule="evenodd" stroke="none"/>
    <path d="M-11.95 -0.1 L-11.85 0.05 -11.85 0.35 -11.8 0.8 -11.75 1.25 -11.7 1.4 -11.65 1.55 -11.6 1.7 -11.5 1.85 -11.4 2.15 -11.3 2.45 -11.2 2.75 -11.1 2.9 -11.0 3.05 -10.8 3.2 -10.65 3.35 -10.6 3.5 -10.5 3.5 -10.3 3.45 -10.0 3.35 -9.75 3.45 -9.65 3.6 -9.55 3.75 -9.5 3.9 -9.5 4.05 -9.65 4.35 -9.9 4.6 -10.0 4.65 -10.2 4.7 -10.6 4.7 -10.9 4.6 -11.1 4.45 -11.35 4.3 -11.45 4.15 -11.45 4.0 -11.45 3.85 -11.6 3.55 -11.85 3.25 -12.0 2.95 -12.0 2.8 -12.0 2.65 -12.1 2.35 -12.15 2.05 -12.25 1.75 -12.3 1.6 -12.25 1.0 -12.25 0.4 Q-12.3 0.0 -12.0 -0.1 L-11.95 -0.1" fill="#333333" fill-rule="evenodd" stroke="none"/>
    <path d="M-13.75 2.9 L-13.7 2.75 -13.55 2.6 -13.35 2.5 -13.15 2.45 -13.0 2.45 -12.9 2.45 -12.8 2.6 -12.9 2.75 -13.15 2.9 -13.25 3.2 -13.35 3.5 -13.45 3.95 -13.5 4.1 -13.45 5.45 -13.45 7.1 -13.45 8.45 -13.4 8.6 -13.35 8.75 -13.35 9.05 -13.3 9.35 -13.25 9.8 -13.2 10.1 -13.1 10.25 -12.85 11.3 -12.5 12.65 -12.15 13.7 -12.0 14.0 -11.9 14.15 -11.65 14.45 -11.55 14.5 -11.5 14.4 -11.5 14.25 -11.45 14.1 -11.4 13.95 -11.4 13.8 -11.35 13.65 -11.25 13.5 -11.1 13.35 -10.95 13.15 -10.9 13.3 -10.85 13.45 -10.7 13.6 -10.6 13.75 -10.6 13.9 -10.6 14.05 -10.55 14.2 -10.5 14.35 -10.5 14.5 -10.5 14.65 -10.5 14.8 -10.5 14.95 -10.6 15.1 -10.65 15.25 -10.7 15.4 -10.75 15.55 -10.8 15.7 -10.9 15.8 -11.0 15.85 -11.2 15.9 -11.4 15.9 -11.7 15.8 -12.0 15.5 -12.15 15.35 -12.45 15.05 -12.6 14.75 -12.7 14.6 -12.85 14.3 -12.95 14.15 -13.0 14.0 -13.05 13.85 -13.1 13.7 -13.15 13.55 -13.25 13.4 -13.5 12.5 -13.8 11.3 -14.05 10.4 -14.15 8.3 -14.15 6.05 -14.1 4.4 -14.1 4.25 -14.0 4.1 -13.95 3.8 -13.9 3.5 -13.8 3.05 -13.75 2.9" fill="#333333" fill-rule="evenodd" stroke="none"/>
    <path d="M-10.55 12.3 L-10.45 12.45 -10.4 12.6 -10.35 12.75 -10.4 12.85 Q-10.7 12.8 -10.6 13.25 L-10.5 14.0 -10.45 14.75 -10.45 14.9 -10.4 15.05 -10.3 15.35 -10.25 15.65 -10.25 15.8 -10.15 15.95 -9.95 16.55 -9.75 17.3 -9.55 17.9 -8.75 19.2 -7.55 20.8 -7.3 21.0 -7.2 21.05 -7.15 20.9 -7.05 20.75 -7.0 20.6 -6.95 20.45 -6.8 20.15 -6.55 19.9 -6.45 19.85 -6.2 19.8 -5.9 19.9 -5.75 20.05 -5.65 20.2 -5.6 20.35 -5.6 20.5 -5.7 20.65 -5.75 20.8 -5.8 20.95 -5.95 21.25 -6.1 21.55 -6.35 22.0 -6.5 22.15 -6.7 22.3 -7.0 22.4 -7.4 22.4 -7.75 22.3 -8.95 20.75 -10.0 19.15 -10.3 18.55 -10.3 18.4 -10.35 18.25 -10.45 18.1 -10.65 17.5 -10.85 16.75 -11.05 16.15 -11.05 16.0 -11.1 15.7 -11.15 15.4 -11.2 15.25 -11.15 14.5 -11.1 13.45 -11.05 12.55 -11.0 12.4 -10.95 12.3 -10.95 12.25 -10.8 12.25 -10.8 12.2 -10.55 12.3" fill="#333333" fill-rule="evenodd" stroke="none"/>
    <path d="M0.2 18.4 L0.5 18.5 0.65 18.65 0.75 18.8 0.8 19.1 0.8 19.55 0.8 20.0 0.75 20.15 0.45 20.6 -0.3 21.35 -0.55 21.8 -0.7 21.95 -0.85 22.1 -1.0 22.25 -1.15 22.35 -1.4 22.4 -1.75 22.3 -1.9 22.15 -2.0 22.0 -2.4 21.9 -2.8 21.7 -3.1 21.6 -3.25 21.45 -3.4 21.3 -3.5 21.15 -3.55 21.0 -3.65 20.95 -3.8 21.0 -4.0 21.05 -4.6 21.05 -4.9 20.95 -5.0 20.8 -5.25 20.5 -5.55 20.2 -5.9 20.05 -6.05 19.9 -6.05 19.75 -5.95 19.6 -5.8 19.5 -5.6 19.45 -5.4 19.45 -5.15 19.55 -4.95 19.7 -4.8 19.85 -4.65 20.0 -4.55 20.05 -4.1 20.05 -4.05 19.9 -4.05 19.75 -4.05 19.6 -4.05 19.45 -3.95 19.3 -3.8 19.2 -3.6 19.15 -3.35 19.25 -3.15 19.4 -3.0 19.55 -2.9 19.7 -2.9 19.85 -2.9 20.0 -2.85 20.15 -2.8 20.3 -2.65 20.45 -2.4 20.75 -2.25 20.85 -2.0 20.85 -1.4 20.75 -1.25 20.6 -1.05 20.3 -0.8 19.85 -0.75 19.7 -0.75 19.55 -0.75 19.4 -0.65 19.25 -0.55 19.1 -0.55 18.95 -0.55 18.8 -0.45 18.65 -0.3 18.55 -0.25 18.5 -0.05 18.45 0.2 18.45 0.2 18.4" fill="#333333" fill-rule="evenodd" stroke="none"/>
    <path d="M0.6 18.2 L0.85 18.3 0.95 18.45 1.0 18.6 1.0 18.75 1.0 18.9 1.0 19.05 1.05 19.2 1.15 19.5 1.25 19.8 1.25 19.95 1.3 20.1 1.45 20.4 1.65 20.7 1.85 20.8 2.6 20.75 2.85 20.6 3.1 20.45 3.25 20.3 3.55 20.0 3.85 19.7 4.2 19.6 4.4 19.6 4.7 19.7 4.85 19.85 4.95 20.0 5.0 20.15 5.0 20.3 4.9 20.45 4.85 20.6 4.75 20.7 4.65 20.75 4.4 20.85 4.25 21.0 4.1 21.15 3.8 21.45 3.35 21.7 2.6 21.95 1.8 21.95 1.45 21.8 0.95 21.55 0.75 21.25 0.5 20.8 0.3 20.35 0.3 20.2 0.3 20.05 0.35 19.9 0.3 19.75 0.25 19.6 0.2 19.45 0.15 19.3 0.15 19.15 0.2 18.85 0.2 18.55 0.25 18.4 0.35 18.3 0.4 18.25 0.6 18.25 0.6 18.2" fill="#333333" fill-rule="evenodd" stroke="none"/>
    <path d="M7.3 18.25 L7.6 17.95 7.75 17.85 8.0 17.85 8.0 17.8 8.3 17.9 8.45 18.05 8.55 18.2 8.6 18.35 8.6 18.5 8.6 18.65 8.55 18.8 8.45 18.95 8.4 19.1 8.3 19.25 8.25 19.4 8.1 19.55 8.0 19.7 8.0 19.85 7.95 20.0 7.85 20.15 7.7 20.45 7.5 20.9 7.4 21.05 7.2 21.2 7.15 21.35 7.0 21.5 6.85 21.65 6.75 21.75 6.65 21.8 5.9 21.95 5.6 22.05 5.25 21.95 5.1 21.8 5.0 21.65 4.9 21.5 4.65 21.35 4.5 21.2 4.35 21.05 4.25 20.9 4.15 20.75 4.15 20.6 4.15 20.45 4.15 20.3 4.2 20.15 4.2 20.0 4.25 19.85 4.35 19.7 4.6 19.6 4.85 19.7 4.95 19.85 5.0 20.0 5.0 20.15 5.05 20.3 5.1 20.4 5.15 20.45 5.6 20.45 5.85 20.35 6.35 19.7 6.85 19.0 7.2 18.55 7.2 18.4 7.3 18.25" fill="#333333" fill-rule="evenodd" stroke="none"/>
    <path d="M9.3 19.35 L9.4 19.35 9.45 19.35 9.65 19.5 9.75 19.65 9.8 19.8 9.75 19.95 9.7 20.1 9.7 20.25 9.65 20.4 9.55 20.55 9.4 20.7 9.3 20.8 9.2 20.85 9.0 20.9 8.6 20.9 8.4 20.85 8.1 20.75 7.95 20.6 7.8 20.45 7.7 20.3 7.4 20.15 7.25 20.0 7.2 19.85 7.2 19.7 7.3 19.55 7.4 19.45 7.6 19.4 7.9 19.5 8.15 19.65 8.4 19.8 8.55 19.9 8.6 19.9 8.9 19.8 9.0 19.65 9.15 19.5 9.3 19.4 9.3 19.35" fill="#333333" fill-rule="evenodd" stroke="none"/>
    <path d="M9.85 19.1 L10.4 18.2 10.55 17.9 10.6 17.75 10.65 17.6 10.7 17.45 10.75 17.3 10.85 17.15 11.1 16.25 11.3 15.35 11.45 14.75 11.45 14.45 11.45 14.15 11.45 13.85 11.45 13.7 11.5 13.55 11.6 13.4 11.8 13.35 11.9 13.35 12.05 13.5 12.1 13.65 12.15 14.1 12.15 14.55 12.2 15.0 12.1 15.75 11.95 16.5 11.85 17.1 11.75 17.25 11.7 17.4 11.65 17.55 11.6 17.7 11.55 17.85 11.45 18.0 11.4 18.15 11.35 18.3 11.25 18.45 11.2 18.6 11.1 18.75 11.1 18.9 11.05 19.05 10.4 20.1 9.0 21.1 8.8 21.1 8.1 20.95 7.9 20.8 7.85 20.65 7.85 20.5 7.95 20.35 8.1 20.25 8.2 20.2 8.4 20.15 8.8 20.1 9.05 20.0 9.85 19.1" fill="#333333" fill-rule="evenodd" stroke="none"/>
    <path d="M13.6 3.85 L13.8 4.0 13.9 4.1 14.1 6.65 13.95 9.35 13.7 11.15 13.6 11.3 13.55 11.45 13.5 11.6 13.45 11.75 13.4 11.9 13.3 12.05 13.25 12.2 13.2 12.35 13.1 12.5 13.05 12.65 12.95 12.8 12.9 12.95 12.85 13.1 12.75 13.25 12.6 13.4 12.5 13.55 12.55 13.7 12.55 13.85 12.5 14.0 12.4 14.15 12.3 14.25 12.25 14.3 11.4 14.35 11.05 14.25 10.95 14.1 10.85 13.95 10.85 13.8 10.85 13.65 10.95 13.5 11.05 13.35 11.35 13.2 11.7 12.8 12.15 12.15 12.3 11.85 12.35 11.7 12.4 11.55 12.45 11.4 12.5 11.25 12.6 11.1 13.0 8.55 13.15 5.85 13.25 4.05 13.35 3.95 13.4 3.9 13.6 3.9 13.6 3.85" fill="#333333" fill-rule="evenodd" stroke="none"/>
    <path d="M14.65 -3.6 L14.5 -6.1 14.6 -6.2 14.65 -6.25 14.8 -6.25 14.9 -6.25 15.05 -6.1 15.4 -2.9 Q15.6 -1.4 15.45 0.25 L15.25 2.45 15.2 3.05 15.25 3.2 15.2 3.35 15.1 3.5 15.05 3.65 15.05 3.8 15.0 3.95 14.9 4.1 14.8 4.2 14.6 4.25 14.0 4.25 13.7 4.15 13.55 4.0 13.25 3.7 13.15 3.55 13.15 3.4 13.15 3.25 13.15 3.1 13.2 2.95 13.3 2.85 13.4 2.8 13.6 2.75 13.85 2.85 14.0 3.0 14.15 3.1 14.3 3.05 14.55 2.15 14.75 -0.45 14.65 -3.6" fill="#333333" fill-rule="evenodd" stroke="none"/>
    <path d="M11.55 -19.6 L11.65 -19.45 12.35 -18.55 12.8 -17.8 13.4 -16.9 13.65 -16.45 13.65 -16.3 13.65 -16.15 13.65 -15.85 13.65 -15.7 13.65 -15.55 13.7 -15.4 13.8 -15.25 13.9 -15.1 13.9 -14.95 13.9 -14.8 13.85 -14.65 13.8 -14.5 13.7 -14.4 13.6 -14.35 13.35 -14.25 13.2 -14.15 13.0 -14.1 12.7 -14.2 12.55 -14.35 12.5 -14.5 12.5 -14.65 12.5 -14.8 12.55 -14.95 12.65 -15.1 12.75 -15.25 12.75 -15.4 12.75 -15.55 12.75 -15.85 12.75 -16.0 12.75 -16.15 12.7 -16.3 12.6 -16.45 12.5 -16.6 12.4 -16.75 12.35 -16.9 12.3 -17.05 12.25 -17.2 11.7 -18.1 10.75 -19.25 Q9.8 -20.35 8.4 -20.8 8.05 -20.85 7.75 -21.05 L6.4 -21.15 5.85 -21.2 5.75 -21.35 5.75 -21.5 5.85 -21.6 6.0 -21.65 6.4 -21.65 6.4 -21.7 7.75 -21.65 8.2 -21.55 Q9.1 -21.4 9.9 -20.9 L11.05 -20.05 11.55 -19.6" fill="#333333" fill-rule="evenodd" stroke="none"/>
    <path d="M12.65 -15.1 L12.75 -15.25 13.0 -15.3 13.0 -15.35 13.25 -15.25 13.3 -15.1 13.4 -14.95 13.4 -14.8 13.45 -14.65 13.65 -14.4 14.0 -13.9 14.2 -13.45 14.35 -13.3 14.4 -13.15 14.5 -13.0 14.55 -12.85 14.65 -12.7 14.7 -12.55 14.75 -12.4 14.85 -12.25 14.9 -12.1 14.95 -11.95 15.05 -11.8 15.2 -11.5 15.35 -11.2 15.6 -9.55 15.7 -7.75 15.75 -5.95 15.7 -5.8 15.5 -5.5 15.15 -5.2 15.05 -5.1 14.8 -5.05 14.4 -5.05 14.05 -5.15 13.95 -5.3 13.85 -5.45 13.85 -5.6 13.85 -5.75 13.95 -5.9 14.05 -6.05 14.4 -6.15 14.6 -6.25 14.75 -7.75 14.6 -9.4 14.3 -11.2 14.25 -11.35 14.15 -11.5 14.1 -11.65 14.05 -11.8 14.0 -11.95 13.95 -12.1 13.85 -12.25 13.7 -12.55 13.55 -12.85 13.55 -13.0 13.45 -13.15 13.4 -13.3 13.25 -13.6 13.1 -13.75 12.95 -13.9 12.85 -14.05 12.8 -14.2 12.8 -14.35 12.75 -14.5 12.7 -14.65 12.65 -14.95 12.65 -15.1" fill="#333333" fill-rule="evenodd" stroke="none"/>
    <path d="M13.65 -10.1 L13.7 -9.95 13.65 -9.8 13.6 -9.65 13.55 -9.5 13.6 -8.15 13.6 -6.5 13.7 -5.15 13.65 -4.7 13.45 -4.1 13.25 -3.5 13.15 -3.35 13.05 -3.2 12.85 -2.9 12.75 -2.75 12.55 -2.6 12.45 -2.5 12.2 -2.45 12.0 -2.45 11.65 -2.55 11.55 -2.7 11.45 -2.85 11.45 -3.0 11.45 -3.15 11.5 -3.3 11.5 -3.45 11.55 -3.55 11.85 -3.9 12.1 -4.2 12.2 -4.3 12.4 -4.4 12.45 -4.5 12.55 -4.8 12.7 -5.25 12.75 -5.55 12.8 -7.05 12.85 -8.85 12.9 -10.2 13.0 -10.25 13.2 -10.3 13.2 -10.35 13.5 -10.25 13.65 -10.1" fill="#333333" fill-rule="evenodd" stroke="none"/>
    <path d="M8.3 7.65 L8.4 7.8 8.3 7.95 8.2 8.1 8.1 8.25 8.1 8.4 8.15 8.55 8.15 8.7 8.05 8.85 8.0 9.0 7.9 9.15 7.85 9.3 7.8 9.45 7.75 9.6 7.65 9.75 7.6 9.9 7.5 10.05 7.3 10.2 7.1 10.35 6.95 10.5 6.7 10.65 6.5 10.75 6.4 10.8 6.2 10.85 6.0 10.85 5.7 10.75 5.6 10.6 5.55 10.45 5.55 10.3 5.6 10.15 5.7 10.05 5.8 10.0 6.0 9.95 6.25 9.85 6.45 9.7 6.6 9.6 6.85 9.5 7.05 9.2 7.25 8.9 7.4 8.6 7.45 8.45 7.5 8.3 7.5 8.15 7.6 8.0 7.85 7.85 8.0 7.7 8.2 7.65 8.3 7.65" fill="#333333" fill-rule="evenodd" stroke="none"/>
  </g>
</svg>
