<?xml version="1.0" encoding="UTF-8" standalone="no"?>
<svg xmlns:xlink="http://www.w3.org/1999/xlink" height="12.55px" width="12.6px" xmlns="http://www.w3.org/2000/svg">
  <g transform="matrix(1.0, 0.0, 0.0, 1.0, 6.3, 6.25)">
    <path d="M3.0 -3.15 L3.4 -2.85 3.5 -2.7 3.6 -2.55 3.7 -2.4 3.9 -2.1 4.05 -1.8 4.15 -1.65 4.2 -1.5 4.4 -0.9 4.55 0.15 4.55 1.5 4.55 1.95 4.5 2.1 4.45 2.25 4.4 2.4 4.3 2.55 4.15 2.85 3.9 3.3 3.05 3.85 2.9 3.9 2.6 3.95 1.95 4.2 1.2 4.45 0.2 4.45 -0.25 4.35 -0.55 4.2 -0.85 4.05 -1.15 3.9 -1.35 3.75 -1.45 3.6 -1.55 3.45 -1.65 3.3 -1.7 3.15 -1.8 3.0 -1.85 2.7 -1.8 1.5 -1.7 -0.3 -1.35 -1.95 -1.25 -2.1 -1.05 -2.4 -0.6 -2.85 0.15 -3.45 0.6 -3.5 0.6 -3.55 2.0 -3.55 2.4 -3.45 2.75 -3.3 3.0 -3.15" fill="#663366" fill-opacity="0.101960786" fill-rule="evenodd" stroke="none"/>
    <path d="M0.85 -2.05 L1.3 -1.6 1.6 -1.15 1.65 -0.85 1.65 -0.25 1.65 0.65 1.55 1.85 1.45 2.15 1.35 2.3 1.25 2.45 1.15 2.6 1.05 2.75 0.95 2.9 0.75 3.05 0.55 3.2 0.25 3.35 0.05 3.45 -1.2 3.6 -3.6 3.0 -3.9 2.85 -4.05 2.7 -4.2 2.55 -4.3 2.4 -4.4 2.25 -4.45 2.1 -4.55 1.95 -4.6 1.8 -4.65 1.65 -4.65 1.2 -4.65 0.75 -4.65 0.15 -4.6 -0.45 -4.5 -0.6 -4.45 -0.75 -4.35 -0.9 -4.3 -1.05 -4.15 -1.2 -4.0 -1.35 -3.85 -1.5 -3.7 -1.65 -3.55 -1.8 -3.3 -1.95 -2.7 -2.25 -2.0 -2.5 -1.7 -2.6 -1.4 -2.6 -1.4 -2.65 -0.4 -2.65 -0.1 -2.6 0.15 -2.5 0.85 -2.05" fill="#663366" fill-opacity="0.101960786" fill-rule="evenodd" stroke="none"/>
    <path d="M3.0 -3.15 L3.25 -3.0 3.45 -2.85 3.55 -2.7 3.65 -2.55 3.7 -2.4 3.75 -2.25 3.8 -2.1 3.8 -1.95 3.75 -1.8 3.75 -1.65 3.65 -1.5 3.6 -1.35 3.5 -1.2 3.45 -1.05 3.45 -0.9 3.5 -0.75 3.5 -0.6 3.5 -0.45 3.5 -0.3 3.55 -0.15 3.6 0.0 3.65 0.15 3.7 0.3 3.7 0.45 3.7 0.6 3.7 0.75 3.7 0.9 3.7 1.05 3.7 1.2 3.7 1.5 3.65 1.65 3.6 1.8 3.55 1.95 3.5 2.1 3.35 2.25 3.2 2.4 3.0 2.55 2.7 2.65 2.4 2.7 1.95 2.65 1.8 2.75 0.7 3.05 Q-0.85 3.4 -2.2 2.6 L-2.5 2.45 -2.65 2.3 -2.8 2.15 -2.9 2.0 -3.0 1.85 -3.05 1.7 -3.2 1.4 -3.3 1.25 -3.35 1.1 -3.4 0.95 -3.45 0.8 -3.45 0.35 -3.45 -0.1 -3.45 -0.7 -3.4 -1.15 -3.2 -2.05 -3.1 -2.2 -2.85 -2.5 -2.55 -2.8 -2.1 -3.25 -1.95 -3.4 -1.7 -3.55 -1.4 -3.7 -0.8 -3.85 -0.4 -3.9 0.4 -3.8 1.0 -3.65 1.8 -3.3 1.85 -3.25 2.1 -3.25 2.4 -3.3 2.7 -3.25 3.0 -3.15" fill="#663366" fill-opacity="0.101960786" fill-rule="evenodd" stroke="none"/>
    <path d="M-0.05 -5.55 Q-2.3 -5.5 -3.9 -3.9 -5.5 -2.3 -5.5 -0.05 -5.5 2.2 -3.9 3.8 -2.3 5.4 -0.05 5.4 2.2 5.4 3.8 3.8 5.4 2.2 5.4 -0.05 5.4 -2.35 3.8 -4.0 2.2 -5.65 -0.05 -5.55 M6.3 0.05 Q6.2 2.6 4.35 4.45 2.5 6.3 -0.1 6.3 -2.7 6.3 -4.55 4.45 -6.4 2.6 -6.3 -0.05 -6.25 -2.75 -4.45 -4.5 -2.65 -6.25 0.05 -6.25 2.7 -6.25 4.55 -4.4 6.4 -2.55 6.3 0.05" fill="#333333" fill-rule="evenodd" stroke="none"/>
    <path d="M4.6 -0.9 L4.4 -0.8 4.3 -0.8 4.25 -0.75 4.15 -0.8 4.1 -0.85 4.1 -1.05 4.2 -1.15 4.45 -1.25 4.95 -1.4 5.3 -1.5 5.7 -1.6 5.8 -1.65 5.9 -1.6 5.95 -1.6 6.0 -1.55 6.0 -1.5 6.05 -1.45 6.0 -1.45 6.0 -1.3 5.5 -1.1 5.1 -1.05 5.05 -1.05 4.6 -0.9" fill="#333333" fill-rule="evenodd" stroke="none"/>
    <path d="M4.75 -0.5 L4.8 -0.55 4.85 -0.55 4.9 -0.6 5.45 -0.6 5.7 -0.6 5.75 -0.6 5.85 -0.6 5.9 -0.55 6.0 -0.5 6.0 -0.45 6.05 -0.45 6.05 -0.25 6.0 -0.2 5.95 -0.2 5.95 -0.15 5.85 -0.15 5.8 -0.15 5.7 -0.15 5.65 -0.2 5.0 -0.25 4.85 -0.25 4.85 -0.3 4.8 -0.35 4.8 -0.4 4.75 -0.4 4.75 -0.5" fill="#333333" fill-rule="evenodd" stroke="none"/>
  </g>
</svg>
