<?xml version="1.0" encoding="UTF-8" standalone="no"?>
<svg xmlns:xlink="http://www.w3.org/1999/xlink" height="37.05px" width="22.05px" xmlns="http://www.w3.org/2000/svg">
  <g transform="matrix(1.0, 0.0, 0.0, 1.0, 11.0, 18.1)">
    <path d="M3.6 -17.9 L4.0 -17.6 4.3 -17.3 4.6 -17.0 5.1 -16.7 5.4 -16.4 5.6 -16.1 5.8 -15.8 5.9 -15.5 5.9 -15.2 5.9 -14.6 5.9 -14.0 5.85 -13.4 5.8 -13.1 5.7 -12.8 5.5 -12.5 4.95 -11.95 4.0 -11.3 3.7 -11.0 3.2 -10.7 2.6 -10.4 2.2 -10.2 1.6 -10.1 1.2 -10.1 0.4 -10.3 0.0 -10.5 -3.2 -10.6 -4.0 -10.8 -4.4 -11.0 -5.2 -11.2 -5.6 -11.5 -5.9 -11.8 -6.2 -12.1 -6.5 -12.4 -6.6 -12.7 -6.6 -13.0 -6.6 -13.6 -6.6 -13.9 -6.6 -14.2 -6.5 -14.8 -6.4 -15.1 -6.2 -15.4 -5.6 -16.0 -5.3 -16.3 -5.0 -16.6 -4.4 -16.9 -4.0 -17.1 -3.8 -17.2 -3.0 -17.4 -2.4 -17.7 -2.0 -17.9 -1.8 -17.95 -1.2 -18.05 -1.2 -18.1 2.8 -18.1 3.6 -17.9" fill="#663366" fill-opacity="0.101960786" fill-rule="evenodd" stroke="none"/>
    <path d="M8.5 6.0 L8.9 6.3 9.1 6.6 9.3 6.9 9.4 7.2 9.5 7.5 9.6 7.8 9.6 8.1 9.6 8.7 9.6 9.6 9.5 10.5 9.5 11.4 9.5 12.0 9.4 12.3 9.2 12.9 8.9 13.8 8.6 14.7 8.3 15.6 8.1 16.2 7.9 16.5 7.75 16.8 7.35 17.35 6.65 17.95 5.7 18.5 5.4 18.6 4.8 18.7 4.4 18.7 3.5 18.5 3.0 18.2 2.6 17.9 2.4 17.6 2.1 17.65 1.7 17.8 1.4 17.9 0.8 18.0 -0.7 18.2 -1.1 18.5 -1.4 18.7 -1.8 18.8 Q-3.6 19.15 -5.4 18.75 L-6.9 18.3 -7.4 18.0 -7.7 17.7 -7.9 17.4 -8.0 17.1 -8.1 16.8 -8.1 16.5 -8.25 16.25 -8.6 15.9 -8.9 15.6 -9.1 15.3 -9.2 15.0 -9.3 14.7 -9.4 14.4 -9.4 14.1 -9.4 13.8 -9.4 13.5 -9.4 13.2 -9.4 12.9 -9.4 12.6 -9.3 12.3 -9.15 12.0 -8.9 11.7 -8.8 11.4 -8.6 11.1 -8.5 10.8 -8.4 10.5 -8.2 10.2 -6.95 8.6 -5.2 6.6 -2.4 3.9 -1.5 3.6 -0.9 3.4 -0.6 3.35 0.0 3.25 0.0 3.2 3.2 3.2 4.1 3.4 4.6 3.7 5.0 3.9 5.4 4.0 6.1 4.2 6.6 4.5 7.0 4.8 7.3 5.1 7.6 5.4 8.1 5.7 8.5 6.0" fill="#663366" fill-opacity="0.101960786" fill-rule="evenodd" stroke="none"/>
    <path d="M2.8 -16.0 L3.4 -15.7 4.4 -15.1 5.45 -14.15 6.2 -13.0 6.3 -12.7 6.3 -12.4 6.3 -11.8 6.3 -11.2 6.25 -10.3 6.2 -9.7 6.0 -9.4 5.9 -9.1 5.6 -8.8 5.5 -8.5 5.4 -8.2 5.2 -7.9 5.0 -7.6 4.5 -7.0 3.95 -6.45 3.3 -5.9 3.0 -5.85 Q0.9 -5.55 -1.2 -5.85 L-2.1 -6.0 -2.6 -6.3 -2.9 -6.6 -3.1 -6.9 -3.3 -7.2 -3.35 -7.5 -3.4 -8.7 -3.4 -10.5 -3.4 -13.2 -3.4 -14.1 -3.3 -14.4 -3.1 -14.7 -2.9 -15.0 -2.6 -15.3 -2.3 -15.6 -1.9 -15.9 -1.4 -16.1 -0.8 -16.15 -0.8 -16.2 2.0 -16.2 2.8 -16.0" fill="#663366" fill-opacity="0.101960786" fill-rule="evenodd" stroke="none"/>
    <path d="M4.0 -0.4 L4.9 -0.2 5.4 0.1 5.8 0.4 6.0 0.7 6.1 1.0 6.3 1.3 6.3 1.6 6.4 1.9 6.5 2.2 6.65 2.5 6.7 2.8 7.0 3.1 7.3 3.4 7.6 3.7 8.1 4.3 8.3 4.6 8.6 5.5 9.35 8.85 9.75 12.4 9.6 15.1 9.4 15.4 9.25 15.7 8.8 16.3 8.1 17.5 7.7 18.1 7.3 18.4 6.9 18.6 6.6 18.7 6.0 18.8 5.6 18.8 5.2 18.8 4.3 18.6 3.7 18.3 3.4 18.0 3.1 17.7 2.8 17.4 2.6 17.1 2.5 16.8 2.4 16.5 2.35 16.3 2.1 16.2 1.8 16.5 1.2 16.75 0.5 17.0 0.2 17.1 -0.4 17.2 -1.3 17.0 -1.9 16.7 -2.2 16.4 -2.4 16.1 -2.6 15.8 -2.7 15.5 -2.75 15.2 -2.8 14.3 -2.85 12.5 -2.75 11.0 -2.4 9.8 -2.4 9.5 -2.4 9.2 -2.4 8.6 -2.25 7.4 -2.0 6.5 -2.0 6.2 -2.0 5.6 -2.0 4.4 -1.95 2.9 -1.9 2.3 -1.7 2.0 -1.5 1.7 -0.9 1.1 0.0 0.2 0.4 -0.1 1.0 -0.3 1.6 -0.35 1.6 -0.4 4.0 -0.4" fill="#663366" fill-opacity="0.101960786" fill-rule="evenodd" stroke="none"/>
    <path d="M3.2 -17.5 L3.9 -17.3 4.3 -17.0 4.5 -16.7 4.6 -16.4 4.7 -16.1 4.7 -15.8 4.7 -15.5 4.7 -15.2 4.8 -14.9 4.95 -14.6 5.2 -14.3 5.4 -14.0 5.6 -13.7 5.7 -13.4 5.85 -11.9 5.8 -9.5 5.8 -7.1 5.8 -6.8 6.0 -6.2 6.2 -5.6 6.55 -4.4 6.8 -3.5 6.95 -3.25 7.3 -2.9 7.5 -2.6 7.7 -2.3 7.8 -2.0 7.9 -1.7 8.0 -1.4 8.0 -1.1 8.0 -0.8 8.0 -0.5 8.1 -0.2 8.3 0.1 8.4 1.3 8.4 3.1 8.4 4.6 8.4 5.2 8.45 5.5 8.6 5.8 8.7 6.1 8.9 6.4 9.25 7.6 9.8 9.7 10.25 11.5 10.4 12.1 10.5 12.4 10.7 12.7 10.8 13.0 10.9 13.6 10.9 14.2 10.95 15.4 10.8 16.6 10.7 16.9 10.5 17.2 10.4 17.5 10.1 17.8 9.7 18.1 9.4 18.3 9.0 18.4 8.4 18.5 7.8 18.4 7.2 18.2 6.8 17.9 6.4 17.7 6.2 18.0 5.8 18.3 5.3 18.6 4.4 18.8 3.5 18.6 2.9 18.3 2.6 18.0 2.4 17.7 1.9 17.4 -0.1 17.0 -0.7 16.7 -1.0 16.4 -1.2 16.1 -1.4 15.8 -1.5 15.5 -1.6 14.9 -1.6 14.3 -1.6 13.1 -1.5 11.9 -1.2 11.3 -0.8 10.7 0.3 9.5 0.6 9.2 1.1 9.0 1.4 8.9 1.8 8.7 1.6 8.4 1.5 6.9 1.6 4.8 1.6 2.7 1.6 2.4 1.4 1.8 1.25 1.2 0.95 0.0 Q0.8 -0.45 0.8 -0.9 L0.7 -1.2 0.5 -1.5 0.4 -1.8 0.2 -2.1 -0.4 -4.25 -0.65 -6.9 -0.6 -9.9 -0.6 -10.2 -0.5 -10.5 -0.4 -10.8 -0.3 -11.1 -0.2 -11.4 -0.2 -11.7 -0.2 -12.0 -0.1 -12.3 0.0 -12.6 0.0 -13.2 0.0 -13.5 0.0 -14.1 0.0 -15.0 0.0 -15.3 0.1 -15.6 0.2 -15.9 0.3 -16.2 0.5 -16.5 0.7 -16.8 1.1 -17.1 1.5 -17.3 1.8 -17.35 2.4 -17.45 2.4 -17.5 2.8 -17.5 3.2 -17.5" fill="#663366" fill-opacity="0.101960786" fill-rule="evenodd" stroke="none"/>
    <path d="M-6.2 -14.85 L-5.9 -14.75 -5.7 -14.6 -5.6 -14.45 -5.5 -14.3 -5.25 -14.0 -5.15 -13.85 -5.1 -13.25 -5.0 -12.35 -5.0 -11.3 -5.0 -11.15 -5.0 -11.0 -4.9 -10.85 -4.85 -10.7 -4.8 -10.55 -4.75 -10.4 -4.75 -10.25 -4.75 -10.1 -4.75 -9.95 -4.7 -9.8 -4.65 -9.65 -4.6 -9.5 -4.5 -9.35 -4.4 -9.2 -4.35 -9.05 -4.3 -8.0 -4.25 -6.5 Q-4.2 -5.8 -4.3 -5.15 L-4.35 -5.0 -4.45 -4.85 -4.55 -4.7 -4.6 -4.55 -4.6 -4.4 -4.6 -4.25 -4.6 -4.1 -4.65 -3.95 -4.7 -3.8 -4.75 -3.65 -4.8 -3.5 -4.8 -2.75 -4.75 -1.7 -4.75 -0.5 -4.8 -0.35 -4.85 -0.2 -4.95 -0.05 -4.95 0.1 -4.95 0.25 -4.95 0.4 -5.0 0.55 -5.1 0.7 -5.1 0.85 -5.1 1.0 -5.15 1.15 -5.2 1.3 -5.3 1.45 -5.3 1.6 -5.3 1.75 -5.3 1.9 -5.3 2.05 -5.3 2.2 -5.3 2.35 -5.35 2.5 -5.4 2.65 -5.45 2.8 -5.5 2.95 -5.5 3.1 -5.5 3.25 -5.5 3.4 -5.5 3.55 -5.5 3.7 -5.6 4.0 -5.75 4.45 -5.85 4.9 -5.9 5.2 -6.0 5.35 -6.05 5.5 -6.05 5.65 -6.1 5.8 -6.1 5.95 -6.2 6.1 -6.25 6.25 -6.25 6.4 -6.25 6.55 -6.4 7.0 -6.6 7.6 -6.8 8.2 -6.85 8.35 -6.85 8.5 -6.85 8.65 -6.9 8.8 -6.9 8.95 -7.0 9.1 -7.05 9.25 -7.05 9.4 -7.1 9.55 -7.15 9.7 -7.25 9.85 -7.25 10.0 -7.25 10.15 -7.4 10.6 -7.6 11.2 -7.75 11.8 -7.8 11.95 -7.8 12.55 -7.8 13.45 -7.8 14.5 -7.85 14.65 -7.85 14.8 -7.8 14.95 -7.8 15.1 -7.8 15.25 -7.8 15.4 -7.7 15.55 -7.6 15.7 -7.55 15.85 -7.5 16.0 -7.45 16.15 -7.45 16.3 -7.5 16.45 -7.55 16.6 -7.65 16.75 -7.75 16.9 -8.0 17.05 -8.7 17.3 -9.0 17.35 -9.45 17.25 -9.7 17.1 -9.9 16.95 -10.0 16.8 -10.1 16.65 -10.15 16.2 -10.2 15.6 -10.2 14.85 -10.15 14.7 -10.2 13.95 -10.2 12.9 -10.2 11.7 -10.2 11.55 -10.15 11.4 -10.1 11.1 -10.0 10.8 -9.9 10.5 -9.8 10.35 -9.75 10.2 -9.65 10.05 -9.6 9.9 -9.55 9.75 -9.55 9.6 -9.55 9.45 -9.5 9.3 -9.5 9.15 -9.4 9.0 -9.35 8.85 -9.35 8.7 -9.35 8.55 -9.3 8.4 -9.25 8.25 -9.15 8.1 -9.15 7.95 -9.15 7.8 -9.0 7.35 -8.8 6.75 -8.6 6.15 -8.55 6.0 -8.55 5.85 -8.55 5.7 -8.55 5.55 -8.5 5.4 -8.45 5.25 -8.35 5.1 -8.35 4.95 -8.3 4.8 -8.25 4.65 -8.15 4.5 -8.15 4.35 -8.15 4.2 -8.1 4.05 -8.05 3.9 -8.0 3.75 -7.9 3.6 -7.85 3.45 -7.75 3.3 -7.7 3.15 -7.7 3.0 -7.7 2.7 -7.7 2.55 -7.7 2.4 -7.65 2.25 -7.6 2.1 -7.55 1.95 -7.5 1.8 -7.5 1.65 -7.5 1.5 -7.5 1.35 -7.5 1.2 -7.5 1.05 -7.45 0.9 -7.4 0.75 -7.35 0.6 -7.3 0.45 -7.2 0.3 -7.15 0.15 -7.1 0.0 -7.05 -0.15 -7.05 -0.3 -7.05 -0.45 -7.05 -0.6 -7.0 -0.75 -6.95 -0.9 -6.85 -1.05 -6.85 -1.8 -6.8 -2.85 -6.8 -3.9 -6.8 -4.05 -6.75 -4.2 -6.65 -4.35 -6.6 -4.5 -6.6 -4.65 -6.6 -4.8 -6.55 -4.95 -6.5 -5.1 -6.45 -5.25 -6.4 -5.4 -6.3 -5.55 -6.2 -5.7 Q-6.1 -6.05 -6.15 -6.45 L-6.15 -7.35 -6.1 -8.4 -6.1 -8.55 -6.1 -8.7 -6.2 -8.85 -6.25 -9.0 -6.3 -9.15 -6.35 -9.3 -6.4 -9.45 -6.45 -9.6 -6.45 -9.75 -6.45 -9.9 -6.5 -10.05 -6.55 -10.2 -6.6 -10.35 -6.65 -10.5 -6.65 -11.25 -6.55 -12.15 -6.55 -13.2 -6.55 -13.35 -6.6 -13.5 -6.7 -13.65 -6.75 -13.8 -6.8 -13.95 -6.85 -14.1 -6.85 -14.25 -6.85 -14.4 -6.75 -14.55 -6.6 -14.7 -6.45 -14.8 -6.2 -14.8 -6.2 -14.85" fill="#ffffff" fill-opacity="0.101960786" fill-rule="evenodd" stroke="none"/>
    <path d="M-4.55 -6.6 L-4.4 -6.45 -4.2 -6.3 -3.95 -6.15 -3.8 -6.0 -3.75 -5.85 -3.65 -5.7 -3.6 -3.45 -3.75 -0.3 -4.35 2.25 -4.5 2.55 -4.75 3.0 -5.1 3.75 -5.4 4.2 -5.45 4.35 -5.5 4.5 -5.6 4.65 -5.7 4.8 -5.85 4.95 -5.9 5.1 -5.9 5.25 -5.9 5.4 -5.9 5.55 -5.95 5.7 -6.0 5.85 -6.05 6.0 -6.15 6.15 -6.25 6.3 -6.4 6.45 -6.55 6.55 -6.7 6.6 -7.0 6.65 -7.45 6.55 -7.7 6.4 -7.85 6.25 -7.95 6.1 -8.05 5.95 -8.1 5.8 -8.1 5.65 -8.15 5.5 -8.2 5.35 -8.25 5.2 -8.25 5.05 -8.25 4.9 -8.25 4.75 -8.2 4.6 -8.1 4.45 -8.05 4.3 -8.0 4.15 -7.95 4.0 -7.9 3.85 -7.8 3.7 -7.75 3.55 -7.65 3.4 -7.6 3.25 -7.55 3.1 -7.5 2.95 -7.5 2.8 -7.5 2.65 -7.5 2.5 -7.5 2.35 -7.45 2.2 -7.4 2.05 -7.35 1.9 -7.3 1.75 -7.25 1.6 -7.2 1.45 -7.1 1.3 -7.05 1.15 -6.95 1.0 -6.9 0.85 -6.8 -0.05 -6.75 -1.55 -6.5 -3.2 -6.45 -3.35 -6.45 -3.5 -6.45 -3.65 -6.45 -3.8 -6.45 -3.95 -6.4 -4.1 -6.35 -4.25 -6.3 -4.4 -6.25 -4.55 -6.25 -4.7 -6.25 -5.0 -6.25 -5.3 -6.25 -5.75 -6.25 -6.05 -6.2 -6.2 -6.1 -6.35 -6.0 -6.5 -5.85 -6.65 -5.65 -6.75 -5.5 -6.8 -5.2 -6.8 -5.2 -6.85 -4.8 -6.75 -4.55 -6.6" fill="#ffffff" fill-opacity="0.101960786" fill-rule="evenodd" stroke="none"/>
    <path d="M-6.25 -16.25 L-6.15 -15.95 -6.1 -14.8 -5.7 -11.75 Q-5.4 -9.7 -5.7 -7.5 L-6.15 -3.75 -6.7 -0.35 -7.5 2.65 -7.95 4.5 -8.7 8.0 -9.5 11.0 Q-10.4 13.6 -9.6 16.25 L-10.25 16.0 -11.0 15.45 -10.95 14.2 -10.25 10.1 -9.4 6.85 -8.8 4.4 -8.15 1.7 -7.5 -1.3 -6.95 -4.8 -6.7 -8.2 -6.7 -11.7 -6.8 -14.75 Q-6.9 -15.7 -6.25 -16.25" fill="#333333" fill-rule="evenodd" stroke="none"/>
    <path d="M5.5 -15.85 Q5.5 -16.6 6.05 -15.8 L6.1 -14.85 6.1 -12.75 6.05 -11.1 6.0 -9.3 6.2 -7.45 6.35 -5.8 6.7 -3.0 6.95 -1.45 7.1 -0.65 7.55 0.8 8.2 2.55 8.55 4.2 8.85 5.35 9.1 5.95 9.45 7.25 9.75 8.45 9.85 9.15 10.05 9.85 10.45 11.25 Q10.95 13.25 11.05 15.15 10.6 16.05 9.7 15.95 L9.4 15.95 Q10.05 14.1 9.4 12.25 L8.6 9.35 7.85 5.85 7.3 3.5 6.45 0.6 5.85 -2.15 5.35 -5.65 Q5.15 -7.15 5.1 -8.6 5.0 -10.2 5.2 -11.8 L5.5 -15.85" fill="#333333" fill-rule="evenodd" stroke="none"/>
    <path d="M3.65 -7.45 L3.75 -7.5 3.9 -7.55 4.05 -7.55 4.05 -7.6 4.3 -7.55 4.35 -7.5 4.35 -7.45 4.3 -7.45 4.25 -7.4 3.65 -7.35 3.65 -7.45" fill="#333333" fill-rule="evenodd" stroke="none"/>
    <path d="M8.6 12.3 L8.7 12.3 8.7 12.4 8.75 12.45 8.7 12.5 8.7 12.55 8.65 12.6 8.55 12.65 8.05 12.8 7.7 12.9 7.65 12.95 7.0 13.0 6.7 13.1 6.5 13.15 6.4 13.1 6.15 13.05 6.05 13.05 5.95 13.0 5.95 12.85 6.0 12.8 6.05 12.8 6.15 12.75 6.5 12.65 6.8 12.55 7.8 12.35 8.3 12.3 8.35 12.3 8.4 12.25 8.5 12.25 8.6 12.3" fill="#333333" fill-rule="evenodd" stroke="none"/>
    <path d="M6.85 11.55 L7.15 11.5 7.9 11.25 8.5 11.1 8.6 11.05 8.75 11.05 8.8 11.05 8.95 11.0 9.0 10.95 9.05 10.9 9.3 10.9 9.35 10.95 9.4 10.95 9.4 11.0 9.35 11.05 9.3 11.1 9.25 11.15 9.1 11.25 9.05 11.3 9.05 11.35 9.0 11.35 8.8 11.4 8.6 11.45 8.35 11.6 8.25 11.65 7.65 11.85 7.2 12.0 6.85 11.95 6.75 11.95 6.65 11.95 6.6 11.9 6.5 11.85 6.45 11.8 6.45 11.75 6.55 11.7 6.6 11.7 6.65 11.65 6.75 11.6 6.85 11.55" fill="#333333" fill-rule="evenodd" stroke="none"/>
    <path d="M5.9 11.15 L5.95 11.15 6.05 11.1 6.3 11.05 6.35 11.05 7.15 10.9 7.65 10.8 7.7 10.85 7.75 10.85 7.8 10.9 7.85 10.9 7.85 10.95 7.8 11.0 7.75 11.05 7.7 11.05 7.55 11.1 7.5 11.15 6.9 11.3 6.45 11.4 6.35 11.35 6.05 11.4 5.95 11.35 5.9 11.3 5.9 11.15" fill="#333333" fill-rule="evenodd" stroke="none"/>
    <path d="M7.1 9.2 L7.2 9.1 7.3 9.1 7.35 9.1 7.45 9.1 7.45 9.05 7.5 9.1 7.55 9.1 7.6 9.15 7.6 9.35 7.55 9.4 7.45 9.45 7.35 9.55 7.3 9.55 7.3 9.6 6.6 9.7 6.15 9.85 6.05 9.8 6.0 9.8 5.8 9.75 5.7 9.75 5.7 9.65 5.75 9.6 6.05 9.5 6.25 9.4 6.35 9.35 6.8 9.25 7.1 9.2" fill="#333333" fill-rule="evenodd" stroke="none"/>
    <path d="M5.8 8.3 L6.15 8.15 6.45 8.05 6.55 8.05 6.65 8.0 6.65 7.95 6.75 7.95 6.75 7.9 6.8 7.95 6.85 8.0 6.85 8.05 6.9 8.1 6.9 8.2 6.85 8.25 6.85 8.3 6.8 8.3 6.75 8.35 6.6 8.4 6.55 8.45 6.45 8.5 6.2 8.5 6.1 8.55 6.0 8.6 5.9 8.55 5.8 8.55 5.7 8.55 5.6 8.55 5.6 8.5 5.55 8.45 5.6 8.4 5.6 8.35 5.7 8.35 5.8 8.3" fill="#333333" fill-rule="evenodd" stroke="none"/>
    <path d="M-7.4 7.4 L-7.35 7.45 -7.25 7.5 -7.35 7.55 -7.4 7.6 -7.45 7.6 -7.7 7.65 -8.25 7.55 -8.45 7.55 -8.5 7.5 -8.6 7.5 -8.65 7.45 -8.65 7.4 -8.7 7.35 -8.8 7.3 -8.9 7.25 -8.9 7.2 -8.95 7.15 -8.8 7.15 -8.7 7.15 -8.6 7.2 -8.55 7.25 -7.9 7.35 -7.7 7.35 -7.45 7.35 -7.4 7.4" fill="#333333" fill-rule="evenodd" stroke="none"/>
    <path d="M-7.8 6.05 L-7.7 6.1 -7.55 6.15 -7.45 6.15 -7.3 6.2 -7.2 6.25 -7.2 6.45 -7.3 6.45 -7.45 6.5 -7.55 6.5 -7.65 6.5 -7.8 6.45 -8.25 6.4 -8.35 6.4 -8.45 6.35 -8.45 6.15 -8.35 6.1 -8.25 6.05 -7.8 6.05" fill="#333333" fill-rule="evenodd" stroke="none"/>
    <path d="M2.75 -12.55 L2.65 -12.6 2.55 -12.7 2.55 -12.75 2.6 -12.8 2.6 -12.85 2.65 -12.9 3.3 -13.0 3.8 -13.2 3.9 -13.2 4.05 -13.25 4.15 -13.25 4.2 -13.3 4.3 -13.3 4.35 -13.25 4.35 -13.15 4.3 -13.1 4.25 -13.05 4.2 -13.0 4.15 -13.0 4.1 -12.95 3.4 -12.7 3.05 -12.6 2.75 -12.55" fill="#333333" fill-rule="evenodd" stroke="none"/>
    <path d="M5.15 -12.55 L5.35 -12.6 5.45 -12.65 5.55 -12.6 5.55 -12.55 5.6 -12.55 5.6 -12.45 5.55 -12.4 4.9 -12.05 4.35 -11.8 4.3 -11.8 3.65 -11.65 3.3 -11.55 3.25 -11.55 3.15 -11.6 3.05 -11.7 3.05 -11.9 3.15 -12.0 3.35 -12.05 3.65 -12.1 3.75 -12.15 3.85 -12.15 4.75 -12.4 5.15 -12.55" fill="#333333" fill-rule="evenodd" stroke="none"/>
    <path d="M4.3 -10.9 L4.35 -10.85 4.45 -10.85 4.45 -10.75 4.35 -10.75 4.3 -10.7 4.25 -10.65 4.2 -10.65 4.15 -10.6 4.05 -10.6 4.0 -10.55 3.9 -10.55 3.85 -10.5 3.8 -10.5 3.7 -10.45 3.65 -10.45 1.9 -10.4 1.85 -10.45 1.85 -10.5 1.8 -10.55 1.8 -10.7 1.85 -10.7 1.9 -10.75 1.95 -10.8 3.85 -10.9 3.9 -10.9 3.95 -10.9 4.05 -10.9 4.1 -10.9 4.2 -10.9 4.3 -10.9" fill="#333333" fill-rule="evenodd" stroke="none"/>
  </g>
</svg>
