<?xml version="1.0" encoding="UTF-8" standalone="no"?>
<svg xmlns:xlink="http://www.w3.org/1999/xlink" height="38.4px" width="20.8px" xmlns="http://www.w3.org/2000/svg">
  <g transform="matrix(1.0, 0.0, 0.0, 1.0, 10.6, 18.2)">
    <path d="M1.6 -18.2 L2.4 -18.2 3.2 -18.0 3.8 -17.7 5.05 -17.05 5.8 -16.45 6.3 -15.9 6.4 -15.6 6.5 -15.3 6.6 -15.0 6.6 -14.7 6.6 -14.4 6.6 -14.1 6.5 -13.8 6.4 -13.5 6.2 -13.2 6.0 -12.9 5.7 -12.6 5.4 -12.3 4.95 -11.95 4.9 -11.7 4.9 -11.4 4.8 -11.1 4.7 -10.8 4.5 -10.5 4.3 -10.2 4.0 -9.9 3.7 -9.7 1.2 -9.4 -3.6 -9.7 -4.4 -9.9 -4.9 -10.2 -5.2 -10.5 -5.4 -10.8 -5.5 -11.1 -5.5 -11.4 -5.5 -11.7 -5.5 -12.0 -5.5 -12.6 -5.5 -13.5 -5.5 -14.1 -5.4 -14.4 -5.2 -14.7 -5.1 -15.0 -5.0 -15.3 -4.8 -15.6 -4.7 -15.9 -4.6 -16.2 -4.3 -16.5 -4.0 -16.8 -3.7 -17.1 -3.3 -17.4 -1.7 -17.75 1.0 -18.1 1.6 -18.2" fill="#663366" fill-opacity="0.101960786" fill-rule="evenodd" stroke="none"/>
    <path d="M2.4 -16.3 Q3.5 -15.9 4.55 -15.3 L6.3 -14.2 6.5 -13.9 6.7 -13.6 6.9 -13.3 7.0 -13.0 7.1 -12.1 7.15 -11.5 7.2 -10.3 7.2 -8.5 7.1 -7.3 6.8 -6.7 6.6 -6.4 6.3 -6.1 6.0 -5.8 5.3 -5.25 4.9 -5.0 4.6 -4.9 4.0 -4.8 2.4 -4.7 2.2 -4.4 1.9 -4.1 1.6 -3.9 1.4 -3.8 0.8 -3.7 0.0 -3.95 -0.7 -4.2 -1.3 -4.5 -1.7 -4.8 -1.9 -5.1 -2.1 -5.4 -2.2 -5.7 -2.3 -6.0 -2.4 -6.3 -2.4 -6.6 -2.4 -6.9 -2.4 -7.2 -2.55 -7.5 -2.8 -7.8 -3.1 -8.1 -3.3 -8.4 -3.5 -8.7 -3.6 -9.3 -3.6 -9.9 -3.6 -10.5 -3.6 -11.4 -3.6 -12.6 -3.6 -13.2 -3.5 -13.5 -3.4 -13.8 -3.3 -14.1 -3.1 -14.4 -3.0 -14.7 -2.8 -15.0 -2.5 -15.3 -2.2 -15.6 -1.9 -15.9 -1.3 -16.2 -0.5 -16.4 -0.2 -16.5 0.4 -16.55 0.4 -16.6 2.4 -16.3" fill="#663366" fill-opacity="0.101960786" fill-rule="evenodd" stroke="none"/>
    <path d="M2.9 4.2 L3.4 4.5 4.1 5.1 4.95 6.05 5.5 6.9 5.5 7.2 5.6 7.5 5.6 7.8 5.55 8.1 5.5 8.7 5.55 9.6 5.45 10.5 5.4 10.8 5.5 11.1 5.7 11.4 6.2 11.7 6.5 12.0 6.8 12.3 7.0 12.6 7.2 12.9 7.5 13.5 7.6 13.8 7.7 14.1 7.8 14.4 7.8 14.7 7.8 15.3 7.8 16.2 7.85 17.4 7.7 18.3 7.6 18.6 7.4 18.9 7.2 19.2 7.0 19.5 6.5 19.8 6.2 20.0 5.8 20.1 5.2 20.2 4.6 20.1 4.0 19.9 3.5 19.6 3.2 19.3 3.0 19.0 2.7 18.7 2.25 18.1 1.9 17.5 1.65 17.55 1.3 17.8 0.9 18.1 0.6 18.3 0.2 18.4 Q-2.9 19.05 -5.8 17.85 L-7.0 17.3 -7.3 17.0 -7.6 16.7 -7.8 16.4 -8.0 16.1 -8.1 15.8 -8.2 15.5 -8.3 15.2 -8.4 14.9 -8.5 14.6 -8.5 14.3 -8.5 13.7 -8.5 12.8 -8.5 11.6 -8.5 10.7 -8.4 10.4 -8.3 10.1 -8.2 9.8 -8.1 9.5 -8.0 9.2 -7.9 8.9 -7.7 8.6 -7.3 8.0 -6.7 7.1 -5.8 5.9 -5.5 5.6 -5.0 5.3 -4.1 5.0 -3.4 4.8 -1.9 4.5 -1.3 4.2 -0.4 4.05 -0.4 4.0 2.0 4.0 2.9 4.2" fill="#663366" fill-opacity="0.101960786" fill-rule="evenodd" stroke="none"/>
    <path d="M5.6 2.0 L6.0 2.3 6.55 2.9 7.0 3.5 7.2 3.8 7.3 4.1 7.4 4.4 7.55 4.65 8.0 5.0 8.3 5.3 8.5 5.6 8.6 5.9 8.8 6.2 8.9 6.5 9.0 6.8 9.1 7.1 9.2 7.4 9.2 7.7 9.2 8.3 9.2 8.9 9.2 9.8 9.1 10.7 9.15 11.0 9.3 11.3 9.5 11.6 9.7 11.9 9.8 12.2 9.9 12.5 10.0 12.8 10.1 13.1 10.2 13.4 10.2 13.7 10.2 14.3 10.2 14.9 10.2 15.8 10.2 16.7 10.1 17.0 10.0 17.3 9.9 17.6 9.7 17.9 9.5 18.2 9.1 18.5 8.8 18.7 2.4 18.9 Q0.7 18.75 -0.8 17.9 L-1.6 17.75 -2.8 17.45 -4.0 16.9 -4.3 16.6 -4.5 16.3 -4.75 16.0 -4.9 15.7 -4.95 15.1 -5.0 13.9 -5.0 12.1 -5.0 10.6 -5.0 10.3 -4.9 10.0 -4.8 9.7 -4.7 9.4 -4.6 9.1 -4.5 8.8 -4.3 8.2 -3.5 6.7 -1.4 3.9 Q0.0 2.45 1.8 1.6 L2.2 1.5 2.8 1.45 2.8 1.4 4.0 1.45 4.6 1.5 5.2 1.7 5.6 2.0" fill="#663366" fill-opacity="0.101960786" fill-rule="evenodd" stroke="none"/>
    <path d="M3.7 -16.3 L3.95 -16.0 4.15 -15.7 4.4 -15.4 4.8 -15.1 5.0 -14.8 5.2 -14.5 5.3 -14.2 5.45 -13.0 5.35 -11.2 5.35 -8.8 5.2 -7.9 5.1 -7.6 4.9 -7.3 4.9 -7.0 4.8 -6.7 4.7 -6.4 4.7 -6.1 4.8 -5.8 5.0 -5.5 5.1 -5.2 5.2 -4.9 5.3 -4.6 5.3 -4.3 5.3 -4.0 5.5 -3.7 5.6 -3.4 5.7 -3.1 5.7 -2.8 5.7 -2.5 5.8 -2.2 6.0 -1.9 6.0 -1.6 6.05 -1.3 6.1 -0.7 6.1 -0.1 6.1 0.5 6.25 0.8 6.5 1.1 6.7 1.4 6.9 1.7 7.0 2.0 7.1 2.3 7.2 2.6 7.2 3.2 7.2 4.4 7.2 5.9 7.2 7.1 7.3 7.4 7.4 7.7 7.5 8.0 7.7 8.3 7.9 8.6 8.0 8.9 8.1 9.2 8.3 9.5 8.4 9.8 8.55 11.6 8.5 14.6 8.45 17.9 8.4 18.2 8.3 18.5 8.1 18.8 8.0 19.1 7.7 19.4 7.3 19.7 7.0 19.9 6.6 20.0 6.0 20.1 5.4 20.0 4.8 19.8 4.4 19.5 4.1 19.2 3.8 18.9 3.4 18.8 2.8 18.9 2.2 18.8 1.8 18.8 1.2 18.9 0.6 18.8 0.0 18.6 -0.4 18.3 -0.7 18.0 -1.0 17.7 -1.1 17.4 -1.2 17.1 -1.3 16.8 -1.4 16.5 -1.6 16.2 -2.0 15.9 -2.3 15.6 -2.6 15.3 -2.7 15.0 -2.8 14.7 -2.9 14.4 -2.9 14.1 -2.9 13.8 -2.9 13.2 -2.9 12.9 -2.8 12.6 -2.8 12.3 -2.6 12.0 -2.5 11.7 -2.5 11.4 -2.5 11.1 -2.5 10.8 -2.4 10.5 -2.3 10.2 -2.15 9.95 -1.6 9.3 -1.0 8.7 -0.4 8.2 -0.2 8.1 0.2 8.0 0.5 7.75 0.5 7.5 0.4 7.2 0.4 6.9 0.4 6.6 0.4 6.3 0.3 6.0 0.1 5.4 0.0 4.8 0.0 4.2 0.0 3.3 -0.1 3.0 -0.2 2.7 -0.3 2.4 -0.4 2.1 -0.4 0.9 -0.4 -0.6 -0.4 -2.7 -0.4 -3.3 -0.3 -3.6 -0.2 -3.9 -0.1 -4.2 -0.1 -4.5 -0.1 -4.8 0.0 -5.1 0.1 -5.4 0.1 -5.7 0.1 -6.0 0.1 -6.3 0.0 -6.6 -0.1 -6.9 -0.1 -7.5 -0.1 -8.4 -0.1 -9.6 -0.1 -10.8 0.0 -11.1 0.1 -11.4 0.2 -11.7 0.2 -12.0 0.2 -12.9 0.1 -13.8 0.2 -15.0 0.3 -15.3 0.5 -15.6 0.6 -15.9 0.9 -16.2 1.3 -16.5 1.8 -16.7 2.4 -16.75 2.4 -16.8 3.2 -16.6 3.7 -16.3" fill="#663366" fill-opacity="0.101960786" fill-rule="evenodd" stroke="none"/>
    <path d="M-5.4 -15.45 L-5.4 -15.5 -5.15 -15.4 -5.0 -15.25 -4.9 -15.1 -4.9 -14.95 -4.85 -14.8 -4.8 -14.65 -4.65 -14.5 -4.55 -14.35 -4.5 -14.2 -4.45 -14.05 -4.45 -13.75 -4.4 -13.45 -4.4 -13.15 -4.35 -13.0 -4.3 -12.85 -4.25 -12.7 -4.15 -12.55 -4.0 -9.85 -3.95 -6.85 -3.95 -4.75 -4.0 -4.6 -4.05 -4.45 -4.1 -4.3 -4.15 -4.15 -4.15 -4.0 -4.1 -3.85 -4.1 -3.7 -4.1 -3.55 -4.15 -3.4 -4.2 -3.25 -4.25 -3.1 -4.35 -2.95 -4.4 -2.8 -4.45 -2.65 -4.5 -2.5 -4.5 -2.35 -4.5 -2.2 -4.5 -2.05 -4.55 -1.9 -4.6 -1.75 -4.7 -1.6 -4.7 -1.45 -4.75 -1.3 -4.8 -1.15 -4.9 -1.0 -4.9 -0.85 -4.95 -0.7 -5.0 -0.55 -5.1 -0.4 -5.1 -0.25 -5.15 -0.1 -5.2 0.05 -5.25 0.2 -5.25 0.35 -5.25 0.5 -5.3 0.65 -5.4 0.95 -5.5 1.25 -5.6 1.55 -5.7 1.7 -5.75 1.85 -5.9 2.15 -6.0 2.3 -6.05 2.45 -6.1 2.6 -6.1 2.75 -6.2 2.9 -6.25 3.05 -6.3 3.2 -6.3 3.35 -6.4 3.5 -6.55 3.8 -6.7 4.1 -6.8 4.25 -6.85 4.4 -6.85 4.55 -6.85 4.7 -6.9 4.85 -7.0 5.15 -7.05 5.45 -7.1 5.75 -7.2 5.9 -7.2 6.05 -7.2 6.2 -7.2 6.5 -7.25 6.8 -7.35 6.95 -7.4 7.1 -7.4 7.4 -7.4 7.7 -7.45 8.0 -7.55 8.15 -7.6 8.3 -7.6 8.6 -7.6 8.9 -7.65 9.2 -7.75 9.35 -7.8 11.15 -7.8 13.1 -7.8 14.75 -7.75 14.9 -7.65 15.05 -7.65 15.2 -7.6 15.5 -7.6 15.8 -7.65 16.1 -7.7 16.25 -7.8 16.4 -7.9 16.55 -8.0 16.7 -8.25 16.85 -8.5 16.95 -8.8 17.0 -9.25 16.9 -9.55 16.75 -9.7 16.6 -9.8 16.45 -9.9 16.3 -9.95 16.15 -10.0 16.0 -10.1 15.7 -10.2 15.4 -10.2 13.15 -10.2 10.6 -10.15 8.8 -10.1 8.65 -10.0 8.5 -10.0 8.35 -10.0 8.2 -10.0 7.9 -9.95 7.6 -9.9 7.45 -9.8 7.3 -9.8 7.15 -9.8 7.0 -9.8 6.7 -9.75 6.4 -9.7 6.25 -9.6 6.1 -9.6 5.95 -9.6 5.8 -9.6 5.5 -9.55 5.2 -9.5 5.05 -9.4 4.9 -9.4 4.75 -9.4 4.6 -9.35 4.45 -9.3 4.3 -9.2 4.15 -9.15 4.0 -9.15 3.85 -9.1 3.7 -9.1 3.55 -9.0 3.4 -8.95 3.25 -8.85 3.1 -8.75 2.95 -8.7 2.8 -8.65 2.65 -8.55 2.5 -8.55 2.35 -8.5 2.2 -8.45 2.05 -8.35 1.9 -8.35 1.75 -8.3 1.6 -8.25 1.45 -8.15 1.3 -8.0 1.0 -7.9 0.85 -7.55 -0.2 -7.1 -1.55 -6.7 -2.75 -6.7 -2.9 -6.7 -3.05 -6.7 -3.2 -6.65 -3.35 -6.6 -3.5 -6.5 -3.65 -6.35 -3.95 -6.3 -4.1 -6.25 -4.25 -6.25 -4.4 -6.25 -4.55 -6.25 -4.7 -6.25 -4.85 -6.2 -5.0 -6.1 -5.15 -6.0 -7.55 -5.95 -10.25 -5.9 -12.2 -5.95 -12.35 -6.0 -12.5 -6.05 -12.65 -6.05 -12.95 -6.0 -13.25 -6.0 -13.55 -5.95 -13.85 -5.95 -14.0 -6.0 -14.15 -6.05 -14.3 -6.05 -14.45 -6.05 -14.6 -6.0 -14.75 -5.95 -14.9 -5.9 -15.2 -5.75 -15.35 -5.6 -15.45 -5.4 -15.45" fill="#ffffff" fill-opacity="0.101960786" fill-rule="evenodd" stroke="none"/>
    <path d="M-6.75 -3.4 L-6.5 -3.7 -6.15 -4.1 -5.45 -5.05 -5.05 -5.5 -4.75 -5.65 -4.45 -5.8 -4.0 -5.85 -4.0 -5.9 -3.6 -5.9 -3.2 -5.8 -2.9 -5.65 -2.6 -5.5 -2.4 -5.35 -2.3 -5.2 -2.2 -5.05 -2.15 -4.9 -2.05 -3.7 Q-2.1 -2.55 -2.4 -1.45 L-3.05 0.8 -3.1 0.95 -3.35 1.4 -4.0 2.4 -5.1 3.5 -5.15 3.65 -5.25 3.8 -5.35 3.95 -5.5 4.1 -5.8 4.25 -6.2 4.35 -6.4 4.35 -6.85 4.25 -7.1 4.1 -7.3 3.95 -7.4 3.8 -7.5 3.65 -7.55 2.6 -7.5 0.65 -7.5 -1.3 -7.45 -1.6 -7.4 -1.75 -7.3 -1.9 -7.25 -2.05 -7.15 -2.2 -7.1 -2.35 -7.05 -2.5 -7.0 -2.65 -6.95 -2.8 -6.85 -3.1 -6.75 -3.4" fill="#ffffff" fill-opacity="0.101960786" fill-rule="evenodd" stroke="none"/>
    <path d="M5.6 -15.15 L5.25 -13.6 5.15 -11.3 Q5.0 -9.35 5.1 -7.4 L5.6 -3.0 6.35 1.1 7.1 4.5 8.0 7.9 8.8 11.75 9.4 16.3 9.8 15.5 Q10.35 13.75 10.05 11.8 9.65 9.55 9.05 7.65 8.45 5.7 8.0 3.3 L7.05 -1.45 Q6.5 -3.8 6.25 -6.25 6.05 -8.7 6.15 -11.05 6.25 -13.45 5.85 -15.75 L5.6 -15.15" fill="#333333" fill-rule="evenodd" stroke="none"/>
    <path d="M-6.05 -15.35 L-6.5 -15.75 Q-6.0 -7.1 -7.3 -2.1 L-9.6 6.75 Q-10.55 10.6 -10.6 13.05 -10.65 15.45 -10.35 16.2 L-10.2 16.25 -9.75 16.1 -9.5 16.0 Q-9.7 10.1 -8.65 6.5 L-6.65 -1.1 Q-5.75 -5.1 -5.75 -8.95 L-5.75 -14.05 Q-5.8 -15.35 -6.05 -15.35" fill="#333333" fill-rule="evenodd" stroke="none"/>
    <path d="M4.2 -11.3 L4.4 -11.3 4.55 -11.25 4.55 -11.15 4.6 -11.1 4.55 -11.05 4.55 -10.95 4.4 -10.9 4.2 -10.85 3.95 -10.8 3.8 -10.75 3.65 -10.75 3.5 -10.7 3.4 -10.75 3.35 -10.85 3.35 -10.9 3.35 -11.0 3.45 -11.1 3.55 -11.15 3.6 -11.2 3.7 -11.25 3.85 -11.25 4.0 -11.3 4.2 -11.3" fill="#333333" fill-rule="evenodd" stroke="none"/>
    <path d="M-7.7 6.0 L-7.5 6.0 -7.35 6.05 -7.25 6.1 -7.1 6.15 -7.0 6.2 -6.95 6.25 -6.9 6.35 -6.9 6.4 -6.95 6.5 -7.05 6.5 -7.3 6.5 -7.45 6.45 -7.7 6.4 -8.0 6.35 -8.15 6.35 -8.25 6.25 -8.3 6.15 -8.3 6.05 -8.2 6.0 -8.15 6.0 -8.0 6.05 -7.7 6.0" fill="#333333" fill-rule="evenodd" stroke="none"/>
    <path d="M-8.5 7.1 L-8.35 7.15 -8.25 7.2 -7.9 7.2 -7.75 7.25 -7.7 7.35 -7.65 7.4 -7.6 7.5 -7.55 7.55 -7.6 7.55 -7.7 7.55 -7.8 7.55 -7.9 7.6 -8.3 7.65 -8.45 7.6 -8.8 7.5 -8.95 7.5 -9.0 7.4 -9.0 7.35 -9.0 7.25 -9.0 7.2 -8.9 7.1 -8.8 7.1 -8.5 7.1" fill="#333333" fill-rule="evenodd" stroke="none"/>
    <path d="M5.0 8.15 L5.75 7.9 6.2 7.75 6.3 7.7 6.5 7.75 6.65 7.8 6.7 7.85 6.75 7.95 6.75 8.0 6.75 8.1 6.75 8.15 6.65 8.25 Q6.15 8.3 5.75 8.6 L5.2 8.85 5.05 8.75 4.85 8.7 4.8 8.6 4.75 8.55 Q4.75 8.3 5.0 8.15" fill="#333333" fill-rule="evenodd" stroke="none"/>
    <path d="M7.85 8.35 L7.85 8.45 7.9 8.5 7.85 8.55 7.8 8.7 7.7 8.9 7.0 9.25 6.6 9.4 6.5 9.4 6.4 9.4 6.3 9.45 6.2 9.45 6.05 9.45 5.9 9.5 5.8 9.45 5.75 9.35 5.75 9.3 5.75 9.2 6.0 9.05 6.05 9.0 6.6 8.8 7.35 8.5 7.45 8.45 7.55 8.35 7.7 8.3 7.85 8.35" fill="#333333" fill-rule="evenodd" stroke="none"/>
    <path d="M7.55 10.45 L7.6 10.45 7.7 10.45 7.8 10.45 7.95 10.5 8.05 10.55 8.1 10.65 8.15 10.7 8.1 10.75 8.0 10.85 7.85 10.8 7.6 10.85 7.35 10.95 7.1 11.1 7.0 11.1 6.75 11.1 6.65 11.15 6.5 11.05 6.5 11.0 6.55 10.9 6.65 10.85 6.7 10.8 6.7 10.75 6.8 10.75 7.0 10.7 7.15 10.6 7.25 10.55 7.3 10.55 7.4 10.5 7.55 10.45" fill="#333333" fill-rule="evenodd" stroke="none"/>
    <path d="M5.6 11.9 L5.7 11.8 5.8 11.8 6.0 11.75 6.1 11.7 6.2 11.65 6.65 11.6 6.75 11.55 6.95 11.45 7.2 11.4 7.4 11.45 7.5 11.5 7.55 11.55 7.55 11.6 7.55 11.7 7.5 11.75 7.4 11.75 7.15 11.85 7.0 11.9 6.65 12.05 6.5 12.15 6.4 12.15 6.15 12.2 6.0 12.25 5.8 12.2 5.65 12.2 5.6 12.1 5.6 12.05 5.6 11.95 5.6 11.9" fill="#333333" fill-rule="evenodd" stroke="none"/>
    <path d="M8.3 12.35 L8.45 12.4 8.55 12.45 8.55 12.5 8.5 12.6 8.4 12.65 8.25 12.7 8.0 12.85 7.7 12.9 7.35 13.05 7.2 13.05 6.9 13.15 6.7 13.2 6.55 13.15 6.5 13.05 6.45 12.95 6.45 12.85 6.5 12.75 6.55 12.7 6.7 12.6 6.8 12.55 7.45 12.4 7.7 12.35 7.9 12.35 8.0 12.35 8.2 12.3 8.3 12.35" fill="#333333" fill-rule="evenodd" stroke="none"/>
    <path d="M2.35 -12.7 L2.25 -12.8 2.25 -12.85 2.3 -12.9 2.3 -12.95 2.35 -13.0 3.65 -13.15 4.0 -13.2 4.1 -13.2 4.2 -13.2 4.25 -13.15 4.25 -12.95 4.2 -12.95 4.15 -12.9 4.1 -12.9 4.0 -12.85 3.95 -12.85 3.9 -12.8 3.25 -12.7 2.45 -12.65 2.35 -12.7" fill="#333333" fill-rule="evenodd" stroke="none"/>
    <path d="M4.7 -12.05 L4.65 -12.05 4.6 -11.95 4.6 -11.85 4.5 -11.85 4.45 -11.8 4.4 -11.8 4.35 -11.75 4.2 -11.75 3.85 -11.55 2.8 -11.45 2.3 -11.4 2.2 -11.4 2.1 -11.5 2.1 -11.55 2.05 -11.55 2.05 -11.7 2.1 -11.75 2.1 -11.8 2.15 -11.85 2.2 -11.85 3.85 -12.1 3.95 -12.1 4.1 -12.15 4.35 -12.15 4.4 -12.15 4.45 -12.2 4.55 -12.25 4.65 -12.2 4.7 -12.15 4.7 -12.05" fill="#333333" fill-rule="evenodd" stroke="none"/>
  </g>
</svg>
