<?xml version="1.0" encoding="UTF-8" standalone="no"?>
<svg xmlns:xlink="http://www.w3.org/1999/xlink" height="40.5px" width="21.05px" xmlns="http://www.w3.org/2000/svg">
  <g transform="matrix(1.0, 0.0, 0.0, 1.0, 10.85, 19.1)">
    <path d="M1.6 -18.9 L2.0 -18.7 2.8 -18.5 3.4 -18.2 3.9 -17.9 4.3 -17.6 4.6 -17.3 4.8 -17.0 4.9 -16.7 5.0 -16.4 5.1 -16.1 5.1 -15.8 5.1 -15.5 5.1 -15.2 5.1 -14.9 5.1 -14.6 5.1 -14.3 5.0 -14.0 4.9 -13.7 4.8 -13.4 4.6 -13.1 4.5 -12.8 4.4 -12.5 4.4 -12.2 4.3 -11.9 4.2 -11.6 4.0 -11.3 3.8 -11.0 3.6 -10.7 3.4 -10.4 3.2 -10.1 2.8 -9.8 2.5 -9.6 -1.2 -9.4 -4.9 -10.1 -5.4 -10.4 -5.7 -10.7 -6.0 -11.0 -6.2 -11.3 -6.4 -11.6 -6.45 -11.9 -6.5 -12.5 -6.5 -13.1 -6.5 -14.0 -6.45 -15.2 -6.4 -15.5 -6.3 -15.8 -6.1 -16.1 -5.8 -16.4 -5.5 -16.7 -5.2 -17.0 -4.9 -17.3 -4.5 -17.5 -3.7 -17.85 -3.2 -18.1 -2.0 -18.7 -1.6 -18.9 -1.4 -18.95 -0.8 -19.05 -0.8 -19.1 0.8 -19.1 1.6 -18.9" fill="#663366" fill-opacity="0.101960786" fill-rule="evenodd" stroke="none"/>
    <path d="M3.95 -15.95 L5.4 -14.5 5.9 -13.9 6.0 -13.6 6.1 -13.3 6.2 -13.0 6.2 -12.7 6.2 -12.4 6.3 -12.1 6.4 -11.8 6.4 -11.5 6.4 -11.2 6.4 -10.9 6.4 -10.6 6.4 -10.0 6.4 -9.4 6.4 -9.1 6.3 -8.8 6.2 -8.5 6.1 -8.2 5.9 -7.9 5.6 -7.6 5.5 -7.3 5.3 -7.0 5.1 -6.7 4.7 -6.4 4.3 -6.1 3.6 -5.85 2.8 -5.6 2.0 -5.6 1.2 -5.7 0.4 -5.9 -0.1 -6.2 -0.4 -6.5 -0.7 -6.8 -1.0 -7.1 -1.2 -7.4 -1.7 -7.7 -2.1 -8.0 -2.3 -8.3 -2.5 -8.6 -2.6 -8.9 -2.65 -9.2 -2.7 -9.8 -2.7 -10.7 -2.65 -11.9 -2.4 -13.1 -2.4 -13.4 -2.5 -13.7 -2.6 -14.0 -2.7 -14.3 -2.7 -14.6 -2.7 -14.9 -2.7 -15.2 -2.6 -15.5 -2.5 -15.8 -2.3 -16.1 -2.1 -16.4 -1.7 -16.7 -1.3 -16.9 -1.0 -16.95 -0.4 -17.05 -0.4 -17.1 1.6 -17.1 2.4 -16.9 3.95 -15.95" fill="#663366" fill-opacity="0.101960786" fill-rule="evenodd" stroke="none"/>
    <path d="M2.0 3.55 L3.2 4.15 4.35 5.3 5.0 6.5 5.1 6.8 5.45 8.0 5.6 10.1 5.5 12.5 5.5 13.1 5.4 13.4 5.3 13.7 5.2 14.0 5.0 14.3 4.8 14.6 4.9 14.9 5.1 15.2 5.3 15.5 5.4 15.8 5.5 16.1 5.5 16.4 5.5 16.7 5.4 17.0 5.3 17.3 5.1 17.6 4.9 17.9 4.6 18.2 4.0 18.5 3.2 18.7 2.6 18.9 2.3 19.2 2.0 19.5 1.5 19.8 1.0 20.0 -3.55 19.8 Q-5.8 19.35 -7.9 18.3 L-8.2 18.0 -8.5 17.7 -8.8 17.4 -9.4 16.8 -9.9 15.9 -9.95 15.6 -10.0 15.0 -10.0 13.8 -10.0 12.3 -10.0 10.8 -9.9 10.5 -9.8 10.2 -9.7 9.9 -9.5 9.6 -9.1 9.0 -8.3 8.1 -7.1 6.9 -6.6 6.6 -6.0 6.3 -5.4 6.0 -4.9 5.7 -4.7 5.4 -4.4 5.1 -4.1 4.8 -3.8 4.5 -2.9 3.9 -2.0 3.6 -1.4 3.4 -0.8 3.35 -0.8 3.3 1.2 3.3 2.0 3.55" fill="#663366" fill-opacity="0.101960786" fill-rule="evenodd" stroke="none"/>
    <path d="M8.9 2.2 L9.0 2.5 9.2 2.8 9.3 3.1 9.5 3.4 9.6 3.7 9.7 4.0 9.9 4.3 10.0 4.6 10.05 5.2 10.1 6.1 10.1 7.9 10.05 10.0 10.0 10.3 9.9 10.6 9.7 10.9 9.7 11.2 9.7 11.5 9.6 11.8 9.5 12.1 9.5 12.4 9.5 12.7 9.5 13.0 9.5 13.3 9.5 13.6 9.5 13.9 9.4 14.2 9.3 14.5 9.2 14.8 9.0 15.1 8.8 15.4 8.7 15.7 8.5 16.0 8.4 16.3 8.3 16.6 8.1 16.9 7.9 17.2 7.6 17.5 7.3 17.8 7.0 18.1 6.4 18.4 5.6 18.6 2.8 18.6 1.9 18.4 1.4 18.1 0.9 17.8 0.6 17.6 -0.1 17.4 -1.9 16.8 -2.8 16.5 -3.2 16.2 -3.5 15.9 -3.8 15.6 -4.1 15.3 -4.55 14.7 -4.7 14.4 -4.75 13.8 -4.8 12.9 -4.8 11.4 -4.5 9.6 -4.4 9.3 -4.2 9.0 -4.1 8.7 -4.1 8.4 -4.0 8.1 -4.0 7.8 -3.9 7.5 -3.8 7.2 -3.7 6.9 -3.7 6.6 -3.7 6.3 -3.7 6.0 -3.7 5.7 -3.6 5.4 -3.6 5.1 -3.4 4.8 -3.3 4.5 -3.1 4.2 -2.9 3.9 -2.5 3.3 -2.2 2.7 -1.9 2.4 -1.6 2.1 -1.2 1.8 -0.6 1.5 -0.2 1.3 0.2 1.25 2.4 1.1 3.2 1.1 3.6 1.0 3.8 0.9 4.2 0.8 4.8 0.75 4.8 0.7 6.0 0.75 7.2 1.05 8.6 1.9 8.9 2.2" fill="#663366" fill-opacity="0.101960786" fill-rule="evenodd" stroke="none"/>
    <path d="M3.6 -17.75 L3.6 -17.8 4.2 -17.7 4.8 -17.5 5.2 -17.2 5.5 -16.9 5.8 -16.6 5.9 -16.3 6.0 -16.0 6.1 -15.7 6.2 -15.4 6.2 -15.1 6.2 -14.8 6.2 -14.5 6.2 -14.2 6.1 -13.9 6.0 -13.6 5.9 -13.3 5.75 -13.0 5.5 -12.7 5.3 -12.4 5.0 -12.1 5.0 -11.8 5.0 -11.5 5.0 -11.2 5.0 -10.9 5.0 -10.6 4.9 -10.3 4.8 -10.0 4.7 -9.7 4.65 -9.4 4.8 -9.1 4.9 -8.8 5.1 -8.5 5.4 -7.9 5.5 -7.6 5.6 -7.3 5.7 -7.0 5.7 -6.7 5.7 -6.4 5.7 -5.8 5.7 -4.9 5.7 -4.3 5.75 -4.0 5.9 -3.7 6.75 -0.1 7.6 4.1 8.1 8.0 8.2 8.3 8.3 8.6 8.3 8.9 8.4 9.2 8.6 9.8 8.6 12.2 8.6 15.5 8.6 18.8 8.6 19.1 8.5 19.4 8.4 19.7 8.3 20.0 8.1 20.3 7.9 20.6 7.5 20.9 7.2 21.1 7.0 21.2 6.6 21.3 6.0 21.4 5.4 21.3 4.8 21.1 4.3 20.8 4.0 20.5 3.7 20.2 3.5 19.9 3.2 19.6 3.05 19.45 2.4 19.4 1.8 19.3 1.2 19.1 0.7 18.8 0.4 18.5 0.2 18.2 0.0 17.9 -0.1 17.6 -0.2 11.9 -0.05 5.3 0.0 -0.4 -0.1 -0.7 -0.2 -1.0 -0.3 -1.3 -0.3 -1.6 -0.3 -1.9 -0.3 -2.2 -0.3 -2.5 -0.3 -2.8 -0.45 -3.1 -0.7 -3.4 -0.9 -3.7 -1.15 -4.0 -1.3 -4.3 -1.45 -5.2 -1.4 -7.0 -1.35 -9.1 -1.3 -9.7 -1.2 -10.0 -1.0 -10.3 -0.8 -10.6 -0.7 -10.9 -0.4 -11.5 -0.35 -11.8 -0.4 -12.1 -0.6 -12.4 -0.8 -12.7 -0.8 -13.0 -0.85 -13.6 -0.95 -14.5 -0.85 -15.4 -0.8 -15.7 -0.6 -16.0 -0.5 -16.3 -0.2 -16.6 0.0 -16.9 0.4 -17.2 0.7 -17.4 1.0 -17.5 1.6 -17.55 2.6 -17.6 3.0 -17.7 3.6 -17.75" fill="#663366" fill-opacity="0.101960786" fill-rule="evenodd" stroke="none"/>
    <path d="M-5.1 -15.55 L-4.9 -15.4 -4.8 -15.25 -4.75 -15.1 -4.75 -14.95 -4.65 -14.8 -4.55 -14.65 -4.5 -13.6 -4.45 -12.25 -4.4 -11.05 -4.35 -10.9 -4.25 -10.75 -4.2 -10.6 -4.15 -10.45 -4.15 -10.3 -4.05 -10.15 -4.0 -10.0 -3.95 -9.85 -3.9 -9.7 -3.9 -8.65 -3.9 -7.15 -3.9 -5.8 -3.95 -5.65 -4.05 -5.5 -4.1 -5.35 -4.15 -5.2 -4.2 -5.05 -4.3 -4.75 -4.3 -4.6 -4.3 -4.45 -4.35 -4.3 -4.45 -4.15 -4.5 -4.0 -4.5 -3.85 -4.5 -3.7 -4.55 -3.55 -4.6 -3.4 -4.65 -3.25 -4.65 -3.1 -4.65 -2.95 -4.65 -2.65 -4.7 -2.35 -4.75 -2.2 -4.85 -2.05 -4.85 -1.9 -4.85 -1.75 -4.9 -1.6 -4.95 -1.45 -5.0 -1.3 -5.1 -1.15 -5.15 -1.0 -5.2 -0.85 -5.25 -0.7 -5.35 -0.55 -5.4 -0.4 -5.45 -0.25 -5.55 -0.1 -5.6 0.05 -5.65 0.2 -5.7 0.35 -5.8 0.65 -5.8 0.8 -5.8 0.95 -5.8 1.1 -5.85 1.25 -5.9 1.4 -6.0 1.55 -6.05 1.7 -6.1 1.85 -6.2 2.0 -6.25 2.15 -6.35 2.3 -6.35 2.45 -6.35 2.6 -6.35 2.75 -6.4 2.9 -6.5 3.05 -6.65 3.35 -6.75 3.5 -6.8 3.65 -6.85 3.8 -6.95 3.95 -7.0 4.1 -7.05 4.25 -7.15 4.4 -7.15 4.55 -7.2 4.7 -7.25 4.85 -7.3 5.0 -7.3 5.15 -7.3 5.3 -7.3 5.45 -7.3 5.6 -7.3 5.75 -7.35 5.9 -7.4 6.05 -7.45 6.2 -7.5 6.35 -7.5 7.25 -7.45 8.45 -7.5 9.8 -7.6 9.95 -7.65 12.05 -7.6 14.45 -7.6 16.25 -7.4 16.85 -7.2 17.6 -7.25 18.5 -7.3 18.65 -7.4 18.8 -7.5 18.95 -7.6 19.1 -7.85 19.25 -8.1 19.35 -8.4 19.4 -8.85 19.3 -9.15 19.15 -9.3 19.0 -9.5 18.7 -9.65 18.4 -9.75 18.25 -9.75 18.1 -9.8 17.95 -9.8 17.65 -9.8 17.35 -9.85 17.2 -9.95 17.05 -10.0 14.5 -10.0 11.65 -9.9 9.4 -9.85 9.25 -9.75 9.1 -9.7 8.2 -9.7 7.0 -9.7 5.8 -9.65 5.65 -9.55 5.35 -9.5 4.9 -9.4 4.45 -9.35 4.3 -9.25 4.15 -9.25 4.0 -9.2 3.85 -9.15 3.7 -9.05 3.55 -9.05 3.4 -9.0 3.25 -8.95 3.1 -8.85 2.95 -8.85 2.8 -8.8 2.65 -8.75 2.5 -8.65 2.35 -8.5 2.2 -8.45 2.05 -8.4 1.9 -8.4 1.75 -8.35 1.6 -8.25 1.45 -8.1 1.3 -8.0 1.15 -8.0 1.0 -7.95 0.85 -7.9 0.7 -7.8 0.55 -7.8 0.4 -7.8 0.25 -7.8 0.1 -7.8 -0.05 -7.75 -0.2 -7.65 -0.35 -7.55 -0.5 -7.5 -0.65 -7.45 -0.8 -7.4 -0.95 -7.3 -1.25 -7.2 -1.4 -7.05 -1.55 -6.95 -1.7 -6.95 -1.85 -6.9 -2.0 -6.8 -2.15 -6.75 -2.3 -6.75 -2.45 -6.75 -2.6 -6.7 -2.75 -6.6 -2.9 -6.55 -3.05 -6.55 -3.2 -6.55 -3.35 -6.5 -3.5 -6.5 -3.65 -6.45 -3.8 -6.35 -3.95 -6.3 -4.1 -6.3 -4.25 -6.3 -4.4 -6.3 -4.55 -6.25 -4.7 -6.2 -4.85 -6.1 -5.0 -6.1 -5.15 -6.1 -5.3 -6.1 -5.45 -6.05 -5.6 -5.95 -5.75 -5.85 -5.9 -5.8 -6.05 -5.75 -6.2 -5.7 -6.35 -5.7 -7.1 -5.7 -8.15 -5.7 -9.2 -5.7 -9.35 -5.7 -9.5 -5.8 -9.65 -5.85 -9.8 -5.85 -9.95 -5.9 -10.1 -6.0 -10.25 -6.05 -11.3 -5.95 -12.8 Q-5.85 -13.45 -5.9 -14.15 L-5.9 -14.3 -6.0 -14.45 -6.05 -14.6 -6.05 -14.75 -6.05 -14.9 -6.05 -15.05 -6.05 -15.2 -5.95 -15.35 -5.8 -15.5 -5.65 -15.6 -5.4 -15.6 -5.4 -15.65 -5.1 -15.55" fill="#ffffff" fill-opacity="0.101960786" fill-rule="evenodd" stroke="none"/>
    <path d="M-5.0 -8.5 L-4.6 -8.4 -4.3 -8.25 -4.15 -8.1 -4.05 -7.95 -4.0 -7.8 -3.95 -7.65 -3.9 -7.5 -3.9 -7.35 -3.95 -7.2 -4.0 -7.05 -4.0 -6.9 -4.0 -6.75 -4.05 -6.6 -4.05 -6.45 -4.15 -6.3 -4.2 -6.15 -4.3 -6.0 -4.3 -5.85 -4.4 -5.7 -4.45 -5.55 -4.55 -5.4 -4.6 -5.25 -4.65 -5.1 -4.65 -4.95 -4.65 -4.8 -4.4 -4.65 -4.25 -4.5 -4.15 -4.35 -4.05 -4.2 -4.0 -4.05 -3.95 -3.9 -3.95 -3.75 -3.95 -3.6 -4.0 -3.45 -4.05 -3.3 -4.05 -2.7 -4.05 -1.5 -4.05 -0.45 -4.05 -0.15 -4.1 0.0 -4.15 0.15 -4.2 0.3 -4.2 0.45 -4.3 0.6 -4.35 0.75 -4.4 0.9 -4.5 1.2 -4.6 1.5 -4.65 1.65 -4.75 1.8 -4.8 1.95 -4.85 2.1 -5.0 2.25 -5.3 2.55 -5.75 3.0 -5.9 3.15 -5.95 3.45 -6.15 4.05 -6.35 4.8 -6.45 5.1 -6.55 5.25 -6.65 5.4 -6.75 5.55 -6.9 5.7 -7.2 5.85 -7.6 5.95 -8.05 5.85 -8.3 5.7 -8.5 5.55 -8.6 5.4 -8.7 5.25 -8.7 5.1 -8.75 4.95 -8.75 4.65 -8.75 4.35 -8.75 4.2 -8.7 4.05 -8.65 3.9 -8.55 3.6 -8.5 3.3 -8.5 3.15 -8.4 3.0 -8.35 2.85 -8.3 2.7 -8.25 2.55 -8.15 2.25 -8.1 2.1 -8.1 1.95 -8.1 1.8 -8.1 1.65 -8.1 1.5 -7.8 0.45 -7.35 -1.05 -7.0 -2.4 -6.95 -2.55 -6.95 -3.3 -6.95 -4.5 -6.95 -5.7 -6.9 -6.0 -6.85 -6.15 -6.75 -6.3 -6.75 -6.45 -6.7 -6.6 -6.65 -6.75 -6.6 -7.05 -6.55 -7.2 -6.5 -7.35 -6.4 -7.5 -6.3 -7.65 -6.1 -7.95 -5.9 -8.1 -5.7 -8.25 -5.45 -8.4 -5.0 -8.45 -5.0 -8.5" fill="#ffffff" fill-opacity="0.101960786" fill-rule="evenodd" stroke="none"/>
    <path d="M-6.55 -13.6 Q-6.35 -10.8 -6.7 -6.8 -7.1 -2.85 -8.25 0.95 -9.4 4.75 -10.35 9.4 -11.35 14.05 -10.25 16.75 L-9.65 16.35 Q-10.15 9.15 -8.4 4.2 -6.6 -0.75 -6.05 -5.45 -5.55 -10.2 -6.3 -15.9 -6.75 -16.45 -6.55 -13.6" fill="#333333" fill-rule="evenodd" stroke="none"/>
    <path d="M5.55 -11.8 L5.85 -16.5 Q4.5 -11.7 5.1 -6.7 5.55 -2.35 6.85 1.8 8.2 6.15 8.7 10.95 8.95 14.15 9.5 16.75 L9.8 17.0 10.05 16.8 10.2 16.6 Q10.25 10.45 8.8 5.75 7.4 1.0 6.35 -3.5 5.4 -8.05 5.55 -11.8" fill="#333333" fill-rule="evenodd" stroke="none"/>
    <path d="M-8.45 5.95 L-8.45 5.85 -8.4 5.8 -8.4 5.75 -8.3 5.75 -8.15 5.8 -8.05 5.85 -7.95 5.95 -7.85 6.0 -7.65 6.1 -7.35 6.25 -7.2 6.3 -7.05 6.4 -6.95 6.45 -6.95 6.5 -7.0 6.6 -7.1 6.65 -7.2 6.7 -7.3 6.7 -7.4 6.65 -7.55 6.6 -7.65 6.5 -8.0 6.35 -8.1 6.25 -8.15 6.2 -8.25 6.15 -8.4 6.05 -8.45 5.95" fill="#333333" fill-rule="evenodd" stroke="none"/>
    <path d="M-7.45 7.45 L-7.5 7.45 -7.6 7.45 -7.7 7.45 -7.85 7.4 -7.9 7.45 -8.0 7.4 -8.1 7.4 -8.65 7.3 -8.9 7.25 -9.0 7.15 -9.0 7.05 -8.95 7.0 -8.9 7.0 -8.8 7.0 -8.65 7.05 -8.3 7.1 -8.2 7.1 -7.85 7.2 -7.75 7.25 -7.7 7.25 -7.6 7.3 -7.5 7.35 -7.45 7.45" fill="#333333" fill-rule="evenodd" stroke="none"/>
    <path d="M4.75 8.5 L4.75 8.4 4.85 8.35 4.9 8.3 5.0 8.25 5.35 8.2 5.85 7.9 6.3 7.8 6.4 7.8 6.5 7.85 6.6 7.9 6.65 7.95 6.65 8.0 6.65 8.1 6.15 8.35 5.65 8.6 5.45 8.65 5.3 8.7 5.2 8.75 5.0 8.75 4.85 8.7 4.75 8.6 4.75 8.5" fill="#333333" fill-rule="evenodd" stroke="none"/>
    <path d="M8.25 8.45 L8.3 8.5 8.25 8.55 8.25 8.65 8.1 8.7 8.0 8.8 7.95 8.9 7.45 9.1 7.2 9.25 6.75 9.4 6.35 9.5 6.2 9.5 6.1 9.55 5.95 9.55 5.85 9.45 5.85 9.4 5.85 9.3 5.85 9.25 5.9 9.15 6.0 9.1 6.2 9.0 6.3 8.95 6.95 8.75 7.55 8.55 7.75 8.5 7.9 8.4 8.0 8.35 8.1 8.3 8.25 8.35 8.25 8.45" fill="#333333" fill-rule="evenodd" stroke="none"/>
    <path d="M6.85 10.4 L7.0 10.35 7.1 10.35 7.25 10.4 7.5 10.5 7.55 10.55 7.25 10.6 6.8 10.8 6.65 10.9 6.5 11.0 6.4 11.0 6.15 11.0 6.05 11.0 6.0 10.9 6.0 10.8 6.05 10.7 6.1 10.65 6.2 10.6 6.45 10.55 6.6 10.5 6.7 10.45 6.85 10.4" fill="#333333" fill-rule="evenodd" stroke="none"/>
    <path d="M5.3 11.95 L5.7 11.8 5.8 11.8 6.3 11.65 6.7 11.6 7.0 11.5 7.2 11.45 7.3 11.45 7.4 11.45 7.5 11.4 7.6 11.4 8.0 11.35 8.1 11.35 8.2 11.35 8.3 11.4 8.45 11.45 8.5 11.5 8.45 11.6 8.15 11.7 7.8 11.8 7.0 12.0 6.55 12.1 5.85 12.25 5.7 12.3 5.6 12.35 5.5 12.3 5.45 12.3 5.25 12.25 5.15 12.15 5.15 12.1 5.2 12.0 5.3 11.95" fill="#333333" fill-rule="evenodd" stroke="none"/>
    <path d="M7.9 12.9 L8.05 12.95 8.1 13.05 8.15 13.1 8.1 13.15 8.05 13.25 7.85 13.35 7.8 13.4 7.75 13.5 7.65 13.55 7.6 13.55 7.5 13.55 7.1 13.6 6.95 13.55 6.85 13.45 6.8 13.35 6.75 13.3 6.8 13.25 6.85 13.15 6.95 13.1 7.4 12.95 7.65 12.9 7.8 12.9 7.9 12.9" fill="#333333" fill-rule="evenodd" stroke="none"/>
    <path d="M2.8 -12.95 L4.1 -13.1 4.45 -13.15 4.5 -13.15 4.6 -13.15 4.65 -13.1 4.65 -13.05 4.7 -13.0 4.65 -12.95 4.65 -12.9 3.9 -12.7 3.0 -12.55 2.85 -12.55 2.75 -12.55 2.7 -12.6 2.7 -12.65 2.65 -12.7 2.65 -12.85 2.7 -12.85 2.75 -12.9 2.8 -12.95" fill="#333333" fill-rule="evenodd" stroke="none"/>
    <path d="M4.55 -12.05 L4.65 -12.0 4.7 -12.0 4.7 -11.9 4.65 -11.85 4.55 -11.85 4.5 -11.8 4.35 -11.8 4.3 -11.8 4.25 -11.75 4.15 -11.75 4.1 -11.7 4.0 -11.65 3.95 -11.65 3.95 -11.6 3.25 -11.45 2.75 -11.35 2.4 -11.25 2.3 -11.25 2.2 -11.3 2.1 -11.4 2.1 -11.6 2.2 -11.7 3.0 -11.85 3.55 -11.95 3.6 -11.95 3.7 -12.0 3.85 -12.0 4.0 -12.05 4.05 -12.1 4.15 -12.1 4.25 -12.1 4.35 -12.1 4.5 -12.1 4.55 -12.05" fill="#333333" fill-rule="evenodd" stroke="none"/>
    <path d="M4.05 -10.9 L4.15 -10.85 4.15 -10.8 4.2 -10.8 4.2 -10.7 4.15 -10.7 4.15 -10.65 4.05 -10.6 3.95 -10.6 3.85 -10.55 3.8 -10.5 3.25 -10.4 2.4 -10.4 2.35 -10.45 2.3 -10.5 2.3 -10.7 2.35 -10.75 2.4 -10.8 3.05 -10.85 3.15 -10.85 3.45 -10.85 3.5 -10.9 3.6 -10.9 3.7 -10.9 3.95 -10.9 4.05 -10.9" fill="#333333" fill-rule="evenodd" stroke="none"/>
  </g>
</svg>
