<?xml version="1.0" encoding="UTF-8" standalone="no"?>
<svg xmlns:xlink="http://www.w3.org/1999/xlink" height="7.4px" width="15.4px" xmlns="http://www.w3.org/2000/svg">
  <g transform="matrix(1.0, 0.0, 0.0, 1.0, 7.4, 3.4)">
    <path d="M4.2 -1.65 L5.35 -1.75 6.9 -1.75 7.1 -1.7 7.25 -1.6 7.35 -1.5 7.45 -1.3 7.5 -1.2 7.5 -1.15 7.5 -1.05 7.5 -0.95 7.65 -0.65 7.85 -0.35 7.95 -0.2 8.0 -0.1 8.0 0.0 8.0 0.2 8.0 0.45 8.0 0.65 8.0 0.75 8.0 0.85 8.0 0.95 7.95 1.05 7.85 1.2 7.85 1.3 7.75 1.4 7.65 1.5 7.55 1.7 7.45 1.8 7.4 1.9 7.3 2.05 7.25 2.15 7.1 2.25 7.05 2.35 7.05 2.45 7.1 2.55 7.2 2.7 7.25 2.8 7.25 2.9 7.2 3.0 7.15 3.1 7.1 3.2 6.95 3.3 6.75 3.35 6.45 3.4 6.35 3.45 6.15 3.5 4.85 3.65 4.7 3.7 -2.1 4.0 -2.3 4.0 -5.85 3.45 -5.95 3.35 -6.05 3.3 -6.1 3.2 -6.15 3.1 -6.15 3.0 -6.2 2.9 -6.25 2.8 -6.3 2.7 -6.35 2.6 -6.65 2.3 -6.8 2.15 -6.95 1.95 -7.0 1.85 -7.0 1.8 -7.05 1.7 -7.05 1.6 -7.05 1.5 -7.05 1.3 -7.05 1.2 -7.05 1.05 -7.1 0.95 -7.15 0.85 -7.25 0.65 -7.3 0.55 -7.3 0.2 -7.3 -0.1 -7.3 -0.2 -7.3 -0.3 -7.3 -0.45 -7.3 -0.55 -7.3 -0.75 -7.25 -0.85 -7.1 -1.05 -6.85 -1.35 -6.75 -1.5 -6.65 -1.6 -6.5 -1.65 -6.3 -1.7 -6.25 -1.8 -6.15 -1.8 -6.0 -1.85 -5.25 -1.85 -5.05 -1.8 -4.95 -1.7 -4.35 -1.6 4.1 -1.55 4.2 -1.65" fill="#a2c072" fill-rule="evenodd" stroke="none"/>
    <path d="M4.4 -3.2 L5.15 -3.2 5.4 -3.15 5.5 -3.05 6.65 -2.9 6.75 -2.8 6.85 -2.7 6.85 -2.6 6.9 -2.5 6.95 -2.4 6.9 -2.3 6.85 -2.2 6.85 -2.15 6.75 -2.05 6.65 -1.95 5.75 -1.8 5.7 -1.75 5.15 -1.65 4.7 -1.55 4.6 -1.5 2.3 -1.45 2.0 -1.4 1.25 -1.3 1.2 -1.25 -4.0 -1.2 -4.25 -1.3 -4.35 -1.35 -5.35 -1.4 -5.75 -1.5 -6.0 -1.55 -6.1 -1.6 -6.15 -1.6 -6.35 -1.7 -6.5 -1.8 -6.65 -1.9 -6.75 -1.95 -6.8 -1.95 -7.0 -2.05 -7.15 -2.15 -7.25 -2.2 -7.25 -2.3 -7.3 -2.4 -7.4 -2.5 -7.4 -2.6 -7.4 -2.7 -7.4 -2.8 -7.35 -2.85 -7.3 -2.95 -7.2 -3.05 -7.05 -3.15 -6.85 -3.2 -6.7 -3.2 -6.65 -3.2 -6.45 -3.25 -6.3 -3.3 -6.25 -3.35 -6.1 -3.35 -6.1 -3.4 -6.0 -3.35 -5.8 -3.3 -5.7 -3.25 -1.8 -3.2 -1.55 -3.2 2.9 -3.15 3.1 -3.1 3.9 -3.05 4.1 -3.1 4.4 -3.2" fill="#669966" fill-rule="evenodd" stroke="none"/>
  </g>
</svg>
