<?xml version="1.0" encoding="UTF-8" standalone="no"?>
<svg xmlns:xlink="http://www.w3.org/1999/xlink" height="8.2px" width="16.4px" xmlns="http://www.w3.org/2000/svg">
  <g transform="matrix(1.0, 0.0, 0.0, 1.0, 8.2, 3.8)">
    <path d="M6.4 -3.25 L6.8 -3.15 7.0 -3.0 7.1 -2.85 7.15 -2.7 7.25 -2.55 7.25 -2.4 7.25 -2.25 7.15 -2.1 7.1 -1.95 7.0 -1.8 6.8 -1.65 Q2.1 -1.3 -2.7 -1.7 L-2.8 -1.65 -3.0 -1.6 -3.25 -1.7 -3.35 -1.85 -3.4 -2.0 -3.35 -2.15 -3.25 -2.3 -3.05 -2.45 -2.9 -2.55 5.25 -3.0 5.4 -3.1 5.5 -3.15 5.7 -3.2 6.0 -3.2 6.0 -3.25 6.4 -3.25" fill="#663366" fill-opacity="0.101960786" fill-rule="evenodd" stroke="none"/>
    <path d="M3.1 -0.95 L-0.6 -1.0 -2.2 -1.05 -2.6 -1.15 -3.2 -1.3 -3.8 -1.35 -4.15 -1.45 -4.25 -1.55 -4.4 -1.6 -4.85 -1.7 -5.05 -1.85 -5.2 -2.0 -5.3 -2.15 -5.35 -2.3 -5.4 -2.45 -5.4 -2.6 -5.4 -2.75 -5.35 -2.9 -5.3 -3.05 -5.2 -3.2 -5.05 -3.35 -4.85 -3.5 -4.4 -3.55 -4.4 -3.6 -3.2 -3.6 -2.8 -3.5 -2.6 -3.4 1.6 -3.1 2.8 -3.0 4.6 -2.9 5.0 -2.8 5.2 -2.65 5.35 -2.5 5.4 -2.35 5.45 -2.2 5.5 -2.05 5.5 -1.9 5.45 -1.75 5.4 -1.6 5.3 -1.45 5.15 -1.3 5.0 -1.2 3.1 -0.95" fill="#663366" fill-opacity="0.101960786" fill-rule="evenodd" stroke="none"/>
    <path d="M4.2 -1.6 Q5.15 -1.55 5.8 -0.85 L6.4 -0.15 6.45 0.0 6.55 0.15 6.6 0.3 6.65 0.45 6.65 0.75 6.65 1.05 6.65 1.65 6.6 2.4 6.6 2.55 6.4 2.85 Q5.6 3.85 4.3 4.0 L1.4 4.2 0.95 4.1 0.05 3.8 -0.95 3.35 -1.1 3.2 -1.2 3.05 -1.3 2.9 -1.4 2.75 -1.45 2.6 -1.55 2.45 -1.55 2.3 -1.6 2.0 -1.6 1.7 -1.6 1.25 -1.6 0.8 -1.55 0.65 -1.5 0.5 -1.4 0.35 -1.35 0.2 -1.3 0.05 -1.2 -0.1 -1.05 -0.25 -0.9 -0.4 -0.6 -0.55 -0.4 -0.7 -0.25 -0.85 -0.1 -1.0 0.3 -1.15 1.2 -1.45 1.9 -1.6 2.2 -1.65 4.2 -1.6" fill="#663366" fill-opacity="0.101960786" fill-rule="evenodd" stroke="none"/>
    <path d="M3.4 -1.55 L3.6 -1.4 3.8 -1.25 Q3.95 -1.15 4.05 -1.1 L4.3 -0.95 4.4 -0.8 4.5 -0.65 4.6 -0.5 4.65 -0.35 4.7 -0.2 4.7 0.1 4.7 0.4 4.7 0.7 4.7 1.0 4.7 1.15 4.65 1.3 4.55 1.6 4.45 1.9 4.35 2.2 4.25 2.65 4.15 2.95 4.1 3.1 3.95 3.25 3.8 3.4 3.6 3.55 3.3 3.65 0.95 4.0 0.75 4.15 0.5 4.25 0.2 4.3 Q-1.8 4.6 -3.65 3.85 L-3.85 3.7 -4.45 3.25 -4.9 2.8 -5.2 2.35 -5.25 2.2 -5.25 1.9 -5.25 1.6 -5.2 1.3 -5.2 1.0 -5.2 0.85 -5.15 0.7 -5.1 0.55 -5.05 0.4 -4.95 0.25 -4.9 0.1 -4.8 -0.05 -4.75 -0.2 -4.7 -0.35 -4.6 -0.5 -4.45 -0.65 -4.35 -0.8 -4.2 -0.95 -4.05 -1.1 -3.85 -1.2 -3.7 -1.25 -3.3 -1.35 -3.0 -1.4 -2.5 -1.45 -2.2 -1.55 -1.9 -1.65 -1.6 -1.65 -1.6 -1.7 2.6 -1.7 3.4 -1.55" fill="#663366" fill-opacity="0.101960786" fill-rule="evenodd" stroke="none"/>
    <path d="M1.6 -1.4 L2.0 -1.3 2.4 -1.2 2.6 -1.05 2.75 -0.9 2.85 -0.75 2.9 -0.6 2.95 -0.45 2.95 -0.3 2.9 -0.15 2.8 0.0 2.7 0.15 2.55 0.3 2.4 0.4 2.3 0.45 2.0 0.5 1.2 0.5 -3.4 0.25 -3.8 0.15 -4.2 0.05 -4.6 -0.05 -5.35 -0.15 -5.5 -0.05 -5.8 0.0 -6.0 0.0 -6.25 0.0 -6.35 0.05 -6.6 0.1 -6.85 0.2 -6.85 0.35 -6.85 0.5 -6.85 0.65 -6.85 0.8 -6.85 0.95 -6.85 1.1 -6.9 1.25 -6.85 1.4 -6.8 1.55 -6.8 1.7 -6.85 1.85 -6.9 1.95 -7.0 2.0 -7.2 2.05 -7.5 1.95 -7.65 1.8 -7.8 1.65 -7.85 1.5 -7.9 1.35 -7.95 1.2 -7.95 1.05 -7.95 0.9 -7.95 0.75 -7.95 0.6 -7.95 0.45 -7.95 0.3 -7.95 0.15 -7.95 0.0 -7.95 -0.15 -7.95 -0.3 -7.9 -0.45 -7.85 -0.6 -7.85 -0.75 -7.8 -0.9 -7.65 -1.05 -7.55 -1.15 -7.45 -1.2 -7.25 -1.25 -6.9 -1.35 -6.65 -1.45 -6.3 -1.55 -6.0 -1.7 -5.6 -1.8 -5.2 -1.8 -5.2 -1.85 -4.6 -1.85 -4.2 -1.75 -3.6 -1.65 -3.2 -1.55 1.2 -1.5 1.6 -1.4" fill="#ffffff" fill-opacity="0.101960786" fill-rule="evenodd" stroke="none"/>
    <path d="M-7.35 -2.4 L-7.35 -2.9 -6.85 -3.4 -5.95 -3.25 -6.75 -2.9 -6.8 -2.7 -6.8 -2.2 -6.75 -2.1 Q-6.1 -2.0 -6.2 -1.7 L-6.3 -1.65 Q-7.45 -1.5 -7.35 -2.4" fill="#333333" fill-rule="evenodd" stroke="none"/>
    <path d="M-1.45 -3.4 L-0.15 -3.4 1.95 -3.35 4.4 -3.6 5.75 -3.7 5.8 -3.6 5.85 -3.5 5.9 -3.35 5.85 -3.2 5.6 -3.05 4.5 -2.85 4.3 -2.85 3.6 -2.85 0.2 -2.65 -5.85 -3.15 -6.25 -3.25 -6.6 -3.3 -6.7 -3.4 -6.85 -3.5 -6.8 -3.55 Q-6.6 -3.85 -6.2 -3.75 L-5.25 -3.55 -3.65 -3.5 -2.55 -3.4 -1.45 -3.4" fill="#333333" fill-rule="evenodd" stroke="none"/>
    <path d="M5.15 -3.15 L5.1 -3.2 Q5.75 -3.95 6.85 -3.55 L7.5 -2.65 7.4 -1.75 6.9 -1.4 6.15 -1.5 6.0 -1.7 6.0 -1.75 6.0 -1.85 6.0 -1.9 6.65 -2.4 6.7 -2.6 6.35 -2.85 Q5.9 -3.3 5.15 -3.15" fill="#333333" fill-rule="evenodd" stroke="none"/>
    <path d="M7.15 -2.4 L7.3 -2.3 7.4 -2.2 7.45 -2.15 7.45 -2.05 7.4 -2.0 7.15 -1.6 Q4.5 -0.8 1.6 -1.05 L-3.2 -1.05 Q-4.65 -1.05 -5.9 -1.65 L-6.35 -1.7 -6.55 -1.75 -6.6 -1.8 -6.85 -1.85 -7.0 -1.9 -7.1 -1.95 -7.25 -2.1 -7.35 -2.4 -6.65 -2.25 Q-6.35 -2.1 -5.95 -2.25 L-4.35 -1.9 -3.0 -1.85 -1.8 -1.85 -0.6 -1.85 0.5 -1.85 1.7 -1.85 2.8 -1.85 4.0 -1.85 5.1 -1.9 6.95 -2.35 7.0 -2.4 7.15 -2.4" fill="#333333" fill-rule="evenodd" stroke="none"/>
    <path d="M-6.95 -2.3 L-6.75 -2.5 Q-6.45 -2.65 -6.35 -2.35 L-6.35 -2.1 Q-6.55 -1.35 -7.15 -0.7 L-7.3 0.25 -7.2 1.05 Q-6.75 2.05 -5.75 2.45 -4.75 3.0 -5.15 3.8 L-5.4 3.85 -7.0 2.85 -7.9 1.65 Q-8.35 0.8 -8.15 -0.15 L-8.0 -0.9 -7.5 -1.55 Q-7.1 -1.75 -7.0 -2.2 L-6.95 -2.3" fill="#333333" fill-rule="evenodd" stroke="none"/>
    <path d="M6.5 -2.1 L6.55 -2.35 6.9 -2.5 7.4 -2.05 Q8.15 -1.05 8.2 0.15 8.35 2.6 6.2 3.75 5.1 4.0 5.0 3.2 5.0 2.95 5.3 2.8 L6.0 2.55 7.05 1.7 Q7.65 0.6 7.35 -0.4 7.1 -1.35 6.5 -2.1" fill="#333333" fill-rule="evenodd" stroke="none"/>
    <path d="M6.65 -1.55 L6.65 -1.5 6.7 -1.45 6.7 -1.25 6.65 -1.2 6.6 -1.2 6.5 -1.25 6.1 -1.6 5.85 -2.05 5.75 -2.2 5.75 -2.3 5.7 -2.35 5.7 -2.4 5.65 -2.45 5.65 -2.55 5.7 -2.6 5.7 -2.75 5.8 -2.75 5.85 -2.8 5.9 -2.75 5.95 -2.7 6.0 -2.65 6.0 -2.55 6.05 -2.5 6.05 -2.45 6.1 -2.4 6.1 -2.35 6.3 -2.05 6.5 -1.75 6.65 -1.55" fill="#333333" fill-rule="evenodd" stroke="none"/>
    <path d="M4.9 -2.7 L4.95 -2.65 4.95 -2.6 5.0 -2.35 5.0 -1.95 5.05 -1.65 5.05 -1.55 5.1 -1.5 5.1 -1.45 5.05 -1.4 5.05 -1.35 5.0 -1.35 4.95 -1.3 4.85 -1.35 4.85 -1.4 4.75 -1.5 4.7 -1.6 4.65 -1.6 4.65 -1.75 4.6 -1.8 4.6 -1.85 4.6 -2.1 4.6 -2.35 4.6 -2.65 4.75 -2.8 4.8 -2.8 4.85 -2.75 4.9 -2.7" fill="#333333" fill-rule="evenodd" stroke="none"/>
    <path d="M4.85 -0.1 L5.85 -0.3 6.15 -0.4 6.2 -0.45 6.25 -0.45 6.3 -0.5 6.4 -0.45 6.4 -0.4 6.45 -0.4 6.45 -0.3 6.4 -0.25 6.4 -0.15 6.35 -0.1 5.45 0.25 5.05 0.3 4.9 0.3 4.8 0.3 4.65 0.15 4.65 0.05 4.7 0.0 4.8 -0.05 4.85 -0.1" fill="#333333" fill-rule="evenodd" stroke="none"/>
    <path d="M6.55 0.75 L6.4 0.8 6.25 0.9 6.25 0.95 5.4 1.2 4.6 1.35 4.45 1.35 4.4 1.35 4.2 1.3 4.1 1.2 4.1 1.1 4.2 1.0 5.35 0.8 6.2 0.6 6.35 0.5 6.65 0.5 6.7 0.55 6.7 0.65 6.65 0.7 6.6 0.7 6.55 0.75" fill="#333333" fill-rule="evenodd" stroke="none"/>
    <path d="M5.85 1.95 L5.8 2.0 5.7 2.0 5.15 2.1 4.15 2.05 4.15 2.0 4.1 1.95 4.1 1.8 4.15 1.8 4.2 1.75 4.25 1.75 4.4 1.7 4.45 1.7 4.65 1.7 5.15 1.7 5.6 1.75 5.8 1.85 5.85 1.85 5.85 1.95" fill="#333333" fill-rule="evenodd" stroke="none"/>
  </g>
</svg>
