<?xml version="1.0" encoding="UTF-8" standalone="no"?>
<svg xmlns:xlink="http://www.w3.org/1999/xlink" height="21.85px" width="30.9px" xmlns="http://www.w3.org/2000/svg">
  <g transform="matrix(1.0, 0.0, 0.0, 1.0, 15.65, 11.05)">
    <path d="M4.0 -10.3 L10.8 -10.35 11.2 -10.25 11.5 -10.1 11.65 -9.95 11.75 -9.8 11.85 -9.65 11.9 -9.5 11.95 -9.35 11.95 -9.2 11.95 -9.05 11.95 -8.9 11.95 -8.75 11.95 -8.6 11.95 -8.45 11.95 -8.3 11.9 -8.15 11.85 -8.0 11.8 -7.85 11.7 -7.7 11.65 -7.55 11.55 -7.4 11.5 -7.25 11.4 -7.1 11.35 -6.95 11.2 -6.8 11.25 -6.65 11.4 -6.5 11.55 -6.35 11.7 -6.2 11.8 -6.05 11.85 -5.9 12.0 -5.75 12.15 -5.6 12.25 -5.45 12.3 -5.3 12.4 -5.15 12.45 -5.0 12.65 -4.7 12.7 -4.55 12.8 -4.4 12.85 -4.25 12.95 -4.1 13.0 -3.95 13.05 -3.8 13.15 -3.65 13.2 -3.5 13.25 -3.35 13.25 -3.2 13.35 -3.05 13.4 -2.9 13.45 -2.75 13.45 -2.6 13.45 -2.45 13.5 -2.3 13.6 -2.15 13.6 -2.0 13.65 -1.85 13.7 -1.7 13.8 -1.55 13.8 -1.4 13.85 -1.25 13.85 -1.1 13.85 -0.95 13.85 -0.8 13.85 -0.65 13.85 -0.5 13.85 -0.35 13.85 -0.2 13.85 -0.05 13.85 0.1 13.85 0.4 13.9 0.55 14.05 0.7 14.2 0.85 14.25 1.0 14.35 1.15 14.4 1.3 14.45 1.45 14.45 1.6 14.45 1.75 14.55 1.9 14.6 2.05 14.7 2.2 14.75 2.35 14.85 2.5 14.9 2.65 14.95 2.8 15.0 2.95 15.05 3.1 15.05 3.25 15.05 3.4 15.15 3.55 15.2 3.7 15.25 3.85 15.25 4.0 15.25 4.15 15.25 4.45 15.25 4.75 15.25 4.9 15.25 5.05 15.25 5.2 15.25 5.35 15.25 5.8 15.25 5.95 15.25 6.55 15.2 6.7 15.15 6.85 15.05 7.0 15.05 7.15 15.05 7.3 15.0 7.45 15.0 7.6 15.05 7.75 15.05 7.9 15.0 8.05 14.95 8.2 14.9 8.35 14.8 8.5 14.7 8.65 14.55 8.8 14.4 8.95 14.15 9.1 13.9 9.25 13.75 9.4 13.6 9.55 13.35 9.7 13.1 9.8 12.8 9.85 12.6 9.9 12.3 9.95 9.8 10.15 9.55 10.3 9.3 10.4 4.65 10.5 4.3 10.55 0.1 10.7 -0.6 10.8 -10.5 10.75 -10.8 10.7 -11.6 10.65 -11.9 10.6 -12.2 10.5 -13.0 10.3 -13.5 10.15 -13.6 10.1 -14.0 10.05 -14.6 9.9 -14.8 9.75 -14.95 9.6 -15.1 9.45 -15.25 9.3 -15.4 9.15 -15.5 9.0 -15.6 8.85 -15.6 8.7 -15.65 8.55 -15.65 8.25 -15.65 7.95 -15.65 7.65 -15.65 7.35 -15.65 7.2 -15.65 6.75 -15.65 6.6 -15.65 5.85 -15.6 5.4 -15.55 5.25 -15.45 5.1 -15.45 4.95 -15.45 4.8 -15.45 4.65 -15.45 4.5 -15.45 4.35 -15.45 4.2 -15.45 4.05 -15.45 3.9 -15.45 3.75 -15.45 3.6 -15.45 3.45 -15.4 3.15 -15.3 3.0 -15.25 2.85 -15.25 2.7 -15.25 2.55 -15.2 2.4 -15.15 2.25 -15.05 2.1 -15.0 1.95 -14.9 1.8 -14.85 1.65 -14.75 1.5 -14.7 1.35 -14.55 1.2 -14.45 1.05 -14.35 0.9 -14.3 0.75 -14.25 0.6 -14.25 0.45 -14.25 0.15 -14.25 -0.15 -14.25 -0.45 -14.25 -0.75 -14.25 -0.9 -14.25 -1.35 -14.25 -1.5 -14.25 -2.1 -14.25 -2.4 -14.2 -2.55 -14.15 -2.7 -14.1 -2.85 -14.05 -3.0 -14.0 -3.15 -13.95 -3.3 -13.9 -3.45 -13.8 -3.6 -13.75 -3.75 -13.65 -3.9 -13.65 -4.05 -13.65 -4.2 -13.6 -4.35 -13.55 -4.5 -13.5 -4.65 -13.4 -4.8 -13.35 -4.95 -13.25 -5.1 -13.25 -5.25 -13.2 -5.4 -13.15 -5.55 -13.05 -5.7 -12.9 -5.85 -12.75 -6.0 -12.6 -6.15 -12.45 -6.3 -12.3 -6.45 -12.15 -6.6 -11.95 -6.75 -12.1 -6.9 -12.3 -7.05 -12.4 -7.2 -12.5 -7.35 -12.5 -7.5 -12.55 -7.65 -12.55 -7.8 -12.55 -7.95 -12.55 -8.1 -12.55 -8.25 -12.55 -8.4 -12.55 -8.55 -12.55 -8.7 -12.55 -8.85 -12.5 -9.0 -12.45 -9.15 -12.3 -9.3 -12.2 -9.45 -12.1 -9.6 -12.05 -9.75 -11.9 -9.9 -11.8 -10.05 -11.65 -10.2 -11.5 -10.35 -11.3 -10.5 -11.05 -10.65 -10.6 -10.75 -9.45 -10.85 -9.0 -10.95 -7.6 -11.0 -5.35 -10.85 -3.2 -10.5 -1.6 -10.25 3.3 -10.2 4.0 -10.3" fill="#b0cedc" fill-rule="evenodd" stroke="none"/>
  </g>
</svg>
