<?xml version="1.0" encoding="UTF-8" standalone="no"?>
<svg xmlns:xlink="http://www.w3.org/1999/xlink" height="23.6px" width="32.0px" xmlns="http://www.w3.org/2000/svg">
  <g transform="matrix(1.0, 0.0, 0.0, 1.0, 16.0, 11.5)">
    <path d="M3.4 -10.0 L10.7 -10.6 11.2 -10.7 12.0 -10.55 12.7 -10.4 13.0 -10.1 13.2 -9.8 13.3 -9.5 13.35 -9.2 13.3 -8.9 13.2 -8.6 13.3 -8.3 13.3 -8.0 13.25 -7.7 13.1 -7.4 13.0 -7.1 12.8 -6.8 12.4 -6.5 11.6 -6.3 3.2 -6.3 2.4 -6.5 2.0 -6.8 1.75 -7.1 1.6 -7.4 1.5 -7.7 1.5 -8.0 1.5 -8.3 1.6 -8.6 1.75 -8.9 2.0 -9.15 3.0 -9.8 3.4 -10.0" fill="#663366" fill-opacity="0.101960786" fill-rule="evenodd" stroke="none"/>
    <path d="M2.0 -2.5 L2.3 -2.8 2.6 -3.1 3.2 -3.6 3.4 -3.65 7.5 -4.45 8.4 -4.6 12.0 -4.6 12.8 -4.4 13.2 -4.1 13.5 -3.8 13.6 -3.5 13.7 -3.2 13.8 -2.9 13.8 -2.6 13.7 -2.3 13.7 -2.0 13.7 -1.7 13.5 -1.4 13.35 -1.1 13.05 -0.45 12.4 0.4 12.1 0.7 11.6 0.95 Q9.2 1.95 6.6 1.7 L6.3 2.0 5.6 2.3 5.2 2.5 5.0 2.6 4.6 2.7 Q2.85 3.0 1.15 2.65 L-1.3 2.2 -1.7 1.9 -2.0 1.6 -2.2 1.3 -2.3 1.0 -2.4 0.7 -2.4 0.4 -2.4 0.1 -2.4 -0.2 -2.4 -0.5 -2.3 -0.8 -2.1 -1.1 -1.8 -1.4 -1.5 -1.7 -1.0 -1.9 -0.4 -2.0 1.8 -2.2 2.0 -2.5" fill="#663366" fill-opacity="0.101960786" fill-rule="evenodd" stroke="none"/>
    <path d="M15.3 5.9 L15.4 6.2 15.4 6.5 15.4 6.8 15.4 7.1 15.4 7.4 15.3 7.7 15.2 8.0 15.1 8.3 14.9 8.6 14.6 8.9 14.1 9.2 13.6 9.5 12.6 10.0 11.8 10.2 11.4 10.4 5.2 10.75 -0.5 10.0 -1.0 9.7 -1.3 9.4 -1.5 9.1 -1.7 8.8 -1.8 8.5 -1.8 8.2 -1.9 7.9 -1.9 7.6 -1.9 7.3 -1.8 7.0 -1.8 6.7 -1.6 6.4 -1.4 6.1 -1.0 5.8 -0.5 5.5 0.4 5.3 2.0 4.9 2.9 4.7 3.2 4.4 3.8 4.15 5.8 3.2 6.7 2.6 7.6 2.45 7.6 2.4 10.0 2.4 10.8 2.6 11.2 2.8 11.3 2.9 12.0 3.1 12.5 3.4 12.8 3.7 13.1 4.0 13.3 4.15 14.0 4.45 14.6 4.7 14.9 5.0 15.1 5.3 15.2 5.6 15.3 5.9" fill="#663366" fill-opacity="0.101960786" fill-rule="evenodd" stroke="none"/>
    <path d="M8.8 -9.7 L9.3 -9.4 9.5 -9.1 9.7 -8.8 9.8 -8.5 9.9 -8.2 9.9 -7.9 9.9 -7.6 9.9 -7.3 9.8 -7.0 9.6 -6.7 9.4 -6.4 9.1 -6.1 8.7 -5.8 8.4 -5.6 7.6 -5.5 2.8 -5.4 -0.8 -5.8 -1.4 -5.85 -2.0 -5.9 -2.2 -5.8 -2.8 -5.7 -3.2 -5.7 -4.0 -5.9 -4.5 -6.2 -4.8 -6.5 -5.0 -6.8 -5.1 -7.1 -5.1 -7.4 -5.1 -7.7 -5.1 -8.0 -5.0 -8.3 -4.8 -8.6 -4.6 -8.9 -4.2 -9.2 -3.7 -9.5 -3.3 -9.8 -2.4 -9.95 -2.4 -10.0 1.6 -10.0 8.0 -9.9 8.8 -9.7" fill="#663366" fill-opacity="0.101960786" fill-rule="evenodd" stroke="none"/>
    <path d="M8.4 -4.4 L9.2 -4.2 9.7 -3.9 10.0 -3.6 10.1 -3.3 10.3 -3.0 10.4 -2.7 10.4 -2.4 10.4 -1.8 10.35 -0.9 10.3 -0.3 10.2 0.0 10.0 0.3 9.8 0.6 9.4 0.9 9.0 1.1 8.4 1.15 7.2 1.2 6.0 1.3 5.7 1.6 5.2 1.9 4.6 2.2 4.2 2.4 3.4 2.6 3.0 2.8 2.4 2.85 -0.4 2.9 -1.3 2.7 -1.6 2.5 -1.8 2.5 -2.4 2.55 -3.2 2.6 -4.1 2.4 -4.7 2.1 -5.3 1.8 -5.6 1.5 -5.9 1.2 -6.0 0.9 -6.1 0.6 -6.2 0.3 -6.2 0.0 -6.2 -0.3 -6.2 -0.6 -6.2 -1.2 -6.2 -1.8 -6.2 -2.1 -6.1 -2.4 -5.9 -2.7 -5.7 -3.0 -5.4 -3.3 -4.9 -3.6 -4.0 -3.75 -0.1 -4.0 0.3 -4.2 0.6 -4.25 1.2 -4.35 1.2 -4.4 8.4 -4.4" fill="#663366" fill-opacity="0.101960786" fill-rule="evenodd" stroke="none"/>
    <path d="M10.4 5.1 L10.5 5.4 10.7 5.7 10.75 6.0 10.9 6.3 11.1 6.6 11.3 6.9 11.4 7.2 11.5 7.5 11.6 7.8 11.6 8.1 11.6 8.4 11.6 8.7 11.5 9.0 11.4 9.3 11.2 9.6 11.1 9.9 10.9 10.2 10.6 10.5 10.0 10.8 9.2 11.0 8.6 10.9 8.0 10.7 7.4 10.7 6.5 11.0 5.6 11.2 2.0 11.2 -6.4 11.2 -7.3 11.0 -7.9 10.7 -8.2 10.4 -8.4 10.1 -8.6 9.8 -8.7 9.5 -8.8 9.2 -8.8 8.9 -8.8 8.6 -8.8 8.3 -8.8 8.0 -8.8 7.7 -8.8 7.4 -8.7 6.8 -8.55 6.5 -7.5 5.3 Q-5.75 3.8 -3.45 3.5 L-0.6 3.0 0.0 2.95 0.0 2.9 4.8 2.9 5.6 3.1 6.4 3.3 7.2 3.5 7.8 3.8 8.4 4.0 9.3 4.2 9.8 4.5 10.2 4.8 10.4 5.1" fill="#663366" fill-opacity="0.101960786" fill-rule="evenodd" stroke="none"/>
    <path d="M4.1 -10.8 L4.4 -10.5 4.6 -10.2 5.05 -9.6 5.4 -9.0 5.4 -8.7 5.4 -8.4 5.3 -8.1 5.2 -7.8 5.0 -7.5 4.7 -7.2 4.1 -7.0 4.05 -6.95 4.8 -6.7 5.2 -6.4 5.5 -6.1 5.7 -5.8 6.0 -5.2 6.1 -4.9 6.1 -4.6 6.1 -4.3 6.3 -4.0 6.6 -3.7 6.8 -3.4 6.9 -3.1 7.0 -2.8 7.1 -2.5 7.1 -2.2 7.1 -1.9 7.1 -1.3 7.1 -0.7 7.1 -0.1 7.0 0.2 6.8 0.5 6.6 0.8 6.0 1.3 5.8 1.4 5.25 1.7 5.2 1.9 5.2 2.1 5.2 2.15 6.0 2.3 6.8 2.5 7.3 2.8 7.6 3.1 7.8 3.4 7.9 3.7 8.0 4.0 8.1 4.3 8.1 4.6 8.1 4.9 8.1 5.2 8.05 5.8 8.0 6.1 7.9 6.4 7.7 6.7 7.5 7.0 7.55 7.25 7.8 7.6 8.0 7.9 8.2 8.2 8.3 8.5 8.3 8.8 8.3 9.1 8.2 9.4 8.0 9.7 7.9 10.0 7.7 10.3 7.5 10.6 7.3 10.9 6.9 11.2 6.4 11.5 5.4 12.0 4.8 12.1 4.4 12.1 3.5 11.9 3.0 11.6 2.7 11.3 2.5 11.0 2.4 10.7 2.3 10.4 2.3 10.1 2.3 9.8 2.3 9.5 2.15 9.25 1.7 8.9 1.4 8.6 0.9 8.3 0.3 8.0 -0.3 7.7 -0.6 7.4 -0.9 7.1 -1.1 6.8 -1.15 6.5 -1.2 5.6 -1.2 4.4 -1.2 3.2 -1.2 2.9 -1.2 2.75 Q-1.55 2.5 -2.0 2.4 L-2.9 2.2 -3.3 1.9 -3.6 1.6 -3.8 1.3 -3.9 1.0 -4.0 0.7 -4.0 0.4 -4.0 -0.2 -3.95 -0.8 -3.9 -1.1 -3.8 -1.4 -3.6 -1.7 -3.5 -2.0 -3.3 -2.3 -3.2 -2.6 -3.15 -2.9 -2.85 -3.45 -2.3 -4.1 -1.8 -5.0 -1.5 -5.3 -1.2 -5.6 -0.9 -5.8 -0.6 -5.9 0.0 -6.1 0.05 -6.4 0.1 -7.0 0.1 -7.6 0.0 -8.2 0.0 -8.5 0.0 -8.8 0.1 -9.1 0.1 -9.4 0.1 -9.7 0.15 -10.0 0.3 -10.3 0.7 -10.6 1.0 -10.8 1.2 -10.85 1.6 -10.95 1.6 -11.0 3.6 -11.0 4.1 -10.8" fill="#663366" fill-opacity="0.101960786" fill-rule="evenodd" stroke="none"/>
    <path d="M10.1 -8.0 L10.3 -8.1 10.6 -8.15 11.8 -8.15 11.8 -8.2 12.4 -8.2 12.8 -8.1 Q12.95 -8.0 13.05 -7.95 L13.2 -7.8 13.25 -7.65 13.35 -7.5 13.4 -7.35 13.4 -7.2 13.4 -7.05 13.35 -6.9 13.25 -6.75 13.2 -6.6 13.05 -6.45 12.8 -6.3 12.4 -6.2 11.8 -6.2 10.4 -6.05 6.2 -5.7 -12.75 -6.75 -12.85 -6.9 -12.95 -7.05 -12.95 -7.2 -12.95 -7.35 -12.85 -7.5 -12.75 -7.65 Q-8.6 -7.95 -4.4 -7.65 L1.2 -7.4 10.1 -8.0" fill="#663366" fill-opacity="0.101960786" fill-rule="evenodd" stroke="none"/>
    <path d="M9.8 -0.9 L12.65 -1.4 12.9 -1.5 13.2 -1.5 13.2 -1.55 13.6 -1.45 13.9 -1.3 14.05 -1.15 14.15 -1.0 14.25 -0.85 14.3 -0.7 14.35 -0.55 14.35 -0.4 14.35 -0.25 14.3 -0.1 14.25 0.05 14.15 0.2 14.05 0.35 13.95 0.5 13.75 0.65 13.55 0.8 13.3 0.9 12.95 1.0 12.7 1.1 8.6 1.75 4.8 1.9 -3.6 1.85 -11.4 0.9 -13.15 0.5 -13.6 0.6 -14.0 0.5 -14.2 0.35 -14.3 0.2 -14.35 0.05 -14.4 -0.1 -14.4 -0.25 -14.4 -0.4 -14.35 -0.55 -14.25 -0.7 -14.1 -0.85 -13.75 -1.0 -13.4 -1.15 -13.0 -1.25 Q-2.05 0.5 9.0 -0.8 L9.8 -0.9" fill="#663366" fill-opacity="0.101960786" fill-rule="evenodd" stroke="none"/>
    <path d="M14.3 7.0 L14.4 7.15 14.45 7.3 14.55 7.45 14.55 7.6 14.6 7.75 14.6 7.9 14.55 8.05 14.5 8.2 14.45 8.35 Q12.6 10.1 9.8 10.1 L7.2 10.2 3.2 10.75 -7.3 10.45 -13.85 10.1 -14.15 9.95 -14.3 9.8 -14.4 9.65 -14.5 9.5 -14.55 9.35 -14.75 9.25 -14.9 9.1 -14.9 8.95 -14.85 8.8 -14.85 8.65 -14.75 8.5 -14.6 8.35 -14.35 8.2 -14.15 8.05 -13.85 7.9 -13.4 7.8 -12.2 7.8 -11.75 7.9 6.7 7.75 12.4 6.8 13.2 6.6 13.4 6.6 13.85 6.7 14.1 6.85 14.3 7.0" fill="#663366" fill-opacity="0.101960786" fill-rule="evenodd" stroke="none"/>
    <path d="M-10.25 -11.3 L-10.0 -11.3 -10.0 -11.35 -9.75 -11.3 -9.6 -11.25 -9.2 -11.2 -8.95 -11.1 -8.8 -10.95 -8.75 -10.8 -8.8 -10.65 -8.95 -10.5 -9.2 -10.4 -9.7 -10.3 -9.8 -10.15 -10.0 -10.0 -10.2 -9.85 -10.35 -9.75 -10.6 -9.65 -10.75 -9.5 -10.85 -9.35 -10.9 -9.2 -10.9 -9.05 -10.9 -8.9 -10.85 -8.75 -10.85 -8.6 -10.8 -8.45 -10.7 -8.3 -10.65 -8.15 -10.6 -8.0 -10.55 -7.85 -10.55 -7.7 -10.55 -7.55 -10.5 -7.4 -10.4 -7.25 -10.35 -7.1 -10.3 -6.95 -10.3 -6.8 -10.3 -6.65 -10.2 -6.5 -10.2 -6.35 -10.15 -6.2 -10.1 -6.05 -10.05 -5.9 -10.05 -5.45 -10.05 -4.85 -10.0 -4.55 -10.0 -4.1 -10.0 -3.5 -10.05 -3.35 -10.1 -3.2 -10.15 -3.05 -10.25 -2.9 -10.35 -2.75 -10.5 -2.6 -10.65 -2.45 -10.8 -2.3 -11.05 -2.15 -11.15 -2.0 -11.2 -1.85 -11.25 -1.7 -11.25 -1.55 -11.3 -1.4 -11.35 -1.25 -11.35 -1.1 -11.35 -0.95 -11.35 -0.8 -11.35 -0.65 -11.4 -0.5 -11.45 -0.35 -11.55 -0.2 -11.55 0.1 -11.55 0.25 -11.55 0.55 -11.6 1.0 -11.6 1.15 -11.7 1.3 -11.75 1.6 -11.75 1.75 -11.75 1.9 -11.75 2.2 -11.8 2.35 -11.85 2.5 -11.95 2.65 -11.95 2.8 -11.95 2.95 -12.0 3.1 -12.05 3.25 -12.15 3.4 -12.15 3.55 -12.15 3.7 -12.15 3.85 -12.15 4.0 -12.15 4.15 -12.2 4.3 -12.25 4.45 -12.35 4.6 -12.35 4.75 -12.35 4.9 -12.4 5.05 -12.45 5.2 -12.5 5.35 -12.6 5.5 -12.65 5.65 -12.75 5.8 -12.75 5.95 -12.8 6.1 -12.85 6.25 -12.95 6.4 -12.95 6.7 -12.95 6.85 -12.95 7.0 -12.95 7.3 -12.95 7.45 -12.95 7.6 -12.85 7.75 -12.75 7.9 -12.7 8.05 -12.65 8.2 -12.55 8.35 -12.45 8.65 -12.45 8.8 -12.4 8.95 -12.3 9.25 -12.3 9.4 -12.3 9.55 -12.35 9.7 -12.4 9.85 -12.45 10.0 -12.55 10.15 -12.65 10.3 -12.85 10.45 -13.0 10.55 -13.1 10.6 -13.3 10.65 -13.6 10.7 -13.9 10.65 -14.2 10.55 -14.45 10.4 -14.6 10.25 -14.75 10.1 -14.85 9.95 -15.0 9.8 -15.05 9.65 -15.1 9.5 -15.1 9.35 -15.1 9.2 -15.2 9.05 -15.25 8.9 -15.35 8.75 -15.4 8.6 -15.45 8.0 -15.45 7.25 -15.45 6.65 -15.45 5.75 -15.4 5.6 -15.35 5.45 -15.25 5.3 -15.25 5.15 -15.2 5.0 -15.15 4.85 -15.05 4.7 -15.0 4.55 -14.9 4.4 -14.85 4.25 -14.85 4.1 -14.85 3.95 -14.8 3.8 -14.75 3.65 -14.65 3.5 -14.65 3.35 -14.65 3.2 -14.65 3.05 -14.65 2.9 -14.65 2.75 -14.6 2.6 -14.55 2.45 -14.45 2.3 -14.45 2.15 -14.4 2.0 -14.35 1.85 -14.25 1.7 -14.25 1.55 -14.25 1.4 -14.25 1.25 -14.25 1.1 -14.25 0.95 -14.25 0.8 -14.2 0.65 -14.15 0.5 -14.1 0.35 -14.05 0.2 -14.05 -0.25 -14.05 -0.85 -14.05 -1.15 -14.05 -1.45 -14.0 -1.9 -14.0 -2.05 -13.9 -2.2 -13.85 -2.35 -13.85 -2.5 -13.85 -2.65 -13.85 -2.8 -13.8 -2.95 -13.75 -3.1 -13.7 -3.25 -13.65 -3.4 -13.65 -3.7 -13.65 -3.85 -13.65 -4.0 -13.65 -4.3 -13.6 -4.6 -13.55 -4.75 -13.45 -4.9 -13.3 -5.05 -13.15 -5.2 -13.0 -5.3 -12.9 -5.35 -12.7 -5.4 -12.4 -5.55 -12.35 -5.6 -12.35 -5.75 -12.4 -5.9 -12.45 -6.05 -12.5 -6.2 -12.5 -6.35 -12.6 -6.5 -12.65 -6.65 -12.7 -6.8 -12.7 -6.95 -12.7 -7.1 -12.7 -7.25 -12.7 -7.4 -12.75 -7.55 -12.8 -7.7 -12.85 -7.85 -12.85 -8.0 -12.85 -8.15 -12.85 -8.3 -12.85 -8.45 -12.8 -8.6 -12.75 -8.75 -12.7 -8.9 -12.7 -9.05 -12.7 -9.2 -12.7 -9.35 -12.65 -9.5 -12.65 -9.65 -12.65 -9.8 -12.5 -10.1 -12.2 -10.4 -11.7 -10.85 -11.4 -11.1 -11.3 -11.15 -11.0 -11.2 -10.75 -11.2 -10.65 -11.25 -10.4 -11.3 -10.25 -11.3" fill="#ffffff" fill-opacity="0.2" fill-rule="evenodd" stroke="none"/>
    <path d="M0.25 -10.15 L0.35 -10.0 0.4 -9.85 0.4 -9.7 0.3 -9.55 0.25 -9.4 0.15 -9.3 0.05 -9.25 -0.2 -9.2 -0.95 -9.1 -1.1 -9.0 -9.0 -8.8 -9.1 -8.75 -9.4 -8.7 -10.3 -8.6 -10.5 -8.5 -10.8 -8.45 -11.2 -8.55 -11.45 -8.7 -11.6 -8.85 -11.7 -9.0 -11.75 -9.15 -11.75 -9.3 -11.75 -9.45 -11.75 -9.75 -11.7 -9.9 -11.65 -10.05 -11.55 -10.2 -11.4 -10.35 -11.25 -10.5 -11.0 -10.65 -10.55 -10.8 -10.3 -10.95 -10.0 -11.1 -9.6 -11.15 -9.6 -11.2 -8.8 -11.2 -8.45 -11.1 -8.25 -10.95 -8.15 -10.85 -1.0 -10.55 -0.85 -10.45 -0.2 -10.4 0.1 -10.3 0.25 -10.15" fill="#ffffff" fill-opacity="0.2" fill-rule="evenodd" stroke="none"/>
    <path d="M1.5 -6.85 L2.55 -6.65 2.75 -6.5 2.85 -6.45 3.2 -6.35 3.4 -6.2 3.5 -6.1 3.5 -5.95 3.45 -5.8 3.4 -5.75 3.2 -5.65 2.8 -5.55 2.6 -5.4 2.45 -5.3 -1.2 -4.9 -4.0 -4.65 -7.4 -4.4 -7.55 -4.25 -7.65 -4.15 -7.7 -4.0 -7.8 -3.85 -7.9 -3.7 -8.1 -3.55 -8.4 -3.4 -8.5 -3.25 -8.55 -3.1 -8.65 -2.95 -8.85 -2.8 -9.0 -2.65 -9.15 -2.5 -9.4 -2.35 -9.8 -2.25 -11.6 -2.25 -12.0 -2.35 -12.3 -2.5 -12.6 -2.65 -12.75 -2.8 -12.85 -2.95 -12.95 -3.1 -13.0 -3.25 -13.1 -3.4 -13.15 -3.55 -13.15 -3.7 -13.15 -4.0 -13.15 -4.15 -13.1 -4.3 -13.1 -4.6 -13.1 -4.75 -13.05 -4.9 -13.0 -5.05 -12.85 -5.2 -12.55 -5.5 -12.35 -5.65 -12.2 -5.8 -12.05 -5.9 -11.9 -5.95 -10.05 -6.15 -8.2 -6.4 -6.0 -6.4 -1.2 -7.0 0.0 -6.95 1.5 -6.85" fill="#ffffff" fill-opacity="0.2" fill-rule="evenodd" stroke="none"/>
    <path d="M0.15 1.85 L0.2 2.0 0.15 2.15 0.05 2.3 -0.2 2.4 -0.5 2.45 -0.75 2.55 -0.85 2.7 -1.05 2.85 -1.4 2.95 -2.5 3.05 -2.8 3.1 -10.65 3.25 -10.7 3.4 -10.75 3.55 -10.8 3.7 -10.9 3.85 -11.05 4.0 -11.25 4.15 -11.4 4.25 -11.5 4.3 -11.8 4.35 -12.2 4.35 -13.0 4.3 -13.4 4.2 -13.7 4.05 -13.95 3.9 -14.1 3.75 -14.25 3.6 -14.4 3.45 -14.45 3.3 -14.55 3.15 -14.65 3.0 -14.7 2.85 -14.75 2.7 -14.75 2.55 -14.75 2.4 -14.7 2.25 -14.65 2.1 -14.65 1.95 -14.65 1.8 -14.55 1.65 -14.4 1.5 -14.25 1.4 -13.9 1.3 -13.6 1.15 -13.2 1.1 -13.2 1.05 -12.2 1.05 -11.8 1.15 -2.8 1.3 -2.5 1.35 -1.4 1.45 -1.05 1.55 -0.85 1.65 -0.5 1.65 -0.2 1.6 0.05 1.7 0.15 1.85" fill="#ffffff" fill-opacity="0.2" fill-rule="evenodd" stroke="none"/>
    <path d="M10.75 -11.45 L10.85 -11.35 10.9 -11.25 10.95 -11.15 10.95 -11.1 10.95 -11.0 10.9 -10.9 10.85 -10.8 10.75 -10.75 9.55 -10.65 9.35 -10.6 7.95 -10.5 7.75 -10.45 4.5 -10.4 4.25 -10.35 -3.15 -10.35 -3.4 -10.4 -4.5 -10.5 -4.7 -10.55 -6.0 -10.6 -6.2 -10.65 -10.9 -10.85 -11.05 -10.9 -11.15 -11.0 -11.15 -11.1 -11.15 -11.15 -11.05 -11.25 -10.9 -11.35 -6.15 -11.4 -5.95 -11.35 -4.65 -11.3 -4.45 -11.25 -3.25 -11.15 -3.05 -11.1 4.35 -11.15 4.6 -11.2 7.6 -11.25 7.85 -11.35 9.3 -11.4 9.5 -11.45 10.6 -11.5 10.75 -11.45" fill="#333333" fill-rule="evenodd" stroke="none"/>
    <path d="M-9.7 -11.15 L-9.7 -11.05 -9.75 -10.95 -9.8 -10.85 -9.9 -10.8 -10.0 -10.75 -10.7 -10.75 -10.8 -10.7 -11.0 -10.6 -11.35 -10.45 -11.4 -10.35 -11.45 -10.25 -11.6 -10.1 -11.75 -9.9 -11.85 -9.6 -12.0 -9.05 -12.05 -8.75 -12.05 -8.1 -12.05 -7.25 -12.05 -7.2 -11.95 -7.1 -11.95 -7.0 -11.9 -6.9 -11.9 -6.8 -11.9 -6.7 -11.95 -6.6 -12.05 -6.5 -12.2 -6.35 -12.4 -6.25 -12.65 -6.35 -12.75 -6.4 -12.8 -6.5 -12.9 -6.6 -12.95 -6.7 -12.95 -6.8 -12.95 -7.35 -12.95 -7.55 -12.95 -7.65 -12.95 -8.0 -12.95 -8.6 -12.95 -8.65 -12.9 -8.75 -12.85 -9.15 -12.7 -9.5 -12.7 -9.6 -12.6 -9.9 -12.6 -10.0 -12.55 -10.05 -12.45 -10.3 -12.2 -10.55 -12.1 -10.65 -12.05 -10.75 -12.05 -10.85 -11.95 -10.9 -11.9 -11.0 -11.65 -11.1 -11.2 -11.3 -10.75 -11.4 -10.0 -11.4 -9.85 -11.35 -9.75 -11.25 -9.7 -11.15" fill="#333333" fill-rule="evenodd" stroke="none"/>
    <path d="M11.35 -11.5 L11.55 -11.4 11.7 -11.35 11.8 -11.25 11.9 -11.15 11.95 -11.05 12.0 -10.95 12.0 -10.85 12.05 -10.75 12.1 -10.65 12.45 -10.45 12.85 -10.2 12.95 -10.1 13.0 -10.0 13.05 -9.9 13.1 -9.85 13.1 -9.75 13.2 -9.65 13.2 -9.55 13.2 -9.45 13.2 -9.25 13.2 -9.1 13.2 -8.9 13.15 -8.7 13.1 -8.4 12.95 -8.05 12.9 -7.85 12.85 -7.75 12.85 -7.65 12.8 -7.6 12.8 -7.5 12.75 -7.4 12.7 -7.3 12.65 -7.2 12.6 -7.1 12.5 -7.0 12.35 -6.9 12.3 -6.85 12.1 -6.85 12.0 -6.85 11.75 -6.9 11.6 -7.0 11.55 -7.1 11.55 -7.15 11.5 -7.25 11.5 -7.35 11.5 -7.45 11.55 -7.55 11.6 -7.65 11.6 -7.75 11.65 -7.85 11.7 -7.9 11.75 -8.0 11.8 -8.1 11.8 -8.2 11.75 -8.3 11.7 -8.4 11.65 -8.5 11.65 -8.6 11.6 -8.65 11.6 -8.75 11.6 -8.85 11.55 -8.95 11.55 -9.05 11.5 -9.15 11.5 -9.25 11.45 -9.35 11.4 -9.4 11.35 -9.5 11.35 -9.6 11.3 -9.7 11.25 -9.8 11.2 -9.9 11.05 -10.05 10.55 -10.35 10.35 -10.4 10.3 -10.5 10.0 -10.6 9.85 -10.65 9.7 -10.6 9.6 -10.55 9.25 -10.5 9.15 -10.4 9.0 -10.35 8.85 -10.4 8.8 -10.5 8.8 -10.6 8.8 -10.7 8.9 -10.8 9.0 -10.9 9.05 -11.0 9.15 -11.05 9.25 -11.05 9.6 -11.15 9.7 -11.2 9.85 -11.25 10.3 -11.3 10.4 -11.35 10.45 -11.4 10.6 -11.4 11.35 -11.45 11.35 -11.5" fill="#333333" fill-rule="evenodd" stroke="none"/>
    <path d="M-12.4 -7.1 L-12.25 -7.1 -11.65 -7.1 -8.0 -6.55 -2.75 -6.5 -1.25 -6.5 -1.1 -6.4 0.05 -6.35 0.15 -6.2 0.1 -6.15 0.1 -6.1 -1.1 -6.0 -1.25 -5.9 -10.75 -6.25 -11.1 -6.4 -12.4 -6.6 -12.55 -6.65 -12.65 -6.75 -12.65 -6.85 -12.65 -6.9 -12.55 -7.0 -12.4 -7.1" fill="#333333" fill-rule="evenodd" stroke="none"/>
    <path d="M12.55 -7.55 L12.65 -7.45 12.7 -7.35 12.75 -7.25 12.75 -7.15 12.8 -7.1 12.75 -7.0 12.7 -6.9 12.7 -6.8 12.6 -6.6 12.55 -6.5 12.45 -6.45 12.25 -6.4 11.55 -6.35 11.05 -6.1 10.7 -5.95 7.45 -5.75 2.55 -5.95 1.1 -6.35 1.05 -6.4 1.05 -6.5 1.1 -6.6 2.9 -6.45 7.6 -6.55 10.55 -6.9 10.75 -7.0 10.95 -7.1 11.3 -7.2 11.95 -7.35 12.0 -7.4 12.1 -7.5 12.2 -7.6 12.35 -7.6 12.55 -7.55" fill="#333333" fill-rule="evenodd" stroke="none"/>
    <path d="M-12.95 -5.1 L-13.3 -4.55 -13.3 -4.45 -13.35 -4.25 -13.45 -4.0 -13.55 -3.8 -13.55 -3.7 -13.55 -3.5 -13.6 -3.25 -13.65 -3.05 -13.7 -2.95 -13.75 -2.1 -13.8 -1.25 -13.75 -0.35 -13.75 -0.05 -13.75 0.05 -13.7 0.15 -13.65 0.25 -13.65 0.35 -13.7 0.4 -13.7 0.5 -13.85 0.7 -14.15 1.1 -14.3 1.35 -14.35 1.45 -14.4 1.55 -14.4 1.65 -14.45 1.75 -14.45 1.85 -14.55 1.9 -14.55 2.1 -14.65 2.4 -14.75 2.65 -14.8 2.85 -14.95 4.55 -15.0 6.6 -15.0 8.5 -14.95 8.6 -14.9 8.75 -14.8 9.05 -14.75 9.25 -14.7 9.35 -14.65 9.45 -14.6 9.5 -14.55 9.7 -14.55 9.8 -14.65 9.9 -14.7 10.0 -14.9 10.05 -15.15 10.0 -15.2 9.9 -15.35 9.7 -15.65 9.4 -15.7 9.35 -15.75 9.25 -15.8 9.15 -15.85 8.95 -15.95 8.65 -16.0 8.5 -16.0 6.7 -15.95 4.55 -15.8 2.65 -15.75 2.5 -15.65 2.1 -15.55 1.85 -15.5 1.65 -15.45 1.55 -15.4 1.45 -15.4 1.35 -15.35 1.25 -15.3 1.15 -15.3 1.1 -15.2 0.9 -15.05 0.6 -14.85 0.35 -14.8 0.25 -14.75 -0.7 -14.75 -1.75 -14.65 -2.95 -14.65 -3.15 -14.55 -3.5 -14.4 -4.0 -14.25 -4.45 -14.2 -4.65 -13.85 -5.4 -13.2 -6.25 -12.65 -6.8 -12.4 -6.85 -12.2 -6.8 -12.1 -6.7 -12.05 -6.6 -12.0 -6.5 -12.0 -6.4 -12.05 -6.35 -12.05 -6.25 -12.6 -5.65 -12.95 -5.1" fill="#333333" fill-rule="evenodd" stroke="none"/>
    <path d="M11.8 -6.8 L12.0 -6.85 12.2 -6.8 12.4 -6.85 12.65 -6.8 13.2 -6.25 13.85 -5.4 14.2 -4.65 14.25 -4.45 14.4 -4.0 14.55 -3.5 14.65 -3.15 14.65 -2.95 14.75 -1.75 14.75 -0.7 14.8 0.25 14.85 0.35 15.05 0.6 15.2 0.9 15.3 1.1 15.3 1.15 15.35 1.25 15.4 1.35 15.4 1.45 15.45 1.55 15.5 1.65 15.55 1.85 15.65 2.1 15.75 2.5 15.8 2.65 15.95 4.55 16.0 6.7 16.0 8.5 15.95 8.65 15.85 8.95 15.8 9.15 15.75 9.25 15.7 9.35 15.65 9.4 15.35 9.7 15.2 9.9 15.15 10.0 14.9 10.05 14.7 10.0 14.65 9.9 14.55 9.8 14.45 9.9 14.4 10.0 14.15 10.05 13.95 10.0 13.9 9.9 13.8 9.8 13.8 9.7 13.85 9.5 13.9 9.45 13.95 9.35 14.0 9.25 14.05 9.05 14.15 8.75 14.2 8.6 14.25 8.5 14.3 6.6 14.3 4.55 14.2 2.85 14.15 2.65 14.05 2.4 13.95 2.1 13.95 1.9 13.85 1.85 13.85 1.75 13.8 1.65 13.8 1.55 13.75 1.45 13.7 1.35 13.6 1.1 13.3 0.7 13.15 0.5 13.15 0.4 13.1 0.35 13.1 0.25 13.15 0.15 13.2 0.05 13.2 -0.05 13.2 -0.35 13.3 -1.25 13.25 -2.1 13.2 -2.95 13.15 -3.05 13.1 -3.25 13.05 -3.5 13.1 -3.7 13.1 -3.8 13.0 -4.0 12.9 -4.25 12.85 -4.45 12.85 -4.55 12.5 -5.1 12.15 -5.65 11.65 -6.25 11.65 -6.35 11.6 -6.4 11.6 -6.5 11.65 -6.6 11.7 -6.7 11.8 -6.8" fill="#333333" fill-rule="evenodd" stroke="none"/>
    <path d="M-14.25 -0.1 L-14.1 -0.05 -13.9 -0.05 -13.75 -0.05 -9.15 0.75 -5.45 0.95 -3.95 1.15 -2.75 1.2 -2.6 1.25 -2.55 1.3 -2.35 1.35 -1.5 1.5 -1.9 1.5 -2.6 1.5 -2.65 1.55 -2.75 1.6 -3.95 1.65 -4.05 1.65 -4.15 1.7 -11.7 1.05 -13.0 0.75 -14.4 0.35 -14.5 0.25 -14.5 0.15 -14.5 0.05 -14.4 -0.05 -14.25 -0.1" fill="#333333" fill-rule="evenodd" stroke="none"/>
    <path d="M7.95 1.75 L4.75 1.6 4.6 1.5 4.5 1.4 4.45 1.3 4.45 1.25 4.6 1.15 4.75 1.2 11.55 0.7 14.45 0.05 14.45 0.0 14.55 -0.1 14.6 -0.2 14.85 -0.25 14.85 -0.3 15.0 -0.3 15.2 -0.2 15.25 -0.05 15.35 0.05 15.35 0.1 15.35 0.2 15.3 0.3 15.3 0.4 15.15 0.45 15.05 0.55 15.0 0.65 14.9 0.7 12.75 1.2 11.9 1.35 7.95 1.75" fill="#333333" fill-rule="evenodd" stroke="none"/>
    <path d="M15.45 8.35 L15.55 8.45 15.6 8.55 15.65 8.65 15.7 8.75 15.75 8.8 15.75 8.9 15.8 9.0 15.8 9.1 15.8 9.2 15.75 9.3 15.7 9.4 15.7 9.45 15.6 9.55 15.35 9.75 14.85 10.05 14.8 10.1 14.6 10.15 14.1 10.3 14.05 10.35 13.75 10.4 13.6 10.5 13.5 10.55 12.1 10.75 11.2 10.9 10.05 10.95 9.8 11.0 9.55 11.05 9.3 11.05 9.05 11.05 7.5 11.15 7.4 11.2 5.25 11.35 5.15 11.4 Q-0.85 11.7 -6.85 11.25 L-8.05 11.25 -8.3 11.15 -8.45 11.1 -11.05 11.05 -11.25 10.95 -11.7 10.85 -11.85 10.8 -14.0 10.2 -14.45 10.0 -14.55 9.9 -14.65 9.85 -14.7 9.75 -14.9 9.65 -15.1 9.55 -15.2 9.45 -15.25 9.35 -15.3 9.25 -15.3 9.15 -15.3 9.1 -15.2 9.0 -15.15 8.9 -15.0 8.9 -14.8 8.9 -14.75 8.95 -14.55 9.0 -14.4 9.1 -14.3 9.2 -14.1 9.35 -13.2 9.6 -12.4 9.85 -11.75 9.95 -11.55 10.0 -11.3 10.1 -11.15 10.15 -8.4 10.2 -8.2 10.25 -8.0 10.35 -6.45 10.4 Q-0.75 10.65 5.0 10.4 L5.15 10.3 7.25 10.2 7.4 10.1 12.55 9.55 13.0 9.5 13.1 9.4 13.15 9.4 13.35 9.35 13.5 9.3 13.6 9.2 13.65 9.2 13.85 9.15 14.15 9.1 14.3 9.0 14.4 8.95 14.55 8.9 14.65 8.8 14.7 8.7 14.7 8.6 14.7 8.5 14.8 8.4 14.85 8.35 15.0 8.3 15.1 8.3 15.25 8.3 15.45 8.35" fill="#333333" fill-rule="evenodd" stroke="none"/>
    <path d="M8.55 -9.6 L9.5 -9.75 9.6 -9.8 9.7 -9.75 9.8 -9.7 9.85 -9.65 9.8 -9.65 9.65 -9.6 9.5 -9.55 9.35 -9.45 9.15 -9.35 8.45 -9.25 8.3 -9.35 8.3 -9.4 8.4 -9.5 8.55 -9.6" fill="#333333" fill-rule="evenodd" stroke="none"/>
    <path d="M10.1 -9.1 L10.2 -9.1 10.3 -9.15 10.55 -9.15 10.65 -9.15 10.75 -9.15 10.8 -9.1 10.75 -9.0 10.65 -8.95 10.6 -8.9 10.3 -8.85 10.05 -8.75 9.75 -8.65 9.65 -8.55 9.6 -8.55 9.1 -8.45 8.05 -8.3 8.0 -8.35 8.0 -8.45 8.05 -8.55 8.15 -8.6 8.3 -8.65 9.3 -8.9 9.6 -8.95 9.9 -9.05 10.0 -9.05 10.1 -9.1" fill="#333333" fill-rule="evenodd" stroke="none"/>
    <path d="M9.6 -7.85 L10.05 -7.8 10.15 -7.7 10.35 -7.65 10.35 -7.6 10.25 -7.55 10.0 -7.55 9.6 -7.55 8.5 -7.45 8.3 -7.4 8.0 -7.4 7.85 -7.5 7.7 -7.55 7.7 -7.6 7.8 -7.7 7.9 -7.75 8.0 -7.75 8.4 -7.8 8.5 -7.8 8.6 -7.85 8.7 -7.85 9.2 -7.85 9.6 -7.85" fill="#333333" fill-rule="evenodd" stroke="none"/>
    <path d="M9.95 -2.35 L9.95 -2.4 10.05 -2.5 10.1 -2.55 10.2 -2.55 10.5 -2.6 11.3 -2.6 11.4 -2.55 11.5 -2.5 11.55 -2.45 11.55 -2.4 11.55 -2.3 11.5 -2.25 11.4 -2.2 11.3 -2.2 10.5 -2.2 10.2 -2.2 10.1 -2.3 9.95 -2.35" fill="#333333" fill-rule="evenodd" stroke="none"/>
    <path d="M9.9 -0.9 L9.75 -1.0 9.95 -1.1 10.1 -1.2 10.2 -1.25 10.3 -1.3 10.8 -1.4 11.0 -1.4 11.1 -1.4 11.5 -1.5 11.7 -1.6 12.1 -1.65 12.35 -1.7 12.45 -1.75 12.55 -1.75 12.65 -1.75 12.7 -1.7 12.65 -1.6 12.4 -1.5 12.25 -1.4 12.15 -1.3 11.5 -1.1 10.8 -0.95 10.35 -0.85 10.3 -0.85 10.2 -0.8 9.95 -0.9 9.9 -0.9" fill="#333333" fill-rule="evenodd" stroke="none"/>
    <path d="M9.4 -0.2 L10.1 -0.1 10.25 -0.05 10.45 0.0 10.8 0.0 11.1 0.05 11.7 0.2 11.75 0.25 11.45 0.3 11.1 0.35 10.7 0.4 10.4 0.45 9.7 0.3 9.5 0.3 9.0 0.2 8.9 0.15 8.8 0.05 8.8 -0.05 8.9 -0.15 9.0 -0.2 9.2 -0.2 9.4 -0.2" fill="#333333" fill-rule="evenodd" stroke="none"/>
    <path d="M11.75 2.8 L11.85 2.8 11.95 2.9 11.9 2.95 11.8 3.05 11.6 3.1 11.5 3.15 11.1 3.25 11.0 3.3 10.25 3.2 10.25 3.1 10.25 3.05 10.3 3.0 11.15 2.9 11.3 2.85 11.75 2.8" fill="#333333" fill-rule="evenodd" stroke="none"/>
    <path d="M12.4 3.9 L12.8 3.9 13.1 3.95 13.25 4.0 13.3 4.05 13.3 4.1 13.25 4.2 12.8 4.35 11.75 4.45 11.2 4.6 11.0 4.65 10.6 4.6 10.35 4.6 10.25 4.65 10.15 4.55 10.15 4.5 10.2 4.4 10.35 4.3 10.5 4.25 10.6 4.2 11.1 4.15 11.75 4.0 11.9 4.0 12.15 3.95 12.4 3.9" fill="#333333" fill-rule="evenodd" stroke="none"/>
  </g>
</svg>
