<?xml version="1.0" encoding="UTF-8" standalone="no"?>
<svg xmlns:xlink="http://www.w3.org/1999/xlink" height="408.4px" width="532.9px" xmlns="http://www.w3.org/2000/svg">
  <g transform="matrix(1.0, 0.0, 0.0, 1.0, 264.95, 207.9)">
    <path d="M-264.0 -207.0 L267.0 -207.0 267.0 199.6 -264.0 199.6 -264.0 -207.0" fill="#ffffff" fill-rule="evenodd" stroke="none"/>
    <path d="M169.2 -207.1 L166.95 -207.2 164.95 -207.0 162.8 -206.8 160.85 -206.65 158.95 -206.95 157.05 -207.2 155.25 -207.25 153.0 -207.05 150.9 -206.85 149.05 -207.05 147.0 -207.1 144.75 -207.05 142.75 -207.15 140.9 -207.15 138.9 -207.05 137.05 -207.0 135.2 -207.05 133.35 -207.1 131.0 -207.0 128.6 -207.05 126.7 -207.05 124.9 -206.95 122.8 -206.9 120.8 -206.7 119.0 -207.0 117.0 -206.95 114.75 -207.0 112.75 -207.25 111.0 -207.15 108.85 -207.05 107.1 -207.05 105.2 -207.0 103.0 -207.05 101.0 -206.85 Q100.0 -206.55 98.9 -206.85 L96.9 -207.1 94.95 -207.05 93.1 -207.1 91.15 -207.2 89.0 -207.3 86.95 -207.1 84.9 -206.95 82.95 -207.0 81.2 -207.0 79.05 -207.05 76.9 -207.05 75.05 -207.05 73.1 -206.9 Q72.15 -206.75 71.05 -206.9 L68.8 -207.2 Q67.65 -207.4 67.0 -207.2 L65.15 -206.95 63.1 -206.95 61.25 -206.95 59.25 -206.85 56.9 -206.85 54.75 -207.05 52.85 -206.9 50.95 -206.65 49.1 -206.95 47.15 -207.1 45.05 -206.9 42.85 -206.85 40.85 -206.9 39.1 -206.95 37.15 -207.05 34.8 -206.9 32.8 -206.8 30.85 -206.9 28.8 -207.0 27.05 -207.15 25.05 -207.3 23.0 -207.05 21.1 -207.0 19.1 -207.15 17.05 -207.1 14.9 -207.05 12.8 -207.05 10.9 -207.05 9.0 -207.1 7.0 -207.1 4.95 -207.05 3.0 -207.05 1.0 -207.25 -1.0 -207.15 -2.9 -207.05 -4.95 -207.05 -7.0 -207.0 -9.1 -207.15 -11.3 -207.15 -13.35 -207.0 -15.25 -206.95 -17.1 -207.1 -19.0 -206.95 -20.95 -206.6 -23.0 -206.9 -24.85 -207.2 -26.8 -207.2 -28.9 -207.05 -30.9 -206.95 -32.9 -207.05 -34.85 -207.15 -37.0 -207.0 -39.15 -207.05 -41.15 -207.15 -43.2 -207.0 -45.05 -207.05 -47.0 -207.05 -49.15 -207.0 -51.0 -207.05 -53.0 -207.05 -54.95 -206.75 -57.05 -206.8 -59.1 -207.0 -61.0 -207.05 -63.1 -207.15 -65.05 -207.1 -66.75 -206.85 Q-67.65 -206.65 -69.05 -206.85 L-71.0 -206.9 -72.7 -206.8 -74.85 -206.9 -77.0 -206.9 -78.95 -206.95 -81.1 -206.95 -83.25 -206.95 -85.2 -207.05 -87.35 -207.05 -89.25 -206.95 -91.1 -207.05 Q-92.05 -207.25 -93.25 -207.05 L-95.05 -206.85 -96.85 -206.85 -99.25 -206.9 -101.2 -207.15 -102.85 -207.1 -104.8 -206.95 -107.1 -207.05 -109.3 -207.15 -111.15 -207.15 -113.05 -207.05 -115.1 -207.0 -117.1 -207.1 -119.2 -207.05 -121.25 -206.9 -123.25 -207.05 -124.95 -207.25 -126.65 -207.15 -128.95 -207.0 -131.15 -206.85 -133.1 -207.0 -135.0 -207.2 -137.0 -207.25 -139.1 -207.3 -141.2 -207.1 -143.1 -206.85 -144.95 -207.05 -146.9 -207.1 -149.1 -207.05 -151.1 -207.1 -152.8 -207.05 -154.9 -207.0 -157.15 -207.0 -159.15 -207.05 -161.0 -207.0 -163.0 -207.05 -165.2 -207.1 -167.15 -207.2 -169.0 -207.25 -171.05 -207.1 -173.0 -206.95 -174.8 -206.95 -176.6 -206.85 -178.8 -206.95 -181.0 -207.15 -183.25 -207.05 -185.4 -206.8 -186.95 -206.75 -188.8 -206.8 -191.0 -206.85 -192.95 -207.2 Q-193.85 -207.45 -194.95 -207.2 L-197.0 -207.1 -199.2 -207.1 -201.2 -207.1 -203.05 -207.25 -205.0 -207.1 -206.95 -206.85 -209.0 -207.0 -210.95 -207.35 -212.9 -207.35 -215.25 -207.3 -217.25 -207.4 -219.0 -207.25 -221.25 -207.0 -223.35 -206.95 -225.05 -207.0 -226.85 -207.0 -229.15 -207.15 -231.2 -207.2 -232.9 -207.15 -234.95 -207.15 -237.0 -207.2 -239.0 -207.2 -240.75 -206.9 Q-241.55 -206.65 -242.85 -206.9 L-245.05 -207.05 -246.9 -207.15 -248.8 -207.15 -250.85 -207.1 -253.05 -207.05 -255.35 -206.95 -257.25 -206.95 -258.85 -207.0 -260.8 -207.0 -262.45 -207.0 -264.0 -207.0 -264.2 -204.75 -264.2 -202.95 Q-264.0 -202.25 -264.15 -201.25 L-264.35 -199.55 -264.1 -197.7 Q-263.85 -196.5 -264.1 -195.5 -264.35 -194.45 -264.05 -193.3 -263.75 -192.15 -263.9 -191.4 L-264.05 -189.65 -263.95 -187.8 -263.9 -186.05 -263.95 -184.25 -263.75 -182.3 Q-263.6 -181.3 -263.8 -180.35 L-263.95 -178.4 -263.95 -176.45 -264.05 -174.25 -264.0 -172.35 -263.8 -170.8 Q-263.55 -169.9 -263.9 -168.85 -264.25 -167.75 -264.2 -166.65 L-264.05 -164.6 Q-263.95 -163.65 -264.0 -162.7 L-263.85 -160.95 Q-263.65 -160.1 -264.0 -159.0 -264.35 -157.9 -264.1 -156.95 L-263.85 -155.1 -263.95 -153.3 -264.05 -151.35 -264.05 -149.4 -264.05 -147.6 -264.2 -145.65 Q-264.4 -144.5 -264.05 -143.65 -263.65 -142.7 -264.0 -141.75 -264.35 -140.8 -264.05 -139.95 -263.7 -139.1 -263.9 -138.0 -264.05 -136.95 -263.85 -136.0 -263.6 -135.05 -263.75 -134.1 L-264.2 -132.15 Q-264.5 -131.2 -264.25 -130.15 -263.95 -129.1 -264.0 -128.25 L-264.0 -126.4 -264.1 -124.6 -264.2 -122.45 -264.3 -120.4 -264.25 -118.6 -264.0 -116.6 -263.95 -114.9 -264.0 -113.15 -264.0 -111.0 -264.0 -108.95 -263.95 -107.0 -263.95 -105.1 -264.0 -103.55 -263.9 -101.55 Q-263.85 -100.25 -263.95 -99.6 L-263.9 -97.6 Q-263.7 -96.2 -263.9 -95.7 L-264.05 -94.0 -264.15 -91.75 -264.1 -89.9 -263.75 -88.05 Q-263.55 -87.0 -263.75 -86.1 L-264.0 -84.2 -263.95 -82.4 -263.95 -80.5 -264.0 -78.4 -264.05 -76.3 Q-264.05 -75.35 -264.2 -74.55 L-264.25 -72.65 -264.25 -70.85 -264.15 -69.0 -264.0 -67.15 -264.0 -65.3 Q-264.0 -64.25 -264.15 -63.35 L-264.15 -61.2 -264.1 -59.25 -264.05 -57.4 -263.85 -55.35 Q-263.65 -54.35 -263.9 -53.4 L-264.1 -51.75 -263.85 -49.9 Q-263.7 -48.7 -264.05 -47.95 -264.4 -47.2 -264.35 -45.95 L-264.15 -43.65 -263.9 -41.9 Q-263.8 -41.15 -264.0 -40.25 L-264.05 -38.15 -263.95 -36.25 -263.95 -34.6 -263.85 -32.55 Q-263.75 -31.55 -263.8 -30.4 L-263.95 -28.3 -263.75 -26.55 Q-263.5 -25.7 -264.0 -24.75 -264.45 -23.8 -264.1 -22.85 -263.75 -21.9 -263.85 -21.0 L-263.7 -19.1 Q-263.5 -18.1 -263.75 -17.1 L-264.15 -14.95 -264.15 -13.2 -264.05 -11.4 -264.05 -9.2 -264.0 -7.3 Q-263.95 -6.45 -264.2 -5.3 -264.4 -4.15 -264.15 -3.5 -263.9 -2.85 -263.95 -1.8 L-264.0 0.4 -264.05 2.3 -264.1 4.0 -264.2 6.1 -264.2 7.75 -264.0 9.6 -263.8 11.75 Q-263.65 12.75 -263.85 13.5 L-264.05 15.4 -264.2 17.35 -264.2 19.15 -264.05 21.2 Q-264.0 22.25 -264.25 23.2 -264.45 24.2 -264.25 25.1 L-264.0 26.85 -263.95 28.8 Q-263.85 29.95 -264.1 30.85 -264.35 31.8 -264.15 32.9 -263.95 34.05 -264.05 34.9 L-264.05 36.6 Q-264.0 37.45 -264.2 38.35 L-264.2 40.3 -264.0 42.3 -263.9 44.2 -263.8 46.15 -263.9 48.25 -264.05 50.4 -263.9 52.15 Q-263.7 53.0 -263.85 53.9 L-264.0 55.9 -264.05 57.8 -264.1 59.55 -264.25 61.35 -264.45 63.3 -264.2 65.5 -264.0 67.4 -264.2 69.05 Q-264.4 69.95 -264.2 71.25 -263.95 72.6 -264.05 73.55 L-263.9 75.25 Q-263.7 75.95 -263.95 76.65 -264.2 77.45 -263.9 78.85 -263.6 80.2 -263.6 81.0 L-263.8 82.85 -264.25 84.7 Q-264.5 85.55 -264.2 86.5 -263.85 87.45 -263.9 88.45 L-263.8 90.25 Q-263.65 91.0 -263.95 92.1 -264.25 93.25 -264.15 94.15 L-263.95 96.05 -263.8 98.05 Q-263.7 99.1 -263.95 99.85 L-264.1 101.7 -264.0 103.8 -264.1 105.85 -264.1 107.85 Q-264.0 108.7 -264.05 109.6 L-264.05 111.3 -264.0 113.25 -263.95 115.3 -263.85 117.35 -263.7 119.25 -263.6 121.05 Q-263.55 122.0 -263.8 123.15 L-263.85 125.05 Q-263.65 125.8 -263.9 126.6 L-264.05 128.65 -263.85 130.45 Q-263.7 131.1 -263.8 132.3 L-263.9 134.45 -263.7 136.5 Q-263.5 137.6 -263.75 138.4 L-263.95 140.3 -263.8 142.2 Q-263.7 143.0 -263.95 144.0 -264.2 145.0 -264.05 146.05 -263.85 147.1 -264.0 147.9 L-264.1 149.6 -264.15 151.5 -264.15 153.4 Q-264.0 154.35 -264.0 155.4 -263.95 156.5 -264.25 157.5 L-264.45 159.45 -264.35 161.3 -264.25 163.3 -264.05 165.05 -263.95 166.7 -264.0 168.8 -264.0 170.95 -264.0 172.85 -264.2 174.75 Q-264.35 175.7 -264.15 176.65 L-263.8 178.5 Q-263.6 179.45 -263.65 180.5 L-263.85 182.4 -263.9 184.4 -263.9 186.35 -264.0 188.1 -264.05 190.1 -264.05 192.2 -264.05 194.05 -264.05 195.75 -264.15 197.2 -264.0 199.6 -261.9 199.6 -259.95 199.5 -258.0 199.55 -255.9 199.6 -253.9 199.55 -251.8 199.55 -249.65 199.6 -247.8 199.7 -245.9 199.55 -244.0 199.6 -242.1 199.6 -240.25 199.6 -238.3 199.5 -235.95 199.55 -233.85 199.65 -232.05 199.55 -229.8 199.7 -227.9 199.65 -226.3 199.55 -224.3 199.6 -222.25 199.8 -220.15 199.95 -217.8 199.85 -215.9 199.55 -214.15 199.6 -212.05 199.8 -210.0 199.65 -207.95 199.4 Q-206.95 199.2 -206.0 199.4 L-204.15 199.7 -202.2 199.7 -199.85 199.6 -197.9 199.55 -196.1 199.6 -193.9 199.85 Q-192.75 200.1 -192.0 199.85 L-190.05 199.55 -187.9 199.35 -186.0 199.45 -184.05 199.55 -182.15 199.6 -180.15 199.75 -178.0 199.85 Q-177.0 200.05 -176.2 199.85 L-174.2 199.55 -172.1 199.55 -170.35 199.55 -168.1 199.3 -165.8 199.5 -164.1 199.9 -162.25 199.75 -159.95 199.55 -157.85 199.55 -155.85 199.6 -153.95 199.6 -152.2 199.55 -150.15 199.55 -148.05 199.45 -145.95 199.45 -143.95 199.6 -141.95 199.65 -139.95 199.5 -137.85 199.4 -136.1 199.5 -134.2 199.65 -131.95 199.7 -129.8 199.5 -127.9 199.5 -126.0 199.55 -123.95 199.65 -121.95 199.7 -120.0 199.65 -118.1 199.75 -116.3 199.9 -114.25 199.8 -112.0 199.45 -109.95 199.25 -107.9 199.55 -105.9 199.75 -104.25 199.65 -102.25 199.6 -99.95 199.8 Q-98.9 200.05 -98.15 199.8 L-96.1 199.7 -93.95 199.7 -92.05 199.6 -90.0 199.6 -88.15 199.55 -86.25 199.65 -84.1 199.65 -81.9 199.4 -79.95 199.45 -78.05 199.45 -76.2 199.4 -74.45 199.55 -72.25 199.55 -70.1 199.65 -68.15 199.7 -66.05 199.85 -64.0 199.7 -61.95 199.45 -59.75 199.45 -58.0 199.65 Q-57.4 200.0 -56.15 199.65 L-54.15 199.5 -52.45 199.5 Q-51.4 199.35 -50.4 199.5 L-48.25 199.6 -46.1 199.65 -44.05 199.6 -41.8 199.55 -39.95 199.55 -37.95 199.6 -35.95 199.55 -34.0 199.5 -31.8 199.55 -30.1 199.55 -28.4 199.65 -26.0 199.7 -23.8 199.45 Q-22.9 199.25 -21.95 199.45 L-19.9 199.55 -17.95 199.5 -15.9 199.65 -14.05 199.5 -12.3 199.4 -10.35 199.4 Q-9.4 199.2 -8.2 199.4 L-6.0 199.75 -3.8 199.8 -1.8 199.75 -0.05 199.85 1.9 199.7 3.75 199.55 5.55 199.4 7.7 199.3 10.05 199.55 12.2 199.55 14.3 199.65 16.25 199.8 18.0 199.55 Q19.05 199.3 20.05 199.55 L22.0 199.75 Q23.0 199.6 23.85 199.75 L25.65 199.55 27.8 199.5 29.8 199.75 31.75 199.75 34.15 199.65 36.2 199.5 38.0 199.5 39.85 199.75 41.8 199.9 43.9 199.7 46.1 199.75 48.2 199.75 50.3 199.7 52.25 199.5 54.0 199.6 55.95 199.55 Q56.85 199.15 57.85 199.25 L60.1 199.55 62.05 199.9 63.95 199.8 66.15 199.6 68.05 199.55 70.05 199.5 72.05 199.35 74.0 199.35 75.9 199.55 78.0 199.55 80.1 199.4 81.85 199.35 84.05 199.55 86.1 199.65 87.9 199.7 90.0 199.75 91.9 199.6 93.85 199.4 96.0 199.35 98.15 199.45 100.2 199.5 101.9 199.6 103.65 199.7 106.15 199.65 108.35 199.5 110.2 199.65 112.25 199.9 114.25 199.7 116.3 199.75 118.2 199.8 120.0 199.6 122.05 199.6 123.95 199.55 125.85 199.45 127.7 199.5 129.85 199.75 Q131.1 199.95 132.0 199.75 L133.9 199.55 135.9 199.65 Q137.0 199.85 137.75 199.65 L139.75 199.45 142.15 199.6 144.0 199.7 145.75 199.4 147.9 199.55 Q149.0 199.95 150.2 199.55 L152.1 199.4 153.9 199.7 155.95 199.7 157.8 199.4 159.85 199.5 162.05 199.75 164.05 199.9 165.95 199.75 167.8 199.6 169.85 199.7 172.05 199.6 174.3 199.55 176.1 199.5 178.0 199.7 180.15 199.85 182.15 199.65 183.95 199.8 185.8 199.95 187.95 199.95 190.0 200.0 191.8 199.95 193.9 199.95 195.9 199.8 197.8 199.55 199.9 199.6 201.9 199.4 204.0 199.5 205.95 199.8 208.1 199.6 Q209.3 199.45 210.15 199.6 211.0 199.8 211.9 199.6 L214.0 199.55 216.1 199.6 217.85 199.5 219.85 199.7 222.05 199.85 224.15 199.7 226.3 199.45 228.1 199.35 229.85 199.55 232.05 199.55 233.95 199.6 236.05 199.55 237.95 199.55 239.8 199.65 241.95 199.8 243.95 199.85 246.1 199.75 247.95 199.7 249.85 199.6 251.9 199.7 253.9 199.8 256.0 199.55 257.95 199.4 260.1 199.55 262.15 199.6 264.1 199.45 265.6 199.6 Q266.0 200.05 267.0 199.6 L267.45 197.7 Q267.5 196.8 267.1 195.8 266.75 194.85 267.0 193.8 267.25 192.85 266.85 191.9 266.5 191.0 266.8 189.95 L267.2 188.25 267.2 186.4 266.9 184.25 266.85 182.4 267.05 180.65 267.1 178.6 266.8 176.5 Q266.6 175.45 266.75 174.65 L267.05 173.0 267.1 171.05 267.05 168.9 267.0 166.9 267.1 165.1 267.1 163.2 267.05 161.2 266.95 159.55 Q266.8 158.8 267.0 157.65 L267.05 155.4 267.05 153.35 267.0 151.5 266.9 149.95 266.85 148.0 266.65 145.9 266.7 144.05 Q266.85 143.05 267.15 142.1 267.45 141.1 267.2 140.1 266.95 139.15 267.05 138.25 L267.05 136.25 Q266.9 135.25 267.1 134.2 267.35 133.2 267.1 132.2 L266.95 130.25 Q267.0 129.25 267.25 128.7 267.5 128.1 267.15 126.9 266.85 125.7 266.9 124.55 L267.05 122.5 266.85 120.85 Q266.6 120.05 266.95 119.25 267.35 118.5 267.15 117.35 L266.95 115.2 266.75 113.35 Q266.55 112.45 266.8 111.45 L267.05 109.3 267.0 107.4 267.2 105.4 Q267.4 104.25 267.2 103.5 L267.0 102.1 267.25 100.1 267.3 97.85 266.95 95.95 266.85 94.25 266.9 92.25 Q266.85 91.1 266.95 90.2 L267.15 88.4 267.3 86.3 267.1 84.35 Q266.85 83.55 266.95 82.6 L267.05 80.75 266.95 79.0 267.1 76.9 267.2 74.8 267.1 73.15 267.2 71.45 267.3 69.35 267.2 67.4 Q267.0 66.65 267.15 65.55 L267.25 63.5 266.95 61.7 Q266.75 60.9 267.1 59.85 267.5 58.8 267.15 57.65 266.8 56.55 267.0 55.4 L267.1 53.8 267.0 52.3 267.15 50.15 267.3 48.15 267.2 46.45 267.05 44.6 267.0 42.6 267.05 40.55 Q267.15 39.4 266.85 38.35 266.55 37.35 266.65 36.6 L266.85 34.75 Q267.0 33.7 266.8 32.75 266.6 31.85 266.8 30.7 L266.85 28.6 266.75 26.95 Q266.75 26.1 266.9 25.2 267.1 24.35 266.95 23.3 L266.7 21.25 266.7 19.3 266.85 17.4 266.95 15.35 266.75 13.4 Q266.6 12.6 266.9 11.7 267.25 10.8 267.15 9.75 L267.05 8.0 266.9 6.05 267.0 3.85 267.05 1.9 266.9 0.2 267.0 -1.8 267.3 -3.55 267.25 -5.5 267.0 -7.6 267.1 -9.75 Q267.3 -10.9 267.0 -11.55 266.75 -12.2 266.75 -13.25 L266.85 -15.2 266.75 -17.15 Q266.65 -18.1 266.85 -19.15 L267.1 -21.3 267.05 -23.2 266.9 -24.9 266.95 -26.55 267.2 -28.45 Q267.45 -29.55 267.2 -30.45 L266.9 -32.45 266.9 -34.3 267.05 -36.1 267.1 -38.4 266.85 -40.3 Q266.7 -41.0 267.0 -41.95 267.3 -42.9 267.1 -44.1 L267.05 -46.05 266.9 -47.95 Q266.65 -49.0 266.8 -49.8 L267.1 -51.55 266.95 -53.55 Q266.7 -54.55 266.75 -55.5 L267.05 -57.5 267.25 -59.4 266.95 -61.15 Q266.7 -62.05 266.95 -63.05 L267.25 -65.0 267.3 -66.8 267.15 -68.8 Q267.0 -69.9 267.2 -70.9 267.4 -71.9 267.2 -72.8 L267.0 -74.65 267.15 -76.75 267.15 -78.9 266.95 -80.65 266.95 -82.35 266.95 -84.25 266.8 -86.15 Q266.7 -87.0 266.75 -88.05 L266.95 -89.85 266.95 -91.95 266.7 -94.1 266.75 -95.95 266.95 -98.1 266.95 -99.8 266.95 -101.55 267.05 -103.5 267.25 -105.15 267.2 -107.1 267.0 -109.05 267.1 -111.0 267.0 -112.9 266.7 -115.0 Q266.5 -116.25 266.75 -117.1 L266.9 -118.9 266.95 -120.7 267.1 -122.65 267.05 -124.55 266.95 -126.3 266.85 -128.4 266.8 -130.55 266.85 -132.35 267.1 -134.25 267.45 -136.0 267.35 -138.15 267.25 -140.15 267.3 -141.6 267.15 -143.35 266.85 -145.45 Q266.7 -146.6 266.9 -147.55 L267.15 -149.65 267.15 -151.8 267.15 -153.7 267.25 -155.15 266.95 -156.95 Q266.6 -158.15 266.8 -159.05 L267.2 -160.9 267.15 -162.75 267.05 -164.7 267.05 -166.55 267.0 -168.5 267.0 -170.5 266.95 -172.45 267.1 -174.55 267.25 -176.5 267.1 -178.3 267.1 -180.05 267.25 -181.85 267.0 -183.95 Q266.7 -184.95 266.85 -185.9 267.05 -186.8 266.85 -187.9 266.65 -188.95 266.8 -189.9 L266.95 -191.8 267.1 -193.65 267.1 -195.4 266.9 -197.4 266.95 -199.3 266.75 -201.2 Q266.55 -202.25 266.9 -203.2 267.25 -204.15 267.05 -204.65 266.85 -205.1 267.0 -207.0 L264.85 -207.05 262.8 -207.15 260.95 -207.0 259.0 -206.7 257.05 -206.9 255.2 -207.0 253.1 -206.85 250.9 -206.85 248.85 -207.05 247.05 -207.15 245.1 -207.05 243.0 -206.95 241.05 -207.0 238.85 -207.05 236.8 -207.1 234.9 -207.1 233.15 -207.05 231.15 -207.0 228.7 -207.0 226.8 -206.9 225.0 -206.75 222.7 -206.7 Q221.55 -206.7 220.75 -207.05 220.0 -207.35 218.85 -207.05 L217.0 -206.9 215.15 -207.0 212.95 -207.0 210.95 -207.0 208.9 -207.0 207.1 -206.9 Q206.45 -206.75 205.15 -206.9 L203.0 -207.2 201.2 -207.1 199.35 -206.85 197.25 -206.8 195.0 -206.75 193.2 -206.9 191.45 -207.05 189.25 -207.0 187.0 -207.05 185.15 -207.15 183.15 -207.05 181.15 -206.95 179.05 -207.05 176.75 -207.05 174.8 -207.0 172.9 -207.0 171.25 -206.95 169.2 -207.1 Z" fill="none" stroke="#ffffff" stroke-linecap="round" stroke-linejoin="round" stroke-width="1.0"/>
    <path d="M162.0 -203.8 L159.9 -203.85 157.95 -204.0 155.8 -203.9 153.85 -203.5 152.05 -203.6 150.2 -203.8 148.1 -203.6 145.95 -203.55 143.95 -203.6 141.85 -203.65 140.15 -203.55 138.2 -203.45 136.2 -203.65 134.2 -203.55 131.9 -203.6 130.05 -203.8 128.2 -203.7 126.05 -203.6 123.85 -203.65 122.05 -203.75 120.0 -203.65 117.7 -203.7 116.15 -203.8 114.25 -203.8 112.0 -203.75 110.0 -203.9 108.2 -204.1 106.2 -204.15 104.15 -203.85 102.1 -203.6 100.0 -203.7 98.05 -203.55 Q97.05 -203.3 96.05 -203.55 L94.0 -203.75 91.8 -203.65 Q90.7 -203.5 89.95 -203.65 L88.3 -203.75 86.1 -203.7 84.0 -203.7 82.1 -203.85 80.0 -204.1 77.75 -203.8 76.0 -203.65 74.15 -203.75 72.05 -203.8 70.1 -204.0 68.2 -203.95 66.35 -203.85 64.2 -203.7 61.9 -203.7 59.7 -203.65 57.75 -203.85 55.8 -203.8 54.0 -203.55 52.2 -203.95 50.0 -204.05 47.95 -203.95 46.15 -204.0 44.2 -204.15 42.05 -204.0 40.15 -203.85 38.0 -203.8 35.95 -203.8 34.05 -203.8 31.95 -203.8 30.0 -203.6 Q29.05 -203.4 28.05 -203.6 L26.0 -203.8 24.25 -203.95 22.55 -204.15 20.1 -203.95 17.8 -203.8 15.9 -203.95 14.1 -203.9 12.2 -203.55 9.95 -203.6 8.15 -203.95 6.3 -203.8 4.15 -203.6 2.05 -203.7 0.05 -203.5 -2.05 -203.55 -4.05 -203.7 -5.85 -203.7 -7.9 -203.85 -9.9 -203.85 -12.1 -203.75 -13.9 -203.7 -15.95 -203.55 -18.4 -203.6 -20.35 -203.65 -22.1 -203.55 -23.95 -203.35 -25.9 -203.4 -27.9 -203.65 -29.9 -203.85 -32.1 -203.85 -34.2 -203.75 -36.0 -203.7 -37.85 -203.8 -39.95 -204.05 -41.9 -204.15 -43.95 -203.85 -46.15 -203.7 -47.95 -203.8 -49.9 -203.75 -51.9 -203.65 -54.2 -203.65 -56.3 -203.7 -58.15 -203.65 -60.0 -203.7 -61.9 -203.75 -63.95 -203.95 -65.95 -204.05 -68.05 -203.65 -70.1 -203.4 -71.95 -203.45 -73.9 -203.55 -76.15 -203.6 Q-77.45 -203.45 -78.2 -203.6 L-79.75 -203.75 -81.85 -203.8 -84.05 -203.85 -85.75 -203.8 -87.75 -203.6 -90.1 -203.7 -92.0 -203.95 -93.9 -203.75 -95.8 -203.7 -97.7 -203.95 -99.9 -203.9 -101.85 -203.8 -103.75 -203.75 -105.8 -203.65 -107.95 -203.8 -110.1 -203.85 -112.2 -203.5 -114.05 -203.45 -116.15 -203.55 -117.9 -203.7 -119.55 -204.0 -121.5 -203.8 -123.5 -203.55 -125.9 -203.55 -128.05 -203.7 -129.9 -203.85 -132.0 -204.0 -134.0 -204.1 -135.9 -203.85 -137.9 -203.65 -139.85 -203.55 -141.95 -203.75 -144.05 -203.95 -146.1 -203.75 -148.0 -203.55 -149.8 -203.75 -152.1 -203.95 -154.15 -203.75 -156.05 -203.75 -158.05 -203.75 -159.9 -203.75 -161.95 -203.75 -164.0 -203.75 -165.75 -203.95 -167.75 -204.0 -169.9 -203.85 -171.95 -203.55 Q-172.95 -203.25 -173.85 -203.55 L-175.9 -203.75 -177.9 -203.75 -180.05 -203.85 -182.1 -203.95 -183.8 -203.9 -185.6 -203.8 -187.7 -203.65 -190.15 -203.7 -192.05 -203.85 -193.7 -203.8 -195.8 -203.75 -197.9 -203.8 -199.8 -203.6 -201.9 -203.5 -204.15 -203.8 -206.0 -203.8 -207.8 -203.5 -209.85 -203.55 Q-210.8 -203.75 -211.9 -203.55 -212.95 -203.35 -214.1 -203.55 L-216.25 -203.75 -218.2 -203.75 -219.95 -203.9 -221.9 -203.85 -223.95 -203.75 -225.9 -203.65 -227.85 -203.5 -229.95 -203.5 -232.0 -203.4 -233.9 -203.5 -235.9 -203.55 Q-236.75 -203.35 -237.85 -203.55 L-240.0 -203.75 -242.1 -203.65 -244.0 -203.45 -245.9 -203.6 -247.7 -203.8 -249.8 -203.75 -252.1 -203.75 -254.0 -203.65 -255.75 -203.75 -257.05 -203.9 -259.15 -203.75 Q-259.55 -202.95 -259.35 -201.85 -259.15 -200.75 -259.3 -199.75 L-259.25 -197.75 -258.95 -195.5 -259.05 -193.4 -259.15 -191.6 -259.05 -189.6 Q-258.95 -188.45 -259.25 -187.45 L-259.4 -185.65 -259.1 -183.85 Q-259.0 -182.75 -259.2 -181.7 L-259.25 -179.7 -259.15 -177.75 Q-259.15 -176.75 -259.4 -176.0 -259.65 -175.2 -259.45 -173.9 L-259.2 -171.75 -259.1 -169.85 -259.1 -167.75 -259.2 -165.8 -259.05 -163.95 Q-258.85 -163.0 -259.0 -161.95 L-259.3 -159.75 -259.35 -157.9 -259.05 -156.05 -258.9 -154.05 -259.1 -152.2 -259.25 -149.8 -259.35 -147.65 -259.3 -145.9 -259.15 -143.75 -259.15 -141.75 -259.25 -139.75 -259.45 -137.95 -259.45 -135.8 -259.25 -133.6 -259.15 -131.75 -259.15 -129.55 -259.2 -127.65 -259.2 -126.0 -259.0 -124.1 -259.05 -121.75 -259.2 -119.5 -259.25 -117.9 -259.25 -115.7 -259.25 -113.35 -259.2 -111.85 -259.2 -110.0 -259.15 -107.75 -259.2 -105.75 -259.2 -103.55 -259.15 -101.55 -259.15 -99.8 -259.15 -97.55 -259.15 -95.55 -259.15 -93.75 -259.35 -91.9 -259.5 -89.85 -259.25 -87.65 Q-259.0 -86.65 -259.15 -85.8 L-259.15 -84.0 -259.15 -81.95 -259.35 -79.7 -259.35 -77.95 Q-259.15 -77.2 -259.35 -75.75 L-259.35 -73.55 Q-259.15 -72.75 -259.35 -71.6 -259.5 -70.4 -259.3 -69.55 -259.1 -68.7 -259.3 -67.95 L-259.35 -66.0 -259.2 -63.75 -259.1 -61.75 -259.1 -59.85 -259.25 -57.65 Q-259.35 -56.4 -259.1 -55.6 -258.8 -54.75 -259.05 -53.9 -259.3 -53.0 -259.2 -51.85 -259.05 -50.7 -259.2 -49.75 L-259.3 -47.7 -259.25 -45.7 -259.1 -43.75 -259.05 -41.9 -259.25 -39.85 -259.3 -37.9 -259.15 -35.95 Q-259.05 -34.75 -259.25 -33.65 L-259.35 -31.6 -259.3 -29.75 -259.35 -27.65 -259.3 -25.8 -259.2 -23.95 Q-259.1 -22.8 -259.35 -21.7 L-259.45 -19.6 -259.25 -17.8 -259.15 -15.85 -259.25 -13.8 -259.2 -11.8 Q-259.0 -10.8 -259.1 -9.55 L-259.1 -7.55 -258.9 -5.8 Q-258.8 -4.75 -259.0 -3.75 L-259.15 -1.65 Q-259.1 -0.55 -259.2 0.15 L-259.25 2.05 Q-259.15 3.2 -259.4 4.15 L-259.45 6.15 -259.1 8.25 Q-258.9 9.3 -259.0 10.25 L-259.35 12.25 Q-259.55 13.25 -259.3 14.1 -259.0 14.95 -259.25 16.05 -259.5 17.15 -259.35 18.45 -259.15 19.75 -259.25 20.75 L-259.25 22.65 -259.05 24.4 -259.05 26.4 -258.9 28.5 Q-258.7 29.45 -258.75 30.35 L-258.75 32.5 -258.85 34.5 -259.15 36.05 -259.35 38.0 -259.25 40.35 -258.95 42.4 Q-258.8 43.25 -259.0 44.15 L-259.2 46.25 -259.05 48.35 Q-258.85 49.35 -258.9 50.25 -258.9 51.2 -259.2 52.25 L-259.35 54.25 Q-259.2 55.2 -259.35 56.25 L-259.55 58.3 Q-259.55 59.25 -259.15 60.4 -258.75 61.6 -259.05 62.4 L-259.3 64.1 -259.2 65.95 -259.1 67.8 Q-259.1 68.75 -259.4 70.0 -259.65 71.25 -259.4 72.5 -259.15 73.75 -259.25 74.7 L-259.4 76.5 -259.3 78.3 -259.0 80.45 Q-258.85 81.7 -259.05 82.45 L-259.2 84.25 -259.3 86.25 -259.3 88.3 Q-259.15 89.35 -259.25 90.3 L-259.5 92.35 Q-259.65 93.45 -259.35 94.1 -259.0 94.8 -258.85 96.0 -258.65 97.25 -258.9 98.25 L-259.15 100.1 -259.1 102.0 -259.1 104.3 -259.15 106.4 -259.2 108.25 -259.2 110.25 Q-259.15 111.25 -259.4 112.25 L-259.35 114.15 Q-259.1 115.05 -259.2 116.05 L-259.25 118.15 -259.25 120.25 -259.35 122.45 -259.25 124.45 -259.25 126.25 -259.35 128.25 -259.5 130.45 -259.4 132.45 -258.95 134.15 Q-258.7 135.05 -258.95 136.15 L-259.2 138.25 -259.2 140.25 -259.15 142.35 -259.15 144.6 -259.15 146.3 -259.15 147.9 -259.0 150.1 Q-258.85 151.35 -259.0 152.25 L-259.2 154.2 -259.3 156.25 -259.15 158.2 Q-258.95 159.2 -259.15 160.1 L-259.45 162.15 Q-259.6 163.3 -259.4 164.0 -259.2 164.75 -259.25 166.0 L-259.25 168.25 -259.15 170.4 -259.15 172.4 -259.2 174.2 -259.3 176.3 -259.25 178.35 Q-259.1 179.4 -259.3 180.25 L-259.35 182.15 -259.4 184.2 -259.45 186.25 Q-259.35 187.25 -259.5 188.1 L-259.6 190.3 Q-259.55 191.7 -259.3 192.2 -259.0 192.75 -259.15 193.75 L-257.35 193.75 -255.25 193.8 -253.3 193.8 -251.35 193.9 -249.2 193.6 -247.15 193.45 -245.05 193.6 -243.25 193.7 -241.55 193.75 -239.35 193.7 -237.05 193.75 -235.05 193.8 -233.3 193.8 -231.45 193.9 -229.4 194.0 -227.25 193.7 -225.15 193.5 -223.35 193.6 -221.1 193.85 -218.95 193.75 Q-218.2 193.3 -217.0 193.75 L-214.95 193.95 -213.05 193.6 -211.1 193.6 -209.45 193.9 -207.4 193.95 -205.1 193.65 -203.1 193.35 -201.0 193.5 -199.1 193.55 -197.3 193.6 -195.05 193.7 -193.15 193.7 -191.1 193.5 Q-189.8 193.3 -189.0 193.5 -188.2 193.75 -187.2 193.5 L-185.3 193.45 -183.3 193.5 -181.35 193.45 -179.35 193.75 -177.15 194.0 -175.15 193.9 -173.2 193.85 -171.25 193.85 -169.25 193.6 -167.35 193.55 -165.5 193.8 -163.25 193.85 -161.1 193.7 -159.35 193.95 -157.25 194.05 -155.1 193.95 -153.4 193.65 -151.3 193.75 -149.15 193.9 -147.0 193.95 -145.0 194.0 -143.2 193.8 -141.25 193.75 -139.4 193.75 -137.15 193.6 -134.95 193.35 -133.05 193.5 -131.05 193.55 -129.15 193.65 -127.15 193.9 -125.2 193.8 -123.2 193.55 -121.0 193.45 -118.95 193.7 -117.15 193.9 -115.05 193.6 -112.9 193.45 -111.15 193.6 -109.2 193.7 -107.05 193.85 -105.2 193.8 -103.2 193.9 -101.05 193.95 -99.05 193.75 -97.15 193.6 -95.1 193.7 -93.1 194.05 -91.1 193.85 -89.1 193.6 -87.35 193.95 Q-86.5 194.2 -85.55 193.95 L-83.25 193.7 -81.0 193.8 -79.15 193.95 -77.0 193.85 -74.85 193.9 -73.05 194.05 -71.0 193.95 -69.05 194.0 -67.2 194.1 -65.15 194.0 -63.15 193.75 -61.35 193.65 -59.35 193.7 -57.15 193.75 -55.15 193.55 -53.25 193.4 -51.0 193.5 -48.75 193.65 -46.9 193.9 -45.05 193.9 -43.2 193.65 -41.2 193.45 -39.2 193.75 -37.35 193.9 -35.25 193.7 -33.05 193.85 -31.25 194.05 -29.45 193.8 -27.55 193.6 -25.2 193.7 -22.75 193.7 -20.9 193.5 -19.15 193.6 -17.25 193.75 -15.3 193.65 -13.05 193.65 -11.0 193.7 -9.1 193.75 -7.15 193.65 -5.15 193.85 -2.95 194.05 -0.85 193.95 0.9 194.05 3.05 193.85 5.2 193.7 7.05 193.7 9.05 193.6 11.0 193.55 12.75 193.55 14.7 193.6 16.8 193.9 18.9 193.65 20.85 193.5 22.75 193.8 25.0 193.75 27.0 193.65 28.75 193.65 30.8 193.75 32.8 193.7 34.8 193.85 36.7 193.9 38.7 193.65 40.95 193.75 42.95 194.0 44.85 193.8 46.9 193.65 49.1 194.0 51.05 193.9 52.85 193.55 54.75 193.6 56.5 193.75 58.65 193.6 60.6 193.7 62.7 193.7 64.95 193.85 66.9 193.7 69.1 193.55 71.05 193.8 72.95 193.55 74.9 193.35 76.95 193.6 79.1 193.7 80.95 193.6 82.85 193.7 84.8 193.75 86.8 193.6 Q87.85 193.45 89.05 193.6 L90.95 193.7 92.85 193.65 95.0 193.75 96.85 193.9 99.05 193.95 101.05 193.85 102.85 193.75 105.0 193.5 107.05 193.55 108.8 193.7 110.55 193.65 112.65 193.85 114.85 193.75 117.0 193.65 118.85 193.9 120.7 193.85 Q121.85 193.6 122.75 193.85 L124.7 193.9 126.75 193.95 128.75 193.9 Q129.7 193.7 130.85 193.9 L132.85 193.95 134.75 193.75 136.85 193.85 139.0 193.95 141.05 193.75 142.9 193.7 144.9 193.85 146.9 193.95 148.9 193.75 150.85 193.55 152.75 193.6 154.8 193.5 156.95 193.55 158.9 193.95 160.65 194.05 162.6 193.95 164.8 193.9 166.8 193.6 168.75 193.6 170.8 193.8 172.8 193.8 174.6 193.8 176.5 193.8 178.55 193.7 180.6 193.85 182.7 193.75 185.05 193.55 187.15 193.8 188.85 193.8 190.75 193.85 192.9 193.9 194.9 193.8 196.95 193.9 198.8 193.65 200.45 193.35 202.8 193.3 205.2 193.5 Q206.1 193.7 207.0 193.5 207.95 193.3 208.85 193.5 L210.55 193.6 212.55 193.7 Q213.75 193.95 214.8 193.7 L216.9 193.55 218.8 193.85 220.85 193.8 223.0 193.65 224.85 193.85 226.85 193.75 228.85 193.8 Q229.9 194.05 230.85 193.8 L232.95 193.7 235.05 194.05 236.75 194.0 238.6 193.75 240.85 193.55 242.8 193.4 244.75 193.6 246.8 193.7 248.85 193.7 250.85 193.8 252.85 193.75 254.7 193.65 256.6 193.6 258.7 193.65 260.35 193.7 262.05 193.75 262.2 191.7 262.1 189.65 261.95 187.7 262.0 185.8 262.0 183.8 Q261.9 182.85 262.05 181.85 L262.1 179.8 262.05 177.9 261.85 176.05 Q261.7 175.0 261.95 173.7 262.25 172.45 262.0 171.6 261.8 170.75 262.0 169.7 L262.1 167.8 262.05 165.85 262.05 163.75 262.1 161.7 262.1 159.7 262.0 157.8 262.0 155.8 262.15 153.6 262.1 151.75 261.85 149.8 Q261.8 148.6 261.9 147.55 L262.2 145.6 Q262.45 144.75 262.25 143.75 262.05 142.8 262.2 141.5 262.4 140.25 262.1 139.55 261.8 138.9 262.1 137.85 262.4 136.8 262.3 135.9 L262.2 133.95 261.9 131.75 Q261.65 130.6 261.85 129.4 L262.25 127.55 262.35 125.8 262.05 123.7 Q261.85 122.65 261.95 121.95 L262.1 120.1 262.35 117.8 262.4 115.9 262.3 113.95 262.15 111.65 262.0 109.8 262.2 108.05 Q262.4 107.0 262.2 105.7 L262.0 103.6 262.2 101.7 Q262.45 100.55 262.05 99.55 261.7 98.55 261.9 97.65 262.1 96.75 261.9 95.65 261.7 94.55 261.85 93.65 L262.0 91.8 261.95 89.95 Q261.9 89.1 262.15 87.9 262.4 86.75 262.25 85.65 L262.05 83.55 Q262.05 82.5 262.2 81.55 262.4 80.6 261.95 79.75 261.55 78.9 261.7 77.85 L261.95 75.8 261.85 73.8 Q261.7 72.75 261.85 71.6 L262.0 69.6 262.2 67.7 Q262.45 66.7 262.25 65.7 L261.85 63.75 Q261.65 62.8 261.75 61.75 L261.95 59.95 262.05 57.9 262.05 55.7 261.85 53.8 Q261.65 52.9 262.0 51.8 L262.45 49.6 Q262.5 48.5 262.15 47.6 261.85 46.75 261.95 45.8 L262.1 43.65 262.2 41.75 262.1 40.0 261.8 37.8 Q261.6 36.65 261.8 35.75 L262.1 33.75 262.1 31.8 262.05 29.9 262.05 27.8 262.25 25.8 262.35 23.55 262.05 21.5 Q261.9 20.75 261.9 19.75 L261.95 17.8 262.05 15.75 262.2 13.7 262.2 11.9 262.0 9.9 262.0 7.75 262.15 5.75 262.15 3.7 Q262.1 2.65 262.3 1.8 262.5 0.95 262.2 -0.05 261.95 -1.0 262.2 -2.05 262.45 -3.1 262.2 -4.0 L261.85 -6.05 Q261.75 -7.25 261.9 -8.25 L262.05 -10.2 261.95 -12.45 261.9 -14.7 Q261.85 -15.65 261.95 -16.45 L262.0 -18.2 Q261.9 -19.1 262.1 -20.2 L262.2 -22.25 262.05 -24.3 262.0 -26.5 Q261.95 -27.65 262.15 -28.65 262.35 -29.65 262.15 -30.45 261.95 -31.2 262.2 -32.2 L262.4 -34.25 262.15 -36.25 Q261.95 -37.2 262.15 -38.15 L262.4 -40.15 262.25 -42.25 Q262.05 -43.25 262.1 -44.3 L262.1 -46.5 262.0 -48.4 262.05 -50.15 262.05 -52.3 261.95 -54.35 261.95 -56.25 Q261.9 -57.25 262.0 -58.25 L262.1 -60.25 261.8 -62.15 Q261.55 -63.05 261.75 -64.2 L262.15 -66.25 262.35 -68.25 262.0 -70.35 Q261.65 -71.4 262.0 -72.6 262.4 -73.75 262.2 -74.45 L262.1 -76.15 262.3 -78.15 262.15 -80.25 261.9 -82.3 261.95 -84.3 262.1 -86.3 262.3 -88.15 262.15 -90.0 Q261.9 -90.95 261.95 -92.3 L262.15 -94.55 262.15 -96.35 262.2 -98.2 Q262.4 -99.2 262.2 -100.25 L262.0 -102.25 261.9 -104.3 Q261.75 -105.3 261.85 -106.2 L261.85 -108.0 Q261.75 -108.9 261.8 -110.25 261.85 -111.6 262.05 -112.45 L262.25 -114.25 262.2 -116.0 261.9 -118.0 Q261.7 -119.2 261.8 -120.35 L262.1 -122.4 262.35 -124.3 262.15 -126.3 261.75 -128.1 Q261.6 -128.9 261.8 -129.85 L262.2 -132.0 262.3 -134.3 261.9 -136.3 Q261.65 -137.25 261.75 -138.3 L261.95 -140.3 262.1 -142.4 262.1 -144.35 262.05 -146.2 262.1 -148.25 262.1 -150.1 262.0 -152.05 262.05 -154.2 261.9 -156.25 Q261.75 -157.2 261.95 -158.3 262.2 -159.35 261.9 -160.1 261.65 -160.85 261.8 -162.05 L261.9 -164.25 261.95 -166.2 262.05 -168.15 261.8 -170.05 Q261.55 -171.05 261.7 -172.0 L261.85 -174.05 262.05 -176.2 262.05 -178.15 261.8 -180.0 Q261.7 -180.9 262.05 -182.35 262.4 -183.75 262.0 -184.4 261.65 -185.0 261.8 -185.95 L261.85 -187.9 Q261.75 -188.85 261.8 -190.05 261.85 -191.2 262.15 -192.15 262.5 -193.05 262.05 -194.35 261.6 -195.65 261.8 -196.6 L261.9 -198.6 261.9 -200.3 262.05 -201.5 262.05 -203.75 259.95 -203.6 Q259.05 -203.4 258.05 -203.6 L256.05 -203.75 254.15 -203.8 252.15 -203.8 250.05 -203.7 247.95 -203.75 246.15 -203.6 244.25 -203.55 242.0 -203.95 240.0 -203.95 238.05 -203.55 Q237.1 -203.25 235.9 -203.55 L233.95 -203.65 232.1 -203.55 230.1 -203.75 228.1 -203.75 226.05 -203.75 224.1 -203.75 222.05 -203.8 220.1 -203.55 Q219.2 -203.3 218.15 -203.55 L216.1 -203.6 214.1 -203.45 212.1 -203.8 210.2 -204.1 208.25 -204.05 206.0 -204.05 203.95 -203.8 202.0 -203.65 199.95 -203.55 198.05 -203.4 196.1 -203.8 194.0 -203.95 192.25 -203.75 190.25 -203.65 188.05 -203.6 186.2 -203.7 184.25 -203.6 Q183.2 -203.45 182.1 -203.6 L180.05 -203.75 178.0 -203.8 175.75 -203.6 173.55 -203.55 171.8 -203.7 170.05 -203.7 168.05 -203.75 165.9 -203.75 163.9 -203.8 162.0 -203.8 Z" fill="none" stroke="#90c7b7" stroke-linecap="round" stroke-linejoin="round" stroke-opacity="0.5019608" stroke-width="1.0"/>
    <path d="M262.0 -2.7 L259.8 -2.5 258.0 -2.75 255.9 -2.9 253.75 -2.75 251.75 -2.95 Q250.9 -3.2 249.75 -2.95 L247.8 -2.75 245.85 -2.6 243.85 -2.7 242.0 -2.8 240.05 -2.7 238.1 -2.85 236.0 -2.85 234.0 -2.7 232.1 -2.6 230.1 -2.6 228.2 -2.7 226.2 -2.7 223.9 -2.8 221.95 -2.75 220.1 -2.6 218.0 -2.95 216.0 -3.1 213.75 -3.1 211.75 -3.1 210.0 -3.0 208.0 -2.65 206.0 -2.55 204.0 -2.95 201.95 -3.2 200.1 -2.85 198.2 -2.65 195.8 -2.6 193.8 -2.5 192.1 -2.45 190.1 -2.3 187.9 -2.65 185.7 -2.9 183.65 -2.75 181.7 -2.8 179.85 -2.75 178.25 -2.75 176.2 -2.85 174.0 -2.75 171.85 -2.65 169.65 -2.7 167.65 -2.85 165.9 -3.05 163.85 -2.85 161.65 -2.65 159.8 -2.7 157.95 -2.75 155.9 -2.7 153.9 -2.65 152.1 -2.9 150.1 -2.7 147.85 -2.55 145.85 -2.5 143.95 -2.55 141.95 -2.8 140.15 -2.7 138.2 -2.7 136.0 -2.9 133.9 -2.85 131.9 -2.7 130.0 -3.0 128.0 -2.8 126.0 -2.6 124.0 -2.7 122.05 -2.75 120.1 -2.85 118.15 -2.7 116.05 -2.4 113.95 -2.35 112.05 -2.5 110.25 -2.75 108.3 -2.9 106.15 -2.9 104.0 -2.8 102.05 -2.75 100.05 -2.85 97.8 -2.95 95.8 -2.9 94.05 -2.55 92.0 -2.5 89.95 -2.55 88.2 -2.45 86.2 -2.6 83.85 -2.75 82.05 -2.7 80.1 -2.45 77.9 -2.65 75.95 -2.55 73.85 -2.5 71.7 -2.8 69.8 -2.8 68.15 -2.55 66.2 -2.7 64.05 -2.6 Q63.1 -2.2 62.0 -2.6 L59.95 -2.85 57.9 -2.65 55.7 -2.6 53.6 -2.6 51.95 -2.7 50.1 -2.6 47.95 -2.55 46.15 -2.8 44.2 -2.85 42.2 -2.65 40.15 -2.6 37.95 -2.7 35.95 -2.7 34.0 -2.9 32.05 -3.1 30.0 -2.75 27.9 -2.55 25.85 -2.7 23.85 -2.8 21.7 -2.8 19.85 -2.65 18.25 -2.45 16.15 -2.4 13.85 -2.75 11.95 -2.8 9.9 -2.65 7.9 -2.85 6.0 -2.9 4.0 -2.6 2.0 -2.6 0.0 -2.9 -2.0 -3.1 -3.9 -2.9 -5.95 -2.85 -8.2 -3.1 -10.25 -2.85 -12.0 -2.6 -14.0 -2.7 -16.0 -3.0 -17.95 -3.1 -19.95 -3.1 -22.15 -2.9 -24.4 -2.8 -26.05 -2.9 -28.0 -2.75 -30.15 -2.65 -32.0 -2.45 -33.95 -2.5 -35.95 -2.85 -37.95 -3.0 -39.85 -2.85 -41.7 -2.55 -43.9 -2.6 -46.1 -2.9 -48.1 -2.75 -50.0 -2.6 -52.1 -2.9 Q-53.2 -3.1 -54.35 -2.9 L-56.05 -2.6 -57.95 -2.45 -60.3 -2.35 -62.15 -2.25 -64.0 -2.45 -66.15 -2.65 -68.05 -2.6 -69.9 -2.85 -72.0 -3.05 -74.1 -2.9 -75.95 -2.85 -77.85 -2.8 -80.0 -2.65 -81.95 -2.6 -84.0 -2.4 -86.15 -2.45 -87.95 -2.55 -89.8 -2.55 -91.9 -2.85 -93.8 -2.95 -95.75 -2.75 -97.7 -2.65 -99.9 -2.9 -102.15 -3.1 -104.05 -2.95 -105.95 -2.9 -107.8 -2.85 -109.65 -2.45 -111.9 -2.5 -114.05 -2.75 -116.1 -2.7 -117.9 -2.65 -119.85 -2.85 -121.85 -3.15 -124.1 -3.05 -126.05 -2.8 -127.9 -2.45 -130.25 -2.6 -132.1 -2.75 -134.1 -2.6 -136.15 -2.7 -138.0 -2.65 -140.1 -2.75 -142.25 -2.95 -144.05 -2.9 Q-144.85 -2.75 -146.1 -2.9 L-148.15 -2.85 -150.1 -2.45 -152.15 -2.5 -153.8 -2.8 -155.85 -2.65 -157.85 -2.55 -159.9 -2.65 -162.3 -2.7 -164.3 -2.7 -166.05 -2.55 -167.95 -2.6 -169.9 -2.75 -172.0 -2.75 -174.0 -2.6 -175.9 -2.5 -177.95 -2.5 -180.2 -2.4 -182.2 -2.55 -184.0 -2.85 -185.95 -2.9 -187.85 -2.75 -189.9 -2.7 -192.2 -2.7 -194.2 -2.8 -196.0 -2.8 -197.9 -2.75 -199.8 -2.7 -202.0 -2.7 -204.1 -2.7 -205.95 -2.85 -207.95 -2.7 -210.2 -2.65 -212.2 -2.75 -213.95 -2.9 Q-214.9 -3.15 -215.9 -2.9 L-218.05 -2.75 -220.35 -2.75 -222.3 -2.7 -223.85 -2.75 -225.95 -2.75 -228.2 -2.85 -230.2 -2.95 -232.15 -2.85 -233.95 -2.75 -236.0 -2.95 -238.1 -2.7 -239.9 -2.45 -241.95 -2.55 -243.9 -2.6 -245.85 -2.6 -248.05 -2.85 -250.0 -3.0 -252.15 -2.6 -254.4 -2.45 -256.15 -2.6 -257.25 -2.8 -259.3 -2.7" fill="none" stroke="#90c7b7" stroke-linecap="round" stroke-linejoin="round" stroke-opacity="0.5019608" stroke-width="1.0"/>
    <path d="M262.0 58.15 L259.8 58.35 258.0 58.1 255.9 57.95 253.75 58.1 251.75 57.9 Q250.9 57.65 249.75 57.9 L247.8 58.1 245.85 58.25 243.85 58.15 242.0 58.05 240.05 58.15 238.1 58.0 236.0 58.0 234.0 58.15 232.1 58.25 230.1 58.25 228.2 58.15 226.2 58.15 223.9 58.05 221.95 58.1 220.1 58.25 218.0 57.9 216.0 57.75 213.75 57.75 211.75 57.75 210.0 57.85 208.0 58.2 206.0 58.3 204.0 57.9 201.95 57.65 200.1 58.0 198.2 58.2 195.8 58.25 193.8 58.35 192.1 58.4 190.1 58.55 187.9 58.2 185.7 57.95 183.65 58.1 181.7 58.05 179.85 58.1 178.25 58.1 176.2 58.0 174.0 58.1 171.85 58.2 169.65 58.15 167.65 58.0 165.9 57.8 163.85 58.0 161.65 58.2 159.8 58.15 157.95 58.1 155.9 58.15 153.9 58.2 152.1 57.95 150.1 58.15 147.85 58.3 145.85 58.35 143.95 58.3 141.95 58.05 140.15 58.15 138.2 58.15 136.0 57.95 133.9 58.0 131.9 58.15 130.0 57.85 128.0 58.05 126.0 58.25 124.0 58.15 122.05 58.1 120.1 58.0 118.15 58.15 116.05 58.45 113.95 58.5 112.05 58.35 110.25 58.1 108.3 57.95 106.15 57.95 104.0 58.05 102.05 58.1 100.05 58.0 97.8 57.9 95.8 57.95 94.05 58.3 92.0 58.35 89.95 58.3 88.2 58.4 86.2 58.25 83.85 58.1 82.05 58.15 80.1 58.4 77.9 58.2 75.95 58.3 73.85 58.35 71.7 58.05 69.8 58.05 68.15 58.3 66.2 58.15 64.05 58.25 Q63.1 58.65 62.0 58.25 L59.95 58.0 57.9 58.2 55.7 58.25 53.6 58.25 51.95 58.15 50.1 58.25 47.95 58.3 46.15 58.05 44.2 58.0 42.2 58.2 40.15 58.25 37.95 58.15 35.95 58.15 34.0 57.95 32.05 57.75 30.0 58.1 27.9 58.3 25.85 58.15 23.85 58.05 21.7 58.05 19.85 58.2 18.25 58.4 16.15 58.45 13.85 58.1 11.95 58.05 9.9 58.2 7.9 58.0 6.0 57.95 4.0 58.25 2.0 58.25 0.0 57.95 -2.0 57.75 -3.9 57.95 -5.95 58.0 -8.2 57.75 -10.25 58.0 -12.0 58.25 -14.0 58.15 -16.0 57.85 -17.95 57.75 -19.95 57.75 -22.15 57.95 -24.4 58.05 -26.05 57.95 -28.0 58.1 -30.15 58.2 -32.0 58.4 -33.95 58.35 -35.95 58.0 -37.95 57.85 -39.85 58.0 -41.7 58.3 -43.9 58.25 -46.1 57.95 -48.1 58.1 -50.0 58.25 -52.1 57.95 Q-53.2 57.75 -54.35 57.95 L-56.05 58.25 -57.95 58.4 -60.3 58.5 -62.15 58.6 -64.0 58.4 -66.15 58.2 -68.05 58.25 -69.9 58.0 -72.0 57.8 -74.1 57.95 -75.95 58.0 -77.85 58.05 -80.0 58.2 -81.95 58.25 -84.0 58.45 -86.15 58.4 -87.95 58.3 -89.8 58.3 -91.9 58.0 -93.8 57.9 -95.75 58.1 -97.7 58.2 -99.9 57.95 -102.15 57.75 -104.05 57.9 -105.95 57.95 -107.8 58.0 -109.65 58.4 -111.9 58.35 -114.05 58.1 -116.1 58.15 -117.9 58.2 -119.85 58.0 -121.85 57.7 -124.1 57.8 -126.05 58.05 -127.9 58.4 -130.25 58.25 -132.1 58.1 -134.1 58.25 -136.15 58.15 -138.0 58.2 -140.1 58.1 -142.25 57.9 -144.05 57.95 -146.1 57.95 -148.15 58.0 -150.1 58.4 -152.15 58.35 -153.8 58.05 -155.85 58.2 -157.85 58.3 -159.9 58.2 -162.3 58.15 -164.3 58.15 -166.05 58.3 -167.95 58.25 -169.9 58.1 -172.0 58.1 -174.0 58.25 -175.9 58.35 -177.95 58.35 -180.2 58.45 -182.2 58.3 -184.0 58.0 -185.95 57.95 -187.85 58.1 -189.9 58.15 -192.2 58.15 -194.2 58.05 -196.0 58.05 -197.9 58.1 -199.8 58.15 -202.0 58.15 -204.1 58.15 -205.95 58.0 -207.95 58.15 -210.2 58.2 -212.2 58.1 -213.95 57.95 Q-214.9 57.7 -215.9 57.95 L-218.05 58.1 -220.35 58.1 -222.3 58.15 -223.85 58.1 -225.95 58.1 -228.2 58.0 -230.2 57.9 -232.15 58.0 -233.95 58.1 -236.0 57.9 -238.1 58.15 -239.9 58.4 -241.95 58.3 -243.9 58.25 -245.85 58.25 -248.05 58.0 -250.0 57.85 -252.15 58.25 -254.4 58.4 -256.15 58.25 -257.25 58.05 -259.3 58.15" fill="none" stroke="#90c7b7" stroke-linecap="round" stroke-linejoin="round" stroke-opacity="0.5019608" stroke-width="1.0"/>
  </g>
</svg>
