<?xml version="1.0" encoding="UTF-8" standalone="no"?>
<svg xmlns:xlink="http://www.w3.org/1999/xlink" height="7.9px" width="15.1px" xmlns="http://www.w3.org/2000/svg">
  <g transform="matrix(1.0, 0.0, 0.0, 1.0, 7.35, 3.4)">
    <path d="M4.4 -3.4 L4.6 -3.35 4.75 -3.25 4.8 -3.2 4.85 -3.1 4.9 -3.05 4.85 -3.0 4.85 -2.9 4.85 -2.8 4.85 -2.75 4.8 -2.7 4.75 -2.6 4.65 -2.5 4.5 -2.45 4.35 -2.5 4.3 -2.55 3.7 -2.5 3.3 -2.45 3.25 -2.4 3.2 -2.3 3.1 -2.2 3.05 -2.15 2.95 -2.05 2.85 -2.0 2.8 -1.95 2.4 -1.85 1.3 -1.55 0.75 -1.45 0.65 -1.4 -1.4 -1.4 -1.55 -1.45 -1.75 -1.55 -1.9 -1.6 -2.7 -1.6 -2.8 -1.6 -2.95 -1.65 -3.05 -1.75 -3.15 -1.8 -3.15 -1.9 -3.15 -1.95 -3.15 -2.05 -3.15 -2.1 -3.15 -2.2 -3.8 -2.25 -4.9 -2.3 -5.0 -2.35 -5.05 -2.45 -5.05 -2.5 Q-4.95 -2.8 -4.6 -2.75 L-2.4 -2.75 -2.25 -2.7 -2.2 -2.6 -2.1 -2.55 -1.8 -2.45 Q-0.85 -2.25 0.1 -2.45 L1.95 -3.05 4.0 -3.4 4.4 -3.4" fill="#663366" fill-opacity="0.101960786" fill-rule="evenodd" stroke="none"/>
    <path d="M1.6 -0.35 L2.35 -0.5 2.45 -0.55 2.55 -0.65 2.65 -0.7 3.4 -1.1 4.0 -1.35 4.1 -1.4 4.25 -1.5 4.6 -1.6 4.7 -1.65 4.8 -1.65 5.0 -1.6 5.05 -1.5 5.1 -1.45 5.15 -1.35 5.15 -1.3 5.15 -1.2 5.1 -1.15 5.05 -1.05 5.0 -1.0 4.95 -0.9 4.85 -0.85 4.9 -0.75 4.95 -0.7 4.95 -0.6 4.95 -0.55 4.95 -0.45 4.85 -0.4 4.8 -0.3 4.7 -0.25 4.6 -0.15 4.45 -0.15 4.25 -0.05 4.15 0.0 -1.3 0.55 -1.75 0.5 -4.7 0.15 -4.8 0.1 -4.85 0.0 -4.85 -0.05 -4.9 -0.15 -4.9 -0.2 -4.9 -0.3 -4.85 -0.35 -4.8 -0.45 -4.85 -0.55 -4.9 -0.6 -4.9 -0.65 -4.9 -0.75 -4.85 -0.8 -4.85 -0.9 -4.8 -0.95 -4.7 -1.05 -4.5 -1.1 -4.4 -1.1 -4.2 -1.05 Q-3.3 -0.5 -2.2 -0.45 L-1.9 -0.4 1.4 -0.3 1.6 -0.35" fill="#663366" fill-opacity="0.101960786" fill-rule="evenodd" stroke="none"/>
    <path d="M5.6 -0.05 L5.7 0.05 5.75 0.1 5.75 0.2 5.8 0.25 5.8 0.35 5.8 0.4 5.8 0.5 5.75 0.55 5.75 0.65 5.65 0.7 5.6 0.8 5.55 0.85 5.45 1.0 5.2 1.15 5.15 1.25 5.0 1.35 4.8 1.6 4.65 1.7 4.4 1.8 4.15 2.0 2.6 2.3 1.45 2.35 1.4 2.4 1.2 2.45 -2.35 2.35 -3.85 2.05 -5.35 1.3 -5.45 1.25 -5.6 1.15 -5.7 1.1 -5.8 1.0 -5.85 0.95 -5.85 0.85 -5.95 0.75 -6.05 0.7 -6.05 0.65 -6.05 0.55 -6.0 0.5 -5.95 0.4 -5.8 0.35 -5.65 0.4 -5.55 0.45 Q-4.05 0.45 -2.65 1.0 L-2.4 1.05 -1.9 1.2 1.9 1.2 3.8 0.7 4.7 0.25 5.25 -0.05 5.4 -0.1 5.6 -0.05" fill="#663366" fill-opacity="0.101960786" fill-rule="evenodd" stroke="none"/>
    <path d="M5.3 1.95 L5.35 2.0 5.35 2.1 5.4 2.15 5.4 2.2 5.4 2.3 5.35 2.4 5.05 2.75 4.35 3.3 4.2 3.45 3.45 3.8 2.85 4.1 2.55 4.2 1.8 4.45 -3.55 4.05 -4.35 3.75 -4.4 3.65 -4.45 3.55 -4.5 3.5 -4.7 3.3 -5.6 3.0 -5.7 2.9 -5.75 2.8 -5.8 2.75 -5.85 2.7 -5.85 2.6 -5.85 2.55 -5.8 2.45 -5.75 2.4 -5.65 2.3 -5.5 2.25 -5.1 2.25 -4.9 2.3 -4.75 2.35 -4.6 2.35 -4.5 2.35 -4.0 2.5 -3.5 2.65 -3.3 2.7 0.9 2.9 1.05 2.95 1.15 3.0 1.55 3.0 2.65 2.7 3.8 2.3 4.3 2.1 4.35 2.0 4.45 1.95 4.55 1.9 4.7 1.85 4.9 1.8 5.0 1.8 5.2 1.85 5.3 1.95" fill="#663366" fill-opacity="0.101960786" fill-rule="evenodd" stroke="none"/>
    <path d="M5.85 2.25 L5.85 2.35 5.85 2.5 5.85 2.55 5.8 2.6 5.75 2.7 5.75 2.8 5.6 2.85 5.5 2.95 5.45 3.0 5.45 3.1 5.35 3.15 5.25 3.25 5.2 3.3 5.15 3.4 5.05 3.45 4.7 3.65 3.65 4.1 Q1.05 4.75 -1.6 4.2 L-1.8 4.05 -2.2 3.85 -2.55 3.7 -2.8 3.65 -2.95 3.65 -3.0 3.55 -3.05 3.45 -3.05 3.35 -3.0 3.25 -2.95 3.2 -2.8 3.15 -2.6 3.1 -2.5 3.1 -2.2 3.0 -2.0 3.05 -1.9 3.1 -1.7 3.1 -1.6 3.0 -1.6 2.9 -1.55 2.85 -1.4 2.8 -1.3 2.8 -1.2 2.8 -1.0 2.85 2.9 2.55 4.55 1.95 4.65 1.9 4.7 1.8 4.8 1.75 5.0 1.7 5.1 1.7 5.4 1.7 5.6 1.75 5.7 1.8 5.75 1.9 5.8 1.95 5.85 2.05 5.85 2.1 5.85 2.2 5.85 2.25" fill="#663366" fill-opacity="0.101960786" fill-rule="evenodd" stroke="none"/>
    <path d="M4.35 -2.05 Q3.3 -1.05 1.6 -0.75 L-2.3 -0.9 Q-3.55 -1.3 -4.8 -1.85 L-5.4 -1.75 -6.25 -1.05 -6.45 -0.45 Q-6.2 0.95 -4.85 1.35 L-3.25 1.9 0.8 2.35 2.85 2.1 Q4.5 1.55 5.8 0.65 L6.2 0.45 6.55 -0.45 Q6.7 -1.8 5.55 -2.1 L4.35 -2.05 M3.6 -2.55 L3.8 -2.85 5.7 -3.15 6.9 -2.45 Q8.05 -1.3 7.6 0.2 L6.5 1.3 6.3 1.65 3.05 3.15 -0.75 3.5 Q-2.65 3.35 -4.25 2.7 -5.5 2.3 -6.55 1.4 -7.35 0.75 -7.35 -0.3 L-7.2 -1.45 -6.6 -2.25 -5.75 -2.7 Q-3.85 -2.65 -2.35 -1.95 -1.5 -1.45 -0.25 -1.4 1.45 -1.5 2.6 -2.0 L3.3 -2.45 3.6 -2.55" fill="#333333" fill-rule="evenodd" stroke="none"/>
    <path d="M4.45 0.3 L3.95 0.6 1.1 1.3 -2.75 0.9 -3.5 0.6 Q-4.8 0.4 -5.35 -0.7 L-4.65 -0.55 -3.9 -0.05 -1.75 0.3 2.1 0.2 2.6 0.25 3.75 -0.15 5.55 -1.25 Q5.6 -0.55 4.45 0.3" fill="#333333" fill-rule="evenodd" stroke="none"/>
  </g>
</svg>
