<?xml version="1.0" encoding="UTF-8" standalone="no"?>
<svg xmlns:xlink="http://www.w3.org/1999/xlink" height="20.45px" width="3.5px" xmlns="http://www.w3.org/2000/svg">
  <g transform="matrix(1.0, 0.0, 0.0, 1.0, 1.75, 10.2)">
    <path d="M0.8 -10.15 L0.95 -10.05 1.1 -9.95 1.25 -9.85 1.35 -9.75 1.45 -9.7 1.5 -9.6 1.6 -9.5 1.65 -9.4 1.7 -9.3 1.7 -9.2 1.7 -9.1 1.75 -9.0 1.75 -8.95 1.75 -8.85 1.75 -8.75 1.75 -8.65 1.75 -8.55 1.75 -8.45 1.7 -8.35 1.7 -8.25 1.65 -8.2 1.6 -8.1 1.5 -7.9 1.3 -7.7 1.15 -7.6 1.0 -7.5 0.75 -7.35 -0.4 -7.35 -0.8 -7.45 -1.15 -7.6 -1.35 -7.7 -1.5 -7.8 -1.55 -7.9 -1.65 -8.0 -1.65 -8.1 -1.7 -8.2 -1.7 -8.25 -1.75 -8.35 -1.75 -8.45 -1.75 -8.65 -1.75 -8.75 -1.75 -8.85 -1.75 -8.9 -1.75 -9.0 -1.7 -9.1 -1.7 -9.2 -1.65 -9.4 -1.45 -9.6 -1.4 -9.7 -1.3 -9.75 -1.2 -9.85 -1.15 -9.95 -1.05 -10.05 -0.85 -10.15 -0.65 -10.2 -0.4 -10.15 -0.3 -10.15 -0.15 -10.15 0.25 -10.2 0.6 -10.2 0.8 -10.15 M0.85 -9.1 L0.8 -9.2 0.65 -9.3 0.6 -9.35 0.1 -9.45 -0.4 -9.5 -0.45 -9.6 -0.45 -9.65 -0.5 -9.7 -0.6 -9.7 -0.65 -9.7 -0.8 -9.5 -0.9 -9.3 -1.05 -9.1 -1.1 -9.0 -1.05 -8.85 -1.05 -8.65 -1.05 -8.55 -1.05 -8.45 -1.0 -8.35 -0.9 -8.25 -0.7 -8.2 -0.6 -8.1 -0.45 -8.1 0.55 -8.15 0.7 -8.25 0.85 -8.35 0.85 -8.45 0.9 -8.5 0.9 -8.6 0.95 -8.7 0.95 -8.8 0.9 -8.9 0.9 -9.0 0.85 -9.1" fill="#333333" fill-rule="evenodd" stroke="none"/>
    <path d="M-0.6 -7.35 L-0.6 -7.4 -0.5 -7.35 -0.5 -7.25 -0.4 -4.35 -0.35 -1.4 -0.3 1.55 -0.35 4.5 -0.35 7.45 -0.35 8.4 -0.35 9.4 -0.35 10.0 -0.35 10.05 -0.4 10.1 -0.4 10.15 -0.45 10.2 -0.5 10.2 -0.5 10.25 -0.6 10.25 -0.75 10.2 -0.8 10.15 -0.8 10.1 -0.85 10.05 -0.85 7.15 -0.9 4.2 -0.9 1.25 -0.85 -1.7 -0.8 -4.65 -0.75 -7.25 -0.7 -7.3 -0.7 -7.35 -0.6 -7.35" fill="#333333" fill-rule="evenodd" stroke="none"/>
    <path d="M0.3 -7.35 L0.35 -7.45 0.45 -7.45 0.55 -7.45 0.65 -7.45 0.7 -7.35 0.75 -7.3 0.7 -7.25 0.7 -7.2 0.65 -7.1 0.55 -7.1 0.55 -6.95 0.5 -6.9 0.5 -6.85 0.55 -6.75 0.6 -6.6 0.7 -6.45 0.75 -6.35 0.8 -3.65 0.8 -0.7 0.8 2.25 0.85 5.2 0.85 8.15 0.85 9.8 0.85 9.85 0.8 9.9 0.8 10.0 0.75 10.05 0.75 10.1 0.7 10.15 0.65 10.2 0.6 10.2 0.5 10.2 0.5 10.15 0.45 10.1 0.4 10.05 0.4 9.9 0.35 9.85 0.35 7.15 0.35 4.2 0.35 1.25 0.4 -1.7 0.4 -4.7 0.4 -6.2 0.4 -6.3 0.3 -6.45 0.25 -6.6 0.2 -6.7 0.2 -6.8 0.2 -6.95 0.2 -7.05 0.2 -7.2 0.25 -7.25 0.25 -7.3 0.3 -7.35" fill="#333333" fill-rule="evenodd" stroke="none"/>
    <path d="M0.4 -6.15 L0.5 -6.15 0.55 -6.1 0.6 -6.05 0.6 -5.9 0.55 -5.85 0.5 -5.8 0.5 -5.75 0.4 -5.75 0.25 -5.75 0.15 -5.75 0.1 -5.7 0.0 -5.7 -0.05 -5.65 -0.55 -5.65 -0.65 -5.7 -0.7 -5.75 -0.75 -5.8 -0.75 -5.9 -0.7 -5.9 -0.7 -5.95 -0.65 -6.0 -0.55 -6.05 -0.05 -6.05 0.05 -6.1 0.15 -6.15 0.25 -6.15 0.4 -6.15" fill="#333333" fill-rule="evenodd" stroke="none"/>
    <path d="M0.4 -4.4 L0.35 -4.35 0.3 -4.3 0.25 -4.25 0.2 -4.25 -0.4 -4.25 -0.5 -4.3 -0.55 -4.35 -0.6 -4.4 -0.6 -4.5 -0.55 -4.55 -0.5 -4.65 -0.4 -4.65 0.2 -4.65 0.3 -4.65 0.35 -4.6 0.4 -4.55 0.4 -4.4" fill="#333333" fill-rule="evenodd" stroke="none"/>
    <path d="M1.05 -2.85 L1.1 -2.8 1.1 -2.6 1.05 -2.55 1.0 -2.5 0.9 -2.5 -0.55 -2.65 -0.6 -2.7 -0.65 -2.7 -0.65 -2.75 -0.6 -2.8 -0.6 -2.85 -0.5 -2.9 0.85 -2.95 0.9 -2.9 1.0 -2.9 1.05 -2.85" fill="#333333" fill-rule="evenodd" stroke="none"/>
    <path d="M0.15 -1.15 L0.4 -1.15 0.5 -1.1 0.55 -1.05 0.6 -1.0 0.6 -0.9 0.55 -0.85 0.55 -0.75 0.5 -0.75 0.45 -0.7 0.35 -0.75 0.15 -0.75 0.1 -0.7 0.0 -0.7 -0.05 -0.65 -0.85 -0.65 -0.95 -0.7 -1.0 -0.7 -1.05 -0.75 -1.05 -0.9 -1.0 -0.95 -0.95 -1.05 -0.85 -1.05 -0.05 -1.05 0.05 -1.1 0.15 -1.15" fill="#333333" fill-rule="evenodd" stroke="none"/>
    <path d="M0.5 0.6 L0.6 0.65 0.6 0.7 0.65 0.75 0.6 0.8 0.6 0.85 0.5 0.85 0.4 0.9 0.15 0.9 -1.05 0.95 -1.15 0.9 -1.2 0.85 -1.25 0.8 -1.25 0.7 -1.2 0.65 -1.2 0.6 -1.15 0.6 -1.05 0.55 -0.25 0.55 0.25 0.6 0.5 0.6" fill="#333333" fill-rule="evenodd" stroke="none"/>
    <path d="M0.55 2.85 L0.55 3.0 0.5 3.05 0.5 3.1 0.45 3.15 0.25 3.15 0.1 3.15 0.0 3.1 -0.1 3.1 -0.25 3.1 -0.35 3.1 -0.5 3.1 -0.6 3.1 -0.65 3.05 -0.65 2.85 -0.6 2.8 -0.35 2.75 -0.3 2.75 -0.05 2.7 0.0 2.75 0.05 2.75 0.25 2.75 0.35 2.75 0.45 2.8 0.5 2.8 0.55 2.85" fill="#333333" fill-rule="evenodd" stroke="none"/>
    <path d="M0.0 5.05 L0.2 5.05 0.3 5.1 0.35 5.15 0.4 5.2 0.4 5.25 0.45 5.3 0.4 5.35 0.4 5.4 0.35 5.45 0.3 5.5 0.25 5.5 0.2 5.55 0.05 5.55 0.05 5.6 -0.05 5.7 -0.15 5.7 -0.25 5.7 -0.6 5.65 -0.7 5.6 -0.7 5.55 -0.75 5.5 -0.75 5.25 -0.65 5.2 -0.55 5.2 -0.45 5.2 -0.4 5.2 -0.3 5.2 -0.2 5.1 -0.1 5.05 0.0 5.05" fill="#333333" fill-rule="evenodd" stroke="none"/>
    <path d="M1.45 -3.05 L1.5 -3.0 1.5 -2.95 1.55 -0.05 1.6 2.9 1.5 5.35 1.5 5.6 1.45 5.65 1.45 5.9 1.4 5.95 1.3 6.0 1.25 5.95 1.25 5.65 1.2 5.6 1.2 5.35 1.1 2.45 1.15 -0.5 1.2 -2.95 1.25 -3.0 1.25 -3.1 1.3 -3.15 1.35 -3.15 1.45 -3.15 1.45 -3.05" fill="#333333" fill-rule="evenodd" stroke="none"/>
  </g>
</svg>
