<?xml version="1.0" encoding="UTF-8" standalone="no"?>
<svg xmlns:xlink="http://www.w3.org/1999/xlink" height="12.6px" width="12.55px" xmlns="http://www.w3.org/2000/svg">
  <g transform="matrix(1.0, 0.0, 0.0, 1.0, 6.35, 6.3)">
    <path d="M5.45 -0.2 Q5.45 2.1 3.8 3.75 2.15 5.4 -0.15 5.4 -2.45 5.4 -4.1 3.75 -5.75 2.1 -5.75 -0.2 -5.75 -2.5 -4.1 -4.15 -2.45 -5.8 -0.15 -5.8 2.15 -5.8 3.8 -4.15 5.45 -2.5 5.45 -0.2" fill="#669966" fill-rule="evenodd" stroke="none"/>
    <path d="M1.8 -2.65 L2.15 -2.5 2.55 -2.35 2.75 -2.2 2.9 -2.05 3.0 -1.9 3.15 -1.75 3.45 -1.6 3.65 -1.45 3.75 -1.3 3.85 -1.15 3.9 -1.0 3.95 -0.85 4.0 -0.7 4.0 -0.55 4.0 -0.4 4.0 -0.25 4.05 -0.1 4.1 0.05 4.1 0.2 4.1 0.35 4.1 0.5 4.1 0.65 4.1 0.95 4.1 1.1 4.05 1.25 4.0 1.4 3.95 1.55 3.9 1.85 3.8 2.15 3.75 2.3 3.65 2.45 3.55 2.6 3.35 2.75 3.1 2.85 2.8 2.9 2.0 2.85 1.15 2.75 0.9 2.6 0.75 2.45 0.55 2.3 0.15 2.15 -0.1 2.0 -0.25 1.85 -0.35 1.7 -0.45 1.55 -0.65 1.25 -0.8 0.95 -0.85 0.8 -0.85 0.65 -0.85 0.5 -0.85 0.05 -0.85 -0.25 -0.85 -0.7 -0.8 -0.85 -0.75 -1.0 -0.7 -1.15 -0.65 -1.3 -0.55 -1.45 -0.45 -1.6 -0.4 -1.75 -0.25 -2.05 0.0 -2.35 0.15 -2.5 0.35 -2.6 0.5 -2.65 0.8 -2.7 1.4 -2.75 1.8 -2.65" fill="#663366" fill-opacity="0.101960786" fill-rule="evenodd" stroke="none"/>
    <path d="M2.8 -3.1 L3.35 -2.5 3.7 -1.9 3.95 -1.45 4.1 -1.15 4.15 -1.0 4.15 -0.4 4.15 0.05 4.15 0.35 4.15 0.8 4.15 0.95 4.1 1.1 4.05 1.25 3.95 1.55 3.9 1.7 3.85 1.85 3.75 2.15 3.65 2.3 3.45 2.75 3.25 3.05 2.9 3.35 2.7 3.45 2.2 3.6 -0.6 3.55 -0.85 3.4 -1.6 3.3 -2.2 3.15 -2.45 3.0 -2.6 2.85 -2.75 2.7 -3.05 2.4 Q-3.15 2.35 -3.3 2.25 L-3.45 2.1 -3.6 1.95 -3.7 1.8 -3.8 1.65 -3.8 1.5 -3.85 0.75 -3.85 0.15 -3.8 -0.6 -3.65 -1.5 -3.6 -1.65 -3.05 -2.45 -2.55 -3.0 -1.7 -3.75 -1.5 -3.85 -1.3 -3.9 -1.0 -3.9 -1.0 -3.95 0.3 -3.85 1.45 -3.65 2.4 -3.4 2.65 -3.25 2.8 -3.1" fill="#663366" fill-opacity="0.101960786" fill-rule="evenodd" stroke="none"/>
    <path d="M1.7 -1.55 L2.35 -0.65 2.4 -0.5 2.45 -0.35 2.5 -0.2 2.5 -0.05 2.5 0.25 2.5 0.4 2.5 0.7 2.5 1.15 2.45 1.6 2.4 1.75 2.25 2.05 2.05 2.35 1.4 2.95 0.8 3.25 0.7 3.4 0.6 3.55 0.45 3.7 0.3 3.85 0.0 4.0 -0.4 4.1 -1.4 4.1 -1.85 4.0 -2.15 3.9 -2.4 3.85 -2.85 3.75 -3.1 3.6 -3.25 3.45 -3.4 3.3 -3.55 3.15 -3.65 3.0 -3.75 2.85 -3.8 2.7 -3.85 2.55 -3.85 2.4 -3.85 2.25 -3.8 2.1 -3.85 1.95 -4.0 1.8 -4.05 1.65 -4.15 1.5 -4.2 1.35 -4.25 1.2 -4.3 1.05 -4.3 0.9 -4.3 0.75 -4.3 0.6 -4.3 0.45 -4.3 0.15 -4.3 -0.15 -4.25 -0.45 -4.2 -0.6 -4.1 -0.75 -4.05 -0.9 -3.95 -1.05 -3.8 -1.35 -3.6 -1.65 -3.45 -1.8 -3.2 -1.95 -2.9 -2.1 -2.7 -2.2 -2.5 -2.25 -2.2 -2.25 -2.2 -2.3 0.0 -2.25 Q1.0 -2.2 1.7 -1.55" fill="#663366" fill-opacity="0.101960786" fill-rule="evenodd" stroke="none"/>
    <path d="M-5.55 0.05 Q-5.35 2.3 -3.85 3.9 -2.35 5.5 -0.1 5.5 2.1 5.5 3.7 3.9 5.3 2.3 5.3 0.05 5.3 -2.2 3.7 -3.8 2.1 -5.4 -0.25 -5.4 -2.65 -5.4 -4.2 -3.8 -5.75 -2.2 -5.55 0.05 M0.0 -6.3 Q2.5 -6.2 4.35 -4.35 6.2 -2.5 6.2 0.1 6.2 2.7 4.35 4.55 2.5 6.4 -0.1 6.3 -2.8 6.25 -4.55 4.5 -6.35 2.75 -6.35 0.05 -6.35 -2.6 -4.5 -4.5 -2.6 -6.4 0.0 -6.3" fill="#333333" fill-rule="evenodd" stroke="none"/>
    <path d="M4.1 -0.85 L4.05 -0.85 3.95 -0.85 3.9 -0.9 3.85 -0.95 3.85 -1.1 4.5 -1.5 4.95 -1.65 5.15 -1.7 5.25 -1.7 5.35 -1.65 5.4 -1.6 5.4 -1.5 5.35 -1.45 5.35 -1.4 4.7 -1.1 4.3 -0.95 4.25 -0.9 4.2 -0.85 4.1 -0.85" fill="#333333" fill-rule="evenodd" stroke="none"/>
    <path d="M4.35 -0.25 L4.4 -0.3 4.5 -0.35 4.8 -0.4 4.95 -0.4 5.2 -0.4 5.5 -0.35 5.7 -0.25 5.65 -0.2 5.4 -0.1 4.9 -0.05 4.8 -0.05 4.65 0.0 4.55 0.05 4.5 0.05 4.4 0.0 4.35 -0.05 4.35 -0.25" fill="#333333" fill-rule="evenodd" stroke="none"/>
  </g>
</svg>
