<?xml version="1.0" encoding="UTF-8" standalone="no"?>
<svg xmlns:xlink="http://www.w3.org/1999/xlink" height="8.85px" width="9.0px" xmlns="http://www.w3.org/2000/svg">
  <g transform="matrix(1.0, 0.0, 0.0, 1.0, 4.0, 3.65)">
    <path d="M1.65 -1.45 L2.2 -1.35 2.4 -1.25 2.45 -1.25 2.6 -1.1 2.7 -1.05 2.8 -0.95 3.0 -0.8 3.05 -0.75 3.1 -0.7 3.1 -0.65 3.15 -0.6 3.15 -0.55 3.2 -0.5 3.2 -0.45 3.25 -0.45 3.3 -0.4 3.3 -0.35 3.35 -0.1 3.35 0.2 3.35 0.5 3.3 1.0 3.3 1.05 3.25 1.05 3.2 1.1 3.2 1.2 3.15 1.25 2.45 1.95 0.75 2.25 -0.35 2.0 Q-1.05 1.75 -1.5 1.1 L-1.5 1.05 -1.5 0.95 -1.5 0.85 -1.5 0.8 -1.5 0.7 -1.5 0.55 -1.5 0.45 -1.5 0.4 -1.45 0.35 -1.45 0.25 -1.4 0.2 -1.4 0.05 -1.35 0.05 -1.35 0.0 -1.3 -0.05 -1.3 -0.1 -1.25 -0.15 -1.25 -0.25 -1.15 -0.35 -0.7 -0.75 0.55 -1.4 0.8 -1.45 1.65 -1.45 M0.75 0.65 L0.75 0.7 0.7 0.75 0.7 0.9 0.75 0.9 0.9 0.9 0.85 0.85 0.8 0.8 0.8 0.7 0.8 0.6 0.75 0.65" fill="#663366" fill-opacity="0.101960786" fill-rule="evenodd" stroke="none"/>
    <path d="M1.3 -1.25 L1.55 -1.35 1.65 -1.35 2.9 -1.3 3.65 -1.1 3.75 -1.05 3.75 -1.0 3.85 -0.9 3.95 -0.8 4.05 -0.7 4.15 -0.6 4.2 -0.55 4.2 -0.5 4.25 -0.45 4.3 -0.4 4.3 -0.35 4.35 -0.3 4.35 -0.25 4.4 -0.2 4.4 -0.15 4.45 -0.1 4.45 -0.05 4.5 0.0 4.5 0.05 4.55 0.1 4.55 0.2 4.55 0.5 4.55 1.05 4.55 1.8 4.5 2.2 4.5 2.25 4.45 2.3 4.45 2.35 4.4 2.4 4.35 2.5 4.3 2.55 4.2 2.65 4.15 2.75 4.1 2.85 4.0 2.95 3.9 3.0 3.85 3.05 3.65 3.2 3.35 3.4 2.9 3.6 2.85 3.6 0.7 3.6 0.65 3.55 0.6 3.5 0.55 3.45 0.55 3.4 0.5 3.35 0.15 3.25 -0.2 3.15 -0.4 3.05 -0.45 3.0 -0.6 2.9 -0.7 2.8 -0.8 2.7 -0.9 2.6 -0.9 2.5 -0.95 2.45 -0.95 2.35 -1.0 2.3 -1.05 2.2 -1.05 2.1 -1.05 1.95 -1.05 1.8 -1.05 1.6 -1.05 1.3 -1.05 1.05 -1.0 0.95 -0.95 0.85 -0.9 0.7 -0.8 0.5 -0.7 0.3 -0.7 0.25 -0.65 0.2 -0.6 0.15 -0.6 0.05 -0.55 0.0 -0.5 -0.05 -0.5 -0.1 -0.4 -0.2 0.0 -0.55 Q0.6 -1.05 1.3 -1.25" fill="#663366" fill-opacity="0.101960786" fill-rule="evenodd" stroke="none"/>
    <path d="M3.1 2.75 L3.1 2.7 3.15 2.65 3.15 2.6 3.2 2.55 3.25 2.5 3.3 2.45 3.4 2.4 3.55 2.35 3.65 2.35 3.75 2.35 3.9 2.4 4.0 2.45 4.15 2.6 4.15 2.65 4.2 2.7 4.2 2.85 4.2 2.95 4.2 3.05 4.15 3.1 4.15 3.15 4.1 3.2 4.1 3.25 4.05 3.3 4.0 3.35 4.0 3.65 3.95 3.7 3.95 3.75 2.95 4.65 1.9 4.9 0.75 5.0 Q-1.0 5.55 -2.45 4.55 L-3.2 3.9 -3.3 3.85 -3.35 3.75 -3.4 3.65 -3.45 3.6 -3.55 3.5 -3.7 3.35 -3.75 3.3 -3.8 3.2 -3.95 3.05 -4.0 2.95 -4.0 2.85 -4.0 2.75 -4.0 2.65 -4.0 2.6 -3.95 2.55 -3.9 2.5 -3.85 2.4 -3.8 2.35 -3.75 2.3 -3.7 2.25 -3.65 2.2 -3.65 2.15 -3.65 2.05 -3.6 1.9 -3.6 1.75 -3.55 1.7 -3.55 1.65 -3.5 1.6 -3.4 1.6 -3.3 1.55 -3.15 1.6 -3.1 1.65 -3.05 1.7 -3.05 1.75 -3.0 1.8 -3.0 1.95 -2.95 2.05 -1.05 2.65 0.35 3.05 0.4 3.1 0.55 3.05 1.15 2.9 1.6 2.9 1.7 2.95 1.75 3.0 1.8 3.05 1.8 3.1 1.85 3.15 1.85 3.25 1.9 3.3 1.9 3.35 2.2 3.35 2.75 3.2 2.8 3.1 2.9 2.9 3.1 2.75" fill="#663366" fill-opacity="0.101960786" fill-rule="evenodd" stroke="none"/>
    <path d="M3.6 2.65 L3.9 2.55 4.0 2.55 4.1 2.6 4.25 2.6 4.35 2.65 4.4 2.7 4.45 2.75 4.5 2.8 4.5 2.85 4.55 2.9 4.55 3.1 4.5 3.15 4.45 3.2 4.45 3.25 4.4 3.3 4.3 3.35 4.3 3.4 4.25 3.45 4.2 3.5 4.1 3.55 4.0 3.6 3.8 3.8 3.75 3.8 3.65 3.85 3.6 3.9 3.55 3.95 3.45 4.0 3.4 4.05 3.35 4.05 3.25 4.1 3.15 4.15 3.05 4.2 3.0 4.25 2.95 4.3 2.85 4.3 2.7 4.35 2.6 4.35 2.45 4.4 0.4 4.6 -0.05 4.45 -0.7 4.3 -1.4 3.95 -1.5 3.95 -1.6 3.9 -1.85 3.85 -1.95 3.75 -2.0 3.7 -2.05 3.65 -2.05 3.3 -2.0 3.3 -2.0 3.25 -1.9 3.15 -1.0 3.0 -0.2 3.15 0.0 3.2 1.75 3.2 1.95 3.15 2.75 3.05 2.9 2.95 3.0 2.9 3.3 2.8 3.45 2.75 3.6 2.65" fill="#663366" fill-opacity="0.101960786" fill-rule="evenodd" stroke="none"/>
    <path d="M2.8 -3.3 L2.9 -3.25 2.95 -3.2 3.05 -3.2 3.15 -3.15 3.15 -3.1 3.4 -2.85 3.5 -2.8 3.55 -2.75 3.6 -2.7 3.65 -2.65 3.75 -2.6 3.8 -2.55 3.85 -2.5 3.9 -2.45 3.95 -2.45 3.95 -2.35 4.0 -2.3 4.0 -1.9 3.95 -1.85 3.95 -1.8 3.9 -1.75 3.85 -1.7 3.75 -1.7 3.6 -1.65 3.5 -1.65 3.4 -1.65 3.25 -1.7 3.15 -1.7 3.1 -1.75 3.05 -1.8 3.0 -1.85 3.0 -1.9 2.95 -1.95 2.85 -2.0 2.75 -2.05 2.7 -2.1 2.6 -2.1 2.45 -2.15 2.35 -2.15 2.05 -2.1 1.0 -2.15 -0.35 -2.15 -0.45 -2.1 -0.7 -2.05 -0.9 -2.0 -1.25 -1.9 -1.3 -1.85 -1.45 -1.85 -1.5 -1.8 -1.55 -1.75 -1.65 -1.7 -1.75 -1.7 -1.85 -1.65 -1.95 -1.65 -2.1 -1.7 -2.2 -1.65 -2.3 -1.6 -2.4 -1.6 -2.55 -1.6 -2.7 -1.65 -2.75 -1.7 -2.85 -1.65 -2.95 -1.65 -3.0 -1.7 -3.0 -1.75 -2.95 -1.8 -2.9 -1.85 -2.9 -1.9 -2.85 -1.95 -2.85 -2.15 -2.75 -2.25 -2.7 -2.3 -2.6 -2.4 -2.5 -2.5 -2.5 -2.55 -2.45 -2.6 -2.4 -2.65 -2.3 -2.65 -2.15 -2.75 -2.05 -2.75 -1.2 -3.25 1.25 -3.65 1.8 -3.65 2.35 -3.5 2.75 -3.35 2.8 -3.3" fill="#663366" fill-opacity="0.101960786" fill-rule="evenodd" stroke="none"/>
    <path d="M1.4 -1.6 L1.15 -1.55 0.65 -1.45 0.1 -1.4 0.0 -1.35 -0.05 -1.3 -0.1 -1.25 -0.15 -1.25 -0.25 -1.2 -0.35 -1.2 -0.45 -1.15 -0.55 -1.1 -0.65 -1.05 -0.75 -1.0 -0.85 -1.0 -1.0 -0.95 -1.05 -0.9 -1.15 -0.85 -1.25 -0.8 -1.35 -0.75 -1.4 -0.7 -1.45 -0.65 -1.4 -0.6 -1.4 -0.2 -1.4 -0.1 -1.4 0.0 -1.45 0.05 -1.45 0.1 -1.5 0.15 -1.5 0.25 -1.55 0.3 -1.6 0.35 -1.6 0.4 -1.7 0.5 -1.7 0.55 -1.9 0.75 -1.9 0.8 -1.95 0.85 -2.0 0.95 -2.05 1.0 -2.15 1.05 -2.2 1.05 -2.2 1.3 -2.15 1.35 -2.1 1.4 -2.05 1.45 -2.05 1.65 -2.1 1.7 -2.15 1.75 -2.2 1.8 -2.2 1.85 -2.25 1.9 -2.3 1.95 -2.3 2.0 -2.4 2.05 -2.5 2.1 -2.55 2.1 -2.65 2.1 -2.85 2.1 -2.95 2.05 -3.15 1.85 -3.25 1.8 -3.3 1.75 -3.35 1.7 -3.4 1.65 -3.4 1.6 -3.45 1.55 -3.45 1.4 -3.45 1.25 -3.45 1.15 -3.4 1.0 -3.35 0.75 -3.35 0.65 -3.3 0.6 -3.3 0.5 -3.25 0.45 -3.25 0.4 -3.2 0.35 -3.2 0.1 -3.15 0.05 -3.1 0.0 -3.1 -0.1 -3.05 -0.2 -3.0 -0.25 -2.95 -0.3 -2.95 -0.35 -2.85 -0.4 -2.85 -0.45 -2.8 -0.5 -2.8 -0.55 -2.75 -0.6 -2.7 -0.7 -2.65 -0.7 -2.6 -0.75 -2.6 -0.8 -2.55 -0.85 -2.5 -0.95 -2.4 -1.0 -2.4 -1.05 -2.3 -1.1 -2.25 -1.15 -2.15 -1.2 -2.1 -1.25 -2.0 -1.3 -1.8 -1.4 -1.75 -1.45 -1.7 -1.45 -1.6 -1.5 -1.55 -1.55 -1.45 -1.6 -1.35 -1.65 -1.15 -1.75 -0.85 -1.9 -0.4 -2.05 -0.05 -2.15 0.05 -2.2 0.15 -2.25 0.2 -2.25 0.3 -2.3 0.4 -2.3 1.0 -2.3 1.25 -2.3 1.8 -2.3 2.25 -2.25 2.75 -2.2 2.85 -2.15 2.9 -2.1 3.05 -2.05 3.2 -2.05 3.3 -2.0 3.4 -1.95 3.45 -1.9 3.5 -1.85 3.5 -1.8 3.55 -1.75 3.5 -1.7 3.5 -1.65 3.4 -1.55 3.4 -1.5 3.35 -1.45 3.3 -1.45 3.2 -1.4 3.1 -1.45 3.05 -1.5 3.05 -1.6 2.9 -1.6 2.8 -1.6 2.65 -1.65 2.55 -1.65 2.25 -1.7 2.05 -1.7 1.95 -1.7 1.85 -1.7 1.8 -1.7 1.65 -1.7 1.6 -1.65 1.5 -1.65 1.4 -1.6" fill="#ffffff" fill-opacity="0.101960786" fill-rule="evenodd" stroke="none"/>
    <path d="M0.95 -3.05 Q2.6 -3.05 3.8 -2.05 5.0 -1.0 5.0 0.5 5.0 2.0 3.75 2.95 2.5 3.85 0.7 3.95 -1.1 4.0 -2.4 3.05 -3.7 2.0 -3.7 0.5 -3.7 -1.0 -2.2 -2.0 -0.7 -3.0 0.95 -3.05 M3.15 -1.35 Q2.05 -2.15 0.85 -2.15 -0.4 -2.15 -1.4 -1.4 -2.35 -0.65 -2.5 0.4 -2.7 1.45 -1.7 2.25 -0.75 3.05 0.8 2.9 2.25 2.75 3.2 2.2 4.1 1.55 4.1 0.5 4.1 -0.55 3.15 -1.35" fill="#333333" fill-rule="evenodd" stroke="none"/>
    <path d="M0.95 -0.55 L1.8 -0.25 Q2.15 0.05 2.15 0.5 2.15 0.95 1.75 1.2 L0.85 1.5 -0.05 1.25 Q-0.45 0.95 -0.45 0.5 -0.45 0.05 0.0 -0.25 L0.95 -0.55" fill="#333333" fill-rule="evenodd" stroke="none"/>
  </g>
</svg>
