<?xml version="1.0" encoding="UTF-8" standalone="no"?>
<svg xmlns:xlink="http://www.w3.org/1999/xlink" height="37.0px" width="37.0px" xmlns="http://www.w3.org/2000/svg">
  <g transform="matrix(1.0, 0.0, 0.0, 1.0, 17.5, 18.35)">
    <path d="M4.3 -3.9 Q4.3 -5.15 3.3 -6.05 2.35 -6.9 1.05 -6.9 -0.3 -6.9 -1.25 -6.05 -2.55 -4.8 -2.1 -3.15 L-4.6 -2.55 Q-4.95 -3.95 -4.55 -5.3 -4.15 -6.7 -3.05 -7.7 -1.35 -9.25 1.05 -9.25 3.4 -9.25 5.1 -7.7 6.85 -6.1 6.85 -3.9 6.85 -1.65 5.1 -0.1 L3.15 1.7 2.65 2.25 Q2.1 2.95 2.1 3.65 L2.1 5.05 -0.45 5.05 -0.45 3.65 Q-0.45 1.4 1.55 -0.1 L3.3 -1.75 Q4.3 -2.65 4.3 -3.9" fill="#93c7b7" fill-rule="evenodd" stroke="none"/>
    <path d="M5.1 -7.7 Q4.0 -8.45 3.1 -8.5 L1.6 -8.75 Q1.05 -8.95 1.05 -9.25 L-0.95 -8.8 -2.2 -8.25 -3.05 -7.7 Q-3.6 -6.7 -3.95 -6.45 L-4.55 -5.3 -4.95 -3.55 -4.6 -2.55 -3.05 -2.8 Q-2.6 -2.65 -2.1 -3.15 -2.2 -4.5 -1.9 -4.8 -1.55 -5.1 -1.25 -6.05 -0.7 -6.85 -0.1 -6.85 L1.05 -6.9 2.65 -6.25 3.3 -6.05 4.15 -5.15 4.3 -3.9 3.9 -2.65 Q3.9 -2.3 3.3 -1.75 2.1 -1.25 2.0 -1.05 L1.55 -0.1 Q0.6 0.8 0.3 1.5 L-0.3 2.85 -0.45 3.65 -0.45 5.05 1.2 4.85 2.1 5.05 2.1 3.65 2.65 2.25 Q2.75 2.7 3.15 1.7 L4.05 0.8 5.1 -0.1 5.95 -1.9 6.7 -3.3 Q7.25 -4.05 6.85 -3.9 6.15 -4.6 5.95 -5.8 5.8 -7.0 5.45 -7.3 L5.1 -7.7 Z" fill="none" stroke="#93c7b7" stroke-linecap="round" stroke-linejoin="round" stroke-width="0.5"/>
    <path d="M2.2 8.6 Q2.2 9.95 0.8 9.95 0.2 9.95 -0.2 9.55 -0.6 9.15 -0.6 8.6 -0.6 8.0 -0.2 7.6 0.2 7.2 0.8 7.2 1.45 7.2 1.8 7.6 2.2 8.0 2.2 8.6" fill="#93c7b7" fill-rule="evenodd" stroke="none"/>
    <path d="M0.8 9.95 Q1.1 9.95 -0.2 9.55 L-0.6 8.6 -0.2 7.6 0.8 7.2 Q1.1 7.7 1.8 7.6 1.75 7.8 2.2 8.6 1.15 9.25 1.0 9.6 L0.8 9.95 Z" fill="none" stroke="#93c7b7" stroke-linecap="round" stroke-linejoin="round" stroke-width="0.5"/>
    <path d="M15.35 -11.1 L16.0 -10.7 17.65 -8.0 17.7 -7.25 17.2 -6.65 16.75 -6.55 Q16.1 -6.55 15.85 -7.1 L14.4 -9.5 Q14.15 -9.85 14.2 -10.25 L14.6 -10.9 15.35 -11.1 M10.9 -13.25 L10.35 -13.45 Q9.2 -14.25 7.9 -14.85 7.5 -15.0 7.35 -15.4 7.2 -15.8 7.4 -16.15 L7.95 -16.7 8.7 -16.65 11.45 -15.1 11.9 -14.45 11.75 -13.7 Q11.45 -13.25 10.9 -13.25 M3.5 -17.2 L3.15 -16.5 Q2.85 -16.2 2.45 -16.25 L-0.4 -16.25 -0.45 -16.25 -1.15 -16.5 -1.45 -17.2 -1.2 -17.9 -0.55 -18.25 2.6 -18.25 3.3 -17.9 3.5 -17.2 M19.5 0.15 L19.25 3.35 Q19.05 4.15 18.25 4.15 L18.1 4.15 Q17.7 4.1 17.45 3.75 L17.3 3.0 17.5 0.15 17.4 -1.7 Q17.35 -2.1 17.65 -2.45 17.9 -2.75 18.3 -2.8 L19.05 -2.6 19.4 -1.95 19.5 0.15 M-5.85 -14.85 L-8.3 -13.45 -8.85 -13.25 Q-9.35 -13.25 -9.7 -13.7 L-9.85 -14.45 -9.4 -15.1 -6.65 -16.65 -5.9 -16.7 -5.35 -16.15 Q-5.15 -15.8 -5.3 -15.4 -5.45 -15.0 -5.85 -14.85 M-14.7 -6.55 L-15.15 -6.65 -15.6 -7.25 -15.6 -8.0 -13.95 -10.7 -13.3 -11.1 -12.55 -10.9 Q-12.2 -10.7 -12.15 -10.25 -12.05 -9.85 -12.3 -9.5 L-13.8 -7.1 Q-14.05 -6.55 -14.7 -6.55 M-17.35 -1.95 L-17.0 -2.6 -16.25 -2.8 -15.55 -2.45 Q-15.3 -2.1 -15.35 -1.7 L-15.5 0.15 -15.45 1.1 Q-15.4 1.5 -15.7 1.85 -16.0 2.15 -16.4 2.15 L-16.45 2.15 -17.1 1.9 -17.45 1.25 -17.5 0.15 -17.35 -1.95 M-14.75 6.05 Q-14.35 6.25 -14.2 6.6 L-12.85 9.1 Q-12.6 9.45 -12.7 9.85 L-13.15 10.5 -13.7 10.65 Q-14.2 10.65 -14.55 10.2 L-16.0 7.4 Q-16.4 6.5 -15.5 6.05 -15.1 5.9 -14.75 6.05 M-7.15 16.65 L-7.6 16.55 -10.3 14.8 -10.65 14.15 -10.45 13.4 Q-9.8 12.65 -9.05 13.25 L-6.7 14.75 Q-6.3 15.0 -6.2 15.35 -6.05 15.75 -6.25 16.1 -6.55 16.65 -7.15 16.65 M-1.3 16.5 L1.5 16.65 1.55 16.65 Q1.95 16.65 2.2 16.95 L2.5 17.65 2.25 18.35 1.55 18.65 1.0 18.65 -1.6 18.5 -2.25 18.1 -2.45 17.35 -2.05 16.7 -1.3 16.5 M16.75 7.9 L17.25 8.5 17.15 9.25 15.35 11.9 Q15.05 12.25 14.55 12.25 L13.95 12.05 Q13.6 11.8 13.6 11.35 13.55 10.95 13.8 10.6 L15.4 8.3 16.0 7.8 16.75 7.9 M7.4 17.5 Q6.7 17.5 6.45 16.85 6.3 16.5 6.45 16.1 6.65 15.7 7.0 15.55 L9.55 14.3 10.3 14.2 10.9 14.65 Q11.15 15.0 11.05 15.4 L10.6 16.0 Q9.15 16.9 7.75 17.4 L7.4 17.5" fill="#93c7b7" fill-opacity="0.49803922" fill-rule="evenodd" stroke="none"/>
  </g>
</svg>
