<?xml version="1.0" encoding="UTF-8" standalone="no"?>
<svg xmlns:xlink="http://www.w3.org/1999/xlink" height="177.9px" width="181.45px" xmlns="http://www.w3.org/2000/svg">
  <g transform="matrix(1.0, 0.0, 0.0, 1.0, 94.7, 90.3)">
    <path d="M49.6 -51.05 Q52.35 -50.75 52.8 -48.0 L52.7 -46.8 52.4 -45.6 52.0 -44.4 51.1 -43.8 Q50.0 -43.4 49.1 -42.75 48.0 -42.0 47.2 -40.8 L46.3 -40.15 44.8 -39.7 43.2 -39.6 40.8 -40.4 40.1 -41.65 39.5 -42.75 38.2 -45.3 38.0 -46.4 38.2 -47.55 38.85 -48.8 Q40.0 -50.3 41.65 -51.05 L43.2 -51.6 49.6 -51.05 M3.2 -80.8 L8.0 -80.8 Q10.6 -79.6 13.3 -78.7 16.55 -77.7 19.1 -75.45 L20.0 -74.4 20.0 -73.2 20.2 -72.6 Q20.4 -72.4 20.8 -72.4 L23.2 -73.2 25.6 -74.0 30.4 -74.0 32.4 -73.2 33.2 -72.0 34.05 -70.85 35.05 -69.5 35.6 -68.4 35.85 -67.2 35.9 -64.8 35.6 -62.4 34.75 -61.25 33.6 -60.0 32.75 -59.25 32.0 -58.8 30.4 -58.55 24.0 -58.4 Q22.8 -58.8 21.7 -59.4 L20.3 -60.3 18.8 -61.2 13.55 -58.5 Q9.35 -56.45 4.8 -55.2 L-3.2 -55.2 -5.6 -56.0 -6.4 -56.8 -6.4 -53.2 -6.8 -52.0 -7.75 -49.65 -9.6 -46.0 Q-14.9 -39.25 -22.7 -36.2 -33.65 -32.0 -43.2 -36.75 L-43.2 -36.0 -43.2 -33.6 -43.2 -30.0 -43.2 -28.8 -43.6 -27.6 -44.0 -26.4 -44.85 -25.25 -46.0 -24.0 -46.8 -23.2 -49.7 -22.7 -49.6 -20.4 -49.45 -16.8 -49.2 -12.0 -49.0 -10.85 -48.5 -9.55 -48.0 -8.4 -48.0 -7.2 -48.0 -6.0 -48.0 -4.8 -48.0 -3.6 -48.2 -2.5 Q-49.6 0.6 -51.65 3.25 -54.95 7.45 -59.15 10.8 L-57.25 11.7 -54.0 13.6 -53.65 14.8 -53.35 17.2 -52.95 22.0 -52.8 25.6 -53.2 26.8 -53.7 27.95 -54.35 29.25 -55.6 31.6 -56.35 32.3 -55.4 33.05 Q-53.1 34.95 -51.6 37.6 L-51.6 40.0 -51.7 42.4 -52.0 44.8 -52.8 46.0 -53.7 47.1 -55.2 48.4 -57.6 49.2 Q-66.9 51.15 -74.0 46.8 L-74.25 45.6 -74.4 43.2 -74.4 42.0 -74.4 40.8 -74.0 39.6 -73.5 38.45 -72.8 37.2 -72.5 36.95 Q-77.75 36.15 -82.0 32.8 L-82.6 31.55 -82.9 30.4 Q-83.0 29.8 -83.35 29.3 -83.8 28.6 -84.4 28.0 L-84.65 26.8 -84.8 24.4 -84.8 19.6 -84.8 16.0 -83.95 14.85 -82.8 13.6 -82.1 12.95 -83.2 12.7 -86.0 12.0 -87.2 10.8 -88.3 9.55 -89.95 7.15 -91.2 4.8 -91.3 3.6 Q-91.75 0.05 -91.7 -3.6 L-91.6 -18.0 -91.6 -20.4 -91.05 -21.5 -90.0 -22.8 -88.8 -24.0 -87.6 -25.2 -86.4 -26.4 -85.15 -27.1 -82.8 -28.0 -81.6 -29.2 -80.4 -30.4 -79.6 -31.2 -79.25 -31.35 -80.0 -32.0 -80.0 -33.2 -80.0 -35.6 -79.9 -38.0 -79.6 -40.4 -78.75 -41.55 -77.6 -42.8 -76.4 -44.0 Q-75.2 -44.6 -74.15 -45.4 L-73.2 -46.4 -73.2 -47.6 -73.2 -50.0 -73.1 -52.4 -72.8 -54.8 -70.6 -56.95 -65.2 -60.8 -64.4 -62.0 -63.7 -63.25 -63.1 -64.35 -62.4 -65.6 Q-60.8 -66.2 -59.25 -66.95 -55.4 -68.8 -51.2 -68.6 L-51.2 -68.8 -46.15 -67.95 -44.2 -67.35 -43.6 -68.4 -42.4 -69.6 -41.3 -70.85 -39.6 -73.2 -39.6 -74.4 -39.6 -75.6 -39.6 -76.8 -39.6 -78.0 -38.75 -79.15 -36.95 -81.7 Q-35.7 -83.65 -34.0 -85.2 L-32.7 -86.2 Q-31.6 -86.8 -30.4 -87.2 L-22.4 -87.4 -22.4 -87.6 -11.2 -87.6 -8.8 -86.8 -7.3 -85.5 -6.4 -84.4 -5.8 -83.15 Q-5.4 -82.0 -5.35 -80.8 L-5.2 -77.8 Q-1.25 -79.85 3.15 -80.6 L3.2 -80.8 M66.4 -30.8 L66.4 -32.0 67.65 -33.15 68.85 -33.8 70.35 -34.2 70.4 -34.4 80.0 -34.4 81.6 -33.95 83.45 -33.0 84.4 -32.0 85.0 -30.75 85.2 -29.6 85.2 -27.2 85.2 -26.0 84.8 -24.8 84.4 -23.6 83.5 -22.5 Q80.7 -19.85 76.8 -20.0 L75.25 -20.2 Q71.6 -21.2 68.1 -22.7 67.4 -23.0 66.8 -23.6 L66.55 -24.8 66.4 -27.2 66.4 -30.8 M57.65 -1.55 L58.8 -2.8 61.2 -5.2 62.4 -6.4 63.65 -6.95 65.55 -7.4 65.6 -7.6 68.8 -7.55 76.8 -7.2 78.7 -6.25 80.0 -5.2 80.6 -3.95 80.8 -2.8 80.9 0.8 Q81.05 2.65 80.4 4.4 L79.85 5.5 78.8 6.8 75.2 10.4 74.55 11.1 76.0 11.6 77.55 12.85 78.8 14.0 79.5 15.25 80.0 16.4 80.4 17.6 80.4 18.8 80.4 23.6 80.4 33.2 80.4 35.6 Q78.95 42.0 72.9 44.5 67.6 46.75 62.3 47.0 L62.4 47.2 62.4 48.4 62.4 49.6 62.4 52.0 62.4 54.4 62.0 55.6 61.5 56.75 60.8 58.0 Q58.6 59.2 56.25 59.9 53.55 60.75 50.8 61.05 L50.8 61.6 50.35 62.8 49.2 65.2 47.95 67.55 47.2 68.8 46.3 69.9 44.8 71.2 43.2 72.4 42.15 73.7 41.5 74.75 40.0 77.2 39.2 78.4 37.55 79.55 35.65 80.9 33.2 82.8 30.45 83.75 Q16.35 89.45 4.0 81.6 L3.7 81.05 2.4 81.2 1.85 82.3 0.8 83.6 -1.6 84.4 -8.0 84.1 Q-9.4 84.0 -10.65 83.3 L-11.6 82.4 -12.2 81.15 -12.4 80.0 -12.35 78.8 -12.05 75.2 -12.0 74.0 -11.15 72.85 -10.0 71.6 -8.9 70.3 Q-7.35 68.15 -4.8 68.2 L-4.8 68.0 2.8 68.2 2.8 63.6 2.8 62.4 3.25 61.2 Q3.8 60.0 4.65 59.0 6.1 57.25 7.1 55.15 L7.6 54.0 8.8 52.8 10.0 51.6 11.2 50.4 11.9 49.15 12.5 48.05 14.0 45.6 14.8 44.4 16.75 43.15 18.45 42.05 20.0 41.2 Q20.2 41.0 20.45 40.95 L22.35 40.6 22.4 40.4 33.75 40.4 34.0 39.6 34.85 38.45 36.45 35.85 Q37.25 34.05 38.8 32.8 L39.6 32.55 41.55 32.2 41.6 32.05 41.6 32.0 41.6 31.2 41.6 27.6 41.6 22.8 43.3 20.5 Q47.75 15.1 54.0 12.0 L57.2 10.4 56.6 9.15 56.4 8.0 56.25 3.2 Q56.15 1.35 56.8 -0.4 L57.65 -1.55 M-32.65 -26.5 L-30.45 -27.4 -30.4 -27.6 -25.6 -27.6 -23.7 -26.65 -22.4 -25.6 -21.35 -24.3 -20.8 -23.2 -20.4 -22.0 -20.4 -20.8 -20.3 -18.4 Q-20.15 -16.55 -20.8 -14.8 L-21.7 -13.75 -24.75 -11.15 -25.6 -10.4 Q-30.35 -9.9 -35.25 -10.6 -38.3 -11.0 -38.8 -14.0 L-38.7 -15.2 -38.3 -16.35 -37.6 -17.2 -36.8 -17.55 -34.4 -18.4 -34.15 -19.6 -34.1 -22.0 Q-34.25 -23.85 -33.6 -25.6 L-32.65 -26.5 M-8.05 34.15 Q-7.0 34.4 -6.1 34.95 L-4.8 36.0 Q-4.2 37.2 -3.95 38.45 -3.6 40.2 -3.9 41.95 L-4.4 43.2 Q-8.55 45.0 -14.25 42.85 -16.0 42.2 -17.6 41.2 L-17.6 40.0 -17.35 38.9 -16.4 37.6 -12.4 35.25 Q-10.7 34.25 -9.6 34.0 L-8.05 34.15 M-44.45 59.7 Q-43.6 60.2 -42.8 60.8 L-42.1 62.05 -41.6 63.2 -41.3 64.4 -41.2 65.2 -40.05 64.7 -39.15 64.05 -38.4 63.6 -36.85 63.5 Q-32.25 64.15 -28.95 66.95 -28.4 67.4 -28.0 68.0 L-28.1 69.2 -28.5 70.35 -29.3 71.5 -30.4 72.4 -32.0 72.6 Q-36.15 72.6 -40.0 74.0 L-48.0 74.0 -54.4 74.0 -56.65 72.95 -57.6 72.0 -57.85 70.8 -58.0 68.4 -58.0 64.8 -57.55 63.6 -56.3 61.25 Q-54.9 58.95 -52.8 58.8 L-46.4 58.8 -44.45 59.7" fill="#908282" fill-opacity="0.5019608" fill-rule="evenodd" stroke="none"/>
    <path d="M10.2 -66.05 L14.25 -69.55 16.95 -69.7 Q31.75 -72.0 37.85 -59.55 L38.45 -57.45 Q25.95 -51.15 11.4 -51.45 5.15 -51.6 -1.05 -52.7 -7.9 -43.05 -17.5 -36.6 -27.4 -30.0 -39.45 -31.65 L-47.1 -23.4 Q-42.85 -8.75 -49.65 4.75 -52.6 10.65 -57.55 15.05 L-56.15 17.4 Q-52.5 24.1 -54.9 31.15 L-55.8 33.3 -56.2 34.05 Q-52.35 35.95 -52.05 40.0 -51.25 49.95 -60.8 48.25 L-62.1 47.55 -63.45 46.25 -63.15 43.4 -69.4 36.85 -66.65 21.9 -72.5 11.85 Q-77.05 11.9 -78.8 7.9 L-79.0 7.15 -79.15 5.55 -79.1 3.75 -76.35 2.75 Q-70.3 1.0 -64.8 -1.5 L-64.05 -1.95 -62.15 -4.1 -63.4 -20.95 -60.2 -24.05 Q-64.1 -25.5 -62.85 -29.7 -61.75 -33.2 -57.85 -34.0 L-56.0 -34.35 -54.1 -34.4 Q-53.7 -49.5 -34.45 -46.4 L-28.75 -45.35 Q-25.7 -46.15 -23.35 -48.2 -19.55 -51.4 -19.2 -56.5 L-19.2 -58.4 -19.4 -60.35 -12.0 -67.55 10.2 -66.05" fill="#908282" fill-opacity="0.2" fill-rule="evenodd" stroke="none"/>
    <path d="M-57.3 -18.25 Q-40.5 -27.3 -48.45 -8.2 -65.55 32.75 -70.1 -13.55 L-57.3 -18.25" fill="#908282" fill-opacity="0.2" fill-rule="evenodd" stroke="none"/>
    <path d="M-56.6 -28.15 L-56.9 -30.0 Q-57.95 -38.0 -51.25 -42.55 -44.85 -53.25 -35.3 -52.4 12.25 -47.15 -31.25 -34.4 -41.75 -21.95 -56.6 -28.15" fill="#908282" fill-opacity="0.2" fill-rule="evenodd" stroke="none"/>
    <path d="M19.8 -67.95 Q20.5 -66.5 19.9 -65.05 15.1 -53.1 4.7 -56.9 L3.9 -59.95 0.95 -60.95 4.05 -66.6 12.2 -68.9 Q16.3 -69.95 19.8 -67.95" fill="#908282" fill-opacity="0.2" fill-rule="evenodd" stroke="none"/>
    <path d="M-41.7 72.75 Q-44.9 71.6 -46.9 68.75 L-46.8 60.75 -41.4 65.15 -31.9 64.35 -30.15 71.4 Q-35.4 75.15 -41.7 72.75" fill="#908282" fill-opacity="0.2" fill-rule="evenodd" stroke="none"/>
    <path d="M-53.15 20.6 L-51.6 22.5 -52.35 34.65 Q-55.9 38.85 -61.35 38.65 -64.2 38.4 -66.6 36.85 L-66.6 33.1 -59.1 27.3 -58.45 20.6 -53.15 20.6" fill="#908282" fill-opacity="0.2" fill-rule="evenodd" stroke="none"/>
    <path d="M-15.15 41.1 Q-13.45 41.1 -12.25 42.35 -11.05 43.55 -11.05 45.25 -11.05 46.95 -12.25 48.2 -13.45 49.4 -15.15 49.4 -16.85 49.4 -18.05 48.2 -19.25 46.95 -19.25 45.25 -19.25 43.55 -18.05 42.35 -16.85 41.1 -15.15 41.1" fill="#908282" fill-opacity="0.2" fill-rule="evenodd" stroke="none"/>
    <path d="M-32.5 -10.0 L-34.7 -13.75 -33.45 -20.35 -31.4 -21.55 Q-26.95 -24.3 -22.2 -22.55 L-18.2 -16.9 -18.45 -13.8 -19.55 -15.35 -26.3 -8.8 -32.5 -10.0" fill="#908282" fill-opacity="0.2" fill-rule="evenodd" stroke="none"/>
    <path d="M35.95 -46.9 L37.5 -47.55 48.75 -42.55 Q46.55 -41.35 43.95 -40.4 39.2 -38.7 35.05 -41.3 L35.95 -46.9" fill="#908282" fill-opacity="0.2" fill-rule="evenodd" stroke="none"/>
    <path d="M72.1 -30.4 Q74.55 -32.85 77.8 -33.75 L82.5 -33.5 84.05 -32.95 85.25 -32.2 86.75 -26.1 83.75 -20.95 71.55 -19.4 70.0 -21.3 72.1 -30.4" fill="#908282" fill-opacity="0.2" fill-rule="evenodd" stroke="none"/>
    <path d="M73.75 -4.85 L75.3 -4.4 77.5 -0.65 75.95 8.75 73.75 10.0 75.4 25.5 Q77.4 27.4 78.25 29.7 L78.65 31.5 78.7 33.15 78.5 34.0 78.2 34.75 77.8 35.55 73.15 38.1 67.3 58.35 55.35 62.8 Q48.85 74.6 35.75 75.45 19.15 76.6 6.85 87.2 L5.65 87.5 Q-1.55 88.4 -4.9 81.8 -6.5 78.65 -6.0 75.05 L-5.6 72.35 Q-3.4 70.9 -0.85 70.15 4.05 68.7 9.2 68.75 L17.5 69.05 Q19.2 52.15 35.2 46.8 43.35 44.1 50.05 40.3 50.95 32.4 55.3 25.55 59.0 19.75 63.15 14.35 L62.5 5.0 73.75 -4.85" fill="#908282" fill-opacity="0.2" fill-rule="evenodd" stroke="none"/>
    <path d="M65.1 13.5 Q62.65 7.25 66.55 1.55 L68.75 0.9 72.5 3.4 72.8 5.3 Q76.5 9.95 78.2 15.4 83.4 32.45 67.2 41.25 71.1 49.5 66.35 56.7 60.9 64.9 50.4 63.4 48.65 66.3 46.45 68.75 22.65 94.75 -12.2 82.8 L-13.0 81.0 Q25.15 75.5 55.1 51.2 53.35 46.25 54.0 41.15 55.5 29.6 66.2 24.05 L67.0 17.55 Q65.9 15.6 65.1 13.5" fill="#908282" fill-opacity="0.2" fill-rule="evenodd" stroke="none"/>
    <path d="M41.2 -54.0 L43.2 -54.2 Q46.4 -53.7 49.1 -51.95 50.95 -50.8 52.2 -49.0 L52.2 -48.1 52.2 -47.2 52.2 -46.3 51.9 -45.4 51.5 -44.5 51.4 -44.2 Q46.35 -38.95 39.1 -41.5 37.85 -41.95 36.8 -42.7 L36.65 -44.5 36.7 -45.7 36.7 -46.9 37.5 -48.7 38.35 -49.95 38.8 -50.5 39.9 -51.4 40.8 -52.3 40.65 -52.6 40.45 -52.95 40.4 -53.2 40.4 -53.5 40.75 -53.75 41.2 -54.0 M44.3 -51.15 Q44.2 -51.25 44.25 -51.4 L44.25 -51.65 44.0 -52.0 43.6 -52.05 43.2 -52.05 43.1 -52.0 41.55 -50.75 40.3 -49.6 39.55 -48.35 38.6 -46.9 38.5 -46.6 38.5 -45.7 38.5 -44.8 38.5 -43.9 Q44.2 -40.75 49.2 -44.5 L49.7 -45.35 50.0 -46.3 50.2 -46.9 50.2 -47.2 50.2 -47.5 50.2 -47.8 50.2 -48.1 50.1 -48.4 Q48.75 -50.15 46.85 -51.3 45.35 -52.2 44.5 -51.1 L44.3 -51.15 M20.3 -74.9 L20.05 -74.65 20.05 -74.6 20.1 -74.4 20.0 -74.1 19.8 -73.8 19.4 -73.5 19.4 -73.2 19.35 -72.9 19.2 -72.8 19.0 -72.9 19.0 -73.2 18.85 -73.45 18.5 -73.8 18.35 -74.1 17.6 -75.55 16.35 -77.35 15.5 -78.6 15.2 -78.85 13.25 -80.15 12.0 -81.0 Q6.2 -81.85 0.4 -81.0 L-4.0 -80.1 -4.4 -80.15 -4.85 -80.35 -5.05 -80.6 -5.1 -80.9 -4.95 -81.1 -3.8 -81.55 -3.9 -81.7 -4.3 -82.3 -4.5 -82.6 Q-16.15 -91.15 -30.7 -86.4 -37.15 -84.35 -40.1 -78.2 L-40.8 -77.0 -40.9 -76.7 -41.0 -75.8 -41.1 -75.5 -41.3 -75.2 -41.6 -74.6 -41.8 -74.3 -41.85 -74.0 -41.9 -73.4 -41.9 -73.1 -42.0 -72.8 -42.0 -72.5 -42.0 -72.2 -42.0 -72.15 -38.95 -73.55 -38.0 -74.0 -37.6 -74.05 -36.1 -74.3 -35.6 -74.4 -33.6 -74.3 -33.15 -74.05 -33.0 -73.8 -32.9 -73.5 -33.1 -73.2 -33.25 -73.05 -33.6 -72.9 Q-39.9 -71.95 -44.8 -67.6 -48.25 -64.55 -49.7 -60.1 L-49.8 -59.8 -49.8 -59.5 -49.9 -59.2 -50.05 -59.0 -50.65 -58.9 -50.9 -59.1 -50.9 -59.4 -50.75 -59.95 Q-50.5 -60.5 -50.9 -60.9 -50.5 -63.65 -48.9 -65.95 -47.5 -67.95 -45.7 -69.55 -51.1 -70.15 -56.75 -67.8 -65.35 -64.2 -68.85 -55.5 -70.7 -50.85 -71.7 -45.9 L-71.7 -45.6 -71.7 -45.3 -71.7 -45.0 -71.65 -44.4 -71.65 -43.8 -71.55 -43.7 -71.2 -43.2 -71.55 -42.65 -72.3 -41.7 -73.0 -41.4 -73.6 -41.1 -74.55 -40.25 -75.4 -39.6 -76.1 -38.7 -76.5 -37.8 -76.6 -37.5 -76.6 -36.3 -76.6 -35.1 -76.6 -34.8 -76.35 -34.2 -76.15 -33.85 -76.0 -33.85 Q-74.65 -33.9 -74.6 -32.8 L-74.65 -32.5 -74.8 -32.4 -74.95 -32.5 -75.1 -32.8 -75.4 -32.75 -75.35 -32.7 -74.9 -32.1 -75.05 -31.85 -75.6 -31.3 -76.1 -31.5 -76.75 -32.05 -77.25 -32.45 Q-83.55 -31.0 -87.3 -25.0 -93.5 -14.95 -92.65 -3.0 L-92.6 -0.9 -92.5 -0.6 -92.4 -0.3 -92.1 0.9 -91.7 2.1 -91.6 2.4 -91.55 2.7 -91.6 3.0 -91.6 3.3 -91.5 3.6 -91.4 3.9 -90.85 5.1 -90.3 6.3 -90.45 6.55 -90.8 6.7 -91.1 6.65 Q-90.2 8.95 -88.85 11.05 -86.9 14.1 -84.0 16.2 L-83.8 16.5 -83.7 16.8 -83.7 16.85 -83.6 16.8 Q-83.15 16.95 -82.8 17.2 L-82.4 17.7 -82.4 17.95 -82.3 18.0 -81.9 18.3 -82.45 18.35 -82.75 18.85 -83.0 18.9 -83.05 18.6 -83.15 18.5 -83.4 18.7 -83.45 21.4 Q-83.35 22.75 -83.4 24.1 -82.75 26.25 -81.7 28.2 -80.8 29.95 -79.3 31.3 -78.05 31.65 -77.2 32.5 L-76.95 32.7 -74.7 33.45 Q-72.2 34.3 -69.6 34.3 L-67.9 35.0 -67.6 35.4 -68.0 35.65 -69.6 36.1 -73.9 35.7 Q-73.8 36.15 -73.85 36.7 L-73.8 38.8 -73.8 40.9 Q-68.95 49.7 -58.15 47.3 -55.85 46.8 -53.9 45.4 L-53.6 45.1 -53.4 44.8 -53.1 44.2 -52.7 43.6 -52.7 42.7 -52.7 41.5 -52.7 40.3 -52.7 40.0 -52.8 39.7 -53.0 39.4 -53.3 38.8 -53.6 38.2 -53.7 37.9 -55.5 36.1 Q-56.6 34.95 -57.95 34.2 L-58.1 34.3 -61.6 35.65 -63.0 36.1 -63.45 36.0 -63.8 35.8 -60.2 33.15 -60.2 33.1 -60.1 33.05 -55.8 29.6 Q-54.0 28.15 -52.7 26.2 -52.55 25.3 -52.55 24.4 -52.55 23.3 -52.7 22.3 L-52.9 20.8 -53.25 19.6 -53.55 18.4 -53.8 17.5 -55.7 15.0 Q-56.85 13.45 -58.5 12.4 L-59.25 11.55 -59.8 10.95 -60.4 11.2 -60.8 11.25 -61.2 11.25 -61.9 11.3 -63.95 12.0 -64.8 12.0 Q-64.0 11.2 -62.75 10.7 L-61.7 10.2 Q-53.65 6.25 -47.75 -0.55 -46.8 -1.65 -46.25 -3.05 L-45.8 -3.9 Q-45.55 -8.2 -46.35 -12.25 -47.35 -16.9 -50.4 -20.7 L-50.6 -20.95 -50.95 -21.3 -51.5 -21.9 -51.45 -22.2 -51.25 -22.45 -50.8 -22.7 -50.2 -22.5 -50.45 -22.65 -50.8 -22.9 -50.8 -23.2 -50.75 -23.45 -50.5 -23.8 Q-47.8 -25.35 -44.9 -26.5 L-43.7 -27.7 -42.8 -28.6 -42.7 -28.9 -42.6 -29.2 -42.5 -29.5 -42.5 -30.7 -42.5 -31.6 -42.5 -31.9 -42.9 -33.1 -43.2 -34.0 -43.3 -34.3 -43.25 -34.6 -43.15 -35.2 -43.3 -35.4 -43.6 -35.9 Q-44.05 -36.35 -44.1 -36.9 L-43.85 -37.1 -43.4 -37.2 -43.0 -36.9 -42.7 -36.6 -40.6 -35.7 -40.0 -35.4 -35.3 -35.15 -35.45 -35.3 Q-37.25 -38.55 -37.9 -42.2 -38.35 -44.65 -38.05 -47.1 L-37.9 -47.25 -37.6 -47.4 -37.6 -47.45 -37.3 -47.3 Q-36.95 -43.7 -35.9 -40.2 L-34.55 -35.15 Q-19.0 -35.45 -7.45 -46.65 -6.45 -47.6 -5.9 -48.85 L-5.0 -51.2 -5.0 -52.4 -5.0 -53.9 -5.1 -54.2 -5.2 -54.5 -5.3 -54.8 -5.3 -55.1 -5.25 -55.7 -5.25 -55.8 -5.75 -55.55 -5.8 -57.7 Q-4.0 -58.9 -2.55 -60.55 L-2.1 -61.1 -2.0 -62.3 Q-2.1 -63.35 -1.2 -63.45 L-1.2 -63.5 -0.75 -63.25 -0.6 -63.0 Q-0.45 -62.55 -0.45 -62.1 L-0.3 -60.9 Q-1.3 -59.1 -2.6 -57.8 L-2.3 -57.7 -1.1 -56.5 -0.3 -55.9 Q6.2 -54.05 12.1 -56.9 L12.5 -57.2 13.0 -57.5 14.3 -59.55 15.3 -61.4 15.55 -61.65 16.0 -61.85 16.0 -61.9 16.4 -61.6 16.7 -61.1 16.7 -60.8 16.45 -60.2 16.2 -59.9 15.65 -58.35 15.0 -56.9 Q8.05 -51.2 -0.9 -54.25 -3.0 -54.95 -3.65 -56.85 L-4.25 -56.4 -3.95 -56.25 -3.7 -56.0 -3.5 -55.4 -3.15 -54.5 -3.0 -54.2 -3.0 -52.7 -3.0 -50.9 -3.0 -50.6 Q-7.35 -39.35 -19.45 -35.5 -27.9 -32.8 -36.8 -33.15 L-40.6 -33.6 -41.2 -33.95 -40.85 -32.4 -40.7 -29.1 -40.8 -28.8 -41.05 -27.9 -41.1 -27.6 -42.5 -26.1 -43.7 -24.9 -47.6 -23.1 -49.95 -22.4 -49.5 -22.2 -49.3 -21.9 -49.1 -21.6 -48.9 -21.3 -48.5 -21.0 Q-45.35 -17.05 -44.35 -12.25 -43.65 -9.05 -43.75 -5.7 L-43.8 -3.6 Q-46.35 3.65 -53.35 7.6 L-58.2 10.15 -54.95 13.45 -52.0 16.6 -51.45 18.1 -51.2 19.3 -50.9 20.2 -50.7 22.3 -50.55 25.0 -50.6 26.5 Q-51.85 28.85 -53.7 30.7 -54.9 32.0 -56.35 33.1 -54.35 33.95 -52.8 35.6 -51.25 37.3 -50.5 39.5 L-50.5 40.7 -50.5 42.2 -50.5 44.0 -50.75 44.55 -51.25 45.45 -51.8 46.4 -52.0 46.7 Q-62.05 53.25 -72.2 46.2 -74.75 44.4 -75.8 41.4 L-75.75 39.6 Q-75.7 38.4 -75.8 37.2 -75.9 36.2 -75.55 35.3 L-77.1 34.85 Q-79.35 34.1 -81.2 32.7 L-81.2 32.4 -81.15 32.2 -82.6 30.6 -83.8 29.2 -84.6 27.1 -85.4 24.7 -85.3 21.7 -85.3 18.7 -85.2 18.4 -85.1 18.1 -84.8 17.5 -84.6 17.4 Q-90.4 13.85 -92.4 7.35 L-93.8 2.0 -93.75 1.7 -94.15 0.3 -94.3 -0.3 -94.6 -0.9 -94.7 -5.1 Q-94.8 -8.75 -94.15 -12.3 L-92.7 -18.6 Q-91.7 -20.15 -90.95 -21.85 -90.1 -23.75 -88.85 -25.45 L-85.0 -30.3 -83.3 -31.5 Q-81.45 -33.0 -79.2 -33.8 L-78.8 -33.9 -78.45 -33.85 -78.5 -33.9 -78.65 -35.4 -78.6 -36.6 -78.6 -37.2 -78.05 -38.65 -77.5 -39.9 -77.2 -40.5 Q-76.2 -41.2 -75.3 -42.0 L-74.7 -42.6 -73.1 -43.4 -73.1 -43.7 -73.1 -44.0 -73.1 -44.3 -73.1 -44.6 -73.1 -45.8 -73.2 -46.1 -73.4 -46.4 -73.4 -46.7 -73.4 -47.0 -73.4 -47.3 Q-72.65 -51.25 -71.25 -55.05 -66.85 -66.9 -54.5 -70.1 L-50.4 -71.2 -46.8 -71.3 Q-45.3 -71.45 -44.25 -70.7 L-43.4 -71.3 -43.5 -71.4 -43.55 -71.7 -43.65 -72.6 -43.7 -72.9 -43.7 -73.2 -43.7 -73.8 -43.7 -74.4 -43.65 -74.65 -43.1 -75.6 -42.85 -76.2 -42.65 -77.1 -42.6 -78.0 -41.2 -80.45 Q-37.1 -87.45 -29.0 -88.85 L-23.2 -89.9 Q-16.8 -91.05 -10.95 -88.8 -7.0 -87.3 -3.9 -84.4 L-3.8 -84.1 -3.8 -83.8 -3.9 -83.5 -3.7 -83.2 -3.3 -82.6 -3.1 -82.3 -2.9 -82.0 -2.85 -81.9 -0.8 -82.5 4.4 -83.4 Q8.15 -83.85 11.7 -82.8 14.55 -82.0 16.9 -80.1 L17.1 -79.8 18.05 -78.6 18.9 -77.4 19.3 -76.8 19.35 -76.65 19.4 -76.7 Q24.1 -77.85 28.8 -77.4 33.9 -76.75 37.25 -72.85 39.4 -70.3 40.2 -66.9 L40.2 -66.3 40.2 -65.7 40.2 -65.4 40.2 -65.1 40.2 -64.8 40.0 -64.2 39.9 -63.6 39.75 -63.0 39.5 -62.4 39.25 -62.15 38.6 -61.9 38.3 -61.6 38.0 -61.3 37.7 -61.0 37.6 -60.95 Q34.75 -56.35 28.0 -56.05 L21.75 -56.45 Q19.0 -56.9 16.8 -58.7 L16.7 -59.3 16.55 -59.9 16.5 -60.2 16.75 -60.45 17.2 -60.7 17.7 -60.5 Q19.65 -58.65 22.3 -57.9 28.6 -57.05 34.3 -59.6 35.75 -61.1 36.75 -63.0 L37.7 -65.0 37.95 -65.25 38.25 -65.35 38.2 -66.4 37.7 -67.9 37.25 -69.05 36.35 -70.9 36.2 -71.2 Q33.25 -74.7 28.8 -75.4 24.45 -76.05 20.3 -74.9 M5.25 -62.1 L5.4 -61.95 5.5 -60.25 5.5 -58.55 5.55 -58.35 5.65 -58.0 5.75 -57.8 5.75 -57.45 5.7 -57.05 5.65 -56.85 5.25 -56.85 4.75 -57.05 4.75 -57.25 4.75 -57.45 4.75 -57.6 4.65 -57.8 4.55 -58.2 4.5 -58.35 4.5 -60.25 4.5 -61.95 4.7 -62.1 4.95 -62.2 5.0 -62.25 5.25 -62.1 M9.0 -59.75 L9.1 -59.6 9.2 -59.05 9.15 -58.3 9.1 -58.1 9.0 -57.95 8.75 -57.8 8.45 -57.95 8.3 -58.1 8.3 -58.7 8.3 -59.45 8.3 -59.6 8.45 -59.75 8.7 -59.9 8.75 -59.95 9.0 -59.75 M2.7 -59.25 L2.75 -58.5 2.75 -58.3 2.7 -58.15 2.55 -57.75 2.5 -57.55 2.45 -57.35 2.35 -57.0 2.3 -56.85 2.0 -56.85 Q1.75 -56.9 1.5 -57.05 L1.5 -57.25 1.5 -57.6 1.5 -57.8 1.55 -58.0 1.6 -58.15 1.75 -58.35 1.65 -59.3 Q1.65 -59.9 2.25 -59.9 L2.25 -59.95 2.55 -59.8 2.7 -59.25 M71.35 -38.05 L70.8 -38.1 Q70.55 -38.2 70.35 -38.35 L70.15 -38.6 70.1 -38.9 70.45 -39.25 71.4 -39.6 73.2 -40.1 76.0 -40.2 Q81.95 -38.95 85.0 -33.9 87.0 -30.55 86.6 -26.5 L86.3 -25.6 85.7 -24.1 84.2 -22.0 83.9 -21.7 Q79.15 -19.05 73.75 -20.3 L68.6 -21.7 68.0 -22.3 67.7 -22.6 67.1 -23.2 66.5 -23.8 66.2 -24.4 66.1 -24.7 65.9 -25.3 65.6 -26.2 65.5 -26.5 65.55 -27.7 65.65 -29.5 Q65.75 -30.9 66.25 -32.2 L66.3 -32.5 67.3 -34.0 Q68.1 -35.35 69.2 -36.5 70.1 -37.35 71.2 -37.9 L71.35 -38.05 M67.8 -31.35 L67.2 -29.6 67.2 -28.4 67.2 -27.2 67.6 -26.0 67.9 -25.1 69.0 -23.9 69.6 -23.3 Q75.75 -20.55 81.85 -23.15 83.25 -23.75 83.85 -25.2 L84.6 -27.3 84.6 -28.2 84.6 -29.1 84.6 -29.4 Q84.25 -31.3 83.3 -32.95 82.25 -34.8 80.7 -36.15 79.25 -37.35 77.6 -37.4 L77.2 -36.5 76.9 -35.9 76.75 -36.2 76.75 -36.8 76.8 -37.1 Q74.95 -37.65 72.7 -37.1 70.35 -35.75 68.85 -33.55 68.15 -32.55 67.8 -31.35 M75.2 -26.6 L75.3 -26.45 75.4 -26.25 75.45 -26.05 75.45 -25.7 75.45 -25.1 75.45 -24.95 75.95 -24.2 76.45 -23.45 76.45 -23.3 75.9 -23.2 75.2 -23.95 74.8 -24.5 74.7 -25.05 74.7 -25.8 74.55 -26.4 Q74.45 -26.85 74.95 -26.8 L75.2 -26.6 M77.95 -26.35 L78.1 -26.45 78.3 -26.55 78.8 -26.6 79.15 -26.55 80.35 -25.6 81.5 -24.5 81.8 -24.3 82.0 -24.1 81.8 -23.95 81.1 -24.1 80.85 -24.2 80.05 -24.85 79.1 -25.7 79.0 -25.8 78.15 -26.1 77.95 -26.35 M58.7 -1.1 Q59.55 -3.5 61.1 -5.5 L63.25 -7.7 63.05 -7.65 62.7 -7.4 62.5 -7.1 62.25 -6.85 61.8 -6.7 61.9 -7.0 62.1 -7.3 62.3 -7.6 62.5 -7.9 62.5 -8.2 62.5 -8.5 62.6 -8.8 62.9 -9.1 63.4 -9.4 63.9 -9.7 64.35 -10.05 64.6 -10.3 65.2 -10.5 65.7 -10.6 66.2 -10.7 66.6 -10.8 67.2 -10.95 67.2 -11.0 73.05 -10.45 Q75.65 -10.05 77.9 -8.7 L78.2 -8.4 78.85 -7.55 79.7 -6.35 80.6 -4.5 80.55 -3.9 80.55 -0.9 Q80.65 2.45 78.55 5.05 L77.9 6.0 77.5 6.3 76.5 6.9 75.4 7.5 75.1 7.7 74.8 7.8 74.35 7.85 Q75.9 8.6 77.1 10.0 L77.45 10.4 76.85 10.95 76.35 11.5 75.7 10.95 Q83.25 22.7 79.0 36.3 76.25 45.1 68.85 50.85 L66.4 52.8 66.0 52.9 65.3 53.0 65.2 53.05 65.4 53.7 Q63.95 61.3 55.95 63.6 L52.85 64.05 52.9 64.9 Q52.95 66.0 52.6 67.0 L52.6 67.3 52.6 67.6 Q44.2 82.05 27.25 84.25 18.4 85.35 9.7 84.0 L9.0 83.9 6.9 84.95 8.1 85.25 8.45 85.35 7.6 85.9 7.2 86.2 Q-4.05 89.55 -13.3 83.1 -13.7 82.25 -14.35 81.55 L-15.0 80.7 Q-15.4 79.4 -15.3 78.0 L-15.2 75.3 -14.35 73.45 -14.3 73.25 Q-13.85 71.95 -12.8 71.1 L-12.5 70.8 -12.2 70.5 -11.6 70.2 -9.2 69.0 -8.4 68.7 -5.75 68.65 -5.7 68.6 -5.6 68.55 -5.2 68.45 -5.2 68.4 2.4 68.4 2.85 68.65 3.1 68.9 3.3 69.2 3.45 69.5 3.4 69.8 3.3 70.1 2.95 70.3 2.55 70.3 2.3 70.1 -3.15 70.2 -3.25 70.25 -3.55 70.65 -3.7 70.9 -4.2 71.0 -4.3 70.7 -4.3 70.4 -5.2 70.5 -5.75 70.55 -6.0 70.7 -6.4 70.8 -6.85 70.95 -7.2 71.2 -7.5 71.25 -7.6 70.95 -7.4 70.65 -8.6 70.7 -9.2 71.0 -9.8 71.3 -11.0 71.9 -11.3 72.2 -12.4 73.4 -12.65 73.8 -12.75 74.0 -13.2 75.2 -13.3 75.5 -13.5 75.8 -13.6 75.9 -13.55 76.6 -13.5 78.1 -13.25 79.0 -13.1 79.9 Q-9.6 84.25 -4.05 85.0 -3.6 84.5 -2.8 84.5 L-1.2 84.3 -1.0 84.1 -0.8 84.0 Q3.3 84.55 6.8 83.1 L6.2 82.8 5.55 82.0 Q5.2 81.4 5.2 80.7 L5.35 80.4 5.65 80.15 6.0 80.0 6.5 80.2 6.7 80.5 6.9 80.8 Q15.35 84.1 24.9 82.35 L33.25 80.5 Q46.0 77.15 51.1 65.5 L51.15 64.0 51.15 63.8 49.6 63.2 49.55 62.9 49.65 62.3 49.8 62.0 49.95 61.75 50.4 61.4 51.15 61.5 51.3 61.7 52.0 61.8 52.0 61.75 52.0 61.7 52.25 61.8 Q60.5 62.35 63.1 54.7 L63.1 54.3 62.8 54.4 62.4 54.15 62.3 53.9 63.0 53.25 63.0 53.2 Q63.0 51.95 64.0 51.75 L64.0 51.7 64.5 51.9 64.7 52.25 64.9 52.1 65.1 51.8 65.2 51.5 Q75.75 43.95 78.0 31.65 79.05 26.0 78.3 20.3 77.45 17.55 76.2 15.0 L73.8 10.1 73.9 9.2 73.9 9.15 73.3 8.4 73.35 8.1 73.5 7.9 73.6 7.85 73.45 7.8 73.2 7.6 73.45 7.35 74.5 6.7 75.65 5.85 76.5 5.2 76.7 4.9 Q77.55 3.95 78.0 2.75 78.75 0.75 78.7 -1.4 L78.7 -3.5 78.65 -3.8 78.4 -4.4 77.85 -5.35 77.05 -6.55 76.6 -7.1 75.0 -8.0 Q72.4 -9.1 69.7 -9.2 L69.5 -9.0 69.25 -8.75 69.0 -8.7 68.9 -8.85 68.0 -8.8 Q65.05 -7.25 62.9 -4.8 61.3 -3.0 60.5 -0.7 L60.5 0.2 60.5 1.7 60.5 2.6 60.6 2.9 60.7 3.2 60.8 3.5 60.9 3.8 61.65 4.35 63.3 5.3 63.5 5.6 63.7 5.9 64.2 6.15 Q64.85 6.35 65.45 6.7 L65.7 6.9 65.6 6.95 64.9 6.8 64.2 6.6 63.9 6.5 63.4 6.65 63.2 6.8 61.65 6.55 61.55 6.65 61.2 6.9 Q53.95 6.9 49.0 12.6 44.8 17.45 43.5 23.7 L43.5 24.0 43.5 24.9 43.5 26.7 43.5 27.3 43.5 27.6 43.7 28.2 44.35 29.7 44.9 30.9 45.0 31.2 45.2 31.5 45.5 31.8 46.3 32.7 47.7 34.5 48.1 34.8 49.65 35.65 Q50.5 36.05 50.7 36.9 L50.5 37.2 50.35 37.35 50.0 37.5 48.95 36.9 46.8 35.8 46.2 35.6 45.6 35.0 44.35 33.45 44.25 33.3 44.05 33.45 43.6 33.7 43.15 33.45 43.0 33.2 Q39.35 32.8 36.25 35.55 L34.1 37.9 34.0 38.2 33.85 38.8 33.5 39.7 33.5 40.0 33.45 40.6 33.3 41.2 33.2 41.3 32.35 41.2 32.1 41.0 32.1 40.7 32.1 40.45 31.8 40.5 31.4 40.5 31.65 40.25 31.95 39.85 32.0 39.8 31.95 39.6 Q24.4 39.1 18.05 43.55 13.75 46.5 10.7 50.7 L9.8 51.9 8.9 54.0 7.6 57.3 6.8 59.75 5.9 63.3 5.8 63.6 5.8 63.9 5.8 64.2 5.65 65.4 5.5 66.9 5.4 67.2 5.3 67.5 5.3 67.8 5.3 68.1 5.3 68.7 5.3 69.6 5.2 69.9 5.05 70.2 5.0 70.5 5.0 70.8 5.1 71.1 5.15 71.4 5.1 71.7 4.8 71.8 4.45 71.65 4.3 71.4 4.3 71.1 4.2 70.8 4.05 70.55 3.75 70.2 3.5 69.9 3.5 69.6 3.45 68.7 Q3.35 67.2 3.55 65.7 L3.65 64.5 3.8 63.3 3.8 63.0 Q4.45 58.7 6.2 54.75 10.85 44.2 21.7 39.65 24.3 38.55 26.8 38.0 L29.2 38.0 32.0 38.1 32.05 38.15 32.4 37.1 Q34.25 34.25 37.3 32.75 39.85 31.5 42.4 31.1 L42.5 31.1 42.05 30.2 41.55 29.0 41.4 28.7 41.3 28.4 Q40.9 23.9 42.35 19.7 46.25 8.5 57.6 5.1 L59.6 5.15 59.45 4.9 59.05 4.05 58.7 3.1 58.7 1.9 58.7 0.4 58.7 -0.8 58.7 -1.1 M71.85 -0.2 L72.15 0.0 72.2 0.15 72.35 1.45 72.35 2.75 72.6 3.5 72.8 4.25 72.95 4.45 73.15 4.65 73.55 5.35 73.55 6.15 73.35 6.2 72.8 6.15 72.55 5.75 72.35 5.2 72.15 5.0 71.95 4.8 71.6 3.9 71.35 2.95 71.35 1.45 71.4 0.15 71.55 0.0 71.85 -0.15 71.85 -0.2 M76.1 2.8 L76.4 3.0 76.7 3.3 76.75 3.5 76.7 3.7 76.65 3.9 76.45 4.0 76.15 4.05 75.9 3.9 75.6 3.95 75.3 3.8 75.15 3.65 75.2 3.45 75.5 3.1 75.7 2.95 75.85 2.9 76.1 2.85 76.1 2.8 M67.45 4.0 L67.7 3.95 68.0 4.5 67.95 5.05 Q68.05 5.45 68.45 5.7 L68.8 6.0 68.65 6.15 68.35 6.3 67.4 5.8 67.2 5.65 67.15 4.5 Q67.15 4.15 67.45 4.0 M71.9 35.45 L72.45 36.6 72.9 37.7 72.8 37.8 72.3 37.9 71.5 36.85 70.95 35.65 71.2 35.5 71.6 35.35 71.9 35.45 M67.1 32.15 L67.4 32.35 68.8 36.05 Q69.4 37.8 69.55 39.65 L69.6 39.85 69.65 40.2 69.7 40.6 69.65 40.75 69.65 41.15 69.7 41.5 69.5 41.5 69.4 41.4 69.35 41.0 69.15 40.85 68.95 40.65 68.05 36.65 66.8 32.95 66.35 32.6 Q65.7 32.15 66.35 32.05 L66.55 32.0 67.1 32.15 M66.45 41.5 L66.55 41.7 66.65 41.9 67.45 42.5 67.45 42.65 66.5 42.75 66.05 42.6 65.9 42.4 65.7 42.0 65.35 41.65 65.15 41.45 64.9 40.9 64.65 40.35 64.7 39.75 65.1 39.45 65.2 39.45 65.65 40.15 65.9 40.95 66.3 41.35 66.45 41.5 M17.35 73.8 L17.05 74.9 17.05 77.35 17.05 79.4 17.45 80.15 17.8 80.7 18.35 81.0 18.55 81.15 18.55 81.3 18.45 81.5 18.25 81.65 17.85 81.7 17.75 81.75 17.5 81.8 17.1 81.7 16.35 80.6 15.9 79.65 15.9 77.2 15.9 75.15 16.3 73.85 16.55 72.7 16.4 72.15 Q16.35 71.65 16.85 71.7 L17.15 72.1 17.35 72.65 17.35 73.8 M13.15 76.1 L13.35 76.65 13.4 78.5 Q13.45 79.45 13.0 80.15 L12.85 80.0 12.75 79.85 12.65 79.65 12.6 78.35 12.6 77.0 12.4 76.45 12.35 75.9 12.5 75.75 12.55 75.75 12.75 75.7 12.85 75.7 13.15 76.1 M3.7 80.4 L5.05 80.65 5.0 80.7 4.9 81.3 4.8 81.9 4.8 82.05 3.6 81.4 3.55 81.1 3.4 80.85 3.0 80.5 3.2 80.35 3.7 80.4 M0.1 79.4 L-0.05 80.15 -0.4 81.1 -0.4 81.65 -0.5 82.4 -0.65 82.5 -0.75 82.55 -1.0 82.65 -1.4 82.5 -1.6 82.35 -1.65 81.75 -1.65 81.0 -1.65 80.85 -1.5 80.45 -1.35 79.9 -1.25 79.7 -1.25 79.5 -1.3 79.35 -1.4 79.2 -1.2 79.0 -1.1 78.85 -1.05 78.65 -1.05 78.25 -1.0 78.1 -0.8 77.95 -0.55 77.8 -0.5 77.75 -0.2 77.9 -0.1 78.1 0.0 78.25 0.05 78.45 0.05 78.85 0.05 79.2 0.1 79.4 M27.25 76.85 L27.5 77.0 27.6 77.15 27.65 77.35 27.7 77.7 27.75 77.9 27.9 78.05 28.1 78.25 27.9 78.45 27.8 78.55 27.75 78.65 27.5 78.65 27.0 78.4 Q26.7 78.0 26.7 77.45 26.7 77.1 27.0 76.9 L27.25 76.85 M22.65 75.7 L22.65 75.9 22.55 76.1 22.5 76.25 22.5 77.2 22.5 78.35 22.6 78.7 22.85 79.25 22.75 79.4 22.5 79.6 22.25 79.5 21.9 79.4 21.75 79.2 21.55 78.85 21.5 78.65 21.5 77.5 21.5 76.2 21.7 75.85 21.8 75.25 21.85 75.1 22.0 74.9 22.25 74.85 22.5 75.0 22.6 75.15 22.65 75.35 22.65 75.5 22.65 75.7 M54.95 56.6 L54.8 56.75 54.7 56.85 54.5 56.95 53.85 57.15 53.8 57.25 53.85 57.45 Q54.0 57.95 54.55 58.3 L54.75 58.6 54.75 58.75 54.7 58.9 54.3 59.0 54.25 59.0 52.75 58.35 52.7 58.15 52.7 57.4 52.7 57.0 52.75 56.65 52.9 56.45 53.1 56.3 53.35 56.15 53.5 56.1 53.75 56.05 53.75 56.0 54.5 56.1 Q54.9 56.15 54.95 56.6 M49.45 52.85 Q48.65 54.75 48.4 56.8 48.2 58.55 48.25 60.35 L48.3 60.5 48.35 60.7 48.3 60.9 48.3 61.1 48.35 61.25 47.75 61.0 47.25 60.45 Q47.15 58.25 47.45 56.15 47.7 54.3 48.55 52.6 L49.4 51.8 49.85 51.7 Q50.25 51.95 50.0 52.25 L49.45 52.85 M45.2 55.15 L45.0 55.7 44.75 56.45 44.7 56.65 44.7 56.85 44.7 57.0 44.7 57.2 44.85 57.6 45.0 57.95 45.0 58.15 44.5 58.1 44.0 57.9 Q43.7 57.7 43.75 57.3 L43.8 56.6 43.8 56.4 44.0 55.85 44.25 55.1 44.3 54.9 44.9 54.3 45.35 54.2 Q45.75 54.45 45.5 54.75 L45.2 55.15 M-40.55 -41.8 L-40.35 -41.6 Q-40.1 -41.35 -40.15 -41.05 L-40.1 -40.3 -40.1 -40.1 -39.85 -39.35 -39.55 -38.4 -39.4 -38.25 -39.15 -37.85 -39.1 -37.65 -39.1 -37.5 -39.15 -37.3 -39.3 -37.1 -39.6 -37.0 -39.9 -37.1 -40.6 -38.45 -41.1 -39.75 -41.1 -40.1 -41.05 -40.65 -41.05 -40.85 -41.1 -41.05 -41.2 -41.25 -41.3 -41.6 -41.15 -41.75 -40.85 -41.9 -40.85 -41.95 -40.55 -41.8 M-60.05 -0.05 L-59.95 0.15 -59.9 0.3 -59.85 0.5 -59.8 1.45 -59.8 2.4 Q-59.3 3.25 -59.05 4.25 L-58.55 5.75 -58.6 5.95 -58.7 6.15 -58.8 6.3 -59.0 6.45 -59.3 6.5 Q-59.95 5.55 -60.15 4.45 -60.35 3.6 -60.9 2.95 L-60.9 1.45 -60.8 0.15 -60.65 0.0 -60.35 -0.15 -60.35 -0.2 -60.05 -0.05 M-18.4 -24.9 L-18.4 -24.3 -18.4 -24.0 Q-18.65 -23.05 -19.2 -22.25 -20.4 -20.4 -22.05 -18.85 L-22.2 -18.6 -22.6 -18.3 -23.05 -18.4 -23.35 -18.65 -23.4 -18.9 Q-23.45 -19.4 -23.1 -19.8 L-21.4 -21.6 -20.6 -22.5 -20.45 -22.8 -20.3 -23.4 -20.1 -24.0 -20.0 -24.3 -20.0 -24.6 -20.0 -24.9 -20.05 -25.2 -20.2 -25.5 Q-24.65 -26.65 -28.65 -24.4 L-30.0 -23.3 -30.2 -23.0 -30.3 -22.7 -30.4 -22.4 -30.5 -22.1 -30.5 -21.8 -30.5 -21.2 -30.6 -20.6 -30.5 -20.3 -29.6 -20.0 -29.85 -19.8 -30.4 -19.65 -30.3 -19.1 -30.65 -18.9 -31.1 -18.8 -31.25 -19.1 -31.4 -19.45 -32.6 -19.3 -33.1 -19.05 -34.7 -18.1 -35.0 -17.8 -35.3 -17.5 -35.4 -17.2 -35.4 -16.9 -35.5 -16.3 -35.6 -16.0 -35.7 -15.7 -35.7 -15.4 -35.7 -15.1 -35.7 -14.5 -35.7 -14.2 -35.6 -13.9 -35.4 -13.6 -35.1 -13.0 -34.8 -12.7 -34.5 -12.4 -33.9 -11.8 -33.6 -11.5 Q-31.85 -10.35 -29.8 -10.0 -25.95 -9.35 -23.3 -11.8 L-23.1 -12.1 -23.0 -12.4 -22.7 -13.0 -22.6 -13.3 -22.6 -13.6 -22.6 -13.9 -22.6 -14.5 -22.6 -14.8 -22.6 -15.1 -22.6 -15.4 -22.75 -15.7 -23.25 -16.6 -23.4 -16.9 -23.5 -17.2 -23.5 -17.8 -23.4 -18.1 -23.2 -18.25 -22.85 -18.3 -21.7 -17.9 -21.5 -17.6 -21.3 -17.3 -20.9 -16.7 -20.7 -16.4 -20.65 -16.1 -20.6 -15.2 -20.6 -14.9 -20.6 -14.6 -20.6 -13.7 -20.6 -12.8 -20.65 -12.5 -20.9 -11.9 -21.2 -11.3 -21.4 -11.0 -21.6 -10.7 Q-22.6 -9.9 -23.75 -9.3 -26.3 -7.95 -29.2 -8.3 L-31.55 -8.95 Q-33.35 -9.35 -34.75 -10.55 L-36.3 -12.0 -36.4 -12.3 -36.5 -12.6 -36.8 -13.2 -37.0 -13.5 -37.1 -13.8 -37.1 -14.4 -37.1 -15.3 -37.1 -15.6 -37.0 -16.5 -36.7 -17.7 -35.55 -18.95 Q-34.9 -19.5 -34.1 -19.85 L-32.0 -20.5 -31.85 -20.5 -31.9 -20.6 -31.9 -20.9 -31.9 -21.5 -32.0 -22.1 -32.0 -22.4 -31.95 -22.7 -31.8 -23.3 -31.6 -23.9 -31.3 -24.2 -30.4 -25.1 -30.1 -25.4 Q-28.5 -26.55 -26.6 -26.95 L-23.2 -27.6 -21.2 -27.45 -19.5 -27.0 -19.2 -26.7 -18.65 -26.05 -18.5 -25.8 -18.45 -25.5 -18.4 -24.9 M-32.45 -40.35 L-32.05 -39.6 -31.05 -38.85 -30.7 -38.5 -30.8 -38.35 -31.1 -38.15 -31.95 -38.4 -32.35 -38.55 -32.7 -38.9 -33.1 -39.3 -33.45 -40.05 -33.6 -40.8 -33.5 -40.95 -33.3 -41.15 -33.1 -41.25 -32.8 -41.1 -32.45 -40.35 M-11.6 36.75 L-11.2 36.7 Q-9.25 36.9 -7.4 37.65 -5.6 38.35 -4.2 39.7 L-3.9 40.3 -3.75 40.9 -3.7 41.2 -3.6 41.5 -3.5 41.8 -3.5 42.1 -3.5 42.4 -3.5 42.7 -3.5 43.0 -3.5 43.3 -3.5 43.6 -3.8 44.2 -4.1 44.8 -4.3 45.1 -4.5 45.4 -6.15 46.55 -7.8 47.5 -8.4 47.7 -13.2 47.3 -13.8 47.1 -14.85 46.15 -15.4 45.6 -15.8 45.0 -16.0 44.7 -16.0 44.4 -16.0 44.1 -16.0 43.8 -16.0 43.5 -16.0 43.2 -16.0 42.9 -15.6 41.4 -14.95 40.0 Q-14.2 38.85 -14.3 37.8 L-14.3 37.5 -14.15 37.2 -14.0 37.0 -11.6 36.75 M-14.4 43.2 L-14.4 43.5 -14.35 44.1 -14.3 44.4 -13.75 44.95 -13.1 45.5 -8.2 45.7 -6.4 44.5 -5.7 43.9 -5.5 43.6 -5.4 43.3 -5.3 43.0 -5.3 42.7 -5.3 42.4 -5.3 42.1 -5.4 41.8 -5.6 41.2 -5.7 40.9 Q-8.5 38.15 -12.4 38.7 L-12.9 39.0 Q-13.75 39.95 -13.9 41.1 L-14.4 43.2 M-54.85 1.45 L-54.55 1.8 -54.1 2.35 Q-53.8 2.4 -53.55 2.6 L-53.35 2.9 -53.4 2.95 -54.05 3.15 -54.1 3.2 -54.35 3.2 -54.65 3.15 -55.25 2.6 -55.65 2.0 -55.8 1.85 -55.9 1.85 -56.2 1.9 -56.25 1.7 -56.1 1.35 -56.05 1.15 -55.9 1.0 -55.35 0.8 -55.35 0.75 -55.05 0.9 -54.9 1.1 -54.85 1.25 -54.85 1.45 M-63.85 4.45 L-63.65 4.3 -63.1 4.0 -63.1 3.95 -62.6 4.2 -62.35 4.5 -62.4 4.7 -62.55 4.85 -62.8 5.05 -62.8 6.0 -62.8 6.95 -62.8 7.15 -62.7 7.3 -62.7 7.5 -62.8 7.8 -63.1 7.9 Q-63.65 7.85 -63.9 7.45 L-63.95 6.15 -63.85 4.45 M-66.5 4.7 L-66.55 7.7 -66.45 7.9 -66.4 8.25 -66.4 8.45 -66.75 8.7 -67.2 8.65 -67.4 8.25 -67.65 7.7 -67.65 3.95 -67.55 1.15 -67.4 1.0 -67.1 0.85 -67.1 0.8 -66.8 0.95 Q-66.45 2.8 -66.5 4.7 M-70.85 7.7 L-71.4 7.55 -71.55 7.4 -71.7 7.0 -71.8 6.8 -71.75 6.1 Q-71.7 5.45 -71.9 4.95 L-71.9 4.75 -71.75 4.5 -71.45 4.45 -71.15 4.65 -70.95 4.8 -70.9 5.4 -70.9 6.3 -70.9 6.5 -70.8 6.9 -70.6 7.45 -70.6 7.65 -70.85 7.7 M-62.9 24.05 L-62.55 27.65 Q-62.45 29.1 -61.7 30.45 L-61.75 30.85 -61.95 31.4 -62.1 31.45 -62.7 31.45 -63.45 29.75 -63.95 28.25 -64.05 25.65 Q-64.1 24.35 -63.35 23.75 L-63.05 23.9 -62.9 24.05 M-65.9 30.4 L-65.6 31.0 -65.4 31.35 -65.5 31.5 -65.6 31.6 -65.85 31.7 -66.15 31.55 -66.35 31.4 -66.6 31.0 -66.8 30.65 -66.85 28.95 Q-66.9 28.0 -66.2 27.75 -65.85 28.4 -65.9 29.25 L-65.9 30.4 M-57.55 27.55 L-58.55 27.3 -59.1 27.15 -59.3 27.0 -59.9 26.65 -59.9 26.45 -59.95 26.25 -60.0 26.05 -60.05 25.9 -59.9 25.75 -59.6 25.6 -59.6 25.55 -59.3 25.7 Q-58.75 26.4 -57.9 26.65 -57.35 26.8 -56.95 27.2 L-57.05 27.35 -57.25 27.5 -57.55 27.55 M-41.4 59.4 L-40.55 60.3 -39.95 60.9 Q-39.6 61.6 -39.5 62.4 -39.4 63.05 -39.45 63.75 L-38.65 63.6 -38.05 63.45 -38.05 63.4 Q-34.5 63.15 -31.3 64.3 -28.8 65.2 -27.2 67.3 L-27.0 67.6 -26.9 67.9 -26.85 68.2 -26.75 68.5 -26.7 68.8 -26.6 69.1 -26.6 69.4 -26.65 69.7 -26.65 70.0 -26.65 70.3 -26.7 70.6 -26.8 70.9 -27.15 71.5 -27.6 72.1 -27.8 72.4 -28.05 72.7 -28.25 73.0 -28.75 73.25 Q-29.9 73.65 -30.9 74.2 L-31.55 74.5 Q-35.3 75.35 -38.35 73.65 L-38.7 73.4 -38.9 73.5 -39.7 74.1 -40.25 74.6 Q-49.05 76.7 -55.05 70.75 -57.15 68.65 -58.1 65.8 L-57.7 63.1 Q-57.4 59.95 -54.7 57.9 -53.2 56.75 -51.6 56.4 L-49.2 56.5 -49.1 56.5 -46.8 56.75 -46.8 56.7 Q-45.5 56.9 -44.3 57.45 L-42.2 58.5 -41.4 59.4 M-52.4 58.65 L-52.65 58.9 -52.95 59.0 -53.0 59.0 -54.25 60.2 -54.65 60.8 -55.2 61.4 -55.35 61.7 -55.45 62.0 -55.5 62.3 -55.8 63.2 -55.85 63.5 -55.85 63.8 -55.9 64.1 -55.95 65.0 -54.9 67.35 Q-53.65 69.4 -51.7 70.65 L-48.7 72.5 Q-44.35 73.75 -40.35 71.85 L-39.75 71.6 -39.7 71.35 -39.4 71.0 -38.9 70.8 -38.45 71.05 -38.35 71.15 -38.1 71.1 -37.75 71.4 -37.7 71.7 -37.85 72.0 -37.6 72.2 -36.7 72.5 -31.8 72.5 -31.2 72.2 -29.75 71.6 -29.45 71.3 -29.0 70.7 -28.7 70.1 -28.65 69.8 -28.6 69.5 -28.7 69.2 -28.8 68.9 -28.85 68.6 Q-29.8 67.35 -31.25 66.7 -35.2 64.9 -39.55 65.55 L-39.6 65.7 -39.7 66.0 -39.8 66.3 -39.85 66.6 -39.9 66.9 -40.05 67.2 -40.2 67.4 -40.3 67.45 -40.85 67.65 -41.2 67.9 -41.55 68.0 -41.6 67.9 -41.5 67.6 -41.4 67.3 -41.45 67.0 -41.45 66.7 -41.4 66.4 -41.5 66.1 -41.6 65.8 -41.55 65.55 -41.75 65.55 -42.4 65.5 -42.65 65.3 -42.6 65.0 -42.4 64.85 -42.1 64.7 -41.7 64.6 -41.5 64.5 -41.45 64.0 -41.45 63.4 -41.5 63.1 -41.6 62.8 -41.65 62.5 -41.65 62.2 Q-43.4 59.5 -46.5 58.9 L-51.6 58.3 -52.4 58.65 M-2.65 73.75 L-2.25 73.6 -2.0 73.75 -1.85 74.1 -2.0 74.25 -2.45 74.65 -3.05 76.0 -3.65 77.45 -3.65 79.5 -3.45 82.15 -3.6 82.4 -4.25 82.65 -4.65 82.5 -4.85 82.35 -5.0 79.9 -4.9 77.1 -4.7 76.5 -4.55 76.15 -4.4 75.75 -3.75 74.85 -3.25 74.1 -2.65 73.75 M-7.35 80.35 L-7.35 80.5 -7.3 80.7 -7.1 80.9 -7.3 81.25 -7.5 81.4 -8.05 81.25 -8.2 81.15 -8.2 80.4 -8.2 79.65 -7.85 78.45 Q-7.55 77.8 -6.9 77.7 -6.45 78.25 -6.9 78.9 L-7.35 79.75 -7.35 79.95 -7.35 80.35" fill="#333333" fill-rule="evenodd" stroke="none"/>
  </g>
</svg>
