<?xml version="1.0" encoding="UTF-8" standalone="no"?>
<svg xmlns:xlink="http://www.w3.org/1999/xlink" height="190.25px" width="190.75px" xmlns="http://www.w3.org/2000/svg">
  <g transform="matrix(1.0, 0.0, 0.0, 1.0, 98.0, 99.2)">
    <path d="M46.8 -57.5 L48.0 -57.85 48.05 -58.0 54.05 -58.0 55.3 -57.5 56.05 -56.75 56.75 -55.95 57.8 -54.5 58.0 -53.75 58.05 -53.0 58.05 -51.5 58.05 -50.75 57.55 -50.0 57.0 -49.3 56.3 -48.5 55.05 -48.0 51.05 -48.0 49.55 -48.55 48.05 -49.25 47.25 -49.95 45.35 -51.6 44.8 -52.25 44.8 -53.0 44.8 -53.75 44.85 -54.5 45.05 -55.25 45.35 -55.95 46.05 -56.75 46.8 -57.5 M22.8 -76.5 L23.55 -77.75 24.05 -77.9 28.0 -78.4 28.05 -78.5 31.05 -78.5 32.0 -78.2 33.2 -77.65 33.8 -77.0 34.15 -76.2 34.35 -75.5 34.55 -74.75 34.8 -74.0 34.5 -73.3 34.05 -72.5 33.5 -71.8 33.05 -71.25 31.05 -71.05 25.05 -70.75 Q24.3 -71.0 23.6 -71.4 23.15 -71.65 22.8 -72.0 L22.1 -72.8 21.85 -73.5 21.8 -74.25 22.05 -75.0 22.8 -76.5 M1.7 -86.85 L2.5 -86.25 3.5 -86.15 10.05 -86.25 11.2 -85.65 11.8 -85.0 12.1 -84.25 12.3 -82.75 12.3 -82.0 12.05 -79.05 11.55 -77.5 11.0 -77.2 7.0 -76.6 5.05 -76.65 2.25 -77.25 1.55 -77.0 1.0 -76.8 -0.75 -76.25 Q-6.25 -70.9 -12.85 -67.05 -21.15 -62.2 -30.25 -66.25 L-33.4 -65.65 -33.5 -65.25 -33.6 -64.55 -34.25 -63.0 -34.7 -62.25 -35.7 -60.0 -36.0 -59.25 -36.55 -58.55 -38.3 -57.15 Q-39.1 -56.65 -40.0 -56.25 L-40.55 -55.55 -42.3 -54.1 -43.7 -53.15 -45.25 -52.0 -47.0 -51.75 -53.15 -51.85 -57.75 -45.0 -57.55 -44.25 -57.55 -43.5 -57.8 -42.8 -58.25 -42.0 -59.05 -41.3 -61.25 -39.75 -62.0 -39.2 -62.0 -37.25 -62.0 -35.75 -62.3 -35.05 -62.7 -34.2 -63.05 -33.5 -63.8 -32.05 -64.25 -31.5 -64.75 -31.3 -66.0 -31.05 -67.25 -31.0 -67.8 -30.3 -68.5 -29.5 -70.0 -29.0 -74.95 -29.4 Q-76.25 -29.6 -77.5 -30.25 L-78.2 -31.05 -78.7 -31.75 -79.0 -32.5 -79.0 -33.25 -79.0 -34.0 -79.0 -34.75 -79.0 -35.5 -78.7 -36.25 -78.25 -37.0 -77.85 -37.8 -77.75 -38.5 -77.75 -39.25 -77.65 -39.95 -77.2 -40.7 -76.2 -41.45 -74.8 -42.4 -75.2 -43.0 -75.95 -44.5 -76.25 -45.25 -76.25 -48.25 -76.25 -54.25 -76.25 -55.75 -76.0 -56.5 -75.7 -57.25 -75.25 -58.0 -74.75 -58.75 -72.75 -60.25 -69.5 -62.5 -68.4 -63.95 -65.25 -67.0 -64.25 -67.75 -63.75 -68.5 -63.2 -69.2 -61.75 -70.75 -60.25 -71.5 -58.75 -72.25 -58.5 -72.35 -58.5 -73.0 -58.5 -75.25 -58.5 -76.0 -57.95 -76.75 -56.7 -78.2 -55.75 -79.0 -53.95 -79.45 -48.0 -80.6 -46.5 -81.0 -46.2 -81.75 -45.45 -83.25 -45.05 -84.05 Q-44.6 -85.25 -43.75 -86.25 L-41.7 -87.75 -38.5 -90.0 Q-36.75 -91.2 -34.75 -91.75 L-34.0 -92.5 -32.4 -93.9 -30.25 -95.5 -26.75 -97.75 -25.0 -98.15 -25.0 -98.25 -14.0 -97.35 Q-9.65 -96.6 -5.5 -95.25 L-4.55 -94.45 -3.25 -93.0 -2.75 -92.25 -2.25 -91.5 -2.25 -90.75 -2.25 -90.0 -2.25 -89.25 -2.25 -88.5 -2.1 -88.1 0.0 -87.45 1.7 -86.85 M80.3 -38.7 Q80.65 -39.0 81.1 -39.1 L82.0 -39.35 82.05 -39.5 85.05 -39.5 89.05 -39.5 90.25 -38.9 91.0 -38.2 91.55 -37.5 91.55 -36.75 91.5 -36.0 91.3 -35.25 91.05 -34.5 90.8 -33.75 90.25 -33.05 89.55 -32.25 89.45 -31.55 89.05 -30.75 88.5 -30.05 87.75 -29.3 87.05 -28.75 86.05 -28.6 82.05 -28.5 Q81.3 -28.75 80.6 -29.15 80.15 -29.35 79.8 -29.75 79.65 -30.1 79.65 -30.5 L79.55 -32.0 79.55 -35.75 79.55 -38.0 80.3 -38.7 M76.05 -2.2 Q75.55 -2.5 75.3 -3.25 L75.3 -4.0 75.4 -4.7 75.8 -5.25 77.0 -5.8 79.1 -6.85 80.05 -7.25 81.15 -6.55 82.3 -5.25 82.3 -4.5 82.2 -3.8 81.8 -3.0 81.2 -2.35 79.05 -1.0 Q77.4 -1.35 76.05 -2.2 M87.55 20.0 L88.05 20.75 88.45 21.55 88.55 22.25 88.55 23.0 88.55 24.5 88.55 26.0 88.45 28.25 88.3 29.0 87.75 29.75 87.05 30.5 86.3 31.25 86.3 32.0 86.3 32.75 86.3 33.5 86.0 34.25 85.25 35.75 84.25 37.25 Q83.45 38.3 83.05 39.5 81.0 41.5 78.35 42.65 76.75 43.35 75.1 43.55 L76.25 44.1 77.05 44.75 77.35 45.55 77.6 48.5 Q77.7 50.1 77.05 51.5 L76.0 52.1 Q71.45 53.85 67.8 51.25 L67.6 50.5 67.55 49.0 67.55 46.0 68.3 45.25 Q68.9 44.65 69.65 44.25 L71.05 43.5 72.25 43.5 69.3 42.75 68.5 42.1 67.3 41.25 66.05 40.5 65.35 39.75 64.8 39.0 64.05 37.5 63.8 36.75 63.8 36.0 63.8 35.25 63.8 34.5 63.8 33.75 63.45 33.05 62.8 32.25 62.05 31.5 61.6 30.75 61.3 30.0 61.05 29.25 60.8 28.5 60.8 27.75 60.8 27.0 60.8 26.25 61.05 25.5 61.35 24.8 61.8 24.0 62.3 23.25 63.1 22.55 64.25 21.7 66.3 20.25 68.05 19.8 70.8 19.25 71.85 18.6 74.8 17.0 75.8 16.5 77.0 16.4 77.05 16.25 Q80.3 15.85 83.2 17.25 85.55 18.4 87.55 20.0 M39.8 54.3 L40.55 53.75 Q40.65 53.65 40.8 53.6 L48.0 52.4 48.05 52.25 53.05 52.5 54.3 53.0 55.05 53.75 55.8 54.5 57.25 55.35 58.2 56.1 58.55 56.75 58.95 57.55 59.05 58.25 59.05 59.0 59.05 59.75 58.95 60.5 58.3 62.0 57.5 63.5 57.05 64.25 56.3 65.0 55.8 65.5 Q52.15 66.85 48.2 66.25 L48.5 66.8 48.85 67.5 49.25 68.3 49.55 69.05 50.35 69.7 51.55 70.55 52.05 71.3 52.5 72.05 52.85 72.7 53.5 73.55 54.05 74.3 54.3 75.05 54.55 75.8 54.55 76.55 54.55 77.3 54.55 78.05 54.3 78.8 54.05 79.55 53.5 80.25 52.8 81.05 52.05 81.8 51.25 82.2 49.55 82.8 49.05 83.55 47.95 84.95 45.75 87.25 44.8 88.05 43.05 88.3 37.3 87.85 36.55 87.55 Q33.5 87.75 30.55 88.55 19.3 91.6 12.5 85.45 L11.8 86.05 11.3 86.55 10.05 86.65 0.05 86.35 -3.75 85.55 -4.45 84.75 -4.85 84.0 -5.0 83.3 -5.75 82.55 -6.45 81.75 -6.85 81.0 -7.0 80.3 -6.9 79.55 -6.7 78.8 -6.2 78.05 -5.75 77.55 -5.2 77.35 -4.0 77.15 -4.0 77.05 2.0 77.1 8.6 77.5 8.65 76.8 8.8 71.55 8.8 69.3 9.1 68.55 Q11.85 64.2 15.8 60.75 19.2 57.75 23.8 56.75 L25.0 56.65 25.05 56.5 38.4 57.1 38.55 55.75 39.05 55.05 39.8 54.3 M-82.0 -23.0 L-80.55 -22.35 -79.75 -21.75 -79.35 -20.95 Q-78.85 -19.55 -78.9 -18.0 L-79.0 -14.25 Q-79.0 -13.85 -79.15 -13.55 L-81.25 -9.6 -83.0 -6.75 Q-83.35 -6.5 -83.75 -6.45 L-92.0 -5.75 -93.45 -6.35 -94.3 -6.9 -96.5 -8.25 -96.8 -9.75 -97.25 -16.5 Q-97.4 -18.95 -96.25 -21.0 L-95.7 -21.3 -88.0 -23.0 -82.0 -23.0 M-44.0 -14.75 L-39.75 -15.2 -38.5 -15.25 -36.85 -14.35 -36.25 -13.75 Q-35.7 -12.6 -36.2 -11.5 L-37.65 -7.8 -38.0 -7.25 Q-40.95 -6.95 -43.9 -8.0 -45.0 -8.35 -46.0 -9.0 L-46.15 -9.75 -46.25 -11.25 -46.25 -12.75 -45.65 -13.4 -44.0 -14.75 M-77.0 12.25 L-75.5 12.75 -74.75 13.3 -74.5 13.5 -71.0 13.9 -69.5 14.25 -68.55 15.05 -68.0 15.75 Q-67.55 17.6 -67.65 19.5 L-67.65 26.25 Q-67.55 28.2 -68.0 30.0 L-68.35 30.7 -69.75 32.25 -70.45 33.05 -70.75 33.5 -67.6 35.5 Q-66.6 36.0 -65.7 36.7 -64.15 37.9 -63.75 39.75 L-63.75 40.5 -63.8 41.25 -64.25 42.75 -65.0 43.5 -65.8 43.9 -67.0 44.25 -68.75 43.75 -69.5 43.0 -70.25 42.25 -71.0 41.5 -72.75 40.75 -74.75 39.75 -75.5 39.0 -76.2 38.25 -77.25 36.75 Q-77.75 34.5 -81.75 34.35 -83.25 34.25 -84.65 33.6 L-85.5 33.0 -86.5 31.5 -87.55 30.05 -88.15 29.2 -89.25 27.0 -89.25 24.0 -89.3 21.75 Q-89.45 18.7 -89.0 15.75 L-88.45 15.05 -87.75 14.25 -87.0 13.5 Q-83.3 11.85 -79.0 12.4 L-79.0 12.25 -77.0 12.25 M-55.75 72.05 L-55.2 71.3 -54.5 70.55 -53.75 69.8 -52.25 69.05 -51.25 68.55 -50.0 68.4 -50.0 68.3 -47.0 68.45 -44.0 68.55 Q-43.35 68.8 -42.8 69.15 -42.35 69.4 -42.0 69.8 L-41.6 70.55 -41.55 71.25 -41.7 72.05 -42.05 73.5 -42.25 74.3 Q-44.45 76.5 -47.35 77.6 -51.9 79.3 -55.25 76.55 L-55.65 75.75 -55.75 75.05 -55.75 74.3 -55.75 72.8 -55.75 72.05" fill="#908282" fill-opacity="0.5019608" fill-rule="evenodd" stroke="none"/>
    <path d="M12.2 -82.55 L13.05 -81.4 Q15.85 -77.15 12.9 -72.95 L10.0 -71.9 -4.05 -75.35 Q-27.1 -59.1 -54.95 -51.3 -58.2 -38.7 -70.1 -33.2 L-71.25 -30.35 -72.5 -30.05 -76.25 -33.45 -72.2 -42.85 -69.4 -43.8 -60.95 -59.4 Q-47.45 -61.85 -39.25 -72.25 L-37.2 -75.95 Q-27.7 -78.75 -18.45 -75.95 -5.55 -89.85 12.2 -82.55" fill="#908282" fill-opacity="0.2" fill-rule="evenodd" stroke="none"/>
    <path d="M-10.2 -78.7 L-10.65 -76.75 Q-14.25 -62.5 -28.65 -66.9 -39.75 -46.9 -56.6 -54.4 L-54.7 -66.6 Q-36.25 -91.1 -10.2 -78.7" fill="#908282" fill-opacity="0.2" fill-rule="evenodd" stroke="none"/>
    <path d="M-75.95 17.8 L-64.7 18.9 -63.85 29.0 -67.1 33.3 -63.45 36.85 -65.35 42.15 -67.5 42.8 Q-71.9 40.7 -75.05 37.0 -83.4 27.25 -75.95 17.8" fill="#908282" fill-opacity="0.2" fill-rule="evenodd" stroke="none"/>
    <path d="M-92.85 -19.4 L-84.3 -18.25 -78.15 -15.65 Q-78.35 -13.1 -79.95 -11.9 -95.6 0.15 -92.85 -19.4" fill="#908282" fill-opacity="0.2" fill-rule="evenodd" stroke="none"/>
    <path d="M-45.75 72.2 Q-44.85 72.85 -44.85 73.75 -44.85 74.65 -45.75 75.3 -46.65 75.95 -47.9 75.95 -49.15 75.95 -50.05 75.3 -50.95 74.65 -50.95 73.75 -50.95 72.85 -50.05 72.2 -49.15 71.55 -47.9 71.55 -46.65 71.55 -45.75 72.2" fill="#908282" fill-opacity="0.2" fill-rule="evenodd" stroke="none"/>
    <path d="M37.5 66.25 L36.05 59.75 51.55 53.75 59.7 53.75 Q61.7 55.6 60.75 57.7 41.6 101.05 -1.85 83.7 L3.8 79.35 19.65 77.9 20.4 76.45 Q26.15 66.95 37.5 66.25" fill="#908282" fill-opacity="0.2" fill-rule="evenodd" stroke="none"/>
    <path d="M14.7 83.1 L18.5 82.5 Q32.05 79.85 40.35 69.4 L43.75 67.8 Q47.25 74.75 43.3 80.5 31.85 97.25 14.35 85.95 L14.7 83.1" fill="#908282" fill-opacity="0.2" fill-rule="evenodd" stroke="none"/>
    <path d="M82.5 18.4 Q86.6 22.9 87.35 28.65 91.0 55.55 63.5 53.1 L63.45 49.35 72.5 44.35 68.5 41.85 80.3 19.05 82.5 18.4" fill="#908282" fill-opacity="0.2" fill-rule="evenodd" stroke="none"/>
    <path d="M88.9 26.15 L88.75 29.35 74.05 42.5 69.05 42.15 67.2 39.35 67.35 37.55 82.5 24.05 88.9 26.15" fill="#908282" fill-opacity="0.2" fill-rule="evenodd" stroke="none"/>
    <path d="M86.9 -35.8 Q89.3 -35.8 91.05 -34.05 92.75 -32.35 92.75 -29.95 92.75 -27.55 91.05 -25.8 89.3 -24.1 86.9 -24.1 84.5 -24.1 82.8 -25.8 81.05 -27.55 81.05 -29.95 81.05 -32.35 82.8 -34.05 84.5 -35.8 86.9 -35.8" fill="#908282" fill-opacity="0.2" fill-rule="evenodd" stroke="none"/>
    <path d="M48.05 -58.35 L48.4 -58.6 48.8 -58.65 49.2 -58.75 49.2 -58.8 Q51.1 -58.55 52.55 -57.35 L54.5 -55.8 54.8 -55.2 55.0 -54.6 55.2 -54.0 55.2 -53.7 55.2 -53.4 55.2 -53.1 55.2 -52.8 54.85 -52.2 54.4 -51.6 54.1 -51.1 50.4 -50.3 46.0 -50.1 45.5 -50.3 45.2 -50.6 44.9 -50.9 44.6 -51.2 44.5 -52.1 44.5 -52.7 44.5 -53.3 44.5 -53.6 Q44.75 -54.6 45.45 -55.35 46.4 -56.35 47.7 -56.9 L48.4 -57.0 49.0 -56.8 49.35 -56.45 49.4 -56.2 Q48.85 -55.65 47.75 -55.4 L46.7 -55.0 46.35 -54.4 46.1 -53.8 45.9 -53.2 45.9 -52.9 45.9 -52.6 45.9 -52.3 45.9 -52.0 Q50.2 -50.35 53.5 -52.8 L53.6 -53.1 53.6 -53.4 53.6 -53.7 53.5 -54.0 53.4 -54.3 53.3 -54.6 51.4 -56.1 50.4 -56.9 48.8 -57.35 47.8 -57.8 47.85 -58.1 48.05 -58.35 M26.0 -80.6 Q29.0 -80.8 31.65 -79.3 33.7 -78.15 35.0 -76.2 L35.0 -75.9 35.0 -75.6 35.0 -75.3 35.0 -75.0 35.0 -74.4 35.0 -73.8 34.9 -73.5 34.7 -72.9 34.4 -72.3 33.85 -71.4 33.4 -70.8 33.05 -70.55 31.8 -69.95 30.4 -69.4 29.4 -69.25 24.8 -69.1 24.2 -69.35 Q23.6 -69.6 23.05 -69.95 L22.3 -70.5 22.3 -70.8 22.3 -71.7 22.3 -72.9 22.3 -74.4 22.3 -75.0 22.75 -75.55 23.65 -76.45 25.3 -78.0 25.6 -78.3 25.6 -78.5 25.2 -78.7 24.8 -78.6 24.4 -78.5 23.95 -78.75 23.75 -79.0 23.7 -79.3 23.85 -79.6 24.0 -79.75 24.4 -79.9 25.0 -80.1 25.4 -80.4 26.0 -80.55 26.0 -80.6 M24.2 -74.5 L24.15 -74.2 24.1 -73.3 24.1 -72.1 24.1 -71.5 Q28.2 -69.85 31.9 -72.2 L32.1 -72.5 32.5 -73.1 32.9 -74.0 33.0 -74.3 33.0 -74.6 33.0 -74.9 33.0 -75.2 33.0 -75.5 31.85 -76.65 29.2 -78.1 28.0 -77.95 27.3 -77.8 26.4 -76.9 24.75 -75.15 24.2 -74.5 M11.0 -87.0 L12.7 -86.1 13.7 -85.5 13.95 -85.15 14.4 -84.3 14.9 -83.05 15.3 -81.9 15.3 -81.6 15.3 -80.7 15.3 -79.5 15.3 -78.0 15.2 -77.7 14.7 -76.8 14.1 -75.9 13.5 -75.0 12.4 -74.45 Q8.55 -72.6 4.4 -73.45 L4.25 -73.45 Q1.6 -73.55 -0.8 -74.9 L-1.85 -73.3 -2.8 -71.8 Q-16.0 -60.5 -33.4 -64.0 L-33.55 -63.5 -33.9 -61.1 Q-39.55 -50.55 -52.4 -50.7 L-55.1 -50.7 -55.15 -49.9 -55.0 -47.8 Q-57.3 -41.0 -64.2 -37.75 L-63.55 -37.3 -63.3 -37.1 Q-63.15 -36.65 -63.15 -36.2 L-63.2 -35.3 -63.2 -35.0 -63.1 -34.7 -63.2 -34.1 -63.35 -33.2 -63.4 -32.9 -63.4 -32.6 -63.75 -32.05 -64.4 -31.1 -64.6 -30.8 Q-70.95 -26.9 -78.0 -30.0 L-79.5 -30.6 -81.15 -32.45 -81.8 -33.6 -82.1 -34.2 -82.1 -35.1 -82.1 -36.0 -82.1 -36.3 -82.1 -36.6 Q-81.6 -38.3 -80.7 -39.85 -79.25 -42.45 -76.5 -42.9 L-76.6 -43.0 -77.1 -43.3 -77.4 -43.6 Q-77.6 -49.75 -75.9 -55.6 -72.5 -67.4 -61.1 -71.55 L-58.75 -72.2 -58.6 -73.3 -58.3 -74.5 -58.25 -74.8 -58.0 -75.7 -55.95 -78.35 Q-54.95 -79.7 -53.55 -80.55 -52.0 -81.5 -50.4 -81.7 L-47.6 -81.7 -47.1 -81.65 -46.95 -82.4 -46.75 -83.3 -46.6 -84.2 -46.6 -84.5 -46.55 -84.75 -45.85 -86.05 -45.1 -87.2 Q-44.75 -87.6 -44.55 -88.1 L-44.4 -88.4 -41.0 -91.6 Q-34.2 -97.55 -25.3 -99.0 L-24.8 -99.1 -13.6 -98.35 Q-9.65 -97.45 -6.3 -95.0 L-6.1 -94.7 -5.25 -93.75 -4.15 -92.85 -3.9 -92.6 -3.85 -92.3 -3.75 -91.7 -3.7 -91.4 -3.7 -91.3 -3.4 -91.7 -3.0 -91.4 -1.4 -89.0 0.2 -87.2 0.95 -85.7 1.1 -85.4 Q1.7 -86.1 2.6 -86.4 L4.8 -87.2 10.4 -87.2 11.0 -87.0 M2.8 -84.95 L2.0 -84.6 2.0 -84.35 1.75 -84.1 1.75 -84.05 1.8 -83.9 1.85 -83.6 1.75 -83.0 1.7 -82.7 1.35 -82.5 0.9 -82.4 Q-0.15 -85.45 -2.4 -87.8 -3.95 -89.4 -3.9 -90.55 L-4.15 -90.6 -4.4 -90.8 -4.5 -91.1 -4.6 -91.4 -4.7 -91.7 -4.95 -91.95 -5.6 -92.45 -6.1 -92.7 Q-14.8 -98.9 -25.8 -96.7 -37.5 -94.35 -44.2 -84.7 L-45.0 -83.5 -45.05 -83.2 -45.25 -82.3 -45.4 -81.7 -45.8 -80.8 -45.9 -80.6 -45.95 -80.55 -45.95 -80.4 -46.05 -80.15 -46.5 -79.9 -47.0 -79.8 Q-51.0 -80.7 -54.0 -77.7 L-55.9 -75.4 -56.4 -74.8 -56.4 -74.5 -56.5 -74.2 -56.75 -72.7 -56.85 -72.25 -56.8 -72.25 Q-55.45 -72.4 -55.0 -71.3 L-57.1 -71.15 -57.2 -70.9 -57.4 -70.6 -57.65 -70.25 -57.75 -70.05 -58.0 -69.8 -58.25 -70.05 -58.45 -70.3 -58.7 -70.6 -58.85 -70.8 Q-65.0 -69.4 -69.25 -63.75 -73.75 -57.75 -75.0 -50.4 L-75.15 -48.9 -75.35 -47.4 -75.4 -46.2 -75.4 -44.4 -75.4 -44.1 -75.1 -43.5 -74.85 -43.25 Q-74.35 -42.7 -74.2 -42.0 L-74.2 -41.7 -74.3 -41.5 -74.4 -41.45 -74.8 -41.35 -75.3 -41.5 -75.6 -41.8 -75.9 -41.7 Q-78.45 -41.0 -79.6 -38.7 -80.5 -36.85 -80.3 -34.8 -80.15 -34.0 -79.6 -33.3 L-79.0 -32.7 -78.4 -32.1 Q-71.7 -28.6 -66.15 -32.85 -65.05 -33.7 -64.8 -35.2 L-64.8 -35.5 -64.8 -36.1 -64.8 -36.7 -65.25 -37.25 -65.3 -37.3 Q-67.0 -36.65 -68.8 -36.4 L-69.2 -36.65 -69.6 -37.2 Q-63.5 -40.1 -58.35 -45.05 L-57.8 -45.6 -57.4 -46.8 -56.9 -48.3 -56.9 -49.8 -56.9 -51.1 -58.0 -51.35 -58.5 -51.5 -58.7 -51.8 -58.85 -52.0 -57.8 -52.6 -57.2 -52.55 -57.2 -53.15 -56.6 -53.9 -56.25 -54.3 -55.6 -54.3 -55.6 -53.2 -55.6 -52.9 -55.5 -52.6 -55.4 -52.35 Q-44.0 -51.8 -36.65 -60.05 -35.95 -60.85 -35.6 -61.95 L-34.9 -64.4 Q-35.95 -64.75 -36.9 -65.25 L-36.1 -66.0 -35.4 -67.0 -34.45 -66.55 -34.3 -67.7 -32.8 -67.5 -32.9 -67.4 -32.9 -67.1 -32.9 -66.5 -32.9 -66.2 -32.9 -66.0 -30.8 -65.6 Q-14.15 -63.5 -2.95 -74.95 L-2.5 -75.5 -2.35 -76.4 -2.0 -77.0 -2.0 -77.1 -1.9 -77.4 -1.65 -77.65 -1.2 -77.85 -1.2 -77.9 -0.7 -77.65 -0.3 -77.4 0.1 -77.1 0.2 -76.8 0.2 -76.5 Q1.1 -75.85 2.2 -75.5 L2.35 -75.8 2.5 -76.1 2.8 -76.05 Q3.55 -75.5 4.35 -75.15 L4.8 -75.2 6.4 -75.2 7.1 -74.8 7.25 -74.65 10.05 -75.25 Q11.15 -75.65 12.1 -76.3 L12.3 -76.6 12.7 -77.2 13.1 -77.8 13.5 -78.4 13.5 -78.7 13.5 -79.3 13.5 -80.2 13.5 -81.4 13.4 -81.7 13.3 -82.3 13.1 -82.9 12.7 -83.8 12.5 -84.1 12.3 -84.35 11.9 -84.7 11.4 -85.0 10.8 -85.3 10.4 -85.4 4.5 -85.6 3.7 -85.3 2.8 -84.95 M79.75 -39.45 Q80.85 -39.95 81.2 -40.8 L81.45 -41.05 82.1 -41.3 82.7 -41.5 82.95 -41.75 83.2 -41.95 83.6 -42.05 83.6 -42.1 Q91.85 -41.85 91.85 -34.0 91.9 -29.55 87.4 -28.25 L86.0 -27.8 83.6 -27.8 80.2 -28.8 Q78.7 -29.3 77.7 -30.6 L77.4 -31.2 77.1 -31.8 76.8 -32.4 76.7 -32.7 76.9 -34.5 Q76.9 -35.55 77.25 -36.6 L78.1 -38.4 Q78.85 -39.05 79.75 -39.45 M78.55 -35.0 Q78.35 -34.1 78.4 -33.2 L78.85 -32.3 79.25 -31.75 80.1 -30.8 Q84.2 -28.65 88.4 -30.9 L88.9 -31.2 89.55 -32.1 89.85 -32.7 90.1 -33.6 90.2 -33.9 90.05 -35.7 Q89.7 -37.45 88.3 -38.7 L87.7 -39.3 86.05 -39.95 83.7 -40.15 83.5 -40.1 81.4 -38.9 79.6 -37.7 78.95 -36.45 78.55 -35.0 M79.6 -6.35 L81.1 -5.8 81.7 -5.2 82.35 -4.3 82.9 -2.8 82.9 -2.5 82.9 -2.2 82.9 -1.9 82.9 -1.3 82.9 -0.4 82.8 -0.1 82.7 0.2 82.6 0.5 82.35 1.1 82.2 1.4 82.0 1.55 81.4 1.8 80.8 2.0 79.6 2.0 78.0 1.9 76.85 1.35 76.0 0.8 75.4 0.2 75.3 -0.1 75.2 -0.4 75.1 -0.7 75.1 -1.0 75.1 -1.3 75.1 -1.6 75.1 -1.9 75.15 -2.2 75.3 -2.5 75.4 -2.8 75.6 -3.4 75.9 -4.0 76.2 -4.25 76.6 -4.5 77.15 -4.75 77.6 -5.2 77.4 -5.3 76.55 -5.55 76.2 -5.8 76.25 -6.1 76.45 -6.35 76.8 -6.6 77.4 -6.7 77.6 -6.75 78.0 -6.85 78.0 -6.9 79.6 -6.35 M78.8 -4.75 L78.3 -4.85 78.3 -4.8 78.0 -4.55 77.4 -4.2 76.8 -3.9 76.6 -3.6 76.5 -3.3 76.35 -3.0 76.1 -2.4 76.1 -2.1 76.1 -1.8 76.1 -1.5 76.1 -0.9 76.3 -0.6 76.5 -0.3 76.8 0.0 77.15 0.25 77.7 0.5 80.8 0.2 80.9 -0.1 81.0 -0.4 81.1 -0.7 81.1 -1.0 81.1 -1.3 81.1 -1.9 81.1 -2.5 81.0 -2.8 80.9 -3.1 80.8 -3.4 80.6 -3.7 80.3 -4.0 80.0 -4.3 78.8 -4.75 M83.35 17.5 L86.1 20.7 86.95 22.5 Q87.55 23.65 87.8 24.9 L88.2 26.4 Q88.65 31.15 86.7 35.35 84.15 40.9 79.4 44.7 L79.25 44.75 79.3 46.3 79.3 49.3 78.4 51.1 77.2 52.9 Q74.75 54.45 71.8 54.75 L70.8 54.9 Q68.25 54.75 66.1 53.4 L65.9 53.1 65.4 52.5 65.2 52.2 65.25 51.9 65.45 51.3 65.6 50.9 65.2 50.0 65.1 49.7 65.1 48.8 65.1 47.9 65.1 46.7 65.1 45.8 65.2 45.5 65.4 45.2 65.5 44.9 65.6 44.6 66.1 44.0 67.2 43.1 68.0 42.65 68.4 42.5 69.2 42.65 70.55 43.0 70.8 43.2 69.2 43.7 68.6 43.9 67.8 44.5 67.5 44.8 67.0 45.4 66.85 46.3 66.9 47.2 66.9 48.4 66.9 49.3 67.1 49.9 67.4 50.5 67.8 51.1 68.3 52.0 68.9 52.6 68.95 52.65 Q72.25 53.65 75.7 51.7 L76.65 50.45 77.5 49.0 77.5 46.9 77.6 44.2 77.55 43.9 77.45 43.6 77.3 43.05 76.8 43.0 76.0 42.9 75.1 42.8 74.9 43.0 74.8 43.05 74.4 43.2 74.0 43.1 73.5 43.0 72.2 42.7 70.8 42.5 Q68.2 41.65 66.25 39.85 L64.0 37.45 62.0 34.5 61.9 33.9 61.5 31.2 61.45 30.0 61.5 27.6 61.5 26.4 61.7 25.8 62.2 23.7 Q62.3 23.2 62.55 22.75 L63.05 21.9 63.6 20.7 Q65.3 18.8 67.4 17.4 69.45 16.1 71.8 15.6 L76.0 14.9 78.0 15.0 78.55 15.05 78.55 15.0 78.75 14.75 79.2 14.55 79.2 14.5 80.6 15.25 81.0 15.3 81.2 15.6 81.25 15.65 Q82.4 16.45 83.35 17.5 M86.2 27.0 Q85.55 24.0 83.95 21.4 82.1 18.35 79.5 16.15 75.3 16.25 71.35 17.65 67.7 18.95 65.1 21.8 L64.9 22.1 64.6 22.7 Q64.1 23.7 63.85 24.8 L63.65 25.4 63.45 26.3 63.3 26.9 63.3 27.5 63.3 29.9 63.35 30.5 63.5 32.0 63.7 33.8 Q64.7 35.55 66.0 37.1 67.8 39.3 70.45 40.3 L75.1 42.1 76.0 42.3 76.8 42.4 77.65 42.7 Q77.8 42.65 78.0 42.55 L78.0 42.5 78.5 42.75 78.75 42.95 Q81.85 39.6 84.2 35.6 86.5 31.65 86.2 27.0 M78.15 30.75 L78.55 31.3 76.75 31.4 Q76.1 31.0 76.7 30.6 76.85 30.45 77.05 30.4 L78.15 30.75 M73.8 33.8 L73.8 34.15 73.65 34.95 73.65 35.3 74.3 36.0 75.05 36.8 75.25 37.15 75.55 37.95 75.55 38.3 75.05 38.4 73.9 38.15 72.45 36.6 Q71.85 36.0 71.65 35.15 71.6 34.5 71.9 33.95 L72.55 33.35 73.05 33.15 73.6 33.5 73.8 33.8 M77.15 34.15 L78.15 34.95 78.55 35.3 Q78.7 36.0 77.55 35.55 L76.05 34.9 75.9 33.8 Q75.95 33.45 76.15 33.25 76.35 32.95 76.8 33.05 L77.05 33.45 77.15 34.15 M40.05 54.3 Q40.5 53.95 41.0 53.75 L40.9 53.5 Q41.25 52.75 42.05 52.25 L42.9 51.4 Q45.75 49.95 48.8 50.2 53.95 50.85 57.25 54.45 59.8 57.2 59.3 61.0 L58.75 62.8 57.7 64.3 57.5 64.6 Q55.95 65.2 54.6 66.2 L54.0 66.7 50.6 67.45 49.9 67.7 Q48.05 67.6 46.3 68.3 L45.85 68.2 45.6 68.0 Q48.1 66.45 51.1 65.85 L51.2 65.8 52.6 65.45 53.2 65.3 Q56.2 63.95 57.1 61.0 57.7 59.1 57.1 57.2 L55.3 55.1 53.8 53.6 Q49.0 51.6 44.05 53.0 43.45 53.15 43.0 53.45 L43.25 53.55 43.4 53.7 43.2 53.8 42.25 54.0 42.0 54.2 41.9 54.2 41.0 54.9 40.35 55.45 39.9 55.8 39.8 56.1 39.8 56.7 39.8 57.0 39.7 57.6 39.6 57.75 38.7 57.7 38.6 57.1 38.6 56.5 38.7 55.9 38.7 55.6 40.05 54.3 M37.1 55.3 L36.8 55.55 36.4 55.7 36.15 55.55 36.1 55.3 Q27.7 54.6 20.25 57.95 12.85 61.35 9.45 68.55 L8.9 69.8 8.9 70.1 8.9 70.4 8.9 70.7 8.9 71.6 8.9 72.8 8.8 73.1 8.6 73.4 8.6 73.7 8.6 74.0 8.6 74.3 8.55 75.2 8.5 75.8 8.15 76.0 7.75 76.0 7.4 75.8 7.4 75.5 7.4 75.2 7.4 74.9 7.4 74.3 7.4 73.7 7.3 73.4 7.1 73.1 7.1 72.8 7.1 72.5 7.1 72.2 7.1 71.0 7.1 70.1 7.1 69.8 7.1 69.5 8.85 65.9 Q10.65 62.5 13.65 59.95 20.2 54.45 28.4 54.0 L31.6 54.15 36.2 54.4 36.7 54.7 37.05 55.05 37.1 55.3 M21.5 72.55 L21.75 72.55 22.25 72.95 22.65 73.3 23.05 80.05 23.4 85.3 23.5 85.65 23.75 86.4 23.9 86.8 23.85 87.15 23.85 87.55 23.9 87.9 23.8 88.2 23.25 88.4 22.9 88.05 22.4 87.65 22.05 86.9 21.65 85.8 21.2 79.8 Q21.15 77.15 21.25 74.55 21.35 73.85 21.1 73.3 20.7 72.55 21.5 72.55 M11.6 84.4 L12.05 84.65 12.3 84.9 12.35 85.2 12.4 85.5 Q17.35 89.05 23.6 89.4 32.0 89.8 39.9 87.2 44.5 85.75 47.8 82.4 L48.85 80.3 50.5 76.7 50.8 76.1 50.9 74.9 51.05 73.4 51.1 71.6 50.8 71.3 50.05 70.65 49.5 70.1 48.25 69.45 Q47.9 69.25 48.2 69.05 48.4 68.9 48.7 68.9 L49.4 69.1 50.4 69.2 51.75 69.9 52.8 70.9 52.95 72.7 52.65 75.7 Q52.55 76.3 52.6 76.9 51.05 82.15 46.85 85.6 45.4 86.85 43.6 87.7 L39.6 89.4 Q25.4 93.55 12.65 87.15 L12.15 86.85 Q8.9 89.65 4.2 88.7 L3.6 88.9 -0.8 88.9 Q-2.25 88.15 -3.8 87.55 -4.75 87.15 -5.3 86.3 L-5.3 86.0 -5.3 85.7 -5.25 85.65 -5.6 85.7 -6.2 85.5 -6.6 85.2 -7.0 84.9 -8.4 83.7 -8.5 83.4 -8.5 83.1 -8.5 81.9 -8.5 81.3 -8.5 80.4 -8.45 80.1 -8.3 79.8 -7.9 78.9 -7.7 78.6 -7.6 78.3 -7.3 78.0 Q-6.5 77.0 -5.3 76.5 L-1.6 75.5 3.6 75.55 Q5.65 75.7 6.8 76.9 L6.85 77.2 6.75 77.4 5.8 77.8 Q3.5 77.1 0.8 76.95 -3.35 76.7 -6.2 79.5 L-6.3 79.8 -6.5 80.1 -6.6 80.4 -6.7 80.7 -6.7 81.0 -6.7 81.3 -6.7 82.2 -6.7 82.5 -6.6 82.8 -6.3 83.1 -5.9 83.4 -4.9 84.3 -4.5 84.5 -4.2 84.6 -3.75 84.7 -3.6 84.7 -3.0 84.85 Q-1.95 85.05 -1.35 85.75 L-1.2 86.0 -1.3 86.3 -1.25 86.55 -0.8 86.9 0.4 86.85 1.0 86.8 1.5 87.0 Q5.65 87.0 9.25 84.7 L10.0 84.4 11.4 84.4 11.6 84.4 M10.6 86.3 L10.7 86.2 10.2 86.15 10.1 86.2 9.6 86.5 9.4 86.6 10.2 86.6 10.6 86.3 M18.25 82.8 L18.95 83.6 19.4 84.3 18.95 84.7 17.5 84.9 16.95 84.6 16.65 84.3 16.65 83.9 16.65 83.15 16.75 82.4 16.35 81.65 Q16.2 81.2 16.65 81.0 L17.25 80.9 17.75 81.3 18.15 81.65 18.25 82.05 18.25 82.4 18.25 82.8 M31.4 86.4 L31.3 86.65 30.65 86.9 29.15 86.65 28.0 85.55 27.25 84.8 27.25 84.4 27.25 83.65 27.25 83.3 27.9 82.15 Q28.2 81.75 28.75 81.9 29.45 82.35 29.05 83.0 28.7 83.55 28.75 84.15 L29.4 84.9 30.15 85.65 31.0 86.1 31.4 86.4 M37.4 84.65 L37.95 84.0 38.4 83.65 38.65 83.6 39.0 83.55 39.25 83.55 39.35 84.25 39.1 84.6 38.25 85.05 37.7 84.95 37.4 84.65 M-88.8 -23.3 Q-87.4 -22.7 -86.1 -21.9 L-83.8 -20.4 -81.95 -18.35 -79.95 -15.3 -79.4 -14.1 -79.4 -13.5 -79.4 -12.9 -79.4 -12.3 -79.4 -11.7 -80.3 -9.35 Q-81.15 -7.3 -82.9 -6.0 L-84.0 -5.2 -86.8 -4.65 -92.4 -4.3 Q-94.2 -4.85 -95.75 -5.75 L-97.2 -6.9 -97.4 -7.5 -97.7 -8.1 -97.9 -8.7 -98.0 -9.0 -98.0 -10.5 -98.0 -12.3 -98.0 -14.4 -97.6 -15.9 -97.05 -17.45 -95.9 -19.2 -94.5 -20.15 -92.6 -21.3 -92.0 -21.5 Q-90.45 -21.55 -89.1 -20.9 L-88.9 -20.5 -88.9 -20.2 -89.05 -19.95 -89.4 -19.8 -89.5 -20.1 -89.5 -20.3 -90.4 -20.2 -91.9 -20.0 -93.3 -19.15 -94.7 -18.2 Q-94.95 -17.55 -95.35 -17.0 L-95.85 -15.8 -96.4 -14.0 -96.4 -12.8 -96.4 -11.6 -96.4 -10.1 -96.4 -9.5 -96.35 -9.2 -96.2 -8.9 -96.1 -8.6 -96.0 -8.3 -95.9 -8.0 Q-94.6 -6.35 -92.4 -6.05 -88.5 -5.45 -84.9 -6.8 L-84.1 -7.4 -83.4 -8.0 -83.0 -8.3 -82.8 -8.6 -82.6 -8.9 -82.4 -9.2 -82.1 -9.5 -81.9 -10.1 -81.7 -10.7 -81.5 -11.3 -81.4 -11.6 -81.4 -11.9 -81.4 -12.2 -81.4 -12.5 -81.4 -12.8 -81.4 -13.1 -81.4 -13.4 Q-82.2 -15.35 -83.55 -16.95 -85.85 -19.8 -89.1 -21.5 L-90.8 -22.1 -91.1 -22.5 -90.95 -22.8 -90.8 -22.95 -90.4 -23.1 -89.2 -23.2 -88.8 -23.25 -88.8 -23.3 M-26.25 -74.65 Q-25.95 -74.5 -25.7 -74.2 L-25.6 -73.9 -25.7 -73.55 -26.1 -72.8 -26.1 -71.65 -26.1 -70.15 -26.1 -69.8 -25.5 -69.05 -24.85 -67.9 -25.35 -67.9 -26.35 -67.9 -26.75 -68.25 -27.75 -69.05 -27.9 -70.9 -27.85 -73.15 -27.5 -73.9 -26.8 -74.55 -26.25 -74.65 M-31.5 -77.75 Q-31.1 -78.55 -30.25 -78.4 -29.95 -77.75 -30.4 -76.85 L-30.85 -75.8 -30.75 -73.55 -30.75 -71.3 -30.5 -70.55 -30.25 -69.8 -30.0 -69.45 -29.6 -69.05 -29.45 -68.65 -29.3 -68.3 -29.0 -67.9 Q-28.65 -67.0 -29.7 -67.7 L-30.35 -68.05 -31.25 -68.8 -31.6 -69.15 -31.95 -69.9 -32.25 -70.65 -32.2 -73.65 -32.1 -76.3 -31.5 -77.75 M-21.5 -71.6 L-21.5 -71.65 -20.3 -71.4 Q-20.05 -71.35 -19.85 -71.15 L-19.85 -70.8 -19.95 -70.45 -20.25 -70.05 -20.85 -70.05 Q-21.25 -70.25 -21.65 -70.4 -22.45 -70.75 -21.9 -71.3 L-21.5 -71.6 M-34.75 -69.55 L-35.85 -69.8 Q-36.05 -69.85 -36.25 -70.05 -36.65 -70.9 -36.7 -71.9 -36.75 -72.85 -36.0 -72.9 L-35.75 -72.9 -35.55 -72.15 -35.5 -71.05 -35.1 -70.3 -34.75 -69.55 M-62.25 -50.75 L-62.65 -51.3 -62.55 -51.65 -62.35 -51.95 -62.0 -52.05 -61.75 -52.05 -61.45 -51.25 -61.25 -50.55 -62.25 -50.75 M-41.4 -16.7 L-39.6 -17.3 -38.8 -17.2 -37.9 -17.0 -37.8 -16.7 -37.8 -16.4 -37.9 -16.1 -37.3 -15.2 -36.5 -13.4 -36.3 -12.8 -36.3 -12.2 -36.3 -10.7 -36.3 -9.8 -36.4 -9.5 -36.5 -9.2 -36.9 -8.3 -37.1 -8.0 -37.4 -7.7 -37.7 -7.4 -38.0 -7.2 Q-40.9 -6.65 -43.3 -8.3 L-43.7 -8.6 -43.95 -8.9 -44.1 -9.2 -44.4 -9.8 -44.35 -10.4 -44.3 -11.9 -44.3 -12.8 -44.1 -13.4 -43.2 -15.2 -42.8 -15.8 -41.4 -16.7 M-41.1 -15.5 L-41.5 -15.2 -42.15 -14.0 -42.9 -12.5 -42.9 -11.6 -42.85 -10.4 -42.8 -10.1 -42.15 -9.55 -41.3 -9.0 -38.6 -9.1 -38.4 -9.4 -38.3 -9.7 -38.1 -10.3 -38.1 -10.9 -38.1 -11.8 -38.1 -12.4 -38.6 -13.55 -39.4 -15.1 -40.2 -15.7 -40.5 -15.85 -40.7 -15.8 -41.1 -15.5 M-30.7 -28.35 L-30.4 -28.45 -30.4 -28.5 -28.8 -28.4 -28.3 -28.2 -28.05 -27.95 -26.8 -27.0 -26.1 -26.1 -26.1 -25.8 -26.1 -25.5 -26.1 -25.2 -26.1 -24.9 -26.2 -24.6 -26.5 -24.0 -26.7 -23.7 -26.9 -23.5 Q-29.3 -23.05 -31.6 -23.95 L-32.1 -24.2 -32.3 -24.5 -32.4 -24.8 -32.5 -25.1 -32.5 -25.4 -32.5 -26.0 -32.5 -26.3 -32.5 -26.9 -32.3 -27.2 -31.65 -27.75 -30.9 -28.3 -30.7 -28.35 M-31.45 -26.5 L-31.5 -25.9 -31.5 -25.3 -27.5 -25.4 Q-27.8 -26.4 -28.9 -26.65 L-29.8 -27.0 -29.8 -27.25 -29.6 -27.5 -30.3 -27.45 -30.5 -27.4 -31.0 -27.1 -31.3 -26.8 -31.45 -26.5 M-10.2 48.8 L-10.2 49.1 -10.2 49.4 -10.2 49.6 -7.45 49.35 -7.1 49.0 -7.1 48.7 -7.1 48.4 Q-7.2 47.8 -7.8 47.6 L-8.1 47.5 -8.4 47.55 -8.4 47.6 -8.65 47.8 -9.85 48.3 -10.2 48.5 -10.2 48.8 M-11.4 48.2 L-11.1 47.9 -10.7 47.6 -10.4 47.3 -10.0 47.1 -9.6 47.0 -9.55 46.8 -9.4 46.5 -8.5 46.25 -8.4 46.25 -8.0 46.1 -7.3 46.3 -6.55 46.65 -6.2 46.9 -6.0 47.2 -5.9 47.5 -5.8 47.8 -5.7 48.1 -5.7 48.4 -5.7 48.7 -5.7 49.3 -5.8 49.9 -6.0 50.2 -6.3 50.5 -6.8 51.0 Q-9.2 51.95 -11.0 50.6 L-11.25 50.25 -11.35 49.7 -11.4 48.5 -11.4 48.2 M-78.75 23.55 Q-78.55 23.9 -78.65 24.25 L-78.9 25.4 -78.9 27.65 -78.9 29.9 -79.85 29.85 -80.15 29.65 -80.2 27.05 -80.0 24.4 -79.4 23.8 Q-79.15 23.6 -78.75 23.55 M-67.9 17.7 Q-70.0 15.3 -73.0 14.05 -79.7 11.3 -86.7 14.0 L-87.0 14.3 -87.3 14.6 -88.2 15.5 -88.35 15.8 -88.9 17.6 -89.3 20.6 -89.4 24.8 -89.4 25.4 Q-88.55 27.85 -86.9 29.8 -80.9 37.1 -71.1 35.8 L-70.6 35.5 -70.1 35.2 -69.4 35.2 -69.1 35.4 -69.05 35.7 -69.25 35.95 Q-70.15 36.45 -70.9 37.2 L-71.1 37.5 -71.6 37.7 Q-79.6 38.5 -85.85 33.7 -89.75 30.75 -91.4 26.1 L-91.4 25.8 -91.4 25.5 -91.4 23.7 -91.4 22.5 -91.4 21.3 -91.3 21.0 -91.2 20.7 -91.2 20.4 -91.2 20.1 -90.8 17.7 -90.45 16.2 -90.0 14.7 -89.7 14.4 -89.1 13.8 Q-87.2 11.75 -84.4 11.2 L-84.0 11.1 Q-78.55 10.55 -73.4 12.25 -69.4 13.6 -66.6 16.7 L-66.5 17.0 -66.35 17.3 -65.95 18.2 -65.7 18.8 -65.65 19.1 -65.65 19.4 -65.7 20.5 -65.7 20.55 -65.6 20.8 -65.65 22.6 -65.5 24.4 Q-65.75 26.75 -66.7 28.9 L-68.2 31.9 -69.45 33.0 Q-68.1 33.45 -66.8 34.15 -65.0 35.15 -63.4 36.5 L-63.05 37.4 -62.9 38.0 -62.8 38.3 -62.7 38.6 -62.7 38.9 -62.7 39.2 -62.7 39.5 -62.7 39.8 -63.0 40.7 -63.4 41.3 -63.6 41.6 -63.8 41.9 Q-64.8 42.65 -66.0 43.1 L-67.2 43.6 Q-70.9 44.25 -74.1 42.5 L-74.4 42.2 -74.7 41.9 -75.0 41.6 -75.1 40.4 -75.1 40.1 -75.05 39.8 -74.95 39.2 -74.9 38.9 Q-74.55 38.45 -74.0 38.7 L-72.8 39.2 -73.05 39.45 -73.8 39.8 -73.8 40.1 -73.7 40.4 -73.7 40.7 -73.6 41.0 Q-70.9 42.65 -67.5 41.8 L-65.2 40.6 -64.9 40.3 -64.7 40.0 -64.6 39.7 -64.5 39.4 -64.6 38.8 -64.7 38.2 -64.8 37.9 Q-66.4 36.25 -68.55 35.3 -71.2 34.1 -73.7 33.7 -73.55 33.05 -72.75 32.7 L-72.35 32.55 -72.0 32.45 -72.0 32.4 -71.9 32.45 Q-71.25 31.75 -70.25 31.2 L-69.6 30.7 -68.3 28.15 -68.55 28.1 -68.65 27.9 -68.6 27.6 -68.5 27.3 -68.5 27.0 -68.5 26.7 -68.4 26.4 -68.2 26.1 -67.8 25.5 -67.8 25.2 -67.7 24.9 -67.4 24.0 -67.2 23.4 -67.25 22.0 -67.1 20.2 -67.1 20.1 -67.1 19.8 -67.2 19.5 -67.3 19.2 -67.7 18.3 -67.9 17.7 M-74.75 29.05 L-75.85 29.0 -76.25 28.8 Q-76.95 28.2 -76.9 27.25 -76.8 26.3 -75.75 26.4 -75.15 27.0 -74.9 27.8 L-74.75 29.05 M-56.2 71.6 L-55.55 70.45 -54.6 69.2 -54.4 68.9 -53.6 68.35 -52.0 67.6 -50.4 67.2 -48.8 67.2 Q-47.2 67.7 -45.7 68.45 -43.7 69.45 -42.6 71.4 L-42.4 71.7 -42.3 72.0 -42.3 72.3 -42.3 72.6 -42.3 73.2 -42.3 73.8 -42.4 74.1 -42.5 74.4 -42.5 74.7 -42.85 75.6 -43.0 75.9 Q-48.75 80.25 -55.2 76.7 L-56.5 75.5 -56.5 75.2 -56.5 74.6 -56.5 73.4 -56.5 72.5 -56.5 72.2 -56.2 71.6 M-53.0 69.8 L-53.75 70.65 -54.25 71.6 -54.7 72.5 -54.7 73.1 -54.7 73.4 -54.7 73.7 -54.7 74.3 -54.7 74.6 -53.7 75.45 -52.4 76.1 -47.1 76.1 Q-46.05 75.85 -45.2 75.2 L-44.5 74.6 -44.35 74.3 -44.3 74.0 -44.2 73.7 -44.1 73.4 -44.1 73.1 -44.1 72.8 -44.1 72.5 Q-45.05 70.75 -46.8 69.65 -48.45 68.65 -50.4 68.8 L-51.8 69.25 -53.0 69.8 M-85.0 26.4 L-84.75 26.4 Q-84.0 27.15 -84.1 28.3 L-84.4 29.8 -85.4 29.95 -85.75 29.8 -85.85 27.55 Q-86.0 26.45 -85.0 26.4" fill="#333333" fill-rule="evenodd" stroke="none"/>
  </g>
</svg>
