<?xml version="1.0" encoding="UTF-8" standalone="no"?>
<svg xmlns:xlink="http://www.w3.org/1999/xlink" height="197.5px" width="194.5px" xmlns="http://www.w3.org/2000/svg">
  <g transform="matrix(1.0, 0.0, 0.0, 1.0, 100.8, 102.0)">
    <path d="M11.1 -90.25 L11.4 -89.9 11.5 -89.55 11.5 -89.15 11.5 -88.8 11.65 -88.4 11.75 -88.05 11.6 -87.7 11.4 -87.3 11.25 -86.9 10.9 -86.55 10.4 -86.15 10.0 -85.8 9.0 -85.75 7.25 -86.15 7.05 -86.55 6.9 -86.9 6.75 -87.55 4.5 -87.8 Q3.3 -87.75 3.4 -88.8 L3.4 -89.15 3.55 -89.55 3.75 -89.9 9.5 -90.55 10.5 -90.55 11.1 -90.25 M91.4 -39.55 L91.65 -39.15 91.8 -38.8 92.0 -38.4 92.15 -38.05 92.15 -37.65 92.15 -37.3 92.15 -36.9 92.15 -36.55 92.15 -36.15 92.05 -35.8 91.9 -35.4 91.8 -35.15 91.55 -35.1 89.05 -34.9 88.3 -35.0 Q86.55 -34.85 85.4 -35.9 L85.05 -36.3 84.85 -36.65 84.8 -37.05 84.8 -37.4 84.8 -37.8 84.9 -38.15 85.05 -38.55 85.3 -38.9 86.05 -39.65 86.55 -40.0 87.05 -40.15 88.55 -40.15 89.3 -39.9 89.75 -39.95 90.55 -40.15 91.15 -39.9 91.4 -39.55 M91.55 28.5 L91.65 28.85 91.65 29.25 91.65 29.6 92.4 30.05 92.75 30.4 93.05 30.75 93.15 31.1 93.2 31.5 93.2 32.25 93.15 32.6 92.2 34.45 Q91.0 35.8 89.4 36.75 L89.15 37.1 88.9 37.5 88.65 37.85 Q83.7 40.45 78.9 37.1 L78.65 35.6 78.6 33.35 78.65 31.85 78.75 31.5 79.15 30.75 79.65 30.0 79.9 29.6 Q82.45 27.7 85.4 26.65 L87.55 26.0 88.55 26.0 89.3 26.25 89.75 26.65 90.15 27.0 90.4 27.35 91.0 27.75 91.35 28.15 91.55 28.5 M18.2 84.85 Q20.75 83.4 23.75 83.85 L23.75 83.5 23.75 83.1 23.75 82.75 Q25.6 78.25 30.0 75.8 36.95 71.85 44.5 73.35 L44.9 73.5 45.45 73.4 45.75 73.1 45.75 72.75 45.75 72.35 45.75 72.0 45.75 71.6 45.9 71.25 46.0 70.85 46.15 70.5 46.5 69.35 Q46.7 68.55 47.15 67.85 L47.55 67.55 48.15 67.1 48.65 66.8 Q50.7 65.6 52.9 64.85 L53.5 64.8 53.5 64.75 57.5 65.05 61.4 65.5 61.8 65.85 62.3 66.2 63.0 66.65 63.4 67.0 63.65 67.4 63.75 67.75 63.8 68.1 63.8 68.85 63.8 69.6 63.8 70.0 63.65 70.35 63.5 70.75 63.3 71.1 62.45 71.75 60.7 72.75 Q59.0 73.7 57.8 75.25 L57.0 75.6 56.0 76.0 54.9 76.35 53.25 76.85 53.25 77.25 53.25 77.6 53.25 78.0 53.25 79.5 53.25 82.1 52.15 84.45 Q49.2 89.25 43.65 90.55 L41.5 91.0 40.75 91.75 Q39.2 93.05 37.15 93.6 34.25 94.3 32.15 92.4 L32.0 92.3 30.5 92.1 29.9 92.0 28.65 92.15 Q23.1 93.1 17.65 91.9 L17.25 91.5 16.9 91.15 16.55 90.75 15.9 90.0 15.9 89.65 15.9 89.25 15.9 88.9 15.9 88.15 16.0 87.35 16.0 87.0 16.55 86.3 Q17.25 85.45 18.2 84.85 M8.65 87.4 L8.8 87.75 9.0 88.15 9.15 88.5 9.1 88.85 9.0 89.25 8.75 89.9 8.5 90.0 7.65 90.25 7.4 90.65 6.85 91.35 6.0 92.15 5.5 92.2 4.0 92.25 3.3 91.95 2.9 91.65 2.55 91.25 2.3 90.85 2.25 90.5 2.25 90.15 2.2 89.4 Q2.1 88.75 2.5 88.25 3.65 87.35 5.25 87.3 L7.0 87.15 8.0 87.15 8.65 87.4 M38.9 82.1 L37.75 83.25 36.65 84.35 36.75 84.45 37.65 84.25 38.15 83.85 38.5 83.5 38.9 82.75 39.1 82.1 39.0 82.05 38.9 82.1 M28.75 82.5 L28.7 81.4 28.65 81.35 28.25 81.75 27.9 82.1 27.75 82.5 27.55 82.9 27.4 83.25 27.35 83.45 28.0 83.6 28.75 83.25 28.75 82.5 M49.2 80.35 L49.4 81.85 Q50.0 80.85 49.95 79.6 49.9 78.5 49.25 78.5 L49.2 80.35 M-22.0 -100.3 Q-19.9 -100.15 -18.6 -98.55 L-18.5 -98.15 -18.5 -97.8 -18.5 -97.05 -18.5 -96.65 -18.55 -96.3 Q-18.75 -95.65 -19.2 -95.15 L-19.7 -94.4 -19.85 -94.05 -20.4 -93.7 -21.1 -93.3 -21.2 -92.9 -21.25 -91.4 -21.25 -89.55 -21.25 -89.15 -21.35 -88.8 -21.75 -87.3 -22.75 -85.05 -23.0 -84.65 Q-25.25 -82.5 -28.15 -81.2 -34.45 -78.3 -41.5 -79.4 L-42.0 -79.05 -42.35 -78.8 -43.0 -78.65 -43.5 -78.7 -43.5 -78.4 -43.5 -78.05 -43.6 -77.65 -43.75 -77.3 -44.0 -76.95 -44.35 -76.55 -45.1 -75.8 -45.5 -75.4 -45.9 -75.15 Q-47.75 -74.05 -49.9 -74.9 L-50.9 -75.3 -51.25 -75.7 -51.5 -76.05 -52.0 -76.15 -52.85 -76.5 -53.15 -76.8 -53.35 -77.2 -53.45 -77.55 -53.6 -78.25 -53.65 -79.4 -53.45 -79.75 -53.15 -80.15 -52.4 -80.9 -52.0 -81.3 -51.25 -81.65 -50.5 -81.9 -50.15 -82.05 -49.5 -82.1 -49.5 -82.15 -47.6 -82.1 -48.25 -83.05 -48.25 -83.4 -48.25 -84.9 -48.25 -86.8 -48.25 -87.55 -47.8 -88.65 Q-45.55 -93.3 -40.45 -94.6 -38.9 -95.0 -37.5 -95.65 L-37.25 -96.05 Q-35.65 -98.6 -32.65 -99.25 -31.15 -99.55 -29.85 -100.3 L-29.0 -100.5 -29.0 -100.55 -22.0 -100.3 M-82.65 -40.8 L-82.35 -41.15 -82.0 -41.55 -82.0 -41.9 -81.85 -42.25 -81.5 -42.65 -81.1 -42.85 -80.5 -42.95 -80.5 -43.05 -78.5 -42.9 -76.5 -42.9 -75.8 -42.6 -75.4 -42.3 -75.15 -41.5 -75.1 -41.15 -75.05 -40.8 -75.0 -40.05 -75.0 -39.65 -75.25 -38.9 -75.4 -38.55 -75.6 -38.15 -76.0 -37.4 Q-78.6 -36.6 -81.45 -37.3 L-82.65 -37.8 -82.85 -38.55 -82.9 -38.9 -82.9 -39.3 -82.9 -40.05 -82.9 -40.4 -82.65 -40.8 M-87.5 -15.75 L-87.5 -15.4 -87.5 -15.0 -87.5 -14.65 -87.55 -14.3 -87.75 -13.9 -87.9 -13.5 Q-88.8 -12.5 -90.0 -11.85 -94.35 -9.45 -98.75 -11.65 L-99.1 -12.05 -99.35 -12.4 -99.55 -12.75 -99.75 -13.15 -100.0 -13.5 -100.0 -13.9 -100.0 -14.25 -100.0 -14.65 -100.0 -15.0 -100.0 -15.4 -99.85 -15.75 -99.65 -16.15 -99.5 -16.5 -99.25 -16.9 -98.9 -17.25 -98.7 -17.65 -98.65 -18.05 -98.65 -18.4 -98.45 -18.75 -98.15 -19.15 -97.75 -19.55 -97.35 -19.8 -96.55 -20.1 -96.5 -20.15 -92.5 -20.15 -91.75 -19.9 -91.25 -19.55 -89.65 -18.75 -88.4 -18.05 -88.15 -17.65 -88.0 -17.3 -87.8 -16.9 -87.65 -16.5 -87.5 -16.15 -87.5 -15.75 M-25.6 -87.5 L-25.75 -87.4 -26.4 -86.7 -26.85 -86.15 -26.0 -86.9 -25.6 -87.5 M-72.5 -63.3 Q-70.6 -63.45 -68.85 -62.8 -67.55 -62.35 -66.5 -61.55 L-66.25 -61.15 -66.05 -60.75 -65.9 -60.4 -65.75 -60.05 -65.8 -58.15 -65.7 -52.9 -65.65 -49.9 -65.75 -49.55 -65.9 -49.15 -66.9 -48.05 -70.05 -45.3 Q-70.8 -44.65 -71.65 -44.05 L-72.5 -43.85 Q-74.2 -43.5 -75.65 -44.35 L-77.15 -45.15 -77.75 -45.9 -78.25 -46.65 -79.45 -48.55 -79.75 -49.3 -79.75 -50.4 -79.75 -53.05 -79.75 -57.15 -79.65 -57.55 -79.35 -58.25 -79.0 -59.0 -78.0 -60.55 -76.9 -61.3 -75.1 -62.35 -73.15 -63.15 -72.5 -63.2 -72.5 -63.3 M-79.5 18.0 L-76.5 18.0 -75.75 18.25 -75.25 18.6 -74.9 19.0 -74.75 19.35 -74.5 19.75 -74.5 20.1 -74.5 22.0 -74.65 24.6 -74.8 24.95 -75.0 25.35 -75.25 25.75 -75.35 26.1 -75.4 26.5 -75.4 26.85 -75.4 27.25 -75.55 27.6 -75.75 28.0 -75.75 28.35 -75.75 28.75 -75.75 29.1 -75.9 29.5 -76.2 30.2 -77.0 31.75 Q-79.45 34.9 -83.5 34.0 L-87.9 32.85 -88.25 32.5 -89.7 30.95 -90.5 29.85 -90.6 29.5 -90.65 28.75 -90.65 27.25 -90.65 26.85 -89.75 24.25 Q-87.9 20.35 -83.75 19.6 L-83.15 19.2 Q-82.05 18.4 -80.65 18.2 L-79.5 18.0" fill="#908282" fill-opacity="0.5019608" fill-rule="evenodd" stroke="none"/>
    <path d="M-28.45 -96.3 Q-27.85 -95.15 -27.4 -93.9 -21.25 -77.45 -39.05 -81.9 L-44.45 -84.85 Q-40.25 -95.3 -28.45 -96.3" fill="#908282" fill-opacity="0.2" fill-rule="evenodd" stroke="none"/>
    <path d="M-67.05 -55.6 L-66.35 -52.4 -63.75 -50.05 -72.5 -45.95 -78.05 -48.2 -70.95 -57.7 -67.05 -55.6" fill="#908282" fill-opacity="0.2" fill-rule="evenodd" stroke="none"/>
    <path d="M-74.7 22.5 L-73.15 24.35 -74.45 32.45 -85.95 31.55 -87.85 29.65 -87.5 27.7 Q-84.85 18.85 -74.7 22.5" fill="#908282" fill-opacity="0.2" fill-rule="evenodd" stroke="none"/>
    <path d="M22.2 94.35 L20.15 87.95 Q33.25 86.4 43.75 78.1 L43.75 76.25 Q50.7 70.0 60.0 70.95 L62.8 73.45 61.85 74.65 Q57.75 79.7 51.3 81.2 L50.05 82.95 Q39.6 97.25 22.2 94.35" fill="#908282" fill-opacity="0.2" fill-rule="evenodd" stroke="none"/>
    <path d="M83.15 30.3 L86.25 29.5 92.5 36.9 87.5 37.15 83.75 40.0 80.0 38.4 79.55 33.85 83.15 30.3" fill="#908282" fill-opacity="0.2" fill-rule="evenodd" stroke="none"/>
    <path d="M29.2 -83.1 L30.7 -82.6 32.5 -81.7 32.6 -81.4 32.8 -81.1 32.9 -80.8 33.0 -80.5 33.1 -80.2 33.1 -79.9 33.1 -79.6 33.1 -79.3 33.1 -78.7 33.0 -78.1 32.8 -77.8 32.5 -77.5 32.2 -77.2 32.0 -77.0 31.6 -76.95 30.0 -76.9 28.85 -77.45 Q28.4 -77.7 28.05 -78.05 L27.8 -78.3 27.8 -78.6 27.8 -78.9 27.8 -79.2 27.8 -79.5 27.85 -79.75 28.1 -80.1 28.3 -80.4 28.65 -81.0 28.9 -81.3 29.0 -81.55 28.7 -81.9 28.2 -82.2 28.2 -82.45 28.5 -82.8 28.8 -82.95 29.2 -83.05 29.2 -83.1 M29.4 -79.8 L29.05 -79.2 29.0 -78.9 29.15 -78.7 29.2 -78.7 29.8 -78.5 31.7 -78.8 31.7 -79.1 31.7 -79.4 31.7 -79.7 31.6 -80.0 31.5 -80.3 31.4 -80.6 31.05 -80.45 Q30.6 -80.1 30.55 -80.7 30.5 -80.95 30.2 -80.7 L29.7 -80.4 29.4 -79.8 M11.1 -91.2 L11.7 -90.6 11.9 -90.3 12.05 -89.4 12.0 -88.2 12.0 -87.6 11.8 -87.0 11.5 -86.4 11.2 -85.8 10.95 -85.55 10.2 -85.0 10.0 -84.9 8.4 -84.8 5.55 -85.95 5.2 -86.2 Q4.75 -86.55 4.85 -87.1 L4.95 -88.3 5.0 -88.9 5.5 -89.5 6.1 -90.1 6.7 -90.4 7.2 -90.6 Q9.25 -91.1 9.2 -89.8 L8.8 -89.6 7.1 -89.3 6.6 -89.0 6.3 -88.7 6.2 -88.4 6.2 -88.1 6.2 -87.8 6.3 -87.5 6.35 -87.25 6.7 -86.9 7.6 -86.6 8.2 -86.4 8.4 -86.4 9.7 -86.6 9.9 -86.9 10.1 -87.2 10.2 -87.5 10.4 -87.8 10.4 -88.4 10.35 -89.3 10.2 -89.9 9.9 -90.2 9.7 -90.4 9.6 -90.5 8.95 -90.75 8.6 -91.0 8.65 -91.3 8.85 -91.55 9.2 -91.8 9.6 -91.85 10.0 -91.95 10.0 -92.0 10.5 -91.8 11.1 -91.2 M92.3 -38.2 L92.5 -37.9 92.6 -37.6 92.8 -37.0 92.8 -36.4 92.85 -35.5 92.7 -34.6 92.55 -34.35 92.2 -34.0 91.8 -33.8 91.6 -33.7 89.2 -33.6 87.0 -34.4 86.3 -34.7 86.1 -35.0 85.9 -35.3 85.8 -35.6 85.7 -35.9 85.7 -36.2 85.8 -36.8 85.8 -37.4 85.8 -37.7 86.05 -38.3 86.4 -38.9 86.8 -39.5 87.3 -39.8 87.7 -40.1 88.0 -40.4 88.4 -40.6 88.8 -40.65 89.2 -40.75 89.2 -40.8 91.0 -39.7 92.2 -38.5 92.3 -38.2 M87.7 -38.9 L87.4 -38.3 87.0 -37.4 87.0 -37.1 87.05 -36.5 87.1 -36.2 Q88.75 -34.65 91.2 -35.4 L91.2 -35.7 91.2 -36.3 91.2 -36.6 91.1 -36.9 91.0 -37.2 90.9 -37.5 89.3 -39.15 88.2 -39.2 87.7 -38.9 M91.6 29.4 Q90.15 27.4 87.75 26.8 L84.3 26.7 82.3 27.9 Q81.55 28.3 80.9 28.8 L80.5 29.4 80.0 30.0 79.5 30.6 79.3 30.9 79.2 31.2 79.1 31.5 79.0 31.8 78.9 32.1 78.7 32.4 78.7 33.3 78.7 34.2 78.7 35.7 78.7 36.0 79.55 36.85 80.8 37.8 81.1 38.0 Q86.05 39.25 90.3 36.6 L90.7 36.3 Q91.3 35.65 91.5 34.8 L91.9 32.4 91.9 30.9 91.8 30.6 91.7 30.3 91.7 30.0 91.6 29.7 91.6 29.4 M93.5 29.9 L93.7 30.5 93.7 31.4 93.7 32.0 93.7 32.6 93.7 33.5 Q92.8 39.25 86.6 40.0 L80.2 39.4 78.7 38.2 77.9 37.3 77.3 36.7 77.3 35.2 77.3 34.0 77.3 32.2 77.5 31.6 77.7 31.0 78.0 30.4 78.1 30.1 78.8 29.2 79.3 28.6 79.8 28.0 82.1 26.7 84.1 25.5 87.2 25.15 87.2 25.1 Q89.2 25.35 90.95 26.4 L93.0 28.1 93.25 28.7 93.4 29.3 93.5 29.9 M75.5 48.3 L75.6 48.25 76.0 48.15 77.2 48.0 79.05 48.35 80.3 48.8 80.4 49.1 80.6 49.4 80.7 49.7 80.75 50.0 80.7 50.3 80.7 50.6 80.65 51.5 80.6 51.8 80.45 52.05 79.9 52.7 Q79.25 53.3 78.4 53.5 L76.4 53.5 75.8 53.25 74.85 52.65 74.2 52.1 74.2 51.8 74.2 51.2 74.15 50.0 Q74.15 49.5 74.5 49.2 L74.8 49.1 75.25 48.95 75.3 48.8 75.3 48.5 75.5 48.3 M39.2 71.2 L41.6 71.25 44.6 71.5 45.0 71.8 45.3 72.1 45.35 72.4 45.25 72.65 44.85 73.05 44.2 73.0 36.8 73.3 Q32.95 74.15 30.2 76.9 L28.7 78.6 28.6 78.9 28.5 79.2 28.4 79.5 28.2 80.1 28.1 80.4 28.1 80.7 28.1 81.0 28.1 81.3 28.1 82.2 28.1 82.8 28.0 83.1 27.9 83.4 27.9 83.7 27.9 84.0 27.9 84.3 27.85 84.9 27.7 85.2 27.55 85.35 27.2 85.45 26.75 85.25 26.5 85.0 26.5 84.7 26.5 84.4 26.5 84.1 26.5 83.8 26.5 83.5 26.4 83.2 26.3 82.9 26.3 82.6 26.3 82.3 26.3 82.0 26.3 80.8 26.3 80.2 26.4 79.9 26.5 79.6 26.6 79.3 27.0 78.1 27.2 77.5 Q28.35 75.75 30.0 74.5 32.0 72.9 34.5 72.1 36.9 71.3 39.2 71.2 M15.6 86.4 L15.6 86.7 15.5 87.0 15.4 87.3 15.3 87.6 15.3 87.9 15.3 88.2 15.3 88.5 15.4 88.8 15.7 89.1 Q17.1 90.4 18.85 91.1 L20.0 91.95 Q30.9 95.4 42.35 91.2 48.1 89.05 48.85 82.9 L49.3 80.8 49.25 79.9 Q49.15 79.35 49.65 79.05 L50.0 78.9 50.45 79.15 50.6 79.4 50.65 80.0 50.7 80.9 50.7 81.2 Q51.05 81.9 50.8 82.75 L50.6 84.2 Q48.2 94.25 37.35 95.25 L23.2 94.85 Q19.2 94.25 16.25 91.6 L15.8 91.5 15.4 91.2 14.7 90.65 13.6 89.7 13.5 89.4 13.5 89.1 13.5 88.5 13.5 87.3 13.55 87.0 Q13.7 86.05 14.2 85.2 15.05 83.8 16.4 82.8 L17.3 82.55 18.0 82.35 18.0 82.3 23.6 82.4 Q25.2 82.45 26.0 83.7 L26.05 84.0 26.0 84.3 25.9 84.6 25.75 84.9 25.6 85.1 25.2 85.15 24.6 84.95 24.1 84.7 23.4 84.3 23.5 84.25 17.5 84.3 17.1 84.6 16.5 85.2 15.6 86.4 M7.6 85.7 L8.1 85.8 8.95 86.75 9.8 87.6 10.0 87.9 10.0 88.5 10.0 89.1 10.0 89.7 10.0 90.0 9.9 90.3 9.75 90.6 9.4 91.2 Q8.3 92.15 6.8 92.35 L6.0 92.4 Q5.05 91.95 4.0 91.85 L3.5 91.7 3.3 91.4 3.2 91.1 3.1 90.8 3.0 90.5 3.0 89.9 3.0 89.3 3.1 88.7 3.2 88.4 3.9 87.6 4.6 86.6 4.9 86.25 Q5.4 85.9 6.0 85.7 L7.2 85.65 7.2 85.6 7.6 85.7 M8.35 88.5 L8.3 88.2 7.5 87.6 7.1 87.3 5.6 87.05 5.4 87.1 4.7 88.0 4.1 88.9 4.2 89.5 4.25 90.1 4.3 90.3 4.8 90.5 6.0 90.8 Q7.35 90.9 8.3 90.0 L8.35 89.4 8.35 88.5 M79.1 50.1 L77.2 49.7 76.9 49.7 76.0 50.0 75.3 50.2 75.4 50.5 75.4 50.8 75.4 51.1 75.5 51.6 75.6 51.7 76.2 51.9 78.6 51.9 79.0 51.6 79.2 51.3 79.3 51.0 79.3 50.7 79.25 50.4 79.1 50.1 M62.4 66.1 L62.5 66.4 62.7 66.7 62.9 67.0 63.1 67.3 63.15 67.6 63.2 68.2 63.2 69.1 63.2 70.3 63.15 70.6 62.95 71.2 62.55 72.1 62.1 73.0 61.8 73.3 60.05 74.85 57.6 76.6 56.8 76.75 50.0 77.4 Q49.65 77.35 49.3 77.1 L49.4 76.95 Q52.15 76.9 54.8 76.05 L56.6 75.5 57.0 75.2 58.6 74.0 60.7 72.2 60.9 71.9 61.0 71.6 61.1 71.3 61.4 70.7 61.6 70.1 61.6 69.8 61.6 69.5 61.6 69.2 61.6 68.6 61.5 67.7 61.3 67.45 60.9 67.15 60.2 66.8 59.7 66.6 Q55.95 66.1 52.5 67.25 50.45 67.95 48.6 69.1 L48.4 69.4 48.2 69.7 47.9 70.0 47.7 70.3 47.3 70.9 47.3 71.2 47.2 71.5 47.2 71.8 47.1 72.1 46.9 72.4 46.75 72.55 46.4 72.65 45.95 72.45 45.7 72.2 45.7 71.9 45.7 71.6 45.8 71.3 45.85 71.0 46.0 70.4 45.9 70.1 45.9 69.8 46.0 69.5 46.2 69.2 46.5 68.9 46.7 68.6 47.1 68.0 47.9 67.4 Q51.2 64.95 55.2 64.75 L55.2 64.7 59.6 64.7 60.2 64.9 61.7 65.55 62.2 65.8 62.4 66.1 M-22.8 -101.85 L-19.0 -101.6 -18.5 -101.3 -18.1 -101.0 -18.1 -100.7 -18.2 -100.4 -18.25 -100.1 -18.4 -99.9 -18.55 -100.1 -18.75 -100.35 -19.1 -100.7 Q-26.8 -101.55 -33.6 -98.45 -40.05 -95.5 -44.15 -89.75 -45.85 -87.4 -46.5 -84.6 L-46.5 -84.3 -46.5 -84.0 -46.6 -83.7 -46.7 -83.5 -46.8 -83.45 -47.2 -83.35 -47.7 -83.5 -47.85 -83.8 -47.9 -84.1 -47.9 -84.4 -48.0 -84.7 -48.1 -85.0 -48.1 -85.3 Q-47.7 -87.55 -46.45 -89.5 -44.25 -92.8 -41.3 -95.4 -35.5 -100.55 -28.0 -102.0 L-22.8 -101.85 M-16.0 -99.65 L-15.5 -99.4 -15.1 -99.1 -14.9 -98.2 -14.9 -96.4 -15.0 -95.8 Q-15.25 -95.15 -15.95 -94.8 L-17.5 -93.8 -18.0 -93.6 -19.9 -93.2 -20.15 -93.05 -20.05 -92.95 -19.9 -92.7 -19.75 -90.6 -19.8 -87.6 -19.8 -87.3 Q-20.65 -84.6 -22.35 -82.3 -23.9 -80.2 -26.2 -78.9 -34.7 -76.35 -43.1 -78.8 L-43.1 -78.2 -43.1 -77.3 -43.1 -77.0 -43.1 -76.4 -43.2 -76.1 -43.35 -75.8 Q-43.55 -75.3 -43.9 -74.9 -46.45 -73.0 -50.0 -73.9 -51.45 -74.3 -52.8 -74.85 L-54.05 -75.85 -54.7 -76.7 -54.8 -77.0 -54.8 -77.3 -54.8 -78.2 -54.8 -78.8 -54.7 -79.1 -54.6 -79.4 -54.2 -80.6 -54.1 -80.9 -52.95 -82.15 Q-51.95 -82.95 -50.7 -83.3 L-50.0 -83.5 -48.8 -83.5 Q-47.45 -83.55 -47.6 -82.6 -48.65 -81.95 -50.15 -81.75 -51.35 -81.65 -52.2 -80.8 L-52.45 -80.45 -52.7 -79.9 -53.0 -79.0 -53.1 -78.7 -53.2 -78.4 -53.2 -78.1 -53.2 -77.8 -53.2 -77.5 -53.1 -77.2 -52.85 -76.95 Q-52.25 -76.3 -51.4 -76.0 L-50.4 -75.7 Q-47.4 -74.9 -45.3 -76.2 L-45.1 -76.5 -44.95 -76.8 -44.9 -77.1 -44.9 -77.4 -44.9 -77.7 -44.9 -78.6 -44.9 -78.9 -45.05 -79.2 -45.3 -79.5 -45.55 -79.7 -45.95 -79.9 Q-46.7 -80.25 -47.0 -80.9 L-46.3 -80.6 -46.4 -80.7 -47.0 -81.0 -47.0 -81.2 -46.6 -81.4 -46.0 -81.1 -45.6 -81.05 -45.2 -81.1 -44.7 -80.9 -44.4 -80.6 -44.05 -80.35 -43.35 -79.65 Q-34.75 -77.45 -26.2 -81.35 -24.7 -82.05 -23.6 -83.3 -23.0 -84.3 -22.7 -85.4 L-21.8 -88.1 -21.8 -89.6 -21.8 -91.7 -21.8 -92.3 -21.85 -92.5 -22.0 -92.5 -22.4 -92.4 -23.6 -92.85 -24.0 -93.3 -23.8 -93.6 -23.6 -93.75 -23.4 -93.8 -23.6 -94.0 -23.9 -94.5 -23.75 -94.8 -23.6 -94.95 -23.2 -95.1 -22.8 -95.15 -22.4 -95.25 -22.4 -95.3 -21.8 -95.1 -21.2 -94.8 -20.9 -94.4 -18.25 -95.3 Q-17.25 -95.7 -16.4 -96.4 L-16.35 -97.0 -16.25 -97.9 -16.2 -98.5 -16.75 -99.0 Q-17.7 -99.65 -16.8 -99.9 L-16.6 -99.9 -16.0 -99.65 M-82.5 -40.6 L-82.4 -41.2 -82.3 -41.5 -82.1 -41.8 -81.7 -42.4 -81.0 -43.3 -80.8 -43.6 -80.5 -43.9 -80.0 -44.2 -78.8 -44.55 -78.8 -44.6 -78.0 -44.55 -77.0 -44.4 -76.7 -44.1 -76.6 -43.9 -76.2 -43.7 -75.1 -43.25 -74.85 -43.15 -74.9 -43.3 -74.4 -43.7 -74.8 -43.7 -76.05 -44.35 -76.25 -44.6 -76.3 -44.9 -76.2 -45.2 -75.9 -45.7 -75.6 -45.7 -75.3 -45.8 -74.75 -45.6 -74.7 -45.4 -73.05 -44.85 -69.3 -47.5 -66.7 -49.6 -66.4 -50.2 -65.95 -51.05 -65.6 -52.0 -65.6 -52.9 -65.6 -54.1 -65.6 -55.3 -65.6 -55.6 -66.85 -58.55 Q-68.0 -60.9 -70.2 -62.4 L-70.4 -62.5 -71.35 -62.8 -71.4 -62.9 -71.2 -62.95 -70.4 -63.0 -70.2 -63.0 Q-68.65 -62.7 -67.55 -61.55 L-65.8 -60.0 -65.2 -58.8 -64.45 -57.3 -64.0 -56.1 -64.0 -54.6 -64.0 -53.1 -64.0 -51.6 Q-65.2 -48.4 -67.95 -46.25 -70.4 -44.35 -73.2 -42.9 L-73.6 -42.85 -74.15 -42.8 -74.1 -42.7 -73.9 -42.4 -73.5 -41.8 -73.3 -41.5 -73.2 -41.2 -73.2 -40.9 -73.2 -40.0 -73.2 -39.4 -73.8 -37.9 Q-74.35 -36.9 -75.2 -36.1 L-76.0 -35.3 -80.4 -35.5 -81.3 -35.8 -81.6 -36.1 -81.8 -36.4 -82.3 -37.0 -82.4 -37.3 -82.5 -37.6 -82.7 -38.2 -82.7 -38.5 -82.7 -38.8 -82.7 -39.4 -82.7 -39.7 -82.7 -40.0 -82.6 -40.3 -82.5 -40.6 M-81.3 -38.7 L-81.3 -38.4 -81.2 -38.1 -81.1 -37.8 -80.9 -37.5 -80.55 -37.25 -80.0 -37.0 -79.6 -36.95 -76.5 -37.0 -76.2 -37.3 -75.7 -37.9 Q-75.15 -38.7 -74.9 -39.7 L-74.8 -40.0 -74.8 -40.3 -74.8 -40.6 -74.85 -40.9 -75.0 -41.2 -75.4 -41.8 -75.6 -42.1 -76.1 -42.4 -76.7 -42.7 Q-77.2 -43.0 -77.05 -43.5 L-77.2 -43.5 -78.0 -43.4 -79.4 -43.2 -79.8 -42.9 -80.0 -42.6 -80.1 -42.3 -80.6 -41.4 -81.0 -40.8 -81.0 -40.5 -81.1 -40.2 -81.2 -39.9 -81.3 -39.6 -81.3 -39.3 -81.3 -39.0 -81.3 -38.7 M-89.3 -14.5 Q-89.95 -16.1 -91.2 -17.3 -92.45 -18.5 -93.9 -19.5 L-94.4 -19.6 -95.0 -19.8 -95.6 -19.95 -95.9 -19.9 -96.4 -19.6 -97.1 -19.3 -97.7 -19.0 -98.45 -17.85 -99.2 -15.4 -99.3 -14.8 -99.3 -14.5 -99.2 -14.2 -99.1 -13.9 -98.8 -13.3 Q-94.8 -10.5 -90.0 -12.45 L-89.6 -12.7 -89.5 -13.0 -89.4 -13.3 -89.3 -13.6 -89.3 -13.9 -89.3 -14.2 -89.3 -14.5 M-87.5 -14.5 L-87.5 -14.2 -87.5 -13.9 -87.5 -13.3 -87.5 -13.0 -87.6 -12.7 -87.7 -12.4 -87.8 -12.1 -88.1 -11.5 Q-91.7 -9.0 -96.05 -10.25 L-98.6 -11.0 -99.0 -11.3 -99.5 -11.6 -99.95 -12.2 -100.3 -12.8 -100.8 -13.7 -100.8 -14.0 -100.7 -14.6 -100.7 -15.2 -100.7 -15.5 -100.25 -17.0 -99.3 -18.75 -98.7 -19.7 -97.65 -20.25 -96.3 -20.8 -96.0 -20.85 -95.6 -20.8 -95.2 -20.8 -94.9 -21.0 -94.4 -21.2 -93.6 -21.25 -93.6 -21.3 -93.0 -21.1 -89.5 -18.2 Q-88.1 -16.75 -87.5 -14.8 L-87.5 -14.5 M-69.95 -63.55 L-69.7 -63.3 Q-70.0 -63.1 -70.35 -63.05 L-71.4 -63.0 Q-74.65 -61.8 -76.4 -58.85 -78.0 -56.15 -78.8 -53.1 L-78.8 -51.6 -78.8 -50.7 -78.8 -49.2 -78.8 -48.9 -78.7 -48.6 -78.6 -48.0 -78.5 -47.7 -78.25 -47.45 -77.5 -46.8 -77.1 -46.5 -77.0 -46.2 -76.9 -45.9 -76.5 -45.6 -76.2 -45.3 -76.3 -45.15 -76.9 -45.2 -77.0 -45.3 -77.6 -45.3 -78.2 -45.5 -79.0 -46.1 -79.8 -46.7 -80.05 -47.3 -80.2 -47.9 -80.3 -48.2 -80.4 -48.5 -80.4 -50.0 -80.4 -51.2 -80.4 -53.0 -80.4 -53.6 -79.55 -55.6 -78.3 -58.05 -77.2 -60.2 -74.8 -62.2 Q-73.05 -63.85 -70.6 -63.9 L-69.95 -63.55 M-80.0 16.6 L-78.5 17.15 Q-77.7 17.5 -77.0 18.0 L-76.0 19.5 -74.55 22.15 -74.2 23.1 -74.2 24.3 -74.2 26.4 -74.2 28.2 Q-74.7 30.4 -76.25 31.95 -78.5 34.2 -81.6 35.3 -84.3 35.8 -87.0 35.4 L-88.5 35.0 -89.6 34.05 -91.2 32.6 -91.5 32.3 -91.6 32.0 -91.6 31.7 -91.7 31.4 -91.8 30.8 -91.9 30.5 -91.9 29.9 -91.9 29.3 -91.9 28.4 -91.9 27.8 -91.65 26.6 -91.15 24.5 -90.6 23.0 -87.2 20.0 Q-85.45 18.7 -83.3 18.6 L-83.25 18.3 -83.1 18.0 -82.5 17.7 -82.1 17.4 -81.95 17.1 -81.8 16.9 -81.6 16.8 -81.2 16.75 -80.0 16.65 -80.0 16.6 M-78.05 20.1 L-78.2 19.8 -78.85 19.25 -79.3 18.9 Q-80.6 18.3 -81.9 18.5 L-82.15 18.65 -80.2 19.05 Q-79.25 19.15 -78.6 19.7 -83.35 18.6 -87.15 21.4 L-89.4 23.4 -90.15 25.8 -90.45 27.3 -90.5 28.8 Q-90.55 30.2 -90.2 31.5 L-89.7 32.1 -89.4 32.4 -88.0 33.5 -87.9 33.6 Q-82.55 34.9 -78.3 31.35 -76.6 29.95 -76.2 27.6 L-76.2 27.0 -76.2 26.7 -76.2 25.2 -76.2 24.0 -76.2 23.7 -76.45 23.1 -76.55 22.8 -77.5 21.0 -78.05 20.1 M-72.4 36.7 L-70.7 37.0 Q-69.95 37.15 -69.7 37.8 L-69.55 39.0 -69.55 41.7 -69.7 42.6 -69.85 42.85 -70.2 43.2 -70.6 43.4 -70.8 43.5 -71.2 43.6 -71.6 43.55 -72.9 43.3 -73.2 43.0 -73.5 42.7 -73.9 42.1 -74.2 41.8 -74.2 41.2 -74.2 40.0 -74.2 38.8 -74.1 38.5 -73.9 38.2 -73.8 37.9 -73.5 37.6 -73.2 37.3 -72.65 36.85 -72.4 36.7 M-71.6 37.6 L-72.25 37.85 -72.6 38.1 -72.8 38.4 -72.95 38.7 -73.0 39.0 -73.0 39.9 -72.9 41.4 -72.7 41.7 -72.3 41.85 -71.6 41.9 -71.2 41.8 -71.2 40.3 -71.15 37.9 -71.1 37.7 -71.1 37.65 -71.6 37.6 M-51.65 72.35 L-51.2 72.1 -50.4 72.05 -50.4 72.0 -48.6 72.8 -47.2 73.7 -47.0 74.0 -46.8 74.3 -46.7 74.6 -46.5 75.2 -46.4 75.5 -46.4 75.8 -46.4 76.1 -46.4 76.4 -46.5 77.0 -46.6 77.3 Q-48.5 78.1 -50.4 77.0 L-52.6 75.8 -52.6 75.5 -52.55 75.2 -52.5 74.6 -52.4 74.0 -52.4 73.7 -52.35 73.45 -51.95 73.05 -51.9 72.9 -51.85 72.6 -51.65 72.35 M-51.2 73.9 Q-52.2 75.2 -50.05 75.9 L-48.0 75.8 -48.1 75.5 -48.2 75.2 -48.4 74.9 -49.2 74.35 -49.8 74.0 -51.2 73.9" fill="#333333" fill-rule="evenodd" stroke="none"/>
  </g>
</svg>
