<?xml version="1.0" encoding="UTF-8" standalone="no"?>
<svg xmlns:xlink="http://www.w3.org/1999/xlink" height="201.2px" width="197.7px" xmlns="http://www.w3.org/2000/svg">
  <g transform="matrix(1.0, 0.0, 0.0, 1.0, 102.75, 102.1)">
    <path d="M-30.0 -99.15 L-29.25 -98.9 -28.8 -98.5 -28.5 -98.15 -28.35 -97.8 -28.2 -97.5 -27.0 -96.65 -26.8 -96.3 -26.75 -95.55 -26.8 -94.4 -26.85 -93.65 -27.05 -93.35 Q-27.9 -92.15 -29.25 -91.55 L-31.1 -91.05 -31.6 -90.65 -31.7 -90.3 -31.75 -89.9 -31.75 -89.55 -31.85 -89.15 -32.0 -88.8 -32.25 -88.4 -32.55 -88.05 -33.0 -87.65 -33.85 -87.05 -34.5 -86.9 -35.75 -86.65 -35.9 -86.3 -36.2 -85.9 -36.55 -85.2 -36.75 -84.8 -37.15 -84.55 -39.0 -84.35 -39.85 -84.55 -40.35 -84.95 -40.75 -85.3 -41.5 -86.05 -41.6 -86.4 -41.85 -87.1 -42.25 -88.3 -42.25 -88.65 -42.25 -89.05 -42.25 -89.4 Q-40.6 -91.85 -39.35 -94.4 -37.15 -98.9 -32.5 -99.15 L-30.0 -99.15 M-101.9 -16.9 L-101.15 -17.65 -100.7 -17.95 -100.05 -18.2 -100.0 -18.3 -98.5 -18.3 -97.9 -18.0 -97.4 -17.65 -97.15 -17.4 -97.0 -17.4 -96.45 -17.05 -96.25 -16.75 -96.25 -16.4 Q-96.25 -16.2 -96.4 -16.05 L-96.75 -15.65 -96.75 -15.25 -96.8 -14.9 -96.9 -14.5 -97.2 -14.2 -98.3 -13.45 Q-98.65 -13.25 -99.0 -13.15 L-102.25 -13.65 -102.65 -13.9 -102.75 -14.3 -102.75 -14.65 -102.75 -15.75 -102.6 -16.1 -101.9 -16.9 M-74.55 -59.15 L-74.4 -58.8 -74.4 -58.4 -73.9 -58.05 -73.65 -57.65 -73.4 -57.3 -73.0 -57.15 -72.25 -56.9 -71.8 -56.5 -71.5 -56.15 -71.4 -55.4 -71.4 -54.3 -71.4 -53.55 -71.5 -53.15 -71.65 -52.8 -71.9 -52.45 -72.65 -51.65 -73.0 -51.3 Q-74.9 -50.65 -77.0 -50.4 -78.9 -50.05 -80.25 -51.15 L-80.6 -51.55 -80.85 -51.9 -81.0 -52.3 -81.0 -53.05 -81.0 -54.15 -81.0 -54.9 -80.6 -56.0 -79.95 -57.55 -79.5 -58.3 -77.9 -59.45 Q-77.25 -59.7 -76.65 -60.05 L-76.0 -60.1 -76.0 -60.15 -75.25 -59.9 -74.75 -59.55 -74.55 -59.15 M-85.4 25.05 L-85.0 25.35 -84.8 25.75 -84.8 26.1 -85.15 26.85 -85.05 27.25 -85.0 27.6 -85.05 28.0 -85.1 28.35 -85.2 29.1 -85.25 29.5 -86.0 30.25 -86.65 31.0 Q-89.35 32.4 -91.65 30.75 L-91.85 30.35 -91.9 30.0 -91.9 29.25 -91.9 28.85 -91.85 28.5 -91.65 28.1 -91.5 27.75 -91.4 27.35 Q-90.85 26.55 -89.9 26.25 L-88.75 25.85 -87.5 25.15 -86.5 24.75 -86.0 24.8 Q-85.7 24.85 -85.4 25.05 M92.3 32.35 L93.05 33.45 93.25 34.6 93.3 35.0 93.25 35.7 93.55 36.0 94.6 36.7 94.9 37.0 94.95 37.75 94.8 38.15 94.6 38.45 94.4 38.75 Q89.1 40.45 84.4 38.25 84.0 37.75 84.1 37.1 L84.1 36.0 84.3 34.85 Q85.5 33.1 87.45 32.4 L90.3 31.6 90.6 31.85 91.5 32.15 92.3 32.35 M37.9 83.0 L40.75 82.65 Q41.9 82.45 42.9 81.85 L43.5 81.8 43.5 81.75 45.5 81.95 46.75 82.35 47.0 82.75 47.15 83.1 47.25 83.5 47.25 84.6 47.25 88.0 47.25 89.5 47.15 89.85 46.75 90.6 45.9 91.75 Q44.9 96.6 40.3 98.3 37.0 99.5 34.15 97.5 L33.5 97.4 32.75 97.25 Q27.4 99.75 22.5 96.4 L22.35 96.0 22.25 94.5 22.25 92.65 22.4 92.25 22.65 91.9 23.15 91.15 23.4 90.75 Q23.9 89.95 24.9 89.6 27.0 88.9 29.25 89.15 30.5 85.75 34.1 84.8 36.2 84.25 37.9 83.0 M53.15 73.6 L53.45 73.3 54.4 72.5 55.3 71.85 55.4 71.8 56.0 71.7 56.05 71.6 58.55 71.6 59.3 71.85 59.6 72.3 60.1 73.35 61.05 74.85 60.9 75.25 60.75 75.6 60.3 76.4 60.15 76.75 59.75 77.05 59.05 77.35 55.15 77.05 Q54.05 76.95 53.4 76.25 L53.25 75.85 53.15 75.1 53.15 74.0 53.15 73.6 M42.75 89.15 L42.75 88.4 42.7 87.65 42.65 87.65 42.65 88.0 42.65 88.4 42.65 88.75 42.25 89.9 42.25 90.25 42.7 89.45 42.75 89.15" fill="#908282" fill-opacity="0.5019608" fill-rule="evenodd" stroke="none"/>
    <path d="M25.95 95.3 L27.5 89.8 46.2 84.2 48.15 85.6 47.1 92.3 46.5 92.85 Q37.5 102.7 25.95 95.3" fill="#908282" fill-opacity="0.2" fill-rule="evenodd" stroke="none"/>
    <path d="M-31.9 -96.6 L-30.85 -94.75 -31.9 -87.55 -38.75 -86.3 -43.3 -88.6 -42.05 -90.4 Q-38.25 -95.45 -31.9 -96.6" fill="#908282" fill-opacity="0.2" fill-rule="evenodd" stroke="none"/>
    <path d="M32.55 -83.9 L33.25 -83.2 33.3 -83.0 33.3 -82.6 33.3 -82.05 33.3 -81.7 33.25 -81.5 33.15 -81.3 33.05 -81.15 32.9 -80.8 32.5 -80.75 31.25 -80.75 30.95 -80.9 30.75 -81.05 30.6 -81.25 30.5 -81.45 30.5 -81.6 30.5 -81.8 30.55 -82.2 30.55 -82.75 30.55 -83.1 30.7 -83.3 30.9 -83.55 30.8 -83.7 30.65 -83.9 30.65 -84.05 30.8 -84.2 31.2 -84.3 32.55 -83.9 M31.65 -83.1 Q31.35 -82.9 31.35 -82.55 L31.5 -81.85 32.2 -81.85 32.1 -82.6 31.7 -83.15 31.65 -83.1 M91.65 -39.95 L91.75 -39.75 91.9 -39.55 92.0 -39.35 92.1 -38.6 92.05 -37.5 92.05 -37.3 92.0 -37.1 91.95 -36.95 91.8 -36.75 91.55 -36.6 91.25 -36.45 90.25 -36.45 89.9 -36.55 89.65 -36.75 89.2 -37.15 89.0 -37.3 89.0 -37.7 89.05 -38.45 89.05 -38.8 89.15 -39.0 89.35 -39.35 89.65 -39.75 90.1 -39.95 91.0 -40.2 91.0 -40.25 91.3 -40.1 Q91.45 -40.05 91.65 -39.95 M90.4 -39.25 L90.2 -39.05 90.05 -38.85 89.95 -38.7 89.95 -38.3 89.95 -37.95 90.0 -37.75 90.95 -37.7 90.95 -38.25 90.9 -39.0 90.9 -39.2 90.75 -39.25 90.45 -39.3 90.4 -39.25 M92.15 36.65 L92.3 36.25 92.45 35.9 92.5 35.7 92.5 35.5 92.5 35.3 92.5 35.15 91.8 34.2 91.0 33.6 90.7 33.45 90.25 33.4 90.15 33.45 89.85 33.75 89.55 33.8 89.4 33.6 89.4 33.5 87.65 33.75 86.9 34.35 86.5 34.7 86.3 34.9 86.2 35.25 86.1 35.6 86.05 35.8 86.05 36.0 86.05 36.2 86.05 36.4 86.05 36.55 86.2 36.75 86.3 36.95 86.5 37.15 Q89.35 38.4 91.9 36.8 L92.15 36.65 M94.0 35.05 L94.0 35.45 94.0 35.8 94.0 36.2 93.95 36.4 93.9 36.55 93.8 36.75 93.7 36.95 93.65 37.15 Q92.1 38.9 89.75 38.95 L86.65 38.5 86.35 38.35 86.0 38.15 85.65 37.95 85.45 37.75 85.3 37.55 85.1 37.2 84.95 36.8 84.95 36.65 84.95 36.45 84.95 36.05 84.95 35.7 84.95 35.5 85.0 35.3 85.05 35.15 85.1 34.95 85.15 34.75 85.2 34.55 85.75 33.95 86.65 33.25 87.15 32.9 88.0 32.65 89.3 32.2 89.45 32.05 89.6 31.95 89.7 31.9 90.0 31.8 90.5 31.75 92.75 33.0 Q93.6 33.7 94.0 34.7 L94.0 35.05 M28.25 90.2 L29.5 90.15 31.5 90.45 Q31.25 89.4 31.65 88.35 32.4 86.15 34.15 84.65 37.65 81.5 42.25 81.05 L44.25 80.95 Q45.95 80.8 47.05 81.85 L47.15 82.0 47.05 82.2 47.0 82.35 46.85 82.5 46.75 82.55 Q42.1 81.85 37.9 83.85 35.65 84.9 34.2 86.8 L33.9 87.2 33.8 87.4 33.75 87.55 33.45 88.1 33.05 89.45 33.05 89.65 33.05 89.8 33.05 90.0 33.05 90.4 32.95 90.95 32.75 91.1 32.55 91.25 32.25 91.3 31.95 91.2 31.75 91.3 27.05 91.7 Q25.9 91.95 24.9 92.5 L24.7 92.7 24.5 92.9 24.4 93.05 24.0 93.8 23.95 94.0 23.95 94.2 23.95 94.4 23.95 94.55 24.0 94.95 24.15 95.3 Q25.4 96.4 27.0 97.0 L28.6 97.2 29.5 97.25 29.5 97.05 29.5 96.9 29.65 96.5 29.65 96.3 29.65 96.15 29.7 95.95 30.4 95.6 Q30.55 95.5 30.75 95.45 L31.0 95.65 31.0 95.8 30.95 96.0 30.9 96.4 Q34.1 98.55 38.3 97.2 41.6 96.1 44.3 93.9 46.65 91.95 47.65 89.05 L47.55 87.2 47.2 85.3 47.15 84.75 47.25 84.0 47.25 83.8 47.45 83.65 47.75 83.55 47.75 83.5 48.0 83.55 48.3 83.7 48.4 83.9 48.45 84.25 48.5 84.65 Q48.35 85.75 48.65 87.1 48.95 88.15 48.9 89.3 45.65 97.8 36.15 99.0 L31.6 98.7 27.75 98.8 25.65 98.0 Q24.2 97.3 23.0 96.25 L22.9 96.05 22.8 95.9 22.6 95.15 22.55 94.4 22.55 94.2 22.55 94.0 22.55 93.8 22.55 93.65 22.65 93.45 22.7 93.25 22.8 93.05 23.0 92.7 23.05 92.5 23.45 92.15 Q24.55 91.1 26.0 90.6 L26.5 90.45 26.75 90.4 27.15 90.35 27.5 90.3 27.9 90.25 28.25 90.2 M61.75 73.05 L62.25 74.3 62.25 74.9 61.95 75.8 61.0 77.3 Q58.15 78.65 55.05 77.9 54.05 77.65 53.15 77.2 L52.95 76.8 52.8 76.25 52.7 75.3 52.7 74.55 52.75 74.4 52.8 74.2 52.85 74.0 52.9 73.8 52.95 73.65 53.0 73.45 53.7 72.9 54.8 72.1 Q55.1 71.85 55.5 71.75 L55.65 71.65 55.65 71.5 55.7 71.3 55.8 71.1 55.8 70.95 55.85 70.75 55.95 70.55 56.1 70.45 56.2 70.4 57.5 70.3 57.5 70.25 59.5 70.95 60.75 71.7 61.25 72.2 61.75 73.05 M54.0 74.2 L53.95 74.4 53.9 74.55 53.8 74.75 53.8 74.95 53.8 75.15 53.8 75.3 53.8 75.5 53.8 75.7 53.9 75.9 53.9 76.05 53.95 76.25 54.2 76.45 58.5 76.75 Q59.3 76.6 60.0 76.15 L60.15 75.95 60.3 75.75 60.45 75.55 60.5 75.4 60.55 75.2 60.6 75.0 60.65 74.8 60.7 74.65 60.65 74.45 60.65 74.25 60.55 74.05 60.5 73.9 60.45 73.7 60.25 73.5 59.95 73.15 59.55 72.75 59.25 72.55 59.0 72.6 58.35 72.45 58.0 72.4 56.75 72.45 55.75 72.7 55.5 72.85 Q55.1 73.1 54.85 73.4 L54.15 74.0 54.0 74.2 M-31.75 -100.05 L-30.25 -100.1 Q-29.1 -100.2 -28.35 -99.6 L-28.35 -99.45 -28.35 -99.4 -27.35 -99.05 -26.45 -98.55 -26.25 -98.2 -25.9 -97.4 -25.35 -96.5 -25.35 -96.3 -25.3 -96.1 -25.3 -95.55 -25.3 -95.0 -25.9 -93.7 -27.5 -91.45 Q-30.6 -88.7 -34.5 -87.4 L-35.65 -87.05 -35.55 -86.95 -35.45 -86.4 -35.4 -85.45 -35.35 -85.25 -35.4 -85.05 -35.5 -84.85 -35.7 -84.5 Q-38.0 -82.8 -40.8 -83.8 L-40.9 -83.75 -41.2 -83.7 -41.35 -83.9 -41.5 -84.05 -41.7 -84.25 -41.7 -84.3 -41.75 -84.35 -42.1 -84.5 -42.3 -84.7 -42.5 -84.9 -42.75 -85.25 -43.45 -86.0 Q-43.6 -88.7 -42.9 -91.2 -41.05 -98.0 -34.0 -99.65 L-31.75 -100.05 M-30.25 -99.2 Q-34.3 -99.0 -37.6 -96.75 L-39.75 -95.1 -40.35 -94.2 -41.35 -92.1 -41.75 -90.8 -42.05 -89.5 -42.05 -89.3 -42.05 -88.95 -42.05 -87.6 -42.05 -86.7 -42.05 -86.5 -42.0 -86.3 -41.85 -86.15 -41.7 -85.95 -41.5 -85.75 -41.2 -85.6 -41.05 -85.45 -40.85 -85.25 -36.6 -85.45 -36.6 -85.65 -36.55 -85.8 -36.55 -86.2 -36.65 -86.3 -36.9 -86.45 -37.1 -86.6 -36.95 -86.95 -36.65 -87.25 -36.8 -87.35 -36.95 -87.55 -36.95 -87.75 -36.9 -87.95 -36.85 -88.1 -36.8 -88.3 -36.6 -88.45 -36.1 -88.7 -35.75 -88.8 -35.3 -88.75 Q-30.65 -90.15 -27.55 -93.85 -27.05 -94.5 -26.7 -95.25 L-26.7 -95.45 -26.7 -95.6 -26.7 -95.8 -26.7 -96.0 -26.8 -96.35 -27.1 -96.95 -27.45 -97.7 Q-27.75 -98.1 -28.3 -98.2 L-29.8 -98.7 -29.9 -98.9 -29.9 -99.05 -29.85 -99.2 -30.25 -99.2 M-20.75 -102.1 L-20.35 -102.0 -20.1 -101.8 -19.25 -101.25 -18.7 -100.7 -18.65 -100.5 -18.6 -100.1 -18.6 -99.75 -18.6 -99.35 -18.6 -99.2 -18.7 -99.0 -19.0 -98.45 -19.5 -97.9 -19.75 -97.7 -22.35 -97.85 Q-23.0 -98.1 -23.5 -98.55 L-23.5 -98.75 -23.5 -99.1 -23.45 -99.5 -23.45 -99.85 -23.35 -100.05 -23.25 -100.25 -23.2 -100.45 -23.2 -100.55 -23.4 -100.7 -23.6 -100.85 -23.6 -101.05 -23.25 -101.45 -23.0 -101.8 -22.85 -101.95 -22.75 -102.0 -22.5 -102.05 -21.75 -102.1 -20.75 -102.1 M-21.95 -100.55 L-22.2 -100.35 -22.3 -100.2 -22.45 -99.8 -22.55 -99.45 Q-22.3 -98.8 -21.5 -98.9 L-20.05 -99.1 -19.95 -99.3 -19.9 -99.7 -19.85 -100.05 -20.0 -100.2 -20.95 -100.7 -21.0 -100.7 -21.95 -100.55 M-81.2 -53.55 L-81.2 -54.1 -81.2 -55.25 -81.2 -55.6 -80.95 -56.55 -80.85 -57.1 -80.25 -58.25 -80.2 -58.45 -79.25 -59.2 -78.75 -59.55 -78.6 -59.75 -78.55 -59.95 -78.55 -60.1 -78.2 -60.4 -77.55 -60.85 -77.25 -60.9 -77.25 -60.95 -76.0 -60.8 Q-75.1 -60.85 -74.45 -60.35 L-74.35 -60.2 -74.25 -60.1 -73.85 -59.95 -72.5 -58.6 -71.25 -56.95 -71.0 -56.55 -70.9 -54.7 Q-70.95 -53.5 -71.5 -52.5 L-72.1 -51.3 -73.45 -50.4 -73.75 -50.2 -73.95 -50.05 Q-76.7 -49.25 -79.2 -50.45 L-80.2 -50.95 -80.7 -51.7 -80.95 -52.05 -81.2 -52.6 -81.2 -53.55 M-101.55 -16.75 L-101.25 -17.55 -99.8 -19.0 -99.25 -19.35 -99.15 -19.55 -99.1 -19.75 -99.1 -19.95 -99.0 -20.1 -98.75 -20.3 -98.5 -20.5 -98.3 -20.6 -98.0 -20.65 -98.0 -20.7 -97.0 -20.7 -96.35 -20.35 -95.2 -19.45 -94.8 -19.05 -94.7 -18.85 -94.55 -18.5 -94.4 -18.15 -94.3 -17.75 -94.3 -16.6 Q-94.25 -15.4 -94.85 -14.35 L-95.6 -13.45 -96.75 -13.0 -98.5 -12.55 -98.9 -12.65 Q-99.7 -12.8 -100.4 -13.2 L-100.95 -13.55 -101.1 -13.75 -101.3 -14.1 -101.5 -14.5 -101.55 -14.7 -101.55 -14.85 -101.55 -15.45 -101.55 -16.2 -101.55 -16.75 M-98.25 -19.05 L-98.5 -18.85 -98.7 -18.7 -98.85 -18.5 -99.25 -18.3 -99.9 -17.75 -100.05 -17.55 -100.15 -17.4 -100.25 -17.2 -100.3 -17.0 -100.45 -16.8 -100.45 -16.45 -100.45 -15.85 -100.45 -15.1 -100.45 -14.95 -100.3 -14.75 -99.95 -14.4 -99.7 -14.2 -98.5 -14.0 Q-97.45 -14.1 -96.5 -14.55 L-96.3 -14.75 -96.2 -14.95 -95.95 -15.3 -95.85 -15.7 -95.7 -16.25 -95.65 -17.0 -95.7 -17.35 -95.75 -17.55 -95.8 -17.75 -95.85 -17.95 -95.95 -18.1 -96.05 -18.3 -96.45 -18.7 -96.6 -18.85 -96.75 -18.95 -97.2 -19.1 -97.5 -19.2 -98.25 -19.05 M-51.5 -80.45 L-51.5 -81.0 -51.45 -81.4 -51.45 -81.55 -51.15 -81.9 -50.45 -82.7 -48.7 -83.35 -48.5 -83.35 -48.0 -83.25 -47.5 -83.0 -47.5 -82.95 -47.25 -83.0 -47.0 -83.05 -46.6 -82.95 -46.35 -82.8 Q-45.85 -82.65 -45.7 -82.2 L-45.65 -82.0 -45.6 -81.8 -45.6 -81.25 -46.0 -80.3 -46.55 -79.55 -47.0 -79.2 Q-49.55 -78.6 -51.45 -80.25 L-51.5 -80.45 M-48.45 -82.5 L-48.7 -82.55 Q-49.3 -82.3 -49.85 -82.0 -50.45 -81.6 -50.5 -81.05 L-50.45 -80.9 -50.35 -80.7 -50.1 -80.5 -47.45 -80.45 -47.3 -80.6 -47.2 -80.8 -47.0 -81.2 -46.85 -81.55 -46.95 -81.75 -47.2 -81.95 -47.35 -82.05 -48.15 -82.3 -48.45 -82.5 M-74.4 -58.25 Q-75.55 -59.3 -77.05 -59.35 -79.15 -58.3 -79.55 -56.15 L-79.8 -53.0 -79.75 -52.8 -79.6 -52.6 -79.5 -52.45 -79.45 -52.25 Q-77.35 -50.45 -74.5 -51.5 L-73.95 -51.85 -73.35 -52.25 Q-72.9 -52.85 -72.75 -53.55 L-72.55 -55.45 -72.55 -55.8 Q-73.25 -57.2 -74.4 -58.25 M-50.6 76.45 L-51.3 76.35 -51.45 76.4 -51.45 76.55 -51.45 76.75 -51.5 76.95 -51.6 77.15 -51.6 77.5 -51.55 77.85 -51.5 78.05 -49.6 78.15 -49.3 77.95 -49.35 77.75 -49.35 77.55 -49.35 77.4 -50.3 76.65 -50.6 76.45 M-50.1 75.25 L-49.05 76.0 Q-48.55 76.3 -48.2 76.75 L-48.15 77.15 -48.15 77.7 -48.2 78.25 -48.25 78.45 -48.8 79.0 -49.75 79.3 -51.25 79.25 -51.55 79.1 -51.85 78.95 -52.1 78.75 -52.25 78.55 -52.3 78.4 -52.45 78.2 -52.45 77.8 -52.4 77.45 -52.4 77.05 -52.35 76.9 -52.2 76.7 -52.05 76.5 -52.05 76.3 -52.05 76.15 -51.95 75.95 -51.95 75.75 -51.9 75.6 -51.75 75.4 -51.25 75.25 -50.5 75.15 -50.1 75.25 M-87.0 23.75 Q-85.85 24.1 -84.95 24.95 L-83.6 26.3 -83.4 26.7 -83.1 27.25 -82.8 27.8 -82.75 28.0 -82.75 28.4 -82.75 28.75 -82.75 29.3 -82.75 29.5 Q-84.3 34.45 -89.9 33.15 L-92.7 32.15 -92.8 31.95 -93.1 31.55 -93.35 31.2 -93.5 31.0 -93.6 29.7 Q-93.6 28.7 -93.05 27.85 L-92.55 26.9 Q-91.55 25.85 -90.3 25.2 L-88.2 24.25 -88.0 24.1 -87.85 24.0 -87.75 23.95 -87.5 23.85 -87.3 23.85 -87.0 23.8 -87.0 23.75 M-84.25 28.95 L-84.25 28.55 -84.25 28.4 -85.05 27.1 Q-86.05 25.9 -87.35 25.2 L-87.75 25.25 -88.0 25.2 -88.1 25.2 -88.3 25.25 Q-89.45 25.65 -90.45 26.4 L-91.75 27.5 -91.85 27.7 -91.95 27.85 -92.05 28.05 -92.2 28.25 -92.25 28.6 -92.35 29.2 -92.45 29.95 -92.45 30.3 -92.4 30.5 -92.3 30.7 -92.2 30.9 -92.05 31.05 -91.15 31.65 -89.6 32.05 Q-87.0 32.5 -85.05 30.95 L-84.45 30.45 -84.4 30.25 -84.35 30.05 -84.3 29.9 -84.25 29.7 -84.25 29.5 -84.25 29.3 -84.25 28.95" fill="#333333" fill-rule="evenodd" stroke="none"/>
  </g>
</svg>
