<?xml version="1.0" encoding="UTF-8" standalone="no"?>
<svg xmlns:xlink="http://www.w3.org/1999/xlink" height="199.05px" width="187.6px" xmlns="http://www.w3.org/2000/svg">
  <g transform="matrix(1.0, 0.0, 0.0, 1.0, 91.85, 99.55)">
    <path d="M-29.75 -97.4 L-29.65 -97.05 -29.6 -96.3 -29.6 -95.15 -29.7 -94.8 -29.85 -94.4 -30.75 -93.3 -31.25 -92.9 -32.0 -92.7 -32.5 -92.6 -35.0 -92.4 -35.75 -92.65 -36.0 -93.05 -36.25 -93.4 -36.5 -93.8 -36.75 -94.15 -36.75 -94.55 -36.75 -94.9 -36.8 -96.05 -36.6 -97.15 -36.2 -97.5 -35.5 -97.8 -34.6 -98.05 -34.35 -98.25 -34.1 -98.4 -33.5 -98.5 -33.5 -98.55 -33.0 -98.55 -31.05 -98.25 -29.85 -97.8 -29.75 -97.4 M39.2 95.2 L39.65 94.65 39.65 94.4 39.65 94.0 39.65 93.65 39.75 92.85 39.75 92.5 40.15 92.15 40.85 91.35 41.4 90.65 41.9 90.3 42.65 89.9 43.5 89.7 43.5 89.65 47.0 89.65 47.75 89.95 48.15 90.25 48.25 90.65 48.35 91.0 48.4 91.75 48.4 92.15 Q47.6 94.0 45.65 94.75 42.2 96.15 39.0 95.5 L39.2 95.2" fill="#908282" fill-opacity="0.5019608" fill-rule="evenodd" stroke="none"/>
    <path d="M-34.75 -99.55 Q-32.85 -99.3 -31.5 -98.0 -30.55 -97.1 -30.1 -95.85 L-30.1 -95.3 -30.1 -94.95 -30.1 -94.55 -30.1 -94.35 Q-30.25 -93.75 -30.65 -93.25 -31.25 -92.5 -32.1 -92.1 L-32.5 -91.95 -35.25 -92.2 -36.35 -92.55 -36.6 -92.95 -36.8 -93.3 -36.95 -93.5 -37.05 -94.6 -36.95 -95.55 -36.7 -96.5 -35.95 -97.45 Q-35.45 -98.1 -34.7 -98.3 L-34.5 -98.35 -35.0 -98.45 -35.5 -98.5 -35.75 -98.65 -35.8 -98.8 -35.15 -99.3 -34.75 -99.55 M-35.4 -96.65 Q-35.9 -96.0 -36.0 -95.2 L-36.0 -94.8 -36.05 -94.25 -35.85 -93.7 -35.0 -93.2 Q-33.9 -92.95 -32.75 -93.2 L-32.4 -93.4 -32.1 -93.6 -31.7 -93.95 -31.55 -94.15 -31.5 -94.3 -31.45 -94.5 -31.35 -94.7 -31.35 -94.85 -31.35 -95.05 -31.35 -95.25 -31.35 -95.45 -31.95 -96.55 Q-32.7 -97.6 -33.8 -97.8 L-35.4 -96.65 M-77.6 -58.95 L-77.75 -58.8 -77.85 -58.7 -77.7 -58.5 -77.45 -58.1 -77.2 -57.75 -76.95 -57.2 -76.95 -56.6 -76.95 -56.05 -76.95 -55.3 -77.0 -55.1 -77.05 -54.95 -77.1 -54.8 -77.25 -54.75 -77.5 -54.7 -78.0 -54.7 Q-78.85 -54.95 -79.6 -55.4 -80.05 -55.6 -80.35 -55.95 L-80.55 -56.5 -80.5 -57.25 -80.5 -58.2 -80.45 -58.35 -80.35 -58.55 -80.25 -58.75 -80.2 -58.95 -80.0 -59.1 -79.6 -59.3 -79.25 -59.4 -79.25 -59.45 -78.35 -59.2 -77.6 -58.95 M-79.5 -58.0 L-79.5 -57.25 -79.5 -56.7 Q-79.05 -55.95 -78.1 -55.85 -78.0 -56.1 -78.05 -56.4 L-78.05 -56.95 -78.5 -57.65 -78.85 -58.0 -79.5 -58.05 -79.5 -58.0 M-90.55 30.7 L-90.75 31.05 -90.75 31.25 -90.75 31.45 -90.75 31.65 -87.75 31.7 -87.55 31.65 Q-87.85 31.1 -88.4 30.7 L-88.85 30.4 -90.3 30.3 -90.55 30.7 M-89.25 28.65 L-88.85 28.75 -87.6 29.9 -86.6 30.8 -86.55 31.0 -86.45 31.2 -86.45 31.4 -86.45 31.55 -86.45 31.75 -86.5 31.95 -86.55 32.1 -86.7 32.3 -86.8 32.5 Q-88.95 33.85 -91.5 32.75 L-91.75 32.55 -91.85 32.0 -91.8 31.45 -91.75 30.9 -91.1 29.75 -90.05 28.75 -89.75 28.55 -89.25 28.65 M93.5 34.75 L94.5 35.1 95.4 35.45 95.5 35.65 95.6 35.8 95.7 36.0 95.75 36.2 95.75 36.4 95.75 36.55 95.75 36.75 95.75 37.15 95.75 37.3 95.7 37.5 95.6 37.7 95.5 37.9 95.35 38.05 95.05 38.25 94.7 38.4 94.5 38.45 91.85 38.25 91.65 38.15 91.65 37.95 91.65 37.75 91.65 37.55 91.65 37.0 91.65 36.65 91.8 36.45 92.0 36.25 92.2 36.05 92.4 35.9 92.45 35.7 92.35 35.5 92.2 35.3 92.2 35.15 92.35 35.0 92.5 34.95 93.2 34.85 93.5 34.75 M93.0 36.25 L92.45 36.8 92.4 37.0 92.4 37.2 92.4 37.4 92.4 37.5 94.4 37.45 94.7 37.25 94.75 37.05 94.75 36.7 94.7 36.3 94.0 35.9 Q93.7 35.7 93.45 35.9 L93.0 36.25 M27.6 98.0 L27.65 97.65 27.65 97.45 27.65 97.25 27.7 97.05 27.8 96.85 27.9 96.7 Q28.2 96.3 28.7 96.2 L29.0 96.1 29.0 96.05 30.3 96.4 31.2 97.15 31.25 97.7 31.25 98.25 31.25 98.8 30.45 99.4 30.0 99.5 Q28.85 99.4 27.9 98.7 L27.55 98.4 27.6 98.0 M28.55 96.95 L28.45 97.3 28.4 97.9 Q28.6 98.35 29.2 98.45 L30.25 98.25 30.25 98.05 30.25 97.9 30.25 97.7 Q29.75 96.95 28.75 96.9 L28.55 96.95 M38.95 94.05 Q39.1 92.45 40.2 91.25 L41.0 90.3 41.55 89.95 42.15 89.55 42.3 89.45 41.5 89.3 Q40.95 89.2 40.65 88.9 L40.65 88.7 40.75 88.55 41.0 88.4 41.35 88.3 41.5 88.25 41.75 88.2 42.4 88.3 43.0 88.4 43.4 88.5 45.0 89.65 46.2 90.55 46.55 91.15 46.95 91.7 47.3 92.25 47.4 92.8 47.4 93.2 47.4 93.75 47.4 93.95 47.2 94.7 47.0 95.25 46.55 96.0 Q45.9 96.65 44.95 96.95 L44.0 97.3 41.25 97.4 39.75 96.7 39.0 96.15 Q38.85 95.15 38.95 94.05 M40.05 94.45 L40.05 94.8 40.05 95.2 40.35 95.5 41.0 95.95 43.95 96.0 45.25 95.4 45.5 95.25 45.85 94.5 46.1 93.75 46.15 93.55 46.15 93.4 46.15 93.2 46.15 93.0 46.15 92.8 Q45.7 91.8 44.9 91.1 L43.4 90.0 43.2 89.9 42.9 89.9 42.8 89.95 42.65 90.15 42.55 90.3 Q41.45 91.0 40.8 92.15 40.25 93.05 40.05 94.05 L40.05 94.45" fill="#333333" fill-rule="evenodd" stroke="none"/>
  </g>
</svg>
