<?xml version="1.0" encoding="UTF-8" standalone="no"?>
<svg xmlns:xlink="http://www.w3.org/1999/xlink" height="195.35px" width="80.85px" xmlns="http://www.w3.org/2000/svg">
  <g transform="matrix(1.0, 0.0, 0.0, 1.0, 36.8, 98.8)">
    <path d="M-32.75 -97.8 L-32.65 -97.6 -32.55 -97.45 -32.5 -97.25 -32.5 -97.05 -32.5 -96.85 -32.55 -96.7 -32.6 -96.5 -32.75 -96.3 -32.8 -96.1 Q-33.4 -95.55 -34.25 -95.35 L-36.6 -95.6 -36.6 -95.8 -36.6 -96.35 -36.6 -96.75 -36.6 -97.1 -36.45 -97.3 -36.25 -97.5 -36.05 -97.7 -36.35 -97.9 -36.8 -98.25 -36.7 -98.4 -36.0 -98.7 -36.0 -98.75 -34.25 -98.65 -32.8 -98.0 -32.75 -97.8 M-34.5 -97.75 L-35.2 -97.6 -35.5 -97.25 -35.85 -96.85 -35.85 -96.7 -35.85 -96.5 -35.85 -96.3 Q-34.5 -95.75 -33.5 -96.85 -33.6 -97.6 -34.5 -97.75 M42.75 92.75 L43.3 93.05 43.9 93.6 44.0 93.8 44.05 94.2 44.05 94.75 44.05 95.5 44.0 95.7 43.95 95.85 43.8 96.05 43.7 96.25 43.55 96.4 43.25 96.55 41.4 96.35 41.0 96.2 40.8 96.0 40.65 95.8 40.5 95.65 40.5 95.45 40.5 95.05 40.5 94.7 40.5 94.3 40.7 94.15 41.0 93.9 41.2 93.75 41.25 93.55 41.3 93.35 41.3 93.2 41.5 93.05 42.0 92.85 42.25 92.75 42.75 92.75 M42.4 94.1 L42.15 94.15 41.65 94.65 Q41.4 94.9 41.5 95.25 42.0 95.8 42.9 95.4 L42.9 95.0 42.9 94.65 42.9 94.25 42.5 94.1 42.4 94.1" fill="#333333" fill-rule="evenodd" stroke="none"/>
  </g>
</svg>
