<?xml version="1.0" encoding="UTF-8" standalone="no"?>
<svg xmlns:xlink="http://www.w3.org/1999/xlink" height="36.15px" width="22.0px" xmlns="http://www.w3.org/2000/svg">
  <g transform="matrix(1.0, 0.0, 0.0, 1.0, 11.0, 18.1)">
    <path d="M9.1 -16.95 Q8.15 -12.5 8.25 -8.05 8.35 -3.05 9.75 1.65 11.1 6.1 6.85 9.05 4.5 10.7 2.5 12.8 -0.6 16.15 -5.15 16.85 -8.35 17.6 -10.1 14.8 L-10.05 10.85 -0.3 0.3 Q0.05 -0.1 0.15 -0.6 1.25 -6.25 0.2 -11.85 L0.2 -12.65 Q0.45 -14.35 -0.35 -15.8 -0.85 -17.45 3.3 -17.45 L8.9 -17.6 Q9.2 -17.45 9.1 -16.95" fill="#8399a7" fill-rule="evenodd" stroke="none"/>
    <path d="M9.0 -0.6 Q12.6 3.95 7.85 8.2 L7.65 8.45 6.5 8.45 Q4.1 5.85 5.7 2.35 L6.5 1.0 Q7.25 -0.1 8.6 -0.6 L9.0 -0.6" fill="#8399a7" fill-rule="evenodd" stroke="none"/>
    <path d="M-7.15 7.35 Q-3.2 10.1 -1.85 15.0 L-1.65 16.7 Q-4.65 17.55 -7.65 16.8 -10.7 16.25 -10.4 13.35 -10.05 10.15 -8.0 7.85 L-7.15 7.35" fill="#8399a7" fill-rule="evenodd" stroke="none"/>
    <path d="M4.2 -12.9 L4.55 -13.1 5.95 -12.2 6.75 -11.9 Q7.45 -11.55 7.45 -10.8 L6.9 -10.35 4.75 -8.9 1.4 -11.1 2.15 -11.45 3.9 -12.8 4.2 -12.9" fill="#ffffff" fill-rule="evenodd" stroke="none"/>
    <path d="M9.3 -17.4 L9.45 -17.3 9.5 -17.2 9.55 -17.1 9.6 -17.0 9.6 -16.9 9.6 -16.85 9.6 -16.75 9.55 -16.65 9.5 -16.55 9.5 -16.45 9.45 -16.35 9.45 -16.25 9.4 -16.15 9.35 -16.05 9.3 -16.0 9.25 -15.9 9.25 -15.8 9.25 -15.7 9.25 -15.6 9.25 -15.5 9.2 -15.4 9.15 -15.35 9.0 -15.15 8.95 -15.05 8.9 -14.95 8.9 -14.85 8.8 -14.75 8.65 -14.6 8.4 -14.3 8.35 -14.2 8.4 -12.5 8.4 -10.85 8.45 -9.15 8.5 -9.05 8.55 -8.95 8.6 -8.85 8.6 -8.65 8.7 -8.4 8.7 -8.1 8.7 -8.0 8.7 -7.9 8.75 -7.85 8.8 -7.75 8.8 -7.65 8.85 -7.55 8.85 -7.25 8.85 -6.8 8.85 -6.35 8.85 -6.25 8.8 -6.15 8.75 -6.05 8.65 -5.85 8.5 -5.65 8.45 -5.6 8.45 -5.5 8.4 -5.4 8.4 -5.3 8.4 -5.2 8.4 -5.1 8.4 -5.0 8.45 -4.9 8.5 -4.85 8.55 -4.75 8.6 -4.65 8.65 -4.55 8.7 -4.45 8.7 -4.35 8.75 -4.25 8.8 -4.15 8.85 -3.9 8.9 -3.4 8.95 -2.95 8.95 -2.75 9.0 -2.65 9.05 -2.6 9.05 -2.5 9.1 -2.4 9.15 -2.3 9.2 -2.2 9.2 -2.1 9.2 -2.0 9.2 -1.9 9.25 -1.85 9.3 -1.75 9.35 -1.65 9.4 -1.55 9.45 -1.45 9.45 -1.35 9.45 -1.25 9.5 -1.2 9.65 -1.0 9.8 -0.8 9.9 -0.7 9.9 -0.6 9.95 -0.5 9.95 -0.4 10.0 -0.35 10.05 -0.25 10.1 -0.15 10.1 -0.05 10.15 0.05 10.15 0.25 10.15 0.4 10.15 0.5 10.2 0.6 10.2 0.7 10.2 1.15 10.25 1.85 10.25 2.5 10.25 2.65 10.2 2.75 10.2 2.85 10.15 2.95 10.15 3.15 10.15 3.4 10.15 3.8 10.15 4.0 10.15 4.1 10.1 4.15 10.05 4.25 10.0 4.35 9.95 4.45 9.9 4.55 9.85 4.65 9.8 4.75 9.75 4.8 9.7 4.9 9.65 5.0 9.6 5.1 9.55 5.2 9.4 5.4 9.3 5.5 9.2 5.6 9.15 5.65 9.15 5.75 9.1 5.85 9.05 5.95 8.95 6.05 8.9 6.15 8.8 6.25 8.8 6.35 8.75 6.4 8.75 6.5 8.7 6.6 8.7 6.7 8.65 6.8 8.55 6.9 8.55 7.0 8.45 7.1 8.35 7.15 8.25 7.25 8.2 7.35 8.05 7.45 7.95 7.5 7.9 7.55 7.7 7.6 6.95 8.05 5.95 8.4 5.65 8.35 5.55 8.25 5.45 8.15 5.4 8.1 5.35 8.0 5.3 7.9 5.3 7.8 5.3 7.7 5.35 7.6 5.4 7.5 5.4 7.4 5.45 7.35 5.45 7.25 5.6 7.05 5.9 6.8 Q6.0 6.65 6.2 6.6 L6.3 6.55 6.7 6.3 6.85 6.25 6.95 6.15 7.1 6.05 7.1 5.95 7.15 5.85 7.15 5.75 7.2 5.7 7.3 5.6 7.3 5.5 7.4 5.4 7.4 5.3 7.45 5.2 7.5 5.1 7.6 4.9 7.8 4.65 8.0 4.45 8.05 4.35 8.1 4.25 8.2 4.15 8.25 4.1 8.3 4.0 8.4 3.9 8.4 3.8 8.45 3.7 8.5 3.6 8.5 3.4 8.55 3.05 8.55 2.65 8.55 2.5 8.55 2.4 8.6 2.3 8.65 2.2 8.65 2.0 8.65 1.65 8.65 1.25 8.65 1.0 8.55 1.0 8.5 1.05 8.4 1.1 8.2 1.1 8.1 1.1 7.9 1.05 7.7 1.0 7.55 0.9 7.5 0.85 7.4 0.75 7.35 0.65 7.3 0.55 7.3 0.45 7.25 0.35 7.2 0.25 7.15 0.15 7.1 0.0 7.05 -0.2 7.0 -0.4 6.95 -0.5 6.9 -0.6 6.9 -0.75 6.9 -1.15 6.9 -1.5 6.9 -1.8 6.85 -1.9 6.8 -2.0 6.8 -3.3 6.8 -4.7 Q6.75 -5.4 6.95 -6.0 L7.0 -6.1 7.05 -6.2 7.05 -6.3 7.1 -6.4 7.15 -6.5 7.2 -6.6 7.3 -6.65 7.3 -6.75 7.3 -6.85 7.35 -7.05 7.35 -7.25 7.3 -7.35 7.3 -7.4 7.25 -7.5 7.2 -7.6 7.2 -7.7 7.2 -7.8 7.2 -8.0 7.15 -8.15 7.15 -8.45 7.05 -8.55 7.05 -8.65 7.0 -8.75 6.95 -8.85 6.95 -8.9 6.95 -10.9 7.0 -12.85 7.05 -14.85 7.1 -14.9 7.15 -15.0 7.25 -15.1 7.4 -15.2 7.55 -15.3 7.8 -15.4 7.85 -15.5 7.9 -15.55 8.05 -15.75 8.15 -15.85 8.15 -15.95 8.15 -16.05 8.15 -16.15 8.2 -16.25 8.3 -16.35 8.35 -16.4 8.4 -16.5 8.4 -16.6 8.4 -16.7 8.4 -16.8 8.45 -16.9 8.5 -17.0 8.55 -17.1 8.7 -17.25 8.8 -17.35 8.9 -17.4 9.1 -17.45 9.3 -17.4" fill="#663333" fill-opacity="0.101960786" fill-rule="evenodd" stroke="none"/>
    <path d="M5.1 6.0 Q6.7 5.0 8.5 4.5 L8.7 4.45 9.45 4.5 9.8 4.55 9.95 4.65 10.05 4.75 10.15 4.85 10.2 4.9 10.2 5.0 10.25 5.1 10.3 5.2 10.3 5.3 10.3 5.4 10.25 5.5 10.2 5.6 10.2 5.65 10.15 5.75 10.05 5.85 9.95 5.95 9.8 6.05 9.65 6.15 9.5 6.25 9.4 6.3 9.3 6.35 9.15 6.35 8.95 6.4 8.85 6.5 8.7 6.6 8.6 6.7 8.5 6.75 8.4 6.8 8.3 6.85 8.1 6.9 8.0 7.0 7.65 7.35 6.9 8.0 6.75 8.1 6.65 8.2 6.25 8.65 5.2 9.5 5.05 9.6 5.0 9.7 4.9 9.8 4.85 9.9 4.75 10.0 4.65 10.15 4.5 10.25 4.4 10.35 4.3 10.45 4.05 10.65 3.9 10.75 3.75 10.9 3.0 11.65 2.2 12.55 2.2 12.6 2.2 12.7 2.2 12.8 2.2 12.9 2.2 13.0 2.2 13.1 2.15 13.2 2.1 13.25 1.35 14.05 Q0.55 14.95 -0.6 15.35 L-1.55 15.8 -1.85 15.9 -2.25 16.1 -2.6 16.25 -2.65 16.35 -2.8 16.45 -2.95 16.5 -3.15 16.55 -3.55 16.6 -3.8 16.7 -4.3 16.9 -4.85 17.15 -4.95 17.2 -5.1 17.25 -5.35 17.3 -5.8 17.35 -6.1 17.25 -6.25 17.15 -6.35 17.05 -6.4 17.0 -6.45 16.9 -6.5 16.8 -6.5 16.7 -6.5 16.6 -6.5 16.5 -6.45 16.4 -6.45 16.35 -6.35 16.25 -6.25 16.15 -6.15 16.05 -6.0 16.0 -5.8 15.95 -4.75 15.55 -3.95 15.25 -3.8 15.15 -3.45 14.8 -2.7 14.1 -2.45 13.9 -2.4 13.85 -2.35 13.75 -2.35 13.65 -2.3 13.55 Q-1.25 11.45 0.5 9.95 L2.7 7.9 Q3.8 6.8 5.1 6.0" fill="#663333" fill-opacity="0.101960786" fill-rule="evenodd" stroke="none"/>
    <path d="M0.95 6.5 L0.95 6.45 2.2 6.5 2.95 6.65 3.25 6.85 3.45 7.05 3.6 7.2 3.7 7.4 3.75 7.6 3.95 7.7 4.3 7.8 4.7 7.9 5.0 8.1 5.2 8.3 5.35 8.45 5.45 8.65 5.5 8.85 5.6 9.05 5.65 9.2 5.65 9.4 5.65 9.6 5.65 9.8 5.6 9.95 5.5 10.15 5.45 10.35 5.4 10.55 5.25 10.7 5.05 10.9 4.8 11.1 4.6 11.2 4.35 11.25 3.95 11.35 2.85 11.45 2.7 11.65 2.65 11.85 2.6 12.05 2.5 12.2 2.45 12.4 2.35 12.6 2.2 12.75 2.0 12.95 1.85 13.15 1.65 13.35 1.6 13.55 1.5 13.7 1.45 13.9 1.35 14.1 1.1 14.45 0.65 15.05 0.1 15.6 -0.25 15.8 -0.55 15.95 -0.8 16.15 -1.05 16.35 -1.45 16.45 -1.8 16.55 -2.4 16.65 -2.7 16.85 -3.05 17.05 -3.3 17.15 -3.4 17.2 -3.65 17.25 Q-4.8 17.5 -5.9 17.25 L-6.3 17.15 -6.6 16.95 -6.8 16.8 -7.0 16.6 -7.15 16.4 -7.3 16.2 -7.35 16.05 -7.4 15.85 -7.55 15.75 -8.05 15.65 -8.6 15.55 -8.85 15.35 -9.05 15.15 -9.15 14.95 -9.25 14.8 -9.3 14.6 -9.3 14.4 -9.3 14.2 -9.25 14.0 -9.25 13.85 -9.25 13.65 -9.0 13.05 -8.05 11.7 -6.65 10.25 -5.9 9.7 -5.5 9.5 -4.75 9.15 -4.15 8.8 -4.05 8.6 -3.9 8.4 -3.75 8.2 -3.55 8.05 -3.3 7.9 -3.15 7.85 -2.9 7.8 -1.55 7.75 -0.85 7.85 -0.75 7.75 -0.65 7.6 -0.6 7.4 -0.5 7.2 -0.3 7.05 -0.1 6.85 0.2 6.65 0.6 6.55 0.95 6.5" fill="#663333" fill-opacity="0.101960786" fill-rule="evenodd" stroke="none"/>
    <path d="M6.15 0.35 L6.5 0.7 6.7 0.9 7.35 1.3 7.8 1.65 8.25 2.2 8.45 2.6 8.5 2.8 8.6 2.95 8.65 3.15 8.65 3.55 8.65 3.9 8.65 4.45 8.65 5.05 8.65 5.4 8.65 5.6 8.6 5.8 8.5 5.95 8.45 6.15 8.35 6.35 8.2 6.5 8.0 6.7 7.9 6.9 7.85 7.1 7.75 7.3 7.7 7.45 7.2 8.2 6.35 9.15 Q5.8 9.7 5.1 9.9 L4.8 10.1 4.45 10.3 4.1 10.45 3.7 10.65 3.6 10.85 3.5 11.0 3.4 11.2 3.25 11.4 3.15 11.6 3.1 11.8 3.0 11.95 2.95 12.15 1.3 13.75 Q-0.85 15.35 -3.55 14.4 L-3.85 14.2 -4.05 14.05 -4.25 13.85 -4.35 13.65 -4.4 13.45 -4.6 13.3 -5.0 13.1 -5.15 12.9 -5.3 12.7 -5.4 12.5 -5.5 12.35 -5.55 12.15 -5.55 11.95 -5.55 11.8 -5.55 11.6 -5.5 11.2 -5.5 10.85 -5.4 10.65 -5.35 10.45 -5.3 10.3 -5.25 10.1 -5.15 9.9 -5.1 9.7 -4.8 9.15 -4.35 8.4 -3.6 7.65 -3.15 7.3 -2.85 6.9 -2.6 6.55 -2.25 6.15 -1.8 5.8 -1.65 5.6 -1.7 5.4 -1.75 5.2 -1.75 5.05 -1.7 4.85 -1.65 4.65 -1.6 4.45 -1.5 4.3 -1.35 4.1 -1.15 3.9 -0.65 3.6 -0.4 3.55 -0.05 3.45 0.85 3.35 1.2 3.15 1.25 2.95 1.25 2.8 1.25 2.6 1.25 2.4 1.25 2.2 1.35 1.85 1.4 1.65 1.5 1.45 1.7 1.3 1.9 1.1 2.0 0.9 2.1 0.7 2.15 0.55 2.2 0.35 2.35 0.15 2.5 -0.05 2.7 -0.2 2.95 -0.35 3.1 -0.4 3.35 -0.45 3.7 -0.5 4.2 -0.55 4.2 -0.6 4.45 -0.6 4.8 -0.5 5.2 -0.4 5.75 0.0 6.15 0.35" fill="#663333" fill-opacity="0.101960786" fill-rule="evenodd" stroke="none"/>
    <path d="M5.85 -10.6 L6.1 -10.65 6.45 -10.7 6.8 -10.65 7.2 -10.55 7.45 -10.35 7.65 -10.15 7.85 -9.95 7.9 -9.8 7.95 -9.6 8.0 -9.4 8.1 -9.2 8.1 -9.05 8.1 -8.85 8.1 -8.65 8.1 -8.45 8.1 -8.3 8.1 -8.1 8.15 -7.95 8.4 -7.7 8.5 -7.55 8.65 -7.35 8.7 -7.15 8.75 -6.95 8.85 -6.8 8.85 -6.6 8.85 -6.4 8.85 -6.2 8.85 -6.05 8.8 -5.85 8.75 -5.65 8.7 -5.5 8.6 -5.3 8.45 -5.1 8.55 -4.9 8.65 -4.7 8.7 -4.55 8.75 -4.35 8.85 -4.15 8.9 -3.95 8.9 -3.8 8.9 -3.6 8.9 -3.4 8.9 -3.2 8.85 -3.05 8.85 -2.85 8.75 -2.65 8.65 -2.45 8.65 -2.3 8.6 -2.1 8.6 -1.9 8.5 -1.75 8.4 -1.55 8.4 -1.35 8.45 -1.3 8.8 -1.2 9.2 -1.1 9.5 -0.9 9.7 -0.7 9.9 -0.55 10.05 -0.35 10.25 0.0 10.4 0.2 10.45 0.4 10.5 0.6 10.6 0.8 10.65 0.95 10.65 1.35 10.65 1.9 10.65 2.65 10.65 3.2 10.6 3.4 10.5 3.6 10.45 3.8 10.35 3.95 10.25 4.15 10.2 4.35 10.15 4.55 10.0 4.7 9.95 4.9 9.9 5.1 9.85 5.3 9.75 5.45 9.65 5.85 9.5 6.05 9.4 6.2 9.25 6.4 9.15 6.6 8.9 6.75 8.6 6.95 8.35 7.15 8.25 7.35 8.05 7.7 7.8 8.1 7.2 8.65 6.95 8.85 6.55 8.9 5.45 9.05 5.1 9.1 5.05 9.25 5.0 9.45 4.95 9.65 4.9 9.85 4.8 10.0 4.65 10.2 4.45 10.4 4.2 10.6 3.45 10.75 2.45 10.6 1.85 10.3 1.6 10.2 1.2 10.1 0.9 9.9 0.7 9.7 0.5 9.55 0.35 9.35 0.15 9.15 0.0 8.95 -0.05 8.8 -0.1 8.6 -0.15 8.4 -0.15 8.05 -0.15 7.65 -0.2 7.1 -0.1 6.35 -0.05 6.15 0.15 5.95 0.25 5.8 0.3 5.6 0.35 5.4 0.35 5.2 0.35 5.05 0.4 4.85 0.65 4.45 0.95 4.1 1.5 3.55 1.7 3.35 2.0 3.15 2.1 2.05 2.2 0.35 2.5 -1.15 2.6 -1.35 2.65 -2.85 3.0 -4.9 3.45 -6.95 3.6 -7.15 3.6 -7.35 3.6 -7.55 3.6 -7.7 3.6 -7.9 3.65 -8.1 3.7 -8.3 3.85 -8.45 3.95 -8.65 4.15 -8.85 4.4 -9.05 4.5 -9.25 4.7 -9.6 4.9 -9.95 5.45 -10.45 5.6 -10.55 5.85 -10.6" fill="#663333" fill-opacity="0.101960786" fill-rule="evenodd" stroke="none"/>
    <path d="M8.5 -15.2 L8.65 -15.05 8.7 -14.85 8.75 -14.65 8.85 -14.45 8.85 -14.3 8.85 -14.1 8.85 -13.9 8.75 -13.7 8.7 -13.55 8.65 -13.35 8.5 -13.15 8.4 -13.0 8.05 -12.6 7.65 -12.2 7.7 -12.05 7.75 -11.85 7.8 -11.65 7.85 -11.45 7.75 -11.3 7.7 -11.1 7.55 -10.9 7.4 -10.7 7.05 -10.55 6.85 -10.4 6.6 -10.35 6.2 -10.3 5.65 -10.4 5.35 -10.6 5.15 -10.8 5.05 -11.0 4.95 -11.15 4.9 -11.35 4.9 -11.55 4.9 -11.7 4.9 -11.85 4.7 -11.85 2.95 -11.95 2.7 -11.95 2.35 -12.1 2.1 -12.3 1.4 -12.45 1.15 -12.65 0.95 -12.85 0.85 -13.05 0.75 -13.2 0.7 -13.4 0.7 -13.6 0.7 -13.8 0.75 -13.95 0.85 -14.15 0.95 -14.35 1.15 -14.55 1.4 -14.7 2.0 -14.9 2.35 -15.05 6.4 -15.2 6.6 -15.4 6.9 -15.6 7.45 -15.7 7.95 -15.6 8.35 -15.4 8.5 -15.2" fill="#663333" fill-opacity="0.101960786" fill-rule="evenodd" stroke="none"/>
    <path d="M3.25 -17.15 L4.55 -17.25 5.9 -17.5 6.3 -17.5 7.1 -17.6 7.6 -17.65 7.8 -17.75 8.0 -17.8 8.3 -17.8 8.4 -17.8 8.7 -17.75 8.7 -17.8 8.95 -17.65 9.2 -17.5 9.45 -17.3 9.6 -17.05 9.6 -16.9 9.6 -16.7 9.5 -16.5 9.4 -16.35 9.2 -16.2 8.75 -16.15 8.55 -16.05 8.3 -15.9 8.1 -15.8 7.85 -15.65 7.45 -15.6 7.25 -15.45 7.15 -15.3 7.05 -15.15 6.9 -15.0 6.75 -14.85 6.45 -14.75 6.1 -14.65 5.8 -14.55 5.6 -14.45 3.45 -14.3 2.2 -14.65 1.8 -14.65 1.8 -14.45 1.95 -14.2 2.15 -13.75 2.25 -13.35 2.45 -12.7 2.5 -12.5 2.55 -12.3 2.55 -12.1 2.5 -11.9 2.5 -11.7 2.55 -11.5 2.6 -11.3 2.6 -11.1 2.55 -10.9 2.55 -10.5 2.6 -10.15 2.55 -9.95 2.5 -9.75 2.45 -9.6 2.5 -9.4 2.5 -9.2 2.5 -9.0 2.55 -8.8 2.6 -8.55 2.7 -8.35 2.7 -8.15 2.7 -7.95 2.7 -7.75 2.7 -7.6 2.7 -7.4 2.75 -7.2 2.75 -7.0 2.7 -6.8 2.65 -6.6 2.65 -6.45 2.6 -6.25 2.6 -6.05 2.6 -5.85 2.6 -5.65 2.65 -5.45 2.6 -5.3 2.55 -5.1 2.5 -4.95 2.4 -4.75 2.35 -4.6 2.3 -4.4 2.3 -4.2 2.3 -4.0 2.25 -3.85 2.2 -3.65 2.15 -3.5 2.15 -3.3 2.15 -3.1 2.15 -2.9 2.1 -2.75 2.05 -2.55 2.0 -2.35 2.05 -2.15 2.05 -1.95 2.0 -1.8 1.95 -1.6 1.85 -1.45 1.9 -1.25 2.0 -1.0 2.0 -0.8 2.0 -0.65 1.9 -0.45 1.8 -0.3 1.7 -0.2 1.55 -0.2 1.35 -0.2 1.05 -0.4 0.95 -0.65 0.9 -0.85 0.8 -0.95 0.45 -1.25 0.3 -1.5 0.2 -1.7 0.15 -1.9 0.1 -2.1 0.1 -2.3 0.1 -2.5 0.0 -2.75 -0.05 -3.15 -0.1 -3.5 -0.05 -4.1 -0.05 -4.3 0.0 -4.5 0.05 -4.65 0.05 -4.85 0.15 -5.2 0.25 -5.55 0.25 -5.75 0.2 -5.95 0.2 -6.15 0.25 -6.35 0.3 -6.5 0.35 -6.7 0.4 -6.85 0.35 -7.05 0.3 -7.3 0.3 -7.5 0.3 -7.7 0.35 -7.85 0.25 -8.05 0.25 -8.25 0.25 -8.45 0.2 -8.7 0.15 -8.9 0.1 -9.1 0.05 -9.3 0.05 -9.5 0.1 -9.7 0.1 -9.85 0.15 -10.05 0.2 -10.2 0.15 -10.45 0.15 -10.65 0.1 -10.85 0.1 -11.0 0.05 -11.25 0.05 -11.45 0.05 -11.65 0.05 -11.8 0.1 -12.0 0.1 -12.2 -0.2 -13.05 -0.8 -14.25 -1.15 -15.1 -1.15 -15.3 -1.15 -15.5 -1.15 -15.7 -1.1 -15.85 -1.1 -16.05 -1.05 -16.2 -0.95 -16.4 -0.85 -16.55 -0.7 -16.7 -0.5 -16.85 -0.3 -16.95 0.1 -17.05 0.4 -17.05 0.75 -17.1 0.9 -17.15 1.4 -17.15 2.2 -17.25 2.45 -17.25 2.8 -17.25 3.25 -17.15" fill="#ffffff" fill-opacity="0.101960786" fill-rule="evenodd" stroke="none"/>
    <path d="M-0.7 1.0 L-0.7 1.2 -0.8 1.35 -0.9 1.5 -0.9 1.7 -0.9 1.9 -0.8 2.1 -0.8 2.3 -0.9 2.5 -1.05 2.65 -1.15 2.8 -1.15 3.0 -1.1 3.2 -1.35 3.5 -1.65 3.8 -1.8 3.95 -2.0 4.3 -2.15 4.6 -2.3 4.95 -2.4 5.1 -2.55 5.25 -2.65 5.45 -2.7 5.6 -2.75 5.8 -2.45 5.95 -2.35 6.15 -2.45 6.3 -2.55 6.5 -2.55 6.65 -2.45 6.9 -2.35 7.15 -2.35 7.3 -2.35 7.5 -2.35 7.7 -2.4 7.9 -2.5 8.05 -2.55 8.25 -2.65 8.4 -2.75 8.55 -2.7 8.75 -2.75 8.95 -2.75 9.15 -2.75 9.35 -2.75 9.5 -2.8 9.7 -2.85 9.9 -2.9 10.05 -2.95 10.25 -3.0 10.4 -3.05 10.6 -3.2 10.75 -3.3 10.9 -3.45 11.05 -3.6 11.2 -3.65 11.4 -3.7 11.55 -3.75 11.75 -3.75 11.9 -3.8 12.1 -3.9 12.25 -4.0 12.45 -4.1 12.6 -4.4 12.9 -4.7 13.2 -5.05 13.45 -5.3 13.6 -5.35 13.75 -5.5 13.9 -5.6 14.05 -6.45 14.6 -7.15 14.95 -7.35 15.0 -8.7 14.75 -9.55 14.35 -9.75 14.1 -9.85 13.85 -10.0 13.6 -10.1 13.4 -10.1 13.2 -10.1 13.0 -10.15 12.8 -10.05 12.45 -9.95 12.1 -9.9 11.7 -9.75 11.4 -9.55 11.05 -9.4 10.7 -9.4 10.5 -9.35 10.35 -9.3 10.15 -9.25 9.95 -9.15 9.8 -9.05 9.65 -8.75 9.35 -8.5 9.05 -8.35 8.9 -8.25 8.75 -8.15 8.55 -8.05 8.4 -7.6 7.95 -7.05 7.55 -6.8 7.45 -6.65 7.3 -6.5 7.15 -6.45 6.95 -6.35 6.8 -6.2 6.65 -5.95 6.55 -5.4 6.5 -5.1 6.4 -4.85 6.3 -4.6 6.15 -4.5 6.0 -4.45 5.85 -4.35 5.65 -4.3 5.5 -4.15 5.35 -4.1 5.2 -4.0 5.0 -3.95 4.85 -3.85 4.65 -3.75 4.5 -3.6 4.35 -3.5 4.2 -3.4 4.05 -3.3 3.85 -3.2 3.7 -3.1 3.55 -2.95 3.4 -2.85 3.25 -2.75 3.05 -2.65 2.9 -2.5 2.75 -2.2 2.65 -2.1 2.5 -2.05 2.35 -1.95 2.15 -1.8 2.0 -1.6 1.9 -1.55 1.7 -1.45 1.55 -1.35 1.35 -1.3 1.2 -1.0 1.1 -0.9 1.0 -0.75 1.0 -0.7 1.0" fill="#ffffff" fill-opacity="0.101960786" fill-rule="evenodd" stroke="none"/>
    <path d="M4.5 -17.65 L4.95 -17.65 6.4 -17.9 8.45 -18.1 Q9.25 -18.15 9.7 -17.55 L9.8 -16.45 9.8 -16.35 9.8 -15.9 Q9.95 -15.35 9.55 -15.15 L9.35 -14.95 9.25 -13.85 9.2 -10.4 9.25 -5.8 Q9.25 -4.45 9.55 -3.15 L9.55 -3.05 9.55 -2.95 9.55 -2.85 9.55 -2.7 9.55 -2.65 9.6 -2.35 9.65 -1.9 9.65 -1.8 9.65 -1.75 9.65 -1.65 9.65 -1.5 9.7 -1.35 9.75 -1.25 9.8 -1.15 9.8 -1.05 9.85 -1.0 9.9 -0.9 9.95 -0.8 10.0 -0.5 10.1 -0.15 10.2 0.25 10.25 0.35 10.3 0.45 10.35 0.5 10.4 0.6 10.45 0.7 10.9 2.3 11.0 4.0 10.95 5.1 10.75 5.6 10.35 6.25 10.1 6.6 9.95 6.7 8.15 8.15 8.1 8.25 8.05 8.35 7.95 8.4 7.8 8.5 7.65 8.6 7.6 8.65 7.2 8.95 6.95 9.2 6.15 9.85 5.45 10.45 5.0 10.9 3.4 12.4 2.05 13.8 1.65 14.2 1.45 14.5 1.1 14.85 0.9 15.15 0.85 15.25 0.8 15.35 0.35 15.8 -0.35 16.35 -0.45 16.45 Q-3.65 18.5 -7.45 17.95 L-8.95 17.3 -9.4 17.1 -9.55 17.0 -10.2 16.35 -10.75 15.65 -10.9 15.35 -10.9 15.25 -10.95 15.05 -10.95 15.0 -11.0 14.25 -11.0 13.3 -11.0 12.45 -11.0 11.7 -10.95 11.4 -10.85 11.15 -10.7 10.65 -10.6 10.3 -10.55 10.2 -10.5 10.1 -10.45 10.0 -10.45 9.9 -10.0 9.25 -9.3 8.35 -8.6 7.6 -8.35 7.45 -8.2 7.3 -7.8 6.85 -7.65 6.65 -6.8 6.0 -6.05 5.4 -4.6 4.2 -3.45 3.15 -1.9 1.85 -0.9 0.55 -0.85 0.45 -0.7 0.25 -0.55 0.1 -0.45 0.0 -0.45 -0.1 -0.45 -0.15 -0.45 -0.25 -0.45 -0.35 -0.4 -0.55 -0.35 -0.75 -0.3 -0.9 -0.3 -1.0 -0.3 -1.1 -0.3 -1.2 -0.3 -1.3 Q0.1 -2.9 0.15 -4.6 L0.2 -8.15 0.1 -10.3 0.05 -10.5 -0.05 -10.85 -0.1 -11.25 -0.15 -11.4 -0.25 -12.35 -0.35 -13.5 -0.35 -14.05 -0.6 -14.25 -0.75 -14.6 -0.85 -15.1 Q-1.2 -16.15 -0.7 -17.4 L-0.6 -17.5 0.85 -17.65 2.85 -17.7 4.5 -17.65 M4.55 -14.35 L2.95 -14.35 Q2.25 -14.25 1.8 -14.65 L6.7 -15.35 7.15 -15.2 Q7.35 -14.85 6.85 -14.9 5.45 -14.3 4.55 -14.35 M0.7 -16.6 Q-0.1 -16.55 -0.15 -16.3 L-0.05 -15.35 Q0.1 -14.6 0.45 -14.35 L1.1 -9.25 1.25 -6.5 Q1.35 -3.75 0.7 -1.15 L0.6 -0.9 0.55 -0.8 0.5 -0.7 0.45 -0.4 0.45 -0.35 0.45 -0.25 0.45 -0.15 0.45 -0.05 0.4 0.05 0.35 0.15 0.3 0.25 0.3 0.35 0.25 0.4 -0.7 2.0 -2.15 3.6 -2.6 4.0 -4.55 5.8 -6.35 7.05 -6.4 7.1 -6.45 7.2 -6.6 7.3 -6.8 7.4 -6.9 7.5 -6.95 7.5 -7.0 7.6 -7.05 7.65 -7.2 7.85 -7.25 7.95 -7.3 8.05 -8.2 8.75 -8.85 9.65 -9.3 10.3 -9.3 10.4 -9.35 10.5 -9.35 10.6 -9.45 10.65 -9.55 10.95 -9.6 11.25 -9.7 11.6 -9.8 12.0 -9.8 12.55 -9.8 13.4 -9.8 14.05 -9.8 14.8 -9.8 14.9 -9.75 15.0 -9.7 15.05 -9.65 15.1 -9.3 15.45 -8.9 15.85 -8.8 15.95 -7.65 16.35 -7.25 16.5 Q-4.05 16.9 -1.25 15.25 L-0.75 14.9 -0.45 14.65 -0.4 14.6 -0.35 14.4 -0.2 14.2 0.05 13.9 1.75 12.1 3.6 10.4 3.95 10.1 3.9 10.05 3.8 10.05 3.6 9.9 3.4 9.8 3.3 9.7 2.8 9.35 2.45 9.1 2.2 8.85 2.1 8.8 2.05 8.75 2.0 8.7 1.95 8.65 2.05 8.55 2.1 8.6 2.2 8.6 2.3 8.6 2.35 8.65 2.45 8.7 2.6 8.8 2.7 8.9 2.8 8.95 3.05 9.15 3.3 9.3 3.5 9.4 3.7 9.55 3.85 9.65 4.05 9.8 4.1 9.85 4.1 9.9 4.15 9.95 5.05 9.15 5.2 9.05 5.4 8.95 5.9 8.6 6.55 8.1 7.05 7.75 7.9 6.95 9.1 5.85 9.3 5.6 9.5 5.2 9.7 4.85 9.7 4.45 9.7 4.25 9.3 4.15 8.8 4.05 8.7 4.0 8.7 3.95 8.65 3.9 8.6 3.85 8.65 3.8 8.65 3.75 8.75 3.75 8.8 3.8 8.9 3.8 9.05 3.8 9.1 3.8 9.5 3.85 9.7 3.9 9.7 3.35 9.7 3.25 9.35 3.25 9.05 3.35 8.7 3.25 8.55 3.25 8.5 3.2 8.55 3.15 9.25 3.05 9.65 2.95 9.55 2.5 9.5 2.0 9.5 1.95 9.4 1.55 9.25 1.1 9.1 0.6 9.05 0.5 9.0 0.35 8.95 -0.05 8.85 -0.4 8.8 -0.5 8.75 -0.6 8.7 -0.7 8.7 -0.8 8.65 -0.9 8.65 -1.0 8.65 -1.05 8.65 -1.15 8.65 -1.25 8.65 -1.35 8.65 -1.5 8.6 -1.55 8.6 -1.75 8.5 -2.15 8.4 -2.55 8.4 -2.7 8.35 -2.8 8.3 -2.95 Q7.9 -5.05 7.95 -7.2 L8.05 -11.8 8.05 -13.85 8.15 -14.35 8.55 -15.4 8.45 -15.35 8.25 -15.25 8.1 -15.25 7.8 -15.2 7.7 -15.25 7.6 -15.35 7.6 -15.4 7.65 -15.45 7.65 -15.5 7.7 -15.55 8.55 -15.8 8.7 -15.85 8.7 -15.9 8.7 -16.1 8.7 -16.2 8.75 -16.45 8.75 -16.6 8.75 -17.05 8.75 -17.15 8.7 -17.2 4.5 -16.8 0.7 -16.6 M3.6 8.45 L3.75 8.45 3.85 8.5 3.9 8.55 3.95 8.6 4.05 8.7 4.1 8.7 4.25 8.8 4.35 8.85 4.5 9.0 4.55 9.0 4.55 9.05 4.6 9.1 4.6 9.15 4.65 9.15 4.6 9.2 4.6 9.25 4.55 9.25 4.5 9.3 4.45 9.25 4.4 9.25 4.3 9.25 4.2 9.2 4.15 9.15 4.05 9.1 3.95 9.05 3.85 8.95 3.8 8.85 3.7 8.75 3.55 8.6 3.55 8.5 3.6 8.45 M2.35 9.95 L2.6 10.05 2.6 10.1 2.65 10.15 2.65 10.2 2.6 10.2 2.55 10.25 2.5 10.3 2.15 10.15 1.95 10.05 1.7 9.9 1.6 9.85 1.55 9.8 1.5 9.75 1.4 9.65 1.4 9.55 1.5 9.55 1.5 9.6 1.55 9.65 1.6 9.65 1.7 9.7 1.95 9.75 2.35 9.95" fill="#333333" fill-rule="evenodd" stroke="none"/>
    <path d="M7.15 -0.1 L7.3 -0.15 7.95 -0.45 8.35 -0.5 8.4 -0.5 8.5 -0.45 8.6 -0.35 8.55 -0.3 8.5 -0.25 8.45 -0.3 8.4 -0.3 8.2 -0.25 7.85 -0.1 6.95 0.55 6.35 1.2 5.85 2.0 5.85 2.05 5.8 2.1 5.8 2.15 5.75 2.2 5.7 2.35 5.65 2.55 5.6 2.7 5.55 2.8 5.55 2.9 5.5 2.95 5.45 3.25 5.4 3.45 5.35 3.65 5.3 3.85 5.25 4.05 5.25 4.35 5.2 4.55 5.2 4.7 5.2 4.9 5.2 5.1 5.2 5.4 5.25 5.6 5.25 5.75 5.25 5.95 5.25 6.15 5.3 6.3 5.4 6.55 5.45 6.7 5.45 6.75 5.5 6.9 5.55 7.05 5.7 7.25 5.8 7.4 5.85 7.5 6.15 7.75 6.4 7.95 6.65 8.1 6.7 8.15 6.85 8.2 7.05 8.25 7.2 8.25 7.3 8.35 7.55 8.4 7.55 8.5 7.5 8.55 7.3 8.55 7.25 8.6 7.2 8.6 7.2 8.65 7.1 8.65 6.95 8.65 6.7 8.6 6.55 8.6 6.45 8.6 5.75 8.1 5.4 7.75 5.1 7.25 5.05 7.15 5.0 7.1 5.0 7.05 4.95 6.85 4.85 6.65 4.8 6.5 4.8 6.4 4.75 6.25 4.7 5.75 4.7 5.3 4.7 4.75 4.75 4.1 4.75 4.05 4.85 3.7 4.9 3.45 4.95 3.25 5.0 3.0 5.05 2.8 5.05 2.75 5.1 2.75 5.15 2.6 5.2 2.35 5.25 2.25 5.25 2.15 5.3 2.0 5.35 2.0 5.35 1.9 5.4 1.85 5.7 1.35 5.9 1.05 6.3 0.6 6.55 0.35 6.6 0.3 6.65 0.3 6.85 0.15 7.15 -0.1" fill="#333333" fill-rule="evenodd" stroke="none"/>
    <path d="M-6.9 8.25 L-6.95 8.25 -6.95 8.15 -6.9 8.15 -6.85 8.1 -6.75 8.1 -6.7 8.1 -6.65 8.05 -6.55 8.1 -6.45 8.1 -6.3 8.2 -6.2 8.25 -6.1 8.3 -5.85 8.4 -5.75 8.45 -5.45 8.7 -5.15 9.0 -4.8 9.35 -4.7 9.45 -4.65 9.45 -4.0 10.3 -3.2 11.4 -2.4 12.65 -2.35 12.7 -2.2 13.0 -1.95 13.3 -1.7 13.75 -1.5 14.15 -1.45 14.2 -1.45 14.25 -1.4 14.3 -1.4 14.4 -1.35 14.4 -1.35 14.5 -1.3 14.55 -1.3 14.6 -1.25 14.65 -1.25 14.7 -1.2 14.7 -1.2 14.8 -1.15 14.85 -1.15 14.9 -1.0 15.1 -0.9 15.3 -0.8 15.45 -0.6 15.75 -0.6 15.85 -0.65 15.85 -0.7 15.9 -0.75 15.95 -0.85 16.0 -0.95 15.95 -1.2 15.75 -1.35 15.6 -1.45 15.4 -1.6 15.15 -1.6 15.05 -1.65 15.0 -1.65 14.95 -1.7 14.9 -1.7 14.85 -1.75 14.8 -1.75 14.7 -1.8 14.7 -1.8 14.6 -1.85 14.55 -1.85 14.5 -1.9 14.45 -1.9 14.4 -1.95 14.25 -2.05 14.1 -2.1 14.0 -2.2 13.9 -2.3 13.7 -2.3 13.65 -2.4 13.5 -2.5 13.35 -2.55 13.2 -2.65 13.05 -2.75 12.95 -2.75 12.9 -3.5 11.65 -4.7 10.05 -6.0 8.7 -6.25 8.55 -6.5 8.4 -6.7 8.35 -6.75 8.35 -6.85 8.35 -6.9 8.3 -6.9 8.25" fill="#333333" fill-rule="evenodd" stroke="none"/>
    <path d="M6.85 -13.35 Q7.2 -13.5 7.0 -13.15 L3.65 -9.4 3.1 -8.8 2.9 -8.45 2.8 -8.4 2.35 -8.0 2.25 -8.1 Q2.05 -8.35 2.35 -8.75 L3.1 -9.65 4.4 -10.95 5.8 -12.5 6.85 -13.35" fill="#333333" fill-rule="evenodd" stroke="none"/>
    <path d="M1.6 -12.7 Q1.0 -13.2 2.55 -12.45 L5.6 -10.8 7.25 -9.85 7.35 -9.7 7.45 -9.4 Q7.3 -9.15 7.05 -9.4 L5.7 -10.15 4.1 -11.05 2.75 -11.85 1.6 -12.7" fill="#333333" fill-rule="evenodd" stroke="none"/>
    <path d="M4.3 -6.95 L4.6 -7.15 6.05 -6.25 6.85 -5.95 Q7.55 -5.6 7.6 -4.85 L7.05 -4.4 4.9 -2.95 1.55 -5.15 2.3 -5.5 4.0 -6.85 4.3 -6.95" fill="#ffffff" fill-rule="evenodd" stroke="none"/>
    <path d="M7.0 -7.4 Q7.35 -7.55 7.15 -7.2 L3.8 -3.45 3.25 -2.85 3.05 -2.5 2.95 -2.45 2.5 -2.05 2.4 -2.15 Q2.2 -2.4 2.5 -2.8 L3.25 -3.7 4.55 -5.0 5.95 -6.55 7.0 -7.4" fill="#333333" fill-rule="evenodd" stroke="none"/>
    <path d="M1.75 -6.75 Q1.15 -7.25 2.7 -6.5 L5.75 -4.85 7.4 -3.9 7.5 -3.75 7.6 -3.45 Q7.45 -3.2 7.2 -3.45 L5.85 -4.2 4.25 -5.1 2.9 -5.9 1.75 -6.75" fill="#333333" fill-rule="evenodd" stroke="none"/>
  </g>
</svg>
