<?xml version="1.0" encoding="UTF-8" standalone="no"?>
<svg xmlns:xlink="http://www.w3.org/1999/xlink" height="29.5px" width="20.5px" xmlns="http://www.w3.org/2000/svg">
  <g transform="matrix(1.0, 0.0, 0.0, 1.0, 1.0, 1.0)">
    <path d="M12.0 0.0 L12.0 4.0 12.0 8.0 12.05 12.0 12.1 15.0 12.15 17.5 15.5 17.25 18.5 18.0 16.0 20.8 14.05 23.05 13.1 25.1 11.5 26.35 11.5 27.5 10.15 25.85 9.9 25.7 7.1 23.0 5.25 20.75 Q4.75 19.95 4.05 17.75 L1.05 17.9 0.0 18.0 M4.15 17.75 L4.0 17.5 4.05 17.75 4.15 17.75 7.5 17.6 10.5 17.5 12.15 17.5 12.2 19.5 11.5 24.5 11.5 26.35 10.15 25.85 9.0 24.5 8.2 23.45 6.4 21.05 4.15 17.75 Z" fill="none" stroke="#ffffff" stroke-linecap="round" stroke-linejoin="round" stroke-width="2.0"/>
  </g>
</svg>
