<?xml version="1.0" encoding="UTF-8" standalone="no"?>
<svg xmlns:xlink="http://www.w3.org/1999/xlink" height="11.75px" width="47.75px" xmlns="http://www.w3.org/2000/svg">
  <g transform="matrix(1.0, 0.0, 0.0, 1.0, 23.85, 5.85)">
    <path d="M23.3 -2.85 L-19.95 -2.85 -19.95 -2.95 -19.95 -3.05 -19.95 -3.15 -19.95 -3.3 -20.0 -3.35 -20.0 -3.45 -20.05 -3.6 -20.1 -3.7 -20.2 -3.85 -20.4 -4.1 -20.55 -4.2 -20.7 -4.3 -19.7 -4.95 -19.1 -5.45 23.3 -5.45 23.3 -2.85" fill="#a07c64" fill-rule="evenodd" stroke="none"/>
    <path d="M20.9 5.35 L-18.95 5.35 -19.05 5.2 -19.15 5.1 -19.25 5.05 -19.45 5.0 -19.75 4.9 -19.85 4.9 -20.1 4.85 -20.2 4.8 -21.35 4.2 -22.9 3.55 -23.55 3.35 -22.55 3.05 -20.05 2.65 -19.6 2.6 -14.95 2.4 -14.95 2.35 -14.9 2.35 -14.8 2.3 -14.65 2.15 -14.65 2.1 -14.6 2.1 -14.6 1.8 -14.65 1.75 -14.7 1.7 -14.75 1.65 -14.8 1.65 -14.85 1.6 -14.95 1.55 -15.05 1.55 -15.15 1.6 -15.6 1.6 -15.75 1.65 -16.1 1.65 -16.2 1.6 -17.0 1.4 -18.65 1.15 -19.0 1.1 -19.25 1.05 -19.25 0.95 -19.2 0.9 -19.2 0.8 -19.2 0.65 -19.2 0.55 -19.2 0.45 -19.2 0.4 -19.25 0.35 -19.25 0.3 -19.35 0.2 -19.35 0.1 -19.5 -0.05 -19.8 -0.25 -20.1 -0.35 -20.4 -0.6 -20.75 -0.9 -20.65 -1.1 -20.65 -1.2 -20.6 -1.3 -20.6 -1.35 -20.55 -1.35 -20.55 -1.45 -20.5 -1.5 -20.5 -1.55 -20.45 -1.6 -20.45 -1.65 -20.4 -1.8 -20.35 -1.95 -20.3 -2.1 -20.25 -2.15 -20.25 -2.25 -20.15 -2.35 -20.15 -2.45 -20.1 -2.45 -20.1 -2.5 -20.0 -2.65 -20.0 -2.8 -20.0 -2.85 20.9 -2.85 20.9 5.35" fill="#a07c64" fill-rule="evenodd" stroke="none"/>
    <path d="M9.2 1.15 L9.3 1.1 9.35 1.05 9.5 1.05 9.5 1.0 9.7 1.1 9.85 1.2 9.9 1.3 9.95 1.35 9.95 1.45 9.95 1.55 9.95 1.65 9.95 1.75 9.9 1.85 9.9 1.95 9.85 2.0 9.85 2.1 9.8 2.2 9.65 2.4 9.55 2.55 9.5 2.6 9.35 2.6 9.1 2.55 9.05 2.45 8.95 2.35 8.95 2.25 8.95 2.2 8.95 2.0 8.95 1.8 8.95 1.7 9.05 1.6 9.05 1.5 9.05 1.45 9.05 1.35 9.1 1.25 9.2 1.15" fill="#a6b8bf" fill-rule="evenodd" stroke="none"/>
    <path d="M11.75 -4.25 L15.0 -4.25 15.5 -4.1 20.0 -4.0 20.75 -3.9 21.25 -3.8 21.55 -3.6 21.7 -3.45 21.8 -3.25 21.9 -3.05 22.0 -2.85 22.05 -2.7 22.15 -2.5 22.15 -2.3 22.2 -2.15 22.25 -1.95 22.25 -1.75 22.25 -1.55 22.2 -1.4 22.1 -1.2 22.0 -1.0 21.8 -0.8 21.5 -0.6 20.9 -0.4 20.65 -0.3 -9.75 -0.1 -10.3 -0.2 -13.5 -0.4 -14.05 -0.5 -15.55 -0.5 -15.8 -0.3 -16.0 -0.2 -16.15 -0.15 -16.35 -0.05 -16.75 -0.05 -19.25 0.0 -19.8 -0.1 -20.1 -0.3 -20.35 -0.5 -20.55 -0.7 -20.65 -0.9 -20.75 -1.05 -20.8 -1.25 -20.8 -1.45 -20.8 -1.6 -20.8 -1.8 -20.8 -2.0 -20.8 -2.2 -20.75 -2.35 -20.7 -2.55 -20.7 -2.75 -20.8 -2.95 -20.85 -3.1 -20.85 -3.3 -20.85 -3.5 -20.7 -3.7 -20.5 -3.8 -20.25 -3.85 -19.75 -3.95 -19.45 -3.85 -19.35 -3.8 -18.5 -3.85 -17.75 -3.85 -16.5 -3.9 -15.7 -3.85 -15.55 -3.8 -14.75 -3.8 -12.25 -3.85 -9.5 -3.85 -9.0 -3.75 4.75 -3.8 5.25 -3.9 6.5 -4.1 7.0 -4.2 11.75 -4.2 11.75 -4.25" fill="#663333" fill-opacity="0.2" fill-rule="evenodd" stroke="none"/>
    <path d="M11.5 -2.2 L12.5 -2.05 13.0 -1.95 13.3 -1.75 13.5 -1.6 15.7 -1.75 16.25 -1.8 19.0 -1.8 19.5 -1.7 19.75 -1.55 19.9 -1.55 20.25 -1.55 20.75 -1.7 21.25 -1.55 21.65 -1.35 21.75 -1.2 21.8 -1.0 21.9 -0.8 21.95 -0.6 22.0 -0.45 22.0 -0.25 22.0 -0.05 21.95 0.1 21.85 0.3 21.75 0.5 21.55 0.7 21.5 0.85 21.4 1.05 21.3 1.25 21.2 1.45 20.95 1.65 20.75 1.8 20.55 1.95 20.0 2.05 19.5 2.05 12.45 1.9 12.05 1.7 11.75 1.5 11.65 1.4 0.5 1.2 0.15 1.2 -5.05 0.9 -5.5 0.9 -5.85 0.95 -6.25 1.0 -8.65 1.35 -11.0 1.75 -14.5 1.75 -15.05 1.65 -15.3 1.45 -15.45 1.35 -16.0 1.25 -16.55 1.15 -18.05 0.9 -18.45 0.7 -18.6 0.55 -18.75 0.5 -19.1 0.4 -19.5 0.3 -19.8 0.15 -20.0 -0.05 -20.1 -0.25 -20.15 -0.45 -20.2 -0.6 -20.2 -0.8 -20.2 -1.0 -20.2 -1.2 -20.2 -1.55 -20.1 -1.75 -20.0 -1.95 -19.8 -2.1 -19.5 -2.3 -19.0 -2.4 -19.0 -2.45 -16.75 -2.45 -16.25 -2.3 -7.25 -2.2 -6.75 -2.05 -6.45 -1.85 -6.3 -1.7 -5.85 -1.6 -5.5 -1.6 11.0 -2.3 11.5 -2.2" fill="#663333" fill-opacity="0.2" fill-rule="evenodd" stroke="none"/>
    <path d="M20.9 -3.05 L21.05 -2.85 21.45 -0.25 21.6 2.75 21.65 4.8 21.55 5.0 21.5 5.2 21.4 5.35 21.25 5.55 21.0 5.75 20.5 5.9 20.0 5.75 19.75 5.55 19.55 5.35 19.45 5.2 19.35 2.4 19.55 -0.65 19.8 -2.7 19.95 -2.85 20.05 -3.05 20.5 -3.15 20.5 -3.2 20.9 -3.05" fill="#663333" fill-opacity="0.2" fill-rule="evenodd" stroke="none"/>
    <path d="M2.5 2.75 L2.8 2.9 3.15 3.05 3.25 3.25 3.15 3.45 2.8 3.6 2.5 3.75 -6.75 4.1 -15.0 3.85 -20.85 3.25 -20.85 3.2 -20.75 3.15 -6.75 2.55 0.75 2.6 2.5 2.75" fill="#663333" fill-opacity="0.2" fill-rule="evenodd" stroke="none"/>
    <path d="M21.45 2.5 L21.6 2.7 21.75 2.9 21.8 3.05 21.9 3.25 21.95 3.45 21.95 3.6 21.9 4.0 21.85 4.35 21.8 4.75 21.75 4.95 21.65 5.15 21.45 5.25 21.0 5.35 19.15 5.45 18.75 5.55 13.75 5.4 Q-0.9 5.6 -15.5 4.9 L-18.1 4.7 Q-1.0 3.85 16.25 4.05 L18.0 3.95 18.75 3.75 20.05 3.55 20.1 3.4 20.1 3.2 20.15 3.0 20.25 2.8 20.4 2.65 20.55 2.5 20.7 2.45 21.0 2.4 21.45 2.5" fill="#663333" fill-opacity="0.2" fill-rule="evenodd" stroke="none"/>
    <path d="M14.8 -3.35 L14.8 -3.55 14.8 -3.75 14.85 -3.95 14.9 -4.1 14.95 -4.3 15.05 -4.5 15.25 -4.7 15.5 -4.8 15.65 -4.85 17.25 -5.1 18.75 -5.45 21.75 -5.45 22.25 -5.3 22.6 -5.1 22.95 -4.95 23.1 -4.75 23.25 -4.55 23.4 -4.35 23.7 -4.2 23.8 -4.0 23.9 -3.8 23.85 -3.65 23.75 -3.45 23.55 -3.25 23.15 -3.05 22.95 -2.9 22.75 -2.75 22.6 -2.7 18.2 -2.55 18.05 -2.35 17.95 -2.2 17.75 -2.05 17.6 -2.0 17.25 -1.95 16.9 -2.0 16.75 -2.05 16.25 -2.2 16.0 -2.3 15.5 -2.45 15.2 -2.6 15.0 -2.8 14.9 -3.0 14.85 -3.2 14.8 -3.35" fill="#663333" fill-opacity="0.2" fill-rule="evenodd" stroke="none"/>
    <path d="M13.0 -5.7 L16.0 -5.65 21.75 -5.5 22.05 -5.35 22.2 -5.2 22.25 -5.0 22.2 -4.8 22.05 -4.6 21.75 -4.5 13.0 -4.4 Q5.75 -4.2 -1.5 -4.35 L-19.0 -4.75 -19.35 -4.85 -19.4 -5.05 -19.25 -5.2 -19.0 -5.25 -14.0 -5.35 5.25 -5.75 13.0 -5.7" fill="#ffffff" fill-opacity="0.2" fill-rule="evenodd" stroke="none"/>
    <path d="M18.65 2.25 L18.0 2.4 17.75 2.45 9.0 2.3 3.15 1.95 3.25 1.9 13.5 1.55 17.75 1.55 18.0 1.6 18.65 1.75 19.55 2.0 19.65 2.05 19.5 2.1 18.65 2.25" fill="#ffffff" fill-opacity="0.2" fill-rule="evenodd" stroke="none"/>
    <path d="M-20.15 -3.1 L-20.2 -3.0 -20.3 -2.9 -20.35 -2.8 -20.35 -2.7 -20.35 -2.6 -20.35 -2.55 -20.3 -2.45 -20.25 -2.35 -20.2 -2.25 -20.1 -2.2 -19.9 -2.15 -18.15 -2.15 2.3 -2.1 20.4 -2.05 23.25 -2.3 23.35 -2.4 23.4 -2.5 23.45 -2.6 23.45 -2.7 23.45 -2.75 23.4 -2.85 23.3 -2.95 23.15 -3.0 23.0 -3.05 22.85 -3.1 22.05 -3.1 16.15 -3.2 6.55 -3.15 2.3 -3.15 -18.15 -3.15 -19.9 -3.15 -20.15 -3.1" fill="#333333" fill-rule="evenodd" stroke="none"/>
    <path d="M10.1 1.65 L10.15 1.65 12.75 1.9 20.9 1.95 21.15 1.9 21.2 1.8 21.25 1.7 21.25 1.6 21.25 1.5 21.2 1.4 21.15 1.3 20.9 1.25 18.15 1.25 18.15 1.2 12.75 1.25 10.1 1.65" fill="#333333" fill-rule="evenodd" stroke="none"/>
    <path d="M-20.05 -2.15 L-20.15 -2.05 -20.2 -1.95 -20.25 -1.85 -20.25 -1.75 -20.25 -1.65 -20.2 -1.55 -20.15 -1.45 -20.05 -1.4 -19.85 -1.3 3.9 -1.25 6.5 -1.25 6.9 -1.25 7.75 -1.25 20.65 -1.4 20.9 -1.45 20.95 -1.55 21.0 -1.65 21.0 -1.75 21.0 -1.85 20.95 -1.95 20.9 -2.05 20.65 -2.1 8.15 -2.25 2.5 -2.25 -2.0 -2.25 -8.6 -2.25 -19.35 -2.2 -19.85 -2.2 -20.05 -2.15" fill="#333333" fill-rule="evenodd" stroke="none"/>
    <path d="M-19.15 -5.25 L-18.6 -5.25 -20.05 -3.95 -18.4 -3.05 -18.4 -2.45 -19.3 -2.45 -21.3 -4.2 -19.15 -5.25" fill="#333333" fill-rule="evenodd" stroke="none"/>
    <path d="M-16.1 3.65 L-15.2 3.65 -14.2 3.6 -12.2 3.4 -12.0 3.1 -20.1 3.05 -20.2 3.15 -20.25 3.25 -20.25 3.35 -17.1 3.65 -16.1 3.65" fill="#333333" fill-rule="evenodd" stroke="none"/>
    <path d="M9.35 1.9 Q9.05 1.5 9.55 1.2 L9.75 1.75 Q9.7 2.25 9.35 1.9 M8.75 2.25 L9.35 2.5 9.9 2.25 10.15 1.65 9.9 1.05 9.35 0.8 Q9.0 0.8 8.75 1.05 L8.55 1.65 8.75 2.25" fill="#333333" fill-rule="evenodd" stroke="none"/>
    <path d="M20.95 -3.9 L20.9 -3.8 20.9 -3.75 20.9 -3.65 20.9 -3.6 20.85 -3.5 20.9 -3.45 20.95 -3.35 20.95 -3.3 20.95 -3.2 20.95 -3.15 20.95 -3.05 21.0 -3.0 21.0 -2.9 21.05 -2.85 21.1 -2.75 21.1 -2.7 21.15 -2.6 21.15 -2.55 21.15 -2.45 21.15 -2.4 21.15 -2.3 21.2 -2.25 21.25 -2.15 21.25 -2.1 21.35 -2.0 21.45 -2.05 21.5 -2.1 21.5 -2.15 21.5 -2.25 21.45 -2.3 21.4 -2.4 21.4 -2.45 21.4 -2.55 21.4 -2.6 21.4 -2.7 21.35 -2.75 21.35 -2.85 21.3 -2.9 21.3 -3.0 21.25 -3.05 21.25 -3.15 21.2 -3.3 21.2 -3.35 21.2 -3.45 21.15 -3.5 21.15 -3.6 21.1 -3.65 21.1 -3.75 21.05 -3.8 21.05 -3.9 20.95 -3.9" fill="#333333" fill-rule="evenodd" stroke="none"/>
    <path d="M20.35 -4.15 L20.25 -4.1 20.2 -4.0 20.2 -3.95 20.15 -3.85 20.15 -3.8 20.15 -3.7 20.15 -3.65 20.1 -3.55 20.1 -3.5 20.05 -3.35 20.05 -3.2 20.05 -3.05 20.05 -2.85 20.0 -2.75 20.0 -2.7 19.95 -2.6 19.95 -2.5 19.95 -2.45 20.0 -2.35 20.15 -2.35 20.2 -2.45 20.25 -2.5 20.3 -2.6 20.3 -2.65 20.35 -2.8 20.35 -2.95 20.35 -3.15 20.35 -3.25 20.35 -3.3 20.4 -3.4 20.4 -3.45 20.45 -3.55 20.45 -3.6 20.45 -3.7 20.45 -3.8 20.4 -3.85 20.45 -3.9 20.5 -4.0 20.6 -4.1 20.6 -4.2 20.5 -4.25 20.45 -4.25 20.35 -4.15" fill="#333333" fill-rule="evenodd" stroke="none"/>
    <path d="M19.2 2.95 L19.15 3.0 19.15 3.05 19.15 3.15 19.2 3.2 19.3 3.25 20.7 3.25 20.85 3.2 20.95 3.1 20.95 3.05 20.9 2.95 20.8 2.9 20.7 2.9 19.3 2.9 19.2 2.95" fill="#333333" fill-rule="evenodd" stroke="none"/>
    <path d="M19.5 4.0 L19.55 4.05 19.6 4.05 20.7 4.15 20.8 4.1 20.85 4.0 20.85 3.95 20.85 3.85 20.8 3.8 20.7 3.8 20.2 3.8 19.7 3.8 19.55 3.85 19.5 3.95 19.5 4.0" fill="#333333" fill-rule="evenodd" stroke="none"/>
    <path d="M-6.35 3.25 L-6.3 3.15 -6.35 3.1 -6.55 3.0 -6.6 3.0 -6.7 3.0 -7.0 2.95 -8.5 2.95 -10.4 3.0 -10.5 3.05 -10.55 3.1 -10.55 3.15 -10.55 3.25 -10.5 3.3 -10.4 3.35 -8.5 3.35 -7.0 3.35 -6.35 3.25" fill="#333333" fill-rule="evenodd" stroke="none"/>
    <path d="M-14.55 -3.9 L-14.6 -3.85 -14.55 -3.8 -14.55 -3.7 -14.5 -3.55 -14.4 -3.3 -14.35 -3.1 -14.3 -3.0 -14.25 -2.95 -14.2 -2.9 -14.2 -2.8 -14.15 -2.7 -14.15 -2.65 -14.1 -2.55 -14.1 -2.5 -14.1 -2.4 -14.1 -2.35 -14.05 -2.25 -14.05 -2.2 -14.0 -2.15 -13.95 -2.15 -13.95 -2.25 -13.9 -2.35 -13.9 -2.4 -13.9 -2.5 -13.9 -2.55 -13.95 -2.65 -13.95 -2.7 -14.0 -2.8 -14.0 -2.85 -14.05 -2.95 -14.1 -3.0 -14.15 -3.15 -14.2 -3.4 -14.3 -3.6 -14.3 -3.7 -14.35 -3.75 -14.35 -3.85 -14.35 -3.95 -14.35 -4.0 -14.45 -4.0 -14.55 -3.9" fill="#333333" fill-rule="evenodd" stroke="none"/>
    <path d="M-15.55 -3.65 L-15.5 -3.55 -15.45 -3.35 -15.45 -3.2 -15.45 -3.15 -15.45 -3.05 -15.5 -3.0 -15.5 -2.9 -15.5 -2.85 -15.5 -2.75 -15.5 -2.7 -15.5 -2.6 -15.5 -2.55 -15.45 -2.45 -15.45 -2.4 -15.4 -2.35 -15.35 -2.35 -15.35 -2.45 -15.3 -2.55 -15.3 -2.6 -15.3 -2.7 -15.3 -2.75 -15.25 -2.9 -15.2 -3.0 -15.2 -3.05 -15.2 -3.15 -15.2 -3.2 -15.2 -3.3 -15.2 -3.35 -15.2 -3.45 -15.2 -3.5 -15.25 -3.6 -15.25 -3.65 -15.3 -3.7 -15.35 -3.75 -15.45 -3.75 -15.55 -3.65" fill="#333333" fill-rule="evenodd" stroke="none"/>
    <path d="M-19.45 -2.9 Q-19.25 -2.7 -19.45 -2.45 L-20.2 -1.2 -19.25 -0.3 Q-18.65 0.0 -18.75 0.45 L-19.05 0.55 -20.9 -0.9 -20.4 -2.1 Q-20.15 -2.8 -19.45 -2.9" fill="#333333" fill-rule="evenodd" stroke="none"/>
    <path d="M-15.15 1.5 L-14.0 1.7 -13.8 1.85 Q-13.5 2.6 -14.7 2.25 L-18.0 1.7 Q-18.55 1.45 -19.1 1.35 L-19.35 1.25 -19.4 1.15 -19.4 0.9 -19.2 0.4 -19.2 0.3 -19.15 0.25 -19.1 0.2 -19.1 0.1 -19.0 0.05 -18.65 0.0 -18.55 0.2 -18.6 0.2 -18.6 0.3 -18.6 0.4 -18.6 0.5 -18.55 0.7 -17.95 1.05 -16.7 1.3 -15.15 1.5" fill="#333333" fill-rule="evenodd" stroke="none"/>
    <path d="M-14.15 2.2 Q-13.55 2.2 -13.95 2.35 L-14.7 2.6 -15.95 2.8 -18.35 3.05 -20.8 3.35 -21.45 3.45 -22.2 3.55 -22.05 3.6 -21.5 3.7 -20.45 4.1 -18.75 4.6 -18.45 4.65 Q-17.75 4.65 -17.55 5.25 L-17.6 5.3 -18.2 5.5 -22.35 4.25 -22.7 4.15 -22.9 4.0 -23.3 3.8 -23.85 3.35 -23.65 3.25 -22.15 2.85 -20.0 2.65 -18.4 2.55 -16.4 2.4 -14.15 2.2" fill="#333333" fill-rule="evenodd" stroke="none"/>
    <path d="M-18.8 -4.8 L-19.1 -4.95 -19.35 -5.1 -19.65 -5.3 -19.35 -5.5 -19.1 -5.7 -18.8 -5.8 -18.55 -5.85 5.65 -5.8 5.9 -5.85 17.15 -5.8 20.75 -5.75 23.1 -5.8 23.55 -5.85 23.7 -5.7 23.7 -5.5 23.6 -5.3 23.3 -5.1 23.1 -5.0 Q16.25 -4.65 9.45 -4.75 L8.5 -4.75 6.85 -4.75 5.9 -4.75 5.65 -4.8 -18.55 -4.75 -18.8 -4.8" fill="#333333" fill-rule="evenodd" stroke="none"/>
    <path d="M23.45 -5.8 L23.6 -5.7 23.65 -5.65 23.7 -5.55 23.8 -4.6 23.85 -3.55 23.85 -2.8 23.8 -2.7 23.75 -2.65 23.6 -2.55 23.45 -2.45 23.2 -2.55 23.1 -2.65 23.05 -2.7 23.0 -3.65 23.05 -4.7 23.15 -5.55 23.2 -5.6 23.25 -5.7 23.4 -5.75 23.45 -5.8" fill="#333333" fill-rule="evenodd" stroke="none"/>
    <path d="M21.0 -2.85 L21.15 -2.75 21.2 -2.7 21.4 0.3 21.4 3.4 21.4 5.1 21.4 5.2 21.35 5.3 21.3 5.35 21.25 5.45 21.2 5.45 21.0 5.5 20.8 5.45 20.7 5.35 20.65 5.25 20.65 2.25 20.75 -0.85 20.8 -2.7 20.85 -2.8 20.9 -2.8 21.0 -2.85" fill="#333333" fill-rule="evenodd" stroke="none"/>
    <path d="M21.25 4.95 L21.35 5.05 21.4 5.15 21.45 5.2 21.5 5.3 21.5 5.4 21.45 5.5 21.4 5.6 21.35 5.7 21.25 5.75 21.2 5.75 17.95 5.8 15.5 5.8 -17.25 5.85 -19.3 5.65 -19.4 5.55 -19.45 5.45 -19.5 5.4 -19.45 5.3 -19.45 5.2 -19.4 5.1 -19.3 5.05 -19.25 5.0 -18.85 4.95 -18.35 4.9 -17.25 4.9 -14.6 4.85 -5.3 4.85 -3.55 4.9 15.5 4.9 21.0 4.9 21.25 4.95" fill="#333333" fill-rule="evenodd" stroke="none"/>
  </g>
</svg>
