<?xml version="1.0" encoding="UTF-8" standalone="no"?>
<svg xmlns:xlink="http://www.w3.org/1999/xlink" height="91.0px" width="91.0px" xmlns="http://www.w3.org/2000/svg">
  <g transform="matrix(1.0, 0.0, 0.0, 1.0, 0.5, 0.5)">
    <path d="M90.0 90.0 L0.0 90.0 0.0 0.0 90.0 0.0 90.0 90.0" fill="#ffff00" fill-opacity="0.3019608" fill-rule="evenodd" stroke="none"/>
    <path d="M90.0 12.0 L90.0 6.0 M90.0 24.0 L90.0 18.0 M90.0 36.0 L90.0 30.0 M90.0 48.0 L90.0 42.0 M90.0 0.0 L84.0 0.0 M90.0 60.0 L90.0 54.0 M90.0 72.0 L90.0 66.0 M90.0 84.0 L90.0 78.0 M84.0 90.0 L90.0 90.0 M54.0 0.0 L48.0 0.0 M66.0 0.0 L60.0 0.0 M78.0 0.0 L72.0 0.0 M0.0 42.0 L0.0 48.0 M0.0 30.0 L0.0 36.0 M0.0 18.0 L0.0 24.0 M0.0 6.0 L0.0 12.0 M6.0 0.0 L0.0 0.0 M18.0 0.0 L12.0 0.0 M30.0 0.0 L24.0 0.0 M24.0 90.0 L30.0 90.0 M12.0 90.0 L18.0 90.0 M0.0 90.0 L6.0 90.0 M0.0 78.0 L0.0 84.0 M0.0 66.0 L0.0 72.0 M0.0 54.0 L0.0 60.0 M72.0 90.0 L78.0 90.0 M60.0 90.0 L66.0 90.0 M48.0 90.0 L54.0 90.0 M36.0 90.0 L42.0 90.0 M42.0 0.0 L36.0 0.0" fill="none" stroke="#000000" stroke-linecap="round" stroke-linejoin="round" stroke-width="1.0"/>
  </g>
</svg>
