<?xml version="1.0" encoding="UTF-8" standalone="no"?>
<svg xmlns:xlink="http://www.w3.org/1999/xlink" height="103.0px" width="150.0px" xmlns="http://www.w3.org/2000/svg">
  <g transform="matrix(1.0, 0.0, 0.0, 1.0, 1.0, 1.0)">
    <path d="M37.0 12.5 L40.25 10.3 Q41.95 9.25 43.7 8.3 45.45 7.35 47.25 6.5 L50.9 4.9 54.65 3.5 58.45 2.4 62.35 1.5 66.35 0.8 70.4 0.3 73.45 0.1 77.5 0.0 81.5 0.05 85.5 0.3 89.55 0.65 92.5 1.0 94.5 1.3 98.4 1.65 102.4 2.15 105.4 2.7 107.2 3.15 109.8 4.3 Q110.7 4.7 112.0 5.85 L112.65 6.1 116.3 7.65 119.05 8.9 123.0 11.0 126.35 13.1 129.6 15.4 132.7 17.95 135.65 20.75 138.3 23.75 140.7 27.05 142.7 30.5 144.4 34.15 145.8 38.0 146.8 41.9 147.45 45.9 147.8 48.95 148.0 53.0 147.2 56.95 Q146.75 58.95 145.95 60.75 L144.75 63.45 143.25 66.15 140.9 69.35 138.35 72.45 135.6 75.4 132.7 78.1 130.5 80.0 128.0 82.0 124.65 84.25 121.25 86.35 117.75 88.35 114.2 90.15 110.55 91.8 106.8 93.3 103.05 94.65 99.2 95.85 95.35 96.9 91.5 97.8 87.6 98.6 83.65 99.25 79.7 99.8 75.75 100.25 71.75 100.6 67.75 100.8 64.8 100.95 60.0 101.0 56.05 100.9 52.1 100.75 48.15 100.5 44.2 100.1 40.3 99.6 36.4 98.9 32.6 98.05 28.8 97.0 25.1 95.8 21.45 94.35 18.8 93.2 16.5 92.0 13.2 89.8 10.1 87.4 7.3 84.7 4.9 81.6 Q3.8 80.0 2.95 78.2 L1.45 74.55 Q0.85 72.65 0.5 70.6 L0.1 67.6 0.0 65.5 0.25 61.5 Q0.45 59.5 0.8 57.55 L1.65 53.7 2.85 49.9 4.35 46.25 5.55 43.65 7.3 40.5 9.55 37.15 11.9 33.95 14.45 30.9 17.2 28.0 20.05 25.25 23.05 22.65 25.4 20.8 26.5 20.0 29.75 17.7 33.1 15.55 36.55 13.55 40.1 11.7 43.7 10.0 47.3 8.45 50.05 7.4 53.6 6.1 57.45 4.9 61.35 3.85 65.25 3.0 69.2 2.25 73.2 1.7 77.2 1.3 80.2 1.1 84.5 1.0 88.5 1.05 91.5 1.15 94.5 1.3 98.5 2.05 102.5 2.95 106.45 4.0 109.35 4.9 112.0 5.85" fill="none" stroke="#ffffff" stroke-linecap="round" stroke-linejoin="round" stroke-width="2.0"/>
  </g>
</svg>
