<?xml version="1.0" encoding="UTF-8" standalone="no"?>
<svg xmlns:xlink="http://www.w3.org/1999/xlink" height="179.0px" width="191.9px" xmlns="http://www.w3.org/2000/svg">
  <g transform="matrix(1.0, 0.0, 0.0, 1.0, 1.0, 1.0)">
    <path d="M165.45 33.0 L161.35 32.25 157.3 31.55 153.25 30.8 149.2 30.1 145.2 29.4 141.2 28.65 137.2 27.95 134.1 27.4 132.7 27.15 128.8 26.45 124.95 25.75 121.1 25.05 117.25 24.35 113.35 23.65 109.5 22.95 105.6 22.25 101.75 21.55 97.9 20.85 94.05 20.15 90.1 19.45 86.15 18.75 82.2 18.1 79.25 17.65 75.4 17.0 71.5 16.3 67.65 15.65 63.8 14.95 59.95 14.25 56.1 13.6 52.25 12.9 48.45 12.2 44.65 11.5 40.85 10.8 37.05 10.1 33.2 9.4 29.4 8.7 25.6 8.0 21.75 7.25 17.9 6.5 13.95 5.75 11.0 5.15 7.1 4.25 4.3 3.45 0.4 1.8 0.0 0.0 0.0 0.5 0.25 4.75 0.55 8.95 0.9 13.05 1.2 16.1 1.4 18.3 1.75 22.3 2.1 26.35 2.4 30.4 2.7 34.45 3.0 38.5 3.3 42.55 3.6 46.6 3.9 50.65 4.2 54.7 4.5 58.75 4.85 62.8 5.1 65.85 5.5 70.5 5.8 74.4 6.1 78.35 6.4 82.3 6.7 86.25 7.0 90.2 7.3 94.15 7.6 98.1 7.95 102.1 8.35 106.1 8.75 110.1 9.15 114.05 9.55 118.05 9.95 122.0 10.4 125.95 10.9 129.95 11.45 133.95 11.9 136.95 12.65 141.15 13.15 143.45 16.15 144.2 17.25 144.45 21.05 145.25 24.85 146.1 28.7 146.95 32.55 147.8 36.4 148.65 40.2 149.55 44.1 150.45 47.05 151.15 50.5 152.0 54.5 153.0 58.45 154.05 62.4 155.15 66.35 156.25 70.3 157.35 74.2 158.45 78.05 159.55 81.9 160.65 85.8 161.75 89.7 162.85 92.7 163.75 96.15 164.75 99.95 165.85 103.75 166.95 107.55 168.05 111.3 169.15 115.05 170.3 118.85 171.45 122.65 172.6 126.4 173.8 130.15 175.0 133.0 175.95 135.9 177.0 138.4 177.0 138.7 172.9 139.2 168.85 139.95 164.85 140.8 160.85 141.7 156.85 142.75 152.85 143.6 149.75 144.0 148.25 145.1 144.35 146.3 140.5 147.5 136.65 148.7 132.85 150.0 129.05 151.3 125.25 152.65 121.45 154.05 117.75 155.45 114.0 156.85 110.25 158.35 106.5 159.8 102.8 160.9 100.1 162.4 96.5 163.9 92.8 165.4 89.15 167.0 85.5 168.6 81.9 170.3 78.3 172.0 74.7 173.7 71.1 175.5 67.55 177.3 64.05 179.15 60.5 181.05 57.0 182.5 54.45 183.2 53.3 185.1 49.95 186.55 47.45 188.25 44.45 189.25 41.7 189.9 38.5 187.2 37.2 183.35 36.05 179.15 35.3 176.05 34.85 173.9 34.5 169.6 33.75 165.45 33.0 M18.85 152.95 L15.75 150.7 14.5 147.9 13.15 143.45 9.45 142.1 6.75 140.95 3.5 138.5" fill="none" stroke="#ffffff" stroke-linecap="round" stroke-linejoin="round" stroke-width="2.0"/>
  </g>
</svg>
