<?xml version="1.0" encoding="UTF-8" standalone="no"?>
<svg xmlns:xlink="http://www.w3.org/1999/xlink" height="41.75px" width="58.8px" xmlns="http://www.w3.org/2000/svg">
  <g transform="matrix(1.0, 0.0, 0.0, 1.0, 0.95, 1.0)">
    <path d="M52.6 9.3 L47.35 9.25 46.35 9.35 45.5 9.55 45.75 9.9 50.6 10.55 51.45 10.75 53.1 11.35 53.4 11.55 54.8 12.9 55.25 13.5 55.65 13.85 56.6 14.0 56.75 13.95 56.85 13.65 56.6 12.25 55.4 10.6 54.85 10.25 54.5 10.1 54.1 9.85 52.85 9.35 52.6 9.3 M42.6 0.0 L45.45 0.25 48.6 1.6 49.2 2.75 49.2 3.5 47.95 5.9 46.0 7.3 44.15 8.0 45.05 8.95 45.5 9.55 45.2 9.55 45.2 9.75 45.55 9.8 45.75 9.9 46.8 12.05 47.0 12.75 47.0 16.4 45.85 19.5 44.75 20.8 43.35 21.4 41.5 21.35 40.15 22.3 36.85 23.8 32.85 25.15 32.2 25.2 22.95 24.9 15.6 23.3 13.95 22.75 13.45 22.5 10.2 20.45 8.95 19.0 8.8 18.5 8.7 16.0 8.9 14.9 9.05 14.5 9.45 13.75 12.2 10.65 13.35 9.95 15.6 8.9 19.95 7.45 20.85 7.25 27.85 7.5 29.85 7.9 32.7 8.0 33.6 7.95 35.95 8.3 36.0 8.35 36.2 8.3 36.3 8.3 38.35 8.25 M44.15 8.0 L41.1 8.0 38.7 7.45 38.25 7.1 37.5 5.15 37.55 4.4 37.85 3.4 38.35 2.65 39.7 1.4 40.95 0.8 43.1 0.35 44.95 0.65 M40.45 8.5 L40.1 8.6 39.95 8.5 40.45 8.5 44.45 8.5 43.0 9.3 42.75 9.75 42.7 10.15 42.9 10.35 43.5 10.1 43.85 10.35 43.95 10.65 44.2 10.6 45.0 10.85 45.75 11.7 46.2 14.15 44.95 17.75 44.25 18.7 43.7 19.0 43.35 18.85 43.35 19.0 43.45 19.25 42.8 18.95 42.6 20.15 41.5 21.35 40.85 21.15 39.1 20.15 37.9 16.9 38.2 13.0 38.65 10.9 39.4 9.2 39.4 8.75 39.45 8.65 39.4 9.2 M42.7 10.55 L42.8 10.45 42.9 10.45 42.9 10.35 42.7 10.5 42.7 10.55 42.7 12.3 43.15 11.45 42.9 10.45 43.15 10.55 43.4 11.1 43.4 11.05 43.95 10.65 44.2 12.25 44.45 11.8 44.9 11.5 45.0 11.55 45.1 12.4 44.85 14.25 44.2 16.45 43.25 18.05 43.25 18.5 43.3 18.7 43.35 18.75 43.35 18.85 43.3 18.7 43.25 18.65 43.25 18.5 43.2 18.15 42.65 18.7 42.8 18.95 42.6 18.75 42.4 18.9 41.75 19.65 40.65 20.15 39.85 19.85 39.3 18.85 39.2 16.9 39.65 14.5 39.85 13.85 40.75 11.0 40.95 10.7 40.45 10.25 40.15 9.85 M42.7 10.5 L42.7 10.15 42.4 10.0 41.7 10.25 41.2 10.9 41.8 11.6 41.95 11.3 42.6 10.6 42.65 10.55 42.7 10.5 M42.7 10.55 L42.65 10.55 M40.95 10.7 L41.25 10.3 41.6 10.0 M39.85 13.85 L40.5 11.95 41.2 10.9 41.05 10.8 40.95 10.7 M41.8 11.6 L41.85 11.65 42.6 10.6 M39.65 14.5 L39.6 15.65 40.25 16.4 40.3 15.65 41.4 12.4 41.6 12.05 41.8 11.6 M41.6 12.05 L41.1 13.45 40.65 15.75 40.6 16.35 41.35 16.05 42.0 15.5 42.0 15.15 42.5 12.8 42.55 12.75 41.85 11.65 41.6 12.05 M43.15 11.45 L43.4 11.1 43.35 13.25 43.15 14.7 43.25 14.95 43.75 13.15 44.2 12.25 44.15 13.0 43.7 15.7 43.6 16.1 43.55 16.65 43.4 17.15 43.25 18.05 43.2 18.15 43.1 17.6 42.4 18.9 41.75 19.15 41.05 18.95 40.85 18.75 40.5 18.55 40.2 17.5 40.25 16.4 40.6 16.35 40.6 17.9 40.85 18.75 40.9 18.7 41.7 18.15 42.2 17.4 41.95 16.75 42.0 15.5 42.3 15.1 42.95 14.0 42.9 13.8 42.9 13.75 42.55 12.75 42.7 12.3 42.9 13.75 M45.2 9.75 L43.85 9.8 M43.25 14.95 L43.25 15.0 43.15 15.6 43.15 15.65 43.1 15.85 43.1 16.0 43.05 16.5 43.1 17.6 43.6 16.1 43.35 15.15 43.25 14.95 M43.15 14.7 L43.05 14.35 43.1 14.95 43.15 14.7 M42.95 14.0 L43.0 14.25 43.05 14.35 42.95 13.95 42.95 14.0 M42.9 13.8 L42.95 13.95 43.1 13.25 43.15 11.45 M43.15 15.6 L43.1 14.95 42.6 16.5 42.2 17.4 42.55 17.5 42.85 17.1 43.05 16.5 43.1 15.85 M42.6 18.75 L42.65 18.7 M34.35 8.75 L32.55 9.7 30.8 11.35 29.85 12.75 29.55 13.75 30.45 14.75 31.15 14.6 31.55 14.25 31.85 13.8 31.75 12.75 32.75 11.15 31.95 11.65 31.85 11.75 33.4 9.85 34.25 9.3 35.05 8.55 34.35 8.75 M32.75 11.15 L32.75 11.05 33.15 10.45 33.6 10.05 34.6 9.5 34.85 9.4 34.7 9.5 32.75 11.15 M31.85 13.8 L32.5 12.5 33.1 11.75 36.45 9.65 37.6 9.1 37.8 8.95 38.45 8.6 M36.3 8.3 L36.0 8.35 35.7 8.35 35.05 8.55 M9.35 20.4 L8.75 21.2 7.1 22.4 6.45 22.65 5.6 22.75 1.95 21.65 1.5 21.35 0.6 20.4 0.15 19.65 0.05 19.25 0.45 17.0 0.65 16.7 2.45 15.0 Q3.1 14.75 3.7 14.45 L4.2 14.35 8.6 14.0 M12.45 39.4 L12.45 38.65 12.6 37.4 12.65 23.75 12.85 22.75 M17.6 39.5 L17.6 30.65 17.4 28.75 17.35 24.9 M39.1 39.75 L39.1 39.4 39.05 39.15 39.0 39.0 38.85 31.65 38.75 31.0 38.7 24.25 M34.7 39.65 L34.8 39.15 34.95 25.75" fill="none" stroke="#ffffff" stroke-linecap="round" stroke-linejoin="round" stroke-width="2.0"/>
  </g>
</svg>
