<?xml version="1.0" encoding="UTF-8" standalone="no"?>
<svg xmlns:xlink="http://www.w3.org/1999/xlink" height="110.0px" width="161.0px" xmlns="http://www.w3.org/2000/svg">
  <g transform="matrix(1.0, 0.0, 0.0, 1.0, 1.0, 1.0)">
    <path d="M32.0 18.0 L35.2 15.6 38.5 13.3 41.8 11.15 45.25 9.1 Q47.05 8.15 48.8 7.25 L51.45 6.0 54.8 4.6 58.6 3.35 62.55 2.25 65.55 1.5 67.1 1.2 63.1 1.55 59.2 2.1 55.3 2.8 51.5 3.7 47.7 4.9 44.0 6.3 Q42.15 7.05 40.35 7.9 38.55 8.75 36.8 9.7 L33.4 11.7 Q31.75 12.8 30.15 14.0 L27.0 16.45 24.0 19.1 21.15 21.9 18.4 24.9 16.45 27.2 14.0 30.5 11.75 33.85 9.7 37.3 7.8 40.8 6.05 44.35 4.85 47.05 2.95 52.05 1.75 55.8 0.75 59.65 0.2 62.65 0.0 64.5 0.3 68.45 0.9 72.35 1.9 76.15 3.4 79.85 5.4 83.3 7.75 86.5 10.5 89.4 Q11.95 90.8 13.55 92.0 L16.85 94.3 20.3 96.35 23.0 97.8 Q23.95 98.25 27.0 99.5 L30.85 100.75 34.75 101.95 38.7 103.0 42.7 103.9 46.7 104.65 50.7 105.3 54.7 105.85 58.75 106.35 62.8 106.75 66.85 107.1 70.9 107.35 74.95 107.55 79.0 107.7 83.05 107.85 87.1 107.9 90.15 107.95 92.0 108.0 95.9 107.95 99.9 107.9 103.9 107.8 107.9 107.65 111.9 107.4 115.9 107.1 119.85 106.75 123.85 106.3 127.8 105.7 131.75 105.0 134.7 104.35 138.0 103.5 141.7 102.1 145.3 100.5 148.7 98.55 151.8 96.2 154.5 93.35 156.65 90.0 Q157.55 88.25 158.05 86.35 L158.7 83.45 159.0 80.5 158.55 76.5 157.85 72.5 156.8 68.65 155.55 64.9 154.55 62.15 152.8 58.05 151.0 54.45 149.15 50.95 147.2 47.5 145.15 44.1 142.95 40.7 140.6 37.4 138.85 35.0 136.0 31.5 133.4 28.45 130.7 25.5 127.95 22.65 125.1 19.9 122.15 17.3 119.05 14.8 115.8 12.4 113.3 10.65 111.2 9.3 107.75 7.35 Q106.05 6.4 104.25 5.55 L100.65 3.95 96.95 2.65 93.15 1.55 89.25 0.75 85.3 0.25 82.3 0.05 81.0 0.0 77.0 0.15 73.05 0.45 70.05 0.75 67.1 1.2 70.15 1.05 73.25 1.0 77.25 1.15 81.25 1.45 85.25 2.05 89.2 2.9 92.2 3.65 95.4 4.75 98.25 5.95 101.4 7.35 104.25 8.2 105.5 8.5" fill="none" stroke="#ffffff" stroke-linecap="round" stroke-linejoin="round" stroke-width="2.0"/>
  </g>
</svg>
