<?xml version="1.0" encoding="UTF-8" standalone="no"?>
<svg xmlns:xlink="http://www.w3.org/1999/xlink" height="11.85px" width="22.45px" xmlns="http://www.w3.org/2000/svg">
  <g transform="matrix(1.0, 0.0, 0.0, 1.0, 11.25, 5.95)">
    <path d="M8.25 -1.75 L8.45 -0.8 9.05 0.3 Q9.95 2.25 9.55 4.25 L9.05 4.75 -10.35 4.05 -10.4 2.75 -9.65 1.4 -8.05 -1.1 -7.7 -1.55 -5.95 -3.15 Q-4.1 -4.6 -1.85 -5.2 L-1.45 -5.6 1.15 -5.6 6.9 -3.1 8.25 -1.75" fill="#99cc00" fill-rule="evenodd" stroke="none"/>
    <path d="M0.55 -1.55 Q1.35 -2.05 2.5 -2.25 L6.5 -2.35 7.9 -2.1 Q9.25 -1.45 9.6 -0.15 L9.6 0.25 Q9.45 1.65 10.25 3.05 L9.85 4.35 9.05 4.3 Q8.0 4.3 7.05 4.75 L6.55 5.05 Q3.65 5.5 1.15 4.05 0.2 3.5 -0.35 2.55 -0.65 0.8 -0.2 -0.65 0.0 -1.2 0.55 -1.55" fill="#663333" fill-opacity="0.15294118" fill-rule="evenodd" stroke="none"/>
    <path d="M3.0 -3.6 L4.65 -3.05 Q5.75 -2.85 6.25 -1.75 6.9 -0.2 6.25 1.6 5.45 3.6 3.65 4.8 2.15 5.3 0.9 4.4 L-1.15 3.8 Q-2.95 1.3 -2.25 -1.5 -2.05 -2.2 -1.45 -2.55 L1.0 -3.6 3.0 -3.6" fill="#663333" fill-opacity="0.15294118" fill-rule="evenodd" stroke="none"/>
    <path d="M9.95 4.3 Q9.8 4.9 9.0 4.9 L-4.25 5.0 -10.45 4.75 -10.95 4.0 -10.45 3.1 9.5 3.0 9.95 4.3" fill="#663333" fill-opacity="0.15294118" fill-rule="evenodd" stroke="none"/>
    <path d="M5.0 2.45 L4.9 2.85 Q4.7 4.9 2.65 5.8 -0.1 6.2 -2.7 5.05 L-4.75 3.9 -4.35 1.65 Q-3.9 1.6 -3.75 1.1 -3.55 0.45 -2.9 0.1 -0.7 -1.15 1.75 -0.85 L3.1 -0.5 5.05 0.75 Q5.35 1.7 5.0 2.45" fill="#663333" fill-opacity="0.15294118" fill-rule="evenodd" stroke="none"/>
    <path d="M-3.3 -4.3 L-2.0 -4.35 -1.45 -4.0 -1.55 -1.0 Q-2.0 -0.2 -3.0 -0.05 -4.55 0.15 -5.65 -0.85 L-6.1 -2.15 -5.85 -3.1 -5.15 -3.65 -3.3 -4.3" fill="#ffffff" fill-opacity="0.15294118" fill-rule="evenodd" stroke="none"/>
    <path d="M-0.65 -3.35 L-0.55 -0.55 -2.0 0.8 -4.05 0.25 -4.6 -2.0 -4.5 -2.2 Q-3.0 -4.4 -0.65 -3.35" fill="#ffffff" fill-opacity="0.15294118" fill-rule="evenodd" stroke="none"/>
    <path d="M3.55 -4.75 L3.45 -4.6 3.4 -4.4 3.05 -4.1 0.2 -3.65 Q-1.45 -3.45 -3.25 -2.7 -4.4 -2.15 -5.2 -1.1 -6.0 -0.1 -6.25 1.1 L-6.7 2.25 -7.15 3.35 Q-7.15 3.85 -7.65 4.1 L-8.7 4.15 -9.5 4.75 -10.25 4.25 -10.35 3.05 -10.05 1.75 Q-9.2 -0.55 -7.55 -2.45 L-6.9 -3.1 -4.9 -4.6 -3.8 -5.15 3.1 -5.5 3.4 -5.15 3.55 -4.95 3.55 -4.75" fill="#ffffff" fill-opacity="0.15294118" fill-rule="evenodd" stroke="none"/>
    <path d="M1.5 -4.0 L1.4 -4.05 -1.0 -4.1 -2.7 -3.7 Q-5.05 -2.95 -6.95 -1.35 L-7.25 -0.75 -7.8 -0.2 -7.7 0.15 -7.75 0.9 -8.1 1.65 -8.45 2.25 -8.75 2.6 -9.0 4.5 -9.5 4.65 -9.9 4.5 -10.25 4.3 -10.6 4.05 -10.85 4.0 -10.8 2.85 -10.35 2.3 Q-10.35 1.0 -9.9 -0.15 -9.55 -1.0 -8.8 -1.7 -7.1 -3.4 -5.1 -4.6 L-4.7 -4.9 -2.5 -5.45 1.85 -5.7 2.9 -5.0 3.85 -4.0 3.95 -3.65 3.85 -3.25 3.25 -3.05 2.35 -3.55 1.6 -3.9 1.5 -4.0" fill="#ffffff" fill-opacity="0.15294118" fill-rule="evenodd" stroke="none"/>
    <path d="M-6.1 -3.4 L-5.8 -3.6 -5.65 -3.7 -5.6 -3.75 -5.5 -3.75 -5.3 -3.85 -5.2 -3.95 -5.1 -4.0 -5.0 -4.1 -4.9 -4.2 -4.75 -4.2 -4.6 -4.25 -4.5 -4.25 -4.35 -4.3 -3.25 -4.25 -2.6 -4.15 -2.5 -4.05 -2.45 -3.95 -2.4 -3.85 -2.35 -3.75 -2.3 -3.7 -2.25 -3.2 -2.25 -2.45 -2.35 -1.6 -2.4 -1.55 -2.45 -1.45 -2.5 -1.35 -2.6 -1.25 -2.6 -1.15 -2.65 -0.95 -2.7 -0.85 -2.75 -0.75 -2.8 -0.6 -2.85 -0.5 -2.9 -0.4 -3.2 -0.15 -3.75 0.15 -4.0 0.25 -5.0 0.25 -5.25 0.3 -6.0 0.3 -6.25 0.25 -6.5 0.15 -6.6 0.05 -6.7 0.0 -6.8 -0.1 -6.9 -0.2 -7.0 -0.3 -7.0 -0.4 -7.05 -0.5 -7.1 -0.6 -7.1 -0.7 -7.15 -0.75 -7.15 -0.85 -7.15 -1.15 -7.15 -1.5 -7.15 -2.1 -7.1 -2.35 -7.05 -2.45 -6.85 -2.75 -6.55 -3.0 -6.25 -3.3 -6.1 -3.4" fill="#ffffff" fill-opacity="0.15294118" fill-rule="evenodd" stroke="none"/>
    <path d="M11.1 4.65 L9.2 4.35 Q9.5 0.5 6.45 -2.45 3.4 -5.35 -0.45 -5.1 -4.35 -4.8 -7.15 -2.05 -9.95 0.75 -10.0 4.55 L-11.0 4.55 Q-10.95 0.35 -7.8 -2.8 -4.65 -5.95 -0.05 -5.95 4.5 -5.95 7.65 -2.85 10.8 0.25 11.1 4.65" fill="#333333" fill-rule="evenodd" stroke="none"/>
    <path d="M11.15 4.45 L11.2 4.6 11.2 4.8 11.1 5.0 11.0 5.1 10.8 5.3 7.3 5.45 4.9 5.45 3.7 5.45 2.5 5.45 1.3 5.45 0.15 5.45 -1.05 5.45 -2.25 5.45 -3.45 5.4 -4.65 5.4 -5.85 5.35 -7.05 5.35 -8.25 5.25 -9.45 5.2 -10.75 5.1 Q-11.35 5.0 -11.2 4.6 L-10.95 4.4 -10.05 4.2 -8.75 4.05 -6.8 3.95 -5.0 3.85 -4.0 3.85 -3.0 3.85 -2.0 3.85 -1.0 3.85 0.0 3.85 1.0 3.85 2.0 3.85 3.0 3.85 4.2 3.9 5.4 3.9 6.6 3.9 7.75 3.9 9.15 3.9 10.85 4.05 11.05 4.25 11.15 4.45" fill="#333333" fill-rule="evenodd" stroke="none"/>
    <path d="M-7.6 1.6 L-7.5 1.6 -7.45 1.7 -7.4 1.8 -7.4 2.0 -7.35 2.05 -7.35 2.15 -7.35 2.25 -7.45 2.35 -7.5 2.55 -7.5 2.75 -7.55 2.9 -7.55 3.0 -7.6 3.1 -7.6 3.2 -7.65 3.3 -7.7 3.4 -7.7 3.5 -7.7 3.65 -7.7 3.85 -7.7 3.95 -7.75 4.05 -7.8 4.15 -7.8 4.25 -7.8 4.4 -7.8 4.6 -7.85 4.7 -7.85 4.8 -7.9 4.85 -7.95 4.9 -8.1 4.9 -8.25 4.85 -8.35 4.75 -8.35 4.55 -8.35 4.4 -8.35 4.2 -8.35 4.1 -8.35 4.0 -8.3 3.9 -8.3 3.8 -8.25 3.65 -8.25 3.45 -8.25 3.35 -8.25 3.25 -8.2 3.15 -8.2 3.05 -8.15 3.0 -8.1 2.9 -8.05 2.8 -8.0 2.6 -8.0 2.4 -7.95 2.25 -7.85 2.15 -7.85 2.05 -7.75 1.95 -7.75 1.85 -7.75 1.75 -7.75 1.65 -7.65 1.6 -7.6 1.6" fill="#333333" fill-rule="evenodd" stroke="none"/>
    <path d="M-6.0 0.05 L-5.95 0.15 -5.9 0.25 -5.9 0.35 -5.9 0.45 -5.85 0.55 -5.85 0.65 -5.85 0.75 -5.85 0.8 -5.85 0.9 -5.85 1.0 -5.85 1.1 -5.95 1.3 -6.0 1.5 -6.0 2.05 -6.0 2.6 -6.05 3.05 -6.1 3.15 -6.25 3.2 -6.4 3.15 -6.45 3.05 -6.5 2.5 -6.5 1.8 -6.5 1.35 -6.45 1.25 -6.4 1.05 -6.35 0.9 -6.35 0.8 -6.35 0.7 -6.35 0.6 -6.3 0.5 -6.25 0.4 -6.25 0.3 -6.25 0.25 -6.25 0.15 -6.15 0.1 -6.1 0.05 -6.0 0.05" fill="#333333" fill-rule="evenodd" stroke="none"/>
    <path d="M-5.1 2.0 L-4.95 2.05 -4.9 2.15 -4.85 2.25 -4.85 2.35 -4.8 2.8 -4.8 3.4 -4.8 3.85 -4.8 3.95 -4.85 4.05 -4.9 4.15 -4.95 4.25 -4.95 4.3 -4.95 4.4 -4.95 4.5 -4.95 4.6 -5.0 4.7 -5.0 4.8 -5.05 4.9 -5.05 5.0 -5.1 5.05 -5.25 5.1 -5.4 5.05 -5.45 4.95 -5.45 4.85 -5.5 4.75 -5.5 4.65 -5.5 4.55 -5.5 4.5 -5.5 4.4 -5.5 4.3 -5.5 4.2 -5.5 4.1 -5.45 4.0 -5.4 3.9 -5.35 3.8 -5.35 3.25 -5.35 2.6 -5.3 2.15 -5.25 2.05 -5.2 2.05 -5.1 2.05 -5.1 2.0" fill="#333333" fill-rule="evenodd" stroke="none"/>
    <path d="M7.4 1.45 L7.6 1.5 7.65 1.6 7.7 1.7 7.7 1.8 7.7 1.9 7.75 1.95 7.8 2.05 7.9 2.15 7.95 2.25 8.0 2.35 8.0 2.45 8.05 2.55 8.1 2.65 8.15 2.75 8.2 2.85 8.25 2.9 8.3 3.0 8.35 3.2 8.45 3.5 8.55 3.75 8.55 3.85 8.6 3.95 8.65 4.05 8.65 4.15 8.75 4.3 8.8 4.5 8.85 4.6 8.8 4.7 8.75 4.8 8.75 4.9 8.7 4.95 8.65 4.95 8.5 5.0 8.35 4.95 8.25 4.85 8.2 4.75 8.15 4.65 8.15 4.55 8.1 4.5 8.05 4.4 7.95 4.1 7.85 3.75 7.75 3.35 7.7 3.25 7.65 3.15 7.6 3.05 7.5 2.9 7.4 2.8 7.4 2.7 7.4 2.6 7.35 2.5 7.3 2.3 7.25 2.25 7.15 2.15 7.15 2.05 7.15 1.85 7.15 1.65 7.15 1.55 7.25 1.5 7.3 1.5 7.4 1.45" fill="#333333" fill-rule="evenodd" stroke="none"/>
    <path d="M5.05 -0.45 L5.1 -0.5 5.25 -0.55 5.25 -0.6 5.4 -0.5 5.45 -0.45 5.5 -0.35 5.5 -0.25 5.5 -0.15 5.55 -0.05 5.6 0.05 5.65 0.15 5.75 0.4 5.85 0.8 6.0 1.15 6.05 1.25 6.1 1.35 6.15 1.45 6.15 1.55 6.2 1.65 6.2 1.75 6.2 1.8 6.2 1.9 6.25 2.0 6.25 2.1 6.3 2.2 6.25 2.3 6.25 2.4 6.25 2.5 6.25 2.55 6.15 2.65 6.0 2.75 5.85 2.65 5.8 2.55 5.75 2.5 5.75 2.4 5.75 2.3 5.7 2.2 5.65 2.1 5.65 2.0 5.65 1.9 5.65 1.8 5.65 1.75 5.6 1.65 5.5 1.45 5.4 1.25 5.35 1.15 5.3 0.9 5.2 0.6 5.15 0.3 5.15 0.25 5.1 0.15 5.05 0.05 5.0 -0.05 5.0 -0.15 5.05 -0.25 5.05 -0.35 5.05 -0.45" fill="#333333" fill-rule="evenodd" stroke="none"/>
    <path d="M4.35 1.5 L4.45 1.55 4.5 1.65 4.6 1.75 4.65 1.85 4.65 1.95 4.65 2.05 4.65 2.15 4.7 2.25 4.75 2.3 4.8 2.4 4.85 2.5 4.9 2.6 5.0 2.8 5.2 3.45 5.35 4.1 5.55 4.65 5.55 4.75 5.55 4.85 5.55 4.95 5.5 5.05 5.5 5.15 5.45 5.25 5.4 5.3 5.25 5.4 5.1 5.3 5.05 5.25 5.0 5.15 4.85 4.4 4.65 3.65 4.45 3.0 4.4 2.9 4.35 2.8 4.3 2.7 4.25 2.6 4.25 2.5 4.25 2.4 4.2 2.3 4.15 2.25 4.15 2.15 4.2 2.05 4.2 1.95 4.15 1.85 4.1 1.75 4.1 1.65 4.1 1.6 4.15 1.5 4.25 1.5 4.35 1.5" fill="#333333" fill-rule="evenodd" stroke="none"/>
    <path d="M1.85 1.1 L1.9 1.0 2.0 1.0 2.1 1.0 2.15 1.1 2.3 1.25 2.4 1.45 2.45 1.55 2.5 1.75 2.55 1.9 2.6 2.0 2.65 2.1 2.65 2.2 2.65 2.4 2.7 2.55 2.7 2.65 2.7 2.75 2.65 2.85 2.4 2.9 2.35 2.8 2.25 2.7 2.2 2.6 2.2 2.5 2.15 2.4 2.15 2.3 2.15 2.25 2.1 2.15 2.05 2.05 2.0 1.85 1.95 1.65 1.9 1.55 1.9 1.5 1.85 1.4 1.8 1.3 1.8 1.2 1.85 1.1" fill="#333333" fill-rule="evenodd" stroke="none"/>
  </g>
</svg>
