<?xml version="1.0" encoding="UTF-8" standalone="no"?>
<svg xmlns:xlink="http://www.w3.org/1999/xlink" height="25.9px" width="39.65px" xmlns="http://www.w3.org/2000/svg">
  <g transform="matrix(1.0, 0.0, 0.0, 1.0, 19.85, 12.95)">
    <path d="M13.1 -11.0 L13.85 -10.75 14.6 -10.7 14.95 -10.65 15.35 -10.6 15.65 -10.4 16.1 -10.35 16.5 -10.35 16.9 -10.25 17.2 -10.05 17.4 -9.85 17.55 -9.75 17.7 -9.55 17.75 -9.35 17.85 -9.15 17.9 -9.0 17.9 -8.8 17.95 -8.6 17.95 -8.45 18.0 -8.25 18.1 -8.05 18.2 -7.85 18.3 -7.65 18.35 -7.5 18.45 -7.3 18.45 -7.1 18.5 -6.55 18.55 -5.8 18.6 -5.25 18.65 -4.65 18.7 -4.1 18.65 -3.9 18.55 -3.75 18.55 -3.55 18.45 -3.35 18.3 -3.2 18.1 -3.0 18.0 -2.8 18.0 -2.6 17.9 -2.4 17.8 -2.2 17.65 -2.0 17.65 -1.8 17.6 -1.6 17.45 -1.45 Q16.3 -0.35 14.95 0.5 L13.95 1.3 12.6 2.5 12.5 2.75 Q11.65 3.55 11.05 4.5 L10.3 5.45 Q9.5 6.25 8.85 7.2 L8.6 7.6 8.35 7.8 8.1 8.0 8.0 8.2 7.55 8.8 7.0 9.55 6.5 10.15 6.25 10.3 6.1 10.55 6.05 10.75 5.8 10.95 5.55 11.1 5.4 11.3 5.3 11.5 5.15 11.75 4.95 11.9 4.65 12.1 4.25 12.2 -0.6 12.35 -0.9 12.15 -1.1 12.0 -1.85 11.45 -2.65 10.55 -3.15 10.0 -3.3 9.85 -3.4 9.65 -3.5 9.45 -3.65 9.25 -3.85 8.9 -4.25 8.55 -4.4 8.4 -4.5 8.2 -5.35 7.1 -6.15 6.35 -6.95 5.7 -7.5 4.9 -7.75 4.8 -8.05 4.6 -8.35 4.4 -8.7 4.0 -8.85 3.9 -9.1 3.7 Q-9.65 3.2 -10.3 3.0 L-11.9 2.1 -12.1 2.0 -12.5 1.9 -14.05 1.3 Q-14.8 0.95 -15.6 0.7 L-15.8 0.9 -15.95 0.95 -16.15 1.0 -16.55 1.05 -16.9 1.05 -17.3 0.95 -17.55 0.75 -17.8 0.55 -17.95 0.35 -18.05 0.25 -18.1 0.05 -18.15 -0.15 -18.2 -0.35 -18.2 -0.5 -18.25 -0.7 -18.35 -0.9 -18.55 -1.1 -18.65 -1.25 -18.7 -1.45 -18.75 -1.65 -18.75 -1.85 -18.85 -2.95 -18.9 -3.9 -18.95 -4.85 -19.05 -6.5 -19.05 -6.9 -19.05 -7.1 -19.0 -7.25 -18.9 -7.45 -18.75 -7.65 -18.55 -7.8 -17.95 -8.25 -17.7 -8.4 -17.45 -8.45 -16.85 -8.65 -15.75 -8.95 -15.15 -9.1 -14.75 -9.05 -14.4 -8.95 -14.1 -8.8 -13.7 -8.75 -13.35 -8.85 0.75 -10.45 0.95 -10.5 4.8 -10.85 4.95 -10.9 5.2 -11.0 5.55 -11.05 11.3 -11.15 13.1 -11.0" fill="#8399a7" fill-rule="evenodd" stroke="none"/>
    <path d="M15.1 -12.2 L15.7 -12.2 15.85 -12.3 16.15 -12.35 16.4 -12.35 16.6 -12.25 16.65 -12.15 16.75 -12.1 16.85 -12.0 16.9 -11.9 16.9 -11.8 16.95 -11.7 17.05 -11.6 17.1 -11.5 17.15 -11.4 17.15 -11.35 17.2 -11.15 17.25 -11.05 17.25 -10.85 17.25 -10.75 17.25 -10.6 17.2 -10.4 17.15 -10.15 17.1 -10.05 17.0 -9.95 16.9 -9.9 16.75 -9.85 9.3 -9.45 9.0 -9.5 8.85 -9.6 8.75 -9.7 8.7 -9.7 8.5 -9.7 8.35 -9.6 8.15 -9.6 -17.1 -8.25 -17.4 -8.3 -17.6 -8.35 -17.85 -8.45 -17.95 -8.55 -18.05 -8.65 -18.1 -8.75 -18.2 -8.8 -18.25 -8.85 -18.25 -8.95 -18.25 -9.05 -18.25 -9.15 -18.25 -9.25 -18.2 -9.35 -18.15 -9.45 -18.1 -9.5 -18.0 -9.6 -18.0 -9.7 -17.95 -9.8 -17.95 -9.9 -17.95 -10.0 -17.9 -10.1 -17.85 -10.2 -17.75 -10.3 -17.65 -10.35 -17.5 -10.45 -17.3 -10.5 4.35 -11.65 4.45 -11.75 4.6 -11.85 4.9 -11.9 13.65 -12.25 15.1 -12.2" fill="#ffffff" fill-rule="evenodd" stroke="none"/>
    <path d="M10.35 2.25 L10.5 2.15 10.65 2.05 11.05 1.85 13.7 0.2 15.05 -0.9 15.25 -1.05 15.4 -1.15 15.6 -1.25 15.7 -1.4 15.8 -1.5 16.6 -2.0 17.55 -2.55 17.75 -2.55 17.85 -2.55 18.1 -2.55 18.25 -2.45 18.35 -2.35 18.4 -2.25 18.45 -2.2 18.45 -2.1 18.5 -2.0 18.5 -1.9 18.55 -1.8 18.55 -1.7 18.65 -1.6 18.75 -1.5 18.8 -1.45 18.85 -1.35 18.9 -1.25 19.0 -0.95 18.95 -0.6 18.9 -0.2 18.85 0.05 18.8 0.15 18.75 0.25 17.85 1.4 16.45 2.95 16.15 3.35 16.05 3.55 15.85 3.8 15.6 4.05 15.55 4.15 11.65 6.8 10.5 7.75 7.5 10.05 7.45 10.15 7.4 10.25 7.3 10.35 7.2 10.45 7.15 10.55 7.05 10.65 7.0 10.75 6.95 10.85 6.95 10.95 6.85 11.05 6.75 11.1 6.65 11.2 6.6 11.3 6.45 11.4 6.3 11.5 6.05 11.75 5.95 11.8 5.75 11.85 5.6 11.9 5.4 11.95 5.2 11.95 5.0 11.9 4.85 11.8 4.75 11.7 4.7 11.65 4.6 11.55 4.55 11.45 4.55 11.35 4.55 11.25 4.55 11.15 4.55 11.05 4.55 10.95 4.6 10.9 4.6 10.8 4.65 10.7 4.75 10.6 4.75 10.5 4.75 10.4 4.75 10.3 4.8 10.2 4.8 10.15 4.85 10.05 4.95 9.95 4.95 9.85 5.0 9.75 5.1 9.6 5.8 8.3 6.75 6.7 7.25 5.85 7.3 5.75 7.3 5.65 7.35 5.55 7.4 5.5 7.35 5.4 8.3 4.2 10.1 2.45 10.35 2.25" fill="#ffffff" fill-rule="evenodd" stroke="none"/>
    <path d="M1.15 -10.2 L1.2 -10.1 1.2 -9.9 1.25 -9.6 1.25 -9.1 1.25 -8.85 1.25 -8.75 1.2 -8.65 1.15 -8.55 1.05 -8.45 1.1 -8.25 1.25 -7.9 1.3 -7.4 1.35 -7.25 1.8 -5.25 1.9 -3.0 1.9 -1.25 1.85 -1.15 1.9 -1.05 1.9 -0.95 1.85 -0.75 1.8 -0.7 1.8 -0.5 1.9 -0.1 1.9 0.35 1.95 0.65 1.95 0.75 1.9 0.8 1.85 0.9 1.75 1.0 1.7 1.1 1.5 1.2 1.25 1.25 0.95 1.25 0.8 1.15 0.7 1.05 0.55 0.85 0.45 0.8 0.45 0.7 0.4 0.6 0.4 0.4 0.4 0.2 0.4 0.1 0.35 0.05 0.3 -0.05 0.25 -0.15 0.15 -0.25 0.15 -0.35 0.15 -0.45 0.1 -0.65 0.05 -0.9 -0.1 -1.25 -0.15 -1.3 -0.25 -1.4 -0.35 -1.5 -0.45 -1.6 -0.55 -2.0 -0.6 -2.75 -0.6 -3.5 -0.65 -3.6 -0.6 -3.65 -0.55 -3.85 -0.45 -4.25 -0.4 -4.6 -0.45 -5.55 -0.5 -6.85 -0.6 -8.1 -0.6 -8.15 -0.55 -8.25 -0.55 -8.35 -0.55 -8.45 -0.55 -8.55 -0.5 -8.65 -0.5 -8.8 -0.35 -8.95 -0.25 -9.15 -0.25 -9.25 -0.25 -9.45 -0.3 -9.65 -0.25 -10.05 -0.2 -10.15 -0.2 -10.25 -0.1 -10.3 -0.05 -10.4 0.05 -10.5 0.1 -10.5 0.25 -10.55 0.45 -10.55 0.45 -10.6 0.7 -10.55 0.95 -10.45 1.0 -10.35 1.1 -10.3 1.15 -10.2" fill="#ffffff" fill-rule="evenodd" stroke="none"/>
    <path d="M0.6 -1.1 L0.8 -1.0 0.9 -0.9 0.95 -0.8 1.0 -0.7 1.0 -0.65 1.05 -0.55 1.05 -0.45 1.05 -0.35 1.05 -0.25 1.1 -0.15 1.1 -0.05 1.1 0.05 1.15 0.05 1.2 0.15 1.3 0.25 1.3 0.35 1.35 0.45 1.35 0.55 1.4 0.65 1.45 0.75 1.4 0.8 1.4 0.9 1.35 1.0 1.35 1.1 1.35 1.2 1.35 1.3 1.35 1.4 1.35 1.5 1.3 1.65 1.2 2.0 1.1 2.35 0.5 3.0 -0.65 4.0 -0.8 4.1 -1.1 4.5 -1.7 5.2 -1.85 5.45 -1.95 5.6 -2.0 5.7 -2.15 5.8 -2.25 6.0 -2.65 6.5 -2.9 6.95 -3.0 7.05 -3.15 7.15 -3.2 7.15 -3.4 7.25 -3.5 7.3 -3.55 7.4 -3.65 7.5 -3.75 7.6 -3.85 7.7 -4.0 7.8 -4.35 8.05 -4.6 8.1 -4.9 8.05 -5.1 7.95 -5.15 7.9 -5.25 7.8 -5.35 7.7 -5.4 7.6 -5.4 7.5 -5.4 7.4 -5.4 7.35 -5.4 7.25 -5.4 7.15 -5.35 7.05 -5.25 6.85 -4.95 6.55 -4.85 6.45 -4.75 6.35 -4.7 6.25 -4.5 6.05 -4.45 5.95 -4.25 5.85 -4.1 5.75 -4.0 5.65 -3.95 5.55 -3.9 5.45 -3.65 5.15 -3.15 4.6 -2.9 4.25 -2.5 3.7 -1.65 2.85 -1.4 2.65 -1.15 2.35 -0.7 1.85 -0.5 1.55 -0.45 1.45 -0.4 1.35 -0.4 1.25 -0.35 1.15 -0.3 1.1 -0.3 1.0 -0.25 0.8 -0.3 0.5 -0.3 0.25 -0.3 0.15 -0.25 0.05 -0.2 -0.05 -0.2 -0.15 -0.25 -0.25 -0.25 -0.35 -0.25 -0.5 -0.25 -0.6 -0.25 -0.7 -0.15 -0.8 -0.1 -0.9 0.0 -1.05 0.05 -1.1 0.15 -1.1 0.35 -1.15 0.6 -1.1" fill="#ffffff" fill-rule="evenodd" stroke="none"/>
    <path d="M1.85 0.95 L1.95 1.05 2.2 1.25 2.95 1.85 3.75 2.55 4.55 3.1 5.55 3.85 6.85 4.85 7.4 5.4 7.75 5.55 8.1 5.75 8.45 5.85 8.65 5.9 8.8 5.95 8.95 6.05 9.05 6.15 9.15 6.25 9.25 6.35 9.3 6.45 9.35 6.5 9.35 6.6 9.35 6.7 9.35 6.8 9.35 6.9 9.35 7.0 9.35 7.1 9.35 7.2 9.3 7.3 9.25 7.35 9.15 7.45 9.05 7.55 8.95 7.6 8.85 7.65 8.65 7.7 8.45 7.65 8.25 7.65 8.15 7.55 8.0 7.45 7.85 7.35 7.75 7.3 7.55 7.3 7.35 7.3 7.15 7.3 6.25 6.7 5.35 6.2 5.0 5.85 4.0 5.05 2.9 4.05 2.2 3.25 1.7 2.8 1.25 2.3 0.7 1.8 0.6 1.7 0.55 1.6 0.55 1.55 0.45 1.45 0.45 1.35 0.45 1.25 0.5 1.15 0.5 1.05 0.55 0.95 0.65 0.85 0.75 0.8 0.85 0.7 0.95 0.7 1.1 0.65 1.2 0.6 1.5 0.65 1.7 0.75 1.75 0.85 1.85 0.95" fill="#ffffff" fill-rule="evenodd" stroke="none"/>
    <path d="M-18.95 -1.05 L-18.65 -1.05 -18.7 -1.1 -17.7 -1.15 -17.4 -1.05 -17.15 -1.0 -17.0 -0.9 -16.95 -0.9 -16.8 -0.9 -15.55 -0.6 -14.7 -0.15 -14.25 0.05 -13.45 0.3 -12.15 0.95 -11.2 1.65 -10.7 2.05 -10.5 2.15 -9.7 2.5 -9.05 2.85 -8.9 2.95 -8.8 3.0 -8.25 3.5 -7.7 3.8 -7.3 4.05 -6.9 4.35 -6.75 4.45 -6.35 4.75 -6.0 5.1 -5.55 5.4 -5.4 5.5 -5.3 5.6 -5.2 5.65 -5.0 5.95 -4.75 6.2 -4.7 6.3 -4.65 6.4 -4.6 6.5 -4.55 6.55 -4.35 6.6 -4.2 6.65 -4.05 6.7 -3.95 6.8 -3.85 6.9 -3.75 7.05 -3.55 7.35 -3.5 7.45 -3.45 7.55 -3.4 7.65 -3.3 7.75 -3.25 7.8 -3.25 7.9 -3.2 8.0 -2.7 8.55 -2.4 8.9 -2.1 9.25 -1.7 9.75 -1.5 9.95 -1.5 10.05 -1.5 10.15 -1.35 10.25 -1.3 10.35 -1.2 10.45 -1.05 10.7 -0.95 10.9 -0.85 11.0 -0.8 11.1 -0.75 11.2 -0.7 11.3 -0.7 11.4 -0.7 11.45 -0.7 11.55 -0.7 11.65 -0.7 11.75 -0.75 11.85 -0.75 11.95 -0.8 12.05 -0.85 12.15 -0.95 12.2 -1.1 12.3 -1.25 12.35 -1.9 12.4 -2.65 12.1 -2.75 12.05 -2.8 12.05 -2.9 12.0 -3.05 12.0 -3.3 11.9 -3.45 11.8 -5.0 10.95 Q-5.95 10.35 -6.85 9.9 L-9.5 8.4 -9.85 8.2 -9.9 8.15 -10.0 8.1 -10.1 8.05 -10.55 7.95 -10.7 7.85 -10.8 7.8 -10.95 7.75 -11.25 7.55 -12.1 7.2 -12.2 7.15 -12.25 7.15 -12.45 7.05 -12.6 6.95 -12.7 6.9 -12.9 6.8 -13.2 6.55 -13.4 6.45 -13.85 6.1 -14.15 5.7 -14.35 5.55 -14.5 5.4 -14.6 5.3 -14.65 5.2 -14.7 5.1 -14.75 5.0 -15.1 4.7 -15.3 4.55 -15.5 4.45 -15.65 4.4 -15.75 4.3 -15.8 4.2 -15.9 4.1 -15.95 4.05 -16.15 3.95 -16.25 3.85 -16.35 3.75 -16.4 3.65 -16.45 3.55 -16.45 3.45 -16.55 3.35 -16.55 3.3 -16.65 3.2 -16.8 3.15 -16.95 3.05 -17.05 2.95 -17.15 2.85 -17.25 2.75 -17.4 2.6 -17.5 2.5 -17.95 2.15 -18.4 1.75 -18.7 1.5 -18.8 1.3 -18.85 1.2 -18.85 1.15 -18.9 1.05 -18.95 0.95 -18.95 0.85 -18.95 0.75 -18.95 0.65 -19.0 0.55 -19.0 0.45 -19.0 0.4 -18.95 0.3 -19.0 0.2 -19.1 0.1 -19.15 0.05 -19.25 -0.15 -19.35 -0.25 -19.35 -0.3 -19.35 -0.4 -19.35 -0.5 -19.3 -0.6 -19.25 -0.7 -19.2 -0.8 -19.1 -0.95 -18.95 -1.05" fill="#ffffff" fill-rule="evenodd" stroke="none"/>
    <path d="M10.5 1.65 L10.75 1.8 10.9 2.0 11.0 2.2 11.15 2.4 11.2 2.55 11.25 2.75 11.3 2.95 11.4 3.15 11.4 3.3 11.4 3.5 11.4 3.85 11.45 4.45 11.45 5.2 11.45 5.4 11.4 5.55 11.3 5.75 11.25 5.95 11.1 6.1 10.95 6.3 10.7 6.5 10.4 6.7 10.2 6.85 9.95 7.05 9.8 7.25 9.75 7.45 9.7 7.65 9.55 7.8 9.45 8.0 9.4 8.2 9.3 8.4 9.2 8.55 9.2 8.75 9.2 8.95 9.15 9.15 9.05 9.3 9.0 9.5 8.9 9.7 8.8 9.85 8.6 10.25 8.3 10.8 7.9 11.4 7.5 11.55 7.0 11.7 6.25 11.7 5.7 11.55 5.0 11.55 4.95 11.75 4.8 11.95 4.7 12.1 4.5 12.3 4.3 12.45 4.1 12.5 3.75 12.55 3.0 12.55 2.45 12.45 1.0 12.45 0.5 12.55 0.25 12.55 -0.3 12.45 -0.6 12.25 -0.8 12.05 -0.9 11.85 -0.95 11.75 -1.0 11.7 -1.75 11.65 -1.95 11.65 -2.2 11.7 -2.45 11.75 -2.75 11.8 -3.25 11.7 -3.55 11.85 -3.75 11.95 -4.0 11.8 -4.2 11.6 -4.3 11.45 -4.3 11.25 -4.3 11.05 -4.2 10.9 -3.95 10.7 -3.75 10.5 -3.55 10.4 -3.25 10.3 -3.05 10.25 -2.55 10.1 -1.45 9.75 -1.5 9.55 -1.55 9.4 -1.6 9.2 -1.6 9.0 -1.6 8.8 -1.6 8.65 -1.6 8.45 -1.6 8.25 -1.55 8.05 -1.5 7.9 -1.35 7.7 -1.0 7.3 -0.45 6.75 -0.05 6.4 0.3 6.2 0.7 6.0 1.05 5.8 1.4 5.7 1.75 5.6 4.5 5.1 5.5 4.95 5.55 4.75 5.55 4.55 5.55 4.4 5.6 4.2 5.65 4.0 5.7 3.8 5.8 3.65 5.8 3.45 5.8 3.25 5.9 3.05 5.95 2.9 6.0 2.7 6.1 2.5 6.2 2.3 6.35 2.1 6.5 1.95 6.7 1.75 6.95 1.55 7.45 1.25 7.65 1.2 8.0 1.15 9.25 1.15 9.75 1.25 10.2 1.45 10.5 1.65" fill="#663300" fill-opacity="0.2" fill-rule="evenodd" stroke="none"/>
    <path d="M3.0 9.0 L3.2 8.8 3.45 8.7 3.8 8.55 Q3.95 8.45 4.05 8.4 L4.5 8.2 4.6 8.05 4.75 7.9 4.95 7.7 5.2 7.55 5.4 7.5 5.75 7.45 6.0 7.45 6.5 7.55 6.8 7.75 7.0 7.95 7.15 8.15 7.2 8.3 7.25 8.5 7.3 8.7 7.45 8.9 7.5 9.05 7.5 9.25 7.5 9.45 7.45 9.65 7.3 9.8 7.3 10.0 7.3 10.2 7.3 10.4 7.25 10.55 7.2 10.75 7.15 10.95 7.0 11.15 6.9 11.3 6.65 11.65 6.05 12.2 5.85 12.25 5.5 12.3 5.0 12.25 4.45 12.15 4.2 11.95 3.9 11.8 3.5 11.75 3.0 11.65 2.75 11.45 2.65 11.25 2.55 11.05 2.5 10.85 2.5 10.7 2.5 10.5 2.55 10.15 2.65 9.55 2.7 9.4 2.8 9.2 3.0 9.0" fill="#663300" fill-opacity="0.2" fill-rule="evenodd" stroke="none"/>
    <path d="M18.1 -10.95 L18.15 -10.85 18.25 -10.75 18.25 -10.65 18.3 -10.55 18.35 -10.45 18.35 -10.35 18.35 -10.3 18.3 -10.2 18.3 -10.1 18.25 -10.0 18.15 -9.9 18.05 -9.8 17.9 -9.75 -14.95 -8.45 -15.2 -8.5 -16.25 -8.5 -16.35 -8.45 -16.95 -8.35 -17.55 -8.2 -17.8 -8.25 -18.0 -8.3 -18.15 -8.4 -18.25 -8.45 -18.25 -8.55 -18.25 -8.65 -18.3 -8.7 -18.3 -8.8 -18.25 -8.95 -18.15 -9.05 -18.05 -9.1 -18.0 -9.15 -17.85 -9.2 -17.65 -9.25 -17.4 -9.35 -17.25 -9.45 -15.05 -9.95 -14.75 -10.0 -11.15 -10.25 -10.3 -10.3 -10.05 -10.25 -9.85 -10.15 -9.75 -10.05 -9.7 -10.0 -8.2 -10.1 17.65 -11.05 17.9 -11.05 18.1 -10.95" fill="#d1d0a5" fill-opacity="0.3019608" fill-rule="evenodd" stroke="none"/>
    <path d="M15.4 -12.15 L15.55 -12.05 15.65 -11.95 15.7 -11.85 15.8 -11.85 16.0 -11.9 16.2 -11.95 16.35 -11.95 16.65 -11.95 16.8 -11.85 16.9 -11.8 16.95 -11.75 17.2 -11.75 17.45 -11.7 17.65 -11.65 17.75 -11.55 17.85 -11.45 17.9 -11.35 17.95 -11.3 17.95 -11.2 18.0 -11.1 18.0 -10.9 18.0 -10.7 18.0 -10.6 18.0 -10.55 17.95 -10.45 17.95 -10.35 17.95 -10.25 17.9 -10.15 17.85 -10.05 17.75 -9.95 17.55 -9.8 17.3 -9.75 17.2 -9.75 16.9 -9.8 16.75 -9.9 16.65 -10.0 16.5 -10.05 16.4 -10.05 16.25 -10.0 16.05 -9.95 15.8 -9.95 15.6 -9.95 15.5 -9.85 15.4 -9.8 15.2 -9.75 14.2 -9.7 13.9 -9.75 13.75 -9.85 12.5 -9.7 12.2 -9.7 8.8 -9.55 8.5 -9.55 8.3 -9.6 7.05 -9.6 6.85 -9.6 5.9 -9.7 5.7 -9.8 5.6 -9.9 5.5 -10.0 5.45 -10.05 5.45 -10.15 5.45 -10.25 5.45 -10.35 5.45 -10.45 5.45 -10.55 5.45 -10.65 5.5 -10.75 5.55 -10.8 5.55 -10.9 5.55 -11.0 5.6 -11.1 5.65 -11.2 5.75 -11.3 5.9 -11.4 6.2 -11.45 6.4 -11.5 7.55 -11.85 7.65 -11.9 7.85 -11.9 8.2 -12.0 8.3 -12.1 8.35 -12.15 8.55 -12.15 11.0 -12.25 12.95 -12.05 15.1 -12.15 15.4 -12.15" fill="#d1d0a5" fill-opacity="0.3019608" fill-rule="evenodd" stroke="none"/>
    <path d="M11.95 -11.15 L13.25 -11.2 14.7 -11.1 14.85 -11.0 14.95 -10.9 15.0 -10.8 15.05 -10.7 15.1 -10.65 15.1 -10.55 15.15 -10.45 15.15 -10.35 15.1 -10.25 15.15 -10.15 15.1 -10.05 15.05 -9.95 15.0 -9.9 14.85 -9.8 14.75 -9.7 14.65 -9.7 11.05 -9.55 10.8 -9.45 5.5 -9.3 4.3 -9.3 4.0 -9.3 3.85 -9.4 3.7 -9.5 3.6 -9.6 3.5 -9.7 3.45 -9.8 3.4 -9.9 3.4 -9.95 3.4 -10.05 3.4 -10.15 3.45 -10.25 3.5 -10.35 3.6 -10.45 3.7 -10.55 3.8 -10.65 3.95 -10.7 4.1 -10.8 4.25 -10.9 5.6 -11.15 5.9 -11.2 7.05 -11.35 7.85 -11.55 8.2 -11.6 10.1 -11.7 10.4 -11.65 10.95 -11.5 11.55 -11.3 11.95 -11.15" fill="#d1d0a5" fill-opacity="0.3019608" fill-rule="evenodd" stroke="none"/>
    <path d="M1.15 -9.4 L1.25 -9.3 1.3 -9.2 1.55 -6.4 1.55 -3.4 1.6 -2.45 Q1.55 -2.05 1.65 -1.6 L1.65 -1.45 1.6 -1.05 1.6 -0.7 1.65 -0.5 1.6 -0.4 1.55 -0.3 1.5 -0.2 1.45 0.45 1.5 1.3 1.6 2.05 1.6 2.15 1.55 2.2 1.55 2.3 1.2 2.85 0.45 3.5 0.35 3.6 0.2 3.75 -0.1 3.9 -0.25 4.0 -0.4 4.1 -0.45 4.2 -0.55 4.4 -0.7 4.55 -0.75 4.65 -0.95 4.8 -1.2 5.0 -1.4 5.2 -1.5 5.3 -1.8 5.45 Q-2.1 5.7 -2.45 5.75 L-2.45 5.85 -2.5 5.95 -2.55 6.05 -2.6 6.25 -2.7 6.5 -3.0 7.05 -3.35 7.4 -3.4 7.4 -3.6 7.45 -3.85 7.4 -4.0 7.3 -4.1 7.25 -4.15 7.15 -4.2 7.05 -4.2 6.95 -4.2 6.75 -4.2 6.6 -4.15 6.5 -4.2 6.4 -4.15 6.3 -4.1 6.2 -4.05 6.05 -3.95 6.0 -3.75 5.8 -3.7 5.7 -3.65 5.6 -3.65 5.5 -3.6 5.4 -3.6 5.3 -3.6 5.2 -3.45 5.05 -3.4 4.95 -3.25 4.85 -3.1 4.75 -2.95 4.6 -2.65 4.5 -2.35 4.4 -2.25 4.35 -2.1 4.25 -1.95 4.15 -1.9 4.0 -1.8 3.9 -1.65 3.8 -1.5 3.7 -1.45 3.65 -1.3 3.45 -1.0 3.15 -0.55 2.8 -0.1 2.45 0.05 2.35 0.3 2.1 0.5 1.95 0.45 1.25 0.4 0.45 0.4 -0.3 0.4 -0.4 0.45 -0.5 0.45 -0.6 0.5 -0.7 0.5 -0.9 0.55 -1.25 0.6 -1.65 0.6 -1.8 0.6 -2.1 0.6 -2.55 0.55 -3.05 0.65 -5.2 0.55 -7.65 0.55 -9.15 0.6 -9.2 0.7 -9.3 0.8 -9.4 0.95 -9.45 1.15 -9.4" fill="#d1d0a5" fill-opacity="0.3019608" fill-rule="evenodd" stroke="none"/>
    <path d="M-13.95 2.35 L-13.8 2.35 -13.2 2.45 -13.0 2.55 -12.6 2.7 -12.3 2.9 -12.15 3.0 -11.9 3.15 -11.7 3.3 Q-11.35 3.4 -11.1 3.55 -10.7 3.75 -10.35 4.05 L-9.55 4.6 -9.35 4.8 -8.8 5.25 -8.0 6.0 -7.4 6.7 -6.9 7.3 -6.85 7.3 -6.55 7.35 -6.35 7.45 -6.25 7.5 -6.1 7.55 -6.0 7.65 -5.85 7.75 -5.75 7.85 -5.6 7.95 -5.45 8.05 -5.35 8.15 -5.35 8.25 -5.25 8.3 -5.25 8.4 -5.25 8.5 -5.25 8.6 -5.25 8.7 -5.25 8.8 -5.3 8.9 -5.35 9.0 -5.45 9.05 -5.55 9.15 -5.7 9.25 -5.9 9.25 -6.15 9.25 -6.45 9.25 -6.7 9.15 -6.85 9.05 -6.95 9.0 -7.15 8.95 -7.45 8.95 -7.6 8.85 -7.8 8.75 -7.95 8.65 -8.05 8.6 -8.2 8.5 -8.4 8.4 -10.6 6.9 -13.05 5.05 -14.9 3.55 -14.95 3.45 -14.95 3.35 -14.95 3.25 -14.95 3.15 -14.95 3.05 -14.95 2.95 -14.9 2.9 -14.85 2.8 -14.75 2.7 -14.6 2.6 -14.35 2.5 -14.25 2.4 -14.15 2.35 -13.95 2.35" fill="#d1d0a5" fill-opacity="0.3019608" fill-rule="evenodd" stroke="none"/>
    <path d="M2.1 1.95 L2.15 1.9 2.25 1.8 2.3 1.7 2.4 1.7 2.55 1.65 2.55 1.6 2.75 1.65 3.7 2.3 4.65 3.0 5.35 3.55 5.55 3.65 5.7 3.75 5.85 3.8 5.95 3.9 6.05 3.95 6.1 4.05 6.2 4.15 6.3 4.25 6.5 4.35 6.65 4.45 6.75 4.55 6.85 4.6 7.05 4.7 7.2 4.75 7.3 4.85 7.4 4.95 7.45 5.05 7.45 5.15 7.55 5.25 7.65 5.3 7.7 5.4 7.75 5.5 7.8 5.6 7.8 5.7 7.8 5.8 7.8 5.9 7.75 5.95 7.65 6.05 7.6 6.15 7.5 6.2 7.45 6.25 7.25 6.3 7.0 6.25 6.85 6.2 6.75 6.1 6.65 6.0 6.5 5.9 6.4 5.8 6.35 5.7 6.25 5.6 6.05 5.45 5.95 5.4 5.8 5.3 5.65 5.2 4.7 4.35 3.55 3.5 2.5 2.7 2.4 2.65 2.35 2.55 2.25 2.45 2.2 2.35 2.15 2.25 2.1 2.15 2.1 2.05 2.1 1.95" fill="#d1d0a5" fill-opacity="0.3019608" fill-rule="evenodd" stroke="none"/>
    <path d="M15.3 0.7 L15.5 0.7 15.75 0.7 15.8 0.6 15.85 0.55 15.9 0.45 15.95 0.3 15.95 0.2 16.0 0.1 16.1 0.0 16.15 -0.1 16.25 -0.15 16.4 -0.25 16.6 -0.25 16.95 -0.25 17.35 -0.25 17.8 -0.1 18.0 -0.05 18.25 -0.05 18.45 0.05 18.5 0.15 18.6 0.2 18.65 0.3 18.7 0.4 18.7 0.5 18.75 0.6 18.75 0.7 18.75 0.8 18.75 0.9 18.75 0.95 18.65 1.05 18.65 1.15 18.55 1.25 18.5 1.35 18.4 1.45 18.0 1.7 17.65 1.85 17.6 1.95 17.55 2.05 17.5 2.15 17.35 2.35 17.25 2.45 17.15 2.6 17.1 2.65 13.8 5.45 10.45 8.3 8.75 9.6 8.65 9.7 8.6 9.75 8.45 10.0 8.4 10.1 8.3 10.2 8.0 10.35 7.9 10.45 7.8 10.45 7.6 10.5 7.3 10.5 7.1 10.4 7.0 10.3 6.95 10.2 6.9 10.1 6.85 10.0 6.85 9.95 6.85 9.85 6.85 9.75 6.9 9.65 6.95 9.55 6.95 9.45 6.95 9.35 6.95 9.25 6.95 9.2 7.0 9.1 7.05 9.0 7.1 8.9 7.1 8.8 7.1 8.7 7.2 8.6 7.2 8.5 7.25 8.45 7.3 8.35 7.45 8.1 7.65 7.9 7.8 7.7 7.9 7.65 7.9 7.55 7.9 7.45 8.0 7.35 8.0 7.25 8.05 7.15 8.05 7.05 8.05 7.0 8.15 6.9 8.25 6.8 8.4 6.65 8.4 6.55 8.45 6.45 8.45 6.35 8.5 6.3 8.7 6.1 8.8 6.0 8.95 5.9 9.1 5.8 Q9.8 4.85 10.75 4.25 L13.35 2.5 14.15 2.0 14.25 1.9 14.4 1.7 14.55 1.5 14.75 1.35 14.85 1.25 14.9 1.1 14.95 1.0 15.0 0.9 15.1 0.8 15.2 0.75 15.3 0.7" fill="#d1d0a5" fill-opacity="0.3019608" fill-rule="evenodd" stroke="none"/>
    <path d="M13.9 1.9 L14.05 1.85 14.1 1.85 14.3 1.8 14.55 1.85 14.7 1.95 14.75 2.05 14.8 2.15 14.9 2.25 14.95 2.3 14.95 2.35 14.95 2.45 14.95 2.55 14.9 2.7 14.85 2.8 14.85 2.9 14.8 3.0 14.75 3.1 14.7 3.15 14.65 3.25 14.6 3.35 14.55 3.45 14.5 3.55 14.25 3.75 13.75 4.15 13.5 4.35 12.85 4.8 11.8 5.5 11.65 5.55 11.45 5.65 11.35 5.75 11.2 5.8 11.0 5.9 10.8 6.0 10.6 6.1 10.5 6.25 10.4 6.45 10.2 6.8 9.8 7.2 9.55 7.25 9.45 7.3 9.25 7.3 9.05 7.25 8.8 7.2 8.7 7.1 8.6 7.0 8.5 6.9 8.5 6.85 8.55 6.75 8.55 6.65 8.6 6.55 8.7 6.45 8.8 6.35 8.85 6.25 8.95 6.15 9.0 6.1 9.0 6.0 8.95 5.9 8.9 5.8 8.9 5.7 8.95 5.6 9.0 5.55 9.15 5.35 9.35 5.15 9.4 5.1 9.65 5.05 9.75 4.95 9.85 4.85 9.9 4.85 10.1 4.75 10.3 4.7 11.05 4.1 11.95 3.35 12.4 3.05 13.0 2.45 13.1 2.3 13.15 2.25 13.3 2.2 13.55 2.3 13.65 2.35 13.7 2.4 13.7 2.35 13.7 2.25 13.75 2.1 13.85 2.0 13.9 1.9" fill="#d1d0a5" fill-opacity="0.3019608" fill-rule="evenodd" stroke="none"/>
    <path d="M-15.5 1.9 L-15.25 1.95 -15.05 2.05 -14.9 2.15 -14.65 2.35 -14.25 2.5 -13.9 2.65 -13.5 2.85 -13.35 2.95 -13.2 3.0 -13.1 3.1 -13.0 3.2 -12.9 3.3 -12.75 3.4 -12.55 3.45 -12.4 3.55 -12.2 3.65 -12.05 3.75 -11.9 3.75 -11.5 3.8 -10.8 4.0 -10.3 4.25 -10.1 4.35 -9.9 4.45 -9.85 4.55 -9.7 4.6 -9.35 4.8 -8.95 5.05 -8.5 5.3 -8.4 5.4 -8.3 5.5 -8.15 5.6 -8.1 5.65 -8.0 5.75 -7.9 5.85 -7.85 5.95 -7.8 6.05 -7.7 6.15 -7.6 6.25 -6.85 6.75 -6.05 7.55 -5.3 8.45 -4.9 9.05 -4.55 9.55 -4.55 9.65 -4.5 9.75 -4.4 9.85 -4.45 9.95 -4.45 10.05 -4.45 10.1 -4.5 10.2 -4.5 10.3 -4.45 10.4 -4.4 10.5 -4.4 10.6 -4.35 10.7 -4.35 10.75 -4.4 10.85 -4.35 10.95 -4.4 11.05 -4.45 11.15 -4.5 11.25 -4.6 11.35 -4.8 11.45 -5.05 11.55 -5.3 11.55 -5.75 11.55 -5.95 11.5 -6.05 11.4 -6.15 11.35 -6.25 11.25 -6.3 11.15 -6.3 11.05 -6.4 10.95 -6.45 10.85 -6.5 10.8 -6.6 10.7 -6.7 10.6 -6.8 10.5 -7.2 10.3 -8.1 10.0 -9.0 9.65 -9.2 9.6 -9.4 9.55 -9.5 9.45 -9.6 9.4 -9.7 9.3 -9.7 9.2 -9.75 9.1 -9.8 9.0 -9.8 8.95 -9.85 8.85 -9.85 8.75 -9.8 8.65 -9.75 8.55 -9.7 8.45 -9.6 8.35 -9.7 8.25 -11.95 7.35 -13.8 6.0 -15.05 4.8 -15.45 4.6 -15.55 4.5 -15.65 4.4 -15.7 4.3 -15.7 4.2 -15.75 4.1 -15.85 4.0 -15.95 3.95 -16.05 3.85 -16.1 3.75 -16.15 3.65 -16.2 3.55 -16.2 3.5 -16.7 3.45 -17.2 3.25 -17.35 3.15 -17.45 3.05 -17.45 3.0 -17.5 2.9 -17.5 2.8 -17.55 2.7 -17.6 2.6 -17.65 2.5 -17.75 2.4 -17.75 2.3 -17.75 2.25 -17.75 2.15 -17.75 2.05 -17.7 1.95 -17.65 1.85 -17.6 1.75 -17.5 1.65 -17.4 1.6 -17.3 1.6 -17.1 1.55 -16.6 1.5 -16.3 1.55 -16.1 1.65 -15.9 1.75 -15.75 1.85 -15.5 1.9" fill="#d1d0a5" fill-opacity="0.3019608" fill-rule="evenodd" stroke="none"/>
    <path d="M-12.15 0.9 L-12.05 0.9 -12.0 0.9 -11.9 0.95 -11.8 1.0 -11.65 1.0 -11.45 1.05 -11.3 1.1 -11.05 1.15 -9.75 1.95 -8.55 2.9 -7.8 3.5 -6.95 4.4 -6.0 5.3 -5.05 6.3 -4.95 6.35 -4.4 6.65 -4.1 6.85 -4.0 6.9 -3.4 7.35 -3.05 7.7 -2.8 8.05 -2.7 8.25 -2.7 8.35 -2.65 8.4 -2.6 8.5 -2.5 8.6 -2.45 8.7 -2.4 8.8 -2.4 8.9 -2.35 9.0 -2.3 9.1 -2.25 9.15 -2.25 9.25 -2.2 9.35 -2.2 9.45 -2.15 9.55 -2.15 9.65 -2.1 9.75 -2.1 9.85 -2.1 9.9 -2.05 10.0 -2.0 10.1 -1.85 10.2 -1.7 10.3 -1.6 10.35 -1.55 10.45 -1.4 10.55 -1.35 10.6 -1.3 10.7 -1.2 10.8 -1.15 10.9 -1.15 11.0 -1.1 11.1 -1.15 11.2 -1.15 11.3 -1.2 11.35 -1.25 11.45 -1.3 11.55 -1.35 11.65 -1.5 11.75 -1.6 11.85 -1.7 11.9 -1.9 11.9 -2.15 11.9 -2.25 12.0 -2.4 12.05 -2.55 12.15 -2.75 12.2 -3.05 12.15 -3.15 12.15 -3.3 12.1 -3.5 12.05 -3.65 11.95 -3.75 11.85 -4.35 11.35 -4.8 10.85 -5.25 10.45 -5.4 10.25 -5.6 10.0 -5.85 9.8 -6.15 9.5 -6.4 9.3 -6.4 9.2 -6.45 9.1 -6.45 9.0 -6.5 8.9 -6.5 8.8 -6.55 8.7 -6.55 8.6 -6.5 8.55 -6.5 8.45 -6.45 8.35 -6.35 8.25 -6.25 8.15 -6.1 8.0 -5.8 7.95 -5.7 7.95 -5.45 7.95 Q-6.15 6.8 -7.15 5.9 L-8.8 4.3 -11.3 1.95 -11.55 1.65 -11.7 1.55 -11.85 1.5 -12.0 1.4 -12.1 1.3 -12.15 1.25 -12.35 1.15 -12.35 1.05 -12.3 1.0 -12.2 0.95 -12.15 0.9" fill="#d1d0a5" fill-opacity="0.3019608" fill-rule="evenodd" stroke="none"/>
    <path d="M18.35 -3.0 L18.6 -2.95 18.8 -2.85 18.85 -2.75 18.95 -2.65 18.95 -2.55 19.05 -2.45 19.1 -2.35 19.05 -2.3 19.05 -2.2 19.05 -2.1 19.0 -2.0 19.0 -1.9 18.9 -1.8 18.85 -1.7 18.75 -1.6 18.6 -1.5 18.45 -1.45 18.45 -1.35 18.5 -1.25 18.55 -1.15 18.55 -1.05 18.6 -0.95 18.6 -0.85 18.6 -0.7 18.6 -0.3 18.65 0.05 18.65 0.15 18.6 0.25 18.6 0.35 18.55 0.45 18.5 0.55 18.45 0.65 18.3 0.8 18.2 1.05 18.05 1.15 17.9 1.25 17.85 1.35 17.8 1.45 17.7 1.5 17.55 1.7 17.4 1.8 17.25 1.85 17.05 1.95 16.85 1.9 16.8 1.9 16.65 1.85 16.55 1.75 16.45 1.65 16.4 1.55 16.3 1.5 16.3 1.4 16.3 1.3 16.3 1.2 16.3 1.1 16.15 1.1 15.2 1.6 15.05 1.65 14.8 1.75 13.8 2.0 13.55 2.05 13.25 2.0 13.1 1.9 13.0 1.8 12.9 1.7 12.85 1.65 12.85 1.55 12.85 1.45 12.8 1.35 12.85 1.25 12.85 1.15 12.8 1.05 12.8 1.0 12.85 0.9 13.0 0.6 13.65 -0.05 13.9 -0.2 13.9 -0.3 13.9 -0.4 13.9 -0.5 13.9 -0.6 13.95 -0.65 14.0 -0.75 14.1 -0.85 14.2 -0.9 Q15.45 -1.3 16.6 -2.05 L18.05 -2.95 18.15 -2.95 18.35 -3.0" fill="#d1d0a5" fill-opacity="0.3019608" fill-rule="evenodd" stroke="none"/>
    <path d="M-4.8 -8.95 L-1.95 -9.1 -1.7 -9.05 -1.5 -8.95 -1.3 -8.9 -1.1 -8.8 -0.95 -8.7 -0.8 -8.6 -0.7 -8.5 -0.7 -8.45 -0.6 -8.35 -0.6 -8.25 -0.65 -8.15 -0.7 -8.05 -0.8 -7.95 -0.95 -7.85 -1.15 -7.75 -1.2 -7.7 -1.3 -7.7 -1.45 -7.6 -1.65 -7.55 -1.75 -7.55 -1.95 -7.6 -2.15 -7.5 -2.4 -7.45 -7.15 -7.1 -7.4 -7.05 -16.15 -6.65 -17.65 -6.75 -17.8 -6.85 -17.85 -6.95 -17.9 -7.05 -17.95 -7.15 -17.95 -7.25 -17.95 -7.35 -17.9 -7.45 -17.85 -7.5 -17.85 -7.6 -17.85 -7.7 -17.8 -7.8 -17.75 -7.9 -17.65 -8.0 -17.5 -8.1 -17.2 -8.15 -5.2 -8.85 -5.0 -8.9 -4.8 -8.95" fill="#663333" fill-opacity="0.101960786" fill-rule="evenodd" stroke="none"/>
    <path d="M17.55 -9.35 L17.7 -9.25 17.85 -9.2 17.9 -9.1 17.95 -9.05 17.95 -8.95 18.0 -8.85 18.0 -8.75 17.95 -8.65 17.95 -8.55 17.85 -8.45 17.8 -8.35 17.7 -8.25 17.6 -8.15 17.35 -8.15 11.15 -7.9 11.05 -7.9 3.6 -7.6 2.6 -7.6 1.85 -7.7 1.7 -7.8 1.65 -7.9 1.6 -8.0 1.6 -8.1 1.6 -8.2 1.6 -8.25 1.6 -8.35 1.6 -8.45 1.55 -8.55 1.55 -8.65 1.6 -8.85 1.65 -8.95 1.75 -9.0 1.9 -9.2 2.0 -9.3 2.15 -9.45 2.45 -9.5 2.65 -9.5 2.75 -9.45 2.95 -9.4 3.1 -9.3 3.25 -9.25 11.25 -9.35 11.45 -9.35 Q14.35 -9.2 17.3 -9.4 L17.55 -9.35" fill="#663333" fill-opacity="0.101960786" fill-rule="evenodd" stroke="none"/>
    <path d="M2.45 -9.05 L2.65 -9.0 2.75 -8.9 2.8 -8.8 2.85 -8.7 2.85 -8.6 2.9 -8.5 2.85 -8.4 2.85 -8.35 2.8 -8.25 2.9 -7.0 3.0 -5.5 3.05 -4.4 3.25 -4.0 3.35 -3.45 3.4 -2.95 3.45 -2.85 3.5 -2.75 3.55 -2.65 3.55 -2.55 3.6 -2.45 3.65 -1.65 3.75 -0.6 3.75 0.25 3.8 0.35 3.85 0.45 3.9 0.55 3.9 0.6 3.95 0.7 3.95 0.8 4.0 0.9 4.05 1.0 4.1 1.1 4.25 1.2 4.4 1.3 4.5 1.35 4.9 1.5 5.4 1.7 5.5 1.8 6.0 2.05 6.15 2.1 6.4 2.4 6.95 2.85 7.1 3.1 7.2 3.2 7.35 3.4 7.45 3.55 7.6 3.65 7.75 3.75 7.95 3.95 8.1 4.15 8.15 4.2 8.15 4.3 8.2 4.4 8.2 4.5 8.15 4.6 8.15 4.7 8.05 4.9 8.0 4.95 7.9 5.05 7.8 5.15 7.6 5.15 7.4 5.15 7.15 5.1 7.0 5.0 6.9 4.95 6.75 4.85 6.5 4.65 6.4 4.45 6.3 4.35 6.2 4.25 6.1 4.1 5.8 3.75 5.55 3.5 5.4 3.4 5.1 3.2 4.95 3.1 4.85 3.0 4.8 3.0 4.7 2.95 4.6 2.95 4.3 2.85 4.15 2.8 3.85 2.6 3.75 2.5 3.55 2.45 3.4 2.35 3.3 2.25 3.1 2.1 2.9 1.8 2.85 1.7 2.8 1.6 2.75 1.5 2.7 1.4 2.65 1.35 2.6 1.25 2.6 1.15 2.6 1.05 2.6 0.95 2.55 0.85 2.5 0.75 2.5 0.65 2.45 -0.15 2.45 -1.3 2.35 -2.25 2.35 -2.3 2.3 -2.35 2.25 -2.65 2.2 -3.1 2.1 -3.6 2.1 -3.7 Q1.85 -4.45 1.85 -5.3 L1.9 -7.15 1.95 -8.45 1.9 -8.55 2.0 -8.65 2.05 -8.8 2.1 -8.9 2.25 -9.0 2.45 -9.05" fill="#663333" fill-opacity="0.101960786" fill-rule="evenodd" stroke="none"/>
    <path d="M2.25 3.05 L2.3 3.15 2.35 3.2 2.35 3.3 2.45 3.4 2.6 3.45 2.65 3.55 2.7 3.65 2.8 3.75 3.1 3.9 3.15 4.0 3.25 4.1 3.3 4.2 3.35 4.3 3.75 4.55 4.45 5.0 4.65 5.2 4.8 5.3 4.9 5.35 5.1 5.35 5.35 5.4 5.55 5.5 5.6 5.6 5.7 5.65 5.75 5.75 5.8 5.85 5.8 5.95 5.85 6.05 5.85 6.15 5.9 6.25 5.95 6.3 6.0 6.4 6.1 6.55 6.15 6.65 6.25 6.75 6.3 6.85 6.35 6.95 6.35 7.0 6.4 7.1 6.4 7.2 6.4 7.3 6.4 7.4 6.4 7.5 6.35 7.6 6.3 7.7 6.25 7.75 6.2 7.85 6.05 8.0 6.0 8.05 5.9 8.1 5.7 8.15 5.45 8.15 5.25 8.1 5.05 8.05 4.9 8.05 4.95 7.95 5.0 7.85 4.95 7.75 4.9 7.65 4.9 7.55 4.85 7.45 4.8 7.35 4.75 7.3 4.65 7.2 4.55 7.1 4.5 7.0 4.5 6.9 4.45 6.8 4.45 6.7 4.35 6.6 4.1 6.45 3.7 6.2 3.25 5.9 3.15 5.85 3.05 5.75 2.85 5.55 2.45 5.3 2.4 5.25 2.3 5.15 2.3 5.05 2.15 4.95 2.1 4.85 1.9 4.75 1.85 4.65 1.75 4.55 1.7 4.5 1.55 4.5 0.55 5.8 -0.55 7.0 -1.45 8.3 -1.5 8.4 -1.6 8.5 -1.65 8.6 -1.7 8.75 -1.85 8.8 -1.95 8.9 -2.15 8.9 -2.45 8.85 -2.55 8.75 -2.65 8.65 -2.7 8.6 -2.8 8.5 -2.8 8.4 -2.85 8.3 -2.85 8.2 -2.8 8.0 -2.8 7.85 -1.4 6.1 -0.4 4.75 1.1 3.0 1.3 2.9 1.6 2.8 1.75 2.8 2.0 2.85 2.15 2.95 2.25 3.05" fill="#663333" fill-opacity="0.101960786" fill-rule="evenodd" stroke="none"/>
    <path d="M17.05 -8.8 L17.2 -8.7 17.25 -8.6 17.3 -8.5 17.35 -8.4 17.35 -8.3 17.35 -8.25 17.35 -8.15 17.4 -8.05 17.55 -7.95 17.6 -7.85 17.65 -7.75 17.65 -7.65 17.7 -7.55 17.75 -7.4 17.85 -7.25 17.85 -7.15 17.85 -7.05 17.9 -6.95 18.0 -6.1 18.05 -5.1 18.15 -3.95 18.2 -3.85 18.25 -3.8 18.3 -3.7 18.35 -3.6 18.45 -3.5 18.45 -3.4 18.45 -3.3 18.45 -3.2 18.4 -3.1 18.35 -3.05 18.2 -2.85 18.1 -2.8 18.05 -2.75 17.85 -2.65 17.6 -2.75 17.45 -2.8 17.35 -2.9 17.25 -3.0 17.1 -3.2 17.05 -3.3 16.95 -4.4 16.85 -5.8 16.75 -6.95 16.75 -7.05 16.65 -7.2 16.6 -7.35 16.55 -7.55 16.5 -7.65 16.4 -7.75 16.4 -7.85 16.4 -7.95 16.35 -8.1 16.35 -8.3 16.35 -8.4 16.4 -8.5 16.45 -8.6 16.5 -8.7 16.6 -8.75 16.65 -8.75 16.85 -8.85 17.05 -8.8" fill="#663333" fill-opacity="0.101960786" fill-rule="evenodd" stroke="none"/>
    <path d="M4.95 5.7 L5.2 5.75 5.4 5.85 5.5 5.95 5.6 6.05 5.65 6.15 5.7 6.25 5.7 6.3 5.75 6.4 5.8 6.5 5.85 6.6 5.9 6.7 5.95 6.8 5.95 6.9 6.0 7.0 6.0 7.05 6.05 7.15 6.05 7.25 6.05 7.35 6.05 7.55 6.0 7.65 6.0 7.75 5.95 7.8 5.95 7.9 5.9 8.0 5.85 8.1 5.8 8.2 5.8 8.3 5.7 8.5 5.65 8.6 5.65 8.65 5.6 8.75 5.6 8.85 5.55 8.95 5.5 9.05 5.45 9.15 5.4 9.25 5.35 9.3 5.35 9.4 5.35 9.5 5.35 9.6 5.3 9.7 5.3 9.8 5.25 10.0 5.2 10.1 5.15 10.15 5.1 10.3 5.05 10.4 5.05 10.5 5.1 10.6 5.05 10.7 5.05 10.8 4.95 10.85 4.9 10.95 4.85 11.05 4.7 11.15 4.55 11.25 4.3 11.35 4.15 11.45 3.85 11.55 3.5 11.6 3.1 11.8 2.75 11.9 2.5 11.95 2.2 11.9 2.1 11.8 1.75 11.9 0.95 11.95 0.75 12.05 0.5 12.15 0.2 12.1 0.05 12.0 -0.05 11.9 -0.2 11.8 -0.25 11.75 -0.25 11.65 -0.3 11.55 -0.35 11.45 -0.7 11.4 -0.8 11.35 -0.85 11.3 -1.1 11.25 -1.25 11.15 -1.35 11.05 -1.45 10.95 -1.5 10.85 -1.5 10.8 -1.55 10.7 -1.6 10.6 -1.55 10.5 -1.55 10.4 -1.6 10.3 -1.65 10.25 -1.75 10.15 -1.8 10.1 -1.9 9.9 -1.9 9.8 -1.95 9.7 -1.95 9.6 -1.95 9.5 -1.95 9.4 -1.9 9.35 -1.85 9.25 -1.8 9.15 -1.65 9.0 -1.6 8.9 -1.6 8.8 -1.55 8.7 -1.45 8.6 -1.35 8.55 -1.25 8.45 0.6 8.2 0.75 8.1 1.15 7.65 1.8 6.85 2.3 6.45 2.55 6.4 3.45 6.25 3.6 6.2 3.9 6.1 4.1 6.1 4.25 6.1 4.3 6.0 4.4 5.9 4.55 5.8 4.85 5.75 4.95 5.7" fill="#663333" fill-opacity="0.101960786" fill-rule="evenodd" stroke="none"/>
    <path d="M2.85 8.95 L3.1 9.0 3.3 9.1 3.45 9.2 3.55 9.3 3.6 9.4 3.75 9.5 3.75 9.6 3.8 9.65 3.85 9.75 3.9 9.8 4.1 9.7 4.4 9.65 4.65 9.7 4.85 9.8 4.9 9.9 5.0 10.0 5.0 10.1 5.05 10.2 5.1 10.3 5.05 10.35 5.05 10.45 5.05 10.55 5.05 10.65 5.0 10.75 4.95 10.85 4.9 10.95 4.8 11.05 4.7 11.1 4.45 11.2 4.35 11.3 4.25 11.4 4.2 11.5 4.15 11.6 4.1 11.7 4.1 11.8 4.0 11.9 3.95 12.0 3.9 12.1 3.75 12.2 3.6 12.25 3.4 12.3 3.1 12.25 2.95 12.2 2.85 12.1 2.75 12.0 2.7 11.9 2.7 11.8 2.6 11.7 2.55 11.65 2.35 11.7 2.15 11.75 0.6 11.8 0.25 11.75 0.15 11.8 0.1 11.85 -0.1 11.9 -0.45 11.8 -0.6 11.8 -0.7 11.7 -0.75 11.6 -0.8 11.5 -0.85 11.4 -0.85 11.3 -0.85 11.2 -0.85 11.1 -0.8 11.05 -0.8 10.95 -0.75 10.85 -0.75 10.75 -0.55 10.55 -0.25 10.25 0.05 9.95 0.25 9.85 0.4 9.75 0.7 9.5 0.95 9.35 2.0 9.15 2.6 9.0 2.85 8.95" fill="#663333" fill-opacity="0.101960786" fill-rule="evenodd" stroke="none"/>
    <path d="M17.05 -9.4 L17.25 -9.3 17.3 -9.2 17.45 -9.15 17.5 -9.05 17.55 -8.95 17.55 -8.85 17.55 -8.75 17.55 -8.65 17.55 -8.55 17.5 -8.5 17.45 -8.4 17.35 -8.3 17.3 -8.2 17.1 -8.1 17.2 -8.0 17.35 -7.9 17.4 -7.8 17.45 -7.75 17.5 -7.65 17.55 -7.55 17.6 -7.45 18.0 -6.3 18.25 -4.85 18.25 -3.45 18.2 -3.35 18.15 -3.25 18.1 -3.2 18.05 -3.1 17.9 -2.95 17.8 -2.85 17.7 -2.75 17.6 -2.65 17.45 -2.55 17.3 -2.5 17.25 -2.4 17.2 -2.4 17.1 -2.35 16.6 -2.25 15.9 -2.05 15.85 -1.95 15.75 -1.8 15.65 -1.7 15.6 -1.65 15.5 -1.65 15.3 -1.55 15.15 -1.45 14.7 -1.1 11.65 1.05 10.0 2.35 8.35 3.5 8.35 3.6 8.3 3.7 8.2 3.85 7.9 4.05 7.6 4.2 7.5 4.2 7.3 4.25 7.05 4.3 6.75 4.25 6.6 4.15 6.5 4.05 6.45 3.95 6.4 3.85 6.4 3.75 6.35 3.7 6.05 3.6 5.85 3.55 5.8 3.45 5.7 3.35 5.65 3.25 5.6 3.2 5.3 3.15 5.1 3.05 5.05 2.95 4.95 2.85 4.9 2.75 4.85 2.65 4.8 2.55 4.8 2.5 4.8 2.4 4.8 2.3 4.75 2.25 4.65 2.15 4.6 2.05 4.55 1.95 4.55 1.85 4.55 1.8 4.55 1.7 4.55 1.6 4.5 1.4 4.5 1.3 4.6 1.2 4.65 1.15 4.75 1.0 4.85 0.9 5.0 0.7 5.2 0.6 5.35 0.5 5.45 0.4 5.65 0.3 5.8 0.2 5.95 0.1 6.15 0.05 6.35 0.0 7.0 -0.1 7.05 -0.2 7.15 -0.3 7.4 -0.7 7.8 -1.35 7.95 -1.6 8.05 -1.75 8.1 -1.85 8.2 -1.95 8.3 -2.05 8.5 -2.25 8.55 -2.3 8.65 -2.4 9.3 -3.0 10.25 -3.65 10.2 -3.75 10.15 -3.85 10.05 -3.9 10.05 -3.95 10.05 -4.05 10.0 -4.35 10.0 -4.9 10.05 -5.35 10.05 -5.6 10.1 -5.7 10.15 -5.8 10.2 -5.9 10.2 -6.0 10.2 -6.1 10.2 -6.2 10.25 -6.25 10.3 -6.35 10.4 -6.45 10.45 -6.55 10.45 -6.65 10.5 -6.75 10.5 -6.85 10.5 -6.9 10.55 -7.0 10.55 -7.1 10.6 -7.2 10.6 -7.3 10.55 -7.4 10.55 -7.5 10.5 -7.6 10.45 -7.7 10.35 -7.75 10.2 -7.85 10.05 -7.95 10.0 -8.05 9.95 -8.15 9.9 -8.2 9.9 -8.3 9.85 -8.4 9.85 -8.45 9.9 -8.55 9.9 -8.65 9.95 -8.8 9.95 -8.9 10.05 -9.0 10.2 -9.1 10.35 -9.15 10.55 -9.15 10.55 -9.2 13.95 -9.35 16.8 -9.5 17.05 -9.4" fill="#663333" fill-opacity="0.101960786" fill-rule="evenodd" stroke="none"/>
    <path d="M9.15 -4.45 L9.4 -4.4 9.75 -4.2 10.15 -3.85 10.65 -3.4 10.85 -3.2 11.05 -3.1 11.1 -3.0 11.2 -2.95 11.25 -2.85 11.45 -2.8 11.6 -2.8 12.3 -3.05 13.25 -3.35 14.2 -3.5 14.4 -3.45 14.55 -3.4 14.75 -3.4 14.9 -3.3 15.05 -3.2 15.35 -3.05 15.55 -3.0 15.7 -2.95 15.85 -2.9 15.95 -2.8 16.0 -2.7 16.05 -2.6 16.1 -2.5 16.1 -2.45 16.15 -2.35 16.15 -2.25 16.15 -2.15 16.1 -2.05 16.1 -1.95 16.0 -1.85 15.95 -1.75 15.85 -1.7 15.75 -1.55 15.65 -1.45 14.45 -0.9 12.65 0.1 12.45 0.25 12.3 0.35 12.25 0.45 12.2 0.55 12.1 0.65 12.0 0.75 11.9 0.85 10.9 1.5 9.15 2.6 8.8 2.75 8.7 2.85 8.6 2.95 8.6 3.05 8.6 3.15 8.6 3.25 8.6 3.35 8.6 3.4 8.6 3.5 8.65 3.6 8.6 3.7 8.55 3.8 8.5 3.9 8.4 4.0 8.25 4.05 8.1 4.2 7.85 4.2 7.75 4.3 7.65 4.4 7.6 4.4 7.5 4.45 7.15 4.45 6.75 4.45 6.65 4.35 6.55 4.25 6.45 4.15 6.4 4.1 6.4 4.05 5.9 4.05 5.5 4.0 5.35 3.9 5.25 3.8 5.1 3.75 4.9 3.7 4.7 3.7 4.55 3.6 4.3 3.4 3.95 3.05 3.5 2.7 3.45 2.6 3.4 2.5 3.4 2.4 3.35 2.35 3.3 2.25 3.2 2.15 3.1 2.05 3.05 1.95 3.05 1.85 3.0 1.75 2.95 1.7 2.9 1.6 2.75 1.5 2.75 1.4 2.7 1.3 2.7 1.2 2.7 1.1 2.65 1.0 2.6 0.9 2.6 0.85 2.6 0.75 2.6 0.65 2.6 0.55 2.6 0.45 2.6 0.35 2.65 0.25 2.75 0.2 2.8 0.1 2.7 0.1 2.45 0.05 2.35 0.0 2.25 -0.1 2.2 -0.2 2.2 -0.3 2.2 -0.35 2.2 -0.45 2.2 -0.55 2.2 -0.65 2.25 -0.75 2.35 -0.85 2.4 -1.0 2.35 -1.05 2.3 -1.1 2.3 -1.2 2.3 -1.3 2.3 -1.4 2.3 -1.6 2.25 -1.8 2.3 -1.85 2.3 -1.95 2.35 -2.1 2.4 -2.2 2.45 -2.3 2.55 -2.4 2.75 -2.55 2.95 -2.75 3.05 -2.85 3.05 -2.95 3.25 -3.05 3.55 -3.15 4.05 -3.15 4.3 -3.1 4.5 -3.0 4.55 -3.0 4.8 -2.95 4.95 -2.9 5.1 -2.85 5.35 -2.85 5.6 -2.95 5.8 -3.1 6.0 -3.2 6.0 -3.3 6.05 -3.4 6.1 -3.45 6.35 -3.65 6.5 -3.75 6.55 -3.85 6.75 -3.95 7.05 -4.05 8.1 -4.15 8.3 -4.25 8.45 -4.35 8.55 -4.35 8.75 -4.35 8.75 -4.4 9.15 -4.45" fill="#663333" fill-opacity="0.101960786" fill-rule="evenodd" stroke="none"/>
    <path d="M17.0 -7.75 L17.1 -7.55 17.15 -7.3 17.15 -7.0 17.2 -6.75 17.2 -6.55 17.15 -6.45 17.15 -6.35 17.1 -6.25 17.05 -6.15 16.95 -6.05 16.85 -6.0 16.7 -5.85 16.65 -5.75 16.65 -5.65 16.5 -5.55 16.35 -5.5 13.9 -5.6 13.75 -5.7 13.65 -5.8 13.55 -5.9 13.55 -6.0 13.55 -6.1 13.55 -6.15 13.45 -6.25 13.4 -6.35 13.4 -6.45 13.35 -6.7 13.3 -6.85 13.3 -7.05 13.35 -7.4 13.55 -7.65 13.75 -7.85 13.85 -8.05 Q14.95 -8.65 16.15 -8.5 L16.4 -8.45 16.5 -8.35 16.5 -8.25 16.55 -8.2 16.85 -7.95 17.0 -7.75" fill="#663333" fill-opacity="0.101960786" fill-rule="evenodd" stroke="none"/>
    <path d="M-9.85 0.95 L-9.65 0.9 -9.45 0.95 -9.3 1.05 -9.2 1.05 -9.0 1.15 -8.85 1.2 -8.65 1.25 -8.5 1.35 -8.4 1.35 -8.3 1.25 -7.3 0.8 -6.0 0.35 -5.85 0.25 -5.75 0.15 -5.3 0.0 -4.35 -0.25 -4.2 -0.35 -4.15 -0.45 -4.05 -0.55 -3.95 -0.65 -3.85 -0.75 -3.65 -0.8 -3.45 -0.85 Q-3.35 -0.85 -3.25 -0.95 L-3.1 -1.05 -2.9 -1.15 -2.85 -1.25 -2.75 -1.35 -2.7 -1.4 -2.65 -1.5 -2.5 -1.7 -2.45 -1.8 -2.4 -1.9 -2.4 -2.0 -2.35 -2.1 -2.3 -2.15 -2.3 -2.25 -2.25 -2.35 -2.2 -2.45 -2.15 -2.6 -2.1 -2.7 -2.0 -2.8 -1.95 -2.85 -1.85 -2.85 -1.75 -2.9 -1.55 -2.9 -1.55 -2.95 -1.35 -2.9 -1.2 -2.9 -0.95 -2.9 -0.75 -2.8 -0.6 -2.7 -0.55 -2.6 -0.5 -2.5 -0.45 -2.45 -0.45 -2.35 -0.4 -2.25 -0.4 -2.15 -0.4 -2.05 -0.4 -1.95 -0.4 -1.75 -0.4 -1.7 -0.3 -1.6 -0.25 -1.5 -0.2 -1.2 -0.2 -0.65 -0.15 0.1 -0.2 0.5 -0.2 0.55 -0.25 0.65 -0.3 0.75 -0.35 0.85 -0.55 1.05 -0.55 1.15 -0.6 1.25 -0.6 1.3 -0.65 1.4 -1.25 2.55 Q-2.05 3.6 -3.0 4.3 L-3.45 4.65 -3.55 4.75 -3.6 4.85 -3.65 4.95 -3.75 5.05 -3.85 5.1 -4.05 5.3 -4.1 5.35 -4.3 5.4 -4.4 5.4 -4.7 5.35 -4.9 5.25 -5.0 5.15 -5.1 5.05 -5.15 4.95 -5.2 4.85 -5.4 4.8 -5.5 4.75 -5.55 4.65 -5.65 4.55 -5.75 4.5 -5.95 4.55 -6.2 4.55 -6.5 4.55 -6.65 4.45 -6.75 4.35 -6.9 4.25 -6.95 4.15 -6.95 4.05 -7.0 3.95 -7.0 3.85 -7.0 3.8 -7.0 3.7 -7.05 3.6 -7.2 3.5 -7.35 3.45 -7.45 3.4 -7.55 3.45 -7.8 3.35 -8.05 3.15 -8.25 3.0 Q-8.5 2.75 -8.85 2.65 L-9.0 2.45 -9.15 2.3 -9.8 1.9 -9.95 1.85 -10.0 1.75 -10.05 1.7 -10.1 1.6 -10.1 1.5 -10.1 1.4 -10.05 1.3 -10.0 1.2 -9.95 1.1 -9.85 0.95" fill="#663333" fill-opacity="0.101960786" fill-rule="evenodd" stroke="none"/>
    <path d="M-6.25 -1.75 L-5.65 -1.7 -5.0 -1.65 -4.35 -1.4 -4.25 -1.3 -4.15 -1.2 -4.1 -1.1 -4.0 -1.0 -3.85 -0.85 -3.75 -0.65 -3.75 -0.55 -3.7 -0.45 -3.6 -0.35 -3.6 -0.3 -3.6 -0.2 -3.6 -0.1 -3.6 0.0 -3.65 0.1 -3.7 0.2 -3.7 0.3 -3.75 0.4 -3.8 0.45 -3.85 0.55 -3.95 0.65 -4.0 0.75 -4.05 0.95 -4.6 1.35 Q-5.65 2.0 -6.95 1.75 L-7.4 1.65 -7.55 1.55 -7.65 1.5 -7.75 1.4 -7.85 1.35 -8.0 1.15 -8.05 1.05 -8.1 0.95 -8.1 0.75 -8.1 0.65 -8.1 0.5 -8.15 0.2 -8.1 -0.1 -8.1 -0.15 -8.1 -0.25 -8.05 -0.35 -8.0 -0.45 -7.9 -0.55 -7.85 -0.65 -7.75 -0.75 -7.65 -0.85 -7.5 -0.95 -7.4 -1.05 -7.25 -1.15 -7.15 -1.25 -7.1 -1.35 -7.05 -1.45 -6.95 -1.55 -6.8 -1.6 -6.7 -1.6 -6.5 -1.7 -6.25 -1.7 -6.25 -1.75" fill="#663333" fill-opacity="0.101960786" fill-rule="evenodd" stroke="none"/>
    <path d="M-18.1 -1.2 L-18.05 -1.3 -17.9 -1.45 -17.7 -1.4 -17.55 -1.4 -16.9 -1.45 -16.4 -1.45 -15.85 -1.4 -15.45 -1.3 -15.25 -1.3 -15.0 -1.25 Q-14.25 -0.9 -13.45 -0.7 L-11.95 -0.3 Q-11.15 0.2 -10.3 0.4 L-9.0 0.9 -8.35 1.1 -8.1 1.3 -7.7 1.55 -7.15 1.8 -7.05 1.85 -6.95 1.95 -6.8 2.05 -6.55 2.35 -6.4 2.5 -6.25 2.55 -6.1 2.65 -6.0 2.75 -5.95 2.85 -5.85 2.95 -5.6 3.25 -5.45 3.4 -5.0 3.75 -4.4 4.3 -4.0 4.65 -3.8 4.9 -3.75 5.0 -3.75 5.1 -3.75 5.2 -3.7 5.3 -3.7 5.4 -3.75 5.45 -3.8 5.55 -3.8 5.65 -3.85 5.75 -4.0 5.85 -4.1 6.0 -4.3 6.05 -4.4 6.05 -4.7 6.0 -4.85 5.9 -4.95 5.8 -5.2 5.65 -5.45 5.4 -5.65 5.3 -5.7 5.2 -5.8 5.1 -5.9 5.0 -6.0 4.9 -6.1 4.8 -6.15 4.75 -6.25 4.65 -6.3 4.55 -6.35 4.45 -6.5 4.4 -6.6 4.3 -6.75 4.2 -6.8 4.1 -6.8 4.05 -6.85 3.95 -6.9 3.85 -6.95 3.75 -7.1 3.65 -7.2 3.55 Q-8.2 2.45 -9.6 1.9 L-13.0 0.6 -15.15 -0.2 -15.6 -0.45 -15.9 -0.5 -16.85 -0.6 -17.8 -0.8 -17.95 -0.85 -18.0 -0.95 -18.1 -1.05 -18.15 -1.15 -18.1 -1.2" fill="#663333" fill-opacity="0.101960786" fill-rule="evenodd" stroke="none"/>
    <path d="M-16.35 -9.35 L-16.25 -9.4 -16.2 -9.2 -16.15 -9.1 -16.1 -9.0 -16.05 -8.9 -16.05 -8.8 -16.0 -8.75 -16.05 -8.65 -16.1 -8.55 -16.15 -8.45 -16.15 -8.35 -16.2 -8.25 -16.2 -8.15 -16.25 -8.0 -16.3 -7.8 -16.3 -7.6 -16.3 -7.5 -16.3 -7.4 -16.65 -5.8 -16.8 -4.2 -17.05 -3.15 -17.0 -3.05 -17.0 -2.95 -17.0 -2.85 -17.05 -2.75 -17.1 -2.7 -17.1 -2.4 -17.1 -2.0 -17.05 -1.65 -17.05 -1.55 -17.1 -1.45 -17.15 -1.35 -17.2 -1.25 -17.3 -1.2 -17.4 -1.1 -17.55 -1.0 -17.75 -1.0 -18.05 -1.0 -18.2 -1.1 -18.3 -1.2 -18.4 -1.3 -18.45 -1.4 -18.5 -1.95 -18.5 -2.5 -18.5 -3.05 -18.5 -3.15 -18.45 -3.35 -18.45 -3.55 -18.4 -3.7 -18.25 -4.75 -18.15 -5.8 -18.05 -6.6 -18.05 -6.75 -18.05 -6.95 -18.05 -7.15 -17.9 -7.35 -17.75 -7.5 -17.7 -7.6 -17.7 -7.7 -17.7 -7.8 -17.65 -7.9 -17.6 -8.0 -17.5 -8.1 -17.5 -8.2 -17.45 -8.25 -17.45 -8.35 -17.4 -8.45 -17.35 -8.55 -17.25 -8.65 -17.2 -8.75 -17.05 -8.9 -16.95 -9.05 -16.85 -9.15 -16.75 -9.25 -16.35 -9.35" fill="#ffffff" fill-opacity="0.101960786" fill-rule="evenodd" stroke="none"/>
    <path d="M-18.75 -5.95 L-18.7 -6.05 -18.65 -6.15 -18.6 -6.25 -18.6 -6.35 -18.6 -6.45 -18.55 -6.55 -18.5 -6.65 -18.4 -6.7 -18.35 -6.8 -18.25 -6.9 -18.15 -7.0 -18.05 -7.05 -17.95 -7.1 -17.75 -7.1 -17.3 -7.25 -17.25 -7.35 -17.2 -7.45 -17.1 -7.55 -17.05 -7.7 -16.95 -7.75 -16.85 -7.8 -16.75 -7.8 -16.55 -7.85 -16.2 -7.85 -16.0 -7.8 -15.7 -7.75 -14.55 -7.65 -13.1 -7.0 Q-12.65 -6.75 -12.35 -6.4 L-12.2 -6.4 -12.1 -6.5 -12.0 -6.55 -11.9 -6.6 -11.8 -6.6 -11.6 -6.65 -11.25 -6.6 -10.65 -6.3 -10.35 -6.05 -10.15 -5.9 -10.05 -5.85 -9.85 -5.9 -9.65 -5.85 -9.5 -5.8 -9.3 -5.7 -9.2 -5.6 -9.1 -5.55 -9.05 -5.5 -9.05 -5.4 -9.0 -5.3 -8.95 -5.2 -8.95 -5.1 -8.95 -5.0 -8.95 -4.9 -8.95 -4.85 -9.0 -4.75 -9.05 -4.65 -9.0 -4.55 -9.0 -4.45 -9.0 -4.35 -9.0 -4.25 -9.0 -4.15 -9.0 -4.1 -9.05 -3.95 -9.1 -3.85 -9.15 -3.75 -9.2 -3.65 -9.25 -3.55 -9.35 -3.45 -9.45 -3.4 -9.5 -3.35 -9.6 -3.35 -9.95 -3.3 -10.15 -3.3 -10.35 -3.35 -12.05 -3.45 Q-12.45 -3.5 -12.75 -3.7 L-12.8 -3.8 -12.9 -3.7 -13.0 -3.55 -13.15 -3.35 -13.15 -3.25 -13.25 -3.05 -13.45 -2.9 -13.55 -2.75 -13.85 -2.55 -14.1 -2.35 -14.25 -2.25 -14.4 -2.2 -16.45 -2.05 -17.95 -2.55 -18.05 -2.6 -18.1 -2.7 -18.25 -2.8 -18.45 -2.9 -18.5 -2.95 -18.6 -3.05 -18.7 -3.15 -18.75 -3.25 -18.8 -3.35 -18.8 -3.45 -18.8 -3.55 -18.8 -3.6 -18.75 -3.7 -18.75 -3.8 -18.8 -3.9 -18.8 -4.0 -18.85 -4.2 -18.85 -4.45 -18.85 -4.75 -18.85 -5.05 -18.85 -5.3 -18.9 -5.6 -18.9 -5.7 -18.85 -5.8 -18.8 -5.9 -18.75 -5.95" fill="#ffffff" fill-opacity="0.101960786" fill-rule="evenodd" stroke="none"/>
    <path d="M-13.35 -5.5 L-13.2 -5.45 -13.05 -5.35 -12.9 -5.25 -12.8 -5.15 -12.75 -5.05 -12.7 -4.95 -12.65 -4.95 -12.3 -4.9 -12.1 -4.9 -11.95 -4.85 -11.8 -4.75 -11.7 -4.65 -11.6 -4.55 -11.5 -4.45 -11.45 -4.35 -11.4 -4.25 -11.4 -4.15 -11.4 -4.0 -11.4 -3.8 -11.4 -3.5 -11.4 -3.45 -11.35 -3.35 -11.35 -3.25 -11.4 -3.15 -11.45 -3.05 -11.5 -2.95 -11.55 -2.85 -11.6 -2.75 -11.7 -2.6 -11.75 -2.5 -11.75 -2.4 -11.8 -2.3 -11.9 -2.0 -12.2 -1.65 -12.4 -1.4 -12.65 -1.25 -12.8 -1.2 -13.5 -1.05 Q-13.95 -1.1 -14.3 -1.35 L-14.4 -1.4 -14.45 -1.5 -14.55 -1.55 -14.65 -1.65 -14.7 -1.75 -14.8 -1.85 -14.9 -1.95 -15.0 -2.05 -15.1 -2.1 -15.1 -2.2 -15.15 -2.3 -15.15 -2.4 -15.2 -2.5 -15.25 -2.6 -15.25 -2.7 -15.25 -2.8 -15.3 -2.85 -15.35 -2.95 -15.35 -3.05 -15.4 -3.25 -15.4 -3.55 -15.4 -3.8 -15.4 -3.9 -15.35 -4.1 -15.3 -4.3 -15.35 -4.35 -15.3 -4.45 -15.25 -4.55 -15.2 -4.65 -15.1 -4.75 -15.05 -4.95 -14.95 -5.05 -14.85 -5.1 -14.75 -5.2 -14.55 -5.35 -14.35 -5.4 -14.25 -5.45 -14.05 -5.45 -14.05 -5.5 -13.55 -5.5 -13.35 -5.5" fill="#ffffff" fill-opacity="0.101960786" fill-rule="evenodd" stroke="none"/>
    <path d="M17.05 -12.7 L17.15 -12.6 17.2 -12.5 17.3 -12.45 17.35 -12.4 17.35 -12.3 17.4 -12.2 17.45 -12.1 17.55 -12.0 17.6 -11.9 17.6 -11.8 17.65 -11.7 17.7 -11.65 17.75 -11.55 17.75 -11.45 17.8 -11.35 17.85 -11.25 17.9 -11.15 17.9 -11.05 17.9 -10.95 17.9 -10.9 17.95 -10.8 18.0 -10.7 18.05 -10.6 18.05 -10.5 18.1 -10.4 18.15 -10.35 18.15 -10.25 18.15 -10.1 18.15 -9.9 18.15 -9.6 18.25 -9.5 18.25 -9.45 18.3 -9.35 18.3 -9.25 18.35 -9.15 18.35 -9.05 18.35 -8.95 18.35 -8.75 18.4 -8.6 18.4 -8.3 18.4 -8.2 18.45 -8.1 18.5 -8.0 18.55 -7.95 18.75 -7.25 19.0 -6.2 19.15 -5.05 19.2 -5.0 19.2 -4.9 19.25 -4.8 19.25 -4.7 19.3 -4.5 19.4 -3.75 19.5 -2.75 19.5 -2.1 19.6 -2.05 19.7 -1.95 19.75 -1.9 19.8 -1.8 19.8 -1.7 19.75 -1.6 19.7 -1.5 19.65 -1.4 19.65 -1.3 19.7 -1.25 19.7 -1.15 19.75 -1.05 19.75 -0.95 19.75 -0.85 19.7 -0.75 19.65 -0.65 19.65 -0.55 19.55 -0.5 19.5 -0.4 19.45 -0.3 19.4 -0.1 19.4 0.0 19.35 0.1 19.35 0.25 19.35 0.55 19.3 0.65 19.25 0.85 19.1 1.25 18.95 1.65 18.9 1.75 18.85 1.8 18.8 1.9 18.75 2.0 18.7 2.1 18.7 2.2 18.65 2.3 18.2 3.05 17.35 4.1 16.95 4.65 10.2 9.3 Q8.45 10.4 7.1 11.95 L6.95 12.0 6.9 12.0 6.85 12.05 6.55 12.25 6.25 12.35 6.2 12.4 6.25 12.45 4.85 12.5 4.5 12.55 4.45 12.55 4.3 12.55 3.2 12.55 3.0 12.65 2.7 12.75 -2.05 12.85 -2.1 12.85 -2.15 12.95 -2.35 12.95 -2.45 12.9 -3.2 12.85 -3.35 12.85 -3.4 12.85 -3.7 12.8 -3.75 12.8 -3.75 12.75 -3.8 12.75 -3.95 12.65 -4.05 12.65 -4.15 12.6 -4.2 12.6 -4.25 12.55 -4.3 12.5 -4.45 12.4 -4.5 12.4 -4.65 12.3 -4.65 12.25 -4.6 12.2 -8.5 10.5 -11.75 8.8 -15.1 6.1 -17.7 3.6 -19.15 2.1 -19.2 2.0 -19.25 1.9 -19.3 1.8 -19.35 1.75 -19.4 1.75 -19.65 1.65 -19.75 1.55 -19.8 1.45 -19.85 1.4 -19.8 1.3 -19.8 1.2 -19.75 1.1 -19.7 1.05 -19.6 1.0 -19.5 1.0 -19.5 0.9 -19.5 0.8 -19.5 0.7 -19.6 0.6 -19.6 0.5 -19.65 0.45 -19.65 0.35 Q-19.6 0.05 -19.7 -0.25 L-19.75 -0.8 -19.75 -0.9 -19.75 -1.0 -19.75 -1.45 -19.7 -1.8 -19.7 -1.9 -19.7 -2.0 -19.65 -2.1 -19.6 -2.4 -19.6 -2.85 -19.55 -3.15 -19.55 -3.25 -19.55 -3.3 -19.5 -3.4 -19.5 -3.5 -19.55 -3.6 -19.5 -3.7 -19.45 -3.9 -19.4 -4.05 -19.4 -4.15 -19.3 -4.3 -19.3 -4.4 -19.3 -4.5 -19.3 -4.6 -19.2 -4.8 -19.2 -4.95 -19.2 -5.35 -19.15 -5.45 -19.15 -5.55 -19.1 -5.6 -19.1 -5.7 -19.05 -5.8 -19.0 -5.9 -18.9 -6.1 -18.85 -6.45 -18.75 -7.3 -18.75 -7.4 -18.85 -8.05 -18.9 -9.7 -18.85 -10.25 -18.8 -10.35 -18.8 -10.45 -18.7 -10.55 -18.65 -10.7 -18.6 -10.75 -18.5 -10.85 -18.4 -10.95 -18.3 -11.05 -18.2 -11.15 -18.05 -11.2 -17.9 -11.25 -17.75 -11.25 -17.75 -11.3 -17.15 -11.3 -16.4 -11.35 -16.1 -11.35 -8.9 -11.8 7.2 -12.6 15.95 -12.9 16.2 -12.9 16.35 -12.85 16.4 -12.9 16.55 -12.95 16.75 -12.9 16.95 -12.8 17.05 -12.7 M16.6 -12.15 L16.55 -12.15 16.5 -12.05 16.5 -11.95 16.35 -11.85 16.25 -11.8 -15.5 -10.5 -15.85 -10.45 -16.45 -10.45 -17.15 -10.5 -17.55 -10.45 -17.65 -10.35 -17.75 -10.3 -17.75 -10.2 -17.8 -10.1 -17.85 -10.0 -17.85 -9.8 -17.8 -9.55 -17.7 -8.65 -17.75 -8.55 -17.75 -8.3 -15.2 -8.5 -14.85 -8.55 -9.85 -8.85 -8.1 -9.0 -7.7 -9.05 -0.6 -9.35 -0.55 -9.3 -0.55 -9.25 -0.45 -9.3 -0.4 -9.25 -0.4 -8.8 -0.3 -8.75 -0.3 -8.7 -0.35 -8.7 -0.35 -8.6 -0.4 -8.5 -0.4 -8.4 -0.4 -8.3 -0.4 -8.2 -0.4 -8.15 -0.35 -8.1 -0.2 -5.6 -0.05 -3.05 0.15 -0.95 0.1 -0.95 0.1 -0.9 0.1 -0.6 0.1 -0.3 0.15 -0.05 0.1 0.0 0.05 0.05 0.0 0.2 0.0 0.4 -0.05 0.4 -0.05 0.7 0.05 1.05 0.0 1.3 0.0 1.35 -0.05 1.4 -0.05 1.45 -0.1 1.5 -0.2 1.55 -0.25 1.55 -0.25 1.6 -1.1 2.7 -1.55 3.15 -2.65 4.5 -2.95 4.75 -3.5 5.4 -4.0 5.95 -4.05 6.0 -4.15 6.2 -4.25 6.25 -4.4 6.4 -4.95 6.4 -5.1 6.2 -5.65 5.65 Q-6.45 4.65 -7.5 4.0 L-8.65 3.1 -10.55 2.1 -12.85 1.0 -16.0 -0.2 -17.85 -0.75 -17.85 -0.8 -17.9 -0.8 -18.05 -0.85 -18.2 -0.85 -18.3 -0.85 -18.35 -0.9 -18.5 -0.95 -18.55 -0.95 -18.6 -0.35 -18.55 0.4 -18.6 0.5 -18.65 0.6 -18.6 0.7 -18.6 0.8 -18.6 0.9 -18.65 0.95 -18.7 1.05 -18.7 1.1 -18.6 1.3 -18.45 1.5 -18.15 1.75 -18.05 1.85 -17.9 1.9 -16.4 3.45 -14.55 5.1 -13.5 5.9 -13.35 5.95 Q-10.95 8.05 -8.05 9.15 L-7.35 9.5 -7.3 9.45 -7.2 9.5 -7.1 9.55 -5.95 10.05 -5.4 10.4 -4.0 11.15 -3.35 11.25 -2.7 11.55 -2.6 11.65 -2.5 11.75 -2.4 11.85 -2.2 11.95 -2.15 12.0 -1.5 11.9 -1.45 11.9 -1.45 11.85 -1.4 11.8 -1.35 11.75 -1.3 11.7 -1.25 11.6 -1.2 11.6 -1.2 11.5 -1.2 11.4 -1.2 11.25 -1.25 11.2 -1.25 11.15 -1.3 11.05 -1.45 10.9 -1.55 10.8 -1.55 10.75 -1.6 10.65 -1.65 10.65 -1.7 10.6 -1.8 10.5 -1.85 10.45 -1.9 10.35 -1.9 10.3 -2.05 10.2 -2.1 10.15 -2.2 10.0 -2.25 9.9 -2.3 9.85 -3.15 8.7 -3.75 8.0 -3.7 7.9 -3.55 7.7 -3.5 7.55 -3.45 7.5 -3.45 7.4 -3.4 7.35 -3.4 7.3 -3.35 7.25 -3.3 7.2 -2.2 5.7 -0.95 4.2 -0.2 3.35 -0.15 3.3 -0.05 3.2 0.05 3.1 0.15 3.05 0.4 2.75 0.45 2.7 0.6 2.5 0.75 2.35 0.8 2.3 0.85 2.25 0.9 2.25 0.95 2.2 1.0 2.2 1.1 2.15 1.2 2.2 1.35 2.15 1.4 2.2 1.6 2.4 1.8 2.6 2.05 2.85 2.35 3.05 2.7 3.3 2.9 3.6 3.6 4.15 4.15 4.65 4.65 5.05 5.1 5.35 5.45 5.7 5.65 5.95 5.7 6.0 5.85 6.1 5.95 6.15 6.0 6.15 6.0 6.2 6.1 6.35 6.25 6.45 6.4 6.6 6.45 6.7 6.45 6.9 6.5 6.95 6.2 7.5 6.2 7.55 6.15 7.65 6.05 7.85 6.0 8.05 5.95 8.1 6.0 8.2 5.95 8.25 5.95 8.3 5.9 8.35 5.9 8.45 5.85 8.5 5.85 8.55 5.8 8.55 5.8 8.65 5.75 8.7 5.75 8.75 5.7 8.8 5.7 8.85 5.65 8.9 5.65 8.95 5.6 9.0 5.65 9.1 5.6 9.15 5.6 9.25 5.55 9.3 5.55 9.35 5.5 9.4 5.5 9.45 5.45 9.5 5.45 9.6 5.4 9.65 5.4 9.7 5.35 9.75 5.3 9.85 5.3 10.0 5.2 10.15 5.2 10.25 5.15 10.3 5.15 10.4 5.1 10.6 5.1 10.65 5.05 10.7 5.05 10.75 5.05 10.8 5.0 10.85 5.0 10.9 4.95 10.95 4.95 11.05 4.9 11.15 4.95 11.2 5.0 11.25 5.05 11.25 5.15 11.3 5.2 11.25 5.3 11.3 5.45 11.35 5.6 11.3 5.75 11.3 5.8 11.25 5.85 11.25 5.9 11.2 5.95 11.2 6.05 11.2 6.05 11.15 6.5 10.6 7.5 9.6 8.65 8.7 10.3 7.5 15.25 4.15 Q16.75 3.1 17.65 1.45 L17.7 1.35 17.75 1.3 17.8 1.2 17.9 1.0 18.05 0.55 18.2 0.3 18.2 0.2 18.2 0.1 18.25 -0.1 18.2 -0.25 18.25 -0.35 18.25 -0.45 18.3 -0.55 18.45 -0.85 18.5 -0.9 18.25 -1.2 18.2 -1.95 18.2 -2.45 17.5 -2.1 16.5 -1.6 15.85 -1.35 14.85 -0.7 14.0 -0.15 13.5 0.2 11.5 1.6 9.8 3.0 8.2 4.6 7.9 5.0 7.9 5.25 7.85 5.3 7.85 5.35 7.8 5.4 7.75 5.4 7.7 5.45 7.55 5.4 7.2 5.4 7.1 5.35 7.05 5.4 6.8 5.15 6.7 5.05 6.1 4.55 5.9 4.45 5.75 4.4 5.75 4.35 5.15 3.95 4.35 3.45 4.1 3.2 3.7 2.95 3.15 2.5 2.7 2.15 2.7 2.1 2.65 2.05 2.65 2.0 2.6 1.95 2.6 1.9 2.55 1.85 2.45 1.75 2.35 1.75 2.35 1.7 2.25 1.7 2.2 1.65 2.1 1.6 2.05 1.55 2.0 1.5 1.9 1.45 1.9 1.35 1.85 1.3 1.85 1.25 1.8 1.2 1.75 0.65 1.7 0.1 1.65 -0.35 1.65 -0.4 1.6 -0.4 1.6 -0.5 1.55 -3.0 1.5 -4.9 1.3 -7.45 1.25 -8.45 1.25 -8.7 1.3 -8.75 1.25 -8.75 1.2 -8.85 1.2 -8.95 1.25 -9.0 1.25 -9.05 1.3 -9.1 1.3 -9.25 1.4 -9.35 1.45 -9.35 1.45 -9.4 1.5 -9.4 1.5 -9.45 1.55 -9.5 1.65 -9.5 2.25 -9.55 3.1 -9.6 3.2 -9.55 4.25 -9.6 4.55 -9.5 9.8 -9.65 10.0 -9.65 16.7 -9.95 16.75 -9.95 16.85 -9.95 16.95 -9.95 17.15 -9.95 17.15 -10.25 17.15 -10.35 Q17.05 -10.35 17.05 -10.4 L17.0 -10.5 17.0 -10.6 16.95 -10.65 17.0 -10.75 17.0 -10.85 17.0 -10.95 17.0 -11.05 16.95 -11.15 16.9 -11.25 16.85 -11.4 16.8 -11.5 16.75 -11.6 16.75 -11.7 16.75 -11.8 16.75 -11.9 16.7 -12.0 16.6 -12.1 16.6 -12.15 M16.9 -9.2 L16.2 -9.1 5.85 -8.8 5.7 -8.8 4.55 -8.8 4.35 -8.85 2.15 -8.8 2.15 -8.75 2.15 -8.55 2.15 -8.45 2.15 -7.75 2.2 -6.95 2.25 -6.3 2.3 -6.2 2.4 -3.95 2.6 -1.6 2.6 0.75 2.6 0.8 2.55 0.85 2.65 0.9 2.8 0.9 2.85 0.95 2.95 1.0 3.0 1.05 3.05 1.05 3.05 1.1 3.1 1.15 3.25 1.25 3.5 1.35 3.75 1.55 3.8 1.6 3.9 1.65 4.0 1.7 4.15 1.85 4.35 2.05 4.65 2.15 5.05 2.4 5.3 2.7 5.3 2.75 5.45 2.8 5.5 2.9 5.65 3.0 5.75 3.1 5.85 3.1 5.85 3.15 5.9 3.15 6.0 3.2 6.1 3.25 6.15 3.25 6.25 3.3 6.3 3.35 6.35 3.4 6.35 3.45 6.4 3.45 6.4 3.5 6.45 3.55 6.55 3.6 6.6 3.65 6.65 3.7 6.8 3.85 6.8 3.9 6.85 3.9 6.9 3.95 6.9 4.0 6.95 4.05 7.05 4.0 7.1 4.05 7.15 4.1 7.15 4.15 7.2 4.15 7.2 4.2 7.25 4.3 7.3 4.3 7.35 4.35 7.35 4.4 8.8 2.85 11.0 1.1 Q12.5 -0.05 14.15 -1.0 L16.3 -2.15 16.2 -2.25 16.1 -2.3 16.0 -2.4 15.95 -2.4 15.85 -2.55 15.7 -2.65 15.6 -2.75 15.55 -2.75 15.5 -2.85 15.4 -2.95 15.3 -3.1 15.25 -3.2 15.2 -3.25 15.15 -3.3 15.15 -3.4 15.2 -3.4 15.15 -3.45 15.25 -3.45 15.3 -3.4 15.35 -3.4 15.7 -3.15 15.95 -2.85 16.15 -2.65 16.3 -2.55 16.35 -2.55 16.35 -2.5 16.4 -2.45 16.4 -2.35 16.45 -2.3 16.45 -2.25 17.05 -2.55 17.9 -2.9 18.15 -2.95 18.15 -3.0 18.1 -4.1 18.1 -4.2 18.1 -4.3 18.05 -4.4 18.0 -4.5 17.95 -4.6 17.9 -4.75 17.9 -5.15 17.85 -5.8 17.65 -6.45 17.55 -6.6 17.55 -6.7 17.55 -6.9 17.45 -7.15 17.45 -7.45 17.4 -7.55 17.4 -7.6 17.35 -7.7 17.25 -7.9 17.25 -8.3 17.25 -8.75 17.25 -9.05 17.2 -9.15 17.15 -9.2 17.15 -9.25 17.1 -9.25 16.95 -9.2 16.9 -9.2 M10.85 3.7 L12.7 2.2 14.65 0.9 15.5 0.35 15.6 0.35 16.05 0.0 16.1 0.0 16.1 -0.05 16.2 -0.1 16.3 -0.2 16.4 -0.25 16.5 -0.3 16.6 -0.3 16.7 -0.35 16.8 -0.3 16.9 -0.3 16.95 -0.25 16.95 -0.2 17.0 -0.15 17.05 0.0 17.0 0.05 17.0 0.2 16.95 0.25 16.95 0.3 16.85 0.45 16.75 0.55 16.75 0.6 16.7 0.65 16.65 0.7 16.55 0.8 16.5 1.0 16.3 1.25 16.3 1.45 16.25 1.5 16.25 1.55 16.2 1.6 16.15 1.65 16.1 1.65 16.1 1.7 16.0 1.7 15.75 2.05 15.35 2.45 15.2 2.75 14.85 3.0 14.25 3.4 14.15 3.45 14.2 3.5 14.15 3.55 14.05 3.6 14.0 3.6 13.95 3.65 13.85 3.65 13.75 3.7 13.6 3.7 13.5 3.65 13.5 3.6 13.45 3.55 13.4 3.5 13.35 3.45 13.35 3.35 13.4 3.3 13.4 3.25 13.45 3.2 13.45 3.15 13.5 3.1 13.6 3.05 13.75 2.85 13.9 2.75 12.85 3.35 11.95 3.85 11.9 3.9 10.45 5.15 9.35 6.5 9.25 6.6 9.35 6.55 9.55 6.4 10.2 5.95 10.9 5.5 11.05 5.45 11.25 5.3 11.55 5.05 11.65 5.05 11.75 5.0 11.85 4.95 12.0 4.8 12.05 4.75 12.15 4.7 12.25 4.75 12.25 4.8 12.3 4.85 12.3 4.9 12.2 5.0 12.0 5.2 11.95 5.3 11.95 5.4 11.9 5.45 11.9 5.5 11.6 5.7 11.3 5.9 11.3 5.95 11.0 6.2 10.7 6.4 9.25 7.4 8.65 7.7 8.1 8.15 8.05 8.2 7.95 8.25 7.9 8.3 7.8 8.4 7.7 8.5 7.55 8.55 7.45 8.55 7.35 8.55 7.25 8.6 7.15 8.55 7.15 8.5 7.1 8.45 7.1 8.25 7.15 8.2 7.15 8.1 7.2 8.0 7.3 7.85 7.3 7.75 7.35 7.7 7.35 7.65 7.95 6.8 8.4 6.35 8.5 6.35 8.55 6.3 8.65 6.15 8.65 6.1 8.7 6.1 8.7 5.95 8.9 5.75 9.05 5.5 9.1 5.45 9.1 5.4 9.2 5.35 9.25 5.3 9.35 5.15 9.45 5.05 9.5 5.05 10.7 3.85 10.85 3.7 M17.7 -4.4 L17.75 -4.35 17.8 -4.35 17.9 -4.35 17.95 -4.3 17.95 -4.1 17.9 -4.1 17.85 -4.05 17.8 -4.05 17.7 -4.0 17.65 -4.05 17.6 -4.1 17.55 -4.1 17.45 -4.1 16.9 -4.4 16.5 -4.7 16.15 -4.95 16.15 -5.0 16.1 -5.05 16.05 -5.2 16.1 -5.2 16.15 -5.25 16.15 -5.3 16.25 -5.3 16.35 -5.3 16.85 -5.05 17.3 -4.7 17.65 -4.45 17.7 -4.4 M16.75 -3.6 L16.8 -3.6 16.8 -3.55 16.9 -3.5 16.95 -3.45 17.0 -3.4 17.0 -3.35 16.95 -3.3 16.85 -3.3 16.75 -3.35 16.65 -3.3 16.5 -3.4 16.35 -3.45 16.25 -3.45 15.95 -3.6 15.65 -3.8 15.6 -3.85 15.55 -3.95 15.4 -4.05 15.25 -4.2 15.2 -4.25 15.15 -4.25 15.05 -4.3 15.05 -4.4 15.1 -4.45 15.15 -4.45 15.25 -4.5 15.35 -4.5 15.45 -4.45 15.95 -4.15 16.4 -3.85 Q16.55 -3.7 16.75 -3.7 L16.75 -3.6 M5.05 6.4 L5.0 6.35 4.95 6.3 4.95 6.25 4.9 6.25 4.9 6.2 3.4 4.95 2.3 3.95 1.3 2.85 1.25 2.95 1.25 3.0 1.3 2.95 1.3 3.05 1.25 3.15 1.25 3.2 -0.25 5.05 -1.75 6.7 -2.35 7.45 -2.45 7.55 -2.4 7.65 -2.45 7.65 -2.45 7.75 -2.5 7.75 -2.55 7.85 -2.65 7.95 -2.7 8.0 -2.0 8.95 -1.25 9.8 -1.2 9.85 -1.2 9.9 -1.15 9.95 -1.1 10.0 -1.05 10.05 -1.0 10.1 -0.85 10.3 -0.75 10.45 -0.65 10.6 -0.55 10.75 -0.45 10.85 -0.4 10.9 -0.35 11.05 -0.3 11.05 -0.3 11.25 -0.25 11.3 -0.25 11.4 -0.2 11.45 -0.2 11.55 -0.15 11.6 -0.15 11.65 -0.1 11.65 -0.1 11.75 -0.05 11.8 0.0 11.85 1.85 11.7 1.85 11.65 1.8 11.6 1.8 11.55 1.75 11.55 1.75 11.45 1.7 11.45 1.7 11.35 1.65 11.3 1.65 11.2 1.6 11.15 1.6 11.05 1.55 11.0 1.5 10.9 1.45 10.85 1.45 10.75 1.6 10.75 1.6 10.8 1.65 10.8 1.75 10.8 1.75 10.85 1.8 10.85 1.85 10.95 1.9 11.0 1.95 11.1 2.0 11.2 2.1 11.35 2.1 11.4 2.15 11.45 2.15 11.5 2.2 11.55 2.2 11.65 2.5 11.65 3.9 11.4 3.9 11.25 3.95 11.2 3.95 11.1 4.0 11.1 4.0 11.05 4.05 10.95 4.1 10.9 4.15 10.85 4.2 10.85 4.15 10.75 4.2 10.7 4.2 10.6 4.25 10.55 4.25 10.5 4.3 10.45 4.35 10.35 4.4 10.25 4.4 10.1 4.45 10.05 4.45 9.9 4.45 9.85 4.5 9.8 4.5 9.75 4.55 9.65 4.6 9.55 4.65 9.5 4.65 9.45 4.7 9.4 4.7 9.35 4.75 9.3 4.75 9.25 4.8 9.2 4.75 9.05 4.8 9.0 4.8 8.95 4.85 8.9 4.85 8.8 4.9 8.75 4.9 8.7 4.95 8.65 4.95 8.6 5.0 8.6 5.0 8.5 5.05 8.4 5.05 8.35 5.1 8.3 5.1 8.2 5.15 8.15 5.1 8.1 5.15 8.05 5.15 7.95 5.2 7.9 5.2 7.8 5.25 7.8 5.3 7.7 5.4 7.5 5.5 7.3 5.45 7.25 5.5 7.2 5.6 7.05 5.55 6.95 5.5 6.9 5.5 6.8 5.45 6.75 5.4 6.7 5.35 6.65 5.15 6.5 5.05 6.4 M2.25 8.35 L2.25 8.5 2.3 8.6 2.35 8.65 2.35 8.75 2.4 8.85 2.4 8.9 2.5 9.15 2.65 9.5 2.75 9.9 2.8 9.95 2.9 10.0 3.0 10.2 3.05 10.3 3.05 10.4 3.1 10.45 3.1 10.5 3.15 10.55 3.15 10.6 3.2 10.65 3.15 10.65 3.15 10.8 3.05 10.8 3.05 10.85 2.9 10.8 2.85 10.8 2.7 10.6 2.5 10.3 2.4 10.1 2.2 9.7 2.05 9.15 1.9 8.7 1.9 8.5 1.85 8.45 1.85 8.4 1.8 8.35 1.75 8.25 1.8 8.2 1.8 8.15 1.9 8.15 2.0 8.15 2.05 8.2 2.2 8.3 2.25 8.35 M3.5 9.7 L3.45 9.55 3.4 9.45 3.4 9.3 3.45 9.25 3.5 9.2 3.6 9.2 3.65 9.25 3.7 9.3 3.7 9.35 3.75 9.45 3.8 9.45 3.8 9.6 3.85 9.6 3.9 9.75 4.0 9.85 4.15 10.0 4.15 10.1 4.2 10.15 4.2 10.2 4.25 10.25 4.2 10.25 4.2 10.3 4.15 10.35 4.1 10.4 4.05 10.35 4.0 10.3 3.95 10.35 3.9 10.3 3.75 10.1 3.6 9.9 3.5 9.75 3.5 9.7 M-7.95 -8.3 L-8.2 -8.3 -15.0 -8.0 -15.15 -7.95 -17.65 -7.9 Q-17.5 -7.05 -17.7 -6.3 -17.7 -6.0 -17.85 -5.75 L-17.9 -5.65 -17.9 -5.55 -17.95 -5.45 -17.95 -5.35 -18.0 -5.25 -18.0 -5.1 -18.15 -4.35 -18.3 -3.7 -18.4 -2.6 -18.55 -1.35 -18.4 -1.3 -18.35 -1.25 -18.25 -1.25 -18.1 -1.3 -17.95 -1.25 -17.9 -1.25 -17.75 -1.25 -15.3 -0.55 -13.25 0.15 -12.25 0.6 Q-11.1 1.05 -9.95 1.6 L-8.1 2.75 -6.3 4.0 -4.7 5.55 -4.7 5.5 -4.65 5.45 -4.2 4.9 -3.65 4.4 -3.55 4.25 -3.5 4.2 -3.4 4.15 -3.3 4.05 -3.2 3.95 -2.0 2.55 -0.9 1.3 -0.85 1.25 -0.85 1.2 -0.8 1.15 -0.8 1.0 -0.75 0.95 -0.8 0.65 -0.8 0.45 -0.75 0.25 -0.75 0.1 -0.7 0.05 -0.65 0.0 -0.6 -0.1 -0.6 -0.2 -0.6 -0.45 -0.6 -0.7 -0.6 -0.9 -0.6 -0.95 -0.55 -1.0 -0.6 -1.05 -0.65 -3.55 -0.7 -6.1 -0.85 -8.05 -0.85 -8.15 -0.85 -8.25 -0.85 -8.35 -0.85 -8.4 -0.8 -8.5 -0.75 -8.65 -7.65 -8.35 -7.95 -8.3 M-15.75 1.5 L-15.6 1.45 -15.45 1.5 -15.4 1.55 -15.3 1.6 -12.35 2.65 -11.1 3.25 Q-9.7 3.85 -8.55 4.8 L-6.35 7.05 -4.9 9.0 -4.95 9.0 -4.9 9.05 -4.8 9.1 -4.75 9.15 -4.75 9.2 -4.7 9.2 -4.7 9.25 -4.65 9.3 -4.65 9.4 -4.6 9.45 -4.55 9.6 -4.6 9.65 -4.6 9.75 -4.65 9.8 -4.7 9.85 -4.8 9.85 -5.15 9.8 -5.3 9.8 -5.35 9.75 -5.4 9.75 -5.55 9.7 -5.65 9.65 -5.8 9.55 -5.9 9.5 -6.0 9.4 -6.05 9.35 -6.1 9.35 -6.15 9.3 -6.25 9.3 -6.35 9.25 -6.4 9.2 -6.4 9.15 -6.45 9.15 -6.55 9.1 -6.65 9.05 -6.65 8.95 -6.6 8.95 -6.6 8.9 -6.55 8.9 -6.5 8.85 -6.45 8.85 -6.35 8.85 -6.25 8.85 -6.2 8.85 -6.1 8.9 -6.05 8.9 -5.95 8.95 -5.85 9.05 -5.75 9.05 -5.7 9.05 -6.45 8.05 -7.6 6.7 Q-8.55 5.55 -9.75 4.75 L-11.7 3.65 -11.9 3.65 -12.05 3.6 -12.1 3.55 -12.3 3.55 -12.95 3.5 -13.0 3.45 -13.1 3.45 -13.05 3.5 -12.9 3.7 -12.85 3.75 -12.85 3.8 -12.7 3.85 -12.7 3.95 -12.5 4.15 -12.5 4.2 -12.45 4.25 -12.4 4.3 -12.35 4.3 -12.2 4.4 -12.15 4.45 -12.1 4.6 -12.3 4.85 -12.4 4.85 -12.55 4.8 -12.65 4.8 -12.75 4.75 -12.75 4.7 -13.05 4.55 -13.25 4.5 -13.5 4.4 -13.6 4.3 -13.65 4.2 -13.75 4.1 -13.85 4.0 -13.9 4.0 -13.95 3.95 -14.05 3.9 -14.15 3.85 -14.2 3.8 -14.3 3.75 -14.85 3.35 -15.25 3.0 -15.3 3.0 -15.4 2.9 -15.6 2.7 -15.75 2.6 -15.85 2.4 -15.95 2.35 -16.2 2.2 -16.2 2.15 -16.25 2.15 -16.35 2.1 -16.45 2.0 -16.5 1.9 -16.55 1.8 -16.55 1.75 -16.6 1.75 -16.6 1.6 -16.5 1.4 -16.4 1.35 -16.3 1.35 -16.15 1.35 -15.75 1.55 -15.75 1.5 M-11.2 5.4 L-11.15 5.55 -11.2 5.55 -11.2 5.6 -11.3 5.7 -11.4 5.7 -11.5 5.7 -11.6 5.7 -11.65 5.65 -11.8 5.55 -12.0 5.4 -12.0 5.35 -12.05 5.3 -12.1 5.2 -12.05 5.1 -11.95 5.0 -11.85 5.05 -11.75 5.05 -11.65 5.15 -11.6 5.2 -11.5 5.2 -11.4 5.25 -11.35 5.3 -11.25 5.35 -11.2 5.4" fill="#333333" fill-rule="evenodd" stroke="none"/>
  </g>
</svg>
