<?xml version="1.0" encoding="UTF-8" standalone="no"?>
<svg xmlns:xlink="http://www.w3.org/1999/xlink" height="9.5px" width="257.45px" xmlns="http://www.w3.org/2000/svg">
  <g transform="matrix(1.0, 0.0, 0.0, 1.0, 1.0, 1.0)">
    <path d="M255.45 7.5 L251.45 7.5 247.45 7.5 243.45 7.5 239.45 7.45 236.45 7.4 234.45 7.4 230.45 7.3 226.45 7.2 222.45 7.15 218.45 7.05 215.45 7.0 211.5 6.9 207.5 6.75 203.5 6.6 199.5 6.4 195.5 6.25 191.5 6.05 188.5 5.95 186.5 5.9 182.5 5.7 178.5 5.5 174.5 5.3 170.5 5.1 166.5 4.9 163.5 4.75 160.5 4.65 156.5 4.45 152.5 4.25 148.5 4.05 144.5 3.85 140.5 3.7 137.5 3.6 134.0 3.5 130.0 3.3 126.0 3.15 122.0 3.0 118.0 2.85 114.0 2.7 111.0 2.6 108.5 2.5 104.5 2.3 100.5 2.2 96.5 2.05 92.5 1.9 88.5 1.75 85.5 1.65 84.0 1.6 80.0 1.5 76.0 1.4 72.0 1.25 68.0 1.15 65.0 1.05 62.5 1.0 58.5 0.9 54.5 0.8 50.5 0.7 47.5 0.6 43.5 0.6 39.5 0.55 35.5 0.5 32.5 0.5 28.0 0.5 24.0 0.45 21.0 0.4 16.5 0.4 12.5 0.3 8.5 0.2 4.5 0.1 1.5 0.0 0.0 0.0" fill="none" stroke="#ffffff" stroke-linecap="round" stroke-linejoin="round" stroke-width="2.0"/>
  </g>
</svg>
