<?xml version="1.0" encoding="UTF-8" standalone="no"?>
<svg xmlns:xlink="http://www.w3.org/1999/xlink" height="24.5px" width="287.95px" xmlns="http://www.w3.org/2000/svg">
  <g transform="matrix(1.0, 0.0, 0.0, 1.0, 1.0, 1.0)">
    <path d="M285.95 0.0 L281.95 0.55 277.95 1.1 273.95 1.6 269.9 2.1 266.9 2.55 264.9 2.8 260.9 3.25 256.9 3.7 252.9 4.15 248.9 4.6 245.9 4.9 241.0 5.45 237.0 5.85 233.0 6.25 229.0 6.6 225.0 6.95 221.0 7.3 218.0 7.55 215.0 7.85 211.0 8.15 207.0 8.45 203.0 8.75 199.0 9.05 195.0 9.4 192.0 9.65 187.5 10.0 183.5 10.3 179.5 10.6 175.5 10.85 171.5 11.1 167.5 11.35 163.5 11.6 160.5 11.8 159.0 11.9 155.0 12.1 151.0 12.3 147.0 12.55 143.0 12.75 139.0 13.0 136.0 13.2 131.0 13.5 127.0 13.7 123.0 13.9 119.0 14.1 115.0 14.3 111.0 14.5 108.0 14.7 104.5 14.9 100.5 15.1 96.5 15.3 92.5 15.5 88.5 15.7 85.5 15.85 81.0 16.05 77.0 16.25 73.0 16.45 69.0 16.6 65.0 16.8 62.0 16.95 60.5 17.05 56.5 17.25 52.5 17.5 48.5 17.75 45.5 17.95 44.0 18.05 40.0 18.35 36.05 18.75 33.05 19.05 31.05 19.25 27.05 19.7 23.05 20.2 19.1 20.7 16.1 21.05 13.0 21.5 9.0 21.9 5.0 22.25 2.0 22.45 0.0 22.5" fill="none" stroke="#ffffff" stroke-linecap="round" stroke-linejoin="round" stroke-width="2.0"/>
  </g>
</svg>
