<?xml version="1.0" encoding="UTF-8" standalone="no"?>
<svg xmlns:xlink="http://www.w3.org/1999/xlink" height="33.0px" width="77.45px" xmlns="http://www.w3.org/2000/svg">
  <g transform="matrix(1.0, 0.0, 0.0, 1.0, 1.0, 1.0)">
    <path d="M73.4 3.75 L74.55 2.6 75.45 2.0 72.95 2.5 73.4 3.75 74.6 6.95 Q75.5 10.55 75.45 11.5 L75.45 14.5 74.95 14.45 73.45 14.0 71.85 13.5 68.9 12.75 65.2 11.7 62.35 13.8 60.35 15.1 57.75 16.55 54.25 18.35 50.65 20.0 47.0 21.45 43.65 22.55 40.8 23.4 37.0 24.55 33.25 25.7 29.45 26.8 25.35 27.85 22.45 28.6 18.55 29.65 15.05 30.4 12.05 30.75 8.0 31.0 4.0 30.9 0.0 30.5 M65.2 11.7 L62.4 10.6 60.0 9.5 60.95 8.95 63.65 7.45 64.85 6.8 68.5 5.15 71.05 3.65 72.0 3.05 Q72.5 2.8 72.95 2.5 L70.75 0.6 69.95 0.0 69.45 0.0 M73.4 3.75 L71.2 5.85 68.0 9.05 65.2 11.7" fill="none" stroke="#ffffff" stroke-linecap="round" stroke-linejoin="round" stroke-width="2.0"/>
  </g>
</svg>
