<?xml version="1.0" encoding="UTF-8" standalone="no"?>
<svg xmlns:xlink="http://www.w3.org/1999/xlink" height="52.4px" width="42.2px" xmlns="http://www.w3.org/2000/svg">
  <g transform="matrix(1.0, 0.0, 0.0, 1.0, 21.1, 26.2)">
    <path d="M-16.35 -7.9 L-16.3 -7.95 -16.2 -8.45 -16.3 -8.7 -16.4 -9.45 -16.45 -9.95 -16.2 -10.95 -15.95 -11.95 -15.7 -12.95 -15.3 -13.4 -14.95 -13.8 -14.2 -14.55 -13.45 -15.3 Q-12.8 -17.55 -11.5 -19.55 L-10.45 -20.8 -9.3 -21.45 -8.95 -21.55 -8.55 -21.55 -8.2 -21.55 -7.8 -21.45 -7.45 -21.3 -7.05 -21.05 -6.7 -20.8 -6.3 -21.4 -5.9 -21.9 -5.55 -22.3 Q-5.35 -22.35 -5.2 -22.45 L-4.8 -22.55 -4.45 -22.65 -4.05 -22.7 -3.7 -23.05 -3.3 -23.55 -2.95 -23.8 -2.55 -24.05 -2.2 -24.2 -1.8 -24.45 -1.45 -24.55 -1.05 -24.65 -0.7 -24.7 -0.3 -24.9 Q-0.1 -25.0 0.05 -25.05 L0.8 -25.15 1.95 -25.2 2.7 -25.2 3.05 -25.2 3.45 -25.2 4.2 -25.2 4.55 -25.2 4.95 -25.05 5.3 -24.8 6.05 -24.7 7.2 -24.7 7.95 -24.7 8.3 -24.7 8.7 -24.7 9.45 -24.65 9.8 -24.55 10.2 -24.4 10.55 -24.15 10.9 -23.8 11.2 -23.45 11.3 -23.2 11.6 -22.2 11.95 -21.3 12.2 -20.95 12.3 -20.7 12.45 -19.95 12.2 -18.95 11.8 -18.45 11.7 -17.95 11.85 -16.95 11.95 -13.45 11.7 -12.45 11.3 -11.95 10.95 -11.6 10.55 -11.3 10.2 -11.25 9.8 -11.2 9.7 -11.2 9.3 -10.95 8.95 -10.85 8.55 -10.8 8.2 -10.8 7.8 -10.8 7.45 -10.95 7.05 -11.2 6.8 -11.2 6.45 -11.2 5.75 -10.75 4.55 -9.7 3.8 -9.05 3.45 -8.8 3.05 -8.55 2.7 -8.3 2.3 -8.2 1.95 -8.2 1.55 -7.95 1.2 -7.8 0.05 -7.05 -0.4 -6.75 -0.7 -6.9 -1.05 -7.05 -2.95 -7.05 -4.05 -7.05 -5.55 -7.05 -6.7 -7.05 -8.2 -7.05 -8.55 -6.85 -8.95 -6.7 -9.3 -6.9 -9.7 -7.05 -10.05 -7.2 -10.4 -7.15 -10.8 -7.1 -11.2 -7.05 -11.55 -7.05 -11.95 -7.05 -12.3 -6.95 -12.7 -6.8 -13.05 -6.7 -13.45 -6.55 -13.8 -6.55 -14.2 -6.55 -14.55 -6.55 -14.95 -6.55 -15.3 -6.95 -15.7 -7.4 -16.1 -7.75 -16.35 -7.9 M-1.0 -2.65 L-0.8 2.3 -0.95 2.2 -1.3 2.05 -1.7 1.8 -1.8 0.8 -2.05 0.45 -2.45 -0.05 -2.45 -0.95 -2.05 -1.7 -1.7 -2.05 -1.3 -2.55 -1.0 -2.65 M0.15 4.75 L0.3 4.8 1.05 5.35 2.25 6.35 3.3 7.05 3.7 7.55 4.05 8.05 4.45 8.3 4.8 8.6 5.2 8.95 5.95 9.55 6.3 9.65 6.7 9.7 7.05 9.7 7.8 9.7 8.2 9.7 8.55 9.8 8.9 9.95 8.95 9.95 9.3 10.05 9.45 10.05 9.8 10.1 10.2 10.2 10.55 10.45 10.95 10.8 11.2 11.55 11.2 11.6 11.45 11.95 11.55 12.55 11.3 13.45 11.05 22.55 10.8 23.45 10.7 23.65 10.45 23.9 10.05 24.3 9.7 24.4 9.3 24.45 8.55 24.45 7.45 24.4 7.05 24.3 6.7 24.15 6.3 23.95 5.95 23.95 5.55 23.95 5.2 23.95 4.45 23.95 3.7 23.95 3.3 23.8 2.95 23.7 2.55 23.55 2.2 23.45 1.8 23.45 1.45 23.45 1.1 23.5 0.7 23.65 0.3 23.8 -0.05 23.9 -0.45 23.95 -0.8 23.95 -1.2 23.95 -1.55 23.8 -1.95 23.55 -2.3 23.45 -2.7 23.3 -3.05 22.95 -3.45 22.95 -3.8 22.95 -4.2 22.95 -4.55 22.9 -4.95 22.8 -5.3 22.65 -5.7 22.3 -6.05 21.95 Q-7.15 21.45 -8.0 20.5 L-10.5 17.75 -11.7 16.2 -12.05 15.8 -12.45 15.45 -13.15 14.65 -13.95 13.55 -14.3 13.2 -14.65 12.8 -14.95 12.45 -15.05 12.2 -15.2 11.55 -15.45 10.95 -15.8 10.4 -16.2 9.7 -16.45 9.2 -16.55 8.55 -16.4 7.95 -16.3 7.7 -16.35 7.3 -16.05 7.2 -15.7 7.0 -14.95 6.3 -14.5 5.9 -14.2 5.7 -13.8 5.7 -12.6 5.7 -12.45 5.95 -12.05 6.15 -11.7 6.3 -10.65 6.3 -10.8 6.95 -10.55 7.15 -10.2 7.3 -9.8 7.3 -9.45 7.2 -9.05 7.2 -8.7 7.3 -8.4 7.15 -8.55 6.8 -8.85 6.3 -8.7 6.3 -7.55 6.3 -6.8 6.3 -6.4 6.1 -6.05 5.95 -5.65 5.85 -5.3 5.8 -4.95 5.8 -4.55 5.7 -4.05 5.8 -3.65 6.05 -3.3 6.2 -2.95 6.2 -2.55 6.2 -1.8 6.2 -1.45 6.15 -1.05 6.05 -0.7 5.9 -0.3 5.55 0.05 5.05 0.15 4.75" fill="#d76c53" fill-rule="evenodd" stroke="none"/>
    <path d="M8.7 -24.7 L9.05 -24.95 9.45 -25.0 9.8 -25.05 10.2 -25.05 10.55 -25.05 10.95 -24.9 11.3 -24.7 11.7 -24.6 12.05 -24.55 12.45 -24.5 12.8 -24.45 13.2 -24.3 13.55 -24.05 13.95 -24.05 14.3 -24.05 15.05 -24.05 15.45 -24.05 15.8 -24.05 16.2 -24.2 16.55 -24.45 16.95 -24.5 17.3 -24.55 17.7 -24.55 18.05 -24.5 18.45 -24.35 18.8 -24.15 19.2 -23.95 19.55 -23.45 19.8 -22.45 19.8 -13.45 19.55 -12.45 19.3 -11.95 19.05 -10.95 18.7 -10.45 18.3 -10.1 17.95 -9.95 17.55 -9.85 17.2 -9.8 16.8 -9.85 16.45 -9.95 16.1 -10.1 15.7 -10.3 14.95 -10.4 13.8 -10.45 12.7 -10.45 12.3 -10.45 11.55 -10.55 11.2 -10.7 10.8 -10.9 10.2 -11.25 10.55 -11.3 10.95 -11.6 11.3 -11.95 11.7 -12.45 11.95 -13.45 11.85 -16.95 11.7 -17.95 11.8 -18.45 12.2 -18.95 12.45 -19.95 12.3 -20.7 12.2 -20.95 11.95 -21.3 11.6 -22.2 11.3 -23.2 11.2 -23.45 10.9 -23.8 10.55 -24.15 10.2 -24.4 9.8 -24.55 9.45 -24.65 8.7 -24.7 M8.9 9.95 L9.2 9.55 9.6 9.35 9.95 9.15 10.3 8.95 12.2 8.95 14.05 8.95 17.05 8.9 18.2 9.05 18.55 9.2 18.95 9.45 19.3 9.7 19.55 10.05 19.65 10.3 19.75 11.55 19.65 12.3 19.55 12.55 19.55 13.05 Q20.25 15.2 20.2 17.55 L20.3 18.55 20.3 21.05 20.05 22.05 19.65 22.55 18.9 23.3 18.55 23.55 16.3 23.75 14.05 23.7 10.7 23.65 10.8 23.45 11.05 22.55 11.3 13.45 11.55 12.55 11.45 11.95 11.2 11.6 11.2 11.55 10.95 10.8 10.55 10.45 10.2 10.2 9.8 10.1 9.45 10.05 9.3 10.05 8.95 9.95 8.9 9.95" fill="#a28c88" fill-rule="evenodd" stroke="none"/>
    <path d="M-0.4 -6.75 L-0.3 -6.7 0.05 -6.55 0.45 -6.05 0.7 -5.7 0.8 -4.95 0.55 -3.95 0.2 -3.45 -0.2 -3.05 -0.55 -2.9 -0.95 -2.7 -1.0 -2.65 -1.3 -2.55 -1.7 -2.05 -2.05 -1.7 -2.45 -0.95 -2.45 -0.05 -2.05 0.45 -1.8 0.8 -1.7 1.8 -1.3 2.05 -0.95 2.2 -0.8 2.3 -0.55 2.45 -0.2 2.7 0.05 3.05 0.15 3.35 0.3 4.05 0.15 4.75 0.05 5.05 -0.3 5.55 -0.7 5.9 -1.05 6.05 -1.45 6.15 -1.8 6.2 -2.55 6.2 -2.95 6.2 -3.3 6.2 -3.65 6.05 -4.05 5.8 -4.55 5.7 -4.95 5.8 -5.3 5.8 -5.65 5.85 -6.05 5.95 -6.4 6.1 -6.8 6.3 -7.55 6.3 -8.7 6.3 -8.85 6.3 -10.2 6.3 -10.65 6.3 -11.7 6.3 -12.05 6.15 -12.45 5.95 -12.6 5.7 -13.8 5.7 -14.2 5.7 -14.5 5.9 -14.95 6.3 -15.7 7.0 -16.05 7.2 -16.35 7.3 -16.45 7.3 -16.8 7.3 -17.2 7.3 -17.55 7.3 -17.95 7.3 -18.3 7.15 -18.7 6.8 -19.05 6.45 -19.4 5.8 -19.8 5.05 -20.05 4.05 -20.2 3.45 -20.45 2.8 -20.5 2.1 -20.55 2.05 -20.3 1.05 -19.95 0.55 -19.7 0.05 -19.6 -0.2 -19.7 -1.7 -19.95 -2.2 -20.05 -2.95 -19.8 -3.95 -19.7 -4.45 -19.8 -4.7 -19.9 -5.2 -20.05 -5.95 -19.8 -6.95 -19.4 -7.4 -19.05 -7.8 -18.7 -7.95 -18.3 -8.05 -17.9 -8.15 -17.55 -8.2 -17.2 -8.15 -16.8 -8.05 -16.45 -7.95 -16.35 -7.9 -16.1 -7.75 -15.7 -7.4 -15.3 -6.95 -14.95 -6.55 -14.55 -6.55 -14.2 -6.55 -13.8 -6.55 -13.45 -6.55 -13.05 -6.7 -12.7 -6.8 -12.3 -6.95 -11.95 -7.05 -11.55 -7.05 -11.2 -7.05 -10.8 -7.1 -10.4 -7.15 -10.05 -7.2 -9.7 -7.05 -9.3 -6.9 -8.95 -6.7 -8.55 -6.85 -8.2 -7.05 -6.7 -7.05 -5.55 -7.05 -4.05 -7.05 -2.95 -7.05 -1.05 -7.05 -0.7 -6.9 -0.4 -6.75" fill="#bda775" fill-rule="evenodd" stroke="none"/>
    <path d="M13.2 18.3 L13.35 18.8 13.35 19.55 13.2 20.05 13.05 20.4 13.2 20.7 13.35 20.75 13.55 20.75 13.7 20.8 13.9 20.9 14.1 20.95 14.3 21.0 14.45 21.05 14.65 21.2 14.85 21.4 14.95 21.55 15.0 21.7 15.1 22.2 15.3 22.2 15.45 22.2 15.65 22.2 15.85 22.2 16.05 22.25 16.2 22.35 16.4 22.45 16.6 22.65 16.8 22.8 16.95 23.0 17.15 23.05 17.35 23.15 17.55 23.3 17.7 23.55 17.85 24.05 17.7 24.55 17.55 24.8 17.35 25.0 17.15 25.15 16.95 25.15 16.8 25.2 16.6 25.2 16.45 25.25 16.2 25.55 15.85 26.0 15.65 26.15 15.3 26.15 14.7 26.2 14.35 26.2 14.15 26.2 13.8 26.15 13.6 26.15 13.4 26.05 13.2 25.9 13.05 25.7 12.85 25.3 12.6 24.95 12.45 24.9 12.3 24.95 12.1 25.05 11.9 25.15 10.95 25.2 10.4 25.2 9.3 25.2 8.15 25.2 7.8 25.15 7.6 25.15 7.4 25.05 7.2 24.9 7.05 24.7 6.9 24.45 6.9 24.05 6.85 24.05 6.95 23.55 7.15 23.3 7.35 23.15 7.55 22.95 7.9 22.75 8.0 22.7 8.2 21.3 8.4 21.05 8.6 20.9 8.8 20.8 8.95 20.75 9.15 20.7 9.35 20.7 9.55 20.7 9.7 20.7 9.85 20.65 10.1 20.4 10.15 20.15 10.1 19.55 10.1 18.8 10.2 18.3 10.4 18.05 10.6 17.9 10.8 17.8 10.95 17.75 11.15 17.7 11.35 17.7 11.55 17.7 11.7 17.7 11.9 17.7 12.3 17.7 12.45 17.75 12.65 17.8 12.85 17.9 13.0 18.05 13.2 18.3" fill="#663300" fill-opacity="0.2" fill-rule="evenodd" stroke="none"/>
    <path d="M13.0 16.6 L13.15 16.8 13.5 17.1 13.7 17.3 14.0 20.2 14.1 20.2 14.25 20.2 14.65 20.4 15.25 20.8 15.8 21.2 15.95 21.45 16.15 21.7 16.55 22.25 16.65 22.45 16.7 22.8 16.6 23.3 16.4 23.55 16.2 23.7 16.05 23.75 15.85 23.8 15.65 23.8 15.45 23.8 15.3 23.75 15.1 23.7 14.9 23.65 14.7 23.55 14.55 23.5 14.35 23.6 14.15 23.7 13.8 23.75 13.05 23.75 12.1 23.75 11.7 23.75 11.55 23.7 11.35 23.55 11.15 23.45 10.8 23.15 10.4 23.15 9.65 23.15 8.7 23.15 8.35 23.15 8.25 23.15 8.0 23.8 7.9 24.4 7.7 24.7 7.5 24.85 7.35 25.0 7.15 25.05 6.95 25.15 6.75 25.25 6.6 25.3 6.2 25.35 5.3 25.4 4.35 25.4 3.95 25.35 3.8 25.3 3.6 25.25 3.4 25.1 3.2 24.95 3.05 24.65 2.95 24.05 2.9 24.05 3.05 23.55 3.2 23.25 3.4 23.05 3.6 22.95 3.8 22.9 3.95 22.8 4.15 22.75 4.35 22.75 4.55 22.75 4.7 22.75 4.75 22.65 4.75 22.45 4.65 22.05 4.65 21.55 4.8 21.05 4.95 20.75 5.15 20.55 5.35 20.45 5.55 20.4 5.7 20.3 5.9 20.25 6.1 20.25 6.3 20.25 6.45 20.25 6.65 20.25 6.85 20.35 7.05 20.45 7.2 20.5 7.4 20.5 7.6 20.5 7.8 20.5 7.95 19.8 8.65 17.95 8.85 17.7 9.2 17.25 9.8 16.5 9.95 16.4 10.15 16.3 10.35 16.25 10.55 16.2 10.7 16.1 10.9 16.05 11.1 16.05 11.3 16.05 11.45 16.05 11.85 16.05 12.05 16.05 12.2 16.1 12.4 16.2 12.6 16.25 12.8 16.35 13.0 16.6" fill="#663300" fill-opacity="0.2" fill-rule="evenodd" stroke="none"/>
    <path d="M-1.05 4.65 L-0.85 4.55 -0.65 4.5 -0.45 4.5 -0.3 4.55 -0.1 4.6 0.1 4.7 0.25 4.8 0.45 5.0 0.65 5.3 0.8 5.8 0.8 7.3 0.65 7.85 0.45 8.2 0.25 8.35 0.1 8.5 -0.1 8.55 -0.3 8.6 -0.35 8.65 -0.5 9.3 -0.6 9.85 -0.8 10.2 -1.0 10.35 -1.15 10.5 -1.35 10.55 -1.55 10.6 -1.7 10.6 -1.9 10.6 -2.1 10.75 -2.45 11.5 -3.4 12.7 -4.35 13.25 -4.55 13.3 -4.7 13.3 -5.1 13.3 -5.65 13.35 -6.2 13.25 -6.4 13.15 -6.6 13.1 -7.2 12.7 -7.9 11.95 -8.1 11.75 -8.2 11.45 -8.3 11.05 -8.4 10.5 -8.6 10.7 -8.8 10.85 -9.0 11.05 -9.15 11.1 -9.35 11.15 -9.55 11.2 -10.1 11.2 -10.85 11.2 -11.2 11.15 -11.4 11.1 -11.6 11.05 -11.8 10.85 -11.95 10.7 -12.15 10.5 -12.3 10.3 -12.35 10.2 -12.4 9.8 -12.55 9.05 -12.7 8.85 -12.9 8.7 -13.05 8.5 -13.1 8.35 -13.2 8.0 -13.3 7.55 -13.35 7.55 -13.35 7.3 -13.3 6.55 -13.15 6.2 -12.95 6.0 -12.8 5.9 -12.6 5.8 -12.4 5.85 -12.2 5.9 -12.05 6.0 -11.85 6.25 -11.65 6.5 -11.55 6.8 -11.65 7.1 -11.65 7.45 -11.45 7.45 -11.3 7.45 -10.9 7.45 -10.35 7.5 -9.95 7.5 -9.8 7.5 -9.6 7.3 -9.4 7.0 -9.2 6.85 -9.05 6.75 -8.85 6.7 -8.65 6.65 -8.45 6.6 -8.3 6.6 -8.1 6.6 -7.9 6.7 -7.7 6.8 -7.55 6.95 -7.35 7.15 -7.2 7.3 -7.2 7.45 -7.1 7.8 -6.95 8.25 -6.8 7.9 -6.6 7.55 -6.4 7.4 -6.2 7.25 -6.05 7.15 -5.9 7.05 -5.85 7.05 -5.7 6.55 -5.55 6.25 -5.35 6.05 -5.15 5.95 -4.95 5.85 -4.8 5.8 -4.6 5.75 -4.4 5.75 -4.2 5.75 -4.05 5.75 -3.85 5.75 -3.45 5.8 -3.3 5.9 -3.1 6.0 -2.9 6.15 -2.7 6.3 -2.55 6.45 -2.35 6.05 -2.15 5.8 -1.95 5.6 -1.8 5.3 -1.6 5.05 -1.4 4.9 -1.05 4.65" fill="#663300" fill-opacity="0.2" fill-rule="evenodd" stroke="none"/>
    <path d="M-1.95 6.1 L-1.4 6.1 -1.2 6.2 -1.05 6.25 -0.85 6.3 0.1 6.8 1.85 7.8 3.1 9.1 3.3 9.15 3.45 9.2 3.65 9.25 4.05 9.35 4.6 9.5 4.8 9.6 4.95 9.85 5.1 10.0 5.15 10.55 5.1 11.8 5.05 12.3 4.9 12.55 4.8 13.05 4.6 13.35 4.4 13.55 4.2 13.7 3.65 13.8 2.55 13.75 1.2 13.75 0.45 13.75 0.3 13.65 0.1 13.55 -0.1 13.45 -0.3 13.3 -0.45 13.45 -0.65 13.55 -0.85 13.7 -1.05 13.75 -1.2 13.75 -1.4 13.75 -1.6 13.75 -1.8 13.7 -1.95 13.6 -2.15 13.5 -2.35 13.5 -2.55 13.55 -2.75 13.95 -2.9 14.25 -3.1 14.45 -3.3 14.6 -3.45 14.65 -3.65 14.7 -3.85 14.7 -4.2 14.7 -4.6 14.7 -4.8 14.7 -5.3 14.3 -6.65 11.55 -6.8 11.3 -6.85 11.2 -6.9 10.8 -7.05 10.35 -7.2 10.2 -7.4 10.0 -7.6 9.8 -7.8 9.75 -7.95 9.75 -8.15 9.75 -8.35 9.75 -8.55 9.65 -8.7 9.55 -8.9 9.35 -9.1 9.05 -9.2 8.55 -9.25 8.05 -9.3 8.05 -9.3 7.8 -9.2 7.3 -9.1 6.8 -8.9 6.5 -8.7 6.35 -8.55 6.25 -8.35 6.2 -8.15 6.15 -7.95 6.1 -7.8 6.1 -7.6 6.1 -7.4 6.2 -7.2 6.3 -7.05 6.35 -6.85 6.35 -6.65 6.35 -6.5 6.35 -6.3 6.25 -6.1 6.1 -5.9 6.0 -5.7 5.95 -5.55 5.95 -5.35 5.95 -5.15 6.0 -4.95 6.1 -4.8 6.2 -4.6 6.2 -4.05 6.1 -3.1 6.1 -1.95 6.1" fill="#663300" fill-opacity="0.2" fill-rule="evenodd" stroke="none"/>
    <path d="M7.15 -25.25 L7.35 -25.4 8.3 -25.5 9.8 -25.45 11.1 -25.45 11.45 -25.45 11.65 -25.5 11.85 -25.55 12.05 -25.7 12.25 -25.8 12.4 -25.9 12.6 -25.95 12.8 -25.95 12.95 -25.95 13.35 -25.95 13.55 -25.95 13.7 -25.9 13.9 -25.8 14.1 -25.75 14.3 -25.65 14.5 -25.4 14.6 -25.25 14.65 -25.05 14.7 -24.7 14.7 -24.45 14.6 -23.9 14.6 -23.7 14.8 -23.65 14.95 -23.55 15.15 -23.5 15.35 -23.45 15.55 -23.45 15.7 -23.45 15.9 -23.45 16.1 -23.45 16.3 -23.4 16.45 -23.3 16.65 -23.2 17.05 -22.9 17.4 -22.7 17.6 -22.7 17.8 -22.65 17.95 -22.55 18.3 -22.3 19.1 -21.2 19.6 -20.5 19.65 -20.3 19.7 -19.95 19.7 -19.7 19.6 -19.15 19.4 -18.9 19.2 -18.7 19.05 -18.55 19.05 -18.4 19.2 -18.2 19.4 -18.0 19.55 -17.7 19.85 -16.8 19.95 -16.2 19.85 -15.65 19.65 -15.4 19.45 -15.2 19.3 -15.1 19.1 -15.0 18.9 -14.95 18.7 -14.95 18.55 -14.95 18.35 -15.0 18.15 -15.1 18.0 -15.2 17.6 -15.6 17.2 -16.0 17.05 -16.0 16.65 -16.0 15.9 -16.0 15.15 -16.0 15.0 -16.1 14.8 -16.2 14.45 -16.6 14.1 -17.05 14.05 -17.45 13.9 -18.45 13.7 -18.4 13.55 -18.4 13.15 -18.4 12.8 -18.45 12.6 -18.45 12.4 -18.5 12.2 -18.55 12.05 -18.65 11.85 -18.75 11.65 -18.9 11.45 -19.0 11.25 -19.25 11.1 -19.45 10.9 -19.5 10.75 -19.65 10.35 -20.0 9.95 -20.4 9.85 -20.65 9.7 -21.0 9.6 -21.45 9.65 -21.95 9.7 -22.25 9.8 -22.7 9.7 -22.95 9.55 -22.95 9.35 -22.95 8.95 -22.95 8.6 -22.95 8.4 -22.95 8.2 -22.9 8.05 -22.8 7.85 -22.75 7.65 -22.7 7.45 -22.7 7.3 -22.7 7.1 -22.7 6.9 -22.6 6.7 -22.45 6.3 -22.1 6.15 -22.0 5.95 -21.95 5.8 -21.95 5.6 -21.95 5.4 -21.95 5.2 -22.0 5.05 -22.15 4.65 -22.4 4.1 -22.75 3.9 -22.8 3.7 -22.9 3.55 -22.95 3.35 -23.0 3.15 -23.05 2.95 -22.95 2.75 -22.75 2.4 -22.5 2.2 -22.45 2.05 -22.45 1.85 -22.45 1.65 -22.45 1.55 -22.45 1.5 -22.45 1.35 -21.9 1.15 -21.65 0.75 -21.4 0.2 -20.95 -0.15 -20.55 -0.35 -20.5 -0.55 -20.4 -0.7 -20.3 -0.9 -20.25 -1.1 -20.2 -1.3 -20.15 -1.45 -20.0 -1.65 -19.85 -1.85 -19.75 -2.05 -19.7 -2.2 -19.7 -2.6 -19.7 -2.95 -19.7 -3.15 -19.75 -3.35 -19.85 -3.7 -20.15 -4.3 -21.0 -4.45 -21.1 -4.65 -21.2 -4.85 -21.3 -5.0 -21.6 -5.15 -21.8 -5.2 -22.05 -5.25 -22.45 -5.3 -22.45 -5.15 -22.95 -4.95 -23.25 -4.8 -23.45 -4.6 -23.5 -4.4 -23.65 -4.2 -23.7 -4.05 -23.7 -3.85 -23.7 -3.65 -23.7 -3.45 -23.65 -3.3 -23.75 -3.1 -23.8 -2.9 -23.85 -2.7 -23.85 -2.55 -23.8 -2.35 -23.75 -2.15 -23.7 -1.95 -23.55 -1.9 -23.5 -1.8 -23.7 -1.65 -24.2 -1.45 -24.5 -1.3 -24.7 -1.1 -24.75 -0.9 -24.85 -0.7 -24.95 -0.6 -25.0 -0.3 -25.3 0.05 -25.75 0.2 -25.95 0.4 -26.0 0.6 -26.15 0.8 -26.2 0.95 -26.2 1.35 -26.2 1.7 -26.2 2.1 -26.2 2.3 -26.15 2.65 -26.0 3.2 -25.8 3.95 -25.55 4.15 -25.45 4.35 -25.45 4.55 -25.45 4.7 -25.4 4.9 -25.3 5.1 -25.25 5.3 -25.2 5.45 -25.2 5.85 -25.2 6.4 -25.2 6.95 -25.2 7.15 -25.25 M11.8 -21.7 L11.4 -21.65 11.4 -21.55 11.6 -21.4 11.8 -21.2 11.95 -21.15 12.1 -21.05 12.15 -21.05 12.2 -21.4 12.15 -21.55 11.95 -21.65 11.8 -21.7" fill="#663300" fill-opacity="0.2" fill-rule="evenodd" stroke="none"/>
    <path d="M17.05 -19.65 L17.2 -19.65 17.4 -19.7 17.6 -19.7 17.8 -19.65 17.95 -19.55 18.15 -19.5 18.35 -19.4 18.55 -19.25 18.7 -19.0 18.85 -18.75 18.9 -18.55 18.95 -18.2 18.85 -17.65 18.65 -17.25 18.45 -17.1 18.3 -16.95 18.1 -16.85 17.9 -16.75 17.7 -16.7 17.55 -16.7 17.35 -16.7 17.15 -16.7 16.95 -16.75 16.8 -16.85 16.6 -16.95 16.4 -17.15 16.2 -17.3 16.1 -17.65 16.05 -17.8 16.0 -18.2 15.95 -18.2 16.1 -18.75 16.3 -19.05 16.45 -19.3 16.65 -19.45 16.85 -19.5 17.05 -19.65" fill="#663300" fill-opacity="0.2" fill-rule="evenodd" stroke="none"/>
    <path d="M11.6 -25.7 L11.8 -25.7 12.15 -25.7 12.55 -25.7 12.7 -25.65 12.9 -25.55 13.1 -25.5 14.05 -24.7 15.15 -23.05 15.3 -22.65 15.45 -22.55 15.65 -22.5 15.85 -22.45 16.05 -22.45 16.2 -22.45 16.6 -22.45 16.95 -22.45 17.15 -22.45 17.35 -22.35 17.55 -22.25 17.7 -22.2 18.3 -21.65 19.0 -20.8 19.35 -20.25 19.4 -20.05 19.45 -19.7 19.4 -19.35 19.3 -18.95 19.4 -18.75 19.6 -18.5 19.7 -18.3 19.8 -17.95 19.65 -17.45 19.45 -17.2 19.3 -17.0 19.35 -16.8 19.4 -16.45 19.4 -15.7 19.3 -15.2 19.1 -14.9 18.9 -14.7 18.7 -14.55 18.55 -14.55 18.15 -14.5 17.8 -14.5 17.2 -14.5 17.05 -14.6 16.85 -14.7 16.65 -14.8 16.5 -15.1 16.1 -15.85 15.9 -16.4 15.7 -16.55 15.55 -16.6 15.35 -16.65 Q14.8 -16.8 14.4 -17.2 L13.1 -18.65 12.9 -18.95 12.7 -18.95 12.35 -18.95 11.95 -18.95 11.4 -18.95 11.2 -18.9 11.05 -18.8 10.85 -18.75 10.65 -18.7 10.45 -18.7 10.3 -18.7 10.1 -18.75 9.9 -18.8 9.7 -18.95 9.55 -19.05 9.35 -19.1 9.15 -19.15 8.95 -19.15 8.8 -19.15 8.6 -19.2 8.4 -19.25 8.2 -19.3 8.05 -19.4 7.65 -19.4 7.1 -19.4 6.55 -19.4 6.15 -19.4 5.95 -19.45 5.8 -19.55 5.4 -19.75 5.05 -20.0 4.85 -20.25 4.65 -20.5 4.45 -20.95 4.35 -21.15 4.3 -21.3 4.2 -21.7 4.1 -22.45 3.9 -22.45 3.7 -22.4 3.55 -22.3 3.35 -22.25 3.15 -22.2 2.8 -22.2 2.05 -22.2 1.3 -22.2 0.9 -22.2 0.6 -22.45 -0.2 -23.0 -0.95 -23.5 -1.05 -23.95 -1.1 -23.95 -0.95 -24.3 -0.8 -24.55 -0.6 -24.7 -0.4 -24.75 -0.2 -24.9 -0.05 -24.95 0.15 -25.0 0.35 -25.05 0.55 -25.1 0.7 -25.15 0.9 -25.1 1.1 -25.05 1.3 -24.95 1.45 -24.9 1.65 -24.8 1.85 -24.75 2.05 -24.7 2.2 -24.7 2.4 -24.7 2.6 -24.75 2.8 -24.8 2.95 -24.95 3.15 -25.15 3.35 -25.25 3.55 -25.3 3.7 -25.4 3.9 -25.45 4.1 -25.45 4.65 -25.35 5.4 -25.1 6.15 -24.9 6.35 -24.8 6.5 -24.7 6.7 -24.5 6.9 -24.45 7.1 -24.45 7.45 -24.45 7.85 -24.5 8.05 -24.45 8.2 -24.35 8.6 -24.15 8.8 -24.0 8.95 -23.75 9.15 -23.65 9.55 -24.25 10.1 -25.05 10.3 -25.25 10.45 -25.35 10.65 -25.45 10.85 -25.5 11.05 -25.55 11.2 -25.65 11.4 -25.7 11.6 -25.7" fill="#663300" fill-opacity="0.2" fill-rule="evenodd" stroke="none"/>
    <path d="M17.15 -13.1 L17.0 -12.85 16.9 -12.75 16.8 -12.65 16.7 -12.55 16.65 -12.45 14.55 -12.5 10.5 -12.85 10.05 -13.0 9.75 -13.1 9.55 -13.1 6.65 -13.05 3.85 -12.85 3.6 -12.75 3.2 -12.65 2.9 -12.5 2.65 -12.2 2.5 -11.9 2.3 -11.85 1.95 -11.7 1.55 -11.7 1.5 -11.7 0.3 -10.45 -0.3 -9.7 -0.05 -9.35 0.2 -8.95 0.25 -8.7 0.4 -7.95 0.45 -7.45 0.2 -6.45 -0.2 -5.95 -0.6 -5.6 -0.95 -5.35 -1.35 -5.25 -1.7 -5.2 -2.05 -5.2 -2.45 -5.2 -2.8 -5.35 -3.2 -5.7 -3.55 -6.1 -3.95 -6.2 -4.3 -6.35 -4.7 -6.7 -5.05 -7.1 -5.45 -7.15 -5.8 -7.2 -6.2 -7.2 -6.55 -7.2 -6.95 -7.2 -7.3 -7.05 -7.7 -6.85 -8.05 -6.75 -8.45 -6.6 -8.8 -6.3 -9.6 -5.6 -9.95 -5.35 -10.35 -5.25 -10.7 -5.2 -11.1 -5.2 -11.45 -5.2 -11.8 -5.35 -12.2 -5.7 -12.6 -6.1 -12.95 -6.2 -13.35 -6.35 -13.7 -6.7 -14.05 -7.1 -14.35 -7.45 -14.4 -7.7 -14.5 -8.45 -14.6 -8.45 -14.6 -8.95 -14.35 -9.95 -13.95 -10.45 -13.6 -10.85 -13.2 -11.2 -12.8 -11.95 -12.45 -12.45 -12.05 -12.8 -11.7 -13.1 -11.3 -13.55 -10.95 -13.95 -10.6 -14.35 -10.2 -14.7 -9.8 -15.45 -9.45 -15.95 -9.05 -16.3 -8.3 -16.7 -7.6 -17.85 -6.75 -19.05 -6.05 -19.85 -5.7 -19.95 -5.3 -20.1 -4.95 -20.2 -4.55 -20.2 -4.2 -20.2 -3.8 -20.2 -3.45 -20.2 Q-3.25 -20.25 -3.1 -20.35 L-2.7 -20.7 -2.3 -20.95 -1.95 -21.1 -1.55 -21.2 -1.2 -21.6 -0.8 -22.1 -0.45 -22.35 -0.05 -22.55 0.3 -22.7 0.65 -22.75 1.05 -22.85 1.45 -23.1 2.2 -23.3 3.3 -23.6 4.05 -23.75 5.2 -24.05 5.55 -24.2 7.05 -24.2 8.85 -24.2 9.85 -23.95 11.2 -23.75 12.1 -23.4 12.2 -23.3 12.35 -22.9 12.45 -22.8 12.55 -22.7 12.65 -22.6 12.75 -22.55 13.05 -21.8 13.3 -21.55 13.4 -21.55 13.5 -21.5 13.6 -21.45 13.9 -21.45 14.05 -21.5 14.15 -21.5 14.25 -21.5 14.35 -21.45 14.45 -21.4 14.55 -21.35 14.65 -21.3 14.7 -21.25 14.8 -21.25 14.9 -21.2 15.0 -21.15 Q15.35 -20.9 15.35 -20.5 15.2 -18.65 15.4 -16.9 L15.75 -16.6 16.25 -16.3 Q17.35 -15.25 17.4 -13.6 L17.15 -13.1 M19.4 -19.95 L19.45 -19.45 19.2 -18.45 18.95 -18.15 18.9 -18.45 18.85 -19.55 19.0 -19.9 19.15 -20.95 19.3 -20.7 19.4 -19.95" fill="#333333" fill-opacity="0.2" fill-rule="evenodd" stroke="none"/>
    <path d="M-5.3 -6.75 L-5.15 -6.7 -5.0 -6.7 -4.8 -6.7 -4.7 -6.65 -4.55 -6.6 -4.4 -6.55 -4.25 -6.45 -4.15 -6.45 -3.95 -6.45 -3.8 -6.45 -3.65 -6.4 -3.5 -6.3 -3.4 -6.2 -3.25 -6.05 -3.1 -5.7 -3.0 -5.2 -3.0 -4.95 -3.1 -4.4 -3.25 -4.15 -3.4 -4.0 -3.55 -3.85 -3.55 -3.6 -3.45 -3.35 -3.4 -2.95 -3.4 -2.7 -3.45 -2.15 -3.6 -1.9 -3.75 -1.65 -3.6 -1.4 -3.45 -1.3 -3.45 -1.1 -3.4 -0.7 -3.4 -0.45 -3.5 0.1 -3.6 0.4 -3.45 0.65 -3.45 1.05 -3.45 1.3 -3.55 1.8 -3.65 2.1 -3.8 2.25 -4.15 2.55 -4.55 2.9 -4.7 2.95 -4.6 3.0 -4.5 3.1 -4.15 3.35 -3.85 3.6 -3.75 3.65 -3.6 3.7 -3.45 3.8 -3.3 3.85 -3.15 4.05 -3.0 4.3 -2.9 4.8 -2.85 5.05 -2.75 5.55 -2.85 6.05 -3.0 6.25 -3.15 6.45 -3.3 6.55 -3.45 6.6 -3.6 6.6 -3.85 6.6 -4.15 6.55 -4.3 6.55 -6.2 6.6 -7.8 6.6 -9.1 6.6 -10.25 6.55 -10.4 6.45 -10.55 6.35 -10.7 6.35 -10.85 6.3 -11.0 6.2 -11.15 6.0 -11.3 5.8 -11.35 5.3 -11.3 4.8 -11.15 4.55 -11.0 4.4 -10.85 4.35 -10.7 4.2 -10.55 4.2 -10.4 4.2 -10.25 4.15 -10.15 4.1 -10.0 4.05 -9.8 3.9 -9.65 3.85 -9.55 3.8 -9.4 3.7 -9.4 3.6 -9.55 3.45 -9.7 3.35 -9.8 3.3 -10.0 3.1 -10.15 2.9 -10.25 2.55 -10.35 2.3 -10.4 2.15 -10.45 1.8 -10.4 1.3 -10.45 1.05 -10.6 0.9 -10.75 0.65 -10.85 0.4 -10.9 0.05 -10.8 -0.45 -10.65 -0.8 -10.5 -0.9 -10.35 -1.0 -10.2 -1.1 -10.05 -1.15 -9.95 -1.15 -9.8 -1.15 -9.65 -1.15 -9.65 -1.2 -9.8 -1.3 -9.9 -1.4 -10.05 -1.6 -10.2 -1.8 -10.35 -2.1 -10.35 -2.45 -10.35 -2.7 -10.35 -3.15 -10.5 -3.35 -10.6 -3.55 -10.7 -3.85 -10.75 -4.2 -10.75 -4.45 -10.65 -4.95 -10.5 -5.3 -10.35 -5.45 -10.2 -5.55 -10.05 -5.65 -9.95 -5.7 -9.8 -5.7 -9.65 -5.7 -9.45 -5.7 -9.35 -5.7 -9.2 -5.75 -9.05 -5.85 -8.9 -6.15 -8.8 -6.35 -8.45 -6.65 -8.05 -7.1 -7.9 -7.15 -7.75 -7.2 -7.3 -7.2 -6.7 -7.2 -6.3 -7.2 -6.15 -7.15 -6.0 -7.05 -5.85 -6.95 -5.7 -6.95 -5.55 -6.9 -5.4 -6.8 -5.3 -6.75" fill="#333333" fill-opacity="0.2" fill-rule="evenodd" stroke="none"/>
    <path d="M-6.05 -6.95 L-5.85 -7.05 -5.65 -7.15 -5.5 -7.2 -5.3 -7.2 -5.1 -7.2 -4.75 -7.2 -4.35 -7.2 -4.15 -7.2 -4.0 -7.15 -3.8 -7.1 -3.6 -7.05 -3.4 -6.95 -3.05 -6.95 -2.65 -6.95 -2.1 -6.95 -1.35 -6.95 -1.15 -6.9 -0.95 -6.8 -0.8 -6.7 -0.6 -6.55 -0.4 -6.2 -0.25 -5.65 -0.05 -5.4 0.1 -5.3 0.15 -5.1 0.2 -4.7 0.2 -4.45 0.1 -3.9 -0.1 -3.65 -0.3 -3.45 -0.5 -3.3 -0.7 -3.1 -0.85 -3.05 -1.05 -2.95 -1.15 -2.9 -1.1 -2.8 -0.9 -2.65 -0.7 -2.55 -0.55 -2.45 -0.35 -2.3 -0.15 -1.95 -0.05 -1.45 -0.05 -0.95 -0.15 -0.4 -0.35 -0.15 -0.3 0.0 -0.15 0.2 0.0 0.55 0.15 1.05 0.15 1.3 0.0 1.8 -0.15 2.1 -0.35 2.3 -0.25 2.35 -0.05 2.45 0.15 2.6 0.35 2.7 0.5 3.05 0.65 3.55 0.65 3.8 0.5 4.3 0.35 4.6 0.15 4.8 0.15 4.9 0.3 5.1 0.45 5.3 0.5 5.4 0.6 5.8 0.45 6.3 0.25 6.5 0.1 6.7 -0.1 6.85 -0.3 6.9 -0.5 6.9 -0.85 6.9 -1.4 6.9 -2.0 6.85 -2.15 6.75 -2.35 6.65 -2.55 6.6 -2.75 6.6 -2.9 6.6 -3.3 6.6 -3.65 6.55 -3.85 6.45 -4.05 6.35 -4.25 6.35 -4.4 6.35 -4.6 6.3 -4.8 6.2 -5.0 6.2 -5.15 6.2 -5.35 6.15 -5.55 6.1 -5.75 6.05 -5.9 5.95 -6.1 5.9 -6.3 5.85 -6.5 5.7 -6.65 5.65 -6.85 5.65 -7.05 5.65 -7.25 5.65 -7.4 5.6 -7.6 5.5 -7.8 5.35 -8.0 5.15 -8.1 4.9 -8.15 4.55 -8.05 4.05 -7.85 3.8 -7.65 3.6 -7.5 3.55 -7.4 3.4 -7.45 3.3 -7.6 3.15 -7.8 2.9 -7.9 2.65 -8.0 2.3 -7.85 1.8 -7.65 1.45 -7.5 1.35 -7.3 1.25 -7.1 1.15 -6.9 1.1 -6.75 1.1 -6.55 1.1 -6.35 1.1 -6.15 1.1 -6.05 1.1 -6.1 1.05 -6.3 1.05 -6.65 1.05 -7.05 1.0 -7.6 0.95 -7.8 0.9 -7.95 0.75 -8.15 0.6 -8.35 0.3 -8.5 -0.2 -8.35 -0.7 -8.15 -1.05 -8.0 -1.15 -7.8 -1.25 -7.6 -1.35 -7.4 -1.45 -7.25 -1.55 -7.05 -1.6 -6.85 -1.65 -6.65 -1.7 -6.55 -1.7 -6.6 -1.75 -6.8 -1.85 -7.0 -1.9 -7.15 -1.95 -7.35 -1.95 -7.55 -1.95 -7.75 -2.0 -7.9 -2.05 -8.1 -2.1 -8.3 -2.25 -8.45 -2.4 -8.65 -2.65 -8.75 -3.2 -8.8 -3.2 -8.8 -3.45 -8.65 -3.95 -8.5 -4.3 -8.3 -4.45 -8.1 -4.65 -7.9 -4.8 -7.75 -4.85 -7.55 -4.9 -7.35 -4.95 -7.0 -5.05 -6.4 -5.2 -6.45 -5.4 -6.55 -5.95 -6.4 -6.45 -6.25 -6.8 -6.05 -6.95" fill="#333333" fill-opacity="0.2" fill-rule="evenodd" stroke="none"/>
    <path d="M17.15 10.35 L17.45 10.75 17.45 11.9 17.5 12.05 17.55 12.3 17.6 12.45 17.85 13.0 17.95 13.15 17.95 13.9 17.6 14.95 17.55 15.15 17.45 15.15 17.35 15.15 17.15 15.2 16.7 15.4 16.4 15.5 16.15 15.9 Q15.9 16.55 16.2 17.15 16.45 18.75 15.45 19.95 L15.1 20.1 14.45 20.25 13.95 20.4 13.9 20.4 13.8 20.4 13.7 20.4 13.6 20.4 13.4 20.45 12.85 20.65 12.7 20.7 10.8 20.7 6.3 20.6 5.2 20.55 4.8 20.45 4.45 20.3 4.05 20.2 3.7 20.2 3.3 20.2 2.95 20.2 2.55 20.2 2.2 20.2 1.8 20.05 1.4 19.85 1.05 19.7 0.7 19.65 0.3 19.55 -0.05 19.3 -0.45 19.2 -0.8 19.2 -1.2 19.15 -1.55 19.05 -1.95 18.9 -2.35 18.7 -2.7 18.55 -3.45 18.15 -3.8 17.95 -4.2 17.8 -4.6 17.7 -4.95 17.7 -5.3 17.45 -5.7 17.15 -6.05 16.8 -6.45 16.45 -6.8 15.8 -7.15 15.05 -7.55 13.95 -7.95 13.4 -8.3 12.8 -9.05 12.15 -10.25 11.0 Q-11.1 10.2 -11.6 9.2 L-11.65 8.55 -11.7 8.55 -11.45 7.7 -11.1 7.05 -10.7 6.3 -10.35 6.05 -9.95 5.8 -9.55 5.7 -9.2 5.65 -8.8 5.4 -8.45 4.8 -8.05 4.45 -7.7 4.3 -7.3 4.4 -6.95 4.55 -6.55 4.65 -6.2 4.9 -5.8 5.05 -5.45 5.15 -5.05 5.4 -4.7 5.7 -4.3 6.05 -3.95 6.1 -3.55 5.9 -3.2 5.7 -2.8 5.55 -2.45 5.45 -2.05 5.4 -1.7 5.4 -1.35 5.5 -0.95 5.65 -0.6 5.85 0.2 6.25 0.55 6.4 1.3 7.2 2.45 8.3 3.5 9.0 4.3 9.45 5.45 9.45 7.3 9.45 9.2 9.45 11.05 9.45 11.4 9.6 11.8 9.8 12.95 9.95 14.8 9.95 15.1 9.95 15.3 10.05 15.65 10.1 16.3 10.15 16.7 10.15 16.9 10.2 16.95 10.25 17.05 10.3 17.15 10.35" fill="#333333" fill-opacity="0.2" fill-rule="evenodd" stroke="none"/>
    <path d="M18.4 9.15 L18.6 9.1 18.8 9.1 18.95 9.1 19.15 9.1 19.35 9.15 19.55 9.3 19.7 9.4 20.05 9.8 20.05 9.9 20.15 10.3 20.05 10.8 19.85 11.1 19.65 11.3 19.45 11.45 19.3 11.6 19.1 11.65 18.9 11.7 18.7 11.7 18.5 11.85 18.35 11.9 18.15 12.05 17.95 12.15 17.8 12.2 17.6 12.3 17.4 12.4 17.2 12.45 17.05 12.45 16.85 12.45 16.65 12.55 16.45 12.65 15.35 12.75 13.65 12.7 12.15 12.7 11.75 12.7 11.6 12.65 11.4 12.6 11.2 12.55 11.0 12.45 10.65 12.45 9.9 12.45 8.95 12.45 8.2 12.45 8.05 12.4 7.85 12.3 7.65 12.2 7.45 12.2 7.3 12.15 7.1 12.05 6.9 12.0 6.7 11.95 6.5 11.95 6.15 11.95 5.95 11.95 5.8 11.9 5.6 11.8 5.4 11.75 5.2 11.85 5.0 11.9 4.85 11.9 4.65 11.9 4.45 11.9 4.3 11.85 4.1 11.7 3.9 11.65 3.7 11.65 3.5 11.65 3.35 11.6 3.15 11.5 2.95 11.35 2.75 11.15 2.6 11.05 2.4 10.95 2.2 10.9 2.0 10.85 1.85 10.8 1.3 10.45 0.35 9.9 -0.8 9.35 -1.0 9.15 -1.15 9.1 -1.35 9.1 -1.55 9.1 -1.7 9.0 -1.9 8.9 -2.1 8.7 -2.25 8.55 -2.3 8.4 -2.35 8.05 -2.4 7.6 -2.6 7.4 -2.8 7.2 -3.0 7.05 -3.15 6.85 -3.35 6.55 -3.45 6.05 -3.5 6.05 -3.5 5.8 -3.35 5.3 -3.15 4.95 -3.0 4.85 -2.8 4.75 -2.6 4.65 -2.4 4.6 -2.25 4.6 -2.05 4.6 -1.65 4.6 -1.5 4.65 -1.3 4.75 -1.1 4.85 -0.9 4.95 -0.75 5.1 -0.55 5.2 -0.35 5.3 -0.15 5.35 0.0 5.4 0.2 5.45 1.95 6.6 4.1 8.45 5.1 9.3 5.3 9.35 5.45 9.35 5.65 9.35 5.85 9.35 6.0 9.35 6.2 9.4 6.4 9.45 6.6 9.55 6.75 9.6 6.95 9.6 7.15 9.6 7.35 9.6 7.5 9.6 7.7 9.65 7.9 9.7 8.25 9.85 8.85 10.05 9.0 10.1 9.4 10.1 10.15 10.1 11.1 10.05 11.85 10.15 12.0 10.25 12.2 10.35 12.75 10.35 13.7 10.35 14.85 10.35 15.2 10.35 15.4 10.25 15.6 10.15 15.8 10.1 15.95 10.1 16.15 10.1 16.35 10.05 16.55 9.95 16.7 9.9 16.9 9.8 17.1 9.65 17.25 9.6 17.45 9.45 17.65 9.4 17.85 9.35 18.05 9.35 18.2 9.25 18.4 9.15 M2.45 17.5 L2.55 17.5 2.6 17.5 2.7 17.5 2.8 17.5 2.9 17.5 3.0 17.5 3.2 17.5 3.45 17.45 3.75 17.45 3.85 17.5 3.95 17.5 4.05 17.55 4.1 17.65 4.2 17.75 4.3 17.9 4.35 18.15 4.3 18.55 4.25 19.15 4.2 19.4 4.1 19.55 4.05 19.65 4.0 19.8 3.95 20.05 3.85 20.15 3.75 20.25 3.65 20.3 3.55 20.35 3.45 20.35 3.35 20.35 3.3 20.35 3.2 20.55 3.1 20.7 3.05 20.8 2.95 20.85 2.85 20.9 2.75 20.95 2.55 20.95 2.45 21.0 2.35 21.0 2.2 21.0 2.0 21.0 1.8 21.0 1.7 20.95 1.6 20.9 1.55 20.9 1.45 20.85 1.15 20.65 0.85 20.4 0.5 20.05 0.3 19.9 0.25 19.8 0.2 19.75 0.2 19.55 0.1 19.25 0.05 19.15 -0.05 19.05 -0.05 19.0 -0.1 18.8 -0.1 18.55 -0.05 18.35 0.0 18.15 0.1 18.0 0.15 17.9 0.2 17.7 0.3 17.55 0.4 17.5 0.45 17.5 0.55 17.5 0.65 17.5 0.75 17.45 0.95 17.45 1.05 17.45 1.2 17.45 1.4 17.45 1.7 17.45 1.8 17.45 1.85 17.5 1.95 17.5 2.05 17.5 2.15 17.55 2.2 17.6 2.25 17.55 2.35 17.5 2.45 17.5" fill="#333333" fill-opacity="0.2" fill-rule="evenodd" stroke="none"/>
    <path d="M6.9 -25.6 L7.1 -25.55 7.25 -25.5 7.45 -25.5 7.65 -25.5 7.85 -25.5 8.0 -25.5 8.2 -25.4 8.4 -25.35 8.6 -25.3 8.75 -25.25 10.85 -25.1 12.9 -25.0 15.55 -25.05 16.45 -25.05 16.65 -25.0 16.85 -24.9 17.05 -24.85 17.2 -24.85 17.4 -24.75 17.6 -24.65 17.8 -24.6 17.95 -24.45 18.15 -24.3 18.35 -24.1 18.55 -24.05 18.7 -24.0 18.9 -23.9 19.1 -23.8 19.3 -23.65 19.45 -23.4 19.65 -23.3 19.85 -23.25 20.05 -23.25 20.2 -23.1 20.4 -23.0 20.6 -22.75 20.7 -22.3 20.6 -21.8 20.4 -21.55 20.3 -21.5 20.25 -21.4 20.1 -21.05 19.9 -20.8 19.7 -20.7 19.55 -20.6 19.35 -20.55 19.15 -20.55 18.95 -20.55 18.8 -20.6 18.6 -20.6 18.4 -20.55 18.2 -20.55 18.05 -20.55 17.85 -20.55 17.65 -20.55 17.45 -20.55 17.1 -20.75 16.9 -20.85 16.7 -20.95 16.55 -21.05 16.35 -21.1 15.95 -21.15 15.8 -21.25 15.6 -21.25 15.4 -21.3 15.2 -21.35 15.05 -21.5 13.5 -21.5 11.85 -21.6 10.35 -21.7 9.2 -21.8 9.05 -21.75 8.85 -21.75 8.65 -21.75 8.45 -21.75 8.1 -21.85 7.9 -21.85 7.7 -21.9 7.5 -22.0 7.35 -22.0 7.15 -22.0 6.95 -22.0 6.8 -22.05 6.6 -22.15 6.4 -22.25 6.2 -22.35 5.1 -22.35 3.75 -22.35 2.45 -22.35 1.5 -22.4 1.35 -22.4 1.15 -22.35 0.95 -22.35 0.8 -22.3 0.6 -22.15 0.4 -22.05 0.2 -22.0 0.0 -21.9 -0.15 -21.8 -0.35 -21.75 -0.75 -21.6 -0.9 -21.55 -1.3 -21.4 -1.5 -21.35 -1.65 -21.35 -1.85 -21.35 -2.05 -21.35 -2.25 -21.35 -2.4 -21.3 -2.6 -21.25 -2.8 -21.15 -3.0 -21.1 -3.35 -21.1 -3.75 -21.1 -4.1 -21.1 -4.5 -21.1 -4.65 -21.1 -5.3 -20.85 -5.6 -20.6 -6.15 -20.1 -6.35 -19.9 -6.55 -19.85 -6.75 -19.8 -6.9 -19.6 -7.1 -19.4 -7.3 -19.25 -7.45 -19.15 -7.65 -19.05 -7.85 -18.9 -8.05 -18.85 -8.25 -18.8 -8.4 -18.6 -8.6 -18.4 -8.8 -18.35 -9.0 -18.35 -9.15 -18.35 -9.35 -18.35 -9.55 -18.35 -9.75 -18.35 -10.3 -18.0 -10.85 -17.4 -11.4 -16.9 -11.6 -16.8 -11.8 -16.7 -12.0 -16.65 -12.35 -16.4 -12.75 -16.2 -13.1 -15.95 -13.3 -15.8 -13.5 -15.7 -13.65 -15.65 -13.85 -15.6 -14.05 -15.55 -14.25 -15.4 -14.4 -15.35 -14.6 -15.35 -14.8 -15.2 -15.0 -15.05 -15.15 -14.85 -15.35 -14.9 -15.55 -14.95 -15.6 -15.25 -15.6 -15.35 -15.4 -15.6 -15.25 -15.8 -15.15 -15.95 -15.05 -16.3 -14.85 -16.55 -14.25 -17.05 -13.7 -17.55 -13.0 -18.15 -12.8 -18.35 -12.6 -18.45 -12.4 -18.55 -12.25 -18.65 -11.85 -19.25 -11.5 -19.65 -11.1 -20.05 -10.9 -20.1 -10.75 -20.15 -10.55 -20.25 -10.35 -20.25 -10.15 -20.25 -10.0 -20.25 -9.8 -20.25 -9.6 -20.3 -9.4 -20.45 -9.25 -20.6 -9.05 -20.65 -8.85 -20.7 -8.65 -20.75 -8.3 -21.05 -7.9 -21.45 -7.55 -21.65 -7.35 -21.8 -7.15 -21.85 -7.0 -21.9 -6.6 -22.3 -6.2 -22.65 -5.85 -22.9 -5.65 -23.0 -5.1 -23.4 -4.5 -23.7 -4.0 -24.0 -3.8 -24.1 -3.4 -24.25 -3.05 -24.35 -2.65 -24.5 -2.3 -24.6 -2.15 -24.7 -1.9 -24.95 -1.75 -25.25 -1.55 -25.35 -1.35 -25.5 -0.6 -25.55 0.15 -25.55 1.1 -25.55 2.0 -25.75 3.15 -25.75 4.45 -25.75 5.6 -25.75 6.5 -25.75 6.7 -25.65 6.9 -25.6" fill="#333333" fill-opacity="0.2" fill-rule="evenodd" stroke="none"/>
    <path d="M-17.45 -7.2 L-17.3 -7.1 -17.1 -7.0 -16.75 -6.7 -16.55 -6.5 -16.35 -6.2 -16.15 -5.8 -16.0 -5.55 -15.85 -5.3 -15.8 -4.95 -15.8 -4.2 -15.9 -3.6 -16.1 -3.4 -16.3 -3.2 -16.4 -3.1 -16.55 -2.45 Q-16.7 -1.6 -17.1 -0.85 L-17.2 -0.55 -16.85 0.1 -16.3 0.95 -16.15 1.2 -16.1 1.55 -16.1 1.8 -16.2 2.3 -16.4 2.65 -16.6 2.8 -16.8 2.95 -17.0 3.0 -17.15 3.0 -17.35 3.0 -17.55 3.0 -17.7 2.95 -17.85 3.0 -17.9 3.2 -17.7 3.55 -17.55 3.7 -17.35 3.75 -17.15 3.95 -17.0 4.0 -16.8 4.15 -16.6 4.35 -16.45 4.5 -16.4 4.75 -16.35 5.05 -16.35 5.3 -16.45 5.75 -16.65 6.0 -16.85 6.2 -17.25 6.25 -17.8 6.25 -17.95 6.25 -18.15 6.3 -18.7 6.3 -19.1 6.25 -19.3 6.2 -19.5 6.05 -19.65 5.8 -19.8 5.3 -19.8 5.05 -19.75 4.55 -19.8 4.2 -20.0 3.8 -20.15 3.45 -20.3 3.2 -20.35 2.8 -20.4 2.3 -20.4 1.8 -20.3 1.3 -20.1 1.1 -19.9 0.9 -19.75 0.8 -19.7 0.65 -19.8 0.45 -19.95 0.3 -20.15 0.15 -20.35 -0.2 -20.45 -0.65 -20.5 -0.7 -20.5 -0.95 -20.35 -1.45 -20.15 -1.75 -20.0 -1.85 -19.8 -2.0 -19.7 -2.15 -19.6 -2.95 -19.5 -3.5 -19.5 -3.8 -19.55 -4.2 -19.4 -4.7 -19.25 -5.0 -19.1 -5.25 -19.1 -5.7 -19.1 -5.95 -19.0 -6.45 -18.8 -6.75 -18.6 -6.9 -18.4 -7.05 -18.25 -7.1 -18.05 -7.2 -17.85 -7.25 -17.65 -7.25 -17.45 -7.2" fill="#ffff99" fill-opacity="0.2" fill-rule="evenodd" stroke="none"/>
    <path d="M-15.9 -8.25 L-15.75 -8.3 -15.5 -8.35 -15.3 -8.35 -15.1 -8.35 -14.9 -8.3 -14.7 -8.25 -14.5 -8.2 -14.25 -8.05 -14.1 -7.8 -13.95 -7.55 -13.9 -7.3 -13.85 -6.95 -13.85 -6.7 -13.95 -6.1 -13.95 -5.8 -13.75 -5.55 -13.6 -5.3 -13.55 -4.95 -13.55 -4.45 -13.65 -3.85 -13.9 -3.6 -13.85 -3.45 -13.65 -3.3 -13.5 -3.05 -13.35 -2.8 -13.3 -2.45 -13.3 -2.2 -13.4 -1.6 -13.6 -1.4 -13.85 -1.2 -13.95 -0.95 -13.85 -0.45 -13.85 -0.2 -13.95 0.4 -14.15 0.65 -14.35 0.8 -14.6 0.95 -14.95 1.15 -15.2 1.25 -15.15 1.4 -14.95 1.6 -14.55 1.85 -13.95 2.25 -13.7 2.55 -13.6 3.05 -13.6 3.3 -13.7 3.8 -13.95 4.15 -14.15 4.3 -14.05 4.45 -13.85 4.7 -13.65 4.8 -13.6 4.95 -13.55 5.3 -13.55 5.55 -13.65 6.15 -13.9 6.45 -14.1 6.6 -14.25 6.7 -14.9 6.75 -15.9 6.7 -17.15 6.65 -17.55 6.55 -17.75 6.5 -18.0 6.3 -18.15 6.15 -18.2 5.8 -18.05 5.45 -17.8 5.25 -17.7 5.15 -17.8 5.0 -18.0 4.9 -18.2 4.8 -18.4 4.75 -18.6 4.6 -18.8 4.45 -18.95 4.2 -19.0 3.95 -19.05 3.55 -18.95 3.05 -18.75 2.8 -18.5 2.7 -18.3 2.65 -18.3 2.45 -18.4 2.2 -18.6 2.05 -18.8 1.95 -19.0 1.7 -19.1 1.45 -19.2 1.05 -19.25 1.05 -19.25 0.8 -19.05 0.3 -18.85 0.0 -18.7 -0.1 -18.45 -0.25 -18.25 -0.3 -18.05 -0.35 -17.8 -0.35 -17.65 -0.35 -17.45 -0.4 -17.2 -0.45 -17.25 -0.6 -17.45 -0.7 -17.65 -0.75 -17.8 -0.9 -18.05 -1.05 -18.25 -1.25 -18.6 -1.6 -18.65 -1.8 -18.75 -2.2 -18.6 -2.7 -18.4 -3.0 -18.2 -3.2 -18.15 -3.3 -18.2 -3.7 -18.05 -4.2 -17.8 -4.5 -17.65 -4.7 -17.45 -4.75 -17.2 -4.85 -17.2 -5.05 -17.3 -5.3 -17.7 -6.0 -17.8 -6.3 -17.9 -6.7 -17.75 -7.2 -17.55 -7.5 -17.35 -7.7 -17.15 -7.75 -16.95 -7.85 -16.7 -7.95 -16.55 -7.95 -16.35 -7.95 -16.1 -8.1 -15.9 -8.25" fill="#ffff99" fill-opacity="0.2" fill-rule="evenodd" stroke="none"/>
    <path d="M7.95 24.25 L8.15 24.35 8.35 24.45 8.5 24.65 8.65 24.85 8.7 25.15 8.6 25.6 8.4 25.75 8.2 25.95 8.05 26.0 6.15 26.1 4.65 26.1 3.35 26.1 2.2 26.1 1.45 26.1 1.3 26.0 1.1 25.9 0.9 25.85 0.7 25.8 0.55 25.75 0.35 25.6 0.15 25.4 -0.05 25.35 -0.2 25.25 -0.4 25.1 -0.6 24.9 -0.8 24.75 -1.15 24.75 -1.55 24.75 -2.3 24.8 -2.85 24.7 -3.05 24.65 -3.2 24.5 -3.4 24.5 -3.6 24.45 -3.8 24.4 -4.0 24.3 -4.15 24.2 -4.35 24.1 -4.55 24.0 -4.7 23.95 -4.9 23.85 -5.1 23.7 -5.3 23.65 -5.45 23.45 -5.65 23.25 -5.85 23.05 -6.05 23.0 -6.2 22.95 -6.4 22.75 -6.6 22.5 -6.8 22.15 -6.95 21.95 -7.15 21.65 -7.35 21.25 -7.55 20.9 -7.7 20.75 -7.9 20.75 -8.1 20.7 -8.45 20.5 -8.8 20.3 -9.4 19.85 -9.8 19.65 -9.95 19.45 -10.15 19.25 -10.35 19.05 -10.7 18.7 -10.85 18.5 -10.9 18.4 -11.05 17.95 -11.25 17.7 -11.4 17.5 -11.6 17.3 -11.8 17.15 -12.15 16.4 -12.55 15.65 -12.7 15.45 -12.9 15.25 -13.1 15.0 -13.3 14.65 -13.45 14.45 -13.65 14.15 -13.85 13.8 -14.05 13.65 -14.2 13.45 -14.4 13.15 -14.6 12.9 -14.8 12.8 -14.95 12.7 -15.15 12.5 -15.35 12.3 -15.45 12.15 -15.55 11.85 -15.65 11.5 -15.85 11.3 -16.4 10.25 -17.3 8.9 -17.3 8.6 -17.35 8.55 -17.35 8.3 -17.2 7.95 -17.05 7.65 -16.85 7.45 -16.65 7.35 -16.45 7.25 -16.3 7.2 -16.1 7.2 -15.9 7.2 -15.75 7.25 -15.55 7.4 -15.35 7.55 -15.15 7.95 -14.3 9.0 -13.3 11.0 -12.95 11.45 -12.55 12.15 -12.35 12.7 -12.15 12.9 -12.0 13.15 -11.8 13.5 -11.6 13.7 -11.4 13.9 -11.25 14.15 -11.05 14.5 -10.85 14.7 -10.65 14.9 -10.45 15.15 -10.25 15.55 -10.15 15.75 -10.05 16.25 -9.85 16.45 -9.65 16.65 -9.5 16.85 -9.1 17.45 -8.9 17.65 -8.7 17.9 -8.55 18.05 -8.15 18.4 -8.0 18.45 -7.8 18.55 -7.6 18.7 -7.4 18.9 -7.2 18.9 -7.05 18.95 Q-6.6 19.1 -6.25 19.45 L-4.9 21.3 -4.6 21.7 -4.4 21.75 -4.2 21.8 -4.05 22.0 -3.85 22.2 -3.65 22.25 -3.45 22.3 -3.3 22.45 -3.1 22.5 -2.9 22.65 -2.7 22.65 -2.55 22.65 -2.35 22.7 -2.15 22.75 -1.95 22.8 -1.8 22.9 -1.6 22.9 -1.4 22.9 -1.2 22.9 -0.85 22.9 -0.3 22.9 -0.1 22.95 0.1 23.0 0.25 23.1 0.45 23.25 0.65 23.35 0.85 23.45 1.05 23.65 1.2 23.8 1.4 23.95 1.6 23.95 1.8 24.0 1.95 24.15 3.65 24.2 4.95 24.2 6.1 24.2 7.05 24.2 7.95 24.25" fill="#ffff99" fill-opacity="0.2" fill-rule="evenodd" stroke="none"/>
    <path d="M19.35 10.1 L19.45 10.25 19.6 10.65 19.7 11.05 19.8 14.65 20.05 16.4 20.15 16.8 Q19.9 18.6 20.3 20.3 L20.15 23.3 20.05 23.75 19.85 23.9 19.65 24.0 19.45 24.0 19.3 24.0 19.1 23.9 18.9 23.75 Q18.4 20.35 18.2 16.9 L18.1 16.65 17.9 15.25 17.8 14.8 17.7 11.3 17.7 11.05 17.85 10.65 18.05 10.2 18.2 9.95 18.4 9.85 18.6 9.75 18.8 9.75 18.95 9.8 19.15 9.9 19.35 10.1" fill="#ffff99" fill-opacity="0.2" fill-rule="evenodd" stroke="none"/>
    <path d="M9.2 22.95 L9.8 22.95 10.15 22.95 10.35 22.9 10.55 22.8 11.1 22.65 11.85 22.6 12.6 22.5 12.8 22.5 12.95 22.45 13.15 22.4 13.35 22.3 14.1 22.25 15.05 22.1 15.95 21.8 17.1 21.8 18.4 21.8 19.7 21.9 19.9 21.95 20.1 22.05 20.3 22.2 20.5 22.45 20.6 22.55 20.65 22.7 20.7 23.05 20.6 23.6 20.4 23.85 20.2 23.95 20.05 24.1 19.85 24.2 19.65 24.25 19.45 24.25 19.3 24.25 19.1 24.25 18.55 24.45 18.0 24.8 17.4 25.1 17.2 25.1 17.05 25.15 16.85 25.35 16.65 25.5 16.45 25.6 16.3 25.65 16.1 25.75 15.55 25.85 14.95 25.85 14.4 25.85 14.05 25.85 13.85 25.9 13.65 26.0 11.95 26.1 9.9 26.05 8.2 26.0 8.05 25.95 7.85 25.85 7.65 25.8 7.3 25.75 6.9 25.75 6.7 25.75 6.55 25.7 6.35 25.6 5.6 25.5 4.85 25.45 4.1 25.45 3.9 25.45 3.75 25.4 3.55 25.35 3.35 25.2 3.15 25.2 2.95 25.2 2.8 25.2 2.6 25.15 2.4 25.0 2.2 24.95 2.05 24.9 1.85 24.9 1.65 24.8 1.25 24.5 0.9 24.25 0.7 24.25 0.55 24.25 0.35 24.2 0.15 24.1 -0.05 24.05 -0.2 24.0 -0.4 24.0 -0.6 23.95 -0.8 23.85 -0.95 23.7 -1.15 23.7 -1.35 23.7 -1.55 23.7 -1.7 23.7 -1.9 23.65 -2.1 23.5 -2.3 23.45 -2.45 23.45 -2.65 23.45 -2.85 23.35 -3.05 23.2 -3.2 23.15 -3.4 23.05 -3.6 23.0 -3.8 22.95 -3.95 22.9 -4.35 22.7 -4.7 22.45 -5.1 22.15 -5.2 21.85 -5.2 21.8 -5.05 21.55 -4.9 21.45 -4.7 21.4 -4.55 21.35 -4.35 21.4 -4.15 21.5 -3.95 21.6 -3.8 21.7 -3.6 21.8 -3.4 21.9 -3.05 22.0 -2.65 22.15 -2.45 22.2 -2.3 22.2 -2.1 22.2 -1.9 22.2 -1.75 22.25 -1.55 22.4 -1.35 22.45 -1.15 22.45 -0.95 22.45 -0.8 22.45 -0.6 22.5 -0.4 22.55 -0.2 22.6 -0.05 22.65 0.15 22.65 0.35 22.65 0.5 22.7 0.7 22.8 0.9 22.85 1.1 22.85 1.3 22.85 1.45 22.9 1.65 22.95 1.85 23.05 2.05 23.2 2.2 23.25 2.4 23.3 2.6 23.3 2.8 23.35 2.95 23.4 3.15 23.45 3.35 23.6 3.55 23.6 3.7 23.6 3.9 23.6 4.1 23.6 4.25 23.65 4.45 23.75 5.05 23.8 5.6 23.75 6.15 23.75 6.55 23.75 6.7 23.85 6.9 23.9 7.1 23.95 7.3 24.0 7.45 24.0 7.65 24.0 7.7 23.95 7.65 23.85 7.6 23.6 7.7 23.25 7.9 23.1 8.1 22.95 8.65 22.95 9.2 22.95" fill="#ffff99" fill-opacity="0.2" fill-rule="evenodd" stroke="none"/>
    <path d="M18.4 -20.8 L18.6 -20.9 18.8 -21.0 18.95 -21.05 19.15 -21.0 19.35 -20.95 19.55 -20.8 19.7 -20.6 Q20.25 -14.55 19.55 -8.5 L19.35 -8.35 19.15 -8.25 18.95 -8.25 18.8 -8.25 18.6 -8.35 18.4 -8.5 18.3 -9.7 18.05 -16.95 18.1 -19.95 18.2 -20.6 18.4 -20.8" fill="#ffff99" fill-opacity="0.2" fill-rule="evenodd" stroke="none"/>
    <path d="M16.1 -12.15 L16.3 -12.05 16.45 -12.0 16.65 -11.85 16.85 -11.85 17.05 -11.85 17.2 -11.85 17.4 -11.85 17.6 -11.75 17.8 -11.65 17.95 -11.55 18.15 -11.5 18.35 -11.45 18.55 -11.25 18.75 -11.15 18.9 -11.05 19.1 -10.95 19.25 -10.95 19.5 -11.05 19.65 -11.1 19.8 -11.1 19.9 -10.75 19.8 -10.25 19.6 -10.05 19.4 -9.95 19.2 -9.95 19.05 -9.9 18.85 -9.85 18.65 -9.9 18.45 -9.95 18.3 -10.0 18.1 -10.05 17.9 -10.1 17.7 -10.25 17.55 -10.25 17.35 -10.3 17.15 -10.45 16.95 -10.5 16.8 -10.5 16.6 -10.5 16.4 -10.5 16.25 -10.5 16.05 -10.6 13.4 -10.7 9.45 -10.6 5.15 -10.55 5.0 -10.55 4.8 -10.45 4.6 -10.3 4.4 -10.2 4.2 -10.05 4.05 -10.05 3.85 -10.0 3.25 -9.7 2.75 -9.1 2.35 -8.35 2.15 -8.05 1.8 -7.7 1.4 -7.3 1.0 -7.0 0.85 -6.9 0.65 -6.8 0.45 -6.8 0.3 -6.8 0.1 -6.85 -0.1 -7.0 -0.3 -7.15 -0.4 -7.25 -0.45 -7.35 -0.5 -7.7 -0.55 -7.7 -0.4 -8.05 -0.25 -8.25 0.15 -8.7 0.55 -9.05 0.7 -9.25 0.9 -9.85 1.6 -10.65 2.2 -11.1 2.75 -11.5 3.35 -11.8 3.55 -11.8 3.7 -11.9 3.9 -12.0 4.1 -12.1 4.3 -12.2 4.45 -12.25 4.65 -12.3 7.3 -12.3 11.4 -12.3 15.7 -12.2 15.9 -12.2 16.1 -12.15" fill="#ffff99" fill-opacity="0.2" fill-rule="evenodd" stroke="none"/>
    <path d="M-15.9 -10.1 L-15.8 -10.2 -15.75 -10.2 -15.65 -10.25 -15.55 -10.3 -14.2 -10.3 -12.65 -10.4 -10.65 -10.4 -10.45 -10.4 -10.4 -10.45 -10.3 -10.5 -10.2 -10.6 -10.1 -10.7 -10.0 -10.8 -9.9 -10.9 -9.8 -10.95 -9.7 -11.05 -9.65 -11.15 -9.55 -11.35 -9.45 -11.45 -9.35 -11.55 -9.25 -11.6 -9.15 -11.6 -7.95 -11.7 -6.65 -11.55 -4.85 -11.05 -4.75 -11.0 -4.65 -10.95 -4.55 -10.9 -4.45 -10.85 -4.4 -10.85 -4.1 -10.7 -3.55 -10.3 -3.05 -9.7 -2.95 -9.65 -2.9 -9.65 -2.8 -9.65 -2.6 -9.65 -2.4 -9.7 -2.3 -9.7 -2.2 -9.65 -2.15 -9.65 -2.05 -9.65 -1.85 -9.6 -1.75 -9.6 -1.65 -9.55 -1.55 -9.55 -1.4 -9.45 -1.3 -9.45 -1.2 -9.45 -1.1 -9.45 -1.0 -9.4 -0.9 -9.4 -0.8 -9.35 -0.65 -9.3 -0.55 -9.3 -0.45 -9.2 -0.35 -9.2 -0.25 -9.1 -0.15 -9.1 -0.05 -9.05 0.05 -9.0 0.1 -8.95 0.2 -8.9 0.4 -8.8 0.5 -8.75 0.6 -8.65 0.7 -8.6 0.8 -8.6 0.85 -8.55 0.95 -8.45 1.05 -8.3 1.1 -8.15 1.15 -7.95 1.15 -7.85 1.1 -7.6 1.0 -7.45 0.9 -7.3 0.8 -7.25 0.7 -7.2 0.65 -7.15 0.5 -6.95 0.45 -6.85 0.35 -6.8 0.25 -6.7 0.15 -6.7 -2.35 -6.9 -5.75 -7.3 -8.45 -7.2 -8.55 -7.2 -8.65 -7.1 -8.75 -7.1 -8.85 -7.05 -8.95 -7.05 -9.05 -7.0 -9.2 -7.0 -9.5 -6.95 -9.9 -6.95 -10.05 -6.95 -10.15 -6.95 -10.25 -7.0 -10.35 -7.05 -10.45 -7.1 -10.55 -7.1 -10.65 -7.1 -10.7 -7.1 -10.8 -7.05 -10.9 -7.05 -11.0 -7.0 -11.1 -6.95 -11.4 -6.95 -11.95 -7.0 -12.4 -7.0 -12.7 -7.0 -12.8 -7.0 -12.9 -7.05 -13.0 -7.05 -13.05 -7.1 -13.25 -7.15 -13.45 -7.2 -13.55 -7.3 -13.65 -7.3 -13.75 -7.35 -13.8 -7.35 -13.9 -7.35 -14.0 -7.35 -14.1 -7.3 -14.65 -7.25 -15.4 -7.25 -16.05 -7.25 -16.65 -7.25 -16.75 -7.3 -16.8 -7.3 -16.9 -7.35 -17.0 -7.4 -17.1 -7.45 -17.2 -7.55 -17.3 -7.7 -17.35 -7.95 -17.35 -8.1 -17.3 -8.35 -17.2 -8.55 -17.1 -8.6 -17.0 -8.65 -16.9 -8.7 -16.8 -8.75 -16.75 -8.8 -16.65 -8.8 -16.6 -8.9 -16.6 -8.95 -16.65 -9.1 -16.7 -9.2 -16.75 -9.35 -16.65 -9.6 -16.55 -9.8 -16.45 -9.85 -16.4 -9.95 -16.3 -9.95 -16.2 -10.05 -16.1 -10.05 -16.0 -10.1 -15.9 -10.1" fill="#333333" fill-opacity="0.2" fill-rule="evenodd" stroke="none"/>
    <path d="M0.15 -12.9 L0.2 -13.1 0.3 -13.25 0.35 -13.35 0.45 -13.35 0.55 -13.4 0.65 -13.45 0.75 -13.55 0.85 -13.6 0.95 -13.7 1.1 -13.8 1.2 -13.8 1.3 -13.8 1.4 -13.85 1.5 -13.85 1.7 -13.85 1.8 -13.85 1.85 -13.85 1.95 -13.9 2.05 -13.95 2.15 -13.95 2.25 -14.0 2.35 -14.0 2.45 -14.0 2.55 -14.0 2.6 -13.95 2.7 -13.9 2.8 -13.85 2.9 -13.85 3.0 -13.85 3.1 -13.85 3.2 -13.85 3.35 -13.85 3.45 -13.85 3.55 -13.8 3.65 -13.8 3.75 -13.75 3.85 -13.7 3.95 -13.55 4.0 -13.5 4.0 -13.4 4.05 -13.2 4.0 -12.95 3.9 -12.8 3.8 -12.7 3.7 -12.65 3.6 -12.6 3.55 -12.6 3.45 -12.6 3.35 -12.6 3.25 -12.6 3.05 -12.6 2.95 -12.6 2.85 -12.2 2.8 -11.95 2.7 -11.8 2.65 -11.7 2.5 -11.6 2.35 -11.4 2.05 -11.2 1.95 -11.15 1.85 -11.15 1.8 -11.1 1.7 -11.1 1.5 -11.1 1.2 -11.1 1.05 -11.1 0.95 -11.15 0.75 -11.25 0.35 -11.6 0.1 -12.05 0.1 -12.2 0.1 -12.7 0.15 -12.9" fill="#333333" fill-opacity="0.2" fill-rule="evenodd" stroke="none"/>
    <path d="M4.85 -26.2 L5.0 -26.2 11.15 -25.95 15.9 -25.3 15.95 -25.3 20.0 -24.75 20.1 -24.75 20.55 -24.5 20.6 -24.45 20.75 -24.0 20.8 -23.15 20.85 -19.3 20.8 -14.15 20.75 -9.1 20.75 -8.9 20.7 -8.75 20.55 -8.55 20.1 -8.35 20.0 -8.35 19.8 -8.35 19.75 -8.4 19.45 -8.45 Q16.65 -9.35 14.2 -9.3 L8.35 -9.15 Q5.45 -9.05 2.95 -7.5 L3.0 -7.5 Q1.5 -6.6 0.55 -5.3 L0.15 -6.15 -0.1 -6.25 -0.6 -6.35 Q0.5 -7.75 2.15 -8.75 4.95 -10.55 8.25 -10.65 L14.15 -10.8 19.25 -10.05 19.45 -13.95 19.55 -18.3 19.25 -23.3 15.6 -23.85 11.0 -24.45 5.0 -24.7 1.55 -24.4 0.9 -24.35 0.5 -24.3 Q0.1 -24.35 0.1 -24.5 L0.1 -24.45 Q0.0 -24.25 -0.95 -24.0 -2.45 -23.6 -5.1 -21.95 L-9.9 -18.7 -11.0 -17.8 -10.9 -17.75 -10.8 -17.75 -10.7 -17.7 -10.6 -17.55 -10.45 -17.5 -10.25 -17.4 -9.95 -17.2 -9.85 -17.05 -9.75 -16.9 -9.7 -16.85 -9.7 -16.8 -9.65 -16.7 -9.7 -16.55 -9.8 -16.5 -9.8 -16.4 -9.8 -16.25 -9.85 -16.25 -9.85 -16.3 -9.95 -16.4 -10.05 -16.45 -10.1 -16.5 -10.2 -16.5 -10.4 -16.7 -10.6 -16.8 -10.7 -16.9 -10.8 -16.9 -10.85 -16.95 -10.95 -17.0 -11.05 -17.1 -11.15 -17.25 -11.25 -17.25 -11.35 -17.3 -11.4 -17.4 -11.4 -17.45 Q-12.7 -16.15 -13.8 -14.45 -15.5 -11.8 -16.4 -9.15 L-17.15 -6.45 -17.2 -6.45 Q-17.75 -6.75 -18.35 -6.85 L-18.6 -6.8 -18.6 -6.9 -18.7 -6.9 -18.8 -6.9 -18.85 -6.9 -18.95 -6.9 -19.05 -6.85 -19.15 -6.8 -19.25 -6.7 -19.3 -6.3 -19.4 -5.7 -19.45 -5.55 -19.55 -5.45 -19.65 -5.45 -19.75 -5.45 -19.85 -5.55 -19.9 -5.7 -19.95 -6.15 -19.95 -6.3 -19.95 -6.45 -19.9 -6.65 -19.85 -6.8 -19.8 -7.0 -19.7 -7.1 -19.6 -7.25 -19.55 -7.3 -19.45 -7.4 -19.35 -7.45 -19.25 -7.5 -19.15 -7.5 -19.05 -7.55 -18.95 -7.6 -18.85 -7.65 -18.75 -7.7 -18.7 -7.7 -18.6 -7.65 -18.5 -7.65 -18.45 -7.65 -18.25 -8.4 -18.15 -8.5 -18.1 -8.7 -18.05 -9.05 -17.85 -9.7 Q-16.8 -12.5 -15.0 -14.95 L-10.95 -19.45 -5.9 -23.2 -5.9 -23.25 Q-3.05 -25.0 -1.35 -25.45 L-1.3 -25.45 0.35 -25.75 0.65 -25.8 1.45 -25.9 4.85 -26.2 M17.65 -20.0 L17.75 -20.1 17.85 -20.15 17.95 -20.2 18.05 -20.15 18.15 -20.15 18.2 -20.15 18.3 -20.1 18.4 -20.0 18.4 -19.95 18.35 -19.8 18.25 -19.75 18.15 -19.7 18.05 -19.65 17.95 -19.55 17.9 -19.5 17.8 -19.5 17.7 -19.45 17.6 -19.4 17.5 -19.2 17.4 -19.05 17.3 -19.1 17.2 -19.15 17.2 -19.3 17.2 -19.4 17.25 -19.55 17.3 -19.7 17.4 -19.8 17.5 -19.9 17.55 -19.95 17.65 -20.0 M20.75 9.45 L20.9 9.15 Q20.3 11.45 20.75 14.6 21.3 18.05 21.0 19.65 20.8 20.95 20.9 23.3 L20.95 23.8 20.7 24.35 20.7 24.4 20.2 24.6 20.15 24.6 19.9 24.55 18.25 25.05 18.0 25.15 11.55 25.75 5.7 25.8 -0.05 25.1 Q-3.05 24.4 -5.8 23.0 -8.55 21.5 -10.95 19.05 -13.25 16.6 -15.05 13.8 -16.95 10.95 -17.8 8.55 L-18.1 7.6 -18.2 7.65 -18.35 7.65 -18.55 7.65 -18.65 7.65 -19.05 7.35 -19.55 6.8 -19.7 6.55 -19.8 6.5 -19.85 6.45 -19.9 6.35 -19.9 6.2 -19.95 5.8 -19.95 4.55 -19.9 4.35 -19.8 4.25 -19.7 4.2 -19.6 4.15 -19.55 4.15 -19.45 4.15 -19.35 4.15 -19.25 4.15 -19.15 4.2 -19.05 4.25 -18.95 4.35 -18.9 4.55 -18.95 4.75 -19.05 4.85 -19.1 4.95 -19.15 5.8 -19.1 5.95 -19.05 6.05 -19.0 6.25 -18.9 6.4 -18.8 6.45 -18.7 6.55 -18.65 6.7 -18.55 6.8 -18.45 6.9 -18.35 6.95 -18.3 6.95 -18.25 7.0 -18.4 6.3 -18.35 6.35 -18.25 6.35 -17.05 6.3 -16.95 6.3 -16.4 8.15 Q-15.6 10.45 -13.8 13.35 -12.05 16.25 -9.85 18.3 -7.65 20.3 -5.1 21.65 L-4.7 21.85 -3.9 22.2 Q-1.9 23.15 0.3 23.65 L5.7 24.3 5.75 24.3 11.55 24.25 17.75 23.65 19.4 23.15 Q19.3 20.75 19.5 19.4 L19.45 16.35 19.25 14.8 Q18.85 12.0 19.25 9.85 L15.15 10.3 10.75 10.5 6.9 10.3 3.65 9.35 Q2.55 8.95 1.55 8.3 L1.5 8.4 1.4 8.5 1.2 8.7 1.1 8.8 1.05 8.9 1.0 9.1 0.9 9.2 0.8 9.25 0.7 9.25 0.6 9.25 0.5 9.2 0.4 9.1 0.35 8.9 0.35 8.65 0.3 8.65 0.4 8.45 0.5 8.35 0.55 8.25 0.65 8.15 0.75 8.0 0.85 7.85 0.9 7.85 -0.3 6.8 -0.9 6.15 -0.8 6.15 -0.55 6.05 -0.35 5.95 -0.15 5.75 -0.05 5.55 0.0 5.35 0.05 5.15 0.0 4.85 0.75 5.75 Q2.35 7.35 5.0 8.6 L13.4 9.0 19.45 8.2 20.1 8.1 Q19.9 8.2 20.3 8.6 20.65 8.9 20.65 9.4 L20.6 9.6 20.75 9.45 M2.45 9.15 L2.5 9.55 2.4 9.75 2.35 9.9 2.25 10.05 2.25 10.15 2.15 10.35 2.0 10.55 1.8 10.8 1.6 11.1 1.5 11.15 1.4 11.15 1.35 11.1 1.25 11.05 1.2 10.9 1.25 10.7 1.25 10.65 1.3 10.45 1.4 10.35 1.5 10.2 1.6 10.1 1.7 10.0 1.75 9.8 1.8 9.6 1.9 9.55 1.9 9.45 1.95 9.15 2.0 9.0 2.1 8.95 2.2 8.9 2.3 8.95 2.4 9.0 2.45 9.15 M15.05 20.2 L15.15 20.15 15.2 20.1 15.3 20.1 15.4 20.05 15.5 20.0 15.6 20.0 15.8 20.05 15.95 20.1 16.15 20.2 16.25 20.25 16.45 20.3 16.65 20.35 16.8 20.45 16.9 20.5 17.0 20.55 17.1 20.6 17.2 20.6 17.3 20.6 17.45 20.6 17.65 20.6 17.75 20.65 17.85 20.65 17.95 20.7 18.05 20.7 18.15 20.75 18.2 20.8 18.3 20.85 18.4 20.85 18.5 20.95 18.6 21.0 18.7 21.0 18.75 21.05 18.8 21.1 18.8 21.2 18.75 21.35 18.65 21.45 18.55 21.5 18.45 21.55 18.4 21.55 18.3 21.55 18.2 21.55 18.1 21.5 17.8 21.4 17.45 21.3 17.05 21.3 17.0 21.3 16.8 21.2 16.6 21.1 16.5 21.05 16.4 21.0 16.3 21.0 16.2 20.95 16.15 20.95 16.05 20.9 15.85 20.85 15.65 20.75 15.55 20.7 15.45 20.7 15.4 20.75 15.3 20.75 15.2 20.75 15.1 20.75 15.0 20.7 14.95 20.65 14.9 20.6 14.9 20.45 14.95 20.3 15.05 20.2 M18.15 19.5 L18.25 19.55 18.3 19.6 18.35 19.7 18.3 19.85 18.2 19.95 18.1 19.95 18.0 19.95 17.95 19.95 17.9 20.1 17.8 20.2 17.7 20.2 17.6 20.2 17.5 20.1 17.45 19.95 17.45 19.8 17.5 19.65 17.6 19.6 17.7 19.55 17.8 19.5 17.9 19.45 17.95 19.45 18.05 19.45 18.15 19.5 M17.5 22.0 L17.6 22.05 17.7 22.15 17.75 22.3 17.8 22.35 17.8 22.45 17.75 22.6 17.65 22.7 17.55 22.65 17.45 22.65 17.4 22.6 17.3 22.6 17.1 22.6 16.9 22.6 16.7 22.6 16.65 22.55 16.55 22.5 16.45 22.45 16.35 22.4 16.25 22.3 16.2 22.25 16.15 22.2 16.15 22.05 16.2 21.9 16.3 21.8 16.4 21.75 16.45 21.75 16.55 21.8 16.65 21.85 16.85 21.9 16.95 21.95 17.05 22.0 17.15 22.0 17.2 22.0 17.3 22.0 17.4 22.0 17.5 22.0 M-7.75 -18.6 L-7.55 -18.4 -7.5 -18.35 -7.45 -18.3 -7.45 -18.15 -7.35 -18.0 -7.3 -17.8 -7.35 -17.65 -7.45 -17.65 -7.55 -17.7 -7.6 -17.85 -7.7 -18.0 -7.8 -18.0 -7.9 -18.05 -8.0 -18.15 -8.1 -18.3 -8.2 -18.45 -8.3 -18.5 -8.3 -18.6 -8.35 -18.7 -8.3 -18.85 -8.2 -18.9 -8.1 -18.9 -8.05 -18.9 -7.95 -18.85 -7.85 -18.75 -7.75 -18.6 M-8.65 -17.65 L-8.6 -17.55 -8.55 -17.35 -8.45 -17.15 -8.45 -16.95 -8.55 -16.9 -8.6 -16.9 -8.7 -17.0 -8.8 -17.15 -9.0 -17.3 -9.2 -17.5 -9.35 -17.65 -9.45 -17.8 -9.55 -17.95 -9.6 -18.05 -9.65 -18.2 -9.6 -18.35 -9.5 -18.4 -9.4 -18.45 -9.3 -18.4 -9.2 -18.35 -9.1 -18.2 -9.05 -18.05 -8.95 -17.9 -8.85 -17.8 -8.75 -17.75 -8.65 -17.65 M-9.85 -15.65 L-9.75 -15.65 -9.25 -15.2 -8.7 -14.85 -8.45 -14.7 -8.45 -14.65 -8.4 -14.5 -8.3 -14.4 -8.2 -14.3 -8.15 -14.2 -8.1 -14.15 -8.2 -14.15 -8.3 -14.2 -8.4 -14.3 -8.5 -14.3 -8.6 -14.3 -8.7 -14.3 -8.8 -14.3 -9.35 -14.6 -9.75 -14.95 -10.2 -15.25 -10.3 -15.3 -10.35 -15.3 -10.45 -15.3 -10.55 -15.35 -10.6 -15.4 -10.65 -15.55 -10.6 -15.7 -10.5 -15.75 -10.4 -15.8 -10.3 -15.8 -10.2 -15.8 -10.05 -15.75 -9.95 -15.7 -9.85 -15.65 M-11.6 -14.1 L-11.55 -14.1 -11.45 -14.05 -11.35 -13.9 -11.25 -13.8 -11.15 -13.8 -11.05 -13.8 -10.95 -13.75 -10.85 -13.75 -10.8 -13.7 -10.7 -13.65 -10.6 -13.6 -10.5 -13.55 -10.4 -13.5 -10.35 -13.4 -10.3 -13.3 -10.3 -13.15 -10.25 -13.0 -10.35 -12.95 -10.45 -13.0 -10.55 -13.05 -10.6 -13.05 -10.7 -13.1 -10.8 -13.15 -10.9 -13.2 -11.0 -13.25 -11.1 -13.25 -11.2 -13.3 -11.3 -13.3 -11.35 -13.3 -11.45 -13.35 -11.55 -13.4 -11.65 -13.45 -11.75 -13.55 -11.8 -13.7 -11.75 -13.8 -11.7 -14.0 -11.6 -14.1 M-13.5 -6.7 L-13.4 -6.75 -13.3 -6.7 -13.2 -6.65 -13.15 -6.55 -13.1 -6.45 -13.2 -6.25 -13.25 -6.2 -13.3 -6.05 -13.3 -5.9 -13.35 -5.8 -13.35 -5.3 -13.45 -5.1 -13.55 -5.05 -13.6 -5.0 -13.7 -5.0 -13.8 -5.05 -13.85 -5.1 -13.9 -5.15 -13.9 -5.3 -13.95 -5.3 -13.95 -5.8 -13.9 -5.9 -13.9 -6.0 -13.85 -6.3 -13.8 -6.45 -13.7 -6.55 -13.6 -6.65 -13.5 -6.7 M-12.65 -6.3 L-12.6 -6.45 -12.5 -6.5 -12.4 -6.55 -12.3 -6.5 -12.2 -6.45 -12.15 -6.3 -12.15 -6.2 -12.2 -5.7 -12.25 -5.55 -12.35 -5.5 -12.45 -5.5 -12.5 -5.5 -12.6 -5.6 -12.6 -5.7 -12.65 -6.2 -12.65 -6.3 M-0.6 -3.7 L-0.45 -3.75 -0.55 -3.5 Q-1.75 -1.6 -1.2 1.7 L-0.95 2.8 -1.1 2.5 Q-1.9 0.75 -1.9 -1.0 L-1.85 -1.2 -1.25 -3.7 -1.15 -3.7 -0.75 -3.7 -0.6 -3.7 M-4.7 5.6 L-4.65 5.7 -4.7 5.85 -4.8 5.95 -4.9 6.05 -5.0 6.1 -5.1 6.1 -5.2 6.05 -5.25 5.95 -5.3 5.8 -5.25 5.65 -5.15 5.6 -5.05 5.55 -4.95 5.5 -4.85 5.5 -4.75 5.5 -4.7 5.55 -4.7 5.6 M-0.25 4.45 L-0.45 4.3 -0.55 4.25 -0.7 3.55 -0.25 4.45 M-6.5 5.45 L-6.55 5.45 -6.5 5.3 -6.45 5.0 -6.35 4.9 -6.3 4.9 -6.2 4.95 -6.1 5.05 -5.95 5.7 -5.75 6.55 -5.8 6.7 -5.8 6.85 -5.85 6.85 -5.85 6.8 -5.95 6.7 -6.0 6.6 -6.1 6.45 -6.2 6.35 -6.25 6.2 -6.35 5.85 -6.45 5.7 -6.5 5.6 -6.5 5.45" fill="#333333" fill-rule="evenodd" stroke="none"/>
    <path d="M11.2 -25.9 L11.25 -25.85 11.25 -25.75 11.3 -24.95 11.25 -24.7 11.15 -19.7 11.1 -19.55 11.0 -19.45 10.9 -19.4 10.8 -19.5 10.75 -19.55 10.55 -24.95 10.55 -25.6 10.65 -25.8 10.7 -25.95 10.8 -26.0 10.9 -26.05 11.0 -26.0 11.1 -25.95 11.2 -25.9 M10.65 -17.45 L10.7 -17.6 10.8 -17.65 10.9 -17.7 11.0 -17.7 11.1 -17.65 11.15 -17.6 11.2 -17.55 11.2 -17.45 11.2 -14.85 11.2 -13.85 11.15 -9.95 11.1 -9.8 11.0 -9.75 10.9 -9.7 10.8 -9.75 10.75 -9.8 10.75 -9.95 10.7 -10.2 10.65 -11.2 10.65 -13.35 10.7 -14.85 10.65 -17.2 10.65 -17.45 M0.75 -7.15 L0.8 -7.05 0.8 -6.95 0.9 -6.9 1.0 -6.85 1.05 -6.8 1.15 -6.7 1.25 -6.6 1.3 -6.35 1.3 -5.6 1.25 -5.35 1.2 -5.1 1.15 -4.85 1.05 -4.7 0.95 -4.6 0.9 -4.55 0.85 -4.5 0.8 -4.45 0.7 -4.35 0.6 -4.25 0.4 -4.05 0.3 -3.95 0.25 -3.95 0.15 -3.9 0.1 -3.8 0.05 -3.65 0.0 -3.6 -0.05 -3.1 -0.1 -2.85 -0.2 -2.7 -0.25 -2.55 -0.35 -2.4 -0.45 -2.3 -0.55 -2.2 -0.65 -2.15 -0.7 -2.1 -0.75 -1.85 -0.8 -1.35 -0.8 -0.35 -0.85 -0.1 -0.95 0.0 -0.9 1.3 -0.85 1.35 -0.75 1.65 -0.7 1.75 -0.6 1.8 -0.6 1.85 -0.5 2.05 -0.4 2.25 -0.35 2.3 -0.35 2.35 -0.25 3.3 -0.2 3.35 -0.15 3.4 -0.1 3.55 0.0 3.6 0.05 3.65 0.15 3.65 0.25 3.65 0.3 3.75 0.3 3.85 0.5 4.0 0.65 4.15 0.75 4.3 0.85 4.45 1.0 4.65 1.05 4.8 1.05 4.85 1.2 5.35 1.25 5.4 1.3 5.55 1.3 5.9 1.25 6.1 1.15 6.25 1.05 6.35 0.9 6.5 0.8 6.5 0.9 6.6 0.9 6.8 0.85 7.1 0.75 7.2 0.65 7.3 0.55 7.35 0.5 7.4 -5.15 7.45 -11.05 7.4 -16.95 7.3 -18.2 7.3 -18.25 7.25 -18.35 7.2 -18.45 7.15 -18.55 7.15 -18.65 7.2 -18.75 7.2 -18.8 7.2 -18.85 7.25 -18.95 7.3 -19.0 7.35 -19.1 7.35 -19.2 7.3 -19.3 7.2 -19.4 7.05 -19.45 7.0 -19.55 6.95 -19.6 6.95 -19.65 6.85 -19.75 6.8 -19.8 6.65 -19.85 6.55 -19.9 6.35 -19.95 6.3 -20.05 6.15 -20.05 6.05 -20.1 6.0 -20.2 5.85 -20.3 5.75 -20.3 5.55 -20.35 4.2 -20.45 4.05 -20.55 3.95 -20.65 3.75 -20.75 3.65 -20.8 3.5 -20.85 3.45 -20.85 3.3 -20.85 2.7 -20.85 1.7 -20.75 1.5 -20.7 1.25 -20.6 1.1 -20.5 0.8 -20.45 0.65 -20.55 0.55 -20.6 0.3 -20.7 0.1 -20.75 -0.05 -20.85 -0.3 -20.95 -0.45 -21.05 -0.55 -21.05 -0.6 -21.05 -0.8 -21.1 -0.8 -21.1 -1.05 -21.05 -2.05 -21.0 -2.25 -20.9 -2.4 -20.85 -2.55 -20.8 -2.7 -20.75 -2.9 -20.65 -3.05 -20.55 -3.2 -20.45 -3.4 -20.35 -3.55 -20.3 -3.65 -20.25 -3.7 -20.25 -3.85 -20.35 -4.15 -20.4 -4.3 -20.4 -4.45 -20.45 -5.35 -20.35 -5.55 -20.25 -5.7 -20.2 -5.8 -20.2 -5.9 -20.1 -6.05 -20.0 -6.2 -20.0 -6.3 -20.0 -7.2 -19.95 -7.2 -19.85 -7.25 -19.75 -7.3 -19.7 -7.3 -19.6 -7.35 -19.5 -7.35 -19.4 -7.35 -19.3 -7.35 -19.05 -7.45 -19.0 -7.45 -18.95 -7.3 -18.9 -7.3 -14.2 -7.4 -9.25 -7.45 -6.35 -7.45 -4.0 -7.5 -1.45 -7.45 0.25 -7.45 0.3 -7.45 0.4 -7.4 0.5 -7.4 0.6 -7.3 0.7 -7.2 0.75 -7.15 M0.0 -6.15 L-0.05 -6.2 -1.95 -6.2 -4.6 -6.2 -6.25 -6.25 -11.15 -6.25 -16.3 -6.3 -18.95 -6.4 -18.95 -5.95 -19.0 -5.7 -19.1 -5.55 -19.2 -5.45 -19.25 -5.45 -19.2 -5.15 -18.6 -5.15 -17.75 -5.15 -17.0 -5.15 -16.9 -5.15 -16.8 -5.1 -16.7 -5.05 -16.6 -5.05 -16.45 -5.05 -16.25 -5.05 -16.15 -5.0 -16.1 -4.85 -16.15 -4.7 -16.25 -4.65 -16.35 -4.65 -16.45 -4.65 -16.5 -4.65 -16.6 -4.65 -16.7 -4.6 -16.8 -4.55 -17.55 -4.5 -18.5 -4.55 -19.15 -4.5 -19.2 -4.45 -19.25 -4.25 -19.3 -4.1 -19.3 -4.0 -19.25 -3.95 -19.15 -3.85 -19.1 -3.7 -19.15 -3.5 -19.25 -3.4 -19.25 -3.35 -19.3 -3.15 -19.4 -2.9 -19.5 -2.7 -19.6 -2.45 -19.7 -2.35 -19.75 -2.2 -19.85 -2.15 -19.85 -1.4 -19.8 -1.35 -19.75 -1.2 -19.7 -0.85 -19.65 -0.75 -19.55 -0.15 Q-19.35 0.65 -19.55 1.45 L-19.7 2.05 -19.75 2.1 -19.7 2.8 -19.65 2.9 -19.6 3.15 -19.5 3.25 -19.4 3.35 -19.3 3.5 -19.2 3.65 -19.15 3.75 -19.15 3.9 -19.1 4.8 -19.2 5.05 -19.25 5.15 -19.25 5.25 -19.2 5.35 -19.1 5.6 -19.0 5.75 -18.95 5.85 -18.85 5.95 -18.85 6.0 -18.8 6.25 -18.75 6.3 -18.7 6.25 -18.6 6.2 -18.5 6.2 -18.4 6.25 -18.3 6.3 -18.1 6.35 -12.5 6.2 -6.6 6.15 -0.7 6.15 -0.2 6.15 -0.2 6.05 -0.2 5.3 -0.25 5.1 -0.35 4.95 -0.45 4.85 -0.55 4.8 -0.65 4.7 -0.75 4.6 -0.85 4.55 -0.95 4.5 -1.0 4.35 -1.1 4.2 -1.15 4.15 -1.55 4.15 -3.15 4.1 -4.1 4.0 -4.15 3.95 -4.15 3.9 -4.2 3.8 -4.2 3.75 -4.1 3.65 -4.0 3.6 -2.6 3.5 -1.3 3.45 -1.35 2.85 -1.45 2.75 -1.5 2.5 -1.6 2.4 -1.65 2.3 -1.65 2.25 -1.75 2.05 -1.85 1.75 -1.85 1.7 -1.95 1.85 -2.0 1.95 -2.1 2.0 -3.7 2.0 -5.4 1.95 -6.35 2.05 -6.5 1.95 -6.7 1.8 -6.75 1.75 -6.8 1.6 -6.7 1.55 -6.6 1.5 -6.5 1.5 -6.4 1.5 -6.35 1.55 -6.15 1.5 -5.95 1.45 -5.75 1.35 -4.45 1.35 -4.15 1.35 -3.65 1.35 -3.1 1.3 -3.05 1.3 -2.1 1.35 -2.05 1.4 -1.95 1.45 -1.95 1.4 -1.95 0.4 -2.1 0.4 -2.1 0.35 -2.0 0.15 -1.95 -0.05 -2.0 -0.25 -1.95 -0.25 -1.95 -0.35 -1.9 -0.55 -1.85 -0.7 -1.85 -1.35 -1.85 -1.65 -2.0 -1.65 -2.1 -1.65 -2.2 -1.6 -4.1 -1.55 -5.95 -1.55 -7.2 -1.65 -7.35 -1.55 -7.55 -1.55 -7.75 -1.5 -8.05 -1.55 -8.3 -1.65 -8.5 -1.7 -8.7 -1.65 -8.85 -1.6 -9.0 -1.6 -9.05 -1.6 -9.05 -1.7 -9.05 -1.75 -8.95 -1.8 -8.85 -1.85 -8.75 -1.9 -8.7 -1.9 -8.6 -1.95 -8.5 -2.0 -8.3 -1.95 -8.1 -1.95 -7.95 -1.9 -7.75 -1.9 -7.45 -1.95 -7.2 -2.05 -7.1 -2.1 -5.3 -2.1 -3.45 -2.1 -2.3 -2.1 -2.2 -2.05 -2.1 -2.05 -1.95 -2.05 -1.85 -2.05 -1.85 -2.35 -1.75 -2.6 -1.7 -2.85 -1.6 -2.95 -1.5 -3.05 -1.4 -3.1 -1.3 -3.15 -1.2 -3.2 -1.15 -3.25 -1.15 -3.3 -1.0 -4.1 -0.95 -4.35 -3.1 -4.35 -6.15 -4.45 -7.95 -4.4 -8.05 -4.4 -8.15 -4.45 -8.25 -4.45 -8.35 -4.45 -8.45 -4.55 -8.6 -4.55 -8.75 -4.6 -8.8 -4.7 -8.8 -4.75 -8.7 -4.8 -8.6 -4.8 -8.5 -4.8 -8.45 -4.85 -8.35 -4.9 -8.25 -4.85 -8.15 -4.85 -8.05 -4.8 -7.95 -4.8 -7.75 -4.85 -7.65 -4.85 -7.6 -4.9 -7.5 -4.95 -4.7 -5.0 -1.75 -5.05 -0.2 -5.05 -0.2 -5.1 -0.1 -5.2 0.0 -5.3 0.1 -5.4 0.15 -5.45 0.2 -5.6 0.25 -5.7 0.2 -6.0 0.1 -6.05 0.0 -6.15 M11.45 9.45 L11.45 9.55 11.45 10.25 11.45 12.9 11.4 17.15 11.35 17.3 11.25 17.35 11.15 17.35 11.1 17.35 10.9 16.9 10.9 12.8 10.9 12.3 10.9 10.15 10.9 9.55 10.95 9.4 11.05 9.35 11.15 9.3 11.25 9.3 11.35 9.35 11.4 9.4 11.45 9.45 M11.5 21.65 L11.6 21.7 11.65 21.7 11.7 21.8 11.7 21.9 11.75 22.65 11.8 24.65 11.75 24.85 11.65 25.0 11.55 25.05 11.45 25.1 11.4 25.1 11.3 25.05 11.2 24.95 11.15 24.85 11.1 24.8 11.1 24.65 11.05 24.65 11.1 23.15 11.15 22.15 11.15 21.9 11.2 21.75 11.3 21.7 11.4 21.65 11.5 21.65 M-9.0 1.6 L-9.1 1.7 -9.2 1.8 -9.6 1.8 -10.05 1.8 -10.45 1.8 -10.5 1.8 -10.6 1.75 -10.65 1.7 -10.7 1.55 -10.65 1.4 -10.55 1.35 -10.2 1.3 -9.7 1.3 -9.25 1.35 -9.15 1.4 -9.05 1.5 -9.0 1.6 M-13.1 3.55 L-11.75 3.55 -11.7 3.55 -11.6 3.6 -11.5 3.6 -11.4 3.6 -11.3 3.6 -11.2 3.6 -11.1 3.65 -11.0 3.7 -10.95 3.75 -10.85 3.75 -10.75 3.75 -10.7 3.8 -10.75 3.85 -10.85 3.85 -10.95 3.85 -11.0 3.95 -11.1 4.05 -11.2 4.05 -11.3 4.05 -11.4 4.05 -11.5 4.05 -11.6 4.05 -11.7 4.1 -13.55 4.1 -15.6 4.1 -17.0 4.05 -17.1 4.1 -17.2 4.15 -17.3 4.2 -17.25 4.15 -17.15 4.05 -17.1 3.85 -17.0 3.65 -17.0 3.6 -15.15 3.55 -13.1 3.55" fill="#333333" fill-rule="evenodd" stroke="none"/>
  </g>
</svg>
