<?xml version="1.0" encoding="UTF-8" standalone="no"?>
<svg xmlns:xlink="http://www.w3.org/1999/xlink" height="38.0px" width="49.65px" xmlns="http://www.w3.org/2000/svg">
  <g transform="matrix(1.0, 0.0, 0.0, 1.0, -0.7, 52.6)">
    <path d="M47.45 -18.85 L48.0 -19.35 Q48.35 -19.55 48.75 -19.35 L49.3 -18.8 50.3 -15.9 50.25 -15.1 49.65 -14.65 48.9 -14.7 Q48.5 -14.9 48.4 -15.3 L47.45 -18.05 Q47.25 -18.45 47.45 -18.85 M42.25 -29.8 L43.0 -29.95 Q43.4 -29.9 43.65 -29.55 L45.25 -27.05 45.4 -26.3 44.9 -25.7 44.15 -25.55 43.55 -26.0 42.0 -28.4 Q41.75 -28.75 41.85 -29.15 L42.25 -29.8 M28.25 -44.2 L28.1 -43.45 Q27.9 -43.1 27.5 -43.0 L26.7 -43.15 24.25 -44.6 Q23.85 -44.85 23.75 -45.2 23.65 -45.6 23.85 -45.95 L24.45 -46.45 25.2 -46.35 27.8 -44.85 28.25 -44.2 M35.0 -39.35 L37.15 -37.25 37.2 -37.2 37.75 -36.65 38.05 -35.95 37.75 -35.25 Q37.45 -34.95 37.05 -34.95 36.65 -34.95 36.35 -35.25 L35.8 -35.8 35.75 -35.85 33.65 -37.85 Q33.3 -38.15 33.3 -38.55 L33.55 -39.25 Q33.85 -39.6 34.25 -39.6 L35.0 -39.35 M12.7 -50.15 Q12.8 -50.55 13.15 -50.75 L13.95 -50.85 16.8 -50.0 Q17.2 -49.85 17.4 -49.5 L17.45 -48.75 16.95 -48.15 16.2 -48.1 13.4 -48.9 12.8 -49.4 Q12.55 -49.75 12.7 -50.15 M1.7 -50.6 Q1.25 -50.6 1.0 -50.9 0.7 -51.2 0.7 -51.6 0.7 -52.05 1.05 -52.3 1.3 -52.6 1.75 -52.6 L4.85 -52.4 Q5.25 -52.35 5.55 -52.0 L5.75 -51.3 5.4 -50.6 4.65 -50.4 1.7 -50.6" fill="#ffffff" fill-rule="evenodd" stroke="none"/>
  </g>
</svg>
