<?xml version="1.0" encoding="UTF-8" standalone="no"?>
<svg xmlns:xlink="http://www.w3.org/1999/xlink" height="34.05px" width="85.15px" xmlns="http://www.w3.org/2000/svg">
  <g transform="matrix(1.0, 0.0, 0.0, 1.0, 42.55, 17.0)">
    <path d="M7.75 -9.65 L30.55 -9.6 30.5 -9.7 30.4 -9.75 30.4 -9.85 30.4 -9.95 30.4 -10.0 30.4 -10.1 30.4 -10.2 30.4 -10.3 30.4 -10.35 30.4 -10.45 30.45 -10.55 30.5 -10.65 30.5 -10.7 30.5 -10.8 30.5 -10.85 30.35 -10.85 30.1 -10.9 29.95 -11.0 29.9 -11.1 29.8 -11.15 29.8 -11.25 29.8 -11.35 29.8 -11.6 29.8 -11.85 29.8 -11.95 29.8 -12.1 29.8 -12.35 29.8 -12.55 29.8 -12.65 29.85 -12.7 29.9 -12.8 29.95 -12.9 30.0 -12.95 30.0 -13.05 30.05 -13.15 30.05 -13.25 30.05 -13.3 30.05 -13.4 30.1 -13.5 30.15 -13.55 30.15 -13.65 30.2 -13.75 31.1 -14.65 Q32.2 -15.4 33.55 -15.75 L34.3 -15.85 34.35 -15.95 34.5 -16.05 34.65 -16.1 34.85 -16.2 34.95 -16.25 35.15 -16.3 37.45 -16.25 38.3 -16.05 38.6 -16.0 38.85 -16.0 39.0 -15.9 39.4 -15.65 39.7 -15.35 39.85 -15.2 40.0 -15.05 40.05 -15.05 40.2 -15.05 40.45 -14.95 40.6 -14.9 40.65 -14.8 40.7 -14.7 40.7 -14.65 40.75 -14.55 40.8 -14.45 40.85 -14.4 40.95 -14.3 41.0 -14.2 41.05 -14.1 41.1 -14.05 41.15 -13.95 41.2 -13.85 41.2 -13.75 41.2 -13.7 41.2 -13.6 41.2 -13.5 41.2 -13.45 41.2 -13.35 41.2 -13.15 41.2 -13.1 41.15 -13.0 41.1 -12.9 41.05 -12.85 41.0 -12.75 40.9 -12.65 40.85 -12.55 40.8 -12.5 40.75 -12.4 40.65 -12.3 40.55 -12.25 40.45 -12.15 40.4 -12.05 40.3 -11.95 40.25 -11.9 40.15 -11.8 40.05 -11.7 40.0 -11.65 39.95 -11.55 39.9 -11.45 39.85 -11.35 39.8 -11.3 39.8 -11.2 39.7 -11.1 39.6 -10.95 39.45 -10.75 39.3 -10.6 39.25 -10.5 39.1 -10.35 39.1 -10.25 39.05 -10.15 39.0 -10.1 38.95 -10.0 38.9 -9.9 38.85 -9.8 38.8 -9.75 38.7 -9.65 38.65 -9.55 38.85 -9.55 39.15 -9.85 39.55 -10.05 40.15 -10.1 40.15 -10.15 40.85 -9.95 41.25 -9.65 41.55 -9.35 41.85 -9.05 41.95 -8.75 42.05 -8.45 42.15 -8.15 42.15 -7.85 42.15 -7.55 42.15 -7.25 42.05 -6.95 41.6 -6.7 40.65 -6.05 40.35 -5.85 39.75 -5.75 39.05 -5.9 39.05 -5.75 38.95 -4.85 38.95 -4.25 38.95 -3.35 38.95 -3.05 38.85 -2.75 38.65 -2.15 38.45 -1.55 38.35 -1.25 38.25 -0.95 38.05 -0.65 37.95 -0.35 37.85 -0.05 37.65 0.25 37.45 0.55 37.25 0.85 37.15 1.15 37.05 1.45 36.85 1.75 36.75 2.05 36.65 2.35 36.45 2.65 36.25 2.95 36.25 3.55 36.25 4.45 36.25 5.05 36.25 6.25 36.25 6.55 36.15 6.85 35.95 7.15 35.85 7.45 35.75 7.75 35.65 8.05 35.45 8.65 35.25 8.95 34.95 9.55 34.65 10.15 34.55 10.45 34.35 10.75 34.35 11.05 34.35 11.35 34.3 11.65 34.25 12.25 34.2 12.55 34.05 12.85 33.95 13.15 33.85 13.45 33.75 13.75 33.6 14.05 33.35 14.35 32.95 14.65 32.95 14.7 32.95 14.8 32.95 14.85 32.95 14.95 32.9 15.05 32.85 15.15 32.8 15.2 32.7 15.3 32.55 15.35 32.4 15.4 32.15 15.4 32.05 15.45 31.85 15.65 31.75 15.75 31.65 15.8 31.55 15.9 31.35 16.0 28.05 16.35 27.55 16.25 15.5 15.95 15.0 15.95 Q6.7 15.55 -1.55 16.15 L-6.55 15.95 -7.8 15.85 -12.95 15.85 -13.6 16.0 Q-17.05 16.2 -20.45 15.9 L-20.95 15.9 -31.95 15.7 -32.2 15.65 -32.35 15.55 -32.45 15.45 -32.5 15.4 -32.55 15.3 -32.55 15.2 -32.55 15.15 -32.55 15.05 -32.5 14.95 -32.45 14.85 -32.4 14.8 -32.25 14.7 -32.65 14.45 -33.05 14.15 -33.25 13.85 -33.35 13.55 -33.45 13.25 -33.45 12.95 -33.65 12.65 -33.75 12.35 -33.95 12.05 -34.15 11.75 -34.25 11.45 -34.25 11.15 -34.25 10.85 -34.25 10.55 -34.25 10.25 -34.2 9.35 -34.3 8.15 -34.35 7.85 -34.35 7.55 -34.25 7.25 -34.25 6.95 -34.3 6.65 -34.45 6.35 -34.75 6.05 -34.95 5.75 -35.05 5.45 -35.55 4.55 -36.25 3.05 -36.25 2.75 -36.35 2.45 -36.55 2.15 -36.65 1.85 -36.65 1.55 -36.65 1.25 -36.65 0.95 -36.65 0.65 -36.65 0.35 -36.7 0.05 -36.85 -0.25 -37.05 -0.55 -37.25 -0.85 -37.45 -1.15 -37.85 -1.75 -38.35 -2.65 -38.45 -2.95 -38.55 -3.25 -38.65 -3.55 -38.65 -3.85 -38.65 -4.15 -38.65 -4.45 -38.65 -4.75 -38.65 -5.05 -38.65 -5.35 -38.65 -5.65 -38.6 -5.8 -40.65 -6.2 -41.45 -6.35 -41.85 -6.65 -42.05 -6.95 -42.15 -7.25 -42.25 -7.55 -42.25 -7.85 -42.25 -8.15 -42.15 -8.45 -41.95 -8.75 -41.65 -9.05 -41.25 -9.25 -40.65 -9.3 -37.4 -9.35 -37.5 -9.4 -37.65 -9.5 -37.7 -9.6 -37.8 -9.7 -37.85 -9.75 -37.9 -9.85 -37.9 -9.95 -37.95 -10.0 -37.95 -10.1 -38.05 -10.2 -38.1 -10.3 -38.15 -10.35 -38.35 -10.55 -38.5 -10.6 -38.65 -10.7 -38.9 -10.9 -38.95 -10.95 -39.15 -11.0 -39.3 -11.1 -39.35 -11.15 -39.45 -11.25 -39.5 -11.35 -39.7 -11.45 -39.8 -11.5 -39.9 -11.6 -39.95 -11.7 -40.15 -11.8 -40.25 -11.85 -40.4 -12.05 -40.5 -12.2 -40.55 -12.3 -40.55 -12.35 -40.6 -12.45 -40.6 -12.55 -40.6 -12.7 -40.6 -12.95 -40.6 -13.05 -40.6 -13.15 -40.6 -13.25 -40.6 -13.4 -40.6 -13.55 -40.55 -13.65 -40.5 -13.75 -40.45 -13.85 -40.35 -13.9 -40.25 -14.0 -40.25 -14.1 -40.25 -14.15 -40.25 -14.25 -40.25 -14.35 -40.2 -14.45 -40.15 -14.5 -40.1 -14.6 -40.0 -14.7 -39.9 -14.8 -39.7 -14.95 -39.55 -15.05 -39.45 -15.1 -39.05 -15.35 -38.9 -15.45 -38.8 -15.45 -38.65 -15.5 -38.55 -15.6 -37.75 -15.85 -37.35 -15.85 -36.5 -16.1 -36.35 -16.15 -36.15 -16.15 -36.15 -16.2 -35.0 -16.2 -34.75 -16.1 -34.65 -16.05 -34.55 -15.95 -34.5 -15.85 -33.0 -15.5 -32.7 -15.4 -31.85 -15.15 -31.8 -15.25 -31.7 -15.3 -31.6 -15.4 -31.35 -15.45 -31.15 -15.4 -30.95 -15.3 -30.9 -15.25 -30.8 -15.15 -30.75 -15.05 -30.7 -14.95 -30.65 -14.9 -30.65 -14.8 -30.6 -14.7 -30.5 -14.65 -30.4 -14.55 -30.35 -14.45 -30.25 -14.4 -30.2 -14.3 -30.05 -14.1 -30.0 -14.05 -30.0 -13.95 -29.95 -13.85 -29.85 -13.75 -29.85 -13.7 -29.8 -13.6 -29.8 -13.5 -29.8 -13.45 -29.8 -13.25 -29.8 -13.1 -29.8 -13.0 -29.8 -12.9 -29.85 -12.85 -29.9 -12.75 -29.95 -12.65 -29.95 -12.55 -29.95 -12.5 -30.0 -12.4 -30.05 -12.25 -30.05 -12.15 -30.05 -12.05 -30.05 -11.95 -30.05 -11.9 -30.05 -11.8 -30.05 -11.7 -30.05 -11.65 -30.05 -11.55 -30.1 -11.45 -30.15 -11.35 -30.15 -11.3 -30.15 -11.2 -30.15 -11.1 -30.15 -11.05 -30.15 -10.95 -30.2 -10.85 -30.25 -10.75 -30.25 -10.7 -30.25 -10.6 -30.3 -10.5 -30.35 -10.4 -30.4 -10.35 -30.45 -10.25 -30.45 -10.15 -30.45 -9.8 -30.45 -9.75 -30.45 -9.65 -30.45 -9.5 -30.45 -9.2 -30.45 -9.15 -27.95 -9.15 -27.05 -9.3 -24.25 -9.55 -23.45 -9.7 -23.45 -9.75 -8.65 -9.75 -7.75 -9.55 -5.65 -9.4 6.75 -9.2 7.05 -9.45 7.75 -9.65 M31.85 -13.2 L31.85 -13.1 31.85 -13.05 31.9 -12.95 31.9 -12.85 31.95 -12.75 31.95 -12.7 31.95 -12.6 31.95 -12.5 31.95 -12.45 31.95 -12.35 31.95 -12.25 32.0 -12.15 32.0 -12.1 32.05 -12.0 32.05 -11.9 32.05 -11.85 32.05 -11.75 32.05 -11.65 32.05 -11.55 32.05 -11.4 32.1 -11.3 32.1 -11.25 32.15 -11.15 32.15 -11.05 32.15 -10.95 32.15 -10.9 32.15 -10.8 32.15 -10.7 32.15 -10.65 32.15 -10.55 32.15 -10.45 32.1 -10.35 32.05 -10.3 32.0 -10.2 31.9 -10.1 31.75 -10.05 31.5 -10.0 31.5 -9.95 31.45 -9.9 31.4 -9.8 31.4 -9.7 31.35 -9.6 35.65 -9.55 35.5 -9.6 35.25 -9.6 35.1 -9.7 35.05 -9.8 34.95 -9.9 34.95 -9.95 34.9 -10.05 34.9 -10.15 34.9 -10.2 34.95 -10.3 34.95 -10.4 35.05 -10.45 35.85 -11.05 36.75 -11.45 37.25 -11.75 37.45 -11.85 37.5 -11.95 37.5 -12.05 37.5 -12.1 37.55 -12.2 37.55 -12.3 37.65 -12.35 37.95 -12.7 38.2 -12.95 38.45 -13.25 38.7 -13.55 38.8 -13.65 38.7 -13.7 38.5 -13.75 38.45 -13.75 37.9 -13.85 37.75 -13.95 37.55 -14.0 37.1 -14.15 36.95 -14.25 36.55 -14.35 35.85 -14.4 35.35 -14.45 35.3 -14.4 35.1 -14.35 35.0 -14.3 34.85 -14.25 34.65 -14.25 34.25 -14.15 34.1 -14.05 32.85 -13.55 32.15 -13.35 31.95 -13.3 31.85 -13.2 M-36.5 -13.95 L-37.2 -13.85 -37.35 -13.8 -37.45 -13.75 -37.7 -13.7 -37.85 -13.7 -37.95 -13.65 -37.95 -13.55 -37.95 -13.45 -37.95 -13.2 -37.95 -13.1 -37.95 -13.05 -37.95 -12.95 -37.95 -12.85 -37.95 -12.75 -37.95 -12.7 -37.95 -12.6 -37.9 -12.5 -37.8 -12.45 -37.75 -12.35 -37.65 -12.25 -37.5 -12.15 -37.45 -12.1 -37.45 -12.0 -37.35 -11.9 -37.35 -11.85 -37.35 -11.75 -37.35 -11.65 -37.3 -11.55 -37.15 -11.5 -37.0 -11.4 -36.9 -11.3 -36.8 -11.25 -36.7 -11.15 -36.55 -11.05 -36.35 -10.9 -36.25 -10.8 -36.1 -10.7 -35.95 -10.6 -35.85 -10.55 -35.8 -10.45 -35.75 -10.35 -35.7 -10.3 -35.65 -10.2 -35.6 -10.1 -35.55 -10.0 -35.5 -9.95 -35.45 -9.85 -35.35 -9.75 -35.25 -9.7 -35.2 -9.6 -35.15 -9.5 -35.15 -9.4 -35.15 -9.35 -35.05 -9.35 -34.35 -9.15 -32.25 -9.15 -32.25 -9.2 -32.2 -9.3 -32.2 -9.4 -32.15 -9.5 -32.05 -9.55 -32.05 -9.65 -32.0 -9.75 -31.95 -9.8 -31.95 -9.9 -31.9 -10.0 -31.85 -10.1 -31.8 -10.15 -31.8 -10.25 -31.8 -10.35 -31.8 -10.4 -31.8 -10.5 -31.75 -10.6 -31.7 -10.7 -31.65 -10.75 -31.6 -10.85 -31.6 -10.95 -31.6 -11.05 -31.6 -11.1 -31.6 -11.3 -31.6 -11.45 -31.6 -11.55 -31.6 -11.65 -31.6 -11.7 -31.6 -11.8 -31.6 -11.9 -31.6 -11.95 -31.65 -12.05 -31.65 -12.25 -31.7 -12.3 -31.7 -12.4 -31.75 -12.5 -31.8 -12.55 -31.8 -12.65 -31.8 -12.75 -31.9 -12.85 -32.1 -12.9 -32.35 -13.0 -32.5 -13.1 -32.6 -13.15 -32.7 -13.25 -32.75 -13.3 -32.95 -13.35 -33.1 -13.45 -33.3 -13.55 -34.25 -13.95 -34.4 -14.0 -34.8 -14.15 -34.9 -14.25 -34.95 -14.25 -35.1 -14.25 -35.2 -14.15 -35.3 -14.15 -36.4 -14.0 -36.5 -13.95" fill="#a6b8bf" fill-rule="evenodd" stroke="none"/>
    <path d="M7.35 -6.75 L7.85 -7.05 8.5 -7.4 8.85 -7.75 9.2 -8.0 9.45 -8.05 10.0 -8.15 10.0 -8.2 10.9 -8.2 11.7 -7.95 12.3 -7.75 13.1 -7.5 13.4 -7.15 13.65 -6.8 13.8 -6.5 13.85 -6.15 13.8 -5.8 13.65 -5.45 13.45 -5.1 13.4 -4.8 13.3 -4.45 13.2 -4.1 12.95 -3.75 12.65 -3.4 11.85 -3.15 9.1 -3.2 8.5 -3.3 8.3 -3.25 7.7 -3.2 5.9 -3.15 5.1 -3.4 4.6 -3.75 4.45 -4.1 4.4 -4.3 4.3 -4.35 3.0 -4.3 2.7 -3.95 3.35 -3.65 3.55 -3.25 3.7 -2.95 3.8 -2.6 3.8 -2.25 3.7 -1.9 3.45 -1.6 3.1 -1.25 2.8 -1.0 2.2 -0.9 0.6 -0.65 0.25 -0.3 -0.05 0.05 -0.4 0.4 -0.65 0.6 -0.9 0.7 -1.45 0.8 -4.2 0.85 -5.0 0.6 -5.3 0.25 -5.55 -0.1 -5.7 -0.4 -5.75 -0.55 -6.35 -0.9 -6.7 -1.2 -7.05 -1.6 -7.3 -1.9 -7.5 -2.25 -7.95 -2.6 -8.3 -2.95 -8.55 -3.3 -8.65 -3.65 -8.65 -3.95 -8.65 -4.3 -8.8 -4.65 -9.1 -5.0 -10.05 -5.0 -10.6 -4.75 -11.2 -5.0 -11.45 -5.4 -11.5 -5.7 -11.45 -6.0 -11.2 -6.4 -10.85 -6.7 -10.6 -6.9 -10.15 -7.05 -9.25 -7.15 -8.3 -7.2 -7.85 -7.05 -7.4 -7.05 -6.95 -7.05 -6.05 -6.9 -5.35 -6.75 -4.75 -6.6 -0.9 -7.25 3.15 -7.75 5.4 -7.75 6.2 -7.5 6.55 -7.15 6.8 -6.85 7.05 -6.6 7.35 -6.75" fill="#663300" fill-opacity="0.2" fill-rule="evenodd" stroke="none"/>
    <path d="M9.0 -7.7 L9.55 -7.8 9.55 -7.85 10.35 -7.65 10.8 -7.3 11.0 -6.95 11.15 -6.6 11.25 -6.25 11.25 -5.9 11.25 -5.55 11.25 -5.25 11.15 -4.9 11.05 -4.55 10.85 -4.25 10.45 -3.85 10.1 -3.65 9.55 -3.5 7.7 -3.65 6.9 -3.85 5.75 -3.85 5.3 -3.45 5.2 -3.15 5.15 -2.85 5.1 -2.5 4.95 -2.15 4.95 -1.8 5.05 -1.45 5.2 -1.1 5.3 -0.75 5.3 -0.4 5.3 0.25 5.3 0.95 5.15 1.3 4.95 1.65 4.35 2.3 3.95 2.65 3.15 2.9 0.4 2.8 -0.4 2.55 -0.85 2.2 -1.1 1.85 -1.2 1.5 -1.2 1.2 -1.2 0.85 -1.2 0.5 -1.1 0.15 -1.0 -0.2 -1.0 -0.5 -1.2 -0.9 -1.45 -1.2 -1.8 -1.55 -2.35 -1.75 -4.2 -2.25 -5.0 -2.5 -5.45 -2.85 -5.7 -3.15 -5.75 -3.5 -5.8 -3.85 -5.8 -4.2 -5.8 -4.55 -5.8 -4.9 -5.75 -5.2 -5.55 -5.55 -5.35 -5.9 -5.0 -6.15 -4.2 -6.3 -1.1 -6.5 -0.65 -6.7 2.7 -6.8 3.6 -6.85 4.6 -7.1 5.4 -7.3 7.7 -7.35 8.4 -7.4 8.75 -7.65 9.0 -7.7" fill="#663300" fill-opacity="0.2" fill-rule="evenodd" stroke="none"/>
    <path d="M13.2 -1.4 L13.2 -1.45 15.5 -1.45 16.3 -1.2 16.9 -0.9 17.55 -0.55 17.8 -0.2 18.0 0.15 20.05 0.45 20.9 0.6 21.3 0.95 21.65 1.3 21.9 1.65 22.1 2.0 22.25 2.3 22.2 2.65 22.15 3.0 22.0 3.35 21.8 3.7 21.35 4.05 20.55 4.25 20.1 4.25 19.3 4.05 18.6 4.05 18.6 4.4 18.6 4.75 18.6 5.05 18.6 5.4 18.45 5.75 18.35 6.1 18.25 6.45 18.0 6.8 17.65 7.15 16.85 7.35 15.5 7.6 15.05 7.95 14.7 8.15 13.8 8.4 13.3 8.6 12.75 8.7 11.4 8.75 10.55 8.5 10.1 8.15 9.9 7.8 9.8 7.45 9.75 7.15 9.75 6.8 9.75 6.45 9.75 5.75 9.75 5.4 9.75 5.05 9.8 4.9 8.65 4.5 7.85 4.25 7.5 3.9 7.3 3.55 7.15 3.25 7.15 2.9 7.2 2.55 7.4 2.2 7.75 1.9 8.05 1.65 8.65 1.55 11.15 1.3 11.4 0.95 11.45 0.6 11.5 0.25 11.5 -0.1 11.65 -0.4 11.85 -0.75 12.2 -1.1 12.65 -1.35 13.2 -1.4" fill="#663300" fill-opacity="0.2" fill-rule="evenodd" stroke="none"/>
    <path d="M19.15 -3.85 L19.95 -3.65 20.4 -3.3 20.65 -2.95 20.85 -2.6 21.0 -2.25 21.0 -1.9 21.05 -1.6 21.45 -1.2 21.7 -0.9 21.8 -0.55 21.9 -0.2 22.15 0.15 22.45 0.5 22.7 0.85 23.15 1.5 23.25 1.85 23.3 2.2 23.3 2.55 23.3 3.25 23.3 3.95 23.15 4.25 23.05 4.6 22.95 4.95 22.7 5.3 22.35 5.65 22.0 5.95 21.2 6.55 20.55 6.65 18.25 6.55 17.45 6.35 17.0 5.95 16.65 5.65 16.4 5.4 16.3 5.35 13.65 5.2 12.85 4.95 12.4 4.6 12.1 4.25 11.95 3.95 11.95 3.6 12.0 3.25 12.05 2.9 12.2 2.6 12.5 2.2 12.75 1.85 12.75 1.5 12.75 1.2 12.9 0.85 13.1 0.5 13.2 0.15 13.2 -0.2 13.2 -0.55 13.35 -0.85 13.55 -1.2 13.8 -1.55 14.1 -1.8 14.35 -1.9 15.05 -2.05 15.85 -1.9 16.15 -2.05 16.4 -2.35 16.85 -2.75 17.2 -3.05 17.45 -3.4 17.8 -3.65 18.0 -3.7 18.7 -3.8 18.7 -3.85 19.15 -3.85" fill="#663300" fill-opacity="0.2" fill-rule="evenodd" stroke="none"/>
    <path d="M26.05 6.65 L26.95 6.65 27.75 6.9 28.3 7.25 28.65 7.5 29.7 7.65 30.5 7.8 30.95 8.2 31.3 8.5 31.65 8.85 31.75 9.2 31.85 9.55 32.2 9.9 32.55 10.2 32.65 10.55 32.8 10.9 33.0 11.25 33.2 11.6 33.4 11.95 33.55 12.3 33.7 12.65 33.8 13.0 33.8 13.3 33.8 13.65 33.7 14.0 33.55 14.35 33.35 14.65 33.0 15.0 32.65 15.25 32.0 15.4 30.85 15.3 29.3 15.5 26.5 16.2 20.1 16.2 19.3 15.95 18.85 15.6 18.5 15.25 18.3 14.95 18.0 14.55 17.55 14.55 17.1 14.9 16.5 15.2 15.05 15.85 11.4 15.85 10.45 15.6 10.0 15.25 9.75 14.9 9.6 14.65 9.2 14.55 8.5 14.9 8.15 15.25 7.6 15.6 6.9 15.95 6.55 16.2 5.9 16.25 4.95 16.3 4.05 16.05 3.6 15.7 3.4 15.35 3.25 15.05 3.15 14.7 3.15 14.35 3.15 14.0 3.15 13.65 3.25 13.35 3.5 12.95 3.7 12.65 4.05 12.3 4.5 11.95 5.45 11.75 6.7 11.5 7.35 11.1 7.85 10.8 8.15 10.55 13.6 9.9 20.55 9.4 21.35 9.65 21.8 10.0 22.0 10.35 22.25 10.7 22.45 10.9 22.75 10.9 22.8 10.7 22.9 10.35 23.15 9.65 23.55 9.0 24.05 8.25 24.65 7.25 25.1 6.9 26.0 6.75 26.05 6.65" fill="#663300" fill-opacity="0.2" fill-rule="evenodd" stroke="none"/>
    <path d="M28.55 5.85 L28.65 5.65 28.7 5.3 28.8 4.95 28.95 4.65 29.25 4.25 29.6 3.95 29.8 3.7 30.05 3.6 30.6 3.55 30.6 3.45 31.3 3.7 32.0 3.95 32.55 4.15 32.75 4.5 32.9 4.85 32.75 5.2 32.55 5.55 32.35 5.85 32.0 6.1 31.75 6.45 31.75 6.8 31.75 7.15 31.75 7.8 31.8 8.85 31.85 9.55 31.85 9.9 31.75 10.2 31.65 10.55 31.45 10.85 31.05 11.25 30.7 11.5 30.15 11.55 29.7 11.6 28.9 11.35 28.45 11.0 28.05 10.75 27.75 10.7 27.65 11.0 27.5 11.35 27.4 11.7 27.5 12.05 27.5 12.4 27.4 12.75 27.2 13.1 27.05 13.45 26.6 13.75 26.25 14.0 25.55 14.1 24.65 13.9 24.2 13.55 23.85 13.2 23.5 12.85 22.8 12.15 22.55 12.25 22.45 12.5 22.25 12.85 22.1 13.2 21.9 13.55 21.45 13.9 20.55 14.1 19.6 14.1 16.85 13.7 15.85 13.55 15.6 13.9 15.15 14.2 14.8 14.45 13.2 14.5 11.25 14.2 11.05 14.1 9.1 14.0 8.3 13.75 7.95 13.4 7.75 13.05 7.7 12.75 7.75 12.4 7.85 12.05 8.05 11.7 8.3 11.5 8.5 11.4 9.1 11.3 11.05 11.15 11.25 11.0 11.7 10.8 11.85 10.45 12.1 10.1 12.4 9.8 12.75 9.55 13.0 9.45 13.65 9.35 15.5 9.3 16.55 9.55 17.65 9.55 18.0 9.2 18.45 8.95 19.15 8.85 20.1 8.6 20.75 8.3 21.45 7.95 21.9 7.7 22.15 7.6 22.85 7.5 23.3 7.5 24.2 7.7 24.65 8.05 24.85 8.0 25.1 7.7 25.6 7.05 26.3 6.35 26.6 6.1 26.85 6.0 27.4 5.9 27.85 5.85 28.55 5.85" fill="#663300" fill-opacity="0.2" fill-rule="evenodd" stroke="none"/>
    <path d="M-14.15 8.85 L-14.05 9.2 -13.9 9.55 -13.8 9.9 -13.8 10.2 -13.8 10.55 -13.75 10.7 -13.35 10.8 -12.45 10.8 -11.65 11.0 -11.2 11.35 -10.95 11.7 -10.7 12.05 -6.95 12.3 -6.15 12.5 -5.7 12.85 -5.45 13.2 -5.35 13.55 -5.25 13.9 -5.25 14.25 -5.35 14.55 -5.55 14.9 -5.8 15.25 -6.15 15.5 Q-17.35 16.75 -28.35 15.05 L-29.05 15.15 -29.5 15.5 -30.3 15.7 -31.1 15.5 -31.55 15.15 -31.9 14.8 -32.0 14.45 -32.0 14.1 -32.0 13.45 -32.0 12.75 -31.9 12.05 -31.75 11.75 -31.45 11.35 -30.85 11.0 -30.65 10.7 -30.65 10.35 -30.65 10.0 -30.65 9.65 -30.65 9.3 -30.65 8.95 -30.65 8.6 -30.5 8.3 -30.3 7.95 -29.95 7.6 -29.5 7.35 -28.9 7.3 -25.6 7.0 -25.6 6.65 -25.6 6.35 -25.6 6.0 -25.6 5.65 -25.6 5.3 -25.45 5.0 -25.15 4.65 -24.7 4.25 -23.9 4.1 -23.9 4.05 -22.95 4.05 -22.15 4.25 -21.7 4.65 -21.4 5.0 -20.95 5.65 -20.45 6.65 -20.35 7.0 -20.35 7.35 -20.35 7.7 -20.35 8.05 -20.2 8.2 -19.75 8.3 -19.55 8.2 -18.6 7.95 -18.15 7.7 -17.45 7.65 -16.1 7.6 -15.3 7.8 -14.7 8.15 -14.4 8.5 -14.15 8.85" fill="#663300" fill-opacity="0.2" fill-rule="evenodd" stroke="none"/>
    <path d="M-15.2 8.75 L-15.0 9.1 -14.85 9.4 -14.75 9.75 -14.7 10.1 -14.7 10.45 -14.7 10.8 -14.7 11.5 -14.85 11.8 -15.05 12.15 -15.3 12.5 -15.75 12.85 -16.55 13.1 -17.0 13.1 -17.95 12.85 -18.4 12.5 -18.85 12.15 -19.1 12.4 -19.4 12.65 -19.65 12.7 -20.2 12.8 -21.7 12.75 -22.5 12.75 -23.3 12.5 -23.65 12.15 -23.9 11.85 -24.8 11.5 -25.25 11.15 -25.5 10.8 -25.6 10.55 -25.6 10.5 -27.1 10.3 -28.0 10.1 -28.45 9.75 -28.95 9.45 -29.6 9.1 -29.95 8.7 -30.2 8.4 -30.25 8.05 -30.3 7.7 -30.3 7.35 -30.3 6.7 -30.2 5.65 -30.05 5.3 -29.8 4.95 -29.5 4.6 -29.15 4.25 -28.7 4.05 -28.0 3.95 -27.55 3.95 -26.75 4.15 -26.3 4.25 -26.2 4.05 -26.15 3.7 -26.05 3.35 -25.9 3.0 -25.7 2.7 -25.4 2.3 -25.25 2.0 -25.25 1.65 -25.1 1.3 -24.9 0.95 -24.55 0.6 -24.1 0.4 -23.45 0.3 -23.4 0.25 -22.95 0.25 -22.15 0.5 -21.6 0.85 -21.25 1.2 -21.0 1.5 -20.9 1.85 -20.8 2.2 -20.7 2.55 -20.55 2.9 -20.35 3.6 -20.1 3.9 -19.9 4.15 -19.85 4.2 -19.3 4.4 -18.4 4.6 -17.7 4.95 -17.35 5.3 -16.9 5.65 -16.6 6.0 -16.2 6.65 -16.15 7.0 -16.15 7.35 -16.2 7.7 -15.85 8.05 -15.55 8.4 -15.2 8.75" fill="#663300" fill-opacity="0.2" fill-rule="evenodd" stroke="none"/>
    <path d="M-31.2 -8.95 L-31.2 -9.0 -30.3 -9.0 -29.6 -8.8 -29.15 -8.45 -28.95 -8.1 -28.8 -7.75 -28.6 -7.4 -28.15 -7.05 -27.8 -6.7 -27.55 -6.35 -27.45 -6.05 -27.35 -5.7 -27.3 -5.35 -27.3 -5.0 -27.35 -4.65 -27.45 -4.3 -27.55 -4.0 -27.8 -3.65 -28.1 -3.4 -28.9 -3.25 -33.5 -3.15 -34.3 -3.4 -35.65 -3.85 -37.05 -4.3 -37.5 -4.65 -37.7 -5.0 -37.85 -5.35 -37.85 -5.7 -37.8 -6.05 -37.75 -6.4 -37.5 -6.7 -37.05 -7.05 -36.35 -7.4 -35.65 -7.75 -35.3 -8.1 -35.0 -8.3 -34.4 -8.4 -33.5 -8.4 -32.8 -8.3 -32.35 -8.45 -32.0 -8.8 -31.2 -8.95" fill="#663300" fill-opacity="0.2" fill-rule="evenodd" stroke="none"/>
    <path d="M-27.1 -1.0 L-26.3 -0.75 -25.75 -0.35 -25.6 -0.1 -25.5 0.25 -25.5 0.6 -25.5 0.95 -25.75 1.3 -26.05 1.65 -26.85 1.95 -27.55 2.2 -28.45 2.2 -29.15 2.0 -29.35 1.65 -29.5 1.3 -29.45 0.95 -29.35 0.65 -29.05 0.25 -28.6 -0.4 -28.35 -0.75 -27.55 -0.95 -27.55 -1.0 -27.1 -1.0" fill="#663300" fill-opacity="0.2" fill-rule="evenodd" stroke="none"/>
    <path d="M-13.8 -5.1 L-18.05 -4.75 -18.85 -4.6 -21.7 -4.3 -22.05 -4.0 -22.4 -3.75 -22.95 -3.65 -27.45 -3.05 -27.35 -2.7 -27.3 -2.35 -27.3 -2.05 -27.3 -1.7 -27.35 -1.35 -27.45 -0.65 -27.55 -0.3 -27.8 0.05 -28.2 0.4 -28.35 0.7 -28.5 1.05 -28.7 1.4 -29.05 1.65 -29.25 1.75 -29.85 1.85 -30.3 1.85 -31.1 1.65 -31.55 1.3 Q-31.65 1.2 -31.8 1.15 L-32.6 0.9 -33.4 0.7 -33.85 0.4 -34.05 0.0 -34.2 -0.3 -34.2 -0.65 -34.3 -1.0 -34.55 -1.35 -34.6 -1.7 -34.65 -2.05 -34.65 -2.35 -34.65 -2.7 -34.65 -3.05 -34.65 -3.3 -34.6 -3.35 -35.8 -3.55 -36.6 -3.75 -36.8 -4.1 -37.0 -4.45 -37.05 -4.75 -37.0 -5.1 -36.8 -5.45 -36.6 -5.8 -35.8 -5.95 -32.45 -6.25 -32.0 -6.6 -31.2 -6.85 -26.5 -7.05 -25.85 -7.4 -25.35 -7.65 -24.8 -7.7 -17.95 -8.15 -17.95 -8.2 -13.8 -8.05 -11.3 -7.65 -10.95 -7.25 -10.85 -7.05 -10.7 -7.0 -10.05 -6.65 -9.9 -6.5 -10.15 -6.4 -10.85 -6.15 -11.1 -5.8 -11.3 -5.55 -11.4 -5.5 -13.8 -5.1" fill="#663300" fill-opacity="0.2" fill-rule="evenodd" stroke="none"/>
    <path d="M38.5 -9.35 L39.3 -9.5 39.3 -9.6 39.9 -9.45 40.2 -9.5 40.7 -9.6 41.25 -9.35 41.6 -9.0 41.8 -8.65 41.85 -8.3 41.7 -8.0 41.5 -7.65 40.8 -7.3 40.45 -6.95 40.1 -6.6 39.55 -6.25 38.95 -5.9 38.85 -5.55 38.75 -5.25 38.6 -4.9 38.4 -4.55 38.15 -4.2 37.7 -3.85 37.5 -3.65 34.7 -3.35 33.35 -3.5 32.65 -3.4 32.55 -3.05 32.35 -2.7 31.85 -2.35 31.05 -2.15 30.25 -2.4 29.7 -2.6 29.35 -2.35 27.85 -2.35 26.6 -2.6 26.3 -2.95 26.05 -3.3 25.95 -3.95 25.95 -4.65 26.0 -5.35 26.05 -6.05 26.2 -6.35 26.5 -6.7 26.85 -7.05 27.05 -7.3 27.3 -7.4 27.85 -7.5 28.45 -7.4 29.0 -7.15 29.6 -6.85 29.9 -6.9 30.15 -7.15 30.5 -7.5 30.95 -7.75 31.55 -7.85 32.45 -7.85 33.25 -7.65 33.7 -7.3 33.95 -7.15 34.75 -7.05 35.3 -7.3 35.55 -7.65 35.8 -7.95 36.1 -8.3 36.55 -8.65 37.6 -9.0 38.5 -9.35" fill="#663300" fill-opacity="0.2" fill-rule="evenodd" stroke="none"/>
    <path d="M40.05 -7.0 L40.25 -6.85 40.3 -6.65 40.4 -6.5 40.45 -6.3 40.45 -6.15 40.45 -5.95 40.4 -5.8 40.3 -5.65 40.25 -5.45 40.05 -5.3 39.8 -5.1 39.3 -5.0 24.45 -5.15 24.05 -5.15 21.65 -5.1 21.3 -5.1 Q-3.0 -4.9 -27.3 -5.1 L-27.75 -5.2 -28.0 -5.4 -28.15 -5.6 -28.3 -5.75 -28.4 -5.8 -28.45 -5.75 -28.7 -5.7 -28.9 -5.75 -29.2 -5.85 -29.35 -6.0 -29.6 -6.2 -29.65 -6.35 -29.6 -6.55 -29.3 -6.7 -28.95 -6.65 -28.8 -6.75 -28.45 -6.95 -28.4 -7.1 -28.2 -7.3 -28.0 -7.45 -27.55 -7.6 -27.2 -7.7 -27.0 -7.8 -26.9 -7.85 -25.95 -8.05 -24.8 -8.3 -20.45 -8.3 -20.0 -8.2 -19.75 -8.0 -19.6 -7.85 -19.5 -7.7 -19.45 -7.5 -19.4 -7.35 22.9 -7.1 24.05 -7.1 26.25 -7.1 27.65 -7.1 Q33.5 -7.05 39.3 -7.3 L39.8 -7.15 Q39.9 -7.1 40.05 -7.0" fill="#333333" fill-opacity="0.2" fill-rule="evenodd" stroke="none"/>
    <path d="M-30.1 -13.75 L-30.0 -13.6 -29.9 -13.4 -29.85 -13.25 -29.75 -13.05 -29.75 -12.9 -29.75 -12.55 -29.75 -12.05 -29.75 -11.5 -29.85 -11.35 -29.95 -11.2 -29.95 -10.85 -29.95 -10.3 -29.95 -9.65 -29.95 -9.3 -29.9 -9.15 -29.85 -8.95 -29.75 -8.75 -29.75 -8.6 -29.75 -8.45 -29.75 -8.25 -29.75 -8.1 -29.75 -7.9 -29.7 -7.75 -29.6 -7.55 -29.55 -7.4 -29.55 -7.25 -29.55 -7.05 -29.5 -6.9 -29.35 -6.7 -29.3 -6.55 -29.25 -6.35 -29.15 -6.2 -29.1 -6.0 -29.1 -5.85 -28.9 -5.7 -28.8 -5.5 -28.75 -5.35 -28.6 -5.15 -28.6 -5.0 -28.6 -4.8 -28.6 -4.65 -28.7 -4.5 -28.8 -4.3 -28.85 -4.15 -29.1 -3.95 -29.25 -3.85 -29.6 -3.8 -30.05 -3.9 -30.3 -4.1 -30.45 -4.25 -30.55 -4.3 -30.9 -4.25 -31.45 -4.25 -31.9 -4.35 -37.85 -4.5 -38.3 -4.6 -38.5 -4.75 -38.7 -4.95 -38.75 -5.1 -38.8 -5.3 -38.8 -5.45 -38.8 -5.6 -38.75 -5.8 -38.7 -5.95 -38.5 -6.15 -38.3 -6.3 -36.3 -6.55 -36.35 -6.7 -36.45 -6.9 -36.5 -7.05 -36.65 -7.25 -36.7 -7.4 -36.8 -7.55 -36.85 -7.75 -37.0 -7.9 -37.05 -8.1 -37.15 -8.25 -37.2 -8.45 -37.25 -8.6 -37.3 -8.8 -37.35 -8.95 -37.45 -9.1 -37.6 -9.3 -37.95 -9.45 -38.15 -9.65 -38.3 -9.8 -38.65 -10.15 -38.75 -10.3 -38.8 -10.5 -38.8 -10.65 -38.8 -10.85 -38.8 -11.0 -38.8 -11.1 -38.8 -11.15 -39.2 -11.25 -39.6 -11.35 -39.75 -11.5 -39.8 -11.7 -39.85 -11.85 -39.8 -12.05 -39.75 -12.2 -39.6 -12.4 -39.2 -12.5 -38.55 -12.5 -38.15 -12.35 -37.5 -12.0 -37.4 -11.9 -37.05 -11.8 -36.8 -11.65 -36.65 -11.45 -36.35 -11.3 -36.1 -11.1 -35.2 -10.3 -33.8 -9.05 -33.65 -8.9 -33.6 -8.7 -33.5 -8.55 -33.35 -8.35 -33.2 -8.2 -33.1 -8.05 -33.05 -7.85 -33.05 -7.7 -33.05 -7.35 -33.05 -7.0 -33.05 -6.65 -33.05 -6.55 -33.05 -6.5 -32.55 -6.55 -32.65 -6.7 -32.65 -6.9 -32.65 -7.25 -32.65 -7.55 -32.65 -8.1 -32.6 -8.25 -32.5 -8.45 -32.4 -8.6 -32.25 -8.75 -32.15 -8.95 -32.15 -9.1 -32.15 -9.3 -32.15 -9.65 -32.15 -10.0 -32.15 -10.15 -32.15 -10.3 -32.05 -10.5 -32.0 -10.65 -31.9 -10.85 -31.9 -11.0 -31.9 -11.2 -31.9 -11.35 -31.9 -11.5 -31.85 -11.7 -31.75 -11.85 -31.7 -12.05 -31.7 -12.2 -31.7 -12.4 -31.7 -12.7 -31.7 -13.05 -31.7 -13.25 -31.65 -13.4 -31.55 -13.55 -31.35 -13.75 -31.15 -13.9 -30.75 -14.0 -30.75 -14.05 -30.35 -13.9 -30.1 -13.75" fill="#333333" fill-opacity="0.2" fill-rule="evenodd" stroke="none"/>
    <path d="M32.55 -13.6 L32.75 -13.4 32.9 -13.25 33.1 -13.05 33.05 -12.9 32.85 -12.7 32.75 -12.55 32.5 -12.4 32.4 -12.2 32.35 -12.05 32.35 -11.85 32.4 -11.7 32.45 -11.5 32.55 -11.35 32.55 -11.2 32.55 -11.0 32.5 -10.85 32.45 -10.65 32.35 -10.5 32.1 -10.3 31.65 -10.2 31.55 -10.1 31.4 -10.05 31.15 -10.0 30.75 -10.1 30.55 -10.25 30.45 -10.45 30.4 -10.6 30.35 -10.8 30.35 -10.95 30.35 -11.1 30.35 -11.3 30.35 -11.45 30.35 -11.65 30.45 -11.8 30.5 -12.0 30.5 -12.15 30.5 -12.3 30.6 -12.5 30.75 -12.65 30.8 -12.85 30.8 -13.0 30.8 -13.2 30.85 -13.35 30.95 -13.5 31.2 -13.7 31.6 -13.8 31.75 -13.8 32.05 -13.75 32.2 -13.7 32.55 -13.6" fill="#333333" fill-opacity="0.2" fill-rule="evenodd" stroke="none"/>
    <path d="M8.95 -9.8 L9.6 -10.45 10.6 -10.95 11.95 -11.05 11.95 -11.15 24.95 -11.15 26.5 -10.65 Q27.2 -10.35 27.95 -10.0 L28.85 -9.55 30.45 -9.55 32.35 -9.6 33.75 -9.8 34.65 -10.25 36.0 -10.45 37.0 -10.45 38.8 -10.0 39.75 -9.35 40.15 -8.6 40.45 -7.95 40.75 -7.25 40.95 -6.6 40.75 -5.95 40.45 -5.2 39.65 -3.9 39.05 -3.15 38.4 -2.4 37.45 -1.1 37.25 -0.4 37.2 0.3 37.15 0.95 37.0 1.65 36.7 2.35 36.35 3.05 36.25 3.75 36.25 4.4 36.15 5.05 35.85 5.8 35.5 6.45 35.15 7.2 34.85 7.8 34.4 8.55 34.4 9.2 34.4 9.9 34.4 10.6 34.4 11.3 34.15 11.95 33.75 12.65 33.65 13.35 33.5 14.05 33.05 14.7 32.6 15.4 31.6 16.1 30.95 16.55 29.55 16.65 15.65 16.1 8.25 15.85 6.4 15.4 5.45 14.7 4.75 14.05 3.6 13.8 2.9 14.0 1.8 14.2 -4.05 14.5 -5.2 15.15 -6.55 15.65 -8.2 15.15 -8.85 14.45 -9.35 13.8 -9.55 13.1 -9.6 12.45 -9.6 11.75 -9.6 11.05 -9.6 10.35 -9.3 9.7 -8.85 9.0 -8.3 8.25 -8.0 7.6 -7.8 6.9 -7.75 6.25 -7.75 5.55 -7.75 4.85 -8.05 4.2 -8.4 3.45 -8.65 2.8 -8.85 2.1 -8.9 1.45 -8.9 0.75 -8.9 0.05 -8.9 -0.6 -8.9 -1.3 -8.9 -2.0 -8.9 -2.7 -8.65 -3.35 -8.2 -4.05 -7.3 -4.7 -4.95 -6.1 -2.75 -7.55 -1.0 -8.85 0.85 -9.2 8.95 -9.8" fill="#333333" fill-opacity="0.2" fill-rule="evenodd" stroke="none"/>
    <path d="M36.95 -12.15 L37.25 -12.2 38.15 -12.2 38.55 -12.1 38.75 -11.9 38.85 -11.75 38.9 -11.6 39.1 -11.4 39.15 -11.25 39.15 -11.05 39.1 -10.95 39.0 -10.85 38.75 -10.75 38.5 -10.6 38.15 -10.5 37.7 -10.5 37.25 -10.5 36.85 -10.6 36.7 -10.8 36.55 -10.95 36.5 -11.1 36.45 -11.3 36.45 -11.45 36.5 -11.65 36.55 -11.8 36.7 -12.0 36.85 -12.1 36.95 -12.15" fill="#333333" fill-opacity="0.2" fill-rule="evenodd" stroke="none"/>
    <path d="M-6.65 -1.9 L-6.6 -1.75 -6.8 -1.55 -6.95 -1.45 -7.15 -1.4 -7.35 -1.35 -7.55 -1.3 -25.55 -1.2 -25.65 -1.2 -32.5 -0.85 -35.2 -0.95 -35.5 -0.85 -35.8 -0.75 -36.2 -0.9 -36.4 -1.0 -36.7 -1.05 -37.1 -1.15 -37.25 -1.35 -37.4 -1.5 -37.45 -1.7 -37.45 -1.85 -37.4 -2.0 -37.3 -2.2 -37.15 -2.35 -37.0 -2.5 -36.7 -2.55 -36.25 -2.6 -35.95 -2.5 -35.85 -2.5 -35.5 -2.55 -35.1 -2.65 -32.5 -2.7 -28.0 -2.65 -25.55 -2.35 -7.55 -2.3 -7.35 -2.25 -7.15 -2.2 -6.85 -2.1 -6.65 -1.9" fill="#333333" fill-opacity="0.2" fill-rule="evenodd" stroke="none"/>
    <path d="M33.8 -3.05 L38.3 -2.95 Q38.45 -2.9 38.55 -2.8 L38.8 -2.65 38.9 -2.5 39.05 -2.3 39.1 -2.15 39.05 -1.95 39.05 -1.8 38.95 -1.6 38.85 -1.45 38.7 -1.3 38.5 -1.15 38.3 -1.15 36.55 -1.05 Q17.2 -0.6 -2.05 -1.6 L-2.35 -1.75 -2.45 -1.9 -2.45 -2.05 -2.4 -2.25 -2.3 -2.35 -2.05 -2.4 -1.45 -2.5 14.6 -3.0 24.65 -3.0 33.8 -3.05" fill="#333333" fill-opacity="0.2" fill-rule="evenodd" stroke="none"/>
    <path d="M-36.1 -11.25 L-36.05 -11.05 -35.95 -10.9 -35.85 -10.7 -35.7 -10.55 -35.5 -10.4 -35.25 -10.2 -35.15 -10.05 -35.05 -9.85 -35.0 -9.7 -34.9 -9.5 -34.75 -9.35 -34.6 -9.2 -34.5 -9.0 -34.4 -8.85 -34.35 -8.65 -34.2 -8.5 -34.05 -8.3 -33.85 -7.95 -33.6 -7.65 -33.55 -7.45 -33.45 -7.3 -33.4 -7.1 -33.3 -6.95 -33.3 -6.75 -33.3 -6.6 -33.3 -6.1 -33.3 -5.55 -33.3 -5.25 -33.4 -5.05 -33.45 -4.9 -33.55 -4.7 -33.8 -4.55 -34.2 -4.45 -34.6 -4.55 -34.8 -4.7 -34.85 -4.7 -35.3 -4.85 -35.55 -5.0 -35.7 -5.15 -35.8 -5.35 -35.8 -5.5 -35.85 -5.7 -35.95 -6.05 -36.0 -6.2 -36.0 -6.35 -36.0 -6.55 -36.05 -6.7 -36.1 -6.9 -36.25 -7.05 -36.35 -7.25 -36.4 -7.4 -36.55 -7.55 -36.6 -7.75 -36.65 -7.9 -36.75 -8.1 -36.8 -8.25 -36.85 -8.45 -36.95 -8.6 -37.0 -8.8 -37.1 -8.95 -37.15 -9.1 -37.25 -9.3 -37.4 -9.45 -37.45 -9.55 -37.85 -9.7 -38.05 -9.85 -38.2 -10.05 -38.25 -10.2 -38.3 -10.4 -38.35 -10.55 -38.35 -10.7 -38.35 -10.9 -38.3 -11.05 -38.25 -11.25 -38.05 -11.4 -37.85 -11.6 -37.4 -11.65 -37.4 -11.7 -36.95 -11.7 -36.45 -11.6 -36.25 -11.4 -36.1 -11.25" fill="#333333" fill-opacity="0.2" fill-rule="evenodd" stroke="none"/>
    <path d="M-30.35 -10.75 L-30.25 -10.6 -30.15 -10.45 -30.1 -10.25 -30.15 -10.1 -30.15 -9.9 -30.15 -9.75 -30.1 -9.6 -30.05 -9.4 -30.0 -9.25 -30.0 -9.05 -30.0 -8.9 -30.0 -8.55 -30.0 -8.05 -30.0 -7.85 -29.95 -7.7 -29.9 -7.5 -29.85 -7.35 -29.45 -6.7 Q-28.8 -6.15 -27.95 -5.75 L-27.7 -5.65 -27.65 -5.45 -27.55 -5.3 -27.5 -5.1 -27.5 -4.95 -27.5 -4.75 -27.5 -4.6 -27.6 -4.45 -27.65 -4.25 -27.75 -4.1 -28.0 -3.9 -28.45 -3.8 -28.9 -3.9 -29.15 -4.1 -29.35 -4.25 -29.65 -4.45 -30.2 -4.95 -31.2 -5.8 -31.5 -5.95 -31.65 -6.15 -31.85 -6.3 -32.0 -6.5 -32.05 -6.65 -32.1 -6.85 -32.2 -7.0 -32.3 -7.35 -32.35 -7.5 -32.35 -7.85 -32.35 -8.55 -32.35 -9.25 -32.35 -9.6 -32.3 -9.75 -32.2 -9.9 -32.05 -10.1 -32.0 -10.25 -32.0 -10.45 -31.95 -10.6 -31.85 -10.8 -31.6 -10.95 -31.2 -11.05 -30.9 -11.05 -30.5 -10.95 -30.35 -10.75" fill="#333333" fill-opacity="0.2" fill-rule="evenodd" stroke="none"/>
    <path d="M31.3 -12.3 L31.65 -12.2 31.8 -12.05 31.95 -11.85 32.0 -11.7 32.05 -11.5 32.15 -11.35 32.45 -11.2 32.55 -11.0 32.5 -10.85 32.35 -10.65 31.9 -10.5 31.65 -10.3 31.3 -10.2 30.6 -10.2 30.2 -10.3 30.05 -10.5 29.95 -10.65 29.85 -10.85 29.85 -11.0 29.85 -11.2 29.85 -11.35 29.95 -11.5 30.0 -11.7 30.1 -11.85 30.2 -12.0 30.35 -12.05 30.75 -12.15 30.9 -12.2 31.0 -12.25 31.3 -12.3" fill="#333333" fill-opacity="0.2" fill-rule="evenodd" stroke="none"/>
    <path d="M-29.15 0.35 L-28.95 0.4 -28.8 0.5 -28.7 0.55 -28.65 0.65 -28.6 0.65 -28.15 0.65 -28.15 0.55 -28.15 0.45 -28.15 0.35 -28.15 0.3 -28.15 0.2 -28.15 0.1 -28.1 0.05 -28.0 -0.05 -27.95 -0.15 -27.8 -0.2 -27.7 -0.2 -27.7 -0.25 -27.55 -0.2 -27.4 -0.15 -27.2 -0.1 -27.05 -0.05 -26.95 0.05 -26.85 0.15 -26.85 0.25 -26.8 0.3 -26.75 0.4 -26.75 0.5 -26.75 0.55 -26.75 0.65 -26.75 0.75 -26.75 0.85 -26.75 0.9 -26.75 1.0 -26.8 1.1 -26.8 1.15 -26.85 1.25 -26.9 1.35 -26.95 1.45 -27.05 1.5 -27.15 1.55 -27.35 1.65 -27.45 1.7 -27.5 1.8 -27.55 1.9 -27.6 1.95 -27.7 2.05 -27.9 2.1 -28.1 2.1 -28.35 2.05 -28.45 1.95 -28.55 1.9 -28.6 1.8 -28.65 1.75 -28.9 1.7 -29.15 1.65 -29.3 1.55 -29.35 1.5 -29.45 1.4 -29.55 1.3 -29.6 1.25 -29.7 1.15 -29.75 1.05 -29.75 0.95 -29.75 0.9 -29.75 0.8 -29.75 0.7 -29.75 0.65 -29.65 0.55 -29.55 0.45 -29.5 0.4 -29.4 0.4 -29.25 0.35 -29.15 0.35" fill="#333333" fill-opacity="0.2" fill-rule="evenodd" stroke="none"/>
    <path d="M-27.1 6.95 L-26.85 7.0 -26.75 7.05 -26.7 7.15 -26.6 7.25 -26.55 7.35 -26.5 7.35 -26.15 7.35 -26.05 7.25 -26.0 7.2 -25.95 7.2 -25.85 7.15 -25.7 7.15 -25.5 7.2 -25.2 7.35 -25.1 7.45 -25.05 7.55 -25.0 7.6 -24.95 7.7 -24.9 7.8 -24.85 7.85 -24.85 7.95 -24.85 8.05 -24.85 8.15 -24.85 8.2 -24.85 8.3 -24.9 8.4 -24.95 8.45 -25.0 8.55 -25.3 8.7 -25.45 8.8 -25.7 8.85 -26.4 8.85 -26.65 8.8 -26.8 8.75 -26.95 8.65 -27.0 8.55 -27.05 8.45 -27.25 8.3 -27.35 8.2 -27.35 8.15 -27.4 8.05 -27.45 7.95 -27.5 7.85 -27.55 7.8 -27.6 7.7 -27.6 7.6 -27.6 7.55 -27.6 7.45 -27.6 7.35 -27.6 7.25 -27.55 7.2 -27.45 7.1 -27.4 7.0 -27.3 6.95 -27.1 6.95" fill="#333333" fill-opacity="0.2" fill-rule="evenodd" stroke="none"/>
    <path d="M8.4 14.3 Q-7.65 14.6 -23.65 14.1 L-23.9 14.15 -24.1 14.2 -24.45 14.1 -24.65 14.0 -25.25 13.95 -25.55 13.8 -25.65 13.65 -25.65 13.5 -25.6 13.3 -25.5 13.2 -25.25 13.15 -24.6 13.1 -24.25 13.1 -23.9 13.15 -15.9 12.75 Q5.05 13.05 25.8 12.6 L30.85 12.65 31.7 12.85 31.85 13.05 31.95 13.2 32.05 13.35 32.1 13.55 32.05 13.7 31.95 13.9 31.85 14.05 31.7 14.2 Q22.95 14.6 14.1 14.35 11.25 14.25 8.4 14.3" fill="#333333" fill-opacity="0.2" fill-rule="evenodd" stroke="none"/>
    <path d="M30.9 -8.8 L32.1 -8.15 33.15 -7.5 33.75 -6.8 33.95 -6.1 34.15 -5.45 34.35 -4.75 34.35 -4.05 34.35 -3.35 34.35 -2.7 34.15 -2.0 33.9 -1.35 32.95 0.05 Q31.85 1.45 30.35 2.25 L28.25 3.5 28.65 4.2 28.8 4.9 28.85 5.55 28.85 6.25 28.85 6.95 28.85 7.6 28.65 8.3 28.3 9.0 28.05 9.7 27.4 10.35 27.25 11.05 27.0 11.75 26.85 12.45 26.4 13.1 26.0 13.8 25.4 14.25 24.95 14.45 23.75 14.75 22.1 15.15 20.5 15.65 15.6 15.65 13.95 15.25 8.25 14.4 6.6 14.05 5.8 13.35 5.4 12.65 5.2 11.95 5.0 11.3 4.85 10.6 4.8 9.9 4.85 9.25 5.0 8.55 5.2 7.85 5.25 7.85 4.9 7.7 4.6 7.45 4.5 7.35 4.5 7.3 4.5 7.2 4.5 7.1 4.5 7.0 4.5 6.95 4.45 6.85 4.4 6.75 4.35 6.7 4.35 6.6 4.35 6.5 4.35 6.4 4.35 6.35 4.35 6.15 4.35 6.0 4.4 5.9 4.45 5.8 4.55 5.65 4.75 5.4 5.0 5.05 5.15 4.95 5.6 4.7 6.2 4.6 6.55 4.6 6.75 4.65 6.9 4.75 6.95 4.8 7.1 4.9 7.15 5.0 7.3 5.05 7.35 5.15 7.35 5.25 7.4 5.35 7.6 5.05 8.25 3.75 8.0 3.1 7.45 2.3 7.05 1.65 6.85 1.0 6.65 0.3 6.6 -0.4 6.6 -1.1 6.6 -1.75 6.6 -3.15 6.6 -3.85 6.9 -4.5 7.3 -5.2 7.85 -5.9 8.5 -6.6 9.5 -7.25 10.7 -7.95 12.35 -8.35 14.35 -8.7 15.2 -8.85 16.0 -9.1 17.2 -9.2 17.2 -9.35 29.45 -9.35 30.9 -8.8 M14.85 8.1 L14.7 8.1 14.5 8.15 14.35 8.25 14.1 8.6 14.0 8.85 13.95 9.0 13.95 9.2 13.95 9.6 13.95 9.9 13.95 10.05 13.95 10.15 14.0 10.25 14.05 10.3 14.1 10.4 14.15 10.5 14.15 10.65 14.2 10.75 14.2 10.85 14.25 10.9 14.3 11.0 Q14.7 11.55 15.35 11.45 16.15 11.3 16.65 10.55 L16.75 10.5 16.9 10.4 17.0 10.3 17.1 10.15 17.15 9.95 17.2 9.8 17.2 9.7 17.15 9.55 17.15 9.35 17.1 9.2 17.05 9.1 16.85 8.95 16.55 8.8 16.4 8.75 16.25 8.8 16.1 8.8 16.05 8.8 15.6 8.25 Q15.25 8.0 14.85 8.1 M-2.7 8.1 L-2.6 8.0 -2.4 7.95 -1.95 7.95 -1.45 8.05 -0.95 8.15 -0.8 8.2 -0.65 8.3 -0.5 8.35 -0.45 8.45 -0.45 8.55 -0.45 8.6 -0.35 8.7 -0.35 8.8 -0.3 8.9 -0.25 8.95 -0.25 9.05 -0.15 9.15 -0.05 9.25 -0.05 9.3 0.05 9.4 0.05 9.5 0.1 9.55 0.1 9.65 0.1 9.75 0.1 9.8 0.1 9.9 0.05 10.0 0.05 10.1 -0.05 10.15 -0.1 10.25 -0.25 10.35 -0.45 10.4 -0.6 10.45 -0.7 10.55 -0.7 10.65 -0.75 10.7 -0.8 10.8 -0.85 10.9 -0.95 10.95 -1.0 10.95 -1.15 11.0 -1.35 10.95 -1.45 10.85 -1.55 10.75 -1.65 10.7 -1.75 10.6 -1.85 10.5 -1.9 10.45 -2.05 10.35 -2.3 10.3 -2.45 10.25 -2.75 10.05 -2.9 9.95 -2.95 9.9 -3.05 9.8 -3.1 9.7 -3.1 9.6 -3.1 9.55 -3.1 9.35 -3.1 9.3 -3.1 9.2 -3.1 9.1 -3.1 9.0 -3.1 8.95 -3.1 8.85 -3.05 8.75 -3.05 8.7 -2.95 8.6 -2.95 8.5 -2.9 8.4 -2.9 8.35 -2.8 8.25 -2.75 8.15 -2.7 8.1" fill="#333333" fill-opacity="0.2" fill-rule="evenodd" stroke="none"/>
    <path d="M36.75 -7.25 L36.85 -6.6 36.75 -5.95 36.45 -5.2 36.25 -4.5 36.05 -3.8 36.0 -3.15 36.0 -2.45 35.5 -1.95 35.25 -1.6 35.2 -1.25 35.2 -0.75 35.2 -0.5 35.15 -0.4 34.85 0.3 34.6 1.0 34.45 1.65 34.4 2.2 34.3 2.35 33.1 4.6 32.3 5.25 Q31.65 5.75 31.3 6.55 L30.9 6.7 30.85 7.4 30.9 8.1 31.1 8.75 31.1 9.45 31.1 10.15 31.1 10.8 31.0 11.5 30.75 12.2 30.5 12.85 30.1 13.55 29.3 14.25 27.65 14.7 22.75 14.7 17.85 13.75 16.2 13.35 15.4 12.65 14.9 11.9 14.55 11.3 14.45 10.6 14.4 9.9 14.4 9.2 14.4 8.55 14.5 7.9 Q14.55 7.5 14.75 7.15 L15.05 6.5 15.35 5.75 15.6 5.1 16.15 4.4 16.6 3.75 16.45 3.05 16.25 2.35 16.2 1.65 15.75 1.0 15.25 0.25 14.85 -0.4 14.55 -1.1 14.55 -1.75 14.65 -2.45 14.75 -3.15 14.8 -3.85 15.05 -4.45 15.6 -5.2 16.2 -5.9 17.45 -7.25 18.5 -7.95 19.45 -8.4 26.6 -8.8 27.05 -8.65 28.8 -8.75 Q32.05 -9.3 35.15 -8.05 L36.55 -7.75 36.75 -7.25 M8.8 3.5 L8.8 3.6 8.85 3.65 8.9 3.75 8.95 3.85 9.0 3.95 9.05 4.0 9.1 4.1 9.1 4.2 9.15 4.25 9.15 4.35 9.15 4.55 9.15 4.6 9.15 4.7 9.15 4.85 9.15 5.2 9.1 5.3 9.1 5.4 9.05 5.45 8.95 5.55 8.9 5.65 8.8 5.75 8.8 5.8 8.75 5.9 8.7 6.0 8.6 6.05 8.5 6.15 8.05 6.25 7.9 6.3 7.2 6.45 7.15 6.45 6.75 6.4 6.75 6.35 6.65 6.35 6.4 6.3 6.3 6.2 6.2 6.1 6.1 6.0 6.05 5.95 5.9 5.85 5.75 5.75 5.7 5.7 5.6 5.6 5.55 5.5 5.55 5.4 5.55 5.35 5.45 5.25 5.45 5.15 5.4 5.05 5.4 4.8 5.4 4.65 5.4 4.3 5.4 3.85 5.4 3.7 5.45 3.6 5.5 3.45 5.55 3.35 5.55 3.25 5.55 3.1 5.6 3.0 5.8 2.75 6.0 2.6 6.6 2.2 6.65 2.15 6.8 2.15 7.05 2.15 7.25 2.2 7.45 2.2 7.65 2.25 7.75 2.35 7.85 2.45 7.9 2.55 7.95 2.6 7.95 2.7 8.0 2.8 8.0 2.85 8.0 2.95 8.05 3.05 8.25 3.1 8.4 3.15 8.55 3.25 8.6 3.35 8.7 3.4 8.8 3.5" fill="#333333" fill-opacity="0.2" fill-rule="evenodd" stroke="none"/>
    <path d="M37.0 -8.55 Q3.7 -8.05 -29.6 -8.5 L-29.95 -8.65 -30.15 -8.8 -30.2 -9.0 -30.2 -9.15 -30.15 -9.3 -30.0 -9.5 -29.85 -9.6 -29.6 -9.65 -25.25 -9.7 -19.3 -9.75 -12.2 -9.8 -12.2 -9.85 24.65 -9.8 26.25 -9.8 Q31.6 -9.7 37.0 -9.75 L40.1 -9.3 40.25 -9.15 40.2 -8.95 40.15 -8.9 40.0 -8.8 39.6 -8.75 39.5 -8.7 39.3 -8.65 37.0 -8.55" fill="#ffff99" fill-opacity="0.2" fill-rule="evenodd" stroke="none"/>
    <path d="M-41.6 -9.5 L-41.3 -9.5 -41.3 -9.55 -40.85 -9.55 -39.25 -9.45 -38.85 -9.35 -37.85 -9.3 -37.6 -9.2 -37.3 -9.05 -37.25 -8.85 -37.1 -8.7 -37.2 -8.5 -37.25 -8.35 -37.3 -8.25 -37.4 -8.2 -37.65 -8.1 -37.85 -8.2 -38.0 -8.25 -38.85 -8.25 -38.95 -8.2 -39.25 -8.15 -41.3 -8.05 -41.7 -8.15 -41.85 -8.35 -42.0 -8.5 -42.05 -8.7 -42.05 -8.85 -42.0 -9.0 -41.9 -9.2 -41.75 -9.35 -41.6 -9.5" fill="#ffff99" fill-opacity="0.2" fill-rule="evenodd" stroke="none"/>
    <path d="M-33.5 -16.45 L-33.15 -16.35 -32.95 -16.2 -32.75 -16.0 -32.6 -15.85 -32.35 -15.65 -32.3 -15.5 -32.2 -15.35 -32.2 -15.15 -32.25 -15.0 -32.4 -14.8 -32.55 -14.65 -32.9 -14.55 -33.3 -14.65 -33.5 -14.75 -33.9 -14.85 -36.05 -14.85 -36.55 -14.7 -36.95 -14.55 -38.0 -14.35 -38.2 -14.2 -38.6 -14.0 -39.0 -13.9 -39.25 -13.9 -39.65 -14.0 -39.7 -14.0 -40.05 -14.1 -40.2 -14.3 -40.25 -14.45 -40.25 -14.65 -40.25 -14.8 -40.1 -15.0 -39.95 -15.15 -39.8 -15.35 -39.7 -15.5 -39.65 -15.65 -39.5 -15.85 -39.4 -16.0 -38.9 -16.2 -38.55 -16.35 -38.4 -16.45 -38.1 -16.5 -38.1 -16.55 -36.95 -16.55 -36.6 -16.4 -36.45 -16.35 -36.1 -16.4 -33.5 -16.45" fill="#ffff99" fill-opacity="0.2" fill-rule="evenodd" stroke="none"/>
    <path d="M-28.2 -0.9 L-28.0 -0.75 -27.95 -0.55 -27.9 -0.4 -27.9 -0.2 -27.9 -0.05 -27.95 0.15 -28.1 0.3 -28.2 0.4 -28.25 0.45 -28.55 0.5 -28.7 0.55 -28.95 0.6 -29.15 0.5 -29.5 0.4 -29.7 0.25 -29.7 0.05 -29.75 -0.1 -29.85 -0.25 -29.95 -0.45 -29.4 -0.6 -29.2 -0.55 -29.1 -0.7 -29.0 -0.85 -28.8 -0.95 -28.55 -1.0 -28.2 -0.9" fill="#ffff99" fill-opacity="0.2" fill-rule="evenodd" stroke="none"/>
    <path d="M-26.85 6.5 L-26.6 6.6 -26.45 6.75 -26.35 6.95 -26.35 7.1 -26.4 7.3 -26.5 7.45 -26.55 7.55 -26.65 7.6 -26.85 7.7 -27.2 7.55 -27.3 7.45 -27.4 7.4 -27.65 7.3 -27.85 7.1 -27.9 6.95 -27.75 6.75 -27.6 6.7 -27.4 6.6 -26.9 6.5 -26.85 6.5" fill="#ffff99" fill-opacity="0.2" fill-rule="evenodd" stroke="none"/>
    <path d="M-36.2 -1.6 L-36.15 -1.4 -36.1 -1.25 -35.95 -1.05 -35.9 -0.9 -35.8 -0.75 -35.75 -0.55 -35.7 -0.4 -35.55 -0.2 -35.5 -0.05 -35.45 0.15 -35.4 0.3 -35.35 0.45 -35.25 0.65 -35.15 0.8 -35.1 1.0 -35.05 1.15 -35.0 1.35 -34.9 1.5 -34.85 1.65 -34.75 1.85 -34.65 2.0 -34.35 2.85 -34.0 4.05 -33.7 5.3 -33.7 5.45 -33.7 5.6 -33.7 5.8 -33.65 5.95 -33.55 6.15 -33.45 6.3 -33.4 6.5 -33.3 6.65 -33.25 6.8 -33.1 7.0 -33.05 7.15 -32.45 8.05 -31.45 9.2 -31.0 9.75 -30.95 9.9 -30.9 10.1 -30.9 10.25 -30.9 10.6 -30.9 11.1 -30.9 11.45 -30.8 11.65 -30.8 12.0 -30.8 12.65 -30.8 13.35 -30.8 13.5 -30.8 13.7 -30.7 13.85 -30.65 14.05 -30.55 14.2 -30.5 14.4 -30.5 14.7 -30.5 15.25 -30.5 15.75 -30.5 16.1 -30.5 16.25 -30.6 16.45 -30.65 16.6 -30.75 16.8 -31.0 16.95 -31.45 17.05 -31.9 16.95 -32.15 16.8 -32.3 16.6 -32.6 16.25 -32.65 16.1 -32.65 15.95 -32.65 15.6 -32.65 15.05 -32.65 14.7 -32.7 14.55 -32.75 14.4 -32.85 14.2 -32.9 14.05 -33.0 13.85 -33.1 13.7 -33.35 13.35 -33.45 13.2 -33.5 13.0 -33.65 12.85 -33.7 12.65 -33.8 12.5 -33.85 12.3 -33.95 12.15 -34.1 12.0 -34.15 11.8 -34.25 11.65 -34.3 11.45 -34.45 11.3 -34.5 11.1 -34.55 10.95 -34.6 10.75 -34.65 10.6 -34.7 10.45 -34.85 10.25 -34.95 10.1 -35.1 9.9 -35.15 9.75 -35.3 9.55 -35.4 9.4 -35.45 9.25 -35.45 9.05 -35.45 8.7 -35.45 8.35 -35.45 8.05 -35.5 7.85 -35.55 7.7 -35.65 7.5 -35.65 7.35 -35.65 7.0 -35.65 6.5 -35.65 6.15 -35.7 5.95 -35.75 5.8 -35.75 5.6 -35.85 5.45 -35.9 5.3 -35.95 5.1 -36.05 4.95 -36.15 4.75 -36.2 4.6 -36.3 4.4 -36.35 4.25 -36.5 4.1 -36.6 3.9 -36.65 3.75 -36.8 3.55 -37.1 2.55 -37.45 1.15 -37.65 -0.05 -37.75 -0.2 -37.8 -0.4 -37.9 -0.55 -38.0 -0.75 -38.1 -0.9 -38.2 -1.25 -38.4 -1.75 -38.55 -2.3 -38.6 -2.6 -38.7 -2.8 -38.8 -2.95 -38.85 -3.15 -38.85 -3.5 -38.85 -4.15 -38.85 -4.85 -38.85 -5.0 -38.8 -5.2 -38.8 -5.35 -38.8 -5.55 -38.7 -5.7 -38.7 -5.9 -38.65 -6.05 -38.6 -6.25 -38.5 -6.4 -38.25 -6.55 -37.85 -6.65 -37.85 -6.7 -37.45 -6.55 -37.3 -6.4 -37.2 -6.25 -37.1 -6.05 -37.05 -5.9 -37.0 -5.7 -36.9 -5.55 -36.85 -5.35 -36.8 -5.2 -36.8 -5.0 -36.8 -4.85 -36.8 -4.7 -36.8 -4.5 -36.7 -4.35 -36.7 -4.15 -36.7 -4.0 -36.7 -3.8 -36.7 -3.65 -36.65 -3.5 -36.65 -3.3 -36.6 -3.15 -36.55 -2.95 -36.5 -2.8 -36.5 -2.6 -36.5 -2.45 -36.5 -2.3 -36.45 -2.1 -36.3 -1.95 -36.25 -1.75 -36.2 -1.6" fill="#ffff99" fill-opacity="0.2" fill-rule="evenodd" stroke="none"/>
    <path d="M34.6 -16.35 L34.7 -16.4 34.95 -16.45 35.4 -16.45 36.8 -16.4 38.15 -16.35 38.45 -16.25 38.55 -16.05 38.6 -15.9 38.55 -15.75 38.45 -15.55 38.15 -15.45 36.8 -15.4 35.4 -15.3 34.95 -15.2 33.65 -14.85 33.45 -14.7 33.05 -14.55 32.55 -14.35 32.35 -14.25 32.25 -14.2 31.85 -14.05 31.7 -13.9 31.55 -13.75 31.4 -13.55 31.35 -13.4 31.2 -13.2 31.05 -13.05 31.0 -12.85 30.9 -12.7 30.75 -12.5 30.65 -12.45 30.35 -12.35 29.95 -12.45 29.85 -12.65 29.75 -12.8 29.75 -13.0 29.75 -13.15 29.75 -13.3 29.75 -13.5 29.75 -13.65 29.85 -13.85 30.1 -14.0 30.2 -14.2 30.3 -14.35 30.4 -14.55 30.65 -14.85 31.0 -15.15 31.35 -15.25 31.85 -15.45 32.05 -15.55 32.15 -15.6 32.4 -15.7 32.8 -15.8 34.6 -16.35" fill="#ffff99" fill-opacity="0.2" fill-rule="evenodd" stroke="none"/>
    <path d="M12.3 12.2 L26.4 12.45 27.85 12.55 28.15 12.65 28.9 12.85 29.05 13.0 29.1 13.2 29.0 13.35 28.75 13.45 28.15 13.6 27.85 13.7 27.45 13.75 26.7 13.85 26.4 13.9 Q-2.3 14.35 -31.0 13.7 L-31.85 13.6 -32.1 13.4 -32.2 13.25 -32.2 13.05 -32.15 12.9 -31.95 12.7 -31.7 12.65 -31.0 12.5 -29.6 12.45 Q-14.6 12.0 0.3 12.15 L9.55 12.2 12.3 12.2" fill="#ffff99" fill-opacity="0.2" fill-rule="evenodd" stroke="none"/>
    <path d="M8.85 -7.9 L13.6 -7.6 14.2 -7.5 14.35 -7.3 14.35 -7.1 8.85 -6.4 -12.9 -6.75 -20.85 -6.95 -21.05 -7.1 -21.15 -7.3 -21.2 -7.5 -20.8 -7.6 1.35 -7.85 5.85 -7.85 8.85 -7.9 M9.6 -10.65 L12.3 -10.5 31.85 -10.75 38.85 -10.6 39.3 -10.55 39.65 -10.55 39.75 -10.7 39.85 -10.7 40.1 -10.75 40.1 -10.8 40.8 -10.8 41.1 -10.7 41.35 -10.5 41.55 -10.3 41.75 -10.1 41.9 -9.95 42.3 -9.75 42.45 -9.55 42.55 -9.35 42.6 -9.15 42.6 -9.0 42.6 -8.8 42.6 -8.6 42.6 -8.45 42.55 -8.25 42.35 -7.9 42.0 -7.5 41.6 -7.1 41.4 -6.95 41.3 -6.85 Q41.15 -6.75 41.05 -6.75 L40.85 -6.7 39.6 -6.45 Q28.6 -6.0 17.7 -6.8 L17.6 -7.0 17.7 -7.2 18.1 -7.25 Q24.6 -7.8 31.1 -7.55 L38.1 -7.6 39.85 -7.45 40.15 -7.5 40.35 -7.6 40.6 -7.7 40.9 -7.8 41.1 -8.0 41.25 -8.2 41.35 -8.35 41.4 -8.55 41.45 -8.75 41.35 -8.95 41.1 -9.1 40.9 -9.3 40.8 -9.45 40.1 -9.45 37.85 -9.35 35.9 -9.4 Q24.05 -9.25 12.25 -9.45 L3.85 -9.1 -8.65 -9.4 -12.4 -9.5 -14.15 -9.4 Q-19.25 -9.15 -24.35 -9.25 L-27.25 -9.15 -30.3 -9.1 -30.25 -9.2 -30.25 -9.3 -30.3 -9.45 -30.3 -9.55 -30.3 -9.65 -30.3 -9.75 -30.2 -9.9 -30.2 -10.0 -30.15 -10.1 -30.2 -10.35 -26.5 -10.25 -26.0 -10.25 -18.15 -10.2 -16.35 -10.2 Q-6.5 -10.9 3.35 -10.65 L3.85 -10.65 9.6 -10.65 M-34.05 -7.2 L-34.15 -7.35 -34.25 -7.5 -32.55 -7.5 -32.6 -7.45 -32.6 -7.35 -32.65 -7.3 -32.65 -7.2 -32.65 -7.15 -32.65 -7.05 -32.65 -7.0 -32.65 -6.9 -32.6 -6.85 -32.55 -6.7 -32.45 -6.55 -32.4 -6.5 -34.15 -6.5 -34.05 -7.15 -34.05 -7.2 M-32.05 -9.85 L-32.05 -9.4 -32.05 -9.1 -32.0 -9.05 -32.5 -9.05 -34.95 -9.05 -34.95 -9.15 -34.95 -9.2 -35.15 -9.8 -35.45 -10.2 -35.55 -10.25 -35.55 -10.35 -35.6 -10.4 -32.5 -10.4 -31.85 -10.4 -32.0 -10.15 -32.05 -9.85 M-42.35 -9.55 L-42.15 -9.75 -42.05 -9.85 -41.95 -9.9 -41.6 -10.05 -41.25 -10.15 -41.25 -10.2 -41.0 -10.2 -40.75 -10.1 -40.5 -10.25 -39.75 -10.3 -38.1 -10.35 -38.15 -10.25 -38.15 -10.15 -38.15 -10.1 -38.15 -10.0 -38.1 -9.9 -38.0 -9.75 -37.9 -9.6 -37.8 -9.5 -37.65 -9.45 -36.9 -9.3 -36.9 -9.25 -36.7 -9.05 -39.75 -9.2 -40.5 -9.25 -40.8 -9.3 -41.05 -9.25 -41.25 -9.05 -41.4 -8.85 -41.4 -8.8 -41.4 -8.7 -41.4 -8.45 -41.4 -8.3 -41.4 -8.25 -41.4 -8.1 -41.3 -7.95 -41.0 -7.8 -40.65 -7.7 -40.5 -7.5 -40.4 -7.35 -40.25 -7.45 -37.75 -7.45 -37.75 -7.5 -36.1 -7.5 -36.15 -7.1 -36.15 -6.6 -36.15 -6.5 -37.75 -6.5 -39.2 -6.5 -39.25 -6.5 -39.5 -6.35 -39.75 -6.3 -40.0 -6.25 -40.5 -6.25 -41.0 -6.3 -41.3 -6.45 -41.5 -6.55 -41.8 -6.7 -42.0 -6.85 -42.05 -6.95 -42.2 -7.1 -42.35 -7.3 -42.5 -7.5 -42.55 -7.85 -42.55 -8.05 -42.55 -8.6 -42.55 -8.8 -42.55 -9.0 -42.55 -9.2 -42.45 -9.35 -42.35 -9.55 M-24.85 -6.95 L-25.0 -6.9 -26.0 -6.75 -26.25 -6.6 -27.2 -6.55 -27.5 -6.5 -29.45 -6.5 -29.45 -6.55 -29.45 -6.8 -29.5 -7.0 -29.6 -7.15 -29.6 -7.25 -30.05 -7.5 -27.5 -7.5 -27.2 -7.45 -26.1 -7.3 -25.9 -7.2 -24.95 -7.0 -24.85 -6.95 M-29.6 -0.1 L-29.55 -0.2 -29.4 -0.25 -29.1 -0.4 -29.0 -0.4 -29.0 -0.35 -29.1 -0.25 -29.2 -0.15 -29.25 -0.1 -29.25 0.0 -29.25 0.05 -29.25 0.15 -29.25 0.2 -29.25 0.3 -29.2 0.35 -29.15 0.45 -29.05 0.5 -29.0 0.6 -28.75 0.65 -28.45 0.7 -28.35 0.65 -28.35 0.55 -28.35 0.5 -28.35 0.4 -28.35 0.35 -28.35 0.25 -28.4 0.2 -28.45 0.1 -28.55 -0.05 -28.6 -0.1 -28.65 -0.2 -28.65 -0.25 -28.7 -0.35 -28.75 -0.4 -28.75 -0.5 -28.75 -0.55 -28.7 -0.65 -28.6 -0.7 -28.45 -0.7 -28.3 -0.65 -28.15 -0.5 -28.05 -0.35 -27.95 -0.2 -27.85 -0.15 -27.85 -0.05 -27.8 0.0 -27.8 0.1 -27.75 0.15 -27.75 0.25 -27.75 0.3 -27.75 0.45 -27.75 0.6 -27.75 0.75 -27.75 0.85 -27.75 0.9 -27.8 1.0 -27.85 1.05 -27.85 1.1 -27.95 1.1 -28.1 1.15 -28.25 1.25 -28.65 1.2 -29.05 1.1 -29.15 1.0 -29.3 0.95 -29.35 0.85 -29.45 0.8 -29.5 0.7 -29.55 0.65 -29.6 0.55 -29.6 0.5 -29.65 0.4 -29.65 0.25 -29.65 0.1 -29.6 -0.05 -29.6 -0.1 M-25.85 6.9 L-25.75 7.0 -25.75 7.05 -25.7 7.15 -25.7 7.2 -25.65 7.3 -25.65 7.35 -25.6 7.45 -25.6 7.5 -25.6 7.6 -25.65 7.65 -25.65 7.75 -25.65 7.8 -25.65 7.95 -25.7 8.0 -25.75 8.1 -25.8 8.2 -25.85 8.25 -25.85 8.3 -26.45 8.4 -27.35 8.2 -27.45 8.15 -27.5 8.05 -27.6 8.0 -27.65 7.9 -27.7 7.85 -27.7 7.75 -27.7 7.7 -27.7 7.6 -27.7 7.55 -27.7 7.45 -27.7 7.35 -27.65 7.3 -27.65 7.25 -27.55 7.15 -27.55 7.05 -27.55 6.95 -27.5 6.85 -27.45 6.8 -27.35 6.75 -27.25 6.75 -27.2 6.7 -27.2 6.65 -27.2 6.55 -27.15 6.5 -27.05 6.4 -26.95 6.35 -26.85 6.35 -26.65 6.4 -26.45 6.45 -26.2 6.6 -26.05 6.7 -26.0 6.75 -25.9 6.85 -25.85 6.9 M-26.3 7.4 L-26.35 7.35 -26.4 7.25 -26.5 7.2 -26.6 7.1 -26.75 7.05 -26.9 7.0 -27.0 6.95 -27.0 7.0 -27.05 7.05 -27.15 7.15 -27.15 7.2 -27.2 7.3 -27.2 7.4 -27.2 7.5 -27.2 7.6 -27.2 7.65 -27.05 7.75 -26.45 7.75 -26.3 7.7 -26.25 7.65 -26.3 7.55 -26.3 7.5 -26.3 7.4 M-33.7 16.2 L-33.75 16.0 -33.7 15.85 -33.55 15.65 -33.25 15.5 -32.75 15.5 Q-12.3 15.3 -2.55 15.45 L13.85 15.45 Q20.7 15.25 32.85 15.35 L33.75 15.5 33.95 15.75 34.05 15.9 34.05 16.05 33.95 16.25 33.8 16.45 33.6 16.6 33.65 16.7 28.95 16.95 16.25 16.9 -0.95 16.8 -22.4 16.85 -33.45 16.55 -33.7 16.2 M-23.6 13.45 L-23.5 13.4 -12.9 13.1 17.35 13.1 17.6 13.25 17.7 13.4 17.75 13.55 17.65 13.75 17.6 13.85 17.35 13.95 -12.9 14.0 -22.45 13.6 -23.6 13.45 M24.35 13.9 L23.85 13.95 19.7 13.7 19.6 13.5 19.7 13.35 20.35 13.2 20.6 13.15 22.1 13.1 23.85 13.1 24.45 13.2 24.65 13.4 24.7 13.55 24.6 13.75 24.35 13.9" fill="#333333" fill-rule="evenodd" stroke="none"/>
    <path d="M-38.1 -6.7 L-38.05 -6.5 -38.05 -6.35 -38.05 -6.1 -38.05 -5.95 -36.4 -0.4 -34.75 5.6 -33.8 9.3 -33.75 9.45 -33.7 9.65 -33.65 9.85 -33.65 10.0 -33.6 10.15 -33.55 10.35 -33.45 10.55 -33.4 10.7 -33.35 10.85 -33.35 11.05 -32.9 12.2 -32.45 13.8 -32.2 15.25 -32.25 15.45 -32.0 15.9 Q-31.8 16.25 -32.0 16.3 L-32.7 16.05 -33.35 15.75 -33.5 15.55 -33.9 13.95 -34.45 12.1 -34.85 10.45 -36.2 4.55 Q-36.9 1.45 -37.85 -1.2 L-39.3 -5.85 -39.25 -6.05 -39.2 -6.2 -39.35 -6.4 -39.5 -6.55 -39.6 -6.7 -39.7 -6.8 -39.8 -7.0 -39.8 -7.15 -39.75 -7.4 -39.45 -7.6 -39.45 -7.65 -39.1 -7.55 -38.95 -7.45 -38.6 -7.1 -38.2 -6.85 -38.1 -6.7" fill="#333333" fill-rule="evenodd" stroke="none"/>
    <path d="M34.0 15.75 L34.05 15.55 34.05 15.4 34.05 15.15 34.05 15.0 35.5 9.4 Q36.1 6.6 36.8 4.15 37.4 1.8 37.9 0.75 L38.35 -0.4 38.4 -0.6 38.45 -0.8 38.45 -0.95 38.5 -1.1 38.55 -1.3 38.65 -1.5 38.7 -1.65 38.75 -1.8 38.75 -2.0 39.2 -3.15 39.65 -4.75 39.9 -6.2 39.85 -6.4 39.75 -6.65 39.4 -6.8 38.95 -6.85 38.75 -6.7 38.6 -6.5 38.2 -4.9 37.65 -3.05 37.25 -1.4 35.45 4.45 33.7 10.95 32.8 14.9 32.85 15.1 32.9 15.25 32.75 15.45 32.6 15.6 32.5 15.75 32.4 15.85 32.3 16.05 32.3 16.2 32.35 16.45 32.65 16.65 32.65 16.7 33.0 16.6 33.15 16.5 33.5 16.15 33.9 15.9 34.0 15.75" fill="#333333" fill-rule="evenodd" stroke="none"/>
    <path d="M-33.45 -6.4 L-33.4 -6.75 -33.4 -6.45 -33.5 -5.65 -33.45 -6.4 M-30.15 -12.65 L-30.25 -13.0 -30.35 -13.25 -30.45 -13.5 Q-32.05 -15.25 -33.8 -15.6 -37.4 -16.55 -39.55 -14.8 L-40.1 -14.45 -40.3 -13.8 -40.3 -13.5 -40.3 -13.1 -40.2 -12.85 -40.2 -12.5 -39.7 -11.75 -38.8 -10.9 -37.2 -9.9 -37.2 -9.85 -37.15 -9.8 -37.05 -9.7 -36.85 -9.55 -36.85 -9.5 -36.75 -9.4 -36.7 -9.35 -36.4 -8.85 -36.1 -8.45 -36.0 -8.25 -35.95 -8.1 Q-35.85 -7.6 -35.9 -7.0 -35.85 -6.0 -36.35 -5.15 L-36.3 -5.15 -34.45 -5.0 -34.45 -5.2 -34.45 -5.5 Q-34.15 -6.9 -34.55 -8.1 L-34.6 -8.25 -34.8 -8.55 -35.35 -9.6 -35.35 -9.65 -35.5 -9.75 -35.5 -9.8 -35.65 -9.9 -35.9 -10.05 -36.2 -10.35 -36.6 -10.5 -37.1 -10.9 -38.5 -12.15 -38.8 -13.25 Q-38.9 -13.75 -38.4 -14.05 L-36.9 -14.55 -35.25 -14.6 -33.7 -14.3 Q-33.05 -14.3 -31.8 -13.55 L-31.25 -12.1 -31.25 -10.9 -31.55 -9.9 -31.95 -9.6 -31.75 -8.85 -31.8 -8.75 -32.0 -8.0 -31.95 -7.35 Q-31.85 -6.05 -31.3 -4.95 L-29.85 -4.85 -29.4 -4.85 Q-28.8 -4.85 -28.8 -5.2 L-28.95 -5.55 -29.0 -5.55 -29.05 -5.6 -29.1 -5.6 -29.15 -5.65 -29.15 -5.85 -29.3 -6.05 -29.4 -6.15 -29.5 -6.25 -29.85 -6.65 -30.0 -6.8 -30.2 -7.0 -30.4 -7.2 -30.5 -7.35 -30.5 -7.45 -30.55 -7.5 -30.55 -7.6 -30.6 -7.6 -30.6 -7.7 -30.6 -7.8 -30.6 -7.95 -30.6 -8.05 -30.7 -8.15 -30.75 -8.2 -30.75 -8.3 -30.75 -8.4 -30.75 -8.5 -30.75 -8.55 -30.7 -8.6 -30.7 -8.65 -30.65 -8.75 -30.65 -8.85 -30.6 -9.15 -30.65 -9.25 -30.65 -9.4 -30.9 -9.5 -30.3 -10.9 -30.15 -11.9 -30.2 -12.4 -30.15 -12.65 M-41.1 -12.1 Q-41.5 -12.7 -41.35 -13.6 -41.25 -14.55 -40.7 -15.15 L-39.85 -15.95 -38.65 -16.4 -36.8 -16.8 -34.65 -16.75 -32.8 -16.3 Q-31.9 -15.95 -31.35 -15.6 L-30.4 -14.8 -29.55 -13.8 -29.4 -13.65 Q-29.1 -12.65 -29.1 -11.85 L-29.1 -11.4 Q-29.05 -11.3 -29.15 -11.15 L-29.25 -10.9 Q-29.2 -10.15 -29.8 -9.55 L-29.75 -9.55 -29.75 -9.4 -29.7 -9.35 -29.75 -9.35 -29.75 -9.3 -29.8 -9.25 -29.8 -9.15 -29.85 -9.1 -29.85 -9.05 -29.85 -8.85 -29.85 -8.65 -29.85 -8.4 Q-29.7 -7.5 -29.05 -6.6 L-29.0 -6.5 -28.7 -6.25 -28.6 -6.1 -28.6 -5.95 -28.25 -5.4 -28.05 -4.8 -28.05 -4.55 Q-28.05 -4.15 -28.4 -4.15 L-29.85 -4.1 -31.2 -4.15 -31.3 -4.15 -31.35 -4.2 -31.4 -4.25 -31.5 -4.3 -31.6 -4.4 -31.7 -4.5 -31.85 -4.55 -32.4 -5.65 -32.75 -6.9 -32.7 -7.75 -32.65 -8.75 -32.5 -9.05 -32.5 -9.6 -32.35 -10.9 -32.25 -11.5 -32.25 -13.1 -32.95 -13.5 -34.2 -13.75 -36.05 -13.95 -37.3 -13.6 Q-38.1 -13.45 -38.15 -12.8 L-37.25 -11.9 -35.95 -10.9 -35.95 -10.85 -35.85 -10.75 -35.75 -10.7 -35.7 -10.65 -35.6 -10.65 -35.6 -10.6 -35.55 -10.55 -35.5 -10.5 -35.45 -10.5 -35.4 -10.45 -35.35 -10.4 -35.25 -10.35 -35.2 -10.3 -35.15 -10.25 -34.05 -8.65 -33.85 -8.25 -33.8 -8.1 Q-33.45 -6.85 -33.7 -5.35 L-33.8 -4.6 -33.85 -4.4 Q-35.55 -3.75 -36.95 -4.4 L-37.1 -4.4 -37.1 -4.45 -37.15 -4.5 -37.1 -4.9 -37.15 -5.0 -37.05 -5.2 -36.85 -6.05 Q-36.55 -6.45 -36.6 -7.0 L-36.55 -7.15 -36.6 -7.25 -36.7 -7.85 -36.75 -7.9 -36.7 -8.1 -36.7 -8.25 -37.3 -9.0 -38.85 -10.05 -40.05 -10.9 -40.45 -11.25 -41.1 -12.1 M-32.85 -6.45 L-32.9 -6.75 -32.9 -6.9 -32.85 -6.45" fill="#333333" fill-rule="evenodd" stroke="none"/>
    <path d="M32.8 -16.45 L34.65 -16.9 36.75 -16.95 38.4 -16.85 Q39.15 -16.75 39.75 -16.3 L41.05 -15.35 Q41.7 -14.75 41.65 -13.8 41.7 -12.85 41.3 -12.25 L40.75 -11.4 39.2 -10.2 38.35 -9.65 36.5 -9.65 36.65 -9.75 Q36.95 -9.95 36.8 -9.7 L38.05 -10.35 Q39.5 -11.2 39.95 -11.9 L40.4 -12.65 40.4 -13.0 40.45 -13.25 40.45 -13.65 40.4 -13.95 40.15 -14.6 39.6 -14.95 Q37.35 -16.7 33.85 -15.75 32.1 -15.4 30.6 -13.65 L30.5 -13.4 30.45 -13.15 30.35 -12.8 30.4 -12.55 30.4 -12.05 30.6 -11.0 Q30.8 -10.3 31.3 -9.65 L30.2 -9.65 29.75 -10.4 29.45 -11.3 29.35 -11.55 29.35 -12.0 Q29.3 -12.8 29.55 -13.8 L29.65 -13.95 30.45 -14.95 31.4 -15.75 32.8 -16.45 M35.2 -14.9 L37.25 -14.65 38.55 -14.2 39.25 -13.6 38.7 -12.3 Q37.15 -10.6 35.55 -9.7 L35.5 -9.7 Q35.75 -10.95 37.5 -12.05 38.2 -12.45 38.35 -12.95 38.25 -13.6 37.45 -13.75 L36.2 -14.1 34.3 -13.9 33.1 -13.65 32.4 -13.25 32.5 -11.65 32.85 -10.4 32.95 -10.1 32.9 -9.9 Q31.95 -9.5 31.65 -10.75 L31.45 -12.25 Q31.7 -13.25 32.1 -14.05 L34.0 -14.75 35.2 -14.9" fill="#333333" fill-rule="evenodd" stroke="none"/>
    <path d="M-32.65 -6.2 L-32.6 -6.0 -32.6 -5.85 -32.6 -5.65 -32.55 -5.45 -30.95 0.1 -29.3 6.1 -28.3 9.8 -28.3 9.9 -28.25 10.1 -28.2 10.3 -28.15 10.5 -28.1 10.65 -28.05 10.85 -28.0 11.0 -27.95 11.15 -27.9 11.3 -27.85 11.55 -27.45 12.7 -27.0 14.3 -26.7 15.75 -26.7 15.95 -26.75 16.15 -26.85 16.25 -27.1 16.25 -27.2 16.05 -27.3 15.9 -27.7 14.3 -28.3 12.4 -28.7 10.75 -30.4 4.9 -32.2 -1.6 -33.15 -5.55 -33.15 -5.7 -33.15 -5.85 -33.25 -6.05 -33.35 -6.25 -33.45 -6.4 -33.55 -6.5 -33.6 -6.7 -33.65 -6.85 -33.6 -7.1 -33.45 -7.2 -33.45 -7.25 -33.3 -7.15 -33.2 -7.0 -33.0 -6.65 -32.75 -6.35 -32.65 -6.2" fill="#333333" fill-rule="evenodd" stroke="none"/>
  </g>
</svg>
