<?xml version="1.0" encoding="UTF-8" standalone="no"?>
<svg xmlns:xlink="http://www.w3.org/1999/xlink" height="116.3px" width="357.1px" xmlns="http://www.w3.org/2000/svg">
  <g transform="matrix(1.0, 0.0, 0.0, 1.0, 1.0, 1.0)">
    <path d="M95.1 21.5 L98.1 20.75 103.1 19.5 107.0 18.6 111.0 17.65 114.05 16.95 115.65 16.65 119.55 15.85 123.55 15.05 127.55 14.25 130.6 13.65 133.6 13.05 137.6 12.35 141.6 11.65 145.6 10.95 149.6 10.25 152.65 9.75 155.65 9.3 159.65 8.7 163.65 8.1 167.65 7.5 171.65 6.95 175.65 6.45 178.65 6.1 182.1 5.7 186.1 5.25 190.1 4.85 194.1 4.45 198.1 4.05 202.1 3.75 206.1 3.45 209.1 3.2 210.6 3.15 214.6 2.95 218.6 2.75 222.6 2.6 226.6 2.5 230.6 2.4 234.65 2.4 237.65 2.4 240.55 2.4 244.55 2.45 248.55 2.55 252.55 2.65 256.55 2.8 260.55 3.0 264.5 3.2 267.5 3.4 269.5 3.55 273.5 3.85 277.5 4.25 281.5 4.7 285.5 5.2 289.5 5.75 292.5 6.2 295.45 6.65 299.45 7.35 303.4 8.15 307.35 9.05 311.3 10.05 314.25 10.9 317.75 11.95 321.55 13.3 325.35 14.75 329.0 16.35 331.65 17.6 334.7 19.15 338.15 21.2 341.45 23.4 343.85 25.15 346.95 27.7 349.65 30.65 351.55 33.0 353.6 36.65 354.6 40.5 355.05 43.4 355.05 45.9 354.05 49.8 353.1 52.65 352.0 54.85 349.6 58.05 347.05 60.95 344.95 63.0 344.05 63.9 340.85 66.3 337.55 68.65 335.05 70.35 330.75 72.9 327.2 74.75 323.65 76.55 320.1 78.25 316.45 79.9 313.7 81.1 311.8 81.9 308.1 83.3 304.35 84.75 300.6 86.1 296.8 87.45 293.0 88.7 290.05 89.65 288.45 90.2 284.6 91.3 280.8 92.45 277.0 93.5 273.15 94.55 269.25 95.6 265.3 96.6 262.3 97.4 260.4 97.9 256.5 98.8 252.6 99.65 248.7 100.5 244.75 101.35 240.8 102.15 236.8 102.9 233.8 103.5 230.0 104.15 226.05 104.8 222.1 105.45 218.1 106.1 214.1 106.75 210.1 107.3 206.1 107.9 202.05 108.45 199.05 108.85 197.55 109.1 193.55 109.6 189.55 110.05 185.55 110.5 181.55 110.95 177.55 111.35 173.55 111.7 169.55 112.05 166.55 112.3 164.55 112.5 160.55 112.8 156.55 113.05 152.55 113.3 148.55 113.5 144.55 113.7 140.55 113.85 136.5 114.0 133.5 114.1 132.1 114.15 128.1 114.2 124.1 114.25 120.1 114.3 116.1 114.3 112.1 114.25 108.1 114.2 105.1 114.15 101.1 114.1 97.1 113.95 93.1 113.8 89.1 113.6 85.1 113.35 81.1 113.1 77.15 112.75 74.15 112.5 72.65 112.4 68.65 111.95 64.65 111.5 60.65 110.95 56.65 110.4 52.7 109.75 49.7 109.2 48.2 108.95 44.3 108.15 40.45 107.3 36.55 106.3 32.6 105.25 29.65 104.4 27.8 103.8 24.0 102.45 20.3 100.95 16.65 99.25 14.0 97.9 12.6 97.15 9.3 94.9 6.25 92.4 4.1 90.4 3.0 89.2 Q1.95 87.55 1.2 85.75 L0.2 82.95 0.0 81.1 0.45 77.1 Q0.75 75.15 1.2 73.2 L2.35 69.4 3.35 66.65 4.9 63.5 7.15 60.25 9.75 57.2 11.9 55.05 13.6 53.7 16.8 51.45 20.15 49.25 23.55 47.2 26.1 45.75 27.8 44.85 31.4 43.0 34.95 41.2 38.55 39.5 42.25 37.8 45.0 36.5 46.7 35.8 50.35 34.2 54.05 32.65 57.75 31.15 61.5 29.65 64.35 28.55 68.75 26.9 72.45 25.55 76.2 24.25 80.0 22.95 83.8 21.7 87.65 20.45 90.65 19.55 92.75 18.95 96.6 17.85 100.5 16.75 104.4 15.7 108.3 14.7 112.3 13.7 115.3 12.95 118.15 12.25 122.05 11.35 125.9 10.5 129.8 9.65 133.75 8.8 137.75 8.0 140.75 7.45 143.65 6.9 147.65 6.2 151.65 5.5 155.65 4.9 159.65 4.3 162.65 3.85 167.15 3.3 171.15 2.8 175.15 2.35 179.15 1.95 183.2 1.6 186.2 1.35 188.1 1.2 192.1 0.9 196.1 0.65 200.1 0.45 203.1 0.35 205.55 0.25 209.55 0.15 213.55 0.05 216.55 0.0 221.05 0.0 225.05 0.0 229.05 0.05 232.05 0.1 234.05 0.15 238.05 0.25 241.05 0.3 245.05 0.35 249.05 0.4 253.05 0.45 256.05 0.45 257.55 0.5" fill="none" stroke="#ffffff" stroke-linecap="round" stroke-linejoin="round" stroke-width="2.0"/>
  </g>
</svg>
