<?xml version="1.0" encoding="UTF-8" standalone="no"?>
<svg xmlns:xlink="http://www.w3.org/1999/xlink" height="14.0px" width="277.95px" xmlns="http://www.w3.org/2000/svg">
  <g transform="matrix(1.0, 0.0, 0.0, 1.0, 1.0, 1.0)">
    <path d="M275.95 12.0 L271.95 11.6 268.95 11.3 265.95 11.05 261.95 10.7 257.95 10.35 254.95 10.1 253.45 10.05 249.45 9.75 245.45 9.45 242.45 9.2 238.45 8.95 234.45 8.65 230.45 8.35 226.45 8.05 223.45 7.8 220.45 7.55 216.45 7.25 212.45 6.95 208.45 6.65 204.45 6.4 201.45 6.2 199.95 6.15 195.95 5.95 191.95 5.75 187.95 5.5 183.95 5.3 180.95 5.15 177.45 5.0 173.45 4.8 169.45 4.6 165.45 4.4 161.45 4.25 158.45 4.15 154.45 4.0 150.45 3.8 146.45 3.6 142.45 3.4 138.45 3.2 135.45 3.1 131.0 2.85 127.0 2.65 123.0 2.45 119.0 2.2 115.0 2.0 112.0 1.85 108.5 1.6 104.5 1.4 100.5 1.2 96.5 1.0 92.5 0.8 89.5 0.65 87.5 0.6 83.5 0.45 79.5 0.35 75.5 0.25 72.5 0.15 68.0 0.1 64.0 0.05 60.0 0.05 56.0 0.0 53.0 0.0 51.5 0.0 47.5 0.0 43.5 0.05 40.5 0.1 37.5 0.15 33.5 0.25 30.5 0.4 26.5 0.65 22.5 1.05 19.55 1.45 17.55 1.8 13.55 2.4 9.55 2.9 5.5 3.2 2.5 3.4 0.0 3.5" fill="none" stroke="#ffffff" stroke-linecap="round" stroke-linejoin="round" stroke-width="2.0"/>
  </g>
</svg>
