<?xml version="1.0" encoding="UTF-8" standalone="no"?>
<svg xmlns:xlink="http://www.w3.org/1999/xlink" height="92.9px" width="251.55px" xmlns="http://www.w3.org/2000/svg">
  <g transform="matrix(1.0, 0.0, 0.0, 1.0, 0.65, 1.0)">
    <path d="M84.45 8.8 L88.3 7.85 92.3 6.95 96.3 6.05 99.35 5.4 102.55 4.75 106.55 4.0 110.55 3.3 114.55 2.65 118.55 2.1 121.6 1.8 124.5 1.5 128.5 1.1 132.5 0.8 136.5 0.5 140.5 0.3 144.55 0.15 147.55 0.05 148.95 0.05 152.95 0.0 156.95 0.0 160.95 0.0 164.95 0.1 168.9 0.2 171.9 0.35 173.9 0.45 177.9 0.7 181.9 1.0 185.9 1.35 189.9 1.8 192.9 2.2 197.85 2.9 201.85 3.6 205.8 4.4 209.8 5.3 213.8 6.3 216.8 7.15 218.2 7.55 222.0 8.8 225.75 10.25 229.4 11.85 232.15 13.15 234.0 14.1 237.35 16.2 240.6 18.65 242.95 20.65 244.55 22.15 246.8 25.35 248.3 27.95 249.5 31.15 249.85 35.15 249.85 38.2 249.5 40.55 248.15 44.2 246.95 46.95 245.05 50.15 242.4 53.3 239.6 56.25 237.4 58.3 235.9 59.55 232.6 61.8 229.3 63.95 225.95 65.95 223.35 67.35 221.1 68.5 217.4 70.1 213.75 71.65 210.1 73.1 206.35 74.45 203.5 75.45 201.25 76.2 197.4 77.3 193.6 78.35 189.75 79.4 185.85 80.35 181.85 81.3 178.85 82.05 177.35 82.4 173.45 83.2 169.5 83.95 165.55 84.7 161.6 85.4 157.6 86.05 154.6 86.55 149.85 87.25 145.85 87.75 141.85 88.25 137.85 88.7 133.85 89.1 129.85 89.45 125.8 89.75 122.8 89.95 120.9 90.15 116.9 90.35 112.9 90.5 108.9 90.65 104.9 90.8 100.9 90.85 96.9 90.9 93.9 90.9 90.95 90.9 86.95 90.8 82.95 90.75 79.0 90.6 75.0 90.45 71.0 90.2 68.0 90.05 63.5 89.75 59.5 89.35 55.5 88.95 51.5 88.5 47.5 87.95 43.5 87.3 40.5 86.85 39.1 86.6 35.2 85.8 31.35 84.9 27.5 83.9 24.6 83.05 19.8 81.5 16.05 79.95 12.4 78.2 9.8 76.8 6.7 74.8 3.95 72.05 2.15 69.8 0.75 67.15 Q0.4 65.15 0.35 63.15 0.35 61.15 0.5 60.15 L0.8 58.75 2.55 55.1 4.05 52.45 6.7 48.95 9.45 46.1 12.35 43.35 15.35 40.8 17.7 39.0 19.05 38.05 22.4 35.8 25.85 33.6 29.35 31.5 32.05 30.0 36.2 27.85 39.8 26.1 43.5 24.4 47.2 22.8 50.9 21.25 53.65 20.15 57.15 18.8 60.85 17.45 64.65 16.15 68.45 14.9 72.25 13.8 75.1 12.95 79.1 11.9 82.95 10.9 86.85 9.95 90.85 9.1 94.85 8.3 97.9 7.7 101.0 7.2 105.0 6.55 109.0 6.0 113.05 5.55 116.05 5.25 121.0 4.9 125.0 4.65 129.0 4.45 133.05 4.35 136.05 4.3 138.95 4.3 142.95 4.3 146.95 4.4 149.95 4.45 154.45 4.6 158.45 4.75 162.45 5.05 165.45 5.35 166.95 5.5 170.95 5.95 173.95 6.4 177.45 6.9 181.45 7.55 185.45 8.3 189.45 9.1 192.45 9.75 196.95 10.8" fill="none" stroke="#ffffff" stroke-linecap="round" stroke-linejoin="round" stroke-width="2.0"/>
  </g>
</svg>
