<?xml version="1.0" encoding="UTF-8" standalone="no"?>
<svg xmlns:xlink="http://www.w3.org/1999/xlink" height="45.5px" width="18.5px" xmlns="http://www.w3.org/2000/svg">
  <g transform="matrix(1.0, 0.0, 0.0, 1.0, 1.0, 1.0)">
    <path d="M13.0 35.0 L11.55 37.1 9.0 38.8 7.4 39.9 5.15 41.85 4.1 42.9 3.55 42.45 3.35 42.95 3.0 43.5 1.55 39.95 1.35 39.55 0.4 36.7 0.0 34.0 0.45 35.0 1.55 39.95 3.55 42.45 3.75 41.5 4.2 38.55 4.45 37.0 5.25 33.15 6.15 29.3 7.05 25.45 7.8 22.5 9.05 18.0 10.2 14.2 11.5 10.5 13.05 6.8 14.3 4.05 16.5 0.0" fill="none" stroke="#ffffff" stroke-linecap="round" stroke-linejoin="round" stroke-width="2.0"/>
  </g>
</svg>
