<?xml version="1.0" encoding="UTF-8" standalone="no"?>
<svg xmlns:xlink="http://www.w3.org/1999/xlink" height="116.65px" width="249.0px" xmlns="http://www.w3.org/2000/svg">
  <g transform="matrix(1.0, 0.0, 0.0, 1.0, 0.95, 1.0)">
    <path d="M40.85 15.4 L44.6 13.95 48.35 12.6 51.15 11.6 55.0 10.3 58.8 9.05 62.65 7.9 66.55 6.85 69.5 6.1 74.5 4.95 78.4 4.1 82.3 3.35 86.3 2.7 90.3 2.1 93.3 1.7 97.95 1.2 101.95 0.85 105.95 0.55 109.95 0.3 113.95 0.1 117.95 0.0 120.95 0.0 123.85 0.0 127.85 0.05 131.85 0.2 135.85 0.4 139.85 0.7 143.85 1.0 146.85 1.3 151.75 1.8 155.75 2.35 159.75 2.95 163.8 3.6 167.8 4.35 171.75 5.2 174.75 5.9 178.15 6.75 182.05 7.8 185.9 8.95 189.75 10.2 193.5 11.5 197.3 12.9 200.15 14.05 201.95 14.8 205.6 16.4 209.25 18.15 212.85 20.0 216.4 21.9 219.0 23.4 221.85 25.15 225.15 27.35 228.35 29.7 231.5 32.25 233.8 34.25 236.45 36.8 239.1 39.85 241.5 43.05 243.1 45.55 244.9 49.05 246.05 52.85 246.75 55.8 247.05 60.35 246.4 64.35 245.75 67.35 244.05 71.75 241.95 75.1 239.55 78.35 237.55 80.65 236.1 82.15 233.0 84.7 229.85 87.2 226.6 89.5 224.1 91.15 222.4 92.2 218.85 94.1 215.3 95.9 211.7 97.6 208.05 99.15 205.25 100.3 203.55 101.0 199.8 102.3 196.05 103.55 192.25 104.75 188.45 105.8 185.55 106.6 180.7 107.75 176.8 108.55 172.9 109.35 168.95 110.1 164.95 110.75 160.95 111.4 157.95 111.8 154.75 112.25 150.75 112.65 146.75 113.05 142.75 113.4 138.75 113.7 134.75 113.95 131.75 114.15 127.35 114.4 123.35 114.5 119.35 114.55 115.35 114.6 111.35 114.6 107.35 114.55 104.35 114.5 100.35 114.4 96.35 114.15 92.35 113.9 88.35 113.65 84.35 113.3 80.35 112.9 77.35 112.6 74.4 112.3 70.4 111.7 66.4 111.15 62.4 110.5 58.4 109.75 55.4 109.1 51.5 108.25 47.7 107.25 43.9 106.15 40.1 104.95 36.3 103.55 33.4 102.45 32.2 102.0 28.6 100.35 25.15 98.65 21.75 96.75 19.2 95.2 16.8 93.7 13.65 91.3 10.6 88.7 8.45 86.65 6.2 84.2 3.95 80.9 2.45 78.3 0.85 74.0 0.3 70.05 0.05 67.1 0.45 62.6 1.45 58.8 Q2.05 56.9 2.8 55.05 L4.05 52.35 4.8 50.95 7.05 47.6 9.45 44.35 11.35 42.0 14.55 38.65 17.5 35.95 20.6 33.35 23.7 30.9 26.1 29.2 29.3 27.05 32.65 24.95 36.15 22.9 39.7 20.95 43.25 19.1 45.95 17.8 47.65 17.0 51.35 15.35 55.05 13.8 58.8 12.3 62.55 10.95 65.3 9.95 68.05 9.05 71.9 7.9 75.75 6.85 79.6 5.85 83.6 4.95 86.65 4.35 87.95 4.05 91.95 3.4 95.95 2.85 100.0 2.4 103.0 2.1 106.4 1.85 110.4 1.65 114.45 1.55 117.45 1.55 122.35 1.65 126.35 1.8 130.35 2.05 133.35 2.3 136.35 2.6 140.35 3.05 143.35 3.45 147.3 4.1 151.25 4.95 154.25 5.7 156.25 6.3 160.0 7.55 162.85 8.55 167.85 10.4" fill="none" stroke="#ffffff" stroke-linecap="round" stroke-linejoin="round" stroke-width="2.0"/>
  </g>
</svg>
