<?xml version="1.0" encoding="UTF-8" standalone="no"?>
<svg xmlns:xlink="http://www.w3.org/1999/xlink" height="111.35px" width="105.3px" xmlns="http://www.w3.org/2000/svg">
  <g transform="matrix(1.0, 0.0, 0.0, 1.0, 52.65, 55.7)">
    <path d="M-48.95 -17.95 L-48.95 -18.6 -48.95 -19.65 -48.95 -20.75 -49.4 -21.75 -50.05 -22.85 -50.3 -23.95 -50.4 -25.0 -50.4 -26.1 -50.4 -31.45 -50.4 -35.75 -50.4 -43.25 -50.4 -45.4 -49.95 -46.4 -49.25 -47.5 -48.2 -48.55 Q-47.7 -48.95 -47.15 -49.3 L-46.45 -49.6 -44.3 -50.0 -41.45 -49.3 -40.4 -48.6 -40.05 -48.65 -37.5 -49.3 -36.45 -50.4 -35.0 -51.1 -32.85 -51.4 -24.35 -52.35 -21.45 -52.9 -5.75 -53.05 -2.85 -53.1 3.85 -53.85 3.9 -53.8 4.2 -53.7 4.5 -53.6 4.75 -53.55 5.05 -53.55 5.5 -53.75 5.85 -54.0 7.0 -54.0 7.1 -53.8 7.3 -53.55 7.4 -53.4 7.55 -53.25 11.65 -53.35 15.65 -54.65 22.85 -54.65 25.75 -54.15 34.25 -53.05 37.15 -52.5 38.55 -51.4 39.65 -50.4 40.35 -49.65 41.4 -49.75 42.15 -49.95 44.3 -50.4 47.15 -49.65 48.55 -48.55 49.65 -47.5 50.0 -46.45 50.35 -45.4 50.7 -44.3 50.7 -43.25 50.7 -42.15 50.7 -41.1 50.7 -34.65 50.7 -29.3 50.7 -19.65 50.7 -17.5 50.35 -16.45 50.0 -15.35 49.75 -14.3 49.75 -14.1 48.85 -15.25 48.9 -15.4 48.9 -15.5 49.0 -15.65 49.05 -15.8 49.05 -15.9 49.05 -16.05 49.05 -16.2 49.05 -16.3 49.05 -16.45 49.0 -16.6 48.9 -16.7 48.85 -16.85 48.75 -17.0 48.75 -17.1 48.75 -17.25 48.75 -17.4 48.75 -17.55 48.75 -17.65 48.7 -17.8 48.65 -17.95 48.55 -18.05 48.5 -18.2 48.25 -18.35 47.9 -18.4 47.65 -18.35 47.45 -18.3 47.25 -18.15 47.2 -18.0 47.1 -17.9 47.05 -17.75 47.0 -17.6 46.95 -17.5 46.85 -17.35 46.85 -17.3 45.7 -18.25 42.85 -18.95 3.55 -18.6 2.15 -17.85 1.85 -17.85 -5.3 -17.9 -39.55 -17.9 -40.0 -18.25 -42.9 -18.95 -44.3 -18.95 -44.35 -18.75 -46.45 -18.45 -47.1 -18.25 -47.15 -18.25 -47.9 -18.35 -48.15 -18.3 -48.35 -18.2 -48.7 -18.1 -48.85 -18.0 -48.95 -17.95 M48.15 19.35 L48.2 20.35 48.2 21.45 48.2 27.85 48.2 33.2 48.2 42.85 47.8 43.9 47.15 45.0 46.45 46.1 45.65 47.1 44.65 48.2 42.85 49.3 39.3 50.45 37.85 51.1 35.7 51.3 20.0 51.45 18.55 51.45 15.7 52.15 12.85 52.85 5.7 52.85 2.85 52.15 -42.9 51.45 -45.75 50.75 -47.55 49.65 -48.55 48.55 -49.3 47.5 -49.6 46.4 -49.65 45.35 -49.65 44.3 -49.65 40.0 -49.85 35.75 Q-50.1 33.1 -49.9 30.35 L-49.65 28.2 -50.1 27.2 -50.75 26.05 -51.0 25.0 -51.1 23.95 -51.1 22.85 -51.1 21.8 -51.1 20.7 -51.1 18.55 -50.65 17.55 -49.95 16.45 -49.05 15.45 -48.95 15.7 -48.95 15.9 -48.95 17.95 -48.95 19.8 -48.9 19.95 -48.85 20.05 -48.85 20.2 -48.75 20.35 -48.6 20.45 -48.45 20.6 -48.0 20.7 -47.65 20.6 -47.45 20.5 -47.3 20.35 -47.25 20.25 -47.2 20.2 -47.05 20.35 -46.8 20.5 -43.55 20.9 -40.15 20.9 -39.8 20.85 -38.0 20.85 -37.15 21.05 -22.9 21.05 -20.95 20.6 -19.8 20.55 -19.3 20.5 -4.6 20.2 Q18.45 19.5 41.6 20.05 L41.75 20.05 45.15 20.1 45.55 20.05 45.65 19.95 45.85 19.8 46.35 19.65 46.7 19.55 48.15 19.35" fill="#dd9222" fill-rule="evenodd" stroke="none"/>
    <path d="M49.75 -14.1 L49.9 -13.85 50.35 -12.85 50.6 -10.7 50.7 -6.45 50.7 -5.35 50.7 -4.3 50.7 -2.15 50.65 -1.1 50.35 1.05 49.95 2.1 49.3 3.2 49.3 4.3 49.3 5.35 49.3 7.5 49.3 9.65 49.3 10.7 48.95 11.8 48.6 12.85 48.55 13.0 48.75 13.15 48.9 13.3 48.9 13.4 48.95 13.55 49.0 13.7 49.0 13.95 49.0 14.35 49.0 14.75 49.0 15.05 48.95 15.15 48.9 15.3 48.9 15.45 48.85 15.55 48.9 15.7 48.95 15.85 49.0 15.95 49.1 16.25 49.15 16.5 49.15 16.65 49.15 16.75 49.1 16.9 49.05 17.05 48.95 17.15 48.95 17.2 49.65 17.4 49.85 17.55 50.0 17.65 50.05 17.8 50.15 17.95 50.15 18.05 50.15 18.2 50.15 18.35 50.15 18.45 50.05 18.6 50.0 18.75 49.85 18.85 49.65 19.0 48.15 19.35 46.7 19.55 46.35 19.65 45.85 19.8 45.65 19.95 45.55 20.05 45.15 20.1 41.75 20.05 41.6 20.05 Q18.45 19.5 -4.6 20.2 L-19.3 20.5 -19.8 20.55 -20.95 20.6 -22.9 21.05 -37.15 21.05 -38.0 20.85 -39.8 20.85 -40.15 20.9 -43.55 20.9 -46.8 20.5 -47.05 20.35 -47.2 20.2 -47.25 20.25 -47.3 20.35 -47.45 20.5 -47.65 20.6 -48.0 20.7 -48.45 20.6 -48.6 20.45 -48.75 20.35 -48.85 20.2 -48.85 20.05 -48.9 19.95 -48.95 19.8 -48.95 17.95 -48.95 15.9 -48.95 15.7 -49.05 15.45 -49.2 14.65 -49.3 12.5 -49.2 9.3 -49.05 8.2 -49.0 7.9 -49.05 7.6 -49.1 7.35 -49.1 7.2 -49.1 7.1 -49.15 6.95 -49.2 6.8 -49.2 6.7 -49.25 6.55 -49.25 6.4 -49.25 5.75 -49.25 4.95 -49.25 4.25 -49.4 3.95 -50.05 2.85 Q-50.6 0.8 -50.5 -1.45 L-50.4 -4.65 -50.4 -5.7 -50.4 -7.85 -50.45 -8.95 -50.65 -12.15 -50.75 -14.3 -50.25 -15.3 -49.3 -16.4 -49.05 -16.6 -49.1 -16.7 -49.2 -16.8 -49.25 -16.95 -49.25 -17.1 -49.25 -17.2 -49.25 -17.35 -49.25 -17.5 -49.2 -17.6 -49.15 -17.75 -49.0 -17.9 -48.95 -17.95 -48.85 -18.0 -48.7 -18.1 -48.35 -18.2 -48.15 -18.3 -47.9 -18.35 -47.15 -18.25 -47.1 -18.25 -46.45 -18.45 -44.35 -18.75 -44.3 -18.95 -42.9 -18.95 -40.0 -18.25 -39.55 -17.9 -5.3 -17.9 1.85 -17.85 2.15 -17.85 3.55 -18.6 42.85 -18.95 45.7 -18.25 46.85 -17.3 46.85 -17.35 46.95 -17.5 47.0 -17.6 47.05 -17.75 47.1 -17.9 47.2 -18.0 47.25 -18.15 47.45 -18.3 47.65 -18.35 47.9 -18.4 48.25 -18.35 48.5 -18.2 48.55 -18.05 48.65 -17.95 48.7 -17.8 48.75 -17.65 48.75 -17.55 48.75 -17.4 48.75 -17.25 48.75 -17.1 48.75 -17.0 48.85 -16.85 48.9 -16.7 49.0 -16.6 49.05 -16.45 49.05 -16.3 49.05 -16.2 49.05 -16.05 49.05 -15.9 49.05 -15.8 49.0 -15.65 48.9 -15.5 48.9 -15.4 48.85 -15.25 49.75 -14.1" fill="#cccc99" fill-rule="evenodd" stroke="none"/>
    <path d="M0.4 -1.75 L0.4 0.35 0.4 2.5 0.4 5.75 0.4 8.95 0.2 9.95 -0.3 11.1 -1.4 13.25 -2.85 14.3 -5.35 15.4 -6.05 16.45 -7.15 17.15 -7.85 17.45 Q-11.0 18.45 -14.25 18.45 L-30.7 18.6 -31.15 19.65 -31.8 20.75 -32.5 21.8 -33.95 22.85 -35.0 23.6 -37.15 23.95 -40.0 23.25 -41.4 22.1 -42.45 21.05 -43.2 20.0 -43.5 18.95 -43.55 17.9 -43.55 16.8 -43.55 15.75 -43.75 14.7 Q-43.9 14.15 -44.2 13.55 L-44.65 12.5 -44.9 11.45 -45.0 10.4 -45.0 8.25 -45.0 7.15 -44.9 5.05 -44.65 3.95 -44.85 2.85 -45.0 -0.35 -45.0 -2.5 -45.0 -7.85 -45.0 -11.05 -44.55 -12.1 -43.85 -13.15 -41.8 -15.35 -40.7 -16.4 -38.55 -18.2 -37.85 -18.5 -35.7 -18.95 -30.05 -20.15 -30.0 -20.35 -11.4 -20.35 -8.55 -19.65 -7.5 -18.9 -7.1 -18.65 -4.25 -17.85 -2.85 -16.8 -2.2 -15.65 -1.7 -14.65 -1.05 -13.55 -1.05 -12.5 -1.05 -11.4 -1.05 -9.25 -1.05 -8.2 -1.05 -7.15 -0.7 -6.05 -0.35 -5.0 0.4 -2.85 0.4 -1.75" fill="#ffff99" fill-opacity="0.2" fill-rule="evenodd" stroke="none"/>
    <path d="M-41.4 -18.55 L-39.7 -17.4 -38.9 -16.8 Q-38.4 -16.95 -37.9 -17.25 L-36.4 -18.15 -35.0 -18.9 -32.85 -19.3 -30.0 -18.55 -28.2 -17.5 -27.45 -17.1 Q-24.1 -16.95 -20.7 -17.15 L-19.25 -18.15 -17.85 -18.9 -15.7 -19.3 -12.85 -18.55 -11.05 -17.5 -10.35 -16.4 -9.7 -15.3 -9.25 -14.3 -9.0 -13.2 -8.9 -12.15 -8.9 -11.05 -8.9 -10.0 -8.55 -8.9 -8.2 -7.85 -7.85 -6.75 -7.5 -5.7 -7.5 -4.65 -7.5 -1.4 -7.5 0.75 -7.5 1.8 -7.5 2.85 -7.5 5.0 -7.85 6.1 -8.2 7.15 -8.55 8.25 -9.3 9.25 -10.35 10.4 -10.8 11.4 -12.25 13.45 -14.65 15.7 -15.7 16.45 -16.45 16.75 -18.55 17.45 -21.4 18.25 -24.3 17.9 -26.4 18.95 -28.55 20.0 -30.0 20.75 -32.85 21.15 -42.85 21.45 -45.7 20.75 -47.5 19.65 -48.5 18.55 -49.3 17.5 -49.55 16.45 -49.65 15.4 -49.65 13.25 -49.65 12.15 -49.3 11.1 -48.95 10.0 -49.3 8.95 -49.65 7.85 -49.65 6.8 -49.65 5.75 -49.65 4.65 -49.65 3.6 -49.65 2.5 -50.05 1.5 -50.7 0.35 -50.95 -1.8 -51.05 -6.05 -51.05 -8.2 -51.05 -10.35 -51.1 -11.4 Q-51.3 -13.1 -50.7 -14.65 L-50.3 -15.65 -49.6 -16.75 -48.55 -17.85 -47.15 -18.55 -46.4 -18.8 -44.3 -19.1 -44.3 -19.3 -41.4 -18.55" fill="#ffff99" fill-opacity="0.2" fill-rule="evenodd" stroke="none"/>
    <path d="M-48.55 -16.05 L-45.7 -16.6 -37.85 -17.5 -36.4 -18.2 -34.3 -18.4 -34.3 -18.55 -32.85 -18.55 -30.0 -17.85 -28.55 -16.8 -27.9 -15.65 -27.4 -14.65 -26.95 -13.5 -26.8 -12.5 -26.8 -11.4 -26.6 -10.4 -26.05 -9.25 -25.7 -8.2 -25.45 -7.1 -25.1 -3.9 -25.0 -0.7 -25.0 1.45 -26.15 3.55 -28.15 6.85 Q-29.65 9.25 -31.8 11.1 L-32.05 12.2 -32.15 13.25 -32.15 14.3 -32.2 15.35 -32.5 16.45 -32.9 17.5 -33.6 18.55 -34.7 19.6 -35.7 20.4 -36.45 20.65 -38.55 20.95 -45.7 21.1 -48.55 20.4 -49.95 19.25 -51.0 18.2 -51.8 17.15 -52.05 16.1 -52.15 15.0 -52.15 13.95 -52.15 12.9 -52.15 11.8 -51.7 10.75 -51.05 9.65 -50.8 8.55 -50.7 7.5 -50.7 6.45 -50.7 4.3 -50.7 3.25 -50.35 2.15 -50.0 1.1 -50.45 0.05 -51.05 -1.05 -51.8 -2.15 -51.8 -3.2 -51.75 -4.25 -51.5 -7.5 -51.3 -10.7 -51.05 -12.85 -50.65 -13.9 -50.0 -15.0 -48.55 -16.05" fill="#ffff99" fill-opacity="0.2" fill-rule="evenodd" stroke="none"/>
    <path d="M-12.85 -50.2 L-12.0 -50.75 -11.25 -51.3 -10.7 -51.8 -10.0 -52.35 -8.6 -52.6 -8.55 -52.7 -7.15 -52.35 -6.45 -51.8 -6.05 -51.25 -5.15 -50.75 -4.65 -50.2 -4.15 -49.65 -3.75 -49.15 -3.4 -48.6 Q-3.1 -44.35 -3.15 -40.0 L-3.05 -28.75 -3.05 -20.2 -3.2 -19.65 -3.4 -19.1 -3.55 -18.6 -3.9 -18.05 -4.65 -17.55 -5.35 -17.15 -6.45 -17.0 -7.85 -17.35 -8.75 -17.85 -9.25 -18.45 -9.65 -18.95 -10.0 -19.5 -10.2 -20.0 -10.35 -20.55 -10.6 -21.0 -11.05 -21.45 -12.15 -21.45 -13.55 -21.8 -14.25 -22.35 -14.8 -22.9 -15.2 -23.4 -15.45 -28.25 -15.35 -35.75 -15.35 -42.7 -15.2 -43.25 -15.0 -43.75 -14.8 -44.3 -14.65 -44.85 -14.65 -45.4 -14.65 -45.9 -14.45 -46.45 -14.3 -47.0 -14.15 -47.55 -14.05 -48.05 -13.95 -48.6 -13.7 -49.1 -13.35 -49.65 -12.85 -50.2" fill="#ffff99" fill-opacity="0.2" fill-rule="evenodd" stroke="none"/>
    <path d="M-10.7 -51.65 L-10.35 -51.8 -9.1 -52.15 -7.85 -52.25 -7.85 -52.35 -6.6 -52.0 -5.9 -51.45 -5.55 -50.9 -5.35 -50.4 -5.2 -49.85 -5.2 -49.3 -5.35 -48.75 -5.7 -48.25 -6.05 -47.7 -6.75 -47.15 -7.3 -46.6 -7.7 -46.1 -7.7 -45.55 -7.7 -45.0 -7.7 -44.5 -7.45 -43.95 -7.15 -43.4 Q-6.85 -42.4 -6.9 -41.25 L-6.95 -38.6 -6.95 -35.9 -6.95 -34.85 -7.15 -34.3 -7.3 -33.75 -7.5 -33.25 -7.7 -32.7 -7.7 -32.15 -7.7 -31.6 -7.7 -31.1 -7.7 -30.55 -7.85 -30.0 -8.05 -29.5 -8.2 -28.95 -8.4 -28.4 -8.4 -26.25 -8.4 -23.6 -8.4 -20.9 -8.4 -19.3 -8.6 -18.8 -8.9 -18.2 -9.1 -17.7 -9.85 -17.15 -10.35 -16.8 -11.45 -16.6 -12.85 -17.0 -13.55 -17.55 -14.05 -18.1 -14.3 -18.6 Q-14.6 -23.1 -14.4 -27.7 L-14.0 -39.5 -13.55 -48.6 -13.3 -49.05 -12.35 -50.25 -10.7 -51.65" fill="#ffff99" fill-opacity="0.2" fill-rule="evenodd" stroke="none"/>
    <path d="M-10.75 20.65 L-10.7 20.55 -9.45 20.9 -8.75 21.45 -8.25 22.0 -7.85 22.5 -7.5 23.05 -7.35 23.6 -7.3 24.1 -7.3 24.65 -7.2 25.2 -7.15 25.7 -7.35 26.25 -7.7 26.8 -8.05 27.3 -8.2 27.85 -8.4 28.4 -8.95 28.95 -9.45 29.45 -10.0 30.0 -9.8 30.5 -9.5 31.1 -9.3 31.6 -9.15 32.15 -9.0 33.2 Q-8.8 34.0 -8.95 34.85 -9.05 35.65 -8.75 36.45 L-8.8 36.95 -8.95 37.5 -9.1 38.05 -9.3 38.6 -9.45 39.1 -9.45 39.65 -9.45 40.2 -9.45 40.7 -9.45 41.25 -9.65 41.8 -9.8 42.35 -10.0 42.85 -10.0 44.45 -10.0 47.15 -10.05 49.85 -10.2 50.35 -10.4 50.9 -10.75 51.4 -11.25 51.95 -11.8 52.35 -12.85 52.5 -14.3 52.15 -15.0 51.6 -15.3 51.05 -15.55 50.55 -15.8 43.05 -15.7 35.0 -15.7 26.95 -15.5 26.45 -15.2 25.9 -14.8 25.35 -13.95 24.8 -13.85 24.3 -13.9 23.75 -13.95 23.2 -13.95 22.7 -13.7 22.15 -13.4 21.6 -12.7 21.05 -11.6 20.7 -10.75 20.65" fill="#ffff99" fill-opacity="0.2" fill-rule="evenodd" stroke="none"/>
    <path d="M-4.45 28.55 L-3.95 29.15 -3.6 29.65 -3.4 30.2 -3.25 30.75 -3.2 31.25 -3.2 31.8 -2.85 32.35 -2.65 32.85 -2.5 33.4 -2.3 33.95 -2.15 34.45 -1.95 35.0 -1.8 35.55 -1.8 37.7 -1.8 40.9 -1.85 44.65 -1.95 45.7 -2.15 46.25 -2.5 46.8 -2.55 47.3 -2.65 47.85 -2.9 48.4 -3.2 48.95 -3.25 49.45 -3.4 50.0 -3.75 50.55 -4.1 51.1 -4.8 51.6 -5.35 51.95 -9.25 51.95 -11.45 51.6 -12.1 51.05 -12.6 50.5 -12.85 50.0 -13.1 47.85 -13.05 44.1 -13.05 39.85 -13.05 38.75 -12.85 38.2 -12.7 37.7 -12.5 37.15 -12.5 36.6 -12.5 36.1 -12.5 35.0 -12.5 33.95 -12.5 32.35 -12.3 31.8 -12.0 31.25 -11.8 30.7 -11.75 30.2 -11.55 29.7 -10.5 28.6 -9.3 27.5 -7.9 27.25 -7.85 27.15 -7.15 27.15 -5.7 27.5 -5.0 28.05 -4.45 28.55" fill="#ffff99" fill-opacity="0.2" fill-rule="evenodd" stroke="none"/>
    <path d="M-31.45 -52.15 L-30.7 -52.15 -29.3 -51.8 -28.6 -51.25 -28.2 -50.9 -28.05 -50.8 -27.15 -50.75 -25.7 -50.4 -25.0 -49.8 -24.45 -49.3 -24.3 -48.75 -24.1 -48.25 -23.95 -47.7 -24.05 -43.95 -24.15 -39.15 -24.1 -32.7 -24.1 -31.1 -24.3 -30.55 -24.45 -30.0 -24.65 -29.5 -24.8 -28.95 -24.8 -28.4 -24.8 -27.85 -25.35 -26.8 -26.0 -25.8 -27.5 -24.1 -28.6 -23.1 -29.3 -22.5 -30.7 -22.15 -32.15 -22.3 -33.05 -22.35 -33.4 -22.2 -34.3 -22.0 -35.0 -22.0 -36.25 -22.35 -36.95 -22.9 -37.5 -23.4 -37.65 -24.5 -37.7 -25.55 -37.7 -27.15 -37.7 -28.25 -37.7 -29.85 -37.85 -30.35 -38.05 -30.9 -38.05 -34.65 -38.05 -38.95 -38.15 -44.85 -37.85 -46.45 -37.65 -46.95 -37.35 -47.55 -37.1 -48.05 -36.85 -48.6 -36.8 -49.15 -36.55 -49.6 -36.1 -50.2 -35.55 -50.7 -34.3 -51.8 -32.9 -52.05 -32.85 -52.15 -31.45 -52.15" fill="#ffff99" fill-opacity="0.2" fill-rule="evenodd" stroke="none"/>
    <path d="M-30.0 25.0 L-28.6 25.35 -27.9 25.9 -27.35 26.45 -26.95 26.95 -26.25 27.5 -25.5 28.0 -24.45 28.55 -23.95 29.15 -23.6 29.65 -23.35 30.15 -23.05 30.7 -22.85 31.25 -22.7 31.8 -22.5 32.35 -22.5 33.95 -22.5 36.1 -22.45 38.75 Q-22.4 40.4 -22.7 41.95 L-22.9 42.5 -23.2 43.05 -23.25 43.55 -23.4 44.1 -23.6 44.65 -23.9 45.2 -24.15 45.7 -24.45 46.25 -24.6 46.8 -24.65 47.35 -24.7 47.85 -24.8 48.4 -25.05 48.9 -25.4 49.45 -25.9 50.0 -26.45 50.35 -26.8 50.5 -27.85 50.7 -29.3 50.35 -30.35 49.85 -30.9 50.2 -31.65 50.7 -32.5 51.25 -33.2 51.6 -34.3 51.75 -35.0 51.8 -36.45 51.45 -37.15 50.9 -37.45 50.35 -37.7 49.85 -37.8 49.3 -37.85 48.75 -37.75 47.7 -37.7 46.6 -37.7 46.1 -37.7 45.55 -37.7 45.0 -37.5 44.45 -37.35 43.95 -37.45 41.25 -37.55 38.05 Q-37.5 35.65 -37.6 33.2 -37.65 31.85 -37.35 30.55 L-37.1 30.0 -36.85 29.45 -36.6 28.95 -36.1 28.4 -35.55 27.85 -34.45 26.8 -33.35 25.75 -32.85 25.35 -32.5 25.25 -31.45 25.1 -31.45 25.0 -30.0 25.0" fill="#ffff99" fill-opacity="0.2" fill-rule="evenodd" stroke="none"/>
    <path d="M-29.5 27.5 L-29.3 28.05 -29.35 28.55 -29.6 29.15 -29.85 29.65 -30.2 30.2 -30.25 30.7 -30.35 31.25 -30.55 31.8 -30.55 32.85 -30.55 34.45 -30.45 36.05 -30.35 36.6 -30.15 37.15 -29.85 37.7 -29.85 39.3 -29.85 41.45 -29.85 43.6 -29.85 44.65 -29.9 45.15 -30.2 45.7 -30.35 46.25 -30.5 46.8 -30.55 47.35 -30.9 47.9 -31.55 48.8 -32.6 50.5 -32.85 51.1 -33.6 51.6 -35.0 51.95 -36.45 51.6 -37.15 51.05 -37.6 50.5 -37.85 50.0 -38.0 47.85 -37.75 45.2 -37.7 41.95 -37.7 41.45 -37.5 40.9 -37.35 40.35 -36.95 39.3 -36.6 38.2 -36.6 36.6 -36.6 34.45 -36.6 32.35 -36.6 31.8 -36.4 31.25 -36.1 30.7 -35.7 30.2 -35.55 29.65 -35.35 29.1 -34.8 28.6 -33.6 27.45 -32.7 26.45 -31.45 26.15 -31.45 26.05 -30.35 26.45 -29.85 27.0 -29.5 27.5" fill="#ffff99" fill-opacity="0.2" fill-rule="evenodd" stroke="none"/>
    <path d="M-35.0 -49.3 L-34.1 -48.95 -33.6 -48.4 -33.2 -47.9 Q-32.7 -43.9 -32.6 -39.85 L-32.3 -31.25 Q-32.2 -28.3 -32.5 -25.35 L-32.7 -24.85 -33.05 -24.3 -33.75 -23.75 -35.0 -23.4 -36.25 -23.75 -36.95 -24.3 -37.5 -24.85 Q-37.95 -28.85 -37.75 -32.9 L-37.35 -42.0 -36.8 -47.9 -36.55 -48.35 -36.1 -48.95 -35.05 -49.2 -35.0 -49.3" fill="#ffff99" fill-opacity="0.2" fill-rule="evenodd" stroke="none"/>
    <path d="M-36.6 -49.3 L-35.9 -48.75 -35.55 -48.25 -35.2 -47.7 -35.0 -47.15 -34.85 -46.65 -34.65 -46.1 -34.4 -45.55 -34.45 -45.0 -34.7 -44.5 -35.05 -44.25 -36.05 -43.9 -37.15 -43.6 -38.05 -43.75 -43.75 -43.6 -44.1 -43.05 -44.0 -42.5 -43.95 -42.0 -44.15 -41.45 -44.45 -40.9 -44.6 -40.35 -44.65 -39.85 -44.65 -39.3 -44.65 -38.75 -44.65 -38.25 -44.85 -37.7 -45.0 -37.15 -45.0 -36.65 -45.0 -33.4 -45.0 -30.2 -45.0 -29.1 -45.0 -28.6 -45.0 -25.35 -45.2 -24.85 -45.35 -24.3 -45.6 -23.8 -46.1 -23.25 -46.45 -22.85 -46.8 -22.75 -47.85 -22.5 -49.3 -22.85 -50.0 -23.4 -50.35 -23.95 -50.55 -24.5 -50.65 -25.0 -50.75 -30.9 -50.75 -32.5 -50.75 -34.65 -50.75 -41.65 -50.75 -43.25 -50.5 -43.75 -50.2 -44.3 -50.05 -44.85 -50.0 -45.4 -50.0 -45.9 -49.8 -46.45 -49.5 -47.0 -47.85 -48.55 Q-46.95 -49.05 -46.1 -49.5 L-45.0 -49.55 -45.0 -49.65 -37.85 -49.65 -36.6 -49.3" fill="#ffff99" fill-opacity="0.2" fill-rule="evenodd" stroke="none"/>
    <path d="M-38.2 40.35 L-38.05 40.9 -38.05 41.45 -38.05 42.5 -38.05 43.6 -38.05 44.65 -38.2 45.2 -38.6 46.25 -38.95 47.35 -39.1 47.85 -39.35 48.35 -40.4 49.45 -41.6 50.55 -42.85 50.9 -45.0 50.9 -46.25 50.55 -47.65 49.45 -48.95 47.9 -49.65 46.8 -49.65 41.95 -49.65 37.15 -49.65 34.45 -49.65 32.35 -49.55 31.8 -49.3 31.25 -48.95 30.7 -48.2 30.2 -47.85 29.65 -47.85 29.1 -47.85 28.55 -47.5 28.05 -47.1 27.8 -46.45 27.6 -46.45 27.5 -45.55 27.85 -45.2 28.4 -45.05 28.95 -45.0 29.45 -45.0 30.0 -44.8 30.5 -44.45 31.1 -44.15 31.65 -43.95 32.15 -44.05 33.2 -44.1 34.85 -44.1 35.9 -44.1 36.45 -44.1 36.6 -41.45 36.8 -40.2 37.15 -39.45 37.7 -39.1 38.2 -38.75 38.75 -38.6 39.3 -38.4 39.85 -38.2 40.35" fill="#ffff99" fill-opacity="0.2" fill-rule="evenodd" stroke="none"/>
    <path d="M10.85 -19.05 L11.75 -18.95 12.1 -18.8 29.6 -19.0 30.85 -19.35 40.15 -19.25 42.3 -19.1 43.2 -18.95 43.75 -18.8 44.8 -18.4 46.05 -17.9 46.4 -17.35 46.65 -16.8 46.6 -16.3 46.4 -15.75 46.2 -15.45 45.9 -15.25 44.8 -14.85 43.75 -14.5 43.2 -14.35 42.3 -14.2 40.15 -14.0 31.4 -13.6 30.15 -13.25 Q20.8 -13.35 11.4 -13.6 L10.35 -13.8 Q-11.2 -14.45 -32.7 -14.55 L-40.6 -14.7 -41.85 -15.05 -47.7 -15.5 -49.15 -15.75 -49.85 -16.3 -50.4 -16.85 -50.95 -17.35 -50.4 -17.9 -49.85 -18.4 -49.15 -19.0 -47.75 -19.25 -47.7 -19.35 -42.0 -19.35 -40.75 -19.0 Q-19.95 -18.75 0.85 -19.1 L10.85 -19.05" fill="#ffff99" fill-opacity="0.2" fill-rule="evenodd" stroke="none"/>
    <path d="M50.0 20.7 L50.9 21.25 51.45 21.8 51.65 22.3 51.95 22.9 52.15 23.4 52.15 23.95 52.1 24.45 52.0 25.0 51.65 25.55 51.45 26.05 50.9 26.6 50.0 27.15 Q12.55 28.0 -25.0 26.5 L-46.45 25.9 -47.7 25.55 -48.05 25.0 -48.35 24.45 -48.6 23.95 -48.35 23.4 -48.05 22.85 -47.7 22.3 -46.45 21.95 -37.85 21.75 20.75 20.2 47.9 20.45 50.0 20.7" fill="#333333" fill-opacity="0.2" fill-rule="evenodd" stroke="none"/>
    <path d="M42.15 21.85 L43.05 22.35 43.55 22.9 43.95 23.35 44.3 23.9 44.5 24.4 44.65 24.9 45.0 25.4 45.15 25.9 45.2 26.45 45.2 26.9 45.2 27.45 45.4 27.95 45.55 28.5 45.75 28.95 45.9 29.5 45.9 31.0 45.9 32.55 45.9 34.1 45.9 35.1 45.9 35.6 45.9 36.1 45.9 37.15 45.9 37.65 45.75 38.15 45.55 38.65 45.4 39.2 45.6 39.65 46.05 40.2 46.4 40.7 46.65 41.2 46.75 41.7 46.75 42.2 46.65 42.75 46.65 43.2 46.4 43.75 46.15 44.25 45.9 44.75 45.55 45.25 44.85 45.8 44.3 46.25 43.75 46.65 42.15 46.95 37.9 47.65 35.75 47.6 34.3 47.5 33.4 47.95 32.55 48.55 31.8 48.95 31.1 49.35 30.0 49.45 27.85 49.5 26.25 49.35 25.0 49.85 23.6 50.2 20.0 50.2 18.4 49.85 17.7 49.35 17.15 48.85 16.1 47.85 15.55 47.3 15.0 46.8 14.45 46.3 13.75 46.0 13.4 46.45 13.0 46.95 12.7 47.3 12.35 47.5 11.45 47.85 11.1 48.35 10.4 48.85 10.0 49.15 9.65 49.3 8.6 49.55 7.15 49.15 6.45 48.7 6.1 48.15 5.9 47.65 Q5.6 46.15 5.65 44.6 L5.7 41.55 5.7 39.5 5.8 34.45 5.9 31.35 6.1 30.85 6.25 30.35 6.45 29.8 6.6 29.3 6.6 28.8 6.6 28.3 6.6 27.75 6.6 27.3 6.8 26.75 6.95 26.25 7.1 25.75 7.35 24.75 7.5 24.2 7.7 23.75 8.05 23.2 8.4 22.7 8.75 22.15 9.45 21.7 10.7 21.35 11.95 21.7 12.5 22.2 12.85 22.75 13.05 23.2 13.3 23.65 13.55 23.65 14.3 23.2 15.7 22.9 17.15 23.2 17.85 23.75 18.25 24.15 18.6 24.4 18.9 24.0 19.3 23.55 20.05 22.55 20.55 22.0 21.1 21.5 21.6 21.0 22.15 20.5 22.85 20.15 23.25 20.05 24.3 19.9 24.3 19.8 25.0 19.8 26.45 20.15 27.35 20.65 27.85 21.15 28.25 21.4 30.0 21.8 32.35 22.35 32.65 22.15 33.25 21.7 34.1 21.15 35.75 20.85 37.9 20.85 39.3 21.15 40.75 21.5 42.15 21.85" fill="#333333" fill-opacity="0.2" fill-rule="evenodd" stroke="none"/>
    <path d="M40.0 -43.15 L41.1 -43.25 42.15 -43.4 42.9 -43.4 44.3 -43.05 45.2 -42.5 45.7 -41.95 46.1 -41.45 46.25 -40.9 46.45 -40.4 46.65 -39.85 46.65 -36.1 46.65 -32.35 46.65 -27.5 46.65 -22.15 46.65 -21.6 46.45 -21.1 46.25 -20.55 46.1 -20.0 45.7 -19.5 45.2 -18.95 44.3 -18.4 42.9 -18.05 41.25 -18.4 39.3 -18.4 37.9 -18.05 25.75 -18.05 14.85 -19.1 13.95 -19.65 13.45 -20.2 13.05 -20.75 12.95 -20.9 12.55 -20.55 12.3 -20.05 11.95 -19.5 11.25 -18.9 10.9 -18.6 10.35 -18.45 9.3 -18.25 8.6 -18.25 6.95 -18.6 6.3 -19.15 5.75 -19.7 5.35 -20.2 4.65 -21.25 Q4.35 -23.9 4.4 -26.6 L4.45 -32.0 4.6 -37.85 4.65 -44.85 4.9 -45.35 5.35 -45.9 5.9 -46.45 6.6 -47.0 7.85 -47.55 8.4 -47.9 9.3 -48.05 10.35 -47.7 10.9 -47.2 11.6 -46.6 12.15 -46.1 12.35 -45.6 12.65 -45.0 12.85 -44.5 12.9 -43.95 13.1 -43.45 13.75 -42.3 14.2 -41.25 Q14.5 -40.4 15.2 -39.85 L15.35 -40.0 15.9 -40.55 16.45 -41.1 17.0 -41.65 Q17.25 -42.5 17.9 -43.2 L19.5 -44.95 Q20.6 -46.25 22.1 -47.05 L23.4 -47.9 23.95 -48.0 25.0 -48.15 25.0 -48.25 25.75 -48.25 27.15 -47.9 28.05 -47.35 28.5 -46.75 28.75 -46.25 30.0 -45.7 30.9 -45.15 31.25 -44.85 Q31.35 -44.75 31.45 -44.75 L32.7 -44.85 33.25 -45.4 34.1 -45.9 35.75 -46.25 37.15 -45.9 38.05 -45.4 38.55 -44.8 38.95 -44.3 39.25 -43.75 39.5 -43.25 40.0 -43.15" fill="#333333" fill-opacity="0.2" fill-rule="evenodd" stroke="none"/>
    <path d="M15.7 -21.1 L17.85 -21.1 19.3 -20.8 22.85 -20.3 24.3 -20.0 25.35 -19.5 26.1 -19.1 34.3 -18.95 35.75 -18.6 36.6 -18.05 37.35 -17.85 38.25 -18.05 39.3 -18.15 40.75 -18.25 42.15 -17.85 43.05 -17.35 43.6 -16.8 44.15 -16.25 44.65 -15.7 45.0 -15.2 45.35 -14.65 45.55 -14.1 45.7 -13.6 45.75 -13.05 45.75 -12.5 45.75 -11.45 45.75 -10.9 45.75 -10.35 45.8 -8.75 45.7 -7.15 45.2 -5.55 45.2 -5.0 45.2 -4.45 45.2 -3.95 45.2 -3.4 45.2 -2.85 45.2 -2.35 45.2 -1.8 45.2 -1.25 45.4 -0.7 45.55 -0.2 45.75 0.35 45.75 1.4 45.75 3.05 45.75 3.55 45.75 4.1 45.75 6.8 45.75 10.0 45.65 15.9 45.55 16.45 45.35 16.95 45.05 17.5 44.8 18.0 44.5 18.55 44.3 19.1 44.15 19.65 43.95 20.2 43.75 20.7 43.4 21.25 42.9 21.8 42.35 22.3 41.45 22.85 40.0 23.2 38.4 22.85 37.7 22.3 37.2 21.75 36.85 21.25 36.6 20.75 36.25 20.2 35.2 20.2 34.45 20.7 33.75 21.05 33.2 21.2 32.15 21.45 30.9 21.8 30.7 22.3 30.35 22.85 30.0 23.4 29.3 24.45 28.95 25.0 28.55 25.5 27.65 26.6 25.9 28.05 25.35 28.2 24.3 28.3 20.75 28.4 19.1 28.05 18.25 27.5 17.15 26.45 16.6 25.9 15.05 24.25 14.65 23.75 13.5 21.65 12.75 19.95 11.6 17.85 10.65 14.6 10.05 12.5 Q8.95 8.85 9.0 5.0 L9.25 -6.8 9.3 -12.15 9.45 -12.7 9.65 -13.25 9.85 -13.75 10.0 -14.3 10.35 -14.85 10.75 -15.35 11.25 -15.9 11.75 -16.45 12.15 -17.0 12.15 -17.5 12.2 -18.05 12.35 -18.6 12.55 -19.1 12.9 -19.65 13.4 -20.15 14.1 -20.75 15.7 -21.0 15.7 -21.1" fill="#333333" fill-opacity="0.2" fill-rule="evenodd" stroke="none"/>
    <path d="M32.15 -17.35 L33.4 -17.35 35.0 -17.65 37.0 -18.05 38.6 -18.4 41.45 -18.4 42.9 -18.05 43.75 -17.5 44.35 -17.1 44.85 -17.0 45.05 -17.5 45.4 -18.05 45.75 -18.6 46.1 -19.1 46.85 -19.6 47.5 -20.0 48.6 -20.1 48.6 -20.2 49.3 -20.2 50.75 -19.85 51.65 -19.3 52.0 -18.75 52.3 -18.2 52.5 -17.7 52.65 -14.5 52.45 -9.65 52.35 -4.85 52.15 -4.3 51.8 -3.75 51.65 -3.2 51.45 -2.7 51.25 -2.15 51.45 0.0 51.45 3.75 51.45 7.5 51.45 8.55 51.65 9.1 51.8 9.65 52.0 10.2 52.15 10.7 52.15 11.8 52.25 13.4 52.35 15.55 52.35 16.6 52.15 17.1 51.85 17.7 51.6 18.2 51.25 18.75 50.35 19.25 49.65 19.65 48.6 19.8 45.2 20.2 44.8 20.7 44.3 21.2 43.75 21.6 43.25 21.75 42.15 21.95 41.45 21.95 26.25 20.9 25.35 20.35 24.85 19.8 24.5 19.25 24.3 18.75 24.15 18.2 24.1 17.7 24.1 16.6 24.1 15.55 24.1 14.45 24.35 13.95 24.6 13.35 24.85 12.85 24.8 12.35 24.65 11.8 24.5 11.25 24.3 10.7 24.1 10.2 24.1 9.1 24.1 7.5 24.1 5.35 24.1 4.3 23.9 3.75 23.6 3.2 23.45 2.65 23.4 2.15 23.05 1.6 22.7 1.05 22.35 0.5 22.15 0.0 21.65 -0.55 21.25 -1.1 20.95 -1.65 20.75 -2.15 20.6 -3.25 20.55 -5.35 20.55 -8.05 20.55 -10.2 20.75 -10.7 20.9 -11.25 21.1 -11.8 21.4 -12.35 21.7 -12.85 22.55 -13.9 24.1 -15.55 25.2 -16.1 26.25 -16.6 28.25 -17.5 29.3 -17.65 30.75 -17.7 32.15 -17.35" fill="#333333" fill-opacity="0.2" fill-rule="evenodd" stroke="none"/>
    <path d="M11.8 3.75 L12.5 4.3 12.85 4.8 13.6 5.35 14.3 5.9 14.8 6.45 15.15 7.0 15.35 7.5 15.5 8.05 15.5 8.55 15.35 9.1 15.0 9.65 14.65 10.15 14.1 10.7 13.9 11.25 13.6 11.8 12.85 12.3 11.45 12.7 10.75 12.65 9.3 12.45 7.85 12.15 7.15 11.6 6.85 11.05 6.6 10.55 6.5 10.0 6.45 9.45 6.45 8.9 6.6 8.4 6.8 7.85 6.8 7.3 6.85 6.8 6.95 6.25 6.95 5.7 7.2 5.2 7.55 4.65 8.05 4.1 8.75 3.55 10.0 3.3 10.0 3.2 10.9 3.45 11.8 3.75" fill="#333333" fill-opacity="0.2" fill-rule="evenodd" stroke="none"/>
    <path d="M30.55 -41.35 L30.65 -41.1 30.7 -40.85 30.8 -40.55 30.9 -40.3 31.05 -40.0 31.2 -39.75 31.35 -39.5 31.5 -36.8 31.5 -33.05 31.55 -27.95 31.45 -25.85 31.55 -24.75 31.6 -23.95 31.6 -22.9 31.65 -21.25 31.5 -20.2 31.4 -19.95 31.25 -19.65 31.1 -19.4 30.7 -19.15 30.45 -18.95 30.2 -18.9 29.65 -18.75 28.85 -18.95 28.4 -19.2 28.15 -19.5 27.95 -19.75 27.05 -20.0 26.6 -20.3 26.35 -20.55 26.1 -20.85 25.85 -20.75 25.6 -20.55 25.35 -20.3 25.1 -20.1 24.8 -20.05 24.3 -19.95 23.5 -20.1 23.05 -20.4 22.75 -20.65 22.6 -20.5 22.15 -20.2 21.45 -20.0 20.65 -20.2 20.3 -20.5 20.0 -20.75 19.85 -21.0 19.75 -21.25 19.7 -21.25 19.6 -21.0 19.55 -20.75 19.45 -20.5 19.25 -20.2 19.0 -19.95 18.75 -19.75 18.2 -19.65 17.5 -19.85 17.15 -20.1 16.95 -20.4 16.9 -20.65 16.8 -20.9 16.6 -21.2 16.5 -22.5 16.55 -23.6 16.45 -25.45 Q16.3 -26.25 16.3 -27.1 L16.15 -28.15 16.05 -28.4 15.9 -28.7 15.55 -29.75 15.35 -30.3 15.1 -31.1 14.65 -32.45 14.4 -33.25 14.2 -33.5 13.7 -35.1 13.3 -37.0 13.2 -39.15 13.2 -42.1 13.3 -42.35 13.4 -42.6 13.5 -42.9 13.75 -43.4 14.05 -43.95 14.2 -44.2 14.45 -44.5 14.75 -44.75 15.2 -44.95 17.5 -45.2 17.65 -45.5 17.75 -45.75 18.05 -46.0 18.3 -46.2 18.5 -46.25 18.95 -46.45 19.3 -46.7 19.65 -46.9 19.85 -46.95 21.45 -47.15 23.05 -46.8 24.45 -46.35 26.1 -45.9 26.5 -45.65 27.0 -45.1 27.35 -44.6 27.5 -44.35 27.75 -44.05 28.3 -43.5 28.6 -43.25 29.45 -42.65 30.0 -42.15 30.25 -41.9 30.45 -41.65 30.55 -41.35" fill="#333333" fill-opacity="0.2" fill-rule="evenodd" stroke="none"/>
    <path d="M25.3 23.8 L25.65 23.55 26.35 23.25 26.7 23.1 26.95 23.05 27.5 22.95 27.5 22.9 28.2 23.1 28.65 23.35 28.9 23.65 29.1 23.9 29.4 24.4 29.65 24.85 29.75 25.15 29.85 25.4 30.0 25.65 30.2 25.9 30.45 26.7 30.8 27.9 31.05 29.2 31.15 29.7 31.05 33.8 30.8 38.9 Q30.75 40.85 30.1 42.7 L30.1 44.0 30.1 45.8 30.1 47.85 30.1 48.05 30.0 48.3 29.85 48.6 29.7 48.85 29.55 49.05 29.1 49.35 28.75 49.5 28.2 49.6 27.4 49.45 27.05 49.25 26.7 49.5 26.35 49.8 25.7 50.0 25.2 50.25 24.85 50.45 24.3 50.5 23.55 50.55 22.75 50.35 22.4 50.1 22.15 49.85 22.0 49.6 21.9 49.35 21.8 49.05 21.75 48.85 21.5 48.65 21.25 48.9 20.9 49.15 20.55 49.35 20.0 49.4 18.55 49.45 17.85 49.45 17.15 49.25 16.7 49.0 16.45 48.75 16.25 48.5 16.15 48.25 16.0 47.95 15.9 47.75 15.8 47.45 15.65 47.2 15.45 46.95 15.0 46.45 14.65 45.95 14.6 45.7 14.55 45.15 14.4 44.4 14.35 43.65 14.4 43.4 14.5 43.15 14.65 42.9 14.75 40.1 14.75 36.5 14.75 33.2 15.1 32.2 15.5 30.65 15.8 29.15 16.0 28.65 16.15 28.35 16.4 27.85 16.8 27.1 17.15 26.6 17.25 26.35 17.3 26.05 17.4 25.8 17.6 25.3 17.7 25.05 17.85 24.85 18.15 24.55 18.65 24.0 18.95 23.8 19.3 23.65 19.45 23.6 21.8 23.45 22.5 23.65 22.85 23.8 23.55 23.8 24.3 23.95 24.75 24.1 25.0 24.0 25.3 23.8" fill="#333333" fill-opacity="0.2" fill-rule="evenodd" stroke="none"/>
    <path d="M-14.0 -6.35 L-14.0 -6.65 -14.0 -7.15 -13.95 -7.45 -13.85 -7.7 -13.65 -7.95 -13.4 -8.25 -12.2 -8.75 -10.7 -9.3 -10.0 -9.45 -10.0 -9.5 -9.3 -9.3 -9.0 -9.25 -8.6 -9.3 -8.05 -9.15 -7.8 -8.85 -7.6 -8.6 -7.5 -8.3 -7.55 -8.05 -7.55 -7.95 -7.15 -7.9 -6.45 -7.7 -6.0 -7.45 -5.7 -7.15 -5.6 -6.9 -5.45 -6.65 -5.35 -5.8 -5.35 -4.5 -5.4 -3.4 -5.25 -1.8 -5.15 -1.55 -5.0 -1.25 -4.9 -1.0 -4.75 -0.7 -4.65 -0.45 -4.6 -0.2 -4.55 0.05 -4.55 0.35 -4.55 0.6 -4.55 0.85 -4.55 1.15 -4.65 1.4 -4.75 1.7 -4.8 1.95 -5.3 2.45 -6.75 3.35 -7.85 3.8 -8.6 4.0 -10.0 4.0 -10.8 3.8 -11.25 3.55 -11.5 3.3 -11.95 2.75 -12.15 2.5 -12.5 1.95 -12.7 1.7 -12.75 1.4 -12.75 1.15 -12.75 0.85 -12.85 0.8 -13.2 0.8 -13.95 0.6 -14.3 0.35 -14.55 0.05 -14.65 -0.2 -14.7 -0.45 -14.75 -1.0 -14.75 -1.25 -14.7 -1.8 -14.65 -2.35 -14.55 -2.6 -14.3 -3.15 -14.1 -3.4 -13.6 -3.95 -13.3 -4.2 -13.3 -4.45 -13.45 -4.75 -13.65 -5.0 -13.85 -5.3 -13.95 -5.55 -14.0 -5.85 -14.0 -6.35" fill="#ffff99" fill-opacity="0.2" fill-rule="evenodd" stroke="none"/>
    <path d="M-14.3 -47.35 L-13.85 -47.05 -13.55 -46.8 -13.45 -46.55 -13.3 -46.25 -13.25 -46.0 -13.2 -45.75 -13.2 -45.2 -13.2 -44.65 -13.2 -44.4 -13.3 -44.1 -13.5 -43.6 -13.7 -42.8 -13.9 -42.0 -13.9 -37.95 -13.95 -33.15 Q-14.0 -31.2 -13.45 -29.4 L-13.45 -27.25 -13.5 -24.3 -13.4 -21.35 -13.45 -20.8 -13.45 -19.75 -13.5 -18.65 -13.55 -18.15 -13.65 -17.85 -13.85 -17.6 -14.05 -17.35 -14.55 -16.9 -14.8 -16.8 -15.35 -16.7 -16.15 -16.9 -16.6 -17.15 -16.85 -17.45 -17.05 -17.7 -17.15 -17.95 -17.2 -18.2 -17.2 -18.5 -17.2 -18.75 -17.25 -19.3 -17.3 -19.55 -17.4 -19.5 -17.65 -19.4 -18.2 -19.3 -19.0 -19.45 -19.35 -19.75 -19.6 -20.05 -19.9 -20.55 -20.25 -21.1 -20.4 -25.9 -20.35 -31.55 -20.35 -35.8 -20.45 -36.05 -20.6 -36.35 -20.75 -36.9 -21.1 -38.2 -21.3 -39.55 -21.4 -40.1 -21.4 -41.15 -21.4 -42.8 -21.4 -44.4 -21.35 -44.9 -21.2 -45.15 -21.0 -45.45 -20.45 -46.0 -20.1 -46.25 -19.3 -46.45 -18.9 -46.4 -18.4 -46.4 -17.85 -46.35 -17.15 -46.15 -16.8 -46.15 -16.65 -46.45 -16.5 -46.7 -16.25 -47.0 -15.95 -47.25 -15.55 -47.4 -15.0 -47.45 -15.0 -47.5 -14.3 -47.35" fill="#333333" fill-opacity="0.2" fill-rule="evenodd" stroke="none"/>
    <path d="M9.85 -51.1 L10.75 -50.6 11.8 -50.0 12.35 -49.95 13.6 -50.05 15.2 -50.4 16.45 -50.75 23.75 -51.1 25.0 -51.45 32.15 -51.45 33.4 -51.1 34.3 -50.6 35.3 -49.95 35.55 -49.65 35.9 -49.55 45.75 -49.3 47.0 -48.95 47.9 -48.4 48.2 -47.85 48.4 -47.35 48.5 -46.8 48.4 -46.25 48.25 -45.75 47.9 -45.2 47.0 -44.65 45.75 -44.3 35.0 -44.3 33.8 -44.7 32.7 -45.2 31.85 -45.8 31.6 -46.1 31.25 -46.2 25.55 -46.1 24.3 -45.75 17.0 -45.4 15.7 -45.05 14.1 -44.65 12.85 -44.3 10.7 -44.3 9.45 -44.65 8.75 -45.2 8.4 -45.55 7.85 -45.75 6.65 -46.15 5.55 -46.65 4.85 -47.0 1.25 -46.8 0.0 -46.45 -8.75 -46.1 -10.0 -45.75 -11.6 -45.35 -12.85 -45.0 -18.55 -45.0 -19.8 -45.45 -20.9 -45.9 -21.6 -46.25 -31.6 -46.1 -33.4 -45.5 -34.1 -45.2 -35.55 -44.85 -36.25 -44.5 -37.15 -44.4 -40.0 -44.3 -41.25 -44.65 -41.95 -44.5 -43.4 -44.15 -44.45 -43.6 -45.2 -43.25 -45.55 -43.1 -46.8 -42.9 -47.35 -42.5 -47.7 -42.4 -48.6 -42.2 -49.3 -42.15 -50.55 -42.5 -51.25 -43.05 -51.6 -43.6 -51.8 -44.15 -51.8 -44.65 -51.75 -45.2 -51.6 -45.75 -51.45 -46.25 -51.45 -46.8 -51.45 -47.35 -51.2 -47.85 -50.75 -48.4 -50.2 -48.95 -49.65 -49.5 -49.1 -50.0 -47.85 -50.4 -42.85 -50.25 -40.75 -50.0 -39.45 -49.65 -37.7 -49.65 -36.1 -50.2 -33.0 -50.85 -20.0 -51.45 -18.75 -51.1 -17.85 -50.6 -16.95 -50.2 -14.1 -50.4 -12.85 -50.7 -2.85 -52.1 -2.85 -52.15 6.45 -52.15 7.7 -51.8 8.6 -51.5 9.85 -51.1" fill="#ffff99" fill-opacity="0.2" fill-rule="evenodd" stroke="none"/>
    <path d="M-17.85 23.3 L-17.65 23.05 -17.4 22.8 -17.15 22.6 -16.95 22.55 -16.45 22.45 -16.4 22.4 -15.7 22.6 -15.35 22.85 -15.2 23.15 -15.05 23.4 -14.9 23.65 -14.45 28.25 Q-14.05 30.1 -14.0 31.95 -13.95 34.55 -14.45 37.05 L-14.45 37.35 -14.45 37.6 -14.45 37.85 -14.45 38.15 -14.35 38.4 -14.1 38.7 -13.95 38.95 -13.85 39.2 -13.75 39.45 -13.75 40.0 -13.7 40.8 -13.85 41.6 -13.95 41.85 -14.1 42.15 -14.1 42.7 -14.05 43.75 Q-13.95 44.4 -14.0 45.1 L-14.0 45.65 -14.1 45.9 -14.3 46.15 -14.65 46.7 -14.8 46.95 -14.85 47.25 -14.8 48.05 -14.7 49.1 -14.7 49.9 -14.85 50.2 -15.0 50.45 -15.2 50.7 -15.45 51.0 -15.85 51.3 -15.95 51.55 -16.1 51.8 -16.25 52.05 -16.5 52.3 -16.8 52.5 -16.95 52.6 -17.5 52.7 -18.2 52.5 -18.55 52.25 -18.8 51.95 -19.0 51.7 -19.1 51.45 -19.25 51.65 -19.45 51.9 -19.8 52.15 -20.15 52.35 -22.85 52.25 -23.55 52.15 -23.9 52.15 -26.8 52.35 -28.2 52.05 -28.55 51.8 -28.85 51.55 -28.95 51.25 -29.1 51.0 -29.2 50.7 -29.2 50.45 -29.15 50.2 -29.1 49.9 -29.0 49.65 -28.75 49.4 -28.5 49.2 -28.3 49.15 -27.85 49.05 -23.2 48.55 -22.4 48.3 -22.3 46.95 -22.3 44.85 -22.3 42.7 -22.3 42.4 -22.25 42.15 -22.15 41.9 -22.1 41.6 -22.05 41.35 -21.95 41.1 -21.95 38.4 -21.55 35.2 -20.9 32.25 -20.9 29.85 -20.9 26.9 -20.9 24.2 -20.75 23.95 -20.55 23.65 -20.25 23.4 -20.0 23.2 -19.8 23.15 -19.3 23.05 -18.55 23.2 -18.2 23.4 -17.85 23.3" fill="#333333" fill-opacity="0.2" fill-rule="evenodd" stroke="none"/>
    <path d="M7.7 52.5 L8.6 52.2 9.85 51.8 10.75 51.3 11.8 50.7 12.35 50.65 13.6 50.75 15.2 51.1 16.45 51.45 23.75 51.8 25.0 52.15 32.15 52.15 33.4 51.8 34.3 51.3 35.3 50.65 35.55 50.35 35.9 50.25 45.75 50.0 47.0 49.65 47.9 49.1 48.2 48.55 48.4 48.05 48.5 47.5 48.4 46.95 48.25 46.45 47.9 45.9 47.0 45.35 45.75 45.0 35.0 45.0 33.8 45.4 32.7 45.9 31.85 46.5 31.6 46.8 31.25 46.9 25.55 46.8 24.3 46.45 17.0 46.1 15.7 45.75 14.1 45.35 12.85 45.0 10.7 45.0 9.45 45.35 8.75 45.9 8.4 46.25 7.85 46.45 6.65 46.85 5.55 47.35 4.85 47.7 1.25 47.5 0.0 47.15 -8.75 46.8 -10.0 46.45 -11.6 46.05 -12.85 45.7 -18.55 45.7 -19.8 46.15 -20.9 46.6 -21.6 46.95 -31.6 46.8 -33.4 46.2 -34.1 45.9 -35.55 45.55 -36.25 45.2 -37.15 45.1 -40.0 45.0 -41.25 45.35 -41.95 45.2 -43.4 44.85 -44.45 44.3 -45.2 43.95 -45.55 43.8 -46.8 43.6 -47.35 43.2 -47.7 43.1 -48.6 42.9 -49.3 42.85 -50.55 43.2 -51.25 43.75 -51.6 44.3 -51.8 44.85 -51.8 45.35 -51.75 45.9 -51.6 46.45 -51.45 46.95 -51.45 47.5 -51.45 48.05 -51.2 48.55 -50.75 49.1 -50.2 49.65 -49.65 50.2 -49.1 50.7 -47.85 51.1 -42.85 50.95 -40.75 50.7 -39.45 50.35 -37.7 50.35 -36.1 50.9 -33.0 51.55 -20.0 52.15 -18.75 51.8 -17.85 51.3 -16.95 50.9 -14.1 51.1 -12.85 51.4 -2.85 52.8 -2.85 52.85 6.45 52.85 7.7 52.5" fill="#ffff99" fill-opacity="0.2" fill-rule="evenodd" stroke="none"/>
    <path d="M-36.65 11.05 L-35.75 11.25 -34.5 11.6 -33.8 12.15 -33.45 12.7 -33.2 13.2 -32.9 13.75 -32.7 14.3 -32.5 14.8 -32.35 15.35 -32.15 15.45 -31.45 15.55 -30.2 15.9 -29.5 16.45 -28.75 16.6 -27.9 16.45 -26.65 16.8 -25.9 17.3 -25.2 17.85 -24.9 18.4 -24.65 18.95 -24.55 19.5 -24.55 20.0 -24.65 20.55 -25.0 21.1 -25.4 21.6 -25.9 21.95 -26.3 22.05 -33.6 22.35 -34.85 22.0 -37.65 21.1 -39.65 20.15 -40.05 19.85 -40.55 19.85 -45.75 20.0 -47.0 19.65 -47.7 19.1 -48.05 18.55 -48.25 18.05 -48.25 17.5 -48.2 16.95 -48.05 16.45 -47.7 15.9 -47.15 15.35 -46.6 14.85 -45.9 14.3 -45.55 13.75 -45.05 13.2 -44.7 12.65 -44.45 12.15 -44.15 11.6 -43.4 11.05 -42.2 10.8 -42.15 10.7 -37.9 10.7 -36.65 11.05" fill="#663300" fill-opacity="0.2" fill-rule="evenodd" stroke="none"/>
    <path d="M-36.45 5.9 L-35.4 6.25 -34.65 6.8 -34.3 7.3 -34.2 7.85 -34.15 8.95 -34.2 10.55 -34.3 11.6 -34.55 12.15 -34.85 12.65 -35.4 13.2 -36.1 13.75 -37.15 14.1 -39.3 14.1 -40.55 13.75 -41.1 13.2 -42.2 12.15 -43.4 10.5 -43.6 10.0 -43.6 9.45 -43.5 9.0 -42.65 7.9 -42.15 7.5 -41.45 7.3 -40.4 7.4 -40.05 7.3 -39.65 7.0 -39.3 6.8 -38.4 6.45 -37.9 6.25 -37.35 6.15 -36.45 6.0 -36.45 5.9" fill="#663300" fill-opacity="0.2" fill-rule="evenodd" stroke="none"/>
    <path d="M-42.7 -16.25 L-42.65 -16.75 -42.35 -17.35 -41.8 -17.7 -41.6 -17.8 -40.75 -17.95 -40.75 -18.05 -40.05 -18.05 -38.95 -17.7 -38.4 -17.15 -37.9 -16.6 -37.55 -16.05 -37.35 -15.55 -37.4 -15.0 -37.55 -14.45 -37.7 -13.95 -38.05 -13.4 -38.6 -13.1 -39.45 -12.65 -40.05 -12.35 -40.75 -12.15 -41.8 -12.5 -42.35 -13.05 -42.5 -13.6 -42.55 -14.1 -42.55 -14.65 -42.55 -15.2 -42.7 -16.25" fill="#663300" fill-opacity="0.2" fill-rule="evenodd" stroke="none"/>
    <path d="M39.8 -7.7 L40.7 -7.8 44.45 -8.05 45.0 -8.55 45.55 -8.95 46.4 -9.0 46.45 -9.1 47.5 -8.75 48.2 -8.2 48.55 -7.65 48.75 -7.15 48.75 -6.6 48.7 -6.1 48.55 -5.55 48.4 -5.0 Q48.3 -4.75 48.35 -4.5 L48.55 -3.95 48.95 -3.4 49.05 -2.85 49.1 -2.3 49.1 -1.25 49.1 -0.2 49.1 0.35 49.3 0.9 49.45 1.45 49.65 1.95 49.8 2.5 49.8 3.05 49.8 3.55 49.8 4.1 49.65 4.65 49.45 5.2 49.5 5.7 49.65 6.25 49.75 6.8 49.65 7.3 49.45 7.85 49.2 8.35 48.55 8.9 48.05 9.3 47.15 9.45 46.45 9.45 45.2 9.1 44.5 8.55 43.95 8.05 43.4 7.5 43.2 7.0 42.85 6.45 42.5 5.9 42.35 5.35 42.3 4.8 42.3 4.3 42.25 3.8 42.0 3.2 41.8 2.7 41.65 2.15 41.6 1.6 41.65 1.1 41.8 0.55 41.95 0.35 Q41.45 0.1 40.7 -0.05 L39.45 -0.35 38.75 -0.9 38.25 -1.45 37.85 -1.95 37.5 -2.5 37.5 -3.05 37.5 -3.55 37.5 -4.1 37.5 -4.65 37.5 -5.2 37.7 -5.7 38.05 -6.25 38.55 -6.8 39.1 -7.35 39.8 -7.7" fill="#663300" fill-opacity="0.2" fill-rule="evenodd" stroke="none"/>
    <path d="M40.0 -12.45 L42.85 -12.85 42.85 -13.4 42.85 -13.95 42.85 -15.0 42.85 -16.1 42.85 -16.6 43.05 -17.15 43.4 -17.7 43.75 -18.2 44.3 -18.6 44.65 -18.7 45.7 -18.85 45.7 -18.95 46.95 -18.6 47.7 -18.05 48.05 -17.5 48.4 -16.95 48.55 -16.45 48.75 -15.9 49.1 -15.35 49.25 -14.8 49.35 -13.75 49.55 -12.15 49.65 -10.55 49.65 -10.0 49.45 -9.5 49.1 -8.95 48.25 -7.85 47.85 -7.35 47.15 -6.8 46.6 -6.45 47.85 -6.2 49.3 -5.9 50.0 -5.35 50.5 -4.8 51.2 -3.75 51.45 -3.2 51.55 -2.65 51.6 -2.15 51.55 -1.6 51.45 -1.05 51.2 -0.55 50.9 0.0 50.55 0.55 50.0 0.9 48.55 1.1 43.55 1.25 42.15 0.9 41.45 0.35 40.95 -0.2 40.7 -0.7 40.6 -1.25 40.55 -1.8 40.55 -2.3 40.45 -2.6 38.6 -3.1 36.45 -3.55 Q36.05 -3.85 35.7 -4.1 L35.4 -4.65 35.2 -5.2 35.05 -5.75 35.0 -6.25 35.0 -7.35 35.0 -8.4 35.0 -8.95 35.2 -9.45 35.55 -10.0 36.05 -10.55 36.6 -11.1 37.5 -11.6 38.55 -12.15 40.0 -12.45" fill="#663300" fill-opacity="0.2" fill-rule="evenodd" stroke="none"/>
    <path d="M-33.85 -1.95 Q-34.5 -2.0 -34.7 -2.35 L-34.85 -2.8 -34.85 -9.75 -30.55 -9.75 -30.55 -8.05 Q-31.65 -7.15 -32.1 -5.9 L-32.75 -3.35 Q-32.75 -2.15 -33.85 -1.95 M-21.85 -9.75 L-21.85 9.25 -21.7 10.35 Q-21.6 10.65 -20.85 10.85 -20.25 11.05 -20.2 11.7 -20.25 12.3 -20.7 12.45 L-21.3 12.6 -29.75 12.6 -30.35 12.45 Q-30.8 12.3 -30.85 11.7 -30.8 11.05 -30.2 10.85 -29.45 10.65 -29.35 10.35 -29.2 10.05 -29.2 9.25 L-29.2 -9.75 -21.85 -9.75 M-20.55 -9.75 L-16.25 -9.75 -16.25 -2.8 -16.4 -2.35 Q-16.55 -2.0 -17.2 -1.95 -18.3 -2.15 -18.3 -3.35 -18.45 -4.6 -18.95 -5.9 -19.4 -7.15 -20.55 -8.05 L-20.55 -9.75" fill="#333333" fill-rule="evenodd" stroke="none"/>
    <path d="M13.7 -9.75 L18.0 -9.75 18.0 -8.05 Q16.9 -7.15 16.45 -5.9 15.95 -4.6 15.8 -3.35 15.8 -2.15 14.7 -1.95 14.05 -2.0 13.85 -2.35 L13.7 -2.8 13.7 -9.75 M30.25 -3.35 L29.6 -5.9 Q29.15 -7.15 28.0 -8.05 L28.0 -9.75 32.3 -9.75 32.3 -2.8 32.15 -2.35 Q32.0 -2.0 31.35 -1.95 30.25 -2.15 30.25 -3.35 M26.7 -9.75 L26.7 9.25 Q26.7 10.05 26.85 10.35 26.95 10.65 27.7 10.85 28.3 11.05 28.35 11.7 28.3 12.3 27.85 12.45 L27.25 12.6 18.8 12.6 18.2 12.45 Q17.75 12.3 17.7 11.7 17.75 11.05 18.35 10.85 L19.2 10.35 19.35 9.25 19.35 -9.75 26.7 -9.75" fill="#333333" fill-rule="evenodd" stroke="none"/>
    <path d="M8.45 -9.65 Q8.95 -9.5 9.0 -8.9 8.95 -8.25 8.35 -8.05 L7.2 -7.15 Q6.6 -6.45 6.55 -4.4 L6.55 2.85 6.5 2.85 4.8 -0.15 4.8 -4.4 Q4.75 -6.45 4.15 -7.15 3.55 -7.85 3.0 -8.05 2.4 -8.25 2.35 -8.9 2.4 -9.5 2.85 -9.65 L3.6 -9.8 7.7 -9.8 8.45 -9.65 M6.55 12.6 L2.05 12.6 -8.95 -6.3 -9.6 -7.3 -10.6 -7.9 Q-11.4 -8.0 -11.5 -8.85 -11.45 -9.5 -10.95 -9.65 L-9.95 -9.8 -2.2 -9.8 6.55 5.35 6.55 12.6 M-9.1 -4.15 L-7.4 -1.2 -7.4 7.85 Q-6.95 10.45 -6.0 10.7 -5.1 11.0 -5.0 11.75 -5.05 12.4 -5.65 12.5 L-6.55 12.6 -10.0 12.6 -10.9 12.5 Q-11.5 12.4 -11.55 11.75 -11.45 11.0 -10.55 10.7 -9.6 10.45 -9.15 7.85 L-9.15 -4.15 -9.1 -4.15" fill="#333333" fill-rule="evenodd" stroke="none"/>
    <path d="M2.1 -55.4 L8.25 -54.75 Q9.4 -54.55 10.35 -53.85 11.25 -53.25 12.3 -52.8 L12.55 -52.65 Q13.3 -53.15 14.2 -53.25 L20.35 -53.95 Q25.1 -54.6 29.5 -53.85 32.75 -54.05 35.4 -51.95 L42.75 -51.65 Q47.2 -51.95 50.6 -47.8 L51.25 -46.45 51.35 -45.95 51.35 -44.75 51.25 -44.35 51.2 -44.35 51.35 -42.25 51.4 -42.0 51.4 -37.3 51.1 -36.6 51.1 -30.7 51.1 -23.85 51.1 -23.75 51.1 -23.6 51.1 -23.05 51.0 -22.8 51.0 -22.65 50.95 -22.55 50.9 -22.4 50.9 -22.25 50.9 -22.0 50.9 -21.85 50.9 -21.7 50.9 -21.6 51.05 -21.2 51.2 -20.95 51.45 -20.65 51.75 -20.55 51.8 -20.5 51.8 -10.3 51.9 -9.95 Q51.65 4.6 52.0 19.3 L52.05 21.75 51.35 22.55 51.25 22.85 51.15 23.1 51.05 23.35 51.05 35.45 51.05 45.35 51.05 46.75 51.05 48.3 50.65 48.5 Q47.85 49.9 45.2 51.45 L42.6 51.65 35.25 51.9 Q32.6 54.05 29.35 53.85 24.95 54.55 20.2 53.9 L14.05 53.25 12.4 52.65 12.15 52.8 Q11.1 53.25 10.2 53.85 L8.1 54.7 1.95 55.35 Q-2.8 56.0 -7.2 55.3 -10.75 55.5 -13.6 52.9 L-14.7 53.25 -20.85 53.9 Q-25.6 54.55 -30.0 53.85 -33.25 54.05 -35.9 51.9 L-43.25 51.65 Q-46.25 51.85 -48.75 50.05 L-48.8 50.45 -51.9 48.15 -51.85 45.85 -51.85 45.35 -51.7 38.55 Q-51.55 34.35 -51.8 30.3 L-51.8 30.25 -51.7 27.2 -51.8 25.35 -51.8 24.65 -51.8 24.5 -51.8 24.3 -51.8 23.9 -52.35 22.75 -52.65 22.3 -52.5 17.15 Q-51.8 0.3 -52.2 -16.6 L-52.25 -19.2 -52.3 -19.4 -52.35 -19.45 -52.3 -20.0 -52.25 -20.15 -52.3 -27.8 -52.25 -32.25 -52.0 -42.25 -51.85 -46.1 -51.8 -46.1 -51.8 -46.45 -51.45 -47.15 -51.35 -47.15 -50.95 -47.8 Q-47.55 -51.95 -43.1 -51.65 L-35.75 -51.95 Q-33.1 -54.05 -29.85 -53.85 -25.45 -54.6 -20.7 -53.95 L-14.55 -53.25 -13.45 -52.95 Q-10.6 -55.55 -7.05 -55.35 -2.65 -56.05 2.1 -55.4 M9.85 -50.8 L9.4 -50.85 Q2.5 -52.65 -4.8 -52.0 L-9.75 -50.85 -9.7 -50.8 -11.65 -49.95 -12.5 -49.05 -12.85 -49.2 -13.65 -47.95 -13.65 -47.85 -13.6 -46.1 -13.5 -46.1 -13.35 -42.25 -13.35 -40.05 -13.35 -28.8 -13.35 -27.75 -13.3 -27.7 -13.15 -27.4 -13.0 -27.15 -12.95 -26.6 -12.95 -25.55 -12.95 -24.45 -12.95 -24.2 -12.7 -23.15 -12.65 -21.55 -12.65 -20.7 -2.45 -20.65 -2.35 -20.7 -1.75 -20.8 -1.55 -20.85 -1.25 -20.9 1.7 -21.05 2.0 -21.05 10.05 -20.95 12.15 -20.95 12.05 -25.65 9.65 -25.65 9.1 -25.8 8.3 -26.1 8.15 -26.35 8.15 -26.6 8.35 -26.8 8.6 -26.9 9.65 -27.2 9.65 -27.25 12.05 -27.25 12.05 -30.4 11.95 -30.45 9.65 -30.65 9.15 -30.85 8.95 -31.0 8.2 -31.1 7.8 -31.25 7.55 -31.55 7.5 -31.8 7.55 -32.05 7.8 -32.35 8.2 -32.45 8.2 -32.5 8.95 -32.5 9.3 -32.4 9.45 -32.35 11.8 -32.25 12.05 -32.15 12.1 -42.25 12.1 -43.25 12.15 -46.1 12.25 -49.15 11.9 -48.95 11.85 -49.2 11.65 -49.8 Q10.9 -50.6 9.85 -50.8 M14.85 -49.55 L14.95 -49.2 15.05 -46.1 15.05 -44.75 15.05 -44.35 15.05 -42.25 15.05 -41.1 15.2 -42.25 15.45 -43.6 15.65 -43.75 15.75 -43.85 16.1 -43.95 16.2 -44.0 16.45 -44.05 16.65 -44.05 16.9 -43.75 16.9 -43.5 16.8 -43.25 16.9 -42.95 16.9 -42.7 16.9 -42.4 17.0 -42.25 17.0 -42.15 17.1 -41.9 17.35 -33.6 17.45 -25.0 17.45 -20.75 20.15 -20.7 20.55 -20.65 20.85 -20.6 32.85 -20.55 36.1 -20.55 Q35.95 -25.5 36.05 -30.45 L36.1 -42.25 36.2 -46.1 36.2 -46.2 36.1 -46.45 35.55 -47.4 35.35 -48.15 35.25 -48.25 Q33.65 -49.65 31.7 -50.0 L29.15 -50.55 Q26.2 -51.25 23.15 -50.65 L14.8 -49.8 14.85 -49.55 M38.95 -47.85 L39.0 -46.1 39.05 -42.25 39.05 -39.9 39.4 -40.45 40.0 -40.6 40.05 -40.65 40.55 -40.45 40.8 -40.15 40.9 -39.9 41.0 -39.65 40.95 -39.4 40.85 -39.1 40.75 -38.85 40.65 -38.6 40.55 -38.3 40.6 -38.05 40.65 -37.8 40.75 -37.5 40.85 -37.25 41.0 -31.35 41.0 -24.9 41.0 -20.65 41.0 -20.55 41.5 -20.55 41.65 -20.65 42.15 -20.7 44.65 -20.8 46.3 -20.7 46.45 -20.65 48.15 -20.55 48.15 -27.8 48.2 -32.25 48.5 -42.25 48.65 -45.45 47.9 -46.35 Q47.55 -46.65 47.2 -46.75 L40.5 -48.35 38.8 -48.45 38.85 -48.2 38.95 -47.85 M19.5 -17.8 L7.15 -17.9 4.85 -17.6 -2.5 -17.4 -2.65 -17.35 -2.8 -17.25 -7.8 -17.25 -15.05 -17.45 -18.0 -17.7 -47.2 -17.9 -47.45 -17.85 -48.05 -17.55 -48.25 -17.4 -49.0 -17.6 -49.1 -14.1 Q-49.4 -4.4 -49.3 5.2 L-48.2 5.2 -47.75 5.4 -47.4 5.65 -46.7 5.9 -46.4 6.2 -46.25 6.45 -46.4 6.7 -46.7 7.0 -47.15 7.15 -47.5 7.25 -47.85 7.35 -48.4 7.2 -49.25 7.05 -48.95 18.9 -48.9 18.85 -48.85 18.85 -48.7 19.15 -48.5 19.4 -48.4 19.55 -33.8 20.3 -33.5 20.25 -19.75 19.9 -19.25 19.8 1.15 19.95 1.65 19.95 18.3 19.75 23.15 19.35 33.3 19.35 32.95 19.1 32.85 18.85 32.8 18.55 32.85 18.3 32.95 18.05 33.25 17.85 33.6 17.8 33.6 17.75 33.95 17.75 34.5 17.95 35.05 18.2 35.85 18.5 36.3 18.75 36.45 19.0 36.8 19.3 36.9 19.35 42.55 19.35 42.55 19.3 42.55 19.0 42.6 18.75 42.7 18.5 42.9 18.2 43.15 18.05 43.6 18.0 43.6 17.95 44.35 18.25 44.95 18.5 45.5 18.75 45.85 18.95 46.2 19.0 46.35 19.0 46.8 18.95 47.35 19.1 47.6 19.35 48.05 19.35 48.05 18.6 48.1 16.8 46.1 16.4 45.5 16.15 45.2 15.9 44.95 15.6 44.75 15.35 44.75 15.1 44.8 14.8 44.85 14.55 44.85 14.3 44.95 14.05 45.1 13.75 45.4 13.55 45.75 13.55 45.75 13.5 46.2 13.65 46.35 13.95 46.55 14.2 46.8 14.35 47.35 14.55 48.15 14.85 48.2 -15.2 48.15 -17.95 48.05 -17.95 47.95 -17.85 47.75 -17.7 47.6 -17.6 47.45 -17.6 47.2 -17.55 46.8 -17.6 46.7 -17.65 46.45 -17.5 45.75 -17.3 26.55 -17.25 24.85 -17.6 19.5 -17.8 M41.4 -13.55 L41.5 -13.7 41.7 -13.8 43.25 -14.3 44.35 -14.7 44.5 -14.85 44.7 -14.95 45.15 -15.0 45.35 -15.15 45.55 -15.25 45.75 -15.25 45.75 -15.3 46.05 -15.2 46.2 -15.05 46.3 -14.95 46.35 -14.8 46.4 -14.65 46.35 -14.55 46.3 -14.4 46.2 -14.25 46.05 -14.15 45.85 -14.0 45.3 -13.7 45.15 -13.6 Q44.55 -13.3 43.9 -13.15 L42.9 -12.95 42.65 -12.85 42.35 -12.75 42.0 -12.65 41.7 -12.75 41.45 -12.9 41.25 -12.85 40.95 -12.85 40.8 -12.95 40.8 -13.1 40.9 -13.25 41.05 -13.3 41.35 -13.4 41.4 -13.55 M43.35 8.4 L42.15 8.1 41.7 7.95 41.6 7.65 41.55 7.4 41.65 7.15 41.85 7.0 42.15 6.85 42.9 6.85 42.9 6.8 43.5 7.0 44.2 7.25 44.85 7.5 45.5 7.75 45.65 8.05 46.3 8.3 46.45 8.55 46.3 8.85 45.85 8.8 45.4 8.75 45.05 8.85 44.4 8.65 43.95 8.55 43.35 8.4 M41.3 11.85 L41.8 12.05 42.5 12.25 42.95 12.45 43.05 12.7 43.1 12.95 43.0 13.2 42.85 13.35 42.55 13.5 42.15 13.4 41.45 13.2 41.1 13.1 40.55 12.95 40.2 12.7 39.3 12.15 38.85 11.85 38.6 11.6 38.35 11.35 38.1 11.05 37.95 10.8 38.0 10.55 38.15 10.25 38.6 10.15 38.6 10.1 39.05 10.25 39.3 10.55 39.6 10.8 40.05 11.05 40.9 11.6 41.3 11.85 M48.0 22.6 L47.7 23.05 47.15 23.4 40.85 23.55 40.85 24.85 40.85 31.3 40.7 37.2 40.6 37.45 40.5 37.75 40.45 38.0 40.4 38.25 40.5 38.55 40.6 38.8 40.7 39.05 40.8 39.35 40.85 39.6 40.75 39.85 40.65 40.1 40.4 40.4 39.9 40.6 39.85 40.55 39.25 40.4 38.9 39.85 38.9 45.0 39.3 44.9 39.3 44.85 39.75 45.0 40.2 45.25 40.3 45.35 40.75 45.35 40.75 46.6 40.75 46.75 40.75 48.3 47.05 46.8 47.75 46.4 47.85 46.3 47.85 45.35 Q47.75 33.9 48.0 22.6 M47.75 20.8 L47.85 20.95 48.0 21.15 48.0 20.5 47.85 20.5 47.8 20.7 47.75 20.8 M37.55 14.9 Q38.2 15.2 38.75 15.65 L39.15 15.9 39.3 16.15 39.4 16.45 39.3 16.7 39.15 16.95 38.95 17.1 38.6 17.25 Q37.7 17.0 36.95 16.45 L35.55 15.7 35.3 15.45 35.15 15.15 35.0 14.9 34.85 14.65 34.85 14.35 34.85 14.1 34.85 13.85 34.9 13.6 35.15 13.3 35.4 13.1 35.75 13.1 35.75 13.05 36.2 13.2 36.45 13.5 36.6 13.75 36.65 14.0 Q36.9 14.6 37.55 14.9 M32.55 23.95 L32.45 24.2 32.15 24.45 31.9 24.65 31.35 24.85 30.9 25.0 30.4 25.05 17.3 25.1 17.2 33.55 16.95 41.85 16.85 42.1 16.75 42.35 16.75 42.65 16.75 42.9 16.65 43.2 16.75 43.45 16.75 43.7 16.5 44.0 16.3 44.0 16.05 43.95 15.95 43.9 15.6 43.8 15.5 43.7 15.3 43.55 14.9 41.05 14.9 45.35 16.7 45.35 16.75 46.9 16.85 49.0 16.9 50.2 23.0 50.65 Q26.05 51.25 29.0 50.55 L31.55 50.0 Q33.5 49.7 35.1 48.3 L35.2 48.15 35.4 47.45 35.95 46.5 36.05 46.35 35.95 42.2 35.9 30.4 35.9 23.65 32.65 23.65 32.55 23.95 M5.7 23.35 L2.15 23.35 -12.95 23.65 -13.1 24.15 -13.1 24.4 -13.1 25.5 -13.1 26.55 -13.15 27.1 -13.3 27.35 -13.45 27.65 -13.5 27.7 -13.5 28.75 -13.5 40.0 -13.7 46.75 -13.75 46.75 -13.8 47.9 -13.8 47.95 -13.0 49.2 -12.65 49.1 -11.8 49.95 -9.85 50.8 -9.9 50.85 -4.95 52.0 Q2.35 52.65 9.25 50.85 L9.7 50.8 Q10.75 50.6 11.5 49.8 L11.7 49.2 11.75 48.95 12.1 49.15 12.05 46.75 12.0 46.75 11.95 43.2 11.9 31.4 11.95 23.5 5.7 23.35 M-21.8 -44.4 L-21.75 -44.4 -21.8 -44.35 -21.8 -44.4 M-21.8 -46.1 L-21.85 -45.85 -21.85 -46.05 -21.8 -46.1 M-40.85 -48.35 L-47.55 -46.75 -48.25 -46.35 -49.45 -44.75 -49.6 -44.4 -49.45 -42.25 -49.05 -32.25 -48.95 -27.8 -48.95 -20.8 -46.9 -20.7 -38.75 -20.7 -38.7 -21.9 -38.7 -22.25 -39.05 -32.05 -38.85 -42.25 -38.85 -43.3 -38.7 -46.1 -38.6 -46.1 -38.5 -48.45 -40.85 -48.35 M-26.2 -50.45 L-27.0 -50.45 Q-30.6 -50.2 -34.2 -48.85 L-35.0 -48.45 -35.05 -48.45 -35.2 -48.35 -36.5 -47.0 -36.55 -46.6 -36.6 -46.25 -36.6 -46.1 -36.55 -46.1 -36.4 -42.25 -36.35 -39.05 -36.35 -27.8 -36.45 -23.5 -36.4 -23.3 Q-36.25 -22.95 -36.25 -22.5 L-36.25 -21.15 -36.25 -20.9 -23.35 -20.9 -23.0 -20.85 -21.3 -20.8 -20.95 -20.7 -15.9 -20.7 -15.9 -22.05 -15.8 -23.65 -15.8 -23.95 -15.75 -24.05 -16.05 -33.05 -15.9 -42.25 -15.85 -44.3 -15.75 -46.1 -15.7 -46.1 -15.6 -48.2 -15.7 -48.65 -15.6 -49.85 Q-20.9 -50.95 -26.4 -50.6 L-26.2 -50.45 M-17.0 24.1 L-17.05 23.85 -17.0 23.75 -36.55 23.85 -36.5 27.75 -36.5 39.0 -36.75 46.3 -36.7 46.65 -36.65 47.05 -35.35 48.35 -35.2 48.5 -35.15 48.5 -34.35 48.9 Q-30.75 50.2 -27.15 50.45 L-26.35 50.45 -26.55 50.6 -15.75 49.9 -15.85 48.7 -15.75 48.25 -15.85 46.75 -15.9 46.75 -16.0 44.25 -16.05 41.7 -16.15 41.85 -16.25 42.05 -16.4 42.15 -16.8 42.25 -17.5 42.25 -18.05 42.05 -18.15 41.9 -18.2 41.8 -18.75 41.6 -18.75 41.35 -18.55 41.15 -18.2 40.95 -18.05 40.8 -17.85 40.75 -17.5 40.65 -17.5 40.6 -16.8 40.6 -16.35 40.8 -16.15 41.05 -16.1 41.15 -16.15 38.6 -16.25 38.55 -16.8 38.65 -17.4 38.55 -18.1 38.65 -18.65 38.65 -19.1 38.65 -18.95 38.4 -18.4 38.1 -18.2 37.85 -17.7 37.6 -17.4 37.3 -16.95 37.05 -16.6 36.8 -16.15 36.7 -16.2 33.0 -15.95 24.7 -16.05 24.65 -16.4 24.55 -16.85 24.35 -17.0 24.1 M-38.65 48.5 L-38.75 46.75 -38.8 46.75 -39.0 43.25 -39.2 32.0 -38.95 23.85 -48.8 23.75 -48.7 29.0 -48.8 29.25 -48.85 29.55 -48.95 29.8 -48.95 36.25 -48.95 41.85 -48.65 42.65 -48.65 42.7 -48.65 46.1 -48.4 46.4 -47.7 46.8 -41.0 48.35 -38.65 48.5 M-21.95 46.1 L-22.0 46.0 -22.0 45.8 -21.9 46.1 -21.95 46.1 M-44.65 1.45 L-44.2 1.6 -44.05 1.9 -43.95 2.15 -44.05 2.4 -44.2 2.7 -44.65 2.85 -45.35 2.95 -47.7 3.15 -48.1 3.35 -48.2 3.4 -48.6 3.5 -49.0 3.3 -49.15 3.05 -49.2 2.8 -49.1 2.5 -49.0 2.25 -48.85 2.0 -48.4 1.7 -48.05 1.55 -47.85 1.5 -47.5 1.4 -47.5 1.35 -45.35 1.4 -44.65 1.45" fill="#333333" fill-rule="evenodd" stroke="none"/>
  </g>
</svg>
