<?xml version="1.0" encoding="UTF-8" standalone="no"?>
<svg xmlns:xlink="http://www.w3.org/1999/xlink" height="481.95px" width="649.0px" xmlns="http://www.w3.org/2000/svg">
  <g transform="matrix(1.0, 0.0, 0.0, 1.0, 24.0, 1.0)">
    <path d="M170.55 407.35 L220.9 431.65 265.05 441.5 336.95 441.5 381.1 431.65 431.45 407.35 625.0 262.2 625.0 480.95 -24.0 480.95 -24.0 261.45 170.55 407.35" fill="#cccccc" fill-rule="evenodd" stroke="none"/>
    <path d="M391.2 126.0 L459.95 130.1 459.95 135.1 416.95 143.75 397.7 172.75 397.7 220.6 429.95 220.6 429.95 241.15 454.95 241.15 454.95 264.9 491.95 264.9 491.95 275.5 353.15 366.3 326.7 371.95 326.7 369.85 341.95 365.15 341.95 342.45 377.5 342.45 400.95 262.65 335.35 233.55 371.95 233.55 371.95 172.25 283.0 159.0 259.55 211.25 264.7 228.3 256.85 247.35 242.6 254.85 248.35 288.15 273.25 288.15 273.25 373.3 248.5 366.3 109.95 275.6 109.95 264.9 179.9 264.9 179.9 246.1 207.95 246.1 207.95 220.6 236.15 220.6 236.15 172.75 221.95 144.55 190.95 136.75 190.95 132.1 242.6 125.2 261.05 105.5 304.9 112.05 309.25 140.15 384.75 144.6 391.2 126.0" fill="#cccccc" fill-rule="evenodd" stroke="none"/>
    <path d="M621.95 86.0 L489.95 86.0 442.4 90.3 437.05 103.3 378.6 95.8 347.0 119.85 331.3 74.0 291.25 86.2 254.3 69.55 214.9 97.5 209.7 106.25 207.6 93.5 169.8 93.5 144.95 86.0 -17.0 86.0 -17.0 -1.0 621.95 -1.0 621.95 86.0" fill="#cccccc" fill-rule="evenodd" stroke="none"/>
  </g>
</svg>
