<?xml version="1.0" encoding="UTF-8" standalone="no"?>
<svg xmlns:xlink="http://www.w3.org/1999/xlink" height="98.1px" width="98.0px" xmlns="http://www.w3.org/2000/svg">
  <g transform="matrix(1.0, 0.0, 0.0, 1.0, 49.45, 50.3)">
    <path d="M24.65 -41.3 Q33.35 -35.15 39.1 -26.55 39.75 -25.55 40.95 -24.8 45.75 -22.1 46.25 -16.3 47.95 -15.5 48.1 -13.25 48.3 -10.6 47.65 -8.25 48.25 -5.35 48.15 -2.35 L47.85 2.3 Q50.15 13.6 44.65 24.65 42.95 28.1 39.45 30.4 38.4 31.1 37.4 31.25 30.8 36.0 24.75 41.65 20.55 45.55 15.0 45.45 10.9 46.75 6.4 47.35 L-3.9 47.7 Q-7.9 48.05 -11.75 46.65 -20.5 44.7 -28.15 39.7 -31.65 37.9 -34.9 35.65 -36.85 34.3 -37.5 31.9 -45.55 23.25 -47.5 11.6 -49.2 9.9 -49.05 5.35 -48.9 2.15 -49.45 -1.1 L-47.7 -3.0 -47.1 -6.85 Q-48.1 -9.9 -47.35 -13.25 -44.65 -16.55 -42.85 -20.6 -44.3 -25.6 -38.5 -29.45 -36.3 -30.85 -34.1 -31.85 L-33.8 -32.2 -32.15 -33.85 -32.1 -34.25 Q-30.25 -46.0 -18.7 -45.9 -16.05 -45.85 -13.65 -47.45 -3.95 -53.55 4.6 -46.65 L6.8 -46.1 6.9 -46.2 Q9.95 -47.8 13.25 -47.1 L14.95 -44.9 14.85 -44.65 Q18.3 -44.15 21.4 -42.3 L23.3 -41.1 23.35 -41.3 24.65 -41.3 M-6.2 -47.1 L-5.75 -47.2 -5.95 -47.2 -6.2 -47.1" fill="#a28c88" fill-rule="evenodd" stroke="none"/>
  </g>
</svg>
