<?xml version="1.0" encoding="UTF-8" standalone="no"?>
<svg xmlns:xlink="http://www.w3.org/1999/xlink" height="25.15px" width="36.9px" xmlns="http://www.w3.org/2000/svg">
  <g transform="matrix(1.0, 0.0, 0.0, 1.0, 0.95, 1.0)">
    <path d="M32.3 5.45 L26.95 5.45 26.45 5.8 26.75 6.15 26.8 6.25 28.45 6.3 29.95 6.75 30.8 7.25 32.7 8.65 33.0 9.05 34.05 9.65 34.2 9.6 34.55 9.25 34.8 8.85 34.95 8.0 34.75 7.15 34.6 6.85 33.95 6.15 33.7 6.0 32.55 5.5 32.3 5.45 M26.45 5.8 L26.1 5.45 26.0 5.3 25.8 5.1 25.7 5.05 24.7 5.0 25.0 5.2 25.15 5.45 26.15 8.0 26.45 8.5 27.7 9.45 28.25 9.8 28.75 10.25 28.7 10.15 28.6 9.65 28.45 9.2 27.7 7.75 27.25 7.2 27.0 6.75 26.8 6.25 M8.45 4.4 L7.55 3.7 6.3 3.2 5.3 2.65 2.8 1.95 2.05 2.15 0.75 3.45 0.45 3.9 0.05 6.15 0.7 7.4 4.2 8.8 4.95 8.85 5.75 8.75 6.15 8.45 6.25 8.25 6.4 7.9 6.45 7.85 6.8 7.15 7.7 5.75 8.8 4.5 9.3 3.75 13.2 0.85 13.95 0.45 15.7 0.0 16.55 0.1 18.8 0.75 21.3 2.15 22.6 3.35 23.7 4.65 22.55 4.95 21.4 5.35 20.8 5.85 19.7 7.15 19.3 7.9 18.85 9.15 18.8 9.4 18.75 12.5 18.95 13.4 20.55 15.2 20.95 15.4 21.9 15.75 23.6 13.85 23.5 13.85 22.25 14.3 20.8 14.3 19.95 13.0 20.2 12.15 20.35 11.55 21.0 10.3 20.3 10.8 20.05 11.25 M24.2 5.0 L24.7 5.0 M24.1 7.3 L25.0 7.6 25.25 7.9 24.65 7.15 23.7 6.75 22.55 7.25 21.25 9.25 21.0 10.3 21.35 9.8 22.35 9.0 23.0 7.9 24.1 7.3 M22.8 8.75 L22.35 9.0 22.2 9.35 22.65 9.15 23.95 9.2 25.2 10.0 25.2 9.95 25.3 9.9 25.2 9.65 24.2 8.75 22.8 8.75 M22.2 9.35 L21.95 10.25 22.6 10.65 22.65 11.4 22.65 11.45 23.45 11.25 24.25 11.45 25.2 10.0 25.4 10.2 25.3 9.9 25.6 9.75 25.5 8.45 25.25 7.9 M21.0 10.3 L21.15 10.25 21.35 10.0 22.2 9.35 M21.0 10.3 L20.95 10.55 21.15 10.25 21.95 10.25 21.85 12.0 22.4 13.35 22.55 13.5 23.6 12.9 23.8 12.75 23.95 12.65 24.0 12.6 24.25 11.45 24.5 11.5 24.85 11.65 24.9 11.55 24.95 11.5 25.05 11.25 25.35 10.8 25.45 10.45 25.4 10.2 25.5 10.3 25.55 9.95 25.6 9.75 25.7 9.7 25.65 8.8 25.5 8.45 M20.95 10.55 L20.35 11.7 20.2 12.15 20.15 13.0 20.6 13.65 21.75 13.8 22.2 13.65 21.3 13.0 20.9 11.4 20.95 10.55 M25.2 11.85 L24.75 12.55 24.75 12.75 25.25 11.85 25.2 11.85 24.9 11.7 24.75 12.55 23.95 13.3 24.0 13.5 24.75 12.75 24.85 13.4 25.3 13.05 25.65 12.1 25.25 11.85 25.45 11.45 25.2 11.85 M24.85 11.65 L24.9 11.7 24.9 11.55 M27.95 12.15 L28.25 11.95 28.65 11.3 27.8 10.7 26.55 10.4 26.5 10.4 26.4 11.1 25.95 12.3 26.25 12.65 26.4 11.8 26.95 10.75 27.2 10.8 27.3 11.15 26.95 12.75 26.65 13.25 26.75 13.5 26.85 14.0 26.95 14.0 27.6 13.8 28.35 12.95 28.7 12.15 28.65 11.3 28.75 10.25 29.55 11.25 29.8 11.5 30.1 12.4 30.0 12.75 29.05 14.5 28.4 15.1 26.55 16.0 24.55 16.2 21.9 15.75 20.7 16.3 17.2 17.45 13.95 17.75 11.05 17.5 10.6 17.4 10.35 18.5 10.3 19.15 10.3 22.5 M26.05 9.65 L25.7 9.7 25.65 10.45 25.7 10.55 26.5 10.4 26.4 9.95 26.05 9.65 M25.6 10.55 L25.65 10.45 25.5 10.3 25.45 10.45 25.45 10.65 25.6 10.55 25.7 10.55 25.75 11.75 25.65 12.1 25.85 12.25 25.95 12.3 25.85 12.4 25.3 13.05 24.95 13.75 25.0 13.9 25.35 14.35 25.9 14.0 26.25 13.65 26.15 13.0 26.25 12.65 26.65 13.25 26.25 13.65 26.85 14.0 26.75 14.3 26.2 14.65 25.45 14.45 25.35 14.35 24.95 14.45 24.25 14.25 24.05 13.8 23.6 13.85 23.65 13.75 23.5 13.85 23.3 13.8 22.95 13.75 22.25 13.65 22.2 13.65 22.55 13.5 22.95 13.75 23.75 13.4 23.8 12.9 23.8 12.75 M25.6 10.55 L25.6 10.6 25.45 11.35 25.45 11.45 M25.45 11.35 L25.45 10.65 25.35 10.8 24.95 11.5 M24.95 13.75 L24.85 13.45 24.85 13.4 24.6 13.55 24.05 13.8 24.0 13.5 23.95 13.5 23.65 13.75 23.75 13.4 23.95 13.3 23.95 13.25 24.0 12.6 24.85 11.65 M21.3 22.25 L21.2 16.75 M20.8 5.85 L16.95 5.65 15.45 5.75 15.05 5.85 14.2 6.4 12.35 8.05 12.15 8.5 12.7 8.9 13.7 8.8 13.9 8.65 15.15 7.35 15.55 7.05 17.55 6.35 19.2 6.25 19.55 6.3 M6.25 8.25 L6.45 7.85 M10.6 17.4 L10.45 17.35 7.2 15.65 6.25 14.8 5.55 14.0 5.4 13.5 5.3 11.25 5.45 9.9 5.6 9.45 6.15 8.45 M17.7 23.15 L17.8 17.9 M13.45 22.5 L13.45 18.0" fill="none" stroke="#ffffff" stroke-linecap="round" stroke-linejoin="round" stroke-width="2.0"/>
  </g>
</svg>
