<?xml version="1.0" encoding="UTF-8" standalone="no"?>
<svg xmlns:xlink="http://www.w3.org/1999/xlink" height="48.8px" width="158.75px" xmlns="http://www.w3.org/2000/svg">
  <g transform="matrix(1.0, 0.0, 0.0, 1.0, 79.4, 24.4)">
    <path d="M28.0 -7.85 Q22.5 -10.95 13.3 -8.25 -6.05 -2.55 -21.45 -7.55 -36.6 -12.45 -53.35 -6.95 -71.0 -1.15 -78.65 -16.8 L-78.7 -17.4 -78.3 -17.8 -77.75 -17.85 -77.3 -17.45 Q-70.2 -3.05 -53.8 -8.4 -36.6 -14.05 -21.05 -9.0 -6.0 -4.2 12.85 -9.7 22.8 -12.65 28.7 -9.1 34.7 -5.7 36.7 4.15 40.3 22.2 49.75 21.85 59.15 21.2 60.6 -1.65 61.35 -13.8 65.6 -19.1 69.85 -24.75 77.7 -23.25 L78.2 -22.95 78.3 -22.4 78.0 -21.9 77.4 -21.8 Q70.55 -23.1 66.75 -18.2 62.8 -13.1 62.1 -1.55 60.55 22.9 49.85 23.35 39.1 24.1 35.25 4.45 33.4 -4.65 28.0 -7.85" fill="#ffcc33" fill-rule="evenodd" stroke="none"/>
    <path d="M-76.25 -16.0 L-76.0 -16.0 -75.55 -15.9 -75.4 -15.7 -75.25 -15.5 -75.2 -15.35 -75.15 -15.15 -75.1 -14.95 -75.0 -14.75 -74.85 -14.55 -74.75 -14.4 -74.7 -14.2 -74.6 -14.05 -74.3 -13.85 -74.15 -13.65 -74.0 -13.45 -73.8 -13.25 -73.75 -13.1 -73.65 -12.9 -73.55 -12.75 -73.5 -12.75 -73.25 -12.7 -72.75 -12.6 -72.45 -12.4 -72.25 -12.2 -72.0 -12.0 -71.8 -11.85 -71.5 -11.65 -71.1 -11.45 -70.95 -11.25 -70.75 -11.1 -70.4 -10.7 -70.05 -10.35 -70.0 -10.15 -69.95 -9.95 -69.8 -9.75 -69.55 -9.6 -69.45 -9.4 -69.2 -9.2 -68.85 -9.0 -68.25 -8.8 -68.0 -8.7 -64.45 -8.05 -64.0 -7.95 -63.7 -7.75 -63.55 -7.6 -63.05 -7.4 -62.55 -7.2 -62.3 -7.0 -62.2 -6.85 -62.1 -6.65 -62.05 -6.45 -61.95 -6.3 -61.6 -6.1 -61.5 -5.9 -61.6 -5.7 -61.95 -5.7 -62.35 -5.7 -62.55 -5.6 -62.7 -5.55 -63.0 -5.45 -63.5 -5.6 -64.05 -5.75 -64.5 -5.7 -65.75 -5.85 -67.5 -5.85 -68.05 -5.95 -68.5 -6.05 -69.05 -6.2 -69.25 -6.35 -69.8 -6.45 -70.2 -6.65 -70.55 -6.85 -70.75 -7.0 -71.05 -7.2 -71.35 -7.4 -71.55 -7.6 -71.7 -7.7 -71.75 -7.75 -72.0 -7.8 -72.55 -7.95 -72.85 -8.15 -73.05 -8.35 -73.25 -8.5 -73.5 -8.9 -73.7 -9.25 -73.95 -9.45 -74.1 -9.65 -74.4 -10.05 -74.5 -10.2 -74.75 -10.4 -75.1 -10.6 -75.3 -10.75 -75.45 -10.95 -75.65 -11.3 -75.95 -11.7 -76.0 -11.9 -76.05 -12.1 -76.1 -12.25 -76.15 -12.45 -76.2 -12.65 -76.3 -12.85 -76.4 -13.0 -76.5 -13.2 -76.55 -13.4 -76.75 -13.6 -76.85 -13.75 -76.95 -13.95 -76.95 -14.15 -77.0 -14.3 -77.1 -14.5 -77.2 -14.7 -77.2 -14.9 -77.15 -15.1 -77.1 -15.25 -77.05 -15.45 -76.95 -15.65 -76.8 -15.85 -76.55 -15.95 -76.25 -16.0" fill="#663333" fill-opacity="0.2" fill-rule="evenodd" stroke="none"/>
    <path d="M-57.25 -7.15 L-56.95 -7.0 -56.8 -6.8 -56.75 -6.65 -56.8 -6.45 -56.95 -6.25 -57.2 -6.05 -57.3 -5.9 -57.4 -5.7 -57.5 -5.5 -57.7 -5.35 -58.05 -5.15 -58.4 -4.95 -58.6 -4.85 Q-60.8 -4.45 -63.0 -4.85 L-64.0 -4.95 -64.5 -5.1 -64.75 -5.2 -65.25 -5.35 -65.5 -5.45 Q-67.4 -5.85 -69.25 -6.6 -70.55 -7.1 -71.5 -8.05 L-72.05 -8.65 -72.35 -8.85 -72.7 -9.0 -72.85 -9.2 -73.05 -9.4 -73.2 -9.6 -73.3 -9.75 -73.35 -9.95 -73.35 -10.15 -73.35 -10.35 -73.35 -10.5 -73.35 -10.7 -73.3 -10.9 -73.1 -11.1 -72.95 -11.25 -72.75 -11.4 -72.6 -11.45 -72.25 -11.5 -71.75 -11.4 -71.45 -11.2 -71.05 -11.0 -70.85 -10.85 -70.5 -10.65 -70.25 -10.45 -70.05 -10.25 -69.9 -10.15 -69.55 -10.0 -69.2 -9.8 -69.0 -9.7 -68.75 -9.7 -67.1 -9.1 -65.0 -8.4 -58.75 -8.0 -58.25 -7.9 -58.0 -7.7 -57.8 -7.5 -57.75 -7.35 -57.7 -7.15 -57.5 -7.1 -57.25 -7.15" fill="#663333" fill-opacity="0.2" fill-rule="evenodd" stroke="none"/>
    <path d="M37.5 3.8 L37.6 4.0 37.65 4.2 37.7 4.35 37.75 4.55 37.8 4.75 37.85 4.9 37.95 5.1 38.05 5.3 38.1 5.5 38.1 5.7 38.2 5.85 38.3 6.05 38.35 6.25 38.35 6.45 38.35 6.6 38.35 7.0 38.35 7.35 38.35 7.75 38.35 7.9 38.45 8.1 38.55 8.3 38.6 8.5 38.6 8.7 38.7 8.85 38.8 9.05 38.85 9.25 38.85 9.45 38.85 9.6 38.85 9.8 38.85 10.2 38.85 10.35 38.85 10.55 38.95 10.75 39.0 10.95 39.05 11.1 39.05 11.3 39.15 11.5 39.35 11.7 39.55 11.85 39.6 12.05 39.7 12.25 39.8 12.45 40.1 13.4 40.75 14.55 41.4 15.6 41.6 16.0 41.65 16.2 41.65 16.35 41.7 16.55 41.7 16.75 41.65 16.9 41.55 17.1 41.4 17.3 41.2 17.45 41.1 17.5 40.8 17.55 40.45 17.5 40.05 17.35 39.6 17.2 39.1 16.55 38.6 15.85 38.1 15.1 37.9 14.75 37.85 14.55 37.8 14.35 37.65 14.15 37.6 14.0 37.45 13.8 37.35 13.6 37.15 13.25 37.1 13.05 37.05 12.85 36.85 12.7 36.7 12.5 36.6 12.3 36.55 12.1 36.55 11.95 36.55 11.75 36.45 11.55 36.35 11.35 36.3 11.2 36.3 11.0 36.25 10.8 36.25 10.6 36.2 10.25 36.2 10.05 36.15 9.85 36.1 9.7 36.05 9.5 35.9 9.1 35.8 8.75 35.7 8.55 35.7 8.35 35.7 8.2 35.7 8.0 35.7 7.6 35.7 7.25 35.7 6.85 35.55 6.3 35.3 5.55 35.1 5.0 34.85 4.25 34.7 4.05 34.6 3.85 34.5 3.7 34.4 3.5 34.35 3.3 34.3 3.1 34.3 2.95 34.3 2.75 34.3 2.55 34.2 2.35 34.15 2.2 34.1 2.0 33.95 1.8 33.8 1.6 33.65 1.4 33.6 1.25 33.55 1.05 33.55 0.85 33.55 0.7 33.55 0.5 33.45 0.3 33.35 0.1 33.3 -0.1 33.3 -0.25 33.3 -0.45 33.3 -0.65 33.2 -0.8 33.15 -1.0 33.1 -1.2 33.1 -1.4 32.95 -1.55 32.9 -1.75 32.85 -1.95 32.7 -2.15 32.55 -2.3 32.45 -2.5 32.4 -2.7 32.4 -2.9 31.8 -3.65 31.05 -4.6 30.15 -5.7 29.95 -5.9 29.9 -6.1 29.85 -6.25 29.8 -6.4 29.75 -6.4 29.55 -6.45 29.1 -6.6 28.95 -6.75 28.85 -6.95 28.85 -7.15 28.85 -7.3 28.95 -7.5 29.1 -7.7 29.4 -7.9 29.6 -8.0 29.7 -8.05 30.0 -8.1 30.05 -8.15 30.4 -8.0 30.65 -7.85 30.95 -7.65 31.2 -7.45 31.35 -7.25 31.4 -7.1 31.6 -6.9 31.8 -6.7 31.95 -6.5 32.3 -6.35 32.65 -5.8 33.4 -5.0 34.15 -4.25 34.35 -3.9 34.6 -3.5 35.0 -2.95 35.25 -2.6 35.35 -2.4 35.4 -2.2 35.45 -2.0 35.45 -1.8 35.6 -1.65 35.65 -1.45 35.7 -1.25 35.75 -1.1 35.8 -0.9 35.85 -0.7 35.95 -0.5 36.0 -0.3 36.05 -0.15 36.05 0.05 36.1 0.25 36.15 0.4 36.3 0.6 36.45 0.8 36.6 1.0 36.65 1.2 36.7 1.35 36.8 1.55 36.8 1.75 36.8 1.95 36.8 2.1 36.8 2.3 36.85 2.5 36.9 2.65 37.0 2.85 37.1 3.05 37.3 3.45 37.5 3.8" fill="#663333" fill-opacity="0.2" fill-rule="evenodd" stroke="none"/>
    <path d="M37.35 2.45 L37.35 2.6 37.35 2.8 37.35 3.0 37.45 3.2 37.55 3.35 37.6 3.55 37.7 3.75 37.8 3.95 37.85 4.1 37.9 4.3 37.9 4.5 37.9 4.7 37.95 5.05 37.95 5.45 37.95 5.8 38.05 6.0 38.1 6.2 38.15 6.35 38.2 6.55 38.3 6.75 38.3 6.95 38.3 7.1 38.3 7.3 38.35 7.5 38.45 7.85 38.6 8.25 38.7 8.6 38.8 8.8 38.9 9.0 38.95 9.2 39.05 9.35 39.1 9.55 39.1 9.75 39.1 9.95 39.1 10.1 39.85 11.45 40.65 12.95 41.4 14.25 41.55 14.6 41.65 15.0 41.85 15.55 41.95 15.95 42.5 16.65 43.5 17.6 44.05 18.35 44.9 19.0 46.35 19.7 46.55 19.85 46.85 20.0 46.9 20.05 47.3 20.2 47.6 20.35 47.85 20.5 48.7 20.8 48.95 21.0 49.1 21.2 49.15 21.35 49.2 21.55 49.2 21.75 49.15 21.95 49.05 22.1 48.9 22.3 48.55 22.5 48.3 22.6 48.15 22.7 47.85 22.75 47.65 22.8 46.8 22.95 46.2 22.8 45.9 22.6 45.6 22.45 45.4 22.25 45.1 22.05 44.8 21.9 44.35 21.7 44.15 21.5 44.0 21.4 43.65 21.3 43.45 21.25 43.05 21.25 42.45 21.1 42.1 20.95 41.7 20.75 40.95 20.05 40.1 19.1 39.35 18.1 38.75 17.55 38.2 16.8 37.8 16.05 37.75 15.85 37.7 15.7 37.7 15.3 37.75 14.95 37.8 14.75 37.85 14.55 37.95 14.35 38.05 14.2 38.0 14.0 37.9 13.8 37.8 13.6 37.7 13.45 37.6 13.05 37.4 12.5 37.0 11.9 36.85 11.75 36.8 11.55 36.7 11.35 36.6 11.15 36.55 11.0 36.5 10.8 36.45 10.6 36.45 10.45 36.35 10.25 36.3 10.05 36.25 9.85 36.15 9.5 36.05 9.1 36.05 8.95 35.9 8.75 35.85 8.55 35.8 8.35 35.8 8.2 35.8 7.8 35.8 7.45 35.8 7.25 35.75 7.05 35.65 6.85 35.6 6.65 35.6 6.3 35.6 5.75 35.6 5.35 35.6 5.2 35.55 5.0 35.45 4.8 35.4 4.6 35.4 4.45 35.4 4.25 35.4 4.05 35.35 3.85 35.2 3.7 35.2 3.5 35.2 3.3 35.2 3.1 35.2 2.95 35.2 2.75 35.1 2.55 35.05 2.35 35.0 2.2 34.95 2.0 34.85 1.8 34.8 1.6 34.7 1.45 34.65 1.25 34.6 1.05 34.6 0.85 34.5 0.7 34.4 0.5 34.3 0.3 34.2 0.1 34.15 -0.05 34.1 -0.25 34.05 -0.45 33.9 -0.65 33.9 -0.8 33.9 -1.0 33.85 -1.2 33.7 -1.4 33.6 -1.55 33.55 -1.75 33.45 -1.95 33.35 -2.15 33.35 -2.3 33.3 -2.5 33.2 -2.7 33.15 -2.9 33.2 -3.05 33.3 -3.25 33.4 -3.4 33.55 -3.45 33.75 -3.5 33.8 -3.5 34.1 -3.4 34.4 -3.2 34.55 -3.0 34.7 -2.85 34.85 -2.65 34.9 -2.45 35.05 -2.25 35.4 -1.9 35.55 -1.7 35.6 -1.5 35.6 -1.3 35.7 -1.15 35.85 -0.95 35.9 -0.75 35.95 -0.55 36.1 -0.4 36.3 -0.2 36.35 0.0 36.4 0.2 36.45 0.35 36.6 0.55 36.65 0.75 36.7 0.95 36.85 1.1 36.95 1.3 37.05 1.5 37.1 1.7 37.15 1.85 37.3 2.05 37.35 2.25 37.35 2.45" fill="#663333" fill-opacity="0.2" fill-rule="evenodd" stroke="none"/>
    <path d="M76.8 -21.6 L74.8 -21.65 74.35 -21.75 74.15 -21.95 74.05 -22.15 74.05 -22.35 74.05 -22.5 74.1 -22.7 74.25 -22.9 74.35 -23.0 74.5 -23.05 74.8 -23.15 75.15 -23.25 75.3 -23.45 75.5 -23.65 75.75 -23.75 76.05 -23.8 76.05 -23.85 77.8 -23.85 78.25 -23.7 78.45 -23.5 78.65 -23.3 78.8 -23.15 78.9 -22.95 79.0 -22.75 78.95 -22.6 78.9 -22.4 78.85 -22.2 78.75 -22.0 78.5 -21.85 77.9 -21.7 77.55 -21.6 76.8 -21.6" fill="#663333" fill-opacity="0.2" fill-rule="evenodd" stroke="none"/>
    <path d="M73.3 -23.65 L77.05 -23.55 78.0 -23.45 78.25 -23.25 78.35 -23.05 78.4 -22.9 78.45 -22.7 78.45 -22.5 78.4 -22.35 78.3 -22.15 78.15 -21.95 78.0 -21.85 77.85 -21.8 73.75 -21.5 73.1 -21.35 72.9 -21.2 72.55 -21.15 72.0 -21.25 71.65 -21.45 71.5 -21.65 71.35 -21.85 71.3 -22.0 71.3 -22.2 71.3 -22.4 71.4 -22.6 71.55 -22.75 71.6 -22.95 71.8 -23.15 72.05 -23.35 72.55 -23.45 72.8 -23.55 72.9 -23.6 73.3 -23.6 73.3 -23.65" fill="#663333" fill-opacity="0.2" fill-rule="evenodd" stroke="none"/>
    <path d="M62.05 -5.85 L62.5 -5.7 62.75 -5.5 62.85 -5.3 62.9 -5.15 62.95 -4.95 63.0 -4.75 63.0 -4.4 63.05 -4.0 63.05 -3.85 63.0 -3.65 63.0 -3.45 62.9 -3.25 62.85 -3.1 62.85 -2.9 62.85 -2.7 62.8 -2.5 62.75 -2.3 62.65 -2.15 62.6 -1.95 62.6 -1.75 62.6 -1.55 62.6 -1.2 62.6 -0.8 62.55 -0.65 62.5 -0.45 62.4 -0.25 62.4 -0.05 62.4 0.1 62.35 0.3 62.3 0.5 62.25 0.65 62.25 0.85 62.15 1.05 62.15 1.25 62.15 1.45 62.15 1.8 62.15 2.2 62.15 2.35 62.1 2.55 62.05 2.75 62.0 2.95 62.0 3.1 62.0 3.3 62.0 3.7 62.0 4.05 61.9 4.25 61.8 4.6 61.6 5.2 61.45 5.55 61.45 5.75 61.45 5.95 61.45 6.1 61.45 6.3 61.4 6.5 61.35 6.7 61.3 6.85 61.3 7.05 61.3 7.25 61.3 7.45 61.3 7.6 61.3 7.8 61.2 8.0 61.1 8.2 61.05 8.35 61.0 8.55 60.95 8.75 60.85 8.95 60.8 9.3 60.8 10.05 60.8 10.8 60.8 11.2 60.7 11.35 60.65 11.55 60.6 11.75 60.5 11.95 60.4 12.1 60.35 12.3 60.35 12.5 60.35 12.7 60.3 12.85 60.2 13.05 60.15 13.25 60.05 13.4 59.85 13.6 59.55 13.8 59.05 13.95 58.45 13.8 58.15 13.6 58.0 13.4 57.85 13.25 57.8 13.05 57.75 12.85 57.7 12.5 57.7 11.95 57.7 11.55 57.8 11.35 57.9 11.2 58.15 10.8 58.2 10.6 58.25 10.25 58.3 9.5 58.3 8.55 58.35 8.2 58.4 8.0 58.55 7.8 58.55 7.6 58.6 7.45 58.65 7.25 58.8 7.05 58.8 6.85 58.8 6.7 58.85 6.5 58.85 6.3 58.9 6.1 59.05 5.95 59.1 5.75 59.1 5.55 59.1 5.35 59.1 5.2 59.1 5.0 59.15 4.8 59.3 4.45 59.45 3.85 59.6 3.5 59.6 3.3 59.6 3.1 59.6 2.95 59.6 2.75 59.6 2.55 59.65 2.35 59.75 2.15 59.85 2.0 59.9 1.8 59.9 1.45 59.9 0.85 59.9 0.5 59.95 0.3 60.05 0.1 60.1 -0.1 60.1 -0.25 60.15 -0.45 60.25 -0.65 60.35 -0.8 60.35 -1.0 60.4 -1.2 60.45 -1.4 60.45 -1.55 60.45 -1.75 60.45 -2.15 60.45 -2.5 60.55 -2.7 60.6 -2.9 60.65 -3.1 60.8 -3.25 60.85 -3.45 60.9 -3.65 60.95 -3.85 61.05 -4.0 61.1 -4.2 61.1 -4.4 61.1 -4.6 61.1 -4.75 61.1 -4.95 61.1 -5.15 61.2 -5.3 61.35 -5.5 61.6 -5.7 62.05 -5.8 62.05 -5.85" fill="#663333" fill-opacity="0.2" fill-rule="evenodd" stroke="none"/>
    <path d="M61.85 -12.85 L61.9 -13.0 62.0 -13.2 62.05 -13.4 62.15 -13.6 62.55 -13.65 62.55 -13.7 62.85 -13.6 63.0 -13.4 63.1 -13.2 63.1 -13.0 63.05 -12.85 63.0 -12.65 63.0 -12.45 63.0 -12.25 63.0 -12.1 62.9 -11.9 62.8 -11.5 62.7 -11.15 62.6 -10.75 62.65 -9.45 62.75 -7.95 62.85 -6.85 62.85 -6.65 62.8 -6.45 62.75 -6.25 62.6 -5.9 62.6 -5.7 62.6 -5.5 62.6 -5.15 62.6 -4.75 62.55 -4.6 62.5 -4.4 62.4 -4.2 62.4 -2.9 62.45 -1.4 62.35 -0.05 62.25 0.1 62.05 0.5 61.75 0.85 61.3 1.0 60.8 0.85 60.55 0.7 60.45 0.5 60.35 0.3 60.2 0.1 60.15 -1.4 60.15 -3.1 60.2 -4.4 60.3 -4.6 60.35 -4.75 60.4 -4.95 60.45 -5.15 60.45 -5.35 60.45 -5.7 60.45 -6.1 60.45 -6.45 60.55 -6.65 60.6 -6.85 60.65 -7.0 60.8 -7.4 60.85 -8.35 60.95 -9.65 60.95 -10.75 61.05 -10.95 61.1 -11.15 61.15 -11.35 61.25 -11.5 61.35 -11.7 61.4 -11.9 61.5 -12.1 61.55 -12.25 61.65 -12.45 61.8 -12.65 61.85 -12.85" fill="#663333" fill-opacity="0.2" fill-rule="evenodd" stroke="none"/>
    <path d="M-78.5 -18.6 L-78.25 -18.6 -77.85 -18.45 -77.7 -18.25 -77.55 -18.1 -77.45 -17.9 -77.35 -17.7 -77.4 -17.55 -77.5 -17.35 -77.7 -17.15 -78.0 -17.0 -78.35 -17.15 -79.0 -17.35 -79.25 -17.5 -79.35 -17.7 -79.35 -17.9 -79.35 -18.05 -79.25 -18.25 -79.0 -18.45 -78.5 -18.55 -78.5 -18.6" fill="#e8decb" fill-opacity="0.2" fill-rule="evenodd" stroke="none"/>
    <path d="M-30.0 -11.7 L-29.6 -11.6 -29.25 -11.55 -28.75 -11.5 -28.3 -11.4 -27.3 -11.1 -27.0 -11.0 -26.55 -10.9 -26.35 -10.7 -26.15 -10.6 -26.0 -10.5 -24.55 -10.2 -22.85 -9.7 -22.55 -9.6 -22.0 -9.5 -21.65 -9.4 -21.5 -9.2 -21.4 -9.0 -21.35 -8.85 -21.45 -8.65 -21.55 -8.45 -21.75 -8.35 -22.0 -8.3 -22.55 -8.2 -22.65 -8.15 -23.0 -8.1 -23.5 -8.2 -23.75 -8.25 -24.75 -8.25 -25.15 -8.4 -26.9 -8.95 -28.15 -9.4 -29.25 -9.75 -29.75 -9.85 -30.15 -9.95 Q-36.25 -10.25 -42.3 -10.1 L-42.75 -9.95 -44.0 -9.95 -46.25 -10.1 -46.95 -10.0 -47.25 -9.9 -48.1 -9.85 -48.5 -9.7 -49.1 -9.7 -49.3 -9.6 -49.5 -9.55 -50.1 -9.5 -50.3 -9.4 -50.5 -9.35 -51.45 -9.2 -51.75 -9.1 -52.25 -9.15 -52.85 -9.05 -54.1 -8.7 -54.75 -8.6 -54.8 -8.65 -54.1 -8.95 -52.9 -9.35 -52.25 -9.65 -51.7 -9.75 -51.45 -9.9 -51.25 -9.95 -50.35 -10.1 -50.2 -10.2 -50.0 -10.25 -49.35 -10.4 -49.25 -10.5 -48.35 -10.7 -48.0 -10.8 -47.35 -10.95 -47.25 -11.05 -44.0 -11.4 -42.25 -11.6 -38.75 -11.65 -33.75 -11.7 -30.0 -11.7" fill="#e8decb" fill-opacity="0.2" fill-rule="evenodd" stroke="none"/>
    <path d="M-33.3 -11.95 L-33.3 -12.1 -33.15 -12.2 -32.9 -12.2 -32.5 -12.35 -32.25 -12.35 -32.25 -12.4 -32.0 -12.3 -31.9 -12.25 -31.25 -12.25 -30.85 -12.15 -29.5 -11.9 -28.9 -11.75 -25.9 -11.45 -23.85 -10.9 -23.5 -10.75 -19.2 -9.85 -16.2 -9.0 -13.25 -8.2 -10.75 -7.7 Q-4.45 -7.55 1.75 -7.7 L2.4 -7.7 2.9 -7.85 3.15 -7.9 3.4 -7.95 3.75 -8.0 4.25 -7.9 4.5 -7.7 5.1 -7.65 5.4 -7.65 5.6 -7.45 5.25 -7.1 4.95 -6.85 4.9 -6.7 4.8 -6.5 4.7 -6.35 4.6 -6.15 4.35 -5.95 4.15 -5.85 3.65 -5.7 3.4 -5.65 3.15 -5.55 2.75 -5.45 2.5 -5.25 2.35 -5.15 Q-4.3 -4.35 -10.95 -4.9 L-15.05 -5.55 -16.3 -5.85 -16.55 -5.95 -17.05 -6.1 -17.3 -6.2 -17.35 -6.25 -17.8 -6.4 -18.1 -6.6 -18.25 -6.7 -18.5 -6.75 -19.05 -6.9 -19.4 -7.05 -19.75 -7.2 -21.6 -7.6 -22.35 -7.8 -23.6 -7.95 -26.0 -8.4 -26.55 -8.5 -26.9 -8.7 -27.25 -8.85 -29.25 -9.15 -29.8 -9.25 -30.2 -9.65 -30.35 -9.85 -30.4 -10.0 -30.45 -10.2 -30.5 -10.4 -30.5 -10.6 -30.75 -10.75 -31.1 -10.9 -31.35 -11.0 -32.0 -11.1 -32.35 -11.2 -32.5 -11.4 -33.2 -11.8 -33.3 -11.95" fill="#e8decb" fill-opacity="0.2" fill-rule="evenodd" stroke="none"/>
    <path d="M-10.15 -7.5 L-10.05 -7.35 -9.95 -7.15 -9.85 -6.95 -9.8 -6.75 -9.8 -6.6 -9.85 -6.4 -9.9 -6.2 -10.0 -6.0 -10.1 -5.85 -10.35 -5.65 -10.6 -5.5 -13.75 -5.4 -16.05 -5.8 -17.0 -6.1 -19.05 -6.45 -19.9 -6.75 -21.05 -6.95 -22.3 -7.2 -23.05 -7.6 -23.8 -7.95 -24.55 -8.35 -24.7 -8.5 -24.85 -8.7 -25.0 -8.9 -25.1 -9.1 -25.15 -9.25 -25.25 -9.45 -25.3 -9.65 -25.3 -9.8 -25.35 -10.0 -25.35 -10.2 -25.3 -10.35 -25.15 -10.6 -24.85 -10.75 -24.6 -10.9 -24.25 -10.9 -24.25 -10.95 -23.85 -10.85 -23.5 -10.75 Q-22.45 -10.25 -21.4 -9.9 L-19.25 -9.25 -17.85 -8.75 -16.45 -8.45 -15.5 -8.2 -10.5 -7.7 -10.15 -7.5" fill="#e8decb" fill-opacity="0.2" fill-rule="evenodd" stroke="none"/>
    <path d="M30.3 -8.85 L30.45 -8.65 30.6 -8.45 30.7 -8.25 31.0 -8.05 31.45 -7.7 31.65 -7.5 31.8 -7.35 31.85 -7.15 31.9 -6.95 32.0 -6.75 32.1 -6.6 32.1 -6.4 32.1 -6.2 32.1 -6.0 32.1 -5.85 31.9 -5.8 31.55 -5.75 31.15 -5.9 30.6 -6.15 30.35 -6.35 29.9 -6.7 29.6 -6.9 29.35 -7.1 29.2 -7.25 29.1 -7.45 28.85 -7.65 28.0 -8.2 27.35 -8.6 27.1 -8.75 26.6 -8.95 25.55 -9.3 25.1 -9.45 24.85 -9.6 24.1 -10.0 23.95 -10.1 18.7 -10.2 18.3 -10.1 17.05 -10.15 16.15 -10.2 15.95 -10.1 15.8 -10.05 14.15 -10.1 13.95 -9.95 13.8 -9.9 13.1 -9.95 12.55 -9.75 11.95 -9.6 11.65 -9.6 11.8 -9.75 12.35 -9.95 13.15 -10.25 13.3 -10.35 13.85 -10.45 14.1 -10.65 15.8 -10.85 15.95 -10.95 16.05 -11.0 16.3 -11.05 18.4 -11.25 18.8 -11.35 22.3 -11.6 24.25 -11.5 25.4 -11.25 25.65 -11.1 26.05 -10.95 27.15 -10.6 27.9 -10.35 28.2 -10.15 28.9 -9.75 29.1 -9.6 29.45 -9.35 29.95 -9.0 30.3 -8.85" fill="#e8decb" fill-opacity="0.2" fill-rule="evenodd" stroke="none"/>
    <path d="M66.65 -21.6 L66.85 -21.75 67.0 -21.95 67.0 -22.15 67.1 -22.3 67.3 -22.5 67.5 -22.65 67.8 -22.65 67.8 -22.7 68.15 -22.6 68.4 -22.4 68.55 -22.2 68.6 -22.0 68.6 -21.85 68.6 -21.65 68.65 -21.45 68.65 -21.25 68.75 -21.1 68.85 -20.9 68.9 -20.7 68.95 -20.5 69.0 -20.35 69.0 -20.15 69.0 -19.95 68.9 -19.75 68.8 -19.6 68.55 -19.2 68.35 -19.0 68.05 -18.8 67.45 -18.45 67.1 -18.25 66.9 -18.05 66.8 -17.9 66.6 -17.5 66.5 -17.35 66.3 -17.2 66.15 -17.15 65.8 -17.1 65.3 -17.2 65.05 -17.4 64.85 -17.6 64.8 -17.75 64.7 -17.9 64.4 -18.1 64.25 -17.9 63.9 -17.85 64.0 -18.0 64.15 -18.2 64.15 -18.4 64.15 -18.6 64.15 -18.75 64.25 -18.95 64.4 -19.15 64.65 -19.35 64.8 -19.5 64.85 -19.7 64.9 -19.9 65.05 -20.05 65.25 -20.25 65.5 -20.45 65.6 -20.65 65.85 -21.0 Q66.2 -21.4 66.65 -21.6" fill="#e8decb" fill-opacity="0.2" fill-rule="evenodd" stroke="none"/>
    <path d="M67.55 -21.85 L68.05 -21.9 68.05 -21.95 68.55 -21.85 69.0 -21.75 69.25 -21.6 69.35 -21.4 69.45 -21.2 69.55 -21.0 69.5 -20.85 69.5 -20.65 69.4 -20.45 69.3 -20.25 69.1 -20.1 68.9 -19.95 68.5 -19.85 65.8 -17.65 Q64.8 -16.8 63.7 -16.1 L62.5 -14.95 62.4 -14.75 62.3 -14.6 62.1 -14.45 61.8 -14.4 61.35 -14.5 61.15 -14.7 61.05 -14.9 61.05 -15.1 61.05 -15.25 61.05 -15.45 61.05 -15.85 61.1 -16.2 61.15 -16.4 61.3 -16.6 61.35 -16.75 61.4 -16.95 63.55 -19.0 65.7 -20.5 66.9 -21.25 67.1 -21.45 67.3 -21.65 67.55 -21.85" fill="#e8decb" fill-opacity="0.2" fill-rule="evenodd" stroke="none"/>
    <path d="M12.7 -10.55 Q23.1 -13.65 29.3 -9.85 L29.25 -9.85 Q35.6 -6.35 37.6 4.0 40.85 20.9 49.4 20.85 L49.45 20.85 Q57.95 20.0 59.5 -1.65 60.4 -14.15 64.8 -19.6 L64.85 -19.6 Q69.45 -25.7 77.95 -24.05 78.6 -23.95 79.05 -23.4 L79.1 -23.3 Q79.45 -22.75 79.35 -22.05 L79.3 -21.9 78.75 -21.05 78.5 -20.85 77.3 -20.65 Q71.05 -21.85 67.55 -17.5 L67.55 -17.45 Q63.75 -12.5 63.0 -1.4 61.15 24.1 49.6 24.35 38.05 25.3 34.2 4.7 32.5 -3.85 27.5 -6.9 L27.5 -6.85 Q22.35 -9.75 13.65 -7.2 -6.05 -1.45 -21.65 -6.5 -36.4 -11.3 -52.85 -5.9 -71.35 0.15 -79.2 -16.25 -79.55 -16.95 -79.3 -17.6 -79.05 -18.35 -78.3 -18.6 L-78.25 -18.65 -77.05 -18.7 Q-76.4 -18.5 -76.05 -17.8 L-76.05 -17.75 Q-69.45 -4.2 -53.9 -9.25 -36.4 -15.0 -20.6 -9.85 -5.85 -5.15 12.7 -10.55 M28.0 -7.85 Q33.4 -4.65 35.25 4.45 39.1 24.1 49.85 23.35 60.55 22.9 62.1 -1.55 62.8 -13.1 66.75 -18.2 70.55 -23.1 77.4 -21.8 L78.0 -21.9 78.3 -22.4 78.2 -22.95 77.7 -23.25 Q69.85 -24.75 65.6 -19.1 61.35 -13.8 60.6 -1.65 59.15 21.2 49.75 21.85 40.3 22.2 36.7 4.15 34.7 -5.7 28.7 -9.1 22.8 -12.65 12.85 -9.7 -6.0 -4.2 -21.05 -9.0 -36.6 -14.05 -53.8 -8.4 -70.2 -3.05 -77.3 -17.45 L-77.75 -17.85 -78.3 -17.8 -78.7 -17.4 -78.65 -16.8 Q-71.0 -1.15 -53.35 -6.95 -36.6 -12.45 -21.45 -7.55 -6.05 -2.55 13.3 -8.25 22.5 -10.95 28.0 -7.85" fill="#333333" fill-rule="evenodd" stroke="none"/>
  </g>
</svg>
