<?xml version="1.0" encoding="UTF-8" standalone="no"?>
<svg xmlns:xlink="http://www.w3.org/1999/xlink" height="102.3px" width="103.75px" xmlns="http://www.w3.org/2000/svg">
  <g transform="matrix(1.0, 0.0, 0.0, 1.0, 51.85, 51.15)">
    <path d="M39.55 -31.3 L38.0 -31.9 38.25 -31.15 43.2 -27.15 44.5 -23.0 45.15 -22.95 Q50.15 -9.55 50.95 5.1 48.25 8.3 47.0 12.35 L46.0 15.45 47.45 14.8 Q46.3 22.8 41.15 29.65 L40.1 30.85 40.1 31.3 36.9 35.4 Q35.6 36.95 33.8 37.6 L33.6 38.2 29.9 42.3 Q24.35 45.65 17.9 47.45 0.0 52.15 -17.9 46.4 -20.0 45.65 -22.25 45.35 -26.65 42.9 -31.0 40.0 L-34.25 37.75 Q-39.65 33.5 -43.95 28.4 L-43.65 27.6 Q-48.75 16.4 -50.35 4.45 L-49.9 3.45 Q-51.3 -9.6 -45.8 -22.2 -45.35 -24.4 -42.9 -25.75 -40.25 -27.2 -40.65 -29.9 L-33.1 -38.9 -32.6 -38.8 Q-16.15 -51.75 4.15 -49.1 L16.35 -47.45 16.95 -48.05 31.3 -39.35 32.45 -39.25 39.55 -31.3" fill="#ab98a0" fill-rule="evenodd" stroke="none"/>
    <path d="M23.4 -39.5 L25.15 -38.6 26.65 -37.7 27.2 -36.8 27.75 -35.85 28.15 -34.9 28.75 -34.4 Q30.5 -33.45 32.2 -32.65 35.65 -31.05 38.7 -28.8 L39.3 -27.85 39.9 -26.95 41.05 -26.0 42.25 -25.0 42.85 -24.1 43.45 -23.2 43.7 -22.2 44.05 -21.3 44.3 -20.45 44.7 -18.65 45.5 -15.8 45.8 -14.9 45.8 -14.0 45.8 -13.05 45.8 -11.25 45.8 -7.55 45.7 -5.8 45.5 -4.85 45.15 -4.05 44.65 -3.1 44.65 -2.2 44.65 -1.25 44.65 -0.35 44.65 1.5 44.65 4.25 44.65 5.1 44.65 6.0 44.35 6.95 44.05 7.85 43.7 8.75 43.2 9.65 42.8 10.5 42.25 11.45 42.2 12.35 42.0 13.25 41.6 14.1 41.05 15.05 40.2 15.95 40.0 16.85 39.9 17.7 39.9 18.6 39.9 20.45 39.9 23.2 39.9 24.1 39.65 25.05 39.3 25.95 39.0 26.85 38.7 27.75 38.15 29.55 37.85 30.4 37.35 31.3 36.85 32.2 36.35 33.1 35.2 34.0 Q34.15 34.4 33.15 34.9 32.7 35.1 32.2 35.45 L29.85 35.95 28.7 36.55 27.2 36.8 24.6 37.35 Q23.05 37.7 21.65 38.2 L20.45 38.7 18.05 39.2 16.9 39.8 15.4 39.95 9.55 40.5 8.35 41.35 7.5 41.9 6.0 42.15 2.15 42.75 0.15 43.25 -10.5 42.9 -12.55 42.15 -14.35 41.25 -16.1 40.25 -17.85 39.25 -18.8 38.35 -20.25 37.4 -21.45 36.8 -22.3 36.5 -24.35 35.75 -25.55 34.75 -26.45 33.85 -27.3 32.9 -27.6 32.0 -27.95 31.05 -28.8 30.1 -30.2 28.35 -29.8 28.3 -29.6 28.3 -25.95 31.35 -20.35 36.1 -20.1 36.15 -19.9 36.2 -19.7 36.25 -19.45 36.4 -19.05 36.65 -18.6 36.8 -18.4 36.85 -18.2 36.8 -17.95 36.65 -17.75 36.65 -17.3 36.75 -17.1 36.85 -16.85 36.9 -16.65 36.9 -16.45 36.95 -16.35 36.85 -16.45 36.7 -16.65 36.65 -17.1 36.5 -17.55 36.35 -17.75 36.35 -17.9 36.0 -17.95 35.9 Q-19.5 35.15 -20.65 33.9 -23.35 31.05 -26.5 28.75 L-29.4 26.65 -29.5 26.55 -29.55 26.15 -29.7 25.95 -30.1 25.65 -30.75 25.15 -31.65 24.4 -32.1 23.95 -32.75 23.05 -33.6 22.05 -34.05 21.4 -34.25 21.2 -35.1 19.05 -35.3 17.7 Q-35.4 16.45 -35.1 15.3 L-35.0 14.45 -34.6 13.6 -34.15 12.65 -33.75 11.8 -33.3 10.85 -32.95 9.95 -33.3 9.1 -33.8 8.1 -34.0 7.15 -34.1 6.25 -34.1 5.35 -34.35 4.45 -34.7 3.5 -35.0 2.55 -35.3 1.7 -35.3 0.75 -35.3 -0.15 -35.3 -1.05 -35.35 -2.9 Q-35.45 -4.35 -35.0 -5.65 L-35.2 -6.55 -35.3 -7.45 -35.3 -8.4 -35.3 -9.3 -35.3 -11.1 -34.95 -11.95 -34.35 -12.85 -33.6 -13.85 -32.6 -15.5 Q-31.65 -17.05 -30.3 -18.25 L-29.9 -19.1 -29.45 -20.05 -29.0 -20.9 -28.0 -22.75 -27.0 -24.45 -26.8 -25.4 -26.7 -26.3 -26.65 -27.2 -26.45 -28.15 -26.05 -29.0 -25.2 -29.85 -24.35 -30.55 -23.75 -30.75 -21.75 -31.4 -19.65 -32.15 -17.25 -33.8 Q-11.4 -37.4 -4.65 -36.95 -1.2 -36.75 2.15 -36.95 L2.6 -37.8 3.35 -38.75 4.55 -39.2 8.1 -40.15 15.4 -40.8 21.35 -40.3 23.4 -39.5" fill="#663333" fill-opacity="0.2" fill-rule="evenodd" stroke="none"/>
    <path d="M20.4 -29.75 L20.65 -29.55 20.85 -29.25 21.1 -28.9 Q24.65 -25.85 26.8 -21.5 27.65 -19.75 28.8 -18.1 L29.45 -17.55 33.4 -13.95 33.7 -13.1 34.0 -12.2 34.95 -11.35 35.3 -10.5 35.85 -9.6 36.2 -8.75 36.45 -7.9 36.75 -7.05 36.75 -6.15 36.75 -5.3 36.75 -3.6 36.75 -1.9 36.75 -1.0 36.45 -0.15 36.2 0.7 35.7 1.45 35.45 1.75 Q35.35 3.7 35.65 5.7 L35.4 14.5 35.0 16.55 34.2 18.4 34.05 18.95 Q33.15 20.7 31.8 22.1 L30.65 23.5 29.5 25.25 29.3 25.45 29.1 25.7 28.85 25.9 28.65 26.25 28.45 26.6 28.0 27.35 27.6 27.65 27.15 28.1 26.5 28.7 26.25 28.75 26.05 28.8 25.85 28.8 25.4 28.8 25.2 28.8 24.95 28.85 24.75 28.9 24.55 29.0 24.3 29.15 24.1 29.2 23.9 29.3 23.65 29.45 23.45 29.5 23.25 29.55 23.0 29.8 22.8 29.95 22.6 30.1 22.4 30.1 22.15 30.1 21.95 30.15 21.75 30.3 21.5 30.3 21.3 30.3 20.85 30.3 20.45 30.3 20.15 30.3 18.8 30.9 17.85 31.75 16.95 32.65 15.05 34.3 13.25 35.75 12.6 36.0 10.1 36.6 8.9 37.2 7.3 37.45 2.35 38.05 1.15 38.9 0.2 39.5 -1.35 39.65 -7.55 39.8 -9.7 39.4 Q-18.15 38.85 -26.15 36.35 L-28.3 35.75 -29.55 34.9 Q-30.2 34.45 -30.85 34.15 -31.75 33.65 -32.7 33.2 L-33.45 32.25 Q-34.5 30.4 -36.1 28.9 -37.4 27.75 -38.15 26.25 -39.0 24.45 -40.2 22.9 L-41.05 21.95 -41.45 21.1 -42.05 20.3 -43.8 18.5 -45.4 16.8 -45.6 15.95 -45.7 13.35 -45.7 10.75 -45.8 8.15 Q-45.9 6.0 -45.4 3.9 L-46.0 3.0 -46.2 2.15 -46.35 1.3 -46.35 0.4 -46.35 -0.45 -45.95 -1.3 -45.4 -2.15 -45.2 -3.05 -45.1 -5.6 -45.1 -8.2 -45.1 -10.8 -45.1 -15.1 -44.9 -15.9 -43.2 -18.5 -40.8 -21.15 -38.9 -22.9 -37.35 -24.55 -37.35 -25.45 -37.35 -26.3 -36.65 -27.1 -34.85 -28.9 -32.0 -31.45 -30.8 -32.3 -30.2 -33.2 -28.9 -34.0 -27.45 -35.0 Q-25.55 -36.3 -23.4 -37.25 L-22.75 -37.5 -21.25 -37.8 -18.45 -38.4 -16.25 -38.95 -12.5 -38.85 -10.65 -38.65 -7.25 -39.0 -5.1 -39.35 -5.1 -39.5 4.85 -39.5 7.0 -38.95 7.9 -38.05 8.5 -37.2 8.9 -36.4 9.4 -36.4 10.05 -36.4 10.25 -36.35 10.7 -36.15 11.6 -35.55 Q12.05 -35.1 12.65 -34.75 L12.85 -34.45 13.1 -34.1 13.5 -33.6 13.7 -33.45 13.95 -33.45 14.15 -33.5 14.35 -33.6 14.6 -33.55 14.8 -33.5 15.0 -33.45 15.25 -33.35 15.45 -33.3 16.75 -32.15 18.1 -31.1 19.35 -30.2 19.55 -30.15 19.8 -30.05 20.0 -30.0 20.2 -29.9 20.4 -29.75" fill="#663333" fill-opacity="0.2" fill-rule="evenodd" stroke="none"/>
    <path d="M24.35 -37.3 L26.2 -36.35 28.35 -35.35 29.5 -34.45 30.55 -33.45 31.5 -32.45 32.7 -30.65 33.05 -29.7 33.1 -28.75 33.1 -27.8 34.25 -26.85 35.2 -25.85 35.7 -24.95 36.0 -24.0 36.2 -23.05 36.0 -22.1 36.6 -21.3 36.5 -21.15 36.5 -20.7 35.25 -22.05 Q34.55 -22.5 33.95 -23.05 L33.5 -23.75 33.1 -24.15 32.65 -24.45 32.45 -24.5 32.25 -24.6 32.0 -24.65 31.8 -24.8 31.6 -24.9 31.35 -25.0 31.15 -25.1 30.95 -25.1 30.75 -25.15 30.5 -25.3 29.85 -25.65 29.4 -26.05 28.75 -26.75 28.55 -26.9 28.35 -26.75 28.35 -26.6 28.4 -26.25 28.6 -25.8 29.05 -25.3 29.25 -25.1 29.7 -24.65 29.9 -24.55 30.15 -24.45 30.4 -24.2 30.55 -24.1 30.8 -24.1 31.0 -24.0 31.25 -23.8 31.45 -23.65 31.65 -23.6 31.85 -23.35 32.1 -23.15 32.3 -23.05 32.5 -22.95 32.65 -22.55 32.75 -22.45 33.1 -22.05 33.75 -21.35 34.4 -20.7 34.6 -20.6 34.85 -20.55 35.05 -20.25 35.25 -19.85 35.7 -19.2 35.85 -18.65 35.9 -18.3 36.05 -17.65 36.2 -17.45 36.6 -16.65 37.05 -15.8 37.3 -15.65 37.5 -15.5 37.65 -15.2 37.7 -15.0 37.8 -14.7 37.95 -14.2 38.0 -14.1 38.0 -13.65 38.4 -12.4 38.7 -11.6 38.95 -10.95 39.15 -10.8 39.3 -10.45 39.35 -10.0 39.45 -9.6 39.5 -9.45 39.6 -9.45 39.65 -10.0 39.6 -10.45 39.65 -10.95 39.8 -11.3 39.75 -11.6 39.65 -11.9 39.65 -12.5 39.4 -13.7 39.0 -15.35 38.35 -18.25 38.2 -18.55 38.05 -19.1 37.9 -19.75 38.8 -18.25 Q39.55 -16.75 40.7 -15.45 L42.15 -13.5 43.35 -11.65 43.6 -10.7 43.75 -9.8 43.75 -8.8 43.75 -7.85 43.35 -6.95 42.95 -6.0 42.6 -5.05 42.2 -4.1 42.2 -3.15 42.2 -2.2 42.2 -1.25 42.2 -0.3 41.9 0.65 41.5 1.6 41.15 2.55 40.35 3.45 39.3 4.45 38.85 5.4 38.2 6.3 37.45 7.25 36.4 8.25 35.95 9.15 34.55 11.1 32.3 13.85 31.25 14.85 30.2 15.85 29.8 16.7 28.75 18.65 Q27.7 20.3 26.2 21.55 L25.05 22.45 24.0 23.4 22.15 24.35 20.4 25.3 18.85 26.25 17.8 26.85 15.95 27.0 Q9.25 26.7 2.8 28.1 L-4.45 28.1 -7.0 27.5 -8.45 26.55 -9.6 25.6 -11.05 25.0 -13.2 25.6 -17.65 25.6 -20.1 24.9 -22.3 24.0 -24.15 23.1 -25.3 22.15 -26.35 21.2 -27.45 20.25 -28.2 19.3 -28.45 18.3 -28.55 17.4 -28.55 16.45 Q-28.55 15.95 -28.85 15.65 L-30.05 14.55 -33.3 13.6 -34.75 12.65 -35.4 11.7 -36.0 10.85 -37.55 8.8 -38.8 6.95 -39.45 6.0 -39.9 5.05 -40.1 4.1 Q-40.2 1.75 -40.95 -1.05 -41.75 -3.9 -41.2 -5.25 -40.7 -6.6 -40.35 -9.35 -40.0 -12.1 -39.95 -14.15 -39.9 -16.25 -39.65 -16.6 -38.15 -18.8 -35.9 -20.6 -34.0 -22.15 -32.7 -24.2 L-31.25 -26.3 -30.05 -28.1 -29.7 -29.05 -29.65 -30.0 -29.65 -30.95 -29.45 -31.85 -28.95 -32.85 -27.7 -34.65 -26.0 -36.65 -24.9 -37.55 Q-24.0 -38.05 -23.05 -38.5 L-18.7 -40.4 -15.05 -42.0 -13.2 -42.3 -4.45 -43.45 -4.45 -43.6 11.6 -43.6 13.8 -43.0 15.25 -42.0 15.9 -41.0 16.35 -40.15 16.45 -39.75 18.8 -39.0 21.85 -38.0 24.35 -37.3" fill="#663333" fill-opacity="0.2" fill-rule="evenodd" stroke="none"/>
    <path d="M0.55 -25.0 L0.3 -24.95 0.1 -24.85 -0.1 -24.8 -0.75 -24.8 -1.4 -24.8 -2.05 -24.75 -2.4 -24.7 -2.05 -25.05 -0.1 -26.05 1.2 -26.7 1.85 -27.05 12.45 -27.75 14.15 -28.0 16.45 -27.35 18.1 -26.35 19.4 -25.4 19.8 -24.4 20.15 -23.45 20.5 -22.45 20.95 -21.65 22.5 -20.5 24.15 -19.5 25.15 -18.55 25.65 -17.65 Q26.2 -16.55 26.95 -15.7 L29.9 -12.65 31.9 -10.7 Q32.05 -10.2 32.35 -9.75 L32.95 -8.75 33.25 -7.75 33.55 -6.75 33.9 -6.3 33.9 -6.25 34.25 -4.9 34.35 -4.75 34.5 -4.45 34.7 -4.0 34.9 -3.5 35.1 -2.35 35.15 -2.0 35.3 -1.7 35.45 -1.4 35.45 1.4 35.3 1.95 35.2 2.7 35.1 2.95 34.7 4.05 34.4 5.15 34.4 5.7 34.4 6.0 34.35 6.15 34.2 6.45 34.0 6.85 33.85 7.45 33.7 8.0 32.9 10.0 32.6 11.35 32.45 11.7 32.25 12.25 32.1 12.9 32.1 13.8 Q31.75 14.9 31.7 16.1 L31.4 17.3 31.15 17.45 30.05 18.35 28.85 19.85 27.8 21.25 27.0 21.0 26.1 21.65 25.05 22.65 24.65 23.6 24.05 24.55 23.45 25.6 22.45 26.2 21.8 26.5 19.15 27.2 18.15 28.2 14.5 29.95 Q13.05 30.55 11.75 31.35 L11.65 31.3 11.4 31.25 11.2 31.25 10.1 31.25 9.05 31.2 8.15 31.3 7.95 31.45 7.75 31.55 7.5 31.65 7.3 31.8 7.1 31.8 4.7 31.9 1.7 32.0 -0.7 32.15 -0.7 31.8 -0.75 31.5 -1.0 31.7 -1.2 31.9 -1.35 32.25 -1.3 32.25 -1.25 32.45 -1.1 32.65 -0.9 32.85 -0.7 32.9 1.9 33.1 5.15 33.25 7.95 33.2 8.2 33.05 8.4 33.0 8.6 32.95 8.8 32.9 9.05 32.75 9.25 32.65 9.75 32.65 9.25 33.05 8.0 34.1 5.65 34.7 2.7 35.4 0.35 36.0 -4.95 36.0 -7.25 35.25 -9.25 34.35 Q-10.1 33.9 -10.9 33.4 L-12.9 31.4 Q-15.1 29.05 -17.85 27.35 L-20.3 25.6 -20.75 24.6 -21.35 23.6 -22.0 22.7 -23.0 21.6 -23.45 20.7 -23.95 19.65 -24.45 18.75 -25.0 17.7 -25.4 16.75 -25.75 15.8 -26.1 14.75 -26.1 13.8 -26.15 12.85 -26.15 11.8 -26.15 9.9 -26.2 8.95 -26.3 7.95 -26.8 6.95 -26.9 6.9 -27.2 5.35 -27.35 4.8 -28.3 0.25 -28.3 -4.4 -28.0 -5.05 -27.75 -5.6 -27.15 -7.1 -25.35 -9.95 -24.9 -11.05 -23.8 -11.7 -22.4 -12.3 -21.8 -12.65 -20.1 -13.05 -18.45 -13.65 -18.5 -14.65 -18.5 -15.6 -18.5 -16.55 -18.5 -17.55 -18.55 -18.55 -18.1 -19.45 -17.2 -20.4 -13.95 -22.45 -12.65 -23.1 -10.95 -23.35 -6.45 -23.8 -6.6 -23.75 -7.7 -23.5 -7.9 -23.35 -8.15 -23.3 -8.8 -22.7 -9.2 -22.5 -9.65 -22.25 -10.1 -21.8 -10.5 -21.55 -10.95 -21.35 -11.15 -21.05 -11.35 -20.9 -11.6 -20.75 -11.8 -20.6 -11.8 -20.55 -11.8 -20.4 -11.75 -20.4 -11.6 -20.4 -11.35 -20.55 -11.15 -20.6 -10.95 -20.85 -10.75 -20.9 -10.5 -21.05 -10.3 -21.15 -10.05 -21.25 -9.85 -21.35 -9.65 -21.4 -9.4 -21.55 -9.2 -21.65 -9.0 -21.75 -8.8 -21.85 -8.55 -22.0 -8.35 -22.05 -8.15 -22.15 -7.9 -22.35 -7.7 -22.45 -7.5 -22.55 -7.25 -22.6 -7.05 -22.65 -6.85 -22.65 -6.6 -22.65 -6.4 -22.65 -6.15 -22.75 -5.95 -22.85 -5.3 -22.8 -4.65 -22.75 -4.0 -22.7 -3.35 -22.8 -3.15 -22.9 -2.95 -22.95 -2.7 -23.0 -2.55 -23.05 -2.25 -23.2 -2.05 -23.3 -1.65 -23.25 -1.0 -23.2 -0.35 -23.2 0.3 -23.2 0.55 -23.3 0.75 -23.35 0.95 -23.4 1.15 -23.5 1.6 -23.5 1.8 -23.5 2.05 -23.5 2.25 -23.5 2.45 -23.5 2.9 -23.65 3.75 -23.75 4.85 -23.8 5.7 -23.8 6.4 -23.35 6.8 -23.1 7.45 -23.0 7.65 -22.95 7.9 -22.8 8.1 -22.65 8.3 -22.5 8.55 -22.5 8.75 -22.65 8.65 -23.15 8.45 -23.3 8.25 -23.5 8.0 -23.65 7.9 -24.05 7.65 -24.35 7.0 -24.7 6.6 -25.0 5.95 -25.35 5.5 -25.35 4.2 -25.35 3.1 -25.3 2.05 -25.1 1.6 -25.1 1.4 -25.1 1.15 -25.1 0.95 -25.1 0.75 -25.1 0.55 -25.0 M-25.4 -16.9 L-25.3 -16.75 -25.25 -16.45 -25.15 -15.6 -25.15 -14.8 -25.3 -14.3 -25.55 -13.8 -25.95 -13.0 -26.15 -12.7 -26.4 -12.65 -26.6 -12.65 -26.8 -12.65 -27.05 -12.65 -27.45 -12.7 -28.1 -12.7 -28.3 -12.8 -28.55 -12.85 -28.75 -12.85 -28.95 -13.0 -29.2 -13.15 -29.4 -13.3 -29.55 -13.5 -29.6 -13.85 -29.6 -15.0 -29.45 -15.55 -29.35 -15.95 -29.2 -16.4 -28.95 -16.7 -28.75 -16.8 -28.55 -16.95 -28.3 -17.1 -28.1 -17.25 -27.9 -17.25 -27.65 -17.25 -27.25 -17.25 -26.6 -17.25 -25.75 -17.1 -25.5 -17.0 -25.4 -16.9 M-7.65 9.8 L-7.85 9.7 -8.05 9.55 -8.3 9.4 -8.5 9.4 -8.95 9.35 -9.35 9.35 -9.6 9.35 -9.8 9.5 -10.0 9.65 -10.15 10.0 -10.1 10.0 -10.1 10.3 -9.95 10.5 -9.7 10.6 -9.5 10.65 -9.35 11.45 -9.3 11.75 -9.15 11.95 -8.9 12.1 -8.7 12.15 -8.5 12.15 -8.3 12.05 -8.05 11.85 -7.95 11.45 -7.8 11.1 -7.7 11.0 -7.5 10.8 -7.35 10.35 -7.4 10.05 -7.5 9.95 -7.65 9.8 M-4.35 -23.95 L-4.45 -23.95 -5.3 -23.9 -4.35 -23.95 M-30.25 -2.9 L-30.3 -2.65 -30.3 -2.85 -30.25 -2.9" fill="#663333" fill-opacity="0.2" fill-rule="evenodd" stroke="none"/>
    <path d="M0.3 38.0 L0.5 38.2 0.65 38.4 0.75 38.65 0.8 38.85 0.8 39.05 0.8 39.3 0.8 39.5 0.8 39.95 0.8 40.15 0.75 40.35 0.6 40.6 0.45 40.8 0.25 41.0 0.05 41.15 -0.1 41.2 -0.55 41.35 -0.75 41.6 -0.9 41.8 -1.1 42.0 -1.65 42.15 -4.8 42.15 -5.3 42.05 -7.35 41.75 -7.6 41.5 -7.75 41.3 -7.85 41.1 -7.85 40.85 -7.8 40.65 -7.75 40.45 -7.6 40.2 -7.45 40.0 -7.4 39.75 -7.4 39.55 -7.45 39.35 -7.45 39.15 -7.45 38.9 -7.45 38.7 -7.4 38.5 -7.25 38.3 -7.05 38.05 -6.55 37.9 -5.9 37.75 -5.4 37.6 -4.15 37.6 -4.15 37.55 -1.05 37.55 -0.55 37.7 -0.2 37.85 0.3 38.0" fill="#663333" fill-opacity="0.2" fill-rule="evenodd" stroke="none"/>
    <path d="M38.15 28.1 L38.55 28.25 38.7 28.45 38.75 28.7 38.75 28.9 38.65 29.1 38.55 29.35 38.4 29.55 38.15 29.7 37.9 29.75 37.5 29.9 37.4 30.1 37.0 30.35 36.25 30.8 36.1 30.9 35.55 31.0 34.15 31.15 33.65 31.0 33.3 31.05 33.25 31.2 33.2 31.4 33.05 31.65 32.9 31.85 32.6 32.05 Q31.1 32.35 29.65 32.8 L29.3 32.95 29.0 33.15 28.6 33.35 28.2 33.6 28.05 33.8 27.9 34.0 27.7 34.25 27.55 34.4 27.45 34.45 27.0 34.6 26.8 34.75 25.5 35.15 24.4 35.75 23.8 35.8 23.4 36.0 22.9 36.2 22.4 36.05 22.25 35.8 22.15 35.6 22.1 35.4 22.15 35.2 22.25 34.95 22.4 34.75 22.8 34.5 23.2 34.3 23.3 34.1 24.1 33.65 25.25 33.0 25.5 32.8 25.5 32.55 25.5 32.35 25.55 32.15 25.55 31.9 25.65 31.75 26.15 31.3 26.5 31.05 26.7 30.85 27.3 30.45 27.7 30.2 27.95 30.0 28.15 29.75 28.45 29.55 30.25 29.05 30.95 28.8 34.15 28.95 34.55 29.1 35.0 29.25 35.45 29.25 35.5 29.2 36.0 29.05 36.35 28.8 36.6 28.7 37.15 28.5 38.15 28.15 38.15 28.1" fill="#663333" fill-opacity="0.2" fill-rule="evenodd" stroke="none"/>
    <path d="M20.4 3.15 L20.5 3.0 20.6 2.95 20.85 2.9 20.85 2.85 21.25 3.0 21.3 3.25 21.35 3.45 21.35 3.65 21.6 3.9 21.7 4.1 21.8 4.3 21.75 4.75 21.65 5.15 21.5 5.6 21.45 5.8 20.25 7.05 17.9 8.35 17.75 8.4 17.4 8.5 16.9 8.65 16.9 8.85 16.9 9.05 16.9 9.3 16.8 9.5 16.55 9.95 16.45 10.15 16.45 10.35 16.55 11.45 16.55 12.75 16.45 14.05 16.15 14.7 15.7 15.35 15.1 16.0 14.75 16.2 14.55 16.45 14.35 16.65 14.0 17.05 13.75 17.3 13.5 17.45 12.95 17.55 12.8 17.8 12.5 18.0 11.7 18.45 11.5 18.6 Q9.1 19.65 6.45 19.45 L5.95 19.3 5.75 19.15 Q4.05 18.9 2.35 19.1 L-0.35 19.5 -0.75 19.65 -1.05 19.6 -1.5 19.45 -1.6 19.25 -1.7 19.0 -1.7 18.8 -1.6 18.6 -1.5 18.45 -1.35 18.4 -0.9 18.2 -0.6 18.1 -0.5 18.0 -0.2 17.95 0.3 17.75 0.6 17.65 0.95 17.6 1.75 17.45 2.05 17.3 6.95 17.0 7.15 16.85 7.4 16.65 7.6 16.5 10.35 15.7 12.05 15.05 12.3 14.85 12.65 14.65 13.1 14.4 13.3 14.2 13.5 13.95 13.85 13.75 14.0 13.55 14.15 13.3 14.1 13.15 13.8 12.9 13.6 12.65 13.45 12.45 13.4 12.25 13.35 11.8 13.35 11.6 13.35 11.35 13.35 11.15 13.3 10.95 13.15 10.7 13.0 10.5 12.95 10.3 12.85 10.1 12.8 9.85 12.8 9.65 12.8 9.45 12.8 9.2 12.9 9.0 13.0 8.8 13.15 8.55 13.5 8.35 13.65 8.15 13.65 7.9 13.65 7.7 13.75 7.5 13.9 7.25 14.1 7.05 14.45 6.85 14.75 6.7 17.05 6.15 17.55 5.95 18.2 5.6 19.3 5.1 19.55 4.9 19.75 4.65 19.85 4.45 19.95 4.25 20.05 4.05 20.2 3.8 20.35 3.6 20.35 3.35 20.4 3.15" fill="#663333" fill-opacity="0.2" fill-rule="evenodd" stroke="none"/>
    <path d="M25.35 -6.5 L25.5 -6.3 25.5 -6.1 25.55 -5.85 25.65 -5.65 25.6 -5.45 25.5 -5.2 25.35 -5.0 25.2 -4.8 25.0 -4.55 24.9 -4.15 24.9 -3.7 24.85 -3.25 24.85 -2.6 24.7 -2.4 24.55 -2.2 24.45 -1.95 24.2 -1.75 23.8 -1.75 23.6 -1.95 23.65 -2.2 23.7 -2.4 23.75 -2.6 23.8 -2.85 23.8 -3.05 23.75 -3.5 23.75 -3.9 23.75 -4.35 23.7 -4.55 23.6 -4.8 23.55 -5.0 23.4 -5.2 23.2 -5.45 22.95 -5.65 22.8 -5.85 22.8 -6.1 22.8 -6.3 22.8 -6.5 22.8 -6.75 22.8 -6.95 22.9 -7.15 23.05 -7.35 23.25 -7.6 23.75 -7.7 23.75 -7.75 24.05 -7.75 24.45 -7.6 24.75 -7.35 24.9 -7.15 25.1 -6.95 25.25 -6.7 25.35 -6.5" fill="#663333" fill-opacity="0.2" fill-rule="evenodd" stroke="none"/>
    <path d="M-19.0 17.45 L-18.7 17.65 -18.6 17.85 -18.5 18.05 -18.35 18.3 -18.0 18.5 -17.65 18.75 -17.3 18.95 -16.85 19.1 -14.05 19.15 -13.6 19.3 -13.3 19.5 -12.9 19.65 -12.35 19.8 -12.15 20.05 -12.0 20.25 -11.9 20.45 -11.8 20.7 -11.45 21.1 -11.3 21.3 -11.15 21.55 -10.95 21.95 -10.6 22.2 -10.3 22.4 -10.05 22.8 -9.75 23.3 -9.5 23.7 -9.35 24.15 -8.85 24.15 -7.95 23.95 -7.25 23.7 -6.9 23.5 -6.75 23.3 -6.55 23.05 -6.3 22.85 -6.1 22.6 -5.65 22.4 -5.4 22.25 -3.95 21.95 -2.7 21.7 -2.4 21.45 -1.9 21.3 -1.5 21.3 -1.05 21.25 -0.7 21.4 -0.55 21.6 -0.5 21.85 -0.45 22.05 -0.4 22.25 -0.4 22.5 -0.5 22.7 -0.55 22.9 -0.75 23.1 -1.0 23.25 -1.4 23.4 -1.55 23.6 -1.75 23.85 -1.9 24.0 -2.05 24.05 -2.7 24.2 -2.95 24.35 -4.6 24.55 -4.75 24.8 -4.8 25.0 -4.95 25.45 -5.0 25.65 -5.1 25.85 -5.15 26.1 -5.3 26.3 -5.45 26.5 -5.65 26.7 -5.95 26.95 -7.4 27.25 -9.4 27.4 -10.0 27.25 -10.2 27.1 -10.55 27.0 -11.15 26.9 -12.45 26.25 -13.65 25.6 -13.8 25.35 -14.55 24.7 -15.15 24.05 -15.4 23.65 -15.45 23.2 -15.45 23.0 -15.45 22.75 -15.45 22.35 -15.45 22.1 -15.55 21.9 -15.7 21.7 -15.85 21.55 -17.5 21.4 -18.4 21.0 -19.3 20.6 -19.65 20.2 -20.15 19.75 -20.75 19.1 -20.8 18.85 -20.8 18.65 -20.8 18.45 -20.8 18.25 -20.75 18.0 -20.65 17.8 -20.45 17.55 -20.5 17.4 -20.65 17.15 -20.8 16.95 -20.9 16.7 -20.95 16.5 -21.05 16.25 -21.1 16.05 -21.0 15.85 -20.85 15.75 -20.65 15.7 -20.5 15.7 -20.25 15.9 -19.9 16.3 -19.45 16.8 -19.15 17.2 -19.0 17.45" fill="#663333" fill-opacity="0.2" fill-rule="evenodd" stroke="none"/>
    <path d="M-40.15 8.4 L-39.85 8.35 -39.4 8.2 -39.05 8.35 -38.9 8.55 -38.8 8.8 -38.7 9.0 -38.6 9.2 -38.15 9.65 -37.8 10.1 -37.7 10.3 -37.65 10.5 -37.6 10.7 -37.6 10.95 -37.6 11.15 -37.6 11.35 -37.6 11.6 -37.45 11.8 -37.25 12.05 -37.1 12.25 -37.0 13.95 -37.05 15.7 -37.05 17.85 -36.95 18.75 -36.85 18.95 -36.6 19.4 -36.4 19.8 -36.25 20.05 -36.15 20.25 -36.1 20.45 -35.95 20.7 -35.85 20.9 -35.75 21.1 -35.75 21.3 -35.45 21.55 -35.05 22.0 -34.9 22.2 -34.8 22.4 -34.9 22.6 -34.95 22.75 -35.0 22.85 -35.3 22.9 -35.65 22.75 -35.9 22.55 -36.1 22.35 -36.4 22.1 -36.55 22.05 -37.05 21.9 -37.4 21.45 -37.95 20.8 -38.4 20.15 -38.55 19.95 -38.6 19.75 -38.7 19.5 -38.75 19.3 -38.85 19.1 -38.9 18.85 -38.9 17.55 -38.9 16.3 -38.9 14.55 -38.9 13.45 -39.0 13.25 -39.35 12.8 -39.45 12.6 -39.55 12.4 -39.65 12.25 -39.7 12.2 -40.0 12.1 -40.8 11.9 -41.0 11.65 -41.15 11.45 -41.4 11.2 -41.85 10.75 -42.1 10.35 -42.25 10.15 -42.3 9.95 -42.35 9.7 -42.6 9.5 -42.8 9.3 -42.85 9.05 -42.85 8.85 -42.85 8.4 -42.85 8.2 -42.85 8.0 -42.8 7.8 -42.6 7.55 -42.35 7.4 -42.0 7.35 -41.6 7.5 -41.35 7.7 -41.2 7.9 -41.05 8.05 -40.7 8.2 -40.5 8.35 -40.15 8.4" fill="#663333" fill-opacity="0.2" fill-rule="evenodd" stroke="none"/>
    <path d="M-46.9 10.2 L-46.35 10.2 -45.9 10.35 -45.6 10.6 -45.4 10.8 -45.25 11.0 -45.2 11.25 -45.0 11.45 -44.8 11.65 -44.75 12.1 -44.7 12.95 -44.65 14.05 -44.55 14.9 -44.45 15.1 -44.3 15.35 -44.25 15.55 -44.25 15.75 -44.25 16.0 -44.15 16.2 -44.1 16.4 -43.95 16.65 -43.75 17.05 -43.5 17.5 -43.3 17.95 -43.25 18.15 -43.15 18.35 -43.1 18.6 -43.1 18.8 -43.1 19.0 -43.1 19.25 -43.15 19.45 -43.25 19.65 -43.4 19.9 -43.5 20.05 -43.65 20.1 -44.05 20.15 -44.55 20.05 -44.75 19.8 -44.9 19.6 -44.95 19.4 -45.0 19.15 -45.05 18.95 -45.25 18.75 -45.35 18.5 -45.45 18.3 -45.55 18.1 -45.55 17.85 -45.65 17.65 -45.75 17.4 -45.85 17.2 -45.95 17.0 -46.05 16.8 -46.1 16.55 -46.1 16.35 -46.2 16.15 -46.35 15.9 -46.4 15.7 -46.4 15.5 -46.4 15.25 -46.5 15.05 -46.6 14.85 -46.7 14.6 -46.7 14.4 -46.7 13.95 -46.7 13.55 -46.7 13.1 -46.7 12.9 -46.75 12.7 -46.85 12.45 -47.0 12.25 -47.0 12.15 -47.4 11.95 -47.6 11.75 -47.75 11.5 -47.85 11.3 -47.85 11.1 -47.8 10.9 -47.7 10.65 -47.5 10.45 -47.25 10.3 -46.9 10.25 -46.9 10.2" fill="#663333" fill-opacity="0.2" fill-rule="evenodd" stroke="none"/>
    <path d="M-40.15 22.6 L-40.15 23.25 -40.15 23.9 -40.15 24.35 -40.15 24.55 -40.0 24.7 -39.55 24.85 -39.35 25.05 -39.1 25.3 Q-38.9 25.4 -38.75 25.55 L-38.6 25.7 -38.6 25.95 -38.7 26.15 -38.8 26.25 -39.05 26.35 -39.5 26.3 -40.0 26.4 -40.85 26.5 -41.35 26.35 -41.95 26.15 -42.25 25.95 -42.35 25.7 -42.4 25.3 -42.45 24.65 -42.4 24.2 -42.35 24.0 -42.35 23.8 -42.5 23.55 -42.8 23.35 -42.95 23.15 -43.25 22.9 -43.45 22.7 -43.65 22.25 -43.9 22.05 -44.25 21.8 -44.55 21.6 -44.7 21.4 -44.8 21.2 -45.1 20.95 -45.4 20.75 -45.85 20.3 -46.25 20.1 -46.55 19.9 -46.7 19.65 -46.75 19.45 -46.75 19.25 -46.75 19.0 -46.75 18.8 -46.7 18.6 -46.6 18.4 -46.4 18.15 -46.1 18.0 -45.85 17.85 -45.95 17.65 -46.05 17.45 -46.05 17.2 -46.2 17.0 -46.25 16.8 -46.25 16.55 -46.25 16.35 -46.25 16.15 -46.35 15.9 -46.45 15.7 -46.7 15.25 -46.85 15.05 -46.9 14.85 -46.9 14.6 -46.9 14.4 -46.9 14.2 -46.95 14.0 -47.05 13.75 -47.15 13.55 -47.2 13.3 -47.2 13.1 -47.2 12.65 -47.2 12.25 -47.15 12.05 -47.05 11.8 -46.85 11.6 -46.35 11.45 -45.9 11.35 -45.75 11.25 -45.5 11.2 -45.45 11.15 -45.2 11.25 -44.85 11.4 -44.75 11.6 -44.7 11.8 -44.7 12.0 -44.8 12.25 -44.75 12.45 -44.75 12.65 -44.75 12.9 -44.75 13.1 -44.75 13.3 -44.65 13.55 -44.45 13.95 -44.25 14.4 -44.05 14.85 -43.95 15.05 -43.95 15.25 -43.95 15.5 -43.85 15.7 -43.75 15.9 -43.7 16.15 -43.7 16.35 -43.65 16.55 -43.5 16.8 -43.45 17.0 -43.4 17.2 -43.4 17.45 -42.7 18.05 -41.85 18.95 -41.7 19.15 -41.65 19.4 -41.65 19.6 -41.65 19.8 -41.65 20.05 -41.6 20.25 -41.5 20.45 -41.45 20.7 -41.35 20.9 -40.85 21.3 -40.3 22.0 -40.2 22.2 -40.15 22.6" fill="#663333" fill-opacity="0.2" fill-rule="evenodd" stroke="none"/>
    <path d="M-12.25 -38.5 L-12.25 -38.3 -12.2 -38.1 -12.15 -37.85 -12.3 -37.65 -14.55 -36.4 -15.65 -35.5 -15.85 -35.3 -15.65 -35.05 -15.5 -34.85 -15.4 -34.65 -15.35 -34.4 -15.4 -34.2 -15.45 -34.0 -16.05 -33.3 -16.45 -32.9 -16.7 -32.7 -17.05 -32.45 -17.15 -32.25 -17.35 -32.05 -17.55 -31.8 -17.9 -31.55 -18.0 -31.4 -18.1 -31.2 -18.2 -30.95 -18.35 -30.75 -18.5 -30.5 -18.55 -29.65 -18.55 -29.2 -18.55 -28.8 -18.55 -28.35 -18.55 -27.9 -18.55 -27.7 -18.65 -27.5 -18.75 -27.05 -18.8 -26.85 -18.85 -26.65 -18.95 -26.4 -19.1 -26.2 -19.35 -26.0 -19.6 -25.85 -20.1 -25.75 -21.05 -25.75 -21.15 -25.75 -21.55 -25.7 -21.95 -25.75 -22.35 -25.15 -22.65 -24.65 -22.75 -24.45 -22.9 -24.25 -23.05 -24.1 -23.2 -24.05 -23.55 -23.95 -24.35 -24.1 Q-24.95 -24.15 -25.15 -24.6 L-25.05 -24.8 -24.8 -25.05 -24.15 -25.95 -23.9 -26.3 -23.55 -26.75 -23.2 -27.2 -23.15 -27.4 -23.1 -27.65 -23.05 -27.85 -23.1 -28.05 -23.1 -28.3 -23.1 -28.5 -23.1 -28.7 -23.1 -28.9 -22.95 -29.15 -22.85 -29.35 -22.0 -29.75 -21.55 -29.95 -21.25 -29.95 -20.75 -29.8 -20.5 -29.8 -20.65 -29.95 -20.95 -30.0 -21.45 -30.15 -21.65 -30.4 -21.8 -30.6 -21.85 -30.8 -21.9 -31.0 -21.9 -31.25 -21.9 -31.45 -21.2 -32.35 -20.75 -32.75 -20.3 -33.2 -20.0 -33.4 -19.85 -33.6 -19.75 -33.85 -19.65 -34.05 -19.6 -34.25 -19.4 -34.45 -18.95 -34.9 -18.7 -35.05 -18.35 -35.1 -17.85 -35.15 -17.5 -35.3 -15.7 -36.75 -13.75 -38.2 Q-13.1 -38.65 -12.45 -38.75 L-12.25 -38.5" fill="#663333" fill-opacity="0.2" fill-rule="evenodd" stroke="none"/>
    <path d="M5.15 -46.8 L5.2 -46.6 5.2 -46.4 5.45 -46.2 5.75 -45.95 5.45 -45.9 5.1 -46.1 4.85 -45.95 4.45 -45.8 4.05 -45.85 3.25 -45.9 2.7 -46.05 2.05 -46.25 1.6 -46.4 -6.25 -46.45 -6.75 -46.65 -6.9 -46.7 -7.35 -46.9 -7.55 -47.1 -7.7 -47.2 -8.6 -47.2 -8.85 -47.05 -9.15 -47.0 -11.0 -46.9 -11.15 -46.85 -13.15 -46.55 -13.45 -46.45 -14.45 -46.4 -14.9 -46.25 -15.35 -46.25 -15.75 -46.1 -16.65 -46.1 -17.05 -46.25 -17.25 -46.45 -17.35 -46.65 -17.35 -46.9 -17.3 -47.1 -17.1 -47.3 -16.9 -47.45 -16.65 -47.55 -15.85 -47.7 -14.9 -48.0 -12.3 -48.5 -11.65 -48.6 -11.25 -48.85 -11.1 -49.0 -10.95 -49.0 -8.55 -49.15 -8.55 -49.2 -7.4 -49.2 -6.95 -49.05 -6.75 -48.9 -6.4 -48.75 -6.15 -48.65 -5.8 -48.45 1.55 -48.35 2.1 -48.15 3.4 -47.75 3.85 -47.55 4.4 -47.4 4.85 -47.25 5.1 -47.05 5.15 -46.8" fill="#663333" fill-opacity="0.2" fill-rule="evenodd" stroke="none"/>
    <path d="M20.35 -29.05 L20.45 -28.85 20.55 -28.7 20.95 -28.45 21.15 -28.2 21.15 -28.0 21.0 -27.8 20.65 -27.8 20.2 -28.0 20.05 -27.95 19.7 -27.85 19.2 -28.0 18.5 -28.45 18.1 -28.65 17.35 -29.05 16.9 -29.3 16.45 -29.75 16.25 -29.95 16.05 -30.15 15.6 -30.6 15.4 -30.8 15.3 -31.0 15.25 -31.25 14.8 -31.4 13.65 -31.8 13.0 -32.0 12.6 -32.2 8.75 -32.3 8.1 -32.6 7.65 -32.75 Q7.5 -32.85 7.3 -32.9 L6.8 -33.05 6.6 -33.25 6.35 -33.5 6.15 -33.7 5.95 -33.9 5.75 -34.15 5.6 -34.35 4.4 -34.6 3.0 -34.75 1.55 -35.1 1.05 -35.2 0.8 -35.4 -0.05 -35.85 -0.5 -36.0 -0.9 -36.15 -1.35 -36.05 -1.75 -36.2 -1.9 -36.45 -2.0 -36.65 -1.95 -36.85 -1.9 -37.05 -1.7 -37.3 -1.5 -37.5 -1.05 -37.6 -1.05 -37.65 -0.75 -37.65 0.25 -37.3 0.7 -37.1 1.1 -36.85 1.4 -36.7 2.4 -36.6 2.9 -36.5 5.6 -36.6 5.8 -36.7 6.15 -36.75 7.6 -36.8 8.05 -36.65 8.25 -36.5 8.6 -36.35 8.9 -36.15 9.1 -35.95 9.35 -35.7 9.55 -35.5 9.7 -35.35 10.05 -35.2 10.35 -35.0 10.65 -34.75 10.75 -34.55 12.8 -34.2 13.2 -34.05 13.45 -33.9 13.8 -33.75 14.8 -33.6 15.25 -33.5 15.45 -33.35 15.8 -33.15 16.2 -32.95 16.8 -32.35 17.25 -31.7 17.55 -31.25 17.8 -31.05 18.4 -30.6 18.7 -30.4 19.0 -30.15 19.35 -29.95 19.6 -29.75 19.85 -29.5 20.15 -29.3 20.35 -29.05" fill="#663333" fill-opacity="0.2" fill-rule="evenodd" stroke="none"/>
    <path d="M31.1 -15.9 L31.2 -15.65 31.3 -15.45 31.4 -15.25 31.4 -15.0 31.4 -14.8 31.4 -14.6 31.4 -14.35 31.4 -14.15 31.4 -13.7 31.45 -13.55 31.7 -13.3 31.85 -13.05 31.95 -12.85 32.15 -12.65 32.3 -12.4 32.5 -12.2 32.55 -12.0 32.6 -11.75 32.7 -11.55 32.75 -11.35 32.85 -11.1 32.95 -10.9 33.05 -10.7 33.2 -10.45 33.25 -10.25 33.35 -10.05 33.4 -9.85 33.5 -9.6 33.5 -9.4 33.5 -9.2 33.5 -8.95 33.5 -8.75 33.5 -8.55 33.5 -8.3 33.5 -8.1 33.55 -7.9 33.7 -7.65 33.75 -7.25 33.75 -6.8 33.75 -6.6 33.75 -5.95 33.75 -5.05 33.75 -4.85 33.7 -4.65 33.55 -4.4 33.4 -4.2 33.2 -4.0 33.0 -3.75 32.9 -3.55 32.85 -3.35 32.75 -3.1 32.65 -2.95 32.4 -2.7 32.05 -2.45 32.05 -2.05 32.05 -1.8 32.05 -1.6 32.05 -1.4 32.05 -0.95 31.95 -0.5 31.55 0.35 31.4 0.55 30.45 1.6 29.1 2.85 29.0 2.9 28.6 3.0 28.45 3.15 28.35 3.25 28.1 3.3 27.7 3.15 27.6 2.95 27.55 2.7 27.65 2.5 27.8 2.3 27.85 2.05 27.95 1.85 28.3 1.4 28.6 1.0 28.8 0.75 29.1 0.35 29.6 -0.3 29.65 -0.5 29.75 -0.75 29.8 -0.95 29.9 -1.15 29.9 -1.6 29.9 -2.05 29.9 -2.25 29.9 -2.7 29.9 -3.1 29.9 -3.35 30.0 -3.55 30.15 -3.75 30.4 -4.0 30.65 -4.2 30.75 -4.4 30.8 -4.65 31.05 -4.85 31.25 -5.05 31.3 -5.3 31.4 -5.5 31.5 -5.7 31.6 -5.95 31.6 -6.15 31.6 -6.35 31.55 -6.6 31.4 -6.8 31.35 -7.0 31.3 -7.25 31.3 -7.45 31.2 -7.65 30.9 -7.9 30.65 -8.1 30.45 -8.3 30.25 -8.55 30.05 -8.75 29.95 -8.95 29.8 -9.2 29.65 -9.4 29.6 -9.85 29.6 -10.05 29.6 -10.25 29.6 -10.45 29.6 -10.9 29.6 -11.35 29.5 -11.55 29.4 -11.75 29.3 -12.2 29.3 -12.65 29.3 -12.85 29.35 -13.3 29.35 -13.95 29.3 -14.35 29.2 -14.6 29.1 -14.8 29.05 -15.0 29.0 -15.25 28.95 -15.45 28.8 -15.65 28.75 -15.9 28.5 -16.1 28.35 -16.3 28.25 -16.55 28.15 -16.75 27.95 -16.95 27.8 -17.2 27.65 -17.4 27.6 -17.6 27.5 -17.8 27.3 -18.05 27.15 -18.25 27.15 -18.5 27.15 -18.7 27.0 -18.9 26.85 -19.15 26.75 -19.35 26.65 -19.55 26.5 -19.8 26.4 -19.9 24.9 -20.1 24.35 -20.2 23.55 -20.65 23.2 -20.85 22.9 -21.1 22.8 -21.3 22.75 -21.5 22.75 -21.7 22.75 -21.95 22.95 -22.15 23.45 -22.25 23.45 -22.3 23.8 -22.15 24.1 -21.95 24.45 -21.7 27.0 -21.65 27.45 -21.5 27.65 -21.3 27.95 -21.05 28.15 -20.85 28.25 -20.65 28.4 -20.45 28.6 -20.2 28.65 -20.0 28.8 -19.8 28.95 -19.55 29.0 -19.35 Q28.9 -18.95 29.2 -18.7 L29.4 -18.45 29.55 -18.3 30.3 -17.4 31.1 -16.1 31.1 -15.9" fill="#663333" fill-opacity="0.2" fill-rule="evenodd" stroke="none"/>
    <path d="M35.6 -30.65 L35.8 -30.9 36.1 -31.0 36.5 -31.15 37.0 -31.25 37.0 -31.3 37.45 -31.15 37.75 -30.95 37.95 -30.75 38.05 -30.5 38.05 -30.3 38.0 -30.2 38.75 -29.95 39.25 -29.8 39.55 -29.55 39.75 -29.35 40.1 -28.95 40.25 -28.7 40.3 -28.5 40.35 -28.3 40.35 -27.85 40.3 -27.4 40.25 -27.2 40.2 -27.0 40.05 -26.75 39.6 -26.55 39.6 -26.35 39.65 -26.1 39.75 -25.9 39.75 -25.7 39.75 -25.5 39.7 -25.25 39.9 -24.85 40.4 -24.15 40.55 -23.95 40.7 -23.75 40.75 -23.55 40.75 -23.3 40.75 -23.1 40.7 -22.9 40.9 -22.45 41.25 -21.8 41.35 -21.6 41.5 -21.35 41.6 -21.15 41.7 -20.95 41.8 -19.85 41.75 -19.2 41.75 -17.9 41.65 -16.4 41.55 -16.2 41.35 -15.95 41.35 -15.75 41.35 -15.5 41.3 -15.3 41.25 -14.85 41.25 -14.65 41.25 -14.45 41.15 -14.2 41.15 -14.0 41.0 -13.85 40.75 -13.65 40.4 -13.8 40.4 -14.0 40.35 -14.2 40.25 -14.45 40.25 -14.65 40.25 -15.1 40.2 -15.5 40.2 -15.75 40.2 -15.95 40.2 -16.15 40.2 -16.4 40.35 -16.6 40.45 -17.45 40.35 -18.1 40.3 -19.0 40.35 -20.3 40.15 -20.7 39.8 -21.35 39.7 -21.6 39.6 -21.8 39.25 -22.25 39.2 -22.45 39.1 -22.65 38.95 -22.9 38.7 -23.3 38.1 -23.95 37.9 -24.15 37.85 -24.4 37.8 -24.6 37.8 -24.8 37.8 -25.05 37.75 -25.25 37.6 -25.5 37.5 -25.7 37.5 -25.9 37.45 -26.35 37.45 -27.0 37.45 -27.2 37.45 -27.4 37.5 -27.65 37.65 -27.8 37.3 -27.95 36.8 -28.05 36.55 -28.3 36.05 -28.7 35.5 -29.35 35.45 -29.6 35.45 -29.8 35.45 -30.0 35.45 -30.25 35.5 -30.45 35.6 -30.65" fill="#663333" fill-opacity="0.2" fill-rule="evenodd" stroke="none"/>
    <path d="M45.55 -7.5 L45.6 -7.3 45.6 -7.1 45.55 -6.85 45.45 -6.65 45.45 -6.45 45.45 -6.2 45.45 -6.0 45.45 -5.8 45.55 -5.55 45.6 -5.35 45.75 -5.15 45.8 -4.95 45.9 -4.7 46.1 -4.5 46.25 -4.25 46.3 -4.05 46.4 -3.85 46.55 -3.65 46.9 -3.2 47.25 -2.75 47.6 -2.55 47.75 -2.35 47.85 -2.1 47.9 -1.9 48.0 -1.7 48.05 -1.45 48.2 -1.25 48.4 -1.0 48.55 -0.8 48.65 -0.6 48.7 -0.4 48.7 -0.15 48.85 0.05 48.9 0.25 48.95 0.5 49.0 0.9 49.0 1.35 49.0 1.8 48.9 2.0 48.8 2.2 48.55 2.65 48.4 2.85 48.4 3.1 48.4 3.5 48.4 4.15 48.4 4.6 48.15 5.0 47.5 5.85 47.05 6.55 47.05 6.7 47.25 6.85 47.55 6.7 47.75 6.55 47.9 6.5 48.35 6.3 48.65 6.2 48.85 5.95 49.05 5.75 49.5 5.4 49.65 5.35 50.0 5.25 50.5 5.4 50.7 5.6 50.85 5.85 50.95 6.05 50.95 6.25 50.95 6.45 50.85 6.7 50.35 7.35 49.25 8.4 48.75 8.85 48.35 9.05 48.1 9.3 47.9 9.5 47.75 9.7 47.7 9.95 47.6 10.15 47.5 10.35 47.4 10.55 47.25 10.8 47.25 11.0 47.25 11.25 47.2 11.45 47.1 11.65 47.05 11.9 46.9 12.1 46.75 12.3 46.55 12.55 46.45 12.75 46.4 12.95 46.25 13.2 46.2 13.4 46.1 13.6 45.95 13.8 45.75 14.05 45.55 14.25 45.5 14.45 45.45 14.7 45.35 14.9 45.25 15.1 45.2 15.35 45.15 15.55 44.8 15.95 44.6 16.15 44.25 16.2 43.75 16.05 43.45 15.85 43.3 15.65 43.25 15.4 43.2 15.0 43.2 14.55 43.2 14.1 43.3 13.9 43.35 13.7 43.35 13.45 43.5 13.25 43.75 13.05 43.8 12.4 43.8 11.3 43.8 10.2 43.85 10.0 43.95 9.8 44.0 9.55 44.05 9.35 44.1 9.15 44.1 8.9 44.15 8.7 44.3 8.5 44.5 8.25 44.65 8.05 44.65 7.85 44.65 7.4 44.65 7.0 44.65 6.55 44.75 6.35 44.9 6.1 44.95 5.9 44.95 5.7 44.95 5.45 44.95 5.25 44.95 5.05 45.0 4.8 45.1 4.6 45.25 4.4 45.45 4.25 45.6 4.15 46.1 4.0 46.25 3.85 46.4 3.65 46.4 3.45 46.4 3.0 46.4 2.6 46.4 2.15 46.45 1.95 46.5 1.7 46.6 1.5 46.75 1.3 46.8 1.05 46.75 0.85 46.7 0.65 46.7 0.4 46.55 0.2 46.3 -0.25 46.1 -0.65 46.05 -0.9 45.8 -1.1 45.6 -1.3 45.4 -1.55 45.0 -2.15 44.3 -3.0 43.85 -3.7 43.8 -3.9 43.8 -4.15 43.8 -4.35 43.7 -4.55 43.6 -4.8 43.5 -5.0 43.5 -5.2 43.5 -5.45 43.55 -5.85 43.6 -6.3 43.65 -6.5 43.8 -6.75 43.85 -6.95 43.9 -7.15 43.95 -7.35 44.05 -7.6 44.15 -7.8 44.35 -7.95 44.45 -8.0 44.8 -8.05 44.8 -8.1 45.25 -7.95 45.45 -7.7 45.55 -7.5" fill="#663333" fill-opacity="0.2" fill-rule="evenodd" stroke="none"/>
    <path d="M20.0 41.95 L20.55 41.7 21.35 41.3 21.6 41.1 21.8 40.85 22.6 40.45 23.45 39.8 24.35 39.0 24.5 38.95 24.9 38.85 25.4 38.85 25.6 38.7 25.85 38.5 26.45 38.15 27.35 37.75 27.95 37.6 28.2 37.5 30.1 37.2 31.1 36.9 31.55 36.85 32.7 36.8 32.7 36.75 33.25 36.75 33.85 36.9 34.15 37.1 34.4 37.35 34.7 37.55 34.8 37.75 34.8 38.0 34.8 38.2 34.7 38.4 34.4 38.65 34.15 38.85 33.85 39.05 33.25 39.2 30.65 39.45 28.15 40.05 27.95 40.2 27.3 40.35 26.9 40.8 26.3 41.45 25.4 42.3 25.2 42.5 25.15 42.75 25.1 42.95 25.05 43.15 24.8 43.55 23.95 44.45 22.8 45.55 22.55 45.75 22.05 46.0 21.2 46.4 20.05 47.0 19.55 47.05 19.2 47.2 18.5 47.4 17.55 47.65 17.1 47.8 16.85 47.8 16.35 47.65 16.1 47.4 16.0 47.2 15.9 47.0 15.9 46.8 15.9 46.55 16.05 46.35 16.25 46.15 16.45 46.0 16.9 45.85 17.5 45.55 18.05 45.2 18.15 45.0 18.35 44.75 18.55 44.55 18.85 44.3 19.05 44.1 18.95 43.9 18.85 43.7 18.85 43.45 18.85 43.25 18.9 43.05 19.05 42.8 19.2 42.6 19.35 42.4 19.55 42.15 20.0 41.95" fill="#663333" fill-opacity="0.2" fill-rule="evenodd" stroke="none"/>
    <path d="M-40.55 29.55 L-40.4 29.95 -40.15 30.35 -39.95 30.6 -39.7 30.8 -39.3 31.15 -39.1 31.4 -38.85 31.45 -38.65 31.5 -38.45 31.5 -38.2 31.5 -38.0 31.55 -37.8 31.65 -37.55 31.75 -37.35 31.8 -37.15 31.85 -36.9 31.9 -36.7 32.0 -36.5 32.05 -36.25 32.2 -35.85 32.4 Q-35.45 32.55 -35.15 32.8 L-34.4 33.45 -34.35 33.6 -34.25 34.1 -34.05 34.3 -33.8 34.5 -33.6 34.75 -33.45 35.1 -33.6 35.45 -33.85 35.55 -34.05 35.6 -34.25 35.5 -34.45 35.3 -34.7 35.1 -34.9 34.9 -35.1 34.8 -35.35 34.8 -35.55 34.7 -35.75 34.6 -36.0 34.45 -36.2 34.3 -36.4 34.25 -36.65 34.15 -36.85 34.1 -37.3 33.95 -37.7 33.8 -37.95 33.8 -38.15 33.8 -38.35 33.7 -38.55 33.65 -38.8 33.5 -39.0 33.5 -39.25 33.5 -39.45 33.5 -39.65 33.5 -39.85 33.4 -40.1 33.3 -40.3 33.2 -40.55 33.05 -40.75 32.95 -40.95 32.65 -41.15 32.5 -41.4 32.3 -41.6 32.05 -41.85 31.7 -42.05 31.4 -42.25 31.15 -42.7 30.6 -42.9 30.6 -43.1 30.5 -43.35 30.35 -43.55 30.05 -43.75 29.9 -44.0 29.7 -44.1 29.4 -44.3 28.9 -44.4 28.6 -44.5 28.45 -44.6 28.1 -44.9 27.2 -45.2 26.1 -45.4 25.8 -45.65 25.35 -45.85 25.15 -46.1 24.85 -46.3 24.65 -46.45 24.15 -46.6 23.75 -46.8 23.1 -46.95 22.9 -47.0 22.75 -47.15 22.25 -47.35 22.1 -47.6 21.9 -47.75 21.75 -47.8 21.6 -47.85 21.25 -48.05 19.65 -48.25 19.15 -48.45 18.75 -48.6 18.5 -48.65 18.35 -48.7 18.0 -48.75 17.2 -48.6 16.8 -48.4 16.5 -48.4 16.05 -48.6 15.85 -48.75 15.6 -48.8 15.55 -48.85 15.2 -48.9 15.2 -48.85 11.45 -48.8 10.85 -48.7 10.5 -48.45 10.2 -48.25 10.1 -48.05 10.0 -47.8 9.95 -47.6 10.0 -47.4 10.05 -47.15 10.2 -47.0 10.35 -46.95 10.5 -46.85 10.85 -46.7 11.5 -46.6 11.95 -46.45 13.1 Q-46.25 14.25 -46.3 15.5 L-46.2 16.25 -46.1 16.5 -46.05 16.85 -45.85 19.9 -45.65 20.45 -45.4 21.1 -45.3 21.4 -45.2 21.75 -45.05 22.1 -44.95 22.35 -44.85 22.7 -44.7 23.1 -44.5 23.75 -44.25 24.05 -44.05 24.3 -43.65 24.8 -43.2 25.35 -43.05 25.85 -42.9 26.5 -42.7 26.8 -42.55 27.3 -42.4 27.9 -42.2 28.3 -41.95 28.55 -41.75 28.6 -41.55 28.65 -41.3 28.75 -41.1 28.9 -40.9 29.1 -40.7 29.35 -40.55 29.55" fill="#ffff99" fill-opacity="0.2" fill-rule="evenodd" stroke="none"/>
    <path d="M-29.0 34.65 L-28.8 34.65 -28.35 34.85 -27.9 35.1 -27.7 35.15 -27.5 35.45 -27.25 35.9 -26.45 36.8 -25.55 37.8 -25.3 38.05 -25.2 38.2 -24.95 39.15 -24.75 39.4 -24.5 39.4 -24.1 39.4 -23.65 39.4 -23.2 39.35 -23.0 39.35 -22.8 39.4 -22.55 39.5 -22.4 39.6 -21.9 40.05 -21.5 40.5 -21.3 40.55 -21.05 40.65 -20.85 40.8 -20.4 41.05 -20.2 41.15 -20.0 41.3 -19.75 41.6 -19.55 41.75 -19.35 42.0 -17.6 42.1 -16.3 42.05 -15.0 42.15 -13.9 42.25 -13.7 42.25 -13.5 42.35 -13.25 42.45 -13.05 42.65 -12.85 42.7 -12.6 42.8 -12.55 43.3 -12.75 43.55 -12.95 43.55 -13.2 43.7 -13.4 43.9 -15.35 44.05 -16.9 44.1 -18.4 44.1 -19.7 44.1 -19.9 44.05 -20.1 43.95 -20.35 43.9 -20.55 43.8 -20.75 43.65 -21.35 42.95 -22.05 42.45 -22.5 42.15 -22.7 42.1 -22.95 42.0 -23.15 41.8 -23.3 41.65 -23.35 41.5 -23.5 41.2 -24.15 41.15 -24.8 41.15 -25.45 41.1 -25.9 41.1 -26.1 40.95 -26.3 40.65 Q-26.45 40.55 -26.55 40.5 L-26.75 40.0 -26.95 39.8 -27.2 39.55 -27.4 39.35 -27.6 38.85 -27.85 38.7 -28.05 38.5 -28.25 37.95 -28.5 37.35 -28.65 37.1 -28.7 36.75 -28.65 36.25 -28.8 35.95 -29.0 35.7 -29.2 35.45 -29.3 35.1 -29.35 35.1 -29.15 34.75 -29.0 34.65" fill="#ffff99" fill-opacity="0.2" fill-rule="evenodd" stroke="none"/>
    <path d="M0.7 48.6 L2.0 48.6 3.55 48.6 5.05 48.6 5.25 48.5 5.5 48.45 6.15 47.95 6.55 47.6 7.0 47.3 7.2 47.25 7.4 47.2 7.65 47.15 7.85 47.05 8.1 47.0 8.3 47.0 8.5 47.1 8.6 47.25 8.7 47.5 8.6 47.85 8.35 48.1 8.15 48.3 7.95 48.65 7.3 49.4 6.85 49.8 6.4 50.2 6.2 50.25 5.75 50.4 5.55 50.45 3.8 50.45 1.85 50.45 0.15 50.45 -0.5 50.1 -0.9 49.8 -1.35 49.4 -1.6 49.3 -1.8 49.25 -2.0 49.1 -3.1 48.95 -4.4 48.9 -5.9 48.9 -6.15 48.8 -6.35 48.75 -8.7 48.65 -11.3 48.5 -13.25 48.35 -13.5 48.25 -13.7 48.1 -13.9 47.95 -14.05 47.75 -14.1 47.65 -14.15 47.5 -14.2 47.5 -14.1 47.15 -14.0 47.1 -13.9 47.2 -13.75 47.6 -13.55 47.65 -13.35 47.8 -10.95 47.65 -8.15 47.45 -6.2 47.45 -6.0 47.35 -5.75 47.3 -4.25 47.25 -2.55 47.15 -1.25 47.15 Q-0.85 47.25 -0.55 47.45 L0.05 47.95 0.7 48.6" fill="#ffff99" fill-opacity="0.2" fill-rule="evenodd" stroke="none"/>
    <path d="M4.25 46.3 L4.1 46.05 4.1 45.9 4.35 45.7 5.0 45.7 5.65 45.6 6.25 45.55 6.5 45.55 6.7 45.4 6.9 45.35 7.15 45.25 7.35 45.2 7.55 45.2 8.0 45.2 8.45 45.15 8.65 45.15 8.85 45.05 9.1 44.9 9.5 44.85 9.95 44.8 10.4 44.75 10.6 44.75 10.8 44.75 11.05 44.55 11.25 44.45 11.45 44.35 12.55 44.35 13.65 44.35 14.7 44.35 14.9 44.35 15.15 44.45 15.35 44.55 15.55 44.55 15.8 44.55 16.0 44.5 16.2 44.2 16.8 43.75 17.5 43.35 17.95 43.2 18.15 43.15 18.4 43.1 18.6 43.1 18.85 42.85 19.3 42.5 19.45 42.45 19.7 42.55 19.9 42.7 20.05 42.9 20.2 43.35 20.35 43.75 20.35 44.05 20.2 44.55 19.95 44.75 19.75 44.9 19.55 44.95 19.3 45.0 19.1 45.0 18.9 45.05 18.65 45.2 18.45 45.25 Q18.1 45.25 17.8 45.5 L17.15 46.15 16.95 46.35 16.3 46.45 15.65 46.45 15.0 46.45 14.8 46.45 14.6 46.35 14.35 46.15 13.7 46.05 12.85 46.05 11.95 46.05 11.75 46.15 11.55 46.3 11.1 46.25 10.45 46.25 9.8 46.2 9.6 46.25 9.35 46.35 8.95 46.4 8.3 46.35 7.65 46.35 7.45 46.4 7.2 46.5 7.0 46.55 6.1 46.65 5.25 46.55 4.4 46.45 4.25 46.3" fill="#ffff99" fill-opacity="0.2" fill-rule="evenodd" stroke="none"/>
    <path d="M-34.3 -30.5 L-34.1 -30.7 -33.9 -30.9 -33.65 -31.1 -33.45 -31.3 -33.2 -31.45 -33.0 -31.5 -32.8 -31.55 -32.6 -31.55 -32.35 -31.5 -32.15 -31.5 -31.95 -31.35 -31.85 -30.85 -31.95 -30.7 -32.15 -30.3 -32.6 -29.8 -32.8 -29.55 -33.0 -29.35 -33.25 -29.15 -33.45 -28.9 -33.65 -28.7 -33.9 -28.55 -34.1 -28.25 -34.25 -28.1 -34.45 -27.4 -34.6 -27.05 -34.8 -26.55 -34.85 -26.45 -35.05 -25.95 -35.25 -25.8 -35.45 -25.55 -35.7 -25.3 -35.9 -25.1 -36.1 -24.95 -36.3 -24.8 -36.55 -24.6 -36.65 -24.45 -36.85 -24.05 -37.0 -23.85 -37.05 -23.0 -37.2 -22.6 -37.35 -22.3 -37.5 -19.85 -37.65 -19.5 -37.75 -19.25 -37.8 -19.1 -37.95 -18.4 -38.0 -18.1 -38.15 -17.4 -38.35 -17.2 -38.55 -17.05 -38.7 -17.1 -38.7 -17.25 -38.7 -17.3 -38.65 -17.55 -38.7 -18.1 -38.8 -18.4 -38.7 -19.1 -38.55 -19.7 -38.65 -22.45 -38.5 -22.85 -38.45 -24.15 -38.4 -24.45 -38.3 -24.8 -38.05 -25.1 -37.85 -25.3 -37.7 -25.5 -37.65 -25.6 -37.5 -26.05 -37.25 -26.25 -37.05 -26.45 -36.85 -26.7 -36.6 -26.9 -36.3 -27.45 -36.2 -27.65 -36.05 -28.05 -36.0 -28.5 -35.95 -28.75 -35.85 -29.2 -35.6 -29.5 -35.4 -29.7 -35.2 -30.0 -34.95 -30.1 -34.75 -30.2 -34.55 -30.3 -34.3 -30.5" fill="#ffff99" fill-opacity="0.2" fill-rule="evenodd" stroke="none"/>
    <path d="M-41.1 -29.05 L-40.95 -29.3 -40.85 -29.65 -40.65 -30.35 -40.5 -30.8 -40.4 -31.0 -40.25 -31.4 -40.0 -31.65 -39.8 -31.9 -39.6 -32.1 -39.35 -32.3 -39.15 -32.4 -38.95 -32.45 -38.7 -32.65 -38.5 -32.75 -38.3 -33.05 -38.05 -33.3 -37.85 -33.5 -37.65 -33.7 -37.4 -33.9 -37.2 -34.0 -37.0 -34.1 -36.75 -34.1 -36.55 -34.4 -36.35 -34.55 -36.15 -34.45 -35.9 -34.25 -35.9 -33.9 -36.05 -33.7 -36.05 -33.6 -36.0 -33.25 -36.15 -32.75 -36.35 -32.5 -36.55 -32.25 -36.75 -31.9 -37.0 -31.5 -37.2 -31.3 -37.4 -31.15 -37.65 -31.05 -37.85 -30.95 -38.05 -30.75 -38.3 -30.5 -38.45 -30.35 -38.95 -29.0 -39.4 -27.5 -39.9 -26.25 -40.1 -25.85 -40.2 -25.65 -40.65 -24.65 -40.9 -24.45 -41.1 -24.25 -41.3 -24.0 -41.55 -23.8 -41.75 -23.6 -42.2 -23.2 -42.4 -23.1 -42.6 -23.1 -42.8 -23.05 -43.05 -22.85 -43.25 -22.65 -43.4 -22.5 -43.7 -21.9 -44.1 -21.05 -44.95 -19.35 -45.3 -18.75 -45.45 -17.7 Q-45.65 -16.2 -46.0 -14.8 L-46.5 -12.7 -46.6 -12.4 -46.7 -11.9 Q-46.85 -10.85 -47.3 -9.95 L-47.4 -9.8 -47.5 -7.6 -47.7 -7.1 -48.15 -5.55 -48.4 -3.6 Q-48.5 -2.55 -49.05 -1.8 L-49.05 -1.75 Q-49.3 1.7 -49.2 5.2 L-49.05 5.4 -48.95 5.7 -49.05 6.55 -49.2 6.9 -49.4 7.0 -49.6 7.05 -49.8 6.95 -49.95 6.85 -50.05 6.55 -50.2 5.75 -50.35 5.55 -50.35 5.4 -50.5 3.65 -50.6 1.05 -50.6 -1.8 -50.45 -2.25 -50.3 -3.55 -50.2 -4.05 -50.05 -5.0 -49.95 -5.35 -49.9 -5.4 -49.8 -6.15 -49.7 -6.65 -49.5 -7.55 -49.4 -8.0 -49.35 -12.75 -49.3 -16.25 -49.2 -16.65 -49.05 -17.1 -49.05 -17.4 -49.05 -17.7 -48.9 -18.1 -48.75 -18.35 -48.6 -18.7 -48.4 -18.95 -48.15 -19.5 -47.95 -19.75 -47.9 -20.0 -47.75 -20.4 -47.6 -20.65 -47.45 -21.0 -47.2 -21.25 -47.0 -21.5 -46.8 -21.8 -46.55 -22.0 -46.35 -22.15 -45.9 -22.5 -45.7 -22.6 -45.6 -22.65 -45.45 -23.0 -45.2 -23.3 -45.0 -23.5 -44.8 -23.75 -44.55 -24.15 -44.35 -24.45 -44.15 -24.75 -43.9 -24.9 -43.7 -24.95 -43.5 -24.95 -43.25 -24.95 -43.05 -25.0 Q-42.95 -25.05 -42.8 -25.15 L-42.6 -25.35 -42.45 -25.45 -42.4 -25.55 -42.25 -25.9 -42.1 -26.1 -41.85 -26.7 -41.35 -28.2 -41.1 -29.05" fill="#ffff99" fill-opacity="0.2" fill-rule="evenodd" stroke="none"/>
    <path d="M44.35 -11.1 L44.45 -10.75 44.65 -10.2 44.8 -9.95 44.85 -9.6 44.9 -8.45 44.75 -7.9 44.55 -7.35 44.4 -7.0 44.3 -6.45 44.2 -5.9 44.3 -3.7 44.4 -3.6 44.65 -3.55 44.85 -3.4 45.05 -3.2 45.3 -2.7 45.5 -2.25 45.75 -1.8 45.95 -1.5 46.15 -1.25 46.3 -1.0 46.45 -0.45 46.65 0.05 46.8 0.3 46.85 0.45 46.95 0.8 47.05 1.15 47.05 1.3 47.15 1.65 47.15 2.5 47.0 3.0 46.8 3.3 46.65 3.4 46.6 3.45 46.45 3.9 46.2 4.1 46.0 4.3 45.8 4.55 45.55 5.0 45.45 5.2 45.35 5.45 45.2 5.9 45.05 7.4 44.8 8.5 44.7 8.55 44.65 9.45 44.7 9.95 44.85 10.3 44.95 10.75 45.05 11.15 45.2 11.65 45.35 12.05 45.35 12.6 45.2 12.95 45.0 13.2 44.75 13.3 44.55 13.4 44.35 13.35 44.15 13.25 44.0 12.9 44.05 12.6 44.1 12.55 44.05 12.1 43.95 11.75 43.75 11.0 43.55 10.6 43.4 10.45 43.35 10.3 43.2 9.45 43.15 8.0 43.2 7.65 43.25 7.55 43.35 5.4 43.5 4.95 43.7 4.4 43.85 4.15 44.0 3.8 44.2 3.5 44.35 3.3 44.35 2.5 44.2 1.95 44.05 1.35 43.9 0.8 43.7 0.55 43.55 0.3 43.4 -0.1 43.2 -0.25 43.05 -0.45 43.0 -0.6 42.8 -1.0 42.7 -1.3 42.6 -1.45 42.45 -1.8 42.25 -2.05 42.1 -2.3 42.1 -2.65 42.05 -2.7 42.05 -6.45 42.2 -6.9 42.4 -7.35 42.6 -7.85 42.85 -8.45 43.0 -9.6 43.1 -10.05 43.25 -10.25 43.35 -10.75 43.5 -11.1 43.7 -11.25 43.9 -11.35 44.1 -11.25 44.35 -11.1" fill="#ffff99" fill-opacity="0.2" fill-rule="evenodd" stroke="none"/>
    <path d="M50.7 1.85 L50.9 1.8 51.1 1.9 51.35 2.0 51.5 2.25 51.8 3.1 51.9 3.95 51.25 6.05 Q51.0 6.5 50.9 7.05 L50.45 7.55 49.85 8.2 49.6 8.45 49.4 8.75 48.95 9.3 48.75 9.5 48.5 9.9 48.1 10.45 47.9 10.65 47.65 11.1 47.35 12.85 47.25 13.05 Q47.7 17.0 46.2 20.6 L46.0 20.9 45.85 21.05 45.15 23.05 44.55 24.15 44.4 24.65 44.2 25.25 43.95 25.5 43.55 25.85 43.2 26.0 43.1 26.15 42.85 26.8 42.7 27.25 42.45 27.45 42.35 27.6 42.25 27.7 42.1 28.1 41.45 28.75 40.6 29.6 40.25 30.0 40.1 30.4 39.85 30.65 39.65 30.85 39.4 31.25 39.3 31.45 39.15 31.85 38.95 32.1 38.7 32.3 38.5 32.5 37.15 35.6 35.9 37.15 35.7 37.25 35.5 37.25 35.05 37.2 34.6 37.15 34.4 37.15 34.2 37.1 33.95 36.9 33.85 36.55 33.8 36.55 33.95 36.2 34.2 36.05 34.4 35.95 34.6 35.9 34.85 35.9 35.05 35.9 35.25 35.8 35.45 35.6 35.6 35.4 35.8 34.9 36.15 34.15 36.2 33.95 36.3 33.6 36.35 33.5 36.4 32.8 36.55 32.35 36.7 32.15 36.85 31.8 37.05 31.5 37.2 31.35 37.25 31.3 37.45 30.95 37.55 30.7 37.7 30.3 37.95 29.9 38.3 29.35 38.5 28.9 39.2 28.15 40.0 27.3 40.25 27.1 40.35 26.95 40.5 26.6 40.75 26.3 40.95 26.1 41.1 25.95 41.15 25.85 41.35 25.15 41.55 24.5 41.75 24.3 41.95 24.15 42.2 24.05 42.4 23.85 42.55 23.5 42.7 23.05 43.5 21.55 43.9 20.2 44.1 19.8 44.5 19.05 44.55 18.9 44.8 17.9 45.05 17.0 45.15 12.6 45.3 12.1 45.45 11.9 Q45.4 10.9 45.75 10.0 L45.95 9.5 46.15 9.3 46.35 9.0 46.55 8.85 47.0 8.35 47.25 8.15 47.45 7.7 Q48.7 6.4 49.3 4.7 L50.25 2.15 50.5 1.95 50.7 1.85" fill="#ffff99" fill-opacity="0.2" fill-rule="evenodd" stroke="none"/>
    <path d="M34.95 -38.35 L35.4 -38.0 35.85 -37.6 36.05 -37.65 36.25 -37.65 36.65 -37.4 37.15 -36.9 37.55 -36.35 37.75 -36.2 38.0 -36.0 38.2 -35.85 38.85 -34.9 39.55 -33.85 39.65 -33.6 39.75 -33.25 39.85 -32.4 40.0 -32.15 40.15 -31.6 40.3 -31.3 40.55 -30.3 40.75 -29.8 40.95 -29.65 41.15 -29.55 41.4 -29.5 42.25 -29.05 43.1 -28.25 43.5 -27.35 43.6 -27.1 44.0 -26.0 44.4 -24.9 44.65 -24.75 44.8 -24.55 44.85 -24.4 44.9 -24.0 45.05 -23.35 45.3 -23.15 45.7 -22.3 46.15 -21.4 46.35 -21.25 46.55 -21.05 46.8 -20.8 47.0 -20.05 47.2 -19.85 47.35 -19.6 47.45 -19.45 47.8 -18.4 48.05 -18.1 48.45 -17.65 48.6 -17.45 48.65 -17.1 48.65 -16.25 48.55 -15.75 48.4 -15.5 Q48.05 -14.05 48.3 -12.5 L48.45 -12.25 48.6 -9.55 48.75 -9.0 48.75 -7.95 Q49.0 -5.95 49.6 -4.0 L49.9 -2.8 50.05 -2.4 50.05 -2.1 49.95 -1.5 49.85 -1.15 49.6 -1.0 49.4 -0.95 49.2 -1.0 48.95 -1.15 48.8 -1.5 47.75 -5.55 47.35 -7.6 47.25 -7.8 47.0 -9.1 46.85 -9.6 46.7 -11.7 46.6 -12.0 46.5 -12.1 Q46.25 -14.3 46.35 -16.45 L46.3 -16.75 45.6 -18.05 44.85 -19.7 Q44.45 -19.95 44.2 -20.35 L43.85 -21.1 43.7 -21.55 Q42.85 -22.95 42.15 -24.5 L41.3 -26.75 41.1 -27.05 40.65 -27.3 40.25 -27.55 40.05 -27.65 39.8 -27.75 39.6 -27.85 39.35 -27.9 39.15 -28.05 38.95 -28.25 38.35 -29.75 37.65 -31.45 37.4 -33.05 37.0 -33.75 36.55 -34.55 35.85 -35.4 35.5 -36.0 35.35 -36.2 35.25 -36.35 35.2 -36.7 35.1 -37.15 34.7 -37.6 34.35 -37.95 34.3 -38.15 34.3 -38.3 34.55 -38.5 34.95 -38.35" fill="#ffff99" fill-opacity="0.2" fill-rule="evenodd" stroke="none"/>
    <path d="M15.2 -32.95 L15.45 -32.8 15.55 -32.65 15.65 -32.4 15.5 -31.95 15.3 -31.8 15.05 -31.75 14.85 -31.75 14.65 -31.6 14.4 -31.5 14.2 -31.45 13.75 -31.45 13.55 -31.45 13.35 -31.45 12.9 -31.45 12.7 -31.55 12.45 -31.65 12.25 -31.75 12.05 -31.8 11.85 -31.95 11.6 -32.1 11.4 -32.25 11.2 -32.45 11.05 -32.8 10.95 -32.95 10.8 -33.3 10.65 -33.55 10.4 -34.4 10.25 -35.0 10.15 -35.25 10.15 -35.65 10.15 -35.85 10.1 -35.85 10.25 -36.3 10.45 -36.4 10.65 -36.3 10.9 -35.9 11.1 -35.7 11.3 -35.5 11.45 -35.35 11.5 -35.25 11.8 -34.55 11.95 -34.1 12.2 -33.9 12.4 -33.75 12.6 -33.7 12.85 -33.6 13.05 -33.55 13.25 -33.45 13.5 -33.3 13.7 -33.3 13.9 -33.3 14.15 -33.25 14.35 -33.25 14.55 -33.1 14.8 -33.05 15.0 -33.0 15.2 -32.95" fill="#ffff99" fill-opacity="0.2" fill-rule="evenodd" stroke="none"/>
    <path d="M18.85 -22.3 Q18.45 -22.5 18.4 -22.95 L18.6 -23.1 18.8 -22.95 19.05 -22.85 19.25 -22.8 19.45 -22.7 19.7 -22.6 20.1 -22.35 20.55 -22.15 21.0 -22.05 21.4 -21.95 21.85 -21.8 22.5 -21.4 23.1 -21.0 23.5 -20.8 Q23.6 -20.3 23.8 -19.95 L24.3 -18.95 24.5 -18.75 24.75 -18.55 25.15 -18.2 25.4 -18.2 25.6 -18.25 25.8 -18.25 26.05 -18.25 26.25 -18.25 26.45 -18.2 26.7 -18.1 26.9 -18.0 27.05 -17.9 27.1 -17.75 27.25 -17.4 27.65 -16.85 28.05 -15.95 28.05 -15.35 28.1 -15.1 28.05 -14.65 28.25 -14.3 28.5 -13.95 28.55 -13.5 28.35 -13.35 28.15 -13.45 27.9 -13.7 27.7 -14.05 27.45 -14.3 27.25 -14.35 27.05 -14.45 26.8 -14.65 26.2 -15.95 25.55 -16.5 25.3 -16.6 25.1 -16.6 24.9 -16.6 24.65 -16.65 24.45 -16.65 24.25 -16.75 24.0 -16.95 23.8 -17.25 23.6 -17.4 23.35 -17.6 23.15 -17.8 23.0 -18.25 22.75 -19.7 22.55 -20.35 22.35 -20.5 22.15 -20.7 21.9 -20.85 21.7 -21.0 21.5 -21.05 21.25 -21.15 21.05 -21.2 20.85 -21.3 19.75 -21.9 18.85 -22.3" fill="#ffff99" fill-opacity="0.2" fill-rule="evenodd" stroke="none"/>
    <path d="M12.2 11.95 L12.4 11.8 12.65 11.6 12.85 11.45 13.05 11.4 13.25 11.45 13.5 11.6 13.6 11.75 13.7 12.05 13.65 12.3 13.65 12.6 13.5 13.1 13.05 13.95 12.85 14.35 12.6 14.55 12.4 14.75 11.35 16.15 10.45 16.95 10.0 16.95 9.6 16.95 9.15 16.95 8.95 16.95 8.7 17.1 8.3 17.1 7.65 17.05 7.2 17.0 7.0 17.0 6.8 17.1 6.55 17.15 6.35 17.3 6.15 17.3 5.9 17.3 5.7 17.4 5.5 17.5 5.25 17.65 5.05 17.75 4.6 17.7 4.2 17.65 3.75 17.6 3.55 17.55 3.35 17.35 3.15 17.15 3.1 17.05 3.1 16.95 3.1 16.85 3.3 16.85 3.55 16.95 3.75 16.9 3.95 16.85 4.2 16.8 4.4 16.8 4.6 16.7 4.85 16.6 5.05 16.45 5.25 16.3 5.5 16.2 5.7 16.15 5.9 16.05 6.15 15.95 6.35 15.85 6.55 15.8 6.8 15.7 7.0 15.7 7.2 15.7 7.45 15.7 7.65 15.7 7.85 15.6 8.1 15.5 8.3 15.35 8.7 15.3 9.15 15.2 9.6 15.2 Q10.15 15.1 10.5 14.5 L11.3 13.4 11.75 12.6 12.2 11.95" fill="#ffff99" fill-opacity="0.2" fill-rule="evenodd" stroke="none"/>
    <path d="M14.85 6.4 L15.0 6.55 14.85 6.9 14.65 7.15 14.45 7.5 14.2 7.9 13.7 8.6 13.55 8.65 13.4 8.55 13.35 8.5 13.35 8.3 13.35 8.15 13.55 7.65 13.8 7.2 14.0 6.85 14.2 6.7 14.45 6.5 14.65 6.35 14.85 6.4" fill="#ffff99" fill-opacity="0.2" fill-rule="evenodd" stroke="none"/>
    <path d="M32.95 -39.95 L33.1 -39.4 33.25 -39.1 33.45 -38.15 33.6 -37.05 33.4 -36.85 33.2 -36.9 32.95 -37.0 32.7 -37.25 32.5 -37.35 32.3 -37.45 32.1 -37.6 31.9 -37.85 31.45 -38.5 31.2 -38.95 31.0 -39.1 30.8 -39.1 30.6 -39.0 30.35 -38.85 29.5 -38.85 28.4 -38.9 27.35 -38.95 27.1 -38.95 Q26.1 -39.35 25.25 -40.15 L23.0 -41.75 22.15 -42.5 21.95 -42.55 21.7 -42.7 21.5 -42.9 21.25 -43.15 21.05 -43.65 Q20.55 -43.8 20.15 -44.25 L19.15 -45.2 18.45 -45.5 18.25 -45.7 18.0 -45.95 17.6 -46.3 17.4 -46.35 17.15 -46.6 16.95 -46.8 16.75 -46.95 16.5 -47.0 16.3 -47.05 15.85 -47.1 15.45 -47.1 15.2 -47.15 15.0 -47.25 14.8 -47.2 14.55 -47.0 14.45 -47.0 14.4 -47.1 14.4 -47.25 14.4 -47.65 14.65 -47.95 15.05 -48.1 15.95 -48.3 16.8 -48.35 17.0 -48.4 17.2 -48.35 17.45 -48.25 17.9 -47.9 18.1 -47.65 18.3 -47.6 18.55 -47.45 18.95 -47.1 19.2 -46.8 19.4 -46.75 19.6 -46.65 19.85 -46.6 20.05 -46.45 20.25 -46.35 20.7 -46.0 21.6 -45.25 22.2 -44.8 22.4 -44.5 22.65 -44.2 23.95 -43.6 25.5 -42.35 26.1 -41.7 26.3 -41.6 26.55 -41.55 26.75 -41.4 27.2 -41.2 27.6 -40.95 27.85 -40.8 28.05 -40.8 28.5 -40.85 29.15 -40.9 29.55 -40.9 29.75 -41.0 30.0 -41.1 30.2 -41.15 30.65 -41.2 31.3 -41.15 31.95 -41.1 32.15 -41.0 32.4 -40.9 32.6 -40.6 32.8 -40.2 32.95 -39.95" fill="#ffff99" fill-opacity="0.2" fill-rule="evenodd" stroke="none"/>
    <path d="M1.25 -50.2 L2.3 -50.2 2.5 -50.2 2.75 -50.1 2.95 -50.0 3.2 -49.9 3.4 -49.9 3.6 -49.9 3.8 -49.85 4.05 -49.75 4.25 -49.6 4.45 -49.6 4.7 -49.55 4.9 -49.45 5.1 -49.35 5.35 -49.3 5.55 -49.25 5.75 -49.2 6.2 -48.95 6.65 -48.7 6.85 -48.6 7.05 -48.55 7.3 -48.45 7.5 -48.45 7.7 -48.45 7.95 -48.4 8.15 -48.3 8.35 -48.25 8.6 -48.2 9.0 -48.2 9.65 -48.2 10.3 -48.2 10.75 -48.2 10.95 -48.1 11.4 -48.0 11.85 -47.9 12.05 -47.9 Q12.15 -47.9 12.25 -48.0 L12.5 -48.15 12.7 -48.3 13.75 -48.4 15.05 -48.4 16.35 -48.4 16.6 -48.4 17.25 -48.2 17.9 -47.95 18.55 -47.75 18.75 -47.65 19.2 -47.4 19.85 -46.95 20.5 -46.45 20.7 -46.35 20.9 -46.25 21.15 -46.1 21.35 -45.95 21.55 -45.85 21.8 -45.8 22.0 -45.7 22.2 -45.65 22.85 -45.1 23.75 -44.3 23.95 -44.15 24.15 -44.05 24.35 -44.0 24.6 -43.85 24.8 -43.6 24.95 -43.4 25.0 -43.05 24.9 -42.55 24.65 -42.25 24.45 -42.1 24.2 -42.05 23.8 -42.05 23.35 -42.05 22.95 -42.1 22.7 -42.2 22.5 -42.35 22.3 -42.4 22.05 -42.5 21.65 -42.7 21.0 -43.05 20.55 -43.25 20.35 -43.25 20.1 -43.25 19.9 -43.25 19.7 -43.35 19.45 -43.4 19.25 -43.5 17.75 -43.4 16.0 -43.4 14.5 -43.4 14.3 -43.5 14.05 -43.55 13.85 -43.65 13.65 -43.7 13.4 -43.7 13.2 -43.7 13.0 -43.7 12.75 -43.7 12.55 -43.8 12.35 -43.85 12.1 -44.0 11.9 -44.05 11.7 -44.3 11.45 -44.5 11.25 -44.8 10.8 -44.85 10.15 -44.85 9.5 -44.95 9.3 -45.05 9.1 -45.2 8.85 -45.35 8.65 -45.45 8.45 -45.45 8.25 -45.5 8.0 -45.65 7.8 -45.7 7.55 -45.75 7.35 -45.8 7.15 -45.95 6.9 -46.0 6.7 -46.05 6.5 -46.1 6.25 -46.2 6.05 -46.3 5.85 -46.35 5.45 -46.6 4.95 -47.0 4.75 -47.15 4.55 -47.2 4.35 -47.25 4.1 -47.3 3.9 -47.45 3.7 -47.45 3.45 -47.45 3.25 -47.45 3.05 -47.55 2.8 -47.65 2.6 -47.75 2.4 -47.75 2.15 -47.75 1.95 -47.85 1.75 -47.95 1.1 -48.05 0.2 -48.05 -0.65 -48.15 -0.85 -48.2 -1.05 -48.25 -1.3 -48.4 -1.5 -48.45 -1.75 -48.55 -1.95 -48.6 -2.15 -48.7 -2.4 -48.75 -2.6 -48.9 -2.8 -49.05 -3.05 -49.25 -3.25 -49.4 -3.7 -49.55 -4.35 -49.75 -5.0 -50.0 -5.2 -50.1 -5.3 -50.3 -5.35 -50.55 -5.4 -50.55 -5.25 -50.9 -5.05 -51.05 -4.85 -51.15 -4.4 -51.0 -3.75 -50.75 -3.1 -50.55 -2.9 -50.5 -2.65 -50.5 -2.45 -50.5 -2.25 -50.55 -2.0 -50.55 -1.6 -50.4 -1.15 -50.25 -0.7 -50.1 0.15 -50.15 1.25 -50.2" fill="#ffff99" fill-opacity="0.2" fill-rule="evenodd" stroke="none"/>
    <path d="M-18.7 -45.8 L-18.45 -45.7 -18.25 -45.65 -18.05 -45.65 -17.8 -45.55 -17.6 -45.45 -17.35 -45.3 -16.95 -45.1 -16.85 -44.55 -17.1 -44.35 -17.3 -44.25 -17.5 -44.15 -17.75 -44.0 -17.95 -43.95 -18.15 -43.9 -18.4 -43.8 -18.6 -43.65 -18.8 -43.5 -19.25 -43.2 -19.45 -43.2 -19.7 -43.15 -19.9 -43.05 -20.1 -42.9 -20.35 -42.9 -20.55 -42.9 -20.75 -42.9 -21.2 -42.9 -21.4 -42.85 -21.6 -42.75 -21.85 -42.6 -22.05 -42.6 -22.3 -42.6 -22.5 -42.6 -22.95 -42.6 -23.15 -42.55 -23.35 -42.45 -23.6 -42.35 -23.8 -42.25 -24.0 -42.05 -24.25 -41.9 -24.65 -41.7 -24.9 -41.55 -25.1 -41.25 -25.55 -40.8 -25.95 -40.4 Q-26.45 -39.45 -27.2 -38.75 L-28.55 -37.5 -29.4 -36.95 -29.65 -36.85 -29.85 -36.8 -30.05 -36.55 -30.3 -36.35 -30.5 -36.05 -30.7 -35.85 -30.95 -35.75 -31.15 -35.7 -31.35 -35.5 -31.6 -35.25 -31.8 -35.05 -32.0 -35.0 -32.25 -34.9 -32.45 -34.75 -32.65 -34.7 -32.9 -34.7 -33.1 -34.65 -33.3 -34.6 -33.75 -34.4 -34.4 -33.9 -34.8 -33.65 -35.05 -33.55 -35.25 -33.5 -35.5 -33.45 -35.7 -33.45 -36.6 -32.85 -37.45 -31.95 -38.05 -31.45 -38.3 -31.45 -38.5 -31.45 -38.7 -31.45 -38.95 -31.45 -39.15 -31.55 -39.35 -31.65 -39.45 -32.1 -39.5 -32.1 -39.35 -32.45 -39.15 -32.65 -38.95 -32.9 -38.7 -32.85 -38.5 -32.8 -38.05 -33.3 -37.4 -33.95 -37.0 -34.4 -36.75 -34.75 -36.55 -35.0 -36.35 -35.2 -36.1 -35.35 -35.9 -35.4 -35.7 -35.7 -35.5 -36.0 -35.5 -36.1 -35.7 -36.35 -35.85 -36.65 -35.9 -37.0 -35.75 -37.5 -35.55 -37.7 -35.35 -37.85 -35.1 -37.95 -34.9 -38.0 -34.7 -38.15 -34.45 -38.25 -34.25 -38.3 -34.05 -38.35 Q-33.95 -38.45 -33.8 -38.5 L-33.4 -38.75 -32.95 -39.15 -32.75 -39.3 -32.5 -39.4 -32.3 -39.45 -32.1 -39.6 -31.85 -39.65 -31.4 -40.05 -30.75 -40.55 -30.15 -41.0 -29.9 -41.1 -29.7 -41.15 -29.5 -41.15 -29.3 -41.1 -29.05 -40.95 -28.85 -40.75 -28.65 -40.6 -28.45 -40.65 -28.2 -40.85 -28.0 -41.1 -27.75 -41.45 -27.55 -41.7 -27.35 -41.9 -27.1 -42.1 -26.9 -42.35 -26.65 -42.75 -26.45 -43.05 -26.25 -43.2 -25.85 -43.45 -25.4 -43.8 -25.15 -44.05 -24.95 -44.2 -24.75 -44.3 -24.5 -44.35 -24.3 -44.35 -24.1 -44.5 -23.85 -44.55 -23.65 -44.65 -23.45 -44.65 -23.2 -44.65 -23.0 -44.65 -22.8 -44.65 -22.6 -44.7 -22.35 -44.75 -22.15 -44.85 -21.9 -44.9 -21.7 -44.95 -21.5 -44.95 -21.25 -44.95 -21.05 -44.95 -20.85 -44.95 -20.6 -45.1 -20.4 -45.15 -20.2 -45.2 -19.95 -45.2 -19.75 -45.35 -19.55 -45.5 -19.35 -45.6 -18.9 -45.8 -18.7 -45.8" fill="#ffff99" fill-opacity="0.2" fill-rule="evenodd" stroke="none"/>
    <path d="M9.65 45.2 L9.9 45.15 10.1 45.15 10.3 45.1 10.45 45.0 10.5 44.9 10.65 44.55 10.9 44.25 11.1 44.1 11.55 43.7 11.95 43.4 12.2 43.35 12.4 43.25 12.6 43.05 12.85 42.75 13.05 42.55 13.25 42.45 13.5 42.3 13.7 42.3 13.9 42.3 14.15 42.3 14.35 42.25 14.55 42.15 14.8 42.1 15.0 42.1 15.2 42.05 15.4 41.95 15.65 41.85 15.85 41.75 16.1 41.6 16.75 41.35 17.8 41.05 18.25 40.95 18.45 40.9 18.7 40.75 18.9 40.65 19.1 40.6 19.3 40.5 19.55 40.5 19.75 40.5 19.95 40.4 20.2 40.25 20.4 40.1 20.6 40.0 20.85 39.95 21.05 39.95 21.25 39.7 21.5 39.5 21.7 39.45 21.9 39.4 22.15 39.35 22.35 39.25 22.55 39.15 22.8 39.1 23.0 39.1 23.2 39.1 23.45 39.05 23.65 39.0 23.85 38.85 24.1 38.8 24.3 38.75 24.5 38.75 24.75 38.7 24.95 38.75 25.15 38.85 25.25 39.35 25.05 39.65 24.8 40.05 24.6 40.35 24.35 40.5 24.15 40.65 23.95 40.75 23.7 40.9 23.5 40.9 23.3 40.95 22.85 41.2 22.45 41.5 22.0 41.8 21.8 41.8 21.55 41.8 20.55 42.65 19.4 43.6 18.95 44.05 18.75 44.1 18.55 44.2 18.1 44.6 17.65 44.95 17.25 45.2 17.0 45.4 16.6 45.75 16.15 46.05 15.95 46.15 15.7 46.2 15.5 46.3 15.3 46.35 15.05 46.45 14.85 46.55 14.65 46.65 13.75 46.75 12.7 46.7 11.85 46.7 11.4 46.7 11.2 46.6 10.95 46.45 10.75 46.4 10.5 46.4 10.3 46.45 10.1 46.35 9.9 46.35 9.65 46.35 9.45 46.25 9.25 46.15 9.15 45.8 9.1 45.8 9.25 45.4 9.45 45.35 9.65 45.2" fill="#ffff99" fill-opacity="0.2" fill-rule="evenodd" stroke="none"/>
    <path d="M-18.75 -42.4 L-18.55 -42.25 -18.4 -41.9 -18.55 -41.55 -18.75 -41.35 -18.95 -41.25 -19.2 -41.2 -19.85 -40.7 -20.75 -40.25 -21.6 -39.65 -21.8 -39.6 -22.0 -39.4 -22.2 -39.15 -22.45 -39.0 -22.65 -39.0 -22.85 -39.0 -23.05 -38.95 -23.3 -38.8 -23.5 -38.65 -23.7 -38.5 -24.35 -38.4 -25.25 -38.45 -26.1 -38.45 -26.3 -38.45 -26.45 -38.4 -26.75 -37.95 -26.95 -37.8 -27.2 -37.65 -27.4 -37.65 -27.6 -37.65 -28.05 -37.65 -28.5 -37.7 -28.7 -37.7 -28.9 -37.6 -29.15 -37.45 -29.35 -37.45 -29.55 -37.4 -29.8 -37.35 -30.0 -37.25 -30.2 -37.15 -30.45 -37.15 -30.65 -37.15 -30.85 -37.15 -31.1 -37.15 -31.3 -37.15 -31.5 -37.05 -31.75 -36.95 -31.95 -36.8 -32.15 -36.75 -32.4 -36.7 -32.6 -36.55 -32.8 -36.45 -33.0 -36.35 -33.25 -36.2 -33.7 -36.15 -34.3 -36.15 -34.75 -36.15 -35.2 -36.15 -35.4 -36.15 -35.6 -36.3 -35.85 -36.5 -35.95 -37.0 -36.0 -37.0 -35.85 -37.45 -35.6 -37.65 -35.4 -37.8 -34.95 -38.0 -34.75 -38.0 -34.55 -38.05 -34.3 -38.25 -34.1 -38.35 -33.9 -38.4 -33.65 -38.45 -33.45 -38.45 -33.25 -38.45 -33.05 -38.55 -32.8 -38.65 -32.4 -38.9 -32.15 -39.0 -31.95 -39.1 -31.75 -39.15 -31.5 -39.3 -31.3 -39.3 -31.1 -39.3 -30.85 -39.4 -30.65 -39.45 -30.45 -39.5 -30.2 -39.6 -30.0 -39.65 -29.75 -39.8 -29.55 -39.8 -29.35 -39.8 -29.15 -39.85 -28.9 -39.95 -28.7 -40.05 -28.5 -40.1 -28.25 -40.1 -28.05 -40.15 -27.85 -40.15 -27.6 -40.15 -27.4 -40.1 -27.2 -40.1 -26.75 -40.15 -26.1 -40.15 -25.45 -40.15 -25.0 -40.1 -24.8 -40.2 -24.6 -40.3 -24.15 -40.55 -23.95 -40.7 -23.7 -40.75 -23.5 -40.75 -23.3 -40.8 -23.1 -40.9 -22.65 -41.1 -22.2 -41.35 -21.8 -41.6 -21.55 -41.7 -21.35 -41.75 -21.15 -41.9 -20.9 -41.95 -20.7 -42.05 -20.45 -42.2 -20.25 -42.3 -20.05 -42.4 -19.85 -42.4 -19.6 -42.35 -19.4 -42.35 -19.2 -42.4 -18.95 -42.5 -18.75 -42.4" fill="#ffff99" fill-opacity="0.2" fill-rule="evenodd" stroke="none"/>
    <path d="M-40.25 5.55 L-40.05 5.65 -39.8 5.75 -39.65 6.0 -39.6 6.25 -39.6 6.85 -39.75 7.25 -39.8 7.4 -40.0 7.9 -40.1 8.0 -40.1 8.3 -40.25 8.8 -40.45 8.95 -40.65 9.1 -40.9 9.1 -41.1 9.1 -41.3 9.1 -41.55 9.0 -41.75 8.85 -41.9 8.65 -41.95 8.3 -41.95 7.7 -41.8 7.25 -41.6 7.0 -41.4 6.85 -41.15 6.7 -41.0 6.25 -40.9 5.9 -40.65 5.7 -40.45 5.6 -40.25 5.55" fill="#ffff99" fill-opacity="0.2" fill-rule="evenodd" stroke="none"/>
    <path d="M-20.4 17.35 L-20.3 17.55 -20.2 17.8 -20.05 18.3 -19.85 18.65 -19.6 19.05 -19.4 19.25 -19.2 19.4 -18.95 19.6 -18.75 19.75 -18.55 19.75 -18.3 19.75 -18.1 19.7 -17.9 19.75 -17.65 19.8 -17.45 19.9 -17.25 19.95 -17.0 20.1 -16.8 20.15 -16.6 20.2 -16.35 20.2 -16.15 20.2 -15.95 20.25 -15.7 20.3 -15.5 20.4 -15.3 20.4 -14.65 20.4 -14.2 20.4 -13.55 20.4 -13.15 20.4 -12.9 20.45 -12.7 20.55 -12.45 20.7 -12.25 20.85 -11.9 21.05 -11.85 21.2 -11.7 21.7 -11.45 22.0 -11.3 22.4 -11.4 22.9 -11.2 23.25 -11.2 23.45 -11.4 23.35 -11.65 23.2 -11.85 23.15 -12.05 23.15 -12.25 23.1 -12.45 23.0 -12.7 22.8 -12.9 22.4 -13.15 22.3 -13.35 22.2 -13.75 22.15 -14.4 22.15 -14.85 22.15 -15.5 22.15 -16.15 22.15 -16.35 22.15 -16.55 22.05 -16.8 21.85 -17.0 21.8 -17.25 21.75 -17.45 21.75 -17.65 21.75 -17.9 21.7 -18.1 21.55 -18.3 21.25 -18.55 21.1 -18.75 21.05 -18.95 21.05 -19.15 20.95 -19.4 20.75 -19.6 20.7 -19.8 20.6 -19.95 20.45 -20.05 20.4 -20.2 20.05 -20.4 19.8 -20.65 19.4 -20.85 19.05 -21.05 18.75 -21.2 18.35 -21.35 17.9 -21.5 17.5 -21.35 16.8 -21.15 16.6 -20.9 16.4 -20.7 16.3 Q-20.6 16.3 -20.55 16.4 L-20.4 16.85 -20.4 17.35" fill="#ffff99" fill-opacity="0.2" fill-rule="evenodd" stroke="none"/>
    <path d="M23.25 -37.0 L23.2 -37.15 23.45 -37.25 23.65 -37.35 24.1 -37.15 24.5 -36.95 24.95 -36.7 25.15 -36.65 25.4 -36.65 25.6 -36.65 25.8 -36.5 26.0 -36.4 26.25 -36.3 26.45 -36.2 26.7 -36.15 26.9 -36.05 27.55 -35.75 28.15 -35.3 28.85 -34.75 29.05 -34.7 29.3 -34.65 29.5 -34.6 29.7 -34.55 29.9 -34.45 30.15 -34.25 30.35 -34.1 30.55 -34.1 30.8 -34.1 31.0 -34.1 31.4 -33.85 31.9 -33.55 32.1 -33.4 32.3 -33.1 32.55 -32.9 32.75 -32.75 32.95 -32.65 33.15 -32.6 33.35 -32.35 33.7 -31.8 33.8 -31.6 33.9 -31.25 34.05 -30.6 34.25 -30.35 34.45 -29.95 34.7 -29.35 34.9 -29.15 35.1 -28.9 35.35 -28.7 35.5 -28.55 35.55 -28.4 35.65 -28.15 35.75 -27.75 36.0 -27.55 36.15 -27.2 36.0 -26.85 35.75 -26.65 35.55 -26.6 35.35 -26.65 35.1 -26.8 34.9 -27.0 34.7 -27.0 34.45 -27.1 34.25 -27.2 33.6 -27.85 32.95 -28.55 32.35 -29.9 31.95 -30.65 31.05 -31.5 30.2 -32.4 30.0 -32.45 29.8 -32.45 29.55 -32.45 29.15 -32.75 28.7 -33.15 28.5 -33.3 27.15 -34.55 25.85 -35.3 25.45 -35.55 25.25 -35.65 25.0 -35.7 24.8 -35.75 24.6 -35.9 24.4 -36.0 24.15 -36.1 23.95 -36.2 23.7 -36.4 23.5 -36.6 23.3 -36.7 23.25 -37.0" fill="#ffff99" fill-opacity="0.2" fill-rule="evenodd" stroke="none"/>
    <path d="M-9.95 -39.8 L-9.75 -39.65 -9.65 -39.55 -9.5 -39.3 -9.65 -38.95 -9.9 -38.8 -10.1 -38.75 -10.3 -38.65 -10.5 -38.55 -10.75 -38.4 -10.95 -38.25 -11.2 -38.25 -11.4 -38.25 -11.6 -38.25 -11.8 -38.15 -12.05 -38.0 -12.25 -37.95 -12.5 -37.9 -12.7 -37.85 -12.9 -37.85 -13.1 -37.8 -13.35 -37.65 -13.55 -37.6 -13.75 -37.5 -14.0 -37.3 -14.2 -37.1 -14.4 -37.0 -14.5 -36.95 -14.8 -36.5 -15.05 -35.9 -15.3 -35.7 -15.45 -35.65 -15.5 -35.55 -15.65 -35.05 -16.55 -34.2 -17.4 -33.4 -17.8 -33.05 -18.0 -32.75 -18.25 -32.4 -18.45 -32.15 -18.7 -31.95 -18.9 -31.95 -19.1 -31.9 -19.35 -31.65 -19.55 -31.5 -19.75 -31.45 -20.2 -31.45 -20.6 -31.45 -21.05 -31.5 -21.2 -31.65 -21.25 -31.8 -21.3 -32.1 -21.35 -32.1 -21.2 -32.45 -21.0 -32.6 -20.75 -32.7 -20.55 -32.75 -20.35 -32.75 -20.15 -32.8 -19.7 -33.05 -19.45 -33.2 -19.25 -33.45 -18.85 -34.1 -18.6 -34.5 -18.4 -34.7 -17.95 -35.4 -17.3 -36.15 -16.5 -37.6 -15.8 -38.5 -15.15 -38.85 -14.3 -39.25 -13.65 -39.6 -13.4 -39.6 -13.2 -39.6 -13.0 -39.6 -12.75 -39.65 Q-12.65 -39.65 -12.55 -39.75 L-12.35 -39.8 -12.1 -39.85 -11.9 -39.85 -11.7 -39.85 -11.25 -39.8 -11.05 -39.75 -10.8 -39.65 -10.6 -39.7 -10.4 -39.75 -10.15 -39.8 -9.95 -39.8" fill="#ffff99" fill-opacity="0.2" fill-rule="evenodd" stroke="none"/>
    <path d="M-45.95 -12.9 L-45.75 -12.8 -45.75 -12.7 -45.95 -12.6 -46.15 -12.55 -46.35 -12.25 -46.5 -12.0 -46.1 1.3 -46.0 2.35 -45.95 2.45 -45.9 2.8 -45.8 3.95 -45.8 4.55 -45.95 5.05 -46.15 5.25 -46.4 5.35 -46.6 5.4 -46.8 5.4 -47.0 5.3 -47.2 5.15 -47.35 5.05 -47.45 4.9 -47.65 3.9 -47.95 1.7 -48.1 1.55 -48.15 1.45 -48.25 1.05 -48.35 0.7 -48.35 0.55 -48.6 -0.35 -48.75 -0.95 -48.9 -1.15 -49.05 -0.85 -49.1 -0.75 -49.2 -0.35 -49.35 0.15 -49.45 0.5 -49.6 1.0 -49.75 4.1 -49.6 4.55 -49.75 5.05 -49.75 5.6 -49.95 5.85 -50.2 5.8 -50.4 5.7 -50.6 5.35 -50.85 5.2 -51.05 5.05 -51.25 4.7 -51.5 4.45 -51.6 3.95 -51.65 3.95 -51.65 1.05 -51.5 0.55 -51.2 -0.5 -50.9 -1.4 -50.7 -1.95 -50.55 -2.15 -50.6 -4.35 -50.75 -4.6 -50.8 -5.0 -50.85 -10.75 -50.7 -11.2 -50.45 -11.45 -50.25 -11.6 -50.05 -11.7 -49.85 -11.65 -49.6 -11.6 -49.4 -11.55 -49.2 -11.3 -49.05 -11.1 -49.0 -10.75 -48.8 -8.75 -48.65 -8.5 -48.6 -8.15 -48.45 -7.5 -48.2 -6.8 -48.1 -6.5 -48.0 -6.15 -47.85 -5.5 -47.65 -4.85 -47.6 -5.85 -47.25 -12.05 -47.0 -12.55 -46.75 -12.95 -46.6 -13.05 -46.4 -13.05 -46.15 -12.95 -45.95 -12.9" fill="#ffff99" fill-opacity="0.2" fill-rule="evenodd" stroke="none"/>
    <path d="M41.15 24.45 L41.05 24.95 40.8 25.3 40.6 25.5 40.4 25.75 40.15 26.1 39.95 26.45 39.75 26.7 39.55 26.95 39.35 27.25 39.3 27.6 39.15 28.1 38.95 28.3 38.7 28.45 38.3 28.95 38.05 29.2 37.85 29.35 37.65 29.35 37.4 29.35 37.0 29.7 36.55 30.1 36.15 30.4 35.9 30.5 35.7 30.55 35.45 30.75 35.25 30.9 35.05 31.0 34.85 31.05 34.6 31.2 34.4 31.2 34.2 31.2 33.95 31.3 33.75 31.45 33.5 31.55 33.3 31.65 33.1 31.65 32.9 31.65 32.65 31.6 32.45 31.55 32.25 31.65 32.0 31.75 31.8 31.85 31.6 31.85 31.35 31.85 31.15 31.85 31.05 31.75 31.0 31.65 31.0 31.55 31.25 31.45 31.45 31.45 31.55 31.2 31.75 30.9 31.95 30.7 32.15 30.65 32.4 30.6 32.6 30.55 32.8 30.35 33.05 30.2 33.25 30.1 33.45 30.0 33.65 29.9 33.9 29.85 34.1 29.7 34.3 29.4 34.75 29.05 35.15 28.8 35.6 28.45 35.85 28.1 36.05 27.9 Q36.15 27.8 36.3 27.75 L36.5 27.7 36.7 27.65 36.9 27.6 37.15 27.6 37.35 27.25 37.5 27.05 37.55 26.95 37.7 26.6 37.95 26.0 38.15 25.75 38.35 25.6 38.6 25.35 Q38.85 24.7 39.45 24.25 39.85 23.95 40.3 23.75 L40.5 23.7 40.75 23.8 40.95 23.95 41.1 24.15 41.15 24.45" fill="#ffff99" fill-opacity="0.2" fill-rule="evenodd" stroke="none"/>
    <path d="M-39.65 20.8 L-39.45 20.9 -39.2 21.05 -39.0 21.25 -38.85 21.7 -39.0 22.2 -39.2 22.4 -39.45 24.85 -39.55 25.2 -39.8 25.4 -40.0 25.45 -40.2 25.4 -40.45 25.2 -40.6 24.85 -40.8 22.25 -41.0 22.15 -41.25 22.0 -41.9 21.1 -42.75 20.3 -42.95 20.1 -43.35 19.3 -44.05 18.15 -44.2 17.65 Q-44.05 16.05 -44.4 14.5 L-44.35 14.1 -44.4 13.4 -44.5 13.05 -44.35 12.7 -44.1 12.45 -43.9 12.35 -43.7 12.3 -43.5 12.4 -43.25 12.55 -43.1 12.75 -43.05 13.05 -42.95 13.4 -42.8 13.85 -42.7 14.0 -42.6 14.1 -42.35 15.65 -42.15 17.35 -42.05 17.6 -41.85 17.95 -41.75 18.15 -41.6 18.75 -40.95 19.45 -40.1 20.35 -39.65 20.8" fill="#ffff99" fill-opacity="0.2" fill-rule="evenodd" stroke="none"/>
    <path d="M-49.7 5.4 Q-49.3 5.35 -49.2 5.8 L-49.0 6.4 -47.9 8.15 -46.6 9.5 Q-45.45 9.5 -44.85 10.5 L-44.6 10.8 Q-43.6 11.9 -43.8 13.0 L-44.2 13.75 -42.55 20.0 -41.5 20.5 Q-40.85 20.9 -40.55 21.65 L-40.6 22.55 -41.4 23.25 -41.7 23.05 -42.85 21.65 -43.3 21.55 -43.8 20.9 -43.7 20.0 Q-44.1 19.4 -44.1 18.7 L-44.4 17.0 -44.75 15.7 Q-45.15 14.2 -44.95 12.9 L-46.0 11.15 Q-46.6 10.75 -47.0 10.6 -47.35 10.55 -47.55 10.3 L-49.35 8.15 -49.9 6.7 -49.7 5.4 M-47.15 3.4 L-47.55 2.85 Q-47.75 2.05 -47.4 1.5 L-46.6 1.9 Q-46.1 2.9 -46.9 3.6 L-47.15 3.4 M-1.85 39.7 L-1.55 40.15 -1.55 40.55 -1.65 41.2 -2.2 41.65 -2.65 41.25 -2.85 41.05 -2.9 41.0 Q-3.45 40.85 -3.9 41.0 -4.85 41.15 -5.25 40.5 L-4.9 39.85 -1.85 39.7 M-27.3 38.95 Q-25.85 39.2 -24.45 40.2 L-24.0 40.5 -23.15 41.0 Q-20.8 42.2 -18.25 42.15 L-17.7 42.6 Q-20.9 44.35 -24.3 42.45 -24.8 41.4 -25.95 40.8 L-27.3 39.85 Q-27.65 39.45 -27.35 39.05 L-27.3 38.95 M-37.5 27.3 L-39.95 26.35 -41.2 24.85 -40.95 23.8 Q-40.7 23.15 -40.6 23.85 L-40.35 24.6 -39.9 25.3 Q-39.25 26.2 -38.15 26.45 L-37.5 27.3 M-36.95 30.2 L-36.7 31.0 -35.55 32.5 Q-36.65 32.5 -37.45 31.4 L-37.45 31.2 Q-37.7 30.25 -36.95 30.2 M-28.85 36.0 L-28.35 36.25 -27.9 36.9 Q-27.7 37.35 -28.05 37.7 L-28.2 37.75 -29.35 35.9 -28.85 36.0 M-21.25 16.2 L-20.4 18.55 -18.75 20.7 Q-19.95 20.7 -21.05 19.0 -21.55 18.2 -21.65 17.3 L-21.65 16.65 Q-21.6 16.15 -21.25 16.2 M-39.1 11.3 L-38.45 12.35 Q-38.05 13.05 -38.2 13.9 L-39.75 11.75 -39.75 11.3 Q-39.75 10.35 -39.1 10.85 L-39.1 11.3 M-40.15 4.5 L-39.85 5.4 Q-40.1 6.05 -40.55 6.35 -41.55 7.15 -41.5 8.2 L-41.3 8.85 -41.15 9.0 -40.15 10.15 -40.35 11.0 -41.3 11.1 -42.45 10.0 -42.85 8.5 -42.7 8.1 -41.85 6.8 -40.95 5.2 Q-40.75 4.7 -40.15 4.5 M-14.3 22.05 Q-13.35 22.15 -12.55 22.65 L-12.0 22.95 Q-9.8 24.1 -7.35 24.25 L-6.9 25.0 -7.7 25.3 -10.6 25.1 -11.5 24.6 -12.9 23.55 Q-13.55 23.0 -14.3 22.75 -15.15 22.6 -15.2 22.25 L-14.3 22.05 M-29.7 -13.0 L-29.75 -13.85 Q-29.75 -14.7 -28.9 -14.75 L-28.9 -13.2 -27.45 -13.0 Q-27.7 -12.3 -28.45 -12.0 L-29.55 -12.35 -29.7 -13.0 M-21.1 -31.15 L-20.85 -31.0 -21.15 -30.6 -21.9 -29.05 -21.25 -28.0 -21.55 -26.8 -22.3 -27.05 -22.45 -27.65 -22.95 -28.15 -22.95 -28.35 Q-23.2 -30.5 -21.1 -31.15 M-31.5 -33.3 L-31.35 -33.25 -31.15 -33.3 -31.75 -32.25 Q-32.45 -31.25 -33.3 -30.6 L-34.2 -29.85 Q-35.8 -28.45 -36.25 -26.2 -37.9 -24.25 -38.05 -21.45 L-38.2 -21.05 -38.6 -20.1 Q-38.75 -19.2 -39.6 -19.05 L-39.75 -19.5 -39.55 -20.85 -38.95 -24.45 Q-38.6 -25.95 -37.45 -27.05 L-37.4 -27.5 Q-37.0 -28.55 -36.1 -29.45 L-33.3 -31.35 Q-32.35 -32.15 -31.5 -33.1 L-31.5 -33.3 M-24.7 -38.6 Q-24.0 -38.5 -24.15 -38.0 L-24.2 -37.9 Q-26.55 -37.65 -28.55 -36.7 L-28.75 -36.8 Q-28.8 -37.45 -28.45 -37.6 -26.55 -38.4 -24.7 -38.6 M-17.55 -37.2 Q-16.8 -37.85 -16.05 -38.15 L-12.1 -39.45 -11.3 -39.9 Q-10.85 -39.6 -11.3 -39.25 -12.05 -38.55 -12.9 -38.2 L-14.35 -37.55 -15.75 -36.8 Q-16.8 -35.5 -18.25 -34.5 -19.65 -33.45 -20.7 -31.9 L-21.5 -32.2 -21.15 -33.25 Q-21.0 -34.5 -19.9 -35.25 L-18.7 -36.35 -17.55 -37.2 M-15.95 -44.45 L-16.4 -44.2 -18.0 -43.7 -18.95 -43.05 -19.45 -43.0 -19.65 -43.2 Q-19.0 -44.65 -17.2 -44.95 -16.15 -45.15 -15.95 -44.45 M-8.55 -48.15 Q-6.85 -48.1 -5.4 -47.45 L-6.85 -46.95 -8.65 -46.5 -11.25 -45.75 -14.0 -45.55 -19.75 -45.35 -20.4 -45.15 -22.2 -45.0 Q-23.15 -44.7 -23.35 -45.5 L-22.95 -45.7 -22.3 -46.0 -19.8 -46.45 -12.25 -47.15 -11.45 -47.6 -8.55 -48.15 M-45.3 -14.15 Q-45.0 -13.65 -45.35 -13.05 -46.3 -11.35 -46.2 -9.6 L-46.45 -9.2 -46.45 -8.05 -46.55 -6.9 -46.95 -5.25 -47.35 -3.4 -47.65 -2.05 -48.45 -2.0 -48.15 -7.4 -47.75 -8.0 Q-47.35 -8.6 -47.3 -9.3 L-47.25 -9.95 Q-46.9 -11.85 -45.8 -13.45 L-45.8 -13.65 -45.65 -14.0 -45.3 -14.15 M22.65 41.7 Q22.45 41.4 22.75 41.25 23.5 40.8 23.4 41.25 L23.25 41.5 Q23.05 42.3 22.65 41.7 M27.45 31.8 Q28.6 31.5 29.0 32.05 L28.85 32.3 27.25 33.05 25.75 33.2 25.7 33.05 26.2 32.55 Q26.6 32.1 27.45 31.8 M30.5 37.05 L34.4 36.9 34.75 37.05 Q35.05 37.35 34.75 37.7 L34.1 37.95 30.85 38.3 Q30.2 38.45 29.9 37.8 L29.9 37.65 Q30.1 37.15 30.5 37.05 M33.2 31.7 L30.55 31.3 30.65 31.1 33.7 30.9 33.9 31.1 33.8 31.25 33.2 31.7 M3.35 47.25 L2.25 46.85 7.35 46.75 14.25 45.95 16.95 45.05 Q17.45 44.95 17.8 44.6 L18.4 44.1 19.55 43.45 Q20.4 43.0 21.3 42.95 L21.3 44.0 19.35 45.4 17.95 46.25 Q17.0 46.9 15.85 47.1 L12.2 47.85 6.95 47.7 3.35 47.25 M0.3 39.35 L0.4 39.9 0.3 40.5 0.1 40.7 -0.1 40.5 -0.2 39.9 -0.1 39.35 0.1 39.1 0.3 39.35 M6.7 17.25 L6.6 17.0 9.8 16.1 10.65 15.65 12.65 14.4 12.85 13.95 13.05 13.7 13.25 13.5 Q13.45 13.0 14.1 12.9 14.25 13.75 13.5 14.6 L10.95 16.65 Q9.2 17.6 7.6 17.6 L6.7 17.25 M4.15 16.75 Q5.0 16.75 5.65 17.5 L5.05 17.8 2.75 17.8 2.6 17.35 4.15 16.75 M17.1 7.4 L16.4 8.0 16.15 7.4 16.2 7.15 Q16.4 6.25 17.2 6.2 18.1 5.25 18.6 6.4 17.55 6.75 17.1 7.4 M41.95 18.85 L42.2 19.5 Q41.45 20.5 40.95 21.65 40.25 23.25 40.8 24.9 L40.6 25.55 40.25 26.65 37.9 29.8 36.8 30.8 35.2 30.9 35.1 30.7 Q35.9 29.45 36.9 28.35 L39.0 25.45 39.25 25.1 39.7 23.55 39.9 22.45 41.2 19.8 41.95 18.85 M45.35 7.8 L45.35 8.2 Q45.0 9.05 45.2 9.75 45.45 10.7 45.2 11.9 44.7 12.6 44.35 11.9 L44.4 8.45 44.55 8.0 Q44.5 7.15 45.2 6.95 L45.35 7.8 M43.5 -11.25 L43.05 -11.65 Q43.0 -12.55 43.55 -12.15 L43.5 -11.25 M44.7 -7.55 L44.8 -6.5 Q44.95 -5.25 45.35 -4.3 46.0 -2.8 46.8 -1.3 L47.1 2.4 46.6 3.05 46.55 4.55 46.1 5.4 Q45.35 5.55 45.35 4.65 L45.35 2.7 45.85 2.05 45.85 0.95 45.75 0.35 Q45.55 -0.05 45.65 -0.55 L45.25 -1.4 44.65 -2.65 Q44.3 -3.05 44.25 -3.6 L44.15 -4.25 Q43.95 -5.75 44.2 -7.45 L43.65 -8.4 44.7 -7.55 M30.8 -1.15 L30.8 -2.8 31.5 -2.8 31.5 -1.15 30.8 -1.15 M25.95 -19.7 L25.75 -19.5 Q24.8 -19.15 23.65 -19.9 L22.8 -21.05 Q22.55 -22.25 23.3 -22.5 L23.8 -21.0 24.0 -21.15 25.25 -20.8 25.95 -19.7 M39.0 -22.1 L39.75 -22.6 Q40.3 -21.75 39.6 -20.95 L39.0 -22.1 M30.65 -12.95 L30.4 -12.75 Q30.2 -12.55 30.25 -12.15 30.4 -11.35 30.7 -10.6 L31.65 -8.25 31.65 -7.8 31.95 -7.4 31.95 -7.15 Q32.1 -6.3 31.85 -5.65 L31.4 -5.2 30.8 -7.5 30.8 -7.95 Q30.4 -8.3 30.4 -8.8 L30.3 -9.25 Q29.45 -10.9 29.85 -12.6 L29.75 -12.7 29.35 -13.3 27.85 -16.15 27.9 -16.35 28.0 -16.6 28.35 -16.7 28.65 -16.5 Q29.85 -15.5 30.35 -14.0 L30.65 -12.95 M12.35 -34.05 L11.8 -34.5 Q11.45 -34.75 11.6 -35.15 L11.9 -35.3 Q12.65 -35.05 13.5 -34.35 L13.6 -33.7 13.55 -33.05 12.7 -32.8 12.35 -34.05 M17.1 -31.75 L17.4 -31.1 17.25 -30.6 16.45 -31.3 Q15.15 -31.85 13.95 -32.55 L13.7 -32.85 13.95 -32.95 16.1 -32.4 17.1 -31.75 M6.15 -37.45 L7.6 -37.85 Q9.1 -38.5 10.25 -37.5 L11.4 -36.4 11.35 -35.8 10.75 -35.6 Q10.1 -35.6 9.5 -36.05 8.75 -36.7 7.9 -36.4 7.4 -36.2 7.0 -36.4 L5.7 -36.05 2.65 -36.35 2.65 -36.45 Q3.95 -37.2 5.45 -37.0 L6.15 -37.45 M0.4 -47.5 Q1.8 -47.25 2.75 -46.5 L2.65 -46.35 1.75 -46.35 -1.9 -46.7 -3.8 -47.15 -2.8 -47.4 0.4 -47.5 M5.3 -44.8 L5.95 -44.15 5.45 -44.05 4.75 -44.75 4.55 -45.2 5.3 -44.8 M38.05 -27.25 L38.8 -27.25 38.8 -24.0 38.05 -24.0 38.05 -27.25 M23.25 -37.9 L23.45 -37.95 Q27.3 -36.65 30.6 -34.35 L32.4 -34.2 32.95 -33.9 33.9 -33.1 34.85 -31.6 Q35.05 -31.15 35.4 -30.95 36.45 -30.35 36.95 -29.4 L37.2 -29.05 Q37.55 -28.65 37.35 -28.0 L36.6 -27.95 35.55 -28.8 Q33.65 -30.6 32.25 -32.75 L29.95 -33.05 29.35 -34.1 Q28.45 -34.6 27.7 -35.15 L26.85 -35.6 23.55 -37.2 Q22.85 -37.6 23.25 -37.9" fill="#333333" fill-rule="evenodd" stroke="none"/>
    <path d="M32.15 -38.85 L31.0 -38.95 30.25 -39.4 29.0 -40.25 Q28.2 -40.75 27.55 -41.45 L26.8 -41.65 Q25.9 -42.95 24.3 -43.6 23.3 -44.05 22.3 -44.65 L21.4 -45.3 21.2 -45.6 Q21.05 -46.0 20.75 -46.0 20.4 -46.05 20.05 -46.55 L16.8 -47.55 16.2 -47.0 14.05 -47.45 9.05 -47.8 4.1 -48.7 1.35 -49.45 Q-4.7 -49.65 -10.6 -49.15 L-12.65 -48.6 -17.05 -46.45 -17.5 -46.25 Q-19.85 -45.05 -22.3 -44.3 L-23.0 -43.95 Q-24.05 -44.0 -24.8 -43.3 L-25.8 -42.6 -27.0 -41.7 Q-27.55 -41.1 -28.2 -40.65 L-32.3 -38.4 -32.75 -38.5 -33.4 -38.1 -33.45 -38.15 -35.55 -36.05 Q-35.6 -35.35 -36.1 -34.75 -36.8 -33.95 -37.65 -33.25 L-38.1 -32.35 -38.25 -32.0 -39.6 -30.05 -40.25 -29.6 -40.25 -29.2 -40.3 -28.3 Q-40.35 -27.45 -41.0 -26.65 L-41.65 -25.95 -41.9 -25.6 Q-42.25 -25.15 -42.95 -25.0 L-45.35 -22.0 -45.35 -21.55 -45.45 -20.9 -45.75 -20.35 -46.2 -19.4 Q-46.3 -18.0 -46.95 -16.6 -48.6 -12.7 -49.0 -8.55 -49.05 -7.95 -49.25 -7.3 L-49.3 -6.35 -49.3 -5.95 -50.1 -4.2 -50.2 -3.75 -50.25 1.9 -49.4 3.4 -49.85 4.4 -49.55 5.55 -49.35 6.2 -49.25 6.35 Q-48.75 6.95 -48.65 7.7 -48.55 8.3 -47.95 8.7 -47.8 10.55 -48.0 12.8 -48.2 15.05 -47.75 16.6 L-47.15 18.45 -46.05 20.35 Q-45.15 22.0 -44.9 23.85 L-44.65 24.95 -43.4 27.05 Q-42.95 27.65 -43.5 28.1 L-43.1 28.95 -42.75 29.55 -41.85 30.5 -40.9 31.4 -38.5 32.9 Q-37.9 33.15 -37.25 33.55 -37.0 33.65 -36.8 33.85 -34.65 35.45 -32.75 37.35 L-32.25 38.0 Q-31.8 38.65 -31.8 39.5 L-31.05 40.35 -30.05 41.25 -28.75 42.0 -26.75 42.55 Q-23.8 42.45 -22.05 44.9 L-21.35 45.0 -19.8 45.4 Q-16.15 46.95 -12.3 47.8 L-8.25 48.35 -5.1 48.5 Q-2.3 48.1 0.05 49.4 L3.1 49.8 Q6.25 49.8 9.0 48.15 9.75 47.75 10.55 47.55 L16.9 46.65 Q17.2 46.45 17.6 46.65 20.75 46.25 23.8 45.15 L24.1 44.75 25.35 43.4 25.9 43.1 28.05 42.1 29.2 41.8 29.6 41.9 31.1 40.6 32.7 38.05 33.25 37.85 33.45 37.25 34.15 36.85 36.35 35.3 37.35 34.15 Q38.35 32.6 39.7 31.0 L39.7 30.55 40.1 30.2 41.25 28.95 41.7 28.0 Q42.1 26.55 42.9 25.15 L43.4 24.1 43.6 23.65 44.7 22.25 44.95 21.55 45.55 20.85 45.8 20.45 46.15 19.7 46.6 18.7 Q47.3 16.65 47.05 14.65 L47.0 14.65 46.25 14.85 Q45.8 14.95 45.55 15.3 L46.0 14.05 46.65 12.25 47.7 10.0 48.2 8.25 Q48.25 7.85 48.45 7.45 L48.85 6.85 50.45 5.25 50.45 5.05 50.45 4.85 50.45 4.6 50.45 4.4 50.35 3.7 50.05 2.9 49.8 2.45 49.7 1.35 Q49.2 0.1 49.45 -1.2 L49.5 -2.35 49.05 -4.5 Q48.25 -7.05 48.05 -9.7 L47.95 -10.6 47.8 -12.3 47.95 -13.6 48.05 -14.15 48.2 -15.8 47.95 -16.45 47.5 -17.1 45.75 -20.3 45.35 -21.15 44.7 -22.7 44.05 -22.75 43.4 -23.8 43.2 -24.5 43.15 -24.7 43.05 -25.35 42.95 -25.75 42.75 -26.9 42.0 -27.3 40.95 -28.05 Q40.25 -28.45 39.95 -28.95 L39.8 -29.55 38.75 -30.35 38.2 -30.65 Q37.45 -31.0 37.6 -31.6 L37.85 -31.7 37.95 -31.6 39.15 -31.0 39.2 -30.95 38.0 -33.3 32.15 -38.85 M1.85 -50.75 L3.3 -50.45 4.1 -50.15 8.7 -49.35 14.2 -48.85 Q17.65 -48.3 20.75 -47.15 L21.85 -46.45 Q22.9 -45.3 24.35 -44.9 L26.05 -44.15 27.3 -43.0 27.6 -42.6 28.05 -42.5 28.6 -42.1 29.7 -41.3 30.2 -41.05 30.55 -40.8 Q30.3 -40.9 30.5 -40.7 L31.8 -39.9 33.6 -38.85 35.0 -37.65 36.35 -36.4 Q38.55 -34.95 39.8 -32.5 L40.7 -30.75 40.9 -30.15 Q41.1 -29.5 41.8 -29.3 L42.75 -28.75 43.15 -28.2 43.75 -27.05 44.15 -26.15 44.25 -25.75 44.5 -25.3 44.7 -24.9 45.2 -23.85 46.45 -21.25 46.85 -20.2 Q47.0 -19.75 47.3 -19.55 L48.15 -18.7 Q48.85 -17.35 49.2 -15.8 49.4 -15.0 49.2 -14.2 48.75 -12.35 49.25 -10.4 L49.5 -9.15 50.8 -2.65 Q51.0 -1.8 50.8 -1.15 L50.45 -0.5 51.1 1.75 51.5 3.3 51.6 3.8 Q51.85 5.0 51.7 6.15 L49.95 8.1 49.45 9.75 48.3 13.5 Q48.05 14.55 48.2 15.45 48.55 17.35 47.95 19.3 L47.7 19.65 Q47.4 19.85 47.2 20.4 L46.25 22.2 45.9 22.75 45.25 23.7 44.75 24.3 Q43.75 26.0 43.35 27.75 43.05 28.9 42.4 29.7 L42.05 30.1 41.15 31.2 Q41.2 31.8 40.75 32.25 40.25 32.85 39.85 33.7 38.85 35.65 37.0 36.95 36.35 37.35 35.8 37.85 L35.5 38.15 34.35 39.1 33.45 39.5 32.1 41.4 Q31.0 42.4 29.5 43.25 L28.55 43.75 Q27.5 43.75 26.75 44.1 26.1 44.5 25.95 44.9 L25.35 45.55 Q23.75 46.9 21.7 46.95 L18.35 47.7 16.8 48.1 Q12.15 47.95 8.2 49.95 5.35 51.3 2.15 51.0 L1.5 51.15 -0.9 50.8 -2.15 50.55 -4.9 50.7 -9.4 49.95 -12.75 49.15 -14.2 48.7 Q-17.45 47.85 -20.25 46.55 L-21.5 46.35 Q-23.0 46.9 -23.7 45.9 L-25.1 44.7 -27.2 43.9 -29.5 43.1 Q-30.05 43.0 -30.55 42.5 L-31.6 41.5 -32.35 40.85 Q-32.95 40.35 -32.85 39.75 L-33.75 39.0 Q-33.8 38.3 -34.25 37.9 -36.95 35.45 -39.95 33.65 L-41.85 32.1 -43.55 30.3 -43.9 29.9 -44.1 29.5 Q-44.65 28.2 -45.6 27.15 L-46.45 25.75 -46.8 24.5 Q-46.95 23.25 -47.55 21.9 L-48.15 20.6 -48.7 19.3 -48.85 18.9 Q-49.55 14.75 -49.15 10.45 L-49.2 10.0 Q-49.55 8.6 -50.3 7.2 -50.7 6.55 -50.75 5.9 L-50.95 4.85 -51.35 4.2 -51.35 3.55 -51.4 3.1 -51.5 2.6 -51.85 -2.15 Q-51.95 -3.45 -51.5 -4.55 L-51.3 -4.9 -50.8 -5.65 -50.5 -6.25 -50.9 -6.85 -50.8 -7.95 -50.4 -11.6 -49.7 -13.95 -49.15 -15.95 -48.7 -17.0 -48.0 -18.5 Q-47.85 -19.1 -47.85 -19.8 -47.85 -20.3 -47.4 -20.6 -46.8 -20.9 -46.8 -21.35 L-46.8 -22.0 -46.45 -22.6 -46.3 -23.05 -45.45 -24.2 -45.2 -24.35 -45.05 -24.5 -44.55 -24.7 -44.35 -25.25 -41.9 -28.1 -41.7 -29.6 -41.4 -30.5 -40.65 -31.4 -38.85 -33.9 Q-38.3 -34.75 -37.25 -35.1 L-36.6 -35.95 Q-36.5 -36.7 -35.9 -37.25 L-34.75 -38.35 -33.45 -39.1 Q-32.25 -39.65 -31.15 -40.4 L-28.9 -41.9 -27.3 -43.1 -25.95 -44.05 -25.35 -44.5 -24.65 -44.85 -21.75 -45.85 -19.7 -46.15 -18.7 -46.8 -15.8 -48.55 -15.0 -48.9 -14.5 -48.95 Q-13.35 -49.8 -11.95 -50.1 L-6.35 -50.9 -2.4 -50.9 1.85 -50.75" fill="#333333" fill-rule="evenodd" stroke="none"/>
    <path d="M19.15 45.9 L19.2 45.95 19.2 46.05 19.2 46.2 19.2 46.35 19.2 46.45 19.25 46.5 19.25 46.55 19.3 46.6 19.3 46.65 19.3 46.75 19.3 46.85 19.3 46.95 19.35 47.0 19.35 47.1 19.35 47.2 19.3 47.25 19.2 47.3 19.1 47.25 19.0 47.15 18.95 47.1 18.95 47.0 18.95 46.8 18.95 46.65 18.9 46.6 18.9 46.55 18.9 46.4 18.9 46.2 18.9 45.95 18.95 45.9 19.0 45.9 19.05 45.85 19.15 45.9" fill="#333333" fill-rule="evenodd" stroke="none"/>
    <path d="M19.85 44.9 L19.95 44.95 20.0 45.0 20.0 45.1 19.95 45.15 19.95 45.2 19.9 45.25 19.9 45.3 19.85 45.6 19.9 45.9 19.9 46.15 20.1 46.4 20.3 46.65 20.4 46.8 20.4 46.9 20.4 47.0 20.45 47.05 20.45 47.1 20.5 47.15 20.45 47.2 20.5 47.25 20.5 47.3 20.45 47.3 20.35 47.25 20.25 47.25 20.05 46.9 19.75 46.55 19.6 46.35 19.55 46.05 19.55 45.65 19.55 45.3 19.55 45.25 19.6 45.2 19.6 45.1 19.65 45.0 19.75 44.95 19.8 44.9 19.85 44.9" fill="#333333" fill-rule="evenodd" stroke="none"/>
    <path d="M20.5 45.25 L20.6 45.3 20.6 45.35 20.6 45.45 20.55 45.6 20.55 45.7 20.55 45.75 20.55 45.85 20.7 46.0 20.75 46.1 20.8 46.15 20.85 46.3 20.85 46.4 20.9 46.45 20.9 46.5 20.95 46.55 20.9 46.55 20.85 46.5 20.75 46.5 20.65 46.45 20.6 46.4 20.5 46.25 20.35 46.0 20.3 45.9 20.3 45.85 20.3 45.75 20.3 45.65 20.3 45.55 20.35 45.45 20.35 45.4 20.4 45.35 20.4 45.3 20.5 45.3 20.5 45.25" fill="#333333" fill-rule="evenodd" stroke="none"/>
    <path d="M29.55 37.4 L29.6 37.45 29.65 37.5 29.75 37.6 29.9 37.75 30.05 37.9 30.25 38.05 30.3 38.1 30.35 38.15 30.35 38.25 30.35 38.4 30.4 38.45 30.4 38.55 30.3 38.6 30.2 38.55 30.15 38.5 30.05 38.45 30.05 38.4 30.0 38.3 29.9 38.2 29.75 38.05 29.7 38.0 29.65 37.95 29.6 37.9 29.5 37.85 29.4 37.8 29.3 37.75 29.3 37.6 29.3 37.5 29.3 37.45 29.35 37.4 29.45 37.4 29.55 37.4" fill="#333333" fill-rule="evenodd" stroke="none"/>
    <path d="M28.95 38.05 L29.0 38.05 29.05 38.0 29.15 38.05 29.35 38.1 29.4 38.15 29.4 38.25 29.3 38.3 29.2 38.3 29.25 38.35 29.3 38.4 29.45 38.55 29.55 38.6 29.6 38.65 29.6 38.75 29.65 38.8 29.7 38.85 29.7 39.05 29.6 39.05 29.55 39.1 29.45 39.05 29.4 39.0 29.4 38.95 29.35 38.9 29.35 38.85 29.3 38.8 29.25 38.75 29.15 38.7 29.1 38.6 29.05 38.55 28.95 38.45 28.9 38.4 28.9 38.25 28.95 38.15 28.95 38.05" fill="#333333" fill-rule="evenodd" stroke="none"/>
    <path d="M4.85 49.05 L4.9 49.0 4.9 48.9 4.95 48.85 4.95 48.75 4.95 48.65 4.95 48.6 5.0 48.55 5.0 48.5 5.1 48.5 5.1 48.45 5.2 48.5 5.2 48.55 5.25 48.6 5.25 48.65 5.25 48.75 5.25 49.05 5.2 49.1 5.2 49.15 5.15 49.55 5.15 49.9 5.15 50.25 5.1 50.3 5.1 50.4 5.05 50.45 5.05 50.5 4.95 50.55 4.85 50.5 4.85 50.35 4.85 49.95 4.85 49.55 4.85 49.15 4.85 49.05" fill="#333333" fill-rule="evenodd" stroke="none"/>
    <path d="M4.15 48.45 L4.25 48.45 4.25 48.55 4.3 48.6 4.3 48.65 4.25 48.7 4.25 48.8 4.25 48.9 4.25 49.0 4.2 49.1 4.15 49.25 4.15 49.3 4.15 49.55 4.15 49.9 4.15 50.2 4.15 50.25 4.1 50.3 4.1 50.4 4.05 50.45 4.05 50.55 4.0 50.55 3.95 50.6 3.95 50.65 3.9 50.7 3.9 50.75 3.8 50.8 3.85 50.75 3.85 50.65 3.85 50.55 3.8 50.5 3.85 50.1 3.85 49.6 3.85 49.2 3.9 49.15 3.9 49.05 3.95 48.95 3.95 48.75 4.0 48.65 4.0 48.5 4.05 48.45 4.15 48.45" fill="#333333" fill-rule="evenodd" stroke="none"/>
    <path d="M2.75 48.4 L2.75 48.35 2.8 48.3 2.85 48.3 2.9 48.25 3.0 48.3 3.1 48.35 3.15 48.4 3.15 48.5 3.1 48.55 3.1 48.6 3.05 48.65 3.05 48.7 3.05 48.8 3.0 48.9 3.0 49.0 3.0 49.05 2.95 49.1 2.95 49.15 2.9 49.25 2.85 49.3 2.85 49.35 2.8 49.45 2.8 49.5 2.65 49.5 2.6 49.45 2.6 49.35 2.65 49.3 2.65 49.2 2.7 49.1 2.7 48.95 2.75 48.85 2.75 48.75 2.75 48.65 2.8 48.6 2.8 48.55 2.8 48.45 2.75 48.4" fill="#333333" fill-rule="evenodd" stroke="none"/>
    <path d="M-17.65 39.9 L-17.65 39.95 -17.6 40.0 -17.6 40.1 -17.6 40.2 -17.6 40.35 -17.8 40.75 -18.1 41.2 -18.25 41.4 -18.35 41.45 -18.45 41.45 -18.55 41.5 -18.5 41.45 -18.45 41.35 -18.5 41.3 -18.5 41.25 -18.35 41.0 -18.2 40.7 -18.05 40.55 -18.05 40.5 -18.0 40.45 -17.95 40.35 -17.95 40.3 -17.9 40.25 -17.95 40.2 -17.95 40.1 -17.9 40.0 -17.9 39.95 -17.85 39.9 -17.8 39.9 -17.75 39.85 -17.65 39.9" fill="#333333" fill-rule="evenodd" stroke="none"/>
    <path d="M-16.75 40.35 L-16.65 40.2 -16.6 40.2 -16.55 40.15 -16.45 40.2 -16.4 40.25 -16.4 40.35 -16.5 40.45 -16.6 40.6 -16.6 40.7 -16.65 40.75 -16.7 40.8 -16.8 40.85 -16.85 40.9 -16.85 40.95 -16.9 41.05 -16.9 41.15 -16.95 41.3 -16.95 41.35 -17.0 41.4 -17.1 41.5 -17.1 41.55 -17.15 41.6 -17.25 41.6 -17.3 41.55 -17.3 41.5 -17.25 41.45 -17.25 41.25 -17.2 41.15 -17.2 40.95 -17.15 40.85 -17.15 40.75 -17.1 40.7 -17.0 40.6 -16.85 40.5 -16.85 40.45 -16.75 40.35" fill="#333333" fill-rule="evenodd" stroke="none"/>
    <path d="M-18.7 40.25 L-18.75 40.3 -18.75 40.4 -18.85 40.6 -18.95 40.7 -19.05 40.7 -19.1 40.65 -19.05 40.55 -18.95 40.35 -18.9 40.25 -18.9 40.2 -18.9 40.1 -18.85 40.05 -18.75 40.05 -18.7 40.1 -18.7 40.25" fill="#333333" fill-rule="evenodd" stroke="none"/>
    <path d="M-12.9 43.45 L-12.8 43.35 -12.8 43.3 -12.7 43.3 -12.6 43.35 -12.55 43.45 -12.55 43.55 -12.55 43.65 -12.6 43.75 -12.6 43.8 -12.65 43.85 -12.65 44.0 -12.7 44.1 -12.7 44.2 -12.7 44.25 -12.85 44.25 -12.9 44.2 -12.9 44.15 -12.9 44.05 -12.9 43.95 -12.9 43.85 -12.9 43.75 -12.85 43.7 -12.8 43.65 -12.8 43.6 -12.85 43.55 -12.9 43.5 -12.9 43.45" fill="#333333" fill-rule="evenodd" stroke="none"/>
    <path d="M-11.7 42.75 L-11.65 42.65 -11.6 42.65 -11.55 42.6 -11.45 42.65 -11.4 42.7 -11.35 42.75 -11.35 42.8 -11.45 43.35 -11.6 43.95 -11.65 44.45 -11.7 44.5 -11.7 44.6 -11.75 44.65 -11.85 44.75 -11.85 44.8 -11.9 44.85 -11.95 44.9 -12.05 44.95 -12.1 44.9 -12.1 44.8 -12.1 44.7 -12.05 44.65 -12.0 44.6 -11.95 44.25 -11.9 43.75 -11.8 43.35 -11.8 43.25 -11.75 43.1 -11.7 42.95 -11.7 42.85 -11.7 42.75" fill="#333333" fill-rule="evenodd" stroke="none"/>
    <path d="M-10.65 43.65 L-10.6 43.6 -10.55 43.6 -10.45 43.65 -10.4 43.7 -10.4 43.8 -10.35 43.85 -10.35 44.05 -10.35 44.15 -10.4 44.2 -10.4 44.3 -10.5 44.4 -10.55 44.45 -10.55 44.5 -10.6 44.5 -10.65 44.55 -10.75 44.5 -10.75 44.45 -10.8 44.4 -10.75 44.35 -10.7 44.25 -10.7 44.2 -10.65 44.15 -10.65 43.85 -10.7 43.8 -10.7 43.75 -10.65 43.7 -10.65 43.65" fill="#333333" fill-rule="evenodd" stroke="none"/>
    <path d="M-6.35 24.15 L-6.2 24.15 -6.2 24.1 -6.1 24.15 -6.0 24.2 -6.0 24.35 -6.05 24.4 -6.15 24.4 -6.2 24.5 -6.2 24.6 -6.2 24.7 -6.2 24.8 -6.25 24.85 -6.25 24.9 -6.35 24.95 -6.45 24.9 -6.5 24.85 -6.5 24.75 -6.5 24.65 -6.5 24.55 -6.5 24.5 -6.5 24.4 -6.5 24.35 -6.45 24.3 -6.45 24.25 -6.4 24.2 -6.35 24.15" fill="#333333" fill-rule="evenodd" stroke="none"/>
    <path d="M-4.7 24.4 L-4.7 24.45 -4.7 24.55 -4.75 24.6 -4.75 24.75 -4.8 24.8 -4.8 24.85 -4.9 24.9 -5.0 24.85 -5.05 24.8 -5.05 24.5 -5.0 24.4 -4.9 24.35 -4.8 24.35 -4.7 24.4" fill="#333333" fill-rule="evenodd" stroke="none"/>
    <path d="M-36.65 28.25 L-36.6 28.3 -36.6 28.35 -36.65 28.4 -36.65 28.5 -36.75 28.6 -36.85 28.75 -36.9 28.8 -36.9 28.85 -36.95 28.9 -36.95 28.95 -37.05 29.0 -37.1 29.05 -37.2 29.1 -37.25 29.1 -37.3 29.05 -37.15 28.8 -37.0 28.6 -36.85 28.35 -36.85 28.3 -36.8 28.25 -36.8 28.2 -36.65 28.2 -36.65 28.25" fill="#333333" fill-rule="evenodd" stroke="none"/>
    <path d="M-35.35 28.25 L-35.25 28.3 -35.25 28.35 -35.2 28.4 -35.25 28.45 -35.25 28.5 -35.5 28.65 -35.65 28.85 -35.7 28.9 -35.8 28.95 -36.0 29.05 -36.25 29.35 -36.5 29.65 -36.75 29.85 -36.8 29.85 -36.85 29.95 -36.9 30.0 -36.95 30.05 -37.0 30.1 -37.1 30.1 -37.15 30.05 -37.15 29.95 -37.05 29.8 -36.95 29.7 -36.95 29.65 -36.7 29.4 -36.45 29.1 -36.35 28.9 -36.3 28.85 -35.8 28.55 -35.55 28.35 -35.45 28.25 -35.35 28.25" fill="#333333" fill-rule="evenodd" stroke="none"/>
    <path d="M-34.35 28.9 L-34.3 28.95 -34.35 29.0 -34.35 29.05 -35.0 29.7 -35.5 30.45 -35.9 30.9 -35.95 30.95 -36.0 30.95 -36.05 31.05 -36.1 31.1 -36.2 31.1 -36.2 30.95 -36.15 30.9 -36.15 30.8 -35.75 30.2 -35.25 29.55 -34.9 29.1 -34.85 29.05 -34.75 29.0 -34.7 28.95 -34.6 28.9 -34.55 28.85 -34.45 28.8 -34.35 28.85 -34.35 28.9" fill="#333333" fill-rule="evenodd" stroke="none"/>
    <path d="M-33.1 34.25 L-33.1 34.35 -33.1 34.45 -33.1 34.55 -33.15 34.6 -33.2 34.7 -33.25 34.7 -33.35 34.75 -33.4 34.75 -33.4 34.7 -33.4 34.6 -33.4 34.2 -33.35 34.15 -33.25 34.1 -33.15 34.15 -33.1 34.2 -33.1 34.25" fill="#333333" fill-rule="evenodd" stroke="none"/>
    <path d="M-31.15 33.5 L-31.15 33.6 -31.15 33.7 -31.1 33.75 -31.7 34.65 -32.5 35.4 -32.9 35.85 -33.0 35.9 -33.05 35.95 -33.15 36.0 -33.25 35.95 -33.3 35.9 -33.3 35.8 -33.25 35.75 -33.25 35.65 -32.45 34.75 -31.75 34.05 -31.55 33.8 -31.55 33.75 -31.55 33.65 -31.5 33.6 -31.45 33.5 -31.4 33.45 -31.3 33.45 -31.2 33.45 -31.15 33.5" fill="#333333" fill-rule="evenodd" stroke="none"/>
    <path d="M-30.5 35.35 L-30.5 35.4 -30.55 35.45 -30.55 35.5 -30.75 35.65 -30.9 35.9 -30.95 35.95 -31.0 36.0 -31.2 36.1 -31.25 36.15 -31.35 36.2 -31.45 36.15 -31.5 36.1 -31.5 36.0 -31.4 35.9 -31.3 35.85 -31.2 35.6 -30.95 35.35 -30.85 35.25 -30.85 35.2 -30.8 35.15 -30.75 35.0 -30.7 34.95 -30.6 34.95 -30.5 34.95 -30.45 35.0 -30.45 35.05 -30.45 35.15 -30.45 35.25 -30.5 35.35" fill="#333333" fill-rule="evenodd" stroke="none"/>
    <path d="M-47.55 14.95 L-47.0 14.8 -46.6 14.65 -46.5 14.65 -46.45 14.65 -46.35 14.6 -46.25 14.6 -46.2 14.7 -46.2 14.8 -46.7 14.95 -47.2 15.15 -47.4 15.2 -47.45 15.25 -47.5 15.3 -47.55 15.3 -47.65 15.3 -47.7 15.35 -47.8 15.3 -47.8 15.25 -47.85 15.2 -47.8 15.15 -47.75 15.1 -47.65 15.05 -47.55 14.95" fill="#333333" fill-rule="evenodd" stroke="none"/>
    <path d="M-46.7 15.4 L-46.3 15.3 -46.2 15.25 -46.15 15.25 -46.0 15.25 -45.9 15.3 -45.9 15.35 -45.85 15.4 -45.9 15.45 -45.9 15.5 -45.9 15.6 -45.95 15.6 -46.05 15.65 -46.15 15.6 -46.2 15.65 -46.3 15.65 -47.2 15.95 -47.9 16.3 -48.0 16.3 -48.05 16.35 -48.15 16.35 -48.15 16.25 -48.1 16.2 -48.1 16.05 -47.35 15.7 -46.8 15.4 -46.7 15.4" fill="#333333" fill-rule="evenodd" stroke="none"/>
    <path d="M-45.65 16.5 L-45.65 16.55 -45.7 16.6 -45.75 16.65 -45.9 16.7 -46.0 16.7 -46.2 16.8 -46.3 16.9 -46.4 16.95 -46.45 17.0 -46.55 17.05 -46.6 17.1 -46.65 17.1 -46.75 17.05 -46.8 17.0 -46.8 16.9 -46.75 16.85 -46.65 16.75 -46.65 16.7 -46.45 16.6 -46.35 16.55 -46.15 16.45 -46.05 16.4 -46.0 16.4 -45.9 16.45 -45.7 16.45 -45.65 16.5" fill="#333333" fill-rule="evenodd" stroke="none"/>
    <path d="M-48.6 -1.3 L-48.25 -1.4 -47.7 -1.6 -47.55 -1.6 -47.45 -1.6 -47.35 -1.55 -47.3 -1.5 -47.25 -1.45 -47.25 -1.3 -47.3 -1.25 -47.3 -1.2 -47.7 -1.1 -48.3 -0.9 -48.4 -0.85 -48.45 -0.8 -48.55 -0.75 -48.7 -0.7 -48.8 -0.7 -48.85 -0.75 -48.9 -0.85 -48.95 -0.9 -48.9 -0.95 -48.85 -1.05 -48.7 -1.2 -48.6 -1.3" fill="#333333" fill-rule="evenodd" stroke="none"/>
    <path d="M-48.55 -0.35 L-48.5 -0.4 -48.4 -0.45 -48.35 -0.5 -48.3 -0.5 -48.0 -0.55 -47.95 -0.6 -47.9 -0.6 -47.8 -0.6 -47.8 -0.65 -47.3 -0.65 -47.25 -0.6 -47.05 -0.6 -46.95 -0.55 -46.9 -0.5 -46.7 -0.45 -46.65 -0.45 -46.7 -0.4 -46.95 -0.35 -47.0 -0.35 -47.3 -0.3 -47.9 -0.25 -47.95 -0.2 -48.0 -0.2 -48.1 -0.15 -48.3 -0.1 -48.35 -0.1 -48.45 -0.15 -48.55 -0.2 -48.55 -0.25 -48.6 -0.3 -48.55 -0.35" fill="#333333" fill-rule="evenodd" stroke="none"/>
    <path d="M-47.8 0.4 L-47.9 0.35 -47.95 0.3 -47.95 0.25 -47.9 0.2 -47.8 0.15 -47.7 0.1 -47.55 0.05 -47.3 0.05 -47.2 0.1 -47.2 0.25 -47.25 0.25 -47.65 0.35 -47.75 0.35 -47.8 0.4" fill="#333333" fill-rule="evenodd" stroke="none"/>
    <path d="M-41.6 -23.35 L-42.4 -23.6 -42.7 -23.75 -42.75 -23.75 -42.85 -23.75 -42.95 -23.8 -43.05 -23.9 -43.05 -24.0 -42.95 -24.1 -42.85 -24.1 -42.75 -24.1 -42.6 -24.1 -42.4 -24.05 -42.25 -23.95 -42.05 -23.9 -42.0 -23.85 -41.4 -23.8 -40.85 -23.65 -40.7 -23.55 -40.65 -23.5 -40.6 -23.45 -40.6 -23.35 -40.65 -23.3 -40.7 -23.25 -40.8 -23.2 -40.9 -23.2 -41.0 -23.25 -41.05 -23.25 -41.6 -23.35" fill="#333333" fill-rule="evenodd" stroke="none"/>
    <path d="M-41.65 -24.8 L-41.6 -24.85 -41.55 -24.85 -41.4 -24.85 -41.3 -24.8 -41.15 -24.75 -41.1 -24.7 -40.9 -24.6 -40.9 -24.55 -40.85 -24.5 -40.9 -24.45 -40.9 -24.4 -41.0 -24.35 -41.1 -24.4 -41.2 -24.45 -41.3 -24.5 -41.4 -24.5 -41.55 -24.55 -41.65 -24.55 -41.7 -24.6 -41.7 -24.7 -41.7 -24.8 -41.65 -24.8" fill="#333333" fill-rule="evenodd" stroke="none"/>
    <path d="M-42.85 -22.9 L-42.8 -22.95 -42.7 -22.95 -42.4 -22.95 -42.3 -22.95 -42.15 -22.9 -42.1 -22.85 -42.0 -22.75 -41.9 -22.7 -41.85 -22.65 -41.85 -22.6 -41.9 -22.55 -42.0 -22.55 -42.15 -22.6 -42.25 -22.6 -42.35 -22.6 -42.4 -22.65 -42.7 -22.65 -42.8 -22.65 -42.9 -22.65 -42.95 -22.7 -42.95 -22.8 -42.85 -22.9" fill="#333333" fill-rule="evenodd" stroke="none"/>
    <path d="M-17.5 -35.35 L-17.45 -35.35 -17.35 -35.3 -16.95 -35.1 -16.65 -34.95 -16.45 -34.85 -16.4 -34.8 -16.35 -34.75 -16.25 -34.65 -16.2 -34.6 -16.2 -34.45 -16.3 -34.4 -16.4 -34.45 -16.5 -34.5 -16.55 -34.55 Q-16.65 -34.55 -16.75 -34.65 L-17.0 -34.75 -17.2 -34.85 -17.3 -34.9 -17.4 -34.95 -17.5 -34.95 -17.6 -35.0 -17.65 -35.05 -17.65 -35.25 -17.6 -35.3 -17.5 -35.35" fill="#333333" fill-rule="evenodd" stroke="none"/>
    <path d="M-15.85 -35.9 L-15.75 -35.85 -15.75 -35.7 -15.8 -35.65 -15.85 -35.65 -16.3 -35.8 -16.65 -35.95 -16.85 -36.05 -16.85 -36.25 -16.75 -36.3 -16.65 -36.3 -16.55 -36.3 -16.3 -36.1 -16.05 -36.0 -16.0 -35.95 -15.85 -35.9" fill="#333333" fill-rule="evenodd" stroke="none"/>
    <path d="M-0.55 -46.95 L-0.5 -46.9 -0.5 -46.85 -0.45 -46.55 -0.45 -46.15 -0.45 -45.8 -0.5 -45.75 -0.5 -45.65 -0.55 -45.6 -0.55 -45.5 -0.6 -45.45 -0.65 -45.45 -0.7 -45.4 -0.8 -45.35 -0.8 -45.4 -0.8 -45.5 -0.85 -45.55 -0.85 -45.95 -0.85 -46.45 -0.8 -46.9 -0.8 -46.95 -0.75 -46.95 -0.7 -47.0 -0.65 -47.0 -0.55 -46.95" fill="#333333" fill-rule="evenodd" stroke="none"/>
    <path d="M0.75 -46.85 L0.75 -46.8 0.8 -46.75 0.8 -46.6 0.75 -46.55 0.75 -46.5 0.7 -46.45 0.7 -46.4 0.65 -46.3 0.65 -46.2 0.6 -46.15 0.6 -46.1 0.55 -46.05 0.55 -45.95 0.45 -45.9 0.35 -45.95 0.35 -46.05 0.3 -46.1 0.3 -46.25 0.35 -46.3 0.35 -46.4 0.35 -46.45 0.4 -46.5 0.4 -46.55 0.45 -46.6 0.45 -46.85 0.5 -46.9 0.6 -46.95 0.7 -46.9 0.75 -46.85" fill="#333333" fill-rule="evenodd" stroke="none"/>
    <path d="M10.65 -47.0 L10.75 -47.05 10.85 -47.0 10.85 -46.95 10.9 -46.9 10.9 -46.75 10.85 -46.7 10.85 -46.5 10.8 -46.45 10.8 -46.35 10.75 -46.3 10.7 -46.25 10.65 -46.25 10.55 -46.25 10.45 -46.3 10.45 -46.35 10.5 -46.45 10.5 -46.5 10.55 -46.55 10.55 -46.6 10.55 -46.7 10.6 -46.8 10.6 -46.9 10.6 -46.95 10.65 -47.0" fill="#333333" fill-rule="evenodd" stroke="none"/>
    <path d="M11.45 -47.3 L11.5 -47.35 11.6 -47.35 11.65 -47.3 11.65 -47.2 11.65 -47.1 11.65 -46.95 11.65 -46.9 11.6 -46.6 11.5 -46.25 11.45 -46.0 11.45 -45.95 11.4 -45.9 11.4 -45.8 11.35 -45.75 11.3 -45.65 11.3 -45.6 11.25 -45.5 11.25 -45.4 11.2 -45.35 11.15 -45.3 11.1 -45.35 11.1 -45.45 11.15 -45.55 11.15 -45.65 11.15 -45.75 11.15 -45.85 11.2 -45.9 11.2 -46.0 11.25 -46.05 11.35 -46.5 11.45 -46.95 11.45 -47.3" fill="#333333" fill-rule="evenodd" stroke="none"/>
    <path d="M12.55 -46.8 L12.55 -46.55 12.45 -46.2 12.4 -45.9 12.35 -45.85 12.35 -45.8 12.3 -45.75 12.25 -45.65 12.2 -45.6 12.2 -45.45 12.1 -45.45 12.1 -45.55 12.15 -45.6 12.15 -45.65 12.1 -45.7 12.05 -45.75 12.05 -45.8 12.1 -46.1 12.2 -46.4 12.25 -46.65 12.25 -46.8 12.3 -46.85 12.35 -46.85 12.4 -46.9 12.5 -46.85 12.55 -46.8" fill="#333333" fill-rule="evenodd" stroke="none"/>
    <path d="M16.5 -46.1 L16.6 -46.2 16.65 -46.2 16.7 -46.25 16.8 -46.2 16.85 -46.15 16.85 -46.05 16.8 -46.0 16.75 -45.95 16.7 -45.9 16.7 -45.8 16.65 -45.75 16.6 -45.65 16.6 -45.55 16.55 -45.5 16.55 -45.45 16.5 -45.4 16.4 -45.35 16.35 -45.3 16.3 -45.25 16.25 -45.25 16.2 -45.3 16.2 -45.35 16.25 -45.4 16.25 -45.45 16.25 -45.55 16.25 -45.6 16.3 -45.65 16.3 -45.7 16.35 -45.75 16.35 -45.8 16.4 -45.85 16.4 -46.0 16.5 -46.1" fill="#333333" fill-rule="evenodd" stroke="none"/>
    <path d="M18.5 -46.25 L18.55 -46.2 18.55 -46.1 18.55 -45.95 18.5 -45.9 18.05 -45.3 17.6 -44.65 17.35 -44.35 17.25 -44.3 17.2 -44.3 17.15 -44.25 17.1 -44.15 17.05 -44.1 17.0 -44.05 16.9 -44.05 16.85 -44.15 16.85 -44.25 16.95 -44.35 17.0 -44.45 17.15 -44.7 17.35 -45.0 17.55 -45.2 17.75 -45.5 17.9 -45.8 18.2 -46.05 18.25 -46.1 18.25 -46.2 18.3 -46.25 18.4 -46.25 18.5 -46.25" fill="#333333" fill-rule="evenodd" stroke="none"/>
    <path d="M19.45 -45.15 L19.35 -45.1 19.25 -45.05 19.15 -44.95 19.15 -44.85 19.1 -44.8 19.1 -44.75 19.05 -44.7 19.05 -44.6 19.0 -44.55 18.9 -44.5 18.9 -44.45 18.85 -44.45 18.8 -44.5 18.8 -44.75 18.85 -44.8 18.85 -44.9 18.9 -44.95 18.9 -45.0 18.95 -45.05 18.95 -45.1 19.0 -45.15 19.0 -45.2 19.1 -45.25 19.15 -45.3 19.25 -45.3 19.25 -45.35 19.4 -45.3 19.45 -45.25 19.45 -45.15" fill="#333333" fill-rule="evenodd" stroke="none"/>
  </g>
</svg>
