<?xml version="1.0" encoding="UTF-8" standalone="no"?>
<svg xmlns:xlink="http://www.w3.org/1999/xlink" height="32.05px" width="12.05px" xmlns="http://www.w3.org/2000/svg">
  <g transform="matrix(1.0, 0.0, 0.0, 1.0, 6.0, 16.0)">
    <path d="M4.35 -0.3 L5.05 0.05 Q6.8 7.85 3.05 14.1 L2.65 14.3 Q1.15 15.9 -0.85 15.6 L-1.9 15.4 -2.35 14.9 -3.9 14.45 Q-6.1 6.4 -4.35 -2.05 -2.15 -4.35 1.1 -3.2 3.05 -2.6 4.3 -1.0 L4.35 -0.3 M-0.05 0.0 Q-0.9 0.25 -1.65 0.75 L-2.25 0.65 -2.4 11.25 0.9 12.2 2.05 11.15 2.25 9.55 2.35 8.85 1.75 -0.3 -0.05 0.0" fill="#a28c88" fill-rule="evenodd" stroke="none"/>
    <path d="M5.75 0.4 L5.75 0.95 5.75 1.9 5.75 2.65 5.65 2.8 5.55 3.0 5.5 3.2 5.45 3.35 5.4 3.55 5.3 3.75 5.25 3.95 5.25 4.15 5.25 4.3 5.25 4.5 5.25 4.7 5.15 4.85 5.05 5.05 5.0 5.25 5.0 5.45 5.0 5.65 4.9 5.8 4.8 6.0 4.65 6.2 4.45 6.35 4.3 6.5 4.15 6.55 3.85 6.6 3.35 6.65 3.1 6.65 2.65 6.5 2.4 6.3 2.3 6.2 2.1 6.15 1.65 6.0 1.4 5.8 1.3 5.6 1.25 5.45 1.25 5.25 1.25 5.05 1.3 4.9 1.4 4.7 1.65 4.5 2.05 4.3 2.15 4.15 2.0 3.95 1.85 3.75 1.85 3.2 1.85 2.45 1.85 1.3 1.85 0.55 1.95 0.4 2.05 0.2 2.1 0.0 2.25 -0.2 2.25 -0.35 2.3 -0.55 2.35 -0.75 2.55 -0.95 2.75 -1.1 2.75 -1.3 2.75 -1.5 2.75 -1.7 2.8 -1.85 2.9 -2.05 3.15 -2.25 3.6 -2.35 4.05 -2.25 4.25 -2.05 4.5 -1.9 4.85 -1.7 5.05 -1.5 5.15 -1.3 5.3 -1.1 5.35 -0.95 5.4 -0.75 5.5 -0.55 5.6 -0.35 5.65 -0.2 5.75 0.4" fill="#663300" fill-opacity="0.2" fill-rule="evenodd" stroke="none"/>
    <path d="M4.35 4.15 L4.6 4.25 4.65 4.3 5.0 4.45 5.15 4.65 5.25 4.8 5.3 5.0 5.35 5.4 5.35 5.55 5.3 5.75 5.15 5.95 5.25 6.1 5.45 6.5 5.65 6.9 5.9 7.45 6.0 8.2 6.0 9.15 6.0 10.25 6.0 10.8 5.9 11.0 5.85 11.2 5.8 11.4 5.7 11.55 5.6 11.75 5.5 11.95 5.4 12.15 5.25 12.3 4.9 12.7 4.65 13.05 4.35 13.45 4.05 13.6 Q3.9 13.7 3.8 13.75 L3.65 13.8 3.35 13.85 3.1 13.9 2.65 13.75 2.4 13.55 2.3 13.4 2.25 13.2 2.25 13.0 2.25 12.65 2.25 12.45 2.25 12.25 2.35 12.05 2.5 11.9 2.8 11.7 2.95 11.5 3.1 11.3 3.4 10.95 3.45 10.75 3.5 10.55 3.5 10.4 3.5 10.2 3.5 10.0 3.6 9.8 3.4 9.65 3.05 9.45 2.85 9.25 2.65 9.05 2.55 8.9 2.5 8.7 2.5 8.5 2.45 8.3 2.4 8.15 2.35 7.95 2.25 7.75 2.25 7.55 2.25 7.4 2.15 7.2 2.0 7.0 1.85 6.8 1.8 6.6 1.8 6.45 1.8 6.25 1.8 6.05 1.85 5.9 2.05 5.7 2.15 5.55 2.3 5.5 2.65 5.4 2.8 5.2 2.8 5.0 2.8 4.8 2.85 4.65 2.95 4.45 3.05 4.25 3.15 4.15 3.3 4.1 3.6 4.05 3.6 4.0 4.0 4.15 4.35 4.15" fill="#663300" fill-opacity="0.2" fill-rule="evenodd" stroke="none"/>
    <path d="M-2.25 -0.2 L-2.0 0.0 -1.9 0.2 -1.85 0.4 -1.8 0.55 -1.75 0.75 -1.8 0.95 -1.85 1.15 -1.8 1.3 -1.7 1.5 -1.65 1.7 -1.65 1.9 -1.65 2.05 -1.7 2.25 -1.8 2.45 -1.9 2.65 -1.9 2.8 -1.9 3.0 -1.9 3.2 -1.9 3.55 -1.9 3.75 -1.95 3.95 -2.0 4.15 -2.1 4.3 -2.1 5.65 -2.05 7.3 -2.15 9.2 -2.2 9.35 -2.35 9.55 -2.45 9.7 -2.6 9.75 -2.9 9.8 -3.15 9.8 -3.6 9.7 -3.75 9.5 -3.9 9.3 -3.95 9.15 -3.95 8.95 -3.95 8.75 -3.9 8.55 -3.8 8.4 -3.7 8.2 -3.7 7.25 -3.7 5.95 -3.7 4.65 -3.7 4.45 -3.8 4.25 -3.95 4.05 -4.35 3.7 -4.65 3.3 -4.7 2.95 -4.7 2.4 -4.7 1.8 -4.7 1.45 -4.55 1.1 -4.0 0.5 -3.35 -0.2 -3.2 -0.25 -2.9 -0.3 -2.65 -0.3 -2.25 -0.2" fill="#663300" fill-opacity="0.2" fill-rule="evenodd" stroke="none"/>
    <path d="M-1.6 2.6 L-1.4 2.55 -1.25 2.55 -1.15 2.75 -1.25 2.95 -1.25 3.1 -1.2 3.3 -1.35 3.5 -1.45 3.7 -1.5 3.9 -1.55 4.05 -1.6 4.25 -1.7 4.45 -1.9 4.65 -2.15 5.35 -2.3 6.1 -2.35 6.8 -2.3 6.85 -1.95 7.0 -1.8 7.2 -1.65 7.4 -1.6 7.55 -1.55 7.75 -1.5 7.95 -1.5 8.15 -1.55 8.3 -1.6 8.5 -1.65 8.7 -1.75 8.9 -1.75 9.45 -1.75 10.0 -1.8 10.75 -1.85 10.95 -1.75 11.1 -1.65 11.3 -1.6 11.5 -1.55 11.7 -1.5 11.9 -1.4 12.05 -1.2 12.25 -1.1 12.45 -1.0 12.65 -1.05 12.8 -1.1 13.0 -1.15 13.2 -1.25 13.4 -1.45 13.5 -1.6 13.55 -1.9 13.6 -2.15 13.65 -2.6 13.5 -2.85 13.3 -3.0 13.1 -3.1 13.0 -3.15 12.95 -3.4 12.85 -3.85 12.75 -4.25 12.35 -4.5 12.0 -4.5 11.8 -4.6 11.65 -4.75 11.4 -4.85 11.25 -4.85 11.05 -4.8 10.9 -4.75 10.7 -4.7 10.5 -4.5 10.3 -4.5 9.95 -4.5 9.55 -4.5 9.2 -4.5 9.0 -5.1 8.75 -5.75 8.4 -5.9 8.2 -6.0 8.0 -6.0 7.8 -6.0 7.65 -6.0 7.45 -6.0 7.25 -6.0 7.05 -5.95 6.9 -5.85 6.7 -5.75 6.5 -5.7 6.3 -5.6 6.1 -5.5 5.95 -5.4 5.75 -5.2 5.55 -4.85 5.35 -4.35 5.0 -3.9 4.85 -3.6 4.75 -3.45 4.55 -3.35 4.35 -3.25 4.2 -3.15 4.0 -2.9 3.8 -2.75 3.6 -2.65 3.45 -2.4 3.25 -2.15 3.05 -2.0 2.9 -1.85 2.7 -1.6 2.6" fill="#663300" fill-opacity="0.2" fill-rule="evenodd" stroke="none"/>
    <path d="M5.1 2.3 L5.2 4.4 5.15 6.8 5.15 9.05 5.05 9.45 4.85 10.0 4.7 10.55 4.6 10.95 4.55 11.1 4.45 11.3 4.4 11.5 4.45 11.7 4.45 11.85 4.4 12.05 4.3 12.25 4.1 12.45 3.9 12.8 3.75 13.2 3.7 13.35 3.65 13.55 3.55 13.75 3.35 13.95 3.0 14.15 2.75 14.3 2.55 14.5 2.1 14.7 1.9 14.8 1.6 14.9 1.15 14.75 0.8 14.75 0.65 14.95 0.45 15.1 0.3 15.25 0.15 15.3 -0.15 15.35 -0.4 15.4 -0.85 15.25 -1.1 15.05 -1.2 14.85 -1.25 14.7 -1.45 14.75 -1.6 14.8 -1.9 14.9 -2.35 14.75 -2.7 14.55 -3.0 14.4 -3.15 14.2 -3.25 14.0 -3.25 13.65 -3.25 12.9 -3.25 12.3 -3.2 11.95 -3.25 11.75 -3.35 11.55 -3.45 11.4 -3.5 11.0 -3.5 10.25 -3.5 9.5 -3.45 9.15 -3.4 8.95 -3.25 8.75 -3.25 8.2 -3.25 7.25 -3.25 6.3 -3.25 5.95 -3.25 5.75 -3.15 5.55 -3.1 5.4 -3.0 4.6 -3.0 3.5 -3.0 2.4 -3.0 2.2 -3.0 2.0 -2.9 1.8 -2.85 1.65 -2.8 1.45 -2.75 1.05 -2.75 0.5 -2.75 -0.05 -2.75 -0.25 -2.65 -0.45 -2.5 -0.6 -2.35 -0.75 -2.2 -0.8 -1.9 -0.85 -1.45 -0.75 -1.3 -0.55 -1.15 -0.35 -1.1 -0.2 -1.0 0.4 -1.0 1.3 -1.05 2.25 -1.1 2.45 -1.15 2.6 -1.25 2.8 -1.25 4.7 -1.25 6.95 -1.35 8.8 -1.4 9.0 -1.5 9.2 -1.5 9.35 -1.4 9.55 -1.35 9.75 -1.3 10.15 -1.25 10.7 -1.25 11.25 -1.25 11.65 -1.25 11.8 -1.15 12.0 -0.65 12.15 -0.2 12.25 0.0 12.45 0.3 12.6 0.55 12.75 0.65 12.8 1.65 12.75 1.95 12.55 2.0 12.4 2.05 12.2 2.3 11.8 2.6 11.25 2.75 11.05 2.8 10.9 2.85 10.7 3.0 10.5 3.0 10.3 3.05 10.15 3.1 9.95 3.25 9.55 3.35 9.4 3.4 9.2 3.5 9.0 3.55 8.8 3.55 8.45 3.55 7.9 3.55 7.3 3.55 6.95 3.45 6.75 3.3 6.55 3.1 6.4 3.05 6.2 3.05 6.0 3.05 5.65 3.05 5.3 2.85 5.3 2.35 5.3 2.1 5.3 1.65 5.2 1.5 5.0 1.35 4.8 1.3 4.6 1.3 4.45 1.3 4.25 1.3 4.05 1.35 3.9 1.55 3.7 1.9 3.3 2.05 3.15 2.05 2.95 2.05 2.75 2.15 2.55 2.3 2.4 2.3 2.2 2.3 2.0 2.3 1.8 2.35 1.65 2.55 1.45 2.75 1.25 2.8 0.7 2.8 -0.25 2.8 -1.2 2.8 -1.55 2.8 -1.75 2.9 -1.95 3.1 -2.1 3.3 -2.25 3.6 -2.3 4.0 -2.2 4.25 -2.0 4.35 -1.8 4.4 -1.6 4.45 -1.45 4.5 -1.25 4.6 -1.05 4.8 -0.7 4.85 -0.3 4.85 0.45 4.8 1.2 4.8 1.55 4.8 1.75 4.9 1.95 5.05 2.15 5.1 2.3" fill="#663333" fill-opacity="0.2" fill-rule="evenodd" stroke="none"/>
    <path d="M4.3 10.65 L4.55 10.8 4.65 11.0 4.8 11.2 4.85 11.55 4.85 12.15 4.85 12.85 4.8 13.25 4.7 13.45 4.6 13.6 4.4 13.8 4.15 14.0 4.05 14.2 3.95 14.35 3.85 14.55 Q3.05 15.15 2.1 15.4 L0.35 15.7 -0.9 15.7 -1.35 15.55 -1.7 15.55 -2.15 15.7 -2.65 15.6 -3.1 15.5 -3.35 15.3 -3.55 15.15 -4.1 14.75 -4.35 14.55 -4.45 14.4 -4.55 14.2 -4.65 14.0 -4.85 13.65 -4.95 13.45 -5.05 12.3 -5.0 10.8 -4.95 9.7 -4.95 9.5 -4.95 9.3 -4.95 9.15 -4.9 8.95 -4.85 8.75 -4.75 8.55 -4.7 8.4 -4.65 8.2 -4.5 8.0 -4.35 7.8 -3.9 7.7 -3.65 7.7 -3.25 7.8 -3.0 8.0 -2.9 8.2 -2.85 8.4 -2.85 8.55 -2.85 8.75 -2.75 8.95 -2.65 9.1 -2.5 9.35 -2.25 9.7 -2.3 9.85 -2.3 10.05 -2.35 10.25 -2.3 10.45 -2.25 10.65 -2.25 10.8 -2.25 10.95 -1.7 11.2 -1.45 11.4 1.75 11.2 1.8 11.0 2.0 10.8 2.15 10.7 2.3 10.65 2.6 10.55 2.9 10.65 3.05 10.7 3.35 10.6 3.85 10.5 4.3 10.65" fill="#663333" fill-opacity="0.2" fill-rule="evenodd" stroke="none"/>
    <path d="M5.15 -1.45 L5.35 -1.05 5.55 -0.7 5.75 -0.3 5.75 -0.1 5.8 0.05 5.8 0.45 5.8 0.8 5.85 1.0 5.9 1.2 6.0 1.4 6.05 1.55 6.05 1.95 6.05 2.7 6.05 3.45 6.0 4.0 5.9 4.2 5.8 4.35 5.6 4.55 5.4 4.75 5.35 4.95 5.35 5.3 5.35 5.7 5.35 6.05 5.35 6.25 5.3 6.45 5.25 6.65 5.15 6.8 5.0 7.0 4.85 7.15 4.7 7.15 4.35 7.25 3.85 7.15 3.6 6.95 3.5 6.75 3.4 6.55 3.35 6.35 3.35 6.2 3.35 6.0 3.35 5.8 3.3 5.65 3.25 5.45 3.05 5.3 2.85 5.25 2.35 5.15 2.1 4.95 1.9 4.75 1.8 4.55 1.65 4.4 1.65 3.65 1.75 2.7 1.75 1.55 1.75 1.4 1.8 1.2 1.85 1.0 1.9 0.8 2.3 0.05 Q2.6 -0.65 3.15 -1.15 L3.9 -1.8 4.35 -1.9 4.35 -1.95 4.8 -1.8 5.05 -1.6 5.15 -1.45" fill="#663333" fill-opacity="0.2" fill-rule="evenodd" stroke="none"/>
    <path d="M-2.6 -3.1 L-2.4 -3.05 -2.0 -2.95 -1.8 -2.75 -1.6 -2.55 -1.45 -2.35 -1.4 -2.2 -1.35 -2.0 -1.2 -1.8 -1.15 -1.6 -1.1 -1.45 -1.1 -1.25 -1.1 -1.05 -1.15 -0.9 -1.25 -0.7 -1.3 -0.5 -1.4 -0.3 -1.45 -0.15 -1.6 0.05 -1.65 0.25 -1.65 0.45 -1.65 0.65 -1.75 0.8 -1.85 1.0 -1.95 1.15 -2.1 1.2 -2.4 1.25 -2.85 1.15 -3.0 0.95 -3.15 0.75 -3.2 0.55 -3.4 0.4 -3.6 0.2 -3.7 0.0 -3.7 -0.2 -3.7 -0.35 -3.85 -0.55 -4.0 -0.75 -4.15 -0.95 -4.2 -1.1 -4.2 -1.3 -4.2 -1.5 -4.15 -1.7 -4.05 -1.85 -3.9 -2.05 -3.7 -2.25 -3.65 -2.45 -3.6 -2.6 -3.5 -2.8 -3.4 -3.0 -3.2 -3.1 -2.9 -3.15 -2.9 -3.2 -2.6 -3.1" fill="#663333" fill-opacity="0.2" fill-rule="evenodd" stroke="none"/>
    <path d="M-1.6 -3.35 L-1.45 -3.2 -1.4 -3.0 -1.35 -2.8 -1.4 -2.6 -1.45 -2.45 -1.9 -1.7 -2.5 -0.75 -2.9 -0.2 -2.9 0.0 -2.95 0.2 -3.05 0.35 -3.15 0.55 -3.15 0.75 -3.2 0.95 -3.3 1.1 -3.45 1.5 -3.65 1.85 -3.75 2.05 -3.85 2.25 -3.9 2.45 -3.95 2.65 -4.1 2.8 -4.1 4.7 -4.1 6.55 -4.1 8.65 -4.15 8.8 -4.25 9.0 -4.5 9.2 -4.9 9.3 -5.35 9.2 -5.5 9.0 -5.65 8.8 -5.75 6.75 -5.7 4.7 -5.7 2.45 -5.55 1.85 -5.2 1.3 -4.9 0.75 -4.9 0.55 -4.8 0.4 -4.7 0.2 -4.65 0.0 -4.65 -0.2 -4.55 -0.35 -4.45 -0.55 -4.4 -0.75 -4.4 -0.95 -4.4 -1.1 -4.3 -1.3 -4.2 -1.5 -4.1 -1.6 -3.95 -1.7 -3.65 -1.8 -3.55 -2.0 -3.45 -2.2 -3.3 -2.3 -3.2 -2.35 -2.9 -2.5 -2.75 -2.7 -2.45 -3.05 -2.2 -3.35 -2.15 -3.4 -1.9 -3.45 -1.9 -3.5 -1.6 -3.35" fill="#ffff99" fill-opacity="0.2" fill-rule="evenodd" stroke="none"/>
    <path d="M-5.25 4.05 L-5.15 3.9 -5.0 3.75 -4.9 3.7 -4.65 3.65 -4.35 3.75 -4.0 3.95 -3.85 4.15 -3.75 4.3 -3.7 4.5 -3.65 4.6 -3.35 4.85 -3.25 5.0 -3.35 5.15 -3.5 5.4 -3.55 5.55 -3.6 5.75 -3.6 6.15 -3.6 6.5 -3.6 6.9 -3.6 7.05 -3.7 7.25 -3.85 7.45 -4.15 7.55 -4.5 7.45 -4.65 7.25 -4.7 7.05 -4.7 6.9 -4.7 6.7 -4.7 6.5 -4.7 6.3 -4.75 6.15 -4.85 5.95 -5.0 5.75 -5.05 5.55 -5.05 5.35 -5.1 5.2 -5.1 5.0 -5.1 4.8 -5.15 4.65 -5.25 4.45 -5.25 4.25 -5.25 4.05" fill="#ffff99" fill-opacity="0.2" fill-rule="evenodd" stroke="none"/>
    <path d="M3.15 4.05 L3.3 4.25 3.4 4.45 3.5 7.25 3.55 10.25 3.65 12.3 3.6 12.5 3.5 12.65 3.35 12.85 3.15 13.0 2.85 13.05 2.4 12.95 2.25 12.75 2.1 12.55 Q2.05 11.2 2.15 9.75 L2.2 6.75 2.3 4.9 2.15 4.7 2.15 4.5 2.25 4.3 2.4 4.15 2.6 4.0 2.85 3.95 3.15 4.05" fill="#ffff99" fill-opacity="0.2" fill-rule="evenodd" stroke="none"/>
    <path d="M3.65 -3.25 Q5.95 -2.1 5.8 0.6 L5.8 0.8 5.8 1.35 5.85 2.95 5.85 3.3 5.85 4.05 5.95 8.55 5.85 8.55 5.85 8.85 5.8 10.45 5.8 11.0 5.8 11.2 Q5.95 13.9 3.65 15.05 L2.85 15.45 2.8 15.5 2.65 15.6 2.35 15.7 2.25 15.7 0.2 16.0 -0.05 16.0 -0.3 16.05 -1.05 16.05 -1.2 16.0 -2.35 15.65 -3.65 15.0 -4.4 14.3 -4.95 13.65 -5.0 13.45 -5.1 13.2 -5.2 12.8 -5.25 12.7 -5.35 12.45 -5.45 12.1 -5.6 11.15 -5.6 9.8 -5.65 8.55 -5.65 7.75 -5.65 6.8 -5.65 4.45 -5.65 4.05 -5.65 3.3 -5.6 2.0 -5.6 0.65 -5.45 -0.3 -5.35 -0.65 -5.25 -0.9 -5.2 -1.0 -5.1 -1.4 -5.0 -1.65 -4.95 -1.85 -4.4 -2.5 -3.65 -3.2 -2.35 -3.85 -1.2 -4.2 -1.05 -4.25 -0.3 -4.25 -0.05 -4.2 0.2 -4.2 Q1.95 -4.2 3.65 -3.25 M3.35 -1.05 L3.35 0.65 3.35 1.95 3.3 2.1 3.25 2.3 3.15 2.5 3.05 2.65 2.9 2.7 2.6 2.75 2.2 2.65 2.2 2.95 2.2 3.3 2.2 4.05 2.25 8.55 2.2 8.55 2.2 8.85 2.2 10.45 2.2 10.55 2.15 10.55 1.85 11.2 1.9 11.3 1.95 11.35 1.95 11.45 2.05 11.55 2.15 11.65 2.25 11.75 2.3 11.85 2.75 12.15 3.1 12.5 3.4 12.95 3.45 13.05 3.45 13.15 3.5 13.25 3.55 13.35 3.55 13.45 3.6 13.55 3.6 13.6 3.9 13.2 3.9 13.15 3.9 13.05 3.9 12.95 3.9 12.8 3.95 12.7 3.9 12.6 3.9 12.5 3.85 12.4 3.8 12.3 3.7 12.2 3.6 12.05 3.5 11.95 3.35 11.85 3.2 11.75 3.1 11.65 2.85 11.55 2.8 11.45 2.75 11.35 2.7 11.3 2.7 11.2 2.75 11.1 2.8 11.0 2.85 10.95 2.95 10.9 3.1 10.9 3.1 10.85 3.25 10.85 3.45 10.95 3.9 11.25 4.3 11.6 4.35 11.65 4.45 10.7 4.45 8.85 4.45 8.55 4.45 8.5 4.45 7.85 4.45 7.75 4.45 4.05 4.45 3.3 4.45 2.95 4.45 1.1 4.35 0.0 Q4.35 -1.1 3.35 -2.0 L3.35 -1.05 M1.95 -2.6 L2.1 -2.8 2.15 -2.8 -1.9 -3.25 -2.35 -3.1 -3.3 -2.65 -3.35 -2.55 -3.5 -2.35 -3.85 -1.9 -4.15 -1.5 -4.2 -1.4 -4.25 -1.3 -4.4 -0.85 -4.45 -0.3 -4.5 -0.2 -4.5 0.0 -4.6 0.4 -4.65 0.65 -4.7 0.85 -4.7 0.95 -4.7 1.05 -4.7 1.1 -4.7 1.2 -4.75 1.3 -4.8 1.4 -4.8 2.95 -4.8 3.3 -4.8 4.05 -4.75 8.55 -4.8 8.55 -4.8 8.85 -4.8 10.4 -4.75 10.5 -4.7 10.6 -4.7 10.7 -4.7 10.75 -4.7 10.85 -4.7 10.95 -4.65 11.15 -4.6 11.4 -4.5 11.8 -4.5 12.0 -4.45 12.1 -4.4 12.65 -4.25 13.1 -4.2 13.2 -4.15 13.3 -3.85 13.7 -3.5 14.15 -3.35 14.35 -3.3 14.45 -2.35 14.9 -1.9 15.05 0.35 15.05 0.35 14.95 0.35 14.85 0.35 14.8 0.35 14.7 0.3 14.6 0.25 14.5 0.2 14.1 0.2 13.65 0.25 13.0 0.25 12.7 0.25 12.65 0.3 12.65 Q-0.8 12.9 -1.65 12.05 L-1.85 12.15 -2.05 12.15 -2.55 11.5 -2.55 8.85 -2.55 8.55 -2.55 8.5 -2.55 7.85 -2.55 7.75 -2.55 4.05 -2.55 3.3 -2.55 2.95 -2.55 0.3 -2.05 -0.35 -1.85 -0.35 -1.65 -0.25 Q-0.35 -1.55 1.35 -0.25 L1.85 0.7 1.85 -0.95 1.85 -2.45 1.95 -2.6 M1.4 2.0 L1.4 1.8 1.2 1.35 0.65 0.6 -0.05 0.65 Q-0.75 0.85 -0.95 1.35 L-1.2 1.75 -1.15 2.95 -1.15 3.3 -1.15 4.05 -1.05 8.55 -1.15 8.55 -1.15 8.85 -1.2 10.05 -0.95 10.45 -0.05 11.15 0.6 11.2 0.65 11.1 0.75 11.05 0.8 11.05 1.2 10.45 1.4 10.0 1.4 9.8 1.4 8.85 1.35 8.55 1.35 8.5 1.35 7.75 1.35 6.8 1.35 4.45 1.35 4.05 1.35 3.3 1.4 2.95 1.4 2.0" fill="#333333" fill-rule="evenodd" stroke="none"/>
    <path d="M0.3 -15.15 L0.95 -14.9 Q2.4 -12.4 1.65 -8.7 1.1 -6.05 1.8 -3.3 L1.85 -2.8 1.95 0.85 Q1.9 2.15 1.25 3.0 -0.25 3.5 -1.55 2.15 -1.7 -5.3 -1.35 -12.6 L-1.15 -14.0 -0.65 -15.0 0.3 -15.15" fill="#a28c88" fill-rule="evenodd" stroke="none"/>
    <path d="M0.1 -3.8 L0.25 -3.5 0.35 -3.25 0.4 -3.0 0.45 -2.75 0.55 -2.45 0.65 -2.15 0.75 -1.85 0.8 -1.65 0.85 -1.35 0.8 -1.1 0.8 -0.95 0.8 -0.85 1.05 -0.75 1.45 -0.6 1.7 -0.3 1.8 0.0 1.85 0.25 1.85 0.5 1.85 0.8 1.8 1.05 1.8 1.35 1.8 1.55 1.75 1.85 1.6 2.15 1.5 2.4 1.35 2.65 1.25 2.85 Q1.2 2.85 1.1 2.95 L0.75 3.05 0.3 3.3 -0.7 3.3 -1.15 3.15 -1.3 2.85 -1.45 2.55 -1.45 2.3 -1.45 2.05 -1.45 1.8 -1.4 1.5 -1.3 1.2 -1.4 1.0 -1.45 0.7 -1.5 0.4 -1.65 0.15 -1.7 -0.35 -1.7 -0.95 -1.7 -1.45 -1.7 -2.0 -1.65 -2.25 -1.55 -2.5 -1.5 -2.8 -1.4 -3.1 -1.35 -3.3 -1.3 -3.6 -1.2 -3.9 -1.0 -4.0 -0.7 -4.1 -0.7 -4.15 -0.4 -4.0 -0.2 -3.95 0.1 -3.8" fill="#663300" fill-opacity="0.2" fill-rule="evenodd" stroke="none"/>
    <path d="M1.8 -7.05 L1.8 -7.1 2.2 -6.9 2.35 -6.65 2.5 -6.4 2.55 -5.8 2.55 -5.05 2.55 -4.25 2.5 -3.95 2.4 -3.75 2.3 -3.45 2.0 -3.15 1.95 -2.9 1.95 -2.6 1.95 -2.4 1.85 -2.1 1.75 -1.8 1.55 -1.65 1.3 -1.6 0.8 -1.5 0.3 -1.45 -0.15 -1.65 -0.25 -1.85 -0.4 -2.15 -0.4 -2.95 -0.4 -4.0 -0.4 -5.1 -0.4 -5.4 -0.35 -5.65 -0.25 -5.95 -0.1 -6.1 0.0 -6.15 0.3 -6.4 0.5 -6.55 0.8 -6.65 1.3 -6.8 1.5 -7.05 1.8 -7.05" fill="#663300" fill-opacity="0.2" fill-rule="evenodd" stroke="none"/>
    <path d="M0.55 -14.9 Q0.75 -14.75 0.95 -14.7 L1.1 -14.4 1.2 -14.2 1.25 -13.9 1.35 -13.7 1.4 -13.5 1.4 -13.2 1.35 -12.9 1.3 -12.6 1.3 -12.4 1.3 -12.1 1.3 -11.85 1.3 -11.35 1.3 -11.1 1.55 -11.05 1.8 -11.05 2.2 -10.85 2.35 -10.6 2.5 -10.35 2.55 -10.05 2.5 -9.85 2.45 -9.55 2.35 -9.25 2.25 -9.05 2.1 -8.95 1.6 -8.8 1.35 -8.6 1.05 -8.55 0.3 -8.55 -0.15 -8.7 -0.3 -8.95 -0.45 -9.25 -0.45 -9.55 -0.45 -9.75 -0.45 -10.35 -0.4 -11.1 -0.4 -11.4 -0.45 -11.55 -0.8 -11.75 -1.0 -12.05 -1.05 -12.25 -1.05 -12.55 -1.05 -12.85 -1.05 -13.1 -1.0 -13.35 -0.95 -13.6 -0.75 -13.9 -0.65 -14.2 -0.4 -14.7 0.05 -14.85 0.05 -14.9 0.55 -14.9" fill="#663300" fill-opacity="0.2" fill-rule="evenodd" stroke="none"/>
    <path d="M1.5 -3.25 L1.65 -2.95 1.8 -2.75 1.85 -2.45 1.9 -2.15 1.95 -1.85 1.95 -1.35 1.95 -0.6 1.95 0.25 1.85 0.5 1.6 1.05 1.1 2.05 0.5 2.95 0.05 3.05 -0.25 3.2 -0.7 3.35 -0.95 3.35 -1.4 3.2 -1.55 2.95 -1.7 2.65 -1.8 2.4 -1.95 2.15 -2.05 1.85 -2.05 1.55 -2.05 1.35 -2.05 0.8 -2.1 0.0 -2.0 -0.8 -1.95 -1.1 -1.8 -1.35 -1.8 -1.65 -1.8 -1.85 -1.75 -2.15 -1.7 -2.45 -1.5 -2.75 -1.15 -3.0 -0.9 -3.25 -0.65 -3.5 -0.2 -3.65 0.8 -3.65 1.25 -3.5 1.5 -3.25" fill="#663333" fill-opacity="0.2" fill-rule="evenodd" stroke="none"/>
    <path d="M0.3 -15.25 L0.7 -15.05 0.85 -14.75 0.95 -14.55 1.0 -14.25 1.0 -14.0 1.0 -13.5 1.0 -12.6 1.0 -12.4 0.95 -12.1 0.85 -11.85 0.8 -11.55 0.65 -11.4 0.55 -11.35 0.3 -11.2 -0.05 -11.4 -0.25 -11.7 -0.45 -11.85 -0.9 -12.05 -1.0 -12.25 -1.15 -12.55 -1.15 -12.85 -1.25 -13.1 -1.3 -13.4 -1.3 -13.6 -1.3 -13.9 -1.3 -14.2 -1.2 -14.4 -1.05 -14.6 -0.95 -14.7 -0.7 -14.75 -0.45 -15.0 -0.25 -15.15 0.05 -15.2 0.05 -15.25 0.3 -15.25" fill="#663333" fill-opacity="0.2" fill-rule="evenodd" stroke="none"/>
    <path d="M0.7 -1.8 L0.85 -1.5 1.0 -1.3 1.15 -1.0 1.3 -0.75 1.35 -0.45 1.35 -0.25 1.35 0.05 1.45 0.35 1.5 0.65 1.55 0.85 1.5 1.15 1.35 1.4 1.35 1.65 1.3 1.9 1.2 2.2 0.95 2.5 0.7 2.8 0.3 2.95 -0.45 2.95 -0.9 2.7 -1.4 2.5 -1.55 2.2 -1.75 1.9 -1.95 1.7 -2.0 1.4 -2.0 0.85 -2.0 0.35 -2.0 -0.25 -1.95 -0.45 -1.75 -0.75 -1.65 -0.95 -1.5 -1.0 -0.4 -1.3 -0.25 -1.5 -0.15 -1.8 0.3 -1.95 0.3 -2.0 0.7 -1.8" fill="#663333" fill-opacity="0.2" fill-rule="evenodd" stroke="none"/>
    <path d="M1.2 -13.85 L1.45 -13.55 1.55 -13.25 1.7 -7.9 1.7 -2.0 1.7 2.05 1.6 2.3 1.5 2.55 1.3 2.85 1.1 3.0 0.8 3.15 0.35 2.95 0.1 2.65 0.0 2.4 -0.1 -3.25 -0.1 -9.4 0.0 -13.2 0.1 -13.5 0.3 -13.7 0.5 -13.9 0.8 -14.0 1.2 -13.85" fill="#663333" fill-opacity="0.2" fill-rule="evenodd" stroke="none"/>
    <path d="M1.3 -12.05 L1.45 -11.75 1.55 -11.45 1.65 -11.2 1.75 -10.95 1.8 -10.7 1.8 -10.4 1.8 -10.1 1.8 -9.6 1.8 -9.3 1.75 -9.1 1.7 -8.8 1.6 -8.55 1.5 -8.3 1.35 -8.3 0.7 -8.05 -0.45 -7.9 -0.9 -8.1 -1.0 -8.3 -1.15 -8.6 -1.15 -8.9 -1.15 -9.2 -1.15 -9.7 -1.15 -10.25 -1.15 -11.05 -1.1 -11.35 -1.0 -11.55 -0.95 -11.85 -0.9 -12.1 -0.75 -12.4 -0.55 -12.55 -0.5 -12.6 -0.2 -12.7 -0.2 -12.75 0.55 -12.75 Q0.75 -12.6 0.95 -12.55 L1.2 -12.25 1.3 -12.05" fill="#ffff99" fill-opacity="0.2" fill-rule="evenodd" stroke="none"/>
    <path d="M-1.2 -11.35 L-1.2 -11.4 -0.9 -11.2 -0.75 -10.95 -0.55 -8.05 -0.45 -4.8 -0.45 -2.4 -0.5 -2.1 -0.65 -1.8 -0.8 -1.5 -1.2 -1.35 -1.65 -1.5 -1.8 -1.8 -1.95 -2.1 -1.95 -5.05 -1.85 -8.25 -1.7 -10.7 -1.65 -10.9 -1.5 -11.2 -1.2 -11.35" fill="#ffff99" fill-opacity="0.2" fill-rule="evenodd" stroke="none"/>
    <path d="M-1.45 -13.35 L-1.4 -11.9 -1.35 1.05 -1.8 1.7 -2.05 1.4 -2.25 -1.55 -2.25 -4.4 -2.25 -7.25 -2.2 -10.2 -2.2 -11.9 -1.95 -13.5 Q-1.65 -14.45 -1.45 -13.35" fill="#333333" fill-rule="evenodd" stroke="none"/>
    <path d="M2.15 -12.35 L2.2 -11.05 2.35 -0.25 Q2.4 1.2 1.85 1.85 1.25 2.35 1.0 1.55 L0.95 1.35 0.85 -1.1 0.85 -12.35 1.35 -13.1 1.55 -13.1 2.15 -12.35" fill="#333333" fill-rule="evenodd" stroke="none"/>
    <path d="M0.0 -16.0 L0.85 -15.85 Q1.55 -15.05 1.85 -14.0 L2.15 -12.35 2.15 -11.05 2.0 -11.05 1.45 -10.75 1.3 -11.85 0.95 -13.4 Q0.75 -14.25 0.2 -14.4 -0.55 -14.35 -0.95 -13.6 L-1.7 -12.35 -2.05 -12.9 -2.1 -13.75 -1.5 -15.2 Q-1.0 -15.9 0.0 -16.0" fill="#333333" fill-rule="evenodd" stroke="none"/>
    <path d="M1.55 3.2 L0.3 4.2 -1.3 3.85 -1.45 3.55 Q-2.1 2.65 -2.1 1.4 -2.0 0.2 -1.35 0.9 L-1.2 1.2 -1.2 1.7 -0.7 2.35 Q1.05 1.8 1.0 0.7 0.9 -0.35 1.5 -0.5 2.15 -0.35 2.2 0.4 2.35 2.05 1.55 3.2" fill="#333333" fill-rule="evenodd" stroke="none"/>
    <path d="M0.6 -0.6 L0.7 -0.45 0.85 -0.3 0.95 -0.25 1.1 -0.25 1.3 -0.35 1.5 -0.25 1.6 -0.15 1.75 -0.1 2.0 0.05 2.1 0.2 2.15 0.35 2.2 0.55 2.2 0.7 2.2 1.0 2.2 1.15 2.2 1.3 2.15 1.4 2.15 1.55 2.05 1.65 2.0 1.8 1.95 1.9 1.9 2.05 1.85 2.2 1.75 2.35 1.6 2.4 1.4 2.5 1.25 2.55 1.1 2.7 0.9 2.8 0.15 2.8 -0.1 2.7 -0.25 2.55 -0.35 2.4 -0.45 2.3 -0.5 2.15 -0.5 2.0 -0.6 1.9 -0.7 1.8 -0.75 1.5 -0.75 1.35 -0.7 1.05 -0.7 0.9 -0.7 0.85 -0.7 0.7 -0.65 0.55 -0.65 0.4 -0.65 0.25 -0.5 0.0 -0.25 -0.25 0.0 -0.5 0.15 -0.6 0.3 -0.65 0.4 -0.65 0.6 -0.6" fill="#333333" fill-rule="evenodd" stroke="none"/>
    <path d="M1.0 -6.3 L1.3 -6.4 1.55 -6.4 Q1.65 -6.3 1.75 -6.3 L1.9 -6.15 1.95 -6.05 1.9 -5.95 1.75 -5.75 1.55 -5.65 1.15 -5.6 1.0 -5.6 0.55 -5.45 0.4 -5.4 0.3 -5.3 0.05 -5.4 -0.1 -5.45 -0.15 -5.6 -0.15 -5.75 -0.05 -5.9 0.55 -6.15 1.0 -6.3" fill="#333333" fill-rule="evenodd" stroke="none"/>
    <path d="M2.25 -3.6 L2.2 -3.45 2.1 -3.4 2.05 -3.3 1.95 -3.3 0.8 -3.4 0.65 -3.45 0.5 -3.45 -0.1 -3.6 -0.25 -3.65 -0.35 -3.8 -0.45 -3.95 -0.5 -4.1 -0.5 -4.15 -0.45 -4.25 -0.35 -4.3 -0.2 -4.3 -0.15 -4.3 -0.05 -4.25 0.4 -4.25 0.65 -4.15 2.05 -4.1 2.2 -4.0 2.25 -3.9 2.3 -3.75 2.25 -3.6" fill="#333333" fill-rule="evenodd" stroke="none"/>
  </g>
</svg>
