<?xml version="1.0" encoding="UTF-8" standalone="no"?>
<svg xmlns:xlink="http://www.w3.org/1999/xlink" height="70.8px" width="210.5px" xmlns="http://www.w3.org/2000/svg">
  <g transform="matrix(1.0, 0.0, 0.0, 1.0, 105.25, 35.4)">
    <path d="M54.25 -14.75 L54.85 -14.85 55.0 -14.9 97.55 -14.9 86.4 7.45 -104.3 7.45 -101.8 2.5 -98.65 2.4 -98.5 2.3 -98.35 2.25 -98.25 2.15 -98.2 2.05 -98.15 1.95 -98.1 1.85 -98.05 1.75 -98.0 1.65 -98.0 1.55 -98.0 1.5 -97.9 1.3 -97.85 1.2 -97.75 1.1 -97.65 1.0 -97.6 0.9 -97.5 0.55 -97.45 0.25 -97.4 0.05 -97.35 -0.1 -97.25 -0.2 -97.2 -0.5 -97.0 -1.05 -96.85 -1.5 -96.75 -1.8 -96.65 -1.9 -96.65 -2.0 -96.6 -2.1 -96.6 -2.2 -96.55 -2.3 -96.5 -2.35 -96.45 -2.45 -96.4 -2.55 -96.4 -2.65 -96.35 -2.75 -96.3 -2.85 -96.25 -2.95 -96.25 -3.05 -96.2 -3.1 -96.15 -3.2 -96.1 -3.3 -96.05 -3.4 -96.0 -3.5 -95.95 -3.6 -95.9 -3.7 -95.9 -3.8 -95.45 -4.5 -95.0 -5.35 -94.75 -5.85 -94.7 -5.95 -94.65 -6.05 -94.6 -6.1 -94.6 -6.2 -94.55 -6.3 -94.5 -6.4 -94.45 -6.5 -94.4 -6.6 -94.35 -6.7 -94.35 -6.8 -94.3 -6.9 -94.15 -7.15 -93.9 -7.6 -93.75 -7.9 -93.65 -8.1 -93.65 -8.2 -93.6 -8.3 -93.55 -8.4 -93.5 -8.45 -93.5 -8.55 -93.45 -8.65 -93.4 -8.75 -93.4 -8.85 -93.35 -8.95 -93.35 -9.05 -93.35 -9.15 -93.4 -9.2 -93.4 -9.3 -93.4 -9.4 -93.5 -9.5 -93.6 -9.7 -93.65 -9.8 -93.8 -9.9 -93.95 -9.95 -94.15 -10.05 -94.35 -10.05 -94.4 -10.15 -94.5 -10.35 -94.6 -10.45 -94.7 -10.55 -94.85 -10.65 -95.1 -10.7 -95.25 -10.7 -93.15 -14.9 -91.1 -14.9 -89.75 -14.7 Q-17.75 -14.65 54.25 -14.75" fill="#8399a7" fill-rule="evenodd" stroke="none"/>
    <path d="M77.6 -19.95 L82.2 -26.35 82.85 -29.0 85.35 -31.1 87.35 -35.1 88.0 -35.15 Q91.65 -35.15 94.75 -32.5 95.1 -32.2 95.55 -32.05 97.7 -31.5 98.65 -29.85 L98.75 -28.0 Q100.2 -27.25 100.35 -25.65 100.45 -24.55 100.9 -23.4 L102.7 -18.95 103.15 -17.05 103.5 -11.1 Q103.45 -7.45 103.05 -3.95 L103.5 -3.15 Q104.25 -1.25 104.05 1.0 103.8 3.45 103.15 5.85 L102.75 7.2 Q101.55 11.2 101.05 15.25 100.55 19.0 99.15 22.7 L97.95 25.2 Q96.75 27.1 95.8 29.15 95.1 30.75 94.0 32.0 91.7 34.55 88.5 33.25 87.8 32.85 87.75 32.05 L87.2 29.4 86.85 28.0 Q86.0 24.35 85.5 20.45 L84.6 19.35 83.7 14.1 Q83.1 10.5 82.05 7.0 81.15 4.05 83.9 2.7 L86.0 0.45 Q85.95 -0.3 86.25 -0.95 86.8 -2.25 87.7 -3.05 L87.75 -9.05 89.85 -10.85 87.25 -11.7 87.1 -13.1 85.6 -13.45 80.8 -13.25 79.0 -13.3 Q74.95 -11.85 71.95 -13.9 L66.1 -14.35 65.45 -15.1 65.5 -16.55 67.6 -19.45 77.6 -19.95" fill="#8399a7" fill-rule="evenodd" stroke="none"/>
    <path d="M82.0 -13.25 L82.15 -15.8 84.9 -18.55 Q85.4 -23.75 87.05 -28.3 88.5 -30.3 90.45 -30.1 L91.35 -27.65 91.95 -27.35 92.45 -27.65 Q95.25 -27.85 97.95 -26.5 L98.5 -25.0 Q99.25 -22.8 98.65 -20.6 L99.35 -18.9 99.1 -17.65 Q98.8 -16.2 98.0 -15.6 95.9 -14.4 94.2 -12.35 L95.0 -10.8 Q96.25 -8.45 96.2 -5.65 96.2 -3.95 95.45 -2.85 L94.05 -2.25 95.2 -0.1 94.45 2.9 92.55 4.0 92.7 5.65 91.45 6.8 90.45 6.9 Q89.25 6.4 89.05 4.95 L87.0 4.2 84.95 -6.45 86.45 -8.75 84.7 -11.5 83.05 -11.7 82.0 -13.25" fill="#a28c88" fill-rule="evenodd" stroke="none"/>
    <path d="M94.05 0.9 L93.45 0.6 93.45 -1.15 95.2 -1.15 96.7 1.35 Q98.5 1.75 99.7 2.95 101.05 4.2 101.1 6.1 L99.1 7.8 Q100.0 9.6 99.35 11.75 98.75 13.8 96.7 14.85 L95.2 14.75 94.55 14.0 95.0 9.9 Q93.25 10.0 91.65 9.15 89.25 8.0 88.55 5.6 L93.05 4.2 92.55 3.45 92.6 2.35 93.2 1.2 94.05 0.9" fill="#a28c88" fill-rule="evenodd" stroke="none"/>
    <path d="M89.9 21.4 L89.3 20.35 89.05 19.1 91.45 17.25 91.95 15.0 93.55 13.85 94.7 14.6 Q95.5 16.5 95.1 18.6 L94.35 19.45 95.7 24.25 94.7 26.75 Q93.75 29.6 91.2 28.9 89.4 25.35 89.9 21.4" fill="#a28c88" fill-rule="evenodd" stroke="none"/>
    <path d="M18.05 -5.7 Q20.75 -8.1 23.2 -6.2 27.45 -2.95 23.55 0.8 L18.3 -0.45 17.9 -1.45 Q17.0 -3.6 18.05 -5.7" fill="#a28c88" fill-rule="evenodd" stroke="none"/>
    <path d="M-92.7 -10.85 L-90.1 -10.7 -89.45 -9.7 -83.95 -8.05 Q-68.65 -11.2 -53.55 -8.95 L-53.15 -7.8 -53.65 -7.05 -54.95 -6.7 Q-62.45 -2.15 -69.7 -3.8 L-70.3 -5.45 -72.1 -5.3 Q-72.6 -4.35 -73.25 -3.5 -74.15 -2.3 -75.6 -2.65 L-76.85 -0.3 -78.6 -0.3 -79.1 -0.9 -87.1 -1.3 -89.25 -5.45 -88.35 -6.55 -90.3 -5.95 Q-91.9 -5.25 -93.2 -6.55 L-93.35 -8.2 Q-93.6 -9.6 -92.7 -10.85" fill="#a28c88" fill-rule="evenodd" stroke="none"/>
    <path d="M-34.9 -4.45 L-35.5 -4.8 -38.25 -4.8 -40.3 -2.15 -39.0 -1.55 -36.35 -2.55 -34.9 -4.45 M-60.3 -7.8 L-59.7 -8.05 -57.55 -8.3 -56.8 -8.95 Q-43.75 -11.05 -31.65 -6.1 L-30.55 -6.1 -27.5 -5.55 Q-25.6 -5.9 -24.65 -7.55 L-23.6 -7.9 -22.55 -8.15 -18.85 -8.2 -18.3 -7.05 -19.15 -4.8 -17.6 -2.85 -12.85 -2.8 -12.1 -1.5 Q-6.1 -2.3 -0.8 0.2 L-0.6 0.6 -1.35 1.7 Q-11.25 3.15 -21.35 1.2 L-21.75 1.6 Q-22.85 2.45 -24.25 2.75 L-25.15 3.0 -28.0 2.6 -28.55 1.5 -46.8 2.2 -47.4 3.1 -62.55 3.1 -63.05 1.95 -62.55 0.85 -58.8 0.35 -59.05 -0.05 -58.8 -1.9 -55.55 -3.2 -60.7 -7.05 -60.3 -7.8" fill="#a28c88" fill-rule="evenodd" stroke="none"/>
    <path d="M3.05 -9.3 L5.45 -9.6 19.05 -9.45 19.45 -8.3 18.95 -7.55 10.7 -6.3 9.05 -3.35 Q2.7 -2.9 -0.1 -8.4 L-2.7 -8.45 -2.75 -9.45 -1.7 -9.95 Q-0.1 -10.8 1.55 -10.3 L2.3 -8.55 3.05 -9.3" fill="#a28c88" fill-rule="evenodd" stroke="none"/>
    <path d="M57.5 -3.6 L61.2 -5.95 59.65 -6.45 59.15 -7.55 59.65 -8.7 Q68.05 -10.35 76.55 -9.45 78.45 -8.45 79.05 -6.5 80.3 -2.6 80.25 1.7 L79.15 2.95 Q78.25 3.85 77.05 3.4 75.95 3.0 75.55 1.95 L71.15 1.7 67.15 -1.4 64.9 -1.05 64.7 -0.4 Q51.85 3.7 38.1 2.1 L37.6 0.95 38.1 -0.15 48.55 -2.4 49.1 -3.7 52.6 -4.45 Q55.25 -4.9 57.5 -3.6" fill="#a28c88" fill-rule="evenodd" stroke="none"/>
    <path d="M37.1 -10.2 L39.65 -10.25 Q41.05 -10.25 42.5 -9.55 L48.75 -9.7 49.25 -8.95 Q49.05 -7.55 48.0 -6.7 L45.5 -5.2 43.5 -6.5 40.6 -6.95 40.0 -7.55 37.1 -7.95 36.6 -9.05 37.1 -10.2" fill="#a28c88" fill-rule="evenodd" stroke="none"/>
    <path d="M103.05 8.85 L102.7 9.95 102.2 10.35 101.8 17.45 100.55 18.1 Q99.25 32.8 88.8 31.25 81.55 20.95 85.65 7.35 L88.4 22.35 Q91.0 25.95 94.3 28.5 95.4 21.95 98.05 15.7 99.4 12.0 99.25 8.25 L100.25 7.95 102.3 7.7 103.05 8.85" fill="#a28c88" fill-rule="evenodd" stroke="none"/>
    <path d="M101.5 -13.2 L102.55 -13.95 103.2 -13.7 Q105.3 -7.1 104.45 -0.2 L103.55 0.2 102.8 -0.05 101.85 -4.15 102.3 -5.3 101.8 -6.05 101.3 -8.7 101.5 -13.2" fill="#a28c88" fill-rule="evenodd" stroke="none"/>
    <path d="M68.9 -11.35 L68.5 -12.1 70.65 -13.95 Q74.45 -14.85 78.0 -13.4 L78.85 -12.85 79.3 -12.45 78.8 -11.55 68.9 -11.35" fill="#a28c88" fill-rule="evenodd" stroke="none"/>
    <path d="M83.55 4.8 L82.8 6.7 82.05 6.95 79.35 5.8 Q76.45 8.15 72.65 7.2 L72.0 6.45 Q66.6 7.55 61.25 6.35 L62.1 5.95 61.75 4.8 63.3 4.15 Q74.4 -0.9 83.55 4.8" fill="#a28c88" fill-rule="evenodd" stroke="none"/>
    <path d="M11.4 -11.5 L10.65 -10.45 0.0 -10.45 -0.35 -11.1 -6.85 -10.6 -8.6 -9.35 -9.05 -9.4 -9.85 -10.35 -9.1 -12.95 Q-10.5 -13.6 -11.95 -13.9 L-19.15 -14.1 -19.65 -13.6 -19.4 -14.65 -15.1 -14.7 Q-0.3 -14.85 14.55 -14.0 L11.4 -11.5" fill="#a28c88" fill-rule="evenodd" stroke="none"/>
    <path d="M37.6 5.05 L37.95 6.2 37.45 6.95 17.7 6.35 17.45 4.85 Q25.1 2.1 33.1 2.45 L33.7 3.45 37.6 5.05" fill="#a28c88" fill-rule="evenodd" stroke="none"/>
    <path d="M-69.85 5.45 L-70.1 5.8 -102.0 7.35 -102.4 6.6 Q-101.25 4.05 -98.65 3.65 -83.65 1.6 -68.95 5.05 L-69.85 5.45" fill="#a28c88" fill-rule="evenodd" stroke="none"/>
    <path d="M-27.75 1.05 L-26.25 1.05 Q-22.95 1.2 -19.9 2.95 L-20.75 4.45 Q-26.6 3.7 -32.35 5.3 -43.15 8.25 -52.65 3.05 L-52.4 2.35 Q-41.55 1.1 -28.5 1.7 L-27.75 1.05" fill="#a28c88" fill-rule="evenodd" stroke="none"/>
    <path d="M-95.35 -12.35 Q-85.65 -15.85 -74.6 -15.15 L-69.35 -14.7 -68.2 -13.1 Q-71.8 -10.55 -76.2 -10.25 -80.25 -9.9 -84.1 -11.05 L-85.75 -11.6 -87.0 -11.6 -88.25 -10.6 -95.0 -11.2 -95.35 -12.35" fill="#a28c88" fill-rule="evenodd" stroke="none"/>
    <path d="M-50.3 -10.35 L-51.6 -11.65 -52.4 -12.15 -54.15 -13.1 -55.2 -13.4 -56.95 -13.7 -30.4 -14.45 Q-30.6 -14.1 -30.95 -13.9 -39.65 -7.85 -50.3 -10.35" fill="#a28c88" fill-rule="evenodd" stroke="none"/>
    <path d="M20.2 -7.95 L16.8 -3.5 Q18.05 -2.3 19.75 -1.85 L20.7 -1.7 21.6 -1.8 22.35 -2.45 25.35 -2.95 20.2 -7.95 M5.05 -3.7 L9.8 -10.3 10.95 -10.55 11.85 -10.2 13.35 -9.4 13.95 -8.75 14.45 -7.95 18.95 -10.55 20.45 -9.8 21.05 -10.45 46.25 -8.45 47.05 -9.2 Q48.25 -10.25 49.75 -10.55 L50.45 -10.45 52.0 -9.8 53.25 -10.15 54.35 -10.4 Q56.35 -10.65 58.1 -9.85 L58.85 -9.25 59.55 -8.7 58.9 -7.3 Q55.45 -5.75 51.75 -6.65 L49.25 -7.2 47.95 -5.9 Q47.0 -5.0 45.6 -5.15 L44.9 -5.15 44.1 -5.3 43.5 -6.05 42.85 -6.3 Q39.9 -5.95 37.6 -4.3 L36.15 -3.2 35.85 -2.8 38.0 -0.2 37.25 1.7 30.55 1.8 30.2 2.2 29.45 2.45 23.75 0.8 22.35 3.2 5.55 2.2 4.9 1.05 6.2 -0.7 5.05 -1.8 5.05 -3.7" fill="#663300" fill-opacity="0.2" fill-rule="evenodd" stroke="none"/>
    <path d="M21.85 -5.55 L17.15 -5.05 17.3 -2.95 22.35 -1.8 21.85 -5.55 M6.05 -4.2 L5.45 -3.65 4.05 -2.55 -1.45 -2.7 -2.2 -3.95 -6.1 -5.8 -7.7 -9.95 -6.95 -10.95 -4.1 -11.6 -2.5 -10.95 Q5.1 -7.55 11.05 -11.95 L11.95 -12.2 13.4 -11.2 13.65 -10.15 17.55 -10.95 Q21.75 -11.9 24.55 -9.2 29.45 -4.5 25.85 1.8 L22.6 2.2 Q17.6 3.1 12.95 1.2 L12.95 0.7 12.55 -0.7 Q11.85 -1.9 10.45 -2.6 9.4 -3.05 8.8 -4.2 L9.2 -5.95 8.7 -6.3 Q7.75 -6.0 7.05 -5.35 L6.05 -4.2" fill="#663300" fill-opacity="0.2" fill-rule="evenodd" stroke="none"/>
    <path d="M-36.4 -6.3 L-34.9 -4.8 -34.65 -2.7 -18.55 0.7 -18.8 2.5 Q-36.95 3.0 -54.95 0.85 L-49.3 -1.2 -49.3 -2.3 -48.4 -3.45 -36.4 -6.3" fill="#663300" fill-opacity="0.2" fill-rule="evenodd" stroke="none"/>
    <path d="M-42.6 -5.3 L-40.8 -7.2 -37.0 -9.95 Q-33.4 -10.5 -29.9 -9.4 -28.65 -8.9 -28.5 -7.75 L-23.75 -7.2 -22.1 -8.2 -20.65 -7.2 Q-21.95 -4.95 -23.9 -3.25 -32.2 4.0 -42.25 -1.3 L-42.6 -5.3" fill="#663300" fill-opacity="0.2" fill-rule="evenodd" stroke="none"/>
    <path d="M88.2 6.6 L89.05 6.35 90.55 7.35 91.1 10.55 96.55 11.85 96.2 15.2 Q97.45 15.4 98.35 16.5 99.2 17.55 98.85 18.7 L98.6 19.1 97.25 20.6 96.7 24.0 97.3 26.3 Q98.3 31.9 93.2 34.3 92.6 34.55 91.95 34.3 L90.35 34.0 89.95 32.25 88.35 31.5 87.2 28.85 87.5 27.4 86.45 25.85 86.7 23.65 88.05 22.75 86.6 9.25 88.2 6.6" fill="#663300" fill-opacity="0.2" fill-rule="evenodd" stroke="none"/>
    <path d="M98.7 -8.3 L99.6 -8.55 100.7 -7.95 Q103.1 6.05 98.7 19.35 95.6 20.85 94.2 23.95 93.3 25.9 93.15 28.2 L90.95 27.75 87.25 19.45 87.55 17.95 89.05 17.45 89.1 16.0 92.55 12.6 Q92.3 11.2 92.7 9.7 93.05 8.35 94.05 7.4 95.25 6.3 96.95 5.85 96.65 -1.45 98.7 -8.3" fill="#663300" fill-opacity="0.2" fill-rule="evenodd" stroke="none"/>
    <path d="M89.45 -29.0 L91.7 -28.5 92.55 -28.85 93.15 -28.4 93.25 -27.8 97.95 -26.1 98.3 -23.85 99.2 -23.45 99.9 -22.9 100.55 -22.35 101.05 -21.65 101.3 -21.0 101.4 -20.35 100.1 -18.95 98.2 -20.35 98.05 -16.95 92.45 -13.7 89.7 -13.7 81.95 -18.7 82.65 -20.95 85.1 -22.05 86.05 -25.85 89.45 -29.0" fill="#663300" fill-opacity="0.2" fill-rule="evenodd" stroke="none"/>
    <path d="M93.8 -17.95 L94.55 -16.95 97.55 -15.7 97.55 -13.45 93.95 -9.9 Q92.2 -8.05 90.2 -9.7 88.75 -8.5 87.05 -8.95 86.05 -9.35 85.45 -10.3 L85.5 -11.05 86.45 -12.2 84.7 -13.7 84.75 -15.55 Q86.5 -19.0 89.6 -20.55 L91.05 -19.7 91.2 -18.85 93.8 -17.95" fill="#663300" fill-opacity="0.2" fill-rule="evenodd" stroke="none"/>
    <path d="M71.4 -10.8 L70.9 -10.45 75.55 -8.95 74.3 -10.8 71.4 -10.8 M57.15 -10.8 L56.5 -11.95 57.15 -13.35 Q67.65 -15.5 78.3 -15.2 L79.4 -12.6 77.8 -10.95 79.4 -8.95 79.85 -8.25 80.05 -7.5 80.0 -6.9 79.8 -6.35 76.65 -3.95 78.4 -3.55 80.05 1.3 81.0 2.1 81.15 3.55 80.15 4.6 Q69.25 6.9 58.0 5.85 L57.65 5.6 57.65 2.9 67.65 1.05 64.8 -0.05 64.4 -1.2 65.4 -4.2 63.5 -6.45 63.6 -10.3 57.15 -10.8" fill="#663300" fill-opacity="0.2" fill-rule="evenodd" stroke="none"/>
    <path d="M64.9 -3.95 L65.65 -4.95 68.55 -5.45 Q69.2 -5.7 69.9 -5.45 L72.55 -4.7 72.7 -2.0 Q74.75 0.1 77.5 0.75 L78.6 0.95 80.9 0.95 82.65 6.6 81.65 7.6 46.35 6.7 46.85 4.05 Q49.55 3.65 51.7 2.0 L52.45 1.3 53.9 -0.3 64.9 -2.8 64.9 -3.95" fill="#663300" fill-opacity="0.2" fill-rule="evenodd" stroke="none"/>
    <path d="M-95.85 -0.8 L-96.0 -2.8 Q-96.0 -7.6 -92.35 -10.45 L-83.7 -9.3 -82.6 -10.45 -81.7 -10.7 -80.2 -9.7 -80.1 -9.0 Q-80.0 -8.05 -80.55 -7.15 -81.2 -6.05 -82.35 -5.2 L-82.7 -3.45 Q-80.7 -3.35 -78.95 -2.55 -77.7 -2.05 -77.2 -1.05 L-77.05 2.3 Q-69.65 5.35 -61.45 4.2 L-60.7 5.35 -61.3 6.7 Q-72.25 8.0 -83.1 5.6 L-83.6 5.95 -102.15 5.85 -102.9 4.3 -101.85 2.95 Q-100.15 2.5 -98.35 1.65 -97.3 1.1 -97.1 0.1 L-95.85 -0.8 M-91.85 -5.65 L-92.0 -5.6 -92.05 -5.6 -92.2 -5.5 -92.3 -5.4 -92.4 -5.35 -92.55 -5.15 -92.6 -5.05 -92.6 -4.95 -92.65 -4.85 -92.65 -4.75 -92.65 -4.6 -92.65 -4.5 -92.65 -4.4 -92.65 -4.3 -92.65 -4.2 -92.65 -4.0 -92.6 -3.9 -92.6 -3.85 -92.55 -3.75 -92.5 -3.65 -92.45 -3.55 -92.35 -3.45 -92.25 -3.35 -91.65 -3.2 -91.05 -3.2 -90.7 -3.25 -90.55 -3.35 -90.35 -3.45 -90.25 -3.5 -90.15 -3.6 -90.05 -3.8 -90.0 -3.9 -89.95 -4.0 -89.95 -4.1 -89.9 -4.2 -89.9 -4.35 -89.9 -4.55 -89.9 -4.65 -89.9 -4.75 -89.95 -4.85 -89.95 -5.0 -90.0 -5.1 -90.05 -5.2 -90.1 -5.3 -90.2 -5.4 -90.5 -5.6 -90.9 -5.65 -91.4 -5.7 -91.65 -5.7 -91.65 -5.65 -91.85 -5.65" fill="#663300" fill-opacity="0.2" fill-rule="evenodd" stroke="none"/>
    <path d="M-82.45 -4.45 L-79.85 -6.95 -77.5 -5.9 Q-74.5 -4.95 -73.15 -2.3 L-71.85 -2.6 -65.5 -2.15 Q-61.4 -1.2 -58.4 1.55 L-59.5 2.05 -61.85 2.7 -62.5 2.7 Q-64.15 2.75 -65.05 1.7 L-66.8 1.7 -67.3 2.3 -93.6 3.55 -96.05 1.8 -95.6 0.3 -88.55 -3.9 Q-85.75 -5.6 -82.45 -4.45" fill="#663300" fill-opacity="0.2" fill-rule="evenodd" stroke="none"/>
    <path d="M-85.6 -15.85 L-84.7 -16.1 Q-70.7 -13.8 -56.55 -14.35 L-56.35 -13.2 Q-59.2 -11.6 -62.45 -11.05 L-69.05 -10.8 -69.2 -8.95 -70.8 -7.85 -72.1 -8.2 Q-72.95 -9.8 -74.5 -10.4 L-75.15 -10.55 -78.45 -9.95 -78.85 -9.3 -81.1 -9.3 -82.45 -11.1 -87.35 -12.25 -85.6 -15.85" fill="#663300" fill-opacity="0.2" fill-rule="evenodd" stroke="none"/>
    <path d="M-9.75 -4.55 L-9.45 -3.8 -10.3 -0.1 Q-13.75 0.8 -16.2 -1.8 L-16.2 -2.9 Q-13.65 -6.0 -9.75 -4.55" fill="#663300" fill-opacity="0.2" fill-rule="evenodd" stroke="none"/>
    <path d="M2.95 -13.1 L2.95 -14.2 Q17.6 -16.2 32.1 -14.7 L33.1 -13.45 25.7 -12.1 25.05 -11.4 Q13.75 -9.65 2.95 -13.1" fill="#663300" fill-opacity="0.2" fill-rule="evenodd" stroke="none"/>
    <path d="M29.7 3.3 L30.3 4.45 29.1 6.7 28.45 6.95 0.9 5.7 -0.15 5.05 0.05 3.6 Q14.95 1.15 29.7 3.3" fill="#663300" fill-opacity="0.2" fill-rule="evenodd" stroke="none"/>
    <path d="M16.7 -1.45 L17.3 -0.3 25.6 0.3 25.95 -0.05 25.95 -6.3 19.25 -5.95 16.7 -1.45 M7.2 -8.7 L8.5 -9.0 12.05 -8.7 Q16.8 -10.4 22.0 -10.35 L29.35 -9.75 Q47.9 -8.75 66.4 -9.3 68.9 -9.35 71.3 -10.05 76.0 -11.2 77.65 -7.3 L80.3 -1.7 Q81.2 0.25 79.2 1.4 L66.05 1.8 59.35 1.75 Q44.0 3.4 28.7 1.7 21.85 5.05 14.3 1.8 L13.8 2.15 Q12.9 2.7 12.1 2.75 L9.7 2.45 9.2 1.3 11.05 0.2 13.2 -0.8 13.3 -2.35 11.7 -3.7 11.0 -6.65 10.65 -7.0 7.2 -8.7" fill="#663333" fill-opacity="0.2" fill-rule="evenodd" stroke="none"/>
    <path d="M5.15 -9.35 Q11.3 -9.85 17.3 -9.65 L24.8 -9.4 44.6 -9.45 61.2 -9.6 69.0 -9.75 Q73.65 -10.3 78.4 -9.55 L78.7 -9.1 78.95 -8.75 79.05 -8.4 79.05 -8.05 79.0 -7.7 78.9 -7.35 78.7 -6.95 78.4 -6.55 76.5 -6.4 Q71.0 -6.2 65.55 -6.3 L52.65 -6.4 21.85 -6.4 7.5 -6.5 -10.3 -6.5 -28.05 -6.4 -42.65 -6.35 -60.3 -6.2 -77.9 -6.15 Q-82.7 -6.1 -87.65 -6.4 -90.2 -6.55 -92.7 -7.55 L-92.7 -8.65 -92.05 -9.15 -88.45 -9.6 -76.05 -10.0 -62.65 -9.9 -49.15 -9.85 -35.65 -9.75 -21.6 -9.5 -8.05 -9.1 Q-1.35 -8.65 5.15 -9.35" fill="#663333" fill-opacity="0.2" fill-rule="evenodd" stroke="none"/>
    <path d="M19.05 -3.15 L19.95 -3.3 Q22.25 -3.05 24.55 -4.15 L25.05 -4.8 25.95 -5.05 26.7 -4.8 Q28.2 -2.2 27.15 0.45 23.05 1.75 19.05 0.6 L18.8 0.15 Q17.85 -1.6 19.05 -3.15" fill="#663333" fill-opacity="0.2" fill-rule="evenodd" stroke="none"/>
    <path d="M16.95 -5.8 L17.8 -7.2 22.2 -8.7 22.65 -8.1 22.45 -7.55 Q20.2 -6.75 18.8 -4.55 L18.0 -3.1 23.95 0.65 25.35 0.2 25.3 -0.9 25.65 -1.45 25.65 -2.95 24.05 -3.15 Q22.8 -5.55 23.5 -8.1 L24.05 -9.95 25.65 -10.15 Q26.2 -12.9 28.6 -13.7 L31.9 -14.65 33.2 -15.05 Q36.1 -16.15 38.45 -14.75 39.1 -14.35 39.85 -13.9 40.85 -13.55 41.3 -12.65 L42.4 -12.1 43.05 -11.3 43.7 -9.9 43.95 -8.75 43.95 -8.4 45.45 -4.25 48.95 -1.25 48.8 0.3 47.95 2.05 Q47.5 2.8 46.55 2.9 L45.7 2.65 45.05 3.65 42.8 4.5 41.95 5.9 Q40.7 7.35 39.05 7.85 37.15 8.3 36.3 6.65 31.3 8.35 26.85 5.8 25.5 5.05 24.45 3.95 19.3 3.6 15.2 0.35 L15.2 -0.4 14.4 -1.55 15.05 -5.3 16.95 -5.8" fill="#663333" fill-opacity="0.2" fill-rule="evenodd" stroke="none"/>
    <path d="M24.95 -5.45 L25.95 -6.05 26.8 -5.55 27.95 -5.95 29.05 -5.35 29.5 -1.95 Q30.15 2.65 26.0 3.1 19.55 3.5 14.05 0.95 L14.1 0.1 14.55 -1.65 15.85 -1.7 25.05 -0.15 26.25 -1.3 24.8 -4.3 24.95 -5.45" fill="#663333" fill-opacity="0.2" fill-rule="evenodd" stroke="none"/>
    <path d="M60.05 -9.05 L60.6 -9.8 75.0 -9.3 75.55 -9.7 75.35 -11.4 71.75 -11.55 71.35 -13.05 Q74.5 -15.1 78.3 -14.3 L78.7 -13.45 Q80.8 -8.2 78.55 -3.05 L79.3 -1.75 80.3 -1.5 Q83.25 -0.45 83.55 2.7 L83.2 3.25 82.8 3.7 82.3 4.05 81.65 4.4 81.35 5.95 71.15 6.35 70.45 4.65 71.4 3.45 76.9 2.85 64.4 2.7 63.65 3.35 59.6 2.1 59.55 1.7 59.55 0.5 59.65 0.1 60.1 -0.8 64.45 -1.45 63.8 -2.0 63.35 -2.35 63.0 -2.9 63.45 -4.8 60.85 -7.15 60.5 -7.7 60.2 -8.3 60.05 -9.05" fill="#663333" fill-opacity="0.2" fill-rule="evenodd" stroke="none"/>
    <path d="M46.0 -8.05 L46.35 -8.8 75.0 -11.2 76.1 -10.55 76.35 -10.25 76.75 -9.55 78.5 -8.35 80.05 -7.05 79.5 -4.3 79.05 -3.45 78.3 -3.4 77.55 -2.3 77.8 -1.9 78.6 -1.55 79.8 -0.6 80.55 0.2 80.5 0.55 79.9 2.35 72.95 2.65 Q61.75 2.95 50.6 2.85 L49.85 1.35 51.1 -0.4 56.6 -0.9 57.35 -1.65 57.35 -3.3 52.1 -4.3 51.35 -5.2 Q50.6 -5.5 49.95 -5.9 L48.75 -6.8 46.35 -7.3 46.0 -8.05" fill="#663333" fill-opacity="0.2" fill-rule="evenodd" stroke="none"/>
    <path d="M-92.2 -5.75 L-92.35 -5.7 -92.55 -5.6 -92.75 -5.5 -92.95 -5.3 -93.05 -5.2 -93.1 -5.1 -93.15 -5.0 -93.25 -4.85 -93.3 -4.75 -93.3 -4.55 -93.3 -4.25 -93.3 -4.1 -93.3 -3.9 -93.3 -3.7 -93.25 -3.6 -93.2 -3.5 -93.15 -3.4 -93.15 -3.35 -93.15 -3.25 -93.1 -3.15 -93.1 -3.05 -93.05 -2.95 -93.05 -2.85 -93.0 -2.75 -92.95 -2.7 Q-92.5 -2.1 -91.75 -1.95 L-89.85 -2.0 -89.75 -2.1 -89.5 -2.15 -89.2 -2.45 -89.05 -2.65 -88.9 -2.85 -88.8 -3.0 -88.75 -3.1 -88.7 -3.2 -88.7 -3.3 -88.65 -3.4 -88.65 -3.65 -88.65 -3.95 -88.65 -4.15 -88.65 -4.35 -88.7 -4.5 -88.7 -4.6 -88.8 -4.8 -88.95 -5.0 -89.05 -5.15 -89.3 -5.35 -89.45 -5.45 -89.5 -5.55 -89.6 -5.65 -89.75 -5.75 -89.9 -5.85 -90.1 -5.9 -90.55 -5.95 -90.9 -6.0 -91.3 -6.0 -91.5 -6.0 -91.65 -5.95 -91.8 -5.95 -91.85 -5.9 -92.0 -5.85 -92.05 -5.85 -92.2 -5.75 M-92.55 -8.1 L-91.35 -8.95 -61.95 -10.8 -61.2 -9.8 -58.2 -10.45 -57.05 -9.8 Q-51.75 -11.0 -46.4 -11.05 L-46.15 -10.3 Q-52.6 -8.95 -58.7 -6.7 L-59.05 -6.3 -64.6 -5.85 Q-71.7 -5.8 -78.8 -4.05 L-80.0 -2.4 -81.55 -1.55 Q-75.95 -0.45 -69.4 -0.1 L-69.1 0.45 Q-72.75 3.0 -77.6 2.2 -84.15 1.1 -90.4 3.0 -95.7 4.7 -96.65 -0.65 L-96.4 -1.4 -95.0 -2.05 -94.25 -4.3 Q-93.85 -6.5 -92.55 -8.1" fill="#663333" fill-opacity="0.2" fill-rule="evenodd" stroke="none"/>
    <path d="M-95.9 -3.55 L-95.9 -4.3 Q-95.2 -8.3 -90.85 -8.95 -83.45 -8.85 -76.2 -10.7 L-75.2 -9.75 Q-74.65 -8.95 -74.9 -7.8 -75.1 -6.75 -75.95 -5.95 L-73.4 -5.6 Q-71.85 -5.2 -70.6 -4.35 -66.15 -0.95 -60.6 -0.05 L-60.05 0.7 -60.3 1.85 Q-65.55 3.95 -71.35 3.35 L-79.5 2.7 -98.15 2.1 -98.65 0.95 -98.15 -0.15 -95.4 -0.9 -94.95 -2.4 -95.9 -3.55 M-91.4 -5.95 L-91.55 -5.95 -91.75 -5.9 -92.15 -5.75 -92.45 -5.45 -92.7 -5.2 -92.8 -5.0 -92.85 -4.9 -92.95 -4.8 -93.05 -4.6 -93.15 -3.95 -93.15 -3.5 -93.15 -3.2 -93.15 -3.1 -93.1 -2.85 -93.05 -2.75 -93.0 -2.65 -92.95 -2.55 -92.9 -2.45 -92.7 -2.25 -92.55 -2.1 -92.45 -2.0 -92.35 -1.9 -92.15 -1.7 -91.05 -1.45 Q-89.75 -1.3 -88.85 -2.2 L-88.5 -2.65 -88.5 -2.75 -88.45 -2.85 -88.45 -2.9 -88.4 -3.0 -88.4 -3.1 -88.4 -3.6 -88.4 -3.95 -88.4 -4.15 -88.4 -4.25 -88.4 -4.35 -88.4 -4.5 -88.45 -4.6 -88.45 -4.7 -88.45 -4.8 -88.5 -4.9 -88.55 -5.0 -88.7 -5.25 -88.8 -5.45 -88.85 -5.55 -88.95 -5.65 -89.25 -5.85 -89.65 -5.9 -90.45 -6.0 -91.05 -6.0 -91.4 -5.95" fill="#663333" fill-opacity="0.2" fill-rule="evenodd" stroke="none"/>
    <path d="M67.45 5.0 Q74.1 4.95 80.65 5.2 L81.2 6.55 Q76.15 7.85 70.8 7.7 L54.9 7.5 37.1 7.5 19.3 7.55 1.7 7.6 -13.3 7.55 -27.8 7.65 -40.2 7.65 Q-45.45 7.6 -50.5 7.7 L-60.9 7.8 -71.4 7.75 -82.0 7.65 -92.6 7.5 -103.65 6.85 -103.95 6.1 -103.75 5.7 -96.55 5.25 Q-89.25 4.85 -81.95 4.85 L-67.2 4.85 -52.6 4.8 -38.2 4.8 -23.7 4.85 -9.3 4.85 4.0 4.9 16.7 4.95 29.4 4.95 42.1 4.95 54.8 4.95 67.45 5.0" fill="#663333" fill-opacity="0.2" fill-rule="evenodd" stroke="none"/>
    <path d="M73.9 6.1 L73.85 4.95 74.25 3.95 Q78.15 3.15 81.5 4.45 82.2 4.65 82.8 5.2 L82.25 7.3 81.55 7.6 73.9 6.1" fill="#663333" fill-opacity="0.2" fill-rule="evenodd" stroke="none"/>
    <path d="M15.65 -8.15 L8.35 -8.15 -5.35 -8.15 Q-20.5 -8.05 -35.65 -8.25 L-52.8 -8.4 -69.0 -8.5 -85.6 -8.75 -94.65 -9.4 -94.9 -10.75 -94.2 -11.3 -89.4 -11.65 -77.85 -12.0 -67.05 -12.1 -56.25 -12.0 -47.1 -12.0 -37.95 -12.1 -28.65 -12.2 -19.45 -12.35 7.65 -12.45 26.15 -12.35 47.75 -12.45 69.35 -12.3 82.15 -12.1 82.8 -10.1 82.3 -9.15 Q76.7 -7.5 71.1 -8.25 L57.65 -8.25 43.25 -8.05 28.75 -8.15 15.65 -8.15" fill="#663333" fill-opacity="0.2" fill-rule="evenodd" stroke="none"/>
    <path d="M81.55 -11.9 Q79.95 -12.3 80.35 -13.9 81.5 -18.5 83.4 -23.05 86.05 -29.2 92.55 -30.6 94.4 -29.85 96.15 -28.6 L98.2 -26.85 97.45 -24.7 92.3 -24.7 Q90.45 -22.65 89.3 -20.15 88.35 -17.9 86.2 -16.8 L86.05 -16.05 Q86.5 -15.35 86.55 -14.6 87.1 -7.5 89.2 -0.7 91.1 5.45 92.25 11.75 92.7 14.15 93.9 16.25 96.75 21.2 94.3 25.65 94.95 26.4 94.75 27.3 94.05 30.3 91.25 29.4 90.45 29.15 90.3 28.4 L90.8 26.15 89.05 22.05 Q87.7 19.55 86.65 16.95 83.95 10.2 85.2 3.15 85.3 2.55 85.05 1.9 82.25 -4.55 81.55 -11.9" fill="#663333" fill-opacity="0.2" fill-rule="evenodd" stroke="none"/>
    <path d="M80.9 -13.55 L80.9 -15.8 82.5 -17.85 82.15 -19.55 Q86.15 -24.65 89.2 -30.45 95.45 -30.4 97.6 -24.7 98.1 -23.35 97.8 -22.05 97.0 -19.0 94.45 -16.7 L88.7 -16.55 Q89.05 -12.85 85.7 -10.45 84.95 -9.9 84.15 -10.05 81.6 -10.65 80.9 -13.55" fill="#663333" fill-opacity="0.2" fill-rule="evenodd" stroke="none"/>
    <path d="M99.7 -4.8 L101.35 -4.65 101.95 -2.8 Q101.4 -1.9 101.3 -0.95 L100.55 4.8 Q99.3 11.05 99.05 17.3 L98.65 18.0 97.8 18.55 97.1 19.35 97.0 19.7 97.5 23.4 Q97.65 24.55 97.2 25.5 95.5 29.4 91.2 28.4 L90.55 27.65 Q89.1 23.95 88.85 19.8 L88.2 19.0 88.2 18.25 86.8 16.0 Q86.65 10.35 84.5 4.8 L85.05 4.35 85.7 4.75 Q88.15 10.1 90.05 15.5 L90.7 13.85 92.9 13.7 93.95 11.1 93.45 10.45 92.75 9.0 92.55 8.1 93.5 7.2 96.7 7.25 96.6 4.25 Q96.2 -0.9 99.7 -4.8" fill="#663333" fill-opacity="0.2" fill-rule="evenodd" stroke="none"/>
    <path d="M72.65 -17.85 L73.3 -15.55 72.85 -15.05 68.35 -15.25 68.1 -16.0 68.35 -16.4 70.4 -16.75 70.95 -18.25 71.85 -18.2 72.65 -17.85" fill="#663333" fill-opacity="0.2" fill-rule="evenodd" stroke="none"/>
    <path d="M94.4 -20.55 Q93.9 -19.75 93.1 -19.4 L90.35 -19.25 89.85 -20.0 90.2 -21.65 91.8 -21.65 92.1 -21.9 Q93.2 -22.7 94.3 -22.3 L94.4 -20.55" fill="#663333" fill-opacity="0.2" fill-rule="evenodd" stroke="none"/>
    <path d="M94.5 23.35 L94.6 24.45 92.55 26.0 90.8 25.3 90.8 23.25 94.3 22.8 94.5 23.35" fill="#663333" fill-opacity="0.2" fill-rule="evenodd" stroke="none"/>
    <path d="M81.55 -19.05 L80.4 -17.4 79.4 -17.6 Q79.45 -18.45 79.8 -19.05 83.55 -25.7 87.6 -32.05 L88.5 -32.3 89.0 -32.85 95.1 -29.7 Q97.0 -28.6 96.7 -26.55 L95.95 -26.2 95.6 -26.55 Q93.15 -29.2 89.85 -30.35 86.55 -24.25 82.55 -18.7 L81.55 -19.05" fill="#663333" fill-opacity="0.2" fill-rule="evenodd" stroke="none"/>
    <path d="M96.45 30.15 L95.9 30.5 95.75 31.55 94.25 32.85 Q90.1 36.15 86.9 31.55 L87.1 30.85 89.9 30.75 Q91.55 30.9 92.85 30.1 95.3 28.4 97.4 27.05 L96.45 30.15" fill="#663333" fill-opacity="0.2" fill-rule="evenodd" stroke="none"/>
    <path d="M101.45 13.5 L102.05 13.15 102.85 13.65 Q101.9 21.05 98.5 27.7 97.55 29.55 96.25 31.2 93.5 34.7 89.35 33.7 L89.25 32.95 86.55 31.6 86.35 30.5 87.3 29.9 87.6 28.65 88.55 28.55 90.8 30.45 Q92.2 30.3 93.5 29.5 94.15 29.15 94.35 28.3 95.2 27.5 95.65 26.55 98.8 20.05 101.45 13.5" fill="#663333" fill-opacity="0.2" fill-rule="evenodd" stroke="none"/>
    <path d="M22.6 -6.7 L22.75 -3.4 21.0 -1.5 Q19.0 -1.15 17.7 -2.7 17.0 -5.75 19.75 -7.15 L22.35 -7.0 22.6 -6.7" fill="#ffffff" fill-opacity="0.2" fill-rule="evenodd" stroke="none"/>
    <path d="M18.25 -5.75 L19.1 -6.7 20.95 -6.9 21.95 -6.0 Q22.05 -4.9 21.4 -4.0 20.35 -2.45 18.55 -3.3 L18.25 -4.9 18.25 -5.75" fill="#ffffff" fill-opacity="0.2" fill-rule="evenodd" stroke="none"/>
    <path d="M62.3 4.55 L49.65 4.45 37.65 4.4 23.55 4.4 9.45 4.35 -4.65 4.35 -18.75 4.35 -32.85 4.3 -46.9 4.3 -61.0 4.3 -75.0 4.3 -89.1 4.4 -101.6 4.05 -101.65 3.25 -79.9 3.0 -65.5 2.85 -51.1 2.8 -34.3 2.95 -18.5 3.1 -2.6 3.05 13.2 3.05 29.1 3.1 44.9 3.1 60.1 3.0 73.8 2.9 80.25 3.0 80.75 3.75 80.1 4.45 62.3 4.55" fill="#ffffff" fill-opacity="0.2" fill-rule="evenodd" stroke="none"/>
    <path d="M-91.0 -9.9 L-90.95 -8.95 -90.2 -8.4 Q-94.05 -3.9 -94.2 1.75 -94.25 2.7 -95.05 2.95 L-96.2 2.95 -96.65 2.2 Q-95.2 -4.25 -92.2 -10.2 L-91.75 -10.35 -91.0 -9.9" fill="#ffffff" fill-opacity="0.2" fill-rule="evenodd" stroke="none"/>
    <path d="M29.55 -14.5 L44.05 -14.55 58.5 -14.5 73.3 -14.4 79.2 -14.2 79.5 -13.8 Q75.7 -11.6 70.35 -12.25 L62.4 -12.6 46.3 -12.65 30.3 -12.7 11.6 -12.7 -7.2 -12.8 -20.45 -12.8 -33.85 -12.7 -47.25 -12.8 -60.65 -12.85 -73.95 -12.9 -87.35 -12.95 -92.95 -13.1 -93.3 -13.75 -79.55 -14.25 -63.35 -14.3 -47.1 -14.45 -30.9 -14.6 -9.3 -14.5 3.1 -14.4 15.15 -14.45 29.55 -14.5" fill="#ffffff" fill-opacity="0.2" fill-rule="evenodd" stroke="none"/>
    <path d="M77.9 -19.8 Q78.45 -19.35 78.3 -18.7 L68.2 -17.7 67.55 -15.95 67.25 -15.55 67.05 -15.5 66.15 -16.35 66.2 -17.65 Q69.25 -20.85 73.85 -20.15 L77.3 -20.15 77.9 -19.8" fill="#ffffff" fill-opacity="0.2" fill-rule="evenodd" stroke="none"/>
    <path d="M77.7 -20.6 L79.25 -22.8 Q84.25 -28.35 88.1 -34.55 88.5 -35.2 89.1 -35.05 L89.3 -34.5 Q95.25 -33.8 98.95 -29.9 L98.75 -29.35 97.35 -29.4 Q93.85 -32.3 89.3 -32.05 L87.05 -30.7 Q83.85 -24.2 78.55 -19.5 L78.1 -19.65 77.7 -20.6" fill="#ffffff" fill-opacity="0.2" fill-rule="evenodd" stroke="none"/>
    <path d="M102.5 -4.65 Q102.6 1.65 101.55 8.0 100.4 15.2 98.25 21.95 97.0 25.95 94.1 28.75 L92.85 29.7 92.0 28.95 92.15 28.7 92.35 28.55 92.75 28.25 92.95 28.3 Q94.85 25.7 96.4 22.7 98.15 19.4 98.75 15.9 L98.9 14.7 98.2 16.65 99.55 8.0 100.6 -0.6 Q101.05 -4.45 100.85 -8.55 100.55 -14.3 99.75 -20.1 L100.3 -20.45 Q102.4 -12.65 102.5 -4.65" fill="#ffffff" fill-opacity="0.2" fill-rule="evenodd" stroke="none"/>
    <path d="M16.85 -5.3 L17.75 -6.5 Q19.25 -8.05 21.35 -8.1 23.45 -8.2 24.9 -6.7 L25.9 -5.3 26.4 -4.05 26.65 -2.55 26.65 -1.3 26.5 -0.55 Q26.15 0.65 25.1 1.35 23.35 2.55 22.1 2.55 L23.6 2.55 27.55 2.55 40.8 2.5 42.3 2.45 54.15 2.4 65.9 2.45 68.05 2.45 73.05 2.45 74.7 2.45 76.3 2.45 79.65 2.45 81.4 2.45 81.4 3.55 79.65 3.55 75.35 3.55 74.3 3.55 73.05 3.55 73.05 3.5 68.05 3.5 65.9 3.45 42.3 3.3 Q18.7 3.15 -4.95 3.3 L-16.75 3.5 Q-29.8 3.7 -42.85 3.5 -52.95 3.3 -63.0 3.35 L-70.95 3.4 -83.75 3.6 -101.45 3.6 -102.2 3.45 -102.55 3.25 -102.7 3.05 -102.75 2.9 -102.7 2.7 -102.6 2.5 -102.2 2.3 -101.45 2.2 -47.3 2.35 -22.65 2.45 -9.85 2.4 Q2.95 2.25 15.8 2.5 L20.65 2.55 Q19.05 2.25 17.7 0.85 16.75 -0.1 16.45 -1.3 16.2 -2.05 16.2 -2.85 16.2 -4.2 16.85 -5.3 M17.6 -1.3 L18.4 -0.2 Q19.6 1.0 21.3 1.0 23.05 1.0 24.2 -0.2 L24.55 -0.55 25.0 -1.3 Q25.4 -2.1 25.4 -3.15 L25.35 -4.05 24.95 -5.3 24.25 -6.25 Q23.05 -7.5 21.35 -7.35 19.65 -7.2 18.4 -6.0 L17.85 -5.3 Q17.2 -4.3 17.2 -3.1 17.2 -2.1 17.6 -1.3 M1.2 -13.95 L-10.95 -13.9 Q-25.4 -13.65 -39.95 -14.1 L-42.75 -14.1 -59.1 -14.05 -60.5 -13.95 -71.75 -13.9 -92.8 -13.95 -93.4 -14.1 -93.6 -14.4 -93.65 -14.7 -93.45 -14.9 Q-92.4 -15.6 -90.9 -15.6 L-60.5 -15.25 Q-38.1 -15.0 -24.1 -15.15 L-2.4 -15.45 Q5.3 -15.6 18.15 -15.05 31.0 -14.55 37.85 -15.1 44.6 -15.7 50.4 -15.35 56.2 -14.95 62.0 -15.25 L72.1 -15.55 76.75 -15.45 77.1 -15.15 77.25 -14.85 77.3 -14.6 77.25 -14.3 77.15 -14.05 76.75 -13.75 76.05 -13.55 24.6 -13.8 Q12.95 -13.8 1.2 -13.95 M71.0 -17.7 L71.1 -16.6 70.5 -16.0 Q69.05 -15.8 68.55 -17.1 68.35 -17.45 68.55 -18.2 L68.75 -18.25 68.85 -18.15 69.05 -17.85 69.15 -17.65 69.3 -17.35 Q69.55 -17.0 70.05 -17.15 L70.1 -17.6 69.8 -18.1 Q69.25 -18.5 69.6 -18.6 70.3 -18.7 70.8 -18.1 L70.85 -17.85 71.0 -17.7 M79.25 -10.6 L79.2 -10.2 78.9 -9.8 78.3 -9.4 77.8 -9.15 Q50.1 -8.35 22.35 -8.85 L-1.35 -8.95 -6.1 -8.9 Q-27.7 -8.8 -49.25 -9.1 L-52.1 -9.15 -54.0 -9.2 Q-66.1 -9.05 -78.2 -8.55 L-78.2 -8.5 -84.8 -8.5 -94.35 -8.6 -95.05 -8.9 -95.35 -9.3 -95.5 -9.65 -95.55 -10.05 -95.5 -10.45 -95.35 -10.85 -95.05 -11.2 -94.35 -11.45 Q-86.25 -11.55 -78.2 -11.3 -65.45 -11.0 -51.65 -11.2 L-52.1 -10.95 Q-27.45 -11.4 -2.8 -11.2 12.85 -11.1 28.5 -11.25 50.75 -11.5 73.1 -11.35 L77.6 -11.35 78.3 -11.6 78.9 -11.35 79.2 -10.95 79.25 -10.6 M91.35 -22.65 L91.55 -22.35 91.65 -22.15 91.8 -21.85 Q92.05 -21.5 92.55 -21.65 L92.6 -22.1 92.3 -22.6 Q91.75 -23.0 92.1 -23.1 92.8 -23.2 93.3 -22.6 L93.35 -22.35 93.5 -22.2 93.6 -21.1 93.0 -20.5 Q91.55 -20.3 91.05 -21.6 90.85 -21.95 91.05 -22.7 L91.25 -22.75 91.35 -22.65 M81.4 8.85 L79.65 8.85 68.05 8.8 65.9 8.8 60.95 8.65 34.05 8.05 33.4 8.3 Q7.4 8.75 -18.65 8.55 L-51.7 8.6 Q-75.2 8.85 -98.75 8.7 L-103.5 8.7 -104.25 8.95 -104.9 8.7 -105.2 8.3 -105.25 7.95 -105.2 7.6 -104.9 7.2 -104.25 6.8 -103.75 6.55 Q-74.5 5.8 -45.2 6.25 L-20.15 6.35 -15.15 6.3 Q7.65 6.2 30.4 6.5 L33.4 6.55 35.4 6.6 60.95 6.0 60.95 5.95 65.9 5.95 67.95 5.95 68.05 5.95 79.65 6.0 81.4 6.0 81.4 8.85 M91.05 23.4 Q90.85 23.05 91.05 22.3 L91.25 22.25 91.35 22.35 91.55 22.65 91.65 22.85 91.8 23.15 Q92.05 23.5 92.55 23.35 L92.6 22.9 92.3 22.4 Q91.75 22.0 92.1 21.9 92.8 21.8 93.3 22.4 L93.35 22.65 93.5 22.8 93.6 23.9 93.0 24.5 Q91.55 24.7 91.05 23.4" fill="#333333" fill-rule="evenodd" stroke="none"/>
    <path d="M-92.85 -15.8 L-92.7 -15.85 -91.9 -15.95 -91.55 -15.55 -92.55 -12.8 -93.85 -9.85 -95.15 -9.85 -95.15 -9.95 -95.15 -10.05 -95.15 -10.15 -95.15 -10.25 -95.15 -10.35 -95.15 -10.4 -95.15 -10.5 -95.2 -10.6 -95.2 -10.65 -95.0 -10.95 -94.9 -11.1 -94.85 -11.2 -94.8 -11.3 -94.8 -11.4 -94.75 -11.75 -94.75 -12.05 -94.8 -12.25 -94.8 -12.4 -92.85 -15.75 -92.85 -15.8 M-91.45 -9.85 L-96.75 1.75 -97.3 2.7 -97.35 2.85 -99.15 2.85 -97.8 -0.05 -97.45 -0.75 Q-95.7 -5.45 -93.25 -9.85 L-91.45 -9.85 M-102.75 2.85 L-100.95 2.85 -103.0 7.15 -103.5 7.85 -103.85 8.1 -104.4 8.05 -104.95 6.95 -102.75 2.85" fill="#333333" fill-rule="evenodd" stroke="none"/>
    <path d="M77.6 -15.3 L78.2 -14.95 78.5 -14.6 78.7 -14.1 78.85 -13.7 79.05 -13.3 79.1 -12.9 78.95 -12.4 78.9 -11.95 82.0 4.2 Q83.65 12.65 85.95 21.0 87.25 26.0 87.9 31.0 L87.75 31.45 87.65 31.8 87.55 31.9 87.1 32.2 86.4 32.05 86.0 31.7 Q83.85 23.5 82.5 15.2 L79.25 -2.2 77.3 -12.2 77.35 -12.65 77.5 -13.15 77.45 -13.6 77.2 -14.0 76.5 -14.8 76.35 -15.15 76.4 -15.4 76.75 -15.55 77.0 -15.6 77.6 -15.3" fill="#333333" fill-rule="evenodd" stroke="none"/>
    <path d="M84.45 -30.7 L87.55 -35.4 88.25 -35.35 88.3 -35.25 88.3 -34.75 86.75 -32.25 83.45 -27.4 80.95 -23.45 Q80.0 -21.45 78.15 -19.35 77.3 -19.15 77.05 -20.1 L79.2 -22.5 Q80.2 -23.6 81.55 -25.95 L84.45 -30.7" fill="#333333" fill-rule="evenodd" stroke="none"/>
    <path d="M99.15 -31.1 L99.7 -29.45 101.65 -24.3 Q106.0 -11.8 105.1 1.0 104.8 5.15 103.95 9.2 L102.2 16.95 100.8 21.75 99.3 26.0 97.8 29.4 96.25 32.45 Q95.3 34.3 92.55 35.4 L91.25 34.8 Q91.4 32.4 92.05 33.25 92.65 34.05 96.0 27.8 99.35 21.5 100.85 15.05 102.35 8.55 102.9 4.55 103.45 0.55 103.35 -4.0 103.25 -8.6 102.1 -15.15 100.95 -21.7 97.55 -29.65 96.8 -31.55 98.85 -31.8 L99.15 -31.1" fill="#333333" fill-rule="evenodd" stroke="none"/>
    <path d="M93.3 32.5 L93.55 32.25 94.05 32.15 95.05 32.0 95.45 32.4 95.35 32.7 94.95 33.15 94.7 33.5 94.4 33.9 94.05 34.3 93.8 34.65 93.55 34.85 93.05 35.05 92.55 35.15 90.55 35.15 89.8 34.9 89.65 34.65 89.55 34.5 88.8 34.25 88.05 33.9 87.3 33.15 86.65 32.4 86.35 32.0 86.15 31.65 86.2 31.25 86.3 30.9 86.4 30.5 86.6 30.25 Q86.8 30.1 87.05 30.05 L87.3 30.0 87.65 30.4 88.0 31.05 88.8 31.9 89.3 32.25 90.05 32.5 90.55 32.7 90.65 32.75 92.8 32.75 93.3 32.5" fill="#333333" fill-rule="evenodd" stroke="none"/>
    <path d="M66.25 -18.75 L66.35 -18.95 66.45 -19.1 66.8 -19.5 66.95 -19.65 67.0 -19.7 67.35 -19.8 67.6 -19.85 67.75 -19.9 67.75 -19.95 68.5 -19.85 69.0 -19.75 69.65 -19.5 69.5 -19.4 69.0 -19.3 67.7 -19.1 67.5 -18.95 67.4 -18.75 67.3 -18.55 67.15 -18.2 67.1 -18.0 67.1 -17.8 67.1 -17.45 67.15 -17.05 67.15 -16.85 67.15 -16.7 67.15 -16.1 67.15 -16.05 67.5 -15.95 67.85 -15.8 68.0 -15.6 68.1 -15.4 68.15 -15.25 68.05 -15.05 67.95 -14.85 67.75 -14.75 67.5 -14.7 67.0 -14.7 66.65 -14.8 66.25 -15.0 66.0 -15.2 65.9 -15.35 65.9 -15.55 65.9 -15.95 65.9 -16.5 65.9 -16.7 65.9 -17.05 65.95 -18.0 65.95 -18.2 66.05 -18.35 66.2 -18.55 66.25 -18.75" fill="#333333" fill-rule="evenodd" stroke="none"/>
    <path d="M77.9 -20.5 L78.15 -20.35 78.25 -20.15 78.35 -19.95 78.3 -19.75 78.25 -19.6 78.2 -19.4 78.0 -19.2 77.85 -19.1 Q72.9 -19.0 68.0 -19.35 L67.7 -19.45 67.55 -19.65 67.5 -19.85 67.55 -20.0 67.7 -20.2 68.0 -20.35 77.25 -20.65 77.5 -20.65 77.9 -20.5" fill="#333333" fill-rule="evenodd" stroke="none"/>
    <path d="M98.75 -31.7 L99.05 -31.4 99.15 -31.15 99.2 -31.05 99.1 -30.85 99.05 -30.65 98.95 -30.45 98.7 -30.35 98.3 -30.4 98.05 -30.5 Q92.9 -32.2 88.0 -34.15 L87.75 -34.3 87.5 -34.5 87.25 -34.7 87.2 -34.85 87.3 -35.0 87.4 -35.15 87.65 -35.3 88.1 -35.25 88.35 -35.2 89.95 -34.7 91.65 -34.15 91.65 -34.2 96.6 -32.45 98.75 -31.7" fill="#333333" fill-rule="evenodd" stroke="none"/>
    <path d="M80.95 -11.45 L79.9 -13.25 80.05 -13.75 Q79.75 -14.05 79.75 -14.4 L79.65 -16.5 79.3 -17.5 79.5 -18.0 80.1 -18.25 80.8 -19.3 82.9 -22.7 84.7 -25.45 87.45 -29.55 88.8 -31.55 89.7 -31.35 90.25 -31.25 92.15 -30.45 95.85 -28.9 96.55 -28.6 96.65 -28.65 96.75 -28.55 96.85 -28.5 99.35 -20.2 Q100.45 -16.05 101.0 -11.8 101.95 -4.3 101.0 3.2 L100.95 3.55 99.5 12.4 98.65 16.05 97.05 21.6 97.0 21.75 96.35 23.5 95.8 24.8 95.3 26.0 94.65 27.3 94.55 27.45 93.7 28.75 93.1 29.3 92.85 29.5 91.25 30.1 90.95 29.9 90.8 29.7 Q89.6 29.1 88.85 28.05 87.45 22.75 86.7 18.8 L85.25 10.95 83.45 2.2 81.55 -7.3 80.95 -11.45 M88.45 -27.2 L86.25 -23.7 84.65 -21.0 83.0 -18.2 81.6 -16.35 81.2 -15.45 82.6 -9.2 83.25 -6.2 84.05 -2.05 85.5 5.05 87.1 12.15 88.6 19.5 Q89.3 23.25 90.75 28.0 L91.35 28.65 91.35 28.5 92.95 28.3 93.85 26.7 95.0 24.2 97.2 18.65 98.05 15.8 98.75 12.9 100.05 5.5 Q100.6 1.7 100.6 -2.0 L100.45 -6.1 99.95 -11.1 99.05 -16.7 97.8 -22.1 96.7 -26.35 89.8 -29.4 88.45 -27.2" fill="#333333" fill-rule="evenodd" stroke="none"/>
    <path d="M87.7 -26.9 L87.75 -26.8 87.8 -26.7 87.95 -26.6 88.05 -26.55 88.05 -26.45 87.95 -26.35 88.85 -25.55 90.05 -24.65 90.4 -24.25 90.4 -24.2 90.35 -24.1 90.3 -24.0 90.15 -23.95 90.0 -24.0 89.85 -24.1 89.65 -24.2 88.3 -25.2 87.35 -26.0 87.05 -26.45 87.0 -26.55 87.0 -26.65 87.0 -26.75 87.05 -26.95 87.05 -27.05 87.15 -27.1 87.2 -27.1 87.3 -27.15 87.5 -27.1 87.6 -27.0 87.7 -26.9" fill="#333333" fill-rule="evenodd" stroke="none"/>
    <path d="M89.75 -27.95 L89.9 -27.9 90.0 -27.8 90.1 -27.7 90.15 -27.5 90.4 -27.25 90.7 -27.05 91.2 -26.55 91.75 -26.05 92.1 -25.55 92.25 -25.45 92.3 -25.35 92.35 -25.25 92.3 -25.15 92.25 -25.1 92.25 -25.05 92.1 -25.05 91.95 -25.1 91.8 -25.2 91.75 -25.2 91.6 -25.25 91.5 -25.35 91.4 -25.45 91.3 -25.55 91.0 -25.75 90.6 -26.0 90.5 -26.2 90.25 -26.5 90.15 -26.65 89.9 -26.85 89.6 -27.15 89.5 -27.25 89.45 -27.35 89.45 -27.4 89.45 -27.5 89.45 -27.6 89.45 -27.7 89.5 -27.8 89.6 -27.9 89.75 -27.95" fill="#333333" fill-rule="evenodd" stroke="none"/>
    <path d="M87.65 -23.55 L87.7 -23.6 87.8 -23.6 87.95 -23.55 88.15 -23.45 88.2 -23.4 88.4 -23.35 88.7 -23.2 89.05 -23.0 89.3 -22.85 89.4 -22.75 89.35 -22.65 89.3 -22.55 89.2 -22.5 89.05 -22.45 88.9 -22.5 88.7 -22.6 88.55 -22.7 88.4 -22.8 88.15 -22.85 88.0 -22.95 87.9 -23.0 87.7 -23.1 87.65 -23.2 87.6 -23.3 87.55 -23.4 87.6 -23.5 87.65 -23.55" fill="#333333" fill-rule="evenodd" stroke="none"/>
    <path d="M87.25 16.9 L87.6 16.55 87.8 16.35 88.2 16.15 88.55 15.9 88.75 15.85 88.75 15.8 88.9 15.9 88.95 16.0 89.0 16.1 89.0 16.15 88.95 16.25 88.9 16.35 88.85 16.45 88.6 16.65 88.1 16.9 88.05 17.0 87.85 17.2 87.7 17.35 87.6 17.4 87.45 17.4 87.35 17.5 87.25 17.5 87.05 17.5 86.85 17.55 86.85 17.5 86.95 17.4 87.0 17.3 87.25 16.9" fill="#333333" fill-rule="evenodd" stroke="none"/>
    <path d="M87.45 19.1 L87.5 19.0 87.55 18.95 87.7 18.75 87.95 18.55 88.35 18.0 88.85 17.5 89.2 17.25 89.45 17.05 89.95 16.65 90.05 16.55 90.25 16.55 90.25 16.5 90.45 16.55 90.5 16.7 90.55 16.75 90.6 16.85 90.55 16.95 90.55 17.05 90.45 17.15 90.3 17.35 90.1 17.5 89.6 17.9 89.15 18.25 89.05 18.35 88.8 18.65 88.55 19.0 88.2 19.3 88.2 19.4 88.15 19.5 88.1 19.6 88.05 19.7 88.0 19.75 87.95 19.85 87.9 19.95 87.75 20.0 87.6 19.95 87.5 19.85 87.45 19.75 87.4 19.65 87.35 19.6 87.4 19.5 87.4 19.3 87.45 19.1" fill="#333333" fill-rule="evenodd" stroke="none"/>
    <path d="M89.95 19.5 L90.4 19.05 90.55 18.95 90.65 18.85 90.7 18.8 90.85 18.8 90.85 18.75 91.0 18.85 91.05 18.95 91.1 19.0 90.7 19.55 90.1 20.1 89.8 20.5 89.7 20.55 89.6 20.6 89.45 20.65 89.35 20.75 89.25 20.8 89.2 20.75 89.25 20.65 89.3 20.55 89.35 20.45 89.5 19.95 89.95 19.5" fill="#333333" fill-rule="evenodd" stroke="none"/>
    <path d="M97.6 11.45 L97.25 11.25 97.1 11.15 97.1 11.05 97.15 10.95 97.3 10.9 97.4 10.9 97.5 10.85 97.7 10.9 97.75 10.9 97.95 10.95 98.4 11.25 98.65 11.45 99.05 11.65 99.15 11.7 99.3 11.8 99.4 11.9 99.5 12.0 99.55 12.1 99.65 12.2 99.55 12.3 99.5 12.3 99.4 12.3 99.25 12.35 99.05 12.3 98.8 12.1 98.55 12.0 98.3 11.9 97.9 11.65 97.6 11.45" fill="#333333" fill-rule="evenodd" stroke="none"/>
    <path d="M96.9 8.9 L96.95 8.95 97.0 9.0 97.45 9.2 97.55 9.3 97.65 9.4 97.85 9.5 98.15 9.7 98.25 9.8 98.25 9.85 98.15 10.0 98.15 10.05 98.0 10.05 97.8 10.0 97.65 9.9 97.45 9.8 97.35 9.7 97.0 9.45 96.65 9.25 96.55 9.15 96.4 9.05 96.35 8.95 96.35 8.9 96.4 8.85 96.5 8.8 96.8 8.8 96.9 8.9" fill="#333333" fill-rule="evenodd" stroke="none"/>
    <path d="M99.5 7.6 L99.55 7.7 99.55 7.8 99.5 7.85 99.4 7.85 99.05 7.9 98.75 7.8 98.55 7.7 98.5 7.7 98.05 7.6 98.0 7.55 98.0 7.45 98.05 7.35 98.15 7.3 98.5 7.3 98.75 7.4 99.1 7.5 99.5 7.6" fill="#333333" fill-rule="evenodd" stroke="none"/>
    <path d="M103.8 -0.7 L104.0 -0.6 104.15 -0.5 104.25 -0.4 104.3 -0.35 104.35 -0.25 104.35 -0.15 104.3 -0.05 104.3 0.05 104.3 0.15 104.25 0.25 104.2 0.3 104.05 0.35 103.95 0.3 103.75 0.25 103.65 0.15 103.2 0.05 103.0 0.0 102.6 -0.2 102.5 -0.25 102.45 -0.35 102.45 -0.45 102.45 -0.55 102.5 -0.65 102.6 -0.75 102.8 -0.8 103.05 -0.75 103.8 -0.7" fill="#333333" fill-rule="evenodd" stroke="none"/>
    <path d="M104.3 1.2 L104.45 1.25 104.5 1.35 104.55 1.45 104.5 1.55 104.45 1.65 104.3 1.7 104.05 1.75 102.05 1.65 101.9 1.6 101.85 1.5 101.85 1.4 101.85 1.35 101.95 1.3 102.3 1.2 102.55 1.15 104.05 1.2 104.3 1.2" fill="#333333" fill-rule="evenodd" stroke="none"/>
    <path d="M77.5 -10.15 Q77.65 -10.65 78.2 -10.5 79.0 -9.2 79.25 -7.5 L80.5 1.7 80.7 2.0 80.7 2.75 79.15 2.9 Q78.75 2.6 78.6 2.1 77.3 -2.4 76.9 -7.05 L76.25 -8.9 Q75.8 -9.6 75.95 -10.4 L76.1 -10.6 Q76.7 -10.7 76.85 -10.0 L77.05 -10.05 77.5 -10.15" fill="#333333" fill-rule="evenodd" stroke="none"/>
    <path d="M75.35 -9.6 L75.4 -9.55 75.45 -9.4 75.6 -9.1 75.45 -8.65 75.5 -8.35 Q76.25 -6.15 76.35 -3.95 L76.1 -3.6 76.1 -2.75 76.0 -3.5 75.7 -3.9 Q75.55 -5.6 75.0 -7.15 74.55 -8.35 74.8 -9.7 L75.05 -9.8 75.25 -9.7 75.35 -9.6" fill="#333333" fill-rule="evenodd" stroke="none"/>
    <path d="M76.35 -0.15 Q76.3 -0.8 76.75 -0.95 77.15 -0.65 77.05 0.2 77.0 0.45 77.25 0.95 L77.85 3.05 77.75 3.55 Q77.6 4.05 77.4 3.6 76.55 1.75 76.35 -0.15" fill="#333333" fill-rule="evenodd" stroke="none"/>
    <path d="M-98.75 4.85 L-98.55 4.9 -98.45 5.0 -98.4 5.1 -98.4 5.2 -98.4 5.3 -98.4 5.4 -98.4 5.45 -98.4 5.55 -99.05 6.45 -99.8 7.2 -100.3 7.65 -100.4 7.8 -100.75 8.2 -100.95 8.45 -101.05 8.45 -101.15 8.5 -101.35 8.45 -101.4 8.35 -101.5 8.25 -101.55 8.15 -101.55 8.05 -101.55 8.0 -101.5 7.9 -101.25 7.6 -100.85 7.15 -100.65 6.95 -100.5 6.85 -100.4 6.75 -100.25 6.65 -99.9 6.2 -99.4 5.65 -99.15 5.35 -99.15 5.25 -99.15 5.15 -99.1 5.05 -99.05 5.0 -98.95 4.9 -98.9 4.9 -98.75 4.85" fill="#333333" fill-rule="evenodd" stroke="none"/>
    <path d="M-96.5 4.9 L-96.45 5.0 -96.45 5.1 -96.45 5.2 -96.45 5.3 -96.45 5.4 -96.55 5.45 -96.55 5.55 -96.55 5.65 -96.6 5.75 -96.65 5.85 -96.65 5.95 -96.7 6.15 -96.75 6.3 -96.8 6.4 -96.85 6.5 -96.85 6.6 -96.9 6.7 -96.95 6.8 -97.0 6.95 -97.05 7.05 -97.1 7.15 -97.15 7.25 -97.15 7.35 -97.2 7.45 -97.25 7.65 -97.3 7.8 -97.4 7.8 -97.55 7.85 -97.55 7.95 -97.6 8.05 -97.6 8.15 -97.65 8.25 -97.7 8.3 -97.8 8.35 -97.8 8.25 -97.8 8.15 -97.75 8.05 -97.7 7.9 -97.7 7.8 -97.75 7.7 -97.8 7.6 -97.8 7.5 -97.75 7.4 -97.75 7.3 -97.7 7.25 -97.7 7.15 -97.7 7.05 -97.7 6.95 -97.7 6.85 -97.7 6.75 -97.65 6.65 -97.6 6.55 -97.55 6.45 -97.45 6.2 -97.35 5.8 -97.25 5.45 -97.2 5.35 -97.15 5.25 -97.1 5.15 -97.05 5.05 -97.05 4.95 -97.0 4.9 -96.95 4.8 -96.85 4.8 -96.75 4.75 -96.6 4.8 -96.5 4.9" fill="#333333" fill-rule="evenodd" stroke="none"/>
    <path d="M-44.2 6.05 L-44.2 5.95 -44.15 5.85 -44.1 5.8 -44.1 5.7 -44.0 5.6 -44.0 5.5 -43.95 5.4 -43.95 5.3 -43.9 5.2 -43.8 5.05 -43.7 4.85 -43.55 4.55 -43.5 4.45 -43.5 4.35 -43.5 4.3 -43.45 4.2 -43.4 4.1 -43.35 4.0 -43.2 3.95 -43.0 4.0 -42.95 4.1 -42.9 4.2 -42.9 4.25 -42.95 4.45 -42.95 4.65 -43.0 4.85 -43.05 4.95 -43.1 5.1 -43.2 5.3 -43.25 5.4 -43.3 5.5 -43.35 5.6 -43.35 5.7 -43.4 5.8 -43.45 5.85 -43.5 5.95 -43.5 6.05 -43.55 6.15 -43.6 6.25 -43.65 6.35 -43.7 6.45 -43.7 6.55 -43.85 6.7 -44.0 7.0 -44.2 7.3 -44.2 7.35 -44.25 7.45 -44.3 7.55 -44.45 7.6 -44.55 7.55 -44.6 7.45 -44.6 7.35 -44.6 7.3 -44.55 7.2 -44.55 7.1 -44.55 7.0 -44.55 6.9 -44.5 6.8 -44.45 6.7 -44.4 6.65 -44.35 6.55 -44.35 6.45 -44.35 6.35 -44.3 6.25 -44.25 6.15 -44.2 6.05" fill="#333333" fill-rule="evenodd" stroke="none"/>
    <path d="M-42.0 5.35 L-41.95 5.45 -41.9 5.55 -41.9 5.65 -41.85 5.75 -41.8 5.85 -41.75 5.95 -41.7 6.05 -41.7 6.1 -41.65 6.2 -41.55 6.3 -41.5 6.4 -41.45 6.5 -41.3 6.6 -41.25 6.7 -41.3 6.75 -41.35 6.85 -41.45 6.9 -41.5 6.9 -41.7 6.85 -41.85 6.8 -42.15 6.5 -42.4 6.15 -42.5 5.95 -42.5 5.85 -42.5 5.8 -42.45 5.7 -42.45 5.6 -42.45 5.5 -42.4 5.4 -42.3 5.35 -42.2 5.3 -42.0 5.35" fill="#333333" fill-rule="evenodd" stroke="none"/>
    <path d="M-9.2 -12.35 L-9.1 -11.9 -9.1 -11.3 -9.05 -10.95 -9.0 -10.85 -8.95 -10.75 -8.9 -10.65 -8.9 -10.55 -8.8 -10.5 -8.7 -10.3 -8.6 -10.1 -8.6 -10.0 -8.55 -9.9 -8.5 -9.8 -8.6 -9.8 -8.7 -9.8 -8.75 -9.8 -8.85 -9.8 -9.0 -9.9 -9.25 -10.15 -9.5 -10.55 -9.6 -10.8 -9.65 -11.3 -9.65 -11.85 -9.55 -12.3 -9.45 -12.35 -9.35 -12.4 -9.2 -12.35" fill="#333333" fill-rule="evenodd" stroke="none"/>
    <path d="M-6.8 -12.55 L-6.7 -12.45 -6.65 -12.35 -6.65 -12.25 -6.65 -12.15 -6.65 -12.1 -6.6 -12.0 -6.55 -11.9 -6.5 -11.7 -6.45 -11.5 -6.45 -11.4 -6.4 -11.3 -6.35 -11.25 -6.3 -11.15 -6.3 -11.05 -6.25 -10.95 -6.2 -10.85 -6.15 -10.75 -6.15 -10.65 -6.2 -10.55 -6.15 -10.4 -6.15 -10.2 -6.15 -10.1 -6.15 -10.0 -6.2 -9.95 -6.35 -9.85 -6.5 -9.9 -6.55 -10.0 -6.6 -10.1 -6.6 -10.2 -6.6 -10.3 -6.65 -10.5 -6.7 -10.55 -6.75 -10.65 -6.8 -10.75 -6.8 -10.85 -6.85 -10.95 -6.9 -11.05 -6.95 -11.25 -7.05 -11.5 -7.15 -11.8 -7.2 -12.0 -7.2 -12.05 -7.2 -12.15 -7.2 -12.25 -7.2 -12.35 -7.2 -12.45 -7.15 -12.55 -6.95 -12.6 -6.8 -12.55" fill="#333333" fill-rule="evenodd" stroke="none"/>
    <path d="M-68.6 0.35 L-68.55 0.45 -68.45 0.55 -68.4 0.7 -68.35 0.8 -68.35 0.9 -68.25 1.1 -68.05 1.4 -67.85 1.65 -67.8 1.75 -67.8 1.85 -67.75 1.95 -67.7 2.05 -67.65 2.15 -67.6 2.25 -67.55 2.3 -67.5 2.5 -67.55 2.6 -67.6 2.7 -67.7 2.75 -67.8 2.7 -67.85 2.6 -67.95 2.5 -68.15 2.4 -68.2 2.3 -68.25 2.25 -68.3 2.15 -68.3 2.05 -68.35 1.95 -68.5 1.75 -68.7 1.5 -68.85 1.2 -68.9 1.1 -68.9 1.0 -68.95 0.9 -68.95 0.8 -68.95 0.7 -69.05 0.6 -69.1 0.55 -69.1 0.45 -69.1 0.35 -69.0 0.25 -68.85 0.2 -68.7 0.25 -68.6 0.35" fill="#333333" fill-rule="evenodd" stroke="none"/>
    <path d="M-66.55 -2.15 L-66.5 -2.25 -66.35 -2.3 -66.2 -2.25 -66.1 -2.15 -66.1 -2.05 -66.1 -1.95 -66.0 -1.85 -65.95 -1.8 -65.95 -1.7 -66.0 -1.6 -66.05 -1.5 -66.05 -1.05 -66.0 -0.55 -65.85 0.0 -65.85 0.55 -65.8 1.2 -65.75 1.8 -65.65 2.05 -65.6 2.35 -65.6 2.65 -65.55 2.75 -65.55 2.8 -65.6 2.9 -65.7 3.0 -65.8 3.1 -65.9 3.1 -66.05 3.0 -66.1 2.9 -66.1 2.8 -66.15 2.7 -66.15 2.65 -66.2 2.55 -66.2 2.45 -66.3 2.35 -66.5 0.85 -66.6 -0.85 -66.6 -2.05 -66.55 -2.15" fill="#333333" fill-rule="evenodd" stroke="none"/>
    <path d="M-63.45 0.4 L-63.4 0.45 -63.35 0.55 -63.35 0.65 -63.35 1.2 -63.35 1.9 -63.35 2.45 -63.4 2.55 -63.45 2.65 -63.5 2.75 -63.55 2.8 -63.65 2.8 -63.65 2.75 -63.75 2.65 -63.85 2.55 -63.85 2.0 -63.85 1.3 -63.85 0.85 -63.85 0.75 -63.95 0.65 -64.0 0.55 -64.0 0.45 -63.95 0.4 -63.85 0.4 -63.7 0.35 -63.6 0.35 -63.6 0.3 -63.45 0.4" fill="#333333" fill-rule="evenodd" stroke="none"/>
    <path d="M74.55 -4.65 L74.6 -4.55 Q74.7 -3.7 74.95 -2.9 L75.25 -1.1 75.45 0.05 75.4 0.1 75.35 0.2 75.3 0.3 75.3 0.4 75.35 0.5 75.35 0.7 75.35 0.8 75.3 0.9 75.15 0.9 75.1 0.8 75.1 0.7 75.1 0.6 75.05 0.5 75.05 0.4 75.0 0.3 74.95 0.2 74.85 0.15 74.5 -1.55 74.15 -3.35 74.15 -4.45 74.15 -4.55 74.25 -4.65 74.4 -4.7 74.55 -4.65" fill="#333333" fill-rule="evenodd" stroke="none"/>
    <path d="M73.5 -1.0 L73.65 -1.0 73.65 -1.05 73.8 -0.95 73.9 -0.85 73.95 -0.8 73.95 -0.7 73.95 -0.6 73.95 -0.4 73.95 -0.2 74.0 -0.1 74.0 -0.05 74.0 0.05 74.05 0.15 74.1 0.25 74.2 0.45 74.3 0.65 74.3 0.7 74.3 0.8 74.3 0.9 74.3 1.1 74.35 1.3 74.3 1.35 74.25 1.35 74.15 1.4 74.0 1.35 73.9 1.25 73.9 1.15 73.85 1.05 73.8 1.0 73.75 0.9 73.65 0.8 73.6 0.7 73.55 0.6 73.5 0.5 73.4 0.4 73.35 0.15 73.35 -0.25 73.35 -0.6 73.35 -0.7 73.35 -0.8 73.4 -0.9 73.45 -0.95 73.5 -1.0" fill="#333333" fill-rule="evenodd" stroke="none"/>
    <path d="M79.35 4.25 L79.5 4.35 79.6 4.45 79.65 4.5 79.65 4.9 79.7 5.45 79.7 6.0 79.7 6.1 79.75 6.2 79.8 6.3 79.85 6.4 79.95 6.75 80.1 7.35 80.3 7.8 80.35 7.9 80.35 8.0 80.3 8.1 80.3 8.2 80.3 8.25 80.3 8.35 80.25 8.45 80.25 8.55 80.2 8.65 80.2 8.7 80.1 8.75 80.0 8.75 79.8 8.7 79.75 8.6 79.7 8.5 79.7 8.45 79.7 8.35 79.7 8.25 79.7 8.15 79.6 8.05 79.6 7.95 79.55 7.85 79.55 7.75 79.45 7.6 79.4 7.5 79.4 7.4 79.35 7.3 79.3 7.1 79.3 6.95 79.25 6.85 79.2 6.75 79.15 6.65 79.1 6.55 79.05 6.35 79.0 6.15 79.0 5.7 79.0 5.05 79.05 4.5 79.1 4.4 79.15 4.35 79.2 4.3 79.35 4.3 79.35 4.25" fill="#333333" fill-rule="evenodd" stroke="none"/>
    <path d="M43.9 2.8 L44.05 2.9 44.1 2.95 44.2 3.05 44.2 3.25 44.2 3.55 44.2 3.9 44.15 4.0 44.1 4.1 44.05 4.2 44.05 4.3 44.05 4.4 44.05 4.45 44.05 4.55 44.0 4.65 43.95 4.75 43.95 4.85 43.95 4.95 43.9 5.05 43.7 5.1 43.55 5.05 43.45 4.95 43.45 4.85 43.45 4.75 43.4 4.65 43.4 4.55 43.4 4.45 43.4 4.3 43.4 4.1 43.45 4.0 43.5 3.9 43.55 3.8 43.55 3.7 43.55 3.55 43.55 3.25 43.55 3.05 43.6 3.0 43.7 2.9 43.85 2.85 43.9 2.8" fill="#333333" fill-rule="evenodd" stroke="none"/>
    <path d="M45.6 2.95 L45.75 3.0 45.8 3.1 45.9 3.2 45.9 3.85 45.95 4.6 45.95 5.15 45.95 5.25 46.0 5.35 45.95 5.45 45.9 5.55 45.8 5.65 45.8 5.7 45.65 5.75 45.65 5.7 45.55 5.55 45.45 5.45 45.4 5.4 45.3 5.2 45.25 5.1 45.25 4.45 45.25 3.7 45.3 3.15 45.4 3.05 45.45 2.95 45.6 2.95" fill="#333333" fill-rule="evenodd" stroke="none"/>
    <path d="M23.7 -3.15 L23.95 -3.05 24.05 -3.0 24.1 -2.9 24.2 -2.8 24.2 -2.7 24.2 -2.4 24.25 -1.95 24.2 -1.5 24.15 -1.4 24.1 -1.3 23.95 -1.0 23.75 -0.65 23.65 -0.55 23.4 -0.25 22.55 0.3 22.35 0.35 22.05 0.45 21.55 0.6 21.2 0.6 20.95 0.55 20.85 0.45 20.8 0.35 20.6 0.25 20.45 0.15 20.3 0.0 20.25 -0.1 20.25 -0.2 20.25 -0.5 20.3 -0.95 20.45 -1.4 20.5 -1.5 20.5 -1.6 20.6 -1.7 20.95 -2.05 21.5 -2.65 21.6 -2.7 21.65 -2.7 21.8 -2.75 22.3 -2.8 22.45 -2.9 22.55 -3.0 22.6 -3.0 22.8 -3.05 23.0 -3.1 23.1 -3.1 23.3 -3.1 23.3 -3.15 23.7 -3.15" fill="#333333" fill-rule="evenodd" stroke="none"/>
    <path d="M21.4 -4.0 L21.5 -4.1 21.6 -4.15 21.65 -4.2 21.8 -4.25 22.05 -4.3 22.05 -4.4 22.05 -4.5 22.05 -4.6 22.05 -4.65 22.1 -4.75 22.15 -4.85 22.25 -4.9 22.3 -4.95 22.45 -4.95 22.45 -5.0 22.7 -4.9 22.8 -4.85 22.85 -4.75 22.95 -4.65 23.0 -4.55 23.0 -4.45 23.05 -4.35 23.05 -4.25 23.05 -4.15 23.05 -4.1 23.1 -4.0 23.1 -3.9 23.1 -3.8 23.05 -3.7 22.95 -3.6 22.9 -3.5 22.85 -3.4 22.8 -3.3 22.7 -3.25 22.55 -3.15 22.4 -3.05 22.2 -3.0 21.7 -3.0 21.35 -3.05 21.25 -3.15 21.2 -3.25 21.2 -3.35 21.2 -3.45 21.2 -3.55 21.2 -3.65 21.2 -3.75 21.2 -3.8 21.3 -3.9 21.4 -4.0" fill="#333333" fill-rule="evenodd" stroke="none"/>
    <path d="M-93.65 -3.0 L-93.35 -1.7 Q-93.15 -1.25 -92.75 -0.9 -91.9 0.0 -90.65 0.0 -89.35 0.0 -88.55 -0.9 L-88.25 -1.15 -87.95 -1.7 Q-87.65 -2.3 -87.65 -3.05 L-87.7 -3.7 -88.0 -4.6 -88.5 -5.3 Q-89.35 -6.25 -90.6 -6.1 -91.85 -6.0 -92.75 -5.15 L-93.15 -4.6 Q-93.65 -3.9 -93.65 -3.0 M-93.3 -0.15 Q-93.95 -0.8 -94.2 -1.7 L-94.35 -2.85 Q-94.35 -3.8 -93.9 -4.6 L-93.25 -5.5 Q-92.15 -6.65 -90.6 -6.65 -89.05 -6.75 -88.0 -5.65 L-87.3 -4.6 -86.9 -3.7 -86.75 -2.6 -86.75 -1.7 -86.85 -1.15 Q-87.1 -0.25 -87.85 0.25 -89.15 1.1 -90.05 1.1 L-91.1 1.1 Q-92.3 0.9 -93.3 -0.15" fill="#333333" fill-rule="evenodd" stroke="none"/>
    <path d="M-88.85 -3.05 L-88.65 -3.0 -88.6 -2.95 -88.55 -2.9 -88.5 -2.8 -88.5 -2.75 -88.5 -2.5 -88.45 -2.2 -88.5 -1.85 -88.5 -1.8 -88.55 -1.7 -88.65 -1.5 -88.8 -1.25 -88.9 -1.15 -89.05 -0.95 -89.7 -0.55 -89.85 -0.5 -90.05 -0.45 -90.4 -0.35 -90.65 -0.35 -90.85 -0.35 -90.95 -0.45 -90.95 -0.5 -91.1 -0.6 -91.2 -0.65 -91.35 -0.75 -91.35 -0.85 -91.35 -0.9 -91.35 -1.15 -91.35 -1.45 -91.2 -1.8 -91.2 -1.85 -91.2 -1.95 -91.1 -2.0 -90.85 -2.25 -90.45 -2.7 -90.4 -2.75 -90.35 -2.75 Q-90.25 -2.8 -90.25 -2.8 L-89.85 -2.8 -89.75 -2.9 -89.7 -2.95 -89.65 -2.95 -89.5 -3.0 -89.35 -3.05 -89.3 -3.05 -89.15 -3.05 -88.85 -3.05" fill="#333333" fill-rule="evenodd" stroke="none"/>
    <path d="M-90.55 -3.7 L-90.45 -3.75 -90.4 -3.8 -90.35 -3.85 Q-90.25 -3.85 -90.25 -3.9 L-90.05 -3.9 -90.05 -4.0 -90.05 -4.05 -90.05 -4.15 -90.0 -4.25 -90.0 -4.3 -89.9 -4.35 -89.85 -4.4 -89.75 -4.4 -89.75 -4.45 -89.6 -4.35 -89.5 -4.3 -89.45 -4.25 -89.4 -4.15 -89.35 -4.1 -89.35 -4.0 -89.3 -3.95 -89.3 -3.9 -89.3 -3.8 -89.3 -3.75 -89.3 -3.7 -89.3 -3.6 -89.3 -3.55 -89.3 -3.5 -89.4 -3.4 -89.45 -3.35 -89.45 -3.25 -89.5 -3.2 -89.6 -3.15 -89.7 -3.05 -89.8 -3.0 -89.95 -2.95 -90.3 -2.95 -90.55 -3.0 -90.65 -3.05 -90.65 -3.15 -90.65 -3.2 -90.65 -3.3 -90.65 -3.35 -90.65 -3.45 -90.65 -3.5 -90.65 -3.55 -90.6 -3.6 -90.55 -3.7" fill="#333333" fill-rule="evenodd" stroke="none"/>
  </g>
</svg>
