<?xml version="1.0" encoding="UTF-8" standalone="no"?>
<svg xmlns:xlink="http://www.w3.org/1999/xlink" height="59.95px" width="60.0px" xmlns="http://www.w3.org/2000/svg">
  <g transform="matrix(1.0, 0.0, 0.0, 1.0, -2.35, -2.35)">
    <path d="M54.9 13.6 Q54.2 12.45 52.9 11.55 L48.7 8.7 Q46.55 7.05 44.15 5.7 41.75 4.35 39.25 3.95 L35.4 3.55 32.25 3.0 27.3 3.3 Q25.0 3.55 22.25 4.75 L16.95 7.4 13.55 9.35 Q12.7 9.95 11.55 11.55 L8.1 15.85 Q6.2 18.05 5.2 20.5 L3.5 25.4 Q2.8 27.75 3.1 29.6 3.45 31.5 3.0 32.25 3.25 35.55 3.7 37.85 4.2 40.2 5.35 42.65 L7.8 47.25 9.65 50.65 Q10.25 52.0 11.55 52.9 13.6 55.3 15.7 56.65 L20.35 59.1 Q22.8 60.2 25.65 60.75 L29.75 61.15 32.25 61.5 37.7 61.3 Q40.25 60.8 42.7 59.65 45.2 58.55 47.6 56.75 L51.0 54.4 52.9 52.9 56.15 48.55 Q57.8 46.5 58.8 43.85 L60.45 38.7 61.45 34.85 Q61.9 33.45 61.5 32.25 61.75 30.15 61.15 27.0 60.6 23.9 59.55 21.6 L57.0 17.05 54.9 13.6 Z" fill="none" stroke="#e66b7f" stroke-linecap="round" stroke-linejoin="round" stroke-opacity="0.5019608" stroke-width="1.5"/>
  </g>
</svg>
