<?xml version="1.0" encoding="UTF-8" standalone="no"?>
<svg xmlns:xlink="http://www.w3.org/1999/xlink" height="37.75px" width="54.9px" xmlns="http://www.w3.org/2000/svg">
  <g transform="matrix(1.0, 0.0, 0.0, 1.0, 27.45, 18.9)">
    <path d="M15.45 -16.55 L15.45 -16.7 15.5 -16.8 15.5 -16.9 24.35 -16.9 Q28.45 -2.05 24.35 17.65 L15.1 17.65 15.05 17.6 15.05 17.55 15.0 17.45 14.8 17.15 14.5 16.9 14.3 16.7 14.15 16.6 13.75 16.55 12.75 16.5 11.2 17.0 10.4 17.65 -25.15 17.65 Q-27.9 0.35 -25.15 -16.9 L10.4 -16.9 10.45 -16.8 10.8 -16.4 11.65 -15.85 12.25 -15.65 12.6 -15.5 13.6 -15.4 13.95 -15.45 14.05 -15.55 14.2 -15.65 14.35 -15.7 14.55 -15.8 14.65 -15.9 14.85 -16.0 14.95 -16.05 15.1 -16.15 15.2 -16.2 15.3 -16.3 15.35 -16.4 15.4 -16.45 15.45 -16.55" fill="#bda775" fill-rule="evenodd" stroke="none"/>
    <path d="M10.65 9.6 L10.9 10.0 11.0 10.35 11.0 10.75 11.0 11.5 11.0 11.85 11.0 12.6 11.0 13.0 11.0 13.35 10.95 13.7 10.8 14.1 10.65 14.5 10.0 14.85 9.3 15.25 8.0 16.0 7.85 16.35 7.5 16.7 7.15 17.0 6.5 17.05 1.65 17.25 1.25 17.6 0.5 17.85 -1.0 17.85 -1.85 17.6 -2.25 17.25 -4.5 16.95 -5.35 16.75 -5.75 16.85 -6.0 16.95 -6.5 17.1 -9.0 17.1 -9.75 16.85 -9.95 16.45 -10.1 16.1 -10.1 15.75 -9.95 15.4 -9.75 15.1 -9.5 15.0 -9.0 14.9 -6.75 14.6 -5.85 14.25 -5.5 13.85 -5.25 13.5 -5.2 13.15 -4.95 12.75 -4.75 12.5 -4.5 12.4 -4.0 12.25 -3.0 12.0 -3.0 11.6 -3.0 11.25 -3.0 10.85 -3.0 10.5 -3.0 10.1 -2.8 9.75 -2.5 9.35 -2.1 9.0 -1.85 8.75 -1.6 8.65 -0.75 8.35 -0.1 8.1 0.5 8.05 0.5 8.0 3.5 8.0 4.25 8.25 4.75 8.6 5.05 8.75 6.5 9.0 7.15 9.1 7.4 9.1 8.0 9.05 9.5 9.0 10.25 9.25 10.65 9.6" fill="#663300" fill-opacity="0.2" fill-rule="evenodd" stroke="none"/>
    <path d="M5.75 4.0 L6.15 4.35 6.35 4.75 6.5 5.1 6.6 5.5 6.65 5.85 6.65 6.25 6.5 6.6 6.25 7.0 6.0 7.35 5.65 7.75 5.6 8.1 5.8 8.45 6.15 8.85 6.85 9.65 7.0 10.0 7.1 10.35 7.15 10.75 7.15 11.1 7.15 11.5 7.15 12.25 7.0 12.6 6.75 13.0 6.25 13.35 5.5 13.75 5.15 14.1 4.9 14.35 4.65 14.45 3.75 14.75 3.5 15.1 3.15 15.35 2.5 15.45 1.0 15.5 0.15 15.25 -0.25 14.85 -0.5 14.65 -1.35 14.35 -1.85 14.5 -2.5 14.6 -3.35 14.35 -3.7 13.95 -4.0 13.6 -4.1 13.25 -4.25 12.85 -4.5 12.5 -4.5 12.1 -4.6 11.75 -4.6 11.35 -4.55 11.0 -4.35 10.6 -4.0 10.25 -4.05 9.9 -4.3 9.45 -4.5 9.1 -4.5 8.75 -4.45 8.35 -4.4 8.0 -4.35 7.6 -4.35 7.25 -4.1 6.85 -3.5 6.5 -3.0 6.25 -1.85 6.1 -1.45 5.75 -1.1 5.5 0.65 5.1 2.4 4.6 2.55 4.25 2.9 3.85 3.15 3.6 3.4 3.55 4.0 3.4 4.0 3.35 4.5 3.35 5.25 3.6 5.75 4.0" fill="#663300" fill-opacity="0.2" fill-rule="evenodd" stroke="none"/>
    <path d="M24.0 4.6 L24.75 4.85 25.1 5.25 25.25 5.6 25.35 6.35 25.4 7.5 25.35 8.6 25.25 9.0 25.55 10.85 25.55 13.1 25.5 15.35 25.45 15.7 25.3 16.1 25.1 16.45 24.9 16.75 24.65 16.85 24.0 16.95 23.5 17.0 21.05 16.45 20.15 16.25 19.8 15.85 19.5 15.5 19.5 15.1 19.5 14.75 19.5 14.0 19.5 13.25 19.65 12.85 19.9 12.5 20.15 12.25 20.4 12.15 22.1 11.6 22.15 11.35 22.15 11.1 22.15 11.05 21.55 10.85 20.65 10.6 20.4 10.25 20.2 9.85 20.15 9.5 20.2 9.15 20.4 8.75 20.65 8.35 21.5 8.1 22.15 7.85 22.25 7.5 22.25 7.1 22.25 6.75 22.25 6.35 22.25 6.0 22.35 5.65 22.5 5.25 23.0 4.85 24.0 4.65 24.0 4.6" fill="#663300" fill-opacity="0.2" fill-rule="evenodd" stroke="none"/>
    <path d="M25.5 -0.25 L26.15 0.0 26.5 0.35 26.75 0.75 26.9 1.1 26.95 1.5 26.9 1.85 26.75 2.25 26.5 2.6 26.15 2.95 25.7 3.4 25.5 3.75 25.5 4.1 25.35 4.45 25.15 4.85 25.0 5.25 25.2 5.55 25.6 6.0 26.25 6.75 26.4 7.1 26.5 7.5 26.5 7.85 26.5 8.25 26.3 8.6 26.1 8.95 25.9 9.25 25.65 9.35 25.0 9.6 25.0 10.0 25.0 10.35 25.0 10.75 25.0 11.1 24.85 11.45 24.65 11.85 24.25 12.25 23.5 12.5 23.0 12.45 21.0 12.35 20.15 12.1 19.9 11.75 19.65 11.35 19.65 11.0 19.65 10.25 19.65 9.1 19.65 8.35 19.7 8.0 19.9 7.6 20.25 7.35 20.4 7.25 21.0 7.0 21.0 6.75 21.0 6.35 21.0 6.0 21.0 5.6 21.15 5.25 21.55 4.5 22.2 3.35 22.4 3.0 22.5 2.6 22.5 2.25 22.5 1.85 22.6 1.5 22.8 1.1 23.15 0.75 24.0 0.35 24.65 0.0 25.5 -0.2 25.5 -0.25" fill="#663300" fill-opacity="0.2" fill-rule="evenodd" stroke="none"/>
    <path d="M3.0 -16.4 L3.25 -16.0 3.4 -15.65 3.35 -15.3 3.15 -14.9 2.9 -14.5 2.6 -14.35 2.0 -14.2 1.5 -14.15 0.65 -14.4 0.4 -14.75 -0.25 -15.0 -0.5 -14.65 -0.75 -14.4 -0.85 -14.3 -1.5 -14.2 -2.0 -14.15 -2.85 -14.4 -3.6 -14.4 -3.6 -14.0 -3.6 -13.65 -3.6 -13.25 -3.6 -12.9 -3.75 -12.55 -4.0 -12.15 -4.25 -11.9 -4.35 -11.8 -5.05 -11.45 -5.25 -11.15 -5.4 -10.8 -5.75 -10.4 -6.6 -10.0 -6.9 -9.8 -7.6 -9.45 -7.85 -9.25 -8.5 -9.2 -9.5 -9.15 -10.35 -9.4 -10.6 -9.75 -10.8 -10.15 -10.85 -10.5 -11.35 -10.9 -12.0 -11.15 -12.85 -11.4 -13.1 -11.75 -13.35 -12.15 -13.5 -12.5 -14.0 -12.9 -14.5 -13.25 -14.7 -13.65 -14.9 -14.0 -15.1 -14.4 -15.25 -14.75 -15.3 -14.95 -18.5 -15.6 -19.1 -15.75 -19.4 -16.2 -19.5 -16.5 -19.4 -16.85 -19.1 -17.25 -18.75 -17.65 -18.25 -17.75 -14.0 -17.75 -12.5 -17.75 -11.85 -17.5 -11.45 -17.3 -10.85 -17.0 -9.75 -17.0 -9.1 -17.15 -3.0 -17.4 -2.5 -17.5 -2.1 -17.75 -1.5 -17.85 -1.5 -17.9 0.5 -17.9 1.25 -17.65 1.65 -17.4 2.25 -17.15 2.65 -16.75 3.0 -16.4" fill="#663300" fill-opacity="0.2" fill-rule="evenodd" stroke="none"/>
    <path d="M-9.25 -14.65 L-9.0 -14.55 -7.5 -14.4 -6.25 -14.15 -5.9 -13.75 -5.75 -13.4 -5.65 -13.0 -5.6 -12.65 -5.6 -12.25 -5.6 -11.9 -5.75 -11.55 -6.0 -11.15 -6.05 -10.8 -6.2 -10.4 -6.35 -10.0 -6.8 -9.6 -7.0 -9.25 -7.0 -8.9 -7.15 -8.55 -7.4 -8.15 -7.75 -7.75 -8.5 -7.5 -12.0 -7.65 -12.85 -7.85 -14.5 -8.2 -15.35 -8.4 -15.6 -8.75 -15.85 -9.15 -15.85 -9.5 -15.85 -9.9 -15.85 -10.65 -15.85 -11.0 -15.85 -11.4 -15.85 -11.75 -15.85 -12.15 -15.8 -12.5 -15.6 -12.9 -15.1 -13.25 -14.85 -13.65 -14.0 -13.95 Q-13.75 -14.0 -13.5 -14.15 L-13.45 -14.5 -13.2 -14.9 -12.85 -15.25 -12.0 -15.45 -12.0 -15.5 -11.0 -15.5 -10.25 -15.25 -9.7 -14.9 -9.25 -14.65" fill="#663300" fill-opacity="0.2" fill-rule="evenodd" stroke="none"/>
    <path d="M13.4 -15.5 L13.55 -15.45 13.85 -15.45 13.95 -15.6 14.1 -15.8 14.3 -15.95 14.4 -16.0 16.5 -16.6 17.5 -16.8 18.3 -16.95 18.75 -17.05 21.25 -17.05 21.65 -16.95 22.0 -16.75 22.35 -16.55 22.5 -16.45 22.45 -16.55 22.4 -16.9 22.45 -17.25 22.65 -17.65 23.0 -17.9 23.5 -17.95 23.5 -18.05 24.15 -17.8 24.5 -17.4 24.65 -17.05 24.8 -16.75 24.85 -16.75 25.05 -16.55 25.15 -16.4 25.25 -16.2 25.2 -16.0 25.5 -15.55 25.75 -15.15 25.9 -14.8 26.15 -14.05 26.4 -13.3 26.65 -12.55 26.9 -12.15 27.0 -11.8 27.15 -11.05 27.3 -10.3 27.4 -9.9 27.4 -3.9 27.45 2.85 27.25 7.7 27.1 8.1 26.9 8.45 26.75 8.85 26.65 9.2 26.5 9.6 26.3 10.0 26.1 10.35 25.9 10.7 25.75 11.1 25.65 11.45 25.5 11.85 25.3 12.25 25.1 12.6 24.9 12.95 24.25 13.35 24.0 13.7 23.75 14.1 23.5 14.3 22.95 14.7 22.75 14.95 22.5 15.1 22.35 14.95 22.35 14.6 22.4 14.2 22.2 13.85 22.15 13.45 22.3 13.1 22.5 12.7 22.65 12.35 22.75 11.95 22.8 11.6 22.9 11.2 23.05 10.85 23.25 10.45 23.4 10.1 23.5 9.7 23.6 9.35 23.65 8.95 23.9 8.6 24.0 8.2 24.15 7.85 24.25 7.45 24.4 7.1 24.65 6.7 24.7 -0.8 Q24.75 -5.1 24.3 -9.4 24.05 -11.8 23.4 -14.2 L23.15 -14.05 23.05 -14.0 22.75 -13.95 19.75 -13.95 19.3 -14.1 18.9 -14.25 18.5 -14.25 18.25 -14.05 18.05 -13.9 17.65 -13.5 17.4 -13.3 17.0 -13.2 15.9 -13.05 15.9 -12.9 15.85 -12.7 15.8 -12.5 15.7 -12.35 15.5 -12.15 15.3 -12.0 15.0 -11.95 14.4 -11.8 14.0 -11.7 12.75 -11.7 12.75 -11.55 12.75 -11.15 12.9 -10.8 13.0 -10.4 13.15 -10.05 13.25 -9.65 13.25 -8.15 13.2 -6.3 13.3 -4.05 13.4 -2.9 13.5 -2.55 13.65 -2.15 13.75 -1.8 13.9 -1.4 13.9 -1.05 13.9 -0.65 13.95 -0.3 14.1 0.1 14.25 0.45 14.55 2.7 14.55 6.1 14.5 9.45 14.5 9.85 14.35 10.2 14.15 10.6 14.05 10.95 14.0 11.35 14.0 11.7 13.9 12.1 13.75 12.45 13.5 12.85 13.5 13.2 13.5 13.6 13.4 13.95 13.25 14.35 13.15 14.7 12.9 15.1 12.45 15.8 12.1 16.2 11.75 16.45 11.15 16.7 10.85 17.1 10.5 17.45 9.9 17.85 9.0 18.1 8.0 17.85 7.5 17.45 7.3 17.1 7.15 16.7 7.05 16.35 7.0 15.95 7.0 15.6 7.15 15.25 7.35 14.85 7.5 14.45 7.55 14.1 7.65 13.75 7.9 13.35 8.0 12.95 8.0 12.6 8.0 12.2 8.05 11.85 8.15 11.45 8.3 11.1 8.5 10.7 8.5 6.95 8.5 2.1 8.5 -2.8 8.65 -3.15 8.75 -3.55 8.75 -3.9 8.75 -4.3 8.75 -4.65 8.75 -5.05 8.8 -5.4 8.9 -5.8 8.75 -6.15 8.65 -6.55 8.7 -8.4 8.75 -11.05 8.75 -13.65 8.75 -13.9 8.25 -13.95 7.8 -14.1 7.05 -14.3 6.3 -14.55 5.15 -14.55 4.7 -14.35 4.35 -14.2 4.15 -14.05 4.05 -14.05 1.5 -13.7 -3.25 -13.7 -3.7 -13.85 -4.5 -14.2 -5.25 -14.45 -5.7 -14.55 -5.95 -14.75 -6.05 -14.75 -9.6 -14.65 -9.7 -14.6 -14.5 -14.55 -15.0 -14.65 -16.2 -14.55 -16.35 -14.45 -16.45 -14.4 -16.8 -14.35 -18.75 -14.2 -18.9 -14.0 -19.1 -13.9 -19.2 -13.85 -19.55 -13.8 -20.5 -13.75 -20.95 -13.9 -21.3 -14.0 -21.7 -14.15 -24.15 -14.15 -24.6 -14.0 -24.85 -14.0 -25.3 -14.15 -25.55 -14.3 -25.65 -14.5 -25.7 -14.7 -25.7 -14.9 -25.7 -15.05 -25.65 -15.25 -25.7 -15.45 -25.75 -15.65 -25.8 -15.8 -25.75 -16.0 -25.7 -16.2 -25.6 -16.4 -25.4 -16.5 -25.1 -16.55 -24.65 -16.5 -23.35 -16.35 -23.05 -16.3 -21.45 -16.4 -21.0 -16.5 -20.45 -16.65 -20.0 -16.75 -15.3 -16.9 -11.1 -17.25 -10.8 -17.3 -10.75 -17.3 -6.75 -17.3 -6.35 -17.2 -6.1 -17.0 -5.95 -16.9 -5.75 -16.8 -5.35 -16.7 -4.95 -16.55 -4.5 -16.6 5.5 -16.8 5.9 -16.7 7.65 -16.6 7.65 -16.65 7.75 -17.05 7.85 -17.35 8.15 -17.75 8.5 -18.05 9.0 -18.1 9.0 -18.15 9.65 -17.9 10.0 -17.55 10.4 -17.15 10.75 -16.8 11.4 -16.4 11.75 -16.0 11.9 -15.8 12.75 -15.8 13.15 -15.7 13.4 -15.5" fill="#333333" fill-opacity="0.2" fill-rule="evenodd" stroke="none"/>
    <path d="M14.05 -15.55 L14.65 -15.3 15.05 -14.9 15.25 -14.55 15.35 -12.65 15.35 -10.05 15.45 -7.4 15.5 -7.05 15.65 -6.65 16.2 -6.3 16.4 -5.9 16.6 -5.55 16.65 -5.15 16.7 -4.4 16.7 -3.3 16.7 -2.55 16.6 -2.15 16.5 -1.8 16.4 -1.4 16.3 -1.05 16.3 -0.65 16.3 -0.3 16.3 0.1 16.3 0.45 16.2 0.85 16.1 1.2 16.05 1.6 15.9 1.95 15.9 2.35 15.9 2.7 15.9 3.1 15.9 3.45 16.05 3.85 16.2 4.6 16.5 5.7 16.7 6.45 16.7 7.6 16.7 9.45 16.65 11.35 16.6 11.7 16.35 12.5 15.75 13.65 14.75 14.7 14.05 14.95 13.7 14.95 13.15 14.85 12.95 14.85 12.5 14.95 11.8 14.7 11.4 14.3 11.15 13.95 11.05 13.6 11.0 13.2 11.0 12.45 11.0 11.7 11.15 11.35 11.3 10.95 11.4 10.6 11.55 9.1 11.5 6.85 11.5 4.6 11.5 4.2 11.6 3.85 11.7 3.45 11.8 3.1 11.8 2.7 11.8 2.35 11.8 1.95 11.8 1.6 11.8 1.2 11.7 0.85 11.6 0.45 11.5 0.1 11.3 -0.3 11.2 -0.65 11.05 -1.4 10.8 -2.55 10.6 -3.3 10.6 -3.65 10.6 -4.05 10.55 -4.4 10.45 -4.8 10.4 -5.15 10.35 -5.9 10.35 -6.3 10.4 -6.65 10.4 -7.05 10.4 -7.4 10.4 -7.8 10.55 -8.15 10.75 -8.55 10.75 -8.9 10.75 -9.3 10.75 -9.65 10.85 -10.0 11.15 -10.4 11.7 -10.65 12.1 -10.65 12.15 -10.9 12.2 -11.65 12.25 -12.8 12.3 -13.55 12.35 -13.85 12.6 -14.3 13.15 -15.05 13.35 -15.3 13.55 -15.35 14.05 -15.45 14.05 -15.55" fill="#333333" fill-opacity="0.2" fill-rule="evenodd" stroke="none"/>
    <path d="M11.5 -7.3 L12.25 -7.05 12.6 -6.65 13.2 -5.9 13.65 -5.2 13.85 -4.9 14.25 -4.95 14.5 -5.0 15.0 -5.15 15.6 -4.9 15.95 -4.5 16.2 -4.15 16.25 -3.8 16.2 -3.4 16.1 -3.05 16.0 -2.65 15.85 -2.3 15.85 1.1 16.0 4.85 16.1 9.35 15.95 9.7 15.75 10.1 15.25 10.45 14.5 10.7 13.6 10.45 13.25 10.05 13.0 9.7 12.75 9.35 12.5 8.95 12.25 8.6 12.25 6.7 12.25 4.1 12.25 1.1 12.25 0.7 12.1 0.35 11.85 -0.4 11.6 -1.15 11.25 -2.3 11.0 -2.65 10.75 -3.05 10.5 -3.4 10.35 -3.8 10.25 -4.15 10.25 -4.55 10.25 -4.9 10.2 -5.3 10.1 -6.05 10.15 -6.4 10.35 -6.8 10.75 -7.05 10.85 -7.1 11.45 -7.2 11.5 -7.3" fill="#333333" fill-opacity="0.2" fill-rule="evenodd" stroke="none"/>
    <path d="M-9.0 -0.9 L-7.75 -0.4 -6.75 0.35 -6.2 0.65 -4.0 1.1 -2.75 1.6 -1.75 2.35 -1.05 3.15 -0.75 3.85 -0.35 4.35 0.5 4.6 Q0.5 4.2 0.65 3.85 L1.05 3.1 1.5 2.6 2.05 2.35 3.0 2.1 6.0 2.1 7.25 2.6 8.0 3.35 8.5 4.1 8.55 4.35 13.0 4.85 14.5 5.35 15.25 5.85 17.0 5.85 18.25 5.35 19.0 4.6 19.3 3.85 19.75 3.1 20.25 2.35 22.0 1.85 23.0 1.85 24.5 2.35 25.2 3.15 25.5 3.85 Q25.9 4.9 25.85 6.1 L25.75 7.6 25.75 9.1 25.75 11.35 25.75 12.85 25.45 13.55 25.0 14.3 24.5 14.85 24.25 15.0 22.75 15.6 22.0 16.35 21.5 16.85 21.25 17.0 20.0 17.25 16.0 17.35 14.25 16.85 13.75 16.1 13.4 15.3 Q13.25 14.95 13.25 14.6 L12.9 14.15 Q12.75 14.1 12.6 14.35 L12.25 15.1 11.5 15.85 10.0 16.35 -24.0 16.1 -25.5 15.6 -26.15 14.75 -26.5 14.1 -26.5 13.35 -26.35 12.65 -25.75 11.8 -25.25 11.1 -25.6 10.3 -25.75 9.6 -25.75 8.85 -25.6 8.1 -25.2 7.35 -24.65 6.5 -24.5 5.85 -24.4 5.1 -24.15 4.4 -23.5 3.6 -22.0 3.1 -20.75 3.65 -20.0 4.1 -18.5 4.0 -17.1 3.65 -15.5 2.6 -15.35 1.85 -14.95 1.1 -14.5 0.6 -13.95 0.35 -13.0 0.1 -10.0 -0.8 -10.0 -0.9 -9.0 -0.9" fill="#333333" fill-opacity="0.2" fill-rule="evenodd" stroke="none"/>
    <path d="M1.55 -4.05 L2.0 -4.15 2.0 -4.2 4.75 -4.2 5.15 -4.05 6.0 -3.5 6.7 -2.75 7.05 -2.4 7.15 -2.2 7.25 -2.0 7.25 -1.8 7.25 -1.45 7.25 -1.0 7.3 -1.05 7.75 -1.2 8.05 -1.3 8.5 -1.4 8.5 -1.45 10.0 -1.45 10.35 -1.3 10.4 -1.25 12.75 -1.15 14.8 -2.0 16.05 -2.25 16.05 -2.65 16.1 -2.8 16.2 -3.0 16.3 -3.2 16.85 -3.45 16.95 -3.55 17.0 -3.75 17.2 -3.95 17.3 -4.05 17.45 -4.15 17.75 -4.25 17.95 -4.4 18.25 -4.4 18.25 -4.45 19.5 -4.45 19.85 -4.3 20.1 -4.15 20.45 -3.95 20.75 -3.75 20.95 -3.55 21.05 -3.45 21.35 -3.3 21.6 -3.1 22.05 -2.75 24.35 -2.45 Q25.25 -2.15 25.6 -1.25 26.1 0.1 26.15 1.6 L26.0 6.8 25.55 8.25 24.35 9.65 24.1 9.85 24.15 10.05 24.15 10.25 24.15 10.4 24.1 10.6 24.05 10.8 24.0 10.95 23.9 11.15 23.9 11.35 23.9 11.55 23.9 11.75 23.8 11.9 23.7 12.1 23.55 12.3 23.35 12.65 23.2 12.85 22.55 13.05 22.35 13.2 22.2 13.35 22.05 13.4 21.75 13.45 21.0 13.5 20.55 13.35 20.3 13.15 20.15 13.0 19.95 12.8 19.75 12.6 19.7 12.4 19.6 12.2 19.5 12.05 19.4 11.85 19.25 11.65 19.2 11.5 19.15 11.3 18.35 11.45 13.95 11.45 10.3 11.85 10.2 12.0 10.1 12.2 10.1 12.35 10.15 12.55 10.15 12.75 10.1 12.95 10.0 13.1 9.85 13.3 9.7 13.45 9.25 13.5 8.0 13.55 6.2 12.95 5.0 12.45 4.25 12.3 3.8 12.2 3.55 12.0 3.25 11.9 3.05 12.1 2.9 12.3 2.8 12.5 2.75 12.65 2.3 13.05 2.15 13.25 1.95 13.4 1.3 13.8 1.05 13.9 0.75 14.0 0.3 14.1 Q0.2 14.15 0.05 14.25 L-3.5 14.3 -3.95 14.15 -4.2 13.95 -4.55 13.6 -4.75 13.4 -4.8 13.3 -6.5 13.75 -7.2 13.75 -7.55 13.8 -7.7 13.85 -8.9 13.95 -9.25 14.0 -9.5 14.0 -9.95 13.85 -10.45 13.7 -10.5 13.7 -11.4 13.35 -12.45 13.0 -12.65 12.8 -13.0 12.4 -13.3 12.05 -13.45 11.85 -13.45 11.7 -13.9 11.75 -15.0 11.85 -16.2 11.55 -16.25 11.55 -16.45 11.75 -16.7 12.1 -16.85 12.3 -17.1 12.5 Q-17.8 12.7 -18.45 13.05 L-18.95 13.2 -19.5 13.35 -20.75 13.35 -23.3 12.9 -24.75 12.6 -25.25 12.5 -25.5 12.3 -25.9 11.95 -26.1 11.75 -26.25 11.55 -26.4 11.35 -26.45 11.2 -26.5 11.0 -26.5 10.8 -26.5 10.6 -26.5 10.45 -26.5 10.25 -26.45 10.05 -26.4 9.85 -26.25 9.7 -26.0 9.5 -25.95 9.45 -26.05 9.35 -26.1 9.15 -26.15 8.95 -26.2 8.8 -26.2 8.6 -26.2 8.25 -26.2 7.85 -26.25 7.65 -26.35 7.5 -26.4 7.3 -26.45 7.1 -26.45 6.75 -26.4 6.4 -26.4 6.35 -26.35 6.0 -26.4 5.8 -26.55 5.6 -26.7 5.4 -26.75 4.85 -26.8 3.9 -26.8 3.85 -26.9 3.7 -26.95 3.5 -26.95 2.95 -26.95 2.2 -26.95 1.05 -26.9 0.1 -26.85 -0.45 -26.75 -0.65 -25.85 -1.4 Q-24.05 -2.2 -22.1 -1.9 L-21.85 -1.95 -21.6 -2.0 -21.3 -2.05 -21.25 -2.05 -19.5 -2.05 -19.05 -1.9 -18.15 -1.55 -17.85 -1.35 -16.75 -2.45 Q-15.15 -4.55 -13.0 -4.9 L-8.6 -4.05 Q-7.45 -3.65 -7.25 -2.4 L-4.5 -1.4 -3.85 -1.6 -3.25 -1.85 -2.25 -2.15 -2.0 -2.15 -1.65 -2.15 -0.7 -2.15 -0.3 -2.55 0.75 -3.5 1.05 -3.7 1.35 -3.9 1.55 -4.05 M-20.5 -10.9 L-20.25 -10.95 -19.95 -10.9 -19.7 -10.95 -19.25 -11.05 -19.25 -11.1 -18.75 -11.1 -18.35 -10.95 -18.2 -10.75 -18.1 -10.6 -18.1 -10.4 -18.05 -10.0 -18.05 -9.45 Q-18.0 -9.05 -18.1 -8.7 L-18.2 -8.55 -18.35 -8.35 -18.75 -8.2 -19.0 -8.2 -19.5 -8.35 -19.7 -8.45 -19.75 -8.5 -20.1 -8.65 -20.4 -8.85 -20.7 -9.0 -20.8 -9.2 -20.8 -9.4 -20.8 -9.6 -20.8 -9.95 -20.8 -10.5 -20.75 -10.7 -20.6 -10.85 -20.5 -10.9" fill="#333333" fill-opacity="0.2" fill-rule="evenodd" stroke="none"/>
    <path d="M1.5 -10.05 Q0.0 -6.1 -3.8 -6.75 L-4.6 -6.8 Q-8.3 -5.65 -11.85 -6.9 -19.85 -3.45 -26.0 -7.4 -25.7 -12.9 -19.45 -12.3 L-14.0 -11.55 Q-12.75 -13.15 -10.9 -12.35 -10.15 -12.0 -9.5 -11.4 L-2.6 -11.05 -1.15 -11.15 Q-0.15 -11.45 0.75 -11.15 L1.5 -10.05" fill="#ffff99" fill-opacity="0.2" fill-rule="evenodd" stroke="none"/>
    <path d="M9.9 -11.8 Q12.85 -8.7 8.55 -7.35 3.65 -5.8 0.0 -8.8 -3.25 -6.95 -6.5 -8.15 L-12.85 -7.9 -13.3 -8.4 -14.6 -8.55 Q-19.45 -6.2 -20.25 -11.4 L-19.85 -12.05 Q-15.95 -14.55 -13.1 -12.4 L-7.75 -11.65 Q-4.45 -14.0 -0.9 -13.0 4.45 -14.75 9.4 -13.65 L9.9 -11.8" fill="#ffff99" fill-opacity="0.2" fill-rule="evenodd" stroke="none"/>
    <path d="M19.25 -11.5 L20.25 -11.45 20.5 -11.45 20.85 -11.3 21.1 -11.15 21.3 -10.95 21.6 -10.75 21.8 -10.55 21.9 -10.4 22.05 -10.2 22.1 -10.0 22.1 -9.8 22.1 -9.65 22.1 -9.45 22.1 -9.25 22.05 -9.1 21.9 -8.9 21.85 -8.7 21.8 -8.5 21.75 -8.3 21.6 -8.15 21.55 -7.95 21.4 -7.75 21.15 -7.55 20.75 -7.35 20.55 -7.25 20.25 -7.25 17.75 -7.2 17.3 -7.3 17.05 -7.5 16.85 -7.7 16.8 -7.9 16.8 -8.05 16.8 -8.25 16.7 -8.45 16.6 -8.65 16.6 -8.8 16.6 -9.0 16.6 -9.2 16.6 -9.55 16.55 -9.95 16.55 -10.3 16.6 -10.5 16.65 -10.7 16.75 -10.85 16.9 -11.05 17.1 -11.25 17.3 -11.4 17.4 -11.45 17.7 -11.5 17.75 -11.5 19.25 -11.5" fill="#ffff99" fill-opacity="0.2" fill-rule="evenodd" stroke="none"/>
    <path d="M20.05 -11.65 L20.5 -11.75 21.1 -11.95 21.35 -12.05 21.85 -12.2 22.1 -12.3 22.5 -12.35 22.5 -12.4 24.0 -12.4 24.4 -12.25 24.65 -12.05 24.8 -11.9 24.9 -11.7 24.95 -11.5 25.0 -10.95 25.0 -10.0 25.0 -9.05 24.9 -8.9 24.85 -8.7 24.8 -8.5 24.65 -8.15 24.6 -7.95 24.45 -7.75 24.3 -7.6 24.1 -7.45 23.75 -7.4 21.75 -7.4 21.25 -7.5 20.85 -7.7 20.55 -7.9 20.35 -8.05 20.1 -8.25 19.55 -8.65 19.3 -8.8 19.15 -9.0 19.1 -9.2 19.1 -9.4 19.05 -9.75 19.0 -10.35 19.05 -10.9 19.15 -11.05 19.3 -11.25 19.55 -11.45 20.05 -11.65" fill="#ffff99" fill-opacity="0.2" fill-rule="evenodd" stroke="none"/>
    <path d="M-25.95 -16.1 L-25.6 -16.65 -23.75 -16.45 Q-25.3 -0.9 -23.85 15.05 -23.75 16.1 -24.35 17.1 L-25.1 17.45 -25.8 17.05 Q-27.9 1.75 -26.65 -13.65 -26.2 -14.4 -26.1 -14.9 L-25.95 -16.1" fill="#ffff99" fill-opacity="0.2" fill-rule="evenodd" stroke="none"/>
    <path d="M17.25 -18.6 Q19.5 -6.5 18.05 5.4 17.15 12.6 15.5 18.85 L14.6 18.35 Q15.85 7.15 15.95 -4.15 L15.8 -12.0 15.7 -16.85 14.85 -17.4 14.75 -18.15 15.75 -18.9 17.25 -18.6" fill="#ffff99" fill-opacity="0.2" fill-rule="evenodd" stroke="none"/>
    <path d="M-24.55 16.65 L-18.15 16.65 -13.8 16.75 -9.7 16.85 -8.15 16.9 -6.65 16.75 Q2.15 16.35 10.9 16.35 L10.9 16.5 10.85 16.55 10.85 16.7 10.85 16.85 10.8 16.9 10.8 17.05 10.75 17.1 10.75 17.25 10.7 17.3 10.7 17.45 10.6 17.5 10.6 17.6 10.55 17.65 10.5 17.8 10.45 17.85 10.4 18.0 10.35 18.05 10.35 18.2 10.35 18.25 10.25 18.35 10.2 18.45 9.95 18.55 9.85 18.6 9.7 18.65 9.6 18.75 5.55 18.6 -0.2 18.45 -6.1 18.35 -9.7 18.25 -11.25 18.35 -18.15 18.45 -24.55 18.45 -24.9 18.35 -25.1 18.05 -25.15 17.8 -25.2 17.6 -25.15 17.3 -25.1 17.05 -24.9 16.75 -24.55 16.65 M14.4 18.65 L14.45 18.65 14.5 18.45 14.5 18.4 14.55 18.25 14.55 18.2 14.6 18.05 14.6 17.7 14.6 17.15 14.6 16.7 14.6 16.4 14.55 16.35 22.65 16.55 24.0 16.65 24.15 16.55 24.45 16.4 24.8 16.65 24.95 16.9 25.0 17.1 25.0 17.4 24.95 17.65 24.8 17.9 24.6 18.1 24.45 18.35 24.15 18.4 23.4 18.45 22.65 18.55 14.4 18.65" fill="#333333" fill-rule="evenodd" stroke="none"/>
    <path d="M10.25 -17.4 L10.4 -17.4 10.55 -17.4 10.6 -17.3 10.6 -17.15 10.65 -17.05 11.05 -16.7 11.0 -16.65 11.0 -16.5 11.0 -16.45 -14.0 -16.35 -14.5 -16.25 -14.75 -16.25 Q-20.3 -15.95 -25.75 -16.35 L-26.1 -16.45 -26.25 -16.7 -26.25 -16.9 -26.25 -17.1 -26.1 -17.35 -25.75 -17.5 -25.25 -17.5 -22.0 -17.65 -11.0 -17.45 -9.75 -17.45 10.05 -17.4 10.25 -17.4 M14.8 -16.45 L14.55 -16.45 14.8 -16.75 14.95 -17.05 15.1 -17.2 15.6 -17.35 15.85 -17.4 16.45 -17.45 20.7 -17.65 21.25 -17.65 24.75 -17.65 25.2 -17.5 25.5 -17.3 25.6 -17.05 25.6 -16.8 25.55 -16.65 25.4 -16.4 25.15 -16.2 24.75 -16.15 21.25 -16.15 20.7 -16.15 14.8 -16.45" fill="#333333" fill-rule="evenodd" stroke="none"/>
    <path d="M-25.95 -17.25 L-25.75 -17.45 -25.45 -17.55 -25.45 -17.65 -25.15 -17.45 Q-24.9 -17.35 -25.05 -17.25 L-26.0 -5.45 Q-26.4 -1.75 -26.2 1.8 L-25.25 13.45 Q-24.8 15.6 -24.75 17.7 L-24.75 17.9 Q-24.7 18.0 -24.8 18.1 L-25.0 18.25 -25.45 18.45 Q-25.6 18.25 -25.9 18.25 L-26.1 18.05 Q-26.1 17.9 -26.25 17.9 -27.2 12.05 -27.35 6.4 -27.6 0.65 -27.25 -5.3 L-27.05 -8.35 Q-26.85 -12.65 -26.0 -17.1 -25.9 -17.1 -25.95 -17.25" fill="#333333" fill-rule="evenodd" stroke="none"/>
    <path d="M25.05 18.45 L24.75 18.25 Q24.5 18.15 24.65 18.05 24.05 17.25 24.8 12.55 25.6 7.9 25.75 0.75 25.95 -6.4 24.85 -12.65 24.4 -14.8 24.35 -16.9 L24.35 -17.1 24.4 -17.3 24.6 -17.45 25.05 -17.65 Q25.2 -17.45 25.5 -17.45 L25.7 -17.25 Q25.7 -17.1 25.85 -17.1 26.8 -11.25 26.95 -5.6 27.2 0.15 26.85 6.1 L26.65 9.15 Q26.45 13.45 25.6 17.9 25.5 17.9 25.55 18.05 L25.35 18.25 25.05 18.35 25.05 18.45" fill="#333333" fill-rule="evenodd" stroke="none"/>
    <path d="M15.55 18.05 L15.4 18.25 15.2 18.35 15.2 18.45 14.95 18.25 14.9 18.05 Q14.45 17.25 15.0 12.55 15.6 7.9 15.7 0.75 15.85 -6.4 15.05 -12.65 L14.7 -16.65 14.8 -16.8 14.95 -17.05 15.1 -17.25 15.55 -17.4 15.65 -17.25 Q15.65 -17.1 15.8 -17.1 16.5 -11.25 16.6 -5.6 L16.55 6.1 16.4 9.15 Q16.25 13.45 15.6 17.9 L15.55 18.05" fill="#333333" fill-rule="evenodd" stroke="none"/>
    <path d="M10.35 18.2 L10.35 18.25 10.2 18.35 10.2 18.45 9.95 18.25 9.9 18.05 Q9.45 17.25 10.0 12.55 10.6 7.9 10.7 0.75 10.85 -6.4 10.05 -12.65 9.7 -14.8 9.7 -16.9 L9.7 -17.1 9.7 -17.3 9.85 -17.45 10.0 -17.5 10.25 -17.45 10.4 -17.4 10.55 -17.45 10.55 -17.4 10.55 -17.3 10.55 -17.2 10.65 -17.1 10.8 -16.9 Q11.5 -11.15 11.6 -5.6 L11.55 6.1 Q11.4 7.65 11.4 9.15 L10.65 17.3 10.65 17.35 10.65 17.45 10.55 17.55 10.55 17.6 10.55 17.7 10.5 17.8 10.4 17.9 10.4 18.0 10.35 18.1 10.35 18.2" fill="#333333" fill-rule="evenodd" stroke="none"/>
    <path d="M14.65 -16.95 L15.0 -17.05 15.3 -16.95 15.35 -16.75 15.4 -16.55 15.5 -16.4 15.5 -16.2 15.5 -16.0 15.45 -15.85 15.35 -15.65 15.2 -15.45 15.05 -15.25 14.85 -14.95 14.75 -14.9 14.45 -14.75 14.25 -14.65 14.0 -14.55 12.0 -14.55 11.25 -14.9 10.85 -15.1 10.55 -15.25 10.45 -15.45 10.35 -15.65 10.2 -15.75 10.0 -15.85 9.6 -15.95 9.4 -16.15 9.25 -16.35 9.15 -16.5 9.2 -16.7 9.25 -16.9 9.35 -17.05 9.7 -17.15 9.75 -17.2 10.05 -17.05 10.25 -16.95 10.6 -16.8 11.0 -16.65 11.15 -16.45 11.3 -16.25 11.4 -16.05 11.75 -15.9 12.0 -15.75 13.85 -15.8 14.35 -16.0 14.5 -16.2 14.5 -16.4 14.5 -16.55 14.55 -16.75 14.65 -16.95" fill="#333333" fill-rule="evenodd" stroke="none"/>
    <path d="M10.45 18.4 L10.15 18.3 10.1 18.1 10.05 17.9 9.95 17.75 9.95 17.55 9.95 17.35 10.0 17.2 10.1 17.0 10.25 16.8 10.4 16.6 10.6 16.3 10.7 16.25 11.0 16.1 11.2 16.0 11.45 15.9 13.45 15.9 14.2 16.25 14.6 16.45 14.9 16.6 15.0 16.8 15.1 17.0 15.25 17.1 15.45 17.2 15.85 17.3 16.05 17.5 16.2 17.7 16.3 17.85 16.25 18.05 16.2 18.25 16.1 18.4 15.75 18.5 15.7 18.55 15.4 18.4 15.2 18.3 14.85 18.15 14.45 18.0 14.3 17.8 14.15 17.6 14.05 17.4 13.7 17.25 13.45 17.1 11.6 17.15 11.1 17.35 10.95 17.55 10.95 17.75 10.95 17.9 10.9 18.1 10.8 18.3 10.45 18.4" fill="#333333" fill-rule="evenodd" stroke="none"/>
    <path d="M10.6 -16.95 L10.75 -16.6 11.05 -16.2 11.25 -15.95 11.75 -15.65 11.8 -15.6 12.0 -14.05 12.65 -5.5 Q12.9 0.15 12.6 3.9 L12.3 9.15 11.7 16.4 11.2 16.65 10.6 16.95 Q10.5 15.55 10.8 12.6 11.25 7.95 11.3 0.8 11.3 -6.35 10.95 -10.55 10.6 -14.8 10.6 -16.9 L10.55 -17.0 10.6 -16.95" fill="#333333" fill-rule="evenodd" stroke="none"/>
    <path d="M13.4 14.35 L13.65 14.4 13.9 14.45 14.0 14.55 14.05 14.65 14.1 14.75 14.2 14.85 14.3 14.95 14.4 15.0 14.55 15.1 14.6 15.2 14.65 15.3 14.7 15.4 14.75 15.5 14.85 15.6 14.85 15.7 14.9 15.75 14.95 15.85 15.0 15.95 15.1 16.05 15.1 16.15 15.1 16.25 15.15 16.35 15.15 16.45 15.1 16.5 15.05 16.6 15.0 16.7 14.9 16.75 14.85 16.8 14.65 16.85 14.45 16.75 14.3 16.7 14.15 16.6 14.05 16.5 14.0 16.4 13.85 16.3 13.75 16.2 13.65 16.1 13.45 16.05 13.25 15.95 13.15 16.0 12.65 16.1 11.9 16.2 11.7 16.2 11.35 16.25 11.2 16.35 11.0 16.4 10.9 16.4 10.8 16.45 10.65 16.45 10.5 16.4 10.45 16.3 10.4 16.2 10.45 16.15 10.5 16.0 10.75 15.95 10.9 15.85 10.95 15.75 10.95 15.65 10.95 15.55 11.0 15.45 11.0 15.35 11.05 15.3 11.15 15.2 11.2 15.1 11.2 15.0 11.25 14.9 11.3 14.8 11.35 14.7 11.45 14.6 11.6 14.55 11.75 14.45 11.9 14.4 12.45 14.35 12.65 14.3 12.65 14.25 13.15 14.25 13.4 14.35" fill="#333333" fill-rule="evenodd" stroke="none"/>
    <path d="M-23.5 12.15 Q-23.15 12.2 -23.15 12.55 -23.15 13.15 -23.6 13.75 -23.95 14.25 -24.35 13.85 L-24.4 13.75 Q-24.2 12.65 -23.5 12.15" fill="#333333" fill-rule="evenodd" stroke="none"/>
    <path d="M-20.95 10.9 L-20.85 10.85 Q-20.4 10.95 -20.75 11.45 L-22.2 14.1 Q-22.45 14.7 -23.05 14.8 -23.25 14.3 -23.05 13.9 L-20.95 10.9" fill="#333333" fill-rule="evenodd" stroke="none"/>
    <path d="M-21.3 15.7 L-21.1 15.2 Q-21.2 14.5 -20.9 13.9 -20.6 13.25 -20.25 13.95 L-20.7 15.25 -21.3 15.7" fill="#333333" fill-rule="evenodd" stroke="none"/>
    <path d="M-17.5 13.95 L-17.35 14.15 -17.3 14.6 -17.35 15.05 -17.5 15.25 -17.65 15.05 -17.7 14.6 -17.65 14.15 -17.5 13.95" fill="#333333" fill-rule="evenodd" stroke="none"/>
    <path d="M-15.35 14.55 Q-15.2 15.1 -15.7 15.1 L-15.85 14.75 -16.1 13.15 Q-16.15 12.45 -15.6 12.55 L-15.35 14.55" fill="#333333" fill-rule="evenodd" stroke="none"/>
    <path d="M5.9 15.95 L5.55 15.6 Q4.8 14.6 4.7 13.5 L4.8 13.45 Q5.35 13.3 5.4 13.95 L5.95 15.0 Q6.3 15.65 5.9 15.95" fill="#333333" fill-rule="evenodd" stroke="none"/>
    <path d="M5.4 11.5 L6.7 12.75 Q8.0 14.3 8.9 16.2 8.35 16.3 8.1 15.85 L7.5 14.85 5.05 11.65 Q5.15 11.4 5.4 11.5" fill="#333333" fill-rule="evenodd" stroke="none"/>
    <path d="M7.95 10.8 Q9.2 11.25 9.4 11.95 L7.5 11.1 Q7.4 10.6 7.95 10.8" fill="#333333" fill-rule="evenodd" stroke="none"/>
    <path d="M-4.9 16.8 Q-4.65 17.35 -5.0 17.6 L-5.4 17.2 -5.75 15.3 Q-5.8 14.45 -5.2 14.55 L-5.05 15.3 Q-5.2 16.15 -4.9 16.8" fill="#333333" fill-rule="evenodd" stroke="none"/>
    <path d="M-4.0 15.35 Q-4.0 15.15 -3.8 15.25 -3.05 15.45 -3.2 16.6 -3.3 17.35 -3.75 18.0 L-3.85 17.95 -4.0 15.35" fill="#333333" fill-rule="evenodd" stroke="none"/>
    <path d="M4.35 -13.75 L4.0 -13.7 4.85 -15.2 Q5.3 -15.5 5.2 -15.05 5.0 -14.25 4.35 -13.75" fill="#333333" fill-rule="evenodd" stroke="none"/>
    <path d="M6.35 -13.8 L7.3 -14.5 Q7.95 -15.05 8.65 -14.9 9.05 -14.7 8.6 -14.45 L6.45 -13.15 5.2 -13.0 5.35 -13.25 Q5.8 -13.6 6.35 -13.8" fill="#333333" fill-rule="evenodd" stroke="none"/>
    <path d="M7.1 -11.9 Q6.65 -11.75 6.8 -11.9 L8.45 -12.0 7.1 -11.9" fill="#333333" fill-rule="evenodd" stroke="none"/>
    <path d="M-20.5 -11.65 L-20.35 -11.8 -19.95 -12.1 -19.75 -12.15 -19.35 -12.15 -19.1 -12.1 -18.95 -12.05 -18.85 -11.95 -18.75 -11.85 -18.8 -11.75 -18.8 -11.65 -18.85 -11.6 -18.85 -11.5 -18.95 -11.4 -18.95 -11.35 -19.2 -11.25 -19.25 -11.35 -19.3 -11.45 -19.7 -11.4 -19.8 -11.3 -19.85 -11.2 -19.85 -11.1 -19.8 -11.0 -19.75 -10.9 -19.65 -10.8 -19.6 -10.75 -19.55 -10.65 -19.6 -10.55 -19.65 -10.45 -19.7 -10.4 -19.85 -10.35 -20.0 -10.4 -20.35 -10.5 -20.5 -10.6 -20.6 -10.7 -20.6 -10.8 -20.6 -10.9 -20.6 -11.1 -20.6 -11.25 -20.6 -11.45 -20.55 -11.55 -20.5 -11.65" fill="#333333" fill-rule="evenodd" stroke="none"/>
    <path d="M13.4 7.5 L13.45 7.55 13.6 8.05 13.45 10.4 13.25 12.85 12.5 15.35 Q12.05 16.4 11.35 16.6 11.35 16.1 11.7 15.6 L12.4 13.8 Q12.9 11.35 13.0 8.85 13.0 8.1 13.4 7.5" fill="#333333" fill-rule="evenodd" stroke="none"/>
    <path d="M13.9 12.0 Q14.2 11.8 14.3 12.25 14.5 13.45 14.3 14.75 14.1 16.0 13.5 16.85 L13.4 16.75 13.9 12.0" fill="#333333" fill-rule="evenodd" stroke="none"/>
    <path d="M16.8 14.25 Q16.95 13.6 17.6 13.5 17.8 13.9 17.6 14.3 L16.55 15.65 16.6 15.35 16.8 14.25" fill="#333333" fill-rule="evenodd" stroke="none"/>
    <path d="M18.6 11.85 Q18.7 11.55 18.95 11.75 L18.95 11.85 18.85 15.95 Q18.85 16.4 18.45 16.65 18.0 16.55 18.0 16.0 17.9 13.9 18.6 11.85" fill="#333333" fill-rule="evenodd" stroke="none"/>
    <path d="M20.65 13.55 L20.95 13.9 21.05 14.65 20.95 15.45 20.65 15.75 20.4 15.45 20.25 14.65 Q20.25 14.2 20.4 13.9 L20.65 13.55" fill="#333333" fill-rule="evenodd" stroke="none"/>
    <path d="M23.05 13.55 L23.25 14.0 23.7 15.4 23.85 16.0 Q24.4 17.0 24.05 17.95 23.6 17.9 23.4 17.2 L22.95 15.6 22.5 14.05 Q22.25 13.3 23.05 13.55" fill="#333333" fill-rule="evenodd" stroke="none"/>
    <path d="M17.55 -14.4 Q17.05 -14.8 17.7 -14.8 L18.3 -14.25 18.6 -13.4 Q18.45 -13.25 18.25 -13.55 L17.55 -14.4" fill="#333333" fill-rule="evenodd" stroke="none"/>
    <path d="M20.7 -14.55 Q20.85 -15.0 20.9 -14.45 L20.5 -12.5 20.35 -12.75 Q20.15 -13.35 20.4 -13.85 L20.7 -14.55" fill="#333333" fill-rule="evenodd" stroke="none"/>
    <path d="M23.0 6.3 Q23.15 5.85 23.7 6.05 L26.1 6.75 Q26.3 7.0 26.1 7.15 L23.65 7.0 Q23.1 6.8 23.0 6.3" fill="#333333" fill-rule="evenodd" stroke="none"/>
    <path d="M25.85 4.75 L26.05 5.0 25.85 5.25 25.4 5.35 24.95 5.25 24.75 5.0 24.95 4.75 25.4 4.65 25.85 4.75" fill="#333333" fill-rule="evenodd" stroke="none"/>
  </g>
</svg>
