<?xml version="1.0" encoding="UTF-8" standalone="no"?>
<svg xmlns:xlink="http://www.w3.org/1999/xlink" height="17.3px" width="106.05px" xmlns="http://www.w3.org/2000/svg">
  <g transform="matrix(1.0, 0.0, 0.0, 1.0, 52.25, 7.15)">
    <path d="M-45.0 -6.45 Q-42.35 -6.45 -40.45 -4.55 -38.6 -2.7 -38.6 -0.05 -38.6 2.6 -40.45 4.5 -42.35 6.35 -45.0 6.35 -47.65 6.35 -49.5 4.5 -51.4 2.6 -51.4 -0.05 -51.4 -2.7 -49.5 -4.55 -47.65 -6.45 -45.0 -6.45" fill="#bda775" fill-rule="evenodd" stroke="none"/>
    <path d="M40.8 -4.5 Q42.6 -6.3 45.15 -6.3 47.7 -6.3 49.55 -4.5 51.35 -2.7 51.35 -0.15 51.35 2.4 49.55 4.2 47.7 6.0 45.15 6.0 42.6 6.0 40.8 4.2 38.95 2.4 38.95 -0.15 38.95 -2.7 40.8 -4.5" fill="#bda775" fill-rule="evenodd" stroke="none"/>
    <path d="M42.25 -4.35 L42.25 3.65 -42.4 3.65 -42.4 -4.35 42.25 -4.35" fill="#bda775" fill-rule="evenodd" stroke="none"/>
    <path d="M-42.95 3.0 L-42.0 3.7 -41.8 5.0 -42.2 5.6 -43.4 5.95 -43.8 5.75 -45.2 6.75 Q-46.2 7.3 -47.25 6.5 L-47.5 6.4 -47.85 5.5 Q-50.25 3.9 -49.15 1.15 -46.75 0.55 -44.25 1.1 L-43.95 2.0 -43.95 2.4 -43.75 2.65 -42.95 3.0" fill="#663300" fill-opacity="0.2" fill-rule="evenodd" stroke="none"/>
    <path d="M-44.15 0.45 L-43.5 0.75 Q-43.35 2.05 -42.75 3.2 L-42.65 3.55 -44.75 4.85 -45.2 5.75 -47.15 6.4 -48.7 5.35 -48.8 4.4 -49.55 4.1 Q-50.65 2.65 -50.45 0.9 L-49.45 0.0 -47.25 0.2 -47.05 0.7 -47.05 0.95 -47.25 1.9 -45.2 2.4 -45.1 1.3 -44.45 0.55 -44.15 0.45" fill="#663300" fill-opacity="0.2" fill-rule="evenodd" stroke="none"/>
    <path d="M39.9 -0.3 L41.0 -0.05 41.6 0.9 Q43.95 0.75 44.15 2.85 L44.1 3.75 45.05 4.9 Q45.05 6.35 43.7 6.55 42.2 6.85 40.95 5.6 L40.35 4.75 39.3 3.75 38.65 4.0 38.35 3.95 37.95 3.75 37.8 3.55 37.65 3.3 35.1 3.15 34.7 3.6 Q32.9 4.1 31.05 3.3 L30.9 3.1 30.9 2.9 30.95 2.7 31.1 2.5 31.3 2.3 31.5 2.2 31.85 1.1 34.85 -0.3 38.65 -0.85 39.9 -0.3" fill="#663300" fill-opacity="0.2" fill-rule="evenodd" stroke="none"/>
    <path d="M41.65 -1.3 L42.05 -1.15 42.25 -1.05 42.4 0.45 42.45 1.4 44.0 1.95 44.05 3.4 Q45.8 3.85 47.3 2.7 L47.9 2.35 50.0 2.95 50.3 4.65 48.7 6.1 41.95 5.85 41.75 5.35 40.85 4.7 40.3 3.9 36.95 2.85 36.4 3.1 35.8 2.75 Q36.0 1.9 38.9 1.35 38.75 -0.1 41.35 -1.25 L41.65 -1.3" fill="#663300" fill-opacity="0.2" fill-rule="evenodd" stroke="none"/>
    <path d="M-28.8 3.1 L-28.85 3.85 -29.3 4.35 -32.3 3.5 -32.8 4.05 -33.7 4.2 -34.1 4.0 -34.5 3.1 -35.7 2.65 Q-34.55 -0.55 -30.65 0.8 -29.75 1.15 -29.0 1.75 L-28.8 3.1" fill="#663300" fill-opacity="0.2" fill-rule="evenodd" stroke="none"/>
    <path d="M-34.25 -1.65 L-33.25 -1.8 -32.85 -1.35 -32.75 -0.85 -31.75 -0.3 -31.5 0.45 -32.3 3.25 -32.8 3.8 -33.65 3.9 Q-35.7 2.35 -35.9 0.0 -34.55 -0.25 -34.65 -1.15 L-34.25 -1.65" fill="#663300" fill-opacity="0.2" fill-rule="evenodd" stroke="none"/>
    <path d="M7.9 -1.3 L9.25 -1.4 26.85 -0.8 28.05 -1.15 28.6 -0.95 29.5 -0.5 29.25 1.05 26.55 1.8 25.7 2.0 Q22.65 2.9 20.75 1.0 L19.9 0.65 19.45 0.5 7.0 0.0 6.95 -0.9 7.9 -1.3" fill="#663300" fill-opacity="0.2" fill-rule="evenodd" stroke="none"/>
    <path d="M8.4 -1.3 L21.95 -2.6 22.3 -2.5 22.85 -1.9 23.75 -1.5 23.75 -0.4 Q22.65 0.15 21.55 0.05 L18.9 0.35 16.95 1.65 16.2 1.6 15.85 1.25 14.7 1.0 14.25 0.55 13.05 0.85 12.5 0.0 8.1 -0.45 8.4 -1.3" fill="#663300" fill-opacity="0.2" fill-rule="evenodd" stroke="none"/>
    <path d="M-28.55 -0.5 L-28.55 -0.65 -28.45 -0.8 -28.2 -0.95 -28.05 -1.1 -27.85 -1.2 -27.55 -1.2 -25.35 -1.3 28.5 -1.3 28.9 -1.2 29.1 -1.05 29.2 -0.9 29.25 -0.75 29.3 -0.55 29.35 -0.45 29.3 -0.3 29.25 -0.15 29.2 0.0 29.1 0.15 28.9 0.3 28.5 0.4 -25.35 0.4 -27.55 0.35 -27.95 0.25 -28.15 0.1 -28.35 -0.05 -28.5 -0.2 -28.6 -0.35 -28.55 -0.5" fill="#333333" fill-opacity="0.2" fill-rule="evenodd" stroke="none"/>
    <path d="M-43.95 -1.75 L-43.35 -1.55 -43.05 -1.4 -42.55 -1.15 -42.3 -0.85 -42.15 -0.55 -42.1 -0.25 -42.05 0.05 -42.05 0.35 -42.05 0.65 -42.15 0.95 -42.35 1.25 -42.45 1.55 -42.45 1.85 -42.5 2.15 -42.55 2.45 -42.7 2.7 -42.95 3.05 -43.55 3.25 -44.35 3.1 -44.95 2.95 -46.25 2.65 -46.65 2.35 -46.85 2.05 -47.05 1.75 -47.05 1.45 -47.05 1.15 -47.05 0.85 -47.05 0.55 -47.05 0.25 -47.05 -0.05 -46.95 -0.35 -46.75 -0.65 -46.45 -0.95 -46.05 -1.25 -45.85 -1.55 -45.15 -1.7 -45.15 -1.75 -43.95 -1.75" fill="#333333" fill-opacity="0.2" fill-rule="evenodd" stroke="none"/>
    <path d="M46.5 -0.95 L47.05 -0.75 47.65 -0.45 48.1 -0.15 48.3 0.15 48.35 0.45 48.4 0.75 48.4 1.05 48.4 1.35 48.4 1.65 48.35 1.95 48.2 2.25 48.0 2.55 47.8 2.85 47.5 3.05 47.35 3.1 46.9 3.25 46.3 3.35 46.05 3.45 45.7 3.55 44.5 3.55 43.9 3.35 43.6 3.05 43.3 2.75 43.1 2.45 43.1 2.15 43.1 1.85 43.15 1.55 43.2 1.25 43.2 0.65 43.2 0.35 43.3 0.05 43.6 -0.25 43.9 -0.55 44.3 -0.75 44.4 -0.8 44.85 -0.9 44.9 -0.95 46.5 -0.95" fill="#333333" fill-opacity="0.2" fill-rule="evenodd" stroke="none"/>
    <path d="M-43.5 -3.2 L-45.7 -3.55 -45.85 -4.3 Q-42.0 -5.35 -40.05 -3.9 -38.15 -2.45 -38.2 -1.3 L-31.6 -1.05 -31.15 -1.1 -30.25 -2.4 -26.6 -2.35 -25.65 -1.6 Q-21.85 -2.45 -20.35 0.2 L-17.25 0.6 -16.9 1.15 -14.25 1.4 -13.55 3.05 -13.85 3.45 Q-27.55 3.6 -40.65 4.0 -45.25 7.25 -49.6 3.0 L-50.4 2.25 -50.4 0.9 -50.0 0.45 -49.95 -1.65 -48.35 -3.25 -47.45 -2.95 -48.2 1.1 -46.0 3.0 -45.9 3.55 -44.25 3.55 -42.15 1.85 -42.15 -1.85 -42.85 -2.3 -43.5 -3.2" fill="#333333" fill-opacity="0.2" fill-rule="evenodd" stroke="none"/>
    <path d="M32.45 -0.7 L36.75 -1.1 Q37.2 -1.45 37.8 -1.6 L40.7 -2.65 41.35 -2.45 41.5 -1.6 42.1 -1.2 42.25 1.7 43.7 3.25 46.5 3.2 46.95 2.75 47.0 2.3 47.25 1.75 47.7 1.4 48.2 1.15 48.55 -0.2 46.95 -2.15 47.15 -3.6 48.65 -3.8 Q49.9 -3.05 50.25 -1.7 50.7 0.15 50.25 2.2 L49.95 3.4 46.35 5.65 Q42.9 5.75 39.85 4.25 L38.05 3.15 33.7 2.8 10.55 4.0 10.35 3.25 Q16.2 1.3 22.1 0.0 L23.75 0.3 28.25 -0.05 32.45 -0.7" fill="#333333" fill-opacity="0.2" fill-rule="evenodd" stroke="none"/>
    <path d="M-28.35 -0.85 L-24.9 -0.95 -22.35 -1.35 -21.9 -1.4 -20.9 -1.6 -20.35 -1.7 -20.1 -1.7 -15.05 -2.65 -12.65 -2.65 -12.3 -2.5 -12.05 -2.45 -11.7 -2.35 -4.85 -2.35 -4.45 -2.45 -1.2 -2.55 -0.85 -2.65 5.75 -2.65 6.1 -2.55 7.15 -2.25 7.5 -2.1 7.75 -2.05 8.0 -2.0 8.2 -1.95 8.4 -1.9 9.7 -1.55 12.8 -1.55 13.15 -1.65 19.95 -1.75 20.35 -1.85 24.55 -1.95 24.9 -2.0 25.35 -2.15 25.7 -2.25 26.5 -2.25 26.85 -2.1 27.1 -2.05 27.45 -1.95 27.7 -1.8 28.0 -1.65 28.15 -1.5 28.3 -1.35 28.45 -1.15 28.55 -1.05 28.6 -0.9 28.8 -0.9 29.05 -0.95 29.3 -1.05 29.75 -1.15 30.1 -1.25 30.9 -1.25 31.25 -1.15 31.45 -0.95 31.55 -0.9 31.7 -0.85 32.05 -0.75 32.25 -0.6 32.35 -0.4 32.4 -0.3 32.5 -0.15 32.65 0.05 32.75 0.15 32.8 0.2 35.1 0.3 35.45 0.4 35.7 0.55 35.85 0.7 36.0 0.9 36.1 1.0 36.2 1.2 36.25 1.3 36.4 1.35 36.7 1.35 37.1 1.3 37.45 1.4 37.65 1.55 37.75 1.7 37.85 1.85 37.9 2.0 37.9 2.15 37.9 2.3 37.9 2.45 37.9 2.6 37.85 2.75 37.75 2.9 37.65 3.05 37.45 3.2 37.1 3.3 36.35 3.4 35.95 3.55 35.8 3.65 35.5 3.7 35.1 3.6 26.7 3.45 25.9 3.4 23.75 3.45 22.95 3.5 21.15 3.5 20.75 3.4 -8.25 3.25 -9.05 3.2 -26.3 3.2 -26.75 3.3 -35.95 3.3 -36.35 3.2 -36.5 3.1 -36.7 3.15 -36.95 3.15 -37.55 3.25 -37.75 3.4 -37.9 3.5 -38.15 3.55 -38.75 3.6 -39.1 3.5 -39.3 3.35 -39.4 3.2 -39.4 3.05 -39.45 2.9 -39.45 2.75 -39.4 2.6 -39.4 2.45 -39.3 2.35 -39.2 2.15 -39.05 2.0 -38.9 1.85 -38.75 1.7 -38.6 1.55 -38.4 1.5 -38.05 1.35 -37.85 1.2 -37.7 1.1 -37.6 1.1 -37.35 1.05 -36.7 0.9 -36.4 0.8 -35.6 0.5 -35.35 0.45 -34.15 0.4 -33.8 0.5 -33.55 0.65 -33.25 0.8 -33.0 0.9 -31.9 0.85 -31.55 0.8 -28.85 0.45 -28.95 0.3 -29.05 0.15 -29.05 0.0 -29.1 -0.15 -29.1 -0.3 -29.0 -0.4 -28.85 -0.55 -28.7 -0.75 -28.35 -0.85 M-15.45 -0.95 L-13.7 -0.95 -13.35 -1.0 -13.0 -1.05 -15.0 -1.05 -15.1 -1.05 -15.45 -0.95 M27.0 1.35 L25.1 1.4 26.5 1.45 26.75 1.4 27.0 1.35 M-21.7 0.8 L-21.7 0.75 -22.15 0.75 -22.35 0.75 -22.75 0.85 -24.3 0.9 -24.5 0.95 -24.7 1.0 -26.0 1.15 -26.0 1.2 -22.6 1.25 -21.8 1.2 -21.5 1.1 -21.6 0.95 -21.7 0.8" fill="#333333" fill-opacity="0.2" fill-rule="evenodd" stroke="none"/>
    <path d="M-43.25 -1.25 L-43.25 -2.0 -43.15 -2.1 -43.1 -2.25 -42.95 -2.4 -42.8 -2.55 -42.55 -2.55 -42.55 -2.6 -42.25 -2.5 -42.05 -2.35 -41.95 -2.15 -41.9 -2.05 -41.85 -1.75 -41.85 -1.3 -41.85 -0.7 -41.85 -0.55 -41.8 -0.4 -41.7 -0.25 -41.6 -0.1 -41.55 0.1 -41.55 0.2 -41.7 0.5 -41.95 0.95 -42.3 1.55 -42.8 2.0 Q-43.4 2.55 -44.15 2.7 L-44.55 2.7 -45.35 2.65 -45.65 2.55 -45.85 2.45 -46.35 2.4 -46.65 2.3 -46.75 2.15 -46.85 2.0 -46.9 1.85 -46.95 1.7 -46.95 1.55 -46.9 1.45 -46.8 1.25 -46.55 1.15 -46.3 1.25 -46.2 1.4 -45.7 1.4 -45.55 1.3 -45.4 1.15 -45.15 1.15 -44.2 1.0 -43.9 0.85 -43.7 0.7 -43.55 0.55 -43.45 0.45 -43.4 0.25 -43.3 0.15 -43.25 -0.05 -43.25 -0.5 -43.25 -1.25" fill="#333333" fill-opacity="0.2" fill-rule="evenodd" stroke="none"/>
    <path d="M45.65 -3.45 L45.9 -3.45 45.9 -3.5 46.2 -3.4 46.5 -3.3 46.75 -3.2 46.85 -3.05 46.95 -2.85 47.0 -2.75 47.15 -2.6 47.3 -2.4 47.4 -2.3 47.55 -2.0 47.7 -1.85 47.95 -1.7 48.05 -1.5 48.1 -1.4 48.15 -1.1 48.15 -0.65 48.15 -0.2 48.15 0.25 48.1 0.4 48.05 0.55 47.95 0.7 47.95 0.85 47.9 1.0 47.85 1.15 47.75 1.35 47.7 1.45 47.55 1.6 47.4 1.75 47.4 1.9 47.4 2.05 47.3 2.2 47.2 2.35 47.05 2.5 46.9 2.6 46.7 2.65 46.4 2.75 46.1 2.8 43.1 2.7 42.75 2.6 42.55 2.45 42.4 2.3 42.3 2.15 42.3 2.0 42.3 1.85 42.3 1.7 42.3 1.6 42.4 1.45 42.55 1.25 42.9 1.15 43.1 1.15 43.45 1.25 44.4 1.25 44.65 1.1 44.9 0.95 45.05 0.8 45.2 0.65 45.35 0.5 45.55 0.2 45.6 0.05 45.6 -0.1 45.6 -0.25 45.7 -0.4 45.8 -0.55 45.9 -0.7 46.0 -0.85 46.0 -1.0 46.05 -1.15 46.15 -1.3 46.15 -1.4 46.05 -1.6 45.85 -1.65 45.7 -1.75 45.35 -1.85 45.15 -2.0 45.05 -2.15 45.0 -2.3 45.0 -2.45 45.0 -2.6 45.0 -2.75 45.05 -2.9 45.1 -3.0 45.25 -3.2 45.5 -3.35 45.65 -3.45" fill="#333333" fill-opacity="0.2" fill-rule="evenodd" stroke="none"/>
    <path d="M48.5 -1.4 L48.85 -1.3 49.2 -0.95 49.5 -0.65 49.75 -0.35 49.8 -0.25 49.85 0.2 49.85 0.8 49.85 1.55 49.85 2.0 49.8 2.15 49.75 2.3 49.7 2.45 49.65 2.6 49.65 2.75 49.65 2.9 49.65 3.05 49.6 3.2 49.5 3.35 49.5 3.5 49.55 3.65 49.55 3.8 49.55 3.95 49.5 4.1 49.45 4.25 49.35 4.4 49.15 4.55 48.85 4.7 48.7 4.85 48.55 4.95 48.15 5.05 47.85 5.2 47.5 5.5 46.9 5.85 46.65 5.95 46.3 6.05 44.3 6.05 43.95 5.95 43.75 5.8 43.6 5.65 43.3 5.55 42.95 5.35 42.75 5.2 42.6 5.05 42.3 4.75 42.05 4.45 42.0 4.3 42.0 4.15 42.0 3.85 42.0 3.55 42.0 3.25 42.05 3.1 42.1 2.95 42.15 2.8 42.2 2.65 42.3 2.55 42.45 2.35 42.65 2.25 42.9 2.2 43.25 2.3 43.45 2.45 43.55 2.6 43.65 2.75 43.75 2.9 43.85 3.05 44.05 3.2 44.25 3.35 44.45 3.45 44.55 3.5 44.9 3.6 45.2 3.65 46.95 3.65 47.15 3.55 47.25 3.55 47.6 3.4 47.7 3.3 47.75 3.15 47.8 3.0 47.95 2.85 48.1 2.7 48.15 2.55 48.15 2.4 48.15 2.25 48.2 2.1 48.25 1.95 48.3 1.8 48.35 1.65 48.35 1.5 48.35 1.35 48.35 1.05 48.35 0.75 48.35 0.45 48.3 0.35 48.05 0.15 47.9 0.0 47.75 -0.15 47.6 -0.3 47.55 -0.45 47.55 -0.6 47.55 -0.75 47.6 -0.9 47.65 -1.0 47.8 -1.15 47.95 -1.3 48.05 -1.3 48.3 -1.35 48.3 -1.4 48.5 -1.4" fill="#333333" fill-opacity="0.2" fill-rule="evenodd" stroke="none"/>
    <path d="M-39.95 2.15 L-39.9 2.25 -39.9 2.4 -39.95 2.55 -40.0 2.7 -40.1 2.9 -40.2 3.0 -40.1 3.15 -40.05 3.3 -40.0 3.45 -40.0 3.75 -40.0 4.2 -40.0 4.65 Q-40.95 6.0 -42.7 6.2 -45.15 6.5 -47.4 5.65 L-47.65 5.5 -47.75 5.35 -47.85 5.2 -47.85 5.05 -47.9 4.9 -47.9 4.6 -47.9 4.3 -47.9 4.15 -47.85 4.0 -47.8 3.85 -47.8 3.7 -47.8 3.55 -47.8 3.4 -47.7 3.3 -47.6 3.1 -47.45 2.95 -47.1 2.85 -46.75 2.7 -46.55 2.7 -45.6 3.05 -44.5 3.4 -44.3 3.35 -44.1 3.2 -43.9 3.05 -43.6 2.75 -43.3 2.65 -42.65 2.3 -42.45 2.2 -42.15 2.15 -41.55 2.05 -41.3 1.95 -40.9 1.75 -40.55 1.75 -40.55 1.7 -40.25 1.8 -40.05 1.95 -39.95 2.15" fill="#333333" fill-opacity="0.2" fill-rule="evenodd" stroke="none"/>
    <path d="M35.7 -1.05 L35.7 -1.2 35.7 -1.35 35.75 -1.5 35.75 -1.65 35.75 -1.8 35.85 -1.95 35.95 -2.05 36.1 -2.2 36.25 -2.35 36.5 -2.35 37.3 -2.4 37.3 -2.45 37.5 -2.45 37.8 -2.35 37.95 -2.15 38.05 -2.05 38.1 -1.9 38.1 -1.75 38.1 -1.6 38.1 -1.45 38.1 -1.3 38.05 -1.15 38.0 -0.95 37.95 -0.85 37.85 -0.75 37.75 -0.7 37.4 -0.6 37.05 -0.5 36.9 -0.4 36.7 -0.35 36.4 -0.45 36.25 -0.6 35.95 -0.75 35.8 -0.9 35.7 -1.05" fill="#333333" fill-opacity="0.2" fill-rule="evenodd" stroke="none"/>
    <path d="M-39.4 -1.7 L-39.15 -1.75 -39.15 -1.8 -38.75 -1.8 -38.45 -1.7 -38.3 -1.6 -38.05 -1.5 -37.85 -1.35 -37.75 -1.2 -37.65 -1.05 -37.6 -0.9 -37.6 -0.75 -37.6 -0.6 -37.6 -0.45 -37.6 -0.3 -37.6 -0.15 -37.7 0.0 -37.8 0.15 -37.9 0.25 -38.15 0.3 -38.95 0.3 -39.3 0.2 -39.4 0.05 -39.5 -0.1 -39.5 -0.25 -39.5 -0.4 -39.45 -0.55 -39.45 -0.7 -39.55 -0.85 -39.6 -1.0 -39.7 -1.15 -39.7 -1.3 -39.65 -1.4 -39.6 -1.6 -39.45 -1.7 -39.4 -1.7" fill="#333333" fill-opacity="0.2" fill-rule="evenodd" stroke="none"/>
    <path d="M-43.85 -1.85 L-43.85 -1.75 -43.85 -1.65 -43.85 -1.6 -43.85 -1.4 -43.85 -1.3 -43.85 -1.2 -43.9 -1.1 -43.95 -1.0 -43.95 -0.9 -44.0 -0.85 -44.05 -0.75 -44.1 -0.65 -44.15 -0.55 -44.2 -0.45 -44.3 -0.25 -44.45 -0.15 -44.65 -0.1 -44.75 0.0 -44.85 0.1 -44.9 0.1 -45.8 0.15 -46.05 0.1 -46.1 0.0 -46.15 0.0 -46.3 -0.05 -46.4 -0.05 -46.55 -0.1 -46.8 -0.15 -46.85 -0.25 -46.95 -0.35 -47.05 -0.45 -47.1 -0.55 -47.15 -0.65 -47.2 -0.75 -47.25 -0.85 -47.25 -0.95 -47.3 -1.0 -47.3 -1.1 -47.3 -1.2 -47.3 -1.3 -47.3 -1.5 -47.3 -1.65 -47.25 -1.75 -47.2 -1.85 -47.15 -1.95 -47.05 -2.05 -46.95 -2.15 -46.8 -2.35 -46.55 -2.45 -46.4 -2.5 -46.3 -2.6 -46.2 -2.6 -46.05 -2.65 -45.95 -2.65 -45.8 -2.7 -45.05 -2.7 -44.85 -2.65 -44.7 -2.6 -44.4 -2.6 -44.2 -2.5 -44.05 -2.4 -43.95 -2.35 -43.9 -2.25 -43.85 -2.15 -43.8 -2.05 -43.8 -1.95 -43.85 -1.85" fill="#ffff99" fill-opacity="0.2" fill-rule="evenodd" stroke="none"/>
    <path d="M-45.1 -2.0 L-45.1 -1.9 -45.05 -1.85 -45.05 -1.75 -45.05 -1.65 -45.05 -1.55 -45.05 -1.45 -45.05 -1.25 -45.05 -1.0 -45.1 -0.9 -45.1 -0.8 -45.15 -0.7 -45.2 -0.6 -45.3 -0.5 -45.4 -0.45 -45.45 -0.35 -45.6 -0.3 -45.7 -0.2 -45.75 -0.1 -45.8 0.0 -45.95 0.1 -46.15 0.15 -46.8 0.15 -47.05 0.1 -47.2 0.0 -47.3 -0.1 -47.45 -0.2 -47.6 -0.4 -47.8 -0.6 -47.85 -0.65 -47.85 -0.75 -47.85 -0.85 -47.85 -1.05 -47.85 -1.25 -47.85 -1.5 -47.85 -1.6 -47.85 -1.7 -47.75 -1.8 -47.55 -2.0 -47.35 -2.15 -47.3 -2.25 -47.2 -2.25 -47.05 -2.35 -46.95 -2.4 -46.85 -2.5 -46.75 -2.6 -46.65 -2.65 -46.6 -2.7 -46.4 -2.7 -46.4 -2.75 -46.05 -2.75 -45.8 -2.65 -45.7 -2.6 -45.55 -2.5 -45.35 -2.4 -45.3 -2.3 -45.2 -2.2 -45.15 -2.1 -45.1 -2.0" fill="#ffff99" fill-opacity="0.2" fill-rule="evenodd" stroke="none"/>
    <path d="M43.0 -2.7 L43.5 -2.7 43.75 -2.65 44.0 -2.65 44.1 -2.75 44.15 -2.85 44.25 -2.95 44.4 -3.05 44.65 -3.1 44.9 -3.05 45.15 -2.95 45.3 -2.85 45.35 -2.75 45.4 -2.7 45.55 -2.5 45.65 -2.3 45.65 -2.2 45.7 -2.0 45.7 -1.65 45.7 -1.15 45.7 -0.7 45.7 -0.6 45.65 -0.5 45.6 -0.4 45.6 -0.35 45.55 -0.25 45.5 -0.15 45.45 -0.05 45.3 0.15 45.1 0.35 44.9 0.4 44.8 0.5 44.7 0.5 44.5 0.55 43.9 0.5 43.4 0.35 43.3 0.25 43.25 0.2 42.75 0.15 42.55 0.1 42.4 0.0 42.15 -0.2 41.85 -0.5 41.75 -0.65 41.7 -0.75 41.7 -0.85 41.7 -1.05 41.7 -1.25 41.7 -1.45 41.75 -1.5 41.75 -1.6 41.8 -1.7 41.8 -1.8 41.9 -1.9 41.95 -2.0 42.0 -2.1 42.2 -2.25 42.35 -2.35 42.5 -2.45 42.8 -2.65 43.0 -2.7" fill="#ffff99" fill-opacity="0.2" fill-rule="evenodd" stroke="none"/>
    <path d="M42.05 -0.85 L42.1 -0.9 42.15 -1.0 42.15 -1.1 42.2 -1.2 42.25 -1.3 42.25 -1.4 42.3 -1.5 42.4 -1.6 42.5 -1.7 42.7 -1.75 43.05 -1.85 43.5 -2.0 43.9 -2.0 44.4 -2.0 44.65 -1.95 44.8 -1.85 44.85 -1.75 44.9 -1.65 45.05 -1.4 45.25 -1.1 45.25 -1.0 45.3 -0.9 45.3 -0.85 45.3 -0.55 45.3 -0.25 45.3 0.0 45.3 0.1 45.25 0.2 45.1 0.35 44.9 0.65 44.85 0.75 44.7 0.85 44.6 0.9 44.4 0.95 43.25 1.0 43.0 0.95 42.85 0.85 42.75 0.75 42.65 0.7 42.45 0.6 42.35 0.5 42.25 0.4 42.15 0.3 42.05 0.1 42.0 0.0 42.0 -0.1 42.0 -0.25 42.0 -0.55 42.05 -0.85" fill="#ffff99" fill-opacity="0.2" fill-rule="evenodd" stroke="none"/>
    <path d="M-39.1 -3.4 L-38.85 -3.5 -38.5 -3.6 -38.4 -3.7 -38.15 -3.75 -38.0 -3.75 39.25 -3.75 39.5 -3.7 39.65 -3.6 39.7 -3.5 39.75 -3.45 39.8 -3.35 39.8 -3.25 39.8 -3.15 39.75 -3.05 39.7 -2.95 39.65 -2.85 39.5 -2.75 39.25 -2.7 -38.0 -2.75 -38.4 -2.8 -38.5 -2.9 -38.75 -2.95 -38.85 -3.0 -39.0 -3.0 -39.15 -3.1 -39.75 -3.75 -39.2 -3.25 -39.15 -3.35 -39.1 -3.4" fill="#ffff99" fill-opacity="0.2" fill-rule="evenodd" stroke="none"/>
    <path d="M-40.9 -4.9 L-40.8 -4.8 -40.65 -4.7 -40.6 -4.6 -40.5 -4.5 -40.4 -4.45 -40.25 -4.35 -40.15 -4.35 -40.0 -4.3 -39.8 -4.25 -39.7 -4.15 -39.65 -4.05 -39.65 -3.95 -39.65 -3.85 -39.75 -3.75 -39.85 -3.7 -40.0 -3.7 -40.25 -3.65 -40.4 -3.7 -40.5 -3.7 -40.65 -3.7 -40.85 -3.75 -40.95 -3.85 -41.0 -3.95 -41.15 -4.05 -41.25 -4.15 -41.4 -4.2 -41.6 -4.25 -41.7 -4.35 -41.8 -4.45 -42.0 -4.55 -42.15 -4.6 -42.2 -4.65 -42.4 -4.7 -42.6 -4.75 -42.75 -4.85 -42.85 -4.9 -42.9 -4.9 -43.1 -4.95 -43.2 -5.0 -46.1 -5.0 -46.25 -4.9 -46.5 -4.8 -46.7 -4.7 -46.85 -4.65 -46.95 -4.6 -47.1 -4.6 -47.35 -4.5 -47.65 -4.45 -47.8 -4.35 -47.9 -4.25 -48.0 -4.2 -48.1 -4.15 -48.25 -4.1 -48.45 -4.05 -48.6 -3.95 -48.7 -3.85 -48.8 -3.75 -48.85 -3.7 -48.85 -3.6 -48.9 -3.5 -48.95 -3.4 -49.0 -3.3 -49.05 -3.2 -49.1 -3.1 -49.2 -3.0 -49.25 -2.95 -49.3 -2.85 -49.35 -2.75 -49.4 -2.65 -49.5 -2.55 -49.5 -2.45 -49.55 -2.35 -49.6 -2.25 -49.7 -2.2 -49.75 -2.1 -49.85 -2.0 -49.9 -1.9 -49.9 -1.8 -49.95 -1.7 -50.0 -1.6 -50.05 -1.5 -50.1 -1.45 -50.15 -1.35 -50.15 -1.25 -50.15 -1.15 -50.2 -1.05 -50.25 -0.95 -50.25 -0.85 -50.25 -0.75 -50.25 -0.7 -50.35 -0.6 -50.4 -0.5 -50.5 -0.4 -50.75 -0.3 -50.75 -0.2 -50.75 -0.1 -50.75 0.1 -50.75 0.15 -50.75 0.45 -50.75 0.85 -50.75 1.2 -50.75 1.3 -50.8 1.4 -50.85 1.5 -50.9 1.6 -50.9 1.65 -50.9 1.75 -50.85 1.85 -50.8 1.95 -50.75 2.05 -50.65 2.15 -50.55 2.25 -50.5 2.35 -50.45 2.4 -50.5 2.5 -50.55 2.6 -50.6 2.65 -50.75 2.7 -50.9 2.65 -51.15 2.75 -51.35 2.65 -51.5 2.6 -51.6 2.5 -51.75 2.4 -51.8 2.3 -51.85 2.2 -51.9 2.1 -51.9 2.0 -51.9 1.9 -51.9 1.85 -51.9 1.75 -51.9 1.65 -51.9 1.45 -51.85 1.25 -51.8 1.15 -51.75 1.1 -51.75 1.0 -51.75 0.9 -51.75 0.7 -51.75 0.6 -51.75 0.05 -51.75 -0.4 -51.75 -1.0 -51.75 -1.25 -51.7 -1.35 -51.65 -1.45 -51.65 -1.55 -51.6 -1.65 -51.6 -1.75 -51.5 -1.85 -51.5 -1.95 -51.45 -2.0 -51.4 -2.1 -51.4 -2.2 -51.35 -2.3 -51.35 -2.4 -51.3 -2.5 -51.25 -2.6 -51.2 -2.7 -51.15 -2.75 -51.1 -2.85 -51.0 -2.95 -50.95 -3.05 -50.85 -3.25 -50.8 -3.35 -50.6 -3.6 -50.2 -4.0 -50.15 -4.1 -50.1 -4.2 -50.1 -4.25 -50.0 -4.35 -49.9 -4.45 -49.85 -4.55 -49.75 -4.65 -49.65 -4.75 -49.65 -4.85 -49.6 -4.95 -49.5 -5.0 -49.4 -5.1 -49.35 -5.2 -49.25 -5.3 -49.1 -5.4 -48.8 -5.6 -48.7 -5.7 -48.55 -5.75 -48.35 -5.85 -48.15 -5.9 -47.75 -6.0 -47.55 -6.05 -47.0 -6.2 -45.65 -6.2 -44.75 -6.2 -44.5 -6.1 -44.25 -6.05 -43.15 -6.0 -42.9 -5.95 -42.75 -5.85 -42.65 -5.75 -42.6 -5.7 -42.5 -5.7 -42.4 -5.65 -42.2 -5.6 -42.1 -5.5 -41.9 -5.4 -41.85 -5.4 -41.65 -5.35 -41.55 -5.25 -41.4 -5.15 -41.3 -5.05 -41.2 -5.0 -41.15 -4.95 -40.9 -4.9" fill="#ffff99" fill-opacity="0.2" fill-rule="evenodd" stroke="none"/>
    <path d="M43.35 -6.5 L43.5 -6.55 43.9 -6.6 44.0 -6.7 44.15 -6.7 44.3 -6.75 44.35 -6.75 44.5 -6.8 44.75 -6.75 44.85 -6.65 44.9 -6.55 45.35 -6.5 47.75 -6.6 48.15 -6.5 48.4 -6.45 48.5 -6.35 48.6 -6.25 48.65 -6.15 48.65 -6.05 48.65 -5.95 48.65 -5.85 48.6 -5.75 48.55 -5.7 48.45 -5.6 48.4 -5.5 48.3 -5.5 48.15 -5.45 47.9 -5.5 47.75 -5.55 47.65 -5.55 45.6 -5.55 44.85 -5.4 44.35 -5.25 44.05 -5.15 43.9 -5.05 43.75 -4.95 43.65 -4.9 43.6 -4.85 43.45 -4.85 43.25 -4.75 42.95 -4.6 42.75 -4.5 42.55 -4.4 42.25 -4.2 42.15 -4.15 42.1 -4.1 42.0 -4.1 41.75 -4.0 41.45 -3.85 41.25 -3.75 41.05 -3.65 40.9 -3.55 40.6 -3.45 40.55 -3.35 40.55 -3.25 40.5 -3.2 40.4 -3.1 40.3 -3.0 40.25 -2.95 40.15 -2.9 40.0 -2.85 39.75 -2.95 39.6 -3.0 39.55 -3.1 39.5 -3.2 39.5 -3.3 39.5 -3.4 39.5 -3.5 39.5 -3.6 39.5 -3.7 39.5 -3.75 39.55 -3.85 39.55 -3.95 39.6 -4.05 39.65 -4.15 39.75 -4.25 39.8 -4.35 39.9 -4.4 40.0 -4.5 40.05 -4.6 40.15 -4.7 40.2 -4.8 40.3 -4.9 40.4 -5.0 40.5 -5.1 40.6 -5.15 40.75 -5.15 41.0 -5.2 41.6 -5.4 41.85 -5.6 42.0 -5.7 42.05 -5.8 42.25 -6.0 42.75 -6.25 43.15 -6.45 43.35 -6.5" fill="#ffff99" fill-opacity="0.2" fill-rule="evenodd" stroke="none"/>
    <path d="M27.1 1.2 L27.1 1.3 27.05 1.4 27.05 1.45 26.9 1.45 26.05 1.55 25.95 1.6 25.9 1.65 25.75 1.65 Q0.05 2.05 -25.6 1.45 L-26.2 1.35 -26.25 1.25 -26.2 1.15 -26.0 1.15 -16.4 0.8 -6.65 0.85 24.75 0.85 25.75 0.85 25.95 0.9 26.05 1.0 26.9 1.05 27.05 1.15 27.1 1.2" fill="#ffff99" fill-opacity="0.2" fill-rule="evenodd" stroke="none"/>
    <path d="M-38.85 -0.4 L-38.7 -0.4 -38.5 -0.35 -38.4 -0.25 -38.0 -0.3 -37.85 -0.4 -37.9 -0.45 -38.0 -0.6 -38.15 -0.65 -38.25 -0.75 -38.3 -0.85 -38.35 -0.95 -38.35 -1.05 -38.35 -1.15 -38.35 -1.25 -38.3 -1.35 -38.2 -1.45 -38.1 -1.5 -37.95 -1.5 -37.85 -1.5 -37.6 -1.45 -37.45 -1.35 -37.35 -1.25 -37.25 -1.2 -37.2 -1.1 -37.1 -1.0 -37.05 -0.9 -37.0 -0.8 -37.0 -0.7 -37.0 -0.6 -37.05 -0.5 -37.05 -0.4 -37.05 -0.25 -37.05 -0.15 -37.15 0.05 -37.35 0.25 -37.55 0.4 -37.65 0.5 -37.85 0.6 -38.85 0.6 -39.05 0.5 -39.15 0.4 -39.2 0.35 -39.25 0.25 -39.25 0.15 -39.25 0.05 -39.25 -0.05 -39.2 -0.15 -39.15 -0.25 -39.05 -0.35 -38.85 -0.4" fill="#ffff99" fill-opacity="0.2" fill-rule="evenodd" stroke="none"/>
    <path d="M-50.65 -3.45 L-50.65 -3.55 -50.65 -3.65 -50.65 -3.75 -50.65 -3.8 -50.6 -3.9 -50.5 -4.0 -50.35 -4.1 -50.25 -4.2 -50.1 -4.3 -49.95 -4.4 -49.75 -4.5 -49.6 -4.6 -49.4 -4.65 -49.3 -4.65 -48.4 -4.6 -47.85 -4.5 -47.75 -4.4 -47.7 -4.35 -47.65 -4.25 -47.6 -4.15 -47.6 -4.05 -47.6 -3.85 -47.6 -3.65 -47.6 -3.3 -47.6 -3.1 -47.65 -3.0 -47.65 -2.9 -47.7 -2.85 -47.75 -2.75 -47.8 -2.65 -47.8 -2.55 -47.8 -2.45 -47.85 -2.35 -47.85 -2.25 -47.9 -2.15 -48.0 -2.1 -48.05 -2.0 -48.15 -1.9 -48.25 -1.7 -48.35 -1.6 -48.5 -1.5 -48.6 -1.45 -48.7 -1.4 -48.9 -1.35 -48.95 -1.25 -49.0 -1.15 -49.1 -1.0 -49.3 -0.7 -49.55 -0.35 -49.7 -0.25 -49.8 -0.15 -49.85 -0.15 -50.05 -0.1 -50.3 -0.1 -50.55 -0.2 -50.8 -0.25 -50.9 -0.35 -51.0 -0.45 -51.05 -0.55 -51.05 -0.65 -51.1 -0.75 -51.1 -0.9 -51.1 -1.1 -51.1 -1.5 -51.1 -1.6 -51.05 -1.65 -51.0 -1.75 -51.0 -1.85 -50.95 -1.95 -50.9 -2.05 -50.9 -2.15 -50.85 -2.25 -50.8 -2.4 -50.8 -2.5 -50.8 -2.6 -50.8 -2.7 -50.8 -2.8 -50.8 -2.9 -50.8 -3.0 -50.8 -3.1 -50.75 -3.15 -50.75 -3.25 -50.7 -3.35 -50.65 -3.45" fill="#ffff99" fill-opacity="0.2" fill-rule="evenodd" stroke="none"/>
    <path d="M44.85 -6.0 L45.0 -6.0 45.25 -5.9 45.65 -5.75 45.7 -5.65 45.75 -5.55 45.8 -5.45 45.85 -5.35 45.85 -5.25 45.85 -5.15 45.85 -5.0 45.85 -4.9 45.85 -4.7 45.85 -4.6 45.85 -4.5 45.8 -4.45 45.75 -4.35 45.7 -4.25 45.6 -4.15 45.5 -4.05 45.35 -3.95 45.15 -3.85 45.0 -3.8 44.85 -3.8 43.5 -3.75 43.25 -3.85 43.1 -3.9 42.85 -3.9 41.75 -4.05 41.55 -4.1 41.4 -4.2 41.35 -4.25 41.2 -4.45 41.15 -4.55 41.15 -4.65 41.15 -4.75 41.15 -4.85 41.25 -4.9 41.35 -5.0 41.5 -5.1 41.6 -5.15 41.95 -5.35 42.15 -5.4 42.2 -5.5 42.25 -5.6 42.35 -5.7 42.4 -5.8 42.5 -5.9 42.65 -6.0 43.1 -6.15 43.45 -6.35 43.6 -6.35 44.1 -6.35 44.35 -6.3 44.45 -6.2 44.5 -6.15 44.75 -6.05 44.85 -6.0" fill="#ffff99" fill-opacity="0.2" fill-rule="evenodd" stroke="none"/>
    <path d="M-39.55 3.65 L-38.7 3.95 Q-37.7 7.2 -41.15 7.9 -52.3 10.55 -51.2 0.65 -50.3 0.65 -50.0 1.7 -49.7 2.75 -49.65 3.85 -44.45 7.75 -39.55 3.65" fill="#333333" fill-opacity="0.2" fill-rule="evenodd" stroke="none"/>
    <path d="M-39.3 3.1 L-38.45 3.2 -37.8 3.25 -37.15 3.45 -36.65 3.7 -36.45 5.0 -37.25 6.2 Q-38.4 7.9 -39.95 9.25 L-41.6 9.45 Q-44.85 9.45 -47.75 7.8 L-47.8 6.1 -47.3 5.55 Q-44.9 6.7 -42.6 5.85 L-39.3 3.1" fill="#333333" fill-opacity="0.2" fill-rule="evenodd" stroke="none"/>
    <path d="M51.15 -4.25 L51.85 -4.75 52.35 -4.45 Q53.9 -0.25 53.25 4.5 46.95 12.3 39.25 5.2 L39.25 4.25 40.25 4.15 Q41.3 4.85 42.45 5.05 53.45 7.35 51.15 -4.25" fill="#333333" fill-opacity="0.2" fill-rule="evenodd" stroke="none"/>
    <path d="M51.35 0.05 L52.05 -0.75 53.55 -0.05 53.8 2.7 Q53.9 6.95 50.05 8.85 L49.8 9.4 Q42.45 12.05 38.0 5.3 L38.0 4.55 38.4 4.05 39.1 4.0 Q39.95 4.05 40.75 4.55 41.9 5.15 42.5 6.3 45.7 7.35 48.8 6.25 L50.25 4.55 50.25 3.6 50.85 2.85 51.55 2.65 51.35 0.05" fill="#333333" fill-opacity="0.2" fill-rule="evenodd" stroke="none"/>
    <path d="M27.9 -0.8 L27.6 -0.8 23.65 -0.75 -3.1 -0.8 -11.25 -0.8 -16.0 -0.75 -17.55 -0.75 -18.55 -0.7 -18.6 -0.75 -18.6 -0.7 -28.2 -0.7 -28.2 -1.65 -18.45 -1.8 -11.15 -1.9 -3.6 -1.8 9.4 -1.75 23.75 -1.75 27.6 -1.65 Q27.75 -1.5 27.9 -1.5 L28.0 -1.4 28.1 -1.35 28.1 -1.1 28.0 -1.05 27.9 -0.8 M40.25 -4.7 L40.3 -4.7 40.15 -4.6 40.05 -4.55 39.95 -4.45 39.9 -4.35 39.85 -4.25 39.8 -4.15 39.8 -4.1 39.75 -4.1 39.25 -4.0 39.0 -3.95 20.05 -4.0 -14.95 -4.15 Q-27.35 -3.4 -39.75 -4.2 L-39.9 -4.4 -39.9 -4.5 -39.9 -4.6 -39.8 -4.75 -39.55 -4.9 -38.25 -4.95 -32.65 -5.0 -16.05 -4.95 -14.0 -4.85 20.05 -5.1 39.0 -5.1 39.25 -5.05 39.75 -4.95 40.05 -4.8 40.25 -4.7 M40.0 3.7 L40.05 3.85 40.15 4.0 40.15 4.1 40.15 4.2 40.25 4.3 40.45 4.7 40.5 4.85 40.25 4.9 35.15 4.95 Q17.85 5.15 0.65 4.9 L-9.9 4.9 -16.05 5.05 -18.1 5.1 Q-28.9 5.3 -39.8 4.85 L-40.15 4.7 -40.35 4.45 -40.2 4.3 -40.0 3.9 -39.9 3.65 -39.75 3.45 -39.75 3.35 -39.7 3.25 -34.95 3.05 -31.9 3.0 -31.9 2.95 -18.1 3.15 -9.9 3.2 0.65 3.2 11.65 3.05 35.15 3.05 39.6 3.15 39.65 3.2 39.85 3.45 39.95 3.6 40.0 3.7 M27.95 0.7 L28.1 0.75 28.15 0.8 28.15 1.0 28.0 1.05 27.85 1.1 27.65 1.1 23.9 1.2 21.55 1.2 10.85 1.2 4.5 1.1 0.85 1.1 0.9 1.0 0.9 0.9 0.95 0.85 0.95 0.75 1.0 0.65 1.0 0.6 4.5 0.6 9.25 0.55 10.85 0.55 27.65 0.6 27.95 0.7 M-19.6 0.55 L-19.6 0.6 -19.55 0.65 -19.5 0.75 -19.7 0.9 -19.85 1.2 -28.2 1.2 -28.2 0.55 -19.6 0.55 M-0.95 0.95 L-0.9 1.05 -0.85 1.1 -3.65 1.1 -5.55 1.15 -5.5 1.05 -5.55 0.95 -5.55 0.85 -5.55 0.75 -5.6 0.65 -5.65 0.6 -3.65 0.6 -1.0 0.6 -1.0 0.65 -1.0 0.75 -1.0 0.85 -0.95 0.95" fill="#333333" fill-rule="evenodd" stroke="none"/>
    <path d="M-29.2 0.0 L-29.2 0.1 -29.05 0.3 Q-28.2 1.4 -27.15 0.8 L-27.95 0.4 Q-28.55 0.25 -28.55 -0.35 L-28.55 -0.45 -27.6 -1.0 Q-26.4 -0.8 -25.95 -1.45 -26.15 -2.0 -27.55 -1.75 -28.5 -1.65 -29.15 -0.85 L-29.2 0.0" fill="#333333" fill-rule="evenodd" stroke="none"/>
    <path d="M29.2 -0.6 L29.2 -0.7 29.05 -0.9 Q28.2 -2.0 27.15 -1.4 27.5 -1.1 27.95 -1.0 28.55 -0.85 28.55 -0.25 L28.55 -0.15 27.6 0.4 Q26.4 0.2 25.95 0.85 26.15 1.4 27.55 1.15 28.5 1.05 29.15 0.25 L29.2 -0.6" fill="#333333" fill-rule="evenodd" stroke="none"/>
    <path d="M-42.85 -6.7 Q-40.5 -6.0 -39.05 -4.1 L-40.15 -4.15 -40.25 -4.1 Q-41.2 -5.2 -42.4 -5.65 -44.5 -6.45 -45.9 -6.1 L-45.95 -6.05 -46.05 -6.1 -46.65 -6.1 -46.65 -6.05 -47.0 -6.0 -47.3 -5.95 -47.5 -5.95 -47.65 -5.85 -48.15 -5.65 -48.5 -5.5 -48.65 -5.4 -48.75 -5.3 -48.85 -5.2 -49.0 -5.1 -49.1 -5.0 -49.2 -4.95 -49.25 -4.95 -49.35 -4.85 -49.5 -4.75 -49.6 -4.7 -49.7 -4.6 -49.75 -4.5 -49.8 -4.4 -49.85 -4.3 -49.85 -4.2 -49.9 -4.1 -49.9 -4.0 -50.0 -3.95 -50.1 -3.85 -50.15 -3.75 -50.25 -3.65 -50.25 -3.55 -50.25 -3.45 -50.3 -3.35 -50.3 -3.25 -50.3 -3.15 -50.95 -1.7 Q-51.45 -0.45 -51.05 1.1 -50.35 4.0 -47.8 5.1 L-44.95 5.85 Q-44.2 6.05 -43.4 5.55 L-42.45 5.6 Q-40.9 4.45 -39.85 3.0 L-38.65 3.1 -38.9 3.65 Q-39.45 4.7 -40.65 5.7 -41.85 6.65 -42.6 6.9 L-44.55 7.15 Q-47.4 7.05 -49.0 5.95 -50.6 4.85 -51.6 2.75 -52.6 0.6 -52.05 -1.4 L-51.0 -4.3 -49.05 -6.2 Q-47.7 -7.2 -44.95 -7.15 L-42.85 -6.7" fill="#333333" fill-rule="evenodd" stroke="none"/>
    <path d="M-46.95 -3.1 Q-46.3 -3.6 -44.9 -3.55 L-43.85 -3.35 Q-42.45 -2.9 -41.75 -1.7 -41.3 -0.9 -41.25 0.1 L-41.35 0.65 -41.5 1.05 -41.9 1.85 -42.75 2.85 -43.75 3.45 -44.7 3.6 Q-46.15 3.55 -46.95 3.0 -47.75 2.45 -48.25 1.4 -48.75 0.3 -48.45 -0.7 L-47.95 -2.15 -46.95 -3.1 M-47.45 -1.8 L-47.9 -0.85 Q-48.15 -0.2 -47.95 0.55 -47.6 2.0 -46.35 2.55 L-44.9 2.95 -44.15 2.8 -43.65 2.8 -42.25 1.35 -42.0 1.0 -41.95 0.9 -41.95 -1.0 Q-42.6 -2.45 -43.65 -2.8 L-45.4 -3.05 -46.65 -2.6 -47.45 -1.8" fill="#333333" fill-rule="evenodd" stroke="none"/>
    <path d="M42.9 -6.7 Q40.4 -5.95 38.95 -3.9 L40.0 -3.9 40.2 -4.0 Q41.2 -5.2 42.45 -5.65 44.55 -6.45 45.95 -6.1 47.35 -5.8 48.45 -5.25 49.6 -4.7 50.1 -3.65 L51.0 -1.7 Q51.5 -0.45 51.1 1.1 50.4 4.0 48.7 4.85 L45.95 6.0 Q44.9 6.35 42.4 5.55 40.95 4.45 39.95 3.05 L38.95 3.1 38.65 3.05 38.95 3.65 Q39.5 4.7 40.7 5.7 L42.65 6.9 44.6 7.15 Q47.45 7.05 49.05 5.95 50.65 4.85 51.65 2.75 52.65 0.6 52.1 -1.4 L51.05 -4.3 49.1 -6.2 Q47.75 -7.2 45.0 -7.15 L42.9 -6.7" fill="#333333" fill-rule="evenodd" stroke="none"/>
    <path d="M41.8 -1.7 Q41.35 -0.9 41.35 0.1 L41.4 0.65 41.55 1.05 41.95 1.85 42.85 2.85 43.8 3.45 44.8 3.6 Q46.2 3.55 47.0 3.0 47.8 2.45 48.3 1.4 48.8 0.3 48.55 -0.7 L48.0 -2.15 47.05 -3.1 Q46.35 -3.6 45.0 -3.55 L43.95 -3.35 Q42.55 -2.9 41.8 -1.7 M43.7 -2.8 L45.45 -3.05 46.7 -2.6 47.55 -1.8 48.0 -0.85 Q48.25 -0.2 48.05 0.55 47.7 2.0 46.4 2.55 L45.0 2.95 44.2 2.8 43.75 2.8 42.35 1.35 42.1 1.0 42.0 0.9 42.0 -1.0 Q42.65 -2.45 43.7 -2.8" fill="#333333" fill-rule="evenodd" stroke="none"/>
    <path d="M-49.35 2.4 L-49.25 2.5 -49.95 3.1 -50.5 3.45 -50.95 3.75 -51.15 3.8 -51.3 3.8 -51.35 3.75 -51.3 3.65 -51.25 3.55 -50.35 2.95 -49.65 2.5 -49.35 2.4" fill="#333333" fill-rule="evenodd" stroke="none"/>
    <path d="M-47.85 2.55 L-47.8 2.6 -47.85 2.75 -48.05 3.0 -48.2 3.15 -48.65 3.55 -49.05 3.9 -49.2 4.1 -49.25 4.2 -49.25 4.3 -49.35 4.4 -49.4 4.5 -49.5 4.55 -49.65 4.65 -49.8 4.55 -49.8 4.5 -49.75 4.4 -49.7 4.3 -49.7 4.2 -49.7 4.1 -49.65 4.0 -49.65 3.9 -49.4 3.5 -49.1 3.25 -48.8 3.0 -48.55 2.8 -48.3 2.6 -48.2 2.5 -48.0 2.45 -47.85 2.55" fill="#333333" fill-rule="evenodd" stroke="none"/>
    <path d="M-47.9 3.75 L-47.6 3.8 -47.5 3.9 -47.55 3.95 -47.65 4.1 -47.75 4.15 -47.8 4.25 -47.85 4.35 -47.85 4.45 -47.9 4.55 -47.9 4.65 -47.9 4.75 -47.95 4.8 -48.0 4.9 -48.05 5.0 -48.1 5.1 -48.25 5.2 -48.3 5.3 -48.4 5.35 -48.5 5.3 -48.5 5.2 -48.5 5.1 -48.5 5.0 -48.5 4.9 -48.5 4.8 -48.45 4.75 -48.45 4.65 -48.4 4.55 -48.4 4.45 -48.4 4.35 -48.35 4.25 -48.25 4.1 -48.15 3.95 -48.0 3.8 -47.9 3.75" fill="#333333" fill-rule="evenodd" stroke="none"/>
    <path d="M-42.0 -5.7 L-41.9 -5.7 -41.85 -5.6 -41.85 -5.55 -41.95 -5.45 -42.0 -5.35 -42.05 -5.25 -42.1 -5.15 -42.2 -5.05 -42.3 -4.95 -42.35 -4.85 -42.4 -4.8 -42.55 -4.75 -42.6 -4.85 -42.6 -4.95 -42.55 -5.0 -42.45 -5.2 -42.35 -5.4 -42.25 -5.6 -42.15 -5.7 -42.0 -5.7" fill="#333333" fill-rule="evenodd" stroke="none"/>
    <path d="M-45.7 1.0 L-45.5 1.1 -45.45 1.2 -45.35 1.3 -45.35 1.4 -45.25 1.5 -45.3 1.55 -45.3 1.65 -45.35 1.75 -45.4 1.8 -45.6 1.9 -45.65 1.8 -45.7 1.7 -45.7 1.6 -45.75 1.5 -45.85 1.4 -45.85 1.3 -45.95 1.25 -45.9 1.15 -45.85 1.05 -45.75 1.0 -45.7 1.0" fill="#333333" fill-rule="evenodd" stroke="none"/>
    <path d="M-44.8 0.25 L-44.7 0.3 -44.7 0.35 -44.65 0.4 -44.65 0.45 -44.6 0.45 -44.6 0.5 -44.55 0.55 -44.55 0.75 -44.5 0.85 -44.4 1.0 -44.35 1.15 -44.3 1.2 -44.25 1.25 -44.25 1.35 -44.2 1.4 -44.2 1.45 -44.15 1.5 -44.15 1.6 -44.1 1.65 -44.1 1.7 -44.05 1.75 -44.05 1.8 -44.0 1.85 -44.0 1.95 -43.95 1.95 -43.95 2.0 -43.9 2.05 -43.9 2.1 -43.95 2.15 -43.95 2.2 -44.05 2.25 -44.15 2.2 -44.2 2.15 -44.2 2.1 -44.3 2.05 -44.35 2.0 -44.35 1.95 -44.4 1.95 -44.4 1.9 -44.45 1.85 -44.45 1.8 -44.5 1.75 -44.5 1.65 -44.55 1.6 -44.55 1.55 -44.6 1.5 -44.6 1.45 -44.65 1.4 -44.65 1.3 -44.7 1.25 -44.7 1.2 -44.75 1.2 -44.8 1.1 -44.85 1.0 -44.85 0.9 -44.9 0.85 -44.9 0.75 -44.9 0.65 -44.95 0.6 -44.95 0.35 -44.9 0.3 -44.8 0.25" fill="#333333" fill-rule="evenodd" stroke="none"/>
    <path d="M-43.45 0.75 L-43.35 0.8 -43.25 0.9 -43.15 1.0 -43.0 1.1 -43.0 1.15 -42.95 1.2 -42.85 1.3 -42.8 1.4 -42.8 1.45 -42.75 1.5 -42.75 1.55 -42.85 1.65 -42.9 1.65 -43.0 1.6 -43.15 1.45 -43.25 1.35 -43.35 1.25 -43.45 1.15 -43.55 1.05 -43.55 1.0 -43.65 0.95 -43.65 0.9 -43.7 0.85 -43.7 0.8 -43.65 0.75 -43.6 0.75 -43.55 0.7 -43.45 0.75" fill="#333333" fill-rule="evenodd" stroke="none"/>
    <path d="M44.45 1.55 L44.45 1.3 44.55 1.3 44.65 1.3 44.65 1.35 44.7 1.4 44.7 1.6 44.75 1.65 44.75 1.85 44.75 2.15 44.75 2.4 44.65 2.5 44.6 2.5 44.5 2.45 44.45 2.4 44.45 2.35 44.45 2.15 44.45 1.85 44.45 1.55" fill="#333333" fill-rule="evenodd" stroke="none"/>
    <path d="M46.05 1.6 L46.05 1.7 46.15 1.75 46.25 1.9 46.3 2.05 46.3 2.1 46.35 2.15 46.35 2.3 46.3 2.35 46.3 2.45 46.25 2.45 46.15 2.5 46.05 2.45 45.95 2.35 45.95 2.3 45.95 2.2 45.85 2.05 45.75 1.95 45.75 1.9 45.7 1.85 45.7 1.8 45.65 1.75 45.65 1.65 45.4 1.35 45.15 1.0 45.0 0.7 44.95 0.65 44.9 0.6 44.9 0.55 44.95 0.55 44.95 0.5 45.05 0.45 45.1 0.45 45.2 0.45 45.5 0.8 45.85 1.25 46.0 1.55 46.05 1.6" fill="#333333" fill-rule="evenodd" stroke="none"/>
    <path d="M46.45 1.15 L46.45 1.05 46.5 1.0 46.55 0.95 46.6 0.95 46.75 1.0 46.95 1.1 47.05 1.15 47.15 1.2 47.15 1.25 47.2 1.25 47.2 1.3 47.3 1.4 47.3 1.55 47.25 1.6 47.2 1.65 47.15 1.65 47.05 1.6 47.0 1.55 46.95 1.55 46.9 1.5 46.9 1.45 46.8 1.4 46.65 1.35 46.5 1.25 46.5 1.2 46.45 1.15" fill="#333333" fill-rule="evenodd" stroke="none"/>
    <path d="M42.25 3.7 L42.3 3.75 42.3 3.8 42.3 3.9 42.3 4.0 42.3 4.1 42.3 4.15 42.25 4.2 42.2 4.3 42.15 4.3 42.1 4.35 42.0 4.35 41.9 4.35 41.9 4.25 41.95 4.25 41.95 3.85 42.0 3.8 42.0 3.7 42.05 3.65 42.15 3.65 42.25 3.65 42.25 3.7" fill="#333333" fill-rule="evenodd" stroke="none"/>
    <path d="M43.15 3.7 L43.2 3.65 43.3 3.65 43.4 3.65 43.45 3.7 43.45 3.75 43.45 3.85 43.5 4.0 43.5 4.15 43.35 4.4 43.15 4.7 43.05 4.9 43.05 5.0 43.0 5.05 42.95 5.1 42.95 5.15 42.85 5.35 42.75 5.6 42.6 5.8 42.6 5.85 42.45 6.1 42.25 6.4 42.15 6.5 42.1 6.55 42.05 6.55 42.05 6.6 42.0 6.6 41.95 6.55 41.95 6.5 41.9 6.45 41.9 6.3 41.95 6.2 41.95 6.1 42.05 5.95 42.15 5.75 42.25 5.6 42.25 5.55 42.3 5.55 42.4 5.35 42.5 5.1 42.6 4.9 42.6 4.85 42.65 4.8 42.7 4.75 42.7 4.65 42.75 4.55 42.85 4.4 42.9 4.25 42.95 4.2 43.05 4.1 43.15 4.0 43.1 3.95 43.05 3.9 43.1 3.85 43.15 3.8 43.15 3.7" fill="#333333" fill-rule="evenodd" stroke="none"/>
    <path d="M44.1 4.5 L44.15 4.55 44.15 4.7 44.1 4.8 44.05 4.85 44.0 4.95 44.0 5.1 44.0 5.25 44.0 5.3 43.95 5.35 43.95 5.4 43.8 5.4 43.75 5.35 43.75 5.3 43.7 5.15 43.7 4.95 43.75 4.75 43.8 4.7 43.8 4.65 43.85 4.6 43.85 4.55 43.9 4.55 43.9 4.5 43.95 4.45 44.0 4.45 44.0 4.4 44.1 4.45 44.1 4.5" fill="#333333" fill-rule="evenodd" stroke="none"/>
    <path d="M49.6 -2.0 L49.65 -2.05 50.9 -2.35 51.4 -2.5 51.55 -2.55 51.6 -2.55 51.7 -2.5 51.75 -2.45 51.75 -2.4 51.7 -2.35 51.7 -2.3 51.65 -2.2 51.6 -2.15 50.4 -1.85 49.85 -1.75 49.75 -1.75 49.65 -1.75 49.6 -1.8 49.6 -2.0" fill="#333333" fill-rule="evenodd" stroke="none"/>
    <path d="M31.2 1.7 L31.2 1.75 31.25 1.75 31.25 2.2 31.2 2.35 31.15 2.5 31.1 2.7 31.05 2.75 31.05 2.8 31.05 2.95 31.05 3.15 31.0 3.3 31.0 3.5 30.95 3.55 30.95 3.6 30.85 3.65 30.75 3.6 30.75 3.5 30.7 3.45 30.7 3.35 30.65 3.2 30.65 2.95 30.7 2.7 30.7 2.65 30.75 2.6 30.75 2.5 30.8 2.3 30.85 2.1 30.9 2.05 30.9 1.95 30.95 1.9 30.95 1.75 31.0 1.7 31.1 1.65 31.2 1.7" fill="#333333" fill-rule="evenodd" stroke="none"/>
    <path d="M30.05 1.15 L30.05 1.05 30.0 1.0 30.0 0.9 30.05 0.85 30.1 0.85 30.2 0.9 30.3 0.95 30.3 1.0 30.35 1.05 30.35 1.15 30.35 1.25 30.35 1.35 30.4 1.45 30.4 1.5 30.35 1.55 30.35 1.6 30.3 1.65 30.3 1.7 30.2 2.1 30.1 2.65 30.0 3.05 30.0 3.15 29.95 3.3 29.95 3.5 29.95 3.6 29.9 3.65 29.85 3.7 29.85 3.75 29.8 3.8 29.7 3.8 29.7 3.7 29.65 3.65 29.65 3.6 29.65 2.9 29.8 2.15 29.95 1.6 29.95 1.55 30.0 1.5 30.0 1.45 30.05 1.4 30.05 1.25 30.05 1.15" fill="#333333" fill-rule="evenodd" stroke="none"/>
    <path d="M-18.3 0.65 L-18.25 0.7 -17.7 0.7 -17.6 0.75 -17.55 0.8 -17.55 0.85 -17.5 0.9 -17.5 0.95 -17.55 1.05 -17.55 1.1 -17.6 1.1 -17.65 1.15 -17.7 1.15 -18.5 1.1 -18.6 1.1 -18.75 1.05 -18.8 1.05 -18.9 1.0 -18.9 0.95 -18.85 0.9 -18.8 0.85 -18.75 0.8 -18.75 0.75 -18.7 0.7 -18.65 0.65 -18.6 0.65 -18.4 0.65 -18.3 0.65" fill="#333333" fill-rule="evenodd" stroke="none"/>
    <path d="M-45.05 3.5 Q-40.8 3.2 -41.65 -1.35 -39.4 3.1 -43.8 4.25 -46.8 4.2 -47.25 2.75 L-47.05 2.3 -47.0 2.35 -46.85 2.45 -46.55 2.65 -46.3 2.75 -46.2 2.85 -45.7 3.0 -45.05 3.5" fill="#333333" fill-rule="evenodd" stroke="none"/>
    <path d="M44.95 3.5 Q49.2 3.2 48.35 -1.35 50.6 3.1 46.2 4.25 43.2 4.2 42.75 2.75 L42.95 2.3 43.0 2.35 43.15 2.45 43.45 2.65 43.7 2.75 43.8 2.85 44.3 3.0 44.95 3.5" fill="#333333" fill-rule="evenodd" stroke="none"/>
  </g>
</svg>
