<?xml version="1.0" encoding="UTF-8" standalone="no"?>
<svg xmlns:xlink="http://www.w3.org/1999/xlink" height="39.5px" width="66.35px" xmlns="http://www.w3.org/2000/svg">
  <g transform="matrix(1.0, 0.0, 0.0, 1.0, 33.2, 19.75)">
    <path d="M2.6 -13.55 L4.45 -12.55 6.8 -11.65 9.2 -10.65 9.6 -10.2 9.8 -9.9 Q13.5 -8.6 17.4 -8.3 L18.35 -8.55 18.8 -8.7 19.55 -8.6 21.4 -8.25 22.0 -8.15 Q25.0 -7.0 28.15 -6.25 L29.1 -5.9 29.5 -5.45 29.65 -5.0 29.75 -4.65 30.05 -4.2 30.45 -3.7 30.75 -3.25 30.8 -2.9 30.85 -2.5 30.85 -2.1 30.8 -1.7 30.7 -1.35 30.5 -1.05 30.2 -0.7 29.75 -0.4 29.3 -0.1 29.1 -0.05 29.15 0.0 29.7 0.9 29.9 1.3 30.1 1.7 30.2 2.0 30.65 2.15 31.45 2.5 31.9 3.0 32.0 3.4 32.1 3.8 32.0 4.15 31.9 4.55 31.75 4.9 31.45 5.2 30.85 5.45 30.05 5.7 29.85 5.75 29.85 5.9 29.7 6.65 29.65 7.0 29.55 7.4 29.5 7.75 29.4 8.1 29.2 8.45 29.0 8.75 28.55 9.1 28.0 9.35 27.1 9.6 26.4 9.8 25.95 9.95 25.7 10.0 24.9 10.0 24.15 10.0 23.7 10.25 23.25 10.55 22.85 10.85 22.4 11.15 22.15 11.85 22.0 12.2 21.85 12.6 21.7 13.3 21.5 14.05 21.35 14.4 21.1 14.7 20.8 15.05 20.25 15.3 18.95 15.45 18.4 15.6 17.65 15.55 16.6 15.6 15.8 15.85 15.1 16.05 14.65 16.35 13.95 16.6 13.25 16.85 12.8 17.15 12.3 17.25 11.5 17.35 11.05 17.65 10.6 17.95 10.15 18.25 8.8 18.6 8.55 18.65 6.2 18.8 4.3 18.6 3.8 18.7 1.9 18.6 1.25 18.55 0.65 18.5 0.6 18.6 0.05 18.3 -0.2 18.15 -4.75 17.1 -5.55 16.7 -5.95 16.2 -6.25 15.75 -6.55 15.3 -8.85 14.7 -9.65 14.3 -9.95 14.45 -10.35 14.65 -10.65 14.7 -11.4 14.7 -12.7 14.7 -13.25 14.85 -19.1 14.55 -23.15 14.45 -24.65 14.2 -24.65 14.3 Q-25.1 14.05 -25.6 13.85 L-26.0 13.35 -26.2 12.95 -26.45 12.5 -26.55 12.1 -26.75 11.3 -27.1 10.45 -27.45 9.75 -27.55 9.65 -30.65 8.55 -31.05 8.1 -31.2 7.65 -31.3 7.3 -31.4 6.85 -31.35 6.5 -31.3 6.1 -31.3 5.75 -31.35 5.3 -31.45 4.95 -31.6 4.5 -31.65 4.1 -31.7 3.75 -31.75 3.35 -31.65 2.95 -31.55 2.2 -31.5 1.45 -31.2 0.35 -31.05 0.0 -30.85 -0.3 -30.55 -0.65 -30.45 -1.0 -30.25 -1.35 -30.05 -1.7 -29.75 -2.05 -29.55 -2.35 -29.0 -2.65 -28.55 -2.9 -28.45 -3.3 -28.4 -3.65 -28.3 -4.0 -28.15 -4.4 -28.05 -4.75 -27.8 -5.05 -27.5 -5.4 -27.45 -5.75 -27.35 -6.15 -27.2 -6.5 -27.1 -6.85 -26.8 -7.2 -26.55 -7.5 -26.4 -7.85 -26.3 -8.25 -26.2 -8.6 -26.0 -8.9 -25.7 -9.25 -25.5 -9.6 -25.3 -9.95 -25.0 -10.3 -24.8 -10.6 -24.35 -10.95 -23.75 -11.5 -23.05 -12.15 -22.6 -12.45 -22.0 -13.05 -20.35 -14.4 -19.25 -15.6 -18.7 -15.9 -18.25 -16.05 -17.15 -15.95 -16.2 -16.15 -15.8 -16.3 -15.5 -16.35 -14.5 -16.45 -12.85 -16.9 -9.6 -17.75 -9.05 -18.0 -8.45 -18.25 -8.05 -18.45 Q-5.9 -18.4 -3.8 -17.8 L-1.8 -17.0 -1.15 -16.5 -0.7 -16.15 -0.5 -16.0 0.45 -15.55 0.85 -15.05 1.15 -14.6 1.35 -14.2 2.6 -13.55" fill="#ab98a0" fill-rule="evenodd" stroke="none"/>
    <path d="M3.1 -12.35 L3.55 -12.1 3.8 -12.0 4.4 -11.75 5.35 -11.5 6.3 -11.05 6.7 -10.6 7.15 -10.15 7.8 -9.6 8.1 -9.15 8.35 -8.7 8.55 -8.3 8.6 -7.9 Q8.6 -7.7 8.75 -7.65 9.55 -7.2 10.45 -6.9 L11.95 -6.7 12.35 -6.85 13.1 -6.85 13.65 -6.85 14.65 -6.85 18.65 -6.25 20.6 -5.8 21.55 -5.35 21.95 -4.9 22.1 -4.45 22.15 -4.1 22.2 -3.7 22.15 -3.3 22.05 -2.95 22.5 -2.5 22.9 -2.0 23.4 -1.9 24.3 -2.0 24.9 -1.85 25.85 -1.4 26.25 -0.95 26.4 -0.5 26.5 -0.1 26.5 0.25 26.45 0.65 26.35 1.0 26.2 1.35 26.05 1.7 25.9 2.05 25.7 2.4 25.4 2.75 25.05 3.05 24.75 3.35 24.15 3.65 23.85 3.95 23.4 4.25 23.1 4.55 22.4 5.2 21.65 5.75 20.55 6.35 20.2 6.65 19.75 6.95 19.2 7.1 18.45 7.05 17.2 6.95 17.05 7.2 16.95 7.5 16.75 7.85 16.5 8.2 16.1 8.5 15.65 8.8 15.2 9.1 14.65 9.35 14.35 9.7 14.05 10.0 13.8 10.35 13.5 10.65 13.05 10.95 12.65 11.1 12.0 11.1 11.5 11.05 10.0 10.85 9.45 11.0 8.8 10.95 8.45 10.95 7.8 10.9 7.35 11.2 6.9 11.5 6.6 11.7 6.35 11.75 5.7 11.85 5.25 12.15 4.95 12.35 4.65 12.4 4.15 12.45 3.55 12.4 3.5 12.45 1.55 12.05 -0.95 11.65 Q-3.1 11.35 -5.05 10.4 L-6.95 9.0 -7.2 8.55 -7.4 8.15 -7.45 7.75 -7.45 7.35 -7.45 7.0 -7.45 6.6 -7.4 6.25 -7.6 5.95 -7.8 5.8 -8.55 5.75 -8.8 6.05 -9.1 6.4 -9.65 6.65 -10.7 6.7 -13.15 6.2 -14.05 5.75 -15.0 5.3 -15.8 4.85 -17.3 4.05 -17.75 3.6 -17.9 3.15 -18.05 2.75 -18.15 2.35 -18.3 1.95 -18.45 1.5 -18.5 1.1 -18.5 0.75 -18.5 0.35 -18.5 -0.05 -18.55 -0.45 -18.5 -0.8 -18.4 -1.15 -18.4 -1.55 -18.5 -1.95 -18.55 -2.35 -18.6 -2.75 -18.75 -3.15 -18.8 -3.55 -18.85 -3.95 -18.9 -4.35 -18.95 -4.75 -19.0 -5.15 -18.95 -5.5 -18.9 -5.85 -18.9 -6.25 -18.8 -6.6 -18.65 -7.0 -18.45 -7.3 -18.2 -7.65 -17.8 -7.95 -17.35 -8.25 -16.65 -8.45 -16.0 -8.6 -14.95 -8.65 -14.55 -8.8 Q-14.25 -8.9 -14.1 -9.05 -14.0 -9.15 -14.05 -9.35 L-13.95 -9.75 -13.85 -10.1 -13.7 -10.45 -13.35 -10.75 -13.05 -11.1 -12.45 -11.35 -11.55 -11.4 -10.8 -11.4 -10.25 -11.65 -9.8 -11.8 -8.8 -11.85 -8.35 -12.05 -8.1 -12.1 -7.3 -12.1 -6.8 -12.1 -6.55 -12.15 -5.5 -12.2 -5.2 -12.4 -4.95 -12.5 -4.2 -12.4 -3.05 -12.25 -2.65 -12.4 -2.35 -12.45 -1.6 -12.45 -0.7 -12.5 0.0 -12.75 1.0 -12.75 2.05 -12.7 2.4 -12.6 3.1 -12.35" fill="#663333" fill-opacity="0.2" fill-rule="evenodd" stroke="none"/>
    <path d="M-28.9 -2.15 L-28.65 -2.5 -28.45 -2.85 -28.25 -3.2 -27.8 -3.5 -27.35 -3.75 -26.8 -4.05 -25.85 -4.1 -25.15 -3.95 -24.3 -4.2 -23.9 -4.5 -23.45 -4.75 -23.0 -5.05 -22.55 -5.35 -21.85 -5.55 -20.8 -5.75 -19.6 -5.9 -19.3 -6.1 -19.05 -6.15 -18.0 -6.2 -17.6 -6.4 -16.85 -6.35 -16.1 -6.05 -15.3 -5.65 -14.9 -5.2 -14.75 -4.75 -14.65 -4.4 -14.5 -3.95 -14.45 -3.55 -14.4 -3.15 -14.35 -2.75 -14.2 -2.35 -14.15 -1.95 -14.15 -1.55 -14.15 -1.2 -14.1 -1.05 -13.75 -1.25 -13.35 -1.55 -13.05 -1.75 -12.75 -1.75 -12.0 -1.75 -10.65 -1.5 -9.7 -1.05 -9.3 -0.6 -9.15 -0.15 -9.05 0.25 -8.9 0.65 -8.5 1.1 -8.35 1.55 -8.25 1.95 -8.1 2.35 -7.9 2.5 -7.1 2.95 -6.8 3.4 -6.65 3.8 -6.55 4.2 -6.55 4.6 -6.6 4.95 -6.7 5.35 -6.75 5.7 -6.85 6.1 -7.05 6.4 -7.35 6.75 -7.55 7.1 -7.7 7.45 -7.85 7.8 -7.9 8.15 -8.1 8.5 -8.4 8.85 -8.75 9.15 -8.8 9.5 -8.9 9.9 -9.1 10.2 -9.4 10.55 -9.85 10.7 -10.5 10.7 -11.65 10.75 -12.3 10.85 -13.2 10.9 -15.05 10.6 -17.55 10.2 -17.55 10.3 -19.5 9.8 -20.1 9.6 -20.8 9.2 -21.2 8.75 -21.65 8.3 -21.8 7.85 -21.85 7.45 -21.85 7.1 -21.85 6.7 -21.75 6.35 -21.75 6.0 -21.85 5.55 -22.15 5.1 -22.8 4.55 -23.1 4.25 -24.0 4.25 -25.05 4.25 -25.85 3.85 -26.25 3.35 -26.45 2.95 -26.5 2.55 -26.5 2.15 -26.55 1.75 -26.5 1.4 -26.4 1.0 -26.35 0.75 -26.75 0.7 -27.5 0.65 -28.3 0.25 -28.75 -0.2 -28.9 -0.65 -29.05 -1.05 -29.1 -1.45 -29.05 -1.85 -28.9 -2.15" fill="#663333" fill-opacity="0.2" fill-rule="evenodd" stroke="none"/>
    <path d="M9.0 -9.25 L10.35 -8.95 11.3 -8.5 11.95 -8.0 12.5 -7.5 12.8 -7.05 13.45 -6.5 13.85 -6.05 14.05 -5.65 14.1 -5.25 14.1 -4.85 14.1 -4.5 14.05 -4.1 13.95 -3.35 13.85 -3.0 13.65 -2.65 13.35 -2.35 12.9 -2.05 12.35 -1.9 11.6 -1.95 10.0 -2.1 9.6 -2.05 9.3 -2.0 8.5 -1.9 7.95 -1.65 7.65 -1.3 7.3 -1.0 7.1 -0.65 6.9 -0.3 6.7 0.05 6.4 0.35 5.85 0.6 4.8 0.6 3.65 0.55 3.25 0.6 3.0 0.65 2.1 0.75 1.55 0.9 0.8 0.9 -0.15 0.9 -1.3 0.95 -3.4 0.55 -3.4 0.65 -4.25 0.3 -5.05 -0.1 -5.95 -0.7 -6.5 -1.15 -6.7 -1.55 -6.95 -2.0 -7.35 -2.5 -7.8 -2.95 -8.35 -3.45 -8.6 -3.9 -8.9 -4.35 -9.2 -4.8 -9.5 -5.25 -9.8 -5.7 -9.85 -6.05 -9.9 -6.45 -9.95 -6.85 -10.05 -7.2 -10.5 -7.75 -10.8 -8.2 -11.1 -8.65 -11.2 -9.05 -11.3 -9.45 -11.35 -9.85 -11.3 -10.2 -11.2 -10.55 -11.05 -10.95 -10.95 -11.3 -10.9 -11.65 -10.9 -12.05 -10.85 -12.45 -10.65 -12.75 -10.4 -13.1 -10.1 -13.45 -9.55 -13.7 -8.5 -13.85 -8.05 -14.05 -6.55 -13.9 -2.0 -13.05 -1.5 -12.95 -0.55 -12.5 -0.15 -12.0 0.0 -11.6 0.2 -11.2 1.9 -10.85 2.45 -10.95 3.2 -10.9 4.7 -10.65 5.6 -10.2 6.05 -9.7 6.9 -9.6 9.0 -9.25" fill="#663333" fill-opacity="0.2" fill-rule="evenodd" stroke="none"/>
    <path d="M-19.25 -13.15 L-18.35 -13.2 -17.45 -13.25 -15.9 -13.35 -15.45 -13.6 -15.05 -13.8 -14.75 -13.85 -14.15 -13.85 -13.3 -13.45 -12.9 -12.95 -12.65 -12.5 -12.3 -11.7 -12.2 -11.3 -12.3 -10.95 -12.4 -10.6 -12.55 -10.2 -12.9 -9.9 -13.35 -9.6 -13.9 -9.45 -14.5 -9.45 -16.45 -9.35 -16.9 -9.05 -17.25 -8.75 -17.7 -8.45 -17.9 -8.15 -18.5 -7.45 -19.4 -6.55 -19.8 -6.2 -20.5 -5.95 -20.7 -5.65 -21.0 -5.3 -21.35 -5.0 -21.75 -4.8 -22.05 -4.8 -22.65 -4.8 -22.65 -4.75 -23.5 -5.15 -23.75 -5.6 -23.95 -6.05 -24.0 -6.4 -24.0 -6.8 -23.95 -7.2 -24.05 -7.55 -24.15 -8.0 -24.2 -8.4 -23.1 -9.75 -21.15 -11.6 -19.85 -12.85 -19.25 -13.15" fill="#663333" fill-opacity="0.2" fill-rule="evenodd" stroke="none"/>
    <path d="M21.25 -2.6 L21.7 -2.9 22.25 -3.2 23.35 -3.75 23.65 -3.9 24.7 -3.85 27.15 -3.45 28.1 -3.0 28.5 -2.55 28.95 -2.05 29.45 -1.55 29.9 -1.1 30.05 -0.65 30.1 -0.3 30.1 0.1 30.05 0.5 30.0 0.85 29.9 1.2 29.7 1.55 29.4 1.9 29.4 2.3 29.35 2.65 29.3 3.0 29.2 3.4 29.1 3.7 28.8 4.05 28.5 4.4 28.1 4.55 27.8 4.6 26.9 4.7 26.2 4.95 25.65 5.2 25.2 5.4 24.95 5.45 24.15 5.55 23.45 5.75 22.65 6.05 22.1 6.25 21.2 6.3 21.2 6.35 20.7 6.25 19.9 5.8 19.35 5.3 18.8 4.85 18.35 4.5 16.4 3.95 15.6 3.55 15.2 3.05 15.05 2.65 14.95 2.25 14.95 1.85 15.05 1.5 15.2 1.15 15.4 0.8 16.05 0.2 16.95 -0.4 17.5 -0.7 18.1 -0.95 19.55 -1.4 20.45 -2.05 21.25 -2.6" fill="#663333" fill-opacity="0.2" fill-rule="evenodd" stroke="none"/>
    <path d="M2.5 -6.6 L2.9 -6.25 3.15 -6.1 Q3.6 -5.85 4.1 -5.7 L6.0 -4.95 6.95 -4.55 7.35 -4.05 7.55 -3.75 Q11.0 -2.85 14.75 -2.15 L15.6 -2.0 16.55 -1.55 16.85 -1.2 17.45 -0.95 18.4 -0.5 18.8 -0.05 18.95 0.4 19.05 0.75 19.05 1.15 19.0 1.55 18.9 1.9 19.0 2.05 19.45 1.9 19.85 1.7 20.6 1.75 21.7 2.2 22.2 2.7 22.4 3.15 22.55 3.55 22.6 3.95 22.6 4.35 22.6 4.7 22.45 5.05 22.3 5.4 22.1 5.75 21.8 6.1 21.6 6.45 21.5 6.8 21.4 7.15 21.25 7.5 21.0 7.8 20.6 8.15 20.3 8.45 19.75 9.1 19.4 9.45 19.3 9.8 19.15 10.15 18.85 10.45 18.65 10.85 18.55 11.2 18.45 11.55 17.9 12.15 16.6 13.05 14.7 13.85 13.3 14.35 12.0 14.5 11.45 14.6 7.1 14.65 Q5.05 14.65 3.1 15.2 L2.6 15.3 1.85 15.25 1.8 15.3 0.85 15.1 0.0 14.65 -0.5 14.15 -0.8 13.75 -1.15 13.3 -2.1 12.35 -3.25 11.3 -3.55 10.85 -3.6 10.45 -3.75 10.05 -4.3 9.55 -4.7 9.1 -5.15 8.6 -5.7 8.1 -5.95 7.65 -6.25 7.2 -6.45 6.8 -7.15 6.55 -7.85 6.25 -8.55 5.85 -8.95 5.4 -9.25 4.95 -9.8 4.45 -10.35 3.95 -10.75 3.6 -11.4 3.5 -12.15 3.4 -13.6 3.15 -14.55 2.7 -14.95 2.25 -15.1 1.8 -15.2 1.4 -15.3 1.0 -15.3 0.65 -15.15 0.3 -14.9 -0.05 -14.7 -0.4 -14.5 -0.75 -14.4 -1.1 -14.2 -1.45 -13.9 -1.8 -13.7 -2.15 -13.6 -2.5 -13.4 -2.85 -13.2 -3.15 -12.9 -3.5 -12.8 -3.85 -12.6 -4.2 -12.3 -4.55 -12.15 -4.9 -12.0 -5.25 -11.7 -5.55 -11.5 -5.9 -11.2 -6.2 -10.6 -6.5 -9.6 -6.5 -8.1 -6.25 -6.2 -5.55 -5.65 -5.7 -5.2 -6.0 -4.75 -6.3 -4.3 -6.6 -3.9 -6.75 -3.6 -6.8 -2.7 -6.9 -2.5 -7.25 -2.15 -7.55 -1.75 -7.85 -1.15 -8.1 -0.75 -8.3 0.0 -8.25 0.7 -7.95 1.4 -7.6 1.95 -7.1 2.5 -6.6" fill="#663333" fill-opacity="0.2" fill-rule="evenodd" stroke="none"/>
    <path d="M-16.6 13.85 L-16.4 13.95 -15.9 14.1 -15.65 14.3 -15.55 14.5 -15.6 14.7 -15.85 14.85 -17.3 15.0 -17.7 15.1 -17.95 15.1 -22.45 14.55 -22.7 14.65 -22.8 14.65 -23.15 14.65 -23.7 14.55 -24.1 14.35 -24.4 14.25 -24.6 14.3 -24.8 14.4 -24.95 14.4 -25.25 14.4 -25.25 14.45 -25.65 14.2 -25.9 14.0 -25.95 13.8 -26.0 13.6 -26.0 13.4 -26.05 13.0 -26.1 12.6 -26.2 12.4 -26.4 12.15 -26.55 11.9 -26.6 11.7 -26.65 11.6 -26.7 11.55 -27.1 11.45 -27.7 11.35 -28.1 11.15 -28.3 10.9 -28.4 10.7 -28.55 10.5 -28.75 10.25 -28.8 10.1 -29.15 9.9 -29.45 9.65 -29.7 9.5 -30.8 9.2 -31.3 9.1 -31.7 8.9 -31.9 8.65 -32.05 8.45 -32.2 8.2 -32.2 8.0 -32.3 7.8 -32.45 7.55 -32.6 7.35 -32.6 7.15 -32.65 6.95 -32.65 6.75 -32.6 6.6 -32.5 6.4 -32.4 6.25 -32.25 6.05 -32.1 5.9 -31.8 5.8 -31.35 5.75 -30.9 5.95 -30.7 6.2 -30.55 6.45 -30.4 6.85 -30.35 7.05 -30.3 7.1 -28.8 7.4 -28.5 7.35 -28.1 7.4 -27.25 7.5 -26.7 7.4 -26.3 7.3 -26.1 7.2 -25.95 7.2 -25.55 7.2 -25.1 7.4 -24.95 7.6 -24.8 7.6 -24.35 7.7 -23.8 7.95 -23.55 8.2 -23.35 8.6 -23.0 9.25 -22.75 10.1 -22.7 10.25 -22.4 10.75 -22.15 11.35 -22.1 11.55 -22.1 11.75 -22.1 11.95 -22.15 12.1 -22.2 12.3 -22.25 12.5 -22.25 12.65 -22.2 12.9 -22.15 13.0 -21.6 13.15 -20.1 13.25 -17.65 13.75 -17.35 13.7 -17.1 13.7 -16.6 13.85" fill="#ffff99" fill-opacity="0.2" fill-rule="evenodd" stroke="none"/>
    <path d="M22.6 10.8 L22.3 10.9 21.7 10.95 Q21.7 11.25 22.4 11.65 L23.25 12.4 23.55 12.85 23.6 13.0 23.55 13.2 23.5 13.4 23.5 13.6 23.4 13.75 23.25 13.9 23.05 14.05 22.85 14.15 22.55 14.15 22.0 14.0 21.65 13.8 21.4 13.55 21.2 13.3 21.05 13.15 20.95 13.2 20.7 13.35 20.35 13.45 20.0 13.55 19.65 13.6 19.3 13.6 18.9 13.4 18.7 13.15 18.6 12.95 18.45 12.75 18.05 12.45 17.85 12.2 17.75 12.0 17.65 11.8 17.4 11.55 16.9 11.1 16.55 10.8 16.35 10.55 16.1 10.45 15.55 10.4 14.8 10.2 13.85 9.95 13.55 9.95 13.1 9.95 12.85 9.9 12.65 9.9 12.25 9.9 11.55 9.95 11.3 9.85 11.1 9.75 10.85 9.5 10.75 9.35 10.8 9.2 10.9 9.0 11.0 8.95 11.25 8.9 11.8 8.95 12.05 8.8 12.4 8.65 12.6 8.6 12.95 8.6 13.25 8.45 13.65 8.4 14.2 8.5 15.45 8.65 15.55 8.5 15.7 8.35 15.9 8.15 16.1 8.1 16.25 8.05 16.55 8.05 16.9 8.0 17.05 7.85 17.25 7.75 17.4 7.7 17.7 7.7 17.9 7.75 18.3 7.95 18.55 8.2 18.8 8.4 19.35 8.5 19.9 8.6 20.15 8.5 20.45 8.35 20.9 8.3 21.1 8.35 21.55 8.55 21.75 8.8 22.0 9.05 22.2 9.3 22.55 9.55 22.7 9.7 22.85 9.75 23.15 9.9 23.25 10.15 23.25 10.35 23.2 10.5 23.0 10.65 22.6 10.8" fill="#ffff99" fill-opacity="0.2" fill-rule="evenodd" stroke="none"/>
    <path d="M23.35 7.85 L24.85 7.8 25.85 7.7 26.05 7.6 26.25 7.5 26.5 7.45 26.9 7.4 27.25 7.3 27.45 7.2 27.6 7.2 28.0 7.2 28.45 7.4 28.65 7.65 28.75 7.85 28.75 8.05 28.8 8.25 28.8 8.45 28.8 8.65 28.75 8.8 28.65 9.0 28.55 9.15 28.4 9.35 28.1 9.45 27.6 9.5 27.25 9.5 26.9 9.6 26.65 9.75 26.45 9.8 25.9 9.85 24.55 10.0 24.15 10.0 23.45 10.0 22.9 10.15 Q22.35 10.25 21.85 10.5 L21.75 10.65 21.55 11.0 21.35 11.35 21.15 11.7 21.15 11.85 21.1 12.05 21.0 12.25 20.9 12.4 20.8 12.55 20.65 12.75 20.45 12.9 20.1 13.2 20.0 13.35 19.8 13.5 19.6 13.65 19.25 14.0 19.05 14.15 19.0 14.3 18.9 14.5 18.75 14.85 18.55 15.2 18.35 15.35 18.1 15.45 17.65 15.5 17.2 15.5 16.85 15.6 15.9 15.8 13.65 16.6 12.3 17.15 11.75 17.35 11.6 17.4 11.15 17.45 10.85 17.5 10.65 17.65 10.45 17.8 9.05 18.3 7.95 18.65 7.7 18.75 7.5 18.85 7.25 18.85 7.25 18.9 7.0 18.7 6.85 18.45 6.75 18.25 6.7 18.05 6.8 17.9 6.85 17.7 6.95 17.55 8.6 16.85 9.8 16.4 10.0 16.25 10.2 16.1 10.5 15.95 14.05 14.85 17.15 13.7 17.35 13.5 17.45 13.35 17.55 13.2 17.7 13.0 17.8 12.85 17.9 12.7 18.05 12.5 18.2 12.35 18.4 12.2 18.6 12.05 18.7 11.9 18.85 11.75 19.05 11.55 19.25 11.4 19.3 11.25 19.35 11.05 19.4 10.7 19.55 10.3 19.65 10.15 19.95 9.85 20.35 9.35 20.45 9.15 20.85 8.9 21.3 8.55 21.7 8.25 21.95 8.15 22.45 8.05 22.65 7.95 23.1 7.9 23.35 7.85" fill="#ffff99" fill-opacity="0.2" fill-rule="evenodd" stroke="none"/>
    <path d="M-8.9 11.9 L-8.25 11.45 -8.05 11.4 -7.65 11.4 -7.4 11.45 -6.9 11.5 -6.4 11.75 -6.0 12.0 -5.8 12.25 -5.4 12.65 -5.1 12.95 -4.95 13.15 -4.8 13.4 -4.65 13.6 -4.6 13.75 -4.55 13.8 -4.0 14.1 -3.4 14.4 -3.2 14.6 -3.1 14.85 -3.1 15.05 -3.05 15.2 -2.95 15.45 -2.85 15.65 -2.7 15.9 -2.7 16.05 -2.7 16.25 -2.7 16.45 -2.7 16.65 -2.6 16.7 -2.35 16.8 -0.25 17.2 -0.15 17.2 0.1 17.15 0.85 17.3 1.25 17.55 1.4 17.75 1.35 17.9 1.2 18.1 0.95 18.15 0.7 18.15 -0.15 18.15 -0.35 18.2 -3.35 17.8 -3.85 17.8 -4.2 17.6 -4.35 17.4 -4.4 17.2 -4.45 17.0 -4.45 16.85 Q-4.75 16.55 -5.1 16.4 L-5.45 16.25 -5.65 16.35 -5.9 16.5 -6.1 16.6 -6.4 16.6 -6.75 16.4 -6.9 16.15 -7.15 15.75 -7.45 15.3 -7.65 15.15 -8.2 15.05 -8.65 14.85 -8.85 14.6 -8.95 14.4 -9.05 14.2 -9.15 13.95 -9.15 13.75 -9.15 13.6 -9.1 13.4 -9.2 13.2 -9.2 13.0 -9.25 12.8 -9.25 12.6 -9.2 12.4 -9.15 12.25 -8.9 11.9" fill="#ffff99" fill-opacity="0.2" fill-rule="evenodd" stroke="none"/>
    <path d="M-6.55 -18.75 L-6.45 -18.55 -6.15 -18.3 -6.05 -18.05 -5.95 -17.85 -5.8 -17.7 -5.4 -17.7 -5.05 -17.75 -4.65 -17.5 -4.45 -17.3 -4.35 -17.05 -4.3 -16.85 -4.3 -16.7 -4.4 -16.5 -4.45 -16.35 -4.6 -16.15 -4.95 -15.85 -5.1 -15.7 Q-5.3 -15.55 -5.55 -15.45 L-5.65 -15.45 -6.15 -15.4 -7.55 -14.65 Q-8.45 -14.1 -9.45 -14.1 L-9.75 -13.95 -10.0 -13.8 -10.0 -13.6 -10.0 -13.45 -9.95 -13.25 -9.95 -13.05 -9.95 -12.85 -10.0 -12.45 -10.05 -12.1 -10.25 -11.55 -10.35 -11.4 -10.55 -11.25 Q-10.7 -11.15 -10.8 -11.1 L-11.15 -10.95 -12.0 -10.9 -12.75 -10.8 -12.8 -10.65 -12.75 -10.5 -12.5 -10.0 -12.4 -9.8 -12.4 -9.65 -12.35 -9.45 -12.4 -9.25 -12.45 -9.05 -12.45 -8.9 -12.6 -8.7 -12.75 -8.55 -12.9 -8.4 -13.1 -8.3 -14.2 -8.3 -15.2 -8.3 -15.4 -8.2 -15.55 -8.2 -15.95 -8.2 -16.3 -8.35 -16.55 -8.4 -16.65 -8.45 -16.95 -8.65 -17.05 -8.85 -17.15 -9.05 -17.15 -9.25 -17.1 -9.45 -17.05 -9.65 -16.95 -9.8 -16.55 -10.1 -16.3 -10.25 -15.85 -10.45 -15.45 -10.45 -15.05 -10.45 -14.95 -10.6 -14.95 -10.8 -14.9 -11.0 -14.9 -11.15 -14.85 -11.35 -14.9 -11.55 -15.0 -11.8 -15.1 -12.0 -15.1 -12.2 -15.15 -12.35 -15.1 -12.55 -15.0 -12.75 -14.85 -12.9 -14.7 -13.05 -14.4 -13.2 -13.95 -13.2 -13.4 -13.05 -13.0 -13.05 -13.0 -13.2 -12.95 -13.6 -12.95 -13.8 -12.9 -14.15 -12.9 -14.35 -12.8 -14.5 -12.75 -14.9 -12.8 -15.1 -12.8 -15.3 -12.7 -15.45 -12.5 -15.8 -12.4 -16.0 -12.3 -16.15 -12.15 -16.3 -12.05 -16.5 -12.0 -16.65 -11.9 -16.85 -11.8 -17.0 -11.65 -17.15 Q-11.1 -17.4 -10.65 -17.75 L-9.5 -18.45 -9.25 -18.6 -8.9 -18.7 -8.15 -18.95 -8.05 -19.1 -7.9 -19.25 -7.7 -19.35 -7.55 -19.4 -7.25 -19.4 -6.8 -19.2 -6.6 -18.95 -6.55 -18.75" fill="#ffff99" fill-opacity="0.2" fill-rule="evenodd" stroke="none"/>
    <path d="M0.95 -13.15 L1.0 -13.05 1.0 -12.95 1.0 -12.85 0.95 -12.8 0.95 -12.7 0.9 -12.6 0.85 -12.5 0.75 -12.45 0.7 -12.35 0.7 -12.25 0.65 -12.15 0.65 -12.1 0.6 -12.0 0.55 -11.9 0.45 -11.9 0.35 -11.85 0.2 -11.95 0.15 -12.05 0.15 -12.15 0.15 -12.25 0.2 -12.35 0.2 -12.5 0.25 -12.6 0.3 -12.7 0.35 -12.8 0.2 -12.7 0.1 -12.65 -0.25 -12.6 -0.35 -12.6 -0.5 -12.65 -0.55 -12.65 -0.45 -12.7 -0.35 -12.75 -0.2 -12.75 0.0 -12.75 0.4 -12.95 0.5 -13.0 0.5 -13.05 0.5 -13.15 0.6 -13.2 0.65 -13.25 0.65 -13.3 0.9 -13.25 0.95 -13.15 M2.65 -14.15 L3.05 -13.3 3.05 -12.5 3.4 -12.15 Q3.6 -11.9 3.85 -12.5 L4.9 -12.55 7.7 -12.1 10.35 -11.5 Q11.4 -11.15 11.85 -10.1 L12.65 -9.05 22.85 -8.75 23.2 -8.5 23.85 -7.9 Q25.05 -7.15 26.5 -6.9 27.95 -6.95 29.2 -6.1 L31.4 -5.3 33.15 -2.35 32.35 0.55 31.6 2.25 31.7 2.5 31.8 2.65 31.85 2.75 31.85 2.85 31.85 2.95 32.25 4.1 32.0 5.8 30.35 7.2 29.65 9.35 29.3 9.65 29.15 10.2 Q28.5 10.8 27.6 10.6 25.2 10.6 22.95 11.3 L22.4 12.65 22.0 13.3 Q21.15 14.6 20.0 15.15 L18.35 16.05 15.1 17.15 13.15 17.55 Q10.25 18.25 7.85 19.75 L7.35 19.75 6.5 19.65 3.0 19.2 0.0 19.25 -1.8 18.95 -3.5 18.45 -4.05 18.25 Q-5.15 17.9 -5.85 17.2 L-7.6 16.6 -8.6 14.95 -9.9 14.65 -12.4 16.0 -21.75 15.4 -24.1 15.15 Q-26.55 14.55 -27.7 12.25 -28.15 11.3 -28.95 10.7 L-29.2 10.15 -30.55 9.35 -32.5 7.65 Q-33.5 6.4 -33.05 5.1 L-32.45 4.45 -32.5 3.5 -32.25 2.9 -32.45 2.5 Q-32.75 2.1 -32.55 1.85 L-32.5 1.7 Q-32.8 0.4 -32.45 -1.0 -31.3 -1.65 -30.25 -2.65 -28.75 -4.1 -26.8 -5.0 L-26.15 -5.85 -26.4 -6.4 -26.15 -7.15 -26.0 -7.3 -25.5 -7.8 Q-24.1 -10.25 -23.0 -12.85 L-21.85 -14.35 -19.0 -17.0 -18.3 -16.7 -17.8 -16.95 -11.35 -17.65 -8.75 -19.2 -7.35 -19.2 -6.4 -19.75 -0.35 -16.95 2.65 -14.15 M7.85 -9.3 L7.75 -9.1 7.6 -8.95 7.35 -8.7 7.05 -8.5 6.85 -8.5 6.85 -8.45 6.7 -8.55 6.65 -8.65 6.6 -8.8 6.6 -8.85 6.7 -9.05 6.9 -9.2 7.15 -9.35 7.25 -9.4 7.35 -9.45 7.55 -9.55 7.65 -9.6 7.75 -9.7 7.9 -9.7 8.0 -9.6 8.05 -9.55 8.0 -9.45 7.95 -9.35 7.85 -9.3 M5.2 -9.4 L5.3 -9.15 5.5 -8.85 5.55 -8.75 5.7 -8.6 5.85 -8.5 6.1 -8.1 6.4 -7.8 6.8 -7.3 6.95 -7.2 7.0 -7.1 7.05 -7.0 7.05 -6.9 6.95 -6.8 6.9 -6.75 6.85 -6.75 6.75 -6.75 6.3 -7.1 5.9 -7.45 5.6 -7.65 5.5 -7.8 5.4 -7.9 5.25 -8.0 5.2 -8.0 5.05 -8.1 4.85 -8.35 4.7 -8.55 4.5 -8.8 4.3 -9.1 4.2 -9.2 4.1 -9.25 3.9 -9.35 3.65 -9.5 3.35 -9.5 2.65 -9.7 2.3 -9.7 2.05 -9.7 1.05 -9.8 0.85 -9.75 0.55 -9.7 0.35 -9.7 -0.1 -9.8 -0.3 -9.9 -0.45 -10.05 -0.5 -10.15 -0.55 -10.25 -0.55 -10.35 -0.55 -10.45 -0.55 -10.55 -0.5 -10.6 -0.45 -10.7 -0.4 -10.8 -0.3 -10.85 -0.05 -10.95 0.4 -11.0 0.95 -11.0 2.15 -10.8 2.25 -10.8 2.45 -10.8 2.7 -10.8 3.3 -10.65 3.95 -10.55 4.1 -10.45 4.2 -10.45 4.4 -10.3 4.5 -10.2 4.65 -10.05 4.8 -9.95 4.95 -9.8 5.1 -9.6 5.2 -9.4 M6.05 -9.6 L6.2 -9.65 6.35 -9.55 6.45 -9.4 6.4 -9.3 6.4 -9.25 6.35 -9.05 6.3 -8.85 6.25 -8.8 6.2 -8.7 6.05 -8.7 6.0 -8.65 5.9 -8.75 5.75 -8.9 5.7 -9.0 5.7 -9.1 5.75 -9.15 5.8 -9.25 5.85 -9.35 5.9 -9.45 6.0 -9.5 6.05 -9.6 M9.3 -8.9 L9.35 -8.8 9.35 -8.7 9.25 -8.6 9.2 -8.55 9.1 -8.45 9.05 -8.35 9.0 -8.3 8.95 -8.2 8.9 -8.1 8.85 -8.0 8.8 -7.95 8.7 -7.85 8.6 -7.8 8.55 -7.7 8.5 -7.6 8.5 -7.5 8.4 -7.35 8.35 -7.3 8.25 -7.3 8.15 -7.3 8.15 -7.25 8.0 -7.35 7.95 -7.45 7.9 -7.55 7.95 -7.65 7.95 -7.75 8.0 -7.85 8.05 -8.05 8.1 -8.1 8.15 -8.2 8.3 -8.25 8.4 -8.35 8.45 -8.45 8.5 -8.5 8.55 -8.6 8.75 -8.75 8.95 -8.9 9.0 -8.95 9.05 -8.95 9.15 -9.0 9.3 -8.9 M10.05 -7.15 L10.15 -7.2 10.3 -7.1 10.3 -7.0 10.25 -6.95 10.2 -6.85 10.15 -6.75 10.05 -6.7 9.9 -6.6 9.7 -6.45 9.6 -6.45 9.55 -6.45 9.45 -6.45 9.35 -6.6 9.2 -6.7 9.15 -6.8 9.2 -6.9 9.3 -6.95 9.5 -6.85 9.6 -6.85 9.75 -6.95 9.9 -7.0 9.95 -7.1 10.05 -7.15 M9.9 -9.65 L6.6 -10.2 Q4.95 -10.15 3.7 -10.8 L2.8 -11.25 1.95 -12.35 1.7 -13.2 Q0.45 -14.05 -0.7 -15.1 -2.9 -17.1 -5.85 -17.3 L-6.5 -17.7 Q-8.2 -18.05 -9.5 -17.05 L-9.85 -16.75 Q-10.35 -16.1 -11.05 -15.85 L-11.1 -15.75 -11.15 -15.65 -11.2 -15.6 -11.2 -15.55 -11.25 -15.45 -11.3 -15.4 -11.35 -15.3 -11.35 -15.15 -11.4 -14.85 -11.4 -14.65 -11.4 -14.55 -11.35 -14.45 -11.35 -14.35 -11.35 -14.25 -11.4 -14.1 -11.45 -13.9 -11.5 -13.8 -11.55 -13.75 -11.65 -13.65 -11.75 -13.6 -11.9 -13.5 -12.15 -13.45 -12.35 -13.4 -12.5 -13.35 -12.7 -13.35 -12.85 -13.35 -13.0 -13.35 -13.2 -13.45 -13.3 -13.55 -13.35 -13.65 -13.35 -13.75 -13.35 -13.85 -13.35 -13.95 -13.3 -14.05 -13.2 -14.1 -13.15 -14.2 -12.95 -14.25 -12.45 -14.3 -12.25 -14.35 -12.3 -14.45 -12.3 -14.55 -12.3 -14.6 -12.25 -14.7 -12.25 -14.8 -12.25 -14.9 -12.2 -15.0 -14.15 -15.3 -14.9 -15.45 -15.0 -15.35 -15.1 -15.3 -15.35 -15.15 -15.45 -15.1 -15.6 -15.1 -15.75 -15.0 -16.0 -14.9 -16.15 -14.8 -16.3 -14.75 -16.5 -14.7 -16.6 -14.6 -16.65 -14.55 -16.75 -14.45 -17.0 -14.45 -17.2 -14.4 -17.3 -14.35 -17.35 -14.35 -17.5 -14.35 -17.55 -14.35 -17.95 -14.45 -18.15 -14.55 -18.2 -14.65 -18.25 -14.65 Q-18.55 -14.7 -18.75 -14.9 L-19.0 -15.0 -19.4 -15.15 -20.05 -14.65 Q-21.8 -12.65 -22.7 -10.2 L-23.5 -8.45 -24.4 -6.55 -21.1 -6.85 Q-20.9 -7.05 -20.85 -7.35 -20.8 -7.85 -20.1 -8.3 L-18.6 -9.05 -16.55 -10.2 -15.35 -10.8 -14.8 -9.6 -18.6 -7.8 -18.85 -7.15 -19.4 -5.5 Q-19.5 -5.0 -19.9 -4.85 L-24.0 -4.05 -24.8 -3.85 -27.05 -2.65 Q-29.25 -1.3 -31.1 0.8 L-31.1 3.3 -30.65 4.05 -31.05 5.7 -31.5 6.35 -30.55 7.25 -29.15 8.15 Q-27.85 8.65 -27.6 9.8 L-27.2 10.15 Q-26.6 12.4 -24.7 13.9 L-12.8 14.5 -11.8 14.25 -11.05 13.95 -10.2 13.45 -9.25 12.75 -8.85 12.25 -8.75 12.15 -8.6 12.0 -8.45 11.85 -8.35 11.8 -8.4 11.7 -8.45 11.55 -8.45 11.45 -8.5 11.35 -8.5 11.25 -8.5 11.2 -8.45 11.1 -8.55 10.9 -8.65 10.55 -8.75 10.35 -8.8 10.25 -8.9 10.05 -9.05 9.8 -9.1 9.7 -9.1 9.6 -9.1 9.5 -9.1 9.3 -9.05 9.25 -9.0 9.15 -8.95 9.05 -8.85 9.0 -8.8 8.95 -8.85 8.85 -8.8 8.75 -8.8 8.7 -8.75 8.6 -8.75 8.5 -8.7 8.4 -8.6 8.35 -8.5 8.25 -8.45 8.15 -8.4 8.1 -8.4 8.0 -8.35 7.9 -8.25 7.85 -8.15 7.75 -8.15 7.65 -8.05 7.6 -7.85 7.45 -7.8 7.4 -7.75 7.35 -7.6 7.35 -7.4 7.45 -7.35 7.55 -7.3 7.65 -7.35 7.75 -7.35 7.85 -7.35 7.95 -7.45 8.0 -7.6 8.2 -7.8 8.35 -7.9 8.5 -8.15 8.75 -8.25 8.95 -8.2 9.0 -8.1 9.1 -7.95 9.35 -7.85 9.55 -7.8 9.65 -7.8 9.75 -7.8 9.85 -7.65 10.25 -7.55 10.65 -7.45 10.95 -7.45 11.05 -7.45 11.15 -7.45 11.25 -7.35 11.5 -7.3 11.6 -7.3 11.65 -7.35 11.85 -7.4 12.05 -7.5 12.2 -7.8 12.55 -8.15 12.85 -8.4 13.1 -9.2 13.7 -8.45 13.85 -7.3 15.5 -6.0 15.6 Q-5.55 15.75 -5.15 16.05 -3.65 17.2 -1.75 17.5 3.0 17.55 7.5 18.65 L8.75 18.2 Q9.05 17.95 9.6 17.75 L11.5 17.05 16.15 15.5 16.55 15.05 17.3 15.1 20.8 12.9 21.55 10.95 Q22.45 10.25 23.4 10.0 L25.9 9.4 Q27.0 9.65 27.85 9.1 L28.7 7.75 29.0 5.9 29.5 5.5 Q30.45 5.0 30.45 4.3 L29.85 2.8 29.65 2.7 29.55 2.6 29.5 2.45 29.45 2.4 29.4 2.35 29.2 2.25 29.1 2.15 29.05 2.05 28.95 1.9 28.85 1.8 28.75 1.65 28.7 1.55 28.7 1.45 28.7 1.4 28.6 1.25 28.5 1.15 28.4 1.05 28.4 0.95 28.4 0.85 28.35 0.75 28.35 0.65 28.4 0.55 28.5 0.4 28.75 0.15 28.95 0.0 29.4 -0.2 29.45 -0.3 29.5 -0.4 29.6 -0.45 29.8 -0.5 29.9 -0.6 30.1 -0.65 30.25 -0.7 30.4 -0.75 30.5 -0.85 30.65 -0.9 30.75 -1.0 30.8 -1.05 30.9 -1.05 31.0 -1.1 31.05 -1.2 31.05 -1.3 31.1 -1.35 31.1 -1.45 31.1 -1.55 31.1 -1.65 31.05 -1.75 31.05 -1.85 31.05 -1.95 31.1 -2.05 31.1 -2.15 31.15 -2.2 31.15 -2.3 31.25 -2.4 31.3 -2.45 30.15 -4.6 27.25 -5.45 29.2 -3.7 28.9 -2.0 28.0 -2.2 28.25 -3.5 27.8 -4.35 24.9 -6.15 Q23.3 -7.25 21.3 -7.15 L17.8 -7.4 Q15.3 -7.1 12.95 -7.5 12.5 -7.55 12.2 -7.75 10.9 -8.55 9.9 -9.65 M8.55 -5.05 L8.45 -5.0 8.35 -5.0 8.3 -5.05 8.25 -5.15 8.3 -5.2 8.45 -5.3 8.55 -5.25 8.55 -5.15 8.55 -5.05 M18.9 -0.15 L19.5 -0.7 20.7 -1.4 25.1 -2.1 25.25 -1.35 21.1 -0.3 19.8 0.8 Q19.3 0.9 19.05 0.6 L18.85 0.2 18.9 -0.15 M28.35 2.65 L28.4 2.75 28.4 2.85 28.35 2.95 28.3 3.05 28.3 3.15 28.25 3.2 28.2 3.3 28.1 3.4 28.05 3.45 28.05 3.55 27.95 3.65 27.75 3.7 27.6 3.7 27.5 3.7 27.5 3.75 27.35 3.6 27.35 3.55 27.45 3.4 27.6 3.2 27.8 3.05 27.85 3.0 27.9 2.9 27.9 2.8 27.95 2.7 28.0 2.6 28.1 2.55 28.3 2.55 28.35 2.65 M27.2 1.2 L27.2 1.25 27.15 1.35 27.15 1.55 27.1 1.75 27.1 1.85 26.95 2.25 26.6 2.8 26.4 3.3 26.15 3.65 25.85 4.0 25.45 4.1 25.4 3.95 25.35 3.85 25.4 3.8 25.55 3.6 25.7 3.45 25.85 3.3 26.05 2.75 26.4 2.15 26.65 1.65 26.7 1.55 26.7 1.45 26.75 1.35 26.8 1.3 27.0 1.25 27.1 1.2 27.2 1.2 M25.6 0.85 L25.6 1.2 25.5 1.7 25.4 1.95 25.4 2.05 25.35 2.1 25.3 2.1 25.2 2.1 25.15 2.1 25.05 2.0 25.1 1.7 25.1 1.4 25.2 1.15 25.25 1.05 25.3 0.95 25.5 0.9 25.6 0.85 M21.0 9.4 L20.65 9.45 18.75 9.1 Q17.75 8.8 17.2 7.85 L10.65 9.55 10.05 9.15 Q10.2 8.5 10.9 8.2 13.5 7.0 16.1 6.55 L16.15 6.4 Q16.2 4.9 17.3 4.55 L17.9 5.2 18.45 7.8 Q19.15 8.3 20.05 8.6 20.95 8.9 21.0 9.4 M18.85 2.3 L18.75 2.4 18.55 2.45 18.4 2.5 18.3 2.5 18.2 2.5 18.05 2.45 18.05 2.5 17.85 2.4 17.8 2.25 17.75 2.15 17.75 2.1 17.8 2.0 17.85 1.9 17.9 1.85 18.05 1.8 18.15 1.9 18.2 1.9 18.3 1.95 18.45 1.95 18.55 1.95 18.65 1.95 18.8 2.05 18.85 2.15 18.85 2.25 18.85 2.3 M-20.65 -3.1 L-20.6 -3.0 -20.55 -2.95 -20.55 -2.85 -20.55 -2.8 -20.4 -2.75 -20.35 -2.65 -20.3 -2.6 -20.25 -2.4 -20.2 -2.2 -20.1 -2.15 -20.1 -2.05 -20.1 -1.95 -20.1 -1.9 -20.05 -1.8 -20.05 -1.75 -19.95 -1.15 -19.85 -0.65 -19.8 -0.15 -19.75 -0.1 -19.75 0.0 -19.75 0.1 -19.7 0.15 -19.7 0.3 -19.7 0.5 -19.75 0.65 -19.8 0.75 -19.9 0.8 -19.95 0.8 -20.05 0.8 -20.1 0.7 -20.15 0.6 -20.15 0.5 -20.15 0.45 -20.15 0.35 -20.15 0.3 -20.2 0.2 -20.25 0.05 -20.3 -0.05 -20.3 -0.15 -20.35 -0.2 -20.4 -0.8 -20.5 -1.45 -20.6 -1.95 -20.65 -2.0 -20.65 -2.1 -20.6 -2.2 -20.65 -2.25 -20.75 -2.4 -20.8 -2.6 -20.8 -2.65 -20.75 -2.75 -20.75 -2.8 -20.75 -2.9 -20.8 -3.0 -20.8 -3.05 -20.75 -3.1 -20.65 -3.1 M-21.4 -1.75 L-21.4 -1.7 -21.4 -1.6 -21.35 -1.45 -21.3 -1.3 -21.3 -1.2 -21.35 -1.05 -21.4 -0.95 -21.4 -0.85 -21.5 -0.8 -21.55 -0.75 -21.6 -0.8 -21.7 -0.8 -21.75 -0.9 -21.75 -0.95 -21.75 -1.05 -21.75 -1.15 -21.7 -1.2 -21.7 -1.25 -21.75 -1.35 -21.75 -1.45 -21.8 -1.55 -21.8 -1.65 -21.8 -1.75 -21.85 -1.8 -21.9 -1.95 -21.95 -2.0 -21.9 -2.05 -21.75 -2.1 -21.6 -2.0 -21.55 -1.95 -21.45 -1.85 -21.4 -1.75 M-2.6 -14.1 L-2.55 -14.2 -2.55 -14.25 -2.45 -14.35 -2.3 -14.5 -2.1 -14.65 -1.95 -14.65 -1.95 -14.55 -1.95 -14.45 -2.0 -14.35 -2.0 -14.25 -2.05 -14.15 -2.1 -14.1 -2.15 -14.0 -2.2 -13.9 -2.25 -13.85 -2.45 -13.8 -2.55 -13.9 -2.6 -14.0 -2.6 -14.1 M-0.2 -14.15 L-0.2 -14.05 -0.2 -13.95 -0.25 -13.85 -0.3 -13.8 -0.3 -13.7 -0.3 -13.6 -0.35 -13.5 -0.45 -13.4 -0.5 -13.35 -0.55 -13.25 -0.55 -13.15 -0.6 -13.05 -0.6 -12.8 -0.75 -12.45 -0.85 -12.05 -0.9 -12.0 -0.95 -11.9 -1.0 -11.8 -1.05 -11.75 -1.1 -11.65 -1.15 -11.55 -1.2 -11.5 -1.35 -11.5 -1.45 -11.5 -1.55 -11.5 -1.6 -11.5 -1.7 -11.55 -1.75 -11.65 -1.7 -11.7 -1.6 -11.8 -1.5 -11.9 -1.5 -11.95 -1.45 -12.05 -1.4 -12.15 -1.3 -12.25 -1.3 -12.3 -1.3 -12.4 -1.25 -12.5 -1.25 -12.6 -1.25 -12.8 -1.15 -12.95 -1.1 -13.15 -1.0 -13.4 -0.95 -13.6 -0.8 -13.75 -0.65 -13.9 -0.5 -14.1 -0.45 -14.15 -0.2 -14.15 M-15.9 -3.4 L-15.85 -3.45 -15.8 -3.55 -15.7 -3.65 -15.55 -3.6 -15.5 -3.5 -15.5 -3.4 -15.4 -3.3 -15.45 -3.1 -15.5 -2.85 -15.55 -2.55 -15.65 -2.2 -15.7 -2.1 -15.75 -2.0 -15.85 -1.95 -15.95 -1.85 -16.05 -1.7 -16.15 -1.65 -16.25 -1.65 -16.5 -1.7 -16.55 -1.8 -16.65 -1.95 -16.65 -2.05 -16.4 -2.1 -16.35 -2.15 -16.25 -2.2 -16.2 -2.3 -16.15 -2.4 -16.1 -2.55 -16.0 -2.85 -16.0 -3.0 -15.95 -3.3 -15.9 -3.4 M-18.95 -1.65 L-18.9 -1.55 -18.95 -1.5 -18.95 -1.45 -18.95 -1.35 -18.95 -1.3 -18.9 -1.15 -18.95 -1.05 -19.0 -0.95 -19.05 -0.9 -19.0 -0.8 -19.0 -0.7 -19.1 -0.7 -19.2 -0.75 -19.25 -0.85 -19.25 -0.95 -19.25 -1.0 -19.2 -1.1 -19.25 -1.15 -19.3 -1.25 -19.3 -1.35 -19.3 -1.4 -19.3 -1.5 -19.25 -1.55 -19.3 -1.65 -19.3 -1.75 -19.3 -1.8 -19.3 -1.9 -19.35 -1.95 -19.35 -2.0 -19.25 -2.05 -19.1 -2.0 -19.05 -1.95 -19.0 -1.8 -18.95 -1.75 -18.95 -1.65 M-15.6 -0.6 L-15.5 -0.95 -15.35 -1.3 -15.15 -1.65 -15.05 -2.2 -14.95 -2.75 -14.85 -3.2 -14.8 -3.3 -14.75 -3.35 -14.7 -3.45 -14.65 -3.55 -14.6 -3.65 -14.55 -3.7 -14.5 -3.7 -14.3 -3.7 -14.15 -3.75 -14.15 -3.65 -14.2 -3.6 -14.2 -3.5 -14.2 -3.4 -14.4 -2.75 -14.5 -2.0 -14.65 -1.35 -14.9 -0.85 -15.2 -0.25 -15.35 0.2 -15.45 0.3 -15.5 0.4 -15.55 0.45 -15.6 0.55 -15.65 0.65 -15.75 0.7 -15.9 0.7 -15.95 0.7 -16.0 0.6 -16.05 0.5 -16.0 0.1 -15.8 -0.25 -15.6 -0.6 M-13.0 -2.5 L-13.0 -2.4 -13.0 -2.3 -13.0 -2.2 -13.05 -2.15 -13.1 -2.05 -13.15 -1.85 -13.2 -1.6 -13.3 -1.2 -13.35 -1.15 -13.35 -1.05 -13.45 -0.95 -13.6 -0.95 -13.65 -0.95 -13.75 -1.05 -13.8 -1.15 -13.8 -1.4 -13.75 -1.8 -13.65 -2.15 -13.65 -2.25 -13.55 -2.35 -13.45 -2.5 -13.35 -2.55 -13.15 -2.6 -13.0 -2.5 M-2.0 -10.65 L-1.8 -10.65 -1.2 -10.5 -1.1 -10.5 -0.95 -10.4 -0.9 -10.3 -0.9 -10.2 -0.95 -10.15 -1.05 -10.05 -1.15 -10.0 -1.3 -10.0 -1.4 -10.0 -1.55 -10.0 -1.9 -10.1 -2.1 -10.1 -2.2 -10.05 -2.25 -10.05 -2.35 -10.05 -2.4 -10.1 -2.45 -10.2 -2.4 -10.3 -2.4 -10.35 -2.35 -10.45 -2.3 -10.55 -2.25 -10.6 -2.2 -10.6 -2.0 -10.65 M-8.0 4.35 L-8.0 4.25 -7.95 4.15 -7.85 4.05 -7.8 4.0 -7.75 4.0 -7.6 4.0 -7.4 4.1 -7.35 4.2 -7.3 4.3 -7.3 4.4 -7.25 4.5 -7.0 4.85 -6.75 5.3 -6.7 5.4 -6.7 5.5 -6.75 5.6 -6.75 5.65 -6.75 5.75 -6.75 5.85 -6.75 6.05 -6.85 6.3 -6.95 6.6 -6.95 6.7 -7.05 6.7 -7.15 6.75 -7.3 6.65 -7.3 6.55 -7.35 6.45 -7.35 6.35 -7.35 6.25 -7.35 6.15 -7.3 6.05 -7.25 6.0 -7.25 5.9 -7.25 5.8 -7.3 5.7 -7.3 5.6 -7.3 5.5 -7.35 5.4 -7.5 5.3 -7.55 5.25 -7.75 5.15 -7.85 5.05 -7.95 4.9 -7.95 4.7 -8.0 4.5 -8.0 4.35" fill="#333333" fill-rule="evenodd" stroke="none"/>
    <path d="M-23.55 -7.8 L-22.25 -7.7 -22.05 -7.75 -21.65 -7.75 -21.5 -7.9 -21.35 -8.1 -21.3 -8.25 -21.25 -8.45 -21.2 -8.6 -21.05 -8.8 -20.9 -8.95 -20.6 -9.05 -20.45 -9.25 -20.2 -9.35 -19.85 -9.4 -19.2 -9.45 -18.6 -9.5 -18.35 -9.6 -17.9 -9.75 -17.6 -9.65 -17.45 -9.45 -17.55 -9.3 -17.65 -9.1 -17.95 -8.95 -18.15 -8.8 -18.35 -8.65 -18.5 -8.6 -18.75 -8.55 -19.15 -8.5 -19.4 -8.35 -19.65 -8.25 -19.85 -8.1 -19.95 -7.9 -20.0 -7.75 -20.05 -7.55 -20.1 -7.35 -20.1 -7.15 -20.1 -7.0 -20.05 -6.75 -20.05 -6.6 -20.1 -6.4 -20.2 -6.25 -20.3 -6.05 -20.5 -5.9 -20.6 -5.75 -20.65 -5.55 -20.8 -5.4 -21.2 -5.1 -21.35 -5.0 -21.45 -5.0 -22.3 -5.05 -23.05 -5.15 -23.25 -5.05 -23.55 -5.1 -24.55 -5.2 -24.95 -5.4 -25.1 -5.65 -25.2 -5.85 -25.2 -6.05 -25.25 -6.25 -25.2 -6.45 -25.15 -6.6 -25.05 -6.8 -24.9 -6.95 -24.8 -7.1 -24.7 -7.3 -24.55 -7.45 -24.3 -7.6 -23.9 -7.7 -23.7 -7.8 -23.55 -7.8" fill="#333333" fill-rule="evenodd" stroke="none"/>
    <path d="M28.0 -3.95 L28.15 -3.95 28.5 -3.95 28.9 -3.75 29.05 -3.5 29.2 -3.3 29.35 -3.1 29.45 -2.85 29.5 -2.65 29.45 -2.45 29.5 -2.35 29.75 -2.05 30.0 -1.85 30.25 -1.95 30.55 -1.9 30.8 -1.85 31.1 -1.75 31.5 -1.55 31.65 -1.3 31.7 -1.1 31.7 -0.9 31.65 -0.75 31.55 -0.55 31.4 -0.4 31.15 -0.25 30.85 -0.15 30.7 0.0 30.6 0.2 30.55 0.4 30.4 0.55 30.25 0.7 29.8 0.7 29.75 0.75 29.6 0.7 29.1 0.6 28.85 0.55 28.5 0.35 28.3 0.1 27.95 -0.15 27.7 -0.4 27.65 -0.6 27.6 -0.8 27.6 -1.0 27.65 -1.2 27.75 -1.35 27.8 -1.55 27.8 -1.75 27.8 -1.9 27.8 -2.1 27.85 -2.3 27.85 -2.5 27.8 -2.7 27.7 -2.9 27.65 -3.1 27.6 -3.3 27.65 -3.5 27.75 -3.65 27.85 -3.8 28.0 -3.95" fill="#333333" fill-rule="evenodd" stroke="none"/>
    <path d="M-15.65 11.05 L-15.35 11.05 -15.1 10.9 -14.8 10.8 -14.5 10.7 -13.8 10.7 -13.5 10.6 -13.25 10.45 -12.9 10.35 -12.75 10.15 -12.65 10.0 -12.6 9.8 -12.5 9.65 -12.45 9.45 -12.45 9.25 -12.45 9.1 -12.4 8.9 -12.35 8.7 -12.25 8.55 -12.1 8.4 -11.8 8.05 -11.7 7.9 -11.5 7.7 -11.35 7.55 -11.05 7.5 -10.75 7.7 -10.7 7.9 -10.7 8.1 -10.75 8.3 -10.8 8.45 -10.95 8.65 -11.05 8.8 -11.1 8.95 -11.15 9.15 -11.35 9.3 -11.45 9.65 -11.55 10.05 -11.6 10.2 -11.65 10.4 -11.75 10.55 -11.9 10.75 -12.0 10.9 -12.1 11.05 -12.3 11.2 -12.6 11.3 -12.65 11.35 -12.9 11.35 -13.2 11.3 -13.45 11.35 -13.95 11.45 -14.15 11.5 -14.7 11.45 -15.05 11.55 -15.3 11.65 -15.45 11.65 -15.85 11.6 -16.1 11.6 -16.2 11.55 -16.3 11.55 -16.25 11.4 -16.05 11.2 -15.8 11.1 -15.65 11.05" fill="#333333" fill-rule="evenodd" stroke="none"/>
    <path d="M8.85 -11.75 L9.3 -11.5 10.3 -10.9 10.85 -10.5 11.9 -9.45 12.0 -9.2 12.2 -9.0 12.3 -8.85 12.35 -8.8 12.6 -8.65 13.0 -8.45 13.2 -8.2 13.5 -8.15 13.95 -8.2 15.1 -8.0 17.25 -8.35 18.15 -8.55 18.4 -8.55 18.65 -8.55 19.05 -8.6 19.35 -8.75 19.8 -8.75 20.3 -8.8 20.75 -8.85 Q22.1 -8.85 23.05 -8.1 L24.05 -7.45 24.2 -7.2 24.5 -6.95 24.75 -6.75 25.15 -6.45 25.25 -6.25 25.35 -6.0 25.6 -6.0 26.65 -5.8 27.05 -5.85 27.4 -5.85 27.75 -5.8 27.85 -5.8 28.15 -5.8 28.7 -5.8 29.1 -5.55 29.15 -5.45 29.5 -5.3 29.8 -5.1 29.85 -4.9 29.85 -4.7 29.75 -4.55 29.6 -4.5 29.1 -4.4 28.9 -4.35 28.7 -4.25 28.65 -4.2 25.55 -4.3 Q24.8 -4.4 24.25 -4.85 L24.05 -5.1 23.85 -5.3 23.6 -5.75 23.25 -6.0 23.1 -6.15 22.85 -6.3 22.5 -6.4 17.35 -6.3 13.85 -6.35 13.45 -6.35 13.15 -6.4 13.15 -6.35 12.7 -6.45 12.35 -6.65 12.2 -6.8 12.15 -6.85 11.8 -7.0 11.65 -7.15 11.35 -7.4 10.9 -7.7 10.7 -7.95 10.55 -8.2 10.45 -8.4 10.15 -8.65 9.95 -8.9 9.85 -9.05 9.5 -9.3 9.3 -9.5 9.1 -9.75 8.6 -10.05 8.2 -10.35 8.0 -10.55 7.8 -10.8 7.6 -11.0 7.55 -11.25 7.5 -11.45 7.6 -11.6 7.75 -11.75 7.95 -11.85 8.2 -11.85 8.4 -11.75 8.55 -11.75 8.85 -11.75" fill="#333333" fill-rule="evenodd" stroke="none"/>
    <path d="M4.2 -11.15 L4.05 -10.25 Q2.6 -9.1 0.75 -10.1 L-0.2 -10.15 Q-1.7 -10.1 -2.9 -9.2 L-5.45 -9.4 -6.2 -9.7 Q-6.7 -9.7 -6.6 -10.15 L-5.95 -10.35 -5.6 -10.65 -5.0 -10.75 -3.45 -11.15 Q-2.65 -11.3 -2.1 -11.7 -1.2 -12.45 0.0 -12.35 2.35 -12.6 4.2 -11.15" fill="#333333" fill-rule="evenodd" stroke="none"/>
    <path d="M0.3 -14.95 L1.55 -14.3 2.0 -13.5 Q1.65 -13.1 1.2 -13.2 0.1 -13.55 -0.8 -14.2 -1.65 -14.85 -2.55 -15.2 -4.7 -15.95 -6.65 -17.3 L-8.65 -16.5 -10.35 -15.7 -11.65 -14.75 Q-11.6 -14.2 -11.9 -13.65 -12.15 -13.1 -12.5 -12.9 -13.35 -12.6 -14.05 -12.1 L-14.4 -12.15 -14.4 -12.1 -14.9 -12.45 Q-15.6 -12.4 -15.6 -12.95 L-14.8 -13.25 -13.6 -14.35 -12.8 -16.5 -11.85 -17.1 -11.55 -17.2 -10.0 -18.05 -7.45 -19.05 Q-6.6 -19.4 -5.75 -19.05 L-4.4 -18.05 -3.6 -17.5 -3.05 -17.3 Q-1.05 -16.7 0.3 -14.95" fill="#333333" fill-rule="evenodd" stroke="none"/>
  </g>
</svg>
