<?xml version="1.0" encoding="UTF-8" standalone="no"?>
<svg xmlns:xlink="http://www.w3.org/1999/xlink" height="45.6px" width="62.65px" xmlns="http://www.w3.org/2000/svg">
  <g transform="matrix(1.0, 0.0, 0.0, 1.0, 31.35, 22.8)">
    <path d="M17.05 -20.1 L17.75 -20.05 18.15 -19.85 18.5 -19.55 18.8 -19.3 19.0 -19.0 19.25 -18.7 19.65 -18.45 19.9 -18.15 20.05 -17.8 20.2 -17.45 20.5 -17.2 20.9 -16.95 21.75 -16.95 22.55 -16.9 23.45 -16.5 24.95 -16.0 27.35 -15.0 27.6 -14.7 27.8 -14.35 27.95 -14.0 28.1 -13.7 28.3 -13.35 28.3 -12.95 28.25 -12.5 28.1 -12.0 27.9 -11.5 28.0 -11.15 28.1 -10.75 28.1 -10.35 28.1 -9.9 28.25 -9.6 28.4 -9.25 28.45 -8.85 28.5 -8.45 28.55 -8.05 28.6 -7.65 28.65 -7.25 28.95 -6.55 Q29.2 -5.85 29.6 -5.2 L30.6 -3.2 31.2 -1.8 31.3 -1.45 31.3 -1.0 31.3 -0.6 31.3 -0.15 31.3 0.25 31.15 0.75 31.05 1.2 31.0 1.6 30.9 2.05 30.6 3.1 30.25 3.5 29.15 4.2 25.75 6.05 24.8 6.2 24.15 6.25 23.5 6.35 23.25 6.4 22.8 6.6 22.25 6.95 21.0 7.85 20.4 8.55 20.05 9.0 19.5 9.3 19.5 9.4 18.6 9.8 17.7 9.95 17.1 9.85 16.4 9.75 15.9 10.25 15.3 11.0 14.85 11.6 14.65 12.1 14.7 12.45 14.75 12.85 14.6 13.35 14.15 14.35 13.55 15.55 13.1 16.6 12.4 18.15 11.7 18.7 11.7 18.75 10.35 19.4 8.75 19.6 6.3 19.95 4.25 20.25 3.7 20.3 3.1 20.55 2.2 21.0 1.3 21.15 0.55 21.1 -0.3 21.05 -0.65 20.8 -1.05 20.55 -1.35 20.3 -1.4 20.2 -5.05 21.75 -6.0 21.9 -6.6 21.8 -6.95 21.65 -7.1 21.65 -7.9 21.7 -8.5 21.6 -8.9 21.35 -9.25 21.1 -9.55 20.8 -9.7 20.45 -9.75 20.1 -9.8 19.7 -9.8 19.25 -9.9 18.9 -10.15 18.6 -10.3 18.25 -10.4 17.9 -10.55 17.55 -10.7 17.2 -10.85 16.85 -11.15 16.6 -11.5 16.3 -11.8 16.05 -12.3 16.15 -12.9 16.0 -13.3 15.75 -13.6 15.5 -13.95 15.25 -14.15 14.9 -14.3 14.6 -14.45 14.25 -14.6 13.9 -14.95 13.2 -15.05 13.0 -15.1 12.95 -15.9 12.95 -16.35 12.75 -16.75 12.55 -17.05 12.25 -17.3 11.95 -17.7 11.3 -18.25 10.35 -18.65 9.7 -19.05 9.45 -19.8 9.4 -20.6 9.35 -21.25 9.25 -21.55 8.95 -21.9 8.7 -22.15 8.4 -22.35 8.1 -22.5 7.75 -22.65 7.4 -23.0 6.75 -23.4 6.1 -23.65 5.8 -24.1 5.6 -24.7 5.45 -25.55 5.4 -26.15 5.3 -27.35 5.45 -27.95 5.3 -28.3 5.05 -28.65 4.8 -29.0 4.55 -29.15 4.2 -29.3 3.85 -29.5 3.5 -29.6 3.15 -29.7 2.8 -29.7 2.4 -29.7 1.95 -29.7 1.55 -29.7 1.1 -29.7 0.7 -29.4 0.15 -29.15 -0.25 Q-28.45 -0.6 -27.85 -1.1 -26.05 -2.6 -24.45 -4.4 L-23.8 -5.1 -23.65 -5.6 -23.5 -6.1 -23.4 -6.55 -23.4 -6.95 -23.35 -7.4 -23.05 -7.95 -22.1 -8.85 -21.75 -9.25 -21.15 -9.75 -19.55 -11.15 -18.7 -11.95 -18.45 -12.35 -18.3 -12.55 -17.65 -13.0 Q-16.95 -13.25 -16.3 -13.6 L-13.1 -15.15 -12.1 -15.3 -11.45 -15.4 -10.7 -16.2 -10.55 -16.5 Q-9.6 -17.4 -8.35 -18.0 -5.55 -19.35 -2.5 -19.7 L-2.05 -19.65 -1.5 -19.9 -0.1 -20.55 1.85 -21.1 3.9 -21.5 4.9 -21.65 5.5 -21.5 5.75 -21.35 5.9 -21.35 6.7 -21.4 7.45 -21.3 8.75 -21.05 10.4 -20.65 11.0 -20.5 11.4 -20.25 11.7 -20.0 11.95 -19.7 12.1 -19.35 12.5 -19.1 12.95 -19.05 15.2 -19.9 16.2 -20.15 17.05 -20.1" fill="#ab98a0" fill-rule="evenodd" stroke="none"/>
    <path d="M9.9 -16.5 L10.5 -16.4 10.95 -16.15 11.25 -15.95 11.5 -15.6 11.7 -15.3 11.85 -14.95 12.0 -14.6 12.05 -14.2 12.25 -13.9 12.5 -13.55 12.65 -13.25 12.8 -12.9 Q13.35 -12.1 14.35 -11.9 L15.4 -11.6 16.85 -11.0 19.9 -9.5 21.4 -8.6 22.0 -8.45 22.5 -8.3 22.75 -8.0 22.95 -7.65 23.1 -7.3 23.3 -7.0 23.5 -6.65 23.7 -6.35 23.8 -6.0 23.95 -5.65 24.2 -4.95 24.35 -4.6 24.55 -4.25 24.7 -3.9 24.85 -3.55 25.0 -3.2 25.05 -2.85 25.05 -2.45 24.95 -1.95 24.6 -1.5 24.1 -1.1 23.65 -0.6 22.9 0.55 22.6 1.1 22.4 1.6 22.25 2.1 21.7 2.75 21.7 3.2 21.7 3.6 21.5 4.1 21.15 4.55 20.65 4.9 20.35 5.1 19.8 5.5 18.9 5.6 18.15 5.55 17.35 5.55 16.8 5.35 16.0 5.35 13.5 6.5 13.4 6.95 13.25 7.45 11.85 9.3 10.95 10.6 10.15 11.85 Q9.6 12.75 9.4 13.8 L9.3 14.15 9.1 14.35 8.7 14.9 8.45 15.25 Q8.15 15.4 7.9 15.6 L7.9 15.65 5.7 16.6 4.65 17.0 2.3 17.85 1.4 18.05 -0.2 18.5 -1.65 18.85 -2.55 19.05 -3.2 18.9 -3.55 18.65 -3.85 18.4 -4.1 18.1 -4.25 17.75 -4.35 17.35 -4.45 17.1 Q-4.7 16.9 -5.0 16.85 L-5.5 16.65 Q-5.7 16.55 -5.85 16.4 L-6.15 16.15 -6.4 15.85 -6.6 15.5 -6.9 14.85 -7.05 14.5 -7.25 14.15 -7.4 13.8 -7.55 13.45 -7.75 13.15 -8.0 12.85 -8.3 12.55 -8.65 12.35 -9.55 11.9 -9.9 11.65 -10.3 11.45 -10.7 11.2 -10.95 10.9 -11.15 10.55 -11.25 10.2 -11.35 9.85 -11.35 9.45 -11.3 9.0 -11.5 8.65 -11.65 8.3 -11.8 7.95 -11.95 7.65 -12.1 7.3 -12.15 6.9 -12.2 6.5 -12.25 6.1 -12.2 5.65 -12.6 5.45 -13.1 5.2 -13.45 5.0 -13.75 4.7 -14.0 4.4 -14.2 4.1 -14.5 4.0 -15.2 4.0 -16.6 3.95 -16.75 3.95 -17.45 3.95 -18.3 3.9 -19.0 3.85 -19.5 3.65 -20.35 3.65 -21.1 3.6 -21.45 3.35 -21.85 3.15 -22.35 2.9 -22.75 2.7 -23.15 2.45 -23.4 2.15 -23.55 1.85 -23.75 1.5 -23.85 1.15 -23.85 0.7 -23.85 0.3 -23.9 -0.1 -23.85 -0.55 -23.65 -1.05 -23.4 -1.6 -22.75 -2.3 -22.5 -2.7 -21.6 -3.4 -21.2 -4.0 -21.1 -4.45 -20.8 -5.0 -20.6 -5.4 -19.95 -5.85 -19.25 -6.05 -19.0 -6.15 -18.0 -6.35 -17.35 -6.2 -16.75 -6.15 -15.9 -6.1 -15.65 -6.1 -15.05 -6.35 -13.0 -7.3 -12.65 -7.75 -12.35 -8.0 -11.7 -8.4 -9.4 -9.7 -8.65 -9.85 -8.4 -9.9 -7.6 -10.25 -5.3 -11.35 -4.4 -11.45 -3.8 -11.35 -2.55 -11.65 -1.55 -11.85 -0.95 -11.7 -0.7 -11.55 Q1.25 -12.4 3.15 -13.4 L5.0 -14.5 8.95 -16.4 9.9 -16.5" fill="#663333" fill-opacity="0.2" fill-rule="evenodd" stroke="none"/>
    <path d="M17.45 -19.65 L18.05 -19.55 18.4 -19.25 18.7 -19.05 19.1 -18.75 19.45 -18.5 19.75 -18.25 19.95 -17.95 20.2 -17.7 20.65 -17.55 21.65 -17.75 22.65 -17.95 23.7 -18.15 24.3 -18.05 24.7 -17.75 24.95 -17.5 25.2 -17.2 25.4 -16.9 25.55 -16.55 25.6 -16.15 25.5 -15.7 25.35 -15.2 25.0 -14.75 24.35 -14.35 22.55 -13.45 21.55 -13.25 18.95 -12.65 17.0 -12.25 16.45 -12.25 15.55 -12.1 14.75 -12.0 14.15 -11.6 13.7 -11.0 13.2 -10.3 12.8 -9.7 12.75 -9.25 12.8 -8.85 12.85 -8.45 12.75 -8.0 12.7 -7.55 12.6 -7.15 12.1 -6.1 11.3 -4.95 10.65 -4.55 9.85 -4.15 9.6 -3.8 9.6 -3.5 9.7 -3.1 9.85 -2.75 10.05 -2.45 10.25 -2.1 10.4 -1.8 Q10.6 -0.7 10.25 0.35 9.65 2.35 8.5 4.15 L6.35 7.25 Q5.4 8.5 4.95 9.95 L4.45 10.6 4.1 11.05 3.9 11.25 3.25 11.65 3.3 11.7 1.45 12.55 0.55 12.7 -0.1 12.75 -1.0 12.9 -1.6 12.75 -2.15 12.6 -2.75 12.45 -3.25 12.25 -3.65 12.05 -4.1 12.0 -4.35 12.05 Q-6.35 12.9 -8.35 13.9 L-9.9 14.7 -10.25 15.15 -10.85 15.6 -11.75 15.75 -12.4 15.6 -12.75 15.35 -13.15 15.1 -13.45 14.85 -13.7 14.55 -13.85 14.2 -14.05 13.85 -14.2 13.55 -14.5 12.85 -14.85 12.15 -14.85 11.75 -14.8 11.3 -14.75 10.85 -14.8 10.5 -14.85 10.1 -14.75 9.65 -14.8 9.25 -14.85 8.85 -14.95 8.45 -15.05 8.1 -15.0 7.65 -15.05 7.25 -15.1 6.85 -15.05 6.45 -14.7 5.15 Q-14.3 4.0 -14.3 2.8 -14.3 1.95 -13.9 1.25 L-13.5 0.25 -13.4 -0.15 -14.15 -0.25 -14.85 -0.3 -15.6 -0.4 -16.2 -0.5 -16.6 -0.75 -16.9 -1.05 -17.1 -1.2 -17.1 -1.25 -20.05 -0.1 -20.95 0.05 -21.55 -0.1 -21.95 -0.3 -22.35 -0.55 -22.6 -0.85 -22.9 -1.15 -23.15 -1.4 -23.4 -1.7 -23.6 -2.05 -23.6 -2.45 -23.55 -2.9 -23.5 -3.35 -23.2 -3.9 -22.85 -4.35 -22.25 -4.75 -21.5 -4.95 -20.7 -5.05 Q-19.75 -5.5 -18.75 -6.0 L-18.5 -6.55 -17.8 -7.15 -17.2 -7.4 -16.3 -7.55 -15.3 -8.05 -15.4 -8.4 -15.4 -8.8 -15.45 -9.2 -15.4 -9.6 -15.2 -10.15 -14.95 -10.55 -14.4 -10.9 -13.65 -11.3 -12.85 -11.95 -12.6 -12.35 -12.15 -12.85 -11.85 -13.4 -11.45 -14.0 -11.2 -14.4 -10.7 -14.8 -9.8 -14.9 -8.85 -14.95 -8.2 -14.85 Q-7.95 -14.95 -7.65 -15.1 L-7.15 -15.6 -6.45 -16.1 -3.8 -17.6 -2.9 -17.75 -2.3 -17.6 -1.8 -17.45 -1.55 -17.8 -0.85 -18.4 1.8 -19.8 2.7 -19.95 3.3 -19.8 3.8 -19.65 4.6 -19.75 5.5 -19.9 6.15 -19.75 6.65 -19.6 7.15 -19.4 7.5 -19.75 7.75 -19.95 8.2 -20.35 8.75 -20.7 9.65 -20.85 10.25 -20.75 10.65 -20.45 10.9 -20.2 11.1 -19.85 11.2 -19.5 11.3 -19.15 11.2 -18.7 11.1 -18.15 11.1 -17.8 11.2 -17.8 Q13.7 -19.1 16.4 -19.5 L17.45 -19.65" fill="#663333" fill-opacity="0.2" fill-rule="evenodd" stroke="none"/>
    <path d="M13.65 -18.2 L13.5 -17.65 12.0 -16.05 9.3 -13.35 9.1 -12.85 8.95 -12.35 8.5 -11.7 8.1 -11.1 7.95 -10.6 7.45 -9.95 7.1 -9.4 6.8 -8.85 6.15 -8.25 5.35 -7.85 2.95 -6.75 2.05 -6.6 1.45 -6.7 -0.05 -6.8 -1.8 -6.75 -2.0 -6.45 -2.15 -6.05 -2.45 -5.0 -2.55 -4.55 -2.4 -4.25 -2.25 -3.9 -2.1 -3.55 -1.9 -3.2 -1.75 -2.85 -1.55 -2.55 -1.2 -2.3 -0.95 -2.0 -0.65 -1.7 -0.3 -1.45 0.0 -1.2 0.25 -0.9 0.45 -0.55 0.6 -0.2 1.0 0.0 1.25 0.3 1.4 0.65 1.6 1.0 1.75 1.35 1.9 1.65 1.9 2.05 1.85 2.5 1.7 3.0 1.35 3.45 0.95 3.8 0.3 4.15 0.3 4.2 -0.6 4.35 -1.2 4.25 -1.6 4.0 -1.95 3.75 -2.2 3.45 -2.4 3.15 -2.55 2.8 -2.75 2.45 -2.95 2.15 -3.25 1.85 -3.55 1.6 -3.85 1.45 -5.6 1.25 -6.95 1.1 -8.25 1.3 -8.9 1.2 -9.55 1.25 -9.95 1.25 -10.85 1.4 -11.45 1.3 -11.85 1.05 -12.25 0.8 -12.45 0.65 -12.6 0.7 -13.2 1.15 -14.1 1.3 -14.75 1.15 -15.1 0.9 -15.5 0.65 -15.8 0.4 -16.3 0.2 -17.0 0.15 -18.7 0.1 -19.35 0.15 Q-20.9 0.75 -22.25 1.75 L-23.75 3.2 -24.4 3.6 -25.3 4.05 -26.2 4.15 -27.05 4.15 -27.8 4.1 -28.25 3.85 -28.55 3.6 -28.85 3.35 -29.05 3.0 -29.15 2.65 -29.2 2.25 -29.2 1.9 -28.75 0.85 -28.15 -0.2 -27.5 -0.6 -26.3 -1.35 -25.55 -2.1 -25.1 -2.6 -24.9 -2.8 -24.3 -3.25 -23.1 -3.95 -22.55 -4.6 -22.1 -5.1 -21.45 -5.5 -18.85 -7.05 -18.65 -7.45 -18.0 -7.85 -16.85 -8.1 -16.4 -8.05 -16.05 -8.2 -15.05 -8.4 -14.2 -8.4 -13.5 -8.3 -13.1 -8.1 -12.7 -7.85 -12.45 -7.55 -12.25 -7.25 -11.85 -6.6 -11.5 -5.9 -11.35 -5.7 -10.9 -5.8 -10.4 -6.45 -10.3 -6.9 -10.15 -7.4 -9.75 -8.0 -9.35 -8.6 -9.05 -9.15 -8.95 -9.6 -8.55 -10.25 -7.55 -11.1 -7.35 -11.5 -5.45 -12.75 Q-3.75 -13.6 -1.95 -13.9 L-1.35 -13.7 -1.1 -13.6 -0.95 -13.55 -0.15 -13.6 0.55 -13.95 1.05 -14.6 1.7 -15.3 2.3 -16.4 Q3.1 -17.9 4.35 -19.1 L4.55 -19.6 4.65 -19.9 4.85 -20.1 5.35 -20.5 6.25 -20.65 6.75 -20.45 7.15 -20.25 7.55 -20.0 7.95 -19.8 8.5 -19.8 9.4 -19.9 9.9 -19.75 10.35 -19.95 11.05 -20.55 11.95 -20.7 12.55 -20.55 12.95 -20.3 13.2 -20.05 13.4 -19.7 13.5 -19.35 13.6 -18.95 13.65 -18.55 13.65 -18.2" fill="#663333" fill-opacity="0.2" fill-rule="evenodd" stroke="none"/>
    <path d="M17.6 -5.15 L18.0 -5.45 18.9 -6.15 19.65 -6.65 20.55 -6.8 21.05 -6.6 21.45 -6.4 22.4 -6.45 22.9 -6.25 23.25 -6.0 23.55 -5.75 23.8 -5.45 24.0 -5.1 24.15 -4.75 24.1 -4.3 23.75 -3.85 23.55 -3.65 23.05 -3.25 22.25 -3.2 21.55 -3.25 21.1 -3.3 20.3 -3.25 20.1 -3.0 20.05 -2.7 20.05 -2.3 20.05 -1.9 19.95 -1.55 19.9 -1.4 19.5 -1.1 19.5 -1.05 18.85 -1.0 18.35 -1.2 17.95 -1.45 17.65 -1.7 17.4 -2.0 17.05 -2.3 16.85 -2.6 16.7 -2.95 16.65 -3.3 16.65 -3.7 16.7 -4.05 16.9 -4.25 17.35 -4.8 17.6 -5.15" fill="#663333" fill-opacity="0.2" fill-rule="evenodd" stroke="none"/>
    <path d="M14.65 0.55 L14.65 0.35 14.6 0.15 14.65 -0.05 14.7 -0.25 15.0 -0.25 15.1 -0.1 15.3 0.05 15.5 0.15 15.95 0.75 16.4 1.6 16.8 2.45 16.95 2.6 17.1 2.75 17.15 2.9 17.25 3.05 17.35 3.25 17.4 3.4 17.45 3.6 17.45 3.8 17.4 4.05 17.45 4.2 17.45 4.4 17.5 4.6 17.6 4.75 17.7 4.95 17.8 5.1 17.8 5.3 17.8 5.55 17.8 5.75 17.85 5.9 17.85 6.1 17.8 6.35 17.7 6.8 17.55 7.35 17.55 7.5 17.6 7.9 17.3 8.85 16.9 9.4 16.6 9.65 16.25 9.85 16.1 10.05 15.6 10.45 14.65 11.15 14.45 11.45 14.45 11.65 14.45 11.9 14.35 12.15 14.2 12.35 13.9 12.65 13.3 13.95 12.95 15.35 12.85 15.6 12.7 15.85 12.4 16.1 12.3 16.35 12.25 16.6 12.0 16.9 11.95 17.15 11.75 17.65 11.5 18.15 11.45 18.2 11.2 18.4 10.8 18.45 10.55 18.35 10.4 18.2 10.3 18.05 10.25 17.9 10.25 17.7 10.25 17.45 10.3 17.25 10.15 17.1 10.1 16.9 10.0 16.75 10.0 16.55 10.05 16.15 10.25 15.6 10.2 15.4 10.25 15.2 10.25 14.95 10.45 14.7 10.7 14.35 11.0 13.05 Q11.35 11.9 12.05 11.0 L12.3 10.7 12.35 10.45 12.4 10.2 12.6 9.9 12.95 9.6 13.4 9.4 14.55 8.55 14.65 8.4 14.7 8.3 15.2 8.0 15.3 7.7 15.3 7.5 15.3 7.35 15.4 6.85 15.55 6.35 15.75 6.05 15.8 5.85 15.75 5.65 15.7 5.25 15.65 4.85 15.65 4.65 15.65 4.45 15.65 4.25 15.6 4.05 15.65 3.8 15.6 3.6 15.55 3.45 15.5 3.25 15.45 3.1 15.35 2.9 15.35 2.7 15.3 2.5 15.25 2.35 15.15 2.2 15.05 2.0 14.95 1.85 14.85 1.7 14.8 1.5 14.75 1.3 14.75 1.15 14.7 0.95 14.65 0.75 14.65 0.55" fill="#ffff99" fill-opacity="0.2" fill-rule="evenodd" stroke="none"/>
    <path d="M30.4 -0.75 L30.3 -0.5 30.2 -0.25 30.2 -0.05 30.2 0.4 30.15 0.6 30.1 0.85 29.8 1.2 29.75 1.4 29.7 1.9 29.45 2.2 29.4 2.45 29.3 2.7 29.1 3.0 28.65 3.55 28.45 3.65 28.45 3.7 28.1 3.7 28.0 3.65 27.95 3.65 27.5 3.75 27.2 3.7 27.0 3.55 26.85 3.4 26.65 3.1 26.45 3.0 26.3 2.85 26.05 2.55 25.95 2.4 25.8 2.05 25.7 1.85 25.7 1.65 25.65 1.3 25.65 1.1 25.7 0.6 25.7 0.4 25.65 0.25 25.65 -0.2 25.7 -0.4 25.7 -0.65 25.85 -0.9 26.2 -1.2 27.05 -1.65 27.3 -1.8 27.75 -1.85 28.1 -1.8 Q28.7 -1.8 29.35 -2.25 L29.8 -2.35 30.0 -2.2 30.35 -2.0 30.45 -1.8 30.55 -1.45 30.45 -1.0 30.4 -0.75" fill="#ffff99" fill-opacity="0.2" fill-rule="evenodd" stroke="none"/>
    <path d="M27.15 -14.15 L27.3 -14.2 27.75 -14.3 27.95 -14.2 28.15 -14.05 28.25 -13.9 28.3 -13.7 28.4 -13.55 28.4 -13.35 28.4 -13.15 28.4 -12.95 28.45 -12.75 28.4 -12.5 28.4 -12.3 28.45 -12.1 28.35 -11.85 28.25 -11.6 28.35 -11.25 28.45 -11.1 28.55 -10.9 28.6 -10.75 28.75 -10.4 28.95 -10.05 28.9 -9.85 28.8 -9.4 28.7 -9.1 28.6 -8.85 28.5 -8.6 28.6 -8.45 28.75 -8.1 28.8 -7.9 28.9 -7.75 28.9 -7.55 28.9 -7.35 28.85 -7.1 28.8 -6.9 29.0 -6.35 29.1 -6.15 29.15 -6.0 29.5 -5.3 29.95 -4.3 30.15 -3.95 30.2 -3.8 30.2 -3.6 30.2 -3.35 30.2 -3.15 30.25 -3.0 30.4 -2.85 30.55 -2.7 30.7 -2.55 30.8 -2.4 30.85 -2.2 30.9 -2.0 30.85 -1.6 30.8 -1.35 30.7 -1.1 30.65 -0.9 30.55 -0.4 30.55 -0.2 30.6 0.0 30.6 0.2 30.55 0.4 30.5 0.65 30.45 0.9 30.5 1.05 30.5 1.3 30.4 1.55 30.4 1.75 30.4 1.95 30.3 2.2 30.2 2.4 28.8 3.15 Q28.25 3.4 27.75 3.7 L25.45 4.9 25.15 5.0 24.85 5.05 24.75 5.0 22.55 5.95 22.25 6.0 21.95 5.95 21.75 5.8 21.6 5.7 21.55 5.5 21.5 5.3 21.45 5.1 21.55 4.85 21.7 4.65 Q22.65 4.05 23.65 3.55 L23.95 3.4 26.55 2.3 27.6 1.75 27.6 1.55 27.55 1.35 27.55 1.15 27.55 0.95 27.8 0.6 27.95 0.3 28.0 0.1 28.05 -0.15 28.35 -0.85 28.4 -1.15 28.4 -1.35 28.45 -1.75 28.5 -2.4 28.45 -2.6 28.4 -2.8 28.35 -3.0 28.35 -3.2 28.25 -3.35 28.2 -3.55 28.15 -3.7 28.05 -3.9 27.8 -4.4 27.7 -4.55 27.65 -4.7 27.45 -5.25 27.0 -6.1 26.8 -6.4 26.8 -6.6 26.85 -7.05 26.85 -7.25 26.85 -7.5 26.8 -7.65 26.7 -7.85 26.65 -8.0 26.6 -8.2 26.6 -8.4 26.55 -8.6 26.55 -8.8 26.55 -9.0 26.55 -9.2 26.6 -9.45 26.7 -9.7 26.8 -9.95 26.75 -10.15 26.65 -10.5 26.55 -10.65 26.45 -10.85 26.4 -11.0 26.3 -11.2 26.3 -11.4 26.25 -11.6 26.25 -11.8 26.2 -12.0 26.25 -12.2 26.35 -12.7 26.35 -12.85 26.4 -13.1 26.4 -13.3 26.65 -13.6 26.8 -13.85 26.9 -13.95 27.15 -14.15" fill="#ffff99" fill-opacity="0.2" fill-rule="evenodd" stroke="none"/>
    <path d="M16.05 -14.35 L15.9 -14.45 14.0 -14.85 Q13.35 -15.0 12.85 -15.35 L11.95 -15.9 Q9.6 -14.45 7.0 -13.3 L5.5 -12.65 5.15 -12.6 4.85 -12.7 4.65 -12.8 4.45 -12.9 4.3 -13.05 4.25 -13.25 4.2 -13.4 4.2 -13.6 4.25 -13.85 4.35 -14.1 4.45 -14.3 Q7.7 -15.6 10.55 -17.5 L10.65 -17.7 10.95 -17.9 11.4 -18.1 11.85 -18.2 12.15 -18.1 12.4 -18.05 12.55 -17.9 12.75 -17.75 12.85 -17.6 12.95 -17.45 13.2 -17.15 13.35 -17.0 14.1 -16.55 14.75 -16.25 15.75 -16.05 16.0 -15.95 16.45 -15.75 16.9 -15.55 17.25 -15.5 17.5 -15.45 17.65 -15.3 17.85 -15.15 17.95 -15.05 18.05 -14.85 18.1 -14.7 18.15 -14.5 18.15 -14.3 18.15 -14.05 18.05 -13.95 17.9 -13.75 17.55 -13.7 Q17.4 -13.75 17.3 -13.85 L17.15 -13.95 17.05 -14.1 16.9 -14.25 16.75 -14.3 16.4 -14.3 16.05 -14.35" fill="#ffff99" fill-opacity="0.2" fill-rule="evenodd" stroke="none"/>
    <path d="M-16.35 5.9 L-16.15 6.0 -15.6 6.2 -15.2 6.4 -14.9 6.65 -14.75 6.8 -14.6 7.15 -14.45 7.45 -14.35 7.65 -14.3 7.85 -14.3 8.05 -14.25 8.25 -14.2 8.4 -14.2 8.6 -14.2 8.85 -14.2 9.0 -13.95 9.75 -13.5 10.6 -13.1 11.45 -13.05 11.6 -12.9 11.75 -12.7 11.85 -12.6 12.0 -12.5 12.2 -12.25 12.3 -12.0 12.4 -11.8 12.5 -11.65 12.65 -11.6 12.8 -11.5 12.95 -11.35 13.1 -11.25 13.25 -11.15 13.45 -11.0 13.55 -10.8 13.7 -10.6 13.8 -10.4 13.9 -10.3 14.1 -10.2 14.25 -10.0 14.35 -9.75 14.65 -9.3 15.05 -8.95 15.55 -8.9 15.7 -8.85 15.9 -8.85 16.1 -8.3 17.3 -7.65 18.65 -7.15 19.7 -7.1 19.85 -7.2 20.3 -7.4 20.85 -7.75 21.2 -7.8 21.4 -7.85 21.6 -8.15 21.85 -8.15 21.9 -8.5 21.9 -8.65 21.8 -8.85 21.65 -8.95 21.5 -9.1 21.35 -9.2 21.2 -9.3 21.05 -9.4 20.85 -9.5 20.7 -9.6 20.55 -9.65 20.35 -9.7 20.2 -10.2 19.35 -10.7 18.35 -11.05 17.5 -11.05 17.3 -10.9 16.8 -10.65 16.4 -10.85 16.25 -11.0 16.15 -11.1 16.0 -11.3 15.85 -11.45 15.7 -11.6 15.6 -11.7 15.45 -11.9 15.3 -12.1 15.2 -12.3 15.1 -12.45 14.95 -12.6 14.8 -12.75 14.7 -12.9 14.55 -13.05 14.4 -13.25 14.25 -13.4 14.15 -13.75 13.9 -13.95 13.8 -14.1 13.65 -14.2 13.45 -14.25 13.3 -14.4 13.15 -14.55 13.0 -14.65 12.85 -15.2 11.85 -15.75 10.65 -16.25 9.45 -16.3 9.25 -16.3 9.05 -16.35 8.85 -16.3 8.65 -16.35 8.45 -16.35 8.25 -16.45 8.1 -16.7 8.0 -16.95 7.9 -17.55 7.95 -17.9 7.9 -19.7 8.5 -20.0 8.45 -20.2 8.3 -20.65 8.1 -21.0 7.85 -21.1 7.7 -21.2 7.55 -21.25 7.35 -21.3 7.15 -21.3 6.95 -21.3 6.75 -21.15 6.45 -21.05 6.3 -20.85 6.1 -20.4 6.05 -20.2 6.15 -19.95 6.25 -19.75 6.3 -18.25 5.9 -17.4 5.85 -16.9 5.75 -16.6 5.8 -16.35 5.9" fill="#ffff99" fill-opacity="0.2" fill-rule="evenodd" stroke="none"/>
    <path d="M-24.35 -4.35 L-24.0 -4.45 -23.15 -4.7 -22.7 -4.8 -22.4 -4.75 -21.95 -4.75 -21.75 -4.85 -21.65 -5.05 -20.85 -5.6 -19.9 -6.05 -19.55 -6.35 Q-17.85 -7.0 -16.45 -8.1 L-16.0 -8.15 -15.45 -8.0 -14.95 -7.8 -14.75 -7.7 -14.6 -7.55 -12.05 -7.3 -9.7 -7.45 -9.5 -7.35 -9.4 -7.2 -9.3 -7.0 -9.2 -6.85 -9.2 -6.7 -9.25 -6.45 -9.3 -6.2 -9.4 -6.05 -9.6 -5.9 -9.6 -5.85 -9.9 -5.85 -10.1 -5.95 -10.2 -6.1 -10.25 -6.3 -10.65 -6.3 -12.05 -6.1 -14.0 -5.85 -14.5 -5.85 -14.8 -5.9 -15.1 -5.9 -17.25 -4.45 -18.25 -3.7 -18.5 -3.4 -18.65 -3.15 -18.75 -3.05 -18.95 -2.9 -19.2 -2.7 -19.65 -2.65 -19.95 -2.7 -20.15 -2.8 -20.4 -2.9 -20.85 -2.9 -21.15 -2.9 -21.3 -2.9 -21.7 -2.7 -22.15 -2.65 -23.4 -2.6 -24.35 -2.45 -24.75 -2.4 -25.05 -2.45 -25.35 -2.55 -25.45 -2.7 -25.5 -2.85 -25.5 -3.3 -25.4 -3.55 -25.3 -3.75 -25.0 -4.0 -24.7 -4.3 -24.35 -4.35" fill="#ffff99" fill-opacity="0.2" fill-rule="evenodd" stroke="none"/>
    <path d="M14.2 -18.0 L13.6 -17.65 11.8 -17.65 7.55 -19.55 6.0 -19.65 Q1.25 -18.75 -3.3 -16.95 L-4.25 -16.6 -5.2 -16.45 Q-8.7 -15.6 -11.3 -13.05 L-11.65 -12.05 Q-13.75 -10.85 -16.05 -10.7 L-17.05 -10.8 Q-19.0 -10.15 -20.35 -9.2 L-21.45 -7.4 -18.1 -7.95 -16.7 -8.8 -15.85 -8.75 Q-12.45 -8.6 -9.25 -7.5 L-10.3 -5.85 -12.7 -6.0 -13.75 -6.75 -15.9 -7.2 -17.65 -6.1 Q-18.5 -5.3 -19.75 -5.05 -24.1 -4.05 -26.95 -0.65 -27.65 0.2 -28.65 0.3 L-29.7 1.9 -29.15 2.15 Q-27.85 3.35 -26.15 3.8 L-25.4 3.65 -23.4 5.0 -22.7 5.0 -22.15 5.4 -21.4 7.2 -21.2 7.2 Q-18.7 8.55 -15.9 7.9 L-15.35 8.45 Q-15.35 10.95 -13.9 13.05 -12.55 14.9 -10.75 16.5 -9.5 17.7 -9.45 19.3 L-8.6 20.9 -7.95 21.4 Q-4.6 20.75 -1.55 19.05 1.5 17.35 1.65 17.5 1.55 17.65 2.0 17.85 L3.6 19.1 Q5.85 18.35 8.5 18.5 10.8 18.05 12.35 17.0 L12.75 15.15 13.25 13.5 Q13.7 12.0 15.15 11.05 L16.35 8.85 16.75 7.4 17.35 7.1 18.0 7.65 19.2 7.8 21.4 4.8 Q25.6 4.85 29.5 3.3 L29.85 -0.85 Q30.0 -3.35 28.5 -5.2 28.4 -7.25 27.2 -9.2 L26.9 -9.85 Q26.45 -11.5 26.8 -13.15 L26.45 -14.2 24.8 -15.7 19.65 -16.85 Q18.35 -16.95 18.05 -18.2 L16.45 -18.45 14.2 -18.0 M19.9 -19.9 L20.2 -19.25 Q21.65 -18.35 23.35 -18.35 25.4 -18.3 26.05 -16.55 L27.15 -15.4 28.85 -14.75 28.6 -14.15 Q29.05 -13.1 28.95 -11.9 L29.0 -10.3 Q29.1 -9.55 29.5 -8.9 30.75 -6.85 30.5 -4.75 L30.95 -4.15 31.25 -2.6 31.05 -0.9 30.65 3.55 Q30.55 4.2 29.85 4.55 L24.6 6.35 24.0 6.25 22.6 6.85 22.1 7.6 20.95 9.0 Q19.35 10.95 16.95 11.05 L16.55 10.75 Q16.3 11.8 15.65 12.5 13.75 14.65 12.9 17.5 L12.95 18.0 12.35 18.65 Q9.05 19.7 5.85 19.95 L3.75 20.3 Q2.5 20.6 1.15 20.0 L-6.55 22.8 -6.95 22.55 -8.3 22.65 -9.75 21.65 -9.85 21.25 Q-10.15 20.05 -11.3 19.45 L-11.65 19.2 -12.1 19.0 Q-13.0 17.3 -14.55 15.95 -16.3 14.4 -17.1 12.2 L-16.8 10.4 -18.95 10.3 -21.55 9.8 -23.05 8.65 -23.55 7.65 -23.5 7.2 -23.9 6.05 -24.4 5.9 -25.25 5.45 -26.75 5.05 -27.15 5.0 Q-29.3 4.15 -31.15 2.8 L-31.35 1.45 -30.3 -0.45 -28.8 -1.2 Q-27.55 -2.4 -27.0 -3.95 -26.5 -5.2 -25.3 -6.0 -23.45 -7.05 -23.05 -9.05 L-22.45 -9.6 -21.95 -10.45 -20.75 -11.5 Q-18.85 -12.65 -16.8 -12.95 L-15.8 -12.7 -14.2 -12.8 -14.1 -14.0 Q-10.85 -17.95 -5.8 -18.8 -3.0 -19.3 -0.15 -20.3 L-0.05 -20.95 0.7 -21.4 Q3.95 -22.65 7.7 -22.8 L12.25 -19.85 Q12.7 -20.65 13.6 -20.85 L17.8 -21.45 19.9 -19.9" fill="#333333" fill-rule="evenodd" stroke="none"/>
    <path d="M15.7 -16.3 L15.75 -16.1 15.8 -15.95 15.8 -15.7 15.6 -15.5 15.6 -15.45 15.25 -15.5 15.1 -15.6 14.95 -15.7 14.8 -15.85 14.5 -15.9 13.9 -16.2 13.1 -16.55 12.4 -16.8 11.55 -16.85 11.0 -16.85 10.7 -16.9 10.3 -16.8 8.8 -15.75 8.65 -15.6 8.35 -15.35 8.25 -15.15 8.15 -15.05 7.8 -14.75 7.65 -14.45 7.5 -14.15 7.4 -14.0 7.3 -13.9 7.05 -13.7 6.1 -13.3 5.65 -13.25 5.3 -13.3 5.0 -13.35 4.85 -13.5 4.7 -13.6 4.6 -13.8 4.55 -13.95 4.55 -14.15 4.55 -14.35 4.65 -14.65 4.8 -14.85 5.05 -15.0 5.35 -15.1 6.3 -15.6 6.35 -15.75 6.45 -15.9 6.7 -16.1 7.3 -16.65 7.7 -16.85 8.1 -17.15 8.75 -17.75 9.85 -18.35 10.2 -18.4 10.55 -18.45 10.8 -18.35 11.0 -18.25 11.3 -18.15 11.6 -18.1 11.95 -18.05 12.35 -18.05 13.35 -17.65 14.2 -17.25 14.65 -17.05 14.8 -16.9 15.15 -16.65 15.35 -16.55 15.6 -16.4 15.7 -16.3" fill="#333333" fill-rule="evenodd" stroke="none"/>
    <path d="M-3.05 -2.8 L-2.95 -2.95 -2.75 -3.2 -2.3 -3.25 -2.05 -3.15 -1.85 -3.05 -1.65 -2.95 -1.55 -2.75 -1.4 -2.6 -1.3 -2.45 -1.2 -2.3 -1.15 -2.1 -1.1 -1.95 -1.0 -1.75 -1.0 -1.55 -1.05 -1.3 -1.05 -1.1 -0.95 -1.0 -0.55 -0.95 -0.05 -1.05 0.25 -0.95 0.45 -0.85 0.6 -0.7 0.65 -0.55 0.75 -0.35 0.75 -0.15 0.8 0.05 0.9 0.2 1.05 0.35 1.2 0.45 1.6 1.15 1.95 2.0 2.4 2.8 2.3 3.0 2.3 3.05 2.1 3.15 2.0 3.2 1.75 3.1 1.55 3.0 1.45 2.85 1.3 2.7 1.2 2.55 1.05 2.4 0.95 2.25 0.85 2.1 0.75 1.9 0.7 1.75 0.6 1.55 0.5 1.4 0.35 1.25 0.2 1.15 0.0 1.0 -0.1 0.85 -0.2 0.75 -0.3 0.75 -0.7 0.8 -0.95 0.75 -1.15 0.8 -1.55 0.85 -1.9 0.8 -2.15 0.7 -2.35 0.6 -2.55 0.5 -2.65 0.35 -2.75 0.2 -2.9 0.0 -2.95 -0.15 -3.05 -0.3 -3.1 -0.5 -3.1 -0.7 -3.05 -0.95 -3.05 -1.15 -3.05 -1.35 -3.15 -1.55 -3.2 -1.7 -3.2 -1.9 -3.15 -2.35 -3.05 -2.8" fill="#333333" fill-rule="evenodd" stroke="none"/>
    <path d="M20.45 -4.55 L21.3 -5.05 21.7 -5.1 22.2 -5.1 22.45 -5.0 22.85 -4.8 23.1 -4.7 23.3 -4.2 23.55 -3.45 23.65 -3.15 23.6 -3.1 23.45 -3.0 23.35 -2.95 23.1 -3.05 23.0 -3.2 22.95 -3.4 22.85 -3.55 22.8 -3.75 22.7 -3.9 22.55 -4.0 22.3 -4.15 22.05 -4.25 21.7 -4.2 20.95 -3.8 20.95 -3.55 21.05 -3.4 21.15 -3.25 21.35 -3.1 21.65 -3.05 21.85 -2.95 22.15 -2.85 22.35 -2.75 22.05 -2.45 21.75 -2.2 21.4 -2.25 20.7 -2.2 20.55 -2.35 20.4 -2.45 20.2 -2.8 20.1 -3.15 20.0 -3.55 20.0 -3.75 20.1 -4.0 20.2 -4.25 20.45 -4.55" fill="#333333" fill-rule="evenodd" stroke="none"/>
    <path d="M7.0 -20.6 L7.1 -20.55 7.2 -20.3 7.2 -20.0 7.25 -19.7 7.25 -19.6 7.1 -18.8 7.0 -18.05 7.0 -17.7 7.0 -17.6 7.05 -17.5 7.0 -17.4 7.0 -17.3 7.0 -17.2 7.0 -17.05 6.9 -17.0 6.85 -16.95 6.7 -17.0 6.7 -17.2 6.7 -17.4 6.7 -17.65 6.7 -17.75 6.65 -17.85 6.7 -18.15 6.7 -18.45 6.8 -18.85 6.8 -19.05 6.85 -19.25 6.85 -19.5 6.85 -19.7 6.8 -19.9 6.8 -20.05 6.75 -20.25 6.8 -20.4 6.75 -20.45 6.75 -20.6 6.85 -20.65 7.0 -20.6" fill="#333333" fill-rule="evenodd" stroke="none"/>
    <path d="M5.3 -20.85 L5.4 -20.8 5.45 -20.75 5.5 -20.65 5.6 -20.5 5.65 -20.3 5.7 -20.25 5.75 -18.95 5.6 -17.75 5.4 -16.65 5.0 -15.75 4.8 -14.95 4.7 -14.65 4.6 -14.55 4.55 -14.55 4.4 -14.6 4.35 -14.65 4.35 -14.75 4.35 -14.85 4.35 -14.95 4.35 -15.05 4.35 -15.15 4.9 -17.1 5.1 -18.9 5.2 -19.95 5.15 -20.05 5.1 -20.2 5.05 -20.4 5.0 -20.5 5.0 -20.6 5.0 -20.7 5.05 -20.75 5.1 -20.85 5.3 -20.85" fill="#333333" fill-rule="evenodd" stroke="none"/>
    <path d="M3.5 -16.25 L3.5 -16.1 3.45 -16.0 3.5 -15.8 3.55 -15.55 3.6 -15.25 3.6 -15.15 3.55 -15.15 3.5 -15.1 3.4 -15.05 3.3 -15.1 3.2 -15.35 3.1 -15.65 3.05 -15.95 3.05 -16.0 Q2.9 -16.1 2.9 -16.25 L2.9 -16.55 2.8 -16.85 2.8 -17.15 2.85 -17.5 2.85 -17.7 2.8 -17.8 2.8 -17.9 2.8 -18.1 2.85 -18.45 2.9 -18.65 2.8 -19.25 2.7 -19.9 2.6 -20.4 2.55 -20.5 2.55 -20.55 2.6 -20.65 2.6 -20.75 2.7 -20.85 2.9 -20.85 3.0 -20.8 3.3 -20.1 3.45 -19.25 3.55 -18.65 3.45 -18.1 3.4 -17.55 3.4 -17.2 3.4 -16.9 3.45 -16.65 3.5 -16.35 3.5 -16.25" fill="#333333" fill-rule="evenodd" stroke="none"/>
    <path d="M1.05 -19.4 L1.05 -19.35 1.0 -19.2 1.3 -18.4 1.65 -17.6 1.9 -17.0 1.95 -16.95 2.0 -16.85 2.1 -16.85 2.1 -16.75 2.1 -16.6 2.1 -16.5 2.1 -16.4 2.1 -16.3 2.1 -16.25 2.0 -16.15 1.85 -16.15 1.55 -16.55 1.3 -17.05 1.05 -17.45 0.85 -17.95 0.6 -18.6 0.45 -19.05 0.45 -19.15 0.45 -19.25 0.55 -19.4 0.7 -19.55 0.85 -19.55 1.0 -19.5 1.05 -19.4" fill="#333333" fill-rule="evenodd" stroke="none"/>
    <path d="M-0.55 -15.1 L-0.5 -15.2 -0.35 -15.25 -0.2 -15.25 -0.1 -15.2 0.1 -14.8 0.35 -14.35 0.5 -13.95 0.65 -13.7 0.8 -13.45 0.9 -13.15 0.9 -13.05 0.85 -12.95 0.75 -12.85 0.7 -12.85 0.6 -12.9 0.5 -12.95 0.45 -13.05 0.4 -13.1 0.4 -13.2 0.3 -13.4 0.0 -13.95 -0.3 -14.65 -0.55 -15.1" fill="#333333" fill-rule="evenodd" stroke="none"/>
    <path d="M-2.4 -14.75 L-2.35 -14.8 -2.2 -14.85 -2.05 -14.85 -1.9 -14.8 -1.85 -14.75 -1.75 -14.65 -1.65 -14.6 -1.4 -14.1 -1.1 -13.5 -0.8 -12.9 -0.75 -12.55 -0.65 -12.05 -0.6 -11.7 -0.55 -11.6 -0.5 -11.5 -0.45 -11.4 -0.4 -11.35 -0.3 -11.3 -0.25 -11.2 -0.2 -11.1 -0.2 -11.05 -0.2 -10.9 -0.35 -10.8 -0.5 -10.8 -0.6 -10.85 -0.75 -10.95 -0.95 -11.1 -0.95 -11.2 -1.05 -11.35 -1.15 -11.5 -1.2 -11.6 -1.3 -11.95 -1.4 -12.45 -1.45 -12.8 -1.7 -13.25 -1.95 -13.75 -2.15 -14.15 -2.2 -14.25 -2.2 -14.35 -2.3 -14.4 -2.3 -14.5 -2.35 -14.6 -2.4 -14.7 -2.4 -14.75" fill="#333333" fill-rule="evenodd" stroke="none"/>
    <path d="M-3.55 -13.1 L-3.5 -13.0 -3.45 -12.95 -3.35 -12.9 -3.15 -12.65 -2.95 -12.35 -2.7 -12.05 -2.6 -11.95 -2.55 -11.9 -2.5 -11.8 -2.45 -11.75 -2.4 -11.65 -2.4 -11.55 -2.4 -11.45 -2.55 -11.35 -2.55 -11.3 -2.7 -11.3 -2.8 -11.35 -2.85 -11.45 -2.9 -11.5 -2.95 -11.6 -3.15 -11.7 -3.25 -11.8 -3.45 -12.0 -3.65 -12.3 -3.9 -12.6 -3.95 -12.7 -4.05 -12.75 -4.1 -12.85 -4.2 -12.9 -4.25 -13.0 -4.3 -13.05 -4.3 -13.15 -4.3 -13.25 -4.3 -13.35 -4.2 -13.4 -4.0 -13.4 -3.9 -13.35 -3.8 -13.3 -3.75 -13.2 -3.65 -13.15 -3.55 -13.1" fill="#333333" fill-rule="evenodd" stroke="none"/>
    <path d="M-3.3 18.35 L-3.15 18.35 -3.05 18.4 -3.0 18.5 -2.95 18.55 -2.85 18.6 -2.75 18.7 -2.65 18.85 -2.5 18.95 -2.4 19.05 -2.4 19.15 -2.3 19.3 -2.2 19.45 -2.2 19.55 -2.15 19.65 -2.15 19.75 -2.2 19.8 -2.3 19.9 -2.45 19.95 -2.55 19.85 -2.6 19.8 -2.7 19.65 -2.8 19.45 -2.8 19.35 -2.9 19.3 -3.05 19.15 -3.15 19.0 -3.3 18.85 -3.35 18.8 -3.4 18.7 -3.4 18.6 -3.4 18.5 -3.4 18.45 -3.3 18.35" fill="#333333" fill-rule="evenodd" stroke="none"/>
    <path d="M-3.95 19.1 L-3.9 19.25 -3.85 19.45 -3.75 19.5 -3.7 19.55 -3.65 19.65 -3.7 19.75 -3.8 19.9 -3.95 19.9 -4.05 19.85 -4.1 19.75 -4.2 19.7 -4.25 19.6 -4.25 19.55 -4.3 19.45 -4.35 19.35 -4.45 19.2 -4.5 19.0 -4.6 18.75 -4.65 18.65 -4.65 18.55 -4.65 18.45 -4.65 18.35 -4.65 18.25 -4.7 18.15 -4.7 18.05 -4.7 18.0 -4.65 17.95 -4.6 18.0 -4.55 18.1 -4.5 18.15 -4.4 18.25 -4.3 18.3 -4.25 18.4 -4.2 18.55 -4.15 18.75 -4.1 18.85 -4.05 18.9 -3.95 19.1" fill="#333333" fill-rule="evenodd" stroke="none"/>
    <path d="M-9.2 -9.5 L-9.15 -9.75 -9.15 -9.85 -9.2 -9.9 -9.2 -10.05 -9.2 -10.1 -9.15 -10.15 -9.05 -10.25 -8.9 -10.3 -8.8 -10.2 -8.75 -10.15 -8.7 -10.05 -8.65 -9.95 -8.55 -9.8 -8.55 -9.7 -8.55 -9.6 -8.55 -9.5 -8.55 -9.4 -8.55 -9.3 -8.55 -9.2 -8.55 -9.1 -8.55 -9.0 -8.55 -8.9 -8.5 -8.8 -8.5 -8.7 -8.45 -8.6 -8.45 -8.5 -8.45 -8.4 -8.45 -8.15 -8.45 -8.1 -8.45 -8.0 -8.4 -7.9 -8.45 -7.8 -8.6 -7.65 -8.75 -7.65 -8.85 -7.7 -8.95 -7.75 -9.0 -7.85 -9.05 -7.9 -9.1 -8.0 -9.1 -8.1 -9.1 -8.2 -9.1 -8.3 -9.1 -8.4 -9.1 -8.5 -9.15 -8.6 -9.15 -8.7 -9.2 -8.9 -9.2 -9.0 -9.2 -9.1 -9.2 -9.2 -9.2 -9.3 -9.2 -9.4 -9.2 -9.5" fill="#333333" fill-rule="evenodd" stroke="none"/>
    <path d="M-10.3 -11.65 L-10.3 -11.7 -10.2 -11.75 -10.05 -11.8 -9.9 -11.7 -9.85 -11.65 -9.85 -11.55 -9.8 -11.45 -9.8 -11.35 -9.75 -11.3 -9.75 -10.95 -9.8 -10.5 -9.9 -10.15 -9.9 -10.05 -9.9 -9.95 -9.9 -9.85 -9.9 -9.75 -9.9 -9.65 -9.9 -9.55 -9.9 -9.45 -10.05 -8.55 -10.3 -7.6 -10.6 -6.95 -10.7 -6.8 -10.75 -6.75 -10.85 -6.7 -10.85 -6.65 -11.05 -6.65 -11.15 -6.7 -11.2 -6.8 -11.25 -6.9 -10.95 -7.85 -10.7 -8.8 -10.6 -9.5 -10.6 -9.55 -10.6 -9.65 -10.6 -9.75 -10.65 -9.85 -10.65 -9.95 -10.6 -10.3 -10.5 -10.65 -10.5 -10.9 -10.5 -11.0 -10.45 -11.1 -10.4 -11.35 -10.35 -11.6 -10.3 -11.65" fill="#333333" fill-rule="evenodd" stroke="none"/>
    <path d="M-12.05 -9.8 L-12.05 -9.7 -12.05 -9.6 -12.05 -9.5 -12.05 -9.4 -12.1 -9.3 -12.15 -9.15 -12.25 -8.9 -12.55 -8.05 -12.8 -7.15 -13.0 -6.7 -13.1 -6.65 -13.25 -6.6 -13.35 -6.7 -13.45 -6.75 -13.45 -6.85 -13.45 -6.95 -13.45 -7.05 -13.45 -7.15 -13.4 -7.3 -13.2 -8.1 -12.9 -8.95 -12.75 -9.35 -12.7 -9.5 -12.7 -9.6 -12.7 -9.7 -12.7 -9.8 -12.7 -9.9 -12.7 -10.0 -12.7 -10.1 -12.7 -10.3 -12.65 -10.35 -12.45 -10.45 -12.3 -10.45 -12.2 -10.35 -12.15 -10.3 -12.1 -10.2 -12.05 -10.15 -12.05 -10.0 -12.05 -9.9 -12.05 -9.8" fill="#333333" fill-rule="evenodd" stroke="none"/>
  </g>
</svg>
