<?xml version="1.0" encoding="UTF-8" standalone="no"?>
<svg xmlns:xlink="http://www.w3.org/1999/xlink" height="53.15px" width="64.15px" xmlns="http://www.w3.org/2000/svg">
  <g transform="matrix(1.0, 0.0, 0.0, 1.0, 32.1, 26.55)">
    <path d="M15.75 -16.75 L16.85 -16.55 18.3 -16.1 19.5 -15.75 20.05 -15.85 20.8 -15.65 23.75 -14.6 24.65 -14.1 25.0 -13.55 25.25 -13.1 25.2 -12.7 25.2 -12.3 25.1 -11.95 25.15 -11.55 25.3 -11.1 25.55 -10.6 25.65 -10.15 25.65 -9.75 25.65 -9.35 25.55 -9.0 25.4 -8.65 25.3 -8.3 25.15 -7.95 25.05 -7.6 25.1 -7.25 25.6 -6.6 26.2 -6.0 26.45 -5.5 26.65 -5.05 27.2 -4.1 27.95 -3.0 28.15 -2.5 28.3 -2.05 28.25 -1.65 28.15 -1.3 28.05 -0.95 27.9 -0.6 27.8 -0.25 27.9 0.0 28.45 0.5 28.8 1.05 29.0 1.55 29.15 1.95 29.25 2.4 29.25 2.8 29.25 3.2 29.35 3.65 29.4 4.0 29.5 4.45 29.5 4.85 29.45 5.25 29.45 5.65 29.35 6.0 29.2 6.35 29.2 6.7 29.3 7.2 29.5 8.0 29.85 9.4 29.9 9.8 29.85 10.15 29.65 10.9 29.25 11.95 28.9 13.05 28.75 13.4 28.65 13.75 28.5 14.1 28.5 14.9 28.15 16.75 27.75 17.8 27.65 18.15 27.15 19.6 26.65 21.0 26.4 21.3 26.05 21.6 25.55 21.85 24.85 22.0 24.6 22.3 24.35 22.6 24.1 22.95 23.8 23.2 23.5 23.5 23.15 23.8 22.55 23.95 21.85 24.15 21.6 24.45 Q21.4 24.6 21.25 24.7 L20.9 25.0 20.3 25.2 19.8 25.4 19.2 25.6 Q16.95 25.4 14.8 24.5 12.45 23.55 10.05 22.95 L9.45 23.15 9.05 23.4 8.7 23.7 8.35 23.95 7.85 24.2 7.15 24.3 6.6 24.35 5.7 24.35 4.95 24.5 4.15 24.6 3.1 24.5 2.35 24.4 1.8 24.45 0.75 24.35 0.2 24.45 -0.85 24.35 -2.65 24.35 Q-3.95 24.4 -5.15 24.95 L-6.1 25.05 -6.85 25.2 -7.55 25.35 -8.05 25.55 -8.3 25.85 -8.65 26.15 -9.25 26.35 -10.25 26.25 -21.75 22.5 -22.75 22.45 -23.7 22.15 -23.75 22.2 Q-24.45 21.9 -25.1 21.55 L-25.9 21.1 -26.2 20.55 -26.45 20.1 -26.65 19.6 -26.7 19.2 -26.7 18.8 -26.7 18.4 -26.85 18.1 -27.9 17.7 -29.9 17.0 -30.8 16.45 -31.15 15.95 -31.2 15.5 -31.25 15.1 -31.35 14.65 -31.25 14.3 -31.1 13.95 -30.85 13.25 -30.6 12.5 -30.35 11.8 -30.2 11.5 -29.9 11.2 -29.8 10.8 -29.75 10.45 -29.75 10.05 -29.75 9.65 -29.85 9.2 -29.85 8.8 -29.85 8.4 -29.85 8.0 -29.95 7.55 -29.85 7.2 -29.75 6.85 -29.7 6.45 -29.7 6.05 -29.8 5.6 -29.7 5.25 -29.55 4.9 -29.45 4.55 -29.35 4.2 -29.3 3.8 -29.25 3.45 -29.4 2.95 -29.45 2.6 -29.5 2.15 -29.65 1.7 -30.2 1.05 -30.55 0.55 -30.65 0.15 -30.7 -0.25 -30.8 -0.7 -30.65 -1.05 -30.55 -1.4 -30.4 -1.75 -30.25 -2.1 -30.05 -2.45 -29.8 -2.75 -29.45 -3.05 -29.2 -3.3 -28.85 -3.65 -28.6 -3.95 -28.15 -4.15 -27.65 -4.4 -27.15 -4.6 -26.9 -4.9 -26.55 -5.2 -26.45 -5.55 -26.3 -5.9 -26.2 -6.3 -26.05 -6.65 -25.8 -6.95 -25.5 -7.25 -25.2 -7.5 -24.9 -7.8 -24.25 -8.4 -24.2 -8.75 -24.3 -9.2 -24.65 -10.15 -24.85 -11.0 -24.95 -11.4 -24.85 -11.8 -24.8 -12.15 -24.7 -12.55 -24.55 -12.9 -24.5 -13.25 -24.55 -13.7 -24.5 -14.05 -24.45 -14.45 -24.25 -15.2 -23.9 -16.25 -23.55 -16.9 -23.45 -17.3 -23.4 -17.65 -23.3 -18.05 -23.15 -18.35 -22.95 -18.7 -22.8 -19.05 -22.55 -19.35 -21.35 -20.65 Q-20.15 -21.75 -18.5 -22.0 L-17.15 -22.25 -14.4 -22.9 -13.25 -22.8 -12.8 -23.0 -12.2 -23.2 -11.5 -23.25 -11.1 -23.25 -10.2 -23.2 -9.7 -23.4 -9.15 -23.6 -8.7 -23.7 -7.8 -23.65 -7.05 -23.8 -6.6 -24.05 -6.0 -24.25 -4.95 -24.15 -3.55 -23.65 -2.65 -23.1 -2.3 -22.7 -1.4 -22.1 -1.15 -21.75 7.55 -18.8 9.8 -18.05 10.25 -18.2 15.75 -16.75 M8.1 11.75 L9.55 12.25 12.6 13.8 12.6 14.0 12.45 14.15 12.3 14.3 12.15 14.45 12.05 14.6 11.9 14.75 11.75 14.9 11.45 15.0 11.15 15.1 11.0 15.2 10.85 15.4 10.7 15.55 10.35 15.4 9.9 15.1 9.9 15.05 9.7 14.85 9.25 14.55 8.8 14.4 8.55 14.3 8.5 14.25 8.5 14.1 8.55 13.9 8.55 13.7 8.55 13.5 8.4 12.9 8.35 12.4 8.1 11.75 M2.6 10.1 L2.7 10.75 3.15 11.65 3.5 12.6 3.2 12.9 2.9 13.2 2.6 13.5 2.3 13.8 2.2 13.95 2.15 14.15 2.15 14.35 2.15 14.55 2.15 14.75 1.55 14.6 0.65 14.45 -0.1 14.35 -0.35 14.4 -1.0 14.25 -1.25 14.15 -1.75 14.1 -2.65 14.0 -2.8 14.0 -3.0 14.05 -3.35 14.15 -3.75 14.15 -3.9 14.15 -4.05 14.25 -4.35 14.35 -4.55 14.45 -4.8 14.6 -5.05 14.4 -5.45 14.1 -5.85 14.05 -6.0 14.05 -6.2 14.1 -6.65 14.05 -6.9 14.05 -7.05 14.05 -7.75 13.9 -8.05 13.85 -7.95 13.75 -7.6 13.75 -7.35 13.7 -7.1 13.6 -6.9 13.45 -6.75 13.3 -6.6 13.15 -6.55 13.0 -6.35 12.45 -6.1 11.75 -6.0 11.4 -5.75 10.65 -5.7 10.5 -5.6 10.3 -5.45 9.95 -5.35 9.8 -5.2 9.65 -5.05 9.5 -4.95 9.15 -4.9 8.95 -4.75 8.6 -4.65 8.25 -4.55 8.1 -4.5 7.9 -4.4 7.55 -4.35 7.35 -4.1 7.25 -3.8 7.15 -3.35 7.2 -3.0 7.25 -2.75 7.25 -2.5 7.3 -2.25 7.3 -1.85 7.3 -1.0 7.5 0.65 8.25 2.4 9.45 2.55 9.7 2.6 10.1 M9.15 3.65 L8.9 3.55 8.75 3.5 8.65 3.5 8.6 3.55 8.5 3.6 8.45 3.7 8.4 3.8 8.35 3.85 8.3 3.95 8.3 4.05 8.25 4.15 8.2 4.2 8.15 4.3 8.2 4.4 8.2 4.5 8.25 4.65 8.25 4.75 8.35 4.9 8.4 5.0 8.55 5.15 8.7 5.25 8.75 5.25 8.9 5.3 9.0 5.25 9.15 5.2 9.3 5.15 9.35 5.1 9.4 5.0 9.45 4.9 9.45 4.85 9.45 4.75 9.5 4.65 9.5 4.55 9.4 4.4 9.35 4.3 9.35 4.2 9.4 4.1 9.4 4.0 9.4 3.9 9.35 3.8 9.15 3.65 M5.15 3.05 L5.1 2.9 4.95 2.8 4.8 2.8 4.7 2.8 4.6 2.85 4.4 3.0 4.3 3.05 4.2 3.15 4.15 3.2 4.05 3.3 4.05 3.35 4.0 3.45 3.95 3.55 3.95 3.65 3.9 3.7 3.9 3.8 3.95 3.95 4.0 4.05 4.15 4.15 4.3 4.2 4.4 4.15 4.55 4.1 4.6 4.05 4.65 3.95 4.7 3.85 4.7 3.75 4.8 3.7 4.85 3.6 4.95 3.55 5.05 3.5 5.1 3.4 5.15 3.3 5.2 3.25 5.2 3.15 5.15 3.05 M7.7 3.0 L7.7 2.9 7.6 2.65 7.5 2.45 7.45 2.35 7.4 2.2 7.4 2.1 7.4 2.0 7.35 1.9 7.2 1.75 7.05 1.6 6.9 1.6 6.8 1.55 6.65 1.55 6.5 1.6 6.4 1.65 6.3 1.7 6.25 1.8 6.2 1.85 6.2 1.95 6.2 2.05 6.1 2.3 5.95 2.7 5.9 2.85 5.9 2.95 5.85 3.05 5.85 3.15 5.85 3.25 5.85 3.35 5.85 3.45 5.85 3.55 5.9 3.65 5.9 3.75 5.9 3.85 5.9 3.95 5.9 4.05 5.95 4.15 5.95 4.25 5.95 4.35 5.95 4.45 6.0 4.55 6.05 4.7 6.2 4.8 6.45 4.95 6.45 4.9 6.6 4.95 6.65 4.95 6.8 4.9 6.85 4.85 7.05 4.85 7.15 4.8 7.25 4.75 7.3 4.65 7.35 4.6 7.35 4.5 7.4 4.4 7.45 4.3 7.45 4.25 7.5 4.15 7.55 4.05 7.6 3.9 7.65 3.7 7.7 3.6 7.75 3.55 7.75 3.45 7.7 3.3 7.7 3.2 7.7 3.1 7.7 3.0 M19.65 7.4 L19.6 7.3 19.55 7.15 19.35 7.05 19.15 7.05 19.0 7.1 18.85 7.15 18.8 7.2 18.7 7.3 18.65 7.35 18.55 7.4 18.45 7.5 18.4 7.55 18.35 7.65 18.25 7.7 18.25 7.8 18.2 7.9 18.1 7.95 18.05 8.05 17.95 8.1 17.9 8.2 17.85 8.3 17.8 8.35 17.75 8.45 17.7 8.5 17.6 8.6 17.55 8.65 17.5 8.75 17.5 8.85 17.45 8.95 17.4 9.0 17.35 9.1 17.35 9.2 17.3 9.3 17.25 9.35 17.2 9.45 17.2 9.55 17.25 9.65 17.25 9.75 17.4 9.9 17.55 10.05 17.75 10.2 17.8 10.3 17.9 10.4 18.05 10.55 18.05 10.5 18.3 10.55 18.4 10.5 18.6 10.5 18.75 10.5 18.9 10.5 19.0 10.45 19.15 10.4 19.4 10.3 19.55 10.2 19.6 10.15 19.65 10.05 19.7 9.95 19.7 9.9 19.7 9.8 19.7 9.7 19.7 9.6 19.75 9.5 19.7 9.4 19.65 9.25 19.65 9.15 19.5 9.05 19.45 9.05 19.45 8.95 19.5 8.85 19.55 8.75 19.55 8.65 19.55 8.55 19.6 8.5 19.65 8.4 19.65 8.3 19.7 8.2 19.7 8.15 19.75 8.05 19.8 7.95 19.8 7.85 19.8 7.75 19.75 7.65 19.7 7.5 19.65 7.4 M12.5 4.65 L12.45 4.75 12.4 4.8 12.3 5.1 12.25 5.25 12.2 5.35 12.2 5.45 12.2 5.55 12.15 5.65 12.1 5.7 12.05 5.8 12.05 5.9 11.95 5.95 11.95 6.05 11.95 6.15 12.0 6.25 12.05 6.4 12.25 6.5 12.35 6.55 12.5 6.6 12.65 6.55 12.8 6.5 12.85 6.45 12.9 6.35 12.95 6.25 13.0 6.2 13.05 6.1 13.15 6.05 13.2 5.95 13.25 5.85 13.3 5.7 13.35 5.5 13.4 5.45 13.4 5.35 13.4 5.25 13.4 5.15 13.4 5.05 13.35 4.9 13.35 4.8 13.3 4.7 13.25 4.6 13.05 4.45 12.9 4.45 12.8 4.45 12.7 4.5 12.6 4.6 12.5 4.65 M11.65 4.55 L11.65 4.45 11.55 4.35 11.5 4.2 11.35 4.05 11.35 3.95 11.35 3.85 11.35 3.75 11.3 3.65 11.15 3.5 11.0 3.35 10.85 3.3 10.65 3.3 10.55 3.35 10.45 3.4 10.35 3.5 10.3 3.55 10.2 3.75 10.2 3.8 10.15 4.0 10.05 4.15 10.05 4.25 10.05 4.35 10.05 4.45 10.05 4.55 10.1 4.7 10.1 4.8 10.1 4.9 10.1 5.0 10.15 5.1 10.35 5.25 10.4 5.3 10.45 5.4 10.5 5.5 10.6 5.65 10.75 5.8 10.8 5.75 10.95 5.8 11.0 5.8 11.1 5.75 11.25 5.7 11.3 5.65 11.35 5.55 11.4 5.45 11.45 5.4 11.45 5.3 11.5 5.2 11.5 5.1 11.5 5.0 11.5 4.9 11.55 4.8 11.55 4.75 11.6 4.65 11.65 4.55 M17.0 5.5 L16.9 5.6 16.85 5.65 16.75 5.75 16.7 5.8 16.6 5.9 16.55 5.95 16.5 6.05 16.45 6.15 16.45 6.25 16.45 6.35 16.45 6.4 16.35 6.5 16.35 6.6 16.3 6.75 16.25 6.85 16.2 7.05 16.1 7.2 16.1 7.3 16.05 7.4 16.0 7.45 15.95 7.55 15.95 7.65 15.95 7.75 15.9 7.8 15.85 7.9 15.85 8.0 15.9 8.15 15.95 8.25 16.15 8.4 16.3 8.4 16.45 8.4 16.55 8.4 16.65 8.5 16.85 8.6 17.0 8.65 17.15 8.6 17.25 8.55 17.3 8.5 17.35 8.4 17.45 8.35 17.45 8.25 17.6 7.9 17.65 7.6 17.75 7.45 17.85 7.15 17.9 7.1 17.9 7.0 17.95 6.9 18.0 6.85 18.0 6.75 18.05 6.65 18.05 6.55 18.1 6.45 18.1 6.35 18.05 6.25 18.05 6.15 18.05 6.05 18.05 5.95 18.05 5.85 18.0 5.75 17.8 5.6 17.7 5.55 17.6 5.5 17.4 5.45 17.25 5.45 17.15 5.45 17.0 5.5 M16.05 3.7 L15.9 3.65 15.8 3.7 15.65 3.75 15.55 3.85 15.5 3.9 15.4 3.95 15.4 4.05 15.35 4.15 15.35 4.25 15.3 4.35 15.2 4.4 15.05 4.45 14.95 4.5 14.9 4.6 14.85 4.65 14.8 4.75 14.8 4.85 14.8 4.95 14.75 5.05 14.7 5.1 14.65 5.2 14.65 5.3 14.6 5.4 14.55 5.45 14.55 5.55 14.55 5.65 14.45 5.75 14.45 5.85 14.4 5.9 14.3 6.0 14.25 6.05 14.2 6.15 14.15 6.2 14.1 6.3 14.1 6.4 14.1 6.5 14.1 6.6 14.15 6.75 14.3 6.85 14.35 6.9 14.4 7.0 14.45 7.15 14.65 7.25 14.8 7.3 14.95 7.35 15.1 7.3 15.2 7.25 15.25 7.2 15.35 7.1 15.4 7.05 15.5 6.95 15.55 6.85 15.55 6.8 15.6 6.7 15.6 6.6 15.65 6.5 15.7 6.45 15.75 6.35 15.8 6.25 15.85 6.2 15.9 6.1 15.95 6.0 16.0 5.95 16.1 5.6 16.2 5.4 16.3 5.15 16.35 4.95 16.35 4.85 16.3 4.75 16.3 4.65 16.35 4.55 16.3 4.45 16.3 4.35 16.35 4.25 16.4 4.15 16.4 4.1 16.3 3.95 16.25 3.85 16.05 3.7 M17.9 0.7 L17.85 0.55 17.8 0.45 17.6 0.3 17.45 0.3 17.35 0.3 17.0 0.5 16.7 0.6 16.55 0.65 16.5 0.7 16.4 0.8 16.4 0.9 16.35 1.0 16.35 1.1 16.35 1.2 16.35 1.3 16.4 1.4 16.45 1.5 16.65 1.65 16.85 1.75 17.0 1.75 17.1 1.75 17.15 1.7 17.3 1.65 17.35 1.6 17.45 1.5 17.5 1.45 17.55 1.35 17.55 1.25 17.6 1.15 17.7 1.1 17.75 1.05 17.8 0.95 17.85 0.85 17.85 0.75 17.9 0.7 M20.4 14.0 L20.4 13.8 20.25 13.35 19.15 11.85 18.2 10.8 17.35 10.25 Q14.25 8.25 10.6 7.4 L10.35 7.4 9.9 7.35 8.15 6.9 7.9 6.8 Q5.3 5.4 2.5 4.5 L2.3 4.3 2.0 4.1 1.8 3.85 1.35 3.6 1.0 3.35 0.55 3.15 0.1 2.85 -0.15 2.8 -0.2 2.75 -0.35 2.6 -0.75 2.25 -1.25 1.9 -1.3 1.85 -1.4 1.65 Q-2.85 0.85 -4.4 0.3 L-6.4 -0.05 -6.65 -0.1 -9.05 -0.85 -9.55 -0.9 -10.25 -1.0 -10.65 -1.05 -10.9 -1.05 -11.4 -1.1 -11.65 -1.0 -11.95 -0.95 -12.05 -0.8 -12.25 -0.65 -12.35 -0.5 -12.45 -0.3 -12.55 -0.15 -12.55 0.25 -12.55 0.45 -12.5 0.65 -12.45 0.9 -12.45 1.1 -12.4 1.3 -12.4 1.5 -12.2 1.75 -12.05 2.05 -11.85 2.3 -11.65 2.55 -11.4 2.85 -11.2 3.1 -10.85 3.35 -10.5 3.55 -10.25 3.8 -10.25 3.9 -10.3 4.1 -10.35 4.3 -10.4 4.45 -10.5 4.65 -10.55 4.8 -10.65 4.95 -10.9 5.1 -11.35 5.3 -11.8 5.6 -12.0 5.7 -12.15 5.85 -12.65 6.05 -12.9 6.2 -13.0 6.35 -13.2 6.5 -13.35 6.65 -13.5 6.8 -13.95 6.8 -14.5 6.65 -14.55 6.55 -14.65 6.3 -14.85 6.05 -15.25 5.7 -15.6 5.45 -15.95 5.25 -16.0 5.1 -15.95 4.9 -15.9 4.75 -15.9 4.55 -15.9 4.35 -15.9 4.15 -16.0 3.9 -16.2 3.65 -16.6 3.35 -17.0 3.3 -17.25 3.35 -17.65 3.4 -17.85 3.5 -18.35 3.4 -18.65 3.45 -19.05 3.5 -20.2 3.2 -20.6 3.1 -20.8 3.1 -21.05 3.15 -21.6 3.2 -21.95 3.2 -22.75 3.35 -23.05 3.45 -23.2 3.6 -23.35 3.75 -23.6 3.85 -23.8 4.0 -23.95 4.15 -24.1 4.3 -24.25 4.45 -24.3 4.6 -24.35 4.8 -24.4 5.0 -24.45 5.15 -24.55 5.35 -24.6 5.5 -24.65 5.7 -24.65 5.9 -24.6 6.1 -24.55 6.3 -24.4 6.55 -23.95 6.85 -23.5 7.1 -23.1 7.15 -23.0 7.15 -22.7 7.1 -22.3 7.15 -22.25 7.2 -22.35 7.35 -22.4 7.55 -22.45 7.7 -22.5 7.9 -22.5 8.1 -22.5 8.3 -22.45 8.5 -22.45 8.7 -22.45 8.9 -22.45 9.1 -22.4 9.3 -22.35 9.55 -22.1 9.8 -21.85 10.1 -21.6 10.4 -21.35 10.7 -21.15 10.95 -21.05 11.2 -21.0 11.4 -20.95 11.6 -20.65 11.9 -20.2 12.3 -19.85 12.6 -19.4 13.0 -19.15 13.15 -18.75 13.45 -18.0 13.8 -17.9 13.9 -17.7 14.1 -17.5 14.35 -17.1 14.65 -15.9 15.05 -14.4 15.55 -12.3 16.3 -12.25 16.25 -11.9 16.35 -11.55 16.35 -11.25 16.25 -11.05 16.15 -10.9 16.0 -10.8 15.8 -10.75 15.75 -10.3 15.8 -10.1 15.95 -10.05 16.15 -9.85 16.4 -9.5 16.65 -7.8 17.15 -7.3 17.25 -7.0 17.2 -6.35 17.25 -6.1 17.25 -5.95 17.25 -5.75 17.2 -5.55 17.05 -5.25 16.95 -4.9 16.85 -4.65 16.75 -4.3 16.7 -4.1 16.55 -3.9 16.45 -3.65 16.3 -3.3 16.25 -2.85 16.25 -2.7 16.25 -2.5 16.2 -1.95 16.35 -1.75 16.65 -1.35 16.9 1.65 17.75 8.35 18.65 8.9 18.8 9.3 18.9 9.6 18.9 10.2 18.95 10.55 19.0 11.3 18.95 12.0 18.95 12.65 18.8 13.45 18.65 14.8 18.6 15.1 18.5 15.6 18.3 16.0 18.0 16.15 17.9 16.2 17.7 16.3 17.55 16.4 17.35 16.55 17.25 16.75 17.1 16.85 16.95 17.1 16.8 17.35 16.7 17.7 16.65 17.95 16.5 18.15 16.4 18.3 16.25 18.4 16.1 18.5 15.9 18.65 15.8 19.3 15.35 19.85 14.95 20.15 14.7 20.25 14.5 20.3 14.35 20.35 14.15 20.4 14.0 M20.75 10.2 L20.65 10.2 20.6 10.25 20.5 10.3 20.45 10.35 20.4 10.45 20.3 10.55 20.3 10.6 20.15 10.7 20.1 10.75 20.0 10.8 19.9 10.9 19.8 10.95 19.6 10.95 19.55 10.95 19.5 11.05 19.45 11.15 19.45 11.25 19.6 11.35 19.55 11.45 19.5 11.55 19.5 11.65 19.55 11.75 19.6 11.85 19.75 12.0 19.9 12.0 20.2 11.95 20.55 11.75 20.75 11.65 20.8 11.55 20.85 11.5 20.95 11.4 21.05 11.35 21.1 11.25 21.15 11.2 21.2 11.1 21.2 11.0 21.25 10.9 21.3 10.85 21.3 10.75 21.3 10.65 21.25 10.5 21.2 10.4 21.05 10.3 20.9 10.2 20.75 10.2 M20.3 1.55 L20.25 1.45 20.05 1.3 19.95 1.2 19.75 1.1 19.5 1.1 19.35 1.15 19.3 1.2 19.2 1.25 19.15 1.35 19.15 1.45 19.05 1.5 19.05 1.6 19.0 1.7 19.0 1.8 18.95 1.9 18.95 2.0 18.95 2.1 18.95 2.15 18.9 2.25 18.85 2.35 18.85 2.45 18.85 2.55 18.8 2.6 18.75 2.7 18.7 2.8 18.7 2.9 18.7 3.0 18.7 3.1 18.7 3.2 18.75 3.3 18.8 3.4 18.95 3.55 19.1 3.6 19.25 3.65 19.4 3.65 19.5 3.55 19.65 3.5 19.7 3.45 19.8 3.4 19.9 3.2 20.05 2.75 20.15 2.4 20.2 2.2 20.2 2.1 20.2 2.0 20.2 1.9 20.3 1.85 20.3 1.75 20.35 1.65 20.3 1.55 M14.75 -0.25 L14.7 -0.1 14.65 0.1 14.6 0.15 14.6 0.25 14.6 0.35 14.5 0.45 14.5 0.55 14.45 0.6 14.4 0.7 14.35 0.8 14.35 0.85 14.35 0.95 14.35 1.05 14.3 1.15 14.25 1.25 14.25 1.35 14.2 1.4 14.1 1.6 14.05 1.85 13.95 2.05 13.95 2.15 13.95 2.25 13.95 2.35 13.95 2.45 14.05 2.55 14.25 2.7 14.4 2.7 14.8 2.75 14.9 2.75 15.05 2.65 15.15 2.6 15.2 2.55 15.3 2.45 15.3 2.35 15.35 2.3 15.45 2.1 15.5 1.95 15.55 1.85 15.55 1.75 15.6 1.7 15.65 1.6 15.7 1.5 15.75 1.45 15.75 1.35 15.8 1.25 15.85 1.15 15.85 1.05 15.85 0.95 15.85 0.85 15.85 0.75 15.85 0.65 15.85 0.6 15.85 0.45 15.8 0.35 15.8 0.25 15.75 0.15 15.75 0.05 15.75 -0.05 15.7 -0.2 15.65 -0.3 15.55 -0.45 15.35 -0.55 15.2 -0.6 15.1 -0.55 14.95 -0.5 14.9 -0.45 14.85 -0.35 14.75 -0.25 M12.65 -1.1 L12.6 -1.0 12.55 -0.9 12.55 -0.8 12.45 -0.75 12.4 -0.65 12.35 -0.6 12.3 -0.5 12.25 -0.4 12.2 -0.35 12.15 -0.25 12.1 -0.15 12.1 -0.1 12.0 0.0 11.95 0.1 11.9 0.15 11.85 0.25 11.8 0.3 11.75 0.4 11.7 0.5 11.65 0.55 11.6 0.65 11.55 0.75 11.55 0.85 11.5 0.9 11.45 1.0 11.45 1.1 11.45 1.2 11.5 1.3 11.55 1.45 11.75 1.55 11.9 1.6 12.05 1.55 12.15 1.5 12.2 1.45 12.5 1.25 12.8 1.15 12.9 1.05 12.95 1.0 13.05 0.95 13.15 0.85 13.2 0.8 13.25 0.7 13.35 0.6 13.35 0.55 13.4 0.45 13.45 0.35 13.5 0.3 13.5 0.2 13.55 0.1 13.6 0.0 13.6 -0.1 13.6 -0.2 13.65 -0.25 13.7 -0.35 13.75 -0.45 13.75 -0.5 13.8 -0.6 13.8 -0.7 13.75 -0.85 13.65 -0.95 13.45 -1.1 13.35 -1.1 13.3 -1.2 13.15 -1.35 13.0 -1.35 12.9 -1.35 12.85 -1.3 12.75 -1.25 12.7 -1.15 12.65 -1.1 M9.95 -2.2 L9.85 -2.1 9.75 -2.05 9.7 -1.95 9.65 -1.9 9.6 -1.8 9.6 -1.7 9.55 -1.6 9.55 -1.55 9.55 -1.45 9.5 -1.35 9.45 -1.25 9.4 -1.2 9.35 -1.1 9.35 -1.0 9.35 -0.9 9.35 -0.8 9.35 -0.7 9.35 -0.6 9.35 -0.5 9.35 -0.4 9.35 -0.3 9.4 -0.2 9.4 -0.1 9.4 0.0 9.4 0.1 9.45 0.25 9.5 0.35 9.6 0.5 9.7 0.6 9.9 0.75 10.1 0.75 10.25 0.7 10.35 0.65 10.45 0.6 10.55 0.5 10.65 0.45 10.65 0.35 10.7 0.25 10.75 0.2 10.8 0.1 10.85 0.0 10.9 -0.05 10.9 -0.15 10.95 -0.25 10.95 -0.35 11.0 -0.4 11.0 -0.5 11.05 -0.6 11.0 -0.7 11.0 -0.8 11.0 -0.95 10.95 -1.05 10.9 -1.15 10.8 -1.3 10.8 -1.4 10.8 -1.5 10.8 -1.6 10.8 -1.7 10.8 -1.8 10.8 -1.9 10.7 -2.0 10.55 -2.15 10.4 -2.25 10.25 -2.25 10.15 -2.2 9.95 -2.2 M7.55 -2.15 L7.5 -2.05 7.5 -2.0 7.45 -1.9 7.35 -1.8 7.3 -1.75 7.25 -1.65 7.2 -1.55 7.1 -1.5 7.05 -1.45 7.05 -1.35 7.1 -1.2 7.2 -1.1 7.2 -1.0 7.2 -0.9 7.15 -0.8 7.15 -0.7 7.15 -0.6 7.2 -0.5 7.3 -0.35 7.4 -0.25 7.55 -0.15 7.8 -0.15 8.0 -0.2 8.15 -0.2 8.25 -0.3 8.3 -0.35 8.4 -0.45 8.45 -0.5 8.5 -0.6 8.55 -0.75 8.6 -0.85 8.65 -0.95 8.65 -1.05 8.65 -1.15 8.6 -1.25 8.55 -1.35 8.6 -1.45 8.65 -1.55 8.65 -1.65 8.7 -1.7 8.75 -1.8 8.75 -1.9 8.75 -2.0 8.7 -2.1 8.65 -2.25 8.5 -2.4 8.3 -2.5 8.15 -2.55 8.1 -2.55 7.95 -2.5 7.75 -2.5 7.65 -2.4 7.6 -2.35 7.55 -2.25 7.55 -2.15 M10.1 -9.0 L9.9 -9.2 7.75 -10.35 Q4.05 -12.15 0.05 -13.3 -5.85 -15.05 -11.7 -13.45 L-12.05 -13.4 -12.3 -13.3 -12.9 -12.9 -13.35 -12.65 -13.5 -12.5 -13.7 -12.65 -13.9 -12.7 -14.4 -12.75 -14.7 -12.65 -14.95 -12.55 -16.0 -12.8 -16.35 -12.9 -16.65 -12.85 -17.2 -12.9 -17.35 -12.9 -17.55 -12.85 -17.8 -12.75 -18.05 -12.6 -18.15 -12.45 -18.35 -12.3 -18.45 -12.15 -18.5 -12.0 -18.6 -11.8 -18.6 -11.6 -18.55 -11.4 -18.5 -11.2 -18.5 -11.0 -18.3 -10.7 -17.9 -10.3 -17.95 -10.2 -18.15 -10.05 -18.3 -9.9 -18.5 -9.8 -18.65 -9.65 -18.8 -9.5 -18.9 -9.35 -19.0 -9.15 -18.95 -8.95 -18.95 -8.75 -18.95 -8.55 -18.75 -8.3 -18.65 -8.0 -18.7 -7.85 -18.8 -7.5 -18.95 -7.15 -19.0 -6.95 -19.05 -6.8 -19.15 -6.6 -19.15 -6.4 -19.15 -6.2 -19.15 -6.0 -19.1 -5.8 -19.05 -5.6 -19.05 -5.4 -19.0 -5.15 -18.95 -4.95 -18.85 -4.75 -18.7 -4.45 -18.25 -4.2 -17.55 -3.95 -17.5 -3.95 -17.15 -3.85 -16.9 -3.9 -16.05 -3.85 -15.5 -3.85 -15.4 -3.85 -15.15 -3.95 -14.75 -4.15 -14.5 -4.3 -14.35 -4.4 -14.2 -4.55 -14.15 -4.75 -14.05 -4.9 -14.0 -5.1 -14.0 -5.3 -14.05 -5.5 -14.1 -5.75 -14.25 -6.0 -14.45 -6.3 -14.4 -6.45 -13.85 -6.45 -11.4 -6.3 -10.9 -6.25 -2.0 -3.45 -1.9 -3.4 0.15 -2.6 0.5 -2.5 4.25 -2.55 6.0 -2.45 6.3 -2.5 6.65 -2.55 7.05 -2.55 7.4 -2.5 7.7 -2.55 7.95 -2.65 8.15 -2.8 8.35 -2.9 8.5 -3.05 8.6 -3.25 8.65 -3.4 8.7 -3.6 8.7 -3.75 8.7 -3.95 9.65 -3.65 Q13.6 -1.85 17.85 -1.4 L18.0 -1.4 18.3 -1.45 18.9 -1.25 19.05 -1.15 21.4 -0.25 21.75 0.05 21.75 0.0 22.2 0.05 22.5 -0.05 22.75 -0.15 22.85 -0.3 23.05 -0.65 23.1 -0.8 23.2 -1.0 23.2 -1.2 23.25 -1.4 23.05 -1.85 22.9 -2.1 22.65 -2.4 22.45 -2.65 22.35 -2.9 22.35 -3.1 22.45 -3.25 22.4 -3.45 22.35 -3.65 22.25 -3.9 22.25 -4.0 22.3 -4.15 22.2 -4.4 22.2 -4.55 22.1 -4.6 21.95 -4.9 21.55 -5.15 21.25 -5.35 19.95 -5.6 19.1 -5.75 18.8 -5.65 18.5 -5.55 16.55 -6.15 16.25 -6.25 16.05 -6.45 15.6 -6.75 14.4 -7.1 11.4 -7.7 11.1 -7.85 11.0 -8.1 10.9 -8.35 10.65 -8.6 10.25 -8.9 10.1 -9.0" fill="#ab98a0" fill-rule="evenodd" stroke="none"/>
    <path d="M10.1 -9.0 L10.25 -8.9 10.65 -8.6 10.9 -8.35 11.0 -8.1 11.1 -7.85 11.4 -7.7 14.4 -7.1 15.6 -6.75 16.05 -6.45 16.25 -6.25 16.55 -6.15 18.5 -5.55 18.8 -5.65 19.1 -5.75 19.95 -5.6 21.25 -5.35 21.55 -5.15 21.95 -4.9 22.1 -4.6 22.2 -4.55 22.2 -4.4 22.3 -4.15 22.25 -4.0 22.25 -3.9 22.35 -3.65 22.4 -3.45 22.45 -3.25 22.35 -3.1 22.35 -2.9 22.45 -2.65 22.65 -2.4 22.9 -2.1 23.05 -1.85 23.25 -1.4 23.2 -1.2 23.2 -1.0 23.1 -0.8 23.05 -0.65 22.85 -0.3 22.75 -0.15 22.5 -0.05 22.2 0.05 21.75 0.0 21.75 0.05 21.4 -0.25 19.05 -1.15 18.9 -1.25 18.3 -1.45 18.0 -1.4 17.85 -1.4 Q13.6 -1.85 9.65 -3.65 L8.7 -3.95 8.7 -3.75 8.7 -3.6 8.65 -3.4 8.6 -3.25 8.5 -3.05 8.35 -2.9 8.15 -2.8 7.95 -2.65 7.7 -2.55 7.4 -2.5 7.05 -2.55 6.65 -2.55 6.3 -2.5 6.0 -2.45 4.25 -2.55 0.5 -2.5 0.15 -2.6 -1.9 -3.4 -2.0 -3.45 -10.9 -6.25 -11.4 -6.3 -13.85 -6.45 -14.4 -6.45 -14.45 -6.3 -14.25 -6.0 -14.1 -5.75 -14.05 -5.5 -14.0 -5.3 -14.0 -5.1 -14.05 -4.9 -14.15 -4.75 -14.2 -4.55 -14.35 -4.4 -14.5 -4.3 -14.75 -4.15 -15.15 -3.95 -15.4 -3.85 -15.5 -3.85 -16.05 -3.85 -16.9 -3.9 -17.15 -3.85 -17.5 -3.95 -17.55 -3.95 -18.25 -4.2 -18.7 -4.45 -18.85 -4.75 -18.95 -4.95 -19.0 -5.15 -19.05 -5.4 -19.05 -5.6 -19.1 -5.8 -19.15 -6.0 -19.15 -6.2 -19.15 -6.4 -19.15 -6.6 -19.05 -6.8 -19.0 -6.95 -18.95 -7.15 -18.8 -7.5 -18.7 -7.85 -18.65 -8.0 -18.75 -8.3 -18.95 -8.55 -18.95 -8.75 -18.95 -8.95 -19.0 -9.15 -18.9 -9.35 -18.8 -9.5 -18.65 -9.65 -18.5 -9.8 -18.3 -9.9 -18.15 -10.05 -17.95 -10.2 -17.9 -10.3 -18.3 -10.7 -18.5 -11.0 -18.5 -11.2 -18.55 -11.4 -18.6 -11.6 -18.6 -11.8 -18.5 -12.0 -18.45 -12.15 -18.35 -12.3 -18.15 -12.45 -18.05 -12.6 -17.8 -12.75 -17.55 -12.85 -17.35 -12.9 -17.2 -12.9 -16.65 -12.85 -16.35 -12.9 -16.0 -12.8 -14.95 -12.55 -14.7 -12.65 -14.4 -12.75 -13.9 -12.7 -13.7 -12.65 -13.5 -12.5 -13.35 -12.65 -12.9 -12.9 -12.3 -13.3 -12.05 -13.4 -11.7 -13.45 Q-5.85 -15.05 0.05 -13.3 4.05 -12.15 7.75 -10.35 L9.9 -9.2 10.1 -9.0 M7.55 -2.15 L7.55 -2.25 7.6 -2.35 7.65 -2.4 7.75 -2.5 7.95 -2.5 8.1 -2.55 8.15 -2.55 8.3 -2.5 8.5 -2.4 8.65 -2.25 8.7 -2.1 8.75 -2.0 8.75 -1.9 8.75 -1.8 8.7 -1.7 8.65 -1.65 8.65 -1.55 8.6 -1.45 8.55 -1.35 8.6 -1.25 8.65 -1.15 8.65 -1.05 8.65 -0.95 8.6 -0.85 8.55 -0.75 8.5 -0.6 8.45 -0.5 8.4 -0.45 8.3 -0.35 8.25 -0.3 8.15 -0.2 8.0 -0.2 7.8 -0.15 7.55 -0.15 7.4 -0.25 7.3 -0.35 7.2 -0.5 7.15 -0.6 7.15 -0.7 7.15 -0.8 7.2 -0.9 7.2 -1.0 7.2 -1.1 7.1 -1.2 7.05 -1.35 7.05 -1.45 7.1 -1.5 7.2 -1.55 7.25 -1.65 7.3 -1.75 7.35 -1.8 7.45 -1.9 7.5 -2.0 7.5 -2.05 7.55 -2.15 M9.95 -2.2 L10.15 -2.2 10.25 -2.25 10.4 -2.25 10.55 -2.15 10.7 -2.0 10.8 -1.9 10.8 -1.8 10.8 -1.7 10.8 -1.6 10.8 -1.5 10.8 -1.4 10.8 -1.3 10.9 -1.15 10.95 -1.05 11.0 -0.95 11.0 -0.8 11.0 -0.7 11.05 -0.6 11.0 -0.5 11.0 -0.4 10.95 -0.35 10.95 -0.25 10.9 -0.15 10.9 -0.05 10.85 0.0 10.8 0.1 10.75 0.2 10.7 0.25 10.65 0.35 10.65 0.45 10.55 0.5 10.45 0.6 10.35 0.65 10.25 0.7 10.1 0.75 9.9 0.75 9.7 0.6 9.6 0.5 9.5 0.35 9.45 0.25 9.4 0.1 9.4 0.0 9.4 -0.1 9.4 -0.2 9.35 -0.3 9.35 -0.4 9.35 -0.5 9.35 -0.6 9.35 -0.7 9.35 -0.8 9.35 -0.9 9.35 -1.0 9.35 -1.1 9.4 -1.2 9.45 -1.25 9.5 -1.35 9.55 -1.45 9.55 -1.55 9.55 -1.6 9.6 -1.7 9.6 -1.8 9.65 -1.9 9.7 -1.95 9.75 -2.05 9.85 -2.1 9.95 -2.2 M12.65 -1.1 L12.7 -1.15 12.75 -1.25 12.85 -1.3 12.9 -1.35 13.0 -1.35 13.15 -1.35 13.3 -1.2 13.35 -1.1 13.45 -1.1 13.65 -0.95 13.75 -0.85 13.8 -0.7 13.8 -0.6 13.75 -0.5 13.75 -0.45 13.7 -0.35 13.65 -0.25 13.6 -0.2 13.6 -0.1 13.6 0.0 13.55 0.1 13.5 0.2 13.5 0.3 13.45 0.35 13.4 0.45 13.35 0.55 13.35 0.6 13.25 0.7 13.2 0.8 13.15 0.85 13.05 0.95 12.95 1.0 12.9 1.05 12.8 1.15 12.5 1.25 12.2 1.45 12.15 1.5 12.05 1.55 11.9 1.6 11.75 1.55 11.55 1.45 11.5 1.3 11.45 1.2 11.45 1.1 11.45 1.0 11.5 0.9 11.55 0.85 11.55 0.75 11.6 0.65 11.65 0.55 11.7 0.5 11.75 0.4 11.8 0.3 11.85 0.25 11.9 0.15 11.95 0.1 12.0 0.0 12.1 -0.1 12.1 -0.15 12.15 -0.25 12.2 -0.35 12.25 -0.4 12.3 -0.5 12.35 -0.6 12.4 -0.65 12.45 -0.75 12.55 -0.8 12.55 -0.9 12.6 -1.0 12.65 -1.1 M14.75 -0.25 L14.85 -0.35 14.9 -0.45 14.95 -0.5 15.1 -0.55 15.2 -0.6 15.35 -0.55 15.55 -0.45 15.65 -0.3 15.7 -0.2 15.75 -0.05 15.75 0.05 15.75 0.15 15.8 0.25 15.8 0.35 15.85 0.45 15.85 0.6 15.85 0.65 15.85 0.75 15.85 0.85 15.85 0.95 15.85 1.05 15.85 1.15 15.8 1.25 15.75 1.35 15.75 1.45 15.7 1.5 15.65 1.6 15.6 1.7 15.55 1.75 15.55 1.85 15.5 1.95 15.45 2.1 15.35 2.3 15.3 2.35 15.3 2.45 15.2 2.55 15.15 2.6 15.05 2.65 14.9 2.75 14.8 2.75 14.4 2.7 14.25 2.7 14.05 2.55 13.95 2.45 13.95 2.35 13.95 2.25 13.95 2.15 13.95 2.05 14.05 1.85 14.1 1.6 14.2 1.4 14.25 1.35 14.25 1.25 14.3 1.15 14.35 1.05 14.35 0.95 14.35 0.85 14.35 0.8 14.4 0.7 14.45 0.6 14.5 0.55 14.5 0.45 14.6 0.35 14.6 0.25 14.6 0.15 14.65 0.1 14.7 -0.1 14.75 -0.25 M20.3 1.55 L20.35 1.65 20.3 1.75 20.3 1.85 20.2 1.9 20.2 2.0 20.2 2.1 20.2 2.2 20.15 2.4 20.05 2.75 19.9 3.2 19.8 3.4 19.7 3.45 19.65 3.5 19.5 3.55 19.4 3.65 19.25 3.65 19.1 3.6 18.95 3.55 18.8 3.4 18.75 3.3 18.7 3.2 18.7 3.1 18.7 3.0 18.7 2.9 18.7 2.8 18.75 2.7 18.8 2.6 18.85 2.55 18.85 2.45 18.85 2.35 18.9 2.25 18.95 2.15 18.95 2.1 18.95 2.0 18.95 1.9 19.0 1.8 19.0 1.7 19.05 1.6 19.05 1.5 19.15 1.45 19.15 1.35 19.2 1.25 19.3 1.2 19.35 1.15 19.5 1.1 19.75 1.1 19.95 1.2 20.05 1.3 20.25 1.45 20.3 1.55 M20.75 10.2 L20.9 10.2 21.05 10.3 21.2 10.4 21.25 10.5 21.3 10.65 21.3 10.75 21.3 10.85 21.25 10.9 21.2 11.0 21.2 11.1 21.15 11.2 21.1 11.25 21.05 11.35 20.95 11.4 20.85 11.5 20.8 11.55 20.75 11.65 20.55 11.75 20.2 11.95 19.9 12.0 19.75 12.0 19.6 11.85 19.55 11.75 19.5 11.65 19.5 11.55 19.55 11.45 19.6 11.35 19.45 11.25 19.45 11.15 19.5 11.05 19.55 10.95 19.6 10.95 19.8 10.95 19.9 10.9 20.0 10.8 20.1 10.75 20.15 10.7 20.3 10.6 20.3 10.55 20.4 10.45 20.45 10.35 20.5 10.3 20.6 10.25 20.65 10.2 20.75 10.2 M20.4 14.0 L20.35 14.15 20.3 14.35 20.25 14.5 20.15 14.7 19.85 14.95 19.3 15.35 18.65 15.8 18.5 15.9 18.4 16.1 18.3 16.25 18.15 16.4 17.95 16.5 17.7 16.65 17.35 16.7 17.1 16.8 16.85 16.95 16.75 17.1 16.55 17.25 16.4 17.35 16.3 17.55 16.2 17.7 16.15 17.9 16.0 18.0 15.6 18.3 15.1 18.5 14.8 18.6 13.45 18.65 12.65 18.8 12.0 18.95 11.3 18.95 10.55 19.0 10.2 18.95 9.6 18.9 9.3 18.9 8.9 18.8 8.35 18.65 1.65 17.75 -1.35 16.9 -1.75 16.65 -1.95 16.35 -2.5 16.2 -2.7 16.25 -2.85 16.25 -3.3 16.25 -3.65 16.3 -3.9 16.45 -4.1 16.55 -4.3 16.7 -4.65 16.75 -4.9 16.85 -5.25 16.95 -5.55 17.05 -5.75 17.2 -5.95 17.25 -6.1 17.25 -6.35 17.25 -7.0 17.2 -7.3 17.25 -7.8 17.15 -9.5 16.65 -9.85 16.4 -10.05 16.15 -10.1 15.95 -10.3 15.8 -10.75 15.75 -10.8 15.8 -10.9 16.0 -11.05 16.15 -11.25 16.25 -11.55 16.35 -11.9 16.35 -12.25 16.25 -12.3 16.3 -14.4 15.55 -15.9 15.05 -17.1 14.65 -17.5 14.35 -17.7 14.1 -17.9 13.9 -18.0 13.8 -18.75 13.45 -19.15 13.15 -19.4 13.0 -19.85 12.6 -20.2 12.3 -20.65 11.9 -20.95 11.6 -21.0 11.4 -21.05 11.2 -21.15 10.95 -21.35 10.7 -21.6 10.4 -21.85 10.1 -22.1 9.8 -22.35 9.55 -22.4 9.3 -22.45 9.1 -22.45 8.9 -22.45 8.7 -22.45 8.5 -22.5 8.3 -22.5 8.1 -22.5 7.9 -22.45 7.7 -22.4 7.55 -22.35 7.35 -22.25 7.2 -22.3 7.15 -22.7 7.1 -23.0 7.15 -23.1 7.15 -23.5 7.1 -23.95 6.85 -24.4 6.55 -24.55 6.3 -24.6 6.1 -24.65 5.9 -24.65 5.7 -24.6 5.5 -24.55 5.35 -24.45 5.15 -24.4 5.0 -24.35 4.8 -24.3 4.6 -24.25 4.45 -24.1 4.3 -23.95 4.15 -23.8 4.0 -23.6 3.85 -23.35 3.75 -23.2 3.6 -23.05 3.45 -22.75 3.35 -21.95 3.2 -21.6 3.2 -21.05 3.15 -20.8 3.1 -20.6 3.1 -20.2 3.2 -19.05 3.5 -18.65 3.45 -18.35 3.4 -17.85 3.5 -17.65 3.4 -17.25 3.35 -17.0 3.3 -16.6 3.35 -16.2 3.65 -16.0 3.9 -15.9 4.15 -15.9 4.35 -15.9 4.55 -15.9 4.75 -15.95 4.9 -16.0 5.1 -15.95 5.25 -15.6 5.45 -15.25 5.7 -14.85 6.05 -14.65 6.3 -14.55 6.55 -14.5 6.65 -13.95 6.8 -13.5 6.8 -13.35 6.65 -13.2 6.5 -13.0 6.35 -12.9 6.2 -12.65 6.05 -12.15 5.85 -12.0 5.7 -11.8 5.6 -11.35 5.3 -10.9 5.1 -10.65 4.95 -10.55 4.8 -10.5 4.65 -10.4 4.45 -10.35 4.3 -10.3 4.1 -10.25 3.9 -10.25 3.8 -10.5 3.55 -10.85 3.35 -11.2 3.1 -11.4 2.85 -11.65 2.55 -11.85 2.3 -12.05 2.05 -12.2 1.75 -12.4 1.5 -12.4 1.3 -12.45 1.1 -12.45 0.9 -12.5 0.65 -12.55 0.45 -12.55 0.25 -12.55 -0.15 -12.45 -0.3 -12.35 -0.5 -12.25 -0.65 -12.05 -0.8 -11.95 -0.95 -11.65 -1.0 -11.4 -1.1 -10.9 -1.05 -10.65 -1.05 -10.25 -1.0 -9.55 -0.9 -9.05 -0.85 -6.65 -0.1 -6.4 -0.05 -4.4 0.3 Q-2.85 0.85 -1.4 1.65 L-1.3 1.85 -1.25 1.9 -0.75 2.25 -0.35 2.6 -0.2 2.75 -0.15 2.8 0.1 2.85 0.55 3.15 1.0 3.35 1.35 3.6 1.8 3.85 2.0 4.1 2.3 4.3 2.5 4.5 Q5.3 5.4 7.9 6.8 L8.15 6.9 9.9 7.35 10.35 7.4 10.6 7.4 Q14.25 8.25 17.35 10.25 L18.2 10.8 19.15 11.85 20.25 13.35 20.4 13.8 20.4 14.0 M17.9 0.7 L17.85 0.75 17.85 0.85 17.8 0.95 17.75 1.05 17.7 1.1 17.6 1.15 17.55 1.25 17.55 1.35 17.5 1.45 17.45 1.5 17.35 1.6 17.3 1.65 17.15 1.7 17.1 1.75 17.0 1.75 16.85 1.75 16.65 1.65 16.45 1.5 16.4 1.4 16.35 1.3 16.35 1.2 16.35 1.1 16.35 1.0 16.4 0.9 16.4 0.8 16.5 0.7 16.55 0.65 16.7 0.6 17.0 0.5 17.35 0.3 17.45 0.3 17.6 0.3 17.8 0.45 17.85 0.55 17.9 0.7 M16.05 3.7 L16.25 3.85 16.3 3.95 16.4 4.1 16.4 4.15 16.35 4.25 16.3 4.35 16.3 4.45 16.35 4.55 16.3 4.65 16.3 4.75 16.35 4.85 16.35 4.95 16.3 5.15 16.2 5.4 16.1 5.6 16.0 5.95 15.95 6.0 15.9 6.1 15.85 6.2 15.8 6.25 15.75 6.35 15.7 6.45 15.65 6.5 15.6 6.6 15.6 6.7 15.55 6.8 15.55 6.85 15.5 6.95 15.4 7.05 15.35 7.1 15.25 7.2 15.2 7.25 15.1 7.3 14.95 7.35 14.8 7.3 14.65 7.25 14.45 7.15 14.4 7.0 14.35 6.9 14.3 6.85 14.15 6.75 14.1 6.6 14.1 6.5 14.1 6.4 14.1 6.3 14.15 6.2 14.2 6.15 14.25 6.05 14.3 6.0 14.4 5.9 14.45 5.85 14.45 5.75 14.55 5.65 14.55 5.55 14.55 5.45 14.6 5.4 14.65 5.3 14.65 5.2 14.7 5.1 14.75 5.05 14.8 4.95 14.8 4.85 14.8 4.75 14.85 4.65 14.9 4.6 14.95 4.5 15.05 4.45 15.2 4.4 15.3 4.35 15.35 4.25 15.35 4.15 15.4 4.05 15.4 3.95 15.5 3.9 15.55 3.85 15.65 3.75 15.8 3.7 15.9 3.65 16.05 3.7 M17.0 5.5 L17.15 5.45 17.25 5.45 17.4 5.45 17.6 5.5 17.7 5.55 17.8 5.6 18.0 5.75 18.05 5.85 18.05 5.95 18.05 6.05 18.05 6.15 18.05 6.25 18.1 6.35 18.1 6.45 18.05 6.55 18.05 6.65 18.0 6.75 18.0 6.85 17.95 6.9 17.9 7.0 17.9 7.1 17.85 7.15 17.75 7.45 17.65 7.6 17.6 7.9 17.45 8.25 17.45 8.35 17.35 8.4 17.3 8.5 17.25 8.55 17.15 8.6 17.0 8.65 16.85 8.6 16.65 8.5 16.55 8.4 16.45 8.4 16.3 8.4 16.15 8.4 15.95 8.25 15.9 8.15 15.85 8.0 15.85 7.9 15.9 7.8 15.95 7.75 15.95 7.65 15.95 7.55 16.0 7.45 16.05 7.4 16.1 7.3 16.1 7.2 16.2 7.05 16.25 6.85 16.3 6.75 16.35 6.6 16.35 6.5 16.45 6.4 16.45 6.35 16.45 6.25 16.45 6.15 16.5 6.05 16.55 5.95 16.6 5.9 16.7 5.8 16.75 5.75 16.85 5.65 16.9 5.6 17.0 5.5 M11.65 4.55 L11.6 4.65 11.55 4.75 11.55 4.8 11.5 4.9 11.5 5.0 11.5 5.1 11.5 5.2 11.45 5.3 11.45 5.4 11.4 5.45 11.35 5.55 11.3 5.65 11.25 5.7 11.1 5.75 11.0 5.8 10.95 5.8 10.8 5.75 10.75 5.8 10.6 5.65 10.5 5.5 10.45 5.4 10.4 5.3 10.35 5.25 10.15 5.1 10.1 5.0 10.1 4.9 10.1 4.8 10.1 4.7 10.05 4.55 10.05 4.45 10.05 4.35 10.05 4.25 10.05 4.15 10.15 4.0 10.2 3.8 10.2 3.75 10.3 3.55 10.35 3.5 10.45 3.4 10.55 3.35 10.65 3.3 10.85 3.3 11.0 3.35 11.15 3.5 11.3 3.65 11.35 3.75 11.35 3.85 11.35 3.95 11.35 4.05 11.5 4.2 11.55 4.35 11.65 4.45 11.65 4.55 M12.5 4.65 L12.6 4.6 12.7 4.5 12.8 4.45 12.9 4.45 13.05 4.45 13.25 4.6 13.3 4.7 13.35 4.8 13.35 4.9 13.4 5.05 13.4 5.15 13.4 5.25 13.4 5.35 13.4 5.45 13.35 5.5 13.3 5.7 13.25 5.85 13.2 5.95 13.15 6.05 13.05 6.1 13.0 6.2 12.95 6.25 12.9 6.35 12.85 6.45 12.8 6.5 12.65 6.55 12.5 6.6 12.35 6.55 12.25 6.5 12.05 6.4 12.0 6.25 11.95 6.15 11.95 6.05 11.95 5.95 12.05 5.9 12.05 5.8 12.1 5.7 12.15 5.65 12.2 5.55 12.2 5.45 12.2 5.35 12.25 5.25 12.3 5.1 12.4 4.8 12.45 4.75 12.5 4.65 M19.65 7.4 L19.7 7.5 19.75 7.65 19.8 7.75 19.8 7.85 19.8 7.95 19.75 8.05 19.7 8.15 19.7 8.2 19.65 8.3 19.65 8.4 19.6 8.5 19.55 8.55 19.55 8.65 19.55 8.75 19.5 8.85 19.45 8.95 19.45 9.05 19.5 9.05 19.65 9.15 19.65 9.25 19.7 9.4 19.75 9.5 19.7 9.6 19.7 9.7 19.7 9.8 19.7 9.9 19.7 9.95 19.65 10.05 19.6 10.15 19.55 10.2 19.4 10.3 19.15 10.4 19.0 10.45 18.9 10.5 18.75 10.5 18.6 10.5 18.4 10.5 18.3 10.55 18.05 10.5 18.05 10.55 17.9 10.4 17.8 10.3 17.75 10.2 17.55 10.05 17.4 9.9 17.25 9.75 17.25 9.65 17.2 9.55 17.2 9.45 17.25 9.35 17.3 9.3 17.35 9.2 17.35 9.1 17.4 9.0 17.45 8.95 17.5 8.85 17.5 8.75 17.55 8.65 17.6 8.6 17.7 8.5 17.75 8.45 17.8 8.35 17.85 8.3 17.9 8.2 17.95 8.1 18.05 8.05 18.1 7.95 18.2 7.9 18.25 7.8 18.25 7.7 18.35 7.65 18.4 7.55 18.45 7.5 18.55 7.4 18.65 7.35 18.7 7.3 18.8 7.2 18.85 7.15 19.0 7.1 19.15 7.05 19.35 7.05 19.55 7.15 19.6 7.3 19.65 7.4 M7.7 3.0 L7.7 3.1 7.7 3.2 7.7 3.3 7.75 3.45 7.75 3.55 7.7 3.6 7.65 3.7 7.6 3.9 7.55 4.05 7.5 4.15 7.45 4.25 7.45 4.3 7.4 4.4 7.35 4.5 7.35 4.6 7.3 4.65 7.25 4.75 7.15 4.8 7.05 4.85 6.85 4.85 6.8 4.9 6.65 4.95 6.6 4.95 6.45 4.9 6.45 4.95 6.2 4.8 6.05 4.7 6.0 4.55 5.95 4.45 5.95 4.35 5.95 4.25 5.95 4.15 5.9 4.05 5.9 3.95 5.9 3.85 5.9 3.75 5.9 3.65 5.85 3.55 5.85 3.45 5.85 3.35 5.85 3.25 5.85 3.15 5.85 3.05 5.9 2.95 5.9 2.85 5.95 2.7 6.1 2.3 6.2 2.05 6.2 1.95 6.2 1.85 6.25 1.8 6.3 1.7 6.4 1.65 6.5 1.6 6.65 1.55 6.8 1.55 6.9 1.6 7.05 1.6 7.2 1.75 7.35 1.9 7.4 2.0 7.4 2.1 7.4 2.2 7.45 2.35 7.5 2.45 7.6 2.65 7.7 2.9 7.7 3.0 M5.15 3.05 L5.2 3.15 5.2 3.25 5.15 3.3 5.1 3.4 5.05 3.5 4.95 3.55 4.85 3.6 4.8 3.7 4.7 3.75 4.7 3.85 4.65 3.95 4.6 4.05 4.55 4.1 4.4 4.15 4.3 4.2 4.15 4.15 4.0 4.05 3.95 3.95 3.9 3.8 3.9 3.7 3.95 3.65 3.95 3.55 4.0 3.45 4.05 3.35 4.05 3.3 4.15 3.2 4.2 3.15 4.3 3.05 4.4 3.0 4.6 2.85 4.7 2.8 4.8 2.8 4.95 2.8 5.1 2.9 5.15 3.05 M9.15 3.65 L9.35 3.8 9.4 3.9 9.4 4.0 9.4 4.1 9.35 4.2 9.35 4.3 9.4 4.4 9.5 4.55 9.5 4.65 9.45 4.75 9.45 4.85 9.45 4.9 9.4 5.0 9.35 5.1 9.3 5.15 9.15 5.2 9.0 5.25 8.9 5.3 8.75 5.25 8.7 5.25 8.55 5.15 8.4 5.0 8.35 4.9 8.25 4.75 8.25 4.65 8.2 4.5 8.2 4.4 8.15 4.3 8.2 4.2 8.25 4.15 8.3 4.05 8.3 3.95 8.35 3.85 8.4 3.8 8.45 3.7 8.5 3.6 8.6 3.55 8.65 3.5 8.75 3.5 8.9 3.55 9.15 3.65 M2.6 10.1 L2.55 9.7 2.4 9.45 0.65 8.25 -1.0 7.5 -1.85 7.3 -2.25 7.3 -2.5 7.3 -2.75 7.25 -3.0 7.25 -3.35 7.2 -3.8 7.15 -4.1 7.25 -4.35 7.35 -4.4 7.55 -4.5 7.9 -4.55 8.1 -4.65 8.25 -4.75 8.6 -4.9 8.95 -4.95 9.15 -5.05 9.5 -5.2 9.65 -5.35 9.8 -5.45 9.95 -5.6 10.3 -5.7 10.5 -5.75 10.65 -6.0 11.4 -6.1 11.75 -6.35 12.45 -6.55 13.0 -6.6 13.15 -6.75 13.3 -6.9 13.45 -7.1 13.6 -7.35 13.7 -7.6 13.75 -7.95 13.75 -8.05 13.85 -7.75 13.9 -7.05 14.05 -6.9 14.05 -6.65 14.05 -6.2 14.1 -6.0 14.05 -5.85 14.05 -5.45 14.1 -5.05 14.4 -4.8 14.6 -4.55 14.45 -4.35 14.35 -4.05 14.25 -3.9 14.15 -3.75 14.15 -3.35 14.15 -3.0 14.05 -2.8 14.0 -2.65 14.0 -1.75 14.1 -1.25 14.15 -1.0 14.25 -0.35 14.4 -0.1 14.35 0.65 14.45 1.55 14.6 2.15 14.75 2.15 14.55 2.15 14.35 2.15 14.15 2.2 13.95 2.3 13.8 2.6 13.5 2.9 13.2 3.2 12.9 3.5 12.6 3.15 11.65 2.7 10.75 2.6 10.1 M8.1 11.75 L8.35 12.4 8.4 12.9 8.55 13.5 8.55 13.7 8.55 13.9 8.5 14.1 8.5 14.25 8.55 14.3 8.8 14.4 9.25 14.55 9.7 14.85 9.9 15.05 9.9 15.1 10.35 15.4 10.7 15.55 10.85 15.4 11.0 15.2 11.15 15.1 11.45 15.0 11.75 14.9 11.9 14.75 12.05 14.6 12.15 14.45 12.3 14.3 12.45 14.15 12.6 14.0 12.6 13.8 9.55 12.25 8.1 11.75" fill="#d6cecb" fill-rule="evenodd" stroke="none"/>
    <path d="M1.05 -17.0 L1.9 -16.45 2.25 -15.95 2.5 -15.45 2.95 -14.9 3.45 -14.35 3.7 -14.0 4.6 -13.85 5.5 -13.75 6.9 -13.65 7.65 -13.8 8.25 -13.95 8.8 -14.05 10.2 -14.0 13.05 -13.65 16.4 -12.6 17.25 -12.05 17.55 -11.7 18.15 -11.2 18.75 -10.6 19.2 -10.05 19.45 -9.55 19.95 -9.0 20.6 -8.35 21.1 -7.8 21.35 -7.3 21.55 -6.85 22.05 -6.25 22.5 -5.7 22.75 -5.25 22.95 -4.75 23.0 -4.35 23.05 -3.9 23.2 -3.5 23.3 -3.05 23.55 -2.55 23.55 -2.15 23.5 -1.75 23.5 -1.35 23.4 -1.0 23.25 -0.65 23.15 -0.3 23.1 0.05 23.15 0.5 23.35 1.0 23.5 1.4 23.45 1.8 23.35 2.15 23.25 2.5 23.1 2.85 23.0 3.25 22.7 3.5 22.35 3.8 21.9 4.05 21.4 4.3 21.15 4.6 20.95 4.9 20.7 5.2 20.45 5.55 20.2 5.85 19.95 6.15 19.85 6.5 19.7 6.9 19.45 7.15 19.1 7.45 18.85 7.8 18.65 8.1 18.3 8.75 18.1 9.1 17.9 9.45 17.65 9.75 17.3 10.45 17.15 10.75 16.9 11.05 16.55 11.35 16.45 11.7 16.3 12.05 16.2 12.45 15.95 12.7 15.55 13.0 Q15.35 13.15 15.1 13.25 L14.9 13.6 14.75 13.9 14.6 14.25 14.5 14.65 14.25 14.9 13.9 15.2 13.4 15.45 12.85 15.5 11.6 15.25 8.75 14.7 6.65 14.3 5.9 14.4 5.1 14.6 4.5 14.75 4.0 14.95 3.15 15.75 1.3 15.15 0.9 15.1 -0.65 14.65 -1.0 14.6 -1.35 14.6 -4.3 13.9 -5.95 13.8 -6.55 13.8 -6.85 13.85 -7.25 13.95 -7.6 14.0 -7.85 14.15 -8.05 14.25 -8.3 14.35 -8.75 14.4 -9.05 14.5 -9.3 14.6 -9.45 14.75 -9.65 14.9 -9.9 15.0 -11.0 14.7 -11.3 14.65 -11.45 14.65 -11.6 14.7 -11.95 14.75 -12.15 14.8 -12.5 14.9 -12.9 14.9 -13.4 14.7 -13.8 14.7 Q-15.65 14.0 -17.6 13.7 L-18.4 13.65 -18.55 13.65 -18.7 13.8 -18.65 14.0 -18.5 14.25 -18.45 14.45 -18.35 14.7 -18.05 14.9 -16.4 15.65 -14.25 16.45 -13.95 16.5 -13.65 16.5 -12.65 16.65 -12.55 16.7 -12.35 16.7 -11.9 16.7 -11.75 16.7 -11.6 16.6 -11.35 16.5 -10.6 16.65 -10.15 16.75 -8.95 17.2 -8.5 17.25 -7.65 17.35 -7.35 17.4 -7.15 17.35 -6.9 17.25 -6.65 17.1 -6.45 17.0 -6.35 16.85 -6.1 16.7 -5.65 16.7 -5.4 16.55 -5.15 16.45 -5.0 16.4 -4.45 16.5 -4.1 16.55 -3.85 16.5 -3.5 16.45 -2.65 16.65 -2.3 16.7 -1.9 16.7 -1.4 16.7 -0.35 16.9 0.25 17.0 0.4 17.0 -2.25 18.4 -4.25 19.25 -4.65 19.5 -5.1 19.8 -5.35 20.1 -5.5 20.45 -5.75 20.75 -6.1 21.0 -6.55 21.25 -7.0 21.35 -7.25 21.35 -11.45 20.35 -12.25 20.45 -12.8 20.55 -13.55 20.35 -13.55 20.4 -14.65 20.05 -15.5 19.5 -15.85 18.95 -16.1 18.5 -16.65 17.85 -17.15 17.3 -18.3 16.1 -18.8 15.15 -19.8 13.2 -20.4 11.35 -20.75 9.7 -20.75 9.3 -20.75 8.9 -20.7 8.5 -20.7 8.1 -20.7 7.7 -20.8 7.25 -20.8 6.85 -20.7 6.5 -20.55 6.15 -20.7 5.7 -21.15 5.15 -21.5 4.6 -21.75 4.15 -21.9 3.85 -22.0 3.7 -22.6 3.2 -22.95 2.65 -23.05 2.2 -23.15 1.8 -23.3 1.35 -23.3 0.95 -23.25 0.55 -23.2 0.2 -23.1 -0.2 -23.0 -0.55 -22.9 -0.9 -22.65 -1.2 -22.4 -1.5 -22.1 -1.85 -21.8 -2.15 -21.35 -2.35 -20.85 -2.6 -20.5 -2.85 -20.45 -3.2 -20.7 -3.75 -20.75 -4.1 -21.05 -5.05 -21.25 -5.95 -21.4 -6.75 -21.55 -8.0 -21.6 -8.45 -21.6 -8.85 -21.6 -9.25 -21.6 -9.65 -21.6 -10.0 -21.7 -10.45 -21.8 -10.9 -21.9 -11.35 -21.95 -11.75 -22.05 -12.15 -22.0 -12.55 -21.9 -12.95 -21.8 -13.3 -21.8 -13.7 -21.65 -14.0 -21.4 -14.35 -21.15 -14.65 -20.9 -14.95 -20.45 -15.2 -19.85 -15.4 -18.8 -15.45 -18.4 -15.7 -18.0 -15.8 -17.7 -15.85 -16.9 -15.85 -16.65 -16.1 -15.8 -16.65 -14.85 -17.1 -13.9 -17.55 -12.85 -18.0 -12.1 -18.15 -11.4 -18.3 -10.9 -18.55 -10.45 -18.75 -9.75 -18.95 -9.1 -19.1 -7.8 -19.45 -6.5 -19.8 -5.55 -19.9 -5.1 -19.95 -4.35 -19.8 -1.05 -18.6 -0.15 -18.1 0.4 -17.5 0.8 -17.1 1.05 -17.0 M0.75 -3.45 L0.45 -3.3 0.0 -3.3 -0.3 -3.2 -0.45 -3.05 -0.5 -2.85 -0.45 -2.7 -0.25 -2.45 -0.2 -2.45 0.05 -2.45 0.2 -2.4 0.5 -2.3 0.9 -2.3 1.55 -2.25 1.7 -2.25 1.85 -2.3 2.2 -2.4 2.65 -2.35 2.9 -2.4 3.2 -2.45 3.5 -2.45 3.85 -2.5 3.9 -2.5 4.15 -2.6 4.3 -2.7 4.85 -2.75 5.05 -2.85 5.2 -3.0 5.4 -3.15 5.85 -3.15 5.95 -3.15 6.15 -3.2 6.4 -3.35 6.8 -3.55 7.05 -3.7 7.7 -3.85 8.25 -3.9 9.05 -3.9 9.25 -4.0 9.7 -3.85 9.95 -3.6 10.4 -3.4 11.3 -3.3 12.2 -3.15 12.4 -3.25 12.8 -3.2 13.25 -3.05 13.35 -3.0 13.35 -2.95 13.45 -2.75 13.5 -2.5 13.55 -2.3 13.65 -2.05 13.9 -1.8 14.45 -1.2 14.8 -0.95 15.15 -0.75 15.5 -0.65 16.35 -0.4 16.7 -0.35 17.05 -0.3 17.3 -0.35 17.65 -0.4 17.9 -0.5 18.15 -0.65 18.3 -0.75 18.5 -0.9 18.55 -0.95 18.65 -1.0 19.15 -0.85 19.8 -0.65 20.1 -0.5 20.25 -0.4 21.15 -0.35 21.8 -0.3 22.25 -0.35 22.45 -0.5 22.55 -0.65 22.55 -0.8 22.5 -1.05 22.55 -1.25 22.65 -1.4 22.8 -1.55 22.85 -1.7 22.9 -1.9 22.95 -2.1 23.05 -2.25 23.0 -2.45 22.95 -2.65 22.85 -2.9 22.55 -3.15 22.2 -3.15 21.95 -3.0 21.8 -2.85 21.7 -2.7 21.65 -2.55 21.6 -2.35 21.55 -2.15 21.35 -2.05 21.25 -1.9 21.0 -1.75 20.55 -1.8 20.3 -1.85 19.1 -2.3 19.0 -2.3 19.0 -2.35 19.0 -2.5 18.95 -2.75 18.9 -2.95 18.75 -3.2 18.65 -3.45 17.95 -3.95 16.75 -4.6 16.6 -4.65 16.35 -4.85 16.0 -5.0 15.65 -5.1 15.2 -5.1 14.85 -5.0 14.5 -4.9 14.2 -5.0 13.8 -5.0 13.2 -5.15 12.65 -5.25 11.85 -5.25 11.5 -5.25 11.1 -5.35 10.8 -5.35 10.7 -5.35 10.5 -5.3 9.65 -5.3 9.2 -5.35 9.0 -5.3 8.7 -5.3 7.95 -5.3 7.7 -5.35 7.45 -5.25 7.15 -5.2 6.75 -5.25 6.65 -5.25 6.5 -5.15 6.3 -5.0 5.9 -4.8 5.6 -4.65 5.25 -4.65 4.95 -4.55 4.45 -4.35 3.85 -4.15 3.0 -3.95 2.5 -4.0 2.25 -3.9 1.9 -3.8 1.6 -3.7 1.45 -3.6 1.0 -3.55 0.75 -3.45" fill="#663333" fill-opacity="0.2" fill-rule="evenodd" stroke="none"/>
    <path d="M14.85 -17.25 L15.85 -17.2 17.15 -17.0 19.4 -16.65 19.85 -16.75 20.6 -16.6 22.05 -16.25 22.85 -16.2 23.6 -16.1 24.25 -15.7 24.9 -15.25 25.35 -14.7 25.85 -14.1 26.05 -13.65 26.15 -13.2 26.3 -12.75 26.15 -12.4 26.05 -12.05 25.9 -11.7 25.65 -11.4 25.45 -11.05 25.15 -10.8 24.7 -10.55 23.25 -10.25 22.3 -10.15 21.7 -9.95 21.35 -9.7 21.0 -9.45 20.5 -9.2 19.7 -9.1 18.85 -8.95 17.3 -8.7 16.7 -8.55 16.35 -8.25 15.9 -8.0 15.6 -7.75 15.15 -7.45 14.8 -7.2 14.8 -6.8 15.0 -6.35 15.45 -5.35 15.6 -5.1 15.2 -5.1 14.85 -5.0 Q12.55 -6.15 9.95 -6.7 L2.1 -7.6 -1.1 -7.2 -4.05 -7.35 -4.3 -7.3 -4.7 -7.25 -4.9 -7.1 -5.1 -7.0 -5.3 -6.85 -5.45 -6.7 -5.6 -6.55 -5.7 -6.4 -5.8 -6.25 -5.9 -6.05 -5.95 -5.9 -5.95 -5.7 -6.0 -5.5 -6.0 -5.3 -5.95 -4.9 -5.9 -4.7 -5.8 -4.45 -5.6 -4.2 -5.4 -3.9 -5.0 -3.65 -4.65 -3.45 -4.25 -3.3 -4.25 -3.35 -3.9 -3.25 Q-2.65 -3.1 -1.45 -3.25 L0.65 -3.4 0.45 -3.3 0.0 -3.3 -0.3 -3.2 -0.45 -3.05 -0.5 -2.85 -0.45 -2.7 -0.25 -2.45 -0.2 -2.45 0.05 -2.45 0.2 -2.4 0.5 -2.3 0.9 -2.3 1.55 -2.25 1.7 -2.25 1.85 -2.3 2.2 -2.4 2.65 -2.35 2.9 -2.4 3.2 -2.45 3.5 -2.45 3.85 -2.5 3.9 -2.5 4.15 -2.6 4.3 -2.7 4.85 -2.75 5.05 -2.85 5.2 -3.0 5.4 -3.15 5.85 -3.15 Q10.2 -2.65 14.4 -1.2 L14.45 -1.2 14.8 -0.95 15.1 -0.8 15.05 -0.75 14.7 -0.45 14.2 -0.2 13.5 -0.05 12.8 0.1 12.3 0.3 12.05 0.6 11.7 0.9 11.3 1.15 Q11.1 1.3 10.85 1.4 L10.5 1.65 10.25 2.0 10.0 2.3 8.7 3.45 Q7.95 4.1 7.0 4.45 L6.05 4.9 Q5.4 5.2 4.85 5.7 L4.5 5.95 Q2.8 7.15 0.75 7.45 L0.2 7.55 -0.55 7.4 -1.7 7.3 -2.7 7.2 -4.5 6.55 -5.35 6.0 -5.7 5.45 -5.95 5.0 -6.65 4.35 -7.25 3.75 -7.5 3.4 Q-10.5 2.1 -13.6 1.35 L-21.55 -0.95 -22.4 -1.55 -22.75 -2.05 -23.1 -2.6 -23.35 -3.05 -23.35 -3.45 -23.45 -3.9 -23.6 -4.3 -23.8 -4.8 -24.0 -5.3 -24.05 -5.55 -24.2 -5.6 -24.8 -5.8 -25.65 -6.4 -26.0 -6.9 -26.1 -7.35 -26.2 -7.8 -26.3 -8.2 -26.35 -8.6 -26.3 -9.0 -26.1 -9.75 -25.85 -10.45 -25.6 -11.15 -25.45 -11.5 -25.35 -11.85 -25.2 -12.2 -24.85 -13.3 -24.9 -13.65 -25.05 -14.15 -25.1 -14.55 -25.2 -15.0 -25.15 -15.4 -25.05 -15.75 -24.9 -16.1 -24.75 -16.4 -24.45 -16.75 -23.8 -17.3 -23.35 -17.55 -22.9 -17.8 -22.5 -18.05 -22.25 -18.35 -22.05 -18.7 -21.65 -18.95 -20.85 -19.45 -20.0 -20.0 -19.25 -20.5 -18.8 -20.75 -18.3 -21.0 -17.6 -21.15 -17.0 -21.3 -16.65 -21.6 -16.3 -21.9 -15.65 -22.4 -15.2 -22.7 -14.85 -22.95 -14.45 -23.25 -13.85 -23.4 -13.25 -23.6 -12.9 -23.85 -12.4 -24.1 -11.85 -24.3 -11.25 -24.5 -10.2 -24.4 -9.55 -24.3 -9.1 -24.55 -8.5 -24.75 -7.8 -24.75 -7.05 -24.65 -5.95 -24.4 -3.95 -24.1 -3.05 -23.6 -2.15 -23.05 -1.85 -22.55 -1.6 -22.05 -1.45 -21.65 -1.25 -21.5 0.25 -20.9 1.25 -20.3 1.7 -20.4 2.2 -20.6 3.35 -21.0 3.95 -21.2 4.4 -21.3 Q6.95 -21.1 9.3 -20.0 L14.05 -17.3 14.85 -17.25" fill="#663333" fill-opacity="0.2" fill-rule="evenodd" stroke="none"/>
    <path d="M25.2 -5.85 L25.5 -6.1 26.05 -6.35 26.5 -6.45 27.1 -6.35 27.85 -5.85 28.65 -4.4 29.05 -3.45 Q29.35 -2.8 29.15 -2.2 L29.0 -1.5 29.2 -0.55 29.45 0.3 29.55 0.75 29.45 1.1 29.3 1.85 29.2 2.2 29.1 2.55 29.05 2.95 29.1 3.35 29.15 3.8 29.25 4.25 29.25 4.6 29.1 5.35 28.9 6.1 28.65 6.8 28.4 7.5 28.4 7.9 28.5 8.35 28.35 9.5 27.85 10.55 27.05 11.85 26.65 12.5 26.35 12.55 25.85 12.55 25.85 12.6 25.3 12.15 25.35 11.75 25.35 11.35 24.9 10.8 24.5 10.3 24.4 9.85 24.3 9.4 24.3 9.0 24.35 8.6 24.4 8.25 24.45 7.85 24.4 7.45 24.3 7.0 24.3 6.6 24.35 6.2 24.25 5.85 23.9 4.85 23.75 4.45 23.55 3.95 22.8 3.3 22.45 2.8 22.35 2.35 22.35 1.95 22.4 1.55 22.5 1.2 22.4 0.75 22.4 0.35 22.4 -0.05 22.5 -0.4 22.6 -0.75 22.65 -1.15 22.75 -1.5 22.8 -1.55 22.8 -1.6 22.85 -1.7 23.1 -2.2 23.3 -2.5 23.5 -2.85 24.0 -3.45 24.2 -3.8 24.35 -4.15 24.45 -4.5 24.6 -4.85 24.7 -5.2 24.95 -5.5 25.2 -5.85" fill="#663333" fill-opacity="0.2" fill-rule="evenodd" stroke="none"/>
    <path d="M-6.65 9.25 L-6.65 9.65 -6.75 10.0 -6.9 10.4 -7.15 10.7 -7.4 11.0 -7.6 11.3 -7.85 11.65 -8.0 12.0 -8.25 12.3 -8.6 12.6 -8.85 12.9 -9.05 13.2 -9.45 13.45 -9.9 13.75 -10.25 14.0 -10.5 14.3 -10.75 14.6 -10.9 14.75 -11.0 14.7 -11.3 14.65 -11.45 14.65 -11.6 14.7 -11.95 14.75 -12.15 14.8 -12.5 14.9 -12.9 14.9 -13.4 14.7 -13.8 14.7 Q-15.65 14.0 -17.6 13.7 L-18.4 13.65 -18.55 13.65 -18.7 13.8 -18.65 14.0 -18.5 14.25 -18.45 14.45 -18.35 14.7 -18.05 14.9 -16.4 15.65 -14.3 16.45 -14.45 16.5 -15.45 16.95 -16.25 17.15 -17.35 17.5 -17.85 17.75 -21.25 18.05 -24.8 18.65 -25.05 18.65 -25.7 18.6 -26.45 18.05 -26.8 17.55 -26.95 17.2 -27.35 17.3 -28.3 17.65 -30.0 18.3 -30.85 18.2 -30.9 18.25 -31.65 17.7 -31.85 17.25 -31.95 16.8 -32.0 16.4 -31.95 16.0 -31.85 15.65 -31.6 14.95 -31.35 14.2 -31.1 13.9 -30.85 13.6 -30.65 13.3 -30.55 12.95 -30.6 12.5 -30.45 12.15 -30.25 11.8 -30.0 11.5 -29.75 11.2 -29.8 10.8 -29.9 10.35 -29.85 9.95 -29.85 9.55 -29.85 9.15 -29.75 8.8 -29.6 8.45 -29.65 8.05 -29.7 7.6 -29.85 6.8 -29.95 6.35 -29.95 5.95 -29.95 5.55 -29.95 5.15 -29.9 4.75 -29.9 4.35 -29.8 4.0 -29.65 3.65 -29.45 3.35 -29.4 2.95 -29.3 2.6 -29.05 2.25 -28.8 1.95 -28.55 1.65 -28.2 1.35 -26.9 1.0 -25.2 0.4 -24.6 0.2 -23.85 0.25 -23.1 0.35 Q-20.7 1.45 -18.85 3.3 L-16.6 5.8 -12.35 7.4 -11.6 7.4 -10.85 7.3 -9.9 7.15 -9.45 7.1 -9.2 7.1 -8.45 7.2 -7.95 7.35 -7.1 7.9 -6.75 8.45 -6.65 8.9 -6.65 9.25" fill="#663333" fill-opacity="0.2" fill-rule="evenodd" stroke="none"/>
    <path d="M1.05 14.95 L1.2 14.9 1.3 14.85 1.8 14.95 2.1 14.9 7.7 16.75 8.35 16.75 8.65 16.75 9.15 16.8 9.45 16.75 9.75 16.8 10.35 16.85 10.55 16.8 11.75 17.15 12.6 17.05 13.35 16.9 14.75 15.8 15.95 14.8 Q16.45 14.4 17.1 14.2 L17.15 14.05 17.3 13.9 17.4 13.75 17.6 13.6 17.75 13.45 18.1 13.4 18.35 13.25 18.55 13.1 18.65 12.95 18.9 12.85 19.2 12.75 19.65 12.8 20.05 13.05 20.2 13.3 20.3 13.55 20.3 13.75 20.3 13.95 20.25 14.15 20.2 14.3 20.15 14.5 20.0 14.65 19.85 14.8 19.75 14.95 19.7 15.15 19.65 15.3 19.5 15.45 19.4 15.6 19.15 15.75 18.9 15.85 18.6 15.95 18.45 16.1 18.25 16.2 18.15 16.4 18.0 16.55 17.85 16.7 17.7 16.85 17.6 17.0 17.4 17.1 17.2 17.25 17.0 17.4 16.7 17.65 15.15 18.3 13.75 18.85 13.2 19.05 12.3 19.1 11.65 19.1 11.1 19.0 10.5 18.85 10.25 18.9 9.9 18.8 9.1 18.65 8.6 18.65 8.15 18.7 7.55 18.75 2.3 17.05 2.0 17.1 1.7 17.05 1.3 17.05 1.0 17.05 0.65 17.0 0.4 16.9 -0.65 16.85 -1.8 16.75 -2.1 16.8 -3.4 16.75 -4.5 16.9 -4.75 17.0 -5.4 17.15 -6.4 17.4 -6.85 17.4 -7.2 17.15 -7.4 17.05 -7.65 17.1 -7.7 17.15 -7.85 17.1 -7.9 17.1 -7.85 16.95 -7.65 16.8 -7.4 16.65 -7.4 16.45 -7.35 16.3 -7.25 16.15 -7.1 16.0 -6.85 15.85 -6.55 15.75 -5.75 15.2 -4.75 14.8 -4.15 14.7 -3.95 14.7 -3.5 14.7 -3.2 14.6 -3.0 14.55 -2.9 14.55 -2.5 14.6 -2.3 14.65 -1.55 14.7 -0.55 14.85 -0.25 14.75 0.0 14.7 0.35 14.8 0.55 14.85 1.05 14.95" fill="#ffff99" fill-opacity="0.2" fill-rule="evenodd" stroke="none"/>
    <path d="M7.55 -11.05 L8.45 -10.15 9.25 -9.45 9.45 -9.25 9.95 -8.95 10.3 -8.7 10.9 -8.4 12.55 -8.0 12.95 -7.9 13.25 -7.9 18.1 -6.45 21.05 -5.0 21.65 -4.6 21.75 -4.35 22.05 -4.05 22.1 -3.85 22.25 -3.65 22.55 -3.4 22.65 -3.2 22.7 -2.95 22.75 -2.75 22.65 -2.6 22.5 -2.45 22.35 -2.4 22.1 -2.4 21.85 -2.55 21.8 -2.6 21.35 -2.75 Q19.4 -4.4 16.85 -5.0 L14.9 -5.6 13.15 -6.1 12.85 -6.05 12.7 -6.05 11.15 -6.45 10.9 -6.4 10.75 -6.4 10.45 -6.45 9.45 -6.85 9.1 -7.1 8.95 -7.3 8.6 -7.4 7.75 -8.0 7.35 -8.3 6.95 -8.6 6.55 -9.1 6.25 -9.4 5.85 -9.75 5.6 -9.9 5.25 -9.95 4.8 -10.25 4.65 -10.45 2.5 -11.5 0.95 -12.4 0.6 -12.65 -6.75 -15.25 -7.05 -15.5 -7.25 -15.75 -7.25 -16.0 -7.3 -16.2 -7.2 -16.35 -7.1 -16.5 -7.0 -16.7 -6.75 -16.8 -6.5 -16.85 -5.8 -16.75 -5.3 -16.7 -5.1 -16.75 1.3 -14.75 Q2.2 -14.1 3.2 -13.65 4.0 -13.35 4.7 -12.85 L4.85 -12.7 5.35 -12.55 5.8 -12.35 6.1 -12.25 Q6.3 -12.1 6.55 -12.0 L6.7 -11.8 6.75 -11.75 7.1 -11.45 7.25 -11.25 7.55 -11.05" fill="#ffff99" fill-opacity="0.2" fill-rule="evenodd" stroke="none"/>
    <path d="M13.75 -18.5 L14.0 -18.6 14.25 -18.7 14.75 -18.7 Q17.55 -17.95 20.1 -16.5 L20.2 -16.3 20.7 -16.2 21.05 -16.3 21.3 -16.35 21.4 -16.35 21.8 -16.3 22.05 -16.2 22.45 -15.95 22.6 -15.75 22.9 -15.5 23.1 -15.25 23.2 -15.0 23.25 -14.85 23.3 -14.85 23.8 -14.75 24.05 -14.85 24.25 -14.95 24.5 -15.05 24.85 -14.95 25.3 -14.7 25.45 -14.4 25.55 -14.2 25.65 -13.95 25.7 -13.75 25.75 -13.55 25.75 -13.35 25.75 -13.15 25.75 -12.95 25.7 -12.75 25.6 -12.6 25.55 -12.4 25.55 -12.2 25.55 -11.8 25.45 -11.45 25.35 -11.1 25.25 -10.7 25.25 -10.5 25.3 -10.3 25.3 -10.1 25.25 -9.95 25.15 -9.75 25.1 -9.55 24.95 -9.2 24.85 -9.05 24.75 -8.9 24.55 -8.75 24.4 -8.65 24.35 -8.6 24.7 -8.35 25.05 -8.1 25.4 -7.9 25.45 -7.65 25.5 -7.45 25.45 -7.25 25.35 -7.1 25.15 -7.0 24.9 -6.9 24.25 -7.05 22.5 -7.5 22.2 -7.7 22.05 -8.0 21.85 -8.25 21.6 -8.5 21.6 -8.75 21.55 -8.95 21.55 -9.15 21.4 -9.4 21.15 -9.7 21.0 -9.95 20.95 -10.15 20.9 -10.4 20.85 -10.6 20.85 -10.8 20.8 -11.0 20.9 -11.35 21.05 -11.9 21.25 -12.45 21.45 -12.95 21.55 -13.35 21.6 -13.5 21.55 -13.75 21.4 -14.0 21.2 -14.15 20.35 -14.2 19.1 -14.5 18.75 -14.8 18.55 -15.0 Q16.1 -16.05 13.75 -17.2 L13.45 -17.3 13.2 -17.3 12.9 -17.55 12.8 -17.75 12.8 -18.0 12.8 -18.15 12.95 -18.3 13.1 -18.45 13.35 -18.5 13.75 -18.5" fill="#ffff99" fill-opacity="0.2" fill-rule="evenodd" stroke="none"/>
    <path d="M11.45 -17.3 L11.7 -17.45 11.85 -17.5 12.0 -17.5 12.35 -17.45 13.15 -17.2 13.55 -16.9 13.75 -16.7 16.7 -16.0 18.25 -15.75 20.0 -15.45 25.1 -13.55 25.45 -13.3 25.65 -13.05 25.95 -12.75 26.0 -12.5 26.05 -12.3 26.0 -12.1 25.9 -11.95 25.75 -11.8 25.55 -11.65 25.1 -11.7 Q24.95 -11.85 24.75 -11.95 L21.95 -12.95 21.8 -12.85 21.6 -12.7 21.4 -12.65 20.9 -12.75 19.35 -13.15 18.9 -13.25 18.55 -13.25 14.45 -14.2 14.1 -14.2 13.7 -14.25 12.55 -14.75 12.0 -15.05 11.8 -15.05 11.5 -14.95 11.0 -15.0 10.25 -15.25 8.85 -15.75 8.75 -15.8 8.35 -15.9 8.35 -15.85 8.0 -16.15 7.8 -16.35 Q7.55 -16.45 7.35 -16.6 L7.2 -16.8 6.5 -17.25 5.4 -17.9 5.2 -18.1 Q4.25 -18.6 3.4 -19.25 L2.75 -19.8 2.4 -20.15 2.15 -20.35 1.95 -20.6 1.9 -20.85 1.9 -21.05 2.0 -21.2 2.1 -21.35 2.2 -21.5 2.45 -21.65 2.7 -21.7 3.15 -21.6 3.7 -21.55 3.9 -21.45 4.35 -21.2 4.55 -21.0 4.95 -20.7 5.35 -20.35 6.05 -19.95 6.5 -19.7 6.7 -19.5 7.6 -19.0 8.5 -18.4 8.65 -18.2 8.95 -18.1 10.5 -17.45 11.25 -17.2 11.45 -17.3" fill="#ffff99" fill-opacity="0.2" fill-rule="evenodd" stroke="none"/>
    <path d="M24.85 17.85 L25.05 18.1 25.1 18.35 25.15 18.55 25.2 18.8 25.2 19.0 25.2 19.15 25.15 19.35 25.0 19.7 24.9 20.05 24.85 20.25 24.85 20.3 25.05 20.45 25.45 20.75 25.65 21.0 25.7 21.2 25.7 21.4 25.7 21.6 25.65 21.8 25.55 21.95 25.5 22.15 Q24.6 23.2 23.35 23.85 21.65 24.75 19.7 25.05 L18.95 25.15 18.55 25.1 18.2 24.85 17.95 24.6 17.55 24.55 17.4 24.7 17.2 24.8 16.85 24.9 16.35 24.8 16.3 24.85 15.95 24.6 15.75 24.35 15.75 24.1 15.7 23.9 15.75 23.7 15.8 23.55 15.85 23.35 15.9 23.2 15.95 23.0 16.25 22.7 16.95 22.15 17.7 21.6 17.9 21.5 18.0 21.3 18.25 21.0 18.5 20.7 18.7 20.35 18.8 20.2 19.0 20.05 19.35 19.8 19.7 19.5 19.85 19.35 19.95 19.2 20.05 19.05 20.25 18.9 20.55 18.8 20.8 18.7 20.9 18.55 21.05 18.4 21.15 18.25 21.5 17.95 22.35 17.45 Q22.7 17.25 23.1 17.2 L23.5 17.25 24.45 17.6 24.85 17.85" fill="#ffff99" fill-opacity="0.2" fill-rule="evenodd" stroke="none"/>
    <path d="M30.95 6.8 L31.05 7.05 31.2 7.3 31.3 7.55 31.35 7.75 31.3 7.95 31.25 8.1 31.25 8.3 31.3 8.55 31.3 8.75 31.25 8.9 31.2 9.1 31.2 9.3 31.2 9.5 31.25 9.7 31.15 9.9 31.1 10.05 31.0 10.2 30.95 10.4 30.85 10.75 30.65 11.3 30.5 11.65 30.35 11.8 30.2 11.95 30.1 12.1 30.05 12.3 29.95 12.45 29.9 12.65 29.9 12.8 29.8 13.0 29.75 13.2 29.7 13.35 29.55 13.5 29.45 13.65 29.35 13.85 29.25 14.0 29.15 14.35 29.0 14.9 28.9 15.25 28.85 15.45 28.75 15.6 28.6 15.75 28.4 15.9 28.3 16.05 28.15 16.2 28.05 16.35 27.85 16.5 27.75 16.65 27.65 16.85 27.55 17.0 27.4 17.15 27.25 17.3 26.9 17.55 26.7 17.7 26.6 17.85 26.55 18.05 26.45 18.2 26.35 18.35 26.15 18.5 26.05 18.65 25.95 18.85 25.8 19.0 25.65 19.1 25.5 19.5 25.25 20.2 25.05 20.7 24.9 21.05 24.9 21.25 24.9 21.45 24.8 21.65 24.75 21.8 24.7 22.0 24.55 22.15 23.7 22.75 22.35 23.4 21.65 23.7 20.6 24.6 19.7 25.15 18.45 25.6 18.2 25.7 17.8 25.75 17.45 25.85 17.0 25.9 16.8 26.0 16.55 26.05 16.45 26.05 15.15 25.7 Q14.25 25.1 13.2 24.7 L12.55 24.4 12.4 24.15 12.3 24.0 Q11.95 23.7 11.3 23.65 L9.85 23.45 9.35 23.5 9.05 23.5 8.6 23.5 8.25 23.6 7.95 23.65 5.75 23.55 3.85 23.25 3.85 23.3 3.5 23.05 3.35 22.8 3.3 22.6 3.3 22.4 3.35 22.2 3.45 22.05 3.6 21.9 3.85 21.8 4.15 21.7 4.65 21.5 4.95 21.55 5.5 21.6 5.75 21.6 6.35 21.55 7.0 21.5 7.5 21.5 7.8 21.5 8.3 21.55 8.6 21.5 9.0 21.5 9.2 21.45 9.65 21.55 9.85 21.45 10.0 21.45 10.3 21.5 10.7 21.65 11.3 21.7 11.75 21.75 12.9 22.05 13.1 22.0 14.95 22.5 15.9 22.85 16.1 22.85 16.5 22.85 16.7 22.8 17.1 22.8 17.4 22.7 18.75 22.55 20.1 22.25 20.25 22.1 20.45 22.0 20.7 21.85 20.8 21.7 21.0 21.55 21.2 21.45 21.4 21.3 21.55 21.15 21.65 21.0 21.85 20.85 22.0 20.7 22.2 20.6 22.3 20.45 22.45 20.25 22.6 20.15 22.8 20.0 23.0 19.85 23.3 19.75 23.45 19.65 23.65 19.5 23.7 19.3 23.75 19.15 23.9 18.8 24.0 18.4 24.05 18.25 24.2 18.1 24.3 17.95 24.4 17.75 24.6 17.45 24.75 17.3 24.9 17.15 25.0 16.95 25.05 16.8 25.15 16.65 25.3 16.45 25.4 16.3 25.6 16.2 25.9 16.1 26.05 15.95 26.2 15.8 26.3 15.65 26.35 15.45 26.5 15.3 26.65 15.15 27.15 14.5 27.45 13.85 27.65 13.3 28.0 12.85 28.15 12.7 28.25 12.35 28.45 11.8 28.65 11.25 28.75 10.9 28.85 10.75 29.0 10.6 29.1 10.45 29.25 10.25 29.3 10.1 29.35 9.9 29.35 9.7 29.3 9.5 29.3 9.3 29.35 9.1 29.45 8.95 29.5 8.75 29.55 8.6 29.55 8.4 29.55 8.2 29.6 8.0 29.65 7.8 29.35 6.75 28.9 5.5 28.75 4.7 28.8 4.35 28.9 4.2 29.2 4.1 29.6 4.1 29.9 4.15 30.3 4.4 30.35 4.6 30.35 4.85 30.35 5.0 30.35 5.2 30.6 5.7 30.75 6.15 30.8 6.35 30.9 6.6 30.95 6.8" fill="#ffff99" fill-opacity="0.2" fill-rule="evenodd" stroke="none"/>
    <path d="M0.7 22.8 L0.85 22.75 1.1 22.75 1.4 23.0 1.5 23.25 1.55 23.45 1.1 23.65 0.55 23.8 0.15 23.85 -0.15 23.9 -0.7 23.85 -1.5 23.95 -1.75 23.95 -2.6 23.8 -3.2 23.8 -3.5 23.9 -3.6 24.0 -3.85 24.15 -4.25 24.4 -4.55 24.5 -4.9 24.55 -5.15 24.7 -5.3 24.75 -5.45 24.8 -5.85 24.8 -6.2 24.85 -6.8 24.85 -7.3 24.9 -7.6 25.0 -7.8 25.1 -8.5 25.25 -9.15 25.4 -9.6 25.5 -9.95 25.55 -10.2 25.65 -10.5 25.7 -10.8 25.6 -10.8 25.65 -11.2 25.4 -11.3 25.15 -11.35 24.95 Q-12.6 24.2 -14.15 23.75 L-14.6 23.6 -15.9 23.2 Q-17.45 22.5 -19.15 22.1 L-19.4 22.1 -22.75 21.25 -24.3 20.85 -24.65 20.55 -24.9 20.3 -25.35 19.9 -25.6 19.65 -25.65 19.4 -25.65 19.2 -25.6 19.05 -25.55 18.85 -25.5 18.65 -25.45 18.55 -25.2 18.5 -25.05 18.5 -24.95 18.5 -24.6 18.5 -24.35 18.7 -24.15 18.8 -23.95 18.95 -21.95 19.45 -21.45 19.5 Q-18.3 20.25 -15.25 21.35 L-9.15 23.35 -8.75 23.3 -8.3 23.25 -7.95 23.2 -7.7 23.1 -7.4 23.0 -7.05 22.9 -6.8 22.8 -6.45 22.75 -5.1 22.6 -4.85 22.45 -4.65 22.35 -4.45 22.3 -4.35 22.25 -4.05 22.3 Q-3.9 22.35 -3.8 22.45 L-3.6 22.5 -3.1 22.55 -2.55 22.7 -2.15 22.7 -1.2 22.8 -0.7 22.8 -0.35 22.75 0.45 22.9 0.7 22.8" fill="#ffff99" fill-opacity="0.2" fill-rule="evenodd" stroke="none"/>
    <path d="M-27.75 1.55 L-27.75 1.75 -27.7 1.95 -27.65 2.2 -27.55 2.4 -27.6 2.6 -27.6 2.8 -27.5 3.0 -27.45 3.25 -27.15 3.55 -27.05 3.8 -26.95 4.0 -26.8 4.25 -26.6 4.75 -26.55 4.95 -26.55 5.15 -26.55 5.35 -26.45 5.6 -26.4 5.8 -26.35 6.0 -26.4 6.2 -26.45 6.4 -26.5 6.55 -26.55 6.75 -26.55 6.95 -26.55 7.15 -26.55 7.35 -26.55 7.55 -27.15 9.15 -28.0 11.6 -29.05 14.25 -29.15 14.6 -29.25 14.75 -29.4 14.95 -29.55 15.1 -29.3 15.75 -29.0 16.4 -28.75 17.15 -28.55 17.6 -28.65 17.8 -28.8 17.95 -29.15 17.95 -29.45 17.85 -29.45 17.9 -29.7 17.7 -30.25 16.85 -30.85 15.95 -31.25 14.95 -31.25 14.75 -31.2 14.55 -31.2 14.35 -31.2 14.15 -31.15 14.0 -31.0 13.85 -30.9 13.7 -30.7 13.55 -30.55 13.0 -30.3 12.3 -30.05 11.6 -29.85 10.65 -29.75 10.5 -29.65 10.3 -29.6 10.15 -29.6 9.95 -29.55 9.75 -29.45 9.6 -29.4 9.4 -29.3 9.25 -29.2 8.9 -29.1 8.5 -28.95 8.2 -28.8 7.8 -28.7 7.45 -28.65 7.25 -28.7 7.1 -28.7 6.85 -28.7 6.65 -28.65 6.5 -28.6 6.3 -28.55 6.1 -28.6 5.7 -28.75 5.3 -29.1 4.55 -29.45 4.0 -29.5 3.8 -29.55 3.55 -29.65 3.35 -29.65 3.15 -29.65 2.95 -29.7 2.75 -29.75 2.5 -29.85 2.25 -29.9 2.05 -29.9 1.85 -29.9 1.65 -29.85 1.5 -29.85 1.3 -29.85 1.1 -29.8 0.9 -29.8 0.7 -29.65 0.55 -29.45 0.4 -29.3 0.3 -28.95 0.2 -28.7 0.15 -28.35 0.2 -27.9 0.5 -27.75 0.75 -27.65 0.95 -27.7 1.15 -27.7 1.35 -27.75 1.55" fill="#ffff99" fill-opacity="0.2" fill-rule="evenodd" stroke="none"/>
    <path d="M12.5 -14.7 L11.6 -15.25 9.85 -16.3 9.15 -17.0 Q8.4 -17.75 7.3 -18.2 L6.65 -18.4 -1.05 -21.6 Q-3.75 -22.65 -6.05 -24.2 L-10.05 -22.9 -11.05 -22.7 -11.05 -22.55 -11.0 -22.35 -11.0 -22.15 -10.9 -21.9 -10.9 -21.75 -11.0 -21.55 -11.1 -21.45 -11.35 -21.3 -11.75 -21.3 -12.0 -21.5 -12.25 -21.75 -12.35 -21.75 -12.95 -21.75 -13.35 -21.7 -13.7 -21.45 -14.5 -21.1 -14.8 -21.05 -15.5 -20.65 -16.1 -20.3 -16.45 -20.0 -16.75 -19.9 -17.1 -19.85 -17.35 -19.7 -17.5 -19.55 -17.6 -19.4 -17.65 -19.25 -17.75 -19.05 -17.85 -18.95 -17.95 -18.95 -18.2 -19.0 -18.2 -18.95 -18.4 -19.2 -18.45 -19.4 -18.45 -19.55 -18.4 -19.75 -18.35 -19.95 -18.25 -20.1 -18.1 -20.25 -17.95 -20.4 -17.85 -20.55 -17.65 -20.7 Q-17.05 -20.9 -16.55 -21.3 L-16.25 -21.5 -20.1 -20.8 -22.7 -18.4 -23.45 -16.9 -23.15 -15.6 -23.5 -12.95 -23.2 -11.25 -22.95 -10.35 -24.95 -5.1 Q-25.6 -3.05 -27.55 -2.8 -28.55 -2.85 -28.5 -2.3 L-28.95 -0.1 -27.45 2.55 -27.6 3.7 -27.65 4.45 Q-27.65 7.55 -29.2 10.3 L-30.7 13.8 -30.0 16.85 -29.25 16.95 -28.65 16.4 -28.15 16.4 Q-24.85 19.15 -20.7 20.35 L-20.5 20.8 -18.45 22.2 -9.55 25.65 -5.7 24.85 Q-4.25 23.95 -2.1 23.35 L0.95 22.75 3.2 23.05 4.3 22.7 3.8 22.1 3.8 20.6 5.05 21.85 7.3 22.35 7.9 22.15 Q9.85 22.7 12.2 23.55 L15.95 24.65 19.4 25.05 24.05 22.65 25.0 21.35 Q25.1 20.55 25.55 19.9 L26.5 18.45 27.35 16.75 Q27.9 15.85 28.05 13.95 28.55 14.8 28.55 15.4 L29.45 13.2 30.4 9.55 30.4 8.9 Q29.75 6.95 29.4 4.9 L29.0 4.5 29.0 4.85 28.95 5.2 28.95 5.4 29.0 5.65 29.0 6.25 29.0 6.85 28.95 7.45 28.2 9.35 27.5 11.3 Q27.25 12.0 26.75 12.1 L26.7 11.9 26.9 11.35 27.0 10.8 27.15 10.25 27.25 10.1 27.5 9.15 27.8 8.3 28.05 7.55 28.05 7.0 28.1 6.2 28.1 5.6 28.05 5.35 28.0 5.15 27.95 4.95 27.95 4.75 28.0 4.55 28.0 4.35 28.0 4.15 27.9 3.95 27.85 3.8 27.65 3.75 27.4 3.7 27.15 3.65 26.9 3.45 26.8 3.2 26.75 3.0 26.75 2.8 26.8 2.6 26.85 2.45 26.95 2.3 27.1 2.15 27.35 2.0 27.65 2.0 27.95 2.1 28.2 2.25 28.4 2.4 28.25 1.1 Q28.0 -2.2 26.55 -5.1 L24.85 -6.75 24.4 -10.1 24.65 -10.8 24.95 -13.5 24.2 -14.05 19.35 -15.65 12.1 -17.3 13.35 -15.1 12.8 -14.55 12.5 -14.7 M15.15 -14.8 L15.25 -14.8 15.4 -14.7 15.35 -14.6 15.35 -14.5 15.35 -14.4 15.35 -14.3 15.3 -14.2 15.25 -14.15 15.2 -14.05 15.15 -13.95 15.1 -13.9 15.05 -13.8 15.0 -13.7 15.0 -13.6 15.05 -13.5 15.0 -13.4 14.95 -13.35 14.9 -13.3 14.8 -13.3 14.7 -13.3 14.65 -13.45 14.65 -13.55 14.65 -13.65 14.65 -13.75 14.65 -13.85 14.65 -13.95 14.7 -14.05 14.75 -14.1 14.8 -14.2 14.85 -14.25 14.9 -14.35 15.0 -14.4 15.05 -14.5 15.05 -14.6 15.05 -14.7 15.15 -14.8 M16.3 -12.45 L16.4 -12.55 16.4 -12.65 16.5 -12.7 16.55 -12.8 16.75 -12.9 16.9 -13.05 17.1 -13.2 17.15 -13.25 17.25 -13.35 17.35 -13.4 17.45 -13.45 17.55 -13.65 17.75 -13.85 17.9 -14.1 18.0 -14.2 18.05 -14.25 18.15 -14.35 18.2 -14.4 18.3 -14.5 18.35 -14.55 18.4 -14.6 18.45 -14.6 18.55 -14.6 18.7 -14.5 18.7 -14.4 18.7 -14.3 18.65 -14.2 18.6 -14.15 18.55 -14.05 18.55 -13.95 18.35 -13.7 18.1 -13.4 17.9 -13.15 17.85 -13.1 17.75 -13.0 17.7 -12.95 17.6 -12.9 17.55 -12.8 17.35 -12.65 17.1 -12.45 16.9 -12.35 16.85 -12.25 16.75 -12.2 16.75 -12.1 16.7 -12.0 16.65 -11.9 16.55 -11.85 16.5 -11.75 16.45 -11.7 16.35 -11.65 16.2 -11.65 16.05 -11.75 16.05 -11.85 16.05 -11.95 16.1 -12.05 16.15 -12.15 16.15 -12.2 16.25 -12.3 16.3 -12.4 16.3 -12.45 M18.85 -12.6 L18.9 -12.7 19.0 -12.75 19.05 -12.85 19.1 -12.95 19.15 -13.0 19.2 -13.1 19.25 -13.15 19.3 -13.25 19.4 -13.35 19.45 -13.4 19.5 -13.5 19.6 -13.55 19.7 -13.6 19.75 -13.7 19.75 -13.8 19.8 -13.9 19.9 -13.95 20.1 -13.9 20.15 -13.8 20.15 -13.7 20.2 -13.55 20.2 -13.45 20.2 -13.4 20.15 -13.3 20.05 -13.2 20.0 -13.15 19.95 -13.05 19.9 -13.0 19.85 -12.9 19.8 -12.8 19.75 -12.75 19.7 -12.65 19.65 -12.55 19.6 -12.5 19.5 -12.4 19.45 -12.35 19.4 -12.25 19.35 -12.2 19.25 -12.1 19.2 -12.05 19.15 -11.95 19.0 -11.8 18.9 -11.65 18.8 -11.55 18.75 -11.5 18.7 -11.4 18.6 -11.35 18.5 -11.25 18.45 -11.2 18.4 -11.1 18.3 -11.05 18.1 -10.9 17.8 -10.7 17.7 -10.65 17.65 -10.55 17.6 -10.5 17.6 -10.4 17.6 -10.3 17.55 -10.2 17.5 -10.15 17.4 -10.1 17.3 -10.1 17.15 -10.2 17.05 -10.35 17.05 -10.45 17.05 -10.55 17.1 -10.65 17.15 -10.7 17.2 -10.8 17.25 -10.9 17.25 -11.0 17.3 -11.05 17.4 -11.15 17.45 -11.2 17.55 -11.25 17.7 -11.35 17.75 -11.4 17.85 -11.45 17.9 -11.55 18.0 -11.6 18.05 -11.7 18.1 -11.8 18.2 -11.85 18.25 -11.95 18.3 -12.0 18.4 -12.1 18.45 -12.15 18.55 -12.25 18.6 -12.3 18.65 -12.4 18.7 -12.45 18.75 -12.55 18.85 -12.6 M8.15 -20.6 L8.7 -20.6 Q14.05 -18.2 19.95 -17.9 23.8 -17.45 26.6 -14.4 27.7 -13.8 27.55 -12.55 L27.4 -11.85 Q26.85 -10.1 27.2 -8.35 27.3 -7.95 27.6 -7.7 28.55 -6.95 28.75 -5.65 L29.5 -5.15 30.2 3.1 31.95 5.15 32.05 8.5 Q32.0 10.7 30.15 14.65 L28.75 18.15 28.3 19.3 Q27.85 20.7 26.8 21.6 26.6 22.75 25.55 23.5 24.0 24.6 21.9 25.05 L21.55 25.35 20.45 26.45 14.75 26.0 Q10.1 24.35 5.45 23.3 L3.1 24.35 2.45 24.2 -0.1 23.8 -1.85 24.1 -3.3 24.5 -6.0 25.7 -9.4 26.4 -16.15 24.05 -15.25 24.45 -19.35 23.2 Q-20.6 22.45 -21.85 21.8 -23.9 20.85 -26.05 20.25 -28.45 19.65 -29.45 17.85 L-30.65 17.95 Q-33.0 14.45 -31.55 10.85 L-30.75 8.75 Q-30.05 6.65 -30.0 4.25 -30.0 3.8 -30.25 3.45 -31.1 2.25 -31.15 1.0 L-30.45 0.0 Q-31.25 -2.55 -29.55 -4.6 L-26.45 -6.05 Q-25.35 -8.1 -25.85 -10.25 -26.2 -11.7 -26.0 -13.15 -25.85 -14.2 -26.0 -15.8 -26.15 -17.45 -24.1 -19.3 L-23.75 -19.6 -23.45 -19.55 -22.05 -22.0 -20.8 -23.4 -12.85 -24.1 -12.25 -24.5 -10.75 -24.7 -10.25 -25.25 -7.3 -25.95 -4.95 -26.55 Q-3.8 -26.05 -2.7 -25.4 L-0.65 -24.35 Q1.25 -23.45 3.3 -22.95 5.85 -22.15 8.15 -20.6 M1.0 -15.6 L1.05 -15.45 0.95 -15.1 0.8 -14.55 0.55 -14.05 0.5 -13.85 0.45 -13.65 0.4 -13.45 0.35 -13.3 0.35 -13.1 0.3 -12.9 0.2 -12.75 0.05 -12.65 0.0 -12.65 -0.15 -12.65 -0.2 -12.7 -0.25 -12.9 -0.3 -13.1 -0.2 -13.3 -0.15 -13.45 -0.05 -13.65 0.0 -13.8 0.05 -14.0 0.05 -14.2 0.25 -14.55 0.45 -15.05 0.75 -15.55 0.9 -15.65 1.0 -15.6 M19.95 -11.1 L19.95 -11.2 19.95 -11.3 19.95 -11.4 20.05 -11.5 20.1 -11.55 20.2 -11.6 20.3 -11.7 20.4 -11.75 20.4 -11.85 20.45 -11.95 20.45 -12.05 20.5 -12.1 20.55 -12.15 20.6 -12.15 20.8 -12.1 20.95 -12.1 20.95 -12.0 20.9 -11.9 20.85 -11.8 20.85 -11.7 20.85 -11.6 20.8 -11.55 20.7 -11.45 20.65 -11.4 20.55 -11.3 20.5 -11.25 20.4 -11.2 20.35 -11.1 20.35 -11.0 20.35 -10.9 20.3 -10.8 20.3 -10.7 20.3 -10.6 20.2 -10.55 20.05 -10.55 20.0 -10.6 19.95 -10.7 19.95 -10.8 19.95 -10.9 19.95 -11.0 19.95 -11.1 M-20.65 -17.25 L-20.3 -17.3 -20.05 -17.1 -20.1 -16.9 -20.2 -16.5 -20.3 -16.15 -20.35 -16.0 -20.55 -15.9 -20.6 -15.9 -20.8 -15.95 -20.9 -15.95 -21.0 -16.2 -21.0 -16.4 -20.95 -16.6 -20.95 -16.8 -20.9 -16.95 -20.75 -17.1 -20.65 -17.25 M-3.3 -15.9 L-3.3 -16.1 -3.2 -16.2 -2.75 -16.15 -2.65 -15.95 -2.35 -15.45 -2.25 -15.2 -2.25 -15.0 -2.25 -14.8 -2.25 -14.6 -2.25 -14.4 -2.2 -14.2 -2.2 -14.0 -2.2 -13.8 -2.2 -13.6 -2.2 -13.4 -2.2 -13.2 -2.15 -12.95 -2.15 -12.75 -2.15 -12.6 -2.25 -12.4 -2.4 -12.25 -2.65 -12.3 -2.75 -12.3 -2.85 -12.55 -2.95 -12.8 -2.95 -13.0 -3.0 -13.2 -3.0 -13.4 -3.0 -13.6 -3.0 -13.8 -3.0 -14.0 -3.0 -14.2 -3.05 -14.4 -3.05 -14.6 -3.05 -14.8 -3.05 -15.0 -3.05 -15.2 -3.1 -15.4 -3.2 -15.65 -3.3 -15.9" fill="#333333" fill-rule="evenodd" stroke="none"/>
    <path d="M13.4 -0.55 Q13.85 -1.2 13.2 -1.2 L13.05 -1.05 Q12.3 0.0 12.0 1.3 L12.95 0.55 12.95 0.45 13.4 -0.55 M14.5 -0.55 L14.55 -0.65 15.35 -0.9 15.7 -0.65 Q15.95 -0.35 16.4 -0.4 16.45 0.35 16.1 1.3 15.6 2.6 14.3 3.1 14.05 1.55 14.25 -0.05 L14.5 -0.55 M14.05 -1.2 L13.9 -0.3 12.85 1.0 Q12.35 1.5 11.65 1.5 11.45 1.05 11.85 0.3 L12.15 -0.4 Q12.35 -1.35 13.25 -1.75 13.9 -1.8 14.05 -1.2 M10.85 -1.85 L10.35 -1.85 Q9.95 -1.65 10.15 -1.0 10.35 -0.2 10.15 0.75 L10.75 -0.85 Q11.05 -1.45 10.85 -1.85 M8.45 -2.15 L7.95 -2.15 7.85 -2.1 7.75 -2.05 7.7 -1.95 Q7.5 -1.8 7.55 -1.55 L7.6 -0.25 7.65 -0.05 7.85 -0.35 Q8.35 -1.3 8.45 -2.15 M9.4 -1.65 Q9.55 -2.4 10.0 -2.5 L11.4 -2.4 11.4 -1.85 11.35 -1.4 10.55 0.7 Q10.25 1.55 9.7 1.6 L9.6 1.5 Q9.9 0.0 9.4 -1.5 L9.4 -1.65 M7.05 -1.5 Q6.5 -2.25 7.1 -2.55 L7.3 -2.55 7.65 -2.8 8.7 -2.6 8.75 -2.35 Q8.95 -0.6 7.55 0.4 7.15 0.0 7.25 -0.6 L7.05 -1.5 M5.35 -0.7 L5.35 -0.8 5.25 -1.85 5.15 -1.85 4.95 -1.6 Q4.9 -1.15 5.35 -0.7 M4.8 -2.1 L4.95 -2.15 Q5.6 -2.4 5.65 -1.65 5.85 -0.8 5.45 -0.1 L5.2 -0.25 Q4.65 -0.8 4.5 -1.6 L4.8 -2.1 M4.15 -14.05 L4.9 -13.6 6.9 -12.05 9.5 -10.4 10.05 -10.4 11.35 -9.3 12.75 -9.0 13.25 -8.75 14.0 -8.75 19.85 -6.45 20.35 -6.55 Q20.8 -6.15 21.35 -5.85 L22.05 -5.65 22.15 -5.6 Q23.15 -4.3 23.55 -2.85 L23.85 -1.05 23.6 0.15 23.3 0.85 20.15 0.45 Q17.55 -0.05 15.15 -1.4 12.35 -2.9 9.15 -3.3 L6.2 -3.1 3.15 -2.25 -1.4 -2.1 -2.55 -2.55 -2.75 -2.6 -2.8 -2.75 -2.8 -2.8 -2.7 -2.9 -2.65 -2.9 -4.05 -3.15 -4.6 -3.35 -4.7 -3.4 -5.0 -3.5 -5.1 -3.55 -5.2 -3.65 -5.3 -3.7 -5.85 -3.85 -5.65 -3.9 -7.85 -4.65 -10.6 -5.2 Q-10.95 -5.4 -11.3 -5.2 L-12.45 -5.3 -12.7 -5.5 -12.75 -6.0 -13.3 -6.15 -13.25 -5.95 -13.55 -5.45 -13.0 -3.9 -13.4 -2.8 -13.75 -2.35 -14.0 -2.25 -16.7 -2.35 -16.65 -2.7 -16.45 -3.0 -16.15 -3.3 -16.05 -3.35 -14.5 -3.2 -14.3 -4.1 -14.9 -4.9 -14.85 -5.9 -14.4 -6.75 -13.7 -7.25 -12.5 -7.15 -10.55 -6.65 Q-7.4 -6.25 -4.6 -4.75 -2.6 -3.65 -0.4 -3.1 0.85 -3.0 -0.05 -2.85 L3.5 -3.1 Q5.2 -3.8 6.95 -4.1 L9.15 -4.35 Q11.95 -3.9 14.35 -2.65 16.45 -1.55 18.65 -0.9 L20.05 -0.8 21.5 -0.15 22.85 0.0 22.95 -0.7 22.8 -1.9 22.65 -2.75 21.9 -4.25 21.6 -4.4 20.4 -4.95 Q17.05 -6.6 13.35 -7.45 L11.55 -7.85 10.7 -8.15 4.55 -11.75 2.85 -12.5 Q-2.5 -14.95 -8.25 -14.55 L-8.35 -14.5 Q-11.1 -12.85 -14.4 -12.15 -15.65 -12.0 -16.3 -13.2 -16.5 -13.55 -16.25 -13.9 L-17.2 -14.05 -18.65 -13.35 -18.8 -11.1 -17.6 -11.15 -17.0 -10.4 -17.45 -9.35 -18.1 -8.95 -18.15 -8.4 -18.2 -7.05 -18.1 -6.6 -18.55 -5.35 -18.55 -4.65 -18.5 -4.55 -18.2 -4.4 -17.65 -4.0 -17.55 -3.85 -17.65 -3.7 Q-17.9 -3.3 -18.3 -3.4 L-18.7 -3.45 -18.7 -3.4 -19.15 -3.75 -19.55 -4.15 -19.8 -4.5 -19.9 -5.55 -19.75 -6.1 -19.7 -6.3 -20.0 -7.15 -19.9 -7.95 -19.8 -8.9 Q-19.4 -10.0 -19.65 -10.6 -20.45 -11.6 -20.1 -12.85 L-19.95 -13.4 -19.2 -14.55 Q-18.7 -14.5 -18.25 -14.8 L-17.85 -15.05 -15.85 -15.2 -15.15 -14.45 -14.7 -13.6 -14.65 -13.55 -12.85 -13.65 -11.0 -14.65 Q-9.95 -14.65 -9.1 -15.4 -7.75 -16.65 -5.8 -16.4 L-1.7 -15.8 Q1.35 -15.25 4.15 -14.05 M21.95 0.9 L22.05 0.95 22.15 0.95 22.25 1.0 22.35 1.05 22.35 1.1 22.4 1.15 22.4 1.2 22.5 1.4 Q22.75 2.55 22.0 3.75 L21.55 4.45 Q21.65 3.6 21.4 2.8 L21.15 1.8 Q20.9 1.05 21.65 0.9 L21.65 0.85 21.7 0.85 21.75 0.8 21.85 0.8 21.95 0.9 M21.25 9.9 Q21.4 11.05 20.5 11.8 20.25 11.9 20.4 11.65 L20.6 11.2 20.6 11.05 Q20.0 11.1 19.5 11.55 L19.75 11.8 Q20.2 12.05 19.5 12.0 L19.4 12.0 19.3 11.95 19.2 11.9 19.1 11.85 19.1 11.7 Q18.95 11.5 19.15 11.35 L20.2 10.35 Q20.7 9.75 21.25 9.9 M22.05 2.95 L22.3 2.0 Q22.45 1.35 21.95 1.75 L21.8 1.75 22.05 2.95 M20.6 0.75 L20.75 1.2 Q20.35 2.6 19.4 3.9 L19.3 4.05 19.25 4.05 19.15 4.05 18.95 4.0 Q18.6 4.15 18.75 3.8 L19.0 2.7 18.85 1.45 18.95 0.95 19.0 0.85 20.6 0.75 M21.65 11.7 L21.65 11.8 Q21.85 12.75 21.05 13.25 L20.95 13.25 20.85 13.2 20.85 13.25 20.8 13.15 20.8 13.05 21.0 12.85 Q21.5 12.35 21.25 12.0 L21.15 12.05 20.45 12.75 20.35 12.75 20.25 12.75 20.2 12.75 20.1 12.7 20.0 12.65 19.95 12.6 19.95 12.45 20.0 12.4 20.35 12.05 Q20.95 11.4 21.65 11.7 M-18.9 5.7 L-18.1 5.45 -17.85 5.5 -17.25 5.7 -16.95 5.75 Q-16.85 5.95 -17.45 6.2 L-18.5 6.65 -18.75 7.35 -19.05 8.65 -19.55 8.85 Q-20.0 8.55 -19.85 7.95 -19.55 6.55 -18.9 5.7 M-14.65 -11.15 L-14.65 -11.1 -16.65 -10.15 -16.85 -10.35 -16.85 -10.9 -16.65 -11.25 -14.65 -11.15 M9.7 13.3 L9.95 14.1 10.0 15.0 10.0 15.25 Q10.25 15.05 10.45 15.1 11.0 15.35 11.8 15.1 12.2 15.0 12.2 14.6 L12.2 14.55 11.6 14.15 9.7 13.3 M9.65 12.0 L9.75 11.95 10.35 12.05 12.7 13.2 13.5 14.0 12.85 15.55 Q11.2 16.55 9.6 15.85 L9.1 15.05 9.1 13.85 9.05 13.75 8.65 13.15 Q7.75 11.9 8.85 11.4 9.4 11.35 9.65 12.0 M6.15 11.35 L5.95 10.7 Q5.55 10.1 5.95 9.85 6.55 10.05 6.75 10.9 L6.65 11.1 6.65 11.15 Q6.55 11.55 6.25 11.4 L6.15 11.35 M0.95 8.55 Q0.7 8.1 0.3 8.4 L-0.6 8.5 -0.9 8.8 -3.9 9.15 -3.95 9.35 -4.45 11.35 Q-4.7 12.55 -5.8 13.1 L-3.4 13.8 -0.65 13.6 1.95 13.25 Q2.15 12.75 2.7 12.5 L3.15 11.05 2.85 10.35 2.2 9.95 Q1.35 9.35 0.95 8.55 M2.85 7.75 Q4.15 7.95 4.8 8.9 L3.35 8.8 3.8 9.35 Q4.35 10.0 4.7 10.8 L3.7 13.25 4.05 13.5 4.0 14.3 3.95 14.35 Q5.2 14.05 6.05 12.8 6.45 12.2 6.85 12.3 L6.5 13.8 Q5.9 14.85 4.75 15.15 L2.4 15.4 0.6 15.25 -2.0 15.05 -5.4 14.4 -5.85 14.6 -6.35 14.5 -6.9 13.1 Q-7.15 12.55 -6.75 12.0 L-5.95 11.7 -5.8 11.4 -5.55 10.6 Q-5.05 9.3 -5.25 7.95 L-5.5 7.65 Q-6.0 7.1 -6.4 7.35 L-6.85 8.1 -6.75 8.55 -6.65 9.15 -6.65 9.45 -6.75 9.95 -7.15 10.3 -7.5 10.3 -7.65 9.75 Q-7.5 9.35 -7.6 8.8 L-7.6 8.0 -7.25 6.6 -5.65 6.05 -4.45 6.55 -4.0 7.5 -3.65 7.55 -2.75 7.95 Q-1.75 7.85 -1.0 7.35 L-0.1 7.3 0.5 7.1 0.8 7.05 2.85 7.75 M5.0 2.65 L5.0 2.6 4.1 3.25 4.1 3.55 4.55 3.7 4.6 3.6 Q4.9 3.45 5.0 2.65 M8.85 3.75 L8.65 4.15 Q8.25 4.55 8.65 5.0 8.95 5.25 9.05 4.7 9.15 4.05 8.85 3.75 M6.8 4.6 L7.15 4.35 Q7.5 3.25 7.05 2.2 L6.2 4.4 6.25 4.5 6.8 4.6 M5.4 2.0 L5.4 2.85 Q5.1 4.15 4.05 4.0 L3.95 4.0 3.85 3.95 3.8 3.9 3.75 3.85 3.7 3.65 Q3.6 3.2 3.85 2.85 L3.85 2.75 5.35 1.85 5.4 2.0 M6.75 1.55 Q6.85 1.3 7.05 1.45 7.5 1.7 7.55 2.15 L7.65 2.9 7.65 3.5 7.15 4.95 5.8 4.85 Q5.7 4.05 6.0 3.35 L6.75 1.55 M9.15 2.85 L9.15 2.9 9.3 3.4 Q9.6 4.4 8.9 5.35 8.4 5.35 8.1 4.9 8.0 4.5 8.2 4.05 L8.45 3.3 Q8.6 2.75 9.15 2.85 M17.75 7.75 L18.0 6.8 18.1 5.7 17.25 6.6 16.7 7.25 Q16.35 7.8 16.35 8.3 L16.45 8.55 17.2 8.35 17.5 8.05 17.7 7.95 17.75 7.75 M18.7 7.3 L18.85 6.6 Q18.9 5.8 19.55 6.25 20.35 8.55 18.8 10.4 L18.2 10.6 Q17.45 10.45 17.4 9.5 L17.7 8.9 18.7 7.3 M19.35 7.15 L19.15 7.4 Q18.7 8.55 17.9 9.25 L17.7 9.5 17.75 9.8 17.85 10.0 17.85 10.1 17.9 10.1 18.05 10.2 Q18.3 10.4 18.5 10.2 L18.95 9.6 Q19.5 8.95 19.5 8.2 L19.35 7.15 M14.9 9.9 L13.9 9.3 Q12.0 7.85 9.35 7.6 L6.6 6.65 5.0 5.9 Q2.7 4.85 0.75 3.2 L-0.75 3.0 -2.9 2.45 -3.2 2.0 -4.0 1.65 Q-5.4 0.8 -6.2 -0.5 L-7.45 -0.45 -8.75 -0.2 -10.6 -0.75 Q-11.7 -0.55 -11.8 0.15 L-11.4 0.6 -11.0 1.4 -10.0 2.85 Q-9.3 3.85 -9.15 4.95 -8.95 6.3 -9.8 7.5 L-10.65 7.95 -11.2 7.9 -12.05 8.35 -12.3 8.9 -12.8 9.7 Q-13.2 10.7 -13.95 11.3 L-15.35 12.3 Q-17.85 12.15 -19.85 10.35 L-19.75 9.6 -19.25 9.55 -18.4 10.05 Q-16.95 10.8 -15.8 10.9 L-15.2 10.25 Q-16.4 10.35 -17.25 9.75 L-18.1 9.1 -18.1 9.05 -16.45 9.55 Q-15.25 9.75 -14.45 9.0 L-13.75 8.05 -15.45 6.6 -15.85 5.45 -15.7 5.1 Q-15.4 4.55 -15.6 4.15 -15.85 3.8 -16.15 3.7 L-19.2 3.3 Q-21.3 3.7 -23.15 4.95 L-23.5 5.7 -22.9 6.25 Q-22.1 6.75 -21.7 7.75 L-21.9 9.45 -21.15 10.9 Q-20.4 12.55 -18.8 13.4 L-18.15 13.3 -17.5 13.7 Q-16.65 14.1 -16.05 14.8 -15.3 15.8 -13.9 16.0 L-11.75 16.05 -10.3 15.95 Q-8.4 16.85 -6.25 16.7 L-6.0 16.4 Q-6.2 16.2 -6.0 15.7 L-5.95 15.7 -4.0 15.9 -2.05 15.85 2.85 17.1 4.5 17.65 7.15 17.85 Q9.75 18.75 12.55 18.85 L13.0 18.6 13.35 18.6 14.6 18.65 Q15.85 18.2 16.7 17.15 L18.1 15.65 Q18.85 15.75 19.5 15.3 L19.65 15.15 Q20.1 14.65 19.65 14.15 L15.95 10.55 14.9 9.9 M13.2 3.75 L13.75 5.15 13.2 6.7 Q12.55 7.0 11.95 6.5 11.65 5.6 12.25 4.85 L12.75 3.7 Q12.9 3.35 13.2 3.75 M12.55 5.15 Q12.15 5.55 12.3 6.0 L12.35 6.15 12.9 6.45 12.95 6.35 13.05 6.25 Q13.45 5.55 13.3 4.8 13.2 4.15 13.1 4.35 L12.7 4.95 12.55 5.15 M10.85 3.55 L10.5 4.55 Q10.0 5.25 10.6 5.6 11.0 5.8 11.1 5.25 11.35 4.15 10.85 3.55 M10.95 2.45 L11.25 2.85 Q11.65 3.8 11.65 4.85 L11.4 5.5 11.3 5.7 11.15 5.95 10.05 5.8 Q9.6 5.3 9.85 4.65 L10.5 3.0 10.65 2.75 Q10.8 2.35 10.95 2.45 M17.9 4.6 Q18.2 4.3 18.3 4.9 18.6 6.1 18.2 7.35 17.95 8.25 17.15 8.9 16.5 9.15 16.05 8.6 15.8 7.95 16.05 7.35 16.3 6.7 16.85 6.3 17.55 5.75 17.7 5.05 L17.9 4.6 M16.2 4.05 L16.0 4.2 14.4 6.3 14.4 6.85 Q14.25 7.1 14.6 7.15 L14.85 7.1 15.65 6.15 Q16.4 4.9 16.2 4.05 M16.35 2.9 L16.7 2.95 16.75 3.85 16.65 4.45 Q16.25 6.05 15.15 7.6 L14.75 7.55 13.9 7.15 13.95 6.05 16.35 2.9 M17.5 0.4 Q17.15 0.55 17.1 1.1 L17.05 1.9 17.7 1.3 Q18.2 0.65 17.5 0.4 M15.8 0.7 L15.8 0.5 Q15.6 -0.2 15.05 0.25 14.5 1.4 14.55 2.6 L14.85 2.35 Q15.6 1.75 15.8 0.7 M18.15 0.35 L18.45 0.4 18.3 0.75 Q17.95 1.7 17.3 2.3 L16.75 2.25 Q16.35 1.65 16.6 0.85 16.8 0.05 17.6 0.0 L18.15 0.35 M20.15 1.4 L19.6 1.35 19.5 1.6 19.4 1.9 19.3 2.2 19.4 2.35 19.4 2.5 Q19.55 3.1 19.2 3.6 L20.1 2.0 Q20.4 1.25 20.15 1.4 M21.05 14.2 L21.0 14.6 20.55 15.6 19.6 16.55 18.45 17.05 17.2 18.4 15.85 19.25 14.85 19.6 Q13.6 19.45 12.6 19.95 L8.9 19.6 6.9 18.95 Q5.0 19.0 3.0 18.25 L2.25 18.05 Q-0.75 16.7 -4.1 16.6 L-4.25 16.75 -5.9 17.75 -7.45 17.9 Q-9.4 17.2 -11.4 17.05 L-14.2 17.15 -15.65 16.75 Q-16.55 16.7 -17.0 16.1 -17.45 15.55 -18.3 15.15 L-19.1 14.3 -19.8 14.15 Q-21.25 13.0 -22.15 11.3 L-23.25 9.6 -23.3 7.85 -24.9 6.3 -25.25 5.6 Q-25.25 4.85 -24.9 4.5 L-23.9 3.65 Q-21.95 2.05 -19.3 1.55 L-15.9 2.25 -15.6 2.75 -15.35 2.75 -15.05 2.8 -14.75 3.05 -14.15 4.0 Q-13.85 4.5 -14.25 4.8 L-14.35 5.0 -14.3 5.35 -13.8 6.15 -13.7 6.35 -12.85 6.75 Q-12.35 6.1 -11.4 6.2 L-10.85 5.85 Q-10.85 5.25 -11.15 4.65 -11.5 3.85 -12.15 3.25 L-12.1 2.65 -13.5 0.05 -13.45 -0.15 -13.15 -1.05 -12.95 -1.4 -12.8 -1.5 -7.55 -1.9 -7.2 -1.75 -7.0 -1.65 -6.9 -1.65 -6.75 -1.65 -6.65 -1.6 -6.4 -1.55 -6.1 -1.55 -5.9 -1.45 -5.65 -1.4 -5.25 -1.3 -4.9 -1.0 -4.8 -0.25 Q-3.5 1.25 -1.55 1.5 L-1.35 1.75 -1.35 1.85 -1.1 1.9 0.0 1.75 1.15 2.25 1.65 2.7 3.1 3.85 Q3.8 4.25 4.1 4.8 L4.15 4.75 6.3 5.1 6.8 5.25 9.75 6.2 13.2 7.25 14.6 7.85 Q15.25 8.1 15.8 8.65 L18.35 11.15 19.7 12.65 21.05 14.2" fill="#333333" fill-rule="evenodd" stroke="none"/>
  </g>
</svg>
