<?xml version="1.0" encoding="UTF-8" standalone="no"?>
<svg xmlns:xlink="http://www.w3.org/1999/xlink" height="136.35px" width="85.3px" xmlns="http://www.w3.org/2000/svg">
  <g transform="matrix(1.0, 0.0, 0.0, 1.0, 42.65, 68.15)">
    <path d="M-40.85 -65.65 L-41.4 -65.85 -41.65 -66.4 -41.45 -66.9 -40.9 -67.15 Q-28.55 -67.4 -25.05 -52.95 -21.75 -39.15 -24.1 6.6 -25.25 29.2 -22.7 39.75 -21.45 44.8 -19.35 47.0 -17.45 48.9 -14.65 48.25 -1.7 44.95 4.2 47.4 10.2 49.7 13.4 58.2 16.2 65.7 21.6 65.5 27.0 65.1 30.1 53.2 33.45 39.9 40.75 38.25 L41.3 38.3 41.65 38.8 41.55 39.35 41.1 39.7 Q34.65 41.4 31.55 53.55 28.1 66.8 21.7 67.0 15.3 67.4 12.0 58.75 9.1 51.0 3.65 48.8 -2.0 46.55 -14.3 49.7 -17.9 50.6 -20.45 48.05 -22.8 45.7 -24.15 40.15 -26.8 29.45 -25.6 6.5 -23.25 -38.95 -26.5 -52.6 -29.65 -65.8 -40.85 -65.65" fill="#ffcc33" fill-rule="evenodd" stroke="none"/>
    <path d="M-25.1 -42.05 L-24.9 -42.4 -24.5 -42.8 -24.3 -42.95 -24.0 -42.95 -24.0 -43.0 -23.6 -42.85 -23.45 -42.65 -23.3 -42.5 -23.25 -42.3 -23.2 -42.1 -23.1 -41.9 -23.0 -41.75 -22.75 -40.4 -22.7 -38.75 -22.6 -37.25 -22.5 -37.05 -22.35 -36.85 -22.2 -33.65 -22.2 -30.1 -22.1 -27.5 -22.05 -27.3 -22.0 -27.1 -21.95 -26.9 -21.85 -26.75 -21.8 -23.0 -21.75 -18.85 -21.85 -15.85 -21.95 -15.65 -22.05 -15.5 -22.05 -15.3 -22.1 -15.1 -22.2 -14.9 -22.3 -14.75 -22.3 -14.55 -22.3 -14.35 -22.3 -14.0 -22.3 -13.6 -22.35 -13.4 -22.45 -13.25 -22.5 -13.05 -22.55 -12.85 -22.55 -12.65 -22.55 -12.3 -22.55 -11.9 -22.6 -11.55 -22.75 -11.35 -22.85 -5.35 -22.8 1.2 -22.85 5.35 -22.95 5.5 -23.0 5.7 -23.05 5.9 -23.2 6.1 -23.2 6.25 -23.2 6.45 -23.2 6.85 -23.2 7.2 -23.25 7.4 -23.35 7.6 -23.4 7.95 -23.45 8.7 -23.45 9.45 -23.5 9.65 -23.55 9.85 -23.7 10.05 -23.7 10.2 -23.7 10.4 -23.75 10.8 -23.8 11.15 -23.9 11.35 -24.0 11.55 -24.05 11.7 -24.1 11.9 -24.1 12.1 -24.1 12.3 -24.1 12.45 -24.2 12.65 -24.25 12.85 -24.25 13.05 -24.25 13.2 -24.3 13.4 -24.45 13.6 -24.55 13.8 -24.6 13.95 -24.7 14.15 -24.8 14.35 -24.95 14.45 -25.25 14.55 -25.7 14.4 -25.8 14.2 -25.95 14.05 -26.0 13.85 -26.05 13.65 -26.2 13.45 -26.2 13.25 -26.25 13.1 -26.25 12.9 -26.3 12.7 -26.35 12.55 -26.4 12.15 -26.45 11.6 -26.5 11.0 -26.5 10.85 -26.45 10.65 -26.35 10.45 -26.3 10.3 -26.3 10.1 -26.3 9.9 -26.3 9.55 -26.25 9.15 -26.15 8.95 -26.05 8.8 -26.05 8.4 -26.05 7.85 -26.05 7.25 -26.05 7.1 -26.0 6.9 -25.95 6.7 -25.85 6.5 -25.8 6.35 -25.8 6.15 -25.8 5.95 -25.8 5.6 -25.8 5.2 -25.75 5.05 -25.6 4.85 -25.7 -1.35 -25.7 -8.1 -25.7 -12.25 -25.6 -12.4 -25.55 -12.6 -25.5 -12.8 -25.45 -13.0 -25.45 -13.15 -25.45 -13.35 -25.45 -13.55 -25.45 -13.75 -25.35 -13.9 -25.3 -14.1 -25.25 -14.3 -25.2 -14.5 -25.2 -14.65 -25.2 -15.05 -25.15 -15.4 -25.1 -15.8 -25.0 -16.0 -24.95 -16.15 -24.9 -16.35 -24.85 -16.55 -24.75 -16.75 -24.65 -19.9 -24.65 -23.5 -24.6 -26.1 -24.7 -26.3 -24.75 -26.5 -24.8 -26.65 -24.85 -26.85 -24.8 -29.85 -24.8 -33.25 -24.7 -35.85 -24.75 -36.05 -24.85 -36.25 -24.9 -37.55 Q-24.75 -38.4 -24.75 -39.25 L-24.7 -40.9 -24.7 -41.1 -24.8 -41.3 -24.85 -41.5 -25.05 -41.7 -25.1 -41.85 -25.1 -42.05" fill="#663333" fill-opacity="0.2" fill-rule="evenodd" stroke="none"/>
    <path d="M-22.95 -17.05 L-22.65 -15.0 -22.55 -12.55 -22.5 -10.85 -22.55 -10.65 -22.6 -10.5 -22.7 -10.3 -22.7 -9.9 -22.7 -9.55 -22.65 -9.0 -22.6 -8.8 -22.65 -8.6 -22.7 -8.4 -22.75 -8.25 -22.8 -8.05 -22.85 -7.85 -22.8 -7.5 -22.8 -7.1 -22.8 -6.9 -22.95 -6.55 -23.1 -6.0 -23.3 -5.4 -23.3 -4.65 -23.25 -3.75 -23.25 -2.8 -23.3 -2.6 -23.45 -2.4 -23.5 0.95 -23.45 4.5 -23.45 6.95 -23.5 7.15 -23.6 7.35 -23.6 7.5 -23.6 7.9 -23.6 8.25 -23.6 8.65 -23.7 8.85 -23.75 9.05 -23.8 9.2 -23.85 9.4 -23.85 12.4 -23.85 15.6 -23.85 17.65 -23.95 17.85 -24.0 18.05 -24.05 18.2 -24.1 18.4 -24.15 22.35 -24.15 26.45 -24.25 29.3 -24.2 29.45 -24.1 29.65 -24.05 29.85 -24.05 30.05 -24.05 30.2 -24.1 30.4 -24.1 30.6 -24.1 30.8 -24.05 30.95 -24.0 31.15 -23.95 31.55 -23.95 31.7 -24.05 31.9 -24.1 32.1 -24.2 32.3 -24.25 32.45 -24.3 32.65 -24.45 32.85 -24.55 32.95 -24.7 33.0 -25.0 33.1 -25.45 32.95 -25.6 32.75 -25.75 32.6 -25.8 32.4 -25.85 32.2 -25.95 32.05 -26.05 31.85 -26.1 31.65 -26.2 31.45 -26.3 31.3 -26.35 31.1 -26.35 30.9 -26.35 30.7 -26.35 30.55 -26.45 30.35 -26.6 30.15 -26.7 29.95 -26.9 25.3 -26.9 20.4 -26.8 17.4 -26.75 17.2 -26.6 17.05 -26.6 14.05 -26.6 10.85 -26.6 8.6 -26.55 8.4 -26.5 8.2 -26.45 8.0 -26.35 7.85 -26.35 7.65 -26.35 7.45 -26.35 7.1 -26.35 6.7 -26.3 6.5 -26.25 6.35 -26.2 6.15 -26.05 5.95 -26.05 2.75 -26.05 -0.8 -26.0 -3.05 -25.9 -3.2 -25.8 -3.4 -25.65 -4.15 -25.65 -5.1 -25.7 -6.05 -25.7 -6.25 -25.6 -6.4 -25.5 -6.6 -25.45 -6.8 -25.4 -7.0 -25.35 -7.15 -25.25 -7.35 -25.2 -7.55 -25.15 -7.9 -25.1 -8.3 -25.05 -8.65 -25.0 -8.85 -24.85 -9.05 -24.8 -9.4 -24.8 -10.0 -24.8 -10.55 -24.8 -10.75 -24.75 -10.9 -24.6 -11.1 -24.5 -11.3 -24.4 -13.35 -24.25 -15.6 -24.1 -17.1 -24.0 -17.3 -23.85 -17.4 -23.75 -17.45 -23.5 -17.5 -23.5 -17.55 -23.2 -17.4 -23.05 -17.25 -22.95 -17.05" fill="#663333" fill-opacity="0.2" fill-rule="evenodd" stroke="none"/>
    <path d="M36.1 41.65 L36.55 41.75 36.7 41.95 36.85 42.15 36.9 42.35 36.95 42.5 36.9 42.7 36.85 42.9 36.15 44.0 35.2 45.3 34.7 46.25 34.7 46.45 34.65 46.65 34.55 46.85 34.55 47.0 34.55 47.2 34.5 47.4 34.45 47.6 34.4 47.75 34.3 47.95 34.2 48.15 34.1 48.35 34.1 48.5 34.1 48.7 34.0 48.9 33.9 49.1 33.85 49.3 33.85 49.45 33.85 49.65 33.8 49.85 33.7 50.0 33.65 50.2 33.6 50.4 33.4 50.75 33.05 51.35 32.6 51.9 32.45 52.1 32.45 52.25 32.45 52.45 32.45 52.65 32.45 52.85 32.4 53.0 32.35 53.2 32.3 53.4 32.2 53.6 32.2 53.75 32.2 53.95 32.15 54.15 32.1 54.35 31.95 54.5 31.95 54.7 31.95 54.9 31.7 55.65 31.4 56.6 31.1 57.5 31.05 57.7 30.8 58.05 30.5 58.65 30.1 59.2 29.9 59.4 29.85 59.6 29.7 59.8 29.7 59.95 29.65 60.15 29.3 60.7 Q28.95 61.0 28.75 61.45 L28.35 62.2 28.1 62.4 27.9 62.55 27.15 62.65 26.1 62.85 25.6 62.7 25.4 62.7 25.1 62.7 24.65 62.6 24.55 62.4 24.45 62.2 24.4 62.05 24.45 61.85 24.55 61.65 24.65 61.45 25.1 61.3 25.3 61.1 25.65 60.7 26.1 60.35 26.2 60.15 26.35 59.95 26.4 59.8 27.15 58.65 27.95 57.25 28.45 56.4 28.5 56.2 28.55 56.05 28.65 55.85 28.7 55.65 28.75 55.45 28.8 55.3 28.9 55.1 28.95 54.9 29.0 54.7 29.05 54.55 29.15 54.35 29.2 54.15 29.2 53.95 29.25 53.8 29.3 53.6 29.35 53.4 29.45 53.2 29.45 53.0 29.45 52.85 29.45 52.65 29.45 52.45 29.55 52.3 29.65 52.1 29.7 51.9 29.7 51.7 29.75 51.55 29.8 51.35 29.85 51.15 30.1 50.75 30.35 50.4 30.55 50.2 30.6 50.05 30.95 49.45 31.3 48.85 31.35 48.7 31.35 48.55 31.4 48.35 31.45 48.15 31.6 47.95 31.6 47.8 31.65 47.6 31.75 47.4 31.9 47.2 32.0 47.05 32.1 46.85 32.2 46.65 32.2 46.45 32.2 46.25 32.3 46.1 32.4 45.9 32.45 45.7 32.55 45.5 32.7 45.35 32.85 45.15 32.9 44.95 33.65 44.0 Q34.0 43.3 34.6 42.9 L34.95 42.35 35.15 42.15 35.35 41.95 35.65 41.75 36.1 41.7 36.1 41.65" fill="#663333" fill-opacity="0.2" fill-rule="evenodd" stroke="none"/>
    <path d="M30.85 52.4 L31.15 52.5 31.35 52.7 31.45 52.9 31.55 53.1 31.6 53.25 31.65 53.45 31.65 53.65 31.65 53.85 31.7 54.0 31.65 54.2 31.6 54.4 31.45 54.6 31.4 54.75 31.35 54.95 31.25 55.35 31.15 55.7 31.15 55.9 31.15 56.1 31.1 56.25 31.05 56.45 30.95 56.65 30.95 56.85 30.95 57.0 30.95 57.2 30.9 57.4 30.8 57.6 30.8 57.75 30.85 57.95 30.9 58.35 30.9 58.7 30.85 58.9 30.75 59.1 30.65 59.3 30.65 59.45 30.6 59.65 30.5 59.85 30.4 60.05 30.4 60.2 30.45 60.4 30.45 60.6 30.4 60.8 30.35 60.95 30.3 61.15 30.15 61.35 30.0 61.5 29.85 61.7 29.75 61.9 29.65 62.1 29.6 62.3 29.55 62.45 28.55 63.6 26.95 64.9 26.75 65.1 26.55 65.3 26.1 65.45 25.7 65.65 25.5 65.85 25.3 66.05 24.95 66.15 Q21.55 67.15 18.0 66.8 L17.45 66.65 17.2 66.55 16.7 66.4 16.35 66.2 16.15 66.05 15.55 65.6 14.95 65.1 14.65 64.7 14.6 64.55 14.5 64.35 14.3 64.0 14.0 63.4 13.7 62.85 13.6 62.45 13.45 61.9 13.3 61.35 13.25 61.15 13.2 60.95 13.1 60.8 13.05 60.6 13.0 60.4 13.0 60.2 13.0 60.05 13.0 59.85 12.95 59.65 12.85 59.45 12.85 59.3 12.85 59.1 12.95 58.9 13.1 58.7 13.5 58.6 13.9 58.7 14.1 58.9 14.2 59.05 14.25 59.05 14.75 59.15 15.1 59.35 15.25 59.55 15.5 59.9 15.8 60.25 15.95 60.45 16.05 60.65 16.15 60.85 16.2 61.05 16.25 61.2 16.55 61.8 17.15 62.7 17.65 63.3 17.95 63.45 18.6 63.65 22.1 63.7 22.75 63.55 23.9 63.3 24.75 62.7 Q25.35 62.25 26.05 62.05 L26.2 61.85 26.45 61.65 26.6 61.45 26.65 61.3 26.85 61.1 26.95 60.9 27.1 60.7 27.15 60.55 27.35 60.35 27.45 60.15 27.65 59.8 27.8 59.6 27.8 59.4 27.8 59.2 27.85 59.05 27.95 58.85 28.05 58.65 28.05 58.45 28.1 58.3 28.2 58.1 28.35 57.9 28.35 57.7 28.4 57.5 28.4 57.35 28.45 57.15 28.45 56.95 28.55 56.8 28.65 56.6 28.7 56.4 28.7 56.2 28.7 56.0 28.8 55.85 28.9 55.65 29.05 55.45 29.05 55.3 29.1 55.1 29.2 54.9 29.35 54.7 29.35 54.55 29.4 54.35 29.55 54.15 29.65 53.95 29.8 53.8 29.95 53.6 30.05 53.4 30.05 53.2 30.1 53.0 30.2 52.85 30.35 52.65 30.45 52.5 30.6 52.5 30.85 52.45 30.85 52.4" fill="#663333" fill-opacity="0.2" fill-rule="evenodd" stroke="none"/>
    <path d="M5.8 47.9 L6.1 48.1 6.35 48.25 6.7 48.45 6.9 48.65 7.25 48.85 7.6 49.0 7.95 49.2 8.15 49.4 8.35 49.6 8.4 49.75 8.5 49.95 8.6 50.15 8.55 50.35 8.5 50.55 8.45 50.7 8.35 50.9 8.25 51.1 8.0 51.3 7.85 51.4 7.5 51.45 7.1 51.35 6.8 51.15 6.5 50.95 6.25 50.85 5.75 50.7 5.5 50.5 5.35 50.35 5.15 50.15 4.75 49.95 4.4 49.75 4.1 49.6 3.85 49.4 3.25 49.2 3.0 49.1 2.5 48.95 2.15 48.8 1.75 48.6 1.5 48.45 1.4 48.45 0.5 48.3 0.0 48.2 -0.35 48.0 -0.65 47.85 -6.25 47.55 -6.85 47.6 -7.25 47.7 -7.75 47.75 -8.35 47.8 -9.1 48.05 -9.5 48.15 -10.4 48.3 -10.75 48.4 -11.35 48.55 -11.75 48.65 -12.25 48.65 -12.7 48.7 -13.0 48.85 -15.0 48.7 -15.9 48.5 -16.6 48.2 -15.0 47.85 -11.6 47.25 -10.5 46.9 -9.35 46.8 -9.0 46.65 -8.6 46.55 -8.25 46.4 -7.75 46.35 -1.75 45.8 -0.25 45.7 0.25 45.85 0.5 45.95 1.0 46.1 1.75 46.25 2.25 46.35 2.6 46.5 2.9 46.65 3.0 46.7 3.5 46.85 3.85 47.0 4.15 47.15 4.5 47.2 5.0 47.35 5.25 47.55 5.45 47.7 5.8 47.9" fill="#ffff99" fill-opacity="0.2" fill-rule="evenodd" stroke="none"/>
    <path d="M5.35 47.9 L5.45 48.1 5.6 48.3 5.7 48.45 5.75 48.65 5.75 48.85 5.75 49.0 5.65 49.2 5.5 49.4 5.4 49.6 5.15 49.75 4.9 49.9 4.5 49.95 4.0 49.85 2.75 49.55 2.2 49.4 2.0 49.3 1.45 49.15 1.2 48.95 1.05 48.85 0.75 48.8 0.2 48.65 0.0 48.55 -9.0 48.55 -10.0 48.55 -10.55 48.4 -10.8 48.2 -11.0 48.0 -11.1 47.85 -11.15 47.65 -11.2 47.45 -11.25 47.3 -11.2 47.1 -11.15 46.9 -11.1 46.7 -11.0 46.55 -10.8 46.35 -10.55 46.15 -10.15 45.95 -9.85 45.85 -9.5 45.8 -7.75 45.8 0.25 45.85 0.75 45.95 1.1 46.15 1.5 46.25 2.0 46.4 2.4 46.6 2.65 46.7 2.75 46.8 3.25 46.9 4.0 47.05 4.5 47.15 4.85 47.35 5.0 47.55 5.2 47.7 5.35 47.9" fill="#ffff99" fill-opacity="0.2" fill-rule="evenodd" stroke="none"/>
    <path d="M38.65 38.45 L38.9 38.3 39.45 37.95 39.7 37.9 40.25 37.75 40.9 37.55 41.05 37.5 41.35 37.45 41.35 37.4 41.8 37.55 42.0 37.7 42.2 37.9 42.35 38.1 42.4 38.3 42.45 38.45 42.45 38.65 42.4 38.85 42.25 39.0 42.1 39.2 41.9 39.35 41.6 39.4 41.3 39.35 41.15 39.35 40.9 39.4 40.65 39.45 40.15 39.6 39.85 39.8 39.55 39.95 38.9 40.2 38.65 40.4 38.4 40.6 38.0 40.7 37.6 40.6 37.3 40.7 37.0 40.85 36.95 40.75 37.15 40.5 37.3 40.3 37.35 40.15 37.35 39.95 37.5 39.65 37.9 39.2 38.15 39.05 38.25 38.85 38.4 38.65 38.65 38.45" fill="#ffff99" fill-opacity="0.2" fill-rule="evenodd" stroke="none"/>
    <path d="M-35.2 -66.8 L-34.85 -66.6 -34.75 -66.5 -34.65 -66.45 -34.3 -66.3 -33.35 -65.75 -31.95 -64.85 -31.2 -64.25 -30.85 -64.1 -30.5 -64.0 -30.25 -63.8 -30.1 -63.7 -30.0 -63.65 -29.5 -63.5 -29.25 -63.3 -28.95 -63.1 -28.6 -62.75 -28.0 -62.15 -27.6 -61.65 -27.25 -61.25 -27.15 -61.05 -27.05 -60.85 -26.9 -60.7 -26.75 -60.5 -26.65 -60.3 -26.55 -60.1 -26.5 -59.95 -26.4 -59.75 -26.3 -59.55 -26.25 -59.35 -26.25 -59.2 -26.25 -59.0 -26.25 -58.6 -26.25 -58.25 -26.25 -58.05 -26.2 -57.85 -26.1 -57.7 -26.05 -57.5 -26.0 -57.3 -26.0 -57.1 -25.9 -56.95 -25.8 -56.75 -25.75 -56.55 -25.7 -56.35 -25.7 -56.2 -25.7 -56.0 -25.65 -55.8 -25.6 -55.6 -25.55 -55.45 -25.45 -55.25 -25.35 -55.05 -25.25 -54.85 -25.2 -54.7 -25.2 -54.5 -25.2 -54.3 -25.1 -54.1 -25.05 -53.95 -25.0 -53.75 -24.95 -53.55 -24.95 -53.35 -25.0 -53.2 -25.05 -53.0 -25.1 -52.8 -25.2 -52.6 -25.3 -52.45 -25.55 -52.25 -25.7 -52.1 -25.85 -52.05 -26.25 -52.0 -26.8 -52.1 -27.05 -52.3 -27.25 -52.5 -27.35 -52.7 -27.6 -53.05 -27.75 -53.25 -27.8 -53.45 -27.8 -53.6 -27.8 -53.8 -27.85 -54.0 -27.95 -54.2 -28.0 -54.35 -28.1 -54.55 -28.25 -54.75 -28.3 -54.95 -28.3 -55.1 -28.3 -55.3 -28.35 -55.5 -28.45 -55.7 -28.5 -55.85 -28.55 -56.05 -28.55 -56.25 -28.55 -56.45 -28.55 -56.6 -28.6 -56.8 -28.7 -57.0 -28.7 -57.2 -28.75 -57.35 -28.75 -57.55 -28.75 -57.95 -28.75 -58.3 -28.75 -58.5 -28.75 -58.65 -28.85 -58.85 -28.95 -59.05 -29.0 -59.25 -29.2 -59.45 -29.35 -59.6 -29.45 -59.8 -29.5 -60.0 -29.95 -60.6 -31.0 -61.5 -32.1 -62.25 -32.45 -62.45 -32.6 -62.6 -32.8 -62.8 -33.1 -63.0 -33.45 -63.2 -33.6 -63.35 -33.8 -63.55 -34.0 -63.75 -34.35 -63.95 -34.55 -64.1 -34.85 -64.3 -35.2 -64.5 -35.3 -64.65 -35.5 -64.85 -35.8 -65.05 -36.0 -65.25 -36.3 -65.45 -36.6 -65.65 -36.75 -65.75 -37.05 -65.8 -37.45 -65.95 -37.55 -66.1 -37.65 -66.3 -37.7 -66.5 -37.65 -66.65 -37.55 -66.85 -37.45 -67.05 -37.05 -67.15 -36.75 -67.2 -36.25 -67.3 -35.85 -67.2 -35.55 -67.0 -35.2 -66.8" fill="#ffff99" fill-opacity="0.2" fill-rule="evenodd" stroke="none"/>
    <path d="M-32.05 -64.25 L-31.75 -64.3 -31.35 -64.2 -31.1 -64.2 -30.9 -64.35 -30.75 -64.5 -30.6 -64.55 -30.25 -64.6 -29.75 -64.5 -29.5 -64.3 -29.3 -64.1 -29.25 -63.95 -29.2 -63.75 -28.85 -63.4 -28.2 -62.6 -27.9 -62.05 -27.75 -61.7 -27.75 -61.5 -27.8 -61.1 -27.8 -60.55 -27.85 -60.2 -27.85 -59.8 -27.95 -59.6 -28.05 -59.45 -28.2 -59.25 -28.45 -59.05 -28.6 -58.95 -29.0 -58.85 -29.5 -59.0 -29.75 -59.2 -29.9 -59.35 -30.25 -59.75 -30.45 -59.95 -30.5 -60.1 -30.55 -60.3 -30.6 -60.5 -30.7 -60.7 -30.75 -60.85 -30.85 -61.05 -31.05 -61.25 -31.25 -61.45 -31.35 -61.6 -31.45 -61.8 -31.5 -62.0 -31.65 -62.2 -32.0 -62.55 -32.45 -63.15 -32.55 -63.3 -32.55 -63.5 -32.55 -63.7 -32.5 -63.85 -32.3 -64.05 -32.2 -64.2 -32.05 -64.25" fill="#ffff99" fill-opacity="0.2" fill-rule="evenodd" stroke="none"/>
    <path d="M-40.85 -65.65 Q-29.65 -65.8 -26.5 -52.6 -23.25 -38.95 -25.6 6.5 -26.8 29.45 -24.15 40.15 -22.8 45.7 -20.45 48.05 -17.9 50.6 -14.3 49.7 -2.0 46.55 3.65 48.8 9.1 51.0 12.0 58.75 15.3 67.4 21.7 67.0 28.1 66.8 31.55 53.55 34.65 41.4 41.1 39.7 L41.55 39.35 41.65 38.8 41.3 38.3 40.75 38.25 Q33.45 39.9 30.1 53.2 27.0 65.1 21.6 65.5 16.2 65.7 13.4 58.2 10.2 49.7 4.2 47.4 -1.7 44.95 -14.65 48.25 -17.45 48.9 -19.35 47.0 -21.45 44.8 -22.7 39.75 -25.25 29.2 -24.1 6.6 -21.75 -39.15 -25.05 -52.95 -28.55 -67.4 -40.9 -67.15 L-41.45 -66.9 -41.65 -66.4 -41.4 -65.85 -40.85 -65.65 M-40.85 -64.65 Q-41.65 -64.65 -42.1 -65.15 -42.65 -65.7 -42.65 -66.4 -42.65 -67.05 -42.2 -67.5 -41.75 -68.15 -40.9 -68.15 -27.8 -68.45 -24.05 -53.15 -20.75 -39.3 -23.1 6.7 -24.25 29.15 -21.7 39.65 -20.55 44.35 -18.6 46.4 L-18.65 46.4 Q-17.15 47.9 -14.9 47.4 -1.5 43.95 4.6 46.6 L4.55 46.6 Q10.95 48.95 14.35 58.0 16.85 64.65 21.55 64.65 26.25 64.1 29.15 53.05 32.65 39.1 40.45 37.4 L40.55 37.4 41.75 37.5 41.85 37.55 Q42.4 37.85 42.6 38.65 L42.65 38.7 Q42.75 39.25 42.45 39.9 L42.4 40.0 Q42.1 40.55 41.45 40.75 L41.35 40.8 Q35.45 42.45 32.55 53.9 28.85 68.05 21.75 68.15 14.65 68.7 11.1 59.25 8.35 51.95 3.3 49.85 -2.15 47.75 -14.05 50.8 -18.2 51.8 -21.15 48.85 -23.7 46.35 -25.1 40.5 -27.8 29.7 -26.6 6.5 -24.25 -38.8 -27.45 -52.35 -30.4 -64.7 -40.8 -64.65 L-40.85 -64.65" fill="#333333" fill-rule="evenodd" stroke="none"/>
  </g>
</svg>
