<?xml version="1.0" encoding="UTF-8" standalone="no"?>
<svg xmlns:xlink="http://www.w3.org/1999/xlink" height="26.45px" width="26.5px" xmlns="http://www.w3.org/2000/svg">
  <g transform="matrix(1.0, 0.0, 0.0, 1.0, 13.25, 13.2)">
    <path d="M11.6 -13.2 L13.25 -13.2 13.25 -9.9 11.6 -9.9 8.25 -9.9 6.6 -9.9 4.95 -9.9 4.95 -11.6 3.3 -11.6 3.3 -13.2 9.9 -13.2 9.9 -11.6 11.6 -11.6 11.6 -13.2" fill="#6daa3c" fill-rule="evenodd" stroke="none"/>
    <path d="M0.0 -13.2 L3.3 -13.2 3.3 -11.6 1.65 -11.6 0.0 -11.6 0.0 -13.2" fill="#7ebb4d" fill-rule="evenodd" stroke="none"/>
    <path d="M13.25 -9.9 L13.25 -8.25 11.6 -8.25 11.6 -4.95 9.9 -4.95 9.9 -6.6 8.25 -6.6 8.25 -8.25 6.6 -8.25 6.6 -6.6 4.95 -6.6 4.95 -8.25 6.6 -8.25 6.6 -9.9 8.25 -9.9 8.25 -8.25 11.6 -8.25 11.6 -9.9 13.25 -9.9 M13.25 5.0 L13.25 6.65 11.6 6.65 11.6 5.0 13.25 5.0 M13.25 11.6 L13.25 13.25 11.6 13.25 11.6 11.6 13.25 11.6 M-13.25 -6.6 L-13.25 -8.25 -11.6 -8.25 -11.6 -6.6 -13.25 -6.6 M6.6 -4.95 L6.6 -3.3 4.95 -3.3 4.95 -4.95 1.65 -4.95 1.65 -3.3 -1.65 -3.3 -3.35 -3.3 -3.35 -4.95 0.0 -4.95 0.0 -6.6 1.65 -6.6 1.65 -8.25 3.3 -8.25 3.3 -6.6 4.95 -6.6 4.95 -4.95 6.6 -4.95 M0.0 0.0 L-0.05 1.65 -1.65 1.65 -1.65 3.35 -3.35 3.35 -5.0 3.35 -5.0 1.65 -3.35 1.65 -1.65 1.65 -1.65 0.0 0.0 0.0 M0.0 3.35 L1.65 3.35 1.65 5.0 0.0 5.0 0.0 3.35 M0.0 9.95 L0.0 11.6 -1.65 11.6 -1.65 9.95 0.0 9.95 M0.0 -8.25 L0.0 -6.6 -3.35 -6.6 -5.0 -6.6 -5.0 -8.25 -5.0 -9.9 -5.0 -11.6 -3.35 -11.6 -3.35 -9.9 -3.35 -8.25 -1.65 -8.25 -1.65 -9.9 0.0 -9.9 0.0 -8.25 M1.65 -1.65 L3.3 -1.65 3.3 0.0 1.65 0.0 1.65 -1.65 M9.9 0.0 L11.6 0.0 11.6 1.65 9.9 1.65 9.9 0.0 M6.6 5.0 L8.25 5.0 8.25 6.65 6.6 6.6 6.6 5.0 M4.95 8.3 L6.6 8.3 6.6 11.6 4.95 11.6 4.95 9.95 4.95 8.3 M3.3 9.95 L1.65 9.9 1.65 8.3 3.3 8.3 3.3 9.95 M-11.6 -9.9 L-9.95 -9.9 -9.95 -8.25 -11.6 -8.25 -11.6 -9.9 M-11.6 -1.65 L-11.6 -3.3 -11.6 -4.95 -9.95 -4.95 -9.95 -3.3 -9.95 -1.65 -11.6 -1.65 M-6.65 -8.25 L-6.65 -6.6 -5.0 -6.6 -5.0 -4.95 -6.65 -4.95 -6.65 -6.6 -8.3 -6.6 -9.95 -6.6 -9.95 -8.25 -8.3 -8.25 -6.65 -8.25 M-8.3 1.65 L-8.3 3.35 -9.95 3.35 -9.95 1.65 -8.3 1.65 M-11.6 6.65 L-9.95 6.65 -9.95 8.3 -11.6 8.3 -11.6 6.65 M-6.65 8.3 L-5.0 8.3 -5.0 9.95 -6.65 9.95 -6.65 8.3 M-8.3 9.95 L-8.3 11.6 -9.95 11.6 -9.95 9.95 -8.3 9.95 M-3.35 11.6 L-5.0 11.6 -5.0 9.95 -3.35 9.95 -3.35 11.6" fill="#573d29" fill-rule="evenodd" stroke="none"/>
    <path d="M13.25 -3.3 L13.25 0.0 11.6 0.0 9.9 0.0 9.9 -1.65 11.6 -1.65 11.6 -3.3 13.25 -3.3 M13.25 1.65 L13.25 3.35 11.6 3.35 11.6 1.65 13.25 1.65 M13.25 8.3 L13.25 11.6 11.6 11.6 9.9 11.6 9.9 13.25 6.6 13.25 6.6 11.6 9.9 11.6 9.9 9.95 9.9 8.3 13.25 8.3 M3.3 13.25 L-1.65 13.25 -1.65 11.6 0.0 11.6 3.3 11.6 3.3 13.25 M-5.0 13.25 L-8.3 13.25 -8.3 11.6 -6.65 11.6 -5.0 11.6 -5.0 13.25 M-11.6 13.25 L-13.25 13.25 -13.25 9.95 -11.6 9.95 -11.6 13.25 M-13.25 6.65 L-13.25 0.0 -11.6 0.0 -11.6 1.65 -9.95 1.65 -9.95 3.35 -9.95 5.0 -11.6 5.0 -11.6 6.65 -13.25 6.65 M-13.25 -4.95 L-13.25 -6.6 -11.6 -6.6 -11.6 -4.95 -13.25 -4.95 M8.25 -6.6 L9.9 -6.6 9.9 -4.95 8.25 -5.0 8.25 -6.6 M6.6 -1.65 L6.55 0.0 4.95 0.05 4.9 1.65 1.65 1.6 1.65 0.0 0.0 0.0 0.0 -1.65 1.65 -1.65 1.65 0.0 3.3 0.0 3.3 -1.65 6.6 -1.65 M-1.65 3.35 L0.0 3.35 0.0 5.0 0.0 6.65 -1.65 6.65 -1.65 5.0 -1.65 3.35 M4.95 5.0 L4.9 6.65 1.65 6.65 1.65 5.0 4.95 5.0 M-1.65 8.3 L0.0 8.3 0.0 9.95 -1.65 9.95 -3.35 9.95 -3.35 8.3 -5.0 8.3 -6.65 8.3 -6.65 6.65 -8.3 6.65 -8.3 5.0 -5.0 5.0 -5.0 6.65 -3.35 6.65 -3.35 8.3 -1.65 8.3 M9.9 -3.3 L9.9 -1.65 8.25 -1.65 8.25 -3.3 9.9 -3.3 M-3.35 -4.95 L-3.35 -3.3 -5.0 -3.3 -5.0 -4.95 -5.0 -6.6 -3.35 -6.6 -3.35 -4.95 M9.9 3.35 L9.9 5.0 9.9 6.65 8.25 6.65 8.25 5.0 6.6 5.0 6.6 3.35 9.9 3.35 M-9.95 -6.6 L-8.3 -6.6 -8.3 -4.95 -6.65 -4.95 -6.65 -3.3 -9.95 -3.3 -9.95 -4.95 -9.95 -6.6 M-5.0 -1.65 L-3.35 -1.65 -3.35 1.65 -5.0 1.65 -5.0 0.0 -6.65 0.0 -6.65 1.65 -8.3 1.65 -8.3 0.0 -6.65 0.0 -6.65 -1.65 -5.0 -1.65 M-9.95 6.65 L-8.3 6.65 -8.3 8.3 -9.95 8.3 -9.95 9.95 -11.6 9.95 -11.6 8.3 -9.95 8.3 -9.95 6.65" fill="#936c4a" fill-rule="evenodd" stroke="none"/>
    <path d="M13.25 -8.25 L13.25 -4.95 11.6 -4.95 11.6 -3.3 11.6 -1.65 9.9 -1.65 9.9 0.0 9.9 1.65 11.6 1.65 11.6 0.0 13.25 0.0 13.25 1.65 11.6 1.65 11.6 3.35 13.25 3.35 13.25 5.0 11.6 5.0 11.6 6.65 9.9 6.65 9.9 5.0 11.6 5.0 11.6 3.35 9.9 3.35 9.9 1.65 6.6 1.65 6.6 3.35 6.6 5.0 6.6 6.6 8.25 6.65 9.9 6.65 9.9 8.3 8.25 8.3 8.25 9.9 9.9 9.95 9.9 11.6 6.6 11.6 6.6 8.3 4.95 8.3 3.3 8.3 1.65 8.3 1.65 9.9 3.3 9.95 4.95 9.95 4.95 11.6 6.6 11.6 6.6 13.25 3.3 13.25 3.3 11.6 0.0 11.6 0.0 9.95 0.0 8.3 -1.65 8.3 -1.65 6.65 0.0 6.65 1.65 6.65 4.9 6.65 4.95 5.0 4.95 3.35 1.65 3.35 0.0 3.35 -1.65 3.35 -1.65 1.65 -0.05 1.65 0.0 0.0 1.65 0.0 1.65 1.6 4.9 1.65 4.95 0.05 6.55 0.0 6.6 -1.65 6.6 -3.3 6.6 -4.95 6.6 -6.6 6.6 -8.25 8.25 -8.25 8.25 -6.6 8.25 -5.0 9.9 -4.95 11.6 -4.95 11.6 -8.25 13.25 -8.25 M11.6 13.25 L9.9 13.25 9.9 11.6 11.6 11.6 11.6 13.25 M-3.35 13.25 L-5.0 13.25 -5.0 11.6 -6.65 11.6 -6.65 9.95 -8.3 9.95 -9.95 9.95 -9.95 11.6 -9.95 13.25 -11.6 13.25 -11.6 9.95 -9.95 9.95 -9.95 8.3 -8.3 8.3 -8.3 6.65 -9.95 6.65 -11.6 6.65 -11.6 5.0 -9.95 5.0 -9.95 3.35 -8.3 3.35 -8.3 5.0 -8.3 6.65 -6.65 6.65 -6.65 8.3 -6.65 9.95 -5.0 9.95 -5.0 8.3 -3.35 8.3 -3.35 9.95 -1.65 9.95 -1.65 11.6 -3.35 11.6 -3.35 9.95 -5.0 9.95 -5.0 11.6 -3.35 11.6 -3.35 13.25 M-13.25 9.95 L-13.25 6.65 -11.6 6.65 -11.6 8.3 -11.6 9.95 -13.25 9.95 M-13.25 -3.3 L-13.25 -4.95 -11.6 -4.95 -11.6 -3.3 -13.25 -3.3 M4.95 -3.3 L3.3 -3.3 3.3 -1.65 1.65 -1.65 1.65 -3.3 1.65 -4.95 4.95 -4.95 4.95 -3.3 M9.9 -3.3 L8.25 -3.3 8.25 -1.65 9.9 -1.65 9.9 -3.3 M0.0 -6.6 L0.0 -4.95 -3.35 -4.95 -3.35 -6.6 0.0 -6.6 M-3.35 -3.3 L-1.65 -3.3 -1.65 -1.7 0.0 -1.65 0.0 0.0 -1.65 0.0 -1.65 1.65 -3.35 1.65 -3.35 -1.65 -5.0 -1.65 -5.0 -3.3 -6.65 -3.3 -6.65 -1.65 -9.95 -1.65 -9.95 -3.3 -6.65 -3.3 -6.65 -4.95 -5.0 -4.95 -5.0 -3.3 -3.35 -3.3 M-9.95 -4.95 L-11.6 -4.95 -11.6 -6.6 -9.95 -6.6 -9.95 -4.95 M-9.95 -1.65 L-9.95 0.0 -8.3 0.0 -8.3 1.65 -6.65 1.65 -6.65 0.0 -5.0 0.0 -5.0 1.65 -5.0 3.35 -3.35 3.35 -3.35 5.0 -5.0 5.0 -5.0 3.35 -8.3 3.35 -8.3 1.65 -9.95 1.65 -11.6 1.65 -11.6 0.0 -11.6 -1.65 -9.95 -1.65 M-1.65 5.0 L-1.65 6.65 -3.35 6.65 -3.35 5.0 -1.65 5.0" fill="#76553a" fill-rule="evenodd" stroke="none"/>
    <path d="M8.25 -9.9 L11.6 -9.9 11.6 -8.25 8.25 -8.25 8.25 -9.9" fill="#5f9c2e" fill-rule="evenodd" stroke="none"/>
    <path d="M6.6 -9.9 L6.6 -8.25 4.95 -8.25 3.3 -8.25 3.3 -9.9 1.65 -9.9 1.65 -11.6 3.3 -11.6 4.95 -11.6 4.95 -9.9 6.6 -9.9" fill="#95c361" fill-rule="evenodd" stroke="none"/>
    <path d="M-8.3 -13.2 L0.0 -13.2 0.0 -11.6 1.65 -11.6 1.65 -9.9 0.0 -9.9 -1.65 -9.9 -3.35 -9.9 -3.35 -11.6 -5.0 -11.6 -8.3 -11.6 -8.3 -13.2" fill="#69a638" fill-rule="evenodd" stroke="none"/>
    <path d="M0.0 -9.9 L1.65 -9.9 1.65 -8.25 0.0 -8.25 0.0 -9.9" fill="#78b547" fill-rule="evenodd" stroke="none"/>
    <path d="M0.0 -8.25 L1.65 -8.25 1.65 -6.6 0.0 -6.6 0.0 -8.25" fill="#63a031" fill-rule="evenodd" stroke="none"/>
    <path d="M4.95 -8.25 L4.95 -6.6 3.3 -6.6 3.3 -8.25 4.95 -8.25" fill="#71ae40" fill-rule="evenodd" stroke="none"/>
    <path d="M1.65 -9.9 L3.3 -9.9 3.3 -8.25 1.65 -8.25 1.65 -9.9" fill="#83c052" fill-rule="evenodd" stroke="none"/>
    <path d="M13.25 -4.95 L13.25 -3.3 11.6 -3.3 11.6 -4.95 13.25 -4.95 M13.25 6.65 L13.25 8.3 9.9 8.3 9.9 6.65 11.6 6.65 13.25 6.65 M-8.3 13.25 L-9.95 13.25 -9.95 11.6 -8.3 11.6 -8.3 9.95 -6.65 9.95 -6.65 11.6 -8.3 11.6 -8.3 13.25 M-13.25 0.0 L-13.25 -3.3 -11.6 -3.3 -11.6 -1.65 -11.6 0.0 -13.25 0.0 M6.6 -3.3 L6.6 -1.65 3.3 -1.65 3.3 -3.3 4.95 -3.3 6.6 -3.3 M1.65 3.35 L4.95 3.35 4.95 5.0 1.65 5.0 1.65 3.35 M-1.65 6.65 L-1.65 8.3 -3.35 8.3 -3.35 6.65 -1.65 6.65 M1.65 -3.3 L1.65 -1.65 0.0 -1.65 -1.65 -1.7 -1.65 -3.3 1.65 -3.3 M6.6 3.35 L6.6 1.65 9.9 1.65 9.9 3.35 6.6 3.35 M3.3 8.3 L4.95 8.3 4.95 9.95 3.3 9.95 3.3 8.3 M9.9 9.95 L8.25 9.9 8.25 8.3 9.9 8.3 9.9 9.95 M-6.65 -4.95 L-8.3 -4.95 -8.3 -6.6 -6.65 -6.6 -6.65 -4.95 M-9.95 -1.65 L-6.65 -1.65 -6.65 0.0 -8.3 0.0 -9.95 0.0 -9.95 -1.65 M-3.35 3.35 L-1.65 3.35 -1.65 5.0 -3.35 5.0 -3.35 3.35 M-8.3 3.35 L-5.0 3.35 -5.0 5.0 -3.35 5.0 -3.35 6.65 -5.0 6.65 -5.0 5.0 -8.3 5.0 -8.3 3.35" fill="#b5855c" fill-rule="evenodd" stroke="none"/>
    <path d="M6.6 -6.6 L6.6 -4.95 4.95 -4.95 4.95 -6.6 6.6 -6.6 M1.65 6.65 L0.0 6.65 0.0 5.0 1.65 5.0 1.65 6.65 M-11.6 -6.6 L-11.6 -8.25 -9.95 -8.25 -9.95 -6.6 -11.6 -6.6" fill="#6c6c6c" fill-rule="evenodd" stroke="none"/>
    <path d="M9.9 -13.2 L11.6 -13.2 11.6 -11.6 9.9 -11.6 9.9 -13.2" fill="#549122" fill-rule="evenodd" stroke="none"/>
    <path d="M9.9 3.35 L11.6 3.35 11.6 5.0 9.9 5.0 9.9 3.35 M-6.65 -1.65 L-6.65 -3.3 -5.0 -3.3 -5.0 -1.65 -6.65 -1.65" fill="#878787" fill-rule="evenodd" stroke="none"/>
    <path d="M-13.25 -9.9 L-13.25 -13.2 -8.3 -13.2 -8.3 -11.6 -9.95 -11.6 -9.95 -9.9 -11.6 -9.9 -13.25 -9.9" fill="#76b345" fill-rule="evenodd" stroke="none"/>
    <path d="M-13.25 -8.25 L-13.25 -9.9 -11.6 -9.9 -11.6 -8.25 -13.25 -8.25" fill="#8fbd5b" fill-rule="evenodd" stroke="none"/>
    <path d="M-9.95 -9.9 L-9.95 -11.6 -8.3 -11.6 -5.0 -11.6 -5.0 -9.9 -8.3 -9.9 -9.95 -9.9" fill="#86b452" fill-rule="evenodd" stroke="none"/>
    <path d="M-5.0 -8.25 L-5.0 -6.6 -6.65 -6.6 -6.65 -8.25 -5.0 -8.25" fill="#75b244" fill-rule="evenodd" stroke="none"/>
    <path d="M-3.35 -9.9 L-1.65 -9.9 -1.65 -8.25 -3.35 -8.25 -3.35 -9.9" fill="#74b143" fill-rule="evenodd" stroke="none"/>
    <path d="M-8.3 -9.9 L-5.0 -9.9 -5.0 -8.25 -6.65 -8.25 -8.3 -8.25 -8.3 -9.9" fill="#6aa739" fill-rule="evenodd" stroke="none"/>
    <path d="M-9.95 -8.25 L-9.95 -9.9 -8.3 -9.9 -8.3 -8.25 -9.95 -8.25" fill="#9ecc6a" fill-rule="evenodd" stroke="none"/>
    <path d="M-1.65 13.25 L-3.35 13.25 -3.35 11.6 -1.65 11.6 -1.65 13.25" fill="#888888" fill-rule="evenodd" stroke="none"/>
  </g>
</svg>
