<?xml version="1.0" encoding="UTF-8" standalone="no"?>
<svg xmlns:xlink="http://www.w3.org/1999/xlink" height="266.0px" width="13.0px" xmlns="http://www.w3.org/2000/svg">
  <g transform="matrix(1.0, 0.0, 0.0, 1.0, 6.5, 133.0)">
    <path d="M2.85 -130.85 L3.05 -130.45 2.85 -130.1 2.65 -129.65 2.5 -129.3 Q3.65 -117.2 3.55 -104.85 L3.55 -80.05 3.55 -55.25 3.45 -30.45 3.4 -5.6 3.4 19.2 3.45 32.15 3.35 32.2 2.1 32.8 1.8 32.8 0.15 33.0 0.1 32.95 0.05 32.95 0.05 25.75 0.0 0.95 -0.05 -23.85 -0.05 -48.65 -0.15 -73.5 -0.2 -98.3 Q-0.2 -110.75 0.6 -123.1 L0.95 -129.8 1.1 -130.2 1.65 -130.9 2.25 -131.2 2.5 -131.25 2.85 -130.85 M0.6 37.1 L0.6 37.05 0.65 37.0 0.65 36.95 0.7 36.9 0.7 36.85 1.35 36.85 1.3 36.9 1.25 36.95 1.25 37.0 1.2 37.05 1.2 37.35 1.25 37.4 1.25 37.5 1.4 37.65 1.6 37.7 2.4 37.7 2.5 37.7 2.5 37.8 2.55 37.85 2.55 37.9 2.7 38.05 3.2 38.25 3.45 38.35 3.45 44.0 3.35 68.8 Q3.2 81.25 3.3 93.65 L3.5 118.45 3.3 124.35 3.05 124.75 2.85 125.1 2.65 125.4 2.35 125.5 1.7 125.65 0.8 125.4 0.4 125.0 0.15 124.6 Q-0.1 112.45 0.0 100.2 L0.05 75.4 0.0 50.6 0.05 37.6 0.15 37.6 0.25 37.55 0.35 37.5 0.4 37.45 0.45 37.4 0.5 37.35 0.5 37.3 0.55 37.25 0.55 37.15 0.6 37.1" fill="#d1bc9c" fill-rule="evenodd" stroke="none"/>
    <path d="M5.15 127.0 L5.15 127.1 5.15 127.2 5.15 127.3 5.15 127.4 5.15 127.5 5.1 127.6 5.05 127.65 4.95 127.75 4.8 127.95 4.6 128.25 4.5 128.3 4.45 128.35 4.3 128.4 4.2 128.5 4.2 128.6 4.2 128.65 4.15 128.75 4.15 128.85 4.05 128.95 4.0 129.05 3.8 129.15 3.65 129.25 3.65 129.35 3.6 129.45 3.55 129.5 3.5 129.6 3.5 129.7 3.55 129.9 3.55 130.15 3.55 130.35 3.5 130.45 3.45 130.55 3.4 130.65 3.3 130.75 3.3 130.85 3.3 130.9 3.3 131.0 3.3 131.1 3.25 131.2 3.2 131.3 3.15 131.4 3.0 131.5 2.85 131.6 2.8 131.65 2.75 131.75 2.65 131.85 2.6 131.95 2.5 132.05 2.4 132.1 1.95 132.15 1.3 132.15 1.05 132.1 0.9 132.0 0.85 131.9 0.75 131.8 0.75 131.7 0.7 131.6 0.7 131.5 0.65 131.45 0.55 131.35 0.5 131.25 0.35 131.05 0.35 130.95 0.3 130.85 0.3 130.75 0.3 130.65 0.25 130.6 0.25 130.5 0.25 130.3 0.25 130.0 0.25 129.75 0.25 129.45 0.25 129.35 0.3 129.25 0.3 129.15 0.35 129.1 0.35 129.0 0.4 128.9 0.45 128.8 0.25 128.7 0.1 128.6 0.0 128.5 -0.2 128.35 -0.25 128.25 -0.3 128.15 -0.35 128.05 -0.45 128.0 -0.65 127.9 -0.85 127.8 -1.05 127.65 -1.1 127.55 -1.15 127.45 -1.15 127.35 -1.15 127.15 -1.15 127.0 -1.1 126.9 -1.1 126.8 -1.0 126.7 -1.0 126.6 -1.0 126.5 -1.0 126.4 -0.95 126.35 -0.9 126.25 -0.85 126.15 -0.7 125.95 -0.75 125.85 -0.85 125.75 -0.9 125.65 -0.95 125.6 -0.95 125.5 -1.0 125.4 -1.0 125.3 -1.0 125.2 -1.05 125.1 -1.1 125.0 -1.15 124.9 -1.15 124.85 -1.3 124.8 -1.5 124.75 -1.6 124.65 -1.7 124.55 -1.7 124.45 -1.75 124.35 -1.75 124.25 -1.8 124.15 -1.95 124.1 -2.1 124.0 -2.2 123.95 -2.45 123.9 -2.6 123.8 -2.75 123.7 -2.95 123.6 -3.35 123.5 -3.95 123.4 -4.05 123.3 -4.2 123.25 -4.3 123.2 -4.5 123.15 -4.6 123.1 -5.05 123.05 -5.25 123.0 -5.35 122.9 -5.4 122.8 -5.45 122.7 -5.45 122.6 -5.45 122.5 -5.4 122.45 -5.2 122.25 -5.05 122.25 -4.75 122.15 -4.8 122.05 -4.85 122.0 -4.85 121.9 -4.85 121.8 -4.85 121.7 -4.75 121.6 -4.7 121.55 -4.6 121.5 -4.45 121.5 -4.35 121.4 -4.35 121.35 -4.35 121.25 -4.3 121.15 -4.25 121.05 -4.2 121.0 -4.1 120.95 -3.95 120.9 -3.7 120.85 -3.75 120.75 -3.8 120.65 -3.8 120.6 -3.8 120.5 -3.8 120.4 -3.8 120.3 -3.8 120.2 -3.75 120.1 -3.7 120.0 -3.45 119.95 -3.25 120.0 -3.1 120.1 -2.95 120.2 -2.95 120.3 -2.9 120.4 -2.9 120.5 -2.85 120.6 -2.75 120.65 -2.75 120.75 -2.7 120.85 -2.7 120.95 -2.65 121.15 -2.55 121.25 -2.35 121.3 -2.25 121.4 -2.2 121.5 -2.05 121.6 -1.95 121.65 -1.9 121.75 -1.85 121.85 -1.85 121.95 -1.6 122.25 -1.15 122.7 -0.75 123.0 -0.55 123.3 0.0 123.8 0.4 124.1 0.45 124.2 0.5 124.3 0.55 124.4 0.65 124.5 0.75 124.6 0.8 124.65 0.95 124.85 1.15 125.15 1.3 125.4 1.35 125.5 1.4 125.6 1.4 125.7 1.45 125.75 3.2 125.9 3.4 125.95 3.5 125.9 3.6 125.85 3.75 125.75 3.95 125.65 4.15 125.75 4.3 125.85 4.35 125.95 4.4 126.0 4.4 126.1 4.4 126.2 4.4 126.4 4.4 126.6 4.4 126.75 4.5 126.75 4.55 126.7 4.7 126.65 4.9 126.75 5.05 126.85 5.1 126.95 5.15 127.0" fill="#d1bc9c" fill-rule="evenodd" stroke="none"/>
    <path d="M-2.15 122.6 L-2.05 122.55 -1.75 122.45 -1.6 122.25 -1.4 122.05 -1.05 121.95 -0.75 122.05 -0.5 122.25 -0.15 122.65 0.1 123.0 0.2 123.2 0.25 123.35 0.35 123.55 0.4 123.75 0.35 123.9 0.25 124.1 0.15 124.3 0.0 124.4 -0.3 124.5 -0.6 124.45 -1.15 124.5 -1.3 124.55 -1.9 124.6 -2.25 124.45 -2.35 124.25 -2.35 124.05 -2.35 123.7 -2.35 123.3 -2.35 122.95 -2.3 122.75 -2.15 122.6" fill="#663333" fill-opacity="0.2" fill-rule="evenodd" stroke="none"/>
    <path d="M4.75 126.1 L4.9 126.3 4.95 126.7 4.95 127.05 4.95 127.6 4.95 128.0 4.9 128.15 4.85 128.35 4.75 128.55 4.55 128.75 4.35 128.95 3.95 129.05 3.2 129.05 2.95 129.05 2.7 129.1 1.95 129.05 0.95 128.85 0.7 128.65 0.5 128.5 0.35 128.3 0.35 128.1 0.35 127.95 0.35 127.75 0.45 127.55 0.7 127.45 0.95 127.4 1.75 127.2 1.75 127.1 1.8 126.95 1.85 126.75 1.95 126.55 2.25 126.35 2.6 126.2 2.75 126.0 3.2 125.85 3.95 125.85 3.95 125.8 4.2 125.8 4.6 125.95 4.75 126.1" fill="#663333" fill-opacity="0.2" fill-rule="evenodd" stroke="none"/>
    <path d="M3.7 127.2 L3.95 127.2 4.25 127.3 4.45 127.5 4.6 127.7 4.6 127.75 5.2 127.85 5.6 128.0 5.75 128.2 5.85 128.35 5.85 128.55 5.9 128.75 5.9 128.95 5.9 129.1 5.8 129.3 5.7 129.5 5.6 129.6 5.5 129.65 5.2 129.75 4.75 129.8 4.45 129.95 2.7 129.95 2.35 129.8 2.15 129.6 2.1 129.45 1.45 129.35 0.45 129.45 0.0 129.3 -0.3 129.1 -0.45 128.9 -0.55 128.75 -0.55 128.55 -0.55 128.35 -0.5 128.2 -0.3 128.0 -0.1 127.85 2.65 127.75 2.85 127.55 3.2 127.35 3.45 127.25 3.7 127.2" fill="#663333" fill-opacity="0.2" fill-rule="evenodd" stroke="none"/>
    <path d="M2.4 129.2 L2.65 129.1 2.95 129.1 2.95 129.05 3.2 129.05 3.6 129.2 3.75 129.35 3.9 129.55 3.95 129.75 3.95 129.95 3.95 130.1 3.95 130.3 3.95 130.5 3.9 130.65 3.85 130.85 3.75 131.05 3.6 131.25 3.45 131.45 3.35 131.6 3.15 131.95 3.0 132.0 2.7 132.05 1.45 132.0 1.0 131.85 0.7 131.75 0.25 131.6 0.15 131.45 0.0 131.25 0.0 131.05 0.0 130.85 0.0 130.7 0.0 130.5 0.0 130.3 0.05 130.1 0.15 129.95 0.3 129.75 0.65 129.45 0.95 129.4 1.45 129.35 1.85 129.5 2.1 129.5 2.2 129.3 2.4 129.2" fill="#663333" fill-opacity="0.2" fill-rule="evenodd" stroke="none"/>
    <path d="M3.35 130.1 L3.35 130.3 3.4 130.5 3.4 130.85 3.4 131.45 3.4 131.6 3.3 131.8 3.2 132.0 3.1 132.15 2.9 132.55 2.75 132.65 2.45 132.7 1.95 132.75 1.5 132.6 1.35 132.45 1.15 132.25 1.1 132.1 0.95 132.05 0.65 131.95 0.45 131.75 0.45 131.55 0.45 131.35 0.45 131.2 0.5 130.8 0.5 130.6 0.65 130.5 0.7 130.45 1.0 130.3 1.15 130.1 1.35 129.95 1.5 129.75 1.95 129.65 1.95 129.6 2.7 129.6 3.1 129.75 3.25 129.95 3.35 130.1" fill="#663333" fill-opacity="0.2" fill-rule="evenodd" stroke="none"/>
    <path d="M3.45 111.6 L3.5 111.8 3.6 112.0 3.7 112.2 3.7 112.75 3.75 113.5 3.75 114.25 3.75 114.45 3.7 114.6 3.45 115.0 3.25 115.35 3.25 115.55 3.25 115.75 3.2 115.9 3.1 116.1 3.05 116.3 3.0 116.5 3.0 116.7 2.95 116.85 2.9 117.05 2.85 117.25 2.75 117.45 2.8 117.6 3.0 117.8 3.1 118.0 3.2 118.2 3.2 118.35 3.2 118.55 3.2 118.75 3.2 118.95 3.15 119.1 2.95 119.5 2.75 119.85 2.65 120.05 2.55 121.55 2.55 123.25 2.45 124.75 2.4 124.9 2.25 125.1 2.0 125.3 1.9 125.45 1.75 125.5 1.45 125.55 1.2 125.55 0.75 125.45 0.6 125.25 0.45 125.05 0.45 124.1 0.5 123.0 0.5 121.85 0.45 121.7 0.25 121.5 0.15 121.3 0.15 120.55 0.15 119.6 0.15 118.7 0.15 118.5 0.1 118.3 0.05 118.1 0.0 117.95 -0.05 117.75 -0.1 117.55 -0.1 116.45 -0.1 115.1 -0.1 114.0 -0.1 113.8 0.0 113.6 0.2 113.45 0.4 113.3 0.8 113.15 1.15 113.05 1.45 113.0 1.8 113.1 2.1 113.2 2.15 113.2 2.15 113.0 2.15 112.6 2.2 112.25 2.2 112.05 2.3 111.85 2.4 111.7 2.5 111.5 2.7 111.3 2.95 111.25 3.1 111.25 3.35 111.45 3.45 111.6" fill="#663333" fill-opacity="0.2" fill-rule="evenodd" stroke="none"/>
    <path d="M4.5 87.3 L4.5 87.85 4.5 88.45 4.45 88.6 4.35 88.8 4.25 89.75 4.25 91.05 4.25 92.35 4.2 92.55 4.15 92.75 4.05 92.95 3.95 93.1 3.75 93.5 3.75 93.65 3.7 93.85 3.4 94.25 3.25 94.45 3.25 94.6 3.25 94.8 3.25 95.2 3.2 95.55 3.15 95.75 3.0 95.95 3.0 97.25 3.0 98.75 3.0 100.25 3.05 100.4 3.15 100.6 3.2 100.8 3.3 103.25 3.25 106.05 3.25 108.3 3.3 108.4 3.45 108.45 3.75 108.55 3.95 108.75 4.1 108.95 4.1 109.1 4.1 109.3 4.1 109.7 4.1 110.05 Q3.5 111.9 3.4 113.8 3.3 115.75 3.35 117.75 L3.4 120.55 3.35 120.75 3.25 120.95 3.2 121.1 3.2 121.3 3.2 121.5 3.2 121.7 3.2 121.85 3.15 122.05 3.0 122.25 2.85 122.45 2.7 122.6 2.7 123.0 2.75 123.75 2.75 124.5 2.75 124.7 2.7 124.85 2.6 125.05 2.35 125.25 1.75 125.45 1.45 125.55 1.15 125.45 0.95 125.25 Q0.85 122.25 1.05 119.25 L1.3 113.05 1.4 108.95 1.45 108.75 1.6 108.55 1.65 106.3 1.65 103.7 1.65 101.6 1.6 101.45 1.5 101.25 1.4 101.05 1.4 99.2 1.4 96.95 1.4 95.25 1.4 95.05 1.5 94.85 1.65 94.7 1.65 94.5 1.65 94.3 1.65 94.1 1.65 93.95 1.7 93.75 1.85 93.55 1.9 93.35 1.95 93.2 2.05 93.0 2.15 92.8 2.15 92.6 2.2 92.45 2.35 92.25 2.35 92.05 2.4 91.85 2.4 91.5 2.4 91.1 2.4 90.95 2.45 90.75 2.6 90.55 2.6 90.2 2.65 89.45 2.65 88.7 2.65 88.3 2.7 88.1 2.85 87.95 2.85 87.75 2.9 87.55 2.9 87.35 2.9 87.2 2.9 87.0 2.9 86.8 3.0 86.6 3.2 86.45 3.4 86.3 3.7 86.25 4.1 86.35 4.35 86.55 4.45 86.75 4.5 86.95 4.5 87.3" fill="#663333" fill-opacity="0.2" fill-rule="evenodd" stroke="none"/>
    <path d="M2.0 39.55 L1.95 39.75 1.95 39.9 1.9 40.1 1.9 40.3 1.95 40.45 2.15 40.7 2.25 40.85 2.4 41.05 2.45 41.25 2.45 41.45 2.45 41.6 2.5 41.8 2.6 42.0 2.65 42.2 2.7 42.35 2.7 46.3 2.7 50.25 Q2.7 51.6 2.2 52.85 L2.2 55.7 2.2 58.5 2.2 60.75 2.15 60.9 2.1 61.1 2.0 61.3 2.0 63.9 1.75 66.75 1.4 68.6 1.3 68.8 1.2 69.0 1.2 69.2 1.2 69.35 1.2 69.55 1.2 69.75 1.2 69.95 1.15 70.1 1.1 70.3 1.0 70.45 0.95 70.45 0.7 70.55 0.4 70.45 0.2 70.25 0.2 70.05 0.2 69.7 0.2 69.3 0.2 69.1 0.15 68.95 0.0 68.75 0.05 68.2 0.2 67.45 0.2 66.7 Q0.55 65.6 0.5 64.4 L0.45 62.2 0.45 60.7 0.55 60.5 0.65 60.3 0.75 58.25 0.7 56.0 0.7 54.5 0.65 54.3 0.5 54.1 0.5 48.1 0.7 41.75 0.95 37.8 1.0 37.6 1.1 37.45 1.15 36.85 1.35 36.85 1.3 36.9 1.25 36.95 1.25 37.0 1.2 37.05 1.2 37.35 1.25 37.4 1.25 37.5 1.4 37.65 1.6 37.7 1.95 37.75 1.95 38.6 2.0 39.35 2.0 39.55" fill="#663333" fill-opacity="0.2" fill-rule="evenodd" stroke="none"/>
    <path d="M2.75 32.5 L2.1 32.8 1.8 32.8 1.2 32.85 1.25 26.45 1.45 14.6 1.5 13.85 1.5 13.7 1.4 13.5 1.35 13.3 1.4 13.1 1.55 13.0 1.7 13.0 1.85 13.0 2.05 13.2 2.25 13.4 2.35 13.55 2.65 25.2 2.75 32.5 M2.5 37.8 L2.55 37.85 2.55 37.9 2.7 38.05 2.75 38.1 2.8 48.8 2.7 49.75 2.65 49.9 2.5 50.1 2.4 50.25 2.25 50.3 1.95 50.35 1.5 50.25 1.35 50.05 1.2 49.85 1.1 38.25 1.15 36.85 1.35 36.85 1.3 36.9 1.25 36.95 1.25 37.0 1.2 37.05 1.2 37.35 1.25 37.4 1.25 37.5 1.4 37.65 1.6 37.7 2.4 37.7 2.5 37.7 2.5 37.8" fill="#663333" fill-opacity="0.2" fill-rule="evenodd" stroke="none"/>
    <path d="M2.2 -44.2 L2.7 -25.1 2.8 -5.6 2.8 4.9 2.75 5.25 2.55 5.65 2.3 6.05 2.2 6.4 2.2 6.8 2.2 7.15 1.95 7.55 1.9 7.9 1.8 8.3 1.7 8.65 1.6 8.95 1.2 9.15 1.15 8.8 1.05 8.4 0.95 8.05 0.95 7.65 0.7 7.3 0.7 6.9 0.7 6.55 0.45 6.15 0.3 5.8 0.05 5.4 0.1 -14.1 0.25 -33.95 0.7 -44.45 0.95 -44.65 1.4 -44.75 1.45 -44.85 2.0 -44.5 2.2 -44.2" fill="#ffffff" fill-opacity="0.2" fill-rule="evenodd" stroke="none"/>
    <path d="M2.8 -51.35 L2.95 -41.2 2.75 -30.7 2.55 -24.35 2.45 -23.95 2.3 -23.6 2.2 -23.2 2.2 -22.85 2.1 -22.55 1.75 -22.5 1.7 -22.7 1.65 -23.1 1.55 -23.45 1.45 -23.85 1.3 -24.2 Q1.0 -29.25 1.1 -34.35 L1.0 -44.85 0.95 -50.85 1.0 -51.2 1.2 -51.6 1.45 -51.75 1.9 -51.9 1.95 -51.95 2.55 -51.7 2.8 -51.35" fill="#ffffff" fill-opacity="0.2" fill-rule="evenodd" stroke="none"/>
    <path d="M4.6 125.95 L4.65 126.05 4.7 126.15 4.7 126.25 4.7 126.3 4.65 126.4 4.6 126.5 4.55 126.6 4.35 126.7 4.25 126.8 4.05 126.85 0.25 127.05 0.1 127.1 -0.05 127.15 -0.25 127.2 -0.2 127.3 -0.1 127.4 0.0 127.5 0.05 127.6 0.1 127.65 0.15 127.75 0.15 127.85 0.1 127.95 0.05 128.05 -0.05 128.15 -0.15 128.2 -0.3 128.25 -0.5 128.15 -0.7 128.05 -0.8 128.0 -0.85 127.9 -1.0 127.8 -1.05 127.7 -1.2 127.5 -1.25 127.4 -1.25 127.3 -1.25 127.25 -1.25 127.05 -1.25 126.85 -1.25 126.75 -1.25 126.65 -1.2 126.55 -1.1 126.5 -1.0 126.4 -0.75 126.35 -0.1 126.1 -0.05 126.0 0.05 125.9 0.15 125.85 4.3 125.8 4.5 125.85 4.6 125.95" fill="#ffffff" fill-opacity="0.2" fill-rule="evenodd" stroke="none"/>
    <path d="M-3.7 120.15 L-3.3 120.15 -3.1 120.25 -3.05 120.35 -2.95 120.4 -2.95 120.5 -2.95 120.6 -2.9 120.8 -2.9 121.0 -2.95 121.05 -2.85 121.15 -2.8 121.25 -2.75 121.35 -2.7 121.45 -2.7 121.55 -2.65 121.65 -2.65 121.75 -2.65 121.8 -2.7 121.9 -2.7 122.0 -2.8 122.1 -2.9 122.15 -3.05 122.2 -3.85 122.15 -3.95 122.15 -4.15 122.15 -4.0 122.25 -3.85 122.35 -3.6 122.45 -3.5 122.55 -3.3 122.65 -3.2 122.75 -3.2 122.8 -3.15 122.9 -3.1 123.0 -2.95 123.2 -2.85 123.4 -2.85 123.5 -2.9 123.55 -2.95 123.65 -3.0 123.75 -3.1 123.8 -3.15 123.85 -3.3 123.9 -3.45 123.9 -3.7 123.8 -3.85 123.75 -4.05 123.65 -4.3 123.5 -4.5 123.4 -4.65 123.3 -4.75 123.25 -4.85 123.15 -4.85 123.05 -4.85 122.95 -4.85 122.85 -4.85 122.75 -4.9 122.65 -5.0 122.55 -5.1 122.5 -5.1 122.4 -5.2 122.3 -5.2 122.2 -5.2 122.1 -5.2 121.9 -5.2 121.75 -5.2 121.65 -5.15 121.55 -5.1 121.45 -5.0 121.35 -4.8 121.3 -3.95 121.3 -3.75 121.3 -3.7 121.3 -3.75 121.2 -3.9 121.0 -4.1 120.8 -4.1 120.75 -4.1 120.65 -4.1 120.55 -4.1 120.45 -4.05 120.35 -3.95 120.25 -3.85 120.2 -3.7 120.2 -3.7 120.15" fill="#ffffff" fill-opacity="0.2" fill-rule="evenodd" stroke="none"/>
    <path d="M2.7 32.9 L2.75 32.95 2.75 33.1 2.75 33.4 2.75 33.7 2.7 33.75 2.7 33.85 2.7 33.95 2.7 34.1 2.7 34.5 2.65 34.55 2.65 34.65 2.65 34.75 2.55 34.95 2.5 35.15 2.5 35.2 2.45 35.25 2.45 35.3 2.4 35.35 2.35 35.4 2.4 35.45 2.4 35.5 2.5 35.6 2.45 35.6 2.4 35.55 2.35 35.5 2.3 35.55 2.25 35.65 2.2 35.75 2.2 35.8 2.15 35.85 2.15 35.95 2.1 36.0 2.1 36.35 2.05 36.4 2.05 36.75 2.0 36.75 1.95 36.8 1.95 36.85 1.85 36.9 1.75 36.95 1.65 36.95 1.6 37.0 1.55 37.05 1.5 37.05 1.4 37.05 1.25 37.05 1.2 37.0 1.15 37.0 1.05 37.0 0.9 37.0 0.85 36.95 0.8 36.9 0.8 36.8 0.8 36.55 0.8 36.15 0.8 35.8 0.8 35.4 0.85 35.35 0.85 34.9 0.9 34.85 0.9 34.7 0.9 34.45 0.9 34.15 0.9 34.05 0.9 33.85 0.95 33.8 0.95 33.6 1.0 33.55 1.05 33.5 1.1 33.5 1.2 33.45 1.25 33.45 1.3 33.4 1.3 33.25 1.35 33.2 1.35 33.1 1.4 33.05 1.4 33.0 1.45 32.95 1.5 32.9 1.6 32.85 1.65 32.85 1.75 32.85 1.9 32.85 1.95 32.9 2.0 32.95 2.0 33.0 2.05 33.05 2.05 33.1 2.1 33.0 2.1 32.95 2.25 32.8 2.35 32.75 2.4 32.75 2.5 32.75 2.6 32.75 2.7 32.85 2.7 32.9" fill="#bba086" fill-rule="evenodd" stroke="none"/>
    <path d="M3.05 -132.75 Q4.55 -110.35 4.2 -88.05 3.8 -63.15 3.8 -38.35 L3.95 10.25 4.05 31.95 3.95 31.95 3.85 31.95 3.8 31.95 3.35 32.2 2.1 32.8 2.0 32.8 2.2 -133.0 3.05 -132.75 M3.5 38.4 L3.75 38.5 4.0 38.65 3.95 50.8 Q3.65 75.65 4.35 100.45 4.7 113.05 3.7 125.7 L2.3 125.8 1.85 125.05 2.0 37.75 2.4 37.7 2.5 37.7 2.5 37.8 2.55 37.85 2.55 37.9 2.7 38.05 3.2 38.25 3.45 38.35 3.5 38.4" fill="#333333" fill-rule="evenodd" stroke="none"/>
    <path d="M0.05 125.55 Q-0.95 103.15 -0.7 80.85 L-0.45 37.45 -0.35 37.45 -0.35 37.5 -0.3 37.5 -0.2 37.55 -0.1 37.6 0.0 37.6 0.05 37.6 0.15 37.6 0.25 37.55 0.35 37.5 0.4 37.45 0.45 37.4 0.5 37.35 0.5 37.3 0.55 37.25 0.55 37.15 0.6 37.1 0.6 37.05 0.65 37.0 0.65 36.95 0.7 36.9 0.6 125.8 0.05 125.55 M-0.25 32.85 L-0.35 32.85 -0.45 32.85 -0.45 31.15 -0.55 -17.45 -0.55 -58.0 Q-0.35 -82.85 -0.8 -107.65 -1.05 -120.25 -0.4 -132.9 L0.55 -133.0 0.85 -132.25 0.7 32.9 0.15 33.0 0.1 32.95 0.05 32.95 -0.05 32.9 -0.15 32.85 -0.25 32.85" fill="#333333" fill-rule="evenodd" stroke="none"/>
    <path d="M2.9 -85.95 L2.7 -85.9 2.5 -85.95 2.4 -86.05 2.35 -86.15 2.2 -86.25 2.05 -86.45 1.9 -86.65 1.75 -86.8 1.6 -86.9 1.45 -87.0 1.3 -87.1 0.95 -87.5 0.55 -87.9 0.4 -88.2 0.4 -88.3 0.45 -88.4 0.45 -88.5 0.5 -88.6 0.7 -88.65 0.85 -88.6 1.3 -88.0 1.9 -87.45 2.25 -87.2 2.4 -87.1 2.5 -87.0 2.65 -86.8 2.85 -86.6 2.95 -86.5 3.0 -86.45 3.0 -86.35 3.05 -86.25 3.0 -86.15 3.0 -86.05 2.9 -85.95" fill="#333333" fill-rule="evenodd" stroke="none"/>
    <path d="M2.25 -79.2 L2.35 -79.1 2.6 -79.0 2.8 -78.9 2.9 -78.8 3.1 -78.6 3.2 -78.5 3.25 -78.45 3.3 -78.35 3.3 -78.25 3.3 -78.15 3.3 -78.05 3.25 -77.95 3.2 -77.85 3.1 -77.8 2.95 -77.75 2.75 -77.85 2.7 -77.95 2.6 -78.05 2.6 -78.1 2.5 -78.2 2.4 -78.3 2.2 -78.4 2.0 -78.5 1.95 -78.6 1.85 -78.7 1.8 -78.7 1.6 -78.75 1.45 -78.8 1.25 -78.85 1.15 -78.95 1.0 -79.05 0.6 -79.25 0.45 -79.35 0.35 -79.4 0.15 -79.65 0.1 -79.7 0.1 -79.8 0.1 -79.9 0.1 -80.0 0.2 -80.1 0.35 -80.15 0.5 -80.1 0.7 -80.0 0.75 -79.9 0.85 -79.8 1.05 -79.7 1.25 -79.6 1.55 -79.45 1.8 -79.35 1.95 -79.35 2.1 -79.25 2.25 -79.2" fill="#333333" fill-rule="evenodd" stroke="none"/>
    <path d="M1.65 -70.6 L2.2 -70.35 2.85 -70.1 2.95 -70.0 3.0 -70.0 3.35 -69.95 3.55 -69.9 3.65 -69.8 3.7 -69.7 3.7 -69.6 3.7 -69.5 3.65 -69.45 3.55 -69.35 3.35 -69.25 2.95 -69.25 2.75 -69.35 2.15 -69.65 1.6 -69.9 1.4 -70.0 1.3 -70.1 1.2 -70.2 1.0 -70.25 0.75 -70.45 0.65 -70.55 0.55 -70.65 0.45 -70.75 0.35 -70.85 0.2 -71.0 0.05 -71.1 -0.05 -71.2 -0.25 -71.3 -0.3 -71.4 -0.3 -71.5 -0.3 -71.6 -0.3 -71.65 -0.25 -71.75 -0.15 -71.75 -0.05 -71.8 0.15 -71.75 0.3 -71.65 0.45 -71.55 0.6 -71.45 0.9 -71.15 1.2 -70.9 1.6 -70.65 1.65 -70.6" fill="#333333" fill-rule="evenodd" stroke="none"/>
    <path d="M2.9 -112.95 L2.7 -112.9 2.5 -112.95 2.4 -113.05 2.35 -113.15 2.2 -113.25 2.05 -113.45 1.9 -113.65 1.75 -113.8 1.6 -113.9 1.45 -114.0 1.3 -114.1 0.95 -114.5 0.55 -114.9 0.4 -115.2 0.4 -115.3 0.45 -115.4 0.45 -115.5 0.5 -115.6 0.7 -115.65 0.85 -115.6 1.3 -115.0 1.9 -114.45 2.25 -114.2 2.4 -114.1 2.5 -114.0 2.65 -113.8 2.85 -113.6 2.95 -113.5 3.0 -113.45 3.0 -113.35 3.05 -113.25 3.0 -113.15 3.0 -113.05 2.9 -112.95" fill="#333333" fill-rule="evenodd" stroke="none"/>
    <path d="M2.25 -106.2 L2.35 -106.1 2.6 -106.0 2.8 -105.9 2.9 -105.8 3.1 -105.6 3.2 -105.5 3.25 -105.45 3.3 -105.35 3.3 -105.25 3.3 -105.15 3.3 -105.05 3.25 -104.95 3.2 -104.85 3.1 -104.8 2.95 -104.75 2.75 -104.85 2.7 -104.95 2.6 -105.05 2.6 -105.1 2.5 -105.2 2.4 -105.3 2.2 -105.4 2.0 -105.5 1.95 -105.6 1.85 -105.7 1.8 -105.7 1.6 -105.75 1.45 -105.8 1.25 -105.85 1.15 -105.95 1.0 -106.05 0.6 -106.25 0.45 -106.35 0.35 -106.4 0.15 -106.65 0.1 -106.7 0.1 -106.8 0.1 -106.9 0.1 -107.0 0.2 -107.1 0.35 -107.15 0.5 -107.1 0.7 -107.0 0.75 -106.9 0.85 -106.8 1.05 -106.7 1.25 -106.6 1.55 -106.45 1.8 -106.35 1.95 -106.35 2.1 -106.25 2.25 -106.2" fill="#333333" fill-rule="evenodd" stroke="none"/>
    <path d="M1.65 -97.6 L2.2 -97.35 2.85 -97.1 2.95 -97.0 3.0 -97.0 3.35 -96.95 3.55 -96.9 3.65 -96.8 3.7 -96.7 3.7 -96.6 3.7 -96.5 3.65 -96.45 3.55 -96.35 3.35 -96.25 2.95 -96.25 2.75 -96.35 2.15 -96.65 1.6 -96.9 1.4 -97.0 1.3 -97.1 1.2 -97.2 1.0 -97.25 0.75 -97.45 0.65 -97.55 0.55 -97.65 0.45 -97.75 0.35 -97.85 0.2 -98.0 0.05 -98.1 -0.05 -98.2 -0.25 -98.3 -0.3 -98.4 -0.3 -98.5 -0.3 -98.6 -0.3 -98.65 -0.25 -98.75 -0.15 -98.75 -0.05 -98.8 0.15 -98.75 0.3 -98.65 0.45 -98.55 0.6 -98.45 0.9 -98.15 1.2 -97.9 1.6 -97.65 1.65 -97.6" fill="#333333" fill-rule="evenodd" stroke="none"/>
    <path d="M2.9 -31.95 L2.7 -31.9 2.5 -31.95 2.4 -32.05 2.35 -32.15 2.2 -32.25 2.05 -32.45 1.9 -32.65 1.75 -32.8 1.6 -32.9 1.45 -33.0 1.3 -33.1 0.95 -33.5 0.55 -33.9 0.4 -34.2 0.4 -34.3 0.45 -34.4 0.45 -34.5 0.5 -34.6 0.7 -34.65 0.85 -34.6 1.3 -34.0 1.9 -33.45 2.25 -33.2 2.4 -33.1 2.5 -33.0 2.65 -32.8 2.85 -32.6 2.95 -32.5 3.0 -32.45 3.0 -32.35 3.05 -32.25 3.0 -32.15 3.0 -32.05 2.9 -31.95" fill="#333333" fill-rule="evenodd" stroke="none"/>
    <path d="M2.25 -25.2 L2.35 -25.1 2.6 -25.0 2.8 -24.9 2.9 -24.8 3.1 -24.6 3.2 -24.5 3.25 -24.45 3.3 -24.35 3.3 -24.25 3.3 -24.15 3.3 -24.05 3.25 -23.95 3.2 -23.85 3.1 -23.8 2.95 -23.75 2.75 -23.85 2.7 -23.95 2.6 -24.05 2.6 -24.1 2.5 -24.2 2.4 -24.3 2.2 -24.4 2.0 -24.5 1.95 -24.6 1.85 -24.7 1.8 -24.7 1.6 -24.75 1.45 -24.8 1.25 -24.85 1.15 -24.95 1.0 -25.05 0.6 -25.25 0.45 -25.35 0.35 -25.4 0.15 -25.65 0.1 -25.7 0.1 -25.8 0.1 -25.9 0.1 -26.0 0.2 -26.1 0.35 -26.15 0.5 -26.1 0.7 -26.0 0.75 -25.9 0.85 -25.8 1.05 -25.7 1.25 -25.6 1.55 -25.45 1.8 -25.35 1.95 -25.35 2.1 -25.25 2.25 -25.2" fill="#333333" fill-rule="evenodd" stroke="none"/>
    <path d="M1.65 -16.6 L2.2 -16.35 2.85 -16.1 2.95 -16.0 3.0 -16.0 3.35 -15.95 3.55 -15.9 3.65 -15.8 3.7 -15.7 3.7 -15.6 3.7 -15.5 3.65 -15.45 3.55 -15.35 3.35 -15.25 2.95 -15.25 2.75 -15.35 2.15 -15.65 1.6 -15.9 1.4 -16.0 1.3 -16.1 1.2 -16.2 1.0 -16.25 0.75 -16.45 0.65 -16.55 0.55 -16.65 0.45 -16.75 0.35 -16.85 0.2 -17.0 0.05 -17.1 -0.05 -17.2 -0.25 -17.3 -0.3 -17.4 -0.3 -17.5 -0.3 -17.6 -0.3 -17.65 -0.25 -17.75 -0.15 -17.75 -0.05 -17.8 0.15 -17.75 0.3 -17.65 0.45 -17.55 0.6 -17.45 0.9 -17.15 1.2 -16.9 1.6 -16.65 1.65 -16.6" fill="#333333" fill-rule="evenodd" stroke="none"/>
    <path d="M2.9 -58.95 L2.7 -58.9 2.5 -58.95 2.4 -59.05 2.35 -59.15 2.2 -59.25 2.05 -59.45 1.9 -59.65 1.75 -59.8 1.6 -59.9 1.45 -60.0 1.3 -60.1 0.95 -60.5 0.55 -60.9 0.4 -61.2 0.4 -61.3 0.45 -61.4 0.45 -61.5 0.5 -61.6 0.7 -61.65 0.85 -61.6 1.3 -61.0 1.9 -60.45 2.25 -60.2 2.4 -60.1 2.5 -60.0 2.65 -59.8 2.85 -59.6 2.95 -59.5 3.0 -59.45 3.0 -59.35 3.05 -59.25 3.0 -59.15 3.0 -59.05 2.9 -58.95" fill="#333333" fill-rule="evenodd" stroke="none"/>
    <path d="M2.25 -52.2 L2.35 -52.1 2.6 -52.0 2.8 -51.9 2.9 -51.8 3.1 -51.6 3.2 -51.5 3.25 -51.45 3.3 -51.35 3.3 -51.25 3.3 -51.15 3.3 -51.05 3.25 -50.95 3.2 -50.85 3.1 -50.8 2.95 -50.75 2.75 -50.85 2.7 -50.95 2.6 -51.05 2.6 -51.1 2.5 -51.2 2.4 -51.3 2.2 -51.4 2.0 -51.5 1.95 -51.6 1.85 -51.7 1.8 -51.7 1.6 -51.75 1.45 -51.8 1.25 -51.85 1.15 -51.95 1.0 -52.05 0.6 -52.25 0.45 -52.35 0.35 -52.4 0.15 -52.65 0.1 -52.7 0.1 -52.8 0.1 -52.9 0.1 -53.0 0.2 -53.1 0.35 -53.15 0.5 -53.1 0.7 -53.0 0.75 -52.9 0.85 -52.8 1.05 -52.7 1.25 -52.6 1.55 -52.45 1.8 -52.35 1.95 -52.35 2.1 -52.25 2.25 -52.2" fill="#333333" fill-rule="evenodd" stroke="none"/>
    <path d="M1.65 -43.6 L2.2 -43.35 2.85 -43.1 2.95 -43.0 3.0 -43.0 3.35 -42.95 3.55 -42.9 3.65 -42.8 3.7 -42.7 3.7 -42.6 3.7 -42.5 3.65 -42.45 3.55 -42.35 3.35 -42.25 2.95 -42.25 2.75 -42.35 2.15 -42.65 1.6 -42.9 1.4 -43.0 1.3 -43.1 1.2 -43.2 1.0 -43.25 0.75 -43.45 0.65 -43.55 0.55 -43.65 0.45 -43.75 0.35 -43.85 0.2 -44.0 0.05 -44.1 -0.05 -44.2 -0.25 -44.3 -0.3 -44.4 -0.3 -44.5 -0.3 -44.6 -0.3 -44.65 -0.25 -44.75 -0.15 -44.75 -0.05 -44.8 0.15 -44.75 0.3 -44.65 0.45 -44.55 0.6 -44.45 0.9 -44.15 1.2 -43.9 1.6 -43.65 1.65 -43.6" fill="#333333" fill-rule="evenodd" stroke="none"/>
    <path d="M2.95 21.0 L3.0 21.05 3.0 21.15 3.05 21.25 3.0 21.35 3.0 21.45 2.9 21.55 2.7 21.6 2.5 21.55 2.4 21.45 2.35 21.35 2.2 21.25 2.05 21.05 1.9 20.85 1.75 20.7 1.6 20.6 1.45 20.5 1.3 20.4 0.95 20.0 0.55 19.6 0.4 19.3 0.4 19.2 0.45 19.1 0.45 19.0 0.5 18.9 0.7 18.85 0.85 18.9 1.3 19.5 1.9 20.05 2.25 20.3 2.4 20.4 2.5 20.5 2.65 20.7 2.85 20.9 2.95 21.0" fill="#333333" fill-rule="evenodd" stroke="none"/>
    <path d="M2.25 28.3 L2.35 28.4 2.6 28.5 2.8 28.6 2.9 28.7 3.1 28.9 3.2 29.0 3.25 29.05 3.3 29.15 3.3 29.25 3.3 29.35 3.3 29.45 3.25 29.55 3.2 29.65 3.1 29.7 2.95 29.75 2.75 29.65 2.7 29.55 2.6 29.45 2.6 29.4 2.5 29.3 2.4 29.2 2.2 29.1 2.0 29.0 1.95 28.9 1.85 28.8 1.8 28.8 1.6 28.75 1.45 28.7 1.25 28.65 1.15 28.55 1.0 28.45 0.6 28.25 0.45 28.15 0.35 28.1 0.15 27.85 0.1 27.8 0.1 27.7 0.1 27.6 0.1 27.5 0.2 27.4 0.35 27.35 0.5 27.4 0.7 27.5 0.75 27.6 0.85 27.7 1.05 27.8 1.25 27.9 1.55 28.05 1.8 28.15 1.95 28.15 2.1 28.25 2.25 28.3" fill="#333333" fill-rule="evenodd" stroke="none"/>
    <path d="M0.7 36.9 L0.7 36.85 1.35 36.85 1.3 36.9 1.25 36.95 1.25 37.0 1.2 37.05 1.2 37.3 1.0 37.25 0.75 37.05 0.65 36.95 0.7 36.9 M2.4 37.7 L2.5 37.7 2.5 37.8 2.55 37.85 2.55 37.9 2.7 38.05 3.2 38.25 2.95 38.25 2.75 38.15 2.15 37.85 1.9 37.75 2.4 37.7" fill="#333333" fill-rule="evenodd" stroke="none"/>
    <path d="M2.95 -6.0 L3.0 -5.95 3.0 -5.85 3.05 -5.75 3.0 -5.65 3.0 -5.55 2.9 -5.45 2.7 -5.4 2.5 -5.45 2.4 -5.55 2.35 -5.65 2.2 -5.75 2.05 -5.95 1.9 -6.15 1.75 -6.3 1.6 -6.4 1.45 -6.5 1.3 -6.6 0.95 -7.0 0.55 -7.4 0.4 -7.7 0.4 -7.8 0.45 -7.9 0.45 -8.0 0.5 -8.1 0.7 -8.15 0.85 -8.1 1.3 -7.5 1.9 -6.95 2.25 -6.7 2.4 -6.6 2.5 -6.5 2.65 -6.3 2.85 -6.1 2.95 -6.0" fill="#333333" fill-rule="evenodd" stroke="none"/>
    <path d="M2.25 1.3 L2.35 1.4 2.6 1.5 2.8 1.6 2.9 1.7 3.1 1.9 3.2 2.0 3.25 2.05 3.3 2.15 3.3 2.25 3.3 2.35 3.3 2.45 3.25 2.55 3.2 2.65 3.1 2.7 2.95 2.75 2.75 2.65 2.7 2.55 2.6 2.45 2.6 2.4 2.5 2.3 2.4 2.2 2.2 2.1 2.0 2.0 1.95 1.9 1.85 1.8 1.8 1.8 1.6 1.75 1.45 1.7 1.25 1.65 1.15 1.55 1.0 1.45 0.6 1.25 0.45 1.15 0.35 1.1 0.15 0.85 0.1 0.8 0.1 0.7 0.1 0.6 0.1 0.5 0.2 0.4 0.35 0.35 0.5 0.4 0.7 0.5 0.75 0.6 0.85 0.7 1.05 0.8 1.25 0.9 1.55 1.05 1.8 1.15 1.95 1.15 2.1 1.25 2.25 1.3" fill="#333333" fill-rule="evenodd" stroke="none"/>
    <path d="M1.65 9.9 L2.2 10.15 2.85 10.4 2.95 10.5 3.0 10.5 3.35 10.55 3.55 10.6 3.65 10.7 3.7 10.8 3.7 10.9 3.7 11.0 3.65 11.05 3.55 11.15 3.35 11.25 2.95 11.25 2.75 11.15 2.15 10.85 1.6 10.6 1.4 10.5 1.3 10.4 1.2 10.3 1.0 10.25 0.75 10.05 0.65 9.95 0.55 9.85 0.45 9.75 0.35 9.65 0.2 9.5 0.05 9.4 -0.05 9.3 -0.25 9.2 -0.3 9.1 -0.3 9.0 -0.3 8.9 -0.3 8.85 -0.25 8.75 -0.15 8.75 -0.05 8.7 0.15 8.75 0.3 8.85 0.45 8.95 0.6 9.05 0.9 9.35 1.2 9.6 1.6 9.85 1.65 9.9" fill="#333333" fill-rule="evenodd" stroke="none"/>
    <path d="M2.9 75.55 L2.7 75.6 2.5 75.55 2.4 75.45 2.35 75.35 2.2 75.25 2.05 75.05 1.9 74.85 1.75 74.7 1.6 74.6 1.45 74.5 1.3 74.4 0.95 74.0 0.55 73.6 0.4 73.3 0.4 73.2 0.45 73.1 0.45 73.0 0.5 72.9 0.7 72.85 0.85 72.9 1.3 73.5 1.9 74.05 2.25 74.3 2.4 74.4 2.5 74.5 2.65 74.7 2.85 74.9 2.95 75.0 3.0 75.05 3.0 75.15 3.05 75.25 3.0 75.35 3.0 75.45 2.9 75.55" fill="#333333" fill-rule="evenodd" stroke="none"/>
    <path d="M2.25 82.3 L2.35 82.4 2.6 82.5 2.8 82.6 2.9 82.7 3.1 82.9 3.2 83.0 3.25 83.05 3.3 83.15 3.3 83.25 3.3 83.35 3.3 83.45 3.25 83.55 3.2 83.65 3.1 83.7 2.95 83.75 2.75 83.65 2.7 83.55 2.6 83.45 2.6 83.4 2.5 83.3 2.4 83.2 2.2 83.1 2.0 83.0 1.95 82.9 1.85 82.8 1.8 82.8 1.6 82.75 1.45 82.7 1.25 82.65 1.15 82.55 1.0 82.45 0.6 82.25 0.45 82.15 0.35 82.1 0.15 81.85 0.1 81.8 0.1 81.7 0.1 81.6 0.1 81.5 0.2 81.4 0.35 81.35 0.5 81.4 0.7 81.5 0.75 81.6 0.85 81.7 1.05 81.8 1.25 81.9 1.55 82.05 1.8 82.15 1.95 82.15 2.1 82.25 2.25 82.3" fill="#333333" fill-rule="evenodd" stroke="none"/>
    <path d="M1.65 90.9 L2.2 91.15 2.85 91.4 2.95 91.5 3.0 91.5 3.35 91.55 3.55 91.6 3.65 91.7 3.7 91.8 3.7 91.9 3.7 92.0 3.65 92.05 3.55 92.15 3.35 92.25 2.95 92.25 2.75 92.15 2.15 91.85 1.6 91.6 1.4 91.5 1.3 91.4 1.2 91.3 1.0 91.25 0.75 91.05 0.65 90.95 0.55 90.85 0.45 90.75 0.35 90.65 0.2 90.5 0.05 90.4 -0.05 90.3 -0.25 90.2 -0.3 90.1 -0.3 90.0 -0.3 89.9 -0.3 89.85 -0.25 89.75 -0.15 89.75 -0.05 89.7 0.15 89.75 0.3 89.85 0.45 89.95 0.6 90.05 0.9 90.35 1.2 90.6 1.6 90.85 1.65 90.9" fill="#333333" fill-rule="evenodd" stroke="none"/>
    <path d="M2.9 48.55 L2.7 48.6 2.5 48.55 2.4 48.45 2.35 48.35 2.2 48.25 2.05 48.05 1.9 47.85 1.75 47.7 1.6 47.6 1.45 47.5 1.3 47.4 0.95 47.0 0.55 46.6 0.4 46.3 0.4 46.2 0.45 46.1 0.45 46.0 0.5 45.9 0.7 45.85 0.85 45.9 1.3 46.5 1.9 47.05 2.25 47.3 2.4 47.4 2.5 47.5 2.65 47.7 2.85 47.9 2.95 48.0 3.0 48.05 3.0 48.15 3.05 48.25 3.0 48.35 3.0 48.45 2.9 48.55" fill="#333333" fill-rule="evenodd" stroke="none"/>
    <path d="M2.25 55.3 L2.35 55.4 2.6 55.5 2.8 55.6 2.9 55.7 3.1 55.9 3.2 56.0 3.25 56.05 3.3 56.15 3.3 56.25 3.3 56.35 3.3 56.45 3.25 56.55 3.2 56.65 3.1 56.7 2.95 56.75 2.75 56.65 2.7 56.55 2.6 56.45 2.6 56.4 2.5 56.3 2.4 56.2 2.2 56.1 2.0 56.0 1.95 55.9 1.85 55.8 1.8 55.8 1.6 55.75 1.45 55.7 1.25 55.65 1.15 55.55 1.0 55.45 0.6 55.25 0.45 55.15 0.35 55.1 0.15 54.85 0.1 54.8 0.1 54.7 0.1 54.6 0.1 54.5 0.2 54.4 0.35 54.35 0.5 54.4 0.7 54.5 0.75 54.6 0.85 54.7 1.05 54.8 1.25 54.9 1.55 55.05 1.8 55.15 1.95 55.15 2.1 55.25 2.25 55.3" fill="#333333" fill-rule="evenodd" stroke="none"/>
    <path d="M1.65 63.9 L2.2 64.15 2.85 64.4 2.95 64.5 3.0 64.5 3.35 64.55 3.55 64.6 3.65 64.7 3.7 64.8 3.7 64.9 3.7 65.0 3.65 65.05 3.55 65.15 3.35 65.25 2.95 65.25 2.75 65.15 2.15 64.85 1.6 64.6 1.4 64.5 1.3 64.4 1.2 64.3 1.0 64.25 0.75 64.05 0.65 63.95 0.55 63.85 0.45 63.75 0.35 63.65 0.2 63.5 0.05 63.4 -0.05 63.3 -0.25 63.2 -0.3 63.1 -0.3 63.0 -0.3 62.9 -0.3 62.85 -0.25 62.75 -0.15 62.75 -0.05 62.7 0.15 62.75 0.3 62.85 0.45 62.95 0.6 63.05 0.9 63.35 1.2 63.6 1.6 63.85 1.65 63.9" fill="#333333" fill-rule="evenodd" stroke="none"/>
    <path d="M2.9 101.05 L2.7 101.1 2.5 101.05 2.4 100.95 2.35 100.85 2.2 100.75 2.05 100.55 1.9 100.35 1.75 100.2 1.6 100.1 1.45 100.0 1.3 99.9 0.95 99.5 0.55 99.1 0.4 98.8 0.4 98.7 0.45 98.6 0.45 98.5 0.5 98.4 0.7 98.35 0.85 98.4 1.3 99.0 1.9 99.55 2.25 99.8 2.4 99.9 2.5 100.0 2.65 100.2 2.85 100.4 2.95 100.5 3.0 100.55 3.0 100.65 3.05 100.75 3.0 100.85 3.0 100.95 2.9 101.05" fill="#333333" fill-rule="evenodd" stroke="none"/>
    <path d="M2.25 107.8 L2.35 107.9 2.6 108.0 2.8 108.1 2.9 108.2 3.1 108.4 3.2 108.5 3.25 108.55 3.3 108.65 3.3 108.75 3.3 108.85 3.3 108.95 3.25 109.05 3.2 109.15 3.1 109.2 2.95 109.25 2.75 109.15 2.7 109.05 2.6 108.95 2.6 108.9 2.5 108.8 2.4 108.7 2.2 108.6 2.0 108.5 1.95 108.4 1.85 108.3 1.8 108.3 1.6 108.25 1.45 108.2 1.25 108.15 1.15 108.05 1.0 107.95 0.6 107.75 0.45 107.65 0.35 107.6 0.15 107.35 0.1 107.3 0.1 107.2 0.1 107.1 0.1 107.0 0.2 106.9 0.35 106.85 0.5 106.9 0.7 107.0 0.75 107.1 0.85 107.2 1.05 107.3 1.25 107.4 1.55 107.55 1.8 107.65 1.95 107.65 2.1 107.75 2.25 107.8" fill="#333333" fill-rule="evenodd" stroke="none"/>
    <path d="M1.65 116.4 L2.2 116.65 2.85 116.9 2.95 117.0 3.0 117.0 3.35 117.05 3.55 117.1 3.65 117.2 3.7 117.3 3.7 117.4 3.7 117.5 3.65 117.55 3.55 117.65 3.35 117.75 2.95 117.75 2.75 117.65 2.15 117.35 1.6 117.1 1.4 117.0 1.3 116.9 1.2 116.8 1.0 116.75 0.75 116.55 0.65 116.45 0.55 116.35 0.45 116.25 0.35 116.15 0.2 116.0 0.05 115.9 -0.05 115.8 -0.25 115.7 -0.3 115.6 -0.3 115.5 -0.3 115.4 -0.3 115.35 -0.25 115.25 -0.15 115.25 -0.05 115.2 0.15 115.25 0.3 115.35 0.45 115.45 0.6 115.55 0.9 115.85 1.2 116.1 1.6 116.35 1.65 116.4" fill="#333333" fill-rule="evenodd" stroke="none"/>
    <path d="M3.5 126.5 L2.6 126.3 -0.65 126.55 -0.8 126.95 -0.8 127.1 -0.8 127.35 -0.55 127.5 0.85 128.0 1.35 128.8 2.9 128.85 Q3.8 128.85 3.9 128.4 L4.1 127.7 4.05 127.35 3.5 126.5 M5.95 129.2 L5.8 129.4 5.05 130.25 4.8 130.35 2.3 130.4 Q0.95 130.25 -0.25 129.45 L-0.8 128.95 -1.75 128.25 -1.85 128.0 -1.85 126.2 -1.75 126.05 -1.6 125.8 Q-1.35 125.4 -0.75 125.15 L4.5 125.35 5.2 125.7 Q6.1 126.0 6.5 127.05 L6.45 128.3 Q6.4 128.8 5.95 129.2" fill="#333333" fill-rule="evenodd" stroke="none"/>
    <path d="M0.35 130.6 L1.45 131.75 Q2.65 131.5 2.9 130.3 3.05 129.55 3.45 129.2 4.05 129.0 4.15 129.75 4.35 130.55 3.95 131.3 3.55 132.25 2.75 132.65 1.15 133.45 -0.3 132.3 L-0.55 131.7 -0.95 129.45 Q-0.7 128.85 0.0 129.0 0.5 129.75 0.35 130.6" fill="#333333" fill-rule="evenodd" stroke="none"/>
    <path d="M3.35 125.5 L3.35 125.7 3.35 126.05 3.35 126.5 3.35 126.85 3.35 126.95 3.3 127.1 3.3 127.25 3.25 127.3 3.25 127.5 3.2 127.85 3.1 128.15 3.05 128.2 3.05 128.3 3.0 128.35 2.9 128.6 2.7 128.95 2.6 129.1 2.55 129.15 2.55 129.2 2.5 129.3 2.4 129.45 2.25 129.6 2.2 129.65 2.15 129.65 2.05 129.7 1.95 129.7 1.8 129.65 1.75 129.6 1.75 129.55 1.7 129.5 1.7 129.35 1.75 129.3 1.8 129.25 1.85 129.2 1.95 129.2 2.0 129.15 2.05 129.1 2.05 129.05 2.1 129.0 2.1 128.95 2.15 128.9 2.3 128.65 2.5 128.35 2.6 128.15 2.7 127.7 2.85 127.1 2.95 126.75 2.95 126.4 2.95 126.0 2.95 125.65 3.0 125.6 3.0 125.55 3.05 125.5 3.05 125.45 3.1 125.45 3.2 125.45 3.3 125.45 3.35 125.5" fill="#333333" fill-rule="evenodd" stroke="none"/>
    <path d="M-6.0 122.6 Q-4.95 122.45 -4.1 123.0 L-4.0 123.05 Q-2.5 123.45 -1.15 124.5 L-0.75 125.05 -0.2 125.55 Q0.45 125.85 0.1 126.3 -0.65 126.5 -1.05 125.8 -1.45 125.05 -2.4 124.5 -3.1 124.1 -3.8 123.95 L-4.55 123.55 Q-5.15 123.2 -5.85 123.15 -7.1 122.75 -6.0 122.6" fill="#333333" fill-rule="evenodd" stroke="none"/>
    <path d="M-4.95 122.25 L-5.35 121.85 Q-5.6 121.6 -5.05 121.75 L-4.75 121.8 Q-3.85 121.8 -3.55 122.5 L-3.6 122.6 -4.25 122.65 -4.95 122.25" fill="#333333" fill-rule="evenodd" stroke="none"/>
    <path d="M-4.75 120.95 Q-5.3 120.6 -4.65 120.45 L-4.25 120.55 Q-3.55 120.9 -3.25 121.55 L-3.5 121.55 -4.75 120.95" fill="#333333" fill-rule="evenodd" stroke="none"/>
    <path d="M0.1 123.6 L0.1 123.8 -0.2 124.15 Q-0.7 124.3 -0.9 123.75 L-1.55 122.7 -2.5 121.5 -3.6 120.0 Q-3.9 119.45 -3.3 119.5 L-0.55 122.4 -0.4 122.65 -0.25 122.8 0.1 123.6" fill="#333333" fill-rule="evenodd" stroke="none"/>
    <path d="M0.2 123.95 L0.3 124.0 0.45 124.65 -0.05 125.25 -0.95 125.4 -1.2 125.4 -1.35 125.0 Q-1.3 124.25 -0.7 123.85 L0.2 123.95" fill="#333333" fill-rule="evenodd" stroke="none"/>
    <path d="M3.05 32.2 L3.1 32.15 3.1 32.1 3.2 32.05 3.3 32.1 3.3 32.15 3.35 32.2 3.35 32.3 3.3 32.35 3.3 32.45 3.25 32.5 3.25 32.7 3.25 32.8 3.25 32.9 3.25 33.05 3.25 33.15 3.2 33.15 3.2 33.05 3.2 32.9 3.15 32.8 3.15 33.2 3.1 33.25 3.1 33.55 3.1 33.9 3.1 34.3 3.1 34.65 3.1 34.7 3.1 34.95 3.1 35.25 3.1 35.6 3.1 35.65 3.15 35.7 3.15 35.75 3.15 36.15 3.15 36.7 3.15 37.15 3.15 37.4 3.15 37.7 3.15 37.95 3.2 38.0 3.2 38.2 3.2 38.3 3.2 38.4 3.2 38.5 3.2 38.6 3.15 38.65 3.15 38.7 3.05 38.75 2.95 38.8 2.85 38.75 2.8 38.7 2.75 38.65 2.7 38.6 2.7 38.55 2.7 38.45 2.7 38.4 2.7 38.3 2.7 38.15 2.65 38.1 2.55 38.05 2.5 38.0 2.45 37.95 2.45 37.9 2.4 37.85 2.4 37.2 2.4 36.5 2.4 35.95 2.45 35.9 2.45 35.6 2.45 35.2 2.45 34.85 2.45 34.6 2.5 34.6 2.45 34.55 2.45 34.4 2.5 34.35 2.5 34.05 2.45 34.0 2.45 33.95 2.4 33.9 2.45 33.85 2.5 33.85 2.5 33.7 2.55 33.65 2.55 33.35 2.55 33.0 2.55 32.7 2.55 32.6 2.6 32.55 2.65 32.5 2.7 32.5 2.75 32.45 2.85 32.5 2.9 32.45 2.95 32.45 2.95 32.4 3.0 32.35 3.05 32.3 3.05 32.2" fill="#333333" fill-rule="evenodd" stroke="none"/>
    <path d="M0.8 32.7 L0.8 32.75 0.85 32.8 0.85 33.1 0.9 33.15 0.9 33.3 0.9 34.15 0.9 35.15 0.9 35.9 0.9 36.05 0.85 36.2 0.85 36.4 0.75 36.7 0.75 36.75 0.7 36.8 0.65 36.85 0.65 37.2 0.6 37.25 0.6 37.3 0.55 37.35 0.5 37.4 0.5 37.45 0.4 37.55 0.35 37.55 0.3 37.6 0.25 37.65 0.05 37.65 -0.1 37.65 -0.2 37.6 -0.3 37.55 -0.35 37.5 -0.4 37.45 -0.4 37.3 -0.35 37.25 -0.25 37.2 -0.2 37.2 -0.1 37.15 -0.05 37.1 -0.05 36.7 0.0 36.6 0.0 36.55 0.05 36.5 0.05 36.35 0.1 36.3 0.1 35.8 0.1 35.15 0.1 34.65 0.1 34.45 0.15 34.4 0.15 34.3 0.15 34.2 0.15 34.05 0.15 33.85 0.15 33.75 0.15 33.7 0.15 33.6 0.15 33.35 0.15 33.1 0.15 33.05 0.2 33.0 0.2 32.85 0.3 32.75 0.35 32.7 0.45 32.65 0.55 32.65 0.6 32.65 0.7 32.65 0.8 32.7" fill="#333333" fill-rule="evenodd" stroke="none"/>
    <path d="M3.45 29.75 L3.55 29.9 3.6 30.35 3.55 30.6 3.25 31.1 Q3.1 32.2 2.3 32.7 1.75 33.0 1.55 33.35 L1.4 33.8 1.25 33.95 1.0 33.95 0.75 33.1 -0.4 32.85 -0.7 32.1 Q-0.7 31.35 -0.3 30.9 L-0.35 30.65 -0.5 30.45 -0.45 30.45 -0.35 30.35 -0.3 30.25 -0.25 30.2 0.05 29.95 0.2 29.85 0.35 29.7 0.75 29.45 0.8 29.45 1.8 29.45 1.85 29.6 1.85 29.65 1.9 29.7 1.95 29.75 2.0 29.85 2.1 29.95 2.25 29.95 2.85 30.05 3.15 30.0 3.2 29.95 3.35 29.9 3.35 29.8 3.45 29.75" fill="#d1bc9c" fill-rule="evenodd" stroke="none"/>
    <path d="M3.4 29.95 L3.45 29.95 3.45 30.05 3.45 30.1 3.5 30.2 3.45 30.2 3.45 30.3 3.45 30.35 3.4 30.45 3.35 30.45 3.25 30.55 3.35 30.6 3.4 30.65 3.4 30.7 3.45 30.8 3.45 30.85 3.5 30.9 3.5 30.95 3.55 31.05 3.55 31.1 3.55 31.15 3.5 31.2 3.45 31.25 3.45 31.35 3.4 31.4 3.35 31.45 3.25 31.45 3.2 31.45 3.1 31.5 3.1 31.6 3.0 31.7 2.95 31.75 2.9 31.85 2.85 31.85 2.9 31.95 2.9 32.0 2.95 32.1 2.95 32.2 2.95 32.25 2.95 32.3 2.95 32.35 2.9 32.45 2.9 32.5 2.8 32.55 2.8 32.6 2.75 32.6 2.65 32.65 2.6 32.65 2.45 32.6 2.25 32.5 2.2 32.5 2.1 32.55 2.15 32.7 2.2 32.85 2.2 33.05 2.3 33.15 2.3 33.3 2.35 33.35 2.4 33.45 2.5 33.55 2.5 33.6 2.55 33.65 2.55 33.8 2.6 33.85 2.6 33.9 2.6 33.95 2.65 34.05 2.7 34.1 2.75 34.15 2.75 34.2 2.75 34.3 2.75 34.4 2.75 34.45 2.75 34.55 2.7 34.65 2.7 34.7 2.6 34.75 2.55 34.8 2.45 34.8 2.4 34.8 2.25 34.8 2.15 34.7 2.1 34.6 2.05 34.55 2.05 34.45 2.0 34.45 2.0 34.35 1.95 34.3 1.95 34.2 1.9 34.2 1.9 34.1 1.85 34.05 1.8 34.0 1.8 33.95 1.75 33.8 1.75 33.75 1.75 33.7 1.7 33.55 1.65 33.5 1.6 33.45 1.55 33.4 1.4 33.35 1.3 33.3 1.25 33.25 1.2 33.2 1.2 33.1 1.2 33.05 1.2 33.0 1.2 32.95 1.2 32.85 1.1 32.6 0.95 32.35 0.75 32.05 0.65 31.85 0.6 31.75 0.6 31.7 0.6 31.6 0.6 31.5 0.6 31.45 0.6 31.35 0.6 31.25 0.6 31.2 0.6 31.1 0.65 31.1 0.7 31.0 0.75 30.95 0.8 30.9 0.95 30.85 1.05 30.85 1.15 30.9 1.2 30.9 1.2 30.85 1.2 30.8 1.25 30.7 1.3 30.65 1.35 30.6 1.35 30.55 1.45 30.45 1.6 30.45 2.1 30.45 2.4 30.55 2.35 30.45 2.3 30.4 2.15 30.3 2.1 30.2 1.9 30.1 1.55 29.95 1.35 29.85 1.35 29.8 1.3 29.7 1.3 29.65 1.25 29.6 1.25 29.55 1.25 29.45 1.3 29.4 1.3 29.35 1.35 29.3 1.4 29.25 1.5 29.2 1.55 29.2 1.7 29.25 1.8 29.35 1.95 29.45 2.0 29.5 2.1 29.5 2.2 29.55 2.3 29.55 2.35 29.55 2.4 29.5 2.4 29.45 2.5 29.45 2.65 29.45 2.75 29.45 2.8 29.55 2.8 29.6 2.85 29.6 2.95 29.65 3.1 29.7 3.15 29.75 3.2 29.8 3.25 29.85 3.35 29.85 3.4 29.95" fill="#663333" fill-opacity="0.2" fill-rule="evenodd" stroke="none"/>
    <path d="M1.8 29.8 L2.0 29.8 2.1 29.85 2.25 29.9 2.4 30.05 2.6 30.2 2.85 30.25 2.95 30.3 3.1 30.35 3.15 30.4 3.2 30.45 3.25 30.55 3.25 30.6 3.3 30.65 3.3 30.7 3.3 30.8 3.3 30.85 3.25 30.9 3.25 30.95 3.25 31.05 3.25 31.1 3.25 31.15 3.25 31.2 3.2 31.25 3.2 31.35 3.15 31.4 3.1 31.45 3.05 31.5 3.05 31.55 3.2 31.6 3.3 31.7 3.35 31.7 3.35 31.8 3.4 31.85 3.4 31.9 3.4 31.95 3.4 32.05 3.35 32.1 3.35 32.15 3.25 32.2 3.2 32.3 3.2 32.35 3.15 32.35 3.0 32.4 3.0 32.45 2.95 32.45 2.9 32.45 2.8 32.5 2.75 32.5 2.6 32.55 2.55 32.6 2.5 32.7 2.5 32.75 2.5 32.8 2.5 32.85 2.5 32.95 2.55 33.0 2.55 33.05 2.55 33.1 2.55 33.2 2.55 33.25 2.55 33.3 2.55 33.35 2.55 33.45 2.55 33.5 2.5 33.55 2.5 33.6 2.4 33.7 2.35 33.75 2.3 33.8 2.2 33.8 2.05 33.75 2.0 33.7 1.95 33.65 1.9 33.6 1.9 33.5 1.85 33.45 1.8 33.4 1.75 33.35 1.55 33.3 1.4 33.25 1.3 33.2 1.25 33.1 1.2 33.05 1.15 33.0 1.15 32.95 1.1 32.85 1.1 32.8 1.05 32.75 1.05 32.7 1.05 32.6 1.05 32.55 1.05 32.5 1.05 32.45 1.05 32.35 1.05 32.3 1.05 32.25 1.0 32.2 0.95 32.1 0.95 32.0 0.95 31.95 0.95 31.85 0.95 31.75 0.95 31.7 0.95 31.6 0.95 31.5 0.95 31.45 0.95 31.35 0.95 31.2 0.95 31.0 0.95 30.95 0.95 30.85 1.0 30.85 1.05 30.75 1.1 30.7 1.1 30.6 1.15 30.6 1.15 30.5 1.15 30.45 1.15 30.4 1.2 30.35 1.25 30.25 1.3 30.2 1.3 30.15 1.4 30.0 1.45 29.95 1.55 29.9 1.65 29.85 1.7 29.85 1.8 29.85 1.8 29.8" fill="#663333" fill-opacity="0.2" fill-rule="evenodd" stroke="none"/>
    <path d="M0.85 31.0 L0.6 31.1 0.35 31.15 0.15 31.4 -0.05 31.65 -0.25 32.0 -0.45 32.4 -0.55 32.45 -0.7 32.5 -0.9 32.45 -1.05 32.3 -1.1 32.2 -1.1 32.1 -1.1 31.95 -1.1 31.85 -1.0 31.6 -0.8 31.2 -0.35 30.7 0.0 30.35 0.05 30.35 0.2 30.3 0.6 30.35 1.0 30.45 1.2 30.5 1.3 30.6 1.35 30.7 1.3 30.85 1.15 30.95 1.0 31.0 0.85 31.0" fill="#ffffff" fill-opacity="0.2" fill-rule="evenodd" stroke="none"/>
    <path d="M0.9 34.05 L0.65 34.25 0.35 33.9 0.2 33.65 0.15 33.5 0.15 33.2 0.1 32.9 -1.25 33.6 -1.45 33.5 -1.55 33.3 -1.55 33.05 -1.2 32.3 -0.8 31.6 Q-0.8 31.0 -0.35 30.75 -0.2 30.7 -0.2 31.05 L-0.2 31.9 0.3 31.7 0.6 31.95 Q0.8 31.95 0.9 32.1 L1.05 32.75 1.1 33.9 1.0 34.05 0.9 34.05" fill="#333333" fill-rule="evenodd" stroke="none"/>
    <path d="M4.5 30.55 L4.9 31.15 Q5.45 31.5 5.3 32.1 L5.05 32.4 4.2 32.15 3.6 32.25 3.45 32.4 3.3 32.6 3.2 32.7 3.0 32.65 2.5 32.0 2.5 31.6 2.7 31.0 2.9 30.95 3.75 30.8 3.65 30.05 3.85 29.7 3.95 29.75 4.5 30.55" fill="#333333" fill-rule="evenodd" stroke="none"/>
    <path d="M2.35 33.3 L2.45 34.1 2.8 35.3 Q2.5 35.8 2.0 35.45 L1.8 34.5 1.7 34.0 Q1.45 33.0 1.65 32.05 1.7 31.6 2.1 31.55 L2.3 31.9 2.55 32.6 2.35 33.3" fill="#333333" fill-rule="evenodd" stroke="none"/>
    <path d="M3.45 40.55 L3.55 40.4 3.6 39.95 3.55 39.7 3.25 39.2 Q3.1 38.1 2.3 37.6 L1.55 36.95 1.4 36.5 1.25 36.35 1.0 36.35 0.75 37.2 -0.4 37.45 -0.7 38.2 Q-0.7 38.95 -0.3 39.4 L-0.35 39.65 -0.5 39.85 -0.45 39.85 -0.35 39.95 -0.3 40.05 -0.25 40.1 0.05 40.35 0.2 40.45 0.35 40.6 0.75 40.85 0.8 40.85 1.8 40.85 1.85 40.7 1.85 40.65 1.9 40.6 1.95 40.55 2.0 40.45 2.1 40.35 2.25 40.35 2.85 40.25 3.15 40.3 3.2 40.35 3.35 40.4 3.35 40.5 3.45 40.55" fill="#d1bc9c" fill-rule="evenodd" stroke="none"/>
    <path d="M3.4 40.35 L3.45 40.35 3.45 40.25 3.45 40.2 3.5 40.1 3.45 40.1 3.45 40.0 3.45 39.95 3.4 39.85 3.35 39.85 3.25 39.75 3.35 39.7 3.4 39.65 3.4 39.6 3.45 39.5 3.45 39.45 3.5 39.4 3.5 39.35 3.55 39.25 3.55 39.2 3.55 39.15 3.5 39.1 3.45 39.05 3.45 38.95 3.4 38.9 3.35 38.85 3.25 38.85 3.2 38.85 3.1 38.8 3.1 38.7 3.0 38.6 2.95 38.55 2.9 38.45 2.85 38.45 2.9 38.35 2.9 38.3 2.95 38.2 2.95 38.1 2.95 38.05 2.95 38.0 2.95 37.95 2.9 37.85 2.9 37.8 2.8 37.75 2.8 37.7 2.75 37.7 2.65 37.65 2.6 37.65 2.45 37.7 2.25 37.8 2.2 37.8 2.1 37.75 2.15 37.6 2.2 37.45 2.2 37.25 2.3 37.15 2.3 37.0 2.35 36.95 2.4 36.85 2.5 36.75 2.5 36.7 2.55 36.65 2.55 36.5 2.6 36.45 2.6 36.4 2.6 36.35 2.65 36.25 2.7 36.2 2.75 36.15 2.75 36.1 2.75 36.0 2.75 35.9 2.75 35.85 2.75 35.75 2.7 35.65 2.7 35.6 2.6 35.55 2.55 35.5 2.45 35.5 2.4 35.5 2.25 35.5 2.15 35.6 2.1 35.7 2.05 35.75 2.05 35.85 2.0 35.85 2.0 35.95 1.95 36.0 1.95 36.1 1.9 36.1 1.9 36.2 1.85 36.25 1.8 36.3 1.8 36.35 1.75 36.5 1.75 36.55 1.75 36.6 1.7 36.75 1.65 36.8 1.6 36.85 1.55 36.9 1.4 36.95 1.3 37.0 1.25 37.05 1.2 37.1 1.2 37.2 1.2 37.25 1.2 37.3 1.2 37.35 1.2 37.45 1.1 37.7 0.95 37.95 0.75 38.25 0.65 38.45 0.6 38.55 0.6 38.6 0.6 38.7 0.6 38.8 0.6 38.85 0.6 38.95 0.6 39.05 0.6 39.1 0.6 39.2 0.65 39.2 0.7 39.3 0.75 39.35 0.8 39.4 0.95 39.45 1.05 39.45 1.15 39.4 1.2 39.4 1.2 39.45 1.2 39.5 1.25 39.6 1.3 39.65 1.35 39.7 1.35 39.75 1.45 39.85 1.6 39.85 2.1 39.85 2.4 39.75 2.35 39.85 2.3 39.9 2.15 40.0 2.1 40.1 1.9 40.2 1.55 40.35 1.35 40.45 1.35 40.5 1.3 40.6 1.3 40.65 1.25 40.7 1.25 40.75 1.25 40.85 1.3 40.9 1.3 40.95 1.35 41.0 1.4 41.05 1.5 41.1 1.55 41.1 1.7 41.05 1.8 40.95 1.95 40.85 2.0 40.8 2.1 40.8 2.2 40.75 2.3 40.75 2.35 40.75 2.4 40.8 2.4 40.85 2.5 40.85 2.65 40.85 2.75 40.85 2.8 40.75 2.8 40.7 2.85 40.7 2.95 40.65 3.1 40.6 3.15 40.55 3.2 40.5 3.25 40.45 3.35 40.45 3.4 40.35" fill="#663333" fill-opacity="0.2" fill-rule="evenodd" stroke="none"/>
    <path d="M1.8 40.5 L2.0 40.5 2.1 40.45 2.25 40.4 2.4 40.25 2.6 40.1 2.85 40.05 2.95 40.0 3.1 39.95 3.15 39.9 3.2 39.85 3.25 39.75 3.25 39.7 3.3 39.65 3.3 39.6 3.3 39.5 3.3 39.45 3.25 39.4 3.25 39.35 3.25 39.25 3.25 39.2 3.25 39.15 3.25 39.1 3.2 39.05 3.2 38.95 3.15 38.9 3.1 38.85 3.05 38.8 3.05 38.75 3.2 38.7 3.3 38.6 3.35 38.6 3.35 38.5 3.4 38.45 3.4 38.4 3.4 38.35 3.4 38.25 3.35 38.2 3.35 38.15 3.25 38.1 3.2 38.0 3.2 37.95 3.15 37.95 3.0 37.9 3.0 37.85 2.95 37.85 2.9 37.85 2.8 37.8 2.75 37.8 2.6 37.75 2.55 37.7 2.5 37.6 2.5 37.55 2.5 37.5 2.5 37.45 2.5 37.35 2.55 37.3 2.55 37.25 2.55 37.2 2.55 37.1 2.55 37.05 2.55 37.0 2.55 36.95 2.55 36.85 2.55 36.8 2.5 36.75 2.5 36.7 2.4 36.6 2.35 36.55 2.3 36.5 2.2 36.5 2.05 36.55 2.0 36.6 1.95 36.65 1.9 36.7 1.9 36.8 1.85 36.85 1.8 36.9 1.75 36.95 1.55 37.0 1.4 37.05 1.3 37.1 1.25 37.2 1.2 37.25 1.15 37.3 1.15 37.35 1.1 37.45 1.1 37.5 1.05 37.55 1.05 37.6 1.05 37.7 1.05 37.75 1.05 37.8 1.05 37.85 1.05 37.95 1.05 38.0 1.05 38.05 1.0 38.1 0.95 38.2 0.95 38.3 0.95 38.35 0.95 38.45 0.95 38.55 0.95 38.6 0.95 38.7 0.95 38.8 0.95 38.85 0.95 38.95 0.95 39.1 0.95 39.3 0.95 39.35 0.95 39.45 1.0 39.45 1.05 39.55 1.1 39.6 1.1 39.7 1.15 39.7 1.15 39.8 1.15 39.85 1.15 39.9 1.2 39.95 1.25 40.05 1.3 40.1 1.3 40.15 1.4 40.3 1.45 40.35 1.55 40.4 1.65 40.45 1.7 40.45 1.8 40.45 1.8 40.5" fill="#663333" fill-opacity="0.2" fill-rule="evenodd" stroke="none"/>
    <path d="M1.0 39.85 L1.2 39.8 1.3 39.7 1.35 39.6 1.3 39.45 1.15 39.35 1.0 39.3 0.85 39.3 0.6 39.2 0.35 39.15 0.15 38.9 -0.05 38.65 -0.25 38.3 -0.45 37.9 -0.55 37.85 -0.7 37.8 -0.9 37.85 -1.05 38.0 -1.1 38.1 -1.1 38.2 -1.1 38.35 -1.1 38.45 -1.0 38.7 -0.8 39.1 -0.35 39.6 0.0 39.95 0.05 39.95 0.2 40.0 0.6 39.95 1.0 39.85" fill="#ffffff" fill-opacity="0.2" fill-rule="evenodd" stroke="none"/>
    <path d="M0.9 36.25 L0.65 36.05 0.35 36.4 0.2 36.65 0.15 36.8 0.15 37.1 0.1 37.4 -1.25 36.7 -1.45 36.8 -1.55 37.0 -1.55 37.25 -1.2 38.0 Q-0.8 38.3 -0.8 38.7 -0.8 39.3 -0.35 39.55 -0.2 39.6 -0.2 39.25 L-0.2 38.4 0.3 38.6 0.6 38.35 0.9 38.2 1.05 37.55 1.1 36.4 1.0 36.25 0.9 36.25" fill="#333333" fill-rule="evenodd" stroke="none"/>
    <path d="M4.5 39.75 Q4.55 39.4 4.9 39.15 5.45 38.8 5.3 38.2 L5.05 37.9 4.2 38.15 3.6 38.05 3.45 37.9 3.3 37.7 3.2 37.6 3.0 37.65 Q2.65 37.85 2.5 38.3 L2.5 38.7 2.7 39.3 2.9 39.35 3.75 39.5 3.65 40.25 3.85 40.6 3.95 40.55 4.5 39.75" fill="#333333" fill-rule="evenodd" stroke="none"/>
    <path d="M2.35 37.0 L2.45 36.2 2.8 35.0 Q2.5 34.5 2.0 34.85 L1.8 35.8 1.7 36.3 Q1.45 37.3 1.65 38.25 1.7 38.7 2.1 38.75 L2.3 38.4 2.55 37.7 2.35 37.0" fill="#333333" fill-rule="evenodd" stroke="none"/>
  </g>
</svg>
