<?xml version="1.0" encoding="UTF-8" standalone="no"?>
<svg xmlns:xlink="http://www.w3.org/1999/xlink" height="6.3px" width="26.6px" xmlns="http://www.w3.org/2000/svg">
  <g transform="matrix(1.0, 0.0, 0.0, 1.0, 13.05, 3.15)">
    <path d="M6.7 -2.25 L9.9 -2.55 11.05 -2.3 11.9 -1.65 12.05 -1.0 11.95 -0.55 11.75 -0.05 11.75 0.15 11.75 0.3 11.75 0.4 11.75 0.6 11.75 0.8 11.75 0.9 11.7 1.0 11.55 1.45 11.5 1.55 11.15 1.65 1.55 1.9 -0.45 1.9 -2.55 1.9 -4.55 1.9 -8.65 1.85 -11.5 1.55 -11.95 1.25 -12.0 1.15 -12.0 1.0 -12.0 0.9 -12.0 0.8 -12.0 0.7 -12.1 0.5 -12.3 0.4 -12.45 0.35 -12.65 0.0 -12.7 -0.1 -12.7 -0.35 -12.7 -0.45 -12.7 -0.5 -12.7 -0.75 -12.7 -0.95 -12.7 -1.05 -12.7 -1.2 -12.45 -1.6 -12.4 -1.7 -9.0 -2.1 -8.65 -2.5 -6.45 -2.45 -4.35 -2.45 -2.2 -2.3 -0.1 -2.25 2.8 -2.1 5.7 -2.1 6.7 -2.25" fill="#a07c64" fill-rule="evenodd" stroke="none"/>
    <path d="M5.85 -0.7 L11.5 -0.45 11.85 -0.4 12.0 -0.3 12.05 -0.15 12.1 -0.05 12.15 0.05 12.15 0.1 12.15 0.25 12.2 0.35 12.2 0.45 12.15 0.55 12.1 0.7 12.05 0.8 11.95 0.9 11.9 0.95 11.85 1.05 11.75 1.2 11.6 1.3 11.5 1.35 11.45 1.4 10.65 1.55 8.75 1.65 8.7 1.7 8.5 1.7 8.4 1.75 8.25 1.75 8.2 1.75 7.95 1.8 7.9 1.9 7.85 1.9 7.65 2.0 5.9 2.0 5.65 1.9 5.55 1.8 4.65 1.75 3.35 1.6 3.2 1.55 2.75 1.55 1.6 1.35 1.3 1.3 0.75 1.25 -0.75 0.95 -1.6 0.9 -1.9 0.9 -2.95 0.9 -3.0 1.0 -3.15 1.15 -3.35 1.2 -7.4 1.35 -10.85 1.3 -12.0 1.15 -12.1 1.0 -12.2 0.9 -12.25 0.8 -12.25 0.7 -12.2 0.6 -12.2 0.5 -12.15 0.4 -12.05 0.3 -12.0 0.25 -11.9 0.15 -10.85 0.05 -10.3 -0.05 -10.15 -0.1 -10.0 -0.1 -9.5 -0.15 -9.4 -0.25 -9.25 -0.25 -9.05 -0.35 -8.9 -0.4 -8.75 -0.4 -3.65 -0.4 -3.4 -0.35 -3.3 -0.35 -3.05 -0.35 -3.05 -0.45 -3.0 -0.55 -2.85 -0.7 -2.6 -0.75 5.25 -0.7 5.85 -0.7" fill="#663333" fill-opacity="0.2" fill-rule="evenodd" stroke="none"/>
    <path d="M11.65 0.7 L11.85 0.75 12.0 0.85 12.1 0.95 12.15 1.05 12.2 1.2 12.15 1.25 12.15 1.35 12.1 1.45 12.05 1.6 11.95 1.65 11.9 1.7 9.25 1.7 9.1 1.7 9.0 1.65 7.25 1.65 7.05 1.55 6.9 1.45 -11.0 1.3 -12.0 1.2 -12.15 1.15 -12.2 1.0 -12.25 0.9 Q-12.0 0.55 -11.5 0.55 L3.25 0.45 7.0 0.45 7.2 0.55 7.35 0.6 9.0 0.7 9.25 0.7 11.5 0.7 11.65 0.7" fill="#663333" fill-opacity="0.2" fill-rule="evenodd" stroke="none"/>
    <path d="M9.0 -2.25 L9.2 -2.25 10.5 -2.3 10.75 -2.2 10.9 -2.1 11.2 -1.9 11.3 -1.8 11.35 -1.75 11.4 -1.7 11.6 -1.65 11.75 -1.55 11.85 -1.4 11.9 -1.3 11.95 -1.2 12.0 -1.05 12.0 -1.0 12.05 -0.9 12.1 -0.8 12.1 -0.7 12.2 -0.55 12.2 -0.45 12.2 -0.25 12.2 -0.15 12.2 -0.05 12.2 0.05 12.2 0.15 12.15 0.3 12.1 0.4 12.05 0.5 12.05 0.6 12.0 0.7 12.0 0.8 11.95 0.9 11.9 1.0 11.85 1.15 11.8 1.25 11.75 1.35 11.7 1.45 11.7 1.55 11.6 1.65 11.6 1.75 11.5 1.85 11.45 2.0 11.3 2.1 11.15 2.2 10.9 2.25 10.75 2.25 10.5 2.2 10.35 2.1 10.25 2.0 10.15 1.85 10.05 1.75 9.95 1.65 9.85 1.7 9.1 1.8 9.0 1.9 8.85 2.05 8.3 2.3 8.2 2.35 7.7 2.6 7.6 2.65 7.15 2.75 7.0 2.75 6.85 2.8 5.15 2.9 4.9 2.75 4.7 2.65 4.35 2.5 4.25 2.35 4.15 2.25 4.1 2.15 4.05 2.05 4.0 1.9 3.95 1.8 3.95 1.65 3.95 1.55 3.95 1.4 3.95 1.3 3.95 1.2 3.95 1.05 4.0 0.95 4.0 0.9 4.05 0.8 4.05 0.7 4.25 0.25 4.45 -0.05 5.75 -1.35 7.2 -2.15 7.4 -2.2 8.25 -2.25 8.25 -2.3 9.0 -2.25 M5.2 1.65 L6.2 1.55 5.25 1.4 5.05 1.4 5.0 1.45 5.1 1.55 5.2 1.65" fill="#663333" fill-opacity="0.2" fill-rule="evenodd" stroke="none"/>
    <path d="M3.4 -1.45 L4.05 -2.05 4.9 -2.45 5.15 -2.5 6.9 -2.45 8.15 -2.2 8.4 -2.15 8.5 -2.05 8.7 -1.8 8.85 -1.65 8.95 -1.4 9.0 -1.35 9.25 -1.15 9.6 -0.8 9.65 -0.7 9.7 -0.55 9.7 -0.45 9.7 -0.35 9.7 -0.05 9.7 0.3 9.65 0.5 9.6 0.7 9.55 0.8 9.5 0.9 9.35 1.0 9.2 1.15 9.05 1.25 8.95 1.3 8.9 1.35 8.7 1.4 8.3 1.6 8.15 1.65 7.6 1.7 7.4 1.8 5.9 2.2 3.9 2.3 3.65 2.2 3.5 2.1 3.4 2.05 3.15 2.05 1.4 2.05 1.15 2.0 0.95 1.85 0.85 1.75 0.65 1.55 0.6 1.45 0.6 1.35 0.6 1.15 0.6 0.9 0.6 0.7 0.6 0.6 0.6 0.5 0.65 0.4 0.8 0.15 1.2 -0.15 1.3 -0.25 1.5 -0.25 2.75 -0.45 2.8 -0.5 2.8 -0.6 2.85 -0.75 2.9 -0.85 3.4 -1.45" fill="#663333" fill-opacity="0.2" fill-rule="evenodd" stroke="none"/>
    <path d="M-12.95 -1.15 L-12.95 -1.25 -12.9 -1.35 -12.85 -1.45 -12.8 -1.6 -12.6 -1.75 -12.2 -2.0 -11.8 -2.15 -11.75 -2.15 -11.6 -2.15 -11.6 -2.2 -11.5 -2.2 -11.25 -2.15 -11.05 -2.1 -10.75 -2.05 -10.6 -2.0 -10.5 -1.85 -10.45 -1.75 -10.45 -1.65 -10.5 -1.6 -10.55 -1.45 -10.65 -1.35 -10.75 -1.35 -11.15 -1.3 -11.2 -1.15 -11.25 -1.05 -11.35 -0.95 -11.4 -0.85 -11.45 -0.75 -11.5 -0.6 -11.5 -0.5 -11.55 -0.45 -11.6 -0.35 -11.6 -0.25 -11.6 -0.1 -11.65 0.0 -11.7 0.1 -11.7 0.25 -11.7 0.35 -11.7 0.4 -11.75 0.5 -11.75 0.6 -11.85 0.75 -11.95 0.8 -12.1 0.85 -12.25 0.85 -12.5 0.8 -12.55 0.7 -12.65 0.55 -12.75 0.35 -12.8 0.25 -12.9 0.1 -12.9 0.05 -12.95 -0.05 -13.0 -0.15 -13.0 -0.3 -12.95 -0.4 -12.95 -0.6 -12.95 -0.75 -12.95 -0.9 -12.95 -1.15" fill="#ffffff" fill-opacity="0.2" fill-rule="evenodd" stroke="none"/>
    <path d="M1.15 -1.2 L0.25 -1.05 0.15 -1.0 0.0 -0.95 -0.6 -0.9 -0.75 -0.85 -1.5 -0.8 -1.6 -0.75 -1.75 -0.7 -8.35 -0.75 -8.6 -0.8 -8.75 -0.85 -8.8 -0.85 -11.5 -0.95 -12.0 -1.0 -12.2 -1.05 -12.25 -1.2 -12.3 -1.3 -12.3 -1.35 -12.25 -1.45 -12.2 -1.6 -12.15 -1.6 -11.5 -1.65 -10.85 -1.7 -8.75 -1.75 -8.55 -1.65 -8.35 -1.6 -5.1 -1.6 -1.85 -1.65 -1.75 -1.75 -1.6 -1.75 -0.65 -1.85 -0.5 -1.85 -0.05 -1.9 0.1 -2.05 0.25 -2.05 1.1 -2.1 1.25 -2.15 4.9 -2.15 5.15 -2.1 6.5 -2.05 6.7 -2.0 6.9 -1.9 8.15 -1.85 12.9 -1.65 13.25 -1.55 Q13.35 -1.45 13.45 -1.45 L13.55 -1.35 13.5 -1.25 13.5 -1.2 13.4 -1.15 13.2 -1.05 13.1 -1.0 13.0 -0.95 12.4 -0.85 6.9 -0.95 6.65 -1.0 6.5 -1.05 5.15 -1.15 4.9 -1.2 1.25 -1.2 1.15 -1.2" fill="#ffffff" fill-opacity="0.2" fill-rule="evenodd" stroke="none"/>
    <path d="M11.75 -3.05 L11.9 -3.1 12.2 -3.15 12.6 -3.05 12.85 -2.8 12.95 -2.6 13.05 -1.55 13.05 0.1 12.95 1.65 12.9 1.8 12.75 2.05 12.7 2.25 12.65 2.5 12.45 2.65 12.25 2.9 10.0 3.05 5.45 2.9 3.4 2.75 Q3.85 2.9 2.9 2.8 L2.0 2.75 1.35 2.8 -0.35 2.9 -1.55 2.95 -11.15 2.95 -11.5 3.05 -11.8 3.15 -12.25 3.05 -12.4 2.8 -12.5 2.55 -12.55 2.3 -12.55 2.15 -12.5 2.05 -12.65 2.0 -12.85 1.75 -12.9 1.55 -12.9 1.35 -12.9 1.15 -13.0 0.9 -13.05 0.75 -13.0 -0.1 -12.95 -1.2 -12.85 -2.05 -12.8 -2.2 -12.75 -2.25 -12.55 -2.25 -12.4 -2.25 -12.4 -2.3 -12.4 -2.55 -12.25 -2.75 -12.05 -2.9 Q-0.7 -2.9 10.45 -3.15 L10.7 -3.15 11.05 -3.05 11.5 -2.8 11.55 -2.75 11.65 -2.9 11.75 -3.05 M10.5 -1.6 L4.85 -1.6 -11.8 -1.55 -12.15 -1.7 -12.2 -1.75 -12.2 -1.4 -12.2 -0.55 -12.05 0.05 -11.85 0.5 -11.6 0.9 -11.5 1.15 -11.35 1.05 -11.05 1.0 -1.55 1.0 1.95 1.3 4.45 1.3 7.2 1.2 11.35 1.0 11.35 0.7 11.4 -0.8 11.25 -1.4 10.5 -1.6" fill="#333333" fill-rule="evenodd" stroke="none"/>
    <path d="M-7.4 0.8 L-7.35 0.7 -7.3 0.65 -7.25 0.5 -7.25 0.4 -7.2 0.3 -7.1 0.2 -6.95 0.2 -6.9 0.15 -6.85 0.3 -6.85 0.35 -6.85 0.45 -6.85 0.6 -6.85 0.7 -6.85 0.8 -6.9 0.9 -6.95 1.0 -7.0 1.1 -7.05 1.2 -7.05 1.3 -7.1 1.55 -7.15 1.65 -7.2 1.75 -7.25 1.8 -7.25 1.95 -7.25 2.05 -7.25 2.15 -7.25 2.3 -7.3 2.4 -7.3 2.5 -7.35 2.6 -7.4 2.65 -7.45 2.75 -7.55 2.8 -7.7 2.75 -7.75 2.6 -7.75 2.5 -7.75 2.35 -7.7 2.1 -7.7 1.9 -7.7 1.75 -7.65 1.65 -7.6 1.55 -7.6 1.5 -7.5 1.35 -7.5 1.25 -7.5 1.15 -7.45 0.9 -7.4 0.8" fill="#333333" fill-rule="evenodd" stroke="none"/>
    <path d="M-5.7 0.75 L-5.65 0.65 -5.55 0.5 -5.5 0.4 -5.5 0.35 -5.5 0.25 -5.5 0.15 -5.5 0.0 -5.45 -0.1 -5.4 -0.2 -5.35 -0.3 -5.2 -0.3 -5.15 -0.3 -5.05 -0.2 -5.0 -0.15 -5.05 -0.05 -5.1 0.05 -5.1 0.2 -5.1 0.3 -5.1 0.4 -5.1 0.5 -5.1 0.65 -5.15 0.75 -5.2 0.8 -5.25 0.9 -5.35 1.05 -5.4 1.15 -5.45 1.25 -5.45 1.35 -5.5 1.5 -5.5 1.55 -5.5 1.65 -5.55 1.75 -5.55 1.9 -5.55 2.0 -5.55 2.1 -5.6 2.15 -5.8 2.2 -5.85 2.1 -5.9 1.95 -5.9 1.7 -5.9 1.5 -5.95 1.35 -5.9 1.3 -5.85 1.2 -5.85 1.1 -5.8 1.0 -5.75 0.85 -5.7 0.75" fill="#333333" fill-rule="evenodd" stroke="none"/>
    <path d="M-4.35 0.9 L-4.35 1.05 -4.35 1.15 -4.35 1.35 -4.35 1.5 -4.35 1.55 -4.4 1.65 -4.5 1.75 -4.55 1.75 -4.7 1.7 -4.75 1.6 -4.75 1.5 -4.75 1.35 -4.75 1.2 -4.75 1.0 -4.75 0.85 -4.75 0.75 -4.8 0.65 -4.8 0.6 -4.7 0.5 -4.6 0.65 -4.5 0.7 -4.4 0.8 -4.35 0.9" fill="#333333" fill-rule="evenodd" stroke="none"/>
    <path d="M3.7 0.25 L10.95 0.0 12.05 0.0 12.25 0.05 12.3 0.2 12.35 0.3 12.35 0.4 12.35 0.5 12.3 0.65 12.25 0.7 12.05 0.8 3.5 0.65 3.5 0.6 3.55 0.4 3.55 0.35 3.7 0.25" fill="#333333" fill-rule="evenodd" stroke="none"/>
  </g>
</svg>
