<?xml version="1.0" encoding="UTF-8" standalone="no"?>
<svg xmlns:xlink="http://www.w3.org/1999/xlink" height="11.95px" width="3.65px" xmlns="http://www.w3.org/2000/svg">
  <g transform="matrix(1.0, 0.0, 0.0, 1.0, 1.85, 5.95)">
    <path d="M0.25 -5.05 L0.35 -5.0 0.4 -4.9 0.6 -4.75 0.7 -4.6 0.75 -4.55 0.9 -4.45 1.05 -4.4 1.1 -4.35 1.15 -4.25 1.15 -4.2 1.2 -4.1 1.15 -4.05 1.15 -3.95 1.15 -3.9 1.15 -3.8 1.1 -3.75 1.0 -3.7 0.95 -3.6 0.8 -3.55 0.7 -1.15 0.65 0.9 0.7 2.3 0.8 4.65 0.8 4.7 0.85 4.8 0.85 4.85 0.9 5.0 0.9 5.15 0.9 5.35 0.9 5.55 0.9 5.6 0.85 5.65 0.8 5.75 0.7 5.8 0.65 5.9 0.2 5.95 -0.5 6.0 -0.65 5.9 -0.8 5.85 -0.95 5.8 -1.0 5.7 -1.1 5.6 -1.15 5.55 -1.2 5.25 -1.15 4.9 -1.15 4.5 -1.15 4.0 -1.15 3.9 -1.1 3.85 -1.1 3.75 -1.05 3.7 -1.05 3.6 -1.05 3.55 -1.05 3.45 -1.05 3.4 -1.0 3.3 -1.0 3.25 -0.95 3.15 -0.95 2.95 -0.95 2.65 -0.95 2.35 -0.95 1.9 -1.0 1.8 -1.0 1.7 -1.05 1.65 -1.05 1.6 -1.05 1.5 -1.05 0.75 -1.1 -0.3 -1.05 -1.65 -0.95 -1.95 -1.0 -2.0 -1.05 -2.1 -1.1 -2.15 -1.1 -2.25 -1.1 -2.4 -1.1 -2.55 -1.1 -2.7 -1.1 -2.85 -1.05 -2.9 -1.0 -3.0 -1.0 -3.05 -0.95 -3.15 -0.95 -3.2 -0.9 -3.3 -0.9 -3.35 -0.9 -3.45 -0.9 -3.5 -0.95 -3.6 -1.0 -3.65 -1.1 -3.75 -1.1 -3.85 -1.1 -3.95 -1.1 -4.05 -1.1 -4.1 -1.1 -4.2 -1.1 -4.25 -1.05 -4.35 -1.0 -4.4 -0.95 -4.5 -0.85 -4.55 -0.8 -4.65 -0.7 -4.7 -0.65 -4.75 -0.6 -4.8 -0.45 -4.85 -0.4 -4.9 -0.3 -5.0 -0.25 -5.05 -0.2 -5.05 -0.1 -5.1 0.1 -5.1 0.25 -5.05" fill="#6c6960" fill-rule="evenodd" stroke="none"/>
    <path d="M0.15 -5.2 L0.25 -5.2 0.4 -5.2 0.6 -5.15 0.85 -5.05 1.0 -4.95 1.1 -4.8 1.2 -4.7 1.25 -4.6 1.3 -4.5 1.35 -4.4 1.35 -4.2 1.35 -4.15 1.35 -4.05 1.35 -3.75 1.35 -3.45 1.35 -3.4 1.25 -3.2 1.2 -3.1 1.15 -3.0 1.05 -2.9 0.95 -2.85 0.9 -2.8 0.75 -2.8 0.45 -2.7 0.4 -2.65 0.35 -2.55 0.25 -2.45 0.05 -2.35 -0.1 -2.3 -0.25 -2.25 -0.35 -2.25 -0.55 -2.3 -0.65 -2.4 -0.75 -2.5 -0.75 -2.6 -0.75 -2.7 -0.75 -2.8 -0.75 -2.9 -0.75 -2.95 -0.8 -3.05 -0.8 -3.15 -0.8 -3.25 -0.8 -3.35 -0.8 -3.4 -1.0 -3.5 -1.25 -3.55 -1.35 -3.65 -1.4 -3.7 -1.45 -3.8 -1.45 -3.9 -1.45 -4.0 -1.45 -4.1 -1.45 -4.2 -1.45 -4.3 -1.45 -4.35 -1.4 -4.45 -1.3 -4.55 -1.25 -4.65 -1.25 -4.75 -1.15 -4.85 -1.0 -4.9 -0.85 -4.95 -0.5 -4.95 -0.3 -5.05 -0.15 -5.15 0.0 -5.2 0.15 -5.2" fill="#663333" fill-opacity="0.2" fill-rule="evenodd" stroke="none"/>
    <path d="M0.65 -4.9 L0.8 -4.85 0.85 -4.75 0.9 -4.65 0.85 -4.55 0.8 -4.45 0.75 -4.4 0.9 -0.8 0.95 2.95 0.9 5.1 0.85 5.2 0.8 5.3 0.7 5.35 0.5 5.45 0.25 5.35 0.15 5.3 0.1 5.2 0.05 1.55 0.1 -2.3 0.2 -4.45 0.25 -4.55 0.35 -4.65 0.4 -4.75 0.5 -4.85 0.65 -4.9" fill="#663333" fill-opacity="0.2" fill-rule="evenodd" stroke="none"/>
    <path d="M0.2 -4.75 L0.3 -4.65 0.45 -4.55 0.65 -4.45 0.75 -4.4 0.8 -4.3 0.85 -4.2 0.95 -4.1 1.05 -4.0 1.1 -3.9 1.15 -3.8 1.15 -3.7 1.15 -3.55 1.15 -3.45 1.15 -3.25 1.1 -3.05 1.1 -2.95 1.15 -2.85 1.15 -2.8 1.2 -2.7 1.2 -2.6 1.25 -2.5 1.3 -2.4 1.35 -2.3 1.35 -2.2 1.35 -2.15 1.35 -2.05 1.4 -1.95 1.45 -1.85 1.5 -1.75 1.6 -1.65 1.6 -1.55 1.6 -1.45 1.6 -1.4 1.6 -1.3 1.6 -1.2 1.6 -1.1 1.6 -1.0 1.5 -0.9 1.45 -0.8 1.35 -0.75 1.3 -0.75 1.15 -0.7 1.0 -0.7 0.75 -0.75 0.65 -0.85 0.65 -0.8 0.6 -0.7 0.6 -0.6 0.6 -0.5 0.6 -0.4 0.55 -0.3 0.5 -0.25 0.4 -0.15 0.3 -0.05 0.15 -0.05 0.0 -0.05 -0.25 -0.1 -0.35 -0.2 -0.45 -0.3 -0.5 -0.4 -0.5 -0.45 -0.45 -0.55 -0.45 -0.65 -0.5 -0.75 -0.55 -0.85 -0.55 -0.95 -0.55 -1.05 -0.55 -1.1 -0.6 -1.2 -0.65 -1.3 -0.7 -1.4 -0.7 -1.5 -0.75 -1.6 -0.75 -1.7 -0.8 -1.75 -0.9 -1.9 -0.95 -1.95 -1.05 -2.05 -1.1 -2.15 -1.15 -2.25 -1.15 -2.35 -1.15 -2.45 -1.2 -2.55 -1.25 -2.65 -1.25 -2.7 -1.25 -2.8 -1.25 -3.0 -1.25 -3.2 -1.25 -3.45 -1.25 -3.75 -1.25 -3.85 -1.25 -3.95 -1.2 -4.05 -1.15 -4.15 -1.15 -4.2 -1.05 -4.3 -1.0 -4.4 -0.95 -4.5 -0.9 -4.6 -0.8 -4.7 -0.75 -4.75 -0.65 -4.8 -0.5 -4.8 -0.25 -4.85 0.0 -4.8 0.2 -4.75" fill="#663333" fill-opacity="0.2" fill-rule="evenodd" stroke="none"/>
    <path d="M0.8 -4.5 L1.0 -4.6 1.2 -4.65 1.35 -4.6 1.55 -4.5 1.7 -4.3 1.75 -3.95 1.8 -2.9 1.8 4.25 1.75 5.7 1.65 5.85 1.45 5.95 1.25 5.95 1.05 5.95 0.9 5.95 0.75 5.9 0.7 5.85 0.65 5.7 0.55 4.25 Q0.25 -0.05 0.7 -4.3 L0.8 -4.5" fill="#333333" fill-rule="evenodd" stroke="none"/>
    <path d="M-1.55 -4.2 L-1.4 -4.3 -1.2 -4.3 -1.1 -4.3 -0.9 -4.2 -0.75 -4.05 -0.6 2.95 -0.55 2.95 -0.55 5.3 -0.7 5.5 -0.85 5.6 -1.0 5.7 -1.15 5.7 -1.35 5.7 -1.5 5.65 -1.65 5.6 -1.8 5.55 Q-1.9 0.75 -1.65 -4.05 L-1.55 -4.2" fill="#333333" fill-rule="evenodd" stroke="none"/>
    <path d="M1.45 -4.95 L1.6 -4.35 1.35 -3.9 Q1.2 -3.55 0.8 -4.25 0.35 -4.95 -0.05 -4.9 -1.05 -4.6 -0.75 -3.75 L-1.55 -3.75 -1.65 -4.0 -1.6 -4.8 Q-0.6 -6.5 0.8 -5.65 1.3 -5.45 1.45 -4.95" fill="#333333" fill-rule="evenodd" stroke="none"/>
  </g>
</svg>
