<?xml version="1.0" encoding="UTF-8" standalone="no"?>
<svg xmlns:xlink="http://www.w3.org/1999/xlink" height="40.3px" width="42.4px" xmlns="http://www.w3.org/2000/svg">
  <g transform="matrix(1.0, 0.0, 0.0, 1.0, 21.2, 20.15)">
    <path d="M17.8 -15.9 L18.4 -16.05 19.6 -15.35 Q20.35 -8.75 20.15 -1.95 L19.75 7.25 19.5 14.25 Q19.5 15.2 19.15 15.95 L17.3 19.3 Q13.9 20.5 9.9 20.0 L-2.1 19.95 -10.25 19.9 Q-12.85 20.35 -15.25 19.15 -17.15 18.2 -18.15 16.4 L-18.15 15.85 Q-16.65 14.95 -15.55 16.35 -9.9 17.8 -4.05 17.25 L5.85 16.95 12.7 16.85 Q14.55 16.55 14.9 14.65 15.25 12.65 16.3 10.9 L16.95 10.1 Q16.75 1.65 16.9 -6.85 L17.15 -15.2 17.25 -15.45 17.8 -15.9" fill="#333333" fill-opacity="0.101960786" fill-rule="evenodd" stroke="none"/>
    <path d="M18.6 -12.75 L19.35 -11.95 20.2 -11.7 Q20.95 -11.55 21.0 -5.1 L21.2 6.15 Q21.35 10.95 20.05 15.15 L19.6 16.3 Q18.1 17.3 16.5 17.95 L12.65 19.1 9.0 19.35 -1.25 19.5 -11.35 18.45 -11.4 17.2 Q-7.7 15.75 -3.75 16.2 L5.1 16.25 5.1 15.85 8.85 15.85 Q15.05 16.45 17.95 10.65 L18.2 -2.35 18.35 -12.2 18.6 -12.75" fill="#333333" fill-opacity="0.101960786" fill-rule="evenodd" stroke="none"/>
    <path d="M-18.5 -17.9 L-18.2 -18.1 -17.9 -18.3 -17.7 -18.45 -17.35 -18.65 -16.95 -18.85 -16.65 -19.05 -16.55 -19.15 15.75 -19.15 16.2 -18.75 16.75 -18.15 17.15 -17.85 17.15 15.2 16.75 15.45 14.75 16.7 14.55 16.9 14.35 17.1 13.9 17.3 13.55 17.45 13.15 17.65 12.85 17.85 12.75 17.95 -14.85 17.95 Q-16.0 17.35 -17.1 16.85 L-19.95 15.25 -19.95 -16.2 -19.25 -17.0 -18.8 -17.55 -18.5 -17.9" fill="#ffcc66" fill-rule="evenodd" stroke="none"/>
    <path d="M-20.35 -4.85 L-20.25 -5.05 -20.1 -5.25 -20.0 -5.45 -19.75 -5.8 -19.7 -6.2 -19.7 -6.75 -19.7 -7.3 -19.65 -7.7 -19.6 -8.05 -19.5 -8.25 -19.45 -8.45 -19.4 -8.65 -19.35 -8.8 -19.25 -9.0 -19.1 -9.2 -18.85 -9.35 -18.55 -9.55 -18.35 -9.8 -18.35 -9.95 -18.45 -10.1 -18.7 -10.45 -19.15 -10.9 -19.45 -11.25 -19.45 -11.45 -19.4 -11.6 -19.35 -11.8 -19.3 -12.0 -19.1 -12.2 -18.8 -12.35 -18.25 -12.45 -18.25 -12.5 -17.8 -12.35 -17.5 -12.2 -17.3 -12.0 -17.1 -11.8 -16.95 -11.6 -16.8 -11.55 -16.5 -11.5 -16.25 -11.5 -15.75 -11.35 -15.45 -11.2 -15.25 -11.0 -15.15 -10.85 -14.9 -10.4 -14.7 -10.05 -14.6 -9.85 -14.55 -9.7 -14.5 -9.5 -14.45 -9.3 -14.3 -9.1 -14.2 -8.95 -14.05 -8.75 -14.0 -8.55 -13.95 -8.35 -13.95 -8.2 -13.8 -8.0 -13.75 -7.8 -13.7 -7.6 -13.6 -7.45 -13.6 -7.25 -13.6 -7.05 -13.6 -6.9 -13.55 -6.7 -13.5 -6.3 -13.5 -6.15 -13.55 -5.95 -13.6 -5.75 -13.7 -5.55 -13.8 -5.35 -13.95 -5.2 -14.2 -5.0 -14.45 -4.85 -14.65 -4.85 -15.5 -4.7 -15.85 -4.5 -15.9 -4.3 -16.0 -4.1 -16.05 -3.95 -16.25 -3.75 -16.5 -3.6 -16.85 -3.35 -17.05 -3.2 -17.25 -3.0 -17.3 -2.8 -17.3 -2.6 -17.3 -2.45 -17.3 -2.25 -17.35 -1.85 -17.45 -1.7 -17.55 -1.5 -17.7 -1.3 -17.85 -1.1 -18.25 -0.95 -18.75 -0.8 -19.3 -0.95 -19.6 -1.15 -19.85 -1.3 -20.0 -1.5 -20.1 -1.7 -20.15 -1.85 -20.15 -2.05 -20.2 -2.25 -20.2 -2.45 -20.2 -2.6 -20.2 -2.8 -20.3 -3.0 -20.45 -3.2 -20.45 -3.35 -20.5 -3.55 -20.5 -3.95 -20.5 -4.3 -20.45 -4.7 -20.35 -4.85" fill="#a6b8bf" fill-rule="evenodd" stroke="none"/>
    <path d="M-9.8 -13.3 L-9.7 -13.1 -9.6 -12.95 -9.55 -12.75 -9.5 -12.55 -9.5 -12.35 -9.5 -12.2 -9.55 -12.0 -9.6 -11.8 -9.6 -11.6 -9.6 -11.45 -9.6 -11.25 -9.65 -11.05 -9.7 -10.7 -9.75 -10.5 -9.9 -10.3 -10.05 -10.1 -10.25 -9.95 -10.5 -9.75 -11.0 -9.6 -11.35 -9.7 -11.5 -9.75 -12.0 -9.85 -12.45 -9.95 -12.7 -10.15 -12.85 -10.35 -12.95 -10.5 -12.95 -10.7 -12.9 -10.85 -12.9 -11.05 -12.85 -11.25 -12.85 -11.45 -12.8 -11.6 -12.7 -11.8 -12.65 -12.0 -12.6 -12.2 -12.55 -12.35 -12.5 -12.55 -12.5 -12.75 -12.5 -12.95 -12.45 -13.1 -12.35 -13.3 -12.25 -13.5 -12.05 -13.7 -11.8 -13.85 -11.25 -13.95 -11.25 -14.0 -10.75 -13.85 -10.4 -13.7 -10.05 -13.5 -9.8 -13.3" fill="#a6b8bf" fill-rule="evenodd" stroke="none"/>
    <path d="M6.55 16.9 L6.7 17.05 6.75 17.25 6.8 17.45 6.9 17.65 6.85 17.8 6.8 18.0 6.75 18.2 6.7 18.4 6.55 18.55 6.45 18.75 6.2 18.95 5.9 19.05 5.5 19.1 5.0 19.15 4.45 19.0 3.5 18.9 2.75 18.95 2.2 19.15 1.9 19.25 1.5 19.3 0.25 19.3 -0.3 19.2 -0.6 19.0 -0.8 18.8 -0.95 18.65 -2.75 18.6 -5.25 18.65 -5.8 18.5 -6.1 18.3 -6.25 18.25 -6.6 18.25 -7.0 18.4 -7.25 18.3 -7.6 18.2 -8.05 18.0 -8.35 17.8 -8.45 17.6 -8.5 17.45 -8.4 17.25 -8.3 17.15 -8.25 17.05 -8.0 17.0 -7.55 17.15 -7.1 17.15 -6.95 16.95 -6.8 16.75 -6.65 16.55 -6.55 16.35 -6.55 16.2 -6.6 16.0 -6.6 15.8 -6.6 15.65 -6.6 15.45 -6.55 15.25 -6.35 15.05 -6.0 14.7 -5.5 14.35 -5.1 14.15 -4.85 14.05 -4.6 14.0 -4.25 13.95 -3.35 14.3 -2.5 14.6 -1.55 14.8 -1.35 14.75 -1.0 14.7 0.0 14.7 0.5 14.8 0.8 15.0 1.0 15.2 1.15 15.4 1.2 15.55 1.25 15.75 1.3 15.95 1.3 16.15 1.3 16.3 1.35 16.45 1.55 16.5 1.95 16.3 3.5 16.15 4.75 16.15 5.25 16.25 5.55 16.35 6.0 16.5 6.4 16.7 6.55 16.9" fill="#a6b8bf" fill-rule="evenodd" stroke="none"/>
    <path d="M14.5 -18.8 L15.0 -18.7 15.3 -18.5 15.5 -18.3 15.65 -18.1 15.7 -17.95 15.75 -17.75 15.8 -17.55 15.8 -17.35 15.8 -17.2 15.75 -17.0 15.7 -16.8 15.65 -16.6 15.5 -16.45 15.35 -16.25 15.1 -15.9 14.8 -15.5 14.5 -15.3 14.0 -15.2 13.65 -15.1 13.25 -14.95 12.95 -14.75 12.5 -14.45 12.35 -14.4 12.0 -14.3 11.65 -14.4 11.25 -14.5 11.0 -14.7 10.8 -14.9 10.7 -15.05 10.65 -15.25 10.55 -15.45 10.5 -15.6 10.25 -16.0 9.6 -16.75 8.95 -17.7 8.7 -17.85 8.7 -18.05 8.8 -18.25 9.15 -18.45 9.5 -18.55 9.9 -18.45 10.2 -18.25 10.5 -18.25 10.7 -18.45 10.95 -18.6 11.5 -18.75 12.5 -18.75 13.0 -18.6 13.8 -18.6 14.15 -18.75 14.5 -18.8" fill="#a6b8bf" fill-rule="evenodd" stroke="none"/>
    <path d="M12.25 -12.7 L12.9 -12.85 13.0 -13.0 13.05 -13.2 13.15 -13.35 13.3 -13.55 13.5 -13.75 13.7 -13.85 13.9 -13.9 14.25 -13.95 14.25 -14.0 14.75 -13.85 15.05 -13.7 15.25 -13.5 15.35 -13.3 15.45 -13.1 15.5 -12.75 15.5 -12.0 15.5 -11.05 15.45 -10.7 15.35 -10.5 15.25 -10.3 15.15 -10.1 14.85 -9.95 14.65 -9.8 14.25 -9.75 13.7 -9.85 13.5 -10.0 13.35 -10.05 13.0 -10.15 12.5 -10.25 12.25 -10.45 12.05 -10.6 11.9 -10.8 11.7 -11.0 11.65 -11.2 11.65 -11.35 11.65 -11.55 11.65 -11.75 11.7 -11.95 11.75 -12.1 11.85 -12.3 12.0 -12.5 12.25 -12.7" fill="#a6b8bf" fill-rule="evenodd" stroke="none"/>
    <path d="M6.0 13.55 L6.2 13.7 6.25 13.75 6.7 13.9 6.95 14.05 7.05 14.25 7.2 14.45 7.25 14.65 7.25 14.8 7.15 15.2 7.05 15.4 7.0 15.55 6.9 15.75 6.8 15.95 6.7 16.15 6.45 16.3 6.0 16.5 5.8 16.65 5.5 16.7 4.25 16.65 3.8 16.5 3.55 16.3 3.45 16.1 3.4 15.95 3.4 15.75 3.45 15.4 3.45 15.2 3.45 15.0 3.45 14.8 3.55 14.65 3.9 14.25 4.05 14.15 4.2 14.05 4.55 13.95 4.75 13.75 5.0 13.55 5.5 13.45 6.0 13.55" fill="#a6b8bf" fill-rule="evenodd" stroke="none"/>
    <path d="M-16.65 -15.1 L-16.35 -14.95 -16.2 -14.85 -15.9 -14.85 -15.65 -14.85 -15.15 -14.7 -14.9 -14.7 -15.0 -14.9 -15.25 -15.1 -15.5 -15.3 -15.65 -15.45 -15.75 -15.65 -15.85 -15.85 -15.9 -16.05 -15.9 -16.2 -15.9 -16.4 -15.9 -16.6 -15.85 -16.8 -15.75 -16.95 -15.6 -17.15 -15.4 -17.35 -15.2 -17.45 -15.0 -17.5 -14.65 -17.55 -14.65 -17.6 -14.15 -17.45 -13.85 -17.3 -13.45 -16.9 -12.95 -16.3 -12.55 -15.8 -12.4 -15.6 -12.3 -15.4 -12.2 -15.2 -12.15 -15.05 -12.1 -14.85 -12.0 -14.65 -11.95 -14.45 -12.0 -14.3 -12.0 -14.1 -12.1 -13.75 -12.2 -13.35 -12.35 -12.95 -12.45 -12.8 -12.55 -12.6 -12.65 -12.4 -12.75 -12.2 -13.05 -12.05 -13.25 -11.9 -13.65 -11.85 -14.25 -11.8 -14.5 -11.65 -14.9 -11.6 -15.4 -11.6 -15.95 -11.7 -16.2 -11.9 -16.4 -12.1 -16.6 -12.3 -16.75 -12.45 -16.85 -12.65 -16.9 -12.85 -17.15 -13.05 -17.3 -13.25 -17.4 -13.4 -17.4 -13.6 -17.4 -13.8 -17.35 -13.95 -17.25 -14.15 -17.15 -14.35 -17.15 -14.55 -17.15 -14.7 -17.0 -14.9 -16.9 -15.0 -16.65 -15.1" fill="#663300" fill-opacity="0.2" fill-rule="evenodd" stroke="none"/>
    <path d="M-16.65 -14.4 L-15.85 -14.25 -15.7 -14.25 -14.9 -14.15 -14.4 -14.05 -14.15 -13.85 -14.05 -13.65 -13.95 -13.5 -13.85 -13.3 -13.85 -13.1 -13.85 -12.75 -13.9 -12.55 -13.9 -12.35 -13.9 -12.15 -13.9 -11.95 -13.95 -11.8 -14.1 -11.6 -14.2 -11.4 -14.35 -11.2 -14.6 -11.05 -14.7 -10.85 -14.75 -10.65 -14.75 -10.45 -14.9 -10.3 -15.05 -10.1 -15.2 -9.9 -15.4 -9.8 -15.55 -9.75 -16.65 -9.65 -17.15 -9.8 -17.45 -9.95 -17.65 -10.15 -17.75 -10.35 -17.85 -10.9 -17.85 -11.1 -17.75 -11.45 -17.7 -12.2 -17.7 -12.8 -17.65 -12.95 -17.6 -13.15 -17.5 -13.35 -17.5 -13.55 -17.45 -13.7 -17.4 -13.9 -17.25 -14.1 -17.1 -14.3 -16.65 -14.4" fill="#663300" fill-opacity="0.2" fill-rule="evenodd" stroke="none"/>
    <path d="M9.35 10.15 L9.6 10.15 10.15 10.3 10.45 10.45 10.75 10.65 10.85 10.85 10.95 11.0 11.05 11.2 11.05 11.4 11.1 11.6 11.1 11.8 11.1 11.95 11.15 12.15 11.25 12.35 11.35 12.5 11.55 12.7 11.65 12.85 11.75 12.9 12.05 13.05 12.35 13.2 12.55 13.4 12.75 13.6 13.6 13.65 14.55 13.65 14.75 13.6 15.1 13.55 15.6 13.55 16.1 13.65 16.5 13.85 16.65 14.05 16.8 14.2 16.85 14.4 16.9 14.6 17.0 14.8 17.0 14.95 17.05 15.15 17.0 15.35 17.0 15.55 16.9 15.7 16.8 15.9 16.65 16.1 16.5 16.3 16.1 16.45 15.6 16.6 15.25 16.75 14.85 16.9 11.75 17.15 Q11.15 17.65 10.35 17.7 L7.75 17.45 4.6 17.55 4.05 17.4 3.8 17.3 3.6 17.25 3.25 17.2 3.05 17.15 2.55 17.05 2.35 16.9 1.35 16.85 0.6 16.9 0.15 17.1 0.0 17.3 -0.2 17.45 -0.65 17.8 -1.25 18.15 -1.65 18.2 -2.15 18.2 -3.15 18.05 -3.4 17.85 -3.5 17.65 -3.6 17.45 -3.65 17.25 -3.65 17.1 -3.65 16.9 -3.55 16.7 -3.45 16.55 -3.25 16.35 -3.0 16.2 -2.65 16.15 -2.15 16.05 -1.7 15.95 -1.5 15.8 -1.35 15.6 -1.2 15.4 -1.0 15.2 -0.85 15.05 -0.5 14.85 -0.15 14.65 1.35 14.45 2.25 14.35 2.25 14.15 2.25 13.95 2.25 13.8 2.25 13.6 2.25 13.2 2.3 13.05 2.35 12.85 2.45 12.65 2.6 12.45 3.0 12.1 3.55 11.55 3.8 11.4 4.0 11.35 4.35 11.3 5.35 11.3 5.85 11.4 6.1 11.45 6.55 11.45 7.25 11.15 8.15 10.65 8.8 10.3 9.0 10.25 9.35 10.2 9.35 10.15" fill="#663300" fill-opacity="0.2" fill-rule="evenodd" stroke="none"/>
    <path d="M13.0 7.05 L13.15 7.2 13.3 7.4 13.4 7.6 13.5 7.8 13.5 7.95 13.55 8.15 13.55 8.35 13.55 8.55 13.55 8.9 13.5 9.65 13.5 10.05 13.4 10.2 13.3 10.4 13.15 10.6 13.0 10.8 12.85 10.95 12.95 11.15 13.05 11.35 13.1 11.5 13.25 11.7 13.25 11.9 13.25 12.1 13.3 12.3 13.3 12.45 13.3 12.65 13.35 12.85 13.35 13.0 13.3 13.2 13.25 13.4 13.15 13.6 13.05 13.8 12.9 13.95 12.65 14.15 12.4 14.3 12.2 14.35 11.85 14.4 10.9 14.55 10.7 14.7 10.5 14.9 10.3 15.1 9.95 15.25 9.75 15.4 9.35 15.45 8.35 15.45 7.85 15.4 7.3 15.3 6.9 15.1 6.6 14.9 6.4 14.7 6.25 14.5 6.1 14.35 6.0 14.15 5.95 13.95 5.9 13.8 5.9 13.6 5.9 13.4 5.9 13.2 5.95 12.85 6.0 12.45 6.05 12.3 6.1 12.1 6.15 11.9 6.25 11.7 6.3 11.55 6.35 11.35 6.55 11.15 6.75 10.95 6.9 10.8 7.25 10.6 7.4 10.4 7.45 10.2 7.45 10.0 7.5 9.85 7.6 9.65 7.75 9.45 8.0 9.3 8.25 9.1 8.25 8.9 8.3 8.7 8.35 8.55 8.4 8.35 8.45 8.15 8.5 7.95 8.55 7.8 8.65 7.6 8.8 7.4 8.9 7.2 9.15 7.05 9.5 6.9 9.75 6.85 10.0 6.8 10.35 6.75 10.35 6.7 10.6 6.7 11.35 6.7 12.1 6.7 12.6 6.85 13.0 7.05" fill="#663300" fill-opacity="0.2" fill-rule="evenodd" stroke="none"/>
    <path d="M-14.15 11.35 L-13.65 11.45 -13.35 11.65 -13.15 11.85 -13.0 12.05 -12.9 12.2 -12.85 12.4 -12.75 12.6 -12.65 12.8 -12.55 12.95 -12.3 13.35 -12.0 13.9 -11.9 14.1 -11.85 14.3 -11.85 14.45 -11.8 14.85 -11.75 15.4 -11.75 15.8 -11.85 15.95 -11.9 16.15 -11.95 16.35 -12.1 16.5 -12.25 16.7 -12.65 16.9 -12.75 17.1 -12.85 17.25 -12.95 17.45 -13.1 17.65 -13.2 17.85 -13.55 18.0 -13.75 18.15 -14.0 18.2 -14.4 18.3 -14.95 18.15 -15.25 17.95 -15.45 17.8 -15.65 17.6 -15.85 17.4 -15.9 17.2 -15.95 17.05 -16.0 16.85 -16.0 16.65 -16.0 16.45 -16.0 16.3 -16.0 16.1 -16.15 16.0 -16.65 15.85 -16.95 15.65 -17.25 15.45 -17.45 15.25 -17.6 15.1 -17.7 14.9 -17.75 14.7 -17.8 14.5 -17.85 14.35 -17.8 14.15 -17.75 13.95 -17.7 13.8 -17.6 13.6 -17.55 13.4 -17.45 13.2 -17.45 13.05 -17.45 12.85 -17.35 12.65 -17.0 12.65 -16.75 12.85 -16.5 13.05 -16.4 13.2 -16.25 13.4 -16.2 13.55 -15.9 13.7 -15.8 13.65 -15.65 13.45 -15.6 13.3 -15.65 13.1 -15.7 12.9 -15.7 12.7 -15.7 12.55 -15.7 12.35 -15.65 12.15 -15.5 11.95 -15.4 11.8 -15.2 11.6 -14.95 11.45 -14.75 11.4 -14.4 11.35 -14.15 11.35" fill="#663300" fill-opacity="0.2" fill-rule="evenodd" stroke="none"/>
    <path d="M-15.7 1.8 L-15.3 2.3 -14.9 2.7 -14.75 2.9 -14.65 3.1 -14.6 3.3 -14.55 3.65 -14.5 3.85 -14.5 4.05 -14.5 4.2 -14.55 4.4 -14.6 4.8 -14.65 4.95 -14.75 5.15 -14.9 5.35 -15.1 5.55 -15.05 5.7 -15.0 5.9 -15.0 6.1 -15.0 6.3 -15.0 6.45 -15.1 6.65 -15.15 6.85 -15.2 7.05 -15.35 7.2 -15.45 7.4 -15.5 7.6 -15.6 7.8 -15.65 7.95 -15.75 8.15 -15.9 8.35 -16.15 8.5 -16.5 8.7 -16.55 8.9 -16.55 9.1 -16.5 9.3 -16.6 9.45 -16.65 9.65 -16.7 9.85 -16.85 10.0 -17.0 10.2 -17.4 10.4 -17.9 10.55 -18.15 10.55 -18.7 10.4 -19.0 10.2 -19.2 10.05 -19.4 9.85 -19.6 9.65 -19.65 9.45 -19.7 9.3 -19.75 9.1 -19.75 8.7 -19.75 8.55 -19.75 8.35 -19.75 8.15 -19.75 7.95 -19.75 7.6 -19.7 7.4 -19.65 7.2 -19.7 6.3 -19.7 5.35 -19.75 4.05 -19.65 2.55 -19.7 2.4 -19.95 2.15 -20.15 1.95 -20.25 1.75 -20.35 1.6 -20.35 1.4 -20.3 1.2 -20.25 1.05 -20.15 0.85 -19.95 0.65 -19.7 0.55 -19.4 0.5 -18.9 0.45 -18.9 0.4 -18.55 0.5 -18.4 0.55 -18.15 0.55 -17.65 0.55 -17.15 0.65 -16.75 0.85 -16.1 1.4 -15.7 1.8" fill="#663300" fill-opacity="0.2" fill-rule="evenodd" stroke="none"/>
    <path d="M-13.45 1.05 L-13.2 1.2 -13.1 1.4 -12.95 1.6 -12.9 1.8 -12.9 1.95 -12.85 2.15 -12.7 2.35 -12.65 2.5 -12.5 2.7 -12.5 3.3 -12.45 4.05 -12.45 4.95 -12.45 5.7 -12.4 5.9 -12.35 6.1 -12.35 6.3 -12.4 6.45 -12.45 6.65 -12.6 6.85 -12.85 7.2 -13.1 7.4 -13.35 7.55 -13.55 7.6 -13.9 7.65 -14.45 7.55 -14.85 7.35 -15.0 7.15 -15.15 7.05 -15.2 7.0 -16.15 6.85 -16.7 6.8 -17.1 6.6 -17.25 6.4 -17.4 6.2 -17.5 6.0 -17.6 5.85 -17.65 5.65 -17.65 5.45 -17.65 5.1 -17.6 4.7 -17.6 4.35 -17.6 4.15 -17.45 3.8 -17.3 3.2 -17.25 2.85 -17.0 2.1 -16.9 1.9 -16.85 1.7 -16.8 1.5 -16.75 1.35 -16.65 1.15 -16.5 0.95 -16.25 0.8 -15.95 0.6 -15.4 0.5 -15.4 0.45 -15.15 0.45 -14.65 0.6 -14.3 0.8 -14.1 0.9 -13.9 0.9 -13.45 1.05" fill="#663300" fill-opacity="0.2" fill-rule="evenodd" stroke="none"/>
    <path d="M12.75 -16.4 L13.0 -16.6 13.25 -16.7 13.6 -16.75 13.6 -16.8 13.85 -16.8 14.35 -16.65 14.65 -16.45 15.05 -16.1 15.4 -15.7 15.95 -15.15 16.1 -14.95 16.15 -14.8 16.2 -14.6 16.3 -14.2 16.35 -13.85 16.35 -13.5 16.3 -13.3 16.2 -13.1 16.1 -12.9 16.0 -12.7 15.7 -12.55 15.35 -12.35 15.15 -12.2 14.95 -12.15 14.6 -12.1 14.15 -11.95 14.0 -11.8 13.85 -11.6 13.6 -11.4 13.1 -11.3 12.6 -11.4 12.35 -11.6 12.15 -11.8 12.1 -11.95 12.0 -12.15 11.9 -12.35 11.8 -12.5 11.6 -12.7 11.35 -12.9 11.25 -13.1 11.1 -13.3 11.0 -13.45 10.75 -13.65 10.55 -13.85 10.5 -14.05 10.45 -14.25 10.4 -14.4 10.4 -14.6 10.4 -14.8 10.5 -14.95 10.55 -15.15 10.6 -15.35 10.8 -15.55 11.05 -15.65 11.35 -15.7 11.8 -15.6 11.95 -15.4 12.1 -15.2 12.25 -15.05 12.4 -14.95 12.45 -15.1 12.45 -15.3 12.4 -15.45 12.4 -15.65 12.4 -15.85 12.5 -16.05 12.6 -16.2 12.75 -16.4" fill="#663300" fill-opacity="0.2" fill-rule="evenodd" stroke="none"/>
    <path d="M11.25 -14.45 L11.3 -14.65 11.4 -14.85 11.6 -15.05 11.85 -15.15 12.0 -15.2 12.35 -15.25 12.35 -15.3 12.85 -15.3 13.35 -15.15 13.65 -14.95 13.8 -14.8 13.9 -14.6 14.05 -14.4 14.15 -14.2 14.25 -14.05 14.25 -13.85 14.25 -13.75 14.6 -13.6 15.0 -13.4 15.15 -13.2 15.3 -13.05 15.35 -12.85 15.4 -12.65 15.5 -12.45 15.5 -12.3 15.5 -12.1 15.5 -11.9 15.5 -11.7 15.4 -11.55 15.35 -11.35 15.3 -11.15 15.15 -11.0 15.0 -10.8 15.0 -10.6 14.95 -10.4 14.95 -10.05 14.9 -9.65 14.9 -9.3 14.85 -9.1 14.8 -8.9 14.75 -8.7 14.6 -8.55 14.4 -8.35 14.15 -8.15 14.0 -8.05 13.6 -7.95 13.1 -8.1 12.8 -8.3 12.6 -8.5 12.5 -8.65 12.35 -8.85 12.3 -9.05 12.3 -9.2 12.3 -9.4 12.3 -9.8 12.3 -9.95 12.25 -10.15 12.15 -10.35 12.05 -10.5 11.8 -10.75 11.35 -11.1 Q11.05 -11.3 10.9 -11.65 L10.85 -11.85 10.85 -12.05 10.85 -12.6 10.9 -13.15 11.0 -13.7 11.05 -13.9 11.15 -14.1 11.2 -14.3 11.25 -14.45" fill="#663300" fill-opacity="0.2" fill-rule="evenodd" stroke="none"/>
    <path d="M-1.3 -5.25 L-1.15 -4.85 -0.9 -4.5 -0.55 -4.1 -0.15 -3.7 0.4 -2.95 0.85 -2.25 1.2 -1.85 1.45 -1.5 1.6 -1.1 1.7 -0.75 1.85 -0.35 1.85 0.0 1.85 0.4 1.85 0.65 1.85 0.7 Q5.3 0.9 8.4 2.55 L10.2 3.75 10.45 4.15 10.7 4.5 10.85 4.9 10.95 5.25 11.1 5.65 11.35 6.4 11.6 7.15 11.6 7.5 11.6 7.9 11.6 8.25 11.7 9.0 11.7 10.15 11.6 10.5 11.45 10.9 11.45 11.2 11.85 11.65 12.45 12.0 12.7 12.4 12.85 12.75 13.05 13.15 13.2 13.5 13.2 13.9 13.2 14.25 13.1 14.65 12.85 15.05 12.7 15.4 12.45 15.75 11.85 16.15 11.35 16.4 10.6 16.45 5.1 17.15 -9.9 17.15 -11.05 16.9 -11.55 16.65 -14.8 16.75 -15.15 17.0 -15.9 17.15 -16.9 16.9 -17.4 16.5 -17.75 16.15 -18.0 15.75 -18.15 15.4 -18.2 15.0 -18.3 14.65 -18.55 14.25 -19.0 13.5 -19.15 13.15 -19.25 12.75 -19.3 12.4 -19.3 12.0 -19.3 11.25 -19.3 10.15 -19.3 9.75 -19.15 9.4 -18.9 9.05 -18.55 8.65 -17.8 7.9 -17.4 7.5 -17.3 7.15 -17.25 6.75 -17.2 6.0 -17.15 4.5 -17.1 3.4 -17.05 3.0 -16.9 2.65 -16.65 2.3 -16.25 1.9 -15.8 1.5 -15.15 1.3 -14.4 1.0 -14.15 0.65 -14.15 0.25 -14.15 -0.1 -14.15 -0.5 -14.15 -0.85 -14.15 -1.25 -14.0 -1.6 -13.8 -2.0 -13.5 -2.35 -13.15 -2.75 -12.55 -3.1 -11.4 -3.35 -10.55 -3.6 -10.4 -3.95 -10.15 -4.35 -10.15 -4.75 -10.05 -5.1 -9.8 -5.5 -9.5 -5.85 -9.15 -6.2 -8.3 -7.0 -7.65 -7.25 -6.9 -7.3 -6.9 -7.35 -3.9 -7.35 -2.9 -7.1 -2.15 -6.75 -1.8 -6.35 -1.55 -6.0 -1.4 -5.6 -1.3 -5.25" fill="#333333" fill-opacity="0.101960786" fill-rule="evenodd" stroke="none"/>
    <path d="M3.5 -4.45 L3.95 -4.75 5.1 -4.9 7.95 -5.05 9.1 -5.1 9.6 -5.1 10.1 -5.1 11.2 -4.85 11.85 -4.45 12.35 -4.1 12.6 -3.75 12.95 -3.35 13.2 -3.0 13.45 -2.6 13.7 -2.25 13.85 -1.85 13.95 -1.5 14.1 -1.1 14.3 -0.7 14.45 -0.35 14.55 0.0 14.6 0.4 14.6 0.75 14.6 1.15 14.6 1.5 14.6 1.9 14.7 2.15 15.7 2.65 16.35 3.05 16.85 3.4 17.25 4.15 17.45 4.55 17.6 4.9 17.8 5.3 17.95 5.65 18.05 6.0 18.1 6.4 18.1 6.75 18.35 7.15 18.6 7.5 18.7 7.9 18.85 8.25 18.95 8.65 18.95 9.4 18.95 9.75 19.05 10.85 19.15 12.0 18.95 13.15 18.8 13.5 18.6 13.9 18.35 14.25 18.1 14.65 17.45 15.0 16.85 15.25 16.2 15.5 15.1 16.3 14.6 16.65 13.95 17.0 13.35 17.25 -8.4 17.25 -9.55 17.0 -10.4 17.0 -11.4 17.25 -12.9 17.25 -14.05 17.0 -15.15 16.25 -15.5 15.85 -15.95 15.1 -16.65 14.0 -16.75 13.25 -16.8 12.9 -16.8 12.5 -16.75 12.15 -16.65 11.4 -16.5 11.05 -16.2 10.65 -15.9 10.25 -15.25 9.9 -14.65 9.65 -13.9 9.5 -12.15 9.6 -11.4 9.5 -10.15 9.25 -9.8 8.9 -9.4 8.5 -9.05 8.15 -8.4 7.75 -7.9 7.4 -7.4 7.0 -7.25 6.65 -7.0 6.3 -6.65 5.9 -6.35 5.5 -6.15 5.15 -6.15 4.75 -6.0 4.4 -5.8 4.0 -5.5 3.65 -5.15 3.25 -4.55 2.9 -3.4 2.65 -2.9 2.65 -1.55 2.5 -1.05 2.3 -0.65 2.15 0.35 1.9 1.0 1.55 1.85 1.15 2.2 0.75 2.2 0.0 2.2 -0.35 2.2 -1.1 2.25 -2.25 2.35 -3.0 2.5 -3.35 2.7 -3.75 2.95 -4.1 3.5 -4.45" fill="#333333" fill-opacity="0.101960786" fill-rule="evenodd" stroke="none"/>
    <path d="M-12.9 -8.75 L-11.9 -8.75 -10.9 -8.5 -10.3 -8.1 -9.95 -7.7 -9.65 -7.35 -9.55 -7.0 -9.4 -6.6 -9.3 -6.25 -9.3 -5.85 -9.2 -5.5 -8.95 -5.1 -8.65 -4.75 -8.4 -4.35 -8.3 -4.0 -8.15 -3.6 -8.05 -3.25 -8.05 -2.85 -8.05 -2.5 -8.05 -2.1 -8.05 -1.35 -8.05 -0.25 -8.15 0.15 -8.3 0.5 -8.4 0.9 -8.7 1.25 -9.05 1.65 -9.4 2.0 -9.9 2.4 -10.9 2.65 -11.9 2.6 -13.4 2.45 -14.4 2.25 -14.9 1.9 -15.3 1.5 -15.65 1.1 -16.15 0.4 -16.3 0.0 -16.4 -0.35 -16.4 -0.75 -16.4 -1.1 -16.4 -1.5 -16.3 -2.25 -16.45 -2.6 -16.65 -3.0 -16.8 -3.35 -16.9 -3.75 -16.9 -4.1 -16.9 -4.5 -16.9 -4.85 -16.9 -5.25 -16.75 -5.6 -16.5 -5.95 -15.8 -6.7 Q-15.25 -7.2 -14.85 -7.85 L-14.55 -8.25 -14.05 -8.5 -13.65 -8.55 -12.9 -8.65 -12.9 -8.75" fill="#333333" fill-opacity="0.101960786" fill-rule="evenodd" stroke="none"/>
    <path d="M2.1 14.8 L13.6 14.9 15.1 15.05 15.45 15.2 15.8 15.4 15.9 15.6 16.0 15.8 16.05 15.95 15.95 16.15 15.85 16.35 15.6 16.5 15.3 16.7 15.0 16.85 14.6 16.9 13.6 16.95 Q-2.15 17.35 -17.9 16.45 L-18.25 16.35 -18.4 16.15 -18.5 15.95 -18.6 15.75 -18.65 15.6 -18.55 15.4 -18.45 15.3 -18.4 15.2 -18.15 15.15 -17.9 15.25 -17.85 15.3 -17.15 15.25 -16.15 15.2 Q-8.35 14.85 -0.65 14.8 L2.1 14.8" fill="#333333" fill-opacity="0.101960786" fill-rule="evenodd" stroke="none"/>
    <path d="M16.9 -18.05 L17.05 -17.85 17.15 -17.65 17.6 -6.05 17.7 5.8 17.35 13.45 17.3 13.65 17.15 13.85 17.05 14.05 16.85 14.15 16.6 14.2 16.25 14.1 16.05 13.9 15.9 13.7 15.6 10.15 15.5 6.4 15.6 3.95 15.65 -4.3 15.8 -12.9 Q15.85 -15.35 16.05 -17.8 L16.15 -17.95 16.35 -18.1 16.6 -18.15 16.9 -18.05" fill="#333333" fill-opacity="0.101960786" fill-rule="evenodd" stroke="none"/>
    <path d="M16.4 -18.05 L16.45 -17.85 16.4 -17.65 16.35 -17.45 16.2 -17.3 16.05 -17.1 15.6 -16.95 14.35 -16.95 7.6 -16.8 -4.15 -16.6 -17.15 -16.55 -17.7 -16.65 -18.0 -16.85 -18.2 -17.05 -18.3 -17.25 -18.4 -17.4 -18.45 -17.6 -18.45 -17.8 -18.45 -17.95 -18.45 -18.15 -18.4 -18.35 -18.25 -18.55 -18.15 -18.7 -17.95 -18.9 -17.7 -19.05 -17.5 -19.1 -17.15 -19.15 -10.65 -19.15 0.6 -19.0 11.85 -18.85 15.6 -18.7 16.05 -18.6 16.2 -18.4 16.35 -18.2 16.4 -18.05" fill="#ffff99" fill-opacity="0.2" fill-rule="evenodd" stroke="none"/>
    <path d="M-18.5 -17.1 L-17.85 -17.65 -16.95 -18.05 -14.85 -18.95 -14.6 -19.05 -14.45 -19.1 -14.15 -19.15 -13.15 -19.1 -12.75 -18.95 -12.6 -18.8 -12.45 -18.6 -12.4 -18.4 -12.45 -18.25 -12.5 -18.05 -12.6 -17.85 -12.7 -17.7 -12.85 -17.65 -13.15 -17.6 -14.1 -17.45 -14.55 -17.3 -15.1 -17.1 -15.4 -16.9 -16.1 -16.55 -16.75 -16.15 -16.95 -16.0 -17.8 -15.05 -18.4 -14.1 -18.5 -13.9 -18.75 -13.55 -18.85 -13.35 -18.9 -13.15 -19.0 -12.8 -19.1 -12.4 -19.15 -12.2 -19.15 -12.05 -19.15 -11.85 -19.15 -11.65 -19.15 -11.45 -19.2 -11.3 -19.35 -11.1 -19.35 -10.9 -19.35 -10.7 -19.4 -10.55 -19.55 -10.35 -19.7 -10.15 -20.0 -9.8 -20.35 -9.8 -20.5 -10.0 -20.6 -10.15 -20.75 -10.35 -20.9 -10.55 -20.95 -10.75 -21.0 -10.9 -21.0 -11.1 -21.1 -11.3 -21.15 -11.45 -21.15 -11.65 -21.15 -11.85 -21.15 -12.05 -21.15 -12.4 -21.15 -12.6 -21.1 -12.8 -21.0 -13.15 -20.85 -13.7 -20.6 -14.45 -20.45 -14.65 -20.05 -15.2 -19.4 -16.15 -19.15 -16.55 -18.9 -16.75 -18.5 -17.1" fill="#ffff99" fill-opacity="0.2" fill-rule="evenodd" stroke="none"/>
    <path d="M-18.65 -16.85 L-18.65 -16.65 -18.65 -16.45 -18.55 -16.1 -18.45 -15.75 -18.35 -15.35 -18.25 -15.15 Q-17.75 -9.3 -17.75 -3.35 L-17.6 8.45 Q-17.55 11.8 -17.85 15.05 L-17.9 15.2 -18.0 15.4 -18.1 15.6 -18.35 15.75 -18.5 15.9 -18.9 15.95 -19.4 15.85 -19.65 15.65 -19.85 15.45 -19.9 15.3 -19.95 15.1 -20.0 14.9 -20.1 14.7 -20.1 13.95 -20.15 13.2 -20.1 12.45 -20.15 1.6 -19.85 -9.45 -19.5 -15.3 -19.45 -15.45 -19.35 -15.85 -19.3 -16.05 -19.25 -16.2 -19.2 -16.4 -19.15 -16.6 -19.15 -16.8 -19.1 -16.95 -18.9 -17.05 -18.75 -17.05 -18.65 -16.85" fill="#ffff99" fill-opacity="0.2" fill-rule="evenodd" stroke="none"/>
    <path d="M-0.9 -18.6 L-0.75 -18.25 -0.55 -17.85 -0.4 -17.5 -0.4 -17.1 -0.45 -16.75 -0.55 -16.35 -0.75 -15.95 -0.9 -15.6 -1.3 -15.25 -1.9 -14.85 -2.45 -14.5 -3.15 -14.1 -3.9 -13.75 -4.9 -13.5 -6.9 -13.5 -8.05 -13.75 -8.55 -14.0 -8.9 -13.6 -9.05 -13.25 -9.25 -12.85 -9.45 -12.5 -9.65 -12.1 -9.9 -11.75 -10.15 -11.35 -10.65 -11.0 -11.3 -10.6 -11.8 -10.35 -12.15 -10.3 -15.9 -10.0 -18.55 -10.35 -19.0 -10.75 -19.4 -11.1 -19.8 -11.5 -20.1 -11.9 -20.3 -12.25 -20.4 -12.6 -20.4 -13.0 -20.4 -13.35 -20.4 -14.1 -20.4 -14.85 -20.4 -15.6 -20.3 -16.35 -20.15 -16.7 -19.9 -17.1 -19.55 -17.5 -19.15 -17.85 -18.8 -18.25 -17.9 -18.65 -17.55 -18.85 -17.15 -18.95 -16.4 -19.1 -13.8 -19.35 -13.15 -19.6 -12.4 -19.65 -12.4 -19.75 -8.9 -19.75 -7.9 -19.5 -6.9 -19.25 -6.15 -19.1 -5.55 -19.25 -5.05 -19.5 -4.65 -19.6 -3.9 -19.7 -3.4 -19.7 -2.65 -19.6 -1.9 -19.35 -1.3 -19.0 -0.9 -18.6" fill="#ffff99" fill-opacity="0.2" fill-rule="evenodd" stroke="none"/>
    <path d="M-16.65 -14.9 L-16.4 -14.85 -16.25 -14.8 -16.2 -14.8 -16.05 -14.85 -16.05 -14.95 -15.95 -15.05 -15.9 -15.15 -15.85 -15.25 -15.95 -15.35 -16.05 -15.4 -16.1 -15.5 -16.2 -15.6 -16.3 -15.7 -16.3 -15.8 -16.3 -15.9 -16.3 -16.0 -16.3 -16.1 -16.3 -16.15 -16.2 -16.25 -16.1 -16.35 -16.0 -16.45 -15.75 -16.5 -15.7 -16.5 -15.5 -16.55 -14.95 -16.4 -14.45 -16.3 -13.9 -16.0 -13.8 -15.9 -13.7 -15.85 -13.6 -15.75 -13.45 -15.65 -13.4 -15.55 -13.35 -15.45 -13.3 -15.35 -13.3 -15.25 -13.25 -15.15 -13.25 -15.1 -13.25 -15.0 -13.25 -14.9 -13.25 -14.8 -13.25 -14.7 -13.25 -14.6 -13.3 -14.5 -13.3 -14.4 -13.4 -14.35 -13.45 -14.25 -13.5 -14.15 -13.65 -14.05 -13.75 -13.75 -13.95 -13.5 -14.3 -13.1 -14.9 -12.65 -15.15 -12.6 -16.2 -12.7 -16.55 -12.8 -16.7 -12.9 -16.9 -13.1 -17.1 -13.25 -17.25 -13.45 -17.35 -13.65 -17.35 -13.75 -17.4 -13.85 -17.4 -14.0 -17.4 -14.1 -17.4 -14.2 -17.35 -14.3 -17.35 -14.5 -17.3 -14.6 -17.2 -14.65 -17.1 -14.75 -16.95 -14.85 -16.65 -14.9" fill="#333333" fill-opacity="0.101960786" fill-rule="evenodd" stroke="none"/>
    <path d="M12.4 -16.2 L12.4 -16.3 12.45 -16.4 12.5 -16.5 12.6 -16.6 12.85 -16.65 12.95 -16.75 13.25 -16.8 13.25 -16.85 13.45 -16.8 13.6 -16.8 13.85 -16.75 14.05 -16.65 14.2 -16.45 14.25 -16.35 14.35 -16.15 14.6 -15.9 14.7 -15.8 14.7 -15.7 14.75 -15.6 14.8 -15.5 14.8 -15.35 14.8 -15.15 14.8 -14.75 14.8 -14.5 14.8 -14.3 14.75 -14.2 14.7 -14.1 14.7 -14.0 14.65 -13.9 14.6 -13.75 14.55 -13.55 14.35 -13.3 Q13.85 -12.9 13.25 -12.9 L12.75 -12.9 12.45 -13.0 12.1 -13.15 11.95 -13.2 11.55 -13.35 11.4 -13.4 11.3 -13.5 11.25 -13.6 11.2 -13.7 11.15 -13.8 11.15 -13.9 11.15 -14.0 11.15 -14.05 11.2 -14.15 11.2 -14.25 11.3 -14.35 11.35 -14.45 11.5 -14.55 11.65 -14.6 11.85 -14.65 12.3 -14.75 12.35 -14.8 12.4 -14.9 12.45 -15.0 12.55 -15.1 12.6 -15.15 12.65 -15.25 12.75 -15.35 12.85 -15.45 13.0 -15.55 12.95 -15.65 12.85 -15.75 12.6 -15.85 12.5 -15.9 12.45 -16.0 12.4 -16.1 12.4 -16.2" fill="#333333" fill-opacity="0.101960786" fill-rule="evenodd" stroke="none"/>
    <path d="M-13.95 12.75 L-13.9 12.85 -13.9 12.9 -13.85 13.0 -13.8 13.1 -13.8 13.2 -13.8 13.3 -13.75 13.5 -13.7 13.65 -13.7 13.95 -13.7 14.35 -13.7 14.6 -13.8 14.7 -13.8 14.8 -13.85 14.9 -13.9 15.0 -14.0 15.15 -14.1 15.25 -14.35 15.55 -14.55 15.75 -14.65 15.8 -16.15 15.85 -16.85 15.6 -16.95 15.5 -17.0 15.4 -17.05 15.3 -17.1 15.2 -17.1 15.1 -17.1 15.0 -17.1 14.9 -17.1 14.85 -17.15 14.85 -17.35 14.75 -17.4 14.65 -17.45 14.6 -17.45 14.5 -17.4 14.4 -17.35 14.35 -17.3 14.3 -17.15 14.25 -16.95 14.2 -16.9 14.15 -16.75 14.05 -16.6 14.0 -16.4 13.95 -16.2 13.95 -16.1 13.9 -15.95 13.85 -15.95 13.75 -15.95 13.65 -15.95 13.6 -16.0 13.5 -16.05 13.4 -16.1 13.3 -16.1 13.2 -16.15 13.1 -16.15 13.0 -16.15 12.9 -16.15 12.75 -16.1 12.65 -16.1 12.55 -16.05 12.45 -16.0 12.35 -15.9 12.25 -15.75 12.2 -15.6 12.1 -15.4 12.1 -15.25 12.1 -15.0 12.15 -14.75 12.25 -14.55 12.35 -14.45 12.4 -14.4 12.45 -14.15 12.55 -14.05 12.65 -13.95 12.75" fill="#333333" fill-opacity="0.101960786" fill-rule="evenodd" stroke="none"/>
    <path d="M15.15 12.35 L15.2 12.45 15.2 12.55 15.2 12.75 15.2 13.1 15.2 13.5 15.25 13.55 15.3 13.65 15.3 13.85 15.3 14.35 15.3 14.9 15.3 15.1 15.25 15.15 15.15 15.35 14.85 15.65 14.8 15.7 12.75 15.85 12.6 15.85 12.3 15.8 12.15 15.7 11.95 15.5 11.8 15.25 11.7 15.15 11.6 15.05 11.4 14.85 11.35 14.65 11.35 14.6 11.4 14.5 11.45 14.4 11.45 14.3 11.55 14.2 11.6 14.15 11.75 14.1 11.9 14.2 12.05 14.25 12.2 14.35 12.25 14.3 12.3 14.2 12.4 14.1 12.55 14.0 12.85 13.95 13.3 13.9 13.4 13.9 13.45 13.8 13.45 13.75 13.45 13.65 13.45 13.55 13.45 13.45 13.45 13.35 13.5 13.25 13.55 13.15 13.6 13.1 13.75 13.0 13.95 12.9 13.95 12.8 13.95 12.7 13.95 12.6 13.95 12.5 14.0 12.4 14.05 12.35 14.1 12.25 14.2 12.15 14.3 12.1 14.4 12.05 14.6 12.05 14.6 12.0 14.85 12.1 15.0 12.15 15.1 12.25 15.15 12.35" fill="#333333" fill-opacity="0.101960786" fill-rule="evenodd" stroke="none"/>
    <path d="M12.85 12.15 L12.95 12.25 13.05 12.35 13.2 12.45 13.25 12.55 13.3 12.65 13.35 12.75 13.35 12.9 13.35 13.1 13.35 13.4 13.35 13.5 13.3 13.6 13.25 13.65 13.2 13.75 13.1 13.85 13.0 13.9 12.95 13.95 12.75 13.95 12.35 14.0 12.1 13.9 11.95 13.85 11.85 13.75 11.8 13.65 11.75 13.55 11.75 13.35 11.75 13.15 11.75 13.0 11.8 12.9 11.8 12.8 12.0 12.6 12.1 12.4 12.35 12.15 12.4 12.15 12.6 12.15 12.6 12.1 12.85 12.15" fill="#ffff99" fill-opacity="0.2" fill-rule="evenodd" stroke="none"/>
    <path d="M-15.55 12.2 L-15.45 12.3 -15.4 12.4 -15.35 12.5 -15.35 12.6 -15.35 12.65 -15.4 12.75 -15.4 12.85 -15.4 13.05 -15.4 13.15 -15.45 13.25 -15.5 13.35 -15.7 13.4 -15.95 13.55 -16.0 13.6 -16.05 13.6 -16.25 13.65 -16.65 13.65 -16.9 13.6 -17.05 13.5 -17.1 13.4 -17.15 13.3 -17.15 13.2 -17.15 13.1 -17.15 13.0 -17.1 12.95 -17.05 12.85 -16.95 12.75 -16.85 12.7 -16.7 12.6 -16.7 12.5 -16.65 12.4 -16.55 12.35 -16.45 12.25 -16.4 12.15 -16.3 12.15 -16.15 12.15 -16.15 12.1 -16.0 12.1 -15.75 12.15 -15.55 12.2" fill="#ffff99" fill-opacity="0.2" fill-rule="evenodd" stroke="none"/>
    <path d="M-17.0 -15.8 L-16.75 -15.85 -16.5 -15.9 -16.4 -15.95 -16.25 -15.95 -16.25 -16.0 -16.0 -15.95 -15.75 -15.95 -15.5 -15.9 -15.35 -15.85 -15.2 -15.75 -15.05 -15.65 -15.1 -15.6 -15.15 -15.5 -15.4 -15.5 -15.55 -15.4 -15.55 -15.35 -15.55 -15.25 -15.55 -15.15 -15.55 -15.1 -15.6 -15.0 -15.65 -14.9 -15.7 -14.8 -15.8 -14.75 -15.85 -14.7 -16.0 -14.65 -16.15 -14.7 -16.25 -14.75 -16.5 -14.75 -16.7 -14.85 -16.75 -14.9 -17.0 -14.95 -17.2 -15.0 -17.35 -15.1 -17.4 -15.15 -17.45 -15.25 -17.45 -15.35 -17.45 -15.45 -17.4 -15.55 -17.35 -15.65 -17.2 -15.75 -17.0 -15.8" fill="#ffff99" fill-opacity="0.2" fill-rule="evenodd" stroke="none"/>
    <path d="M12.25 -16.15 L12.5 -16.1 12.6 -16.0 12.7 -15.9 12.75 -15.8 12.8 -15.7 12.9 -15.5 12.95 -15.4 12.9 -15.35 12.85 -15.25 12.85 -15.15 12.85 -15.05 12.8 -14.95 12.75 -14.85 12.7 -14.75 12.55 -14.65 12.35 -14.6 12.15 -14.65 12.1 -14.65 11.8 -14.75 11.65 -14.85 11.6 -14.9 11.55 -15.0 11.5 -15.1 11.45 -15.2 11.4 -15.3 11.3 -15.4 11.3 -15.5 11.3 -15.6 11.3 -15.65 11.3 -15.75 11.35 -15.85 11.45 -15.95 11.55 -16.05 11.65 -16.1 11.85 -16.1 11.85 -16.15 12.25 -16.15" fill="#ffff99" fill-opacity="0.2" fill-rule="evenodd" stroke="none"/>
    <path d="M-2.65 -14.25 Q-2.5 -14.65 -2.25 -14.25 L-2.2 -12.6 -2.15 -11.0 -2.15 -10.1 -2.1 -5.55 Q-2.4 -5.15 -2.75 -5.45 L-2.85 -5.55 -2.85 -6.4 -2.85 -7.25 -2.85 -8.05 -2.85 -8.85 -2.85 -9.7 -2.85 -10.55 -2.8 -11.7 -2.8 -12.7 -2.75 -13.7 -2.65 -14.25" fill="#333333" fill-rule="evenodd" stroke="none"/>
    <path d="M0.0 -14.45 L0.0 -14.35 0.0 -14.05 0.0 -13.2 0.05 -5.7 -0.3 -5.45 -0.5 -5.65 -0.6 -6.4 -0.65 -7.25 -0.65 -8.05 -0.6 -8.85 -0.6 -9.7 -0.6 -10.5 -0.6 -11.3 -0.6 -12.2 -0.6 -13.05 -0.5 -14.15 Q-0.35 -14.65 0.0 -14.45" fill="#333333" fill-rule="evenodd" stroke="none"/>
    <path d="M0.2 -5.7 Q0.35 -5.25 -0.1 -5.25 L-0.55 -5.2 -2.35 -5.35 -2.55 -5.25 -2.55 -5.2 -2.65 -5.2 -2.85 -5.25 -2.95 -5.45 -2.75 -5.95 -1.65 -5.9 -1.0 -6.0 0.15 -5.75 0.2 -5.7" fill="#333333" fill-rule="evenodd" stroke="none"/>
    <path d="M-1.15 -14.5 L-1.05 -14.3 Q-1.1 -13.85 -1.6 -13.5 L-0.9 -13.45 -0.85 -13.05 Q-0.8 -12.85 -0.9 -12.7 L-1.0 -12.65 -0.65 -12.1 -0.8 -11.85 -1.05 -11.45 -1.6 -11.0 -1.0 -11.15 Q-0.5 -11.45 -0.35 -10.85 L-1.5 -9.85 -0.45 -10.1 -0.2 -9.95 -0.05 -9.75 -0.1 -9.55 Q-0.65 -8.8 -1.3 -8.35 L-0.5 -8.5 -0.2 -8.3 -0.15 -8.05 Q-0.15 -7.85 -0.3 -7.8 L-1.15 -7.15 -0.45 -7.3 -0.15 -7.1 -0.05 -6.85 Q-0.15 -6.3 -0.75 -5.95 L-1.8 -5.75 -1.95 -5.95 -1.95 -6.05 -2.0 -6.2 -2.1 -6.25 Q-2.4 -6.35 -2.5 -6.55 L-2.45 -6.95 -2.2 -7.5 -2.45 -8.0 Q-2.35 -8.6 -1.95 -8.85 -2.35 -8.8 -2.55 -9.15 L-2.6 -9.35 -2.5 -9.85 -2.9 -10.2 -2.9 -10.5 -2.65 -11.55 -2.6 -11.85 -2.55 -11.95 -2.05 -12.5 -2.25 -12.5 Q-2.6 -12.4 -2.75 -12.85 L-2.65 -13.2 -2.35 -13.6 -2.3 -13.65 -2.8 -13.95 -2.6 -14.35 -2.3 -14.8 -2.15 -14.8 -2.05 -14.7 -1.95 -14.6 -1.9 -14.4 -1.15 -14.5" fill="#333333" fill-rule="evenodd" stroke="none"/>
    <path d="M0.45 -14.8 L0.1 -14.15 -0.6 -13.35 -1.0 -12.95 -1.5 -12.35 -2.1 -11.75 -2.65 -11.2 -3.25 -10.6 -4.2 -9.65 -4.7 -9.35 -4.9 -9.25 -4.9 -9.35 -5.0 -9.35 -5.1 -9.45 -5.15 -9.6 -5.1 -9.65 -4.6 -10.25 -3.45 -11.4 -2.85 -12.0 -2.25 -12.5 -1.65 -13.1 -1.05 -13.7 -0.8 -13.95 0.25 -15.0 0.45 -14.8" fill="#333333" fill-rule="evenodd" stroke="none"/>
    <path d="M-4.85 -9.0 L-6.35 -10.4 -6.3 -10.45 -6.75 -10.9 -6.9 -11.05 Q-6.75 -11.5 -6.3 -11.25 L-5.2 -10.15 -4.55 -9.6 -4.45 -9.4 -4.85 -9.0" fill="#333333" fill-rule="evenodd" stroke="none"/>
    <path d="M-0.15 -15.2 L-0.15 -14.9 -0.6 -14.55 -0.7 -14.55 -0.85 -13.9 -0.9 -13.85 Q-1.25 -13.6 -1.65 -13.7 L-2.35 -13.9 -1.5 -13.35 Q-1.35 -13.1 -1.55 -12.8 L-1.65 -12.8 -3.1 -12.95 -2.1 -12.35 -2.0 -12.05 -2.1 -11.75 -2.15 -11.7 -4.0 -11.75 -3.3 -11.25 -3.2 -10.95 -3.35 -10.6 -3.65 -10.6 -4.75 -10.8 -4.1 -10.35 -4.05 -10.0 -4.1 -9.75 -4.45 -9.6 -5.75 -9.9 Q-6.1 -9.95 -6.25 -10.2 L-6.25 -10.3 -6.25 -10.6 -6.1 -10.75 -6.25 -11.4 -6.15 -11.5 -5.85 -11.8 -5.3 -11.85 -5.15 -12.4 -4.15 -12.6 -4.4 -13.15 -4.3 -13.25 -4.0 -13.55 -2.05 -15.3 -1.65 -15.3 -2.0 -15.65 Q-1.75 -16.4 -1.2 -16.25 -0.8 -16.25 -0.6 -15.85 -0.25 -15.5 -0.6 -15.65 L-0.2 -15.35 -0.15 -15.2" fill="#333333" fill-rule="evenodd" stroke="none"/>
    <path d="M-2.85 -14.75 L-3.2 -14.4 -2.1 -13.3 -1.75 -12.95 -1.25 -12.35 -0.65 -11.75 -0.1 -11.2 0.5 -10.6 1.1 -9.9 Q1.45 -9.45 1.85 -9.25 L2.3 -9.3 2.3 -9.6 1.85 -10.25 1.25 -10.85 0.7 -11.4 0.1 -12.0 -0.5 -12.5 -1.1 -13.1 -1.95 -13.95 -2.85 -14.75" fill="#333333" fill-rule="evenodd" stroke="none"/>
    <path d="M1.7 -9.3 L2.2 -9.0 3.3 -10.0 3.55 -10.45 Q3.65 -10.75 4.05 -10.75 L4.05 -10.95 4.0 -11.2 3.85 -11.35 1.7 -9.3" fill="#333333" fill-rule="evenodd" stroke="none"/>
    <path d="M-2.25 -14.55 L-2.2 -14.5 -2.1 -14.5 Q-1.55 -14.55 -1.9 -14.2 L-1.85 -13.95 -1.85 -13.85 -1.5 -13.7 -1.35 -13.65 -1.25 -13.65 -1.05 -13.65 -0.75 -13.85 -0.6 -13.8 -0.55 -13.85 -0.35 -13.85 -0.9 -13.5 Q-1.4 -13.3 -1.25 -12.95 L-1.15 -12.75 -1.0 -12.7 0.25 -12.85 0.4 -12.9 0.1 -12.6 -0.35 -12.45 -0.6 -12.3 -0.7 -11.9 -0.7 -11.8 -0.65 -11.75 -0.6 -11.7 -0.5 -11.6 Q-0.1 -11.4 0.5 -11.6 L1.3 -11.7 0.6 -11.2 0.55 -10.75 0.55 -10.65 0.6 -10.6 0.65 -10.55 0.75 -10.55 1.8 -10.7 2.05 -10.75 1.4 -10.3 Q1.2 -10.1 1.3 -9.8 L1.35 -9.75 1.4 -9.7 1.5 -9.6 2.85 -9.85 3.35 -9.95 3.55 -10.25 3.5 -10.6 3.45 -10.65 3.4 -10.7 3.45 -11.05 3.55 -11.25 3.55 -11.35 3.2 -11.7 2.85 -11.85 2.6 -11.8 2.45 -12.35 2.05 -12.55 1.45 -12.55 1.6 -12.7 1.7 -13.0 1.75 -13.15 1.75 -13.25 1.55 -13.55 1.4 -13.6 1.35 -13.65 1.2 -13.7 1.1 -13.7 1.1 -14.0 1.05 -14.15 0.5 -14.8 0.3 -14.8 Q0.05 -14.65 0.0 -15.0 L0.0 -15.1 -0.1 -15.2 -0.35 -15.25 -0.65 -15.25 -1.05 -15.25 -0.7 -15.7 -0.7 -15.9 -0.75 -16.05 -1.25 -16.25 -1.35 -16.25 -1.55 -16.25 -2.6 -15.0 -2.3 -14.6 -2.25 -14.55" fill="#333333" fill-rule="evenodd" stroke="none"/>
    <path d="M-1.05 -16.2 L-1.65 -15.4 -2.4 -14.55 -3.0 -13.95 -3.95 -13.0 -4.8 -12.15 -5.4 -11.45 -6.2 -10.75 -6.4 -10.65 -6.8 -11.15 -4.45 -13.6 -3.6 -14.45 -2.65 -15.3 -2.0 -15.95 -1.4 -16.45 -1.3 -16.45 -1.05 -16.3 -1.05 -16.2" fill="#333333" fill-rule="evenodd" stroke="none"/>
    <path d="M-1.45 -16.45 L-1.85 -16.15 3.5 -10.7 Q4.0 -10.6 4.05 -11.05 L4.0 -11.2 3.45 -11.85 2.3 -13.0 -0.05 -15.35 -1.45 -16.45" fill="#333333" fill-rule="evenodd" stroke="none"/>
    <path d="M14.95 -19.45 Q16.65 -18.75 17.55 -17.2 18.25 -16.05 18.3 -14.45 L18.45 -10.9 18.55 -7.75 18.55 -4.7 18.55 -1.75 18.55 1.25 18.5 4.3 18.5 7.35 18.5 10.4 Q18.55 12.35 17.95 14.15 17.2 16.2 15.45 17.25 13.8 18.35 11.75 18.2 L8.5 18.3 6.3 18.35 3.95 18.35 1.2 18.35 -1.7 18.35 -4.15 18.25 -7.8 18.15 -10.5 18.2 -14.3 18.5 Q-16.0 18.4 -17.45 17.7 -19.5 16.8 -20.45 15.05 -21.05 13.85 -21.1 12.55 L-21.15 9.7 -21.15 7.6 -21.15 4.65 -21.1 1.65 -21.1 -1.35 -21.2 -4.4 -21.2 -7.35 -21.15 -10.35 -21.2 -13.35 Q-21.2 -14.7 -20.7 -15.9 -19.9 -17.9 -18.2 -19.05 -16.6 -20.1 -14.5 -19.85 L-11.25 -20.05 -8.95 -20.05 -5.35 -20.1 -2.4 -20.05 1.4 -19.95 5.05 -19.9 7.85 -19.9 11.6 -20.15 Q13.4 -20.15 14.95 -19.45 M15.85 -16.65 Q14.6 -18.1 12.6 -18.5 L11.45 -18.45 8.15 -18.5 4.85 -18.6 0.9 -18.45 -1.35 -18.3 -4.95 -18.35 -8.55 -18.35 -12.15 -18.5 -15.15 -18.55 Q-16.95 -18.3 -18.15 -17.05 -19.55 -15.5 -19.65 -13.5 L-19.65 -9.55 -19.55 -5.95 -19.6 -2.95 -19.65 -0.05 -19.75 2.95 -19.75 5.85 -19.75 8.85 -19.7 12.5 -19.65 12.8 Q-19.25 14.65 -17.6 15.85 -15.95 17.0 -14.2 16.65 L-10.9 16.8 -7.6 16.85 -3.65 16.7 -1.3 16.65 2.3 16.65 5.95 16.8 9.55 16.85 12.85 16.7 Q14.65 16.35 15.8 14.6 17.0 12.85 16.9 10.9 L16.9 8.35 17.0 4.95 16.95 1.65 16.9 -1.35 16.9 -4.25 16.95 -7.25 17.0 -10.8 16.85 -14.1 Q16.7 -15.6 15.85 -16.65" fill="#333333" fill-rule="evenodd" stroke="none"/>
    <path d="M-16.5 -16.2 L-16.3 -16.6 Q-14.9 -17.05 -14.05 -15.75 L-14.2 -14.4 -15.25 -13.75 Q-16.55 -13.2 -17.3 -14.15 L-17.4 -14.4 Q-17.55 -15.15 -17.1 -15.65 L-17.05 -15.7 Q-16.1 -15.7 -16.75 -15.1 L-16.7 -14.9 Q-16.35 -14.25 -15.45 -14.7 -15.0 -14.85 -15.1 -15.15 -15.2 -15.6 -15.9 -15.75 -16.4 -15.65 -16.5 -16.2" fill="#333333" fill-rule="evenodd" stroke="none"/>
    <path d="M12.0 -16.2 L12.2 -16.6 Q13.6 -17.05 14.45 -15.75 L14.3 -14.4 13.25 -13.75 Q11.95 -13.2 11.2 -14.15 L11.1 -14.4 Q10.95 -15.15 11.4 -15.65 L11.45 -15.7 Q12.4 -15.7 11.75 -15.1 L11.8 -14.9 Q12.15 -14.25 13.05 -14.7 13.5 -14.85 13.4 -15.15 13.3 -15.6 12.6 -15.75 12.1 -15.65 12.0 -16.2" fill="#333333" fill-rule="evenodd" stroke="none"/>
    <path d="M-16.75 12.3 L-16.55 11.9 Q-15.15 11.45 -14.3 12.75 L-14.45 14.1 -15.5 14.75 Q-16.8 15.3 -17.55 14.35 L-17.65 14.1 Q-17.8 13.35 -17.35 12.85 L-17.3 12.8 Q-16.35 12.8 -17.0 13.4 L-16.95 13.6 Q-16.6 14.25 -15.7 13.8 -15.25 13.65 -15.35 13.35 -15.45 12.9 -16.15 12.75 -16.65 12.85 -16.75 12.3" fill="#333333" fill-rule="evenodd" stroke="none"/>
    <path d="M12.25 12.3 Q12.3 11.95 12.45 11.9 13.85 11.45 14.7 12.75 L14.55 14.1 13.5 14.75 Q12.2 15.3 11.45 14.35 L11.35 14.1 Q11.2 13.35 11.65 12.85 L11.7 12.8 Q12.65 12.8 12.0 13.4 L12.05 13.6 Q12.4 14.25 13.3 13.8 13.75 13.65 13.65 13.35 13.55 12.9 12.85 12.75 12.35 12.85 12.25 12.3" fill="#333333" fill-rule="evenodd" stroke="none"/>
    <path d="M15.85 9.35 L16.1 9.35 16.95 9.55 17.8 9.7 18.4 9.9 18.5 10.0 18.55 10.1 18.55 10.15 18.5 10.25 18.45 10.35 18.35 10.4 17.7 10.45 16.75 10.2 16.35 10.1 16.3 10.0 16.05 9.95 15.85 9.85 15.75 9.8 15.6 9.75 15.45 9.7 15.4 9.6 15.35 9.5 15.4 9.45 15.45 9.35 15.6 9.35 15.75 9.3 15.85 9.35" fill="#333333" fill-rule="evenodd" stroke="none"/>
    <path d="M16.45 7.75 L16.5 7.85 16.5 7.95 16.45 8.05 16.4 8.15 16.25 8.2 16.0 8.2 15.85 8.15 15.8 8.15 15.35 8.1 14.85 8.1 14.65 8.0 14.6 7.9 14.55 7.85 14.55 7.75 14.6 7.65 14.65 7.6 14.7 7.55 14.85 7.5 15.35 7.5 15.75 7.5 15.95 7.55 16.25 7.6 16.4 7.65 16.45 7.75" fill="#333333" fill-rule="evenodd" stroke="none"/>
    <path d="M-19.15 9.9 L-19.05 9.8 -18.9 9.75 -18.75 9.7 -18.55 9.75 -18.5 9.85 -18.45 9.95 -18.4 10.05 -18.45 10.15 -18.45 10.25 -18.55 10.35 -18.65 10.45 -18.8 10.6 -19.85 11.1 -20.3 11.35 -20.35 11.35 -20.6 11.4 -20.75 11.45 -20.9 11.35 -20.95 11.3 -20.9 11.2 -20.85 11.1 -20.85 11.0 -20.85 10.9 -20.8 10.85 -20.7 10.75 -20.55 10.65 -20.45 10.55 -20.3 10.45 -19.65 10.15 -19.25 10.0 -19.15 9.9" fill="#333333" fill-rule="evenodd" stroke="none"/>
    <path d="M3.15 5.6 L3.05 5.7 3.0 5.85 3.0 6.05 2.9 6.1 2.85 6.2 2.85 6.3 2.85 6.4 2.85 6.75 2.8 6.85 2.8 6.95 2.75 7.05 2.65 7.15 2.55 7.3 2.5 7.4 2.45 7.5 2.4 7.6 2.35 7.7 2.35 7.75 2.55 7.75 3.1 7.7 3.5 5.4 4.35 5.4 3.95 8.1 3.95 8.15 4.0 8.25 3.95 8.35 3.95 8.45 3.9 8.65 3.9 8.75 3.9 8.9 3.85 8.95 Q3.7 8.9 3.7 9.3 L3.1 13.1 2.65 14.95 2.6 15.05 2.55 15.1 2.55 15.15 2.45 15.15 2.35 15.2 2.1 15.15 2.1 15.2 -2.55 15.15 -4.85 15.15 -4.9 15.15 -5.05 15.2 -5.2 15.15 -5.35 15.1 -5.4 15.0 -5.9 12.85 -6.1 11.65 -6.95 6.85 -7.2 5.4 -4.25 5.4 -4.4 5.5 Q-5.2 5.85 -5.65 6.5 L-5.8 6.8 -5.85 6.9 -5.8 6.9 -5.6 6.8 -5.3 6.65 -4.05 5.4 -1.2 5.4 -2.75 6.5 Q-3.85 7.1 -4.65 8.0 L-4.95 8.3 -5.0 8.4 -5.05 8.6 -5.05 8.7 -5.15 8.75 -4.8 8.85 -4.5 8.75 -2.2 6.6 -0.75 5.4 3.2 5.4 3.15 5.6 M1.45 10.7 L1.35 10.75 0.0 11.4 -1.3 12.05 -2.1 12.65 -2.15 12.65 -2.3 12.7 -2.3 12.75 -2.1 12.75 -0.7 12.1 0.55 11.4 1.35 10.95 1.4 10.9 1.6 10.85 1.85 10.8 1.95 10.75 2.05 10.7 1.45 10.7 M2.35 12.05 L2.4 11.6 1.9 12.05 1.65 12.15 1.6 12.25 1.5 12.3 1.3 12.5 1.1 12.7 1.15 12.7 1.85 12.5 2.3 12.3 Q2.25 12.15 2.35 12.05 M-3.75 9.75 L-3.75 9.85 -3.85 10.0 -3.75 10.0 -3.3 9.65 -3.2 9.55 -3.25 9.55 -3.45 9.65 Q-3.6 9.6 -3.55 9.7 L-3.75 9.75 M-4.15 12.3 L-3.9 12.25 -3.6 12.1 -3.55 12.05 -3.65 12.05 -3.7 12.05 -3.9 12.15 -4.15 12.2 -4.15 12.3 M-3.75 13.8 L-3.8 13.75 -3.85 13.8 -3.9 13.9 -4.0 14.0 -4.05 14.05 -3.65 14.05 -3.65 13.95 -3.7 13.85 -3.75 13.8 M-5.0 13.3 L-4.9 13.65 -4.75 13.45 -4.75 13.4 -4.95 13.3 -5.0 13.3" fill="#333333" fill-rule="evenodd" stroke="none"/>
    <path d="M5.4 2.9 L5.45 3.0 5.5 3.15 5.5 3.2 5.55 3.35 5.55 3.45 5.5 3.6 5.5 3.7 5.45 3.85 5.4 3.95 5.35 4.1 5.25 4.15 5.15 4.3 5.05 4.3 4.85 4.35 -7.95 4.3 -8.05 4.15 -8.15 4.05 -8.25 3.9 -8.3 3.75 -8.3 3.65 -8.35 3.5 -8.35 3.45 -8.35 3.35 -8.35 3.2 -8.3 3.05 -8.25 2.95 -8.2 2.8 -8.1 2.7 -8.0 2.65 -7.95 2.5 -7.9 2.5 -7.8 2.45 -7.6 2.45 -7.6 2.35 -0.6 2.45 4.85 2.45 5.15 2.5 5.3 2.65 5.35 2.75 5.4 2.9" fill="#333333" fill-rule="evenodd" stroke="none"/>
    <path d="M1.85 5.2 L4.0 5.4 4.1 5.4 4.15 5.45 4.25 5.5 4.25 5.6 4.3 5.65 4.25 5.7 4.25 5.8 4.2 5.8 4.1 5.85 4.0 5.8 Q-1.55 6.15 -7.15 5.85 L-7.2 5.8 -7.25 5.75 -7.25 5.45 -7.2 5.4 -7.15 5.35 -7.0 5.35 -1.4 5.2 1.85 5.2" fill="#333333" fill-rule="evenodd" stroke="none"/>
    <path d="M-0.75 6.1 L-1.55 6.8 -2.3 7.2 -2.9 7.55 -2.8 7.55 -1.65 6.95 -1.1 6.6 -0.95 6.5 -0.9 6.45 -0.8 6.45 -0.7 6.45 -0.6 6.45 -0.55 6.5 -0.5 6.55 -0.45 6.6 -0.4 6.6 -0.4 6.75 -0.35 6.8 -0.4 6.85 -0.4 7.0 -0.5 7.1 -0.75 7.3 -0.9 7.35 -0.95 7.4 -1.05 7.5 -1.1 7.55 -1.2 7.6 -1.25 7.65 -1.35 7.65 -1.4 7.65 -1.5 7.65 -3.2 8.6 -4.55 9.15 -4.9 9.25 -5.15 9.2 -5.45 8.95 -5.45 8.8 -5.45 8.7 -5.6 8.65 -5.8 8.6 -5.85 8.55 -5.9 8.5 -5.9 8.45 -5.95 8.45 -5.95 8.35 -5.95 8.25 -5.95 8.15 -5.95 8.1 -5.85 7.95 -5.55 7.7 -5.45 7.55 -5.65 7.5 -5.8 7.5 -5.85 7.45 -5.9 7.4 -5.95 7.35 -5.95 7.05 -5.9 7.0 -5.9 6.9 -5.85 6.85 -5.85 6.8 -5.8 6.8 -5.8 6.75 -5.75 6.7 -5.85 6.7 -5.95 6.65 -6.0 6.65 -6.05 6.6 -6.05 6.55 -6.1 6.5 -6.1 6.2 -6.05 6.15 -6.05 6.05 -6.0 6.0 -5.9 5.9 -5.75 5.75 -5.7 5.7 -5.65 5.65 -5.6 5.6 -5.5 5.6 -5.4 5.6 -5.3 5.6 -5.25 5.65 -5.25 5.7 -5.2 5.75 -5.25 5.8 -5.25 5.85 -5.3 5.85 -5.35 5.9 -5.4 5.95 -5.45 5.95 -5.45 6.0 -5.5 6.05 -5.6 6.15 -4.55 5.85 -4.0 5.55 -3.8 5.45 -3.7 5.4 -3.35 5.3 -3.25 5.3 -3.15 5.3 -3.1 5.35 -3.05 5.35 -3.0 5.4 -3.0 5.45 -2.95 5.45 -2.95 5.75 -3.0 5.8 -3.85 6.2 -4.3 6.5 -4.25 6.5 -2.75 5.8 -2.0 5.5 -1.95 5.45 -1.85 5.45 -1.75 5.5 -1.7 5.55 -1.65 5.55 -1.6 5.6 -1.6 5.7 -1.55 5.7 -1.55 5.85 -1.45 5.8 -1.2 5.7 -1.1 5.7 -1.05 5.7 -0.95 5.75 -0.9 5.75 -0.85 5.8 -0.8 5.85 -0.8 5.9 -0.75 5.9 -0.75 6.1" fill="#333333" fill-rule="evenodd" stroke="none"/>
    <path d="M2.95 5.45 L3.15 5.4 3.25 5.4 3.35 5.4 3.4 5.45 3.5 5.5 3.5 5.55 3.55 5.6 3.55 5.8 3.45 5.9 3.2 6.15 3.1 6.25 3.05 6.3 3.0 6.35 3.1 6.35 3.35 6.3 3.45 6.35 3.5 6.35 3.6 6.4 3.6 6.45 3.65 6.5 3.65 6.75 3.6 6.8 3.6 6.85 3.55 6.9 3.55 6.95 3.35 7.2 3.05 7.6 2.85 7.85 2.85 7.9 2.9 7.95 2.9 8.1 2.85 8.15 2.75 8.25 2.65 8.3 2.65 8.35 2.05 8.35 1.9 8.35 1.85 8.3 1.8 8.25 1.8 8.2 1.75 8.2 1.75 7.95 2.05 7.6 2.55 7.2 2.7 7.05 2.65 7.05 2.45 7.1 1.9 7.2 1.8 7.15 1.75 7.1 1.7 7.05 1.65 7.05 1.65 6.8 2.05 6.4 2.5 6.05 2.7 5.95 2.5 5.95 1.95 5.95 1.95 5.9 1.9 5.85 1.9 5.75 1.95 5.7 2.2 5.65 2.75 5.55 2.8 5.5 2.9 5.5 2.95 5.45" fill="#333333" fill-rule="evenodd" stroke="none"/>
    <path d="M1.1 10.25 L1.35 10.2 2.1 9.95 2.15 9.9 2.2 9.9 2.4 9.9 2.5 9.95 2.55 10.0 2.6 10.0 2.6 10.05 2.65 10.1 2.65 10.15 2.7 10.2 2.75 10.2 2.9 10.35 2.9 10.5 2.95 10.5 2.9 10.55 2.9 10.65 2.85 10.7 2.85 10.75 2.5 11.0 Q2.2 11.25 1.85 11.45 L1.65 11.6 1.85 11.6 2.05 11.5 2.25 11.5 2.3 11.5 2.4 11.5 2.5 11.55 2.6 11.55 2.65 11.6 2.7 11.65 2.75 11.65 2.75 11.7 2.85 11.8 2.85 11.85 2.9 11.95 2.95 12.1 2.95 12.2 2.95 12.25 2.9 12.3 2.9 12.4 2.8 12.45 2.45 12.7 2.2 12.95 2.1 12.95 2.05 13.0 2.0 12.95 1.9 12.95 1.85 12.9 1.8 12.85 1.75 12.8 1.75 12.7 1.75 12.6 1.75 12.5 1.75 12.4 1.7 12.35 0.3 12.75 -0.7 13.1 -0.75 13.05 -0.85 13.05 -0.9 13.0 -0.95 13.0 -1.0 12.95 -1.0 12.85 -1.05 12.8 -1.05 12.7 -1.0 12.65 -1.0 12.55 -0.95 12.5 -0.85 12.4 -0.8 12.35 Q-1.35 12.55 -1.9 12.85 L-3.0 13.3 -3.15 13.3 -3.2 13.25 -3.25 13.2 -3.25 13.15 -3.3 13.15 -3.3 12.85 -3.25 12.85 -3.2 12.75 -3.05 12.65 -1.1 11.4 Q-0.05 10.75 1.1 10.25" fill="#333333" fill-rule="evenodd" stroke="none"/>
    <path d="M0.6 -3.55 L1.15 -3.4 1.3 -3.3 2.0 -2.85 Q2.2 -2.75 2.35 -2.6 L3.3 -1.6 3.75 -1.0 4.1 -0.3 4.2 0.2 4.4 1.25 3.15 1.25 3.0 0.3 2.5 -0.8 2.3 -1.1 Q1.1 -2.25 -0.7 -2.6 L-1.05 -2.65 -1.55 -2.65 -1.95 -2.6 Q-3.8 -2.25 -5.0 -1.1 L-5.2 -0.8 -5.65 0.3 -5.8 1.25 -7.1 1.25 -6.85 0.2 -6.75 -0.3 -6.45 -1.0 -5.95 -1.6 -5.05 -2.6 -4.65 -2.85 -3.95 -3.3 -3.8 -3.4 -3.6 -3.45 -3.3 -3.55 -1.8 -3.9 -1.65 -3.9 -1.45 -3.95 -1.35 -3.95 -1.25 -3.95 -0.9 -3.9 0.4 -3.6 0.6 -3.55" fill="#333333" fill-rule="evenodd" stroke="none"/>
  </g>
</svg>
