<?xml version="1.0" encoding="UTF-8" standalone="no"?>
<svg xmlns:xlink="http://www.w3.org/1999/xlink" height="83.15px" width="47.0px" xmlns="http://www.w3.org/2000/svg">
  <g transform="matrix(1.0, 0.0, 0.0, 1.0, 1.0, 1.65)">
    <path d="M21.5 9.5 L23.2 6.6 23.6 3.95 21.8 0.8 18.95 -0.3 17.65 -0.65 Q16.0 0.25 15.2 0.7 L14.3 1.4 13.8 5.2 14.75 8.0 17.05 10.0 Q15.1 10.45 13.25 11.2 11.4 12.0 9.75 13.2 L7.4 15.05 6.5 15.9 4.0 18.9 Q2.8 20.5 1.95 22.25 L0.85 24.9 Q0.55 25.85 0.5 26.75 L0.8 29.5 2.0 33.0 M40.0 28.95 L35.9 28.8 32.9 28.8 28.95 29.0 24.95 29.25 20.95 29.6 16.9 30.1 13.85 30.5 11.65 30.85 7.8 31.65 Q5.9 32.1 4.15 32.85 2.4 33.6 1.55 34.05 L0.0 35.5 0.85 39.4 1.75 43.3 2.75 47.25 3.75 51.2 4.5 54.2 5.75 58.75 6.8 62.55 7.9 66.4 9.0 70.2 10.1 73.95 10.95 76.8 12.0 80.1 16.1 80.35 19.2 80.45 22.25 80.5 26.3 80.2 30.35 79.75 33.4 79.3 34.9 79.05 38.8 78.1 41.75 77.35 45.0 76.0 44.5 76.0 44.5 72.0 44.5 68.0 44.5 64.0 44.5 60.0 44.5 56.0 44.5 52.0 44.5 48.0 44.5 44.0 44.5 40.0 44.5 37.0 44.5 33.5 44.9 31.4 44.65 29.3 41.65 29.0 40.5 28.95 40.2 25.0 39.8 22.05 38.25 17.3 35.7 14.3 Q34.3 12.9 32.6 11.95 L30.0 10.65 26.5 9.5 23.5 9.5 22.0 9.5" fill="none" stroke="#ffffff" stroke-linecap="round" stroke-linejoin="round" stroke-width="2.0"/>
  </g>
</svg>
