<?xml version="1.0" encoding="UTF-8" standalone="no"?>
<svg xmlns:xlink="http://www.w3.org/1999/xlink" height="20.9px" width="23.55px" xmlns="http://www.w3.org/2000/svg">
  <g transform="matrix(1.0, 0.0, 0.0, 1.0, 12.0, 10.8)">
    <path d="M9.95 -4.35 L10.05 -3.8 Q10.75 -3.0 11.05 -2.0 L11.15 -0.7 11.0 -0.05 4.1 4.5 4.15 6.85 1.75 7.95 Q-2.4 6.5 -5.65 3.1 -6.5 2.2 -7.7 1.6 L-8.45 0.3 Q-9.8 0.05 -10.8 -0.65 -12.0 -1.6 -12.0 -3.05 -7.1 -7.9 -0.45 -10.8 L0.6 -10.6 1.1 -10.05 Q7.5 -10.0 9.95 -4.35" fill="#ab98a0" fill-rule="evenodd" stroke="none"/>
    <path d="M6.15 -6.3 Q8.2 -6.0 8.45 -3.8 L8.5 -2.55 8.0 -1.55 Q6.1 0.25 3.85 1.6 L2.45 2.25 1.7 2.85 -0.85 4.3 -1.65 3.95 Q-2.6 2.35 -3.8 0.85 -4.7 -0.2 -4.35 -1.5 L-5.0 -4.05 -3.65 -5.85 -1.4 -7.05 -0.9 -6.9 -0.25 -6.35 0.25 -5.85 0.7 -5.3 1.6 -4.95 6.15 -6.3" fill="#663333" fill-opacity="0.2" fill-rule="evenodd" stroke="none"/>
    <path d="M6.3 -8.35 L6.55 -7.7 6.2 -5.95 5.75 -5.0 3.1 -0.4 3.1 0.05 4.45 3.2 1.55 7.95 Q1.6 8.85 0.8 9.5 L-1.85 9.6 Q-2.5 8.65 -2.3 7.6 -2.1 6.7 -1.5 5.9 L0.35 3.35 0.55 2.7 Q-1.0 2.65 -1.8 1.5 -2.8 0.15 -3.35 -1.5 L-2.6 -4.45 -1.15 -6.9 -0.2 -8.05 -0.35 -9.1 0.15 -9.7 1.3 -9.75 1.9 -9.7 3.2 -9.65 Q4.05 -9.6 4.55 -9.05 5.7 -9.15 6.3 -8.35" fill="#663333" fill-opacity="0.2" fill-rule="evenodd" stroke="none"/>
    <path d="M-10.6 -3.75 L-9.65 -3.75 -7.0 -0.3 -5.8 0.9 Q-4.9 1.55 -5.15 2.7 L-5.25 2.8 -6.9 2.9 -7.0 3.1 Q-7.25 4.0 -8.05 3.85 L-11.85 -2.2 -11.85 -2.45 Q-11.7 -3.6 -10.6 -3.75" fill="#ffff99" fill-opacity="0.2" fill-rule="evenodd" stroke="none"/>
    <path d="M-0.75 -9.35 L-0.1 -9.0 Q-0.4 -8.4 -0.85 -8.0 L-1.3 -7.5 -2.6 -6.35 Q-3.9 -5.15 -5.2 -4.2 L-5.85 -3.7 -4.8 1.65 -2.45 3.5 -2.35 5.05 -1.95 5.65 -2.05 7.45 -3.1 7.85 -3.95 7.3 Q-4.45 6.6 -4.3 5.6 L-4.3 5.5 -4.4 5.35 -4.55 4.1 -6.4 2.9 -7.1 3.15 -7.85 2.95 -8.35 1.95 Q-8.75 1.15 -9.65 0.75 L-10.15 0.2 -10.65 -0.4 Q-11.3 -1.4 -11.2 -2.5 L-0.75 -9.35" fill="#ffff99" fill-opacity="0.2" fill-rule="evenodd" stroke="none"/>
    <path d="M9.15 -6.3 L10.45 -4.0 Q12.25 -2.05 11.15 0.25 10.6 1.35 9.45 2.05 6.55 3.7 4.5 5.9 L4.1 6.05 3.25 5.7 3.35 4.1 8.7 0.05 Q9.65 -0.75 9.65 -2.0 L7.0 -6.05 5.85 -6.0 1.95 -6.8 1.55 -7.65 2.0 -8.4 5.4 -8.5 5.9 -8.35 Q6.9 -8.95 8.05 -8.9 L8.2 -8.75 8.35 -8.65 8.65 -7.75 8.6 -7.65 Q8.8 -6.95 9.15 -6.3" fill="#ffff99" fill-opacity="0.2" fill-rule="evenodd" stroke="none"/>
    <path d="M8.9 -7.8 L9.35 -7.25 9.8 -6.8 10.8 -5.45 11.05 -5.05 11.25 -3.9 11.45 -2.4 11.5 -1.6 11.45 -1.55 10.2 1.15 9.35 1.9 8.1 2.65 7.3 3.0 Q6.1 3.45 5.3 4.25 L4.35 5.45 3.4 6.85 2.45 8.15 1.45 9.35 0.9 9.95 -0.3 9.9 -2.6 6.5 -3.6 6.75 Q-4.75 6.3 -5.15 5.35 L-5.55 4.7 -5.95 4.1 -6.35 3.4 Q-7.95 2.95 -9.25 1.75 L-9.65 1.3 -10.05 0.75 -11.05 -0.8 -11.9 -2.35 -11.6 -3.75 -9.85 -4.95 -9.35 -5.3 -8.75 -5.7 -7.7 -6.55 Q-6.95 -7.25 -5.75 -7.65 -4.8 -7.95 -3.9 -8.45 L-2.95 -8.95 Q-2.65 -9.9 -1.75 -10.15 L-1.4 -10.2 -1.0 -10.35 2.2 -8.75 7.7 -9.0 8.9 -7.8 M7.4 -7.95 L2.1 -7.55 -0.3 -9.35 -1.25 -9.0 -2.55 -7.85 Q-3.3 -7.4 -4.15 -7.2 L-4.65 -7.0 -5.15 -6.8 -5.8 -6.6 -7.15 -5.9 -8.45 -5.1 -9.7 -4.2 -10.85 -3.15 -7.4 2.1 -4.95 2.7 -4.05 3.9 -3.25 5.0 -2.75 5.55 -2.25 5.9 -2.3 5.85 -2.35 5.7 -2.4 5.5 -2.3 5.3 -1.85 4.7 -1.35 4.0 -0.95 3.45 -0.65 3.1 -0.7 3.1 -0.4 3.0 -0.05 2.9 0.45 2.8 -0.9 -0.25 -0.65 -0.5 -0.3 -0.55 0.05 -0.65 2.25 2.85 -0.2 6.95 0.75 8.4 1.5 7.65 1.75 7.4 1.8 7.25 2.05 6.65 2.1 6.35 2.85 5.2 3.45 4.15 3.75 3.65 3.75 3.55 4.05 3.2 4.2 2.95 4.45 2.65 4.5 2.45 4.6 2.35 4.85 2.15 4.8 2.1 5.05 1.95 5.4 1.85 5.75 1.85 6.05 1.9 6.35 1.9 6.6 1.95 6.85 2.0 7.15 1.85 7.2 1.65 7.45 1.35 7.55 1.05 7.9 0.7 8.25 0.35 8.45 0.2 8.85 0.1 9.05 0.1 9.5 0.0 9.8 0.0 10.0 0.1 10.05 0.15 10.05 0.1 10.3 -0.45 10.05 -1.05 10.0 -2.7 9.9 -3.85 9.5 -5.15 8.85 -6.3 7.4 -7.95 M0.85 -2.05 Q0.55 -2.25 0.55 -2.5 L0.85 -2.95 1.5 -3.15 2.2 -2.95 2.45 -2.5 2.2 -2.05 1.5 -1.85 0.85 -2.05 M3.5 -4.45 L2.9 -4.35 2.35 -4.45 2.1 -4.8 2.35 -5.1 2.9 -5.25 3.5 -5.1 3.7 -4.8 3.5 -4.45" fill="#333333" fill-rule="evenodd" stroke="none"/>
  </g>
</svg>
