<?xml version="1.0" encoding="UTF-8" standalone="no"?>
<svg xmlns:xlink="http://www.w3.org/1999/xlink" height="14.0px" width="19.95px" xmlns="http://www.w3.org/2000/svg">
  <g transform="matrix(1.0, 0.0, 0.0, 1.0, 9.8, 6.55)">
    <path d="M-9.65 -2.15 Q-2.15 -6.95 6.65 -4.8 L8.4 0.1 9.65 1.6 Q8.85 3.85 6.9 4.9 L5.4 5.6 2.4 4.1 Q-5.6 6.45 -9.7 -0.3 L-9.65 -2.15" fill="#ab98a0" fill-rule="evenodd" stroke="none"/>
    <path d="M4.4 -1.15 L5.15 -0.9 5.5 -0.5 5.75 -0.15 5.9 0.2 5.85 0.55 5.7 0.95 5.5 1.3 5.3 1.6 5.05 1.7 4.4 1.95 4.0 2.3 3.5 2.7 2.8 3.1 2.4 3.45 2.05 3.85 1.65 4.2 1.15 4.6 0.4 4.85 -0.45 4.6 -0.8 4.2 -1.1 3.85 -1.1 3.45 -1.1 3.1 -1.25 2.75 Q-1.45 2.5 -1.75 2.35 L-2.45 1.95 -2.85 1.6 -3.45 1.2 -4.1 0.85 -4.6 0.6 -5.35 0.35 -5.65 -0.05 -5.85 -0.4 -5.85 -0.8 -5.8 -1.15 -5.7 -1.55 -5.55 -1.9 -5.35 -2.3 -5.05 -2.5 -4.6 -2.65 -3.75 -2.95 -2.95 -3.3 -2.6 -3.55 -2.1 -3.65 -1.2 -3.9 -0.6 -4.1 -0.6 -4.15 -0.1 -4.15 0.65 -3.9 1.4 -3.65 2.15 -3.4 2.5 -3.0 2.8 -2.65 3.4 -2.3 3.65 -1.9 3.8 -1.55 3.95 -1.35 4.4 -1.15" fill="#663333" fill-opacity="0.2" fill-rule="evenodd" stroke="none"/>
    <path d="M3.15 -1.55 L3.3 -1.5 4.05 -1.55 4.9 -1.8 5.4 -1.8 6.15 -1.55 6.65 -1.15 7.0 -0.75 7.4 -0.05 7.55 1.1 7.55 1.85 7.55 2.6 7.5 3.35 7.4 3.7 7.25 4.05 7.0 4.45 6.8 4.7 6.55 4.8 5.9 4.95 5.3 4.85 4.8 4.7 4.55 4.6 2.05 4.15 1.4 3.95 1.05 4.2 -2.6 4.35 -3.45 4.05 -3.75 3.9 -4.45 3.6 -4.8 3.2 -5.1 2.85 -5.1 2.45 -5.2 2.1 -5.45 1.7 -5.45 1.35 -5.45 0.95 -5.45 0.6 -5.3 0.2 -5.1 -0.15 -4.7 -0.4 -3.2 -0.9 -1.6 -1.3 -1.1 -1.55 1.15 -1.95 1.9 -2.15 2.4 -2.0 3.0 -1.75 3.15 -1.55" fill="#663333" fill-opacity="0.2" fill-rule="evenodd" stroke="none"/>
    <path d="M4.55 -5.65 L4.8 -5.45 4.95 -5.25 5.0 -5.05 5.05 -4.9 5.0 -4.7 4.95 -4.5 4.8 -4.3 4.55 -4.15 4.15 -4.0 0.8 -3.9 0.4 -3.75 -0.55 -3.45 -0.8 -3.3 -1.1 -3.25 -3.2 -2.9 -3.55 -2.7 -3.8 -2.55 -4.05 -2.5 -4.8 -2.35 -5.1 -2.25 -5.95 -2.15 -6.3 -1.95 -6.3 -1.4 -6.3 -1.2 -6.3 -1.0 -6.3 0.1 -6.3 0.85 -6.3 1.05 -6.3 1.6 -6.35 2.2 -6.35 2.35 -6.45 2.55 -6.65 2.75 -6.8 2.85 -7.1 2.95 -7.55 2.8 -7.75 2.6 -7.95 2.4 -8.05 2.25 -8.1 2.05 -8.1 1.85 -8.1 1.7 -8.1 1.5 -8.2 1.3 -8.25 1.1 -8.3 0.95 -8.35 0.75 -8.35 0.55 -8.35 0.0 -8.35 -0.2 -8.35 -0.75 -8.35 -1.7 -8.35 -1.9 -8.4 -2.0 -8.55 -2.05 -8.75 -2.05 -8.65 -2.25 -8.55 -2.45 -8.25 -2.65 -8.1 -2.8 -8.1 -3.0 -8.05 -3.2 -7.95 -3.4 -7.8 -3.5 -7.7 -3.55 -7.35 -3.65 -7.05 -3.7 Q-6.95 -3.8 -6.8 -3.85 L-5.75 -4.35 -5.3 -4.5 -4.95 -4.7 -4.6 -4.75 -4.05 -4.9 -3.7 -5.05 -3.45 -5.2 -3.1 -5.25 -2.3 -5.4 -1.95 -5.55 -1.7 -5.7 -1.4 -5.75 -1.35 -5.75 -0.1 -5.75 0.2 -5.7 0.65 -5.75 4.15 -5.75 4.55 -5.65" fill="#ffff99" fill-opacity="0.2" fill-rule="evenodd" stroke="none"/>
    <path d="M4.05 4.35 L3.95 4.3 3.7 4.35 1.15 4.85 0.65 4.95 -1.8 5.0 -5.1 5.2 -5.55 5.05 -5.75 4.85 -5.85 4.7 -5.95 4.5 -5.95 4.3 -5.9 4.15 -5.8 3.95 -5.6 3.75 -5.45 3.6 -2.45 3.5 3.9 2.55 4.9 2.55 5.25 2.7 5.5 2.85 5.6 3.05 5.7 3.25 5.7 3.45 5.75 3.55 5.9 3.6 6.15 3.45 6.45 3.25 6.8 2.85 7.4 2.3 7.75 1.95 8.05 1.75 8.15 1.55 8.2 1.35 8.4 1.2 8.45 1.0 8.55 0.8 8.85 0.7 8.9 0.7 9.15 0.75 9.5 0.85 9.7 1.05 9.6 1.25 9.45 1.45 9.25 1.65 9.15 1.8 9.15 2.0 9.2 2.2 9.05 2.35 8.95 2.55 8.2 3.1 7.45 3.9 7.15 4.25 6.9 4.45 6.65 4.6 6.3 4.8 5.95 5.2 5.45 5.8 5.05 6.25 4.95 6.3 4.65 6.35 4.2 6.25 4.0 6.05 3.9 5.85 3.85 5.7 3.85 5.5 3.8 5.3 3.8 5.1 3.8 4.95 3.9 4.75 4.0 4.55 4.05 4.35" fill="#ffff99" fill-opacity="0.2" fill-rule="evenodd" stroke="none"/>
    <path d="M-4.2 0.1 L-4.85 1.25 Q-5.15 2.0 -5.8 1.75 L-5.85 1.6 Q-5.55 0.2 -4.5 -0.8 -3.8 -0.5 -4.2 0.1 M-3.75 1.25 L-3.4 1.05 Q-3.2 1.05 -3.05 1.25 L-2.9 1.75 -3.05 2.25 Q-3.2 2.45 -3.4 2.45 L-3.75 2.25 -3.9 1.75 -3.75 1.25 M-7.0 -0.25 Q-6.4 -1.0 -6.0 -0.45 L-6.7 0.55 Q-7.3 1.15 -7.65 0.75 L-7.5 0.45 -7.0 -0.25 M1.5 -5.05 L0.45 -5.4 Q-4.3 -5.05 -8.35 -2.9 L-8.45 0.95 -5.25 3.5 0.65 3.9 2.4 3.95 Q3.1 3.65 3.55 4.25 L4.8 5.2 6.3 5.0 Q7.75 3.25 8.45 1.35 L5.9 -4.0 Q3.45 -4.45 1.5 -5.05 M1.6 -6.4 L1.95 -6.3 3.7 -5.6 5.2 -5.15 6.05 -5.0 7.45 -4.45 7.85 -2.9 8.2 -2.0 9.0 -1.3 9.9 -0.45 10.15 -0.2 9.9 2.85 9.7 3.45 9.7 3.5 6.75 7.0 4.65 7.45 2.65 5.75 -6.6 5.3 -6.9 4.75 -7.0 4.4 -7.9 3.6 -9.8 1.95 -9.7 -2.85 -9.2 -3.3 -6.25 -4.65 -2.9 -5.9 -2.1 -6.3 1.6 -6.4" fill="#333333" fill-rule="evenodd" stroke="none"/>
  </g>
</svg>
