<?xml version="1.0" encoding="UTF-8" standalone="no"?>
<svg xmlns:xlink="http://www.w3.org/1999/xlink" height="19.35px" width="14.9px" xmlns="http://www.w3.org/2000/svg">
  <g transform="matrix(1.0, 0.0, 0.0, 1.0, 7.45, 9.65)">
    <path d="M0.85 -8.2 Q5.4 -4.85 6.6 0.05 7.2 1.35 6.75 2.9 L6.6 3.45 Q2.35 5.7 -1.35 8.9 -1.6 9.1 -2.05 9.1 -4.25 7.5 -4.65 4.75 L-3.7 3.25 Q-3.95 0.35 -6.1 -1.75 -4.6 -6.3 0.15 -8.1 L0.85 -8.2" fill="#ab98a0" fill-rule="evenodd" stroke="none"/>
    <path d="M2.2 -3.9 L3.05 -3.75 Q4.2 -1.2 4.0 2.1 L0.15 6.5 Q-2.35 5.8 -4.15 3.85 L-4.8 2.8 -3.05 1.65 -3.15 0.6 0.05 -3.25 1.55 -3.35 2.2 -3.9" fill="#663333" fill-opacity="0.2" fill-rule="evenodd" stroke="none"/>
    <path d="M1.95 -4.5 Q3.7 0.3 -0.2 2.7 L-1.9 3.6 -3.3 3.2 -5.0 1.15 Q-6.05 -0.15 -4.9 -1.75 L-5.3 -2.45 Q-4.1 -5.15 -1.05 -6.15 L-0.4 -6.05 0.3 -5.45 1.0 -5.4 1.45 -5.05 1.95 -4.5" fill="#663333" fill-opacity="0.2" fill-rule="evenodd" stroke="none"/>
    <path d="M3.4 -6.0 L3.95 -5.05 3.8 -4.35 6.45 -3.35 4.65 3.75 3.8 4.0 4.35 -2.2 1.7 -2.25 0.8 -2.6 0.0 -6.05 0.3 -6.65 -0.2 -7.75 0.75 -8.55 1.75 -7.8 3.4 -6.0" fill="#ffff99" fill-opacity="0.2" fill-rule="evenodd" stroke="none"/>
    <path d="M-2.15 1.1 L-3.85 6.05 -4.8 6.1 -3.75 2.1 -3.9 1.4 -4.4 0.85 -4.5 0.25 -4.75 -0.35 -6.5 -3.1 -6.15 -3.9 -5.35 -4.15 -4.7 -3.5 -2.6 0.45 -2.15 1.1" fill="#ffff99" fill-opacity="0.2" fill-rule="evenodd" stroke="none"/>
    <path d="M2.1 -6.65 L1.4 -8.0 Q0.65 -8.9 0.9 -7.55 1.15 -6.2 0.85 -5.35 L0.5 -5.7 Q0.05 -6.6 0.15 -7.5 L-4.05 -5.65 -5.75 -2.4 -5.65 -1.65 -3.0 1.05 -4.2 5.7 -3.1 7.05 -2.3 7.5 Q-1.8 8.5 -0.55 7.7 L2.15 5.75 2.45 4.8 2.9 4.25 Q4.1 3.2 5.45 3.7 L5.9 -2.15 Q4.95 -2.7 4.35 -3.5 L2.75 -5.95 Q2.6 -4.0 1.5 -3.2 L1.4 -3.5 2.1 -6.65 M2.0 -9.65 L2.35 -8.9 Q3.85 -8.2 4.6 -6.65 L5.25 -5.4 6.35 -4.1 7.45 -3.05 6.65 4.4 5.85 4.8 4.45 4.7 3.35 6.8 Q3.0 7.55 2.0 7.75 -0.1 9.4 -2.75 9.65 L-4.3 9.4 -4.7 8.7 -4.8 8.05 -6.0 6.6 Q-6.4 6.1 -6.15 5.55 -5.3 3.6 -5.1 1.35 L-5.5 1.0 -7.0 -0.75 -7.15 -1.05 -7.45 -2.45 -7.25 -3.45 Q-6.45 -4.7 -5.95 -6.1 L-5.3 -7.1 -4.45 -7.75 -4.05 -7.65 -2.4 -8.15 1.15 -9.55 2.0 -9.65" fill="#333333" fill-rule="evenodd" stroke="none"/>
  </g>
</svg>
