<?xml version="1.0" encoding="UTF-8" standalone="no"?>
<svg xmlns:xlink="http://www.w3.org/1999/xlink" height="131.65px" width="47.75px" xmlns="http://www.w3.org/2000/svg">
  <g transform="matrix(1.0, 0.0, 0.0, 1.0, 2.55, 3.75)">
    <path d="M40.0 0.0 L40.0 120.0 0.0 120.0 Q3.05 106.0 0.0 90.0 -3.05 74.0 0.0 60.0 3.05 46.0 0.0 30.0 -3.05 14.0 0.0 0.0 L40.0 0.0" fill="#dd9222" fill-rule="evenodd" stroke="none"/>
    <path d="M17.05 -3.35 L30.2 0.1 33.6 1.05 Q35.15 2.2 36.55 3.65 38.75 6.0 39.3 8.95 L40.1 14.0 40.0 14.1 38.55 18.1 37.5 21.2 37.2 22.85 37.1 23.25 36.85 24.55 Q36.3 26.35 36.05 28.25 L35.7 30.85 35.45 31.35 34.75 33.0 34.35 34.25 34.3 35.0 34.15 35.4 34.0 35.75 33.95 35.95 33.9 36.1 33.9 36.3 33.85 36.5 33.9 36.7 33.95 36.85 34.0 37.05 34.1 37.25 34.2 37.45 34.25 37.65 34.2 38.05 34.15 38.4 34.15 38.6 34.15 38.8 34.1 38.95 34.05 39.15 33.9 39.3 33.75 39.5 33.6 39.65 33.45 39.85 33.4 40.0 33.25 40.4 33.15 41.1 33.1 41.7 33.05 42.05 33.0 42.45 33.05 42.6 33.1 42.8 33.1 43.0 33.4 43.4 33.55 43.6 33.8 43.85 33.95 44.05 34.0 44.25 34.2 45.2 34.3 46.15 34.35 46.75 34.35 47.1 34.4 47.85 34.25 49.55 34.15 50.85 34.1 51.6 Q33.95 51.95 33.95 52.35 L33.95 54.2 34.15 55.75 34.3 56.5 34.25 56.9 34.2 57.25 34.25 57.65 34.25 57.85 34.3 58.05 34.35 58.25 34.25 59.35 34.15 60.3 34.1 60.85 34.1 61.2 33.95 61.75 33.8 63.45 33.7 64.75 33.6 65.5 Q33.15 66.45 33.1 67.55 L33.1 68.1 33.0 68.85 32.3 71.25 31.65 71.7 30.65 72.55 30.25 73.05 30.15 73.2 30.1 73.4 30.05 73.6 30.0 73.75 30.0 73.95 30.0 74.15 30.0 74.35 30.05 74.5 30.1 74.7 30.2 74.9 30.3 75.1 30.5 75.3 30.55 75.4 30.45 75.55 30.3 75.7 30.15 75.9 30.05 76.05 29.9 76.25 29.55 76.95 28.9 78.4 28.5 79.5 28.3 80.05 28.15 80.2 28.1 80.4 28.05 80.6 27.95 80.75 27.8 81.65 27.5 82.95 27.4 83.9 27.3 84.45 27.25 84.65 27.2 84.8 27.15 85.0 27.05 85.2 27.0 85.35 26.95 85.75 26.9 85.95 26.9 86.1 26.9 86.3 26.9 86.5 26.9 86.7 Q26.75 86.95 26.75 87.25 L26.55 89.1 26.4 90.8 26.3 91.7 26.25 91.9 26.15 92.05 26.1 92.25 26.05 92.45 25.95 92.6 25.95 92.8 24.6 97.2 24.1 98.45 23.0 101.75 21.55 105.9 21.45 106.5 21.2 106.85 21.1 107.05 21.05 107.2 20.95 107.4 20.95 107.55 20.9 107.75 20.9 107.95 20.9 108.05 20.85 108.15 20.45 109.0 18.9 112.6 18.85 112.65 18.45 113.15 18.4 113.35 18.25 113.7 18.2 114.1 18.15 114.45 18.15 114.65 18.15 114.85 18.2 115.0 18.3 115.2 18.15 115.55 18.05 115.75 18.0 115.9 17.9 116.1 17.8 116.3 17.75 116.45 17.6 116.65 17.45 116.8 17.35 117.0 17.2 117.15 17.15 117.35 17.05 117.5 16.9 117.7 15.65 119.15 14.95 119.85 Q13.3 119.45 11.95 118.2 12.1 114.4 13.1 110.35 14.5 104.75 14.05 98.7 13.3 89.45 10.55 80.3 L9.95 78.2 9.35 76.95 Q8.7 67.85 11.05 58.9 12.75 52.4 11.65 45.75 9.2 30.6 9.05 15.3 L8.85 13.45 Q6.8 5.0 11.9 -1.45 12.9 -2.7 14.5 -3.55 L16.0 -3.3 17.05 -3.35" fill="#663366" fill-opacity="0.101960786" fill-rule="evenodd" stroke="none"/>
    <path d="M13.4 -0.9 L15.55 -3.75 30.2 0.1 41.85 3.1 44.5 3.75 45.2 3.95 45.05 4.1 45.0 4.25 44.9 4.45 44.85 4.65 44.7 4.8 44.6 5.0 44.5 5.15 44.45 5.35 44.3 5.5 44.2 5.7 44.15 5.9 44.05 6.05 43.95 6.25 43.9 6.4 43.75 6.6 43.65 6.75 43.6 6.95 43.5 7.15 43.4 7.3 43.25 7.5 43.2 7.65 43.1 7.85 43.0 8.0 42.9 8.2 42.8 8.4 42.7 8.55 42.65 8.75 42.5 8.9 42.4 9.1 42.35 9.25 42.2 9.45 42.1 9.6 42.0 9.8 41.95 10.0 41.8 10.15 41.7 10.35 41.65 10.5 41.5 10.7 40.5 13.05 40.15 13.75 40.0 14.1 38.55 18.1 37.5 21.2 37.2 22.85 37.1 23.25 36.85 24.55 Q36.3 26.35 36.05 28.25 L35.7 30.85 35.45 31.35 34.75 33.0 34.35 34.25 34.3 35.0 34.15 35.4 34.0 35.75 33.95 35.95 33.9 36.1 33.9 36.3 33.85 36.5 33.9 36.7 33.95 36.85 34.0 37.05 34.1 37.25 34.2 37.45 34.25 37.65 34.2 38.05 34.15 38.4 34.15 38.6 34.15 38.8 34.1 38.95 34.05 39.15 33.9 39.3 33.75 39.5 33.6 39.65 33.45 39.85 33.4 40.0 33.25 40.4 33.15 41.1 33.1 41.7 33.05 42.05 33.0 42.45 33.05 42.6 33.1 42.8 33.1 43.0 33.4 43.4 33.55 43.6 33.8 43.85 33.95 44.05 34.0 44.25 34.2 45.2 34.3 46.15 34.35 46.75 34.35 47.1 34.4 47.85 34.25 49.55 34.15 50.85 34.1 51.6 Q33.95 51.95 33.95 52.35 L33.95 54.2 34.15 55.75 34.3 56.5 34.25 56.9 34.2 57.25 34.25 57.65 34.25 57.85 34.3 58.05 34.35 58.25 34.25 59.35 34.15 60.3 34.1 60.85 34.1 61.2 33.95 61.75 33.8 63.45 33.7 64.75 33.6 65.5 Q33.15 66.45 33.1 67.55 L33.1 68.1 33.0 68.85 32.3 71.25 31.65 71.7 30.65 72.55 30.25 73.05 30.15 73.2 30.1 73.4 30.05 73.6 30.0 73.75 30.0 73.95 30.0 74.15 30.0 74.35 30.05 74.5 30.1 74.7 30.2 74.9 30.3 75.1 30.5 75.3 30.55 75.4 30.45 75.55 30.3 75.7 30.15 75.9 30.05 76.05 29.9 76.25 29.55 76.95 28.9 78.4 28.5 79.5 28.3 80.05 28.15 80.2 28.1 80.4 28.05 80.6 27.95 80.75 27.8 81.65 27.5 82.95 27.4 83.9 27.3 84.45 27.25 84.65 27.2 84.8 27.15 85.0 27.05 85.2 27.0 85.35 26.95 85.75 26.9 85.95 26.9 86.1 26.9 86.3 26.9 86.5 26.9 86.7 Q26.75 86.95 26.75 87.25 L26.55 89.1 26.4 90.8 26.3 91.7 26.25 91.9 26.15 92.05 26.1 92.25 26.05 92.45 25.95 92.6 25.95 92.8 24.6 97.2 24.1 98.45 23.0 101.75 21.55 105.9 21.45 106.5 21.2 106.85 21.1 107.05 21.05 107.2 20.95 107.4 20.95 107.55 20.9 107.75 20.9 107.95 20.9 108.05 20.85 108.15 20.45 109.0 18.9 112.6 18.85 112.65 18.45 113.15 18.4 113.35 18.25 113.7 18.2 114.1 18.15 114.45 18.15 114.65 18.15 114.85 18.2 115.0 18.3 115.2 18.15 115.55 18.05 115.75 18.0 115.9 17.9 116.1 17.8 116.3 17.75 116.45 17.6 116.65 17.45 116.8 17.35 117.0 17.2 117.15 17.15 117.35 17.05 117.5 16.9 117.7 15.65 119.15 14.85 119.95 14.45 120.45 14.35 120.65 14.25 120.8 14.2 121.0 14.15 121.35 14.1 121.75 14.1 122.1 14.1 122.3 14.1 122.5 14.15 122.7 14.25 122.9 14.35 123.05 14.5 123.3 14.65 123.5 14.75 123.6 14.6 124.1 14.55 124.6 14.4 124.8 14.4 124.95 14.3 125.15 14.25 125.35 14.15 126.25 14.0 127.4 13.95 127.9 10.6 126.7 Q13.6 108.8 9.85 91.6 9.2 88.6 10.0 85.55 11.95 78.3 12.3 70.65 12.6 65.0 10.4 59.45 8.8 55.4 8.3 51.15 L7.85 47.2 7.15 41.6 Q5.8 30.65 7.85 19.65 L8.3 19.2 Q10.4 11.25 13.45 3.65 14.05 2.2 14.3 0.55 L13.6 0.25 13.4 -0.9" fill="#663366" fill-opacity="0.101960786" fill-rule="evenodd" stroke="none"/>
    <path d="M2.3 0.8 L1.8 4.8 2.5 5.2 Q-0.35 16.9 1.65 28.8 3.9 42.2 3.95 56.35 3.95 59.3 2.65 61.6 L0.9 76.05 1.4 76.6 3.8 102.3 Q4.9 113.8 0.8 123.45 L-0.4 122.9 Q2.9 108.15 0.25 94.55 L-0.7 89.4 Q-2.6 77.3 -0.7 65.0 L-0.1 64.45 Q2.95 52.0 0.95 39.3 -0.25 31.8 -0.2 24.3 -1.15 19.2 -1.0 13.95 L-0.8 7.85 -1.05 7.4 0.5 0.65 1.7 0.4 2.3 0.8" fill="#ffff99" fill-opacity="0.2" fill-rule="evenodd" stroke="none"/>
    <path d="M4.65 34.8 L5.5 35.25 Q5.9 47.2 3.6 58.75 2.95 62.0 1.8 65.0 -3.1 77.75 3.25 89.9 L3.65 90.05 Q6.25 101.55 5.15 113.7 4.65 119.15 2.6 123.25 L1.7 123.15 1.35 122.7 0.45 122.5 -0.1 121.8 Q0.5 118.05 1.7 114.45 2.7 111.55 2.45 108.7 L2.1 108.1 2.25 103.7 1.5 103.45 0.9 102.6 Q1.9 90.45 -1.5 78.9 -2.65 74.95 -1.75 70.9 L1.55 56.05 Q2.7 50.5 3.0 44.5 L2.0 44.15 Q0.75 31.15 -0.9 18.2 L-0.25 17.5 Q-1.4 9.75 -0.3 2.2 -0.2 1.5 0.4 1.85 -0.3 13.7 3.4 25.05 4.95 29.8 4.65 34.8" fill="#ffff99" fill-opacity="0.2" fill-rule="evenodd" stroke="none"/>
    <path d="M-0.6 4.7 L-0.7 5.2 -0.75 5.6 -1.2 9.4 -1.3 11.0 Q-1.0 13.95 -1.05 16.8 L-0.95 17.55 -0.8 20.65 Q-0.7 23.35 -0.1 26.0 1.5 33.3 1.75 40.95 1.35 41.45 1.05 41.05 L0.15 36.25 -0.9 31.55 -1.95 26.45 -2.2 23.35 -2.3 17.95 -2.35 17.35 -2.55 14.25 -2.55 11.45 -2.35 8.65 -2.2 7.35 Q-2.0 4.9 -1.1 2.45 -0.55 1.15 -0.55 -0.15 -0.55 -1.15 0.15 -0.7 0.45 1.4 -0.3 3.3 L-0.4 3.7 -0.6 4.7" fill="#333333" fill-rule="evenodd" stroke="none"/>
    <path d="M0.3 56.6 L0.4 56.1 0.45 55.7 0.9 51.95 1.0 50.3 Q0.7 47.35 0.75 44.55 L0.65 43.8 0.5 40.7 Q0.4 38.0 -0.2 35.35 -1.8 28.05 -2.05 20.4 L-1.35 20.35 -0.45 25.15 0.6 29.85 1.65 34.9 1.9 38.0 2.0 43.4 2.05 43.95 2.25 47.1 2.25 49.9 2.05 52.7 1.9 53.95 Q1.7 56.4 0.8 58.85 0.25 60.15 0.25 61.45 0.25 62.45 -0.45 62.0 -0.75 59.9 0.0 58.0 L0.1 57.65 0.3 56.6" fill="#333333" fill-rule="evenodd" stroke="none"/>
    <path d="M-0.6 64.7 L-0.7 65.2 -0.75 65.6 -1.2 69.4 -1.3 71.0 Q-1.0 73.95 -1.05 76.8 L-0.95 77.55 -0.8 80.65 Q-0.7 83.35 -0.1 86.0 1.5 93.3 1.75 100.95 1.35 101.45 1.05 101.05 L0.15 96.25 -0.9 91.55 -1.95 86.45 -2.2 83.35 -2.3 77.95 -2.35 77.35 -2.55 74.25 -2.55 71.45 -2.35 68.65 -2.2 67.35 Q-2.0 64.9 -1.1 62.45 -0.55 61.15 -0.55 59.85 -0.55 58.85 0.15 59.3 0.45 61.4 -0.3 63.3 L-0.4 63.7 -0.6 64.7" fill="#333333" fill-rule="evenodd" stroke="none"/>
    <path d="M0.3 116.6 L0.4 116.1 0.45 115.7 0.9 111.95 1.0 110.3 Q0.7 107.35 0.75 104.55 L0.65 103.8 0.5 100.7 Q0.4 98.0 -0.2 95.35 -1.8 88.05 -2.05 80.4 L-1.35 80.35 -0.45 85.15 0.6 89.85 1.65 94.9 1.9 98.0 2.0 103.4 2.05 103.95 2.25 107.1 2.25 109.9 2.05 112.7 1.9 113.95 Q1.7 116.4 0.8 118.85 0.25 120.15 0.25 121.45 0.25 122.45 -0.45 122.0 -0.75 119.9 0.0 118.0 L0.1 117.65 0.3 116.6" fill="#333333" fill-rule="evenodd" stroke="none"/>
  </g>
</svg>
