<?xml version="1.0" encoding="UTF-8" standalone="no"?>
<svg xmlns:xlink="http://www.w3.org/1999/xlink" height="123.0px" width="4.8px" xmlns="http://www.w3.org/2000/svg">
  <g transform="matrix(1.0, 0.0, 0.0, 1.0, 2.55, 0.85)">
    <path d="M-0.6 4.7 L-0.7 5.2 -0.75 5.6 -1.2 9.4 -1.3 11.0 Q-1.0 13.95 -1.05 16.8 L-0.95 17.55 -0.8 20.65 Q-0.7 23.35 -0.1 26.0 1.5 33.3 1.75 40.95 1.35 41.45 1.05 41.05 L0.15 36.25 -0.9 31.55 -1.95 26.45 -2.2 23.35 -2.3 17.95 -2.35 17.35 -2.55 14.25 -2.55 11.45 -2.35 8.65 -2.2 7.35 Q-2.0 4.9 -1.1 2.45 -0.55 1.15 -0.55 -0.15 -0.55 -1.15 0.15 -0.7 0.45 1.4 -0.3 3.3 L-0.4 3.7 -0.6 4.7" fill="#333333" fill-rule="evenodd" stroke="none"/>
    <path d="M0.3 56.6 L0.4 56.1 0.45 55.7 0.9 51.95 1.0 50.3 Q0.7 47.35 0.75 44.55 L0.65 43.8 0.5 40.7 Q0.4 38.0 -0.2 35.35 -1.8 28.05 -2.05 20.4 L-1.35 20.35 -0.45 25.15 0.6 29.85 1.65 34.9 1.9 38.0 2.0 43.4 2.05 43.95 2.25 47.1 2.25 49.9 2.05 52.7 1.9 53.95 Q1.7 56.4 0.8 58.85 0.25 60.15 0.25 61.45 0.25 62.45 -0.45 62.0 -0.75 59.9 0.0 58.0 L0.1 57.65 0.3 56.6" fill="#333333" fill-rule="evenodd" stroke="none"/>
    <path d="M-0.6 64.7 L-0.7 65.2 -0.75 65.6 -1.2 69.4 -1.3 71.0 Q-1.0 73.95 -1.05 76.8 L-0.95 77.55 -0.8 80.65 Q-0.7 83.35 -0.1 86.0 1.5 93.3 1.75 100.95 1.35 101.45 1.05 101.05 L0.15 96.25 -0.9 91.55 -1.95 86.45 -2.2 83.35 -2.3 77.95 -2.35 77.35 -2.55 74.25 -2.55 71.45 -2.35 68.65 -2.2 67.35 Q-2.0 64.9 -1.1 62.45 -0.55 61.15 -0.55 59.85 -0.55 58.85 0.15 59.3 0.45 61.4 -0.3 63.3 L-0.4 63.7 -0.6 64.7" fill="#333333" fill-rule="evenodd" stroke="none"/>
    <path d="M0.3 116.6 L0.4 116.1 0.45 115.7 0.9 111.95 1.0 110.3 Q0.7 107.35 0.75 104.55 L0.65 103.8 0.5 100.7 Q0.4 98.0 -0.2 95.35 -1.8 88.05 -2.05 80.4 L-1.35 80.35 -0.45 85.15 0.6 89.85 1.65 94.9 1.9 98.0 2.0 103.4 2.05 103.95 2.25 107.1 2.25 109.9 2.05 112.7 1.9 113.95 Q1.7 116.4 0.8 118.85 0.25 120.15 0.25 121.45 0.25 122.45 -0.45 122.0 -0.75 119.9 0.0 118.0 L0.1 117.65 0.3 116.6" fill="#333333" fill-rule="evenodd" stroke="none"/>
  </g>
</svg>
