<?xml version="1.0" encoding="UTF-8" standalone="no"?>
<svg xmlns:xlink="http://www.w3.org/1999/xlink" height="10.45px" width="21.35px" xmlns="http://www.w3.org/2000/svg">
  <g transform="matrix(1.0, 0.0, 0.0, 1.0, 10.65, 4.15)">
    <path d="M1.1 -2.75 L3.0 -2.55 5.65 -1.95 7.6 -1.4 Q8.6 -1.05 8.75 -0.05 L8.6 0.45 Q7.8 1.25 6.55 1.55 L5.85 1.85 4.4 2.25 2.75 2.45 0.95 2.55 -0.95 2.55 -2.75 2.45 -4.4 2.25 -6.6 1.5 -7.6 1.05 -8.95 -0.05 -8.5 -1.1 -7.85 -1.25 -6.65 -1.7 -5.5 -2.15 -4.2 -2.55 -2.6 -2.75 -0.8 -2.8 1.1 -2.75" fill="#c47f2d" fill-rule="evenodd" stroke="none"/>
    <path d="M-4.8 -2.5 L-5.8 -2.5 -6.15 -2.35 -6.4 -2.2 -6.75 -2.0 -7.05 -1.8 -7.3 -1.6 -7.45 -1.5 -7.55 -1.45 -8.0 -1.3 -8.5 -1.2 -9.35 -0.85 -9.6 -0.65 -9.75 -0.5 -9.85 -0.3 -9.9 -0.1 -9.95 0.1 -10.0 0.25 -10.0 0.45 -10.0 0.65 -10.0 0.85 -9.95 1.05 -9.9 1.2 -9.8 1.4 -9.65 1.6 -9.4 1.8 -9.2 1.95 -8.9 2.15 -8.6 2.35 -8.4 2.45 -8.3 2.5 -8.0 2.6 -7.7 2.65 -7.4 2.75 -7.05 2.85 -6.75 3.05 -6.45 3.25 -6.25 3.35 -6.05 3.4 -5.85 3.5 -5.65 3.55 -5.45 3.6 -5.2 3.65 -1.75 3.5 -0.85 3.25 -0.7 3.05 -0.55 2.85 -0.4 2.65 -0.25 2.45 -0.2 2.3 -0.2 2.1 -0.1 1.9 0.05 1.7 0.15 1.55 0.2 1.35 0.2 1.15 0.2 0.95 0.2 0.75 0.2 0.6 0.2 0.4 0.2 0.0 0.15 -0.15 0.05 -0.35 -0.1 -0.55 -0.25 -0.75 -0.45 -0.9 -0.65 -1.1 -0.85 -1.3 -1.25 -1.5 -2.05 -1.85 -2.8 -2.2 -4.3 -2.3 -4.5 -2.45 -4.8 -2.45 -4.8 -2.5" fill="#663366" fill-opacity="0.101960786" fill-rule="evenodd" stroke="none"/>
    <path d="M-1.4 -3.4 L-3.8 -3.4 -4.05 -3.3 -5.4 -3.0 -6.45 -2.75 -7.15 -2.5 -7.35 -2.3 -7.4 -2.2 -7.45 -2.15 -8.6 -2.05 -9.0 -1.95 -9.3 -1.75 -9.55 -1.55 -9.7 -1.35 -9.85 -1.2 -9.9 -1.0 -10.0 -0.8 -10.05 -0.6 -10.05 -0.4 -10.05 -0.25 -10.05 -0.05 -10.05 0.15 -10.05 0.35 -10.0 0.5 -9.95 0.7 -9.85 0.9 -9.75 1.1 -9.6 1.2 -9.5 1.25 -9.25 1.4 -9.15 1.6 -8.9 1.8 -8.45 2.15 -8.0 2.55 -5.2 3.2 Q-1.4 3.75 2.4 3.1 L2.8 3.0 3.0 2.8 3.1 2.6 3.2 2.4 3.25 2.2 3.35 2.05 3.4 1.85 3.4 1.65 3.4 1.45 3.4 1.3 3.4 1.1 3.4 0.9 3.35 0.7 3.3 0.5 3.25 0.35 3.15 0.15 2.8 -0.4 2.35 -1.0 1.9 -1.55 1.6 -1.75 0.05 -2.65 -1.0 -3.25 -1.4 -3.35 -1.4 -3.4" fill="#663366" fill-opacity="0.101960786" fill-rule="evenodd" stroke="none"/>
    <path d="M1.1 -2.75 L-0.8 -2.8 -2.6 -2.75 -4.2 -2.55 -5.5 -2.15 -6.65 -1.7 -7.85 -1.25 -8.5 -1.1 -8.95 -0.05 -7.6 1.05 -6.6 1.5 -4.4 2.25 -2.75 2.45 -0.95 2.55 0.95 2.55 2.75 2.45 4.4 2.25 5.85 1.85 6.55 1.55 Q7.8 1.25 8.6 0.45 L8.75 -0.05 Q8.6 -1.05 7.6 -1.4 L5.65 -1.95 3.0 -2.55 1.1 -2.75 M4.45 -3.85 L6.3 -3.5 7.45 -3.15 8.85 -2.45 10.2 -1.45 10.7 -0.5 Q10.8 -0.05 10.5 0.4 L9.9 1.05 8.8 1.8 7.05 2.5 6.2 2.9 4.45 3.5 2.8 3.85 1.15 3.85 -0.35 3.85 -2.05 3.75 -3.25 3.65 -4.95 3.6 -6.7 3.2 -8.25 2.4 -9.8 1.5 -10.4 0.95 Q-10.75 0.35 -10.6 -0.3 L-9.85 -1.8 -8.9 -2.5 -7.45 -3.15 -6.1 -3.6 -4.85 -3.65 -3.0 -3.85 -1.15 -4.0 0.25 -4.15 1.6 -4.15 3.05 -4.05 4.45 -3.85" fill="#333333" fill-rule="evenodd" stroke="none"/>
    <path d="M1.85 5.55 L1.95 5.5 2.1 5.5 2.2 5.45 2.8 5.45 2.95 5.5 3.1 5.5 3.25 5.45 3.4 5.4 3.55 5.5 3.7 5.5 3.95 5.4 4.05 5.4 4.0 5.5 3.8 5.6 3.6 5.65 3.6 5.75 3.55 5.85 3.4 5.95 3.25 5.95 3.1 6.0 3.0 6.05 2.95 6.1 2.1 6.2 1.95 6.2 1.85 6.25 1.75 6.25 1.6 6.3 -2.4 6.1 -2.55 6.05 -2.7 6.0 -2.8 5.95 -3.4 5.9 -3.5 5.85 -3.7 5.75 -4.05 5.65 -4.1 5.55 -4.05 5.45 -3.75 5.4 -3.7 5.4 -3.6 5.4 -3.45 5.45 -3.2 5.4 -2.8 5.4 -2.7 5.4 -2.6 5.45 -2.5 5.5 -1.2 5.45 -1.05 5.5 -0.9 5.5 -0.8 5.55 -0.65 5.6 1.75 5.6 1.85 5.55" fill="#333333" fill-rule="evenodd" stroke="none"/>
    <path d="M10.25 3.1 L10.25 3.2 10.2 3.3 10.05 3.4 9.9 3.55 9.8 3.65 9.7 3.75 9.6 3.8 9.5 3.85 9.4 3.9 9.15 3.95 8.65 4.2 8.1 4.5 8.0 4.55 7.9 4.55 7.65 4.65 7.5 4.65 7.3 4.65 7.05 4.55 6.95 4.5 6.95 4.4 7.0 4.3 7.1 4.25 8.15 3.9 8.95 3.45 9.0 3.4 9.1 3.4 9.2 3.35 9.45 3.3 9.55 3.2 9.65 3.1 9.8 3.05 10.0 3.05 10.05 3.0 10.15 3.0 10.25 3.1" fill="#333333" fill-rule="evenodd" stroke="none"/>
    <path d="M6.25 5.65 L7.0 5.55 7.25 5.45 7.65 5.25 7.8 5.2 7.95 5.25 8.05 5.35 8.15 5.45 8.15 5.55 8.15 5.65 8.0 5.7 7.8 5.65 7.45 5.85 7.2 5.95 7.0 6.0 6.9 6.0 6.6 6.0 6.25 5.95 6.05 6.0 5.95 6.0 5.95 5.95 6.05 5.85 6.15 5.75 6.25 5.65" fill="#333333" fill-rule="evenodd" stroke="none"/>
  </g>
</svg>
