<?xml version="1.0" encoding="UTF-8" standalone="no"?>
<svg xmlns:xlink="http://www.w3.org/1999/xlink" height="21.25px" width="19.9px" xmlns="http://www.w3.org/2000/svg">
  <g transform="matrix(1.0, 0.0, 0.0, 1.0, -109.95, 131.4)">
    <path d="M120.0 -131.25 L120.2 -131.05 120.3 -130.8 Q118.85 -126.75 116.85 -122.85 114.7 -118.9 112.95 -114.75 L110.8 -110.3 110.65 -110.2 110.5 -110.15 110.4 -110.15 110.25 -110.15 109.95 -110.4 109.95 -110.6 Q111.45 -114.7 113.45 -118.55 L114.55 -120.95 118.3 -129.2 119.35 -131.15 119.5 -131.25 119.65 -131.3 119.7 -131.3 119.95 -131.2 120.0 -131.25" fill="#333333" fill-rule="evenodd" stroke="none"/>
    <path d="M119.7 -131.35 L119.45 -131.1 119.45 -130.9 Q120.85 -126.8 122.9 -122.95 L126.85 -114.85 129.05 -110.4 129.1 -110.3 129.25 -110.25 129.35 -110.25 129.6 -110.3 129.8 -110.5 129.85 -110.7 126.3 -118.65 125.15 -121.1 121.35 -129.25 120.35 -131.2 120.2 -131.3 120.0 -131.35 119.95 -131.4 119.75 -131.3 119.7 -131.35" fill="#333333" fill-rule="evenodd" stroke="none"/>
  </g>
</svg>
