<?xml version="1.0" encoding="UTF-8" standalone="no"?>
<svg xmlns:xlink="http://www.w3.org/1999/xlink" height="232.65px" width="15.15px" xmlns="http://www.w3.org/2000/svg">
  <g transform="matrix(1.0, 0.0, 0.0, 1.0, 7.55, 116.35)">
    <path d="M5.65 -68.6 L5.65 -22.9 4.65 -22.9 4.65 23.85 4.15 23.85 4.15 69.65 2.9 69.65 2.9 114.9 -2.1 114.9 -2.1 70.15 -3.65 70.15 -3.65 24.35 -4.35 24.35 -4.35 -22.65 -5.35 -22.65 -5.35 -68.85 -5.85 -68.85 -5.85 -114.4 6.15 -114.4 6.15 -68.6 5.65 -68.6" fill="#a6b8bf" fill-rule="evenodd" stroke="none"/>
    <path d="M3.6 47.65 L4.1 48.4 Q4.5 51.35 4.35 54.4 L4.15 61.15 4.1 67.15 3.95 67.9 3.6 68.7 Q3.35 76.85 3.5 85.2 3.7 93.85 3.4 102.45 L2.85 112.95 2.7 113.6 2.1 114.45 1.35 115.2 0.8 115.55 -0.15 115.8 -0.15 115.95 -1.4 115.45 -1.85 114.65 -2.15 113.95 -1.85 113.2 -1.4 112.45 Q-1.4 104.5 -1.65 96.65 L-1.8 80.2 -1.65 69.7 Q-1.65 69.3 -1.8 68.95 L-2.15 68.2 Q-2.6 65.2 -2.5 62.15 -2.35 58.75 -2.5 55.4 L-2.65 49.4 -2.35 48.7 -1.9 47.95 -1.15 47.2 -0.4 46.65 0.85 46.4 2.6 46.9 3.6 47.65" fill="#663333" fill-opacity="0.2" fill-rule="evenodd" stroke="none"/>
    <path d="M2.1 82.7 L2.6 83.45 Q3.1 88.25 3.25 93.2 L3.5 104.45 3.85 112.7 3.5 113.4 2.8 114.15 2.1 114.7 0.85 114.8 0.85 114.95 -0.65 114.45 -1.4 113.65 -1.85 112.9 -2.15 112.2 Q-1.8 108.1 -1.75 103.95 L-1.6 94.2 Q-1.55 90.75 -1.15 87.45 L-1.35 86.8 -2.15 85.95 -2.65 85.2 -2.35 84.5 -1.65 83.7 -0.7 82.9 -0.15 82.45 0.85 82.2 2.1 82.7" fill="#663333" fill-opacity="0.2" fill-rule="evenodd" stroke="none"/>
    <path d="M-3.1 99.55 L-2.15 99.2 -0.9 99.7 -0.4 100.45 0.1 101.2 0.6 101.95 Q1.15 103.75 1.1 105.7 L1.3 110.15 Q1.5 112.0 1.35 113.95 L1.05 114.65 0.6 115.45 -0.15 115.95 -1.15 116.05 -1.15 116.2 -2.4 115.7 -2.9 114.95 -3.35 114.15 -3.65 113.45 -3.65 111.15 Q-3.4 109.3 -3.45 107.45 L-3.15 103.7 -3.25 102.95 -3.4 102.2 -3.65 101.45 -3.75 100.7 -3.4 99.95 -3.1 99.55" fill="#663333" fill-opacity="0.2" fill-rule="evenodd" stroke="none"/>
    <path d="M-0.05 70.35 L0.3 86.85 0.15 103.7 Q0.1 108.3 -0.55 112.7 L-0.8 112.9 -1.15 112.95 -1.4 112.95 -1.8 112.6 -1.8 112.25 -1.9 111.85 -2.05 111.45 -2.45 95.7 -2.4 79.6 -2.3 70.6 -2.15 70.2 -2.0 69.85 -1.9 69.6 -1.65 69.5 -1.15 69.35 -0.4 69.6 -0.2 69.95 -0.05 70.35" fill="#663333" fill-opacity="0.2" fill-rule="evenodd" stroke="none"/>
    <path d="M-3.25 22.25 L-2.9 21.8 -2.15 21.55 -1.3 21.8 -1.05 22.2 -0.8 22.55 Q-0.6 27.05 -0.65 31.6 L-0.55 40.95 Q-0.5 43.75 -0.8 46.6 -0.55 50.7 -0.65 54.85 L-0.95 63.45 -1.15 68.35 -1.3 68.7 -1.55 69.1 -2.15 69.25 -2.15 69.35 -2.8 69.1 -2.9 68.7 -3.05 68.35 -3.15 67.95 -3.35 61.95 -3.6 55.6 Q-3.75 53.3 -3.55 51.1 L-3.6 50.7 -3.65 49.95 -3.6 49.2 -3.55 48.85 -3.65 48.45 -3.65 48.1 -3.65 47.7 -3.65 47.35 -3.55 46.95 -3.7 37.95 -3.75 28.6 Q-3.75 25.55 -3.4 22.55 L-3.25 22.25" fill="#663333" fill-opacity="0.2" fill-rule="evenodd" stroke="none"/>
    <path d="M-3.25 -22.2 L-3.05 -22.45 -2.8 -22.55 -2.15 -22.7 -1.3 -22.45 -0.95 -22.1 -0.65 -21.7 Q-0.25 -14.25 -0.3 -6.7 L-0.5 9.05 -0.8 18.4 -0.75 18.75 -0.55 19.2 -0.4 19.55 -0.4 19.9 -0.45 20.3 -0.55 20.65 -0.75 21.05 -0.9 21.4 -1.25 21.8 -1.5 22.2 -1.7 22.5 -1.9 22.8 -2.15 22.9 -2.65 22.95 -2.65 23.05 -3.3 22.8 -3.55 22.4 -3.8 22.05 -3.75 21.7 -3.55 21.3 -3.45 20.9 -3.4 20.55 -3.15 20.15 -3.2 19.8 -3.4 19.4 -3.85 4.05 -3.95 -12.1 Q-4.0 -16.8 -3.65 -21.45 L-3.5 -21.85 -3.25 -22.2" fill="#663333" fill-opacity="0.2" fill-rule="evenodd" stroke="none"/>
    <path d="M-5.15 -68.1 L-5.0 -68.45 -4.65 -68.85 -4.3 -69.1 -3.65 -69.25 -2.8 -69.0 -2.45 -68.6 -2.15 -68.25 Q-1.7 -60.05 -1.9 -51.75 L-2.1 -34.45 Q-2.1 -29.4 -2.4 -24.35 L-2.6 -24.0 -2.9 -23.6 -3.3 -23.25 -3.65 -22.95 -4.15 -22.9 -4.15 -22.85 -4.8 -23.1 -5.15 -23.5 -5.35 -23.85 -5.4 -24.2 -5.25 -24.6 -5.05 -24.95 -5.35 -41.45 -5.55 -58.35 Q-5.6 -63.3 -5.15 -68.1" fill="#663333" fill-opacity="0.2" fill-rule="evenodd" stroke="none"/>
    <path d="M-2.65 -114.25 L-2.5 -98.5 -2.6 -82.35 -2.8 -72.95 -2.85 -72.6 -3.05 -72.2 -3.4 -71.95 -3.55 -71.9 -4.15 -71.8 -4.15 -71.7 -4.9 -71.95 -5.25 -72.35 -5.4 -72.7 Q-5.9 -80.55 -5.85 -88.45 L-5.85 -104.6 -5.65 -114.0 -5.5 -114.35 -5.25 -114.7 -5.05 -115.0 -4.8 -115.1 -4.15 -115.25 -3.3 -115.0 -2.95 -114.6 -2.65 -114.25" fill="#663333" fill-opacity="0.2" fill-rule="evenodd" stroke="none"/>
    <path d="M-4.85 -113.05 L-4.4 -113.8 -3.65 -114.6 -2.15 -115.1 -0.4 -114.6 0.3 -113.8 0.85 -113.1 Q1.2 -106.4 1.15 -99.6 L1.1 -85.35 1.1 -76.35 0.8 -75.6 0.35 -74.85 -0.15 -74.1 -0.65 -73.35 -2.15 -73.0 -2.15 -72.85 -3.4 -73.35 -3.9 -74.1 -4.4 -74.85 -4.85 -75.6 -5.15 -76.35 Q-5.6 -82.65 -5.5 -89.1 -5.4 -96.2 -5.45 -103.35 -5.5 -107.9 -5.15 -112.35 L-4.85 -113.05" fill="#663333" fill-opacity="0.2" fill-rule="evenodd" stroke="none"/>
    <path d="M-1.9 -69.6 L-0.65 -70.1 0.6 -69.6 1.2 -68.75 1.35 -68.1 1.2 -67.4 0.6 -66.6 0.6 -53.1 0.6 -38.85 0.6 -29.85 0.3 -29.1 -0.15 -28.35 -1.65 -27.95 -1.65 -27.85 -2.9 -28.35 -3.4 -29.1 -3.9 -29.85 -3.9 -43.35 -4.0 -57.6 -3.65 -67.35 -3.15 -68.1 -2.65 -68.8 -1.9 -69.6" fill="#663333" fill-opacity="0.2" fill-rule="evenodd" stroke="none"/>
    <path d="M-2.3 -20.75 L-1.4 -21.55 -0.15 -22.05 1.1 -21.55 0.95 -20.85 0.65 -20.05 0.35 -19.3 0.9 -7.3 0.9 5.45 0.85 12.95 0.7 13.6 0.1 14.45 Q-0.55 14.55 -1.1 14.8 L-1.15 14.95 -2.4 14.45 -2.9 13.7 Q-3.35 7.75 -3.25 1.7 L-3.05 -11.05 -2.65 -20.05 -2.3 -20.75" fill="#663333" fill-opacity="0.2" fill-rule="evenodd" stroke="none"/>
    <path d="M-2.65 24.95 L-2.3 24.35 Q-1.8 23.95 -1.15 23.7 L0.1 24.2 Q0.8 30.5 0.7 36.95 L0.6 50.45 0.6 58.7 0.45 59.4 0.1 60.2 Q-0.55 60.3 -1.1 60.55 L-1.15 60.7 -2.3 60.05 -2.65 59.45 Q-3.1 53.1 -3.0 46.7 L-2.9 33.2 -2.65 24.95" fill="#663333" fill-opacity="0.2" fill-rule="evenodd" stroke="none"/>
    <path d="M3.2 24.3 L3.45 24.65 3.7 25.05 Q3.4 33.45 3.35 41.95 L3.2 59.2 2.95 68.55 3.1 68.9 3.35 69.3 3.25 69.6 2.85 69.8 2.6 69.8 2.1 69.4 1.7 69.05 Q1.4 60.65 1.4 52.2 L1.3 34.95 0.95 25.55 1.05 25.2 1.2 24.8 1.45 24.4 1.75 24.25 2.35 24.05 3.2 24.3" fill="#ffff99" fill-opacity="0.2" fill-rule="evenodd" stroke="none"/>
    <path d="M1.65 -11.7 Q1.6 -16.65 2.1 -21.45 L2.25 -21.7 2.35 -21.8 2.85 -21.95 3.45 -21.7 3.7 -21.35 Q4.1 -12.75 4.1 -4.1 L4.0 13.55 3.45 23.3 3.2 23.5 2.85 23.55 2.6 23.55 2.2 23.15 Q1.65 14.6 1.7 5.9 L1.65 -11.7" fill="#ffff99" fill-opacity="0.2" fill-rule="evenodd" stroke="none"/>
    <path d="M2.6 -67.85 L2.85 -68.05 3.35 -68.2 4.1 -67.95 4.35 -67.6 4.5 -54.1 4.4 -39.1 4.25 -29.35 4.9 -28.65 5.75 -27.75 6.25 -27.1 6.15 -26.75 6.0 -26.35 5.85 -26.0 5.6 -25.6 4.65 -24.8 3.85 -24.1 3.35 -23.7 2.85 -23.6 2.6 -23.6 2.2 -23.95 2.65 -24.7 3.25 -25.45 3.9 -26.25 4.1 -26.6 3.55 -27.3 2.75 -28.1 2.45 -28.45 2.25 -41.95 2.2 -57.35 2.2 -67.1 2.35 -67.45 2.6 -67.85" fill="#ffff99" fill-opacity="0.2" fill-rule="evenodd" stroke="none"/>
    <path d="M6.0 -115.75 L6.25 -98.5 6.05 -81.25 5.85 -71.45 5.7 -71.1 5.45 -70.75 5.2 -70.55 4.85 -70.45 4.6 -70.45 4.25 -70.85 3.95 -71.2 Q3.55 -74.95 3.55 -78.75 L3.5 -86.6 3.6 -91.5 Q3.35 -95.95 3.35 -100.5 L3.45 -109.85 3.7 -115.5 3.9 -115.85 4.1 -116.1 4.35 -116.25 4.85 -116.35 5.6 -116.1 6.0 -115.75" fill="#ffff99" fill-opacity="0.2" fill-rule="evenodd" stroke="none"/>
    <path d="M6.6 -71.35 L6.55 -71.0 6.35 -70.6 5.7 -70.25 5.25 -69.95 -3.65 -69.8 -3.65 -69.7 -4.15 -69.7 -4.7 -70.05 -4.9 -70.35 -4.95 -70.7 -4.8 -71.1 -4.6 -71.3 -4.15 -71.45 Q1.05 -71.1 6.25 -71.7 L6.6 -71.35" fill="#ffff99" fill-opacity="0.2" fill-rule="evenodd" stroke="none"/>
    <path d="M-5.8 -23.2 L-6.05 -23.6 -6.2 -24.0 -6.15 -24.35 -6.0 -24.7 -5.85 -24.95 -5.65 -25.1 -5.15 -25.2 1.85 -25.15 3.85 -25.1 4.5 -24.85 4.8 -24.4 4.85 -24.1 4.8 -23.75 4.5 -23.35 3.85 -23.1 1.85 -23.0 1.85 -22.95 -5.15 -22.95 -5.8 -23.2" fill="#ffff99" fill-opacity="0.2" fill-rule="evenodd" stroke="none"/>
    <path d="M3.45 21.15 L3.75 21.6 3.85 21.9 3.75 22.25 3.45 22.65 2.85 22.85 2.85 22.9 -1.65 22.9 -2.3 22.65 -2.5 22.3 -2.65 21.9 -2.5 21.55 -2.3 21.15 -1.65 20.9 2.85 20.9 3.45 21.15" fill="#ffff99" fill-opacity="0.2" fill-rule="evenodd" stroke="none"/>
    <path d="M2.25 68.05 L3.05 68.4 3.1 68.55 2.85 68.65 2.25 68.9 1.95 69.15 1.85 69.3 1.35 69.4 0.85 69.5 0.85 69.55 -1.65 69.55 -2.15 69.4 -2.8 69.15 -3.0 68.8 -3.15 68.4 -3.0 68.05 -2.8 67.65 -2.15 67.45 -1.65 67.3 0.85 67.3 1.35 67.45 1.95 67.65 2.2 67.95 2.25 68.05" fill="#ffff99" fill-opacity="0.2" fill-rule="evenodd" stroke="none"/>
    <path d="M-5.3 -114.6 L-5.1 -112.75 -5.1 -111.25 -5.15 -110.1 -5.15 -108.6 -5.1 -101.65 -5.1 -94.75 -5.2 -87.6 -5.2 -80.5 -5.25 -76.5 -5.25 -72.6 -5.25 -68.35 -4.25 -68.35 -4.25 -66.8 -4.25 -61.0 -4.3 -55.15 -4.3 -49.35 -4.3 -43.4 -4.3 -37.5 -4.3 -31.6 -4.2 -25.7 -4.15 -22.85 -3.15 -22.85 -3.15 -21.9 -3.15 -19.8 -3.1 -13.9 -3.05 -8.0 -3.05 -2.1 -3.05 3.85 -3.05 9.75 -3.1 15.65 -3.15 21.55 -3.15 23.35 -3.15 23.65 -2.15 23.65 -2.15 24.15 -2.2 27.45 -2.25 33.35 -2.25 39.25 -2.3 45.15 -2.35 51.1 -2.35 57.0 -2.35 62.9 -2.35 68.8 -2.35 69.65 -1.35 69.65 -1.35 70.15 -1.3 71.8 -1.3 74.75 -1.3 77.75 -1.3 80.65 -1.3 83.65 -1.3 86.55 -1.3 89.55 -1.3 92.45 -1.2 98.45 -1.2 99.25 Q-1.1 102.2 -1.15 105.2 L-1.1 111.55 Q-1.0 113.8 -1.55 116.05 L-2.2 116.3 -2.95 115.7 -3.05 112.8 -3.2 107.0 -3.25 101.2 -3.3 95.4 -3.2 89.55 -3.1 83.65 -3.1 77.75 -3.05 71.8 -3.05 70.15 -3.05 69.65 -3.75 69.65 -3.85 69.45 -4.05 69.25 -4.0 65.9 -4.05 60.0 -4.05 54.1 -4.1 48.15 -4.1 44.05 -4.05 38.25 -4.1 32.45 -4.15 26.65 -4.2 24.15 -4.2 23.65 -5.1 23.65 -5.15 23.6 -5.2 23.55 -5.2 23.35 -5.2 20.8 -5.25 14.9 -5.25 9.0 -5.25 3.1 -5.35 -2.85 -5.3 -8.75 -5.3 -14.65 -5.3 -20.55 -5.25 -21.9 -5.25 -22.85 -6.25 -22.85 -6.2 -26.5 -6.1 -32.4 -6.05 -38.3 -6.1 -44.2 -6.1 -50.1 -6.1 -55.6 -6.1 -61.15 -6.1 -63.85 -6.05 -66.65 -6.05 -68.35 -7.0 -68.35 -7.05 -68.5 -7.05 -69.45 -7.05 -72.25 -7.05 -75.75 -7.1 -79.35 -7.1 -82.9 -7.2 -86.5 -7.25 -93.8 -7.35 -103.25 -7.25 -114.25 -6.8 -115.0 -6.2 -115.25 -5.45 -115.0 -5.3 -114.6 M6.3 -115.0 L6.8 -115.25 7.35 -114.65 7.35 -114.45 7.35 -114.25 7.35 -114.1 7.35 -113.85 7.4 -111.75 7.5 -105.95 7.55 -100.15 7.6 -94.35 7.5 -88.5 7.45 -82.6 7.45 -76.7 7.4 -70.75 7.4 -68.9 6.4 -68.9 6.35 -64.85 6.4 -58.95 6.4 -53.05 6.45 -47.1 6.45 -43.0 6.4 -37.2 6.45 -31.4 6.5 -25.6 6.5 -23.0 6.25 -22.7 6.05 -22.3 5.85 -21.95 5.85 -21.9 5.5 -21.9 5.5 -19.75 5.55 -13.9 5.55 -13.85 5.55 -7.95 5.55 -2.05 5.65 3.9 5.6 9.8 5.6 15.7 5.6 21.6 5.6 23.6 4.6 23.6 4.5 27.55 4.45 33.45 4.4 39.35 4.45 45.25 4.45 51.15 4.45 56.65 4.45 62.2 4.45 64.9 4.4 67.7 4.4 70.0 4.35 70.05 4.3 70.15 3.4 70.15 3.4 70.5 3.4 73.3 3.4 76.8 3.45 80.4 3.45 83.95 3.5 87.55 3.55 94.85 3.65 104.3 3.55 115.2 3.5 115.25 3.4 115.45 3.25 115.6 3.2 115.8 3.15 116.0 3.1 116.15 2.8 116.3 2.25 116.05 2.15 115.65 2.0 113.8 2.0 112.3 2.0 111.15 2.0 109.65 2.0 102.7 2.0 95.8 2.05 88.65 2.05 81.55 2.1 77.55 2.1 73.65 2.15 70.15 3.15 70.15 3.1 67.85 3.1 62.05 3.15 56.2 3.15 50.4 3.15 44.45 3.15 38.55 3.15 32.65 3.05 26.75 3.0 23.6 4.0 23.6 4.0 20.85 4.0 14.95 3.95 9.05 3.95 3.15 3.95 -2.8 3.95 -8.7 4.0 -13.9 4.0 -14.6 4.0 -20.5 4.05 -21.9 5.05 -21.9 5.05 -26.4 5.1 -32.3 5.1 -38.2 5.15 -44.1 5.15 -50.05 5.15 -55.95 5.15 -61.85 5.15 -67.75 5.15 -68.9 6.15 -68.9 6.15 -70.75 6.15 -73.7 6.15 -76.7 6.15 -79.6 6.15 -82.6 6.15 -85.5 6.15 -88.5 6.15 -91.4 6.05 -97.4 6.05 -98.2 6.0 -104.15 6.0 -110.5 Q5.9 -112.75 6.3 -115.0" fill="#333333" fill-rule="evenodd" stroke="none"/>
    <path d="M-3.85 69.45 L-4.05 69.25 -4.15 69.15 -3.05 69.15 4.8 69.3 4.55 69.7 4.35 70.05 4.2 70.4 -3.05 70.55 -3.05 70.65 -3.4 70.65 -3.4 70.4 -3.5 70.2 -3.55 70.0 -3.6 69.8 -3.75 69.65 -3.85 69.45" fill="#333333" fill-rule="evenodd" stroke="none"/>
    <path d="M-5.5 23.05 L-5.6 22.95 -5.55 22.95 5.95 23.2 5.9 23.25 5.75 23.45 5.5 23.8 5.25 24.2 5.15 24.35 5.15 24.4 -4.65 24.65 -4.65 24.55 -4.75 24.35 -4.8 24.2 -4.85 24.0 -5.15 23.6 -5.3 23.45 -5.5 23.05" fill="#333333" fill-rule="evenodd" stroke="none"/>
    <path d="M-6.1 -22.45 L-6.45 -22.8 -6.8 -23.15 -0.7 -23.25 6.5 -22.95 6.25 -22.7 6.05 -22.3 5.85 -21.95 5.75 -21.75 5.75 -21.7 Q2.45 -21.5 -0.7 -21.6 L-5.9 -21.6 -5.9 -21.7 -5.9 -21.9 -6.0 -22.05 -6.05 -22.25 -6.1 -22.45" fill="#333333" fill-rule="evenodd" stroke="none"/>
    <path d="M7.55 -68.8 L7.0 -68.15 7.0 -68.0 1.15 -68.25 -6.9 -68.1 -6.9 -68.15 -7.0 -68.35 -7.05 -68.5 -7.1 -68.7 -7.25 -68.9 -7.3 -68.95 2.9 -69.1 4.65 -69.25 5.4 -69.15 6.9 -68.9 7.55 -68.8" fill="#333333" fill-rule="evenodd" stroke="none"/>
    <path d="M3.5 115.25 L3.4 115.45 3.25 115.6 3.2 115.8 3.15 116.0 3.15 116.1 -3.2 116.1 -3.2 115.95 -3.15 115.75 -3.15 115.55 -3.15 115.35 -3.25 115.2 3.55 115.2 3.5 115.25" fill="#333333" fill-rule="evenodd" stroke="none"/>
    <path d="M-7.15 -115.0 L-7.15 -115.15 7.25 -115.0 7.35 -115.0 7.35 -114.65 7.35 -114.45 7.35 -114.25 7.35 -114.1 7.35 -113.9 7.4 -113.75 3.25 -113.75 -7.55 -113.8 -7.55 -113.9 -7.4 -114.1 -7.3 -114.3 -7.25 -114.45 -7.2 -114.65 -7.2 -114.85 -7.15 -115.0" fill="#333333" fill-rule="evenodd" stroke="none"/>
    <path d="M-3.35 114.15 L-3.4 113.8 -3.25 113.45 -3.0 113.05 -2.65 112.8 -2.15 112.7 0.35 112.6 2.35 112.55 3.25 112.8 3.5 113.2 3.65 113.55 3.75 113.95 3.65 114.3 3.5 114.7 3.25 115.05 2.35 115.25 2.35 115.3 0.35 115.25 -2.15 115.2 -2.75 114.95 -3.15 114.55 -3.35 114.15" fill="#333333" fill-rule="evenodd" stroke="none"/>
    <path d="M1.15 111.35 L1.25 111.55 1.25 111.75 1.2 111.9 1.05 112.0 0.85 112.1 0.8 112.1 -0.45 112.1 -1.55 112.0 -1.75 111.8 -1.75 111.65 -1.7 111.45 -1.45 111.3 -0.45 111.25 0.8 111.25 1.15 111.35" fill="#333333" fill-rule="evenodd" stroke="none"/>
    <path d="M0.15 72.35 L0.25 72.55 0.25 72.75 0.2 72.9 0.05 73.0 -0.15 73.1 -0.2 73.1 -1.95 73.1 -2.2 72.95 -2.3 72.8 -2.3 72.6 -2.25 72.45 -2.15 72.35 -1.95 72.25 -0.2 72.25 0.15 72.35" fill="#333333" fill-rule="evenodd" stroke="none"/>
    <path d="M-2.2 74.45 L-0.95 74.45 -0.6 74.55 -0.45 74.75 -0.45 74.95 -0.45 75.1 -0.6 75.3 -0.9 75.4 -0.95 75.45 -2.2 75.45 -2.5 75.3 -2.6 75.1 -2.7 74.95 -2.6 74.75 -2.5 74.55 -2.2 74.45" fill="#333333" fill-rule="evenodd" stroke="none"/>
    <path d="M-3.45 39.7 L-3.55 39.55 -3.55 39.35 -3.5 39.2 -3.4 39.1 -3.15 39.0 -1.5 39.1 -1.3 39.3 -1.15 39.5 -1.05 39.7 -1.15 39.85 -1.25 39.95 -1.4 40.0 -1.55 40.0 -1.75 39.85 -2.15 39.85 -3.15 39.85 -3.45 39.7" fill="#333333" fill-rule="evenodd" stroke="none"/>
    <path d="M-0.1 42.25 L-0.15 42.45 -0.4 42.5 -0.4 42.55 -1.8 42.5 -2.25 42.3 -2.45 42.1 -2.55 41.95 -2.45 41.8 -2.15 41.6 -1.85 41.7 -1.75 41.7 -0.25 41.85 -0.05 42.05 -0.1 42.25" fill="#333333" fill-rule="evenodd" stroke="none"/>
    <path d="M-1.65 -66.15 L-3.15 -66.15 -3.4 -66.2 -3.8 -66.35 -3.95 -66.55 -4.0 -66.7 -3.85 -66.8 -3.65 -66.9 -3.4 -66.95 -3.15 -67.0 -1.65 -66.95 -1.0 -66.9 -0.8 -66.7 -0.8 -66.5 -0.9 -66.35 -1.15 -66.2 -1.65 -66.15" fill="#333333" fill-rule="evenodd" stroke="none"/>
    <path d="M2.7 -9.65 L2.6 -9.8 2.7 -10.0 3.6 -10.1 5.0 -10.05 5.25 -9.9 5.2 -9.7 5.0 -9.6 4.85 -9.55 4.85 -9.5 3.6 -9.55 2.7 -9.65" fill="#333333" fill-rule="evenodd" stroke="none"/>
    <path d="M2.7 -12.1 L2.85 -12.25 2.95 -12.2 4.35 -12.15 4.7 -12.0 4.85 -11.8 4.7 -11.65 4.35 -11.55 4.35 -11.5 2.7 -11.55 2.5 -11.75 2.6 -11.95 2.7 -12.1" fill="#333333" fill-rule="evenodd" stroke="none"/>
    <path d="M-3.0 -89.3 L-3.15 -89.1 -3.4 -88.95 -4.65 -88.9 -5.4 -88.9 -5.7 -89.05 -5.8 -89.2 -5.8 -89.4 -5.75 -89.6 -5.65 -89.65 -5.4 -89.75 -4.65 -89.8 -3.0 -89.85 -2.85 -89.65 -2.9 -89.45 -3.0 -89.3" fill="#333333" fill-rule="evenodd" stroke="none"/>
  </g>
</svg>
