<?xml version="1.0" encoding="UTF-8" standalone="no"?>
<svg xmlns:xlink="http://www.w3.org/1999/xlink" height="17.25px" width="149.75px" xmlns="http://www.w3.org/2000/svg">
  <g transform="matrix(1.0, 0.0, 0.0, 1.0, 74.85, 8.6)">
    <path d="M73.8 8.25 L-73.95 8.25 -73.95 2.5 73.8 2.5 73.8 8.25" fill="#a6b8bf" fill-rule="evenodd" stroke="none"/>
    <path d="M33.55 3.25 L-34.45 3.25 -34.45 -7.25 33.55 -7.25 33.55 3.25" fill="#a6b8bf" fill-rule="evenodd" stroke="none"/>
    <path d="M72.55 3.0 L33.8 3.0 33.8 -7.0 72.55 -7.0 72.55 3.0" fill="#ffcc66" fill-rule="evenodd" stroke="none"/>
    <path d="M-72.7 3.25 L-72.7 -6.75 -34.45 -6.75 -34.45 3.25 -72.7 3.25" fill="#ffcc66" fill-rule="evenodd" stroke="none"/>
    <path d="M73.6 4.65 L73.4 4.8 73.15 4.85 72.9 4.8 52.4 4.8 37.15 4.85 26.9 4.8 19.15 4.75 -19.6 4.75 -36.85 4.8 -59.6 4.85 -73.35 4.85 -73.75 4.75 -74.0 4.55 -74.1 4.35 -74.15 4.15 -74.15 4.0 -74.1 3.8 -74.05 3.6 -73.85 3.45 -73.65 3.3 -19.6 3.3 19.15 3.35 26.9 3.3 37.15 3.25 52.4 3.25 64.9 3.3 70.9 3.4 72.9 3.4 73.25 3.55 73.45 3.75 73.6 3.9 73.7 4.1 73.7 4.3 73.7 4.5 73.6 4.65" fill="#663333" fill-opacity="0.2" fill-rule="evenodd" stroke="none"/>
    <path d="M-72.4 2.75 L-72.3 2.9 -72.15 3.1 Q-72.05 3.45 -72.1 3.85 L-72.15 4.6 -72.15 5.55 -72.2 5.75 -72.3 5.9 -72.35 6.1 -72.4 6.3 -72.45 6.45 -72.55 6.6 -72.6 6.65 -72.85 6.7 -72.85 6.75 -73.15 6.6 -73.25 6.4 -73.25 6.25 -73.3 6.05 -73.4 5.85 -73.55 5.65 -73.5 4.95 -73.55 4.15 -73.55 3.25 -73.45 3.05 -73.35 2.85 -73.25 2.75 -73.15 2.7 -72.85 2.6 -72.4 2.75" fill="#663333" fill-opacity="0.2" fill-rule="evenodd" stroke="none"/>
    <path d="M29.65 -7.95 L29.75 -8.15 29.95 -8.25 30.1 -8.3 30.4 -8.4 30.7 -8.3 30.85 -8.25 31.1 -8.3 31.4 -8.35 31.85 -8.2 32.1 -8.0 32.2 -7.85 32.3 -5.95 32.3 -3.35 32.2 -0.9 32.15 -0.7 31.95 -0.5 31.7 -0.4 31.65 -0.35 31.4 -0.2 31.35 -0.05 31.35 0.1 31.35 0.3 31.25 0.45 31.1 0.65 30.85 0.85 30.4 0.95 30.4 1.0 29.95 0.85 29.7 0.65 29.55 0.5 29.2 0.15 28.95 -0.1 28.85 -0.25 28.75 -0.45 Q28.65 -1.3 28.7 -2.15 L28.75 -4.6 Q28.75 -5.75 29.15 -6.85 L29.25 -7.0 29.4 -7.2 29.45 -7.4 29.5 -7.55 29.55 -7.75 29.65 -7.95" fill="#663333" fill-opacity="0.2" fill-rule="evenodd" stroke="none"/>
    <path d="M31.4 -5.25 L27.15 -5.2 1.65 -5.1 -33.85 -5.1 -34.3 -5.2 -34.45 -5.4 -34.6 -5.6 -34.65 -5.75 -34.7 -5.95 -34.65 -6.15 -34.6 -6.35 -34.45 -6.5 -34.3 -6.7 -33.85 -6.85 1.65 -6.85 31.4 -6.65 31.85 -6.5 31.95 -6.35 32.05 -6.15 32.1 -5.95 32.05 -5.75 31.95 -5.6 31.85 -5.4 31.4 -5.25" fill="#663333" fill-opacity="0.2" fill-rule="evenodd" stroke="none"/>
    <path d="M72.0 -6.7 L72.2 -6.5 72.25 -6.35 72.25 -6.15 72.25 -5.95 72.1 -5.75 71.9 -5.65 71.65 -5.6 Q61.35 -5.1 51.15 -5.35 L33.4 -5.35 32.95 -5.45 32.8 -5.65 32.65 -5.85 32.6 -6.0 32.55 -6.2 32.6 -6.4 32.65 -6.6 32.8 -6.75 32.95 -6.95 33.4 -7.1 51.15 -7.15 Q61.15 -7.2 71.15 -6.8 L72.0 -6.7" fill="#663333" fill-opacity="0.2" fill-rule="evenodd" stroke="none"/>
    <path d="M34.4 -1.6 L34.25 0.65 34.3 0.85 34.35 1.05 34.2 1.25 34.2 1.4 34.2 1.6 34.15 1.8 34.0 2.0 33.65 2.1 33.35 2.0 33.1 1.8 32.9 1.6 32.8 1.4 32.75 1.25 32.75 1.05 32.8 0.85 32.9 0.65 32.95 0.5 32.95 -1.75 32.9 -4.4 32.75 -6.45 32.85 -6.65 32.9 -6.8 33.05 -7.0 33.2 -7.2 33.65 -7.35 34.1 -7.2 34.35 -7.0 34.45 -6.85 34.45 -4.4 34.4 -1.6" fill="#663333" fill-opacity="0.2" fill-rule="evenodd" stroke="none"/>
    <path d="M-33.75 -6.7 L-33.75 -6.5 -33.85 -6.35 -34.1 -6.15 -34.6 -6.05 Q-45.65 -5.6 -56.6 -5.75 L-72.85 -5.75 -73.3 -5.9 -73.55 -6.1 -73.65 -6.25 -73.75 -6.45 -73.75 -6.65 -73.75 -6.8 -73.75 -7.0 -73.6 -7.2 -73.5 -7.4 -73.3 -7.5 -73.15 -7.55 Q-53.6 -8.05 -34.1 -7.25 L-33.85 -7.1 -33.75 -6.9 -33.75 -6.7" fill="#663333" fill-opacity="0.2" fill-rule="evenodd" stroke="none"/>
    <path d="M-71.35 -6.2 L-71.35 -6.0 -71.3 -5.85 -71.15 -5.65 -71.0 -3.2 -71.1 -0.4 -71.1 1.5 -71.2 1.65 -71.35 1.85 -71.55 2.0 -71.85 2.0 -71.85 2.05 -72.25 1.9 -72.4 1.75 -72.55 1.55 -72.65 -0.7 -72.65 -3.15 -72.65 -5.0 -72.6 -5.2 -72.55 -5.4 -72.55 -5.6 -72.4 -5.75 -72.6 -5.95 -72.75 -6.15 -72.65 -6.3 -72.5 -6.5 -72.1 -6.65 -71.85 -6.7 -71.55 -6.6 -71.4 -6.35 -71.35 -6.2" fill="#663333" fill-opacity="0.2" fill-rule="evenodd" stroke="none"/>
    <path d="M-30.95 -8.05 L-30.3 -8.2 -29.45 -7.95 -28.95 -7.55 -17.3 -7.2 -16.45 -6.9 -15.95 -6.7 -15.3 -6.55 -14.8 -6.45 0.45 -6.0 1.95 -5.8 3.8 -5.95 6.55 -6.7 7.05 -6.8 9.6 -7.5 10.7 -7.7 11.55 -7.45 11.95 -7.2 19.2 -7.2 20.05 -6.95 20.7 -6.55 25.2 -6.7 26.05 -6.45 26.55 -6.05 26.7 -5.95 27.05 -6.05 28.05 -6.3 28.55 -6.55 29.2 -6.65 29.7 -6.7 30.6 -6.45 33.05 -5.95 33.55 -5.55 33.8 -5.2 33.9 -4.8 33.95 -4.05 33.95 -3.3 33.95 -2.95 33.95 -2.55 33.8 -2.2 33.55 -1.85 33.2 -1.45 33.05 -1.1 32.8 -0.7 31.8 0.45 31.3 0.7 30.7 0.8 28.7 1.3 21.2 1.05 20.55 1.05 13.7 1.3 12.8 1.05 7.55 0.95 6.2 1.3 4.95 1.55 3.95 1.85 2.8 2.2 2.2 2.25 2.2 2.3 1.3 2.05 0.95 1.65 0.7 1.3 0.55 1.05 -29.3 1.05 -29.7 1.45 -30.2 1.7 -30.8 1.8 -31.7 1.55 -32.05 1.15 -32.3 0.8 -32.45 0.45 -32.55 0.05 -32.55 -0.3 -32.55 -0.7 -32.95 -1.1 -33.2 -1.45 -33.45 -1.8 -33.55 -2.55 -33.55 -3.7 -33.55 -4.05 -33.55 -4.8 -33.55 -5.55 -33.45 -5.95 -33.3 -6.3 -33.05 -6.7 -32.7 -6.95 -32.45 -7.05 -31.8 -7.3 -31.55 -7.7 -31.2 -7.95 -30.95 -8.05" fill="#663333" fill-opacity="0.2" fill-rule="evenodd" stroke="none"/>
    <path d="M33.25 -4.7 L33.05 -4.3 32.8 -3.95 32.7 -3.2 32.65 -2.8 32.65 -2.05 32.65 -1.7 32.65 -1.3 32.65 -0.95 32.5 -0.6 32.25 -0.2 31.9 0.2 31.55 0.55 30.65 0.75 29.4 0.95 29.15 1.3 28.9 1.7 28.2 1.85 28.15 1.95 27.65 1.8 27.3 1.7 26.4 1.45 26.05 1.05 17.15 0.95 16.4 0.7 15.65 0.7 12.65 1.2 11.65 1.45 -23.45 1.3 -24.35 1.55 -25.85 1.55 -26.7 1.3 -27.1 0.95 -27.35 0.7 -27.45 0.6 -28.1 0.55 -28.35 0.8 -28.7 1.2 -29.2 1.45 -29.85 1.55 -30.35 1.55 -31.2 1.3 -31.6 1.05 -32.35 1.05 -33.2 0.8 -33.55 0.4 -33.8 0.05 -33.95 -0.3 -34.05 -1.05 -34.1 -1.45 -34.1 -2.2 -34.1 -2.55 -34.1 -2.95 -34.15 -3.2 -35.2 -3.7 -35.55 -4.1 -35.8 -4.45 -35.95 -4.8 -36.0 -5.2 -35.95 -5.55 -35.85 -5.95 -35.55 -6.3 -35.2 -6.7 -34.35 -6.95 26.3 -6.7 26.55 -7.05 26.9 -7.45 27.65 -7.7 28.55 -7.45 28.9 -7.05 29.65 -6.9 31.65 -6.8 32.55 -6.55 32.9 -6.15 33.15 -5.8 33.3 -5.45 33.3 -5.05 33.25 -4.7" fill="#663333" fill-opacity="0.2" fill-rule="evenodd" stroke="none"/>
    <path d="M69.1 -5.6 L68.8 -5.2 68.15 -4.95 60.55 -4.3 60.15 -4.05 59.65 -3.95 58.65 -3.7 58.3 -3.45 57.65 -3.3 56.05 -3.05 55.15 -2.8 49.15 -2.8 48.3 -3.05 47.65 -3.2 47.15 -2.95 47.0 -2.6 46.75 -2.2 46.55 -1.95 45.65 -1.8 41.15 -1.7 40.4 -1.95 40.05 -2.3 39.7 -2.35 39.3 -2.15 38.5 -1.45 37.8 -0.8 37.15 -0.75 37.15 -0.7 36.15 -0.7 35.4 -0.95 35.05 -1.35 34.8 -1.7 34.7 -2.05 34.65 -2.45 34.65 -2.8 34.6 -2.95 33.65 -3.25 32.9 -3.45 32.3 -3.8 32.05 -4.2 31.9 -4.55 31.95 -4.9 32.2 -5.3 32.55 -5.7 32.8 -5.95 33.05 -6.05 35.4 -6.5 36.15 -6.7 49.15 -6.7 50.05 -6.45 50.4 -6.05 50.65 -5.8 55.3 -5.8 56.15 -6.05 56.9 -6.3 57.65 -6.55 59.9 -6.55 60.15 -6.65 60.65 -6.8 68.55 -6.3 69.15 -5.95 69.1 -5.6" fill="#663333" fill-opacity="0.2" fill-rule="evenodd" stroke="none"/>
    <path d="M-33.7 -4.95 L-33.5 -4.55 -33.45 -4.2 -33.5 -3.85 -33.7 -3.45 -33.95 -3.05 -34.85 -2.8 -36.35 -2.8 -37.2 -3.05 -40.45 -3.05 -41.35 -2.8 -45.85 -2.8 -46.7 -3.05 -47.6 -3.05 -48.2 -2.7 -48.55 -2.3 -48.8 -1.95 -49.0 -1.6 -49.2 -1.2 -49.45 -0.95 -49.7 -0.85 -50.35 -0.7 -50.85 -0.7 -51.6 -0.95 -52.1 -1.3 -52.45 -1.55 Q-54.25 -1.6 -55.95 -2.3 L-56.7 -2.55 -57.8 -2.75 -58.7 -2.95 -63.45 -2.95 -64.35 -2.7 -66.85 -2.7 -67.6 -2.95 -67.95 -3.15 -68.6 -3.45 -68.95 -3.8 -69.2 -3.95 -69.85 -3.95 -70.0 -3.6 -70.2 -3.2 -70.35 -2.8 -70.35 -2.45 -70.3 -2.05 -70.2 -1.7 -69.85 -1.3 -69.45 -0.95 -69.35 -0.55 -69.35 -0.2 -69.35 0.2 -69.35 0.55 -69.45 0.95 -69.6 1.3 -69.95 1.65 -70.35 1.95 -70.8 2.0 -70.85 2.05 -71.45 1.8 -71.85 1.45 -72.2 1.05 -72.6 0.7 -72.95 0.3 -73.1 -0.05 -73.35 -0.45 -73.35 -1.2 -73.35 -2.3 -73.3 -3.8 -73.2 -4.55 -73.05 -4.95 -72.85 -5.3 -72.8 -5.7 -72.7 -6.05 -72.55 -6.45 -72.35 -6.8 -71.95 -7.05 -66.35 -7.2 -65.45 -6.9 -64.8 -6.7 -63.95 -6.45 -61.6 -6.45 -61.35 -6.8 -60.95 -7.05 -50.35 -7.2 -46.6 -6.8 Q-42.15 -7.6 -37.35 -6.95 L-36.85 -6.8 -36.1 -6.55 -35.8 -6.2 -35.45 -5.8 -34.85 -5.6 -33.95 -5.3 -33.7 -4.95" fill="#663333" fill-opacity="0.2" fill-rule="evenodd" stroke="none"/>
    <path d="M68.9 -6.2 L68.9 -5.8 68.8 -5.45 68.55 -5.05 68.05 -4.65 67.65 -4.3 67.65 -3.95 67.55 -3.55 67.25 -3.2 66.9 -2.8 66.4 -2.55 66.3 -2.45 Q62.4 -2.5 58.7 -1.4 52.5 0.45 46.15 0.55 L41.15 0.55 40.3 0.3 39.8 -0.1 39.4 -0.45 39.05 -0.8 38.15 -1.55 37.4 -1.8 37.2 -1.65 36.8 -1.3 36.3 -1.05 35.65 -0.95 34.8 -1.2 34.45 -1.6 34.2 -1.95 34.05 -2.3 33.95 -2.7 33.9 -3.05 33.9 -3.45 33.95 -3.8 34.05 -4.2 34.2 -4.55 34.45 -4.9 34.8 -5.3 35.2 -5.65 35.65 -6.05 35.9 -6.45 36.3 -6.7 36.55 -6.75 40.15 -7.25 41.15 -7.45 Q54.1 -8.45 67.15 -7.95 L68.05 -7.7 68.55 -7.3 68.75 -6.95 68.9 -6.55 68.9 -6.2" fill="#663333" fill-opacity="0.2" fill-rule="evenodd" stroke="none"/>
    <path d="M-44.95 -5.05 L-45.45 -4.3 -46.1 -3.95 -46.45 -3.55 -47.45 -3.2 -48.3 -2.8 -48.7 -2.55 -51.95 -2.2 -52.25 -1.85 -52.6 -1.45 -52.95 -1.05 -53.85 -0.8 -62.35 -0.8 -63.2 -1.1 -63.85 -1.3 -64.35 -1.2 -64.7 -0.95 Q-68.45 -1.15 -70.35 -0.2 L-70.5 0.15 -70.7 0.55 -70.95 0.8 -71.2 0.9 -71.8 1.0 -71.85 1.05 -72.35 1.05 -73.1 0.8 -73.45 0.4 -73.7 0.05 -73.85 -0.3 -73.85 -0.7 -73.8 -1.05 -73.7 -1.45 -73.45 -1.8 -74.1 -2.2 -74.45 -2.6 -74.7 -2.95 -74.85 -3.3 -74.75 -3.65 -74.6 -4.1 -74.45 -4.45 -74.4 -4.8 -74.4 -5.2 -74.45 -5.55 -74.45 -5.95 -74.35 -6.3 -74.2 -6.7 -73.95 -7.05 -73.7 -7.3 Q-59.25 -7.95 -44.95 -7.7 L-44.6 -7.3 -44.4 -6.9 -44.35 -6.55 -44.35 -6.2 -44.5 -5.85 -44.95 -5.05" fill="#663333" fill-opacity="0.2" fill-rule="evenodd" stroke="none"/>
    <path d="M-72.45 2.6 L-71.85 2.45 -70.95 2.7 -70.7 3.05 -70.45 3.45 -70.2 3.8 -70.2 4.2 -70.2 4.55 -70.2 5.3 -70.2 6.05 -70.2 6.45 -70.25 6.8 -70.45 7.15 -70.85 7.55 -71.2 7.8 -71.8 7.85 -71.85 7.95 -72.6 7.7 -73.1 7.3 -73.35 6.95 -73.4 6.55 -73.45 5.8 -73.4 4.7 -73.35 3.95 -73.2 3.55 -72.95 3.2 -72.7 2.8 -72.45 2.6" fill="#663333" fill-opacity="0.2" fill-rule="evenodd" stroke="none"/>
    <path d="M-62.35 4.3 L-62.1 4.7 -61.95 5.05 -62.0 5.45 -62.1 5.8 -62.2 6.2 -62.35 6.95 -62.6 7.15 -62.85 7.3 -63.35 7.45 -63.85 7.45 -64.6 7.45 -65.35 7.55 -65.95 7.3 -66.3 6.9 -66.6 6.55 -66.6 6.2 -66.6 5.8 -66.6 5.45 -66.6 5.05 -66.6 4.7 -66.45 4.3 -66.2 3.95 -65.85 3.7 -65.35 3.55 -63.85 3.55 -63.35 3.7 -62.6 3.95 -62.35 4.3" fill="#663333" fill-opacity="0.2" fill-rule="evenodd" stroke="none"/>
    <path d="M-55.35 4.35 L-54.85 4.2 -54.35 4.2 -53.6 4.45 -53.35 4.8 -53.2 5.2 -53.2 5.55 -53.25 5.95 -53.35 6.3 -53.6 6.7 -54.3 6.85 -54.35 6.95 -54.95 6.7 -55.2 6.45 -55.35 6.3 -55.95 6.05 -56.2 5.65 -56.35 5.3 -56.2 4.95 -55.95 4.55 -55.35 4.35" fill="#663333" fill-opacity="0.2" fill-rule="evenodd" stroke="none"/>
    <path d="M-46.85 4.2 L-46.2 4.3 -45.6 4.2 -45.7 4.55 -45.7 4.95 -45.7 5.3 -45.75 5.65 -46.0 6.05 -46.35 6.45 -46.6 6.7 -46.85 6.75 -47.3 6.85 -47.35 6.95 -47.95 6.7 -48.2 6.3 -48.35 5.9 -48.35 5.55 -48.2 5.2 -47.95 4.8 -47.45 4.45 -46.85 4.2" fill="#663333" fill-opacity="0.2" fill-rule="evenodd" stroke="none"/>
    <path d="M-69.35 5.3 L-73.35 5.3 -73.95 5.05 -74.2 4.65 -74.35 4.3 -74.2 3.95 -73.95 3.55 -73.35 3.3 -38.1 4.45 Q-53.7 5.7 -69.35 5.3" fill="#663333" fill-opacity="0.2" fill-rule="evenodd" stroke="none"/>
    <path d="M29.65 -7.95 L30.55 -7.7 31.05 -7.3 31.25 -6.95 31.45 -6.6 31.65 -6.2 31.8 -5.8 31.9 -5.45 31.9 -5.05 31.95 -4.3 32.0 -3.55 32.05 -3.2 31.9 -2.8 31.45 -2.1 30.75 -0.9 30.05 0.05 29.8 0.15 29.05 0.45 28.8 0.65 28.25 1.05 27.8 1.3 12.8 1.7 12.3 1.8 11.8 1.95 11.2 2.0 11.15 2.05 8.65 2.05 7.8 1.8 7.45 1.4 7.2 1.05 7.05 0.7 6.95 0.3 6.9 -0.05 6.9 -0.45 7.05 -0.8 7.3 -1.15 7.7 -1.55 8.05 -1.8 8.65 -1.9 13.9 -2.2 13.9 -2.55 13.9 -2.95 13.9 -3.3 13.95 -3.7 14.05 -4.05 14.2 -4.45 14.4 -4.8 14.65 -5.2 15.15 -5.55 15.55 -5.8 16.15 -5.9 20.65 -5.95 21.55 -5.7 22.3 -5.7 22.7 -6.05 23.05 -6.3 23.65 -6.4 24.65 -6.45 25.65 -6.55 26.3 -6.9 27.15 -7.35 27.8 -7.7 28.65 -7.95 29.65 -7.95" fill="#663333" fill-opacity="0.2" fill-rule="evenodd" stroke="none"/>
    <path d="M73.65 6.2 L74.4 6.45 74.65 6.8 74.4 7.2 73.65 7.45 70.65 7.55 60.15 7.75 59.65 7.8 -68.35 7.65 -74.1 7.45 -74.45 7.05 -74.5 6.7 -74.35 6.3 -73.85 6.05 -70.35 6.0 59.65 5.8 60.15 5.95 70.65 6.1 73.65 6.2" fill="#ffff99" fill-opacity="0.2" fill-rule="evenodd" stroke="none"/>
    <path d="M70.8 4.45 L70.85 4.05 70.9 3.85 71.0 3.65 71.2 3.55 71.35 3.5 71.65 3.4 72.1 3.55 72.25 3.65 72.35 3.7 72.65 3.75 72.95 3.8 73.35 3.9 73.5 4.1 73.65 4.3 73.65 4.5 73.65 4.65 73.65 4.85 73.65 5.05 73.55 5.25 73.45 5.4 73.35 5.6 73.2 5.8 73.2 6.0 73.25 6.35 73.25 6.55 73.25 6.75 73.2 7.1 73.15 7.3 72.95 7.5 72.7 7.6 72.4 7.65 71.95 7.55 71.8 7.35 71.65 7.15 71.3 6.95 71.0 6.8 70.9 6.6 70.85 6.4 70.75 6.25 70.75 6.05 70.75 5.85 70.65 5.65 70.4 5.5 70.2 5.3 70.4 5.15 70.7 5.3 70.75 5.15 70.75 4.8 70.75 4.6 70.8 4.45" fill="#ffff99" fill-opacity="0.2" fill-rule="evenodd" stroke="none"/>
    <path d="M71.75 -6.65 L71.8 -6.45 71.85 -6.25 71.9 -6.1 71.95 -5.9 71.95 -3.65 71.95 -0.85 71.95 1.4 71.95 1.6 71.85 1.8 71.7 2.0 71.5 2.15 71.25 2.3 70.9 2.35 70.4 2.25 70.15 2.05 70.05 1.85 69.95 1.7 69.85 1.5 69.85 -0.75 69.85 -3.6 69.85 -5.85 69.9 -6.0 69.95 -6.2 70.0 -6.4 70.1 -6.6 70.2 -6.75 70.4 -6.95 70.6 -7.1 70.9 -7.15 71.35 -7.0 71.6 -6.8 71.75 -6.65" fill="#ffff99" fill-opacity="0.2" fill-rule="evenodd" stroke="none"/>
    <path d="M72.25 -1.6 L72.35 -1.45 72.35 -1.25 72.3 -1.1 72.25 -0.9 72.2 -0.7 72.0 -0.5 71.85 -0.4 71.7 -0.35 71.35 -0.2 71.6 0.0 71.85 0.2 72.0 0.35 72.2 0.55 72.25 0.75 72.3 0.95 72.35 1.1 72.35 1.3 72.35 1.5 72.3 1.65 72.25 1.85 72.2 2.05 72.0 2.25 71.85 2.35 71.7 2.4 71.4 2.45 71.4 2.5 70.15 2.5 69.7 2.35 64.65 2.3 64.2 2.15 63.95 2.0 63.85 1.8 63.7 1.6 63.65 1.4 63.65 1.25 63.65 1.05 63.7 0.85 63.75 0.65 63.85 0.5 63.95 0.3 64.15 0.1 64.45 -0.05 64.9 -0.25 65.15 -0.45 65.35 -0.6 65.65 -0.65 66.9 -0.75 67.15 -0.95 67.45 -1.15 67.7 -1.3 68.7 -1.95 69.2 -2.25 69.65 -2.4 70.15 -2.4 70.6 -2.3 71.4 -2.1 71.85 -2.0 72.1 -1.8 72.25 -1.6" fill="#ffff99" fill-opacity="0.2" fill-rule="evenodd" stroke="none"/>
    <path d="M64.65 4.6 L65.1 4.75 65.25 4.9 65.45 5.1 65.6 5.3 65.6 5.5 65.6 5.65 65.6 5.85 65.55 6.05 65.45 6.25 65.2 6.45 65.05 6.6 64.9 6.8 64.7 6.9 64.4 6.95 64.4 7.0 64.0 6.85 63.75 6.8 63.4 6.85 63.1 6.75 62.95 6.55 62.9 6.35 62.9 6.15 62.95 6.0 63.1 5.8 63.2 5.6 63.2 5.4 63.2 5.25 63.3 5.05 63.4 4.85 63.5 4.75 63.6 4.7 63.9 4.65 64.65 4.6" fill="#ffff99" fill-opacity="0.2" fill-rule="evenodd" stroke="none"/>
    <path d="M56.7 5.4 L56.8 5.6 56.85 5.8 56.8 6.0 56.7 6.15 56.6 6.35 56.4 6.6 56.35 6.75 56.3 6.9 56.25 7.1 56.15 7.3 55.95 7.4 55.65 7.45 55.65 7.5 55.25 7.35 55.1 7.15 55.0 7.0 54.95 6.8 54.95 6.7 54.5 6.55 54.35 6.35 54.15 6.2 53.7 5.8 53.9 5.65 54.2 5.8 54.5 6.0 55.0 5.85 55.1 5.7 55.2 5.5 55.45 5.3 55.6 5.2 55.9 5.15 56.15 5.1 56.6 5.25 56.7 5.4" fill="#ffff99" fill-opacity="0.2" fill-rule="evenodd" stroke="none"/>
    <path d="M48.9 5.55 L48.9 5.75 48.9 5.9 48.85 6.1 48.85 6.3 48.7 6.5 48.5 6.65 48.35 6.85 47.95 7.0 47.65 7.0 47.65 7.05 47.4 7.05 46.9 7.05 46.65 7.05 46.2 6.9 45.85 6.7 45.6 6.55 45.5 6.35 45.4 6.15 45.4 6.0 45.45 5.8 45.45 5.6 45.45 5.4 45.6 5.25 45.7 5.05 47.15 4.85 47.9 5.0 48.6 5.15 48.75 5.35 48.9 5.55" fill="#ffff99" fill-opacity="0.2" fill-rule="evenodd" stroke="none"/>
    <path d="M38.0 5.25 L38.1 5.05 38.2 4.9 38.35 4.85 38.65 4.8 39.4 4.9 39.85 5.0 39.95 5.15 40.05 5.35 40.1 5.55 40.05 5.75 40.0 5.9 39.95 6.1 39.9 6.3 39.75 6.5 39.6 6.65 39.25 6.85 39.0 7.0 38.9 7.05 38.65 7.1 37.9 7.05 37.65 7.0 37.25 6.85 37.1 6.65 37.05 6.5 37.15 6.3 37.4 6.15 37.6 6.05 37.45 5.85 37.5 5.7 37.65 5.55 37.9 5.4 38.0 5.25" fill="#ffff99" fill-opacity="0.2" fill-rule="evenodd" stroke="none"/>
    <path d="M30.4 4.65 L30.75 4.8 30.95 5.0 31.0 5.2 31.0 5.35 31.0 5.55 31.0 5.75 30.9 5.9 30.85 6.1 30.85 6.3 30.7 6.5 30.5 6.6 30.15 6.7 28.9 7.0 28.5 6.85 28.35 6.65 28.25 6.5 28.2 6.3 28.15 6.15 27.95 6.1 27.5 6.0 27.4 5.8 27.35 5.6 27.4 5.55 27.6 5.55 27.65 5.55 28.15 5.4 28.25 5.25 28.35 5.05 28.45 4.85 28.65 4.75 28.9 4.65 30.4 4.65" fill="#ffff99" fill-opacity="0.2" fill-rule="evenodd" stroke="none"/>
    <path d="M20.65 4.6 L21.1 4.75 21.2 4.9 21.35 5.1 21.35 5.3 21.3 5.5 21.3 5.7 21.25 5.85 21.25 6.05 21.1 6.25 20.8 6.6 20.65 6.8 20.45 6.9 20.15 6.95 20.15 7.0 19.4 7.0 19.0 6.85 18.85 6.65 18.75 6.5 18.75 6.3 18.7 6.1 18.7 5.9 18.7 5.75 18.8 5.55 18.9 5.35 19.0 5.25 19.1 5.2 19.4 5.05 19.6 4.85 19.75 4.75 19.85 4.7 20.15 4.65 20.65 4.6" fill="#ffff99" fill-opacity="0.2" fill-rule="evenodd" stroke="none"/>
    <path d="M13.55 6.2 L12.95 6.6 12.7 6.75 12.4 6.75 12.4 6.8 11.4 6.8 11.0 6.65 10.85 6.5 10.65 6.3 10.45 6.1 10.2 5.9 10.1 5.75 10.25 5.75 10.7 5.65 10.7 5.55 10.7 5.35 10.75 5.2 10.85 5.0 10.95 4.8 11.1 4.75 13.15 4.6 13.6 4.75 13.7 4.9 13.85 5.1 13.85 5.3 13.8 5.5 13.8 5.7 13.75 5.85 13.75 6.05 13.55 6.2" fill="#ffff99" fill-opacity="0.2" fill-rule="evenodd" stroke="none"/>
    <path d="M4.95 6.1 L4.75 6.3 4.6 6.5 4.4 6.6 4.15 6.65 3.9 6.7 2.95 6.75 2.65 6.75 2.65 6.8 2.25 6.65 2.0 6.5 1.7 6.5 1.4 6.3 1.2 6.1 1.25 5.95 1.4 5.8 1.9 5.65 2.0 5.5 2.1 5.3 2.3 5.1 2.5 4.9 2.9 4.8 4.4 4.85 4.85 5.0 4.95 5.15 5.05 5.35 5.1 5.55 5.05 5.75 5.0 5.9 4.95 6.1" fill="#ffff99" fill-opacity="0.2" fill-rule="evenodd" stroke="none"/>
    <path d="M-5.1 4.6 L-4.65 4.75 -4.55 4.9 -4.4 5.1 -4.4 5.3 -4.4 5.5 -4.4 5.65 -4.4 5.85 -4.4 6.05 -4.45 6.25 -4.55 6.4 -4.65 6.6 -5.0 6.8 -5.35 6.9 -6.1 6.85 -6.6 6.8 -6.9 6.65 -7.05 6.5 -7.35 6.3 -7.5 6.1 -7.4 5.95 -7.25 5.75 -6.9 5.75 -6.65 5.75 -6.55 5.55 -6.4 5.35 -6.2 5.2 -6.0 5.0 -5.55 4.8 -5.4 4.65 -5.1 4.6" fill="#ffff99" fill-opacity="0.2" fill-rule="evenodd" stroke="none"/>
    <path d="M-12.1 5.6 L-12.15 5.8 -12.25 6.0 -12.4 6.15 -12.6 6.35 -12.8 6.5 -14.5 6.6 -14.55 6.65 -14.8 6.75 -15.1 6.75 -15.1 6.8 -15.5 6.65 -15.65 6.55 -16.1 6.45 -16.55 6.35 -16.85 6.15 -17.1 6.0 -17.2 5.8 -17.3 5.6 -17.25 5.45 -17.15 5.25 -17.05 5.05 -16.9 4.95 -16.6 4.85 -16.15 5.0 -15.9 4.85 -15.75 4.65 -15.35 4.55 -12.85 4.55 -12.4 4.65 -12.25 4.85 -12.1 5.05 -12.1 5.25 -12.1 5.4 -12.1 5.6" fill="#ffff99" fill-opacity="0.2" fill-rule="evenodd" stroke="none"/>
    <path d="M-22.3 5.4 L-22.15 5.6 -22.15 5.8 -22.15 6.0 -22.15 6.15 -22.15 6.35 -22.2 6.55 -22.3 6.75 -22.45 6.95 -22.5 7.1 -22.65 7.1 -22.9 7.1 -23.35 7.2 -23.35 7.25 -24.1 7.25 -24.5 7.1 -24.65 6.9 -24.75 6.75 -24.75 6.55 -24.8 6.35 -24.8 6.15 -24.85 6.0 -25.0 5.8 -24.85 5.7 -24.55 5.55 -24.4 5.35 -24.25 5.25 -24.15 5.2 -23.85 5.15 -22.85 5.1 -22.4 5.25 -22.3 5.4" fill="#ffff99" fill-opacity="0.2" fill-rule="evenodd" stroke="none"/>
    <path d="M-29.6 5.45 L-29.5 5.6 -29.4 5.8 -29.4 6.0 -29.45 6.15 -29.5 6.35 -29.6 6.55 -29.8 6.75 -30.05 6.9 -30.25 7.05 -30.35 7.1 -30.6 7.15 -31.85 7.05 -32.4 6.9 -32.55 6.75 -32.75 6.55 -32.9 6.35 -32.9 6.15 -32.8 6.05 -32.6 6.0 -32.15 5.95 -32.05 5.85 -32.05 5.65 -32.0 5.5 -32.0 5.3 -31.85 5.1 -31.75 5.0 -31.65 4.95 -30.85 4.9 -30.0 5.05 -29.8 5.25 -29.6 5.45" fill="#ffff99" fill-opacity="0.2" fill-rule="evenodd" stroke="none"/>
    <path d="M-38.85 4.65 L-38.0 4.8 -37.8 5.0 -37.75 5.2 -37.7 5.35 -37.7 5.55 -37.65 5.75 -37.65 6.1 -37.7 6.3 -37.8 6.5 -38.0 6.6 -38.05 6.65 -38.35 6.7 -38.35 6.75 -39.6 6.7 -39.9 6.7 -40.6 6.6 -40.9 6.5 -41.05 6.3 -41.1 6.1 -41.1 5.9 -41.05 5.75 -40.95 5.65 -40.85 5.55 -40.6 5.5 -40.3 5.35 -40.25 5.2 -40.15 5.0 -40.05 4.8 -39.9 4.7 -39.6 4.65 -38.85 4.65" fill="#ffff99" fill-opacity="0.2" fill-rule="evenodd" stroke="none"/>
    <path d="M-48.55 5.25 L-48.5 5.45 -48.45 5.6 -48.4 6.0 -48.4 6.15 -48.4 6.35 -48.45 6.55 -48.55 6.75 -48.75 6.85 -48.8 6.9 -49.1 6.95 -49.1 7.0 -50.1 6.95 -50.85 6.8 -51.15 6.65 -51.3 6.5 -51.4 6.3 -51.5 6.1 -51.5 5.9 -51.4 5.8 -51.1 5.6 -50.8 5.65 -50.65 5.6 -50.6 5.45 -50.4 5.25 -50.15 5.05 -49.85 4.9 -49.1 4.9 -48.75 5.05 -48.55 5.25" fill="#ffff99" fill-opacity="0.2" fill-rule="evenodd" stroke="none"/>
    <path d="M-58.1 4.55 L-57.35 4.55 -57.05 4.6 -56.65 4.75 -56.55 4.9 -56.4 5.1 -56.4 5.3 -56.4 5.5 -56.4 5.65 -56.5 5.85 -56.6 6.05 -56.8 6.25 -57.15 6.6 -57.6 6.8 -57.8 6.9 -58.1 6.95 -58.1 7.0 -59.85 6.95 -60.15 6.9 -60.35 6.75 -60.45 6.55 -60.55 6.35 -60.55 6.15 -60.5 6.0 -60.5 5.8 -60.4 5.6 -60.35 5.4 -60.2 5.3 -59.85 5.2 -58.9 5.05 -58.7 4.85 -58.5 4.65 -58.1 4.55" fill="#ffff99" fill-opacity="0.2" fill-rule="evenodd" stroke="none"/>
    <path d="M-65.4 6.15 L-65.5 6.35 -65.6 6.55 -65.75 6.75 -66.05 6.9 -66.4 7.1 -66.85 7.2 -66.85 7.25 -67.1 7.25 -67.5 7.1 -67.65 6.9 -67.75 6.75 -67.75 6.55 -67.8 6.35 -67.8 6.15 -67.75 5.8 -67.75 5.6 -67.65 5.45 -67.5 5.25 -67.15 5.05 -66.85 4.9 -66.1 4.9 -65.75 5.05 -65.55 5.25 -65.5 5.4 -65.45 5.6 -65.4 5.8 -65.4 6.0 -65.4 6.15" fill="#ffff99" fill-opacity="0.2" fill-rule="evenodd" stroke="none"/>
    <path d="M23.45 -4.7 L23.45 -4.3 23.45 -3.95 23.45 -3.55 23.45 -3.2 23.6 -2.85 23.95 -2.45 24.35 -2.1 24.8 -1.7 25.2 -1.45 25.95 -1.2 26.3 -0.8 26.95 -0.45 26.95 -0.15 26.45 0.3 26.05 0.65 25.7 0.9 25.05 1.15 24.2 1.45 23.7 1.45 22.95 1.2 22.2 1.1 21.45 1.05 21.05 1.2 20.8 1.3 20.3 1.4 19.7 1.55 18.8 1.3 18.45 0.95 18.05 0.7 13.3 0.6 Q7.2 0.35 1.7 2.05 L-10.8 1.85 -13.7 1.3 -14.05 0.9 -14.3 0.55 -14.45 0.2 -14.5 -0.2 -14.45 -0.55 -14.3 -0.95 -14.05 -1.3 -13.7 -1.7 -12.8 -1.95 -7.7 -2.2 -6.45 -2.65 Q-5.25 -3.15 -4.2 -3.9 -2.85 -4.75 -1.3 -5.2 L-0.8 -5.55 -0.55 -5.95 0.1 -6.3 Q1.7 -7.1 3.55 -7.15 L15.2 -7.45 16.2 -7.25 20.2 -6.95 21.05 -6.7 21.7 -6.45 22.55 -6.2 23.05 -5.8 23.3 -5.45 23.4 -5.05 23.45 -4.7" fill="#663333" fill-opacity="0.2" fill-rule="evenodd" stroke="none"/>
    <path d="M70.6 3.05 L70.95 3.45 71.15 3.8 71.2 4.2 71.2 4.55 71.05 4.9 70.8 5.3 70.6 5.55 69.7 5.7 -57.3 5.95 -57.8 5.9 -67.85 5.8 -72.85 5.7 -73.6 5.45 -73.9 5.0 -74.1 4.7 -74.15 4.3 -74.1 3.95 -73.95 3.55 -73.6 3.2 -72.85 2.95 -57.8 2.8 69.7 2.8 70.6 3.05" fill="#663333" fill-opacity="0.2" fill-rule="evenodd" stroke="none"/>
    <path d="M73.2 7.15 L73.4 7.35 73.6 7.55 73.4 7.75 73.2 7.95 73.1 8.1 72.7 8.2 71.4 8.35 Q58.65 8.85 45.9 8.45 37.9 8.15 29.9 8.1 3.9 7.95 -13.2 8.25 L-38.7 8.45 -53.25 8.2 Q-59.5 8.0 -64.85 8.25 L-72.6 8.5 -73.05 8.35 -73.3 8.15 -73.4 8.0 -73.5 7.8 -73.5 7.6 -73.5 7.45 -73.5 7.25 -73.35 7.05 -73.25 6.85 -73.05 6.75 -72.9 6.7 -68.35 6.6 -63.35 6.8 Q-41.95 6.55 -20.6 6.7 25.9 7.05 72.4 6.9 L73.1 7.0 73.2 7.15" fill="#333333" fill-rule="evenodd" stroke="none"/>
    <path d="M73.6 2.8 L73.7 2.65 73.85 2.6 74.15 2.5 74.6 2.65 74.7 2.75 74.85 2.9 74.85 4.6 74.8 6.45 74.7 7.75 74.6 7.9 74.4 8.0 74.15 8.05 73.85 7.95 73.7 7.8 73.6 7.65 73.5 6.1 73.4 4.25 73.45 2.95 73.6 2.8" fill="#333333" fill-rule="evenodd" stroke="none"/>
    <path d="M73.2 -4.35 L73.1 -1.3 73.0 0.55 73.0 0.8 72.9 1.0 72.8 1.15 72.7 1.35 72.4 1.5 72.4 1.55 72.1 1.3 72.0 1.15 71.95 1.0 71.85 0.8 71.65 -2.1 71.6 -5.15 71.6 -7.0 71.65 -7.15 71.75 -7.4 72.0 -7.6 72.4 -7.7 72.85 -7.6 73.0 -7.4 73.15 -7.15 73.2 -4.35" fill="#333333" fill-rule="evenodd" stroke="none"/>
    <path d="M73.35 2.25 L73.5 2.4 73.85 2.6 74.0 2.8 74.0 3.0 74.0 3.15 73.95 3.35 73.75 3.55 73.4 3.65 73.15 3.6 Q61.35 3.3 49.4 3.5 L47.65 3.5 45.65 3.4 18.4 3.4 14.65 3.4 0.9 3.55 -6.35 3.6 -17.1 3.65 -49.6 3.65 -63.85 3.6 -73.35 3.6 -73.6 3.6 -74.0 3.5 -74.25 3.3 -74.35 3.1 -74.4 2.9 -74.4 2.75 -74.35 2.55 -74.3 2.35 -74.1 2.2 -73.9 2.05 -73.35 2.0 -63.85 1.95 -49.6 1.9 Q-24.35 1.8 0.9 2.05 L7.15 2.1 18.4 2.2 45.65 2.2 46.4 2.2 47.65 2.1 49.4 2.1 70.4 2.1 72.9 2.1 73.35 2.25" fill="#333333" fill-rule="evenodd" stroke="none"/>
    <path d="M-74.35 3.75 L-74.3 3.6 -74.15 3.45 -74.0 3.3 -73.6 3.25 -73.15 3.3 -73.0 3.45 -72.85 3.6 -72.9 5.2 -73.0 6.9 -73.1 8.2 -73.15 8.3 -73.3 8.45 -73.6 8.55 -73.9 8.45 -74.05 8.35 -74.25 6.8 -74.3 5.05 -74.35 3.75" fill="#333333" fill-rule="evenodd" stroke="none"/>
    <path d="M-71.9 -7.85 L-71.85 -5.2 -71.95 -1.95 -72.0 0.7 -71.95 0.9 -71.75 1.1 -71.6 1.3 -71.55 1.55 -71.55 1.7 -71.6 1.9 -71.75 2.1 -71.85 2.15 -72.1 2.2 -72.45 2.05 -72.85 1.85 -73.0 1.65 -73.1 1.45 -73.25 -1.6 -73.35 -5.1 -73.3 -7.7 -73.2 -7.9 -73.1 -8.15 -73.0 -8.25 -72.9 -8.3 -72.6 -8.4 -72.15 -8.25 -72.05 -8.1 -71.9 -7.85" fill="#333333" fill-rule="evenodd" stroke="none"/>
    <path d="M-71.6 -8.35 L-67.1 -8.4 -50.85 -8.3 -33.85 -8.2 -32.35 -8.2 Q-26.25 -8.2 -20.1 -8.35 L-12.6 -8.4 33.65 -8.4 48.15 -8.5 70.65 -8.4 71.65 -8.35 72.1 -8.25 72.4 -8.05 72.5 -7.8 72.6 -7.65 72.6 -7.4 72.55 -7.2 72.45 -6.95 72.2 -6.8 71.95 -6.65 71.65 -6.55 70.65 -6.5 67.9 -6.45 42.15 -6.5 26.65 -6.7 16.65 -6.7 9.65 -6.45 9.5 -6.45 9.15 -6.35 2.65 -6.35 -4.85 -6.4 -12.6 -6.5 -24.35 -6.75 -33.85 -6.75 -42.85 -6.65 Q-48.5 -6.5 -54.1 -6.5 L-67.1 -6.5 -72.85 -6.75 -73.75 -6.85 -73.9 -7.1 -74.05 -7.25 -74.15 -7.45 -74.25 -7.7 -74.2 -7.85 -74.1 -8.1 -73.9 -8.3 -73.6 -8.5 -73.35 -8.35 -73.25 -8.3 -72.85 -8.3 -71.6 -8.35" fill="#333333" fill-rule="evenodd" stroke="none"/>
    <path d="M71.65 3.0 Q52.4 3.4 33.1 3.1 L33.1 2.5 33.05 2.5 28.45 2.4 Q24.75 2.3 18.85 2.35 L12.15 2.45 10.8 2.45 7.8 2.55 -14.7 2.75 -33.8 2.75 -33.8 3.2 -60.5 3.15 -71.35 3.0 -71.75 2.95 -72.0 2.75 -72.1 2.55 -72.15 2.35 -72.15 2.2 -72.1 2.0 -72.05 1.8 -71.85 1.65 -71.65 1.5 -71.35 1.45 -33.8 1.25 -33.55 0.25 Q-14.6 0.55 -1.15 0.45 L23.25 0.3 32.4 0.25 Q32.05 0.35 31.95 0.6 31.65 1.1 32.15 1.15 32.6 1.15 33.1 0.35 L33.1 1.75 Q49.65 1.45 66.2 1.65 L71.65 1.75 72.0 1.9 72.2 2.1 72.25 2.25 72.25 2.45 72.25 2.65 72.1 2.85 71.9 2.95 71.65 3.0" fill="#333333" fill-rule="evenodd" stroke="none"/>
    <path d="M66.85 4.65 L67.0 4.85 67.1 5.05 67.15 5.25 67.15 5.4 67.05 5.6 66.95 5.8 66.95 6.0 66.95 6.2 66.95 6.55 66.95 6.9 66.9 7.1 66.75 7.3 66.6 7.5 66.15 7.6 65.75 7.5 65.5 7.3 65.4 7.1 65.35 6.9 65.3 6.55 65.35 6.0 65.4 5.6 65.45 5.45 65.5 5.25 65.6 5.05 65.8 4.85 66.0 4.65 66.4 4.55 66.85 4.65" fill="#333333" fill-rule="evenodd" stroke="none"/>
    <path d="M58.0 5.05 L58.15 5.25 58.2 5.6 58.2 6.2 58.15 6.75 58.15 7.1 58.1 7.3 58.0 7.5 57.85 7.65 57.4 7.75 57.4 7.8 57.0 7.65 56.85 7.5 56.7 7.3 56.65 7.1 56.65 6.9 56.65 6.75 56.65 6.55 56.65 6.35 56.6 6.15 56.5 6.0 56.45 5.8 56.5 5.6 56.6 5.4 56.65 5.25 56.75 5.05 57.0 4.85 57.4 4.75 57.85 4.85 58.0 5.05" fill="#333333" fill-rule="evenodd" stroke="none"/>
    <path d="M49.35 4.65 L49.5 4.85 49.6 5.05 49.65 5.25 49.65 5.4 49.55 5.6 49.45 5.8 49.45 6.0 49.45 6.2 49.45 6.55 49.45 6.9 49.4 7.1 49.25 7.3 49.1 7.5 48.65 7.6 48.25 7.5 48.0 7.3 47.9 7.1 47.85 6.9 47.8 6.55 47.85 6.0 47.9 5.6 47.95 5.45 48.0 5.25 48.1 5.05 48.3 4.85 48.5 4.65 48.9 4.55 49.35 4.65" fill="#333333" fill-rule="evenodd" stroke="none"/>
    <path d="M40.65 5.25 L40.7 5.6 40.7 6.2 40.65 6.75 40.65 7.1 40.6 7.3 40.5 7.5 40.35 7.65 39.9 7.75 39.9 7.8 39.5 7.65 39.35 7.5 39.2 7.3 39.15 7.1 39.15 6.9 39.15 6.75 39.15 6.55 39.15 6.35 39.1 6.15 39.0 6.0 38.95 5.8 39.0 5.6 39.1 5.4 39.15 5.25 39.25 5.05 39.5 4.85 39.9 4.75 40.35 4.85 40.5 5.05 40.65 5.25" fill="#333333" fill-rule="evenodd" stroke="none"/>
    <path d="M31.85 4.65 L32.0 4.85 32.1 5.05 32.15 5.25 32.15 5.4 32.05 5.6 31.95 5.8 31.95 6.0 31.95 6.2 31.95 6.55 31.95 6.9 31.9 7.1 31.75 7.3 31.6 7.5 31.15 7.6 30.75 7.5 30.5 7.3 30.4 7.1 30.35 6.9 30.3 6.55 30.35 6.0 30.4 5.6 30.45 5.45 30.5 5.25 30.6 5.05 30.8 4.85 31.0 4.65 31.4 4.55 31.85 4.65" fill="#333333" fill-rule="evenodd" stroke="none"/>
    <path d="M23.15 5.25 L23.2 5.6 23.2 6.2 23.15 6.75 23.15 7.1 23.1 7.3 23.0 7.5 22.85 7.65 22.4 7.75 22.4 7.8 22.0 7.65 21.85 7.5 21.7 7.3 21.65 7.1 21.65 6.9 21.65 6.75 21.65 6.55 21.65 6.35 21.6 6.15 21.5 6.0 21.45 5.8 21.5 5.6 21.6 5.4 21.65 5.25 21.75 5.05 22.0 4.85 22.4 4.75 22.85 4.85 23.0 5.05 23.15 5.25" fill="#333333" fill-rule="evenodd" stroke="none"/>
    <path d="M14.35 4.65 L14.5 4.85 14.6 5.05 14.65 5.25 14.65 5.4 14.55 5.6 14.45 5.8 14.45 6.0 14.45 6.2 14.45 6.55 14.45 6.9 14.4 7.1 14.25 7.3 14.1 7.5 13.65 7.6 13.25 7.5 13.0 7.3 12.9 7.1 12.85 6.9 12.8 6.55 12.85 6.0 12.9 5.6 12.95 5.45 13.0 5.25 13.1 5.05 13.3 4.85 13.5 4.65 13.9 4.55 14.35 4.65" fill="#333333" fill-rule="evenodd" stroke="none"/>
    <path d="M5.7 5.6 L5.7 6.2 5.65 6.75 5.65 7.1 5.6 7.3 5.5 7.5 5.35 7.65 4.9 7.75 4.9 7.8 4.5 7.65 4.35 7.5 4.2 7.3 4.15 7.1 4.15 6.9 4.15 6.75 4.15 6.55 4.15 6.35 4.1 6.15 4.0 6.0 3.95 5.8 4.0 5.6 4.1 5.4 4.15 5.25 4.25 5.05 4.5 4.85 4.9 4.75 5.35 4.85 5.5 5.05 5.65 5.25 5.7 5.6" fill="#333333" fill-rule="evenodd" stroke="none"/>
    <path d="M-3.15 4.65 L-3.0 4.85 -2.9 5.05 -2.85 5.25 -2.85 5.4 -2.95 5.6 -3.05 5.8 -3.05 6.0 -3.05 6.2 -3.05 6.55 -3.05 6.9 -3.1 7.1 -3.25 7.3 -3.4 7.5 -3.85 7.6 -4.25 7.5 -4.5 7.3 -4.6 7.1 -4.65 6.9 -4.7 6.55 -4.65 6.0 -4.6 5.6 -4.55 5.45 -4.5 5.25 -4.4 5.05 -4.2 4.85 -4.0 4.65 -3.6 4.55 -3.15 4.65" fill="#333333" fill-rule="evenodd" stroke="none"/>
    <path d="M-11.85 5.25 L-11.8 5.6 -11.8 6.2 -11.85 6.75 -11.85 7.1 -11.9 7.3 -12.0 7.5 -12.15 7.65 -12.6 7.75 -12.6 7.8 -13.0 7.65 -13.15 7.5 -13.3 7.3 -13.35 7.1 -13.35 6.9 -13.35 6.75 -13.35 6.55 -13.35 6.35 -13.4 6.15 -13.5 6.0 -13.55 5.8 -13.5 5.6 -13.4 5.4 -13.35 5.25 -13.25 5.05 -13.0 4.85 -12.6 4.75 -12.15 4.85 -12.0 5.05 -11.85 5.25" fill="#333333" fill-rule="evenodd" stroke="none"/>
    <path d="M-20.65 4.65 L-20.5 4.85 -20.4 5.05 -20.35 5.25 -20.35 5.4 -20.45 5.6 -20.55 5.8 -20.55 6.0 -20.55 6.2 -20.55 6.55 -20.55 6.9 -20.6 7.1 -20.75 7.3 -20.9 7.5 -21.35 7.6 -21.75 7.5 -22.0 7.3 -22.1 7.1 -22.15 6.9 -22.2 6.55 -22.15 6.0 -22.1 5.6 -22.05 5.45 -22.0 5.25 -21.9 5.05 -21.7 4.85 -21.5 4.65 -21.1 4.55 -20.65 4.65" fill="#333333" fill-rule="evenodd" stroke="none"/>
    <path d="M-29.3 5.6 L-29.3 6.2 -29.35 6.75 -29.35 7.1 -29.4 7.3 -29.5 7.5 -29.65 7.65 -30.1 7.75 -30.1 7.8 -30.5 7.65 -30.65 7.5 -30.8 7.3 -30.85 7.1 -30.85 6.9 -30.85 6.75 -30.85 6.55 -30.85 6.35 -30.9 6.15 -31.0 6.0 -31.05 5.8 -31.0 5.6 -30.9 5.4 -30.85 5.25 -30.75 5.05 -30.5 4.85 -30.1 4.75 -29.65 4.85 -29.5 5.05 -29.35 5.25 -29.3 5.6" fill="#333333" fill-rule="evenodd" stroke="none"/>
    <path d="M-38.15 4.65 L-38.0 4.85 -37.9 5.05 -37.85 5.25 -37.85 5.4 -37.95 5.6 -38.05 5.8 -38.05 6.0 -38.05 6.2 -38.05 6.55 -38.05 6.9 -38.1 7.1 -38.25 7.3 -38.4 7.5 -38.85 7.6 -39.25 7.5 -39.5 7.3 -39.6 7.1 -39.65 6.9 -39.7 6.55 -39.65 6.0 -39.6 5.6 -39.55 5.45 -39.5 5.25 -39.4 5.05 -39.2 4.85 -39.0 4.65 -38.6 4.55 -38.15 4.65" fill="#333333" fill-rule="evenodd" stroke="none"/>
    <path d="M-46.8 5.6 L-46.8 6.2 -46.85 6.75 -46.85 7.1 -46.9 7.3 -47.0 7.5 -47.15 7.65 -47.6 7.75 -47.6 7.8 -48.0 7.65 -48.15 7.5 -48.3 7.3 -48.35 7.1 -48.35 6.9 -48.35 6.75 -48.35 6.55 -48.35 6.35 -48.4 6.15 -48.5 6.0 -48.55 5.8 -48.5 5.6 -48.4 5.4 -48.35 5.25 -48.25 5.05 -48.0 4.85 -47.6 4.75 -47.15 4.85 -47.0 5.05 -46.85 5.25 -46.8 5.6" fill="#333333" fill-rule="evenodd" stroke="none"/>
    <path d="M-55.65 4.65 L-55.5 4.85 -55.4 5.05 -55.35 5.25 -55.35 5.4 -55.45 5.6 -55.55 5.8 -55.55 6.0 -55.55 6.2 -55.55 6.55 -55.55 6.9 -55.6 7.1 -55.75 7.3 -55.9 7.5 -56.35 7.6 -56.75 7.5 -57.0 7.3 -57.1 7.1 -57.15 6.9 -57.2 6.55 -57.15 6.0 -57.1 5.6 -57.05 5.45 -57.0 5.25 -56.9 5.05 -56.7 4.85 -56.5 4.65 -56.1 4.55 -55.65 4.65" fill="#333333" fill-rule="evenodd" stroke="none"/>
    <path d="M-64.3 6.2 L-64.35 6.75 -64.35 7.1 -64.4 7.3 -64.5 7.5 -64.65 7.65 -65.1 7.75 -65.1 7.8 -65.5 7.65 -65.65 7.5 -65.8 7.3 -65.85 7.1 -65.85 6.9 -65.85 6.75 -65.85 6.55 -65.85 6.35 -65.9 6.15 -66.0 6.0 -66.05 5.8 -66.0 5.6 -65.9 5.4 -65.85 5.25 -65.75 5.05 -65.5 4.85 -65.1 4.75 -64.65 4.85 -64.5 5.05 -64.35 5.25 -64.3 5.6 -64.3 6.2" fill="#333333" fill-rule="evenodd" stroke="none"/>
    <path d="M33.85 -6.6 L34.0 -6.4 34.05 -3.3 34.0 0.0 33.85 2.25 33.85 2.45 33.65 2.65 33.45 2.8 33.2 2.85 33.2 2.9 32.85 2.75 32.65 2.55 32.5 2.35 32.35 -0.75 32.25 -4.05 32.35 -6.3 32.45 -6.5 32.65 -6.75 32.85 -6.85 33.2 -6.95 33.65 -6.8 33.85 -6.6" fill="#333333" fill-rule="evenodd" stroke="none"/>
    <path d="M31.2 -2.3 L31.25 -2.5 31.4 -2.7 31.55 -2.8 31.8 -2.9 32.2 -2.75 32.35 -2.55 32.45 -1.3 32.4 0.35 32.35 1.55 32.3 1.75 32.15 2.0 32.05 2.2 31.95 2.4 31.8 2.5 31.55 2.55 31.55 2.6 31.25 2.4 31.1 2.25 31.1 2.05 31.15 1.85 31.25 1.65 31.25 0.4 31.2 -1.05 31.2 -2.3" fill="#333333" fill-rule="evenodd" stroke="none"/>
    <path d="M-34.5 -8.45 L-34.4 -8.5 -34.1 -8.6 -33.7 -8.45 -33.55 -8.25 -33.5 -4.55 -33.5 -0.6 -33.65 1.85 -33.8 2.0 -33.85 2.05 -34.1 2.1 -34.45 2.0 -34.55 1.8 -34.6 1.55 -34.65 1.35 -34.75 -2.15 -34.8 -5.85 -34.65 -8.1 -34.6 -8.3 -34.5 -8.45" fill="#333333" fill-rule="evenodd" stroke="none"/>
    <path d="M4.15 -7.85 L4.2 -7.9 4.35 -7.9 4.55 -7.85 4.65 -7.75 4.7 -7.65 4.8 -7.55 4.9 -7.45 4.9 -7.15 4.9 -6.8 4.9 -6.5 4.9 -6.4 4.8 -5.9 4.7 -5.4 4.55 -4.85 4.55 -4.75 4.55 -4.65 4.55 -4.55 4.55 -4.45 4.45 -4.4 4.35 -4.35 4.25 -4.35 4.2 -4.3 4.05 -4.4 4.0 -4.5 4.0 -4.6 3.9 -4.7 3.9 -4.8 3.9 -4.9 4.05 -5.75 4.15 -6.65 4.2 -7.25 4.15 -7.35 4.1 -7.45 4.1 -7.6 4.1 -7.7 4.1 -7.8 4.15 -7.85" fill="#333333" fill-rule="evenodd" stroke="none"/>
    <path d="M2.3 -6.75 L2.3 -6.7 2.35 -6.6 2.4 -6.5 2.45 -6.4 2.5 -6.25 2.55 -6.15 2.55 -6.05 2.55 -5.95 2.6 -5.85 2.65 -5.75 2.7 -5.65 2.8 -5.55 2.9 -5.45 2.85 -5.35 2.7 -5.25 2.5 -5.2 2.45 -5.2 2.3 -5.25 2.25 -5.35 2.25 -5.45 2.2 -5.55 2.15 -5.65 2.1 -5.75 2.05 -5.85 2.05 -5.95 2.05 -6.05 2.0 -6.2 1.95 -6.25 1.95 -6.4 1.95 -6.5 2.0 -6.6 2.05 -6.7 2.05 -6.8 2.15 -6.85 2.3 -6.75" fill="#333333" fill-rule="evenodd" stroke="none"/>
    <path d="M31.75 -8.0 L31.85 -7.9 31.9 -7.35 31.85 -6.65 31.85 -5.95 31.8 -5.85 31.75 -5.75 31.8 -5.65 31.95 -5.5 32.0 -5.4 32.05 -5.3 32.05 -5.2 32.0 -5.1 31.95 -5.05 31.85 -5.0 31.75 -4.95 31.4 -4.95 31.25 -5.0 31.15 -5.1 31.1 -5.2 31.05 -5.3 31.0 -5.4 31.0 -5.5 30.95 -5.6 30.95 -5.75 30.9 -5.85 30.9 -5.95 30.95 -6.05 31.0 -6.55 31.0 -7.15 30.95 -7.8 31.0 -7.9 31.1 -8.0 31.2 -8.1 31.4 -8.15 31.65 -8.1 31.75 -8.0" fill="#333333" fill-rule="evenodd" stroke="none"/>
    <path d="M27.45 -5.0 L27.5 -5.05 27.55 -5.1 27.7 -5.1 27.9 -5.05 27.95 -4.95 28.0 -4.85 28.0 -4.75 27.95 -4.65 27.9 -4.55 27.9 -4.45 27.9 -4.35 27.9 -4.25 27.9 -4.15 27.75 -3.9 27.6 -3.7 27.55 -3.6 27.55 -3.5 27.5 -3.4 27.45 -3.3 27.4 -3.2 27.4 -3.1 27.45 -3.0 27.5 -2.9 27.45 -2.8 27.3 -2.7 27.15 -2.7 27.0 -2.65 26.85 -2.7 26.8 -2.8 26.75 -2.9 26.7 -3.05 26.7 -3.15 26.75 -3.25 26.8 -3.45 26.8 -3.55 26.8 -3.65 26.9 -3.75 26.9 -3.85 26.95 -3.95 27.0 -4.05 27.05 -4.15 27.1 -4.25 27.2 -4.35 27.2 -4.45 27.25 -4.55 27.35 -4.75 27.45 -5.0" fill="#333333" fill-rule="evenodd" stroke="none"/>
    <path d="M25.8 -7.8 L25.95 -7.9 26.1 -7.95 26.2 -7.85 26.2 -7.0 26.2 -6.2 26.2 -5.45 26.15 -5.35 26.1 -5.25 26.1 -5.15 26.05 -5.05 26.0 -4.85 25.95 -4.75 25.9 -4.65 25.75 -4.1 25.6 -3.5 25.4 -3.0 25.35 -2.9 25.3 -2.8 25.25 -2.7 25.15 -2.45 24.95 -2.15 24.8 -1.95 24.8 -1.85 24.75 -1.65 24.7 -1.45 24.65 -1.35 24.6 -1.25 24.55 -1.25 24.4 -1.2 24.25 -1.25 24.15 -1.4 24.15 -1.5 24.1 -1.6 24.1 -1.7 24.1 -1.8 24.15 -2.0 24.2 -2.2 24.25 -2.3 24.35 -2.5 24.5 -2.8 24.65 -3.0 24.7 -3.15 24.75 -3.35 24.8 -3.55 24.85 -3.65 24.9 -3.75 25.05 -4.25 25.2 -4.9 25.45 -5.5 25.45 -5.7 25.45 -6.0 25.45 -6.3 25.45 -6.4 25.5 -6.65 25.55 -6.85 25.55 -6.95 25.55 -7.05 25.6 -7.15 25.6 -7.25 25.6 -7.35 25.6 -7.45 25.6 -7.55 25.65 -7.65 25.7 -7.75 25.8 -7.8" fill="#333333" fill-rule="evenodd" stroke="none"/>
    <path d="M22.85 -6.0 L22.95 -5.95 23.05 -5.85 23.1 -5.75 23.15 -5.45 23.15 -5.15 23.15 -4.85 23.1 -4.75 23.05 -4.65 23.05 -4.55 23.0 -4.45 22.95 -4.35 22.9 -4.25 22.8 -4.1 22.75 -4.0 22.75 -3.9 22.7 -3.8 22.65 -3.75 22.6 -3.7 22.5 -3.7 22.45 -3.7 22.35 -3.8 22.35 -3.9 22.35 -4.0 22.35 -4.1 22.35 -4.25 22.4 -4.35 22.45 -4.45 22.5 -4.55 22.55 -4.65 22.6 -4.75 22.6 -4.85 22.65 -4.95 22.65 -5.05 22.65 -5.25 22.65 -5.45 22.65 -5.55 22.65 -5.65 22.7 -5.75 22.8 -5.85 22.85 -6.0" fill="#333333" fill-rule="evenodd" stroke="none"/>
    <path d="M-28.25 -8.6 L-28.15 -8.5 -28.1 -8.4 -28.05 -8.3 -27.95 -8.15 -27.9 -8.1 -27.75 -8.05 -27.65 -7.95 -27.6 -7.85 -27.6 -7.75 -27.5 -7.65 -27.5 -7.5 -27.45 -7.4 -27.4 -7.3 -27.4 -7.2 -27.3 -7.1 -27.3 -7.0 -27.25 -6.9 -27.2 -6.8 -27.15 -6.7 -27.1 -6.6 -27.0 -6.2 -26.95 -5.55 -27.0 -5.05 -26.95 -4.95 -26.9 -4.85 -26.9 -4.75 -26.95 -4.65 -27.0 -4.65 -27.1 -4.65 -27.15 -4.65 -27.35 -4.75 -27.45 -4.85 -27.45 -5.05 -27.5 -5.35 -27.5 -5.65 -27.5 -5.75 -27.55 -6.0 -27.65 -6.4 -27.8 -6.8 -27.85 -6.9 -27.9 -7.0 -27.95 -7.1 -27.95 -7.2 -28.0 -7.3 -28.05 -7.4 -28.1 -7.5 -28.15 -7.65 -28.15 -7.75 -28.2 -7.85 -28.2 -7.95 -28.3 -8.15 -28.4 -8.35 -28.45 -8.45 -28.4 -8.5 -28.25 -8.6" fill="#333333" fill-rule="evenodd" stroke="none"/>
    <path d="M-29.2 -6.2 L-29.1 -6.1 -29.0 -6.0 -28.85 -5.9 -28.65 -5.1 -28.4 -4.15 -28.15 -3.45 -28.15 -3.35 -28.2 -3.25 -28.2 -3.15 -28.2 -3.0 -28.2 -2.9 -28.25 -2.8 -28.3 -2.7 -28.45 -2.65 -28.5 -2.65 -28.65 -2.7 -28.7 -2.8 -28.7 -2.9 -28.75 -3.0 -28.75 -3.15 -28.75 -3.25 -28.8 -3.35 -29.05 -4.25 -29.3 -5.2 -29.45 -5.9 -29.5 -6.0 -29.45 -6.1 -29.35 -6.2 -29.2 -6.2" fill="#333333" fill-rule="evenodd" stroke="none"/>
    <path d="M-30.9 -6.85 L-30.8 -6.65 -30.65 -6.35 -30.5 -6.05 -30.45 -5.95 -30.45 -5.85 -30.45 -5.65 -30.4 -5.45 -30.4 -5.3 -30.4 -5.25 -30.35 -5.1 -30.35 -5.0 -30.35 -4.9 -30.45 -4.8 -30.5 -4.7 -30.7 -4.65 -30.9 -4.7 -30.95 -4.8 -31.0 -4.9 -31.0 -5.0 -31.05 -5.2 -31.05 -5.45 -31.05 -5.55 -31.2 -5.85 -31.4 -6.25 -31.55 -6.55 -31.6 -6.65 -31.65 -6.75 -31.65 -6.85 -31.75 -6.95 -31.75 -7.1 -31.8 -7.2 -31.75 -7.3 -31.85 -7.4 -31.9 -7.5 -31.9 -7.6 -31.8 -7.65 -31.65 -7.6 -31.55 -7.5 -31.5 -7.45 -31.3 -7.4 -31.2 -7.3 -31.15 -7.2 -31.1 -7.1 -31.0 -7.0 -30.9 -6.85" fill="#333333" fill-rule="evenodd" stroke="none"/>
    <path d="M-34.15 -3.55 L-34.15 -3.45 -34.15 -2.75 -38.8 2.1 -39.95 2.05 -34.15 -3.55" fill="#333333" fill-rule="evenodd" stroke="none"/>
    <path d="M-39.25 -7.6 L-37.55 -7.6 -47.2 2.15 -48.65 2.2 -39.25 -7.6" fill="#333333" fill-rule="evenodd" stroke="none"/>
    <path d="M-48.6 -7.6 L-47.45 -7.55 -53.15 -1.85 -57.25 2.15 -58.35 2.15 -50.85 -5.35 -48.6 -7.6" fill="#333333" fill-rule="evenodd" stroke="none"/>
    <path d="M-57.1 -7.6 L-55.7 -7.6 -63.25 -0.15 -65.75 2.15 -66.6 2.2 -57.1 -7.6" fill="#333333" fill-rule="evenodd" stroke="none"/>
    <path d="M-69.0 -5.7 L-67.05 -7.55 -65.95 -7.55 -71.45 -2.25 -72.1 -1.7 -72.65 -1.15 -73.2 -0.5 -73.15 -0.75 -73.2 -1.2 -69.0 -5.7" fill="#333333" fill-rule="evenodd" stroke="none"/>
    <path d="M40.1 2.45 L38.9 2.45 33.05 -3.6 33.05 -3.7 32.85 -3.9 32.9 -3.95 33.05 -4.1 33.05 -4.3 33.1 -4.45 33.05 -4.6 35.35 -2.4 40.1 2.45" fill="#333333" fill-rule="evenodd" stroke="none"/>
    <path d="M48.85 2.45 L47.25 2.45 39.05 -5.85 37.35 -7.65 37.65 -7.65 38.4 -7.6 48.85 2.45" fill="#333333" fill-rule="evenodd" stroke="none"/>
    <path d="M58.3 2.45 L57.25 2.4 49.85 -4.9 47.1 -7.65 48.25 -7.7 53.35 -2.6 58.3 2.45" fill="#333333" fill-rule="evenodd" stroke="none"/>
    <path d="M67.55 2.6 L65.8 2.65 55.55 -7.5 57.0 -7.55 67.55 2.6" fill="#333333" fill-rule="evenodd" stroke="none"/>
    <path d="M72.6 -1.45 L72.6 -1.35 72.6 -1.25 72.6 -0.95 65.6 -7.55 66.65 -7.6 72.05 -2.0 72.6 -1.45" fill="#333333" fill-rule="evenodd" stroke="none"/>
    <path d="M71.85 -6.95 L71.85 -6.8 71.85 -6.6 71.85 -6.5 71.8 -6.4 71.75 -6.3 71.65 -6.25 71.55 -6.15 72.0 -6.05 72.2 -6.0 72.35 -5.9 72.45 -5.8 72.45 -5.7 72.45 -5.55 72.45 -5.35 72.45 -5.25 72.4 -5.2 72.95 -5.05 73.1 -4.95 73.15 -4.9 73.2 -4.8 73.2 -4.7 73.2 -4.6 73.2 -4.5 73.15 -4.4 73.1 -4.3 73.05 -4.2 72.95 -4.15 73.15 -4.05 73.35 -4.0 73.45 -3.9 73.5 -3.8 73.5 -3.7 73.5 -3.65 73.5 -3.55 73.45 -3.45 73.45 -3.35 73.4 -3.25 73.35 -3.15 73.15 -3.05 73.05 -3.0 72.95 -2.9 72.9 -2.9 72.75 -2.8 72.65 -2.7 72.5 -2.65 72.5 -2.55 72.4 -2.45 72.2 -2.4 72.15 -2.3 72.0 -2.25 71.75 -2.2 71.65 -2.2 71.5 -2.2 71.5 -2.15 71.35 -2.2 71.3 -2.3 71.25 -2.4 71.25 -2.5 71.3 -2.6 71.4 -2.7 71.5 -2.8 71.6 -2.9 71.5 -2.85 71.4 -2.8 71.25 -2.8 71.15 -2.8 70.95 -2.85 70.8 -2.95 70.75 -3.05 70.7 -3.15 70.75 -3.2 70.75 -3.3 70.8 -3.4 70.9 -3.5 71.35 -3.8 71.7 -4.05 71.8 -4.15 71.05 -4.05 69.65 -3.65 69.4 -3.65 69.15 -3.7 69.05 -3.8 69.0 -3.9 68.95 -3.95 68.9 -4.05 68.9 -4.15 68.95 -4.25 69.0 -4.35 69.05 -4.45 69.15 -4.5 69.2 -4.55 69.4 -4.55 69.65 -4.65 69.85 -4.7 69.0 -4.55 68.4 -4.4 68.15 -4.45 68.05 -4.55 68.0 -4.65 67.95 -4.7 67.9 -4.8 67.9 -4.9 67.95 -5.0 68.0 -5.1 68.05 -5.2 69.1 -5.75 69.8 -6.1 69.65 -6.15 68.7 -5.85 67.8 -5.5 67.65 -5.45 67.4 -5.55 67.3 -5.65 67.25 -5.7 67.2 -5.8 67.15 -5.9 67.15 -6.0 67.15 -6.1 67.15 -6.2 67.2 -6.3 67.2 -6.4 67.2 -6.45 67.15 -6.45 66.9 -6.55 66.8 -6.65 66.7 -6.75 66.65 -6.8 66.6 -6.9 66.55 -7.0 66.55 -7.1 66.55 -7.2 66.55 -7.3 66.55 -7.4 66.55 -7.45 66.6 -7.55 66.65 -7.65 66.75 -7.7 67.65 -7.7 67.7 -7.65 67.7 -7.55 69.0 -7.4 69.2 -7.35 69.35 -7.25 69.45 -7.15 69.45 -7.1 70.05 -7.1 70.75 -7.3 71.4 -7.3 71.6 -7.25 71.7 -7.15 71.8 -7.05 71.85 -6.95 M69.95 -4.8 L70.15 -4.8 70.3 -4.85 70.45 -4.9 70.35 -4.9 70.2 -4.85 70.1 -4.85 69.95 -4.8" fill="#333333" fill-rule="evenodd" stroke="none"/>
    <path d="M48.85 -8.05 L48.95 -8.05 52.55 -7.9 53.75 -7.85 53.75 -7.8 53.85 -7.75 54.15 -7.8 54.3 -7.8 55.15 -7.8 55.25 -7.7 55.35 -7.6 55.45 -7.45 55.5 -7.35 Q55.8 -7.2 56.25 -7.35 L57.15 -7.3 57.25 -7.2 57.3 -7.1 57.35 -7.0 57.35 -6.9 57.4 -6.8 57.4 -6.7 57.35 -6.65 57.35 -6.55 57.3 -6.45 57.25 -6.35 57.15 -6.25 56.85 -6.05 56.55 -5.9 56.5 -5.8 56.55 -5.7 56.6 -5.6 56.6 -5.5 56.65 -5.4 56.65 -5.3 56.65 -5.2 56.6 -5.15 56.55 -5.05 56.45 -4.95 56.9 -5.0 57.95 -5.1 58.25 -5.0 58.7 -4.85 58.8 -4.75 58.85 -4.65 58.85 -4.55 58.9 -4.45 58.9 -4.4 58.9 -4.3 58.9 -4.2 58.9 -4.15 59.2 -4.1 59.45 -4.05 59.6 -3.95 59.65 -3.85 59.7 -3.75 59.7 -3.65 59.7 -3.55 59.7 -3.45 59.75 -3.4 60.5 -3.35 60.75 -3.3 60.9 -3.2 60.95 -3.1 60.95 -3.0 61.0 -2.9 61.0 -2.8 61.0 -2.7 60.95 -2.65 60.9 -2.55 60.85 -2.45 60.8 -2.4 60.8 -2.35 61.0 -2.3 61.15 -2.2 61.2 -2.1 61.2 -2.0 61.25 -1.9 61.25 -1.7 61.25 -1.55 61.25 -1.35 61.2 -1.3 61.25 -1.3 61.45 -1.3 61.65 -1.35 61.9 -1.3 62.05 -1.2 62.25 -1.1 62.45 -1.0 62.6 -0.9 62.7 -0.8 62.7 -0.7 62.7 -0.65 62.7 -0.55 62.7 -0.45 62.65 -0.25 62.55 -0.15 62.55 -0.1 63.2 -0.05 63.75 -0.15 63.95 -0.05 64.1 0.05 64.15 0.1 64.2 0.2 64.2 0.4 64.2 0.7 64.2 0.85 64.2 0.95 64.25 1.0 64.35 1.05 64.6 0.95 64.75 0.95 65.5 1.05 65.7 1.1 65.8 1.2 65.85 1.3 65.85 1.5 65.8 1.8 65.8 2.05 65.8 2.25 65.7 2.35 65.65 2.45 65.55 2.55 65.45 2.6 65.1 2.8 64.65 3.0 64.45 3.05 64.3 3.05 64.2 2.95 64.2 2.9 64.25 2.8 64.35 2.7 64.4 2.6 64.6 2.55 64.75 2.45 64.9 2.35 65.05 2.25 65.1 2.15 65.2 2.05 65.2 1.95 65.2 1.85 65.2 1.8 65.2 1.7 64.8 1.7 Q63.7 2.0 62.75 2.6 L61.6 3.15 61.55 3.2 61.4 3.2 61.2 3.15 61.05 3.05 61.0 2.95 60.95 2.85 61.0 2.8 61.0 2.7 61.05 2.6 61.15 2.5 61.2 2.4 62.5 1.65 63.0 1.2 63.3 0.8 61.95 0.95 61.4 1.1 61.2 1.15 59.2 2.15 57.65 2.8 57.4 2.7 57.3 2.6 57.25 2.55 57.2 2.45 57.15 2.35 57.15 2.25 57.15 2.15 57.2 2.05 57.2 1.95 57.35 1.8 57.95 1.5 Q58.85 0.95 59.8 0.65 L60.95 0.2 61.05 0.1 61.15 0.05 61.3 -0.15 61.4 -0.25 Q59.9 -0.05 58.55 0.65 L56.45 1.75 56.4 1.75 56.2 1.8 55.95 1.8 55.75 1.75 55.65 1.65 55.55 1.55 55.5 1.45 55.45 1.35 55.5 1.3 55.5 1.2 55.55 1.1 55.6 1.0 55.7 0.9 58.0 -0.3 59.0 -0.75 59.8 -1.25 59.8 -1.3 59.4 -1.3 Q58.1 -0.7 56.8 -0.25 L55.55 0.3 55.4 0.3 55.15 0.25 55.05 0.15 54.95 0.05 54.9 -0.05 54.9 -0.15 54.9 -0.2 54.9 -0.3 54.95 -0.4 55.0 -0.5 55.05 -0.6 55.15 -0.7 55.1 -0.8 55.0 -0.9 54.95 -0.95 54.9 -1.05 54.9 -1.15 54.9 -1.25 54.9 -1.35 54.65 -1.35 53.95 -1.35 53.75 -1.4 53.65 -1.5 53.55 -1.6 53.5 -1.7 53.45 -1.8 53.5 -1.9 53.5 -1.95 53.55 -2.05 53.6 -2.15 53.7 -2.25 53.8 -2.3 53.95 -2.35 54.15 -2.4 55.1 -2.95 56.05 -3.4 56.45 -3.5 57.3 -3.8 57.55 -3.9 57.7 -3.95 57.75 -4.05 57.25 -4.05 55.95 -3.65 55.3 -3.45 55.05 -3.35 53.95 -2.7 53.0 -2.2 52.9 -2.15 52.8 -2.15 52.65 -2.1 52.45 -2.1 52.25 -2.15 52.15 -2.25 52.05 -2.35 52.0 -2.45 51.95 -2.55 51.95 -2.65 52.0 -2.7 52.0 -2.8 52.05 -2.9 52.1 -3.0 52.2 -3.1 54.0 -3.95 Q54.45 -4.15 54.8 -4.5 L53.45 -4.15 51.9 -3.4 51.65 -3.25 51.55 -3.25 51.4 -3.2 51.2 -3.2 51.0 -3.25 50.9 -3.35 50.8 -3.45 50.75 -3.55 50.7 -3.65 50.75 -3.7 50.75 -3.8 50.8 -3.9 50.85 -4.0 50.95 -4.1 52.95 -5.0 Q53.6 -5.3 54.2 -5.75 L54.05 -5.7 53.9 -5.6 53.75 -5.55 53.55 -5.45 52.15 -5.0 50.3 -4.4 49.95 -4.3 49.7 -4.4 49.6 -4.45 49.55 -4.55 49.5 -4.65 49.45 -4.75 49.45 -4.85 49.45 -4.95 49.5 -5.05 49.55 -5.1 49.6 -5.2 49.7 -5.3 50.3 -5.6 51.0 -5.9 50.65 -5.85 50.2 -5.7 49.8 -5.6 49.65 -5.55 49.4 -5.55 49.15 -5.65 49.0 -5.7 48.95 -5.8 48.9 -5.9 48.85 -6.0 48.85 -6.1 48.85 -6.2 48.9 -6.3 48.95 -6.35 49.0 -6.45 49.15 -6.55 49.65 -6.7 50.05 -6.85 51.4 -7.3 51.9 -7.55 50.8 -7.5 49.55 -7.25 49.4 -7.2 49.2 -7.15 48.95 -7.2 48.8 -7.3 48.75 -7.4 48.7 -7.5 48.65 -7.6 48.65 -7.7 48.65 -7.8 48.7 -7.9 48.75 -7.95 48.85 -8.05" fill="#333333" fill-rule="evenodd" stroke="none"/>
    <path d="M44.45 -1.55 L44.45 -1.35 44.45 -1.25 44.4 -1.15 44.4 -1.05 44.35 -0.95 44.3 -0.9 44.25 -0.8 44.2 -0.7 45.1 -0.55 45.2 -0.45 45.3 -0.4 45.3 -0.2 45.3 0.0 45.3 0.3 45.3 0.45 45.45 0.5 46.45 0.55 46.7 0.6 46.8 0.7 46.85 0.8 46.85 0.85 46.85 0.95 46.85 1.05 46.85 1.25 46.85 1.35 46.85 1.45 46.8 1.55 46.75 1.6 46.7 1.7 46.65 1.8 46.05 2.2 45.4 2.6 45.25 2.65 45.15 2.7 45.05 2.7 44.9 2.75 44.7 2.7 44.6 2.6 44.55 2.5 44.55 2.4 44.55 2.3 44.6 2.2 44.65 2.1 44.75 2.05 44.9 2.05 44.95 2.0 45.15 1.95 45.55 1.7 46.05 1.35 45.3 1.3 45.05 1.35 44.7 1.45 44.55 1.45 43.25 2.15 Q42.8 2.35 42.45 2.6 L42.35 2.65 42.3 2.7 42.15 2.7 42.0 2.75 41.9 2.8 41.75 2.8 41.65 2.8 41.45 2.75 41.3 2.65 41.25 2.55 41.2 2.45 41.25 2.35 41.25 2.3 41.3 2.2 41.4 2.1 41.45 2.0 41.55 1.9 41.7 1.8 41.95 1.75 42.9 1.2 43.7 0.9 43.85 0.8 43.95 0.7 44.05 0.6 44.15 0.55 44.3 0.35 44.35 0.3 43.7 0.3 43.25 0.45 43.05 0.55 41.35 1.6 40.15 2.05 39.9 2.1 39.65 2.05 39.55 1.95 39.5 1.85 39.45 1.8 39.4 1.7 39.4 1.6 39.4 1.5 39.45 1.4 39.5 1.3 39.55 1.2 39.65 1.15 39.75 1.15 39.95 1.05 40.05 0.95 41.55 0.15 42.65 -0.35 42.8 -0.55 42.95 -0.75 43.2 -1.0 42.6 -1.05 42.15 -0.95 41.15 -0.5 41.05 -0.45 40.85 -0.4 40.6 -0.35 40.35 -0.25 38.75 0.5 37.95 0.85 37.9 0.85 37.7 0.9 37.65 0.9 37.4 0.85 37.3 0.75 37.2 0.65 37.15 0.55 37.15 0.45 37.15 0.35 37.15 0.3 37.2 0.2 37.25 0.1 37.3 0.0 Q38.55 -0.75 39.95 -1.3 L40.65 -1.6 41.45 -2.05 39.6 -1.5 37.65 -0.9 36.55 -0.6 36.4 -0.55 36.15 -0.65 36.0 -0.7 35.95 -0.8 35.9 -0.9 35.85 -1.0 35.85 -1.1 35.9 -1.3 36.1 -1.55 36.45 -1.8 38.7 -2.4 39.55 -2.8 40.0 -3.15 40.6 -3.65 40.7 -3.7 39.55 -3.75 39.35 -3.65 39.3 -3.55 39.2 -3.45 39.15 -3.4 38.95 -3.2 Q38.05 -2.5 36.95 -2.15 L36.05 -1.9 35.65 -1.8 35.4 -1.9 35.25 -1.95 35.2 -2.05 35.15 -2.15 35.1 -2.25 35.1 -2.35 35.1 -2.45 35.1 -2.55 35.15 -2.65 35.2 -2.7 35.25 -2.8 35.4 -2.9 35.45 -2.95 35.3 -2.95 35.15 -2.9 35.05 -2.85 34.9 -2.8 34.65 -2.8 34.4 -2.9 34.25 -2.95 34.2 -3.05 34.15 -3.15 34.1 -3.25 34.1 -3.35 34.1 -3.45 34.15 -3.55 34.2 -3.6 34.25 -3.7 34.4 -3.8 35.9 -4.45 36.45 -4.65 36.8 -4.85 37.4 -5.15 37.55 -5.2 37.65 -5.3 37.8 -5.4 37.9 -5.5 37.7 -5.5 34.85 -4.45 33.4 -3.85 33.3 -3.8 33.15 -3.8 32.9 -3.85 32.75 -3.95 32.65 -4.05 32.65 -4.15 32.6 -4.2 32.6 -4.3 32.55 -4.4 32.6 -4.5 32.65 -4.6 32.7 -4.7 32.9 -4.9 34.95 -5.95 Q35.55 -6.2 36.15 -6.55 L34.4 -6.0 33.65 -5.8 33.45 -5.8 33.2 -5.85 33.1 -5.95 33.0 -6.05 32.95 -6.15 32.95 -6.2 32.9 -6.3 32.9 -6.4 32.9 -6.5 32.9 -6.6 32.9 -6.7 32.95 -6.8 33.0 -6.9 33.05 -6.95 33.2 -7.05 33.3 -7.15 33.45 -7.25 33.65 -7.45 33.75 -7.6 33.9 -7.75 35.25 -7.65 35.2 -7.65 35.15 -7.55 35.9 -7.65 38.7 -7.6 38.7 -7.55 38.7 -7.45 38.7 -7.35 38.7 -7.25 38.65 -7.15 38.6 -7.05 38.55 -6.95 38.45 -6.85 38.4 -6.75 38.45 -6.8 38.7 -6.85 38.95 -6.9 39.4 -6.9 39.65 -6.85 39.75 -6.75 39.85 -6.65 39.9 -6.55 39.95 -6.45 39.95 -6.4 39.95 -6.3 39.95 -6.1 39.9 -5.9 39.75 -5.75 39.5 -5.45 39.2 -5.15 39.2 -5.05 39.25 -4.95 39.35 -4.9 40.95 -4.9 41.2 -4.8 41.4 -4.7 41.55 -4.6 41.7 -4.45 41.75 -4.35 41.75 -4.15 41.75 -3.9 41.75 -3.6 41.7 -3.4 41.7 -3.3 41.65 -3.2 42.7 -3.05 42.85 -2.95 42.95 -2.85 42.95 -2.8 43.0 -2.7 43.0 -2.6 43.0 -2.5 42.95 -2.3 42.95 -2.15 43.95 -2.05 44.2 -2.0 44.3 -1.9 44.4 -1.8 44.45 -1.7 44.45 -1.65 44.45 -1.55" fill="#333333" fill-rule="evenodd" stroke="none"/>
    <path d="M-34.4 -7.45 L-34.4 -7.35 -34.35 -7.25 -34.35 -7.15 -34.35 -7.05 -34.35 -7.0 -34.4 -6.9 -34.4 -6.8 -34.5 -6.7 -34.7 -6.55 -35.0 -6.35 -35.05 -6.35 -34.2 -6.25 -34.05 -6.15 -34.0 -6.05 -33.95 -5.95 -33.95 -5.85 -33.95 -5.75 -33.95 -5.65 -33.95 -5.55 -34.0 -5.5 -34.05 -5.4 -34.15 -5.3 -34.25 -5.25 -33.85 -5.2 -33.85 -5.15 -33.9 -5.05 -33.9 -4.95 -33.95 -4.85 -33.95 -4.75 -34.05 -4.65 -34.05 -4.55 -34.1 -4.5 -34.2 -3.6 -35.15 -3.15 -35.35 -3.05 -35.45 -3.0 -35.3 -2.9 -35.25 -2.8 -35.15 -2.7 -35.15 -2.6 -35.1 -2.5 -35.1 -2.4 -35.1 -2.25 -35.2 -1.95 -35.2 -1.85 -35.3 -1.75 -35.35 -1.65 -35.45 -1.6 -35.5 -1.55 -35.65 -1.5 -35.7 -1.4 -35.7 -1.3 -35.7 -1.25 -35.65 -1.15 -35.65 -1.05 -35.65 -0.95 -35.65 -0.85 -35.65 -0.75 -35.65 -0.65 -35.7 -0.55 -35.9 -0.4 -36.05 -0.2 -36.25 -0.1 -37.05 0.3 -37.4 0.45 -37.4 0.55 -37.35 0.65 -37.3 0.75 -37.3 0.85 -37.35 0.9 -37.5 1.1 -37.65 1.25 Q-39.3 1.85 -41.05 2.05 L-45.95 2.85 -46.85 3.0 -47.35 3.0 -47.55 2.95 -47.65 2.85 -47.7 2.75 -47.75 2.65 -47.75 2.55 -47.75 2.45 -47.7 2.35 -47.65 2.3 -47.55 2.2 -47.35 2.15 -46.4 1.95 -45.9 1.85 -46.05 1.85 -46.4 1.9 -46.95 1.95 -47.15 1.85 -47.3 1.75 -47.35 1.65 -47.4 1.6 -47.4 1.5 -47.4 1.4 -47.4 1.3 -47.4 1.2 -47.35 1.1 -47.3 1.05 -47.2 0.95 -47.1 0.85 -43.45 -0.05 -39.95 -0.85 Q-38.25 -1.2 -36.7 -2.0 L-40.7 -1.15 -43.45 -0.3 -45.2 -0.2 -45.4 -0.25 -45.55 -0.35 -45.6 -0.45 -45.65 -0.55 -45.7 -0.65 -45.7 -0.75 -45.65 -0.8 -45.65 -0.9 -45.55 -1.0 -45.45 -1.1 -45.4 -1.15 -45.2 -1.2 -44.95 -1.25 -44.75 -1.35 -44.65 -1.4 -41.35 -2.05 Q-39.0 -2.5 -36.8 -3.5 L-35.65 -4.05 -38.45 -3.4 -40.5 -2.8 -42.45 -2.3 -42.65 -2.35 -42.8 -2.45 -42.85 -2.55 -42.9 -2.65 -42.95 -2.75 -42.95 -2.8 -42.9 -2.9 -42.9 -3.0 -42.8 -3.1 -42.8 -3.2 -42.7 -3.3 -42.55 -3.4 -42.35 -3.45 -41.95 -3.5 -41.1 -3.85 -39.55 -4.4 -39.3 -4.5 -39.4 -4.5 -39.65 -4.45 -40.15 -4.4 -40.25 -4.3 -40.45 -4.3 -40.65 -4.35 -40.8 -4.45 -40.85 -4.55 -40.9 -4.65 -40.95 -4.75 -40.95 -4.8 -40.9 -4.9 -40.9 -5.0 -40.8 -5.1 -40.7 -5.2 -40.55 -5.3 -40.45 -5.4 -40.2 -5.45 -40.0 -5.5 -39.7 -5.55 -39.55 -5.65 -39.4 -5.75 -39.1 -5.9 -39.05 -5.9 -38.6 -6.05 -37.2 -6.45 -36.6 -6.65 -36.9 -6.65 -37.0 -6.65 -37.4 -6.55 -38.1 -6.35 -38.15 -6.35 -38.35 -6.3 -38.45 -6.3 -38.65 -6.35 -38.8 -6.45 -38.85 -6.55 -38.9 -6.65 -38.95 -6.75 -38.95 -6.8 -38.9 -6.9 -38.9 -7.0 -38.8 -7.1 -38.8 -7.2 -38.7 -7.3 -38.55 -7.4 -38.35 -7.45 -37.25 -7.65 -34.75 -7.65 -34.6 -7.65 -34.45 -7.55 -34.4 -7.45 M-38.1 -0.2 L-37.3 -0.6 -37.5 -0.55 -38.45 -0.2 -39.6 0.3 -40.4 0.55 -40.45 0.55 -40.35 0.55 -40.25 0.55 -39.2 0.2 -38.1 -0.2" fill="#333333" fill-rule="evenodd" stroke="none"/>
    <path d="M-49.4 -7.6 L-49.35 -7.5 -49.35 -7.4 -49.35 -7.3 -49.35 -7.25 -49.4 -7.15 -49.4 -7.05 -49.5 -6.95 -49.55 -6.85 -49.7 -6.75 -49.75 -6.65 -49.7 -6.55 -49.65 -6.45 -49.6 -6.4 -49.6 -6.3 -49.6 -6.2 -49.65 -6.1 -49.7 -6.0 -49.75 -5.9 -49.9 -5.85 -50.15 -5.75 -50.25 -5.65 -50.4 -5.55 -50.6 -5.45 -50.85 -5.35 -50.85 -5.25 -50.85 -5.15 -50.85 -5.05 -50.85 -5.0 -51.0 -4.7 -51.5 -4.3 -51.65 -4.25 -51.55 -4.15 -51.5 -4.05 -51.45 -3.95 -51.45 -3.85 -51.45 -3.75 -51.45 -3.65 -51.45 -3.55 -51.5 -3.5 -51.55 -3.4 -51.65 -3.3 -51.8 -3.2 -51.9 -3.1 -52.95 -2.5 -53.65 -2.2 -53.2 -2.15 -52.95 -2.1 -52.85 -2.0 -52.75 -1.9 -52.7 -1.8 -52.7 -1.75 -52.75 -1.65 -52.75 -1.55 Q-53.15 -0.9 -53.95 -0.65 L-55.0 -0.3 -55.25 -0.25 -55.25 -0.15 -55.25 -0.05 -55.25 0.05 -55.25 0.15 -55.25 0.25 -55.25 0.35 -55.3 0.45 -55.45 0.6 -55.65 0.8 -56.55 1.2 -57.25 1.45 -57.5 1.8 -58.05 2.3 -58.4 2.5 -59.25 2.75 -60.1 3.1 -60.25 3.0 -60.3 2.95 -60.35 2.85 -60.35 2.75 -60.3 2.65 -60.2 2.55 -59.95 2.45 -59.7 2.35 -61.55 2.7 -62.55 2.9 -64.35 3.2 -64.45 3.2 -64.65 3.15 -64.75 3.05 -64.8 2.95 -64.85 2.85 -64.85 2.75 -64.8 2.7 -64.8 2.6 -64.7 2.5 -64.6 2.4 -64.5 2.35 -61.45 1.75 -58.35 0.9 -56.85 0.45 -60.55 1.3 -62.25 1.8 -65.35 2.2 -65.55 2.1 -65.7 2.0 -65.75 1.9 -65.8 1.85 -65.8 1.75 -65.8 1.65 -65.8 1.55 -65.7 1.45 -65.65 1.35 -65.55 1.3 -65.35 1.25 -64.95 1.1 -64.85 1.0 -61.75 0.4 -58.15 -0.4 -56.05 -1.0 -59.75 -0.3 -62.8 0.45 -63.95 0.5 -64.15 0.45 -64.3 0.35 -64.35 0.25 -64.4 0.2 -64.4 0.1 -64.4 0.0 -64.4 -0.1 -64.3 -0.2 -64.25 -0.3 -64.15 -0.35 -60.0 -1.25 Q-57.85 -1.75 -55.75 -2.4 L-53.95 -3.05 -56.5 -2.55 -59.5 -1.75 -62.35 -1.45 -62.55 -1.5 -62.7 -1.6 -62.75 -1.7 -62.8 -1.8 -62.85 -1.9 -62.85 -2.0 -62.8 -2.05 -62.8 -2.15 -62.7 -2.25 -62.6 -2.35 -62.55 -2.4 -60.6 -2.8 -59.9 -2.95 -58.8 -3.25 -58.9 -3.3 -59.0 -3.4 -59.05 -3.5 -59.05 -3.6 -59.1 -3.7 -59.05 -3.8 -59.05 -3.9 -59.0 -3.95 -58.9 -4.05 -58.85 -4.15 -57.65 -4.45 -57.0 -4.6 -55.9 -4.9 -57.2 -4.7 -57.65 -4.6 -58.45 -4.55 -58.65 -4.6 -58.8 -4.7 -58.85 -4.8 -58.9 -4.9 -58.95 -5.0 -58.95 -5.05 -58.9 -5.15 -58.9 -5.25 -58.8 -5.35 -58.7 -5.45 -58.65 -5.5 -55.95 -6.0 -54.2 -6.35 -53.5 -6.55 -53.65 -6.6 -53.8 -6.7 -53.85 -6.8 -53.9 -6.9 -54.65 -6.9 -54.9 -6.7 -55.5 -6.5 -55.6 -6.4 -55.7 -6.3 -55.95 -6.25 -56.15 -6.3 -57.0 -6.3 -57.2 -6.25 -57.45 -6.2 -57.85 -6.15 -58.05 -6.2 -58.15 -6.3 -58.2 -6.4 -58.25 -6.5 -58.25 -6.55 -58.2 -6.65 -58.2 -6.75 -58.1 -6.85 -57.95 -6.95 -57.8 -7.05 -56.85 -7.2 -56.1 -7.25 -55.9 -7.3 -55.7 -7.4 -55.45 -7.45 -55.4 -7.55 -55.35 -7.65 -49.4 -7.65 -49.4 -7.6 M-56.4 -3.7 L-56.55 -3.65 -56.45 -3.65 -56.3 -3.65 -56.15 -3.7 -55.95 -3.75 -56.2 -3.7 -56.4 -3.7" fill="#333333" fill-rule="evenodd" stroke="none"/>
    <path d="M-67.75 -5.7 L-68.5 -5.2 -68.9 -5.0 -68.95 -4.9 -68.95 -4.8 -68.95 -4.75 -69.0 -4.65 -69.0 -4.55 -69.05 -4.45 -69.15 -4.35 -69.35 -4.15 -69.45 -4.05 -69.85 -3.8 Q-70.5 -3.4 -71.15 -3.15 L-71.2 -3.05 -71.2 -2.95 -71.25 -2.85 -71.25 -2.75 -71.25 -2.65 -71.3 -2.6 -71.4 -2.5 -71.6 -2.3 -71.8 -2.15 -71.95 -2.1 -72.35 -2.1 -72.55 -2.15 -72.6 -2.25 -72.65 -2.35 -72.65 -2.45 -72.65 -2.55 -72.65 -2.6 -72.85 -2.6 -72.9 -2.6 -73.05 -2.55 -73.1 -2.55 -73.1 -3.4 -73.1 -3.5 -73.0 -3.55 -72.85 -3.55 -72.25 -3.65 -72.05 -3.75 -71.9 -3.8 -72.2 -3.85 -72.4 -3.9 -72.55 -4.0 -72.6 -4.1 -72.6 -4.15 -72.65 -4.25 -72.65 -4.35 -72.6 -4.45 -72.55 -4.55 -72.5 -4.65 -72.4 -4.7 -72.35 -4.7 -72.2 -4.75 -71.9 -4.8 -71.05 -5.2 -69.75 -5.65 -69.9 -5.65 -70.55 -5.5 -71.55 -5.25 -72.2 -5.2 -72.4 -5.25 -72.55 -5.35 -72.6 -5.45 -72.65 -5.55 -72.7 -5.65 -72.7 -5.75 -72.65 -5.8 -72.6 -5.9 -72.55 -6.0 -72.45 -6.1 -72.35 -6.15 -72.2 -6.2 -71.8 -6.3 -71.5 -6.4 -71.55 -6.5 -71.6 -6.55 -71.65 -6.65 -71.7 -6.75 -71.7 -6.85 -71.65 -6.95 -71.6 -7.05 -71.55 -7.15 -71.25 -7.25 -70.3 -7.6 -70.15 -7.6 -68.65 -7.6 -68.6 -7.5 -68.6 -7.45 -68.35 -7.4 -68.2 -7.3 -68.15 -7.2 -68.15 -7.1 -68.1 -7.0 -68.1 -6.9 -68.1 -6.8 -68.1 -6.7 -67.9 -6.6 -67.75 -6.5 -67.65 -6.4 -67.65 -6.3 -67.65 -6.25 -67.65 -6.15 -67.65 -5.95 -67.65 -5.85 -67.75 -5.7" fill="#333333" fill-rule="evenodd" stroke="none"/>
  </g>
</svg>
