<?xml version="1.0" encoding="UTF-8" standalone="no"?>
<svg xmlns:xlink="http://www.w3.org/1999/xlink" height="43.8px" width="69.2px" xmlns="http://www.w3.org/2000/svg">
  <g transform="matrix(1.0, 0.0, 0.0, 1.0, 34.6, 21.9)">
    <path d="M34.1 4.25 L28.7 18.45 28.7 19.85 -28.25 19.85 -28.25 18.7 -28.95 18.7 -33.85 4.25 -28.25 4.25 -28.25 -21.15 28.7 -21.15 28.7 4.25 34.1 4.25" fill="#d1bc9c" fill-rule="evenodd" stroke="none"/>
    <path d="M3.9 9.6 L3.9 -2.05 21.8 -2.05 21.8 9.6 3.9 9.6" fill="#ffffff" fill-rule="evenodd" stroke="none"/>
    <path d="M33.9 4.75 L34.4 5.9 30.9 13.1 29.9 13.35 Q28.65 11.9 28.65 9.65 28.6 6.95 30.15 4.65 L33.9 4.75" fill="#663333" fill-opacity="0.2" fill-rule="evenodd" stroke="none"/>
    <path d="M-6.6 -7.65 L-6.35 -7.25 Q-6.0 5.35 -6.0 17.15 L-6.7 17.2 Q-7.5 17.2 -7.9 16.35 -10.6 10.45 -13.6 4.75 -21.75 5.6 -29.0 1.9 L-29.2 1.5 Q-28.05 -9.75 -28.35 -21.0 L-14.2 -21.55 Q-4.1 -22.6 -5.6 -14.05 L-6.6 -7.65" fill="#663333" fill-opacity="0.2" fill-rule="evenodd" stroke="none"/>
    <path d="M-6.5 -19.35 L-6.25 -19.0 -6.4 -2.5 -7.0 -1.7 -7.6 17.0 -8.1 17.75 -8.85 18.0 -10.1 17.0 -10.2 15.25 Q-10.7 9.15 -13.75 3.9 -21.65 4.05 -29.15 1.9 -28.85 -4.4 -29.7 -10.65 -30.05 -13.15 -28.8 -15.05 -21.9 -26.05 -6.5 -19.35" fill="#663333" fill-opacity="0.2" fill-rule="evenodd" stroke="none"/>
    <path d="M-28.15 -0.55 L-29.4 -1.85 -29.75 -4.5 Q-30.1 -8.25 -28.1 -11.3 L-28.1 -14.25 Q-26.05 -13.05 -24.85 -13.45 -23.65 -13.85 -22.4 -11.8 -21.2 -9.75 -21.15 -7.7 -15.9 -7.6 -14.6 -3.05 L-12.95 -1.9 -12.75 -0.25 -11.65 0.7 -11.6 1.85 -6.95 6.15 -7.45 12.9 -6.5 14.4 Q-4.85 17.2 -6.15 19.35 L-8.7 17.95 -9.45 14.05 -9.85 13.65 -10.0 9.9 -10.4 9.4 -11.7 9.15 -12.05 7.1 Q-12.3 5.65 -11.6 4.45 -12.1 4.2 -12.65 3.9 L-15.25 4.05 -15.9 3.15 -20.6 4.05 -21.0 3.65 -28.6 2.65 -28.75 1.85 -28.65 1.1 -28.15 -0.55" fill="#663333" fill-opacity="0.2" fill-rule="evenodd" stroke="none"/>
    <path d="M33.0 3.9 L33.75 5.4 32.3 8.4 Q31.45 10.2 31.75 12.15 L31.0 13.15 30.15 13.4 Q28.3 12.15 27.75 10.1 26.95 6.9 29.0 4.25 L33.0 3.9" fill="#663333" fill-opacity="0.2" fill-rule="evenodd" stroke="none"/>
    <path d="M-20.25 -1.0 Q-17.05 -2.4 -15.55 -0.25 L-10.85 -0.25 Q-6.25 1.85 -6.8 8.65 L-7.75 18.4 -27.9 19.0 Q-30.5 15.6 -33.25 6.5 L-31.5 4.0 -25.85 3.75 -28.0 2.4 -28.1 0.15 Q-27.9 -0.1 -28.25 -8.0 -28.25 -10.55 -23.6 -3.1 -20.7 -3.6 -20.25 -1.0" fill="#663333" fill-opacity="0.2" fill-rule="evenodd" stroke="none"/>
    <path d="M-25.25 17.15 L-24.8 17.15 -23.65 16.45 -13.9 16.0 -12.2 16.85 -9.65 16.95 -9.4 19.7 Q-19.75 21.25 -29.8 19.15 L-29.9 17.05 -29.25 16.5 -27.65 16.8 -26.35 16.5 -25.25 17.15" fill="#ffff99" fill-opacity="0.2" fill-rule="evenodd" stroke="none"/>
    <path d="M34.0 5.3 L33.6 5.7 Q32.9 6.3 32.1 6.35 L32.4 8.65 Q32.7 11.85 30.0 13.65 L29.1 13.35 Q28.55 8.9 29.3 4.45 L31.05 4.1 Q32.7 4.35 34.2 5.05 L34.0 5.3" fill="#663333" fill-opacity="0.2" fill-rule="evenodd" stroke="none"/>
    <path d="M-32.7 4.2 L-32.35 3.65 -11.95 4.4 Q-12.05 5.15 -12.8 5.5 -22.35 5.9 -31.95 5.55 L-32.7 4.2" fill="#663333" fill-opacity="0.2" fill-rule="evenodd" stroke="none"/>
    <path d="M-27.7 -21.2 L-26.7 -21.1 -26.85 2.5 -27.65 2.7 Q-28.75 -9.25 -27.7 -21.2" fill="#663333" fill-opacity="0.2" fill-rule="evenodd" stroke="none"/>
    <path d="M-14.05 5.55 L-14.65 5.2 -14.9 4.3 -14.1 3.55 -13.4 4.4 Q-10.9 7.75 -10.8 11.95 -9.1 14.85 -9.4 18.15 L-9.85 18.55 -14.05 5.55" fill="#ffff99" fill-opacity="0.2" fill-rule="evenodd" stroke="none"/>
    <path d="M27.25 -20.5 L28.15 -20.75 29.65 -19.75 Q28.15 -1.0 28.5 17.75 L27.15 18.65 26.4 18.0 Q26.55 14.05 26.1 4.65 25.6 -4.75 27.25 -20.5" fill="#ffff99" fill-opacity="0.2" fill-rule="evenodd" stroke="none"/>
    <path d="M4.15 13.9 Q6.5 12.5 8.95 13.6 11.1 14.6 11.1 16.4 L11.95 16.4 11.45 14.95 Q10.95 12.75 13.4 11.25 L16.3 11.2 Q15.6 10.05 15.8 8.8 16.95 2.0 26.7 5.1 L27.9 5.25 Q29.5 5.6 29.65 6.65 L26.5 14.9 Q29.4 17.0 28.2 19.75 L26.85 20.25 26.7 21.0 24.55 21.9 Q15.8 19.7 6.5 19.75 L5.4 18.75 Q-7.45 21.8 -5.85 14.75 L-4.55 14.5 -0.8 15.25 4.15 13.9" fill="#ffff99" fill-opacity="0.2" fill-rule="evenodd" stroke="none"/>
    <path d="M14.5 11.75 L16.9 12.45 Q18.2 12.85 18.1 14.05 L19.25 14.95 19.55 14.95 22.75 15.55 24.0 19.15 23.5 19.9 22.15 20.2 21.05 19.75 20.3 18.4 Q7.05 20.85 -5.95 19.0 -7.5 12.1 -7.0 2.25 -4.3 -1.05 1.2 7.1 1.55 6.4 3.45 5.3 7.05 3.1 9.6 5.75 14.95 6.3 14.5 10.75 L14.5 11.75 M10.75 12.25 L10.25 12.25 9.65 13.25 10.5 12.75 10.75 12.25" fill="#ffff99" fill-opacity="0.2" fill-rule="evenodd" stroke="none"/>
    <path d="M20.95 12.25 L21.5 13.3 Q22.55 16.55 19.7 17.6 L19.05 18.35 13.2 18.6 11.85 17.55 11.0 11.6 12.25 10.25 Q16.25 6.1 19.75 10.5 L20.95 12.25" fill="#ffff99" fill-opacity="0.2" fill-rule="evenodd" stroke="none"/>
    <path d="M-12.7 -17.95 L-11.85 -17.1 -13.25 -17.6 Q-14.7 -14.45 -19.8 -12.75 -19.6 -9.35 -23.05 -8.45 -22.75 -5.75 -25.2 -4.75 -24.4 -3.05 -28.5 -0.3 L-28.5 -2.0 Q-29.05 -10.3 -28.4 -18.45 L-25.5 -20.75 -15.0 -20.85 -9.15 -20.35 Q-9.05 -19.2 -12.7 -17.95" fill="#663333" fill-opacity="0.2" fill-rule="evenodd" stroke="none"/>
    <path d="M28.5 -19.1 L28.45 -18.4 25.75 -16.25 Q25.75 -15.4 25.05 -15.05 23.1 -13.9 20.9 -14.4 18.9 -14.7 19.15 -16.6 15.95 -16.65 13.45 -18.5 8.15 -17.0 4.5 -19.65 L13.6 -20.0 28.0 -19.85 28.5 -19.1" fill="#663333" fill-opacity="0.2" fill-rule="evenodd" stroke="none"/>
    <path d="M21.9 -19.85 L20.9 -18.35 19.15 -18.05 16.0 -18.3 Q13.8 -16.6 11.9 -16.35 L7.15 -16.65 Q4.8 -14.9 3.7 -14.85 L2.05 -14.75 0.5 -14.6 -0.45 -13.75 Q-3.85 -11.5 -7.55 -13.3 L-7.9 -13.5 -8.25 -14.0 Q-12.65 -12.95 -16.1 -15.1 L-16.7 -16.1 Q-18.25 -16.5 -20.35 -17.9 L-23.45 -17.8 -25.65 -18.35 -28.25 -20.0 -20.5 -20.35 -19.95 -20.95 -19.35 -21.1 21.9 -19.85" fill="#663333" fill-opacity="0.2" fill-rule="evenodd" stroke="none"/>
    <path d="M3.1 -17.0 L4.4 -16.8 4.85 -16.7 5.0 -16.55 5.1 -16.35 5.1 -16.15 5.1 -15.95 5.1 -15.8 5.15 -15.6 5.3 -15.4 5.45 -15.3 5.8 -15.15 6.0 -14.95 6.05 -14.8 6.05 -14.6 6.05 -14.4 6.05 -14.2 6.05 -13.85 6.05 -13.65 6.0 -13.5 5.9 -13.3 5.65 -13.1 5.3 -12.9 5.05 -12.7 4.95 -12.55 4.85 -12.35 4.7 -12.15 4.35 -11.8 3.85 -11.3 3.75 -11.25 3.45 -11.2 3.4 -11.15 2.65 -11.15 2.15 -11.15 1.65 -11.15 1.3 -11.3 1.1 -11.5 1.0 -11.65 0.95 -11.85 0.9 -12.05 0.9 -12.2 0.9 -12.4 0.9 -12.8 0.9 -12.95 1.0 -13.15 1.1 -13.35 1.15 -13.55 1.2 -13.7 1.25 -13.9 1.2 -14.05 0.8 -14.3 0.6 -14.5 0.5 -14.65 0.45 -14.85 0.4 -15.05 0.4 -15.2 0.4 -15.6 0.45 -16.15 0.5 -16.35 0.55 -16.55 0.7 -16.7 0.85 -16.9 1.0 -17.05 1.1 -17.1 1.4 -17.15 1.65 -17.15 2.65 -17.1 3.1 -17.0" fill="#663333" fill-opacity="0.2" fill-rule="evenodd" stroke="none"/>
    <path d="M-24.35 5.95 L-24.5 6.15 -24.7 6.35 -24.75 6.55 -24.75 6.7 -24.75 6.9 -24.8 7.1 -24.9 7.25 -25.1 7.45 -25.25 7.6 -25.6 7.65 -27.0 7.8 -27.1 7.95 -27.25 8.15 -27.45 8.35 -27.5 8.55 -27.55 8.7 -27.6 8.9 -27.7 9.1 -28.1 9.45 -28.25 9.6 -28.6 9.65 -29.6 9.65 -29.95 9.55 -30.2 9.35 -30.4 9.15 -30.5 8.95 -30.6 8.8 -30.65 8.6 -30.65 8.2 -30.65 7.65 -30.65 6.9 -30.65 6.7 -30.75 6.55 -31.15 6.15 -31.7 5.55 -31.9 5.2 -31.9 5.05 -31.9 4.85 -31.85 4.65 -31.75 4.5 -31.65 4.3 -31.5 4.15 -31.4 4.1 -30.95 3.95 -30.75 3.85 -30.65 3.8 -30.35 3.75 -29.85 3.7 -29.4 3.85 -29.1 3.95 -26.95 3.9 -26.6 3.8 -25.1 3.55 -23.35 3.55 -22.9 3.65 -22.7 3.85 -22.6 4.05 -22.55 4.2 -22.5 4.4 -22.5 4.6 -22.5 4.8 -22.5 4.95 -22.6 5.15 -22.7 5.35 -22.9 5.55 -23.35 5.65 -23.9 5.8 -24.35 5.95" fill="#663333" fill-opacity="0.2" fill-rule="evenodd" stroke="none"/>
    <path d="M-4.2 -7.3 L-4.0 -7.1 -3.85 -6.9 -3.65 -6.7 -3.5 -6.55 -3.45 -6.35 -3.45 -6.15 -3.45 -5.95 -3.45 -5.8 -3.45 -5.6 -3.45 -5.2 -3.5 -4.85 -3.6 -4.65 -3.75 -4.45 -4.0 -4.35 -4.35 -4.3 -4.6 -4.15 -4.75 -3.95 -4.95 -3.8 -5.15 -3.6 -5.4 -3.4 -5.8 -3.3 -5.85 -3.3 -7.85 -3.3 -8.25 -3.4 -8.5 -3.55 -9.1 -3.6 -9.45 -3.7 -9.7 -3.9 -9.85 -4.1 -9.9 -4.3 -9.9 -4.45 -10.0 -4.65 -10.15 -4.85 -10.25 -5.05 -10.25 -5.2 -10.25 -5.6 -10.25 -5.8 -10.25 -6.15 -10.25 -6.7 -10.2 -6.9 -10.15 -7.1 -10.0 -7.3 -9.8 -7.45 -9.6 -7.65 -9.4 -7.8 -9.0 -7.9 -8.6 -8.05 -6.35 -8.05 -5.85 -7.9 -5.1 -7.75 -4.65 -7.65 -4.4 -7.45 -4.2 -7.3" fill="#663333" fill-opacity="0.2" fill-rule="evenodd" stroke="none"/>
    <path d="M11.85 -19.4 L11.9 -19.3 11.95 -19.2 12.0 -19.1 12.05 -19.0 12.05 -18.95 12.05 -18.25 12.05 -17.5 12.0 -16.85 11.95 -16.8 11.8 -16.8 11.8 -16.75 11.7 -16.85 11.65 -16.95 11.55 -17.6 11.55 -18.35 11.55 -18.8 11.55 -18.9 11.5 -19.0 11.45 -19.1 11.4 -19.2 11.4 -19.25 11.45 -19.35 11.5 -19.45 11.55 -19.55 11.6 -19.6 11.7 -19.7 11.8 -19.6 11.8 -19.5 11.85 -19.4 M13.5 -19.85 L-6.1 -19.7 -6.45 -6.2 -7.0 -5.8 -6.95 -5.65 -6.85 -5.45 -6.8 -5.4 -5.7 -4.9 -5.75 -4.15 -8.6 -2.8 -9.2 -3.3 -6.85 -4.5 -8.95 -5.3 -7.45 -7.0 -7.55 -19.65 -10.45 -19.6 -10.45 -19.35 Q-10.3 -17.95 -10.95 -16.4 L-11.05 -15.55 Q-10.85 -14.8 -11.45 -14.7 L-11.65 -14.9 Q-11.85 -15.25 -11.7 -15.85 -11.2 -17.65 -10.95 -19.6 L-11.6 -19.6 -24.05 -19.6 -23.4 -18.0 Q-23.05 -17.1 -23.85 -17.05 L-24.4 -18.5 -24.85 -19.6 -27.6 -19.65 -27.75 -19.65 -27.95 -9.9 -27.95 0.4 -27.9 2.95 -27.75 2.95 -25.7 2.9 -19.9 2.95 -12.9 3.25 -12.9 3.15 -12.85 3.05 -12.5 2.85 -12.3 3.05 -11.9 3.4 -11.9 3.45 -7.7 17.45 -7.7 18.15 -7.2 18.8 Q-7.9 12.45 -7.35 6.0 L-7.3 4.0 Q-7.4 2.0 -7.15 0.2 L-6.95 -0.2 -6.75 -0.15 Q-6.5 0.4 -6.55 1.0 L-6.45 5.8 Q-6.2 8.3 -6.2 10.85 L-6.35 18.9 -6.1 18.9 Q-0.15 19.05 5.75 18.85 L8.25 18.75 11.25 18.7 19.25 18.7 28.25 18.75 28.6 18.85 Q28.35 13.35 28.4 7.85 L28.35 -3.95 28.2 -15.75 28.15 -19.85 14.1 -19.85 14.0 -19.6 13.95 -19.5 13.95 -19.45 13.9 -19.25 13.85 -19.05 13.8 -18.95 13.8 -18.85 13.7 -18.75 13.65 -18.7 13.55 -18.6 13.55 -18.5 13.55 -18.4 13.55 -18.3 13.5 -18.2 13.45 -18.15 13.3 -18.15 13.3 -18.1 13.2 -18.2 13.15 -18.25 13.1 -18.35 13.1 -18.45 13.1 -18.55 13.05 -18.65 13.05 -18.75 13.05 -18.85 13.1 -18.95 13.15 -19.0 13.25 -19.1 13.3 -19.2 13.4 -19.6 13.5 -19.85 M0.3 -12.75 L0.35 -12.3 -0.25 -12.35 -1.05 -14.2 -1.3 -14.9 Q-0.3 -14.85 0.1 -13.6 L0.3 -12.75 M29.55 -21.15 L29.7 -21.1 29.8 -20.9 29.65 -9.1 Q29.4 -3.15 29.5 2.75 L29.5 3.0 34.15 3.1 Q34.6 3.1 34.6 3.4 L34.1 4.25 33.95 4.25 Q33.45 7.45 32.35 10.55 L30.55 16.05 29.5 18.95 29.45 19.05 29.45 19.6 29.35 19.8 29.25 20.0 29.2 20.0 29.1 20.15 28.95 20.35 28.5 20.45 28.5 20.5 28.1 20.35 11.25 20.25 7.0 20.15 Q1.45 19.9 -4.1 20.05 L-16.1 20.25 -22.35 20.3 -28.35 20.3 -28.7 20.2 -28.95 20.0 -29.05 19.8 -29.15 19.6 -29.4 19.45 -29.5 19.25 -29.65 19.05 -29.65 18.85 -29.65 18.7 -29.65 18.6 -30.55 16.05 -32.35 10.55 Q-33.45 7.45 -33.95 4.25 L-34.1 4.25 -34.6 3.4 Q-34.6 3.1 -34.15 3.1 L-29.3 3.0 -29.2 -5.9 Q-29.0 -11.8 -29.25 -17.7 L-29.45 -20.9 -29.4 -21.05 -29.25 -21.25 -29.05 -21.45 -28.9 -21.6 -28.6 -21.65 -28.15 -21.5 -27.9 -21.35 -7.0 -21.25 -6.65 -21.25 28.6 -21.35 29.0 -21.45 29.45 -21.35 29.55 -21.15 M22.3 -18.9 L22.4 -19.0 22.55 -19.05 22.75 -19.1 22.8 -19.15 22.9 -19.05 22.9 -19.0 22.85 -18.9 22.85 -18.8 22.9 -18.7 22.85 -18.6 22.85 -18.5 22.8 -18.35 22.75 -18.15 22.65 -18.05 22.65 -17.95 22.55 -17.85 22.55 -17.75 22.5 -17.65 22.5 -17.5 22.45 -17.3 22.4 -17.2 22.35 -17.1 22.2 -16.95 22.15 -16.85 22.05 -16.65 21.85 -16.35 21.7 -16.1 21.6 -16.0 21.4 -15.95 21.4 -15.9 21.25 -16.0 21.15 -16.1 21.1 -16.2 21.1 -16.25 21.15 -16.35 21.15 -16.45 21.25 -16.55 21.3 -16.85 21.55 -17.2 21.75 -17.5 21.75 -17.6 21.8 -17.7 21.85 -17.85 21.9 -18.05 21.95 -18.15 22.05 -18.35 22.15 -18.5 22.2 -18.6 22.25 -18.7 22.25 -18.8 22.3 -18.9 M23.0 -13.1 Q22.6 -12.85 22.65 -13.4 23.0 -16.2 24.9 -18.15 L23.1 -13.85 23.0 -13.1 M26.25 -16.95 Q26.6 -17.3 26.45 -16.8 L25.95 -15.25 25.65 -14.85 Q24.9 -15.45 26.25 -16.95 M-8.95 -17.3 Q-8.85 -16.7 -9.0 -16.0 -9.15 -15.45 -9.65 -15.8 L-9.7 -16.55 Q-9.55 -17.4 -8.95 -17.3 M-20.9 -15.6 Q-20.9 -16.35 -21.2 -16.9 -21.75 -18.05 -21.05 -18.35 L-20.65 -17.5 Q-20.2 -16.15 -20.75 -15.3 L-20.9 -15.6 M-26.0 -17.25 L-25.9 -17.15 Q-24.65 -16.35 -24.7 -15.25 L-24.85 -15.25 Q-26.0 -16.05 -26.0 -17.25 M-2.15 -12.85 L-1.15 -10.8 -1.05 -10.45 Q-1.75 -10.0 -2.1 -11.4 L-2.6 -12.75 Q-2.7 -13.7 -2.15 -12.85 M-3.75 -12.45 Q-4.0 -12.3 -4.05 -12.3 L-4.65 -13.4 Q-4.4 -14.4 -3.9 -13.4 L-3.75 -12.45 M-16.1 4.4 L-19.5 4.4 -25.25 4.4 -29.45 4.4 -33.0 4.35 Q-30.4 11.5 -28.75 18.5 L-28.5 18.5 -28.5 18.6 -28.5 18.75 -22.35 18.7 -7.95 18.9 -8.9 17.95 -9.55 15.1 -10.85 10.8 -10.95 10.9 -11.1 11.1 -11.5 11.3 -11.95 11.45 -12.15 11.65 -12.35 11.85 -12.65 12.05 -13.25 12.35 -13.4 12.4 -13.6 12.4 -13.7 12.4 -13.9 12.2 -13.9 12.05 -13.85 11.85 -13.15 11.45 -12.75 11.3 -12.6 11.1 -12.4 10.9 -12.1 10.7 -11.5 10.55 -11.2 10.35 -11.05 10.25 -11.15 9.9 -12.75 4.0 -16.1 4.4 M-9.6 -1.6 L-9.85 -1.2 -12.35 0.0 -12.65 0.0 -12.75 -0.15 Q-11.65 -1.4 -9.9 -1.8 L-9.6 -1.6 M-12.95 -16.3 Q-13.25 -17.3 -13.0 -18.5 -12.6 -19.05 -12.6 -18.6 L-12.6 -16.5 Q-12.6 -16.2 -12.85 -16.3 L-12.95 -16.3 M-11.45 9.2 L-11.5 9.4 -11.6 9.6 -11.85 9.7 -12.35 9.75 -12.6 9.8 -12.6 9.85 -13.35 9.85 -13.65 9.7 -13.75 9.55 -13.85 9.35 -13.75 9.15 -13.65 8.95 -13.35 8.85 -12.6 8.85 -12.35 8.9 -11.65 9.05 -11.45 9.2 M-29.4 7.65 L-28.65 8.0 Q-28.15 8.15 -27.95 8.6 L-28.05 8.75 -28.15 8.9 -28.35 8.9 -28.45 8.9 -29.25 8.5 -30.0 8.2 -30.65 7.6 -30.55 7.45 -30.15 7.35 -29.4 7.65 M30.55 9.1 L30.55 9.15 31.0 9.15 31.35 9.15 33.0 4.35 29.55 4.4 29.6 11.7 30.6 11.65 31.1 10.0 31.0 10.0 30.35 9.9 30.1 9.7 29.95 9.5 29.85 9.35 29.95 9.15 30.0 9.0 30.25 8.85 30.5 9.0 30.55 9.1 M29.6 12.4 L29.55 13.45 29.6 13.4 30.0 13.2 30.15 13.1 30.35 12.45 29.6 12.4 M29.55 14.2 L29.55 14.55 29.55 15.3 29.85 14.25 29.75 14.25 29.75 14.3 29.55 14.2" fill="#333333" fill-rule="evenodd" stroke="none"/>
    <path d="M3.7 9.75 L3.65 9.65 3.55 9.55 3.55 9.45 3.55 9.35 3.6 9.25 3.65 9.2 3.7 9.1 Q10.4 8.9 17.15 9.0 L21.55 9.15 21.75 9.2 21.8 9.3 21.85 9.4 21.85 9.5 21.8 9.55 21.75 9.65 21.7 9.65 Q15.55 9.95 9.4 9.85 L4.15 9.8 3.7 9.75" fill="#333333" fill-rule="evenodd" stroke="none"/>
    <path d="M21.8 -2.6 L21.85 -2.5 21.9 -2.4 21.9 2.1 21.85 6.65 21.75 9.1 21.75 9.2 21.8 9.3 21.8 9.4 21.8 9.5 21.75 9.55 21.65 9.55 21.6 9.55 21.5 9.45 21.4 9.35 21.25 4.85 21.25 0.25 21.25 -2.35 21.25 -2.45 21.35 -2.55 21.4 -2.6 21.4 -2.65 21.55 -2.65 21.8 -2.6" fill="#333333" fill-rule="evenodd" stroke="none"/>
    <path d="M21.85 -2.65 L22.05 -2.6 22.15 -2.5 22.2 -2.4 22.25 -2.3 22.25 -2.2 22.2 -2.1 22.15 -2.0 22.05 -1.9 22.0 -1.85 21.95 -1.85 21.8 -1.8 21.65 -1.85 21.35 -1.85 21.15 -1.75 21.05 -1.7 21.0 -1.65 20.8 -1.65 17.55 -1.6 11.65 -1.65 8.3 -1.7 3.15 -1.65 2.95 -1.75 2.85 -1.85 2.8 -1.95 2.75 -2.0 2.75 -2.1 2.8 -2.2 2.8 -2.3 2.9 -2.4 3.0 -2.45 3.15 -2.45 8.3 -2.45 21.0 -2.6 21.2 -2.65 21.4 -2.75 21.55 -2.7 21.7 -2.65 21.85 -2.65" fill="#333333" fill-rule="evenodd" stroke="none"/>
    <path d="M4.05 -2.25 L4.05 1.95 4.0 6.35 3.9 8.8 3.95 9.0 4.0 9.15 4.05 9.35 4.05 9.45 4.0 9.55 3.95 9.6 3.8 9.65 3.65 9.6 3.6 9.5 3.55 9.4 3.55 9.3 3.5 9.2 3.5 9.1 3.45 9.0 3.3 4.7 3.25 0.3 3.2 -2.15 3.25 -2.25 3.3 -2.35 3.4 -2.4 3.5 -2.5 3.65 -2.5 3.9 -2.45 4.0 -2.35 4.05 -2.25" fill="#333333" fill-rule="evenodd" stroke="none"/>
    <path d="M2.15 3.5 L2.5 3.4 2.6 3.35 2.7 3.25 2.8 3.25 2.9 3.25 3.1 3.3 3.2 3.45 3.2 3.55 3.15 3.65 3.1 3.75 2.9 3.85 2.8 3.9 2.65 4.0 2.4 4.05 2.15 4.1 2.0 4.2 1.8 4.25 1.65 4.2 1.6 4.1 1.55 4.0 1.6 3.95 1.65 3.85 1.7 3.75 1.85 3.65 1.95 3.55 2.15 3.5" fill="#333333" fill-rule="evenodd" stroke="none"/>
    <path d="M3.05 2.0 L2.8 2.0 2.65 2.05 2.5 2.0 2.3 2.0 2.15 1.95 1.95 1.9 1.8 1.85 1.4 1.8 1.2 1.75 1.05 1.65 0.8 1.65 0.7 1.55 0.65 1.5 0.6 1.4 0.65 1.3 0.7 1.25 0.8 1.2 1.05 1.15 1.2 1.2 1.3 1.25 1.4 1.25 1.8 1.25 2.5 1.45 2.8 1.5 3.05 1.55 3.2 1.6 3.3 1.7 3.3 1.8 3.45 1.9 3.4 2.0 3.25 1.95 3.05 2.0" fill="#333333" fill-rule="evenodd" stroke="none"/>
    <path d="M22.55 3.25 L22.7 3.3 23.3 3.35 23.45 3.4 23.8 3.5 23.85 3.6 23.9 3.7 23.9 3.75 23.9 3.85 23.85 3.95 23.8 4.05 23.6 4.1 23.55 4.1 23.3 4.05 22.65 4.0 22.45 3.95 22.3 3.9 21.75 3.85 21.55 3.8 21.4 3.75 21.35 3.65 21.3 3.55 21.3 3.45 21.35 3.35 21.45 3.25 21.75 3.2 21.9 3.2 22.3 3.15 22.55 3.25" fill="#333333" fill-rule="evenodd" stroke="none"/>
    <path d="M24.55 1.75 L24.35 1.8 24.3 1.9 24.25 1.95 24.2 2.0 24.05 2.0 23.5 2.1 23.3 2.15 23.15 2.15 22.8 2.25 22.65 2.25 22.3 2.25 22.05 2.25 21.95 2.15 21.9 2.1 21.9 2.0 21.9 1.9 22.05 1.85 23.45 1.55 23.55 1.5 24.05 1.5 24.2 1.6 24.3 1.65 24.4 1.65 24.65 1.65 24.65 1.7 24.55 1.75" fill="#333333" fill-rule="evenodd" stroke="none"/>
    <path d="M15.3 5.2 L15.4 5.3 15.55 5.4 15.85 5.65 16.1 6.05 16.3 6.35 16.35 6.25 16.65 5.9 16.9 5.5 17.0 5.4 17.15 5.3 17.25 5.2 17.35 5.15 17.4 5.1 17.55 5.1 17.65 5.1 17.9 5.15 18.0 5.25 18.05 5.35 18.15 5.4 18.2 5.5 18.25 5.6 18.3 5.7 18.4 5.8 18.45 5.75 18.55 5.75 18.75 5.8 18.8 5.9 18.85 6.0 18.9 6.15 18.9 6.35 18.9 6.55 18.85 6.65 18.8 6.75 18.7 6.8 18.55 6.85 18.4 6.85 18.25 6.75 18.05 6.55 17.9 6.3 17.7 5.9 17.65 5.9 17.5 5.9 17.45 6.0 17.3 6.15 17.05 6.45 17.0 6.55 17.0 6.65 16.95 6.75 16.9 6.85 16.9 6.9 16.85 7.0 16.8 7.1 16.75 7.2 16.75 7.3 16.75 7.4 16.75 7.5 16.7 7.6 16.65 7.65 16.55 7.75 16.4 7.75 16.25 7.7 16.15 7.6 16.05 7.4 15.95 7.25 15.9 7.15 15.85 7.05 15.8 6.95 15.7 6.75 15.55 6.5 15.25 6.1 15.15 6.05 15.0 6.05 14.9 6.1 14.85 6.2 14.8 6.3 14.75 6.4 14.75 6.5 14.7 6.6 14.7 6.65 14.7 6.75 14.7 6.85 14.65 6.95 14.6 7.05 14.55 7.15 14.55 7.25 14.5 7.35 14.45 7.4 14.4 7.5 14.3 7.5 14.15 7.55 14.05 7.55 13.9 7.5 13.8 7.4 13.75 7.3 13.7 7.2 13.7 7.1 13.7 7.0 13.7 6.9 13.7 6.85 13.65 6.75 13.6 6.65 13.55 6.55 13.55 6.45 13.5 6.35 13.45 6.25 13.4 6.15 13.4 6.1 13.35 6.0 13.3 5.9 13.3 5.85 13.15 5.85 12.95 5.75 12.85 5.7 12.7 5.75 12.5 5.85 12.3 5.9 12.25 6.0 12.15 6.1 11.85 6.3 11.75 6.4 11.6 6.5 11.5 6.55 9.3 6.6 9.2 6.65 8.55 6.65 8.4 6.6 8.25 6.5 8.2 6.4 8.15 6.35 8.15 6.25 8.15 6.15 8.2 6.05 8.25 5.95 8.3 5.85 8.4 5.8 11.3 5.7 11.4 5.6 11.55 5.5 11.7 5.4 11.9 5.25 12.05 5.15 12.4 4.95 12.5 4.9 12.65 4.85 12.9 4.85 13.15 4.9 13.3 5.0 13.55 5.1 13.8 5.2 13.9 5.3 13.95 5.4 14.0 5.5 14.0 5.6 14.05 5.65 14.1 5.75 14.15 5.85 14.2 5.8 14.3 5.6 14.45 5.4 14.55 5.25 14.65 5.15 14.8 5.15 15.05 5.15 15.3 5.2" fill="#333333" fill-rule="evenodd" stroke="none"/>
    <path d="M18.0 1.8 L18.2 1.9 18.4 2.1 18.5 2.15 18.65 2.25 18.75 2.35 18.85 2.45 18.9 2.55 18.9 2.65 18.9 2.75 18.9 2.85 18.9 2.9 18.9 3.0 18.8 3.1 18.75 3.15 18.7 3.2 18.55 3.25 18.4 3.15 18.35 3.05 18.25 3.0 18.25 2.9 18.15 2.8 18.0 2.7 17.9 2.6 17.75 2.6 17.75 2.65 17.7 2.75 17.7 2.8 17.65 2.9 17.5 3.1 17.45 3.2 17.35 3.3 17.25 3.4 17.15 3.5 17.0 3.65 16.8 3.65 16.4 3.65 16.25 3.6 16.1 3.5 16.05 3.4 16.0 3.35 16.0 3.25 16.0 3.15 16.0 3.05 15.95 2.95 15.9 2.85 15.85 2.75 15.8 2.65 15.75 2.6 15.75 2.5 15.65 2.4 15.25 2.4 15.1 2.5 15.0 2.6 14.9 2.65 14.8 2.75 14.65 2.85 14.5 2.95 14.15 3.15 14.05 3.25 14.0 3.3 13.8 3.3 13.05 3.35 12.9 3.25 12.75 3.2 12.6 3.1 12.4 3.0 12.05 2.9 11.9 2.9 11.75 2.85 11.6 2.75 11.55 2.65 11.4 2.55 11.35 2.5 11.4 2.45 11.55 2.35 11.65 2.25 11.7 2.2 11.75 2.2 11.9 2.15 12.4 2.1 12.65 2.15 12.8 2.25 13.0 2.35 13.15 2.45 13.65 2.45 13.85 2.35 14.05 2.25 14.2 2.2 14.35 2.1 14.55 1.9 Q14.9 1.6 15.3 1.55 L15.8 1.5 16.05 1.6 16.15 1.65 16.25 1.75 16.3 1.85 16.45 2.05 16.5 2.15 16.5 2.25 16.55 2.35 16.6 2.4 16.65 2.5 16.75 2.6 16.75 2.65 16.8 2.6 16.9 2.5 16.9 2.4 16.95 2.3 17.0 2.2 17.05 2.1 17.1 2.0 17.25 1.9 17.35 1.85 17.4 1.75 17.5 1.65 17.65 1.65 17.9 1.7 18.0 1.8" fill="#333333" fill-rule="evenodd" stroke="none"/>
    <path d="M9.75 2.25 L9.85 2.35 9.9 2.45 9.9 2.55 9.85 2.65 9.8 2.75 9.7 2.8 9.55 2.85 9.45 2.85 9.4 2.9 9.3 3.0 9.05 3.05 8.8 3.05 8.65 3.0 8.55 2.9 8.5 2.8 8.45 2.7 8.45 2.6 8.45 2.5 8.45 2.4 8.5 2.35 8.55 2.25 8.65 2.15 8.8 2.1 8.9 2.1 9.55 2.2 9.75 2.25" fill="#333333" fill-rule="evenodd" stroke="none"/>
  </g>
</svg>
