<?xml version="1.0" encoding="UTF-8" standalone="no"?>
<svg xmlns:xlink="http://www.w3.org/1999/xlink" height="53.45px" width="82.2px" xmlns="http://www.w3.org/2000/svg">
  <g transform="matrix(1.0, 0.0, 0.0, 1.0, 41.1, 26.7)">
    <path d="M35.15 25.75 L-36.05 25.75 -36.05 -25.7 35.15 -25.7 35.15 25.75" fill="#d1bc9c" fill-rule="evenodd" stroke="none"/>
    <path d="M25.8 25.75 L30.05 6.65 39.8 6.65 35.55 25.75 25.8 25.75" fill="#d1bc9c" fill-rule="evenodd" stroke="none"/>
    <path d="M-26.2 25.75 L-30.45 6.65 -40.2 6.65 -35.95 25.75 -26.2 25.75" fill="#d1bc9c" fill-rule="evenodd" stroke="none"/>
    <path d="M33.0 -8.15 L33.05 -8.2 33.05 -8.3 33.15 -8.4 33.2 -8.5 33.25 -8.6 34.1 -8.9 34.65 -9.0 35.15 -9.0 35.4 -8.95 35.6 -8.85 35.65 -8.75 35.75 -8.65 35.8 -8.55 35.8 -8.4 35.85 -8.2 35.85 -8.1 35.85 -8.0 35.85 -7.9 35.8 -7.65 35.8 -7.55 35.75 -7.45 35.7 -7.35 35.6 -7.25 35.5 -7.15 35.35 -6.95 35.25 -6.9 35.15 -6.8 34.9 -6.75 34.9 -6.7 34.85 -6.75 34.6 -6.75 34.4 -6.8 34.35 -6.8 33.8 -6.85 33.6 -6.9 33.35 -7.0 33.25 -7.1 33.15 -7.2 33.05 -7.3 33.0 -7.4 33.0 -7.45 33.0 -7.55 33.0 -7.75 33.0 -7.85 33.0 -7.95 33.0 -8.05 33.0 -8.15" fill="#d1bc9c" fill-rule="evenodd" stroke="none"/>
    <path d="M-37.55 -7.5 L-37.45 -7.6 -37.25 -7.7 -37.05 -7.8 -36.9 -7.9 -36.7 -7.95 -36.5 -8.0 -35.6 -8.05 -35.4 -7.95 -35.2 -7.9 -35.1 -7.8 -34.9 -7.75 -34.75 -7.65 -34.7 -7.55 -34.65 -7.45 -34.65 -7.4 -34.65 -7.3 -34.65 -7.2 -34.65 -7.1 -34.65 -7.0 -34.65 -6.9 -34.7 -6.8 -34.8 -6.75 -34.9 -6.65 -34.95 -6.55 -35.05 -6.45 -35.25 -6.35 -35.5 -6.25 -36.05 -6.1 -36.2 -6.1 -36.6 -6.1 -37.1 -6.15 -37.55 -6.3 -37.65 -6.4 -37.7 -6.45 -37.75 -6.55 -37.75 -6.65 -37.75 -6.85 -37.75 -6.95 -37.75 -7.05 -37.7 -7.2 -37.7 -7.3 -37.65 -7.4 -37.55 -7.5" fill="#d1bc9c" fill-rule="evenodd" stroke="none"/>
    <path d="M-24.75 0.85 L-24.75 -11.4 -4.75 -11.4 -4.75 0.85 -24.75 0.85" fill="#ffffff" fill-rule="evenodd" stroke="none"/>
    <path d="M2.8 -5.85 L10.05 -5.6 10.4 -4.9 11.4 -4.35 11.55 -3.65 13.4 -2.1 13.25 -1.95 12.55 -1.65 10.55 -1.1 Q10.5 8.0 9.6 17.7 L9.3 18.1 8.65 18.35 8.05 18.1 6.55 15.5 6.15 9.55 -14.85 8.75 Q-27.45 11.1 -39.1 8.2 L-39.45 7.75 -39.25 7.3 -38.95 6.9 Q-37.9 5.9 -36.45 5.5 L-36.6 5.1 -36.65 4.4 Q-36.75 3.1 -35.8 2.2 L-35.1 1.5 Q-24.85 2.8 -15.85 -0.25 L-15.8 -0.95 Q-9.1 -4.1 -1.05 -4.75 L2.15 -5.15 2.8 -5.85" fill="#663333" fill-opacity="0.2" fill-rule="evenodd" stroke="none"/>
    <path d="M10.65 -14.65 L11.9 -13.4 11.85 -13.35 11.7 -13.15 11.6 -12.95 11.5 -12.8 11.45 -12.6 11.35 -12.4 11.0 -12.05 10.75 -11.85 10.45 -11.65 10.15 -11.45 9.95 -11.25 9.85 -11.1 9.7 -10.9 9.6 -10.7 9.5 -10.55 9.45 -10.35 9.4 -10.15 9.4 -9.95 9.4 -9.8 9.45 -9.6 9.5 -9.4 9.5 -9.2 9.7 -8.85 9.85 -8.65 10.05 -8.45 10.3 -8.3 10.6 -8.1 11.4 -7.95 11.6 -7.95 10.6 3.1 Q9.85 13.1 10.9 23.05 10.95 23.65 10.45 24.25 L7.7 26.75 -5.5 26.5 -6.75 26.45 -11.35 26.3 Q-16.15 26.15 -20.9 26.3 -28.85 25.8 -36.45 24.1 -37.55 23.95 -37.9 22.8 L-38.1 22.2 -38.1 21.8 -38.1 20.85 -38.1 20.3 -38.1 19.9 -38.15 19.7 -38.25 19.55 -38.3 19.35 -38.35 19.15 -38.7 17.1 -39.3 15.05 -39.75 13.7 -39.8 13.55 -39.85 13.35 -39.85 12.95 -39.85 10.9 -39.85 8.85 -39.85 7.55 -38.05 6.15 Q-37.75 5.95 -37.35 5.85 -35.4 -4.5 -37.2 -14.35 -38.4 -20.95 -34.15 -24.0 -31.95 -25.6 -28.85 -25.5 L9.9 -24.4 Q12.5 -20.5 10.7 -15.7 L10.65 -14.65" fill="#663333" fill-opacity="0.2" fill-rule="evenodd" stroke="none"/>
    <path d="M40.2 7.2 Q39.7 11.7 38.2 15.9 L37.65 16.95 37.2 20.5 35.45 20.1 35.0 7.35 35.45 6.6 39.1 6.6 40.2 7.2" fill="#663333" fill-opacity="0.2" fill-rule="evenodd" stroke="none"/>
    <path d="M38.75 11.35 Q38.6 16.65 36.7 21.25 L35.85 21.05 36.05 18.25 35.75 17.85 36.25 11.1 Q34.4 10.15 34.7 7.9 L34.75 7.7 35.9 6.65 39.6 6.85 Q40.85 8.75 39.4 10.55 L38.75 11.35" fill="#663333" fill-opacity="0.2" fill-rule="evenodd" stroke="none"/>
    <path d="M35.4 10.0 Q41.0 11.7 38.4 18.3 37.7 20.15 35.45 19.85 L35.05 19.1 36.35 12.55 35.2 12.2 34.6 10.55 35.4 10.0" fill="#663333" fill-opacity="0.2" fill-rule="evenodd" stroke="none"/>
    <path d="M0.05 -3.2 L0.8 -2.1 6.55 -1.1 9.1 2.9 Q9.85 10.45 10.25 18.25 L10.3 18.7 9.8 19.6 9.15 19.85 Q4.7 15.0 6.2 7.25 L6.15 6.5 Q-15.75 7.1 -37.35 5.3 L-37.85 4.6 -35.8 -0.5 Q-35.15 -1.85 -33.6 -1.8 L-31.95 -4.75 Q-31.1 -6.35 -29.7 -7.15 L-27.6 -7.8 -23.35 -7.65 -22.35 -6.55 -21.7 -6.6 -20.1 -9.4 -18.85 -9.65 -17.85 -9.25 -16.6 -7.4 -13.6 -9.4 Q-7.05 -10.9 -3.95 -6.15 L-3.45 -5.1 Q-2.0 -4.85 -0.95 -4.1 L0.05 -3.2" fill="#663333" fill-opacity="0.2" fill-rule="evenodd" stroke="none"/>
    <path d="M34.8 -23.95 Q29.75 -23.4 26.45 -19.4 L25.65 -18.9 12.3 -23.0 Q-0.75 -24.2 -13.1 -20.0 L-13.45 -19.75 Q-17.9 -19.8 -21.45 -22.4 L-22.35 -22.4 -22.7 -22.1 -34.9 -23.0 -35.3 -23.35 Q-35.65 -23.95 -35.6 -24.6 L-35.2 -26.0 Q-24.65 -27.15 -14.45 -25.15 -0.05 -27.85 14.55 -25.9 L14.9 -25.5 Q24.85 -26.5 34.8 -25.25 L34.8 -23.95" fill="#663333" fill-opacity="0.2" fill-rule="evenodd" stroke="none"/>
    <path d="M-6.6 -20.55 L-7.95 -19.65 Q-8.8 -14.2 -15.0 -13.25 L-15.65 -9.5 Q-17.05 -8.05 -19.1 -7.25 L-19.65 -4.25 -22.45 -2.3 Q-20.2 5.2 -27.05 6.25 -31.15 6.8 -35.7 6.35 -37.45 4.4 -35.85 2.25 -36.9 -1.55 -35.85 -5.25 -39.9 -7.75 -35.85 -11.0 -35.3 -17.0 -35.6 -23.0 -36.8 -28.05 -30.95 -25.6 L-30.4 -25.25 Q-18.4 -26.45 -6.65 -25.05 -3.3 -22.9 -6.6 -20.55" fill="#663333" fill-opacity="0.2" fill-rule="evenodd" stroke="none"/>
    <path d="M-36.7 -13.2 Q-33.4 -16.5 -29.1 -12.45 L-28.7 -12.0 -29.45 -9.9 -35.35 -8.4 Q-36.6 -8.75 -37.6 -9.55 L-37.85 -9.8 -38.0 -10.25 -37.85 -10.65 -37.2 -11.1 -36.7 -13.2" fill="#663333" fill-opacity="0.2" fill-rule="evenodd" stroke="none"/>
    <path d="M-39.9 7.35 L-40.0 7.15 -40.05 6.95 -40.1 6.9 -39.6 6.1 Q-27.3 6.9 -14.95 6.6 L-14.35 7.75 -14.95 9.1 Q-17.5 10.7 -20.45 10.65 L-22.4 10.45 -23.1 10.1 -24.45 10.5 -25.45 12.6 -32.1 14.6 -33.75 12.1 Q-36.2 12.45 -38.2 11.35 L-39.3 10.4 -39.85 9.3 -39.85 8.85 -39.85 7.55 -39.9 7.35" fill="#663333" fill-opacity="0.2" fill-rule="evenodd" stroke="none"/>
    <path d="M-0.45 -18.85 L2.4 -18.5 Q3.15 -17.25 2.3 -16.1 L0.8 -14.4 0.15 -14.25 -0.6 -14.5 -1.2 -15.25 -1.15 -17.85 -0.45 -18.85" fill="#663333" fill-opacity="0.2" fill-rule="evenodd" stroke="none"/>
    <path d="M35.6 -5.15 L35.6 -4.05 35.4 -3.7 10.25 -4.05 7.0 -4.7 6.35 -6.15 7.15 -7.3 12.4 -7.5 13.05 -7.4 15.15 -7.4 15.15 -7.45 15.45 -7.5 15.6 -7.5 Q25.55 -7.4 35.4 -5.5 L35.6 -5.15" fill="#663333" fill-opacity="0.2" fill-rule="evenodd" stroke="none"/>
    <path d="M-35.7 -25.4 L-33.95 -25.4 -33.35 -24.65 Q-33.3 -16.95 -33.7 -9.4 L-34.35 -9.15 -34.95 -9.4 Q-36.65 -14.2 -36.4 -19.6 L-36.3 -24.35 -35.7 -25.4" fill="#663333" fill-opacity="0.2" fill-rule="evenodd" stroke="none"/>
    <path d="M-35.6 18.6 L-31.1 18.5 -30.8 19.25 Q-30.7 19.6 -30.75 20.0 -30.85 21.45 -32.35 21.85 L-34.3 21.3 -34.85 21.1 Q-35.95 20.6 -35.95 19.35 L-35.6 18.6" fill="#663333" fill-opacity="0.2" fill-rule="evenodd" stroke="none"/>
    <path d="M35.65 -23.55 L34.8 -22.9 35.15 -22.15 34.8 -21.4 Q32.2 -20.6 30.3 -22.4 24.9 -21.55 20.3 -23.75 L19.9 -24.9 35.4 -25.0 35.8 -24.25 35.65 -23.55" fill="#663333" fill-opacity="0.2" fill-rule="evenodd" stroke="none"/>
    <path d="M-4.9 -12.7 L-5.25 -11.95 -26.1 -11.85 -26.4 -12.2 -26.35 -13.15 -20.85 -13.5 -5.4 -13.45 -4.9 -12.7" fill="#663333" fill-opacity="0.2" fill-rule="evenodd" stroke="none"/>
    <path d="M10.4 23.5 L10.65 23.85 10.8 24.25 10.75 24.6 10.65 24.95 10.4 25.25 10.15 25.35 9.65 25.45 8.65 25.55 5.15 25.65 5.15 25.75 2.65 25.75 2.15 25.65 0.15 25.5 -0.45 25.25 -12.85 25.0 -13.45 24.75 -14.35 24.5 -14.95 24.55 -15.2 24.6 -15.35 24.7 -15.85 24.85 -33.7 25.1 -34.35 25.35 -36.35 25.35 -36.95 25.1 -37.2 24.7 -37.35 24.35 -37.2 24.0 -36.95 23.6 -36.3 23.4 -34.95 23.05 -34.35 22.85 -27.1 22.6 -26.8 22.4 -26.35 22.25 -16.95 22.0 -16.35 21.75 -14.35 21.75 -13.6 22.05 -13.3 22.2 -12.6 22.5 0.65 22.75 1.4 23.0 9.65 23.25 10.4 23.5" fill="#ffff99" fill-opacity="0.2" fill-rule="evenodd" stroke="none"/>
    <path d="M20.65 -10.95 L31.8 -11.25 32.3 -11.65 32.55 -11.85 33.15 -12.0 33.65 -12.0 34.55 -11.75 34.8 -11.4 35.05 -11.0 35.1 -10.65 35.3 -10.3 35.55 -10.0 35.65 -9.9 36.4 -9.65 36.8 -9.25 36.9 -8.9 36.9 -8.5 36.9 -8.15 36.85 -7.8 36.65 -7.4 36.4 -7.15 36.15 -7.05 35.7 -6.95 35.65 -6.9 34.15 -7.0 33.55 -7.25 31.65 -7.5 31.05 -7.75 30.15 -8.0 29.65 -8.15 20.05 -8.7 17.9 -9.15 17.65 -9.55 17.65 -9.9 Q18.65 -10.6 20.05 -10.9 L20.65 -10.95" fill="#ffff99" fill-opacity="0.2" fill-rule="evenodd" stroke="none"/>
    <path d="M34.55 -25.25 L34.8 -24.9 35.05 -24.5 Q35.35 -22.25 35.2 -20.0 35.05 -17.6 35.05 -15.15 L35.05 -11.75 35.1 -11.4 35.3 -11.05 35.65 -10.6 35.9 -10.25 36.0 -9.9 36.05 -9.15 36.05 -8.4 36.05 -8.0 36.0 -7.65 35.8 -7.25 35.35 -6.85 35.15 -6.5 35.05 -6.15 35.1 -5.8 35.3 -5.4 35.65 -5.1 35.65 -5.0 36.55 -4.75 36.8 -4.4 37.3 -4.0 37.55 -3.65 37.55 -3.25 37.55 -2.5 37.55 -1.75 37.55 -1.4 37.4 -1.05 37.15 -0.65 36.8 -0.4 36.15 -0.25 35.05 0.0 34.95 8.6 34.85 17.6 34.55 23.25 34.7 23.6 34.85 24.0 34.9 24.35 34.75 24.7 34.5 24.9 34.15 25.0 33.9 25.0 33.4 24.6 33.25 24.25 33.05 23.85 Q32.4 19.05 32.35 14.1 L32.25 4.0 Q32.2 0.95 32.4 -2.0 L32.6 -2.35 32.9 -2.75 32.75 -3.15 32.55 -3.5 32.3 -3.9 32.3 -5.0 32.25 -6.5 Q32.2 -7.3 32.4 -8.0 L32.6 -8.35 32.85 -8.8 32.9 -9.15 32.75 -9.5 32.55 -9.9 32.4 -10.25 Q32.2 -12.7 32.25 -15.15 L32.15 -20.4 32.15 -23.75 32.3 -24.15 32.4 -24.5 32.6 -24.85 32.9 -25.25 33.65 -25.5 34.55 -25.25" fill="#ffff99" fill-opacity="0.2" fill-rule="evenodd" stroke="none"/>
    <path d="M29.65 24.85 L19.15 25.0 11.65 25.0 11.05 24.75 10.8 24.35 10.65 23.95 10.65 23.6 10.8 23.25 10.95 23.0 11.15 22.85 11.65 22.75 Q22.8 22.65 33.9 23.0 L34.65 22.75 35.2 23.05 35.4 23.35 35.25 23.7 34.8 24.1 34.3 24.5 33.65 24.75 29.65 24.85" fill="#ffff99" fill-opacity="0.2" fill-rule="evenodd" stroke="none"/>
    <path d="M16.65 19.0 L16.8 18.6 17.05 18.25 17.8 17.5 18.55 16.85 19.3 16.6 19.55 16.25 19.8 16.0 20.05 15.9 20.65 15.75 21.65 15.75 22.55 16.0 22.9 16.35 23.3 16.75 24.05 17.45 24.55 17.85 24.75 17.6 25.05 17.25 25.3 17.0 25.55 16.9 26.15 16.7 27.05 16.5 27.05 16.1 27.05 15.75 27.05 15.35 27.05 14.6 27.15 13.85 27.35 13.5 27.7 13.15 28.05 12.85 28.9 12.6 29.15 12.25 29.45 11.85 29.8 11.5 29.95 11.1 30.15 10.75 30.45 10.4 30.8 10.0 30.95 9.6 31.15 9.25 31.8 8.5 32.55 7.85 33.15 7.75 34.05 8.0 34.4 8.4 34.65 8.75 34.75 9.1 34.8 9.5 34.8 9.85 34.8 10.6 34.8 11.0 34.75 11.35 34.55 11.75 34.35 12.15 34.3 12.5 34.35 12.85 34.55 13.25 35.15 13.6 35.55 14.0 35.9 14.35 36.3 14.75 36.65 15.1 36.75 15.5 36.8 15.85 36.8 16.25 36.8 17.0 36.8 17.75 36.6 18.1 36.3 18.5 35.95 18.85 35.65 19.25 36.0 19.6 36.3 20.0 36.5 20.35 36.65 20.75 36.65 21.1 36.65 21.5 36.55 21.85 36.15 22.25 35.8 22.6 35.55 23.0 35.55 23.35 35.55 23.75 35.55 24.1 35.4 24.45 35.15 24.85 34.8 25.1 34.3 25.2 30.15 25.5 15.15 25.5 14.4 25.25 13.9 24.85 13.7 24.45 13.55 24.1 13.55 23.75 13.65 23.35 13.8 23.0 14.2 22.65 14.55 22.35 15.15 22.25 16.3 22.0 16.55 21.6 16.55 21.25 16.55 20.85 16.55 20.5 16.55 19.75 16.65 19.0" fill="#ffff99" fill-opacity="0.2" fill-rule="evenodd" stroke="none"/>
    <path d="M10.65 4.0 L11.55 4.25 12.0 4.65 12.4 5.0 12.55 5.35 12.65 5.75 13.05 6.1 13.55 6.45 14.3 6.85 14.65 7.25 14.9 7.6 15.0 8.0 15.05 8.35 15.05 8.75 15.2 9.05 15.55 9.35 Q17.5 9.35 19.3 10.05 L22.65 10.5 23.55 10.75 24.0 11.15 24.4 11.5 24.5 11.85 24.55 12.25 24.55 12.6 24.55 13.0 24.55 13.35 24.35 13.7 24.0 14.1 23.55 14.5 23.15 14.85 23.5 15.25 23.75 15.6 24.15 16.35 24.8 17.5 24.85 17.65 25.55 18.0 25.9 18.35 26.3 18.75 27.0 19.5 27.65 20.25 27.85 20.45 29.15 20.9 30.05 21.1 30.4 21.5 30.55 21.65 31.65 21.9 32.15 22.0 32.8 22.25 33.0 22.65 33.05 23.0 32.55 23.45 Q31.45 24.0 30.15 24.0 L28.65 24.1 28.15 24.0 27.15 24.1 26.8 24.35 26.15 24.45 25.65 24.5 24.9 24.25 24.55 24.0 23.65 23.9 22.8 23.85 22.4 24.1 22.05 24.35 14.3 24.75 13.8 25.0 13.15 25.05 13.15 25.1 12.65 25.1 11.8 24.85 11.3 24.45 10.95 24.1 10.7 23.7 10.55 23.35 10.45 22.6 10.4 21.85 10.4 20.75 10.4 19.6 10.55 19.25 10.8 18.85 11.15 18.5 11.8 18.1 12.15 17.75 11.65 17.35 10.65 17.2 9.8 17.0 9.3 16.6 9.05 16.2 8.9 15.85 8.8 15.5 8.8 15.1 8.8 14.75 8.8 14.0 8.8 13.25 8.9 12.85 9.05 12.5 9.15 12.1 9.3 11.35 9.55 10.6 9.7 10.25 10.0 9.85 10.25 9.45 10.3 9.1 10.25 8.75 10.0 8.4 9.65 7.95 9.1 7.2 8.9 6.85 8.8 6.5 8.8 6.1 8.8 5.75 8.9 5.35 9.05 5.0 9.3 4.6 9.8 4.25 10.65 4.0" fill="#ffff99" fill-opacity="0.2" fill-rule="evenodd" stroke="none"/>
    <path d="M35.3 -26.3 L35.35 -26.4 35.45 -26.55 35.85 -26.65 35.95 -26.5 36.0 -26.3 36.4 -26.3 36.95 -25.5 Q36.95 -25.0 36.65 -25.15 L36.4 -25.1 36.45 -19.9 36.3 -14.5 36.2 -11.3 36.2 -11.1 36.25 -10.9 36.35 -10.75 36.3 -10.55 36.2 -10.35 36.0 -10.25 36.1 -10.1 36.1 -9.9 36.15 -9.75 36.2 -9.55 36.3 -9.35 36.4 -9.15 36.55 -8.95 36.7 -8.8 36.85 -8.6 36.85 -8.05 36.85 -7.5 36.85 -6.9 Q36.8 -6.45 36.35 -6.2 L35.2 -5.55 34.95 -5.4 35.1 -5.25 35.85 -5.0 36.6 -4.75 36.7 -4.55 36.85 -4.35 36.85 -4.15 36.85 -4.0 36.85 -3.8 36.75 -3.6 36.65 -3.4 36.4 -3.2 36.35 -3.05 36.25 -1.5 36.2 -1.15 36.15 0.7 36.15 2.05 36.2 2.2 36.25 2.4 36.35 5.85 37.0 5.85 40.2 5.85 40.85 5.95 41.0 6.2 41.1 6.35 41.0 6.5 41.0 6.7 40.9 6.9 40.85 7.05 40.8 7.1 40.85 7.3 40.95 7.5 40.85 7.95 40.85 8.15 40.8 8.4 40.7 8.65 40.6 8.85 40.45 9.1 40.4 9.3 39.45 13.1 38.05 19.15 36.6 25.0 36.45 25.2 36.3 25.45 Q36.15 25.5 36.05 25.6 L36.0 25.65 35.9 25.85 35.8 25.85 35.8 25.9 35.75 26.1 35.6 26.2 35.4 26.25 34.4 26.4 21.15 26.45 13.4 26.4 13.15 26.35 2.65 26.45 -9.35 26.6 -33.95 26.55 -36.45 26.55 -36.8 26.4 -37.0 26.2 -37.05 26.05 -37.1 25.85 -37.05 25.65 -37.0 25.45 -36.8 25.3 -36.75 25.3 -36.85 25.2 -36.95 25.0 -38.3 19.15 -39.6 13.1 -40.45 9.3 -40.5 9.1 -40.65 8.85 -40.75 8.65 -40.85 8.4 -40.9 8.15 -40.9 7.95 -40.95 7.5 -40.9 7.3 -40.8 7.15 -40.9 7.05 -40.95 6.9 -41.05 6.7 -41.05 6.55 -41.1 6.35 -41.0 6.2 -40.9 6.0 -40.5 5.85 -38.35 5.85 -36.95 5.85 -37.1 -1.0 -37.2 -1.2 -37.25 -1.4 -37.25 -1.6 -37.25 -1.85 -37.25 -2.1 -37.2 -2.3 -37.0 -2.75 -36.75 -3.45 -36.55 -3.9 -36.55 -4.05 -36.55 -4.3 -36.55 -4.55 -36.8 -4.75 -37.55 -5.05 -38.7 -5.65 -38.75 -5.85 -38.85 -6.1 -38.9 -6.3 -38.9 -6.55 -38.9 -6.75 -38.9 -7.0 -38.75 -7.2 -38.7 -7.45 -38.5 -7.65 -38.3 -7.85 -38.15 -8.1 -37.8 -8.3 -37.75 -8.35 -37.65 -8.45 -37.45 -8.7 -37.35 -8.7 Q-37.6 -17.1 -37.0 -25.35 L-36.8 -25.8 -36.8 -26.1 Q-36.65 -26.55 -36.15 -26.55 L-27.05 -26.4 -18.05 -26.4 -8.95 -26.4 0.05 -26.4 9.1 -26.3 18.1 -26.3 27.15 -26.35 35.3 -26.3 M5.45 -24.95 L4.7 -22.25 Q4.35 -21.75 3.95 -22.1 3.85 -22.7 4.15 -23.4 L4.45 -24.35 4.6 -24.95 4.4 -24.95 -1.85 -24.8 -3.8 -24.8 -11.85 -24.75 -14.85 -24.75 -14.75 -23.65 -15.1 -23.05 -15.0 -22.85 -14.9 -22.7 -14.95 -22.6 -15.15 -22.5 -15.35 -22.65 -15.45 -23.25 Q-15.3 -23.9 -15.4 -24.55 L-15.4 -24.75 -18.65 -24.75 -18.1 -23.05 -17.75 -22.35 Q-17.35 -21.7 -18.2 -21.7 L-18.6 -22.95 -19.15 -24.75 -19.95 -24.75 -28.05 -24.75 -35.5 -24.8 -35.5 -9.3 -35.45 -9.25 -35.3 -9.0 -35.25 -8.75 -35.25 -8.5 -35.25 -8.35 -35.25 -8.1 -35.4 -7.85 -35.5 -7.65 -36.2 -7.35 -36.9 -7.05 -37.0 -6.85 -36.8 -6.7 -35.7 -5.9 Q-35.3 -5.6 -35.25 -5.05 L-35.25 -4.35 -35.25 -3.7 -35.25 -3.05 -35.4 -2.8 -35.5 -2.65 -35.7 -2.4 -35.75 -2.15 -35.85 -1.9 -35.5 -1.9 -35.5 5.85 Q-31.0 5.85 -26.45 6.0 L-15.55 6.0 Q-5.3 5.65 5.15 5.95 L5.1 5.7 5.2 5.5 5.25 5.3 Q5.45 5.15 5.6 5.1 L6.05 5.3 6.25 5.45 6.4 5.7 8.15 13.1 9.75 20.65 9.75 19.3 9.7 11.0 9.6 1.9 9.7 1.75 9.85 1.5 10.25 1.45 Q10.45 1.45 10.65 1.6 L10.8 1.7 10.6 23.3 10.4 23.95 10.65 25.2 10.65 25.35 13.15 25.35 13.4 25.3 17.9 25.25 Q26.15 25.2 34.4 25.3 L34.65 25.35 35.25 25.4 35.25 25.35 35.15 25.15 35.15 24.9 35.2 24.75 Q34.9 20.65 34.95 16.55 L34.95 7.55 34.85 7.55 34.95 6.55 Q34.9 4.5 35.0 2.45 L35.15 2.3 35.15 0.0 35.15 -1.5 35.1 -2.25 34.95 -3.65 34.9 -3.7 34.5 -3.85 34.3 -4.05 34.15 -4.15 34.1 -4.2 33.75 -4.35 33.6 -4.55 33.35 -4.75 33.2 -4.9 33.1 -5.1 32.95 -5.3 32.95 -5.5 32.95 -5.65 32.95 -5.85 33.0 -6.05 33.1 -6.25 33.2 -6.4 34.4 -6.9 35.2 -7.15 35.45 -7.35 35.45 -7.55 35.45 -7.75 35.45 -7.9 35.25 -8.25 34.95 -8.85 34.75 -9.25 34.7 -9.4 34.7 -9.6 34.7 -9.8 34.7 -10.0 34.8 -10.15 34.9 -10.35 35.0 -10.5 35.1 -10.5 35.2 -10.5 34.9 -16.3 34.8 -22.3 Q34.75 -23.65 35.0 -25.0 25.85 -24.2 16.85 -24.8 L11.05 -24.95 11.3 -14.45 10.35 -11.5 10.2 -24.95 5.45 -24.95 M-33.55 -19.55 L-33.35 -19.7 -31.85 -18.65 -31.75 -18.3 Q-31.8 -17.8 -32.1 -17.9 L-33.55 -19.55 M-32.35 -22.9 L-31.65 -22.95 -30.7 -21.65 -30.55 -20.6 -30.8 -20.3 -31.35 -20.7 -31.6 -21.45 -32.35 -22.9 M-27.65 -22.05 L-27.4 -21.5 -27.4 -19.1 Q-27.65 -18.9 -27.85 -19.3 L-28.3 -20.55 Q-28.25 -21.8 -28.95 -22.8 L-28.4 -23.2 -27.65 -22.05 M26.75 -23.4 L26.95 -23.2 27.0 -22.8 26.95 -22.35 26.75 -22.2 26.6 -22.35 26.5 -22.8 26.6 -23.2 26.75 -23.4 M30.05 -22.2 L30.2 -22.3 30.5 -21.85 Q30.8 -21.0 30.35 -20.2 L30.2 -18.9 Q29.9 -18.8 29.8 -19.1 29.5 -19.9 29.65 -20.55 L30.05 -22.2 M33.0 -22.25 Q33.1 -22.75 33.35 -22.25 33.85 -21.2 33.25 -20.4 L33.15 -20.4 Q32.7 -21.3 33.0 -22.25 M17.15 -6.35 Q17.4 -6.75 18.0 -6.8 L23.0 -7.3 23.8 -7.45 25.8 -7.35 29.8 -6.2 31.1 -5.75 17.15 -6.35 M8.7 -7.7 L8.7 -9.2 10.0 -10.2 10.5 -10.1 10.8 -9.65 10.1 -8.55 11.95 -7.2 Q13.45 -6.15 12.0 -5.3 L10.8 -4.4 Q11.0 -2.95 10.25 -2.15 L10.0 -2.35 Q9.7 -2.9 9.55 -3.7 9.45 -4.45 9.85 -5.25 L10.9 -6.35 8.7 -7.7 M6.75 -19.9 L6.15 -19.2 Q5.55 -18.65 5.2 -19.05 L6.7 -21.3 7.25 -22.3 Q7.6 -23.15 8.25 -22.75 8.4 -22.3 7.9 -21.75 L6.75 -19.9 M-33.5 -8.8 L-33.45 -8.9 -33.4 -9.0 -33.3 -9.05 -33.1 -9.15 -32.1 -8.9 -31.35 -8.65 -30.7 -8.45 -30.65 -8.35 -30.55 -8.25 -30.4 -8.15 -30.35 -8.05 -30.3 -8.0 -30.35 -7.9 -30.4 -7.8 -30.45 -7.75 -30.6 -7.7 -30.7 -7.75 -30.8 -7.75 -31.1 -7.8 -31.3 -7.8 -31.45 -7.8 -32.65 -8.15 -33.35 -8.4 -33.45 -8.5 -33.45 -8.6 -33.5 -8.7 -33.5 -8.8 M-25.1 -11.85 L-24.95 -11.8 -19.1 -12.2 -7.5 -11.9 -4.85 -11.9 -4.8 -11.85 -4.7 -11.9 -4.45 -11.8 -4.3 -11.75 -4.2 -11.65 -4.2 -7.4 -4.25 -6.8 -3.2 -7.0 -2.95 -6.95 -2.7 -6.9 -2.45 -6.95 -2.25 -6.9 -2.25 -6.8 -2.2 -6.7 -2.25 -6.6 -2.3 -6.55 -2.7 -6.45 -2.85 -6.4 -2.95 -6.3 -3.2 -6.25 -4.25 -6.05 -4.3 -5.6 -2.85 -5.4 -2.8 -5.3 -2.75 -5.25 -2.7 -5.15 -2.65 -5.05 -2.6 -4.95 -2.65 -4.85 -2.7 -4.8 -2.85 -4.75 -2.95 -4.8 -3.1 -4.8 -3.2 -4.75 -3.35 -4.75 -4.3 -4.75 -4.35 -3.1 -4.45 -0.75 -4.45 -0.65 -4.5 -0.55 -4.45 -0.5 -4.35 -0.4 -4.35 -0.35 -4.45 -0.2 -4.55 -0.15 -4.7 -0.1 -4.85 -0.1 -4.9 -0.2 -5.0 -0.3 -5.05 -0.4 -5.15 -0.5 -5.05 -0.55 -5.05 -0.65 -5.15 -4.75 -5.35 -4.8 -5.45 -4.9 -5.5 -5.0 -5.55 -5.1 -5.55 -5.2 -5.5 -5.3 -5.45 -5.4 -5.4 -5.45 -5.35 -5.45 -5.15 -5.5 -5.2 -9.2 -5.2 -10.8 Q-12.2 -10.6 -19.1 -10.7 L-19.1 -10.6 -23.0 -10.7 -24.7 -10.75 -24.7 -6.9 -24.75 -2.05 -24.8 0.45 -24.75 0.4 -24.65 0.3 -24.5 0.25 Q-15.0 0.1 -5.5 0.3 L-5.35 0.3 -5.35 0.35 -5.2 0.35 -4.6 0.5 -4.5 0.6 -4.45 0.7 -4.45 0.8 -4.45 0.9 -4.55 1.0 -4.65 1.05 -4.75 1.05 -4.75 1.1 -7.85 0.85 -11.1 1.0 -17.35 1.05 -24.0 1.0 -24.6 0.95 -24.75 0.85 -24.85 0.75 -24.95 0.85 -25.1 0.9 -25.1 0.95 -25.25 0.85 -25.35 0.75 -25.45 0.7 -25.55 -4.0 -25.55 -8.8 -25.5 -11.5 -25.45 -11.6 -25.4 -11.7 -25.3 -11.8 -25.1 -11.85 M-20.85 -3.3 L-20.0 -3.3 -19.8 -3.25 -19.7 -3.2 -19.5 -3.15 -19.3 -3.1 -18.9 -3.0 -18.75 -2.9 -18.25 -2.9 -18.1 -3.0 -18.0 -3.05 -16.75 -3.35 -15.5 -3.45 -14.55 -3.15 -13.85 -2.75 -13.75 -2.65 -13.65 -2.55 -13.5 -2.45 -13.35 -2.45 -12.85 -2.9 -12.0 -3.6 -11.9 -3.65 -11.75 -3.65 -11.25 -3.65 -10.8 -3.5 -10.35 -3.25 -10.25 -3.15 -10.15 -3.05 -10.15 -2.95 -10.1 -2.85 -10.1 -2.75 -10.05 -2.65 -10.0 -2.55 -9.95 -2.45 -9.9 -2.4 -9.85 -2.45 -9.75 -2.55 -9.65 -2.65 -9.55 -2.75 -9.35 -2.8 -9.2 -2.9 -9.1 -3.0 -9.1 -3.1 -8.95 -3.2 -8.75 -3.25 -8.5 -3.25 -8.1 -3.2 -7.9 -3.15 -7.85 -3.05 -7.8 -2.95 -7.8 -2.85 -7.8 -2.75 -7.8 -2.65 -7.85 -2.55 -7.85 -2.5 -7.95 -2.4 -8.0 -2.4 -8.1 -2.35 -8.25 -2.4 -8.35 -2.5 -8.55 -2.5 -8.65 -2.4 -9.1 -1.95 -9.75 -1.45 -9.8 -1.4 -9.85 -1.35 -10.05 -1.3 -10.25 -1.25 -10.45 -1.3 -10.6 -1.4 -10.65 -1.5 -10.75 -1.55 -10.75 -1.65 -10.75 -1.75 -10.75 -1.85 -10.8 -2.05 -10.8 -2.15 -10.85 -2.25 -10.85 -2.3 -10.9 -2.4 -10.9 -2.5 -11.0 -2.6 -11.15 -2.7 -11.25 -2.75 -11.7 -2.75 -12.1 -2.35 -12.65 -1.8 -12.85 -1.6 -13.0 -1.5 -13.1 -1.45 -13.25 -1.4 -13.95 -1.65 -14.4 -2.05 -14.55 -2.15 -14.7 -2.25 -14.9 -2.3 -15.1 -2.35 -15.25 -2.45 -15.4 -2.5 -16.75 -2.5 -17.55 -2.15 -18.25 -1.9 -18.75 -2.0 -19.25 -2.1 -19.35 -2.15 -19.35 -2.2 -19.6 -2.25 -20.1 -2.4 -21.0 -2.5 -21.2 -2.55 -21.35 -2.65 -21.4 -2.75 -21.45 -2.8 -21.4 -2.9 -21.4 -3.0 -21.35 -3.1 -21.25 -3.2 -21.2 -3.25 -20.85 -3.3 M-3.4 -21.55 L-3.1 -22.65 -2.8 -21.55 Q-2.55 -20.4 -2.85 -19.3 L-3.6 -18.2 -3.4 -21.55 M-12.95 -8.25 L-12.9 -8.3 -12.9 -8.4 -12.85 -8.5 -12.75 -8.6 -12.5 -8.65 -12.35 -8.7 -12.1 -8.75 -8.6 -8.5 -8.5 -8.4 -8.45 -8.3 -8.45 -8.2 -8.45 -8.1 -8.55 -8.0 -8.65 -7.95 -12.25 -7.8 -12.5 -7.8 -12.75 -7.85 -12.85 -7.95 -12.9 -8.05 -12.9 -8.15 -12.95 -8.25 M-14.1 -6.4 L-13.85 -6.3 -13.55 -6.25 -13.45 -6.15 -13.25 -6.2 -13.15 -6.25 -13.0 -6.3 -12.85 -6.3 -12.6 -6.4 -12.35 -6.4 -12.25 -6.5 -12.1 -6.5 -11.5 -6.5 -11.3 -6.45 -11.2 -6.4 -11.1 -6.35 -10.9 -6.3 -10.8 -6.2 -10.75 -6.1 -10.7 -6.0 -10.6 -5.95 -10.5 -6.05 -10.4 -6.15 -10.2 -6.3 -10.0 -6.5 -7.9 -6.4 -7.85 -6.3 -7.75 -6.2 -7.7 -6.1 -7.7 -6.0 -7.7 -5.9 -7.75 -5.85 -7.85 -5.75 -8.0 -5.65 -8.15 -5.75 -8.25 -5.8 -9.6 -5.75 -9.75 -5.7 -9.85 -5.6 -10.05 -5.4 -10.25 -5.25 -10.4 -5.05 -10.45 -5.05 -10.6 -5.05 -10.6 -5.0 -10.75 -5.0 -10.95 -5.05 -11.05 -5.15 -11.1 -5.25 -11.15 -5.35 -11.25 -5.45 -11.35 -5.55 -11.4 -5.65 -11.55 -5.7 -11.6 -5.7 -12.1 -5.7 -12.2 -5.65 -12.35 -5.6 -12.6 -5.5 -12.9 -5.4 -12.95 -5.35 -13.1 -5.35 -13.5 -5.3 -13.75 -5.4 -13.85 -5.5 -14.05 -5.55 -14.35 -5.6 -14.6 -5.65 -14.85 -5.65 -14.9 -5.6 -15.05 -5.5 -15.25 -5.45 -15.35 -5.45 -15.5 -5.5 -15.7 -5.55 -15.85 -5.65 -15.9 -5.75 -15.95 -5.8 -15.9 -5.9 -15.9 -6.0 -15.85 -6.1 -15.75 -6.2 -15.7 -6.3 -15.5 -6.45 -15.45 -6.55 -15.1 -6.55 -14.35 -6.4 -14.1 -6.4 M-19.7 -8.25 L-19.65 -8.3 -19.6 -8.4 -19.5 -8.5 -19.25 -8.55 -15.85 -8.5 -15.65 -8.5 -15.55 -8.4 -15.5 -8.3 -15.45 -8.2 -15.45 -8.1 -15.45 -8.0 -15.5 -7.9 -15.6 -7.85 -15.7 -7.75 -15.85 -7.75 -18.1 -7.6 -19.1 -7.6 -19.3 -7.65 -19.5 -7.75 -19.6 -7.85 -19.65 -7.95 -19.7 -8.05 -19.7 -8.15 -19.7 -8.25 M-25.7 12.25 Q-26.35 11.55 -25.95 10.75 L-24.85 11.95 -24.95 12.15 Q-25.25 12.65 -25.7 12.25 M-1.2 15.45 L-1.3 15.3 Q0.6 12.55 2.8 10.25 L2.9 10.2 Q1.95 13.7 -1.2 15.45 M-1.7 11.45 L-1.9 11.2 Q-2.2 10.4 -1.5 9.9 L-1.35 9.8 -1.25 11.15 -1.7 11.45 M-23.4 7.35 L-23.3 7.55 -23.05 8.35 -22.35 9.7 -22.95 10.2 -24.35 7.35 Q-27.5 7.3 -30.65 7.4 L-39.5 7.55 -39.5 7.6 -39.55 7.85 -39.5 8.1 -39.4 8.35 -39.25 8.55 -37.75 14.6 -36.35 21.15 -35.55 24.9 -35.55 25.15 -33.95 25.1 Q-12.2 25.1 9.55 25.35 L9.4 25.2 7.75 17.85 5.95 10.2 5.4 7.5 2.25 7.55 -13.7 7.45 -21.0 7.35 -23.4 7.35 M39.5 7.55 L36.35 7.55 36.35 11.4 36.3 20.6 36.3 20.75 36.4 20.4 38.0 14.6 39.05 9.95 39.4 8.35 39.5 8.1 39.55 7.85 39.5 7.6 39.5 7.55 M24.25 3.95 L24.25 4.15 24.25 4.25 24.15 4.35 24.95 5.15 26.7 6.9 28.1 8.35 28.25 8.4 28.4 8.6 28.45 8.75 28.6 8.8 28.65 8.95 28.75 9.05 28.85 9.15 28.9 9.3 29.0 9.4 29.05 9.55 29.15 9.65 29.15 9.85 29.05 9.95 29.05 10.05 29.05 10.15 29.0 10.25 28.95 10.35 28.9 10.4 28.85 10.45 28.65 10.45 28.6 10.45 27.15 10.45 26.8 10.45 26.85 13.3 26.8 16.8 26.75 18.75 26.85 18.85 26.85 18.95 26.85 19.05 26.85 19.15 26.8 19.2 26.75 19.3 26.6 19.4 26.4 19.4 26.25 19.35 26.15 19.25 26.1 19.15 26.0 15.7 26.0 14.35 25.75 14.45 25.45 14.65 25.25 14.85 25.2 14.9 25.5 15.1 25.7 15.3 25.75 15.5 25.75 15.65 25.75 15.85 25.6 16.2 25.25 16.6 24.95 16.9 25.15 16.95 25.5 17.1 25.7 17.3 25.75 17.5 25.75 17.85 25.75 18.2 25.75 18.4 25.75 18.6 25.6 18.8 25.5 18.95 25.55 19.05 25.85 19.05 26.0 19.15 26.05 19.25 26.1 19.3 26.1 19.4 26.05 19.5 26.0 19.55 24.9 19.7 22.15 19.8 21.15 19.8 20.95 19.7 20.85 19.65 20.8 19.55 20.75 19.45 20.75 19.35 20.75 19.25 20.8 19.2 20.75 19.15 20.7 16.15 20.65 13.05 20.65 11.3 20.7 11.2 20.75 11.1 20.9 11.0 21.05 10.95 21.3 11.0 21.4 11.1 21.45 11.2 21.45 11.45 21.65 11.3 22.2 10.7 22.35 10.6 22.15 10.6 21.9 10.65 21.6 10.55 21.45 10.35 21.35 10.45 21.15 10.5 20.9 10.5 20.6 10.55 20.35 10.6 20.3 10.6 18.15 10.6 17.95 10.55 17.8 10.45 17.75 10.35 17.7 10.25 17.65 10.15 17.7 10.05 17.7 9.95 17.75 9.9 17.8 9.8 17.9 9.7 18.0 9.65 18.0 9.6 18.1 9.5 18.15 9.35 18.25 9.25 18.35 9.15 18.4 9.0 18.5 8.9 18.6 8.8 18.75 8.65 18.9 8.5 20.5 6.9 22.25 5.15 22.95 4.45 22.9 4.3 22.85 4.25 22.85 4.05 22.95 3.85 23.15 3.75 23.3 3.8 23.45 3.75 23.55 3.85 23.6 3.8 23.75 3.75 23.85 3.75 24.0 3.7 24.15 3.75 24.25 3.95 M23.6 5.2 L23.5 5.05 23.3 5.3 23.4 5.2 23.6 5.2 M21.35 9.4 L21.2 9.4 20.95 9.45 20.75 9.65 20.75 9.7 21.35 9.8 21.35 9.6 21.35 9.4 M24.6 11.8 L25.4 11.2 25.5 11.1 25.65 11.05 25.9 10.95 26.05 11.0 26.05 10.55 25.6 10.8 24.85 11.4 24.0 12.1 24.0 12.2 24.2 12.15 24.6 11.8 M25.45 7.45 L25.65 7.35 25.8 7.35 25.65 7.2 25.5 7.3 25.35 7.45 25.45 7.45 M26.75 8.35 L26.55 8.15 26.65 8.3 26.75 8.35 M28.1 9.6 L27.9 9.65 27.5 9.75 28.3 9.7 28.15 9.65 28.1 9.6 M25.9 12.95 L26.0 13.05 26.0 12.9 25.9 12.95 M21.75 13.6 L21.8 13.4 21.9 13.2 21.9 13.1 21.65 12.9 21.5 12.85 21.45 14.2 21.45 15.1 21.65 14.7 21.65 14.55 21.6 14.35 21.5 14.15 21.55 14.0 21.65 13.8 21.75 13.6 M22.1 16.8 L21.9 16.75 21.45 16.7 21.45 17.3 21.45 18.9 21.6 18.9 21.6 18.85 21.9 18.5 22.15 18.3 22.05 18.1 21.9 17.9 21.8 17.7 21.75 17.55 21.8 17.35 21.85 17.15 21.9 16.95 22.1 16.8 M24.25 18.8 L24.15 18.75 23.85 18.85 23.7 18.95 24.2 19.0 24.2 18.95 24.25 18.8 M19.1 9.45 L18.95 9.55 19.45 9.55 19.4 9.4 19.25 9.45 19.1 9.45 M5.3 12.65 L3.5 14.5 3.15 13.75 4.05 13.0 4.35 12.7 5.3 12.65" fill="#333333" fill-rule="evenodd" stroke="none"/>
  </g>
</svg>
