<?xml version="1.0" encoding="UTF-8" standalone="no"?>
<svg xmlns:xlink="http://www.w3.org/1999/xlink" height="89.7px" width="33.55px" xmlns="http://www.w3.org/2000/svg">
  <g transform="matrix(1.0, 0.0, 0.0, 1.0, 16.8, 44.85)">
    <path d="M16.45 42.75 L16.55 42.9 16.55 43.1 16.5 43.25 16.4 43.35 15.6 43.5 14.0 43.55 11.5 43.8 -8.7 43.75 -15.6 43.45 -15.85 43.25 -15.95 43.1 -15.9 42.9 -15.85 42.75 -15.6 42.6 -15.5 42.55 -15.25 42.5 Q0.5 41.65 16.15 42.6 L16.45 42.75" fill="#ffff99" fill-opacity="0.2" fill-rule="evenodd" stroke="none"/>
    <path d="M14.95 0.8 L15.35 0.95 15.5 1.15 15.6 1.3 15.6 2.05 15.6 2.95 15.6 3.85 15.65 4.0 15.65 5.1 15.65 6.4 15.65 7.65 15.75 7.85 15.75 18.7 15.75 29.75 15.75 35.9 15.65 36.1 15.65 36.8 15.65 37.7 15.65 38.6 15.65 38.8 15.6 39.0 15.6 39.35 15.6 39.9 15.6 40.45 15.6 40.8 15.55 41.0 15.55 41.5 15.55 42.25 15.55 42.95 15.55 43.15 15.5 43.35 15.5 43.5 15.5 43.7 15.35 43.85 15.2 44.0 14.95 44.0 14.95 44.05 14.65 43.95 14.5 43.75 14.4 43.55 14.4 43.4 14.4 43.2 14.35 43.05 14.35 42.5 14.35 41.75 14.35 41.05 14.35 40.85 14.3 40.65 14.3 40.3 14.3 39.75 14.3 39.2 14.3 38.85 14.2 38.7 14.2 37.95 14.2 37.05 14.2 36.15 14.2 35.95 14.15 35.8 14.15 25.1 14.15 14.05 14.15 7.9 14.2 7.7 14.2 6.6 14.2 5.35 14.2 4.1 14.3 3.9 14.3 3.35 14.3 2.45 14.3 1.55 14.3 1.4 14.4 1.2 14.5 1.0 14.65 0.9 14.95 0.8" fill="#ffff99" fill-opacity="0.2" fill-rule="evenodd" stroke="none"/>
    <path d="M3.3 -8.45 L3.2 -8.3 3.2 -8.1 3.2 -7.75 3.2 -7.35 3.2 -7.2 3.15 -7.0 3.15 -6.45 3.15 -5.75 3.15 -5.0 3.15 -4.85 3.1 -4.65 3.1 -4.1 3.1 -3.4 3.1 -2.65 3.05 -2.5 3.0 -2.3 2.95 -2.1 2.95 -1.95 2.95 -1.75 2.9 -1.55 2.85 -1.4 2.7 -1.3 2.5 -1.25 2.5 -1.2 2.2 -1.35 2.15 -1.5 2.05 -1.7 2.0 -1.9 2.0 -2.05 2.0 -2.25 1.95 -2.4 1.95 -2.6 1.9 -2.8 1.9 -3.35 1.9 -4.05 1.9 -4.75 1.85 -4.95 1.85 -5.5 1.85 -6.2 1.85 -6.95 1.85 -7.15 1.75 -7.3 1.75 -7.5 1.75 -7.85 1.75 -8.2 1.75 -8.4 1.7 -8.6 1.7 -8.75 1.7 -8.95 1.75 -9.1 1.85 -9.3 2.0 -9.5 2.2 -9.6 2.5 -9.65 2.9 -9.55 3.1 -9.35 3.2 -9.2 3.3 -9.0 3.3 -8.8 3.3 -8.65 3.3 -8.45" fill="#ffff99" fill-opacity="0.2" fill-rule="evenodd" stroke="none"/>
    <path d="M2.8 -43.05 L2.8 -33.8 2.8 -24.2 2.8 -18.8 2.7 -18.6 2.7 -16.45 2.7 -13.9 2.7 -12.1 2.65 -11.9 2.5 -11.7 2.35 -11.55 2.4 -11.35 2.55 -11.15 2.65 -11.0 2.65 -10.8 2.65 -10.65 2.6 -10.45 2.6 -10.25 2.4 -10.1 2.25 -9.95 2.0 -9.95 2.0 -9.9 1.7 -10.05 1.55 -10.2 1.4 -10.4 1.15 -10.75 1.05 -10.95 1.05 -11.1 1.05 -11.3 1.05 -11.5 1.05 -11.65 1.05 -11.85 1.1 -12.0 1.2 -12.2 1.3 -12.4 1.3 -14.35 1.3 -16.75 1.3 -18.7 1.2 -18.9 1.2 -27.95 1.2 -37.4 1.2 -43.0 1.3 -43.15 1.35 -43.35 1.5 -43.55 1.7 -43.65 2.0 -43.7 2.4 -43.6 2.6 -43.4 2.7 -43.25 2.8 -43.05" fill="#ffff99" fill-opacity="0.2" fill-rule="evenodd" stroke="none"/>
    <path d="M6.05 37.75 Q7.8 37.45 9.4 36.65 L9.65 36.3 10.15 35.9 10.85 35.7 12.3 35.45 12.3 35.05 12.3 34.7 12.3 34.35 12.3 34.0 12.35 33.65 12.5 33.25 12.65 32.9 12.75 32.55 12.8 32.15 12.8 31.8 12.8 31.1 12.8 30.75 12.8 30.35 12.95 30.0 13.15 29.65 13.5 29.3 14.25 29.05 15.1 29.3 15.45 29.65 15.7 30.0 15.7 30.35 15.7 30.75 15.95 31.1 16.15 31.45 16.3 31.8 16.55 32.15 16.6 32.55 16.65 32.9 16.65 33.25 16.65 33.6 16.5 33.95 16.25 34.35 15.95 34.7 15.7 35.05 15.7 35.45 15.7 36.5 15.7 36.9 15.7 37.25 15.7 38.7 15.7 40.5 15.75 40.85 15.95 41.25 16.1 41.6 16.15 41.95 16.15 42.3 16.0 42.65 15.8 43.05 15.55 43.3 15.3 43.4 14.7 43.5 14.25 43.55 13.4 43.55 13.05 43.65 12.9 43.75 12.3 43.8 12.3 43.9 8.45 43.9 7.6 43.65 7.0 43.45 6.4 43.25 6.25 43.15 2.65 43.05 1.9 42.8 1.55 42.4 1.3 42.1 1.2 41.7 1.2 41.35 1.2 41.0 1.2 40.65 1.2 40.25 1.25 39.9 1.4 39.55 1.6 39.2 1.8 38.95 2.05 38.85 5.45 37.9 6.05 37.75" fill="#ffff99" fill-opacity="0.2" fill-rule="evenodd" stroke="none"/>
    <path d="M13.5 7.2 L14.25 6.95 15.1 7.2 15.3 7.55 15.55 7.9 15.7 8.25 16.15 8.5 16.2 8.85 16.3 9.25 16.65 9.6 16.75 9.95 16.75 10.3 16.75 10.7 16.75 11.05 16.75 11.4 16.65 11.75 16.45 12.15 16.25 12.45 15.8 13.2 15.7 13.6 15.7 14.3 15.7 15.75 15.7 17.2 15.55 17.55 15.3 17.95 Q15.1 18.8 15.15 19.75 L15.2 23.0 15.2 26.25 15.2 27.0 15.35 27.35 15.5 27.7 15.55 28.05 15.55 28.45 15.6 28.75 15.8 29.15 16.05 29.5 16.05 30.6 16.05 33.15 16.05 35.7 16.05 36.4 16.0 36.75 15.85 37.15 15.7 37.5 15.7 37.85 15.7 38.2 15.8 38.55 16.05 38.95 16.15 39.3 16.15 39.65 16.15 40.4 16.15 41.45 16.15 41.85 16.0 42.2 15.8 42.55 15.55 42.8 15.3 42.9 13.25 43.45 11.1 43.75 10.75 44.15 9.9 44.35 -0.75 44.8 -0.75 44.85 -2.2 44.85 -2.9 44.6 -3.25 44.2 -3.4 43.9 -3.55 42.8 -3.5 40.25 -3.5 37.75 -3.5 36.65 -3.6 36.3 -3.9 35.95 -4.65 35.15 -5.1 34.45 -5.05 34.1 -4.85 33.75 -4.7 33.4 -4.5 33.15 -4.25 33.05 -3.65 32.95 -2.65 32.9 -1.8 33.15 -1.35 33.5 -0.75 33.85 -0.4 34.25 0.35 34.95 1.75 36.4 2.05 36.75 2.25 37.05 3.0 37.5 3.85 37.5 4.6 37.25 7.95 37.25 8.8 37.5 9.3 37.35 10.0 37.15 10.25 36.75 10.75 36.4 11.0 36.05 11.0 35.7 11.0 35.3 10.95 34.95 10.85 34.2 10.85 33.85 11.0 33.5 11.1 33.15 11.35 32.8 11.7 32.55 12.4 32.4 12.35 32.05 12.2 31.7 12.05 31.35 11.95 30.95 11.7 30.6 11.3 30.25 10.85 29.9 10.6 29.5 10.5 29.15 10.5 28.8 10.5 28.45 10.5 28.05 10.5 27.7 10.4 27.5 9.4 27.1 8.45 27.1 7.7 26.85 7.25 26.5 7.0 26.25 6.5 26.15 5.8 25.9 5.45 25.5 5.2 25.15 4.65 24.45 4.1 23.35 4.1 23.0 4.1 22.65 4.2 22.25 4.35 21.9 4.5 21.6 4.8 21.2 5.6 20.75 5.8 20.45 5.95 20.15 6.25 19.75 7.35 19.35 8.55 18.9 9.65 18.05 9.8 17.7 10.05 17.35 10.7 16.6 11.0 16.25 11.0 15.9 11.1 15.5 11.35 15.15 11.6 14.8 11.95 14.4 12.3 14.05 12.25 13.7 12.05 13.35 12.05 12.95 12.05 12.6 12.05 11.9 12.05 10.8 12.05 10.45 12.2 10.1 12.4 9.7 12.5 9.35 12.55 9.0 12.8 8.65 12.9 8.25 13.05 7.9 13.2 7.55 13.5 7.2" fill="#ffff99" fill-opacity="0.2" fill-rule="evenodd" stroke="none"/>
    <path d="M-5.2 0.7 L-4.9 0.8 -4.2 1.1 -3.85 1.5 -3.6 1.85 -3.5 2.2 -3.5 2.55 -3.5 2.9 -3.5 3.3 -3.5 3.65 -3.6 4.0 -3.75 4.35 -3.85 4.75 -4.1 5.1 -4.2 5.45 -4.35 5.8 -4.45 6.2 -4.6 6.55 -4.6 6.9 -4.6 7.25 -4.6 7.65 -4.6 8.0 -4.55 8.35 -4.35 8.75 -4.2 9.1 -4.15 9.45 -4.1 9.8 -4.1 10.15 -4.05 10.5 -4.0 10.9 -3.85 11.25 -3.6 11.6 -3.6 12.35 -3.6 13.05 -3.6 14.5 -3.6 18.15 -3.6 22.5 -3.6 22.85 -3.65 23.2 -3.85 23.55 -4.2 23.95 -4.45 24.3 -4.55 24.65 -4.6 25.0 -4.6 25.4 -4.6 25.75 -4.6 26.1 -4.6 26.45 -4.6 26.85 -4.6 27.2 -4.45 27.55 -4.2 27.9 -4.15 28.3 -4.1 28.65 -4.1 29.0 -4.1 29.35 -4.15 29.7 -4.2 30.1 -4.35 30.45 -4.6 30.8 -4.6 31.55 -4.6 32.25 -4.6 33.35 -4.7 36.25 -4.65 39.9 -4.6 40.6 -4.4 40.95 -4.1 41.3 -3.75 41.7 -3.55 42.05 -3.5 42.4 -3.5 42.75 -3.65 43.1 -3.85 43.5 -4.2 43.85 -5.05 44.25 -5.4 44.45 -6.0 44.5 -6.05 44.6 -7.95 44.6 -8.7 44.35 -11.35 44.1 -12.05 43.9 -13.25 43.6 -14.0 43.4 -15.2 43.1 -15.95 42.9 -16.4 42.55 -16.65 42.15 -16.8 41.8 -16.75 41.45 -16.65 41.1 -16.55 40.7 -16.15 40.35 -15.7 40.0 -15.8 39.25 -15.8 38.55 -15.8 37.45 -15.8 34.9 -15.8 32.0 -15.8 31.3 -15.95 30.95 -16.05 30.55 -16.15 30.2 -16.3 29.85 -16.3 29.5 -16.3 29.15 -16.3 28.75 -16.3 28.4 -16.4 28.05 -16.45 27.7 -16.55 27.3 -16.65 26.95 -16.8 26.6 -16.8 25.85 -16.8 25.15 -16.8 24.05 -16.8 21.5 -16.8 18.6 -16.8 17.9 -16.65 17.55 -16.55 17.15 -16.45 16.8 -16.25 16.1 -16.15 15.35 -15.85 14.25 -15.35 12.8 -15.35 12.1 -15.35 11.35 -15.35 9.95 -15.35 6.3 -15.25 1.95 -15.2 1.6 -15.05 1.25 -14.85 0.9 -14.6 0.65 -14.35 0.55 -13.75 0.4 -12.9 0.65 -12.55 1.0 -11.95 1.25 -11.45 1.0 -10.85 0.85 -9.8 0.6 -8.95 0.4 -6.05 0.4 -5.2 0.7" fill="#663333" fill-opacity="0.2" fill-rule="evenodd" stroke="none"/>
    <path d="M13.8 0.25 L14.5 0.45 14.8 0.85 15.0 1.2 15.0 1.55 14.9 1.9 14.6 2.3 14.0 2.9 Q12.3 3.6 10.4 3.55 0.75 3.3 -8.95 3.35 L-14.7 3.35 -15.45 3.15 -15.8 2.75 -16.05 2.4 -16.15 2.05 -16.1 1.7 -15.95 1.3 -15.75 1.0 -15.55 0.7 Q-1.3 0.2 13.15 0.45 L13.8 0.25" fill="#663333" fill-opacity="0.2" fill-rule="evenodd" stroke="none"/>
    <path d="M8.15 8.6 L9.25 9.2 9.7 9.35 10.05 9.55 10.45 9.7 10.6 9.9 10.75 10.1 10.8 10.25 10.8 10.45 10.8 10.65 10.8 10.8 10.8 11.15 10.8 11.35 10.8 11.55 10.75 11.7 10.65 11.9 10.5 12.1 10.3 12.25 10.0 12.6 9.65 13.0 9.45 13.15 9.15 13.35 8.3 13.85 7.3 14.6 7.05 14.75 6.8 14.8 6.55 14.85 6.05 15.0 5.55 15.1 5.3 15.3 5.05 15.45 4.8 15.65 4.5 15.8 4.1 15.9 4.1 15.95 2.65 15.95 2.2 15.8 2.0 15.65 1.85 15.45 1.7 15.3 1.5 15.1 1.2 14.75 1.15 14.55 1.05 14.35 1.05 14.2 1.05 13.65 1.05 12.9 1.05 11.85 1.05 11.5 1.15 11.3 1.2 10.95 1.35 10.4 1.55 9.85 1.6 9.65 1.75 9.5 1.85 9.3 2.1 9.1 2.75 8.55 Q3.45 8.05 4.35 7.9 L6.05 7.9 6.5 8.05 8.15 8.6" fill="#663333" fill-opacity="0.2" fill-rule="evenodd" stroke="none"/>
    <path d="M4.35 11.0 L4.65 11.15 4.8 11.35 5.0 11.55 5.1 11.7 5.25 11.9 5.35 12.1 5.4 12.25 5.5 12.45 5.5 12.8 5.5 13.0 5.5 13.35 5.5 13.7 5.5 14.25 5.5 14.8 5.4 15.0 5.35 15.15 5.25 15.35 5.2 15.5 5.05 15.7 5.0 15.9 4.8 16.05 4.65 16.25 4.3 16.45 4.05 16.6 3.8 16.8 3.4 16.9 3.35 16.9 2.9 16.9 2.45 16.8 2.15 16.65 1.4 16.65 1.25 16.7 0.95 16.75 0.45 16.8 0.1 16.65 -0.15 16.5 -0.25 16.3 -0.3 16.1 -0.35 15.95 -0.35 15.75 -0.45 15.6 -0.55 15.4 -0.6 15.2 -0.6 15.05 -0.6 14.7 -0.6 14.5 -0.6 14.15 -0.6 13.75 -0.6 13.25 -0.6 13.05 -0.55 12.85 -0.5 12.7 -0.45 12.5 -0.35 12.3 -0.3 12.15 -0.2 11.95 -0.05 11.8 0.1 11.6 0.15 11.4 0.35 11.25 0.45 11.05 0.6 10.85 0.65 10.7 0.75 10.55 1.2 10.45 1.6 10.4 2.1 10.25 2.65 10.2 3.35 10.15 3.8 10.25 4.05 10.45 4.15 10.65 4.2 10.8 4.35 11.0" fill="#663333" fill-opacity="0.2" fill-rule="evenodd" stroke="none"/>
    <path d="M3.9 11.55 L3.95 11.35 4.1 11.2 4.4 10.85 5.3 10.25 5.5 10.15 5.8 10.1 7.7 10.1 8.15 10.2 8.35 10.4 8.55 10.55 8.6 10.75 8.65 10.95 8.7 11.1 8.85 11.3 9.05 11.5 9.1 11.65 9.1 11.85 9.1 12.0 9.1 12.2 9.1 12.4 9.1 12.55 9.1 12.75 9.05 12.9 9.0 13.1 8.8 13.3 8.65 13.5 8.5 13.65 8.45 13.85 8.4 14.0 8.3 14.2 8.2 14.35 8.0 14.55 7.6 14.9 7.15 15.3 6.7 15.45 6.35 15.6 6.05 15.6 6.05 15.65 4.8 15.65 4.4 15.5 4.15 15.35 3.95 15.15 3.8 14.95 3.65 14.8 3.55 14.6 3.5 14.45 3.5 14.25 3.5 13.9 3.5 13.35 3.5 12.6 3.5 12.45 3.55 12.25 3.6 12.1 3.75 11.9 3.8 11.7 3.9 11.55" fill="#663333" fill-opacity="0.2" fill-rule="evenodd" stroke="none"/>
    <path d="M2.1 26.75 Q2.5 26.55 2.95 26.45 L3.8 26.2 4.1 26.1 6.1 26.0 7.25 26.2 7.65 26.35 Q8.35 26.65 8.95 27.05 L10.15 27.8 10.3 27.95 10.5 28.15 10.55 28.3 10.55 28.5 10.55 28.7 10.55 29.05 10.55 29.4 10.55 29.95 10.5 30.15 10.45 30.3 10.3 30.5 10.25 30.7 8.45 31.7 4.35 32.2 4.15 32.25 3.85 32.25 3.85 32.3 2.9 32.3 2.45 32.2 2.3 32.0 2.15 31.85 2.0 31.65 1.85 31.45 1.8 31.3 1.7 31.1 1.6 30.9 1.45 30.75 1.2 30.55 0.8 30.2 0.65 30.0 0.6 29.85 0.55 29.65 0.55 29.45 0.55 29.3 0.55 28.9 0.55 28.55 0.55 28.2 0.6 28.0 0.7 27.85 0.85 27.65 1.2 27.45 1.45 27.3 1.8 26.95 2.1 26.75" fill="#663333" fill-opacity="0.2" fill-rule="evenodd" stroke="none"/>
    <path d="M4.05 27.7 L4.2 27.9 4.55 28.25 4.8 28.6 4.9 28.8 4.95 29.0 5.0 29.15 5.0 29.35 5.1 29.55 5.2 29.7 5.25 29.9 5.25 30.25 5.25 31.0 5.25 31.9 5.25 32.45 5.2 32.6 5.05 32.8 4.9 32.95 4.6 33.35 4.15 33.9 3.8 34.05 3.55 34.2 3.45 34.25 3.15 34.3 1.85 34.4 1.7 34.55 1.55 34.6 1.2 34.65 0.7 34.65 0.3 34.55 0.05 34.35 -0.05 34.2 -0.2 34.0 -0.25 33.8 -0.3 33.65 -0.45 33.45 -0.5 33.25 -0.5 32.9 -0.5 32.2 -0.5 31.45 -0.5 30.9 -0.45 30.75 -0.35 30.55 -0.25 30.35 -0.25 30.2 -0.25 30.0 -0.2 29.85 -0.15 29.65 -0.05 29.45 0.05 29.3 0.1 29.1 0.3 28.9 0.6 28.55 1.1 28.0 1.45 27.65 1.75 27.5 2.15 27.35 2.9 27.35 3.35 27.45 3.8 27.55 4.05 27.7" fill="#663333" fill-opacity="0.2" fill-rule="evenodd" stroke="none"/>
    <path d="M7.85 30.15 L7.85 30.5 7.85 30.7 7.85 30.85 7.85 31.2 7.8 31.4 7.65 31.6 7.55 31.75 7.3 32.1 7.1 32.3 6.95 32.5 6.85 32.65 6.7 32.85 6.2 33.2 5.6 33.5 5.4 33.55 5.05 33.6 5.05 33.65 4.2 33.55 3.35 33.35 2.7 33.1 2.45 32.9 2.3 32.7 2.15 32.55 2.05 32.35 2.0 32.2 1.9 32.0 1.9 31.8 1.9 31.45 1.9 31.1 1.9 30.75 1.9 30.35 1.9 30.2 2.0 30.0 2.05 29.85 2.15 29.65 2.3 29.45 2.4 29.3 2.45 29.1 2.5 28.9 2.65 28.75 2.75 28.55 2.95 28.35 3.05 28.2 3.3 28.0 3.5 27.9 3.85 27.85 4.8 27.85 5.3 27.95 6.0 28.35 7.15 28.9 7.45 29.05 7.65 29.25 7.8 29.4 7.85 29.6 7.85 29.75 7.85 30.15" fill="#663333" fill-opacity="0.2" fill-rule="evenodd" stroke="none"/>
    <path d="M-8.55 18.25 L-8.35 18.45 -8.2 18.6 -8.2 18.8 -8.15 18.95 -8.2 19.15 -8.3 19.3 -8.45 19.5 -8.65 19.65 -8.95 19.7 -10.05 20.0 -10.1 20.15 -10.1 20.35 -10.1 20.55 -10.15 20.7 -10.2 20.9 -10.3 21.1 -10.35 21.25 -10.35 21.45 -10.35 21.6 -10.35 21.8 -10.35 22.0 -10.35 22.15 -10.35 22.35 -10.3 22.5 -10.1 22.7 -9.9 22.9 -9.85 23.05 -9.8 23.2 -9.75 23.25 -8.55 23.45 -8.4 23.6 -8.3 23.8 -8.3 23.95 -8.3 24.15 -8.3 24.35 -8.35 24.5 -8.45 24.7 -8.65 24.8 -8.95 24.85 -8.95 24.9 -10.65 24.8 -11.85 24.45 -12.15 24.3 -12.3 24.1 -12.45 23.9 -12.5 23.75 -12.55 23.55 -12.55 23.35 -12.55 22.85 -12.55 22.45 -12.55 21.75 -12.55 21.2 -12.65 21.0 -12.6 20.85 -12.55 20.65 -12.5 20.45 -12.4 20.3 -12.35 20.1 -12.25 19.95 -12.1 19.75 -11.9 19.55 -11.75 19.4 -11.65 19.2 -11.65 19.0 -11.65 18.85 -11.65 18.65 -11.6 18.5 -11.55 18.3 -11.4 18.1 -11.3 18.0 -11.2 17.95 -9.45 17.9 -9.0 18.0 -8.9 18.1 -8.55 18.25" fill="#663333" fill-opacity="0.2" fill-rule="evenodd" stroke="none"/>
    <path d="M-8.7 24.1 L-8.45 24.15 -8.05 24.2 -7.9 24.4 -7.95 24.55 -8.05 24.75 -8.1 24.95 -8.3 25.1 -8.5 25.3 -8.7 25.45 -8.9 25.6 -9.2 25.65 -9.9 25.7 -10.4 25.7 -10.75 25.6 -11.0 25.4 -11.15 25.25 -11.3 25.05 -11.7 24.7 -12.1 24.35 -12.15 24.15 -12.25 23.95 -12.4 23.8 -12.45 23.6 -12.4 23.45 -12.35 23.25 -12.25 23.05 -12.25 22.9 -12.25 22.7 -12.25 22.5 -12.25 22.35 -12.2 22.15 -12.15 22.0 -12.1 21.8 -12.1 21.6 -12.1 21.45 -11.95 21.25 -11.9 21.1 -11.8 20.95 -11.65 20.9 -11.35 20.85 -10.95 20.95 -10.75 21.15 -10.65 21.3 -10.65 21.5 -10.65 21.7 -10.65 21.85 -10.65 22.05 -10.65 22.2 -10.65 22.4 -10.6 22.6 -10.5 22.75 -10.45 22.95 -10.4 23.15 -10.4 23.3 -10.4 23.5 -10.35 23.65 -10.15 23.8 -9.0 23.9 -8.75 24.1 -8.7 24.1" fill="#663333" fill-opacity="0.2" fill-rule="evenodd" stroke="none"/>
    <path d="M-8.6 20.9 L-8.45 21.1 -8.45 21.25 -8.45 21.45 -8.45 21.8 -8.45 22.15 -8.45 22.5 -8.55 22.7 -8.6 22.9 -8.7 23.05 -8.75 23.25 -8.9 23.4 -9.05 23.6 -9.25 23.8 -9.65 23.9 -10.4 23.9 -10.75 23.8 -10.95 23.6 -11.0 23.45 -11.05 23.25 -11.35 23.05 -11.5 22.9 -11.55 22.7 -11.6 22.5 -11.6 22.35 -11.6 22.15 -11.6 21.8 -11.6 21.6 -11.6 21.45 -11.6 21.25 -11.55 21.1 -11.4 20.9 -11.3 20.7 -11.0 20.5 -10.8 20.3 -10.75 20.15 -10.75 20.0 -10.65 19.8 -10.45 19.65 -10.15 19.5 -9.8 19.65 -9.6 19.8 -9.55 20.0 -9.55 20.15 -9.5 20.35 -9.0 20.55 -8.75 20.7 -8.6 20.9" fill="#663333" fill-opacity="0.2" fill-rule="evenodd" stroke="none"/>
    <path d="M-8.6 21.0 L-8.55 21.2 -8.55 21.4 -8.55 21.75 -8.55 21.9 -8.55 22.1 -8.55 22.3 -8.55 22.45 -8.6 22.65 -8.7 22.85 -8.9 22.95 -9.2 23.0 -9.65 22.95 -9.9 22.9 -10.15 22.9 -10.45 22.75 -11.0 22.4 -11.15 22.2 -11.3 22.05 -11.35 21.85 -11.35 21.7 -11.35 21.5 -11.35 21.3 -11.35 21.15 -11.35 20.95 -11.35 20.8 -11.25 20.6 -11.15 20.4 -11.05 20.3 -10.95 20.25 -10.65 20.15 -10.2 20.1 -9.9 20.0 -9.65 20.0 -9.3 20.1 -9.15 20.3 -9.05 20.45 -8.95 20.65 -8.7 20.85 -8.6 21.0" fill="#663333" fill-opacity="0.2" fill-rule="evenodd" stroke="none"/>
    <path d="M4.1 23.35 L4.5 23.45 6.2 23.8 6.85 24.1 7.0 24.25 7.2 24.45 7.4 24.65 7.65 24.8 8.0 25.0 8.2 25.2 8.25 25.35 8.3 25.55 8.3 25.7 8.3 25.9 8.3 26.1 8.25 26.25 8.3 26.45 8.45 26.65 8.55 26.8 8.6 27.0 8.7 27.15 8.7 27.35 8.7 27.7 8.7 28.1 8.7 28.6 8.7 29.15 8.7 29.55 8.65 29.7 8.6 29.9 8.55 30.05 8.5 30.25 8.45 30.45 8.3 30.8 8.2 31.0 7.25 32.35 Q6.1 33.6 4.45 34.05 L3.5 34.3 3.15 34.35 0.95 34.35 0.45 34.25 0.1 34.05 -0.25 33.85 -0.55 33.7 -0.7 33.55 -0.75 33.5 -1.15 33.4 -1.4 33.2 -1.6 33.05 -1.8 32.85 -1.95 32.65 -2.05 32.5 -2.2 32.3 -2.25 32.1 -2.3 31.95 -2.3 31.75 -2.35 31.6 -2.45 31.4 -2.55 31.2 -2.6 31.05 -2.65 30.85 -2.75 30.7 -2.8 30.5 -2.8 30.3 -2.9 29.95 -2.9 29.75 -2.9 29.6 -2.9 29.4 -2.9 29.25 -2.9 28.7 -2.9 28.5 -2.9 28.3 -2.85 28.15 -2.8 27.95 -2.75 27.75 -2.7 27.6 -2.6 27.25 -2.5 26.85 -2.35 26.7 -2.3 26.5 -2.25 26.35 -2.15 26.15 -1.9 25.8 -1.45 25.25 -0.85 24.7 -0.55 24.5 -0.35 24.35 -0.2 24.15 0.0 24.0 0.25 23.8 0.9 23.45 1.2 23.4 4.1 23.35" fill="#663333" fill-opacity="0.2" fill-rule="evenodd" stroke="none"/>
    <path d="M8.15 7.0 L8.85 7.55 8.9 7.75 9.0 7.9 9.0 8.1 9.0 8.3 9.0 8.45 8.95 8.65 8.85 8.8 8.75 9.0 8.55 9.2 8.3 9.3 7.95 9.35 7.65 9.4 7.65 9.6 7.65 9.95 7.65 10.15 7.65 10.35 7.65 10.5 7.65 10.7 7.65 10.85 7.6 11.05 7.6 11.25 7.55 11.4 7.4 11.6 7.35 11.8 7.3 11.95 7.15 12.15 7.05 12.3 6.95 12.5 6.8 12.7 6.75 12.85 6.65 13.05 6.5 13.25 6.4 13.4 6.2 13.6 5.9 13.75 5.35 14.15 5.1 14.3 4.8 14.5 4.35 14.6 3.25 14.85 2.9 14.95 2.5 15.05 2.15 15.05 2.15 15.1 1.2 15.05 0.65 15.0 0.0 14.9 -0.5 14.8 -0.75 14.7 -1.2 14.55 -1.45 14.35 -1.6 14.2 -1.65 14.0 -1.75 13.85 -1.75 13.65 -1.75 13.45 -1.75 13.3 -1.75 13.1 -1.8 12.9 -1.95 12.75 -2.0 12.55 -2.05 12.4 -2.15 12.2 -2.2 12.0 -2.25 11.85 -2.25 11.65 -2.25 11.3 -2.25 11.1 -2.25 10.75 -2.25 10.4 -2.25 9.65 -2.25 9.5 -2.2 9.3 -2.15 9.1 -2.05 8.95 -1.95 8.75 -1.9 8.6 -1.6 8.25 -1.2 7.7 -0.35 6.7 0.65 5.85 1.0 5.7 1.55 5.5 1.8 5.4 2.15 5.35 3.85 5.3 4.4 5.45 4.65 5.55 5.3 5.65 5.8 5.75 6.05 5.9 6.25 6.1 6.7 6.3 7.45 6.65 8.15 7.0" fill="#663333" fill-opacity="0.2" fill-rule="evenodd" stroke="none"/>
    <path d="M5.1 0.9 L7.5 0.55 8.95 0.15 9.8 0.4 10.05 0.75 10.4 1.15 10.7 1.55 10.9 1.85 10.85 2.2 10.65 2.6 9.9 2.9 8.45 3.3 7.4 3.55 6.8 3.9 6.05 4.15 5.2 4.45 4.75 4.65 1.6 5.45 -1.45 5.85 -1.8 6.2 -2.25 6.6 -2.65 6.95 -3.0 7.3 -3.1 7.65 -3.25 8.0 -3.45 8.4 -3.65 8.7 -4.25 9.45 -4.95 10.1 -5.55 10.2 -6.25 9.95 -6.75 9.7 -7.45 9.7 -8.2 9.7 -8.25 9.95 -8.3 10.7 -8.3 11.75 -8.3 12.85 -8.45 13.2 -8.7 13.55 -9.05 13.95 -9.75 14.55 -10.35 14.65 -10.95 14.85 -11.2 15.05 -11.2 15.4 -11.25 15.75 -11.35 16.1 -11.45 16.5 -11.6 16.85 -11.8 17.2 -11.95 17.55 -12.45 18.25 -13.15 18.9 -13.75 18.95 -13.75 19.0 -14.45 18.75 -14.95 18.4 -15.3 18.05 -15.55 17.65 -15.7 17.3 -15.85 16.25 -15.85 14.8 -15.75 12.95 -15.8 12.6 -15.85 12.25 -16.0 11.9 -16.15 11.55 -16.35 9.7 -16.3 7.2 -16.3 4.65 -16.15 4.3 -16.05 3.9 -15.9 3.55 -15.8 3.2 -15.8 2.85 -15.75 2.45 -15.7 2.1 -15.5 1.75 -14.95 1.05 -13.85 -0.05 -13.65 -0.3 -13.4 -0.4 -12.8 -0.5 -12.3 -0.55 -11.45 -0.3 -11.1 0.05 -2.3 1.15 -1.9 1.5 -1.55 1.85 -1.45 2.0 -1.2 1.9 -0.7 1.75 4.25 1.1 5.1 0.9" fill="#663333" fill-opacity="0.2" fill-rule="evenodd" stroke="none"/>
    <path d="M-0.7 -9.35 L0.0 -9.1 0.4 -8.75 0.45 -8.05 0.5 -6.6 0.45 -4.8 0.25 -3.35 0.4 -2.95 0.5 -2.6 0.5 -2.25 0.5 -1.9 0.45 -1.55 0.25 -1.15 0.0 -0.9 -0.25 -0.85 -0.7 -0.75 -0.7 -0.65 -1.65 -0.65 -2.25 -0.95 -2.9 -1.25 -3.25 -1.65 -3.45 -2.0 -3.65 -2.35 -3.85 -2.7 -3.95 -3.1 -3.95 -3.8 -3.95 -4.9 -3.95 -6.0 -3.95 -6.35 -3.8 -6.7 -3.6 -7.05 -3.35 -7.3 -3.25 -7.4 -2.4 -7.55 -2.35 -7.9 -2.15 -8.3 -1.9 -8.65 -1.55 -9.0 -1.2 -9.25 -0.7 -9.35" fill="#663333" fill-opacity="0.2" fill-rule="evenodd" stroke="none"/>
    <path d="M4.75 -2.6 L4.9 -2.2 4.95 -1.9 4.9 -1.55 4.75 -1.15 4.5 -0.8 3.4 -0.45 3.0 -0.1 2.65 0.15 2.2 0.25 2.2 0.3 0.75 0.3 0.15 0.05 -0.2 -0.3 -0.6 -0.25 -1.2 -0.05 -1.65 -0.05 -2.4 -0.3 -2.75 -0.65 -2.8 -1.0 -2.6 -1.4 -2.3 -1.75 -2.45 -2.1 -2.75 -2.5 -3.0 -2.85 -3.1 -3.2 -3.1 -3.55 -3.1 -3.95 -3.0 -4.3 -2.75 -4.65 -2.4 -5.0 -1.3 -5.7 -0.7 -6.0 0.0 -5.75 0.35 -5.35 0.5 -5.0 0.55 -4.65 Q0.65 -3.85 1.7 -3.6 L4.5 -2.95 4.75 -2.6" fill="#663333" fill-opacity="0.2" fill-rule="evenodd" stroke="none"/>
    <path d="M-0.8 -2.5 L-0.45 -2.6 -0.45 -1.9 -0.7 -1.15 -1.0 -0.85 -1.3 -0.8 -1.3 -1.15 -1.2 -1.5 -1.1 -1.9 -1.05 -2.25 -0.8 -2.5" fill="#663333" fill-opacity="0.2" fill-rule="evenodd" stroke="none"/>
    <path d="M1.5 -12.05 L2.2 -11.9 2.8 -11.65 3.0 -11.3 3.05 -10.95 2.85 -10.65 Q2.55 -10.4 2.15 -10.3 L1.2 -10.1 0.85 -9.85 0.25 -9.6 -0.7 -9.55 -0.7 -9.5 -1.3 -9.75 -1.55 -10.1 -1.8 -10.45 -1.75 -11.55 -1.7 -13.0 -1.55 -14.45 -1.4 -14.8 -1.2 -15.15 -0.35 -15.3 0.0 -14.9 0.15 -14.55 0.25 -14.2 0.25 -13.85 0.4 -13.5 0.75 -13.1 0.85 -12.75 1.0 -12.4 1.35 -12.15 1.5 -12.05" fill="#663333" fill-opacity="0.2" fill-rule="evenodd" stroke="none"/>
    <path d="M1.7 -42.55 L1.8 -31.7 1.7 -20.1 1.7 -12.85 1.65 -12.5 1.45 -12.15 1.4 -11.8 1.45 -11.4 1.45 -11.05 1.45 -10.7 1.35 -10.35 1.35 -9.95 1.2 -9.6 1.0 -9.25 0.3 -9.05 0.25 -9.0 -0.35 -9.25 -0.6 -9.6 -0.75 -10.0 -0.85 -10.35 -1.15 -10.7 -1.4 -11.05 -1.55 -11.4 -1.55 -11.8 -1.5 -12.15 -1.45 -12.5 -1.3 -12.85 -1.2 -13.25 -1.2 -23.75 -1.3 -34.95 -1.3 -42.2 -1.15 -42.55 -0.95 -42.95 -0.45 -43.3 0.25 -43.55 1.1 -43.3 1.45 -42.9 1.7 -42.55" fill="#663333" fill-opacity="0.2" fill-rule="evenodd" stroke="none"/>
    <path d="M1.6 -19.15 L1.6 -18.4 1.6 -17.7 1.6 -16.6 1.6 -15.5 1.65 -15.2 1.85 -14.8 1.85 -14.45 1.85 -14.05 1.95 -13.7 2.2 -13.35 2.2 -13.0 2.2 -12.65 2.2 -12.25 2.2 -11.9 2.2 -11.2 2.15 -10.85 1.95 -10.45 1.7 -10.3 1.25 -10.15 1.2 -10.1 0.6 -10.2 0.25 -10.35 -0.35 -10.55 -0.7 -10.95 -0.9 -11.3 -0.95 -11.65 -0.95 -12.0 -1.0 -12.35 -1.25 -12.8 -1.3 -13.1 Q-0.7 -13.4 -0.8 -14.35 L-1.0 -16.15 -1.05 -18.3 -1.05 -18.65 -1.0 -19.0 -0.85 -19.4 -0.6 -19.75 -0.3 -19.95 0.25 -20.1 1.1 -19.85 1.35 -19.5 1.6 -19.15" fill="#663333" fill-opacity="0.2" fill-rule="evenodd" stroke="none"/>
    <path d="M-12.4 25.3 L-12.3 24.95 -12.05 24.6 -11.7 24.2 -10.85 23.95 -10.0 24.2 -9.5 24.55 -9.3 24.95 Q-9.1 27.25 -9.25 29.65 L-9.4 35.05 -9.4 39.05 -9.3 39.4 -9.15 39.8 -9.05 40.15 -9.05 40.5 -9.05 40.85 -9.15 41.25 -9.3 41.6 -9.5 41.95 -9.65 42.3 -9.75 42.7 -10.15 43.05 -10.85 43.2 -10.85 43.3 -11.45 43.05 -11.8 42.65 -12.05 42.3 -12.1 41.95 -12.2 41.6 -12.1 41.25 -11.95 40.85 -11.8 40.5 -11.95 40.15 -12.05 39.8 -12.2 39.4 -12.3 34.7 -12.3 29.25 -12.55 25.65 -12.4 25.3" fill="#663333" fill-opacity="0.2" fill-rule="evenodd" stroke="none"/>
    <path d="M8.7 30.9 L9.0 30.6 9.1 30.55 11.1 30.5 11.55 30.6 11.7 30.8 11.85 30.95 11.85 31.15 11.85 31.35 11.85 31.5 11.85 31.7 11.9 31.85 12.0 32.05 12.05 32.25 12.05 32.4 12.05 32.6 12.05 32.8 12.05 33.15 12.05 33.5 12.0 33.7 11.9 33.85 11.7 34.05 11.55 34.2 11.35 34.4 11.05 34.6 10.8 34.7 10.7 34.75 10.4 34.8 9.85 34.9 9.4 35.0 8.7 35.0 8.35 34.9 8.1 34.7 7.95 34.55 7.85 34.35 7.8 34.15 7.8 34.0 7.8 33.8 7.8 33.6 7.8 33.45 7.8 33.1 7.85 32.9 7.95 32.7 7.95 32.55 7.95 32.35 7.95 32.15 7.95 32.0 8.0 31.8 8.1 31.65 8.15 31.45 8.35 31.25 8.5 31.1 8.7 30.9" fill="#ffff99" fill-opacity="0.2" fill-rule="evenodd" stroke="none"/>
    <path d="M7.95 31.8 L9.15 31.8 9.55 31.95 9.7 32.1 9.9 32.3 10.0 32.45 10.0 32.65 10.0 32.85 10.0 33.0 10.0 33.2 10.0 33.4 10.0 33.55 10.0 33.75 9.95 33.9 9.9 34.1 9.85 34.3 9.8 34.45 9.8 34.65 9.8 34.85 9.8 35.0 9.8 35.2 9.7 35.35 9.55 35.55 9.25 35.65 8.95 35.7 8.95 35.75 8.2 35.75 7.8 35.6 7.25 35.5 6.8 35.35 6.5 35.2 6.25 35.0 6.15 34.85 6.1 34.65 6.1 34.45 6.1 34.3 6.1 34.1 6.1 33.9 6.1 33.75 6.15 33.55 6.15 33.4 6.2 33.2 6.25 33.0 6.45 32.85 6.65 32.65 6.8 32.5 7.25 32.15 7.95 31.8" fill="#ffff99" fill-opacity="0.2" fill-rule="evenodd" stroke="none"/>
    <path d="M9.35 30.35 L9.55 30.55 9.75 30.7 9.85 30.8 9.9 30.8 10.15 30.85 10.5 30.95 10.7 31.15 10.75 31.35 10.75 31.5 10.85 31.7 10.85 31.85 10.85 32.05 10.85 32.25 10.85 32.4 10.85 32.6 10.8 32.8 10.6 32.95 10.45 33.15 10.25 33.3 10.1 33.5 9.6 33.7 9.35 33.8 9.25 33.85 8.95 33.9 8.2 33.9 7.7 33.8 7.0 33.65 6.65 33.55 6.4 33.35 6.2 33.2 6.1 33.0 6.05 32.85 5.95 32.65 6.05 32.45 6.05 32.3 6.05 32.1 6.05 31.95 6.1 31.75 6.15 31.55 6.3 31.4 6.45 31.2 6.6 31.0 6.65 30.85 6.75 30.65 6.95 30.5 7.25 30.35 7.65 30.3 7.95 30.25 8.95 30.25 9.35 30.35" fill="#ffff99" fill-opacity="0.2" fill-rule="evenodd" stroke="none"/>
    <path d="M10.25 16.15 L10.3 16.35 10.3 16.55 10.3 16.7 10.3 16.9 10.3 17.25 10.3 17.45 10.25 17.6 10.25 17.8 10.25 18.0 10.2 18.15 10.1 18.35 9.9 18.55 9.8 18.65 9.65 18.7 8.55 18.9 8.2 19.0 7.0 19.0 6.7 18.9 6.5 18.7 6.4 18.5 6.4 18.35 6.4 18.15 6.35 18.0 6.25 17.8 6.25 17.6 6.25 17.45 6.25 17.25 6.25 16.9 6.25 16.7 6.35 16.55 6.4 16.35 6.5 16.2 6.7 16.0 6.8 15.85 6.95 15.8 7.25 15.75 7.95 15.5 9.15 15.5 9.6 15.65 9.85 15.8 10.15 16.0 10.25 16.15" fill="#ffff99" fill-opacity="0.2" fill-rule="evenodd" stroke="none"/>
    <path d="M8.65 12.6 L8.95 12.55 10.6 12.6 11.05 12.75 11.35 12.9 11.75 13.1 12.0 13.25 12.15 13.45 12.25 13.65 12.3 13.8 12.3 14.0 12.3 14.35 12.3 14.9 12.3 15.8 12.3 16.15 12.25 16.35 12.05 16.55 11.9 16.7 11.75 16.85 11.65 16.85 9.9 17.1 9.7 17.2 9.4 17.25 8.7 17.25 8.35 17.15 8.1 16.95 7.9 16.8 7.7 16.6 7.55 16.4 7.5 16.25 7.4 16.05 7.4 15.85 7.4 15.5 7.4 15.15 7.4 14.6 7.4 14.25 7.5 14.05 7.55 13.9 7.6 13.7 7.65 13.5 7.7 13.35 7.85 13.15 8.1 12.95 8.35 12.8 8.5 12.65 8.65 12.6" fill="#ffff99" fill-opacity="0.2" fill-rule="evenodd" stroke="none"/>
    <path d="M6.25 14.1 L6.35 13.95 6.45 13.75 6.5 13.6 6.6 13.4 6.75 13.2 7.0 13.05 7.2 12.9 Q7.95 12.7 8.75 12.9 L9.85 13.15 10.0 13.35 10.2 13.5 10.4 13.7 10.45 13.9 10.45 14.05 10.45 14.25 10.45 14.4 10.45 14.6 10.45 14.8 10.45 15.15 10.45 15.35 10.4 15.5 10.3 15.7 10.15 15.85 9.95 16.05 9.85 16.15 9.7 16.2 9.4 16.3 8.85 16.35 8.75 16.4 8.45 16.45 8.2 16.45 7.85 16.35 7.6 16.15 7.25 16.05 6.9 15.95 6.65 15.75 6.45 15.55 6.35 15.4 6.25 15.2 6.2 15.0 6.2 14.85 6.2 14.65 6.2 14.5 6.2 14.3 6.25 14.1" fill="#ffff99" fill-opacity="0.2" fill-rule="evenodd" stroke="none"/>
    <path d="M-10.2 20.35 L-10.45 21.45 -10.2 22.55 -9.8 22.85 -9.45 22.55 -9.4 22.55 Q-9.15 22.1 -9.15 21.45 -9.15 20.8 -9.4 20.4 L-9.45 20.35 -9.8 20.05 -10.2 20.4 -10.2 20.35 M-11.45 21.45 Q-11.45 20.5 -11.1 19.85 L-11.05 19.85 Q-10.55 19.0 -9.8 19.05 -9.15 19.0 -8.75 19.55 L-9.0 19.05 -9.05 19.0 Q-9.5 18.2 -10.2 18.15 -10.95 18.2 -11.45 19.05 L-11.45 19.0 Q-12.0 20.0 -12.0 21.45 -12.0 22.9 -11.45 23.9 -10.95 24.7 -10.2 24.75 -9.5 24.7 -9.05 23.9 L-9.0 23.9 -8.75 23.4 Q-9.15 23.9 -9.8 23.85 -10.55 23.9 -11.05 23.1 L-11.1 23.05 Q-11.45 22.4 -11.45 21.45 M-12.35 18.5 L-12.3 18.5 Q-11.45 17.1 -10.2 17.15 -8.9 17.1 -8.15 18.5 -7.4 19.7 -7.4 21.45 -7.4 23.2 -8.15 24.45 L-8.15 24.4 Q-8.9 25.8 -10.2 25.75 -11.45 25.8 -12.3 24.45 L-12.35 24.4 Q-13.0 23.2 -13.0 21.45 -13.0 19.7 -12.35 18.5" fill="#333333" fill-rule="evenodd" stroke="none"/>
    <path d="M-15.2 0.05 L-15.3 11.7 -15.2 23.5 -15.1 35.3 -15.45 43.4 -15.5 43.55 -15.65 43.75 -15.95 43.85 -15.95 43.9 -16.3 43.75 -16.4 43.55 -16.45 43.4 -16.8 31.75 -16.7 19.95 Q-16.55 14.05 -16.7 8.15 L-16.8 0.25 -16.7 0.05 -16.6 -0.1 -16.35 -0.3 -15.95 -0.45 -15.55 -0.3 -15.35 -0.1 -15.2 0.05" fill="#333333" fill-rule="evenodd" stroke="none"/>
    <path d="M15.95 0.15 L16.05 0.3 16.1 0.5 16.1 0.7 16.1 0.9 16.05 1.05 15.85 1.25 15.55 1.45 15.25 1.55 Q11.15 1.7 7.1 1.45 0.05 1.1 -6.6 1.7 L-12.35 1.75 -15.25 1.4 -15.45 1.2 -15.6 1.0 -15.65 0.8 -15.75 0.6 -15.85 0.45 -15.8 0.25 -15.75 0.05 -15.65 -0.1 -15.55 -0.25 -15.35 -0.3 -15.05 -0.35 -14.75 -0.3 Q0.05 -0.15 14.85 -0.35 L15.45 -0.25 15.8 -0.05 15.95 0.15" fill="#333333" fill-rule="evenodd" stroke="none"/>
    <path d="M15.5 1.25 L15.4 1.05 15.3 0.9 15.4 0.7 15.5 0.6 15.7 0.5 15.95 0.45 16.25 0.55 16.5 0.75 16.65 0.95 16.7 1.15 16.7 1.3 16.65 1.5 16.55 1.7 16.45 1.9 16.5 13.5 16.5 25.3 16.5 37.15 16.45 43.7 16.3 43.8 16.2 43.85 15.95 43.9 15.95 43.95 15.6 43.85 15.5 43.65 15.35 43.45 15.35 31.85 15.35 20.0 15.35 8.2 Q15.3 4.8 15.5 1.45 L15.5 1.25" fill="#333333" fill-rule="evenodd" stroke="none"/>
    <path d="M16.15 43.75 L16.2 43.85 16.15 44.0 16.0 44.1 15.7 44.2 11.65 44.25 10.05 44.3 4.15 44.4 -10.9 44.35 -15.3 44.35 -15.8 44.25 Q-15.95 44.2 -16.05 44.1 L-16.2 44.0 -16.25 43.85 -16.2 43.75 -16.15 43.6 -15.8 43.5 -15.3 43.4 -10.9 43.35 Q2.35 43.25 15.7 43.5 L16.0 43.6 16.15 43.75" fill="#333333" fill-rule="evenodd" stroke="none"/>
    <path d="M-4.15 21.7 L-4.0 21.55 -4.0 21.75 -3.95 21.95 -3.95 22.15 -3.9 22.3 -3.8 22.5 -3.8 22.7 -3.8 22.9 -3.65 23.05 -3.6 29.65 -3.65 36.6 -3.65 40.5 -3.65 40.7 -3.7 40.9 -3.8 41.1 -3.8 41.25 -3.8 41.45 -3.8 41.65 -3.75 41.8 -3.65 42.2 -3.65 42.4 -3.65 42.6 -3.65 42.75 -3.65 42.95 -3.65 43.15 -3.7 43.3 -3.8 43.5 -3.9 43.65 -4.1 43.65 -4.1 43.7 -4.35 43.6 -4.45 43.4 -4.55 43.2 -4.55 43.0 -4.55 42.85 -4.55 42.65 -4.55 42.45 -4.6 42.25 -4.65 42.1 -4.7 41.9 -4.75 41.5 -4.7 41.35 -4.7 41.15 -4.7 40.95 -4.6 40.6 -4.6 34.0 -4.6 27.25 -4.6 23.3 -4.5 23.15 -4.45 22.95 -4.4 22.75 -4.4 22.55 -4.3 22.4 -4.3 22.2 -4.25 22.0 -4.2 21.8 -4.15 21.7" fill="#333333" fill-rule="evenodd" stroke="none"/>
    <path d="M-4.0 14.55 L-3.8 14.75 -3.8 16.45 -3.75 18.15 Q-3.75 18.9 -4.2 18.9 L-4.35 18.7 -4.45 17.4 -4.5 16.05 -4.4 14.95 -4.35 14.75 -4.2 14.55 -4.0 14.55" fill="#333333" fill-rule="evenodd" stroke="none"/>
    <path d="M-4.75 1.45 L-4.6 1.25 -4.3 1.15 -4.0 1.25 -3.8 1.45 -3.7 1.65 -3.75 5.2 -3.85 8.95 -4.0 11.2 -4.0 11.4 -4.1 11.75 -4.15 11.85 -4.35 11.95 -4.5 11.75 -4.55 11.55 -4.55 11.4 -4.65 11.2 -4.8 7.65 -4.9 4.05 -4.85 1.8 -4.85 1.65 -4.75 1.45" fill="#333333" fill-rule="evenodd" stroke="none"/>
    <path d="M-8.4 22.7 L-8.3 22.5 -8.15 22.3 -7.85 22.3 -7.65 22.5 -7.65 30.75 -7.65 39.2 -7.7 43.7 -7.8 43.9 -7.85 44.0 -7.85 44.05 -8.05 44.05 -8.15 44.05 -8.3 43.9 -8.45 35.65 -8.4 27.2 -8.4 22.7" fill="#333333" fill-rule="evenodd" stroke="none"/>
    <path d="M-12.7 23.9 L-12.6 23.7 -12.3 23.55 -11.9 23.7 -11.8 23.9 -11.85 31.4 -11.85 39.05 -11.95 43.2 -11.9 43.4 -11.8 43.6 -11.7 43.75 -11.75 43.95 -11.8 44.05 -11.85 44.1 -12.05 44.15 -12.15 44.15 -12.35 43.95 -12.45 43.75 -12.55 43.55 Q-12.8 39.85 -12.7 36.05 L-12.65 28.4 -12.85 24.25 -12.8 24.1 -12.7 23.9" fill="#333333" fill-rule="evenodd" stroke="none"/>
    <path d="M14.65 1.15 L14.7 1.45 14.7 1.75 14.7 2.05 14.7 2.2 14.55 2.65 14.4 3.1 14.3 3.4 14.3 3.7 14.3 4.0 14.25 4.3 14.2 4.45 14.15 4.55 14.15 4.6 14.0 4.6 13.9 4.6 13.8 4.45 13.75 4.15 13.7 3.7 13.7 3.25 13.85 2.8 14.0 2.35 14.1 2.05 14.1 1.9 14.1 1.75 14.1 1.45 14.15 1.3 14.2 1.15 14.35 1.0 14.5 1.05 14.65 1.15" fill="#333333" fill-rule="evenodd" stroke="none"/>
    <path d="M12.8 3.0 L13.05 3.1 13.1 3.85 13.1 4.6 13.1 5.35 13.05 5.5 12.95 5.65 12.9 5.8 12.85 5.95 12.8 6.05 12.75 6.1 12.6 6.1 12.5 6.1 12.35 5.95 12.3 5.8 12.3 5.65 12.35 5.5 12.4 5.35 12.5 5.2 12.5 4.6 12.5 4.0 12.5 3.25 12.6 3.15 12.8 3.0" fill="#333333" fill-rule="evenodd" stroke="none"/>
    <path d="M11.6 0.25 L11.7 0.1 11.9 0.1 12.0 0.25 12.1 1.0 12.1 1.75 11.9 2.5 11.85 2.95 11.85 3.55 Q11.9 3.9 11.6 3.85 L11.5 3.85 11.35 3.7 11.35 3.25 11.35 2.8 11.3 2.35 11.35 2.2 11.4 1.9 11.5 1.6 11.5 1.15 11.6 0.7 11.6 0.25" fill="#333333" fill-rule="evenodd" stroke="none"/>
    <path d="M7.7 1.2 Q7.65 0.9 7.75 0.6 8.0 0.65 7.95 1.05 L7.9 1.8 7.9 2.4 8.0 2.7 8.05 3.0 8.05 3.25 8.0 3.3 7.95 3.3 7.85 3.15 7.85 3.0 7.8 2.85 7.75 2.7 7.7 2.55 7.7 1.95 7.7 1.2" fill="#333333" fill-rule="evenodd" stroke="none"/>
    <path d="M1.25 2.9 L1.2 3.0 1.15 3.05 1.0 3.05 0.9 3.05 0.75 2.9 0.7 2.75 0.65 2.6 0.6 2.3 0.55 2.15 0.55 1.7 0.55 1.1 0.55 0.5 0.65 0.4 0.8 0.25 1.05 0.35 1.05 0.8 1.05 1.4 1.05 2.0 1.15 2.3 1.2 2.6 1.25 2.9" fill="#333333" fill-rule="evenodd" stroke="none"/>
    <path d="M0.5 3.3 L0.6 3.25 0.65 3.3 0.7 3.45 0.7 4.05 0.7 4.65 0.65 5.1 0.55 5.1 Q0.45 4.8 0.5 4.5 L0.5 3.9 0.5 3.3" fill="#333333" fill-rule="evenodd" stroke="none"/>
    <path d="M-6.4 2.2 L-6.25 1.9 -6.15 1.6 -6.0 1.15 -5.95 0.7 -5.85 0.55 -5.85 0.4 -5.85 0.25 -5.85 0.1 -5.8 -0.05 -5.7 -0.2 -5.7 -0.35 -5.5 -0.4 -5.5 -0.25 -5.4 -0.1 -5.35 0.05 -5.35 0.35 -5.3 0.65 -5.4 1.25 -5.6 1.85 -5.75 2.3 -5.85 2.45 -5.9 2.6 -6.0 2.75 -6.05 2.9 -6.15 3.2 -6.25 3.5 -6.35 3.65 -6.35 3.8 -6.35 3.95 -6.35 4.1 -6.35 4.25 -6.45 4.35 -6.6 4.45 -6.7 4.45 -6.85 4.3 -6.85 4.15 -6.85 3.85 -6.85 3.55 -6.9 3.4 -6.85 3.25 -6.75 2.95 -6.65 2.65 -6.55 2.5 -6.4 2.2" fill="#333333" fill-rule="evenodd" stroke="none"/>
    <path d="M-8.7 0.5 L-8.65 0.35 -8.65 0.2 -8.5 0.2 -8.25 0.25 -8.1 0.4 Q-8.0 0.75 -8.05 1.15 L-8.05 2.05 -8.05 2.8 -8.0 2.95 -7.9 3.1 -7.9 3.25 -8.0 3.5 -8.25 3.75 -8.5 3.8 -8.6 3.65 -8.5 3.5 -8.5 3.35 -8.55 3.2 -8.65 3.05 -8.75 2.9 -8.75 2.15 -8.75 1.4 -8.75 0.65 -8.7 0.5" fill="#333333" fill-rule="evenodd" stroke="none"/>
    <path d="M-13.25 1.55 L-13.25 0.95 -13.25 0.8 -13.15 0.65 -13.0 0.55 -12.8 0.65 Q-12.7 1.0 -12.75 1.4 L-12.75 2.15 -12.75 2.9 -12.8 3.05 -12.85 3.15 -12.85 3.2 -13.0 3.2 -13.1 3.2 -13.2 3.05 -13.25 2.3 -13.25 1.55" fill="#333333" fill-rule="evenodd" stroke="none"/>
    <path d="M-13.3 3.95 L-13.25 4.1 -13.15 4.25 -13.0 4.4 -13.0 4.55 -13.0 4.85 -13.0 5.15 -13.05 5.45 -13.0 5.6 -12.9 5.75 -12.9 5.9 -13.0 5.95 -13.05 5.95 -13.25 5.8 -13.35 5.65 -13.35 5.5 -13.4 5.2 -13.4 4.9 -13.4 4.6 -13.4 4.45 -13.5 4.3 -13.5 4.15 -13.5 4.0 -13.45 3.9 -13.35 3.85 -13.3 3.95" fill="#333333" fill-rule="evenodd" stroke="none"/>
    <path d="M-7.5 21.4 L-7.6 21.25 -7.5 21.1 -7.1 21.1 -7.05 21.25 -7.05 21.35 -7.05 21.4 -7.2 21.4 -7.2 21.45 -7.5 21.4" fill="#333333" fill-rule="evenodd" stroke="none"/>
    <path d="M1.9 27.55 L1.95 27.55 Q0.5 29.25 0.55 31.55 0.6 33.85 2.1 35.35 3.6 36.8 5.0 36.8 6.45 36.8 5.55 36.6 4.6 36.4 3.55 35.35 1.95 33.75 1.95 31.4 1.95 29.05 3.55 27.35 4.55 26.4 5.85 26.0 L4.9 26.0 Q4.0 26.0 1.9 27.55 M11.7 35.3 L11.3 35.75 10.55 36.3 9.7 36.6 8.55 36.95 Q7.7 37.55 5.4 37.55 3.1 37.55 1.25 35.8 -0.6 34.05 -0.6 31.4 -0.6 28.75 1.2 26.85 L1.2 26.7 Q3.1 25.0 5.75 25.0 7.75 25.0 9.2 25.95 10.55 26.35 11.6 27.35 13.3 29.05 13.3 31.4 13.3 33.7 11.7 35.3 M10.9 28.05 L10.9 28.1 10.15 27.45 9.1 27.1 6.65 27.05 Q4.9 27.25 4.3 28.05 L4.25 28.1 Q2.95 29.45 2.95 31.45 2.9 33.4 4.35 34.85 5.5 35.95 6.85 36.2 L8.55 36.25 10.3 35.55 Q11.1 35.0 11.45 34.05 L11.7 33.65 Q12.3 32.65 12.3 31.4 12.3 29.45 10.9 28.05" fill="#333333" fill-rule="evenodd" stroke="none"/>
    <path d="M4.45 26.0 L4.4 26.0 4.15 25.95 4.05 25.85 3.95 25.8 3.95 25.75 4.0 25.7 4.5 25.75 4.85 25.95 5.1 26.05 5.15 26.15 5.2 26.2 5.2 26.3 5.2 26.35 5.1 26.5 5.05 26.55 5.0 26.6 4.95 26.55 4.95 26.45 5.0 26.4 4.65 26.1 4.45 26.0" fill="#333333" fill-rule="evenodd" stroke="none"/>
    <path d="M3.4 25.5 L3.7 25.65 3.95 25.8 4.1 25.95 4.25 26.1 4.35 26.15 4.5 26.25 4.6 26.3 4.7 26.35 4.85 26.45 4.9 26.55 4.95 26.6 4.9 26.65 4.9 26.75 4.85 26.85 4.7 26.85 4.7 26.9 4.55 26.85 4.3 26.7 4.0 26.5 3.8 26.4 3.75 26.3 3.7 26.25 3.6 26.15 3.5 26.1 3.35 26.0 3.25 25.95 3.2 25.85 3.15 25.8 3.1 25.7 3.1 25.65 3.15 25.55 3.2 25.55 3.3 25.55 3.4 25.5" fill="#333333" fill-rule="evenodd" stroke="none"/>
    <path d="M1.35 29.5 L1.45 29.55 1.5 29.65 1.55 29.7 1.5 29.75 1.5 29.85 1.45 29.95 1.3 29.95 1.3 30.0 1.2 29.95 1.0 29.9 0.85 29.85 0.65 29.75 0.5 29.75 0.3 29.7 0.2 29.65 0.1 29.55 0.0 29.5 0.0 29.45 -0.05 29.35 0.0 29.3 0.0 29.2 0.05 29.15 0.1 29.15 0.2 29.1 0.5 29.2 0.65 29.25 0.95 29.35 1.05 29.4 1.2 29.45 1.35 29.5" fill="#333333" fill-rule="evenodd" stroke="none"/>
    <path d="M6.05 26.7 L7.9 26.55 7.9 26.65 7.7 26.85 7.5 26.95 6.4 27.15 6.4 27.25 6.45 27.4 6.6 27.55 6.75 27.7 6.75 27.85 6.7 28.0 5.25 28.0 5.25 28.15 5.35 28.3 5.35 28.45 5.3 28.6 5.0 28.65 4.9 28.65 4.8 28.5 4.75 28.35 4.7 28.25 4.5 28.05 4.35 27.9 4.35 27.75 4.35 27.6 4.35 27.45 4.45 27.35 4.75 27.25 4.85 27.35 4.85 27.4 5.35 27.5 5.55 27.6 6.05 27.55 6.0 27.4 6.0 27.1 6.0 26.95 6.05 26.8 6.05 26.7" fill="#333333" fill-rule="evenodd" stroke="none"/>
    <path d="M4.9 8.5 Q4.0 8.5 1.9 10.05 L1.95 10.05 Q0.5 11.75 0.55 14.05 0.6 16.35 2.1 17.85 3.6 19.3 5.0 19.3 6.45 19.3 5.55 19.1 4.6 18.9 3.55 17.85 1.95 16.25 1.95 13.9 1.95 11.55 3.55 9.85 4.55 8.9 5.85 8.5 L4.9 8.5 M1.2 9.35 L1.2 9.2 Q3.1 7.5 5.75 7.5 7.75 7.5 9.2 8.45 10.55 8.85 11.6 9.85 13.3 11.55 13.3 13.9 13.3 16.2 11.7 17.8 L11.3 18.25 10.55 18.8 9.7 19.1 8.55 19.45 Q7.7 20.05 5.4 20.05 3.1 20.05 1.25 18.3 -0.6 16.55 -0.6 13.9 -0.6 11.25 1.2 9.35 M10.9 10.6 L10.15 9.95 9.1 9.6 6.65 9.55 Q4.9 9.75 4.3 10.55 L4.25 10.6 Q2.95 11.95 2.95 13.95 2.9 15.9 4.35 17.35 5.5 18.45 6.85 18.7 L8.55 18.75 10.3 18.05 Q11.1 17.5 11.45 16.55 L11.7 16.15 Q12.3 15.15 12.3 13.9 12.3 11.95 10.9 10.55 L10.9 10.6" fill="#333333" fill-rule="evenodd" stroke="none"/>
    <path d="M4.45 8.5 L4.4 8.5 4.15 8.45 4.05 8.35 3.95 8.3 3.95 8.25 4.0 8.2 4.5 8.25 4.85 8.45 5.1 8.55 5.15 8.65 5.2 8.7 5.2 8.8 5.2 8.85 5.1 9.0 5.05 9.05 5.0 9.1 4.95 9.05 4.95 8.95 5.0 8.9 4.65 8.6 4.45 8.5" fill="#333333" fill-rule="evenodd" stroke="none"/>
    <path d="M3.4 8.0 L3.7 8.15 3.95 8.3 4.1 8.45 4.25 8.6 4.35 8.65 4.5 8.75 4.6 8.8 4.7 8.85 4.85 8.95 4.9 9.05 4.95 9.1 4.9 9.15 4.9 9.25 4.85 9.35 4.7 9.35 4.7 9.4 4.55 9.35 4.3 9.2 4.0 9.0 3.8 8.9 3.75 8.8 3.7 8.75 3.6 8.65 3.5 8.6 3.35 8.5 3.25 8.45 3.2 8.35 3.15 8.3 3.1 8.2 3.1 8.15 3.15 8.05 3.2 8.05 3.3 8.05 3.4 8.0" fill="#333333" fill-rule="evenodd" stroke="none"/>
    <path d="M1.35 12.0 L1.45 12.05 1.5 12.15 1.55 12.2 1.5 12.25 1.5 12.35 1.45 12.45 1.3 12.45 1.3 12.5 1.2 12.45 1.0 12.4 0.85 12.35 0.65 12.25 0.5 12.25 0.3 12.2 0.2 12.15 0.1 12.05 0.0 12.0 0.0 11.95 -0.05 11.85 0.0 11.8 0.0 11.7 0.05 11.65 0.1 11.65 0.2 11.6 0.5 11.7 0.65 11.75 0.95 11.85 1.05 11.9 1.2 11.95 1.35 12.0" fill="#333333" fill-rule="evenodd" stroke="none"/>
    <path d="M6.05 9.2 L7.9 9.05 7.9 9.15 7.7 9.35 7.5 9.45 6.4 9.65 6.4 9.75 6.45 9.9 6.6 10.05 6.75 10.2 6.75 10.35 6.7 10.5 5.25 10.5 5.25 10.65 5.35 10.8 5.35 10.95 5.3 11.1 5.0 11.15 4.9 11.15 4.8 11.0 4.75 10.85 4.7 10.75 4.5 10.55 4.35 10.4 4.35 10.25 4.35 10.1 4.35 9.95 4.45 9.85 4.75 9.75 4.85 9.85 4.85 9.9 5.35 10.0 5.55 10.1 6.05 10.05 6.0 9.9 6.0 9.6 6.0 9.45 6.05 9.3 6.05 9.2" fill="#333333" fill-rule="evenodd" stroke="none"/>
    <path d="M4.25 -9.75 L4.45 -9.55 4.6 -9.4 4.6 -7.6 4.6 -5.6 4.6 -3.95 4.5 -3.75 4.5 -3.05 4.5 -2.15 4.5 -1.25 4.45 -1.05 4.45 -0.9 4.45 -0.7 4.45 -0.5 4.45 -0.35 4.4 -0.15 4.2 0.05 3.85 0.1 3.85 0.15 3.55 0.05 3.4 -0.15 3.25 -0.35 3.25 -0.5 3.25 -0.7 3.25 -0.9 3.25 -1.05 3.25 -1.25 3.2 -1.4 3.2 -2.15 3.2 -3.05 3.2 -3.95 3.15 -4.15 3.15 -5.75 3.15 -7.75 3.15 -9.2 3.2 -9.4 3.3 -9.55 3.5 -9.75 3.85 -9.85 4.25 -9.75" fill="#333333" fill-rule="evenodd" stroke="none"/>
    <path d="M-2.0 -8.8 L-2.0 -8.25 -2.0 -7.7 -2.0 -7.5 -2.05 -7.35 -2.05 -6.6 -2.05 -5.55 -2.05 -4.45 -2.1 -4.25 -2.1 -3.9 -2.1 -3.35 -2.1 -2.8 -2.1 -2.45 -2.2 -2.25 -2.2 -2.1 -2.2 -1.7 -2.2 -1.35 -2.2 -1.0 -2.25 -0.8 -2.25 -0.65 -2.25 -0.45 -2.25 -0.25 -2.25 -0.1 -2.3 0.1 -2.3 0.25 -2.5 0.45 -2.65 0.55 -2.9 0.6 -2.9 0.65 -3.2 0.5 -3.4 0.3 -3.5 0.15 -3.55 -0.05 -3.55 -0.2 -3.55 -0.4 -3.55 -0.6 -3.55 -0.75 -3.55 -0.95 -3.65 -1.1 -3.65 -1.3 -3.65 -1.65 -3.65 -2.0 -3.65 -2.4 -3.7 -2.55 -3.7 -2.95 -3.7 -3.45 -3.7 -4.0 -3.7 -4.4 -3.75 -4.55 -3.75 -5.3 -3.75 -6.35 -3.75 -7.45 -3.8 -7.65 -3.8 -7.8 -3.8 -8.2 -3.8 -8.55 -3.8 -8.9 -3.75 -9.1 -3.7 -9.25 -3.65 -9.45 -3.4 -9.65 -3.2 -9.75 -2.9 -9.8 -2.5 -9.7 -2.25 -9.5 -2.05 -9.35 -2.0 -9.15 -2.0 -8.8" fill="#333333" fill-rule="evenodd" stroke="none"/>
    <path d="M2.9 -8.95 L-1.95 -9.0 -2.9 -9.05 -3.2 -9.15 -3.25 -9.35 -3.35 -9.5 -3.2 -9.7 -3.15 -9.8 -2.9 -9.85 3.05 -9.75 3.4 -9.4 3.5 -9.2 3.55 -9.05 3.45 -8.9 3.35 -8.85 3.2 -8.85 3.05 -8.85 2.9 -8.95" fill="#333333" fill-rule="evenodd" stroke="none"/>
    <path d="M3.45 -0.7 L3.5 -0.5 3.5 -0.35 3.45 -0.15 3.25 0.0 3.05 0.15 2.95 0.2 2.65 0.25 -2.45 0.25 -2.8 0.15 -2.95 -0.05 -3.1 -0.2 -3.15 -0.4 -3.1 -0.55 -3.05 -0.75 -2.95 -0.95 -2.85 -1.05 -2.75 -1.1 2.65 -1.2 3.05 -1.05 3.3 -0.85 3.45 -0.7" fill="#333333" fill-rule="evenodd" stroke="none"/>
    <path d="M3.3 -2.1 L3.2 -2.05 -0.5 -1.8 -1.8 -1.85 -2.0 -2.0 -2.05 -2.2 -1.95 -2.4 -1.7 -2.5 2.9 -2.25 3.3 -2.1" fill="#333333" fill-rule="evenodd" stroke="none"/>
    <path d="M-1.7 -3.95 L-1.45 -3.95 -1.15 -3.9 -1.0 -3.85 0.6 -3.6 0.6 -3.55 0.0 -3.45 -1.0 -3.35 -1.15 -3.3 -1.45 -3.25 -1.8 -3.3 -2.0 -3.45 -2.05 -3.65 -1.95 -3.85 -1.7 -3.95" fill="#333333" fill-rule="evenodd" stroke="none"/>
    <path d="M1.95 -44.25 L2.05 -44.4 2.15 -44.45 2.4 -44.5 2.75 -44.4 2.95 -44.2 3.0 -44.05 3.0 -43.7 3.0 -43.15 3.0 -42.75 3.0 -42.4 3.05 -42.25 3.05 -41.85 3.05 -41.3 3.05 -40.95 3.05 -40.4 3.15 -40.25 3.15 -38.45 3.15 -36.05 3.15 -34.1 3.05 -33.9 3.05 -27.9 3.05 -21.4 3.05 -17.25 3.0 -17.05 3.0 -15.8 3.0 -14.15 3.0 -12.35 2.95 -12.15 2.95 -12.0 2.95 -11.8 3.05 -11.6 3.3 -11.25 3.45 -10.9 3.4 -10.7 3.35 -10.55 3.25 -10.15 3.15 -9.8 2.9 -9.65 2.7 -9.5 2.65 -9.45 2.4 -9.4 2.15 -9.4 1.85 -9.5 1.75 -9.7 1.7 -9.85 1.75 -10.05 1.85 -10.25 2.15 -10.4 2.2 -10.6 2.3 -10.8 2.15 -10.95 2.05 -11.15 2.0 -11.3 1.85 -11.5 1.85 -11.7 1.85 -11.85 1.85 -12.05 1.85 -12.25 1.85 -12.4 1.8 -12.6 1.8 -13.85 1.8 -15.5 1.8 -17.1 1.75 -17.3 1.75 -23.25 1.75 -29.8 1.75 -33.95 1.7 -34.15 1.7 -35.95 1.7 -38.1 1.7 -40.1 1.75 -40.3 1.75 -40.65 1.75 -41.2 1.75 -41.55 1.75 -42.1 1.8 -42.3 1.8 -42.65 1.8 -43.2 1.8 -43.55 1.8 -43.9 1.85 -44.1 1.95 -44.25" fill="#333333" fill-rule="evenodd" stroke="none"/>
    <path d="M1.0 -10.5 L1.2 -10.3 1.4 -10.1 1.45 -9.95 1.4 -9.75 1.3 -9.55 1.2 -9.5 0.95 -9.4 0.65 -9.5 -1.15 -9.55 -1.45 -9.7 -1.6 -9.85 -1.7 -10.05 -1.65 -10.25 -1.6 -10.4 -1.5 -10.55 -1.4 -10.6 -1.15 -10.65 0.7 -10.6 1.0 -10.5" fill="#333333" fill-rule="evenodd" stroke="none"/>
    <path d="M-1.4 -44.2 L-1.0 -44.35 -0.55 -44.2 -0.3 -44.05 -0.2 -43.85 -0.15 -43.7 -0.15 -43.3 -0.15 -42.75 -0.15 -42.25 -0.15 -42.05 -0.2 -41.85 -0.25 -41.7 -0.25 -41.5 -0.3 -41.3 -0.3 -39.85 -0.3 -38.25 -0.3 -36.8 -0.25 -36.6 -0.25 -35.7 -0.25 -34.45 -0.25 -33.15 -0.2 -33.0 -0.2 -32.25 -0.2 -31.35 -0.2 -30.45 -0.15 -30.3 -0.15 -30.1 -0.15 -29.9 -0.15 -29.75 -0.15 -29.55 -0.15 -29.35 -0.2 -29.2 -0.2 -27.9 -0.2 -26.3 -0.2 -25.0 -0.15 -24.85 -0.15 -23.05 -0.15 -20.85 -0.15 -19.25 -0.2 -19.05 -0.2 -17.6 -0.2 -15.8 -0.2 -14.35 -0.25 -14.15 -0.25 -13.8 -0.25 -13.25 -0.25 -12.55 -0.25 -12.15 -0.3 -12.0 -0.3 -11.8 -0.3 -11.45 -0.3 -11.1 -0.3 -10.7 -0.35 -10.55 -0.35 -10.35 -0.35 -10.15 -0.5 -10.0 -0.6 -9.8 -0.8 -9.65 -1.15 -9.55 -1.15 -9.5 -1.45 -9.65 -1.65 -9.8 -1.75 -10.0 -1.75 -10.15 -1.7 -10.35 -1.6 -10.55 -1.6 -10.7 -1.65 -10.9 -1.65 -11.1 -1.65 -11.45 -1.65 -11.8 -1.65 -12.15 -1.7 -12.35 -1.7 -12.7 -1.7 -13.25 -1.7 -13.8 -1.7 -14.15 -1.75 -14.35 -1.75 -15.8 -1.75 -17.6 -1.75 -19.05 -1.8 -19.25 -1.8 -21.05 -1.8 -23.05 -1.8 -24.65 -1.75 -24.85 -1.75 -26.1 -1.75 -27.75 -1.75 -29.2 -1.8 -29.35 -1.8 -29.55 -1.8 -29.75 -1.8 -29.9 -1.8 -30.1 -1.8 -30.3 -1.75 -30.45 -1.75 -31.0 -1.75 -31.75 -1.75 -32.65 -1.75 -32.8 -1.7 -33.0 -1.7 -34.1 -1.7 -35.35 -1.7 -36.6 -1.65 -36.8 -1.65 -38.25 -1.65 -40.05 -1.65 -41.5 -1.7 -41.7 -1.7 -41.85 -1.75 -42.05 -1.8 -42.25 -1.8 -42.4 -1.8 -42.75 -1.8 -43.15 -1.8 -43.5 -1.75 -43.7 -1.7 -43.85 -1.55 -44.05 -1.4 -44.2" fill="#333333" fill-rule="evenodd" stroke="none"/>
    <path d="M1.25 -44.7 L1.55 -44.6 2.85 -44.45 3.0 -44.3 3.0 -44.1 2.9 -43.9 2.65 -43.8 1.75 -43.8 1.55 -43.85 1.2 -43.9 0.7 -43.85 0.3 -43.75 -0.5 -43.7 -0.75 -43.7 -1.05 -43.8 -1.15 -44.0 -1.2 -44.15 -1.15 -44.35 -1.05 -44.5 -0.75 -44.65 -0.5 -44.65 0.55 -44.7 0.95 -44.85 1.25 -44.7" fill="#333333" fill-rule="evenodd" stroke="none"/>
  </g>
</svg>
