<?xml version="1.0" encoding="UTF-8" standalone="no"?>
<svg xmlns:xlink="http://www.w3.org/1999/xlink" height="28.3px" width="88.3px" xmlns="http://www.w3.org/2000/svg">
  <g transform="matrix(1.0, 0.0, 0.0, 1.0, 44.65, 0.5)">
    <path d="M42.8 7.3 L42.8 27.0 -43.85 27.0 -43.85 7.3 -8.0 7.3 -9.55 8.7 -8.65 8.7 0.05 0.0 8.75 8.7 9.75 8.7 8.2 7.3 42.8 7.3" fill="#65b3a0" fill-rule="evenodd" stroke="none"/>
    <path d="M42.8 7.3 Q42.4 7.95 42.7 9.15 43.05 10.35 42.85 11.35 L42.75 13.35 43.05 15.3 Q43.3 16.3 43.0 17.3 L42.75 19.15 42.75 21.05 Q42.7 22.15 42.95 23.2 43.2 24.3 42.9 24.6 42.6 24.95 42.8 27.0 L40.85 27.05 38.9 27.05 36.95 26.9 35.0 26.95 33.15 27.15 31.0 27.05 28.8 26.95 26.85 27.05 24.9 27.2 22.85 27.2 20.8 27.0 18.8 26.8 16.85 26.9 14.6 27.0 12.75 26.85 11.25 27.05 8.9 26.9 6.5 26.95 4.6 27.15 2.75 27.05 0.75 27.05 -1.1 27.0 -3.1 26.85 -5.4 27.1 Q-6.6 27.5 -7.4 27.1 L-9.25 27.05 -11.2 27.15 -13.3 26.95 -15.15 26.8 Q-15.85 26.65 -17.0 26.8 L-19.15 26.95 -21.2 26.95 -23.05 27.0 -24.95 27.05 -26.9 26.9 -29.0 26.95 -31.4 27.1 -33.2 27.1 -35.05 27.15 -37.0 26.85 -38.9 26.7 -41.3 26.75 -42.9 26.95 -43.85 27.0 -43.95 24.95 -43.95 22.9 Q-43.85 21.85 -44.0 20.8 L-44.15 18.75 -44.1 16.75 -44.0 14.95 -43.85 13.25 -43.85 11.35 -43.85 9.65 -43.85 7.3 -41.85 7.1 -39.95 7.05 Q-38.8 6.85 -37.8 7.05 L-35.8 7.3 -33.85 7.3 -31.75 7.3 -29.65 7.2 -28.0 7.1 -26.15 7.0 -24.0 7.1 -21.85 7.2 -20.0 7.35 -18.2 7.45 -15.9 7.05 Q-14.8 6.85 -13.85 7.05 L-12.05 7.4 -10.65 7.5 -8.0 7.3 Q-8.35 8.25 -8.85 8.45 L-9.55 8.7 Q-9.55 8.95 -8.65 8.7 -7.95 9.15 -6.85 9.1 L-4.8 8.75 -2.7 8.55 -0.6 8.65 1.35 8.45 Q2.35 8.25 3.35 8.45 L5.4 8.7 7.05 8.55 8.75 8.7 Q8.4 9.15 9.75 8.7 8.65 8.35 8.45 7.9 L8.2 7.3 10.15 7.2 11.95 7.2 14.0 7.15 16.0 7.2 18.25 7.0 20.2 7.05 22.05 7.3 24.1 7.3 26.05 7.0 27.85 7.3 29.95 7.55 32.3 7.3 34.35 7.35 36.2 7.35 38.15 7.25 40.1 7.25 41.55 7.3 42.8 7.3 M7.35 7.3 Q6.9 6.2 5.95 5.7 5.05 5.2 4.45 4.25 L3.2 2.85 1.8 1.7 0.7 0.65 0.05 0.0 Q-0.2 0.7 -1.35 1.2 -2.5 1.75 -2.9 2.8 -3.3 3.9 -4.25 4.55 L-5.65 5.55 -6.5 6.5 -7.25 7.3" fill="none" stroke="#65b3a0" stroke-linecap="round" stroke-linejoin="round" stroke-width="1.0"/>
  </g>
</svg>
