<?xml version="1.0" encoding="UTF-8" standalone="no"?>
<svg xmlns:xlink="http://www.w3.org/1999/xlink" height="2.85px" width="168.15px" xmlns="http://www.w3.org/2000/svg">
  <g transform="matrix(1.0, 0.0, 0.0, 1.0, 167.35, 1.45)">
    <path d="M0.8 0.4 L0.45 0.85 -7.0 1.3 Q-15.75 1.5 -24.5 0.9 L-26.45 0.3 -29.05 0.55 -29.35 0.7 -35.8 0.7 -42.4 0.85 -48.85 0.85 -55.45 1.0 -61.55 1.05 -67.75 1.15 -85.45 1.15 -100.3 1.15 -111.55 1.15 -122.8 1.05 -129.75 1.05 -132.95 1.35 -147.9 0.7 Q-152.65 0.55 -157.6 0.75 -162.5 1.05 -167.05 0.75 L-167.35 -0.35 -166.65 -0.9 -158.95 -0.65 -151.35 -0.5 -142.55 -0.75 -135.15 -0.95 -123.95 -0.8 -118.2 -0.75 -112.4 -0.8 -106.75 -0.8 -100.95 -0.9 -95.25 -0.9 -89.5 -1.05 -83.8 -1.05 -72.75 -1.1 -61.6 -1.1 -50.6 -1.05 -41.6 -0.5 -33.4 -0.45 -29.0 -0.45 -17.7 -1.1 -9.0 -1.25 0.5 -0.75 0.8 0.4" fill="url(#gradient0)" fill-rule="evenodd" stroke="none"/>
    <path d="M-32.0 -0.3 L-31.95 -0.5 -31.85 -0.65 -31.75 -0.85 -31.6 -1.0 -31.4 -1.15 -31.05 -1.3 -30.7 -1.4 -30.3 -1.45 -29.85 -1.25 -29.65 -1.0 -29.5 -0.75 -29.4 -0.55 -29.4 -0.35 -29.4 -0.2 -29.5 0.2 -29.65 0.55 -29.7 0.7 -29.85 0.85 -30.05 1.05 -30.25 1.15 -30.55 1.3 -30.9 1.35 -30.95 1.35 -31.45 1.25 -31.7 1.1 -31.85 0.85 -31.95 0.65 -32.0 0.45 -32.05 0.25 -32.05 0.05 -32.05 -0.15 -32.0 -0.3" fill="#ffffff" fill-rule="evenodd" stroke="none"/>
    <path d="M-38.45 -0.25 L-38.3 -0.4 -38.15 -0.6 -38.1 -0.75 -38.0 -0.95 -37.85 -1.1 -37.55 -1.25 -37.35 -1.4 -36.95 -1.45 -36.7 -1.4 -36.3 -1.15 -36.1 -0.95 -36.0 -0.75 -36.0 -0.55 -36.0 -0.35 -35.95 -0.2 -35.7 0.1 -35.75 0.3 -35.8 0.45 -35.9 0.65 -35.95 0.8 -36.15 0.95 -36.35 1.05 -36.45 1.2 -36.7 1.35 -37.05 1.4 -37.55 1.3 -37.85 1.15 -38.1 0.95 -38.25 0.85 -38.5 0.7 -38.6 0.45 -38.65 0.25 -38.65 0.1 -38.6 -0.1 -38.45 -0.25" fill="#ffffff" fill-rule="evenodd" stroke="none"/>
  </g>
  <defs>
    <linearGradient gradientTransform="matrix(-0.0342, -4.0E-4, 0.0, -0.0016, -136.15, -0.2)" gradientUnits="userSpaceOnUse" id="gradient0" spreadMethod="pad" x1="-819.2" x2="819.2">
      <stop offset="0.0" stop-color="#ffffff"/>
      <stop offset="1.0" stop-color="#ffffff" stop-opacity="0.0"/>
    </linearGradient>
  </defs>
</svg>
