<?xml version="1.0" encoding="UTF-8" standalone="no"?>
<svg xmlns:xlink="http://www.w3.org/1999/xlink" height="3.0px" width="166.9px" xmlns="http://www.w3.org/2000/svg">
  <g transform="matrix(1.0, 0.0, 0.0, 1.0, 166.9, 1.25)">
    <path d="M-0.1 -0.25 L0.0 0.05 -0.1 0.35 -0.25 0.65 -0.6 0.8 -2.5 1.0 -6.65 1.3 -8.3 1.3 -9.95 1.3 Q-21.1 1.0 -32.25 1.15 -60.95 1.45 -89.6 0.85 L-89.85 0.8 -106.4 0.55 -113.3 0.8 -114.95 0.85 -116.35 0.95 -131.2 1.0 Q-148.3 0.7 -165.4 0.8 L-165.85 0.65 -166.7 0.35 -166.9 0.05 -166.7 -0.25 -165.85 -0.55 -165.4 -0.7 -143.9 -0.65 -131.2 -0.65 -129.0 -0.7 -126.0 -0.85 Q-119.65 -1.25 -113.3 -0.95 -101.6 -0.35 -89.85 -0.7 L-89.6 -0.8 -73.9 -1.0 -70.05 -1.15 -68.35 -1.25 -60.65 -1.25 -51.85 -1.1 Q-42.05 -0.85 -32.25 -0.95 L-20.15 -1.15 -8.3 -1.25 -0.6 -0.7 -0.25 -0.5 -0.1 -0.25" fill="url(#gradient0)" fill-rule="evenodd" stroke="none"/>
    <path d="M-123.95 -0.6 L-123.85 -0.75 -123.75 -0.9 -123.65 -1.05 -123.55 -1.05 -123.3 -1.1 -123.05 -1.05 -122.85 -0.95 -122.6 -0.8 -122.3 -0.65 -122.1 -0.4 -122.05 -0.2 -122.05 0.0 -122.1 0.15 -122.15 0.35 -122.2 0.55 -122.1 0.65 -121.85 0.85 -121.75 1.1 -121.75 1.25 -121.8 1.4 -122.0 1.6 -122.35 1.65 -122.65 1.65 -122.9 1.75 -123.1 1.75 -123.35 1.75 -123.4 1.75 -123.65 1.6 -123.8 1.35 -123.9 1.15 -124.05 0.95 -124.15 0.7 -124.15 0.55 -124.1 0.15 -124.0 -0.2 -123.95 -0.6" fill="#ffffff" fill-rule="evenodd" stroke="none"/>
    <path d="M-133.55 -0.25 L-133.5 -0.35 -133.4 -0.4 -133.1 -0.4 -132.9 -0.6 -132.6 -0.65 -132.35 -0.6 -132.05 -0.4 -132.0 -0.2 -132.0 0.0 -132.05 0.15 -132.1 0.35 -132.25 0.5 -132.45 0.65 -132.85 0.7 -133.1 0.7 -133.35 0.65 -133.6 0.45 -133.65 0.3 -133.7 0.1 -133.65 -0.1 -133.55 -0.25" fill="#ffffff" fill-rule="evenodd" stroke="none"/>
  </g>
  <defs>
    <linearGradient gradientTransform="matrix(-0.0332, -4.0E-4, 0.0, -0.0016, -132.4, 0.2)" gradientUnits="userSpaceOnUse" id="gradient0" spreadMethod="pad" x1="-819.2" x2="819.2">
      <stop offset="0.0" stop-color="#ffffff"/>
      <stop offset="1.0" stop-color="#ffffff" stop-opacity="0.0"/>
    </linearGradient>
  </defs>
</svg>
