<?xml version="1.0" encoding="UTF-8" standalone="no"?>
<svg xmlns:xlink="http://www.w3.org/1999/xlink" height="178.1px" width="462.8px" xmlns="http://www.w3.org/2000/svg">
  <g transform="matrix(1.0, 0.0, 0.0, 1.0, 2.65, 2.75)">
    <path d="M4.7 -0.1 L2.8 0.1 0.0 0.0 Q1.4 1.55 0.0 2.45 -1.4 3.4 -0.5 6.05 0.45 8.7 -0.35 10.0 -1.1 11.35 -0.35 11.85 0.4 12.35 0.25 14.6 0.1 16.85 -0.35 18.1 -0.8 19.35 -0.35 21.05 0.1 22.8 -0.15 23.45 -0.4 24.15 -0.35 26.65 -0.3 29.15 -0.6 31.05 -0.9 32.95 -1.1 33.45 -1.3 34.0 -0.2 35.75 0.9 37.55 0.5 39.05 L-0.05 41.7 -0.45 44.05 Q-0.65 45.3 0.4 47.45 1.5 49.6 0.5 51.45 -0.5 53.35 -0.4 54.4 L-0.1 56.95 Q0.05 58.45 0.7 59.3 1.35 60.15 0.65 62.35 0.0 64.55 0.15 66.0 0.35 67.5 0.2 68.95 L-0.1 71.95 0.0 75.0 -0.05 77.95 Q-0.3 79.4 0.05 80.7 0.45 82.05 0.2 83.7 L-0.1 87.05 Q-0.2 88.75 0.6 89.95 1.45 91.2 0.05 92.85 -1.3 94.55 -0.35 96.15 0.65 97.75 -0.15 99.55 L-1.1 102.3 Q-1.2 103.25 -0.6 105.25 0.0 107.25 0.0 108.4 L0.1 111.7 Q0.25 113.85 0.7 115.25 1.2 116.65 1.05 118.25 L1.0 120.75 Q1.1 121.6 -0.05 123.4 -1.2 125.25 -0.2 126.1 0.8 126.95 -0.1 129.05 -0.95 131.15 0.15 132.55 1.25 133.95 0.6 134.75 0.0 135.6 0.0 137.45 0.05 139.35 0.55 140.7 1.05 142.05 -0.15 144.15 -1.35 146.25 -0.35 146.75 0.65 147.25 -0.45 148.85 -1.5 150.45 -0.45 152.35 0.65 154.3 0.7 156.05 0.75 157.85 0.25 159.75 -0.25 161.65 0.5 163.1 1.25 164.55 0.6 164.9 0.0 165.3 -0.7 167.1 -1.35 168.9 -0.7 170.05 0.0 171.25 0.0 172.55 L2.9 172.4 6.35 173.0 Q8.9 173.7 9.85 173.05 10.85 172.45 11.95 172.7 L14.7 173.15 Q16.3 173.4 17.9 172.25 19.55 171.1 20.8 171.2 L23.65 171.65 27.25 172.2 30.4 172.5 33.0 172.55 35.25 172.5 38.1 172.05 Q40.2 171.6 42.3 172.1 L46.1 172.8 Q47.8 173.0 48.65 172.1 49.5 171.25 50.9 172.55 52.35 173.85 53.55 173.85 L57.05 173.2 60.45 172.9 63.05 172.7 Q64.5 172.2 66.35 173.1 L69.45 173.2 Q70.7 172.4 71.95 172.5 L74.7 172.6 77.7 172.55 80.65 172.5 83.9 172.5 Q85.65 172.55 87.05 172.0 88.45 171.5 89.4 172.0 90.35 172.55 91.95 172.6 L95.8 172.7 99.3 172.6 101.75 172.85 104.7 172.7 108.0 172.55 111.55 173.25 Q113.55 173.6 114.6 172.8 115.65 172.05 117.0 172.15 L120.2 172.5 123.3 172.25 125.4 171.85 Q126.2 171.95 127.7 172.85 129.25 173.75 130.95 173.55 L134.55 173.15 138.0 172.55 141.45 172.65 144.35 172.95 147.55 171.95 Q149.85 171.2 150.9 171.15 151.95 171.1 152.85 171.65 L155.6 171.8 Q157.45 171.4 158.55 172.45 L161.55 172.55 Q163.5 171.55 165.1 172.05 L168.7 172.55 Q170.7 172.6 171.55 172.0 172.45 171.45 173.8 171.55 L177.0 172.05 180.25 171.8 Q181.65 171.2 183.05 171.4 184.5 171.6 185.85 172.3 L188.2 172.45 Q189.2 171.9 191.3 171.55 L195.65 171.75 Q197.9 172.3 199.05 173.1 L201.45 173.2 204.05 173.15 207.4 173.05 210.45 172.05 Q211.5 171.85 212.75 172.05 L215.85 172.15 Q217.65 172.0 219.1 172.55 L222.05 172.6 224.95 172.35 227.95 173.05 Q229.5 173.5 231.0 172.65 232.5 171.8 233.4 172.1 L236.4 172.45 240.0 172.45 243.0 172.35 245.35 172.15 248.35 172.2 252.2 172.15 Q253.95 172.05 254.5 172.6 L257.3 172.85 261.5 172.45 265.05 172.8 Q266.55 173.25 267.35 172.15 268.15 171.05 269.1 172.45 270.1 173.85 272.3 172.75 274.5 171.65 276.5 172.05 L279.4 172.55 281.75 172.4 285.05 172.15 288.25 172.35 290.95 172.55 293.95 172.15 297.05 172.05 300.65 171.9 Q302.8 171.45 303.6 172.2 304.4 172.95 305.95 172.8 307.55 172.65 309.05 172.0 L312.25 171.85 315.65 172.45 Q317.45 172.55 319.05 171.85 320.7 171.2 321.6 171.15 L324.45 171.7 327.1 172.3 329.65 172.25 333.0 172.5 335.8 172.9 338.35 172.6 341.1 172.1 344.55 171.75 348.15 171.55 Q349.8 171.65 351.5 172.8 353.2 174.0 354.2 173.25 355.2 172.55 356.3 172.55 L359.4 172.2 362.95 172.5 Q364.6 173.15 366.7 173.1 L369.65 173.3 371.45 173.05 Q372.4 172.55 374.45 172.5 L378.0 172.5 Q379.5 172.55 380.65 171.95 381.8 171.35 383.1 172.3 384.4 173.3 386.5 172.75 L390.15 172.4 Q391.75 172.55 393.15 173.25 L396.0 173.2 Q397.5 172.4 399.05 172.45 L401.5 172.4 Q402.45 172.3 404.25 173.0 L407.75 172.8 410.45 171.6 Q411.45 171.3 413.45 172.45 415.5 173.65 416.9 173.15 L419.9 172.75 423.45 172.35 427.15 172.25 429.55 172.55 431.8 172.7 435.55 172.7 438.65 172.55 440.8 172.95 444.3 173.1 Q446.5 172.85 446.85 172.2 447.25 171.55 449.25 171.95 L452.8 172.35 455.2 172.45 457.6 172.55 Q457.85 171.05 457.55 169.1 457.3 167.2 457.55 165.9 457.85 164.6 457.65 164.0 L457.3 161.25 Q457.2 159.05 457.45 158.0 457.7 156.95 457.25 154.95 456.8 152.95 457.0 151.45 L457.2 148.1 Q457.2 146.3 457.8 145.85 458.4 145.4 457.4 143.2 456.45 141.05 457.05 139.55 457.65 138.05 457.65 135.95 457.7 133.9 457.9 132.95 L458.1 131.05 457.85 128.05 457.45 124.5 457.2 121.0 457.05 118.05 Q457.0 117.05 457.3 115.6 L458.0 112.9 Q458.45 111.7 457.85 109.1 457.3 106.55 457.85 106.25 458.45 105.95 458.5 103.95 458.6 102.0 458.1 100.95 L456.9 98.05 Q456.25 96.2 456.55 94.4 L457.25 91.65 Q457.6 90.65 457.6 88.95 457.6 87.25 458.1 85.35 458.6 83.5 458.1 82.25 457.65 81.05 457.8 79.45 458.0 77.85 457.6 76.45 L456.85 73.75 Q456.55 72.45 457.05 70.8 457.6 69.2 457.6 67.65 L457.55 65.25 457.95 61.65 458.6 57.4 Q458.8 55.9 458.25 54.55 L457.25 52.0 Q456.8 50.75 457.15 49.5 L457.8 46.85 Q458.15 45.5 457.85 44.3 457.6 43.1 457.6 41.2 L457.55 38.15 Q457.55 36.95 458.15 35.0 458.8 33.05 458.2 31.6 457.6 30.15 458.0 28.9 458.4 27.7 458.05 25.35 L457.45 22.05 Q457.25 21.1 457.4 19.9 L457.9 17.45 Q458.25 16.15 457.95 14.15 457.65 12.2 457.65 10.9 457.65 9.65 457.1 8.45 456.6 7.3 457.3 4.7 458.0 2.15 458.2 2.55 L457.6 0.0 454.6 -0.55 Q451.7 -1.1 451.1 0.05 450.55 1.2 448.25 1.0 446.0 0.85 445.25 -0.15 444.5 -1.15 442.85 -0.4 441.2 0.35 439.25 0.1 L436.25 0.05 Q435.2 0.3 433.45 -0.55 431.7 -1.35 430.25 -0.35 428.8 0.65 427.0 1.05 425.2 1.45 423.5 0.45 421.8 -0.5 421.4 -0.25 L419.1 0.05 415.55 -0.3 412.15 -0.95 Q410.45 -1.2 410.0 -0.55 409.6 0.1 407.1 0.45 404.6 0.85 403.2 0.4 L400.5 -0.05 Q399.15 -0.05 398.3 -0.7 L395.25 -0.65 Q393.1 0.05 391.75 0.0 L388.8 -0.05 385.5 -0.05 382.6 0.0 379.55 -0.05 376.65 -0.3 373.8 -0.3 370.5 0.05 368.2 -0.05 364.65 -0.15 361.25 0.15 358.45 0.55 354.5 0.3 352.0 0.25 349.6 0.4 346.7 0.7 Q345.35 1.35 344.3 1.25 L341.65 1.25 Q340.05 1.4 338.6 0.75 337.2 0.1 334.55 0.4 331.9 0.75 331.4 0.1 L328.5 0.05 325.75 0.55 323.2 -0.25 319.6 -0.55 317.15 -0.3 313.45 0.15 Q310.75 0.75 310.25 -0.25 309.75 -1.25 307.15 -1.15 L304.15 -0.65 Q303.75 -0.2 302.3 0.05 L298.85 0.75 296.1 1.1 293.2 -0.1 Q291.1 -1.2 288.9 -0.9 L285.9 -0.2 283.25 0.1 Q281.45 0.0 279.95 0.55 278.45 1.15 277.4 -0.1 276.35 -1.3 274.6 -0.6 272.85 0.1 271.45 -0.05 L268.7 -0.1 266.25 0.0 263.15 0.0 259.2 0.15 256.7 0.1 254.1 0.6 Q252.1 1.3 250.6 0.0 249.1 -1.3 247.8 0.0 246.55 1.3 244.25 -0.05 242.0 -1.4 241.35 -0.7 240.75 0.0 239.45 -0.05 L236.15 0.35 232.65 0.45 229.4 -0.1 Q227.65 -0.3 226.45 -0.75 L223.5 -0.8 220.6 -0.55 217.7 -0.7 214.55 -0.6 211.65 -0.25 208.3 0.0 206.0 -0.2 Q205.5 -0.4 203.2 -0.2 L199.0 -0.05 196.15 -0.05 193.65 0.35 Q192.1 0.8 190.65 0.35 L187.75 -0.2 184.65 0.2 181.6 0.35 Q180.25 0.0 178.05 0.3 175.85 0.6 174.75 -0.2 L172.3 -0.35 Q171.0 0.3 169.3 0.2 L167.05 0.05 164.3 -0.6 Q162.1 -1.2 160.6 -0.6 159.1 0.0 157.4 0.0 L154.4 -0.1 152.0 -0.3 148.85 -0.35 146.2 0.0 143.4 0.25 139.7 0.15 136.6 0.15 133.9 0.6 130.9 0.7 127.55 0.2 124.9 0.1 121.85 0.05 118.6 -0.45 Q117.25 -0.85 116.05 0.1 114.85 1.05 112.95 0.45 L109.2 -0.05 Q107.35 0.0 105.85 -0.55 L103.15 -1.25 Q102.0 -1.4 100.55 -0.05 99.1 1.3 97.85 0.7 96.6 0.15 95.55 0.25 L92.05 0.1 88.2 -0.1 85.8 0.4 83.6 0.25 Q82.4 -0.35 80.5 0.25 L77.25 0.35 74.35 -0.1 71.05 0.2 Q69.25 0.4 68.3 -0.4 67.4 -1.2 64.75 -0.85 L60.85 -1.0 57.85 -0.85 54.95 0.1 52.35 0.05 48.95 -0.1 Q47.15 0.15 46.15 -0.45 L43.95 -0.35 Q42.75 0.35 41.05 0.75 L37.8 1.0 Q36.25 0.85 34.8 0.15 33.35 -0.55 31.5 -0.4 L28.25 -0.3 25.05 -0.15 22.75 0.1 20.7 0.1 Q19.05 0.0 17.05 0.7 15.1 1.45 14.3 0.7 13.5 0.0 11.55 0.0 L7.85 -0.05 4.7 -0.1 Z" fill="none" stroke="#fffef8" stroke-linecap="round" stroke-linejoin="round" stroke-width="3.0"/>
  </g>
</svg>
