<?xml version="1.0" encoding="UTF-8" standalone="no"?>
<svg xmlns:xlink="http://www.w3.org/1999/xlink" height="189.85px" width="100.45px" xmlns="http://www.w3.org/2000/svg">
  <g transform="matrix(1.0, 0.0, 0.0, 1.0, 50.25, 94.9)">
    <path d="M24.95 -66.25 L25.0 -66.25 Q30.65 -66.65 34.65 -79.3 38.9 -93.2 48.35 -93.65 L48.9 -93.45 49.15 -92.95 48.95 -92.4 Q48.75 -92.15 48.45 -92.15 40.0 -91.6 36.1 -78.85 31.65 -64.95 25.05 -64.75 18.35 -64.25 13.85 -75.6 9.6 -85.9 -11.0 -86.55 -31.65 -87.25 -39.6 -72.8 -47.6 -58.1 -42.75 -27.9 -35.9 9.5 -43.65 41.5 -51.35 73.05 -44.3 92.7 L-44.3 93.3 -44.75 93.65 -45.3 93.65 -45.7 93.2 Q-52.95 73.25 -45.1 41.15 -37.4 9.4 -44.25 -27.65 -49.15 -58.45 -40.9 -73.5 -32.6 -88.8 -10.95 -88.05 10.9 -87.4 15.25 -76.15 19.25 -66.05 24.95 -66.25" fill="#ffcc33" fill-rule="evenodd" stroke="none"/>
    <path d="M42.05 -92.1 L42.1 -92.25 42.2 -92.4 42.55 -92.75 43.1 -92.9 43.3 -93.05 44.4 -93.45 45.55 -93.8 45.65 -93.85 46.4 -94.0 47.25 -94.2 48.1 -94.2 48.5 -94.1 48.7 -93.9 48.9 -93.75 48.95 -93.6 49.0 -93.45 49.1 -93.3 49.15 -93.1 49.2 -92.95 49.25 -92.8 49.25 -92.65 49.2 -92.5 49.15 -92.35 49.05 -92.15 49.0 -92.0 48.75 -91.85 48.6 -91.75 48.3 -91.7 47.8 -91.7 47.7 -91.65 45.4 -91.55 44.8 -91.25 Q43.8 -90.75 42.95 -90.1 L42.2 -89.65 42.05 -89.45 41.9 -89.3 41.55 -89.0 41.25 -88.65 41.0 -88.5 40.8 -88.35 40.6 -88.2 40.4 -88.05 40.05 -87.95 39.65 -88.0 39.45 -87.8 39.2 -87.7 38.9 -87.8 38.8 -88.0 38.75 -88.15 38.8 -88.3 38.9 -88.45 39.05 -88.6 39.25 -88.8 39.25 -88.95 39.3 -89.1 39.45 -89.25 39.6 -89.4 39.75 -89.55 39.85 -89.7 40.35 -90.35 41.3 -91.3 41.85 -91.65 41.95 -91.8 42.05 -91.95 42.05 -92.1" fill="#663333" fill-opacity="0.2" fill-rule="evenodd" stroke="none"/>
    <path d="M49.8 -92.8 L49.5 -92.75 49.2 -92.65 48.95 -92.5 48.45 -92.2 47.75 -91.75 47.45 -91.7 47.05 -91.55 46.6 -91.45 46.4 -91.3 46.05 -91.1 45.5 -90.9 44.9 -90.4 43.65 -89.5 43.15 -89.15 42.05 -88.1 41.05 -87.25 40.4 -86.6 40.35 -86.45 40.25 -86.3 40.05 -85.95 39.7 -85.5 39.6 -85.35 39.55 -85.15 39.5 -85.0 39.45 -84.85 39.35 -84.55 39.3 -84.4 39.2 -84.2 39.05 -84.05 39.0 -83.9 38.95 -83.75 38.85 -83.6 38.8 -83.45 38.8 -83.25 38.75 -83.1 38.6 -82.8 38.35 -82.3 38.25 -82.15 38.15 -82.0 38.1 -81.85 38.05 -81.7 37.95 -81.35 37.9 -81.2 37.8 -81.05 37.75 -80.9 37.65 -80.7 37.45 -80.4 37.35 -80.25 37.2 -79.95 37.0 -79.3 36.9 -78.65 36.8 -78.35 36.7 -78.2 36.65 -78.0 36.6 -77.85 36.55 -77.7 36.45 -77.55 36.3 -77.25 36.15 -76.6 36.0 -75.95 35.95 -75.65 35.9 -75.5 35.8 -75.3 35.7 -75.15 35.65 -75.0 35.6 -74.85 35.55 -74.55 35.5 -74.05 35.4 -73.75 35.35 -73.6 35.25 -73.4 35.1 -73.3 35.0 -73.25 34.75 -73.2 34.35 -73.3 34.15 -73.45 34.05 -73.6 34.0 -73.8 34.0 -73.95 34.0 -74.25 34.05 -74.75 34.1 -75.05 34.05 -75.2 34.0 -75.35 33.95 -75.55 33.95 -75.7 33.95 -75.85 33.95 -76.0 33.95 -76.15 34.0 -76.35 34.05 -76.5 34.1 -76.8 34.2 -77.3 34.25 -77.45 34.25 -77.6 34.25 -77.75 34.3 -77.9 34.35 -78.1 34.4 -78.25 34.5 -78.55 34.55 -78.7 34.7 -78.85 34.7 -79.05 34.7 -79.2 34.75 -79.5 34.85 -80.0 34.95 -80.3 35.05 -80.45 35.1 -80.6 35.15 -80.8 35.2 -80.95 35.25 -81.1 35.3 -81.25 35.4 -81.4 35.5 -81.6 35.6 -81.75 35.75 -81.9 35.8 -82.05 35.9 -82.2 35.95 -82.35 35.95 -82.5 36.05 -82.85 36.15 -83.15 36.2 -83.3 36.3 -83.5 36.45 -83.65 36.6 -83.8 36.6 -83.95 36.65 -84.1 36.75 -84.3 36.8 -84.45 36.9 -84.6 36.95 -84.75 37.0 -84.9 37.05 -85.05 37.15 -85.25 37.25 -85.4 37.4 -85.55 37.45 -85.7 37.5 -85.85 37.65 -86.2 38.0 -86.8 38.45 -87.45 38.6 -87.75 39.6 -88.95 40.85 -90.05 41.9 -90.8 42.25 -90.95 42.9 -91.45 44.1 -92.4 44.45 -92.7 44.65 -92.8 44.75 -92.85 45.05 -92.9 45.4 -92.95 45.55 -93.1 45.7 -93.25 46.25 -93.35 47.9 -93.65 48.2 -93.8 48.5 -93.95 48.75 -94.1 48.9 -94.1 49.15 -94.15 49.15 -94.2 49.5 -94.1 49.85 -94.0 50.05 -93.85 50.15 -93.7 50.2 -93.55 50.2 -93.4 50.15 -93.25 50.1 -93.05 49.95 -92.9 49.8 -92.8" fill="#663333" fill-opacity="0.2" fill-rule="evenodd" stroke="none"/>
    <path d="M11.35 -81.3 L11.7 -81.2 11.9 -81.05 12.0 -80.9 12.2 -80.7 12.3 -80.55 12.35 -80.4 12.55 -80.25 13.05 -79.45 13.95 -78.3 14.45 -77.4 15.5 -76.15 16.25 -74.7 16.95 -73.4 17.0 -73.25 17.05 -73.1 17.15 -72.95 17.2 -72.8 17.25 -72.6 17.35 -72.45 17.5 -72.15 17.65 -71.8 17.85 -71.5 18.55 -70.7 Q18.95 -70.15 19.5 -69.75 L20.1 -69.1 20.35 -68.95 20.6 -68.8 20.75 -68.65 20.95 -68.5 21.05 -68.35 21.2 -68.15 21.35 -68.0 21.4 -67.85 21.5 -67.7 21.45 -67.55 21.45 -67.35 21.4 -67.2 21.25 -67.05 21.1 -66.95 21.0 -66.9 20.65 -66.85 20.25 -66.75 19.95 -66.8 19.4 -66.95 18.95 -67.1 18.7 -67.25 17.4 -68.6 16.1 -70.0 15.55 -70.75 15.5 -70.9 15.45 -71.1 15.4 -71.25 15.35 -71.4 15.25 -71.7 15.15 -71.9 15.05 -72.05 15.0 -72.2 14.95 -72.35 14.85 -72.5 14.8 -72.65 14.7 -72.85 14.65 -73.0 14.6 -73.15 14.55 -73.3 14.4 -73.6 14.15 -74.1 13.9 -74.55 13.8 -74.75 13.75 -74.9 13.7 -75.05 13.65 -75.2 13.55 -75.35 13.25 -75.7 12.95 -76.0 12.85 -76.15 12.8 -76.35 12.75 -76.5 12.4 -77.1 11.85 -78.05 11.35 -78.85 11.25 -79.05 11.2 -79.2 11.15 -79.35 11.1 -79.5 11.05 -79.65 10.95 -80.0 10.85 -80.15 10.75 -80.3 10.65 -80.45 10.55 -80.6 10.6 -80.75 10.7 -80.95 10.8 -81.1 10.95 -81.2 11.1 -81.25 11.35 -81.3" fill="#663333" fill-opacity="0.2" fill-rule="evenodd" stroke="none"/>
    <path d="M14.8 -74.45 L15.2 -74.35 15.55 -74.05 15.85 -73.6 16.1 -73.1 16.2 -72.95 16.2 -72.8 16.25 -72.6 Q16.45 -72.1 16.8 -71.7 L17.9 -70.4 18.5 -69.75 Q20.55 -68.25 22.75 -67.0 24.35 -66.05 26.25 -65.95 L26.45 -65.85 26.75 -65.75 26.9 -65.55 27.0 -65.4 27.05 -65.25 27.0 -65.1 26.95 -64.95 26.9 -64.8 26.75 -64.6 26.6 -64.45 26.5 -64.3 26.25 -64.15 25.5 -64.0 24.55 -63.9 22.6 -64.45 21.15 -65.25 Q19.3 -66.5 17.55 -67.9 16.4 -68.8 15.45 -70.0 L15.15 -70.5 15.05 -70.65 15.0 -70.8 14.9 -71.0 14.8 -71.15 14.7 -71.3 14.65 -71.45 14.55 -71.6 14.5 -71.75 14.5 -71.95 14.5 -72.1 14.45 -72.25 14.4 -72.4 14.35 -72.55 14.35 -72.7 14.25 -72.9 14.15 -73.05 14.15 -73.2 14.1 -73.35 14.1 -73.5 14.05 -73.7 14.05 -73.85 14.1 -74.0 14.2 -74.15 14.35 -74.3 14.55 -74.4 14.8 -74.45" fill="#663333" fill-opacity="0.2" fill-rule="evenodd" stroke="none"/>
    <path d="M-45.1 -40.85 L-45.0 -40.7 -44.95 -40.55 -44.9 -40.4 -44.8 -40.2 -44.7 -40.05 -44.7 -39.75 -44.7 -39.25 -44.65 -38.8 -44.65 -38.65 -44.45 -38.0 -44.3 -37.2 -44.15 -36.25 -44.05 -36.1 -43.95 -35.75 -43.8 -35.3 -43.65 -34.8 -43.55 -34.65 Q-42.3 -29.95 -41.55 -25.1 -40.75 -20.25 -40.75 -15.25 -40.75 -11.2 -39.9 -7.3 L-39.9 -6.7 -39.85 -5.9 -39.8 -5.1 -39.65 -4.6 -39.5 -3.95 -39.4 -3.35 -39.4 -3.2 -39.35 -3.05 -39.25 -2.7 -39.15 -2.4 -39.1 -2.05 -39.15 -1.75 -39.15 -1.3 -39.05 -0.8 -39.05 -0.5 -39.1 -0.3 -39.15 -0.15 -39.25 0.0 -39.45 0.15 -39.45 0.3 -39.45 0.45 -39.45 0.65 -39.5 0.8 -39.6 0.95 -39.65 1.05 -39.85 1.1 -40.1 1.0 -40.2 0.85 -40.2 0.7 -40.2 0.5 -40.2 0.35 -40.25 0.2 -40.35 0.05 -40.55 -0.1 -40.6 -0.25 -40.7 -0.6 -40.75 -0.9 -40.8 -1.2 -40.85 -1.4 -40.95 -1.55 -41.05 -1.85 -41.2 -2.35 -41.35 -2.8 -41.45 -2.95 Q-42.8 -7.65 -42.9 -12.5 -43.05 -17.45 -43.5 -22.35 -43.95 -27.4 -45.1 -32.4 L-45.1 -32.85 -45.25 -33.5 -45.45 -34.15 -45.45 -34.3 -45.45 -34.45 -45.75 -35.55 -45.9 -36.85 -46.15 -37.95 -46.15 -38.1 -46.15 -38.25 -46.15 -38.4 -46.1 -38.6 -46.05 -38.75 -46.05 -39.2 -46.0 -39.85 -46.05 -40.5 -46.05 -40.65 -46.0 -40.8 -45.9 -40.95 -45.7 -41.05 -45.5 -41.1 -45.25 -41.0 -45.1 -40.85" fill="#663333" fill-opacity="0.2" fill-rule="evenodd" stroke="none"/>
    <path d="M-41.3 -10.15 L-41.15 -10.05 -41.0 -9.85 -40.9 -9.7 -40.85 -9.55 -40.8 -9.4 -40.75 -9.2 -40.75 -9.05 -40.7 -8.9 -40.6 -8.75 -40.55 -8.6 -40.5 -8.45 -40.5 -8.25 -40.45 -8.1 -40.35 -7.95 -40.25 -7.8 -39.7 1.6 Q-39.35 6.55 -39.3 11.6 -39.25 15.35 -39.65 19.05 -39.9 21.4 -40.55 23.7 L-40.55 23.85 -40.55 24.15 -40.6 24.65 -40.65 25.1 -40.7 25.25 -40.75 25.4 -40.85 25.6 -40.85 25.75 -40.9 25.9 -40.95 26.2 -41.0 26.55 -41.1 26.85 -41.2 27.0 -41.35 27.15 -41.35 27.35 -41.4 27.5 -41.45 27.65 -41.5 27.8 -41.6 27.95 -41.85 28.1 -42.1 28.25 -42.4 28.1 -42.65 27.95 -42.75 27.8 -42.85 27.65 -42.85 27.5 -42.85 27.35 -42.85 27.2 -42.8 27.0 -42.85 26.85 -42.9 26.7 -42.9 25.9 -42.75 24.65 -42.65 23.2 -42.65 22.9 Q-41.45 18.3 -41.45 13.5 L-41.65 3.5 -41.9 -6.5 -41.9 -7.8 -41.95 -7.95 -42.0 -8.25 -42.1 -8.75 -42.2 -9.25 -42.25 -9.4 -42.3 -9.55 -42.4 -9.7 -42.5 -9.9 -42.55 -10.0 -42.5 -10.15 -42.4 -10.35 -42.15 -10.4 -42.1 -10.45 -41.75 -10.45 -41.45 -10.35 -41.3 -10.15" fill="#663333" fill-opacity="0.2" fill-rule="evenodd" stroke="none"/>
    <path d="M-48.75 78.15 L-48.45 78.25 -48.25 78.4 -48.25 78.55 -48.3 78.7 -48.45 78.85 -48.45 79.05 -48.4 79.2 -48.4 79.35 -48.35 79.65 -48.35 79.8 -48.3 80.0 -48.25 80.15 -48.2 80.3 -48.15 80.45 -48.1 80.6 -48.0 80.75 -47.9 81.1 -47.8 81.55 -47.7 82.05 -47.6 82.35 -47.45 82.5 -47.4 82.7 -47.35 82.85 -47.3 83.0 -47.2 83.15 -47.15 83.3 -47.1 83.5 -47.05 83.65 -46.95 83.8 -46.9 83.95 -46.8 84.1 -46.75 84.25 -46.7 84.45 -46.55 84.75 -46.45 85.05 -46.4 85.25 -46.3 85.4 -46.25 85.55 -46.2 85.7 -46.1 85.85 -46.0 86.2 -45.8 86.65 -45.65 87.15 -45.55 87.45 -45.45 87.6 -45.4 87.75 -45.3 87.95 -45.15 88.25 -45.1 88.4 -45.05 88.55 -45.0 88.7 -44.95 88.9 -44.8 89.05 -44.75 89.2 -44.65 89.35 -44.55 89.5 -44.5 89.7 -44.45 89.85 -44.45 90.0 -44.35 90.15 -44.3 90.3 -44.25 90.45 -44.25 90.65 -44.25 90.8 -44.15 90.95 -44.1 91.1 -44.05 91.25 -43.9 91.4 -43.85 91.6 -43.85 91.75 -43.8 91.9 -43.75 92.05 -43.7 92.2 -43.6 92.4 -43.55 92.55 -43.55 92.7 -43.55 93.0 -43.55 93.35 -43.55 93.5 -43.6 93.65 -43.7 93.8 -43.75 93.95 -43.85 94.15 -44.15 94.3 -44.35 94.4 -44.65 94.45 -45.15 94.35 -45.4 94.2 -45.55 94.0 -45.65 93.85 -45.7 93.7 -45.75 93.55 -45.8 93.4 -45.8 93.25 -45.9 93.05 -46.0 92.9 -46.05 92.75 -46.05 92.6 -46.05 92.45 -46.1 92.25 -46.15 92.1 -46.2 91.95 -46.3 91.8 -46.4 91.65 -46.45 91.5 -46.45 91.3 -46.45 91.15 -46.55 91.0 -46.6 90.85 -46.6 90.7 -46.6 90.5 -46.6 90.35 -46.65 90.2 -46.7 90.05 -46.8 89.9 -46.9 89.75 -46.95 89.55 -47.0 89.4 -47.1 89.25 -47.15 89.1 -47.2 88.95 -47.25 88.75 -47.25 88.6 -47.3 88.45 -47.4 88.3 -47.55 88.0 -47.7 87.5 -47.85 87.05 -47.9 86.85 -48.0 86.7 -48.45 85.3 -48.95 83.5 -49.4 82.25 -49.4 82.1 -49.4 81.95 -49.45 81.6 -49.55 81.15 -49.6 80.5 -49.65 80.2 -49.65 80.05 -49.6 79.85 -49.55 79.7 -49.55 79.55 -49.55 79.4 -49.5 79.1 -49.5 78.75 -49.5 78.6 -49.4 78.45 -49.3 78.3 -49.2 78.2 -49.15 78.15 -48.95 78.1 -48.95 78.05 -48.75 78.15" fill="#663333" fill-opacity="0.2" fill-rule="evenodd" stroke="none"/>
    <path d="M-46.7 89.35 L-46.45 89.25 -46.2 89.25 -46.2 89.2 -45.85 89.3 -45.6 89.45 -45.45 89.6 -45.2 89.8 -45.0 89.95 -44.8 90.1 -44.75 90.25 -44.7 90.4 -44.6 90.6 -44.55 90.7 -44.35 90.9 -44.2 91.05 -44.1 91.2 -44.05 91.35 -44.0 91.55 -44.0 91.7 -43.9 91.85 -43.8 92.0 -43.65 92.15 -43.55 92.3 -43.5 92.5 -43.45 92.65 -43.4 92.8 -43.35 92.95 -43.35 93.1 -43.3 93.45 -43.3 93.6 -43.35 93.75 -43.4 93.9 -43.45 94.05 -43.55 94.25 -43.75 94.4 -44.0 94.5 -44.3 94.55 -44.7 94.45 -45.0 94.3 -45.15 94.1 -45.25 93.95 -45.3 93.8 -45.35 93.65 -45.45 93.5 -45.5 93.35 -45.5 93.15 -45.5 93.0 -45.6 92.85 -45.7 92.7 -45.8 92.55 -45.85 92.4 -45.85 92.2 -45.9 92.05 -45.95 91.9 -46.1 91.75 -46.2 91.6 -46.25 91.4 -46.25 91.25 -46.25 91.1 -46.35 90.95 -46.6 90.65 -46.7 90.45 -46.9 90.15 -46.95 90.0 -46.95 89.85 -46.9 89.7 -46.85 89.5 -46.7 89.35" fill="#663333" fill-opacity="0.2" fill-rule="evenodd" stroke="none"/>
    <path d="M-3.35 -88.2 L-3.35 -88.05 -3.35 -87.9 -3.45 -87.75 -3.7 -87.6 -4.05 -87.5 -4.7 -87.4 -5.3 -87.35 -5.55 -87.3 -5.85 -87.35 -16.45 -87.0 -21.35 -86.25 -22.1 -86.05 -22.35 -85.9 -22.6 -85.7 -22.75 -85.6 -22.85 -85.6 -23.2 -85.5 -23.9 -85.4 -24.9 -85.15 -26.05 -84.85 -26.3 -84.65 -26.45 -84.55 -26.65 -84.5 -27.0 -84.4 -27.2 -84.25 -27.3 -84.15 -27.5 -84.1 -27.85 -83.95 -28.15 -83.8 -28.55 -83.65 -29.7 -83.0 -29.9 -82.85 -30.2 -82.7 -31.35 -81.95 -32.6 -80.8 -33.7 -79.55 -34.3 -78.9 -34.45 -78.75 -34.65 -78.6 -34.85 -78.4 -34.95 -78.25 -35.15 -78.1 -35.4 -77.95 -35.7 -77.75 -35.9 -77.6 -36.35 -77.3 -36.7 -77.15 -36.95 -77.0 -37.35 -76.85 -37.55 -76.65 -37.7 -76.5 -37.85 -76.35 -38.05 -76.2 -38.4 -75.85 -38.45 -75.7 -38.55 -75.55 -38.65 -75.4 -38.75 -75.25 -39.25 -74.6 -39.5 -74.3 -39.75 -73.95 -40.0 -73.65 -40.05 -73.5 -40.1 -73.35 -40.15 -73.15 -40.2 -73.0 -40.3 -72.7 -40.4 -72.55 -40.5 -72.35 -40.6 -72.25 -41.0 -71.6 -41.3 -71.1 -41.75 -70.5 -42.25 -69.7 -42.55 -69.2 -42.6 -69.05 -42.65 -68.9 -42.7 -68.7 -42.75 -68.55 -42.8 -68.4 -42.9 -68.25 -43.0 -68.1 -43.05 -67.9 -43.1 -67.75 -43.1 -67.6 -43.1 -67.45 -43.15 -67.3 -43.2 -67.15 -43.25 -66.95 -43.4 -66.8 -43.55 -66.65 -43.9 -66.5 -43.95 -66.35 -43.95 -66.2 -43.95 -66.0 -44.0 -65.85 -44.1 -65.8 -44.2 -65.85 -44.2 -66.0 -44.2 -66.2 -44.15 -66.35 -44.15 -66.5 -44.3 -66.65 -44.5 -66.8 -44.6 -66.95 -44.65 -67.15 -44.65 -67.3 -44.65 -67.45 -44.65 -67.6 -44.6 -67.75 -44.6 -67.9 -44.6 -68.1 -44.65 -68.25 -44.7 -68.4 -44.75 -68.55 -44.75 -68.7 -44.75 -68.9 -44.7 -69.05 -44.7 -69.2 -44.65 -69.35 -44.55 -69.5 -44.5 -69.65 -44.45 -69.85 -44.4 -70.0 -44.4 -70.15 -44.4 -70.3 -44.3 -70.45 -44.25 -70.65 -44.15 -70.8 -44.05 -70.95 -43.9 -71.25 -43.8 -71.4 -43.75 -71.6 -43.7 -71.75 -43.6 -71.9 -43.5 -72.05 -43.35 -72.2 -43.25 -72.4 -42.95 -72.85 -42.8 -73.15 -42.7 -73.35 -42.6 -73.5 -42.45 -73.65 -42.4 -73.8 -42.35 -73.95 -42.3 -74.1 -42.25 -74.3 -42.15 -74.6 -42.1 -74.75 -42.0 -74.9 -41.9 -75.05 -41.75 -75.25 -41.6 -75.4 -41.2 -75.9 -41.0 -76.2 -40.9 -76.35 -40.75 -76.5 -40.65 -76.65 -40.55 -76.85 -40.45 -77.0 -40.35 -77.15 -39.75 -77.8 -39.4 -78.1 -39.1 -78.4 -38.9 -78.55 -38.6 -78.75 -38.35 -78.9 -38.05 -79.05 -37.75 -79.2 -37.5 -79.35 -37.35 -79.5 -37.1 -79.7 -36.85 -79.8 -36.55 -79.9 -36.4 -80.05 -36.2 -80.2 -35.15 -81.4 -33.7 -82.95 -32.25 -84.05 -32.05 -84.2 -31.8 -84.35 Q-31.7 -84.45 -31.55 -84.5 L-29.6 -85.6 -29.4 -85.8 -29.0 -85.95 -28.7 -86.1 -28.15 -86.25 -27.95 -86.4 -27.7 -86.5 -27.4 -86.6 -27.05 -86.7 -26.5 -86.85 -24.75 -87.3 -23.4 -87.65 -23.15 -87.8 -22.9 -87.9 -22.8 -87.95 -22.6 -88.0 -22.4 -88.05 -20.9 -88.4 -18.5 -88.9 -15.35 -89.2 -11.75 -89.15 -7.45 -89.0 -3.7 -88.55 -3.45 -88.35 -3.35 -88.2" fill="#ffff99" fill-opacity="0.2" fill-rule="evenodd" stroke="none"/>
    <path d="M-36.65 -79.95 L-35.95 -80.5 -35.15 -81.2 -35.1 -81.4 -35.0 -81.55 -34.9 -81.7 -34.65 -82.0 -34.45 -82.2 -34.15 -82.35 -33.9 -82.5 -33.7 -82.65 -33.3 -82.8 -32.9 -83.0 -32.2 -83.45 -31.9 -83.75 -28.55 -85.55 -26.6 -86.65 -22.6 -88.15 -22.15 -88.25 -21.3 -88.25 -19.95 -88.2 -19.6 -88.1 -19.35 -87.95 -19.25 -87.8 -19.15 -87.65 -19.1 -87.45 -19.1 -87.3 -19.15 -87.15 -19.2 -87.0 -19.35 -86.85 -19.5 -86.7 -19.65 -86.55 -19.95 -86.55 -21.3 -86.45 -22.3 -86.35 -25.65 -84.85 -27.5 -83.85 -30.05 -82.4 -30.6 -82.05 -30.75 -81.9 -30.95 -81.75 -31.35 -81.45 -32.2 -80.95 -32.4 -80.8 -32.6 -80.65 -32.85 -80.5 -33.1 -80.3 -33.2 -80.15 -33.25 -80.0 -33.5 -79.7 -34.3 -79.05 -34.45 -78.9 -34.55 -78.75 -34.7 -78.55 -34.85 -78.4 -35.1 -78.25 -35.3 -78.1 -35.6 -77.75 -36.05 -77.15 -36.15 -77.0 -36.45 -76.8 -36.65 -76.65 -36.7 -76.5 -36.85 -76.35 -37.6 -75.4 -38.3 -74.45 -38.4 -74.3 -38.65 -73.95 -38.75 -73.8 -38.8 -73.65 -38.85 -73.5 -38.95 -73.35 -39.05 -73.15 -39.1 -73.0 -39.15 -72.85 -39.2 -72.7 -39.3 -72.55 -39.4 -72.4 -39.55 -72.2 -39.65 -72.05 -39.75 -71.9 -39.8 -71.75 -39.9 -71.6 -40.0 -71.4 -40.1 -71.25 -40.1 -71.1 -40.1 -70.95 -40.15 -70.8 -40.2 -70.65 -40.3 -70.45 -40.4 -70.3 -40.7 -70.0 -40.85 -69.85 -40.9 -69.7 -41.0 -69.5 -41.15 -69.2 -41.65 -68.55 -41.85 -68.4 -41.95 -68.25 -42.0 -68.1 -42.15 -67.75 -42.6 -67.15 -42.8 -66.8 -42.85 -66.65 -42.9 -66.5 -43.0 -66.35 -43.05 -66.2 -43.1 -66.0 -43.25 -65.55 -43.4 -64.75 -43.55 -64.25 -43.55 -64.1 -43.55 -63.95 -43.55 -63.45 -43.5 -62.7 -43.55 -62.2 -43.6 -62.05 -43.7 -61.9 -43.75 -61.7 -43.75 -61.55 -43.75 -61.1 -43.75 -60.3 -43.75 -59.8 -43.75 -59.65 -43.8 -59.5 -43.9 -59.35 -44.0 -59.2 -44.15 -59.0 -44.35 -58.85 -44.35 -58.7 -44.35 -58.55 -44.35 -58.4 -44.35 -58.05 -44.35 -57.6 -44.4 -57.45 -44.45 -57.3 -44.55 -57.2 -44.75 -57.1 -45.0 -57.2 -45.2 -57.4 -45.2 -57.55 -45.2 -57.7 -45.2 -57.85 -45.2 -58.2 -45.2 -58.5 -45.2 -58.65 -45.2 -58.8 -45.3 -58.95 -45.5 -59.15 -45.6 -59.3 -45.7 -59.45 -45.75 -59.6 -45.75 -59.75 -45.75 -60.1 -45.75 -60.7 -45.75 -61.35 -45.75 -61.5 -45.8 -61.65 -45.85 -61.85 -45.9 -62.0 -45.95 -62.15 -45.95 -62.3 -45.95 -62.95 -45.95 -63.9 -46.0 -64.2 -46.0 -64.4 -46.0 -64.55 -46.0 -64.85 -45.95 -65.0 -45.95 -65.15 -45.85 -65.5 -45.7 -66.1 -45.6 -66.75 -45.5 -66.9 -45.45 -67.1 -45.4 -67.25 -45.35 -67.4 -45.3 -67.55 -45.2 -67.85 -45.05 -68.05 -44.95 -68.2 -44.85 -68.35 -44.65 -68.65 -44.35 -69.15 -44.25 -69.3 -44.2 -69.45 -44.15 -69.65 -44.05 -69.75 -43.95 -69.95 -43.65 -70.25 -43.45 -70.4 -43.3 -70.55 -43.2 -70.75 -43.15 -70.9 -43.1 -71.05 -43.0 -71.2 -42.9 -71.35 -42.8 -71.55 -42.7 -71.7 -42.65 -71.85 -42.6 -72.0 -42.6 -72.15 -42.5 -72.3 -42.4 -72.45 -42.25 -72.65 -42.1 -72.8 -42.05 -72.95 -42.0 -73.1 -42.0 -73.25 -41.95 -73.45 -41.85 -73.6 -41.75 -73.75 -41.65 -73.9 -41.35 -74.05 -41.25 -74.25 -41.15 -74.4 -41.15 -74.55 -41.1 -74.7 -41.05 -74.85 -40.95 -75.05 -40.65 -75.5 -40.2 -76.1 -39.95 -76.45 -39.65 -76.6 -39.5 -76.8 -39.4 -76.95 -38.85 -77.8 -37.95 -78.7 -37.8 -78.85 -37.65 -79.0 -37.6 -79.15 -37.5 -79.3 -37.4 -79.45 -37.25 -79.65 -36.9 -79.8 -36.65 -79.95" fill="#ffff99" fill-opacity="0.2" fill-rule="evenodd" stroke="none"/>
    <path d="M-42.05 36.55 L-42.0 36.7 -42.0 36.85 -42.0 37.0 -42.05 37.2 -42.1 37.35 -42.2 37.65 -42.3 37.8 -42.55 38.75 -42.85 39.9 -43.1 40.85 -43.3 42.6 -43.8 44.5 -44.05 45.9 -44.9 49.75 -45.8 53.7 -46.4 56.25 -46.6 58.35 -47.05 60.7 -47.4 62.45 -47.5 62.6 -47.55 62.9 -47.65 63.4 -47.7 63.9 -47.8 64.2 -47.8 64.35 -47.8 64.7 -47.8 65.15 -47.8 65.45 -47.9 65.6 -48.1 65.95 -48.35 66.25 -48.4 66.45 -48.45 66.6 -48.5 66.7 -48.55 66.75 -48.75 66.8 -49.05 66.7 -49.15 66.55 -49.15 66.35 -49.1 66.2 -49.1 66.05 -49.15 65.9 -49.2 65.75 -49.3 65.6 -49.3 65.4 -49.3 65.1 -49.3 64.6 -49.3 64.3 -49.35 64.15 -49.4 64.0 -49.35 63.5 -49.25 62.9 -49.25 62.25 -49.25 62.1 -48.1 55.9 -46.75 49.35 -45.9 45.55 -45.85 45.4 -45.75 45.25 -45.35 43.8 -45.0 42.2 -44.7 40.8 -44.6 40.65 -44.5 40.45 -44.35 39.7 -44.05 38.7 -43.75 37.75 -43.6 37.6 -43.5 37.45 -43.45 37.3 -43.4 37.15 -43.35 36.95 -43.25 36.8 -43.2 36.65 -43.2 36.5 -43.2 36.35 -43.1 36.15 -42.95 36.05 -42.9 36.05 -42.6 36.0 -42.6 35.95 -42.3 36.05 -42.15 36.25 -42.1 36.4 -42.05 36.55" fill="#ffff99" fill-opacity="0.2" fill-rule="evenodd" stroke="none"/>
    <path d="M-45.75 48.1 L-45.65 48.25 -45.55 48.4 -45.5 48.55 -45.55 49.05 -45.7 49.7 -45.8 50.3 -45.8 50.5 -45.85 50.8 -46.0 51.3 -46.1 51.75 -46.15 51.9 -46.15 52.05 -46.15 52.25 Q-46.85 55.15 -47.15 58.1 L-47.5 64.3 Q-47.55 66.1 -47.9 67.8 L-47.9 68.3 -47.9 68.9 -47.9 69.55 -47.95 69.7 -48.0 69.85 -48.05 70.05 -48.25 70.2 -48.25 70.35 -48.25 70.65 -48.25 71.0 -48.25 71.3 -48.3 71.4 -48.55 71.55 -48.8 71.45 -48.85 71.3 -48.85 71.0 -48.85 70.65 -48.85 70.35 -48.95 70.2 -49.05 70.05 -49.15 69.85 -49.2 69.4 -49.2 68.75 -49.2 68.1 -49.2 67.95 -49.25 67.8 -49.3 67.65 -48.95 62.55 -48.75 59.2 -48.1 54.15 -47.65 52.4 -47.1 50.5 -46.85 49.2 -46.8 49.05 -46.7 48.9 -46.65 48.75 -46.6 48.55 -46.55 48.4 -46.4 48.25 -46.25 48.1 -46.0 48.0 -45.75 48.1" fill="#ffff99" fill-opacity="0.2" fill-rule="evenodd" stroke="none"/>
    <path d="M-10.9 -89.3 L-10.85 -89.3 Q11.9 -88.6 16.3 -76.65 L16.3 -76.6 Q19.9 -67.55 24.8 -67.5 29.65 -68.1 33.3 -79.7 37.9 -94.6 48.1 -94.9 48.9 -94.95 49.55 -94.35 50.15 -93.8 50.2 -93.0 50.25 -92.2 49.7 -91.55 49.1 -90.95 48.3 -90.9 40.7 -90.2 37.1 -78.5 32.35 -63.5 25.05 -63.5 L25.0 -63.5 Q17.5 -62.75 12.65 -75.15 8.5 -84.7 -11.0 -85.3 -30.75 -86.0 -38.35 -72.2 -46.1 -57.75 -41.35 -28.15 L-41.35 -28.1 Q-34.45 9.55 -42.3 41.8 -49.85 72.9 -42.95 92.3 -42.7 93.05 -43.05 93.8 -43.4 94.55 -44.15 94.85 L-45.7 94.75 Q-46.45 94.4 -46.7 93.65 -54.05 73.4 -46.2 40.85 -38.55 9.35 -45.3 -27.45 -50.3 -58.8 -41.85 -74.1 -33.3 -90.05 -10.9 -89.3 M24.95 -66.25 Q19.25 -66.05 15.25 -76.15 10.9 -87.4 -10.95 -88.05 -32.6 -88.8 -40.9 -73.5 -49.15 -58.45 -44.25 -27.65 -37.4 9.4 -45.1 41.15 -52.95 73.25 -45.7 93.2 L-45.3 93.65 -44.75 93.65 -44.3 93.3 -44.3 92.7 Q-51.35 73.05 -43.65 41.5 -35.9 9.5 -42.75 -27.9 -47.6 -58.1 -39.6 -72.8 -31.65 -87.25 -11.0 -86.55 9.6 -85.9 13.85 -75.6 18.35 -64.25 25.05 -64.75 31.65 -64.95 36.1 -78.85 40.0 -91.6 48.45 -92.15 48.75 -92.15 48.95 -92.4 L49.15 -92.95 48.9 -93.45 48.35 -93.65 Q38.9 -93.2 34.65 -79.3 30.65 -66.65 25.0 -66.25 L24.95 -66.25" fill="#333333" fill-rule="evenodd" stroke="none"/>
  </g>
</svg>
