<?xml version="1.0" encoding="UTF-8" standalone="no"?>
<svg xmlns:xlink="http://www.w3.org/1999/xlink" height="45.3px" width="66.95px" xmlns="http://www.w3.org/2000/svg">
  <g transform="matrix(1.0, 0.0, 0.0, 1.0, 33.45, 22.65)">
    <path d="M11.7 1.3 L11.05 1.4 10.8 1.45 8.4 1.45 8.35 1.4 8.0 1.35 7.75 1.35 7.55 1.4 7.4 1.4 7.1 1.6 6.7 2.05 6.5 2.3 6.4 2.5 6.1 2.85 5.85 3.25 5.75 3.4 5.65 3.6 5.55 3.7 5.5 3.8 5.45 3.9 5.4 4.0 5.4 4.2 5.35 4.4 5.35 4.5 5.35 4.6 5.35 4.7 5.35 4.8 5.4 4.85 5.45 4.95 5.45 5.05 5.55 5.15 5.6 5.25 5.7 5.35 5.8 5.45 5.95 5.5 6.2 5.6 6.25 5.6 6.3 5.7 6.35 5.8 6.35 5.85 6.35 5.9 6.35 6.0 6.35 6.1 6.4 6.2 6.45 6.3 6.45 6.4 6.55 6.5 6.6 6.55 6.7 6.65 6.8 6.75 7.2 6.85 10.15 7.0 10.35 7.1 10.55 7.15 10.75 7.2 11.2 7.2 11.85 7.2 12.2 7.15 12.3 7.1 12.8 6.6 13.1 6.1 13.3 5.85 13.45 5.7 13.85 5.3 14.0 5.1 14.1 4.95 14.65 4.65 15.35 4.2 15.55 3.95 15.55 3.85 15.6 3.75 15.6 3.65 15.6 3.6 15.6 3.5 15.6 3.4 15.6 3.3 15.55 3.2 15.45 3.0 15.4 2.95 15.3 2.85 15.2 2.75 15.05 2.65 14.8 2.6 14.6 2.55 14.25 2.55 14.05 2.55 13.95 2.5 13.75 2.4 13.55 2.3 13.4 2.2 13.35 2.15 13.35 2.05 13.35 1.95 13.3 1.9 13.2 1.7 13.15 1.6 13.05 1.5 12.95 1.4 12.8 1.3 12.55 1.25 12.35 1.25 12.1 1.2 11.7 1.3 M-10.7 -7.55 L-10.75 -7.65 -10.8 -7.75 -10.85 -7.85 -10.95 -7.9 -11.2 -8.1 -11.45 -8.15 -11.65 -8.2 -11.8 -8.2 -11.95 -8.2 -12.15 -8.2 -12.3 -8.2 -12.55 -8.1 -12.7 -8.0 -12.8 -7.95 -12.95 -7.85 -13.15 -7.75 -13.3 -7.65 -13.4 -7.55 -13.5 -7.45 -13.6 -7.4 -13.7 -7.45 -13.8 -7.5 -13.95 -7.6 -14.4 -7.7 -14.9 -7.6 -15.4 -7.35 -15.6 -7.15 -16.0 -6.7 -16.25 -6.45 -16.55 -6.15 -16.75 -6.1 -17.15 -6.0 -17.6 -5.8 -17.7 -5.75 -17.8 -5.65 -17.85 -5.55 -17.9 -5.45 -17.95 -5.35 -17.95 -5.25 -18.0 -5.15 -18.0 -5.05 -18.0 -4.95 -18.0 -4.85 -18.0 -4.75 -18.0 -4.65 -17.95 -4.55 -17.95 -4.45 -17.9 -4.35 -17.85 -4.3 -17.8 -4.2 -17.7 -4.1 -17.6 -4.0 -17.4 -3.9 -17.15 -3.8 -17.05 -3.7 -16.9 -3.55 -16.8 -3.45 -16.65 -3.25 -16.5 -3.1 -16.5 -3.0 -16.45 -2.9 -16.45 -2.85 -16.4 -2.75 -16.35 -2.65 -16.35 -2.55 -16.3 -2.45 -16.25 -2.35 -16.25 -2.25 -16.25 -2.15 -16.2 -2.0 -16.15 -1.9 -16.15 -1.8 -16.1 -1.7 -16.1 -1.6 -16.05 -1.5 -16.05 -1.4 -15.95 -1.4 -15.9 -1.3 -15.8 -1.2 -15.7 -1.1 -15.55 -1.0 -15.3 -0.95 -15.15 -0.9 -14.95 -0.95 -14.7 -1.0 -14.45 -1.2 -14.35 -1.3 -14.3 -1.4 -14.25 -1.4 -14.15 -1.6 -14.15 -1.7 -14.15 -1.8 -14.15 -1.9 -14.05 -2.0 -13.9 -2.1 -13.7 -2.15 -13.45 -2.25 -13.3 -2.25 -13.2 -2.3 -13.1 -2.35 -12.9 -2.4 -12.7 -2.4 -12.6 -2.4 -12.55 -2.35 -12.2 -2.25 -11.75 -2.25 -11.4 -2.25 -11.35 -2.3 -11.2 -2.35 -11.1 -2.45 -11.0 -2.55 -10.95 -2.65 -10.9 -2.75 -10.85 -2.85 -10.8 -2.9 -10.8 -3.0 -10.75 -3.1 -10.75 -3.2 -10.7 -3.25 -10.65 -3.35 -10.6 -3.45 -10.55 -3.55 -10.55 -3.6 -10.55 -3.7 -10.45 -3.8 -10.4 -3.9 -10.35 -4.0 -10.3 -4.1 -10.25 -4.2 -10.15 -4.3 -10.1 -4.35 -10.05 -4.45 -10.05 -4.55 -10.05 -4.65 -10.0 -4.75 -10.0 -4.85 -10.0 -4.95 -10.05 -5.05 -10.1 -5.15 -10.15 -5.25 -10.2 -5.35 -10.3 -5.45 -10.4 -5.55 -10.55 -5.65 -10.7 -5.75 -10.8 -5.8 -10.95 -5.9 -11.0 -6.0 -11.05 -6.1 -10.95 -6.2 -10.95 -6.3 -10.9 -6.4 -10.85 -6.5 -10.8 -6.55 -10.75 -6.65 -10.7 -6.75 -10.65 -6.85 -10.65 -7.0 -10.65 -7.1 -10.65 -7.2 -10.65 -7.25 -10.65 -7.35 -10.65 -7.45 -10.7 -7.55 M-16.95 -19.9 L-16.9 -19.8 -16.7 -19.6 -16.55 -19.45 -16.15 -19.3 -15.7 -19.15 -15.35 -19.1 -14.95 -19.15 -14.65 -19.2 -14.4 -19.35 -14.1 -19.55 -13.9 -19.7 -13.8 -19.85 -13.65 -20.05 -13.55 -20.25 -13.45 -20.4 -13.4 -20.6 Q-8.6 -21.6 -3.75 -20.4 L-2.65 -20.05 -2.35 -20.25 -2.2 -20.1 -2.05 -19.9 -1.65 -19.75 -1.2 -19.6 -0.85 -19.55 -0.5 -19.6 -0.05 -19.75 0.25 -19.95 0.5 -20.1 0.7 -20.3 0.85 -20.5 2.3 -21.45 3.3 -21.95 3.8 -22.1 5.3 -22.2 5.4 -22.1 5.4 -22.05 5.4 -21.85 5.4 -21.7 5.45 -21.5 5.55 -21.35 5.6 -21.15 5.7 -21.0 5.85 -20.8 6.05 -20.6 6.2 -20.4 6.6 -20.25 7.05 -20.1 7.4 -20.05 7.8 -20.1 8.1 -20.15 8.2 -20.25 8.45 -20.35 8.7 -20.55 8.85 -20.7 Q16.55 -20.2 23.95 -18.15 L23.9 -18.1 23.8 -17.9 23.7 -17.7 23.65 -17.4 23.65 -17.2 23.65 -17.0 23.65 -16.85 23.65 -16.65 23.7 -16.45 23.75 -16.3 23.8 -16.1 23.9 -15.9 24.05 -15.75 24.2 -15.55 24.4 -15.4 24.6 -15.2 24.8 -15.0 24.95 -14.8 25.35 -14.65 25.8 -14.5 26.15 -14.45 26.45 -14.4 26.65 -14.25 26.95 -14.1 27.35 -13.95 27.65 -13.75 27.85 -13.55 27.95 -13.4 28.15 -13.2 28.35 -13.0 28.5 -12.8 28.65 -12.6 28.7 -12.45 28.8 -12.3 28.85 -12.1 28.95 -11.9 29.05 -11.75 29.1 -11.55 29.15 -11.35 29.15 -11.15 29.15 -11.0 29.2 -10.8 29.3 -10.6 29.35 -10.45 29.45 -10.3 29.55 -10.1 29.6 -9.9 29.7 -9.75 29.9 -9.55 30.1 -9.35 30.15 -9.3 29.9 -9.15 29.7 -8.95 29.55 -8.8 29.4 -8.65 29.3 -8.45 29.2 -8.25 29.2 -8.1 29.15 -7.9 29.15 -7.7 29.15 -7.5 29.15 -7.35 29.2 -7.15 29.3 -6.95 29.35 -6.8 29.45 -6.65 29.6 -6.45 29.8 -6.25 29.95 -6.05 31.45 -5.3 32.2 -4.85 Q33.5 0.5 30.7 6.35 30.25 7.3 29.35 7.9 24.9 15.65 16.2 19.5 12.15 21.2 7.45 21.1 -5.55 20.2 -18.3 17.7 L-20.65 17.15 -22.9 14.95 -25.25 15.35 -27.25 15.15 -28.1 13.95 -29.35 12.25 -29.95 11.1 -30.05 10.75 -30.1 10.55 -30.15 10.35 -30.2 10.15 -30.3 10.0 -30.35 9.8 -30.45 9.6 -30.6 9.3 -30.9 7.65 Q-30.9 6.75 -31.15 5.95 L-31.35 5.3 -31.35 5.15 -31.35 4.4 -31.35 3.85 -31.4 3.65 -31.15 3.05 -32.05 -1.35 Q-32.5 -4.55 -30.65 -7.15 -29.65 -7.55 -28.8 -8.15 L-27.4 -9.35 -27.45 -9.65 -27.35 -9.7 -26.6 -10.05 -26.4 -10.25 -26.3 -10.4 -26.15 -10.55 -26.05 -10.75 -25.95 -10.9 -25.9 -11.1 -25.85 -11.3 -25.85 -11.5 -25.85 -11.65 -25.9 -11.85 -25.95 -12.05 -25.95 -12.25 -26.1 -12.4 -26.3 -12.75 -26.5 -12.95 -26.75 -13.1 -27.05 -13.3 -27.1 -13.3 -27.15 -13.55 -27.15 -13.7 Q-26.1 -16.3 -22.35 -17.0 L-19.4 -17.65 -19.0 -18.55 -18.45 -19.15 -16.95 -19.9" fill="#aea551" fill-rule="evenodd" stroke="none"/>
    <path d="M-28.95 3.5 L-26.4 8.4 -24.05 8.9 -20.5 8.05 -17.6 11.85 -17.45 11.05 -17.15 10.3 -16.35 9.2 -14.9 8.15 -14.0 8.75 Q-11.0 10.75 -7.65 9.6 L-7.05 10.45 -6.55 11.15 -4.9 12.25 -3.9 12.65 -2.6 11.1 -2.8 10.5 4.1 9.15 Q5.5 10.25 7.05 10.85 L12.5 11.15 12.6 10.85 13.05 9.95 Q13.85 8.7 15.0 7.9 L16.1 7.2 19.6 7.25 19.6 6.6 16.85 3.3 17.6 1.1 21.85 -1.8 22.35 -5.45 21.85 -6.2 22.1 -7.2 22.45 -7.55 22.85 -7.85 23.45 -8.0 25.75 -7.85 24.55 -12.2 Q25.35 -12.55 26.1 -13.0 L27.35 -12.5 30.9 -4.9 Q31.45 -3.5 32.35 -2.3 L31.35 2.8 Q31.8 4.8 31.2 6.75 L29.6 11.3 Q18.05 19.95 3.6 22.25 L2.45 19.55 1.65 19.3 0.8 19.05 -3.15 19.1 -4.4 20.25 Q-7.15 22.35 -10.4 21.3 -11.4 18.95 -13.9 18.25 L-16.05 17.8 -20.4 17.15 -21.65 14.95 -24.3 14.75 Q-27.4 13.65 -29.4 11.1 L-28.95 3.5" fill="#663333" fill-opacity="0.2" fill-rule="evenodd" stroke="none"/>
    <path d="M-24.4 3.75 L-22.75 4.9 Q-19.15 7.2 -15.95 4.75 L-15.5 4.25 -15.0 4.15 -13.1 6.8 Q-12.55 7.55 -11.45 7.55 -8.9 7.5 -7.45 5.45 L-5.1 5.15 -3.9 3.85 Q-2.4 3.4 -1.2 2.4 0.2 1.4 0.7 -0.35 L0.8 -1.25 3.55 -1.45 5.0 -3.45 Q8.4 -2.55 11.65 -4.25 13.7 -5.25 14.45 -7.3 L16.9 -7.25 Q19.2 -8.55 18.65 -10.8 19.7 -11.0 20.45 -11.75 21.5 -12.85 20.6 -14.3 L19.4 -15.9 20.5 -16.65 Q25.5 -14.3 24.8 -9.35 24.7 -8.45 23.9 -8.05 28.5 -4.65 25.15 -0.05 28.05 2.8 27.8 6.65 21.45 15.2 10.35 15.7 L8.1 19.85 Q-6.15 21.25 -19.8 16.7 L-20.95 14.75 -26.65 11.3 Q-27.8 6.7 -24.4 3.75 M8.4 5.25 L8.9 5.6 10.6 5.5 12.65 2.55 14.15 2.1 9.6 2.1 8.4 5.25" fill="#663333" fill-opacity="0.2" fill-rule="evenodd" stroke="none"/>
    <path d="M-20.15 -9.35 L-19.4 -11.55 Q-15.9 -12.7 -11.9 -12.05 L-9.65 -11.3 -8.9 -9.85 -9.65 -8.4 -13.9 -7.15 -14.65 -3.5 -17.65 -1.35 -18.9 -0.85 -20.4 -1.35 -20.8 -2.15 Q-22.35 -6.1 -20.15 -9.35" fill="#663333" fill-opacity="0.2" fill-rule="evenodd" stroke="none"/>
    <path d="M-20.55 -3.45 L-20.6 -4.95 -18.3 -7.85 -15.9 -8.85 -14.8 -9.2 Q-14.9 -6.65 -17.45 -5.2 L-17.7 -4.1 -18.45 -3.8 -19.35 -3.15 -20.55 -3.45" fill="#663333" fill-opacity="0.2" fill-rule="evenodd" stroke="none"/>
    <path d="M2.3 5.0 L2.25 3.75 Q2.25 2.85 2.75 2.0 4.1 -0.45 6.55 0.85 L6.15 3.45 4.55 4.35 5.0 4.8 Q5.8 5.8 5.25 6.75 L4.2 6.95 3.6 5.9 2.3 5.0" fill="#663333" fill-opacity="0.2" fill-rule="evenodd" stroke="none"/>
    <path d="M13.9 -4.6 L14.1 -4.8 15.3 -4.75 Q15.75 -3.35 15.1 -2.3 13.95 -0.45 11.6 -0.25 L10.45 1.35 7.95 1.55 7.55 1.05 5.4 -0.1 4.9 0.2 2.9 -0.35 4.4 -0.9 5.65 -1.75 6.55 -1.4 6.95 -0.9 8.45 -0.3 9.6 -0.9 10.6 -2.55 13.15 -2.4 13.9 -4.6" fill="#663333" fill-opacity="0.2" fill-rule="evenodd" stroke="none"/>
    <path d="M-19.95 -2.45 Q-18.4 -2.45 -17.45 -1.3 L-14.4 -1.4 -11.85 -5.15 Q-13.45 -7.65 -11.95 -10.3 -10.8 -12.35 -8.3 -13.0 -3.65 -14.3 0.2 -11.75 L2.85 -13.85 5.3 -11.15 Q10.1 -14.3 15.1 -11.95 15.85 -11.55 15.9 -10.55 18.45 -9.65 20.3 -8.15 L24.4 -4.8 25.8 -3.0 Q28.1 1.85 24.45 5.35 23.25 6.5 21.6 7.0 20.5 11.65 16.15 13.65 13.25 14.95 10.1 13.95 3.3 17.3 -4.45 16.55 L-15.9 15.2 -17.65 13.1 Q-16.9 12.25 -17.3 11.2 -17.65 10.1 -18.75 9.95 L-19.15 9.65 -20.6 9.45 Q-20.15 6.9 -21.4 4.85 L-21.8 4.45 -22.6 4.25 -23.4 4.45 Q-24.4 1.65 -22.85 -1.1 -21.9 -2.8 -19.95 -2.45 M-5.1 -3.15 Q-5.75 -6.6 -9.3 -5.1 -10.2 -4.8 -10.6 -3.75 -10.9 -3.0 -10.85 -2.1 -14.25 -1.8 -14.05 1.35 -13.85 4.05 -10.65 3.85 L-9.2 3.55 Q-7.15 2.2 -7.35 -0.1 -5.2 -0.7 -5.1 -3.15 M8.55 5.85 L10.1 6.15 15.1 2.2 15.1 -0.45 7.6 -1.0 8.65 4.7 8.55 5.85 M-4.1 8.3 Q-4.55 8.3 -4.85 8.65 L-5.15 9.4 -4.85 10.15 -4.1 10.45 Q-3.65 10.45 -3.35 10.15 -3.05 9.8 -3.05 9.4 -3.05 8.95 -3.35 8.65 -3.65 8.3 -4.1 8.3 M8.7 11.0 Q10.8 11.9 12.65 10.95 13.3 10.7 13.5 10.05 16.15 9.85 17.0 7.4 17.25 6.65 16.65 6.0 15.05 4.55 13.2 5.95 12.55 6.45 12.1 7.35 9.4 6.0 8.15 8.5 7.75 9.25 8.05 10.05 L8.7 11.0" fill="#663333" fill-opacity="0.2" fill-rule="evenodd" stroke="none"/>
    <path d="M-17.85 -20.05 L-14.0 -18.25 -12.0 -21.05 -3.85 -21.05 Q-2.9 -20.8 -2.25 -20.05 -1.8 -20.05 -1.55 -20.3 0.75 -22.05 3.4 -21.65 L4.9 -19.65 Q7.95 -19.55 11.05 -19.75 13.4 -20.2 14.3 -18.7 L5.25 -17.55 4.75 -16.8 4.15 -16.55 3.15 -17.15 2.3 -18.9 -0.6 -16.9 -3.25 -16.9 -4.25 -17.85 Q-6.25 -17.7 -7.45 -16.65 -9.55 -14.8 -12.75 -15.1 L-16.35 -15.2 -17.5 -13.5 -20.45 -13.25 -24.0 -10.1 -25.75 -10.1 -26.35 -10.8 Q-26.8 -14.3 -24.0 -16.55 L-19.35 -16.65 -18.75 -19.8 -17.85 -20.05" fill="#ffffff" fill-opacity="0.2" fill-rule="evenodd" stroke="none"/>
    <path d="M-24.85 -9.85 L-24.25 -9.6 -24.05 -9.2 Q-23.7 -8.65 -24.15 -8.0 L-25.3 -7.1 -28.0 -3.25 -26.9 -1.7 -27.35 0.45 -28.4 0.9 Q-31.45 2.2 -33.35 -0.1 L-33.35 -1.95 Q-33.35 -3.25 -32.85 -4.05 -29.85 -8.5 -24.85 -9.85" fill="#ffffff" fill-opacity="0.2" fill-rule="evenodd" stroke="none"/>
    <path d="M-24.1 -15.6 L-23.35 -15.85 -21.25 -15.45 -21.0 -14.35 -23.6 -12.9 -20.35 -12.75 Q-18.6 -12.4 -17.85 -10.95 L-18.5 -9.6 Q-25.1 -8.25 -29.85 -3.65 L-30.75 -4.25 -30.65 -6.4 -26.0 -10.5 -26.1 -13.4 -24.1 -15.6" fill="#ffffff" fill-opacity="0.2" fill-rule="evenodd" stroke="none"/>
    <path d="M-20.8 -16.05 Q-23.15 -16.05 -24.85 -14.7 -25.75 -13.95 -25.85 -13.0 L-24.55 -12.0 -24.8 -11.7 Q-25.25 -11.45 -25.8 -11.3 L-27.2 -12.3 -27.25 -12.5 Q-27.45 -13.75 -26.7 -14.7 -25.9 -15.75 -24.6 -16.35 L-23.25 -16.7 -21.75 -17.05 -19.7 -17.2 Q-20.35 -17.7 -20.3 -18.55 -20.3 -19.5 -19.8 -20.2 L-19.55 -20.2 Q-17.35 -19.85 -15.6 -18.15 L-15.45 -17.7 Q-17.15 -18.85 -18.8 -19.1 L-19.2 -18.9 -19.3 -18.6 -19.1 -18.3 -17.75 -17.15 -17.65 -17.05 Q-17.5 -16.85 -17.65 -16.6 L-18.05 -16.6 Q-18.05 -16.2 -18.55 -16.1 L-20.8 -16.05 M15.3 16.75 L15.2 16.55 13.4 18.55 Q12.6 19.35 11.5 19.25 L14.35 19.5 Q15.0 19.35 15.45 18.95 L16.4 17.5 15.3 16.75 M12.1 1.6 L11.0 2.1 Q9.9 2.3 7.5 1.45 7.65 2.7 6.7 3.7 L5.85 4.35 6.65 5.2 7.05 5.75 7.35 6.65 Q8.9 5.5 11.95 7.05 11.95 6.55 12.1 6.15 L12.25 5.75 12.65 5.0 Q12.95 4.2 14.45 3.75 L14.55 3.7 12.65 2.2 12.55 2.05 12.1 1.6 M22.0 -11.2 L21.6 -11.7 21.75 -11.85 Q23.8 -11.35 25.25 -9.5 25.6 -8.5 25.45 -7.5 L25.0 -7.05 Q23.1 -6.45 20.95 -7.9 L20.9 -8.65 21.95 -8.6 24.2 -8.55 Q24.2 -9.7 23.3 -10.3 L22.0 -11.2 M28.5 -7.6 L29.55 -6.9 31.45 -5.15 Q32.2 -4.4 32.85 -2.7 33.5 -1.0 33.5 2.0 33.0 3.9 31.95 4.3 L31.15 4.55 31.25 5.75 31.25 6.2 Q31.3 8.1 30.7 9.8 30.2 11.25 29.2 12.25 27.95 12.9 26.75 12.95 26.95 13.5 26.7 14.05 24.75 17.9 20.35 18.15 L18.45 18.2 17.95 19.3 Q17.3 20.3 16.35 20.7 14.0 22.1 9.35 21.4 7.8 22.4 6.0 22.55 1.45 23.05 -2.85 20.75 L-2.95 20.7 -3.1 20.85 Q-3.45 21.3 -4.75 21.8 -6.05 22.25 -8.35 21.8 -9.25 21.75 -10.1 21.25 -11.5 20.6 -12.1 19.15 L-12.45 19.05 -12.85 19.65 Q-13.35 20.15 -14.0 20.25 -18.05 20.5 -20.35 19.2 -22.6 17.95 -23.55 15.55 L-24.95 15.2 Q-29.5 14.15 -30.85 9.6 L-31.05 8.8 -31.15 5.75 -30.8 3.05 -30.6 2.5 -30.8 2.45 Q-32.35 2.15 -33.4 0.9 -33.75 -2.2 -32.3 -5.0 -31.1 -7.3 -28.95 -8.85 L-27.05 -10.3 Q-26.0 -11.05 -24.65 -11.05 -24.3 -10.55 -24.85 -10.35 -29.45 -8.1 -31.5 -3.55 -32.25 -1.85 -32.05 0.1 L-31.6 0.6 Q-31.1 1.15 -30.15 1.25 -29.3 1.3 -29.05 1.9 L-29.3 2.2 -29.4 2.2 -29.3 2.25 -29.85 2.9 -30.0 3.3 Q-30.35 4.1 -30.3 4.95 L-30.2 5.75 -29.6 8.65 Q-28.6 12.2 -25.45 13.65 -23.85 14.45 -23.0 13.3 L-22.95 13.25 -23.8 12.45 -24.25 11.15 -24.1 10.6 -23.95 10.15 -23.3 11.3 Q-22.75 12.1 -22.0 11.9 -21.4 11.25 -20.5 7.75 L-20.15 10.6 -20.45 11.9 Q-20.8 13.1 -21.55 13.4 -21.35 13.9 -21.6 14.65 L-22.2 15.45 Q-18.75 18.7 -14.1 18.4 -16.15 17.25 -17.1 15.25 L-16.95 14.2 -16.45 13.8 -15.9 14.9 Q-15.3 15.8 -14.4 16.35 L-13.1 16.95 -9.9 17.1 -7.2 16.4 Q-6.5 16.1 -6.45 16.4 L-6.7 17.3 Q-8.2 18.85 -10.0 19.2 L-9.95 19.3 Q-7.3 20.45 -4.3 19.8 L-4.9 19.15 -5.0 18.85 Q-5.55 17.7 -4.95 16.85 L-4.15 17.5 Q-1.35 19.8 2.05 20.2 5.7 20.75 9.0 18.85 L9.7 18.55 Q8.3 17.75 7.55 16.2 L7.8 15.15 8.1 15.1 Q8.4 15.25 8.5 15.55 8.9 16.7 10.05 16.95 11.4 17.45 12.4 16.7 L13.45 15.8 Q14.55 14.85 14.85 13.55 L15.15 13.25 15.0 12.4 15.8 13.05 Q16.25 13.6 17.7 13.35 19.75 11.45 19.7 8.55 L20.15 9.7 20.35 10.85 Q20.45 11.9 19.75 13.25 19.0 14.5 17.95 14.85 16.65 14.9 15.95 14.4 L15.5 16.05 15.65 16.0 16.8 16.25 16.9 16.3 17.45 15.8 17.8 16.0 18.15 16.4 18.25 16.6 20.35 16.6 Q23.5 16.05 25.45 13.4 L25.6 12.7 25.45 12.4 Q24.35 11.9 23.9 11.2 26.45 11.55 27.65 11.15 28.85 10.7 29.6 8.2 L29.85 5.75 Q29.75 4.2 29.05 2.45 L28.7 1.0 27.9 -0.45 Q30.0 1.0 30.75 2.95 L30.8 3.1 Q31.8 2.2 32.0 1.0 32.15 -0.25 31.65 -2.15 31.3 -3.45 30.3 -4.55 L28.2 -6.9 28.5 -7.6 M3.1 -1.25 Q3.15 -0.7 4.45 -0.45 5.7 -0.3 6.0 -0.85 L6.3 -1.4 6.45 -1.7 Q6.75 -1.0 7.55 -0.4 8.35 0.25 9.9 0.4 11.35 0.55 12.2 -1.95 L12.3 -1.85 Q13.95 -2.0 14.2 -4.15 L14.5 -3.75 Q14.7 -2.65 14.4 -1.65 L13.9 -1.05 13.65 -0.85 13.35 -0.85 13.4 -0.75 13.45 0.05 13.4 0.7 Q14.2 1.95 15.5 2.4 L16.15 2.25 16.2 1.35 16.65 0.9 16.9 0.6 17.05 1.15 17.25 2.65 17.6 3.1 Q18.55 3.95 19.75 4.0 L20.25 4.65 Q18.45 5.35 16.95 3.9 L15.15 4.7 Q14.35 5.1 13.85 5.75 13.45 6.25 13.3 6.95 L12.7 9.0 12.25 8.95 Q12.05 8.35 10.5 7.75 L7.55 7.65 Q6.1 8.2 5.45 8.95 L6.4 6.95 6.25 6.8 5.6 5.75 4.5 4.55 4.0 3.9 4.0 3.75 4.05 3.55 4.9 3.45 5.25 2.95 6.0 2.1 Q6.25 1.15 6.0 0.4 L5.85 0.2 5.95 0.65 5.85 0.4 5.75 0.6 Q5.45 1.15 4.6 0.8 3.65 0.5 2.9 -0.15 2.5 -0.55 2.4 -1.15 L2.45 -1.6 2.5 -1.8 2.8 -1.85 3.1 -1.25 M0.4 -18.9 L0.2 -18.25 -2.75 -19.9 Q-3.85 -20.5 -5.2 -20.65 L-5.55 -20.7 -6.7 -20.9 Q-9.4 -21.35 -11.45 -20.05 L-13.65 -18.15 -14.75 -17.05 -15.7 -16.15 -15.45 -17.7 -15.35 -18.0 -15.4 -18.15 -15.05 -18.85 -13.85 -20.15 Q-12.65 -21.25 -11.15 -21.8 -8.6 -22.7 -6.65 -22.5 -4.7 -22.3 -3.4 -21.65 L-3.15 -21.65 -3.1 -21.5 Q-1.85 -20.95 -0.4 -19.8 L0.4 -18.9 M18.8 -18.1 L18.75 -17.95 18.85 -17.95 20.1 -18.65 22.7 -18.9 Q24.25 -18.5 24.05 -18.05 23.8 -17.7 23.9 -17.45 L23.9 -17.25 23.85 -17.05 Q23.55 -16.25 23.05 -15.95 24.3 -16.1 25.65 -15.4 28.25 -14.0 29.75 -11.5 L29.9 -11.1 Q30.3 -10.15 30.2 -8.9 28.6 -7.4 28.0 -8.05 27.4 -8.65 28.25 -8.7 29.05 -8.8 28.85 -9.65 L28.85 -9.85 Q28.3 -12.3 26.0 -13.4 24.45 -14.8 22.3 -14.9 21.55 -14.9 21.8 -15.55 L21.95 -15.75 22.1 -15.8 21.65 -15.75 Q22.4 -16.3 22.55 -17.05 L22.55 -17.45 Q21.15 -18.25 19.1 -17.05 L18.55 -16.7 18.25 -17.05 18.05 -17.3 17.45 -17.45 Q17.0 -18.65 16.0 -19.2 14.4 -20.0 12.7 -19.85 L8.85 -19.4 6.55 -18.95 4.25 -18.3 5.2 -19.1 4.55 -18.9 Q4.6 -20.55 3.7 -21.05 2.6 -21.15 1.75 -20.45 L0.8 -19.7 0.7 -19.7 Q0.45 -19.75 0.55 -20.3 L1.3 -21.0 1.55 -21.35 2.95 -22.35 Q3.9 -22.9 4.5 -22.35 L5.15 -21.45 5.3 -20.8 Q5.7 -20.0 5.45 -19.25 L7.65 -20.35 Q10.6 -21.2 13.05 -21.25 16.05 -21.35 17.8 -19.7 18.5 -19.05 18.8 -18.1 M-15.15 -9.15 L-15.15 -9.0 -15.05 -8.75 -14.8 -8.55 -14.6 -8.35 -14.45 -8.3 -14.3 -8.25 Q-12.35 -7.95 -10.85 -9.0 L-10.0 -9.8 -9.9 -9.85 -10.3 -8.55 -10.6 -7.5 -10.65 -7.35 -10.7 -7.25 -10.75 -7.15 -10.75 -7.0 -10.75 -6.9 -10.75 -6.7 -10.75 -6.45 -10.75 -6.3 -10.75 -6.2 -10.7 -6.05 -10.55 -5.95 -9.6 -5.7 -8.5 -5.5 -7.8 -5.45 -7.55 -5.35 -7.5 -5.25 -7.45 -5.15 -7.5 -5.05 -7.55 -4.95 -7.8 -4.85 -8.5 -4.8 -8.55 -4.75 -8.75 -4.7 -9.35 -4.75 -9.4 -4.5 -9.4 -4.4 -9.5 -4.25 -9.55 -4.15 -9.65 -3.9 -9.75 -3.8 -9.85 -3.55 -9.9 -3.2 -10.05 -2.85 -10.1 -2.7 -10.1 -2.6 -10.1 -2.5 -10.1 -2.25 -10.1 -2.0 -8.35 -1.1 -8.65 -0.95 -8.95 -0.9 -9.9 -0.85 -10.25 -0.95 -10.6 -1.05 -10.75 -1.2 -10.85 -1.3 -10.95 -1.4 -12.55 -1.3 -13.65 -1.15 -14.15 -0.85 -14.6 -0.5 -15.75 0.8 -16.15 1.25 -16.25 1.1 -16.25 1.0 -16.25 0.85 -16.25 0.75 -16.25 0.5 -16.2 0.3 -16.2 0.05 -16.15 -0.05 -16.1 -0.2 -16.05 -0.3 -15.75 -0.8 -14.85 -1.7 Q-14.2 -2.25 -13.85 -2.25 L-13.35 -2.35 -12.75 -2.6 -12.55 -2.6 -12.55 -2.65 -11.05 -2.65 -11.05 -2.85 -11.05 -2.95 -11.0 -3.2 -10.9 -3.55 -10.75 -3.9 -10.75 -4.05 -10.65 -4.15 -10.55 -4.4 -10.35 -4.75 -10.3 -4.9 -10.25 -4.95 -10.3 -4.95 -11.0 -5.1 -11.25 -5.35 -11.6 -5.7 -11.65 -5.8 -11.65 -6.2 -11.65 -6.7 -11.65 -7.0 -11.65 -7.25 -11.65 -7.35 -12.15 -7.15 -13.2 -6.85 Q-14.0 -6.7 -14.95 -7.35 L-14.95 -7.15 Q-14.9 -6.85 -15.0 -6.6 L-15.75 -5.8 -17.25 -4.95 -17.4 -4.95 -17.6 -4.9 -17.7 -4.9 -17.6 -4.5 -17.45 -4.45 -17.2 -4.35 -17.05 -4.25 -16.85 -4.1 -16.7 -4.0 -16.25 -3.75 -16.1 -3.6 -15.95 -3.35 -15.75 -3.2 -15.65 -2.95 -15.55 -2.8 -15.55 -2.55 -15.55 -2.3 -15.5 -2.05 -15.5 -1.8 -15.5 -1.45 -15.5 -1.4 -15.55 -1.25 -15.6 -1.15 -15.7 -1.0 -15.75 -0.9 -15.9 -0.75 -16.05 -0.7 -16.15 -0.65 -16.3 -0.6 -16.5 -0.65 -16.45 -1.15 -16.45 -1.75 -16.45 -1.85 -16.45 -2.0 -16.45 -2.1 -16.45 -2.25 -16.45 -2.35 -16.55 -2.7 -16.85 -3.05 -17.45 -3.55 -17.85 -3.8 -17.95 -3.8 -18.75 -3.35 -19.6 -3.35 -19.85 -3.45 -20.0 -3.6 -20.1 -3.7 -20.2 -3.8 -20.25 -3.95 -20.25 -4.05 -20.25 -4.2 -20.2 -4.2 -20.1 -4.15 -19.4 -4.05 -19.2 -4.05 -19.15 -4.05 -19.1 -4.15 -19.0 -4.2 -18.95 -4.25 -18.85 -4.3 -18.6 -4.5 -18.5 -4.65 -18.45 -4.7 -18.4 -4.7 -18.4 -4.8 -18.35 -4.95 -18.3 -4.95 -18.3 -5.05 -18.3 -5.15 -18.3 -5.25 -18.3 -6.05 -18.3 -6.1 -18.25 -6.1 -18.25 -6.15 -18.1 -6.2 -17.95 -6.25 -17.7 -6.15 -17.5 -6.1 -17.2 -6.2 -16.9 -6.3 -16.7 -6.45 -16.5 -6.55 -16.3 -6.7 -16.2 -6.8 -16.05 -6.9 -16.0 -7.0 -16.0 -7.15 -16.0 -7.35 -16.0 -7.6 -16.0 -7.75 -16.05 -7.8 -16.05 -8.15 -16.0 -8.25 -16.0 -8.4 -16.0 -8.5 -16.05 -8.65 Q-18.5 -7.8 -18.75 -9.2 -18.9 -9.8 -18.3 -11.0 L-18.2 -11.2 -17.95 -9.9 Q-17.65 -8.95 -16.3 -9.8 L-15.35 -10.5 -15.3 -9.5 -15.2 -9.5 -15.15 -9.25 -15.15 -9.15 M-15.05 0.7 L-15.1 0.65 -15.1 0.55 -15.1 0.4 -15.1 0.35 -15.05 0.7" fill="#333333" fill-rule="evenodd" stroke="none"/>
    <path d="M-10.5 13.85 Q-10.75 13.3 -11.7 13.35 L-11.4 14.15 Q-10.6 16.0 -9.1 17.1 L-8.15 17.7 -4.65 18.25 -2.5 17.75 Q-1.6 17.55 -0.7 16.7 L0.65 15.4 1.1 14.95 1.1 14.65 1.0 14.15 Q-2.15 16.8 -7.8 15.65 -10.2 14.6 -10.5 13.85" fill="#333333" fill-rule="evenodd" stroke="none"/>
    <path d="M-16.3 17.75 L-16.25 17.7 -16.2 17.6 -16.15 17.55 -16.05 17.45 -15.95 17.4 -15.8 17.45 -15.75 17.55 -15.75 17.6 -15.75 17.7 -15.75 17.75 -15.7 17.85 -15.75 17.9 -15.8 18.0 -15.9 18.05 -16.0 18.15 -16.35 18.55 -16.55 18.9 -16.8 19.2 -16.85 19.3 -16.85 19.35 -16.9 19.45 -16.95 19.5 -17.0 19.6 -17.1 19.65 -17.1 19.75 -17.1 19.8 -17.15 19.85 -17.2 19.95 -17.35 20.0 -17.5 19.95 -17.55 19.9 -17.6 19.8 -17.6 19.75 -17.6 19.65 -17.6 19.5 -17.55 19.45 -17.5 19.35 -17.45 19.25 -17.35 19.2 -17.35 19.15 -17.3 19.05 -17.3 19.0 -16.95 18.5 -16.7 18.2 -16.4 17.85 -16.3 17.75" fill="#333333" fill-rule="evenodd" stroke="none"/>
    <path d="M-16.35 17.0 L-16.35 17.1 -16.35 17.15 -16.4 17.2 -16.45 17.3 -16.55 17.4 -17.5 18.35 -18.25 19.3 -18.75 20.05 -18.85 20.1 -18.9 20.15 -18.95 20.15 -19.05 20.2 -19.2 20.15 -19.25 20.05 -19.3 20.0 -19.3 19.95 -19.3 19.85 -19.2 19.8 -19.2 19.7 -19.15 19.65 -18.6 18.65 -17.7 17.7 -16.9 17.0 -16.85 17.0 -16.7 16.95 -16.55 16.9 -16.4 16.95 -16.35 17.0" fill="#333333" fill-rule="evenodd" stroke="none"/>
    <path d="M-18.05 15.45 L-17.95 15.45 -17.8 15.5 -17.75 15.55 -17.75 15.65 -17.75 15.7 -18.45 16.85 -19.15 18.05 -19.5 18.75 -19.6 18.85 -19.65 18.9 -19.7 18.95 -19.75 19.05 -19.9 19.15 -20.0 19.2 -20.1 19.25 -20.15 19.25 -20.25 19.3 -20.4 19.25 -20.5 19.3 -20.6 19.3 -20.6 19.25 -20.55 19.15 -20.5 19.1 -20.5 19.0 -20.4 18.85 -20.2 18.7 -19.5 17.5 -18.65 16.15 -18.1 15.5 -18.05 15.45" fill="#333333" fill-rule="evenodd" stroke="none"/>
    <path d="M-13.1 15.0 L-13.05 15.05 -13.0 15.15 -13.0 15.25 -13.0 15.35 -13.0 15.45 -13.3 15.85 -13.55 16.3 -13.7 16.7 -13.75 16.8 -13.85 17.05 -13.9 17.25 -13.95 17.4 -14.0 17.5 -14.0 17.55 -14.0 17.65 -14.0 17.7 -14.05 17.8 -14.05 17.85 -14.1 17.95 -14.15 17.95 -14.25 18.0 -14.35 17.95 -14.45 17.9 -14.5 17.75 -14.5 17.5 -14.5 17.3 -14.45 17.15 -14.4 16.9 -14.35 16.7 -14.1 16.2 -13.8 15.65 -13.55 15.4 -13.55 15.3 -13.5 15.25 -13.5 15.15 -13.45 15.1 -13.4 15.0 -13.35 14.95 -13.25 14.95 -13.1 15.0" fill="#333333" fill-rule="evenodd" stroke="none"/>
    <path d="M-11.9 15.7 L-11.9 15.8 -11.85 15.85 -11.85 15.95 -11.85 16.0 -11.85 16.1 -12.15 16.35 -12.4 16.65 -12.6 16.85 -12.8 17.3 -13.0 17.7 -13.25 18.05 -13.25 18.15 -13.3 18.2 -13.3 18.3 -13.35 18.35 -13.4 18.45 -13.45 18.45 -13.55 18.5 -13.65 18.45 -13.75 18.4 -13.8 18.3 -13.8 18.25 -13.85 18.15 -13.85 18.05 -13.85 17.95 -13.45 17.1 -12.8 16.35 -12.3 15.9 -12.25 15.8 -12.15 15.7 -12.05 15.65 -11.9 15.7" fill="#333333" fill-rule="evenodd" stroke="none"/>
    <path d="M-28.1 7.7 L-28.05 7.75 -28.1 7.85 -28.5 8.0 -28.7 8.05 -29.15 8.35 -29.75 8.65 -30.3 8.95 -30.4 9.05 -30.55 9.1 -30.65 9.0 -30.7 8.95 -30.65 8.9 -30.6 8.8 -30.45 8.75 -30.4 8.65 -30.3 8.6 -29.8 8.3 -29.35 8.05 -29.0 7.85 -28.55 7.7 -28.4 7.65 -28.3 7.65 -28.25 7.65 -28.1 7.7" fill="#333333" fill-rule="evenodd" stroke="none"/>
    <path d="M-28.65 8.75 L-28.35 8.75 -28.15 8.75 -27.95 8.8 -27.85 8.85 -27.8 8.9 -27.8 9.0 -27.8 9.05 -27.8 9.15 -27.95 9.2 -28.05 9.15 -28.15 9.15 -28.35 9.2 -28.7 9.25 -28.8 9.3 -28.95 9.35 -29.3 9.45 -29.5 9.55 -29.65 9.6 -29.75 9.7 -29.85 9.65 -29.9 9.55 -29.9 9.5 -29.9 9.45 -29.8 9.4 -29.7 9.3 -29.65 9.25 -29.55 9.15 -29.3 9.1 -29.2 9.0 -29.05 8.95 -28.95 8.85 -28.8 8.8 -28.65 8.75" fill="#333333" fill-rule="evenodd" stroke="none"/>
    <path d="M1.0 18.6 L1.05 18.65 1.1 18.75 1.1 18.8 1.1 18.95 1.1 19.1 1.1 19.25 1.1 19.35 1.05 19.4 1.05 19.5 1.0 19.65 0.95 19.7 0.9 19.85 0.8 20.0 0.75 20.1 0.65 20.4 0.55 20.85 0.45 21.25 0.45 21.3 0.45 21.4 0.4 21.45 0.4 21.55 0.35 21.6 0.3 21.7 0.15 21.75 0.0 21.7 -0.05 21.6 -0.1 21.55 -0.1 21.45 -0.1 21.3 -0.1 21.15 -0.1 21.1 0.0 20.7 0.1 20.3 0.25 19.85 0.3 19.8 0.35 19.6 0.45 19.5 0.5 19.4 0.55 19.35 0.55 19.25 0.6 19.2 0.6 19.1 0.6 19.05 0.6 18.95 0.6 18.9 0.6 18.8 0.65 18.75 0.65 18.65 0.7 18.6 0.85 18.55 1.0 18.6" fill="#333333" fill-rule="evenodd" stroke="none"/>
    <path d="M2.8 17.5 L2.85 17.5 2.95 17.45 3.1 17.5 3.15 17.6 3.2 17.65 3.2 17.75 3.15 17.8 3.15 17.9 3.05 18.05 3.0 18.1 2.95 18.2 2.95 18.25 2.9 18.35 2.85 18.4 2.55 19.4 2.25 20.55 2.25 21.45 2.2 21.55 2.2 21.6 2.15 21.7 2.15 21.75 2.1 21.85 2.05 21.9 1.95 22.05 1.9 22.1 1.85 22.1 1.75 22.15 1.6 22.1 1.55 22.0 1.5 21.95 1.5 21.9 1.5 21.8 1.55 21.75 1.55 21.65 1.6 21.6 1.65 21.45 1.7 21.3 1.7 21.05 1.7 20.75 1.7 20.45 1.7 20.35 1.85 19.75 2.1 19.0 2.25 18.45 2.3 18.4 2.35 18.3 2.4 18.25 2.4 18.15 2.45 18.1 2.45 18.0 2.55 17.85 2.7 17.65 2.8 17.5" fill="#333333" fill-rule="evenodd" stroke="none"/>
    <path d="M3.05 19.3 L3.05 19.2 3.15 19.1 3.2 19.05 3.25 19.05 3.35 19.0 3.5 19.05 3.55 19.15 3.6 19.2 3.6 19.55 3.65 20.0 3.6 20.45 3.55 20.5 3.55 20.6 3.45 20.9 3.35 21.25 3.35 21.65 3.3 21.7 3.25 21.8 3.25 21.85 3.25 21.95 3.2 22.0 3.2 22.05 3.15 22.05 3.05 22.1 2.95 22.05 2.85 21.95 2.85 21.85 2.8 21.75 2.8 21.7 2.8 21.6 2.8 21.45 2.8 21.3 2.8 21.15 2.8 21.0 2.85 20.8 2.95 20.55 3.0 20.5 3.0 20.4 3.05 20.35 3.05 20.3 3.1 20.25 3.1 20.1 3.1 19.85 3.1 19.55 3.1 19.5 3.1 19.4 3.05 19.3" fill="#333333" fill-rule="evenodd" stroke="none"/>
    <path d="M15.75 19.55 L15.9 19.75 15.9 19.85 15.9 19.9 15.9 20.0 15.85 20.05 15.8 20.1 15.8 20.2 15.75 20.2 15.65 20.25 15.55 20.2 15.45 20.1 15.4 20.05 15.4 19.95 15.4 19.9 15.1 19.5 14.85 19.1 14.7 18.9 14.65 18.85 14.65 18.75 14.6 18.7 14.6 18.6 14.6 18.5 14.65 18.35 14.65 18.3 14.75 18.2 14.85 18.2 15.0 18.25 15.05 18.3 15.1 18.4 15.1 18.45 15.1 18.5 15.15 18.55 15.15 18.65 15.2 18.7 15.2 18.8 15.5 19.15 15.75 19.55" fill="#333333" fill-rule="evenodd" stroke="none"/>
    <path d="M21.8 14.2 L21.85 14.3 21.9 14.35 21.9 14.45 Q21.95 14.85 22.35 15.05 L23.15 15.55 23.5 15.9 23.65 15.95 23.75 16.05 23.8 16.1 23.85 16.2 23.85 16.25 23.85 16.35 23.8 16.4 23.75 16.5 23.7 16.55 23.55 16.55 23.25 16.4 23.0 16.2 22.0 15.5 21.55 15.0 21.4 14.75 21.4 14.7 21.4 14.6 21.4 14.5 21.4 14.4 21.4 14.3 21.5 14.25 21.55 14.2 21.65 14.15 21.8 14.2" fill="#333333" fill-rule="evenodd" stroke="none"/>
    <path d="M25.4 16.3 L25.45 16.4 25.45 16.45 25.4 16.55 25.4 16.6 25.35 16.6 25.25 16.65 25.15 16.6 24.4 15.65 23.5 14.65 22.85 13.9 22.8 13.8 22.8 13.7 22.75 13.65 22.75 13.6 22.8 13.5 22.85 13.45 22.95 13.4 23.1 13.45 23.9 14.4 24.8 15.3 25.35 16.05 25.35 16.1 25.4 16.2 25.4 16.3" fill="#333333" fill-rule="evenodd" stroke="none"/>
    <path d="M25.7 -0.05 L26.6 0.15 27.3 0.4 27.4 0.45 27.4 0.55 27.4 0.6 27.35 0.65 27.25 0.75 27.15 0.7 27.1 0.7 26.95 0.7 26.0 0.4 25.15 0.3 24.35 0.2 24.25 0.15 24.15 0.05 24.15 -0.05 24.25 -0.15 24.35 -0.2 24.75 -0.2 25.7 -0.05" fill="#333333" fill-rule="evenodd" stroke="none"/>
    <path d="M26.8 1.45 L26.85 1.5 26.85 1.55 26.8 1.65 26.8 1.7 26.75 1.7 26.65 1.75 26.5 1.7 26.3 1.65 26.2 1.6 25.65 1.55 24.9 1.5 24.8 1.4 24.8 1.35 24.85 1.25 24.95 1.2 25.45 1.2 25.65 1.15 26.15 1.15 26.3 1.2 26.5 1.3 26.7 1.35 26.8 1.45" fill="#333333" fill-rule="evenodd" stroke="none"/>
    <path d="M24.65 -1.25 L24.75 -1.35 24.85 -1.4 25.25 -1.4 25.6 -1.3 26.0 -1.15 26.2 -1.05 26.25 -1.0 26.2 -0.9 26.0 -0.85 25.85 -0.8 25.65 -0.85 25.55 -0.9 25.4 -0.95 25.25 -0.95 24.85 -1.0 24.75 -1.05 24.65 -1.15 24.65 -1.25" fill="#333333" fill-rule="evenodd" stroke="none"/>
    <path d="M0.9 -2.1 L0.95 -2.2 1.0 -2.25 1.5 -2.55 1.95 -2.85 2.15 -3.0 2.25 -3.0 2.45 -2.95 2.55 -2.9 2.6 -2.8 2.6 -2.75 2.6 -2.65 2.55 -2.6 2.05 -2.3 1.6 -2.0 1.4 -1.85 1.35 -1.75 1.25 -1.7 1.2 -1.6 1.05 -1.6 0.95 -1.55 0.85 -1.6 0.75 -1.7 0.75 -1.8 0.8 -1.9 0.8 -1.95 0.85 -2.05 0.9 -2.1" fill="#333333" fill-rule="evenodd" stroke="none"/>
    <path d="M-19.8 -3.15 L-19.75 -3.05 -19.7 -3.0 -19.7 -2.9 -19.75 -2.85 -19.75 -2.75 -19.9 -2.7 -20.0 -2.6 -20.15 -2.45 -20.4 -2.25 -20.55 -2.1 -20.65 -2.0 -20.75 -1.95 -20.85 -1.95 -20.95 -2.0 -21.05 -2.1 -21.05 -2.2 -21.0 -2.3 -20.95 -2.35 -20.75 -2.6 -20.5 -2.8 -20.35 -2.95 -20.3 -3.05 -20.15 -3.1 -20.05 -3.15 -19.95 -3.2 -19.8 -3.15" fill="#333333" fill-rule="evenodd" stroke="none"/>
    <path d="M-18.1 -3.2 L-18.05 -3.15 -18.05 -3.05 -18.05 -3.0 -19.1 -2.1 -20.05 -1.4 -20.5 -0.85 -20.65 -0.8 -20.7 -0.75 -20.75 -0.7 -20.85 -0.7 -20.95 -0.75 -21.05 -0.85 -21.05 -0.95 -21.0 -1.05 -20.9 -1.1 -20.2 -2.0 -19.2 -2.7 -18.4 -3.2 -18.35 -3.25 -18.25 -3.25 -18.1 -3.2" fill="#333333" fill-rule="evenodd" stroke="none"/>
    <path d="M-19.1 -1.4 L-19.05 -1.4 -18.9 -1.45 -18.8 -1.5 -18.75 -1.55 -18.65 -1.6 -18.5 -1.55 -18.45 -1.45 -18.4 -1.4 -18.4 -1.35 -18.45 -1.3 -18.55 -1.15 -18.75 -1.0 -18.8 -0.95 -18.9 -0.8 -19.05 -0.6 -19.1 -0.55 -19.1 -0.45 -19.15 -0.4 -19.2 -0.3 -19.35 -0.25 -19.5 -0.3 -19.55 -0.4 -19.55 -0.45 -19.55 -0.55 -19.55 -0.6 -19.55 -0.7 -19.5 -0.85 -19.45 -0.9 -19.4 -1.0 -19.3 -1.05 -19.3 -1.15 -19.25 -1.25 -19.2 -1.3 -19.15 -1.35 -19.1 -1.4" fill="#333333" fill-rule="evenodd" stroke="none"/>
  </g>
</svg>
