<?xml version="1.0" encoding="UTF-8" standalone="no"?>
<svg xmlns:xlink="http://www.w3.org/1999/xlink" height="17.3px" width="10.05px" xmlns="http://www.w3.org/2000/svg">
  <g transform="matrix(1.0, 0.0, 0.0, 1.0, 5.0, 8.65)">
    <path d="M-3.45 -8.15 L-3.25 -8.35 -3.15 -8.4 -0.8 -8.15 0.2 -7.85 3.25 -2.6 2.75 -1.85 Q2.35 0.45 4.05 1.85 4.4 4.1 4.05 6.35 L3.9 7.1 Q0.8 8.5 -2.3 7.55 L-3.45 7.45 -4.7 7.3 -4.7 3.9 -4.3 3.35 Q-5.05 -2.15 -4.4 -7.25 L-4.35 -7.5 -4.3 -7.55 -4.2 -7.6 -4.15 -7.65 -3.9 -7.8 -3.8 -7.9 -3.65 -7.95 -3.45 -8.15" fill="#a07c64" fill-rule="evenodd" stroke="none"/>
    <path d="M-4.55 4.6 L-4.35 2.9 -4.05 1.95 -3.95 1.8 Q-3.85 0.75 -3.9 -0.3 L-3.95 -2.9 -3.95 -5.9 -3.95 -6.45 -3.85 -6.65 -3.8 -6.85 -3.75 -7.05 -3.7 -7.2 -3.55 -7.4 -3.45 -7.6 -3.25 -7.7 -3.1 -7.75 -2.75 -7.8 -2.75 -7.85 -2.3 -7.7 -2.05 -7.55 -1.95 -7.35 -1.8 -7.15 -1.2 -6.6 -0.6 -6.05 -0.05 -5.45 0.05 -5.3 0.15 -5.1 0.2 -4.9 0.25 -4.7 0.35 -4.55 0.65 -4.15 0.95 -3.8 1.25 -3.4 1.35 -3.25 1.45 -3.05 1.5 -2.85 1.55 -2.65 1.65 -2.45 1.7 -2.3 1.8 -2.1 1.9 -1.9 1.9 -1.7 1.95 -1.55 1.95 -1.35 2.0 -1.15 2.05 -0.95 2.15 -0.8 2.2 -0.6 2.2 -0.4 2.2 -0.2 2.15 -0.05 2.15 0.15 2.05 0.35 1.95 0.55 1.75 0.75 1.7 0.9 1.7 1.1 1.75 1.2 1.9 1.2 2.25 1.15 2.5 1.15 2.95 1.3 3.2 1.45 3.3 1.65 3.45 1.85 3.5 2.05 3.5 2.2 3.5 2.6 3.5 2.8 3.5 2.95 3.6 3.15 3.7 3.35 3.75 3.55 3.75 3.7 3.75 4.1 3.75 4.3 3.75 4.45 3.75 4.65 3.8 4.85 3.9 5.05 3.95 5.2 4.0 5.4 4.0 5.6 4.0 5.8 4.0 5.95 4.0 6.15 3.95 6.35 3.9 6.55 3.8 6.7 3.6 6.9 3.0 7.3 2.5 7.4 -1.25 7.55 -1.75 7.65 -3.0 7.9 -3.25 7.9 -3.75 7.8 -4.0 7.6 -4.2 7.4 -4.3 7.2 -4.45 7.05 -4.55 5.9 -4.55 4.6" fill="#663333" fill-opacity="0.2" fill-rule="evenodd" stroke="none"/>
    <path d="M-4.65 -5.35 L-4.55 -5.55 -4.35 -5.65 -4.3 -5.7 -4.0 -5.75 -4.0 -5.8 -3.65 -5.65 -3.35 -5.55 -3.0 -5.55 -2.5 -5.55 -2.05 -5.4 -1.7 -5.2 -1.35 -5.05 -1.2 -4.85 -1.0 -4.65 -0.8 -4.45 -0.6 -4.3 -0.5 -4.15 -0.45 -4.15 -0.1 -4.15 0.0 -4.35 0.1 -4.55 0.2 -4.7 0.3 -4.9 0.4 -5.1 0.5 -5.3 0.75 -5.45 1.25 -5.6 1.7 -5.45 1.95 -5.3 2.05 -5.1 2.2 -4.9 2.25 -4.7 2.3 -4.65 2.7 -4.45 2.95 -4.3 3.05 -4.1 3.2 -3.9 3.25 -3.7 3.25 -3.55 3.2 -3.35 3.15 -3.15 3.0 -2.95 2.95 -2.8 2.8 -2.6 2.7 -2.4 2.55 -2.2 2.5 -1.85 2.5 -1.65 2.5 -1.45 2.5 -1.3 2.5 -1.1 2.5 -0.75 2.45 -0.35 2.35 -0.15 2.25 0.0 2.05 0.2 1.9 0.35 1.55 0.5 1.5 0.65 1.5 0.85 1.55 1.0 1.6 1.2 1.7 1.4 1.75 1.55 2.0 1.6 2.5 1.7 2.75 1.8 3.0 1.7 3.15 1.65 3.5 1.6 4.0 1.7 4.25 1.9 4.45 2.1 4.55 2.3 4.7 2.45 4.75 2.65 4.85 3.2 4.8 3.6 4.8 4.15 4.8 5.1 4.8 5.45 4.8 5.65 4.7 5.85 4.6 6.0 4.5 6.2 4.4 6.4 4.3 6.6 4.15 6.8 3.95 6.95 3.75 7.15 3.5 7.35 3.0 7.45 2.75 7.5 2.4 7.55 2.15 7.65 1.65 7.8 1.4 7.9 -0.75 7.95 -1.25 7.85 -1.45 7.7 -1.65 7.65 -1.85 7.65 -2.25 7.7 -3.0 7.7 -3.5 7.6 -3.85 7.4 -4.2 7.2 -4.35 7.0 -4.5 6.85 -4.55 6.65 -4.65 6.45 -4.75 6.3 -4.85 4.95 -4.8 2.55 -4.8 0.85 -4.8 -1.2 -4.85 -1.4 -4.95 -1.6 -5.0 -1.8 -5.0 -2.15 -5.0 -2.35 -5.0 -2.55 -5.0 -2.7 -5.0 -2.9 -5.0 -3.3 -4.95 -3.65 -4.85 -3.85 -4.75 -4.05 -4.5 -4.25 -4.3 -4.4 -4.5 -4.6 -4.6 -4.8 -4.7 -4.95 -4.7 -5.15 -4.65 -5.35" fill="#663333" fill-opacity="0.2" fill-rule="evenodd" stroke="none"/>
    <path d="M-3.3 -6.65 L-3.25 -6.75 -3.15 -6.8 -2.9 -6.8 -2.75 -6.85 -2.25 -6.85 -2.25 -6.9 -1.9 -6.75 -1.5 -6.6 -1.15 -6.45 -0.9 -6.2 -0.65 -6.0 -0.4 -5.8 -0.25 -5.7 0.15 -5.05 0.65 -4.3 1.25 -3.25 1.4 -3.0 1.5 -2.7 1.55 -2.5 1.6 -2.3 1.7 -2.05 1.75 -1.85 1.8 -1.75 1.85 -1.65 1.9 -1.55 1.95 -1.5 2.0 -1.4 2.15 -0.9 2.25 -0.35 2.4 0.2 2.6 0.85 2.6 0.95 2.6 1.05 2.55 1.15 2.55 1.25 2.55 1.35 2.6 1.45 2.6 1.5 2.6 1.6 2.6 1.7 2.55 1.8 2.55 1.9 2.55 2.0 2.45 2.0 2.4 1.95 2.35 1.9 2.2 1.85 2.1 1.75 2.1 1.65 2.1 1.55 2.05 1.45 2.05 1.35 2.0 1.3 1.95 1.2 1.9 1.1 1.8 0.6 1.65 0.15 1.5 -0.35 1.4 -1.0 1.3 -1.15 1.2 -1.35 1.2 -1.45 1.15 -1.55 1.05 -1.75 0.95 -1.9 0.95 -2.1 0.9 -2.2 0.85 -2.3 0.8 -2.5 0.8 -2.55 0.55 -3.15 0.2 -3.7 -0.25 -4.35 -0.45 -4.75 -0.5 -4.8 -0.55 -4.9 -0.6 -5.0 -0.65 -5.1 -0.7 -5.2 -0.75 -5.3 -1.15 -5.6 -1.25 -5.65 -1.3 -5.75 -1.45 -5.95 -2.15 -6.25 -3.2 -6.45 -3.3 -6.55 -3.3 -6.65" fill="#ffffff" fill-opacity="0.2" fill-rule="evenodd" stroke="none"/>
    <path d="M1.85 -6.05 L2.05 -5.75 2.3 -5.4 2.35 -5.3 2.35 -5.2 2.4 -5.1 2.45 -5.0 2.45 -4.9 2.45 -4.8 2.55 -4.75 2.65 -4.55 2.7 -4.45 2.75 -4.35 2.8 -3.95 2.9 -3.6 3.0 -3.25 3.1 -2.95 3.1 -2.85 3.1 -2.75 3.1 -2.65 3.15 -2.55 3.2 -2.5 3.2 -2.4 3.15 -2.3 3.1 -2.2 3.05 -2.1 3.05 -2.0 3.05 -1.9 3.0 -1.85 2.95 -1.75 2.8 -1.75 2.7 -1.8 2.7 -1.9 2.7 -2.0 2.65 -2.1 2.6 -2.2 2.45 -2.65 2.25 -3.25 2.15 -3.7 2.05 -4.15 2.0 -4.25 1.95 -4.35 1.9 -4.45 1.85 -4.55 1.8 -4.65 1.75 -4.75 1.75 -4.8 1.7 -4.9 1.7 -5.0 1.65 -5.1 1.3 -5.6 0.9 -6.1 0.55 -6.5 0.45 -6.7 0.45 -6.75 0.25 -6.8 0.05 -6.85 -0.05 -6.95 -0.2 -7.05 -0.3 -7.15 -0.45 -7.25 -0.7 -7.35 -0.85 -7.4 -2.15 -7.5 -2.25 -7.4 -2.4 -7.4 -3.6 -7.5 -3.65 -7.55 -3.65 -7.65 -3.0 -7.85 -2.4 -7.85 -2.3 -7.9 -0.9 -8.0 -0.9 -8.05 -0.75 -8.05 -0.6 -8.0 -0.5 -7.9 -0.4 -7.8 -0.25 -7.8 -0.1 -7.75 0.0 -7.65 0.1 -7.55 0.3 -7.5 0.35 -7.45 0.5 -7.4 0.7 -7.35 0.9 -7.25 1.1 -7.0 1.25 -6.7 1.6 -6.3 1.85 -6.05" fill="#ffffff" fill-opacity="0.2" fill-rule="evenodd" stroke="none"/>
    <path d="M-2.45 -8.0 L-2.95 -7.9 -3.25 -7.75 -3.45 -7.55 Q-3.65 -7.2 -4.0 -7.0 L-4.05 -6.7 -4.1 -6.4 -4.1 -5.65 -4.0 -0.85 -4.0 1.25 -4.0 2.5 -4.0 3.1 -4.0 4.3 -3.85 6.8 3.8 7.0 3.65 5.7 Q3.55 5.2 3.6 4.7 L3.6 4.3 3.6 4.15 3.35 3.5 3.3 3.5 2.05 2.55 1.8 2.35 1.25 1.85 1.1 0.95 0.95 0.05 1.0 -0.5 1.05 -0.7 1.25 -2.05 1.15 -2.7 0.55 -4.15 0.1 -5.05 Q-0.6 -6.3 -1.75 -6.85 L-2.55 -6.95 -2.55 -7.05 Q-2.25 -7.1 -2.0 -7.25 L-1.6 -7.1 -1.25 -6.9 -0.5 -6.35 Q0.7 -5.05 1.4 -3.5 L1.4 -3.55 1.45 -3.7 1.5 -3.85 1.95 -4.05 1.95 -4.1 2.0 -4.15 1.7 -5.05 Q0.9 -6.9 -0.5 -7.85 L-2.45 -8.0 M-4.8 -4.15 L-4.85 -5.55 Q-4.9 -6.25 -4.6 -6.85 L-4.5 -7.25 -4.2 -7.6 -3.8 -8.05 -3.3 -8.35 -3.0 -8.4 -2.45 -8.55 -0.5 -8.65 Q0.9 -8.3 1.6 -6.95 L2.55 -5.15 2.95 -4.4 3.1 -3.95 3.2 -3.65 3.3 -3.35 3.8 -2.15 3.95 -1.7 4.05 -1.4 4.2 -0.8 4.3 -0.35 4.6 0.9 4.8 2.5 4.85 3.4 4.9 4.75 5.05 6.25 Q5.15 7.15 4.85 7.9 L4.2 8.55 3.6 8.65 2.25 8.65 0.95 8.65 -0.45 8.65 -1.25 8.65 -2.35 8.4 -4.0 7.85 -4.1 7.85 Q-4.65 8.25 -4.9 7.7 L-4.95 6.85 -4.95 5.7 -4.85 4.1 -4.85 2.7 -4.85 1.4 -4.85 0.0 -4.85 -1.35 -4.8 -2.75 -4.8 -4.15" fill="#333333" fill-rule="evenodd" stroke="none"/>
  </g>
</svg>
