<?xml version="1.0" encoding="UTF-8" standalone="no"?>
<svg xmlns:xlink="http://www.w3.org/1999/xlink" height="26.95px" width="23.1px" xmlns="http://www.w3.org/2000/svg">
  <g transform="matrix(1.0, 0.0, 0.0, 1.0, 11.45, 13.45)">
    <path d="M0.9 -12.7 L1.4 -12.4 Q1.45 -12.35 1.8 -12.15 L2.1 -11.8 2.15 -10.95 2.15 -10.45 2.2 -10.05 2.15 -9.9 2.05 -9.5 2.1 -9.4 2.15 -9.3 2.2 -9.25 2.25 -9.1 2.25 -8.95 2.2 -8.9 2.15 -8.8 2.15 -8.7 2.7 -8.65 2.8 -8.6 2.9 -8.45 2.95 -8.35 2.95 -8.3 2.95 -7.9 3.0 -7.85 3.2 -7.85 5.1 -8.1 9.4 -8.2 10.05 -7.95 10.8 -7.75 11.25 -7.4 11.35 -7.15 11.5 -6.9 11.6 -6.4 11.65 -6.05 11.6 -5.45 10.9 -4.8 9.75 -4.4 7.8 -4.0 Q6.75 -3.85 5.55 -3.3 L4.7 -1.8 4.95 -1.35 4.9 -0.3 5.0 0.7 5.15 1.35 5.25 1.65 5.25 2.0 5.2 2.05 4.8 2.4 4.25 2.7 3.1 2.9 Q2.7 3.05 2.35 3.35 L2.35 3.45 2.3 4.1 2.4 4.8 2.45 4.95 Q7.0 3.55 7.65 4.7 L7.6 4.95 Q7.55 5.55 7.05 5.95 L6.75 6.45 6.65 6.75 Q6.55 7.05 6.8 7.3 L7.25 7.95 7.5 9.0 7.6 9.5 7.7 9.9 7.75 10.25 7.7 11.0 6.55 11.85 4.6 12.75 Q2.2 13.5 0.0 13.45 L-2.1 13.1 Q-2.85 12.65 -3.8 12.3 -3.95 12.25 -4.05 12.15 L-4.65 11.8 -5.2 11.45 -6.3 10.55 -6.85 9.0 -7.1 6.95 -7.05 4.9 Q-7.0 4.05 -7.25 3.25 L-7.2 2.5 -7.1 2.15 -7.05 1.9 -7.0 1.15 -7.0 1.05 -6.55 0.4 -6.25 0.1 -6.05 -0.05 -6.05 -0.15 -6.0 -1.6 -5.9 -2.45 -5.85 -2.6 Q-5.65 -2.85 -5.6 -3.05 L-5.6 -3.2 -5.8 -3.5 -6.0 -3.8 -6.2 -4.1 -6.25 -4.2 -6.4 -4.5 -6.5 -4.6 -6.5 -4.85 -6.7 -5.85 -6.9 -7.7 -6.8 -8.5 -6.8 -8.8 -6.8 -9.05 -6.65 -9.4 Q-7.15 -10.05 -7.0 -10.85 L-7.05 -11.3 -7.25 -11.5 -7.75 -11.65 Q-8.05 -11.7 -5.85 -12.75 -3.65 -13.8 -1.5 -13.3 L0.9 -12.7" fill="#ebd5be" fill-rule="evenodd" stroke="none"/>
    <path d="M0.15 -5.4 L0.45 -4.7 0.75 -3.45 1.15 -0.6 1.4 -0.05 1.4 0.05 Q0.95 0.95 0.1 0.3 L0.0 0.15 Q-0.1 -0.3 -0.65 -0.35 L-2.2 -0.25 -2.3 -1.3 -1.9 -1.6 -1.85 -1.75 -1.9 -2.55 Q-1.9 -4.45 -2.25 -6.4 L-2.55 -8.35 Q-2.45 -8.55 -3.0 -8.65 -3.7 -8.5 -3.9 -9.05 -5.6 -10.6 -7.65 -9.2 L-8.1 -9.15 -8.6 -9.55 -8.5 -10.05 -7.85 -11.65 -6.8 -11.5 -6.65 -11.2 Q-6.15 -10.7 -5.0 -10.55 L-2.45 -10.6 -1.85 -9.85 -1.5 -9.05 -0.7 -7.25 0.15 -5.45 0.15 -5.4" fill="#dd9222" fill-rule="evenodd" stroke="none"/>
    <path d="M-11.45 -10.85 L-11.4 -11.0 -10.7 -11.25 -9.7 -11.15 -9.15 -10.55 Q-8.3 -10.0 -7.5 -10.05 -7.35 -9.95 -7.35 -9.6 L-7.3 -8.65 -6.7 -4.45 -6.25 -4.15 -6.1 -3.55 -5.85 -2.65 Q-5.5 -1.25 -6.0 0.0 L-6.2 0.05 -6.55 0.9 -6.75 1.0 -7.2 1.1 Q-7.5 0.85 -7.4 0.5 L-7.35 -0.5 -7.4 -0.8 Q-7.7 -1.25 -7.8 -1.85 L-8.25 -3.8 -8.45 -5.35 -9.5 -7.55 Q-9.9 -7.7 -10.5 -8.0 L-10.55 -8.4 -10.5 -8.55 -10.3 -8.75 Q-10.15 -9.05 -10.5 -9.4 L-11.45 -10.85" fill="#dd9222" fill-rule="evenodd" stroke="none"/>
    <path d="M3.8 -1.95 L3.85 -1.9 3.85 -1.8 3.9 -1.75 3.9 -1.7 3.95 -1.6 4.0 -1.45 4.05 -1.25 4.1 -1.1 4.1 -1.05 4.2 -1.0 4.3 -0.95 4.35 -0.9 4.35 -0.85 4.4 -0.8 4.4 -0.65 4.45 -0.6 4.55 -0.5 4.6 -0.45 4.65 -0.35 4.75 -0.25 4.75 -0.15 4.8 -0.05 4.8 0.0 4.85 0.05 4.85 0.1 4.9 0.2 5.0 0.35 5.05 0.4 5.05 0.5 5.1 0.55 5.1 0.65 5.15 0.65 5.15 0.75 5.2 0.8 5.2 0.85 5.25 0.9 5.25 1.0 5.3 1.05 5.35 1.4 5.35 1.8 5.35 2.2 5.35 2.3 5.4 2.35 5.4 2.4 5.45 2.45 5.45 2.55 5.5 2.75 5.55 2.9 5.6 3.0 5.6 3.15 5.65 3.45 5.7 3.7 5.75 3.8 5.75 4.05 5.8 4.1 5.8 4.15 5.85 4.2 5.85 4.3 5.9 4.35 5.9 4.4 5.95 4.45 6.0 4.5 6.0 4.7 6.05 4.75 6.05 4.8 6.05 4.9 6.0 5.0 6.0 5.05 5.9 5.15 5.85 5.15 5.75 5.2 5.75 5.25 5.7 5.3 5.6 5.4 5.55 5.45 5.45 5.45 5.35 5.4 5.25 5.4 5.2 5.45 5.1 5.55 5.05 5.6 4.95 5.6 4.85 5.55 4.75 5.5 4.7 5.45 4.65 5.45 4.6 5.35 4.55 5.3 4.55 5.05 4.5 5.0 4.5 4.9 4.1 5.05 3.45 5.35 2.55 5.35 2.4 5.3 2.35 5.25 2.3 5.25 1.9 5.1 1.8 5.1 1.75 5.05 1.7 5.0 1.7 4.95 1.65 4.9 1.65 4.85 1.65 4.75 1.65 4.65 1.65 4.5 1.65 4.45 1.7 4.4 1.7 4.3 1.7 4.2 1.7 4.1 1.7 3.95 1.75 3.9 1.75 3.75 2.2 3.25 Q2.55 2.85 3.05 2.6 L3.1 2.55 3.25 2.5 3.35 2.5 3.4 2.45 3.4 2.4 3.45 2.3 3.5 2.15 3.5 2.0 3.6 1.9 3.7 1.85 3.75 1.8 3.75 1.55 3.7 1.45 3.7 1.3 3.6 1.15 3.55 1.05 3.5 0.95 3.45 0.85 3.45 0.8 3.4 0.75 3.4 0.45 3.45 0.4 3.45 0.3 3.4 0.1 3.4 -0.1 3.4 -0.2 3.45 -0.25 3.45 -0.3 3.5 -0.35 3.6 -0.35 3.65 -0.4 3.6 -0.45 3.6 -0.55 3.55 -0.6 3.55 -0.65 3.5 -0.7 3.5 -0.8 3.45 -1.0 3.4 -1.15 3.35 -1.25 3.35 -1.35 3.3 -1.5 3.2 -1.7 3.15 -1.85 3.1 -1.9 3.1 -2.0 3.05 -2.05 3.05 -2.2 3.05 -2.3 3.05 -2.4 3.05 -2.45 3.1 -2.5 3.1 -2.55 3.15 -2.6 3.25 -2.6 3.35 -2.65 3.45 -2.6 3.55 -2.55 3.6 -2.5 3.6 -2.4 3.65 -2.35 3.65 -2.25 3.7 -2.2 3.75 -2.15 3.8 -2.05 3.8 -1.95" fill="#ebd5be" fill-rule="evenodd" stroke="none"/>
    <path d="M3.65 -10.8 L3.8 -10.85 3.9 -10.8 3.95 -10.75 4.0 -10.7 4.05 -10.65 4.05 -10.6 4.1 -10.55 4.15 -10.55 4.25 -10.4 4.35 -10.2 4.5 -10.0 4.5 -9.95 4.55 -9.9 4.55 -9.85 4.6 -9.8 4.6 -9.7 4.65 -9.65 4.65 -9.6 4.7 -9.55 4.75 -9.15 4.8 -8.7 4.8 -8.2 4.8 -8.1 4.8 -8.05 4.75 -7.95 4.75 -7.85 4.7 -7.75 4.65 -7.7 4.65 -7.65 4.55 -7.55 4.55 -7.4 4.5 -7.35 4.4 -7.25 4.35 -7.2 4.25 -7.1 4.25 -7.05 4.2 -7.0 4.1 -6.95 3.95 -6.9 3.85 -6.9 3.7 -6.9 3.65 -6.95 3.6 -7.0 3.6 -7.3 3.65 -7.35 3.7 -7.4 3.75 -7.45 3.7 -7.5 3.6 -7.6 3.55 -7.65 3.55 -7.7 3.45 -7.75 3.35 -7.8 3.35 -7.85 3.3 -7.9 3.3 -8.0 3.25 -8.05 3.2 -8.1 3.15 -8.2 3.1 -8.25 3.1 -8.6 3.1 -9.1 3.1 -9.6 3.1 -9.7 3.1 -9.8 3.15 -9.85 3.2 -9.9 3.2 -9.95 3.25 -10.0 3.25 -10.05 3.3 -10.1 3.3 -10.2 3.35 -10.25 3.45 -10.35 3.45 -10.45 3.5 -10.5 3.5 -10.55 3.55 -10.6 3.55 -10.65 3.6 -10.7 3.6 -10.75 3.65 -10.8" fill="#ffffff" fill-rule="evenodd" stroke="none"/>
    <path d="M7.1 3.6 L7.15 3.65 7.2 3.65 7.25 3.7 7.25 3.75 7.3 3.8 7.3 3.85 7.3 3.95 7.3 4.05 7.3 4.15 7.3 4.35 7.3 4.4 7.25 4.45 7.25 4.55 7.2 4.6 7.05 4.85 6.85 5.1 6.2 5.55 6.1 5.6 5.9 5.6 5.55 5.65 5.45 5.6 5.4 5.55 5.3 5.55 5.3 5.5 5.25 5.45 5.2 5.4 5.15 5.4 5.1 5.35 5.05 5.3 5.0 5.25 5.0 5.2 4.95 5.2 4.95 5.05 4.95 4.95 4.95 4.9 4.95 4.65 5.0 4.35 5.1 4.25 5.2 4.1 5.4 3.9 5.6 3.65 5.75 3.6 5.9 3.5 6.05 3.45 6.15 3.45 6.2 3.4 6.35 3.4 6.4 3.35 6.5 3.35 6.6 3.4 6.7 3.45 6.75 3.45 6.85 3.55 7.0 3.55 7.1 3.6" fill="#ebd5be" fill-rule="evenodd" stroke="none"/>
  </g>
</svg>
