<?xml version="1.0" encoding="UTF-8" standalone="no"?>
<svg xmlns:xlink="http://www.w3.org/1999/xlink" height="27.95px" width="24.15px" xmlns="http://www.w3.org/2000/svg">
  <g transform="matrix(1.0, 0.0, 0.0, 1.0, 12.1, 13.85)">
    <path d="M9.8 -6.8 L10.05 -6.7 11.05 -6.4 11.45 -5.5 Q11.25 -4.8 10.6 -4.55 L9.5 -3.9 Q8.15 -3.0 6.35 -3.0 5.4 -3.0 5.0 -2.45 L5.05 1.15 Q5.35 1.6 5.45 2.2 L5.3 2.95 5.2 3.1 Q4.9 3.25 5.25 3.55 L7.6 4.2 Q8.3 4.85 8.15 5.7 L7.85 6.25 Q6.9 7.1 6.65 8.25 6.45 9.15 6.95 10.05 7.25 10.55 7.1 11.1 L6.5 11.75 Q4.45 12.8 2.25 13.45 L-0.45 13.2 -0.9 12.3 -0.65 11.4 -0.5 11.3 0.1 10.9 Q0.0 10.05 0.4 9.1 L0.8 8.35 1.0 8.05 1.25 7.7 Q0.15 7.1 -0.1 5.9 -0.6 3.7 -0.15 1.55 0.1 0.25 0.5 -0.7 0.0 -1.9 0.45 -3.25 L0.9 -3.7 2.1 -4.0 2.45 -4.4 3.7 -5.2 Q6.15 -6.3 8.4 -6.9 L9.8 -6.8" fill="#663333" fill-opacity="0.101960786" fill-rule="evenodd" stroke="none"/>
    <path d="M9.0 -6.55 L9.45 -6.5 Q10.25 -6.15 10.25 -5.3 L10.0 -4.9 Q8.2 -3.1 5.45 -3.3 L3.55 -2.4 3.45 -2.1 Q3.55 -0.9 3.3 0.15 L2.9 0.9 3.7 2.1 Q4.6 2.6 4.9 3.6 5.25 5.0 4.75 6.3 5.6 8.35 5.0 10.5 4.6 11.9 3.35 12.45 3.25 13.5 2.3 13.7 0.65 13.55 -1.0 13.65 L-1.95 13.1 -2.0 12.8 -2.05 12.35 -1.95 11.75 -1.65 11.0 -1.7 10.6 -1.65 9.2 -1.4 8.15 -2.2 7.35 Q-2.95 6.4 -2.55 5.15 L-1.6 3.35 -1.5 2.15 -1.65 1.85 -1.75 0.95 -1.4 0.05 -1.0 -0.9 Q-2.1 -1.1 -2.35 -2.0 -2.55 -2.9 -2.05 -3.5 L-1.65 -3.65 1.0 -4.25 1.0 -4.55 Q0.85 -5.05 1.15 -5.6 1.75 -6.6 3.1 -6.45 L4.8 -6.25 7.5 -6.45 9.0 -6.55" fill="#663333" fill-opacity="0.101960786" fill-rule="evenodd" stroke="none"/>
    <path d="M1.5 -9.2 L2.2 -8.9 Q3.25 -8.3 3.35 -7.25 3.4 -6.15 2.8 -5.45 L2.9 -4.55 Q2.85 -4.2 2.95 -3.8 3.25 -2.9 3.75 -2.15 L3.95 -1.4 Q4.3 1.0 2.9 2.95 L2.75 3.7 4.25 5.4 Q5.2 6.25 5.25 7.45 5.35 9.1 4.85 10.4 L4.1 11.6 Q3.4 12.1 2.5 12.3 0.0 13.1 -2.05 11.5 L-2.6 11.0 -2.95 10.35 -3.25 6.15 Q-3.5 4.35 -2.8 2.85 -2.5 2.2 -2.5 1.35 -2.55 0.0 -1.85 -1.05 L-1.9 -2.7 -1.7 -3.45 -1.0 -4.35 -1.5 -4.95 Q-1.75 -5.8 -1.6 -6.9 L-1.5 -7.8 -1.05 -8.8 Q-0.35 -9.55 0.6 -9.45 L1.5 -9.2" fill="#663333" fill-opacity="0.101960786" fill-rule="evenodd" stroke="none"/>
    <path d="M3.25 -7.7 L2.65 -6.85 -3.9 -6.55 -3.7 -7.75 -2.3 -8.65 2.2 -8.85 2.85 -8.6 3.25 -7.7" fill="#663333" fill-opacity="0.101960786" fill-rule="evenodd" stroke="none"/>
    <path d="M-3.35 -8.85 Q-2.55 -7.9 -2.1 -6.9 L-1.9 -6.0 -1.6 -4.9 Q-1.05 -4.15 -1.2 -3.15 L-0.9 -2.3 Q-0.8 -1.65 -1.25 -1.2 -2.8 0.15 -4.7 -0.85 L-4.5 -1.75 -4.5 -1.85 Q-5.2 -2.0 -5.7 -2.45 -6.3 -2.95 -5.95 -3.75 L-5.1 -4.6 Q-6.3 -6.45 -5.75 -8.65 L-5.2 -9.25 -4.4 -9.4 Q-3.75 -9.3 -3.35 -8.85" fill="#663333" fill-opacity="0.101960786" fill-rule="evenodd" stroke="none"/>
    <path d="M-7.15 -4.1 L-6.6 -4.25 -5.95 -4.0 Q-5.5 -3.5 -5.5 -2.8 L-5.7 -0.55 -5.1 0.5 -5.45 1.4 -7.1 1.45 -8.0 0.25 -8.05 0.1 -8.05 -0.35 -8.0 -2.45 Q-7.8 -3.45 -7.15 -4.1" fill="#663333" fill-opacity="0.101960786" fill-rule="evenodd" stroke="none"/>
    <path d="M-5.0 -8.25 L-3.4 -7.95 -2.5 -7.55 -2.35 -5.6 -2.85 -4.7 -2.75 -4.2 Q-2.4 -3.35 -3.2 -2.9 -4.25 -2.65 -4.75 -3.65 L-5.3 -5.1 -5.65 -6.8 Q-5.7 -7.65 -5.2 -8.15 L-5.0 -8.25" fill="#663333" fill-opacity="0.101960786" fill-rule="evenodd" stroke="none"/>
    <path d="M-4.55 -10.95 L-4.8 -11.0 -5.35 -10.8 -4.55 -10.95 M0.4 -13.3 L1.15 -12.9 1.25 -12.15 Q1.15 -11.75 0.7 -11.55 L-3.45 -10.95 -3.0 -10.75 -2.2 -10.5 -0.8 -10.05 -0.35 -9.15 -0.9 -8.4 -3.5 -9.05 -5.6 -8.9 -6.25 -9.25 -6.7 -9.4 -7.4 -9.4 -8.3 -8.85 -9.15 -7.85 -9.6 -7.65 -10.8 -7.8 -12.05 -9.0 -12.1 -9.15 -12.1 -9.45 -12.1 -9.6 -11.8 -10.05 -11.2 -10.3 -9.75 -10.45 -9.45 -10.9 Q-8.1 -11.15 -7.05 -12.1 -5.95 -13.2 -4.2 -13.2 L0.4 -13.3" fill="#ffffff" fill-opacity="0.101960786" fill-rule="evenodd" stroke="none"/>
    <path d="M-4.85 -13.75 Q-4.35 -13.95 -4.0 -13.45 L-2.6 -12.25 Q-2.4 -11.6 -2.45 -10.75 -2.5 -9.9 -3.3 -9.55 -4.65 -9.25 -5.7 -10.15 -6.15 -10.55 -6.1 -11.3 L-6.45 -12.2 -5.1 -13.65 Q-4.95 -13.65 -4.85 -13.75" fill="#ffffff" fill-opacity="0.101960786" fill-rule="evenodd" stroke="none"/>
    <path d="M-4.95 4.25 L-4.8 6.05 -4.15 11.0 -4.8 11.6 -5.9 11.45 -6.4 10.75 -6.55 9.8 -6.8 7.8 -6.95 7.3 Q-8.1 5.3 -7.45 2.75 L-6.5 2.2 -6.35 1.3 -5.8 1.0 Q-5.4 1.1 -5.35 1.45 L-4.95 4.25" fill="#ffffff" fill-opacity="0.101960786" fill-rule="evenodd" stroke="none"/>
    <path d="M-4.15 3.3 Q-3.85 4.3 -4.0 5.35 -4.1 6.0 -4.6 6.25 L-5.65 6.1 Q-6.5 5.95 -6.75 5.3 -7.1 4.25 -6.85 3.2 L-5.2 2.4 -4.55 2.65 -4.15 3.3" fill="#ffffff" fill-opacity="0.101960786" fill-rule="evenodd" stroke="none"/>
    <path d="M9.7 -8.15 L10.0 -8.2 Q11.15 -7.95 11.5 -7.0 11.85 -6.15 11.0 -5.7 L10.6 -5.6 6.2 -6.05 Q5.1 -6.2 4.65 -7.05 L4.95 -7.95 9.05 -7.6 9.7 -8.15" fill="#ffffff" fill-opacity="0.101960786" fill-rule="evenodd" stroke="none"/>
    <path d="M-4.65 -9.9 L-4.1 -9.7 -3.8 -9.15 -3.45 -8.55 Q-3.3 -8.15 -3.65 -8.0 L-3.95 -8.25 -4.15 -8.6 -4.3 -9.0 -4.95 -9.3 -6.45 -9.4 -6.6 -9.25 Q-7.15 -7.85 -6.85 -6.5 L-6.45 -4.95 -6.05 -4.35 -5.95 -4.2 -5.65 -3.8 -5.25 -3.15 -4.55 -2.5 -4.1 -2.45 Q-3.8 -2.35 -3.55 -2.85 L-3.45 -3.15 -3.25 -3.65 -2.95 -3.95 -2.8 -3.8 -2.65 -3.15 -2.9 -2.45 -3.25 -2.1 Q-3.95 -1.6 -4.7 -1.65 -5.1 -1.9 -5.45 -2.3 -6.15 -2.9 -6.65 -3.8 L-7.15 -4.65 -7.2 -4.75 Q-7.8 -7.0 -7.35 -9.2 L-6.95 -9.95 -4.65 -9.9" fill="#333333" fill-rule="evenodd" stroke="none"/>
    <path d="M-4.95 -7.8 L-4.8 -7.95 -4.45 -7.9 -4.4 -7.8 -4.35 -7.75 -4.35 -7.7 -4.3 -7.65 -4.2 -7.4 -4.15 -7.3 Q-4.05 -7.1 -4.25 -6.95 L-4.4 -6.6 Q-4.55 -5.4 -3.8 -4.8 L-3.35 -4.65 -3.3 -4.65 -3.25 -4.6 -3.25 -4.5 -3.35 -4.15 Q-3.75 -3.9 -4.15 -4.3 -4.9 -5.0 -5.0 -5.85 L-4.95 -7.8" fill="#333333" fill-rule="evenodd" stroke="none"/>
    <path d="M2.55 -8.9 L2.6 -8.9 2.65 -8.8 2.75 -8.75 2.8 -8.7 2.8 -8.5 2.8 -8.4 -3.6 -8.1 -3.6 -8.15 -2.15 -8.6 -0.8 -8.9 0.5 -9.1 2.1 -9.3 2.4 -9.25 Q2.75 -9.1 2.55 -8.9" fill="#333333" fill-rule="evenodd" stroke="none"/>
    <path d="M2.8 -11.35 Q3.3 -11.4 3.35 -11.0 L3.65 -10.0 3.95 -9.15 4.35 -7.55 4.2 -6.45 2.35 -6.35 2.05 -7.15 1.45 -9.4 1.15 -10.75 1.25 -11.15 2.8 -11.35" fill="#333333" fill-rule="evenodd" stroke="none"/>
    <path d="M5.5 -8.8 Q5.7 -8.1 5.3 -7.4 L4.8 -6.85 3.65 -6.75 3.95 -7.1 4.8 -7.75 Q5.0 -8.55 4.65 -9.35 L3.7 -10.7 3.25 -11.1 3.85 -11.15 Q4.85 -10.6 5.1 -9.65 L5.5 -8.8" fill="#333333" fill-rule="evenodd" stroke="none"/>
    <path d="M6.5 -8.5 L6.95 -8.5 9.3 -8.5 11.3 -7.9 11.45 -7.65 Q12.1 -6.9 12.05 -6.0 12.0 -5.15 11.35 -4.5 10.25 -3.45 8.7 -3.45 L7.05 -3.2 6.65 -3.1 5.7 -2.8 Q5.25 -2.8 5.1 -2.3 L5.0 -2.3 4.9 -2.3 4.55 -2.85 4.7 -3.25 Q5.15 -3.85 6.05 -3.85 L9.85 -4.45 10.2 -4.7 10.45 -4.8 10.6 -4.95 11.25 -5.85 Q11.3 -6.55 10.9 -7.1 L10.5 -7.45 10.3 -7.5 8.25 -7.75 Q6.75 -7.6 5.2 -8.3 L5.25 -8.4 6.5 -8.5" fill="#333333" fill-rule="evenodd" stroke="none"/>
    <path d="M8.05 -5.75 L8.05 -5.65 Q8.25 -4.95 9.05 -5.5 9.3 -5.2 8.85 -4.9 8.1 -4.55 7.7 -5.2 L7.55 -5.1 Q7.25 -4.5 6.6 -4.6 L6.45 -4.8 Q6.2 -5.5 6.6 -4.95 7.05 -4.95 7.35 -5.5 7.6 -6.0 8.05 -5.75" fill="#333333" fill-rule="evenodd" stroke="none"/>
    <path d="M9.75 -5.45 Q9.5 -4.6 9.45 -5.3 L9.75 -5.45" fill="#333333" fill-rule="evenodd" stroke="none"/>
    <path d="M4.55 -0.9 Q4.35 -1.8 4.9 -2.8 5.4 -3.05 5.3 -2.55 5.0 -1.2 5.55 0.3 L5.7 0.65 6.0 1.75 5.95 1.75 5.45 1.6 5.15 1.6 5.0 0.9 4.55 -0.9" fill="#333333" fill-rule="evenodd" stroke="none"/>
    <path d="M6.45 4.0 L6.4 4.05 Q6.15 4.6 5.55 4.4 L4.6 4.75 4.6 4.7 4.65 4.6 4.75 4.3 4.7 4.15 4.75 4.1 4.75 3.95 4.75 3.9 4.8 3.8 5.3 3.5 7.25 3.15 7.5 3.3 7.65 3.45 7.95 3.85 8.0 3.9 Q8.15 4.65 7.7 5.3 L7.7 5.6 7.15 6.35 Q7.05 7.95 7.45 9.6 L7.55 11.1 7.2 11.55 Q6.9 11.7 6.9 11.4 L6.55 9.05 Q6.2 7.45 6.4 5.85 L6.8 5.5 6.8 5.35 7.0 4.95 7.2 4.4 7.2 4.2 Q7.05 3.9 6.85 4.0 L6.45 4.0" fill="#333333" fill-rule="evenodd" stroke="none"/>
    <path d="M-2.1 -9.75 L-2.2 -9.8 -2.4 -10.1 -3.3 -10.25 -4.9 -10.45 Q-5.9 -10.2 -6.35 -10.8 L-2.05 -10.6 -1.6 -10.1 -1.3 -9.9 -1.05 -9.55 -0.95 -9.45 Q-0.8 -9.2 -0.8 -8.75 L-0.75 -8.7 -0.75 -8.6 Q-0.65 -8.3 -1.1 -8.25 L-1.2 -8.3 -1.3 -8.45 -1.35 -8.5 -1.4 -8.6 -1.45 -8.8 -1.45 -8.9 -1.6 -9.4 -1.75 -9.5 -1.85 -9.55 -1.9 -9.6 -2.05 -9.7 -2.1 -9.75" fill="#333333" fill-rule="evenodd" stroke="none"/>
    <path d="M-6.1 -10.85 Q-6.75 -10.9 -7.4 -11.5 -7.9 -11.75 -7.9 -11.2 L-7.9 -10.5 Q-7.95 -9.9 -8.45 -9.9 L-8.5 -9.95 -8.5 -10.65 -8.1 -12.15 -7.6 -12.15 Q-6.7 -11.7 -6.1 -10.95 -5.75 -10.75 -6.1 -10.85" fill="#333333" fill-rule="evenodd" stroke="none"/>
    <path d="M-10.25 -10.85 L-10.35 -10.9 -10.45 -10.2 -11.6 -10.1 -11.65 -10.15 -11.7 -10.6 Q-11.05 -10.75 -11.15 -11.25 -11.25 -11.85 -10.6 -11.75 L-9.4 -10.95 -8.85 -10.35 -9.0 -10.2 Q-9.75 -10.4 -10.25 -10.85" fill="#333333" fill-rule="evenodd" stroke="none"/>
    <path d="M-11.8 -10.2 Q-12.0 -10.7 -11.55 -10.65 L-10.5 -9.6 Q-9.9 -9.25 -10.15 -8.65 L-10.25 -8.4 -8.6 -7.3 -8.5 -7.05 -8.55 -6.65 -8.8 -6.65 -9.5 -6.8 -11.75 -8.05 -11.75 -8.15 Q-11.85 -8.65 -11.35 -8.95 -10.95 -8.9 -11.35 -9.35 L-11.8 -10.2" fill="#333333" fill-rule="evenodd" stroke="none"/>
    <path d="M-9.05 -7.35 L-8.95 -7.0 -8.4 -5.9 -8.0 -5.3 -7.65 -3.95 -7.25 -2.1 -7.05 -1.45 -7.05 -1.25 -7.05 -1.15 -6.75 1.35 -6.85 2.8 Q-7.05 4.65 -6.85 6.55 L-6.25 9.05 -5.85 10.25 Q-5.5 11.35 -4.5 11.65 -3.85 11.7 -3.85 12.2 -4.0 12.45 -4.3 12.4 -5.4 12.3 -5.95 11.65 L-6.7 10.25 -7.45 8.45 -7.7 7.15 -7.75 5.3 -7.75 4.25 -7.7 3.15 -7.7 3.0 -7.6 1.05 Q-7.6 0.1 -7.75 -0.75 L-8.2 -2.7 -8.3 -3.45 Q-8.35 -4.4 -8.9 -5.4 L-9.5 -6.75 Q-9.65 -7.45 -9.05 -7.35" fill="#333333" fill-rule="evenodd" stroke="none"/>
    <path d="M7.3 10.25 L7.35 10.75 7.05 11.75 6.95 12.05 6.6 12.3 4.75 12.95 0.9 14.0 Q-1.1 14.4 -3.1 13.5 L-3.35 13.35 -5.05 12.3 Q-5.35 12.15 -5.25 11.75 -4.95 11.35 -4.6 11.55 L-3.4 12.5 -1.5 13.15 0.4 13.35 1.55 13.0 2.3 12.95 4.15 12.3 Q4.9 11.9 5.7 11.8 L6.35 11.45 6.5 11.05 Q6.6 10.55 6.95 10.2 L7.2 10.1 7.3 10.25" fill="#333333" fill-rule="evenodd" stroke="none"/>
    <path d="M-2.7 -6.95 Q-2.95 -7.35 -2.6 -7.8 L-2.5 -7.85 -2.0 -6.65 -1.9 -6.3 Q-1.6 -4.45 -1.65 -2.8 L-1.65 -2.3 -1.7 -2.1 Q-2.15 -1.25 -1.65 -0.5 L-1.8 -0.15 -1.9 0.05 -2.25 0.05 Q-2.65 -0.2 -2.6 -0.65 L-2.45 -2.05 -2.4 -2.4 -2.2 -3.8 -2.3 -5.65 -2.7 -6.95" fill="#333333" fill-rule="evenodd" stroke="none"/>
    <path d="M0.8 -0.25 L1.1 -0.05 Q1.7 0.0 1.75 0.2 L1.85 0.4 1.75 0.55 1.6 0.65 0.95 0.65 0.6 0.4 -1.5 0.25 Q-2.1 0.0 -2.15 -0.4 L0.5 -0.25 0.8 -0.25" fill="#333333" fill-rule="evenodd" stroke="none"/>
    <path d="M0.9 -2.1 L0.35 -3.65 -0.05 -5.4 Q-0.25 -6.6 -0.9 -7.65 -1.25 -8.1 -0.7 -8.15 L-0.55 -8.0 Q0.1 -7.05 0.3 -6.2 L0.95 -4.0 1.5 -1.95 1.65 0.45 1.55 0.6 1.4 0.7 1.25 0.8 1.15 0.8 1.1 0.75 Q0.55 0.7 0.8 0.25 1.3 -0.8 0.9 -2.1" fill="#333333" fill-rule="evenodd" stroke="none"/>
    <path d="M-0.95 -2.35 L-1.05 -2.1 -1.7 -1.4 Q-1.9 -1.6 -1.6 -2.05 -1.2 -2.55 -0.95 -2.35" fill="#333333" fill-rule="evenodd" stroke="none"/>
    <path d="M-1.2 -1.2 Q-0.65 -1.95 -0.15 -1.6 L-0.85 -0.85 Q-1.1 -0.55 -1.45 -0.7 L-1.2 -1.2" fill="#333333" fill-rule="evenodd" stroke="none"/>
    <path d="M-5.55 -2.55 L-5.55 -2.5 Q-5.35 -1.2 -5.45 0.1 L-5.5 0.1 -5.5 0.2 -6.2 0.1 -6.4 0.35 -6.35 0.45 Q-6.15 1.1 -6.55 1.4 L-6.7 1.35 Q-7.25 0.45 -6.55 -0.25 -6.25 -0.55 -5.9 -0.45 L-5.95 -1.7 Q-6.0 -2.3 -5.55 -2.55" fill="#333333" fill-rule="evenodd" stroke="none"/>
    <path d="M-7.0 -2.9 Q-6.7 -2.8 -6.85 -2.55 -7.3 -1.75 -7.6 -2.3 L-7.0 -2.9" fill="#333333" fill-rule="evenodd" stroke="none"/>
    <path d="M-7.15 -1.75 Q-6.8 -2.1 -6.45 -2.05 -6.1 -2.1 -6.45 -1.8 -6.75 -1.55 -7.2 -1.4 -7.5 -1.25 -7.15 -1.75" fill="#333333" fill-rule="evenodd" stroke="none"/>
    <path d="M-6.5 4.3 L-6.35 3.55 Q-5.9 2.75 -5.65 3.3 L-6.5 4.3" fill="#333333" fill-rule="evenodd" stroke="none"/>
    <path d="M-6.4 5.6 L-6.65 5.85 Q-6.8 5.7 -6.55 5.35 L-5.7 3.7 Q-5.5 3.25 -4.95 3.4 L-5.15 3.85 -6.4 5.6" fill="#333333" fill-rule="evenodd" stroke="none"/>
    <path d="M-5.3 5.65 L-5.9 6.0 Q-5.85 5.65 -5.4 5.45 -5.1 5.3 -5.3 5.65" fill="#333333" fill-rule="evenodd" stroke="none"/>
    <path d="M-0.9 -12.85 Q-1.3 -12.95 -1.15 -12.75 L-4.4 -13.1 -6.7 -12.3 Q-7.25 -11.9 -7.4 -11.25 L-7.5 -11.2 Q-7.95 -11.0 -8.0 -11.4 -8.2 -11.9 -7.65 -12.3 L-6.4 -13.15 -4.3 -13.8 -1.95 -13.6 Q-0.8 -13.3 -0.65 -12.75 L-0.9 -12.85" fill="#333333" fill-rule="evenodd" stroke="none"/>
    <path d="M2.35 -12.7 L2.45 -12.5 Q2.7 -12.05 2.15 -11.85 L1.4 -12.8 -0.7 -12.65 -0.7 -12.55 -0.75 -12.4 Q-0.95 -12.2 -1.1 -12.5 L-1.0 -13.0 -0.55 -13.45 1.65 -13.5 2.1 -13.15 2.35 -12.7" fill="#333333" fill-rule="evenodd" stroke="none"/>
    <path d="M5.5 1.1 L5.5 1.15 5.6 1.2 5.65 1.2 5.7 1.25 5.8 1.35 5.85 1.5 6.0 1.7 6.05 1.85 6.1 1.9 6.1 2.0 6.15 2.05 6.15 2.15 6.15 2.2 6.2 2.3 6.2 2.4 6.25 2.5 6.25 2.65 6.3 2.75 6.3 2.9 6.35 2.95 6.35 3.05 6.4 3.05 6.4 3.15 6.4 3.4 6.4 3.5 6.35 3.55 6.35 3.6 6.3 3.65 6.2 3.65 6.1 3.65 6.05 3.6 6.0 3.55 5.95 3.55 5.95 3.65 5.9 3.65 5.9 3.8 5.85 3.8 5.8 3.85 5.7 3.85 5.6 3.85 5.6 3.8 5.55 3.75 5.55 3.7 5.5 3.65 5.5 3.55 5.5 3.5 5.5 3.4 5.5 3.3 5.5 3.1 5.5 3.0 5.45 2.95 5.45 2.75 5.4 2.7 5.4 2.65 5.35 2.65 5.35 2.6 5.3 2.45 5.35 2.35 5.3 2.2 5.3 1.95 5.3 1.85 5.25 1.75 5.25 1.65 5.2 1.55 5.15 1.4 5.15 1.15 5.2 1.15 5.25 1.1 5.3 1.05 5.35 1.05 5.45 1.1 5.5 1.1" fill="#333333" fill-rule="evenodd" stroke="none"/>
    <path d="M5.15 3.75 L5.25 3.8 5.35 3.8 5.5 3.8 5.55 3.8 5.65 3.85 5.7 3.85 5.7 3.9 5.75 3.95 5.75 4.15 5.7 4.15 5.7 4.2 5.0 4.55 Q4.5 4.75 4.1 5.05 L4.05 5.05 4.0 5.1 3.95 5.15 3.95 5.2 3.9 5.25 3.8 5.35 3.65 5.4 3.55 5.5 3.5 5.5 3.5 5.6 3.45 5.65 3.4 5.7 3.35 5.75 2.75 5.75 2.65 5.75 2.6 5.7 2.6 5.65 2.55 5.6 2.55 5.45 2.6 5.4 2.6 5.35 2.65 5.35 2.7 5.3 2.75 5.3 2.85 5.3 2.9 5.25 2.95 5.2 3.0 5.15 3.1 5.1 3.15 5.05 3.25 4.85 3.4 4.7 3.7 4.45 3.75 4.4 4.15 4.15 4.6 3.9 4.7 3.8 4.75 3.75 4.8 3.75 4.85 3.7 5.0 3.7 5.1 3.7 5.15 3.75" fill="#333333" fill-rule="evenodd" stroke="none"/>
  </g>
</svg>
