<?xml version="1.0" encoding="UTF-8" standalone="no"?>
<svg xmlns:xlink="http://www.w3.org/1999/xlink" height="20.0px" width="20.0px" xmlns="http://www.w3.org/2000/svg">
  <g transform="matrix(1.0, 0.0, 0.0, 1.0, 0.0, 0.0)">
    <path d="M0.0 10.0 Q0.0 5.9 2.95 2.95 5.9 0.0 10.0 0.0 14.15 0.0 17.1 2.95 20.0 5.85 20.0 10.0 20.0 14.15 17.1 17.1 14.15 20.0 10.0 20.0 5.85 20.0 2.95 17.1 0.0 14.15 0.0 10.0" fill="#93c7b7" fill-rule="evenodd" stroke="none"/>
    <path d="M11.7 5.9 Q11.15 5.9 10.95 6.15 10.8 6.35 10.8 6.85 L10.8 8.45 13.15 8.45 13.05 10.6 10.8 10.6 10.8 16.65 8.5 16.65 8.5 10.6 6.9 10.6 6.9 8.45 8.5 8.45 8.5 6.6 Q8.5 5.4 9.25 4.65 10.05 3.8 11.6 3.8 L13.15 3.9 13.1 5.9 11.7 5.9" fill="#ffffff" fill-rule="evenodd" stroke="none"/>
  </g>
</svg>
