<?xml version="1.0" encoding="UTF-8" standalone="no"?>
<svg xmlns:xlink="http://www.w3.org/1999/xlink" height="19.8px" width="26.65px" xmlns="http://www.w3.org/2000/svg">
  <g transform="matrix(1.0, 0.0, 0.0, 1.0, 13.05, 8.6)">
    <path d="M2.2 -2.2 L2.55 -2.05 2.8 -1.9 3.05 -1.75 3.35 -1.45 3.5 -1.3 3.65 -1.15 3.95 -0.85 4.25 -0.55 4.4 -0.4 5.1 0.05 5.35 0.2 5.8 0.45 6.55 0.95 6.65 1.1 6.7 1.25 6.75 1.4 6.8 1.55 6.85 1.7 6.85 1.85 6.85 2.0 7.1 2.45 7.2 2.6 7.45 2.9 7.75 3.2 8.15 3.65 8.6 3.8 8.9 3.95 9.05 4.1 9.15 4.25 9.2 4.4 9.35 4.55 9.4 4.7 9.5 4.85 9.5 5.0 9.55 5.15 9.55 5.3 9.55 5.45 9.5 5.6 9.5 5.75 9.4 5.9 9.35 6.05 9.2 6.2 9.0 6.35 8.85 6.45 8.7 6.5 8.4 6.55 7.95 6.45 7.65 6.3 7.35 6.15 7.15 6.0 7.1 5.9 7.0 5.9 6.7 5.85 6.35 5.9 6.25 6.05 6.1 6.2 5.9 6.35 5.7 6.45 5.2 6.55 5.0 6.55 4.7 6.5 4.4 6.4 4.2 6.35 1.7 6.25 1.5 6.2 1.3 6.2 Q-0.4 6.5 -2.1 6.15 L-3.7 5.75 -3.95 5.6 -4.4 5.15 -4.55 5.0 -4.85 4.7 -5.3 4.25 -5.6 3.8 -5.65 3.2 -5.65 2.45 -5.65 1.25 -5.55 0.35 -5.5 0.2 -5.45 -0.1 -5.3 -0.4 -5.25 -0.55 -5.15 -0.7 -4.95 -1.0 -4.65 -1.3 -4.5 -1.45 -4.25 -1.6 -4.3 -1.75 -4.45 -1.9 -7.2 -2.2 -7.65 -2.3 -7.85 -2.45 -8.0 -2.6 -8.1 -2.75 -8.15 -2.9 -8.2 -3.05 -8.2 -3.2 -8.2 -3.35 -8.15 -3.5 -8.1 -3.65 -8.0 -3.8 -7.85 -3.95 -7.65 -4.1 -7.65 -4.25 -7.75 -4.35 -7.85 -4.4 -8.2 -4.45 -8.55 -4.55 -8.75 -4.7 -8.9 -4.85 -8.95 -5.0 -8.95 -5.15 -8.95 -5.3 -8.95 -5.45 -8.95 -5.6 -8.9 -5.75 -8.75 -5.9 -8.7 -6.05 -8.65 -6.2 -8.5 -6.35 -8.35 -6.5 -8.2 -6.6 -8.1 -6.65 -7.8 -6.65 -7.8 -6.7 -7.0 -6.6 -6.4 -6.45 -5.8 -6.3 -5.4 -6.2 -5.05 -5.9 -4.9 -5.75 -4.8 -5.6 -4.65 -5.3 -4.4 -5.0 -4.25 -4.7 -4.1 -4.55 -3.95 -4.4 -3.6 -4.25 -3.35 -4.1 -3.15 -3.95 Q-1.65 -3.9 -0.25 -3.3 L2.05 -2.35 2.2 -2.2" fill="#663333" fill-opacity="0.101960786" fill-rule="evenodd" stroke="none"/>
    <path d="M1.45 -3.7 L2.65 -3.15 4.25 -2.05 5.15 -1.0 5.5 -0.55 5.75 -0.4 6.1 -0.1 6.2 0.05 6.25 0.2 6.4 0.35 6.6 0.65 6.7 0.8 6.9 1.1 7.2 1.55 7.25 1.7 7.3 1.85 7.3 2.0 7.3 2.15 7.25 2.3 7.35 2.45 7.45 2.6 7.5 2.75 7.6 2.9 7.65 3.05 7.75 3.2 7.8 3.35 7.85 3.5 7.95 3.65 8.0 3.8 8.1 4.1 8.15 4.25 8.15 4.4 8.2 4.7 8.2 5.0 8.2 5.3 8.15 5.45 8.1 5.6 8.05 5.75 7.95 5.9 7.85 6.05 7.65 6.2 7.45 6.3 7.3 6.35 7.0 6.4 6.7 6.35 6.35 6.25 6.1 6.1 5.9 5.95 5.8 5.8 5.7 5.65 5.65 5.5 5.55 5.35 5.5 5.2 5.4 5.05 5.35 4.9 5.3 4.75 5.25 4.6 5.2 4.45 5.15 4.3 5.05 4.15 5.0 4.0 4.9 3.7 4.85 3.55 4.8 3.4 4.7 3.1 4.6 2.8 4.5 2.5 4.4 2.35 4.35 2.2 4.3 2.05 4.25 1.9 4.0 1.6 3.9 1.45 3.75 1.3 3.6 1.15 2.3 0.7 1.9 0.55 0.9 0.15 0.8 0.1 -0.25 -0.05 -0.6 -0.15 -1.05 -0.25 -1.35 -0.4 -1.65 -0.55 -1.95 -0.85 -2.3 -1.15 -3.15 -1.6 -3.75 -1.9 -5.0 -2.0 -5.8 -2.05 -6.25 -2.15 -6.5 -2.3 -6.7 -2.45 -6.8 -2.6 -6.9 -2.75 -6.9 -2.9 -6.95 -3.05 -6.95 -3.2 -6.95 -3.35 -6.9 -3.5 -6.9 -3.65 -6.8 -3.8 -6.8 -3.9 -7.0 -4.05 -7.4 -4.15 -7.6 -4.25 -7.65 -4.3 -8.0 -4.4 -8.2 -4.55 -8.35 -4.7 -8.45 -4.85 -8.5 -5.0 -8.5 -5.15 -8.5 -5.3 -8.5 -5.45 -8.45 -5.6 -8.3 -5.75 -8.15 -5.9 -8.0 -6.0 -7.9 -6.05 -7.6 -6.05 -7.6 -6.1 -7.0 -6.05 -6.6 -6.0 -5.8 -5.9 -5.4 -5.85 -5.15 -5.7 -5.05 -5.55 -4.85 -5.4 -4.6 -5.25 -4.3 -5.15 -3.9 -5.05 -3.7 -5.0 -3.4 -4.9 -3.15 -4.75 -2.6 -4.45 -2.2 -4.3 -1.7 -4.05 1.0 -3.75 1.45 -3.7" fill="#663333" fill-opacity="0.101960786" fill-rule="evenodd" stroke="none"/>
    <path d="M0.6 -1.55 L1.2 -1.4 1.45 -1.25 1.55 -1.15 1.7 -1.1 2.0 -1.0 2.25 -0.85 2.4 -0.7 2.55 -0.55 2.75 -0.4 2.95 -0.25 3.2 -0.1 3.5 0.2 3.7 0.5 4.1 1.1 4.35 1.55 4.5 1.85 4.55 2.45 4.55 3.2 4.55 3.95 4.55 5.0 4.55 5.6 4.5 5.75 4.45 5.9 4.4 6.05 4.3 6.2 4.25 6.35 4.15 6.5 4.05 6.65 3.9 6.8 3.5 7.05 3.3 7.1 3.0 7.15 2.7 7.1 2.4 7.0 2.15 6.85 2.0 6.7 1.85 6.55 1.75 6.4 1.7 6.25 1.65 6.1 1.65 5.95 1.65 5.8 1.6 5.7 1.35 5.75 1.1 5.85 0.7 5.95 -0.5 6.4 Q-2.1 6.7 -3.5 5.9 L-3.85 5.6 -4.05 5.3 -4.35 4.85 -4.65 4.4 -4.75 4.25 -4.8 4.1 -4.85 3.95 -4.9 3.8 -4.9 3.5 -4.9 3.2 -4.9 2.75 -4.9 2.3 -4.9 1.85 -4.9 1.7 -4.85 1.55 -4.8 1.4 -4.8 1.25 -4.75 1.1 -4.7 0.95 -4.6 0.65 -4.55 0.5 -4.35 0.2 -4.1 -0.1 -3.7 -0.55 -3.25 -1.0 -3.0 -1.15 -2.7 -1.25 -2.4 -1.3 -1.8 -1.3 -1.35 -1.4 -1.1 -1.55 -0.9 -1.65 -0.7 -1.7 -0.4 -1.7 -0.4 -1.75 0.2 -1.6 0.6 -1.55" fill="#663333" fill-opacity="0.101960786" fill-rule="evenodd" stroke="none"/>
    <path d="M1.15 -6.2 L2.95 -5.8 4.5 -5.25 5.0 -5.1 5.25 -4.95 5.4 -4.8 5.65 -4.5 5.7 -4.35 5.8 -4.2 5.85 -4.15 6.2 -4.1 6.4 -4.1 6.8 -4.0 7.1 -3.85 7.75 -3.55 7.95 -3.4 8.05 -3.25 8.15 -3.1 8.2 -2.95 8.3 -2.65 8.35 -2.5 8.4 -2.35 8.45 -2.2 8.5 -2.05 8.5 -1.9 8.5 -1.75 8.45 -1.6 8.4 -1.45 8.35 -1.3 8.25 -1.15 8.15 -1.0 7.95 -0.85 7.7 -0.75 7.4 -0.7 6.95 -0.8 6.75 -0.9 6.7 -0.95 6.35 -1.05 5.75 -1.35 5.6 -1.5 5.35 -1.65 5.1 -1.8 4.95 -1.95 4.55 -2.25 4.4 -2.4 4.25 -2.55 4.1 -2.7 4.05 -2.85 4.0 -3.0 4.0 -3.15 3.85 -3.3 2.95 -3.75 2.5 -3.9 1.75 -4.15 0.5 -4.3 0.0 -4.35 -0.4 -4.45 -0.7 -4.6 -0.9 -4.7 -1.0 -4.75 -1.4 -4.85 -1.8 -5.0 -2.0 -5.15 -2.15 -5.3 -2.25 -5.45 -2.3 -5.6 -2.3 -5.75 -2.3 -5.9 -2.3 -6.05 -2.25 -6.2 -2.25 -6.35 -2.2 -6.5 -2.05 -6.65 -1.95 -6.75 -1.85 -6.8 -1.6 -6.8 -1.6 -6.85 -0.85 -6.8 0.15 -6.55 1.15 -6.2" fill="#663333" fill-opacity="0.101960786" fill-rule="evenodd" stroke="none"/>
    <path d="M4.4 -4.45 L4.65 -4.3 4.75 -4.15 4.9 -4.05 5.0 -4.0 5.2 -3.95 5.6 -3.85 5.85 -3.75 6.3 -3.75 6.6 -3.8 6.9 -3.75 7.8 -3.6 8.0 -3.45 8.15 -3.3 8.2 -3.15 8.25 -3.0 8.3 -2.85 8.3 -2.7 8.25 -2.55 8.25 -2.4 8.25 -2.25 8.15 -2.1 8.0 -1.8 7.85 -1.65 7.65 -1.5 7.5 -1.4 7.2 -1.35 6.8 -1.35 6.4 -1.45 6.2 -1.6 6.05 -1.75 6.0 -1.8 5.1 -1.95 5.0 -2.0 4.4 -2.15 4.1 -2.3 3.5 -2.6 3.2 -2.75 1.35 -3.2 -0.6 -3.8 Q-1.3 -4.0 -1.85 -4.5 L-2.1 -4.65 -2.35 -4.8 -2.45 -4.95 -2.55 -5.1 -2.6 -5.25 -2.6 -5.4 -2.6 -5.55 -2.7 -5.7 -2.7 -5.8 -2.5 -5.95 -2.35 -6.0 -2.2 -6.1 -2.1 -6.15 -1.8 -6.15 -1.8 -6.2 -1.4 -6.1 -1.0 -5.95 -0.6 -5.85 Q0.25 -5.4 1.15 -5.1 L3.6 -4.6 4.4 -4.45" fill="#663333" fill-opacity="0.101960786" fill-rule="evenodd" stroke="none"/>
    <path d="M5.0 -2.25 L5.1 -2.3 5.4 -2.35 5.6 -2.35 6.0 -2.25 6.3 -2.25 6.55 -2.4 7.0 -2.45 7.0 -2.5 7.4 -2.4 7.7 -2.25 7.85 -2.1 8.0 -1.95 8.1 -1.8 8.2 -1.65 8.3 -1.5 8.5 -1.35 8.6 -1.2 Q8.7 -0.75 9.15 -0.3 L10.05 0.85 10.95 1.95 11.0 2.1 11.1 2.25 11.15 2.4 11.2 2.55 11.55 3.0 12.1 3.6 12.5 4.2 12.65 4.5 12.7 4.65 12.7 4.8 12.7 4.95 12.75 5.1 12.85 5.25 12.9 5.4 13.05 5.7 13.15 5.85 13.15 6.0 13.2 6.15 13.2 6.3 13.15 6.45 13.1 6.6 13.05 6.75 12.95 6.9 12.85 7.05 12.65 7.2 12.45 7.3 12.3 7.35 12.0 7.4 11.55 7.3 11.25 7.15 11.1 7.0 10.95 6.85 10.8 6.7 10.7 6.55 10.65 6.4 10.6 6.25 10.45 6.1 10.35 5.95 10.25 5.8 10.15 5.65 10.1 5.5 10.05 5.35 10.0 5.2 9.95 5.05 9.85 4.75 9.75 4.6 9.6 4.45 9.5 4.3 9.35 4.15 9.3 4.0 9.2 3.85 9.1 3.7 9.0 3.7 8.7 3.65 8.4 3.55 7.1 2.1 5.3 0.2 Q4.8 -0.2 4.5 -0.8 L4.45 -0.95 4.45 -1.1 4.45 -1.25 4.45 -1.4 4.5 -1.7 4.55 -1.85 4.65 -2.0 4.8 -2.15 5.0 -2.25" fill="#663333" fill-opacity="0.101960786" fill-rule="evenodd" stroke="none"/>
    <path d="M6.8 -2.6 L7.2 -2.5 7.45 -2.35 7.6 -2.2 7.9 -1.9 8.35 -1.45 8.6 -1.15 8.9 -1.0 9.1 -0.85 9.2 -0.7 9.3 -0.55 9.4 -0.4 9.45 -0.25 9.5 -0.1 9.5 0.05 9.45 0.2 9.4 0.35 9.35 0.5 9.2 0.65 9.0 0.8 8.6 0.9 8.2 0.8 Q7.65 0.6 7.25 0.2 L6.25 -0.65 5.85 -1.3 5.8 -1.45 5.8 -1.6 5.8 -1.75 5.85 -1.9 5.9 -2.05 6.0 -2.2 6.15 -2.35 6.35 -2.5 6.8 -2.55 6.8 -2.6" fill="#663333" fill-opacity="0.101960786" fill-rule="evenodd" stroke="none"/>
    <path d="M2.25 -2.75 L2.35 -2.7 2.8 -2.6 3.2 -2.5 3.4 -2.4 3.8 -2.3 4.2 -2.15 4.45 -2.0 4.6 -1.85 4.75 -1.7 4.95 -1.55 5.05 -1.4 5.1 -1.25 5.25 -0.95 5.35 -0.8 5.4 -0.65 5.5 -0.5 5.55 -0.35 6.0 -0.05 6.55 0.4 6.85 0.7 7.45 1.3 8.05 2.05 8.1 2.2 8.15 2.35 8.2 2.5 8.25 2.65 8.3 2.8 8.35 2.95 8.45 3.1 8.5 3.25 8.6 3.4 8.65 3.55 8.7 3.7 8.75 3.85 8.8 4.0 8.85 4.15 8.95 4.3 9.05 4.35 9.45 4.5 9.7 4.65 9.9 4.8 10.15 5.1 10.25 5.25 10.3 5.4 10.35 5.55 10.4 5.7 10.4 5.85 10.35 6.0 10.35 6.15 10.25 6.3 10.2 6.45 10.1 6.6 9.9 6.75 9.65 6.9 9.2 7.0 8.75 6.9 8.55 6.8 8.15 6.7 7.85 6.55 7.7 6.4 7.45 6.1 7.15 5.8 7.05 5.65 6.95 5.5 6.85 5.35 6.7 5.05 6.65 4.9 6.6 4.75 6.55 4.6 6.5 4.45 6.45 4.3 6.35 4.15 6.3 4.0 6.25 3.85 6.2 3.55 6.15 3.4 6.1 3.25 6.05 3.1 6.0 2.95 5.7 2.65 5.55 2.5 5.4 2.35 5.25 2.2 5.1 2.05 4.95 1.9 4.85 1.75 4.65 1.6 4.35 1.45 4.2 1.3 4.05 1.15 3.9 1.0 3.75 0.85 3.65 0.7 3.6 0.55 3.55 0.4 3.45 0.25 3.4 0.1 3.25 -0.05 3.1 -0.2 2.95 -0.35 2.55 -0.5 2.2 -0.6 1.75 -0.7 1.45 -0.85 1.3 -0.95 0.6 -1.0 0.15 -1.1 0.0 -1.2 -0.2 -1.25 -2.0 -1.55 -3.2 -1.75 -3.45 -1.9 -3.6 -2.05 -3.75 -2.2 -4.2 -2.5 -4.5 -2.65 -4.65 -2.8 -4.95 -3.1 -5.1 -3.25 -5.25 -3.4 -5.4 -3.55 -5.55 -3.7 -5.6 -3.8 -5.7 -3.85 -6.2 -3.9 -6.8 -3.9 -6.9 -3.85 -7.2 -3.8 -7.6 -3.85 -9.4 -4.05 -9.6 -4.2 -9.75 -4.35 -9.8 -4.5 -9.85 -4.65 -9.85 -4.8 -9.85 -4.95 -9.8 -5.1 -9.75 -5.25 -9.6 -5.4 -9.4 -5.55 -9.1 -5.7 -9.0 -5.85 -8.85 -6.0 -8.65 -6.1 -8.4 -6.1 -8.4 -6.15 -7.4 -6.15 -7.05 -6.05 -6.85 -5.9 -6.75 -5.75 -6.2 -5.7 -5.6 -5.7 -5.2 -5.6 -4.8 -5.5 -4.4 -5.4 -4.2 -5.25 -4.05 -5.1 -4.0 -4.95 -3.95 -4.8 -3.85 -4.65 -3.65 -4.5 -3.5 -4.35 -3.2 -4.2 -3.0 -4.05 -2.85 -3.9 -2.6 -3.75 -2.4 -3.65 -1.4 -3.5 0.5 -3.2 2.0 -2.9 2.25 -2.75" fill="#663333" fill-opacity="0.101960786" fill-rule="evenodd" stroke="none"/>
    <path d="M-10.6 -8.2 L-9.6 -8.25 -8.2 -8.25 -7.9 -8.15 -7.75 -8.05 -7.4 -8.0 -6.6 -7.8 -6.3 -7.7 -6.05 -7.6 -5.9 -7.55 -4.8 -7.45 -4.55 -7.35 -4.3 -7.2 -3.9 -7.05 -3.75 -6.9 -3.75 -6.75 -3.8 -6.6 -4.0 -6.5 -4.2 -6.45 -4.4 -6.4 -4.6 -6.45 -4.7 -6.5 -5.4 -6.5 -6.0 -6.45 -6.4 -6.55 -6.6 -6.6 -7.0 -6.6 -7.35 -6.7 -8.25 -6.85 -8.35 -6.9 -9.05 -6.85 -9.25 -6.7 -9.5 -6.55 -9.35 -6.4 -9.0 -6.1 -8.75 -5.95 -8.55 -5.8 -8.4 -5.65 -8.3 -5.5 -8.05 -5.35 -7.6 -5.05 -7.3 -4.9 -7.05 -4.75 -6.9 -4.6 -6.8 -4.45 -6.7 -4.3 -6.65 -4.15 -6.65 -4.0 -6.65 -3.85 -6.65 -3.7 -6.65 -3.55 -6.65 -3.4 -6.65 -3.25 -6.65 -3.1 -6.7 -2.95 -6.75 -2.8 -6.8 -2.65 -6.85 -2.5 -6.85 -2.35 -6.8 -2.05 -6.8 -1.75 -6.8 -1.45 -6.8 -1.15 -6.8 -1.0 -6.8 -0.85 -6.85 -0.55 -6.9 -0.4 -7.0 -0.25 -7.1 -0.1 -7.3 0.05 -7.5 0.15 -7.8 0.2 -8.25 0.1 -8.4 0.1 -8.4 0.25 -8.4 0.4 -8.4 0.55 -8.4 0.7 -8.4 0.85 -8.4 1.0 -8.45 1.15 -8.55 1.45 -8.6 1.6 -8.65 1.75 -8.7 1.9 -8.8 2.2 -8.85 2.35 -8.9 2.5 -9.0 2.65 -9.05 2.8 -9.1 2.95 -9.15 3.1 -9.2 3.25 -9.25 3.4 -9.3 3.55 -9.35 3.7 -9.45 3.85 -9.5 4.0 -9.6 4.3 -9.7 4.6 -9.8 4.9 -9.9 5.2 -9.95 5.35 -10.0 5.5 -10.1 5.8 -10.2 5.95 -10.35 6.25 -10.45 6.4 -10.5 6.55 -10.6 6.7 -10.75 7.0 -10.85 7.15 -10.85 7.3 -10.9 7.75 -11.0 8.2 -11.0 8.65 -11.0 8.95 -11.05 9.55 -11.05 10.0 -11.0 10.15 -10.9 10.3 -10.8 10.45 -10.75 10.6 -10.8 10.75 -10.9 10.9 -11.0 10.95 -11.35 11.05 -11.5 11.15 -11.8 11.2 -12.2 11.1 -12.4 10.95 -12.55 10.8 -12.7 10.65 -12.8 10.5 -12.9 10.35 -12.95 10.2 -13.0 9.6 -13.0 9.0 -13.0 8.55 -12.95 7.8 -12.85 7.05 -12.85 6.75 -12.8 6.6 -12.75 6.45 -12.7 6.3 -12.6 6.15 -12.45 5.85 -12.35 5.7 -12.25 5.55 -12.2 5.4 -12.1 5.25 -12.0 5.1 -11.95 4.95 -11.85 4.65 -11.75 4.35 -11.65 4.05 -11.55 3.75 -11.5 3.6 -11.45 3.45 -11.35 3.15 -11.25 3.0 -11.2 2.85 -11.15 2.7 -11.1 2.55 -11.05 2.4 -11.0 2.25 -10.95 2.1 -10.9 1.95 -10.8 1.8 -10.75 1.65 -10.65 1.35 -10.6 1.2 -10.55 1.05 -10.5 0.9 -10.45 0.75 -10.4 0.6 -10.4 0.45 -10.4 0.0 -10.4 -0.3 -10.4 -0.75 -10.4 -0.9 -10.4 -1.2 -10.35 -1.5 -10.35 -1.65 -10.3 -1.8 -10.2 -1.95 -10.05 -2.1 -9.95 -2.25 -9.95 -2.4 -9.9 -2.55 -9.8 -2.7 -9.7 -2.85 -9.55 -3.0 -9.4 -3.15 -9.2 -3.25 -9.1 -3.3 -8.8 -3.4 -8.9 -3.55 -9.05 -3.7 -9.25 -3.85 -9.5 -4.0 -9.7 -4.15 -9.8 -4.3 -9.9 -4.45 -10.0 -4.6 -10.2 -4.75 -10.65 -5.2 -10.95 -5.5 -11.25 -5.95 -11.3 -6.1 -11.4 -6.25 -11.45 -6.4 -11.45 -6.7 -11.45 -6.85 -11.45 -7.0 -11.4 -7.15 -11.4 -7.3 -11.4 -7.6 -11.35 -7.75 -11.25 -7.9 -11.1 -8.05 -10.9 -8.15 -10.6 -8.2" fill="#ffffff" fill-opacity="0.101960786" fill-rule="evenodd" stroke="none"/>
    <path d="M-10.4 -0.4 L-10.3 -0.7 -10.15 -1.15 -10.0 -1.6 -9.9 -1.75 -9.85 -1.9 -9.85 -2.05 -9.8 -2.2 -9.7 -2.35 -9.45 -2.65 -9.1 -2.8 -8.85 -2.95 -8.65 -3.05 -8.5 -3.1 -8.2 -3.15 -8.1 -3.15 -7.8 -3.2 -7.4 -3.1 -7.15 -2.95 -7.0 -2.8 -6.95 -2.65 -6.85 -2.5 -6.8 -2.35 -6.75 -2.2 -6.7 -2.05 -6.7 -1.9 -6.75 -1.75 -6.8 -1.6 -6.85 -1.45 -6.95 -1.3 -7.05 -1.15 -7.05 -0.4 -7.05 0.65 -7.05 1.7 -7.05 2.0 -7.1 2.15 -7.15 2.3 -7.2 2.6 -7.3 2.9 -7.35 3.05 -7.45 3.2 -7.5 3.35 -7.7 3.65 -7.9 3.95 -7.95 4.1 -8.0 4.25 -8.05 4.4 -8.1 4.55 -8.15 4.7 -8.25 4.85 -8.25 5.0 -8.25 5.15 -8.3 5.3 -8.35 5.45 -8.45 5.6 -8.55 5.75 -8.7 5.9 -9.0 6.05 -9.4 6.15 -9.85 6.05 -10.1 5.9 -10.3 5.75 -10.4 5.6 -10.5 5.45 -10.55 3.8 -10.45 1.7 -10.45 -0.25 -10.4 -0.4" fill="#ffffff" fill-opacity="0.101960786" fill-rule="evenodd" stroke="none"/>
    <path d="M6.4 -8.0 L6.7 -7.9 6.85 -7.75 6.95 -7.6 7.0 -7.45 7.0 -7.3 6.9 -7.15 6.85 -7.0 6.7 -6.85 6.6 -6.7 6.4 -6.4 6.3 -6.25 Q3.4 -4.9 0.2 -5.35 L-1.2 -5.5 -1.5 -5.6 -2.15 -5.9 -2.25 -6.05 -2.25 -6.2 -2.25 -6.35 -2.15 -6.5 -2.0 -6.6 -1.8 -6.65 -1.45 -6.55 -1.2 -6.5 3.35 -6.75 5.35 -7.5 5.9 -7.75 6.05 -7.9 6.4 -7.95 6.4 -8.0" fill="#ffffff" fill-opacity="0.101960786" fill-rule="evenodd" stroke="none"/>
    <path d="M3.2 -3.8 L3.55 -3.45 5.85 -1.75 6.65 -1.0 7.85 0.6 Q9.25 2.3 10.45 4.4 L10.65 4.85 Q10.8 5.2 10.4 5.5 L10.35 5.6 10.05 5.2 9.75 4.55 9.7 4.4 8.4 2.45 7.45 1.2 Q6.55 -0.35 5.15 -1.4 L3.85 -2.3 3.3 -2.75 3.15 -2.9 Q2.8 -3.0 2.5 -3.25 L2.05 -3.5 1.8 -3.65 0.3 -4.15 -1.3 -4.8 -2.5 -5.5 -3.85 -6.4 Q-5.3 -7.2 -7.05 -7.55 L-11.4 -7.9 -11.65 -7.8 Q-11.85 -7.8 -12.1 -7.45 L-12.25 -7.35 Q-12.45 -7.7 -12.1 -8.05 -11.3 -8.8 -10.2 -8.5 L-8.3 -8.5 -6.45 -8.25 -4.8 -7.65 -3.7 -7.2 -3.05 -6.75 -2.0 -6.1 -0.4 -5.2 1.5 -4.5 Q2.4 -4.25 3.2 -3.8" fill="#333333" fill-rule="evenodd" stroke="none"/>
    <path d="M6.2 -6.3 L6.15 -6.5 6.05 -6.8 5.65 -6.95 3.4 -6.8 2.65 -6.75 2.5 -6.7 1.8 -6.6 -0.35 -6.5 -3.35 -6.5 Q-3.7 -6.35 -3.7 -6.65 -3.8 -7.1 -3.45 -6.95 L-2.3 -7.0 -1.3 -7.05 -0.3 -7.05 0.7 -7.1 2.6 -7.4 4.55 -7.55 6.1 -7.6 6.5 -7.35 Q7.2 -6.25 6.9 -5.2 L6.85 -5.05 Q6.8 -4.75 6.9 -4.6 L6.95 -4.45 7.05 -4.25 7.1 -4.25 7.15 -4.1 7.5 -3.5 7.5 -3.4 7.55 -3.3 7.6 -3.25 7.65 -3.1 7.75 -2.65 7.6 -2.1 7.5 -2.0 7.45 -1.9 6.1 -1.65 4.95 -1.55 4.75 -1.9 4.75 -1.95 4.95 -2.15 6.85 -2.75 6.9 -2.85 6.15 -4.25 Q6.0 -4.95 6.2 -5.6 L6.25 -5.7 6.25 -5.85 6.25 -6.0 6.2 -6.3" fill="#333333" fill-rule="evenodd" stroke="none"/>
    <path d="M7.2 -2.15 Q6.1 -3.1 7.3 -2.6 8.4 -1.9 9.3 -0.65 L10.25 0.75 10.75 1.45 13.6 4.95 Q12.7 4.95 12.1 4.3 L11.0 3.05 10.15 1.95 9.1 0.3 7.95 -1.25 7.2 -2.15" fill="#333333" fill-rule="evenodd" stroke="none"/>
    <path d="M1.8 -1.95 L1.75 -2.0 Q0.05 -1.9 -1.0 -2.8 L-1.5 -3.25 -1.8 -3.5 Q-2.6 -3.65 -3.15 -4.15 L-4.3 -4.85 -5.85 -5.55 Q-7.05 -6.2 -8.3 -6.4 L-6.95 -6.55 Q-4.8 -5.85 -2.75 -4.75 L-2.35 -4.6 -1.2 -3.9 -0.2 -3.1 1.2 -2.85 Q2.5 -2.9 3.6 -2.05 4.45 -1.3 5.35 -0.7 L5.65 -0.35 6.25 0.5 6.7 1.3 8.5 3.45 8.7 3.95 8.8 4.6 Q8.5 4.75 8.1 4.25 L7.6 3.65 6.75 2.85 Q6.05 2.25 5.8 1.3 L5.2 0.2 4.15 -0.7 3.2 -1.65 1.8 -1.95" fill="#333333" fill-rule="evenodd" stroke="none"/>
    <path d="M0.1 -4.55 L0.8 -4.35 0.5 -4.3 Q0.0 -4.2 -0.2 -3.7 L-0.15 -2.8 Q-0.1 -2.4 -0.35 -2.5 L-0.5 -2.45 Q-0.85 -2.65 -0.8 -3.1 -0.75 -4.1 0.1 -4.55" fill="#333333" fill-rule="evenodd" stroke="none"/>
    <path d="M-1.95 -5.45 Q-1.9 -5.05 -2.3 -5.25 L-2.9 -5.0 -3.0 -4.7 -3.1 -4.35 -3.1 -4.2 Q-3.45 -4.25 -3.5 -4.75 L-3.15 -5.35 -1.95 -5.45" fill="#333333" fill-rule="evenodd" stroke="none"/>
    <path d="M-5.0 -7.2 L-4.8 -7.1 -5.2 -6.7 -5.45 -5.3 -5.55 -5.5 Q-5.85 -6.5 -5.0 -7.2" fill="#333333" fill-rule="evenodd" stroke="none"/>
    <path d="M-11.8 -7.9 L-11.6 -7.75 -11.4 -7.1 Q-11.25 -6.55 -10.15 -5.85 -9.05 -5.2 -8.6 -4.55 L-8.25 -3.8 -8.4 -3.55 Q-9.05 -3.3 -9.5 -3.85 L-10.5 -4.95 -11.75 -6.1 Q-12.35 -6.85 -12.1 -7.85 L-11.8 -7.9" fill="#333333" fill-rule="evenodd" stroke="none"/>
    <path d="M-9.4 -7.9 L-9.4 -7.95 Q-8.9 -8.15 -9.15 -7.8 -9.5 -7.25 -9.1 -6.65 L-8.65 -6.25 Q-8.2 -5.95 -8.55 -5.8 L-9.2 -6.1 Q-9.95 -6.9 -9.4 -7.9" fill="#333333" fill-rule="evenodd" stroke="none"/>
    <path d="M-7.9 -4.05 L-7.85 -4.1 Q-7.35 -4.5 -6.55 -4.7 L-2.55 -4.55 Q-1.3 -4.4 -1.2 -3.55 L-7.9 -4.05" fill="#333333" fill-rule="evenodd" stroke="none"/>
    <path d="M-9.45 -3.4 L-9.2 -3.7 -8.85 -3.9 -8.7 -3.95 -8.35 -3.85 -8.25 -3.75 -8.3 -3.65 -8.35 -3.55 -8.5 -3.45 -8.65 -3.4 -8.9 -3.15 -9.55 -1.2 -10.55 7.15 -10.6 7.45 -10.6 7.55 -10.65 7.7 -10.7 7.8 -10.8 7.85 -11.05 7.95 -11.2 7.25 -11.2 5.3 -11.05 4.15 -10.85 3.0 -10.75 2.05 -10.55 0.45 -10.35 -1.0 -9.8 -2.8 -9.45 -3.4" fill="#333333" fill-rule="evenodd" stroke="none"/>
    <path d="M-7.9 -2.3 L-8.15 -1.7 -8.7 -0.6 -9.1 0.55 -9.8 3.3 -10.25 4.7 -10.45 5.55 Q-10.45 5.9 -10.8 5.85 L-10.85 5.7 -10.7 4.8 -10.45 3.25 -10.15 1.45 -9.75 0.15 -9.15 -1.5 Q-8.75 -2.45 -7.95 -2.4 L-7.9 -2.3" fill="#333333" fill-rule="evenodd" stroke="none"/>
    <path d="M5.8 3.35 Q6.05 3.9 5.95 4.55 L5.95 4.75 5.95 4.9 5.9 5.05 Q5.65 5.2 5.55 4.75 L4.8 2.85 3.75 1.4 2.5 0.0 1.0 -1.05 -0.4 -1.35 -0.6 -1.35 -0.65 -1.45 -0.75 -1.65 Q1.0 -2.15 2.55 -0.9 4.7 0.8 5.8 3.35" fill="#333333" fill-rule="evenodd" stroke="none"/>
    <path d="M1.95 -0.85 L1.85 -0.95 Q1.5 -1.65 2.05 -2.45 3.0 -2.9 3.05 -1.8 L3.15 -1.7 Q3.75 -1.45 4.15 -0.95 L4.7 -0.85 5.05 -0.15 5.2 0.0 5.8 1.2 5.5 2.3 Q5.15 2.75 4.7 2.65 4.25 2.2 4.35 1.4 L3.1 0.9 2.75 0.25 Q2.55 -0.6 1.95 -0.85" fill="#333333" fill-rule="evenodd" stroke="none"/>
    <path d="M-10.3 -5.25 L-10.35 -5.3 -10.4 -5.35 -10.35 -5.4 -10.3 -5.45 -10.2 -5.45 -10.1 -5.5 -10.05 -5.55 -9.4 -5.7 -8.4 -5.85 -7.85 -5.9 -6.4 -5.9 -5.25 -5.8 -4.95 -5.75 -4.9 -5.7 -4.8 -5.7 -4.75 -5.65 -4.7 -5.65 -4.65 -5.6 -4.6 -5.6 -4.6 -5.55 -4.55 -5.5 -4.5 -5.5 -4.45 -5.45 -4.4 -5.45 -4.45 -5.4 -4.5 -5.4 -4.6 -5.4 -4.65 -5.35 -4.7 -5.35 -4.75 -5.4 -4.9 -5.4 -4.95 -5.45 -5.05 -5.4 -5.6 -5.5 -9.9 -5.3 -10.0 -5.3 -10.05 -5.25 -10.2 -5.25 -10.3 -5.25" fill="#333333" fill-rule="evenodd" stroke="none"/>
    <path d="M5.5 4.25 L5.55 4.2 5.55 4.15 5.65 4.05 5.75 4.05 5.8 4.0 5.9 4.05 5.95 4.1 6.05 4.1 6.05 4.15 6.1 4.2 6.15 4.25 6.15 4.35 6.2 4.4 6.2 4.5 6.25 4.55 6.3 4.6 6.3 4.65 6.35 4.75 6.4 4.95 6.45 5.15 6.5 5.25 6.5 5.6 6.55 5.6 6.55 5.9 6.6 5.95 6.6 6.2 6.65 6.25 6.65 6.35 6.65 6.5 6.6 6.6 6.6 6.7 6.55 6.75 6.5 6.75 6.45 6.8 6.4 6.8 6.35 6.85 6.25 6.8 6.15 6.75 6.1 6.7 6.05 6.6 6.0 6.55 6.0 6.45 5.95 6.45 5.95 6.35 5.9 6.3 5.9 6.2 5.85 6.15 5.85 6.1 5.8 6.05 5.8 5.95 5.75 5.9 5.75 5.85 5.75 5.75 5.7 5.6 5.7 5.45 5.65 5.4 5.65 5.2 5.6 5.15 5.6 4.7 5.65 4.65 5.6 4.6 5.6 4.5 5.55 4.5 5.55 4.4 5.5 4.35 5.5 4.25" fill="#333333" fill-rule="evenodd" stroke="none"/>
    <path d="M-5.25 -5.6 L-5.15 -5.55 -5.1 -5.55 -5.0 -5.5 -4.95 -5.45 -4.9 -5.45 -4.85 -5.4 -4.8 -5.35 -4.7 -5.35 -4.65 -5.3 -4.55 -5.3 -4.45 -5.2 -4.45 -5.15 -4.4 -5.15 -4.35 -5.1 -4.35 -5.05 -4.3 -5.0 -4.3 -4.95 -4.25 -4.9 -4.25 -4.85 -4.2 -4.8 -4.2 -4.7 -4.15 -4.75 -4.1 -4.75 -4.1 -4.8 -4.0 -4.85 -3.9 -4.85 -3.8 -4.8 -3.75 -4.8 -3.7 -4.75 -3.7 -4.7 -3.6 -4.65 -3.55 -4.65 -3.5 -4.6 -3.5 -4.55 -3.45 -4.55 -3.45 -4.5 -3.35 -4.4 -3.35 -4.35 -3.3 -4.35 -3.3 -4.2 -3.35 -4.15 -3.35 -4.05 -3.45 -4.05 -3.45 -4.0 -3.55 -4.0 -3.65 -4.0 -3.75 -4.0 -3.85 -4.1 -3.95 -4.15 -4.05 -4.15 -4.1 -4.1 -4.2 -4.1 -4.35 -4.1 -4.45 -4.1 -4.55 -4.2 -4.55 -4.25 -4.6 -4.25 -4.65 -4.3 -4.7 -4.35 -4.8 -4.4 -4.85 -4.4 -4.9 -4.45 -4.95 -4.55 -5.05 -4.65 -5.1 -4.75 -5.15 -4.8 -5.2 -4.85 -5.2 -4.9 -5.25 -4.9 -5.25 -5.0 -5.3 -5.05 -5.35 -5.1 -5.4 -5.1 -5.5 -5.1 -5.6 -5.2 -5.6 -5.25 -5.65 -5.25 -5.65 -5.4 -5.6 -5.45 -5.6 -5.5 -5.55 -5.55 -5.5 -5.55 -5.4 -5.6 -5.25 -5.6" fill="#333333" fill-rule="evenodd" stroke="none"/>
  </g>
</svg>
