<?xml version="1.0" encoding="UTF-8" standalone="no"?>
<svg xmlns:xlink="http://www.w3.org/1999/xlink" height="31.85px" width="13.35px" xmlns="http://www.w3.org/2000/svg">
  <g transform="matrix(1.0, 0.0, 0.0, 1.0, 6.7, 16.1)">
    <path d="M3.9 -4.6 L3.55 -5.25 Q1.35 -6.05 -0.85 -5.75 L-3.4 -5.25 -3.85 -6.0 -3.8 -6.25 Q-3.05 -6.65 -2.35 -7.1 L4.3 -6.7 5.2 -5.8 5.15 -5.05 Q4.75 -4.8 4.35 -4.65 4.25 -4.55 4.15 -4.55 L3.9 -4.6" fill="#663333" fill-opacity="0.101960786" fill-rule="evenodd" stroke="none"/>
    <path d="M1.15 -12.9 L2.55 -12.7 3.15 -11.85 4.6 -11.65 Q6.75 -8.2 4.05 -5.4 L2.2 -5.1 1.4 -5.6 0.7 -5.05 -1.4 -5.1 -1.85 -5.5 -3.0 -5.65 Q-5.8 -9.55 -1.95 -12.85 L-0.6 -12.85 0.45 -12.4 1.15 -12.9" fill="#663333" fill-opacity="0.101960786" fill-rule="evenodd" stroke="none"/>
    <path d="M2.1 -14.25 L3.75 -13.95 4.4 -11.4 5.25 -10.8 Q5.75 -9.1 5.05 -7.45 L4.35 -5.65 -0.15 -5.35 Q-1.1 -5.6 -1.65 -6.35 L-1.7 -8.6 -0.55 -11.0 2.0 -12.05 1.6 -13.25 2.1 -14.25" fill="#663333" fill-opacity="0.101960786" fill-rule="evenodd" stroke="none"/>
    <path d="M6.15 -0.5 L5.65 7.75 Q7.3 10.1 5.75 12.4 5.55 13.05 5.5 13.65 5.45 14.3 4.9 14.8 L2.1 14.7 Q0.4 13.45 0.8 11.0 L0.9 10.55 0.4 9.8 0.7 5.15 Q-1.5 1.6 1.5 -0.35 L0.2 -1.75 0.35 -3.1 2.7 -3.35 Q-0.65 -3.05 -3.1 -4.5 L4.35 -4.8 6.65 -3.35 6.5 -0.95 6.15 -0.5" fill="#663333" fill-opacity="0.101960786" fill-rule="evenodd" stroke="none"/>
    <path d="M4.0 -3.6 L3.35 -3.05 Q5.35 2.05 4.15 7.45 5.55 9.9 4.55 12.55 L4.85 14.15 Q0.65 17.65 -3.0 13.55 L-3.0 11.0 -2.6 10.55 Q-3.15 7.7 -1.65 5.3 -2.15 3.65 -1.35 2.0 L-0.65 -3.25 0.85 -4.05 -0.75 -4.3 Q-2.35 -7.1 3.4 -4.9 L4.05 -4.15 Q4.2 -3.85 4.0 -3.6" fill="#663333" fill-opacity="0.101960786" fill-rule="evenodd" stroke="none"/>
    <path d="M1.55 -2.0 Q-0.65 -1.65 -2.85 -2.6 L-2.95 -2.6 -2.25 -3.65 Q2.75 -4.55 6.45 -1.8 L6.15 -0.9 6.1 0.65 Q6.0 1.7 5.4 2.2 4.75 1.4 4.7 0.65 L4.6 -1.5 4.3 -0.9 3.55 -0.8 Q2.5 -1.1 1.8 -1.85 1.65 -1.95 1.55 -2.0" fill="#663333" fill-opacity="0.101960786" fill-rule="evenodd" stroke="none"/>
    <path d="M-4.95 -4.35 Q-1.5 -5.8 2.2 -5.45 0.35 -4.45 -3.3 -4.0 L-4.0 -3.6 Q-2.25 5.3 -4.25 14.0 L-4.35 14.95 -5.15 15.4 -5.45 15.45 -4.85 -0.2 Q-4.75 -2.25 -4.95 -4.35" fill="#ffffff" fill-opacity="0.101960786" fill-rule="evenodd" stroke="none"/>
    <path d="M-3.1 -2.35 Q-1.4 0.45 -3.1 3.5 L-3.95 3.6 Q-4.55 1.0 -4.05 -1.8 L-3.6 -2.25 -3.1 -2.35" fill="#ffffff" fill-opacity="0.101960786" fill-rule="evenodd" stroke="none"/>
    <path d="M-2.05 -15.1 L-2.95 -14.3 -3.9 -9.2 -5.05 -8.7 -3.5 -5.85 -4.2 -5.1 -5.05 -5.45 Q-6.8 -7.5 -6.3 -10.0 L-5.05 -10.5 -4.8 -12.6 Q-4.95 -15.45 -2.3 -15.3 L-2.05 -15.1" fill="#ffffff" fill-opacity="0.101960786" fill-rule="evenodd" stroke="none"/>
    <path d="M2.0 -14.45 L2.35 -14.0 Q1.3 -12.9 -0.2 -13.05 L-0.75 -13.6 -0.5 -14.0 1.0 -14.7 1.55 -14.6 2.0 -14.45" fill="#ffffff" fill-opacity="0.101960786" fill-rule="evenodd" stroke="none"/>
    <path d="M-4.0 -14.6 L-4.25 -13.55 -4.5 -12.05 -4.3 -10.35 Q-4.1 -9.65 -4.55 -9.65 -4.85 -9.85 -4.95 -10.35 L-5.15 -11.9 -5.15 -12.25 -4.95 -14.2 Q-5.0 -14.9 -4.65 -15.4 L-3.0 -16.1 Q-1.8 -16.0 -1.25 -14.9 L-0.9 -14.4 0.25 -14.35 0.25 -14.1 0.15 -14.05 0.15 -13.95 0.05 -13.9 0.05 -13.85 0.05 -13.8 -0.05 -13.75 -0.15 -13.65 -0.25 -13.6 -0.5 -13.45 -1.1 -13.4 -1.2 -13.5 -1.25 -13.7 -1.3 -13.8 -1.3 -13.95 -1.3 -14.0 -1.35 -14.05 -1.35 -14.15 -1.5 -14.35 -1.65 -14.55 -1.85 -14.75 -1.9 -14.8 -1.95 -14.85 -2.0 -14.9 -2.0 -14.85 -2.1 -14.95 -2.1 -15.0 -2.25 -15.05 -2.4 -15.1 -2.45 -15.1 -2.5 -15.1 -2.6 -15.1 -2.65 -15.0 -2.7 -15.05 -2.85 -15.1 -3.1 -15.0 -3.25 -14.95 -3.6 -14.85 -3.6 -14.75 -3.75 -14.7 -4.0 -14.6" fill="#333333" fill-rule="evenodd" stroke="none"/>
    <path d="M-4.75 -11.55 Q-4.6 -11.2 -5.2 -10.95 -5.85 -10.7 -6.0 -10.05 L-5.85 -8.3 Q-5.5 -7.2 -4.85 -6.35 -4.2 -5.5 -3.65 -5.55 L-2.6 -5.4 -2.6 -4.9 -2.75 -4.75 -3.75 -4.65 Q-4.4 -4.8 -5.1 -5.5 L-6.15 -7.0 -6.7 -9.1 Q-6.85 -10.5 -5.7 -11.55 L-4.95 -11.75 -4.75 -11.55" fill="#333333" fill-rule="evenodd" stroke="none"/>
    <path d="M3.15 -14.3 Q3.25 -14.05 3.75 -14.3 L4.65 -14.25 Q5.65 -13.65 6.05 -12.45 L6.05 -12.35 6.05 -11.7 6.05 -11.25 6.1 -10.75 6.2 -9.95 6.1 -8.4 5.75 -6.95 5.7 -6.9 5.7 -6.85 5.65 -6.8 5.65 -6.75 5.6 -6.7 5.6 -6.65 5.55 -6.6 5.55 -6.55 5.5 -6.55 5.5 -6.45 5.5 -6.4 Q4.9 -5.65 4.65 -5.75 4.4 -5.85 4.8 -6.4 5.15 -6.95 5.4 -8.65 5.6 -10.35 5.4 -10.75 5.1 -11.2 5.15 -11.8 5.15 -12.45 4.35 -13.1 3.6 -13.5 3.15 -12.95 L2.85 -13.15 2.85 -13.25 2.8 -13.3 2.8 -13.35 2.75 -13.45 2.6 -13.7 2.45 -13.95 2.3 -14.05 1.45 -14.6 Q0.3 -14.3 -1.0 -13.45 L-0.95 -13.55 Q-0.9 -14.1 -0.3 -14.7 0.4 -15.85 2.2 -15.3 L3.15 -14.3" fill="#333333" fill-rule="evenodd" stroke="none"/>
    <path d="M3.75 -4.4 L4.0 -5.0 5.0 -7.15 5.75 -7.1 5.55 -6.35 4.9 -4.9 Q4.35 -4.2 4.15 -4.25 L3.75 -4.35 Q3.6 -4.45 3.75 -4.4" fill="#333333" fill-rule="evenodd" stroke="none"/>
    <path d="M2.0 -5.9 Q2.1 -6.45 2.7 -6.4 3.55 -6.25 4.2 -5.45 L3.5 -5.5 2.0 -5.9" fill="#333333" fill-rule="evenodd" stroke="none"/>
    <path d="M3.3 -6.65 Q2.5 -6.9 3.0 -7.15 L3.3 -7.1 Q3.9 -7.0 4.35 -6.5 L4.0 -6.45 3.3 -6.65" fill="#333333" fill-rule="evenodd" stroke="none"/>
    <path d="M2.65 -8.5 L2.7 -8.6 3.35 -8.6 4.0 -8.35 Q4.6 -8.25 4.7 -7.75 L4.6 -7.7 Q3.55 -8.05 2.65 -8.5" fill="#333333" fill-rule="evenodd" stroke="none"/>
    <path d="M-5.2 -4.2 Q-6.25 -3.9 -5.1 -4.75 -3.85 -5.5 -0.55 -5.8 2.7 -6.0 5.35 -4.5 L5.65 -4.2 5.75 -4.05 5.85 -4.0 Q5.7 -3.65 5.35 -3.8 L4.25 -4.25 3.3 -4.5 0.15 -4.95 -3.1 -4.6 -5.2 -4.2" fill="#333333" fill-rule="evenodd" stroke="none"/>
    <path d="M-5.55 -4.4 L-5.45 -4.5 -5.35 -4.6 -5.25 -4.65 -5.05 -4.75 -4.95 -4.8 -4.8 -4.85 -4.55 -4.85 -4.35 -4.8 -4.2 -4.75 -4.1 -4.65 -4.1 -4.6 -4.15 -4.5 -4.25 -4.45 -4.35 -4.4 Q-4.35 -4.35 -4.45 -4.35 L-4.65 -4.3 -4.8 -4.25 -4.95 -4.15 -4.95 -4.05 -5.0 -3.95 -5.0 -3.8 -5.0 -3.7 -5.0 -3.55 -4.95 -3.45 -4.95 -3.4 -4.85 -3.25 -4.75 -3.1 -4.65 -2.95 -4.45 -2.65 -4.35 -2.5 -4.3 -0.95 -4.35 1.1 -4.35 3.3 -4.7 6.55 -4.95 10.8 -5.1 14.0 -5.15 14.05 -5.15 14.15 -5.2 14.25 -5.25 14.35 -5.35 14.4 -5.5 14.5 -5.7 14.55 -6.0 14.5 -6.1 14.4 -6.2 14.35 -6.25 14.25 -6.3 14.15 -6.1 9.7 -5.55 4.25 -5.3 -1.2 -5.25 -2.05 -5.3 -2.15 -5.3 -2.25 -5.35 -2.35 -5.35 -2.45 -5.35 -2.5 -5.4 -2.55 -5.45 -2.65 -5.5 -2.75 -5.5 -2.85 -5.6 -2.95 -5.65 -3.05 -5.7 -3.1 -5.75 -3.25 -5.7 -3.55 -5.7 -3.9 -5.7 -4.05 -5.65 -4.25 -5.6 -4.3 -5.55 -4.4" fill="#333333" fill-rule="evenodd" stroke="none"/>
    <path d="M4.15 -4.8 L4.2 -4.8 Q5.0 -4.9 5.65 -4.5 6.6 -4.1 6.55 -3.0 6.5 -2.1 5.9 -1.5 L6.0 -1.1 Q5.65 0.55 5.75 2.4 5.85 4.7 6.1 6.9 6.5 10.5 6.5 14.15 L6.05 14.5 Q5.75 14.6 5.7 14.3 L5.15 9.5 Q4.85 4.45 5.0 -0.75 L5.05 -1.8 5.35 -2.25 Q5.85 -2.75 5.9 -3.45 L5.3 -4.05 4.65 -4.25 Q4.15 -4.45 4.15 -4.8" fill="#333333" fill-rule="evenodd" stroke="none"/>
    <path d="M-2.05 -3.65 L-1.75 -3.65 -1.55 -3.7 -1.25 -3.75 1.2 -3.7 2.9 -3.45 3.3 -3.35 3.6 -3.35 3.75 -3.3 3.8 -3.25 4.05 -3.25 4.2 -3.25 4.35 -3.2 4.4 -3.1 4.45 -3.05 4.45 -3.0 4.45 -2.9 4.45 -2.8 4.4 -2.7 4.35 -2.6 4.2 -2.55 4.0 -2.6 3.9 -2.7 3.65 -2.8 1.65 -3.15 -1.25 -3.3 -1.7 -3.35 -1.8 -3.3 -2.0 -3.3 -2.2 -3.4 -2.3 -3.5 -2.3 -3.6 -2.25 -3.65 -2.05 -3.65" fill="#333333" fill-rule="evenodd" stroke="none"/>
    <path d="M3.5 -0.75 Q3.2 -0.75 3.3 -0.95 3.5 -1.4 4.0 -1.35 4.15 -1.0 4.5 -1.0 5.25 -0.9 5.55 -0.35 L5.55 -0.3 Q5.3 -0.15 4.95 -0.3 L3.5 -0.75" fill="#333333" fill-rule="evenodd" stroke="none"/>
    <path d="M2.45 -0.3 Q1.9 -0.55 2.45 -0.7 3.85 -0.6 4.45 0.4 L4.25 0.25 2.45 -0.3" fill="#333333" fill-rule="evenodd" stroke="none"/>
    <path d="M3.25 0.9 Q2.7 1.0 3.05 0.55 3.85 0.35 4.2 1.1 L3.45 0.95 3.25 0.9" fill="#333333" fill-rule="evenodd" stroke="none"/>
    <path d="M-3.9 -8.55 L-4.0 -8.65 -4.05 -8.75 -4.0 -8.8 -4.0 -8.9 -3.95 -8.9 -3.85 -8.9 -3.8 -8.9 -3.7 -8.8 -3.65 -8.75 -3.6 -8.65 -3.65 -8.55 -3.7 -8.45 -3.8 -8.45 -3.9 -8.55" fill="#333333" fill-rule="evenodd" stroke="none"/>
  </g>
</svg>
