<?xml version="1.0" encoding="UTF-8" standalone="no"?>
<svg xmlns:xlink="http://www.w3.org/1999/xlink" height="32.6px" width="14.15px" xmlns="http://www.w3.org/2000/svg">
  <g transform="matrix(1.0, 0.0, 0.0, 1.0, 6.7, 16.0)">
    <path d="M6.05 -6.5 L4.6 -5.05 Q-0.05 -3.95 -3.4 -6.4 L-3.8 -6.95 -3.45 -8.9 -2.5 -9.45 Q-2.35 -11.9 -0.1 -12.25 L0.5 -12.05 0.9 -11.35 3.4 -11.35 4.8 -10.4 5.25 -7.85 5.6 -7.55 6.05 -6.5" fill="#663333" fill-opacity="0.101960786" fill-rule="evenodd" stroke="none"/>
    <path d="M4.6 -4.8 L-4.35 -5.15 -4.5 -5.75 -4.25 -6.05 -3.0 -6.55 Q1.1 -7.4 4.65 -5.55 L4.6 -4.8" fill="#663333" fill-opacity="0.101960786" fill-rule="evenodd" stroke="none"/>
    <path d="M0.5 -5.05 Q-2.05 -5.1 -3.75 -6.8 -4.5 -9.95 -2.8 -12.35 L2.0 -13.05 Q5.9 -8.9 1.75 -5.45 1.3 -5.05 0.5 -5.05" fill="#663333" fill-opacity="0.101960786" fill-rule="evenodd" stroke="none"/>
    <path d="M2.9 -8.15 Q4.15 -8.0 3.05 -8.3 L2.9 -8.15 M6.3 -7.15 Q4.75 -4.7 2.0 -4.9 L1.4 -5.05 Q-2.05 -9.05 2.4 -11.9 6.65 -11.7 5.7 -7.6 L6.3 -7.15" fill="#663333" fill-opacity="0.101960786" fill-rule="evenodd" stroke="none"/>
    <path d="M6.25 -1.75 Q3.9 3.25 5.65 8.85 L5.8 10.1 6.85 10.7 Q7.55 11.4 7.3 12.3 L7.05 13.45 5.3 15.8 Q2.4 16.35 0.0 14.9 -2.3 9.85 0.25 5.15 L0.45 0.1 -0.7 -0.4 -0.8 -1.15 -2.1 -2.1 -2.15 -3.0 Q-4.5 -2.7 -5.35 -3.65 -1.1 -5.05 4.55 -4.6 5.85 -3.6 6.2 -2.2 L6.25 -1.75" fill="#663333" fill-opacity="0.101960786" fill-rule="evenodd" stroke="none"/>
    <path d="M4.1 -1.35 L3.95 3.15 4.2 3.65 Q5.25 6.2 3.55 8.25 L3.95 13.6 Q4.05 15.4 2.5 16.3 -2.05 17.55 -3.5 13.35 -4.1 11.65 -3.05 10.25 -4.1 8.95 -3.7 7.3 -3.3 5.55 -1.75 4.65 L-1.55 3.75 -1.9 3.1 Q-2.5 2.0 -2.55 0.75 -2.6 -0.25 -2.1 -1.3 L-3.5 -1.8 -3.35 -3.0 -4.05 -3.7 Q0.3 -4.6 5.0 -3.55 L5.45 -2.65 4.95 -1.75 4.1 -1.35" fill="#663333" fill-opacity="0.101960786" fill-rule="evenodd" stroke="none"/>
    <path d="M5.7 -0.85 L5.3 0.35 5.45 0.45 Q6.65 0.15 7.45 1.25 L6.9 2.0 4.2 1.9 3.75 1.45 3.8 -1.55 -3.65 -2.75 Q0.6 -4.0 5.5 -2.65 L5.7 -0.85" fill="#663333" fill-opacity="0.101960786" fill-rule="evenodd" stroke="none"/>
    <path d="M-5.7 -3.65 Q-1.2 -5.9 3.6 -4.8 0.6 -3.85 -3.75 -3.65 L-3.9 -3.5 Q-3.0 4.1 -3.8 11.95 L-4.1 15.25 -4.9 15.35 Q-6.0 9.8 -4.85 3.75 L-4.65 1.45 -5.0 1.0 -5.35 -2.0 -5.4 -2.3 -5.75 -2.9 -5.7 -3.65" fill="#ffffff" fill-opacity="0.101960786" fill-rule="evenodd" stroke="none"/>
    <path d="M-3.85 -0.9 L-3.1 -0.65 Q-2.2 2.2 -3.0 5.2 L-3.15 5.6 -4.55 5.7 -4.7 3.45 -5.05 3.0 -4.65 -0.3 -3.85 -0.9" fill="#ffffff" fill-opacity="0.101960786" fill-rule="evenodd" stroke="none"/>
    <path d="M-3.8 -15.3 L-4.3 -14.55 -4.45 -11.95 -4.4 -11.3 -4.15 -9.75 -4.1 -9.35 -4.3 -9.4 -4.85 -10.15 -5.05 -11.85 Q-5.4 -13.6 -4.8 -14.9 -4.25 -16.15 -4.0 -15.95 L-1.95 -16.0 Q-1.1 -15.55 -0.75 -14.65 L-0.45 -14.25 Q-0.4 -14.0 -0.55 -13.9 L-0.75 -13.8 -0.9 -13.8 -1.0 -13.8 -1.45 -14.15 -1.5 -14.35 -1.55 -14.6 -2.2 -15.35 -3.8 -15.3" fill="#333333" fill-rule="evenodd" stroke="none"/>
    <path d="M2.4 -15.25 L2.45 -15.15 2.55 -15.05 2.7 -14.7 3.15 -13.65 3.45 -13.1 3.4 -12.9 3.35 -12.7 3.25 -12.65 3.1 -12.65 Q2.4 -12.9 2.2 -13.8 L2.1 -14.25 1.75 -14.75 Q0.75 -14.95 0.15 -14.35 L-0.2 -13.8 -0.3 -13.75 -0.9 -13.8 -0.95 -13.9 -0.95 -14.0 -0.65 -14.5 0.05 -15.15 1.85 -15.5 2.4 -15.25" fill="#333333" fill-rule="evenodd" stroke="none"/>
    <path d="M2.8 -13.3 L2.85 -13.35 Q3.35 -14.2 4.5 -14.0 L5.15 -13.6 6.05 -12.8 6.3 -10.65 6.35 -8.3 6.2 -7.75 5.55 -6.05 5.15 -5.15 4.85 -4.3 Q4.7 -3.5 4.15 -3.65 3.85 -4.0 4.1 -4.55 L4.5 -5.45 4.85 -6.15 5.4 -7.6 Q5.8 -8.9 5.5 -10.0 L5.4 -11.15 5.35 -12.35 5.0 -12.85 4.25 -13.25 2.8 -13.3" fill="#333333" fill-rule="evenodd" stroke="none"/>
    <path d="M-4.25 -11.55 L-4.45 -11.5 -5.1 -11.25 -5.45 -10.8 -5.85 -10.35 Q-6.25 -9.55 -5.95 -8.65 L-5.25 -6.7 Q-4.85 -5.75 -3.95 -5.35 -3.55 -5.25 -3.75 -4.8 L-4.05 -4.85 Q-5.4 -5.2 -6.0 -6.7 L-6.4 -7.85 -6.7 -9.4 -6.25 -10.85 -6.2 -10.95 Q-5.65 -11.5 -4.8 -11.8 L-4.35 -11.75 -4.25 -11.55" fill="#333333" fill-rule="evenodd" stroke="none"/>
    <path d="M4.45 -4.95 L4.95 -4.7 5.2 -4.5 Q5.4 -4.2 5.75 -4.3 6.1 -4.1 6.2 -4.05 L6.85 -3.5 6.85 -2.55 6.1 -1.4 5.75 -0.95 5.7 -0.7 5.65 -0.4 Q5.55 0.05 5.05 0.05 L5.0 -0.15 Q4.9 -0.5 4.95 -0.9 L5.1 -1.35 5.2 -1.55 5.45 -1.9 5.9 -2.35 6.1 -3.05 6.1 -3.1 5.55 -3.45 4.85 -3.7 4.5 -4.05 Q-0.5 -5.1 -5.5 -4.1 L-5.05 -4.7 -3.95 -5.05 -2.3 -5.2 -0.9 -5.2 0.4 -5.25 1.75 -5.25 2.55 -5.1 4.45 -4.95" fill="#333333" fill-rule="evenodd" stroke="none"/>
    <path d="M-5.9 -3.4 Q-6.0 -4.4 -5.2 -4.7 L-5.0 -4.75 -4.7 -4.6 Q-4.35 -4.35 -4.75 -4.25 L-5.15 -3.9 Q-5.4 -3.45 -5.1 -2.85 L-4.45 -2.3 -4.45 -2.15 -4.4 -2.0 -4.45 -1.7 -4.65 -1.65 Q-4.95 -1.6 -5.2 -1.8 L-5.75 -2.4 -5.8 -2.65 -5.9 -3.4" fill="#333333" fill-rule="evenodd" stroke="none"/>
    <path d="M-4.8 -1.7 Q-4.65 -2.15 -4.35 -1.7 L-4.25 -0.5 Q-4.1 2.2 -4.5 4.95 L-4.55 5.5 -4.6 5.65 -4.65 5.85 Q-5.25 7.45 -5.1 9.3 L-5.05 11.1 -5.05 12.6 -5.05 12.8 -5.15 13.0 -5.4 13.85 -6.25 13.9 -6.35 13.55 -6.1 12.4 Q-5.95 11.65 -5.95 10.5 L-5.95 8.65 -5.9 7.35 -5.6 5.9 -5.2 4.05 -5.15 2.65 -5.1 1.25 -5.05 -0.15 -4.8 -1.7" fill="#333333" fill-rule="evenodd" stroke="none"/>
    <path d="M5.1 -0.95 Q5.15 -1.55 5.6 -1.05 L5.85 0.45 5.95 3.45 6.0 5.05 6.05 5.85 6.05 6.55 6.15 7.45 6.25 8.3 6.35 9.2 6.35 10.0 6.35 10.2 6.7 11.95 Q7.1 13.4 7.1 14.85 L6.65 15.25 6.2 14.9 5.95 13.85 5.6 12.0 5.4 10.25 5.3 9.05 5.25 7.95 5.15 6.75 5.1 5.65 5.0 4.45 5.0 3.25 5.05 1.45 5.1 0.05 5.1 -0.95" fill="#333333" fill-rule="evenodd" stroke="none"/>
    <path d="M2.15 -8.35 L2.1 -8.4 2.1 -8.5 2.2 -8.6 2.25 -8.6 2.4 -8.6 3.3 -8.55 4.2 -8.4 4.75 -8.2 4.75 -8.15 4.8 -8.1 4.8 -7.95 4.75 -7.9 4.75 -7.85 4.7 -7.8 4.6 -7.8 4.5 -7.8 4.45 -7.85 4.4 -7.9 4.4 -7.95 4.1 -8.05 3.3 -8.2 2.85 -8.25 2.15 -8.3 2.15 -8.35" fill="#333333" fill-rule="evenodd" stroke="none"/>
    <path d="M2.5 -7.05 L2.45 -7.05 2.45 -7.1 2.5 -7.15 2.55 -7.2 2.6 -7.15 2.7 -7.15 2.85 -7.1 3.05 -7.1 3.25 -7.05 3.3 -7.05 3.45 -7.0 3.7 -6.9 3.85 -6.85 3.95 -6.75 4.05 -6.7 4.3 -6.6 4.3 -6.55 4.35 -6.5 4.4 -6.45 4.45 -6.4 4.45 -6.3 4.4 -6.25 4.4 -6.2 4.3 -6.2 4.25 -6.15 4.15 -6.2 3.7 -6.5 Q3.45 -6.65 3.15 -6.75 L2.7 -6.9 2.65 -6.9 2.6 -6.95 2.55 -6.95 2.5 -7.0 2.5 -7.05" fill="#333333" fill-rule="evenodd" stroke="none"/>
    <path d="M1.8 -6.25 L2.15 -6.15 2.45 -6.1 2.7 -6.1 3.35 -5.9 3.9 -5.85 3.95 -5.8 3.95 -5.75 4.0 -5.75 4.0 -5.55 3.95 -5.55 3.95 -5.5 3.9 -5.45 3.8 -5.45 3.6 -5.45 2.65 -5.7 2.05 -5.85 1.7 -6.0 1.65 -6.05 1.65 -6.15 1.75 -6.25 1.8 -6.25" fill="#333333" fill-rule="evenodd" stroke="none"/>
    <path d="M4.25 -3.2 L4.55 -3.05 4.65 -3.0 4.7 -3.0 4.75 -2.95 4.75 -2.9 4.8 -2.85 4.8 -2.7 4.75 -2.7 4.75 -2.65 4.7 -2.6 4.6 -2.6 4.5 -2.6 4.45 -2.65 4.35 -2.7 4.3 -2.75 4.25 -2.75 4.2 -2.8 4.1 -2.8 4.05 -2.85 4.0 -2.9 3.95 -2.9 3.35 -3.0 -1.25 -3.35 -1.9 -3.3 -2.65 -3.2 -2.7 -3.2 -2.75 -3.15 -2.85 -3.15 -2.9 -3.15 -2.95 -3.2 -2.95 -3.25 -2.5 -3.55 -1.25 -3.7 -0.1 -3.7 1.75 -3.65 3.6 -3.4 4.25 -3.2" fill="#333333" fill-rule="evenodd" stroke="none"/>
    <path d="M3.7 -1.2 L3.9 -1.2 4.0 -1.15 4.4 -1.05 4.55 -1.05 4.9 -0.9 5.1 -0.85 5.15 -0.8 5.25 -0.8 5.35 -0.75 5.4 -0.75 5.5 -0.7 5.5 -0.65 5.55 -0.6 5.55 -0.45 5.5 -0.45 5.5 -0.4 5.45 -0.35 5.3 -0.35 5.2 -0.35 5.15 -0.4 5.05 -0.45 5.0 -0.45 4.95 -0.5 4.9 -0.55 4.7 -0.6 4.45 -0.7 4.15 -0.75 3.9 -0.85 3.75 -0.9 3.6 -0.9 3.5 -0.95 3.4 -0.95 3.4 -1.0 3.35 -1.05 3.35 -1.15 3.45 -1.25 3.55 -1.25 3.7 -1.2" fill="#333333" fill-rule="evenodd" stroke="none"/>
    <path d="M1.75 -0.35 L1.7 -0.4 1.65 -0.45 1.65 -0.6 1.75 -0.6 1.9 -0.65 2.7 -0.5 3.45 -0.3 3.9 -0.15 4.0 -0.05 4.0 0.0 4.05 0.05 4.05 0.1 4.0 0.15 4.0 0.2 3.95 0.2 3.85 0.25 3.75 0.2 3.7 0.2 3.4 0.05 2.7 -0.15 2.5 -0.25 2.15 -0.3 1.75 -0.35" fill="#333333" fill-rule="evenodd" stroke="none"/>
    <path d="M4.65 1.25 L4.6 1.25 4.55 1.3 4.55 1.35 4.45 1.35 4.35 1.35 3.75 1.2 3.15 1.05 2.8 1.0 2.75 1.0 2.65 1.0 2.6 0.95 2.6 0.8 2.65 0.75 2.75 0.7 3.0 0.7 3.6 0.8 4.2 0.9 4.55 1.0 4.6 1.0 4.6 1.05 4.65 1.1 4.65 1.25" fill="#333333" fill-rule="evenodd" stroke="none"/>
    <path d="M-3.6 -8.25 L-3.65 -8.2 -3.65 -8.15 -3.7 -8.15 -3.75 -8.1 -3.85 -8.15 -3.9 -8.15 -3.95 -8.2 -3.95 -8.45 -3.9 -8.5 -3.85 -8.5 -3.75 -8.5 -3.7 -8.5 -3.65 -8.45 -3.6 -8.4 -3.6 -8.25" fill="#333333" fill-rule="evenodd" stroke="none"/>
  </g>
</svg>
