<?xml version="1.0" encoding="UTF-8" standalone="no"?>
<svg xmlns:xlink="http://www.w3.org/1999/xlink" height="27.6px" width="24.4px" xmlns="http://www.w3.org/2000/svg">
  <g transform="matrix(1.0, 0.0, 0.0, 1.0, 12.2, 13.75)">
    <path d="M2.65 -3.65 Q3.25 -4.7 4.35 -5.25 6.6 -6.4 8.8 -6.7 10.05 -6.8 10.8 -6.2 L10.95 -6.0 11.15 -5.6 Q10.7 -4.45 9.6 -4.2 L6.85 -3.8 Q5.75 -3.45 4.8 -2.8 4.55 -0.85 5.25 0.8 L5.4 1.55 5.25 2.6 5.5 4.25 Q6.35 4.05 6.95 4.65 7.75 5.45 7.3 6.55 L6.9 7.15 Q6.7 8.55 6.85 10.0 6.9 10.6 6.6 11.05 6.25 11.55 5.6 11.75 L4.0 12.1 Q3.7 12.75 2.8 12.9 1.9 13.0 1.6 12.25 0.7 10.1 1.2 7.8 L1.4 7.55 Q2.3 6.75 1.7 6.65 0.7 6.05 0.25 4.85 -0.3 3.5 0.3 2.05 L0.55 1.5 2.15 -0.65 2.4 -2.9 2.65 -3.65" fill="#663333" fill-opacity="0.101960786" fill-rule="evenodd" stroke="none"/>
    <path d="M0.8 -11.85 L1.2 -11.75 Q1.95 -11.4 2.05 -10.45 L2.85 -10.05 3.65 -9.15 Q3.95 -8.55 3.55 -7.85 3.0 -7.05 2.8 -6.3 L3.4 -4.35 Q3.7 -2.4 2.95 -0.75 L4.1 0.95 Q4.55 2.05 4.55 3.45 4.6 5.3 4.0 7.15 5.25 7.35 5.5 8.3 L5.7 9.3 Q5.9 11.7 3.6 12.2 L2.55 13.25 Q0.35 14.05 -1.9 13.8 L-2.6 13.4 Q-3.55 13.05 -4.25 12.15 -4.9 11.3 -4.6 10.25 L-4.15 9.75 -2.7 8.95 -2.65 8.35 -2.0 7.45 Q-2.25 6.0 -2.15 4.4 -2.1 3.45 -1.7 2.65 L-2.75 1.7 -2.6 -0.7 -2.95 -1.3 Q-3.35 -2.85 -2.55 -4.05 L-0.75 -6.45 -1.4 -6.9 Q-1.75 -7.1 -1.75 -7.5 -1.8 -8.85 -0.75 -9.75 L-0.75 -10.2 -0.5 -11.1 Q0.0 -11.75 0.8 -11.85" fill="#663333" fill-opacity="0.101960786" fill-rule="evenodd" stroke="none"/>
    <path d="M6.0 -7.8 L5.75 -6.6 Q4.05 -5.4 2.1 -6.2 L1.6 -7.25 -1.9 -7.4 -2.05 -8.0 -1.65 -8.4 Q0.0 -8.5 1.85 -9.3 L2.6 -9.4 3.25 -9.15 3.6 -8.2 4.8 -8.5 Q5.75 -8.55 6.0 -7.8" fill="#663333" fill-opacity="0.101960786" fill-rule="evenodd" stroke="none"/>
    <path d="M-4.95 -8.7 L-3.8 -9.0 -3.45 -8.7 -2.7 -5.25 -1.85 -4.7 -1.55 -4.25 -1.4 -3.8 Q-1.3 -3.0 -1.95 -2.5 L-3.25 -2.65 -3.8 -3.35 -4.6 -3.6 -4.95 -4.35 -5.0 -5.7 -5.05 -6.3 Q-5.3 -7.55 -4.95 -8.7" fill="#663333" fill-opacity="0.101960786" fill-rule="evenodd" stroke="none"/>
    <path d="M-3.4 -8.0 L-2.55 -7.75 Q-1.9 -7.0 -1.95 -5.95 L-1.95 -3.25 -2.25 -2.65 -4.2 -2.4 Q-5.15 -2.4 -5.65 -3.15 -6.2 -4.05 -5.85 -4.95 L-5.05 -4.85 -4.65 -5.9 -5.65 -6.95 -5.5 -7.7 -5.35 -7.85 -3.4 -8.0" fill="#663333" fill-opacity="0.101960786" fill-rule="evenodd" stroke="none"/>
    <path d="M1.3 -0.35 L1.15 -0.1 0.45 0.35 -1.6 1.05 -2.3 0.8 -3.25 -0.25 -5.6 -0.55 -7.0 -1.2 -7.25 -1.95 Q-6.9 -2.7 -6.1 -2.8 L-1.75 -2.4 -1.65 -2.2 -1.05 -1.7 0.6 -1.25 1.3 -0.35" fill="#663333" fill-opacity="0.101960786" fill-rule="evenodd" stroke="none"/>
    <path d="M-8.95 -7.15 Q-8.45 -7.4 -8.0 -7.7 -7.0 -7.6 -6.5 -6.6 L-5.55 -4.6 Q-4.55 -2.5 -4.95 -0.1 L-5.3 0.65 Q-6.4 1.3 -7.2 0.35 L-7.4 -0.05 -7.85 -1.15 -8.3 -3.25 -8.75 -4.3 Q-9.4 -5.7 -8.95 -7.15" fill="#663333" fill-opacity="0.101960786" fill-rule="evenodd" stroke="none"/>
    <path d="M-7.75 -1.55 L-7.6 -2.6 -7.2 -3.0 -6.6 -2.3 Q-6.15 -0.45 -6.05 1.15 L-6.6 1.6 -7.6 1.45 -7.7 1.3 Q-8.0 0.0 -7.75 -1.55" fill="#663333" fill-opacity="0.101960786" fill-rule="evenodd" stroke="none"/>
    <path d="M5.3 1.2 Q5.65 1.65 5.2 2.1 L2.85 2.6 2.8 2.7 3.45 3.35 Q3.8 4.1 3.5 5.0 L3.1 5.45 2.5 5.75 Q1.35 6.05 0.7 5.2 L0.65 4.9 0.7 3.25 Q0.75 2.5 1.15 2.0 2.7 0.2 5.1 1.05 L5.3 1.2" fill="#663333" fill-opacity="0.101960786" fill-rule="evenodd" stroke="none"/>
    <path d="M1.4 -11.0 L1.65 -10.85 Q2.2 -10.25 2.25 -9.2 2.25 -8.65 2.5 -8.15 2.85 -7.5 2.8 -6.8 L2.8 -6.2 2.85 -6.1 9.6 -6.75 Q9.9 -6.75 10.15 -6.9 L11.15 -6.55 11.25 -6.4 11.35 -6.25 Q11.35 -5.55 10.95 -5.25 8.65 -3.8 6.1 -3.5 L5.7 -3.3 5.05 -1.8 5.15 -1.65 Q5.7 -0.7 5.6 0.35 5.5 1.35 5.0 2.25 L4.9 2.4 4.9 2.55 Q5.1 3.85 4.75 4.9 L4.65 5.4 4.7 8.55 Q4.75 9.95 4.25 11.4 3.9 12.5 2.9 13.05 L0.8 13.3 -0.9 12.5 Q-1.85 12.15 -2.35 11.3 L-2.35 11.15 Q-2.6 10.1 -2.3 9.35 -2.0 8.5 -1.15 8.15 L-0.85 7.9 -0.75 7.85 -0.5 5.6 Q-0.35 4.95 -0.7 4.35 -1.25 3.5 -1.2 2.45 L-1.2 2.15 -1.9 1.25 -2.0 0.8 Q-2.3 -0.55 -1.2 -1.4 L-1.1 -1.45 -0.95 -1.55 -1.15 -5.0 -1.6 -5.65 -1.75 -6.5 -1.75 -6.95 -1.75 -7.1 -2.5 -7.8 Q-3.15 -8.3 -3.0 -9.05 L-2.95 -9.25 -2.85 -9.35 Q-1.8 -10.7 -0.2 -11.1 L1.4 -11.0" fill="#663333" fill-opacity="0.101960786" fill-rule="evenodd" stroke="none"/>
    <path d="M-4.85 -10.6 L-3.95 -9.4 -4.1 -8.35 -4.6 -8.5 -5.4 -8.9 -4.35 -3.35 -3.4 -2.1 -4.15 -1.7 Q-5.25 -1.15 -6.1 -2.1 L-6.2 -2.4 -6.5 -3.45 -6.9 -5.7 -7.1 -8.4 -7.1 -8.85 -6.85 -10.5 -4.85 -10.6" fill="#ffffff" fill-opacity="0.101960786" fill-rule="evenodd" stroke="none"/>
    <path d="M6.5 -6.6 L6.3 -6.5 Q5.5 -5.6 4.35 -6.25 L3.8 -7.15 Q3.65 -7.75 4.0 -8.35 4.25 -8.65 4.8 -8.7 L10.4 -8.45 10.6 -7.4 10.2 -7.0 9.0 -6.85 6.5 -6.6" fill="#ffffff" fill-opacity="0.101960786" fill-rule="evenodd" stroke="none"/>
    <path d="M-5.8 -13.05 L-0.75 -12.8 -0.35 -11.9 -0.8 -11.15 -6.3 -9.95 -8.55 -8.7 -7.35 -8.1 -7.25 -7.8 Q-7.05 -7.15 -7.2 -6.6 L-7.55 -5.55 -8.3 -5.05 -8.85 -5.5 -9.15 -6.25 -10.5 -7.05 -11.1 -8.4 -11.4 -9.1 Q-12.15 -10.15 -11.25 -11.1 L-10.9 -11.25 Q-10.45 -11.35 -9.85 -11.6 L-8.1 -11.45 -5.8 -13.05" fill="#ffffff" fill-opacity="0.101960786" fill-rule="evenodd" stroke="none"/>
    <path d="M-7.15 0.4 Q-6.75 0.7 -6.6 1.15 L-5.7 3.25 -5.45 4.0 Q-5.0 6.5 -5.15 9.1 L-5.25 9.7 -6.2 10.6 -7.3 10.45 -7.8 9.5 -8.0 6.7 Q-8.0 6.3 -8.15 5.95 -9.3 3.25 -8.65 0.55 L-7.8 0.15 -7.15 0.4" fill="#ffffff" fill-opacity="0.101960786" fill-rule="evenodd" stroke="none"/>
    <path d="M-4.95 0.65 Q-4.1 1.3 -4.2 2.45 -3.9 4.3 -5.05 5.75 L-5.05 5.9 Q-5.0 6.3 -5.1 6.5 L-5.9 7.1 -7.3 6.45 -7.55 4.05 Q-7.65 2.65 -7.35 1.2 L-6.65 0.5 -5.2 0.5 -4.95 0.65" fill="#ffffff" fill-opacity="0.101960786" fill-rule="evenodd" stroke="none"/>
    <path d="M-6.35 -9.55 L-6.5 -9.4 -6.7 -8.6 Q-6.9 -7.8 -6.6 -6.75 L-6.0 -4.8 -5.9 -4.6 -5.65 -4.25 -4.8 -2.85 -3.8 -2.75 -3.8 -2.8 -3.4 -3.2 -2.8 -3.25 -2.75 -3.05 Q-2.65 -2.6 -2.9 -2.35 -3.85 -1.4 -5.0 -2.05 L-6.15 -3.35 -6.95 -5.05 -7.3 -6.45 -7.4 -6.85 -7.5 -8.6 Q-7.45 -9.6 -6.65 -10.2 -5.7 -10.5 -4.85 -10.2 L-4.25 -9.55 -4.05 -9.3 -3.75 -8.75 Q-3.55 -8.45 -3.95 -8.25 L-4.25 -8.55 -4.7 -9.2 Q-5.05 -9.85 -6.35 -9.55" fill="#333333" fill-rule="evenodd" stroke="none"/>
    <path d="M-5.3 -7.0 Q-5.4 -7.85 -4.85 -8.0 L-4.5 -7.7 -4.4 -7.55 -4.35 -7.5 -4.35 -7.45 -4.25 -7.1 -4.3 -7.05 -4.65 -6.9 -4.55 -6.35 Q-4.5 -5.6 -3.9 -4.9 L-3.55 -4.75 -3.4 -4.7 -3.4 -4.6 -3.4 -4.55 -3.45 -4.25 -4.1 -4.3 Q-4.9 -4.95 -5.1 -5.85 L-5.3 -7.0" fill="#333333" fill-rule="evenodd" stroke="none"/>
    <path d="M-3.85 -8.35 Q-3.8 -8.9 -3.25 -8.7 L2.8 -9.15 2.75 -8.8 2.6 -8.2 -3.65 -7.5 -3.85 -8.35" fill="#333333" fill-rule="evenodd" stroke="none"/>
    <path d="M4.05 -9.55 L4.4 -7.4 Q4.55 -6.45 3.95 -6.05 L2.65 -6.1 2.4 -6.65 2.1 -9.05 1.8 -11.25 3.7 -11.45 4.05 -9.55" fill="#333333" fill-rule="evenodd" stroke="none"/>
    <path d="M3.5 -10.8 Q3.0 -11.2 3.5 -11.5 4.15 -11.25 4.6 -10.6 L5.25 -8.9 Q5.45 -7.9 5.0 -6.95 L4.75 -6.7 Q4.0 -5.95 3.5 -6.35 L3.45 -6.4 Q3.45 -6.85 3.95 -7.15 4.85 -7.8 4.55 -9.0 4.35 -10.15 3.5 -10.8" fill="#333333" fill-rule="evenodd" stroke="none"/>
    <path d="M5.4 -8.05 Q5.05 -8.15 5.15 -8.4 L5.25 -8.7 7.85 -8.6 Q9.5 -8.85 11.05 -8.15 11.7 -7.8 11.95 -7.1 12.3 -6.3 12.15 -5.55 L12.0 -5.05 Q11.5 -4.0 10.35 -3.85 L7.9 -3.6 6.4 -3.2 6.1 -3.0 5.95 -2.75 5.9 -2.75 5.6 -2.45 Q5.4 -1.95 4.9 -2.15 4.3 -3.4 5.5 -3.9 6.65 -4.45 7.4 -4.45 L8.35 -4.4 8.9 -4.55 Q10.05 -4.45 11.0 -5.0 11.4 -5.5 11.45 -6.05 L11.3 -6.5 11.3 -6.6 10.6 -7.65 10.2 -7.75 8.75 -8.0 6.8 -7.95 5.4 -8.05" fill="#333333" fill-rule="evenodd" stroke="none"/>
    <path d="M-10.45 -11.8 L-10.3 -11.8 -8.9 -11.0 -8.3 -11.8 -7.6 -12.45 Q-6.95 -12.35 -6.7 -11.7 L-6.55 -11.6 Q-5.95 -11.1 -5.95 -10.4 L-6.0 -10.4 -6.45 -10.45 -7.55 -11.6 -8.55 -10.15 -8.95 -10.25 -9.6 -10.65 Q-10.3 -11.05 -10.45 -11.8" fill="#333333" fill-rule="evenodd" stroke="none"/>
    <path d="M-6.0 -10.45 Q-6.3 -10.55 -6.1 -10.85 L-2.6 -10.9 -1.85 -10.4 -1.3 -9.65 -0.8 -8.55 -0.75 -8.25 Q-0.55 -7.85 -0.85 -7.75 -1.1 -7.55 -1.3 -7.9 L-1.65 -8.9 Q-1.85 -9.6 -2.35 -10.05 L-2.4 -10.1 -3.05 -10.45 -4.5 -10.45 -6.0 -10.45" fill="#333333" fill-rule="evenodd" stroke="none"/>
    <path d="M-10.55 -11.2 Q-10.25 -11.1 -10.55 -11.0 -11.4 -10.8 -11.45 -10.6 L-10.5 -9.85 -9.95 -9.25 Q-9.75 -8.85 -10.2 -8.55 L-10.5 -8.4 -10.6 -8.35 -10.0 -7.95 -8.95 -7.15 Q-8.8 -6.95 -9.05 -6.65 L-9.45 -6.6 -9.95 -7.05 -11.4 -8.0 -11.6 -8.3 -11.45 -8.45 -10.95 -9.0 -10.65 -9.1 -10.75 -9.2 -12.0 -10.2 -12.2 -10.55 -12.2 -10.8 -12.2 -11.0 -12.15 -11.1 -10.65 -11.25 -10.55 -11.2" fill="#333333" fill-rule="evenodd" stroke="none"/>
    <path d="M-9.5 -7.55 Q-9.0 -7.3 -8.8 -6.4 L-8.55 -5.7 -8.5 -5.65 -8.3 -5.0 -8.2 -4.75 -8.0 -3.9 -7.1 0.9 -6.85 2.7 -6.7 4.25 -6.4 6.95 -6.15 10.3 -6.35 10.55 Q-7.1 10.05 -7.05 9.0 L-7.15 7.45 -7.4 5.55 -7.5 4.3 -7.6 2.95 -7.8 1.15 -8.05 -0.7 -8.35 -2.45 -8.6 -3.85 -9.1 -5.35 -9.65 -7.15 -9.5 -7.55" fill="#333333" fill-rule="evenodd" stroke="none"/>
    <path d="M-5.95 -3.3 L-5.8 -3.4 Q-5.5 -1.75 -5.7 -0.2 L-5.7 -0.1 -5.85 0.25 Q-6.35 0.1 -6.4 0.4 L-6.6 1.1 -7.15 2.7 -7.15 2.75 Q-7.05 3.2 -7.45 3.15 L-7.5 2.75 -7.2 0.85 -6.85 -0.15 -6.75 -0.3 Q-6.55 -0.65 -6.2 -0.45 L-6.15 -0.55 -6.1 -1.55 -5.95 -3.3" fill="#333333" fill-rule="evenodd" stroke="none"/>
    <path d="M-4.2 -9.2 L-4.0 -9.2 Q-3.25 -9.2 -2.9 -8.45 -2.25 -7.7 -2.15 -6.85 L-1.8 -4.15 Q-1.55 -2.45 -1.85 -0.65 L-2.15 -0.6 Q-2.55 -0.9 -2.55 -1.9 L-2.6 -6.4 Q-2.6 -7.75 -3.7 -8.6 L-3.95 -8.8 Q-4.55 -8.95 -4.2 -9.2" fill="#333333" fill-rule="evenodd" stroke="none"/>
    <path d="M-0.1 -6.7 L-0.05 -6.6 -0.05 -6.55 0.45 -5.35 0.9 -3.9 1.55 -1.5 1.9 0.3 1.3 0.2 1.1 -0.45 0.65 -2.4 0.4 -3.5 0.15 -4.45 -0.25 -5.75 -1.05 -7.7 Q-1.4 -8.4 -0.7 -8.25 L-0.35 -7.55 -0.1 -6.7" fill="#333333" fill-rule="evenodd" stroke="none"/>
    <path d="M-7.25 -12.6 L-7.15 -12.7 Q-5.95 -13.4 -4.4 -13.6 L-2.85 -13.75 -2.25 -13.75 Q-1.25 -13.65 -0.4 -13.15 L-0.2 -12.8 Q-0.05 -12.55 -0.35 -12.35 L-0.9 -12.3 -1.25 -12.65 -2.2 -12.9 -4.05 -13.0 -5.5 -12.65 -6.9 -12.15 -7.1 -11.95 Q-7.85 -11.9 -7.25 -12.6" fill="#333333" fill-rule="evenodd" stroke="none"/>
    <path d="M2.2 -12.7 L2.4 -12.45 Q2.6 -12.3 2.4 -11.8 2.25 -11.55 1.95 -11.6 L1.2 -12.5 -1.15 -12.3 -1.15 -12.55 -0.45 -13.0 Q0.5 -13.45 1.4 -13.3 L2.2 -12.7" fill="#333333" fill-rule="evenodd" stroke="none"/>
    <path d="M6.0 1.1 L6.05 1.3 Q6.55 2.35 6.0 3.15 L3.3 2.95 2.7 3.5 2.65 3.7 2.55 3.95 Q2.35 4.35 2.55 4.65 L2.8 4.85 2.8 4.95 Q2.95 5.75 2.1 5.45 L1.85 5.15 1.75 4.85 Q1.65 4.25 1.85 3.55 2.15 2.7 3.05 2.15 L4.8 2.35 5.3 1.7 5.05 0.9 4.85 -0.05 4.65 -0.8 Q4.5 -1.2 4.6 -2.0 4.7 -2.85 5.4 -2.9 L5.5 -2.75 Q5.35 -1.95 5.5 -1.25 L5.85 0.7 6.0 1.1" fill="#333333" fill-rule="evenodd" stroke="none"/>
    <path d="M7.15 4.5 L7.1 4.45 Q6.3 4.15 5.3 4.7 L3.4 5.5 2.2 5.75 1.65 5.55 Q1.7 5.25 2.05 5.2 L3.95 4.3 5.75 3.75 Q6.65 3.4 7.5 3.75 L7.95 4.35 7.95 5.2 Q7.4 5.9 7.35 6.8 7.25 8.65 7.85 10.7 L7.8 11.05 7.65 11.35 7.45 11.3 6.95 10.8 Q6.25 8.1 6.8 5.55 L7.0 5.15 7.15 4.5" fill="#333333" fill-rule="evenodd" stroke="none"/>
    <path d="M7.55 9.3 L7.7 9.65 Q7.95 10.3 7.6 10.95 L7.5 11.05 7.45 11.15 6.9 11.95 6.65 12.15 6.55 12.25 6.45 12.35 5.1 12.8 Q3.35 13.6 1.4 13.7 -2.45 14.25 -5.25 11.7 L-6.15 10.9 Q-6.8 10.35 -6.45 9.85 L-6.35 9.8 -6.2 9.9 -6.0 10.1 -5.7 10.4 -5.5 10.6 -4.8 11.25 -3.55 12.05 Q-1.45 13.25 0.95 13.05 3.55 12.85 5.85 11.35 L6.9 10.4 6.9 10.25 Q6.6 9.25 7.55 9.3" fill="#333333" fill-rule="evenodd" stroke="none"/>
    <path d="M-1.7 -0.6 L-1.6 -0.5 -1.3 -0.4 Q1.15 -0.4 1.9 0.65 L1.7 0.85 0.05 0.8 -1.4 0.4 Q-2.45 0.1 -2.15 -0.85 L-1.7 -0.6" fill="#333333" fill-rule="evenodd" stroke="none"/>
    <path d="M5.65 3.45 L5.75 3.55 5.8 3.6 5.85 3.65 5.9 3.65 5.9 3.75 5.95 3.8 5.95 3.85 5.9 3.9 5.9 4.0 5.8 4.05 5.7 4.1 5.55 4.15 5.5 4.1 5.35 4.1 5.3 4.05 5.2 3.95 5.2 3.9 5.15 3.85 5.1 3.8 5.1 3.7 5.05 3.65 5.05 3.6 4.95 3.55 4.9 3.5 4.85 3.45 4.85 3.4 4.8 3.25 4.85 3.1 4.9 2.9 4.9 2.8 5.05 2.65 5.15 2.65 5.25 2.65 5.35 2.7 5.5 2.85 5.5 2.95 5.55 3.0 5.45 3.05 5.35 3.0 5.35 3.05 5.45 3.15 5.5 3.2 5.6 3.3 5.6 3.35 5.65 3.4 5.65 3.45" fill="#333333" fill-rule="evenodd" stroke="none"/>
    <path d="M2.15 3.75 L2.25 3.7 2.35 3.65 2.4 3.6 3.6 3.5 3.65 3.45 3.75 3.4 3.85 3.4 3.95 3.4 4.05 3.5 4.05 3.55 4.1 3.6 4.1 3.65 4.05 3.7 4.05 3.8 4.0 3.85 4.0 3.9 3.95 3.9 3.9 3.95 3.85 4.0 3.6 4.1 2.7 4.05 2.4 4.05 2.2 4.25 2.2 4.45 2.15 4.5 2.1 4.55 2.05 4.55 1.95 4.55 1.9 4.5 1.9 4.45 1.9 4.35 1.85 4.2 1.85 4.05 1.9 4.0 2.0 3.9 2.1 3.8 2.15 3.75" fill="#333333" fill-rule="evenodd" stroke="none"/>
    <path d="M-2.15 -1.25 L-2.1 -1.3 -2.1 -1.35 -2.05 -1.4 -1.8 -1.75 -1.4 -2.15 -1.0 -2.35 -0.9 -2.3 -0.9 -2.25 -0.85 -2.2 -0.9 -2.15 -0.9 -2.1 -1.4 -1.75 -1.75 -1.35 -1.9 -1.1 -1.95 -1.1 -2.05 -1.05 -2.1 -1.05 -2.2 -1.05 -2.2 -1.1 -2.15 -1.15 -2.15 -1.25" fill="#333333" fill-rule="evenodd" stroke="none"/>
    <path d="M-0.65 -1.6 L-0.65 -1.55 -0.6 -1.55 -0.6 -1.45 -0.65 -1.4 -0.75 -1.35 -0.8 -1.3 -0.85 -1.25 -0.95 -1.15 -1.0 -1.05 -1.05 -1.0 -1.05 -0.9 -1.1 -0.85 -1.15 -0.8 -1.2 -0.7 -1.25 -0.65 -1.25 -0.55 -1.3 -0.5 -1.3 -0.45 -1.35 -0.4 -1.35 -0.35 -1.4 -0.35 -1.4 -0.3 -1.5 -0.3 -1.6 -0.25 -1.65 -0.2 -1.75 -0.25 -1.8 -0.3 -1.8 -0.35 -1.75 -0.4 -1.75 -0.45 -1.7 -0.5 -1.7 -0.6 -1.65 -0.65 -1.65 -0.75 -1.45 -1.0 -1.3 -1.25 -1.0 -1.6 -0.85 -1.65 -0.75 -1.65 -0.65 -1.6" fill="#333333" fill-rule="evenodd" stroke="none"/>
    <path d="M8.8 -5.65 L8.8 -5.6 8.85 -5.55 8.85 -5.45 8.9 -5.4 8.95 -5.35 8.95 -5.3 9.0 -5.25 9.0 -5.15 8.95 -5.1 8.95 -5.05 8.9 -5.05 8.9 -5.0 8.8 -5.0 8.75 -5.0 8.65 -5.05 8.6 -5.1 8.55 -5.15 8.45 -5.25 8.25 -5.1 7.95 -4.8 7.9 -4.8 7.4 -4.75 7.3 -4.8 7.25 -4.85 7.2 -4.9 7.15 -4.95 7.15 -5.1 7.1 -5.15 7.0 -5.1 6.95 -5.05 6.9 -5.0 6.85 -4.9 6.75 -4.8 6.7 -4.75 6.65 -4.75 6.5 -4.75 6.3 -4.75 6.2 -4.8 6.15 -4.85 6.15 -5.0 6.2 -5.05 6.2 -5.35 6.25 -5.4 6.3 -5.35 6.35 -5.3 6.4 -5.25 6.4 -5.05 6.5 -5.05 6.6 -5.05 6.65 -5.15 6.8 -5.3 6.9 -5.35 6.9 -5.5 6.95 -5.55 7.0 -5.6 7.0 -5.65 7.15 -5.8 7.15 -5.9 7.2 -5.95 7.25 -6.0 7.3 -6.0 7.4 -5.95 7.4 -5.9 7.45 -5.85 7.45 -5.7 7.45 -5.45 7.45 -5.2 7.8 -5.15 7.9 -5.25 8.0 -5.35 8.1 -5.45 8.15 -5.5 8.15 -5.55 8.2 -5.6 8.2 -5.7 8.25 -5.75 8.35 -5.8 8.4 -5.85 8.5 -5.9 8.55 -5.9 8.65 -5.85 8.7 -5.8 8.7 -5.75 8.75 -5.7 8.8 -5.65" fill="#333333" fill-rule="evenodd" stroke="none"/>
    <path d="M9.9 -5.45 L9.95 -5.4 10.0 -5.35 10.05 -5.3 10.1 -5.3 10.1 -5.0 10.05 -4.95 9.95 -4.95 9.9 -5.0 9.9 -5.15 9.85 -5.2 9.8 -5.25 9.8 -5.4 9.85 -5.45 9.9 -5.45" fill="#333333" fill-rule="evenodd" stroke="none"/>
    <path d="M-5.65 2.95 L-5.65 3.0 -5.6 3.05 -5.6 3.1 -5.75 3.25 -5.95 3.35 -6.0 3.4 -6.15 3.6 -6.3 3.8 -6.35 3.9 -6.4 4.0 -6.5 4.05 -6.55 4.1 -6.65 4.15 -6.7 4.1 -6.7 4.0 -6.65 3.95 -6.65 3.85 -6.45 3.5 -6.2 3.2 -5.8 2.9 -5.75 2.9 -5.65 2.95" fill="#333333" fill-rule="evenodd" stroke="none"/>
    <path d="M-5.6 3.8 L-5.6 3.85 -5.55 3.9 -5.55 3.95 -5.5 4.0 -5.55 4.05 -5.55 4.1 -5.6 4.15 -5.65 4.15 -5.75 4.15 -5.8 4.25 -5.9 4.4 -5.95 4.55 -5.95 4.6 -6.0 4.65 -6.05 4.7 -6.1 4.75 -6.2 4.7 -6.25 4.65 -6.25 4.6 -6.25 4.5 -6.25 4.4 -6.1 4.15 -5.95 3.95 -5.8 3.8 -5.7 3.8 -5.7 3.75 -5.6 3.8" fill="#333333" fill-rule="evenodd" stroke="none"/>
    <path d="M-5.55 5.25 L-5.5 5.2 -5.5 5.1 -5.4 5.05 -5.35 5.1 -5.3 5.15 -5.3 5.3 -5.35 5.35 -5.35 5.55 -5.4 5.6 -5.4 5.65 -5.45 5.7 -5.55 5.7 -5.6 5.65 -5.6 5.35 -5.55 5.3 -5.55 5.25" fill="#333333" fill-rule="evenodd" stroke="none"/>
    <path d="M-7.6 -0.15 L-7.6 -0.2 -7.5 -0.3 -7.45 -0.4 -7.35 -0.45 -7.25 -0.55 -7.1 -0.6 -7.1 -0.7 -7.05 -0.75 -7.05 -0.8 -7.0 -0.85 -6.9 -0.85 -6.8 -0.85 -6.75 -0.8 -6.75 -0.7 -6.7 -0.65 -6.7 -0.6 -6.75 -0.55 -6.75 -0.45 -6.8 -0.4 -6.8 -0.35 Q-6.9 -0.25 -7.05 -0.2 L-7.35 0.1 -7.35 0.15 -7.55 0.25 -7.85 0.35 -7.95 0.3 -8.0 0.25 -8.05 0.2 -8.05 0.1 -7.95 0.0 -7.8 -0.05 -7.6 -0.15" fill="#333333" fill-rule="evenodd" stroke="none"/>
    <path d="M-7.15 -1.65 L-7.0 -1.7 -6.9 -1.75 -6.8 -1.8 -6.7 -1.85 -6.6 -1.8 -6.6 -1.75 -6.55 -1.7 -6.6 -1.65 -6.65 -1.6 -6.9 -1.45 -7.1 -1.3 -7.4 -1.15 -7.6 -1.0 -7.65 -0.95 -7.8 -0.85 -7.85 -0.85 -7.95 -0.8 -8.05 -0.75 -8.1 -0.75 -8.15 -0.7 -8.25 -0.75 -8.3 -0.8 -8.3 -0.85 -8.35 -0.9 -8.3 -0.95 -8.3 -1.0 -8.25 -1.05 -7.95 -1.15 -7.85 -1.25 -7.7 -1.35 -7.6 -1.45 -7.55 -1.5 -7.3 -1.6 -7.15 -1.65" fill="#333333" fill-rule="evenodd" stroke="none"/>
    <path d="M-7.25 -2.35 L-7.1 -2.3 -7.0 -2.3 -6.95 -2.25 -6.95 -2.15 -7.05 -2.1 -7.25 -2.05 -7.6 -2.05 -7.7 -2.0 -7.75 -2.0 -7.9 -2.0 -8.05 -2.0 -8.1 -2.05 -8.2 -2.05 -8.25 -2.1 -8.25 -2.15 -8.2 -2.2 -8.15 -2.25 -8.1 -2.25 -8.0 -2.25 -7.7 -2.35 -7.6 -2.35 -7.25 -2.35" fill="#333333" fill-rule="evenodd" stroke="none"/>
    <path d="M-7.8 -2.1 L-7.9 -2.05 -8.0 -2.05 -8.05 -2.1 -7.95 -2.35 -7.45 -2.6 -7.25 -2.65 -7.1 -2.65 -7.05 -2.6 -7.0 -2.55 -7.0 -2.5 -7.0 -2.45 -7.0 -2.4 -7.05 -2.35 -7.3 -2.3 -7.8 -2.1" fill="#333333" fill-rule="evenodd" stroke="none"/>
    <path d="M0.4 -1.2 L0.3 -1.1 0.2 -1.0 0.15 -0.95 0.05 -0.9 -0.05 -0.8 -0.1 -0.75 -0.2 -0.8 -0.25 -0.85 -0.25 -0.9 -0.2 -1.0 -0.1 -1.1 0.0 -1.15 0.05 -1.2 0.15 -1.3 0.2 -1.35 0.3 -1.35 0.4 -1.35 0.4 -1.2" fill="#333333" fill-rule="evenodd" stroke="none"/>
  </g>
</svg>
