<?xml version="1.0" encoding="UTF-8" standalone="no"?>
<svg xmlns:xlink="http://www.w3.org/1999/xlink" height="27.8px" width="24.3px" xmlns="http://www.w3.org/2000/svg">
  <g transform="matrix(1.0, 0.0, 0.0, 1.0, 11.85, 13.9)">
    <path d="M3.75 -4.65 L4.35 -5.15 5.45 -5.85 Q7.75 -6.0 10.1 -6.9 L10.4 -6.9 Q11.1 -7.15 11.65 -6.4 11.95 -5.5 11.1 -5.05 8.55 -3.75 5.75 -3.45 L5.1 -2.25 5.2 -1.95 5.35 -1.35 5.35 0.45 Q5.4 1.6 4.9 2.7 L5.8 3.6 6.95 3.7 7.4 4.1 Q8.15 5.4 7.9 7.0 7.7 8.1 8.1 9.3 8.3 10.0 7.9 10.65 7.25 11.6 6.05 11.2 L4.45 12.0 3.8 12.75 0.8 12.65 0.4 12.2 Q-0.6 9.6 1.05 7.55 0.15 7.4 -0.55 6.9 -1.1 6.55 -1.25 5.7 -1.65 3.9 -1.4 2.1 L-1.2 1.05 Q-1.1 0.4 -0.45 0.0 L0.1 -0.3 Q0.9 -0.45 1.45 -0.9 L1.75 -4.2 2.5 -4.75 3.75 -4.65" fill="#663333" fill-opacity="0.101960786" fill-rule="evenodd" stroke="none"/>
    <path d="M3.6 -2.15 L2.55 -0.2 Q3.55 0.95 3.6 2.5 L3.75 3.55 3.95 4.75 4.0 6.55 4.25 6.8 5.5 7.75 Q6.5 8.8 6.2 10.3 6.05 11.1 5.35 11.35 L5.05 11.65 4.1 12.35 2.7 13.0 -1.8 12.75 -2.5 12.3 -2.85 11.85 -3.2 10.4 -3.0 9.4 -2.75 7.85 -2.85 7.7 -3.0 7.2 -3.25 5.15 -3.35 4.85 -3.4 3.05 -3.95 2.3 -3.9 0.65 -3.85 0.5 -3.8 0.35 -3.2 -0.55 Q-3.25 -1.65 -2.65 -2.5 L-1.85 -3.35 -1.45 -3.9 -0.3 -5.2 1.8 -5.75 Q4.25 -5.25 6.75 -5.85 L9.9 -6.25 11.6 -6.95 12.45 -6.4 Q12.55 -5.45 12.05 -4.75 11.3 -3.75 10.1 -3.4 L4.5 -2.45 3.6 -2.15" fill="#663333" fill-opacity="0.101960786" fill-rule="evenodd" stroke="none"/>
    <path d="M3.55 -10.75 L4.15 -9.85 3.9 -8.0 4.8 -8.3 Q5.4 -8.25 5.8 -7.65 6.3 -6.85 5.75 -6.1 L5.2 -5.1 Q4.6 -3.35 5.15 -1.5 5.8 0.75 5.4 3.1 L5.2 3.95 4.7 5.65 Q5.7 7.3 4.75 9.05 L3.55 10.05 Q2.4 10.7 1.1 10.7 0.3 10.55 0.0 9.9 L-0.6 8.35 Q-1.15 7.1 -1.0 5.85 L-1.1 5.8 -2.45 3.8 Q-3.1 2.2 -2.6 0.45 L-2.55 0.0 Q-2.6 -1.65 -1.95 -3.0 -2.3 -3.5 -2.2 -4.2 -2.05 -5.6 -2.4 -6.9 L-2.7 -8.1 Q-2.8 -8.95 -2.35 -9.5 L-1.75 -10.65 Q-1.45 -11.9 -0.1 -12.15 2.05 -12.65 3.55 -10.75" fill="#663333" fill-opacity="0.101960786" fill-rule="evenodd" stroke="none"/>
    <path d="M-3.85 -8.5 L-3.2 -6.4 -2.45 -4.15 -2.65 -3.55 Q-3.05 -3.0 -3.95 -2.7 -5.3 -2.55 -6.1 -3.6 -6.4 -3.9 -6.35 -4.3 L-5.85 -7.3 -6.0 -7.6 Q-6.3 -8.6 -5.7 -9.4 L-4.6 -9.55 Q-4.0 -9.25 -3.85 -8.5" fill="#663333" fill-opacity="0.101960786" fill-rule="evenodd" stroke="none"/>
    <path d="M0.0 -4.35 L0.6 -4.55 1.45 -4.0 1.6 -3.25 Q1.55 -2.55 1.9 -2.0 2.35 -1.3 1.95 -0.55 L1.6 -0.25 -0.15 0.05 Q-1.55 0.15 -2.6 -0.8 -4.2 -0.35 -5.75 -1.35 L-5.85 -2.25 -4.95 -3.3 -3.5 -3.25 -1.75 -3.2 -1.2 -2.45 Q-0.7 -1.85 -0.55 -2.55 L0.0 -4.35" fill="#663333" fill-opacity="0.101960786" fill-rule="evenodd" stroke="none"/>
    <path d="M4.1 -7.9 L3.4 -6.85 -2.95 -7.1 -2.95 -8.3 -2.8 -8.45 1.6 -9.3 Q2.7 -9.35 3.6 -8.6 L4.1 -7.9" fill="#663333" fill-opacity="0.101960786" fill-rule="evenodd" stroke="none"/>
    <path d="M-9.45 -8.2 L-8.6 -7.85 -6.0 -4.25 Q-5.35 -3.3 -5.15 -2.15 -5.0 -1.05 -5.75 -0.2 L-7.0 0.2 -8.0 -0.25 -8.05 -2.65 -9.0 -4.55 Q-9.65 -5.7 -9.9 -7.0 -10.05 -7.75 -9.45 -8.2" fill="#663333" fill-opacity="0.101960786" fill-rule="evenodd" stroke="none"/>
    <path d="M-8.65 -0.8 L-7.8 -2.2 -6.6 -2.75 -5.8 -2.25 Q-5.7 -1.6 -6.15 -1.15 L-7.05 0.0 -7.1 0.15 -7.2 1.5 Q-7.35 2.4 -8.0 2.7 -8.55 2.5 -8.75 1.85 L-8.9 -0.25 -8.65 -0.8" fill="#663333" fill-opacity="0.101960786" fill-rule="evenodd" stroke="none"/>
    <path d="M-1.2 -13.4 L-0.95 -12.8 -1.4 -12.05 -4.85 -11.55 -5.05 -11.15 Q-5.2 -11.0 -5.4 -11.0 L-6.4 -10.45 -7.1 -9.4 -8.75 -8.95 -8.65 -8.8 Q-8.25 -8.2 -8.55 -7.6 -8.95 -6.9 -10.0 -7.0 -10.7 -7.0 -10.9 -7.55 L-10.95 -8.45 -11.0 -8.6 -11.1 -8.75 Q-11.35 -9.0 -11.4 -9.5 -11.5 -10.25 -11.15 -10.85 L-7.95 -11.6 -5.15 -13.55 -4.4 -13.9 -1.2 -13.4" fill="#ffffff" fill-opacity="0.101960786" fill-rule="evenodd" stroke="none"/>
    <path d="M-5.75 -11.0 L-6.6 -10.25 Q-7.9 -9.0 -9.4 -9.55 L-9.7 -10.45 -9.2 -11.0 Q-8.15 -11.05 -7.4 -11.85 -6.7 -12.5 -5.8 -12.65 L-5.0 -12.05 Q-5.3 -11.45 -5.75 -11.0" fill="#ffffff" fill-opacity="0.101960786" fill-rule="evenodd" stroke="none"/>
    <path d="M-4.9 -9.45 Q-4.6 -9.2 -4.75 -8.85 L-5.1 -7.5 -5.7 -7.2 Q-5.65 -5.95 -5.75 -4.65 -5.8 -3.95 -6.4 -3.75 L-6.7 -3.85 -6.95 -4.3 Q-7.25 -5.75 -7.05 -7.45 -6.95 -8.6 -6.35 -9.55 L-5.8 -9.85 -4.9 -9.45" fill="#ffffff" fill-opacity="0.101960786" fill-rule="evenodd" stroke="none"/>
    <path d="M-7.15 0.95 L-5.95 1.05 -5.85 1.55 -5.5 5.85 Q-5.35 7.15 -4.75 8.1 -4.6 9.05 -4.8 9.9 -4.95 10.5 -5.5 10.65 L-6.5 10.45 -6.85 10.0 -6.9 9.25 -8.0 8.75 Q-8.35 5.2 -7.6 1.55 L-7.15 0.95" fill="#ffffff" fill-opacity="0.101960786" fill-rule="evenodd" stroke="none"/>
    <path d="M-6.8 2.35 L-6.55 2.5 Q-5.3 3.3 -4.7 4.6 -4.05 5.25 -4.25 6.25 -4.45 7.55 -5.05 8.65 L-5.5 8.9 -5.8 8.95 Q-6.35 8.95 -6.6 8.5 -7.35 7.15 -7.0 5.55 L-7.25 5.25 -7.8 4.55 Q-8.4 3.55 -8.0 2.4 L-6.8 2.35" fill="#ffffff" fill-opacity="0.101960786" fill-rule="evenodd" stroke="none"/>
    <path d="M6.0 -8.1 L7.1 -7.95 4.9 -7.85 6.0 -8.1" fill="#ffffff" fill-opacity="0.101960786" fill-rule="evenodd" stroke="none"/>
    <path d="M5.1 -6.8 L5.1 -6.95 Q5.15 -7.85 6.2 -8.1 L10.0 -8.2 Q10.8 -8.2 11.35 -7.6 L11.4 -6.85 Q11.2 -6.35 10.45 -6.6 L5.6 -6.2 5.1 -6.8" fill="#ffffff" fill-opacity="0.101960786" fill-rule="evenodd" stroke="none"/>
    <path d="M-2.6 -7.25 L-2.6 -6.95 Q-2.6 -6.35 -2.85 -5.75 L-2.9 -5.45 -2.7 -4.55 -1.7 -4.3 -1.8 -3.1 Q-2.75 -2.4 -3.8 -2.8 L-5.0 -4.3 -4.9 -7.45 Q-4.85 -8.1 -4.2 -8.0 L-2.6 -7.25" fill="#663333" fill-opacity="0.101960786" fill-rule="evenodd" stroke="none"/>
    <path d="M-4.35 -9.7 L-4.25 -9.65 -3.95 -9.25 -3.6 -8.9 Q-3.45 -8.6 -3.7 -8.4 L-3.9 -8.4 -4.1 -8.6 -4.15 -8.65 -4.2 -8.65 -4.65 -9.2 -5.2 -9.6 -6.65 -9.4 -6.7 -9.35 Q-7.0 -7.4 -6.45 -5.55 L-6.3 -5.0 -6.25 -4.95 -6.25 -4.9 -5.95 -4.15 -5.85 -3.6 -5.0 -2.8 -4.85 -2.8 -4.8 -2.75 -4.7 -2.7 Q-4.0 -2.7 -3.4 -3.15 L-2.95 -3.45 -2.6 -3.45 -2.5 -3.25 Q-2.65 -2.3 -3.75 -1.95 -5.1 -1.65 -6.0 -2.5 L-6.45 -3.1 -6.75 -4.15 -7.0 -4.7 -7.05 -4.7 -7.1 -4.95 -7.2 -5.45 Q-7.6 -7.25 -7.5 -9.05 L-7.3 -9.7 -6.7 -10.35 -4.85 -10.15 -4.35 -9.7" fill="#333333" fill-rule="evenodd" stroke="none"/>
    <path d="M-4.45 -7.9 Q-4.2 -7.5 -4.35 -7.3 -4.8 -6.6 -4.35 -5.8 L-4.0 -5.15 Q-3.6 -4.6 -3.95 -4.2 -4.05 -4.05 -4.3 -4.35 -4.9 -5.15 -5.2 -6.1 L-5.25 -7.5 Q-5.05 -8.2 -4.45 -7.9" fill="#333333" fill-rule="evenodd" stroke="none"/>
    <path d="M2.15 -9.55 L2.3 -9.5 2.55 -9.2 3.2 -9.25 3.4 -9.25 3.55 -9.1 3.65 -9.0 3.5 -8.75 Q1.75 -8.05 -0.2 -7.95 L-2.4 -7.8 -3.65 -7.85 -3.8 -8.0 -3.8 -8.3 -3.8 -8.35 -3.7 -8.45 -3.6 -8.5 -3.55 -8.5 -3.55 -8.75 -3.45 -8.85 1.8 -9.55 2.15 -9.55" fill="#333333" fill-rule="evenodd" stroke="none"/>
    <path d="M3.45 -11.15 L3.75 -10.55 Q4.3 -8.5 4.1 -6.3 L2.2 -6.2 Q1.75 -6.15 1.8 -6.6 1.95 -8.5 1.55 -10.35 L1.3 -11.2 3.45 -11.15 M3.15 -10.15 Q3.0 -10.9 2.4 -10.8 L2.8 -9.8 3.05 -9.15 3.1 -9.0 3.25 -8.6 Q3.5 -8.3 3.15 -7.85 2.9 -7.75 2.75 -8.0 L2.45 -8.85 2.4 -8.9 2.35 -9.05 2.0 -10.05 2.15 -9.35 2.2 -9.25 2.3 -8.95 2.5 -8.05 2.7 -6.75 3.5 -6.8 3.4 -8.6 3.15 -10.15" fill="#333333" fill-rule="evenodd" stroke="none"/>
    <path d="M3.35 -10.95 L3.85 -9.7 3.95 -8.4 3.7 -7.0 3.4 -6.3 2.8 -7.25 Q2.3 -8.25 2.1 -9.3 L2.0 -10.6 2.95 -11.55 3.35 -10.95" fill="#333333" fill-rule="evenodd" stroke="none"/>
    <path d="M5.25 -9.05 L5.3 -8.15 Q5.3 -6.6 3.95 -6.55 L3.95 -6.9 4.55 -7.5 Q4.85 -8.05 4.7 -8.65 L4.2 -10.1 3.85 -10.55 Q3.3 -11.15 3.8 -11.35 L4.3 -10.95 5.15 -9.3 5.25 -9.05" fill="#333333" fill-rule="evenodd" stroke="none"/>
    <path d="M5.9 -8.6 L6.1 -8.55 8.15 -8.5 10.35 -8.5 11.85 -7.65 11.85 -7.6 11.9 -7.5 12.0 -7.35 Q12.4 -6.3 12.2 -5.25 L11.95 -4.9 11.15 -4.35 Q10.55 -3.9 9.85 -3.8 L6.7 -3.2 6.4 -3.1 6.25 -3.05 5.55 -2.6 Q5.25 -2.2 5.55 -2.1 L5.55 -2.05 5.25 -1.95 Q4.9 -1.8 4.65 -1.95 4.4 -2.45 4.6 -2.7 L5.6 -3.6 7.4 -4.1 8.35 -4.4 8.95 -4.45 Q10.45 -4.6 11.45 -5.6 L11.45 -5.8 Q11.55 -6.5 11.3 -6.9 L10.6 -7.55 10.45 -7.55 10.05 -7.75 6.15 -8.0 Q5.25 -8.25 5.0 -8.65 L5.9 -8.6" fill="#333333" fill-rule="evenodd" stroke="none"/>
    <path d="M1.7 -12.6 L1.65 -12.65 0.0 -12.7 -0.95 -12.55 -0.9 -12.8 Q0.0 -13.85 1.35 -13.6 L2.1 -13.05 2.2 -12.95 Q2.55 -12.5 2.4 -11.85 L2.4 -11.75 Q2.15 -11.65 1.9 -12.1 L1.7 -12.6" fill="#333333" fill-rule="evenodd" stroke="none"/>
    <path d="M-0.65 -12.9 L-0.9 -12.95 Q-3.65 -13.8 -6.15 -12.45 L-7.1 -11.5 -7.4 -11.4 Q-7.85 -11.55 -7.75 -11.95 L-7.7 -12.05 -6.35 -13.2 Q-3.85 -14.25 -1.35 -13.6 -0.6 -13.55 -0.65 -12.9" fill="#333333" fill-rule="evenodd" stroke="none"/>
    <path d="M-6.2 -11.25 L-6.1 -10.95 Q-6.1 -10.35 -6.6 -10.8 -7.25 -11.35 -7.65 -11.45 L-8.0 -10.45 Q-8.05 -10.0 -8.45 -9.95 -9.05 -10.2 -8.75 -10.8 L-8.3 -11.75 -7.8 -12.3 -7.4 -12.15 -6.2 -11.25" fill="#333333" fill-rule="evenodd" stroke="none"/>
    <path d="M-10.6 -11.15 Q-11.25 -11.7 -10.55 -11.75 L-9.65 -11.45 -8.65 -10.75 Q-8.15 -10.4 -8.25 -10.15 L-8.65 -10.2 -9.9 -10.7 -10.6 -11.15" fill="#333333" fill-rule="evenodd" stroke="none"/>
    <path d="M-11.8 -10.35 L-11.8 -10.5 Q-11.85 -11.3 -11.0 -11.0 -10.6 -10.95 -10.45 -10.7 -10.3 -10.4 -10.75 -10.5 -11.1 -10.6 -10.95 -10.35 -10.55 -9.6 -9.95 -9.2 L-9.95 -9.1 Q-9.85 -8.55 -10.35 -8.65 -10.5 -8.5 -10.75 -8.85 L-11.8 -10.35" fill="#333333" fill-rule="evenodd" stroke="none"/>
    <path d="M-10.3 -9.05 L-10.35 -8.85 -10.5 -8.45 Q-10.6 -7.95 -9.8 -7.85 -8.95 -7.6 -8.95 -6.95 L-9.6 -6.85 -11.1 -7.7 -11.85 -8.3 -11.8 -8.45 Q-11.2 -9.25 -10.3 -9.05" fill="#333333" fill-rule="evenodd" stroke="none"/>
    <path d="M-1.75 -10.35 L-1.55 -10.1 -1.45 -9.95 -1.05 -9.1 -0.8 -8.8 Q-0.5 -8.65 -0.85 -8.25 L-1.35 -8.55 -1.45 -8.7 -1.9 -9.65 -2.1 -9.75 -2.6 -10.25 -4.95 -10.35 Q-5.7 -10.25 -6.15 -10.75 L-5.95 -10.85 -4.85 -10.8 -3.5 -10.8 Q-2.55 -11.1 -1.75 -10.35" fill="#333333" fill-rule="evenodd" stroke="none"/>
    <path d="M-2.55 -6.3 L-2.55 -7.65 Q-1.9 -7.95 -1.9 -7.1 L-1.75 -3.7 -1.6 -1.5 -1.6 -1.15 -1.3 -0.15 -1.2 -0.05 -1.25 0.0 -1.4 0.15 -1.5 0.15 -1.55 0.2 -1.65 0.2 -1.8 0.2 -1.9 0.1 -2.2 -0.2 -2.3 -1.2 -2.35 -3.0 -2.45 -4.1 -2.5 -5.2 -2.55 -6.3" fill="#333333" fill-rule="evenodd" stroke="none"/>
    <path d="M0.45 -0.45 Q0.75 -0.15 1.15 -0.15 L1.75 0.1 1.85 0.35 0.35 0.3 -1.15 0.3 Q-1.7 0.35 -1.95 -0.25 L0.45 -0.45" fill="#333333" fill-rule="evenodd" stroke="none"/>
    <path d="M0.6 -5.25 L0.8 -4.85 0.9 -4.6 Q1.95 -2.15 1.75 0.15 L1.55 0.65 1.35 0.75 Q0.6 -0.5 0.75 -2.35 0.85 -3.3 0.4 -4.25 L0.05 -4.95 Q-0.65 -6.0 -1.05 -7.4 L-0.9 -7.95 -0.75 -8.0 Q-0.4 -7.75 -0.45 -7.25 L-0.1 -6.4 0.6 -5.25" fill="#333333" fill-rule="evenodd" stroke="none"/>
    <path d="M-9.25 -7.25 L-9.15 -7.1 -8.5 -5.9 -8.4 -5.8 -8.25 -5.35 -8.15 -5.1 -8.0 -4.75 Q-7.05 -1.5 -7.05 1.7 L-6.95 7.15 Q-6.85 9.0 -6.35 10.9 L-6.45 11.2 -6.55 11.4 Q-7.55 10.95 -7.45 9.95 L-7.45 8.0 -7.55 6.55 -7.65 5.1 -7.7 3.85 -7.75 2.45 -7.8 0.5 -7.85 0.2 -8.1 -1.55 -8.25 -3.0 -8.65 -4.65 -9.0 -5.65 -9.45 -6.6 Q-9.85 -7.3 -9.3 -7.45 L-9.25 -7.35 -9.25 -7.25" fill="#333333" fill-rule="evenodd" stroke="none"/>
    <path d="M-5.75 -2.1 Q-5.95 -2.95 -5.35 -2.7 -4.95 -1.9 -5.15 -0.85 L-5.4 0.1 -5.95 0.25 Q-6.3 0.05 -6.35 0.1 L-6.5 0.7 -6.95 1.35 -7.0 1.4 -7.1 0.65 -6.95 -0.25 -6.9 -0.4 Q-6.45 -0.85 -5.95 -0.4 -5.5 -1.05 -5.75 -2.1" fill="#333333" fill-rule="evenodd" stroke="none"/>
    <path d="M-6.95 -2.85 Q-6.8 -2.4 -7.25 -1.95 -7.8 -1.45 -7.8 -2.1 L-7.0 -3.0 -6.95 -2.85" fill="#333333" fill-rule="evenodd" stroke="none"/>
    <path d="M-6.5 -1.95 L-6.55 -1.75 Q-6.85 -1.05 -7.45 -0.6 L-7.5 -0.7 Q-7.4 -1.65 -6.5 -1.95" fill="#333333" fill-rule="evenodd" stroke="none"/>
    <path d="M-5.9 2.8 Q-5.35 2.35 -5.7 3.0 L-6.15 3.75 -6.3 3.95 Q-6.45 4.4 -6.65 4.2 -6.7 3.4 -5.9 2.8" fill="#333333" fill-rule="evenodd" stroke="none"/>
    <path d="M-5.95 4.05 L-5.75 4.1 Q-5.6 4.2 -5.9 4.85 L-6.45 5.4 -6.45 4.9 -5.95 4.05" fill="#333333" fill-rule="evenodd" stroke="none"/>
    <path d="M-5.65 6.15 Q-5.95 6.0 -5.85 5.7 -5.65 4.9 -5.05 5.2 L-5.65 6.15" fill="#333333" fill-rule="evenodd" stroke="none"/>
    <path d="M-1.4 -1.9 Q-1.05 -2.6 -0.9 -1.95 L-1.4 -1.25 Q-1.65 -1.45 -1.4 -1.9" fill="#333333" fill-rule="evenodd" stroke="none"/>
    <path d="M-0.6 -1.75 L-0.5 -1.65 -1.05 -0.6 Q-1.25 -0.1 -1.5 -0.5 L-1.5 -0.65 Q-1.3 -1.45 -0.6 -1.75" fill="#333333" fill-rule="evenodd" stroke="none"/>
    <path d="M7.25 10.0 L7.3 9.85 Q7.45 9.65 7.7 9.7 L7.75 9.8 7.85 10.05 7.9 10.55 7.8 10.95 Q7.3 11.95 6.4 12.3 L5.7 12.6 5.6 12.7 4.15 13.2 1.55 13.7 Q0.0 14.05 -1.85 13.75 L-2.05 13.65 -3.3 13.05 -4.45 12.45 -6.25 10.95 -6.65 10.55 Q-7.0 10.2 -6.7 10.05 -6.35 10.1 -6.2 10.3 L-5.1 11.2 -4.2 11.85 -3.35 12.2 -2.5 12.6 -1.6 13.0 0.35 13.15 1.45 13.1 3.35 12.6 5.05 12.0 5.2 11.95 5.9 11.6 6.2 11.4 7.0 10.8 7.0 10.7 7.05 10.65 7.15 10.3 7.25 10.0" fill="#333333" fill-rule="evenodd" stroke="none"/>
    <path d="M4.5 -1.75 Q4.4 -2.5 4.95 -2.65 L5.05 -2.5 Q5.25 -0.85 5.75 0.65 L5.95 1.4 5.8 2.5 5.25 3.0 3.15 3.2 Q2.65 3.25 2.3 3.7 2.0 4.0 2.0 3.55 1.95 2.6 2.95 2.3 L5.0 2.0 5.1 1.5 4.75 -0.45 4.5 -1.75" fill="#333333" fill-rule="evenodd" stroke="none"/>
    <path d="M1.95 3.6 Q2.4 3.25 2.35 3.75 2.3 4.4 2.65 4.85 L3.35 4.95 Q3.6 4.85 3.75 5.1 L3.6 5.25 Q3.15 5.7 2.55 5.55 1.9 5.35 1.85 4.6 L1.95 3.6" fill="#333333" fill-rule="evenodd" stroke="none"/>
    <path d="M7.1 4.4 L6.35 4.3 5.45 4.6 Q4.25 5.35 2.95 5.3 2.95 4.9 3.25 4.75 L6.1 3.7 7.75 3.75 7.95 4.1 Q8.25 4.7 7.9 5.3 L7.6 5.95 Q7.25 6.65 7.45 7.25 L7.95 9.2 Q8.15 10.05 7.6 10.65 L7.5 10.6 Q7.15 10.85 7.15 10.3 7.2 9.45 6.85 8.65 L6.6 7.9 Q6.4 6.9 6.75 6.1 L7.05 5.55 7.25 4.55 7.2 4.45 7.1 4.4" fill="#333333" fill-rule="evenodd" stroke="none"/>
    <path d="M5.95 3.9 Q6.05 4.3 5.65 4.55 L5.25 3.9 5.1 3.75 Q4.75 3.5 4.75 3.1 4.7 2.35 5.3 2.35 L5.45 2.55 5.45 3.25 5.6 3.4 Q6.05 3.6 5.95 3.9" fill="#333333" fill-rule="evenodd" stroke="none"/>
    <path d="M2.35 4.65 Q1.75 4.65 2.15 4.0 L3.9 3.95 2.7 4.2 2.35 4.65" fill="#333333" fill-rule="evenodd" stroke="none"/>
    <path d="M9.6 -5.5 Q10.0 -5.1 9.5 -5.05 8.8 -5.3 8.35 -4.5 7.9 -4.3 7.55 -4.8 7.8 -6.05 6.65 -4.65 6.4 -5.1 6.65 -5.5 6.9 -5.05 7.75 -5.95 L8.0 -4.85 Q8.45 -4.8 8.75 -5.3 9.15 -5.95 9.6 -5.5" fill="#333333" fill-rule="evenodd" stroke="none"/>
  </g>
</svg>
