<?xml version="1.0" encoding="UTF-8" standalone="no"?>
<svg xmlns:xlink="http://www.w3.org/1999/xlink" height="18.9px" width="27.6px" xmlns="http://www.w3.org/2000/svg">
  <g transform="matrix(1.0, 0.0, 0.0, 1.0, 13.8, 9.45)">
    <path d="M-3.8 4.05 L-2.9 4.65 Q-2.5 6.1 -3.5 7.1 L-4.8 7.25 -6.15 8.6 -11.75 8.75 -13.3 7.35 Q-14.0 2.35 -8.9 3.15 L-7.05 3.6 Q-5.7 3.0 -4.55 4.0 L-3.8 4.05" fill="#663333" fill-opacity="0.2" fill-rule="evenodd" stroke="none"/>
    <path d="M1.75 6.1 L4.5 6.8 4.85 7.2 4.35 8.05 Q1.4 9.0 -1.5 7.95 -5.5 9.3 -9.35 7.4 -10.35 5.65 -8.8 4.2 -3.45 2.8 0.75 5.1 L1.75 6.1" fill="#663333" fill-opacity="0.2" fill-rule="evenodd" stroke="none"/>
    <path d="M-0.85 -3.65 L-0.7 -3.4 -0.25 -2.05 Q2.25 -0.8 2.15 2.2 2.05 2.95 1.45 3.45 L-2.5 3.15 -3.2 2.45 Q-4.3 4.1 -6.4 3.35 L-8.2 2.55 Q-8.95 -2.8 -3.9 -4.15 L-0.85 -3.65" fill="#663333" fill-opacity="0.2" fill-rule="evenodd" stroke="none"/>
    <path d="M-2.05 -4.55 Q-1.75 -1.6 -2.3 1.35 L-2.45 1.75 Q-3.2 2.45 -4.0 2.7 -6.6 3.7 -8.1 1.6 -8.95 -2.85 -5.65 -6.05 L-3.4 -5.7 -2.05 -4.55" fill="#663333" fill-opacity="0.2" fill-rule="evenodd" stroke="none"/>
    <path d="M7.4 2.9 L-7.05 2.9 Q-7.45 1.55 -7.05 0.2 L-6.5 -1.0 -1.45 -1.0 -0.8 -0.35 Q1.65 0.7 4.3 0.5 L6.2 0.2 Q7.45 0.05 8.1 0.75 L8.3 2.0 7.4 2.9" fill="#663333" fill-opacity="0.2" fill-rule="evenodd" stroke="none"/>
    <path d="M13.15 4.2 L13.0 4.95 3.7 5.15 -11.6 4.5 13.0 4.1 13.15 4.2" fill="#ffffff" fill-opacity="0.2" fill-rule="evenodd" stroke="none"/>
    <path d="M2.85 4.95 Q5.35 4.3 7.6 5.45 8.0 6.7 7.4 7.9 4.6 8.45 2.05 7.4 1.75 6.5 2.35 5.7 L2.85 4.95" fill="#ffffff" fill-opacity="0.2" fill-rule="evenodd" stroke="none"/>
    <path d="M4.85 5.1 L9.65 5.35 9.7 7.1 9.1 7.4 8.25 7.85 Q6.45 8.95 4.9 7.8 L4.45 5.85 4.85 5.1" fill="#ffffff" fill-opacity="0.2" fill-rule="evenodd" stroke="none"/>
    <path d="M2.35 -3.65 Q1.7 -3.05 0.8 -3.05 -0.1 -3.05 -0.65 -3.65 -1.3 -4.2 -1.3 -5.0 -1.3 -5.8 -0.65 -6.35 -0.1 -6.95 0.8 -6.95 1.7 -6.95 2.35 -6.35 2.9 -5.8 2.9 -5.0 2.9 -4.2 2.35 -3.65" fill="#ffffff" fill-opacity="0.2" fill-rule="evenodd" stroke="none"/>
    <path d="M4.85 -6.55 Q6.25 -4.95 5.6 -2.85 L4.35 -1.85 Q2.2 -1.7 1.15 -2.85 L1.15 -5.8 Q2.5 -6.65 4.35 -6.65 L4.85 -6.55" fill="#ffffff" fill-opacity="0.2" fill-rule="evenodd" stroke="none"/>
    <path d="M3.7 -4.85 Q4.15 0.9 -1.7 -0.85 -2.15 -2.15 -1.9 -3.6 -0.85 -5.05 0.95 -5.35 2.4 -5.85 3.45 -5.1 L3.7 -4.85" fill="#ffffff" fill-opacity="0.2" fill-rule="evenodd" stroke="none"/>
    <path d="M2.15 -5.9 Q3.45 -4.95 3.4 -3.45 L3.35 -2.8 Q1.35 -0.8 -1.35 -2.3 -2.2 -4.7 -0.75 -6.45 L1.55 -6.45 2.15 -5.9" fill="#ffffff" fill-opacity="0.2" fill-rule="evenodd" stroke="none"/>
    <path d="M8.2 3.05 L7.15 3.05 6.15 3.55 5.7 3.25 5.05 1.8 Q5.9 -3.85 1.4 -7.15 -2.25 -7.8 -5.65 -7.0 -1.55 -10.65 4.05 -7.7 6.0 -6.65 6.9 -4.8 8.15 -1.25 8.3 2.55 L8.2 3.05" fill="#ffffff" fill-opacity="0.2" fill-rule="evenodd" stroke="none"/>
    <path d="M6.55 -3.95 L6.5 -4.0 6.5 -4.05 6.45 -4.2 Q5.9 -5.95 4.3 -7.15 2.3 -8.65 -0.3 -8.6 L-0.55 -8.6 Q-3.0 -8.6 -4.85 -7.15 L-5.85 -6.25 Q-7.05 -5.05 -7.2 -3.35 L-7.2 -3.0 -7.45 -2.7 -7.4 -2.45 -7.45 -0.55 -7.7 1.95 -7.85 2.7 -1.6 2.7 7.15 2.7 6.85 0.7 6.8 -1.9 6.75 -2.75 6.65 -3.0 6.6 -3.35 6.55 -3.95 M7.8 -3.0 L8.05 -1.75 8.45 0.85 8.75 2.7 11.7 2.7 11.85 2.8 Q11.9 2.7 12.0 2.7 L12.4 2.9 12.75 3.1 12.95 3.3 13.25 4.9 13.6 7.05 13.8 8.75 13.8 8.95 13.55 9.2 13.45 9.25 13.15 9.4 12.65 9.2 12.65 9.25 12.1 9.45 -1.75 9.4 -12.45 9.2 -12.95 9.15 -13.05 8.95 -13.1 9.0 -13.55 8.8 -13.8 8.55 -13.7 7.1 -13.3 5.45 -13.05 4.05 -13.0 3.85 -12.85 3.6 -12.85 3.55 -12.8 3.45 -12.75 3.25 -12.45 3.05 Q-12.25 2.9 -12.05 2.9 L-10.8 2.8 -9.3 2.7 -9.2 1.9 -8.85 -0.6 -8.6 -2.3 -8.55 -2.55 -8.3 -2.7 -8.35 -3.0 -8.35 -3.35 Q-8.15 -5.0 -7.15 -6.25 L-5.6 -7.8 Q-3.4 -9.4 -0.55 -9.45 L-0.3 -9.45 Q2.7 -9.45 5.0 -7.8 7.4 -6.05 7.75 -3.35 L7.8 -3.0 M11.4 4.25 L-1.65 4.15 -8.15 4.05 -8.15 4.1 -8.25 4.25 -8.45 4.35 -8.75 4.4 -9.2 4.3 -9.35 4.05 -11.4 4.05 -11.65 5.25 -11.9 6.9 -12.1 7.75 -11.5 7.75 -1.7 7.55 11.85 7.55 11.95 7.6 11.9 7.2 11.65 5.05 11.4 4.25" fill="#333333" fill-rule="evenodd" stroke="none"/>
    <path d="M-9.95 4.45 L-9.95 4.55 -9.95 4.6 -9.95 4.7 -9.95 4.8 -9.95 4.95 -10.0 5.05 -10.05 5.15 -10.05 5.25 -10.05 5.35 -10.05 5.4 -10.05 5.5 -10.1 5.6 -10.15 5.7 -10.2 5.8 -10.2 5.95 -10.25 6.05 -10.3 6.15 -10.3 6.2 -10.3 6.3 -10.3 6.4 -10.3 6.5 -10.3 6.6 -10.35 6.7 -10.35 6.8 -10.4 7.1 -10.35 7.5 -10.35 7.85 -10.4 7.95 -10.45 8.1 -10.6 8.2 -10.85 8.25 -11.05 8.2 -11.15 8.1 -11.25 7.95 -11.3 7.7 -11.25 7.3 -11.25 6.9 -11.25 6.8 -11.2 6.7 -11.15 6.6 -11.15 6.5 -11.1 6.3 -11.1 6.2 -11.1 6.15 -11.1 6.05 -11.1 5.95 -11.05 5.8 -11.0 5.7 -11.0 5.6 -10.95 5.5 -10.9 5.45 -10.85 5.35 -10.8 5.25 -10.8 5.15 -10.8 5.05 -10.8 4.95 -10.75 4.8 -10.7 4.7 -10.65 4.6 -10.65 4.55 -10.65 4.45 -10.6 4.35 -10.45 4.25 -10.3 4.2 -10.1 4.25 -10.05 4.35 -9.95 4.45" fill="#333333" fill-rule="evenodd" stroke="none"/>
    <path d="M-9.1 6.5 L-9.05 6.55 -9.0 6.65 -8.95 6.75 -8.9 6.85 -8.9 7.0 -8.9 7.1 -8.9 7.2 -8.9 7.25 -8.95 7.35 -9.0 7.45 -9.0 7.55 -9.0 7.85 -9.0 8.35 -9.0 8.8 -9.0 8.9 -9.05 9.0 -9.1 9.15 -9.2 9.2 -9.35 9.25 -9.6 9.2 -9.7 9.1 -9.8 8.95 -9.8 8.55 -9.75 7.95 -9.75 7.4 -9.7 7.3 -9.7 7.2 -9.65 7.1 -9.6 7.0 -9.6 6.9 -9.65 6.8 -9.65 6.7 -9.7 6.6 -9.65 6.5 -9.6 6.4 -9.55 6.35 -9.35 6.35 -9.35 6.3 -9.2 6.4 -9.1 6.5" fill="#333333" fill-rule="evenodd" stroke="none"/>
    <path d="M1.0 1.9 L1.15 2.0 1.2 2.1 1.2 2.2 1.15 2.25 1.1 2.35 0.95 2.45 0.85 2.45 -6.2 2.45 -8.05 2.45 -8.25 2.35 -8.3 2.25 -8.35 2.2 -8.35 2.1 -8.3 2.0 -8.2 1.9 -8.05 1.85 -6.2 1.85 0.85 1.85 1.0 1.9" fill="#333333" fill-rule="evenodd" stroke="none"/>
  </g>
</svg>
