<?xml version="1.0" encoding="UTF-8" standalone="no"?>
<svg xmlns:xlink="http://www.w3.org/1999/xlink" height="333.35px" width="532.9px" xmlns="http://www.w3.org/2000/svg">
  <g transform="matrix(1.0, 0.0, 0.0, 1.0, 264.95, 167.7)">
    <path d="M267.0 164.95 L-264.0 164.95 -264.0 -167.0 267.0 -167.0 267.0 164.95" fill="#ffffff" fill-rule="evenodd" stroke="none"/>
    <path d="M169.2 -167.1 L166.95 -167.15 164.95 -167.0 162.8 -166.8 160.85 -166.7 158.95 -166.95 157.05 -167.15 155.25 -167.2 153.0 -167.0 150.9 -166.85 149.05 -167.05 147.0 -167.1 144.75 -167.05 142.75 -167.15 140.9 -167.15 138.9 -167.0 137.05 -167.0 135.2 -167.05 133.35 -167.1 131.0 -167.0 128.6 -167.05 126.7 -167.0 124.9 -166.95 122.8 -166.9 120.8 -166.75 119.0 -167.0 117.0 -166.95 114.75 -167.0 112.75 -167.2 111.0 -167.15 108.85 -167.05 107.1 -167.0 105.2 -167.0 103.0 -167.0 101.0 -166.85 Q100.0 -166.65 98.9 -166.85 L96.9 -167.1 94.95 -167.05 93.1 -167.1 91.15 -167.15 89.0 -167.25 86.95 -167.1 84.9 -166.95 82.95 -167.0 81.2 -167.0 79.05 -167.0 76.9 -167.05 75.05 -167.0 73.1 -166.9 71.05 -166.9 68.8 -167.15 Q67.65 -167.35 67.0 -167.15 L65.15 -166.95 63.1 -166.95 61.25 -166.95 59.25 -166.85 56.9 -166.85 54.75 -167.0 52.85 -166.9 50.95 -166.7 49.1 -166.95 47.15 -167.1 45.05 -166.9 42.85 -166.85 40.85 -166.9 39.1 -166.95 37.15 -167.0 34.8 -166.9 32.8 -166.8 30.85 -166.9 28.8 -167.0 27.05 -167.15 25.05 -167.25 23.0 -167.0 Q22.1 -166.8 21.1 -167.0 L19.1 -167.15 17.05 -167.1 14.9 -167.05 12.8 -167.05 10.9 -167.05 9.0 -167.1 7.0 -167.1 4.95 -167.05 3.0 -167.05 1.0 -167.2 -1.0 -167.15 -2.9 -167.0 -4.95 -167.0 -7.0 -167.0 -9.1 -167.15 -11.3 -167.15 -13.35 -167.0 -15.25 -166.95 -17.1 -167.1 -19.0 -166.95 -20.95 -166.65 -23.0 -166.9 -24.85 -167.15 -26.8 -167.15 -28.9 -167.0 -30.9 -166.95 -32.9 -167.05 -34.85 -167.15 -37.0 -167.0 -39.15 -167.05 -41.15 -167.15 -43.2 -167.0 -45.05 -167.0 -47.0 -167.0 -49.15 -167.0 -51.0 -167.05 -53.0 -167.0 -54.95 -166.8 Q-55.95 -166.65 -57.05 -166.8 L-59.1 -167.0 -61.0 -167.0 -63.1 -167.15 -65.05 -167.1 -66.75 -166.85 Q-67.65 -166.7 -69.05 -166.85 L-71.0 -166.9 -72.7 -166.8 -74.85 -166.9 -77.0 -166.9 -78.95 -166.95 -81.1 -166.95 -83.25 -166.95 -85.2 -167.0 -87.35 -167.0 -89.25 -166.95 -91.1 -167.0 Q-92.05 -167.2 -93.25 -167.0 L-95.05 -166.85 -96.85 -166.85 -99.25 -166.9 -101.2 -167.15 -102.85 -167.1 -104.8 -166.95 -107.1 -167.0 -109.3 -167.15 -111.15 -167.15 -113.05 -167.0 -115.1 -167.0 -117.1 -167.1 -119.2 -167.0 -121.25 -166.9 -123.25 -167.05 -124.95 -167.2 -126.65 -167.15 -128.95 -167.0 -131.15 -166.85 -133.1 -167.0 -135.0 -167.15 -137.0 -167.2 -139.1 -167.25 -141.2 -167.1 -143.1 -166.85 -144.95 -167.0 -146.9 -167.1 -149.1 -167.0 -151.1 -167.1 -152.8 -167.0 -154.9 -167.0 -157.15 -167.0 -159.15 -167.0 -161.0 -167.0 -163.0 -167.0 -165.2 -167.1 -167.15 -167.15 -169.0 -167.2 -171.05 -167.1 -173.0 -166.95 -174.8 -166.95 -176.6 -166.85 -178.8 -166.95 -181.0 -167.15 -183.25 -167.05 -185.4 -166.8 Q-186.25 -166.65 -186.95 -166.8 L-188.8 -166.8 -191.0 -166.85 -192.95 -167.15 Q-193.85 -167.35 -194.95 -167.15 L-197.0 -167.1 -199.2 -167.1 -201.2 -167.1 -203.05 -167.2 -205.0 -167.1 -206.95 -166.85 -209.0 -167.0 -210.95 -167.3 -212.9 -167.3 -215.25 -167.25 -217.25 -167.35 -219.0 -167.2 -221.25 -167.0 -223.35 -166.95 -225.05 -167.0 -226.85 -167.0 -229.15 -167.15 -231.2 -167.15 -232.9 -167.15 -234.95 -167.15 -237.0 -167.15 -239.0 -167.15 -240.75 -166.9 Q-241.55 -166.7 -242.85 -166.9 L-245.05 -167.0 -246.9 -167.15 -248.8 -167.15 -250.85 -167.1 -253.05 -167.05 -255.35 -166.95 -257.25 -166.95 -258.85 -167.0 -260.8 -167.0 -262.45 -167.0 -264.0 -167.0 -264.2 -165.2 -264.2 -163.7 Q-264.0 -163.1 -264.15 -162.3 L-264.35 -160.9 -264.1 -159.4 Q-263.85 -158.45 -264.1 -157.6 -264.35 -156.75 -264.05 -155.8 -263.75 -154.9 -263.9 -154.25 L-264.05 -152.85 -263.95 -151.3 -263.9 -149.9 -263.95 -148.4 -263.75 -146.8 Q-263.6 -146.0 -263.8 -145.25 L-263.95 -143.65 -263.95 -142.05 -264.05 -140.25 -264.0 -138.7 -263.8 -137.45 Q-263.55 -136.7 -263.9 -135.85 -264.25 -134.95 -264.2 -134.05 L-264.05 -132.35 -264.0 -130.85 -263.85 -129.4 Q-263.65 -128.7 -264.0 -127.85 -264.35 -126.95 -264.1 -126.15 L-263.85 -124.6 -263.95 -123.15 -264.05 -121.55 -264.05 -119.95 -264.05 -118.5 -264.2 -116.9 Q-264.4 -115.95 -264.05 -115.25 -263.65 -114.5 -264.0 -113.75 -264.35 -112.95 -264.05 -112.25 -263.7 -111.55 -263.9 -110.7 -264.05 -109.8 -263.85 -109.05 -263.6 -108.25 -263.75 -107.45 L-264.2 -105.9 Q-264.5 -105.1 -264.25 -104.25 -263.95 -103.4 -264.0 -102.7 L-264.0 -101.2 -264.1 -99.7 -264.2 -97.95 -264.3 -96.3 -264.25 -94.85 -264.0 -93.2 -263.95 -91.8 -264.0 -90.35 -264.0 -88.6 -264.0 -86.95 -263.95 -85.35 -263.95 -83.85 -264.0 -82.55 -263.9 -80.9 Q-263.85 -79.85 -263.95 -79.3 L-263.9 -77.7 Q-263.7 -76.55 -263.9 -76.1 L-264.05 -74.75 -264.15 -72.9 -264.1 -71.4 -263.75 -69.9 Q-263.55 -69.05 -263.75 -68.3 L-264.0 -66.75 -263.95 -65.25 -263.95 -63.75 -264.0 -62.0 -264.05 -60.3 Q-264.05 -59.5 -264.2 -58.85 L-264.25 -57.3 -264.25 -55.85 -264.15 -54.35 -264.0 -52.8 -264.0 -51.35 Q-264.0 -50.45 -264.15 -49.75 L-264.15 -47.95 -264.1 -46.35 -264.05 -44.85 -263.85 -43.2 Q-263.65 -42.35 -263.9 -41.6 L-264.1 -40.25 -263.85 -38.75 Q-263.7 -37.75 -264.05 -37.15 -264.4 -36.55 -264.35 -35.5 L-264.15 -33.65 -263.9 -32.25 Q-263.8 -31.6 -264.0 -30.85 L-264.05 -29.15 -263.95 -27.6 -263.95 -26.25 -263.85 -24.6 -263.8 -22.85 -263.95 -21.1 -263.75 -19.65 Q-263.5 -19.0 -264.0 -18.2 -264.45 -17.45 -264.1 -16.65 -263.75 -15.85 -263.85 -15.15 L-263.7 -13.6 Q-263.5 -12.75 -263.75 -11.95 L-264.15 -10.2 -264.15 -8.8 -264.05 -7.3 -264.05 -5.55 -264.0 -3.95 Q-263.95 -3.25 -264.2 -2.3 -264.4 -1.4 -264.15 -0.85 -263.9 -0.3 -263.95 0.55 L-264.0 2.35 -264.05 3.85 -264.1 5.3 -264.2 6.95 -264.2 8.35 -264.0 9.8 -263.8 11.6 Q-263.65 12.4 -263.85 13.05 L-264.05 14.55 -264.2 16.15 -264.2 17.65 -264.05 19.3 Q-264.0 20.15 -264.25 20.95 -264.45 21.75 -264.25 22.5 L-264.0 23.9 -263.95 25.5 Q-263.85 26.45 -264.1 27.2 -264.35 27.95 -264.15 28.85 -263.95 29.8 -264.05 30.5 L-264.05 31.85 -264.2 33.3 -264.2 34.9 -264.0 36.5 -263.9 38.1 -263.8 39.7 -263.9 41.35 -264.05 43.15 -263.9 44.6 Q-263.7 45.25 -263.85 46.0 L-264.0 47.65 -264.05 49.2 -264.1 50.6 -264.25 52.1 -264.45 53.65 -264.2 55.45 -264.0 57.05 -264.2 58.35 Q-264.4 59.1 -264.2 60.15 -263.95 61.25 -264.05 62.05 L-263.9 63.4 Q-263.7 64.0 -263.95 64.6 -264.2 65.2 -263.9 66.35 L-263.6 68.1 -263.8 69.65 -264.25 71.15 Q-264.5 71.85 -264.2 72.6 -263.85 73.4 -263.9 74.2 L-263.8 75.65 Q-263.65 76.3 -263.95 77.2 -264.25 78.15 -264.15 78.9 L-263.95 80.4 -263.8 82.05 Q-263.7 82.9 -263.95 83.5 L-264.1 85.05 -264.0 86.75 -264.1 88.45 -264.1 90.05 Q-264.0 90.75 -264.05 91.5 L-264.05 92.85 -264.0 94.45 -263.95 96.15 -263.85 97.8 -263.7 99.35 -263.6 100.8 Q-263.55 101.6 -263.8 102.55 L-263.85 104.1 Q-263.65 104.7 -263.9 105.35 L-264.05 107.05 -263.85 108.5 Q-263.7 109.0 -263.8 110.0 L-263.9 111.75 -263.7 113.45 Q-263.5 114.35 -263.75 115.0 L-263.95 116.55 -263.8 118.1 Q-263.7 118.75 -263.95 119.55 -264.2 120.4 -264.05 121.25 -263.85 122.1 -264.0 122.75 L-264.1 124.15 -264.15 125.65 -264.15 127.25 Q-264.0 128.0 -264.0 128.85 -263.95 129.75 -264.25 130.6 L-264.45 132.15 -264.35 133.7 -264.25 135.35 -264.05 136.75 -263.95 138.05 -264.0 139.8 -264.0 141.55 -264.0 143.1 -264.2 144.65 -264.15 146.2 -263.8 147.75 Q-263.6 148.5 -263.65 149.35 L-263.85 150.9 -263.9 152.55 -263.9 154.15 -264.0 155.55 -264.05 157.2 -264.05 158.9 -264.05 160.45 -264.05 161.8 -264.15 162.95 -264.0 164.95 -261.9 164.95 -259.95 164.85 -258.0 164.9 -255.9 164.95 -253.9 164.9 -251.8 164.9 -249.65 164.95 -247.8 165.05 -245.9 164.95 -244.0 164.95 -242.1 164.95 -240.25 164.95 -238.3 164.85 -235.95 164.95 -233.85 165.0 -232.05 164.95 -229.8 165.05 -227.9 165.0 -226.3 164.9 -224.3 164.95 -222.25 165.15 -220.15 165.25 -217.8 165.15 -215.9 164.9 -214.15 164.95 -212.05 165.15 -210.0 165.0 -207.95 164.75 Q-206.95 164.6 -206.0 164.75 L-204.15 165.05 -202.2 165.05 -199.85 164.95 -197.9 164.95 -196.1 164.95 -193.9 165.15 Q-192.75 165.35 -192.0 165.15 L-190.05 164.9 -187.9 164.75 -186.0 164.8 -184.05 164.9 -182.15 164.95 -180.15 165.1 -178.0 165.15 -176.2 165.15 -174.2 164.95 -172.1 164.95 -170.35 164.95 -168.1 164.7 -165.8 164.85 -164.1 165.2 -162.25 165.1 -159.95 164.95 -157.85 164.95 -155.85 164.95 -153.95 164.95 -152.2 164.95 -150.15 164.9 -148.05 164.8 -145.95 164.8 -143.95 164.95 -141.95 165.0 -139.95 164.85 -137.85 164.75 -136.1 164.85 -134.2 165.0 -131.95 165.05 -129.8 164.85 -127.9 164.85 -126.0 164.95 -123.95 165.0 -121.95 165.05 -120.0 165.0 -118.1 165.1 -116.3 165.2 -114.25 165.15 -112.0 164.8 -109.95 164.65 -107.9 164.95 -105.9 165.1 -104.25 165.0 -102.25 164.95 -99.95 165.15 -98.15 165.15 -96.1 165.05 -93.95 165.05 -92.05 164.95 -90.0 164.95 -88.15 164.95 -86.25 165.0 -84.1 165.0 -81.9 164.75 -79.95 164.8 -78.05 164.8 -76.2 164.75 -74.45 164.9 -72.25 164.9 -70.1 165.0 -68.15 165.05 -66.05 165.15 -64.0 165.05 -61.95 164.8 -59.75 164.8 -58.0 165.0 Q-57.4 165.3 -56.15 165.0 L-54.15 164.85 -52.45 164.85 -50.4 164.85 -48.25 164.95 -46.1 165.0 -44.05 164.95 -41.8 164.9 -39.95 164.9 -37.95 164.95 -35.95 164.95 -34.0 164.85 -31.8 164.95 -30.1 164.95 -28.4 165.0 -26.0 165.05 -23.8 164.8 Q-22.9 164.65 -21.95 164.8 L-19.9 164.9 -17.95 164.85 -15.9 165.0 -14.05 164.85 -12.3 164.75 Q-11.25 164.95 -10.35 164.75 -9.4 164.6 -8.2 164.75 L-6.0 165.1 -3.8 165.15 -1.8 165.1 -0.05 165.15 1.9 165.05 3.75 164.95 5.55 164.75 7.7 164.7 10.05 164.9 12.2 164.95 14.3 165.0 16.25 165.15 18.0 164.95 Q19.05 164.7 20.05 164.95 L22.0 165.1 Q23.0 164.95 23.85 165.1 L25.65 164.9 27.8 164.85 29.8 165.1 31.75 165.1 34.15 165.0 36.2 164.85 38.0 164.85 39.85 165.1 41.8 165.2 43.9 165.05 46.1 165.1 48.2 165.1 50.3 165.05 52.25 164.85 54.0 164.95 Q55.05 165.3 55.95 164.95 L57.85 164.65 60.1 164.95 62.05 165.2 63.95 165.15 66.15 164.95 68.05 164.9 70.05 164.85 72.05 164.75 74.0 164.75 75.9 164.9 78.0 164.9 80.1 164.75 81.85 164.75 84.05 164.95 86.1 165.0 87.9 165.05 90.0 165.1 91.9 164.95 93.85 164.75 Q94.8 164.6 96.0 164.75 L98.15 164.8 100.2 164.85 101.9 164.95 103.65 165.05 106.15 165.0 108.35 164.85 110.2 165.0 112.25 165.2 114.25 165.05 116.3 165.1 118.2 165.15 120.0 164.95 122.05 164.95 123.95 164.95 125.85 164.8 127.7 164.85 129.85 165.1 132.0 165.1 133.9 164.9 135.9 165.0 137.75 165.0 139.75 164.8 142.15 164.95 144.0 165.05 145.75 164.75 147.9 164.95 150.2 164.9 152.1 164.75 153.9 165.05 155.95 165.05 157.8 164.75 159.85 164.85 162.05 165.1 164.05 165.2 165.95 165.1 167.8 164.95 169.85 165.05 172.05 164.95 174.3 164.9 176.1 164.85 178.0 165.05 180.15 165.15 182.15 165.0 183.95 165.15 185.8 165.25 187.95 165.25 190.0 165.3 191.8 165.25 193.9 165.25 195.9 165.15 197.8 164.95 199.9 164.95 201.9 164.75 204.0 164.85 205.95 165.15 208.1 164.95 Q209.3 164.8 210.15 164.95 211.0 165.15 211.9 164.95 L214.0 164.9 216.1 164.95 217.85 164.85 219.85 165.05 222.05 165.15 224.15 165.05 226.3 164.8 228.1 164.75 229.85 164.95 232.05 164.95 233.95 164.95 236.05 164.9 237.95 164.95 239.8 165.0 241.95 165.15 243.95 165.15 246.1 165.1 247.95 165.05 249.85 164.95 251.9 165.05 253.9 165.15 256.0 164.95 257.95 164.75 260.1 164.9 262.15 164.95 264.1 164.8 265.6 164.95 Q266.0 165.3 267.0 164.95 L267.45 163.4 Q267.5 162.65 267.1 161.85 266.75 161.05 267.0 160.25 267.25 159.45 266.85 158.65 266.5 157.9 266.8 157.05 L267.2 155.7 267.2 154.15 266.9 152.4 266.85 150.9 267.05 149.45 267.1 147.8 266.8 146.1 Q266.6 145.25 266.75 144.55 L267.05 143.25 267.1 141.65 267.05 139.85 267.0 138.25 267.1 136.8 267.1 135.25 267.05 133.6 266.95 132.25 Q266.8 131.65 267.0 130.7 L267.05 128.85 267.05 127.2 267.0 125.7 266.9 124.4 266.85 122.8 266.65 121.1 266.7 119.6 Q266.85 118.75 267.15 118.0 267.45 117.2 267.2 116.4 266.95 115.6 267.05 114.85 L267.05 113.25 Q266.9 112.45 267.1 111.55 267.35 110.75 267.1 109.95 L266.95 108.3 267.25 107.05 Q267.5 106.6 267.15 105.6 266.85 104.65 266.9 103.7 L267.05 102.0 266.85 100.65 Q266.6 100.0 266.95 99.35 267.35 98.75 267.15 97.8 L266.95 96.05 266.75 94.55 Q266.55 93.8 266.8 92.95 L267.05 91.25 267.0 89.7 267.2 88.05 Q267.4 87.1 267.2 86.5 L267.0 85.35 267.25 83.75 267.3 81.9 266.95 80.35 266.85 78.95 266.9 77.3 Q266.85 76.35 266.95 75.65 L267.15 74.2 267.3 72.45 267.1 70.85 Q266.85 70.25 266.95 69.45 L267.05 67.9 266.95 66.5 267.1 64.8 267.2 63.05 267.1 61.75 267.2 60.3 267.3 58.6 267.2 57.05 Q267.0 56.4 267.15 55.5 L267.25 53.8 266.95 52.4 Q266.75 51.7 267.1 50.85 267.5 50.0 267.15 49.05 266.8 48.15 267.0 47.25 L267.1 45.9 267.0 44.7 267.15 42.95 267.3 41.3 267.2 39.95 267.05 38.4 267.0 36.8 267.05 35.1 Q267.15 34.15 266.85 33.3 266.55 32.5 266.65 31.85 L266.85 30.35 Q267.0 29.5 266.8 28.75 266.6 28.0 266.8 27.05 L266.85 25.35 266.75 24.0 266.9 22.6 Q267.1 21.9 266.95 21.0 L266.7 19.35 266.7 17.75 266.85 16.2 266.95 14.5 266.75 12.95 Q266.6 12.3 266.9 11.55 L267.15 10.0 267.05 8.55 266.9 6.9 267.0 5.1 267.05 3.55 266.9 2.15 267.0 0.55 267.3 -0.9 267.25 -2.45 267.0 -4.2 267.1 -5.95 Q267.3 -6.9 267.0 -7.45 266.75 -7.95 266.75 -8.8 L266.85 -10.4 266.75 -12.0 Q266.65 -12.75 266.85 -13.65 L267.1 -15.4 267.05 -16.95 266.9 -18.35 266.95 -19.65 267.2 -21.25 Q267.45 -22.15 267.2 -22.85 L266.9 -24.5 266.9 -26.0 267.05 -27.5 267.1 -29.35 266.85 -30.9 Q266.7 -31.5 267.0 -32.25 267.3 -33.0 267.1 -34.0 L267.05 -35.6 266.9 -37.15 Q266.65 -38.0 266.8 -38.65 L267.1 -40.1 266.95 -41.75 Q266.7 -42.5 266.75 -43.3 L267.05 -44.95 267.25 -46.5 266.95 -47.95 Q266.7 -48.65 266.95 -49.5 L267.25 -51.05 267.3 -52.55 267.15 -54.2 Q267.0 -55.05 267.2 -55.85 267.4 -56.7 267.2 -57.45 L267.0 -58.95 267.15 -60.65 267.15 -62.4 266.95 -63.85 266.95 -65.25 266.95 -66.8 266.8 -68.3 Q266.7 -69.05 266.75 -69.9 L266.95 -71.35 266.95 -73.05 266.7 -74.8 266.75 -76.35 266.95 -78.05 266.95 -79.5 266.95 -80.9 267.05 -82.5 267.25 -83.85 267.2 -85.45 267.0 -87.05 267.1 -88.6 267.0 -90.15 266.7 -91.9 Q266.5 -92.9 266.75 -93.6 267.0 -94.3 266.9 -95.05 L266.95 -96.55 267.1 -98.1 267.05 -99.7 266.95 -101.15 266.85 -102.8 266.8 -104.55 266.85 -106.05 267.1 -107.6 267.45 -109.05 267.35 -110.8 267.25 -112.4 267.3 -113.6 267.15 -115.05 266.85 -116.75 Q266.7 -117.7 266.9 -118.45 L267.15 -120.15 267.15 -121.9 267.15 -123.5 267.25 -124.65 266.95 -126.15 Q266.6 -127.1 266.8 -127.85 L267.2 -129.35 267.15 -130.9 267.05 -132.45 267.05 -134.0 267.0 -135.6 267.0 -137.2 266.95 -138.8 267.1 -140.5 267.25 -142.1 267.1 -143.55 267.1 -145.0 267.25 -146.45 267.0 -148.2 Q266.7 -149.0 266.85 -149.75 267.05 -150.5 266.85 -151.4 266.65 -152.25 266.8 -153.05 L266.95 -154.55 Q266.95 -155.35 267.1 -156.1 L267.1 -157.55 266.9 -159.15 266.95 -160.7 266.75 -162.25 Q266.55 -163.1 266.9 -163.9 267.25 -164.65 267.05 -165.05 266.85 -165.45 267.0 -167.0 L264.85 -167.0 262.8 -167.15 260.95 -167.0 259.0 -166.75 257.05 -166.9 255.2 -167.0 253.1 -166.85 250.9 -166.85 248.85 -167.0 247.05 -167.15 245.1 -167.05 243.0 -166.95 241.05 -167.0 238.85 -167.0 236.8 -167.1 234.9 -167.1 233.15 -167.0 231.15 -167.0 228.7 -167.0 226.8 -166.9 225.0 -166.8 222.7 -166.75 220.75 -167.0 218.85 -167.05 217.0 -166.9 215.15 -167.0 212.95 -167.0 210.95 -167.0 208.9 -167.0 207.1 -166.9 205.15 -166.9 203.0 -167.15 201.2 -167.1 199.35 -166.85 197.25 -166.8 195.0 -166.8 193.2 -166.9 191.45 -167.0 189.25 -167.0 187.0 -167.0 185.15 -167.15 183.15 -167.05 181.15 -166.95 179.05 -167.0 176.75 -167.0 174.8 -167.0 172.9 -167.0 171.25 -166.95 169.2 -167.1 Z" fill="none" stroke="#ffffff" stroke-linecap="round" stroke-linejoin="round" stroke-width="1.0"/>
    <path d="M162.15 -164.4 L160.25 -164.1 158.1 -164.3 155.85 -164.35 Q154.7 -164.1 153.65 -164.35 L151.95 -164.55 150.1 -164.45 148.15 -164.55 146.45 -164.45 144.35 -164.1 142.0 -164.4 139.95 -164.75 138.0 -164.5 135.9 -164.3 133.95 -164.4 131.85 -164.45 129.8 -164.45 127.9 -164.6 Q126.85 -164.8 125.75 -164.6 L123.85 -164.5 122.05 -164.75 120.1 -164.6 118.05 -164.15 Q116.95 -163.9 116.05 -164.15 115.15 -164.35 114.1 -164.15 L111.9 -164.1 109.75 -164.35 108.1 -164.35 106.3 -164.5 104.05 -164.55 102.1 -164.25 100.2 -164.2 98.1 -164.35 96.25 -164.5 94.15 -164.45 91.95 -164.4 89.85 -164.65 87.85 -164.75 86.15 -164.45 84.1 -164.05 82.1 -163.95 80.1 -164.15 78.05 -164.3 75.9 -164.35 74.0 -164.3 72.1 -164.3 70.05 -164.35 68.0 -164.4 66.0 -164.6 64.05 -164.55 62.1 -164.35 60.25 -164.55 58.3 -164.65 56.1 -164.25 54.15 -164.3 51.9 -164.55 49.6 -164.4 47.9 -164.35 46.05 -164.2 Q44.9 -164.0 44.05 -164.2 L41.95 -164.1 39.9 -164.2 38.25 -164.45 36.25 -164.4 34.05 -164.4 31.85 -164.35 29.9 -164.4 28.25 -164.25 26.2 -164.05 24.1 -164.15 21.85 -164.25 19.6 -164.2 17.85 -164.3 16.1 -164.35 14.05 -164.3 11.95 -164.4 9.95 -164.4 8.0 -164.45 5.85 -164.6 3.9 -164.65 2.05 -164.5 0.0 -164.2 -2.1 -164.3 -3.9 -164.4 Q-4.6 -164.25 -5.8 -164.4 L-7.9 -164.3 -9.9 -164.0 -11.95 -164.1 -13.95 -164.3 -16.15 -164.3 -18.3 -164.15 Q-19.3 -163.95 -20.05 -164.15 L-21.95 -164.2 -24.1 -164.25 -26.2 -164.35 -28.1 -164.2 -29.95 -164.35 -32.0 -164.5 -34.15 -164.35 -35.9 -164.25 Q-36.45 -164.1 -37.7 -164.25 L-39.85 -164.5 -42.05 -164.5 -44.15 -164.2 -45.75 -164.1 -47.9 -164.05 -50.2 -164.1 -52.25 -164.5 -54.15 -164.5 -56.2 -164.4 -58.0 -164.65 -59.9 -164.55 -61.95 -164.1 -63.85 -164.35 -66.0 -164.55 -68.0 -164.4 -69.95 -164.4 -71.95 -164.35 -73.9 -164.25 -75.8 -164.4 Q-76.8 -164.65 -77.7 -164.4 L-79.9 -164.25 -81.95 -164.4 -83.85 -164.65 -86.15 -164.35 -88.1 -164.15 -89.9 -164.45 -91.95 -164.25 -93.95 -164.35 -95.95 -164.55 -98.1 -164.45 -100.25 -164.4 -102.0 -164.35 -104.0 -164.4 -106.05 -164.4 -107.95 -164.4 -110.15 -164.4 -112.3 -164.6 Q-113.25 -164.85 -114.0 -164.6 L-115.7 -164.2 -117.7 -164.25 -119.85 -164.55 -121.9 -164.45 -123.85 -164.4 -125.7 -164.45 Q-126.6 -164.3 -127.8 -164.45 L-130.0 -164.65 -131.95 -164.55 -133.95 -164.4 -135.9 -164.35 -137.95 -164.1 -140.05 -164.25 -142.05 -164.55 -144.2 -164.4 -146.4 -164.25 -148.15 -164.3 -149.85 -164.45 -152.0 -164.25 -153.9 -164.2 -155.75 -164.4 -158.05 -164.35 -160.15 -164.3 -162.05 -164.3 -163.75 -164.55 -165.7 -164.5 -167.9 -164.45 -170.0 -164.55 -171.95 -164.35 -173.95 -164.25 -175.95 -164.4 -177.95 -164.35 -179.95 -164.3 -182.1 -164.4 -184.0 -164.3 -185.75 -164.4 -188.1 -164.55 -190.25 -164.45 -192.0 -164.55 -193.95 -164.7 -196.1 -164.55 -198.1 -164.15 -199.95 -164.3 -201.9 -164.65 -203.9 -164.5 -206.1 -164.1 -207.95 -164.15 -209.9 -164.4 -212.25 -164.15 -214.4 -163.95 -216.3 -164.15 -218.1 -164.5 -220.15 -164.45 -222.1 -164.35 -223.85 -164.55 -225.9 -164.55 -227.85 -164.4 -229.6 -164.35 -231.7 -164.3 -233.8 -164.4 -235.8 -164.4 -238.0 -164.35 -240.0 -164.45 -242.0 -164.5 -244.15 -164.4 -246.2 -164.6 Q-247.0 -164.8 -247.85 -164.6 L-249.8 -164.4 -252.15 -164.55 -254.05 -164.5 -255.9 -164.25 -257.5 -164.25 -259.15 -164.35 -259.1 -162.2 Q-259.0 -161.05 -259.15 -160.35 L-259.35 -158.55 -259.25 -156.35 -259.05 -154.45 -259.1 -152.75 -259.15 -150.75 -258.9 -148.35 Q-258.7 -147.0 -258.8 -146.2 -258.9 -145.35 -259.3 -144.55 -259.65 -143.7 -259.6 -142.55 L-259.25 -140.35 Q-258.9 -139.3 -258.9 -138.35 -258.9 -137.35 -259.05 -136.6 L-259.15 -134.65 Q-259.1 -133.4 -259.2 -132.4 L-259.2 -130.4 -258.95 -128.4 Q-258.8 -127.4 -259.0 -126.4 L-259.0 -124.1 Q-258.8 -122.85 -259.05 -122.15 L-259.25 -120.35 -259.15 -118.3 -259.05 -116.55 Q-258.95 -115.7 -259.15 -114.55 L-259.5 -112.35 -259.45 -110.35 -259.1 -108.25 -258.95 -106.25 -258.9 -104.4 -259.0 -102.4 -259.0 -100.35 -259.0 -98.3 -259.2 -96.25 -259.05 -94.35 Q-258.85 -93.45 -259.0 -92.4 L-259.1 -90.45 -259.25 -88.4 -259.2 -86.3 Q-259.05 -85.35 -259.2 -84.3 L-259.15 -82.25 -259.1 -80.3 -259.15 -78.2 -259.35 -76.05 Q-259.5 -75.1 -259.25 -74.4 -258.95 -73.65 -259.2 -72.5 -259.4 -71.35 -259.2 -70.4 -259.0 -69.4 -259.1 -68.3 L-259.15 -66.25 -259.15 -64.35 -259.1 -62.4 -259.1 -60.4 -259.2 -58.3 -259.2 -56.3 -259.05 -54.5 -259.1 -52.35 -259.35 -50.3 -259.3 -48.55 -259.0 -46.5 Q-258.75 -45.35 -258.95 -44.35 L-259.0 -42.6 Q-258.8 -41.85 -259.1 -40.55 -259.4 -39.2 -259.1 -38.25 -258.8 -37.3 -258.9 -36.2 L-259.0 -34.15 Q-259.0 -33.2 -259.3 -32.35 L-259.35 -30.7 -258.95 -28.55 Q-258.75 -27.2 -258.85 -26.3 L-259.15 -24.4 -259.25 -22.15 -259.1 -20.0 -258.85 -18.3 Q-258.65 -17.4 -258.8 -16.2 L-258.9 -14.15 -259.05 -12.45 -259.2 -10.3 -259.0 -8.05 Q-258.8 -7.1 -259.0 -6.4 L-259.2 -4.5 -259.0 -2.4 Q-258.75 -1.55 -259.15 -0.55 -259.5 0.45 -259.3 1.55 -259.1 2.65 -259.3 3.55 -259.5 4.45 -259.35 5.55 L-259.2 7.7 -259.25 9.85 -259.05 11.8 Q-258.8 12.65 -258.95 13.55 L-259.15 15.45 -259.0 17.45 Q-258.8 18.5 -259.25 19.65 -259.65 20.8 -259.5 21.75 -259.3 22.7 -259.25 23.7 -259.15 24.75 -259.35 25.7 L-259.35 27.5 Q-259.15 28.4 -259.2 29.5 L-259.0 31.6 Q-258.75 32.6 -258.95 33.6 L-259.35 35.65 -259.45 37.65 -259.25 39.85 -259.15 41.8 -259.15 43.6 -259.35 45.7 Q-259.55 46.8 -259.2 47.7 -258.8 48.65 -258.75 49.5 -258.7 50.4 -259.05 51.5 -259.35 52.65 -259.25 53.7 L-259.1 55.55 -259.0 57.65 -259.1 59.9 -259.4 61.7 Q-259.6 62.55 -259.4 63.65 L-259.1 65.65 -259.1 67.7 -259.15 69.8 -259.15 71.7 -258.95 73.7 Q-258.75 74.75 -258.85 75.45 L-259.15 77.4 -259.3 79.65 -259.25 81.7 -259.15 83.65 -259.0 85.6 Q-258.85 86.65 -259.0 87.8 L-259.2 89.8 -259.2 91.65 -259.05 93.65 -259.05 95.6 -258.9 97.7 Q-258.7 98.85 -259.0 99.85 -259.25 100.9 -259.0 101.85 -258.75 102.8 -259.0 103.9 L-259.35 105.85 -259.3 107.65 -259.15 109.7 -259.25 111.45 -259.3 113.2 -259.25 115.45 -259.2 117.7 -259.1 119.7 Q-258.9 120.6 -259.0 121.65 L-259.15 123.6 -259.2 125.4 -259.05 127.25 Q-258.85 128.25 -259.05 129.45 -259.25 130.7 -259.0 131.7 -258.75 132.7 -258.8 133.65 L-259.05 135.65 Q-259.25 136.7 -259.05 137.75 L-258.8 139.75 Q-258.7 140.7 -258.95 141.65 L-259.1 143.6 -259.1 145.4 -259.2 147.5 -259.15 149.75 -259.15 151.6 -259.25 153.55 -259.25 155.65 -259.2 157.65 -259.1 159.15 -259.15 160.2 -257.15 160.25 -255.15 160.45 -253.35 160.3 -251.2 160.4 -248.95 160.25 -247.1 159.9 -245.15 160.1 -243.35 160.15 -241.45 160.05 -239.3 160.2 -237.35 160.3 -235.4 160.15 -233.3 160.05 -231.25 160.25 -229.35 160.2 -227.15 160.45 -225.05 160.35 -223.25 160.15 -221.15 160.4 -219.05 160.5 -217.05 160.2 -215.25 159.9 -213.5 160.05 -211.4 160.15 -209.15 160.3 -206.95 160.35 -205.05 160.0 -203.4 159.75 -201.35 160.0 Q-200.15 160.2 -199.15 160.0 -198.15 159.8 -197.3 160.0 L-195.3 160.25 -193.1 160.15 Q-192.0 160.0 -191.15 160.15 L-189.25 160.3 -187.3 160.45 -185.5 160.4 -183.35 160.1 -181.1 160.2 -179.1 160.45 -177.3 160.4 -175.1 160.2 -173.05 160.2 -171.55 159.95 -169.4 160.15 -167.3 160.6 -165.3 160.35 -163.15 160.15 -161.15 160.35 -159.2 160.4 -157.0 160.2 -154.85 160.15 -153.05 160.1 -150.95 160.0 -148.8 160.1 -147.0 160.3 -145.3 160.25 -143.15 160.2 -140.85 160.05 Q-139.9 159.9 -139.15 160.05 L-137.35 160.45 -135.5 160.4 -133.4 160.1 -131.05 159.9 -128.95 159.95 -127.1 160.3 -125.15 160.25 -123.15 160.1 -121.15 160.15 -118.95 160.0 Q-117.7 159.8 -116.95 160.0 L-115.25 160.25 -113.2 160.4 -111.1 160.3 -109.1 160.15 -106.9 160.3 -104.75 160.3 -103.15 160.15 -101.15 160.35 -99.15 160.2 -97.4 160.05 -95.15 160.45 -93.35 160.5 -91.4 160.1 -89.05 159.85 -86.95 160.05 -85.05 160.2 -83.25 160.2 -81.35 160.05 -79.3 160.25 -77.15 160.4 -75.3 160.2 -73.2 160.2 -71.05 160.35 -69.2 160.25 -67.05 159.95 -64.8 160.2 -62.95 160.4 -61.25 160.35 -59.0 160.4 -56.75 160.15 -55.2 160.25 -53.6 160.3 -51.4 160.25 -49.25 160.05 Q-48.25 159.85 -47.2 160.05 L-45.15 160.45 -43.1 160.25 -41.15 159.95 -39.15 160.1 -37.1 160.2 -35.15 160.2 -33.15 160.25 -31.35 160.05 -29.4 160.0 -27.2 160.2 -25.25 160.25 -23.1 160.2 -20.95 160.2 -19.1 160.3 -17.3 160.3 -15.3 159.95 -13.0 160.1 -10.95 160.4 -9.05 160.25 -7.15 160.0 -5.35 159.85 -3.35 160.05 -1.35 160.2 0.4 160.25 2.6 160.45 4.85 160.15 6.8 160.05 8.8 160.0 10.8 159.85 12.8 160.1 15.05 160.15 17.15 160.05 19.0 159.85 21.0 159.95 22.9 160.05 24.75 159.95 26.5 160.0 28.85 160.2 31.05 160.3 32.65 160.15 34.6 160.2 36.55 160.4 38.65 160.25 Q39.85 160.0 40.75 160.25 L42.8 160.1 44.7 159.9 46.75 160.3 Q48.1 160.55 48.95 160.3 L50.8 160.1 52.65 160.2 54.7 160.25 56.8 160.15 58.9 160.2 61.0 160.25 62.85 160.15 64.8 160.2 66.75 160.2 68.75 160.0 70.65 159.75 72.6 159.8 74.9 159.95 76.95 160.1 78.85 160.15 80.8 160.05 82.9 160.05 85.15 160.1 87.0 160.15 88.75 160.15 90.8 160.25 92.8 160.1 94.6 160.0 96.65 160.2 98.9 160.15 100.85 160.2 102.85 160.15 105.05 160.35 Q106.3 160.55 107.0 160.35 107.75 160.2 108.6 160.35 L110.65 160.35 112.85 160.05 114.9 159.85 116.85 160.1 118.75 160.3 120.9 160.05 122.95 159.85 124.7 160.05 126.65 160.2 129.05 160.15 131.0 160.25 132.75 160.25 134.8 160.05 136.6 160.0 138.75 160.2 141.0 160.1 142.75 159.9 144.85 159.8 146.9 159.9 148.65 160.1 150.65 160.15 152.8 159.95 155.05 160.0 157.1 160.1 158.85 159.85 160.85 159.75 162.8 160.05 Q163.8 160.25 164.9 160.05 L166.8 159.95 168.85 160.1 171.15 160.4 173.05 160.5 174.7 160.1 176.8 160.05 179.0 160.25 180.7 160.1 182.7 160.15 184.65 160.3 186.65 160.05 188.65 160.1 190.55 160.25 192.75 160.1 194.7 160.1 196.65 160.05 199.0 160.15 201.3 160.4 203.05 160.35 205.0 160.05 207.15 160.25 209.0 160.55 210.9 160.35 212.8 160.15 214.7 160.4 216.7 160.6 218.85 160.4 220.85 160.1 222.95 160.05 225.1 160.35 227.15 160.15 228.9 160.0 230.85 160.2 233.2 160.25 235.2 160.25 236.95 160.4 Q237.85 160.6 238.85 160.4 L240.7 160.15 242.75 160.15 244.95 160.45 246.7 160.5 248.5 160.2 250.85 160.15 253.05 160.2 254.95 160.0 256.75 160.05 258.8 160.2 260.3 160.35 262.05 160.2 262.15 158.35 262.1 156.35 262.15 154.35 262.15 152.1 261.95 150.15 Q261.8 149.2 262.05 148.2 262.35 147.25 262.15 146.1 261.95 145.0 262.05 144.0 L262.25 142.15 262.3 140.25 262.05 138.1 262.0 136.1 262.0 134.15 262.1 132.15 262.1 130.35 261.95 128.3 261.8 126.1 261.8 123.9 261.95 121.95 262.05 120.3 262.05 118.35 262.05 116.2 262.1 114.15 262.05 112.25 261.85 110.2 Q261.7 109.2 261.8 108.2 L261.95 106.2 261.85 104.2 Q261.7 103.25 262.05 102.25 262.45 101.25 262.05 100.25 261.7 99.25 261.85 98.2 L262.05 96.2 262.05 94.3 262.05 92.3 262.05 90.2 261.9 87.95 Q261.75 86.75 262.1 86.2 262.5 85.65 262.25 84.5 262.0 83.4 261.9 82.3 L261.85 80.2 261.9 78.4 261.8 76.45 261.65 74.15 261.85 72.0 262.05 70.1 262.15 68.3 262.0 66.3 Q261.75 65.3 261.9 64.25 L262.3 62.2 Q262.5 61.2 262.3 60.25 L262.1 58.25 262.25 56.15 Q262.45 55.1 262.15 54.25 L261.7 52.05 Q261.55 50.75 261.7 49.95 L262.0 48.2 Q262.2 47.2 262.0 46.4 L261.7 44.55 Q261.55 43.55 261.8 42.4 L262.05 40.2 262.05 38.1 262.05 36.3 262.05 34.2 262.05 32.0 262.0 30.25 262.05 28.1 262.2 25.95 262.05 24.35 Q261.85 23.65 262.05 22.35 L262.2 20.1 262.1 18.15 262.05 16.15 262.1 13.9 261.95 11.9 Q261.8 11.15 262.1 10.15 262.4 9.2 262.1 8.35 261.85 7.5 261.85 6.1 L261.95 3.9 262.0 2.2 261.95 0.25 Q261.85 -0.85 262.05 -1.85 262.25 -2.8 261.9 -3.85 261.6 -4.85 261.7 -6.05 L261.9 -7.95 262.1 -9.75 262.1 -11.6 262.0 -13.55 261.9 -15.75 261.8 -17.75 Q261.65 -18.8 261.85 -20.05 L262.0 -22.05 262.15 -23.75 262.1 -25.8 Q261.85 -26.9 261.95 -27.85 L261.95 -29.8 Q261.85 -30.75 262.05 -31.7 L262.2 -33.5 262.05 -35.6 262.0 -37.85 262.0 -39.8 262.25 -41.75 Q262.5 -42.75 262.1 -43.7 261.7 -44.6 261.8 -45.65 L261.95 -47.9 262.0 -50.05 262.05 -51.75 262.05 -53.7 261.95 -55.75 261.95 -57.75 262.1 -59.65 262.25 -61.65 Q262.4 -62.8 262.15 -63.8 261.95 -64.8 262.15 -66.0 262.35 -67.15 262.0 -67.8 261.65 -68.45 261.7 -69.65 L261.8 -71.75 261.7 -73.7 Q261.55 -74.65 261.8 -75.7 262.05 -76.7 261.8 -78.0 261.6 -79.3 262.0 -80.1 262.45 -80.85 262.35 -82.05 L262.25 -84.1 261.9 -85.85 Q261.6 -86.75 261.8 -87.75 262.05 -88.7 261.9 -89.9 L261.85 -92.1 262.1 -93.95 Q262.25 -94.8 262.0 -95.9 L261.7 -98.05 261.9 -99.85 262.2 -101.85 262.35 -103.95 262.1 -105.95 261.75 -107.95 261.85 -109.7 262.05 -111.55 262.05 -113.7 Q262.05 -114.95 262.2 -115.8 262.4 -116.65 262.25 -117.6 L262.05 -119.6 261.9 -121.65 Q261.75 -122.6 261.9 -123.6 L262.05 -125.65 261.9 -127.8 261.85 -129.6 262.0 -131.45 262.1 -133.5 261.95 -135.55 261.7 -137.7 Q261.6 -138.75 261.85 -139.7 L262.25 -141.75 262.4 -143.7 262.2 -145.7 262.15 -147.9 262.15 -149.9 261.9 -151.65 Q261.75 -152.5 261.9 -153.55 L262.1 -155.9 262.05 -157.95 262.0 -159.5 261.9 -161.55 261.7 -163.1 Q261.6 -163.35 262.05 -164.35 L260.2 -164.45 258.0 -164.45 255.8 -164.35 253.9 -164.2 Q253.05 -164.05 251.8 -164.2 L249.75 -164.35 248.0 -164.5 246.15 -164.3 Q245.2 -163.9 244.3 -164.3 L242.25 -164.65 239.95 -164.45 237.8 -164.45 235.85 -164.4 233.95 -164.15 232.0 -164.05 230.0 -164.3 228.15 -164.55 226.4 -164.4 224.35 -164.25 222.1 -164.4 220.0 -164.4 218.1 -164.5 216.0 -164.65 213.9 -164.5 212.05 -164.35 209.8 -164.35 207.85 -164.5 206.2 -164.5 204.1 -164.15 Q202.95 -163.9 202.25 -164.15 L200.35 -164.1 198.0 -164.05 195.95 -164.3 194.0 -164.15 Q193.0 -164.0 191.95 -164.15 L189.85 -164.45 187.95 -164.5 186.2 -164.15 Q185.3 -163.95 184.15 -164.15 L182.2 -164.2 180.15 -164.25 178.2 -164.35 176.2 -164.6 Q174.95 -164.8 174.05 -164.6 L171.95 -164.35 169.75 -164.35 167.7 -164.55 165.95 -164.35 164.15 -164.3 162.15 -164.4 Z" fill="none" stroke="#90c7b7" stroke-linecap="round" stroke-linejoin="round" stroke-opacity="0.5019608" stroke-width="1.0"/>
    <path d="M262.0 37.3 L259.8 37.5 258.0 37.25 255.9 37.1 253.75 37.25 251.75 37.05 Q250.9 36.8 249.75 37.05 L247.8 37.25 245.85 37.4 243.85 37.3 242.0 37.2 240.05 37.3 238.1 37.15 236.0 37.15 234.0 37.3 232.1 37.4 230.1 37.4 228.2 37.3 226.2 37.3 223.9 37.2 221.95 37.25 220.1 37.4 218.0 37.05 216.0 36.9 213.75 36.9 211.75 36.9 210.0 37.0 208.0 37.35 206.0 37.45 204.0 37.05 201.95 36.8 200.1 37.15 198.2 37.35 195.8 37.4 193.8 37.5 192.1 37.55 190.1 37.7 187.9 37.35 185.7 37.1 183.65 37.25 181.7 37.2 179.85 37.25 178.25 37.25 176.2 37.15 174.0 37.25 171.85 37.35 169.65 37.3 167.65 37.15 165.9 36.95 163.85 37.15 161.65 37.35 159.8 37.3 157.95 37.25 155.9 37.3 153.9 37.35 152.1 37.1 150.1 37.3 147.85 37.45 145.85 37.5 143.95 37.45 141.95 37.2 140.15 37.3 138.2 37.3 136.0 37.1 133.9 37.15 131.9 37.3 130.0 37.0 128.0 37.2 126.0 37.4 124.0 37.3 122.05 37.25 120.1 37.15 118.15 37.3 116.05 37.6 113.95 37.65 112.05 37.5 110.25 37.25 108.3 37.1 106.15 37.1 104.0 37.2 102.05 37.25 100.05 37.15 97.8 37.05 95.8 37.1 94.05 37.45 92.0 37.5 89.95 37.45 88.2 37.55 86.2 37.4 83.85 37.25 82.05 37.3 80.1 37.55 77.9 37.35 75.95 37.45 73.85 37.5 71.7 37.2 69.8 37.2 68.15 37.45 66.2 37.3 64.05 37.4 Q63.1 37.8 62.0 37.4 L59.95 37.15 57.9 37.35 55.7 37.4 53.6 37.4 51.95 37.3 50.1 37.4 47.95 37.45 46.15 37.2 44.2 37.15 42.2 37.35 40.15 37.4 37.95 37.3 35.95 37.3 34.0 37.1 32.05 36.9 30.0 37.25 27.9 37.45 25.85 37.3 23.85 37.2 21.7 37.2 19.85 37.35 18.25 37.55 16.15 37.6 13.85 37.25 11.95 37.2 9.9 37.35 7.9 37.15 6.0 37.1 4.0 37.4 2.0 37.4 0.0 37.1 -2.0 36.9 -3.9 37.1 -5.95 37.15 -8.2 36.9 -10.25 37.15 -12.0 37.4 -14.0 37.3 -16.0 37.0 -17.95 36.9 -19.95 36.9 -22.15 37.1 -24.4 37.2 -26.05 37.1 -28.0 37.25 -30.15 37.35 -32.0 37.55 -33.95 37.5 -35.95 37.15 -37.95 37.0 -39.85 37.15 -41.7 37.45 -43.9 37.4 -46.1 37.1 -48.1 37.25 -50.0 37.4 -52.1 37.1 Q-53.2 36.9 -54.35 37.1 L-56.05 37.4 -57.95 37.55 -60.3 37.65 -62.15 37.75 -64.0 37.55 -66.15 37.35 -68.05 37.4 -69.9 37.15 -72.0 36.95 -74.1 37.1 -75.95 37.15 -77.85 37.2 -80.0 37.35 -81.95 37.4 -84.0 37.6 -86.15 37.55 -87.95 37.45 -89.8 37.45 -91.9 37.15 -93.8 37.05 -95.75 37.25 -97.7 37.35 -99.9 37.1 -102.15 36.9 -104.05 37.05 -105.95 37.1 -107.8 37.15 -109.65 37.55 -111.9 37.5 -114.05 37.25 -116.1 37.3 -117.9 37.35 -119.85 37.15 -121.85 36.85 -124.1 36.95 -126.05 37.2 -127.9 37.55 -130.25 37.4 -132.1 37.25 -134.1 37.4 -136.15 37.3 -138.0 37.35 -140.1 37.25 -142.25 37.05 -144.05 37.1 -146.1 37.1 -148.15 37.15 -150.1 37.55 -152.15 37.5 -153.8 37.2 -155.85 37.35 -157.85 37.45 -159.9 37.35 -162.3 37.3 -164.3 37.3 -166.05 37.45 -167.95 37.4 -169.9 37.25 -172.0 37.25 -174.0 37.4 -175.9 37.5 -177.95 37.5 -180.2 37.6 -182.2 37.45 -184.0 37.15 -185.95 37.1 -187.85 37.25 -189.9 37.3 -192.2 37.3 -194.2 37.2 -196.0 37.2 -197.9 37.25 -199.8 37.3 -202.0 37.3 -204.1 37.3 -205.95 37.15 -207.95 37.3 -210.2 37.35 -212.2 37.25 -213.95 37.1 Q-214.9 36.85 -215.9 37.1 L-218.05 37.25 -220.35 37.25 -222.3 37.3 -223.85 37.25 -225.95 37.25 -228.2 37.15 -230.2 37.05 -232.15 37.15 -233.95 37.25 -236.0 37.05 -238.1 37.3 -239.9 37.55 -241.95 37.45 -243.9 37.4 -245.85 37.4 -248.05 37.15 -250.0 37.0 -252.15 37.4 -254.4 37.55 -256.15 37.4 -257.25 37.2 -259.3 37.3" fill="none" stroke="#90c7b7" stroke-linecap="round" stroke-linejoin="round" stroke-opacity="0.5019608" stroke-width="1.0"/>
  </g>
</svg>
