<?xml version="1.0" encoding="UTF-8" standalone="no"?>
<svg xmlns:xlink="http://www.w3.org/1999/xlink" height="3.85px" width="93.8px" xmlns="http://www.w3.org/2000/svg">
  <g transform="matrix(1.0, 0.0, 0.0, 1.0, 46.9, 2.0)">
    <path d="M45.0 -0.95 L45.25 -0.75 45.35 -0.55 45.45 -0.35 45.55 -0.15 45.55 0.0 45.55 0.2 45.45 0.4 45.35 0.55 45.25 0.75 45.0 0.95 44.6 1.0 Q-0.5 1.3 -45.6 1.0 L-46.1 0.9 -46.35 0.7 -46.45 0.5 -46.55 0.3 -46.6 0.15 -46.6 -0.05 -46.6 -0.25 -46.5 -0.4 -46.4 -0.6 -46.2 -0.8 -45.95 -0.95 -45.6 -0.95 -16.5 -1.1 44.25 -1.0 45.0 -0.95" fill="#6c6960" fill-rule="evenodd" stroke="none"/>
    <path d="M12.4 -0.15 L12.55 -0.2 12.75 -0.25 12.9 -0.25 13.25 -0.4 13.25 -0.5 13.25 -0.55 13.25 -0.65 13.25 -0.75 13.25 -0.85 13.25 -0.95 13.3 -1.05 13.35 -1.15 13.4 -1.25 13.5 -1.3 16.9 -1.75 21.6 -1.95 25.35 -2.0 26.45 -1.75 26.6 -1.7 27.4 -1.5 28.9 -0.9 29.0 -0.8 29.3 -0.55 29.3 -0.45 29.3 -0.35 29.3 -0.15 29.3 -0.05 29.3 0.0 29.3 0.1 29.3 0.2 29.3 0.3 29.3 0.5 29.25 0.6 29.2 0.65 29.15 0.75 29.0 0.85 28.25 1.0 28.0 1.05 27.5 1.1 26.55 1.1 26.5 1.2 26.4 1.25 26.25 1.35 24.25 1.55 17.5 1.6 16.4 1.6 12.05 1.2 11.6 1.1 11.5 1.05 11.45 0.95 11.4 0.85 11.35 0.75 11.35 0.7 11.3 0.6 11.3 0.5 11.3 0.4 11.4 0.3 11.4 0.2 11.5 0.1 11.6 0.0 11.95 -0.05 12.4 -0.15" fill="#663300" fill-opacity="0.2" fill-rule="evenodd" stroke="none"/>
    <path d="M6.5 -0.05 L6.75 -0.1 8.25 -0.2 8.3 -0.3 8.4 -0.45 8.45 -0.6 8.5 -0.65 8.5 -0.75 8.5 -0.85 8.55 -0.95 8.6 -1.05 8.65 -1.15 8.75 -1.25 9.0 -1.3 10.0 -1.3 10.25 -1.25 10.4 -1.15 10.5 -1.1 10.75 -1.1 12.75 -1.2 12.9 -1.3 13.85 -1.45 16.85 -1.5 17.55 -1.4 17.8 -1.4 18.0 -1.35 19.35 -1.1 19.5 -1.05 20.25 -0.9 21.1 -0.65 21.3 -0.6 22.75 -0.55 22.9 -0.65 23.0 -0.75 23.25 -0.8 24.05 -0.75 24.1 -0.75 24.2 -0.65 24.3 -0.55 24.4 -0.4 24.45 -0.3 24.5 -0.2 24.55 -0.1 24.55 0.1 24.55 0.2 24.55 0.25 24.5 0.35 24.45 0.45 24.4 0.55 24.3 0.75 24.25 0.85 24.15 0.95 21.8 1.6 Q17.65 2.0 13.4 1.75 L11.05 1.35 11.0 1.45 10.9 1.5 10.75 1.6 10.5 1.7 10.1 1.65 9.9 1.65 9.8 1.6 9.7 1.5 9.25 1.45 8.45 1.1 8.35 1.0 7.75 1.0 7.65 1.1 7.5 1.2 7.25 1.25 6.5 1.25 6.3 1.25 6.0 1.45 5.9 1.5 5.75 1.6 5.5 1.7 4.85 1.65 4.65 1.65 4.55 1.6 4.45 1.5 4.4 1.4 4.35 1.3 4.3 1.2 4.3 1.1 4.3 1.0 4.3 0.95 4.3 0.85 4.3 0.75 4.3 0.65 4.4 0.55 4.4 0.45 4.5 0.35 4.6 0.3 4.75 0.2 5.0 0.1 5.25 0.15 5.45 0.2 5.5 0.2 5.75 0.2 6.3 0.05 6.4 0.0 6.5 -0.05" fill="#663300" fill-opacity="0.2" fill-rule="evenodd" stroke="none"/>
    <path d="M-24.6 -0.9 L-24.75 -0.9 -24.9 -0.95 -25.0 -1.0 -25.1 -1.0 -25.2 -0.9 -25.25 -0.85 -24.6 -0.9 M-29.0 -0.3 L-28.85 -0.4 -27.25 -0.6 -27.05 -0.6 -26.95 -0.65 -26.75 -0.7 -26.3 -0.75 -26.3 -0.8 -26.25 -0.85 -26.25 -0.95 -26.2 -1.05 -26.1 -1.2 -26.05 -1.3 -25.95 -1.4 -25.85 -1.5 -25.85 -1.6 -25.75 -1.7 -25.7 -1.8 -25.6 -1.9 -25.4 -1.95 -25.0 -1.95 -24.75 -1.9 -23.4 -1.45 -21.45 -0.75 -20.9 -0.65 -20.7 -0.6 -20.6 -0.5 -20.5 -0.4 -20.45 -0.3 -20.4 -0.25 -20.25 -0.15 -19.85 0.0 -19.7 0.05 -19.5 0.1 -19.4 0.2 -19.35 0.3 -19.3 0.4 -19.3 0.5 -19.3 0.6 -19.35 0.7 -19.4 0.75 -19.5 0.85 -19.75 0.95 -20.0 0.95 -20.2 0.85 -21.35 0.6 -21.95 0.45 -22.5 0.4 -22.65 0.4 -22.75 0.4 -22.9 0.4 -23.25 0.45 -23.65 0.55 -24.8 0.75 -24.85 0.85 -24.9 0.95 -25.0 1.0 -25.2 1.1 -25.45 1.15 -25.65 1.2 -28.3 1.1 -28.5 1.0 -28.7 0.9 -28.95 0.8 -29.1 0.7 -29.25 0.6 -29.35 0.5 -29.4 0.45 -29.45 0.35 -29.45 0.25 -29.45 0.15 -29.4 0.05 -29.35 -0.05 -29.25 -0.15 -29.1 -0.25 -29.0 -0.3" fill="#663300" fill-opacity="0.2" fill-rule="evenodd" stroke="none"/>
    <path d="M-36.05 -0.1 L-36.0 -0.2 -35.85 -0.3 -35.65 -0.35 -35.0 -0.4 -34.9 -0.5 -34.75 -0.6 -34.6 -0.7 -34.4 -0.75 -33.9 -0.75 -33.65 -0.7 -33.5 -0.6 -33.4 -0.5 -33.35 -0.4 -33.25 -0.3 -33.15 -0.25 -33.0 -0.15 -32.85 -0.2 -32.75 -0.3 -31.8 -0.4 -31.75 -0.4 -31.7 -0.5 -31.55 -0.65 -31.45 -0.75 -31.35 -0.85 -31.25 -0.95 -31.1 -1.05 -30.9 -1.1 -29.7 -1.15 -29.3 -1.25 -28.15 -1.4 -26.65 -1.5 -26.4 -1.4 -25.9 -1.35 -25.75 -1.4 -25.6 -1.35 -25.5 -1.3 -24.75 -1.25 -24.55 -1.25 -24.45 -1.15 -24.15 -0.95 -23.95 -0.8 -23.8 -0.6 -23.75 -0.5 -23.7 -0.4 -23.7 -0.3 -23.65 -0.25 -23.65 -0.15 -23.65 -0.05 -23.65 0.05 -23.65 0.25 -23.65 0.45 -23.65 0.6 -23.7 0.7 -23.75 0.8 -23.8 0.9 -23.85 1.0 -24.0 1.1 -24.45 1.2 -26.0 1.15 -26.2 1.1 -26.35 1.05 -26.75 0.85 -27.1 0.75 -31.4 0.75 -31.9 0.7 -32.35 0.7 -32.4 0.8 -32.45 0.9 -32.5 1.0 -32.65 1.1 -32.9 1.15 -33.15 1.15 -33.35 1.1 -33.5 0.95 -33.6 0.8 -33.75 0.6 -33.95 0.4 -34.05 0.3 -34.15 0.3 -34.35 0.4 -34.5 0.5 -34.65 0.6 -34.9 0.65 -35.65 0.65 -35.85 0.6 -35.9 0.55 -36.0 0.45 -36.1 0.35 -36.1 0.25 -36.15 0.2 -36.15 0.1 -36.1 0.0 -36.05 -0.1" fill="#663300" fill-opacity="0.2" fill-rule="evenodd" stroke="none"/>
    <path d="M45.7 0.25 L45.8 0.3 45.85 0.35 45.85 0.45 45.9 0.55 45.85 0.6 45.8 0.7 45.6 0.8 45.25 0.8 44.8 0.85 44.75 0.9 44.5 0.95 -45.5 1.0 -45.65 0.95 -45.75 0.9 -45.85 0.8 -45.9 0.7 -45.95 0.6 -46.0 0.55 -46.0 0.45 -45.95 0.35 -45.9 0.25 -45.85 0.15 -45.7 0.05 -45.5 0.0 33.85 0.0 44.5 0.05 44.65 0.05 44.8 0.1 45.25 0.2 45.7 0.25" fill="#663333" fill-opacity="0.2" fill-rule="evenodd" stroke="none"/>
    <path d="M9.25 -1.1 L34.0 -1.15 45.35 -0.9 45.45 -0.85 45.5 -0.8 45.5 -0.7 45.45 -0.65 Q39.75 -0.3 34.0 -0.35 L9.25 -0.4 -44.5 -0.4 -44.65 -0.45 -44.75 -0.55 -44.8 -0.65 -44.85 -0.75 -44.8 -0.85 -44.75 -0.95 -44.65 -1.05 -44.5 -1.1 9.25 -1.1" fill="#ffffff" fill-opacity="0.2" fill-rule="evenodd" stroke="none"/>
    <path d="M-39.1 -1.65 L-20.6 -1.8 44.5 -1.8 44.9 -1.75 45.35 -1.6 45.5 -1.4 45.65 -1.25 45.5 -1.05 45.35 -0.85 44.9 -0.75 44.5 -0.7 -20.6 -0.75 -44.5 -0.85 -45.2 -1.0 -45.35 -1.2 -45.4 -1.35 -45.2 -1.45 -44.85 -1.55 -44.5 -1.6 -39.1 -1.65" fill="#333333" fill-rule="evenodd" stroke="none"/>
    <path d="M-45.25 1.45 L-45.95 1.3 -46.25 1.1 -46.4 0.95 -46.65 0.75 -46.25 0.65 -45.65 0.65 -45.25 0.6 Q-38.7 0.3 -32.15 0.4 L45.25 0.4 46.05 0.45 46.5 0.55 46.75 0.75 46.8 0.95 46.8 1.15 46.65 1.3 46.6 1.45 46.4 1.5 46.05 1.55 Q2.6 2.05 -41.0 1.55 L-45.25 1.45" fill="#333333" fill-rule="evenodd" stroke="none"/>
    <path d="M45.4 -0.25 Q45.4 -0.85 45.65 -1.3 L46.15 -1.75 46.7 -1.3 46.9 -0.25 46.7 0.8 46.15 1.25 45.65 0.8 Q45.4 0.35 45.4 -0.25" fill="#333333" fill-rule="evenodd" stroke="none"/>
    <path d="M-33.25 -1.65 L-33.05 -1.65 -33.0 -1.5 -32.95 -1.35 -32.95 -1.25 -33.45 -0.4 -34.0 0.6 -34.45 1.3 -34.55 1.4 -34.65 1.45 -34.7 1.5 -34.75 1.45 -34.85 1.45 -34.95 1.35 -35.0 1.2 -35.0 1.05 -34.5 0.2 -33.95 -0.8 -33.5 -1.55 -33.45 -1.6 -33.35 -1.65 -33.3 -1.7 -33.25 -1.65" fill="#333333" fill-rule="evenodd" stroke="none"/>
    <path d="M-30.75 -1.65 L-30.55 -1.65 -30.5 -1.5 -30.45 -1.35 -30.45 -1.25 -30.95 -0.4 -31.5 0.6 -31.95 1.3 -32.05 1.4 -32.15 1.45 -32.2 1.5 -32.25 1.45 -32.35 1.45 -32.45 1.35 -32.5 1.2 -32.5 1.05 -32.0 0.2 -31.45 -0.8 -31.0 -1.55 -30.95 -1.6 -30.85 -1.65 -30.8 -1.7 -30.75 -1.65" fill="#333333" fill-rule="evenodd" stroke="none"/>
    <path d="M-28.25 -1.65 L-28.05 -1.65 -28.0 -1.5 -27.95 -1.35 -27.95 -1.25 -28.45 -0.4 -29.0 0.6 -29.45 1.3 -29.55 1.4 -29.65 1.45 -29.7 1.5 -29.75 1.45 -29.85 1.45 -29.95 1.35 -30.0 1.2 -30.0 1.05 -29.5 0.2 -28.95 -0.8 -28.5 -1.55 -28.45 -1.6 -28.35 -1.65 -28.3 -1.7 -28.25 -1.65" fill="#333333" fill-rule="evenodd" stroke="none"/>
    <path d="M-25.75 -1.65 L-25.55 -1.65 -25.5 -1.5 -25.45 -1.35 -25.45 -1.25 -25.95 -0.4 -26.5 0.6 -26.95 1.3 -27.05 1.4 -27.15 1.45 -27.2 1.5 -27.25 1.45 -27.35 1.45 -27.45 1.35 -27.5 1.2 -27.5 1.05 -27.0 0.2 -26.45 -0.8 -26.0 -1.55 -25.95 -1.6 -25.85 -1.65 -25.8 -1.7 -25.75 -1.65" fill="#333333" fill-rule="evenodd" stroke="none"/>
    <path d="M-23.25 -1.65 L-23.05 -1.65 -23.0 -1.5 -22.95 -1.35 -22.95 -1.25 -23.45 -0.4 -24.0 0.6 -24.45 1.3 -24.55 1.4 -24.65 1.45 -24.7 1.5 -24.75 1.45 -24.85 1.45 -24.95 1.35 -25.0 1.2 -25.0 1.05 -24.5 0.2 -23.95 -0.8 -23.5 -1.55 -23.45 -1.6 -23.35 -1.65 -23.3 -1.7 -23.25 -1.65" fill="#333333" fill-rule="evenodd" stroke="none"/>
    <path d="M-20.75 -1.65 L-20.55 -1.65 -20.5 -1.5 -20.45 -1.35 -20.45 -1.25 -20.95 -0.4 -21.5 0.6 -21.95 1.3 -22.05 1.4 -22.15 1.45 -22.2 1.5 -22.25 1.45 -22.35 1.45 -22.45 1.35 -22.5 1.2 -22.5 1.05 -22.0 0.2 -21.45 -0.8 -21.0 -1.55 -20.95 -1.6 -20.85 -1.65 -20.8 -1.7 -20.75 -1.65" fill="#333333" fill-rule="evenodd" stroke="none"/>
    <path d="M-18.25 -1.65 L-18.05 -1.65 -18.0 -1.5 -17.95 -1.35 -17.95 -1.25 -18.45 -0.4 -19.0 0.6 -19.45 1.3 -19.55 1.4 -19.65 1.45 -19.7 1.5 -19.75 1.45 -19.85 1.45 -19.95 1.35 -20.0 1.2 -20.0 1.05 -19.5 0.2 -18.95 -0.8 -18.5 -1.55 -18.45 -1.6 -18.35 -1.65 -18.3 -1.7 -18.25 -1.65" fill="#333333" fill-rule="evenodd" stroke="none"/>
    <path d="M-15.75 -1.65 L-15.55 -1.65 -15.5 -1.5 -15.45 -1.35 -15.45 -1.25 -15.95 -0.4 -16.5 0.6 -16.95 1.3 -17.05 1.4 -17.15 1.45 -17.2 1.5 -17.25 1.45 -17.35 1.45 -17.45 1.35 -17.5 1.2 -17.5 1.05 -17.0 0.2 -16.45 -0.8 -16.0 -1.55 -15.95 -1.6 -15.85 -1.65 -15.8 -1.7 -15.75 -1.65" fill="#333333" fill-rule="evenodd" stroke="none"/>
    <path d="M-13.25 -1.65 L-13.05 -1.65 -13.0 -1.5 -12.95 -1.35 -12.95 -1.25 -13.45 -0.4 -14.0 0.6 -14.45 1.3 -14.55 1.4 -14.65 1.45 -14.7 1.5 -14.75 1.45 -14.85 1.45 -14.95 1.35 -15.0 1.2 -15.0 1.05 -14.5 0.2 -13.95 -0.8 -13.5 -1.55 -13.45 -1.6 -13.35 -1.65 -13.3 -1.7 -13.25 -1.65" fill="#333333" fill-rule="evenodd" stroke="none"/>
    <path d="M-10.75 -1.65 L-10.55 -1.65 -10.5 -1.5 -10.45 -1.35 -10.45 -1.25 -10.95 -0.4 -11.5 0.6 -11.95 1.3 -12.05 1.4 -12.15 1.45 -12.2 1.5 -12.25 1.45 -12.35 1.45 -12.45 1.35 -12.5 1.2 -12.5 1.05 -12.0 0.2 -11.45 -0.8 -11.0 -1.55 -10.95 -1.6 -10.85 -1.65 -10.8 -1.7 -10.75 -1.65" fill="#333333" fill-rule="evenodd" stroke="none"/>
    <path d="M-8.25 -1.65 L-8.05 -1.65 -8.0 -1.5 -7.95 -1.35 -7.95 -1.25 -8.45 -0.4 -9.0 0.6 -9.45 1.3 -9.55 1.4 -9.65 1.45 -9.7 1.5 -9.75 1.45 -9.85 1.45 -9.95 1.35 -10.0 1.2 -10.0 1.05 -9.5 0.2 -8.95 -0.8 -8.5 -1.55 -8.45 -1.6 -8.35 -1.65 -8.3 -1.7 -8.25 -1.65" fill="#333333" fill-rule="evenodd" stroke="none"/>
    <path d="M-5.75 -1.65 L-5.55 -1.65 -5.5 -1.5 -5.45 -1.35 -5.45 -1.25 -5.95 -0.4 -6.5 0.6 -6.95 1.3 -7.05 1.4 -7.15 1.45 -7.2 1.5 -7.25 1.45 -7.35 1.45 -7.45 1.35 -7.5 1.2 -7.5 1.05 -7.0 0.2 -6.45 -0.8 -6.0 -1.55 -5.95 -1.6 -5.85 -1.65 -5.8 -1.7 -5.75 -1.65" fill="#333333" fill-rule="evenodd" stroke="none"/>
    <path d="M-3.25 -1.65 L-3.05 -1.65 -3.0 -1.5 -2.95 -1.35 -2.95 -1.25 -3.45 -0.4 -4.0 0.6 -4.45 1.3 -4.55 1.4 -4.65 1.45 -4.7 1.5 -4.75 1.45 -4.85 1.45 -4.95 1.35 -5.0 1.2 -5.0 1.05 -4.5 0.2 -3.95 -0.8 -3.5 -1.55 -3.45 -1.6 -3.35 -1.65 -3.3 -1.7 -3.25 -1.65" fill="#333333" fill-rule="evenodd" stroke="none"/>
    <path d="M-0.75 -1.65 L-0.55 -1.65 -0.5 -1.5 -0.45 -1.35 -0.45 -1.25 -0.95 -0.4 -1.5 0.6 -1.95 1.3 -2.05 1.4 -2.15 1.45 -2.2 1.5 -2.25 1.45 -2.35 1.45 -2.45 1.35 -2.5 1.2 -2.5 1.05 -2.0 0.2 -1.45 -0.8 -1.0 -1.55 -0.95 -1.6 -0.85 -1.65 -0.8 -1.7 -0.75 -1.65" fill="#333333" fill-rule="evenodd" stroke="none"/>
    <path d="M1.75 -1.65 L1.95 -1.65 2.0 -1.5 2.05 -1.35 2.05 -1.25 1.55 -0.4 1.0 0.6 0.55 1.3 0.45 1.4 0.35 1.45 0.3 1.5 0.25 1.45 0.15 1.45 0.05 1.35 0.0 1.2 0.0 1.05 0.5 0.2 1.05 -0.8 1.5 -1.55 1.55 -1.6 1.65 -1.65 1.7 -1.7 1.75 -1.65" fill="#333333" fill-rule="evenodd" stroke="none"/>
    <path d="M4.25 -1.65 L4.45 -1.65 4.5 -1.5 4.55 -1.35 4.55 -1.25 4.05 -0.4 3.5 0.6 3.05 1.3 2.95 1.4 2.85 1.45 2.8 1.5 2.75 1.45 2.65 1.45 2.55 1.35 2.5 1.2 2.5 1.05 3.0 0.2 3.55 -0.8 4.0 -1.55 4.05 -1.6 4.15 -1.65 4.2 -1.7 4.25 -1.65" fill="#333333" fill-rule="evenodd" stroke="none"/>
    <path d="M6.75 -1.65 L6.95 -1.65 7.0 -1.5 7.05 -1.35 7.05 -1.25 6.55 -0.4 6.0 0.6 5.55 1.3 5.45 1.4 5.35 1.45 5.3 1.5 5.25 1.45 5.15 1.45 5.05 1.35 5.0 1.2 5.0 1.05 5.5 0.2 6.05 -0.8 6.5 -1.55 6.55 -1.6 6.65 -1.65 6.7 -1.7 6.75 -1.65" fill="#333333" fill-rule="evenodd" stroke="none"/>
    <path d="M9.25 -1.65 L9.45 -1.65 9.5 -1.5 9.55 -1.35 9.55 -1.25 9.05 -0.4 8.5 0.6 8.05 1.3 7.95 1.4 7.85 1.45 7.8 1.5 7.75 1.45 7.65 1.45 7.55 1.35 7.5 1.2 7.5 1.05 8.0 0.2 8.55 -0.8 9.0 -1.55 9.05 -1.6 9.15 -1.65 9.2 -1.7 9.25 -1.65" fill="#333333" fill-rule="evenodd" stroke="none"/>
    <path d="M11.75 -1.65 L11.95 -1.65 12.0 -1.5 12.05 -1.35 12.05 -1.25 11.55 -0.4 11.0 0.6 10.55 1.3 10.45 1.4 10.35 1.45 10.3 1.5 10.25 1.45 10.15 1.45 10.05 1.35 10.0 1.2 10.0 1.05 10.5 0.2 11.05 -0.8 11.5 -1.55 11.55 -1.6 11.65 -1.65 11.7 -1.7 11.75 -1.65" fill="#333333" fill-rule="evenodd" stroke="none"/>
    <path d="M14.25 -1.65 L14.45 -1.65 14.5 -1.5 14.55 -1.35 14.55 -1.25 14.05 -0.4 13.5 0.6 13.05 1.3 12.95 1.4 12.85 1.45 12.8 1.5 12.75 1.45 12.65 1.45 12.55 1.35 12.5 1.2 12.5 1.05 13.0 0.2 13.55 -0.8 14.0 -1.55 14.05 -1.6 14.15 -1.65 14.2 -1.7 14.25 -1.65" fill="#333333" fill-rule="evenodd" stroke="none"/>
    <path d="M16.75 -1.65 L16.95 -1.65 17.0 -1.5 17.05 -1.35 17.05 -1.25 16.55 -0.4 16.0 0.6 15.55 1.3 15.45 1.4 15.35 1.45 15.3 1.5 15.25 1.45 15.15 1.45 15.05 1.35 15.0 1.2 15.0 1.05 15.5 0.2 16.05 -0.8 16.5 -1.55 16.55 -1.6 16.65 -1.65 16.7 -1.7 16.75 -1.65" fill="#333333" fill-rule="evenodd" stroke="none"/>
    <path d="M19.25 -1.65 L19.45 -1.65 19.5 -1.5 19.55 -1.35 19.55 -1.25 19.05 -0.4 18.5 0.6 18.05 1.3 17.95 1.4 17.85 1.45 17.8 1.5 17.75 1.45 17.65 1.45 17.55 1.35 17.5 1.2 17.5 1.05 18.0 0.2 18.55 -0.8 19.0 -1.55 19.05 -1.6 19.15 -1.65 19.2 -1.7 19.25 -1.65" fill="#333333" fill-rule="evenodd" stroke="none"/>
    <path d="M21.75 -1.65 L21.95 -1.65 22.0 -1.5 22.05 -1.35 22.05 -1.25 21.55 -0.4 21.0 0.6 20.55 1.3 20.45 1.4 20.35 1.45 20.3 1.5 20.25 1.45 20.15 1.45 20.05 1.35 20.0 1.2 20.0 1.05 20.5 0.2 21.05 -0.8 21.5 -1.55 21.55 -1.6 21.65 -1.65 21.7 -1.7 21.75 -1.65" fill="#333333" fill-rule="evenodd" stroke="none"/>
    <path d="M24.25 -1.65 L24.45 -1.65 24.5 -1.5 24.55 -1.35 24.55 -1.25 24.05 -0.4 23.5 0.6 23.05 1.3 22.95 1.4 22.85 1.45 22.8 1.5 22.75 1.45 22.65 1.45 22.55 1.35 22.5 1.2 22.5 1.05 23.0 0.2 23.55 -0.8 24.0 -1.55 24.05 -1.6 24.15 -1.65 24.2 -1.7 24.25 -1.65" fill="#333333" fill-rule="evenodd" stroke="none"/>
    <path d="M26.75 -1.65 L26.95 -1.65 27.0 -1.5 27.05 -1.35 27.05 -1.25 26.55 -0.4 26.0 0.6 25.55 1.3 25.45 1.4 25.35 1.45 25.3 1.5 25.25 1.45 25.15 1.45 25.05 1.35 25.0 1.2 25.0 1.05 25.5 0.2 26.05 -0.8 26.5 -1.55 26.55 -1.6 26.65 -1.65 26.7 -1.7 26.75 -1.65" fill="#333333" fill-rule="evenodd" stroke="none"/>
    <path d="M29.25 -1.65 L29.45 -1.65 29.5 -1.5 29.55 -1.35 29.55 -1.25 29.05 -0.4 28.5 0.6 28.05 1.3 27.95 1.4 27.85 1.45 27.8 1.5 27.75 1.45 27.65 1.45 27.55 1.35 27.5 1.2 27.5 1.05 28.0 0.2 28.55 -0.8 29.0 -1.55 29.05 -1.6 29.15 -1.65 29.2 -1.7 29.25 -1.65" fill="#333333" fill-rule="evenodd" stroke="none"/>
    <path d="M31.75 -1.65 L31.95 -1.65 32.0 -1.5 32.05 -1.35 32.05 -1.25 31.55 -0.4 31.0 0.6 30.55 1.3 30.45 1.4 30.35 1.45 30.3 1.5 30.25 1.45 30.15 1.45 30.05 1.35 30.0 1.2 30.0 1.05 30.5 0.2 31.05 -0.8 31.5 -1.55 31.55 -1.6 31.65 -1.65 31.7 -1.7 31.75 -1.65" fill="#333333" fill-rule="evenodd" stroke="none"/>
    <path d="M34.25 -1.65 L34.45 -1.65 34.5 -1.5 34.55 -1.35 34.55 -1.25 34.05 -0.4 33.5 0.6 33.05 1.3 32.95 1.4 32.85 1.45 32.8 1.5 32.75 1.45 32.65 1.45 32.55 1.35 32.5 1.2 32.5 1.05 33.0 0.2 33.55 -0.8 34.0 -1.55 34.05 -1.6 34.15 -1.65 34.2 -1.7 34.25 -1.65" fill="#333333" fill-rule="evenodd" stroke="none"/>
    <path d="M36.75 -1.65 L36.95 -1.65 37.0 -1.5 37.05 -1.35 37.05 -1.25 36.55 -0.4 36.0 0.6 35.55 1.3 35.45 1.4 35.35 1.45 35.3 1.5 35.25 1.45 35.15 1.45 35.05 1.35 35.0 1.2 35.0 1.05 35.5 0.2 36.05 -0.8 36.5 -1.55 36.55 -1.6 36.65 -1.65 36.7 -1.7 36.75 -1.65" fill="#333333" fill-rule="evenodd" stroke="none"/>
    <path d="M39.25 -1.65 L39.45 -1.65 39.5 -1.5 39.55 -1.35 39.55 -1.25 39.05 -0.4 38.5 0.6 38.05 1.3 37.95 1.4 37.85 1.45 37.8 1.5 37.75 1.45 37.65 1.45 37.55 1.35 37.5 1.2 37.5 1.05 38.0 0.2 38.55 -0.8 39.0 -1.55 39.05 -1.6 39.15 -1.65 39.2 -1.7 39.25 -1.65" fill="#333333" fill-rule="evenodd" stroke="none"/>
    <path d="M41.75 -1.65 L41.95 -1.65 42.0 -1.5 42.05 -1.35 42.05 -1.25 41.55 -0.4 41.0 0.6 40.55 1.3 40.45 1.4 40.35 1.45 40.3 1.5 40.25 1.45 40.15 1.45 40.05 1.35 40.0 1.2 40.0 1.05 40.5 0.2 41.05 -0.8 41.5 -1.55 41.55 -1.6 41.65 -1.65 41.7 -1.7 41.75 -1.65" fill="#333333" fill-rule="evenodd" stroke="none"/>
    <path d="M44.25 -1.65 L44.45 -1.65 44.5 -1.5 44.55 -1.35 44.55 -1.25 44.05 -0.4 43.5 0.6 43.05 1.3 42.95 1.4 42.85 1.45 42.8 1.5 42.75 1.45 42.65 1.45 42.55 1.35 42.5 1.2 42.5 1.05 43.0 0.2 43.55 -0.8 44.0 -1.55 44.05 -1.6 44.15 -1.65 44.2 -1.7 44.25 -1.65" fill="#333333" fill-rule="evenodd" stroke="none"/>
    <path d="M-46.05 -1.3 L-45.95 -1.35 -45.8 -1.4 -45.55 -1.45 -45.45 -1.45 -45.3 -1.5 -44.7 -1.45 -44.55 -1.45 -44.3 -1.4 -44.15 -1.3 -44.15 -1.25 -44.1 -1.15 -44.15 -1.05 -44.2 -1.0 -44.55 -0.95 -45.4 -0.85 -45.55 -0.8 -45.7 -0.7 -45.85 -0.6 -45.95 -0.55 -46.05 -0.45 -46.05 -0.35 -46.1 -0.25 -46.1 -0.15 -46.1 -0.05 -46.1 0.05 -46.1 0.15 -46.1 0.2 -46.05 0.3 -45.9 0.4 -45.8 0.5 -45.65 0.6 -45.5 0.65 -45.4 0.7 -45.3 0.7 -44.05 0.75 -43.55 0.9 -43.45 0.95 -43.4 1.05 -43.35 1.15 -43.4 1.25 -43.45 1.35 -43.55 1.45 -44.05 1.55 Q-45.2 1.75 -46.2 1.2 L-46.3 1.15 -46.45 1.05 -46.6 0.95 -46.85 0.75 -46.9 0.65 -46.85 0.55 -46.85 0.4 -46.85 0.1 -46.85 -0.2 -46.85 -0.35 -46.85 -0.45 -46.8 -0.55 -46.7 -0.65 -46.65 -0.75 -46.6 -0.85 -46.55 -0.95 -46.5 -1.05 -46.45 -1.1 -46.2 -1.2 -46.05 -1.3" fill="#333333" fill-rule="evenodd" stroke="none"/>
  </g>
</svg>
