<?xml version="1.0" encoding="UTF-8" standalone="no"?>
<svg xmlns:xlink="http://www.w3.org/1999/xlink" height="16.75px" width="3.5px" xmlns="http://www.w3.org/2000/svg">
  <g transform="matrix(1.0, 0.0, 0.0, 1.0, 1.75, 8.7)">
    <path d="M0.45 -8.55 L0.7 -8.35 0.8 -8.15 0.9 -8.0 1.05 -2.95 1.05 2.7 0.95 6.25 0.9 6.45 0.75 6.65 0.6 6.8 0.4 6.95 0.0 7.0 -0.5 6.9 -0.75 6.7 -0.85 6.5 -0.9 6.35 -1.0 1.25 -0.95 -4.35 -0.9 -7.95 -0.85 -8.1 -0.7 -8.3 -0.55 -8.5 -0.3 -8.6 0.0 -8.65 0.0 -8.7 0.45 -8.55" fill="#6c6960" fill-rule="evenodd" stroke="none"/>
    <path d="M0.3 -5.55 L0.4 -5.45 0.45 -5.4 0.5 -5.3 0.5 -5.2 0.5 -5.1 0.5 -5.0 0.5 -4.9 0.5 -4.8 0.65 -4.75 0.7 -4.65 0.7 -4.55 0.65 -4.45 0.65 -4.35 0.65 -4.25 0.65 -4.15 0.65 -4.05 0.65 -4.0 0.7 -3.9 0.7 -3.8 0.7 -3.7 0.7 -3.6 0.7 -3.5 0.7 -3.4 0.65 -3.3 0.55 -3.25 0.5 -3.1 0.5 -3.05 0.55 -2.95 0.6 -2.85 0.65 -2.75 0.7 -2.55 0.75 -2.4 0.8 -2.3 0.8 -2.2 0.8 -1.55 0.85 -0.7 0.8 -0.05 0.75 0.05 0.75 0.15 0.75 0.25 0.75 0.35 0.75 0.45 0.7 0.5 0.7 0.6 0.6 0.7 0.5 0.8 0.25 0.85 0.1 0.85 0.05 0.85 0.05 0.95 -0.05 1.05 -0.2 1.15 -0.4 1.2 -0.55 1.15 -0.6 1.15 -0.7 1.1 -0.75 1.0 -0.85 0.9 -0.85 0.8 -0.85 0.7 -0.85 0.25 -0.85 -0.25 -0.85 -0.5 -1.0 -1.35 -0.95 -2.5 -0.95 -3.4 -0.85 -3.5 -0.8 -3.6 -0.65 -3.7 -0.6 -3.8 -0.6 -3.9 -0.65 -4.0 -0.7 -4.05 -0.75 -4.15 -0.8 -4.25 -0.8 -4.8 -0.8 -5.4 -0.75 -5.75 -0.7 -5.85 -0.6 -5.95 -0.4 -6.0 -0.25 -6.0 -0.15 -5.9 -0.05 -5.8 0.0 -5.7 0.05 -5.65 0.3 -5.55" fill="#663333" fill-opacity="0.2" fill-rule="evenodd" stroke="none"/>
    <path d="M0.75 -2.5 L0.8 -2.4 0.8 -0.7 0.75 1.1 0.5 2.3 0.5 2.5 0.5 2.6 0.5 2.7 0.45 2.75 0.45 2.85 0.4 2.95 0.55 3.0 0.65 3.05 0.75 3.1 0.8 3.15 0.9 3.25 0.95 3.35 0.95 3.5 1.0 3.7 1.0 3.9 0.95 4.2 0.95 4.35 0.85 4.45 0.75 4.55 0.55 4.65 0.35 4.7 0.25 4.75 0.2 4.75 0.1 4.85 -0.15 4.9 -0.35 4.85 -0.45 4.8 -0.6 4.7 -0.65 4.6 -0.7 4.5 -0.7 4.45 -0.7 4.35 -0.75 4.25 -0.8 4.15 -0.85 4.05 -0.9 3.95 -0.95 3.85 -0.95 3.75 -1.0 3.7 -1.0 3.6 -1.0 3.5 -0.95 3.4 -0.95 3.3 -0.9 3.2 -0.9 3.1 -0.95 3.05 -0.95 2.95 -1.0 2.75 -1.1 2.55 -1.1 2.45 -1.15 0.95 -1.2 -0.55 -1.2 -1.5 -1.2 -1.55 -1.15 -1.65 -1.1 -1.75 -1.1 -1.85 -1.1 -1.95 -1.1 -2.05 -1.1 -2.15 -1.05 -2.2 -1.0 -2.3 -0.85 -2.4 -0.7 -2.5 -0.5 -2.55 -0.4 -2.6 -0.25 -2.6 -0.2 -2.7 -0.1 -2.8 0.05 -2.9 0.25 -2.95 0.4 -2.9 0.55 -2.85 0.65 -2.75 0.7 -2.65 0.75 -2.55 0.75 -2.5" fill="#663333" fill-opacity="0.2" fill-rule="evenodd" stroke="none"/>
    <path d="M-0.65 6.7 L-1.75 6.7 -1.75 -6.85 -1.7 -7.25 -1.55 -7.7 -1.35 -7.85 -1.2 -8.0 -1.0 -7.85 -0.8 -7.7 -0.7 -7.25 -0.65 -6.85 -0.65 6.7" fill="#333333" fill-rule="evenodd" stroke="none"/>
    <path d="M1.75 6.7 L0.45 6.7 0.45 -6.45 0.5 -7.25 0.6 -7.7 0.8 -7.95 1.0 -8.0 1.2 -8.0 1.35 -7.85 1.5 -7.8 1.55 -7.6 1.6 -7.25 1.75 6.7" fill="#333333" fill-rule="evenodd" stroke="none"/>
    <path d="M0.3 6.2 L0.55 5.65 Q0.85 5.1 1.3 5.35 1.7 5.85 1.5 6.7 1.25 7.65 0.55 8.05 L-0.6 8.05 -1.4 7.4 -1.35 6.15 Q-0.7 5.65 -0.5 6.55 L-0.4 6.65 Q-0.1 7.2 0.35 6.65 L0.3 6.2" fill="#333333" fill-rule="evenodd" stroke="none"/>
  </g>
</svg>
