<?xml version="1.0" encoding="UTF-8" standalone="no"?>
<svg xmlns:xlink="http://www.w3.org/1999/xlink" height="16.5px" width="61.0px" xmlns="http://www.w3.org/2000/svg">
  <g transform="matrix(1.0, 0.0, 0.0, 1.0, 30.5, 0.35)">
    <path d="M0.0 15.15 Q-12.45 15.15 -21.25 10.75 -30.0 6.35 -30.0 0.15 L30.0 0.15 Q30.0 6.35 21.2 10.75 12.45 15.15 0.0 15.15" fill="#ffffff" fill-rule="evenodd" stroke="none"/>
    <path d="M6.95 8.0 L6.95 8.35 6.95 8.75 7.2 9.1 7.3 9.5 7.35 9.85 7.35 10.25 7.35 10.6 7.35 11.0 7.2 11.35 6.7 12.1 6.5 12.5 5.35 13.6 4.6 14.0 4.2 14.25 3.6 14.3 -0.65 14.5 -1.4 14.75 -4.9 14.75 -5.8 14.5 -8.45 13.85 -10.4 12.85 -13.7 12.3 -16.4 11.55 Q-18.2 11.15 -19.8 10.3 L-20.75 9.85 -21.55 9.45 -22.9 8.75 -23.3 8.35 -23.65 8.0 -24.3 7.6 -24.9 7.25 -25.15 6.85 -25.7 6.1 -26.0 5.7 -26.3 5.35 -26.75 4.95 -27.15 4.6 -27.35 4.2 -27.4 3.85 -27.4 3.5 -27.25 3.1 -27.0 2.75 -26.8 2.45 -26.55 2.4 -25.9 2.3 -25.9 2.2 -22.45 2.4 -20.4 2.6 -19.65 2.85 -19.05 3.1 -18.9 3.1 -15.8 3.4 -15.3 3.45 -14.8 3.6 Q-9.1 3.3 -3.4 3.75 -0.5 3.95 2.1 5.25 L2.6 5.35 4.35 5.8 4.6 5.9 5.45 6.1 5.95 6.5 6.35 6.85 6.6 7.25 6.85 7.6 6.95 8.0" fill="#663333" fill-opacity="0.101960786" fill-rule="evenodd" stroke="none"/>
    <path d="M18.6 1.25 L19.6 1.45 20.1 1.7 21.0 1.95 21.5 2.35 21.75 2.7 22.0 3.1 22.6 3.35 23.5 3.6 24.0 4.0 24.2 4.35 24.35 4.75 24.45 5.1 24.45 5.45 24.35 5.85 24.1 6.25 23.85 6.6 23.75 7.0 23.6 7.35 23.25 7.75 22.85 8.1 22.35 8.5 22.1 8.85 21.6 9.25 21.25 9.6 21.0 10.0 20.5 10.35 20.0 10.75 19.75 11.1 19.45 11.45 19.1 11.85 18.6 12.25 18.25 12.6 18.0 13.0 17.5 13.35 16.6 13.6 16.0 13.75 15.1 13.9 10.6 14.25 9.85 14.6 9.1 14.85 8.1 15.05 6.6 15.3 5.6 15.5 3.6 16.0 -2.9 16.0 -3.9 15.75 -5.9 15.45 -8.85 14.6 -12.3 13.0 Q-13.55 12.4 -14.65 11.5 L-14.9 11.1 -15.15 10.75 -15.4 10.35 -15.65 10.0 -15.9 9.6 -16.15 9.25 -16.15 8.85 -16.15 8.5 -16.2 8.1 -16.25 7.7 -16.3 7.35 -16.3 7.0 -16.15 6.6 -16.0 6.25 -15.65 5.85 -15.3 5.6 -15.0 5.5 -14.4 5.35 -13.65 5.1 -13.5 4.75 -13.15 4.35 -12.8 4.1 -12.5 4.0 -11.9 3.85 -9.8 3.55 -8.9 3.4 -7.3 3.1 -6.4 2.7 -5.9 2.45 -5.65 2.35 -4.8 2.1 -4.4 1.95 -4.15 1.85 -3.4 1.7 -2.8 1.6 -2.4 1.35 -1.9 0.95 -0.9 0.7 0.1 0.5 1.1 0.3 1.1 0.2 1.6 0.2 13.1 0.2 14.1 0.45 15.6 0.7 18.6 1.25" fill="#663333" fill-opacity="0.101960786" fill-rule="evenodd" stroke="none"/>
    <path d="M11.1 4.1 Q12.75 4.55 14.1 5.6 14.7 6.05 14.85 6.75 L14.95 7.1 15.0 7.5 15.0 7.85 15.0 8.25 14.85 8.6 14.75 9.0 14.55 9.3 14.15 9.75 13.0 10.85 12.6 11.2 Q11.0 12.3 9.1 12.75 L5.85 13.6 5.5 14.0 5.2 14.35 4.85 14.75 4.45 15.1 3.95 15.5 3.1 15.75 -0.9 15.6 -4.9 15.0 -8.55 14.25 Q-11.05 13.7 -13.4 12.75 L-21.55 9.5 -22.15 9.1 -22.5 8.7 -22.75 8.35 -22.95 8.0 -23.2 7.6 -23.5 7.2 -23.65 6.85 -23.75 6.45 -23.8 6.1 -23.8 5.75 -23.8 5.35 -23.75 5.0 -23.65 4.6 -23.5 4.25 -23.15 3.85 -22.75 3.5 -22.3 3.1 -21.4 2.85 -20.55 2.6 -20.3 2.2 -19.9 1.95 -19.65 1.9 -18.9 1.8 -11.65 1.4 -10.9 1.3 -10.9 1.2 -8.4 1.2 -2.45 1.5 3.1 1.85 4.1 1.95 4.6 2.35 5.25 2.7 6.1 3.1 7.6 3.35 8.2 3.5 10.1 3.85 11.1 4.1" fill="#663333" fill-opacity="0.101960786" fill-rule="evenodd" stroke="none"/>
    <path d="M20.35 1.85 L21.1 1.7 22.0 1.95 22.5 2.35 22.75 2.7 22.95 3.1 23.1 3.45 23.1 3.85 23.05 4.2 23.0 4.6 22.95 4.95 22.85 5.35 22.7 5.7 22.5 6.1 22.45 6.45 22.35 6.85 22.1 7.25 21.85 7.6 21.6 8.0 21.35 8.35 21.1 8.75 20.85 9.1 20.5 9.35 20.2 9.45 19.35 9.75 18.85 10.05 18.1 10.5 16.85 10.75 16.35 11.05 15.6 11.45 13.6 12.1 12.75 12.35 12.35 12.6 11.35 12.85 10.85 13.25 10.6 13.5 10.35 13.55 9.6 13.75 2.6 14.6 1.6 14.65 -0.9 14.85 -1.9 14.6 -2.4 14.35 -3.15 14.3 -8.9 13.75 -11.9 13.15 -14.15 12.6 -15.3 12.25 -19.15 11.1 -19.8 10.75 -20.15 10.35 -20.55 10.0 -21.15 9.6 -21.9 9.25 -23.9 8.1 -24.3 7.75 -24.75 7.35 -25.15 6.95 -25.4 6.6 -25.5 6.2 -25.55 5.85 -25.55 5.5 -25.5 5.1 -25.3 4.75 -25.05 4.35 -24.8 4.0 -24.55 3.6 -24.3 3.2 -23.9 2.95 -23.65 2.9 -22.9 2.7 -22.3 2.45 -21.8 2.1 -20.9 1.85 -17.55 1.7 -17.05 1.65 -11.55 1.2 -11.15 0.85 -10.8 0.6 -10.5 0.5 -9.9 0.4 -8.9 0.3 -8.9 0.2 -5.4 0.1 0.25 0.3 5.6 0.85 6.6 1.05 10.1 1.4 11.1 1.6 20.1 1.85 20.35 1.85" fill="#663333" fill-opacity="0.101960786" fill-rule="evenodd" stroke="none"/>
    <path d="M-7.5 11.2 L-7.4 11.4 -7.25 11.6 -7.25 11.8 -7.25 11.95 -7.15 12.15 -7.0 12.35 -7.0 12.55 -7.0 12.7 -6.95 12.9 -6.95 13.1 -7.05 13.3 -7.2 13.45 -7.5 13.65 -7.75 13.85 -8.15 13.95 -8.9 13.95 -9.3 13.85 -9.55 13.65 -9.8 13.55 -9.95 13.5 -10.4 13.4 -10.8 13.3 -11.0 13.1 -11.3 12.9 -11.5 12.7 -11.65 12.5 -11.75 12.35 -11.75 12.2 -12.1 12.3 -12.15 12.4 -12.2 12.6 -12.25 12.75 -12.4 12.9 -12.65 12.95 -12.95 12.85 -13.15 12.65 -13.9 12.45 -14.15 12.4 -15.15 12.35 -17.1 11.8 -18.0 11.45 -18.65 11.1 -19.0 10.95 -19.15 10.75 -19.25 10.6 -19.25 10.4 -19.2 10.25 -19.05 10.05 -18.9 9.9 -18.65 9.85 -18.4 9.85 -18.15 9.85 -17.65 9.85 -16.65 10.1 -16.3 10.2 -16.05 10.4 -15.9 10.55 -15.75 10.5 -15.65 10.45 -15.4 10.4 -14.65 10.4 -14.3 10.55 -13.05 10.55 -12.9 10.4 -12.65 10.35 -12.3 10.5 -12.15 10.6 -10.5 10.4 -10.15 10.35 -8.65 10.35 -8.3 10.45 -7.9 10.85 -7.7 11.05 -7.5 11.2" fill="#663300" fill-opacity="0.2" fill-rule="evenodd" stroke="none"/>
    <path d="M-9.3 7.05 Q-9.2 7.1 -9.05 7.2 L-8.95 7.4 -8.9 7.6 -8.55 7.8 Q-8.45 7.85 -8.3 7.95 L-8.2 8.15 -8.1 8.35 -8.0 8.55 -7.8 8.9 -7.65 9.3 -7.55 9.45 -7.5 9.65 -7.4 9.85 -7.4 9.95 -7.2 9.95 -6.9 9.9 -6.5 10.05 -6.25 10.2 -6.15 10.4 -6.1 10.6 -6.05 10.8 -6.05 10.95 -6.05 11.15 -6.05 11.55 -6.15 11.7 -6.2 11.9 -6.1 12.05 -5.95 12.3 -5.75 12.45 -5.6 12.65 -5.45 12.85 -5.3 12.95 -5.0 13.1 -4.75 13.3 -4.65 13.4 -4.55 13.45 -4.25 13.6 -4.05 13.7 -3.75 13.85 -3.55 14.05 -3.45 14.2 -3.4 14.4 -3.4 14.6 -3.5 14.8 -3.6 14.95 -3.7 15.1 -3.8 15.15 -4.15 15.2 -4.4 15.2 -4.8 15.05 -4.95 15.0 -5.3 14.85 -5.5 14.65 -5.75 14.45 -6.15 14.55 -6.45 14.45 -6.8 14.3 -6.95 14.25 -7.3 14.1 -10.15 13.95 -11.1 13.7 -13.3 12.9 -14.45 12.4 -14.65 12.35 -15.4 12.25 -15.8 12.15 -16.15 11.95 -16.3 11.8 -16.5 11.6 -16.7 11.4 -16.8 11.2 -16.8 11.05 -16.8 10.85 -16.8 10.65 -16.8 10.45 -16.8 10.3 -16.7 10.1 -16.55 9.9 -16.45 9.7 -16.3 9.6 -16.2 9.55 -14.05 9.35 -13.9 9.15 -13.7 8.95 -13.55 8.85 -13.45 8.8 -13.15 8.75 -12.9 8.7 -12.25 8.75 -12.2 8.7 -12.2 8.5 -12.2 8.35 -12.2 8.15 -12.2 7.8 -12.15 7.4 -12.15 7.2 -12.0 7.05 -11.8 6.85 -11.4 6.75 -11.4 6.7 -10.15 6.7 -9.7 6.85 -9.3 7.05 M-9.45 9.1 L-9.6 8.95 -9.9 8.75 -10.05 8.55 -10.15 8.4 -10.2 8.3 -10.45 8.3 -10.45 8.35 -10.3 8.5 -10.2 8.7 -10.15 8.85 -10.1 8.85 -9.75 9.0 -9.45 9.1" fill="#663300" fill-opacity="0.2" fill-rule="evenodd" stroke="none"/>
    <path d="M-5.0 7.25 L-4.8 7.45 -4.65 7.65 -4.55 7.85 -4.5 8.0 -4.45 8.2 -4.45 8.4 -4.45 8.6 -4.4 8.7 -3.7 9.15 Q-3.35 9.35 -3.15 9.7 L-2.95 10.05 -2.8 10.05 -1.6 10.3 Q-0.5 10.5 0.5 11.1 L0.7 11.3 0.8 11.45 0.9 11.65 1.0 11.85 1.0 12.0 0.95 12.2 0.85 12.4 0.8 12.6 0.7 12.8 0.8 12.95 1.0 13.15 1.2 13.3 1.85 13.3 2.35 13.35 3.35 13.35 3.8 13.45 4.0 13.65 4.1 13.85 4.2 14.05 4.2 14.2 4.2 14.4 4.1 14.6 4.0 14.75 3.8 14.95 3.35 15.1 2.85 15.1 2.35 15.25 2.3 15.35 2.25 15.5 2.1 15.7 2.0 15.9 1.8 16.05 1.7 16.1 1.35 16.15 -0.9 15.65 -3.9 15.15 -5.95 14.85 -6.4 14.85 -6.9 14.85 -7.3 14.7 -7.7 14.5 -8.0 14.35 -8.2 14.15 -9.2 13.55 -10.65 12.7 -10.8 12.65 -11.15 12.6 -11.55 12.45 -11.9 12.3 -12.05 12.1 -12.25 11.9 -12.3 11.7 -12.3 11.55 -12.3 11.35 -12.3 10.95 -12.25 10.6 -12.2 10.4 -12.1 10.2 -12.0 10.05 -12.05 9.85 -12.15 9.65 -12.25 9.45 -12.25 9.3 -12.25 9.1 -12.3 8.9 -12.3 8.7 -12.3 8.5 -12.25 8.35 -12.1 8.15 -11.95 7.95 -11.7 7.85 -11.4 7.8 -9.45 7.7 -9.05 7.5 -8.3 7.15 -7.45 6.85 -7.15 6.8 -7.15 6.75 -5.9 6.75 -5.45 6.9 -5.2 7.1 -5.0 7.25" fill="#663300" fill-opacity="0.2" fill-rule="evenodd" stroke="none"/>
    <path d="M14.7 9.0 L15.45 9.05 15.75 9.1 15.9 9.1 16.2 9.0 16.55 9.15 16.75 9.35 16.8 9.55 17.15 9.7 18.0 10.1 18.25 10.2 18.95 10.3 19.3 10.4 19.5 10.6 19.55 10.8 19.6 10.95 19.55 11.15 19.5 11.35 19.3 11.55 18.95 11.65 18.45 11.8 18.3 11.95 18.2 12.15 18.15 12.35 18.1 12.55 18.0 12.7 17.8 12.9 17.55 13.1 17.2 13.2 16.7 13.2 16.25 13.1 15.95 12.95 15.75 13.1 15.45 13.15 13.9 13.55 13.5 13.7 13.25 13.85 12.75 13.95 12.5 14.1 12.2 14.15 10.8 14.1 10.0 13.85 9.8 13.65 9.7 13.45 9.7 13.3 9.7 13.1 9.75 12.9 9.9 12.7 10.0 12.6 11.15 12.3 13.0 12.15 13.2 11.95 13.55 11.6 13.75 11.4 13.95 11.2 14.05 11.05 14.05 10.85 14.05 10.45 14.05 10.3 14.05 10.1 14.0 9.7 14.05 9.55 14.15 9.35 14.25 9.15 14.7 9.05 14.7 9.0" fill="#663300" fill-opacity="0.2" fill-rule="evenodd" stroke="none"/>
    <path d="M14.4 7.9 L14.55 7.7 14.75 7.5 15.2 7.45 15.2 7.4 15.7 7.4 16.05 7.5 16.65 8.1 17.35 9.05 17.85 9.95 17.95 10.15 18.0 10.35 18.0 10.5 17.95 10.7 17.85 10.9 17.7 11.1 17.5 11.2 17.2 11.3 16.9 11.2 16.5 11.1 16.3 10.9 16.2 10.7 16.05 10.85 15.95 11.05 15.95 11.2 16.0 11.4 16.0 11.6 16.0 11.8 15.95 11.95 15.85 12.15 15.7 12.35 15.5 12.55 15.5 12.7 15.5 12.9 15.5 13.1 15.45 13.25 15.3 13.45 15.05 13.65 14.7 13.8 14.45 13.75 13.7 13.7 13.15 13.6 11.0 13.65 10.75 13.8 10.45 13.8 9.2 13.85 8.75 13.7 8.5 13.55 8.4 13.35 8.35 13.15 8.3 12.95 8.3 12.8 8.3 12.6 8.3 12.4 8.35 12.2 8.45 12.05 8.55 11.85 8.75 11.65 8.95 11.45 9.0 11.3 9.15 11.1 9.25 10.9 9.5 10.7 10.05 10.55 10.7 10.4 11.45 10.35 11.9 10.45 12.4 10.6 12.55 10.5 12.7 10.35 12.7 10.15 12.7 9.95 12.8 9.8 12.85 9.6 12.9 9.4 12.9 9.2 13.0 9.05 13.2 8.85 13.6 8.45 14.0 8.1 14.4 7.9" fill="#663300" fill-opacity="0.2" fill-rule="evenodd" stroke="none"/>
    <path d="M13.2 11.1 L13.55 11.15 13.8 11.35 14.3 11.55 14.5 11.65 14.8 11.8 15.05 11.95 15.2 12.15 15.25 12.35 15.25 12.5 15.2 12.7 15.15 12.9 15.05 13.1 14.95 13.3 14.75 13.4 14.45 13.45 14.0 13.35 13.75 13.15 13.2 13.1 12.7 13.1 12.3 13.15 12.15 13.35 11.95 13.55 11.75 13.7 11.45 13.85 11.05 13.8 10.95 13.6 10.85 13.4 10.8 13.2 10.85 13.05 10.9 12.85 10.9 12.65 10.95 12.45 11.05 12.3 11.25 12.1 11.4 11.9 11.55 11.7 11.75 11.55 12.2 11.4 12.85 11.25 13.0 11.15 13.2 11.1" fill="#663300" fill-opacity="0.2" fill-rule="evenodd" stroke="none"/>
    <path d="M-25.9 5.6 L-25.4 5.6 -25.05 5.7 -24.85 5.9 -24.65 6.1 -24.4 6.2 -24.0 6.35 -23.75 6.55 -23.55 6.7 -23.4 6.9 -23.25 7.1 -23.2 7.25 -23.15 7.45 -23.15 7.65 -23.15 7.85 -23.2 8.05 -23.2 8.2 -23.25 8.4 -23.35 8.55 -23.5 8.75 -23.9 8.9 -25.9 8.85 -26.25 8.7 -26.45 8.5 -26.65 8.35 -26.8 8.15 -27.0 7.95 -27.0 7.75 -27.0 7.6 -27.0 7.4 -27.0 7.2 -27.0 7.0 -27.0 6.85 -26.9 6.65 -26.75 6.45 -26.65 6.25 -26.4 5.9 -26.25 5.7 -25.9 5.6" fill="#663300" fill-opacity="0.2" fill-rule="evenodd" stroke="none"/>
    <path d="M-30.0 0.15 Q-29.55 2.55 -28.55 4.05 L-26.25 7.2 Q-24.95 8.8 -23.45 9.65 L-19.7 11.35 -15.8 12.7 -11.9 13.55 -7.85 14.35 -3.95 15.1 0.05 15.4 4.05 15.3 8.3 14.9 12.3 13.95 15.95 12.95 Q17.75 12.5 19.9 11.25 L23.55 9.1 Q25.1 8.25 26.5 7.0 L28.6 4.9 Q29.25 4.0 30.0 0.15" fill="none" stroke="#333333" stroke-linecap="round" stroke-linejoin="round" stroke-width="1.0"/>
  </g>
</svg>
