<?xml version="1.0" encoding="UTF-8" standalone="no"?>
<svg xmlns:xlink="http://www.w3.org/1999/xlink" height="4.4px" width="11.15px" xmlns="http://www.w3.org/2000/svg">
  <g transform="matrix(1.0, 0.0, 0.0, 1.0, 5.55, 2.2)">
    <path d="M3.6 -1.2 Q5.1 -0.7 5.1 0.0 5.1 0.7 3.6 1.2 L0.05 1.7 -3.55 1.2 Q-5.05 0.7 -5.05 0.0 -5.05 -0.7 -3.55 -1.2 L0.05 -1.7 3.6 -1.2" fill="#6c6861" fill-rule="evenodd" stroke="none"/>
    <path d="M0.35 -0.4 L0.3 -0.5 0.25 -0.6 0.25 -0.7 0.3 -0.75 -2.1 -0.85 -2.15 -0.8 -2.25 -0.75 -3.3 -0.75 -3.4 -0.7 -3.5 -0.65 -4.1 -0.65 -4.35 -0.6 -4.45 -0.5 -4.5 -0.4 -4.55 -0.3 -4.7 -0.3 -4.7 -0.4 -4.7 -0.5 -4.7 -0.6 -4.7 -0.65 -4.7 -0.75 -4.7 -0.85 -4.6 -0.95 -4.2 -1.05 -4.0 -1.1 -3.5 -1.15 -3.4 -1.25 -2.3 -1.35 -2.1 -1.4 0.65 -1.45 0.75 -1.4 0.85 -1.4 1.15 -1.4 1.5 -1.4 1.65 -1.35 1.75 -1.25 2.9 -1.3 3.0 -1.4 3.1 -1.45 3.25 -1.45 3.25 -1.5 3.4 -1.45 3.5 -1.45 3.65 -1.45 4.3 -1.2 4.65 -1.0 4.9 -0.8 5.0 -0.75 5.05 -0.65 5.1 -0.55 5.15 -0.45 5.15 -0.35 5.1 -0.25 5.1 -0.15 5.0 -0.1 4.9 0.0 1.4 0.0 1.15 -0.1 1.1 -0.15 0.65 -0.25 0.4 -0.35 0.35 -0.4" fill="#ffffff" fill-opacity="0.101960786" fill-rule="evenodd" stroke="none"/>
    <path d="M2.4 -1.9 L2.85 -1.7 2.95 -1.6 3.0 -1.5 3.1 -1.4 3.1 -1.25 3.1 -1.15 3.1 -1.05 3.1 -0.85 3.1 -0.75 3.1 -0.6 3.0 -0.5 2.95 -0.4 2.9 -0.3 2.8 -0.2 2.65 -0.1 2.5 -0.05 2.0 -0.05 1.75 -0.1 1.75 -0.15 1.7 -0.2 1.6 -0.25 1.5 -0.25 1.0 -0.3 0.75 -0.35 0.7 -0.45 0.6 -0.55 0.55 -0.65 0.55 -0.75 0.55 -0.85 0.55 -0.9 0.55 -1.0 0.55 -1.1 0.55 -1.2 0.55 -1.3 0.6 -1.4 0.6 -1.5 0.6 -1.6 0.65 -1.65 0.7 -1.75 0.8 -1.85 0.9 -1.95 0.95 -2.0 1.0 -2.05 1.15 -2.05 1.15 -2.1 1.3 -2.0 2.25 -1.9 2.4 -1.9" fill="#ffffff" fill-opacity="0.101960786" fill-rule="evenodd" stroke="none"/>
    <path d="M3.6 -1.2 Q5.1 -0.7 5.1 0.0 5.1 0.7 3.6 1.2 L0.05 1.7 -3.55 1.2 Q-5.05 0.7 -5.05 0.0 -5.05 -0.7 -3.55 -1.2 L0.05 -1.7 3.6 -1.2 Z" fill="none" stroke="#333333" stroke-linecap="round" stroke-linejoin="round" stroke-width="1.0"/>
  </g>
</svg>
