<?xml version="1.0" encoding="UTF-8" standalone="no"?>
<svg xmlns:xlink="http://www.w3.org/1999/xlink" height="11.0px" width="11.0px" xmlns="http://www.w3.org/2000/svg">
  <g transform="matrix(1.0, 0.0, 0.0, 1.0, 5.5, 5.5)">
    <path d="M-5.0 -5.0 L5.0 -5.0 5.0 5.0 -5.0 5.0 -5.0 -5.0" fill="#6c6861" fill-rule="evenodd" stroke="none"/>
    <path d="M-5.1 -5.1 L-5.0 -5.2 -4.95 -5.2 -4.75 -5.25 -4.55 -5.2 -4.4 -5.1 -4.35 -5.0 -4.3 -4.9 -4.25 -4.8 -4.25 -4.7 -4.2 -4.6 -4.1 -4.45 -4.0 -4.3 -4.0 -4.35 -3.9 -4.45 -3.85 -4.55 -3.7 -4.6 -3.5 -4.65 -3.0 -4.6 -2.25 -4.35 -1.45 -3.95 -1.3 -3.85 -1.1 -3.75 -1.0 -3.65 -0.95 -3.55 -0.85 -3.35 -0.8 -3.25 -0.75 -3.2 -0.75 -3.1 -0.7 -3.0 -0.7 -2.9 -0.7 -2.8 -0.7 -2.6 -0.7 -2.45 -0.7 -2.35 -0.75 -2.25 -0.75 -2.15 -0.8 -2.05 -0.85 -1.95 -0.9 -1.85 -1.0 -1.75 -1.15 -1.6 -1.4 -1.3 -1.45 -1.2 -1.5 -1.1 -1.5 -1.0 -1.6 -0.95 -1.7 -0.85 -1.75 -0.75 -1.85 -0.65 -2.0 -0.55 -2.05 -0.45 -2.15 -0.35 -2.25 -0.25 -2.35 -0.2 -2.5 -0.2 -2.75 -0.25 -2.85 -0.35 -2.95 -0.45 -3.0 -0.5 -3.0 -0.6 -3.0 -0.65 -3.25 -0.75 -3.3 -0.65 -3.4 -0.6 -3.35 -0.5 -3.25 -0.4 -3.15 -0.3 -3.1 -0.2 -3.1 -0.1 -3.05 0.0 -3.0 0.05 -3.0 0.15 -2.95 0.25 -2.95 0.35 -2.95 0.45 -2.95 0.55 -3.0 0.65 -3.0 0.7 -3.1 0.8 -3.2 0.9 -3.4 1.0 -3.6 1.05 -3.65 1.15 -3.7 1.25 -3.7 1.3 -3.75 1.4 -3.8 1.5 -3.85 1.6 -3.95 1.7 -4.05 1.75 -4.1 1.8 -4.25 1.8 -4.4 1.8 -4.65 1.75 -4.9 1.65 -5.1 1.55 -5.15 1.5 -5.2 1.4 -5.2 1.3 -5.2 1.1 -5.2 0.8 -5.25 0.55 -5.25 0.45 -5.2 0.35 -5.15 0.25 -5.05 0.15 -5.0 0.1 -4.9 0.1 -4.3 0.0 -4.35 -0.1 -4.5 -0.1 -4.75 -0.15 -4.8 -0.25 -4.9 -0.35 -4.9 -0.45 -4.9 -0.6 -4.9 -0.9 -4.9 -1.2 -4.85 -1.35 -4.8 -1.65 -4.7 -1.95 -4.65 -2.1 -4.7 -2.2 -4.75 -2.3 -4.75 -2.5 -4.75 -2.85 -4.75 -3.25 -4.75 -3.45 -4.8 -3.5 -4.85 -3.6 -4.85 -3.7 -4.95 -3.9 -5.15 -4.2 -5.25 -4.25 -5.25 -4.35 -5.25 -4.45 -5.25 -4.65 -5.25 -4.85 -5.25 -4.95 -5.15 -5.0 -5.1 -5.1" fill="#663300" fill-opacity="0.2" fill-rule="evenodd" stroke="none"/>
    <path d="M-5.1 -2.4 L-5.05 -2.5 -5.0 -2.6 -5.0 -2.7 -4.9 -2.75 -4.8 -2.85 -4.75 -2.95 -4.7 -3.05 -4.7 -3.15 -4.65 -3.25 -4.55 -3.35 -4.5 -3.45 -4.35 -3.5 -4.15 -3.5 -3.9 -3.45 -3.75 -3.45 -3.5 -3.35 -3.25 -3.2 -3.1 -3.1 -3.0 -3.0 -2.85 -2.8 -2.75 -2.75 -2.4 -2.7 -2.25 -2.65 -2.1 -2.45 -2.05 -2.35 -2.0 -2.25 -1.95 -2.2 -1.9 -2.1 -1.9 -1.9 -1.9 -1.8 -1.9 -1.7 -1.9 -1.6 -1.9 -1.5 -1.9 -1.45 -1.95 -1.35 -2.0 -1.25 -2.0 -1.15 -2.05 -1.05 -2.1 -0.95 -2.15 -0.85 -2.25 -0.75 -2.25 -0.7 -2.3 -0.6 -2.35 -0.5 -2.35 -0.4 -2.3 -0.3 -2.25 -0.2 -2.2 -0.1 -2.15 0.15 -2.15 0.35 -2.2 0.65 -2.15 0.9 -2.15 1.0 -2.15 1.1 -2.2 1.2 -2.25 1.3 -2.3 1.4 -2.4 1.5 -2.75 1.55 -3.0 1.6 -3.25 1.55 -3.4 1.45 -3.45 1.35 -3.5 1.25 -3.5 1.15 -3.5 1.05 -3.55 1.0 -3.65 0.9 -3.7 0.8 -3.75 0.7 -3.8 0.6 -3.8 0.4 -3.8 0.3 -3.8 0.25 -3.75 0.15 -3.75 0.05 -4.25 0.0 -4.5 -0.05 -4.65 -0.15 -4.7 -0.25 -4.8 -0.35 -4.9 -0.45 -5.0 -0.5 -5.0 -0.6 -5.0 -0.7 -5.0 -0.8 -5.05 -0.9 -5.1 -1.0 -5.1 -1.1 -5.15 -1.2 -5.15 -1.45 -5.15 -1.65 -5.15 -1.95 -5.15 -2.2 -5.15 -2.3 -5.1 -2.4" fill="#663300" fill-opacity="0.2" fill-rule="evenodd" stroke="none"/>
    <path d="M0.75 0.5 L0.8 0.6 0.85 0.7 0.95 0.9 1.0 1.0 1.0 1.05 1.0 1.15 1.0 1.25 1.0 1.35 1.0 1.45 1.0 1.55 0.95 1.65 0.9 1.75 0.75 2.0 0.5 2.3 0.05 2.75 -0.15 2.85 -0.3 2.9 -0.35 2.95 -0.5 2.95 -1.35 3.0 -1.5 3.1 -1.7 3.2 -1.9 3.25 -2.15 3.25 -2.4 3.2 -2.65 3.1 -2.75 3.0 -2.85 2.9 -2.9 2.8 -3.0 2.7 -3.1 2.65 -3.1 2.55 -3.1 2.35 -3.1 2.25 -3.1 2.15 -3.1 1.9 -3.1 1.7 -3.05 1.6 -3.0 1.5 -3.0 1.4 -2.95 1.3 -2.9 1.25 -2.8 1.15 -2.75 1.05 -2.65 0.95 -2.65 0.85 -2.65 0.75 -2.65 0.65 -2.6 0.55 -2.55 0.5 -2.45 0.4 -2.35 0.3 -2.25 0.2 -2.0 0.15 -1.65 0.15 -1.45 0.2 -1.35 0.3 -1.25 0.25 -1.15 0.2 -1.05 0.1 -0.9 0.05 -0.85 0.0 -0.65 0.0 -0.25 0.0 0.0 0.05 0.25 0.1 0.5 0.15 0.6 0.25 0.65 0.3 0.75 0.5" fill="#663300" fill-opacity="0.2" fill-rule="evenodd" stroke="none"/>
    <path d="M2.75 -3.7 L2.95 -3.5 3.05 -3.3 3.15 -3.1 3.15 -2.95 3.15 -2.75 3.1 -2.55 3.15 -2.35 3.15 -2.2 3.15 -2.0 3.15 -1.8 3.15 -1.6 3.05 -1.45 2.95 -1.25 2.85 -1.05 2.65 -0.85 2.65 -0.7 2.65 -0.5 2.65 -0.1 2.65 0.45 2.6 1.0 2.5 1.2 2.4 1.4 2.3 1.55 2.2 1.75 1.85 2.05 1.5 2.15 1.1 2.05 0.95 2.25 0.75 2.45 0.6 2.55 0.25 2.6 0.0 2.65 -0.4 2.5 -0.65 2.3 -0.8 2.15 -0.85 1.95 -0.85 1.75 -0.85 1.55 -0.85 1.4 -0.8 1.2 -0.85 1.05 -1.05 0.8 -1.75 0.2 -2.6 -0.5 -2.8 -0.7 -2.85 -0.85 -3.0 -1.05 -3.1 -1.25 -3.1 -1.45 -3.1 -1.6 -3.1 -1.8 -3.1 -2.0 -3.05 -2.35 -2.95 -2.55 -2.85 -2.75 -2.85 -2.95 -2.85 -3.1 -2.8 -3.3 -2.7 -3.5 -2.55 -3.7 -2.15 -4.05 -1.3 -4.55 -1.0 -4.6 -0.25 -4.6 1.75 -4.55 2.15 -4.45 2.4 -4.25 2.5 -4.05 2.6 -3.85 2.75 -3.7" fill="#663333" fill-opacity="0.2" fill-rule="evenodd" stroke="none"/>
    <path d="M2.9 -4.25 L3.0 -4.05 3.05 -3.85 3.1 -3.7 3.2 -3.5 3.35 -3.3 3.65 -2.95 3.95 -2.35 3.95 -2.2 3.95 -2.0 3.9 -1.6 3.9 -1.25 3.9 -0.85 3.8 -0.7 3.7 -0.5 3.6 -0.3 3.45 -0.1 3.45 0.05 3.45 0.25 3.45 0.45 3.45 0.8 3.45 1.0 3.4 1.2 3.35 1.4 3.25 1.55 3.25 1.75 3.35 1.95 3.4 2.15 3.4 2.3 3.45 2.5 3.45 2.9 3.4 3.25 3.3 3.45 3.2 3.65 3.15 3.8 2.9 4.2 2.7 4.3 2.6 4.35 2.25 4.45 1.9 4.45 1.7 4.55 1.6 4.6 1.25 4.7 1.0 4.7 0.6 4.55 0.3 4.4 0.0 4.2 -0.1 4.0 -0.25 3.85 -0.4 3.65 -0.65 3.25 -0.65 3.05 -0.7 2.9 -0.85 2.7 -1.1 2.3 -1.15 2.15 -1.15 1.75 -1.15 1.2 -1.15 0.65 -1.1 0.45 -1.0 0.3 -0.85 0.05 -0.95 -0.1 -1.15 -0.3 -1.75 -0.7 -2.1 -1.05 -2.15 -1.25 -2.25 -1.45 -2.3 -1.6 -2.3 -1.8 -2.3 -2.0 -2.3 -2.2 -2.3 -2.35 -2.2 -2.55 -2.1 -2.75 -2.0 -2.95 -1.85 -3.1 -1.85 -3.3 -1.85 -3.5 -1.85 -3.7 -1.8 -3.85 -1.65 -4.05 -1.4 -4.25 -0.95 -4.35 -0.05 -4.5 0.25 -4.55 2.25 -4.55 2.65 -4.45 2.9 -4.25" fill="#663333" fill-opacity="0.2" fill-rule="evenodd" stroke="none"/>
    <path d="M3.0 -5.25 L3.45 -5.1 3.75 -4.95 3.95 -4.75 4.1 -4.55 4.15 -4.35 4.2 -4.2 4.25 -4.0 4.25 -3.8 4.25 -3.6 4.2 -3.45 4.15 -3.25 4.1 -3.05 4.0 -2.85 3.85 -2.5 3.55 -1.9 3.2 -1.35 2.85 -1.0 2.8 -0.8 2.75 -0.6 2.75 -0.45 2.75 -0.05 2.7 0.5 2.65 0.7 2.6 0.9 2.5 1.05 2.35 1.25 2.15 1.45 1.7 1.75 1.6 1.8 1.15 1.95 0.95 2.15 0.7 2.3 0.3 2.45 -0.05 2.55 -0.15 2.75 -0.3 2.95 -0.55 3.15 -1.0 3.25 -1.25 3.25 -1.75 3.15 -2.0 2.95 -2.3 2.75 -2.65 2.4 -3.0 2.0 -3.35 1.45 -3.4 1.25 -3.8 0.9 -4.25 0.5 -4.85 -0.25 -4.85 -0.6 -4.85 -1.0 -4.85 -1.55 -4.9 -1.95 -4.9 -2.1 -4.85 -2.3 -4.75 -2.5 -4.6 -2.7 -4.25 -3.05 -4.05 -3.25 -3.65 -3.45 -3.4 -3.6 -3.4 -3.8 -3.4 -4.0 -3.4 -4.2 -3.35 -4.35 -3.2 -4.55 -3.05 -4.75 -2.8 -4.85 -2.5 -4.9 -2.25 -4.95 -1.8 -4.8 -1.45 -4.7 -1.05 -4.55 -0.75 -4.6 -0.75 -4.75 -0.65 -4.9 -0.55 -5.1 -0.35 -5.3 -0.1 -5.45 0.25 -5.45 0.25 -5.5 0.5 -5.5 0.95 -5.35 1.25 -5.2 1.45 -5.0 1.6 -4.8 1.7 -4.7 1.9 -4.75 2.0 -4.95 2.25 -5.1 2.75 -5.25 3.0 -5.25" fill="#663333" fill-opacity="0.2" fill-rule="evenodd" stroke="none"/>
    <path d="M4.25 -4.9 L4.35 -4.8 4.35 -4.7 4.35 -4.6 4.4 -4.55 4.35 -4.45 4.3 -4.35 4.25 -4.25 4.3 -3.95 4.35 -3.7 4.35 -3.4 4.45 -3.4 4.6 -3.4 4.75 -3.35 4.9 -3.25 4.95 -3.15 5.0 -2.95 5.0 -2.8 5.0 -2.6 5.0 -2.5 4.95 -2.4 4.95 -2.3 4.9 -2.2 4.9 -0.15 4.95 2.2 4.95 3.8 4.9 3.9 4.85 4.0 4.75 4.05 4.75 4.15 4.75 4.25 4.7 4.35 4.65 4.45 4.55 4.55 4.35 4.6 4.1 4.55 4.0 4.45 3.95 4.35 3.9 4.15 3.9 4.0 3.9 3.8 3.9 3.7 3.85 3.6 3.8 3.5 3.8 3.4 3.8 3.3 3.8 3.25 3.8 3.15 3.75 3.05 3.7 2.95 3.65 2.0 3.65 1.15 3.7 0.4 3.7 0.3 3.75 0.2 3.8 0.15 3.8 -0.05 3.85 -0.25 3.85 -0.45 3.85 -0.5 3.9 -0.6 3.95 -0.7 3.95 -0.8 3.95 -0.9 3.9 -1.0 3.85 -1.1 3.85 -1.3 3.85 -1.45 3.85 -1.65 3.85 -1.75 3.8 -1.85 3.75 -1.95 3.75 -2.8 3.8 -3.6 3.9 -4.35 3.95 -4.45 4.1 -4.55 4.15 -4.65 4.15 -4.75 4.15 -4.85 4.2 -4.9 4.25 -4.9" fill="#ffffff" fill-opacity="0.101960786" fill-rule="evenodd" stroke="none"/>
    <path d="M5.1 2.1 L5.05 2.2 5.0 2.3 4.95 2.4 4.95 2.5 4.9 2.55 4.85 2.65 4.75 2.75 4.65 2.85 4.5 2.95 4.4 3.0 4.25 3.05 3.5 3.05 3.25 3.0 3.2 2.9 3.1 2.8 3.0 2.7 2.95 2.6 2.95 2.5 2.85 2.4 2.85 2.3 2.75 2.25 2.7 2.15 2.7 2.05 2.7 1.95 2.7 1.85 2.7 1.75 2.7 1.55 2.7 1.4 2.7 1.3 2.75 1.2 2.85 1.1 2.85 1.0 2.85 0.9 2.85 0.8 2.9 0.75 2.95 0.65 3.0 0.55 3.1 0.45 3.2 0.4 3.4 0.3 3.5 0.25 3.6 0.15 3.85 0.1 3.85 0.05 4.25 0.05 4.45 0.15 4.6 0.25 4.75 0.3 4.85 0.4 4.95 0.5 5.0 0.6 5.05 0.7 5.1 0.8 5.15 0.9 5.15 1.0 5.15 1.15 5.15 1.45 5.15 1.8 5.1 2.1 M3.95 1.35 L3.95 1.25 3.8 1.2 3.7 1.3 3.65 1.4 3.6 1.5 3.6 1.55 3.8 1.55 3.9 1.45 3.95 1.35" fill="#ffffff" fill-opacity="0.101960786" fill-rule="evenodd" stroke="none"/>
    <path d="M5.0 -5.0 L5.0 5.0 M-5.0 5.0 L-5.0 -5.0" fill="none" stroke="#333333" stroke-linecap="round" stroke-linejoin="round" stroke-width="1.0"/>
  </g>
</svg>
