<?xml version="1.0" encoding="UTF-8" standalone="no"?>
<svg xmlns:xlink="http://www.w3.org/1999/xlink" height="2.6px" width="168.15px" xmlns="http://www.w3.org/2000/svg">
  <g transform="matrix(1.0, 0.0, 0.0, 1.0, 167.35, 1.25)">
    <path d="M0.8 0.4 L0.45 0.85 -7.0 1.3 Q-15.75 1.5 -24.5 0.9 L-26.45 0.3 -29.05 0.55 -29.35 0.7 -35.8 0.7 -42.4 0.85 -48.85 0.85 -55.45 1.0 -61.55 1.05 -67.75 1.15 -85.45 1.15 -100.3 1.15 -111.55 1.15 -122.8 1.05 -129.75 1.05 -132.95 1.35 -147.9 0.7 Q-152.65 0.55 -157.6 0.75 -162.5 1.05 -167.05 0.75 L-167.35 -0.35 -166.65 -0.9 -158.95 -0.65 -151.35 -0.5 -142.55 -0.75 -135.15 -0.95 -123.95 -0.8 -118.2 -0.75 -112.4 -0.8 -106.75 -0.8 -100.95 -0.9 -95.25 -0.9 -89.5 -1.05 -83.8 -1.05 -72.75 -1.1 -61.6 -1.1 -50.6 -1.05 -41.6 -0.5 -33.4 -0.45 -29.0 -0.45 -17.7 -1.1 -9.0 -1.25 0.5 -0.75 0.8 0.4" fill="#ff0000" fill-rule="evenodd" stroke="none"/>
  </g>
</svg>
