<?xml version="1.0" encoding="UTF-8" standalone="no"?>
<svg xmlns:xlink="http://www.w3.org/1999/xlink" height="3.05px" width="278.05px" xmlns="http://www.w3.org/2000/svg">
  <g transform="matrix(1.0, 0.0, 0.0, 1.0, 277.25, 1.65)">
    <path d="M-277.05 -0.4 L-277.25 -0.7 -277.15 -0.8 -277.0 -0.9 -276.9 -1.05 -276.75 -1.15 -276.65 -1.2 Q-266.4 -0.8 -256.1 -1.1 L-255.85 -1.2 -240.15 -1.4 -236.3 -1.55 -234.6 -1.65 -226.9 -1.65 -218.5 -1.5 -218.1 -1.5 Q-208.3 -1.25 -198.5 -1.35 L-186.4 -1.55 -174.55 -1.65 -166.85 -1.1 -166.5 -0.9 -158.95 -0.65 -151.35 -0.5 -142.55 -0.75 -135.15 -0.95 -123.95 -0.8 -118.2 -0.75 -112.4 -0.8 -106.75 -0.8 -100.95 -0.9 -95.25 -0.9 -93.55 -0.9 -89.5 -1.05 -83.8 -1.05 -72.75 -1.1 -61.6 -1.1 -50.6 -1.05 -41.6 -0.5 -38.2 -0.5 -38.15 -0.6 -38.1 -0.75 -38.0 -0.95 -37.85 -1.1 -37.55 -1.25 -37.35 -1.4 -36.95 -1.45 -36.7 -1.4 -36.3 -1.15 -36.1 -0.95 -36.0 -0.75 -36.0 -0.55 -36.0 -0.45 -33.4 -0.45 -31.95 -0.45 -31.95 -0.5 -31.85 -0.65 -31.75 -0.85 -31.6 -1.0 -31.4 -1.15 -31.05 -1.3 -30.7 -1.4 -30.3 -1.45 -29.85 -1.25 -29.65 -1.0 -29.5 -0.75 -29.4 -0.55 -29.4 -0.45 -29.0 -0.45 -17.7 -1.1 -9.0 -1.25 0.5 -0.75 0.8 0.4 0.45 0.85 -7.0 1.3 Q-15.75 1.5 -24.5 0.9 L-26.45 0.3 -29.05 0.55 -29.35 0.7 -29.7 0.7 -29.85 0.85 -30.05 1.05 -30.25 1.15 -30.55 1.3 -30.9 1.35 -30.95 1.35 -31.45 1.25 -31.7 1.1 -31.85 0.85 -31.9 0.7 -35.8 0.7 -35.9 0.7 -35.95 0.8 -36.15 0.95 -36.35 1.05 -36.45 1.2 -36.7 1.35 -37.05 1.4 -37.55 1.3 -37.85 1.15 -38.1 0.95 -38.25 0.85 -38.4 0.75 -42.4 0.85 -48.85 0.85 -55.45 1.0 -61.55 1.05 -67.75 1.15 -85.45 1.15 -92.5 1.1 -100.3 1.15 -111.55 1.15 -122.8 1.05 -129.75 1.05 -132.95 1.35 -147.9 0.7 Q-152.65 0.55 -157.6 0.75 -162.5 1.05 -167.05 0.75 L-167.15 0.45 -168.75 0.6 -172.9 0.9 -174.55 0.9 -176.2 0.9 Q-187.35 0.6 -198.5 0.75 L-217.2 0.85 Q-236.55 0.85 -255.85 0.45 L-256.1 0.4 -272.65 0.15 -274.45 0.15 -274.7 0.05 -275.2 -0.05 -275.9 -0.15 -276.4 -0.25 -276.9 -0.35 -277.05 -0.4" fill="#ff0000" fill-rule="evenodd" stroke="none"/>
  </g>
</svg>
