<?xml version="1.0" encoding="UTF-8" standalone="no"?>
<svg xmlns:xlink="http://www.w3.org/1999/xlink" height="36.75px" width="34.25px" xmlns="http://www.w3.org/2000/svg">
  <g transform="matrix(1.0, 0.0, 0.0, 1.0, 16.5, 18.45)">
    <path d="M3.5 -16.25 L-0.85 -17.2 -0.6 -16.65 Q-0.6 -16.85 -2.4 -15.7 L-4.65 -14.15 0.5 -15.55 3.5 -16.25 M5.5 -15.3 Q4.8 -14.75 2.1 -13.65 0.35 -12.95 -1.6 -12.2 L2.45 -13.05 6.75 -13.65 Q7.8 -13.65 7.8 -12.8 7.8 -12.15 5.55 -11.3 L1.7 -9.95 8.8 -11.25 Q9.65 -11.25 9.75 -10.5 9.75 -9.6 3.75 -7.65 0.55 -6.6 -4.25 -5.25 4.25 -7.35 6.2 -7.35 L10.8 -8.1 11.8 -7.95 10.75 -10.2 Q10.35 -10.5 9.9 -11.55 L8.85 -13.2 Q11.05 -11.45 12.65 -8.0 L14.15 -4.2 14.3 -3.85 14.4 -3.5 14.7 -2.7 14.95 -2.1 Q16.25 -2.1 16.35 -1.2 L15.35 -0.5 15.7 0.95 16.15 3.2 16.75 3.05 Q17.7 3.05 17.75 4.1 17.75 4.55 16.35 5.15 L16.35 5.7 Q16.35 9.05 14.65 12.3 11.95 17.55 6.2 17.55 L4.95 17.85 4.75 17.65 3.6 17.85 -0.05 18.3 Q-5.95 18.3 -10.1 15.1 -13.9 12.15 -15.5 7.35 -14.9 7.5 -14.5 8.15 L-14.25 8.85 Q-14.25 10.3 -12.15 12.1 -11.55 11.1 -9.0 10.05 L-9.0 9.95 -10.95 10.35 -13.5 9.9 -13.65 9.4 Q-13.65 8.35 -7.45 6.1 L0.8 3.2 1.2 3.05 -6.9 5.3 Q-13.1 7.05 -14.4 7.05 L-14.85 7.05 -14.25 8.25 -15.35 7.0 -16.1 6.6 -16.2 6.1 -16.15 5.85 -16.5 4.75 Q-16.5 -1.05 -12.7 -8.65 -8.9 -16.25 -4.5 -17.4 L-4.95 -17.4 Q-5.4 -17.4 -5.7 -17.7 -5.35 -18.2 -4.05 -18.35 L-1.35 -18.45 Q3.55 -18.1 6.6 -15.9 8.85 -14.3 8.85 -13.2 L9.3 -12.35 9.0 -12.15 Q7.15 -14.2 5.5 -15.3 M1.55 -0.6 L-9.9 3.95 4.2 0.5 13.95 -1.9 13.2 -4.2 12.2 -6.9 Q10.8 -6.2 2.6 -3.3 -7.3 0.15 -8.1 0.15 L-8.55 -0.05 -8.7 -0.3 Q-8.7 -1.55 -5.6 -2.55 -1.25 -3.7 1.2 -4.65 L-3.8 -3.6 -8.75 -2.55 -10.6 -2.15 -12.6 -1.8 -14.15 -2.05 Q-15.6 2.1 -15.6 4.95 L-15.55 5.1 Q-14.45 4.1 -11.35 2.8 -5.8 0.7 -4.4 0.0 L3.15 -2.7 Q10.65 -5.1 10.65 -3.9 10.65 -3.5 10.3 -3.45 L9.65 -3.45 Q9.05 -3.45 1.55 -0.6 M14.05 7.8 L14.25 8.35 Q14.25 9.4 8.75 11.1 L1.25 13.35 1.5 13.35 6.9 12.9 Q9.55 12.9 10.3 13.6 10.7 13.9 10.55 14.25 L10.55 14.3 13.05 11.85 Q14.8 9.45 15.05 5.6 L10.3 6.9 1.2 9.0 1.4 9.0 13.0 7.4 Q13.7 7.4 14.05 7.8 M3.35 15.2 L-0.25 15.8 -3.65 16.25 -0.4 16.8 Q-0.25 16.05 0.85 15.7 L3.35 15.2 M14.45 -0.1 Q9.9 1.9 -5.15 7.25 L15.0 3.4 14.45 -0.1 M-5.45 -14.95 L-3.3 -16.4 Q-4.65 -16.65 -2.5 -17.2 L-2.0 -17.3 -3.9 -17.4 Q-7.85 -15.8 -11.8 -7.6 L-13.3 -4.25 -12.85 -4.45 -7.8 -6.0 -7.65 -6.0 Q-9.05 -6.1 -9.45 -6.55 L-9.6 -7.25 Q-9.6 -8.0 -5.55 -9.45 L-5.4 -9.5 -7.4 -9.15 Q-9.35 -9.15 -9.05 -10.0 -9.05 -10.6 -7.05 -11.55 L-4.05 -12.8 -3.9 -12.95 -4.75 -12.75 Q-5.3 -12.45 -5.55 -12.45 -6.75 -12.45 -7.05 -12.85 L-7.05 -13.25 Q-7.05 -13.7 -5.45 -14.95 M-9.9 13.65 L-6.75 15.25 Q-6.7 14.15 -3.8 12.9 L1.85 10.8 -9.95 13.6 -9.9 13.65" fill="#333333" fill-rule="evenodd" stroke="none"/>
  </g>
</svg>
