<?xml version="1.0" encoding="UTF-8" standalone="no"?>
<svg xmlns:xlink="http://www.w3.org/1999/xlink" height="3.3px" width="168.2px" xmlns="http://www.w3.org/2000/svg">
  <g transform="matrix(1.0, 0.0, 0.0, 1.0, 168.0, 1.65)">
    <path d="M0.15 0.3 L0.0 0.3 Q-0.9 0.85 -2.05 0.85 L-7.65 1.05 -16.6 1.15 -17.35 1.15 -18.2 0.9 -18.4 0.9 -18.9 0.85 -25.0 0.85 -31.25 0.85 -37.45 0.85 -43.65 1.0 Q-59.85 2.05 -76.2 1.45 L-92.3 0.85 -96.25 0.9 -99.75 0.9 -106.65 1.0 -113.7 1.05 -120.75 1.15 -124.35 1.15 -134.65 1.3 -143.95 1.3 -167.25 0.45 -168.0 0.0 -167.85 -0.3 -160.7 -0.65 -154.45 -0.9 -146.1 -1.35 -138.55 -1.4 -129.2 -1.25 -123.65 -1.1 -118.05 -0.95 -112.55 -0.95 -106.95 -0.8 -101.4 -0.8 -95.9 -0.8 -90.4 -0.8 -85.5 -0.65 -77.85 -1.05 -68.4 -1.55 -62.8 -1.4 -56.95 -1.25 -49.3 -1.1 -39.8 -0.9 -30.15 -0.8 -24.2 -0.9 -18.4 -1.05 -12.45 -1.05 -4.55 -0.95 -1.0 -1.2 Q-0.35 -0.9 0.2 -0.3 L0.15 0.3" fill="#ff0000" fill-rule="evenodd" stroke="none"/>
  </g>
</svg>
