<?xml version="1.0" encoding="UTF-8" standalone="no"?>
<svg xmlns:xlink="http://www.w3.org/1999/xlink" height="11.7px" width="11.95px" xmlns="http://www.w3.org/2000/svg">
  <g transform="matrix(1.0, 0.0, 0.0, 1.0, 7.05, 7.1)">
    <path d="M2.15 -2.3 L2.85 -1.2 2.85 -1.15 2.9 -1.1 2.9 -1.05 2.95 -1.0 2.95 -0.9 3.0 -0.85 3.0 -0.75 3.05 -0.7 3.35 -0.3 3.65 0.15 3.95 0.5 4.4 1.0 4.65 1.45 4.7 1.5 4.7 1.6 4.75 1.65 4.75 1.7 4.8 1.75 4.8 1.8 4.85 1.85 4.9 2.2 4.9 2.6 4.9 2.9 4.9 3.2 4.9 3.65 4.9 4.0 4.85 4.05 4.85 4.2 4.8 4.25 4.8 4.35 4.75 4.4 4.7 4.45 4.7 4.5 4.6 4.55 4.55 4.55 4.45 4.6 -0.25 4.6 -0.55 4.5 -0.6 4.45 -0.6 4.4 -0.65 4.35 -0.7 4.3 -0.75 4.25 -0.75 4.15 -0.8 4.15 -0.8 3.95 -0.75 3.9 -0.75 3.8 -0.8 3.75 -0.8 3.65 -0.85 3.6 -0.9 3.55 -0.9 3.5 -0.95 3.45 -0.95 3.25 -1.0 3.2 -1.0 3.05 -1.05 3.0 -1.15 2.85 -1.25 2.7 -1.35 2.6 -1.45 2.5 -1.45 2.45 -2.0 2.0 -2.45 1.6 -2.95 1.25 -3.6 0.75 -3.7 0.7 -3.8 0.65 -3.85 0.6 -3.9 0.6 -4.0 0.6 -4.05 0.6 -4.15 0.6 -4.25 0.55 -4.35 0.5 -4.4 0.45 -4.4 0.4 -4.45 0.35 -4.5 0.3 -4.5 0.25 -4.5 0.1 -4.5 -0.1 -4.5 -0.25 -4.5 -0.4 -4.5 -0.5 -4.5 -0.6 -4.45 -0.6 -4.45 -0.65 -4.4 -0.7 -4.4 -0.75 -4.35 -0.8 -4.25 -1.3 -4.2 -1.75 -4.1 -2.15 -4.05 -2.75 -4.0 -3.35 -4.0 -3.6 -3.95 -3.65 -3.95 -3.8 -3.9 -3.85 -3.9 -3.9 -3.85 -3.95 -3.85 -4.05 -3.8 -4.1 -3.8 -4.2 -3.75 -4.25 -3.75 -4.35 -3.7 -4.35 -3.65 -4.4 -3.6 -4.45 -3.55 -4.5 -3.5 -4.55 -3.4 -4.55 -3.3 -4.6 -3.2 -4.6 -3.1 -4.65 -2.75 -4.65 -2.5 -4.6 -2.35 -4.55 -2.3 -4.5 -2.25 -4.45 -2.15 -4.4 -2.05 -4.35 -1.85 -4.3 -1.75 -4.25 -1.65 -4.25 Q-0.55 -4.25 0.45 -3.6 L1.45 -2.95 2.15 -2.3" fill="#a2c072" fill-rule="evenodd" stroke="none"/>
    <path d="M-4.5 -6.65 L-4.3 -6.7 -4.2 -6.75 -4.1 -6.8 -4.0 -6.9 -3.9 -7.0 -3.75 -7.05 -3.7 -7.1 -3.6 -7.1 -3.45 -7.1 -3.35 -7.1 -3.3 -7.05 -3.2 -7.0 -3.05 -6.85 -3.05 -6.8 -3.0 -6.75 -3.0 -6.7 -2.95 -6.7 -2.95 -6.45 -2.9 -6.4 -2.9 -6.3 -2.95 -6.25 -2.95 -5.9 -3.0 -5.85 -3.0 -5.8 -3.05 -5.75 -3.05 -5.7 -3.1 -5.65 -3.1 -5.55 -3.15 -5.45 -3.2 -5.3 -3.2 -5.2 -3.25 -5.15 -3.3 -5.1 -3.3 -5.05 -3.35 -5.0 -3.35 -4.95 -3.4 -4.9 -3.4 -4.85 -3.45 -4.8 -3.45 -4.7 -3.5 -4.65 -3.5 -4.55 -3.55 -4.5 -3.55 -4.45 -3.6 -4.4 -3.65 -4.35 -3.65 -4.3 -3.7 -4.25 -3.75 -4.2 -3.75 -4.15 -3.8 -4.1 -3.85 -4.0 -3.85 -3.95 -3.9 -3.9 -3.9 -3.75 -3.95 -3.7 -4.0 -3.65 -4.0 -3.6 -4.05 -3.5 -4.1 -3.45 -4.1 -3.35 -4.15 -3.3 -4.15 -3.0 -4.2 -2.95 -4.2 -2.9 -4.25 -2.85 -4.25 -2.8 -4.35 -2.75 -4.4 -2.7 -4.45 -2.65 -4.45 -2.35 -4.65 -1.25 -4.8 -0.25 -4.9 1.0 -4.95 1.2 -4.9 1.25 -4.9 1.3 -4.85 1.35 -4.85 1.4 -4.85 1.5 -4.85 1.6 -4.85 1.8 -4.85 2.05 -4.85 2.2 -4.9 2.25 -5.0 2.35 -5.25 2.6 -5.55 2.8 -5.8 2.85 -6.3 2.85 -6.4 2.8 -6.45 2.8 -6.65 2.6 -6.75 2.55 -6.95 2.35 -6.95 2.25 -7.0 2.2 -7.05 1.25 -7.0 0.0 -6.9 -1.05 -6.8 -1.6 -6.6 -2.4 -6.35 -3.15 -6.3 -3.2 -6.25 -3.2 -6.25 -3.3 -6.25 -3.4 -6.2 -3.55 -6.2 -3.7 -6.2 -3.85 -6.15 -3.9 -6.15 -3.95 -6.1 -4.0 -6.1 -4.05 -6.05 -4.1 -6.05 -4.2 -6.0 -4.25 -6.0 -4.3 -5.95 -4.35 -5.95 -4.45 -5.9 -4.5 -5.9 -4.6 -5.85 -4.7 -5.85 -4.75 -5.8 -4.8 -5.8 -4.85 -5.75 -4.9 -5.75 -4.95 -5.7 -5.0 -5.7 -5.05 -5.65 -5.1 -5.65 -5.2 -5.6 -5.25 -5.55 -5.3 -5.55 -5.35 -5.5 -5.4 -5.45 -5.45 -5.45 -5.55 -5.4 -5.6 -5.4 -5.65 -5.4 -5.75 -5.35 -5.85 -5.35 -5.9 -5.3 -5.95 -5.25 -6.0 -5.15 -6.1 -5.15 -6.2 -5.05 -6.25 -5.0 -6.35 -4.8 -6.5 -4.7 -6.6 -4.65 -6.6 -4.5 -6.65" fill="#b0cedc" fill-rule="evenodd" stroke="none"/>
  </g>
</svg>
