<?xml version="1.0" encoding="UTF-8" standalone="no"?>
<svg xmlns:xlink="http://www.w3.org/1999/xlink" height="12.65px" width="12.65px" xmlns="http://www.w3.org/2000/svg">
  <g transform="matrix(1.0, 0.0, 0.0, 1.0, 6.35, 6.3)">
    <path d="M0.8 -2.85 L1.7 -2.2 2.65 -1.15 3.05 -0.6 3.1 -0.45 3.15 -0.3 3.2 -0.15 3.2 0.0 3.2 0.3 3.2 0.75 3.2 1.35 3.2 1.95 3.15 2.1 3.1 2.25 3.05 2.4 2.95 2.55 2.85 2.7 2.8 2.85 2.7 3.0 2.5 3.15 2.3 3.3 2.05 3.45 1.95 3.6 1.8 3.75 Q1.7 3.85 1.55 3.9 L1.3 4.05 1.1 4.15 0.9 4.2 -0.6 4.2 -1.2 4.1 -1.45 3.95 -1.75 3.8 -2.2 3.65 -2.45 3.5 -2.65 3.35 -2.9 3.2 -3.05 3.05 -3.2 2.9 -3.35 2.75 -3.6 2.45 -3.75 2.15 -3.8 2.0 -3.8 1.55 -3.8 0.8 -3.75 -0.1 -3.55 -0.85 -3.45 -1.0 -3.35 -1.15 -3.1 -1.45 -2.8 -1.9 -2.55 -2.2 Q-2.4 -2.25 -2.3 -2.35 L-2.05 -2.5 -1.8 -2.65 -1.3 -2.9 -1.0 -2.9 -1.0 -2.95 0.4 -2.95 0.8 -2.85" fill="#663366" fill-opacity="0.101960786" fill-rule="evenodd" stroke="none"/>
    <path d="M2.8 -3.2 L3.3 -2.75 3.85 -2.15 4.15 -1.7 4.2 -1.55 4.25 -1.4 4.3 -1.25 4.35 -1.1 4.35 -0.95 4.35 -0.8 4.3 -0.65 4.3 -0.5 4.3 -0.2 4.35 0.1 4.35 0.25 4.3 0.4 4.3 0.55 4.3 0.7 4.3 1.0 4.3 1.3 4.25 1.45 4.2 1.6 4.15 1.75 4.1 1.9 4.0 2.05 3.55 2.8 2.6 3.8 1.4 4.25 0.4 4.15 -1.25 3.5 -1.7 3.2 -1.85 3.05 -2.0 2.9 -2.1 2.75 -2.15 2.6 -2.2 2.45 -2.25 2.3 -2.3 2.15 -2.35 2.0 -2.4 1.85 -2.4 1.7 -2.4 1.55 -2.35 1.25 -2.35 0.95 -2.35 0.65 -2.35 0.35 -2.3 0.2 -2.25 0.05 -2.2 -0.1 -2.15 -0.25 -2.1 -0.4 -2.05 -0.55 -1.95 -0.7 -1.6 -1.3 -1.1 -2.2 -0.2 -3.25 0.0 -3.35 0.1 -3.4 0.3 -3.45 0.6 -3.45 0.6 -3.5 2.0 -3.45 2.6 -3.35 2.8 -3.2" fill="#663366" fill-opacity="0.101960786" fill-rule="evenodd" stroke="none"/>
    <path d="M0.5 -3.65 L0.6 -3.6 1.5 -3.45 Q2.1 -3.35 2.55 -2.95 L2.95 -2.35 3.1 -2.05 3.15 -1.9 3.2 -1.75 3.25 -1.6 3.3 -1.45 3.35 -1.3 3.35 -1.15 3.35 -0.7 3.35 -0.4 3.35 0.05 3.35 0.65 3.35 1.1 3.3 1.25 3.25 1.4 3.2 1.55 3.15 1.7 3.05 1.85 2.65 2.3 2.45 2.6 2.05 3.05 1.5 3.45 1.3 3.5 0.1 3.65 -0.1 3.8 -0.3 3.9 -0.5 3.95 -0.8 4.0 -1.1 3.95 -1.4 3.85 -1.7 3.7 -1.85 3.55 -2.15 3.1 -2.35 2.8 -2.75 2.35 -3.15 1.75 -3.3 1.6 -3.45 1.45 -3.65 1.15 -3.7 1.0 -3.75 0.85 -3.75 0.7 -3.75 0.4 -3.75 0.25 -3.75 0.1 -3.8 -0.05 -3.85 -0.2 -3.9 -0.35 -3.9 -0.5 -3.85 -0.95 -3.85 -1.1 -3.85 -1.4 -3.85 -1.7 -3.8 -2.0 -3.75 -2.15 -3.6 -2.45 -3.5 -2.6 -3.4 -2.75 -3.25 -2.9 -3.1 -3.05 -2.8 -3.2 -1.9 -3.55 -1.1 -3.7 -0.8 -3.75 0.0 -3.7 0.5 -3.65" fill="#663366" fill-opacity="0.101960786" fill-rule="evenodd" stroke="none"/>
    <path d="M5.45 -0.05 L5.25 -1.1 4.9 -2.1 4.4 -3.05 3.7 -3.85 2.9 -4.6 2.0 -5.05 1.0 -5.35 0.0 -5.45 -1.15 -5.35 -2.0 -5.05 -3.0 -4.55 -3.75 -3.85 -4.5 -3.05 -5.05 -2.1 -5.3 -1.1 -5.35 -0.05 -5.3 1.1 -5.0 2.05 -4.45 2.95 -3.75 3.75 -2.9 4.45 -2.0 4.95 -1.0 5.25 0.15 5.35 1.25 5.25 2.3 4.95 3.2 4.45 4.1 3.8 4.7 3.0 5.05 2.0 5.4 1.1 5.45 -0.05 M6.2 -0.65 Q6.4 0.35 6.1 1.3 L5.4 3.05 4.4 4.5 3.8 4.95 2.25 5.8 1.15 6.2 -0.75 6.25 -2.4 5.7 -3.5 5.15 -4.45 4.35 -5.65 2.9 -6.2 1.2 Q-6.45 0.35 -6.3 -0.7 L-5.7 -2.45 -4.85 -3.95 -3.45 -5.25 -2.4 -5.8 -1.35 -6.15 0.6 -6.2 1.8 -5.9 3.5 -5.15 4.4 -4.45 5.2 -3.55 5.8 -2.5 6.2 -0.65" fill="#333333" fill-rule="evenodd" stroke="none"/>
    <path d="M5.05 -1.75 L5.1 -1.75 5.2 -1.75 5.3 -1.7 5.3 -1.65 5.35 -1.65 5.35 -1.55 5.3 -1.5 5.2 -1.45 5.15 -1.45 4.75 -1.2 4.3 -1.0 4.25 -1.0 4.2 -0.95 4.1 -0.95 4.05 -0.9 3.95 -0.95 3.9 -1.0 3.9 -1.2 4.0 -1.3 4.4 -1.45 4.75 -1.55 4.8 -1.6 4.85 -1.65 5.0 -1.7 5.05 -1.75" fill="#333333" fill-rule="evenodd" stroke="none"/>
    <path d="M3.9 -0.2 L3.9 -0.25 3.95 -0.3 4.15 -0.4 4.45 -0.45 4.75 -0.6 4.8 -0.6 5.05 -0.55 5.2 -0.55 5.45 -0.45 5.3 -0.4 5.05 -0.35 4.85 -0.3 4.7 -0.25 4.45 -0.1 4.35 -0.05 4.3 -0.05 4.2 0.0 4.15 0.05 4.05 0.05 3.95 0.0 3.85 -0.1 3.85 -0.15 3.9 -0.2" fill="#333333" fill-rule="evenodd" stroke="none"/>
  </g>
</svg>
