<?xml version="1.0" encoding="UTF-8" standalone="no"?>
<svg xmlns:xlink="http://www.w3.org/1999/xlink" height="6.85px" width="12.85px" xmlns="http://www.w3.org/2000/svg">
  <g transform="matrix(1.0, 0.0, 0.0, 1.0, 6.25, 6.25)">
    <path d="M4.95 -0.95 L3.2 -1.65 1.95 -2.2 1.85 -2.25 0.4 -2.75 -0.45 -2.9 -2.0 -3.0 -3.9 -2.8 -4.55 -2.65 -4.6 -2.6 -5.2 -2.6 -4.1 -4.15 Q-2.45 -5.8 -0.15 -5.8 2.15 -5.8 3.8 -4.15 5.35 -2.6 5.45 -0.5 L5.4 -0.6 5.25 -0.75 5.0 -0.9 4.95 -0.95" fill="#669966" fill-rule="evenodd" stroke="none"/>
    <path d="M3.0 -3.15 L3.4 -2.85 3.5 -2.7 3.6 -2.55 3.7 -2.4 3.9 -2.1 4.05 -1.8 4.15 -1.65 4.2 -1.5 4.3 -1.25 3.2 -1.65 1.95 -2.2 1.85 -2.25 0.4 -2.75 -0.45 -2.9 -0.5 -2.9 0.15 -3.45 0.6 -3.5 0.6 -3.55 2.0 -3.55 2.4 -3.45 2.75 -3.3 3.0 -3.15" fill="#663366" fill-opacity="0.101960786" fill-rule="evenodd" stroke="none"/>
    <path d="M3.0 -3.15 L3.25 -3.0 3.45 -2.85 3.55 -2.7 3.65 -2.55 3.7 -2.4 3.75 -2.25 3.8 -2.1 3.8 -1.95 3.75 -1.8 3.75 -1.65 3.65 -1.5 3.2 -1.65 1.95 -2.2 1.85 -2.25 0.4 -2.75 -0.45 -2.9 -2.0 -3.0 -2.35 -2.95 -2.1 -3.25 -1.95 -3.4 -1.7 -3.55 -1.4 -3.7 -0.8 -3.85 -0.4 -3.9 0.4 -3.8 1.0 -3.65 1.8 -3.3 1.85 -3.25 2.1 -3.25 2.4 -3.3 2.7 -3.25 3.0 -3.15" fill="#663366" fill-opacity="0.101960786" fill-rule="evenodd" stroke="none"/>
    <path d="M5.7 -0.1 L5.7 -0.15 5.5 -0.4 5.4 -0.6 Q5.2 -2.55 3.8 -4.0 2.2 -5.65 -0.05 -5.55 -2.3 -5.5 -3.9 -3.9 L-4.85 -2.6 -5.8 -2.5 Q-5.35 -3.6 -4.45 -4.5 -2.65 -6.25 0.05 -6.25 2.7 -6.25 4.55 -4.4 6.4 -2.55 6.3 0.05 L6.3 0.4 6.15 0.3 5.75 0.05 5.75 -0.05 5.7 -0.1" fill="#333333" fill-rule="evenodd" stroke="none"/>
    <path d="M4.85 -1.0 L4.4 -1.2 4.45 -1.25 4.95 -1.4 5.3 -1.5 5.7 -1.6 5.8 -1.65 5.9 -1.6 5.95 -1.6 6.0 -1.55 6.0 -1.5 6.05 -1.45 6.0 -1.45 6.0 -1.3 5.5 -1.1 5.1 -1.05 5.05 -1.05 4.85 -1.0" fill="#333333" fill-rule="evenodd" stroke="none"/>
    <path d="M5.5 -0.4 L5.4 -0.6 5.45 -0.6 5.7 -0.6 5.75 -0.6 5.85 -0.6 5.9 -0.55 6.0 -0.5 6.0 -0.45 6.05 -0.45 6.05 -0.25 6.0 -0.2 5.95 -0.2 5.95 -0.15 5.85 -0.15 5.8 -0.15 5.7 -0.15 5.5 -0.4" fill="#333333" fill-rule="evenodd" stroke="none"/>
    <path d="M0.65 -3.6 L1.85 -3.25 3.95 -2.25 4.45 -2.05 4.65 -1.8 5.65 -0.95 6.05 -0.65 6.5 -0.25 6.6 0.05 6.6 0.1 6.6 0.2 6.5 0.3 6.5 0.4 6.3 0.6 5.85 0.6 Q5.6 0.55 5.45 0.3 L4.3 -0.75 3.75 -1.0 Q0.3 -3.6 -3.75 -2.65 L-5.4 -2.25 -6.0 -2.1 -6.25 -2.35 Q-5.65 -2.95 -4.55 -3.1 -4.2 -3.55 -3.05 -3.6 L-0.95 -3.7 0.65 -3.6" fill="#333333" fill-rule="evenodd" stroke="none"/>
  </g>
</svg>
