<?xml version="1.0" encoding="UTF-8" standalone="no"?>
<svg xmlns:xlink="http://www.w3.org/1999/xlink" height="35.15px" width="21.4px" xmlns="http://www.w3.org/2000/svg">
  <g transform="matrix(1.0, 0.0, 0.0, 1.0, 11.05, 17.9)">
    <path d="M5.9 -16.45 L5.95 -14.8 5.65 -14.4 Q5.15 -8.9 6.1 -3.55 L6.6 -1.05 6.9 1.05 8.75 6.05 Q9.95 9.95 10.25 14.25 L10.35 14.9 Q7.85 17.9 3.25 17.05 L-4.0 16.8 -10.2 15.55 -11.05 15.05 -10.9 14.1 -10.2 13.7 Q-9.75 9.1 -8.45 4.7 L-7.75 2.45 Q-7.5 -2.55 -6.35 -7.7 -6.0 -9.25 -6.15 -10.75 L-6.6 -15.75 -5.6 -16.9 Q-0.6 -18.65 4.5 -17.4 L5.5 -17.0 5.9 -16.45" fill="#a2c072" fill-rule="evenodd" stroke="none"/>
  </g>
</svg>
