<?xml version="1.0" encoding="UTF-8" standalone="no"?>
<svg xmlns:xlink="http://www.w3.org/1999/xlink" height="23.25px" width="32.1px" xmlns="http://www.w3.org/2000/svg">
  <g transform="matrix(1.0, 0.0, 0.0, 1.0, 16.25, 11.4)">
    <path d="M8.0 -6.8 L8.9 -7.0 9.6 -7.2 10.4 -7.25 10.4 -7.3 11.2 -7.25 11.7 -7.2 12.2 -7.0 12.5 -6.7 12.7 -6.4 12.8 -6.1 12.75 -5.8 12.6 -5.5 12.45 -5.2 12.3 -5.0 11.2 -4.75 7.2 -4.0 -9.6 -4.1 -10.3 -4.3 -10.6 -4.5 -12.0 -4.65 -13.4 -4.9 -13.6 -5.2 -13.7 -5.5 -13.7 -5.8 -13.55 -6.1 -13.4 -6.3 -13.2 -6.35 -12.0 -6.55 -10.8 -6.6 -10.1 -6.4 -9.6 -6.3 7.3 -6.6 8.0 -6.8" fill="#663366" fill-opacity="0.101960786" fill-rule="evenodd" stroke="none"/>
    <path d="M14.6 -0.2 L15.0 0.1 15.4 0.4 15.6 0.7 15.7 1.0 15.7 1.3 15.6 1.6 15.5 1.9 15.2 2.2 14.9 2.4 13.2 2.5 11.1 2.6 10.4 2.8 Q0.85 3.65 -8.8 3.1 L-9.5 2.9 -10.0 2.7 -11.6 2.6 -12.2 2.4 -12.6 2.1 -13.1 1.8 -13.3 1.5 -13.3 1.2 -13.3 0.9 -13.3 0.6 -13.2 0.3 -13.0 0.1 -12.8 0.0 -12.4 -0.1 -11.9 0.1 -11.7 0.4 -10.4 0.6 -9.6 0.8 -9.2 0.9 7.5 0.7 Q10.35 0.05 13.3 -0.25 L14.0 -0.4 14.6 -0.2" fill="#663366" fill-opacity="0.101960786" fill-rule="evenodd" stroke="none"/>
    <path d="M14.7 7.6 L14.8 7.9 14.75 8.2 14.6 8.5 14.5 8.8 14.2 9.1 13.8 9.4 13.2 9.6 11.4 9.8 10.8 10.0 7.4 10.2 6.8 10.4 -10.4 9.8 -11.1 9.6 -12.0 9.25 -12.6 9.0 -14.0 8.75 -14.6 8.6 -14.85 8.3 -15.0 8.0 -14.85 7.7 -14.6 7.4 -14.0 7.2 -12.8 7.1 Q-3.3 9.1 6.5 7.8 L7.2 7.6 10.1 7.4 12.5 6.95 13.2 6.8 13.6 6.8 14.2 7.0 14.5 7.3 14.7 7.6" fill="#663366" fill-opacity="0.101960786" fill-rule="evenodd" stroke="none"/>
    <path d="M8.3 -9.3 L8.7 -9.0 8.9 -8.7 9.0 -8.4 9.1 -8.1 9.1 -7.8 9.0 -7.5 8.8 -7.2 8.6 -6.9 8.2 -6.6 7.9 -6.4 7.7 -6.35 6.5 -6.15 3.2 -5.9 2.5 -6.1 2.1 -6.3 1.9 -6.4 1.3 -6.6 1.0 -6.9 0.8 -7.2 0.8 -7.5 0.8 -7.8 0.8 -8.1 0.85 -8.4 1.0 -8.7 1.3 -9.0 2.0 -9.3 2.3 -9.5 3.0 -9.7 3.5 -9.9 4.0 -9.95 4.0 -10.0 6.0 -10.0 6.6 -9.8 6.9 -9.6 7.6 -9.5 8.3 -9.3" fill="#663366" fill-opacity="0.101960786" fill-rule="evenodd" stroke="none"/>
    <path d="M4.1 -3.8 L4.4 -4.0 4.6 -4.1 5.4 -4.3 5.8 -4.5 6.4 -4.55 6.4 -4.6 8.8 -4.6 9.6 -4.4 10.0 -4.1 10.3 -3.8 10.4 -3.5 10.5 -3.2 10.6 -2.9 10.6 -2.6 10.5 -2.3 10.4 -2.0 10.4 -1.7 10.4 -1.4 10.4 -1.1 10.3 -0.8 10.2 -0.5 10.1 -0.2 9.9 0.1 9.6 0.4 9.3 0.7 8.8 1.0 7.7 1.2 7.3 1.4 6.8 1.45 4.0 1.5 3.3 1.3 2.9 1.0 2.6 0.7 2.4 0.4 2.3 0.1 2.2 -0.2 2.2 -0.5 2.2 -0.8 2.2 -1.1 2.2 -1.7 2.25 -2.0 2.4 -2.3 2.95 -2.85 3.8 -3.5 4.1 -3.8" fill="#663366" fill-opacity="0.101960786" fill-rule="evenodd" stroke="none"/>
    <path d="M11.2 5.1 L11.7 5.4 11.9 5.7 12.1 6.0 12.2 6.3 12.3 6.6 12.3 6.9 12.3 7.2 12.3 7.5 12.3 7.8 12.2 8.1 12.1 8.4 11.9 8.7 11.7 9.0 11.2 9.25 10.4 9.6 10.1 9.9 9.8 10.2 9.4 10.5 9.0 10.7 8.4 10.8 6.2 11.15 2.0 11.4 1.1 11.2 0.6 10.9 0.3 10.6 0.1 10.3 -0.1 10.0 -0.2 9.7 -0.2 9.4 -0.2 9.1 -0.2 8.8 -0.2 8.5 -0.1 8.2 0.0 7.9 0.15 7.6 0.4 7.3 0.7 7.0 1.0 6.7 2.0 5.8 2.3 5.5 2.9 5.2 3.5 4.9 4.4 4.75 4.4 4.7 8.4 4.75 10.4 4.95 11.2 5.1" fill="#663366" fill-opacity="0.101960786" fill-rule="evenodd" stroke="none"/>
    <path d="M10.6 7.0 L10.7 7.3 10.8 7.6 10.9 7.9 11.0 8.2 11.0 8.5 11.0 8.8 10.9 9.1 10.8 9.4 10.6 9.7 10.4 10.0 10.2 10.3 9.7 10.6 9.4 10.8 9.0 10.9 8.0 11.0 6.2 11.1 5.7 11.4 4.8 11.6 -1.35 11.4 Q-2.75 11.0 -4.0 10.1 L-4.2 9.8 -4.5 9.5 -4.6 9.2 -4.8 8.9 -4.8 8.6 -4.9 8.3 -4.9 8.0 -4.9 7.7 -4.9 7.1 -4.85 6.5 -4.8 6.2 -4.8 5.9 -4.6 5.6 -4.4 5.3 -4.1 5.0 -3.8 4.7 -3.5 4.4 -3.2 4.2 -3.0 4.1 -2.6 4.0 -2.0 3.95 -2.0 3.9 Q1.4 3.9 4.8 4.05 6.4 4.1 7.7 5.1 L7.9 5.4 8.4 5.7 9.0 5.9 9.6 6.1 10.0 6.4 10.3 6.7 10.6 7.0" fill="#663366" fill-opacity="0.101960786" fill-rule="evenodd" stroke="none"/>
    <path d="M0.8 -5.0 L2.8 -4.95 4.2 -4.75 4.8 -4.6 5.3 -4.3 5.6 -4.0 5.9 -3.7 6.1 -3.4 6.2 -3.1 6.3 -2.8 6.4 -2.5 6.4 -2.2 6.4 -1.9 6.4 -1.6 6.4 -1.3 6.4 -1.0 6.3 -0.7 6.15 -0.4 5.75 0.15 5.1 0.8 3.6 1.7 2.8 1.9 0.4 1.85 -2.1 1.6 -2.6 1.3 -2.9 1.0 -3.5 0.7 -3.9 0.4 -4.2 0.1 -4.4 -0.2 -4.5 -0.5 -4.6 -0.8 -4.6 -1.1 -4.6 -1.4 -4.6 -1.7 -4.6 -2.0 -4.5 -2.3 -4.4 -2.6 -4.2 -2.9 -3.9 -3.2 -3.6 -3.5 -3.3 -3.8 -2.6 -4.1 -2.1 -4.3 -1.8 -4.4 -1.1 -4.6 -0.6 -4.8 0.0 -4.85 0.8 -4.95 0.8 -5.0" fill="#663366" fill-opacity="0.101960786" fill-rule="evenodd" stroke="none"/>
    <path d="M10.0 -9.4 L10.1 -9.1 10.2 -8.8 10.3 -8.5 10.3 -8.2 10.2 -7.9 10.1 -7.6 9.9 -7.3 9.7 -7.0 9.3 -6.7 8.9 -6.4 8.4 -6.1 7.6 -5.9 6.7 -5.65 6.2 -5.55 5.3 -5.3 4.4 -5.1 -2.4 -5.3 -3.3 -5.4 -3.9 -5.7 -4.4 -6.0 -4.7 -6.3 -4.95 -6.6 -5.1 -6.9 -5.2 -7.2 -5.2 -7.5 -5.2 -7.8 -5.2 -8.1 -5.1 -8.4 -5.0 -8.7 -4.8 -9.0 -4.6 -9.3 -4.3 -9.6 -4.0 -9.9 -3.6 -10.1 -3.4 -10.2 -2.6 -10.4 -2.2 -10.6 -1.6 -10.65 -1.6 -10.7 0.8 -10.7 2.0 -10.7 4.0 -10.55 4.8 -10.4 5.2 -10.2 6.0 -10.2 7.1 -10.35 8.0 -10.5 8.8 -10.3 9.4 -10.0 9.8 -9.7 10.0 -9.4" fill="#663366" fill-opacity="0.101960786" fill-rule="evenodd" stroke="none"/>
    <path d="M8.8 -10.9 L9.6 -10.7 10.4 -10.5 11.0 -10.3 11.3 -10.0 11.5 -9.7 11.55 -9.4 11.7 -9.1 12.0 -8.8 12.3 -8.5 12.5 -8.2 12.6 -7.9 12.7 -7.6 12.8 -7.3 12.8 -7.0 12.8 -6.7 12.8 -6.4 12.8 -6.1 12.8 -5.8 12.8 -5.5 12.7 -5.2 12.6 -4.9 12.5 -4.6 12.4 -4.3 12.4 -4.0 12.4 -3.7 12.4 -3.4 12.4 -3.1 12.4 -2.8 12.3 -2.5 12.4 -2.2 12.5 -1.9 12.6 -1.6 12.6 -1.3 12.6 -0.7 12.5 -0.1 12.5 0.5 12.4 1.1 12.2 1.4 11.85 1.95 11.3 2.6 10.8 3.2 11.35 3.75 12.05 4.7 12.5 5.6 12.8 6.2 12.9 6.5 12.9 6.8 12.9 7.1 12.9 7.4 12.8 7.7 12.7 8.0 12.6 8.3 12.4 8.6 12.2 8.9 11.8 9.2 10.7 9.8 9.8 10.3 9.4 10.4 8.7 10.6 8.2 10.8 1.2 10.6 0.8 10.3 0.5 10.0 0.2 9.7 0.1 9.4 0.0 9.1 -0.1 8.8 -0.1 8.5 -0.15 8.25 -0.4 7.9 -0.7 7.6 -1.0 7.3 -1.1 7.0 -1.2 6.7 -1.3 6.4 -1.3 5.8 -1.3 4.9 -1.3 4.3 -1.25 3.4 -1.2 3.1 -1.0 2.8 -0.9 2.5 -0.8 2.2 -0.7 1.9 -0.5 1.6 -0.2 1.3 -0.15 1.0 -0.1 0.4 -0.1 -0.2 -0.1 -0.8 0.0 -1.7 0.2 -2.0 0.3 -2.3 0.5 -2.6 0.6 -2.9 0.9 -3.2 1.2 -3.5 1.6 -3.8 1.9 -4.1 1.95 -4.4 2.1 -5.0 2.3 -5.6 2.4 -5.9 2.5 -6.2 2.65 -6.5 2.9 -6.8 3.1 -7.1 3.2 -7.4 3.2 -7.7 3.4 -8.0 3.6 -8.3 3.9 -8.6 4.2 -8.9 4.6 -9.1 5.0 -9.2 5.7 -9.4 6.1 -9.7 6.3 -10.0 6.6 -10.3 7.0 -10.6 7.3 -10.8 7.5 -10.85 8.0 -10.95 8.0 -11.0 8.8 -10.9" fill="#663366" fill-opacity="0.101960786" fill-rule="evenodd" stroke="none"/>
    <path d="M0.6 -9.5 L-0.2 -9.45 -0.95 -9.4 -1.2 -9.35 -2.2 -9.1 -4.2 -8.85 -6.5 -8.7 -7.4 -8.7 -9.8 -8.55 -10.2 -8.65 -10.4 -8.8 -11.05 -8.8 -11.05 -8.65 -11.0 -8.5 -10.95 -8.35 -10.9 -8.2 -10.85 -8.05 -10.85 -7.9 -10.85 -7.75 -10.85 -7.6 -10.75 -6.85 -10.75 -6.4 -10.75 -5.95 -10.7 -5.05 -10.65 -4.15 -10.6 -2.95 -10.65 -2.5 -10.6 -2.35 -10.6 -2.2 -10.6 -2.05 -10.65 -1.9 -10.7 -1.75 -10.75 -1.6 -10.85 -1.45 -10.95 -1.3 -11.0 -1.15 -11.05 -1.0 -11.05 -0.85 -11.1 -0.7 -11.15 -0.55 -11.25 -0.4 -11.25 -0.25 -11.35 -0.1 -11.4 0.05 -11.5 0.2 -11.7 0.5 -11.75 0.65 -11.8 0.8 -11.9 0.95 -12.0 1.1 -12.05 1.25 -12.2 1.4 -12.3 1.55 -12.35 1.7 -12.45 1.85 -12.6 2.15 -12.6 2.3 -12.65 2.45 -12.7 2.6 -12.75 2.75 -12.85 2.9 -12.9 3.05 -13.0 3.2 -13.1 3.35 -13.3 3.65 -13.4 3.8 -13.4 3.95 -13.4 4.1 -13.4 4.25 -13.4 4.4 -13.4 4.85 -13.4 5.0 -13.4 5.15 -13.4 5.3 -13.45 5.45 -13.5 5.6 -13.55 5.75 -13.6 5.9 -13.6 6.05 -13.6 6.2 -13.6 6.35 -13.6 6.5 -13.55 6.65 -13.55 6.8 -13.45 6.95 -13.4 7.1 -13.35 7.25 -13.35 7.4 -13.35 7.55 -13.35 7.7 -13.35 7.85 -13.35 8.0 -13.35 8.15 -13.25 8.3 -13.2 8.45 -13.2 8.6 -13.2 8.75 -13.25 8.9 -13.35 9.05 -13.4 9.2 -13.55 9.35 -13.75 9.5 -13.95 9.65 -14.1 9.75 -14.3 9.8 -14.6 9.85 -14.9 9.8 -15.2 9.7 -15.4 9.55 -15.55 9.4 -15.7 9.25 -15.75 9.1 -15.8 8.95 -15.85 8.8 -15.85 8.65 -15.85 8.5 -15.85 8.35 -15.85 8.2 -15.85 8.05 -15.85 7.9 -15.95 7.75 -16.0 7.6 -16.05 7.45 -16.05 7.3 -16.05 7.15 -16.05 6.7 -16.0 6.4 -16.0 6.25 -16.0 5.8 -16.0 5.65 -16.0 5.5 -16.0 5.2 -15.95 5.05 -15.9 4.9 -15.85 4.75 -15.8 4.6 -15.8 4.45 -15.8 4.3 -15.8 4.15 -15.8 4.0 -15.8 3.55 -15.8 3.4 -15.8 3.25 -15.75 2.95 -15.65 2.8 -15.55 2.65 -15.5 2.5 -15.4 2.35 -15.2 2.05 -15.0 1.75 -14.95 1.6 -14.9 1.45 -14.85 1.3 -14.75 1.15 -14.65 1.0 -14.55 0.85 -14.5 0.7 -14.5 0.55 -14.4 0.4 -14.3 0.25 -14.15 0.1 -14.0 -0.05 -13.95 -0.2 -13.9 -0.35 -13.85 -0.5 -13.75 -0.65 -13.7 -0.8 -13.65 -0.95 -13.6 -1.1 -13.6 -1.25 -13.55 -1.4 -13.5 -1.55 -13.4 -1.7 -13.35 -1.85 -13.35 -2.0 -13.35 -2.15 -13.35 -2.6 -13.35 -2.9 -13.35 -3.05 -13.35 -3.35 -13.35 -3.65 -13.35 -3.8 -13.3 -3.95 -13.25 -4.1 -13.2 -4.25 -13.15 -4.4 -13.1 -4.7 -13.1 -4.85 -13.0 -5.0 -12.9 -5.15 -12.9 -5.3 -12.9 -5.45 -12.9 -5.6 -12.9 -6.05 -12.85 -6.35 -12.85 -6.5 -12.85 -6.95 -12.85 -7.1 -12.85 -7.25 -12.8 -7.55 -12.8 -7.7 -12.9 -7.85 -12.95 -8.0 -12.95 -8.15 -12.95 -8.3 -12.95 -8.75 -12.95 -9.05 -12.95 -9.2 Q-12.85 -9.4 -12.9 -9.65 L-12.9 -9.8 -12.9 -9.95 -12.9 -10.25 -12.85 -10.4 -12.7 -10.55 -12.55 -10.7 -12.4 -10.8 -12.3 -10.85 -12.0 -10.85 -12.0 -10.9 -11.6 -10.85 -9.6 -10.7 -7.4 -10.65 -7.0 -10.55 -6.8 -10.4 -6.7 -10.35 -6.5 -10.3 -6.2 -10.3 -3.6 -10.4 -1.95 -10.55 -1.2 -10.65 -0.95 -10.6 -0.2 -10.55 0.7 -10.6 1.2 -10.65 1.4 -10.6 1.6 -10.55 1.85 -10.45 2.0 -10.3 2.0 -10.15 1.9 -10.0 1.8 -9.9 1.6 -9.85 1.25 -9.75 0.85 -9.6 0.6 -9.5" fill="#ffffff" fill-opacity="0.2" fill-rule="evenodd" stroke="none"/>
    <path d="M-11.0 -6.5 L-8.65 -6.3 -5.6 -6.15 -2.15 -5.6 -1.85 -5.5 -1.9 -5.35 -2.0 -5.2 -2.2 -5.1 -4.8 -4.75 -6.6 -4.7 -10.2 -4.8 -10.6 -4.7 -11.0 -4.7 -11.6 -4.75 -12.0 -4.85 -12.2 -5.0 -12.35 -5.15 -12.4 -5.3 -12.45 -5.45 -12.45 -5.6 -12.45 -5.75 -12.4 -5.9 -12.35 -6.05 -12.2 -6.2 -12.0 -6.35 -11.6 -6.45 -11.0 -6.5" fill="#ffffff" fill-opacity="0.2" fill-rule="evenodd" stroke="none"/>
    <path d="M-3.9 2.65 L-10.4 3.05 -11.4 3.05 -11.7 3.0 -12.1 2.9 -14.0 3.0 -14.45 2.9 -14.65 2.75 -14.9 2.45 -14.95 2.3 -15.0 2.15 -15.0 1.85 -15.0 1.7 -15.0 1.55 -14.95 1.4 -14.7 1.1 -14.55 0.95 -14.3 0.85 -14.0 0.85 -14.0 0.8 -13.6 0.9 -13.4 1.0 -7.0 1.5 -5.75 1.5 -3.9 1.75 -3.4 1.8 -2.7 1.95 -2.45 2.1 -2.5 2.25 -2.6 2.4 -2.8 2.5 -3.2 2.55 -3.9 2.65" fill="#ffffff" fill-opacity="0.2" fill-rule="evenodd" stroke="none"/>
    <path d="M-9.95 3.0 L-9.9 3.15 -9.85 3.3 -9.85 3.45 -9.85 3.6 -9.85 3.9 -9.85 4.2 -9.85 4.5 -9.9 4.8 -9.9 4.95 -10.0 5.1 -10.05 5.25 -10.2 5.4 -10.3 5.55 -10.65 5.85 -11.0 6.15 -11.35 6.4 -11.5 6.45 -13.2 6.5 -13.65 6.4 -13.9 6.25 -14.1 6.1 -14.55 5.8 -14.8 5.5 -14.85 5.35 -14.9 5.2 -14.9 4.75 -14.9 4.3 -14.85 3.7 -14.85 2.8 -14.85 2.65 -14.8 2.5 -14.75 2.35 -14.7 2.2 -14.6 2.05 -14.55 1.9 -14.45 1.75 -14.3 1.45 -14.2 1.3 -14.05 1.15 -13.85 1.05 -13.7 1.0 -13.4 1.0 -13.4 0.95 -12.6 0.95 -12.2 1.05 -11.95 1.2 -11.75 1.35 -11.6 1.5 -11.25 1.65 -11.05 1.8 -10.85 1.95 -10.5 2.25 -10.2 2.55 -10.0 2.85 -9.95 3.0" fill="#ffffff" fill-opacity="0.2" fill-rule="evenodd" stroke="none"/>
    <path d="M-11.0 -5.8 L-10.6 -5.7 -10.35 -5.6 -10.25 -5.55 -10.0 -5.55 -9.7 -5.45 -9.55 -5.3 -9.5 -5.15 -9.45 -5.0 -9.5 -4.85 -9.55 -4.7 -9.6 -4.55 -9.65 -4.4 -9.65 -4.25 -9.65 -4.1 -9.65 -3.8 -9.65 -3.65 -9.65 -3.35 -9.65 -3.05 -9.7 -2.9 -9.75 -2.75 -9.8 -2.6 -9.9 -2.45 -10.05 -2.3 -10.2 -2.15 -10.4 -2.0 -10.8 -1.9 -11.1 -1.95 -11.3 -2.0 -11.4 -2.05 -12.0 -2.1 -12.6 -2.15 -13.05 -2.25 -13.3 -2.4 -13.45 -2.55 -13.55 -2.7 -13.6 -2.85 -13.65 -3.0 -13.65 -3.15 -13.65 -3.45 -13.65 -3.6 -13.6 -3.75 -13.6 -4.05 -13.55 -4.2 -13.45 -4.35 -13.4 -4.5 -13.4 -4.65 -13.4 -4.8 -13.35 -4.95 -13.3 -5.1 -13.15 -5.25 -13.0 -5.4 -12.75 -5.55 -12.45 -5.7 -12.0 -5.75 -12.0 -5.8 -11.0 -5.8" fill="#ffffff" fill-opacity="0.2" fill-rule="evenodd" stroke="none"/>
    <path d="M-10.8 -11.3 L-10.65 -11.25 -10.65 -11.15 -10.6 -11.1 -10.65 -11.05 -10.65 -10.95 -10.75 -10.9 -10.8 -10.8 -11.05 -10.65 -11.3 -10.5 -11.45 -10.35 -11.6 -10.2 -11.75 -10.05 -11.8 -10.0 -11.85 -9.8 -11.95 -9.7 -11.95 -9.6 -12.0 -9.5 -12.0 -9.45 -11.95 -9.35 -12.0 -9.3 -12.0 -9.2 -12.05 -9.15 -12.0 -8.8 -12.0 -8.55 -12.05 -8.3 -12.0 -8.0 -12.0 -7.9 -11.95 -7.8 -11.9 -7.75 -11.8 -7.65 -11.75 -7.6 -11.75 -7.5 -11.75 -7.45 -11.7 -7.35 -11.7 -7.3 -11.7 -7.2 -11.7 -7.15 -11.75 -7.1 -11.75 -7.0 -11.8 -6.9 -11.9 -6.85 -12.1 -6.8 -12.3 -6.85 -12.4 -6.95 -12.45 -7.0 -12.55 -7.15 -12.6 -7.25 -12.6 -7.3 -12.65 -7.35 -12.65 -7.45 -12.7 -7.6 -12.75 -7.75 -12.75 -7.8 -12.75 -8.2 -12.75 -8.5 -12.75 -8.8 -12.75 -9.15 -12.7 -9.25 -12.65 -9.3 -12.65 -9.4 -12.6 -9.45 -12.6 -9.55 -12.6 -9.6 -12.6 -9.7 -12.4 -10.15 -12.15 -10.45 -11.75 -10.8 -11.6 -10.95 -11.3 -11.1 -11.05 -11.15 -10.9 -11.25 -10.8 -11.3" fill="#333333" fill-rule="evenodd" stroke="none"/>
    <path d="M8.6 -10.5 L6.6 -10.45 6.4 -10.4 3.3 -10.35 3.1 -10.3 0.3 -10.25 0.1 -10.2 -3.4 -10.2 -3.6 -10.25 -5.4 -10.3 -5.55 -10.35 -6.3 -10.45 -6.9 -10.6 -7.7 -10.65 -7.85 -10.7 -9.5 -10.8 -11.2 -10.9 -11.3 -10.95 -11.4 -11.05 -11.4 -11.15 -11.3 -11.25 -11.2 -11.3 -11.0 -11.3 -9.5 -11.4 -8.9 -11.4 -7.9 -11.4 -7.7 -11.35 -7.3 -11.35 -7.1 -11.35 -6.9 -11.3 -6.6 -11.25 -6.4 -11.2 -5.6 -11.15 -5.4 -11.1 -4.5 -11.1 -3.5 -11.1 -3.3 -11.05 0.1 -11.05 0.3 -11.1 3.1 -11.15 3.3 -11.2 6.4 -11.25 6.6 -11.3 8.5 -11.35 8.7 -11.4 10.6 -11.4 10.8 -11.35 11.0 -11.3 11.2 -11.3 11.55 -11.2 11.7 -11.15 11.9 -11.1 12.0 -11.05 12.15 -10.95 12.2 -10.85 12.2 -10.8 12.25 -10.7 12.35 -10.65 12.4 -10.55 12.45 -10.5 12.5 -10.4 12.55 -10.35 12.6 -10.25 12.6 -10.2 12.65 -10.1 12.65 -10.05 12.7 -10.0 12.75 -9.9 12.8 -9.8 12.8 -9.75 12.8 -9.65 12.8 -9.6 12.85 -9.5 12.85 -9.45 12.9 -9.35 12.9 -9.3 12.95 -9.2 12.95 -9.15 12.95 -9.05 12.95 -9.0 12.95 -8.85 12.95 -8.75 12.95 -8.6 12.95 -8.55 12.95 -8.45 12.95 -8.4 12.95 -8.3 12.9 -8.25 12.9 -8.15 12.85 -8.1 12.85 -8.0 12.8 -7.95 12.8 -7.85 12.8 -7.8 12.75 -7.7 12.75 -7.65 12.75 -7.55 12.7 -7.5 12.7 -7.4 12.6 -7.35 12.55 -7.25 12.5 -7.2 12.45 -7.15 12.4 -7.05 12.35 -6.95 12.2 -6.9 12.1 -6.8 12.0 -6.75 11.95 -6.7 11.85 -6.7 11.7 -6.65 11.55 -6.7 11.4 -6.7 11.25 -6.8 11.2 -6.9 11.15 -6.95 11.1 -7.0 11.1 -7.1 11.1 -7.15 11.1 -7.25 11.1 -7.3 11.1 -7.4 11.15 -7.45 11.2 -7.55 11.25 -7.6 11.35 -7.7 11.4 -7.75 11.6 -7.9 11.65 -8.0 11.7 -8.1 11.75 -8.15 11.75 -8.25 11.8 -8.3 11.8 -8.35 11.85 -8.45 11.9 -8.5 11.9 -8.6 11.9 -8.65 11.9 -8.75 11.9 -8.8 11.9 -8.9 11.85 -8.95 11.85 -9.05 11.8 -9.1 11.8 -9.2 11.8 -9.25 11.8 -9.35 11.8 -9.4 11.75 -9.5 11.75 -9.55 11.7 -9.65 11.7 -9.7 11.65 -9.8 11.6 -9.85 11.6 -9.95 11.55 -10.0 11.5 -10.1 11.45 -10.15 11.4 -10.25 11.25 -10.3 11.1 -10.35 10.9 -10.4 10.85 -10.45 10.7 -10.5 10.5 -10.55 8.8 -10.55 8.6 -10.5" fill="#333333" fill-rule="evenodd" stroke="none"/>
    <path d="M8.0 -6.8 L8.4 -6.85 8.55 -6.95 8.7 -6.95 8.8 -7.0 9.0 -7.05 9.1 -7.1 10.55 -7.15 10.6 -7.25 10.7 -7.3 10.8 -7.35 11.1 -7.45 11.2 -7.5 11.3 -7.55 11.6 -7.6 11.7 -7.65 11.8 -7.65 11.95 -7.6 12.0 -7.55 12.05 -7.45 12.1 -7.4 12.1 -7.3 12.1 -7.25 12.1 -7.15 12.05 -7.1 11.95 -7.0 11.8 -6.95 11.5 -6.85 11.45 -6.8 11.3 -6.75 11.0 -6.65 10.9 -6.6 10.8 -6.55 10.75 -6.5 9.25 -6.4 9.1 -6.35 8.8 -6.35 8.4 -6.25 7.95 -6.2 7.7 -6.15 7.1 -6.0 2.9 -6.2 2.8 -6.2 2.65 -6.3 7.8 -6.7 7.9 -6.75 8.0 -6.8" fill="#333333" fill-rule="evenodd" stroke="none"/>
    <path d="M-12.75 -7.4 L-12.65 -7.5 -12.5 -7.55 -12.3 -7.55 -11.7 -7.5 -11.55 -7.45 -11.4 -7.4 -11.25 -7.35 -11.15 -7.35 -11.05 -7.25 -10.7 -7.2 -10.55 -7.15 -10.45 -7.15 -10.35 -7.05 -10.25 -7.0 -3.5 -6.5 -2.6 -6.5 -2.0 -6.4 -1.9 -6.4 -1.8 -6.35 -1.75 -6.25 Q-5.3 -5.7 -8.9 -6.2 L-10.1 -6.25 -10.25 -6.35 -10.4 -6.4 -11.25 -6.7 -11.85 -6.8 -12.3 -6.85 -12.5 -6.85 -12.65 -6.9 -12.75 -6.95 -12.8 -7.05 -12.85 -7.1 -12.85 -7.2 -12.85 -7.25 -12.8 -7.35 -12.75 -7.4" fill="#333333" fill-rule="evenodd" stroke="none"/>
    <path d="M-11.6 -7.35 L-11.55 -7.3 -11.5 -7.2 -11.75 -6.7 -12.15 -6.15 -12.45 -5.7 -12.45 -5.65 -12.5 -5.55 -12.5 -5.5 -12.55 -5.4 -12.6 -5.35 -12.65 -5.25 -12.7 -5.1 -12.75 -4.9 -12.8 -4.7 -12.85 -4.5 -12.85 -4.45 -12.85 -4.35 -12.85 -4.3 -12.9 -4.2 -12.9 -4.15 -12.95 -4.0 -13.0 -3.95 -13.0 -3.85 -13.2 -3.35 -13.3 -2.8 -13.45 -2.25 -13.5 -2.1 -13.5 -1.8 -13.5 -1.45 -13.5 -1.15 -13.5 -1.0 -13.45 -0.95 -13.4 -0.85 -13.4 -0.75 -13.35 -0.7 -13.35 -0.6 -13.3 -0.55 -13.3 -0.45 -13.25 -0.4 -13.25 -0.3 -13.2 -0.25 -13.15 -0.15 -13.15 -0.1 -13.1 0.0 -13.1 0.05 -13.1 0.1 -13.1 0.2 -13.15 0.35 -13.2 0.4 -13.25 0.5 -13.4 0.6 -13.6 0.65 -13.8 0.6 -13.95 0.5 -14.0 0.45 -14.15 0.25 -14.25 0.1 -14.3 0.05 -14.3 -0.05 -14.3 -0.15 -14.35 -0.25 -14.35 -0.3 -14.4 -0.4 -14.4 -0.45 -14.45 -0.55 -14.45 -0.6 -14.5 -1.15 -14.5 -1.75 -14.45 -2.35 -14.4 -2.5 -14.35 -2.55 -14.3 -2.9 -14.2 -3.25 -14.1 -3.6 -14.05 -3.75 -14.0 -3.85 -13.95 -3.9 -13.95 -4.0 -13.9 -4.05 -13.85 -4.15 -13.8 -4.45 -13.7 -4.85 -13.6 -5.2 -13.55 -5.35 -13.5 -5.4 -13.45 -5.5 -13.35 -5.65 -13.3 -5.7 -13.25 -5.8 -13.25 -5.85 -13.2 -5.95 -13.2 -6.0 -12.8 -6.55 -12.3 -7.15 -11.95 -7.45 -11.8 -7.5 -11.65 -7.45 -11.6 -7.35" fill="#333333" fill-rule="evenodd" stroke="none"/>
    <path d="M-14.1 -0.05 L-14.0 -0.1 -13.9 -0.05 -13.8 -0.05 -13.0 0.1 -12.15 0.3 -11.7 0.4 -4.8 1.05 -3.35 1.2 -2.2 1.1 -2.1 1.15 -2.0 1.2 -1.8 1.15 -1.6 1.1 -1.4 1.05 -1.1 1.0 -1.0 1.0 -0.95 1.05 -1.2 1.1 -1.5 1.2 -1.8 1.25 -1.9 1.3 -2.0 1.35 -2.05 1.4 -2.05 1.45 -3.15 1.6 -3.5 1.7 Q-7.85 1.9 -12.05 0.9 L-13.6 0.5 -13.85 0.4 -14.15 0.25 -14.2 0.2 -14.35 0.15 -14.35 0.1 -14.3 0.05 -14.2 -0.05 -14.1 -0.05" fill="#333333" fill-rule="evenodd" stroke="none"/>
    <path d="M-14.15 -0.1 L-14.05 -0.15 -14.0 -0.15 -13.9 -0.2 -13.8 -0.15 -13.65 -0.1 -13.55 -0.05 -13.55 0.0 -13.6 0.1 -13.75 0.2 -13.85 0.35 -14.0 0.5 -14.1 0.65 -14.15 0.7 -14.15 0.8 -14.2 0.85 -14.25 0.95 -14.25 1.0 -14.3 1.1 -14.35 1.25 -14.35 1.3 -14.4 1.4 -14.4 1.45 -14.45 1.55 -14.5 1.6 -14.55 1.7 -14.6 1.85 -14.65 1.9 -14.65 1.95 -14.7 2.15 -14.7 2.2 -14.75 2.3 -14.8 2.45 -14.8 2.55 -14.8 2.65 -14.85 2.7 -14.9 2.8 -14.95 2.95 -15.05 3.2 -15.05 3.35 -15.1 3.5 -15.25 4.6 -15.35 6.05 -15.35 7.4 -15.3 7.6 -15.3 7.85 -15.2 8.15 -15.1 8.35 -15.05 8.45 -15.05 8.5 -15.05 8.6 -15.0 8.65 -15.0 8.75 -14.95 8.8 -14.9 8.9 -14.9 8.95 -14.9 9.05 -14.85 9.1 -14.8 9.2 -14.75 9.25 -14.8 9.3 -14.8 9.4 -14.8 9.5 -14.9 9.55 -14.95 9.6 -15.1 9.65 -15.25 9.6 -15.35 9.5 -15.4 9.45 -15.5 9.35 -15.6 9.3 -15.65 9.2 -15.7 9.1 -15.8 9.0 -15.85 8.9 -15.9 8.8 -15.95 8.75 -15.95 8.7 -16.0 8.6 -16.0 8.55 -16.05 8.45 -16.25 7.15 -16.2 5.6 -16.05 4.1 -16.0 4.05 -16.0 3.95 -15.95 3.9 -15.95 3.65 -15.95 3.4 -15.85 3.15 -15.8 2.9 -15.75 2.85 -15.7 2.75 -15.7 2.7 -15.65 2.55 -15.6 2.45 -15.6 2.4 -15.55 2.3 -15.5 2.25 -15.5 2.15 -15.45 2.0 -15.45 1.95 -15.4 1.85 -15.35 1.7 -15.35 1.65 -15.25 1.55 -15.25 1.5 -15.2 1.4 -15.15 1.25 -15.1 1.2 -15.05 1.1 -15.0 1.05 -14.95 0.95 -14.95 0.9 -14.9 0.8 -14.85 0.75 -14.85 0.65 -14.75 0.5 -14.6 0.35 -14.5 0.2 -14.4 0.15 -14.3 0.05 -14.25 -0.05 -14.15 -0.1" fill="#333333" fill-rule="evenodd" stroke="none"/>
    <path d="M11.15 -6.65 L11.15 -6.75 11.15 -6.85 11.2 -6.9 11.25 -7.0 11.3 -7.05 11.35 -7.15 11.45 -7.2 11.6 -7.2 11.8 -7.15 11.9 -7.1 11.95 -7.0 12.0 -6.95 12.65 -6.35 13.25 -5.7 13.7 -5.0 13.7 -4.9 13.75 -4.85 13.75 -4.75 13.8 -4.7 13.85 -4.6 13.85 -4.55 13.9 -4.45 13.95 -4.4 14.0 -4.3 14.0 -4.25 14.0 -4.15 14.05 -4.0 14.1 -3.95 14.1 -3.85 14.1 -3.4 14.1 -2.9 14.15 -2.3 14.05 -1.75 14.0 -1.3 14.05 -0.8 14.05 -0.3 14.05 0.2 14.0 0.25 13.95 0.35 13.9 0.4 13.85 0.5 13.75 0.55 13.65 0.6 13.55 0.6 13.4 0.65 13.25 0.6 13.1 0.6 13.0 0.5 12.9 0.4 12.85 0.35 12.8 0.25 12.8 0.2 12.75 -0.4 12.75 -1.1 12.75 -1.8 12.9 -2.35 12.9 -2.8 12.9 -3.3 12.85 -3.9 12.7 -4.45 12.35 -5.05 11.85 -5.7 11.2 -6.55 11.15 -6.65" fill="#333333" fill-rule="evenodd" stroke="none"/>
    <path d="M13.6 -0.05 L13.75 -0.05 13.85 0.0 13.9 0.1 13.95 0.15 13.85 0.4 13.55 0.75 13.3 1.0 13.15 1.05 13.1 1.1 12.9 1.15 12.35 1.35 6.8 1.95 4.1 1.9 4.0 1.85 3.9 1.75 3.9 1.65 4.0 1.55 4.1 1.5 10.4 1.05 12.35 0.5 12.8 0.4 12.9 0.35 12.95 0.25 13.1 0.2 13.2 0.1 13.3 0.05 13.4 0.0 13.5 -0.05 13.6 -0.05" fill="#333333" fill-rule="evenodd" stroke="none"/>
    <path d="M13.2 -0.1 L13.4 -0.05 13.5 0.05 13.55 0.1 13.6 0.2 13.7 0.25 14.2 0.65 14.6 1.0 14.9 1.45 14.95 1.55 15.0 1.6 15.0 1.7 15.05 1.75 15.1 1.85 15.1 1.9 15.15 2.0 15.15 2.05 15.15 2.15 15.2 2.2 15.2 2.3 15.25 2.35 15.3 2.6 15.3 2.8 15.25 3.0 15.3 3.35 15.3 3.5 15.35 3.55 15.4 3.65 15.4 3.7 15.4 3.8 15.45 3.85 15.5 3.95 15.5 4.0 15.5 4.15 15.55 4.3 15.6 4.4 15.6 4.45 15.6 4.55 15.6 4.6 15.65 4.7 15.65 4.75 15.7 4.85 15.7 4.9 15.75 5.0 15.75 5.05 15.8 5.15 15.85 5.6 15.85 6.1 15.85 6.75 15.85 7.4 15.75 7.7 15.7 7.9 15.6 8.2 15.5 8.5 15.45 8.65 15.4 8.75 15.4 8.8 15.35 8.9 15.35 8.95 15.3 9.05 15.3 9.1 15.25 9.2 15.2 9.25 15.15 9.35 15.1 9.4 15.05 9.5 14.9 9.55 14.7 9.6 14.5 9.55 14.4 9.45 14.3 9.4 14.25 9.35 14.2 9.25 14.2 9.2 14.1 9.1 14.1 9.05 14.05 8.95 14.05 8.8 14.05 8.65 14.05 8.6 14.05 8.45 14.1 8.3 14.1 8.2 14.15 8.15 14.2 8.05 14.25 8.0 14.25 7.9 14.3 7.85 14.3 7.75 14.35 7.7 14.35 7.6 14.35 7.55 14.35 7.45 14.4 7.4 14.4 7.3 14.45 7.25 14.5 7.15 14.55 7.1 14.6 6.8 14.6 6.45 14.6 6.1 14.6 5.65 14.6 5.6 14.55 5.5 14.5 5.45 14.5 5.35 14.5 5.3 14.45 5.2 14.4 5.15 14.4 5.05 14.4 4.95 14.4 4.85 14.4 4.75 14.35 4.7 14.35 4.6 14.3 4.55 14.3 4.45 14.3 4.4 14.25 4.3 14.25 4.25 14.2 4.15 14.2 4.0 14.15 3.85 14.15 3.8 14.1 3.7 14.1 3.5 14.1 3.25 14.15 3.05 14.15 2.8 14.15 2.65 14.1 2.6 14.1 2.5 14.05 2.45 14.05 2.35 14.05 2.3 14.05 2.2 14.05 2.15 14.05 2.05 13.9 1.85 13.8 1.6 13.6 1.35 13.45 1.25 13.35 1.15 13.2 1.1 13.15 1.0 13.0 0.85 12.9 0.7 12.85 0.6 12.8 0.55 12.8 0.45 12.8 0.35 12.8 0.25 12.85 0.2 12.85 0.1 12.9 0.05 13.0 -0.05 13.2 -0.1" fill="#333333" fill-rule="evenodd" stroke="none"/>
    <path d="M14.65 8.4 L14.75 8.3 14.9 8.15 15.05 8.0 15.1 7.95 15.15 7.85 15.2 7.8 15.3 7.8 15.45 7.85 15.5 7.9 15.5 8.0 15.55 8.05 15.5 8.15 15.55 8.2 15.55 8.3 15.6 8.35 15.6 8.4 15.6 8.5 15.55 8.6 15.5 8.65 15.5 8.75 15.45 8.8 15.45 8.85 15.4 8.95 15.4 9.05 15.35 9.1 15.2 9.35 15.0 9.6 14.9 9.8 14.75 9.85 14.6 9.95 14.55 10.0 14.45 10.0 14.25 10.05 14.1 10.15 14.05 10.2 13.95 10.2 13.75 10.25 13.6 10.35 13.55 10.4 13.45 10.4 13.25 10.45 13.15 10.5 12.95 10.55 12.85 10.6 11.35 10.95 11.25 11.0 9.5 11.25 6.6 11.3 5.5 11.45 4.0 11.5 3.8 11.55 -1.8 11.55 -8.7 10.9 -8.9 10.85 -10.4 10.8 -12.9 10.4 -13.5 10.1 -14.0 9.95 -14.1 9.9 -14.15 9.8 -14.75 9.55 -15.15 9.3 -15.3 9.25 -15.45 9.2 -15.5 9.15 -15.55 9.05 -15.6 8.95 -15.6 8.85 -15.45 8.75 -15.3 8.7 -15.2 8.75 -15.1 8.75 -14.5 8.9 -14.3 9.0 -13.45 9.25 -13.1 9.35 -13.0 9.4 -12.95 9.45 -11.0 9.75 -10.5 9.75 -10.3 9.8 -8.7 9.85 -8.5 9.9 -8.35 9.95 -8.1 10.0 -7.9 10.05 -7.8 10.1 -7.1 10.1 -5.5 10.25 -3.9 10.3 -2.0 10.4 -1.8 10.45 3.7 10.45 10.6 10.0 11.35 9.8 12.1 9.65 12.25 9.6 13.8 9.05 14.15 8.9 14.25 8.85 14.3 8.75 14.4 8.7 14.55 8.55 14.6 8.45 14.65 8.4" fill="#333333" fill-rule="evenodd" stroke="none"/>
    <path d="M8.8 -9.6 L8.9 -9.6 9.0 -9.65 9.1 -9.65 9.9 -9.65 10.0 -9.6 10.05 -9.55 10.05 -9.5 10.05 -9.4 10.0 -9.35 9.9 -9.3 9.0 -9.3 8.9 -9.25 8.25 -9.1 8.1 -9.0 7.85 -9.05 7.7 -9.15 7.7 -9.2 7.8 -9.3 7.9 -9.35 8.7 -9.55 8.8 -9.6" fill="#333333" fill-rule="evenodd" stroke="none"/>
    <path d="M10.0 -8.9 L10.3 -8.95 10.55 -9.05 10.8 -9.15 10.9 -9.15 10.95 -9.15 11.0 -9.1 10.95 -9.0 10.85 -8.95 10.75 -8.85 10.7 -8.8 10.6 -8.7 10.5 -8.65 9.5 -8.3 9.15 -8.15 8.8 -8.05 8.3 -8.05 8.2 -8.1 8.1 -8.15 8.0 -8.25 8.0 -8.35 8.1 -8.45 9.45 -8.75 10.0 -8.9" fill="#333333" fill-rule="evenodd" stroke="none"/>
    <path d="M9.3 -8.0 L9.6 -7.95 9.75 -7.9 9.75 -7.85 9.8 -7.75 9.85 -7.7 9.8 -7.65 9.7 -7.55 9.65 -7.6 9.25 -7.55 9.05 -7.5 8.7 -7.35 8.1 -7.35 8.0 -7.4 7.85 -7.45 7.8 -7.55 7.75 -7.6 7.8 -7.65 7.85 -7.75 8.75 -7.9 9.2 -7.95 9.3 -8.0" fill="#333333" fill-rule="evenodd" stroke="none"/>
    <path d="M8.4 -3.2 L8.45 -3.25 8.7 -3.35 9.5 -3.45 10.0 -3.5 10.4 -3.6 10.5 -3.65 10.7 -3.6 10.85 -3.55 10.9 -3.5 10.9 -3.4 10.9 -3.35 10.85 -3.3 10.85 -3.25 10.8 -3.2 10.1 -3.05 9.2 -2.85 8.7 -2.85 8.6 -2.9 8.45 -2.9 8.4 -3.0 8.4 -3.05 8.4 -3.15 8.4 -3.2" fill="#333333" fill-rule="evenodd" stroke="none"/>
    <path d="M10.1 -1.75 L10.2 -1.75 10.3 -1.8 10.4 -1.8 10.7 -1.8 10.85 -1.8 10.95 -1.8 11.0 -1.85 11.1 -1.85 11.35 -1.75 11.45 -1.7 11.65 -1.6 11.55 -1.6 11.45 -1.6 11.3 -1.6 11.0 -1.55 10.85 -1.45 10.8 -1.4 10.7 -1.4 10.4 -1.35 10.2 -1.3 10.0 -1.25 8.9 -1.35 8.65 -1.4 8.6 -1.5 8.6 -1.55 8.65 -1.6 8.7 -1.6 8.9 -1.65 9.2 -1.75 10.1 -1.75" fill="#333333" fill-rule="evenodd" stroke="none"/>
    <path d="M8.55 -0.1 L8.5 -0.2 8.55 -0.25 8.7 -0.35 8.8 -0.4 10.6 -0.5 10.9 -0.5 11.2 -0.45 11.55 -0.4 11.6 -0.3 11.6 -0.25 11.55 -0.2 11.3 -0.15 10.4 0.0 10.3 0.05 9.1 0.0 8.8 0.0 8.7 -0.05 8.55 -0.1" fill="#333333" fill-rule="evenodd" stroke="none"/>
    <path d="M10.25 2.85 L11.9 2.5 12.1 2.5 12.2 2.5 12.3 2.55 12.4 2.6 12.45 2.65 12.45 2.7 12.45 2.8 12.0 3.0 11.35 3.1 10.95 3.2 10.8 3.25 10.5 3.25 10.4 3.2 10.25 3.2 10.2 3.1 10.2 3.05 10.2 2.95 10.2 2.9 10.25 2.85" fill="#333333" fill-rule="evenodd" stroke="none"/>
    <path d="M12.4 4.1 L12.6 4.1 12.8 4.15 12.9 4.2 12.95 4.25 12.95 4.3 12.95 4.4 11.6 4.65 10.9 4.8 9.7 4.85 9.55 4.8 9.4 4.75 9.3 4.65 9.25 4.6 9.35 4.5 9.4 4.45 9.55 4.4 9.7 4.35 10.9 4.3 11.75 4.15 12.0 4.1 12.4 4.1" fill="#333333" fill-rule="evenodd" stroke="none"/>
  </g>
</svg>
