<?xml version="1.0" encoding="UTF-8" standalone="no"?>
<svg xmlns:xlink="http://www.w3.org/1999/xlink" height="5.55px" width="13.55px" xmlns="http://www.w3.org/2000/svg">
  <g transform="matrix(1.0, 0.0, 0.0, 1.0, 6.7, 2.65)">
    <path d="M6.0 -2.4 L6.15 -2.35 6.3 -2.25 6.35 -2.2 6.4 -2.1 6.55 -1.95 6.6 -1.9 6.65 -1.8 6.65 -1.75 6.65 -1.65 6.65 -1.6 6.75 -1.5 6.75 -1.45 6.8 -1.35 6.8 -1.3 6.85 -1.15 6.85 -1.05 6.85 -1.0 6.85 -0.85 6.85 -0.6 6.85 -0.4 6.8 -0.35 6.75 -0.25 6.75 -0.15 6.7 -0.1 6.7 0.0 6.65 0.05 6.65 0.15 6.6 0.2 6.55 0.25 6.5 0.35 6.4 0.4 6.25 0.5 6.2 0.6 6.1 0.65 5.95 0.8 5.9 0.9 5.75 0.95 5.35 1.15 5.1 1.3 4.6 1.5 4.15 1.8 3.0 2.35 1.8 2.85 1.75 2.85 0.0 2.9 -2.55 2.55 -5.2 1.85 -5.3 1.8 -5.5 1.75 -5.6 1.65 -5.7 1.6 -5.85 1.5 -5.9 1.4 -6.15 1.2 -6.2 1.15 -6.4 1.0 -6.6 0.75 -6.6 0.7 -6.6 0.6 -6.6 0.55 -6.6 0.45 -6.6 0.4 -6.55 0.3 -6.5 0.25 -6.55 0.15 -6.6 0.1 -6.6 0.0 -6.65 -0.05 -6.7 -0.15 -6.7 -0.2 -6.7 -0.35 -6.7 -0.45 -6.7 -0.5 -6.7 -0.6 -6.7 -0.65 -6.7 -0.75 -6.65 -0.8 -6.6 -0.9 -6.6 -1.0 -6.6 -1.1 -6.55 -1.2 -6.55 -1.25 -6.5 -1.35 -6.5 -1.45 -6.4 -1.55 -6.35 -1.65 -6.3 -1.7 -6.15 -1.9 -5.9 -2.1 -5.7 -2.15 -4.7 -2.15 -4.5 -2.1 -4.4 -2.05 -4.35 -2.05 -4.0 -2.0 -3.6 -1.9 -3.5 -1.85 -3.4 -1.75 -3.35 -1.7 -2.7 -1.6 -2.15 -1.45 -0.55 -1.2 1.35 -1.2 1.45 -1.3 1.65 -1.35 1.85 -1.45 1.95 -1.5 2.05 -1.6 2.45 -1.75 2.55 -1.8 3.0 -2.05 3.2 -2.15 3.45 -2.25 3.6 -2.3 3.9 -2.3 3.95 -2.4 4.05 -2.45 4.15 -2.55 4.3 -2.6 4.5 -2.65 5.1 -2.65 5.3 -2.6 5.4 -2.55 5.45 -2.5 5.8 -2.45 6.0 -2.4" fill="#658e65" fill-rule="evenodd" stroke="none"/>
  </g>
</svg>
