<?xml version="1.0" encoding="UTF-8" standalone="no"?>
<svg xmlns:xlink="http://www.w3.org/1999/xlink" height="8.5px" width="14.85px" xmlns="http://www.w3.org/2000/svg">
  <g transform="matrix(1.0, 0.0, 0.0, 1.0, 7.4, 3.85)">
    <path d="M2.4 -0.5 L2.5 -0.45 2.75 -0.6 3.4 -0.9 3.45 -0.95 3.55 -1.0 4.6 -1.1 4.7 -1.2 4.8 -1.25 4.9 -1.25 5.0 -1.25 5.2 -1.2 5.3 -1.15 5.3 -1.05 5.35 -1.0 5.35 -0.9 5.35 -0.85 5.35 -0.75 5.3 -0.7 5.25 -0.65 5.1 -0.5 4.95 -0.35 3.9 -0.25 3.7 -0.2 3.65 -0.15 3.45 -0.1 3.15 0.05 2.75 0.25 2.55 0.3 1.75 0.5 0.8 0.6 0.2 0.7 0.0 0.75 -0.8 0.75 -1.75 0.55 -2.85 0.3 -2.95 0.25 -3.0 0.15 -3.1 0.1 -4.7 -0.15 -5.2 -0.25 -5.3 -0.35 -5.3 -0.45 -5.2 -0.55 -4.7 -0.65 -4.0 -0.65 -2.6 -0.4 -2.0 -0.3 -0.75 -0.15 0.9 -0.2 1.6 -0.4 2.0 -0.55 2.2 -0.55 2.4 -0.5" fill="#663366" fill-opacity="0.101960786" fill-rule="evenodd" stroke="none"/>
    <path d="M6.3 -0.75 L6.65 -0.9 6.8 -0.9 6.9 -0.9 7.1 -0.85 7.2 -0.8 7.25 -0.7 7.3 -0.65 7.3 -0.55 7.35 -0.5 7.3 -0.45 7.3 -0.35 7.3 -0.25 7.2 -0.1 7.05 0.1 6.85 0.4 6.8 0.5 6.65 0.55 6.55 0.6 6.25 0.85 6.2 0.95 5.45 1.2 4.7 1.4 3.5 2.05 2.55 2.55 -2.8 2.1 -3.2 2.1 -4.3 1.8 -5.15 1.5 -5.2 1.4 -5.25 1.35 -5.25 1.25 -5.3 1.2 -5.35 1.1 -5.45 1.05 -5.5 0.95 -5.5 0.85 -5.45 0.75 -5.4 0.7 -5.3 0.7 -5.1 0.65 -4.8 0.65 -2.2 1.2 -0.25 1.45 3.25 0.8 4.4 0.45 4.45 0.35 4.55 0.3 4.65 0.25 4.8 0.15 4.85 0.1 4.95 0.05 5.1 0.0 5.3 0.05 5.4 0.05 5.5 0.0 5.6 -0.15 5.8 -0.4 6.05 -0.6 6.15 -0.7 6.3 -0.75" fill="#663366" fill-opacity="0.101960786" fill-rule="evenodd" stroke="none"/>
    <path d="M3.75 -3.75 L3.85 -3.8 3.9 -3.8 4.0 -3.85 4.2 -3.8 4.25 -3.7 4.3 -3.65 4.35 -3.55 4.35 -3.5 4.35 -3.4 4.35 -3.3 4.35 -3.2 4.25 -3.05 3.95 -2.75 3.75 -2.5 3.6 -2.45 3.35 -2.25 3.2 -2.05 Q2.05 -1.6 0.9 -1.5 L-2.2 -1.4 -2.35 -1.45 -2.45 -1.55 -2.5 -1.6 -2.5 -1.65 -2.6 -1.65 -2.7 -1.7 -2.9 -1.75 -3.2 -1.9 -3.6 -2.05 -3.8 -2.05 -3.95 -2.0 -4.1 -1.9 -4.15 -1.85 -4.3 -1.8 -4.4 -1.75 -4.45 -1.65 -4.6 -1.6 -4.7 -1.5 -4.8 -1.55 -4.85 -1.65 -4.9 -1.7 -4.9 -1.8 -4.9 -1.85 -4.9 -1.95 -4.85 -2.0 -4.85 -2.1 -4.85 -2.15 -4.8 -2.25 -4.75 -2.3 -4.65 -2.4 -4.55 -2.45 -4.5 -2.55 -4.45 -2.6 -4.3 -2.7 -4.2 -2.75 -4.1 -2.85 -3.9 -2.9 -3.4 -2.9 -3.2 -2.85 -3.1 -2.8 -3.05 -2.7 -3.0 -2.7 -2.8 -2.65 -2.7 -2.55 -2.65 -2.5 -2.4 -2.45 -1.9 -2.25 -0.25 -2.2 -0.15 -2.25 0.0 -2.3 0.05 -2.35 0.95 -2.8 1.55 -3.1 2.4 -3.35 3.3 -3.55 3.5 -3.6 3.65 -3.6 3.7 -3.65 3.75 -3.75" fill="#663366" fill-opacity="0.101960786" fill-rule="evenodd" stroke="none"/>
    <path d="M5.7 1.95 L5.7 2.0 5.7 2.1 5.65 2.15 5.65 2.25 5.5 2.35 5.25 2.6 5.0 2.75 3.4 3.1 3.2 3.15 3.05 3.25 2.95 3.3 2.9 3.35 -1.9 3.75 -4.4 3.2 -4.95 3.05 -5.0 2.95 -5.05 2.9 -5.1 2.8 -5.15 2.65 -5.15 2.5 -5.15 2.35 -5.15 2.3 -5.1 2.2 -5.05 2.15 -4.95 2.1 -4.9 2.05 -4.8 2.05 -4.7 2.05 -4.5 2.1 -4.45 2.15 -4.35 2.25 -4.2 2.3 -4.05 2.4 -3.85 2.45 1.65 2.7 1.7 2.65 1.8 2.55 2.05 2.45 2.15 2.45 2.3 2.4 2.7 2.4 2.85 2.35 3.05 2.3 3.15 2.2 3.2 2.15 3.25 2.15 3.45 2.1 3.55 2.0 3.8 1.85 4.05 1.75 4.2 1.7 4.3 1.7 4.5 1.75 4.6 1.85 4.65 1.85 4.8 1.8 4.9 1.7 5.0 1.65 5.05 1.6 5.15 1.55 5.3 1.5 5.5 1.55 5.6 1.65 5.65 1.7 5.65 1.8 5.7 1.85 5.7 1.95" fill="#663366" fill-opacity="0.101960786" fill-rule="evenodd" stroke="none"/>
    <path d="M5.85 1.8 L5.9 1.85 5.95 1.95 5.95 2.0 5.95 2.1 5.95 2.15 5.9 2.2 5.9 2.3 5.8 2.45 5.65 2.7 5.6 2.75 5.55 2.8 5.5 2.9 5.25 3.05 4.8 3.2 4.65 3.2 3.8 3.7 2.55 4.3 0.2 4.65 -1.3 4.65 -1.5 4.6 -1.65 4.5 -1.8 4.4 -2.0 4.3 -2.1 4.3 -2.2 4.25 -2.3 4.2 -2.5 4.2 -2.75 4.0 -2.9 3.85 -3.05 3.75 -3.2 3.65 -3.35 3.6 -3.45 3.5 -3.5 3.45 -4.2 3.3 -4.9 3.2 -5.05 3.15 -5.2 3.05 -5.35 3.0 -5.4 2.9 -5.5 2.8 -5.5 2.75 -5.55 2.65 -5.55 2.55 -5.5 2.45 -5.5 2.4 -5.4 2.3 -5.35 2.25 -5.25 2.2 -3.95 2.35 -1.9 2.75 0.25 2.55 0.6 2.45 0.7 2.55 0.75 2.6 1.3 2.7 2.4 2.6 2.6 2.65 2.7 2.7 2.75 2.8 2.8 2.85 2.85 2.9 2.9 2.85 3.0 2.8 3.05 2.7 3.15 2.6 3.15 2.5 3.15 2.45 3.15 2.35 3.15 2.3 3.2 2.2 3.25 2.15 3.35 2.05 3.4 2.0 3.45 2.0 3.6 1.95 3.8 2.0 3.9 2.1 4.0 2.15 4.05 2.2 4.1 2.15 4.3 2.1 4.3 2.0 4.3 1.9 4.3 1.8 4.35 1.75 4.4 1.65 4.45 1.6 4.55 1.55 4.7 1.5 4.8 1.5 5.0 1.55 5.1 1.65 5.15 1.7 5.2 1.7 5.3 1.65 5.5 1.6 5.7 1.65 5.8 1.7 5.85 1.8" fill="#663366" fill-opacity="0.101960786" fill-rule="evenodd" stroke="none"/>
    <path d="M5.95 -2.9 Q6.9 -2.75 7.25 -1.85 7.55 -0.95 7.45 -0.15 7.35 0.6 6.9 1.0 L5.45 2.05 4.0 2.75 2.5 3.25 0.9 3.5 -0.6 3.45 -2.2 3.25 -3.8 2.8 -5.3 2.0 -6.8 0.9 -7.3 0.05 -7.4 -0.8 -7.0 -1.65 -5.65 -2.65 -4.3 -2.75 -3.35 -2.4 -1.65 -1.65 -0.3 -1.35 1.15 -1.55 2.8 -2.25 4.2 -2.85 5.95 -2.9 M6.4 -0.65 Q6.3 -1.65 5.35 -1.85 L4.3 -1.7 3.15 -1.3 2.15 -1.0 1.15 -0.65 0.1 -0.6 -0.95 -0.6 -2.05 -0.85 -3.7 -1.5 -4.8 -2.0 -5.45 -1.95 Q-6.35 -1.75 -6.35 -0.7 L-5.95 0.25 -4.85 1.1 -3.4 1.65 -1.95 2.2 -0.55 2.4 0.85 2.45 2.25 2.25 3.7 1.8 5.1 1.2 Q6.1 0.7 6.4 -0.1 L6.4 -0.65" fill="#333333" fill-rule="evenodd" stroke="none"/>
    <path d="M5.1 -1.1 L5.1 -0.85 Q4.9 -0.3 4.2 0.1 L2.9 0.75 0.95 1.2 0.2 1.25 -2.1 1.05 -2.35 0.85 -3.5 0.55 -4.7 0.05 Q-5.45 -0.3 -5.75 -1.0 L-5.55 -1.05 -4.65 -0.55 -2.85 0.05 -1.15 0.4 0.2 0.5 2.15 0.15 3.2 -0.1 4.3 -0.95 5.1 -1.1" fill="#333333" fill-rule="evenodd" stroke="none"/>
  </g>
</svg>
