<?xml version="1.0" encoding="UTF-8" standalone="no"?>
<svg xmlns:xlink="http://www.w3.org/1999/xlink" height="15.85px" width="12.25px" xmlns="http://www.w3.org/2000/svg">
  <g transform="matrix(1.0, 0.0, 0.0, 1.0, 6.05, 7.95)">
    <path d="M5.85 -7.75 L5.9 -7.65 5.95 -7.6 5.95 -7.5 5.95 -7.4 5.95 -7.3 5.9 -7.2 5.8 -7.1 5.75 -7.05 -5.65 -7.15 -5.75 -7.2 -5.95 -7.25 -6.0 -7.35 -6.05 -7.45 -6.05 -7.5 -6.0 -7.6 -5.95 -7.7 -5.9 -7.7 -5.75 -7.75 -5.65 -7.75 4.5 -7.95 5.5 -7.95 5.75 -7.85 5.85 -7.75" fill="#333333" fill-rule="evenodd" stroke="none"/>
    <path d="M3.5 7.8 L-1.5 7.85 -5.3 7.65 -5.75 7.6 -5.85 7.5 -5.95 7.4 -5.95 7.3 -5.95 7.2 -5.9 7.15 -5.85 7.05 -5.75 6.95 -5.65 6.95 -5.5 6.9 -5.3 6.85 -3.25 6.75 -1.5 6.75 3.5 6.8 4.9 6.8 5.1 6.85 5.3 6.9 5.35 6.9 5.5 6.85 5.75 6.85 6.0 6.9 6.05 7.0 6.15 7.1 6.15 7.2 6.2 7.3 6.15 7.35 6.15 7.45 6.05 7.55 6.0 7.65 5.75 7.7 5.55 7.8 5.5 7.85 5.4 7.85 5.25 7.9 5.0 7.85 4.9 7.8 3.5 7.8" fill="#333333" fill-rule="evenodd" stroke="none"/>
  </g>
</svg>
