<?xml version="1.0" encoding="UTF-8" standalone="no"?>
<svg xmlns:xlink="http://www.w3.org/1999/xlink" height="8.45px" width="9.0px" xmlns="http://www.w3.org/2000/svg">
  <g transform="matrix(1.0, 0.0, 0.0, 1.0, 3.9, 3.45)">
    <path d="M0.8 -0.95 L1.35 -0.9 1.6 -0.9 1.7 -0.85 1.75 -0.8 2.1 -0.75 2.45 -0.7 2.6 -0.7 2.7 -0.65 3.1 -0.4 3.3 -0.25 3.5 -0.05 3.7 0.15 3.75 0.2 3.75 0.3 3.8 0.35 3.8 0.4 3.8 0.7 3.8 0.85 3.8 1.1 3.75 1.5 3.65 1.95 3.6 2.0 3.6 2.1 3.55 2.15 3.45 2.25 3.3 2.4 3.2 2.5 3.1 2.6 2.85 2.75 2.85 2.8 2.8 2.85 2.8 2.9 2.75 2.95 2.75 3.0 2.7 3.05 2.7 3.1 2.65 3.1 2.6 3.15 2.6 3.2 2.5 3.3 2.4 3.35 2.3 3.4 2.2 3.45 2.1 3.5 2.0 3.5 0.85 3.45 0.6 3.4 0.5 3.4 0.05 3.3 Q-0.15 3.25 -0.3 3.15 L-0.45 3.1 -0.5 3.1 -0.7 2.95 -0.85 2.8 -0.95 2.7 -1.0 2.6 -1.05 2.5 -1.05 2.45 -1.1 2.4 -1.1 2.3 -1.15 2.3 -1.2 2.25 -1.25 2.2 -1.25 2.15 -1.3 2.1 -1.35 2.05 -1.35 1.9 -1.4 1.85 -1.55 1.75 -1.75 1.6 -1.8 1.55 -1.85 1.5 -1.9 1.45 -1.9 1.3 -1.9 1.15 -1.95 1.1 -1.95 0.95 -1.9 0.9 -1.9 0.85 -1.85 0.8 -1.7 0.6 -1.55 0.25 -1.05 -0.15 -0.1 -0.6 0.0 -0.65 0.05 -0.7 0.15 -0.7 0.25 -0.75 0.5 -0.85 0.6 -0.9 0.7 -0.9 0.8 -0.9 0.8 -0.95 M0.7 1.0 L0.7 1.15 0.7 1.3 0.7 1.4 0.7 1.45 0.9 1.45 0.9 1.35 0.9 1.25 0.9 1.15 0.9 1.1 0.8 1.05 0.75 1.0 0.7 1.0" fill="#663366" fill-opacity="0.101960786" fill-rule="evenodd" stroke="none"/>
    <path d="M0.4 -1.55 L0.55 -1.6 0.8 -1.65 1.0 -1.7 1.95 -1.7 2.7 -1.3 2.95 -0.95 2.95 -0.9 3.0 -0.85 3.05 -0.8 3.05 -0.65 3.15 -0.6 3.2 -0.55 3.25 -0.5 3.3 -0.45 3.3 -0.4 3.35 -0.35 3.35 -0.3 3.4 -0.15 3.5 0.05 3.6 0.25 3.65 0.5 3.65 0.55 3.65 0.7 3.65 0.9 3.65 1.2 3.65 1.55 3.65 1.6 3.6 1.65 3.6 1.7 3.55 1.75 3.55 1.8 3.5 1.85 3.5 1.9 3.45 1.95 3.3 2.15 3.05 2.4 2.65 2.7 1.55 3.05 Q-0.2 3.2 -1.35 1.95 L-1.4 1.9 -1.4 1.75 -1.45 1.7 -1.45 1.55 -1.45 1.25 -1.45 0.85 -1.4 0.55 -1.45 0.5 -1.45 0.35 -1.45 0.1 -1.45 -0.2 -1.45 -0.55 -1.4 -0.6 -1.4 -0.75 -1.35 -0.8 -1.35 -0.85 -1.3 -0.9 -1.25 -0.95 -1.05 -1.1 -0.75 -1.3 -0.5 -1.4 -0.35 -1.45 0.35 -1.5 0.4 -1.55 M1.1 -0.1 L1.25 -0.15 1.15 -0.15 1.1 -0.15 1.0 -0.1 0.85 0.0 0.75 0.1 0.75 0.15 0.8 0.2 0.85 0.15 0.85 0.1 0.9 0.05 0.95 0.0 1.0 -0.05 1.1 -0.1" fill="#663366" fill-opacity="0.101960786" fill-rule="evenodd" stroke="none"/>
    <path d="M3.15 2.45 L3.25 2.4 3.4 2.35 3.5 2.35 3.65 2.35 3.9 2.3 4.55 2.45 4.65 2.55 4.7 2.6 4.7 2.85 4.65 2.9 4.65 2.95 4.6 3.0 4.5 3.1 4.4 3.15 4.25 3.25 4.05 3.5 3.85 3.75 3.8 3.85 3.8 3.9 3.75 3.95 3.75 4.05 3.7 4.1 3.65 4.1 3.65 4.15 3.55 4.25 3.5 4.35 3.4 4.45 3.2 4.55 2.85 4.65 2.65 4.65 Q0.75 5.3 -1.2 4.7 L-2.0 4.25 -2.8 3.25 -2.8 3.2 -2.85 3.15 -2.85 2.95 -2.85 2.85 -2.9 2.8 -2.9 2.65 -2.85 2.55 -2.85 2.5 -2.8 2.45 -2.75 2.4 -2.7 2.35 -2.6 2.3 -2.45 2.3 -2.35 2.25 -2.25 2.3 -2.1 2.3 -2.0 2.35 -1.95 2.4 -1.9 2.45 -1.85 2.5 -1.8 2.55 -1.75 2.6 -1.75 2.65 -1.6 2.8 -1.5 2.85 -1.35 3.0 -1.3 3.05 -1.15 3.1 -1.05 3.15 -1.0 3.2 -0.9 3.25 -0.65 3.3 -0.25 3.45 -0.15 3.55 2.7 3.1 2.75 3.05 2.75 3.0 2.8 2.95 2.8 2.85 2.85 2.8 2.85 2.75 2.95 2.65 2.95 2.6 3.05 2.55 3.15 2.45" fill="#663366" fill-opacity="0.101960786" fill-rule="evenodd" stroke="none"/>
    <path d="M1.35 -3.45 L2.5 -3.25 3.4 -3.05 3.45 -3.0 3.65 -2.9 3.8 -2.8 3.95 -2.65 4.0 -2.55 4.1 -2.4 4.1 -2.35 4.15 -2.3 4.15 -2.25 4.2 -2.2 4.2 -2.15 4.25 -2.1 4.25 -1.6 4.2 -1.55 4.2 -1.5 4.15 -1.45 4.1 -1.45 4.05 -1.4 4.0 -1.35 3.95 -1.35 3.85 -1.3 3.75 -1.3 3.65 -1.3 3.5 -1.35 3.4 -1.4 3.3 -1.5 3.25 -1.55 3.2 -1.6 3.15 -1.65 3.15 -1.7 3.1 -1.7 3.1 -1.75 3.05 -1.8 3.0 -1.85 2.95 -1.9 2.95 -1.95 2.9 -1.95 2.75 -2.0 2.65 -2.05 2.6 -2.1 2.55 -2.15 2.45 -2.15 2.35 -2.2 2.2 -2.25 2.15 -2.3 2.05 -2.35 1.55 -2.4 1.35 -2.4 -0.1 -2.35 -1.05 -2.2 -1.15 -2.15 -1.35 -2.05 -1.55 -1.95 -1.8 -1.9 -1.85 -1.85 -1.9 -1.8 -1.95 -1.75 -1.95 -1.7 -2.0 -1.65 -2.1 -1.6 -2.3 -1.55 -2.4 -1.55 -2.55 -1.7 -2.65 -1.75 -2.75 -1.85 -2.75 -1.9 -2.8 -1.95 -2.8 -2.35 -2.75 -2.4 -2.75 -2.45 -2.7 -2.5 -2.6 -2.55 -2.5 -2.6 -2.4 -2.65 -2.35 -2.7 -2.3 -2.7 -2.25 -2.75 -2.15 -2.8 -2.05 -2.85 -1.95 -2.9 -1.85 -2.95 -1.8 -2.95 -1.7 -3.0 -1.05 -3.25 -0.55 -3.4 0.0 -3.45 1.35 -3.45" fill="#663366" fill-opacity="0.101960786" fill-rule="evenodd" stroke="none"/>
    <path d="M1.85 -1.95 L2.5 -1.9 2.6 -1.9 2.7 -1.8 2.7 -1.75 2.65 -1.7 2.65 -1.65 2.5 -1.6 2.45 -1.55 2.35 -1.55 2.2 -1.5 1.95 -1.5 1.85 -1.5 1.8 -1.5 1.7 -1.5 1.5 -1.5 1.4 -1.5 1.3 -1.55 -0.25 -1.45 -0.55 -1.4 -0.6 -1.35 -0.7 -1.3 -0.8 -1.25 -0.9 -1.2 -0.95 -1.15 -1.05 -1.1 -1.15 -1.05 -1.35 -0.95 -1.5 -0.8 -1.6 -0.75 -1.7 -0.7 -1.75 -0.65 -1.8 -0.65 -1.8 -0.6 -1.85 -0.55 -1.85 -0.5 -1.9 -0.45 -1.95 -0.4 -2.0 -0.25 -2.05 -0.1 -2.05 0.0 -2.1 0.05 -2.1 0.1 -2.15 0.25 -2.15 0.4 -2.25 0.7 -2.3 0.8 -2.3 0.9 -2.3 1.05 -2.3 1.25 -2.3 1.35 -2.3 1.45 -2.3 1.65 -2.35 1.7 -2.4 1.75 -2.4 1.8 -2.5 1.85 -2.6 1.9 -2.65 1.9 -2.75 1.9 -2.95 1.9 -3.05 1.85 -3.1 1.8 -3.15 1.75 -3.2 1.7 -3.2 1.65 -3.35 1.6 -3.65 1.6 -3.75 1.55 -3.9 1.4 -3.9 1.35 -3.9 1.25 -3.9 1.05 -3.9 0.9 -3.9 0.8 -3.9 0.7 -3.9 0.6 -3.9 0.45 -3.9 0.35 -3.85 0.35 -3.85 0.3 -3.8 0.25 -3.8 0.1 -3.75 0.05 -3.75 -0.05 -3.7 -0.1 -3.65 -0.15 -3.65 -0.2 -3.6 -0.25 -3.55 -0.3 -3.55 -0.4 -3.5 -0.45 -3.45 -0.45 -3.45 -0.5 -3.35 -0.6 -3.3 -0.7 -3.15 -0.85 -3.15 -0.9 -3.0 -1.05 -2.9 -1.1 -2.85 -1.15 -2.6 -1.25 -2.5 -1.3 -2.45 -1.35 -2.35 -1.4 -2.25 -1.45 -2.15 -1.5 -2.1 -1.55 -2.0 -1.6 -1.95 -1.65 -1.7 -1.85 -1.5 -1.95 -1.4 -2.0 -1.35 -2.05 -1.05 -2.15 -0.8 -2.2 -0.7 -2.2 -0.55 -2.2 -0.35 -2.2 -0.25 -2.15 -0.2 -2.1 1.4 -2.0 1.85 -1.95" fill="#ffffff" fill-opacity="0.101960786" fill-rule="evenodd" stroke="none"/>
    <path d="M-1.75 2.35 Q-0.65 3.15 0.55 3.15 1.8 3.15 2.8 2.4 3.75 1.65 3.9 0.6 4.1 -0.45 3.1 -1.25 2.15 -2.05 0.6 -1.9 -0.85 -1.75 -1.8 -1.2 -2.7 -0.55 -2.7 0.5 -2.7 1.55 -1.75 2.35 M0.45 4.05 Q-1.2 4.05 -2.4 3.05 -3.6 2.0 -3.6 0.5 -3.6 -1.0 -2.35 -1.95 -1.1 -2.85 0.7 -2.95 2.5 -3.0 3.8 -2.05 5.1 -1.0 5.1 0.5 5.1 2.0 3.6 3.0 2.1 4.0 0.45 4.05" fill="#333333" fill-rule="evenodd" stroke="none"/>
    <path d="M0.75 1.55 L-0.1 1.25 Q-0.45 0.95 -0.45 0.5 -0.45 0.05 -0.05 -0.2 0.3 -0.5 0.85 -0.5 L1.75 -0.25 Q2.15 0.05 2.15 0.5 L1.7 1.25 0.75 1.55" fill="#333333" fill-rule="evenodd" stroke="none"/>
  </g>
</svg>
