<?xml version="1.0" encoding="UTF-8" standalone="no"?>
<svg xmlns:xlink="http://www.w3.org/1999/xlink" height="15.85px" width="20.6px" xmlns="http://www.w3.org/2000/svg">
  <g transform="matrix(1.0, 0.0, 0.0, 1.0, 10.3, 8.4)">
    <path d="M-7.85 -1.6 L-7.65 -1.55 -7.5 -1.5 -7.35 -1.45 -7.25 -1.35 -7.2 -1.25 -7.15 -1.15 -7.05 -1.05 -7.05 -0.95 -7.05 -0.85 -7.0 0.0 -6.95 1.2 -6.95 2.35 -6.95 2.45 -6.95 2.55 -6.9 2.6 -6.9 2.8 -6.85 3.0 -6.9 3.1 -6.9 3.2 -6.95 3.3 -7.0 3.4 -7.0 3.5 -7.0 3.55 -7.0 3.65 -7.0 3.75 -7.05 3.85 -7.05 3.95 -7.1 4.05 -7.1 4.15 -7.1 4.25 -7.1 4.35 -7.15 4.45 -7.15 4.55 -7.25 4.6 -7.3 4.7 -7.4 4.8 -7.45 4.9 -7.5 5.0 -7.5 5.1 -7.55 5.2 -7.6 5.3 -7.65 5.4 -7.7 5.5 -7.75 5.6 -7.8 5.7 -7.85 5.8 -7.9 5.85 -7.9 5.95 -7.95 6.05 -8.0 6.15 -8.1 6.25 -8.2 6.35 -8.35 6.45 -8.55 6.45 -8.85 6.5 -9.05 6.5 -9.25 6.5 -9.45 6.45 -9.65 6.35 -9.7 6.25 -9.8 6.15 -9.85 6.05 -9.9 5.9 -9.95 5.7 -9.95 5.4 -10.0 5.05 -9.95 4.95 -9.95 4.85 -9.95 4.75 -9.95 4.65 -9.9 4.55 -9.9 4.45 -9.85 4.25 -9.8 4.1 -9.8 4.0 -9.8 3.9 -9.8 3.8 -9.8 3.7 -9.8 3.6 -9.75 3.5 -9.75 3.4 -9.7 3.3 -9.7 3.25 -9.7 3.15 -9.7 3.05 -9.7 2.95 -9.7 2.85 -9.75 1.9 -9.65 0.6 -9.4 -0.55 -9.35 -0.65 -9.3 -0.75 -9.25 -0.85 -9.2 -0.95 -9.1 -1.05 -9.05 -1.15 -8.9 -1.2 -8.8 -1.25 -8.6 -1.3 -8.4 -1.35 -8.3 -1.4 -8.2 -1.5 -8.15 -1.5 -8.05 -1.55 -7.85 -1.6" fill="#663366" fill-opacity="0.101960786" fill-rule="evenodd" stroke="none"/>
    <path d="M-6.9 0.65 L-6.8 0.75 -6.8 0.8 -6.75 0.9 -6.7 1.0 -6.7 1.1 -6.7 1.2 -6.7 1.3 -6.75 1.4 -6.75 1.5 -6.75 1.65 -6.75 1.75 -6.75 1.95 -6.75 2.25 -6.75 2.45 -6.75 2.55 -6.8 2.7 -6.8 2.8 -6.8 3.0 -6.8 3.3 -6.8 3.45 -6.8 3.55 -6.8 3.75 -6.8 3.95 -6.8 4.15 -6.8 4.5 -6.8 4.8 -6.8 4.9 -6.85 5.0 -6.85 5.1 -6.9 5.2 -6.95 5.25 -7.0 5.35 -7.0 5.45 -7.05 5.55 -7.05 5.65 -7.1 5.75 -7.15 5.85 -7.2 5.95 -7.25 6.05 -7.35 6.15 -7.4 6.25 -7.5 6.3 -7.75 6.5 -7.85 6.55 -8.0 6.6 -8.05 6.7 -8.1 6.8 -8.15 6.9 -8.3 7.0 -8.4 7.05 -8.55 7.1 -8.7 7.15 -8.9 7.1 -9.1 7.05 -9.25 6.95 -9.35 6.85 -9.4 6.8 -9.5 6.7 -9.5 6.6 -9.55 6.5 -9.65 6.4 -9.85 6.2 -9.9 6.15 -10.05 5.95 -10.2 5.65 -10.25 5.5 -10.25 5.3 -10.25 5.0 -10.25 4.55 -10.25 4.35 -10.15 3.85 -9.95 2.8 -9.6 1.7 -9.55 1.5 -9.5 1.4 -9.35 1.2 -9.25 1.1 -9.1 0.9 -8.95 0.6 -8.9 0.5 -8.8 0.45 -8.75 0.3 -8.55 0.2 -8.4 0.15 -8.2 0.15 -8.2 0.1 -7.95 0.15 -7.55 0.2 -7.35 0.25 -7.15 0.35 -7.0 0.45 -6.95 0.55 -6.9 0.65" fill="#663366" fill-opacity="0.101960786" fill-rule="evenodd" stroke="none"/>
    <path d="M9.2 -7.95 L9.35 -7.85 9.45 -7.75 9.55 -7.7 9.55 -7.6 9.6 -7.5 9.65 -7.3 9.65 -7.1 9.7 -7.0 9.7 -6.95 9.7 -6.75 9.7 -6.35 9.6 -6.0 9.55 -5.8 9.5 -5.25 9.3 -4.35 9.2 -3.6 9.15 -3.5 9.1 -3.4 9.1 -3.3 9.05 -3.2 9.0 -3.1 8.95 -3.05 8.95 -2.95 8.9 -2.85 8.85 -2.75 8.8 -2.65 8.75 -2.55 8.65 -2.35 8.65 -2.25 8.15 -1.35 7.25 -0.25 6.95 0.15 6.5 0.6 5.45 1.35 4.9 1.85 3.65 2.65 3.55 2.75 3.55 2.85 3.55 2.95 3.55 3.0 3.55 3.1 3.5 3.2 3.45 3.3 3.4 3.4 3.35 3.5 3.15 3.7 2.85 3.95 2.7 4.0 2.3 4.2 1.95 4.45 -1.85 5.4 -3.55 5.5 -4.4 5.65 -5.15 5.7 -5.25 5.75 -5.4 5.8 -5.6 5.85 -5.65 5.85 -6.1 5.8 -6.5 5.75 -6.6 5.65 -6.7 5.55 -6.8 5.45 -6.85 5.35 -6.9 5.25 -6.9 5.2 -6.95 5.1 -6.95 5.0 -6.95 4.9 -6.9 4.8 -6.85 4.7 -6.8 4.6 -6.75 4.5 -6.7 4.4 -6.55 4.3 -6.45 4.2 -6.4 4.1 -6.35 4.05 -6.3 3.95 -6.3 3.85 -6.3 3.75 -6.35 3.65 -6.35 3.55 -6.35 3.45 -6.35 3.35 -6.35 3.25 -6.3 3.15 -6.25 3.1 -6.15 3.0 -6.1 2.9 -5.95 2.8 -2.95 2.55 Q1.1 1.75 4.3 -0.9 L6.7 -3.2 6.75 -3.3 6.75 -3.4 6.8 -3.5 6.8 -3.6 6.8 -3.7 6.85 -3.75 6.9 -3.85 6.9 -3.95 6.95 -4.05 7.0 -4.25 7.05 -4.35 7.1 -4.45 7.1 -4.55 7.1 -4.75 7.15 -5.0 7.2 -5.3 7.3 -5.4 7.4 -5.6 7.6 -5.9 7.7 -6.0 7.85 -6.1 7.95 -6.15 7.95 -6.25 7.95 -6.35 8.0 -6.45 8.05 -6.55 8.1 -6.65 8.15 -6.75 8.25 -6.95 8.25 -7.05 8.3 -7.15 8.3 -7.3 8.35 -7.5 8.35 -7.6 8.45 -7.7 8.5 -7.8 8.6 -7.9 8.75 -7.95 8.95 -8.0 9.2 -7.95" fill="#663366" fill-opacity="0.101960786" fill-rule="evenodd" stroke="none"/>
    <path d="M-4.85 1.1 L-4.55 1.15 -4.4 1.25 -4.3 1.35 -4.2 1.45 -4.15 1.5 -4.1 1.6 -4.1 1.7 -4.1 1.8 -4.05 1.9 -4.1 2.0 -4.1 2.1 -4.15 2.2 -4.15 2.3 -4.2 2.4 -4.2 2.45 -4.2 2.55 -4.15 2.65 -4.2 2.75 -4.2 2.85 -4.2 2.95 -4.25 3.05 -4.3 3.15 -4.35 3.25 -4.4 3.35 -4.45 3.4 -4.5 3.5 -4.5 3.6 -4.55 3.7 -4.55 3.8 -4.6 3.9 -4.65 4.0 -4.7 4.1 -4.7 4.2 -4.75 4.3 -4.8 4.4 -4.85 4.5 -4.95 4.55 -4.9 4.65 -4.9 4.75 -4.9 4.85 -4.9 4.95 -4.9 5.05 -4.95 5.15 -4.95 5.25 -5.0 5.35 -5.05 5.45 -5.1 5.55 -5.25 5.65 -5.3 5.7 -5.35 5.7 -5.5 5.75 -5.65 5.8 -5.85 5.75 -6.05 5.7 -6.2 5.65 -6.3 5.55 -6.35 5.55 -6.65 5.5 -6.8 5.4 -6.9 5.3 -7.0 5.2 -7.05 5.1 -7.1 5.05 -7.1 4.95 -7.1 4.85 -7.15 4.75 -7.15 4.65 -7.15 4.55 -7.1 4.45 -7.1 4.35 -7.05 4.25 -7.0 4.15 -7.0 4.1 -6.95 4.0 -6.9 3.9 -6.85 3.8 -6.85 3.7 -6.85 3.6 -6.8 3.5 -6.8 3.4 -6.8 3.3 -6.75 3.2 -6.7 3.1 -6.5 2.75 -6.0 1.95 -5.55 1.4 -5.5 1.3 -5.4 1.3 -5.25 1.2 -5.05 1.15 -4.85 1.1" fill="#663366" fill-opacity="0.101960786" fill-rule="evenodd" stroke="none"/>
    <path d="M7.55 -7.95 L7.65 -8.0 7.7 -8.1 7.8 -8.2 7.9 -8.3 7.95 -8.3 8.1 -8.35 8.25 -8.4 8.3 -8.4 8.45 -8.4 8.6 -8.35 8.8 -8.3 8.95 -8.25 9.05 -8.15 9.15 -8.05 9.25 -7.95 9.35 -7.85 9.35 -7.75 9.45 -7.65 9.5 -7.6 9.55 -7.5 9.6 -7.4 9.65 -7.3 9.7 -7.2 9.75 -7.1 9.75 -7.05 9.8 -6.75 9.85 -6.35 9.85 -5.9 9.8 -5.5 9.55 -5.1 9.3 -4.65 8.9 -4.05 8.85 -3.95 8.8 -3.85 8.8 -3.8 8.75 -3.7 8.7 -3.6 8.75 -3.5 8.75 -3.4 8.75 -3.3 8.7 -3.2 8.65 -3.1 8.6 -3.0 8.6 -2.9 8.55 -2.8 8.45 -2.75 8.45 -2.65 8.45 -2.55 8.4 -2.45 8.35 -2.35 8.35 -2.25 8.3 -2.15 8.25 -2.05 8.2 -1.95 8.15 -1.85 8.1 -1.75 8.0 -1.6 7.95 -1.5 7.9 -1.4 7.75 -1.2 7.6 -1.0 7.4 -0.8 7.3 -0.7 7.3 -0.6 7.3 -0.5 7.25 -0.4 7.2 -0.3 7.1 -0.2 7.05 -0.1 7.0 -0.05 7.0 0.05 6.4 0.8 5.5 1.8 5.1 2.3 4.9 2.4 4.75 2.5 4.6 2.7 4.35 2.9 3.8 3.2 Q2.95 3.9 1.9 4.3 L0.15 4.85 Q-2.3 5.9 -5.0 5.85 L-7.55 5.8 -7.8 5.75 -8.0 5.65 -8.05 5.55 -8.15 5.45 -8.2 5.4 -8.25 5.3 -8.25 5.2 -8.25 5.1 -8.25 5.0 -8.2 4.9 -8.2 4.8 -8.15 4.7 -8.05 4.6 -7.9 4.5 -7.7 4.45 -7.4 4.35 -7.15 4.35 -6.6 4.3 -6.5 4.2 Q-4.8 3.65 -3.0 3.65 L-2.2 3.65 -1.6 3.45 -1.05 3.25 -0.5 3.15 -0.35 3.05 0.05 2.95 0.5 2.75 0.7 2.7 0.85 2.6 1.0 2.5 1.25 2.4 1.55 2.45 1.7 2.55 1.8 2.65 1.9 2.65 2.05 2.65 2.2 2.55 2.9 2.05 3.8 1.35 Q3.95 1.3 4.05 1.2 L4.2 1.0 4.45 0.7 4.75 0.4 4.9 0.3 4.95 0.2 5.0 0.1 5.05 0.0 5.15 -0.1 5.3 -0.2 5.35 -0.3 5.4 -0.4 5.5 -0.5 5.55 -0.6 5.6 -0.65 5.65 -0.75 5.7 -0.85 5.8 -0.95 5.85 -1.05 5.85 -1.15 5.85 -1.25 5.9 -1.35 6.05 -1.55 6.15 -1.75 6.45 -2.05 6.55 -2.1 6.6 -2.2 6.6 -2.3 6.6 -2.4 6.7 -2.5 6.75 -2.6 6.85 -2.7 6.9 -2.8 6.95 -2.9 6.95 -3.0 6.95 -3.1 6.95 -3.2 7.05 -3.3 7.1 -3.35 7.1 -3.45 7.1 -3.55 7.05 -3.65 7.0 -3.75 7.0 -3.85 7.0 -3.95 7.0 -4.05 7.05 -4.15 7.05 -4.2 7.15 -4.3 7.2 -4.4 7.3 -4.5 7.35 -4.6 7.35 -4.7 7.4 -4.8 7.4 -4.9 7.4 -5.1 7.35 -5.35 7.35 -5.65 7.35 -6.05 7.35 -6.1 7.35 -6.2 7.35 -6.3 7.35 -6.4 7.35 -6.5 7.3 -6.6 7.3 -6.7 7.3 -6.8 7.3 -6.9 7.3 -6.95 7.3 -7.05 7.35 -7.15 7.4 -7.25 7.4 -7.35 7.45 -7.45 7.4 -7.55 7.45 -7.65 7.5 -7.75 7.5 -7.85 7.55 -7.95" fill="#663366" fill-opacity="0.101960786" fill-rule="evenodd" stroke="none"/>
    <path d="M5.45 -7.75 L5.55 -7.65 5.55 -7.55 5.6 -7.5 5.6 -7.4 5.55 -7.3 5.5 -7.2 5.4 -7.1 5.3 -7.0 5.25 -6.9 5.2 -6.8 5.15 -6.7 5.15 -6.6 5.15 -6.5 5.15 -6.4 5.1 -6.35 5.05 -6.25 5.05 -6.15 5.0 -6.05 5.0 -5.95 4.95 -5.85 4.95 -5.75 4.95 -5.65 4.95 -5.55 4.95 -5.45 4.95 -5.4 4.95 -5.2 4.85 -4.9 4.8 -4.6 4.8 -4.5 4.8 -4.45 4.8 -4.35 4.8 -4.25 4.8 -4.15 4.75 -4.05 4.7 -3.95 4.65 -3.85 4.55 -3.75 4.5 -3.65 4.5 -3.55 4.45 -3.45 4.45 -3.4 4.4 -3.3 4.35 -3.2 4.35 -3.1 4.25 -3.0 4.2 -2.9 4.1 -2.7 3.95 -2.5 3.95 -2.4 3.85 -2.2 3.65 -1.85 3.45 -1.55 3.3 -1.35 3.3 -1.25 3.1 -0.95 2.75 -0.5 2.4 -0.1 1.55 0.4 0.5 0.75 0.3 0.8 0.15 0.85 0.0 0.95 -0.05 1.05 -0.15 1.05 -0.4 1.1 -0.55 1.2 -0.8 1.25 -0.95 1.3 -4.7 1.55 -4.85 1.65 -4.95 1.7 -5.05 1.75 -5.2 1.8 -5.55 1.85 -5.75 1.8 -5.95 1.75 -6.1 1.7 -6.2 1.6 -6.25 1.5 -6.3 1.4 -6.3 1.3 -6.35 1.2 -6.35 1.15 -6.3 1.05 -6.25 0.95 -6.2 0.85 -6.15 0.75 -6.05 0.65 -5.95 0.55 -5.75 0.45 -5.65 0.35 -2.4 0.0 -1.15 -0.15 0.95 -0.8 1.1 -0.9 1.35 -1.0 1.45 -1.1 1.55 -1.2 1.75 -1.4 1.95 -1.65 2.3 -2.15 2.6 -2.55 2.6 -2.65 2.65 -2.75 2.75 -2.85 2.8 -2.95 2.8 -3.05 2.85 -3.15 2.9 -3.25 2.95 -3.3 3.1 -3.5 3.2 -3.7 3.2 -3.8 3.2 -3.9 3.25 -4.0 3.25 -4.1 3.3 -4.2 3.35 -4.3 3.5 -4.5 3.6 -4.6 3.6 -4.65 3.6 -4.75 3.6 -4.85 3.65 -5.05 3.7 -5.35 3.8 -5.6 3.8 -5.7 3.8 -5.8 3.8 -5.9 3.8 -6.0 3.85 -6.1 3.85 -6.2 3.85 -6.3 3.9 -6.4 3.95 -6.5 4.0 -6.6 4.1 -6.65 4.1 -6.75 4.15 -6.85 4.15 -6.95 4.2 -7.05 4.2 -7.15 4.25 -7.25 4.3 -7.35 4.35 -7.45 4.45 -7.55 4.55 -7.65 4.7 -7.75 4.85 -7.85 5.05 -7.9 5.25 -7.85 5.45 -7.75" fill="#ffffff" fill-opacity="0.101960786" fill-rule="evenodd" stroke="none"/>
    <path d="M4.7 -7.35 L4.7 -7.25 4.75 -7.2 4.75 -7.1 4.8 -7.05 4.65 -6.6 4.5 -6.0 4.35 -5.45 4.35 -5.35 4.35 -5.25 4.3 -5.2 4.25 -5.1 4.25 -5.0 4.2 -4.85 4.15 -4.7 4.1 -4.65 4.1 -4.55 4.1 -4.5 4.0 -4.3 3.8 -3.9 3.65 -3.6 3.65 -3.5 3.6 -3.45 Q1.9 -0.7 -1.0 0.8 -3.4 2.0 -6.05 1.65 L-6.15 1.55 -6.25 1.5 -6.3 1.45 -6.45 1.35 -6.55 1.3 -6.65 1.2 -6.7 1.1 -6.75 1.05 -6.75 0.95 -6.75 0.85 -6.75 0.75 -6.75 0.7 -6.75 0.6 -6.75 0.55 -6.55 0.5 -6.35 0.5 -6.15 0.55 -6.0 0.6 -5.9 0.65 Q-3.3 0.9 -0.95 -0.4 L0.2 -1.25 1.15 -1.9 2.35 -3.25 3.2 -4.7 3.4 -5.05 3.45 -5.15 3.5 -5.3 3.55 -5.45 3.55 -5.5 3.6 -5.6 3.65 -5.75 3.7 -5.95 3.8 -6.2 3.8 -6.25 3.85 -6.35 3.9 -6.4 3.95 -6.55 4.0 -6.7 4.0 -6.8 4.05 -6.85 4.1 -6.95 4.15 -7.1 4.2 -7.25 4.2 -7.3 4.25 -7.4 4.35 -7.45 4.45 -7.45 4.6 -7.4 4.7 -7.35" fill="#333333" fill-rule="evenodd" stroke="none"/>
    <path d="M9.15 -4.75 L9.2 -4.9 9.25 -4.95 9.25 -5.05 9.3 -5.1 9.3 -5.2 9.35 -5.25 9.4 -5.35 9.4 -5.4 9.45 -5.5 9.55 -5.55 9.6 -5.75 9.65 -5.8 9.75 -5.85 9.8 -5.9 9.85 -5.95 9.95 -5.95 10.1 -5.9 10.2 -5.85 10.25 -5.8 10.25 -5.75 10.3 -5.7 10.3 -5.6 10.3 -5.5 10.25 -5.45 10.25 -5.35 10.2 -5.25 10.15 -5.15 10.1 -5.1 10.05 -5.0 10.05 -4.95 10.0 -4.8 9.9 -4.55 9.85 -4.4 9.8 -4.35 9.8 -4.25 9.75 -4.2 9.7 -4.1 9.7 -4.05 9.65 -4.0 9.65 -3.9 9.6 -3.8 9.6 -3.75 9.55 -3.65 9.5 -3.6 9.5 -3.5 9.45 -3.45 9.4 -3.35 9.4 -3.3 9.35 -3.15 9.3 -3.0 9.25 -2.85 9.2 -2.75 9.2 -2.7 9.15 -2.55 9.15 -2.5 9.1 -2.4 9.05 -2.35 9.05 -2.25 9.0 -2.2 8.95 -2.05 8.9 -1.9 Q7.75 0.65 5.7 2.55 2.85 5.1 -0.8 6.0 L-7.05 6.35 -7.95 6.05 -8.45 5.85 -8.5 5.8 -8.6 5.7 -8.65 5.65 -8.65 5.55 -8.95 5.4 -9.4 5.15 -9.45 5.1 -9.5 5.0 -9.5 4.95 -9.55 4.85 -9.75 4.7 -10.05 4.45 -10.15 4.35 -10.15 4.25 -10.05 4.15 -9.95 4.1 -9.8 4.15 -9.7 4.25 -9.5 4.4 -9.3 4.55 -9.15 4.5 -8.95 4.55 -8.7 4.7 -8.35 4.95 Q-4.7 5.95 -0.85 4.9 2.35 4.05 4.85 1.9 L6.65 -0.05 7.85 -2.0 8.1 -2.45 8.15 -2.55 8.15 -2.6 8.2 -2.75 8.2 -2.8 8.25 -2.9 8.3 -2.95 8.3 -3.05 8.35 -3.1 8.35 -3.2 8.4 -3.25 8.45 -3.35 8.55 -3.5 8.65 -3.65 8.65 -3.7 8.7 -3.8 8.75 -3.85 8.75 -3.95 8.8 -4.0 8.8 -4.1 8.85 -4.15 8.9 -4.25 8.95 -4.3 9.0 -4.4 9.0 -4.45 9.05 -4.55 9.1 -4.6 9.1 -4.7 9.15 -4.75" fill="#333333" fill-rule="evenodd" stroke="none"/>
    <path d="M-6.35 -1.9 L-6.25 -1.8 -6.2 -1.7 -6.15 -1.5 -6.05 -1.2 -6.0 -0.9 -5.95 -0.75 -6.0 1.5 -6.45 4.05 -6.9 5.65 -6.9 5.7 -6.9 5.8 -6.9 5.95 -6.9 6.1 -6.9 6.15 -6.9 6.25 -6.95 6.35 -7.0 6.55 -7.05 6.65 -7.05 6.75 -7.1 6.8 -7.1 6.9 -7.15 7.0 -7.25 7.05 -7.3 7.1 -7.45 7.15 -7.6 7.1 -7.7 7.0 -7.8 6.95 -7.85 6.85 -7.85 6.8 -7.85 6.7 -7.9 6.65 -7.9 6.45 -7.9 6.35 -7.85 6.25 -7.85 6.15 -7.85 6.1 -7.8 6.05 -7.8 5.95 -7.8 5.9 -7.8 5.8 -7.8 5.65 -7.8 5.5 -7.8 5.45 -7.45 4.25 -7.15 2.7 -6.85 1.6 -6.8 0.85 -6.8 -0.2 -6.85 -1.15 -6.85 -1.25 -6.9 -1.3 -6.9 -1.4 -7.0 -1.45 -7.05 -1.55 -7.05 -1.6 -7.45 -1.6 -7.65 -1.5 -7.85 -1.35 -8.35 -1.05 -8.45 -1.0 -8.6 -1.0 -8.8 -0.9 -8.9 -0.85 -9.0 -0.75 -9.1 -0.7 -9.2 -0.6 -9.3 -0.55 -9.4 -0.5 -9.55 -0.45 -9.65 -0.5 -9.65 -0.6 -9.55 -0.7 -9.4 -0.75 -9.35 -0.8 -9.25 -0.95 -9.15 -1.15 -9.05 -1.25 -8.95 -1.35 Q-8.65 -1.45 -8.45 -1.6 L-7.9 -2.05 -7.8 -2.1 -7.65 -2.15 -7.55 -2.2 -7.45 -2.25 -6.85 -2.3 -6.65 -2.25 -6.55 -2.15 -6.55 -2.1 -6.5 -2.05 -6.35 -1.9" fill="#333333" fill-rule="evenodd" stroke="none"/>
    <path d="M-9.3 -0.85 L-9.2 -0.9 -9.15 -0.95 -9.0 -1.0 -8.95 -1.1 -8.85 -1.15 -8.75 -1.25 -8.7 -1.3 -8.65 -1.4 -8.55 -1.4 -8.5 -1.4 -8.45 -1.35 -8.5 -1.25 -8.55 -1.2 -8.55 -1.1 -8.6 -1.05 -8.6 -0.95 -8.65 -0.9 -8.7 -0.8 -8.8 -0.75 -8.8 -0.7 -8.85 -0.6 -8.9 -0.45 -8.95 -0.25 -9.0 -0.05 -9.0 0.0 -9.05 0.1 -9.1 0.15 -9.1 0.25 -9.15 0.3 -9.25 0.6 -9.25 0.9 -9.25 1.2 -9.25 1.35 -9.45 2.7 -9.4 4.15 -9.3 5.2 -9.25 5.25 -9.25 5.4 -9.15 5.65 -9.1 5.8 -9.05 5.85 -8.95 6.05 -8.7 6.3 -8.55 6.45 -8.3 6.4 -8.2 6.35 -8.15 6.25 -8.1 6.2 -8.1 6.1 -8.05 6.05 -8.05 5.95 -8.0 5.9 -8.0 5.8 -8.0 5.75 -8.0 5.65 -8.0 5.6 -7.95 5.5 -7.95 5.4 -7.9 5.35 -7.85 5.3 -7.75 5.2 -7.55 5.15 -7.35 5.2 -7.25 5.3 -7.2 5.35 -7.15 5.45 -7.15 5.5 -7.1 5.6 -7.1 5.65 -7.05 5.75 -7.05 5.8 -7.05 5.9 -7.05 5.95 -7.05 6.05 -7.05 6.15 -7.05 6.25 -7.1 6.35 -7.1 6.4 -7.1 6.5 -7.15 6.55 -7.2 6.65 -7.2 6.7 -7.55 7.1 -7.9 7.35 -8.0 7.45 -8.55 7.45 -9.0 7.3 -9.15 7.25 -9.6 6.8 -9.85 6.45 -9.95 6.2 -10.05 6.0 -10.15 5.75 -10.2 5.55 -10.2 5.45 -10.3 4.25 -10.25 3.0 -10.25 2.0 -10.15 1.7 -10.1 1.4 -10.0 1.1 -9.95 1.05 -9.95 0.8 -9.9 0.6 -9.9 0.4 -9.9 0.35 -9.85 0.3 -9.8 0.2 -9.75 0.15 -9.7 0.05 -9.7 0.0 -9.65 -0.1 -9.6 -0.15 -9.6 -0.25 -9.55 -0.35 -9.5 -0.4 -9.45 -0.45 -9.4 -0.55 -9.4 -0.6 -9.35 -0.7 -9.3 -0.75 -9.3 -0.85" fill="#333333" fill-rule="evenodd" stroke="none"/>
    <path d="M-8.2 3.8 L-8.2 3.7 -8.1 3.65 -8.05 3.65 -6.85 3.65 -6.4 3.7 -6.35 3.75 -6.25 3.85 -6.15 3.9 -6.1 4.0 -6.2 3.95 -6.3 3.9 -6.35 3.85 -6.45 3.85 -8.1 3.85 -8.2 3.8" fill="#333333" fill-rule="evenodd" stroke="none"/>
  </g>
</svg>
