<?xml version="1.0" encoding="UTF-8" standalone="no"?>
<svg xmlns:xlink="http://www.w3.org/1999/xlink" height="19.6px" width="10.9px" xmlns="http://www.w3.org/2000/svg">
  <g transform="matrix(1.0, 0.0, 0.0, 1.0, 5.35, 9.95)">
    <path d="M2.75 -9.9 L2.85 -9.85 2.95 -9.75 3.05 -9.7 3.15 -9.65 3.2 -9.55 3.3 -9.5 3.4 -9.45 3.55 -9.4 3.65 -9.35 3.7 -9.3 3.8 -9.2 3.85 -9.15 3.9 -9.05 3.9 -8.95 3.95 -8.85 4.0 -8.8 4.05 -8.7 4.1 -8.6 4.1 -8.55 4.2 -8.35 4.2 -8.25 4.2 -8.15 4.25 -8.05 4.2 -7.95 4.2 -7.85 4.1 -7.7 4.0 -7.55 3.85 -7.35 3.8 -7.25 3.7 -7.2 3.55 -7.05 3.5 -6.95 3.45 -6.8 3.4 -6.7 3.35 -6.55 3.3 -6.45 3.2 -6.3 2.85 -5.95 2.65 -5.75 2.3 -5.55 1.15 -4.95 1.05 -4.85 0.9 -4.75 0.55 -4.55 0.35 -4.4 0.25 -4.25 0.15 -4.1 -0.05 -3.9 -0.2 -3.75 -0.35 -3.55 -0.45 -3.45 -0.65 -3.1 -0.75 -3.0 -1.0 -2.65 -1.3 -2.1 -1.35 -2.0 -0.7 -2.15 0.1 -2.25 1.95 -2.15 2.3 -1.95 2.5 -1.95 2.65 -1.9 2.75 -1.85 2.9 -1.8 3.0 -1.75 3.2 -1.65 3.4 -1.55 3.45 -1.45 3.55 -1.4 3.6 -1.3 3.6 -1.2 3.65 -1.1 3.7 -1.05 3.75 -0.95 3.8 -0.85 3.85 -0.7 3.95 -0.5 3.95 -0.4 3.95 -0.3 3.95 -0.2 4.05 -0.15 4.15 -0.1 4.2 0.0 4.3 0.05 4.35 0.1 4.4 0.1 4.65 0.05 4.85 0.05 5.0 0.1 5.1 0.15 5.15 0.25 5.25 0.3 5.3 0.4 5.35 0.45 5.4 0.55 5.45 0.65 5.45 0.75 5.5 0.8 5.5 0.9 5.5 1.0 5.55 1.1 5.5 1.2 5.55 1.3 5.55 1.4 5.55 1.5 5.55 1.65 5.5 1.75 5.45 1.85 5.45 1.95 5.45 2.1 5.45 2.2 5.35 2.35 5.25 2.5 5.15 2.7 4.95 3.05 4.45 3.55 3.25 4.25 2.95 4.3 2.75 4.4 2.8 4.4 3.1 4.35 3.25 4.4 3.45 4.4 3.5 4.5 3.6 4.55 3.7 4.6 3.75 4.7 3.8 4.75 3.85 4.85 3.85 4.95 3.9 5.05 3.95 5.1 4.0 5.2 4.0 5.3 4.0 5.4 4.0 5.5 4.0 5.6 4.0 5.7 4.0 5.8 4.05 5.9 4.0 6.0 4.05 6.1 4.0 6.25 3.95 6.35 3.8 6.5 3.7 6.7 3.55 6.85 3.5 7.0 3.5 7.1 3.4 7.25 3.25 7.35 3.1 7.45 2.65 7.7 2.45 7.8 2.3 8.2 1.85 8.65 Q0.75 9.4 -0.55 9.65 L-0.75 9.65 -0.9 9.6 -1.0 9.5 -1.05 9.45 -1.15 9.4 -1.2 9.3 -1.25 9.25 -1.35 9.2 -1.55 9.15 -1.7 9.1 -1.8 9.05 -2.05 9.05 -2.25 9.05 -2.5 9.05 -2.6 9.0 -2.75 8.95 -2.85 8.9 -2.9 8.85 -3.0 8.75 -3.05 8.7 -3.1 8.6 -3.2 8.55 -3.35 8.5 -3.45 8.45 -3.55 8.4 -3.65 8.35 -3.7 8.25 -3.8 8.2 -3.9 8.15 -4.0 8.1 -4.1 8.0 -4.15 7.95 -4.25 7.9 -4.3 7.8 -4.4 7.75 -4.5 7.7 -4.55 7.6 -4.6 7.55 -4.65 7.45 -4.7 7.35 -4.75 7.3 -4.75 7.2 -4.8 7.1 -4.85 7.0 -4.9 6.95 -4.9 6.85 -4.9 6.75 -4.9 6.6 -4.85 6.5 -4.8 6.35 -4.75 6.25 -4.8 6.15 -4.8 6.05 -4.8 5.95 -4.75 5.85 -4.75 5.7 -4.65 5.6 -4.65 5.5 -4.7 5.4 -4.75 5.3 -4.8 5.25 -4.8 5.15 -4.85 5.05 -4.9 4.95 -4.9 4.85 -4.95 4.75 -4.95 4.65 -4.95 4.55 -5.0 4.5 -5.05 4.4 -5.05 4.3 -5.1 4.2 -5.1 4.1 -5.1 4.05 -5.15 3.95 -5.15 3.75 -5.15 3.6 -5.15 3.5 -5.15 3.4 -5.15 3.3 -5.2 3.2 -5.2 3.1 -5.15 3.0 -5.15 2.9 -5.15 2.8 -5.15 2.7 -5.2 2.6 -5.2 2.5 -5.25 2.4 -5.25 2.35 -5.3 2.25 -5.3 2.15 -5.3 2.05 -5.3 1.9 -5.3 1.8 -5.3 1.7 -5.35 1.65 -5.35 1.5 -5.35 1.4 -5.3 1.3 -5.25 1.2 -5.2 1.05 -5.25 0.95 -5.25 0.85 -5.25 0.75 -5.2 0.4 -5.05 -0.15 -4.75 -1.7 -4.3 -2.9 -4.15 -3.05 -4.05 -3.2 -3.95 -3.6 -3.8 -3.95 -3.4 -5.05 -3.0 -6.05 -2.8 -6.35 -2.6 -6.65 -2.4 -6.95 -1.85 -7.45 -1.7 -7.55 -1.5 -7.75 -1.4 -7.9 -1.25 -8.05 -1.15 -8.2 -1.0 -8.3 -0.75 -8.5 -0.6 -8.6 -0.4 -8.8 -0.25 -8.9 -0.05 -9.1 0.1 -9.2 0.55 -9.4 0.8 -9.45 1.2 -9.6 1.55 -9.75 2.0 -9.9 2.25 -9.95 2.45 -9.95 2.6 -9.9 2.75 -9.9" fill="#946d5a" fill-rule="evenodd" stroke="none"/>
  </g>
</svg>
