<?xml version="1.0" encoding="UTF-8" standalone="no"?>
<svg xmlns:xlink="http://www.w3.org/1999/xlink" height="13.05px" width="13.0px" xmlns="http://www.w3.org/2000/svg">
  <g transform="matrix(1.0, 0.0, 0.0, 1.0, 6.5, 6.5)">
    <path d="M4.25 4.3 Q2.5 6.05 0.0 6.05 -2.5 6.05 -4.25 4.3 -6.0 2.55 -6.0 0.0 -6.0 -2.5 -4.25 -4.25 -2.5 -6.0 0.0 -6.0 2.5 -6.0 4.25 -4.25 6.0 -2.5 6.0 0.0 6.0 2.55 4.25 4.3" fill="#7085a9" fill-rule="evenodd" stroke="none"/>
    <path d="M4.25 4.3 Q2.5 6.05 0.0 6.05 -2.5 6.05 -4.25 4.3 -6.0 2.55 -6.0 0.0 -6.0 -2.5 -4.25 -4.25 -2.5 -6.0 0.0 -6.0 2.5 -6.0 4.25 -4.25 6.0 -2.5 6.0 0.0 6.0 2.55 4.25 4.3 Z" fill="none" stroke="#333333" stroke-linecap="round" stroke-linejoin="round" stroke-width="1.0"/>
  </g>
</svg>
