<?xml version="1.0" encoding="UTF-8" standalone="no"?>
<svg xmlns:xlink="http://www.w3.org/1999/xlink" height="11.25px" width="14.45px" xmlns="http://www.w3.org/2000/svg">
  <g transform="matrix(1.0, 0.0, 0.0, 1.0, 6.8, 5.65)">
    <path d="M3.9 -4.65 L3.95 -4.6 4.25 -4.55 4.45 -4.55 4.6 -4.45 4.8 -4.4 4.95 -4.35 5.1 -4.25 5.2 -4.15 5.3 -4.05 5.35 -4.0 5.35 -3.9 5.4 -3.8 5.45 -3.7 5.45 -3.6 5.45 -3.5 5.55 -3.4 5.6 -3.3 5.7 -3.25 5.75 -3.15 5.8 -3.05 5.8 -2.95 5.85 -2.85 5.85 -2.75 5.85 -2.65 5.85 -2.55 5.85 -2.5 5.9 -2.4 5.95 -2.3 5.95 -2.1 5.95 -1.9 5.95 -1.05 5.95 -0.3 5.95 0.7 5.95 1.85 6.0 1.95 6.05 2.0 6.1 2.1 6.15 2.2 6.2 2.3 6.2 2.4 6.2 2.5 6.2 2.6 6.25 2.7 6.3 2.75 6.3 2.85 6.35 2.95 6.35 3.05 6.35 3.15 6.35 3.25 6.35 3.35 6.35 3.45 6.35 3.6 6.35 3.8 6.35 4.0 6.3 4.1 6.25 4.2 6.2 4.25 6.15 4.35 5.9 4.65 5.65 4.8 5.35 4.85 1.2 4.9 0.95 4.95 -2.05 5.1 -2.4 5.1 -3.2 4.95 -3.3 4.85 -3.4 4.75 -3.45 4.65 -3.5 4.55 -3.5 4.45 -3.6 4.45 -3.7 4.45 -4.0 4.5 -4.15 4.55 -4.2 4.65 -4.4 4.75 -4.55 4.8 -4.75 4.85 -4.9 4.85 -5.1 4.8 -5.3 4.75 -5.45 4.65 -5.55 4.55 -5.6 4.45 -5.7 4.35 -5.7 4.25 -5.75 4.2 -5.75 4.1 -5.75 4.0 -5.75 3.9 -5.7 3.5 -5.7 3.15 -5.7 2.95 -5.7 2.7 -5.7 2.6 -6.0 2.55 -6.2 2.5 -6.3 2.5 -6.3 -3.8 -6.25 -3.9 -6.2 -4.0 -6.1 -4.1 -5.85 -4.4 -5.55 -4.65 -5.35 -4.85 -5.2 -4.9 -5.05 -4.95 -4.85 -5.0 -1.7 -5.3 -1.5 -5.3 -0.75 -5.3 0.1 -5.25 0.85 -5.25 1.6 -5.2 1.8 -5.15 1.9 -5.05 1.95 -5.05 2.15 -4.95 2.35 -4.9 2.5 -4.85 2.6 -4.75 2.65 -4.65 3.1 -4.6 3.3 -4.65 3.4 -4.65 3.6 -4.7 3.8 -4.65 3.9 -4.65" fill="#cc3300" fill-rule="evenodd" stroke="none"/>
    <path d="M4.1 -4.8 L4.7 -4.75 5.1 -4.6 5.2 -4.5 5.3 -4.4 5.35 -4.3 5.35 -4.25 5.4 -4.15 5.45 -4.05 5.45 -3.95 5.4 -3.85 5.35 -3.75 5.35 -3.65 5.25 -3.55 5.2 -3.5 2.65 -3.4 Q0.6 -3.65 -1.2 -3.4 L-3.05 -3.1 -3.15 -3.0 -3.25 -2.9 -3.3 -2.8 -3.3 -2.75 -3.3 -2.65 -3.3 -2.55 -3.3 -2.45 -3.3 -2.35 -3.25 -2.25 -3.15 -2.15 -3.1 -2.05 -3.05 -2.0 -3.0 -1.9 -2.95 -1.8 -2.95 -1.7 -2.9 -1.6 -2.9 -1.5 -2.85 -1.4 -2.85 -0.95 -2.85 0.2 -2.85 0.95 -2.85 1.0 -2.85 1.1 -2.9 2.25 -2.95 2.35 -3.0 2.5 -3.05 2.7 -3.1 2.9 -3.15 3.25 -3.2 3.35 -3.2 3.45 -3.2 3.55 -3.2 3.65 -3.25 3.75 -3.3 3.85 -3.35 3.9 -3.4 4.0 -3.5 4.1 -3.65 4.2 -3.8 4.25 -4.0 4.3 -4.2 4.25 -4.4 4.2 -4.55 4.1 -4.6 4.0 -4.7 3.95 -4.75 3.85 -4.8 3.75 -4.8 3.65 -4.8 3.55 -4.8 3.45 -4.9 3.35 -4.95 3.25 -4.95 3.2 -4.95 3.1 -4.95 3.0 -4.95 2.9 -4.95 2.8 -5.0 2.7 -5.05 2.6 -5.05 2.5 -5.05 2.45 -5.05 2.35 -5.05 2.25 -5.05 2.15 -5.1 2.05 -5.1 1.95 -5.15 1.75 -5.15 1.6 -5.2 1.5 -5.25 1.4 -5.3 1.3 -5.3 1.2 -5.35 1.1 -5.4 1.0 -5.4 0.95 -5.4 0.85 -5.4 0.75 -5.4 0.65 -5.4 0.55 -5.4 0.45 -5.4 0.25 -5.4 0.1 -5.4 0.0 -5.45 -0.1 -5.45 -0.2 -5.45 -0.3 -5.5 -0.4 -5.5 -0.5 -5.5 -0.65 -5.55 -0.85 -5.55 -1.05 -5.55 -1.4 -5.55 -1.5 -5.6 -1.6 -5.7 -1.7 -5.8 -1.8 -5.95 -1.9 -6.15 -2.0 -6.2 -2.05 -6.3 -2.15 -6.35 -2.25 -6.4 -2.35 -6.45 -2.45 -6.45 -2.55 -6.45 -2.65 -6.45 -2.7 -6.4 -2.8 -6.4 -2.9 -6.4 -3.0 -6.35 -3.1 -6.3 -3.2 -6.2 -3.3 -6.1 -3.4 -6.1 -3.45 -6.15 -3.55 -6.15 -3.65 -6.15 -3.75 -6.15 -3.85 -6.15 -3.95 -6.15 -4.05 -6.15 -4.15 -6.05 -4.25 -6.0 -4.3 -5.9 -4.4 -5.8 -4.5 -5.4 -4.55 -3.3 -4.65 -2.9 -4.7 3.6 -4.8 4.1 -4.8" fill="#ffffff" fill-opacity="0.15294118" fill-rule="evenodd" stroke="none"/>
    <path d="M-5.2 -3.9 L-5.15 -4.0 -5.05 -4.0 -4.9 -4.0 -4.9 -4.05 -4.7 -3.95 -4.5 -3.9 -4.4 -3.8 -4.35 -3.7 -4.3 -3.6 -4.3 -3.5 -4.3 -3.4 -4.25 -3.3 -4.25 -3.25 -4.3 -3.15 -4.25 -3.05 -4.2 -2.95 -4.2 -1.0 -4.2 1.35 -4.2 2.95 -4.3 3.05 -4.3 3.15 -4.4 3.25 -4.55 3.35 -4.65 3.4 -4.7 3.45 -4.9 3.45 -5.2 3.4 -5.35 3.3 -5.45 3.2 -5.55 3.1 -5.6 3.0 -5.65 0.95 -5.6 -1.4 -5.55 -3.05 -5.55 -3.15 -5.45 -3.25 -5.4 -3.35 -5.4 -3.45 -5.4 -3.55 -5.4 -3.65 -5.35 -3.75 -5.2 -3.9" fill="#ffffff" fill-opacity="0.15294118" fill-rule="evenodd" stroke="none"/>
    <path d="M4.25 -4.65 L4.8 -4.6 5.1 -4.5 5.3 -4.4 5.55 -4.2 5.75 -4.0 5.85 -3.85 5.9 -3.75 6.05 -3.65 6.1 -3.55 6.1 -3.5 6.15 -3.4 6.2 -3.3 6.2 -3.2 6.2 -3.1 6.2 -3.0 6.3 -2.9 6.45 -2.7 6.6 -2.55 6.8 -2.35 6.95 -2.05 7.0 -2.0 7.05 -1.7 7.15 -1.05 7.1 -0.1 7.05 0.85 7.05 1.0 7.05 1.1 6.95 1.3 6.9 1.5 6.85 1.7 6.8 1.85 6.7 2.05 6.65 2.15 6.6 2.25 6.6 2.35 6.55 2.45 6.5 2.5 6.45 2.6 6.45 2.7 6.4 2.8 6.35 2.9 6.3 3.0 6.25 3.1 6.2 3.2 6.1 3.25 6.05 3.35 6.05 3.45 6.05 3.55 6.0 3.65 5.95 3.75 5.9 3.85 5.85 3.95 5.75 4.0 5.6 4.1 5.45 4.15 5.25 4.2 5.05 4.15 4.85 4.1 4.7 4.0 4.65 3.95 4.55 3.85 4.5 3.75 4.45 3.65 4.35 3.65 4.2 3.7 4.0 3.75 3.8 3.7 3.6 3.65 3.0 3.6 1.65 3.5 1.45 3.45 1.3 3.35 1.2 3.25 1.1 3.2 1.0 3.15 0.3 3.1 0.1 3.05 -0.05 2.95 -0.15 2.85 -0.25 2.75 -0.3 2.7 -0.35 2.6 -0.4 2.5 -0.4 2.4 -0.4 2.3 -0.4 2.0 -0.4 1.75 -0.4 1.35 -0.4 0.9 -0.4 0.8 -0.4 0.7 -0.3 0.35 -0.2 -0.15 -0.1 -0.8 -0.05 -1.35 0.0 -1.45 0.0 -1.55 0.05 -1.65 0.05 -1.75 0.1 -1.8 0.1 -1.9 0.15 -2.1 0.15 -2.2 0.2 -2.3 0.25 -2.4 0.3 -2.5 0.3 -2.55 0.35 -2.65 0.35 -2.75 0.6 -3.25 Q0.95 -3.9 1.65 -4.2 L3.5 -4.7 4.25 -4.65" fill="#663333" fill-opacity="0.15294118" fill-rule="evenodd" stroke="none"/>
    <path d="M3.3 -3.6 L3.4 -3.65 3.65 -3.7 3.75 -3.8 3.95 -3.95 4.1 -4.05 4.3 -4.25 4.45 -4.3 4.55 -4.35 4.75 -4.35 5.1 -4.4 5.35 -4.4 5.55 -4.35 5.7 -4.3 5.95 -4.25 6.1 -4.15 6.2 -4.05 6.3 -3.95 6.3 -3.85 6.35 -3.75 6.4 -3.65 6.45 -3.55 6.45 -3.5 6.5 -3.4 6.55 -3.3 6.55 -3.2 6.55 -2.35 6.5 -0.85 6.35 0.65 6.35 0.75 6.3 0.85 6.3 0.95 6.25 1.0 6.2 1.1 6.15 1.3 6.05 1.6 6.0 1.7 5.95 1.75 5.9 1.85 5.85 1.95 5.85 2.05 5.8 2.25 5.75 2.35 5.7 2.5 5.6 2.8 5.6 2.9 5.55 3.0 5.55 3.05 6.1 3.15 6.3 3.2 6.35 3.2 6.5 3.2 6.65 3.2 6.85 3.15 7.1 3.2 7.25 3.25 7.4 3.25 7.55 3.25 7.65 3.35 7.65 3.45 7.6 3.5 7.45 3.6 7.45 3.7 7.45 3.8 7.4 3.9 7.35 4.0 7.3 4.1 7.25 4.2 7.1 4.25 6.85 4.35 6.65 4.4 6.55 4.5 6.35 4.6 6.1 4.65 5.35 4.7 4.95 4.6 4.4 4.45 4.0 4.3 2.45 4.15 Q1.55 3.8 1.2 2.95 L1.15 2.85 1.15 2.75 1.15 2.65 1.15 2.55 1.1 2.45 1.05 2.35 1.05 2.25 1.0 1.8 1.0 0.85 1.05 -0.15 1.05 -0.45 1.1 -0.65 1.15 -0.8 1.25 -1.2 1.4 -1.65 1.45 -1.75 1.5 -1.85 1.55 -1.95 1.55 -2.05 1.8 -2.4 2.6 -3.2 3.3 -3.6" fill="#663333" fill-opacity="0.15294118" fill-rule="evenodd" stroke="none"/>
    <path d="M4.35 -5.05 L5.5 -5.0 5.7 -5.0 5.85 -4.95 6.0 -4.85 6.1 -4.75 6.25 -4.55 6.4 -4.4 6.55 -4.1 6.6 -4.0 6.65 -3.9 6.7 -3.8 6.7 -3.75 6.7 -3.65 6.75 -3.55 6.8 -3.45 6.8 -3.15 6.8 -1.95 6.7 -0.45 6.5 0.5 6.45 0.6 6.4 0.7 6.35 0.75 6.35 0.85 6.3 0.95 6.3 1.05 6.3 1.15 6.3 1.35 6.25 1.5 6.2 1.8 6.15 2.0 6.1 2.1 6.05 2.2 6.05 2.25 6.05 2.35 6.05 2.45 6.05 2.55 6.05 2.75 6.05 2.8 6.2 2.85 6.35 2.9 6.55 3.0 6.6 3.1 6.7 3.2 6.8 3.25 6.9 3.35 7.0 3.45 7.05 3.55 7.1 3.65 7.1 3.75 7.15 3.85 7.2 3.95 7.2 4.0 7.2 4.1 7.2 4.2 7.15 4.3 7.1 4.4 7.1 4.5 7.05 4.6 7.0 4.7 6.9 4.75 6.8 4.85 6.65 4.95 6.55 4.95 6.35 5.0 6.15 4.95 5.95 4.9 5.8 4.8 5.7 4.7 5.6 4.6 5.55 4.55 2.85 4.3 2.7 4.25 1.85 4.35 Q1.4 4.3 1.05 4.05 L0.95 3.95 0.9 3.85 0.8 3.75 0.8 3.7 0.75 3.6 0.75 3.5 0.65 3.4 0.45 3.3 0.2 3.2 0.05 3.1 -0.05 3.0 -0.2 2.85 -0.4 2.65 -0.65 2.35 -0.7 2.3 -0.75 2.2 -0.8 2.1 -0.85 2.0 -0.9 1.9 -0.9 1.8 -0.95 1.7 -0.95 1.6 -0.95 1.5 -1.0 0.75 -0.95 -0.35 -0.7 -1.5 -0.65 -1.55 -0.4 -2.05 0.15 -2.8 0.65 -3.25 0.8 -3.35 1.1 -3.55 1.35 -3.7 1.45 -3.75 1.55 -3.75 2.35 -3.8 2.8 -3.85 2.85 -3.9 2.95 -4.0 3.2 -4.3 3.6 -4.7 3.95 -4.95 4.15 -5.0 4.35 -5.0 4.35 -5.05 M4.7 -3.3 L4.8 -3.2 4.9 -3.15 4.95 -3.05 5.0 -2.95 5.05 -2.85 5.05 -2.75 5.15 -2.7 5.2 -2.75 5.2 -2.8 5.2 -2.9 5.2 -3.0 5.2 -3.1 5.2 -3.2 5.2 -3.3 5.15 -3.4 4.6 -3.45 4.55 -3.4 4.7 -3.3 M1.55 -0.85 L1.55 -0.75 1.5 -0.65 1.45 -0.55 1.4 -0.5 1.35 -0.4 1.35 -0.3 1.35 -0.2 1.35 -0.1 1.35 0.0 1.45 -0.05 1.5 -0.15 1.55 -0.25 1.55 -0.45 1.55 -0.65 1.6 -0.8 1.55 -0.85" fill="#663333" fill-opacity="0.15294118" fill-rule="evenodd" stroke="none"/>
    <path d="M3.85 -4.4 L4.2 -4.3 4.35 -4.25 4.45 -4.15 4.65 -4.15 4.85 -4.25 6.1 -4.4 6.3 -4.35 6.45 -4.3 6.6 -4.2 6.7 -4.1 6.75 -4.0 6.8 -3.9 6.85 -3.8 6.85 -3.75 6.85 -3.65 6.85 -3.55 6.85 -3.35 6.85 -3.15 6.85 -3.05 6.9 -3.0 6.95 -2.9 7.0 -2.8 7.2 -1.85 7.25 -0.8 6.9 1.25 6.5 2.45 6.45 2.55 6.4 2.65 6.35 2.75 6.35 2.85 6.3 2.95 6.3 3.0 6.2 3.1 6.1 3.3 5.8 3.7 5.6 3.85 5.45 4.05 5.45 4.15 5.45 4.25 5.45 4.35 5.4 4.45 5.35 4.5 5.35 4.6 5.3 4.7 5.25 4.8 5.15 4.9 5.1 5.0 4.95 5.1 4.85 5.15 Q4.15 5.4 3.45 5.15 L2.4 4.9 1.6 4.6 1.45 4.65 1.3 4.7 0.65 4.7 0.45 4.65 0.3 4.55 0.2 4.45 0.15 4.35 0.05 4.25 0.05 4.2 0.0 4.1 -0.05 4.0 -0.15 3.9 -0.15 3.8 -0.2 3.7 -0.2 3.6 -0.25 3.5 -0.25 3.45 -0.5 3.25 -0.95 2.8 -1.3 2.4 -1.4 2.3 -1.65 2.0 -1.7 1.95 -1.8 1.75 -1.95 1.45 -2.0 1.35 -2.05 1.2 -2.15 1.1 -2.15 1.0 -2.2 0.9 -2.2 0.8 -2.2 0.5 -2.2 -0.15 -2.2 -0.3 -2.2 -1.0 -2.2 -1.9 -2.2 -2.0 -2.15 -2.1 -2.15 -2.2 -2.1 -2.3 -2.05 -2.4 -2.0 -2.5 -1.95 -2.55 -1.95 -2.65 -1.9 -2.75 -1.85 -2.85 -1.75 -3.05 -1.5 -3.3 -1.4 -3.4 -0.45 -3.85 1.65 -4.0 1.8 -4.05 1.95 -4.15 2.1 -4.25 2.3 -4.3 2.75 -4.35 3.25 -4.4 3.85 -4.4 M0.05 -2.3 L-0.15 -2.2 -0.3 -2.15 -0.4 -2.05 -0.45 -1.95 -0.5 -1.85 -0.55 -1.75 -0.55 -1.65 -0.6 -1.55 -0.6 -1.1 -0.6 -0.35 -0.6 0.4 -0.55 0.5 -0.5 0.55 -0.45 0.5 -0.45 0.3 -0.45 0.0 -0.45 -0.35 -0.45 -0.55 -0.45 -0.75 -0.35 -1.1 -0.2 -1.6 -0.15 -1.75 -0.1 -1.85 -0.05 -1.95 -0.05 -2.05 0.0 -2.15 0.05 -2.2 0.1 -2.3 0.1 -2.35 0.05 -2.3 M1.6 -0.25 L1.45 0.4 1.4 1.15 1.4 1.7 1.55 0.8 1.75 -0.1 1.8 -0.75 1.75 -0.65 1.7 -0.55 1.7 -0.45 1.65 -0.35 1.6 -0.25" fill="#663333" fill-opacity="0.15294118" fill-rule="evenodd" stroke="none"/>
    <path d="M4.1 -5.4 L4.3 -5.35 5.55 -4.95 6.05 -4.9 6.15 -4.85 6.3 -4.75 6.55 -4.6 6.6 -4.55 6.65 -4.45 6.7 -4.4 6.7 -4.3 6.75 -4.25 6.7 -4.2 6.7 -4.1 6.7 -4.0 6.65 -3.95 6.7 -3.8 6.8 -3.55 6.8 -3.5 6.75 -3.45 6.75 -3.35 6.7 -3.2 6.7 -3.1 6.75 -0.2 6.8 3.05 6.75 5.0 6.7 5.05 6.6 5.2 6.45 5.4 6.3 5.55 6.2 5.6 6.05 5.55 5.95 5.45 5.9 5.4 5.85 5.3 5.75 5.15 5.65 5.0 5.6 2.1 5.6 2.0 5.45 1.95 5.35 1.85 5.25 1.8 5.2 1.7 5.15 -0.35 5.2 -2.5 5.3 -3.7 4.65 -3.9 4.45 -4.0 4.35 -4.05 4.2 -4.15 3.8 -4.2 3.15 -4.35 2.65 -4.5 -2.5 -4.45 -5.6 -4.0 -5.6 -3.9 -5.6 -3.85 -5.6 -3.75 -5.4 -1.45 -5.4 1.1 -5.5 2.75 -5.55 2.8 -5.6 2.9 -5.65 2.95 -5.65 3.05 -5.75 3.6 -5.7 4.35 -5.8 5.1 -5.85 5.15 -5.9 5.2 -5.9 5.3 -6.0 5.3 -6.1 5.35 -6.25 5.3 -6.35 5.2 -6.4 5.15 -6.45 4.6 -6.45 3.85 -6.5 3.1 -6.55 3.05 -6.6 2.95 -6.65 2.85 -6.65 2.8 -6.8 0.5 -6.75 -2.05 -6.65 -3.7 -6.6 -3.8 -6.6 -3.85 -6.6 -3.95 -6.6 -4.0 -6.55 -4.1 -6.55 -4.25 -6.6 -4.35 -6.6 -4.45 -6.55 -4.55 -6.55 -4.6 -6.5 -4.7 -6.4 -4.75 -6.3 -4.85 -6.1 -4.9 -5.3 -5.1 -4.75 -5.3 -4.6 -5.3 -1.6 -5.6 -0.4 -5.65 2.6 -5.6 3.25 -5.55 3.75 -5.4 3.8 -5.4 4.1 -5.4" fill="#333333" fill-rule="evenodd" stroke="none"/>
    <path d="M3.4 -1.15 L4.5 -1.15 4.65 -1.1 5.5 -1.05 5.7 -1.0 5.85 -0.9 5.9 -0.8 5.9 -0.7 5.9 -0.6 5.9 -0.5 5.85 -0.45 5.75 -0.35 5.65 -0.25 4.85 -0.25 3.4 -0.4 2.75 -0.6 2.7 -0.7 2.65 -0.8 2.65 -0.9 2.65 -1.0 2.65 -1.1 2.75 -1.15 2.85 -1.25 3.0 -1.25 3.25 -1.2 3.4 -1.15" fill="#333333" fill-rule="evenodd" stroke="none"/>
    <path d="M6.5 0.45 L6.55 0.55 6.6 0.65 6.55 0.75 6.5 0.8 6.4 0.9 6.25 0.9 3.35 1.0 3.15 1.05 3.05 1.05 3.0 1.0 2.75 1.0 2.6 0.9 2.55 0.8 2.55 0.75 2.6 0.65 2.65 0.6 2.75 0.55 3.05 0.5 3.25 0.4 3.35 0.3 3.5 0.3 3.5 0.25 5.5 0.25 6.25 0.3 6.4 0.35 6.5 0.45" fill="#333333" fill-rule="evenodd" stroke="none"/>
  </g>
</svg>
