<?xml version="1.0" encoding="UTF-8" standalone="no"?>
<svg xmlns:xlink="http://www.w3.org/1999/xlink" height="162.15px" width="163.2px" xmlns="http://www.w3.org/2000/svg">
  <g transform="matrix(1.0, 0.0, 0.0, 1.0, 81.6, 80.55)">
    <path d="M1.05 -47.7 L1.25 -47.35 1.45 -46.9 1.6 -46.55 1.75 -46.15 1.9 -45.8 2.3 -45.0 2.55 -44.6 2.65 -44.2 2.7 -43.8 2.95 -43.4 2.9 -43.05 2.95 -42.3 2.9 -41.55 2.8 -40.4 2.75 -39.65 2.65 -38.9 2.65 -38.55 2.55 -37.45 2.4 -37.05 2.2 -36.7 2.05 -36.35 1.9 -36.0 1.75 -35.6 1.45 -35.25 1.3 -34.9 1.15 -34.55 0.7 -33.85 -0.2 -32.75 -1.6 -31.35 -2.75 -30.35 -3.25 -30.05 -4.75 -29.05 -5.35 -28.7 -5.9 -28.4 -6.8 -28.05 -8.5 -27.5 Q-9.2 -27.2 -9.95 -27.0 L-10.7 -26.8 -11.0 -26.45 -11.05 -26.05 -11.15 -25.7 -11.4 -25.35 -11.6 -25.0 -12.0 -24.65 -12.3 -24.3 -12.7 -23.95 -13.1 -23.65 -13.65 -23.3 -14.7 -22.75 -18.35 -22.85 Q-20.55 -23.4 -22.3 -24.75 L-23.0 -25.25 -23.6 -25.65 Q-25.4 -27.05 -26.7 -28.95 L-28.55 -29.35 -29.9 -29.75 -30.85 -30.05 -32.1 -30.55 -32.65 -30.95 -33.35 -31.8 -34.05 -32.6 -35.25 -34.25 -35.9 -35.4 -36.15 -35.8 -36.35 -36.2 -36.8 -37.0 -36.85 -37.35 -36.95 -37.75 -37.05 -38.15 -37.1 -38.5 -37.15 -38.9 -37.2 -39.25 -37.4 -40.05 -37.35 -40.4 -37.3 -41.15 -37.25 -41.55 -37.2 -42.3 -37.1 -43.4 -37.05 -43.75 -36.9 -44.5 -36.7 -44.85 -36.45 -45.25 -36.15 -45.6 -35.85 -45.95 -35.55 -46.25 -34.8 -46.95 -34.75 -47.35 -34.7 -48.1 -34.65 -48.85 -34.45 -49.95 -34.2 -50.7 -34.0 -51.4 -33.85 -51.8 -33.7 -52.15 -33.5 -52.45 -33.15 -52.85 -32.85 -53.2 -32.45 -53.55 -31.8 -53.85 -31.25 -54.05 -30.65 -54.1 -29.9 -54.15 -29.9 -54.2 -27.9 -53.9 -26.2 -53.4 -24.5 -52.55 -23.9 -52.15 -23.55 -51.75 -23.25 -51.35 -22.6 -51.3 -20.05 -51.7 -12.35 -51.05 -11.95 -51.0 -11.45 -51.1 -10.95 -51.15 -10.45 -51.25 -9.8 -51.35 -9.05 -51.5 -8.4 -51.8 -7.5 -52.0 -6.75 -51.65 -6.4 -51.4 -5.3 -51.05 -3.7 -50.6 Q-2.35 -50.2 -1.2 -49.45 L0.6 -48.15 1.05 -47.7" fill="#483e32" fill-opacity="0.101960786" fill-rule="evenodd" stroke="none"/>
    <path d="M-30.5 -51.6 Q-29.2 -52.4 -27.75 -52.45 L-21.9 -52.35 -21.8 -53.1 -21.8 -53.5 -21.75 -53.85 -21.65 -54.6 -21.5 -55.35 -21.35 -55.7 -21.15 -56.05 -20.9 -56.4 -20.6 -56.75 -20.2 -57.1 -19.8 -57.45 -19.15 -57.75 -18.25 -57.95 -17.5 -57.95 -17.5 -58.0 -17.0 -57.95 -16.25 -57.75 -15.65 -57.55 -14.95 -57.3 -14.45 -56.85 -13.85 -56.45 -13.55 -56.05 -11.85 -54.75 -10.9 -53.85 -10.3 -53.1 -10.05 -52.7 -9.95 -52.35 -9.85 -51.95 -9.8 -51.55 -9.8 -51.2 -9.9 -50.8 -10.0 -50.45 -10.05 -50.05 -10.3 -49.7 -10.5 -49.35 -10.75 -49.0 -11.05 -48.65 -11.45 -48.3 -12.1 -48.0 -12.5 -47.8 -13.15 -47.7 -13.9 -47.7 -14.5 -47.7 -14.65 -45.85 Q-14.75 -44.9 -15.15 -44.0 L-15.8 -41.8 -16.35 -39.6 -16.6 -39.2 -16.8 -38.9 -17.05 -38.5 -17.35 -38.2 -17.75 -37.8 -19.1 -37.2 -20.0 -36.95 -21.4 -36.65 -21.55 -36.3 -21.8 -35.9 -21.95 -35.55 -22.15 -35.2 Q-22.8 -34.0 -23.75 -33.0 L-26.05 -31.05 Q-28.15 -29.45 -30.7 -28.8 L-31.35 -28.7 -32.25 -28.55 -33.85 -27.2 -35.55 -25.9 Q-36.65 -25.15 -37.85 -24.5 L-44.25 -24.85 -45.1 -25.15 -45.7 -25.6 -46.05 -26.0 -46.35 -26.4 -46.6 -26.8 -46.8 -27.2 -46.9 -27.55 -47.0 -27.95 -47.2 -28.35 -47.3 -29.45 -47.3 -30.6 -47.1 -31.75 -46.9 -32.85 -46.6 -33.95 -46.4 -34.3 -46.15 -34.65 -46.0 -35.0 -45.85 -35.4 -45.7 -35.75 -45.5 -36.1 -45.35 -36.45 -45.1 -36.8 -44.8 -37.2 -44.6 -37.5 -44.35 -37.9 -44.1 -38.25 -43.9 -38.6 Q-43.6 -39.15 -43.7 -39.75 L-43.75 -40.45 -43.6 -41.6 -43.45 -42.3 -43.0 -43.4 -43.15 -43.75 -43.55 -44.25 -43.85 -44.65 -44.1 -45.0 -44.35 -45.4 -44.3 -45.8 -44.25 -46.15 -44.25 -46.55 -44.05 -46.9 -43.75 -47.25 -43.4 -47.6 -43.1 -47.95 -42.85 -48.15 -42.55 -48.25 -41.8 -48.45 -40.9 -48.65 -40.2 -48.3 -39.85 -47.9 -39.6 -47.75 -39.0 -47.7 -37.45 -48.65 -35.85 -49.8 -34.45 -50.7 -33.65 -51.25 -32.9 -51.4 -32.1 -51.5 -30.5 -51.6" fill="#483e32" fill-opacity="0.101960786" fill-rule="evenodd" stroke="none"/>
    <path d="M0.85 -35.95 L1.35 -35.6 1.7 -35.25 2.0 -34.9 2.1 -34.5 2.25 -34.15 2.35 -33.75 2.35 -33.4 2.25 -33.0 2.25 -32.65 2.0 -32.25 1.85 -31.9 1.45 -31.15 1.2 -30.8 0.35 -30.0 0.1 -29.75 -0.25 -29.65 -1.15 -29.5 -1.65 -29.15 -2.25 -28.9 -3.0 -28.75 -3.75 -28.9 -4.65 -29.15 -5.25 -29.5 -6.65 -30.2 Q-7.6 -30.7 -8.45 -31.3 L-9.15 -31.75 -9.5 -32.15 -9.9 -32.5 -10.4 -32.85 -11.15 -33.25 -11.5 -33.65 -11.9 -34.0 -12.0 -34.4 -12.15 -34.75 -12.25 -35.15 -12.4 -35.5 -12.5 -35.9 -12.65 -36.25 -12.75 -36.65 -12.75 -37.0 -12.75 -37.4 -12.75 -38.15 -12.75 -38.9 -12.75 -39.6 -12.65 -40.4 -12.5 -40.75 -12.25 -41.1 -11.85 -41.5 -11.4 -41.9 -10.75 -42.15 -10.0 -42.2 -10.0 -42.25 -7.5 -42.25 -6.5 -42.0 -5.75 -41.65 -5.4 -41.25 -4.7 -40.8 -3.05 -39.7 Q-2.1 -39.15 -1.5 -38.25 L0.1 -36.4 0.85 -35.95" fill="#e7e0dc" fill-rule="evenodd" stroke="none"/>
    <path d="M8.35 -56.25 L8.75 -56.65 9.15 -57.0 9.5 -57.25 10.25 -57.45 12.35 -57.8 13.6 -57.95 15.0 -58.25 17.2 -58.0 19.25 -57.55 Q20.6 -57.15 21.75 -56.4 L22.5 -55.65 23.25 -54.9 24.1 -54.15 25.1 -53.0 25.6 -52.25 25.75 -51.9 25.85 -51.5 26.0 -51.15 26.1 -50.75 26.25 -50.4 26.35 -50.0 26.6 -49.25 26.75 -49.1 27.35 -49.15 27.75 -49.5 28.25 -49.85 28.75 -50.15 29.25 -50.25 30.0 -50.4 30.75 -50.2 31.5 -50.0 32.1 -49.65 32.45 -49.25 32.75 -48.9 33.0 -48.5 33.1 -48.15 33.25 -47.75 33.35 -47.4 33.35 -47.0 33.35 -46.65 33.4 -46.25 33.5 -45.9 33.6 -45.5 33.75 -45.3 34.25 -45.15 34.75 -45.0 35.25 -44.85 36.0 -44.65 36.6 -44.25 37.1 -43.85 37.35 -43.65 37.5 -43.55 38.5 -43.35 39.25 -43.2 40.0 -43.0 40.6 -42.65 40.95 -42.25 41.25 -41.9 41.5 -41.5 41.6 -41.15 41.75 -40.75 41.85 -40.35 41.85 -40.0 41.85 -39.65 41.75 -39.25 41.6 -38.9 41.5 -38.5 41.35 -38.15 41.35 -37.75 41.35 -37.0 41.35 -36.65 41.35 -36.25 41.35 -35.5 41.3 -34.4 41.25 -33.65 40.85 -32.9 40.3 -32.15 39.25 -31.0 37.35 -29.15 Q36.85 -28.65 36.5 -28.0 L35.85 -27.65 34.45 -26.9 33.5 -26.55 31.75 -26.0 31.0 -25.65 30.25 -25.3 29.25 -24.85 28.35 -24.5 27.85 -24.15 27.75 -23.75 27.6 -23.4 27.5 -23.0 27.35 -22.65 27.25 -22.25 27.0 -21.9 26.85 -21.5 26.75 -21.15 25.05 -18.95 Q22.8 -16.35 19.9 -14.5 16.9 -12.6 13.35 -12.5 L11.35 -11.0 8.05 -8.65 Q6.0 -7.25 3.75 -6.25 L2.25 -5.85 -4.0 -5.45 Q-5.55 -5.65 -6.75 -6.65 -7.9 -6.9 -8.8 -7.55 L-10.75 -8.8 Q-12.3 -9.7 -13.5 -11.0 L-14.15 -11.75 -14.3 -12.1 -14.5 -12.5 -14.65 -12.9 -14.75 -13.25 -14.9 -13.65 -15.0 -14.0 -15.15 -14.4 -15.35 -14.75 -15.55 -15.1 -15.75 -15.5 -15.9 -15.9 -16.0 -16.65 -16.0 -17.4 -16.0 -18.15 -16.0 -19.65 -16.05 -21.15 -15.9 -22.65 -15.75 -23.0 -15.5 -23.4 -15.5 -23.75 -15.4 -24.15 -15.35 -24.5 -15.25 -24.9 -15.15 -25.25 -15.0 -25.65 -14.9 -26.0 -14.05 -27.05 -12.95 -28.35 Q-11.9 -29.6 -10.35 -30.3 L-8.25 -31.25 -7.75 -31.35 -7.0 -31.5 -6.5 -31.5 -5.25 -31.5 -4.75 -31.75 -4.15 -32.15 -3.75 -32.5 -3.6 -32.85 -3.25 -33.6 -3.05 -34.0 -2.65 -34.75 -2.1 -35.85 -1.4 -37.0 -1.3 -37.4 -1.25 -37.75 -1.15 -38.15 -1.0 -38.5 -0.75 -38.9 -0.75 -39.25 -0.75 -39.65 -0.65 -40.0 -0.4 -40.75 -0.25 -41.15 -0.15 -41.5 0.0 -42.25 0.35 -43.4 0.6 -44.15 0.9 -44.5 1.2 -44.9 1.5 -45.25 1.6 -45.65 1.7 -46.0 1.75 -46.35 1.85 -46.75 2.0 -47.15 2.1 -47.5 2.25 -48.25 2.5 -49.0 2.75 -49.4 3.25 -50.15 3.45 -50.5 3.85 -51.25 4.75 -52.35 5.75 -53.5 5.85 -53.9 6.0 -54.25 6.1 -54.65 6.4 -55.0 6.75 -55.35 7.25 -55.75 7.75 -56.0 8.35 -56.25" fill="#e7e0dc" fill-rule="evenodd" stroke="none"/>
    <path d="M11.5 27.15 L12.5 27.35 13.25 27.75 13.6 28.15 13.85 28.5 14.1 28.9 14.25 29.25 14.35 29.6 14.35 30.0 14.35 30.35 14.25 30.75 14.1 31.1 14.1 31.5 14.25 31.85 14.6 32.25 14.9 32.6 15.1 32.85 15.5 32.85 16.25 32.65 17.0 32.55 18.25 32.65 19.0 32.85 19.6 33.25 20.0 33.6 20.35 34.0 20.5 34.35 20.7 34.75 20.85 35.1 20.95 35.5 21.0 35.85 20.95 36.25 20.9 36.6 20.85 37.0 20.65 37.4 20.45 37.75 20.25 38.1 20.0 38.5 19.5 38.9 19.1 39.25 18.7 39.6 18.25 40.0 Q17.95 40.2 17.6 40.35 L17.25 40.75 16.85 41.1 16.5 41.5 Q16.2 41.7 15.85 41.85 L15.25 42.25 14.85 42.6 14.5 43.0 13.85 43.35 13.25 43.75 12.85 44.1 12.5 44.5 Q9.5 46.05 6.25 46.85 L-2.5 46.6 -6.75 46.15 -7.5 46.0 -8.75 45.2 -9.25 44.85 -9.65 44.5 -10.65 43.4 -11.0 43.0 -11.15 42.65 -11.4 42.25 -11.65 41.9 -11.95 41.45 -12.15 41.1 -12.25 40.35 -12.25 39.6 -12.25 38.5 -12.3 36.6 -12.15 35.5 -11.5 34.4 -10.0 32.85 Q-8.6 31.4 -6.65 30.75 L-6.25 30.35 -5.85 30.0 -5.5 29.75 -5.25 29.65 -4.75 29.45 -4.15 29.25 -3.75 28.85 -3.25 28.6 Q-1.15 27.9 1.0 27.75 L9.0 26.5 10.0 26.75 10.6 27.0 11.5 27.15" fill="#e7e0dc" fill-rule="evenodd" stroke="none"/>
    <path d="M41.4 46.35 L41.45 46.75 41.5 47.1 41.5 47.5 41.4 47.6 43.85 47.4 45.6 47.1 46.5 47.05 48.6 47.35 49.25 47.75 49.7 48.15 50.1 48.5 50.35 48.9 50.75 49.6 50.85 50.0 50.9 50.35 50.95 50.75 51.0 51.1 50.95 51.5 50.85 51.85 50.75 52.25 50.6 52.6 50.35 53.0 50.15 53.4 50.0 53.75 50.3 53.75 52.4 52.9 Q53.4 52.45 54.5 52.55 L55.25 52.65 56.1 52.85 56.75 53.25 57.25 53.35 57.75 53.1 58.1 52.75 58.5 52.35 59.1 52.0 59.6 51.75 60.25 51.6 61.0 51.5 61.5 51.55 63.1 51.85 63.75 52.25 64.2 52.65 64.6 53.0 64.85 53.35 65.25 53.6 66.1 53.85 66.75 54.25 67.2 54.65 67.6 55.0 67.85 55.4 68.25 56.1 68.35 56.5 68.4 56.85 68.45 57.25 68.5 57.6 68.5 58.75 68.5 59.1 68.35 59.5 68.25 59.85 68.1 60.25 67.9 60.65 67.7 61.0 67.5 61.35 67.5 61.75 67.5 62.1 67.5 62.5 67.35 62.85 67.25 63.25 67.1 63.6 66.85 64.0 66.6 64.35 66.5 64.75 66.5 65.1 66.5 65.5 66.5 65.85 66.45 66.25 66.35 66.6 66.4 66.95 66.6 67.35 66.75 67.75 66.85 68.1 67.0 68.5 67.0 68.85 66.95 69.25 66.9 69.6 66.85 70.0 66.7 70.35 66.5 70.75 66.3 71.1 65.7 71.8 64.6 72.6 Q17.0 75.75 -30.9 74.1 L-31.15 74.2 -32.15 74.5 -32.65 74.75 -33.65 75.0 -34.15 75.25 -34.75 75.35 -37.5 75.45 Q-38.8 75.25 -39.9 74.6 L-40.25 74.25 -40.6 73.85 -40.9 73.5 -41.15 73.1 -41.4 72.75 -41.5 72.35 -41.65 72.0 -41.75 71.6 -41.9 71.25 -42.0 70.85 -42.15 70.5 -42.15 70.1 -42.15 69.75 -42.1 69.35 -42.0 69.0 -41.85 68.65 -41.6 68.25 -41.25 67.85 -41.35 67.7 -44.0 67.85 -47.25 67.8 -48.1 67.6 -48.9 67.25 -49.25 66.85 -49.6 66.5 -49.9 66.1 -50.15 65.75 -50.25 65.35 -50.4 65.0 -50.5 64.6 -50.55 64.25 -50.65 64.0 -50.65 63.9 -51.25 63.75 -52.1 63.45 -52.9 63.1 -53.25 62.75 -53.6 62.35 -53.9 62.0 -54.15 61.6 -54.25 61.25 -54.3 60.85 -54.4 60.5 -54.5 60.1 -54.5 59.75 -54.5 59.35 -54.5 59.0 -54.4 58.6 -54.4 58.25 -54.25 57.9 -54.0 57.5 -53.75 57.15 -53.4 56.75 -53.3 56.35 -53.25 55.6 -53.25 54.85 -53.25 54.1 -53.25 53.75 -53.25 53.0 -53.25 52.6 -53.4 52.25 -53.5 51.85 -53.65 51.5 -53.75 51.1 -53.75 50.75 -53.75 50.35 -53.75 50.0 -53.65 49.6 -53.65 49.25 -53.4 48.85 Q-53.15 47.95 -53.2 47.0 L-53.25 45.1 -53.05 41.75 -52.5 37.25 Q-52.3 35.7 -51.75 34.25 L-51.75 33.85 -51.75 33.5 -51.75 33.1 -51.75 32.75 -51.75 32.35 -51.65 32.0 -51.5 31.6 -51.4 31.25 -51.1 30.9 -50.8 30.5 -50.5 30.1 -50.4 29.75 -50.4 29.35 -50.4 29.0 -50.4 28.6 -50.4 27.5 -50.4 27.1 -50.4 26.75 -50.25 26.35 -50.15 26.0 -49.95 25.65 -49.65 25.25 -49.35 24.9 -49.0 24.5 -48.4 24.15 -47.9 23.85 -47.25 23.75 -46.5 23.6 -45.75 23.75 -44.9 24.0 -43.9 24.0 Q-41.5 22.85 -38.9 22.35 L-36.75 21.95 Q-28.65 20.8 -21.15 23.5 L-20.65 23.5 -20.4 23.1 -20.25 22.75 -20.0 22.35 -19.9 22.0 -19.75 21.6 -19.65 21.25 -19.5 20.85 -19.4 20.5 -19.15 20.1 -18.85 19.75 -18.55 19.35 -18.25 19.0 -18.15 18.6 -18.0 18.25 -17.2 17.2 -15.65 15.5 -14.6 14.5 Q-12.55 12.75 -10.1 11.55 -8.95 11.0 -8.15 10.0 L-7.25 9.65 -5.25 9.1 -2.75 8.5 -2.0 8.45 -2.0 8.35 1.0 8.5 2.5 8.75 3.1 9.15 3.6 9.5 3.85 9.75 4.0 9.8 8.25 10.2 9.0 10.35 9.6 10.75 10.0 11.1 10.3 11.5 10.5 11.85 10.75 12.0 13.1 12.7 Q14.15 13.05 14.95 13.75 L15.35 14.15 15.85 14.85 16.0 15.25 16.1 15.6 16.2 16.0 16.25 16.25 16.25 16.3 17.1 16.6 17.6 17.0 18.1 17.4 18.45 17.75 18.75 18.1 18.85 18.5 19.0 18.85 19.1 19.25 19.25 19.6 19.25 20.0 19.25 20.35 19.2 20.75 19.15 21.1 19.1 21.5 18.9 21.9 17.85 23.35 16.95 24.1 16.35 24.5 13.1 26.0 12.85 26.35 12.5 26.75 13.0 26.85 13.6 26.75 14.25 26.6 15.0 26.5 15.75 26.65 16.6 26.85 17.25 27.25 17.7 27.65 18.1 28.0 18.25 28.25 18.6 28.2 20.0 28.0 23.6 28.35 24.25 28.75 24.7 29.15 25.1 29.5 25.35 29.9 25.75 30.6 25.85 31.0 25.9 31.35 25.95 31.75 26.0 32.1 26.0 32.5 26.0 32.85 25.85 33.25 25.75 33.6 25.85 33.85 27.2 34.75 Q27.95 35.15 28.35 35.9 L28.5 36.25 28.75 36.6 28.85 37.0 28.9 37.35 28.95 37.75 29.0 38.1 29.05 38.35 Q29.55 38.7 30.1 38.85 L30.75 39.25 31.2 39.65 31.6 40.0 31.85 40.4 32.25 41.1 32.35 41.5 32.4 41.85 32.45 42.25 32.5 42.6 32.45 43.0 32.35 43.35 32.5 43.4 34.25 43.15 Q36.25 42.7 38.25 43.15 L39.1 43.35 39.75 43.75 40.2 44.15 40.6 44.5 40.85 44.9 41.25 45.6 41.35 46.0 41.4 46.35" fill="#e7e0dc" fill-rule="evenodd" stroke="none"/>
    <path d="M56.25 48.35 Q59.1 49.15 61.6 50.7 63.15 51.65 64.6 52.7 L64.95 53.15 65.5 53.95 65.95 54.7 66.4 55.5 66.55 55.9 66.7 56.25 66.9 56.7 67.0 57.05 67.1 57.45 67.2 57.85 67.25 58.2 67.35 58.6 67.45 59.0 67.4 59.35 67.6 59.65 68.2 60.2 68.8 60.6 69.15 61.05 69.4 61.4 69.6 61.8 69.8 62.2 69.9 62.6 70.0 62.95 70.1 63.35 70.2 63.75 70.25 64.1 70.35 64.5 70.45 64.9 70.45 65.25 70.45 66.0 70.4 66.75 70.35 67.5 70.3 67.9 70.3 68.25 70.2 69.0 70.15 69.75 70.1 70.15 69.95 70.5 69.85 70.85 69.75 71.2 69.65 71.6 69.55 71.95 69.45 72.35 69.25 72.7 69.25 73.05 69.35 73.45 69.4 73.85 69.4 74.2 69.3 74.6 69.25 74.95 69.15 75.3 68.9 75.7 68.7 76.0 68.45 76.4 68.15 76.75 67.6 77.05 67.0 77.4 65.8 77.65 65.45 78.05 64.85 78.7 64.3 79.4 64.0 79.75 63.7 80.1 63.3 80.45 62.8 80.8 61.9 81.05 60.85 81.35 59.85 81.5 59.1 81.6 57.1 81.4 Q54.45 81.35 52.05 80.4 L51.3 80.05 50.95 79.65 50.3 78.8 49.6 78.0 49.3 77.6 49.05 77.2 48.85 76.8 48.75 76.55 Q41.15 76.85 33.9 74.85 30.2 73.85 26.95 71.75 L26.6 71.35 25.25 69.7 24.2 68.55 22.75 66.85 20.9 64.45 20.85 64.05 20.75 63.7 20.7 63.3 20.7 62.9 20.55 62.55 20.35 62.15 20.05 61.75 19.95 61.35 19.85 60.95 19.75 60.6 19.8 60.2 19.85 59.45 19.9 58.7 20.0 57.95 20.05 57.6 20.15 57.2 20.25 56.5 20.3 55.75 20.45 55.35 20.6 55.0 20.8 54.65 20.95 54.3 21.1 53.9 21.25 53.55 21.55 53.25 21.95 52.85 22.35 52.55 23.8 51.9 26.85 50.65 Q28.4 50.0 30.1 49.95 L33.5 49.6 34.15 49.3 34.8 48.95 35.35 48.65 36.15 48.35 36.65 48.15 36.9 48.05 37.55 48.0 43.9 48.4 44.3 48.3 45.7 48.05 47.45 47.8 49.0 47.75 50.5 47.6 Q53.45 47.6 56.25 48.35" fill="#483e32" fill-opacity="0.101960786" fill-rule="evenodd" stroke="none"/>
    <path d="M16.55 48.4 L16.8 48.3 17.45 48.25 21.85 48.35 22.1 48.0 22.4 47.65 22.7 47.3 23.1 46.95 23.5 46.6 24.15 46.3 24.65 46.1 25.3 46.05 26.05 46.0 26.05 45.95 27.55 46.1 28.3 46.3 29.15 46.6 29.75 47.0 30.3 47.45 31.15 48.25 32.4 49.5 Q33.05 50.2 33.35 51.05 L33.9 52.3 34.4 52.7 34.95 53.15 35.3 53.55 35.65 53.95 35.85 54.35 36.1 54.75 36.45 54.8 36.8 54.65 37.25 54.35 38.8 53.7 Q41.45 53.0 44.05 53.7 L45.2 54.0 45.65 54.05 47.05 53.7 Q49.2 53.35 51.35 53.7 52.6 53.9 53.65 54.65 L54.65 54.95 55.1 55.15 55.6 55.3 56.45 55.65 57.2 55.95 57.75 56.4 58.2 56.8 58.6 57.2 58.9 57.6 59.5 58.4 59.6 58.8 59.8 59.2 59.9 59.55 59.95 59.95 60.05 60.35 60.15 60.75 60.25 61.1 60.35 61.5 60.3 61.85 60.25 62.25 60.25 62.6 60.2 63.0 60.15 63.35 60.0 64.1 59.95 64.45 59.8 64.85 59.65 65.2 59.5 65.55 59.45 65.95 59.4 66.3 59.4 66.7 59.3 67.45 59.25 68.2 59.2 68.95 59.15 69.3 59.0 69.65 58.85 70.0 58.7 70.4 58.5 70.75 57.95 71.45 56.75 72.8 54.55 74.55 52.7 75.5 51.8 75.65 51.05 75.75 50.3 75.95 49.65 76.25 48.85 76.55 48.05 76.85 47.55 77.05 47.3 77.15 38.45 76.6 36.7 76.1 36.45 76.35 36.15 76.7 35.85 77.05 35.45 77.35 34.4 77.9 34.15 78.05 32.8 78.05 29.55 77.65 28.55 77.4 28.2 77.65 27.6 78.3 26.9 79.0 25.45 80.05 23.6 81.0 Q19.1 82.1 14.5 80.95 11.85 80.25 9.8 78.4 L9.0 77.6 7.85 76.35 Q7.15 75.65 6.75 74.75 L6.2 73.6 6.1 73.2 6.0 72.8 5.9 72.4 5.7 72.05 5.3 70.5 4.75 68.2 Q4.45 66.7 4.65 65.15 L4.9 62.55 4.95 62.15 5.25 61.45 5.6 59.95 5.8 58.5 Q5.9 57.35 6.45 56.25 L6.9 55.2 7.2 54.85 7.5 54.5 7.75 54.15 8.35 53.45 9.05 52.75 9.45 52.4 10.1 52.1 10.85 51.75 11.4 51.55 11.65 51.5 12.4 51.3 12.8 50.95 13.65 50.3 15.0 49.3 Q15.7 48.7 16.55 48.4" fill="#483e32" fill-opacity="0.101960786" fill-rule="evenodd" stroke="none"/>
    <path d="M22.45 47.3 L22.95 46.95 23.75 46.75 24.45 46.75 24.5 46.7 25.2 46.9 25.8 47.2 26.4 47.6 26.75 48.05 26.95 48.4 27.1 48.8 27.3 49.2 27.3 49.55 27.3 49.95 27.3 50.35 27.3 50.7 27.35 51.35 29.35 49.9 Q31.45 47.8 34.45 47.7 L35.2 47.85 37.15 48.25 37.9 48.5 38.45 48.9 38.8 49.35 39.05 49.7 39.25 50.1 39.35 50.5 39.45 50.9 39.5 51.25 39.5 51.65 39.4 52.0 39.3 52.4 39.3 52.75 39.35 53.15 39.3 53.5 39.25 53.9 39.15 54.25 39.1 54.6 Q31.05 63.55 18.65 65.2 8.1 66.65 -2.35 64.35 -5.0 63.8 -7.15 62.15 L-9.95 60.0 -10.6 59.15 -11.15 58.35 -11.95 56.8 -12.15 56.4 -12.2 56.05 -12.3 55.65 -12.4 55.25 -12.5 54.85 -12.6 54.5 -12.55 54.1 -12.5 53.75 -12.5 53.35 -12.45 52.6 -12.35 51.9 -12.35 51.5 -12.15 51.15 -12.0 50.8 -11.85 50.4 -11.55 50.1 -11.15 49.7 -10.75 49.4 -9.7 48.85 -9.1 48.8 -7.85 48.85 -6.25 49.25 -5.65 49.7 -4.95 50.15 -4.5 50.55 -4.25 50.85 Q0.0 52.7 4.5 53.95 7.95 54.9 11.45 54.95 L14.85 53.85 Q16.6 53.4 17.85 52.15 L18.65 51.85 19.4 51.5 19.95 51.15 20.35 50.85 20.5 50.5 20.6 50.1 20.65 49.75 20.75 49.35 21.0 49.0 21.3 48.65 21.45 48.3 21.6 47.95 22.0 47.6 22.45 47.3" fill="#483e32" fill-opacity="0.101960786" fill-rule="evenodd" stroke="none"/>
    <path d="M0.35 28.75 L0.4 29.15 0.5 29.55 0.6 29.9 0.7 30.3 0.65 30.7 0.6 31.4 0.5 32.55 0.45 33.3 0.35 34.05 0.3 34.8 0.15 35.15 -0.05 35.9 -0.25 36.6 -0.55 37.35 -0.7 37.7 -0.85 38.05 -1.0 38.45 -1.15 39.15 -1.5 40.65 -1.85 41.75 -2.25 43.2 -2.85 45.05 -3.45 45.75 -4.7 47.2 -5.75 48.2 -7.4 49.55 -7.8 49.9 -8.45 50.2 -9.0 50.55 -9.5 50.85 -10.05 51.2 Q-12.15 52.15 -14.4 52.25 -19.6 52.5 -23.45 48.95 L-24.65 47.65 -25.15 47.5 -29.7 47.3 -34.25 46.8 -35.0 46.65 Q-36.4 46.25 -37.65 45.4 L-38.95 44.55 -39.3 44.1 -39.9 43.7 Q-40.7 43.2 -41.3 42.45 L-42.05 41.25 -42.5 40.45 -42.7 40.05 -42.8 39.7 -42.9 39.3 -43.0 38.9 -43.05 38.5 -43.05 38.15 -43.05 37.0 -42.95 35.9 -42.9 35.15 -42.8 34.05 -42.75 33.65 -42.6 33.3 -42.45 32.95 -42.3 32.55 -42.15 32.2 -42.0 31.85 -41.8 31.5 -41.65 31.1 -41.4 30.75 -40.15 29.35 -38.95 28.35 -37.8 27.3 -37.0 26.65 -36.35 26.3 -35.85 26.1 -35.2 26.05 -31.2 26.15 -30.65 25.8 -30.1 25.5 -29.45 25.15 -28.95 24.95 -28.7 24.85 -28.05 24.8 -27.3 24.7 -25.4 24.5 -25.2 24.15 -24.95 23.8 -24.8 23.45 -24.65 23.05 -23.8 22.0 -22.4 20.35 -20.85 18.55 -18.95 16.8 -18.3 16.45 -17.1 15.8 Q-16.05 15.2 -14.8 15.0 L-14.05 15.0 -14.05 14.95 -11.3 15.4 Q-9.8 15.75 -8.4 16.4 -7.35 16.95 -6.35 17.65 -5.15 18.75 -4.2 20.1 L-2.4 22.85 -0.45 26.85 0.25 28.4 0.35 28.75" fill="#ffffff" fill-opacity="0.2" fill-rule="evenodd" stroke="none"/>
    <path d="M1.75 30.9 L1.85 31.3 1.95 31.65 2.05 32.05 2.15 32.45 2.1 32.8 2.05 33.2 2.05 33.55 2.0 33.95 2.05 34.25 2.3 34.7 2.65 35.1 3.7 36.35 4.95 38.0 6.0 39.95 6.1 40.3 6.2 40.7 6.4 41.1 6.5 41.5 6.6 41.85 6.8 42.25 6.9 42.65 7.0 43.05 7.1 43.4 7.15 43.8 7.1 44.55 7.05 45.3 6.85 46.8 6.55 49.4 6.15 51.25 5.35 53.05 5.2 53.4 4.9 53.75 4.75 54.15 4.6 54.5 4.3 54.85 4.0 55.15 3.65 55.55 2.95 56.2 2.15 56.9 0.9 57.95 -2.2 59.4 Q-6.55 61.35 -11.15 62.55 -13.9 63.3 -16.75 63.3 L-18.6 62.9 -21.25 62.15 Q-25.0 60.9 -28.25 58.75 L-28.9 58.95 -29.45 59.3 -30.0 59.6 -30.55 59.9 -32.05 60.55 -33.65 61.2 -34.15 61.4 -35.55 61.5 -39.2 61.6 Q-43.35 61.5 -46.9 59.4 L-47.8 58.55 -48.65 57.75 -49.8 56.55 Q-50.85 55.25 -51.6 53.75 L-52.3 52.5 -52.4 52.15 -52.5 51.75 -52.55 51.35 -52.6 51.0 -52.65 50.6 -52.65 50.25 -52.6 49.85 -52.7 49.5 -52.8 49.1 -52.9 48.75 -53.2 48.3 -53.35 47.95 -53.5 47.5 -53.65 47.15 -53.85 46.75 -54.0 46.35 -54.15 45.95 -54.35 45.55 -54.45 45.2 -54.55 44.8 -54.65 44.4 -54.7 44.05 -54.65 43.3 -54.6 42.9 -54.5 41.8 -54.3 39.95 -53.95 38.1 -53.65 36.95 -53.55 36.25 -53.4 35.85 -53.2 35.5 -53.05 35.15 -52.9 34.8 -52.75 34.4 -52.45 34.05 -52.2 33.7 -52.05 33.35 -51.95 33.0 -51.85 32.6 -51.5 31.9 -51.35 31.5 -51.05 30.8 -50.6 29.7 -50.4 29.35 -50.15 29.0 -50.0 28.65 -49.85 28.25 -49.15 27.6 -48.75 27.25 -47.4 26.2 -45.6 24.9 -43.65 23.55 Q-41.95 22.7 -40.15 22.45 L-28.9 22.9 -26.6 23.65 -25.95 24.0 -25.6 24.1 -25.45 23.75 -25.35 23.4 -25.25 23.0 -25.1 22.65 -24.95 22.3 -24.8 21.9 -24.5 21.2 -24.0 20.1 -23.7 19.8 -23.35 19.4 -22.9 19.1 -22.4 18.75 -21.85 18.55 -21.6 18.45 -21.0 18.4 -20.25 18.35 -20.2 18.3 -17.25 18.6 -14.05 19.1 Q-12.6 19.45 -11.35 20.2 L-10.9 20.65 -10.55 21.05 -10.2 21.45 -9.85 21.85 -9.65 22.1 -7.95 22.85 Q-5.4 24.0 -3.05 25.6 -1.1 26.95 0.4 28.8 L1.75 30.9 M-11.0 46.45 L-11.4 46.85 -11.65 47.2 -11.9 47.5 -12.15 47.9 -11.5 47.95 -11.0 47.6 -10.1 46.9 -9.75 46.6 -10.9 46.4 -11.0 46.45" fill="#ffffff" fill-opacity="0.2" fill-rule="evenodd" stroke="none"/>
    <path d="M-61.25 -0.6 L-59.0 -1.25 -57.5 -1.2 -56.25 -1.25 -54.65 -1.55 -52.4 -2.3 -51.15 -2.9 -50.75 -2.95 -47.75 -3.35 -46.25 -3.65 -44.5 -4.0 -43.25 -4.25 -41.25 -4.75 -40.5 -4.8 -40.5 -4.9 -36.5 -4.9 -35.5 -4.6 -34.9 -4.4 -31.0 -4.4 -23.25 -3.9 -21.75 -3.8 Q-18.35 -3.4 -15.0 -2.5 L-14.4 -2.15 -14.0 -1.75 -13.65 -1.35 -13.4 -1.0 -13.15 -0.65 -12.9 -0.25 -12.75 0.1 -12.65 0.5 -12.65 0.85 -12.65 1.25 -12.75 1.6 -12.9 2.0 -13.0 2.35 -13.15 2.75 -13.4 3.1 -14.3 3.8 -15.0 4.25 -16.4 5.0 -17.0 5.35 Q-23.15 7.25 -28.9 10.2 -34.2 12.95 -39.7 15.05 -50.75 19.3 -62.5 18.1 -64.1 17.9 -65.4 17.0 L-65.75 16.6 -66.1 16.25 -66.4 15.85 -66.65 15.5 -67.5 15.1 -68.25 14.75 -68.9 14.35 -69.25 14.0 -69.5 13.6 -69.75 13.25 -69.9 12.9 -70.15 12.5 -70.4 12.1 -70.4 11.75 -70.5 11.35 -70.5 11.0 -70.5 10.65 -70.4 10.25 -70.4 9.85 -70.4 9.5 -70.4 9.1 -70.4 8.75 -70.4 8.35 -70.35 8.0 -70.25 7.6 -70.1 7.25 -69.6 6.5 -69.3 6.1 -68.75 5.4 -68.4 5.0 -68.0 4.6 -67.65 4.25 -66.9 3.85 -66.4 3.5 -66.25 3.15 -66.0 2.75 -65.75 2.4 -65.4 2.0 -65.0 1.6 -64.65 1.25 -64.25 0.85 -63.6 0.5 -62.15 -0.25 -61.25 -0.6" fill="#977e68" fill-rule="evenodd" stroke="none"/>
    <path d="M27.25 -26.6 Q29.25 -28.2 31.75 -29.15 L32.5 -29.2 32.5 -29.25 36.5 -29.25 37.5 -29.0 38.25 -28.65 38.6 -28.25 38.95 -27.85 39.25 -27.5 39.45 -27.1 39.6 -26.75 39.7 -26.35 39.75 -26.0 39.75 -25.75 40.0 -25.75 40.5 -25.75 41.5 -25.5 42.1 -25.25 42.5 -25.25 44.0 -25.25 45.0 -25.0 45.75 -24.65 46.1 -24.25 46.35 -23.9 46.5 -23.5 46.6 -23.15 46.75 -22.75 46.75 -22.4 46.75 -22.0 46.75 -21.65 46.75 -21.25 46.6 -20.9 46.5 -20.5 46.35 -20.15 46.1 -19.75 45.75 -19.4 45.0 -19.0 44.0 -18.8 41.85 -18.5 40.1 -16.8 Q36.65 -14.4 32.75 -12.9 L25.6 -10.5 25.45 -10.15 Q24.25 -8.35 22.4 -7.25 20.6 -6.2 19.45 -4.55 L17.85 -2.25 17.35 -1.5 17.25 -1.15 17.1 -0.75 16.85 0.0 16.5 1.1 16.35 2.6 16.55 2.95 16.85 3.35 17.0 3.75 17.2 4.15 17.4 4.5 17.6 4.85 17.75 5.25 17.85 5.6 18.2 6.0 18.45 6.4 18.65 6.75 19.0 7.5 19.35 8.25 19.45 8.65 19.5 9.0 19.5 9.35 19.7 9.75 19.9 10.1 20.1 10.5 20.25 10.85 20.35 11.25 20.6 11.65 20.75 12.0 21.0 12.35 21.1 12.75 21.25 13.1 21.35 13.5 21.6 13.85 22.6 14.2 28.65 15.65 Q29.9 15.9 31.0 16.6 L31.35 17.0 31.6 17.35 31.95 17.3 32.5 17.0 33.85 16.25 34.75 15.85 35.2 15.5 35.6 15.1 36.35 14.75 37.5 14.5 38.5 14.5 39.6 14.75 40.25 15.15 40.75 15.5 41.1 15.55 42.0 15.35 42.6 15.0 43.25 14.6 43.85 14.25 44.5 13.85 44.85 13.5 45.5 12.75 47.0 11.3 Q47.75 10.6 48.6 10.1 L49.0 9.75 50.15 8.65 Q52.05 7.0 54.5 6.5 L55.6 6.6 56.25 6.5 56.85 6.1 57.35 5.75 57.6 5.35 57.85 5.0 58.1 4.6 58.35 4.25 58.45 3.85 58.5 3.5 58.5 3.1 58.45 2.35 58.55 1.25 58.6 0.85 58.85 0.5 59.15 0.15 59.5 -0.25 60.0 -0.65 60.75 -0.85 61.5 -1.0 62.1 -1.15 62.5 -1.4 63.0 -1.75 63.75 -1.95 64.5 -2.1 65.0 -2.1 65.75 -2.0 66.35 -1.75 67.0 -1.4 67.35 -1.0 67.6 -0.6 67.75 -0.25 68.0 0.1 68.0 0.5 68.1 0.85 68.35 1.25 68.5 1.6 68.7 2.0 68.9 2.35 69.35 3.1 70.0 3.5 70.25 3.85 70.45 4.25 70.6 4.6 70.95 5.0 71.8 6.05 73.75 8.0 74.75 9.5 74.85 9.85 75.0 10.25 75.25 10.6 75.35 11.0 75.5 11.35 75.75 11.75 75.85 12.1 76.0 12.5 76.1 12.85 76.25 13.25 76.35 13.6 76.35 14.0 76.35 14.35 76.35 14.75 76.35 15.1 76.4 15.5 76.65 15.85 76.95 16.25 77.25 16.6 77.5 17.0 77.6 17.35 77.75 17.75 77.85 18.1 77.85 18.5 77.85 18.85 78.05 19.15 78.7 19.65 79.2 20.05 79.85 20.75 80.0 21.1 80.1 21.5 80.25 21.85 80.35 22.25 80.35 22.6 80.35 23.0 80.35 23.35 80.35 23.75 80.35 24.1 80.35 24.5 80.25 24.85 80.1 25.25 80.0 25.6 80.0 26.0 80.0 28.25 80.0 31.25 80.0 32.75 80.0 36.1 79.85 36.5 79.75 36.85 79.55 37.6 79.25 38.75 78.75 40.25 78.5 40.65 78.35 41.0 78.1 41.35 77.85 41.75 77.35 42.5 77.25 42.85 77.1 43.25 76.85 43.6 76.6 44.0 76.35 44.35 76.0 44.75 75.75 45.1 75.6 45.5 75.5 45.85 75.35 46.25 75.1 46.6 74.75 47.0 74.35 47.35 73.6 48.1 73.25 48.5 73.1 48.85 72.9 49.25 72.7 49.6 72.2 50.35 71.6 51.1 71.0 51.5 70.75 51.85 70.45 52.25 70.1 52.6 69.5 53.0 68.85 53.35 68.5 53.75 68.1 54.1 67.45 54.45 65.7 55.05 63.0 55.6 Q61.15 56.6 59.2 57.25 52.55 59.3 46.0 57.5 L42.75 57.1 36.75 55.85 Q35.2 55.45 33.75 54.75 L33.2 54.4 32.5 54.0 31.25 53.25 30.6 52.85 30.25 52.5 29.9 52.1 29.4 51.35 28.75 50.25 28.6 49.85 28.25 49.5 27.95 49.3 27.5 49.2 26.75 49.1 26.0 48.85 25.35 48.5 25.0 48.1 24.65 47.75 24.35 47.4 24.0 47.0 23.85 46.6 23.75 46.25 23.6 45.85 23.35 45.5 23.0 45.1 22.75 44.75 22.5 44.35 22.35 44.0 22.25 43.6 22.1 43.25 21.85 42.9 20.05 40.65 18.1 37.55 17.25 36.15 16.25 34.6 16.1 34.25 16.0 33.85 15.85 33.5 15.65 33.1 15.45 32.75 15.25 32.35 15.1 32.0 15.0 31.6 15.0 31.25 14.95 30.85 14.9 30.1 14.9 29.0 15.0 28.6 14.95 28.25 14.75 27.85 14.25 27.1 13.75 26.35 13.25 25.6 13.1 25.25 13.0 24.85 12.85 24.5 12.6 24.1 12.35 23.75 12.1 23.35 11.85 23.0 11.6 22.6 11.5 22.25 11.35 21.85 11.25 21.5 11.1 21.1 11.0 20.75 10.75 20.35 10.6 20.0 10.5 19.6 10.5 19.25 10.5 18.85 10.5 18.5 10.5 18.1 10.3 17.75 9.5 16.6 8.45 14.75 7.5 12.85 7.35 12.5 7.25 12.1 7.1 11.75 7.0 11.35 6.85 11.0 6.65 10.6 6.45 10.25 6.25 9.85 6.1 9.5 6.0 9.1 6.0 8.75 6.0 8.0 6.0 6.85 6.0 5.75 5.85 5.35 5.75 5.0 5.6 4.6 5.5 4.25 5.5 3.85 5.5 3.5 5.5 3.1 5.6 2.35 5.6 1.6 5.6 1.25 5.55 0.9 5.35 0.5 5.1 0.1 4.9 -0.25 4.75 -0.65 4.65 -1.0 4.6 -1.4 4.6 -1.75 4.6 -2.5 4.6 -3.65 4.6 -4.0 4.75 -4.4 4.85 -4.75 5.0 -5.15 5.1 -5.5 5.1 -5.9 5.1 -6.25 5.1 -6.65 5.1 -7.0 5.25 -7.4 5.35 -7.75 5.45 -8.15 5.6 -8.9 5.75 -9.65 6.0 -10.0 6.1 -10.4 6.2 -10.75 6.25 -11.15 6.4 -11.5 7.1 -12.65 Q8.05 -14.1 9.35 -15.3 L10.85 -16.75 11.6 -17.15 12.1 -17.5 13.35 -18.25 13.85 -18.5 14.25 -18.6 15.0 -18.7 16.0 -18.75 17.0 -18.5 Q17.35 -18.3 17.75 -18.15 L18.1 -17.75 18.35 -17.4 Q18.5 -17.25 18.65 -17.25 L19.25 -17.25 19.85 -17.65 21.1 -18.4 Q22.55 -19.3 24.25 -19.9 L24.25 -20.25 24.25 -20.65 24.25 -21.0 24.25 -21.4 24.35 -21.75 24.5 -22.15 24.6 -22.5 24.75 -22.9 24.95 -23.25 25.15 -23.6 25.35 -24.0 25.5 -24.4 25.6 -24.75 25.85 -25.1 27.25 -26.6" fill="#977e68" fill-rule="evenodd" stroke="none"/>
    <path d="M4.5 18.45 L5.5 18.6 6.1 19.0 6.45 19.4 6.75 19.75 6.85 20.1 7.0 20.5 7.1 20.9 7.1 21.25 7.0 21.6 6.85 22.0 6.6 22.35 6.35 22.75 6.1 23.1 5.6 23.5 5.0 23.85 4.0 24.1 3.0 24.35 2.5 24.6 2.25 24.7 1.25 24.85 0.85 25.25 0.5 25.5 0.25 25.6 -0.75 25.85 -1.5 26.25 -2.0 26.5 -2.25 26.6 -3.0 26.7 -5.65 27.0 -6.0 27.35 -6.55 27.7 -8.05 28.85 -10.25 31.1 -10.4 31.5 -10.6 31.9 -10.8 32.25 -11.0 32.65 -11.35 33.4 -11.5 33.75 -11.55 34.1 -11.5 34.5 -11.4 34.85 -11.05 35.25 -10.75 35.6 -10.5 36.0 -10.25 36.35 -10.15 36.75 -10.0 37.1 -9.8 37.5 -9.6 37.85 -9.35 38.2 -8.7 39.05 -8.0 40.1 -8.0 40.5 -7.9 40.85 -7.75 41.25 -7.5 41.6 -7.45 42.0 -7.25 42.35 -7.0 42.75 -6.8 43.15 -6.65 43.5 -6.3 43.9 -6.0 44.25 -5.75 44.6 -5.5 45.0 -4.9 45.35 -4.15 45.75 -3.5 46.1 -3.15 46.5 -2.4 46.85 -1.65 47.25 -1.0 47.6 2.85 47.75 4.0 47.55 Q9.45 47.05 14.25 44.15 L15.0 43.75 15.25 43.4 15.6 43.0 16.0 42.65 16.5 42.25 17.25 42.0 18.0 41.9 19.0 41.9 19.75 42.0 20.35 42.25 21.0 42.6 21.35 43.0 21.6 43.4 21.75 43.75 22.0 44.1 22.0 44.5 22.1 44.85 22.1 45.25 22.0 45.6 21.85 46.0 21.75 46.35 21.5 46.75 21.25 47.1 20.75 47.5 20.35 47.85 20.0 48.25 19.25 49.0 18.5 49.75 Q15.15 52.0 11.35 53.1 L7.5 53.95 -4.0 54.5 -5.1 54.2 -6.0 53.85 -8.4 52.8 Q-9.35 52.4 -10.0 51.6 L-10.75 51.4 -11.65 51.1 -12.25 50.75 -12.75 50.35 -13.15 50.0 -13.5 49.6 -14.25 49.25 -14.9 48.9 -15.75 48.5 -16.15 48.1 -16.5 47.75 -16.75 47.35 -16.9 47.0 -17.0 46.6 -17.0 46.25 -17.0 45.85 -17.0 45.5 -16.9 44.75 -16.9 44.35 -16.65 44.0 -16.6 43.65 -16.8 43.25 -17.15 42.85 -17.25 42.5 -17.35 42.1 -17.4 41.75 -17.55 41.4 -17.9 41.0 -18.25 40.6 -18.5 40.25 -18.65 39.85 -18.75 39.5 -18.75 39.1 -18.75 38.0 -18.75 35.75 -18.7 33.85 -18.65 33.5 -18.5 33.15 -18.25 32.75 -18.25 32.35 -18.25 32.0 -18.25 31.6 -18.25 31.25 -18.25 30.85 -18.15 30.5 -18.0 30.15 -17.75 29.75 -17.75 29.35 -17.65 29.0 -17.4 28.6 -17.1 28.25 -16.75 27.85 -16.6 27.5 -16.35 27.15 -15.75 26.4 -13.9 24.5 -13.15 23.75 -12.4 23.35 -11.65 23.0 -10.9 22.6 -9.65 22.0 -9.25 21.9 -8.55 21.7 Q-6.5 21.05 -4.6 20.05 L-1.65 18.5 -0.55 18.3 -0.5 18.25 2.0 18.3 4.5 18.45" fill="#977e68" fill-rule="evenodd" stroke="none"/>
    <path d="M42.15 -77.3 L43.75 -76.65 44.5 -76.4 45.1 -76.0 45.85 -75.6 46.35 -75.25 46.6 -74.9 46.85 -74.5 47.0 -74.15 47.15 -73.8 47.5 -73.65 48.25 -73.5 48.85 -73.25 49.5 -72.85 49.95 -72.5 50.35 -72.15 50.75 -71.75 50.9 -71.4 51.1 -71.0 51.4 -70.65 51.75 -70.25 51.85 -69.9 52.0 -69.5 52.1 -69.15 52.25 -68.75 52.5 -68.4 52.75 -68.0 53.0 -67.65 53.2 -67.25 53.4 -66.9 53.6 -66.5 53.75 -66.15 53.85 -65.75 53.85 -65.4 54.1 -65.0 54.4 -64.65 54.75 -64.25 54.9 -63.9 55.15 -63.5 55.5 -63.15 55.85 -62.75 56.1 -62.4 56.35 -62.0 56.5 -61.65 56.85 -61.25 57.1 -60.9 57.35 -60.5 57.5 -60.15 57.85 -59.75 58.35 -59.0 58.5 -58.65 58.7 -58.25 58.9 -57.9 59.1 -57.5 59.5 -56.75 59.6 -56.4 59.75 -56.0 59.85 -55.65 60.0 -55.25 60.1 -54.85 60.1 -54.5 60.1 -54.15 60.0 -53.75 59.85 -53.4 59.65 -53.0 59.5 -52.65 59.1 -52.25 58.6 -51.9 58.25 -51.65 57.75 -51.5 57.0 -51.4 56.5 -51.4 55.75 -51.55 55.0 -51.75 54.5 -52.15 54.1 -52.5 53.75 -52.9 53.4 -53.25 53.1 -53.65 52.95 -53.7 51.85 -54.0 51.25 -54.4 50.85 -54.75 50.25 -55.15 49.5 -55.4 49.0 -55.15 48.75 -55.0 44.0 -54.9 Q40.75 -55.55 38.2 -57.75 35.6 -59.95 33.5 -62.65 L33.35 -63.0 33.25 -63.4 33.1 -63.75 33.0 -64.15 32.85 -64.5 32.75 -64.9 32.75 -65.25 32.75 -65.65 32.6 -66.0 32.5 -66.4 32.35 -66.75 32.25 -67.15 32.0 -67.5 31.85 -67.9 31.75 -68.25 31.75 -68.65 31.75 -69.0 31.6 -69.35 31.15 -70.15 30.95 -70.5 30.7 -70.85 30.35 -71.25 30.0 -71.65 29.5 -72.4 29.45 -72.75 29.4 -73.15 29.35 -73.5 29.35 -73.9 29.35 -74.25 29.35 -74.65 29.35 -75.0 29.4 -75.35 29.45 -75.75 29.5 -76.15 29.75 -76.5 30.0 -76.9 30.25 -77.25 30.5 -77.6 30.85 -78.0 31.5 -78.4 32.25 -78.65 33.0 -78.7 33.0 -78.75 38.5 -78.6 40.0 -78.4 40.6 -78.0 42.15 -77.3" fill="#977e68" fill-rule="evenodd" stroke="none"/>
    <path d="M-31.45 -2.1 L-29.95 -2.75 -28.5 -3.35 -27.2 -3.9 -26.7 -3.95 -25.95 -3.95 -25.9 -4.0 -22.85 -3.65 -21.35 -3.25 -20.85 -2.85 -20.15 -2.4 -19.55 -1.95 -19.3 -1.55 -19.15 -1.15 -19.1 -0.8 -19.1 -0.4 -19.1 -0.05 -19.15 0.35 -19.2 0.7 -19.2 1.1 -19.35 1.45 -19.55 1.8 -19.7 2.15 -19.85 2.55 -20.0 2.9 -20.25 3.25 -20.45 3.6 -20.7 3.95 -21.0 4.3 -21.55 4.6 -23.55 5.5 -26.2 6.5 -26.75 6.8 -27.0 7.2 -27.75 8.2 -29.85 9.6 -32.1 10.5 -32.45 10.85 -32.75 11.2 -33.05 11.55 -33.25 11.9 -33.5 12.25 -34.0 12.6 -34.3 12.8 -34.7 12.9 -35.8 13.05 -36.2 13.25 -36.75 13.35 -37.5 13.4 -38.2 13.2 -38.7 13.05 -38.85 13.05 -39.55 12.8 -40.3 12.55 -40.9 12.1 -41.2 11.7 -41.55 11.3 -41.75 10.9 -41.9 10.55 -42.1 10.1 -42.1 9.75 -42.1 9.35 -42.1 9.0 -42.1 8.6 -42.05 8.25 -42.0 7.5 -41.9 6.75 -41.75 6.4 -41.6 6.0 -40.7 5.05 Q-38.9 3.75 -37.35 2.1 -36.05 0.7 -34.35 -0.25 -33.15 -0.9 -32.15 -1.8 L-31.45 -2.1" fill="#483e32" fill-opacity="0.2" fill-rule="evenodd" stroke="none"/>
    <path d="M-23.8 5.95 L-24.1 6.3 -24.5 6.6 -24.85 6.85 -25.15 6.95 -25.65 7.05 -26.65 7.2 Q-29.45 8.15 -32.0 9.6 -34.85 11.2 -38.1 12.1 L-39.4 12.25 -40.0 12.3 -41.3 12.4 -42.8 12.45 -43.9 12.05 -44.7 11.6 -45.3 11.2 -45.65 10.8 -46.0 10.4 -46.35 10.0 -46.55 9.6 -46.65 9.2 -46.75 8.85 -46.85 8.45 -46.8 8.1 -46.75 7.7 -46.75 7.35 -46.7 6.95 -46.65 6.6 -46.6 6.2 -46.5 5.85 -46.3 5.5 -46.05 5.15 -45.65 4.8 -45.25 4.45 -44.4 3.75 -42.0 2.55 Q-40.45 1.7 -38.7 1.25 L-37.0 0.65 -34.55 0.35 -28.7 0.5 -27.95 0.7 -27.5 0.85 -26.75 1.15 -26.15 1.6 -25.8 2.0 -25.5 2.4 -24.5 2.85 -24.05 3.3 -23.7 3.7 -23.6 4.1 -23.5 4.45 -23.45 4.85 -23.45 5.25 -23.6 5.6 -23.8 5.95" fill="#483e32" fill-opacity="0.2" fill-rule="evenodd" stroke="none"/>
    <path d="M6.4 18.4 L7.1 18.8 7.4 19.25 7.65 19.6 7.85 20.0 8.1 20.4 8.2 20.8 8.25 21.2 8.35 21.55 8.35 21.95 8.3 22.3 8.25 22.7 8.25 23.05 8.05 23.4 7.9 23.8 7.75 24.15 7.5 24.5 7.2 24.85 6.9 25.2 6.65 25.55 6.1 25.9 Q5.5 26.75 4.6 27.2 L-0.1 29.5 -2.4 29.9 Q-4.75 30.35 -7.2 30.0 L-8.3 29.65 -9.0 29.2 -9.45 28.75 -10.1 27.95 -10.45 27.2 -10.5 26.8 -10.5 26.45 -10.5 26.05 -10.45 25.7 -10.3 25.35 -10.15 24.95 -10.1 24.6 -9.8 24.25 -9.75 23.85 -9.65 23.5 -9.55 23.15 -9.45 22.75 -9.25 22.45 -8.55 21.75 -7.15 20.65 -6.7 20.35 Q-3.75 18.7 -0.4 18.1 2.55 17.55 5.4 18.05 L6.4 18.4" fill="#483e32" fill-opacity="0.2" fill-rule="evenodd" stroke="none"/>
    <path d="M7.0 18.45 L7.6 18.85 8.05 19.3 8.25 19.7 8.4 20.05 8.6 20.45 8.6 20.8 8.6 21.2 8.6 21.6 8.6 21.95 8.55 22.35 8.4 22.7 8.25 23.05 8.05 23.4 7.8 23.75 7.5 24.1 7.35 24.5 7.2 24.85 7.05 25.2 6.75 25.55 6.45 25.9 6.1 26.25 5.75 26.6 5.4 26.95 4.75 27.25 Q0.85 29.2 -3.5 27.9 L-4.95 27.4 -5.4 27.0 -5.75 26.6 -6.1 26.2 -6.2 25.8 -6.3 25.45 -6.4 25.05 -6.35 24.65 -6.3 24.3 -6.3 23.9 -6.2 23.15 -6.1 22.45 -6.0 22.05 -5.8 21.7 -5.55 21.35 -5.05 20.6 -4.15 19.55 -3.75 19.25 -3.05 18.95 -1.5 18.35 1.05 17.65 1.8 17.65 1.8 17.6 5.9 18.15 7.0 18.45" fill="#483e32" fill-opacity="0.2" fill-rule="evenodd" stroke="none"/>
    <path d="M4.6 45.0 L5.85 44.45 11.0 44.7 11.0 44.65 11.95 44.85 13.1 45.15 13.9 45.4 14.8 45.7 15.25 46.15 15.45 46.55 15.7 46.9 16.25 47.35 16.85 47.8 17.1 48.2 17.25 48.6 17.4 48.95 17.45 49.35 17.4 49.7 17.3 50.1 17.15 50.45 16.95 50.8 16.65 51.55 16.4 51.9 16.1 52.2 15.7 52.6 15.4 52.9 15.1 53.3 14.6 53.6 13.95 53.9 13.55 54.25 10.4 55.55 3.15 55.35 2.8 55.1 1.2 54.75 -0.9 54.25 -1.5 53.8 -1.95 53.4 -2.15 53.0 -2.4 52.6 -2.4 52.25 -2.45 51.85 -2.55 51.5 -2.65 51.1 -2.6 50.7 -2.55 50.35 -2.5 50.0 -2.4 49.6 -2.2 49.25 -1.65 48.55 -1.35 48.2 -1.1 47.85 -0.5 47.15 -0.1 46.8 2.65 45.8 4.6 45.0" fill="#483e32" fill-opacity="0.2" fill-rule="evenodd" stroke="none"/>
    <path d="M5.6 49.05 L5.75 48.7 5.9 48.35 6.2 47.95 6.45 47.6 7.35 46.9 8.0 46.3 Q8.8 45.45 9.85 44.95 L10.35 44.7 11.1 44.65 11.85 44.85 12.1 44.95 12.7 45.15 13.05 45.25 13.8 45.5 14.65 45.6 15.2 45.25 15.85 44.95 17.0 44.85 17.0 44.8 17.5 44.8 18.45 45.15 19.2 45.6 19.75 46.05 19.95 46.45 20.1 46.8 20.25 47.2 20.4 47.6 20.35 47.95 20.3 48.35 20.15 48.7 19.9 49.05 19.7 49.4 19.45 49.75 18.8 50.1 18.15 50.4 17.75 50.75 17.05 51.05 Q16.35 51.8 15.45 52.25 12.8 53.6 9.9 54.45 L9.1 54.5 8.25 54.55 7.75 54.45 6.15 54.0 5.7 53.55 5.35 53.15 5.15 52.75 5.05 52.4 5.0 52.0 5.0 51.65 5.0 51.25 5.05 50.9 5.1 50.15 5.25 49.8 5.4 49.4 5.6 49.05" fill="#483e32" fill-opacity="0.2" fill-rule="evenodd" stroke="none"/>
    <path d="M8.35 46.05 L8.75 45.7 9.15 45.35 10.35 44.85 Q11.65 44.4 13.0 44.3 L14.05 44.25 15.0 44.5 15.75 44.7 16.5 45.0 17.05 45.4 17.4 45.8 17.75 46.25 17.85 46.6 18.05 47.0 18.15 47.4 18.2 47.8 18.2 48.15 18.15 48.5 18.05 48.9 18.0 49.25 17.75 49.65 17.5 49.95 17.25 50.35 17.0 50.7 16.35 51.0 15.95 51.2 15.65 51.3 15.15 51.35 13.55 51.4 Q6.65 54.85 -1.0 55.15 -5.15 55.35 -9.0 53.6 L-11.65 52.45 -12.25 52.0 -13.6 50.7 -14.65 49.55 -15.0 48.8 -16.05 46.8 -16.75 45.25 -17.1 44.45 -17.2 44.05 -17.25 43.65 -17.4 42.9 -17.55 42.15 -17.5 41.75 -17.45 41.4 -17.45 41.0 -17.25 40.65 -17.0 40.3 -16.85 39.95 -16.45 39.6 -16.0 39.3 -15.65 39.05 -15.25 39.0 -14.5 38.95 -14.5 38.9 -13.5 39.25 -12.9 39.65 -12.6 40.05 -12.45 40.45 -12.3 40.85 -12.2 41.2 -12.0 41.95 -10.95 44.0 -9.85 45.6 -9.6 45.95 -9.1 46.4 -8.65 46.8 -7.65 47.2 -5.0 48.1 -3.55 48.65 Q0.95 49.2 5.2 47.4 L8.35 46.05" fill="#483e32" fill-opacity="0.2" fill-rule="evenodd" stroke="none"/>
    <path d="M10.6 28.7 L10.8 29.05 10.95 29.45 10.85 29.8 10.65 30.2 10.45 30.5 10.2 30.75 9.3 30.9 7.15 31.2 3.1 31.4 2.7 31.6 1.45 31.9 -1.25 32.5 -3.95 33.2 -4.35 33.4 -4.75 33.45 -5.6 33.65 -6.05 34.0 -6.4 34.35 -6.7 34.65 -6.75 35.05 -6.8 35.4 -6.8 35.8 -6.9 36.15 -6.95 36.55 -7.05 36.9 -7.0 37.25 -6.85 37.65 -6.85 38.05 -6.8 38.45 -6.7 38.8 -6.6 39.2 -6.5 39.6 -6.45 39.95 -6.45 40.35 -6.5 40.7 -6.5 41.1 -6.7 41.45 -6.8 41.8 -6.85 42.2 -7.15 42.55 -7.45 42.9 -7.7 43.25 -8.25 43.6 -8.5 43.8 -8.8 43.9 -9.3 43.95 -10.05 44.05 -10.75 43.85 -11.5 43.55 -11.95 43.1 -12.3 42.7 -12.65 42.3 -12.75 41.95 -12.85 41.55 -12.9 41.15 -12.9 40.8 -13.1 40.4 -13.2 40.0 -13.3 39.6 -13.4 39.25 -13.5 38.85 -13.55 38.45 -13.55 38.1 -13.5 37.7 -13.45 37.35 -13.3 37.0 -13.4 36.6 -13.4 36.25 -13.35 35.85 -13.3 35.5 -13.15 35.1 -12.95 34.75 -12.75 34.4 -12.55 34.05 -12.45 33.65 -12.35 33.3 -12.3 32.95 -12.2 32.55 -12.0 32.2 -11.75 31.85 -11.55 31.5 -11.3 31.15 -11.0 30.8 -10.5 30.45 -9.7 29.75 -9.25 29.45 -8.3 28.8 -7.7 28.45 -5.0 27.95 0.4 27.0 3.55 26.55 5.75 26.95 8.2 27.55 10.3 28.25 10.6 28.7" fill="#483e32" fill-opacity="0.2" fill-rule="evenodd" stroke="none"/>
    <path d="M12.25 -13.1 L12.45 -13.45 12.75 -14.2 13.05 -14.55 14.1 -16.0 Q15.5 -18.0 17.85 -18.75 L21.0 -19.5 21.75 -19.5 21.75 -19.55 25.2 -19.2 Q26.45 -19.05 27.5 -18.45 L29.45 -17.0 29.65 -16.6 29.85 -16.2 30.05 -15.8 30.15 -15.45 30.25 -15.05 30.25 -14.65 30.2 -14.3 30.15 -13.95 30.1 -13.55 30.0 -13.2 29.9 -12.45 29.9 -12.05 29.7 -11.7 29.55 -11.35 29.4 -11.0 29.25 -10.6 29.1 -10.25 28.95 -9.9 28.6 -9.15 28.35 -8.8 27.75 -8.1 27.45 -7.8 27.1 -7.4 26.25 -6.75 25.85 -6.4 25.2 -6.05 24.05 -5.4 23.25 -4.75 22.5 -4.1 22.0 -3.7 21.7 -3.4 21.3 -3.05 21.1 -2.7 20.85 -2.3 20.6 -1.95 20.3 -1.6 20.0 -1.25 19.35 -0.95 18.95 -0.75 18.7 -0.65 17.45 -0.6 15.5 -0.85 14.0 -1.3 13.4 -1.7 13.05 -2.1 12.75 -2.55 12.4 -2.95 12.05 -3.35 11.7 -3.75 11.5 -4.15 11.25 -4.55 11.2 -4.9 11.1 -6.05 11.1 -7.2 11.35 -9.45 11.6 -11.3 11.75 -11.65 11.9 -12.0 12.0 -12.35 12.1 -12.75 12.25 -13.1" fill="#483e32" fill-opacity="0.2" fill-rule="evenodd" stroke="none"/>
    <path d="M30.0 -26.5 L30.65 -26.55 31.15 -26.65 31.65 -26.7 32.4 -26.7 32.4 -26.8 36.4 -26.35 Q37.7 -26.15 38.8 -25.45 L40.15 -24.6 40.35 -24.2 40.65 -23.8 40.9 -23.4 41.1 -23.0 41.3 -22.6 41.65 -21.85 41.85 -21.45 41.85 -21.05 41.85 -20.3 41.8 -19.55 41.75 -18.45 41.65 -17.3 41.6 -16.95 41.45 -16.6 41.3 -16.2 41.1 -15.85 40.85 -15.5 40.7 -15.15 40.55 -14.8 40.25 -14.4 39.85 -13.7 39.0 -12.75 37.15 -10.95 36.45 -9.85 34.55 -8.1 Q28.35 -2.85 20.7 -4.5 19.3 -4.8 18.15 -5.55 L17.8 -6.0 17.6 -6.35 17.35 -6.75 17.15 -7.15 17.05 -7.55 16.95 -7.95 16.85 -8.3 16.8 -8.7 16.55 -9.1 16.45 -9.5 16.4 -9.85 16.05 -10.3 15.8 -10.65 15.6 -11.05 15.4 -11.45 15.4 -11.85 15.4 -12.6 15.45 -13.35 15.55 -14.45 15.65 -15.95 15.7 -16.7 15.9 -17.05 16.05 -17.4 16.2 -17.8 16.5 -18.15 17.15 -18.8 17.55 -19.2 18.15 -19.85 19.25 -20.9 20.0 -21.25 20.55 -21.55 20.95 -21.9 21.35 -22.25 21.75 -22.55 22.4 -22.9 24.1 -23.9 27.1 -25.55 29.0 -26.35 29.5 -26.4 30.0 -26.5" fill="#483e32" fill-opacity="0.2" fill-rule="evenodd" stroke="none"/>
    <path d="M63.9 1.3 L66.15 2.15 Q67.55 3.2 68.6 4.6 L71.9 9.3 Q73.45 11.55 74.45 14.15 L75.2 16.1 75.3 16.5 75.6 17.65 75.75 18.45 76.0 19.55 76.25 21.1 76.35 21.85 76.3 22.6 76.15 24.1 76.0 25.6 75.7 27.8 75.55 29.7 75.4 30.05 75.2 30.4 75.05 30.8 74.9 31.15 74.75 31.5 74.6 31.85 74.45 32.25 74.1 32.95 73.35 33.95 72.0 35.4 69.75 37.5 67.7 39.15 67.0 39.5 65.6 40.1 64.05 40.75 63.5 40.95 59.85 41.3 Q55.2 41.6 51.3 39.25 L48.85 37.65 46.85 35.3 Q45.4 33.4 44.35 31.2 L42.4 26.55 41.4 24.2 40.9 22.3 Q40.55 20.8 40.7 19.25 L41.2 15.9 Q41.65 13.85 42.45 11.85 L42.6 11.5 42.9 11.15 43.05 10.8 43.2 10.45 43.35 10.05 43.55 9.7 44.25 8.65 45.55 7.0 Q47.05 5.45 48.75 4.1 49.9 3.2 51.4 2.85 L51.85 2.55 52.35 2.2 52.75 1.85 53.25 1.5 53.7 1.2 54.35 0.85 54.85 0.65 55.1 0.55 55.75 0.5 58.9 0.5 59.65 0.45 61.65 0.7 63.9 1.3" fill="#483e32" fill-opacity="0.2" fill-rule="evenodd" stroke="none"/>
    <path d="M64.15 13.4 L64.25 13.8 64.3 14.15 64.35 14.55 64.4 14.9 64.4 15.3 64.45 16.05 64.55 16.45 64.6 16.75 65.05 17.6 65.35 18.05 65.85 18.8 66.55 20.05 67.35 21.2 67.5 21.6 67.7 22.0 67.9 22.4 68.35 24.3 Q68.9 26.35 68.65 28.45 L68.15 34.05 Q68.05 36.35 67.5 38.55 L67.35 38.9 67.2 39.25 67.1 39.6 67.0 40.0 66.85 40.35 66.65 40.7 66.35 41.45 66.05 42.15 65.75 42.5 65.6 42.9 65.45 43.25 65.15 43.6 64.45 44.25 63.65 44.95 62.05 46.35 60.0 48.05 59.35 48.35 57.8 48.95 56.1 49.6 53.1 50.7 Q49.4 51.15 45.75 50.55 39.55 49.55 34.6 45.8 L32.55 43.35 28.2 37.9 22.75 30.85 22.65 30.45 22.55 30.1 22.45 29.7 22.35 29.3 22.25 28.95 22.2 28.55 21.95 28.15 21.9 27.75 21.8 27.0 21.8 26.25 21.85 25.15 22.0 23.65 22.3 21.4 22.45 21.05 22.6 20.7 22.8 20.3 22.95 19.95 23.2 19.6 23.5 19.25 23.55 18.9 23.7 18.5 23.95 18.15 24.25 17.8 24.65 17.45 25.05 17.1 25.45 16.8 25.9 16.45 26.3 16.1 27.05 15.8 28.6 15.15 29.3 14.9 30.85 14.25 31.35 14.05 32.0 13.95 32.75 13.9 33.65 13.8 34.4 13.7 34.55 13.3 34.6 12.95 34.75 12.6 34.85 12.2 34.95 11.85 35.1 11.5 35.4 11.1 35.55 10.75 35.7 10.4 35.95 10.05 36.15 9.7 36.4 9.3 36.6 9.0 36.85 8.65 37.25 8.3 37.65 7.95 38.3 7.6 38.85 7.3 39.4 6.95 40.05 6.65 40.55 6.45 40.8 6.35 41.3 6.3 45.05 6.5 46.55 6.7 47.2 6.5 48.75 5.9 50.35 5.3 52.0 4.8 52.75 4.8 52.75 4.75 Q55.45 4.9 57.9 6.05 60.5 7.25 62.1 9.55 63.25 11.2 64.05 13.0 L64.15 13.4" fill="#483e32" fill-opacity="0.2" fill-rule="evenodd" stroke="none"/>
    <path d="M46.75 2.75 L46.8 2.7 47.5 2.95 48.25 3.2 48.85 3.65 49.15 4.05 49.5 4.45 49.65 4.85 49.8 5.25 49.95 6.0 50.05 6.75 50.0 7.9 49.7 9.35 49.55 9.7 49.3 10.1 49.1 10.45 48.7 10.8 48.55 11.15 48.3 11.5 48.1 11.85 47.85 12.2 47.55 12.55 46.9 12.85 46.1 13.2 45.7 13.55 45.55 13.9 45.4 14.25 Q44.0 15.95 42.25 17.25 38.85 19.85 34.65 20.75 L26.25 19.35 25.65 18.95 25.05 18.5 24.35 18.05 23.75 17.65 22.9 16.85 21.75 15.95 20.45 15.1 19.15 13.15 Q18.05 11.65 17.25 9.95 L16.25 7.55 16.25 7.2 16.35 6.85 16.45 6.45 16.75 6.1 17.15 5.75 18.05 5.6 18.75 5.9 19.25 6.3 19.95 7.55 22.05 9.95 23.65 11.6 25.4 12.6 27.5 13.85 27.95 14.1 34.85 14.45 35.5 14.15 36.0 13.85 37.2 13.15 37.75 12.85 38.05 12.5 38.4 12.1 39.0 11.45 39.65 10.75 39.95 10.4 40.1 10.05 40.25 9.65 40.45 9.3 40.6 8.95 40.8 8.6 41.15 8.2 41.45 7.9 42.2 7.2 42.55 6.85 42.7 6.5 42.8 6.1 42.9 5.75 43.0 5.4 43.2 4.65 43.5 4.3 43.8 3.95 44.1 3.6 44.45 3.25 45.25 3.0 46.0 2.75 46.75 2.75" fill="#483e32" fill-opacity="0.2" fill-rule="evenodd" stroke="none"/>
    <path d="M60.55 -4.0 L61.55 -4.1 61.55 -4.15 62.55 -3.8 63.1 -3.4 63.35 -3.0 63.55 -2.6 63.65 -2.2 63.7 -1.85 63.75 -1.45 63.8 -1.05 63.9 -0.7 63.85 -0.3 63.85 0.05 64.4 0.85 65.55 2.5 66.45 4.45 66.55 4.8 66.65 5.2 66.85 5.6 67.15 6.4 67.45 7.15 67.8 7.95 67.85 8.3 67.95 8.7 68.2 9.1 68.15 13.25 67.4 17.7 Q66.85 20.35 65.6 22.8 L65.45 23.15 Q64.3 25.0 62.45 26.1 59.6 27.8 56.45 28.65 52.75 29.3 49.0 28.75 47.75 28.55 46.7 27.8 L46.4 27.4 46.05 27.0 45.7 26.6 45.2 26.3 44.7 26.5 44.45 26.6 43.05 26.9 39.8 27.65 38.55 27.85 38.2 27.8 37.45 27.6 36.7 27.3 36.15 26.9 35.8 26.45 35.45 26.05 35.25 25.65 35.15 25.3 35.1 24.9 35.1 24.55 35.2 23.8 35.35 23.05 35.5 22.7 35.8 22.35 36.2 22.0 36.6 21.65 37.25 21.35 38.75 20.9 41.65 19.7 42.05 19.35 Q42.0 18.45 42.1 17.5 L42.35 14.85 42.55 12.65 42.75 11.5 Q44.65 8.05 47.2 5.05 51.2 0.25 56.9 -1.65 L58.2 -2.0 59.0 -2.25 59.05 -2.6 59.2 -2.95 59.5 -3.3 59.9 -3.65 60.55 -4.0" fill="#483e32" fill-opacity="0.2" fill-rule="evenodd" stroke="none"/>
    <path d="M27.95 -27.3 L33.3 -26.7 Q35.0 -26.45 36.4 -25.45 L37.25 -24.75 37.35 -24.35 37.55 -23.95 37.65 -23.55 37.75 -23.2 37.85 -22.8 37.95 -22.4 38.0 -22.0 38.0 -21.65 37.8 -20.5 37.7 -20.15 37.5 -19.45 37.1 -18.35 37.05 -17.95 36.8 -17.6 Q36.55 -16.95 35.95 -16.5 L35.3 -15.9 34.05 -14.8 33.6 -14.5 33.4 -14.15 32.55 -13.1 Q32.0 -12.5 31.25 -12.1 L29.0 -10.9 28.75 -10.8 28.25 -10.7 27.5 -10.65 25.5 -10.9 22.4 -11.2 21.3 -11.55 20.7 -12.0 19.0 -13.35 18.25 -14.15 17.35 -15.3 17.25 -15.7 17.15 -16.05 17.1 -16.45 17.1 -16.85 17.15 -17.2 17.2 -17.95 17.25 -18.3 17.3 -18.7 17.35 -19.45 17.5 -19.8 17.65 -20.15 17.8 -20.55 17.95 -20.9 18.15 -21.25 18.4 -21.6 20.45 -23.55 Q23.05 -25.65 26.15 -26.95 L26.7 -27.15 27.2 -27.25 27.95 -27.25 27.95 -27.3" fill="#483e32" fill-opacity="0.2" fill-rule="evenodd" stroke="none"/>
    <path d="M-12.25 21.95 L-11.65 21.9 -11.6 21.8 -10.9 22.05 -10.65 22.15 -9.9 22.45 -9.6 22.9 -9.5 23.25 -9.45 23.65 -9.55 24.0 -9.7 24.35 -10.1 24.7 -10.75 25.05 -11.15 25.4 -11.65 26.05 -12.15 26.8 -12.9 27.85 -13.2 28.2 -13.35 28.55 -13.45 28.95 -13.55 29.3 -13.65 29.7 -13.75 30.4 -14.05 31.15 -14.55 32.25 -15.15 33.7 -15.5 34.4 -15.55 35.15 -15.6 35.55 -15.65 36.3 -15.7 37.05 -15.25 37.8 -14.75 38.65 -13.7 39.85 -13.5 40.25 -13.3 40.65 -13.15 41.0 -13.1 41.4 -13.15 41.75 -13.25 42.15 -13.5 42.5 -13.6 42.85 -13.7 43.15 -14.1 43.3 -14.65 43.4 -15.4 43.45 -16.35 43.1 -16.85 42.8 -16.95 42.8 -18.05 42.45 -18.65 42.05 -19.35 41.25 -20.0 40.4 -20.6 39.25 -20.75 38.85 -20.8 38.45 -20.85 38.1 -20.9 37.7 -21.0 37.3 -20.95 36.55 -20.85 35.8 -20.75 34.35 -20.7 33.6 -20.65 33.2 -20.45 32.85 -20.2 32.5 -19.75 31.4 -18.95 29.6 -18.35 28.15 -17.95 27.05 -17.3 25.95 Q-16.5 25.0 -15.5 24.2 L-14.1 22.85 -13.45 22.55 -12.9 22.2 -12.5 22.0 -12.25 21.95" fill="#ffffff" fill-opacity="0.101960786" fill-rule="evenodd" stroke="none"/>
    <path d="M-14.1 27.0 L-13.6 27.4 -13.4 27.85 -13.3 28.2 -13.15 28.6 -13.1 28.95 -13.2 29.3 -13.4 29.7 -13.6 30.05 -13.85 30.4 -14.05 30.75 -14.0 31.15 -13.85 31.55 -13.75 31.95 -13.65 32.3 -13.45 32.7 -13.35 33.1 -13.25 33.45 -13.2 33.85 -13.2 34.25 -13.35 34.6 -13.55 34.95 -14.1 35.65 -14.35 36.0 -14.9 36.35 -15.15 36.55 -15.55 36.65 -16.3 36.7 -16.8 36.7 -17.9 36.35 -18.35 35.9 -18.7 35.5 -18.9 35.1 -19.0 34.75 -19.0 33.6 -18.7 31.75 -18.5 29.9 -18.45 29.5 -18.25 29.15 -17.7 28.45 -16.8 27.45 -16.05 26.85 -15.8 26.75 -15.05 26.75 -15.05 26.65 -14.1 27.0" fill="#ffffff" fill-opacity="0.101960786" fill-rule="evenodd" stroke="none"/>
    <path d="M7.55 -7.85 L8.15 -7.9 8.2 -7.95 8.9 -7.65 9.25 -7.2 9.45 -6.85 9.6 -6.05 9.65 -4.55 9.5 -3.05 9.5 -2.7 9.6 -1.9 9.75 -0.4 9.8 1.1 9.85 1.5 10.0 1.85 10.15 2.25 10.25 2.65 10.35 3.05 10.45 3.4 10.65 3.8 10.75 4.2 10.85 4.6 11.05 5.0 11.15 5.35 11.25 5.75 11.45 6.15 11.6 6.5 11.75 6.95 12.1 8.45 12.55 10.75 13.1 13.05 13.3 13.45 13.45 13.85 13.65 14.25 13.75 14.65 13.85 15.0 14.0 15.4 14.15 15.8 14.35 16.2 14.45 16.55 14.55 16.95 14.75 17.35 14.85 17.75 14.95 18.1 15.25 18.55 15.5 18.95 15.8 19.7 16.0 20.1 16.1 20.5 16.2 20.85 16.3 21.25 16.5 21.65 16.6 22.05 16.7 22.4 16.9 22.8 17.0 23.2 17.1 23.6 17.2 23.95 17.4 24.35 17.5 24.75 17.7 25.15 18.2 25.55 20.8 31.0 Q22.3 34.15 24.35 37.0 L25.3 38.6 Q32.95 48.45 44.75 51.9 51.7 53.95 58.95 54.35 L61.0 53.85 63.05 53.6 63.8 53.75 64.5 53.85 65.4 53.65 66.55 53.5 67.4 53.85 67.85 54.25 68.1 54.65 68.3 55.05 68.4 55.45 68.35 55.8 68.2 56.15 68.05 56.5 67.75 56.85 67.35 57.2 66.6 57.55 65.8 57.85 65.4 58.15 65.2 58.5 64.95 58.85 64.55 59.25 62.95 59.75 60.55 60.4 59.9 60.7 59.25 61.0 Q41.0 61.95 27.25 50.45 21.5 45.65 17.7 39.35 14.5 34.05 12.3 28.3 L12.25 27.9 12.25 27.55 12.25 27.15 12.3 26.8 12.2 26.45 12.0 26.0 11.9 25.65 11.8 25.25 11.7 24.85 11.5 24.45 11.4 24.1 11.3 23.7 11.1 23.3 11.0 22.9 10.9 22.55 10.8 22.15 10.6 21.75 10.5 21.35 10.4 21.0 10.35 20.6 10.35 20.25 10.25 19.85 10.05 19.45 9.95 19.05 9.85 18.7 9.65 18.3 9.55 17.9 9.45 17.5 9.3 17.1 9.15 16.75 8.95 16.35 8.85 15.95 8.75 15.55 8.55 15.15 8.4 14.8 8.25 14.4 7.9 12.1 7.3 9.0 6.7 6.35 6.45 5.95 6.35 5.6 6.3 5.2 6.05 4.8 5.95 4.4 5.9 4.05 5.8 3.65 5.55 3.25 5.5 2.85 5.5 2.5 5.55 2.1 5.6 1.75 5.75 1.4 5.7 0.6 5.65 -0.5 5.65 -1.65 5.7 -2.4 5.85 -2.75 6.0 -3.1 6.05 -3.5 6.05 -3.85 6.15 -4.6 6.2 -5.35 6.35 -5.7 6.5 -6.1 6.55 -6.45 6.6 -6.85 6.75 -7.2 7.05 -7.55 7.3 -7.75 7.55 -7.85" fill="#ffffff" fill-opacity="0.101960786" fill-rule="evenodd" stroke="none"/>
    <path d="M9.9 -7.45 L10.7 -7.7 11.45 -7.9 12.2 -7.9 12.2 -7.95 12.95 -7.75 13.65 -7.45 14.25 -7.0 14.7 -6.6 14.95 -6.2 15.1 -5.8 15.25 -5.45 15.45 -5.05 15.55 -4.65 16.3 -3.45 Q16.7 -2.4 17.4 -1.5 L18.55 0.45 18.7 0.9 18.8 1.25 18.9 1.65 19.1 2.05 19.2 2.45 19.3 2.8 19.4 3.2 19.55 3.95 19.75 4.75 19.85 5.1 19.8 5.5 19.75 5.85 19.9 6.25 20.1 6.65 20.3 7.05 20.7 7.85 21.05 8.6 21.25 9.8 21.4 11.65 21.35 13.9 21.05 15.4 20.65 16.1 20.15 16.8 18.55 18.15 18.05 18.4 17.55 18.45 16.8 18.55 Q13.0 17.7 10.45 14.75 8.3 12.25 6.45 9.55 L5.95 8.8 5.85 8.4 5.8 8.05 5.7 7.3 5.55 6.15 5.4 5.35 5.15 4.95 5.1 4.6 5.0 4.2 4.9 3.8 4.8 3.45 4.85 2.7 4.95 1.55 5.2 0.1 5.35 -1.4 5.5 -1.8 5.65 -2.15 5.8 -2.5 6.0 -2.85 6.15 -3.25 6.4 -3.6 6.45 -3.95 6.5 -4.35 6.55 -4.7 6.65 -5.05 6.85 -5.4 7.2 -5.8 7.55 -6.1 7.95 -6.45 8.35 -6.8 9.0 -7.1 9.9 -7.45" fill="#ffffff" fill-opacity="0.101960786" fill-rule="evenodd" stroke="none"/>
    <path d="M20.0 -1.65 L20.25 -2.0 20.6 -2.4 21.35 -3.15 22.0 -3.5 22.6 -3.9 23.0 -4.25 23.6 -4.65 24.25 -5.0 24.75 -5.25 25.25 -5.4 26.1 -5.65 26.75 -6.0 27.25 -6.25 27.75 -6.35 28.5 -6.55 29.25 -6.75 30.75 -7.4 31.5 -7.45 31.5 -7.5 34.0 -7.4 35.5 -7.15 36.1 -6.75 36.6 -6.35 36.85 -6.15 37.0 -6.05 37.75 -5.85 38.5 -5.65 39.1 -5.25 39.5 -4.9 39.85 -4.5 41.0 -4.15 41.6 -3.75 42.0 -3.4 42.35 -3.0 42.5 -2.65 42.7 -2.25 42.9 -1.9 43.1 -1.5 43.25 -1.15 43.35 -0.75 43.5 -0.4 43.5 0.0 43.55 0.75 43.6 2.25 43.6 3.0 43.6 4.1 43.6 4.5 43.5 4.85 43.35 5.25 43.25 5.6 43.0 6.0 42.75 6.4 42.6 6.75 42.35 7.1 42.1 7.5 41.6 7.85 Q40.7 8.55 39.6 9.0 38.2 9.6 37.0 10.5 L36.6 10.75 36.25 10.85 34.0 11.4 Q32.45 11.9 31.1 12.85 L30.7 13.25 30.25 13.6 29.7 13.95 29.25 14.25 28.75 14.35 Q26.25 14.85 23.75 14.25 L22.25 13.75 21.85 13.35 21.25 13.0 20.6 12.6 20.25 12.25 20.0 11.85 19.75 11.5 19.6 11.1 19.5 10.75 19.35 10.35 19.1 10.0 18.85 9.6 18.6 9.25 18.55 8.5 18.5 6.6 18.45 5.1 18.5 3.6 18.6 1.0 18.75 0.6 18.85 0.25 19.0 -0.15 19.25 -0.5 19.6 -0.9 19.75 -1.25 20.0 -1.65" fill="#e7e0dc" fill-rule="evenodd" stroke="none"/>
    <path d="M40.4 -12.65 L40.35 -13.0 40.4 -13.35 40.45 -13.75 40.5 -14.1 40.6 -14.5 40.75 -14.9 40.9 -15.25 41.2 -15.65 41.5 -16.0 42.0 -16.35 Q43.3 -17.1 44.75 -17.4 L50.0 -17.75 54.7 -17.35 Q57.05 -17.0 58.75 -15.25 59.9 -14.05 60.6 -12.5 L60.65 -12.15 60.75 -11.75 60.9 -11.4 61.1 -11.0 61.15 -10.65 61.25 -9.5 61.15 -8.0 61.15 -6.5 61.0 -4.65 60.85 -4.25 60.3 -3.1 59.2 -1.3 57.1 1.0 56.35 1.75 55.7 2.1 53.25 2.95 47.35 2.75 46.75 2.35 46.35 2.0 46.0 1.6 45.6 1.25 45.25 0.85 44.85 0.5 44.0 0.1 Q43.6 -0.05 43.25 -0.25 L42.5 -0.65 42.0 -1.0 41.7 -1.35 41.35 -1.75 41.25 -2.15 41.1 -2.5 41.0 -2.9 41.0 -3.25 41.0 -4.4 41.0 -5.9 40.95 -7.4 41.1 -9.25 41.35 -9.65 41.5 -10.0 41.45 -10.35 41.3 -10.75 41.0 -11.15 40.75 -11.5 40.5 -11.9 40.45 -12.25 40.4 -12.65" fill="#e7e0dc" fill-rule="evenodd" stroke="none"/>
    <path d="M25.95 -47.45 L26.6 -46.25 27.6 -44.25 28.5 -42.3 28.5 -41.95 28.55 -41.55 28.6 -41.15 28.6 -40.8 28.75 -40.4 28.95 -40.0 29.15 -39.6 29.35 -39.2 29.5 -38.85 29.65 -38.45 29.75 -38.05 29.85 -37.65 29.95 -36.9 30.1 -35.75 30.2 -34.65 30.15 -34.25 29.9 -32.75 29.7 -30.55 Q29.5 -29.2 28.9 -27.95 L28.55 -27.25 28.3 -26.9 28.0 -26.55 27.7 -26.2 27.65 -25.8 27.55 -25.45 27.5 -25.1 27.45 -24.7 27.3 -24.35 27.2 -23.95 27.1 -23.6 26.8 -22.9 26.35 -21.8 26.2 -21.45 25.9 -21.1 25.3 -20.4 24.7 -19.65 23.7 -18.65 23.25 -18.3 22.6 -18.0 21.1 -17.55 18.45 -17.5 17.45 -17.7 17.15 -17.3 16.9 -16.95 16.7 -16.6 16.45 -16.25 15.75 -15.55 15.2 -15.25 14.7 -14.95 14.15 -14.7 13.55 -14.6 12.75 -14.45 12.35 -14.1 11.85 -13.75 11.55 -13.4 11.0 -13.1 10.45 -12.8 9.95 -12.55 9.35 -12.5 8.1 -12.6 6.5 -13.05 5.75 -13.45 5.45 -13.85 5.1 -14.25 4.9 -14.65 4.7 -15.05 4.55 -15.4 4.55 -15.8 4.5 -16.15 4.3 -16.55 3.75 -17.0 2.95 -17.85 2.5 -18.6 1.95 -19.8 1.9 -20.15 1.9 -20.55 1.65 -20.9 1.35 -21.35 1.1 -21.75 0.75 -22.15 0.65 -22.55 0.6 -22.9 0.5 -23.3 0.4 -23.7 0.3 -24.45 0.15 -25.2 0.2 -25.6 0.3 -26.7 0.4 -28.2 0.7 -30.05 0.8 -31.2 0.95 -31.55 1.1 -31.9 1.25 -32.25 1.45 -32.65 1.7 -33.0 1.9 -33.35 2.15 -33.7 2.3 -34.05 2.45 -34.4 2.6 -34.8 2.8 -35.15 2.95 -35.5 3.2 -35.85 3.5 -36.2 3.9 -36.55 4.3 -36.9 5.05 -37.25 Q6.25 -37.85 7.55 -38.05 L11.6 -38.25 11.65 -38.65 11.8 -39.4 12.05 -40.5 12.5 -41.95 12.75 -42.7 12.9 -43.05 13.15 -43.4 13.3 -43.75 13.5 -44.1 13.65 -44.5 13.8 -44.85 14.05 -45.2 14.65 -46.3 16.15 -48.05 Q17.15 -48.85 18.3 -49.2 L18.95 -49.3 19.45 -49.35 20.2 -49.35 20.2 -49.45 23.2 -49.05 24.65 -48.65 25.25 -48.2 25.7 -47.8 25.95 -47.45 M20.25 -34.1 L20.15 -33.75 20.05 -33.4 19.95 -33.0 19.9 -32.65 Q19.9 -32.45 20.05 -32.3 L20.15 -32.3 20.25 -32.6 20.3 -33.0 20.3 -33.35 20.35 -33.75 20.35 -34.1 20.25 -34.1" fill="#483e32" fill-opacity="0.101960786" fill-rule="evenodd" stroke="none"/>
    <path d="M15.05 -52.15 L16.65 -53.15 17.15 -53.35 17.8 -53.35 18.55 -53.4 18.55 -53.45 20.65 -53.25 21.4 -53.05 22.25 -52.75 22.85 -52.35 23.45 -51.9 24.55 -51.45 Q25.65 -50.55 26.85 -49.85 28.4 -48.9 29.25 -47.3 L30.9 -43.75 31.7 -41.8 31.8 -41.4 31.9 -41.0 32.0 -40.75 34.0 -40.35 35.6 -39.9 Q37.05 -39.4 37.95 -38.25 L38.95 -36.65 39.0 -36.25 39.1 -35.85 39.2 -35.45 39.3 -35.1 39.25 -34.7 39.25 -34.35 39.2 -33.95 39.15 -33.6 39.1 -33.25 39.0 -32.85 38.95 -32.5 38.9 -32.1 38.75 -31.75 38.6 -31.4 38.45 -31.0 38.3 -30.65 38.1 -30.3 37.95 -29.95 37.7 -29.6 37.4 -29.25 37.15 -28.85 36.65 -28.2 36.4 -27.8 35.7 -27.1 35.45 -26.75 34.75 -26.45 34.1 -26.15 33.45 -25.95 32.35 -25.8 31.7 -25.7 31.5 -25.35 31.25 -25.0 31.0 -24.65 30.7 -24.3 30.15 -23.95 29.75 -23.75 29.4 -23.65 28.9 -23.55 28.25 -23.4 28.05 -23.05 27.8 -22.65 27.5 -22.3 27.25 -21.95 26.7 -21.65 26.05 -21.3 25.15 -21.15 24.4 -21.1 23.75 -21.15 23.75 -20.75 23.7 -20.4 23.65 -20.0 23.65 -19.65 23.5 -19.3 23.3 -18.9 23.15 -18.55 23.0 -18.2 22.75 -17.85 22.25 -17.15 21.6 -16.45 20.85 -15.8 19.7 -15.1 19.35 -14.85 19.05 -14.8 17.7 -14.75 16.45 -14.9 15.6 -15.2 14.85 -15.5 14.0 -14.45 12.6 -12.7 10.45 -10.6 Q8.95 -9.3 7.0 -8.8 L6.35 -8.75 4.65 -8.9 3.05 -9.35 2.3 -9.7 1.95 -10.1 1.65 -10.55 1.4 -10.9 1.2 -11.3 1.0 -11.7 0.9 -12.1 0.75 -12.85 0.65 -13.6 0.7 -14.0 0.75 -14.75 0.8 -15.5 0.85 -16.25 1.05 -16.6 1.2 -16.95 1.2 -17.35 1.3 -18.1 1.45 -18.8 1.55 -19.2 1.8 -19.9 2.15 -20.65 2.3 -21.0 2.6 -21.35 3.8 -22.4 4.6 -23.05 5.85 -24.1 7.05 -25.1 7.55 -25.3 7.85 -25.4 8.45 -25.6 8.9 -25.95 9.3 -26.3 9.8 -26.6 10.1 -27.0 10.25 -27.35 10.4 -27.7 10.55 -28.05 10.9 -28.8 11.05 -29.15 11.35 -29.9 11.65 -30.6 11.95 -30.95 12.35 -31.3 12.65 -31.65 12.85 -32.0 12.85 -32.4 12.7 -32.75 12.5 -33.15 12.45 -33.55 12.35 -33.95 12.25 -34.3 12.05 -34.7 11.95 -35.1 11.85 -35.5 11.75 -35.85 11.55 -36.25 11.35 -37.75 Q11.15 -38.7 11.2 -39.7 11.2 -41.0 11.35 -42.3 L11.7 -46.05 12.05 -47.9 12.35 -48.25 12.4 -48.6 12.65 -48.95 12.8 -49.35 12.95 -49.7 13.25 -50.05 13.7 -50.75 14.3 -51.45 15.05 -52.15" fill="#483e32" fill-opacity="0.101960786" fill-rule="evenodd" stroke="none"/>
    <path d="M35.6 -0.25 L36.6 -0.05 37.6 0.25 38.3 0.75 38.75 1.15 39.1 1.55 39.3 1.95 39.4 2.3 39.5 2.7 39.55 3.1 39.55 3.45 39.9 3.9 40.1 4.25 40.35 4.65 40.55 5.05 40.65 5.45 40.75 5.8 40.85 6.2 40.9 6.6 40.9 6.95 40.85 7.35 40.85 7.7 40.85 8.45 40.7 9.95 40.55 11.05 40.35 11.45 40.2 11.8 40.05 12.15 39.8 12.55 39.6 12.85 39.35 13.25 39.05 13.6 38.75 13.95 38.5 14.3 37.95 14.6 37.3 14.95 35.75 15.05 30.1 14.25 29.35 14.0 28.75 13.55 28.05 13.1 27.7 12.7 27.35 12.3 27.05 11.9 26.9 11.55 26.7 11.1 26.65 10.75 26.55 10.35 26.55 10.0 26.5 9.6 26.55 8.85 26.65 7.75 26.8 7.35 26.95 7.0 27.0 6.65 27.0 6.25 27.15 5.9 27.3 5.5 27.4 5.15 27.5 4.8 27.85 4.05 28.15 3.35 28.4 2.95 28.6 2.65 28.9 2.3 29.7 1.65 31.05 0.6 31.7 0.25 32.45 -0.05 33.0 -0.25 33.35 -0.3 34.1 -0.35 34.15 -0.4 35.6 -0.25" fill="#483e32" fill-opacity="0.101960786" fill-rule="evenodd" stroke="none"/>
    <path d="M29.0 -0.6 L29.05 -1.0 29.2 -1.35 29.3 -1.7 29.4 -2.05 29.65 -2.45 30.1 -3.1 30.7 -3.8 31.65 -4.45 32.9 -5.05 33.3 -5.1 34.05 -5.1 34.05 -5.2 35.55 -5.0 36.25 -4.85 36.65 -4.7 37.4 -4.6 38.1 -4.4 38.85 -4.15 39.45 -3.7 39.75 -3.3 40.25 -2.55 40.55 -2.1 40.85 -1.7 41.1 -1.3 41.2 -0.9 41.3 -0.55 41.4 -0.15 41.45 0.25 41.45 0.6 41.35 1.35 41.35 1.75 41.3 2.1 41.2 2.5 41.1 3.2 41.0 3.95 40.85 4.35 40.7 4.7 40.55 5.05 40.25 5.4 40.0 5.75 39.85 6.1 39.65 6.5 39.5 6.85 39.25 7.2 39.05 7.55 38.8 7.9 38.4 8.25 38.0 8.6 37.2 8.85 35.5 9.35 34.75 9.45 33.8 9.2 33.05 9.0 32.05 8.7 31.5 8.25 31.15 7.85 30.8 7.45 30.6 7.05 30.35 6.65 30.3 6.3 30.2 5.9 29.95 5.5 29.65 5.1 29.3 4.7 29.15 4.3 29.0 3.9 28.9 3.55 28.8 3.15 28.7 2.75 28.75 2.4 28.75 2.0 28.85 1.65 28.95 1.3 28.9 0.9 28.9 0.5 28.95 0.15 28.95 -0.25 29.0 -0.6" fill="#483e32" fill-opacity="0.101960786" fill-rule="evenodd" stroke="none"/>
    <path d="M49.25 -4.0 L49.4 -4.35 49.55 -4.7 49.7 -5.05 49.85 -5.45 50.15 -5.8 50.4 -6.15 50.65 -6.45 51.15 -7.2 51.3 -7.55 51.7 -7.9 52.0 -8.25 52.4 -8.6 52.8 -8.95 53.5 -9.25 54.25 -9.6 54.9 -9.9 56.05 -9.95 56.05 -10.05 57.05 -9.95 58.0 -9.6 58.75 -9.15 59.05 -8.75 59.3 -8.35 59.5 -7.95 59.6 -7.6 59.65 -7.2 59.65 -6.85 59.6 -6.1 59.45 -4.6 59.35 -3.1 59.4 -2.7 59.5 -2.3 59.5 -1.95 59.45 -1.6 59.4 -1.2 59.25 -0.85 59.1 -0.5 58.8 -0.15 58.55 0.25 58.0 0.95 57.8 1.3 57.4 1.65 57.0 1.95 56.5 2.3 54.95 2.6 53.4 2.8 51.45 2.25 51.0 1.85 50.4 1.4 50.05 1.0 49.75 0.55 49.5 0.2 49.2 -0.25 49.1 -0.6 49.0 -1.0 49.0 -1.35 49.05 -1.75 49.1 -2.5 49.2 -3.6 49.25 -4.0" fill="#483e32" fill-opacity="0.101960786" fill-rule="evenodd" stroke="none"/>
    <path d="M53.8 -12.85 L54.05 -12.95 54.55 -13.05 55.05 -13.15 55.55 -13.2 56.3 -13.2 56.35 -13.25 57.3 -13.15 58.05 -12.95 58.9 -12.65 59.5 -12.25 59.95 -11.8 60.6 -11.0 61.05 -10.2 61.4 -9.45 61.5 -9.05 61.6 -8.65 61.65 -8.3 61.75 -7.9 61.75 -7.55 61.7 -7.15 61.65 -6.8 61.65 -6.4 61.55 -6.05 61.45 -5.65 61.25 -5.3 61.0 -4.95 60.85 -4.6 60.7 -4.25 60.55 -3.85 60.25 -3.5 59.95 -3.2 59.55 -2.85 59.0 -2.5 58.0 -1.95 57.45 -1.9 56.95 -1.8 56.2 -1.75 55.45 -1.95 55.0 -2.1 54.15 -2.45 52.45 -3.3 52.15 -3.75 51.85 -4.1 51.55 -4.55 51.45 -4.9 51.25 -5.3 51.05 -5.7 50.95 -6.1 50.85 -6.45 50.9 -6.85 50.9 -7.2 50.9 -8.0 50.9 -8.7 51.0 -9.45 51.15 -9.85 51.3 -10.2 51.45 -10.55 51.75 -10.9 52.0 -11.3 52.2 -11.6 52.45 -11.95 52.85 -12.3 53.25 -12.65 53.8 -12.85" fill="#483e32" fill-opacity="0.101960786" fill-rule="evenodd" stroke="none"/>
    <path d="M40.05 -1.65 L39.8 -2.05 39.55 -2.45 39.6 -2.8 39.65 -3.2 39.65 -3.55 39.85 -3.9 40.15 -4.25 40.5 -4.6 40.9 -4.95 41.45 -5.15 41.7 -5.2 42.45 -5.25 42.45 -5.3 43.45 -5.0 44.15 -4.55 44.75 -4.1 45.2 -3.7 45.55 -3.3 46.15 -2.85 46.5 -2.5 46.95 -2.05 47.25 -1.6 47.6 -0.85 47.8 -0.45 47.9 -0.1 48.0 0.3 48.2 0.7 48.3 1.1 48.4 1.45 48.45 1.85 48.55 2.6 48.6 3.0 48.7 3.75 48.65 4.1 48.5 4.5 48.2 4.85 48.15 5.2 48.05 5.6 47.9 5.95 47.7 6.25 47.3 6.65 47.05 6.85 46.8 6.95 46.0 7.05 45.05 6.7 44.6 6.3 44.35 5.9 44.3 5.5 44.2 5.1 43.95 4.7 43.75 4.35 43.65 3.95 43.55 3.55 43.45 3.15 43.25 2.8 43.15 2.4 43.05 2.0 42.95 1.65 42.65 1.2 42.3 0.8 42.0 0.4 41.75 0.0 41.55 -0.4 41.05 -0.75 40.35 -1.25 40.05 -1.65" fill="#483e32" fill-opacity="0.101960786" fill-rule="evenodd" stroke="none"/>
    <path d="M2.15 32.3 L2.25 32.7 2.35 33.1 2.45 33.45 2.4 33.85 2.35 34.6 2.25 35.35 2.2 36.1 2.1 37.2 2.05 37.6 1.9 37.95 1.75 38.3 1.6 38.65 1.45 39.05 1.15 39.4 0.3 40.45 -1.4 41.85 -4.6 43.4 -5.1 43.45 -11.55 42.7 -12.3 42.45 -12.9 42.05 -13.2 41.65 -13.55 41.25 -13.9 40.8 -14.25 40.4 -14.45 40.0 -14.55 39.65 -14.65 39.25 -14.75 38.85 -14.7 38.5 -14.65 38.1 -14.6 37.75 -14.5 37.4 -14.55 37.0 -14.55 36.65 -14.5 36.25 -14.5 35.9 -14.4 35.5 -14.3 35.15 -14.25 34.75 -13.8 34.05 -12.55 32.35 Q-10.85 30.25 -8.25 29.25 L-6.95 28.75 -6.45 28.7 -5.7 28.7 -5.7 28.6 -2.6 29.0 Q-1.0 29.2 0.3 30.1 1.55 30.95 2.15 32.3" fill="#483e32" fill-opacity="0.101960786" fill-rule="evenodd" stroke="none"/>
    <path d="M5.25 -55.05 L7.85 -57.4 8.5 -57.75 9.05 -58.05 9.6 -58.4 9.9 -58.75 10.25 -59.1 10.7 -59.4 11.2 -59.75 12.2 -59.85 12.25 -59.9 12.95 -59.7 13.2 -59.6 Q13.6 -59.4 14.05 -59.25 L14.5 -58.85 14.75 -58.45 14.9 -58.05 15.05 -57.65 15.0 -57.3 14.85 -56.95 14.7 -56.55 14.4 -56.25 14.0 -55.85 13.2 -55.55 12.95 -55.2 12.65 -54.85 12.4 -54.5 Q11.15 -53.9 10.35 -52.8 L8.1 -50.35 Q7.1 -49.45 6.45 -48.25 L6.05 -47.9 5.75 -47.55 5.45 -47.2 5.0 -46.15 4.55 -44.65 Q4.35 -43.95 4.3 -43.15 L4.25 -42.05 4.5 -41.3 4.65 -40.9 4.9 -40.5 5.3 -39.7 5.4 -39.3 5.5 -38.9 5.6 -38.55 5.65 -38.15 5.65 -37.8 5.6 -37.4 5.45 -37.05 5.3 -36.7 5.15 -36.3 5.0 -35.95 4.7 -35.6 4.75 -35.25 4.9 -34.85 5.1 -34.45 5.3 -34.05 5.65 -33.25 5.7 -32.9 5.8 -32.5 5.9 -32.1 5.85 -31.35 5.8 -31.0 5.75 -30.25 5.6 -29.15 5.5 -28.75 5.3 -28.4 5.05 -28.05 4.85 -27.7 4.6 -27.35 4.2 -27.0 Q-1.5 -23.95 -7.45 -26.9 L-8.3 -27.35 -9.15 -28.1 -10.3 -29.05 -11.35 -29.85 -12.0 -30.7 -12.25 -31.05 -12.75 -31.9 -13.15 -32.65 -13.15 -33.4 -13.15 -33.8 -13.15 -34.5 -13.15 -35.65 -13.05 -36.4 -12.9 -36.75 -12.75 -37.15 -12.6 -37.5 -12.3 -37.85 -12.15 -38.2 -12.0 -38.55 -11.8 -38.95 -11.25 -39.65 -10.95 -39.95 -10.05 -40.65 -9.65 -41.0 -7.45 -41.4 -2.25 -40.75 -2.2 -41.35 -2.1 -42.1 -1.9 -43.6 -1.75 -45.1 -1.7 -45.45 -1.4 -46.2 -1.1 -46.9 -0.5 -48.35 -0.25 -49.45 2.15 -52.25 5.25 -55.05" fill="#ffffff" fill-opacity="0.2" fill-rule="evenodd" stroke="none"/>
    <path d="M2.45 -30.5 L3.05 -29.35 3.05 -28.95 3.15 -27.8 3.35 -26.7 3.35 -25.55 3.2 -24.45 3.05 -24.1 3.05 -23.7 3.1 -23.3 3.1 -22.95 3.05 -22.55 3.0 -21.85 2.95 -21.45 2.8 -21.1 2.65 -20.75 2.5 -20.35 1.45 -18.95 Q0.5 -17.75 -0.8 -16.85 L-4.45 -14.6 -5.45 -14.05 Q-9.3 -13.5 -12.7 -15.3 -14.65 -16.25 -15.75 -18.1 L-16.2 -18.85 -16.5 -20.0 -16.7 -21.9 -16.55 -23.8 -16.35 -26.05 -16.25 -27.15 -16.1 -27.5 -15.95 -27.85 -15.9 -28.25 -15.85 -28.6 -15.75 -29.0 -15.65 -29.35 -15.6 -29.7 -15.5 -30.1 -14.7 -31.6 -13.05 -33.75 Q-11.55 -35.15 -9.7 -36.0 L-8.3 -36.35 -7.55 -36.35 -7.5 -36.4 -5.55 -36.15 -3.7 -35.7 -2.0 -35.05 -0.85 -34.2 1.3 -32.15 2.45 -30.5" fill="#ffffff" fill-opacity="0.2" fill-rule="evenodd" stroke="none"/>
    <path d="M26.7 -7.6 L28.1 -7.45 29.3 -7.15 30.05 -6.9 30.65 -6.5 31.0 -6.1 31.55 -5.6 32.35 -4.8 32.7 -4.4 33.3 -3.6 33.4 -3.25 33.55 -2.85 33.7 -2.45 33.75 -2.05 33.65 -1.35 33.6 -0.95 33.5 -0.2 33.4 0.55 33.4 0.9 33.25 1.25 33.05 1.65 32.9 2.0 32.75 2.35 32.45 2.7 32.15 3.05 31.8 3.4 31.4 3.75 29.55 4.55 27.0 5.1 Q25.4 5.2 24.05 4.5 L23.45 4.05 22.85 3.65 22.5 3.2 22.15 2.8 21.85 2.4 21.5 2.0 21.4 1.6 21.3 1.25 21.2 0.85 21.25 0.5 21.3 0.1 21.3 -0.25 21.4 -0.65 21.5 -1.0 21.5 -1.4 21.45 -1.75 21.5 -2.15 21.5 -2.5 21.55 -2.9 21.6 -3.25 21.75 -3.6 21.95 -3.95 22.55 -4.7 23.1 -5.4 23.6 -6.1 24.65 -7.15 25.2 -7.35 25.45 -7.45 25.95 -7.5 26.7 -7.5 26.7 -7.6" fill="#ffffff" fill-opacity="0.2" fill-rule="evenodd" stroke="none"/>
    <path d="M20.0 -2.25 L20.3 -2.6 20.65 -2.95 21.1 -3.3 21.75 -3.6 22.25 -3.85 22.5 -3.95 23.0 -4.0 23.75 -4.0 23.8 -4.05 24.25 -4.0 25.75 -3.75 26.85 -3.4 27.95 -2.95 28.55 -2.5 29.0 -2.1 29.2 -1.7 29.35 -1.35 29.55 -0.95 29.7 -0.55 29.85 -0.15 29.9 0.25 29.9 0.6 29.85 1.0 29.85 1.35 29.8 1.75 29.75 2.45 29.7 2.85 29.55 3.2 29.4 3.55 29.25 3.95 29.05 4.3 28.9 4.65 28.6 5.4 28.55 5.75 28.55 6.15 28.5 6.5 28.45 6.9 28.3 7.25 28.15 7.6 28.0 7.95 27.7 8.3 27.45 8.65 27.15 9.0 26.75 9.35 25.8 10.0 25.15 10.35 24.4 10.55 23.85 10.6 23.1 10.7 22.4 10.5 21.9 10.3 21.4 10.15 20.7 9.8 19.15 8.95 18.8 8.55 18.45 8.1 18.25 7.75 18.0 7.35 17.8 6.95 17.65 6.2 17.6 5.8 17.65 5.05 Q17.65 4.3 17.8 3.6 L18.0 1.7 18.05 1.35 18.2 0.95 18.35 0.6 18.5 0.25 18.8 -0.1 19.05 -0.45 19.25 -0.85 19.4 -1.2 19.55 -1.55 19.7 -1.9 20.0 -2.25" fill="#ffffff" fill-opacity="0.2" fill-rule="evenodd" stroke="none"/>
    <path d="M52.95 -17.5 L53.65 -17.25 54.15 -16.85 54.75 -16.4 55.05 -16.0 55.3 -15.6 55.5 -15.2 55.7 -14.85 55.9 -14.4 56.0 -14.05 56.1 -13.65 56.1 -13.3 56.05 -12.9 56.0 -12.55 56.0 -12.15 55.95 -11.8 55.85 -11.05 55.75 -10.7 55.55 -10.35 55.3 -9.95 55.15 -9.6 55.0 -9.25 54.8 -8.9 54.6 -8.55 54.25 -8.2 53.85 -7.85 53.3 -7.5 51.8 -7.45 Q49.25 -7.7 46.75 -7.4 L45.8 -7.4 44.7 -7.75 44.1 -8.2 43.75 -8.6 43.55 -9.0 43.45 -9.75 43.25 -10.9 43.15 -12.05 43.2 -13.9 43.45 -15.4 43.75 -15.75 43.95 -16.1 44.2 -16.45 44.45 -16.8 44.75 -17.15 45.15 -17.5 45.7 -17.85 46.45 -18.0 46.95 -18.1 47.35 -18.2 48.1 -18.2 48.1 -18.25 49.1 -18.15 51.2 -17.85 52.95 -17.5" fill="#ffffff" fill-opacity="0.2" fill-rule="evenodd" stroke="none"/>
    <path d="M51.75 -12.4 L52.05 -12.0 52.3 -11.6 52.5 -11.2 52.6 -10.85 52.7 -10.45 52.9 -10.05 53.0 -9.65 53.05 -9.3 53.05 -8.9 53.05 -8.55 53.0 -8.15 52.95 -7.8 52.9 -7.4 52.75 -6.7 52.55 -6.35 52.35 -5.95 52.1 -5.6 51.85 -5.25 51.7 -4.9 51.55 -4.55 51.3 -4.15 51.1 -3.85 50.85 -3.45 50.65 -3.1 50.4 -2.75 50.1 -2.4 49.55 -2.1 48.9 -1.75 48.4 -1.55 48.0 -1.45 47.5 -1.4 46.75 -1.3 44.3 -1.7 43.15 -2.0 42.45 -2.45 42.15 -2.85 41.9 -3.25 41.7 -3.65 41.5 -4.05 41.35 -4.4 41.15 -4.8 41.05 -5.2 41.0 -5.6 40.9 -5.95 40.8 -6.35 40.85 -6.7 40.9 -7.45 40.95 -8.2 41.1 -9.3 41.7 -11.15 41.85 -11.5 42.15 -11.85 42.45 -12.25 42.6 -12.6 42.75 -12.95 43.05 -13.3 43.45 -13.65 44.0 -13.95 44.5 -14.2 45.0 -14.25 45.75 -14.3 46.75 -14.3 46.75 -14.35 48.25 -14.15 49.7 -13.65 51.15 -12.85 51.75 -12.4" fill="#ffffff" fill-opacity="0.2" fill-rule="evenodd" stroke="none"/>
    <path d="M6.2 -34.3 Q7.45 -32.65 8.3 -30.75 L8.5 -28.9 8.45 -27.75 8.3 -26.65 7.85 -24.75 6.95 -22.6 6.4 -21.9 5.85 -21.2 5.35 -20.5 5.1 -20.15 4.8 -19.8 4.55 -19.45 1.65 -17.75 0.7 -17.15 -0.8 -16.15 -1.8 -15.6 -4.5 -15.35 Q-7.0 -15.05 -9.45 -15.8 L-10.3 -16.1 -11.5 -16.95 -12.8 -17.8 -14.15 -19.45 -14.7 -20.25 -15.15 -21.05 -15.55 -21.85 -15.9 -22.6 -16.0 -23.0 -16.05 -23.35 -16.15 -23.75 -16.1 -25.65 -16.05 -26.4 -15.95 -27.5 -15.85 -28.6 -15.65 -30.5 -15.5 -31.2 -15.25 -31.6 -15.1 -31.95 -14.85 -32.65 -14.7 -33.05 -14.6 -33.4 -14.55 -33.75 -14.25 -34.15 -14.1 -34.5 -13.95 -34.85 -13.8 -35.2 -13.6 -35.6 -13.15 -36.3 -12.6 -37.0 -12.05 -37.7 -11.75 -38.05 -11.5 -38.4 -11.1 -38.75 -10.45 -39.05 -9.9 -39.25 -8.65 -39.4 -6.9 -39.5 -6.35 -39.7 -5.6 -39.7 -5.6 -39.75 -4.85 -39.55 -4.6 -39.45 -4.0 -39.25 -3.65 -39.25 -3.0 -39.3 -2.25 -39.35 Q1.25 -39.0 3.9 -36.75 L6.2 -34.3 M-3.75 -28.2 L-4.25 -27.1 -4.6 -26.0 -4.75 -25.25 -4.4 -25.3 -4.1 -25.6 -3.8 -25.95 -3.75 -26.7 -3.65 -27.45 -3.65 -28.15 -3.75 -28.2" fill="#ffffff" fill-opacity="0.2" fill-rule="evenodd" stroke="none"/>
    <path d="M12.8 35.4 L13.75 35.7 14.35 36.15 14.6 36.55 14.8 36.95 15.0 37.35 15.1 37.7 15.05 38.1 14.9 38.45 14.75 38.8 14.5 39.15 14.2 39.5 13.65 39.8 13.15 40.05 12.5 40.25 12.1 40.6 11.7 40.95 11.3 41.25 Q9.0 42.15 6.8 43.2 L1.75 45.6 1.0 45.65 -0.05 45.8 -1.05 45.95 -1.55 45.9 -2.65 45.55 -3.25 45.15 -3.7 44.75 -3.9 44.35 -4.15 43.95 -4.15 43.55 -4.15 43.2 -4.15 42.8 -4.1 42.45 -4.0 42.05 -3.95 41.7 -3.65 41.35 -3.4 41.0 -2.85 40.7 -2.2 40.35 -1.4 40.05 -0.75 39.85 0.0 39.75 1.0 39.6 5.0 37.8 Q6.9 36.9 8.95 36.55 L9.6 36.25 10.0 35.9 10.9 35.6 11.55 35.4 12.3 35.4 12.3 35.35 12.8 35.4" fill="#ffffff" fill-opacity="0.2" fill-rule="evenodd" stroke="none"/>
    <path d="M51.6 -68.35 Q48.65 -69.75 45.85 -73.3 38.45 -76.15 38.0 -78.45 33.75 -78.55 30.85 -77.3 28.25 -71.05 36.2 -62.8 35.15 -69.45 36.0 -73.85 37.6 -74.8 37.65 -73.85 37.6 -73.0 38.85 -70.6 40.4 -68.25 40.3 -62.3 42.65 -63.35 41.95 -67.05 41.35 -70.4 44.15 -72.9 46.3 -69.25 46.05 -65.9 46.95 -67.5 48.45 -68.8 51.05 -65.6 51.5 -62.5 54.25 -65.25 51.6 -68.35 M60.6 -59.6 L63.45 -47.55 Q62.7 -41.8 63.3 -35.95 L63.05 -35.2 Q61.25 -27.7 56.35 -18.75 59.75 -17.0 61.5 -14.4 63.2 -11.85 63.4 -8.6 68.0 -3.85 71.8 1.3 76.8 8.35 80.25 15.9 79.75 20.05 81.55 23.4 81.85 33.65 79.15 44.2 75.8 48.25 75.05 52.3 71.15 54.85 69.75 57.5 72.5 70.45 63.1 80.5 L57.95 80.5 Q59.85 79.2 61.75 77.1 58.8 72.2 54.8 68.5 58.1 69.65 61.35 71.95 61.8 73.5 63.1 75.25 67.85 67.85 66.9 59.8 64.75 60.55 62.8 59.3 L58.65 62.6 Q57.55 62.3 56.5 63.4 48.65 64.3 41.4 62.3 L36.9 63.85 Q31.65 63.5 26.65 60.7 28.5 59.7 30.0 59.8 26.15 58.55 22.4 56.35 22.45 54.5 24.6 52.85 L22.1 50.8 Q11.05 58.6 -3.25 58.15 -14.8 57.05 -19.25 44.75 -25.35 28.55 -10.85 19.6 -2.6 16.25 6.0 16.5 L5.7 13.55 4.95 10.75 Q-1.7 9.45 -8.45 11.85 -10.7 14.0 -12.4 14.05 -17.0 17.3 -21.55 25.15 -24.5 25.9 -27.2 24.15 -30.2 24.5 -32.85 22.9 -39.5 22.9 -46.65 25.45 -54.75 28.65 -57.5 36.05 -59.35 39.4 -59.9 44.05 -61.55 39.9 -64.1 38.4 L-70.9 37.05 -78.6 38.1 -81.6 38.9 -81.6 35.2 Q-80.05 34.6 -78.6 34.15 L-72.5 32.65 Q-64.75 32.95 -60.75 36.65 -59.25 29.0 -53.2 25.1 -47.35 21.25 -41.55 20.35 -44.35 20.2 -47.15 21.5 L-50.2 21.75 Q-48.9 21.7 -49.15 21.5 L-58.45 22.05 Q-60.45 22.25 -60.25 22.5 -66.65 21.45 -72.55 14.8 -73.65 12.7 -73.2 10.55 -70.35 2.75 -66.0 0.4 -62.0 -1.85 -59.85 -1.25 -54.55 -4.55 -51.35 -4.95 -48.05 -6.6 -45.15 -5.25 -29.25 -8.5 -19.9 -4.6 L-10.05 -3.0 Q-17.95 -10.15 -19.1 -18.4 -20.2 -26.55 -11.85 -31.5 -7.85 -33.6 -5.75 -30.95 -11.8 -28.8 -14.5 -25.8 -17.25 -22.85 -15.6 -18.05 -14.15 -13.25 -10.9 -9.1 -7.7 -4.85 -1.2 -6.2 1.8 -7.4 4.85 -9.3 6.45 -5.4 5.85 -1.7 5.55 -0.5 5.9 0.6 L5.9 0.75 Q6.15 3.2 8.5 5.85 7.75 8.4 7.95 11.05 9.7 11.6 9.4 12.6 L9.45 12.6 9.75 13.9 10.3 13.95 Q11.15 17.55 13.55 23.55 L14.25 24.45 Q15.5 27.95 17.05 31.25 23.3 43.2 33.9 52.95 37.45 52.3 40.6 55.35 46.65 58.2 50.15 57.95 58.8 55.9 65.75 51.25 68.45 50.65 68.7 52.65 81.25 39.2 77.8 24.0 77.4 24.9 73.0 28.35 59.65 34.75 51.5 37.15 L44.6 41.55 Q46.8 44.1 49.4 42.55 51.85 41.0 54.05 41.65 56.85 40.55 57.0 39.3 L68.5 35.75 Q68.75 41.3 61.4 43.5 L66.1 43.4 Q68.8 42.2 71.35 42.9 65.25 48.25 56.9 49.8 55.0 48.6 53.05 46.15 L42.95 47.7 Q40.2 45.95 37.2 46.5 L33.85 43.5 Q32.55 40.85 34.4 38.35 31.9 34.8 33.6 31.8 L34.3 30.9 30.8 31.9 Q24.2 33.4 22.7 30.75 23.05 30.0 22.3 29.0 23.6 27.6 26.0 25.9 L27.45 24.8 25.2 24.95 Q22.6 25.2 19.95 26.15 19.5 23.1 22.6 21.7 22.8 21.5 23.1 21.45 26.9 20.15 29.85 18.2 29.55 16.55 26.05 18.5 23.85 16.1 21.1 15.7 19.25 12.1 18.2 8.6 16.4 7.05 14.05 8.15 12.3 4.45 15.35 1.3 13.15 0.3 10.4 3.55 10.8 -3.2 19.7 -8.65 22.45 -10.3 25.25 -11.3 22.6 -11.35 20.0 -10.65 L17.1 -9.6 Q16.1 -13.95 20.4 -16.05 17.7 -16.15 14.8 -13.4 13.45 -15.1 16.35 -16.45 14.2 -17.3 12.35 -19.0 L19.9 -21.3 Q22.4 -24.45 21.3 -28.15 21.8 -29.55 23.2 -27.45 24.35 -25.6 24.05 -24.7 26.2 -30.15 23.3 -36.3 26.65 -33.75 27.1 -28.9 28.6 -29.65 29.75 -32.9 31.9 -30.3 30.8 -28.0 28.9 -25.95 29.75 -23.5 26.75 -21.05 26.0 -18.45 30.05 -20.1 35.8 -23.25 L39.5 -25.4 39.15 -25.95 Q38.4 -27.45 35.55 -29.0 39.4 -32.65 40.3 -38.65 37.2 -44.9 32.95 -42.75 L32.95 -43.15 Q33.1 -46.7 30.45 -49.75 28.2 -49.65 27.0 -46.95 21.55 -56.1 13.45 -57.0 9.6 -57.55 4.35 -51.6 2.5 -48.5 2.5 -44.5 2.3 -40.65 -0.9 -38.85 -1.8 -41.45 0.3 -43.5 0.5 -50.4 5.95 -56.65 9.3 -60.65 14.05 -61.85 18.85 -63.15 23.95 -57.8 L27.75 -53.05 Q29.75 -55.85 33.15 -53.6 35.45 -50.5 35.0 -47.6 42.05 -46.65 43.25 -40.2 44.4 -33.55 40.25 -29.05 L42.05 -28.3 Q48.05 -25.65 52.25 -21.4 57.65 -29.5 54.65 -38.35 54.25 -39.9 53.35 -41.4 48.55 -48.3 41.75 -51.0 26.4 -65.25 28.5 -79.35 30.1 -80.45 31.25 -79.95 34.35 -81.7 38.0 -78.45 40.95 -82.2 51.1 -72.75 56.6 -66.05 60.6 -59.6 M54.65 -62.35 Q54.95 -57.8 58.35 -57.75 56.45 -61.35 54.65 -62.35 M22.25 -3.15 Q20.3 -0.45 19.45 2.05 19.4 10.35 25.05 13.45 29.0 15.1 34.3 12.0 39.4 8.45 40.75 3.85 40.15 -3.25 32.85 -5.1 28.5 -7.7 22.25 -3.15 M44.5 -22.85 Q42.85 -23.05 41.2 -22.05 43.8 -20.2 44.5 -22.85 M49.15 -9.35 L50.5 -9.95 50.95 -9.8 Q52.5 -9.25 52.85 -8.75 54.1 -7.65 53.4 -5.4 51.9 -2.85 48.95 -3.25 47.45 -4.55 47.05 -6.25 46.95 -6.35 47.0 -6.55 L47.05 -7.1 47.25 -6.75 47.5 -6.45 47.75 -6.4 47.8 -6.35 48.05 -6.3 48.15 -6.15 48.55 -6.15 48.95 -6.2 49.25 -6.25 49.55 -6.45 49.75 -6.65 49.8 -6.85 49.9 -7.15 50.1 -7.45 50.1 -7.7 50.05 -7.9 49.9 -8.15 49.95 -8.35 49.85 -8.5 49.55 -8.85 49.25 -9.25 49.15 -9.35 M44.5 -0.05 Q45.85 -0.3 46.95 1.8 54.15 3.3 59.0 -3.45 63.8 -10.3 54.1 -15.45 46.7 -17.15 43.35 -11.9 40.0 -6.65 44.5 -0.05 M67.35 3.5 Q66.45 -0.55 63.4 -0.15 64.7 3.2 62.9 6.1 58.05 7.65 53.3 11.9 51.4 11.5 49.5 13.05 53.55 13.65 58.1 11.9 60.0 10.3 61.6 9.45 64.0 8.2 66.35 8.1 67.6 12.75 62.05 14.8 L49.1 19.45 48.15 19.8 Q42.7 20.95 43.45 24.05 L43.45 24.65 Q50.15 22.6 52.5 22.85 56.25 19.85 59.7 19.95 65.65 15.6 71.4 14.55 72.9 17.35 70.8 19.7 66.95 22.55 53.0 27.2 L47.55 29.8 Q51.65 31.35 59.3 27.85 65.1 25.45 71.05 22.3 74.0 22.75 77.1 20.45 75.45 13.4 70.3 5.9 L68.3 4.1 67.35 3.5 M29.1 3.65 Q30.7 4.85 29.3 3.35 L29.1 3.65 M30.8 0.75 Q33.1 2.3 33.15 5.05 31.75 8.9 28.05 8.0 L27.95 7.85 Q26.5 7.05 25.95 5.65 L26.0 4.25 26.2 4.45 26.8 4.6 27.2 4.45 27.5 4.4 27.8 4.2 28.0 4.0 28.05 3.8 28.15 3.5 28.35 2.95 28.45 2.85 28.3 2.7 28.4 2.55 28.25 2.4 28.35 2.15 28.15 2.0 28.0 1.7 27.75 1.3 27.55 1.1 27.45 0.95 Q28.25 0.55 29.45 0.5 L30.8 0.75 M2.2 20.6 Q2.55 21.25 3.25 21.0 4.35 18.1 2.2 20.6 M10.4 28.45 L6.35 28.45 8.15 33.3 Q10.05 32.7 12.0 32.65 L10.4 28.45 M3.95 28.7 Q0.15 29.4 -3.6 31.85 -2.0 34.55 -1.95 36.75 L5.35 34.55 Q5.9 32.15 3.95 28.7 M9.15 43.3 Q8.9 40.4 6.3 36.5 1.65 37.25 -1.15 38.1 0.15 41.7 0.95 45.2 4.65 45.05 9.15 43.3 M15.35 40.7 L12.65 33.85 9.2 35.25 Q9.6 38.5 11.9 42.15 13.6 41.6 15.35 40.7 M26.15 64.25 Q25.9 65.9 25.7 64.25 26.3 62.7 26.15 64.25 M40.4 65.8 Q44.95 62.35 48.9 65.75 42.25 69.9 36.25 69.0 L29.3 66.2 Q30.45 63.4 32.35 64.3 34.25 65.2 36.3 64.3 38.45 64.65 40.4 65.8 M0.3 50.3 Q-5.9 51.55 -9.05 49.35 L-11.0 47.85 Q-17.8 36.15 -15.25 30.2 -14.5 29.85 -14.15 30.6 -15.3 33.75 -12.8 33.2 -14.85 28.1 -12.65 24.2 -22.3 31.45 -16.15 44.35 -15.0 46.3 -13.45 47.7 L-8.0 52.05 Q-4.75 54.9 3.65 53.65 8.65 52.7 12.65 49.9 L4.4 51.8 Q2.1 51.35 0.3 50.3 M59.65 64.8 Q59.35 66.45 57.85 64.05 59.75 63.3 59.65 64.8 M42.25 80.5 Q39.65 75.4 39.2 70.45 41.2 70.9 41.25 72.95 41.45 74.9 43.4 75.6 44.4 78.1 44.45 80.5 L42.25 80.5 M49.5 79.55 Q50.9 79.7 51.15 80.5 L49.35 80.5 49.5 79.55 M3.25 -3.2 Q1.65 -1.0 -0.35 -1.7 -2.25 -2.35 -2.4 -0.5 0.4 -1.5 2.6 1.05 4.95 -0.8 3.25 -3.2 M-12.75 -36.1 Q-14.6 -41.1 -9.25 -43.0 -3.7 -45.05 -2.4 -39.65 -5.75 -37.15 -8.5 -40.15 -9.75 -39.2 -10.65 -40.55 -12.45 -38.4 -12.75 -36.1 M-36.65 -0.7 Q-37.15 4.6 -40.75 8.35 -34.45 4.05 -31.9 -0.65 -34.25 -1.55 -36.65 -0.7 M-0.6 20.1 Q-2.4 19.75 -5.05 21.1 -5.6 23.95 -4.0 24.7 L-0.6 20.1 M-14.65 10.1 L-17.2 9.35 Q-19.5 11.2 -21.65 10.9 L-29.55 14.4 Q-30.6 14.8 -30.6 15.25 -30.8 15.55 -33.15 16.05 -35.45 16.6 -38.4 19.6 -31.25 19.05 -23.75 21.45 -19.8 16.2 -19.15 14.65 L-18.2 13.5 Q-15.75 10.15 -14.15 10.7 -12.6 8.95 -14.65 10.1 M-27.35 1.3 L-26.25 0.45 -27.15 -0.7 -28.25 0.2 -27.35 1.3 M-5.2 31.75 Q-11.45 33.05 -10.45 39.4 -8.1 37.95 -4.35 36.8 -4.3 34.55 -5.2 31.75 M-3.25 38.9 Q-6.2 39.3 -9.65 40.75 -6.55 44.8 -1.95 44.75 -3.45 41.55 -3.25 38.9 M-11.2 27.0 Q-8.65 25.2 -8.5 22.5 -11.6 24.15 -11.2 27.0 M-59.65 12.1 Q-51.5 5.75 -47.2 -0.85 -59.2 -0.75 -69.95 9.85 -70.85 11.0 -69.7 12.45 L-66.15 13.45 Q-60.3 7.45 -55.65 4.15 -56.3 8.25 -59.65 12.1 M-42.7 0.5 Q-41.8 1.6 -41.4 -0.65 -43.7 -0.45 -42.7 0.5" fill="#483e32" fill-rule="evenodd" stroke="none"/>
  </g>
</svg>
