<?xml version="1.0" encoding="UTF-8" standalone="no"?>
<svg xmlns:xlink="http://www.w3.org/1999/xlink" height="37.4px" width="37.4px" xmlns="http://www.w3.org/2000/svg">
  <g transform="matrix(1.0, 0.0, 0.0, 1.0, 18.7, 18.7)">
    <path d="M18.1 0.0 L17.2 -4.65 Q16.65 -6.9 15.9 -7.9 L12.8 -12.85 Q10.9 -13.9 9.1 -15.0 7.25 -16.1 5.9 -17.05 4.55 -17.95 0.0 -18.1 L-4.3 -17.45 Q-6.75 -17.15 -7.65 -16.2 -8.5 -15.25 -12.85 -12.85 L-15.7 -8.9 Q-17.2 -6.75 -17.5 -5.75 L-18.1 0.0 Q-18.0 2.3 -17.35 4.65 L-16.3 7.9 -12.85 12.8 Q-11.0 14.55 -8.95 15.4 L-5.8 16.9 Q-4.7 17.55 0.0 18.1 L4.9 17.25 8.4 16.25 Q9.25 15.95 12.8 12.8 14.85 11.3 15.7 9.0 16.65 6.7 17.3 5.65 18.0 4.6 18.1 0.0 Z" fill="none" stroke="#e66b7f" stroke-linecap="round" stroke-linejoin="round" stroke-opacity="0.5019608" stroke-width="1.5"/>
  </g>
</svg>
