<?xml version="1.0" encoding="UTF-8" standalone="no"?>
<svg xmlns:xlink="http://www.w3.org/1999/xlink" height="16.55px" width="25.7px" xmlns="http://www.w3.org/2000/svg">
  <g transform="matrix(1.0, 0.0, 0.0, 1.0, 12.35, 8.85)">
    <path d="M0.65 -3.1 L0.75 -2.95 0.9 -2.85 3.1 -2.7 4.0 -2.55 4.25 -2.4 4.4 -2.25 4.5 -2.1 4.55 -1.95 4.7 -1.65 4.9 -1.4 4.95 -1.35 5.2 -1.35 5.6 -1.25 5.9 -1.1 6.05 -0.95 6.15 -0.8 6.25 -0.65 6.5 -0.35 6.75 -0.05 6.8 0.1 6.9 0.25 6.95 0.4 7.0 0.55 7.05 0.7 7.15 0.85 7.25 1.0 7.35 1.15 7.55 1.45 7.75 1.65 7.75 1.55 7.7 1.4 7.65 1.25 7.55 1.1 7.4 0.95 7.25 0.8 7.2 0.65 7.15 0.5 7.05 0.35 7.0 0.2 6.95 0.05 6.9 -0.1 6.8 -0.25 6.75 -0.4 6.7 -0.55 6.7 -0.7 6.7 -0.85 6.7 -1.15 6.7 -1.6 6.75 -1.75 6.8 -1.9 6.9 -2.05 7.05 -2.2 7.25 -2.35 7.5 -2.45 7.8 -2.5 8.0 -2.5 8.4 -2.4 8.7 -2.25 8.85 -2.1 8.95 -1.95 9.0 -1.8 9.05 -1.65 9.1 -1.5 9.2 -1.35 9.35 -1.2 9.75 -0.6 10.2 0.15 10.6 0.75 10.65 0.9 10.7 1.05 10.8 1.2 10.85 1.35 10.95 1.5 11.0 1.65 11.05 1.8 11.15 1.95 11.2 2.1 11.25 2.25 11.3 2.4 11.35 2.7 11.35 3.0 11.4 3.15 11.5 3.3 11.6 3.45 11.65 3.6 11.7 3.75 11.75 3.9 11.85 4.05 12.0 4.2 12.15 4.35 12.3 4.5 12.4 4.65 12.45 4.8 12.5 4.95 12.55 5.1 12.55 5.25 12.55 5.4 12.55 5.55 12.55 5.7 12.5 6.0 12.5 6.15 12.4 6.3 12.35 6.45 12.2 6.6 12.0 6.75 11.85 6.85 11.7 6.9 11.4 6.95 10.95 6.85 10.7 6.7 10.5 6.55 10.4 6.45 10.35 6.6 10.35 6.75 10.25 6.9 10.2 7.05 10.1 7.2 9.9 7.35 9.65 7.5 9.2 7.6 8.8 7.55 8.35 7.45 8.1 7.3 7.9 7.15 7.8 7.0 7.7 6.85 7.65 6.7 7.5 6.55 7.4 6.4 7.3 6.25 7.25 6.1 7.2 6.0 7.2 5.95 6.75 5.85 6.5 5.7 6.3 5.55 6.05 5.25 5.7 4.65 5.65 4.5 5.45 4.35 5.3 4.2 5.15 4.05 5.05 3.9 5.0 3.75 4.95 3.6 4.85 3.45 4.8 3.3 4.75 3.15 4.75 3.0 4.75 2.85 4.65 2.7 4.6 2.55 4.45 2.4 4.15 2.25 4.0 2.1 3.9 1.95 3.75 1.65 3.4 1.05 3.2 0.75 3.15 0.6 3.15 0.45 3.15 0.3 3.15 0.15 3.15 0.0 3.1 -0.15 3.0 -0.3 2.9 -0.45 2.7 -0.6 2.45 -0.7 2.4 -0.7 0.6 -0.85 0.15 -0.9 -0.15 -1.05 -0.4 -1.2 -0.55 -1.35 -0.7 -1.5 -0.85 -1.65 -1.0 -1.95 -1.1 -2.1 -1.35 -2.25 -1.5 -2.35 -1.6 -2.4 -2.05 -2.5 -2.25 -2.6 -2.65 -2.7 -3.0 -2.8 -3.45 -2.9 -3.75 -3.05 -4.0 -3.2 -4.15 -3.35 -4.45 -3.5 -4.6 -3.6 -5.05 -3.7 -5.35 -3.85 -5.5 -3.95 -5.8 -4.0 -9.4 -4.35 -9.65 -4.5 -9.8 -4.65 -9.95 -4.8 -10.05 -4.95 -10.1 -5.1 -10.15 -5.25 -10.15 -5.4 -10.15 -5.55 -10.1 -5.7 -10.05 -5.85 -9.95 -6.0 -9.8 -6.15 -9.5 -6.3 -9.35 -6.45 -9.3 -6.6 -9.2 -6.75 -9.0 -6.9 -8.6 -7.0 -8.1 -7.05 -7.8 -7.05 -7.8 -7.1 -7.4 -7.1 -6.6 -7.0 -6.2 -6.95 -6.0 -6.8 -5.9 -6.65 -5.85 -6.5 -5.75 -6.35 -5.75 -6.2 -5.6 -6.05 -5.4 -6.0 -5.2 -6.0 -4.8 -5.9 -4.5 -5.75 -4.3 -5.65 -4.2 -5.6 -3.8 -5.5 -3.5 -5.35 -3.2 -5.2 -2.9 -5.05 -2.7 -4.9 -2.6 -4.85 -2.2 -4.7 -1.6 -4.5 -0.8 -4.3 -0.5 -4.15 -0.25 -4.0 0.1 -3.7 0.65 -3.1" fill="#663333" fill-opacity="0.101960786" fill-rule="evenodd" stroke="none"/>
    <path d="M0.45 -6.35 L0.7 -6.2 0.9 -6.1 1.1 -6.05 1.3 -6.0 1.6 -5.9 1.85 -5.75 2.1 -5.6 2.3 -5.5 2.5 -5.45 2.7 -5.4 3.0 -5.3 4.8 -5.1 5.2 -5.05 5.45 -4.9 5.6 -4.75 5.9 -4.6 6.45 -4.3 6.95 -4.05 7.4 -3.9 7.65 -3.75 7.8 -3.6 7.85 -3.45 7.95 -3.3 8.0 -3.15 8.1 -3.0 8.15 -2.85 8.25 -2.7 8.35 -2.55 8.55 -2.4 8.75 -2.25 8.85 -2.1 8.9 -1.95 8.95 -1.8 9.0 -1.65 9.0 -1.5 9.15 -1.35 9.25 -1.2 9.3 -1.05 9.4 -0.9 9.45 -0.75 9.45 -0.6 9.45 -0.45 9.4 -0.3 9.3 -0.15 9.25 0.0 9.15 0.15 9.1 0.3 9.05 0.45 9.05 0.6 9.05 0.75 9.0 0.9 8.9 1.05 8.85 1.2 8.75 1.35 8.5 1.5 8.3 1.6 8.0 1.65 7.55 1.55 7.3 1.4 7.15 1.25 7.05 1.1 7.0 0.95 6.95 0.8 6.95 0.65 6.95 0.5 6.95 0.35 6.95 0.2 6.95 0.05 6.9 -0.1 6.75 -0.25 6.5 -0.4 6.25 -0.7 5.9 -1.15 5.5 -1.65 5.1 -2.2 5.05 -2.35 5.0 -2.5 5.0 -2.6 4.9 -2.65 4.3 -2.8 2.95 -3.05 1.15 -3.3 0.85 -3.45 0.6 -3.6 0.25 -3.75 0.1 -3.9 -0.05 -4.05 -0.2 -4.2 -0.35 -4.35 -0.65 -4.5 -1.0 -4.6 -1.45 -4.7 -1.6 -4.8 -2.05 -4.9 -2.25 -5.05 -2.4 -5.2 -2.55 -5.35 -2.7 -5.5 -2.75 -5.65 -2.8 -5.8 -2.8 -5.95 -2.8 -6.1 -2.8 -6.25 -2.75 -6.4 -2.65 -6.55 -2.5 -6.7 -2.35 -6.85 -2.1 -6.95 -1.8 -6.95 -1.8 -7.0 -1.4 -7.0 -1.0 -6.9 -0.65 -6.75 -0.3 -6.65 0.2 -6.5 0.45 -6.35" fill="#663333" fill-opacity="0.101960786" fill-rule="evenodd" stroke="none"/>
    <path d="M4.15 -4.7 L4.3 -4.55 4.45 -4.4 4.75 -4.1 4.85 -3.95 4.95 -3.8 5.05 -3.7 5.35 -3.5 6.0 -3.4 6.35 -3.3 6.6 -3.15 6.75 -3.0 7.0 -2.9 7.05 -2.85 7.4 -2.75 7.6 -2.6 7.8 -2.45 8.05 -2.3 8.5 -2.0 8.7 -1.85 8.8 -1.7 8.85 -1.55 8.9 -1.4 8.95 -1.25 8.95 -1.1 8.9 -0.95 8.85 -0.8 8.75 -0.65 8.65 -0.5 8.4 -0.35 8.0 -0.25 7.8 -0.25 7.4 -0.35 7.1 -0.5 6.8 -0.65 6.65 -0.8 6.45 -0.95 6.3 -1.1 6.15 -1.4 5.9 -1.55 5.75 -1.7 5.2 -1.8 4.8 -1.9 4.45 -2.2 3.9 -2.65 3.7 -2.95 3.35 -3.4 3.2 -3.5 2.95 -3.55 2.65 -3.65 1.3 -4.4 -0.05 -5.1 -0.7 -5.4 -0.8 -5.45 -1.05 -5.45 -1.2 -5.4 -1.4 -5.35 -1.7 -5.45 -1.8 -5.6 -1.85 -5.75 -1.85 -5.9 -1.8 -6.05 -1.6 -6.2 -1.2 -6.35 -1.0 -6.45 -0.8 -6.45 -0.8 -6.5 0.5 -6.0 1.85 -5.45 2.65 -5.05 2.8 -5.0 3.1 -4.95 3.6 -4.95 3.95 -4.85 4.15 -4.7" fill="#663333" fill-opacity="0.101960786" fill-rule="evenodd" stroke="none"/>
    <path d="M2.8 -2.75 L3.1 -2.6 3.8 -2.15 4.5 -1.7 4.75 -1.55 4.85 -1.4 4.9 -1.25 5.05 -1.1 5.2 -0.95 5.35 -0.8 5.55 -0.5 5.6 -0.35 5.9 -0.05 6.65 1.05 7.25 1.8 7.8 2.6 8.25 3.55 8.35 3.7 8.4 3.85 8.45 4.0 8.55 4.15 8.6 4.3 8.7 4.45 8.7 4.6 8.75 4.75 8.8 4.9 8.8 5.05 8.8 5.2 8.8 5.35 8.8 5.5 8.75 5.65 8.7 5.8 8.65 5.95 8.55 6.1 8.45 6.25 8.25 6.4 8.05 6.5 7.9 6.55 7.6 6.6 7.3 6.65 7.1 6.8 7.0 6.9 6.9 6.95 6.7 7.0 6.4 7.05 6.1 7.0 5.75 6.9 5.45 6.75 5.3 6.6 5.2 6.45 5.1 6.3 5.05 6.15 4.95 5.85 4.85 5.55 4.75 5.25 4.6 4.8 4.6 4.65 4.55 4.5 4.45 4.35 4.35 4.2 4.25 4.05 4.2 3.9 4.15 3.75 3.7 3.1 2.8 1.95 1.8 0.9 Q1.0 0.15 0.0 -0.25 L-0.1 -0.3 -0.3 -0.35 -1.3 -0.6 -4.25 -1.1 -4.55 -1.25 -4.7 -1.4 -4.8 -1.55 -4.9 -1.7 -4.95 -1.85 -5.0 -2.0 -5.0 -2.15 -5.0 -2.3 -5.0 -2.45 -4.95 -2.6 -4.9 -2.75 -4.8 -2.9 -4.65 -3.05 -4.5 -3.2 -4.8 -3.35 -5.1 -3.5 -5.55 -3.8 -5.8 -3.9 -5.9 -3.95 -8.45 -4.15 -9.0 -4.25 -9.2 -4.4 -9.35 -4.55 -9.4 -4.7 -9.45 -4.85 -9.5 -5.0 -9.6 -5.15 -9.75 -5.3 -9.9 -5.45 -10.05 -5.6 -10.1 -5.75 -10.1 -5.9 -10.1 -6.05 -10.1 -6.35 -10.1 -6.5 -10.1 -6.65 -10.05 -6.8 -9.9 -6.95 -9.75 -7.1 -9.6 -7.2 -9.5 -7.25 -9.2 -7.25 -9.2 -7.3 -7.8 -7.3 -7.4 -7.2 -7.2 -7.05 -7.05 -6.9 -7.0 -6.75 -6.6 -6.6 -6.4 -6.45 -6.25 -6.3 -6.15 -6.15 -5.9 -6.0 -4.85 -5.55 -4.0 -5.1 -3.7 -5.0 -3.5 -4.95 -3.2 -4.85 -2.95 -4.7 -2.7 -4.55 -2.55 -4.45 -1.7 -4.1 Q-0.6 -3.45 0.6 -3.25 L2.8 -2.75" fill="#663333" fill-opacity="0.101960786" fill-rule="evenodd" stroke="none"/>
    <path d="M4.2 -0.2 L5.55 1.4 5.6 1.55 5.7 1.7 5.75 1.85 5.85 2.0 5.85 2.15 5.9 2.3 5.9 2.45 5.9 2.6 5.9 2.75 5.9 2.9 5.95 3.05 6.05 3.2 6.05 3.35 6.1 3.5 6.1 3.65 6.1 3.8 6.1 3.95 6.1 4.1 6.1 4.25 6.1 4.4 6.1 4.55 6.05 4.7 6.0 4.85 5.95 5.0 5.9 5.15 5.8 5.3 5.7 5.45 5.6 5.6 5.5 5.75 5.45 5.9 5.35 6.05 5.25 6.2 5.05 6.35 4.8 6.5 1.7 6.6 -3.5 5.95 -3.85 5.9 -4.1 5.75 -4.3 5.6 -4.55 5.45 -4.7 5.35 -4.75 5.3 -5.5 5.2 -5.85 5.1 -6.3 5.0 -6.65 4.9 -6.9 4.75 -7.05 4.6 -7.2 4.45 -7.3 4.3 -7.35 4.15 -7.45 4.0 -7.5 3.85 -7.6 3.7 -7.6 3.55 -7.65 3.25 -7.65 3.1 -7.65 2.95 -7.65 2.8 -7.65 2.65 -7.65 2.35 -7.6 2.05 -7.6 1.9 -7.5 1.75 -7.45 1.6 -7.35 1.45 -7.3 1.3 -7.2 1.15 -7.05 1.0 -6.9 0.85 -6.65 0.7 -6.15 0.4 -5.9 0.25 -5.65 0.1 -5.4 -0.1 -5.3 -0.2 -5.25 -0.35 -5.15 -0.5 -5.1 -0.65 -5.05 -0.8 -5.05 -0.95 -5.0 -1.1 -4.85 -1.4 -4.75 -1.55 -4.7 -1.7 -4.6 -1.85 -4.55 -2.0 -4.35 -2.3 -4.05 -2.6 Q-3.9 -2.65 -3.8 -2.75 L-3.6 -2.9 -3.35 -3.05 -3.1 -3.15 -2.9 -3.2 -2.6 -3.2 -2.6 -3.25 Q-0.6 -3.45 1.15 -2.5 2.85 -1.6 4.2 -0.2" fill="#663333" fill-opacity="0.101960786" fill-rule="evenodd" stroke="none"/>
    <path d="M1.6 -1.7 L2.25 -1.35 2.8 -0.9 3.7 -0.1 4.65 0.75 5.25 1.5 5.45 1.65 5.85 1.95 6.35 2.4 7.15 2.85 7.3 3.0 7.45 3.15 7.6 3.3 7.7 3.45 7.75 3.6 7.8 3.75 7.85 3.9 7.9 4.05 7.9 4.2 7.9 4.35 7.85 4.5 7.8 4.65 7.75 4.8 7.7 4.95 7.6 5.1 7.45 5.25 7.25 5.4 7.05 5.55 6.7 5.65 6.4 5.7 6.2 5.7 5.9 5.65 5.55 5.55 5.35 5.55 5.2 5.7 5.0 5.85 4.85 5.95 4.75 6.0 4.5 6.05 4.2 6.1 3.3 6.2 Q3.2 6.3 3.05 6.35 1.25 6.75 -0.55 6.35 L-3.25 5.5 -3.5 5.35 -4.15 4.9 -4.55 4.45 -4.9 3.85 -5.0 3.7 -5.0 3.55 -5.05 3.1 -5.05 2.65 -5.05 2.05 -5.0 1.45 -4.85 1.0 -4.6 0.55 -4.15 0.0 -3.0 -0.85 -1.8 -1.25 -1.7 -1.4 -1.55 -1.55 -1.4 -1.7 -1.25 -1.85 -1.05 -1.95 -0.95 -2.0 -0.7 -2.05 -0.4 -2.05 -0.4 -2.1 0.7 -2.0 1.6 -1.7" fill="#663333" fill-opacity="0.101960786" fill-rule="evenodd" stroke="none"/>
    <path d="M-2.3 -3.45 L-2.1 -3.55 -1.9 -3.6 -1.6 -3.6 -1.6 -3.65 Q0.85 -2.85 3.1 -1.5 L6.5 1.0 Q8.0 2.5 9.15 4.3 L9.2 4.45 9.25 4.6 9.3 4.75 9.35 4.9 9.35 5.05 9.35 5.2 9.4 5.35 9.45 5.5 9.5 5.65 9.55 5.8 9.55 5.95 9.55 6.1 9.55 6.25 9.55 6.4 9.5 6.55 9.45 6.7 9.35 6.85 9.25 7.0 9.15 7.15 8.95 7.3 8.8 7.4 8.7 7.45 8.5 7.5 8.2 7.55 7.9 7.5 7.6 7.4 7.35 7.25 7.2 7.1 7.05 6.95 6.95 6.8 6.9 6.65 6.85 6.5 6.85 6.35 6.75 6.2 6.7 6.05 6.65 5.9 6.6 5.75 6.55 5.6 6.45 5.45 6.35 5.3 6.3 5.15 6.2 5.0 6.15 4.85 6.1 4.85 6.1 5.0 6.1 5.15 6.1 5.45 6.1 5.6 6.1 5.75 6.1 6.05 6.1 6.35 6.05 6.5 6.0 6.65 5.95 6.8 5.85 6.95 5.75 7.1 5.55 7.25 5.4 7.35 5.3 7.4 5.1 7.45 4.8 7.5 4.5 7.45 4.2 7.35 3.95 7.2 3.8 7.05 3.7 6.9 3.6 6.75 3.55 6.6 3.5 6.45 3.45 6.3 3.35 6.15 3.3 6.0 3.2 5.85 3.15 5.7 3.1 5.55 3.05 5.4 3.0 5.25 2.95 5.1 2.65 4.65 2.3 4.2 1.7 3.75 1.25 3.45 1.1 3.3 0.95 3.15 0.85 3.0 0.8 2.85 0.75 2.7 0.7 2.55 0.65 2.4 0.65 2.25 0.65 2.1 0.65 1.95 0.4 1.65 0.05 1.35 -0.25 1.05 -0.55 0.75 -1.0 0.45 -1.3 0.15 -1.6 -0.15 -1.9 -0.6 -1.95 -0.75 -1.95 -0.9 -1.95 -1.05 -2.05 -1.2 -2.3 -1.35 -2.45 -1.5 -2.6 -1.65 -2.75 -1.8 -2.8 -1.95 -2.85 -2.1 -2.9 -2.25 -2.9 -2.4 -2.9 -2.55 -2.85 -2.7 -2.8 -2.85 -2.75 -3.0 -2.6 -3.15 -2.45 -3.3 -2.3 -3.45" fill="#663333" fill-opacity="0.101960786" fill-rule="evenodd" stroke="none"/>
    <path d="M1.2 -2.6 L2.6 -2.05 2.7 -2.0 3.0 -1.95 3.4 -1.85 3.65 -1.7 3.8 -1.55 4.1 -1.4 4.3 -1.25 4.6 -1.15 5.0 -1.05 5.25 -0.9 5.45 -0.75 5.5 -0.6 5.6 -0.45 5.65 -0.3 5.65 -0.15 5.6 0.0 5.55 0.15 5.45 0.3 5.35 0.45 5.1 0.6 4.9 0.7 4.6 0.75 4.2 0.75 3.8 0.65 3.5 0.5 3.2 0.35 3.05 0.2 2.8 0.05 2.6 -0.05 2.2 -0.15 1.9 -0.3 1.2 -0.6 0.8 -0.75 0.6 -0.85 0.15 -0.95 -0.6 -1.25 -0.85 -1.4 -2.5 -1.9 -3.95 -2.3 -5.1 -2.55 -6.9 -2.95 -7.15 -3.1 -7.3 -3.25 -7.45 -3.4 -7.5 -3.55 -7.5 -3.7 -7.5 -3.85 -7.5 -4.0 -7.45 -4.15 -7.5 -4.25 -7.8 -4.45 -8.0 -4.6 -8.15 -4.75 -8.25 -4.9 -8.45 -5.0 -8.5 -5.05 -9.55 -5.2 -9.75 -5.35 -9.85 -5.5 -9.9 -5.65 -9.9 -5.8 -9.9 -5.95 -9.85 -6.1 -9.75 -6.25 -9.55 -6.4 -9.2 -6.45 -9.2 -6.5 -8.2 -6.45 -7.15 -6.3 -6.2 -6.15 -6.0 -6.0 -5.9 -5.85 -5.85 -5.75 -5.8 -5.75 -4.2 -5.55 -3.6 -5.4 -3.4 -5.25 -3.25 -5.1 -3.2 -4.95 -3.15 -4.8 -3.1 -4.65 -3.1 -4.5 -3.15 -4.35 -3.2 -4.2 -3.3 -4.05 -3.05 -3.9 -1.9 -3.6 0.0 -3.05 1.2 -2.6" fill="#663333" fill-opacity="0.101960786" fill-rule="evenodd" stroke="none"/>
    <path d="M-11.2 -8.75 L-10.95 -8.7 -7.0 -8.65 -6.7 -8.55 -6.55 -8.45 -6.4 -8.4 -6.15 -8.35 -5.9 -8.25 -5.75 -8.1 -5.7 -8.0 -5.6 -7.95 -5.3 -7.85 -5.15 -7.7 -5.0 -7.55 -4.7 -7.4 -4.4 -7.25 -2.95 -6.5 -2.3 -6.2 -2.15 -6.05 -2.1 -5.9 -2.15 -5.8 -2.3 -5.7 -2.4 -5.7 -2.6 -5.7 -2.8 -5.65 -3.1 -5.75 -3.5 -5.9 -4.9 -6.45 -5.7 -6.8 -6.0 -6.85 -6.35 -6.95 -6.5 -7.1 -6.8 -7.2 -7.05 -7.25 -7.15 -7.3 -9.45 -7.25 -9.35 -7.1 -9.3 -6.95 -9.2 -6.8 -9.0 -6.5 -8.95 -6.35 -8.8 -6.2 -8.65 -6.05 -8.5 -5.9 -8.2 -5.6 -8.1 -5.45 -7.85 -5.3 -7.55 -5.15 -7.2 -4.85 -7.05 -4.7 -7.0 -4.55 -6.9 -4.4 -6.8 -4.25 -6.65 -3.95 -6.65 -3.8 -6.65 -3.65 -6.7 -3.5 -6.8 -3.35 -6.9 -3.2 -7.0 -3.05 -7.15 -2.9 -7.05 -2.75 -6.9 -2.6 -6.8 -2.45 -6.7 -2.3 -6.65 -2.15 -6.65 -2.0 -6.65 -1.85 -6.65 -1.7 -6.7 -1.55 -6.75 -1.4 -6.8 -1.25 -6.9 -1.1 -7.0 -0.95 -7.1 -0.8 -7.35 -0.5 -7.35 -0.35 -7.4 -0.2 -7.45 -0.05 -7.5 0.1 -7.55 0.25 -7.65 0.4 -7.7 0.55 -7.8 0.7 -7.95 1.0 -8.0 1.15 -8.05 1.3 -8.1 1.45 -8.2 1.6 -8.25 1.75 -8.3 1.9 -8.55 3.1 -8.65 4.0 -8.65 4.75 -8.65 5.8 -8.6 5.95 -8.55 6.1 -8.55 6.25 -8.6 6.4 -8.65 6.55 -8.75 6.7 -8.85 6.85 -9.1 7.0 -9.3 7.1 -9.6 7.15 -10.0 7.05 -10.25 6.9 -10.4 6.75 -10.5 6.6 -10.55 6.45 -10.55 6.3 -10.55 4.8 -10.55 3.75 -10.35 2.25 -10.1 1.2 -10.0 0.9 -9.9 0.75 -9.85 0.6 -9.8 0.45 -9.75 0.3 -9.65 0.15 -9.6 0.0 -9.5 -0.15 -9.35 -0.45 -9.3 -0.6 -9.25 -0.75 -9.25 -0.9 -9.25 -1.05 -9.3 -1.2 -9.5 -1.35 -9.6 -1.5 -9.7 -1.65 -9.75 -1.8 -9.75 -1.95 -9.75 -2.1 -9.75 -2.4 -9.75 -2.55 -9.7 -2.7 -9.65 -2.85 -9.55 -3.0 -9.4 -3.15 -9.25 -3.45 -9.15 -3.6 -9.2 -3.75 -9.35 -3.9 -9.5 -4.05 -9.65 -4.2 -9.7 -4.35 -9.7 -4.5 -9.7 -4.65 -9.8 -4.8 -9.95 -4.95 -10.25 -5.25 -10.45 -5.55 -10.6 -5.85 -10.65 -6.0 -10.7 -6.15 -10.75 -6.3 -10.9 -6.45 -11.15 -6.6 -11.3 -6.75 -11.45 -6.9 -11.55 -7.05 -11.8 -7.35 -11.9 -7.5 -11.95 -7.65 -11.95 -7.8 -11.95 -7.95 -11.95 -8.1 -11.9 -8.25 -11.85 -8.4 -11.7 -8.55 -11.55 -8.65 -11.45 -8.7 -11.2 -8.7 -11.2 -8.75" fill="#ffffff" fill-opacity="0.101960786" fill-rule="evenodd" stroke="none"/>
    <path d="M-6.95 0.95 L-6.7 1.1 -6.45 1.4 -6.35 1.55 -6.3 1.7 Q-6.2 1.9 -6.25 2.15 L-6.25 2.3 -6.25 2.45 -6.25 2.75 -6.25 3.05 -6.25 3.35 -6.35 3.65 -6.4 3.8 -6.5 3.95 -6.6 4.25 -6.65 4.4 -6.7 4.55 -6.75 4.7 -7.1 5.3 -7.5 5.75 -8.05 6.35 -8.3 6.65 -8.5 6.8 -8.6 6.9 -9.0 7.0 -9.2 7.0 -9.6 6.9 -9.8 6.75 -10.0 6.45 -10.1 6.3 -10.25 6.15 -10.35 6.0 -10.4 5.7 -10.4 5.55 -10.4 5.4 -10.4 5.25 -10.45 5.1 -10.5 4.95 -10.5 4.5 -10.5 4.35 -10.45 4.05 -10.45 3.6 -10.45 3.0 -10.3 2.55 -10.25 2.4 -10.2 2.25 -10.1 1.95 -10.0 1.65 -9.95 1.5 -9.7 1.2 -9.55 1.05 -9.4 0.9 -9.25 0.75 -8.9 0.6 -8.7 0.35 -8.6 0.35 -8.55 0.35 -8.2 0.55 -7.8 0.55 -7.4 0.65 -6.95 0.95" fill="#ffffff" fill-opacity="0.101960786" fill-rule="evenodd" stroke="none"/>
    <path d="M5.8 -6.9 L6.15 -6.8 6.3 -6.65 6.4 -6.5 6.45 -6.35 6.5 -6.2 6.45 -6.05 6.4 -5.9 6.3 -5.75 6.15 -5.6 5.8 -5.5 5.4 -5.45 4.8 -5.35 4.0 -5.15 Q0.9 -4.9 -1.95 -5.7 L-2.25 -5.9 -2.25 -6.05 -2.2 -6.2 -2.1 -6.35 -1.8 -6.45 -1.5 -6.35 4.05 -6.55 4.4 -6.7 4.55 -6.8 4.8 -6.85 5.4 -6.9 5.8 -6.9" fill="#ffffff" fill-opacity="0.101960786" fill-rule="evenodd" stroke="none"/>
    <path d="M4.65 -1.9 L4.4 -2.15 3.7 -2.7 1.65 -3.7 -0.6 -4.7 -2.05 -5.35 -4.25 -6.35 -5.1 -7.0 Q-6.3 -7.95 -8.0 -8.2 -11.8 -8.05 -11.6 -8.25 L-11.1 -8.5 Q-10.85 -8.55 -11.0 -8.7 L-9.6 -8.85 -7.15 -8.65 Q-6.2 -8.45 -5.35 -7.9 L-3.75 -6.85 Q-2.9 -6.3 -2.0 -6.0 L-1.45 -5.8 -0.3 -5.2 1.45 -4.4 3.1 -3.7 Q4.5 -3.15 5.7 -2.05 L6.5 -1.15 Q7.2 0.0 8.05 1.0 L9.9 3.45 10.6 4.4 Q11.2 5.1 11.2 5.85 L10.95 5.9 Q10.25 5.7 9.85 4.95 L9.5 4.2 9.1 3.45 8.6 2.75 7.35 1.2 6.25 -0.3 5.85 -0.95 5.55 -1.2 5.2 -1.4 4.65 -1.9" fill="#333333" fill-rule="evenodd" stroke="none"/>
    <path d="M6.25 -7.45 L6.3 -7.35 6.4 -7.2 6.5 -7.05 Q6.75 -6.5 6.65 -5.95 L6.7 -5.25 6.7 -5.1 6.7 -4.95 6.75 -4.65 6.75 -4.45 6.65 -4.2 6.5 -4.0 6.4 -3.95 6.25 -4.1 Q6.0 -5.05 6.1 -5.95 6.15 -6.5 5.85 -6.85 L5.65 -6.85 3.9 -6.6 2.6 -6.5 1.1 -6.5 -0.5 -6.5 -3.65 -6.45 -3.95 -6.7 6.25 -7.45" fill="#333333" fill-rule="evenodd" stroke="none"/>
    <path d="M6.15 -3.8 L6.05 -4.2 Q6.05 -4.85 6.6 -4.7 L6.6 -4.4 Q6.6 -3.95 7.0 -3.9 7.8 -3.55 7.85 -2.85 7.95 -2.65 7.7 -2.55 7.3 -2.2 6.9 -1.95 6.1 -1.45 5.2 -1.5 4.5 -1.7 5.05 -2.2 6.4 -2.25 7.1 -2.95 L6.15 -3.8" fill="#333333" fill-rule="evenodd" stroke="none"/>
    <path d="M7.35 -2.65 L7.55 -2.5 8.0 -2.1 8.75 -1.45 9.7 -0.45 11.05 1.25 12.4 2.9 Q13.55 4.05 13.3 5.35 L12.8 5.15 11.95 3.95 11.05 2.7 10.15 1.35 9.25 0.05 8.25 -1.0 7.1 -2.15 Q6.75 -2.65 7.35 -2.65" fill="#333333" fill-rule="evenodd" stroke="none"/>
    <path d="M3.35 -2.25 L3.2 -1.95 1.3 -2.2 Q0.0 -2.15 -1.15 -3.0 L-4.5 -4.8 -5.6 -5.55 -6.1 -5.8 -7.1 -6.05 Q-7.95 -6.3 -8.1 -6.75 L-7.2 -6.75 -5.4 -6.05 -3.8 -5.25 -2.65 -4.85 Q-2.0 -4.55 -1.5 -4.1 -0.75 -3.45 0.15 -3.1 L2.9 -2.85 3.2 -2.6 3.35 -2.25" fill="#333333" fill-rule="evenodd" stroke="none"/>
    <path d="M2.1 -2.65 L2.2 -2.55 Q4.35 -1.9 5.35 0.0 6.35 1.9 8.1 3.3 L8.85 4.1 8.5 4.15 Q7.65 4.15 6.95 3.4 L5.95 2.35 5.1 1.2 4.45 0.0 3.7 -1.05 2.2 -2.1 Q1.75 -2.45 2.05 -2.8 L2.1 -2.65" fill="#333333" fill-rule="evenodd" stroke="none"/>
    <path d="M0.25 -3.75 L0.25 -3.65 Q0.0 -3.45 0.15 -3.2 0.15 -2.9 0.35 -2.75 L0.4 -2.6 Q0.2 -2.3 -0.05 -2.5 -0.45 -2.95 -0.35 -3.35 -0.25 -4.0 0.3 -4.35 L1.05 -4.25 Q1.6 -4.1 1.1 -4.15 L0.4 -4.05 0.25 -3.75" fill="#333333" fill-rule="evenodd" stroke="none"/>
    <path d="M-2.25 -4.7 Q-2.8 -5.1 -2.1 -5.35 -1.85 -5.45 -1.8 -5.2 L-2.25 -4.85 -2.25 -4.7" fill="#333333" fill-rule="evenodd" stroke="none"/>
    <path d="M-4.95 -7.25 L-5.0 -7.1 -5.5 -6.3 Q-5.6 -5.85 -5.8 -5.7 L-5.95 -5.95 -5.95 -6.55 -5.65 -7.1 Q-5.25 -7.55 -4.95 -7.25" fill="#333333" fill-rule="evenodd" stroke="none"/>
    <path d="M-10.45 -8.75 Q-10.4 -8.25 -10.7 -8.15 -11.3 -8.15 -11.55 -7.8 -11.75 -7.5 -11.3 -7.0 L-10.2 -5.9 -8.05 -3.85 -8.05 -3.75 -8.05 -3.7 -8.05 -3.6 -8.15 -3.35 Q-8.25 -3.1 -8.4 -3.25 L-11.5 -5.95 -12.0 -6.5 Q-12.5 -7.2 -12.3 -7.85 L-12.15 -8.05 Q-11.5 -8.9 -10.45 -8.75" fill="#333333" fill-rule="evenodd" stroke="none"/>
    <path d="M-5.95 -6.05 L-5.5 -5.7 -10.35 -5.3 Q-11.2 -5.75 -5.95 -6.05" fill="#333333" fill-rule="evenodd" stroke="none"/>
    <path d="M-9.4 -8.15 L-9.3 -8.1 -9.4 -7.15 Q-9.25 -6.55 -8.75 -6.35 -8.35 -6.15 -8.3 -5.8 -9.0 -5.7 -9.7 -6.6 L-9.8 -6.85 Q-10.05 -7.4 -9.6 -8.05 L-9.4 -8.15" fill="#333333" fill-rule="evenodd" stroke="none"/>
    <path d="M-7.55 -4.05 L-7.5 -4.15 -6.35 -4.35 -4.5 -4.65 -2.25 -4.35 Q-2.05 -4.1 -2.15 -3.95 L-2.2 -3.9 -2.25 -3.8 -7.55 -4.05" fill="#333333" fill-rule="evenodd" stroke="none"/>
    <path d="M-5.7 -5.65 L-5.15 -5.75 -4.5 -5.0 -3.85 -5.15 Q-3.0 -4.7 -2.8 -4.1 L-4.1 -4.2 -4.65 -3.95 -4.8 -3.95 -5.0 -4.1 -5.25 -4.2 -5.2 -4.6 Q-5.1 -4.95 -5.3 -5.3 L-5.4 -5.55 -5.7 -5.65" fill="#333333" fill-rule="evenodd" stroke="none"/>
    <path d="M-10.15 -0.2 L-10.15 -1.4 -9.95 -2.2 -9.25 -2.95 -8.85 -3.5 -8.4 -4.05 Q-7.85 -4.25 -7.6 -3.8 L-7.85 -3.6 -8.0 -3.45 -8.9 -2.55 -9.25 -1.85 -9.5 0.0 -10.4 5.1 -10.45 5.55 -10.65 6.2 -10.7 6.45 -11.1 7.5 Q-11.6 6.85 -11.45 6.05 L-11.1 4.25 -10.85 3.05 -10.5 1.2 -10.15 -0.2" fill="#333333" fill-rule="evenodd" stroke="none"/>
    <path d="M-7.8 -2.6 L-7.7 -2.6 -7.45 -2.45 -8.8 -0.9 -8.95 -0.75 -9.0 -0.6 Q-9.95 1.9 -10.35 4.5 L-10.4 5.3 Q-10.35 5.75 -10.7 5.95 -11.0 5.85 -10.95 5.55 L-10.75 3.65 -10.6 2.25 -10.25 0.55 -9.8 -0.6 -9.05 -1.65 -7.8 -2.6" fill="#333333" fill-rule="evenodd" stroke="none"/>
    <path d="M1.45 -0.6 L0.15 -1.3 Q-0.55 -1.6 0.2 -1.7 2.6 -0.85 4.35 1.05 5.1 1.85 5.45 2.8 L6.55 6.5 6.55 6.7 6.55 6.95 6.55 7.15 6.25 7.7 6.0 6.9 5.6 5.45 5.2 3.95 Q4.85 2.9 4.3 2.15 L3.65 1.35 2.6 0.2 1.45 -0.6" fill="#333333" fill-rule="evenodd" stroke="none"/>
    <path d="M2.2 -0.2 Q1.9 -0.4 1.9 -0.65 1.55 -1.2 2.4 -2.75 L2.95 -2.35 4.15 -1.0 4.55 -0.45 Q4.85 -0.1 4.75 0.3 L5.15 1.05 4.9 1.7 Q4.55 1.9 4.4 1.5 L4.15 1.0 3.65 0.4 3.55 0.25 Q2.65 0.15 2.2 -0.2" fill="#333333" fill-rule="evenodd" stroke="none"/>
    <path d="M6.0 2.4 L5.95 2.8 5.8 2.85 Q5.45 3.15 5.2 2.55 L4.55 1.7 Q3.9 1.25 4.2 0.65 L4.8 0.6 5.55 1.5 6.0 2.25 6.0 2.4" fill="#333333" fill-rule="evenodd" stroke="none"/>
  </g>
</svg>
