<?xml version="1.0" encoding="UTF-8" standalone="no"?>
<svg xmlns:xlink="http://www.w3.org/1999/xlink" height="33.8px" width="14.35px" xmlns="http://www.w3.org/2000/svg">
  <g transform="matrix(1.0, 0.0, 0.0, 1.0, 7.1, 16.1)">
    <path d="M4.85 -4.5 L4.35 -4.5 Q0.65 -5.5 -3.4 -5.5 L-3.9 -5.6 -4.05 -6.2 2.4 -6.7 5.25 -5.75 5.1 -4.7 5.0 -4.55 4.85 -4.5" fill="#663333" fill-opacity="0.101960786" fill-rule="evenodd" stroke="none"/>
    <path d="M5.75 -10.75 Q6.85 -3.1 -0.5 -5.6 L-1.5 -6.1 Q-1.65 -12.7 4.85 -11.15 L5.75 -10.75" fill="#663333" fill-opacity="0.101960786" fill-rule="evenodd" stroke="none"/>
    <path d="M4.2 -12.4 L5.0 -12.05 Q6.05 -8.45 3.6 -5.15 0.85 -3.9 -2.0 -5.15 -4.2 -7.45 -2.6 -10.65 L-1.8 -12.0 0.35 -12.0 1.2 -12.6 4.2 -12.4" fill="#663333" fill-opacity="0.101960786" fill-rule="evenodd" stroke="none"/>
    <path d="M1.4 -15.1 L2.9 -14.9 3.55 -13.8 Q4.2 -12.6 4.05 -11.5 L3.8 -11.25 3.4 -11.0 Q2.45 -10.95 2.0 -11.7 L2.0 -12.65 0.7 -14.4 1.4 -15.1" fill="#663333" fill-opacity="0.101960786" fill-rule="evenodd" stroke="none"/>
    <path d="M6.6 -3.55 Q6.8 -2.9 6.25 -2.55 L5.35 -2.35 Q6.6 1.45 5.1 6.45 L5.75 6.9 Q6.2 9.3 5.5 11.55 L6.3 13.95 6.05 14.45 5.2 14.8 4.6 14.6 Q2.6 18.5 -0.05 15.5 -2.3 12.9 -1.0 9.7 L-0.35 7.8 Q0.0 6.4 1.5 5.85 1.45 3.45 1.95 1.1 0.65 1.0 -0.35 0.15 -0.7 -1.8 0.25 -3.25 L-5.0 -3.6 -2.25 -4.65 5.9 -4.15 6.6 -3.55" fill="#663333" fill-opacity="0.101960786" fill-rule="evenodd" stroke="none"/>
    <path d="M4.4 -3.4 L3.7 -2.85 Q6.15 0.05 3.9 3.15 4.9 5.75 3.9 8.4 L4.7 9.3 4.65 12.0 Q5.95 13.55 5.2 15.45 L4.9 16.05 Q2.35 17.35 -0.3 17.7 L-1.8 17.65 Q-3.55 13.2 -1.35 8.1 -0.15 5.35 -0.35 2.35 -2.2 0.0 -0.65 -2.55 L-2.15 -2.8 -2.5 -3.4 -1.15 -4.65 4.3 -4.4 4.4 -3.4" fill="#663333" fill-opacity="0.101960786" fill-rule="evenodd" stroke="none"/>
    <path d="M6.65 -1.05 L5.8 -0.25 6.1 1.7 5.6 2.6 4.85 2.8 4.15 2.75 3.55 2.35 2.9 1.9 3.25 -0.6 Q0.45 -1.75 -2.8 -1.7 L-3.2 -1.8 -3.4 -2.3 -3.05 -2.75 Q1.65 -3.85 6.35 -1.8 L6.65 -1.05" fill="#663333" fill-opacity="0.101960786" fill-rule="evenodd" stroke="none"/>
    <path d="M1.35 -14.0 Q-0.65 -12.9 -2.45 -14.05 L-2.9 -14.3 -3.25 -10.65 -4.75 -9.0 -3.95 -7.8 -4.3 -7.05 -4.95 -7.3 Q-5.85 -7.65 -6.05 -8.4 L-5.95 -9.7 Q-4.2 -12.3 -3.6 -15.7 L-0.6 -14.9 1.8 -14.6 1.35 -14.0" fill="#ffffff" fill-opacity="0.101960786" fill-rule="evenodd" stroke="none"/>
    <path d="M3.85 -4.35 L-4.0 -3.75 -3.65 -2.45 Q-3.6 6.95 -4.65 16.15 L-4.9 17.35 -5.2 17.35 -5.5 17.25 -5.7 17.2 Q-5.75 12.9 -5.0 8.55 -4.0 2.6 -5.35 -2.6 L-5.45 -4.25 Q-1.0 -5.75 3.65 -4.45 L3.85 -4.35" fill="#ffffff" fill-opacity="0.101960786" fill-rule="evenodd" stroke="none"/>
    <path d="M-4.4 -1.25 L-4.0 -1.45 -3.45 -0.9 -3.35 -0.6 -2.5 -0.25 -1.85 2.55 -3.5 5.75 -4.35 5.85 -4.7 5.55 Q-4.45 2.4 -4.6 -0.85 L-4.4 -1.25" fill="#ffffff" fill-opacity="0.101960786" fill-rule="evenodd" stroke="none"/>
    <path d="M-2.35 -16.05 L-1.75 -15.75 -0.95 -14.55 -0.9 -14.5 -0.6 -14.5 -0.5 -14.55 -0.2 -14.3 -0.3 -14.25 -0.35 -14.2 -0.35 -14.1 -0.35 -14.05 -1.3 -14.05 -2.3 -15.35 -2.65 -15.45 -3.25 -15.45 -3.4 -15.4 -4.0 -15.05 -4.1 -14.9 -4.55 -13.55 Q-4.95 -11.55 -4.35 -9.8 L-4.3 -9.55 -4.4 -9.15 Q-4.75 -9.1 -4.85 -9.35 L-5.15 -10.4 -5.3 -12.2 -5.1 -13.9 -5.0 -14.45 Q-4.65 -15.75 -3.4 -16.1 L-2.35 -16.05" fill="#333333" fill-rule="evenodd" stroke="none"/>
    <path d="M2.15 -14.3 L1.95 -14.6 Q0.85 -15.0 0.0 -14.3 L-0.4 -14.05 -0.9 -14.05 -1.1 -14.2 -1.1 -14.25 -1.1 -14.35 -1.1 -14.4 -1.0 -14.5 -0.9 -14.5 -0.45 -14.55 0.5 -15.15 2.25 -15.2 2.6 -14.9 3.0 -14.05 3.5 -12.95 3.4 -12.75 Q3.15 -12.65 3.05 -12.85 L2.65 -13.5 2.15 -14.3" fill="#333333" fill-rule="evenodd" stroke="none"/>
    <path d="M3.25 -13.7 L3.6 -13.9 5.1 -13.75 5.5 -13.3 6.05 -12.4 6.25 -11.15 6.3 -11.05 6.35 -10.45 6.3 -9.15 6.0 -7.15 5.15 -4.85 Q4.55 -3.7 4.15 -3.95 L4.2 -4.25 4.5 -5.4 5.0 -6.75 5.6 -8.65 5.75 -10.45 5.25 -12.4 4.75 -13.25 3.65 -13.2 3.35 -13.05 2.65 -13.0 2.55 -13.2 Q2.7 -13.65 3.25 -13.7" fill="#333333" fill-rule="evenodd" stroke="none"/>
    <path d="M-4.9 -11.7 L-4.9 -11.45 -5.0 -11.4 -5.9 -10.3 -6.1 -9.4 -5.9 -8.25 -5.15 -6.55 Q-4.65 -5.5 -3.4 -5.3 L-3.35 -5.15 -3.35 -5.05 -3.5 -4.85 -3.7 -4.8 Q-4.7 -4.6 -5.3 -5.65 L-6.3 -7.15 Q-6.85 -8.05 -6.8 -9.0 -6.8 -9.8 -6.4 -10.55 -5.85 -11.65 -4.9 -11.7" fill="#333333" fill-rule="evenodd" stroke="none"/>
    <path d="M4.35 -4.65 L4.45 -4.65 5.2 -4.35 5.8 -4.05 6.65 -3.45 6.75 -2.3 6.65 -2.15 6.5 -1.75 6.2 -1.4 6.1 -1.3 6.0 -1.15 5.95 -0.95 5.95 -0.8 Q5.8 -0.3 5.35 -0.4 L5.25 -0.5 Q5.0 -0.85 5.25 -1.35 L5.4 -1.55 5.5 -1.7 5.5 -1.85 5.6 -1.95 5.8 -2.05 6.05 -2.6 6.0 -3.05 5.2 -3.55 2.75 -4.4 0.35 -4.65 -0.8 -4.5 -1.9 -4.5 -3.15 -4.5 -3.95 -4.3 Q-5.0 -3.95 -5.6 -4.55 L-5.5 -4.65 -3.7 -5.0 -2.1 -5.15 -0.8 -5.25 0.65 -5.3 2.55 -5.15 4.35 -4.65" fill="#333333" fill-rule="evenodd" stroke="none"/>
    <path d="M5.15 -0.95 Q5.2 -1.35 5.55 -1.15 5.95 0.5 5.85 2.25 5.7 4.1 5.85 5.9 L6.1 7.5 6.35 9.1 6.45 9.8 6.55 10.4 6.65 11.3 6.7 12.1 6.75 13.0 6.8 13.8 6.85 14.4 6.85 14.45 Q6.85 14.95 7.2 15.2 L7.25 15.3 7.25 15.35 Q7.25 15.75 6.95 15.75 6.05 15.85 5.95 14.8 L5.8 12.9 5.7 11.15 5.5 9.3 5.3 8.2 5.15 7.0 5.05 5.8 5.0 4.6 5.0 3.5 5.05 2.3 5.05 1.15 5.1 -0.05 5.15 -0.95" fill="#333333" fill-rule="evenodd" stroke="none"/>
    <path d="M-5.8 -3.6 Q-5.8 -4.25 -5.2 -4.5 -4.55 -4.5 -4.7 -4.15 -5.4 -4.1 -5.3 -3.45 L-5.0 -2.8 Q-4.45 -2.25 -4.45 -1.55 L-4.7 -1.35 -5.25 -1.8 Q-5.85 -2.6 -5.8 -3.6" fill="#333333" fill-rule="evenodd" stroke="none"/>
    <path d="M-5.15 -0.1 L-5.1 -1.6 -5.0 -2.2 -5.0 -2.3 -4.9 -2.35 -4.8 -2.5 -4.7 -2.55 -4.6 -2.55 -4.45 -2.5 -4.35 -2.45 -4.3 -2.3 -4.45 0.25 -4.4 2.65 -4.45 3.5 -4.8 6.35 -4.95 6.95 -5.65 12.2 -5.8 13.75 -6.05 15.95 -6.1 16.15 -6.2 16.15 -6.35 16.3 -6.5 16.45 -6.6 16.5 -6.8 16.5 -6.9 16.4 -7.05 16.25 -7.05 16.15 -7.0 15.3 -6.85 14.6 -6.6 12.75 -6.4 11.2 -6.1 9.35 -6.0 8.3 -5.75 6.95 -5.55 5.65 -5.25 3.7 -5.1 1.85 -5.15 -0.1" fill="#333333" fill-rule="evenodd" stroke="none"/>
    <path d="M4.25 -2.85 L4.3 -2.8 4.35 -2.6 4.1 -2.35 3.75 -2.5 3.4 -2.65 2.3 -2.9 0.4 -3.15 -1.4 -3.2 -1.85 -3.2 -2.05 -3.25 -2.65 -3.05 Q-1.9 -3.85 0.4 -3.55 L3.0 -3.2 3.55 -3.05 4.0 -2.95 4.25 -2.85" fill="#333333" fill-rule="evenodd" stroke="none"/>
    <path d="M1.5 -6.65 L2.5 -6.5 3.55 -6.05 4.0 -5.6 3.95 -5.45 3.15 -5.65 2.0 -6.25 Q1.25 -6.3 1.5 -6.65" fill="#333333" fill-rule="evenodd" stroke="none"/>
    <path d="M4.25 -6.6 L4.15 -6.6 3.25 -6.95 Q2.85 -7.0 2.5 -7.25 L3.2 -7.4 3.9 -7.1 Q4.4 -7.0 4.25 -6.6" fill="#333333" fill-rule="evenodd" stroke="none"/>
    <path d="M3.4 -8.25 Q3.85 -8.35 4.05 -7.95 L3.5 -7.85 Q2.55 -7.7 1.75 -8.3 L3.4 -8.25" fill="#333333" fill-rule="evenodd" stroke="none"/>
    <path d="M5.05 -0.95 Q3.75 -0.9 2.9 -1.45 L3.9 -1.6 4.5 -1.5 5.15 -1.1 5.05 -0.95" fill="#333333" fill-rule="evenodd" stroke="none"/>
    <path d="M1.45 -0.45 L2.5 -0.55 Q3.5 -0.6 4.1 0.1 L4.3 0.35 4.25 0.4 3.1 -0.15 1.45 -0.45" fill="#333333" fill-rule="evenodd" stroke="none"/>
    <path d="M4.75 1.4 L4.8 1.5 3.0 1.3 2.35 0.95 2.25 0.8 2.55 0.8 3.4 1.0 4.75 1.4" fill="#333333" fill-rule="evenodd" stroke="none"/>
  </g>
</svg>
