<?xml version="1.0" encoding="UTF-8" standalone="no"?>
<svg xmlns:xlink="http://www.w3.org/1999/xlink" height="42.15px" width="12.35px" xmlns="http://www.w3.org/2000/svg">
  <g transform="matrix(1.0, 0.0, 0.0, 1.0, 6.1, 21.2)">
    <path d="M5.25 -16.5 L5.55 -15.9 5.45 -15.3 5.75 -14.8 6.05 -13.75 6.25 -11.25 5.95 -9.15 5.65 -7.8 4.85 -1.65 4.45 0.75 4.0 1.35 3.95 2.85 3.55 8.7 3.5 9.15 3.45 9.45 3.25 10.8 3.05 13.95 3.05 14.4 Q3.1 16.6 2.65 18.55 2.15 20.65 0.2 20.9 -2.7 21.2 -5.35 20.1 L-5.5 19.95 -5.55 19.65 -5.8 17.25 -6.1 13.8 -6.0 11.25 -5.5 6.9 -5.75 6.15 -5.75 4.95 -4.75 0.4 -4.0 -3.3 -3.9 -4.2 Q-3.9 -6.6 -3.05 -8.7 L-3.25 -9.65 Q-4.05 -11.35 -4.05 -13.2 L-3.8 -14.8 -3.45 -15.6 -2.9 -16.2 -2.8 -16.5 -1.5 -19.7 -0.6 -21.2 1.7 -20.0 Q3.45 -18.9 5.25 -16.5" fill="#d76c53" fill-rule="evenodd" stroke="none"/>
    <path d="M2.5 -14.45 L2.7 -14.4 2.75 -14.3 2.8 -14.25 2.85 -14.15 2.85 -14.1 2.85 -14.0 2.85 -13.85 2.85 -13.7 2.85 -13.6 2.8 -13.5 2.7 -13.4 2.6 -13.35 2.5 -13.25 2.5 -13.2 2.5 -13.1 2.5 -13.05 2.55 -12.95 2.55 -12.9 2.6 -12.8 2.5 -11.8 2.4 -10.65 2.2 -9.5 2.2 -9.45 2.2 -9.35 2.2 -9.2 2.2 -9.0 2.2 -8.9 2.1 -8.45 2.1 -7.85 2.1 -7.4 2.1 -7.25 2.05 -7.2 2.0 -7.1 1.9 -7.0 1.85 -6.95 1.7 -6.95 1.4 -6.9 1.3 -6.8 1.15 -6.75 1.0 -6.65 0.85 -6.5 0.55 -6.3 0.45 -6.2 0.15 -6.0 -0.4 -5.7 -0.45 -5.6 -0.55 -5.55 -0.75 -5.4 -0.85 -5.3 -0.95 -5.25 -1.05 -5.15 -1.1 -5.1 -1.3 -5.05 -1.9 -5.05 -2.1 -5.1 -2.65 -5.75 -3.1 -6.4 -3.35 -6.8 -3.4 -6.9 -3.5 -6.95 -3.6 -7.1 -3.65 -7.2 -3.65 -7.25 -3.7 -7.35 -3.7 -7.4 -3.65 -7.55 -3.65 -7.65 -3.6 -7.7 -3.55 -7.8 -3.45 -7.85 -3.4 -7.95 -3.4 -8.0 -3.4 -8.1 -3.4 -8.25 -3.4 -8.4 -3.4 -8.45 -3.35 -8.55 -3.35 -8.6 -3.3 -8.7 -3.3 -8.75 -3.3 -8.85 -3.3 -8.9 -3.3 -9.0 -3.2 -9.15 -3.15 -9.45 -3.05 -9.8 -3.0 -9.9 -3.0 -9.95 -3.0 -10.05 -3.05 -10.1 -3.05 -10.25 -3.05 -10.35 -3.05 -10.4 -3.1 -10.5 -3.1 -10.55 -3.15 -10.65 -3.15 -10.7 -3.15 -10.8 -3.2 -10.95 -3.3 -11.25 -3.4 -11.6 -3.45 -11.7 -3.45 -11.75 -3.45 -11.85 -3.45 -11.9 -3.45 -12.0 -3.45 -12.05 -3.45 -12.15 -3.5 -12.2 -3.5 -12.3 -3.55 -12.35 -3.55 -12.45 -3.55 -12.5 -3.55 -12.6 -3.55 -12.65 -3.55 -12.75 -3.55 -12.8 -3.55 -12.9 -3.6 -12.95 -3.6 -13.05 -3.65 -13.1 -3.6 -13.25 -3.6 -13.55 -3.6 -13.85 -3.6 -14.0 -3.6 -14.1 -3.55 -14.15 -3.5 -14.25 -3.3 -14.3 -3.15 -14.25 -3.1 -14.2 -3.0 -14.2 -2.9 -14.15 -2.85 -14.05 -2.8 -14.0 -2.8 -13.9 -2.65 -13.8 -2.45 -13.55 -2.3 -13.25 -2.2 -13.15 -2.1 -13.1 -2.05 -13.05 -2.0 -12.95 -2.0 -12.85 -2.0 -12.8 -1.95 -12.7 -1.9 -12.65 -1.9 -12.55 -1.8 -12.4 -1.8 -12.35 -1.75 -12.25 -1.75 -12.2 -1.7 -12.1 -1.7 -12.05 -1.7 -11.95 -1.7 -11.9 -1.75 -11.8 -1.7 -11.75 -1.7 -11.65 -1.65 -11.6 -1.65 -11.5 -1.6 -11.45 -1.55 -11.35 -1.45 -11.35 -1.35 -11.4 -1.25 -11.45 -1.15 -11.55 -1.1 -11.6 0.65 -12.95 2.25 -14.4 2.4 -14.45 2.5 -14.45" fill="#ffcc66" fill-rule="evenodd" stroke="none"/>
    <path d="M2.9 12.85 L2.95 12.95 3.0 13.05 3.05 13.15 3.05 13.5 3.05 14.25 3.05 14.35 3.05 16.5 3.05 19.05 3.0 19.5 3.0 19.6 2.9 19.7 2.85 19.8 2.8 19.9 2.75 20.0 2.65 20.1 2.55 20.2 2.45 20.25 2.25 20.3 2.05 20.35 1.95 20.4 1.75 20.45 1.6 20.45 1.55 20.5 1.35 20.55 1.25 20.6 1.2 20.65 0.75 20.65 -0.65 20.65 -0.9 20.6 -1.0 20.5 -1.65 20.5 -1.95 20.45 -2.9 20.4 -3.15 20.35 -3.3 20.25 -3.65 20.25 -3.95 20.2 -4.9 20.15 -5.15 20.1 -5.25 20.0 -5.3 20.0 -5.5 19.95 -5.6 19.85 -5.65 19.75 -5.7 19.65 -5.75 19.55 -5.75 19.45 -5.75 19.35 -5.75 19.25 -5.75 19.2 -5.75 19.1 -5.75 19.0 -5.75 18.9 -5.7 18.8 -5.7 18.7 -5.65 18.6 -5.65 18.5 -5.65 18.35 -5.65 18.25 -5.65 18.15 -5.65 17.95 -5.65 17.6 -5.65 17.5 -5.65 17.4 -5.65 17.0 -5.6 16.75 -5.6 16.65 -5.5 16.55 -5.5 16.45 -5.5 16.25 -5.5 16.15 -5.5 16.1 -5.5 16.0 -5.5 15.9 -5.5 15.7 -5.5 15.6 -5.45 15.5 -5.4 15.25 -5.4 15.15 -5.4 14.65 -5.35 14.5 -5.35 14.4 -5.35 13.65 -5.35 12.7 -5.3 12.6 -5.25 12.5 -5.2 12.4 -5.1 12.35 -5.05 12.35 -4.9 12.3 -3.4 12.3 -3.2 12.35 -3.05 12.4 -2.5 12.45 -0.9 12.55 -0.75 12.55 -0.1 12.7 2.35 12.7 2.5 12.7 2.75 12.75 2.9 12.85" fill="#ffffff" fill-rule="evenodd" stroke="none"/>
    <path d="M-2.45 14.45 L-2.35 14.5 -2.3 14.6 -2.3 14.7 -2.25 14.8 -2.3 15.0 -2.3 15.15 -2.3 15.35 -2.3 15.45 -2.35 15.55 -2.45 15.65 -2.5 15.75 -2.6 15.8 -3.15 15.85 -3.65 15.75 -3.85 15.7 -3.95 15.6 -4.0 15.5 -4.0 15.4 -4.0 15.35 -4.0 15.25 -4.0 15.15 -4.0 14.95 -4.0 14.85 -4.0 14.8 -3.85 14.6 -3.55 14.3 -3.45 14.15 -3.35 14.1 -3.25 14.1 -2.9 14.1 -2.75 14.15 -2.6 14.25 -2.5 14.35 -2.45 14.45" fill="#ffcc66" fill-rule="evenodd" stroke="none"/>
  </g>
</svg>
