<?xml version="1.0" encoding="UTF-8" standalone="no"?>
<svg xmlns:xlink="http://www.w3.org/1999/xlink" height="43.25px" width="13.1px" xmlns="http://www.w3.org/2000/svg">
  <g transform="matrix(1.0, 0.0, 0.0, 1.0, 6.65, 21.55)">
    <path d="M3.5 -17.05 L4.0 -16.9 4.35 -16.7 4.6 -16.55 4.8 -16.35 4.85 -16.15 4.95 -15.95 4.95 -15.8 5.0 -15.6 5.05 -15.45 5.15 -15.2 5.3 -15.05 5.65 -14.65 5.95 -14.3 6.0 -14.1 6.05 -13.9 6.2 -13.7 6.25 -13.55 6.3 -13.35 6.35 -13.15 6.45 -12.95 6.45 -12.8 6.45 -12.6 6.45 -12.2 6.45 -11.65 6.45 -11.1 6.35 -10.9 6.3 -10.7 6.2 -10.35 6.1 -9.75 5.85 -9.05 5.75 -8.85 5.7 -8.65 5.6 -8.45 5.55 -8.25 5.5 -8.1 5.35 -7.9 5.25 -7.7 5.1 -7.5 5.0 -7.35 4.85 -7.15 4.8 -6.95 4.75 -6.75 4.6 -6.6 4.6 -6.2 4.6 -5.1 4.6 -3.95 4.35 -2.65 4.35 -2.45 4.35 -2.25 4.35 -2.1 4.35 -1.9 4.3 -1.7 4.25 -1.5 4.2 -1.35 4.1 -1.15 4.0 -0.75 3.85 -0.6 3.65 -0.4 3.5 -0.25 3.35 -0.2 3.1 0.05 3.1 0.1 3.5 0.1 4.0 0.25 4.25 0.45 4.45 0.6 4.5 0.8 4.55 1.0 4.6 1.2 4.6 1.35 4.6 1.55 4.6 1.75 4.6 1.95 4.55 2.1 4.45 2.3 4.3 2.5 4.05 2.85 3.85 3.25 3.85 4.35 3.9 6.45 3.8 8.9 3.6 9.65 3.6 10.95 3.6 13.2 Q3.6 14.55 3.2 15.8 L3.0 16.4 3.0 16.55 3.05 16.75 3.1 16.95 3.1 17.15 3.1 17.5 3.1 18.25 3.15 19.0 3.05 19.6 2.95 19.75 2.85 19.95 2.65 20.15 2.5 20.25 2.35 20.3 2.0 20.35 1.5 20.35 1.0 20.35 0.8 20.5 0.6 20.7 0.4 20.9 0.25 21.0 0.1 21.05 -0.25 21.1 -1.25 21.15 -1.75 21.0 -2.0 20.8 -2.2 20.65 -2.35 20.45 -2.4 20.25 -2.4 20.1 -2.4 19.7 -2.4 18.95 -2.4 18.2 -2.35 18.0 -2.25 17.8 -2.2 17.65 -2.15 17.45 -2.1 17.25 -1.95 17.05 -1.8 16.7 -1.35 15.95 -0.65 15.0 -0.45 12.8 -0.1 9.4 Q-0.1 7.55 0.35 5.8 L0.4 5.45 0.55 5.25 0.6 5.05 0.65 4.85 0.75 4.7 0.8 4.5 0.9 4.1 1.0 3.95 0.9 3.75 0.85 3.55 0.8 3.35 0.6 3.2 0.4 3.0 0.35 2.8 0.25 2.45 0.0 1.7 -0.3 0.75 -0.4 0.35 -0.4 0.15 -0.4 -0.2 -0.4 -1.15 -0.4 -2.1 -0.4 -2.65 -0.35 -2.85 -0.25 -3.2 -0.05 -3.95 0.25 -4.7 0.35 -5.1 0.25 -5.25 0.1 -5.45 -0.05 -5.65 -0.25 -6.0 -0.45 -6.4 -0.65 -8.3 -0.75 -11.1 Q-0.65 -12.7 -0.15 -14.3 L-0.1 -14.45 0.05 -14.65 0.2 -15.05 0.6 -15.6 1.35 -16.35 1.65 -16.55 1.95 -16.7 2.25 -16.9 2.75 -17.0 2.75 -17.05 3.5 -17.05" fill="#663333" fill-opacity="0.101960786" fill-rule="evenodd" stroke="none"/>
    <path d="M2.0 -15.65 L2.5 -15.55 2.85 -15.35 3.15 -15.15 3.35 -14.95 3.5 -14.8 3.6 -14.6 3.7 -14.4 3.75 -14.2 3.8 -14.05 3.85 -13.85 3.85 -13.65 3.85 -13.45 3.9 -13.3 4.05 -13.1 4.25 -12.9 4.4 -12.7 4.75 -12.35 4.85 -11.95 5.05 -11.0 5.1 -9.55 5.1 -8.2 5.05 -8.0 4.95 -7.65 4.85 -7.05 4.6 -6.35 4.5 -5.95 4.35 -5.75 4.35 -5.6 4.35 -5.4 4.35 -5.2 4.35 -5.0 4.3 -4.85 4.25 -4.65 4.2 -4.45 4.1 -4.1 3.95 -3.5 3.8 -3.15 3.7 -2.95 3.55 -2.75 3.3 -2.55 3.1 -2.4 3.05 -2.2 3.05 -2.0 3.05 -1.85 3.05 -1.65 3.05 -1.45 3.0 -1.25 2.9 -1.1 2.9 -0.9 2.85 -0.7 2.75 -0.5 2.65 -0.35 2.55 -0.15 2.55 0.05 2.55 0.25 2.55 0.45 2.55 0.6 2.5 0.8 2.4 1.0 2.3 1.2 2.3 1.35 2.3 1.55 2.3 1.75 2.3 2.1 2.3 2.7 2.3 3.05 2.25 3.25 2.15 3.45 2.15 3.6 2.1 3.8 2.05 4.0 2.05 4.2 2.1 4.35 2.25 4.55 2.45 4.75 2.8 5.15 3.0 5.5 3.05 5.7 3.05 6.25 3.05 7.35 3.05 8.5 3.05 9.05 3.0 9.25 2.95 9.45 2.9 9.6 2.85 9.8 2.8 10.2 2.75 10.55 2.75 10.75 2.85 10.95 2.9 11.15 2.9 11.3 3.0 11.5 3.05 11.7 3.05 12.25 3.05 13.95 2.9 15.65 2.5 17.15 2.35 17.35 2.2 17.7 1.9 18.3 1.45 19.0 1.3 19.2 1.25 19.4 1.15 19.6 1.1 19.75 1.05 19.95 0.95 20.15 0.85 20.3 0.7 20.5 0.35 20.9 0.0 21.2 -0.15 21.25 -0.5 21.3 -1.5 21.25 -2.0 21.15 -2.4 20.95 -2.7 20.75 -2.85 20.6 -2.95 20.4 -3.0 20.2 -3.1 20.0 -3.25 19.85 -3.35 19.65 -3.45 19.45 -3.6 19.25 -3.75 19.05 -3.85 18.9 -3.95 17.75 -3.9 15.5 -3.5 12.85 -3.4 11.95 -3.3 11.75 -3.15 11.55 -2.95 11.35 -2.85 11.2 -2.75 11.0 -2.7 10.8 -2.65 10.65 -2.5 10.45 -2.35 10.25 -2.15 10.05 -1.8 9.7 -1.45 9.3 -1.4 9.1 -1.35 8.95 -1.25 8.75 -1.25 8.6 -1.4 8.35 -1.55 8.2 -1.7 8.0 -1.85 7.8 -1.85 7.6 -1.85 7.45 -1.85 7.25 -1.8 7.05 -1.75 6.85 -1.7 6.7 -1.55 6.5 -1.4 6.3 -1.25 6.1 -1.25 5.95 -1.35 5.75 -1.5 5.55 -1.6 5.35 -1.5 0.1 -1.25 -3.45 -0.95 -10.4 -0.9 -13.4 -0.85 -13.6 -0.8 -13.8 -0.75 -13.95 -0.7 -14.15 -0.65 -14.35 -0.55 -14.5 -0.4 -14.7 -0.2 -14.9 0.0 -15.1 0.35 -15.45 0.6 -15.6 1.0 -15.65 2.0 -15.65" fill="#663333" fill-opacity="0.101960786" fill-rule="evenodd" stroke="none"/>
    <path d="M1.25 -12.65 L1.3 -12.85 1.4 -13.05 1.55 -13.2 1.75 -13.4 2.0 -13.6 2.5 -13.7 2.75 -13.7 3.25 -13.6 3.5 -13.4 3.7 -13.2 3.75 -13.05 3.8 -12.85 3.85 -12.65 3.85 -12.45 3.85 -12.3 4.0 -12.1 4.1 -11.9 4.25 -11.7 4.55 -11.5 Q4.7 -11.45 4.8 -11.35 L4.95 -11.15 5.05 -10.95 5.1 -10.8 5.2 -10.6 5.3 -10.2 5.5 -9.65 5.6 -9.3 5.6 -8.7 5.6 -7.75 5.5 -7.05 5.25 -6.25 4.4 -5.15 2.85 -3.85 2.0 -3.25 1.5 -3.15 0.75 -3.15 0.15 -3.3 -0.4 -3.45 -0.7 -3.65 -0.9 -3.85 -1.1 -4.0 -1.25 -4.2 -1.6 -4.6 -1.65 -5.7 -1.6 -7.0 -1.6 -8.5 -1.6 -9.1 -0.85 -10.2 0.35 -11.5 1.15 -12.45 1.25 -12.65" fill="#663333" fill-opacity="0.101960786" fill-rule="evenodd" stroke="none"/>
    <path d="M2.8 8.05 L2.85 8.25 2.9 8.45 3.0 8.6 3.05 8.8 3.05 9.2 3.05 10.15 3.05 11.45 3.05 12.75 3.0 12.95 2.95 13.15 2.9 13.3 2.85 13.5 2.8 13.7 2.75 13.9 2.6 14.1 2.55 14.25 2.4 14.45 2.4 14.65 2.35 14.8 2.35 15.2 2.3 15.55 2.15 15.95 2.25 16.15 2.3 16.3 2.35 16.5 2.35 16.7 2.35 17.05 2.35 17.65 2.35 18.4 2.35 19.15 2.3 19.35 2.25 19.5 2.15 19.7 2.05 19.9 1.9 20.1 1.8 20.25 1.55 20.45 1.35 20.6 1.0 20.6 -0.25 20.65 -0.75 20.5 -1.0 20.35 -1.15 20.25 -1.75 20.3 -2.25 20.4 -2.5 20.4 -3.0 20.25 -3.25 20.05 -3.45 19.9 -3.6 19.7 -3.65 19.5 -3.65 19.35 -3.65 19.15 -3.65 18.95 -3.55 18.8 -3.4 18.6 -3.4 18.4 -3.45 18.2 -3.5 18.0 -3.6 17.8 -3.65 17.65 -3.6 15.95 -3.5 12.95 Q-3.45 11.4 -2.95 9.95 L-2.85 9.55 -2.7 9.35 -2.65 9.2 -2.5 9.0 -2.45 8.8 -2.4 8.6 -2.4 8.45 -2.35 8.25 -2.25 8.05 -2.2 7.85 -2.1 7.7 -1.95 7.5 -1.75 7.3 -1.6 7.1 -1.4 6.95 -1.15 6.8 -0.75 6.75 -0.4 6.6 -0.15 6.5 0.25 6.45 1.0 6.45 1.5 6.55 1.75 6.75 1.9 6.95 2.3 7.3 2.7 7.85 2.8 8.05" fill="#663333" fill-opacity="0.101960786" fill-rule="evenodd" stroke="none"/>
    <path d="M0.15 -19.45 L0.25 -19.3 0.3 -19.1 0.25 -18.9 0.15 -18.75 0.1 -18.55 0.1 -18.35 0.0 -18.15 -0.2 -17.8 -0.4 -17.4 -0.45 -17.2 -0.5 -17.05 -0.6 -16.85 -0.6 -16.65 -0.6 -16.45 -0.6 -16.3 -0.6 -16.1 -0.6 -15.9 -0.7 -15.55 -0.9 -14.95 -1.1 -14.4 -1.1 -14.2 -1.1 -14.05 -1.1 -13.85 -1.1 -13.65 -1.2 -13.45 -1.25 -13.3 -1.25 -12.9 -1.25 -12.55 -1.25 -12.35 -1.35 -12.15 -1.4 -11.95 -1.45 -11.8 -1.45 -9.9 -1.35 -7.85 -1.45 -5.95 -1.55 -5.8 -1.65 -5.6 -1.65 -4.65 -1.6 -3.5 -1.6 -2.4 -1.65 -2.2 -1.7 -2.0 -1.85 -1.85 -1.85 -1.65 -1.9 -1.45 -2.0 -1.25 -2.1 -1.1 -2.1 -0.9 -2.15 -0.7 -2.25 -0.5 -2.4 -0.35 -2.45 -0.15 -2.6 0.25 -2.7 0.6 -2.85 1.0 -2.85 1.2 -2.85 1.55 -2.85 1.95 -2.85 2.1 -2.9 2.3 -3.0 2.5 -3.15 2.7 -3.25 2.85 -3.35 3.05 -3.4 3.25 -3.45 3.45 -3.6 3.6 -3.75 3.8 -3.9 4.0 -3.95 4.2 -4.1 4.55 -4.2 4.95 -4.35 5.3 -4.35 5.5 -4.35 5.7 -4.35 5.85 -4.35 6.05 -4.35 6.25 -4.4 6.45 -4.45 6.6 -4.5 6.8 -4.65 7.0 -4.65 10.55 -4.65 14.3 -4.65 17.15 -4.6 17.3 -4.4 17.7 -4.1 18.05 -4.05 18.25 -4.05 18.45 -4.1 18.65 -4.0 18.85 -3.95 19.0 -4.0 19.2 -4.1 19.4 -4.15 19.6 -4.25 19.75 -4.4 19.95 -4.6 20.1 -4.7 20.15 -5.0 20.2 -5.45 20.1 -5.7 19.9 -5.9 19.7 -6.15 19.35 -6.2 19.15 -6.2 18.95 -6.2 18.75 -6.2 18.6 -6.3 18.4 -6.45 18.2 -6.55 14.05 -6.55 9.55 -6.45 6.35 -6.4 6.2 -6.3 6.0 -6.25 5.8 -6.2 5.45 -6.2 5.05 -6.2 4.85 -6.1 4.5 -5.9 3.95 -5.7 3.35 -5.65 3.2 -5.55 3.0 -5.4 2.8 -5.25 2.6 -5.15 2.45 -5.1 2.25 -5.0 2.05 -4.95 1.85 -4.85 1.5 -4.7 1.3 -4.7 1.1 -4.7 0.75 -4.7 0.35 -4.65 0.15 -4.55 0.0 -4.45 -0.2 -4.45 -0.4 -4.4 -0.6 -4.3 -0.75 -4.2 -0.95 -4.05 -1.35 -3.95 -1.5 -3.95 -1.7 -3.9 -1.9 -3.75 -2.1 -3.7 -2.25 -3.65 -2.45 -3.5 -2.65 -3.45 -3.6 -3.4 -4.7 -3.4 -5.85 -3.4 -6.0 -3.3 -6.2 -3.2 -6.4 Q-3.1 -7.3 -3.15 -8.25 L-3.15 -10.35 -3.0 -12.2 -2.95 -12.4 -2.85 -12.6 -2.8 -12.8 -2.75 -12.95 -2.75 -13.15 -2.75 -13.35 -2.75 -13.55 -2.7 -13.7 -2.5 -13.9 -2.45 -14.1 -2.45 -14.3 -2.45 -14.45 -2.45 -14.65 -2.45 -14.85 -2.35 -15.2 -2.15 -15.8 -1.95 -16.35 -1.95 -16.55 -1.95 -16.7 -1.95 -16.9 -1.9 -17.1 -1.85 -17.3 -1.75 -17.45 -1.7 -17.65 -1.6 -17.85 -1.4 -18.25 -1.2 -18.6 -1.15 -18.8 -0.95 -19.0 -0.85 -19.15 -0.75 -19.35 -0.7 -19.55 -0.6 -19.65 -0.5 -19.7 -0.3 -19.75 -0.25 -19.8 0.05 -19.65 0.15 -19.45" fill="#ffffff" fill-opacity="0.101960786" fill-rule="evenodd" stroke="none"/>
    <path d="M0.6 -9.6 L0.75 -9.4 0.8 -9.2 0.8 -9.05 0.8 -8.85 0.8 -8.65 0.75 -8.25 0.7 -7.7 0.65 -7.5 0.6 -7.35 0.4 -6.95 0.3 -6.75 0.1 -6.4 -0.35 -5.9 -0.45 -5.85 -0.85 -5.7 -1.1 -5.5 -1.5 -5.4 -1.75 -5.4 -2.75 -5.45 -3.2 -5.6 -3.4 -5.8 -3.5 -5.95 -3.6 -6.15 -3.65 -6.35 -3.65 -6.5 -3.65 -6.7 -3.6 -6.9 -3.6 -7.1 -3.6 -7.25 -3.6 -7.65 -3.5 -7.85 -3.45 -8.0 -3.4 -8.2 -3.35 -8.4 -3.25 -8.6 -3.15 -8.8 -3.0 -8.95 -2.95 -9.15 -2.95 -9.35 -2.95 -9.55 -2.9 -9.7 -2.75 -9.9 -2.6 -10.1 -2.35 -10.2 -2.05 -10.25 -2.0 -10.3 -1.15 -10.2 -0.35 -10.0 0.35 -9.8 0.6 -9.6" fill="#ffffff" fill-opacity="0.101960786" fill-rule="evenodd" stroke="none"/>
    <path d="M-0.8 -21.45 Q-0.65 -21.25 -0.75 -20.8 L-1.0 -20.2 -2.4 -17.2 -2.95 -15.4 Q-3.4 -11.85 -3.0 -8.4 L-3.05 -8.25 Q-3.05 -7.9 -3.4 -7.9 L-3.85 -8.4 Q-4.1 -10.1 -4.0 -12.0 L-3.75 -14.95 -3.65 -15.75 -3.4 -16.6 -1.6 -20.2 Q-1.3 -20.75 -1.3 -21.1 -1.25 -21.75 -0.8 -21.45" fill="#333333" fill-rule="evenodd" stroke="none"/>
    <path d="M-3.05 -9.0 L-3.05 -8.95 -3.3 -7.9 -3.3 -7.8 -3.4 -7.55 -3.4 -7.15 -3.4 -7.0 Q-3.75 -3.95 -4.45 -1.0 L-5.4 3.45 -5.4 3.65 -5.5 13.1 -5.3 20.1 Q-5.3 20.55 -5.6 20.85 L-6.05 20.75 -6.3 19.7 -6.25 17.45 -6.35 15.1 -6.4 11.35 -6.35 9.1 -6.35 6.1 Q-6.45 4.2 -6.05 2.35 L-5.65 0.75 -5.3 -0.6 -4.5 -3.5 -4.0 -7.1 -3.75 -8.4 Q-3.45 -9.15 -3.05 -9.0" fill="#333333" fill-rule="evenodd" stroke="none"/>
    <path d="M5.25 -13.25 Q4.9 -15.0 4.95 -16.9 L5.8 -14.9 Q6.45 -12.7 6.25 -10.0 L5.8 -6.6 5.25 -4.65 5.2 -4.4 5.1 -3.95 5.05 -3.9 5.05 -3.8 5.0 -3.75 4.9 -3.65 4.7 -3.65 4.55 -3.65 4.45 -3.75 Q4.3 -4.1 4.4 -4.55 L4.75 -5.6 Q5.45 -7.6 5.5 -9.55 5.55 -11.55 5.25 -13.25" fill="#333333" fill-rule="evenodd" stroke="none"/>
    <path d="M4.3 -4.0 Q4.5 -4.7 5.05 -4.55 L4.85 -2.15 4.4 3.4 4.25 4.85 4.15 5.35 4.15 5.45 4.0 6.7 Q3.65 8.4 3.9 9.95 4.25 12.25 3.85 14.5 L3.8 15.05 3.45 18.3 3.35 18.75 3.35 19.25 Q3.45 20.35 3.0 21.2 2.45 21.4 2.4 20.75 2.3 19.8 2.5 18.8 L2.6 16.85 Q2.5 15.8 2.7 14.7 3.1 12.75 3.05 10.75 L3.0 8.65 Q3.0 7.05 3.3 5.45 L3.55 3.2 3.75 -0.55 4.3 -4.0" fill="#333333" fill-rule="evenodd" stroke="none"/>
    <path d="M-5.65 21.25 Q-6.15 21.1 -5.65 21.2 L-5.65 21.25" fill="#333333" fill-rule="evenodd" stroke="none"/>
    <path d="M2.65 20.0 L3.0 19.95 Q3.5 20.6 2.7 20.95 0.55 21.95 -2.05 21.65 -4.1 21.75 -5.9 20.55 -6.1 20.4 -6.4 20.2 -6.75 20.1 -6.6 19.75 L-6.4 19.7 -5.6 19.95 -4.4 20.45 -2.05 20.95 0.3 20.85 Q1.6 20.85 2.65 20.0" fill="#333333" fill-rule="evenodd" stroke="none"/>
    <path d="M3.2 12.15 L3.35 12.2 3.55 12.5 3.25 12.8 Q1.85 13.5 0.3 13.4 L-1.55 13.15 -4.95 12.55 Q-5.85 12.4 -5.95 11.75 L-5.8 11.75 -4.75 12.0 -2.35 12.4 -0.85 12.6 Q1.0 13.15 2.85 12.3 L3.0 12.25 3.1 12.2 3.2 12.15" fill="#333333" fill-rule="evenodd" stroke="none"/>
    <path d="M-3.75 13.65 L-3.0 13.5 -2.3 13.85 Q-1.9 15.05 -2.75 15.85 -3.7 16.15 -4.35 15.5 L-4.45 14.95 -4.25 14.0 -3.75 13.65 M-3.9 14.15 L-3.9 15.2 -2.85 15.2 -2.85 14.15 -3.9 14.15" fill="#333333" fill-rule="evenodd" stroke="none"/>
    <path d="M-3.0 -15.0 L-2.7 -14.45 Q-2.25 -12.75 -1.1 -11.45 L-1.1 -10.85 Q-1.6 -10.5 -1.9 -11.0 -2.85 -12.55 -3.55 -14.45 -3.9 -15.45 -3.25 -15.5 L-3.0 -15.0" fill="#333333" fill-rule="evenodd" stroke="none"/>
    <path d="M2.75 -14.75 L2.85 -14.35 Q2.9 -14.05 1.55 -13.3 0.2 -12.55 -0.7 -11.7 L-1.7 -11.0 -1.95 -11.05 -1.95 -11.15 -1.95 -11.2 -1.95 -11.3 -1.9 -11.4 0.6 -13.6 Q1.45 -14.6 2.75 -14.75" fill="#333333" fill-rule="evenodd" stroke="none"/>
    <path d="M2.15 -14.2 Q2.15 -14.55 2.5 -14.85 L2.6 -14.85 2.8 -14.6 Q2.5 -13.4 2.75 -12.2 3.1 -10.3 2.6 -8.3 L2.6 -8.1 2.5 -7.2 Q2.4 -6.75 1.9 -6.85 1.6 -7.25 1.8 -7.9 L2.15 -10.75 2.15 -14.2" fill="#333333" fill-rule="evenodd" stroke="none"/>
    <path d="M2.3 -7.45 L2.25 -7.4 1.0 -6.25 -1.9 -4.25 -2.15 -4.5 -3.55 -5.85 Q-4.0 -6.25 -3.9 -6.75 L-3.5 -7.2 -3.15 -6.95 -3.1 -6.7 Q-2.5 -5.8 -1.65 -5.2 L-1.45 -5.3 1.65 -7.4 2.3 -7.45" fill="#333333" fill-rule="evenodd" stroke="none"/>
    <path d="M2.85 -11.0 L2.9 -10.85 Q1.25 -9.05 -1.1 -8.25 L-1.35 -8.45 -1.75 -8.8 -2.95 -9.5 Q-3.55 -10.1 -3.3 -10.65 L-3.05 -10.65 -2.95 -10.45 Q-2.15 -9.5 -0.85 -9.0 L0.6 -9.75 Q1.3 -10.0 1.9 -10.75 2.25 -11.25 2.85 -11.0" fill="#333333" fill-rule="evenodd" stroke="none"/>
    <path d="M3.25 -3.65 L3.35 -3.4 2.1 -3.25 Q1.65 -3.45 1.55 -3.9 L2.85 -3.8 3.25 -3.65" fill="#333333" fill-rule="evenodd" stroke="none"/>
    <path d="M0.2 -1.7 L0.3 -1.7 Q1.9 -2.25 2.95 -1.45 L2.8 -1.25 0.3 -1.25 Q0.0 -1.4 0.2 -1.7" fill="#333333" fill-rule="evenodd" stroke="none"/>
    <path d="M1.4 -0.1 L1.3 -0.2 Q1.55 -1.05 3.0 -0.5 L3.2 -0.3 1.4 -0.1" fill="#333333" fill-rule="evenodd" stroke="none"/>
  </g>
</svg>
