<?xml version="1.0" encoding="UTF-8" standalone="no"?>
<svg xmlns:xlink="http://www.w3.org/1999/xlink" height="43.3px" width="13.65px" xmlns="http://www.w3.org/2000/svg">
  <g transform="matrix(1.0, 0.0, 0.0, 1.0, 6.55, 21.45)">
    <path d="M4.25 -15.75 L4.7 -15.65 5.0 -15.45 5.2 -15.3 5.35 -15.1 5.5 -14.9 5.6 -14.7 5.75 -14.55 5.8 -14.35 5.85 -14.15 6.0 -13.95 6.05 -13.8 6.1 -13.6 6.2 -13.4 6.25 -13.2 6.25 -13.05 6.25 -12.85 6.25 -12.45 6.25 -11.7 6.25 -10.8 6.25 -10.6 6.2 -10.4 6.1 -10.2 6.05 -10.0 6.0 -9.65 5.9 -9.1 5.85 -8.7 5.8 -8.5 5.75 -8.35 5.7 -8.15 5.6 -7.8 5.5 -7.4 5.45 -7.0 5.3 -6.85 5.25 -6.65 5.1 -6.45 4.8 -6.1 4.35 -5.5 4.1 -5.35 3.85 -5.15 3.95 -4.95 4.1 -4.75 4.45 -4.6 4.55 -4.4 4.65 -4.2 4.75 -4.0 4.8 -3.85 4.8 -3.65 4.8 -3.45 4.8 -3.25 4.8 -3.1 4.75 -2.9 4.65 -2.7 4.55 -2.5 4.35 -2.15 4.15 -1.75 4.05 -1.6 4.0 -1.4 3.95 -1.2 3.85 -1.0 3.8 -0.85 3.8 -0.65 3.8 -0.45 3.8 -0.25 3.75 -0.1 3.7 0.1 3.6 0.3 3.5 0.5 3.3 0.7 3.4 0.85 3.5 1.05 3.55 1.25 3.6 1.45 3.6 1.6 3.6 1.8 3.55 2.0 3.55 2.2 3.45 2.35 3.35 2.55 3.25 2.75 3.0 2.95 2.8 3.1 2.9 3.3 3.0 3.5 3.05 3.7 3.15 3.85 3.3 4.05 3.55 4.25 3.7 4.45 3.8 4.6 3.85 4.8 3.85 5.0 3.85 5.2 3.85 5.35 3.85 5.75 3.85 6.1 3.8 6.3 3.75 6.5 3.7 6.7 3.55 6.85 3.55 8.2 3.6 11.4 3.35 14.55 3.35 15.3 3.3 15.5 3.25 15.7 3.15 16.25 2.9 17.2 2.65 18.15 2.55 18.3 2.4 18.5 2.35 18.7 2.3 18.9 2.15 19.1 2.05 19.25 2.0 19.45 1.9 19.65 1.75 19.85 1.55 20.0 1.35 20.2 0.95 20.55 0.75 20.75 0.25 20.9 -0.25 20.75 -0.5 20.55 -0.7 20.4 -0.8 20.2 -0.9 20.0 -1.0 19.85 -1.3 19.65 -1.65 19.45 -1.85 19.25 -2.0 19.05 -2.1 18.9 -2.1 18.7 -2.15 18.35 -2.15 17.4 -2.15 16.25 -2.15 15.5 -2.1 15.3 -2.0 15.15 -1.95 14.95 -1.9 14.75 -1.85 14.55 -1.7 14.4 -1.55 14.2 -1.4 14.0 -1.4 13.65 -1.4 12.5 -1.3 11.0 -1.1 9.5 -1.05 9.3 -1.15 9.15 -1.3 8.95 -1.45 8.75 -1.6 8.55 -1.6 8.35 -1.6 8.2 -1.6 7.8 -1.6 7.25 -1.6 6.5 -1.6 6.1 -1.5 5.95 -1.45 5.75 -1.4 5.35 -1.25 4.8 -1.0 4.05 -0.9 3.85 -0.7 3.5 -0.3 2.75 0.3 1.8 0.5 1.45 0.4 1.25 0.3 1.05 0.15 0.85 0.05 0.7 -0.2 0.3 -0.25 0.1 -0.3 -0.1 -0.35 -0.25 -0.35 -0.65 -0.35 -1.2 -0.35 -1.95 -0.35 -2.15 -0.25 -2.35 -0.2 -2.5 -0.15 -2.7 -0.05 -2.9 0.05 -3.05 0.15 -3.25 0.25 -3.45 0.55 -3.8 0.75 -3.95 0.85 -4.0 1.25 -4.1 1.85 -4.2 1.8 -4.4 1.8 -4.6 1.75 -4.75 1.65 -4.95 1.6 -5.15 1.5 -5.35 1.4 -5.5 1.3 -5.7 1.25 -5.9 1.15 -6.1 1.1 -6.25 1.05 -6.65 0.85 -7.2 0.75 -7.6 0.7 -8.5 0.65 -10.95 0.75 -13.8 1.0 -14.7 1.1 -14.9 1.3 -15.1 1.5 -15.3 1.65 -15.45 1.85 -15.65 2.1 -15.8 2.5 -15.8 2.5 -15.85 3.5 -15.85 4.25 -15.75" fill="#663333" fill-opacity="0.101960786" fill-rule="evenodd" stroke="none"/>
    <path d="M0.35 -13.15 L0.65 -13.7 1.3 -14.65 1.85 -15.2 2.1 -15.35 2.5 -15.4 4.25 -15.4 4.75 -15.3 5.0 -15.1 5.15 -14.9 5.3 -14.7 5.4 -14.55 5.5 -14.35 5.55 -14.15 5.6 -13.95 5.7 -13.8 5.75 -13.6 5.75 -13.4 5.95 -13.2 6.1 -13.0 6.35 -12.65 6.65 -12.1 6.75 -11.9 6.8 -11.7 6.85 -11.55 6.9 -11.35 7.0 -10.95 7.1 -10.6 7.1 -10.4 7.1 -10.2 7.1 -9.85 7.1 -9.45 7.1 -9.1 7.05 -8.9 6.95 -8.55 6.8 -8.0 6.65 -7.2 6.6 -7.0 6.55 -6.85 6.0 -5.9 4.9 -4.55 4.1 -3.85 4.05 -3.65 4.0 -3.45 3.95 -3.25 3.8 -3.1 3.75 -2.9 3.7 -2.7 3.6 -2.5 3.55 -2.35 3.4 -2.15 3.35 -1.95 3.3 -1.75 3.25 -1.6 3.15 -1.4 3.05 -1.2 2.95 -1.0 2.75 -0.65 2.5 -0.25 2.4 -0.1 2.4 0.1 2.35 0.85 2.35 2.2 2.35 3.3 2.35 3.7 2.4 3.85 2.5 4.05 2.7 4.45 3.0 5.0 3.1 5.2 3.15 5.35 3.25 5.55 3.3 5.75 3.3 5.95 3.3 6.3 3.3 6.85 3.3 7.6 3.3 8.0 3.25 8.2 3.15 8.35 3.15 8.55 3.1 8.75 3.05 8.95 2.95 9.15 2.85 9.3 2.75 9.5 2.5 9.7 2.35 9.9 2.35 10.05 2.35 11.2 2.3 12.7 2.0 14.2 2.0 14.35 2.25 14.5 2.65 14.65 3.0 14.8 3.15 15.0 3.35 15.2 3.5 15.4 3.6 15.6 3.7 15.75 3.7 15.95 3.75 16.15 3.75 16.7 3.75 17.45 3.75 17.8 3.7 18.0 3.6 18.2 3.55 18.4 3.4 18.6 3.35 18.75 3.3 18.95 3.25 19.15 3.15 19.35 3.05 19.5 2.9 19.7 2.8 19.9 2.6 20.1 2.4 20.25 2.1 20.45 1.85 20.65 1.55 20.85 1.35 20.95 1.1 21.0 0.0 21.2 -2.0 21.25 -2.5 21.15 -2.9 20.95 -3.2 20.75 -3.35 20.6 -3.45 20.4 -3.5 20.2 -3.5 20.0 -3.5 19.85 -3.5 19.45 -3.5 19.1 -3.45 18.9 -3.4 18.7 -3.35 18.5 -3.25 18.35 -3.2 18.15 -3.1 17.95 -2.95 17.75 -2.75 17.55 -2.8 17.45 -3.25 17.2 -3.5 17.0 -3.7 16.8 -3.75 16.65 -3.8 16.45 -3.85 16.25 -3.85 16.05 -3.85 15.9 -3.85 15.5 -3.75 15.3 -3.7 15.15 -3.65 14.95 -3.6 14.75 -3.5 14.55 -3.4 14.4 -3.05 13.8 -2.15 12.8 -1.65 12.15 -1.65 11.95 -1.6 11.75 -1.5 11.65 -2.0 11.55 -2.5 11.45 -2.75 11.25 -2.95 11.05 -3.05 10.9 -3.15 10.7 -3.2 10.5 -3.35 10.3 -3.35 10.15 -3.35 9.95 -3.35 9.4 -3.35 8.6 -3.35 8.25 -3.25 8.05 -3.2 7.85 -3.15 7.7 -3.1 7.5 -3.1 7.3 -3.1 7.1 -3.1 6.95 -3.1 6.75 -3.1 6.55 -3.05 6.35 -2.85 5.45 -2.55 4.15 -2.2 2.8 -2.1 2.45 -1.95 2.25 -1.9 2.05 -1.9 1.1 -1.7 -0.2 -1.3 -1.5 -1.15 -1.9 -1.0 -2.05 -0.85 -2.25 -0.65 -2.45 -0.25 -2.65 -0.15 -2.85 -0.05 -3.0 0.05 -3.2 0.3 -3.6 0.4 -3.75 0.45 -3.95 0.3 -4.15 0.15 -4.35 0.05 -4.5 0.0 -4.7 -0.1 -4.9 -0.15 -5.1 -0.15 -5.25 -0.15 -5.45 -0.15 -5.65 -0.15 -5.85 -0.1 -6.2 0.0 -6.4 0.1 -6.6 0.1 -6.75 0.05 -6.95 -0.1 -7.15 -0.2 -7.35 -0.35 -7.5 -0.35 -7.7 -0.45 -9.2 -0.25 -11.1 0.25 -12.95 0.35 -13.15" fill="#663333" fill-opacity="0.101960786" fill-rule="evenodd" stroke="none"/>
    <path d="M5.6 -9.55 L5.6 -9.15 5.6 -8.6 5.6 -8.2 5.55 -8.0 5.5 -7.85 5.45 -7.65 5.45 -7.45 5.3 -7.25 5.25 -7.1 5.2 -6.9 4.9 -6.5 4.6 -5.95 4.35 -5.6 3.7 -4.65 2.75 -3.75 2.6 -3.7 2.1 -3.6 1.6 -3.45 1.25 -3.4 0.0 -3.4 -0.5 -3.5 -0.75 -3.7 -0.95 -3.9 -1.15 -4.1 -1.35 -4.25 -1.5 -4.45 -1.9 -4.65 -2.1 -4.85 -2.25 -5.05 -2.4 -5.2 -2.5 -5.4 -2.65 -5.6 -2.7 -5.75 -2.85 -5.95 -2.85 -6.15 -2.85 -6.35 -2.85 -6.5 -2.85 -6.7 -2.85 -6.9 -2.85 -7.1 -2.85 -7.25 -2.85 -7.45 -2.85 -7.65 -2.75 -7.85 -2.65 -8.2 -2.55 -8.6 -2.55 -8.8 -2.45 -9.15 -2.25 -9.7 -2.15 -10.1 -2.0 -10.25 -1.65 -10.65 -1.45 -10.85 -1.25 -11.05 -1.1 -11.2 -0.7 -11.6 -0.5 -11.8 -0.15 -11.95 0.1 -12.1 0.5 -12.1 0.5 -12.15 1.5 -12.1 2.25 -12.0 3.15 -11.8 4.0 -11.7 4.5 -11.6 4.85 -11.4 5.2 -11.2 5.35 -11.0 5.5 -10.85 5.55 -10.65 5.6 -10.45 5.6 -10.1 5.6 -9.7 5.6 -9.55 M3.0 -8.85 L3.0 -8.65 3.0 -8.45 2.9 -8.25 2.85 -8.1 2.8 -7.9 2.75 -7.7 2.8 -7.7 2.9 -7.8 3.0 -7.95 3.05 -8.35 3.1 -8.55 3.1 -8.7 3.1 -8.9 3.05 -9.05 3.0 -9.05 3.0 -8.85" fill="#663333" fill-opacity="0.101960786" fill-rule="evenodd" stroke="none"/>
    <path d="M0.55 3.05 L0.85 3.25 1.05 3.45 1.15 3.6 1.25 3.8 1.35 4.0 1.55 4.35 1.6 4.55 1.8 4.75 2.0 4.95 2.25 5.35 2.7 6.05 3.05 6.6 3.25 7.95 3.4 10.0 3.4 12.45 3.3 13.4 3.1 13.75 2.95 14.15 2.4 15.1 1.9 15.8 1.9 16.0 1.85 16.2 1.8 16.55 1.55 17.3 1.3 18.05 1.25 18.25 1.1 18.45 0.9 18.65 0.75 18.8 0.5 19.0 0.0 19.15 -0.45 19.15 -0.75 19.35 -1.25 19.45 -2.25 19.45 -2.75 19.35 -3.1 19.15 -3.25 18.95 -3.4 18.75 -3.55 18.6 -3.7 18.4 -4.1 18.0 -4.15 17.8 -4.15 17.65 -4.15 17.45 -4.15 17.25 -4.15 17.05 -4.2 16.9 -4.25 16.7 -4.35 16.5 -4.4 16.3 -4.45 16.15 -4.45 15.0 -4.25 12.95 -4.0 10.7 -3.85 9.95 -3.85 9.55 -3.85 9.0 -3.8 7.85 -3.65 6.95 -3.6 6.75 -3.5 6.55 -3.4 6.35 -3.35 6.2 -3.25 6.0 -3.2 5.8 -3.1 5.45 -2.9 4.85 -2.85 4.7 -2.7 4.5 -2.65 4.3 -2.6 4.1 -2.5 3.95 -2.4 3.75 -2.25 3.55 -2.1 3.35 -1.9 3.2 -1.5 2.85 -1.4 2.85 -1.0 2.75 -0.5 2.75 0.05 2.9 0.55 3.05" fill="#663333" fill-opacity="0.101960786" fill-rule="evenodd" stroke="none"/>
    <path d="M-1.0 -20.35 L-0.7 -20.25 -0.6 -20.05 -0.45 -19.85 -0.45 -18.9 -0.35 -17.8 -0.35 -16.85 -0.4 -16.65 -0.45 -16.45 -0.5 -16.3 -0.5 -16.1 -0.5 -15.9 -0.5 -15.55 -0.5 -15.15 -0.6 -14.95 -0.65 -14.8 -0.7 -14.6 -0.75 -14.4 -0.75 -14.2 -0.75 -13.85 -0.7 -13.45 -0.7 -13.3 -0.75 -13.1 -0.85 -12.9 -1.0 -12.7 -1.2 -12.55 -1.2 -12.35 -1.25 -12.15 -1.35 -11.95 -1.45 -11.8 -1.45 -11.6 -1.45 -11.4 -1.45 -11.2 -1.45 -11.05 -1.45 -10.85 -1.5 -10.65 -1.6 -10.45 -1.65 -10.3 -1.65 -9.35 -1.65 -8.2 -1.65 -7.1 -1.7 -6.9 -1.85 -6.7 -1.9 -6.35 -1.9 -5.75 -1.9 -5.2 -1.95 -5.0 -2.05 -4.85 -2.15 -4.65 -2.15 -4.1 -2.1 -3.35 -2.2 -2.6 -2.3 -2.4 -2.4 -2.2 -2.4 -2.0 -2.4 -1.85 -2.45 -1.65 -2.6 -1.45 -2.65 -1.25 -2.7 -1.1 -2.75 -0.9 -2.85 -0.7 -2.85 -0.35 -2.85 0.25 -2.85 0.8 -2.9 1.0 -2.95 1.15 -3.1 1.35 -3.1 1.55 -3.1 1.95 -3.1 2.3 -3.1 2.7 -3.15 2.85 -3.25 3.05 -3.3 3.45 -3.3 4.0 -3.4 4.55 -3.45 4.75 -3.6 4.95 -3.6 5.1 -3.6 5.5 -3.6 5.85 -3.6 6.25 -3.65 6.45 -3.7 6.6 -3.75 6.8 -3.85 7.0 -3.85 7.2 -3.85 7.35 -3.85 7.55 -3.85 7.75 -3.9 7.95 -3.95 8.1 -4.0 8.3 -4.1 8.5 -4.1 10.2 -4.0 12.25 -4.1 13.75 -4.15 13.95 -4.25 14.15 -4.25 15.45 -4.25 16.95 -4.25 18.05 -4.2 18.25 -4.1 18.45 -4.05 18.65 -4.0 18.85 -4.0 19.0 -3.95 19.2 -3.9 19.4 -3.85 19.6 -3.75 19.95 -3.8 20.15 -3.85 20.3 -3.95 20.5 -4.1 20.7 -4.35 20.9 -4.75 21.0 -5.25 20.9 -5.55 20.7 -5.65 20.5 -5.75 20.35 -5.85 20.15 -5.95 19.95 -6.0 19.75 -6.05 19.6 -6.05 19.4 -6.05 19.2 -6.15 19.0 -6.2 18.85 -6.3 17.15 -6.3 15.05 -6.3 13.55 -6.2 13.4 -6.1 13.2 -5.95 11.3 -5.95 9.25 -5.95 7.55 -5.9 7.4 -5.8 7.2 -5.75 7.0 -5.7 6.8 -5.7 6.6 -5.7 6.25 -5.65 6.05 -5.55 5.85 -5.5 5.5 -5.5 4.95 -5.4 4.35 -5.3 4.2 -5.2 4.0 -5.2 3.8 -5.2 3.6 -5.2 3.25 -5.2 2.85 -5.15 2.7 -5.1 2.5 -5.0 2.3 -4.95 2.1 -4.95 1.95 -4.95 1.55 -4.95 1.2 -4.95 0.8 -4.9 0.6 -4.75 0.45 -4.75 0.05 -4.7 -0.5 -4.65 -1.1 -4.65 -1.25 -4.55 -1.45 -4.45 -1.65 -4.35 -1.85 -4.25 -2.0 -4.2 -2.2 -4.15 -2.4 -4.15 -2.6 -4.15 -2.75 -4.05 -2.95 -3.95 -3.15 Q-3.85 -3.4 -3.9 -3.7 L-3.9 -4.45 -3.9 -5.2 -3.8 -5.4 -3.7 -5.6 -3.65 -5.75 -3.65 -6.15 -3.65 -6.5 -3.65 -6.9 -3.6 -7.1 -3.5 -7.25 -3.45 -7.45 -3.4 -7.65 -3.4 -9.55 -3.45 -11.6 -3.15 -13.3 -3.15 -13.45 -3.15 -13.65 -3.15 -13.85 -3.15 -14.05 -3.1 -14.2 -3.05 -14.4 -3.0 -14.6 -2.9 -14.95 -2.9 -15.15 -2.9 -15.35 -2.9 -15.55 -2.9 -15.7 -2.85 -15.9 -2.75 -16.1 -2.7 -16.3 -2.6 -16.65 -2.6 -16.85 -2.6 -17.2 -2.6 -17.6 -2.6 -18.0 -2.5 -18.15 -2.35 -18.35 -2.2 -18.5 -2.1 -18.55 -1.7 -18.65 -1.65 -19.0 -1.6 -19.35 -1.55 -19.9 -1.5 -20.1 -1.4 -20.2 -1.25 -20.25 -1.05 -20.3 -1.0 -20.35" fill="#ffffff" fill-opacity="0.101960786" fill-rule="evenodd" stroke="none"/>
    <path d="M0.4 -9.7 L0.9 -9.15 1.05 -8.95 1.15 -8.8 1.25 -8.6 1.3 -8.4 1.35 -8.2 1.4 -8.0 1.4 -7.85 1.4 -7.65 1.4 -7.45 1.35 -7.25 1.3 -7.1 1.25 -6.9 1.15 -6.5 1.1 -6.35 1.05 -6.15 0.95 -5.95 0.8 -5.75 0.6 -5.6 0.3 -5.4 0.0 -5.25 -0.25 -5.1 -0.45 -4.95 -0.75 -4.9 -2.5 -4.9 -2.95 -5.0 -3.2 -5.2 -3.35 -5.4 -3.4 -5.6 -3.4 -5.95 -3.4 -6.5 -3.4 -6.7 -3.4 -7.1 -3.4 -7.45 -3.35 -7.65 -3.25 -7.85 -3.2 -8.05 -3.15 -8.4 -3.1 -8.6 -3.0 -8.8 -3.1 -8.95 -3.4 -9.15 -3.55 -9.35 -3.65 -9.55 -3.7 -9.7 -3.7 -9.9 -3.7 -10.1 -3.7 -10.3 -3.7 -10.45 -3.7 -10.65 -3.7 -10.85 -3.65 -11.0 -3.45 -11.2 -3.2 -11.4 -2.8 -11.5 -2.75 -11.55 -2.25 -11.55 -1.85 -11.4 -1.6 -11.2 -1.4 -11.05 -1.2 -10.85 -1.0 -10.65 -0.5 -10.45 -0.15 -10.3 0.05 -10.1 0.4 -9.7" fill="#ffffff" fill-opacity="0.101960786" fill-rule="evenodd" stroke="none"/>
    <path d="M-4.15 14.15 L-4.25 14.4 -4.2 14.95 Q-3.65 15.5 -3.0 15.1 L-2.9 14.7 -2.9 14.55 Q-3.6 14.1 -4.1 14.1 L-4.15 14.15 M-2.3 14.65 L-2.3 14.8 -2.55 15.45 Q-3.8 16.1 -4.7 15.25 L-4.65 14.35 -4.2 13.7 -3.1 13.65 -2.7 13.85 Q-2.3 14.15 -2.3 14.65 M2.55 13.4 L2.6 13.15 2.4 13.15 0.5 13.25 -0.65 13.2 -2.55 12.95 -4.35 12.7 -5.6 12.25 -5.6 12.9 -5.5 14.4 -5.55 16.35 -5.65 17.6 -5.6 19.6 -5.5 19.6 -5.3 19.8 -3.85 20.7 0.6 21.05 1.1 20.75 1.3 20.6 2.1 20.25 Q2.1 19.45 2.25 18.6 L2.3 16.25 2.45 15.65 2.55 14.85 Q2.4 14.25 2.55 13.55 L2.55 13.4 M2.2 -7.9 Q2.1 -8.3 2.15 -8.7 L2.45 -10.35 -1.05 -8.45 -2.05 -8.55 -3.2 -10.25 -3.15 -7.45 -2.9 -7.35 Q-2.65 -7.05 -3.05 -6.85 L-3.1 -6.8 -2.15 -5.25 -2.0 -5.3 Q-1.0 -5.65 -0.2 -6.3 L2.2 -7.9 M1.55 -14.05 L2.35 -14.7 2.85 -14.75 2.95 -15.0 3.15 -15.0 Q3.45 -14.65 3.35 -14.25 L3.2 -13.5 Q3.1 -12.1 3.45 -10.85 L3.4 -10.75 3.25 -10.6 Q2.8 -9.45 2.85 -8.1 L2.7 -7.7 -0.4 -5.35 Q-0.7 -5.15 -1.15 -4.9 L-1.45 -4.8 Q-1.8 -4.55 -2.2 -4.45 -2.95 -5.05 -3.5 -5.95 L-3.95 -2.85 -4.3 -0.55 -4.65 1.8 -4.75 2.1 -4.8 2.35 -4.85 2.65 -5.3 5.2 -5.45 7.9 -5.45 8.05 -5.5 11.7 Q-3.1 12.5 -0.6 12.55 L0.4 12.6 Q1.7 13.0 2.75 12.25 L2.9 11.35 2.9 11.2 3.0 9.95 3.2 5.5 3.2 3.2 3.2 2.5 3.25 1.25 Q3.25 0.4 3.5 -0.45 L3.65 -1.1 3.7 -1.6 4.05 -2.3 4.35 -3.2 4.8 -4.85 5.2 -6.0 5.2 -6.15 5.25 -6.4 5.45 -7.7 Q5.75 -10.25 5.5 -12.7 L5.15 -15.15 5.1 -15.45 Q4.95 -16.3 5.4 -16.8 5.75 -16.65 5.75 -16.3 L5.85 -15.0 6.25 -12.75 6.2 -7.75 5.9 -5.85 5.8 -5.2 5.55 -4.7 Q5.3 -4.5 5.35 -4.1 L5.25 -3.35 5.05 -2.75 5.0 -2.6 5.0 -2.55 4.95 -2.45 4.75 -2.0 4.5 -1.2 4.25 -0.3 4.25 0.15 Q3.8 3.25 3.9 6.45 L3.8 10.75 3.5 12.55 3.45 12.85 3.4 13.0 3.35 13.45 3.05 18.5 2.95 19.3 Q2.9 19.85 3.0 20.4 3.1 20.95 2.65 21.4 L2.15 21.35 -0.35 21.85 -1.65 21.8 -3.45 21.5 -5.6 20.65 -5.6 20.75 -5.6 20.8 -5.6 20.9 -5.8 21.2 -6.25 21.05 Q-6.55 20.85 -6.5 20.15 L-6.5 20.0 -6.55 13.8 -6.4 11.45 -6.3 9.7 -6.35 9.0 -6.35 7.8 -6.05 5.2 -5.95 4.65 -5.8 3.75 -5.55 2.35 -5.2 0.4 -4.85 -1.8 -4.7 -2.65 -4.6 -3.2 -4.45 -3.8 Q-4.1 -5.25 -4.0 -6.7 L-3.95 -7.4 Q-3.7 -10.25 -3.9 -13.3 L-3.85 -13.45 Q-3.45 -14.15 -3.7 -14.8 L-3.65 -14.9 -3.6 -15.05 Q-3.0 -17.4 -1.85 -19.75 L-1.25 -20.9 -1.15 -21.15 Q-0.9 -21.55 -0.55 -21.4 L-0.95 -20.45 -1.1 -20.2 -1.3 -19.95 -1.35 -19.8 Q-2.35 -17.6 -2.85 -15.25 -3.0 -14.45 -2.6 -13.8 -2.25 -13.2 -2.2 -12.6 L-2.15 -12.45 -1.8 -11.95 -1.55 -12.05 0.05 -13.15 1.55 -14.05 M2.7 -14.1 L0.3 -12.55 -0.6 -11.9 -1.1 -11.55 Q-1.35 -11.25 -1.6 -11.25 L-2.2 -11.3 -2.3 -11.45 -2.45 -11.8 -2.55 -12.0 -2.7 -12.4 -2.85 -12.7 -2.95 -12.95 -3.2 -13.45 -3.2 -13.3 -3.25 -11.25 -3.2 -11.0 -1.65 -8.95 -0.5 -9.4 Q0.35 -9.75 1.15 -10.2 L2.2 -10.8 2.75 -11.0 2.7 -14.1" fill="#333333" fill-rule="evenodd" stroke="none"/>
    <path d="M2.95 -3.65 L3.2 -3.55 3.45 -3.45 3.55 -3.35 3.55 -3.25 3.5 -3.2 3.5 -3.15 3.4 -3.15 3.35 -3.1 3.25 -3.1 2.7 -3.2 1.4 -3.3 1.3 -3.35 1.25 -3.4 1.2 -3.45 1.2 -3.5 1.25 -3.55 1.25 -3.6 1.3 -3.65 1.4 -3.7 2.1 -3.7 2.15 -3.75 2.2 -3.8 2.3 -3.8 2.4 -3.8 2.45 -3.75 2.55 -3.75 2.95 -3.65" fill="#333333" fill-rule="evenodd" stroke="none"/>
    <path d="M2.05 -1.8 L2.15 -1.8 2.2 -1.8 2.35 -1.8 2.45 -1.75 2.55 -1.7 2.6 -1.65 2.7 -1.6 2.75 -1.55 2.8 -1.55 2.8 -1.5 2.85 -1.45 2.85 -1.3 2.8 -1.25 2.75 -1.25 2.75 -1.2 2.65 -1.2 2.45 -1.15 2.35 -1.15 2.25 -1.15 2.2 -1.2 2.15 -1.25 2.05 -1.25 1.95 -1.25 0.45 -1.3 0.35 -1.3 0.3 -1.25 0.15 -1.3 0.05 -1.25 -0.05 -1.3 -0.1 -1.35 -0.1 -1.45 -0.05 -1.45 -0.05 -1.5 0.05 -1.55 0.05 -1.6 0.15 -1.65 0.15 -1.75 0.2 -1.75 0.2 -1.8 0.7 -1.85 1.25 -1.85 1.4 -1.85 2.05 -1.8" fill="#333333" fill-rule="evenodd" stroke="none"/>
    <path d="M1.55 -0.45 L1.6 -0.5 2.5 -0.5 2.9 -0.5 3.0 -0.5 3.05 -0.45 3.15 -0.4 3.25 -0.3 3.25 -0.15 3.2 -0.1 3.2 -0.05 3.15 -0.05 3.05 0.0 2.75 0.0 2.65 -0.05 2.6 -0.05 2.2 -0.05 2.05 -0.1 1.65 -0.1 1.55 -0.15 1.5 -0.15 1.5 -0.2 1.45 -0.25 1.45 -0.35 1.5 -0.4 1.5 -0.45 1.55 -0.45" fill="#333333" fill-rule="evenodd" stroke="none"/>
  </g>
</svg>
