<?xml version="1.0" encoding="UTF-8" standalone="no"?>
<svg xmlns:xlink="http://www.w3.org/1999/xlink" height="39.15px" width="30.7px" xmlns="http://www.w3.org/2000/svg">
  <g transform="matrix(1.0, 0.0, 0.0, 1.0, 15.55, 19.9)">
    <path d="M9.0 -12.4 L9.6 -12.0 10.35 -11.65 10.75 -11.25 11.1 -10.9 11.25 -10.5 11.5 -10.15 11.6 -9.75 11.6 -9.4 11.6 -9.0 11.6 -8.65 11.6 -8.4 12.0 -8.25 13.0 -8.0 13.45 -7.6 13.85 -7.25 14.0 -6.9 14.1 -6.5 14.25 -6.15 14.25 -5.75 14.25 -5.4 14.25 -5.0 14.25 -4.65 14.25 -3.9 14.25 -3.15 14.1 -2.75 13.85 -2.4 13.6 -2.0 13.25 -1.65 13.2 -1.25 13.1 -0.9 12.95 -0.5 12.7 -0.15 12.35 0.25 12.7 0.65 12.95 1.0 13.1 1.35 13.2 1.75 13.25 2.1 13.25 2.85 13.25 4.0 13.25 5.5 13.1 5.85 13.0 6.25 12.85 6.6 12.9 6.95 13.1 7.4 13.25 7.75 13.5 8.1 13.6 8.5 13.75 8.85 13.85 9.25 13.85 9.6 13.85 10.0 13.85 10.75 13.85 11.85 13.85 13.35 13.7 13.75 13.5 14.1 13.25 14.5 13.05 14.85 12.45 15.6 12.0 16.0 11.25 16.2 10.5 16.35 9.5 16.5 9.25 16.9 9.1 17.25 8.85 17.6 8.6 17.95 7.85 18.7 7.5 19.0 7.25 19.1 6.5 19.2 4.5 19.25 3.5 19.0 3.0 18.6 2.65 18.25 2.35 17.85 2.25 17.5 2.25 17.1 2.25 16.75 2.25 16.35 2.25 16.0 2.25 15.25 2.1 14.9 1.85 14.5 1.55 14.1 1.35 13.75 1.25 13.35 1.25 13.0 1.25 12.6 1.25 12.25 1.1 11.9 0.85 11.5 0.5 11.1 0.1 10.75 -0.65 10.0 -0.75 9.6 -0.85 9.25 -0.9 8.85 -1.0 8.5 -1.15 8.1 -1.25 7.75 -1.25 7.35 -1.25 6.6 -1.25 5.85 -1.3 4.35 -1.15 3.25 -1.0 2.9 -0.75 2.5 -0.5 2.1 -0.25 1.75 0.0 1.35 -0.2 1.0 -0.5 0.6 -0.9 0.25 -1.25 -0.15 -1.65 -0.5 -1.8 -0.85 -2.0 -1.25 -2.15 -1.65 -2.2 -2.0 -2.25 -2.75 -2.25 -3.9 -2.25 -5.4 -2.25 -6.5 -2.1 -6.85 -1.85 -7.25 -1.5 -7.65 -1.35 -8.0 -0.85 -8.7 0.05 -9.45 Q0.9 -10.0 1.85 -10.4 L2.2 -10.75 2.5 -11.1 2.85 -11.5 3.6 -11.9 4.1 -12.15 4.35 -12.25 5.0 -12.4 5.25 -12.5 6.0 -12.55 6.0 -12.65 8.0 -12.65 9.0 -12.4" fill="#663333" fill-opacity="0.101960786" fill-rule="evenodd" stroke="none"/>
    <path d="M0.5 -11.45 L1.25 -11.55 1.3 -11.65 3.1 -11.65 4.0 -11.4 4.55 -11.0 5.0 -10.65 5.8 -10.25 6.2 -9.9 6.9 -9.55 7.7 -9.1 8.3 -8.75 8.6 -8.4 8.9 -8.0 9.1 -7.65 9.2 -7.25 9.4 -6.9 9.5 -6.5 9.5 -6.15 9.5 -5.75 9.5 -5.4 9.5 -5.0 9.5 -4.65 9.5 -4.25 9.5 -3.9 9.7 -3.5 10.0 -3.15 10.1 -2.75 10.1 -2.4 10.1 -2.0 10.1 -1.65 10.1 -1.25 10.1 -0.9 10.0 -0.5 9.8 -0.15 9.5 0.25 9.05 0.6 8.5 1.0 8.0 1.25 7.1 1.5 7.7 1.9 8.15 2.25 8.85 3.0 9.1 3.35 9.4 3.75 9.5 4.1 9.7 4.5 9.8 4.85 9.8 6.0 9.8 7.85 9.9 10.5 9.7 13.5 9.2 14.2 8.15 15.45 7.05 16.45 5.2 17.85 4.3 17.95 -0.5 18.0 -1.7 17.75 -2.6 17.35 -3.4 17.0 -3.7 16.65 -4.15 16.25 -4.7 15.85 -5.0 15.5 -5.2 15.1 -5.3 14.75 -5.3 14.35 -5.3 14.0 -5.3 13.6 -5.1 13.25 -4.9 12.85 -4.75 12.5 -4.7 12.1 -4.7 11.75 -4.7 11.35 -4.7 11.0 -4.9 10.65 -5.2 10.25 -5.6 9.85 -5.8 9.5 -6.0 9.1 -6.2 8.75 -6.3 8.35 -6.4 7.25 -6.4 6.1 -6.4 5.0 -6.4 3.1 -6.2 2.75 -5.9 2.4 -5.0 1.6 -4.1 0.85 -3.7 0.5 -3.7 0.2 -4.1 -0.25 -4.9 -0.65 -5.25 -1.05 -5.5 -1.4 -5.55 -1.75 -5.6 -2.5 -5.6 -3.25 -5.6 -4.0 -5.6 -4.75 -5.6 -5.15 -5.5 -5.5 -5.3 -5.9 -5.2 -6.25 -5.0 -6.65 -4.7 -7.0 -4.3 -7.4 -3.8 -7.75 -3.6 -8.1 -3.4 -8.5 -3.2 -8.9 -2.8 -9.25 -2.1 -9.6 -1.3 -10.0 -0.9 -10.35 -0.5 -10.75 -0.1 -11.15 0.2 -11.4 0.5 -11.45" fill="#663333" fill-opacity="0.101960786" fill-rule="evenodd" stroke="none"/>
    <path d="M2.0 -7.0 L2.75 -6.6 3.35 -6.25 3.75 -5.9 4.1 -5.5 4.5 -5.15 4.85 -4.75 5.1 -4.35 5.45 -3.6 5.6 -3.25 5.7 -2.9 5.75 -2.15 5.75 -1.75 5.75 -1.0 5.7 0.15 5.6 0.85 5.45 1.25 5.25 1.65 5.1 2.0 4.85 2.35 4.75 2.6 4.75 2.7 5.5 3.0 5.95 3.4 6.35 3.75 6.5 4.1 6.6 4.5 6.75 4.85 6.75 5.25 6.75 6.0 6.75 6.35 6.75 7.1 6.9 8.25 7.25 9.35 7.25 9.75 7.25 10.1 7.25 10.5 7.25 10.85 7.1 11.25 6.85 11.6 6.6 12.0 6.1 12.35 5.5 12.75 5.25 13.15 5.1 13.5 4.85 13.85 4.65 14.25 4.45 14.6 4.25 15.0 4.1 15.35 4.0 15.75 3.75 16.1 3.2 16.45 2.75 16.75 1.6 17.0 1.25 17.35 0.85 17.7 0.5 18.0 0.25 18.1 -0.5 18.2 -3.0 18.25 -4.0 18.0 -4.75 17.6 -5.4 17.25 -5.75 16.85 -6.15 16.5 -6.5 16.1 -6.65 15.75 -6.75 15.35 -6.9 15.0 -7.0 14.6 -7.15 14.25 -7.25 13.85 -7.25 13.5 -7.25 13.1 -7.4 12.75 -7.65 12.35 -7.9 12.0 -8.0 11.6 -8.15 11.25 -8.25 10.85 -8.25 10.5 -8.25 10.1 -8.25 9.75 -8.25 9.35 -8.25 9.0 -8.25 8.25 -8.25 7.5 -8.3 7.15 -8.5 6.75 -8.65 6.35 -8.75 6.0 -8.75 5.6 -8.75 5.25 -8.75 4.85 -8.75 4.5 -8.75 4.1 -8.75 3.75 -8.65 3.35 -8.5 3.0 -8.4 2.6 -8.25 2.25 -8.25 1.85 -8.25 1.5 -8.25 1.1 -8.3 0.75 -8.5 0.35 -8.6 0.0 -8.65 -0.75 -8.6 -1.15 -8.55 -1.9 -8.5 -3.0 -8.4 -3.75 -8.25 -4.1 -7.85 -4.85 -7.6 -5.25 -7.25 -5.65 -6.5 -6.35 -6.0 -6.75 -5.0 -7.1 -4.25 -7.4 -3.5 -7.45 -3.5 -7.5 -0.5 -7.4 1.0 -7.25 2.0 -7.0" fill="#663333" fill-opacity="0.101960786" fill-rule="evenodd" stroke="none"/>
    <path d="M7.1 -18.65 L7.1 -18.55 7.2 -18.45 7.25 -18.35 7.3 -18.25 7.3 -18.15 7.3 -18.05 7.3 -18.0 7.3 -17.9 7.3 -17.8 7.3 -17.7 7.3 -17.6 7.3 -17.5 7.25 -17.4 7.2 -17.3 7.2 -17.25 7.25 -17.15 7.3 -17.05 7.35 -16.95 7.35 -16.85 7.35 -16.75 7.35 -16.65 7.35 -16.55 7.3 -16.5 7.3 -16.4 7.25 -16.3 7.2 -16.2 7.1 -16.1 7.0 -16.0 6.9 -15.9 6.75 -15.8 6.7 -15.75 6.7 -15.65 6.7 -15.55 6.65 -15.45 6.6 -15.35 6.55 -15.25 6.5 -15.15 6.35 -15.05 6.1 -15.0 4.4 -15.0 4.3 -14.95 3.25 -14.75 3.05 -14.7 0.85 -14.65 0.6 -14.75 0.45 -14.8 0.35 -14.9 0.3 -15.0 -3.25 -15.05 -3.45 -15.15 -3.6 -15.25 -3.65 -15.3 -3.7 -15.4 -3.8 -15.5 -3.8 -15.6 -3.85 -15.7 -3.85 -15.8 -3.85 -15.9 -3.8 -16.0 -3.7 -16.05 -3.6 -16.15 -3.0 -16.4 -2.7 -16.5 -2.4 -16.6 -2.2 -16.65 -2.3 -16.75 -2.4 -16.85 -2.45 -16.95 -2.55 -17.05 -2.6 -17.15 -2.65 -17.25 -2.7 -17.3 -2.7 -17.4 -2.7 -17.5 -2.7 -17.6 -2.7 -17.7 -2.7 -17.8 -2.7 -17.9 -2.7 -17.95 -1.35 -18.9 2.25 -19.85 4.5 -19.8 6.2 -19.5 6.75 -19.3 6.9 -19.2 6.95 -19.1 7.0 -19.0 7.05 -18.9 7.1 -18.8 7.1 -18.75 7.1 -18.65" fill="#663333" fill-opacity="0.2" fill-rule="evenodd" stroke="none"/>
    <path d="M3.2 -15.75 L2.2 -15.35 1.55 -15.25 1.2 -15.2 1.05 -15.1 0.9 -15.0 0.75 -14.9 0.6 -14.8 0.35 -14.75 -1.65 -14.8 -2.7 -15.0 -3.05 -15.15 -3.2 -15.15 -4.4 -15.6 -5.05 -15.95 -5.45 -16.35 -5.5 -16.45 -5.5 -16.65 -5.5 -16.8 -5.5 -16.9 -5.5 -17.0 -5.5 -17.1 -5.5 -17.2 -5.5 -17.4 -5.45 -17.45 -5.4 -17.55 -5.35 -17.65 -5.25 -17.75 -5.15 -17.85 -5.05 -17.95 -4.9 -18.05 -4.65 -18.1 -4.2 -18.15 -3.95 -18.25 -3.3 -18.45 -2.6 -18.6 -1.25 -18.8 1.25 -18.7 3.0 -18.5 3.25 -18.5 3.35 -18.4 3.55 -18.4 3.9 -18.3 4.3 -18.2 4.55 -18.15 5.1 -18.0 5.2 -17.9 5.3 -17.8 5.35 -17.75 5.45 -17.65 5.45 -17.55 5.5 -17.45 5.55 -17.35 5.55 -17.25 5.55 -17.15 5.55 -17.05 5.5 -16.95 5.1 -16.5 4.4 -16.1 3.4 -15.85 3.2 -15.75" fill="#663333" fill-opacity="0.2" fill-rule="evenodd" stroke="none"/>
    <path d="M-11.4 -16.15 L-10.65 -16.15 -10.45 -16.1 -10.35 -16.0 -10.3 -15.9 -10.25 -15.8 -10.25 -15.75 -10.3 -15.65 -10.3 -15.55 -10.3 -15.35 -10.3 -15.25 -10.3 -15.15 -10.35 -15.05 -10.4 -15.0 -10.45 -14.9 -10.5 -14.8 -10.7 -14.7 -10.9 -14.65 -11.15 -14.6 -11.5 -14.65 -11.75 -14.7 -11.9 -14.8 -12.05 -14.9 -12.1 -15.0 -12.1 -15.05 -12.1 -15.15 -12.1 -15.25 -12.05 -15.45 -12.05 -15.65 -12.0 -15.7 -11.9 -15.8 -11.8 -15.9 -11.65 -16.1 -11.4 -16.15" fill="#663333" fill-opacity="0.2" fill-rule="evenodd" stroke="none"/>
    <path d="M12.9 -16.1 L12.95 -16.0 13.0 -15.9 13.0 -15.8 13.0 -15.65 13.0 -15.55 12.95 -15.45 12.9 -15.35 12.85 -15.25 12.8 -15.2 11.85 -15.15 11.6 -15.2 11.55 -15.3 11.5 -15.4 11.45 -15.5 11.45 -15.55 11.45 -15.65 11.4 -15.75 11.4 -15.85 11.4 -15.95 11.45 -16.05 11.55 -16.15 11.6 -16.2 11.7 -16.2 11.9 -16.3 12.0 -16.4 12.15 -16.45 12.2 -16.55 12.35 -16.55 12.5 -16.5 12.55 -16.4 12.55 -16.3 12.6 -16.25 12.8 -16.2 12.9 -16.1" fill="#663333" fill-opacity="0.2" fill-rule="evenodd" stroke="none"/>
    <path d="M-4.8 -18.6 L-4.7 -18.5 -4.65 -18.4 -4.65 -18.3 -4.7 -18.3 -4.75 -18.25 -4.75 -18.15 -4.7 -18.05 -4.7 -18.0 -4.7 -17.9 -4.7 -17.8 -4.7 -17.7 -4.65 -17.6 -4.6 -17.55 -4.45 -17.4 -4.4 -17.3 -4.5 -17.3 -4.7 -17.3 -4.8 -17.25 -4.9 -17.25 -5.05 -17.2 -5.1 -17.1 -5.15 -17.0 -5.2 -16.9 -5.2 -16.8 -5.25 -16.75 -5.35 -16.65 -5.4 -16.55 -5.45 -16.55 -5.9 -16.5 -6.4 -16.5 -6.65 -16.55 -6.8 -16.65 -6.85 -16.75 -6.9 -16.75 -7.0 -16.8 -7.25 -16.85 -7.45 -16.95 -7.6 -17.05 -7.7 -17.15 -7.7 -17.25 -7.75 -17.3 -7.8 -17.4 -7.95 -17.5 -8.05 -17.6 -8.1 -17.7 -8.15 -17.8 -8.15 -17.9 -8.2 -18.0 -8.2 -18.05 -8.2 -18.15 -8.2 -18.25 -8.2 -18.35 -8.2 -18.45 -8.2 -18.55 -8.2 -18.65 -8.2 -18.75 -8.15 -18.8 -8.15 -18.9 -8.1 -19.0 -8.05 -19.1 -7.95 -19.2 -7.85 -19.3 -7.75 -19.4 -7.65 -19.5 -7.4 -19.5 -7.4 -19.55 -6.65 -19.5 -5.95 -19.4 -5.55 -19.25 -5.45 -19.15 -5.3 -19.05 -5.2 -18.95 -5.1 -18.9 -5.0 -18.8 -4.85 -18.7 -4.8 -18.6" fill="#ffffff" fill-opacity="0.2" fill-rule="evenodd" stroke="none"/>
    <path d="M-3.95 -19.15 L-3.9 -19.25 -3.8 -19.35 -3.7 -19.45 -3.6 -19.5 -3.4 -19.5 -3.4 -19.55 -1.75 -19.55 -1.5 -19.5 -1.4 -19.4 -1.3 -19.3 -1.3 -19.2 -1.25 -19.1 -1.2 -19.0 -1.25 -18.9 -1.3 -18.8 -1.3 -18.75 -1.4 -18.65 -1.5 -18.55 -1.75 -18.5 -2.45 -18.45 -2.25 -18.4 -2.05 -18.35 -1.95 -18.25 -1.9 -18.15 -1.9 -18.05 -1.95 -17.95 -1.95 -17.9 -1.95 -17.8 -1.9 -17.7 -1.9 -17.6 -1.95 -17.5 -1.95 -17.4 -1.95 -17.3 -1.95 -17.05 -1.95 -16.75 -1.95 -16.5 -2.0 -16.4 -2.15 -16.2 -2.55 -15.85 -2.75 -15.65 -2.9 -15.65 -4.25 -15.65 -4.5 -15.75 -4.8 -15.85 -5.15 -16.0 -5.35 -16.0 -5.5 -16.05 -5.9 -16.15 -6.05 -16.25 -6.2 -16.3 -6.4 -16.5 -6.55 -16.7 -6.55 -16.8 -6.55 -16.9 -6.55 -17.15 -6.55 -17.45 -6.55 -17.75 -6.5 -17.8 -6.35 -18.0 -6.0 -18.35 -5.7 -18.65 -5.55 -18.75 -3.95 -19.05 -3.95 -19.15" fill="#ffffff" fill-opacity="0.2" fill-rule="evenodd" stroke="none"/>
    <path d="M2.6 11.75 L6.6 11.75 6.8 11.85 7.1 11.9 7.3 11.95 7.7 12.05 7.85 12.15 7.9 12.25 7.95 12.35 8.0 12.45 8.0 12.5 8.0 12.6 8.0 12.7 7.95 12.8 7.9 12.9 7.85 13.0 7.7 13.1 7.45 13.15 7.25 13.25 6.7 13.3 6.6 13.35 6.55 13.4 3.6 13.45 3.35 13.5 2.2 13.75 1.45 13.8 1.2 13.9 1.05 13.95 0.85 14.0 0.55 14.05 0.35 14.15 0.3 14.25 0.3 14.35 0.3 15.0 0.3 15.95 0.3 16.4 0.3 16.6 0.3 16.7 0.3 17.05 0.25 17.5 0.25 17.6 0.2 17.7 0.15 17.8 0.05 17.85 0.0 17.9 -0.15 17.95 -0.4 17.85 -0.5 17.75 -0.55 17.7 -0.6 17.6 -0.6 17.5 -0.65 17.4 -0.7 17.3 -0.7 17.2 -0.7 16.1 -0.7 15.15 -0.7 14.95 -0.7 14.85 -0.7 14.3 -0.7 13.65 -0.7 12.7 -0.7 12.6 -0.65 12.5 -0.55 12.45 -0.45 12.35 -0.4 12.35 -0.25 12.3 -0.1 12.35 0.05 12.35 0.1 12.3 1.1 12.1 2.6 11.75" fill="#ffffff" fill-opacity="0.2" fill-rule="evenodd" stroke="none"/>
    <path d="M4.05 13.6 L4.2 13.7 4.3 13.75 4.35 13.85 4.4 13.95 4.45 14.05 4.45 14.15 4.45 14.25 4.45 14.35 4.45 14.45 4.45 14.5 4.45 14.6 4.45 14.7 4.45 14.8 4.35 14.9 4.3 15.0 4.15 15.1 4.0 15.2 3.85 15.25 3.75 15.35 3.6 15.35 3.1 15.45 2.95 15.5 2.85 15.6 2.75 15.6 2.6 15.65 2.0 15.65 1.75 15.6 1.55 15.5 1.45 15.4 1.4 15.3 1.35 15.2 1.35 15.1 1.35 15.0 1.35 14.95 1.35 14.85 1.35 14.75 1.35 14.65 1.4 14.55 1.5 14.45 1.7 14.25 1.85 14.1 1.9 14.0 1.95 13.9 2.15 13.7 2.45 13.55 2.6 13.55 2.6 13.5 3.85 13.5 4.05 13.6" fill="#ffffff" fill-opacity="0.2" fill-rule="evenodd" stroke="none"/>
    <path d="M3.2 13.85 L3.3 13.95 3.35 14.05 3.4 14.15 3.45 14.25 3.45 14.35 3.45 14.5 3.45 14.8 3.4 15.0 3.35 15.1 3.3 15.2 3.2 15.25 3.0 15.35 2.75 15.35 2.25 15.3 2.05 15.25 1.95 15.15 1.85 15.05 1.85 14.95 1.85 14.85 1.8 14.7 1.8 14.4 1.8 14.2 1.8 14.1 1.85 14.0 1.95 13.95 2.05 13.85 2.1 13.85 2.25 13.8 3.0 13.8 3.2 13.85" fill="#ffffff" fill-opacity="0.2" fill-rule="evenodd" stroke="none"/>
    <path d="M11.1 10.65 L13.05 10.6 13.15 10.5 14.0 10.4 14.0 10.35 14.05 10.25 14.1 10.15 14.2 10.1 14.35 10.05 14.55 10.1 14.65 10.2 14.75 10.3 14.85 10.4 14.95 10.6 15.0 10.7 15.0 10.75 15.0 10.85 15.0 10.95 15.0 11.05 14.95 11.15 14.9 11.25 14.85 11.35 14.7 11.45 14.5 11.5 13.55 11.55 13.45 11.6 11.25 11.7 9.6 11.8 9.55 11.85 9.2 11.95 8.35 12.0 3.2 12.55 3.0 12.6 2.05 12.65 0.7 12.75 0.5 12.8 0.25 12.85 -1.9 12.85 -2.15 12.75 -2.4 12.7 -3.65 12.5 -4.45 12.2 -8.9 12.4 -9.15 12.35 -9.3 12.25 -9.35 12.15 -9.4 12.05 -9.4 11.95 -9.4 11.85 -9.4 11.75 -9.35 11.7 -9.3 11.6 -13.15 11.5 -13.35 11.45 -13.4 11.35 -13.45 11.25 -13.45 11.2 -13.4 11.1 -13.35 11.0 -9.85 10.75 -9.8 10.65 -9.65 10.55 -9.4 10.5 -5.8 10.55 -5.4 10.6 5.35 10.4 5.55 10.45 5.7 10.5 8.25 10.4 8.45 10.45 8.6 10.55 9.75 10.7 10.85 10.7 11.1 10.65" fill="#663333" fill-opacity="0.101960786" fill-rule="evenodd" stroke="none"/>
    <path d="M8.0 -1.65 L8.25 -1.55 9.05 -1.3 9.5 -1.2 9.85 -1.05 10.1 -1.05 10.25 -1.0 10.75 -1.0 10.95 -0.9 11.1 -0.8 11.15 -0.75 11.2 -0.7 11.6 -0.6 11.85 -0.55 12.0 -0.45 12.1 -0.4 12.2 -0.3 12.2 -0.2 12.25 -0.1 12.3 0.0 12.25 0.1 12.2 0.2 12.2 0.25 12.1 0.35 12.0 0.45 11.75 0.5 11.6 0.5 11.1 0.4 10.4 0.25 9.6 -0.05 Q2.85 -0.35 -3.85 0.25 L-4.95 0.45 -5.1 0.55 -5.25 0.6 -5.4 0.55 -5.45 0.45 -5.45 0.35 -5.45 0.3 -5.35 0.2 -5.25 0.1 -5.3 0.0 -5.35 -0.1 -5.35 -0.2 -5.4 -0.3 -5.4 -0.4 -5.35 -0.45 -5.25 -0.55 -5.15 -0.65 -4.9 -0.7 -4.65 -0.8 -4.25 -0.85 -3.95 -0.95 -3.65 -1.0 -1.2 -1.4 1.75 -1.65 7.0 -1.65 8.0 -1.65" fill="#663333" fill-opacity="0.101960786" fill-rule="evenodd" stroke="none"/>
    <path d="M3.6 -3.75 L3.8 -3.7 3.95 -3.6 4.0 -3.55 4.05 -3.5 4.45 -3.4 4.8 -3.2 5.0 -3.05 5.05 -2.95 5.05 -2.85 5.05 -2.75 5.0 -2.65 4.95 -2.6 4.85 -2.5 4.75 -2.4 4.6 -2.4 -1.15 -2.55 -1.2 -2.65 -1.25 -2.75 -1.25 -2.85 -1.25 -2.95 -1.2 -3.05 -1.15 -3.15 -0.9 -3.2 -0.1 -3.3 -0.05 -3.4 0.05 -3.5 0.2 -3.55 0.35 -3.55 0.8 -3.65 1.05 -3.7 1.35 -3.8 2.0 -3.85 3.1 -3.8 3.6 -3.75" fill="#663333" fill-opacity="0.101960786" fill-rule="evenodd" stroke="none"/>
    <path d="M1.6 -18.65 L1.8 -18.55 1.85 -18.45 1.95 -18.4 1.95 -17.8 2.0 -17.05 2.0 -16.4 2.0 -16.35 2.1 -16.2 2.1 -16.15 2.2 -15.1 2.25 -14.0 2.2 -13.15 2.15 -13.05 2.1 -12.95 2.05 -12.1 2.05 -11.05 2.1 -10.3 2.1 -10.25 2.05 -10.15 2.05 -10.05 2.0 -9.95 2.0 -9.4 2.0 -8.65 2.0 -8.0 1.95 -7.9 1.95 -7.8 1.9 -7.7 1.85 -7.5 1.85 -7.4 1.85 -7.3 1.85 -7.15 1.85 -6.95 1.8 -6.85 1.8 -6.75 1.8 -6.55 1.8 -6.3 1.8 -6.0 1.8 -5.9 1.8 -5.85 2.0 -5.75 2.1 -5.65 2.2 -5.55 2.2 -5.45 2.3 -5.35 2.35 -2.9 2.4 -0.3 2.4 1.4 2.45 1.5 2.5 1.6 2.55 1.85 2.55 2.35 2.6 2.8 2.6 2.9 2.6 3.0 2.6 3.1 2.65 3.15 2.7 3.25 2.7 3.35 2.75 3.45 2.8 3.55 2.8 3.75 2.8 4.0 2.85 4.3 2.85 4.4 2.85 4.5 2.85 4.6 2.85 4.7 2.9 4.75 2.95 4.85 2.95 4.95 3.05 5.05 3.05 5.35 3.05 5.8 3.05 6.25 3.05 6.35 3.05 6.45 3.1 6.55 3.15 8.45 3.15 10.4 3.2 11.7 3.2 11.8 3.15 11.9 3.15 12.0 3.1 12.1 3.05 12.2 3.0 12.25 2.85 12.35 2.8 12.45 2.6 12.45 2.35 12.4 2.2 12.3 2.15 12.2 2.05 12.1 2.0 10.35 2.05 8.45 2.05 7.05 2.0 6.95 1.95 6.85 1.95 6.75 1.95 6.5 1.95 6.0 1.95 5.55 1.95 5.45 1.9 5.35 1.85 5.25 1.8 5.2 1.8 5.1 1.8 5.0 1.8 4.9 1.8 4.8 1.8 4.7 1.8 4.6 1.8 4.5 1.75 4.45 1.7 4.35 1.7 4.25 1.7 4.15 1.7 4.05 1.7 3.95 1.7 3.85 1.7 3.8 1.65 3.7 1.6 3.6 1.6 3.5 1.55 3.4 1.55 3.3 1.55 3.2 1.55 3.1 1.55 3.0 1.5 2.95 1.45 2.85 1.45 2.65 1.45 2.35 1.45 2.0 1.45 1.9 1.4 1.8 1.35 1.7 1.3 1.5 1.3 1.25 1.3 0.85 1.3 0.75 1.2 0.1 1.2 -0.65 1.2 -1.3 1.2 -1.4 1.15 -1.5 1.1 -1.55 1.05 -1.65 1.05 -1.75 1.05 -1.85 1.05 -1.95 1.0 -2.05 0.95 -2.15 0.95 -2.25 0.95 -2.3 0.95 -2.4 0.85 -2.5 0.8 -2.6 0.8 -2.7 0.75 -2.8 0.7 -4.1 0.7 -5.6 0.7 -6.75 0.75 -6.8 0.75 -6.9 0.8 -7.0 0.85 -7.1 0.85 -7.2 0.85 -7.4 0.85 -7.65 0.85 -7.85 0.95 -7.95 0.95 -8.05 1.0 -8.25 1.0 -8.5 1.0 -8.9 0.95 -9.0 0.95 -9.05 0.85 -9.15 0.85 -9.45 0.85 -9.9 0.85 -10.4 0.85 -10.5 0.9 -10.55 0.95 -10.65 1.0 -11.7 1.0 -12.8 1.05 -13.65 1.05 -13.75 1.1 -13.85 1.25 -13.95 1.3 -14.05 1.3 -14.5 1.3 -15.15 1.35 -15.75 1.3 -15.8 1.2 -15.9 1.15 -16.65 1.2 -17.6 1.2 -18.35 1.25 -18.45 1.35 -18.55 1.45 -18.6 1.6 -18.6 1.6 -18.65" fill="#663333" fill-opacity="0.101960786" fill-rule="evenodd" stroke="none"/>
    <path d="M7.4 -19.9 L7.55 -19.85 7.65 -19.8 7.7 -19.7 7.75 -19.65 7.7 -19.6 7.7 -19.5 7.7 -19.4 7.6 -19.35 7.5 -19.3 7.4 -19.25 7.35 -19.2 4.85 -19.15 4.7 -19.1 1.05 -18.95 -6.2 -19.15 -6.9 -19.3 -7.4 -19.4 -7.5 -19.45 -7.6 -19.55 -7.6 -19.65 -7.5 -19.75 -7.4 -19.8 -7.3 -19.8 -7.1 -19.85 -3.9 -19.5 0.8 -19.5 4.65 -19.75 4.8 -19.8 7.2 -19.9 7.4 -19.9" fill="#333333" fill-rule="evenodd" stroke="none"/>
    <path d="M-7.65 -19.7 L-7.6 -19.75 -7.55 -19.85 -7.5 -19.9 -7.4 -19.9 -7.25 -19.85 -7.2 -19.8 -7.15 -19.7 -7.2 -19.65 -7.2 -19.55 -7.25 -18.6 -7.2 -17.5 -7.2 -16.7 -7.25 -16.65 -7.3 -16.55 -7.35 -16.5 -7.5 -16.5 -7.65 -16.55 -7.75 -16.65 -7.8 -16.7 -7.8 -17.65 -7.75 -18.8 -7.75 -19.55 -7.7 -19.6 -7.65 -19.7" fill="#333333" fill-rule="evenodd" stroke="none"/>
    <path d="M-12.5 -17.1 L-11.75 -17.05 -11.0 -16.7 -10.4 -16.2 -10.4 -16.1 -10.4 -16.05 -10.4 -15.9 -10.4 -15.8 -10.4 -15.75 -10.4 -15.6 -10.4 -15.35 -10.4 -15.2 -10.4 -15.15 -10.45 -15.05 -10.45 -15.0 -10.55 -14.9 -10.6 -14.85 -10.7 -14.8 -10.8 -14.7 -10.9 -14.6 -11.0 -14.55 -11.2 -14.5 -11.9 -14.5 -12.05 -14.55 -12.25 -14.6 -12.45 -14.7 -12.65 -14.75 -12.75 -14.85 -12.8 -14.9 -12.9 -15.0 -12.95 -15.05 -13.0 -15.15 -13.0 -15.2 -13.05 -15.3 -13.05 -15.35 -13.05 -15.45 -13.05 -15.5 -13.05 -15.6 -13.05 -15.65 -13.05 -15.75 -13.05 -15.8 -13.05 -15.9 -13.05 -16.05 -13.05 -16.2 -13.0 -16.25 -13.0 -16.35 -12.95 -16.4 -12.95 -16.5 -12.9 -16.55 -12.85 -16.65 -12.85 -16.7 -12.8 -16.8 -12.75 -16.85 -12.75 -16.95 -12.6 -17.1 -12.5 -17.1 M-11.6 -16.35 L-12.15 -16.45 -12.25 -16.55 -12.35 -16.6 -12.35 -16.65 -12.4 -16.6 -12.4 -16.55 -12.45 -16.45 -12.45 -16.4 -12.45 -16.3 -12.45 -16.25 -12.5 -16.15 -12.5 -16.1 -12.55 -16.0 -12.55 -15.9 -12.55 -15.7 -12.5 -15.55 -12.5 -15.5 -12.45 -15.4 -12.45 -15.35 -12.35 -15.25 -12.0 -15.15 -11.9 -15.1 -11.2 -15.15 -11.1 -15.2 -11.0 -15.3 -11.0 -15.55 -11.0 -15.75 -11.0 -15.9 -11.05 -15.95 -11.1 -16.05 -11.15 -16.1 -11.45 -16.25 -11.6 -16.35" fill="#333333" fill-rule="evenodd" stroke="none"/>
    <path d="M13.3 -16.3 L13.3 -16.2 13.3 -16.1 13.3 -16.05 13.3 -15.95 13.25 -15.9 13.25 -15.8 13.2 -15.75 13.15 -15.6 13.15 -15.5 13.1 -15.45 13.05 -15.35 13.0 -15.3 12.85 -15.2 12.65 -15.15 12.45 -15.1 12.3 -15.0 11.7 -15.0 11.55 -15.1 11.4 -15.15 11.25 -15.2 11.15 -15.3 11.1 -15.35 11.0 -15.45 10.95 -15.5 10.85 -15.6 10.8 -15.65 10.8 -15.75 10.75 -15.85 10.75 -15.9 10.75 -16.05 10.75 -16.2 10.75 -16.35 10.8 -16.5 10.8 -16.55 10.85 -16.65 10.9 -16.7 11.0 -16.85 11.15 -16.95 11.25 -17.05 11.3 -17.05 11.45 -17.1 11.6 -17.15 11.8 -17.15 11.95 -17.2 12.1 -17.25 12.25 -17.2 12.45 -17.15 12.7 -17.05 12.85 -16.95 12.95 -16.85 13.05 -16.8 13.1 -16.7 13.2 -16.55 13.25 -16.5 13.25 -16.4 13.3 -16.35 13.3 -16.3 M12.7 -16.0 L12.7 -16.1 12.75 -16.15 12.6 -16.35 12.0 -16.75 11.9 -16.8 11.8 -16.8 11.65 -16.8 11.6 -16.8 11.5 -16.7 11.45 -16.65 11.3 -16.55 11.25 -16.5 11.25 -16.4 11.25 -16.3 11.25 -16.1 11.25 -15.95 11.3 -15.9 11.35 -15.85 11.4 -15.75 11.45 -15.7 11.5 -15.7 11.7 -15.6 12.35 -15.6 12.55 -15.7 12.65 -15.75 12.65 -15.85 12.7 -15.9 12.7 -16.0" fill="#333333" fill-rule="evenodd" stroke="none"/>
    <path d="M7.55 -19.85 L7.6 -19.8 7.65 -19.7 7.65 -19.65 7.65 -19.55 7.65 -19.5 7.65 -19.4 7.65 -19.35 7.65 -19.25 7.6 -19.2 7.6 -19.1 7.6 -19.05 7.6 -18.95 7.6 -18.9 7.6 -18.8 7.6 -18.75 7.55 -18.65 7.55 -18.6 7.5 -18.5 7.5 -18.45 7.5 -18.25 7.5 -17.9 7.5 -17.6 7.5 -17.5 7.65 -17.45 7.7 -17.35 7.75 -17.3 7.8 -17.2 7.8 -17.15 7.75 -17.05 7.7 -17.0 7.65 -16.85 7.65 -16.75 7.6 -16.7 7.6 -16.6 7.55 -16.55 7.5 -16.5 7.5 -16.4 7.4 -16.4 7.3 -16.35 7.15 -16.4 7.05 -16.5 7.0 -16.55 6.9 -16.65 6.9 -16.7 6.9 -17.3 6.9 -18.0 6.95 -18.6 6.95 -18.65 7.0 -18.75 7.0 -18.8 7.05 -18.9 7.05 -18.95 7.05 -19.05 7.05 -19.1 7.05 -19.2 7.1 -19.25 7.1 -19.35 7.15 -19.4 7.15 -19.5 7.15 -19.55 7.15 -19.65 7.2 -19.7 7.2 -19.8 7.25 -19.85 7.4 -19.9 7.55 -19.85" fill="#333333" fill-rule="evenodd" stroke="none"/>
    <path d="M-7.3 -16.75 L-7.2 -16.7 -7.15 -16.65 -7.15 -16.6 -7.15 -16.5 -7.2 -16.45 -7.35 -16.4 -8.6 -15.85 -9.15 -15.7 -9.25 -15.65 -9.4 -15.6 -9.8 -15.5 -10.4 -15.45 -10.6 -15.4 -10.75 -15.45 -10.8 -15.55 -10.85 -15.65 -10.85 -15.75 -10.8 -15.85 -10.7 -16.0 -10.6 -16.05 -10.2 -16.1 -9.75 -16.1 -9.2 -16.25 -8.85 -16.3 -7.85 -16.65 -7.4 -16.8 -7.3 -16.75" fill="#333333" fill-rule="evenodd" stroke="none"/>
    <path d="M-6.1 -15.6 L-5.0 -15.85 -4.35 -16.05 -4.3 -16.15 -4.2 -16.2 -4.15 -16.25 -4.1 -16.3 -4.0 -16.3 -3.8 -16.3 -3.65 -16.25 -3.55 -16.2 -3.5 -16.1 -3.45 -16.05 -3.45 -15.95 -3.5 -15.9 -3.5 -15.8 -3.55 -15.75 -3.6 -15.7 -3.6 -15.6 -3.7 -15.6 -3.8 -15.55 -4.0 -15.5 Q-5.0 -15.1 -6.05 -15.0 L-6.95 -14.8 -7.65 -14.5 -8.25 -14.2 -8.5 -14.15 -9.15 -13.95 -9.3 -13.85 -13.5 -14.35 -15.05 -14.65 -15.15 -14.75 -15.2 -14.8 -15.2 -14.85 -15.2 -14.95 -15.2 -15.05 -15.15 -15.1 -15.1 -15.15 -15.05 -15.2 -15.0 -15.25 -14.9 -15.3 -14.5 -15.35 -12.65 -15.25 -12.6 -15.2 -12.6 -15.1 -12.6 -15.05 -12.65 -15.0 -12.65 -14.95 -12.7 -14.9 -12.8 -14.85 -12.9 -14.85 -13.0 -14.8 -11.6 -14.65 -11.0 -14.55 -10.75 -14.5 Q-9.2 -14.35 -7.85 -15.1 L-7.7 -15.2 -6.1 -15.6" fill="#333333" fill-rule="evenodd" stroke="none"/>
    <path d="M1.7 -15.9 L1.75 -15.85 1.75 -15.75 1.7 -15.7 1.65 -15.65 1.6 -15.55 1.55 -15.5 1.5 -15.5 1.4 -15.45 -4.4 -15.9 -6.5 -16.5 -6.55 -16.55 -6.65 -16.6 -7.0 -16.6 -7.1 -16.65 -7.15 -16.75 -7.15 -16.8 -7.15 -16.9 -7.1 -16.95 -7.0 -16.95 -6.7 -16.95 -3.85 -16.25 1.2 -15.95 1.35 -16.0 1.5 -16.05 1.65 -16.0 1.7 -15.9" fill="#333333" fill-rule="evenodd" stroke="none"/>
    <path d="M3.7 -16.25 L3.8 -16.3 3.95 -16.25 4.2 -16.2 4.7 -16.35 5.6 -16.45 5.7 -16.5 6.4 -16.7 7.05 -17.0 7.1 -17.1 7.2 -17.15 7.3 -17.15 7.4 -17.15 7.55 -17.1 7.6 -17.05 7.65 -16.95 7.65 -16.9 7.65 -16.8 7.65 -16.75 7.55 -16.65 6.3 -16.2 5.9 -16.1 5.75 -16.05 4.6 -15.85 4.2 -15.75 3.9 -15.8 3.8 -15.85 3.7 -15.9 3.65 -16.0 3.6 -16.05 3.6 -16.15 3.7 -16.25" fill="#333333" fill-rule="evenodd" stroke="none"/>
    <path d="M2.05 -18.0 L2.1 -17.9 2.15 -17.85 2.15 -17.75 2.1 -17.7 2.1 -17.6 2.0 -17.55 1.9 -17.55 -3.2 -17.65 -5.3 -18.0 -6.3 -18.2 -6.95 -18.4 -7.2 -18.45 -7.35 -18.5 -7.35 -18.6 -7.35 -18.65 -7.3 -18.7 -7.3 -18.75 -7.2 -18.75 -6.9 -18.8 -6.75 -18.75 -6.65 -18.7 -6.6 -18.65 -6.5 -18.65 -6.4 -18.6 -1.85 -18.1 -1.6 -18.1 1.9 -18.05 2.05 -18.0" fill="#333333" fill-rule="evenodd" stroke="none"/>
    <path d="M6.6 -18.65 L7.1 -18.65 7.3 -18.6 7.4 -18.55 7.45 -18.45 7.45 -18.4 7.45 -18.3 7.4 -18.25 7.3 -18.15 6.75 -18.05 5.3 -17.75 4.55 -17.75 4.4 -17.7 4.3 -17.65 3.3 -17.7 2.9 -17.7 2.75 -17.75 2.65 -17.8 2.55 -17.9 2.65 -17.95 2.75 -18.05 2.9 -18.1 3.3 -18.1 4.4 -18.15 4.5 -18.2 4.6 -18.25 5.45 -18.3 5.6 -18.35 6.1 -18.45 6.35 -18.5 6.4 -18.55 6.45 -18.6 6.5 -18.65 6.6 -18.65" fill="#333333" fill-rule="evenodd" stroke="none"/>
    <path d="M4.7 -17.2 L4.6 -17.2 3.85 -17.3 3.85 -17.4 3.85 -17.45 3.9 -17.5 4.65 -17.65 5.45 -17.7 5.6 -17.8 5.7 -17.85 5.8 -17.85 6.25 -17.9 6.35 -17.9 6.45 -17.8 6.4 -17.75 6.3 -17.65 6.1 -17.6 6.0 -17.55 5.45 -17.4 5.3 -17.35 4.8 -17.25 4.7 -17.2" fill="#333333" fill-rule="evenodd" stroke="none"/>
    <path d="M4.65 -16.55 L4.55 -16.65 4.55 -16.7 4.6 -16.8 4.7 -16.85 5.4 -17.05 5.9 -17.2 6.1 -17.25 6.45 -17.25 6.55 -17.25 6.65 -17.25 6.7 -17.2 6.65 -17.1 6.55 -17.05 6.5 -17.0 6.4 -17.0 6.1 -16.9 6.0 -16.85 5.6 -16.75 5.2 -16.6 4.95 -16.6 4.65 -16.55" fill="#333333" fill-rule="evenodd" stroke="none"/>
    <path d="M14.65 -15.1 L14.7 -15.05 14.75 -14.95 14.8 -14.9 14.8 -14.8 14.8 -14.75 14.8 -14.65 14.75 -14.6 14.65 -14.5 14.5 -14.5 14.4 -14.45 14.25 -14.5 14.1 -14.55 14.0 -14.6 13.85 -14.6 Q12.6 -14.7 11.4 -15.1 L9.0 -15.8 8.15 -16.05 8.05 -16.1 7.95 -16.2 7.65 -16.3 7.35 -16.4 7.3 -16.5 7.25 -16.55 7.25 -16.6 7.25 -16.7 7.35 -16.75 7.4 -16.8 7.5 -16.85 7.7 -16.85 7.9 -16.8 8.1 -16.75 8.25 -16.65 8.35 -16.6 10.55 -15.95 14.0 -15.3 14.6 -15.2 14.65 -15.1" fill="#333333" fill-rule="evenodd" stroke="none"/>
    <path d="M-15.2 -14.75 L-15.15 -14.85 -15.15 -14.9 -15.1 -15.0 -15.1 -15.05 -15.1 -15.15 -15.1 -15.2 -15.05 -15.3 -15.0 -15.35 -14.9 -15.4 -14.75 -15.35 -14.7 -15.25 -14.7 -15.2 -14.7 -15.1 -14.7 -15.05 -14.65 -14.9 -14.7 -14.8 -14.7 -14.75 -14.75 -14.65 -14.75 -14.5 -14.75 -14.3 -14.7 -14.05 -14.9 -11.3 -14.75 -8.35 -14.45 -6.8 -14.25 -5.6 -13.95 -4.3 -13.7 -3.55 -13.7 -3.5 -13.7 -3.35 -13.7 -3.2 -13.7 -3.05 -13.65 -3.0 -13.6 -2.8 -13.5 -2.7 -13.45 -2.6 -13.45 -2.5 -13.4 -2.45 -13.35 -2.35 -13.35 -2.3 -13.35 -2.2 -13.3 -2.15 -13.25 -2.05 -13.25 -2.0 -13.2 -1.9 -13.15 -1.75 -13.15 -1.7 -13.1 -1.6 -13.05 -1.55 -13.05 -1.45 -13.05 -1.4 -13.0 -1.3 -13.05 -1.25 -13.05 -1.2 -13.1 -1.1 -13.15 -1.0 -13.2 -0.95 -13.3 -0.95 -13.4 -0.9 -13.55 -0.95 -13.65 -1.05 -13.75 -1.1 -13.8 -1.2 -13.85 -1.25 -13.9 -1.45 -13.95 -1.55 -13.95 -1.7 -14.0 -1.8 -14.05 -1.85 -14.05 -1.95 -14.05 -2.0 -14.1 -2.1 -14.15 -2.15 -14.15 -2.25 -14.2 -2.3 -14.2 -2.4 -14.25 -2.5 -14.3 -2.55 -14.35 -2.6 -14.35 -2.7 -14.4 -2.75 -14.45 -2.9 -14.45 -3.0 -14.45 -3.05 -14.45 -3.2 -14.45 -3.35 -14.45 -3.45 -14.5 -3.5 -14.55 -3.7 -14.55 -3.85 -14.55 -3.95 -15.3 -7.2 -15.55 -10.5 -15.5 -12.3 -15.45 -12.75 -15.4 -13.25 -15.4 -13.65 -15.35 -13.8 -15.35 -14.05 -15.25 -14.25 -15.25 -14.3 -15.25 -14.4 -15.25 -14.45 -15.25 -14.55 -15.25 -14.6 -15.25 -14.7 -15.2 -14.75" fill="#333333" fill-rule="evenodd" stroke="none"/>
    <path d="M-13.95 -0.65 L-13.9 -0.7 -13.9 -0.8 -13.85 -0.85 -13.85 -0.95 -13.8 -1.0 -13.8 -1.1 -13.75 -1.15 -13.7 -1.25 -13.65 -1.3 -13.5 -1.35 -13.3 -1.3 -13.2 -1.25 -13.15 -1.15 -13.15 -1.1 -13.15 -1.0 -13.2 -0.95 -13.25 -0.85 -13.3 -0.8 -13.3 -0.65 -13.35 -0.4 -13.4 -0.2 -13.5 4.3 -13.5 9.05 -13.55 12.95 -13.6 13.0 -13.6 13.1 -13.6 14.0 -13.6 15.1 -13.65 16.0 -13.7 16.05 -13.7 16.15 -13.7 16.3 -13.7 16.6 -13.7 16.9 -13.7 17.05 -13.7 17.15 -13.65 17.35 -13.6 17.55 -13.65 17.8 -13.7 17.85 -13.7 17.95 -13.8 18.05 -14.0 18.1 -14.15 18.05 -14.25 17.95 -14.35 17.85 -14.35 17.8 -14.4 17.75 -14.4 17.65 -14.45 17.6 -14.5 17.1 -14.45 16.55 -14.45 15.95 -14.45 15.85 -14.4 15.8 -14.35 14.9 -14.4 13.75 -14.35 12.85 -14.3 12.8 -14.25 12.7 -14.2 8.2 -14.15 3.5 -14.1 0.55 -14.1 0.5 -14.05 0.4 -14.05 0.35 -14.05 0.2 -14.05 -0.05 -14.0 -0.3 -14.0 -0.35 -13.95 -0.4 -13.95 -0.5 -13.95 -0.55 -13.95 -0.65" fill="#333333" fill-rule="evenodd" stroke="none"/>
    <path d="M1.7 -12.85 L1.7 -14.6 1.6 -15.65 1.6 -16.7 Q1.6 -17.55 1.95 -18.35 2.25 -18.75 2.1 -18.25 1.8 -16.9 1.95 -15.6 L2.1 -12.8 1.95 -5.9 Q1.9 -5.3 2.15 -4.7 L2.2 -4.55 2.25 -4.3 2.4 -3.55 2.55 -2.3 2.9 1.15 3.1 5.45 3.1 6.25 3.15 6.7 3.15 6.85 3.25 7.75 3.35 8.6 3.4 9.0 3.4 9.35 3.5 10.25 Q4.0 11.4 3.2 12.15 L2.95 11.85 3.05 10.45 2.9 8.85 2.8 7.95 2.7 6.55 2.6 4.7 2.6 3.15 Q2.6 2.25 2.25 1.55 L2.25 0.75 2.35 -1.1 2.2 -2.5 1.7 -4.4 Q1.4 -5.3 1.5 -6.4 L1.55 -7.95 1.55 -9.45 1.6 -11.0 1.7 -12.85" fill="#333333" fill-rule="evenodd" stroke="none"/>
    <path d="M3.8 8.2 L3.85 8.25 3.85 8.3 3.9 8.3 4.3 8.5 4.3 8.6 4.35 9.0 4.35 9.35 4.45 10.25 Q4.95 11.4 4.15 12.15 L3.9 11.85 4.0 10.45 3.85 8.85 3.8 8.15 3.8 8.2 M3.55 4.7 L3.6 4.75 3.6 4.8 3.8 4.85 3.95 4.85 4.05 4.85 4.05 5.45 4.05 6.25 4.1 6.7 4.1 6.85 4.15 7.05 3.95 7.1 3.8 7.25 3.7 7.4 3.65 6.55 3.55 4.7 M3.7 1.95 L3.9 1.95 4.0 3.6 3.9 3.65 3.85 3.65 3.8 3.7 3.7 3.75 3.6 3.85 3.55 3.9 3.55 3.15 3.25 1.65 3.3 1.7 3.35 1.75 3.45 1.85 3.45 1.9 3.7 1.95 M2.7 -4.35 L3.2 -4.3 3.35 -3.55 3.5 -2.3 3.8 0.45 3.7 0.45 3.6 0.5 3.5 0.55 3.45 0.6 3.3 0.75 3.2 0.85 3.2 0.95 3.2 0.75 3.3 -1.1 3.15 -2.5 2.7 -4.35 M2.5 -8.3 L2.6 -8.25 3.0 -8.15 2.9 -6.15 2.8 -6.15 2.7 -6.1 2.65 -6.1 2.6 -6.05 2.5 -5.95 2.45 -5.8 2.45 -6.4 2.5 -7.95 2.5 -8.3 M2.55 -11.0 L3.05 -11.0 3.05 -9.8 3.0 -9.85 2.95 -9.85 2.7 -9.85 2.65 -9.85 2.55 -9.8 2.55 -11.0 M2.9 -18.35 Q3.2 -18.75 3.05 -18.25 2.75 -16.9 2.9 -15.6 L3.05 -12.8 3.05 -12.55 3.0 -12.6 2.95 -12.6 2.85 -12.6 2.8 -12.6 2.7 -12.55 2.65 -12.5 2.65 -12.85 2.65 -14.6 2.55 -15.65 2.55 -16.7 Q2.55 -17.55 2.9 -18.35" fill="#333333" fill-rule="evenodd" stroke="none"/>
    <path d="M1.75 -12.7 L1.75 -12.8 1.75 -12.85 1.8 -12.95 1.9 -13.0 2.1 -13.1 2.2 -13.15 2.3 -13.15 2.6 -13.15 2.8 -13.1 3.1 -13.05 Q3.3 -12.95 3.45 -12.9 L3.6 -12.8 3.65 -12.75 3.75 -12.65 3.8 -12.6 3.85 -12.5 3.9 -12.45 3.95 -12.35 3.95 -12.3 4.0 -12.2 4.0 -12.15 4.0 -12.05 4.0 -12.0 4.0 -11.9 4.0 -11.75 4.0 -11.7 3.95 -11.6 3.95 -11.55 3.9 -11.45 3.9 -11.4 3.85 -11.35 3.8 -11.2 3.75 -11.1 3.65 -10.95 3.35 -10.75 3.25 -10.65 3.1 -10.65 2.3 -10.65 2.15 -10.7 2.1 -10.75 1.95 -10.95 1.9 -11.0 1.85 -11.05 1.75 -11.15 1.65 -11.3 1.65 -11.45 1.65 -11.65 1.65 -11.95 1.7 -12.4 1.75 -12.7 M2.7 -12.45 L2.5 -12.4 2.3 -12.35 2.15 -12.25 2.15 -12.1 2.15 -11.95 2.15 -11.8 2.15 -11.6 2.15 -11.5 2.2 -11.45 2.25 -11.4 2.3 -11.3 2.35 -11.2 2.7 -11.2 3.1 -11.2 3.2 -11.3 3.3 -11.35 3.35 -11.5 3.35 -11.7 3.4 -11.8 3.45 -12.1 3.4 -12.2 3.3 -12.25 3.25 -12.35 3.05 -12.4 2.85 -12.5 2.75 -12.5 2.7 -12.45" fill="#333333" fill-rule="evenodd" stroke="none"/>
    <path d="M3.65 -9.75 L4.05 -9.55 4.1 -9.45 4.15 -9.4 4.2 -9.3 4.2 -9.25 4.25 -9.15 4.25 -9.1 4.3 -9.0 4.25 -8.95 4.25 -8.85 4.25 -8.8 4.25 -8.7 4.2 -8.65 4.2 -8.55 4.15 -8.5 4.15 -8.4 4.1 -8.35 4.05 -8.25 4.0 -8.2 3.95 -8.15 3.85 -7.95 3.75 -7.9 3.65 -7.8 3.5 -7.75 3.45 -7.7 3.4 -7.7 3.3 -7.65 2.7 -7.65 2.55 -7.7 2.45 -7.75 2.25 -7.85 2.05 -7.9 2.0 -8.0 1.9 -8.05 1.85 -8.15 1.75 -8.3 1.7 -8.35 1.7 -8.45 1.7 -8.5 1.7 -8.65 1.7 -8.9 1.7 -9.05 1.7 -9.2 1.7 -9.25 1.7 -9.35 1.75 -9.4 1.85 -9.55 1.95 -9.65 1.95 -9.7 1.9 -9.8 1.9 -9.85 1.9 -9.95 1.9 -10.0 2.0 -10.1 2.1 -10.15 2.2 -10.15 2.3 -10.15 2.5 -10.15 3.05 -10.05 3.65 -9.75 M3.1 -9.45 L2.9 -9.5 2.6 -9.55 2.5 -9.55 2.4 -9.45 2.25 -9.3 2.15 -9.15 2.15 -9.0 2.15 -8.85 2.15 -8.7 2.15 -8.55 2.15 -8.5 2.2 -8.45 2.3 -8.35 2.4 -8.25 2.6 -8.2 3.3 -8.2 3.4 -8.25 3.5 -8.35 3.55 -8.4 3.6 -8.5 3.65 -8.55 3.65 -8.65 3.7 -8.7 3.7 -8.8 3.75 -8.85 3.7 -8.95 3.7 -9.0 3.65 -9.1 3.45 -9.25 3.2 -9.4 3.1 -9.45" fill="#333333" fill-rule="evenodd" stroke="none"/>
    <path d="M2.4 -6.45 L2.55 -6.5 2.7 -6.55 3.4 -6.6 3.55 -6.55 3.75 -6.4 4.0 -6.25 4.2 -6.1 4.3 -6.0 4.35 -5.95 4.4 -5.9 4.45 -5.8 4.45 -5.75 4.45 -5.65 4.5 -5.55 4.5 -5.45 4.5 -5.25 4.5 -5.1 4.5 -4.95 4.5 -4.75 4.45 -4.65 4.45 -4.6 4.4 -4.5 4.4 -4.45 4.35 -4.35 4.2 -4.25 4.05 -4.1 3.85 -3.95 2.9 -3.95 2.45 -4.1 2.15 -4.35 1.85 -4.65 1.6 -5.0 1.6 -5.05 1.55 -5.15 1.55 -5.3 1.55 -5.45 1.6 -5.6 1.6 -5.75 1.6 -5.8 1.7 -5.9 1.75 -5.95 1.9 -6.05 1.95 -6.1 2.05 -6.2 2.1 -6.25 2.2 -6.25 2.3 -6.3 2.3 -6.35 2.4 -6.45 M3.8 -5.65 L3.65 -5.75 3.55 -5.8 3.35 -5.95 2.65 -6.0 2.5 -6.0 2.4 -5.95 2.3 -5.9 2.2 -5.85 2.15 -5.75 2.1 -5.7 2.05 -5.6 2.05 -5.55 2.05 -5.45 2.05 -5.4 2.05 -5.3 2.2 -5.0 2.65 -4.6 2.9 -4.45 3.7 -4.5 3.8 -4.6 3.85 -4.65 3.9 -4.75 3.9 -4.8 3.95 -4.9 3.95 -4.95 3.95 -5.05 3.95 -5.1 3.95 -5.2 3.95 -5.25 3.9 -5.35 3.9 -5.4 3.85 -5.5 3.85 -5.55 3.8 -5.65" fill="#333333" fill-rule="evenodd" stroke="none"/>
    <path d="M5.2 1.15 L5.2 1.2 5.2 1.3 5.2 1.35 5.2 1.45 5.2 1.5 5.15 1.55 5.15 1.65 5.1 1.7 5.05 1.8 5.0 1.9 4.95 1.95 4.8 2.1 4.75 2.2 4.6 2.25 4.5 2.35 4.3 2.4 3.6 2.35 3.45 2.3 3.2 2.15 3.1 2.1 3.0 2.0 2.8 1.85 2.75 1.8 2.7 1.7 2.7 1.65 2.65 1.55 2.65 1.5 2.65 1.4 2.65 1.35 2.65 1.25 2.65 1.15 2.7 1.05 2.7 0.95 2.7 0.9 2.75 0.8 2.8 0.7 2.8 0.65 2.75 0.6 2.75 0.5 2.75 0.45 2.75 0.35 2.75 0.3 2.8 0.2 2.9 0.15 3.0 0.15 3.2 0.1 3.7 0.1 3.85 0.15 4.3 0.3 4.7 0.45 4.85 0.55 4.9 0.6 5.0 0.7 5.05 0.75 5.1 0.85 5.15 0.9 5.15 1.0 5.2 1.05 5.2 1.15 M3.95 0.85 L3.7 0.9 3.4 0.95 3.2 1.0 3.15 1.05 3.15 1.2 3.15 1.3 3.15 1.35 3.15 1.45 3.3 1.55 3.4 1.65 3.5 1.75 3.55 1.8 4.3 1.8 4.45 1.65 4.5 1.55 4.6 1.5 4.65 1.45 4.65 1.35 4.65 1.3 4.65 1.2 4.6 1.15 4.55 1.05 4.5 1.0 4.1 0.85 4.0 0.85 3.95 0.85" fill="#333333" fill-rule="evenodd" stroke="none"/>
    <path d="M5.3 4.55 L5.3 4.7 5.3 4.8 5.25 4.85 5.25 4.95 5.2 5.0 5.1 5.05 5.05 5.15 4.9 5.3 4.8 5.35 4.5 5.35 3.8 5.35 3.65 5.3 3.4 5.25 3.3 5.15 3.25 5.1 3.15 5.0 3.1 4.95 3.1 4.85 3.05 4.75 3.05 4.65 3.05 4.55 3.05 4.4 3.1 4.2 3.1 3.9 3.1 3.8 3.15 3.75 3.2 3.65 3.2 3.6 3.25 3.5 3.35 3.45 3.4 3.35 3.45 3.3 3.6 3.25 4.0 3.25 4.35 3.35 4.85 3.55 5.2 3.95 5.25 4.1 5.25 4.2 5.3 4.25 5.3 4.35 5.3 4.4 5.3 4.5 5.3 4.55 M4.7 4.4 L4.7 4.25 4.35 3.95 4.05 3.85 3.65 3.8 3.65 3.85 3.6 3.9 3.55 4.0 3.5 4.2 3.55 4.4 3.55 4.65 3.6 4.7 3.7 4.8 4.5 4.85 4.65 4.8 4.7 4.7 4.7 4.55 4.7 4.4" fill="#333333" fill-rule="evenodd" stroke="none"/>
    <path d="M4.7 6.75 L4.9 6.75 5.05 6.8 5.15 6.85 5.25 6.95 5.3 7.0 5.35 7.1 5.35 7.15 5.4 7.25 5.4 7.3 5.4 7.55 5.4 7.7 5.4 7.85 5.4 8.0 5.4 8.2 5.4 8.3 5.4 8.35 5.35 8.45 5.35 8.5 5.25 8.6 5.1 8.75 5.05 8.8 5.0 8.85 4.95 8.95 4.8 8.95 4.0 9.0 Q3.75 8.95 3.6 8.75 L3.45 8.6 3.3 8.5 3.2 8.35 3.15 8.1 3.15 7.95 3.15 7.8 3.15 7.65 3.15 7.35 3.2 7.15 3.2 7.05 3.3 6.9 3.35 6.85 3.4 6.75 3.5 6.7 3.55 6.6 3.6 6.55 3.7 6.5 4.0 6.55 4.25 6.65 4.6 6.75 4.7 6.75 M3.85 6.9 L3.8 7.0 3.75 7.05 3.7 7.15 3.65 7.2 3.65 7.35 3.65 7.5 3.65 7.75 3.65 8.05 3.65 8.1 3.75 8.2 3.85 8.25 4.0 8.4 4.65 8.4 4.7 8.3 4.75 8.2 4.8 8.15 4.8 8.0 4.8 7.85 4.8 7.65 4.8 7.35 4.75 7.3 4.7 7.25 4.6 7.25 4.5 7.2 4.4 7.15 4.35 7.1 4.15 7.0 4.2 6.95 4.35 6.9 4.3 6.85 4.2 6.8 4.1 6.85 4.0 6.85 3.85 6.9" fill="#333333" fill-rule="evenodd" stroke="none"/>
    <path d="M3.3 -1.5 L7.2 -1.55 7.3 -1.55 7.45 -1.5 7.8 -1.45 7.95 -1.4 8.4 -1.35 8.55 -1.3 8.6 -1.2 8.65 -1.15 8.65 -1.05 8.6 -1.0 8.6 -0.9 8.5 -0.85 8.4 -0.85 7.9 -0.85 7.75 -0.9 7.3 -0.95 7.15 -1.0 -1.7 -0.75 -1.9 -0.75 -2.25 -0.8 -2.3 -0.9 -2.3 -0.95 2.5 -1.45 2.7 -1.45 3.3 -1.5" fill="#333333" fill-rule="evenodd" stroke="none"/>
    <path d="M1.3 -2.25 L1.2 -2.25 1.1 -2.2 1.0 -2.25 0.9 -2.35 0.8 -2.45 0.75 -2.5 0.8 -2.55 0.9 -2.65 1.05 -2.6 1.2 -2.6 1.3 -2.6 3.7 -2.7 4.6 -2.7 4.75 -2.65 4.8 -2.6 4.8 -2.5 4.8 -2.45 4.75 -2.4 4.75 -2.35 4.7 -2.3 4.6 -2.25 1.4 -2.3 1.3 -2.25" fill="#333333" fill-rule="evenodd" stroke="none"/>
    <path d="M13.55 -9.3 Q13.65 -9.65 13.8 -9.5 L13.95 -8.6 14.1 -6.75 14.15 -2.25 13.65 -1.3 13.55 -0.55 13.6 0.1 13.75 0.4 13.9 1.05 13.95 1.5 14.0 2.1 Q14.7 4.15 14.75 6.45 L14.75 10.2 14.8 12.2 14.95 12.8 15.05 14.35 14.85 16.85 Q14.75 17.55 14.25 17.6 13.75 17.2 13.8 16.35 L13.85 14.9 13.7 12.95 13.65 11.65 13.7 9.85 13.75 8.0 13.65 6.15 13.5 4.25 13.2 2.25 13.05 1.25 12.75 -0.2 Q12.6 -1.4 13.0 -2.1 13.5 -2.95 13.4 -3.85 L13.4 -5.8 13.35 -7.8 13.55 -9.3" fill="#333333" fill-rule="evenodd" stroke="none"/>
    <path d="M6.3 18.3 L6.1 18.35 -0.7 18.3 -0.9 18.3 -6.6 18.25 -6.75 18.2 -9.1 18.15 -9.25 18.1 -10.8 18.05 -11.0 18.0 -11.15 17.95 -12.7 17.6 -12.9 17.55 -13.1 17.5 -13.45 17.4 -13.8 17.35 -13.95 17.35 -14.0 17.25 -14.05 17.15 -14.05 17.05 -14.0 16.95 -13.95 16.9 -13.8 16.85 -13.4 16.8 -11.4 17.2 -10.9 17.3 -9.3 17.35 -9.1 17.4 -6.8 17.45 -6.6 17.5 -0.85 17.6 -0.65 17.65 6.05 17.6 6.2 17.55 8.4 17.5 10.4 17.25 12.0 17.2 14.6 16.7 14.65 16.65 14.8 16.6 14.95 16.65 15.05 16.7 15.05 16.75 15.1 16.85 15.15 16.95 15.15 17.0 15.15 17.1 15.1 17.15 15.05 17.25 15.0 17.3 14.9 17.35 14.85 17.45 13.55 17.7 13.45 17.75 11.9 17.95 10.3 18.0 8.3 18.25 6.3 18.3" fill="#333333" fill-rule="evenodd" stroke="none"/>
    <path d="M11.5 11.9 L10.7 12.0 7.6 12.4 6.6 12.35 -1.2 12.45 -1.35 12.4 -11.65 11.85 -12.6 11.65 -13.5 11.6 -13.6 11.55 -13.65 11.45 -13.65 11.4 -13.5 11.2 -12.7 11.2 -12.6 11.25 -12.5 11.25 -12.4 11.3 -12.3 11.3 -7.05 11.8 -6.75 11.8 -1.5 11.85 -1.3 11.9 6.7 11.85 7.0 11.85 10.75 11.4 14.05 10.8 14.1 10.7 14.2 10.65 14.3 10.65 14.45 10.7 14.5 10.75 14.55 10.85 14.55 10.9 14.6 11.0 14.6 11.05 14.55 11.15 14.5 11.2 14.4 11.25 14.3 11.3 14.25 11.35 13.55 11.45 11.65 11.85 11.5 11.9" fill="#333333" fill-rule="evenodd" stroke="none"/>
    <path d="M-1.3 12.2 L-1.25 12.1 -1.15 12.05 -1.1 12.05 -1.0 12.0 -0.85 12.05 -0.8 12.15 -0.7 12.2 -0.65 12.25 -0.6 12.35 -0.6 12.45 -0.55 12.55 -0.5 12.8 -0.45 12.95 -0.4 14.4 -0.4 15.95 -0.35 17.1 -0.35 17.15 -0.3 17.25 -0.25 17.3 -0.2 17.35 -0.15 17.45 -0.05 17.6 -0.05 17.7 -0.05 17.75 -0.05 17.85 -0.15 17.9 -0.2 17.95 -0.25 18.05 -0.4 18.05 -0.5 18.05 -0.65 18.0 -0.75 17.95 -0.8 17.85 -0.85 17.8 -0.95 17.6 -1.05 17.5 -1.0 16.0 -1.0 14.25 -0.95 13.15 -0.95 13.05 -1.0 13.0 -1.0 12.9 -1.05 12.85 -1.05 12.75 -1.05 12.7 -1.05 12.6 -1.05 12.55 -1.1 12.45 -1.1 12.4 -1.25 12.35 -1.3 12.25 -1.3 12.2" fill="#333333" fill-rule="evenodd" stroke="none"/>
    <path d="M7.65 12.2 L7.7 12.3 7.75 12.35 7.75 12.5 7.75 12.75 7.8 12.95 7.85 13.0 7.9 13.1 7.9 13.2 7.9 13.25 7.9 13.4 7.9 13.55 7.95 13.7 8.0 13.95 8.1 14.15 8.1 14.25 8.1 14.9 8.15 15.65 8.1 16.35 8.05 16.4 8.05 16.5 8.0 16.55 8.0 16.65 7.95 16.7 7.95 16.8 7.9 16.85 7.9 16.9 7.85 17.0 7.85 17.15 7.85 17.35 7.8 17.6 7.75 17.65 7.7 17.75 7.65 17.8 7.5 17.85 7.35 17.8 7.25 17.7 7.2 17.65 7.15 17.4 7.2 17.1 7.2 16.8 7.2 16.75 7.2 16.65 7.25 16.55 7.35 16.45 7.4 16.35 7.4 16.3 7.45 16.2 7.45 16.15 7.5 16.05 7.45 15.55 7.5 14.9 7.5 14.4 7.45 14.25 7.4 14.0 7.35 13.8 7.3 13.75 7.3 13.65 7.3 13.5 7.3 13.35 7.3 13.2 7.3 13.15 7.25 13.05 7.25 13.0 7.25 12.9 7.25 12.75 7.25 12.55 7.25 12.4 7.25 12.3 7.35 12.25 7.4 12.2 7.5 12.15 7.65 12.2" fill="#333333" fill-rule="evenodd" stroke="none"/>
    <path d="M2.85 13.75 L2.85 13.85 2.9 13.9 2.85 13.95 2.85 14.05 2.7 14.1 1.95 14.15 1.85 14.25 1.8 14.3 1.8 14.4 1.75 14.45 1.7 14.55 1.7 14.65 1.7 14.75 1.7 14.85 1.65 14.9 1.6 14.95 1.5 15.0 1.4 14.95 1.35 14.85 1.3 14.75 1.3 14.7 1.3 14.55 1.3 14.4 1.3 14.35 1.35 14.25 1.45 14.1 1.5 14.05 1.6 13.95 1.65 13.9 1.85 13.75 1.9 13.75 2.0 13.7 2.7 13.7 2.85 13.75" fill="#333333" fill-rule="evenodd" stroke="none"/>
    <path d="M5.5 13.75 L5.65 13.8 5.65 13.85 5.65 13.95 5.7 14.0 5.75 14.1 5.8 14.15 5.8 14.25 5.8 14.3 5.8 14.4 5.8 14.45 5.85 14.5 5.9 14.6 5.95 14.9 5.95 15.3 5.95 15.65 5.95 15.75 5.9 15.8 5.8 15.95 5.75 16.0 5.7 16.1 4.6 16.55 4.2 16.7 1.9 16.9 1.75 16.85 1.65 16.75 1.6 16.7 1.55 16.6 1.55 16.55 1.55 16.45 1.65 16.4 3.0 16.3 3.55 16.15 4.3 16.15 5.2 15.8 5.45 15.75 5.5 15.65 5.5 15.45 5.45 15.2 5.5 14.9 5.5 14.85 5.5 14.75 5.45 14.65 5.45 14.6 5.4 14.5 5.4 14.4 5.4 14.3 5.35 14.25 5.3 14.15 5.25 14.15 5.25 14.05 5.25 14.0 5.25 13.9 5.3 13.85 5.35 13.8 5.4 13.75 5.5 13.75" fill="#333333" fill-rule="evenodd" stroke="none"/>
    <path d="M-12.2 7.5 L-12.15 7.55 -12.15 7.6 -12.2 7.7 -12.25 7.8 -12.3 7.8 -12.55 7.8 -14.0 7.8 -14.1 7.75 -14.1 7.65 -14.05 7.6 -14.0 7.5 -13.9 7.45 -13.7 7.45 -13.1 7.4 -12.8 7.4 -12.3 7.45 -12.2 7.5" fill="#333333" fill-rule="evenodd" stroke="none"/>
    <path d="M-11.95 8.35 L-11.95 8.45 -11.9 8.5 -11.95 8.55 -11.95 8.65 -12.1 8.7 -13.0 8.7 -13.45 8.75 -13.6 8.75 -13.7 8.8 -13.8 8.75 -13.9 8.65 -13.9 8.55 -13.8 8.45 -13.65 8.35 -13.55 8.35 -13.5 8.3 -13.4 8.3 -13.0 8.3 -12.1 8.3 -11.95 8.35" fill="#333333" fill-rule="evenodd" stroke="none"/>
    <path d="M13.05 8.1 L13.05 8.2 13.05 8.25 13.0 8.3 12.9 8.4 12.75 8.3 12.6 8.25 12.5 8.2 12.45 8.1 12.4 8.1 12.3 8.1 12.2 8.05 12.1 8.0 11.95 8.0 11.85 7.9 11.75 7.85 11.6 7.8 11.5 7.75 11.4 7.7 11.25 7.7 11.15 7.6 11.1 7.55 11.0 7.55 10.9 7.5 10.8 7.45 10.7 7.35 10.7 7.25 10.8 7.15 10.9 7.1 11.1 7.1 11.25 7.15 11.5 7.25 11.7 7.35 11.95 7.45 12.2 7.55 12.4 7.65 12.65 7.75 12.75 7.8 12.9 7.9 12.95 7.95 13.0 8.05 13.05 8.1" fill="#333333" fill-rule="evenodd" stroke="none"/>
    <path d="M10.5 8.15 L11.0 8.25 11.5 8.35 11.9 8.4 12.05 8.45 12.3 8.55 12.4 8.65 12.45 8.75 12.55 8.85 12.4 8.9 12.25 8.95 12.05 8.85 11.3 8.75 10.8 8.6 10.55 8.5 10.45 8.5 10.2 8.45 10.05 8.4 10.0 8.3 10.0 8.25 10.05 8.2 10.1 8.2 10.2 8.15 10.5 8.15" fill="#333333" fill-rule="evenodd" stroke="none"/>
    <path d="M12.4 10.5 L12.3 10.5 11.75 10.3 11.3 10.15 10.8 9.95 10.6 9.9 10.35 9.9 10.3 9.8 10.35 9.75 10.6 9.7 10.8 9.7 10.9 9.7 11.25 9.8 11.75 9.9 12.15 10.05 12.4 10.15 12.45 10.2 12.55 10.3 12.6 10.35 12.6 10.4 12.55 10.5 12.5 10.5 12.4 10.5" fill="#333333" fill-rule="evenodd" stroke="none"/>
  </g>
</svg>
