<?xml version="1.0" encoding="UTF-8" standalone="no"?>
<svg xmlns:xlink="http://www.w3.org/1999/xlink" height="40.7px" width="35.0px" xmlns="http://www.w3.org/2000/svg">
  <g transform="matrix(1.0, 0.0, 0.0, 1.0, 17.55, 15.9)">
    <path d="M2.15 -12.95 L4.7 -12.8 5.0 -12.7 5.45 -12.7 6.85 -12.95 Q9.75 -12.35 12.4 -11.4 L12.85 -11.2 14.35 -10.8 17.0 -10.45 17.4 -10.2 17.45 -10.05 17.4 -9.8 17.3 -9.55 17.1 -9.35 17.0 -9.2 16.9 -9.1 16.9 -9.0 16.8 -8.9 16.65 -8.8 Q15.6 -8.3 15.2 -7.05 L15.05 -6.6 14.8 -6.05 14.6 -5.55 14.55 -5.3 14.55 -5.1 14.6 -4.65 14.85 -0.5 15.05 1.45 15.45 4.45 15.6 5.4 15.45 6.15 15.35 6.35 15.6 8.05 15.7 8.45 Q16.2 10.05 16.15 11.6 L16.0 13.1 16.0 13.35 16.0 13.55 15.75 13.95 15.6 15.05 15.35 15.25 15.05 15.35 11.05 15.9 4.6 16.15 -6.15 16.05 -12.55 15.85 -15.4 15.6 -15.65 15.4 Q-15.6 13.65 -15.85 11.95 L-15.8 10.15 -15.65 8.75 -15.55 8.35 -15.45 7.55 -15.4 7.25 -15.35 7.05 -15.0 6.8 Q-15.1 2.3 -14.8 -2.3 L-14.35 -4.45 -14.25 -4.95 -14.35 -5.7 -14.55 -6.25 -14.65 -6.8 -14.65 -7.1 -14.9 -7.5 -15.15 -7.85 -15.45 -8.35 Q-15.7 -8.9 -16.2 -9.05 L-16.8 -9.55 -17.0 -9.8 -17.05 -10.0 Q-16.7 -10.6 -15.95 -10.3 L-14.95 -10.5 -13.6 -10.8 -11.95 -11.35 -8.6 -12.2 -7.75 -12.55 -4.45 -13.05 -0.75 -13.1 2.15 -12.95" fill="#d76c53" fill-rule="evenodd" stroke="none"/>
    <path d="M1.5 22.3 L1.45 22.35 Q-2.0 22.65 -5.4 22.45 L-9.75 22.1 -9.85 22.0 -12.3 21.95 -12.35 21.95 -13.35 21.9 -13.6 21.85 -13.7 21.75 -15.0 21.75 -15.25 21.65 -15.5 21.6 -15.65 21.5 -15.7 21.4 -15.75 21.3 -15.75 21.2 -15.75 21.1 -15.75 21.0 -15.75 20.95 -15.8 20.85 -15.85 20.75 -15.9 20.65 -15.95 20.55 -16.0 20.45 -16.0 20.35 -16.05 20.25 -16.05 20.2 -16.05 19.45 -16.05 18.5 -16.05 17.55 -16.1 17.45 -16.2 17.35 -16.2 17.2 -16.25 16.8 -16.2 16.45 -16.2 16.25 -16.15 16.15 -16.05 16.05 -16.0 16.0 Q-14.1 15.8 -12.25 15.95 L-5.85 16.25 -2.35 16.5 Q2.0 17.0 6.3 16.7 L12.95 16.15 14.2 16.0 14.4 15.95 15.2 15.85 15.35 15.8 15.5 15.75 15.85 15.7 15.95 15.6 16.1 15.55 16.25 15.55 16.25 15.5 16.45 15.6 16.6 15.7 16.65 15.8 16.7 15.85 16.7 15.95 16.7 16.05 16.7 16.15 16.7 16.25 16.65 16.35 16.6 16.45 16.6 16.5 16.55 16.6 16.5 16.7 16.45 16.8 16.45 16.9 16.4 17.0 16.4 17.1 16.35 17.2 16.4 18.4 16.4 19.9 16.35 21.0 16.35 21.1 16.25 21.2 16.2 21.3 16.0 21.4 15.95 21.5 15.95 21.6 15.9 21.7 15.8 21.75 15.75 21.85 15.7 21.85 15.5 21.9 15.25 21.85 15.1 21.75 11.95 21.75 2.45 22.25 1.5 22.3" fill="#ffffff" fill-rule="evenodd" stroke="none"/>
    <path d="M2.1 -13.9 L2.3 -13.85 2.4 -13.8 2.5 -13.8 3.3 -13.85 4.65 -13.95 4.8 -13.95 5.7 -13.95 5.9 -13.9 6.1 -13.9 6.3 -14.05 6.45 -14.1 6.6 -14.15 6.75 -14.2 6.8 -14.2 6.9 -14.25 7.0 -14.25 7.2 -14.2 7.25 -14.1 7.3 -14.05 7.35 -13.95 7.35 -13.9 7.35 -13.8 7.3 -13.75 7.25 -13.65 7.2 -13.6 7.1 -13.5 7.1 -13.45 7.05 -13.4 7.0 -13.3 7.0 -13.2 6.95 -13.1 6.9 -13.0 6.85 -12.95 6.8 -12.85 6.7 -12.8 6.6 -12.7 6.3 -12.55 6.15 -12.5 6.05 -12.4 5.95 -12.35 5.9 -12.25 4.8 -12.15 -0.8 -12.1 -3.1 -12.25 -4.25 -12.4 -5.4 -12.65 -5.55 -12.7 -5.6 -12.8 -5.75 -12.85 -6.0 -12.95 -6.15 -12.95 -6.3 -13.05 -6.4 -13.1 -6.5 -13.2 -6.55 -13.25 -6.65 -13.35 -6.7 -13.4 -6.75 -13.5 -6.75 -13.55 -6.75 -13.65 -6.75 -13.7 -6.75 -13.8 -6.75 -13.85 -6.75 -13.95 -6.75 -14.05 -6.75 -14.15 -6.75 -14.25 -6.7 -14.3 -6.6 -14.4 -6.5 -14.45 -6.4 -14.45 -6.3 -14.45 -5.5 -14.35 -5.3 -14.35 -4.7 -14.2 -1.25 -14.0 1.9 -13.95 2.1 -13.9" fill="#6c6960" fill-rule="evenodd" stroke="none"/>
    <path d="M0.55 -15.2 L0.6 -15.1 0.9 -9.3 0.9 -3.4 0.9 2.6 0.9 8.55 0.85 14.55 0.85 15.65 0.85 15.75 0.8 15.85 0.8 15.95 0.8 16.05 0.8 16.1 0.8 16.2 0.75 16.3 0.7 16.4 0.55 16.5 0.35 16.55 0.1 16.5 0.0 16.4 -0.1 16.3 -0.1 16.2 -0.15 16.1 -0.15 16.05 -0.15 15.95 -0.15 15.85 -0.2 15.75 -0.25 9.95 -0.2 4.05 -0.2 -1.95 -0.2 -7.9 -0.05 -13.85 0.0 -15.0 0.05 -15.1 0.1 -15.2 0.35 -15.25 0.55 -15.2" fill="#f0c270" fill-rule="evenodd" stroke="none"/>
    <path d="M0.0 -13.9 L-0.15 -13.95 -0.65 -14.0 -1.5 -13.95 -1.6 -13.9 -1.75 -13.9 -3.3 -13.9 -3.75 -13.95 -3.95 -14.0 -4.25 -14.05 -4.4 -14.05 -4.5 -14.1 -5.4 -14.15 -5.65 -14.2 -5.75 -14.3 -5.95 -14.35 -6.05 -14.45 -6.15 -14.55 -7.25 -14.65 -7.4 -14.7 -7.5 -14.8 -7.5 -14.9 -7.5 -15.0 -7.4 -15.1 -7.25 -15.15 -6.75 -15.15 -6.75 -15.2 -5.0 -15.2 -4.8 -15.15 -4.7 -15.05 -3.0 -15.05 -2.75 -14.95 -2.55 -14.9 -1.9 -14.85 -1.65 -14.8 4.1 -14.85 4.2 -14.85 4.65 -15.0 4.85 -15.0 6.1 -15.1 6.2 -15.1 7.5 -15.15 7.7 -15.1 7.8 -15.0 7.85 -14.9 7.9 -14.8 7.9 -14.7 7.85 -14.65 7.85 -14.55 7.75 -14.45 7.65 -14.4 7.5 -14.35 6.45 -14.3 6.4 -14.3 4.9 -14.2 4.75 -14.15 4.35 -14.05 4.25 -14.05 3.3 -13.95 3.15 -13.9 3.0 -13.85 0.25 -13.85 0.0 -13.9" fill="#f0c270" fill-rule="evenodd" stroke="none"/>
    <path d="M2.5 16.7 L3.9 16.75 4.1 16.8 4.25 16.9 4.3 17.0 4.35 17.1 4.4 17.2 4.4 17.25 4.4 17.35 4.4 17.45 4.4 17.55 4.4 17.65 4.35 17.75 4.35 17.85 4.3 17.9 4.2 18.0 4.05 18.1 4.0 18.2 4.0 18.3 4.0 18.6 4.0 18.7 4.0 18.75 4.0 18.95 4.0 19.05 4.0 19.35 4.0 19.6 4.0 19.7 4.1 19.8 4.25 19.9 4.3 20.0 4.35 20.1 4.4 20.2 4.4 20.25 4.4 20.35 4.4 20.45 4.4 20.55 4.35 20.65 4.3 20.75 4.25 20.85 4.1 20.95 4.0 21.0 4.0 21.1 4.0 21.3 4.0 21.5 4.0 21.6 4.0 21.75 4.0 21.85 4.0 22.05 3.95 22.15 3.9 22.25 3.85 22.35 3.7 22.45 3.5 22.5 3.3 22.45 3.25 22.45 -3.85 22.4 -4.1 22.35 -4.25 22.25 -4.3 22.15 -4.3 22.05 -4.35 21.95 -4.35 21.85 -4.35 21.75 -4.35 21.7 -4.35 21.6 -4.35 21.5 -4.35 21.4 -4.4 21.3 -4.5 21.2 -4.5 21.1 -4.5 20.75 -4.5 20.55 -4.5 20.45 -4.5 20.35 -4.5 20.0 -4.5 19.25 -4.5 19.05 -4.55 18.95 -4.6 18.85 -4.65 18.75 -4.75 18.7 -4.75 18.6 -4.75 18.5 -4.75 18.4 -4.75 18.3 -4.75 18.2 -4.75 18.1 -4.7 18.05 -4.65 17.95 -4.6 17.85 -4.5 17.75 -4.5 17.65 -4.5 17.55 -4.5 17.45 -4.5 17.35 -4.5 17.25 -4.45 17.2 -4.4 17.1 -4.3 17.0 -4.2 16.9 -4.1 16.8 -3.85 16.75 -3.75 16.75 -1.25 16.7 -1.2 16.6 -1.1 16.55 -1.05 16.55 -0.85 16.5 1.0 16.6 2.5 16.7 M2.65 21.25 L2.3 21.3 2.2 21.35 2.9 21.25 2.9 21.2 2.65 21.25" fill="#f0c270" fill-rule="evenodd" stroke="none"/>
    <path d="M-8.6 -12.5 L-8.5 -12.5 -8.35 -12.45 -8.25 -12.35 -8.15 -12.35 -7.95 -12.4 -7.8 -12.45 -7.65 -12.55 -7.4 -12.65 -7.3 -12.7 -7.15 -12.75 -7.0 -12.8 -6.8 -12.8 -6.65 -12.75 -6.6 -12.65 -6.55 -12.6 -6.5 -12.5 -6.5 -12.45 -6.55 -12.35 -6.55 -12.3 -6.7 -12.25 -6.95 -12.05 -7.3 -11.85 -7.5 -11.75 -7.6 -11.7 -7.65 -11.7 -7.75 -11.65 -7.85 -11.65 -8.05 -11.6 -8.15 -11.5 -8.3 -11.45 -8.35 -11.4 -9.5 -11.05 -10.5 -10.75 -11.0 -10.55 -12.15 -10.3 -14.9 -10.1 -15.05 -10.15 -15.1 -10.25 -15.15 -10.35 -15.15 -10.45 -15.1 -10.55 -15.05 -10.6 -14.55 -10.8 -13.85 -10.9 -13.75 -10.95 -13.7 -10.95 -11.45 -11.35 -10.55 -11.65 -9.15 -12.15 -9.05 -12.2 -8.95 -12.3 -8.75 -12.45 -8.6 -12.5" fill="#6c6960" fill-rule="evenodd" stroke="none"/>
    <path d="M9.7 -10.85 L9.6 -10.9 9.5 -10.95 9.35 -10.95 9.25 -11.05 8.95 -11.2 8.45 -11.5 8.15 -11.6 8.0 -11.65 7.85 -11.7 7.55 -11.8 7.5 -11.9 7.45 -11.95 7.4 -12.0 7.3 -12.0 7.2 -12.05 7.15 -12.1 7.15 -12.2 7.2 -12.25 7.25 -12.3 7.3 -12.35 7.5 -12.35 7.8 -12.35 8.65 -12.15 9.7 -11.75 10.5 -11.45 Q11.15 -11.15 11.9 -11.1 L13.5 -10.85 13.75 -10.8 15.1 -10.8 15.25 -10.75 15.3 -10.65 15.4 -10.6 15.45 -10.5 15.45 -10.45 15.5 -10.35 15.5 -10.3 15.5 -10.2 15.5 -10.15 15.4 -10.1 15.4 -10.0 15.3 -10.0 15.0 -10.0 14.6 -10.0 14.0 -10.1 13.25 -10.2 13.2 -10.15 13.15 -10.05 13.1 -10.0 13.1 -9.95 11.85 -10.0 11.1 -10.25 Q10.4 -10.5 9.8 -10.85 L9.7 -10.85" fill="#6c6960" fill-rule="evenodd" stroke="none"/>
    <path d="M1.45 -7.95 L1.55 -7.9 1.55 -7.85 1.6 -7.75 1.6 -7.65 1.6 -7.6 1.6 -7.45 1.6 -7.3 1.6 -7.15 1.6 -7.05 1.55 -7.0 1.5 -6.95 1.45 -6.85 1.3 -6.8 1.1 -6.8 0.3 -6.8 0.15 -6.85 0.05 -6.95 0.0 -7.0 -0.1 -7.1 -0.2 -7.25 -0.25 -7.3 -0.25 -7.4 -0.25 -7.45 -0.25 -7.55 -0.25 -7.6 -0.25 -7.7 -0.25 -7.75 -0.25 -7.85 -0.25 -7.9 -0.2 -8.0 -0.1 -8.05 0.0 -8.1 0.25 -8.1 0.3 -8.2 0.35 -8.25 0.4 -8.25 0.5 -8.3 0.65 -8.25 1.0 -8.2 1.15 -8.15 1.25 -8.1 1.35 -8.05 1.45 -7.95" fill="#ffffff" fill-rule="evenodd" stroke="none"/>
    <path d="M1.45 -4.65 L1.5 -4.6 1.55 -4.5 1.65 -4.4 1.65 -4.35 1.65 -4.25 1.65 -4.2 1.65 -4.1 1.65 -4.05 1.6 -4.0 1.6 -3.9 1.55 -3.8 1.5 -3.75 1.45 -3.7 1.4 -3.6 1.2 -3.55 1.1 -3.55 0.7 -3.55 0.25 -3.75 0.0 -3.9 -0.3 -4.15 -0.3 -4.25 -0.3 -4.3 -0.3 -4.4 -0.3 -4.45 -0.3 -4.55 -0.3 -4.6 -0.3 -4.7 -0.25 -4.75 -0.2 -4.85 -0.15 -4.9 -0.15 -5.0 -0.1 -5.05 -0.05 -5.1 0.0 -5.15 0.1 -5.15 0.2 -5.15 0.35 -5.1 0.5 -5.05 0.8 -5.05 0.9 -5.0 1.0 -4.95 1.1 -4.9 1.25 -4.85 1.35 -4.8 1.4 -4.7 1.45 -4.65" fill="#ffffff" fill-rule="evenodd" stroke="none"/>
    <path d="M0.4 -2.0 L0.55 -1.95 0.9 -1.85 1.25 -1.6 1.5 -1.45 1.55 -1.35 1.6 -1.3 1.6 -1.2 1.65 -1.15 1.65 -1.05 1.65 -1.0 1.65 -0.9 1.65 -0.75 1.6 -0.7 1.6 -0.6 1.55 -0.55 1.5 -0.5 1.45 -0.4 1.4 -0.3 1.3 -0.25 1.25 -0.2 1.1 -0.2 0.3 -0.2 0.15 -0.25 0.05 -0.3 0.0 -0.4 -0.05 -0.45 -0.1 -0.55 -0.1 -0.6 -0.1 -0.7 -0.1 -0.75 -0.1 -0.85 -0.15 -0.9 -0.25 -1.0 -0.3 -1.05 -0.3 -1.15 -0.3 -1.2 -0.3 -1.3 -0.3 -1.35 -0.3 -1.45 -0.3 -1.5 -0.3 -1.6 -0.3 -1.65 -0.3 -1.75 -0.3 -1.8 -0.25 -1.9 -0.15 -1.95 0.0 -2.0 0.4 -2.0" fill="#ffffff" fill-rule="evenodd" stroke="none"/>
    <path d="M0.9 4.6 L1.0 4.65 1.1 4.75 1.15 4.8 1.15 4.9 1.2 4.95 1.15 5.1 1.15 5.35 1.15 5.5 1.15 5.55 1.1 5.65 1.05 5.7 1.05 5.8 1.0 5.85 0.95 5.9 0.9 5.9 0.75 6.0 0.6 6.05 0.3 6.0 0.15 5.95 0.1 5.9 0.0 5.9 -0.15 5.85 -0.25 5.75 -0.35 5.7 -0.4 5.65 -0.4 5.55 -0.4 5.5 -0.4 5.4 -0.4 5.25 -0.4 5.05 -0.4 4.95 -0.35 4.9 -0.35 4.8 -0.35 4.75 -0.3 4.65 -0.25 4.6 -0.1 4.55 0.7 4.55 0.9 4.6" fill="#ffffff" fill-rule="evenodd" stroke="none"/>
    <path d="M1.15 7.95 L1.2 8.05 1.3 8.1 1.3 8.2 1.3 8.25 1.3 8.4 1.3 8.55 1.3 8.65 1.25 8.7 1.25 8.8 1.2 8.85 1.15 8.95 1.15 9.0 1.05 9.1 1.0 9.15 0.85 9.25 0.8 9.3 0.7 9.35 0.6 9.35 0.3 9.35 0.15 9.3 0.1 9.25 0.0 9.15 -0.05 9.1 -0.15 8.95 -0.15 8.85 -0.15 8.8 -0.15 8.65 -0.15 8.5 -0.15 8.4 -0.15 8.35 -0.1 8.25 -0.05 8.2 0.1 8.15 0.35 8.1 0.4 8.0 0.45 7.95 0.5 7.95 0.6 7.9 1.0 7.9 1.15 7.95" fill="#ffffff" fill-rule="evenodd" stroke="none"/>
    <path d="M0.95 11.15 L1.05 11.25 1.1 11.3 1.15 11.4 1.15 11.45 1.2 11.55 1.2 11.6 1.25 11.7 1.25 11.75 1.25 11.85 1.2 11.9 1.2 12.0 1.15 12.05 1.1 12.15 0.95 12.2 0.75 12.25 0.6 12.3 0.1 12.25 -0.05 12.25 -0.1 12.15 -0.15 12.1 -0.15 12.0 -0.15 11.95 -0.15 11.85 -0.15 11.8 -0.15 11.7 -0.05 11.55 0.05 11.5 0.1 11.45 0.2 11.4 0.15 11.3 0.05 11.2 0.0 11.15 0.0 11.1 0.05 11.0 0.1 10.95 0.2 10.9 0.45 11.0 0.7 11.1 0.95 11.15" fill="#ffffff" fill-rule="evenodd" stroke="none"/>
    <path d="M-15.9 -13.0 L-15.1 -13.0 -14.95 -12.95 -14.85 -12.9 -14.8 -12.8 -14.75 -12.75 -14.75 -12.65 -14.7 -12.6 -14.7 -12.5 -14.65 -12.45 -14.65 -12.35 -14.65 -12.3 -14.65 -12.2 -14.65 -12.15 -14.6 -12.05 -14.45 -11.9 -14.35 -11.75 -14.35 -11.7 -14.35 -11.6 -14.35 -11.55 -14.35 -11.45 -14.35 -11.4 -14.4 -11.3 -14.4 -11.25 -14.45 -11.15 -14.55 -11.1 -14.6 -11.05 -14.65 -10.95 -14.8 -10.95 -15.0 -10.9 -15.6 -10.9 -15.75 -10.95 -15.9 -11.05 -16.05 -11.1 -16.15 -11.15 -16.25 -11.25 -16.35 -11.3 -16.45 -11.4 -16.5 -11.45 -16.6 -11.55 -16.6 -11.65 -16.6 -11.7 -16.6 -11.85 -16.6 -12.0 -16.6 -12.15 -16.6 -12.2 -16.55 -12.3 -16.55 -12.35 -16.5 -12.45 -16.5 -12.5 -16.45 -12.6 -16.35 -12.65 -16.2 -12.8 -16.05 -12.95 -15.9 -13.0" fill="#ffffff" fill-rule="evenodd" stroke="none"/>
    <path d="M15.0 -12.75 L15.35 -12.7 15.6 -12.7 15.9 -12.65 16.0 -12.6 16.05 -12.55 16.05 -12.5 16.05 -12.4 16.05 -12.3 16.0 -12.25 15.95 -12.15 15.95 -12.1 15.95 -12.0 15.95 -11.95 15.95 -11.85 15.95 -11.8 15.95 -11.7 15.9 -11.65 15.85 -11.55 15.8 -11.5 15.75 -11.45 15.65 -11.25 15.6 -11.2 15.5 -11.2 15.4 -11.15 15.3 -11.15 15.1 -11.15 15.0 -11.15 14.9 -11.15 14.8 -11.1 14.4 -11.1 14.25 -11.15 14.15 -11.2 14.1 -11.3 14.0 -11.35 13.95 -11.45 13.9 -11.55 13.9 -11.65 13.9 -11.75 13.9 -11.9 13.95 -12.1 13.95 -12.2 14.0 -12.3 14.05 -12.35 14.1 -12.4 14.2 -12.5 14.25 -12.55 14.3 -12.55 14.4 -12.65 14.5 -12.65 14.6 -12.7 14.9 -12.7 15.0 -12.75" fill="#ffffff" fill-rule="evenodd" stroke="none"/>
    <path d="M6.5 -7.8 Q8.75 -7.3 9.95 -5.45 L10.5 -4.6 10.6 -4.3 10.6 -4.0 10.6 -3.4 10.6 -2.8 10.6 -2.5 10.6 -1.6 10.6 -1.0 10.6 -0.4 10.5 -0.1 10.0 0.8 9.7 1.4 9.5 1.7 8.4 2.9 7.3 3.8 6.8 4.1 7.6 4.4 8.0 4.7 8.3 5.0 8.6 5.3 8.8 5.6 8.9 5.9 9.0 6.2 9.0 6.5 9.0 6.8 9.0 7.4 9.0 7.7 9.0 8.0 9.0 8.3 8.9 8.6 8.7 8.9 8.4 9.5 8.0 10.1 7.8 10.4 7.2 11.3 6.7 11.9 6.9 12.2 7.0 12.5 7.1 12.8 7.2 13.1 7.2 13.4 7.2 13.7 7.2 14.0 7.2 14.3 7.2 14.6 7.1 14.9 7.0 15.2 6.8 15.5 6.85 15.75 7.2 16.1 7.6 16.4 8.0 16.7 8.2 17.0 8.3 17.3 8.5 17.6 8.6 17.9 8.7 18.2 8.7 18.5 8.7 18.8 8.6 19.1 8.6 19.4 8.5 19.7 8.3 20.0 8.1 20.3 7.5 20.9 7.2 21.2 6.8 21.5 6.5 21.7 4.9 22.1 4.1 22.3 3.7 22.35 Q-0.55 22.8 -4.8 22.2 L-5.5 22.0 -6.4 21.7 -7.3 21.4 -7.8 21.1 -8.1 20.8 -8.4 20.5 -8.6 20.2 -8.7 19.9 -8.7 19.6 -8.7 19.3 -8.6 19.0 -8.6 18.7 -8.6 18.4 -8.6 18.1 -8.6 17.85 -8.8 17.5 -9.0 17.2 -9.1 16.9 -9.2 16.6 -9.2 16.3 -9.2 16.0 -9.2 15.7 -9.3 15.4 -9.5 15.1 -9.8 14.8 -10.4 14.5 -11.0 14.2 -11.3 13.9 -11.5 13.6 -11.7 13.3 -11.7 13.0 -11.7 12.7 -11.7 12.1 -11.7 11.5 -11.7 11.2 -11.7 10.6 -11.7 10.0 -11.7 9.4 -11.85 9.1 -12.1 8.8 -12.35 8.5 -12.5 8.2 -12.6 7.9 -12.6 7.6 -12.6 7.0 -12.6 6.4 -12.6 6.1 -12.6 5.5 -12.6 4.9 -12.6 4.6 -12.5 4.3 -12.4 4.0 -12.3 3.7 -12.1 3.1 -12.0 2.8 -11.9 2.5 -11.8 2.2 -11.6 1.9 -11.3 1.6 -11.0 1.3 -10.4 1.0 -9.9 0.7 -9.8 0.4 -9.8 0.1 -9.8 -0.5 -9.8 -1.1 -9.8 -1.4 -9.8 -2.0 -9.8 -2.6 -9.8 -2.9 -9.65 -3.2 -8.85 -4.4 -8.6 -4.7 -8.3 -5.0 Q-7.65 -5.5 -7.3 -6.15 L-6.6 -7.4 -5.8 -8.3 -5.4 -8.5 -4.8 -8.55 -4.8 -8.6 -2.8 -8.6 -1.9 -8.35 -1.1 -8.1 -0.6 -8.0 Q2.45 -8.7 5.5 -8.0 L6.5 -7.8 M6.6 -3.75 L6.6 -3.7 6.6 -2.8 6.6 -1.9 6.6 -1.0 6.6 -0.7 6.65 -0.7 6.8 -1.0 7.0 -1.3 7.0 -2.2 7.0 -3.1 6.6 -3.75" fill="#663333" fill-opacity="0.101960786" fill-rule="evenodd" stroke="none"/>
    <path d="M8.2 -6.3 L8.8 -6.1 10.2 -5.2 11.6 -4.3 12.9 -3.4 13.1 -3.1 13.3 -2.8 13.4 -2.5 13.5 -1.55 13.4 -0.7 13.4 -0.1 13.35 1.1 13.3 1.7 12.8 2.6 12.15 3.45 11.25 4.35 10.5 5.0 10.7 5.3 10.9 5.6 11.0 5.9 11.1 6.5 11.1 7.1 11.1 7.7 11.1 8.0 11.1 8.9 11.1 9.2 11.0 9.5 10.8 9.8 10.7 10.1 10.7 10.4 10.7 10.7 10.7 11.0 10.7 11.6 10.7 11.9 10.7 12.5 10.6 12.8 10.5 13.1 10.4 13.4 10.2 13.7 9.9 14.0 10.0 14.3 10.2 14.6 10.8 14.9 11.4 15.2 12.0 15.5 12.5 15.8 12.7 16.1 12.9 16.4 13.0 16.7 13.1 17.0 13.1 17.3 13.1 17.6 13.1 17.9 13.1 18.2 13.0 18.5 12.9 18.8 12.8 19.1 12.6 19.4 12.4 19.7 12.2 20.0 12.0 20.3 11.4 20.9 10.9 21.8 9.85 22.65 7.2 24.1 7.0 24.2 5.4 24.45 -5.2 24.5 Q-7.5 24.4 -9.6 23.5 L-9.9 23.2 -10.2 22.9 -10.5 22.6 -10.75 22.3 -11.1 21.7 -11.1 21.4 -11.15 21.15 -11.4 20.8 -12.0 20.5 -12.5 20.2 -12.8 19.9 -13.0 19.6 -13.1 19.3 -13.1 19.0 -13.1 18.7 -13.1 18.4 -13.1 18.1 -13.0 17.8 -12.9 17.5 -12.7 17.2 -12.4 16.9 -12.1 16.6 -11.6 16.3 -10.1 15.9 -8.75 15.4 -8.7 15.2 -8.7 14.9 -8.6 14.6 -8.5 14.3 -8.4 14.0 -8.2 13.7 -8.0 13.4 -7.8 13.1 -7.5 12.8 -6.9 12.2 -6.4 11.9 -5.9 11.6 -5.9 11.0 -5.9 10.4 -5.9 9.8 -5.8 9.2 -5.6 8.0 -5.5 7.7 -5.5 7.4 -5.5 7.1 -5.5 6.8 -5.5 6.5 -5.5 6.2 -5.5 5.9 -5.4 5.6 -5.3 5.3 -5.3 5.0 -5.2 4.7 -5.1 4.4 -5.0 4.1 -4.8 3.8 -4.6 3.5 -4.3 3.2 -4.25 2.9 -4.4 2.6 -4.5 2.3 -4.6 1.7 -4.6 1.1 -4.6 0.5 -4.6 0.2 -4.6 -0.7 -4.6 -1.0 -4.5 -1.3 -4.4 -1.6 -4.3 -1.9 -4.2 -2.2 -3.6 -3.1 -2.95 -4.05 -2.2 -4.9 -1.0 -6.1 -0.5 -6.4 -0.1 -6.7 0.4 -6.95 1.2 -7.3 1.5 -7.6 1.8 -7.9 2.2 -8.1 2.6 -8.2 3.2 -8.25 3.2 -8.3 3.6 -8.3 4.4 -8.1 4.8 -7.9 5.6 -7.7 6.0 -7.5 6.4 -7.4 7.2 -7.2 7.6 -6.9 7.9 -6.6 8.1 -6.4 8.2 -6.3" fill="#663333" fill-opacity="0.101960786" fill-rule="evenodd" stroke="none"/>
    <path d="M11.0 4.9 L11.3 5.2 11.6 5.5 11.9 5.8 12.1 6.1 12.55 6.7 12.9 7.3 13.0 7.6 13.1 7.9 13.2 8.2 13.3 8.5 13.3 8.8 13.6 9.1 14.1 9.4 14.4 9.7 14.7 10.0 15.0 10.3 15.3 10.6 15.5 10.9 15.7 11.2 15.8 11.5 15.85 11.8 15.9 12.4 15.9 13.3 15.9 14.5 15.6 16.3 15.3 17.2 15.1 17.5 14.9 17.8 14.7 18.1 14.5 18.4 14.3 18.7 14.1 19.0 13.7 19.3 Q6.85 24.0 -1.3 22.35 L-8.8 20.9 -9.4 20.6 -10.0 20.3 -10.3 20.0 -10.5 19.7 -10.6 19.4 -10.8 19.1 -11.1 18.8 -11.3 18.5 -11.4 18.2 -11.5 17.9 -11.5 17.6 -11.5 17.3 -11.4 17.0 -11.3 16.7 -11.1 16.4 -10.8 16.1 -10.7 15.8 -10.7 15.5 -10.7 15.2 -10.6 14.9 -10.4 14.6 -10.3 14.3 -10.3 14.0 -10.3 13.7 -10.4 13.4 -10.6 13.1 -10.9 12.8 -11.2 12.5 -11.5 12.2 -11.7 11.9 -11.8 11.6 -11.8 11.3 -11.8 11.0 -11.8 10.7 -11.8 10.1 -11.8 9.5 -11.8 8.6 -11.8 8.3 -11.7 8.0 -10.8 6.5 Q-9.65 4.8 -7.7 4.05 L-4.2 2.7 -3.6 2.65 -3.6 2.6 6.0 2.6 6.8 2.85 8.3 3.4 9.6 4.0 10.7 4.6 11.0 4.9" fill="#663333" fill-opacity="0.101960786" fill-rule="evenodd" stroke="none"/>
    <path d="M7.6 -12.7 L8.2 -12.4 8.8 -12.1 9.8 -11.5 10.7 -10.9 10.9 -10.6 11.1 -10.3 11.2 -10.0 11.3 -9.7 11.3 -9.4 11.3 -9.1 11.3 -8.8 11.3 -8.5 11.3 -8.2 11.3 -7.9 11.3 -7.3 11.2 -7.0 11.1 -6.7 11.0 -6.4 10.9 -6.1 10.7 -5.8 10.6 -5.5 10.4 -5.2 10.0 -4.9 Q9.35 -4.4 8.55 -4.1 7.65 -3.75 6.85 -3.2 L5.6 -2.5 5.2 -2.2 4.7 -1.9 4.1 -1.6 3.5 -1.3 2.9 -1.0 2.4 -0.95 -3.6 -0.9 -4.4 -1.1 -5.6 -1.4 -7.1 -1.7 -8.3 -2.0 -8.8 -2.3 -9.3 -2.6 -9.7 -2.9 -9.95 -3.2 -10.1 -3.5 -10.2 -3.8 -10.2 -4.1 -10.2 -4.7 -10.2 -5.3 -10.05 -6.2 -9.8 -7.1 -9.6 -7.4 -9.3 -7.7 -9.0 -8.0 -8.5 -8.3 -8.1 -8.6 -7.9 -8.9 -7.6 -9.2 -7.4 -9.5 -7.2 -9.8 -7.1 -10.1 -6.8 -10.4 -6.4 -10.7 -5.8 -11.0 -5.1 -11.3 -4.3 -11.6 -3.9 -11.9 -3.4 -12.2 -3.0 -12.4 -2.6 -12.5 -2.2 -12.6 -1.8 -12.7 -1.4 -12.8 -0.8 -12.85 -0.8 -12.9 6.8 -12.9 7.6 -12.7" fill="#663333" fill-opacity="0.101960786" fill-rule="evenodd" stroke="none"/>
    <path d="M1.9 -15.25 L3.0 -15.2 4.2 -15.15 4.9 -15.0 5.0 -14.95 5.5 -14.9 5.55 -14.9 5.7 -14.9 5.85 -14.95 5.95 -15.0 6.1 -15.0 6.3 -15.05 6.65 -15.05 6.7 -15.1 6.8 -15.1 6.9 -15.1 7.05 -15.05 7.1 -15.0 7.25 -14.9 7.3 -14.85 7.3 -14.8 7.25 -14.7 7.15 -14.7 7.05 -14.7 7.0 -14.7 6.9 -14.65 6.8 -14.6 6.7 -14.55 6.6 -14.55 6.4 -14.5 6.4 -14.45 6.4 -14.35 6.4 -14.25 6.4 -14.2 6.4 -14.1 6.4 -14.05 6.5 -13.95 6.55 -13.9 6.6 -13.8 6.65 -13.75 6.65 -13.65 6.7 -13.6 6.7 -13.5 6.7 -13.45 6.7 -13.35 6.7 -13.3 6.7 -13.2 6.65 -13.15 6.65 -13.05 6.6 -13.0 6.6 -12.9 6.55 -12.85 6.5 -12.75 6.45 -12.7 6.35 -12.65 6.3 -12.55 6.25 -12.45 6.15 -12.4 6.0 -12.3 5.9 -12.25 5.75 -12.2 5.65 -12.1 5.55 -12.0 4.0 -11.55 Q1.55 -11.1 -0.9 -11.6 L-1.4 -11.75 -1.6 -11.8 -1.8 -11.85 -2.0 -11.95 -2.15 -12.0 -2.2 -12.1 -2.3 -12.15 -2.3 -12.25 -2.35 -12.3 -2.35 -12.4 -2.4 -12.5 -2.4 -12.6 -2.45 -12.8 -2.45 -12.9 -2.45 -13.05 -2.45 -13.15 -2.45 -13.2 -2.4 -13.3 -2.4 -13.4 -2.4 -13.5 -2.5 -13.55 -2.65 -13.6 -2.8 -13.6 -2.95 -13.65 -3.5 -13.65 -3.65 -13.7 -3.75 -13.8 -3.8 -13.85 -3.8 -13.95 -3.8 -14.0 -3.8 -14.1 -3.8 -14.15 -3.8 -14.25 -3.7 -14.3 -3.65 -14.35 -3.6 -14.4 -1.8 -14.5 -1.3 -14.55 -1.15 -14.6 -0.2 -14.95 1.45 -15.2 1.9 -15.25 M4.25 -12.65 L4.1 -12.65 4.0 -12.6 3.85 -12.55 3.8 -12.45 5.15 -12.85 5.5 -13.05 5.55 -13.15 5.6 -13.25 5.7 -13.3 5.55 -13.45 5.35 -13.55 5.0 -13.1 4.65 -12.85 4.25 -12.65" fill="#663333" fill-opacity="0.101960786" fill-rule="evenodd" stroke="none"/>
    <path d="M2.4 -15.1 L4.25 -14.9 5.65 -14.5 5.7 -14.45 5.75 -14.35 5.8 -14.3 5.8 -14.2 5.8 -14.15 5.8 -14.05 5.8 -14.0 5.8 -13.9 5.75 -13.85 5.75 -13.75 5.7 -13.7 5.55 -13.6 5.45 -13.55 5.4 -13.5 5.35 -13.5 5.5 -13.4 5.65 -13.35 5.7 -13.25 5.7 -13.2 5.75 -13.1 5.75 -13.05 5.8 -12.95 5.8 -12.9 5.8 -12.8 5.75 -12.75 5.75 -12.65 5.7 -12.6 5.7 -12.5 5.65 -12.45 5.35 -12.3 4.9 -12.1 4.8 -12.1 3.8 -11.8 2.4 -11.7 1.95 -11.6 1.15 -11.4 Q-1.3 -11.0 -3.55 -11.9 L-3.6 -12.0 -3.7 -12.05 -3.75 -12.15 -3.85 -12.2 -3.9 -12.3 -4.0 -12.4 -4.1 -12.5 -4.15 -12.6 -4.15 -12.65 -4.15 -12.75 -4.15 -12.8 -4.15 -12.9 -4.15 -12.95 -4.15 -13.05 -4.15 -13.1 -4.1 -13.2 -4.1 -13.3 -4.1 -13.35 -4.05 -13.4 -4.05 -13.5 -4.0 -13.55 -4.0 -13.65 -3.95 -13.7 -3.9 -13.8 -3.85 -13.85 -3.85 -13.95 -3.85 -14.0 -3.8 -14.1 -3.75 -14.15 -3.7 -14.25 -3.65 -14.3 -3.6 -14.4 -3.55 -14.45 -3.45 -14.55 -3.35 -14.6 -3.15 -14.7 -3.0 -14.8 -2.85 -14.8 -2.7 -14.85 -2.1 -14.9 -0.45 -14.95 -0.35 -15.0 -0.2 -15.0 0.0 -15.05 0.2 -15.05 0.4 -15.1 0.6 -15.1 2.4 -15.1 M3.7 -13.85 L3.6 -13.95 3.5 -13.95 3.55 -13.85 3.65 -13.8 3.7 -13.8 3.7 -13.85" fill="#663333" fill-opacity="0.101960786" fill-rule="evenodd" stroke="none"/>
    <path d="M-5.9 -13.1 L-5.7 -13.05 -5.6 -12.95 -5.55 -12.9 -5.5 -12.8 -5.5 -12.75 -5.5 -12.65 -5.5 -12.6 -5.5 -12.5 -5.55 -12.45 -5.55 -12.35 -5.6 -12.3 -5.7 -12.15 -5.75 -12.05 -5.9 -12.0 -6.0 -11.95 -6.05 -11.95 -6.2 -11.85 -6.2 -11.8 -6.15 -11.7 -6.15 -11.6 -6.15 -11.5 -6.2 -11.4 -6.25 -11.35 -6.3 -11.3 -6.4 -11.2 -6.55 -11.1 -6.65 -11.05 Q-6.65 -11.0 -6.75 -11.0 L-6.85 -10.9 -6.95 -10.8 -9.45 -9.9 -10.75 -9.35 Q-12.85 -8.9 -14.95 -9.35 L-15.65 -9.6 -15.7 -9.7 -15.8 -9.75 -15.85 -9.85 -15.9 -9.9 -15.95 -10.0 -15.95 -10.05 -15.95 -10.15 -15.95 -10.2 -15.9 -10.3 -15.85 -10.35 -15.75 -10.45 -15.7 -10.5 -15.65 -10.5 -15.5 -10.55 -15.0 -10.55 -14.75 -10.5 -14.4 -10.5 -11.8 -10.9 -10.5 -11.05 -9.25 -11.55 -7.8 -12.1 -7.3 -12.5 -6.3 -13.05 -6.25 -13.05 -6.1 -13.1 -5.9 -13.1" fill="#663333" fill-opacity="0.101960786" fill-rule="evenodd" stroke="none"/>
    <path d="M4.75 -12.7 L4.75 -12.8 4.8 -12.85 4.85 -12.95 4.9 -13.0 5.0 -13.1 5.2 -13.15 5.4 -13.1 5.9 -12.8 6.5 -12.5 7.05 -12.2 7.1 -12.2 7.2 -12.2 7.55 -12.05 7.85 -11.95 8.05 -11.85 8.2 -11.8 8.25 -11.7 10.9 -10.6 11.45 -10.45 14.1 -10.4 14.3 -10.35 14.4 -10.25 14.45 -10.2 14.85 -10.2 15.25 -10.3 15.55 -10.4 15.7 -10.4 15.85 -10.5 15.95 -10.55 16.1 -10.65 16.2 -10.7 16.25 -10.7 16.4 -10.75 16.5 -10.75 16.7 -10.7 16.8 -10.6 16.9 -10.55 16.9 -10.45 16.95 -10.4 16.95 -10.3 16.95 -10.25 16.95 -10.15 16.9 -10.1 16.85 -10.05 16.8 -9.95 16.5 -9.8 16.15 -9.6 15.85 -9.4 15.75 -9.35 14.3 -9.2 11.85 -9.1 11.75 -9.05 11.6 -9.05 11.5 -9.05 11.05 -9.15 10.8 -9.25 10.5 -9.3 10.35 -9.35 9.45 -9.55 8.4 -9.9 7.25 -10.45 7.05 -10.55 6.85 -10.6 6.8 -10.7 6.7 -10.75 6.65 -10.85 6.55 -10.9 6.5 -11.0 6.45 -11.1 6.45 -11.2 6.45 -11.3 6.45 -11.35 6.5 -11.45 5.85 -11.85 Q5.55 -11.95 5.25 -12.15 L4.8 -12.5 4.75 -12.6 4.75 -12.7" fill="#663333" fill-opacity="0.101960786" fill-rule="evenodd" stroke="none"/>
    <path d="M17.1 -11.7 L17.1 -11.65 17.1 -11.5 17.1 -11.4 17.1 -11.35 17.1 -11.25 17.05 -11.2 17.0 -11.1 16.95 -11.05 16.9 -11.0 16.85 -10.9 16.7 -10.85 16.5 -10.75 16.3 -10.7 14.9 -10.7 14.7 -10.8 14.5 -10.85 14.35 -10.9 14.3 -11.0 14.25 -11.1 14.2 -11.15 14.15 -11.2 14.15 -11.3 14.15 -11.35 14.15 -11.45 14.15 -11.5 14.15 -11.6 14.15 -11.65 14.15 -11.75 14.2 -11.8 14.2 -11.9 14.25 -11.95 14.3 -12.05 14.35 -12.1 14.45 -12.2 14.6 -12.25 14.7 -12.3 14.8 -12.35 14.85 -12.35 15.0 -12.4 16.1 -12.35 16.65 -12.25 16.8 -12.15 16.9 -12.1 16.95 -12.0 17.0 -11.95 17.05 -11.85 17.1 -11.8 17.1 -11.7" fill="#663333" fill-opacity="0.101960786" fill-rule="evenodd" stroke="none"/>
    <path d="M-13.85 -11.5 L-13.85 -11.4 -13.9 -11.35 -13.95 -11.25 -14.0 -11.2 -14.1 -11.2 -14.2 -11.15 -14.35 -11.1 -14.4 -11.05 -14.45 -10.95 -14.6 -10.9 -14.8 -10.9 -14.95 -11.0 -15.05 -11.0 -15.2 -11.05 -15.35 -11.1 -15.4 -11.15 -15.5 -11.25 -15.55 -11.35 -15.55 -11.5 -15.7 -11.5 -15.85 -11.55 -15.95 -11.65 -16.0 -11.7 -16.05 -11.8 -16.05 -11.85 -16.05 -11.95 -16.0 -12.0 -16.0 -12.1 -15.9 -12.15 -15.8 -12.2 -15.7 -12.25 -15.0 -12.25 -14.6 -12.2 -14.4 -12.15 -14.3 -12.1 -14.25 -12.05 -14.15 -12.05 -14.0 -12.0 -13.95 -11.9 -13.9 -11.85 -13.85 -11.75 -13.85 -11.7 -13.85 -11.6 -13.85 -11.5" fill="#663333" fill-opacity="0.101960786" fill-rule="evenodd" stroke="none"/>
    <path d="M1.9 -13.25 L1.95 -13.3 2.0 -13.4 2.05 -13.45 2.25 -13.6 2.75 -13.9 3.15 -14.05 4.65 -14.15 4.75 -14.2 4.8 -14.25 4.85 -14.35 4.95 -14.4 5.05 -14.4 5.15 -14.45 5.25 -14.45 5.35 -14.5 5.5 -14.5 5.8 -14.5 6.0 -14.45 6.2 -14.4 6.4 -14.3 6.45 -14.25 6.5 -14.15 6.55 -14.1 6.6 -14.0 6.65 -13.85 6.7 -13.8 6.7 -13.7 6.75 -13.65 6.75 -13.55 6.75 -13.5 6.75 -13.35 6.75 -13.2 6.7 -13.1 6.7 -13.05 6.65 -13.0 6.65 -12.8 6.55 -12.6 6.5 -12.35 6.45 -12.3 6.45 -12.2 6.05 -11.85 Q5.25 -11.2 4.2 -10.95 L3.65 -11.0 3.35 -11.05 2.8 -11.2 2.7 -11.3 2.65 -11.4 2.6 -11.45 2.55 -11.5 2.45 -11.7 2.4 -11.75 2.4 -11.85 2.4 -11.95 2.25 -12.05 2.15 -12.1 2.1 -12.2 2.0 -12.25 1.95 -12.35 1.85 -12.4 1.85 -12.5 1.85 -12.55 1.85 -12.65 1.85 -12.7 1.85 -12.85 1.85 -13.0 1.85 -13.1 1.9 -13.15 1.9 -13.25 M3.5 -13.05 L3.45 -12.95 3.95 -12.95 3.55 -13.05 3.5 -13.05 M5.85 -13.6 L5.45 -13.65 5.3 -13.6 5.35 -13.5 5.4 -13.45 5.45 -13.35 5.5 -13.3 5.55 -13.2 5.55 -13.15 5.6 -13.05 5.6 -13.0 5.6 -12.9 5.6 -12.85 5.6 -12.75 5.6 -12.7 5.55 -12.6 5.65 -12.65 5.7 -12.7 5.75 -12.9 5.8 -13.1 5.85 -13.35 5.9 -13.45 5.85 -13.55 5.85 -13.6" fill="#663333" fill-opacity="0.101960786" fill-rule="evenodd" stroke="none"/>
    <path d="M-5.1 -15.1 L-4.9 -15.05 -4.8 -14.95 -4.7 -14.95 -4.3 -14.95 -4.1 -14.9 -4.05 -14.8 -3.95 -14.75 -3.9 -14.65 -3.85 -14.6 -3.8 -14.55 -3.75 -14.45 -3.75 -14.4 -3.75 -14.3 -3.75 -14.2 -3.75 -14.15 -3.7 -14.1 -3.65 -14.0 -3.6 -13.9 -3.55 -13.85 -3.55 -13.75 -3.5 -13.7 -3.5 -13.6 -3.5 -13.55 -3.5 -13.45 -3.5 -13.4 -3.5 -13.3 -3.55 -13.25 -3.55 -13.15 -3.6 -13.1 -3.65 -12.95 -3.7 -12.9 -3.8 -12.8 -3.9 -12.65 -5.0 -12.6 -5.3 -12.6 -5.5 -12.65 -5.95 -12.9 -6.05 -12.95 -6.35 -13.25 -6.45 -13.45 -6.45 -13.65 -6.45 -13.75 -6.45 -13.9 -6.5 -14.2 -6.45 -14.45 -6.45 -14.5 -6.4 -14.6 -6.4 -14.65 -6.35 -14.75 -6.3 -14.8 -6.2 -14.9 -6.15 -14.95 -6.05 -15.0 -5.9 -15.05 -5.1 -15.1" fill="#ffffff" fill-opacity="0.101960786" fill-rule="evenodd" stroke="none"/>
    <path d="M-5.1 -14.75 L-5.0 -14.85 -4.8 -14.9 -4.7 -14.95 -4.6 -14.95 -4.45 -15.0 -4.2 -15.05 -4.0 -15.1 -3.25 -15.05 -2.6 -14.85 -2.0 -14.5 -1.95 -14.45 -1.8 -14.3 -1.7 -14.15 -1.65 -14.05 -1.6 -14.0 -1.6 -13.9 -1.55 -13.85 -1.55 -13.7 -1.55 -13.6 -1.55 -13.55 -1.6 -13.5 -1.6 -13.4 -1.65 -13.35 -1.7 -13.25 -1.8 -13.1 -1.85 -13.0 -1.95 -12.95 -2.05 -12.85 -2.2 -12.8 -2.3 -12.7 -2.45 -12.7 -2.65 -12.65 -2.9 -12.55 -3.05 -12.5 -3.15 -12.45 -3.2 -12.35 -3.3 -12.3 -3.4 -12.2 -3.6 -12.15 -4.0 -12.2 -4.5 -12.25 -4.65 -12.3 -4.8 -12.4 -4.95 -12.45 -5.0 -12.55 -5.05 -12.6 -5.1 -12.7 -5.1 -12.75 -5.15 -12.85 -5.15 -12.9 -5.2 -13.0 -5.2 -13.05 -5.25 -13.15 -5.35 -13.3 -5.5 -13.45 -5.55 -13.55 -5.6 -13.6 -5.6 -13.65 -5.6 -13.75 -5.6 -13.9 -5.6 -13.95 -5.6 -14.05 -5.6 -14.1 -5.6 -14.2 -5.55 -14.25 -5.55 -14.35 -5.5 -14.4 -5.45 -14.5 -5.3 -14.65 -5.2 -14.7 -5.1 -14.75" fill="#ffffff" fill-opacity="0.101960786" fill-rule="evenodd" stroke="none"/>
    <path d="M-7.1 -12.75 L-6.9 -12.7 -6.75 -12.65 -6.7 -12.6 -6.7 -12.5 -6.7 -12.45 -6.75 -12.4 -6.75 -12.35 -6.8 -12.3 -11.2 -10.95 -13.0 -10.3 -15.9 -9.95 -16.15 -10.0 -16.25 -10.1 -16.3 -10.2 -16.3 -10.3 -16.3 -10.4 -16.25 -10.45 -16.2 -10.55 -16.1 -10.6 Q-14.15 -10.65 -12.2 -11.25 L-8.45 -12.5 -7.4 -12.75 -7.1 -12.75" fill="#ffffff" fill-opacity="0.101960786" fill-rule="evenodd" stroke="none"/>
    <path d="M-3.6 17.0 L-3.65 17.05 -3.65 17.15 -3.7 17.25 -3.75 17.4 -3.8 17.6 -3.85 17.85 -3.85 17.9 -3.85 18.0 -3.85 18.05 Q-3.65 18.65 -3.6 19.3 L-3.55 20.75 -3.5 21.95 -3.55 22.0 -3.55 22.1 -3.6 22.2 -3.7 22.25 -3.9 22.3 -4.1 22.25 -4.2 22.25 -4.3 22.25 -4.4 22.3 -4.55 22.25 -4.65 22.15 -4.75 22.05 -4.75 22.0 -4.75 21.5 -4.75 20.8 -4.75 20.2 -4.75 20.05 -4.9 19.3 -4.95 18.45 -4.9 17.6 -4.95 17.5 -5.0 17.35 -5.05 17.2 -5.1 17.05 -5.15 16.95 -5.15 16.85 -5.15 16.75 -5.15 16.7 -5.1 16.6 -5.05 16.55 -4.95 16.5 -4.9 16.45 -4.8 16.45 -4.6 16.5 -4.5 16.55 -4.5 16.65 -4.4 16.75 -4.25 17.0 -4.2 17.15 -4.15 17.1 -4.1 17.05 -4.1 16.95 -4.0 16.85 -3.9 16.8 -3.8 16.8 -3.65 16.85 -3.65 16.95 -3.6 17.0" fill="#ffffff" fill-opacity="0.101960786" fill-rule="evenodd" stroke="none"/>
    <path d="M5.2 16.35 L5.2 16.45 5.25 16.5 5.25 16.6 5.25 16.65 5.25 16.75 5.2 16.8 5.15 16.9 5.1 16.95 5.0 16.95 4.35 17.1 3.45 17.3 3.4 17.35 3.35 17.45 2.4 17.8 Q0.85 18.0 -0.65 17.8 -2.35 17.6 -4.0 17.8 L-4.2 17.85 -4.3 17.8 -4.4 17.75 -4.5 17.7 -4.5 17.6 -4.5 17.55 -4.5 17.45 -4.5 17.4 -4.5 17.3 -4.4 17.15 Q-4.2 16.95 -3.9 16.9 L2.95 16.6 3.55 16.55 3.6 16.45 3.7 16.4 3.8 16.3 3.9 16.25 4.0 16.25 4.9 16.25 5.1 16.3 5.2 16.35" fill="#ffffff" fill-opacity="0.101960786" fill-rule="evenodd" stroke="none"/>
    <path d="M0.3 17.6 L0.35 17.7 0.4 17.75 0.45 17.85 0.45 17.9 0.45 18.0 0.4 18.05 0.35 18.1 0.3 18.2 0.1 18.25 -0.35 18.3 -0.45 18.4 -0.6 18.45 -0.65 18.5 -0.8 18.55 -0.9 18.55 -1.2 18.65 -1.35 18.7 -1.6 18.85 -2.0 19.1 -2.1 19.15 -2.15 19.25 -2.25 19.3 -2.3 19.4 -2.45 19.45 -2.5 19.55 -2.55 19.6 -2.55 19.7 -2.55 19.75 -2.55 19.85 -2.55 20.0 -2.55 20.05 -2.6 20.1 -2.65 20.2 -2.75 20.3 -2.9 20.35 -3.05 20.3 -3.15 20.2 -3.2 20.1 -3.2 20.0 -3.25 20.0 -3.5 19.85 -3.65 19.8 -3.7 19.7 -3.75 19.65 -3.75 19.55 -3.75 19.5 -3.8 19.35 -3.8 19.1 -3.75 19.05 -3.75 18.95 -3.6 18.8 -3.4 18.6 -3.25 18.45 -3.1 18.35 -2.65 18.1 -2.25 17.9 -2.1 17.85 -1.55 17.75 -1.0 17.6 -0.9 17.6 -0.8 17.55 0.1 17.55 0.3 17.6" fill="#ffffff" fill-opacity="0.101960786" fill-rule="evenodd" stroke="none"/>
    <path d="M2.55 20.45 L2.55 20.5 2.55 20.6 2.55 20.65 2.45 20.75 2.35 20.8 2.1 20.95 2.05 21.0 0.2 21.25 -4.3 21.35 -4.45 21.3 -4.6 21.2 -4.7 21.1 -4.7 21.0 -4.7 20.9 -4.65 20.85 -4.5 20.75 -4.4 20.7 1.2 20.5 2.1 20.3 2.15 20.2 2.3 20.15 2.45 20.2 2.5 20.3 2.55 20.35 2.55 20.45" fill="#ffffff" fill-opacity="0.101960786" fill-rule="evenodd" stroke="none"/>
    <path d="M-13.5 -7.45 L-13.35 -7.3 -13.3 -7.15 -13.0 -4.0 -12.95 -0.7 -12.95 1.25 -13.0 1.4 -13.05 1.55 -13.1 1.7 -13.1 1.85 -13.1 2.0 -13.1 2.15 -13.1 2.3 -13.15 2.45 -13.25 2.6 -13.25 2.9 -13.25 3.35 -13.25 3.8 -13.5 4.7 -13.8 5.75 -14.05 6.5 -14.05 6.95 -14.05 7.4 -14.05 7.85 -14.05 8.0 -14.1 8.15 -14.15 8.3 -14.2 8.45 -14.25 8.6 -14.25 8.9 -14.25 9.35 -14.25 9.8 -14.3 9.95 -14.35 10.1 -14.4 10.25 -14.45 10.4 -14.45 13.25 -14.45 16.1 -14.35 17.9 -14.2 18.2 -13.9 18.65 -13.75 18.95 -13.7 19.1 -13.65 19.25 -13.55 19.4 -13.45 19.55 -13.4 19.85 -13.4 20.15 -13.4 20.45 -13.45 20.6 -13.5 20.75 -13.6 20.9 -13.75 21.05 -14.0 21.2 -14.1 21.35 -14.25 21.65 -14.45 21.95 -14.65 22.1 -15.0 22.2 -15.4 22.1 -15.6 21.95 -15.7 21.8 -15.75 21.65 -15.8 21.5 -15.8 21.2 -15.8 20.9 -15.75 20.75 -15.7 20.6 -15.6 20.45 -15.6 20.3 -15.55 20.15 -15.5 20.0 -15.45 19.85 -15.35 19.7 -15.4 19.55 -15.4 19.4 -15.45 19.25 -15.5 19.1 -15.7 18.8 -15.85 18.5 -15.9 18.35 -15.95 18.2 -16.0 18.05 -15.95 14.9 -15.95 11.75 -15.95 9.8 -15.9 9.65 -15.8 9.5 -15.75 9.05 -15.75 8.6 -15.75 8.15 -15.75 8.0 -15.7 7.85 -15.6 7.7 -15.55 7.25 -15.55 6.8 -15.55 6.35 -15.55 6.2 -15.25 5.3 -15.0 4.4 -14.85 3.8 -14.85 3.65 -14.9 3.5 -14.9 3.35 -14.9 3.05 -14.95 2.9 -15.0 2.75 -15.05 2.6 -15.1 2.45 -15.1 0.05 -15.1 -2.5 -15.1 -4.0 -15.0 -4.3 -14.95 -4.6 -14.85 -4.9 -14.75 -5.05 -14.7 -5.2 -14.6 -5.35 -14.5 -5.5 -14.25 -5.65 -14.1 -5.8 -14.05 -6.25 -14.0 -6.85 -13.9 -7.3 -13.8 -7.4 -13.75 -7.45 -13.6 -7.45 -13.5 -7.45" fill="#ffffff" fill-opacity="0.101960786" fill-rule="evenodd" stroke="none"/>
    <path d="M13.8 -7.0 L14.05 -6.9 14.15 -6.75 14.2 -6.6 14.25 -6.45 14.3 -6.3 14.35 -4.2 14.45 -1.95 14.5 -0.3 14.55 -0.15 14.65 0.0 14.7 0.15 14.75 0.3 14.75 0.45 14.75 0.6 14.75 0.75 14.75 0.9 14.85 1.2 15.0 1.65 15.15 2.1 15.15 2.55 15.15 3.0 15.35 3.6 15.35 4.95 15.35 6.45 15.35 7.5 15.35 7.65 15.45 7.8 15.55 7.95 15.6 12.0 15.6 16.05 15.65 18.6 15.65 18.75 15.55 18.9 15.5 19.05 Q15.4 19.35 15.45 19.65 L15.45 20.4 15.45 21.0 15.45 21.15 15.35 21.3 15.3 21.45 15.2 21.6 15.0 21.75 14.6 21.85 14.2 21.75 14.0 21.6 13.85 21.45 13.8 21.3 13.75 20.4 13.75 19.35 Q13.7 18.8 13.8 18.3 L13.85 18.15 13.95 18.0 14.0 14.55 14.0 10.95 14.0 8.55 13.95 8.4 13.9 8.25 13.85 8.1 13.85 7.2 13.85 6.15 13.85 5.15 13.8 5.15 13.45 5.05 13.25 4.9 13.1 4.75 13.1 0.55 13.2 -3.65 13.3 -6.35 13.35 -6.5 13.4 -6.65 13.45 -6.8 13.55 -6.9 13.6 -6.95 13.8 -6.95 13.8 -7.0" fill="#ffffff" fill-opacity="0.101960786" fill-rule="evenodd" stroke="none"/>
    <path d="M-14.15 -5.6 L-14.2 -5.1 -14.25 -4.55 -14.5 -3.4 -14.65 -2.5 -14.7 0.5 -15.1 7.7 -15.35 9.1 -15.5 9.95 -15.5 10.15 -15.6 11.4 -15.65 13.9 -15.6 20.0 Q-15.5 22.5 -16.1 24.8 L-16.55 24.65 Q-16.85 22.85 -16.8 20.8 L-16.7 17.6 -16.5 13.65 -16.5 11.55 -16.15 9.2 Q-15.8 8.1 -15.8 7.05 L-15.55 3.2 -15.4 0.4 -15.2 -1.75 -14.75 -5.5 Q-14.65 -6.15 -14.2 -5.95 L-14.15 -5.6" fill="#333333" fill-rule="evenodd" stroke="none"/>
    <path d="M14.05 -5.6 L14.1 -5.1 14.2 -4.55 14.45 -3.4 14.65 -2.5 14.7 0.5 Q14.8 4.15 15.2 7.7 L15.4 9.1 15.55 9.95 15.55 10.15 15.75 11.4 15.8 13.9 15.75 20.0 Q15.65 22.5 16.3 24.8 L16.8 24.65 Q17.15 22.85 17.05 20.8 L16.95 17.6 16.7 13.65 16.7 11.55 16.3 9.2 Q15.95 8.1 15.9 7.05 L15.6 3.2 15.45 0.4 15.25 -1.75 14.7 -5.5 Q14.6 -6.15 14.15 -5.95 L14.05 -5.6" fill="#333333" fill-rule="evenodd" stroke="none"/>
    <path d="M4.9 21.95 L11.65 21.85 11.75 21.85 13.1 21.75 13.25 21.7 13.4 21.65 14.95 21.5 15.1 21.45 15.25 21.4 15.9 21.4 16.1 21.45 16.2 21.55 16.25 21.65 16.3 21.75 16.3 21.85 16.3 21.95 16.25 22.05 16.2 22.1 16.1 22.2 15.9 22.25 15.5 22.35 15.4 22.4 15.25 22.4 13.65 22.6 13.55 22.65 13.4 22.7 11.9 22.7 11.65 22.75 4.8 22.85 Q-1.55 23.15 -8.0 22.9 L-8.2 22.85 -8.4 22.8 -9.25 22.75 -10.5 22.55 -16.0 22.3 -16.2 22.2 -16.3 22.1 -16.5 22.05 -16.65 22.0 -16.7 21.9 -16.75 21.8 -16.7 21.7 -16.65 21.65 -16.5 21.65 -16.25 21.6 -16.1 21.65 -10.5 21.7 -10.3 21.75 -10.1 21.8 -9.75 21.85 -8.35 21.95 -8.15 22.0 -8.0 22.05 4.55 22.0 4.9 21.95" fill="#333333" fill-rule="evenodd" stroke="none"/>
    <path d="M6.9 16.8 L-5.0 16.85 -5.25 16.8 -5.3 16.7 -8.25 16.5 -8.7 16.45 -13.35 16.3 -14.0 16.1 -16.1 15.85 -16.15 15.75 -16.15 15.7 -15.75 15.5 -13.6 15.7 -13.5 15.7 -8.75 15.8 -8.55 15.85 -8.3 15.9 -7.85 15.9 -7.1 15.95 -7.0 15.95 -5.25 16.0 -5.05 16.05 -4.95 16.1 6.7 16.1 6.85 16.05 9.15 15.95 9.4 15.95 10.95 15.85 11.25 15.8 13.0 15.55 13.1 15.5 13.25 15.5 13.95 15.45 14.0 15.4 14.15 15.35 14.5 15.3 14.6 15.25 14.75 15.2 15.0 15.15 15.25 15.05 15.35 15.0 15.5 15.0 15.5 14.95 15.9 15.0 16.15 15.0 16.4 15.05 16.6 15.1 16.7 15.2 16.75 15.3 16.75 15.35 16.7 15.45 16.65 15.55 16.5 15.6 16.4 15.65 16.15 15.7 15.9 15.7 15.65 15.8 15.55 15.85 15.4 15.85 15.2 15.9 15.15 15.95 14.95 16.0 14.85 16.05 14.8 16.1 14.65 16.1 14.15 16.2 13.4 16.3 13.3 16.35 12.5 16.45 11.2 16.5 11.05 16.55 9.4 16.6 9.15 16.65 7.0 16.75 6.9 16.8" fill="#333333" fill-rule="evenodd" stroke="none"/>
    <path d="M-4.5 16.6 L-4.35 16.7 -4.3 16.8 -4.3 16.85 -4.25 17.05 -4.25 17.15 -4.3 17.25 -4.35 17.35 -4.3 19.1 -4.3 21.0 -4.25 22.1 -4.3 22.2 -4.35 22.3 -4.45 22.4 -4.6 22.45 -4.8 22.35 -4.9 22.3 -4.95 22.2 -4.95 20.4 -4.9 18.55 -4.85 17.3 -4.85 17.2 -4.8 17.1 -4.75 17.05 -4.75 16.95 -4.75 16.85 -4.7 16.75 -4.65 16.7 -4.65 16.65 -4.5 16.65 -4.5 16.6" fill="#333333" fill-rule="evenodd" stroke="none"/>
    <path d="M4.25 16.6 L4.4 16.65 4.45 16.75 4.55 18.25 4.6 19.85 4.65 20.8 4.7 20.85 4.75 20.95 4.8 21.35 4.8 21.8 4.75 22.2 4.75 22.3 4.7 22.35 4.6 22.45 4.55 22.45 4.4 22.5 4.2 22.45 4.1 22.35 4.0 22.25 4.0 21.95 4.0 21.6 4.0 21.2 3.95 21.15 3.9 21.05 3.85 19.45 3.95 17.75 4.0 16.7 4.1 16.65 4.25 16.6" fill="#333333" fill-rule="evenodd" stroke="none"/>
    <path d="M-3.25 18.2 L-3.15 18.1 -3.15 18.05 -3.05 17.95 -2.9 17.85 -2.75 17.8 -2.6 17.75 -1.5 17.8 -1.35 17.85 -1.3 17.95 -1.3 18.05 -1.35 18.1 -1.4 18.15 -2.65 18.3 -2.7 18.4 -2.8 18.45 -2.85 18.55 -2.9 18.65 -2.9 18.75 -2.9 18.85 -3.0 19.05 -3.05 19.1 -3.15 19.15 -3.25 19.2 -3.4 19.15 -3.45 19.05 -3.5 18.95 -3.45 18.9 -3.4 18.8 -3.35 18.7 -3.35 18.6 -3.3 18.4 -3.25 18.2" fill="#333333" fill-rule="evenodd" stroke="none"/>
    <path d="M1.7 20.2 L1.8 20.3 1.85 20.4 1.9 20.5 1.85 20.6 1.8 20.7 1.7 20.8 1.55 20.85 1.45 20.95 1.25 21.05 -2.35 20.95 -2.4 20.85 -2.4 20.8 -2.3 20.7 -2.1 20.6 1.25 20.4 1.45 20.3 1.55 20.25 1.65 20.2 1.7 20.2" fill="#333333" fill-rule="evenodd" stroke="none"/>
    <path d="M1.3 -7.85 L1.05 -8.0 0.95 -8.05 0.85 -8.05 0.8 -8.1 0.6 -8.15 0.5 -8.15 0.45 -8.2 0.4 -8.2 0.3 -8.15 0.2 -8.1 0.2 -8.05 0.15 -8.0 0.1 -7.9 0.0 -7.8 0.0 -7.75 -0.05 -7.65 -0.1 -7.45 -0.1 -7.2 -0.1 -7.15 0.8 -7.05 1.25 -7.05 1.3 -7.1 1.35 -7.15 1.4 -7.2 1.45 -7.25 1.5 -7.3 1.55 -7.35 1.55 -7.55 1.5 -7.6 1.5 -7.7 1.45 -7.75 1.3 -7.85 M1.7 -8.25 L1.75 -8.2 1.8 -8.15 1.9 -8.05 1.95 -8.0 2.0 -7.95 2.0 -7.9 2.05 -7.85 2.05 -7.75 2.05 -7.55 2.05 -7.45 2.05 -7.35 2.05 -7.25 2.0 -7.2 2.0 -7.1 1.95 -7.05 1.9 -7.0 1.85 -6.95 1.8 -6.9 1.65 -6.8 1.55 -6.7 1.45 -6.65 1.35 -6.6 1.3 -6.6 0.1 -6.65 -0.25 -6.75 -0.35 -6.75 -0.35 -6.8 -0.4 -6.85 -0.45 -6.9 -0.5 -6.95 -0.5 -7.15 -0.5 -7.35 -0.5 -7.45 -0.45 -7.65 -0.4 -7.9 -0.35 -8.0 -0.25 -8.15 -0.15 -8.2 -0.1 -8.3 0.0 -8.4 0.1 -8.45 0.35 -8.55 0.4 -8.6 0.45 -8.65 0.55 -8.65 0.55 -8.7 0.7 -8.7 0.8 -8.65 0.85 -8.6 0.95 -8.6 1.15 -8.55 1.25 -8.5 1.55 -8.35 1.7 -8.25" fill="#333333" fill-rule="evenodd" stroke="none"/>
    <path d="M0.45 -5.4 L0.55 -5.4 0.75 -5.4 0.85 -5.35 1.2 -5.2 1.55 -4.95 1.85 -4.6 1.9 -4.5 1.9 -4.45 1.95 -4.4 1.95 -4.3 1.95 -4.2 1.95 -4.1 1.95 -4.0 1.9 -3.9 1.9 -3.85 1.85 -3.8 1.75 -3.65 1.6 -3.5 1.45 -3.35 1.3 -3.3 0.4 -3.35 -0.1 -3.5 -0.25 -3.6 -0.4 -3.75 -0.55 -3.85 -0.65 -4.05 -0.65 -4.15 -0.65 -4.25 -0.65 -4.35 -0.65 -4.45 -0.65 -4.55 -0.65 -4.65 -0.65 -4.75 -0.55 -4.85 -0.5 -4.95 -0.4 -5.05 -0.25 -5.2 -0.2 -5.25 -0.1 -5.3 0.0 -5.3 0.05 -5.3 0.25 -5.3 0.3 -5.35 0.35 -5.35 0.45 -5.4 M0.3 -5.0 L0.25 -5.0 0.05 -5.0 0.0 -4.95 -0.1 -4.85 -0.2 -4.75 -0.25 -4.65 -0.25 -4.6 -0.25 -4.5 -0.25 -4.4 -0.25 -4.25 -0.2 -4.15 -0.15 -4.05 0.0 -3.9 0.1 -3.85 0.35 -3.75 0.55 -3.75 0.95 -3.75 1.2 -3.75 1.35 -3.9 1.4 -3.95 1.4 -4.05 1.45 -4.1 1.45 -4.3 1.4 -4.35 1.35 -4.35 1.35 -4.4 1.25 -4.5 1.0 -4.7 0.7 -4.85 0.7 -4.9 0.6 -4.85 0.55 -4.85 0.55 -4.8 0.5 -4.8 0.45 -4.75 0.35 -4.8 0.3 -4.85 0.3 -5.0" fill="#333333" fill-rule="evenodd" stroke="none"/>
    <path d="M0.55 -2.4 L1.0 -2.0 1.4 -1.55 1.65 -1.1 1.7 -1.0 1.7 -0.85 1.7 -0.7 1.7 -0.55 1.7 -0.45 1.7 -0.35 1.65 -0.3 1.65 -0.2 1.6 -0.15 1.5 0.0 1.3 0.15 1.1 0.25 0.75 0.3 0.45 0.25 0.3 0.2 -0.2 -0.05 -0.45 -0.25 -0.55 -0.4 -0.6 -0.45 -0.6 -0.55 -0.65 -0.6 -0.65 -0.65 -0.7 -0.85 -0.7 -1.0 -0.65 -1.2 -0.65 -1.45 -0.65 -1.5 -0.55 -1.6 -0.5 -1.75 -0.3 -1.95 -0.15 -2.1 -0.1 -2.15 -0.05 -2.2 -0.05 -2.35 0.0 -2.35 0.05 -2.4 0.15 -2.45 0.25 -2.45 0.35 -2.45 0.4 -2.45 0.5 -2.4 0.55 -2.4 M0.2 -1.8 L0.15 -1.8 0.05 -1.8 0.0 -1.75 -0.1 -1.65 -0.1 -1.6 -0.15 -1.6 -0.15 -1.55 -0.2 -1.5 -0.2 -1.45 -0.25 -1.4 -0.25 -1.35 -0.25 -1.25 -0.25 -1.15 -0.25 -1.0 -0.25 -0.85 0.05 -0.45 Q0.45 -0.15 0.95 -0.25 L1.05 -0.3 1.15 -0.4 1.2 -0.55 1.2 -0.7 1.15 -0.85 1.15 -1.0 0.95 -1.25 0.65 -1.65 0.35 -1.85 0.25 -1.85 0.2 -1.8" fill="#333333" fill-rule="evenodd" stroke="none"/>
    <path d="M5.3 2.75 L5.3 2.8 5.5 2.85 5.55 2.9 5.6 2.9 5.65 2.95 5.65 3.1 5.6 3.15 5.6 3.2 5.55 3.25 5.5 3.3 3.9 3.1 1.05 3.0 -4.45 3.35 -4.65 3.35 -5.4 3.45 -5.6 3.5 -5.75 3.45 -5.85 3.45 -5.85 3.4 -5.9 3.35 -5.85 3.3 -5.85 3.25 -5.75 3.2 -2.45 2.75 3.15 2.55 3.15 2.5 3.75 2.55 4.4 2.6 4.85 2.7 4.95 2.7 5.0 2.75 5.2 2.75 5.3 2.75" fill="#333333" fill-rule="evenodd" stroke="none"/>
    <path d="M3.5 1.8 L3.45 1.85 3.45 1.9 3.4 1.95 3.3 2.0 Q1.05 1.8 -1.15 2.05 L-1.35 2.05 -1.45 2.1 -1.6 2.15 -1.7 2.15 -1.8 2.2 -2.0 2.2 -2.2 2.2 -2.3 2.15 -2.3 2.1 Q-2.2 1.9 -1.9 1.9 L-1.65 1.9 -0.8 1.7 -0.6 1.7 1.05 1.55 2.7 1.55 3.3 1.55 3.4 1.6 3.5 1.7 3.5 1.8" fill="#333333" fill-rule="evenodd" stroke="none"/>
    <path d="M0.45 4.2 L0.5 4.25 0.6 4.3 0.65 4.35 0.75 4.4 0.9 4.5 1.05 4.65 1.2 4.85 1.3 4.95 1.3 5.0 1.35 5.05 1.35 5.15 1.4 5.25 1.45 5.35 1.45 5.7 1.4 5.75 1.4 5.8 1.35 5.85 1.35 5.95 1.3 6.0 1.3 6.1 1.25 6.15 1.2 6.2 1.15 6.25 1.1 6.3 1.05 6.35 0.9 6.4 0.85 6.4 0.85 6.45 0.25 6.45 0.15 6.4 -0.1 6.2 -0.45 6.0 -0.65 5.8 -0.65 5.7 -0.65 5.6 -0.65 5.45 -0.65 5.25 -0.65 5.1 -0.65 4.95 -0.6 4.9 -0.55 4.8 -0.5 4.7 -0.45 4.6 -0.3 4.45 -0.25 4.4 -0.2 4.4 -0.15 4.35 -0.1 4.35 -0.1 4.25 -0.05 4.2 0.0 4.15 0.1 4.15 0.15 4.15 0.25 4.1 0.35 4.15 0.45 4.2 M0.9 5.2 L0.85 5.15 0.7 5.0 0.5 4.8 0.4 4.7 0.3 4.7 0.25 4.65 0.2 4.65 -0.05 4.65 -0.1 4.75 -0.2 4.8 -0.25 4.9 -0.3 4.95 -0.3 5.0 -0.3 5.15 -0.35 5.35 -0.3 5.55 -0.3 5.6 -0.25 5.65 -0.15 5.7 0.0 5.85 0.25 6.0 0.25 6.05 0.75 6.0 0.85 5.95 0.85 5.9 0.9 5.9 0.9 5.8 0.95 5.75 0.95 5.35 0.9 5.3 0.9 5.2" fill="#333333" fill-rule="evenodd" stroke="none"/>
    <path d="M0.45 7.7 L0.55 7.7 0.7 7.65 0.85 7.7 0.95 7.8 1.2 7.95 1.35 8.05 1.4 8.1 1.45 8.15 1.45 8.2 1.5 8.25 1.5 8.3 1.55 8.35 1.55 8.5 1.55 8.65 1.55 8.9 1.45 9.25 1.4 9.3 1.4 9.35 1.35 9.4 1.3 9.4 1.3 9.45 1.0 9.7 Q0.6 10.0 0.1 9.9 L0.0 9.85 -0.1 9.8 -0.1 9.75 -0.15 9.7 -0.15 9.65 -0.2 9.65 -0.2 9.6 -0.25 9.55 -0.25 9.5 -0.3 9.45 -0.35 9.4 -0.35 9.35 -0.4 9.3 -0.4 9.05 -0.4 8.9 -0.4 8.8 -0.4 8.6 -0.4 8.35 -0.4 8.25 -0.3 8.15 -0.2 8.15 -0.2 8.1 -0.15 8.05 -0.15 8.0 -0.1 7.95 0.1 7.85 0.2 7.85 0.3 7.8 0.4 7.7 0.45 7.7 M0.75 8.25 L0.65 8.15 0.5 8.15 0.25 8.15 0.15 8.25 0.1 8.3 0.1 8.35 0.0 8.45 0.0 8.6 0.0 8.75 0.0 8.9 0.0 9.0 0.05 9.05 0.05 9.15 0.1 9.25 0.15 9.3 0.15 9.35 0.2 9.35 0.45 9.4 0.55 9.4 0.75 9.25 0.9 9.1 1.0 9.0 1.0 8.9 1.05 8.75 1.05 8.65 1.05 8.55 0.95 8.4 0.75 8.25" fill="#333333" fill-rule="evenodd" stroke="none"/>
    <path d="M0.95 11.55 L0.7 11.45 0.5 11.35 0.3 11.35 0.15 11.35 0.1 11.4 0.0 11.45 -0.05 11.5 -0.05 11.55 -0.05 11.7 -0.05 11.9 -0.05 12.15 0.0 12.2 0.0 12.25 0.1 12.3 0.15 12.35 0.8 12.35 0.85 12.3 0.9 12.25 0.95 12.2 1.0 12.15 1.05 12.15 1.1 12.1 1.1 12.05 1.1 11.95 1.1 11.8 1.1 11.65 1.0 11.6 0.95 11.55 M0.95 11.0 L1.25 11.15 1.5 11.35 1.55 11.4 1.55 11.45 1.6 11.5 1.6 11.6 1.6 11.65 1.6 11.75 1.6 11.9 1.55 12.15 1.55 12.3 1.5 12.35 1.5 12.4 1.45 12.4 1.4 12.45 1.25 12.55 1.2 12.6 1.15 12.65 1.1 12.7 1.05 12.75 0.8 12.8 0.2 12.85 0.1 12.8 -0.1 12.7 -0.25 12.6 -0.3 12.55 -0.4 12.45 -0.4 12.4 -0.45 12.35 -0.45 12.25 -0.45 12.15 -0.45 12.05 -0.45 11.95 -0.45 11.8 -0.45 11.65 -0.45 11.5 -0.45 11.45 -0.4 11.4 -0.4 11.35 -0.35 11.3 -0.35 11.25 -0.3 11.2 -0.2 11.15 -0.15 11.1 -0.15 11.0 -0.05 10.9 0.1 10.9 0.55 10.85 0.65 10.9 0.95 11.0" fill="#333333" fill-rule="evenodd" stroke="none"/>
    <path d="M1.05 -14.7 L1.0 -14.7 0.75 -14.7 0.7 -14.7 0.65 -14.65 0.2 -14.65 0.15 -14.7 0.1 -14.75 0.05 -14.75 0.0 -14.8 -0.1 -14.85 -0.2 -14.85 -0.3 -14.8 -0.4 -14.75 -0.45 -14.7 -0.45 -14.65 -4.15 -14.9 -7.0 -15.0 -7.2 -15.05 -7.25 -15.15 -7.3 -15.25 -7.25 -15.3 -7.25 -15.4 -7.2 -15.5 -4.1 -15.55 -3.85 -15.5 5.35 -15.55 5.45 -15.6 5.6 -15.6 6.25 -15.75 6.85 -15.8 6.95 -15.9 7.1 -15.9 7.75 -15.9 7.95 -15.85 8.05 -15.75 8.1 -15.65 8.15 -15.55 8.15 -15.5 8.1 -15.4 8.1 -15.3 8.0 -15.2 7.9 -15.15 7.75 -15.1 7.25 -15.05 7.15 -15.0 7.0 -14.95 6.35 -14.9 5.8 -14.85 5.7 -14.8 5.65 -14.75 1.15 -14.65 1.1 -14.65 1.05 -14.7" fill="#333333" fill-rule="evenodd" stroke="none"/>
    <path d="M-7.7 -15.25 L-7.5 -15.25 -7.5 -15.3 -7.35 -15.25 -7.2 -15.15 -7.15 -15.05 -7.05 -14.95 -7.0 -14.85 -7.0 -14.75 -6.95 -14.65 -6.95 -14.55 -6.95 -14.5 -6.95 -14.4 -6.95 -14.3 -6.9 -14.2 -6.9 -14.1 -6.8 -14.0 -6.75 -13.9 -6.7 -13.8 -6.7 -13.75 -6.7 -13.65 -6.65 -13.55 -6.65 -13.45 -6.6 -13.35 -6.55 -13.3 -6.45 -13.25 -6.35 -13.15 -6.4 -13.05 -6.4 -12.95 -6.45 -12.85 -6.45 -12.75 -6.5 -12.65 -6.55 -12.6 -6.65 -12.55 -6.75 -12.55 -6.95 -12.6 -7.05 -12.7 -7.15 -12.8 -7.2 -12.9 -7.2 -13.0 -7.2 -13.05 -7.2 -13.15 -7.25 -13.25 -7.3 -13.35 -7.3 -13.45 -7.3 -13.55 -7.3 -13.65 -7.35 -13.75 -7.4 -13.8 -7.45 -13.9 -7.45 -14.0 -7.5 -14.1 -7.5 -14.3 -7.55 -14.5 -7.55 -14.55 -7.55 -14.65 -7.65 -14.75 -7.75 -14.85 -7.8 -14.95 -7.75 -15.05 -7.75 -15.15 -7.7 -15.25" fill="#333333" fill-rule="evenodd" stroke="none"/>
    <path d="M7.7 -15.85 L7.85 -15.85 7.85 -15.9 8.05 -15.8 8.1 -15.7 8.2 -15.65 8.2 -15.55 8.2 -15.35 8.2 -15.15 8.2 -15.0 8.2 -14.9 8.15 -14.8 8.1 -14.7 8.1 -14.6 8.1 -14.5 8.1 -14.3 8.1 -14.15 8.05 -13.95 7.9 -13.65 7.7 -13.4 7.7 -13.3 7.65 -13.2 7.6 -13.1 7.55 -13.0 7.45 -12.9 7.4 -12.8 7.4 -12.7 7.35 -12.65 7.35 -12.55 7.3 -12.45 7.25 -12.35 7.2 -12.3 7.15 -12.25 7.0 -12.25 6.8 -12.3 6.7 -12.4 6.6 -12.5 6.6 -12.55 6.6 -12.75 6.65 -13.05 6.7 -13.25 6.7 -13.3 6.8 -13.4 6.8 -13.5 6.8 -13.6 6.8 -13.7 6.85 -13.8 6.9 -13.9 6.95 -14.0 6.95 -14.05 6.95 -14.15 6.95 -14.25 6.95 -14.35 7.0 -14.45 7.0 -14.55 7.05 -14.65 7.15 -14.8 7.25 -15.0 7.25 -15.1 7.35 -15.2 7.45 -15.3 7.45 -15.4 7.45 -15.5 7.45 -15.55 7.5 -15.65 7.55 -15.75 7.6 -15.8 7.7 -15.85" fill="#333333" fill-rule="evenodd" stroke="none"/>
    <path d="M0.0 -13.8 L0.0 -13.65 0.0 -13.55 -3.65 -13.55 -3.8 -13.6 -3.9 -13.65 -4.05 -13.65 -4.15 -13.7 -5.0 -13.8 -5.9 -13.85 -6.15 -13.9 -6.35 -14.0 -6.45 -14.0 -7.0 -14.05 -7.6 -14.1 -7.7 -14.2 -7.65 -14.3 -7.65 -14.4 -7.5 -14.45 -7.0 -14.5 -6.4 -14.5 -6.2 -14.45 -5.95 -14.4 -5.25 -14.3 -4.25 -14.3 -4.15 -14.25 -4.0 -14.25 -3.9 -14.2 -0.45 -14.15 -0.3 -14.0 0.0 -13.8 M1.35 -14.15 L1.4 -14.15 4.5 -14.25 4.6 -14.3 4.75 -14.3 6.05 -14.35 6.1 -14.4 6.3 -14.45 6.4 -14.5 6.45 -14.55 7.2 -14.65 7.35 -14.75 7.45 -14.8 7.6 -14.8 8.1 -14.75 8.4 -14.7 8.45 -14.6 8.5 -14.5 8.45 -14.4 8.4 -14.3 8.25 -14.25 8.1 -14.25 7.75 -14.15 7.6 -14.05 7.55 -14.0 7.45 -14.0 6.7 -13.9 6.6 -13.8 6.3 -13.75 4.7 -13.65 4.6 -13.55 4.5 -13.55 1.05 -13.55 1.05 -13.65 1.1 -13.7 1.1 -13.9 1.15 -13.9 1.2 -13.95 1.35 -14.1 1.35 -14.15" fill="#333333" fill-rule="evenodd" stroke="none"/>
    <path d="M-8.5 -12.65 L-8.4 -12.65 -8.05 -12.75 -7.2 -12.95 -7.15 -13.0 -7.0 -13.0 -6.85 -12.95 -6.75 -12.85 -6.6 -12.75 -6.55 -12.65 -6.55 -12.55 -6.6 -12.5 -6.65 -12.45 -6.75 -12.4 -6.95 -12.45 -7.15 -12.45 -7.2 -12.4 -10.75 -11.25 -13.1 -10.65 -14.65 -10.45 -15.4 -10.25 -15.95 -10.15 -16.2 -10.05 -16.3 -10.0 -16.35 -10.0 -16.7 -9.9 -16.9 -9.85 -17.15 -9.85 -17.4 -9.9 -17.45 -10.0 -17.55 -10.1 -17.55 -10.2 -17.55 -10.3 -17.55 -10.4 -17.5 -10.45 -17.3 -10.65 -17.1 -10.7 -16.9 -10.75 -16.65 -10.8 -16.55 -10.9 -16.05 -10.95 -15.4 -11.0 -14.8 -11.15 -13.95 -11.25 -11.0 -11.9 -8.6 -12.65 -8.5 -12.65" fill="#333333" fill-rule="evenodd" stroke="none"/>
    <path d="M0.15 -1.8 L0.1 -1.75 0.05 -1.7 -0.05 -1.7 -0.15 -1.65 -0.2 -1.65 -0.45 -1.4 -0.45 -1.35 -0.5 -1.3 -0.45 -3.9 -0.4 -3.85 0.05 -3.7 0.15 -3.65 0.15 -2.7 0.2 -1.8 0.15 -1.8 M0.1 -14.75 L0.05 -14.75 0.0 -14.8 -0.1 -14.85 -0.2 -14.85 -0.05 -14.9 0.0 -14.9 0.1 -14.8 0.1 -14.75 M-0.35 -14.0 L-0.3 -14.0 0.0 -13.8 0.0 -13.65 0.0 -13.4 0.05 -13.35 0.05 -13.3 0.1 -13.25 0.1 -12.0 0.05 -12.0 0.05 -11.7 0.1 -11.65 0.05 -8.6 0.05 -7.7 0.05 -7.65 0.0 -7.6 -0.05 -7.55 -0.05 -7.5 -0.1 -7.45 -0.1 -7.2 -0.05 -7.15 -0.05 -7.1 0.0 -7.05 0.0 -7.0 0.05 -6.95 0.1 -5.2 0.0 -5.2 -0.1 -5.2 -0.15 -5.15 -0.25 -5.15 -0.3 -5.1 -0.4 -5.05 -0.4 -5.0 -0.4 -10.35 -0.35 -14.0 M-0.45 -0.65 L-0.45 -0.6 0.0 -0.25 0.25 -0.2 0.2 3.2 0.15 4.55 0.0 4.6 -0.1 4.6 -0.2 4.65 -0.25 4.7 -0.4 4.85 -0.4 4.9 -0.45 4.95 -0.4 2.4 -0.5 -0.7 -0.45 -0.65 M-0.45 6.15 L-0.45 5.55 -0.4 5.6 -0.4 5.7 0.1 6.05 0.15 6.05 0.1 8.1 0.0 8.1 -0.05 8.15 -0.15 8.25 -0.2 8.3 -0.25 8.35 -0.35 8.4 -0.4 8.45 -0.45 8.45 -0.45 6.15 M-0.2 9.5 L0.1 9.6 0.1 11.2 0.05 11.2 -0.15 11.25 -0.2 11.3 -0.25 11.35 -0.25 11.4 -0.3 11.45 -0.3 11.5 -0.35 11.55 -0.35 11.65 -0.35 11.75 -0.35 12.05 -0.3 12.1 -0.3 12.15 0.1 12.5 0.05 13.35 0.1 13.45 0.15 13.5 0.15 13.6 0.15 13.7 0.15 13.8 0.2 13.9 0.2 14.0 0.2 14.95 0.2 15.95 0.2 16.6 0.2 16.7 0.15 16.8 0.05 16.9 0.0 16.95 -0.15 17.0 -0.35 16.95 -0.45 16.85 -0.5 16.75 -0.5 15.7 -0.5 14.7 -0.55 13.95 -0.5 13.85 -0.45 13.75 -0.45 13.65 -0.45 13.55 -0.45 13.45 -0.4 13.35 -0.35 13.25 -0.45 9.4 -0.4 9.45 -0.2 9.5" fill="#333333" fill-rule="evenodd" stroke="none"/>
    <path d="M1.25 -14.75 L1.25 -14.65 1.25 -14.6 1.2 -14.6 1.15 -14.65 1.05 -14.7 1.0 -14.7 0.8 -14.7 0.85 -14.8 0.85 -14.9 0.85 -15.0 0.95 -15.0 1.05 -15.05 1.2 -15.0 1.25 -14.9 1.25 -14.8 1.25 -14.75 M1.3 12.35 L1.35 12.3 1.35 12.25 1.4 12.2 1.45 15.75 1.4 16.6 1.35 16.7 1.3 16.75 1.2 16.85 1.05 16.85 0.85 16.8 0.75 16.7 0.65 16.6 0.65 12.7 1.05 12.6 1.1 12.55 1.25 12.45 1.3 12.4 1.3 12.35 M1.2 -0.25 L1.25 -0.25 1.2 0.95 Q1.15 3.9 1.35 6.85 L1.4 9.85 1.4 11.65 1.35 11.6 1.25 11.5 1.05 11.35 0.85 11.2 0.75 11.15 0.65 11.15 0.65 10.9 0.65 9.55 0.8 9.5 0.9 9.45 0.95 9.4 1.0 9.35 1.05 9.3 1.1 9.25 1.1 9.2 1.15 9.15 1.15 9.1 1.2 9.05 1.2 8.95 1.25 8.9 1.25 8.7 1.2 8.65 1.2 8.55 1.1 8.45 0.95 8.35 0.8 8.25 0.75 8.2 0.7 8.15 0.65 8.1 0.7 6.05 0.75 6.0 0.9 5.9 0.95 5.8 1.0 5.75 1.0 5.7 1.05 5.65 1.05 5.3 1.0 5.25 1.0 5.15 0.95 5.1 0.85 4.95 0.75 4.9 0.9 -0.2 1.2 -0.25 M1.1 -3.6 L1.2 -3.65 1.3 -3.7 1.25 -1.6 1.15 -1.65 1.1 -1.7 1.05 -1.75 0.95 -1.8 0.9 -1.8 0.9 -3.6 1.1 -3.6 M0.85 -6.9 L0.95 -6.95 1.05 -7.05 1.2 -7.05 1.25 -7.1 1.3 -7.1 1.3 -5.05 1.3 -4.9 1.25 -4.9 1.15 -4.95 1.05 -4.95 0.95 -4.95 0.85 -5.05 0.75 -6.8 0.75 -6.85 0.85 -6.9 M1.0 -13.55 L1.05 -13.55 1.05 -13.65 1.1 -13.7 1.1 -13.9 1.15 -13.9 1.2 -13.95 1.25 -13.9 1.3 -13.8 1.3 -8.25 1.15 -8.25 1.15 -8.3 1.1 -8.35 1.0 -8.4 0.95 -8.45 0.85 -8.5 0.75 -8.5 0.7 -8.5 0.7 -11.5 0.75 -11.55 0.8 -11.6 0.8 -11.65 0.85 -11.7 0.85 -11.8 0.85 -11.9 0.85 -12.05 0.8 -12.1 0.75 -12.15 0.75 -12.75 0.8 -13.35 0.8 -13.4 0.85 -13.4 0.95 -13.5 1.0 -13.55" fill="#333333" fill-rule="evenodd" stroke="none"/>
    <path d="M-16.55 -12.65 L-16.5 -12.7 -16.45 -12.8 -16.35 -12.9 -16.25 -13.0 -16.15 -13.1 -16.0 -13.15 -15.75 -13.2 -15.6 -13.2 -15.45 -13.25 -15.25 -13.3 -15.05 -13.25 -15.0 -13.25 -14.8 -13.2 -14.4 -12.9 -14.1 -12.65 -13.85 -12.15 -13.8 -12.05 -13.75 -11.9 -13.75 -11.8 -13.75 -11.7 -13.75 -11.6 -13.75 -11.5 -13.75 -11.4 -13.75 -11.3 -13.8 -11.2 -13.85 -11.15 -13.9 -11.05 -13.9 -10.95 -14.0 -10.85 -14.05 -10.75 -14.1 -10.65 -14.2 -10.55 -14.3 -10.45 -14.55 -10.4 -14.75 -10.3 -15.6 -10.3 -15.8 -10.4 -16.05 -10.55 -16.2 -10.65 -16.3 -10.75 -16.5 -10.85 -16.55 -10.95 -16.65 -11.05 -16.75 -11.15 -16.8 -11.2 -16.8 -11.3 -16.8 -11.4 -16.8 -11.5 -16.8 -11.6 -16.8 -11.7 -16.8 -11.8 -16.8 -11.9 -16.75 -12.05 -16.7 -12.15 -16.7 -12.25 -16.65 -12.35 -16.6 -12.55 -16.55 -12.65 M-15.95 -12.6 L-16.05 -12.5 -16.1 -12.3 -16.15 -12.05 -16.2 -11.75 -16.25 -11.65 -16.15 -11.5 -15.9 -11.2 -15.6 -11.05 -14.75 -11.05 -14.6 -11.15 -14.55 -11.25 -14.5 -11.35 -14.5 -11.45 -14.45 -11.55 -14.45 -11.65 -14.45 -11.7 -14.5 -11.9 -14.6 -12.1 -14.8 -12.4 -15.0 -12.45 -15.15 -12.55 -15.45 -12.75 -15.6 -12.8 -15.7 -12.75 -15.9 -12.7 -15.95 -12.6" fill="#333333" fill-rule="evenodd" stroke="none"/>
    <path d="M8.4 -12.65 L8.3 -12.65 7.95 -12.75 7.1 -12.95 7.05 -13.0 6.9 -13.0 6.75 -12.95 6.65 -12.85 6.5 -12.75 6.45 -12.65 6.45 -12.55 6.5 -12.5 6.55 -12.45 6.65 -12.4 6.85 -12.45 7.05 -12.45 7.1 -12.4 10.65 -11.25 13.0 -10.65 14.55 -10.45 Q14.9 -10.3 15.3 -10.25 L15.85 -10.15 16.1 -10.05 16.2 -10.0 16.25 -10.0 16.6 -9.9 16.8 -9.85 17.05 -9.85 17.3 -9.9 17.35 -10.0 17.45 -10.1 17.45 -10.2 17.45 -10.3 17.45 -10.4 17.4 -10.45 17.2 -10.65 17.0 -10.7 16.8 -10.75 16.55 -10.8 16.45 -10.9 15.95 -10.95 15.3 -11.0 14.7 -11.15 13.85 -11.25 10.9 -11.9 8.5 -12.65 8.4 -12.65" fill="#333333" fill-rule="evenodd" stroke="none"/>
    <path d="M16.45 -12.65 L16.4 -12.7 16.35 -12.8 16.25 -12.9 16.15 -13.0 16.05 -13.1 15.9 -13.15 15.65 -13.2 15.5 -13.2 15.35 -13.25 15.15 -13.3 14.95 -13.25 14.9 -13.25 14.7 -13.2 14.3 -12.9 14.0 -12.65 13.75 -12.15 13.7 -12.05 13.65 -11.9 13.65 -11.8 13.65 -11.7 13.65 -11.6 13.65 -11.5 13.65 -11.4 13.65 -11.3 13.7 -11.2 13.75 -11.15 13.8 -11.05 13.8 -10.95 13.9 -10.85 13.95 -10.75 14.0 -10.65 14.1 -10.55 14.2 -10.45 14.45 -10.4 14.65 -10.3 15.5 -10.3 15.7 -10.4 15.95 -10.55 16.1 -10.65 16.2 -10.75 16.4 -10.85 16.45 -10.95 16.55 -11.05 16.65 -11.15 16.7 -11.2 16.7 -11.3 16.7 -11.4 16.7 -11.5 16.7 -11.6 16.7 -11.7 16.7 -11.8 16.7 -11.9 16.65 -12.05 16.6 -12.15 16.6 -12.25 16.55 -12.35 16.5 -12.55 16.45 -12.65 M15.85 -12.6 L15.95 -12.5 16.0 -12.3 16.05 -12.05 16.1 -11.75 16.15 -11.65 16.05 -11.5 15.8 -11.2 15.5 -11.05 14.65 -11.05 14.5 -11.15 14.45 -11.25 14.4 -11.35 14.4 -11.45 14.35 -11.55 14.35 -11.65 14.35 -11.7 14.4 -11.9 14.5 -12.1 14.7 -12.4 14.9 -12.45 15.05 -12.55 15.35 -12.75 15.5 -12.8 15.6 -12.75 15.8 -12.7 15.85 -12.6" fill="#333333" fill-rule="evenodd" stroke="none"/>
    <path d="M-7.15 -12.85 L-7.05 -12.9 -7.0 -12.9 -6.85 -12.9 -6.65 -12.85 -6.5 -12.8 -6.4 -12.8 -6.3 -12.8 -6.2 -12.8 -6.15 -12.75 -6.1 -12.7 -6.1 -12.4 -6.15 -12.35 -6.3 -12.2 -6.4 -12.15 -6.5 -12.05 -6.6 -12.0 -6.75 -11.85 -6.8 -11.8 -6.9 -11.75 -6.95 -11.75 -7.05 -11.7 -7.25 -11.6 -7.3 -11.6 -7.4 -11.55 -7.5 -11.5 -7.55 -11.45 -7.65 -11.45 -7.75 -11.4 -7.85 -11.3 -8.1 -11.15 -8.55 -10.95 -8.65 -10.9 -8.75 -10.9 -8.8 -10.9 -8.85 -10.85 -8.95 -10.85 -9.0 -10.8 -9.05 -10.75 -9.8 -10.55 -10.8 -10.1 -10.95 -10.1 -11.05 -10.0 -11.15 -10.0 -11.4 -9.95 -11.5 -9.9 -11.6 -9.9 -11.9 -9.85 -12.25 -9.8 -12.3 -9.75 Q-13.3 -9.6 -14.35 -9.75 L-14.5 -9.8 -15.6 -9.95 -17.0 -10.25 -17.05 -10.3 -17.1 -10.35 -17.1 -10.7 -17.05 -10.75 -17.0 -10.8 -16.95 -10.8 -16.85 -10.85 -16.75 -10.8 -16.65 -10.75 -16.6 -10.75 -16.5 -10.7 -15.45 -10.5 -14.15 -10.25 -13.0 -10.25 -12.85 -10.25 -12.5 -10.3 -12.45 -10.35 -11.8 -10.45 -11.2 -10.55 -11.15 -10.6 -10.15 -10.9 -9.1 -11.35 -8.7 -11.45 -7.95 -11.8 -7.85 -11.85 -7.7 -11.9 -7.55 -12.0 -7.2 -12.15 -7.1 -12.2 -7.05 -12.2 -7.0 -12.25 -6.95 -12.3 -6.9 -12.35 -6.8 -12.4 -6.75 -12.45 -6.75 -12.5 -6.8 -12.55 -6.9 -12.55 -7.0 -12.6 -7.1 -12.6 -7.2 -12.7 -7.2 -12.8 -7.15 -12.85" fill="#333333" fill-rule="evenodd" stroke="none"/>
    <path d="M6.5 -12.45 L6.5 -12.5 6.55 -12.55 6.6 -12.55 6.7 -12.6 6.8 -12.6 6.85 -12.65 6.95 -12.65 7.1 -12.7 7.15 -12.7 7.2 -12.75 7.3 -12.75 7.45 -12.8 7.6 -12.8 7.65 -12.75 7.75 -12.7 7.8 -12.65 7.8 -12.55 7.75 -12.5 7.7 -12.45 7.65 -12.5 7.6 -12.5 7.4 -12.5 7.3 -12.45 7.25 -12.4 7.2 -12.4 7.05 -12.35 7.15 -12.25 7.25 -12.2 7.35 -12.15 7.45 -12.15 7.55 -12.1 Q8.2 -11.7 8.95 -11.4 9.5 -11.1 10.15 -10.95 L10.25 -10.9 10.35 -10.85 10.45 -10.85 10.5 -10.8 10.6 -10.75 10.75 -10.7 11.0 -10.6 11.3 -10.5 11.6 -10.4 12.3 -10.2 13.05 -10.15 13.35 -10.05 14.9 -10.05 15.95 -10.2 16.55 -10.3 16.6 -10.35 16.75 -10.35 16.95 -10.35 17.05 -10.35 17.1 -10.3 17.15 -10.25 17.15 -10.2 17.2 -10.15 17.2 -10.0 17.15 -9.95 17.05 -9.85 17.0 -9.85 16.9 -9.8 16.8 -9.75 16.7 -9.75 16.6 -9.75 16.35 -9.75 13.25 -9.5 13.1 -9.55 13.05 -9.55 11.9 -9.85 11.2 -10.0 10.85 -10.15 10.8 -10.15 10.65 -10.2 10.45 -10.25 10.35 -10.3 10.3 -10.3 10.1 -10.4 10.0 -10.5 8.45 -11.1 Q7.9 -11.35 7.4 -11.65 L7.35 -11.7 7.25 -11.7 7.2 -11.7 7.1 -11.75 7.0 -11.8 6.95 -11.85 6.9 -11.9 6.75 -11.95 6.7 -12.0 6.6 -12.0 6.45 -12.15 6.45 -12.4 6.5 -12.45" fill="#333333" fill-rule="evenodd" stroke="none"/>
    <path d="M6.1 -12.6 L6.25 -12.65 6.3 -12.65 6.45 -12.7 6.5 -12.7 6.55 -12.75 6.65 -12.8 6.75 -12.85 6.85 -12.8 6.9 -12.75 6.9 -12.7 6.95 -12.65 6.95 -12.6 6.9 -12.6 6.9 -12.5 6.85 -12.45 6.85 -12.4 6.8 -12.35 6.75 -12.3 6.7 -12.25 5.9 -12.05 5.5 -12.0 5.0 -11.95 4.85 -11.9 4.8 -11.85 4.75 -11.85 4.45 -11.8 4.35 -11.8 3.9 -11.7 3.0 -11.55 2.95 -11.55 2.95 -11.5 0.65 -11.45 0.75 -11.55 0.8 -11.6 0.8 -11.65 0.85 -11.7 0.85 -11.8 0.85 -11.9 0.85 -11.95 2.35 -11.95 2.5 -12.0 2.75 -12.05 2.8 -12.05 3.6 -12.2 4.35 -12.35 4.95 -12.4 5.9 -12.5 6.1 -12.6 M0.05 -11.7 L0.1 -11.65 0.1 -11.6 0.2 -11.5 -3.65 -11.85 -4.85 -12.15 -5.65 -12.3 -6.5 -12.5 -6.65 -12.55 -6.7 -12.6 -6.75 -12.65 -6.8 -12.7 -6.85 -12.75 -6.85 -12.85 -6.85 -12.9 -6.8 -12.95 -6.75 -13.0 -6.65 -13.05 -6.6 -13.05 -6.5 -13.0 -6.45 -12.95 -3.6 -12.4 -0.9 -12.05 0.05 -12.0 0.05 -11.7" fill="#333333" fill-rule="evenodd" stroke="none"/>
    <path d="M3.35 -13.2 L3.4 -13.25 5.4 -13.5 5.95 -13.6 6.05 -13.65 6.1 -13.7 6.25 -13.7 6.3 -13.65 6.3 -13.55 6.25 -13.5 6.2 -13.45 6.05 -13.35 6.0 -13.35 5.7 -13.25 5.3 -13.15 5.1 -13.1 3.75 -12.95 3.5 -12.9 3.4 -12.95 3.35 -13.0 3.35 -13.05 3.3 -13.1 3.35 -13.15 3.35 -13.2" fill="#333333" fill-rule="evenodd" stroke="none"/>
    <path d="M4.3 -12.85 L4.4 -12.9 4.5 -12.9 4.65 -12.95 4.75 -13.0 5.7 -13.1 6.1 -13.15 6.15 -13.15 6.2 -13.2 6.25 -13.2 6.3 -13.15 6.35 -13.1 6.25 -13.0 6.15 -12.9 6.1 -12.85 5.5 -12.75 4.8 -12.65 4.75 -12.6 4.65 -12.6 4.5 -12.6 4.4 -12.6 4.3 -12.65 4.3 -12.7 4.25 -12.75 4.3 -12.8 4.3 -12.85" fill="#333333" fill-rule="evenodd" stroke="none"/>
    <path d="M10.8 11.4 L10.65 11.3 10.45 11.2 10.35 11.15 10.3 11.15 9.9 10.95 9.2 10.9 9.15 10.85 9.15 10.8 9.85 10.75 9.9 10.7 10.0 10.75 10.1 10.75 10.2 10.75 10.6 10.95 11.05 11.1 11.35 11.2 11.8 11.4 12.2 11.6 12.3 11.65 12.35 11.7 12.45 11.7 12.5 11.75 12.5 11.8 12.55 11.85 12.55 11.9 12.55 11.95 12.55 12.0 12.5 12.05 12.45 12.05 11.85 11.9 11.1 11.55 10.8 11.4" fill="#333333" fill-rule="evenodd" stroke="none"/>
    <path d="M9.5 13.9 L9.85 13.95 10.05 14.0 10.15 14.05 10.2 14.1 10.5 14.2 10.8 14.25 10.95 14.35 11.0 14.4 11.05 14.45 11.05 14.5 11.1 14.55 11.05 14.6 11.05 14.65 11.0 14.7 10.9 14.7 10.5 14.55 10.35 14.55 10.1 14.45 10.0 14.4 9.95 14.35 9.9 14.35 9.8 14.3 9.7 14.25 9.6 14.25 9.5 14.2 9.35 14.15 9.15 14.1 9.05 14.1 9.05 13.95 9.1 13.9 9.15 13.9 9.25 13.9 9.5 13.9" fill="#333333" fill-rule="evenodd" stroke="none"/>
    <path d="M9.0 12.45 L9.25 12.5 9.45 12.5 9.6 12.55 10.6 12.75 10.9 12.8 11.75 13.0 12.25 13.15 12.3 13.2 12.3 13.25 12.35 13.3 12.35 13.35 12.3 13.4 12.25 13.45 12.15 13.5 12.05 13.5 12.0 13.5 11.15 13.35 9.8 13.0 8.85 12.8 8.8 12.75 8.8 12.7 8.75 12.65 8.8 12.65 8.8 12.55 8.85 12.5 8.9 12.5 9.0 12.5 9.0 12.45" fill="#333333" fill-rule="evenodd" stroke="none"/>
    <path d="M10.45 4.05 L9.2 3.9 9.1 3.8 9.0 3.8 8.9 3.75 8.55 3.7 8.5 3.6 8.5 3.55 8.55 3.5 8.6 3.5 8.9 3.5 9.0 3.5 9.15 3.55 9.2 3.55 9.7 3.5 11.0 3.75 12.35 4.1 13.65 4.45 13.7 4.5 13.7 4.6 13.75 4.65 13.75 4.7 13.7 4.8 13.7 4.9 13.6 4.95 13.5 4.95 13.4 4.95 13.25 4.9 13.2 4.85 13.1 4.75 13.0 4.7 12.05 4.45 10.45 4.05" fill="#333333" fill-rule="evenodd" stroke="none"/>
    <path d="M12.35 3.4 L12.15 3.3 12.2 3.25 12.35 3.2 12.4 3.15 12.5 3.1 12.6 3.1 12.7 3.1 12.85 3.15 12.9 3.2 13.0 3.25 13.15 3.35 13.2 3.4 13.2 3.5 13.25 3.55 13.25 3.6 13.25 3.7 13.2 3.75 13.1 3.8 13.0 3.75 12.9 3.7 12.75 3.7 12.7 3.6 12.65 3.55 12.6 3.55 12.5 3.5 12.4 3.45 12.35 3.4" fill="#333333" fill-rule="evenodd" stroke="none"/>
  </g>
</svg>
