<?xml version="1.0" encoding="UTF-8" standalone="no"?>
<svg xmlns:xlink="http://www.w3.org/1999/xlink" height="24.85px" width="58.65px" xmlns="http://www.w3.org/2000/svg">
  <g transform="matrix(1.0, 0.0, 0.0, 1.0, 0.35, 84.4)">
    <path d="M16.6 -81.85 L16.2 -81.25 Q15.85 -81.0 15.45 -81.05 L12.5 -81.5 11.8 -81.9 Q11.55 -82.2 11.6 -82.6 11.65 -83.05 12.0 -83.3 L12.75 -83.5 15.8 -83.0 16.4 -82.6 16.6 -81.85 M4.35 -82.6 L3.65 -82.35 0.65 -82.4 Q0.25 -82.4 -0.05 -82.7 L-0.35 -83.4 -0.05 -84.1 Q0.25 -84.4 0.65 -84.4 L3.7 -84.35 Q4.1 -84.35 4.4 -84.0 L4.65 -83.3 4.35 -82.6 M35.0 -74.95 Q34.6 -75.15 34.45 -75.5 34.3 -75.9 34.5 -76.25 L35.1 -76.8 35.85 -76.75 38.55 -75.35 39.0 -74.75 38.95 -74.0 Q38.7 -73.65 38.35 -73.55 L37.6 -73.6 35.0 -74.95 M23.85 -80.85 L24.6 -80.95 27.4 -80.1 28.0 -79.6 28.05 -78.85 27.55 -78.25 26.8 -78.2 24.05 -79.05 23.45 -79.5 Q23.25 -79.9 23.35 -80.25 23.45 -80.65 23.85 -80.85 M46.3 -70.75 L48.8 -69.0 49.2 -68.35 49.0 -67.6 Q48.75 -67.25 48.35 -67.2 47.95 -67.15 47.6 -67.4 L45.2 -69.1 Q44.85 -69.35 44.8 -69.75 44.7 -70.15 44.95 -70.5 45.15 -70.85 45.55 -70.9 L46.3 -70.75 M55.05 -63.6 L55.8 -63.35 58.0 -61.25 58.3 -60.55 58.05 -59.85 57.35 -59.55 Q56.9 -59.55 56.6 -59.8 L54.45 -61.85 Q54.1 -62.15 54.1 -62.55 54.1 -62.95 54.35 -63.25 54.65 -63.6 55.05 -63.6" fill="#ffffff" fill-rule="evenodd" stroke="none"/>
  </g>
</svg>
