<?xml version="1.0" encoding="UTF-8" standalone="no"?>
<svg xmlns:xlink="http://www.w3.org/1999/xlink" height="35.3px" width="33.8px" xmlns="http://www.w3.org/2000/svg">
  <g transform="matrix(1.0, 0.0, 0.0, 1.0, 3.95, 29.85)">
    <path d="M27.85 1.4 Q27.85 0.95 28.2 0.7 28.45 0.4 28.9 0.4 29.3 0.4 29.6 0.75 L29.85 1.45 29.6 4.6 29.2 5.25 28.5 5.45 27.8 5.05 Q27.55 4.75 27.6 4.35 L27.85 1.4 M26.85 -11.2 L27.6 -11.15 28.1 -10.55 29.0 -7.6 28.85 -6.85 Q28.65 -6.5 28.25 -6.4 L27.5 -6.55 Q27.1 -6.75 27.05 -7.15 L26.2 -9.9 Q26.05 -10.3 26.25 -10.65 L26.85 -11.2 M19.85 -19.55 Q19.55 -19.85 19.55 -20.25 19.55 -20.65 19.85 -20.95 L20.55 -21.25 Q20.95 -21.25 21.25 -20.95 L23.35 -18.7 23.6 -17.95 23.25 -17.3 Q22.95 -17.0 22.55 -17.05 22.1 -17.1 21.85 -17.4 L19.85 -19.55 M9.85 -26.5 Q9.65 -26.9 9.85 -27.25 9.95 -27.65 10.35 -27.8 10.75 -28.0 11.15 -27.8 L13.95 -26.5 14.4 -25.9 14.35 -25.15 Q14.1 -24.8 13.75 -24.7 L13.0 -24.75 10.4 -25.95 Q10.0 -26.1 9.85 -26.5 M2.0 -29.8 Q2.4 -29.8 2.7 -29.45 L2.95 -28.75 2.65 -28.05 1.9 -27.8 0.05 -27.85 0.0 -27.85 -2.85 -27.7 Q-3.25 -27.65 -3.55 -27.9 L-3.95 -28.6 -3.7 -29.3 -3.05 -29.7 0.0 -29.85 0.05 -29.85 2.0 -29.8" fill="#ffffff" fill-rule="evenodd" stroke="none"/>
  </g>
</svg>
