<?xml version="1.0" encoding="UTF-8" standalone="no"?>
<svg xmlns:xlink="http://www.w3.org/1999/xlink" height="16.65px" width="27.6px" xmlns="http://www.w3.org/2000/svg">
  <g transform="matrix(1.0, 0.0, 0.0, 1.0, 13.8, 8.3)">
    <path d="M8.65 -7.3 Q12.45 -6.95 12.45 -5.35 L2.7 0.2 Q-7.25 5.85 -7.8 5.85 -9.15 5.85 -9.15 4.25 L-11.1 4.1 Q-11.9 3.6 -11.9 3.05 -11.9 -3.8 0.3 -6.55 4.95 -7.65 8.65 -7.3" fill="#d1d0a5" fill-rule="evenodd" stroke="none"/>
    <path d="M0.35 -6.5 Q0.35 -6.05 -3.9 -2.15 L-9.2 2.7 -2.75 -2.6 Q1.8 -6.5 2.35 -6.5 3.15 -6.5 3.05 -6.0 L-0.95 -2.35 Q-5.4 1.8 -7.8 4.85 L-0.7 -1.8 Q4.55 -6.75 5.55 -6.75 6.15 -6.75 6.15 -6.3 6.15 -5.95 2.55 -2.55 L-2.7 2.5 -2.75 2.55 3.15 -2.55 Q7.35 -5.9 9.35 -5.9 9.85 -5.9 9.85 -5.25 L5.5 -1.65 5.4 -1.55 8.45 -3.55 Q11.1 -5.3 11.4 -5.3 11.95 -5.3 12.1 -4.75 13.45 -5.25 13.45 -4.6 L8.2 -1.6 7.5 -1.15 5.3 0.1 2.1 2.1 Q0.95 3.35 -1.95 4.95 -7.0 7.7 -11.15 7.7 L-11.4 7.7 -11.0 8.2 -11.1 8.35 Q-12.35 7.9 -13.0 7.3 L-13.1 7.25 -13.1 7.2 -13.65 6.4 -13.8 4.2 Q-13.8 2.0 -13.4 0.6 -12.75 -1.5 -11.1 -2.85 L-10.65 -2.6 Q-12.15 -0.85 -12.6 1.65 -11.7 -0.7 -9.2 -3.15 -3.95 -8.3 5.0 -8.3 9.35 -8.3 11.8 -7.2 L13.8 -5.85 13.7 -5.55 Q10.2 -7.2 6.45 -7.2 1.5 -7.2 -1.95 -6.2 -5.7 -3.6 -8.75 0.55 L-8.75 0.6 -3.1 -4.25 Q0.35 -7.3 0.35 -6.5 M2.9 -0.7 L-0.5 2.15 -1.3 2.8 2.75 0.25 2.85 0.3 2.75 0.0 Q2.65 -0.5 2.9 -0.65 L2.9 -0.7 M2.9 0.4 L2.95 0.4 2.9 0.35 2.9 0.4 M-10.5 1.9 Q-10.5 1.4 -6.9 -2.6 L-4.1 -5.45 -6.55 -4.0 Q-9.4 -1.8 -11.45 3.6 L-11.15 3.15 -10.15 2.35 -10.5 1.9 M-4.7 4.0 L-4.55 3.5 -4.55 3.45 -7.4 5.8 -4.35 4.45 -4.7 4.0" fill="#333333" fill-rule="evenodd" stroke="none"/>
  </g>
</svg>
