<?xml version="1.0" encoding="UTF-8" standalone="no"?>
<svg xmlns:xlink="http://www.w3.org/1999/xlink" height="41.5px" width="49.3px" xmlns="http://www.w3.org/2000/svg">
  <g transform="matrix(1.0, 0.0, 0.0, 1.0, 24.65, 20.75)">
    <path d="M23.0 -10.4 L23.25 -10.05 23.35 -9.65 23.4 -9.3 23.4 -8.9 23.4 -8.55 23.4 -8.15 23.4 -7.8 23.5 -7.45 23.55 -7.4 23.5 -2.05 23.5 7.5 23.5 16.15 23.55 16.35 23.65 16.55 23.7 16.7 23.8 16.9 23.75 16.95 23.65 17.35 23.45 17.65 23.05 18.1 22.65 18.5 22.4 18.85 21.9 19.2 21.0 19.45 20.0 19.45 17.5 19.45 11.5 19.25 10.5 19.1 9.9 19.1 9.65 19.15 -0.6 19.6 -1.5 19.85 -6.1 20.1 -7.0 20.35 -16.0 20.35 -16.9 20.1 -19.35 19.6 -20.5 19.35 -21.35 19.1 -21.85 18.7 -22.6 17.95 -23.0 17.6 -23.35 17.2 -23.6 16.85 -23.75 16.5 -24.1 15.7 -24.2 15.35 -24.25 14.6 -24.25 14.2 -24.25 13.45 -24.25 12.7 -24.25 11.6 -24.25 10.45 -24.2 10.1 -23.85 9.35 -23.65 8.95 -23.45 8.6 -23.25 8.2 -23.25 7.85 -23.25 7.1 -23.25 6.7 -23.25 4.45 -23.25 -0.4 -23.25 -6.05 -23.25 -6.8 -23.1 -7.15 -22.85 -7.55 -22.8 -7.9 -22.75 -8.3 -22.7 -8.65 -22.6 -9.05 -22.45 -9.35 -21.75 -10.15 -21.35 -10.55 -21.0 -10.9 -20.6 -11.3 -20.1 -11.55 -19.5 -11.6 -8.35 -11.8 -8.1 -11.85 -3.1 -12.15 -2.6 -12.3 -2.1 -12.4 -1.5 -12.45 -1.5 -12.55 8.5 -12.4 9.4 -12.3 17.5 -12.3 18.5 -12.3 19.4 -12.05 21.4 -11.55 22.0 -11.2 Q22.4 -10.95 22.75 -10.8 L23.0 -10.4" fill="#9e6f50" fill-rule="evenodd" stroke="none"/>
    <path d="M18.4 -9.05 L18.85 -8.65 19.25 -8.3 20.0 -7.9 20.5 -7.55 20.65 -7.15 20.75 -6.8 20.9 -6.4 20.9 -6.05 20.9 -5.3 20.9 -4.15 20.9 -2.65 Q21.0 -1.5 20.75 -0.4 L20.8 -0.05 20.95 1.45 20.9 4.45 20.9 8.2 20.9 9.7 20.75 10.1 20.65 10.45 20.65 10.85 20.75 11.2 20.9 11.6 21.0 11.95 21.0 12.35 20.85 12.7 20.65 13.1 20.4 13.45 20.35 13.85 20.25 14.2 20.0 14.6 19.75 14.95 19.4 15.35 19.05 15.75 18.6 16.45 18.4 16.85 17.9 17.2 17.0 17.45 14.0 17.4 13.4 17.3 13.15 17.2 12.4 17.35 11.5 17.6 10.5 17.6 -16.0 17.45 -16.85 17.2 -17.5 17.0 -18.35 16.7 -18.85 16.35 -19.25 15.95 -19.6 15.6 -19.75 15.2 -19.85 14.85 -20.0 14.45 -20.0 14.1 -20.0 13.35 -20.0 12.2 -20.0 10.7 -20.0 8.45 -20.1 8.1 -20.25 7.7 -20.35 7.35 -20.35 6.95 -20.35 6.6 -20.35 6.2 -20.35 5.85 -20.35 5.1 -20.35 4.7 -20.35 4.35 -20.5 3.95 -20.6 3.6 -20.75 3.2 -21.0 2.85 -21.25 2.45 -21.3 2.1 -21.35 0.6 -21.35 -2.05 -21.45 -5.4 -21.25 -6.55 -21.1 -6.9 -20.75 -7.25 -20.35 -7.55 -20.1 -7.65 -19.25 -7.95 -18.4 -8.3 -17.85 -8.55 -17.6 -8.65 -17.0 -8.75 2.5 -9.05 2.9 -9.4 3.4 -9.65 4.0 -9.7 4.0 -9.8 15.5 -9.8 16.4 -9.55 17.5 -9.25 18.4 -9.05" fill="#bda775" fill-rule="evenodd" stroke="none"/>
    <path d="M18.75 4.95 L17.4 8.9 Q10.5 11.05 4.7 6.3 L3.6 5.45 5.95 -0.7 18.9 3.2 18.75 4.95" fill="#e6e6cc" fill-rule="evenodd" stroke="none"/>
    <path d="M-10.15 -18.15 L-8.3 -19.75 -2.5 -20.1 2.2 -20.4 4.0 -20.65 7.1 -20.35 9.4 -19.1 11.8 -17.25 12.0 -15.75 Q11.95 -15.1 11.45 -14.65 L9.3 -14.8 9.15 -15.25 Q8.85 -16.75 7.7 -17.75 L5.2 -17.9 -4.95 -17.5 -5.4 -17.8 -7.3 -17.3 -7.95 -16.55 -8.0 -15.4 -8.45 -14.9 -9.35 -14.95 -10.0 -14.5 -10.55 -14.8 Q-10.75 -14.9 -10.75 -15.35 L-10.55 -16.7 -10.15 -18.15" fill="#9e6f50" fill-rule="evenodd" stroke="none"/>
    <path d="M15.6 6.9 Q11.15 7.7 7.15 6.15 L5.75 5.25 5.6 2.3 7.4 1.5 Q11.15 3.4 15.45 3.5 16.35 4.75 15.95 6.25 L15.6 6.9" fill="#d76c53" fill-rule="evenodd" stroke="none"/>
    <path d="M-6.9 1.3 L-7.3 2.3 Q-8.9 2.3 -10.4 0.45 L-10.75 -0.35 Q-14.3 -2.0 -15.5 -4.45 L-14.65 -4.5 -14.2 -5.0 Q-9.55 -5.75 -5.5 -7.75 L-4.5 -7.05 Q-5.9 -2.9 -6.9 1.3" fill="#999933" fill-rule="evenodd" stroke="none"/>
    <path d="M-1.75 7.85 Q0.9 4.05 3.65 7.05 L4.1 7.75 6.1 8.15 Q9.9 17.0 0.7 14.35 -0.9 13.85 -1.5 12.2 -2.05 10.9 -2.25 9.4 L-1.75 7.85" fill="#8399a7" fill-rule="evenodd" stroke="none"/>
    <path d="M-7.75 -5.05 L-7.05 -4.6 -7.55 -1.55 -8.5 -0.8 -11.9 -2.75 -12.15 -3.5 -7.75 -5.05" fill="#e6e6cc" fill-rule="evenodd" stroke="none"/>
    <path d="M2.2 7.7 Q3.3 7.7 4.1 8.5 4.85 9.25 4.85 10.3 4.85 11.3 4.1 12.1 3.3 12.85 2.2 12.85 1.1 12.85 0.35 12.1 -0.4 11.3 -0.4 10.3 -0.4 9.25 0.35 8.5 1.1 7.7 2.2 7.7" fill="#e6e6cc" fill-rule="evenodd" stroke="none"/>
    <path d="M-7.9 -13.8 L-7.65 -13.65 -7.5 -13.45 -7.45 -13.25 -7.45 -13.05 -7.5 -12.9 -7.55 -12.7 -7.75 -12.5 -7.95 -12.4 -11.7 -12.55 -11.8 -12.75 -11.9 -12.95 -11.95 -13.15 -11.9 -13.3 -11.8 -13.5 -11.7 -13.7 -8.5 -13.95 -8.25 -13.95 -7.9 -13.8" fill="#cc9933" fill-rule="evenodd" stroke="none"/>
    <path d="M12.4 -13.4 L12.5 -13.2 12.55 -13.0 12.55 -12.8 12.55 -12.65 12.5 -12.45 12.4 -12.25 12.3 -12.1 12.2 -11.95 12.05 -11.9 11.75 -11.8 10.5 -11.55 8.25 -11.55 7.8 -11.7 7.6 -11.9 7.5 -11.95 7.05 -12.05 6.8 -12.25 6.7 -12.45 6.7 -12.65 6.7 -12.8 6.8 -13.0 7.0 -13.15 7.25 -13.2 7.55 -13.3 7.75 -13.5 7.95 -13.65 8.25 -13.65 8.25 -13.7 11.75 -13.7 12.1 -13.55 12.4 -13.4" fill="#cc9933" fill-rule="evenodd" stroke="none"/>
    <path d="M-7.5 6.2 L-8.5 6.35 -8.75 6.4 -18.25 6.4 -18.5 6.35 -18.75 6.25 -19.0 6.2 -19.25 6.15 -19.7 6.2 -20.0 6.35 -20.3 6.2 -20.45 6.0 -20.5 5.85 -20.45 5.65 -20.3 5.45 -20.15 5.25 -20.0 5.15 -19.75 5.1 -19.25 5.05 -19.25 5.0 -19.0 5.1 -18.75 5.15 -18.5 5.2 -8.75 5.25 -8.5 5.3 -7.5 5.4 -7.2 5.55 -7.15 5.65 -6.2 5.8 -6.15 5.9 -6.25 5.95 -7.2 6.1 -7.5 6.2" fill="#663333" fill-opacity="0.2" fill-rule="evenodd" stroke="none"/>
    <path d="M-18.25 9.5 L-11.25 9.5 -11.0 9.55 -10.25 9.65 -9.95 9.8 -9.9 9.9 -9.45 10.05 -9.4 10.15 -9.5 10.2 -9.95 10.35 -10.0 10.45 -10.25 10.5 -11.0 10.6 -11.25 10.65 Q-14.75 10.65 -18.25 10.8 L-20.3 10.4 -20.4 10.2 -20.45 10.0 -20.35 9.85 -20.25 9.75 -20.0 9.65 -19.75 9.6 -18.25 9.55 -18.25 9.5" fill="#663333" fill-opacity="0.2" fill-rule="evenodd" stroke="none"/>
    <path d="M-15.5 -0.15 L-15.45 0.0 -15.5 0.15 -15.65 0.35 -15.55 0.5 -15.45 0.7 Q-15.2 2.85 -15.2 5.0 L-15.25 9.35 -15.25 11.95 -15.3 12.15 -15.4 12.35 -15.45 12.55 -15.45 12.7 -15.45 12.9 -15.45 13.1 -15.55 13.2 -15.95 13.35 -16.05 13.15 -16.05 12.95 -16.05 12.8 -16.05 12.6 -16.15 12.4 -16.25 12.2 -16.25 8.1 -16.25 3.75 -16.15 1.15 -16.15 0.95 -16.2 0.75 -16.25 0.6 -16.3 0.4 -16.3 0.25 -16.15 0.0 -16.05 -0.15 -15.95 -0.3 -15.95 -0.35 -15.75 -0.35 -15.65 -0.35 -15.5 -0.15" fill="#663333" fill-opacity="0.2" fill-rule="evenodd" stroke="none"/>
    <path d="M14.5 9.5 L14.9 9.65 16.7 9.65 16.9 9.5 16.95 9.5 17.25 9.4 17.65 9.5 17.8 9.75 17.9 9.9 17.95 10.1 17.9 10.25 17.8 10.45 17.8 10.65 17.75 10.85 17.65 11.0 17.5 11.2 17.3 11.35 14.5 11.4 14.1 11.25 13.95 11.15 12.5 10.8 11.65 10.5 10.25 9.95 9.5 9.8 9.05 9.7 8.8 9.55 8.65 9.4 8.5 9.35 8.25 9.25 7.8 9.15 7.7 8.95 7.6 8.75 7.55 8.6 7.6 8.4 7.65 8.2 7.7 8.0 7.9 7.85 8.25 7.75 8.25 7.7 8.65 7.85 9.15 8.0 9.4 8.2 11.45 8.8 Q12.4 9.25 13.45 9.4 L14.5 9.5" fill="#663333" fill-opacity="0.2" fill-rule="evenodd" stroke="none"/>
    <path d="M-3.2 -6.45 L-3.15 -6.3 -3.1 -6.1 -3.1 -5.9 -3.15 -5.75 -3.25 -5.55 -3.45 -5.15 -3.65 -4.8 -3.75 -4.6 -3.85 -4.25 -4.0 -3.65 -4.2 -3.1 -4.25 -2.9 -4.35 -2.75 -4.55 -2.35 -4.75 -2.0 -4.8 -1.8 -4.9 -1.6 -5.0 -1.25 -5.05 -1.05 -5.35 -0.45 -5.7 0.05 -6.25 0.65 -6.3 0.85 -6.4 1.0 -6.45 1.2 -6.55 1.4 -6.6 1.6 -6.65 1.95 -6.6 2.35 -6.55 2.5 -6.6 2.7 -6.7 2.9 -6.8 3.1 -8.5 3.35 -8.75 3.35 -9.2 3.2 -11.4 0.8 -13.9 -1.65 -14.05 -1.85 -14.4 -2.05 -14.95 -2.25 -15.1 -2.45 -15.25 -2.6 -15.3 -2.8 -15.3 -3.0 -15.15 -3.3 -14.8 -3.65 -14.25 -3.65 -13.25 -3.55 -12.95 -3.4 -12.75 -3.2 -12.65 -3.05 -12.65 -2.85 -12.65 -2.65 -11.0 -0.95 -9.3 0.7 -9.15 0.9 -9.05 1.1 -8.95 1.25 -8.8 1.45 -8.7 1.55 -8.4 1.7 -8.2 1.85 -7.9 1.7 -7.9 1.6 -7.85 1.4 -7.75 1.2 -7.65 1.0 -7.55 0.85 -7.5 0.65 -7.45 0.45 -7.4 0.25 -6.95 -0.3 Q-6.55 -0.6 -6.3 -1.05 L-6.15 -1.4 -6.05 -1.6 -6.0 -1.8 -5.9 -2.15 -5.8 -2.35 -5.7 -2.55 -5.5 -2.9 -5.3 -3.3 -5.25 -3.5 -5.2 -3.65 -5.05 -4.05 -5.0 -4.25 -4.9 -4.4 -4.8 -4.6 -4.75 -4.8 -4.7 -5.0 -4.55 -5.15 -4.4 -5.55 -4.15 -5.9 -4.0 -6.1 -3.95 -6.3 -3.8 -6.5 -3.5 -6.55 -3.5 -6.6 -3.2 -6.45" fill="#663333" fill-opacity="0.2" fill-rule="evenodd" stroke="none"/>
    <path d="M6.9 8.35 L7.05 8.15 7.5 8.05 7.5 8.0 7.9 8.15 8.1 8.35 8.4 8.75 8.65 9.1 8.75 9.25 8.85 9.85 8.8 10.75 8.8 11.9 8.75 12.1 8.7 12.25 8.5 12.65 8.25 13.05 8.05 13.4 7.95 13.5 7.8 13.6 7.55 13.7 7.5 13.9 7.35 14.1 7.2 14.3 7.0 14.45 6.7 14.65 6.45 14.8 6.3 14.85 6.0 14.95 5.8 15.15 5.7 15.3 5.55 15.35 5.25 15.5 5.05 15.6 4.75 15.65 3.5 15.9 1.0 15.9 0.55 15.8 -0.55 15.0 Q-1.25 14.5 -2.0 14.1 L-2.2 13.9 -2.4 13.7 -2.75 13.35 -2.9 13.15 -2.95 12.95 -3.0 12.8 -3.15 12.6 -3.3 12.4 -3.45 12.2 -3.65 11.85 -3.6 11.65 -3.55 11.45 -3.5 11.3 -3.5 11.1 -3.5 10.9 -3.45 10.7 -3.4 10.5 -3.35 10.35 -3.3 10.15 -3.2 10.0 -2.9 9.9 -2.75 10.1 -2.7 10.3 -2.65 10.45 -2.65 10.65 -2.55 10.85 -2.5 11.05 -2.5 11.2 -2.5 11.4 -2.2 11.75 -1.7 12.3 -1.05 13.05 -0.95 13.1 -0.2 13.45 0.3 13.8 0.9 13.95 1.15 14.15 3.55 14.15 4.0 14.0 5.0 13.7 5.2 13.55 5.3 13.4 5.45 13.35 5.9 13.2 6.0 13.05 6.3 12.65 6.7 12.3 6.9 12.1 6.95 11.9 7.0 11.7 7.15 11.55 7.15 11.35 7.2 10.95 7.2 10.6 7.2 10.2 7.2 10.0 7.1 9.85 6.95 9.65 6.75 9.45 6.7 9.25 6.7 9.1 6.7 8.9 6.7 8.7 6.75 8.55 6.9 8.35" fill="#663333" fill-opacity="0.2" fill-rule="evenodd" stroke="none"/>
    <path d="M17.25 -8.75 L17.35 -8.55 17.4 -8.35 17.3 -8.2 17.2 -8.0 17.0 -7.8 16.8 -7.65 16.5 -7.65 Q-0.55 -6.95 -17.5 -8.0 L-18.05 -8.1 -18.25 -8.3 -18.25 -8.45 -18.15 -8.65 -18.0 -8.75 -2.75 -9.35 13.75 -9.3 16.5 -9.25 16.9 -9.1 17.15 -8.9 17.25 -8.75" fill="#663333" fill-opacity="0.2" fill-rule="evenodd" stroke="none"/>
    <path d="M-16.5 -9.15 L-16.0 -9.15 -15.65 -9.05 -15.45 -8.85 -15.3 -8.65 -15.2 -8.5 -15.25 -8.3 -15.35 -8.1 -15.45 -7.9 -15.7 -7.75 -15.95 -7.55 -16.15 -7.35 -16.5 -7.15 -17.1 -6.65 Q-17.75 -6.1 -18.45 -5.7 L-18.9 -5.5 -19.0 -5.3 -19.1 -5.1 -19.2 -4.9 -19.25 -4.75 -19.25 -4.55 -19.25 -4.35 -19.25 -4.15 -19.25 -4.0 -19.3 -3.8 -19.35 -3.6 -19.45 -3.4 -19.45 0.7 -19.4 7.45 -19.3 13.85 -19.4 14.05 -19.45 14.2 -19.55 14.4 -19.75 14.6 -19.95 14.7 -20.25 14.8 -20.7 14.65 -20.95 14.45 -21.15 14.3 -21.15 9.6 -21.1 2.45 -21.0 -4.1 -20.95 -4.3 -20.8 -4.5 -20.75 -4.65 -20.75 -4.85 -20.75 -5.05 -20.75 -5.4 -20.75 -5.6 -20.7 -5.8 -20.6 -6.0 -20.5 -6.15 -20.35 -6.35 -20.2 -6.55 -20.15 -6.75 -20.15 -6.9 -20.15 -7.1 -20.0 -7.3 -19.8 -7.5 -19.65 -7.65 -19.4 -7.85 -19.0 -8.0 -18.65 -8.1 -18.45 -8.3 -18.25 -8.5 -17.95 -8.65 -17.7 -8.8 -17.15 -9.0 -16.8 -9.1 -16.5 -9.15" fill="#663333" fill-opacity="0.2" fill-rule="evenodd" stroke="none"/>
    <path d="M-7.4 -13.9 L-7.15 -13.75 -6.7 -13.5 -6.65 -13.35 -6.75 -13.25 -7.15 -13.1 -7.3 -12.9 -7.4 -12.75 -7.5 -12.55 -7.55 -12.35 -7.65 -12.25 -7.75 -12.2 -8.0 -12.1 -8.25 -12.1 -8.75 -12.1 -9.0 -12.05 -9.5 -12.05 -9.9 -12.15 -10.05 -12.35 -10.15 -12.55 -10.15 -12.75 -10.1 -12.9 -9.95 -13.1 -9.9 -13.3 -9.8 -13.5 -9.7 -13.65 -9.55 -13.8 -9.5 -13.85 -9.25 -13.9 -9.0 -14.0 -8.8 -14.05 -8.5 -14.1 -7.75 -14.05 -7.4 -13.9" fill="#663333" fill-opacity="0.2" fill-rule="evenodd" stroke="none"/>
    <path d="M11.3 -13.9 L11.5 -13.75 11.6 -13.55 11.65 -13.35 11.65 -13.15 11.65 -13.0 11.55 -12.8 11.4 -12.6 11.0 -12.5 9.25 -12.55 8.9 -12.65 8.7 -12.85 8.65 -13.05 8.65 -13.25 8.65 -13.4 8.65 -13.6 8.75 -13.8 8.9 -13.9 9.25 -14.0 9.9 -14.15 10.0 -14.15 10.25 -14.25 10.5 -14.15 10.65 -14.1 11.0 -14.05 11.3 -13.9" fill="#663333" fill-opacity="0.2" fill-rule="evenodd" stroke="none"/>
    <path d="M-8.95 -18.25 L-8.8 -18.4 -8.7 -18.55 -8.55 -18.6 -8.25 -18.7 -7.7 -18.8 -7.25 -18.9 2.8 -19.15 3.25 -19.25 7.0 -19.25 7.4 -19.1 7.95 -18.9 8.25 -18.75 8.65 -18.55 8.8 -18.35 8.95 -18.15 9.05 -18.0 9.15 -17.8 9.15 -17.6 9.2 -17.45 9.4 -17.25 9.65 -17.05 9.75 -16.85 9.95 -16.65 10.05 -16.5 10.15 -16.3 10.25 -16.1 10.3 -15.9 10.35 -15.75 10.4 -15.55 10.35 -15.35 10.3 -15.15 10.25 -15.0 10.15 -14.8 9.95 -14.65 9.8 -14.6 9.5 -14.55 9.05 -14.65 8.8 -14.85 8.65 -15.05 8.5 -15.25 8.4 -15.45 8.3 -15.6 8.15 -15.8 7.95 -16.0 7.75 -16.15 7.7 -16.35 7.6 -16.55 7.5 -16.75 7.35 -16.9 7.2 -17.1 6.9 -17.3 6.7 -17.5 5.7 -17.5 5.5 -17.3 5.3 -17.15 5.0 -17.15 -4.25 -17.1 -4.7 -17.25 -4.8 -17.3 -7.3 -17.3 -7.5 -17.1 -7.45 -16.9 -7.5 -16.75 -7.55 -16.55 -7.55 -16.35 -7.55 -16.15 -7.6 -16.0 -7.65 -15.8 -7.7 -15.6 -7.85 -15.4 -8.0 -15.25 -8.25 -15.05 -8.5 -14.85 -8.7 -14.65 -9.0 -14.55 -9.4 -14.65 -9.55 -14.85 -9.6 -15.05 -9.65 -15.25 -9.65 -15.4 -9.65 -15.6 -9.65 -15.8 -9.65 -16.0 -9.6 -16.15 -9.5 -16.35 -9.45 -16.55 -9.4 -16.75 -9.25 -16.9 -9.2 -17.1 -9.2 -17.3 -9.2 -17.5 -9.15 -17.65 -9.05 -17.85 -9.0 -18.05 -8.95 -18.25" fill="#663333" fill-opacity="0.2" fill-rule="evenodd" stroke="none"/>
    <path d="M-9.7 -16.1 L-9.5 -16.25 -9.25 -16.3 -8.25 -16.35 -7.9 -16.25 -7.7 -16.05 -7.65 -15.85 -7.6 -15.65 -7.55 -15.5 -7.55 -15.3 -7.7 -15.1 -7.8 -14.9 -8.05 -14.75 -8.25 -14.6 -8.5 -14.55 -9.75 -14.55 -10.15 -14.65 -10.3 -14.85 -10.35 -15.05 -10.4 -15.25 -10.4 -15.4 -10.35 -15.6 -10.25 -15.8 -10.15 -15.9 -10.0 -16.0 -9.7 -16.1" fill="#663333" fill-opacity="0.2" fill-rule="evenodd" stroke="none"/>
    <path d="M8.0 -16.0 L8.1 -16.15 8.3 -16.3 8.6 -16.35 8.85 -16.35 10.85 -16.3 11.15 -16.15 11.35 -16.0 11.45 -15.8 11.5 -15.6 11.45 -15.45 11.4 -15.25 11.35 -15.05 11.1 -14.85 11.0 -14.75 10.85 -14.7 10.6 -14.6 10.35 -14.6 9.35 -14.65 9.0 -14.8 8.6 -14.75 8.15 -14.85 8.05 -15.05 7.9 -15.25 7.9 -15.4 7.9 -15.6 7.9 -15.8 8.0 -16.0" fill="#663333" fill-opacity="0.2" fill-rule="evenodd" stroke="none"/>
    <path d="M5.8 -8.05 L5.95 -6.75 5.95 -5.4 5.9 -4.5 5.8 -4.3 5.7 -4.1 5.7 -3.9 5.7 -3.75 5.55 -3.6 5.4 -3.55 5.35 -3.75 5.3 -3.9 5.25 -4.1 5.15 -4.3 5.1 -5.6 5.1 -6.9 5.15 -8.05 5.25 -8.15 5.3 -8.2 5.5 -8.25 5.65 -8.25 5.8 -8.05" fill="#663333" fill-opacity="0.2" fill-rule="evenodd" stroke="none"/>
    <path d="M16.0 -9.65 L16.3 -9.55 16.45 -9.35 Q17.0 -7.25 16.95 -5.05 L16.9 -0.55 16.9 2.1 16.8 2.25 16.75 2.45 16.65 2.65 16.5 2.85 16.05 2.9 15.8 2.7 15.7 2.5 15.6 -1.25 15.65 -5.15 15.75 -7.8 15.75 -8.0 15.7 -8.35 15.6 -8.75 15.5 -9.1 15.55 -9.3 15.65 -9.5 15.75 -9.55 16.0 -9.65" fill="#663333" fill-opacity="0.2" fill-rule="evenodd" stroke="none"/>
    <path d="M19.8 -5.05 L20.05 -4.85 20.15 -4.65 20.05 -4.5 19.8 -4.3 19.5 -4.15 11.25 -4.25 9.55 -4.35 9.4 -4.55 9.4 -4.7 9.5 -4.9 9.75 -5.05 10.25 -5.1 11.25 -5.15 19.5 -5.15 19.8 -5.05" fill="#663333" fill-opacity="0.2" fill-rule="evenodd" stroke="none"/>
    <path d="M-6.0 11.65 L-5.9 11.65 -5.75 11.85 -5.65 12.05 -5.45 13.7 -5.4 15.6 -5.5 16.9 -5.65 17.1 -5.75 17.25 -5.95 17.45 -6.1 17.4 -6.25 17.3 -6.4 17.1 -6.5 16.9 -6.6 15.2 -6.55 13.35 -6.4 12.05 -6.3 11.85 -6.2 11.7 -6.0 11.65" fill="#663333" fill-opacity="0.2" fill-rule="evenodd" stroke="none"/>
    <path d="M12.9 13.85 L11.95 15.15 10.7 16.75 -6.7 17.9 Q-12.6 17.95 -17.9 16.4 -19.95 15.8 -21.5 14.35 L-21.65 10.25 Q-19.65 8.2 -15.85 8.7 L-15.6 8.35 -15.6 7.6 -14.9 7.1 Q-13.5 6.35 -11.85 6.2 -12.95 3.85 -10.95 2.95 -10.15 2.5 -9.1 2.45 -7.1 2.3 -5.35 1.2 -4.65 -1.3 -2.35 -0.6 -0.35 -0.2 1.15 1.25 L2.25 2.3 Q4.2 2.25 5.5 3.5 6.15 4.1 6.35 4.8 L6.65 5.95 6.85 6.75 Q10.05 7.7 11.75 10.2 L12.65 11.6 12.9 13.85" fill="#663333" fill-opacity="0.2" fill-rule="evenodd" stroke="none"/>
    <path d="M16.0 2.35 L16.25 2.85 16.15 3.6 17.3 5.6 21.4 6.1 21.9 6.85 22.05 7.2 Q22.4 9.1 20.4 9.45 24.15 11.55 21.3 14.35 18.3 17.35 13.65 17.4 -0.35 18.4 -14.45 17.25 -15.55 16.95 -15.6 15.6 L-15.5 14.5 -14.55 13.75 -13.8 13.5 -12.0 13.1 -9.75 10.85 -10.25 10.1 -10.15 7.85 Q-8.85 5.05 -6.0 4.4 -4.5 4.35 -3.25 5.1 1.35 3.4 2.45 -1.15 5.3 -4.0 9.1 -4.55 11.7 -4.2 13.1 -1.9 L14.5 0.95 15.55 1.8 16.0 2.35" fill="#663333" fill-opacity="0.2" fill-rule="evenodd" stroke="none"/>
    <path d="M-8.4 -20.0 L1.1 -20.15 1.1 -20.2 4.1 -20.2 4.35 -20.15 4.6 -20.05 4.9 -19.9 4.95 -19.75 5.0 -19.6 4.9 -19.4 4.85 -19.3 4.6 -19.2 4.35 -19.15 4.1 -19.05 Q-2.25 -19.0 -8.6 -19.3 L-8.8 -19.5 -8.75 -19.7 -8.65 -19.9 -8.4 -20.0" fill="#ffffff" fill-opacity="0.2" fill-rule="evenodd" stroke="none"/>
    <path d="M20.4 -11.6 L20.9 -11.45 21.1 -11.25 21.1 -11.1 21.05 -10.9 20.8 -10.75 20.4 -10.7 20.05 -10.6 18.8 -10.5 9.85 -10.45 9.4 -10.55 7.6 -10.6 4.6 -10.65 4.15 -10.75 -3.3 -10.75 -3.65 -10.65 -15.8 -10.5 -16.15 -10.4 -16.4 -10.35 -17.05 -10.3 -17.4 -10.2 -18.05 -10.05 -18.4 -9.95 -19.05 -9.8 -19.4 -9.7 -19.7 -9.55 -19.95 -9.35 -20.1 -9.25 -20.45 -9.15 -20.65 -8.95 -21.05 -8.75 -21.2 -8.55 -21.35 -8.4 -21.45 -8.3 Q-21.55 -8.2 -21.65 -8.2 L-21.95 -8.3 -22.1 -8.5 -22.15 -8.7 -22.3 -8.9 -22.3 -9.05 -22.3 -9.25 -22.3 -9.45 -22.25 -9.6 -22.1 -9.8 -21.9 -10.0 -21.8 -10.15 -21.65 -10.2 -21.35 -10.3 -21.15 -10.5 -20.9 -10.6 -20.6 -10.75 -20.35 -10.95 -19.9 -11.1 -19.6 -11.2 -19.15 -11.3 -18.6 -11.45 -18.15 -11.55 -17.6 -11.7 -16.65 -11.95 -16.45 -12.05 -16.15 -12.1 -3.4 -12.35 -3.4 -12.4 4.35 -12.4 4.7 -12.25 7.6 -12.15 9.35 -12.05 9.8 -11.95 18.8 -11.75 20.05 -11.65 20.4 -11.6" fill="#ffffff" fill-opacity="0.2" fill-rule="evenodd" stroke="none"/>
    <path d="M-9.65 -13.9 L-9.55 -13.75 -9.5 -13.6 -9.6 -13.4 -9.7 -13.3 -9.9 -13.2 -10.9 -13.2 -11.25 -13.35 -11.4 -13.45 -11.8 -13.7 -11.65 -13.75 -11.35 -13.9 -11.15 -14.0 -10.9 -14.05 -9.9 -14.05 -9.65 -13.9" fill="#ffffff" fill-opacity="0.2" fill-rule="evenodd" stroke="none"/>
    <path d="M14.15 17.75 L14.35 17.95 14.5 18.15 14.4 18.3 14.3 18.5 14.25 18.65 14.1 18.7 13.85 18.75 Q-0.85 19.0 -15.55 18.3 L-15.55 18.15 -15.4 18.0 Q-2.0 17.45 11.35 17.65 L13.85 17.65 14.15 17.75" fill="#ffffff" fill-opacity="0.2" fill-rule="evenodd" stroke="none"/>
    <path d="M-9.75 -17.7 L-9.8 -17.55 -10.05 -15.9 -10.05 -15.7 -9.8 -15.05 -8.7 -15.05 -8.6 -15.0 -8.55 -15.85 -8.4 -16.35 -8.45 -16.4 -8.4 -16.7 -8.15 -17.4 -7.9 -17.7 Q-7.3 -18.5 -6.0 -18.6 L-4.1 -18.5 -3.0 -18.25 -1.45 -18.1 0.35 -17.85 2.95 -18.15 5.75 -18.6 7.75 -18.15 Q8.7 -17.6 9.1 -15.95 L9.25 -15.0 10.1 -15.0 10.1 -15.1 10.15 -15.15 10.1 -15.25 10.1 -15.3 10.1 -15.5 10.1 -15.6 10.15 -15.7 10.2 -15.8 10.2 -15.9 10.2 -16.0 10.25 -16.05 10.3 -16.15 10.35 -16.25 10.35 -16.4 10.3 -16.5 10.2 -16.6 10.1 -16.7 10.0 -16.8 9.95 -16.9 9.95 -17.0 9.95 -17.15 9.95 -17.25 9.95 -17.35 9.95 -17.5 9.95 -17.65 9.95 -17.75 9.95 -17.85 9.95 -17.95 10.0 -18.05 10.05 -18.1 9.75 -18.45 Q8.5 -19.4 7.0 -19.75 L5.7 -19.85 5.65 -19.9 Q0.3 -19.7 -5.05 -19.9 L-5.1 -19.85 -6.4 -19.75 Q-7.9 -19.4 -9.15 -18.45 L-9.75 -17.7 M-10.95 -15.9 L-10.95 -16.1 -10.95 -16.4 Q-10.9 -18.35 -9.2 -19.5 -7.85 -20.4 -6.35 -20.55 L-6.3 -20.55 -6.25 -20.6 4.5 -20.7 4.9 -20.7 6.4 -20.65 6.95 -20.55 Q8.45 -20.4 9.8 -19.5 11.5 -18.35 11.55 -16.4 L11.55 -16.1 11.55 -15.9 11.45 -15.25 11.45 -15.15 11.45 -15.1 11.45 -14.95 11.45 -14.85 11.45 -14.8 11.45 -14.65 11.45 -14.6 11.4 -14.4 11.35 -14.3 11.3 -14.2 11.15 -14.15 10.95 -14.05 10.75 -14.0 10.65 -14.05 10.25 -13.85 10.15 -14.2 9.9 -14.2 9.3 -14.25 9.2 -14.3 8.8 -13.65 Q8.4 -13.8 8.35 -14.15 L8.35 -14.45 8.35 -14.75 8.4 -14.9 7.95 -15.95 7.0 -16.7 5.6 -17.1 2.45 -16.8 Q0.25 -16.35 -2.2 -16.85 L-6.55 -16.95 -7.35 -15.9 -7.55 -15.35 -7.65 -14.8 -7.65 -14.7 -7.65 -14.65 -7.6 -14.3 -7.6 -14.25 Q-7.55 -13.6 -8.1 -13.35 L-8.55 -13.85 -8.55 -14.1 -8.7 -14.1 -9.5 -14.05 -9.65 -13.85 -10.6 -14.3 -10.75 -14.9 -10.95 -15.9" fill="#333333" fill-rule="evenodd" stroke="none"/>
    <path d="M23.9 -7.05 L23.9 -7.1 24.2 -6.95 24.35 -6.75 Q24.7 -2.75 24.6 1.25 L24.55 9.55 24.65 14.15 24.65 14.3 24.55 14.5 24.45 14.7 24.35 14.8 24.2 14.85 23.9 14.95 23.45 14.8 23.25 14.6 Q23.15 14.55 23.4 12.35 L23.65 5.75 23.4 -1.55 Q23.15 -4.55 23.45 -6.85 L23.6 -6.95 23.65 -7.0 23.9 -7.05 M18.75 -12.7 L18.8 -12.5 18.8 -12.3 18.75 -12.1 18.65 -12.0 18.55 -11.95 18.25 -11.85 15.35 -11.85 15.2 -11.75 14.95 -11.7 13.7 -11.6 12.9 -11.65 4.5 -11.7 -10.3 -11.7 -17.5 -11.85 -17.6 -12.05 -17.65 -12.25 -17.55 -12.4 -16.15 -12.85 -4.15 -12.95 4.35 -12.8 10.2 -12.7 15.75 -12.85 18.6 -12.85 18.75 -12.7 M18.45 19.85 L18.4 20.05 18.25 20.2 18.15 20.4 18.0 20.5 6.1 20.75 -2.15 20.75 -11.25 20.4 -17.35 20.4 -17.65 20.2 -17.7 20.05 -17.65 19.85 -17.5 19.65 -17.15 19.55 -14.8 19.35 Q-13.15 19.15 -8.85 19.35 L0.0 19.4 1.95 19.4 1.95 19.35 13.15 19.4 17.75 19.4 18.0 19.35 18.35 19.5 18.45 19.65 18.45 19.85 M-23.7 -7.25 L-23.55 -7.1 -23.5 -6.7 -23.45 -6.35 -23.45 -5.9 -23.45 -5.7 -23.4 -5.55 -23.3 -5.35 -23.25 1.05 -23.2 7.1 -23.1 11.3 -23.25 12.65 -23.35 13.0 -23.45 13.4 -23.5 13.6 -23.6 13.75 -23.75 13.95 -23.9 13.9 -24.1 13.75 -24.2 13.6 -24.2 13.4 -24.3 13.2 Q-24.75 9.35 -24.6 5.35 L-24.4 -2.65 -24.15 -6.9 -24.05 -7.1 -24.0 -7.2 -24.0 -7.25 -23.8 -7.25 -23.7 -7.25" fill="#333333" fill-rule="evenodd" stroke="none"/>
    <path d="M-14.75 -11.95 L-15.15 -11.65 Q-16.5 -11.9 -17.85 -11.65 -19.35 -11.55 -20.8 -10.6 -22.85 -9.25 -23.1 -6.75 L-23.15 -3.85 -23.15 -3.8 -23.2 -3.7 -23.2 -3.6 -23.25 -3.5 -23.3 -3.4 -23.3 -3.3 -23.3 -3.2 -23.3 -3.1 -23.3 -3.0 -23.3 -2.95 -23.35 -2.85 -23.4 -2.75 -23.7 -2.65 -23.9 -2.55 -24.1 -2.55 -24.4 -2.8 -24.6 -6.05 Q-24.55 -9.0 -22.6 -11.1 -21.85 -11.9 -20.8 -12.3 -18.15 -13.4 -15.35 -12.7 L-15.05 -12.5 -14.8 -12.35 -14.75 -12.15 -14.75 -11.95" fill="#333333" fill-rule="evenodd" stroke="none"/>
    <path d="M14.8 19.6 L15.2 19.3 Q16.55 19.55 17.9 19.3 19.4 19.2 20.85 18.25 22.9 16.9 23.15 14.4 L23.2 11.5 23.2 11.45 23.25 11.35 23.25 11.25 23.3 11.15 23.35 11.05 23.35 10.95 23.35 10.85 23.35 10.75 23.35 10.65 23.35 10.6 23.4 10.5 23.45 10.4 23.75 10.3 23.95 10.2 24.15 10.2 24.45 10.45 24.65 13.7 Q24.6 16.65 22.65 18.75 L20.85 19.95 Q18.2 21.05 15.4 20.35 L15.1 20.15 14.85 20.0 14.8 19.8 14.8 19.6" fill="#333333" fill-rule="evenodd" stroke="none"/>
    <path d="M-14.75 19.6 L-15.15 19.3 Q-16.5 19.55 -17.85 19.3 -19.35 19.2 -20.8 18.25 -22.85 16.9 -23.1 14.4 L-23.15 11.5 -23.15 11.45 -23.2 11.35 -23.2 11.25 -23.25 11.15 -23.3 11.05 -23.3 10.95 -23.3 10.85 -23.3 10.75 -23.3 10.65 -23.3 10.6 -23.35 10.5 -23.4 10.4 -23.7 10.3 -23.9 10.2 -24.1 10.2 -24.4 10.45 -24.6 13.7 Q-24.55 16.65 -22.6 18.75 -21.85 19.55 -20.8 19.95 -18.15 21.05 -15.35 20.35 L-15.05 20.15 -14.8 20.0 -14.75 19.8 -14.75 19.6" fill="#333333" fill-rule="evenodd" stroke="none"/>
    <path d="M14.8 -11.95 L15.2 -11.65 Q16.55 -11.9 17.9 -11.65 19.4 -11.55 20.85 -10.6 22.9 -9.25 23.15 -6.75 L23.2 -3.85 23.2 -3.8 23.25 -3.7 23.25 -3.6 23.3 -3.5 23.35 -3.4 23.35 -3.3 23.35 -3.2 23.35 -3.1 23.35 -3.0 23.35 -2.95 23.4 -2.85 23.45 -2.75 23.75 -2.65 23.95 -2.55 24.15 -2.55 24.45 -2.8 24.65 -6.05 Q24.6 -9.0 22.65 -11.1 21.9 -11.9 20.85 -12.3 18.2 -13.4 15.4 -12.7 L15.1 -12.5 14.85 -12.35 14.8 -12.15 14.8 -11.95" fill="#333333" fill-rule="evenodd" stroke="none"/>
    <path d="M12.45 -9.15 L12.3 -9.1 12.1 -9.05 11.1 -8.95 10.4 -9.0 3.45 -9.05 -8.85 -9.05 -13.6 -9.1 -13.65 -9.1 -13.85 -9.1 -14.8 -9.15 -14.85 -9.2 -15.9 -9.1 Q-17.2 -9.0 -18.35 -8.25 -20.05 -7.1 -20.3 -5.05 L-20.3 -2.6 -20.35 -2.55 -20.35 -2.45 -20.4 -2.35 -20.45 -2.3 -20.45 -2.2 -20.45 -2.1 -20.45 -2.05 -20.45 -1.95 -20.45 -1.9 -20.5 -1.8 -20.6 -1.7 -20.55 1.65 -20.5 7.35 -20.5 9.15 -20.5 9.2 -20.45 9.25 -20.45 9.3 -20.45 9.4 -20.45 9.45 -20.45 9.55 -20.45 9.65 -20.4 9.7 -20.35 9.8 -20.35 9.9 -20.3 9.95 -20.3 12.4 -19.9 13.75 Q-19.55 15.25 -18.05 16.25 -16.45 17.25 -15.15 17.35 L-14.45 17.45 -7.0 17.35 -5.1 17.6 -5.1 17.65 -5.1 17.75 -5.1 17.8 -5.15 17.9 -14.45 17.85 Q-16.3 18.05 -18.05 17.3 L-19.55 16.3 Q-21.2 14.55 -21.25 12.15 L-21.2 11.3 Q-21.6 8.3 -21.45 5.1 L-21.3 -1.55 -21.2 -3.2 -21.25 -4.2 Q-21.2 -6.6 -19.55 -8.35 L-18.05 -9.35 Q-15.85 -10.3 -13.55 -9.7 L-13.4 -9.7 -3.45 -9.8 5.65 -9.75 5.85 -9.8 14.05 -9.8 Q16.1 -10.2 18.1 -9.35 19.0 -9.0 19.6 -8.35 21.25 -6.6 21.3 -4.2 L21.25 -2.7 21.35 -0.55 21.15 13.45 Q20.8 15.05 19.6 16.3 L18.1 17.3 Q16.1 18.15 14.0 17.75 L5.05 17.9 0.75 17.9 0.7 17.85 0.6 17.75 0.5 17.65 0.65 17.6 0.8 17.5 0.9 17.4 0.95 17.35 2.05 17.35 11.35 17.35 13.85 17.35 15.2 17.35 15.4 17.35 15.65 17.45 16.1 17.35 Q17.4 17.25 18.55 16.5 20.2 15.4 20.5 13.45 L20.55 -0.6 20.6 -1.5 20.55 -1.55 20.55 -1.65 20.5 -1.7 20.5 -4.15 Q20.3 -5.6 19.45 -6.6 L18.8 -7.35 18.7 -7.5 17.8 -8.25 Q16.65 -9.0 15.35 -9.1 L14.9 -9.15 14.85 -9.15 13.45 -9.15 13.1 -9.1 13.05 -9.15 12.45 -9.15" fill="#333333" fill-rule="evenodd" stroke="none"/>
    <path d="M-7.05 -12.5 L-7.1 -12.55 -7.6 -12.25 -8.3 -12.4 -8.25 -13.2 -8.15 -13.35 -8.1 -13.4 -11.35 -13.4 -11.85 -12.7 -12.0 -12.7 -12.15 -12.8 -12.4 -12.7 -12.6 -12.65 -12.0 -14.1 Q-9.75 -14.55 -7.05 -14.2 -6.55 -13.95 -6.15 -12.6 L-6.55 -12.05 -6.8 -12.1 -6.9 -12.15 -7.05 -12.5" fill="#333333" fill-rule="evenodd" stroke="none"/>
    <path d="M12.15 -12.5 L12.1 -12.55 Q11.95 -12.35 11.6 -12.25 L10.9 -12.4 10.95 -13.2 11.05 -13.35 11.1 -13.4 7.85 -13.4 7.35 -12.7 7.2 -12.7 7.05 -12.8 6.8 -12.7 6.6 -12.65 7.2 -14.1 Q9.45 -14.55 12.15 -14.2 12.65 -13.95 13.05 -12.6 L12.65 -12.05 12.4 -12.1 12.3 -12.15 12.15 -12.5" fill="#333333" fill-rule="evenodd" stroke="none"/>
    <path d="M-20.85 7.95 L-20.65 7.7 Q-16.45 7.35 -12.3 7.85 L-12.25 8.0 -20.8 8.15 -20.85 7.95" fill="#333333" fill-rule="evenodd" stroke="none"/>
    <path d="M-14.95 9.7 Q-14.7 10.05 -15.15 10.1 L-19.4 10.15 Q-19.8 10.1 -19.65 9.8 L-14.95 9.7" fill="#333333" fill-rule="evenodd" stroke="none"/>
    <path d="M-18.25 6.25 Q-18.7 6.2 -18.6 5.7 L-11.55 5.85 Q-12.2 6.45 -15.05 6.35 L-18.25 6.25" fill="#333333" fill-rule="evenodd" stroke="none"/>
    <path d="M-17.8 7.35 L-17.75 7.45 Q-17.5 9.65 -17.7 11.95 -17.75 12.5 -18.05 12.65 -18.5 10.25 -18.1 7.95 L-17.8 7.35" fill="#333333" fill-rule="evenodd" stroke="none"/>
    <path d="M-16.15 4.5 Q-15.8 4.0 -15.65 4.65 -15.45 6.3 -15.55 8.3 -15.55 8.65 -16.05 8.55 L-16.15 4.5" fill="#333333" fill-rule="evenodd" stroke="none"/>
    <path d="M14.2 -9.7 L14.45 -9.5 Q14.8 -5.3 14.3 -1.15 L14.15 -1.1 14.0 -9.65 14.2 -9.7" fill="#333333" fill-rule="evenodd" stroke="none"/>
    <path d="M12.45 -2.9 Q12.1 -2.65 12.05 -3.1 L12.0 -7.35 Q12.05 -7.75 12.35 -7.6 L12.45 -2.9" fill="#333333" fill-rule="evenodd" stroke="none"/>
    <path d="M16.05 -8.6 Q16.1 -9.05 16.6 -8.95 L16.45 -1.9 Q15.85 -2.55 15.95 -5.4 L16.05 -8.6" fill="#333333" fill-rule="evenodd" stroke="none"/>
    <path d="M18.75 -6.65 L18.55 -6.6 Q14.75 -6.35 10.8 -6.55 9.75 -6.6 9.55 -6.9 13.75 -7.35 17.7 -6.95 L18.75 -6.65" fill="#333333" fill-rule="evenodd" stroke="none"/>
    <path d="M15.25 -5.15 Q15.75 -4.8 15.1 -4.65 L11.45 -4.55 Q11.1 -4.55 11.2 -5.05 L15.25 -5.15" fill="#333333" fill-rule="evenodd" stroke="none"/>
    <path d="M-21.0 15.75 L-20.9 15.85 -20.9 15.95 -20.9 16.0 -20.95 16.1 -21.0 16.3 -21.1 16.5 -21.15 16.6 -21.35 16.7 -21.5 16.75 -21.8 17.05 -22.15 17.45 -22.3 17.6 -22.35 17.6 -22.5 17.65 -22.65 17.6 -22.75 17.5 -22.75 17.4 -22.75 17.3 -22.75 17.2 -22.7 17.1 -22.7 17.0 -22.65 16.95 -22.55 16.85 -22.15 16.55 -21.75 16.2 -21.6 16.1 -21.5 16.0 -21.45 15.9 -21.4 15.8 -21.35 15.75 -21.25 15.7 -21.15 15.7 -21.0 15.75" fill="#333333" fill-rule="evenodd" stroke="none"/>
    <path d="M-20.25 17.45 L-19.9 17.5 -19.85 17.6 -19.9 17.7 -20.2 17.8 -20.3 17.9 -20.35 18.0 -20.55 18.1 -20.6 18.2 -20.6 18.25 -20.7 18.45 -20.75 18.55 -20.95 18.75 -21.0 18.85 -21.05 18.9 -21.2 19.1 -21.3 19.2 -21.4 19.3 -21.55 19.3 -21.6 19.2 -21.55 19.15 -21.5 19.0 -21.4 18.95 -21.4 18.85 -21.4 18.75 -21.35 18.65 -21.35 18.55 -21.3 18.45 -21.2 18.35 -21.1 18.25 -21.1 18.2 -21.05 18.1 -21.0 18.0 -20.95 17.9 -20.9 17.8 -20.65 17.7 -20.5 17.65 -20.4 17.55 -20.3 17.5 -20.25 17.5 -20.25 17.45" fill="#333333" fill-rule="evenodd" stroke="none"/>
    <path d="M22.0 5.25 L22.15 5.3 22.2 5.4 22.2 5.5 22.15 5.6 22.1 5.65 21.9 5.7 21.8 5.75 21.75 5.8 21.6 5.85 21.4 5.85 21.15 5.85 21.05 5.75 21.1 5.7 21.1 5.6 21.3 5.5 21.35 5.45 21.55 5.35 21.7 5.3 21.75 5.3 21.85 5.25 22.0 5.25" fill="#333333" fill-rule="evenodd" stroke="none"/>
    <path d="M21.0 7.55 L20.8 7.5 20.75 7.4 20.7 7.3 20.8 7.25 20.85 7.2 21.0 7.25 21.1 7.25 21.25 7.2 21.5 7.2 22.25 7.2 22.6 7.2 22.8 7.25 22.85 7.35 23.0 7.45 23.05 7.55 23.05 7.65 23.05 7.75 23.0 7.8 22.85 7.85 22.7 7.75 22.25 7.75 21.25 7.7 21.1 7.65 21.0 7.55" fill="#333333" fill-rule="evenodd" stroke="none"/>
    <path d="M-20.1 -9.15 L-20.0 -9.05 -19.95 -8.95 -19.95 -8.85 -19.65 -8.6 -19.25 -8.3 -19.1 -8.2 -19.1 -8.1 -19.15 -8.0 -19.35 -8.0 -19.6 -8.1 -19.95 -8.35 -20.25 -8.65 -20.4 -8.85 -20.4 -8.9 -20.35 -9.0 -20.25 -9.1 -20.15 -9.15 -20.1 -9.15" fill="#333333" fill-rule="evenodd" stroke="none"/>
    <path d="M-18.2 -8.95 L-18.2 -8.9 -18.3 -8.85 -18.45 -8.95 -18.5 -8.95 -18.65 -8.95 -18.8 -9.0 -19.1 -9.3 -19.3 -9.55 -19.4 -9.75 -19.35 -9.8 -19.3 -9.95 -19.2 -10.0 -19.15 -10.1 -19.1 -10.1 -19.0 -10.15 -18.85 -10.1 -18.75 -10.0 -18.75 -9.9 -18.75 -9.8 -18.85 -9.7 -18.7 -9.55 -18.55 -9.3 -18.4 -9.15 -18.3 -9.05 -18.2 -8.95" fill="#333333" fill-rule="evenodd" stroke="none"/>
    <path d="M5.25 -0.25 L3.4 6.3 16.5 9.65 16.55 9.55 16.6 9.4 16.65 9.25 17.1 7.3 17.75 3.85 17.75 3.45 5.25 -0.25 M3.05 7.05 L2.6 7.0 4.6 -1.2 18.95 3.2 18.65 3.65 17.4 9.55 17.35 9.8 17.3 10.55 17.25 10.65 16.95 10.75 3.25 7.05 3.05 7.05 M5.4 5.7 Q4.65 5.5 4.8 5.05 L5.75 2.1 5.75 2.0 6.15 1.75 6.25 2.1 5.85 4.15 5.6 5.0 5.6 5.3 15.4 7.8 16.45 4.3 6.4 1.3 Q11.95 2.05 16.55 4.15 L16.85 4.15 15.7 8.45 5.4 5.7" fill="#333333" fill-rule="evenodd" stroke="none"/>
    <path d="M3.25 4.6 L3.25 5.05 Q2.55 4.65 1.85 4.4 L2.0 4.35 3.25 4.6 M1.6 7.25 L3.25 7.3 3.25 7.35 3.55 7.35 4.05 7.8 Q4.65 8.55 4.95 9.75 5.25 10.75 4.2 11.75 3.55 12.35 2.7 12.6 3.65 12.0 4.2 10.95 4.85 9.95 3.85 8.55 2.9 7.15 1.4 7.85 -0.1 8.5 -0.15 9.35 -0.3 11.2 1.05 12.05 L2.25 12.7 2.2 12.7 Q-0.1 12.45 -0.8 10.05 L-0.55 8.7 Q-0.25 7.6 1.6 7.25 M6.0 7.35 L6.95 7.35 Q7.55 8.4 7.95 9.8 L7.45 12.35 Q6.85 14.6 3.25 15.3 -0.4 15.95 -1.65 14.3 -2.85 12.6 -3.45 10.45 -4.15 8.25 -2.05 6.3 -0.65 5.1 1.05 4.55 -0.9 5.8 -2.05 7.9 -3.3 9.9 -1.35 12.7 0.6 15.4 3.6 14.2 6.6 12.85 6.7 11.05 6.9 8.85 6.0 7.35" fill="#333333" fill-rule="evenodd" stroke="none"/>
    <path d="M-7.7 -2.9 L-7.0 -5.1 -12.1 -3.65 -8.25 -0.5 -7.7 -2.9 M-6.0 -3.05 L-4.75 -7.4 -15.2 -4.55 -7.5 2.5 Q-6.4 -0.8 -6.0 -3.05 M-11.25 -2.45 L-12.6 -3.8 -6.95 -5.6 -6.55 -5.3 -6.9 -4.1 -7.6 -1.6 -7.9 0.05 -8.15 0.4 -9.15 -0.5 -11.25 -2.45 M-13.5 -2.0 L-16.15 -4.8 -4.7 -8.4 -3.85 -7.9 -4.6 -5.4 -5.95 -0.25 Q-6.3 1.4 -7.15 3.9 L-9.25 2.0 -13.5 -2.0" fill="#333333" fill-rule="evenodd" stroke="none"/>
  </g>
</svg>
