<?xml version="1.0" encoding="UTF-8" standalone="no"?>
<svg xmlns:xlink="http://www.w3.org/1999/xlink" height="88.5px" width="27.4px" xmlns="http://www.w3.org/2000/svg">
  <g transform="matrix(1.0, 0.0, 0.0, 1.0, 13.7, 44.25)">
    <path d="M-3.85 15.7 L-3.45 15.5 -3.05 15.4 -2.7 15.45 -2.3 15.55 -1.95 15.75 -1.6 16.15 -1.3 16.55 -1.05 16.8 -0.95 17.1 -0.85 17.7 -0.65 18.45 -0.35 19.25 -0.15 19.65 -0.1 20.3 0.1 21.05 0.25 21.85 0.2 22.3 0.0 22.95 -0.25 23.65 -0.7 24.0 -1.0 25.75 -1.4 29.2 -1.8 32.8 -2.6 40.15 -2.95 41.0 -3.35 41.2 -3.75 41.4 -4.1 41.4 -4.45 41.3 -4.85 41.1 -5.2 40.8 -5.5 40.15 -5.7 39.4 -5.55 36.9 -5.4 34.75 -5.5 34.5 -5.7 33.85 -5.9 33.45 -6.0 32.95 -6.0 32.35 -6.05 32.3 -5.6 26.85 -5.3 23.85 -4.8 18.35 -4.55 16.9 -4.25 16.15 -3.85 15.7" fill="#663333" fill-opacity="0.2" fill-rule="evenodd" stroke="none"/>
    <path d="M-3.5 16.5 L-3.15 16.4 -2.75 16.4 -2.4 16.45 Q-2.2 16.5 -2.05 16.6 -1.35 16.85 -0.95 17.45 L-0.65 17.85 -0.3 18.25 0.4 19.05 1.3 20.3 1.35 20.9 1.55 21.7 1.7 22.45 1.35 26.3 0.95 30.95 0.6 31.75 0.35 32.4 0.25 33.35 -0.1 34.2 -0.9 34.9 -1.3 35.1 -1.7 35.35 -2.1 35.55 -2.45 35.65 -2.75 35.7 -3.0 36.1 -3.35 36.95 -3.75 37.45 -4.2 38.0 -4.6 38.35 -5.0 38.5 -5.35 38.55 -5.7 38.45 -6.1 38.3 -6.45 38.05 -6.75 37.65 -7.0 37.25 -7.0 36.75 -7.1 36.75 -6.75 35.8 -6.45 35.05 -6.1 34.3 -6.05 32.95 -6.05 32.3 -5.8 31.35 -5.55 30.6 -5.35 30.0 -5.45 28.35 -5.3 24.45 -5.3 23.85 -5.0 23.1 -4.6 22.65 -4.5 22.3 -4.65 21.9 -4.85 21.5 -4.9 20.85 -4.6 20.15 -4.3 19.65 -4.4 19.05 -4.6 18.5 -4.65 17.85 -4.35 17.15 -3.95 16.7 -3.5 16.5" fill="#663333" fill-opacity="0.2" fill-rule="evenodd" stroke="none"/>
    <path d="M9.05 -41.8 L9.4 -41.85 9.8 -41.85 10.15 -41.7 10.5 -41.5 10.85 -41.15 11.05 -40.75 11.25 -40.1 11.6 -39.6 11.8 -39.3 11.9 -39.05 12.1 -38.4 12.45 -38.0 12.7 -37.7 12.75 -37.45 12.85 -36.95 12.9 -36.3 12.9 -35.8 12.8 -34.8 12.6 -32.35 12.25 -31.5 11.85 -31.0 11.55 -30.55 11.4 -30.4 11.1 -29.55 10.7 -29.25 10.25 -28.9 9.9 -28.65 9.5 -28.45 9.1 -28.5 8.75 -28.5 8.35 -28.55 8.0 -28.6 7.65 -28.45 7.2 -28.15 6.75 -27.45 6.5 -27.2 6.3 -26.75 6.2 -26.5 6.05 -25.85 5.9 -24.9 5.85 -24.4 5.75 -22.9 5.4 -21.9 5.1 -21.45 4.95 -19.95 4.8 -17.95 4.45 -17.0 4.15 -16.25 4.0 -15.9 3.9 -15.0 3.75 -13.5 3.4 -12.55 2.95 -11.45 2.5 -10.75 2.5 -10.6 2.2 -9.75 1.75 -9.2 1.35 -8.6 0.9 -7.85 0.4 -6.9 0.0 -6.6 -0.4 -6.4 -0.75 -6.4 -1.05 -6.3 -1.6 -5.6 -1.85 -5.25 -2.15 -4.0 -2.4 -3.15 -2.85 -2.65 -3.25 -2.1 Q-4.2 5.6 -4.6 13.35 -4.75 16.95 -6.0 20.25 L-6.2 22.25 -6.4 24.9 -6.55 26.25 -6.45 26.75 -6.5 27.25 -6.75 30.25 -7.05 33.75 -7.25 34.2 -7.55 37.2 -7.7 38.7 -7.95 40.8 -8.1 41.3 -8.45 42.0 -8.85 42.2 -9.2 42.35 -9.55 42.25 -9.9 42.1 -10.15 41.85 -10.25 41.6 -10.35 41.1 -10.5 40.5 -10.65 40.2 -10.7 39.95 -10.75 39.45 -10.85 39.45 -10.55 36.45 -10.3 32.45 Q-10.15 30.3 -9.45 28.25 L-9.3 27.75 Q-8.8 23.65 -8.55 19.55 -8.05 10.7 -6.9 2.0 L-6.7 1.25 -6.35 -1.75 -6.25 -2.75 -5.9 -3.45 -5.65 -3.8 -5.6 -4.3 -5.4 -5.8 -5.25 -6.4 -5.15 -6.5 -4.85 -7.9 -4.7 -8.5 -4.55 -9.0 -4.35 -9.45 -4.1 -11.75 -2.7 -17.6 -1.95 -19.95 -1.6 -21.4 -0.35 -26.55 0.85 -30.1 1.1 -30.45 1.45 -31.05 1.85 -31.5 2.25 -31.75 2.55 -31.9 2.8 -32.45 2.7 -32.8 2.65 -33.1 2.55 -33.6 2.5 -34.25 2.7 -35.7 3.1 -36.95 3.5 -37.25 3.9 -37.5 4.25 -37.7 4.55 -37.95 4.65 -38.05 4.75 -38.55 5.05 -39.25 5.45 -39.75 5.9 -40.45 6.35 -41.15 6.75 -41.65 7.15 -41.8 7.55 -41.95 7.9 -42.0 8.3 -41.95 8.65 -41.85 9.05 -41.8" fill="#663333" fill-opacity="0.2" fill-rule="evenodd" stroke="none"/>
    <path d="M6.2 -28.25 L6.55 -27.95 6.8 -27.7 6.85 -27.45 6.95 -26.9 7.05 -26.3 6.7 -25.45 6.4 -25.1 6.35 -24.35 6.0 -23.35 5.7 -22.65 4.05 -16.55 2.55 -12.5 1.45 -9.95 1.15 -9.6 0.95 -8.75 0.6 -7.75 0.3 -6.9 -0.1 -6.7 -0.5 -6.55 -0.85 -6.5 -1.2 -6.6 -1.6 -6.85 -1.95 -7.1 -2.25 -8.15 -2.55 -8.7 -2.65 -9.55 -2.75 -9.6 -2.4 -10.3 -2.15 -10.65 -0.65 -15.85 0.25 -18.3 Q1.05 -20.5 1.3 -22.8 L1.65 -23.65 1.95 -24.0 2.45 -25.55 3.1 -27.4 3.55 -27.85 3.95 -28.05 4.3 -28.2 4.7 -28.35 5.1 -28.45 5.45 -28.5 5.85 -28.4 6.2 -28.25" fill="#663333" fill-opacity="0.2" fill-rule="evenodd" stroke="none"/>
    <path d="M6.25 -40.15 L6.65 -40.25 7.0 -40.25 7.4 -40.2 7.75 -40.15 8.15 -40.15 8.5 -39.95 8.85 -39.8 9.2 -39.65 9.6 -39.4 9.9 -39.2 10.15 -38.95 10.25 -38.7 Q10.45 -37.35 10.25 -36.05 L9.75 -34.2 9.35 -33.85 9.2 -33.6 9.0 -33.15 8.7 -32.4 8.3 -32.2 7.9 -32.0 7.55 -32.0 7.15 -32.05 6.8 -32.1 6.45 -32.15 6.1 -32.4 5.7 -32.8 5.5 -33.1 5.4 -33.35 5.2 -34.1 4.9 -34.55 4.65 -34.9 4.65 -35.55 4.6 -35.55 4.95 -38.0 5.2 -39.1 5.45 -39.75 5.9 -40.05 6.25 -40.15" fill="#663333" fill-opacity="0.2" fill-rule="evenodd" stroke="none"/>
    <path d="M-12.25 4.15 L-11.85 3.6 -11.55 3.45 -11.15 3.45 -10.8 3.45 -10.4 3.45 -10.05 3.35 -9.75 3.35 -9.6 3.6 -9.3 5.05 -9.5 5.9 -9.55 6.4 -9.65 7.4 -9.95 8.0 -10.35 8.25 -10.7 8.3 -11.05 8.2 -11.45 8.0 -11.8 7.85 -12.1 7.6 -12.35 7.15 -12.35 6.65 -12.4 6.15 -12.4 5.65 -12.5 5.65 -12.25 4.15" fill="#663333" fill-opacity="0.2" fill-rule="evenodd" stroke="none"/>
    <path d="M-11.6 8.3 L-11.4 8.3 -11.05 8.35 -10.85 8.4 -10.7 8.5 -10.5 8.65 -10.35 8.95 -10.25 9.1 -10.2 9.4 -10.15 9.9 -10.25 10.25 -10.35 10.45 -10.4 10.55 -10.45 10.8 -10.4 10.85 -10.35 11.15 -10.5 11.6 -10.7 11.7 -10.85 11.75 -10.9 11.8 -11.05 12.1 -11.25 12.2 -11.45 12.2 -11.6 12.15 -11.8 12.1 -12.0 12.0 -12.15 11.75 -12.3 11.65 -12.45 11.5 -12.6 11.35 -12.7 10.9 -12.7 10.4 -12.55 8.9 -12.35 8.55 -12.15 8.4 -12.0 8.3 -11.8 8.3 -11.6 8.3" fill="#ffffff" fill-opacity="0.2" fill-rule="evenodd" stroke="none"/>
    <path d="M8.75 -42.45 L9.15 -42.3 9.8 -41.7 10.2 -41.2 10.5 -40.8 10.8 -40.35 11.5 -39.2 11.7 -38.8 12.0 -37.75 12.2 -36.9 12.35 -36.1 12.5 -35.35 12.6 -34.7 12.3 -33.85 11.85 -33.4 11.4 -32.3 11.25 -31.95 10.85 -31.1 10.45 -30.35 10.05 -29.65 9.6 -29.3 9.25 -28.95 8.8 -28.5 8.35 -27.9 7.95 -27.6 6.8 -27.4 6.05 -27.4 4.9 -27.5 3.85 -27.7 1.95 -27.9 1.2 -28.05 0.85 -28.25 0.5 -28.45 0.15 -28.65 -0.2 -29.05 -0.5 -29.6 -0.85 -30.25 -1.05 -30.75 -1.05 -31.4 -1.1 -31.4 -1.05 -31.9 -1.0 -33.0 -0.9 -34.0 -0.6 -34.85 -0.2 -35.95 0.15 -36.8 0.4 -37.3 0.65 -38.4 0.95 -39.25 1.35 -39.85 1.85 -40.55 2.2 -40.75 2.6 -40.85 3.0 -40.95 3.4 -41.15 3.85 -41.9 4.2 -42.1 4.6 -42.3 5.0 -42.4 5.4 -42.4 5.8 -42.55 6.15 -42.7 6.55 -42.75 6.9 -42.75 7.3 -42.7 7.65 -42.7 8.05 -42.65 8.4 -42.6 8.75 -42.45" fill="#663333" fill-opacity="0.2" fill-rule="evenodd" stroke="none"/>
    <path d="M-10.1 6.55 L-11.4 6.55 -11.7 8.1 -11.75 10.65 -10.95 11.35 -10.85 11.35 -10.75 11.4 -10.65 11.45 -10.6 11.55 -10.1 6.55 M7.75 -39.75 L6.45 -40.3 Q5.75 -40.5 5.25 -40.3 L4.0 -39.75 3.05 -39.1 3.05 -39.15 2.3 -38.2 1.7 -35.85 1.95 -34.65 1.95 -34.6 Q2.05 -34.1 2.45 -33.6 L3.45 -32.8 4.65 -32.15 6.0 -31.9 7.2 -32.0 8.25 -32.65 9.1 -33.5 9.1 -33.55 9.7 -34.7 9.95 -36.0 9.75 -37.15 9.4 -38.25 8.75 -39.1 7.75 -39.75 M6.6 -40.95 L6.6 -40.9 8.1 -40.35 9.25 -39.6 10.0 -38.5 10.45 -37.45 10.6 -36.0 10.3 -34.4 9.7 -33.1 8.7 -32.1 7.55 -31.45 7.4 -31.4 7.15 -31.3 5.9 -31.2 4.45 -31.55 Q3.75 -31.8 3.05 -32.25 L1.95 -33.2 Q1.4 -33.8 1.25 -34.45 L1.25 -34.75 1.05 -35.8 1.1 -36.0 1.65 -38.3 1.65 -38.4 1.7 -38.45 1.7 -38.5 2.3 -39.45 2.55 -39.6 3.7 -40.35 4.95 -40.9 6.6 -40.95 M10.6 -40.9 L8.95 -42.05 Q8.0 -42.65 6.8 -42.95 L6.85 -42.95 Q5.7 -43.25 4.85 -42.95 L4.9 -42.95 2.9 -42.05 1.15 -40.9 1.15 -40.95 0.05 -39.55 0.0 -39.25 -0.55 -37.75 -1.25 -35.65 -1.4 -35.15 -1.4 -32.5 -3.35 -24.5 Q-4.75 -17.65 -6.05 -12.5 L-7.2 -8.0 -7.4 -7.5 -7.75 -6.75 Q-8.25 -6.25 -9.25 6.75 -10.25 19.75 -11.55 31.3 L-12.75 43.0 -12.6 43.0 -12.45 43.0 -12.25 42.95 -12.15 42.95 -12.0 42.75 -12.15 44.25 -12.25 44.2 -12.3 44.2 -12.55 44.2 -12.85 44.1 -13.15 44.05 -13.35 44.15 -13.65 43.3 Q-13.85 42.45 -12.95 35.3 -12.15 28.1 -11.5 20.3 L-10.85 12.4 -11.0 12.4 -11.05 12.4 -11.2 12.3 -13.0 10.9 -13.0 10.55 -12.75 8.1 -12.6 5.3 Q-12.65 4.25 -12.0 3.55 -11.25 2.8 -10.2 2.95 L-10.15 2.95 -9.95 2.95 -9.75 1.7 -9.4 -2.75 Q-9.2 -5.9 -7.35 -13.05 -5.5 -20.2 -4.65 -24.7 L-2.6 -33.85 -2.0 -36.25 -2.0 -37.15 -1.65 -38.15 -1.35 -38.85 -1.0 -39.6 -0.85 -40.05 -0.7 -40.35 -0.3 -41.0 -0.15 -41.15 0.05 -41.5 0.1 -41.55 0.45 -41.8 0.75 -42.05 0.8 -42.1 0.9 -42.15 0.95 -42.2 1.05 -42.2 1.1 -42.3 1.15 -42.35 2.4 -43.05 2.45 -43.05 4.45 -43.95 7.15 -44.05 9.55 -43.05 11.35 -41.75 Q12.25 -41.05 12.65 -39.95 L13.4 -38.25 13.4 -38.2 Q13.75 -37.3 13.7 -35.9 13.7 -34.55 13.2 -33.3 L12.15 -31.25 Q11.65 -30.35 10.45 -29.5 L8.55 -28.4 8.6 -28.35 Q5.75 -20.7 3.6 -12.7 L2.9 -10.6 2.5 -9.5 1.85 -8.15 1.7 -7.95 1.75 -7.1 0.2 -5.95 -1.2 -4.65 -1.25 -4.6 -1.55 -4.1 -1.65 -3.8 -1.7 -3.8 -1.8 -3.5 -2.1 -2.85 -2.4 -2.25 -2.5 -2.05 -2.7 -1.85 -2.9 -0.85 -2.95 -0.05 -3.0 0.35 -3.0 0.15 -3.15 -0.1 -3.25 0.75 -3.5 3.85 -3.45 3.95 -3.45 4.65 -3.3 4.15 -4.2 12.55 -4.3 13.55 -5.0 20.3 -5.05 20.5 -5.15 20.7 -5.2 21.0 -5.2 21.3 -5.1 21.6 -5.0 21.9 -4.9 22.05 -4.75 22.2 -4.6 22.35 -4.5 22.45 -4.35 22.5 -4.25 22.55 -3.9 22.65 -3.95 23.75 -4.05 24.75 -4.15 25.75 -4.25 26.75 -4.35 27.85 -4.45 28.85 -4.55 29.85 -4.65 30.85 -4.75 31.95 -4.85 32.95 -4.95 33.95 -5.05 34.95 -5.15 36.0 -5.25 37.0 -5.4 37.95 -5.75 39.45 -5.15 39.15 -5.3 41.1 -6.0 41.45 -7.5 42.05 -7.65 41.95 -7.75 41.9 -7.8 41.9 -8.0 41.95 -8.15 42.0 -8.35 42.0 -8.6 42.45 -9.3 43.4 -9.5 43.5 -9.85 43.45 -10.0 43.45 -10.05 43.45 -9.9 41.95 -9.7 41.7 -9.55 41.35 -9.45 41.05 -9.2 40.9 -9.0 40.8 -8.95 40.8 Q-9.1 39.6 -8.9 38.45 L-7.55 25.75 -7.25 23.0 -7.0 21.0 -5.4 5.05 -5.0 3.65 -4.7 1.1 -4.3 -1.85 -4.2 -2.2 -4.15 -2.25 -4.1 -2.6 -3.9 -2.9 -3.8 -3.25 -2.85 -4.75 Q-1.5 -6.6 0.5 -7.85 L0.6 -8.0 0.7 -8.25 1.05 -9.5 1.45 -10.6 1.6 -11.05 6.95 -28.0 6.65 -28.0 6.5 -27.55 6.25 -27.8 5.0 -27.8 5.1 -28.15 4.55 -28.25 4.5 -28.3 Q4.1 -29.4 4.55 -29.4 L5.0 -29.3 5.4 -29.25 5.15 -29.35 7.1 -29.15 8.05 -29.4 9.8 -30.4 11.2 -31.85 11.2 -31.9 12.15 -33.7 Q12.55 -34.75 12.6 -35.9 L12.35 -37.8 11.6 -39.55 Q11.3 -40.35 10.6 -40.9" fill="#333333" fill-rule="evenodd" stroke="none"/>
    <path d="M-7.5 36.75 L-7.4 36.8 -7.35 36.85 -7.3 36.95 -7.25 37.15 -7.25 37.25 -7.3 37.55 -7.3 37.7 -7.4 37.9 -7.45 38.1 -7.55 38.15 -7.6 38.2 -7.7 38.6 -7.8 39.05 -7.85 39.25 -7.9 39.45 -8.05 39.8 -8.3 40.25 -8.5 40.85 -8.85 41.45 -8.95 41.5 -9.05 41.6 -9.1 41.7 -9.2 41.75 -9.2 41.85 -9.25 41.95 -9.3 42.1 -9.35 42.2 -9.45 42.25 -9.5 42.35 -9.6 42.45 -9.6 42.5 -9.6 42.65 -9.65 42.8 -9.6 42.9 -9.55 42.95 -9.55 43.05 -9.6 43.25 -9.7 43.35 -9.75 43.4 -9.85 43.45 -9.9 43.5 -10.0 43.5 -10.1 43.5 -10.25 43.5 -10.4 43.55 -10.5 43.55 -10.55 43.55 -10.65 43.6 -10.75 43.6 -10.9 43.6 -11.0 43.65 -11.15 43.65 -11.2 43.7 -11.3 43.75 -11.35 43.75 -11.45 43.8 -11.5 43.8 -11.6 43.85 -11.65 43.9 -11.75 43.9 -11.8 43.95 -11.85 43.95 -11.95 43.95 -12.0 43.95 -12.1 44.0 -12.15 44.05 -12.25 44.1 -12.4 44.2 -12.45 44.25 -12.55 44.25 -12.6 44.2 -12.7 44.2 -12.75 44.15 -12.8 44.05 -12.85 43.85 -12.85 43.75 -12.75 43.6 -12.75 43.5 -12.65 43.35 -12.6 43.2 -12.55 43.1 -12.3 42.95 -12.1 42.85 -11.8 42.7 -11.7 42.65 -11.65 42.65 -11.55 42.65 -11.5 42.6 -11.4 42.55 -11.35 42.5 -11.2 42.45 -11.1 42.4 -11.05 42.35 -10.95 42.35 -10.9 42.35 -10.75 42.2 -10.5 42.05 -10.35 41.95 -10.2 41.85 -9.75 41.2 -9.15 40.25 -9.1 40.05 -9.05 39.85 -8.95 39.75 -8.9 39.65 -8.8 39.5 -8.75 39.4 -8.7 39.3 -8.7 39.2 -8.5 38.45 -8.35 37.85 -8.3 37.75 -8.25 37.65 -8.15 37.55 -8.1 37.25 -8.0 36.85 -7.9 36.8 -7.85 36.7 -7.75 36.7 -7.7 36.65 -7.6 36.65 -7.55 36.7 -7.5 36.75" fill="#333333" fill-rule="evenodd" stroke="none"/>
    <path d="M-2.75 19.85 L-2.6 19.85 -2.4 20.0 Q-1.4 20.95 -1.95 22.5 -2.15 23.2 -2.8 23.45 L-3.8 23.55 -4.1 23.35 -5.55 22.35 -5.6 21.2 Q-5.6 20.35 -4.9 19.75 L-4.8 19.7 -2.9 19.75 -2.75 19.85 M-3.6 20.5 L-3.75 20.45 Q-4.3 20.3 -4.5 21.2 L-4.5 21.25 -4.15 21.95 -3.9 22.1 -3.05 22.4 Q-2.45 21.75 -2.7 20.9 L-2.95 20.75 -3.6 20.5" fill="#333333" fill-rule="evenodd" stroke="none"/>
    <path d="M-0.1 37.55 Q0.35 37.6 0.15 37.95 L-0.35 38.75 Q-1.7 40.05 -3.55 40.8 L-3.95 40.9 -6.1 41.9 -7.8 42.35 -8.25 42.45 -8.75 42.15 -8.7 41.9 Q-8.45 41.2 -7.15 40.8 L-5.15 40.2 -3.35 39.3 -2.05 38.5 -0.3 37.55 -0.1 37.55" fill="#333333" fill-rule="evenodd" stroke="none"/>
    <path d="M0.55 23.6 L0.65 22.15 0.7 20.7 0.95 19.0 Q1.4 18.6 1.6 19.15 L1.8 20.45 1.75 22.55 1.7 23.5 1.6 24.55 1.6 25.55 1.5 26.6 1.4 27.55 1.3 28.6 1.25 29.55 1.1 30.6 1.05 31.55 0.9 32.6 0.6 34.6 0.4 35.75 0.2 37.3 Q0.05 38.4 -0.4 38.7 L-0.5 38.0 -0.55 36.6 -0.35 34.75 -0.2 33.8 -0.1 32.85 -0.05 31.9 0.1 30.9 0.15 29.95 0.2 28.9 0.3 27.95 0.35 27.0 0.35 26.05 0.45 25.0 0.55 23.6" fill="#333333" fill-rule="evenodd" stroke="none"/>
    <path d="M-3.35 14.8 L-3.15 15.0 -2.8 15.4 -2.65 15.6 -1.95 16.1 -0.45 17.15 0.35 17.75 1.75 19.25 Q2.15 19.75 2.0 20.25 L1.75 20.5 1.5 20.75 1.3 20.7 1.0 20.5 0.95 20.4 0.8 20.05 0.5 19.65 0.15 19.2 -0.4 18.8 -2.5 17.05 -3.85 15.6 -5.25 14.3 -5.3 14.2 -5.35 14.0 -5.3 13.9 -5.1 13.75 Q-4.85 13.75 -4.7 13.9 L-3.35 14.8" fill="#333333" fill-rule="evenodd" stroke="none"/>
    <path d="M-3.95 15.35 Q-3.15 15.55 -3.15 16.45 L-3.25 19.25 Q-3.35 20.3 -4.15 20.3 L-4.85 19.55 Q-5.3 18.5 -4.95 17.65 L-4.75 16.75 Q-4.7 15.7 -3.95 15.35" fill="#333333" fill-rule="evenodd" stroke="none"/>
    <path d="M-1.55 20.45 L-1.1 20.8 Q-0.75 21.95 -1.3 22.85 L-2.05 23.0 Q-2.45 22.45 -2.45 21.7 L-3.3 20.85 -3.7 19.9 Q-3.5 19.25 -2.9 19.15 L-1.55 20.45" fill="#333333" fill-rule="evenodd" stroke="none"/>
    <path d="M-3.95 16.3 L-4.3 16.05 -5.0 15.65 Q-5.5 15.25 -6.15 15.25 L-6.6 14.85 -6.65 14.7 -6.55 14.15 -6.35 14.0 -5.2 13.8 -5.0 13.9 Q-4.55 14.3 -4.1 14.35 -3.25 14.65 -2.45 15.25 L1.0 18.25 1.2 18.25 Q1.55 18.25 1.9 18.55 2.45 19.1 2.0 19.6 1.4 20.2 0.8 20.45 0.15 20.45 -0.35 20.0 L-2.5 17.6 Q-3.3 17.6 -3.7 16.95 -3.75 16.5 -3.95 16.3" fill="#333333" fill-rule="evenodd" stroke="none"/>
  </g>
</svg>
