<?xml version="1.0" encoding="UTF-8" standalone="no"?>
<svg xmlns:xlink="http://www.w3.org/1999/xlink" height="26.95px" width="23.1px" xmlns="http://www.w3.org/2000/svg">
  <g transform="matrix(1.0, 0.0, 0.0, 1.0, 11.45, 13.45)">
    <path d="M0.9 -12.7 L1.4 -12.4 Q1.45 -12.35 1.8 -12.15 L2.1 -11.8 2.15 -10.95 2.15 -10.45 2.2 -10.05 2.15 -9.9 2.05 -9.5 2.1 -9.4 2.15 -9.3 2.2 -9.25 2.25 -9.1 2.25 -8.95 2.2 -8.9 2.15 -8.8 2.15 -8.7 2.7 -8.65 2.8 -8.6 2.9 -8.45 2.95 -8.35 2.95 -8.3 2.95 -7.9 3.0 -7.85 3.2 -7.85 5.1 -8.1 9.4 -8.2 10.05 -7.95 10.8 -7.75 11.25 -7.4 11.35 -7.15 11.5 -6.9 11.6 -6.4 11.65 -6.05 11.6 -5.45 10.9 -4.8 9.75 -4.4 7.8 -4.0 Q6.75 -3.85 5.55 -3.3 L4.7 -1.8 4.95 -1.35 4.9 -0.3 5.0 0.7 5.15 1.35 5.25 1.65 5.25 2.0 5.2 2.05 4.8 2.4 4.25 2.7 3.1 2.9 Q2.7 3.05 2.35 3.35 L2.35 3.45 2.3 4.1 2.4 4.8 2.45 4.95 Q7.0 3.55 7.65 4.7 L7.6 4.95 Q7.55 5.55 7.05 5.95 L6.75 6.45 6.65 6.75 Q6.55 7.05 6.8 7.3 L7.25 7.95 7.5 9.0 7.6 9.5 7.7 9.9 7.75 10.25 7.7 11.0 6.55 11.85 4.6 12.75 Q2.2 13.5 0.0 13.45 L-2.1 13.1 Q-2.85 12.65 -3.8 12.3 -3.95 12.25 -4.05 12.15 L-4.65 11.8 -5.2 11.45 -6.3 10.55 -6.85 9.0 -7.1 6.95 -7.05 4.9 Q-7.0 4.05 -7.25 3.25 L-7.2 2.5 -7.1 2.15 -7.05 1.9 -7.0 1.15 -7.0 1.05 -6.55 0.4 -6.25 0.1 -6.05 -0.05 -6.05 -0.15 -6.0 -1.6 -5.9 -2.45 -5.85 -2.6 Q-5.65 -2.85 -5.6 -3.05 L-5.6 -3.2 -5.8 -3.5 -6.0 -3.8 -6.2 -4.1 -6.25 -4.2 -6.4 -4.5 -6.5 -4.6 -6.5 -4.85 -6.7 -5.85 -6.9 -7.7 -6.8 -8.5 -6.8 -8.8 -6.8 -9.05 -6.65 -9.4 Q-7.15 -10.05 -7.0 -10.85 L-7.05 -11.3 -7.25 -11.5 -7.75 -11.65 Q-8.05 -11.7 -5.85 -12.75 -3.65 -13.8 -1.5 -13.3 L0.9 -12.7" fill="#ebd5be" fill-rule="evenodd" stroke="none"/>
    <path d="M0.15 -5.4 L0.45 -4.7 0.75 -3.45 1.15 -0.6 1.4 -0.05 1.4 0.05 Q0.95 0.95 0.1 0.3 L0.0 0.15 Q-0.1 -0.3 -0.65 -0.35 L-2.2 -0.25 -2.3 -1.3 -1.9 -1.6 -1.85 -1.75 -1.9 -2.55 Q-1.9 -4.45 -2.25 -6.4 L-2.55 -8.35 Q-2.45 -8.55 -3.0 -8.65 -3.7 -8.5 -3.9 -9.05 -5.6 -10.6 -7.65 -9.2 L-8.1 -9.15 -8.6 -9.55 -8.5 -10.05 -7.85 -11.65 -6.8 -11.5 -6.65 -11.2 Q-6.15 -10.7 -5.0 -10.55 L-2.45 -10.6 -1.85 -9.85 -1.5 -9.05 -0.7 -7.25 0.15 -5.45 0.15 -5.4" fill="#dd9222" fill-rule="evenodd" stroke="none"/>
    <path d="M-11.45 -10.85 L-11.4 -11.0 -10.7 -11.25 -9.7 -11.15 -9.15 -10.55 Q-8.3 -10.0 -7.5 -10.05 -7.35 -9.95 -7.35 -9.6 L-7.3 -8.65 -6.7 -4.45 -6.25 -4.15 -6.1 -3.55 -5.85 -2.65 Q-5.5 -1.25 -6.0 0.0 L-6.2 0.05 -6.55 0.9 -6.75 1.0 -7.2 1.1 Q-7.5 0.85 -7.4 0.5 L-7.35 -0.5 -7.4 -0.8 Q-7.7 -1.25 -7.8 -1.85 L-8.25 -3.8 -8.45 -5.35 -9.5 -7.55 Q-9.9 -7.7 -10.5 -8.0 L-10.55 -8.4 -10.5 -8.55 -10.3 -8.75 Q-10.15 -9.05 -10.5 -9.4 L-11.45 -10.85" fill="#dd9222" fill-rule="evenodd" stroke="none"/>
    <path d="M5.9 3.7 L5.9 3.9 5.85 3.9 5.85 3.95 5.8 4.0 5.7 4.0 5.45 4.05 5.35 4.1 5.3 4.15 5.25 4.15 4.65 4.2 4.55 4.2 4.45 4.2 4.05 4.25 3.85 4.25 2.75 4.25 2.65 4.25 2.6 4.2 2.55 4.2 2.4 4.15 2.3 4.15 2.25 4.15 2.15 4.1 1.95 4.0 1.9 3.95 1.85 3.9 1.8 3.85 1.75 3.8 1.7 3.8 1.7 3.75 1.65 3.65 1.6 3.6 1.6 3.45 1.55 3.4 1.55 3.35 1.5 3.3 1.45 3.3 1.45 3.05 1.45 2.95 1.45 2.85 1.5 2.8 1.5 2.75 1.55 2.7 1.55 2.6 1.6 2.6 1.6 2.55 1.65 2.5 1.75 2.5 2.05 2.5 2.15 2.5 2.2 2.55 3.0 2.65 4.4 2.75 4.5 2.75 4.6 2.85 4.6 2.9 4.65 2.9 4.7 2.95 4.75 3.0 4.75 3.05 4.8 3.05 4.8 3.35 4.75 3.35 4.75 3.5 4.8 3.5 4.8 3.55 5.7 3.6 5.8 3.6 5.85 3.65 5.85 3.7 5.9 3.7" fill="#ffffff" fill-rule="evenodd" stroke="none"/>
    <path d="M3.75 -10.7 L3.85 -10.65 3.9 -10.6 4.0 -10.55 4.1 -10.45 4.2 -10.4 4.25 -10.35 4.25 -10.3 4.3 -10.25 4.3 -10.15 4.35 -10.1 4.4 -10.05 4.4 -10.0 4.45 -9.95 4.45 -9.85 4.5 -9.85 4.5 -9.8 4.55 -9.75 4.55 -9.6 4.6 -9.55 4.6 -9.45 4.65 -9.4 4.65 -9.35 4.7 -9.25 4.75 -9.2 4.75 -9.1 4.8 -9.1 4.8 -9.05 4.8 -8.7 4.8 -8.35 4.8 -7.85 4.8 -7.65 4.8 -7.6 4.75 -7.6 4.7 -7.55 4.7 -7.45 4.65 -7.4 4.65 -7.35 4.6 -7.3 4.5 -7.25 4.45 -7.2 4.4 -7.15 4.1 -7.15 3.7 -7.15 3.6 -7.2 3.5 -7.25 3.5 -7.3 3.45 -7.35 3.45 -7.5 3.45 -7.6 3.45 -7.65 3.35 -7.75 3.35 -7.85 3.3 -7.9 3.3 -8.0 3.25 -8.05 3.25 -8.65 3.25 -9.45 3.3 -10.35 3.35 -10.4 3.45 -10.5 3.45 -10.55 3.5 -10.6 3.55 -10.65 3.6 -10.7 3.7 -10.7 3.75 -10.7" fill="#ffffff" fill-rule="evenodd" stroke="none"/>
  </g>
</svg>
