<?xml version="1.0" encoding="UTF-8" standalone="no"?>
<svg xmlns:xlink="http://www.w3.org/1999/xlink" height="36.15px" width="22.0px" xmlns="http://www.w3.org/2000/svg">
  <g transform="matrix(1.0, 0.0, 0.0, 1.0, 11.0, 18.05)">
    <path d="M8.9 -17.55 Q9.2 -17.4 9.1 -16.9 8.15 -12.45 8.25 -8.0 8.35 -3.0 9.75 1.7 11.1 6.15 6.85 9.1 4.5 10.75 2.5 12.85 -0.6 16.2 -5.15 16.9 -8.35 17.65 -10.1 14.85 L-10.05 10.9 -0.3 0.35 Q0.05 -0.05 0.15 -0.55 1.25 -6.2 0.2 -11.8 L0.2 -12.6 Q0.45 -14.3 -0.35 -15.75 -0.85 -17.4 3.3 -17.4 L8.9 -17.55" fill="#ffffff" fill-rule="evenodd" stroke="none"/>
    <path d="M9.0 -0.55 Q12.6 4.0 7.85 8.25 L7.65 8.5 6.5 8.5 Q4.1 5.9 5.7 2.4 L6.5 1.05 Q7.25 -0.05 8.6 -0.55 L9.0 -0.55" fill="#c2bfbc" fill-rule="evenodd" stroke="none"/>
    <path d="M-7.15 7.4 Q-3.2 10.15 -1.85 15.05 L-1.65 16.75 Q-4.65 17.6 -7.65 16.85 -10.7 16.3 -10.4 13.4 -10.05 10.2 -8.0 7.9 L-7.15 7.4" fill="#c2bfbc" fill-rule="evenodd" stroke="none"/>
    <path d="M8.15 -10.55 L8.45 -10.55 8.65 -10.5 8.8 -10.4 8.85 -10.35 8.95 -10.25 8.95 -10.2 9.0 -10.1 9.0 -10.0 9.0 -9.9 8.95 -9.8 8.95 -9.75 8.9 -9.65 8.8 -9.6 8.75 -9.5 8.6 -9.35 8.55 -9.3 8.55 -9.2 8.4 -9.15 8.3 -9.1 8.15 -9.1 7.95 -9.05 7.6 -8.9 7.5 -8.85 7.35 -8.85 7.05 -8.85 7.0 -8.85 2.55 -8.3 1.55 -8.3 1.45 -8.3 1.25 -8.35 1.1 -8.4 1.0 -8.5 0.95 -8.55 0.9 -8.65 0.9 -8.7 0.85 -8.8 0.85 -8.85 0.85 -8.95 0.8 -9.1 0.8 -9.15 0.85 -9.25 0.85 -9.3 0.9 -9.4 0.95 -9.45 1.05 -9.55 1.15 -9.6 7.0 -10.2 8.0 -10.5 8.15 -10.55" fill="#d76c53" fill-rule="evenodd" stroke="none"/>
    <path d="M4.55 -7.15 L5.4 -7.15 5.6 -7.1 5.7 -7.05 5.8 -6.95 6.0 -6.8 6.15 -6.65 6.2 -6.6 6.25 -6.5 6.25 -6.45 6.3 -6.3 6.3 -6.25 6.25 -6.2 6.25 -6.1 6.25 -6.0 6.25 -5.95 6.25 -5.85 6.2 -5.8 6.2 -5.7 6.15 -5.65 6.1 -5.5 6.05 -5.45 5.9 -5.3 5.7 -5.15 5.6 -5.05 5.4 -5.0 5.1 -5.0 4.45 -5.0 4.25 -5.05 4.1 -5.15 3.95 -5.2 3.9 -5.3 3.8 -5.35 3.75 -5.45 3.7 -5.5 3.65 -5.65 3.6 -5.75 3.6 -5.85 3.6 -5.95 3.6 -6.0 3.6 -6.1 3.6 -6.15 3.65 -6.25 3.7 -6.3 3.7 -6.45 3.75 -6.5 3.8 -6.6 3.85 -6.65 3.95 -6.75 4.0 -6.8 4.05 -6.9 4.1 -6.95 4.15 -7.05 4.35 -7.1 4.55 -7.15" fill="#8399a7" fill-rule="evenodd" stroke="none"/>
    <path d="M7.9 -13.25 L8.05 -13.25 8.15 -13.25 8.35 -13.2 8.5 -13.15 8.55 -13.05 8.65 -13.0 8.65 -12.9 8.7 -12.85 8.7 -12.75 8.75 -12.7 8.75 -12.6 8.7 -12.55 8.7 -12.45 8.65 -12.4 8.65 -12.3 8.55 -12.25 8.5 -12.15 8.35 -12.1 8.15 -12.0 8.0 -11.95 4.4 -11.25 4.1 -11.15 4.0 -11.1 3.75 -11.1 3.15 -11.05 3.0 -11.0 2.35 -10.95 1.05 -10.85 0.65 -10.95 0.55 -11.05 0.5 -11.1 0.4 -11.15 0.4 -11.25 0.35 -11.3 0.35 -11.4 0.3 -11.45 0.25 -11.55 0.25 -11.65 0.25 -11.75 0.25 -11.85 0.3 -11.9 0.35 -12.0 0.4 -12.05 0.45 -12.15 0.55 -12.2 0.65 -12.3 0.7 -12.35 0.75 -12.45 0.85 -12.5 0.95 -12.55 5.65 -12.75 7.9 -13.25" fill="#8399a7" fill-rule="evenodd" stroke="none"/>
    <path d="M9.3 -17.35 L9.45 -17.25 9.5 -17.15 9.55 -17.05 9.6 -16.95 9.6 -16.85 9.6 -16.8 9.6 -16.7 9.55 -16.6 9.5 -16.5 9.5 -16.4 9.45 -16.3 9.45 -16.2 9.4 -16.1 9.35 -16.0 9.3 -15.95 9.25 -15.85 9.25 -15.75 9.25 -15.65 9.25 -15.55 9.25 -15.45 9.2 -15.35 9.15 -15.3 9.0 -15.1 8.95 -15.0 8.9 -14.9 8.9 -14.8 8.8 -14.7 8.65 -14.55 8.4 -14.25 8.35 -14.15 8.4 -12.45 8.4 -10.8 8.45 -9.1 8.5 -9.0 8.55 -8.9 8.6 -8.8 8.6 -8.6 8.7 -8.35 8.7 -8.05 8.7 -7.95 8.7 -7.85 8.75 -7.8 8.8 -7.7 8.8 -7.6 8.85 -7.5 8.85 -7.2 8.85 -6.75 8.85 -6.3 8.85 -6.2 8.8 -6.1 8.75 -6.0 8.65 -5.8 8.5 -5.6 8.45 -5.55 8.45 -5.45 8.4 -5.35 8.4 -5.25 8.4 -5.15 8.4 -5.05 8.4 -4.95 8.45 -4.85 8.5 -4.8 8.55 -4.7 8.6 -4.6 8.65 -4.5 8.7 -4.4 8.7 -4.3 8.75 -4.2 8.8 -4.1 8.85 -3.85 8.9 -3.35 8.95 -2.9 8.95 -2.7 9.0 -2.6 9.05 -2.55 9.05 -2.45 9.1 -2.35 9.15 -2.25 9.2 -2.15 9.2 -2.05 9.2 -1.95 9.2 -1.85 9.25 -1.8 9.3 -1.7 9.35 -1.6 9.4 -1.5 9.45 -1.4 9.45 -1.3 9.45 -1.2 9.5 -1.15 9.65 -0.95 9.8 -0.75 9.9 -0.65 9.9 -0.55 9.95 -0.45 9.95 -0.35 10.0 -0.3 10.05 -0.2 10.1 -0.1 10.1 0.0 10.15 0.1 10.15 0.3 10.15 0.45 10.15 0.55 10.2 0.65 10.2 0.75 10.2 1.2 10.25 1.9 10.25 2.55 10.25 2.7 10.2 2.8 10.2 2.9 10.15 3.0 10.15 3.2 10.15 3.45 10.15 3.85 10.15 4.05 10.15 4.15 10.1 4.2 10.05 4.3 10.0 4.4 9.95 4.5 9.9 4.6 9.85 4.7 9.8 4.8 9.75 4.85 9.7 4.95 9.65 5.05 9.6 5.15 9.55 5.25 9.4 5.45 9.3 5.55 9.2 5.65 9.15 5.7 9.15 5.8 9.1 5.9 9.05 6.0 8.95 6.1 8.9 6.2 8.8 6.3 8.8 6.4 8.75 6.45 8.75 6.55 8.7 6.65 8.7 6.75 8.65 6.85 8.55 6.95 8.55 7.05 8.45 7.15 8.35 7.2 8.25 7.3 8.2 7.4 8.05 7.5 7.95 7.55 7.9 7.6 7.7 7.65 6.95 8.1 5.95 8.45 5.65 8.4 5.55 8.3 5.45 8.2 5.4 8.15 5.35 8.05 5.3 7.95 5.3 7.85 5.3 7.75 5.35 7.65 5.4 7.55 5.4 7.45 5.45 7.4 5.45 7.3 5.6 7.1 5.9 6.85 Q6.0 6.7 6.2 6.65 L6.3 6.6 6.7 6.35 6.85 6.3 6.95 6.2 7.1 6.1 7.1 6.0 7.15 5.9 7.15 5.8 7.2 5.75 7.3 5.65 7.3 5.55 7.4 5.45 7.4 5.35 7.45 5.25 7.5 5.15 7.6 4.95 7.8 4.7 8.0 4.5 8.05 4.4 8.1 4.3 8.2 4.2 8.25 4.15 8.3 4.05 8.4 3.95 8.4 3.85 8.45 3.75 8.5 3.65 8.5 3.45 8.55 3.1 8.55 2.7 8.55 2.55 8.55 2.45 8.6 2.35 8.65 2.25 8.65 2.05 8.65 1.7 8.65 1.3 8.65 1.05 8.55 1.05 8.5 1.1 8.4 1.15 8.2 1.15 8.1 1.15 7.9 1.1 7.7 1.05 7.55 0.95 7.5 0.9 7.4 0.8 7.35 0.7 7.3 0.6 7.3 0.5 7.25 0.4 7.2 0.3 7.15 0.2 7.1 0.05 7.05 -0.15 7.0 -0.35 6.95 -0.45 6.9 -0.55 6.9 -0.7 6.9 -1.1 6.9 -1.45 6.9 -1.75 6.85 -1.85 6.8 -1.95 6.8 -3.25 6.8 -4.65 Q6.75 -5.35 6.95 -5.95 L7.0 -6.05 7.05 -6.15 7.05 -6.25 7.1 -6.35 7.15 -6.45 7.2 -6.55 7.3 -6.6 7.3 -6.7 7.3 -6.8 7.35 -7.0 7.35 -7.2 7.3 -7.3 7.3 -7.35 7.25 -7.45 7.2 -7.55 7.2 -7.65 7.2 -7.75 7.2 -7.95 7.15 -8.1 7.15 -8.4 7.05 -8.5 7.05 -8.6 7.0 -8.7 6.95 -8.8 6.95 -8.85 6.95 -10.85 7.0 -12.8 7.05 -14.8 7.1 -14.85 7.15 -14.95 7.25 -15.05 7.4 -15.15 7.55 -15.25 7.8 -15.35 7.85 -15.45 7.9 -15.5 8.05 -15.7 8.15 -15.8 8.15 -15.9 8.15 -16.0 8.15 -16.1 8.2 -16.2 8.3 -16.3 8.35 -16.35 8.4 -16.45 8.4 -16.55 8.4 -16.65 8.4 -16.75 8.45 -16.85 8.5 -16.95 8.55 -17.05 8.7 -17.2 8.8 -17.3 8.9 -17.35 9.1 -17.4 9.3 -17.35" fill="#d1d0a5" fill-opacity="0.3019608" fill-rule="evenodd" stroke="none"/>
    <path d="M5.1 6.05 Q6.7 5.05 8.5 4.55 L8.7 4.5 9.45 4.55 9.8 4.6 9.95 4.7 10.05 4.8 10.15 4.9 10.2 4.95 10.2 5.05 10.25 5.15 10.3 5.25 10.3 5.35 10.3 5.45 10.25 5.55 10.2 5.65 10.2 5.7 10.15 5.8 10.05 5.9 9.95 6.0 9.8 6.1 9.65 6.2 9.5 6.3 9.4 6.35 9.3 6.4 9.15 6.4 8.95 6.45 8.85 6.55 8.7 6.65 8.6 6.75 8.5 6.8 8.4 6.85 8.3 6.9 8.1 6.95 8.0 7.05 7.65 7.4 6.9 8.05 6.75 8.15 6.65 8.25 6.25 8.7 5.2 9.55 5.05 9.65 5.0 9.75 4.9 9.85 4.85 9.95 4.75 10.05 4.65 10.2 4.5 10.3 4.4 10.4 4.3 10.5 4.05 10.7 3.9 10.8 3.75 10.95 3.0 11.7 2.2 12.6 2.2 12.65 2.2 12.75 2.2 12.85 2.2 12.95 2.2 13.05 2.2 13.15 2.15 13.25 2.1 13.3 1.35 14.1 Q0.55 15.0 -0.6 15.4 L-1.55 15.85 -1.85 15.95 -2.25 16.15 -2.6 16.3 -2.65 16.4 -2.8 16.5 -2.95 16.55 -3.15 16.6 -3.55 16.65 -3.8 16.75 -4.3 16.95 -4.85 17.2 -4.95 17.25 -5.1 17.3 -5.35 17.35 -5.8 17.4 -6.1 17.3 -6.25 17.2 -6.35 17.1 -6.4 17.05 -6.45 16.95 -6.5 16.85 -6.5 16.75 -6.5 16.65 -6.5 16.55 -6.45 16.45 -6.45 16.4 -6.35 16.3 -6.25 16.2 -6.15 16.1 -6.0 16.05 -5.8 16.0 -4.75 15.6 -3.95 15.3 -3.8 15.2 -3.45 14.85 -2.7 14.15 -2.45 13.95 -2.4 13.9 -2.35 13.8 -2.35 13.7 -2.3 13.6 Q-1.25 11.5 0.5 10.0 L2.7 7.95 Q3.8 6.85 5.1 6.05" fill="#d1d0a5" fill-opacity="0.3019608" fill-rule="evenodd" stroke="none"/>
    <path d="M2.2 6.55 L2.95 6.7 3.25 6.9 3.45 7.1 3.6 7.25 3.7 7.45 3.75 7.65 3.95 7.75 4.3 7.85 4.7 7.95 5.0 8.15 5.2 8.35 5.35 8.5 5.45 8.7 5.5 8.9 5.6 9.1 5.65 9.25 5.65 9.45 5.65 9.65 5.65 9.85 5.6 10.0 5.5 10.2 5.45 10.4 5.4 10.6 5.25 10.75 5.05 10.95 4.8 11.15 4.6 11.25 4.35 11.3 3.95 11.4 2.85 11.5 2.7 11.7 2.65 11.9 2.6 12.1 2.5 12.25 2.45 12.45 2.35 12.65 2.2 12.8 2.0 13.0 1.85 13.2 1.65 13.4 1.6 13.6 1.5 13.75 1.45 13.95 1.35 14.15 1.1 14.5 0.65 15.1 0.1 15.65 -0.25 15.85 -0.55 16.0 -0.8 16.2 -1.05 16.4 -1.45 16.5 -1.8 16.6 -2.4 16.7 -2.7 16.9 -3.05 17.1 -3.3 17.2 -3.4 17.25 -3.65 17.3 Q-4.8 17.55 -5.9 17.3 L-6.3 17.2 -6.6 17.0 -6.8 16.85 -7.0 16.65 -7.15 16.45 -7.3 16.25 -7.35 16.1 -7.4 15.9 -7.55 15.8 -8.05 15.7 -8.6 15.6 -8.85 15.4 -9.05 15.2 -9.15 15.0 -9.25 14.85 -9.3 14.65 -9.3 14.45 -9.3 14.25 -9.25 14.05 -9.25 13.9 -9.25 13.7 -9.0 13.1 -8.05 11.75 -6.65 10.3 -5.9 9.75 -5.5 9.55 -4.75 9.2 -4.15 8.85 -4.05 8.65 -3.9 8.45 -3.75 8.25 -3.55 8.1 -3.3 7.95 -3.15 7.9 -2.9 7.85 -1.55 7.8 -0.85 7.9 -0.75 7.8 -0.65 7.65 -0.6 7.45 -0.5 7.25 -0.3 7.1 -0.1 6.9 0.2 6.7 0.6 6.6 0.95 6.55 0.95 6.5 2.2 6.55" fill="#d1d0a5" fill-opacity="0.3019608" fill-rule="evenodd" stroke="none"/>
    <path d="M6.15 0.4 L6.5 0.75 6.7 0.95 7.35 1.35 7.8 1.7 8.25 2.25 8.45 2.65 8.5 2.85 8.6 3.0 8.65 3.2 8.65 3.6 8.65 3.95 8.65 4.5 8.65 5.1 8.65 5.45 8.65 5.65 8.6 5.85 8.5 6.0 8.45 6.2 8.35 6.4 8.2 6.55 8.0 6.75 7.9 6.95 7.85 7.15 7.75 7.35 7.7 7.5 7.2 8.25 6.35 9.2 Q5.8 9.75 5.1 9.95 L4.8 10.15 4.45 10.35 4.1 10.5 3.7 10.7 3.6 10.9 3.5 11.05 3.4 11.25 3.25 11.45 3.15 11.65 3.1 11.85 3.0 12.0 2.95 12.2 1.3 13.8 Q-0.85 15.4 -3.55 14.45 L-3.85 14.25 -4.05 14.1 -4.25 13.9 -4.35 13.7 -4.4 13.5 -4.6 13.35 -5.0 13.15 -5.15 12.95 -5.3 12.75 -5.4 12.55 -5.5 12.4 -5.55 12.2 -5.55 12.0 -5.55 11.85 -5.55 11.65 -5.5 11.25 -5.5 10.9 -5.4 10.7 -5.35 10.5 -5.3 10.35 -5.25 10.15 -5.15 9.95 -5.1 9.75 -4.8 9.2 -4.35 8.45 -3.6 7.7 -3.15 7.35 -2.85 6.95 -2.6 6.6 -2.25 6.2 -1.8 5.85 -1.65 5.65 -1.7 5.45 -1.75 5.25 -1.75 5.1 -1.7 4.9 -1.65 4.7 -1.6 4.5 -1.5 4.35 -1.35 4.15 -1.15 3.95 -0.65 3.65 -0.4 3.6 -0.05 3.5 0.85 3.4 1.2 3.2 1.25 3.0 1.25 2.85 1.25 2.65 1.25 2.45 1.25 2.25 1.35 1.9 1.4 1.7 1.5 1.5 1.7 1.35 1.9 1.15 2.0 0.95 2.1 0.75 2.15 0.6 2.2 0.4 2.35 0.2 2.5 0.0 2.7 -0.15 2.95 -0.3 3.1 -0.35 3.35 -0.4 3.7 -0.45 4.2 -0.5 4.2 -0.55 4.45 -0.55 4.8 -0.45 5.2 -0.35 5.75 0.05 6.15 0.4" fill="#d1d0a5" fill-opacity="0.3019608" fill-rule="evenodd" stroke="none"/>
    <path d="M6.45 -10.65 L6.8 -10.6 7.2 -10.5 7.45 -10.3 7.65 -10.1 7.85 -9.9 7.9 -9.75 7.95 -9.55 8.0 -9.35 8.1 -9.15 8.1 -9.0 8.1 -8.8 8.1 -8.6 8.1 -8.4 8.1 -8.25 8.1 -8.05 8.15 -7.9 8.4 -7.65 8.5 -7.5 8.65 -7.3 8.7 -7.1 8.75 -6.9 8.85 -6.75 8.85 -6.55 8.85 -6.35 8.85 -6.15 8.85 -6.0 8.8 -5.8 8.75 -5.6 8.7 -5.45 8.6 -5.25 8.45 -5.05 8.55 -4.85 8.65 -4.65 8.7 -4.5 8.75 -4.3 8.85 -4.1 8.9 -3.9 8.9 -3.75 8.9 -3.55 8.9 -3.35 8.9 -3.15 8.85 -3.0 8.85 -2.8 8.75 -2.6 8.65 -2.4 8.65 -2.25 8.6 -2.05 8.6 -1.85 8.5 -1.7 8.4 -1.5 8.4 -1.3 8.45 -1.25 8.8 -1.15 9.2 -1.05 9.5 -0.85 9.7 -0.65 9.9 -0.5 10.05 -0.3 10.25 0.05 10.4 0.25 10.45 0.45 10.5 0.65 10.6 0.85 10.65 1.0 10.65 1.4 10.65 1.95 10.65 2.7 10.65 3.25 10.6 3.45 10.5 3.65 10.45 3.85 10.35 4.0 10.25 4.2 10.2 4.4 10.15 4.6 10.0 4.75 9.95 4.95 9.9 5.15 9.85 5.35 9.75 5.5 9.65 5.9 9.5 6.1 9.4 6.25 9.25 6.45 9.15 6.65 8.9 6.8 8.6 7.0 8.35 7.2 8.25 7.4 8.05 7.75 7.8 8.15 7.2 8.7 6.95 8.9 6.55 8.95 5.45 9.1 5.1 9.15 5.05 9.3 5.0 9.5 4.95 9.7 4.9 9.9 4.8 10.05 4.65 10.25 4.45 10.45 4.2 10.65 3.45 10.8 2.45 10.65 1.85 10.35 1.6 10.25 1.2 10.15 0.9 9.95 0.7 9.75 0.5 9.6 0.35 9.4 0.15 9.2 0.0 9.0 -0.05 8.85 -0.1 8.65 -0.15 8.45 -0.15 8.1 -0.15 7.7 -0.2 7.15 -0.1 6.4 -0.05 6.2 0.15 6.0 0.25 5.85 0.3 5.65 0.35 5.45 0.35 5.25 0.35 5.1 0.4 4.9 0.65 4.5 0.95 4.15 1.5 3.6 1.7 3.4 2.0 3.2 2.1 2.1 2.2 0.4 2.5 -1.1 2.6 -1.3 2.65 -2.8 3.0 -4.85 3.45 -6.9 3.6 -7.1 3.6 -7.3 3.6 -7.5 3.6 -7.65 3.6 -7.85 3.65 -8.05 3.7 -8.25 3.85 -8.4 3.95 -8.6 4.15 -8.8 4.4 -9.0 4.5 -9.2 4.7 -9.55 4.9 -9.9 5.45 -10.4 5.6 -10.5 5.85 -10.55 6.1 -10.6 6.45 -10.65" fill="#d1d0a5" fill-opacity="0.3019608" fill-rule="evenodd" stroke="none"/>
    <path d="M8.5 -15.15 L8.65 -15.0 8.7 -14.8 8.75 -14.6 8.85 -14.4 8.85 -14.25 8.85 -14.05 8.85 -13.85 8.75 -13.65 8.7 -13.5 8.65 -13.3 8.5 -13.1 8.4 -12.95 8.05 -12.55 7.65 -12.15 7.7 -12.0 7.75 -11.8 7.8 -11.6 7.85 -11.4 7.75 -11.25 7.7 -11.05 7.55 -10.85 7.4 -10.65 7.05 -10.5 6.85 -10.35 6.6 -10.3 6.2 -10.25 5.65 -10.35 5.35 -10.55 5.15 -10.75 5.05 -10.95 4.95 -11.1 4.9 -11.3 4.9 -11.5 4.9 -11.65 4.9 -11.8 4.7 -11.8 2.95 -11.9 2.7 -11.9 2.35 -12.05 2.1 -12.25 1.4 -12.4 1.15 -12.6 0.95 -12.8 0.85 -13.0 0.75 -13.15 0.7 -13.35 0.7 -13.55 0.7 -13.75 0.75 -13.9 0.85 -14.1 0.95 -14.3 1.15 -14.5 1.4 -14.65 2.0 -14.85 2.35 -15.0 6.4 -15.15 6.6 -15.35 6.9 -15.55 7.45 -15.65 7.95 -15.55 8.35 -15.35 8.5 -15.15" fill="#d1d0a5" fill-opacity="0.3019608" fill-rule="evenodd" stroke="none"/>
    <path d="M0.35 12.25 L0.45 12.2 0.55 12.2 1.4 12.4 1.75 12.6 1.85 12.7 1.95 12.85 2.1 13.05 2.15 13.15 2.15 13.3 2.15 13.35 2.15 13.45 2.2 13.55 2.15 13.65 2.1 13.75 2.1 13.85 2.0 13.9 1.95 14.0 1.9 14.05 1.8 14.15 1.65 14.15 1.5 14.2 1.4 14.2 1.2 14.2 1.05 14.1 0.9 14.05 0.65 13.95 0.4 13.95 0.4 14.0 0.35 14.3 0.25 14.55 0.2 14.95 0.0 15.35 -0.05 15.45 -0.1 15.5 -0.15 15.6 -0.2 15.7 -0.25 15.75 -0.35 15.8 -0.5 15.9 -0.55 15.9 -0.6 15.95 -0.9 15.9 -1.5 15.75 -1.6 15.8 -1.75 15.95 -1.95 16.1 -2.05 16.15 -2.25 16.3 -2.3 16.4 -2.3 16.5 -2.35 16.55 -2.4 16.65 -2.45 16.7 -2.55 16.8 -2.6 16.85 -2.7 16.95 -2.8 17.0 -2.9 17.0 -3.05 17.05 -3.15 17.05 -3.3 17.0 -3.45 16.95 -3.6 16.8 -3.65 16.7 -3.75 16.6 -3.75 16.5 -3.85 16.5 -4.0 16.5 -4.2 16.5 -4.25 16.55 -4.35 16.65 -4.4 16.7 -4.5 16.8 -4.55 16.85 -4.7 16.9 -5.2 16.9 -5.5 16.9 -5.9 16.8 -6.15 16.65 -6.3 16.55 -6.35 16.6 -6.4 16.7 -6.45 16.8 -6.5 16.85 -6.55 16.95 -6.7 17.0 -6.8 17.05 -6.9 17.1 -7.15 17.1 -7.35 17.0 -7.4 16.85 -7.45 16.75 -7.5 16.65 -7.55 16.55 -7.55 16.45 -7.55 16.35 -7.55 16.25 -7.5 16.15 -7.5 16.05 -7.5 16.0 -7.45 15.9 -7.4 15.8 -7.35 15.75 -7.25 15.65 -7.15 15.6 -7.05 15.55 -6.85 15.5 -6.75 15.45 -6.65 15.35 -6.55 15.3 -6.45 15.25 -6.35 15.15 -6.35 15.1 -6.35 14.95 -6.4 14.85 -6.4 14.75 -6.4 14.65 -6.45 14.55 -6.4 14.45 -6.4 14.4 -6.35 14.2 -6.3 14.1 -6.3 14.0 -6.25 13.85 -6.25 13.75 -6.2 13.65 -6.15 13.6 -6.1 13.5 -6.0 13.45 -5.9 13.35 -5.75 13.3 -5.6 13.3 -5.45 13.3 -5.3 13.35 -5.15 13.45 -5.05 13.5 -5.0 13.5 -5.0 13.4 -5.05 13.3 -5.05 13.2 -5.1 13.05 -5.05 13.0 -5.05 12.8 -5.0 12.6 -4.95 12.45 -4.85 12.15 -4.8 12.1 -4.75 12.0 -4.7 11.95 -4.6 11.85 -4.5 11.8 -4.25 11.75 -4.15 11.7 -4.1 11.65 -4.05 11.55 -4.0 11.45 -4.0 11.4 -3.95 11.3 -3.9 11.2 -3.8 11.15 -3.7 11.05 -3.6 11.0 -3.45 10.95 -3.35 10.9 -3.2 10.85 -3.05 10.85 -2.9 10.85 -2.7 10.9 -2.7 10.85 -2.1 11.1 -1.8 11.25 -1.75 11.35 -1.6 11.5 -1.45 11.65 -1.35 11.75 -1.25 11.9 -1.2 12.0 -1.2 12.1 -1.15 12.2 -1.1 12.35 -1.1 12.45 -1.1 12.55 -1.05 12.65 -1.0 12.55 -0.95 12.5 -0.85 12.4 -0.75 12.35 -0.6 12.3 -0.45 12.3 -0.2 12.3 -0.05 12.25 0.15 12.25 0.35 12.25" fill="#663300" fill-opacity="0.2" fill-rule="evenodd" stroke="none"/>
    <path d="M-5.35 10.8 L-4.7 10.25 -4.55 10.2 -4.55 10.1 -4.6 10.0 -4.6 9.9 -4.55 9.8 -4.55 9.7 -4.55 9.65 -4.5 9.55 -4.45 9.45 -4.4 9.4 -4.3 9.3 -4.2 9.25 -3.95 9.15 -3.75 9.1 -3.65 9.1 -3.55 9.1 -3.45 9.1 -3.35 9.1 -3.2 9.05 -3.05 9.0 -2.95 8.95 -2.85 8.9 -2.75 8.85 -2.6 8.75 -2.4 8.75 -2.2 8.75 -2.1 8.7 -2.1 8.6 -2.05 8.5 -2.0 8.45 -1.95 8.35 -1.9 8.3 -1.8 8.2 -1.7 8.15 -1.55 8.1 -1.4 8.1 -1.25 8.1 -1.1 8.2 -0.95 8.3 -0.85 8.4 -0.75 8.55 -0.65 8.65 -0.6 8.75 -0.6 8.9 -0.55 9.0 -0.5 9.1 -0.45 9.2 -0.45 9.3 -0.45 9.6 -0.5 9.95 -0.6 10.4 -0.7 10.7 -0.7 10.8 -0.65 10.9 -0.65 11.0 -0.6 11.1 -0.6 11.2 -0.6 11.3 -0.6 11.4 -0.55 11.5 -0.55 11.6 -0.55 11.7 -0.6 11.8 -0.6 11.95 -0.65 12.15 -0.7 12.25 -0.7 12.3 -0.75 12.4 -0.75 12.5 -0.75 12.6 -0.8 12.7 -0.8 12.8 -0.85 12.85 -0.9 12.95 -0.95 13.05 -0.95 13.1 -1.05 13.3 -1.1 13.35 -1.2 13.45 -1.25 13.5 -1.3 13.6 -1.4 13.65 -1.6 13.8 -1.6 13.9 -1.6 14.0 -1.6 14.1 -1.6 14.2 -1.6 14.3 -1.65 14.35 -1.65 14.45 -1.7 14.55 -1.8 14.6 -1.85 14.7 -1.95 14.75 -2.05 14.8 -2.15 14.85 -2.25 14.85 -2.45 14.85 -2.95 14.65 -3.75 14.65 -3.9 14.6 -4.55 14.4 -5.4 14.15 -5.55 14.1 -5.7 14.0 -5.75 14.1 -5.85 14.15 -5.9 14.25 -5.95 14.3 -6.1 14.4 -6.25 14.45 -6.5 14.4 -6.7 14.3 -6.85 14.15 -6.9 14.05 -6.95 13.9 -6.95 13.8 -7.0 13.7 -6.95 13.6 -6.95 13.5 -6.95 13.45 -6.95 13.35 -6.9 13.25 -6.85 13.15 -6.8 12.9 -6.75 12.55 -6.6 12.1 -6.35 11.65 -5.95 11.3 -5.35 10.8" fill="#663300" fill-opacity="0.2" fill-rule="evenodd" stroke="none"/>
    <path d="M6.0 4.4 L7.05 4.6 7.25 4.75 7.4 4.8 7.45 4.75 7.55 4.7 7.75 4.65 8.0 4.7 8.2 4.75 8.2 4.7 8.45 4.85 8.55 5.0 8.65 5.1 8.65 5.2 8.65 5.3 8.7 5.4 8.7 5.5 8.65 5.6 8.65 5.7 8.65 5.8 8.65 5.9 8.6 5.95 8.6 6.05 8.55 6.15 8.55 6.25 8.55 6.35 8.6 6.45 8.6 6.55 8.7 6.7 8.75 6.8 8.8 6.9 8.85 7.1 8.85 7.2 8.8 7.3 8.8 7.4 8.75 7.45 8.7 7.55 8.65 7.65 8.45 7.85 8.0 8.2 7.5 8.55 7.45 8.6 7.35 8.7 7.3 8.75 7.25 8.85 7.15 8.9 7.05 8.95 6.9 9.0 6.75 9.1 6.65 9.15 6.45 9.3 6.2 9.5 6.0 9.6 5.9 9.6 5.75 9.55 5.5 9.45 5.4 9.3 5.3 9.2 5.3 9.1 5.25 9.05 5.2 9.15 5.2 9.25 5.15 9.3 5.2 9.45 5.2 9.55 5.2 9.65 5.2 9.75 5.25 9.85 5.2 9.9 5.15 10.0 5.15 10.1 5.05 10.15 5.0 10.25 4.95 10.35 4.8 10.4 4.65 10.45 4.5 10.45 4.35 10.45 4.1 10.3 4.0 10.15 3.95 10.05 3.9 9.95 3.85 9.8 3.7 9.7 3.6 9.55 3.4 9.4 3.35 9.3 3.3 9.15 3.15 9.05 3.0 8.9 2.9 8.75 2.85 8.65 2.8 8.55 2.8 8.45 2.8 8.35 2.8 8.25 2.85 8.05 2.9 7.9 2.9 7.7 2.95 7.6 3.0 7.55 3.05 7.45 3.15 7.4 3.3 7.25 Q3.45 7.1 3.65 7.05 L3.75 7.0 3.95 6.95 4.15 6.95 4.5 6.9 4.55 6.8 4.6 6.75 4.65 6.65 4.65 6.55 4.75 6.5 4.75 6.4 4.75 6.3 4.7 6.2 4.7 6.1 4.7 6.0 4.7 5.9 4.7 5.8 4.75 5.7 4.75 5.6 4.8 5.55 4.8 5.45 4.8 5.35 4.85 5.15 4.9 5.0 4.95 4.8 5.0 4.75 5.05 4.65 5.25 4.5 5.45 4.4 5.6 4.35 5.65 4.35 6.0 4.4" fill="#663300" fill-opacity="0.2" fill-rule="evenodd" stroke="none"/>
    <path d="M6.4 2.85 L6.6 3.0 6.75 3.15 6.8 3.25 6.95 3.4 7.1 3.55 7.1 3.65 7.15 3.75 7.2 3.95 7.2 4.05 7.25 4.25 7.25 4.45 7.25 4.55 7.2 4.65 7.2 4.7 7.15 4.8 7.15 4.9 7.1 5.0 7.05 5.05 7.0 5.15 6.95 5.25 6.9 5.3 6.9 5.4 6.85 5.5 6.8 5.6 6.75 5.65 6.65 5.7 6.55 5.8 6.5 5.85 6.45 5.95 6.3 6.1 6.15 6.15 6.0 6.2 5.85 6.2 5.7 6.2 5.5 6.15 5.35 6.1 5.2 6.05 5.0 6.0 4.8 5.85 4.3 5.4 4.0 4.95 4.0 4.85 4.0 4.75 4.05 4.45 4.15 4.1 4.35 3.6 4.45 3.35 4.5 3.25 4.65 3.1 4.8 2.95 5.15 2.75 5.45 2.65 5.7 2.7 5.85 2.7 5.9 2.7 6.4 2.85" fill="#663300" fill-opacity="0.2" fill-rule="evenodd" stroke="none"/>
    <path d="M0.7 -16.55 Q-0.1 -16.5 -0.15 -16.25 L-0.05 -15.3 Q0.1 -14.55 0.45 -14.3 L1.1 -9.2 1.25 -6.45 Q1.35 -3.7 0.7 -1.1 L0.6 -0.85 0.55 -0.75 0.5 -0.65 0.45 -0.35 0.45 -0.3 0.45 -0.2 0.45 -0.1 0.45 0.0 0.4 0.1 0.35 0.2 0.3 0.3 0.3 0.4 0.25 0.45 -0.7 2.05 -2.15 3.65 -2.6 4.05 -4.55 5.85 -6.35 7.1 -6.4 7.15 -6.45 7.25 -6.6 7.35 -6.8 7.45 -6.9 7.55 -6.95 7.55 -7.0 7.65 -7.05 7.7 -7.2 7.9 -7.25 8.0 -7.3 8.1 -8.2 8.8 -8.85 9.7 -9.3 10.35 -9.3 10.45 -9.35 10.55 -9.35 10.65 -9.45 10.7 -9.55 11.0 -9.6 11.3 -9.7 11.65 -9.8 12.05 -9.8 12.6 -9.8 13.45 -9.8 14.1 -9.8 14.85 -9.8 14.95 -9.75 15.05 -9.7 15.1 -9.65 15.15 -9.3 15.5 -8.9 15.9 -8.8 16.0 -7.65 16.4 -7.25 16.55 Q-4.05 16.95 -1.25 15.3 L-0.75 14.95 -0.45 14.7 -0.4 14.65 -0.35 14.45 -0.2 14.25 0.05 13.95 1.75 12.15 3.6 10.45 5.05 9.2 5.2 9.1 5.4 9.0 5.9 8.65 6.55 8.15 7.05 7.8 7.9 7.0 9.1 5.9 9.3 5.65 9.5 5.25 9.7 4.9 9.7 4.5 9.7 3.95 9.7 3.4 9.7 3.3 9.65 3.0 9.55 2.55 9.5 2.05 9.5 2.0 9.4 1.6 9.25 1.15 9.1 0.65 9.05 0.55 9.0 0.4 8.95 0.0 8.85 -0.35 8.8 -0.45 8.75 -0.55 8.7 -0.65 8.7 -0.75 8.65 -0.85 8.65 -0.95 8.65 -1.0 8.65 -1.1 8.65 -1.2 8.65 -1.3 8.65 -1.45 8.6 -1.5 8.6 -1.7 8.5 -2.1 8.4 -2.5 8.4 -2.65 8.35 -2.75 8.3 -2.9 Q7.9 -5.0 7.95 -7.15 L8.05 -11.75 8.05 -13.8 8.15 -14.3 8.7 -15.85 8.7 -16.05 8.7 -16.15 8.75 -16.4 8.75 -16.55 8.75 -17.0 8.75 -17.1 8.7 -17.15 4.5 -16.75 0.7 -16.55 M2.85 -17.65 L4.5 -17.6 4.95 -17.6 6.4 -17.85 8.45 -18.05 Q9.25 -18.1 9.7 -17.5 L9.8 -16.4 9.8 -16.3 9.8 -15.85 Q9.95 -15.3 9.55 -15.1 L9.35 -14.9 9.25 -13.8 9.2 -10.35 9.25 -5.75 Q9.25 -4.4 9.55 -3.1 L9.55 -3.0 9.55 -2.9 9.55 -2.8 9.55 -2.65 9.55 -2.6 9.6 -2.3 9.65 -1.85 9.65 -1.75 9.65 -1.7 9.65 -1.6 9.65 -1.45 9.7 -1.3 9.75 -1.2 9.8 -1.1 9.8 -1.0 9.85 -0.95 9.9 -0.85 9.95 -0.75 10.0 -0.45 10.1 -0.1 10.2 0.3 10.25 0.4 10.3 0.5 10.35 0.55 10.4 0.65 10.45 0.75 10.9 2.35 11.0 4.05 10.95 5.15 10.75 5.65 10.35 6.3 10.1 6.65 9.95 6.75 8.15 8.2 8.1 8.3 8.05 8.4 7.95 8.45 7.8 8.55 7.65 8.65 7.6 8.7 7.2 9.0 6.95 9.25 6.15 9.9 5.45 10.5 5.0 10.95 3.4 12.45 2.05 13.85 1.65 14.25 1.45 14.55 1.1 14.9 0.9 15.2 0.85 15.3 0.8 15.4 0.35 15.85 -0.35 16.4 -0.45 16.5 Q-3.65 18.55 -7.45 18.0 L-8.95 17.35 -9.4 17.15 -9.55 17.05 -10.2 16.4 -10.75 15.7 -10.9 15.4 -10.9 15.3 -10.95 15.1 -10.95 15.05 -11.0 14.3 -11.0 13.35 -11.0 12.5 -11.0 11.75 -10.95 11.45 -10.85 11.2 -10.7 10.7 -10.6 10.35 -10.55 10.25 -10.5 10.15 -10.45 10.05 -10.45 9.95 -10.0 9.3 -9.3 8.4 -8.6 7.65 -8.35 7.5 -8.2 7.35 -7.8 6.9 -7.65 6.7 -6.8 6.05 -6.05 5.45 -4.6 4.25 -3.45 3.2 -1.9 1.9 -0.9 0.6 -0.85 0.5 -0.7 0.3 -0.55 0.15 -0.45 0.05 -0.45 -0.05 -0.45 -0.1 -0.45 -0.2 -0.45 -0.3 -0.4 -0.5 -0.35 -0.7 -0.3 -0.85 -0.3 -0.95 -0.3 -1.05 -0.3 -1.15 -0.3 -1.25 Q0.1 -2.85 0.15 -4.55 L0.2 -8.1 0.1 -10.25 0.05 -10.45 -0.05 -10.8 -0.1 -11.2 -0.15 -11.35 -0.25 -12.3 -0.35 -13.45 -0.35 -14.0 -0.6 -14.2 -0.75 -14.55 -0.85 -15.05 Q-1.2 -16.1 -0.7 -17.35 L-0.6 -17.45 0.85 -17.6 2.85 -17.65 M4.55 -14.3 L2.95 -14.3 Q2.25 -14.2 1.8 -14.6 L6.7 -15.3 7.15 -15.15 Q7.35 -14.8 6.85 -14.85 5.45 -14.25 4.55 -14.3" fill="#333333" fill-rule="evenodd" stroke="none"/>
    <path d="M8.55 -13.5 L8.65 -13.45 8.7 -13.45 8.75 -13.4 8.75 -13.35 8.8 -13.3 8.8 -13.15 8.75 -13.15 8.75 -13.1 8.7 -13.05 8.65 -13.05 8.6 -13.0 8.6 -12.95 8.2 -12.9 8.0 -12.8 5.6 -12.4 2.6 -12.2 1.2 -12.25 0.85 -12.25 0.8 -12.3 0.5 -12.3 0.15 -12.35 0.15 -12.45 0.5 -12.45 0.5 -12.5 0.8 -12.5 0.85 -12.5 1.2 -12.55 6.45 -12.95 8.3 -13.4 8.5 -13.5 8.55 -13.5" fill="#333333" fill-rule="evenodd" stroke="none"/>
    <path d="M5.65 -11.05 L2.0 -10.8 0.3 -10.9 0.3 -11.0 0.4 -11.05 5.05 -11.35 7.1 -11.75 7.65 -11.95 8.05 -12.0 8.25 -12.0 8.35 -12.0 8.35 -11.95 8.4 -11.9 8.4 -11.75 8.35 -11.75 8.35 -11.7 8.25 -11.7 7.7 -11.6 5.65 -11.05" fill="#333333" fill-rule="evenodd" stroke="none"/>
    <path d="M9.1 -10.85 L9.15 -10.8 9.15 -10.75 9.2 -10.75 9.2 -10.55 9.15 -10.55 9.15 -10.5 9.1 -10.45 9.0 -10.45 8.7 -10.4 6.95 -9.95 5.5 -9.7 1.5 -9.6 0.7 -9.6 0.65 -9.6 0.55 -9.65 0.35 -9.7 0.35 -9.75 0.4 -9.8 0.45 -9.8 0.5 -9.85 0.55 -9.8 0.65 -9.8 6.05 -10.15 8.0 -10.6 8.65 -10.85 8.7 -10.85 9.0 -10.85 9.1 -10.85" fill="#333333" fill-rule="evenodd" stroke="none"/>
    <path d="M4.7 -8.2 L1.85 -8.0 1.45 -8.0 1.2 -8.0 1.15 -8.05 1.1 -8.05 1.05 -8.1 0.95 -8.1 0.9 -8.15 0.9 -8.25 0.95 -8.25 1.0 -8.3 1.05 -8.3 1.1 -8.25 5.5 -8.65 6.7 -8.85 8.1 -9.4 8.15 -9.45 8.25 -9.45 8.3 -9.5 8.4 -9.45 8.5 -9.45 8.55 -9.4 8.6 -9.35 8.6 -9.3 8.65 -9.25 8.65 -9.1 8.6 -9.1 8.6 -9.05 8.55 -9.0 8.5 -8.95 8.4 -8.9 8.3 -8.95 8.2 -8.95 8.1 -8.9 8.0 -8.85 Q6.7 -8.25 5.25 -8.2 L4.7 -8.2" fill="#333333" fill-rule="evenodd" stroke="none"/>
    <path d="M3.5 -6.6 Q3.6 -7.3 4.35 -7.15 L4.1 -6.9 Q3.8 -6.35 3.8 -5.85 L3.85 -5.75 4.35 -5.5 Q5.85 -4.9 6.05 -6.05 L6.05 -6.1 Q5.45 -7.3 4.35 -7.15 4.15 -7.6 4.8 -7.55 6.05 -7.4 6.6 -6.45 6.75 -5.75 6.35 -5.35 4.8 -3.9 3.4 -5.6 L3.5 -6.6" fill="#333333" fill-rule="evenodd" stroke="none"/>
    <path d="M7.95 -0.4 L8.35 -0.45 8.4 -0.45 8.5 -0.4 8.6 -0.3 8.55 -0.25 8.5 -0.2 8.45 -0.25 8.4 -0.25 8.2 -0.2 7.85 -0.05 6.95 0.6 6.35 1.25 5.85 2.05 5.85 2.1 5.8 2.15 5.8 2.2 5.75 2.25 5.7 2.4 5.65 2.6 5.6 2.75 5.55 2.85 5.55 2.95 5.5 3.0 5.45 3.3 5.4 3.5 5.35 3.7 5.3 3.9 5.25 4.1 5.25 4.4 5.2 4.6 5.2 4.75 5.2 4.95 5.2 5.15 5.2 5.45 5.25 5.65 5.25 5.8 5.25 6.0 5.25 6.2 5.3 6.35 5.4 6.6 5.45 6.75 5.45 6.8 5.5 6.95 5.55 7.1 5.7 7.3 5.8 7.45 5.85 7.55 6.15 7.8 6.4 8.0 6.65 8.15 6.7 8.2 6.85 8.25 7.05 8.3 7.2 8.3 7.3 8.4 7.55 8.45 7.55 8.55 7.5 8.6 7.3 8.6 7.25 8.65 7.2 8.65 7.2 8.7 7.1 8.7 6.95 8.7 6.7 8.65 6.55 8.65 6.45 8.65 5.75 8.15 5.4 7.8 5.1 7.3 5.05 7.2 5.0 7.15 5.0 7.1 4.95 6.9 4.85 6.7 4.8 6.55 4.8 6.45 4.75 6.3 4.7 5.8 4.7 5.35 4.7 4.8 4.75 4.15 4.75 4.1 4.85 3.75 4.9 3.5 4.95 3.3 5.0 3.05 5.05 2.85 5.05 2.8 5.1 2.8 5.15 2.65 5.2 2.4 5.25 2.3 5.25 2.2 5.3 2.05 5.35 2.05 5.35 1.95 5.4 1.9 5.7 1.4 5.9 1.1 6.3 0.65 6.55 0.4 6.6 0.35 6.65 0.35 6.85 0.2 7.15 -0.05 7.3 -0.1 7.95 -0.4" fill="#333333" fill-rule="evenodd" stroke="none"/>
    <path d="M-6.95 8.2 L-6.9 8.2 -6.85 8.15 -6.75 8.15 -6.7 8.15 -6.65 8.1 -6.55 8.15 -6.45 8.15 -6.3 8.25 -6.2 8.3 -6.1 8.35 -5.85 8.45 -5.75 8.5 -5.45 8.75 -5.15 9.05 -4.8 9.4 -4.7 9.5 -4.65 9.5 -4.0 10.35 -3.2 11.45 -2.4 12.7 -2.35 12.75 -2.2 13.05 -1.95 13.35 -1.7 13.8 -1.5 14.2 -1.45 14.25 -1.45 14.3 -1.4 14.35 -1.4 14.45 -1.35 14.45 -1.35 14.55 -1.3 14.6 -1.3 14.65 -1.25 14.7 -1.25 14.75 -1.2 14.75 -1.2 14.85 -1.15 14.9 -1.15 14.95 -1.0 15.15 -0.9 15.35 -0.8 15.5 -0.6 15.8 -0.6 15.9 -0.65 15.9 -0.7 15.95 -0.75 16.0 -0.85 16.05 -0.95 16.0 -1.2 15.8 -1.35 15.65 -1.45 15.45 -1.6 15.2 -1.6 15.1 -1.65 15.05 -1.65 15.0 -1.7 14.95 -1.7 14.9 -1.75 14.85 -1.75 14.75 -1.8 14.75 -1.8 14.65 -1.85 14.6 -1.85 14.55 -1.9 14.5 -1.9 14.45 -1.95 14.3 -2.05 14.15 -2.1 14.05 -2.2 13.95 -2.3 13.75 -2.3 13.7 -2.4 13.55 -2.5 13.4 -2.55 13.25 -2.65 13.1 -2.75 13.0 -2.75 12.95 -3.5 11.7 -4.7 10.1 -6.0 8.75 -6.25 8.6 -6.5 8.45 -6.7 8.4 -6.75 8.4 -6.85 8.4 -6.9 8.35 -6.9 8.3 -6.95 8.3 -6.95 8.2" fill="#333333" fill-rule="evenodd" stroke="none"/>
    <path d="M1.4 9.6 L1.5 9.6 1.5 9.65 1.55 9.7 1.6 9.7 1.7 9.75 1.95 9.8 2.35 10.0 2.6 10.1 2.6 10.15 2.65 10.2 2.65 10.25 2.6 10.25 2.55 10.3 2.5 10.35 2.15 10.2 1.95 10.1 1.7 9.95 1.6 9.9 1.55 9.85 1.5 9.8 1.4 9.7 1.4 9.6" fill="#333333" fill-rule="evenodd" stroke="none"/>
    <path d="M3.3 9.35 L3.5 9.45 3.7 9.6 3.85 9.7 4.05 9.85 4.1 9.9 4.1 9.95 4.15 10.0 4.1 10.05 4.1 10.1 4.05 10.1 4.0 10.15 3.95 10.15 3.9 10.1 3.8 10.1 3.6 9.95 3.4 9.85 3.3 9.75 2.8 9.4 2.45 9.15 2.2 8.9 2.1 8.85 2.05 8.8 2.0 8.75 1.95 8.7 2.05 8.6 2.1 8.65 2.2 8.65 2.3 8.65 2.35 8.7 2.45 8.75 2.6 8.85 2.7 8.95 2.8 9.0 3.05 9.2 3.3 9.35" fill="#333333" fill-rule="evenodd" stroke="none"/>
    <path d="M4.35 8.9 L4.5 9.05 4.55 9.05 4.55 9.1 4.6 9.15 4.6 9.2 4.65 9.2 4.6 9.25 4.6 9.3 4.55 9.3 4.5 9.35 4.45 9.3 4.4 9.3 4.3 9.3 4.2 9.25 4.15 9.2 4.05 9.15 3.95 9.1 3.85 9.0 3.8 8.9 3.7 8.8 3.55 8.65 3.55 8.55 3.6 8.5 3.75 8.5 3.85 8.55 3.9 8.6 3.95 8.65 4.05 8.75 4.1 8.75 4.25 8.85 4.35 8.9" fill="#333333" fill-rule="evenodd" stroke="none"/>
    <path d="M9.35 3.3 L9.05 3.4 8.7 3.3 8.55 3.3 8.5 3.25 8.55 3.2 9.25 3.1 10.05 2.9 10.65 2.8 10.75 2.85 10.75 2.9 10.8 2.9 10.8 3.0 10.75 3.05 10.65 3.1 10.6 3.15 9.75 3.25 9.35 3.3" fill="#333333" fill-rule="evenodd" stroke="none"/>
    <path d="M9.05 3.85 L9.1 3.85 9.5 3.9 10.0 4.0 10.35 4.05 10.4 4.1 10.45 4.1 10.6 4.15 10.65 4.15 10.7 4.2 10.75 4.25 10.7 4.25 10.7 4.3 10.6 4.35 10.6 4.4 10.5 4.4 9.9 4.3 9.3 4.2 8.8 4.1 8.7 4.05 8.7 4.0 8.65 3.95 8.6 3.9 8.65 3.85 8.65 3.8 8.75 3.8 8.8 3.85 8.9 3.85 9.05 3.85" fill="#333333" fill-rule="evenodd" stroke="none"/>
    <path d="M9.55 -15.9 L9.5 -15.85 9.5 -15.8 9.4 -15.75 9.35 -15.7 9.2 -15.65 9.1 -15.6 9.05 -15.55 8.45 -15.3 8.25 -15.2 8.1 -15.2 7.8 -15.15 7.7 -15.2 7.6 -15.3 7.6 -15.35 7.65 -15.4 7.65 -15.45 7.7 -15.5 8.55 -15.75 8.95 -15.85 9.25 -15.95 9.35 -15.95 9.4 -15.95 9.45 -16.0 9.55 -15.9" fill="#333333" fill-rule="evenodd" stroke="none"/>
  </g>
</svg>
