<?xml version="1.0" encoding="UTF-8" standalone="no"?>
<svg xmlns:xlink="http://www.w3.org/1999/xlink" height="62.0px" width="29.4px" xmlns="http://www.w3.org/2000/svg">
  <g transform="matrix(1.0, 0.0, 0.0, 1.0, 0.95, 1.0)">
    <path d="M26.75 2.35 L27.45 0.0 24.5 0.65 Q23.55 0.9 22.0 1.6 L19.25 2.65 15.85 3.4 16.35 3.7 18.7 6.25 21.4 5.1 26.0 3.55 26.75 2.35 M18.7 6.25 L19.05 6.95 20.25 10.05 22.3 12.6 22.9 11.0 23.8 8.1 26.0 3.55 M4.45 60.0 L2.85 56.35 1.6 52.55 0.7 48.6 0.2 45.5 0.1 44.0 0.05 40.0 0.15 36.0 0.45 32.0 0.85 29.05 1.35 26.2 2.45 22.3 3.45 19.45 4.05 18.05 Q5.1 16.35 6.3 14.75 L8.25 12.4 11.45 9.95 14.15 8.45 18.7 6.25 M15.85 3.4 L14.45 3.5 M15.85 3.4 L13.95 2.5" fill="none" stroke="#ffffff" stroke-linecap="round" stroke-linejoin="round" stroke-width="2.0"/>
  </g>
</svg>
