<?xml version="1.0" encoding="UTF-8" standalone="no"?>
<svg xmlns:xlink="http://www.w3.org/1999/xlink" height="46.5px" width="43.5px" xmlns="http://www.w3.org/2000/svg">
  <g transform="matrix(1.0, 0.0, 0.0, 1.0, 1.0, 1.0)">
    <path d="M0.5 43.5 L1.3 43.4 1.6 43.15 4.4 40.25 6.4 37.95 10.9 32.4 11.5 31.5 13.3 34.95 14.35 37.75 16.85 36.1 19.1 34.65 22.25 32.15 25.3 29.6 27.55 27.6 30.85 24.35 32.8 22.1 35.6 18.25 37.1 15.65 39.1 12.05 40.4 8.3 Q41.0 6.4 41.2 4.4 L41.45 1.4 41.5 0.0 M9.2 43.0 L12.0 43.0 14.0 43.15 16.5 42.5 15.15 39.5 14.65 38.45 14.35 37.75 12.1 38.95 9.5 40.2 5.85 41.75 2.15 43.15 6.15 43.05 9.2 43.0 M1.6 43.15 L2.15 43.15 1.3 43.4 0.0 44.5" fill="none" stroke="#ffffff" stroke-linecap="round" stroke-linejoin="round" stroke-width="2.0"/>
  </g>
</svg>
