<?xml version="1.0" encoding="UTF-8" standalone="no"?>
<svg xmlns:xlink="http://www.w3.org/1999/xlink" height="3.2px" width="2.0px" xmlns="http://www.w3.org/2000/svg">
  <g transform="matrix(1.0, 0.0, 0.0, 1.0, -9.6, -2.15)">
    <path d="M11.25 2.2 L11.25 2.15 11.35 2.15 11.4 2.15 11.45 2.25 11.45 2.35 11.45 2.45 11.5 2.55 11.45 2.6 11.35 2.7 11.3 2.8 11.25 2.9 11.15 3.0 11.05 3.1 11.0 3.2 10.85 3.3 10.6 3.45 10.55 3.55 10.45 3.65 10.35 3.75 10.0 3.95 9.85 4.0 9.7 3.95 9.6 3.85 9.6 3.75 9.7 3.6 9.9 3.4 10.05 3.3 10.1 3.2 10.5 2.9 10.8 2.7 10.9 2.6 10.95 2.55 11.1 2.5 11.2 2.4 11.2 2.3 11.25 2.2" fill="#333333" fill-rule="evenodd" stroke="none"/>
    <path d="M11.5 4.4 L11.55 4.5 11.6 4.6 11.55 4.7 11.55 4.8 11.45 4.85 11.35 4.95 11.3 5.05 11.1 5.1 10.75 5.2 10.55 5.25 10.45 5.3 10.4 5.35 10.25 5.35 10.05 5.3 9.95 5.2 9.9 5.1 9.85 5.05 9.9 4.95 9.9 4.85 9.95 4.75 10.05 4.65 10.2 4.55 10.35 4.5 10.85 4.35 11.25 4.25 11.45 4.3 11.5 4.4" fill="#333333" fill-rule="evenodd" stroke="none"/>
  </g>
</svg>
