<?xml version="1.0" encoding="UTF-8" standalone="no"?>
<svg xmlns:xlink="http://www.w3.org/1999/xlink" height="84.1px" width="203.75px" xmlns="http://www.w3.org/2000/svg">
  <g transform="matrix(1.0, 0.0, 0.0, 1.0, 101.85, 42.05)">
    <path d="M23.6 -33.85 L29.6 -21.0 35.0 -10.05 37.55 -4.75 37.65 -4.55 38.0 -4.25 39.2 -3.1 40.6 -2.25 42.45 -1.6 43.9 -1.35 45.0 -1.15 48.6 -0.5 54.0 0.5 61.2 1.85 65.25 2.65 86.1 6.7 94.45 8.55 97.35 9.3 98.55 9.65 99.55 9.95 100.25 10.15 100.3 10.6 100.25 13.5 99.0 20.75 96.4 20.9 90.1 20.9 85.2 20.85 82.25 20.85 81.05 20.8 80.25 20.75 Q79.8 20.9 79.45 21.2 L79.4 21.3 79.5 21.45 79.65 21.65 80.25 21.9 80.7 22.6 81.85 29.0 85.2 29.15 84.15 29.15 83.7 29.3 83.45 29.5 83.35 29.65 83.3 29.85 83.25 30.05 83.25 30.25 83.35 30.4 83.45 30.6 83.7 30.8 84.15 30.9 84.65 31.0 84.9 31.05 85.15 31.0 95.75 30.95 94.6 33.0 93.45 34.2 92.9 34.65 92.8 34.6 92.6 34.4 91.35 33.65 90.35 33.1 89.3 32.45 89.15 32.5 88.95 32.6 88.85 32.7 89.6 33.55 91.2 34.5 92.25 35.05 90.95 35.55 90.25 34.95 89.05 34.15 88.65 34.05 88.4 34.1 88.15 34.2 88.05 34.4 88.05 34.6 88.2 34.8 88.65 34.95 88.9 35.15 89.1 35.35 89.4 35.55 89.5 35.6 86.5 35.6 82.3 35.6 82.15 33.8 81.5 28.75 Q80.6 22.75 76.55 18.05 L73.4 14.95 69.85 12.45 67.95 11.4 70.15 13.0 Q74.0 15.75 76.8 19.4 78.75 22.0 79.7 25.15 L80.1 26.55 79.05 25.0 Q77.15 22.6 74.85 20.45 72.4 18.25 69.2 17.2 L65.6 16.05 61.35 15.6 56.7 15.7 52.6 16.5 Q50.75 16.75 49.05 17.45 47.5 18.05 46.15 18.95 L43.75 20.65 42.7 21.6 39.65 25.05 38.55 26.55 Q39.75 23.9 41.3 21.5 43.1 18.7 45.55 16.4 47.8 14.3 50.5 12.85 53.3 11.2 56.3 9.95 L52.8 10.7 Q50.2 11.45 47.9 12.9 41.8 16.5 38.85 22.9 L37.9 25.25 38.1 22.1 Q38.6 15.7 38.05 9.4 L92.35 9.05 91.9 8.65 86.4 8.3 73.3 8.15 64.1 8.2 59.7 8.25 55.3 8.25 49.3 8.15 45.5 8.15 39.9 8.15 38.0 8.15 37.25 -0.05 37.35 -0.5 Q37.5 -2.1 36.85 -3.25 L36.2 -4.4 33.3 -10.6 31.0 -15.6 28.2 -21.45 25.45 -27.25 22.7 -32.9 21.15 -36.05 20.1 -36.15 18.55 -36.55 14.45 -37.4 Q6.25 -38.2 -1.9 -37.85 L-7.5 -37.85 -12.8 -37.8 -17.4 -37.8 -22.95 -37.1 -24.1 -36.8 -24.0 -35.75 -24.2 -35.35 -20.0 -4.1 -21.85 -0.9 -22.85 1.65 Q-23.7 4.8 -23.4 8.2 L-92.65 8.2 -92.65 7.15 Q-92.55 5.3 -92.8 3.2 -93.0 1.25 -92.55 -0.65 L-91.55 -3.3 Q-89.6 -7.0 -86.95 -10.1 L-85.45 -11.85 -85.3 -12.05 -82.5 -15.45 -81.0 -17.15 -79.15 -19.25 -76.95 -21.65 -74.45 -24.35 -71.65 -27.45 -68.45 -30.85 -64.9 -34.6 -63.0 -36.6 -64.45 -35.7 -67.5 -32.95 -76.55 -23.25 -78.9 -20.65 -80.55 -18.9 -81.1 -18.3 -84.2 -14.85 -85.25 -13.5 -85.45 -13.25 -86.0 -12.5 -87.7 -10.35 -88.35 -9.55 -89.45 -8.1 -91.35 -5.4 -91.9 -4.45 -93.4 -1.65 Q-93.9 -0.6 -94.0 0.55 -94.2 2.55 -94.0 4.65 L-93.6 8.2 -95.05 8.2 -95.25 6.65 -95.35 5.15 -95.7 1.7 Q-96.2 -1.85 -94.15 -4.75 L-90.85 -9.25 -87.65 -13.2 -85.45 -15.75 -84.8 -16.5 -83.4 -18.05 -81.65 -19.9 -79.65 -22.05 -77.35 -24.55 -74.65 -27.25 -71.65 -30.25 -68.4 -33.6 -66.7 -35.4 -66.25 -35.35 -65.9 -35.65 Q-65.05 -36.3 -64.0 -36.5 -59.5 -37.95 -54.75 -38.5 L-49.85 -39.0 -44.1 -39.45 -37.65 -39.75 -31.8 -39.9 -26.7 -40.05 -22.5 -40.15 -17.2 -40.3 -13.85 -40.35 -7.3 -40.35 -0.7 -40.3 9.65 -40.2 15.45 -39.85 Q19.4 -39.9 23.05 -38.15 L22.45 -36.55 23.6 -33.85 M8.45 -36.75 Q14.65 -37.0 20.35 -35.0 L34.65 -4.8 35.5 -2.45 35.75 -1.0 35.85 -0.2 35.95 -0.15 Q36.7 -0.2 36.65 2.05 L36.75 6.15 36.85 8.15 -22.3 8.2 -22.3 3.95 Q-22.3 1.45 -21.15 -0.75 L-19.4 -4.1 -23.15 -36.4 Q-9.55 -36.9 4.05 -36.75 L8.45 -36.75 M0.15 -35.55 L-13.9 -35.5 -17.3 -35.35 -18.1 -35.35 -18.95 -35.0 -20.35 -34.3 -20.95 -33.8 Q-21.2 -32.35 -20.95 -31.1 L-20.7 -29.05 -20.2 -24.65 -19.6 -19.45 -19.05 -14.3 -18.15 -6.55 Q-18.05 -5.65 -17.25 -5.05 -16.0 -4.5 -14.5 -4.35 L-12.4 -4.75 -6.85 -4.65 -1.35 -4.55 4.15 -4.5 8.4 -4.45 11.0 -4.45 11.0 -3.4 11.25 -3.1 10.9 -3.05 Q12.4 -1.55 14.05 -3.15 L14.55 -3.9 14.8 -4.45 15.15 -4.45 21.2 -4.45 22.0 -4.45 22.55 -4.6 22.65 -4.6 27.9 -5.1 Q29.55 -5.6 30.15 -6.05 L30.45 -6.35 30.95 -7.45 31.0 -7.5 31.0 -7.55 31.05 -7.6 31.05 -7.7 31.1 -7.75 31.15 -7.9 31.2 -8.0 31.2 -8.4 31.2 -8.7 31.2 -9.0 31.2 -9.6 31.15 -9.65 31.15 -9.75 31.1 -9.8 31.1 -9.95 30.9 -10.4 28.8 -14.4 26.55 -19.2 24.15 -24.05 21.9 -28.75 19.45 -33.55 18.9 -33.75 17.25 -34.5 15.45 -35.1 10.8 -35.5 4.1 -35.55 0.15 -35.55 M40.85 -3.45 L41.75 -3.35 Q43.3 -3.45 44.75 -4.05 L47.35 -3.45 50.65 -2.7 54.85 -1.8 57.25 -1.25 59.75 -0.7 63.6 0.2 69.15 1.6 74.5 2.9 Q81.3 4.55 87.85 6.5 L82.95 5.35 78.8 4.45 73.95 3.45 68.45 2.35 65.45 1.75 62.3 1.15 55.5 -0.15 49.95 -1.15 46.0 -1.95 41.5 -2.85 Q40.85 -3.1 40.3 -3.5 L40.85 -3.45 M10.25 36.25 L9.1 36.65 30.0 37.65 30.0 37.8 30.1 38.0 30.5 38.15 Q30.55 37.95 30.65 38.05 L32.9 37.65 33.2 38.0 33.65 37.6 35.3 37.55 35.35 39.6 32.45 39.55 27.65 39.6 15.55 39.7 -2.65 39.75 -7.45 39.75 -11.95 39.75 -16.45 39.75 Q-29.45 39.85 -42.45 39.45 L-42.25 37.15 -38.8 37.4 -38.75 37.65 -38.25 37.35 -19.5 37.7 Q-18.9 38.65 -17.95 39.1 L-17.7 39.1 Q-16.75 39.05 -16.15 39.6 -15.85 39.85 -15.75 39.6 -15.7 39.45 -15.8 39.4 L-18.3 37.65 3.6 36.85 -19.6 35.75 -20.0 32.45 36.1 32.35 35.35 36.05 32.65 35.85 32.5 35.5 32.35 34.9 Q32.1 34.0 31.4 34.05 31.1 34.3 31.3 34.75 L31.65 35.75 30.3 35.55 30.15 35.55 30.05 35.35 Q29.9 34.95 29.45 35.1 29.25 35.15 29.2 35.35 L29.2 35.55 29.25 35.7 23.0 35.85 10.25 36.25 M36.95 14.15 L36.85 18.8 36.6 23.55 36.2 28.25 -20.55 28.25 -20.65 27.15 Q-13.1 27.2 -5.6 26.8 L-5.5 26.8 -8.85 26.35 -20.7 26.4 -22.25 9.35 36.9 9.4 36.95 14.15 M92.1 32.95 L92.35 33.35 92.55 33.55 92.7 33.7 93.05 33.7 93.4 33.6 93.55 33.55 93.45 33.45 93.15 33.25 93.1 33.2 92.95 33.1 92.75 32.9 92.55 32.7 92.4 32.75 92.2 32.85 92.1 32.95 M-57.55 -33.05 L-58.8 -31.0 -61.15 -27.1 -63.5 -23.3 -65.7 -19.6 -67.9 -15.9 -69.05 -13.85 -69.55 -13.0 Q-70.5 -11.15 -70.5 -9.1 -70.45 -7.25 -68.7 -6.45 -64.4 -4.45 -59.55 -4.65 L-57.5 -4.7 -53.3 -4.75 -49.2 -4.75 -42.1 -4.65 Q-39.0 -4.5 -35.7 -4.6 L-26.25 -4.3 Q-24.4 -4.05 -22.95 -5.0 -22.35 -5.75 -22.55 -6.7 L-22.6 -7.05 -23.25 -13.0 -23.95 -18.45 -24.55 -23.95 Q-25.2 -29.45 -26.25 -34.85 L-26.65 -35.25 -28.15 -36.3 -28.9 -36.8 -29.65 -37.15 Q-32.75 -37.6 -35.7 -37.1 L-49.4 -36.0 -48.6 -36.0 -50.4 -35.85 -55.25 -34.5 Q-57.0 -34.0 -57.55 -33.05 M-6.55 -1.2 L-6.55 -1.4 -6.75 -1.6 -8.4 -1.65 -17.55 -1.5 -17.6 -1.5 -17.55 -1.6 -17.75 -1.8 -17.9 -1.75 -18.65 -1.65 -18.9 -1.65 -19.15 -1.55 -19.3 -1.35 -19.5 -1.15 -19.6 -0.95 -19.8 -0.6 -19.8 -0.4 -19.85 -0.05 -19.85 0.15 -19.9 0.55 -19.9 0.9 -19.75 1.1 -19.7 1.3 -19.65 1.45 -19.5 1.65 -19.15 1.85 -19.1 1.9 -19.0 2.1 -18.8 2.3 -18.6 2.35 -18.6 2.45 -18.5 2.65 -18.3 2.85 -16.55 3.15 -15.5 3.5 -11.65 3.75 Q-9.45 3.55 -9.5 3.2 L-13.3 2.95 -13.15 2.85 -12.95 2.65 -12.85 2.45 -12.85 2.35 -6.85 2.3 -6.25 2.3 -6.05 2.1 -6.0 1.9 -5.7 1.4 -5.5 1.05 -5.35 0.65 -5.35 0.45 -5.35 -0.1 -5.35 -0.65 -5.35 -1.05 -5.45 -1.2 -5.5 -1.4 -5.55 -1.6 -5.85 -1.7 -5.9 -1.7 -6.2 -1.6 -6.3 -1.4 -6.35 -1.2 -6.55 -1.2 M-22.6 19.25 L-21.85 26.4 -26.4 26.4 -26.4 26.45 -28.4 26.5 -30.9 26.55 -31.1 26.6 -31.25 26.65 -31.2 26.75 -30.9 26.9 -21.75 27.15 -21.6 28.25 -43.4 28.4 Q-43.85 26.15 -44.75 23.75 -46.4 19.5 -49.65 16.3 L-52.6 13.7 Q-54.1 12.6 -55.7 11.7 L-57.2 10.95 -58.8 10.45 -60.4 10.15 -62.05 10.0 Q-58.05 11.35 -54.55 13.75 L-51.85 15.9 -49.55 18.2 -47.75 20.4 -47.0 21.5 -45.85 24.0 -44.9 26.5 Q-46.1 24.35 -48.0 22.55 -49.4 21.1 -51.2 19.75 -52.5 18.75 -53.85 18.0 L-55.35 17.2 -57.1 16.55 -58.95 16.1 -61.0 15.7 -63.15 15.55 -65.5 15.4 -67.85 15.45 -70.1 15.7 -72.25 16.1 -74.4 16.7 -76.35 17.5 -78.3 18.5 -80.1 19.7 -81.8 21.05 -83.6 22.8 -85.2 24.6 -85.0 23.7 -84.5 21.9 -84.05 21.65 -83.95 20.9 Q-81.35 17.2 -78.1 14.35 L-76.7 13.15 -75.85 12.3 -77.1 13.0 Q-80.85 15.15 -83.4 18.5 L-85.1 20.8 -92.9 20.85 -93.2 18.95 -92.4 19.0 -92.2 18.95 -92.0 18.85 -91.95 18.85 -91.9 18.75 -91.6 18.65 -91.45 18.6 -91.35 18.5 -91.15 18.4 -91.1 18.3 -91.05 18.2 -91.0 18.1 -91.0 18.0 -91.0 17.9 -91.0 17.85 -91.05 17.75 -90.9 17.75 -92.3 9.2 -23.35 9.35 -22.6 19.25 M-20.55 36.1 L-37.65 36.05 -37.55 35.95 -37.45 35.8 -37.5 35.6 -38.1 35.75 -38.45 35.8 -38.45 36.1 -40.5 36.05 -40.2 35.1 -40.0 34.75 -39.9 34.6 -39.7 34.2 -39.5 33.8 -39.25 33.45 -39.05 33.2 -38.95 33.05 -39.0 32.85 Q-39.75 32.75 -40.1 33.4 L-40.55 34.35 -40.75 34.75 -40.9 35.1 -41.0 35.3 -41.05 35.5 -41.25 36.05 -42.15 36.2 -42.35 35.25 -41.65 34.3 Q-41.45 33.95 -41.65 33.55 L-41.75 33.35 -41.9 33.35 -42.05 33.45 -42.15 33.55 -42.3 33.9 -42.4 34.15 -42.45 34.3 -42.85 32.15 -21.05 32.45 -20.55 36.1 M-88.4 31.15 L-88.15 31.15 -88.6 34.5 Q-90.45 33.25 -91.3 31.1 L-89.15 31.1 -88.7 31.1 -88.4 31.15 M-88.65 16.7 L-88.75 16.85 -88.75 17.05 -88.75 17.2 -88.75 17.4 -88.75 17.6 -88.85 17.8 -88.95 17.95 -89.0 18.15 -89.0 18.35 -89.0 18.55 -88.9 18.7 -88.75 18.9 -88.5 18.9 -88.4 18.7 -88.25 18.55 -88.25 18.35 -88.2 18.15 -88.1 17.95 -88.0 17.8 -88.0 17.6 -88.0 17.2 -88.0 17.05 -88.05 16.85 -88.25 16.65 -88.4 16.65 -88.55 16.7 -88.65 16.7 M-85.5 14.55 L-85.8 14.6 -85.85 14.7 -85.8 15.1 -85.8 15.3 -86.1 16.2 -86.45 17.35 -86.65 18.3 -86.6 18.5 -86.55 18.65 -86.55 18.85 -86.55 19.05 -86.55 19.2 -86.4 19.35 -86.25 19.2 -86.2 19.05 -86.2 18.85 -86.2 18.65 -86.2 18.45 -86.2 18.3 -86.05 18.1 -85.85 17.15 -85.55 16.2 -85.45 15.8 -85.4 15.45 -85.25 15.3 -85.2 15.1 -85.2 14.9 -85.3 14.75 -85.45 14.6 -85.5 14.55" fill="#d76c53" fill-rule="evenodd" stroke="none"/>
    <path d="M14.1 -10.1 L14.15 -9.4 14.55 -7.9 14.45 -7.95 13.4 -7.85 13.0 -7.25 12.5 -5.95 12.55 -7.45 Q12.6 -9.5 12.25 -11.45 12.75 -11.0 13.4 -10.95 L13.55 -10.75 14.05 -10.35 14.1 -10.1 M14.4 -34.05 L14.35 -34.15 14.3 -34.2 14.25 -34.25 14.25 -34.35 14.85 -34.25 15.1 -34.2 15.1 -34.15 15.3 -28.65 15.55 -22.95 15.85 -17.2 16.1 -11.55 16.5 -6.05 16.5 -5.95 16.1 -5.95 15.8 -10.7 15.45 -16.4 15.15 -22.1 14.8 -27.75 14.35 -33.35 14.4 -33.45 14.45 -33.65 14.45 -33.75 14.5 -33.85 14.45 -33.95 14.4 -34.05 M14.0 -4.9 L14.05 -4.75 13.95 -4.55 13.85 -4.45 13.5 -4.25 13.4 -4.15 13.3 -4.15 13.2 -4.0 12.9 -3.85 12.35 -3.65 12.15 -3.55 11.9 -3.5 11.5 -3.6 11.4 -3.8 11.3 -4.0 11.35 -4.15 11.4 -4.35 11.45 -4.55 11.55 -4.65 11.9 -4.75 12.4 -4.95 12.8 -5.1 12.9 -5.15 13.15 -5.2 13.15 -5.25 13.2 -5.2 13.45 -5.25 13.75 -5.3 13.95 -5.1 14.0 -4.9 M82.5 21.95 L84.6 21.95 85.7 21.95 86.7 21.95 89.9 22.05 93.0 22.05 95.1 22.15 98.55 22.2 99.75 22.2 100.45 21.75 100.6 21.6 100.85 21.7 100.7 22.25 100.7 23.05 100.65 23.8 100.5 24.5 100.45 24.7 100.4 24.65 100.25 24.4 99.25 24.3 98.95 24.3 99.2 24.35 99.4 24.35 99.7 24.45 99.9 24.65 100.0 24.85 100.05 25.05 100.0 25.2 99.95 25.4 99.9 25.6 99.7 25.8 99.7 25.95 99.65 26.15 99.6 26.35 99.6 26.55 99.6 26.7 99.55 26.9 99.45 27.1 99.3 27.3 98.9 27.4 98.45 27.3 98.35 27.1 98.2 26.9 98.2 26.55 98.2 26.15 98.2 25.4 98.2 24.85 98.3 24.65 98.4 24.45 98.6 24.35 98.9 24.3 98.2 24.3 95.45 24.45 93.75 24.6 93.25 24.9 93.05 25.15 98.05 25.65 98.0 27.8 83.4 27.85 83.05 26.15 83.0 25.95 83.7 25.9 84.7 25.9 85.65 25.9 90.25 25.8 90.7 25.5 90.25 25.15 82.85 25.4 81.7 21.95 82.5 21.95 M35.7 30.65 L-20.25 30.65 -20.4 29.25 36.1 29.35 35.7 30.65 M-6.55 -1.2 L-6.35 -1.2 -6.35 -0.45 -6.35 0.1 -6.45 0.65 -6.55 0.85 -6.9 1.0 -7.15 0.95 -16.65 1.2 -16.95 1.35 -17.15 1.4 -17.25 1.4 -17.65 1.35 -17.9 1.2 -18.4 0.95 -18.5 0.6 -18.6 0.45 -18.65 0.4 -18.75 0.45 -18.75 0.6 -18.75 0.65 -18.9 0.45 -18.9 0.3 -18.95 0.1 -18.95 -0.1 -18.95 -0.3 -18.95 -0.45 -18.85 -0.65 -18.75 -0.85 -18.0 -1.05 -6.85 -0.9 -6.6 -1.05 -6.55 -1.2 M-21.3 30.65 L-43.2 30.9 -43.35 29.3 -21.5 29.25 -21.3 30.65 M-100.6 21.6 L-100.5 21.8 -100.15 22.0 -99.85 22.2 -99.4 22.2 -98.4 22.2 -96.25 22.15 -94.6 22.05 -91.25 21.95 -88.85 21.95 Q-87.35 21.8 -85.7 21.95 L-86.95 24.95 -92.65 24.85 -92.65 24.9 -92.75 24.9 -92.7 24.95 -92.6 25.15 -92.65 25.35 -92.7 25.55 -92.8 25.65 -92.9 25.7 -93.2 25.85 -93.35 26.05 -93.55 26.25 -93.65 26.4 -93.7 26.6 -93.85 26.8 -94.1 26.95 -94.4 27.15 -94.4 27.35 -94.5 27.55 -94.6 27.7 -94.75 27.9 -95.0 28.1 -95.4 28.2 -96.9 28.2 -97.2 28.2 -97.65 28.15 -98.1 28.05 -98.45 27.9 -98.8 27.75 -98.95 27.7 -99.35 27.55 -99.5 27.35 -99.7 27.15 -100.1 26.8 -100.65 26.2 -100.75 26.05 -100.8 25.85 -100.85 25.65 -100.85 25.45 -100.85 25.3 -100.85 24.9 -100.85 24.55 -100.85 24.35 -100.75 24.15 -100.65 24.0 -100.5 23.9 -100.75 21.65 -100.6 21.6 M-97.2 25.75 L-97.1 25.85 -97.05 25.75 -97.15 25.55 -97.3 25.25 -97.5 25.2 -97.4 25.4 -97.3 25.6 -97.2 25.75" fill="#6c6960" fill-rule="evenodd" stroke="none"/>
    <path d="M24.5 -37.4 L29.5 -29.5 31.6 -26.25 34.7 -21.15 36.6 -17.9 39.0 -13.35 40.95 -9.55 42.0 -7.7 39.9 -6.1 39.9 -4.95 40.65 -4.45 42.8 -6.25 43.0 -5.9 43.65 -4.6 Q41.15 -3.6 38.85 -4.95 37.2 -8.2 35.7 -11.5 L33.35 -16.5 29.3 -25.0 26.65 -30.45 23.95 -36.1 23.85 -36.65 24.05 -37.35 24.5 -37.4 M1.3 -34.8 L8.1 -34.75 11.9 -34.7 13.8 -34.4 13.8 -34.35 13.75 -34.25 13.8 -34.2 13.8 -34.1 13.85 -34.0 13.9 -33.9 13.9 -33.8 13.85 -33.7 13.8 -33.6 13.8 -33.55 14.0 -28.1 14.25 -22.4 14.6 -16.75 14.85 -11.3 13.7 -11.9 Q12.85 -12.4 12.0 -12.5 L11.35 -12.6 10.95 -12.0 10.95 -11.0 11.0 -5.95 -12.6 -5.9 -12.05 -6.05 Q-15.5 -5.65 -16.5 -6.4 -17.4 -9.35 -17.65 -12.55 L-18.85 -22.75 -19.7 -28.75 -20.05 -31.0 -20.2 -31.6 -20.25 -32.05 -20.2 -32.85 -19.9 -33.5 -19.4 -33.95 -18.8 -34.25 -18.05 -34.45 -17.4 -34.45 -9.05 -34.7 1.3 -34.8 M17.6 -33.1 L19.45 -31.0 23.4 -23.15 29.4 -10.65 29.55 -10.1 29.9 -9.15 Q30.05 -8.35 29.65 -7.5 28.3 -6.35 25.75 -6.15 L24.0 -6.0 17.35 -5.95 17.35 -6.0 17.35 -6.1 17.4 -6.2 17.1 -11.85 16.8 -17.55 16.5 -23.25 16.1 -28.95 15.75 -34.0 17.6 -33.1 M-56.45 -32.9 L-56.4 -33.05 -53.7 -33.95 -46.9 -35.25 -40.0 -35.75 -34.9 -36.0 Q-32.25 -36.2 -29.8 -35.9 -27.45 -35.6 -26.65 -33.55 L-26.25 -28.8 -25.65 -23.2 -25.0 -17.65 -24.3 -12.65 Q-23.9 -10.1 -24.05 -7.35 L-24.1 -6.4 -24.65 -6.05 -25.05 -6.3 -29.35 -6.25 -33.65 -6.25 -37.95 -6.25 -42.35 -6.2 -48.85 -6.05 -59.8 -6.05 -64.6 -6.2 -66.85 -6.9 Q-67.7 -7.15 -68.4 -7.65 L-69.05 -8.4 -69.25 -9.8 -68.65 -12.9 -68.55 -13.1 -68.4 -13.5 -67.95 -14.05 -66.75 -15.9 -64.45 -19.65 -62.1 -23.4 -58.65 -29.0 -56.45 -32.9 M-93.1 13.75 L-92.55 17.75 -92.4 17.75 -92.55 17.85 -93.05 17.95 -93.2 17.95 -93.3 18.0 -93.35 18.05 -94.1 13.5 -94.05 13.5 -93.1 13.5 -93.1 13.75" fill="#a28c88" fill-rule="evenodd" stroke="none"/>
    <path d="M-94.8 9.2 L-93.65 9.2 -93.35 11.8 -94.35 11.8 -94.8 9.2 M-93.25 12.4 L-93.2 12.95 -93.55 12.95 -94.05 12.95 -94.15 13.0 -94.25 12.4 -93.25 12.4" fill="#dd9222" fill-rule="evenodd" stroke="none"/>
    <path d="M-58.2 10.5 Q-56.4 11.0 -55.55 12.5 L-55.3 13.05 Q-50.15 15.95 -46.85 21.0 -43.55 22.55 -44.5 25.9 L-45.45 26.4 -44.7 28.2 -44.75 28.8 Q-43.95 30.15 -45.2 31.1 -45.5 31.35 -45.95 31.4 L-47.75 24.95 Q-56.2 13.2 -70.55 15.85 -73.7 16.45 -76.1 18.4 L-78.15 20.35 -78.8 19.8 -83.7 24.75 -83.9 24.95 -84.1 25.6 -84.9 26.3 -85.65 25.8 Q-83.8 18.55 -77.15 13.9 -68.25 7.7 -58.2 10.5" fill="#6c6960" fill-rule="evenodd" stroke="none"/>
    <path d="M52.7 10.75 Q50.9 11.25 50.05 12.75 L49.8 13.3 Q44.65 16.2 41.35 21.25 38.05 22.8 39.0 26.15 L39.95 26.65 39.25 28.35 42.25 25.2 Q50.7 13.45 65.05 16.1 68.2 16.7 70.6 18.65 L72.65 20.6 73.3 20.05 78.2 25.0 78.4 25.2 78.6 25.85 79.4 26.55 80.15 26.05 Q78.3 18.8 71.65 14.15 62.75 7.95 52.7 10.75" fill="#6c6960" fill-rule="evenodd" stroke="none"/>
    <path d="M17.1 1.0 L14.6 3.75 -1.4 4.5 Q-5.55 12.65 -15.7 12.0 L-18.9 12.5 Q-21.35 14.9 -24.95 14.95 L-26.05 14.45 -27.15 13.75 Q-35.15 21.65 -42.8 13.25 L-45.4 10.5 Q-57.2 11.2 -65.65 4.25 L-76.4 1.0 Q-80.55 -5.4 -77.6 -12.35 -75.75 -16.7 -71.65 -18.05 L-70.15 -17.55 -68.9 -13.8 Q-71.4 -10.35 -70.85 -6.05 L-69.4 -5.75 -66.9 -8.4 Q-47.25 -3.45 -27.9 -7.05 L-26.4 -10.05 -24.65 -10.55 Q-20.0 -10.1 -18.1 -6.25 0.2 -5.7 16.45 0.25 16.85 0.35 17.1 1.0" fill="#ffffff" fill-opacity="0.101960786" fill-rule="evenodd" stroke="none"/>
    <path d="M34.65 4.15 L29.15 4.75 Q14.2 19.1 -6.35 17.95 -14.6 26.65 -25.15 15.1 -28.15 11.85 -31.85 9.2 -35.85 6.3 -39.15 2.75 -51.6 4.75 -55.65 -3.95 -56.3 -5.4 -54.6 -6.0 -13.7 -7.0 27.4 -5.25 34.65 -10.5 41.65 -5.45 45.6 4.0 34.65 4.15" fill="#ffffff" fill-opacity="0.101960786" fill-rule="evenodd" stroke="none"/>
    <path d="M36.65 -6.0 Q40.5 -7.6 42.6 -4.0 L42.95 -3.35 Q57.5 -7.6 59.7 3.7 59.95 5.05 58.2 5.05 L49.9 5.5 Q28.95 12.45 6.6 6.0 L4.6 3.75 Q-1.2 3.4 -6.2 0.9 L-5.65 0.0 Q5.8 -0.5 17.1 -4.5 L18.1 -5.25 Q26.65 -3.35 35.15 -3.45 L36.65 -6.0" fill="#ffffff" fill-opacity="0.101960786" fill-rule="evenodd" stroke="none"/>
    <path d="M8.65 5.75 L-39.7 4.05 Q-48.3 3.25 -56.4 0.0 L-57.15 -0.75 -56.65 -2.25 Q-17.55 -5.9 21.85 -3.5 L24.35 -4.5 Q31.5 1.75 20.55 4.25 14.75 5.7 8.65 5.75" fill="#ffffff" fill-opacity="0.101960786" fill-rule="evenodd" stroke="none"/>
    <path d="M25.55 -38.7 L25.75 -38.2 25.75 -37.75 25.5 -37.35 25.25 -37.05 24.9 -36.85 Q0.4 -36.85 -24.05 -36.0 -45.1 -35.3 -65.9 -36.2 L-66.4 -37.15 -65.15 -38.1 Q-53.3 -37.4 -41.3 -38.2 -8.1 -39.9 25.15 -39.15 L25.55 -38.7" fill="#ffffff" fill-opacity="0.101960786" fill-rule="evenodd" stroke="none"/>
    <path d="M95.45 17.65 L95.65 16.25 Q72.0 3.9 43.75 1.4 40.9 1.0 40.15 -1.75 L41.9 -2.25 Q52.4 0.55 63.6 1.7 67.05 2.0 70.35 3.05 87.95 2.35 99.2 13.35 101.95 16.05 101.15 20.1 100.4 23.65 97.4 25.0 L95.9 24.5 Q94.8 23.4 94.95 21.8 L95.45 17.65" fill="#ffffff" fill-opacity="0.101960786" fill-rule="evenodd" stroke="none"/>
    <path d="M13.05 -30.95 Q11.7 -26.5 8.0 -23.9 L8.0 -22.75 Q-0.55 -13.35 -12.55 -11.6 -14.05 -11.25 -14.85 -12.75 L-14.8 -14.6 -15.75 -15.75 Q-14.9 -20.45 -12.2 -24.55 L-13.2 -26.0 -8.85 -30.15 -7.75 -29.85 -3.6 -33.0 -2.35 -31.65 -2.9 -30.4 -2.25 -30.4 Q1.3 -33.75 5.85 -32.65 10.45 -34.2 12.95 -31.6 L13.05 -30.95" fill="#ffffff" fill-opacity="0.101960786" fill-rule="evenodd" stroke="none"/>
    <path d="M9.35 -19.4 L9.0 -18.65 10.0 -17.45 Q10.4 -16.75 10.4 -16.0 8.3 -14.05 7.0 -11.45 L6.5 -10.75 5.65 -10.5 4.0 -11.5 Q-3.95 -6.85 -11.6 -9.9 -12.0 -10.1 -11.85 -10.85 -11.35 -13.4 -10.5 -15.75 -3.3 -25.0 7.15 -30.4 13.0 -27.0 8.25 -22.55 L7.4 -21.65 9.05 -20.5 9.35 -19.4" fill="#ffffff" fill-opacity="0.101960786" fill-rule="evenodd" stroke="none"/>
    <path d="M12.6 -30.65 Q12.9 -30.15 12.6 -29.45 11.25 -26.55 8.5 -25.25 11.75 -23.3 8.65 -21.15 5.45 -18.85 1.4 -18.65 L0.5 -18.0 -3.5 -18.25 Q-9.4 -26.3 0.9 -31.4 L4.9 -33.15 Q10.6 -34.25 12.6 -30.65" fill="#ffffff" fill-opacity="0.101960786" fill-rule="evenodd" stroke="none"/>
    <path d="M-60.75 -8.65 Q-59.4 -13.1 -55.7 -15.7 L-55.7 -16.85 Q-47.15 -26.25 -35.15 -28.0 -33.65 -28.35 -32.85 -26.85 L-32.9 -25.0 -31.95 -23.85 Q-32.8 -19.15 -35.5 -15.05 L-34.5 -13.6 -38.85 -9.45 -39.95 -9.75 -44.1 -6.6 -45.35 -7.95 -44.8 -9.2 -45.45 -9.2 Q-49.0 -5.85 -53.55 -6.95 -58.15 -5.4 -60.65 -8.0 L-60.75 -8.65" fill="#ffffff" fill-opacity="0.101960786" fill-rule="evenodd" stroke="none"/>
    <path d="M-57.05 -20.2 L-56.7 -20.95 -57.7 -22.15 Q-58.1 -22.85 -58.1 -23.6 -56.0 -25.55 -54.7 -28.15 L-54.2 -28.85 -53.35 -29.1 -51.7 -28.1 Q-43.75 -32.75 -36.1 -29.7 -35.7 -29.5 -35.85 -28.75 -36.35 -26.2 -37.2 -23.85 -44.4 -14.6 -54.85 -9.2 -60.7 -12.6 -55.95 -17.05 L-55.1 -17.95 -56.75 -19.1 -57.05 -20.2" fill="#ffffff" fill-opacity="0.101960786" fill-rule="evenodd" stroke="none"/>
    <path d="M-60.3 -10.15 Q-58.95 -13.05 -56.2 -14.35 -59.45 -16.3 -56.35 -18.45 -53.15 -20.75 -49.1 -20.95 L-48.2 -21.6 -44.2 -21.35 Q-38.3 -13.3 -48.6 -8.2 -50.55 -7.2 -52.6 -6.45 -58.3 -5.35 -60.3 -8.95 -60.6 -9.45 -60.3 -10.15" fill="#ffffff" fill-opacity="0.101960786" fill-rule="evenodd" stroke="none"/>
    <path d="M86.35 9.7 L94.65 10.35 96.1 10.8 Q95.35 11.25 94.35 11.3 L92.35 11.4 82.35 11.55 -47.15 12.05 Q-68.9 12.15 -90.55 11.2 L-91.25 10.8 -91.7 10.4 -91.8 10.05 -91.65 9.8 -91.5 9.75 -91.15 9.7 -90.9 9.7 -90.3 9.95 Q-69.7 9.65 -49.15 9.7 L-48.15 9.7 82.35 9.75 86.35 9.7" fill="#663333" fill-opacity="0.2" fill-rule="evenodd" stroke="none"/>
    <path d="M23.35 30.95 L36.85 30.95 37.7 31.2 38.05 31.6 38.3 31.95 38.45 32.3 38.5 32.7 38.45 33.05 38.35 33.45 38.05 33.8 37.7 34.2 36.85 34.45 Q0.55 34.65 -35.65 33.9 L-36.3 33.8 -36.9 33.7 -38.65 33.55 -39.15 33.7 -39.65 33.8 -40.15 33.95 -41.15 33.75 -41.9 33.55 -42.15 33.15 -42.3 32.8 -42.25 32.45 -42.15 32.1 -41.9 31.8 -41.15 31.6 -40.15 31.4 -39.65 31.3 -39.15 31.2 -38.65 31.05 -38.2 31.0 -38.15 30.95 Q-30.25 31.9 -22.15 31.4 L-13.65 31.1 23.35 30.95" fill="#663333" fill-opacity="0.2" fill-rule="evenodd" stroke="none"/>
    <path d="M40.95 38.35 L41.2 38.7 41.35 39.05 41.3 39.4 41.1 39.8 40.9 40.15 40.7 40.45 Q4.35 41.45 -32.15 40.45 L-38.15 40.3 -40.65 40.15 -41.65 40.05 -42.3 39.8 -42.65 39.45 -43.05 39.05 -43.35 38.65 -43.55 38.3 -43.5 37.95 -43.3 37.55 -42.7 37.4 -42.65 37.3 -42.05 37.55 -41.65 37.95 32.35 37.55 35.35 37.6 39.85 37.7 40.6 37.95 40.95 38.35" fill="#663333" fill-opacity="0.2" fill-rule="evenodd" stroke="none"/>
    <path d="M42.95 30.45 L43.25 30.8 43.6 31.2 43.25 31.6 42.95 31.95 42.3 32.15 38.35 32.75 Q-1.2 33.2 -40.65 32.0 L-41.8 31.8 -42.0 31.4 -42.05 31.05 -41.9 30.85 Q-35.05 29.35 -27.65 29.5 L-6.15 29.7 38.35 29.6 Q40.75 29.6 42.95 30.45" fill="#663333" fill-opacity="0.2" fill-rule="evenodd" stroke="none"/>
    <path d="M-35.65 30.7 L-34.9 30.95 -34.05 30.95 -33.15 30.7 -32.4 30.95 -32.05 31.35 -31.8 31.7 -31.7 32.05 -31.65 32.45 -31.65 32.8 -31.7 33.2 -31.8 33.55 -31.95 33.9 -32.15 34.3 -32.0 34.45 -30.15 34.7 -29.4 34.95 -29.05 35.15 -28.4 35.45 -28.05 35.8 -27.75 36.0 -27.15 36.2 -26.4 36.45 -23.15 36.7 -21.65 36.8 -20.15 36.95 -19.55 37.15 -17.9 37.55 -17.55 37.95 -17.5 38.3 -17.65 38.7 -18.15 38.95 -19.55 39.25 -20.15 39.45 -23.15 39.6 -27.15 39.7 -28.05 39.45 -29.3 39.45 -30.15 39.7 -39.15 39.7 -40.05 39.45 -40.4 39.35 -40.55 39.4 -41.15 39.55 -41.65 39.55 -42.55 39.3 -42.8 38.95 -43.0 38.55 -43.05 38.2 -43.0 37.8 -42.9 37.45 -42.8 37.05 -42.8 36.7 -42.8 36.3 -42.8 35.95 -42.8 35.55 -42.8 35.2 -42.75 34.85 -42.55 34.45 -42.5 34.1 -42.65 33.7 -42.65 33.3 -42.65 32.95 -42.65 32.55 -42.65 32.2 -42.65 31.8 -42.5 31.45 -42.15 31.1 -41.8 30.8 -41.15 30.7 -40.4 30.55 -40.05 30.45 -39.8 30.3 -39.15 30.25 -39.15 30.2 -38.4 30.4 -36.65 30.65 -35.65 30.7" fill="#663333" fill-opacity="0.2" fill-rule="evenodd" stroke="none"/>
    <path d="M18.95 39.8 L18.95 39.75 17.1 39.55 16.7 39.8 16.35 39.85 15.85 39.8 15.35 39.7 14.1 39.45 14.1 39.1 14.35 38.8 15.35 38.65 16.1 38.45 16.7 38.1 17.35 37.8 23.2 37.55 Q24.95 37.5 25.85 36.7 L25.85 36.3 26.0 35.95 26.35 35.55 26.7 35.2 26.85 34.8 26.95 34.45 27.35 34.05 27.7 33.7 28.2 33.3 28.3 32.95 28.35 32.55 28.35 32.2 28.35 31.8 28.35 31.45 28.5 31.05 28.7 30.7 28.95 30.45 29.2 30.3 29.85 30.05 30.2 29.7 30.45 29.45 30.7 29.35 31.3 29.15 31.95 28.95 32.35 28.6 32.7 28.3 33.3 28.25 33.35 28.2 35.35 28.2 36.1 28.45 36.45 28.65 37.1 28.95 37.45 29.35 37.7 29.7 37.8 30.05 37.85 30.45 37.85 30.8 37.85 31.2 37.9 31.55 38.05 31.95 38.2 32.3 38.25 32.7 38.2 33.05 38.1 33.45 37.85 33.8 37.7 34.2 37.8 34.55 37.8 34.9 37.6 35.3 37.4 35.65 37.2 35.95 36.95 36.05 36.35 36.2 Q35.85 36.3 35.4 36.55 L35.35 36.8 35.35 37.2 35.4 37.55 35.6 37.9 35.9 38.35 36.35 39.05 36.3 39.4 36.1 39.8 35.9 40.15 35.7 40.45 35.45 40.55 34.85 40.65 33.85 40.7 32.95 40.45 30.45 39.9 29.95 39.7 29.35 39.95 27.75 40.25 25.2 40.85 24.35 41.05 21.85 41.2 20.95 40.9 20.35 40.7 19.45 40.45 19.1 40.05 18.95 39.8" fill="#663333" fill-opacity="0.2" fill-rule="evenodd" stroke="none"/>
    <path d="M25.85 28.95 L27.85 28.95 31.85 28.95 32.7 29.2 33.1 29.55 33.6 29.95 33.8 30.35 33.95 30.7 34.05 31.05 34.15 31.25 34.35 31.45 35.2 31.7 35.55 32.1 35.85 32.45 36.3 32.85 36.7 33.2 36.95 33.55 37.05 33.95 37.1 34.3 37.1 34.7 37.1 35.05 37.05 35.8 36.95 36.55 36.8 36.9 36.55 37.3 36.25 37.7 35.8 38.4 34.8 39.55 34.45 39.8 -14.05 39.6 Q-25.15 39.5 -36.3 39.7 L-37.15 39.95 -38.05 39.65 -39.0 39.25 -39.15 39.05 -39.3 39.0 -41.15 38.8 -42.05 38.55 -42.4 38.2 -42.8 37.8 -43.15 37.45 -43.25 37.05 -43.3 36.7 -43.3 36.3 -43.3 35.95 -43.3 35.55 -43.3 35.2 -43.3 34.8 -43.15 34.45 -42.9 34.05 -43.4 33.7 -44.3 33.3 -44.5 32.9 -44.55 32.55 -44.4 32.2 -44.15 31.95 -43.85 31.65 -43.8 31.3 -43.75 30.95 -43.65 30.6 -43.4 30.2 -43.05 29.8 -42.15 29.55 -36.65 29.6 -36.05 29.7 -35.55 29.8 -35.05 29.95 -31.9 29.95 Q-3.85 28.45 24.35 28.95 L25.85 28.95" fill="#663333" fill-opacity="0.2" fill-rule="evenodd" stroke="none"/>
    <path d="M-88.05 28.7 L-87.7 29.1 -87.4 29.45 -87.4 29.8 -87.4 30.2 -87.4 30.55 -87.4 30.95 -87.4 31.2 -87.15 31.3 -86.6 31.65 -86.4 31.95 -86.4 32.3 -86.55 32.7 -86.7 32.85 -87.15 33.1 -88.05 33.7 -88.2 34.05 -88.4 34.45 -88.7 34.65 -89.15 34.8 -89.9 34.55 -90.15 34.15 -90.3 33.85 -90.8 33.05 -91.05 32.7 -91.05 32.3 -91.05 31.95 -91.05 31.2 -91.05 30.45 -90.9 30.05 -90.65 29.7 -90.15 29.3 -89.65 28.95 -89.4 28.7 -89.15 28.6 -88.65 28.5 -88.65 28.45 -88.05 28.7" fill="#663333" fill-opacity="0.2" fill-rule="evenodd" stroke="none"/>
    <path d="M-88.3 29.55 L-87.65 29.95 -87.45 30.35 -87.25 30.7 -87.05 31.05 -87.0 31.45 -86.9 31.8 -86.8 32.2 -86.8 32.55 -86.8 32.95 -86.8 33.3 -86.8 33.7 -86.9 34.05 -87.1 34.4 -87.4 34.8 -88.15 35.05 -89.05 34.8 -89.3 34.45 -89.55 34.05 -89.6 33.7 -89.8 33.3 -90.05 32.95 -90.65 33.05 -91.55 32.8 -91.8 32.45 -92.05 32.05 -92.05 31.7 -92.05 31.3 -92.05 30.95 -91.9 30.55 -91.65 30.2 -91.25 29.85 -90.9 29.55 -90.8 29.5 -90.15 29.4 -90.15 29.3 -89.15 29.3 -88.3 29.55" fill="#663333" fill-opacity="0.2" fill-rule="evenodd" stroke="none"/>
    <path d="M93.85 27.55 L94.6 27.8 95.1 28.2 95.3 28.6 95.45 28.95 95.4 29.3 95.35 29.7 95.2 30.05 95.0 30.45 94.8 30.8 94.2 31.55 93.45 32.3 93.35 32.7 93.2 33.05 92.85 33.45 92.05 34.15 90.2 35.35 Q89.85 35.5 89.45 35.7 L88.85 35.8 87.2 36.1 86.35 36.3 83.35 36.3 82.45 36.05 82.1 35.65 81.85 35.3 81.75 34.95 81.7 34.55 81.7 33.8 81.7 33.45 81.55 33.05 81.35 32.7 80.95 31.95 80.6 31.2 80.45 30.8 80.35 30.45 80.35 30.05 80.35 29.3 80.35 28.55 80.35 28.2 80.35 27.8 80.5 27.45 80.85 27.1 81.7 26.45 82.3 26.4 82.35 26.3 83.1 26.55 84.4 27.05 84.6 27.3 84.3 27.5 83.7 27.8 83.9 28.1 84.6 28.55 84.95 28.95 85.15 29.15 85.95 29.3 86.7 28.95 87.2 28.7 87.85 28.6 90.45 28.3 91.45 27.95 92.2 27.75 93.85 27.55" fill="#663333" fill-opacity="0.2" fill-rule="evenodd" stroke="none"/>
    <path d="M91.85 27.55 L92.6 27.8 93.1 28.2 93.3 28.6 93.45 28.95 93.45 29.3 93.4 29.7 93.35 30.05 93.2 30.4 92.95 30.8 92.85 31.2 92.7 31.55 92.35 31.95 91.95 32.3 91.7 32.55 91.45 32.65 90.85 32.8 89.45 32.95 89.3 33.05 88.85 33.2 87.6 33.05 86.85 33.3 86.1 33.55 85.35 33.8 81.85 33.8 80.95 33.55 80.6 33.15 80.35 32.8 80.25 32.45 80.2 32.05 80.2 31.7 80.2 31.3 80.35 30.95 80.7 30.55 81.1 30.2 80.95 29.8 80.85 29.45 80.85 29.05 80.7 28.7 80.45 28.3 80.25 27.95 80.05 27.6 79.85 27.2 79.85 26.8 79.85 26.45 79.85 26.05 79.85 25.7 79.85 24.95 80.0 24.6 80.2 24.2 80.45 23.95 80.7 23.85 81.3 23.75 81.35 23.7 82.1 23.95 82.55 24.35 82.95 24.7 83.3 25.1 83.7 25.8 83.8 26.2 83.85 26.55 83.85 26.95 83.85 27.3 83.85 27.7 84.0 28.05 84.2 28.45 84.5 28.65 85.1 28.95 85.45 29.3 87.95 29.3 88.7 28.9 89.2 28.55 89.6 28.2 89.95 27.8 90.85 27.55 91.85 27.55" fill="#663333" fill-opacity="0.2" fill-rule="evenodd" stroke="none"/>
    <path d="M86.1 26.95 L86.55 27.35 86.95 27.7 87.1 28.05 87.35 28.45 87.35 28.8 87.35 29.55 87.35 30.7 87.35 32.2 87.35 32.55 87.4 32.9 87.6 33.3 87.85 33.5 88.45 33.8 88.7 34.2 88.85 34.6 88.85 34.95 88.7 35.3 88.55 35.55 88.35 35.7 87.55 35.9 86.45 36.2 86.2 36.4 85.95 36.55 85.35 36.65 84.85 36.65 84.2 36.55 83.45 36.3 83.2 35.95 83.0 35.55 82.95 35.2 82.8 34.85 82.45 34.45 81.8 34.2 80.95 33.95 80.6 33.55 80.2 33.15 79.95 32.8 79.85 32.45 79.85 32.05 79.85 31.3 79.85 30.2 79.85 29.45 80.0 29.1 80.2 28.7 80.35 28.3 80.35 27.95 80.5 27.6 80.7 27.2 80.95 26.95 81.2 26.85 81.8 26.75 81.85 26.7 85.35 26.7 86.1 26.95" fill="#663333" fill-opacity="0.2" fill-rule="evenodd" stroke="none"/>
    <path d="M97.1 24.45 L97.45 24.7 97.85 24.8 98.6 25.05 98.9 25.45 99.1 25.8 99.15 26.2 99.1 26.55 98.95 26.95 98.6 27.3 97.8 27.55 97.1 27.7 96.8 27.8 96.35 27.95 95.35 27.95 90.35 27.85 83.45 27.05 83.1 26.65 82.85 26.3 82.7 25.95 82.7 25.55 82.75 25.2 83.0 24.85 83.7 24.2 84.3 24.15 84.35 24.05 85.35 24.05 96.35 24.2 97.1 24.45" fill="#663333" fill-opacity="0.2" fill-rule="evenodd" stroke="none"/>
    <path d="M90.35 20.2 L91.1 20.45 91.85 20.7 Q92.25 20.8 92.7 21.0 L93.45 21.35 93.95 21.7 94.2 21.75 94.85 21.7 95.35 21.7 96.1 21.95 96.45 22.35 96.7 22.7 96.8 23.05 96.85 23.45 96.85 23.8 96.85 24.2 96.85 24.55 96.8 25.3 96.7 26.05 96.55 26.45 96.3 26.8 95.95 27.2 95.7 27.45 95.45 27.55 94.85 27.7 94.1 27.95 93.35 28.2 89.35 28.3 88.85 28.3 88.0 28.0 87.7 27.8 87.55 27.75 86.1 27.55 85.6 27.95 84.85 28.2 83.95 27.95 83.45 27.55 83.1 27.15 82.95 26.8 82.45 26.4 82.1 26.05 81.85 25.7 81.85 25.3 81.85 24.95 81.85 24.55 81.85 24.2 81.85 23.8 81.85 23.05 81.85 22.3 82.0 21.95 82.35 21.6 82.7 21.3 83.35 21.15 84.2 20.95 84.85 20.55 85.2 20.3 85.8 20.25 85.85 20.2 90.35 20.2" fill="#663333" fill-opacity="0.2" fill-rule="evenodd" stroke="none"/>
    <path d="M91.35 20.7 L92.1 20.95 92.45 21.15 94.6 21.95 96.1 22.45 97.1 22.8 97.6 23.2 97.8 23.6 97.95 23.95 97.95 24.3 97.9 24.7 97.85 25.05 97.7 25.45 97.45 25.8 97.35 26.2 97.2 26.55 97.1 26.95 96.8 27.3 96.45 27.7 96.2 27.95 95.95 28.05 95.1 28.2 94.45 28.4 93.85 28.55 92.95 28.3 92.35 28.55 91.85 28.8 91.35 28.95 87.85 28.95 87.1 28.7 86.7 28.3 86.45 27.95 86.2 27.55 86.2 27.2 86.2 26.8 85.95 26.45 85.85 26.05 85.85 25.7 85.85 24.95 85.85 24.55 85.85 24.2 85.85 23.8 85.85 23.45 86.0 23.1 86.2 22.7 86.6 22.3 86.75 21.95 86.95 21.55 87.2 21.2 87.45 20.95 87.7 20.85 88.3 20.75 88.35 20.7 91.35 20.7" fill="#663333" fill-opacity="0.2" fill-rule="evenodd" stroke="none"/>
    <path d="M-86.15 20.2 L-85.65 20.2 -84.9 20.45 -84.55 20.85 -84.3 21.2 -84.2 21.55 -84.15 21.95 -84.15 22.3 -84.2 22.7 -84.3 23.05 -84.65 23.8 -84.8 24.15 -85.3 24.9 -85.65 25.3 -86.3 25.7 -86.8 25.95 -87.05 26.05 -87.65 26.2 -88.4 26.05 -88.8 26.45 -89.15 26.8 -89.55 27.05 -92.65 27.15 -94.3 26.95 -95.15 27.0 -98.65 27.05 -99.55 26.8 -99.8 26.45 -100.05 26.05 -100.05 25.7 -100.05 25.3 -100.0 24.95 -99.9 24.55 -99.85 24.25 -99.55 23.8 -99.4 23.45 -99.3 23.05 -98.9 22.7 -98.2 22.3 -97.65 21.95 -97.4 21.7 -97.15 21.6 -96.65 21.45 -95.15 21.45 -94.4 21.65 -93.65 21.8 Q-92.45 21.25 -91.15 21.35 L-88.05 21.05 -87.75 20.7 -87.55 20.45 -87.3 20.35 -86.65 20.25 -86.65 20.2 -86.15 20.2" fill="#663333" fill-opacity="0.2" fill-rule="evenodd" stroke="none"/>
    <path d="M-85.9 20.95 L-85.55 21.35 -85.3 21.7 -85.2 22.05 -85.15 22.45 -85.15 23.2 -85.15 23.95 -85.15 24.3 -85.3 24.65 -85.85 25.4 -87.3 26.9 -88.05 27.55 -88.65 27.65 -92.8 27.95 -93.15 28.2 -93.9 28.3 -94.4 28.7 -94.85 28.65 -94.9 28.45 -94.85 28.05 -94.9 27.7 -94.9 27.3 -95.1 26.95 -95.4 26.55 -95.65 26.2 -95.65 25.8 -95.65 25.45 -95.65 25.05 -95.65 24.7 -95.65 24.3 -95.5 23.95 -95.15 23.55 -94.4 22.8 -94.05 22.45 -93.3 22.05 -92.65 21.7 -92.25 21.35 -91.9 21.05 -91.75 21.0 -91.15 20.85 -89.65 20.75 -89.65 20.7 -86.65 20.7 -85.9 20.95" fill="#663333" fill-opacity="0.2" fill-rule="evenodd" stroke="none"/>
    <path d="M-91.65 27.55 L-97.15 27.7 -98.05 27.45 -98.4 27.05 -98.8 26.7 -99.1 26.3 -99.3 25.95 -99.25 25.55 -99.15 25.2 -98.9 24.8 -98.05 24.45 -97.2 24.25 -97.15 24.2 -96.4 24.45 -96.05 24.7 -91.65 24.8 -90.9 25.05 -90.6 25.45 -90.4 25.8 -90.35 26.2 -90.4 26.55 -90.55 26.95 -90.9 27.3 -91.65 27.55" fill="#663333" fill-opacity="0.2" fill-rule="evenodd" stroke="none"/>
    <path d="M-72.05 15.05 L-71.65 15.45 -71.35 15.85 -71.15 16.2 -71.05 16.55 -71.05 16.95 -71.05 17.3 -71.15 17.7 -71.35 18.05 -71.7 18.4 -72.05 18.7 -72.65 18.8 -73.65 18.85 -74.9 19.05 -75.65 19.45 -76.4 20.2 -77.6 21.25 -78.8 22.05 -79.15 22.45 -79.55 22.8 -79.8 23.05 -80.05 23.15 -80.8 23.45 -81.65 23.7 -83.15 23.7 -83.55 23.7 -84.15 23.8 -85.05 23.55 -85.4 23.15 -85.65 22.8 -85.75 22.45 -85.8 22.05 -85.8 21.3 -85.8 20.2 -85.8 19.8 -85.65 19.45 -85.4 19.05 -85.3 18.7 -85.25 18.3 -85.15 17.95 -85.25 17.55 -85.3 17.2 -85.3 16.8 Q-85.05 16.15 -84.45 15.65 L-82.95 14.15 -81.8 13.2 -80.55 12.85 -78.55 12.3 -77.8 11.95 -77.3 11.7 -76.65 11.55 -76.05 11.3 -75.2 11.15 -75.15 11.05 -74.65 11.05 -73.9 11.3 -73.4 11.7 -73.2 12.1 -73.05 12.45 -73.05 12.8 -72.95 13.15 -72.55 13.55 -72.3 13.95 -72.15 14.3 -72.05 14.7 -72.05 15.05" fill="#663333" fill-opacity="0.2" fill-rule="evenodd" stroke="none"/>
    <path d="M-58.65 13.55 L-57.9 13.8 -57.15 14.05 -56.4 14.3 -56.0 14.55 -55.4 14.8 -54.9 15.2 -54.65 15.45 -54.5 15.55 -53.9 15.8 -53.4 16.2 -53.05 16.55 -52.8 16.8 -52.65 16.9 -52.05 17.1 -51.8 17.15 -51.15 17.35 -50.3 17.55 -49.8 17.95 Q-49.0 18.6 -48.5 19.5 L-47.55 21.3 -46.15 23.55 -46.05 23.95 -45.9 24.3 -45.8 24.7 -45.8 25.05 -45.8 25.8 -45.85 26.55 -45.8 27.65 -45.8 28.8 -45.9 29.2 -46.05 29.55 -46.3 29.95 -46.8 30.3 -47.65 30.55 -48.15 30.55 -48.55 30.65 -49.15 30.8 -50.05 30.55 -50.4 30.5 -51.05 30.55 -51.65 30.7 -52.3 30.45 -52.6 30.0 -52.65 29.7 -52.6 29.35 -52.3 28.95 -51.65 28.7 -50.8 28.45 -50.3 28.05 -49.8 27.65 -49.5 27.3 -49.4 26.95 -49.5 26.6 -50.0 25.8 -50.45 25.1 -51.2 23.55 -51.55 22.8 -52.05 22.45 -52.8 22.05 -53.15 21.7 -53.85 20.9 -54.8 19.8 -56.15 18.45 -56.3 18.35 -57.05 18.05 -57.4 17.7 -57.7 17.5 -58.15 17.3 -59.05 17.05 -61.9 17.05 -62.65 17.3 -70.3 17.55 -70.7 17.9 -71.05 18.2 -71.65 18.3 -73.65 18.8 -75.15 19.05 -75.9 19.45 -76.2 19.8 -76.55 20.2 -76.9 20.55 -77.4 20.95 -78.55 21.3 -79.05 21.7 -79.55 22.05 -80.3 22.45 -80.65 22.8 -81.0 23.2 -81.25 23.6 -81.45 23.95 -81.65 24.3 -82.05 24.55 -82.65 24.7 -83.55 24.45 -83.9 24.05 -84.15 23.7 -84.15 23.3 -84.15 22.95 -84.15 22.55 -84.1 22.2 -83.9 21.8 -83.8 21.45 -83.8 21.05 -83.8 20.7 -83.8 20.3 -83.6 20.0 -82.9 19.2 -82.25 18.35 -81.15 16.95 -80.8 16.7 -80.05 16.45 -79.4 16.05 -78.9 15.65 -78.55 15.3 -77.65 15.05 -77.15 15.05 -75.9 14.95 -75.3 14.55 -75.05 14.3 -74.8 14.25 -67.15 13.55 -58.65 13.55" fill="#663333" fill-opacity="0.2" fill-rule="evenodd" stroke="none"/>
    <path d="M52.1 15.3 L51.95 15.7 51.8 15.85 51.1 16.2 50.45 16.55 49.6 16.95 48.85 17.3 48.25 18.1 47.0 19.6 45.2 21.05 44.6 21.45 44.2 21.8 43.7 22.2 43.2 22.55 42.45 22.95 41.85 23.0 40.35 23.05 39.45 22.8 38.85 22.8 38.7 23.2 38.5 23.6 38.3 23.95 38.1 24.35 37.95 24.7 37.95 25.05 37.8 25.45 37.7 25.7 37.85 25.8 38.4 26.15 38.6 26.45 38.6 26.8 38.45 27.15 38.1 27.6 37.6 28.35 37.45 28.7 36.95 29.05 36.45 29.3 35.85 29.45 34.95 29.2 34.45 28.8 34.2 28.45 34.1 28.05 34.1 27.7 34.1 26.95 34.2 26.2 34.2 25.45 34.35 25.05 34.45 24.7 34.7 23.95 34.95 23.2 35.1 22.8 35.3 22.45 35.5 22.1 35.7 21.7 36.05 20.95 36.2 20.55 39.2 17.45 Q41.0 15.65 43.1 14.2 44.2 13.4 45.45 12.8 L45.7 12.75 46.3 12.65 46.35 12.55 47.35 12.55 48.1 12.8 48.6 13.2 48.8 13.6 48.95 13.95 49.35 14.3 49.85 14.45 50.35 14.3 50.85 14.2 51.35 14.35 51.9 14.65 52.1 14.95 52.1 15.3" fill="#663333" fill-opacity="0.2" fill-rule="evenodd" stroke="none"/>
    <path d="M75.05 19.7 L75.85 20.45 76.2 20.8 76.7 21.2 77.95 22.3 78.7 22.7 79.2 23.1 79.55 23.45 79.8 23.85 79.95 24.2 80.05 24.55 80.05 24.95 79.95 25.3 79.7 25.7 79.5 26.1 79.3 26.45 79.05 26.8 78.7 27.2 77.85 27.45 76.95 27.2 76.45 26.8 76.1 26.45 75.7 26.05 75.05 25.7 74.35 25.3 74.1 25.05 74.05 25.0 72.45 24.7 72.25 24.3 72.2 23.95 72.5 23.7 72.85 23.55 73.6 23.3 73.3 22.95 72.95 22.55 72.6 22.2 72.2 21.8 71.95 21.75 71.35 21.8 70.5 21.5 70.2 21.35 69.45 21.05 69.05 20.7 68.7 20.45 67.85 20.25 66.2 19.65 65.45 19.3 64.95 19.05 64.7 19.0 60.85 18.8 59.85 18.6 Q56.1 17.95 52.45 18.6 L49.1 19.45 48.35 19.8 47.95 20.15 47.45 20.55 46.7 20.95 46.35 21.3 45.95 21.7 Q45.65 21.9 45.3 22.05 L44.35 22.45 44.0 22.85 43.7 23.2 43.45 23.55 43.1 23.95 42.85 24.3 42.6 24.7 42.35 25.05 41.8 25.4 41.2 25.8 40.85 26.2 40.45 26.55 40.1 26.8 39.95 26.9 39.1 27.05 38.6 27.45 37.85 27.7 36.95 27.45 36.6 27.05 36.35 26.7 36.35 26.3 36.35 25.95 36.45 25.55 36.45 25.2 36.45 24.8 36.7 24.45 36.95 24.05 37.6 23.7 37.9 23.3 Q38.3 22.7 38.85 22.2 L39.5 21.4 Q40.25 20.3 41.35 19.6 42.35 18.95 43.45 18.45 L43.8 18.05 44.1 17.7 44.45 17.3 44.85 16.95 45.2 16.7 46.1 16.45 46.7 16.05 46.95 15.8 47.2 15.7 49.35 15.2 56.95 14.2 57.85 14.05 63.35 14.05 64.1 14.3 65.7 14.75 67.8 15.1 68.6 15.3 69.05 15.7 69.35 15.95 69.35 16.0 70.1 16.3 70.85 16.55 71.6 16.8 72.05 17.2 72.45 17.55 72.85 17.95 73.2 18.3 73.6 18.7 73.85 18.95 73.95 19.05 74.6 19.3 75.05 19.7" fill="#663333" fill-opacity="0.2" fill-rule="evenodd" stroke="none"/>
    <path d="M-47.15 -9.3 L-23.65 -9.3 -22.9 -9.05 -22.55 -8.65 -22.3 -8.3 -22.15 -7.95 -22.2 -7.6 -22.4 -7.15 -22.6 -6.85 -22.8 -6.55 -23.05 -6.5 Q-44.35 -5.75 -65.65 -6.95 L-66.3 -7.2 -66.5 -7.6 -66.55 -7.95 -66.35 -8.15 Q-60.25 -9.55 -53.65 -9.35 -50.4 -9.25 -47.15 -9.3" fill="#663333" fill-opacity="0.2" fill-rule="evenodd" stroke="none"/>
    <path d="M28.7 -6.05 L28.45 -6.0 Q6.1 -5.1 -16.15 -6.3 L-16.8 -6.55 -17.1 -6.95 -17.15 -7.3 -17.1 -7.65 -16.8 -8.05 -16.15 -8.3 -15.15 -8.4 -1.15 -8.8 27.85 -8.8 28.6 -8.55 28.95 -8.15 29.2 -7.8 29.35 -7.45 29.3 -7.1 29.1 -6.65 28.9 -6.35 28.7 -6.05" fill="#663333" fill-opacity="0.2" fill-rule="evenodd" stroke="none"/>
    <path d="M16.95 -32.0 Q-1.45 -30.75 -19.55 -32.8 L-19.75 -33.2 -19.8 -33.55 -19.5 -33.7 Q-10.85 -35.25 -2.15 -34.8 L16.35 -34.8 17.1 -34.55 17.45 -34.15 17.7 -33.8 17.85 -33.45 17.8 -33.1 17.6 -32.65 17.4 -32.35 17.2 -32.05 16.95 -32.0" fill="#663333" fill-opacity="0.2" fill-rule="evenodd" stroke="none"/>
    <path d="M-27.4 -36.95 L-27.1 -36.55 -26.9 -36.2 -26.85 -35.8 -26.9 -35.45 -27.05 -35.05 -27.4 -34.7 -28.15 -34.45 -33.3 -34.2 -34.15 -33.95 -35.65 -33.95 -43.2 -33.2 -45.8 -32.75 -46.65 -32.55 -48.5 -32.35 -53.9 -31.15 -54.65 -30.95 -56.15 -30.95 -57.05 -31.2 -57.3 -31.55 -57.5 -31.95 -57.55 -32.3 -57.5 -32.65 -57.3 -33.05 -57.05 -33.45 -56.15 -33.65 Q-53.1 -34.3 -50.2 -35.35 L-49.8 -35.55 -49.15 -35.65 -42.15 -36.7 -37.3 -36.8 -36.8 -36.95 -36.3 -37.05 -35.65 -37.1 -35.65 -37.2 -28.15 -37.2 -27.4 -36.95" fill="#663333" fill-opacity="0.2" fill-rule="evenodd" stroke="none"/>
    <path d="M-54.1 -33.55 L-53.9 -33.2 -54.05 -32.8 -54.3 -32.45 -54.35 -32.1 -54.55 -31.7 -54.65 -31.3 -54.8 -30.95 -55.65 -29.8 -56.5 -28.35 -57.05 -27.2 -57.4 -26.8 -57.9 -26.05 -58.3 -25.3 -58.9 -24.55 -59.45 -23.85 -59.8 -23.45 -59.95 -23.05 -60.15 -22.7 -60.4 -22.3 -60.65 -21.95 -60.8 -21.55 -60.9 -21.2 -61.75 -19.75 -62.65 -18.15 -63.55 -17.05 -63.7 -16.7 -63.9 -16.3 -64.3 -15.2 -64.8 -13.7 -65.15 -12.55 -65.3 -12.2 -65.55 -11.8 -65.65 -11.45 -65.65 -11.05 -65.65 -10.7 -65.7 -10.3 -65.8 -9.95 -65.95 -9.55 -66.15 -9.2 -66.55 -8.95 -67.15 -8.85 -67.65 -8.8 -68.55 -9.05 -68.9 -9.45 -69.1 -9.85 -69.15 -10.2 -69.15 -10.55 -69.0 -10.9 -68.8 -11.3 -68.7 -11.7 -68.65 -12.05 -68.55 -12.45 -68.4 -12.8 -68.15 -13.2 -67.9 -13.95 -67.55 -15.05 -67.15 -16.2 -67.0 -16.55 -66.65 -16.95 -63.35 -22.6 -59.6 -27.85 Q-58.3 -29.4 -57.4 -31.2 L-56.8 -31.55 -56.45 -31.95 -56.2 -32.3 -56.05 -32.7 -55.7 -33.1 -55.5 -33.4 -55.15 -33.8 -54.65 -33.9 -54.4 -33.95 -54.1 -33.55" fill="#663333" fill-opacity="0.2" fill-rule="evenodd" stroke="none"/>
    <path d="M-7.2 1.45 L-6.85 1.65 -6.5 1.85 -6.4 2.0 -6.35 2.2 -6.3 2.4 -6.3 2.55 -6.35 2.75 -6.45 2.95 -6.45 3.15 -6.45 3.35 -6.5 3.5 -6.6 3.7 -6.65 3.9 -6.75 4.1 -7.15 4.25 -7.6 4.45 -7.85 4.6 -8.15 4.6 -11.15 4.75 -11.4 4.95 -11.6 5.1 -11.9 5.1 -12.9 5.15 -13.35 5.0 -13.6 4.9 -13.7 4.85 -15.45 4.7 -15.65 4.65 -17.2 4.2 -17.4 4.0 -17.7 3.85 -18.1 3.65 -18.45 3.45 -18.65 3.25 -18.75 3.1 -18.8 2.9 -18.85 2.7 -18.85 2.5 -18.85 2.35 -18.85 2.15 -18.85 1.95 -18.75 1.8 -18.6 1.6 -18.35 1.4 -17.95 1.2 -17.7 1.1 -17.4 1.05 -17.4 1.0 -12.65 1.0 -12.2 1.1 -7.65 1.35 -7.2 1.45" fill="#663333" fill-opacity="0.2" fill-rule="evenodd" stroke="none"/>
    <path d="M14.75 -9.75 L14.85 -9.95 15.05 -10.3 15.25 -10.5 15.4 -10.6 15.55 -10.65 15.85 -10.7 15.85 -10.75 16.3 -10.6 16.85 -10.5 17.3 -10.35 17.55 -10.15 17.65 -10.0 17.75 -9.8 17.75 -9.6 17.8 -9.4 17.8 -9.25 17.8 -9.05 17.85 -8.85 17.95 -8.65 18.05 -8.5 18.15 -8.3 18.25 -8.1 18.25 -7.75 18.3 -7.0 18.3 -5.85 18.3 -4.9 18.2 -4.75 18.1 -4.55 18.0 -4.35 17.85 -4.15 17.85 -4.0 17.85 -3.8 17.8 -3.6 17.7 -3.45 17.6 -3.25 17.35 -3.05 17.25 -2.85 17.15 -2.65 17.1 -2.5 16.25 -1.8 Q14.6 -0.7 12.65 -1.3 L12.4 -1.5 12.25 -1.7 12.1 -1.85 12.0 -2.05 11.95 -2.25 11.9 -2.4 11.85 -2.6 11.75 -2.8 11.75 -3.0 11.75 -3.15 11.75 -3.35 11.75 -3.9 11.75 -4.5 11.75 -4.65 11.8 -4.85 11.85 -5.05 11.9 -5.25 12.05 -5.45 12.1 -5.6 12.35 -6.0 13.05 -6.75 13.25 -6.9 13.3 -7.1 13.35 -7.3 13.4 -7.5 13.5 -7.65 13.6 -7.85 13.8 -8.05 14.15 -8.25 14.35 -8.4 14.4 -8.6 14.4 -8.8 14.45 -9.0 14.5 -9.15 14.55 -9.35 14.65 -9.55 14.75 -9.75" fill="#663333" fill-opacity="0.2" fill-rule="evenodd" stroke="none"/>
    <path d="M-6.9 2.0 L-7.1 2.15 -7.4 2.2 -8.4 2.15 -17.15 2.0 -17.6 1.9 -17.75 1.7 -18.15 1.6 -18.6 1.45 -18.85 1.25 -18.95 1.05 -19.0 0.9 -19.0 0.7 -19.0 0.5 -18.95 0.35 -18.85 0.15 -18.6 -0.05 -18.15 -0.15 -7.65 -0.05 -6.45 0.15 -6.2 0.35 -6.1 0.5 -6.0 0.7 -6.0 0.9 -6.0 1.05 -6.0 1.25 -6.15 1.45 -6.25 1.65 -6.65 1.85 -6.9 2.0" fill="#663333" fill-opacity="0.2" fill-rule="evenodd" stroke="none"/>
    <path d="M-13.9 -0.95 L-13.75 -0.7 -13.65 -0.55 -13.6 -0.35 -13.6 -0.15 -13.6 0.0 -13.6 0.2 -13.65 0.4 -13.65 0.75 -13.7 0.95 -13.85 1.15 -13.95 1.3 -14.15 1.5 -14.35 1.65 -14.65 1.7 -15.2 1.85 -15.4 2.0 -15.65 2.2 -15.85 2.35 -16.15 2.4 -17.4 2.35 -17.85 2.2 -18.2 2.0 -18.5 1.85 -18.7 1.65 -18.9 1.45 -18.95 1.25 -19.2 1.1 -19.5 0.9 -19.7 0.7 -19.75 0.5 -19.8 0.3 -19.85 0.15 -19.85 -0.05 -19.85 -0.25 -19.85 -0.4 -19.85 -0.8 -19.75 -0.95 -19.6 -1.15 -19.4 -1.35 -19.2 -1.55 -18.95 -1.65 -18.65 -1.7 -18.65 -1.75 -17.4 -1.75 -16.95 -1.6 -16.7 -1.5 -14.65 -1.4 -14.2 -1.3 -14.05 -1.1 -13.9 -0.95" fill="#663333" fill-opacity="0.2" fill-rule="evenodd" stroke="none"/>
    <path d="M-9.2 13.45 L2.8 13.95 9.2 14.05 28.3 13.95 Q31.0 13.9 33.4 15.3 35.55 16.6 37.1 18.45 39.0 20.75 39.5 23.75 40.5 29.35 35.25 31.75 33.7 32.55 33.0 34.05 32.65 34.9 31.85 35.35 26.15 38.4 19.3 38.45 L1.3 39.65 Q-8.3 39.95 -17.85 39.5 -25.85 39.05 -33.4 36.55 L-34.95 36.35 Q-37.45 36.35 -39.15 34.65 L-43.4 30.15 Q-44.45 29.05 -44.95 27.75 -45.9 25.4 -45.8 22.7 -45.6 17.15 -40.55 15.2 -37.75 14.05 -34.7 14.0 L-25.5 13.45 Q-17.35 13.1 -9.2 13.45" fill="#663333" fill-opacity="0.2" fill-rule="evenodd" stroke="none"/>
    <path d="M-83.15 12.2 L-82.45 12.95 -81.9 13.7 -81.75 14.45 Q-81.65 15.2 -81.7 15.9 L-81.8 18.2 Q-81.75 19.35 -82.1 20.45 L-82.15 21.2 -82.7 21.9 -83.4 22.7 -83.55 23.45 -83.5 24.2 -83.5 24.9 -83.65 25.7 -84.0 26.35 -84.7 27.15 -85.4 27.7 -86.7 27.85 -87.65 27.95 -89.4 27.45 -90.15 26.65 -90.65 25.95 Q-90.8 25.55 -91.05 25.4 -91.8 24.95 -92.65 24.7 L-94.4 24.2 -95.15 23.4 -95.65 22.7 -95.65 21.95 -95.6 21.2 -95.5 20.4 -95.4 18.95 -95.4 18.2 -95.1 17.45 -94.65 16.7 -93.9 15.95 -92.4 14.45 -90.9 13.7 -90.15 12.95 -89.4 12.2 -87.7 11.8 -87.65 11.7 -84.65 11.7 -83.15 12.2" fill="#663333" fill-opacity="0.2" fill-rule="evenodd" stroke="none"/>
    <path d="M90.85 13.9 L92.05 14.7 92.55 15.45 92.95 16.2 93.05 16.95 93.2 17.7 93.05 18.45 92.8 19.2 92.3 19.95 91.8 20.7 91.3 21.4 90.55 22.2 89.8 22.95 88.3 23.45 83.3 23.45 Q80.75 23.45 78.3 22.7 L76.55 22.2 75.85 21.4 75.3 20.7 75.3 19.95 75.3 19.2 75.3 18.45 75.3 17.7 75.3 16.2 75.3 15.45 Q75.3 15.05 75.45 14.7 L75.85 13.95 76.55 13.2 78.3 12.8 78.3 12.7 88.3 12.7 89.8 13.2 90.85 13.9" fill="#663333" fill-opacity="0.2" fill-rule="evenodd" stroke="none"/>
    <path d="M-90.4 -7.8 L-90.25 -5.85 Q-91.9 -4.75 -92.3 -3.2 L-92.8 -1.2 Q-81.05 4.95 -78.4 15.05 L-81.3 16.3 Q-83.35 26.7 -93.15 19.7 -94.8 18.55 -95.15 15.6 -96.2 6.0 -94.9 -3.55 -93.8 -5.95 -91.55 -7.15 L-90.4 -7.8" fill="#663333" fill-opacity="0.2" fill-rule="evenodd" stroke="none"/>
    <path d="M30.75 26.9 L30.9 27.0 32.4 27.2 32.5 27.25 32.35 27.3 30.85 27.45 30.6 27.6 29.6 27.65 12.6 28.35 Q-8.65 28.0 -29.9 27.9 L-39.65 27.7 -40.0 27.6 -40.2 27.35 -40.25 27.2 -40.2 27.05 -40.0 26.85 -39.65 26.7 -38.4 26.65 Q-12.85 26.1 12.6 26.35 L24.35 26.5 30.75 26.9" fill="#ffffff" fill-opacity="0.2" fill-rule="evenodd" stroke="none"/>
    <path d="M67.1 7.45 L67.0 7.65 66.35 7.7 57.35 7.8 Q-8.15 8.05 -73.65 7.7 L-79.65 7.6 -85.0 7.45 -85.0 7.4 -84.9 7.35 -79.65 7.25 Q-46.35 7.0 -13.15 7.0 L44.85 7.05 57.35 7.1 67.0 7.25 67.1 7.45" fill="#ffffff" fill-opacity="0.2" fill-rule="evenodd" stroke="none"/>
    <path d="M-24.0 -4.25 L-23.75 -4.05 -23.65 -3.85 -23.6 -3.65 -23.6 -3.5 -23.65 -3.3 -23.7 -3.1 -23.9 -2.95 -24.1 -2.8 Q-43.15 -2.35 -62.15 -3.25 L-63.0 -3.35 -63.15 -3.55 -63.0 -3.75 -48.15 -4.55 -31.4 -4.35 -24.4 -4.35 -24.0 -4.25" fill="#ffffff" fill-opacity="0.2" fill-rule="evenodd" stroke="none"/>
    <path d="M26.75 -4.15 L27.0 -4.0 27.05 -3.8 27.1 -3.6 27.1 -3.4 27.05 -3.25 26.9 -3.05 26.8 -2.9 26.65 -2.9 Q6.15 -2.55 -14.35 -3.0 L-14.5 -3.15 -14.5 -3.35 -14.4 -3.55 -14.15 -3.75 -13.95 -3.9 -13.65 -4.05 -12.9 -4.1 12.1 -4.35 26.1 -4.25 26.75 -4.15" fill="#ffffff" fill-opacity="0.2" fill-rule="evenodd" stroke="none"/>
    <path d="M-6.65 -2.1 L-6.15 -1.9 -5.9 -1.75 -5.75 -1.55 -5.75 -1.35 -5.7 -1.15 -5.7 -1.0 -5.7 -0.8 -5.7 -0.6 -5.75 -0.45 -5.85 -0.25 -5.95 -0.05 -6.2 0.15 -6.45 0.25 -6.6 0.35 -6.9 0.4 -7.6 0.45 -7.85 0.5 -8.45 0.7 -8.6 0.9 -8.75 1.1 -9.15 1.2 -11.15 1.2 -11.6 1.15 -14.15 1.0 -14.6 0.9 -14.75 0.7 -14.9 0.5 -14.95 0.35 -14.95 0.15 -14.95 -0.05 -14.85 -0.25 -14.65 -0.4 -14.35 -0.75 -14.2 -0.8 -13.9 -0.85 -13.4 -0.8 -13.15 -0.85 -13.1 -1.05 -13.0 -1.25 -12.85 -1.4 -12.65 -1.6 -12.35 -1.8 -12.1 -1.9 -11.95 -2.0 -11.65 -2.05 -11.35 -2.1 -11.2 -2.15 -10.9 -2.2 -10.9 -2.25 -7.15 -2.25 -6.65 -2.1" fill="#ffffff" fill-opacity="0.2" fill-rule="evenodd" stroke="none"/>
    <path d="M-8.65 -1.1 L-8.4 -1.05 -8.15 -1.0 -7.9 -0.9 -7.4 -1.0 -7.2 -1.15 -6.9 -1.3 -6.15 -1.35 -5.9 -1.4 -5.65 -1.4 -5.35 -1.3 -5.15 -1.1 -5.05 -0.9 -5.0 -0.75 -5.05 -0.55 -5.1 -0.35 -5.15 -0.2 -5.25 -0.05 -5.4 0.0 -5.7 0.15 -5.9 0.25 -6.15 0.35 -8.65 0.25 -9.0 0.15 -9.15 -0.05 -9.2 -0.25 -9.2 -0.4 -9.2 -0.6 -9.15 -0.8 -9.0 -1.0 -8.65 -1.1" fill="#ffffff" fill-opacity="0.2" fill-rule="evenodd" stroke="none"/>
    <path d="M-58.2 11.25 L-57.95 11.45 Q-57.1 11.95 -56.4 12.6 L-55.25 13.65 -54.65 14.45 -54.6 14.65 -54.6 15.2 -54.6 15.75 -54.6 16.15 -54.6 16.7 -54.65 16.9 -54.7 17.05 -54.85 17.25 -54.95 17.4 -55.1 17.45 -55.4 17.5 -55.9 17.5 -56.35 17.4 -58.8 16.75 -59.85 16.4 -60.0 16.25 -60.2 16.2 -61.95 15.9 -63.15 15.65 -63.7 15.45 -64.0 15.25 -64.55 14.85 -64.95 14.5 -65.15 14.2 -65.2 14.15 -65.7 14.0 -66.45 13.7 -67.15 13.35 -67.35 13.15 -67.45 12.95 -67.6 12.75 -67.65 12.55 -67.65 12.4 -67.65 12.2 -67.65 12.0 -67.65 11.85 -67.65 11.45 -67.65 11.25 -67.55 11.1 -67.4 10.9 -67.1 10.7 -66.15 10.35 -65.65 10.2 -62.4 10.35 -59.5 10.85 -58.2 11.25" fill="#ffffff" fill-opacity="0.2" fill-rule="evenodd" stroke="none"/>
    <path d="M-59.45 12.15 L-59.15 12.1 -56.4 12.3 Q-54.85 12.5 -53.45 13.15 L-51.45 14.25 -51.3 14.45 -51.15 14.65 -51.0 14.85 -50.95 15.0 -50.9 15.2 -50.85 15.4 -50.85 15.6 -50.8 15.7 -50.45 15.95 -50.25 16.15 -50.05 16.35 -49.85 16.5 -49.45 16.7 -49.3 16.9 -49.15 17.1 -49.1 17.25 -49.05 17.45 -49.0 17.65 -48.9 17.85 -48.85 18.0 -48.8 18.2 -48.75 18.4 -48.65 18.6 -48.6 18.75 -48.55 18.95 -48.5 19.15 -48.5 19.35 -48.5 19.5 -48.5 19.9 -48.5 20.1 -48.6 20.25 -48.7 20.45 -48.9 20.65 -49.1 20.75 -49.4 20.9 -49.5 21.1 -49.7 21.2 -49.85 21.25 -50.15 21.3 -51.15 21.35 -51.6 21.2 -51.85 21.0 -52.2 20.65 -52.75 20.1 -53.3 19.5 -53.45 19.35 -53.5 19.15 -53.5 18.95 -53.5 18.75 -53.55 18.7 -55.65 18.6 -56.1 18.45 -56.45 18.25 -56.75 18.1 -56.9 17.9 -57.0 17.7 -57.1 17.5 -57.35 17.35 -57.7 17.2 -59.6 16.6 -61.7 15.65 -61.9 15.45 -61.95 15.25 -62.0 15.05 -62.0 14.9 -62.0 14.7 -62.0 14.5 -61.95 14.15 -61.9 13.95 -61.7 13.75 -61.45 13.65 -61.15 13.6 -60.0 13.45 -60.0 13.25 -60.0 13.1 -60.0 12.9 -60.0 12.7 -59.9 12.5 -59.75 12.35 -59.6 12.2 -59.45 12.15" fill="#ffffff" fill-opacity="0.2" fill-rule="evenodd" stroke="none"/>
    <path d="M-60.15 11.15 L-59.15 11.15 Q-58.3 11.35 -57.55 11.7 L-55.7 12.75 -53.95 14.25 -53.6 14.45 -53.2 14.65 -52.85 14.8 -51.9 15.2 -51.6 15.4 -51.4 15.6 -51.25 15.8 -51.15 15.95 -51.1 16.15 -51.1 16.35 -51.1 16.5 -51.1 16.7 -51.1 16.9 -51.1 17.1 -51.15 17.25 -51.25 17.45 -51.5 17.65 -51.55 17.85 -51.6 18.0 -51.65 18.2 -51.75 18.35 -51.9 18.55 -52.1 18.7 -52.35 18.75 -53.15 18.8 -55.15 18.75 -55.6 18.65 -55.75 18.45 -55.9 18.25 -55.95 18.1 -56.4 17.8 -57.45 17.45 -58.8 17.1 -59.85 16.85 -60.1 16.65 -60.6 16.25 -61.4 15.7 -62.2 14.95 -62.6 14.6 -62.65 14.4 -62.75 14.2 -62.85 14.0 -62.9 13.8 -62.9 13.65 -62.9 13.45 -62.9 13.25 -62.9 13.1 -62.9 12.9 -62.85 12.7 -62.8 12.5 -62.7 12.35 -62.6 12.15 -62.45 11.95 -62.2 11.8 -61.85 11.6 -61.4 11.45 -60.65 11.35 -60.45 11.2 -60.15 11.15" fill="#ffffff" fill-opacity="0.2" fill-rule="evenodd" stroke="none"/>
    <path d="M74.65 16.9 L74.8 17.1 74.85 17.25 74.9 17.45 75.0 17.65 75.05 17.85 75.1 18.0 75.2 18.2 75.3 18.4 75.4 18.6 75.45 18.75 75.45 18.95 75.5 19.15 75.5 19.35 75.5 19.5 75.5 19.7 75.5 19.9 75.4 20.1 75.3 20.25 75.1 20.45 74.9 20.6 74.6 20.6 74.35 20.65 74.1 20.65 73.35 20.65 72.9 20.5 72.65 20.3 72.5 20.15 72.3 19.95 72.25 19.75 72.2 19.55 72.15 19.4 72.15 19.2 72.05 19.0 71.9 18.85 71.8 18.95 71.6 19.15 71.4 19.25 71.1 19.3 70.6 19.35 70.15 19.2 70.0 19.1 69.85 19.0 66.35 18.05 62.05 17.2 61.8 17.0 61.6 16.85 61.4 16.65 61.3 16.45 61.3 16.25 61.3 16.1 61.3 15.9 61.3 15.7 61.4 15.5 61.45 15.35 61.45 15.15 61.4 14.95 61.4 14.75 61.4 14.6 61.4 14.4 61.4 14.2 61.4 14.0 61.35 13.85 61.15 13.65 61.05 13.45 61.05 13.25 61.0 13.15 60.35 12.8 59.55 12.4 59.15 12.05 59.05 11.9 59.0 11.7 58.95 11.55 58.85 11.6 58.7 11.5 58.25 11.4 58.1 11.2 58.25 11.0 59.1 10.85 59.3 10.65 59.4 10.5 59.55 10.45 59.85 10.4 65.35 10.4 65.85 10.55 67.3 11.05 68.4 11.65 68.8 12.0 69.15 12.2 69.4 12.4 70.0 12.6 70.15 12.75 70.3 12.95 70.35 13.15 70.4 13.3 70.5 13.45 70.55 13.5 71.5 13.75 72.2 14.1 72.8 14.45 73.05 14.65 73.15 14.85 73.3 15.0 73.4 15.2 73.55 15.4 73.8 15.6 73.9 15.75 74.05 15.95 74.15 16.15 74.3 16.35 74.4 16.5 74.55 16.7 74.65 16.9" fill="#ffffff" fill-opacity="0.2" fill-rule="evenodd" stroke="none"/>
    <path d="M75.05 16.4 L75.25 16.6 75.6 16.75 75.8 16.95 75.9 17.15 75.95 17.35 76.0 17.5 76.0 17.7 76.0 17.9 76.0 18.25 76.0 18.45 76.0 18.6 76.2 18.85 76.4 19.0 76.55 19.2 76.75 19.6 76.75 19.75 76.8 19.95 76.9 20.15 77.0 20.35 76.95 20.5 76.9 20.7 76.85 20.9 76.75 21.1 76.55 21.2 76.4 21.25 76.1 21.3 75.85 21.35 75.4 21.2 75.05 21.0 74.8 20.9 74.6 20.85 74.3 20.75 73.9 20.65 73.75 20.45 73.4 20.25 72.65 19.9 71.85 19.35 71.4 18.85 70.75 18.6 69.4 17.8 68.75 17.3 68.0 16.7 67.8 16.5 67.6 16.3 67.5 16.15 67.35 15.95 67.1 15.6 67.0 15.4 66.9 15.2 66.85 15.0 66.8 14.85 66.8 14.65 66.8 14.45 66.8 14.25 66.8 14.1 66.8 13.7 66.8 13.5 66.85 13.35 67.05 13.15 67.15 13.0 67.3 12.95 67.6 12.9 68.35 12.9 68.8 13.05 69.15 13.2 69.55 13.4 69.9 13.45 70.05 13.4 70.35 13.35 70.8 13.45 71.1 13.65 71.55 13.85 71.85 14.0 72.3 14.2 72.5 14.4 72.75 14.6 72.85 14.75 73.1 14.95 73.25 15.15 73.5 15.35 73.6 15.5 73.8 15.7 74.05 15.9 74.15 16.0 74.35 16.05 74.8 16.2 75.05 16.4" fill="#ffffff" fill-opacity="0.2" fill-rule="evenodd" stroke="none"/>
    <path d="M70.9 13.7 L70.9 13.9 70.9 14.1 70.9 14.25 70.9 14.45 70.9 14.65 70.9 14.85 70.9 15.0 70.85 15.2 70.8 15.4 70.75 15.6 70.6 15.75 70.4 15.9 70.1 15.95 69.6 15.95 69.3 15.9 69.1 15.85 68.35 15.6 68.15 15.55 67.9 15.55 67.6 15.55 67.1 15.6 66.65 15.45 66.3 15.25 65.9 15.1 65.55 14.9 65.3 14.75 64.85 14.75 64.4 14.65 64.25 14.45 64.1 14.25 64.0 14.1 63.85 13.9 63.75 13.7 63.75 13.5 63.75 13.35 63.75 13.15 63.75 12.95 63.75 12.75 63.75 12.6 63.75 12.4 63.75 12.2 63.75 12.0 63.8 11.85 63.9 11.65 64.1 11.45 64.3 11.25 64.55 11.15 64.85 11.1 65.35 11.1 66.35 11.35 67.55 11.8 68.55 12.4 68.8 12.5 68.9 12.55 69.35 12.65 69.8 12.8 70.15 12.95 70.75 13.35 70.85 13.5 70.9 13.7" fill="#ffffff" fill-opacity="0.2" fill-rule="evenodd" stroke="none"/>
    <path d="M-25.15 -40.3 L-21.15 -40.4 -20.65 -40.55 -13.85 -40.65 -13.4 -40.8 -11.65 -40.85 1.1 -40.9 1.55 -40.8 7.35 -40.65 7.8 -40.55 10.1 -40.4 10.55 -40.35 12.1 -40.15 12.55 -40.1 13.85 -39.9 14.3 -39.8 15.6 -39.75 16.35 -39.75 16.8 -39.6 19.6 -39.5 20.05 -39.35 20.6 -39.25 21.05 -39.1 23.35 -39.0 23.8 -38.85 24.05 -38.65 24.15 -38.5 24.25 -38.3 24.25 -38.1 24.25 -37.95 24.25 -37.75 24.1 -37.55 24.0 -37.35 23.8 -37.25 23.65 -37.2 23.35 -37.15 20.6 -37.1 20.15 -37.25 19.6 -37.35 19.15 -37.5 16.6 -37.6 16.15 -37.75 15.6 -37.85 14.35 -37.9 13.9 -38.0 12.6 -38.2 12.15 -38.25 10.6 -38.45 10.15 -38.55 7.85 -38.65 7.4 -38.8 1.6 -38.9 1.15 -39.05 0.9 -39.15 -11.65 -39.2 -13.45 -39.15 -13.9 -39.05 -20.9 -38.9 -21.4 -38.8 -25.4 -38.65 -25.9 -38.6 -28.65 -38.4 -29.15 -38.3 -34.85 -38.25 -39.4 -37.9 Q-42.05 -38.15 -44.65 -37.9 L-54.45 -37.25 -57.65 -36.9 -59.9 -36.9 -60.15 -36.85 -60.4 -36.8 -60.65 -36.75 -61.4 -36.8 -61.9 -36.85 -63.1 -37.0 -63.25 -37.15 -63.25 -37.35 -63.15 -37.55 -62.9 -37.65 -61.9 -37.75 -61.4 -37.8 -60.65 -37.9 -60.4 -37.9 -59.9 -38.0 -57.85 -38.35 -57.85 -38.4 -57.75 -38.6 -57.65 -38.8 -57.45 -38.9 -50.15 -39.15 -45.15 -39.4 -37.9 -39.8 -37.5 -39.65 -35.45 -39.6 -35.2 -39.65 -34.95 -39.75 -34.65 -39.75 -28.9 -39.9 -28.4 -40.0 -25.65 -40.2 -25.15 -40.3" fill="#ffffff" fill-opacity="0.2" fill-rule="evenodd" stroke="none"/>
    <path d="M-19.6 -40.6 L-19.35 -40.8 -18.9 -40.9 6.85 -40.9 13.1 -40.85 13.5 -40.75 13.75 -40.55 13.9 -40.4 14.25 -40.35 14.55 -40.3 17.9 -39.9 20.6 -39.4 20.9 -39.3 21.0 -39.25 21.3 -39.3 21.55 -39.4 21.85 -39.5 22.3 -39.35 22.55 -39.15 Q22.65 -39.1 22.8 -39.0 L22.9 -38.8 23.05 -38.6 23.1 -38.4 23.1 -38.25 23.1 -38.05 23.1 -37.85 23.1 -37.65 23.05 -37.5 22.9 -37.3 22.8 -37.1 22.55 -36.9 22.1 -36.8 21.85 -36.8 21.6 -36.8 21.1 -36.9 20.85 -37.1 20.5 -37.3 19.1 -37.35 13.15 -38.15 12.55 -38.25 -17.15 -38.65 -17.6 -38.8 -17.85 -39.0 -17.9 -39.05 -18.9 -39.15 -19.35 -39.3 -19.6 -39.5 -19.7 -39.7 -19.75 -39.85 -19.75 -40.05 -19.75 -40.25 -19.7 -40.4 -19.6 -40.6" fill="#ffffff" fill-opacity="0.2" fill-rule="evenodd" stroke="none"/>
    <path d="M69.75 1.1 L69.9 1.2 73.85 1.85 79.05 2.95 84.0 4.15 84.15 4.35 84.3 4.5 84.75 4.7 84.85 4.9 84.85 5.1 84.75 5.2 84.6 5.25 84.35 5.2 84.0 5.3 83.6 5.4 80.55 4.7 75.85 3.6 69.35 2.7 68.9 2.55 68.65 2.45 68.55 2.4 65.45 1.85 62.85 1.3 57.85 0.4 57.4 0.25 57.1 0.15 56.65 0.0 56.55 -0.15 51.55 -0.95 48.05 -1.55 45.05 -2.15 43.9 -2.1 43.6 -2.0 43.35 -2.0 43.1 -2.05 42.8 -2.2 42.65 -2.3 42.65 -2.35 41.6 -2.4 41.25 -2.55 41.05 -2.75 41.0 -2.9 41.0 -3.1 41.0 -3.3 41.15 -3.5 41.5 -3.8 45.6 -4.15 45.85 -4.15 46.15 -4.05 46.6 -3.95 46.85 -3.85 47.0 -3.8 48.6 -3.8 55.9 -2.25 64.5 -0.3 69.75 1.1" fill="#ffffff" fill-opacity="0.2" fill-rule="evenodd" stroke="none"/>
    <path d="M65.0 -0.15 L65.15 0.0 65.3 0.15 65.35 0.2 65.65 0.35 65.8 0.5 65.85 0.7 65.8 0.9 65.65 1.1 65.2 1.25 64.85 1.4 64.55 1.3 64.5 1.25 63.85 1.2 63.45 1.05 63.3 1.0 62.9 0.85 62.5 0.85 62.1 0.95 61.85 0.95 61.35 0.85 59.1 0.45 53.95 -0.4 50.65 -1.05 48.85 -1.0 48.4 -1.1 47.65 -1.15 47.35 -1.1 46.85 -1.2 46.45 -1.3 45.85 -1.45 45.5 -1.55 45.1 -1.75 44.6 -1.85 41.9 -2.25 40.85 -2.4 40.4 -2.5 40.3 -2.65 40.2 -2.85 40.15 -3.05 40.2 -3.25 40.3 -3.4 40.4 -3.6 40.85 -3.7 40.85 -3.75 48.6 -3.75 49.05 -3.65 49.85 -3.45 50.35 -3.35 50.9 -3.15 52.85 -3.0 55.05 -2.6 60.05 -1.65 63.5 -0.65 63.65 -0.55 64.0 -0.45 64.6 -0.3 65.0 -0.15" fill="#ffffff" fill-opacity="0.2" fill-rule="evenodd" stroke="none"/>
    <path d="M25.15 -37.85 L25.4 -37.65 25.65 -37.45 25.75 -37.3 25.65 -37.15 25.4 -36.9 25.45 -36.75 25.45 -36.55 25.5 -36.35 Q27.95 -34.05 29.95 -31.25 L33.85 -25.6 36.0 -22.1 36.05 -21.9 36.1 -21.75 36.15 -21.55 36.3 -21.35 36.35 -21.15 36.4 -21.0 36.5 -20.8 36.6 -20.4 36.65 -20.25 36.85 -19.85 37.05 -19.5 37.25 -19.1 37.5 -18.75 37.6 -18.35 37.75 -18.0 37.9 -17.4 38.0 -17.05 38.2 -16.7 38.5 -16.1 38.8 -15.55 38.9 -15.35 39.0 -15.15 39.05 -15.0 39.1 -14.8 39.15 -14.6 39.3 -14.4 39.3 -14.25 39.35 -14.05 39.4 -13.85 39.5 -13.5 39.55 -13.3 39.6 -13.1 39.75 -12.9 39.85 -12.75 40.05 -12.35 40.1 -12.15 40.15 -12.0 40.6 -11.4 41.05 -10.7 41.45 -9.95 41.55 -9.75 41.6 -9.55 41.65 -9.35 41.75 -9.15 42.15 -8.85 42.65 -8.25 42.85 -7.85 43.05 -7.65 43.25 -7.5 43.4 -7.3 43.5 -7.1 43.6 -6.9 43.7 -6.75 43.8 -6.55 43.85 -6.35 43.9 -6.15 44.0 -6.0 44.05 -5.8 44.15 -5.6 44.25 -5.4 44.3 -5.25 44.35 -5.05 44.35 -4.85 44.35 -4.7 44.3 -4.5 44.25 -4.3 44.15 -4.1 44.05 -3.9 43.8 -3.75 43.35 -3.6 42.9 -3.75 42.65 -3.95 42.5 -4.1 42.3 -4.3 42.05 -4.6 41.85 -4.6 41.6 -4.6 41.15 -4.75 40.6 -4.9 40.3 -5.1 40.1 -5.3 39.95 -5.5 39.85 -5.65 39.8 -5.85 39.8 -6.05 39.8 -6.25 39.6 -6.6 39.4 -7.0 39.25 -7.35 39.05 -7.75 39.05 -7.9 39.0 -8.1 39.0 -8.3 38.9 -8.5 38.8 -8.65 38.75 -8.85 38.65 -9.05 38.6 -9.25 38.55 -9.4 38.4 -9.6 38.35 -9.8 38.3 -10.0 38.15 -10.15 38.1 -10.35 38.1 -10.55 38.1 -10.75 38.05 -10.9 38.0 -11.1 37.95 -11.3 37.9 -11.5 37.9 -11.65 37.9 -11.85 37.85 -12.05 37.75 -12.25 37.6 -12.6 37.45 -13.15 37.35 -13.75 37.15 -14.3 37.05 -14.5 37.0 -14.65 36.9 -14.85 36.8 -15.05 36.65 -15.25 36.45 -15.6 36.25 -16.0 36.05 -16.55 35.85 -17.3 35.6 -18.05 35.5 -18.4 35.35 -18.6 35.3 -18.8 35.15 -19.0 35.0 -19.35 34.9 -19.55 34.85 -19.75 34.8 -19.9 34.75 -20.1 34.6 -20.3 34.55 -20.5 34.5 -20.65 34.4 -20.85 34.35 -21.05 34.3 -21.25 34.1 -21.6 33.75 -22.15 33.45 -22.75 33.25 -23.1 33.15 -23.3 33.1 -23.5 30.45 -27.85 27.1 -32.5 24.25 -35.85 24.25 -36.25 24.25 -36.8 24.35 -37.35 24.55 -37.85 24.6 -37.9 24.85 -37.95 24.85 -38.0 25.15 -37.85" fill="#ffffff" fill-opacity="0.2" fill-rule="evenodd" stroke="none"/>
    <path d="M39.75 -12.55 L40.2 -11.8 40.5 -11.3 40.55 -11.25 40.85 -11.25 41.25 -11.1 41.4 -10.9 41.5 -10.75 41.5 -10.55 41.5 -10.35 41.5 -10.15 41.55 -10.0 41.65 -9.8 41.75 -9.6 41.85 -9.4 41.85 -9.3 41.9 -9.25 42.3 -9.1 42.55 -8.9 42.65 -8.75 42.75 -8.55 42.85 -8.35 42.9 -8.15 42.95 -8.0 43.05 -7.6 43.2 -7.05 43.3 -6.65 43.4 -6.5 43.5 -6.3 43.6 -6.1 43.65 -5.9 43.75 -5.75 43.8 -5.55 43.8 -5.35 43.8 -5.15 43.8 -5.0 43.8 -4.8 43.85 -4.6 43.9 -4.4 44.0 -4.25 44.05 -4.05 44.0 -3.85 43.9 -3.65 43.85 -3.5 43.6 -3.3 43.4 -3.15 43.1 -3.1 42.65 -3.25 42.3 -3.45 41.65 -3.8 41.4 -4.0 41.3 -4.2 41.2 -4.35 41.1 -4.55 40.85 -4.65 40.4 -4.8 40.15 -5.0 39.95 -5.15 39.4 -5.5 38.9 -5.75 38.65 -5.95 38.5 -6.1 38.3 -6.3 38.2 -6.5 38.1 -6.65 38.0 -6.85 37.9 -7.05 37.8 -7.25 37.75 -7.4 37.65 -7.6 37.35 -7.95 36.9 -8.55 36.3 -9.3 36.0 -9.65 35.9 -9.85 35.85 -10.05 35.8 -10.25 35.75 -10.4 35.65 -10.6 35.65 -11.0 35.65 -11.35 35.65 -11.9 35.7 -12.5 35.75 -12.65 35.8 -12.85 35.9 -13.05 35.9 -13.25 35.9 -13.4 35.9 -13.6 35.9 -14.0 35.9 -14.55 35.9 -14.75 36.0 -14.9 36.1 -15.1 36.3 -15.3 36.55 -15.4 36.85 -15.45 36.85 -15.5 37.3 -15.35 37.6 -15.2 38.0 -15.0 38.15 -14.8 38.25 -14.6 38.35 -14.4 38.45 -14.25 38.55 -14.05 38.6 -13.85 38.9 -13.65 39.25 -13.5 39.45 -13.1 39.75 -12.55" fill="#ffffff" fill-opacity="0.2" fill-rule="evenodd" stroke="none"/>
    <path d="M94.55 23.2 L89.6 23.15 82.9 22.75 82.65 22.6 82.4 22.35 82.3 22.2 82.4 22.05 82.75 21.95 83.05 22.1 83.6 22.05 95.35 21.7 97.1 21.7 97.55 21.85 100.35 21.95 100.75 22.1 100.9 22.25 101.05 22.45 101.1 22.65 101.1 22.85 101.25 23.05 101.35 23.2 101.4 23.4 101.4 23.6 101.4 23.75 101.4 23.95 101.4 24.3 101.35 24.5 101.3 24.7 101.2 24.9 101.1 25.05 100.9 25.45 100.6 26.0 100.55 26.2 100.5 26.4 100.4 26.6 100.35 26.75 100.2 26.95 100.05 27.15 99.9 27.35 99.8 27.5 99.6 27.9 99.55 28.1 99.5 28.25 99.4 28.45 99.35 28.65 99.25 28.85 99.15 29.0 99.05 29.2 98.9 29.4 98.8 29.6 98.55 29.75 98.1 29.9 97.65 29.75 97.4 29.55 97.25 29.4 97.2 29.2 97.15 29.0 97.15 28.85 97.15 28.45 97.15 27.9 97.15 27.5 97.25 27.35 97.35 27.15 97.4 26.95 97.4 26.75 97.45 26.6 97.5 26.4 97.55 26.2 97.65 26.0 97.75 25.85 97.85 25.65 97.9 25.45 97.9 25.25 97.9 25.1 97.9 24.9 97.9 24.5 97.9 24.15 97.8 24.0 97.4 23.75 97.05 23.65 95.1 23.45 94.7 23.3 94.55 23.2" fill="#ffffff" fill-opacity="0.2" fill-rule="evenodd" stroke="none"/>
    <path d="M95.25 8.9 L95.35 8.85 95.65 8.7 96.35 8.5 96.6 8.45 96.9 8.6 97.1 8.75 97.3 8.95 97.5 9.15 97.75 9.2 97.8 9.05 97.85 8.9 98.0 8.7 98.15 8.5 98.6 8.4 99.0 8.5 99.2 8.7 99.4 8.9 99.6 9.1 99.7 9.25 99.8 9.45 99.85 9.65 99.9 9.85 99.9 10.0 99.9 10.2 100.05 10.4 100.15 10.6 100.3 10.75 100.35 10.95 100.45 12.45 100.4 14.35 100.4 16.4 100.35 16.6 100.3 16.75 100.15 17.15 100.05 17.5 100.0 17.7 99.85 17.9 99.8 18.05 99.65 18.25 99.5 18.45 99.5 18.65 99.5 18.85 99.5 19.0 99.5 19.2 99.5 19.4 99.6 19.6 99.65 19.75 99.7 19.95 99.65 20.15 99.6 20.35 99.45 20.5 99.3 20.7 98.8 20.9 98.7 21.1 98.6 21.25 98.5 21.45 98.35 21.65 98.25 21.85 98.0 22.0 97.8 22.2 97.35 22.35 96.9 22.2 96.65 22.0 96.55 21.85 96.5 21.65 96.5 21.45 96.5 21.25 96.5 21.1 96.5 20.9 96.5 20.7 96.6 20.5 96.65 20.35 96.7 20.15 96.65 19.95 96.6 19.75 96.55 19.55 96.55 19.4 96.6 19.2 96.85 18.85 97.2 18.45 97.4 18.1 97.6 17.9 97.75 17.7 97.75 17.35 97.8 16.75 97.8 16.0 97.8 15.45 97.85 15.25 97.9 15.05 97.95 14.9 98.0 14.7 98.05 14.5 98.05 13.75 98.05 12.65 97.9 11.5 97.8 11.15 97.55 10.75 97.1 10.15 96.4 9.45 96.1 9.35 95.7 9.15 95.25 8.9" fill="#ffffff" fill-opacity="0.2" fill-rule="evenodd" stroke="none"/>
    <path d="M101.15 10.7 L101.2 10.9 101.25 11.1 101.25 11.25 101.25 11.65 101.2 12.0 101.15 12.2 101.1 12.4 101.0 12.6 100.85 12.75 100.8 12.95 100.6 13.35 100.25 13.7 99.95 14.05 99.05 14.8 98.65 15.0 98.35 15.1 97.85 15.2 97.65 15.35 97.35 15.35 97.1 15.4 96.65 15.25 96.4 15.05 96.25 14.9 95.65 14.7 95.4 14.5 95.3 14.35 95.25 14.15 95.25 13.95 95.25 13.75 95.25 13.6 95.25 13.2 95.25 13.0 95.3 12.85 95.35 12.65 95.4 12.45 95.5 12.25 95.55 12.1 95.6 11.9 95.85 11.5 96.15 11.15 97.1 10.4 97.4 10.2 97.8 10.1 98.05 10.0 98.3 9.95 98.8 9.7 99.1 9.65 99.6 9.65 100.0 9.75 100.55 9.95 100.8 10.15 100.95 10.35 101.1 10.5 101.15 10.7" fill="#ffffff" fill-opacity="0.2" fill-rule="evenodd" stroke="none"/>
    <path d="M-64.75 -34.6 L-64.6 -34.4 -64.5 -34.25 -64.65 -33.9 -65.1 -33.5 -65.35 -33.3 -72.85 -24.3 -80.35 -15.2 -85.1 -9.5 -86.6 -7.6 -86.9 -7.4 -87.65 -6.65 -88.05 -6.3 -88.45 -5.9 -88.7 -5.55 -88.95 -5.15 -89.1 -5.0 -89.2 -4.8 -89.35 -4.65 -89.4 -4.65 -89.65 -4.55 -89.95 -4.5 -90.15 -4.3 -90.4 -4.15 -90.6 -4.3 -90.45 -4.5 -90.3 -4.7 -90.15 -4.85 -90.15 -5.05 -90.15 -5.25 -89.9 -5.6 -89.65 -6.0 -89.4 -6.35 -89.25 -6.55 -82.75 -14.5 -76.15 -22.45 -72.45 -27.0 Q-71.3 -28.05 -70.3 -29.2 L-68.15 -31.7 -67.0 -33.0 -66.65 -33.15 -66.45 -33.35 -66.1 -33.75 -65.95 -33.85 -65.9 -33.9 -65.6 -34.05 -65.35 -34.25 -65.25 -34.4 -65.15 -34.55 -65.1 -34.6 -64.9 -34.6 -64.75 -34.6" fill="#ffffff" fill-opacity="0.2" fill-rule="evenodd" stroke="none"/>
    <path d="M-89.15 21.6 L-86.85 22.0 -86.7 22.2 -86.6 22.4 -86.6 22.55 -86.7 22.75 -86.75 22.9 -86.9 22.95 Q-93.65 23.7 -100.5 23.2 L-100.85 23.3 -101.15 23.4 -101.6 23.25 -101.7 23.1 -101.8 22.9 -101.85 22.7 -101.8 22.5 -101.7 22.35 -101.6 22.15 -101.1 21.95 -100.85 21.85 -100.7 21.75 -100.4 21.75 -94.65 21.65 -89.15 21.6" fill="#ffffff" fill-opacity="0.2" fill-rule="evenodd" stroke="none"/>
    <path d="M14.5 -34.4 L14.7 -25.75 15.05 -16.75 15.1 -11.5 14.95 -11.15 14.7 -10.8 14.35 -10.4 14.0 -10.15 13.35 -10.0 12.5 -10.25 12.0 -10.65 11.75 -11.0 Q11.45 -15.35 11.6 -19.65 L12.1 -28.65 12.25 -34.25 12.3 -34.65 12.5 -35.0 12.85 -35.25 13.35 -35.35 13.35 -35.4 14.0 -35.15 14.25 -34.75 14.5 -34.4" fill="#663333" fill-opacity="0.2" fill-rule="evenodd" stroke="none"/>
    <path d="M27.6 -12.9 L27.85 -12.5 28.0 -12.15 28.1 -11.75 28.25 -11.4 28.35 -11.0 28.5 -10.65 28.45 -10.25 28.35 -9.9 28.25 -9.5 28.1 -9.15 28.0 -8.75 28.0 -8.4 28.0 -8.0 28.0 -7.65 27.95 -7.25 27.85 -6.9 27.45 -6.15 27.1 -5.75 26.75 -5.4 26.35 -5.05 26.0 -4.75 25.35 -4.7 23.85 -4.65 23.0 -4.9 22.6 -5.25 Q20.8 -5.3 19.25 -6.15 L18.6 -6.5 18.35 -6.9 18.1 -7.25 17.9 -7.65 17.75 -8.0 17.65 -8.75 17.6 -9.15 17.6 -9.5 17.6 -9.9 17.65 -10.25 17.75 -11.0 18.35 -12.15 18.65 -12.5 19.0 -12.85 20.25 -13.65 20.75 -13.9 21.35 -14.0 22.25 -14.1 22.85 -14.2 22.85 -14.25 24.4 -14.05 25.25 -13.8 26.35 -13.5 27.25 -13.25 27.6 -12.9" fill="#663333" fill-opacity="0.2" fill-rule="evenodd" stroke="none"/>
    <path d="M24.35 -19.9 L26.35 -19.9 27.1 -19.65 27.6 -19.25 28.0 -18.9 28.35 -18.5 28.7 -18.1 28.85 -17.75 28.95 -17.4 29.0 -16.65 29.0 -15.5 28.95 -14.0 28.85 -13.25 28.7 -12.9 28.35 -12.55 28.0 -12.25 27.35 -12.2 25.85 -12.15 25.0 -12.4 24.85 -12.4 24.0 -12.65 23.45 -13.0 22.75 -13.45 21.75 -14.15 21.1 -14.5 20.85 -14.9 20.6 -15.25 20.6 -15.65 20.6 -16.0 20.6 -16.4 20.7 -16.75 21.15 -17.5 22.45 -18.7 23.5 -19.65 23.75 -19.75 24.35 -19.85 24.35 -19.9" fill="#663333" fill-opacity="0.2" fill-rule="evenodd" stroke="none"/>
    <path d="M-23.15 -32.05 L-22.5 -31.75 -22.15 -31.4 -21.95 -31.0 -21.9 -30.65 -21.9 -30.25 -21.85 -29.9 -21.65 -29.5 -21.5 -29.15 -21.45 -28.75 -21.4 -28.4 -21.4 -28.0 -21.25 -27.65 -20.9 -26.9 -20.65 -26.5 -20.5 -26.15 -20.25 -25.75 -20.15 -25.4 -20.0 -25.0 -19.9 -24.65 -19.75 -24.25 -19.65 -23.9 -19.5 -23.5 -19.5 -23.15 -19.5 -22.75 -19.5 -22.4 -19.5 -22.0 -19.1 -21.3 -18.65 -20.5 -18.25 -19.75 -17.9 -19.0 -17.75 -18.65 -17.5 -17.9 -17.4 -17.5 -17.25 -17.15 -17.15 -16.75 -17.0 -16.4 -17.0 -14.5 -17.0 -11.9 -16.95 -8.9 -17.15 -7.75 -17.3 -7.4 -17.65 -7.05 -18.0 -6.75 -18.65 -6.65 -19.15 -6.65 -20.0 -6.9 -20.4 -7.25 -20.65 -7.5 -20.8 -7.6 -21.75 -8.15 -22.8 -8.6 -23.5 -8.9 -23.9 -9.3 -24.15 -9.65 -24.25 -10.0 -24.25 -10.4 -24.25 -10.75 -24.4 -11.15 -24.65 -11.5 -24.75 -11.9 -24.75 -12.25 -24.75 -12.65 -24.75 -13.0 -24.75 -13.4 -24.85 -13.75 -25.0 -14.15 -25.15 -14.5 -25.25 -14.9 -25.25 -15.25 -25.25 -15.65 -25.4 -16.0 -25.5 -16.4 -25.65 -16.75 -25.75 -17.15 -25.75 -20.15 -25.75 -24.25 -25.75 -28.4 -25.75 -29.15 -25.85 -29.5 -26.4 -30.25 -26.75 -30.65 -27.1 -31.05 -27.25 -31.4 -27.25 -31.75 -27.25 -32.15 -27.15 -32.5 -26.9 -32.9 -26.65 -33.25 -26.25 -33.5 -25.65 -33.6 -25.65 -33.65 -24.9 -33.4 -24.55 -33.0 -24.25 -32.65 -23.55 -32.25 -23.15 -32.05" fill="#663333" fill-opacity="0.2" fill-rule="evenodd" stroke="none"/>
    <path d="M8.45 -36.75 L4.05 -36.75 Q-9.55 -36.9 -23.15 -36.4 L-19.4 -4.1 -21.15 -0.75 Q-22.3 1.45 -22.3 3.95 L-22.3 8.2 36.85 8.15 36.75 6.15 36.65 2.05 Q36.7 -0.2 35.95 -0.15 L35.85 -0.2 35.75 -1.0 35.5 -2.45 34.65 -4.8 20.35 -35.0 Q14.65 -37.0 8.45 -36.75 M0.15 -35.55 L4.1 -35.55 10.8 -35.5 15.45 -35.1 17.25 -34.5 18.9 -33.75 19.45 -33.55 21.9 -28.75 24.15 -24.05 26.55 -19.2 28.8 -14.4 30.9 -10.4 31.1 -9.95 31.1 -9.8 31.15 -9.75 31.15 -9.65 31.2 -9.6 31.2 -9.0 31.2 -8.7 31.2 -8.4 31.2 -8.0 31.15 -7.9 31.1 -7.75 31.05 -7.7 31.05 -7.6 31.0 -7.55 31.0 -7.5 30.95 -7.45 30.45 -6.35 30.15 -6.05 Q29.55 -5.6 27.9 -5.1 L22.65 -4.6 22.55 -4.6 22.0 -4.45 21.2 -4.45 15.15 -4.45 8.4 -4.45 4.15 -4.5 -1.35 -4.55 -6.85 -4.65 -12.4 -4.75 -14.5 -4.35 Q-16.0 -4.5 -17.25 -5.05 -18.05 -5.65 -18.15 -6.55 L-19.05 -14.3 -19.6 -19.45 -20.2 -24.65 -20.7 -29.05 -20.95 -31.1 Q-21.2 -32.35 -20.95 -33.8 L-20.35 -34.3 -18.95 -35.0 -18.1 -35.35 -17.3 -35.35 -13.9 -35.5 0.15 -35.55 M8.1 -34.75 L1.3 -34.8 -9.05 -34.7 -17.4 -34.45 -18.05 -34.45 -18.8 -34.25 -19.4 -33.95 -19.9 -33.5 -20.2 -32.85 -20.25 -32.05 -20.2 -31.6 -20.05 -31.0 -19.7 -28.75 -18.85 -22.75 -17.65 -12.55 Q-17.4 -9.35 -16.5 -6.4 -15.5 -5.65 -12.05 -6.05 L-12.6 -5.9 24.0 -6.0 25.75 -6.15 Q28.3 -6.35 29.65 -7.5 30.05 -8.35 29.9 -9.15 L29.55 -10.1 29.4 -10.65 23.4 -23.15 19.45 -31.0 17.6 -33.1 Q16.4 -33.95 14.85 -34.25 L11.9 -34.7 8.1 -34.75 M26.05 -37.05 L28.05 -34.0 31.55 -28.55 34.25 -24.3 37.0 -19.75 39.75 -15.1 41.1 -12.65 42.4 -10.2 43.7 -7.65 45.0 -5.1 57.3 -2.35 67.8 0.0 81.35 3.3 88.6 5.25 92.35 6.5 94.4 7.15 96.95 7.95 99.2 8.65 100.05 8.9 100.35 9.05 Q100.95 9.5 101.15 10.1 L101.3 11.2 101.25 12.85 101.0 15.8 100.7 18.15 100.45 19.45 100.2 20.8 100.25 20.85 100.6 21.6 100.45 21.75 99.75 22.2 98.55 22.2 95.1 22.15 93.0 22.05 89.9 22.05 86.7 21.95 85.7 21.95 84.6 21.95 82.5 21.95 81.7 21.95 82.85 25.4 90.25 25.15 90.7 25.5 90.25 25.8 85.65 25.9 84.7 25.9 83.7 25.9 83.0 25.95 83.05 26.15 83.4 27.85 98.0 27.8 98.05 25.65 93.05 25.15 93.25 24.9 93.75 24.6 95.45 24.45 98.2 24.3 99.25 24.3 100.25 24.4 100.4 24.65 100.45 24.7 100.5 24.5 100.65 23.8 100.7 23.05 100.7 22.25 Q100.75 21.8 100.95 21.4 L101.15 21.3 101.45 21.4 101.55 21.6 101.9 23.55 101.75 24.65 101.0 26.75 100.0 28.3 99.55 28.8 99.0 29.4 98.85 29.55 98.7 29.55 97.65 29.65 97.1 31.65 96.25 33.5 95.05 35.15 93.45 36.6 92.85 37.05 92.25 37.4 92.1 37.6 91.9 37.75 81.55 37.75 81.0 37.05 80.9 37.05 80.65 36.95 80.55 36.8 80.5 36.8 80.45 36.6 80.35 36.4 Q79.2 35.6 78.05 34.95 L77.35 34.6 Q75.85 33.45 73.95 33.4 L66.9 32.65 62.3 32.35 52.75 32.75 46.65 32.9 Q44.45 32.95 42.75 33.95 L41.15 34.85 Q39.45 35.9 38.2 37.5 37.25 38.7 37.0 40.15 L36.85 40.1 36.8 40.55 36.8 40.75 36.7 41.1 36.5 41.5 35.35 41.85 32.05 42.0 31.95 42.0 Q26.15 42.1 20.5 41.85 L12.95 41.8 7.75 41.75 -0.05 41.75 -9.75 41.75 -16.45 41.75 -21.0 41.75 -27.8 41.75 -32.3 41.75 -36.8 41.75 -41.4 41.75 -42.15 41.45 -42.95 41.0 -43.55 40.65 -43.7 40.45 -43.75 40.1 -44.0 40.15 Q-44.25 38.7 -45.2 37.5 -46.45 35.9 -48.15 34.85 L-49.75 33.95 Q-51.45 32.95 -53.65 32.9 L-59.75 32.75 -69.3 32.35 -73.9 32.65 -80.95 33.4 Q-82.85 33.45 -84.35 34.6 L-85.05 34.95 -86.5 35.85 -86.55 36.0 -86.6 36.3 -86.6 36.45 -86.6 36.55 -86.65 37.0 -86.75 37.0 -86.85 37.1 -86.9 37.2 -86.95 37.3 -87.65 37.45 -89.0 36.55 -90.6 35.2 -91.9 33.55 -92.35 32.65 -92.7 31.7 -92.95 30.7 -93.2 29.65 -99.25 29.45 -99.3 29.35 -100.45 27.65 -101.25 25.75 -101.55 24.35 -101.6 22.85 -101.5 22.1 -101.3 21.55 -101.0 21.25 -100.8 21.35 -100.45 24.65 -99.5 24.3 -97.6 24.35 -95.4 24.6 -95.1 24.6 -94.9 24.65 -94.75 24.9 -94.65 25.15 -94.7 25.25 -94.8 25.35 -95.4 25.6 -96.1 25.6 -97.45 25.6 -98.55 25.65 -98.45 27.8 -87.75 27.85 -87.3 25.9 -92.4 25.8 -92.75 25.4 -92.4 25.15 -87.15 25.4 -85.7 21.95 Q-87.35 21.8 -88.85 21.95 L-91.25 21.95 -94.6 22.05 -96.25 22.15 -98.4 22.2 -99.4 22.2 -99.85 22.2 -100.15 22.0 -100.5 21.8 -100.6 21.6 -100.6 21.4 -100.6 21.25 -100.5 21.05 -100.3 20.85 -100.05 20.7 -94.45 20.85 -94.65 20.45 -95.05 17.75 -95.6 13.75 -96.2 9.0 -96.5 6.85 -97.15 1.15 Q-97.25 -0.15 -96.95 -1.3 -96.1 -4.2 -94.45 -6.65 L-92.2 -9.8 -89.85 -12.7 -88.35 -14.5 -86.8 -16.35 -82.4 -21.05 -79.1 -24.5 -76.0 -27.9 -71.95 -32.0 -69.2 -34.65 -67.0 -36.5 -65.3 -37.6 -63.3 -38.45 -61.25 -39.05 -59.15 -39.45 -57.05 -39.7 -57.95 -39.7 -53.65 -40.35 -49.15 -40.85 -44.45 -41.15 -39.65 -41.25 -36.0 -41.45 -32.45 -41.65 -29.0 -41.8 -25.65 -41.95 -12.3 -41.95 Q-5.75 -41.8 0.75 -41.95 L11.05 -41.8 14.8 -41.7 19.75 -41.05 Q22.3 -40.6 24.2 -39.05 25.3 -38.2 26.05 -37.05 M22.7 -32.9 L25.45 -27.25 28.2 -21.45 31.0 -15.6 33.3 -10.6 36.2 -4.4 36.85 -3.25 Q37.5 -2.1 37.35 -0.5 L37.25 -0.05 38.0 8.15 39.9 8.15 45.5 8.15 49.3 8.15 55.3 8.25 59.7 8.25 64.1 8.2 73.3 8.15 86.4 8.3 91.9 8.65 92.35 9.05 38.05 9.4 Q38.6 15.7 38.1 22.1 L37.9 25.25 38.85 22.9 Q41.8 16.5 47.9 12.9 50.2 11.45 52.8 10.7 L56.3 9.95 Q53.3 11.2 50.5 12.85 47.8 14.3 45.55 16.4 43.1 18.7 41.3 21.5 39.75 23.9 38.55 26.55 L39.65 25.05 42.7 21.6 43.75 20.65 46.15 18.95 Q47.5 18.05 49.05 17.45 50.75 16.75 52.6 16.5 L56.7 15.7 61.35 15.6 65.6 16.05 69.2 17.2 Q72.4 18.25 74.85 20.45 77.15 22.6 79.05 25.0 L80.1 26.55 79.7 25.15 Q78.75 22.0 76.8 19.4 74.0 15.75 70.15 13.0 L67.95 11.4 69.85 12.45 73.4 14.95 76.55 18.05 Q80.6 22.75 81.5 28.75 L82.15 33.8 82.3 35.6 86.5 35.6 90.65 35.6 Q92.35 35.2 93.45 34.2 L94.6 33.0 95.9 30.65 96.4 29.65 81.85 29.0 80.7 22.6 80.25 21.9 79.65 21.65 79.5 21.45 79.4 21.3 79.45 21.2 Q79.8 20.9 80.25 20.75 L81.05 20.8 82.25 20.85 85.2 20.85 90.1 20.9 96.4 20.9 99.0 20.75 100.25 13.5 100.3 10.6 100.25 10.15 99.55 9.95 98.55 9.65 97.35 9.3 94.45 8.55 86.1 6.7 65.25 2.65 61.2 1.85 54.0 0.5 48.6 -0.5 45.0 -1.15 43.9 -1.35 42.45 -1.6 40.6 -2.25 39.2 -3.1 38.0 -4.25 37.65 -4.55 37.55 -4.75 35.0 -10.05 29.6 -21.0 23.6 -33.85 22.45 -36.55 23.05 -38.15 Q19.4 -39.9 15.45 -39.85 L9.65 -40.2 -0.7 -40.3 -7.3 -40.35 -13.85 -40.35 -17.2 -40.3 -22.5 -40.15 -26.7 -40.05 -31.8 -39.9 -37.65 -39.75 -44.1 -39.45 -49.85 -39.0 -54.75 -38.5 Q-59.5 -37.95 -64.0 -36.5 -65.05 -36.3 -65.9 -35.65 L-66.25 -35.35 -66.7 -35.4 -68.4 -33.6 -71.65 -30.25 -74.65 -27.25 -77.35 -24.55 -79.65 -22.05 -81.65 -19.9 -83.4 -18.05 -84.8 -16.5 -87.65 -13.2 -90.85 -9.25 -94.15 -4.75 Q-96.2 -1.85 -95.7 1.7 L-95.35 5.15 -95.25 6.65 -95.05 8.2 -93.6 8.2 -94.0 4.65 Q-94.2 2.55 -94.0 0.55 -93.9 -0.6 -93.4 -1.65 L-91.9 -4.45 -91.35 -5.4 -89.45 -8.1 -88.35 -9.55 -87.7 -10.35 -86.0 -12.5 -85.25 -13.5 -84.2 -14.85 -81.1 -18.3 -80.55 -18.9 -78.9 -20.65 -76.55 -23.25 -67.5 -32.95 -64.45 -35.7 -63.0 -36.6 -64.9 -34.6 -68.45 -30.85 -71.65 -27.45 -74.45 -24.35 -76.95 -21.65 -79.15 -19.25 -81.0 -17.15 -82.5 -15.45 -85.3 -12.05 -86.95 -10.1 Q-89.6 -7.0 -91.55 -3.3 L-92.55 -0.65 Q-93.0 1.25 -92.8 3.2 -92.55 5.3 -92.65 7.15 L-92.65 8.2 -23.4 8.2 Q-23.7 4.8 -22.85 1.65 L-21.85 -0.9 -20.0 -4.1 -24.2 -35.35 -24.0 -35.75 -24.1 -36.8 -22.95 -37.1 -17.4 -37.8 -12.8 -37.8 -7.5 -37.85 -1.9 -37.85 Q6.25 -38.2 14.45 -37.4 L18.55 -36.55 20.1 -36.15 21.15 -36.05 22.7 -32.9 M24.5 -37.4 L24.05 -37.35 23.85 -36.65 23.95 -36.1 26.65 -30.45 29.3 -25.0 33.35 -16.5 35.7 -11.5 Q37.2 -8.2 38.85 -4.95 41.15 -3.6 43.65 -4.6 L43.0 -5.9 40.95 -9.55 39.0 -13.35 36.6 -17.9 34.7 -21.15 31.6 -26.25 29.5 -29.5 24.5 -37.4 M40.85 -3.45 L40.3 -3.5 Q40.85 -3.1 41.5 -2.85 L46.0 -1.95 49.95 -1.15 55.5 -0.15 62.3 1.15 65.45 1.75 68.45 2.35 73.95 3.45 78.8 4.45 82.95 5.35 87.85 6.5 Q81.3 4.55 74.5 2.9 L69.15 1.6 63.6 0.2 59.75 -0.7 57.25 -1.25 54.85 -1.8 50.65 -2.7 47.35 -3.45 44.75 -4.05 Q43.3 -3.45 41.75 -3.35 L40.85 -3.45 M99.85 25.55 L99.3 25.65 99.4 26.15 99.8 25.65 99.85 25.55 M36.85 18.8 L36.95 14.15 36.9 9.4 -22.25 9.35 -20.55 28.25 36.2 28.25 36.6 23.55 36.85 18.8 M10.25 36.25 L23.0 35.85 29.25 35.7 29.2 35.55 29.2 35.35 Q29.25 35.15 29.45 35.1 29.9 34.95 30.05 35.35 L30.15 35.55 30.3 35.55 31.65 35.75 31.3 34.75 Q31.1 34.3 31.4 34.05 32.1 34.0 32.35 34.9 L32.5 35.5 32.65 35.85 35.35 36.05 36.1 32.35 -20.0 32.45 -19.6 35.75 3.6 36.85 -18.3 37.65 -15.8 39.4 Q-15.7 39.45 -15.75 39.6 -15.85 39.85 -16.15 39.6 -16.75 39.05 -17.7 39.1 L-17.95 39.1 Q-18.9 38.65 -19.5 37.7 L-38.25 37.35 -38.75 37.65 -38.8 37.4 -42.25 37.15 -42.45 39.45 Q-29.45 39.85 -16.45 39.75 L-11.95 39.75 -7.45 39.75 -2.65 39.75 15.55 39.7 27.65 39.6 32.45 39.55 35.35 39.6 35.3 37.55 33.65 37.6 33.2 38.0 32.9 37.65 30.65 38.05 Q30.55 37.95 30.5 38.15 L30.1 38.0 30.0 37.8 30.0 37.65 9.1 36.65 10.25 36.25 M-56.4 -33.05 L-56.45 -32.9 -58.65 -29.0 -62.1 -23.4 -64.45 -19.65 -66.75 -15.9 -67.95 -14.05 -68.4 -13.5 -68.55 -13.1 -68.65 -12.9 -69.25 -9.8 -69.05 -8.4 -68.4 -7.65 Q-67.7 -7.15 -66.85 -6.9 L-64.6 -6.2 -59.8 -6.05 -48.85 -6.05 -42.35 -6.2 -37.95 -6.25 -33.65 -6.25 -29.35 -6.25 -25.05 -6.3 -24.65 -6.05 -24.1 -6.4 -24.05 -7.35 Q-23.9 -10.1 -24.3 -12.65 L-25.0 -17.65 -25.65 -23.2 -26.25 -28.8 -26.65 -33.55 Q-27.45 -35.6 -29.8 -35.9 -32.25 -36.2 -34.9 -36.0 L-40.0 -35.75 -46.9 -35.25 -53.7 -33.95 -56.4 -33.05 M35.7 30.65 L36.1 29.35 -20.4 29.25 -20.25 30.65 35.7 30.65 M-55.25 -34.5 L-50.4 -35.85 -48.6 -36.0 -49.4 -36.0 -35.7 -37.1 Q-32.75 -37.6 -29.65 -37.15 L-28.9 -36.8 -28.15 -36.3 -26.65 -35.25 -26.25 -34.85 Q-25.2 -29.45 -24.55 -23.95 L-23.95 -18.45 -23.25 -13.0 -22.6 -7.05 -22.55 -6.7 Q-22.35 -5.75 -22.95 -5.0 -24.4 -4.05 -26.25 -4.3 L-35.7 -4.6 Q-39.0 -4.5 -42.1 -4.65 L-49.2 -4.75 -53.3 -4.75 -57.5 -4.7 -59.55 -4.65 Q-64.4 -4.45 -68.7 -6.45 -70.45 -7.25 -70.5 -9.1 -70.5 -11.15 -69.55 -13.0 L-69.05 -13.85 -67.9 -15.9 -65.7 -19.6 -63.5 -23.3 -61.15 -27.1 -58.8 -31.0 -57.55 -33.05 Q-57.0 -34.0 -55.25 -34.5 M-99.65 26.15 L-99.55 25.65 -99.95 25.65 -99.65 26.15 M-88.6 34.5 L-88.0 29.65 -91.95 29.65 -91.5 30.65 Q-90.65 33.15 -88.6 34.5 M-20.55 36.1 L-21.05 32.45 -42.85 32.15 -42.45 34.3 -42.4 34.15 -42.3 33.9 -42.15 33.55 -42.05 33.45 -41.9 33.35 -41.75 33.35 -41.65 33.55 Q-41.45 33.95 -41.65 34.3 L-42.35 35.25 -42.15 36.2 -41.25 36.05 -41.05 35.5 -41.0 35.3 -40.9 35.1 -40.75 34.75 -40.55 34.35 -40.1 33.4 Q-39.75 32.75 -39.0 32.85 L-38.95 33.05 -39.05 33.2 -39.25 33.45 -39.5 33.8 -39.7 34.2 -39.9 34.6 -40.0 34.75 -40.2 35.1 -40.5 36.05 -38.45 36.1 -38.45 35.8 -38.1 35.75 -37.5 35.6 -37.45 35.8 -37.55 35.95 -37.65 36.05 -20.55 36.1 M-21.3 30.65 L-21.5 29.25 -43.35 29.3 -43.2 30.9 -21.3 30.65 M-22.6 19.25 L-23.35 9.35 -92.3 9.2 -90.9 17.75 -92.55 17.75 -93.1 13.75 -93.65 9.2 -94.8 9.2 -92.9 20.85 -85.1 20.8 -83.4 18.5 Q-80.85 15.15 -77.1 13.0 L-75.85 12.3 -76.7 13.15 -78.1 14.35 Q-81.35 17.2 -83.95 20.9 L-84.05 21.65 -84.5 21.9 -85.0 23.7 -85.2 24.6 -83.6 22.8 -81.8 21.05 -80.1 19.7 -78.3 18.5 -76.35 17.5 -74.4 16.7 -72.25 16.1 -70.1 15.7 -67.85 15.45 -65.5 15.4 -63.15 15.55 -61.0 15.7 -58.95 16.1 -57.1 16.55 -55.35 17.2 -53.85 18.0 Q-52.5 18.75 -51.2 19.75 -49.4 21.1 -48.0 22.55 -46.1 24.35 -44.9 26.5 L-45.85 24.0 -47.0 21.5 -47.75 20.4 -49.55 18.2 -51.85 15.9 -54.55 13.75 Q-58.05 11.35 -62.05 10.0 L-60.4 10.15 -58.8 10.45 -57.2 10.95 -55.7 11.7 Q-54.1 12.6 -52.6 13.7 L-49.65 16.3 Q-46.4 19.5 -44.75 23.75 -43.85 26.15 -43.4 28.4 L-21.6 28.25 -22.6 19.25" fill="#333333" fill-rule="evenodd" stroke="none"/>
    <path d="M15.2 -34.9 L15.4 -34.8 15.55 -34.75 15.6 -34.65 15.65 -34.55 15.7 -34.45 16.1 -28.95 16.5 -23.25 16.8 -17.55 17.1 -11.85 17.4 -6.2 17.35 -6.1 17.35 -6.0 17.35 -5.9 17.3 -5.8 17.2 -5.75 17.15 -5.75 16.95 -5.7 16.75 -5.75 16.65 -5.85 16.5 -5.95 16.5 -6.05 16.1 -11.55 15.85 -17.2 15.55 -22.95 15.3 -28.65 15.1 -34.15 15.05 -34.25 14.95 -34.3 14.9 -34.4 14.85 -34.5 14.85 -34.55 14.9 -34.65 14.95 -34.75 15.05 -34.8 15.05 -34.85 15.2 -34.85 15.2 -34.9" fill="#333333" fill-rule="evenodd" stroke="none"/>
    <path d="M13.8 -34.4 L13.85 -34.5 13.9 -34.55 14.0 -34.6 14.15 -34.55 14.2 -34.45 14.25 -34.35 14.25 -34.25 14.3 -34.2 14.35 -34.15 14.4 -34.05 14.45 -33.95 14.5 -33.85 14.45 -33.75 14.45 -33.65 14.4 -33.45 14.35 -33.35 14.8 -27.75 15.15 -22.1 15.45 -16.4 15.8 -10.7 16.1 -5.65 16.05 -5.55 16.0 -5.45 16.0 -5.35 15.85 -5.25 15.75 -5.2 15.6 -5.15 15.4 -5.25 15.3 -5.35 15.2 -5.4 Q14.95 -8.2 14.85 -11.05 L14.6 -16.75 14.25 -22.4 14.0 -28.1 13.8 -33.55 13.8 -33.6 13.85 -33.7 13.9 -33.8 13.9 -33.9 13.85 -34.0 13.8 -34.1 13.8 -34.2 13.75 -34.25 13.8 -34.35 13.8 -34.4" fill="#333333" fill-rule="evenodd" stroke="none"/>
    <path d="M-6.9 1.0 L-6.55 1.05 -6.25 1.15 -6.1 1.35 -6.0 1.55 -5.95 1.7 -6.0 1.9 -6.05 2.1 -6.25 2.3 -17.9 2.4 -18.8 2.3 -19.0 2.1 -19.1 1.9 -19.2 1.7 -19.1 1.6 -18.75 1.45 -17.9 1.55 -17.55 1.45 -17.25 1.4 -16.95 1.35 -16.65 1.2 -7.15 0.95 -6.9 1.0" fill="#333333" fill-rule="evenodd" stroke="none"/>
    <path d="M-6.75 -1.6 L-6.55 -1.4 -6.55 -1.2 -6.6 -1.05 -6.85 -0.9 -18.3 -1.05 -18.4 -1.25 -18.45 -1.4 -18.15 -1.5 -8.4 -1.65 -6.75 -1.6" fill="#333333" fill-rule="evenodd" stroke="none"/>
    <path d="M-16.65 2.1 L-16.7 2.3 -16.75 2.4 -16.9 2.45 -17.15 2.55 -17.65 2.55 -18.75 2.05 -19.15 1.85 -19.5 1.65 -19.65 1.45 -19.7 1.3 -19.75 1.1 -19.9 0.9 -19.9 0.55 -19.85 0.15 -19.85 -0.05 -19.8 -0.4 -19.8 -0.6 -19.6 -0.95 -19.5 -1.15 -19.3 -1.35 -19.15 -1.55 -18.9 -1.65 -18.65 -1.65 -17.9 -1.75 -17.75 -1.8 -17.55 -1.6 -17.65 -1.4 -17.75 -1.2 -18.0 -1.05 -18.75 -0.85 -18.85 -0.65 -18.95 -0.45 -18.95 -0.3 -18.95 -0.1 -18.95 0.1 -18.9 0.3 -18.9 0.45 -18.6 0.8 -17.9 1.2 -17.65 1.35 -17.15 1.4 -16.8 1.55 -16.7 1.7 -16.6 1.9 -16.65 2.1" fill="#333333" fill-rule="evenodd" stroke="none"/>
    <path d="M-6.85 2.3 L-7.7 2.0 -8.2 1.7 -7.4 1.15 -6.55 0.85 -6.45 0.65 -6.35 0.1 -6.35 -0.45 -6.35 -1.2 -6.3 -1.4 -6.2 -1.6 -5.9 -1.7 -5.85 -1.7 -5.55 -1.6 -5.5 -1.4 -5.45 -1.2 -5.35 -1.05 -5.35 -0.65 -5.35 -0.1 -5.35 0.45 -5.35 0.65 -5.5 1.05 -5.7 1.4 -6.0 1.9 -6.15 1.95 -6.45 2.1 -6.6 2.2 -6.85 2.3" fill="#333333" fill-rule="evenodd" stroke="none"/>
    <path d="M-9.5 3.2 Q-9.45 3.55 -11.65 3.75 L-15.5 3.5 -17.95 2.55 -18.95 1.55 -18.75 0.6 -18.75 0.45 -18.65 0.4 -18.6 0.45 -18.5 0.6 -18.35 1.05 -17.55 1.95 Q-15.8 3.25 -13.5 2.95 L-9.5 3.2" fill="#333333" fill-rule="evenodd" stroke="none"/>
    <path d="M84.9 31.05 L84.65 31.0 84.15 30.9 83.7 30.8 83.45 30.6 83.35 30.4 83.25 30.25 83.25 30.05 83.3 29.85 83.35 29.65 83.45 29.5 83.7 29.3 84.15 29.15 85.9 29.15 85.9 29.1 96.65 29.1 97.1 29.25 97.35 29.4 97.45 29.6 97.5 29.8 97.55 30.0 97.55 30.15 97.5 30.35 97.4 30.55 97.25 30.75 97.1 30.85 96.95 30.9 Q91.1 31.2 85.15 31.0 L84.9 31.05" fill="#333333" fill-rule="evenodd" stroke="none"/>
    <path d="M-92.6 29.45 L-92.15 29.4 -92.15 29.35 -89.15 29.35 -87.65 29.4 -87.25 29.55 -87.0 29.7 -86.9 29.9 -86.85 30.1 -86.85 30.3 -86.9 30.45 -86.95 30.65 -87.15 30.85 -87.35 30.95 -87.65 31.05 -88.1 31.1 -88.4 31.15 -88.7 31.1 -89.15 31.1 -92.15 31.1 -92.6 30.95 -92.85 30.8 -92.95 30.6 -93.0 30.4 -93.0 30.2 -93.0 30.05 -92.95 29.85 -92.85 29.65 -92.6 29.45" fill="#333333" fill-rule="evenodd" stroke="none"/>
    <path d="M-95.15 25.4 L-95.0 25.6 -95.0 25.8 -94.95 25.95 -94.95 26.15 -94.95 26.35 -94.95 26.55 -94.9 26.55 -94.7 26.45 -94.6 26.3 -94.45 26.1 -94.4 25.9 -94.4 25.7 -94.25 25.55 -94.1 25.35 -93.9 25.15 -93.7 25.05 -93.4 25.0 -93.1 24.95 -92.95 24.95 -92.65 24.9 -92.65 24.85 -86.65 24.95 -85.95 25.05 -85.7 25.2 -85.6 25.4 -85.5 25.6 -85.45 25.8 -85.55 25.95 -85.65 26.15 -85.9 26.35 -86.1 26.45 -86.35 26.55 -86.65 26.6 Q-86.85 26.65 -86.95 26.8 L-87.0 26.9 -87.05 27.1 -87.1 27.3 -87.2 27.45 -87.4 27.65 -87.75 27.85 Q-88.75 28.5 -89.95 28.55 L-90.4 28.6 -90.9 28.6 -91.35 28.45 -91.5 28.35 -91.9 28.35 -92.35 28.3 -92.45 28.4 -92.6 28.45 -92.9 28.5 -93.9 28.55 -94.35 28.4 -94.5 28.2 -94.65 28.2 -95.4 28.15 -95.85 28.05 -96.0 27.9 -96.4 28.05 -96.65 27.95 -96.95 27.85 -97.15 27.65 -97.3 27.5 -97.45 27.25 -97.7 26.9 -97.75 26.7 -97.8 26.55 -97.8 26.35 -97.8 26.15 -97.75 25.95 -97.65 25.8 -97.4 25.6 -97.1 25.8 -97.05 25.95 -97.0 26.15 -96.95 26.35 -96.9 26.55 -96.75 26.6 -96.7 26.4 -96.7 26.2 -96.7 26.05 -96.6 25.85 -96.55 25.65 -96.5 25.45 -96.3 25.3 -96.15 25.15 -95.9 25.1 -95.65 25.1 -95.35 25.2 -95.15 25.4" fill="#333333" fill-rule="evenodd" stroke="none"/>
    <path d="M90.1 36.1 L89.7 35.7 89.4 35.55 89.1 35.35 88.9 35.15 88.65 34.95 88.2 34.8 88.05 34.6 88.05 34.4 88.15 34.2 88.4 34.1 88.65 34.05 89.05 34.15 90.25 34.95 91.25 35.8 91.85 36.8 91.75 36.95 91.65 37.05 91.4 37.15 91.1 37.05 90.85 36.85 90.45 36.45 90.1 36.1" fill="#333333" fill-rule="evenodd" stroke="none"/>
    <path d="M89.3 32.45 L90.35 33.1 91.35 33.65 92.6 34.4 92.8 34.6 93.05 34.8 93.35 34.95 93.45 35.15 93.35 35.3 93.15 35.45 92.8 35.35 91.2 34.5 89.6 33.55 88.85 32.7 88.95 32.6 89.15 32.5 89.3 32.45" fill="#333333" fill-rule="evenodd" stroke="none"/>
    <path d="M92.75 32.9 L92.95 33.1 93.1 33.2 93.15 33.25 93.45 33.45 93.55 33.55 93.4 33.6 93.05 33.7 92.7 33.7 92.55 33.55 92.35 33.35 92.1 32.95 92.2 32.85 92.4 32.75 92.55 32.7 92.75 32.9" fill="#333333" fill-rule="evenodd" stroke="none"/>
    <path d="M-5.5 26.8 L-5.6 26.8 Q-18.25 27.45 -30.9 26.9 L-31.2 26.75 -31.25 26.65 -31.1 26.6 -30.9 26.55 -28.4 26.5 -26.4 26.45 -26.4 26.4 -8.85 26.35 -5.5 26.8" fill="#333333" fill-rule="evenodd" stroke="none"/>
    <path d="M-93.95 18.15 L-93.35 18.05 -93.3 18.0 -93.2 17.95 -93.05 17.95 -92.55 17.85 -92.4 17.75 -92.3 17.65 -92.35 17.6 -92.4 17.5 -92.4 17.4 -92.45 17.3 -92.45 17.2 -92.5 17.1 -92.5 17.05 -92.4 16.9 -92.3 16.9 -92.2 16.9 -92.05 16.9 -92.05 16.85 -91.9 16.9 -91.75 17.0 -91.7 17.1 -91.6 17.05 -91.55 17.05 -91.4 17.0 -91.25 17.1 -91.15 17.2 -91.1 17.25 -91.1 17.35 -91.1 17.45 -91.1 17.55 -91.05 17.65 -91.05 17.75 -91.0 17.85 -91.0 17.9 -91.0 18.0 -91.0 18.1 -91.05 18.2 -91.1 18.3 -91.15 18.4 -91.35 18.5 -91.45 18.6 -91.6 18.65 -91.9 18.75 -91.95 18.85 -92.0 18.85 -92.2 18.95 -92.4 19.0 -93.9 18.95 -94.15 18.9 -94.2 18.8 -94.25 18.7 -94.3 18.6 -94.3 18.5 -94.25 18.45 -94.1 18.25 -94.05 18.15 -93.95 18.15" fill="#333333" fill-rule="evenodd" stroke="none"/>
    <path d="M-92.45 11.95 L-92.3 12.05 -92.25 12.1 -92.3 12.15 -92.45 12.25 -92.55 12.3 -92.65 12.35 -92.85 12.4 -92.95 12.45 -93.05 12.5 -93.25 12.4 -95.15 12.35 -95.35 12.3 -95.4 12.2 -95.45 12.1 -95.45 12.0 -95.4 11.95 -95.35 11.85 -95.3 11.85 -95.15 11.8 -92.9 11.8 -92.65 11.85 -92.5 11.9 -92.45 11.95" fill="#333333" fill-rule="evenodd" stroke="none"/>
    <path d="M-92.0 13.15 L-92.0 13.25 -92.05 13.35 -92.15 13.4 -92.4 13.45 -92.65 13.5 -94.05 13.5 -94.25 13.45 -94.3 13.35 -94.35 13.25 -94.35 13.15 -94.3 13.1 -94.25 13.0 -94.2 13.0 -94.05 12.95 -93.55 12.95 -92.65 13.0 -92.1 13.1 -92.0 13.15" fill="#333333" fill-rule="evenodd" stroke="none"/>
    <path d="M-88.25 16.65 L-88.05 16.85 -88.0 17.05 -88.0 17.2 -88.0 17.6 -88.0 17.8 -88.1 17.95 -88.2 18.15 -88.25 18.35 -88.25 18.55 -88.4 18.7 -88.5 18.9 -88.75 18.9 -88.9 18.7 -89.0 18.55 -89.0 18.35 -89.0 18.15 -88.95 17.95 -88.85 17.8 -88.75 17.6 -88.75 17.4 -88.75 17.2 -88.75 17.05 -88.75 16.85 -88.65 16.7 -88.55 16.7 -88.4 16.65 -88.25 16.65" fill="#333333" fill-rule="evenodd" stroke="none"/>
    <path d="M-85.5 14.55 L-85.3 14.75 -85.2 14.9 -85.2 15.1 -85.25 15.3 -85.4 15.45 -85.55 16.2 -85.85 17.15 -86.05 18.1 -86.2 18.3 -86.2 18.45 -86.2 18.65 -86.2 18.85 -86.2 19.05 -86.25 19.2 -86.4 19.35 -86.55 19.2 -86.55 19.05 -86.55 18.85 -86.55 18.65 -86.6 18.5 -86.65 18.3 -86.45 17.35 -86.1 16.2 -85.8 15.3 -85.8 15.1 -85.85 14.7 -85.8 14.6 -85.5 14.55" fill="#333333" fill-rule="evenodd" stroke="none"/>
    <path d="M-13.25 1.55 L-13.0 1.7 -12.9 1.9 -12.8 2.1 -12.85 2.3 -12.85 2.45 -12.95 2.65 -13.15 2.85 -13.3 2.95 -13.6 3.05 -18.3 2.85 -18.5 2.65 -18.6 2.45 -18.6 2.3 -18.6 2.1 -18.55 1.9 -18.45 1.75 -18.3 1.6 -18.2 1.55 -17.85 1.5 -17.4 1.45 -17.35 1.4 -13.6 1.4 -13.25 1.55" fill="#333333" fill-rule="evenodd" stroke="none"/>
    <path d="M40.65 -4.45 L39.9 -4.95 39.9 -6.1 44.05 -9.3 45.4 -9.85 46.2 -9.15 40.65 -4.45" fill="#333333" fill-rule="evenodd" stroke="none"/>
    <path d="M11.35 -12.6 L12.0 -12.5 Q12.6 -10.1 12.55 -7.45 L12.3 -3.4 11.75 -2.9 11.35 -3.0 11.0 -3.4 10.95 -11.0 10.95 -12.0 11.35 -12.6" fill="#333333" fill-rule="evenodd" stroke="none"/>
    <path d="M14.8 -7.7 Q15.3 -6.55 14.9 -5.4 L14.1 -4.15 13.9 -3.65 13.25 -3.7 12.45 -4.85 Q12.35 -6.15 13.0 -7.25 L13.4 -7.85 14.45 -7.95 14.8 -7.7" fill="#333333" fill-rule="evenodd" stroke="none"/>
    <path d="M14.05 -10.35 L13.55 -10.75 13.4 -10.95 Q12.5 -11.0 11.8 -11.9 L11.4 -12.5 Q12.55 -12.6 13.7 -11.9 L14.85 -11.3 15.5 -8.65 15.8 -7.85 15.8 -6.0 Q14.7 -3.5 12.5 -3.7 11.45 -3.6 11.15 -4.3 L11.1 -4.45 11.15 -4.65 11.3 -5.05 13.45 -5.35 Q14.3 -5.8 14.6 -6.95 L14.75 -7.3 Q14.3 -8.35 14.15 -9.4 L14.1 -10.1 14.05 -10.35" fill="#333333" fill-rule="evenodd" stroke="none"/>
    <path d="M14.2 -7.0 Q15.35 -5.5 14.55 -3.9 L14.05 -3.15 Q12.4 -1.55 10.9 -3.05 12.65 -3.3 14.15 -4.5 L13.85 -5.95 Q13.7 -6.35 14.0 -6.8 L14.2 -7.0" fill="#333333" fill-rule="evenodd" stroke="none"/>
    <path d="M-42.6 29.1 L-41.55 29.05 -41.0 29.0 -40.0 29.0 -39.15 29.2 -38.65 29.4 -38.5 29.5 -38.25 29.65 -38.0 29.85 -37.75 30.05 -37.7 30.15 -37.65 30.25 -37.65 30.35 -37.65 30.4 -37.65 30.5 -37.65 30.6 -37.7 30.7 -37.75 30.8 -37.9 30.9 -38.05 31.0 -38.2 31.1 -38.3 31.15 -38.35 31.15 -39.1 31.25 -39.35 31.35 -39.5 31.4 -40.25 31.55 -44.0 31.15 -44.1 31.05 -44.2 30.95 -44.25 30.85 -44.25 30.65 -44.25 30.6 -44.25 30.5 -44.25 30.4 -44.25 30.3 -44.25 30.1 -44.2 30.0 -44.15 29.9 -44.1 29.85 -44.0 29.75 -43.95 29.65 -43.75 29.55 -43.6 29.45 -43.5 29.35 -43.2 29.25 -42.6 29.1" fill="#333333" fill-rule="evenodd" stroke="none"/>
    <path d="M-33.95 30.2 L-33.85 30.35 -33.85 30.45 -33.85 30.55 -33.85 30.65 -33.85 30.75 -33.85 30.85 -33.85 30.9 -33.85 31.0 -33.85 31.1 -33.9 31.2 -33.9 31.3 -33.95 31.4 -34.0 31.5 -34.1 31.55 -34.25 31.65 -34.4 31.75 -34.55 31.85 -34.75 31.9 -35.75 31.9 -36.0 31.85 -36.15 31.9 -36.25 32.0 -36.3 32.1 -36.35 32.1 -36.5 32.15 -36.6 32.15 -36.75 32.2 -37.0 32.2 -37.25 32.15 -37.35 32.05 -37.4 31.95 -37.4 31.85 -37.35 31.7 -37.35 31.4 -37.35 31.0 -37.35 30.65 -37.3 30.55 -37.25 30.45 -37.15 30.35 -37.1 30.25 -37.05 30.15 -37.0 30.1 -36.9 30.0 -36.7 29.9 -36.5 29.85 -36.35 29.85 -36.15 29.85 -36.05 29.75 -35.9 29.65 -35.75 29.65 -34.85 29.65 -34.65 29.7 -34.3 29.9 -33.95 30.2" fill="#333333" fill-rule="evenodd" stroke="none"/>
    <path d="M33.6 29.4 L34.35 29.35 34.55 29.3 34.65 29.2 34.8 29.15 34.85 29.1 35.0 29.1 36.0 29.1 36.2 29.15 36.3 29.25 36.4 29.35 36.45 29.4 36.5 29.5 36.5 29.6 36.55 29.7 36.6 29.8 36.6 29.9 36.6 30.0 36.6 30.1 36.6 30.25 36.55 30.35 36.55 30.45 36.5 30.55 36.45 30.65 36.4 30.85 36.35 30.9 36.3 31.0 36.1 31.1 35.9 31.2 35.8 31.3 35.6 31.35 35.25 31.4 35.15 31.5 35.0 31.5 34.6 31.5 34.4 31.45 34.25 31.4 34.05 31.35 33.95 31.25 33.85 31.15 33.75 31.05 33.6 30.95 33.35 30.85 33.25 30.75 33.2 30.65 33.15 30.6 33.15 30.4 33.15 30.1 33.15 29.85 33.15 29.75 33.2 29.65 33.25 29.55 33.35 29.45 33.6 29.4" fill="#333333" fill-rule="evenodd" stroke="none"/>
    <path d="M32.3 29.5 L32.45 29.6 32.5 29.65 32.6 29.75 32.55 29.85 32.5 29.9 32.35 30.0 32.35 30.1 32.35 30.2 32.35 30.3 32.35 30.5 32.35 30.6 32.4 30.65 32.45 30.75 32.5 30.85 32.55 30.95 32.6 31.05 32.6 31.15 32.6 31.25 32.6 31.35 32.55 31.4 32.5 31.5 32.35 31.6 32.2 31.5 32.1 31.4 32.0 31.3 31.85 31.15 31.75 30.95 31.7 30.85 31.7 30.75 31.65 30.65 31.65 30.6 31.65 30.4 31.65 30.2 31.65 30.0 31.7 29.85 31.7 29.75 31.8 29.65 31.85 29.55 31.9 29.5 31.95 29.45 32.1 29.45 32.1 29.4 32.3 29.5" fill="#333333" fill-rule="evenodd" stroke="none"/>
    <path d="M39.05 25.25 L38.6 24.5 38.55 24.4 38.55 24.3 38.55 24.2 38.65 24.1 38.75 24.05 38.85 24.05 38.85 24.0 39.0 24.1 39.15 24.15 39.9 25.1 40.75 25.95 41.25 26.6 41.4 26.7 41.5 26.8 41.55 26.9 41.6 27.0 41.6 27.1 41.55 27.15 41.5 27.25 41.35 27.3 41.25 27.3 41.1 27.25 41.0 27.15 40.8 27.1 39.95 26.15 39.05 25.25" fill="#333333" fill-rule="evenodd" stroke="none"/>
    <path d="M40.25 22.7 L40.45 22.75 41.4 23.85 42.3 25.0 42.85 25.75 42.85 25.85 42.85 25.95 42.85 26.05 42.9 26.15 42.95 26.25 42.9 26.3 42.75 26.4 42.6 26.35 42.55 26.25 42.45 26.15 42.3 26.05 42.2 25.95 42.15 25.85 42.05 25.75 42.0 25.65 41.85 25.6 41.2 24.75 40.5 23.9 40.05 23.35 40.05 23.25 40.0 23.15 39.95 23.05 39.95 22.95 40.0 22.85 40.1 22.75 40.25 22.7" fill="#333333" fill-rule="evenodd" stroke="none"/>
    <path d="M41.1 21.5 L41.3 21.6 41.45 21.65 41.5 21.75 41.65 21.95 41.75 22.15 41.85 22.35 41.85 22.4 41.9 22.5 41.95 22.6 42.25 23.1 42.75 23.7 42.95 24.3 43.0 24.4 43.1 24.6 43.25 24.75 43.35 24.95 43.3 25.0 43.15 24.95 42.95 24.65 42.8 24.5 42.75 24.45 42.6 24.4 42.25 23.95 41.8 23.25 41.45 22.8 41.45 22.7 41.4 22.6 41.35 22.5 41.3 22.4 41.2 22.25 41.0 21.95 40.9 21.75 40.9 21.7 40.95 21.6 41.1 21.55 41.1 21.5" fill="#333333" fill-rule="evenodd" stroke="none"/>
    <path d="M44.6 22.5 L44.8 22.7 44.9 22.8 45.0 23.0 45.05 23.1 45.05 23.15 45.1 23.25 45.2 23.35 45.3 23.45 45.25 23.5 45.1 23.45 45.0 23.35 44.9 23.35 44.75 23.35 44.6 23.3 44.2 22.95 43.5 22.5 42.7 22.0 42.6 21.9 42.55 21.8 42.55 21.7 42.55 21.6 42.65 21.5 42.75 21.45 42.85 21.45 42.85 21.4 43.05 21.5 43.55 21.75 44.05 22.05 44.45 22.35 44.6 22.5" fill="#333333" fill-rule="evenodd" stroke="none"/>
    <path d="M-84.05 21.4 L-83.95 21.5 -83.9 21.6 -83.85 21.7 -83.85 21.8 -83.85 21.9 -83.8 22.0 -83.8 22.1 -83.8 22.15 -83.75 22.25 -83.7 22.35 -83.65 22.45 -83.1 23.0 -82.45 23.6 -82.25 23.75 -82.15 23.75 -81.95 23.8 -81.85 23.9 -81.85 24.0 -81.8 24.1 -81.8 24.15 -81.75 24.25 -81.8 24.35 -81.8 24.45 -81.85 24.55 -81.95 24.65 -82.15 24.7 -82.35 24.65 -82.5 24.55 -82.75 24.35 -82.95 24.15 -83.1 24.05 -83.2 24.0 -83.35 23.9 -83.45 23.8 -83.5 23.7 -83.55 23.75 -83.6 23.85 -83.65 23.95 -83.7 24.0 -83.75 24.05 -83.9 24.1 -84.25 24.05 -84.4 24.1 -84.4 24.15 -84.4 24.25 -84.4 24.35 -84.45 24.45 -84.45 24.55 -84.5 24.6 -84.65 24.7 -84.8 24.65 -84.85 24.55 -84.9 24.25 -84.95 23.8 -84.95 23.4 -84.95 23.35 -84.95 23.25 -84.9 23.15 -84.8 23.05 -84.7 23.0 -84.6 22.95 -84.5 22.9 -84.35 22.95 -84.25 23.0 -84.25 22.9 -84.3 22.8 -84.45 22.6 -84.5 22.5 -84.5 22.4 -84.55 22.35 -84.6 22.25 -84.6 22.15 -84.6 22.05 -84.6 21.95 -84.6 21.85 -84.6 21.75 -84.6 21.65 -84.6 21.6 -84.5 21.5 -84.45 21.4 -84.4 21.4 -84.25 21.35 -84.05 21.4" fill="#333333" fill-rule="evenodd" stroke="none"/>
    <path d="M-83.75 21.05 L-83.65 21.0 -83.5 21.05 -83.35 21.15 -83.25 21.25 -83.2 21.35 -83.2 21.4 -82.35 22.2 -81.5 23.0 -80.95 23.6 -80.95 23.65 -80.95 23.75 -80.9 23.85 -80.85 23.95 -80.9 24.0 -81.0 23.95 -81.05 23.85 -81.1 23.75 -81.25 23.75 -81.4 23.65 -81.5 23.55 -81.6 23.5 -81.65 23.5 -81.8 23.4 -81.9 23.35 -82.0 23.25 -82.1 23.15 -82.2 23.05 -82.35 22.95 -82.8 22.5 -83.35 22.0 -83.75 21.55 -83.8 21.45 -83.85 21.35 -83.9 21.25 -83.9 21.15 -83.85 21.1 -83.75 21.05" fill="#333333" fill-rule="evenodd" stroke="none"/>
    <path d="M-82.5 19.7 L-82.4 19.7 -82.4 19.65 -82.25 19.75 -82.15 19.85 -82.1 19.9 -82.1 20.0 -82.05 20.1 -81.45 20.8 -80.85 21.3 -80.45 21.6 -80.3 21.8 -80.0 22.1 -79.75 22.25 -79.65 22.35 -79.6 22.45 -79.55 22.55 -79.55 22.65 -79.6 22.75 -79.5 22.85 -79.6 22.9 -79.65 22.95 -79.75 22.95 -79.9 22.9 -80.1 22.85 -80.5 22.55 -80.9 22.2 -80.95 22.1 -81.9 21.35 -82.5 20.7 -82.75 20.35 -82.75 20.25 -82.75 20.15 -82.7 20.05 -82.7 19.95 -82.7 19.85 -82.6 19.75 -82.5 19.7" fill="#333333" fill-rule="evenodd" stroke="none"/>
    <path d="M-70.35 14.6 L-70.35 14.65 -70.25 15.5 -70.15 16.35 -70.0 16.9 -70.0 17.1 -70.0 17.3 -70.0 17.5 -70.0 17.6 -70.0 17.65 -69.9 17.85 -69.8 18.05 -69.85 18.15 -69.9 18.25 -69.85 18.35 -69.85 18.4 -69.85 18.5 -69.85 18.6 -69.95 18.6 -70.0 18.5 -70.0 18.4 -70.1 18.25 -70.3 17.95 -70.35 17.75 -70.45 17.65 -70.45 17.5 -70.45 17.3 -70.45 17.1 -70.45 17.0 -70.55 16.65 -70.6 16.25 -70.7 16.0 -70.7 15.6 -70.65 15.25 -70.65 14.95 -70.7 14.85 -70.75 14.75 -70.7 14.65 -70.65 14.6 -70.55 14.5 -70.4 14.5 -70.35 14.6" fill="#333333" fill-rule="evenodd" stroke="none"/>
    <path d="M-69.0 13.35 L-68.9 13.35 -68.8 13.4 -68.75 14.75 -68.65 16.05 -68.5 16.9 -68.5 17.0 -68.45 17.15 -68.45 17.35 -68.4 17.45 -68.45 17.55 -68.45 17.75 -68.45 17.9 -68.45 18.0 -68.45 18.1 -68.5 18.2 -68.6 18.3 -68.6 18.4 -68.6 18.6 -68.6 18.65 -68.6 18.75 -68.7 18.75 -68.7 18.65 -68.7 18.6 -68.7 18.5 -68.7 18.4 -68.7 18.3 -68.75 18.2 -68.85 18.1 -68.85 18.0 -68.85 17.9 -68.85 17.85 -68.85 17.75 -69.15 16.15 -69.25 14.45 -69.15 13.4 -69.1 13.35 -69.0 13.35" fill="#333333" fill-rule="evenodd" stroke="none"/>
    <path d="M-18.15 -1.05 L-18.1 -1.1 -18.05 -1.15 -17.95 -1.15 -17.75 -1.1 -17.7 -1.0 -17.7 -0.9 -17.65 -0.85 -17.65 -0.75 -17.65 -0.65 -17.65 -0.55 -17.65 -0.45 -17.7 -0.35 -17.7 -0.25 -17.7 0.2 -17.7 0.75 -17.7 1.25 -17.65 1.35 -17.6 1.45 -17.6 1.5 -17.5 1.6 -17.5 1.7 -17.45 1.8 -17.4 1.9 -17.35 2.0 -17.25 2.2 -17.25 2.25 -17.15 2.35 -17.1 2.45 -17.15 2.5 -17.35 2.6 -17.5 2.5 -17.7 2.4 -17.8 2.35 -17.95 2.15 -18.1 1.95 -18.1 1.85 -18.15 1.75 -18.25 1.6 -18.3 1.5 -18.35 0.9 -18.35 0.25 -18.35 -0.2 -18.3 -0.3 -18.3 -0.4 -18.25 -0.5 -18.2 -0.6 -18.2 -0.65 -18.2 -0.75 -18.2 -0.85 -18.2 -0.95 -18.15 -1.05" fill="#333333" fill-rule="evenodd" stroke="none"/>
    <path d="M-16.6 -0.35 L-16.5 -0.45 -16.4 -0.55 -16.3 -0.6 -16.2 -0.6 -16.2 -0.65 -15.85 -0.6 -15.75 -0.5 -15.75 -0.4 -15.8 -0.3 -16.0 -0.2 -16.1 -0.1 -16.1 0.0 -16.2 0.1 -16.25 0.15 -16.3 0.25 -16.4 0.65 -16.5 1.1 -16.5 1.75 -16.5 2.15 -16.5 2.25 -16.55 2.35 -16.6 2.4 -16.7 2.5 -16.85 2.55 -16.95 2.45 -17.0 2.35 -17.05 2.1 -17.05 1.7 -17.05 1.25 -17.05 0.85 -17.0 0.75 -16.95 0.5 -16.9 0.3 -16.8 0.0 -16.75 -0.1 -16.7 -0.15 -16.65 -0.25 -16.6 -0.35" fill="#333333" fill-rule="evenodd" stroke="none"/>
    <path d="M-14.35 0.1 L-14.3 0.2 -14.25 0.3 -14.25 0.4 -14.3 0.5 -14.35 0.6 -14.45 0.65 -14.5 0.75 -14.5 0.95 -14.5 1.25 -14.5 1.5 -14.5 1.7 -14.55 1.8 -14.6 1.9 -14.6 2.0 -14.7 2.1 -14.85 2.1 -14.95 2.0 -15.0 1.9 -15.05 1.8 -15.05 1.5 -15.05 1.15 -15.05 0.75 -15.0 0.6 -15.0 0.5 -14.85 0.3 -14.7 0.1 -14.5 0.05 -14.35 0.1" fill="#333333" fill-rule="evenodd" stroke="none"/>
    <path d="M50.5 12.15 L50.55 12.35 50.6 12.6 50.6 12.9 50.65 13.0 50.7 13.1 50.75 13.2 50.75 13.25 50.8 13.45 50.9 13.65 51.0 13.85 50.95 13.9 50.9 14.0 50.85 14.1 50.8 14.2 50.7 14.25 50.5 13.95 50.3 13.7 50.25 13.5 50.25 13.4 50.25 13.3 50.2 13.2 50.1 13.1 50.05 12.85 50.1 12.55 50.15 12.25 50.15 12.2 50.2 12.1 50.35 12.05 50.4 12.05 50.5 12.15" fill="#333333" fill-rule="evenodd" stroke="none"/>
    <path d="M51.2 15.2 L51.25 15.1 51.3 15.0 51.5 14.95 51.65 15.0 51.7 15.1 51.8 15.2 51.8 15.25 51.8 15.35 51.8 15.45 51.8 15.55 51.95 15.75 52.05 15.95 52.1 16.0 52.15 16.1 52.2 16.2 52.2 16.3 52.25 16.4 52.55 16.95 52.9 17.5 53.1 17.9 53.15 18.0 53.2 18.1 53.2 18.2 53.25 18.25 53.3 18.35 53.3 18.45 53.3 18.55 53.35 18.65 53.45 18.75 53.5 18.95 53.55 19.0 53.55 19.1 53.55 19.2 53.55 19.3 53.55 19.4 53.6 19.5 53.6 19.6 53.55 19.7 53.45 19.7 53.35 19.6 53.3 19.5 53.3 19.4 53.05 19.1 52.8 18.75 52.6 18.45 52.6 18.35 52.55 18.25 52.55 18.2 52.5 18.1 52.15 17.5 51.85 16.95 51.6 16.6 51.6 16.5 51.55 16.4 51.55 16.3 51.5 16.2 51.45 16.1 51.4 16.05 51.35 15.95 51.3 15.85 51.25 15.75 51.2 15.65 51.2 15.45 51.2 15.25 51.2 15.2" fill="#333333" fill-rule="evenodd" stroke="none"/>
    <path d="M96.95 26.8 L97.0 26.7 97.05 26.6 97.1 26.5 97.15 26.45 97.25 26.35 97.4 26.35 97.6 26.4 97.65 26.5 97.7 26.6 97.75 26.7 97.75 26.75 97.7 26.85 97.65 26.95 97.45 27.7 97.45 28.65 97.45 29.4 97.45 29.5 97.5 29.6 97.6 29.8 97.6 29.85 97.6 29.95 97.55 30.05 97.35 30.1 97.3 30.15 97.1 30.1 97.05 30.0 96.9 29.8 96.7 29.6 96.65 29.05 96.7 28.4 96.7 27.65 96.7 27.55 96.75 27.35 96.8 27.2 96.85 27.1 96.9 27.0 96.95 26.9 96.95 26.8" fill="#333333" fill-rule="evenodd" stroke="none"/>
    <path d="M14.65 -34.4 L14.75 -34.4 14.9 -34.4 15.15 -34.35 15.3 -34.2 15.35 -34.15 15.3 -34.05 15.25 -33.95 15.25 -33.85 15.3 -33.75 15.35 -33.6 15.35 -33.5 15.35 -33.3 15.3 -33.0 15.35 -32.9 15.3 -32.85 15.25 -32.75 15.2 -32.65 15.15 -32.6 15.0 -32.55 14.75 -32.55 14.55 -32.65 14.5 -32.65 14.25 -32.7 14.0 -32.75 13.95 -32.85 13.85 -32.95 13.8 -33.05 13.8 -33.15 13.8 -33.25 13.8 -33.35 13.8 -33.4 13.85 -33.5 13.85 -33.6 13.85 -33.7 13.9 -33.8 13.95 -33.9 13.95 -34.0 13.95 -34.1 14.0 -34.15 14.05 -34.25 14.45 -34.35 14.65 -34.35 14.65 -34.4" fill="#333333" fill-rule="evenodd" stroke="none"/>
    <path d="M14.9 -31.9 L15.5 -31.9 15.8 -31.85 15.85 -31.75 15.9 -31.65 15.85 -31.55 15.8 -31.45 15.65 -31.4 14.5 -31.4 14.35 -31.45 14.25 -31.55 14.25 -31.65 14.25 -31.7 14.35 -31.85 14.5 -31.9 14.9 -31.9" fill="#333333" fill-rule="evenodd" stroke="none"/>
    <path d="M-80.1 -17.85 L-80.15 -17.9 -80.1 -18.0 -80.05 -18.1 -80.0 -18.15 -79.9 -18.2 -79.75 -18.15 -79.65 -18.05 -79.55 -17.95 -79.4 -17.85 -79.3 -17.8 -79.25 -17.75 -79.15 -17.75 -79.05 -17.7 -78.85 -17.65 -78.75 -17.55 -78.55 -17.45 -78.5 -17.4 -78.4 -17.3 -78.2 -17.2 -78.05 -17.1 -77.95 -17.0 -77.85 -16.9 -77.8 -16.8 -77.8 -16.7 -77.85 -16.65 -77.9 -16.6 -78.0 -16.55 -78.15 -16.5 -78.3 -16.55 -78.4 -16.65 -78.6 -16.75 -78.75 -16.85 -78.85 -16.95 -78.95 -17.05 -79.1 -17.15 -79.25 -17.2 -79.4 -17.3 -79.55 -17.35 -79.75 -17.45 -79.8 -17.55 -79.9 -17.65 -80.0 -17.7 -80.1 -17.85" fill="#333333" fill-rule="evenodd" stroke="none"/>
    <path d="M-79.3 -19.25 L-79.1 -19.2 -78.9 -19.1 -78.8 -19.0 -78.65 -18.9 -78.55 -18.8 -78.4 -18.75 -78.35 -18.75 -78.15 -18.7 -78.0 -18.65 -77.9 -18.55 -77.9 -18.45 -77.9 -18.35 -78.0 -18.25 -78.05 -18.15 -78.15 -18.15 -78.25 -18.15 -78.4 -18.2 -78.55 -18.25 -78.75 -18.35 -78.9 -18.45 -78.95 -18.55 -79.05 -18.65 -79.15 -18.7 -79.35 -18.8 -79.5 -18.9 -79.55 -19.0 -79.55 -19.1 -79.5 -19.2 -79.3 -19.25" fill="#333333" fill-rule="evenodd" stroke="none"/>
    <path d="M29.05 -9.55 L29.05 -9.15 29.05 -8.8 29.05 -8.4 28.85 -8.05 28.55 -7.5 28.3 -7.1 28.1 -6.75 27.9 -6.55 Q27.0 -5.85 25.85 -5.75 24.2 -5.6 22.6 -5.75 L22.2 -5.9 21.55 -6.25 21.35 -6.4 21.3 -6.6 21.25 -6.8 21.25 -7.0 21.15 -7.15 21.05 -7.35 21.0 -7.75 21.0 -8.1 21.0 -8.5 21.0 -8.85 21.0 -9.25 21.55 -10.15 22.45 -11.05 Q23.3 -11.75 24.3 -12.25 L26.1 -12.35 26.5 -12.25 26.75 -12.05 26.85 -11.85 27.1 -11.65 27.4 -11.55 27.8 -11.4 28.1 -11.25 28.3 -11.05 28.55 -10.85 28.8 -10.65 28.9 -10.5 29.0 -10.3 29.0 -9.9 29.05 -9.55" fill="#333333" fill-rule="evenodd" stroke="none"/>
    <path d="M25.05 -16.75 L25.35 -16.75 25.35 -16.8 25.6 -16.8 26.0 -16.65 26.15 -16.5 26.3 -16.3 26.35 -16.1 26.35 -15.9 26.35 -15.55 26.35 -15.0 26.3 -14.8 26.2 -14.6 26.1 -14.4 25.9 -14.05 25.55 -13.5 25.3 -13.3 25.05 -13.1 24.5 -12.75 24.1 -12.6 23.85 -12.6 23.4 -12.75 23.25 -12.9 22.75 -13.1 22.55 -13.3 22.4 -13.5 22.35 -13.7 22.35 -13.85 22.35 -14.05 22.35 -14.25 22.35 -14.4 22.45 -14.6 22.55 -14.8 22.6 -15.0 22.6 -15.15 22.7 -15.35 22.8 -15.55 23.75 -16.15 24.8 -16.65 25.05 -16.75" fill="#333333" fill-rule="evenodd" stroke="none"/>
  </g>
</svg>
