<?xml version="1.0" encoding="UTF-8" standalone="no"?>
<svg xmlns:xlink="http://www.w3.org/1999/xlink" height="77.0px" width="30.65px" xmlns="http://www.w3.org/2000/svg">
  <g transform="matrix(1.0, 0.0, 0.0, 1.0, 1.0, 1.0)">
    <path d="M22.85 6.15 L20.5 4.05 18.85 2.7 17.0 1.3 17.1 1.95 17.6 3.95 17.75 5.0 17.75 6.1 17.85 9.1 17.9 13.05 18.0 17.05 21.45 16.35 24.95 15.35 27.0 15.0 28.65 13.95 28.45 12.5 26.8 9.95 Q26.3 9.1 23.65 6.8 L22.85 6.15 M17.0 1.3 L16.9 1.2 14.95 4.65 13.5 7.3 11.0 11.5 9.45 14.2 7.5 18.0 7.0 19.0 9.45 19.35 12.4 18.45 15.5 17.6 18.0 17.05 18.0 18.5 18.0 21.5 17.85 24.9 17.65 27.95 17.3 30.7 16.85 33.7 16.2 37.7 15.4 41.65 14.6 45.5 14.1 47.4 13.3 50.4 12.25 54.45 10.7 59.1 9.5 61.85 7.75 65.45 5.9 68.95 5.2 70.1 3.8 72.65 2.55 73.7 0.0 75.0 M17.0 1.3 L17.0 1.0 16.9 1.2 15.5 0.0" fill="none" stroke="#ffffff" stroke-linecap="round" stroke-linejoin="round" stroke-width="2.0"/>
  </g>
</svg>
