<?xml version="1.0" encoding="UTF-8" standalone="no"?>
<svg xmlns:xlink="http://www.w3.org/1999/xlink" height="270.8px" width="108.9px" xmlns="http://www.w3.org/2000/svg">
  <g transform="matrix(1.0, 0.0, 0.0, 1.0, 32.3, 129.55)">
    <path d="M10.3 -108.7 L-23.75 -108.7 -23.75 -128.7 10.3 -128.7 10.3 -108.7" fill="#ffcc66" fill-rule="evenodd" stroke="none"/>
    <path d="M-28.5 -125.05 L-28.0 -125.15 -28.0 -125.2 -27.55 -125.05 -27.3 -124.85 -27.1 -124.7 -26.55 -124.5 -26.3 -124.3 -26.15 -124.25 -26.1 -124.35 -26.05 -124.55 -25.9 -124.75 -25.65 -124.95 -25.25 -125.05 -24.8 -124.95 -24.55 -124.75 -24.35 -124.55 -24.25 -124.35 -24.15 -124.2 -24.1 -124.0 -24.1 -123.8 -24.1 -123.6 -24.0 -123.45 -23.85 -123.05 -23.8 -122.85 -23.75 -122.7 -23.55 -122.1 -23.35 -121.55 -23.35 -121.0 -23.35 -120.45 -23.35 -119.7 -23.35 -119.3 -23.4 -118.75 -23.4 -118.55 -23.35 -118.35 -23.3 -118.2 -23.35 -118.0 -23.4 -117.8 -23.5 -117.65 -23.75 -117.45 -24.1 -117.25 -24.3 -117.1 -24.4 -117.05 -24.75 -117.0 -25.15 -117.1 -25.5 -117.15 -26.25 -117.25 -26.65 -117.35 -26.9 -117.55 -27.1 -117.75 -27.15 -117.95 -27.2 -118.1 -27.25 -118.3 -27.35 -118.5 -27.4 -118.7 -27.45 -118.85 -27.5 -119.05 -27.6 -119.25 -27.65 -119.45 -27.75 -119.6 -27.85 -119.8 -27.95 -120.0 -28.05 -120.2 -28.15 -120.35 -28.35 -120.75 -28.4 -120.95 -28.4 -121.1 -28.4 -121.3 -28.4 -121.5 -28.5 -121.7 -28.55 -121.85 -28.6 -122.05 -28.75 -122.25 -28.8 -122.45 -28.85 -122.6 -28.9 -122.8 -28.9 -123.0 -28.95 -123.35 -28.95 -123.55 -28.95 -124.1 -28.9 -124.5 -28.85 -124.7 -28.75 -124.85 -28.5 -125.05" fill="#a28c88" fill-rule="evenodd" stroke="none"/>
    <path d="M-13.9 -122.25 L-13.8 -122.05 -13.75 -121.85 -13.7 -121.7 -13.65 -121.5 -13.55 -121.3 -13.5 -121.1 -13.45 -120.95 -13.4 -120.55 -13.4 -120.2 -13.4 -119.6 -13.4 -119.05 -13.5 -118.9 -13.6 -118.7 -13.75 -118.5 -13.75 -118.3 -13.8 -118.1 -13.9 -117.95 -14.05 -117.75 -14.1 -117.55 -14.15 -117.35 -14.3 -117.2 -14.5 -117.0 -14.65 -116.8 -14.9 -116.6 -15.1 -116.5 -15.5 -116.45 -16.95 -116.6 -18.15 -116.85 -18.4 -117.05 -18.6 -117.25 -18.95 -117.65 -19.15 -118.0 -19.2 -118.2 -19.25 -118.35 -19.4 -118.55 -19.6 -118.75 -19.65 -118.95 -19.65 -119.5 -19.65 -120.25 -19.65 -121.2 -19.65 -121.35 -19.6 -121.55 -19.45 -121.75 -19.3 -121.95 -19.05 -122.05 -18.75 -122.15 -18.0 -122.45 -17.5 -122.8 -17.0 -122.95 -16.8 -122.95 -16.5 -122.95 -16.5 -123.0 -15.25 -123.0 -14.85 -122.85 -14.65 -122.75 -14.35 -122.6 -14.1 -122.45 -13.9 -122.25" fill="#a28c88" fill-rule="evenodd" stroke="none"/>
    <path d="M-3.8 -128.85 L-2.5 -128.85 -2.0 -128.95 -1.55 -128.8 -1.3 -128.6 -1.15 -128.45 -1.05 -128.25 -0.95 -128.05 -0.85 -127.85 -0.6 -127.7 -0.4 -127.5 -0.35 -127.3 -0.3 -127.1 -0.2 -126.95 -0.2 -126.75 -0.2 -126.55 -0.2 -126.35 -0.2 -126.2 -0.3 -126.0 -0.35 -125.8 -0.45 -125.65 -0.6 -125.45 -0.6 -125.25 -0.55 -125.05 -0.45 -124.85 -0.45 -123.95 -0.45 -123.2 -0.45 -122.45 -0.45 -122.25 -0.45 -121.7 -0.45 -121.1 -0.55 -120.95 -0.6 -120.75 -0.65 -120.55 -0.7 -120.35 -0.7 -120.2 -0.7 -120.0 -0.7 -119.8 -0.7 -119.6 -0.7 -119.45 -0.7 -119.3 -0.5 -119.05 -0.2 -118.85 -0.1 -118.7 0.0 -118.5 0.1 -118.3 0.05 -118.1 0.05 -117.95 -0.05 -117.75 -0.15 -117.55 -0.35 -117.4 -0.55 -117.25 -3.5 -117.2 -4.0 -117.3 -4.2 -117.5 -4.4 -117.7 -4.65 -118.05 -4.75 -118.25 -4.75 -118.35 -4.75 -118.4 -5.0 -118.45 -5.5 -118.55 -5.75 -118.75 -5.85 -118.95 -6.0 -119.1 -6.1 -119.3 -6.2 -119.5 -6.3 -119.7 -6.7 -120.25 -7.0 -120.8 -7.25 -121.2 -7.5 -121.55 -7.6 -121.75 -8.0 -122.85 -8.25 -123.6 -8.4 -124.2 -8.5 -124.55 -8.85 -125.7 -8.9 -125.85 -8.9 -126.45 -8.9 -127.0 -8.9 -127.35 -8.95 -127.75 -9.0 -128.3 -8.9 -128.5 -8.85 -128.7 -8.75 -128.85 -8.5 -129.05 -8.0 -129.25 -7.8 -129.35 Q-7.65 -129.45 -7.55 -129.5 L-7.25 -129.55 -6.8 -129.45 -6.6 -129.25 -6.5 -129.05 -6.35 -128.85 -6.1 -128.8 -5.85 -128.85 -5.35 -129.0 -5.1 -129.1 -4.7 -129.15 -4.5 -129.2 -4.05 -129.05 -3.8 -128.85" fill="#a28c88" fill-rule="evenodd" stroke="none"/>
    <path d="M31.25 -107.9 L31.25 139.85 27.9 139.85 26.9 139.4 26.15 139.2 24.0 138.9 24.1 136.7 24.2 136.65 24.35 135.85 24.35 134.95 24.35 134.45 24.3 134.35 24.2 134.25 24.05 134.1 23.95 134.0 23.75 133.95 23.6 133.85 23.35 133.8 23.35 133.85 23.2 133.85 22.95 133.95 22.8 134.0 22.7 134.1 22.6 134.25 22.5 134.3 22.45 134.45 22.45 134.6 22.4 134.65 22.4 134.95 22.3 135.85 22.2 135.85 22.15 135.9 22.1 136.0 22.05 136.1 22.05 136.2 22.0 136.35 21.9 136.5 21.9 136.55 21.8 136.65 21.3 137.5 20.65 138.6 20.25 139.4 20.2 139.45 19.85 139.4 19.75 139.45 19.75 -107.9 31.25 -107.9" fill="#b7ae9d" fill-rule="evenodd" stroke="none"/>
    <path d="M12.95 -117.2 L12.95 -121.95 5.1 -121.95 5.1 -117.2 12.95 -117.2" fill="#a6b8bf" fill-rule="evenodd" stroke="none"/>
    <path d="M13.0 -118.45 L16.75 -118.25 21.4 -118.3 25.15 -118.3 25.65 -118.35 26.05 -118.55 26.55 -118.8 26.8 -119.1 27.0 -119.7 26.7 -120.55 26.25 -120.8 25.75 -121.05 21.6 -121.05 16.9 -121.05 13.2 -121.05 12.75 -120.9 12.25 -120.7 11.95 -120.3 11.9 -119.7 11.75 -119.7 12.05 -118.95 12.55 -118.6 13.0 -118.45" fill="#a6b8bf" fill-rule="evenodd" stroke="none"/>
    <path d="M24.2 -119.15 L24.1 -119.15 24.1 -108.85 24.35 -108.55 24.75 -108.4 25.15 -108.3 25.5 -108.25 25.85 -108.25 26.25 -108.3 26.6 -108.3 27.0 -108.45 27.25 -108.6 27.3 -108.85 27.35 -119.15 27.1 -119.5 26.75 -119.65 26.35 -119.7 26.0 -119.8 25.6 -119.8 25.25 -119.75 24.9 -119.7 24.25 -119.4 24.2 -119.15" fill="#a6b8bf" fill-rule="evenodd" stroke="none"/>
    <path d="M29.4 -95.75 L30.0 -95.45 30.4 -95.05 30.65 -94.7 30.75 -94.3 30.75 -93.95 30.75 -93.6 30.75 -93.2 30.8 -92.85 30.9 -92.45 30.85 -92.1 30.8 -91.7 30.75 -91.35 30.75 -90.95 30.75 -90.6 30.75 -89.85 30.7 -89.45 30.55 -89.05 30.35 -88.75 30.15 -88.45 29.9 -88.35 29.4 -88.25 24.0 -88.1 23.25 -87.85 22.4 -87.8 21.75 -87.7 20.9 -87.95 20.5 -88.35 20.15 -88.7 19.9 -89.1 19.75 -89.45 19.75 -89.85 19.8 -90.2 20.0 -90.6 20.25 -90.95 20.25 -91.35 20.25 -91.7 20.25 -92.45 20.25 -93.6 20.25 -95.1 20.25 -95.45 20.4 -95.8 20.65 -96.2 20.9 -96.45 21.15 -96.55 21.75 -96.65 21.75 -96.7 22.5 -96.45 28.25 -96.2 29.0 -95.95 29.4 -95.75" fill="#a6b8bf" fill-rule="evenodd" stroke="none"/>
    <path d="M-28.4 -125.6 L-28.2 -125.9 -27.5 -126.7 -27.15 -127.1 -26.75 -127.45 -26.4 -127.7 -17.75 -127.85 -17.0 -127.6 -16.4 -127.6 -15.9 -127.8 -14.15 -128.5 -13.65 -128.7 -13.4 -128.8 -12.8 -128.9 -12.75 -128.95 -11.9 -128.7 -11.55 -128.3 -11.25 -127.95 -10.65 -127.85 -9.75 -127.95 -8.9 -127.7 -8.55 -127.3 -8.25 -126.95 -8.15 -126.6 -8.0 -126.2 -7.9 -125.85 -7.65 -125.45 -7.6 -125.1 -7.55 -124.7 -7.5 -124.35 -7.25 -123.95 -7.15 -123.6 -7.05 -123.2 -7.0 -122.85 -6.6 -122.1 -6.15 -121.3 -5.95 -121.0 -5.45 -120.2 -5.0 -119.45 -5.0 -119.1 -4.85 -118.75 -4.5 -118.35 -4.15 -117.95 -3.9 -117.7 -3.75 -117.65 -1.4 -117.2 -1.0 -116.85 -0.5 -116.45 -0.3 -116.05 -0.15 -115.7 -0.05 -115.35 0.0 -114.6 0.0 -114.2 0.0 -113.85 0.0 -113.45 -0.05 -112.7 -0.15 -112.35 -0.3 -111.95 -0.5 -111.6 -0.5 -111.2 -0.5 -110.85 -0.5 -110.45 -0.65 -110.1 -0.9 -109.75 -1.3 -109.35 -1.65 -109.1 -2.25 -109.0 -2.75 -108.95 -3.25 -108.95 -4.15 -109.2 -5.25 -109.05 -19.9 -108.7 -20.75 -108.45 -21.65 -108.7 -22.15 -109.1 -22.5 -109.5 -22.75 -109.85 -23.0 -110.2 -23.0 -110.6 -23.0 -111.35 -23.0 -111.7 -23.0 -112.1 -23.0 -112.45 -23.0 -113.2 -23.0 -113.6 -22.85 -113.95 -22.65 -114.35 -22.65 -114.65 -22.9 -115.1 -23.5 -115.45 -23.75 -115.85 -24.25 -115.95 -25.25 -115.95 -26.15 -116.2 -26.65 -116.6 -26.9 -116.95 -27.15 -117.35 -27.4 -117.7 -27.4 -118.1 -27.4 -118.85 -27.4 -119.2 -27.4 -119.6 -27.4 -119.95 -27.4 -120.35 -27.55 -120.7 -27.75 -121.1 -27.9 -121.45 -28.15 -121.85 -28.4 -122.2 -28.4 -122.6 -28.4 -123.35 -28.4 -123.7 -28.4 -124.1 -28.4 -124.45 -28.4 -125.2 -28.4 -125.6" fill="#663333" fill-opacity="0.2" fill-rule="evenodd" stroke="none"/>
    <path d="M-29.7 -125.45 L-29.4 -125.85 -29.15 -126.1 -28.9 -126.15 -28.3 -126.25 -28.25 -126.35 -27.5 -126.1 -27.0 -125.7 -26.65 -125.65 -25.75 -125.7 -25.25 -125.7 -24.5 -125.45 -24.15 -125.05 -23.9 -124.7 -23.75 -123.6 -23.75 -122.85 -23.75 -121.7 -23.75 -119.85 -23.8 -119.5 -24.15 -118.7 -24.4 -118.35 -24.8 -118.0 -25.15 -117.7 -25.75 -117.6 -26.4 -117.75 -27.15 -117.95 -27.5 -118.35 -27.75 -118.7 -27.75 -119.1 -27.75 -119.45 -27.75 -119.85 -27.9 -120.2 -28.15 -120.6 -28.25 -120.95 -28.4 -121.35 -28.5 -121.7 -28.75 -122.1 -28.9 -122.45 -29.15 -122.8 -29.5 -123.2 -29.75 -123.6 -29.85 -123.95 -29.9 -124.35 -29.9 -124.7 -29.9 -125.1 -29.7 -125.45" fill="#663333" fill-opacity="0.2" fill-rule="evenodd" stroke="none"/>
    <path d="M-24.0 -125.35 L-23.95 -125.65 -23.6 -126.05 -23.25 -126.35 -22.75 -126.45 -21.75 -126.45 -20.75 -126.35 -20.15 -126.45 -19.75 -126.85 -19.4 -127.2 -18.9 -127.45 -18.3 -127.5 -18.25 -127.6 -14.25 -127.6 -13.4 -127.3 -12.65 -126.95 -12.0 -126.6 -11.25 -126.45 -10.9 -126.7 -10.4 -126.95 -9.75 -127.1 -8.9 -126.85 -8.4 -126.45 -8.15 -126.1 -8.0 -125.7 -7.9 -125.35 -7.9 -124.95 -7.5 -124.6 -7.15 -124.2 -6.75 -123.85 -6.65 -123.45 -6.5 -123.1 -6.4 -122.7 -6.4 -122.35 -6.4 -121.95 -6.4 -121.6 -6.4 -121.2 -6.4 -120.85 -6.4 -120.1 -6.2 -119.75 -5.65 -119.3 -5.15 -118.95 -4.9 -118.6 -4.65 -118.2 -4.4 -117.85 -4.3 -117.45 -4.25 -117.1 -4.25 -116.7 -4.25 -116.35 -4.25 -115.95 -4.4 -115.6 -4.65 -115.2 -4.9 -114.85 -5.4 -114.45 -6.25 -114.2 -6.75 -114.2 -7.25 -114.2 -7.75 -114.2 -8.9 -114.5 -9.65 -114.7 -10.15 -114.45 -11.15 -114.2 -11.65 -113.95 -12.25 -113.85 -13.25 -113.6 -13.75 -113.2 -14.4 -112.85 -14.9 -112.6 -15.15 -112.45 -15.75 -112.35 -16.75 -112.35 -17.65 -112.6 -18.15 -113.0 -18.5 -113.35 -18.9 -113.7 -19.0 -114.1 -19.1 -114.45 -19.15 -114.85 -19.25 -114.95 -19.65 -114.7 -20.05 -114.35 -20.4 -114.1 -20.65 -114.0 -21.25 -113.85 -21.75 -113.85 -22.65 -114.1 -23.15 -114.5 -23.45 -114.85 -23.65 -115.2 -23.6 -115.6 -23.5 -117.1 -23.5 -118.95 -23.5 -121.6 -23.5 -123.45 -23.65 -123.85 -23.75 -124.2 -23.9 -124.6 -24.0 -124.95 -24.0 -125.35" fill="#663333" fill-opacity="0.2" fill-rule="evenodd" stroke="none"/>
    <path d="M-6.3 -126.45 L-6.15 -126.1 -6.1 -125.7 -6.15 -125.35 -6.25 -124.95 -6.5 -124.6 -6.45 -124.25 -6.25 -123.85 -6.4 -123.45 -6.5 -123.1 -6.65 -122.7 -6.75 -122.35 -6.9 -121.95 -7.15 -121.6 -7.4 -121.35 -7.65 -121.2 -8.25 -120.95 -8.65 -120.7 -9.65 -120.45 -10.0 -120.1 -10.65 -119.85 -11.25 -119.75 -11.75 -119.7 -12.65 -119.9 -12.9 -119.85 -13.15 -119.75 -13.75 -119.6 -14.75 -119.6 -15.65 -119.85 -16.0 -120.2 -16.25 -120.6 -16.4 -120.95 -16.5 -121.25 -17.15 -121.7 -18.0 -121.45 -18.4 -121.2 -18.65 -121.15 -23.75 -120.95 -24.65 -121.2 -25.15 -121.6 -25.4 -121.95 -25.5 -122.35 -25.5 -122.7 -25.5 -123.45 -25.5 -124.2 -25.5 -124.6 -25.35 -124.95 -25.15 -125.35 -24.65 -125.7 -24.0 -126.1 -23.85 -126.45 -23.65 -126.85 -23.15 -127.2 -22.3 -127.4 -22.25 -127.45 -7.75 -127.45 -6.9 -127.2 -6.55 -126.8 -6.3 -126.45" fill="#663333" fill-opacity="0.2" fill-rule="evenodd" stroke="none"/>
    <path d="M14.0 -119.1 L14.05 -118.7 14.0 -118.35 13.85 -117.95 13.5 -117.6 12.85 -117.25 12.25 -116.95 7.75 -116.95 7.0 -117.2 6.6 -117.6 6.25 -117.65 5.75 -117.6 5.0 -117.85 4.75 -118.2 4.5 -118.6 4.35 -118.95 4.35 -119.35 4.4 -119.7 4.6 -120.1 5.0 -120.35 5.1 -120.4 5.7 -120.5 5.75 -120.6 11.75 -120.6 12.45 -120.3 12.75 -120.15 13.5 -119.85 13.8 -119.45 14.0 -119.1" fill="#663333" fill-opacity="0.2" fill-rule="evenodd" stroke="none"/>
    <path d="M14.5 -118.6 L14.35 -118.2 14.1 -117.85 13.35 -117.45 12.75 -117.2 12.25 -117.25 10.85 -117.35 10.5 -117.1 9.75 -116.85 8.25 -116.85 7.35 -117.1 7.1 -117.45 6.9 -117.85 6.85 -118.2 6.9 -118.55 7.1 -118.95 7.25 -119.3 7.5 -119.6 7.75 -119.7 8.25 -119.8 9.1 -119.95 9.75 -120.1 13.25 -119.95 13.85 -119.7 14.2 -119.3 14.45 -118.95 14.5 -118.6" fill="#663333" fill-opacity="0.2" fill-rule="evenodd" stroke="none"/>
    <path d="M-23.15 -125.2 L-23.15 -125.6 -22.9 -125.95 -22.65 -126.35 -21.75 -126.7 -20.75 -127.25 -20.4 -127.45 -19.8 -127.5 -19.75 -127.6 -19.0 -127.35 -18.65 -126.95 -9.25 -126.6 -8.5 -126.35 -8.2 -125.95 -8.0 -125.6 -7.9 -125.2 -7.9 -124.85 -7.9 -124.45 -7.85 -124.1 -7.75 -123.7 -7.6 -123.35 -7.25 -122.6 -7.0 -122.2 -6.65 -121.85 -6.25 -121.45 -6.1 -121.1 -5.9 -120.7 -5.6 -120.35 -5.25 -119.95 -5.1 -119.6 -4.6 -118.85 -4.25 -118.45 -3.95 -118.05 -3.75 -117.7 -3.6 -117.5 -3.4 -117.5 -2.75 -117.55 -2.25 -117.6 -1.5 -117.35 -1.15 -116.95 -0.6 -116.25 -0.3 -115.8 -0.05 -115.45 0.0 -115.1 -0.05 -114.7 -0.15 -114.35 -0.25 -113.95 -0.5 -113.55 -0.65 -113.2 -0.9 -112.85 -0.9 -112.45 -0.9 -112.1 -0.9 -111.7 -0.75 -111.35 -0.65 -110.95 -0.65 -110.6 -0.75 -110.2 -0.95 -109.85 -1.3 -109.5 -1.65 -109.2 -2.15 -109.1 -2.75 -108.95 -3.65 -109.2 -4.15 -109.6 -4.3 -109.75 -4.75 -109.85 -5.75 -109.85 -6.65 -110.1 -6.9 -110.45 -7.25 -110.75 -7.25 -110.85 -8.15 -111.1 -8.4 -111.45 -8.65 -111.85 -8.65 -112.2 -8.65 -112.95 -8.65 -113.35 -8.65 -113.7 -8.7 -114.45 -8.75 -114.85 -9.05 -115.05 -9.75 -115.35 -10.65 -115.6 -10.9 -115.95 -11.35 -116.35 -12.1 -117.1 -12.4 -117.45 -12.9 -117.85 -13.15 -118.2 -13.2 -118.55 -13.4 -118.95 -13.9 -119.35 -14.1 -119.75 -14.15 -120.1 -14.25 -120.4 -14.65 -120.7 -15.15 -120.45 -15.75 -120.35 -17.65 -120.1 -17.9 -119.7 -18.15 -119.55 -20.75 -119.35 -21.65 -119.6 -22.1 -120.35 -22.3 -120.7 -22.5 -121.1 -22.95 -121.8 -23.5 -122.6 -23.6 -122.95 -23.65 -123.35 -23.65 -123.7 -23.6 -124.05 -23.4 -124.45 -23.25 -124.85 -23.15 -125.2" fill="#663333" fill-opacity="0.2" fill-rule="evenodd" stroke="none"/>
    <path d="M7.55 -117.75 L7.75 -117.65 8.05 -117.7 8.5 -117.8 8.95 -117.7 9.2 -117.5 9.35 -117.3 9.5 -117.15 9.55 -116.95 9.6 -116.75 9.65 -116.55 9.65 -116.4 9.75 -116.2 9.8 -116.0 9.9 -115.8 9.95 -115.65 10.2 -115.45 10.3 -115.25 10.45 -115.05 10.45 -114.9 10.45 -114.7 10.55 -114.5 10.65 -113.95 10.65 -113.4 10.65 -112.8 10.6 -111.9 10.55 -111.7 10.5 -111.5 10.4 -111.3 10.2 -111.2 10.05 -111.15 9.75 -111.05 9.3 -111.2 9.05 -111.4 8.95 -111.55 8.9 -111.75 8.9 -111.95 8.7 -112.15 8.4 -112.3 7.8 -113.25 7.05 -114.25 5.85 -115.7 5.75 -115.9 5.7 -116.1 5.7 -116.25 5.7 -116.45 5.65 -116.65 5.65 -116.85 5.65 -117.0 5.65 -117.2 5.75 -117.4 6.0 -117.75 6.15 -117.95 6.3 -118.15 6.75 -118.25 7.15 -118.15 7.35 -117.95 7.55 -117.75" fill="#663333" fill-opacity="0.2" fill-rule="evenodd" stroke="none"/>
    <path d="M-6.7 -127.05 L-6.55 -126.9 -6.4 -126.7 -6.05 -126.3 -5.95 -126.15 -5.85 -125.95 -5.8 -125.75 -5.75 -125.55 -5.6 -125.4 -5.4 -125.0 -5.2 -124.65 -5.05 -124.45 -5.0 -124.25 -4.95 -124.05 -4.85 -123.9 -4.8 -123.7 -4.7 -123.5 -4.35 -123.3 -4.25 -123.15 -4.15 -122.95 -4.05 -122.75 -3.95 -122.55 -3.85 -122.4 -3.8 -122.2 -3.75 -122.0 -3.7 -121.8 -3.6 -121.65 -3.6 -121.45 -3.6 -121.25 -3.55 -121.1 -3.45 -120.9 -3.3 -120.7 -3.2 -120.5 -3.1 -120.3 -3.1 -120.15 -3.05 -119.95 -2.8 -119.55 -2.6 -119.25 -1.3 -119.05 -0.05 -118.75 0.2 -118.55 0.3 -118.4 0.4 -118.2 0.4 -118.0 0.4 -117.85 0.4 -117.65 0.25 -117.45 0.15 -117.25 -0.05 -117.15 -0.2 -117.1 -1.5 -117.0 -1.95 -117.15 -2.35 -117.15 -2.5 -116.95 -2.6 -116.75 -2.8 -116.65 -2.95 -116.6 -3.25 -116.5 -3.7 -116.65 -3.95 -116.85 -4.1 -117.0 -4.2 -117.2 -4.25 -117.4 -4.45 -117.75 -4.85 -118.5 -5.35 -119.25 -5.45 -119.45 -5.55 -119.65 -5.6 -119.8 -5.7 -120.0 -5.8 -120.2 -6.0 -120.4 -6.25 -120.75 -6.3 -120.95 -6.5 -121.15 -6.6 -121.3 -6.75 -121.5 -6.8 -121.7 -6.85 -121.9 -6.95 -122.05 -6.95 -122.25 -6.95 -122.45 -6.95 -122.65 -6.9 -122.8 -6.85 -123.0 -6.8 -123.2 -6.65 -123.4 -6.5 -123.55 -6.7 -123.95 -7.05 -124.5 -7.35 -125.05 -7.45 -125.25 -7.5 -125.45 -7.6 -125.6 -7.75 -125.8 -7.95 -126.0 -8.05 -126.2 -8.1 -126.4 -8.1 -126.55 -8.2 -126.75 -8.3 -126.95 -8.45 -127.15 -8.5 -127.35 -8.5 -127.7 -8.5 -128.05 -8.45 -128.45 -8.3 -128.65 -8.1 -128.75 -8.05 -128.8 -7.75 -128.85 -7.75 -128.9 -7.35 -128.75 -7.2 -128.55 -7.05 -128.4 -6.95 -128.2 -6.8 -128.0 -6.85 -127.8 -6.85 -127.65 -6.8 -127.45 -6.75 -127.25 -6.7 -127.05" fill="#663333" fill-opacity="0.2" fill-rule="evenodd" stroke="none"/>
    <path d="M29.3 -108.4 L29.5 -108.05 29.55 -107.6 29.55 -107.25 29.6 -106.8 29.75 -106.45 29.85 -106.0 29.85 -105.65 29.85 -105.2 29.85 -104.45 29.85 -103.65 Q30.65 -91.6 30.6 -79.45 L30.5 -54.4 30.5 -29.0 30.55 -4.0 30.55 21.0 30.5 46.45 30.5 71.85 30.5 97.25 30.55 122.65 30.35 129.4 30.15 129.8 29.95 130.15 29.75 130.6 29.25 130.95 28.25 131.25 27.25 130.95 26.75 130.55 26.35 130.15 26.25 129.8 26.1 129.4 26.0 129.0 26.0 104.75 26.0 79.8 26.0 54.35 26.0 29.35 26.05 4.35 26.05 -21.05 26.0 -46.45 26.05 -71.85 26.15 -97.3 26.35 -103.25 26.5 -103.65 26.6 -104.05 26.6 -104.45 26.6 -104.85 26.6 -105.2 26.45 -105.6 26.25 -106.0 26.25 -106.45 26.25 -106.8 26.25 -107.25 26.3 -107.6 26.5 -107.95 26.85 -108.4 27.35 -108.8 28.2 -109.0 28.25 -109.1 29.0 -108.8 29.3 -108.4" fill="#663333" fill-opacity="0.2" fill-rule="evenodd" stroke="none"/>
    <path d="M29.0 21.55 L29.35 21.9 29.4 22.35 29.5 22.7 29.6 23.15 29.75 23.5 29.75 25.5 29.9 27.5 30.0 29.05 30.15 29.45 30.35 29.85 30.5 30.3 30.6 30.65 30.75 31.1 30.8 55.7 30.85 81.1 30.85 106.1 30.85 106.5 30.7 106.9 30.5 107.3 30.35 107.65 29.85 108.05 29.5 108.35 28.75 108.45 27.75 108.2 27.25 107.8 26.9 107.4 26.75 107.05 Q26.45 94.7 26.55 82.45 L26.7 57.0 26.65 32.0 26.85 30.4 27.0 30.0 27.25 29.6 27.5 29.25 27.55 27.2 27.7 25.25 27.75 23.25 27.85 22.9 28.0 22.45 28.1 22.1 28.3 21.75 28.75 21.55 29.0 21.55" fill="#663333" fill-opacity="0.2" fill-rule="evenodd" stroke="none"/>
    <path d="M29.5 -108.2 L29.75 -107.85 30.25 -93.2 30.3 -77.85 30.25 -68.45 30.1 -68.1 30.0 -67.7 29.9 -62.45 Q29.75 -59.5 29.9 -56.45 L29.75 -52.35 29.6 -51.95 29.35 -51.6 29.1 -51.35 28.85 -51.25 28.25 -51.1 27.35 -51.35 27.0 -51.75 26.75 -52.1 Q26.5 -54.7 26.6 -57.35 L26.55 -63.35 26.5 -67.45 26.35 -67.85 26.25 -68.2 26.25 -82.85 26.4 -98.2 26.6 -107.6 26.8 -107.95 27.1 -108.35 27.35 -108.6 27.6 -108.65 28.2 -108.75 28.25 -108.85 29.0 -108.6 29.5 -108.2" fill="#663333" fill-opacity="0.2" fill-rule="evenodd" stroke="none"/>
    <path d="M28.85 -73.6 L29.1 -73.2 29.35 -72.85 Q30.55 -60.6 30.55 -48.2 L30.65 -23.2 30.7 1.8 30.75 26.85 30.8 52.25 30.9 77.25 31.0 102.65 31.0 109.0 30.85 109.4 30.75 109.8 30.55 110.15 30.2 110.6 29.75 111.0 28.75 111.25 27.75 111.0 27.25 110.6 26.9 110.15 26.6 109.8 Q26.4 97.5 26.5 85.2 L26.6 60.2 26.65 35.15 26.7 10.15 26.8 -15.25 26.9 -40.25 Q26.9 -53.05 27.5 -65.7 L28.1 -72.85 28.05 -73.2 27.9 -73.6 27.9 -73.85 28.0 -73.95 28.25 -74.0 28.35 -74.0 28.85 -73.6" fill="#663333" fill-opacity="0.2" fill-rule="evenodd" stroke="none"/>
    <path d="M31.0 -87.6 L31.5 -87.2 31.7 -86.8 31.85 -86.45 31.85 -86.1 31.75 -85.7 31.6 -85.35 31.2 -84.95 30.85 -84.7 30.25 -84.65 22.1 -84.75 Q22.0 -84.75 21.85 -84.85 L19.75 -84.95 19.0 -85.2 18.65 -85.6 18.5 -85.95 18.5 -86.35 18.55 -86.65 18.9 -87.05 19.25 -87.35 19.75 -87.45 22.1 -87.75 22.75 -87.85 30.25 -87.85 31.0 -87.6" fill="#663333" fill-opacity="0.2" fill-rule="evenodd" stroke="none"/>
    <path d="M26.25 -115.7 L27.0 -115.45 27.35 -115.05 27.6 -114.7 28.0 -113.95 28.25 -113.6 28.35 -113.2 28.35 -112.85 28.85 -112.45 29.2 -112.05 29.35 -111.7 29.15 -111.45 28.35 -111.25 27.6 -111.2 27.35 -110.85 27.0 -110.45 26.5 -110.2 26.25 -110.1 25.75 -109.95 25.0 -110.2 24.6 -110.6 24.5 -110.95 24.5 -111.35 24.5 -112.1 24.5 -112.85 24.55 -113.2 24.7 -113.6 24.75 -113.95 24.75 -114.35 24.8 -114.7 25.0 -115.05 25.35 -115.45 26.2 -115.65 26.25 -115.7" fill="#663333" fill-opacity="0.2" fill-rule="evenodd" stroke="none"/>
    <path d="M23.75 -118.95 L23.6 -118.6 23.45 -118.35 23.25 -118.2 22.75 -118.1 18.75 -118.1 18.25 -118.2 17.25 -118.3 15.25 -118.5 12.0 -118.85 11.75 -119.2 11.9 -119.55 12.1 -119.95 12.25 -120.3 12.5 -120.6 12.75 -120.65 13.2 -120.75 13.25 -120.85 17.75 -120.85 18.5 -120.6 22.75 -120.35 23.35 -120.1 23.6 -119.7 23.75 -119.3 23.75 -118.95" fill="#663333" fill-opacity="0.2" fill-rule="evenodd" stroke="none"/>
    <path d="M2.25 -128.15 L2.85 -128.1 3.1 -128.1 5.25 -128.1 6.1 -127.95 7.25 -127.95 7.85 -127.95 8.25 -128.2 8.6 -128.45 9.25 -128.5 9.25 -128.6 10.0 -128.35 10.3 -127.9 10.5 -127.6 10.6 -127.2 10.6 -126.85 10.6 -126.45 10.6 -126.1 10.45 -125.7 10.25 -125.35 10.0 -124.95 9.5 -124.55 9.1 -124.2 8.5 -123.45 7.75 -123.2 6.0 -122.6 5.9 -122.2 5.85 -121.45 5.85 -120.7 5.85 -119.95 5.7 -119.6 5.5 -119.2 5.0 -118.85 3.85 -118.6 3.5 -118.2 3.0 -117.85 2.25 -117.6 1.35 -117.85 1.0 -118.2 0.75 -118.6 0.65 -118.95 0.65 -119.7 0.7 -120.85 0.75 -121.6 0.7 -121.95 0.5 -122.35 0.25 -122.7 0.25 -123.1 0.25 -123.45 0.25 -123.85 0.1 -124.2 -0.15 -124.6 -0.25 -124.95 -0.25 -125.35 -0.25 -126.1 -0.25 -126.85 -0.2 -127.2 0.0 -127.55 0.35 -127.95 1.25 -128.2 2.25 -128.15" fill="#ffffff" fill-opacity="0.2" fill-rule="evenodd" stroke="none"/>
    <path d="M-0.9 -125.45 L-0.9 -125.85 -0.85 -126.2 -0.6 -126.55 -0.25 -126.95 0.1 -127.2 4.0 -127.55 4.75 -127.7 5.25 -127.7 6.0 -127.45 6.35 -127.05 6.6 -126.7 6.75 -126.35 6.85 -125.95 6.85 -125.6 6.75 -125.2 6.55 -124.85 6.25 -124.45 5.85 -124.1 5.6 -123.85 5.35 -123.7 4.75 -123.45 4.25 -123.05 3.85 -122.7 3.35 -122.35 3.35 -121.95 3.35 -121.6 3.35 -121.2 3.4 -120.85 3.6 -120.45 3.75 -120.1 3.85 -119.7 3.85 -119.35 4.1 -118.95 4.25 -118.6 4.35 -118.2 4.35 -117.85 4.35 -117.45 4.3 -116.7 4.25 -116.35 4.1 -115.95 3.85 -115.6 3.6 -115.35 3.35 -115.25 2.75 -115.1 2.25 -114.85 2.4 -114.45 2.65 -114.1 2.95 -113.7 3.35 -112.95 3.35 -112.6 3.25 -112.2 3.1 -111.85 3.0 -111.45 2.75 -111.1 2.35 -110.85 1.75 -110.7 0.85 -110.95 0.4 -111.35 0.0 -111.7 -0.7 -112.5 -0.9 -112.85 -0.9 -113.2 -1.05 -113.55 -1.25 -113.95 -1.35 -114.35 -1.4 -114.7 -1.4 -115.1 -1.4 -115.45 -1.4 -115.85 -1.35 -116.2 -1.1 -116.55 -0.75 -116.95 -0.15 -117.6 0.1 -117.7 0.5 -118.05 0.6 -118.35 0.6 -118.7 0.45 -119.05 0.25 -119.45 0.15 -120.2 0.1 -121.35 0.1 -122.45 0.1 -123.2 0.05 -123.55 -0.25 -123.95 -0.6 -124.35 -0.9 -124.7 -0.9 -125.1 -0.9 -125.45" fill="#ffffff" fill-opacity="0.2" fill-rule="evenodd" stroke="none"/>
    <path d="M-4.75 -127.6 L-1.25 -127.6 -0.25 -127.6 0.5 -127.35 0.8 -126.9 1.0 -126.6 1.05 -126.2 1.0 -125.85 0.85 -125.45 0.5 -125.1 -0.5 -124.7 -0.45 -124.35 -0.3 -123.95 -0.25 -123.6 -0.3 -123.2 -0.4 -122.85 -0.5 -122.45 -0.8 -122.1 -1.15 -121.7 -1.4 -121.45 -1.65 -121.35 -2.25 -121.25 -3.25 -121.2 -4.15 -121.45 -4.5 -121.85 -4.7 -122.2 -4.75 -122.45 -4.8 -122.55 -5.65 -122.85 -6.0 -123.2 -6.25 -123.6 -6.35 -123.95 -6.4 -124.35 -6.65 -124.7 -6.65 -125.05 -6.75 -125.45 -6.95 -125.85 -7.0 -126.2 -6.95 -126.55 -6.75 -126.95 -6.25 -127.35 -5.3 -127.5 -5.25 -127.6 -4.75 -127.6" fill="#ffffff" fill-opacity="0.2" fill-rule="evenodd" stroke="none"/>
    <path d="M-2.05 -127.75 L-1.0 -127.45 -0.65 -127.05 -0.4 -126.7 -0.25 -126.35 -0.3 -125.95 -0.5 -125.55 -0.65 -125.2 -1.0 -124.85 -1.5 -124.45 -2.25 -124.2 -6.25 -124.2 -7.15 -124.45 -7.65 -124.8 -8.25 -125.2 -8.5 -125.6 -8.6 -125.95 -8.65 -126.35 -8.65 -126.7 -8.6 -127.05 -8.4 -127.45 -8.15 -127.85 -7.3 -128.0 -7.25 -128.1 -4.25 -128.0 -2.05 -127.75" fill="#ffffff" fill-opacity="0.2" fill-rule="evenodd" stroke="none"/>
    <path d="M13.95 -120.7 L13.85 -120.35 13.7 -120.0 13.5 -119.7 13.25 -119.6 12.75 -119.45 5.25 -119.6 4.5 -119.85 4.25 -120.2 4.1 -120.6 4.15 -120.95 4.3 -121.3 4.6 -121.7 5.0 -122.1 5.75 -122.35 Q9.6 -122.05 12.75 -122.45 L13.35 -122.2 13.7 -121.8 13.95 -121.45 14.0 -121.1 13.95 -120.7" fill="#ffffff" fill-opacity="0.2" fill-rule="evenodd" stroke="none"/>
    <path d="M30.85 -96.1 L31.25 -95.7 31.55 -95.3 31.75 -94.95 31.75 -94.6 31.6 -94.2 31.35 -93.85 30.75 -93.6 30.25 -93.6 29.5 -93.85 22.75 -94.1 20.75 -94.2 20.1 -94.45 19.8 -94.85 19.75 -95.2 19.8 -95.55 20.1 -95.95 20.75 -96.2 22.75 -96.25 22.75 -96.35 30.25 -96.35 30.85 -96.1" fill="#ffffff" fill-opacity="0.2" fill-rule="evenodd" stroke="none"/>
    <path d="M25.35 -117.95 L25.6 -117.6 25.7 -116.85 25.75 -115.7 25.75 -114.6 25.7 -114.2 25.5 -113.85 25.0 -113.85 24.75 -114.2 24.75 -115.7 24.8 -117.2 Q24.8 -117.65 25.05 -117.85 L25.35 -117.95" fill="#ffffff" fill-opacity="0.2" fill-rule="evenodd" stroke="none"/>
    <path d="M20.7 -108.45 L20.75 -108.55 21.35 -108.3 21.5 -107.85 21.75 -107.5 Q23.1 -95.3 23.0 -82.9 L22.9 -57.85 22.85 -32.45 22.85 -7.05 22.85 18.4 22.85 43.8 22.8 68.75 22.75 94.2 22.6 119.6 22.6 133.9 22.45 134.25 22.2 134.65 22.0 134.95 21.85 135.05 21.25 135.2 20.35 134.95 20.1 134.55 19.85 134.15 19.75 109.55 19.75 84.55 19.65 59.15 19.55 33.75 19.6 8.3 19.6 -17.1 19.6 -42.15 19.65 -67.55 Q19.7 -80.25 19.9 -92.95 L20.25 -106.0 20.1 -106.45 20.0 -106.8 19.9 -107.25 19.85 -107.6 19.95 -107.95 20.1 -108.3 20.25 -108.4 20.7 -108.45" fill="#ffffff" fill-opacity="0.2" fill-rule="evenodd" stroke="none"/>
    <path d="M19.55 -107.15 L19.9 -107.55 20.25 -107.85 20.7 -107.9 20.75 -107.95 29.75 -107.95 30.35 -107.7 30.7 -107.3 30.95 -106.95 31.0 -106.6 30.85 -106.2 30.6 -105.85 30.25 -105.6 29.75 -105.45 20.75 -105.45 20.0 -105.7 19.65 -106.1 19.5 -106.45 19.5 -106.85 19.55 -107.15" fill="#ffffff" fill-opacity="0.2" fill-rule="evenodd" stroke="none"/>
    <path d="M-15.75 -122.1 L-15.2 -121.75 -15.0 -121.45 -14.9 -121.05 -14.95 -120.7 -15.1 -119.95 -15.15 -119.6 -15.5 -119.2 -16.15 -119.2 -16.9 -119.6 -17.1 -119.95 -17.15 -120.35 -17.15 -120.7 -17.05 -121.05 -16.75 -121.45 -16.4 -121.85 -15.8 -122.0 -15.75 -122.1" fill="#ffffff" fill-opacity="0.2" fill-rule="evenodd" stroke="none"/>
    <path d="M20.25 -107.95 L21.1 -107.7 21.5 -107.35 21.85 -107.4 22.35 -107.7 23.25 -107.95 23.75 -107.95 24.6 -107.7 24.95 -107.3 25.25 -106.95 25.5 -106.6 26.2 -106.2 26.75 -105.85 26.85 -105.45 27.0 -105.1 27.1 -104.7 27.1 -103.2 27.1 -102.1 27.1 -100.6 27.1 -98.35 27.1 -97.95 27.15 -97.6 27.35 -97.2 27.5 -96.85 27.75 -96.45 27.85 -96.1 28.0 -95.7 28.1 -95.35 28.1 -93.1 28.1 -90.85 28.1 -87.1 28.1 -85.6 28.0 -85.2 27.85 -84.85 27.75 -84.45 27.5 -84.05 27.35 -83.7 27.15 -83.3 26.95 -82.95 26.75 -82.6 26.25 -82.2 26.15 -81.85 26.1 -81.1 26.1 -80.7 26.1 -80.35 26.1 -79.95 26.1 -79.6 26.1 -78.85 26.0 -78.45 25.85 -78.1 26.0 -76.6 26.0 -75.45 26.0 -73.95 25.95 -71.7 25.85 -71.35 25.7 -71.0 25.15 -70.2 24.9 -69.8 24.7 -69.45 24.5 -69.1 24.35 -68.7 24.25 -68.35 24.0 -67.95 23.25 -67.55 22.7 -67.15 22.6 -66.85 22.7 -66.5 23.25 -65.75 23.7 -65.3 23.85 -64.95 23.95 -64.6 24.0 -63.85 24.0 -63.45 24.0 -63.1 23.95 -62.7 23.85 -62.35 23.7 -61.95 23.45 -61.6 23.1 -61.2 22.35 -60.85 22.0 -60.45 21.6 -60.1 21.1 -59.7 20.25 -59.45 19.75 -59.45 18.85 -59.7 18.35 -60.1 18.1 -60.45 17.95 -61.95 18.0 -63.1 18.0 -64.6 18.0 -66.85 18.0 -67.6 18.15 -67.95 18.35 -68.35 18.5 -68.7 18.5 -69.1 18.65 -69.45 18.85 -69.85 18.85 -70.2 18.85 -70.6 18.85 -70.95 19.0 -71.35 19.1 -71.7 19.0 -72.1 18.85 -72.45 18.85 -76.2 18.85 -82.2 18.85 -88.95 18.85 -90.1 19.0 -90.45 19.25 -90.85 19.4 -92.35 19.35 -93.45 19.35 -94.95 19.35 -96.85 19.35 -97.2 19.55 -97.55 19.85 -97.95 19.75 -99.1 19.45 -100.25 19.1 -101.3 18.75 -102.45 18.5 -103.2 18.5 -103.6 18.5 -104.35 18.5 -104.7 18.5 -105.1 18.5 -105.45 18.5 -105.85 18.5 -106.6 18.65 -106.95 18.85 -107.35 19.35 -107.7 20.2 -107.9 20.25 -107.95" fill="#ffffff" fill-opacity="0.2" fill-rule="evenodd" stroke="none"/>
    <path d="M23.75 -43.7 L23.75 -41.1 23.6 -39.95 23.45 -39.6 23.2 -39.4 22.75 -39.2 22.0 -39.2 21.6 -38.85 21.25 -38.6 20.75 -38.45 20.0 -38.7 19.6 -39.1 Q19.4 -39.8 19.45 -40.6 L19.5 -43.6 19.5 -46.95 19.5 -47.7 19.55 -48.05 19.75 -48.45 20.0 -48.7 20.25 -48.8 20.7 -48.9 20.75 -48.95 21.4 -48.75 22.75 -48.4 23.35 -48.2 23.7 -47.8 24.0 -47.45 23.9 -46.35 23.75 -43.7" fill="#ffffff" fill-opacity="0.2" fill-rule="evenodd" stroke="none"/>
    <path d="M23.25 70.75 L23.25 70.6 24.0 70.9 24.5 71.3 24.75 71.7 25.0 72.1 25.1 72.45 25.2 72.9 25.25 73.25 25.5 73.7 25.7 74.05 25.85 74.5 26.05 76.45 25.95 79.25 26.1 82.0 26.3 82.35 26.75 82.8 26.85 83.2 27.0 83.6 27.1 84.0 27.1 84.8 27.1 85.95 27.1 87.2 27.1 88.0 27.25 88.35 27.35 88.8 27.35 89.15 27.55 89.5 28.0 89.95 28.25 90.35 28.5 90.75 28.75 95.15 Q28.8 97.7 29.35 100.25 L30.25 104.25 30.25 110.2 30.25 116.95 30.25 122.5 30.1 122.85 29.85 123.3 29.75 123.7 29.75 124.1 29.75 124.5 29.6 124.9 29.35 125.3 29.1 125.65 28.6 126.1 27.75 126.35 27.25 126.45 27.25 127.7 27.25 129.65 27.25 131.65 27.25 132.0 27.1 132.45 27.0 132.8 26.85 133.25 26.75 133.6 26.6 134.05 26.35 134.4 26.25 134.85 26.25 135.2 26.25 135.6 26.2 136.0 26.1 136.4 25.95 136.8 25.7 137.15 25.35 137.6 25.0 137.85 24.25 137.95 24.2 137.95 24.15 137.95 24.05 137.9 23.7 137.9 23.55 137.9 23.55 137.8 23.55 137.7 23.55 137.6 23.6 137.55 23.6 137.5 23.65 137.25 23.7 137.0 23.75 136.9 23.75 136.8 23.75 136.7 23.75 136.6 23.75 136.35 23.7 136.3 23.7 136.2 23.6 136.1 23.55 136.0 23.55 135.9 23.6 135.8 23.6 135.7 23.65 135.6 23.65 135.5 23.65 135.4 23.65 135.15 23.6 135.1 23.6 134.95 23.65 134.9 23.65 134.6 23.6 134.55 23.6 134.5 23.55 134.4 23.5 134.35 23.4 134.3 23.35 134.25 23.25 134.2 23.15 134.2 23.05 134.2 22.95 134.25 22.85 134.3 22.75 134.4 22.65 134.6 22.55 134.7 22.5 134.85 22.5 134.9 22.45 134.95 22.4 135.0 22.35 135.05 22.3 135.1 22.3 135.15 22.25 135.2 22.25 135.3 22.0 135.75 21.55 136.45 21.55 136.5 20.75 135.75 20.5 135.3 20.35 134.95 20.3 134.15 20.25 132.55 20.25 130.95 20.25 130.15 20.35 129.8 20.5 129.4 20.6 129.0 20.75 128.6 20.85 126.2 21.1 123.45 21.25 120.25 Q20.55 118.35 20.65 116.3 L20.75 111.1 20.75 107.15 20.6 106.75 20.5 106.35 20.35 106.0 20.35 103.6 20.35 100.4 20.35 97.25 20.5 96.8 20.75 96.45 20.9 93.3 20.8 89.3 Q20.7 87.25 21.35 85.35 L21.3 84.95 21.15 84.5 21.0 84.1 20.9 83.75 20.85 83.35 20.85 82.95 20.8 82.6 20.5 82.1 20.25 81.75 20.0 81.35 20.0 79.8 20.0 77.75 20.0 75.4 20.0 75.0 20.15 74.6 20.35 74.2 20.45 73.8 20.5 73.45 20.7 73.0 20.9 72.65 21.1 72.2 21.25 71.85 21.6 71.4 22.25 71.05 22.6 70.8 23.25 70.75" fill="#663333" fill-opacity="0.2" fill-rule="evenodd" stroke="none"/>
    <path d="M23.25 56.95 L23.1 56.6 23.15 56.2 23.2 55.8 23.25 55.45 23.35 54.65 23.5 54.2 23.75 53.85 24.35 53.4 24.6 53.15 25.0 52.8 25.7 52.55 25.75 52.5 26.35 52.8 26.7 53.2 27.0 53.6 27.0 55.15 26.95 57.1 27.1 59.15 27.1 59.5 27.05 59.9 26.85 60.3 26.6 60.7 26.1 61.1 26.15 61.5 26.25 61.9 26.35 62.3 26.5 62.7 26.5 63.1 26.5 63.9 26.5 65.05 26.5 65.85 26.6 66.3 26.75 66.65 26.85 67.1 26.85 67.45 26.85 67.85 26.85 68.25 26.85 68.65 26.85 69.05 26.7 69.4 26.5 69.85 26.6 73.0 26.65 76.6 26.6 79.35 27.7 88.45 Q28.3 93.4 28.05 98.4 27.85 101.9 28.6 105.2 L28.6 111.55 28.65 117.9 28.75 122.65 Q28.4 123.6 28.35 124.6 28.25 125.85 28.3 127.0 L28.1 129.0 27.95 129.4 27.75 129.8 27.95 130.1 28.5 130.6 28.85 130.95 29.0 131.4 29.1 131.75 29.25 132.2 29.25 132.55 29.25 133.0 29.25 133.35 29.3 133.7 29.65 134.15 30.1 134.55 30.35 134.95 30.5 135.35 30.6 135.75 30.6 136.15 30.5 136.5 30.25 136.95 30.0 137.3 29.6 137.6 Q27.4 138.45 25.0 138.1 L24.5 138.55 24.5 138.6 24.45 138.5 24.45 138.3 24.4 138.2 24.4 138.15 24.35 138.1 24.3 138.05 24.2 138.0 24.15 137.95 24.05 137.9 23.7 137.9 23.55 137.9 23.55 137.8 23.55 137.7 23.55 137.6 23.6 137.55 23.6 137.5 23.65 137.25 23.7 137.0 23.75 136.9 23.75 136.8 23.75 136.7 23.75 136.6 23.75 136.35 23.7 136.3 23.7 136.2 23.6 136.1 23.55 136.0 23.55 135.9 23.6 135.8 23.6 135.7 23.65 135.6 23.65 135.5 23.65 135.4 23.65 135.15 23.6 135.1 23.6 134.95 23.65 134.9 23.65 134.6 23.6 134.55 23.6 134.5 23.55 134.4 23.5 134.35 23.4 134.3 23.35 134.25 23.25 134.2 23.15 134.2 23.05 134.2 22.95 134.25 22.85 134.3 22.75 134.4 22.65 134.6 22.55 134.7 22.5 134.85 22.5 134.9 22.45 134.95 22.4 135.0 22.35 135.05 22.3 135.1 22.3 135.15 22.25 135.2 22.25 135.3 22.0 135.75 21.55 136.45 21.3 136.95 21.3 137.05 21.25 137.1 21.25 137.2 21.2 137.25 21.0 137.6 20.9 137.7 20.85 137.6 20.7 134.4 20.75 130.85 Q20.7 129.45 21.25 128.05 L21.25 127.7 21.25 127.25 21.25 126.9 21.35 126.45 21.5 126.1 21.45 125.3 21.3 124.1 21.2 122.9 21.25 122.5 21.05 122.2 20.5 121.7 20.15 121.3 19.85 120.9 19.75 120.55 19.75 120.1 19.75 119.3 19.75 118.55 19.9 118.15 20.1 117.75 20.25 117.35 20.4 101.5 Q20.3 92.85 19.25 84.45 18.6 79.3 18.85 74.05 L19.0 73.7 19.25 73.3 19.6 72.9 20.15 72.65 21.0 72.35 21.1 72.1 21.1 71.7 21.1 71.3 21.3 70.9 21.35 70.5 21.2 70.1 20.85 69.3 20.45 68.5 20.25 68.15 20.25 67.7 20.25 67.35 20.0 66.9 19.75 66.55 19.75 66.1 19.75 65.75 19.75 64.95 19.75 64.15 19.9 63.75 20.15 63.35 20.5 62.95 20.85 62.6 21.75 62.3 22.85 62.05 23.25 61.6 23.3 61.25 23.35 60.45 23.35 59.65 23.35 58.85 23.5 58.45 23.75 58.1 24.1 57.8 24.2 57.7 23.5 57.4 23.25 56.95" fill="#663333" fill-opacity="0.2" fill-rule="evenodd" stroke="none"/>
    <path d="M50.45 136.7 L50.8 136.6 51.1 136.55 51.1 136.5 51.55 136.65 51.8 136.85 51.9 137.0 51.95 137.2 52.0 137.4 52.05 137.6 57.1 137.5 57.55 137.65 57.8 137.85 57.9 138.0 61.55 137.85 61.85 137.8 65.85 137.75 66.3 137.9 66.55 138.1 66.65 138.25 66.7 138.45 66.8 138.55 68.15 138.65 68.6 138.5 69.6 138.5 70.05 138.65 70.3 138.85 70.4 139.0 70.45 139.2 70.5 139.4 70.5 139.6 70.45 139.75 70.35 139.95 70.2 140.15 70.05 140.25 69.9 140.3 68.8 140.55 68.35 140.65 65.6 140.65 65.15 140.5 64.9 140.3 64.75 140.15 64.65 139.95 61.65 139.7 57.7 140.3 57.4 140.3 55.1 140.4 54.65 140.25 54.4 140.05 54.25 139.9 54.15 139.7 54.15 139.6 52.6 139.5 49.55 139.75 48.9 139.95 48.65 140.1 48.35 140.15 47.8 140.25 47.35 140.4 47.1 140.4 46.65 140.25 46.4 140.05 46.25 139.9 46.15 139.7 45.85 139.65 43.35 140.15 43.05 140.2 42.7 140.25 40.35 140.4 39.9 140.25 39.65 140.05 39.5 139.9 39.4 139.7 39.4 139.65 39.15 139.6 37.4 140.0 36.9 140.15 36.65 140.2 34.1 140.35 33.65 140.2 33.4 140.0 33.3 139.85 33.25 139.65 33.2 139.45 33.2 139.25 28.35 139.0 27.95 138.9 27.85 138.7 27.8 138.5 27.8 138.35 27.85 138.15 27.95 138.0 33.6 137.5 34.75 137.3 36.35 137.1 36.55 136.95 36.85 136.9 37.35 136.9 37.7 137.0 37.95 137.2 38.1 137.4 38.15 137.6 38.15 137.75 38.25 137.95 38.3 138.0 42.15 136.95 42.9 136.7 43.05 136.65 43.35 136.6 44.35 136.6 44.8 136.7 44.95 136.9 45.1 137.1 45.15 137.25 45.2 137.45 45.15 137.65 45.1 137.85 47.4 137.45 47.7 137.4 48.2 137.25 50.45 136.7" fill="#663333" fill-opacity="0.2" fill-rule="evenodd" stroke="none"/>
    <path d="M46.2 140.45 L37.6 141.2 37.1 141.1 36.85 140.9 36.75 140.7 36.65 140.5 36.6 140.35 36.6 140.15 36.6 139.95 36.6 139.75 33.1 139.6 32.65 139.45 32.4 139.25 32.3 139.05 32.2 138.9 32.2 138.7 32.25 138.5 32.3 138.35 32.1 138.15 31.9 137.95 31.85 137.75 31.7 137.6 31.7 137.45 31.9 137.25 32.6 137.2 34.6 136.75 35.15 136.6 35.55 136.45 35.85 136.4 36.6 136.4 36.95 136.5 37.2 136.7 37.35 136.9 37.4 137.1 37.4 137.25 37.35 137.45 37.3 137.65 38.65 137.7 39.45 137.5 41.85 137.2 42.3 137.35 42.55 137.5 42.65 137.7 42.75 137.9 42.85 138.1 42.85 138.25 42.8 138.45 42.7 138.65 42.6 138.8 42.4 139.0 42.7 139.1 45.85 138.6 46.95 138.35 48.6 137.95 49.6 137.7 51.1 137.7 51.55 137.85 51.8 138.0 51.95 138.2 52.1 138.35 55.3 138.25 55.85 138.15 56.6 138.15 56.85 138.15 57.2 138.25 57.45 138.45 57.6 138.65 57.65 138.85 57.7 139.0 57.8 139.2 57.7 139.4 57.65 139.6 57.6 139.75 57.35 139.95 57.1 140.15 56.6 140.25 55.1 140.5 51.35 140.35 50.95 140.15 50.65 139.95 50.6 139.85 46.2 140.45" fill="#663333" fill-opacity="0.2" fill-rule="evenodd" stroke="none"/>
    <path d="M76.4 138.35 L76.55 138.5 76.6 138.7 76.55 138.9 76.4 139.1 76.1 139.2 75.85 139.25 75.15 139.25 74.85 139.4 74.6 139.35 74.15 139.2 74.05 139.0 74.1 138.85 74.3 138.65 74.4 138.45 74.55 138.35 74.6 138.3 74.85 138.2 75.35 138.15 75.85 138.15 76.1 138.2 76.4 138.35" fill="#663333" fill-opacity="0.2" fill-rule="evenodd" stroke="none"/>
    <path d="M-16.45 -113.1 L-16.15 -114.15 Q-15.75 -114.75 -15.15 -114.75 -14.6 -114.75 -14.15 -114.15 -13.85 -113.7 -13.85 -113.1 -13.85 -112.45 -14.15 -112.05 L-14.15 -112.0 Q-14.6 -111.5 -15.15 -111.5 -15.75 -111.5 -16.15 -112.05 -16.45 -112.5 -16.45 -113.1 M-16.15 -119.7 L-16.35 -120.35 -16.65 -120.55 -16.9 -120.35 -16.95 -120.35 -17.15 -119.7 -16.95 -119.1 -16.9 -119.05 Q-16.85 -118.9 -16.65 -118.9 L-16.35 -119.1 -16.3 -119.1 Q-16.15 -119.35 -16.15 -119.7 M-15.2 -121.9 Q-15.8 -122.7 -16.65 -122.7 -17.5 -122.7 -18.1 -121.9 -18.6 -121.15 -18.7 -120.2 L-18.75 -119.9 -18.75 -119.7 -18.75 -119.6 -18.7 -119.3 Q-18.65 -118.3 -18.1 -117.55 -17.5 -116.7 -16.65 -116.7 -15.8 -116.7 -15.2 -117.55 -14.5 -118.45 -14.5 -119.7 -14.5 -121.0 -15.2 -121.9 M-16.65 -121.55 Q-16.0 -121.55 -15.55 -120.95 -15.15 -120.4 -15.15 -119.7 -15.15 -118.95 -15.55 -118.5 L-15.55 -118.45 Q-16.05 -117.9 -16.65 -117.9 -17.35 -117.9 -17.75 -118.5 -18.15 -119.0 -18.15 -119.7 -18.15 -120.4 -17.75 -120.9 -17.35 -121.55 -16.65 -121.55 M-13.4 -122.5 Q-12.5 -121.3 -12.5 -119.7 -12.5 -118.05 -13.4 -116.95 -14.3 -115.7 -15.65 -115.7 L-16.1 -115.75 -16.65 -115.7 Q-18.0 -115.7 -18.9 -116.95 -19.75 -118.05 -19.75 -119.7 -19.75 -121.3 -18.9 -122.5 -18.0 -123.7 -16.65 -123.7 L-16.15 -123.65 -15.65 -123.7 Q-14.3 -123.7 -13.4 -122.5" fill="#333333" fill-rule="evenodd" stroke="none"/>
    <path d="M1.65 -129.45 L7.0 -129.45 9.6 -129.35 9.85 -129.2 9.95 -129.0 10.05 -128.8 10.05 -128.6 10.0 -128.45 9.9 -128.25 9.75 -128.05 9.55 -127.95 -12.25 -128.1 -17.75 -128.1 Q-24.55 -128.0 -31.3 -128.35 L-31.45 -128.55 -31.45 -128.75 -31.35 -128.95 -31.1 -129.05 Q-20.2 -129.35 -9.25 -129.25 L-5.15 -129.3 1.65 -129.45" fill="#333333" fill-rule="evenodd" stroke="none"/>
    <path d="M9.5 -129.2 L9.75 -129.2 9.75 -129.25 10.05 -129.1 10.3 -128.95 10.4 -128.75 10.8 -121.9 9.25 -121.9 9.25 -123.6 9.35 -128.1 9.3 -128.3 9.2 -128.5 9.15 -128.7 9.2 -128.85 9.3 -129.05 9.5 -129.2 M10.75 -113.35 L10.75 -108.7 10.65 -108.5 10.5 -108.3 10.3 -108.2 10.0 -108.1 9.55 -108.25 9.35 -108.45 9.25 -108.6 9.25 -115.95 9.25 -117.25 10.75 -117.25 10.75 -113.35" fill="#333333" fill-rule="evenodd" stroke="none"/>
    <path d="M10.25 -108.55 L10.15 -108.35 10.1 -108.25 10.0 -108.2 -0.75 -107.85 -16.0 -107.9 -23.35 -107.8 -23.8 -107.95 -24.05 -108.1 -24.15 -108.3 -24.2 -108.5 -24.2 -108.7 -24.2 -108.85 -24.15 -109.05 -24.05 -109.25 -23.8 -109.45 -23.35 -109.5 -23.35 -109.55 -16.0 -109.45 -0.75 -109.45 9.75 -109.25 10.05 -109.1 10.15 -108.95 10.25 -108.75 10.25 -108.55" fill="#333333" fill-rule="evenodd" stroke="none"/>
    <path d="M-0.4 -128.85 L-0.25 -128.7 -0.05 -120.45 0.05 -112.2 0.05 -107.7 -0.05 -107.5 -0.15 -107.3 -0.3 -107.2 -0.5 -107.1 -0.9 -107.25 -1.0 -107.45 -1.1 -115.7 -0.95 -124.1 -0.75 -128.6 -0.7 -128.75 -0.5 -128.85 -0.4 -128.85" fill="#333333" fill-rule="evenodd" stroke="none"/>
    <path d="M-24.05 -127.85 L-23.9 -128.05 -23.6 -128.15 -23.6 -128.2 -23.25 -128.05 -23.15 -127.85 -23.1 -127.7 -22.85 -120.55 -22.75 -113.25 -22.85 -109.1 -22.9 -108.95 -23.05 -108.75 -23.2 -108.55 -23.6 -108.45 -24.05 -108.55 -24.2 -108.75 -24.35 -108.95 -24.45 -116.05 -24.35 -123.35 -24.1 -127.7 -24.05 -127.85" fill="#333333" fill-rule="evenodd" stroke="none"/>
    <path d="M-24.0 -116.2 L-24.25 -116.25 -24.35 -116.3 -26.75 -116.4 -27.1 -116.5 -27.25 -116.7 -27.25 -116.9 -27.25 -117.05 -27.1 -117.25 -26.8 -117.35 -26.75 -117.4 -23.0 -117.4 -22.7 -117.25 -22.6 -117.05 -22.5 -116.9 -22.6 -116.7 -22.7 -116.5 -23.0 -116.4 -23.45 -116.3 -23.55 -116.25 -23.75 -116.2 -24.0 -116.2" fill="#333333" fill-rule="evenodd" stroke="none"/>
    <path d="M-32.3 -128.4 L-32.2 -128.6 -32.0 -128.85 -32.05 -128.9 -31.65 -128.85 -31.45 -128.75 -29.5 -124.5 -27.5 -120.1 -26.45 -117.25 -26.35 -117.1 -26.35 -116.9 -26.4 -116.65 -26.65 -116.45 -27.0 -116.4 -27.25 -116.55 -29.3 -120.9 -31.25 -125.6 -32.3 -128.25 -32.3 -128.4" fill="#333333" fill-rule="evenodd" stroke="none"/>
    <path d="M-1.5 -116.2 L-1.75 -116.25 -1.85 -116.3 -4.25 -116.4 -4.6 -116.5 -4.75 -116.7 -4.75 -116.9 -4.75 -117.05 -4.6 -117.25 -4.3 -117.35 -4.25 -117.4 -0.5 -117.4 -0.2 -117.25 -0.1 -117.05 0.0 -116.9 -0.1 -116.7 -0.2 -116.5 -0.5 -116.4 -0.95 -116.3 -1.05 -116.25 -1.25 -116.2 -1.5 -116.2" fill="#333333" fill-rule="evenodd" stroke="none"/>
    <path d="M-9.8 -128.4 L-9.7 -128.6 -9.5 -128.85 -9.55 -128.9 -9.15 -128.85 -8.95 -128.75 -7.0 -124.5 -5.0 -120.1 -3.95 -117.25 -3.85 -117.1 -3.85 -116.9 -3.9 -116.65 -4.15 -116.45 -4.5 -116.4 -4.75 -116.55 -6.8 -120.9 -8.75 -125.6 -9.8 -128.25 -9.8 -128.4" fill="#333333" fill-rule="evenodd" stroke="none"/>
    <path d="M-22.25 -128.2 L-19.5 -128.2 -10.75 -128.15 -9.0 -128.1 -8.6 -128.0 -8.35 -127.8 -8.2 -127.6 -8.15 -127.45 -8.1 -127.25 -8.1 -127.05 -8.15 -126.85 -8.25 -126.7 -8.4 -126.5 -8.6 -126.35 -9.0 -126.3 -10.75 -126.15 Q-17.05 -125.85 -23.2 -126.35 L-23.45 -126.55 -23.6 -126.75 -23.7 -126.95 -23.7 -127.1 -23.7 -127.3 -23.65 -127.5 -23.55 -127.65 -23.4 -127.85 -23.2 -128.0 -23.1 -128.05 -22.75 -128.1 -22.25 -128.15 -22.25 -128.2" fill="#333333" fill-rule="evenodd" stroke="none"/>
    <path d="M-23.0 -125.3 L-18.45 -125.45 -17.5 -125.55 -8.0 -125.55 -7.65 -125.45 -7.5 -125.2 -7.45 -125.05 -7.6 -124.95 -7.75 -124.85 -8.0 -124.8 -17.85 -124.7 -18.45 -124.65 -23.15 -124.55 -23.3 -124.75 -23.4 -124.95 -23.3 -125.1 -23.2 -125.2 -23.0 -125.3" fill="#333333" fill-rule="evenodd" stroke="none"/>
    <path d="M-31.5 -128.0 L-31.4 -128.15 -31.2 -128.35 -30.8 -128.45 -30.75 -128.5 -23.0 -128.5 -22.65 -128.35 -22.4 -128.2 -22.3 -128.0 -22.2 -127.8 -22.2 -127.6 -22.25 -127.45 -22.35 -127.25 -22.55 -127.05 -22.7 -126.95 -23.0 -126.85 -23.45 -126.8 -23.9 -126.7 -23.7 -126.5 -23.6 -126.3 -23.5 -126.1 -23.45 -125.95 -23.45 -125.75 -23.45 -125.55 -23.5 -125.35 -23.45 -125.2 -23.45 -125.0 -23.45 -124.8 -23.45 -124.45 -23.45 -124.05 -23.55 -123.85 -23.65 -123.7 -23.9 -123.5 -24.4 -123.3 -24.5 -123.1 -24.65 -122.95 -24.9 -122.75 -25.25 -122.6 -29.0 -122.6 -29.45 -122.75 -29.65 -122.95 -29.75 -123.1 -29.8 -123.3 -29.85 -123.5 -29.8 -123.7 -29.8 -124.05 -29.85 -124.25 -29.9 -124.4 -30.0 -124.6 -30.1 -124.8 -30.35 -125.2 -30.35 -125.35 -30.4 -125.55 -30.5 -125.75 -30.65 -125.9 -30.85 -126.1 -30.9 -126.3 -31.0 -126.5 -31.15 -126.65 -31.5 -127.05 -31.55 -127.25 -31.6 -127.45 -31.6 -127.6 -31.6 -127.8 -31.5 -128.0" fill="#333333" fill-rule="evenodd" stroke="none"/>
    <path d="M-22.9 -122.0 L-22.7 -121.8 -22.7 -121.6 -22.75 -121.45 -23.0 -121.3 -24.15 -121.2 -24.5 -121.05 -29.4 -121.25 -29.5 -121.45 -29.4 -121.6 -23.75 -122.05 -22.9 -122.0" fill="#333333" fill-rule="evenodd" stroke="none"/>
    <path d="M-7.15 -123.5 L-9.5 -123.5 -10.4 -123.55 -10.4 -123.7 -10.25 -123.85 -9.5 -123.9 -9.5 -123.95 -7.15 -123.85 -6.9 -123.7 -7.15 -123.5" fill="#333333" fill-rule="evenodd" stroke="none"/>
    <path d="M-21.4 -111.2 L-21.3 -111.3 -21.05 -111.4 -20.95 -111.45 -20.75 -111.25 -20.7 -110.85 -20.7 -110.5 -20.7 -110.1 -20.7 -109.95 -20.8 -109.75 -21.05 -109.35 -21.25 -109.0 -21.55 -108.8 -21.95 -108.75 -22.05 -108.95 -22.0 -109.1 -21.95 -109.3 -21.9 -109.5 -21.75 -109.7 -21.65 -109.85 -21.5 -110.05 -21.45 -110.45 -21.45 -110.8 -21.4 -111.2" fill="#333333" fill-rule="evenodd" stroke="none"/>
    <path d="M-19.45 -110.95 L-19.2 -110.75 -19.0 -110.55 -18.95 -110.35 -18.95 -110.2 -18.95 -109.8 -18.95 -109.45 -19.0 -109.25 -19.05 -109.05 -19.15 -108.9 -19.3 -108.75 -19.55 -108.85 -19.6 -109.05 -19.65 -109.25 -19.7 -109.45 -19.7 -109.6 -19.7 -109.8 -19.7 -110.0 -19.7 -110.2 -19.75 -110.35 -19.85 -110.55 -19.9 -110.75 -19.8 -110.85 -19.75 -110.9 -19.55 -110.95 -19.45 -110.95" fill="#333333" fill-rule="evenodd" stroke="none"/>
    <path d="M6.05 -110.85 L6.05 -110.7 6.05 -110.5 6.05 -110.3 6.1 -110.1 6.15 -109.9 6.25 -109.75 6.35 -109.55 6.35 -109.35 6.35 -109.2 6.45 -109.0 6.55 -108.8 6.55 -108.6 6.5 -108.4 6.45 -108.25 6.35 -108.1 6.15 -108.05 6.05 -108.15 6.0 -108.35 5.85 -108.55 5.7 -108.75 5.65 -108.95 5.6 -109.1 5.6 -109.3 5.5 -109.5 5.45 -109.7 5.4 -109.85 5.4 -110.05 5.4 -110.25 5.45 -110.6 5.35 -110.75 5.1 -111.0 5.0 -111.2 5.05 -111.3 5.05 -111.35 5.25 -111.35 5.35 -111.35 5.75 -111.25 6.0 -111.05 6.05 -110.85" fill="#333333" fill-rule="evenodd" stroke="none"/>
    <path d="M7.05 -113.5 L7.2 -113.3 7.25 -113.1 7.3 -112.9 7.3 -112.75 7.4 -112.55 7.5 -112.35 7.55 -112.15 7.55 -112.0 7.55 -111.8 7.5 -111.6 7.45 -111.4 7.35 -111.25 7.25 -111.1 7.15 -111.25 7.05 -111.4 6.95 -111.6 6.95 -111.8 6.95 -112.0 6.85 -112.15 6.75 -112.35 6.7 -112.55 6.65 -112.75 6.6 -112.9 6.5 -113.1 6.45 -113.3 6.45 -113.5 6.5 -113.65 6.55 -113.8 6.55 -113.85 6.75 -113.85 6.85 -113.85 7.0 -113.65 7.05 -113.5" fill="#333333" fill-rule="evenodd" stroke="none"/>
    <path d="M5.25 -122.0 L5.25 -121.95 5.35 -121.65 5.55 -121.6 5.75 -121.55 5.9 -121.45 8.35 -121.4 11.0 -121.25 12.85 -121.35 13.05 -121.45 13.25 -121.6 13.35 -121.95 13.25 -122.4 13.05 -122.55 12.85 -122.65 10.25 -122.65 7.4 -122.5 5.75 -122.45 5.55 -122.4 5.35 -122.3 5.25 -122.0" fill="#333333" fill-rule="evenodd" stroke="none"/>
    <path d="M5.3 -117.3 L5.2 -117.0 5.15 -116.95 5.3 -116.65 5.5 -116.55 5.65 -116.45 5.85 -116.55 6.05 -116.65 6.25 -116.75 6.4 -116.85 6.6 -116.85 6.8 -116.8 7.0 -116.7 8.85 -116.65 10.9 -116.6 12.6 -116.6 12.8 -116.6 13.0 -116.75 13.15 -116.9 13.3 -117.2 13.15 -117.6 13.0 -117.8 11.1 -117.85 9.05 -117.8 7.35 -117.8 7.2 -117.85 7.0 -117.95 6.8 -118.05 6.6 -118.0 6.4 -117.95 6.25 -117.9 6.05 -117.85 5.85 -117.8 5.7 -117.65 5.5 -117.45 5.3 -117.3" fill="#333333" fill-rule="evenodd" stroke="none"/>
    <path d="M12.9 -116.95 L13.05 -116.85 13.25 -116.85 13.4 -116.9 13.5 -117.0 13.6 -117.2 13.6 -119.45 13.4 -122.9 13.25 -123.0 13.05 -123.05 12.95 -122.9 Q12.7 -121.15 12.75 -119.45 L12.75 -117.2 12.9 -116.95" fill="#333333" fill-rule="evenodd" stroke="none"/>
    <path d="M6.15 -116.9 L6.2 -121.45 6.15 -121.9 6.0 -122.1 5.85 -122.2 5.75 -122.2 5.6 -122.2 5.45 -122.15 5.35 -122.05 5.2 -121.9 5.2 -121.8 5.15 -121.5 5.1 -121.45 5.1 -117.2 5.2 -116.85 5.35 -116.6 5.5 -116.45 5.6 -116.35 5.75 -116.4 5.9 -116.55 6.0 -116.65 6.15 -116.8 6.15 -116.9" fill="#333333" fill-rule="evenodd" stroke="none"/>
    <path d="M8.2 -119.2 L8.15 -119.25 6.05 -119.2 5.85 -119.0 5.85 -118.8 5.9 -118.65 6.15 -118.5 8.4 -118.45 8.65 -118.4 8.9 -118.3 9.15 -118.25 10.4 -118.3 10.8 -118.45 10.9 -118.65 10.8 -118.8 10.4 -118.95 9.2 -119.05 8.4 -119.2 8.2 -119.2" fill="#333333" fill-rule="evenodd" stroke="none"/>
    <path d="M19.2 -107.9 L19.4 -108.35 19.8 -108.6 19.8 -108.65 20.25 -108.35 20.4 -108.0 20.5 -100.15 Q20.45 -96.1 20.55 -92.0 L20.45 -87.05 20.6 -61.7 20.6 -35.9 20.6 -10.1 20.7 15.7 20.85 41.5 21.0 67.3 21.1 93.05 20.95 118.9 20.9 122.6 20.8 123.0 20.65 123.4 20.3 123.8 19.8 124.05 19.25 123.8 18.95 123.35 18.8 123.0 Q18.45 110.35 18.55 97.6 L18.7 71.75 18.8 46.0 18.95 20.2 19.0 -5.55 19.05 -31.4 19.05 -57.2 19.0 -83.0 19.15 -87.05 Q19.05 -90.75 19.1 -94.45 L19.15 -102.25 19.15 -107.55 19.2 -107.9" fill="#333333" fill-rule="evenodd" stroke="none"/>
    <path d="M20.5 -109.35 L21.15 -109.1 26.25 -109.1 31.25 -109.1 31.8 -108.75 32.0 -108.45 32.05 -108.1 31.9 -107.7 31.7 -107.55 31.25 -107.35 26.25 -107.4 20.9 -107.6 20.15 -108.0 19.7 -108.4 19.5 -108.7 19.65 -109.05 19.9 -109.3 20.25 -109.35 20.5 -109.35" fill="#333333" fill-rule="evenodd" stroke="none"/>
    <path d="M30.0 -108.1 L30.05 -108.5 30.15 -108.9 30.4 -109.1 30.75 -109.2 31.0 -109.2 31.4 -108.8 31.5 -108.35 31.65 -108.0 31.85 -107.55 32.0 -107.15 31.95 -106.8 31.75 -106.35 Q31.55 -93.6 31.7 -80.95 L31.9 -55.15 31.9 -29.35 31.9 -3.55 32.0 22.25 32.2 48.05 32.25 73.85 32.35 99.65 32.25 122.15 32.2 122.55 32.05 123.0 31.85 123.35 31.65 123.7 31.35 123.8 30.75 123.95 29.9 123.7 29.5 123.25 29.25 122.85 29.2 97.5 29.3 71.65 Q29.25 58.75 29.35 45.85 L29.55 20.1 29.65 -5.75 29.65 -31.55 29.65 -57.3 29.8 -83.15 29.9 -106.05 30.05 -106.45 30.25 -106.9 30.2 -107.25 30.05 -107.7 30.0 -108.1" fill="#333333" fill-rule="evenodd" stroke="none"/>
    <path d="M25.9 -108.3 L25.95 -108.5 26.0 -108.7 26.25 -108.75 26.4 -108.75 26.85 -108.55 27.1 -108.4 27.2 -108.2 27.3 -108.0 27.35 -107.8 27.4 -107.65 27.3 -107.45 27.2 -107.25 27.15 -107.05 27.3 -95.8 27.25 -84.0 27.25 -72.2 27.25 -60.35 27.25 -48.55 27.3 -36.75 27.15 -29.4 27.1 -29.25 27.0 -29.05 27.0 -28.85 27.0 -28.65 26.95 -28.5 26.9 -28.3 26.9 -28.1 26.85 -27.95 26.7 -27.95 26.65 -28.05 26.65 -28.25 26.6 -28.4 26.5 -28.6 26.5 -28.8 26.5 -29.0 26.45 -29.15 26.4 -29.35 Q26.2 -34.95 26.25 -40.6 L26.25 -52.45 26.25 -64.25 26.25 -76.05 26.25 -87.85 26.25 -99.7 26.4 -107.2 26.45 -107.35 26.5 -107.55 26.5 -107.75 26.4 -107.95 26.1 -108.15 25.9 -108.3" fill="#333333" fill-rule="evenodd" stroke="none"/>
    <path d="M26.0 -13.45 L26.1 -13.65 26.35 -13.85 26.6 -13.95 26.7 -13.95 26.9 -13.7 26.85 -13.5 26.7 -13.35 26.85 -0.4 26.95 12.5 26.95 25.4 26.9 38.3 26.85 51.2 26.9 64.1 27.1 77.0 27.2 89.9 27.2 102.8 27.1 115.7 26.9 124.5 26.85 124.7 26.8 124.9 26.7 125.1 26.6 125.2 26.35 125.3 26.05 125.15 25.85 125.0 Q25.45 118.55 25.45 112.05 L25.45 99.2 25.5 86.3 25.65 73.35 25.8 60.5 25.8 47.6 25.8 34.65 25.8 21.75 25.75 8.9 25.8 -4.0 25.95 -13.2 26.0 -13.45" fill="#333333" fill-rule="evenodd" stroke="none"/>
    <path d="M27.25 57.2 L27.25 57.1 29.75 57.35 30.5 58.1 30.95 58.85 31.25 59.6 31.4 60.35 31.2 61.05 30.75 61.85 31.25 85.1 31.6 111.35 Q31.7 119.65 31.25 127.85 L30.95 128.55 30.25 129.35 28.5 129.6 27.5 128.85 27.0 128.1 27.05 104.1 27.25 77.85 Q27.3 69.15 28.0 60.6 L28.45 60.05 28.5 59.95 26.5 59.35 26.15 58.55 26.0 57.85 26.55 57.45 27.25 57.2" fill="#333333" fill-rule="evenodd" stroke="none"/>
    <path d="M29.9 54.15 L30.05 54.35 30.1 54.55 30.1 54.75 30.0 54.9 29.85 55.1 29.45 55.3 29.1 55.4 26.85 55.5 26.45 55.35 26.3 55.15 26.2 55.0 26.2 54.8 26.25 54.65 26.4 54.45 26.6 54.3 26.85 54.25 29.6 54.05 29.9 54.15" fill="#333333" fill-rule="evenodd" stroke="none"/>
    <path d="M13.25 -120.8 L13.45 -120.7 18.5 -120.55 23.45 -120.45 26.3 -120.3 26.6 -120.35 26.8 -120.45 27.1 -120.6 27.3 -120.95 27.1 -121.3 26.85 -121.5 21.85 -121.45 16.9 -121.3 14.0 -121.3 13.75 -121.3 13.45 -121.2 13.3 -121.15 13.25 -121.1 13.25 -120.95 13.25 -120.8" fill="#333333" fill-rule="evenodd" stroke="none"/>
    <path d="M13.2 -118.45 L13.15 -118.45 13.35 -118.1 13.55 -118.0 Q13.65 -117.95 13.8 -117.85 L17.9 -117.75 22.3 -117.65 23.85 -117.65 23.8 -118.4 23.65 -118.45 23.5 -118.55 23.4 -118.65 23.25 -118.8 23.15 -119.05 23.1 -119.15 21.05 -119.15 16.75 -119.05 13.9 -119.0 13.65 -118.95 13.4 -118.85 13.2 -118.7 13.2 -118.45" fill="#333333" fill-rule="evenodd" stroke="none"/>
    <path d="M26.35 -115.8 L26.45 -108.25 26.6 -107.8 26.8 -107.7 27.05 -107.6 27.25 -107.55 27.5 -107.5 27.75 -107.5 27.9 -107.55 28.15 -107.65 28.35 -107.8 28.15 -107.95 28.15 -108.0 Q28.25 -114.15 28.0 -120.3 L27.8 -120.45 27.55 -120.5 27.35 -120.55 27.15 -120.55 26.9 -120.5 26.75 -120.45 26.65 -120.4 26.6 -120.3 26.45 -116.2 26.35 -115.8" fill="#333333" fill-rule="evenodd" stroke="none"/>
    <path d="M23.65 -119.7 L23.6 -119.6 23.35 -108.5 23.45 -108.3 23.6 -108.2 23.85 -108.05 24.0 -107.9 24.2 -107.85 24.35 -107.9 24.6 -107.95 24.6 -108.1 24.4 -108.3 24.25 -108.5 24.4 -108.6 24.45 -108.7 Q24.65 -114.15 24.45 -119.6 L24.4 -119.6 24.3 -119.65 24.2 -119.7 24.1 -119.75 24.1 -119.8 23.95 -119.8 23.75 -119.75 23.65 -119.7" fill="#333333" fill-rule="evenodd" stroke="none"/>
    <path d="M30.6 -97.1 L30.85 -96.95 30.95 -96.8 31.0 -96.65 30.9 -96.45 30.85 -96.35 30.6 -96.25 20.4 -96.3 20.1 -96.2 19.8 -96.3 19.8 -96.5 19.9 -96.65 20.1 -96.85 20.35 -97.0 20.6 -97.05 27.85 -97.1 30.6 -97.1" fill="#333333" fill-rule="evenodd" stroke="none"/>
    <path d="M30.35 -87.6 L30.7 -87.5 30.9 -87.3 30.95 -87.1 31.0 -86.95 30.95 -86.75 30.9 -86.55 30.7 -86.35 30.35 -86.25 25.6 -86.25 20.35 -86.3 19.95 -86.45 19.8 -86.65 19.7 -86.8 19.7 -87.0 19.75 -87.15 19.9 -87.35 20.1 -87.5 20.35 -87.55 25.6 -87.6 30.35 -87.6" fill="#333333" fill-rule="evenodd" stroke="none"/>
    <path d="M23.8 -108.3 L23.9 -108.25 24.0 -108.15 24.0 -108.1 24.0 -107.9 24.05 -107.65 24.15 -107.55 24.25 -107.5 24.3 -107.45 24.4 -107.3 24.5 -107.25 24.6 -107.2 24.7 -107.2 24.8 -107.2 24.9 -107.2 25.0 -107.2 25.05 -107.2 25.15 -107.25 25.25 -107.3 25.35 -107.35 25.55 -107.35 25.75 -107.35 26.0 -107.35 26.2 -107.35 26.4 -107.4 26.5 -107.4 26.55 -107.45 26.65 -107.5 26.95 -107.7 27.05 -107.8 27.1 -108.05 27.05 -108.25 26.95 -108.4 26.85 -108.45 26.9 -108.45 27.0 -108.45 27.05 -108.45 27.15 -108.5 27.25 -108.55 27.35 -108.65 27.4 -108.7 27.45 -108.9 27.4 -109.1 27.3 -109.3 27.2 -109.4 27.1 -109.45 27.05 -109.5 27.1 -109.65 27.15 -109.8 27.05 -110.0 26.95 -110.15 26.9 -110.2 26.3 -110.25 25.65 -110.25 24.65 -110.2 24.15 -110.2 24.05 -110.2 24.0 -110.15 23.9 -110.0 23.8 -109.8 23.8 -109.65 23.9 -109.4 24.0 -109.3 24.05 -109.25 24.1 -109.2 24.05 -109.2 23.95 -109.2 23.85 -109.15 23.75 -109.05 23.7 -108.9 23.75 -108.75 23.75 -108.55 23.8 -108.3" fill="#333333" fill-rule="evenodd" stroke="none"/>
    <path d="M24.65 -111.15 L24.7 -110.95 24.8 -110.9 24.9 -110.85 25.45 -110.8 26.1 -110.75 26.65 -110.75 26.75 -110.7 26.85 -110.7 26.95 -110.65 27.05 -110.65 27.15 -110.65 27.25 -110.65 27.3 -110.65 27.4 -110.7 27.5 -110.7 27.6 -110.75 27.7 -110.85 27.75 -111.05 27.7 -111.25 27.6 -111.3 27.5 -111.4 27.4 -111.4 27.3 -111.4 27.25 -111.4 27.15 -111.4 27.05 -111.45 26.95 -111.45 26.85 -111.5 26.2 -111.5 25.45 -111.45 24.9 -111.4 24.8 -111.35 24.7 -111.3 24.65 -111.15" fill="#333333" fill-rule="evenodd" stroke="none"/>
    <path d="M20.4 114.9 L20.5 115.65 20.55 116.6 20.5 117.7 20.6 117.9 20.65 118.1 20.7 118.25 20.75 125.6 20.8 133.1 20.85 137.4 20.75 137.6 20.65 137.8 20.6 137.95 20.35 138.15 20.15 138.3 19.75 138.35 19.25 138.2 19.0 138.0 18.85 137.85 18.75 137.65 Q18.6 134.0 18.7 130.35 L18.85 122.65 18.85 118.15 18.9 117.95 18.95 117.75 19.0 117.6 19.0 116.85 19.05 115.9 19.15 114.95 19.2 114.8 19.35 114.6 19.5 114.45 19.75 114.45 19.75 114.4 20.1 114.5 20.25 114.7 20.4 114.9" fill="#333333" fill-rule="evenodd" stroke="none"/>
    <path d="M18.0 137.9 L18.2 138.1 18.6 138.45 18.9 138.65 19.25 138.8 19.65 138.95 19.8 139.1 20.0 139.3 20.15 139.45 20.25 139.65 20.25 139.85 20.3 140.0 20.2 140.2 20.1 140.4 19.75 140.5 19.5 140.5 19.15 140.4 19.05 140.2 18.95 140.0 18.75 139.85 18.05 139.45 17.6 139.1 17.2 138.7 17.2 139.0 17.2 139.4 17.2 139.75 17.2 139.95 17.15 140.15 17.05 140.3 16.9 140.5 16.5 140.7 16.25 140.85 11.4 140.65 11.25 140.45 11.4 140.25 15.75 140.1 16.25 139.95 16.3 139.75 16.35 139.6 16.35 139.4 16.3 139.2 16.2 139.05 16.0 138.85 15.85 138.65 15.85 138.45 15.8 138.3 15.8 138.1 15.75 137.9 15.85 137.7 15.95 137.6 16.0 137.5 16.25 137.45 17.0 137.45 17.0 137.4 17.25 137.4 17.6 137.5 17.8 137.7 18.0 137.9" fill="#333333" fill-rule="evenodd" stroke="none"/>
    <path d="M20.2 139.2 L20.35 139.0 20.45 138.85 20.5 138.65 20.6 138.45 20.7 138.1 20.7 137.9 21.0 137.3 21.45 136.6 21.65 136.2 21.65 136.05 21.85 135.65 22.05 135.3 22.15 135.1 22.2 134.9 22.3 134.55 22.4 134.15 22.45 133.95 22.6 133.75 22.7 133.6 22.85 133.4 22.9 133.2 22.95 133.0 23.1 132.85 23.2 132.65 23.4 132.45 23.5 132.25 23.55 132.1 23.65 131.9 23.8 131.8 24.0 131.75 24.0 131.7 24.35 131.85 24.45 132.0 24.5 132.2 24.5 132.6 24.5 132.95 24.5 133.15 24.5 133.35 24.4 133.5 24.3 134.45 24.35 135.6 24.35 136.7 24.35 136.9 24.5 137.1 24.6 137.25 24.65 137.45 24.7 137.65 24.7 137.85 24.7 138.0 24.7 138.2 24.7 138.4 24.7 138.6 24.6 138.75 24.45 138.95 24.3 139.05 24.0 139.15 23.6 139.0 23.45 138.85 23.3 138.65 23.15 138.45 23.15 137.15 23.25 135.65 23.15 134.35 23.1 134.45 23.0 134.85 22.9 135.2 22.75 135.6 22.65 135.8 22.55 135.95 22.45 136.15 22.4 136.35 22.2 136.5 21.95 137.05 21.45 137.85 21.2 138.2 21.15 138.4 21.1 138.6 20.95 138.75 20.7 139.15 20.45 139.5 20.15 139.6 20.15 139.4 20.2 139.2" fill="#333333" fill-rule="evenodd" stroke="none"/>
    <path d="M31.5 120.65 L31.85 120.75 32.0 120.95 32.15 121.15 32.3 125.65 32.4 130.35 32.35 133.15 32.25 133.35 32.15 133.5 31.95 133.7 31.5 133.85 31.1 133.7 30.85 133.5 30.7 133.35 30.7 128.85 30.8 124.15 30.9 121.15 31.0 120.95 31.15 120.75 31.5 120.7 31.5 120.65" fill="#333333" fill-rule="evenodd" stroke="none"/>
    <path d="M25.75 139.75 L24.75 139.45 24.45 139.25 24.2 139.1 24.0 138.9 24.0 138.7 23.9 138.5 23.85 138.35 23.85 138.15 23.9 137.95 24.0 137.85 24.25 137.8 24.25 137.75 24.6 137.9 24.7 138.1 24.85 138.25 25.0 138.4 25.85 138.65 26.25 138.75 26.5 138.85 26.75 138.85 27.0 138.9 27.25 138.95 27.5 139.0 32.6 138.95 33.3 138.8 34.0 138.75 34.4 138.9 34.55 139.1 34.65 139.25 34.7 139.45 34.65 139.65 34.6 139.85 34.4 140.0 33.0 140.3 32.5 140.4 27.75 140.35 26.8 140.05 25.75 139.75" fill="#333333" fill-rule="evenodd" stroke="none"/>
    <path d="M31.65 129.45 L31.9 129.65 32.1 129.85 32.3 133.2 32.4 136.75 32.45 139.0 32.4 139.2 32.25 139.4 32.15 139.5 32.1 139.55 31.75 139.65 31.35 139.5 31.2 139.35 31.1 139.15 31.15 135.95 31.25 132.4 31.4 130.15 31.3 129.95 31.25 129.75 31.2 129.6 31.35 129.5 31.5 129.45 31.65 129.45" fill="#333333" fill-rule="evenodd" stroke="none"/>
    <path d="M27.9 121.5 L28.1 121.7 28.3 128.1 28.35 134.65 28.4 138.4 28.35 138.6 28.25 138.75 28.1 138.95 27.75 139.1 27.4 138.95 27.2 138.75 27.15 132.2 27.25 125.45 27.45 121.7 27.55 121.6 27.6 121.55 27.75 121.5 27.9 121.5" fill="#333333" fill-rule="evenodd" stroke="none"/>
    <path d="M31.1 125.9 L31.0 128.15 31.0 130.6 31.0 132.45 31.05 132.55 31.45 132.7 31.65 132.9 31.75 133.1 31.85 133.25 31.9 133.45 31.9 133.65 31.9 133.85 31.9 134.2 31.9 134.4 32.0 134.6 32.1 134.75 32.15 135.15 32.15 135.7 32.15 136.1 32.15 136.25 32.1 136.45 32.0 136.65 31.95 136.85 31.9 137.0 31.9 137.2 31.9 137.4 31.9 137.6 31.85 137.75 31.75 137.95 31.65 138.15 31.65 138.35 31.65 138.5 31.6 138.7 31.5 138.9 31.4 139.1 31.2 139.2 31.1 139.25 30.75 139.35 30.35 139.2 30.1 139.0 29.95 138.85 29.9 138.65 29.6 138.75 28.0 138.85 27.6 138.7 27.35 138.5 27.2 138.35 27.1 135.35 27.15 132.15 27.15 129.9 27.2 129.7 27.25 129.5 27.35 129.35 27.4 129.15 27.5 128.95 27.6 128.75 27.65 128.6 27.65 128.4 27.65 128.2 27.75 128.0 27.9 127.85 28.2 127.65 28.35 127.45 28.4 127.25 28.4 127.1 28.45 126.9 28.6 126.7 28.85 126.55 29.15 126.3 29.2 126.15 29.3 125.95 29.4 125.8 29.55 125.6 29.7 125.4 29.75 125.2 29.75 125.0 29.75 124.85 29.8 124.65 29.9 124.45 30.05 124.35 30.25 124.3 30.25 124.25 30.6 124.4 30.7 124.6 30.75 124.75 30.75 124.95 30.75 125.15 30.8 125.3 30.9 125.5 31.0 125.7 31.1 125.9" fill="#333333" fill-rule="evenodd" stroke="none"/>
    <path d="M19.25 136.5 L19.6 136.65 19.75 136.85 19.9 136.85 20.25 136.85 20.6 136.95 20.75 137.15 20.9 137.35 20.9 137.7 20.9 138.1 20.9 138.45 20.9 139.0 20.8 139.2 20.7 139.4 20.5 139.5 20.25 139.6 19.9 139.45 19.7 139.5 19.55 139.55 19.25 139.65 18.85 139.5 18.7 139.35 18.6 139.15 18.6 138.6 18.6 138.2 18.55 137.65 18.65 137.1 18.75 136.9 18.9 136.7 19.05 136.6 19.25 136.55 19.25 136.5" fill="#333333" fill-rule="evenodd" stroke="none"/>
    <path d="M30.05 137.15 L30.2 137.35 30.25 137.45 30.25 137.5 32.1 137.8 32.4 137.9 32.55 138.1 32.65 138.25 32.7 138.45 32.65 138.65 32.6 138.85 32.4 139.0 32.1 139.1 30.5 139.45 29.25 139.45 28.85 139.35 28.65 139.15 28.55 138.95 28.5 138.75 28.2 138.6 28.0 138.4 28.0 138.2 28.05 138.05 28.05 137.85 28.1 137.65 28.2 137.5 28.65 137.1 28.85 136.95 29.0 136.85 29.9 136.95 30.05 137.15" fill="#333333" fill-rule="evenodd" stroke="none"/>
    <path d="M50.1 139.85 L43.75 139.95 39.5 140.35 39.1 140.2 38.85 140.0 38.65 139.85 38.45 139.45 38.4 139.25 38.4 139.1 38.35 138.9 38.25 138.75 38.1 138.9 36.2 139.25 34.7 139.8 34.25 139.95 Q32.05 140.4 29.9 139.9 L29.75 139.85 29.25 139.75 28.9 139.65 28.75 139.45 28.65 139.25 28.55 139.1 28.5 138.9 28.6 138.7 28.7 138.6 28.75 138.5 29.0 138.45 29.25 138.5 29.5 138.6 30.0 138.7 30.15 138.75 33.35 138.7 33.75 138.55 34.6 138.2 34.95 138.0 37.55 137.35 38.8 137.0 39.75 136.85 39.95 136.7 40.25 136.7 40.25 136.65 40.65 136.75 40.9 136.95 41.0 137.15 41.05 137.35 41.1 137.5 41.1 137.7 41.1 137.9 41.1 138.1 41.0 138.25 40.9 138.45 42.45 138.5 50.25 138.15 50.65 138.25 50.9 138.45 51.4 138.65 51.6 138.85 51.7 139.05 51.8 139.2 51.7 139.4 51.6 139.6 51.4 139.75 51.0 139.9 50.5 139.95 50.2 139.9 50.1 139.85" fill="#333333" fill-rule="evenodd" stroke="none"/>
    <path d="M57.45 139.15 L57.55 139.35 57.55 139.5 57.45 139.7 57.4 139.9 57.3 140.1 57.2 140.2 57.1 140.25 56.85 140.35 56.35 140.25 55.7 140.35 55.35 140.45 52.1 140.4 51.8 140.25 51.7 140.1 51.65 139.9 51.65 139.7 51.7 139.55 51.85 139.35 52.05 139.15 52.35 139.05 53.15 138.7 53.4 138.65 53.6 138.65 53.7 138.65 54.15 138.85 54.35 139.05 54.45 139.2 54.45 139.3 55.35 139.4 55.6 139.25 55.85 139.2 56.35 139.1 56.45 138.95 56.6 138.9 56.85 138.85 57.2 138.95 57.45 139.15" fill="#333333" fill-rule="evenodd" stroke="none"/>
    <path d="M60.25 139.45 L60.4 139.4 60.7 139.2 60.9 139.05 61.15 138.95 62.4 138.7 62.6 138.6 62.75 138.6 63.65 138.6 63.85 138.65 64.0 138.75 64.05 138.85 64.15 138.95 64.2 139.05 64.15 139.1 64.1 139.2 64.0 139.3 64.0 139.4 63.95 139.5 63.9 139.6 63.75 139.7 63.6 139.8 63.5 139.85 63.4 139.85 63.25 139.9 62.85 139.95 62.65 140.05 62.55 140.1 62.4 140.15 61.25 140.15 61.15 140.15 60.65 140.2 60.15 140.1 60.1 140.0 60.05 139.95 60.0 139.85 60.0 139.75 60.05 139.65 60.1 139.55 60.15 139.5 60.25 139.45" fill="#333333" fill-rule="evenodd" stroke="none"/>
    <path d="M26.5 129.1 L26.55 129.1 26.6 129.2 26.6 129.3 26.65 129.4 26.7 129.45 26.8 129.55 26.8 129.65 26.8 129.75 26.75 129.85 26.85 133.5 26.95 137.25 27.0 139.4 26.95 139.5 26.9 139.6 26.85 139.7 26.75 139.8 26.65 139.85 26.5 139.9 26.3 139.8 26.15 139.7 26.05 139.65 26.1 135.95 26.2 132.15 26.3 129.95 26.35 129.9 26.4 129.8 26.45 129.7 26.45 129.6 26.4 129.5 26.4 129.4 26.4 129.3 26.4 129.2 26.45 129.15 26.5 129.1" fill="#333333" fill-rule="evenodd" stroke="none"/>
  </g>
</svg>
