<?xml version="1.0" encoding="UTF-8" standalone="no"?>
<svg xmlns:xlink="http://www.w3.org/1999/xlink" height="163.7px" width="65.35px" xmlns="http://www.w3.org/2000/svg">
  <g transform="matrix(1.0, 0.0, 0.0, 1.0, -11.25, 22.45)">
    <path d="M19.75 -20.45 L19.9 -20.6 31.25 -21.1 31.25 139.85 27.9 139.85 26.9 139.4 26.15 139.2 24.0 138.9 24.1 136.7 24.2 136.65 24.35 135.85 24.35 134.95 24.35 134.45 24.3 134.35 24.2 134.25 24.05 134.1 23.95 134.0 23.75 133.95 23.6 133.85 23.35 133.8 23.35 133.85 23.2 133.85 22.95 133.95 22.8 134.0 22.7 134.1 22.6 134.25 22.5 134.3 22.45 134.45 22.45 134.6 22.4 134.65 22.4 134.95 22.3 135.85 22.2 135.85 22.15 135.9 22.1 136.0 22.05 136.1 22.05 136.2 22.0 136.35 21.9 136.5 21.9 136.55 21.8 136.65 21.3 137.5 20.65 138.6 20.25 139.4 20.2 139.45 19.85 139.4 19.75 139.45 19.75 -20.45" fill="#b7ae9d" fill-rule="evenodd" stroke="none"/>
    <path d="M26.05 -21.8 L28.65 -22.1 30.5 -22.1 30.55 -4.0 30.55 21.0 30.5 46.45 30.5 71.85 30.5 97.25 30.55 122.65 30.35 129.4 30.15 129.8 29.95 130.15 29.75 130.6 29.25 130.95 28.25 131.25 27.25 130.95 26.75 130.55 26.35 130.15 26.25 129.8 26.1 129.4 26.0 129.0 26.0 104.75 26.0 79.8 26.0 54.35 26.0 29.35 26.05 4.35 26.05 -21.05 26.05 -21.8" fill="#663333" fill-opacity="0.2" fill-rule="evenodd" stroke="none"/>
    <path d="M29.0 21.55 L29.35 21.9 29.4 22.35 29.5 22.7 29.6 23.15 29.75 23.5 29.75 25.5 29.9 27.5 30.0 29.05 30.15 29.45 30.35 29.85 30.5 30.3 30.6 30.65 30.75 31.1 30.8 55.7 30.85 81.1 30.85 106.1 30.85 106.5 30.7 106.9 30.5 107.3 30.35 107.65 29.85 108.05 29.5 108.35 28.75 108.45 27.75 108.2 27.25 107.8 26.9 107.4 26.75 107.05 Q26.45 94.7 26.55 82.45 L26.7 57.0 26.65 32.0 26.85 30.4 27.0 30.0 27.25 29.6 27.5 29.25 27.55 27.2 27.7 25.25 27.75 23.25 27.85 22.9 28.0 22.45 28.1 22.1 28.3 21.75 28.75 21.55 29.0 21.55" fill="#663333" fill-opacity="0.2" fill-rule="evenodd" stroke="none"/>
    <path d="M26.85 -21.8 L28.65 -22.1 30.65 -22.1 30.7 1.8 30.75 26.85 30.8 52.25 30.9 77.25 31.0 102.65 31.0 109.0 30.85 109.4 30.75 109.8 30.55 110.15 30.2 110.6 29.75 111.0 28.75 111.25 27.75 111.0 27.25 110.6 26.9 110.15 26.6 109.8 Q26.4 97.5 26.5 85.2 L26.6 60.2 26.65 35.15 26.7 10.15 26.8 -15.25 26.85 -21.8" fill="#663333" fill-opacity="0.2" fill-rule="evenodd" stroke="none"/>
    <path d="M20.95 -21.6 L22.85 -21.7 22.85 -7.05 22.85 18.4 22.85 43.8 22.8 68.75 22.75 94.2 22.6 119.6 22.6 133.9 22.45 134.25 22.2 134.65 22.0 134.95 21.85 135.05 21.25 135.2 20.35 134.95 20.1 134.55 19.85 134.15 19.75 109.55 19.75 84.55 19.65 59.15 19.55 33.75 19.6 8.3 19.6 -17.1 19.6 -21.05 20.95 -21.6" fill="#ffffff" fill-opacity="0.2" fill-rule="evenodd" stroke="none"/>
    <path d="M23.25 70.75 L23.25 70.6 24.0 70.9 24.5 71.3 24.75 71.7 25.0 72.1 25.1 72.45 25.2 72.9 25.25 73.25 25.5 73.7 25.7 74.05 25.85 74.5 26.05 76.45 25.95 79.25 26.1 82.0 26.3 82.35 26.75 82.8 26.85 83.2 27.0 83.6 27.1 84.0 27.1 84.8 27.1 85.95 27.1 87.2 27.1 88.0 27.25 88.35 27.35 88.8 27.35 89.15 27.55 89.5 28.0 89.95 28.25 90.35 28.5 90.75 28.75 95.15 Q28.8 97.7 29.35 100.25 L30.25 104.25 30.25 110.2 30.25 116.95 30.25 122.5 30.1 122.85 29.85 123.3 29.75 123.7 29.75 124.1 29.75 124.5 29.6 124.9 29.35 125.3 29.1 125.65 28.6 126.1 27.75 126.35 27.25 126.45 27.25 127.7 27.25 129.65 27.25 131.65 27.25 132.0 27.1 132.45 27.0 132.8 26.85 133.25 26.75 133.6 26.6 134.05 26.35 134.4 26.25 134.85 26.25 135.2 26.25 135.6 26.2 136.0 26.1 136.4 25.95 136.8 25.7 137.15 25.35 137.6 25.0 137.85 24.25 137.95 24.2 137.95 24.15 137.95 24.05 137.9 23.7 137.9 23.55 137.9 23.55 137.8 23.55 137.7 23.55 137.6 23.6 137.55 23.6 137.5 23.65 137.25 23.7 137.0 23.75 136.9 23.75 136.8 23.75 136.7 23.75 136.6 23.75 136.35 23.7 136.3 23.7 136.2 23.6 136.1 23.55 136.0 23.55 135.9 23.6 135.8 23.6 135.7 23.65 135.6 23.65 135.5 23.65 135.4 23.65 135.15 23.6 135.1 23.6 134.95 23.65 134.9 23.65 134.6 23.6 134.55 23.6 134.5 23.55 134.4 23.5 134.35 23.4 134.3 23.35 134.25 23.25 134.2 23.15 134.2 23.05 134.2 22.95 134.25 22.85 134.3 22.75 134.4 22.65 134.6 22.55 134.7 22.5 134.85 22.5 134.9 22.45 134.95 22.4 135.0 22.35 135.05 22.3 135.1 22.3 135.15 22.25 135.2 22.25 135.3 22.0 135.75 21.55 136.45 21.55 136.5 20.75 135.75 20.5 135.3 20.35 134.95 20.3 134.15 20.25 132.55 20.25 130.95 20.25 130.15 20.35 129.8 20.5 129.4 20.6 129.0 20.75 128.6 20.85 126.2 21.1 123.45 21.25 120.25 Q20.55 118.35 20.65 116.3 L20.75 111.1 20.75 107.15 20.6 106.75 20.5 106.35 20.35 106.0 20.35 103.6 20.35 100.4 20.35 97.25 20.5 96.8 20.75 96.45 20.9 93.3 20.8 89.3 Q20.7 87.25 21.35 85.35 L21.3 84.95 21.15 84.5 21.0 84.1 20.9 83.75 20.85 83.35 20.85 82.95 20.8 82.6 20.5 82.1 20.25 81.75 20.0 81.35 20.0 79.8 20.0 77.75 20.0 75.4 20.0 75.0 20.15 74.6 20.35 74.2 20.45 73.8 20.5 73.45 20.7 73.0 20.9 72.65 21.1 72.2 21.25 71.85 21.6 71.4 22.25 71.05 22.6 70.8 23.25 70.75" fill="#663333" fill-opacity="0.2" fill-rule="evenodd" stroke="none"/>
    <path d="M23.25 56.95 L23.1 56.6 23.15 56.2 23.2 55.8 23.25 55.45 23.35 54.65 23.5 54.2 23.75 53.85 24.35 53.4 24.6 53.15 25.0 52.8 25.7 52.55 25.75 52.5 26.35 52.8 26.7 53.2 27.0 53.6 27.0 55.15 26.95 57.1 27.1 59.15 27.1 59.5 27.05 59.9 26.85 60.3 26.6 60.7 26.1 61.1 26.15 61.5 26.25 61.9 26.35 62.3 26.5 62.7 26.5 63.1 26.5 63.9 26.5 65.05 26.5 65.85 26.6 66.3 26.75 66.65 26.85 67.1 26.85 67.45 26.85 67.85 26.85 68.25 26.85 68.65 26.85 69.05 26.7 69.4 26.5 69.85 26.6 73.0 26.65 76.6 26.6 79.35 27.7 88.45 Q28.3 93.4 28.05 98.4 27.85 101.9 28.6 105.2 L28.6 111.55 28.65 117.9 28.75 122.65 Q28.4 123.6 28.35 124.6 28.25 125.85 28.3 127.0 L28.1 129.0 27.95 129.4 27.75 129.8 27.95 130.1 28.5 130.6 28.85 130.95 29.0 131.4 29.1 131.75 29.25 132.2 29.25 132.55 29.25 133.0 29.25 133.35 29.3 133.7 29.65 134.15 30.1 134.55 30.35 134.95 30.5 135.35 30.6 135.75 30.6 136.15 30.5 136.5 30.25 136.95 30.0 137.3 29.6 137.6 Q27.4 138.45 25.0 138.1 L24.5 138.55 24.5 138.6 24.45 138.5 24.45 138.3 24.4 138.2 24.4 138.15 24.35 138.1 24.3 138.05 24.2 138.0 24.15 137.95 24.05 137.9 23.7 137.9 23.55 137.9 23.55 137.8 23.55 137.7 23.55 137.6 23.6 137.55 23.6 137.5 23.65 137.25 23.7 137.0 23.75 136.9 23.75 136.8 23.75 136.7 23.75 136.6 23.75 136.35 23.7 136.3 23.7 136.2 23.6 136.1 23.55 136.0 23.55 135.9 23.6 135.8 23.6 135.7 23.65 135.6 23.65 135.5 23.65 135.4 23.65 135.15 23.6 135.1 23.6 134.95 23.65 134.9 23.65 134.6 23.6 134.55 23.6 134.5 23.55 134.4 23.5 134.35 23.4 134.3 23.35 134.25 23.25 134.2 23.15 134.2 23.05 134.2 22.95 134.25 22.85 134.3 22.75 134.4 22.65 134.6 22.55 134.7 22.5 134.85 22.5 134.9 22.45 134.95 22.4 135.0 22.35 135.05 22.3 135.1 22.3 135.15 22.25 135.2 22.25 135.3 22.0 135.75 21.55 136.45 21.3 136.95 21.3 137.05 21.25 137.1 21.25 137.2 21.2 137.25 21.0 137.6 20.9 137.7 20.85 137.6 20.7 134.4 20.75 130.85 Q20.7 129.45 21.25 128.05 L21.25 127.7 21.25 127.25 21.25 126.9 21.35 126.45 21.5 126.1 21.45 125.3 21.3 124.1 21.2 122.9 21.25 122.5 21.05 122.2 20.5 121.7 20.15 121.3 19.85 120.9 19.75 120.55 19.75 120.1 19.75 119.3 19.75 118.55 19.9 118.15 20.1 117.75 20.25 117.35 20.4 101.5 Q20.3 92.85 19.25 84.45 18.6 79.3 18.85 74.05 L19.0 73.7 19.25 73.3 19.6 72.9 20.15 72.65 21.0 72.35 21.1 72.1 21.1 71.7 21.1 71.3 21.3 70.9 21.35 70.5 21.2 70.1 20.85 69.3 20.45 68.5 20.25 68.15 20.25 67.7 20.25 67.35 20.0 66.9 19.75 66.55 19.75 66.1 19.75 65.75 19.75 64.95 19.75 64.15 19.9 63.75 20.15 63.35 20.5 62.95 20.85 62.6 21.75 62.3 22.85 62.05 23.25 61.6 23.3 61.25 23.35 60.45 23.35 59.65 23.35 58.85 23.5 58.45 23.75 58.1 24.1 57.8 24.2 57.7 23.5 57.4 23.25 56.95" fill="#663333" fill-opacity="0.2" fill-rule="evenodd" stroke="none"/>
    <path d="M50.45 136.7 L50.8 136.6 51.1 136.55 51.1 136.5 51.55 136.65 51.8 136.85 51.9 137.0 51.95 137.2 52.0 137.4 52.05 137.6 57.1 137.5 57.55 137.65 57.8 137.85 57.9 138.0 61.55 137.85 61.85 137.8 65.85 137.75 66.3 137.9 66.55 138.1 66.65 138.25 66.7 138.45 66.8 138.55 68.15 138.65 68.6 138.5 69.6 138.5 70.05 138.65 70.3 138.85 70.4 139.0 70.45 139.2 70.5 139.4 70.5 139.6 70.45 139.75 70.35 139.95 70.2 140.15 70.05 140.25 69.9 140.3 68.8 140.55 68.35 140.65 65.6 140.65 65.15 140.5 64.9 140.3 64.75 140.15 64.65 139.95 61.65 139.7 57.7 140.3 57.4 140.3 55.1 140.4 54.65 140.25 54.4 140.05 54.25 139.9 54.15 139.7 54.15 139.6 52.6 139.5 49.55 139.75 48.9 139.95 48.65 140.1 48.35 140.15 47.8 140.25 47.35 140.4 47.1 140.4 46.65 140.25 46.4 140.05 46.25 139.9 46.15 139.7 45.85 139.65 43.35 140.15 43.05 140.2 42.7 140.25 40.35 140.4 39.9 140.25 39.65 140.05 39.5 139.9 39.4 139.7 39.4 139.65 39.15 139.6 37.4 140.0 36.9 140.15 36.65 140.2 34.1 140.35 33.65 140.2 33.4 140.0 33.3 139.85 33.25 139.65 33.2 139.45 33.2 139.25 28.35 139.0 27.95 138.9 27.85 138.7 27.8 138.5 27.8 138.35 27.85 138.15 27.95 138.0 33.6 137.5 34.75 137.3 36.35 137.1 36.55 136.95 36.85 136.9 37.35 136.9 37.7 137.0 37.95 137.2 38.1 137.4 38.15 137.6 38.15 137.75 38.25 137.95 38.3 138.0 42.15 136.95 42.9 136.7 43.05 136.65 43.35 136.6 44.35 136.6 44.8 136.7 44.95 136.9 45.1 137.1 45.15 137.25 45.2 137.45 45.15 137.65 45.1 137.85 47.4 137.45 47.7 137.4 48.2 137.25 50.45 136.7" fill="#663333" fill-opacity="0.2" fill-rule="evenodd" stroke="none"/>
    <path d="M46.2 140.45 L37.6 141.2 37.1 141.1 36.85 140.9 36.75 140.7 36.65 140.5 36.6 140.35 36.6 140.15 36.6 139.95 36.6 139.75 33.1 139.6 32.65 139.45 32.4 139.25 32.3 139.05 32.2 138.9 32.2 138.7 32.25 138.5 32.3 138.35 32.1 138.15 31.9 137.95 31.85 137.75 31.7 137.6 31.7 137.45 31.9 137.25 32.6 137.2 34.6 136.75 35.15 136.6 35.55 136.45 35.85 136.4 36.6 136.4 36.95 136.5 37.2 136.7 37.35 136.9 37.4 137.1 37.4 137.25 37.35 137.45 37.3 137.65 38.65 137.7 39.45 137.5 41.85 137.2 42.3 137.35 42.55 137.5 42.65 137.7 42.75 137.9 42.85 138.1 42.85 138.25 42.8 138.45 42.7 138.65 42.6 138.8 42.4 139.0 42.7 139.1 45.85 138.6 46.95 138.35 48.6 137.95 49.6 137.7 51.1 137.7 51.55 137.85 51.8 138.0 51.95 138.2 52.1 138.35 55.3 138.25 55.85 138.15 56.6 138.15 56.85 138.15 57.2 138.25 57.45 138.45 57.6 138.65 57.65 138.85 57.7 139.0 57.8 139.2 57.7 139.4 57.65 139.6 57.6 139.75 57.35 139.95 57.1 140.15 56.6 140.25 55.1 140.5 51.35 140.35 50.95 140.15 50.65 139.95 50.6 139.85 46.2 140.45" fill="#663333" fill-opacity="0.2" fill-rule="evenodd" stroke="none"/>
    <path d="M76.4 138.35 L76.55 138.5 76.6 138.7 76.55 138.9 76.4 139.1 76.1 139.2 75.85 139.25 75.15 139.25 74.85 139.4 74.6 139.35 74.15 139.2 74.05 139.0 74.1 138.85 74.3 138.65 74.4 138.45 74.55 138.35 74.6 138.3 74.85 138.2 75.35 138.15 75.85 138.15 76.1 138.2 76.4 138.35" fill="#663333" fill-opacity="0.2" fill-rule="evenodd" stroke="none"/>
    <path d="M29.65 -5.75 L29.65 -21.6 31.9 -21.6 31.9 -3.55 32.0 22.25 32.2 48.05 32.25 73.85 32.35 99.65 32.25 122.15 32.2 122.55 32.05 123.0 31.85 123.35 31.65 123.7 31.35 123.8 30.75 123.95 29.9 123.7 29.5 123.25 29.25 122.85 29.2 97.5 29.3 71.65 Q29.25 58.75 29.35 45.85 L29.55 20.1 29.65 -5.75 M31.75 -22.35 L31.2 -22.45 31.8 -22.45 31.75 -22.35 M19.55 -20.05 L20.0 -21.0 20.25 -21.15 20.35 -21.2 20.45 -21.25 20.55 -21.3 20.55 -10.1 20.65 15.7 20.8 41.5 20.9 67.3 21.05 93.05 20.9 118.9 20.85 122.6 20.75 123.0 20.6 123.4 20.25 123.8 19.8 124.05 19.25 123.8 18.95 123.35 18.8 123.0 Q18.5 110.35 18.6 97.6 L18.7 71.75 18.8 46.0 18.95 20.2 19.0 -5.55 19.05 -10.1 19.05 -18.95 19.55 -20.05" fill="#333333" fill-rule="evenodd" stroke="none"/>
    <path d="M26.0 -13.45 L26.1 -13.65 26.35 -13.85 26.6 -13.95 26.7 -13.95 26.9 -13.7 26.85 -13.5 26.7 -13.35 26.85 -0.4 26.95 12.5 26.95 25.4 26.9 38.3 26.85 51.2 26.9 64.1 27.1 77.0 27.2 89.9 27.2 102.8 27.1 115.7 26.9 124.5 26.85 124.7 26.8 124.9 26.7 125.1 26.6 125.2 26.35 125.3 26.05 125.15 25.85 125.0 Q25.45 118.55 25.45 112.05 L25.45 99.2 25.5 86.3 25.65 73.35 25.8 60.5 25.8 47.6 25.8 34.65 25.8 21.75 25.75 8.9 25.8 -4.0 25.95 -13.2 26.0 -13.45" fill="#333333" fill-rule="evenodd" stroke="none"/>
    <path d="M27.25 57.2 L27.25 57.1 29.75 57.35 30.5 58.1 30.95 58.85 31.25 59.6 31.4 60.35 31.2 61.05 30.75 61.85 31.25 85.1 31.6 111.35 Q31.7 119.65 31.25 127.85 L30.95 128.55 30.25 129.35 28.5 129.6 27.5 128.85 27.0 128.1 27.05 104.1 27.25 77.85 Q27.3 69.15 28.0 60.6 L28.45 60.05 28.5 59.95 26.5 59.35 26.15 58.55 26.0 57.85 26.55 57.45 27.25 57.2" fill="#333333" fill-rule="evenodd" stroke="none"/>
    <path d="M30.1 54.55 L30.1 54.75 30.0 54.9 29.85 55.1 29.45 55.3 29.1 55.4 26.85 55.5 26.45 55.35 26.3 55.15 26.2 55.0 26.2 54.8 26.25 54.65 26.4 54.45 26.6 54.3 26.85 54.25 29.6 54.05 29.9 54.15 30.05 54.35 30.1 54.55" fill="#333333" fill-rule="evenodd" stroke="none"/>
    <path d="M19.8 -18.8 L23.0 -19.35 23.0 -19.5 23.2 -20.05 23.8 -20.7 24.1 -21.0 24.6 -21.5 24.8 -21.6 25.2 -21.7 26.9 -21.7 27.6 -21.85 29.2 -22.1 29.4 -22.1 29.7 -21.8 29.75 -21.5 29.6 -21.2 29.1 -20.9 28.4 -20.6 28.1 -20.3 27.6 -20.1 25.5 -19.8 25.2 -19.5 25.0 -19.2 25.0 -18.9 25.0 -18.6 25.0 -18.3 25.0 -18.0 24.9 -17.7 24.75 -17.4 24.6 -17.2 24.4 -17.1 Q21.85 -17.35 20.5 -16.5 L20.4 -16.2 20.25 -15.9 20.2 -15.6 20.2 -15.3 20.15 -15.0 20.0 -14.7 19.7 -14.4 19.2 -14.2 18.6 -14.4 18.3 -14.7 18.25 -15.0 18.2 -15.6 18.2 -15.9 18.2 -16.2 18.2 -16.5 18.25 -16.75 18.5 -17.1 18.6 -17.4 18.7 -17.7 19.0 -18.0 19.3 -18.3 19.6 -18.6 19.8 -18.8" fill="#333333" fill-rule="evenodd" stroke="none"/>
    <path d="M28.05 -21.2 L27.95 -21.05 25.3 -21.0 24.8 -20.7 22.0 -20.4 21.6 -20.4 20.2 -20.85 21.8 -21.3 22.4 -21.6 27.6 -22.3 28.2 -21.8 28.2 -21.5 28.05 -21.2" fill="#333333" fill-rule="evenodd" stroke="none"/>
    <path d="M20.4 114.9 L20.5 115.65 20.55 116.6 20.5 117.7 20.6 117.9 20.65 118.1 20.7 118.25 20.75 125.6 20.8 133.1 20.85 137.4 20.75 137.6 20.65 137.8 20.6 137.95 20.35 138.15 20.15 138.3 19.75 138.35 19.25 138.2 19.0 138.0 18.85 137.85 18.75 137.65 Q18.6 134.0 18.7 130.35 L18.85 122.65 18.85 118.15 18.9 117.95 18.95 117.75 19.0 117.6 19.0 116.85 19.05 115.9 19.15 114.95 19.2 114.8 19.35 114.6 19.5 114.45 19.75 114.45 19.75 114.4 20.1 114.5 20.25 114.7 20.4 114.9" fill="#333333" fill-rule="evenodd" stroke="none"/>
    <path d="M18.0 137.9 L18.2 138.1 18.6 138.45 18.9 138.65 19.25 138.8 19.65 138.95 19.8 139.1 20.0 139.3 20.15 139.45 20.25 139.65 20.25 139.85 20.3 140.0 20.2 140.2 20.1 140.4 19.75 140.5 19.5 140.5 19.15 140.4 19.05 140.2 18.95 140.0 18.75 139.85 18.05 139.45 17.6 139.1 17.2 138.7 17.2 139.0 17.2 139.4 17.2 139.75 17.2 139.95 17.15 140.15 17.05 140.3 16.9 140.5 16.5 140.7 16.25 140.85 11.4 140.65 11.25 140.45 11.4 140.25 15.75 140.1 16.25 139.95 16.3 139.75 16.35 139.6 16.35 139.4 16.3 139.2 16.2 139.05 16.0 138.85 15.85 138.65 15.85 138.45 15.8 138.3 15.8 138.1 15.75 137.9 15.85 137.7 15.95 137.6 16.0 137.5 16.25 137.45 17.0 137.45 17.0 137.4 17.25 137.4 17.6 137.5 17.8 137.7 18.0 137.9" fill="#333333" fill-rule="evenodd" stroke="none"/>
    <path d="M20.2 139.2 L20.35 139.0 20.45 138.85 20.5 138.65 20.6 138.45 20.7 138.1 20.7 137.9 21.0 137.3 21.45 136.6 21.65 136.2 21.65 136.05 21.85 135.65 22.05 135.3 22.15 135.1 22.2 134.9 22.3 134.55 22.4 134.15 22.45 133.95 22.6 133.75 22.7 133.6 22.85 133.4 22.9 133.2 22.95 133.0 23.1 132.85 23.2 132.65 23.4 132.45 23.5 132.25 23.55 132.1 23.65 131.9 23.8 131.8 24.0 131.75 24.0 131.7 24.35 131.85 24.45 132.0 24.5 132.2 24.5 132.6 24.5 132.95 24.5 133.15 24.5 133.35 24.4 133.5 24.3 134.45 24.35 135.6 24.35 136.7 24.35 136.9 24.5 137.1 24.6 137.25 24.65 137.45 24.7 137.65 24.7 137.85 24.7 138.0 24.7 138.2 24.7 138.4 24.7 138.6 24.6 138.75 24.45 138.95 24.3 139.05 24.0 139.15 23.6 139.0 23.45 138.85 23.3 138.65 23.15 138.45 23.15 137.15 23.25 135.65 23.15 134.35 23.1 134.45 23.0 134.85 22.9 135.2 22.75 135.6 22.65 135.8 22.55 135.95 22.45 136.15 22.4 136.35 22.2 136.5 21.95 137.05 21.45 137.85 21.2 138.2 21.15 138.4 21.1 138.6 20.95 138.75 20.7 139.15 20.45 139.5 20.15 139.6 20.15 139.4 20.2 139.2" fill="#333333" fill-rule="evenodd" stroke="none"/>
    <path d="M31.5 120.65 L31.85 120.75 32.0 120.95 32.15 121.15 32.3 125.65 32.4 130.35 32.35 133.15 32.25 133.35 32.15 133.5 31.95 133.7 31.5 133.85 31.1 133.7 30.85 133.5 30.7 133.35 30.7 128.85 30.8 124.15 30.9 121.15 31.0 120.95 31.15 120.75 31.5 120.7 31.5 120.65" fill="#333333" fill-rule="evenodd" stroke="none"/>
    <path d="M25.75 139.75 L24.75 139.45 24.45 139.25 24.2 139.1 24.0 138.9 24.0 138.7 23.9 138.5 23.85 138.35 23.85 138.15 23.9 137.95 24.0 137.85 24.25 137.8 24.25 137.75 24.6 137.9 24.7 138.1 24.85 138.25 25.0 138.4 25.85 138.65 26.25 138.75 26.5 138.85 26.75 138.85 27.0 138.9 27.25 138.95 27.5 139.0 32.6 138.95 33.3 138.8 34.0 138.75 34.4 138.9 34.55 139.1 34.65 139.25 34.7 139.45 34.65 139.65 34.6 139.85 34.4 140.0 33.0 140.3 32.5 140.4 27.75 140.35 26.8 140.05 25.75 139.75" fill="#333333" fill-rule="evenodd" stroke="none"/>
    <path d="M31.65 129.45 L31.9 129.65 32.1 129.85 32.3 133.2 32.4 136.75 32.45 139.0 32.4 139.2 32.25 139.4 32.15 139.5 32.1 139.55 31.75 139.65 31.35 139.5 31.2 139.35 31.1 139.15 31.15 135.95 31.25 132.4 31.4 130.15 31.3 129.95 31.25 129.75 31.2 129.6 31.35 129.5 31.5 129.45 31.65 129.45" fill="#333333" fill-rule="evenodd" stroke="none"/>
    <path d="M27.9 121.5 L28.1 121.7 28.3 128.1 28.35 134.65 28.4 138.4 28.35 138.6 28.25 138.75 28.1 138.95 27.75 139.1 27.4 138.95 27.2 138.75 27.15 132.2 27.25 125.45 27.45 121.7 27.55 121.6 27.6 121.55 27.75 121.5 27.9 121.5" fill="#333333" fill-rule="evenodd" stroke="none"/>
    <path d="M31.1 125.9 L31.0 128.15 31.0 130.6 31.0 132.45 31.05 132.55 31.45 132.7 31.65 132.9 31.75 133.1 31.85 133.25 31.9 133.45 31.9 133.65 31.9 133.85 31.9 134.2 31.9 134.4 32.0 134.6 32.1 134.75 32.15 135.15 32.15 135.7 32.15 136.1 32.15 136.25 32.1 136.45 32.0 136.65 31.95 136.85 31.9 137.0 31.9 137.2 31.9 137.4 31.9 137.6 31.85 137.75 31.75 137.95 31.65 138.15 31.65 138.35 31.65 138.5 31.6 138.7 31.5 138.9 31.4 139.1 31.2 139.2 31.1 139.25 30.75 139.35 30.35 139.2 30.1 139.0 29.95 138.85 29.9 138.65 29.6 138.75 28.0 138.85 27.6 138.7 27.35 138.5 27.2 138.35 27.1 135.35 27.15 132.15 27.15 129.9 27.2 129.7 27.25 129.5 27.35 129.35 27.4 129.15 27.5 128.95 27.6 128.75 27.65 128.6 27.65 128.4 27.65 128.2 27.75 128.0 27.9 127.85 28.2 127.65 28.35 127.45 28.4 127.25 28.4 127.1 28.45 126.9 28.6 126.7 28.85 126.55 29.15 126.3 29.2 126.15 29.3 125.95 29.4 125.8 29.55 125.6 29.7 125.4 29.75 125.2 29.75 125.0 29.75 124.85 29.8 124.65 29.9 124.45 30.05 124.35 30.25 124.3 30.25 124.25 30.6 124.4 30.7 124.6 30.75 124.75 30.75 124.95 30.75 125.15 30.8 125.3 30.9 125.5 31.0 125.7 31.1 125.9" fill="#333333" fill-rule="evenodd" stroke="none"/>
    <path d="M19.25 136.5 L19.6 136.65 19.75 136.85 19.9 136.85 20.25 136.85 20.6 136.95 20.75 137.15 20.9 137.35 20.9 137.7 20.9 138.1 20.9 138.45 20.9 139.0 20.8 139.2 20.7 139.4 20.5 139.5 20.25 139.6 19.9 139.45 19.7 139.5 19.55 139.55 19.25 139.65 18.85 139.5 18.7 139.35 18.6 139.15 18.6 138.6 18.6 138.2 18.55 137.65 18.65 137.1 18.75 136.9 18.9 136.7 19.05 136.6 19.25 136.55 19.25 136.5" fill="#333333" fill-rule="evenodd" stroke="none"/>
    <path d="M30.05 137.15 L30.2 137.35 30.25 137.45 30.25 137.5 32.1 137.8 32.4 137.9 32.55 138.1 32.65 138.25 32.7 138.45 32.65 138.65 32.6 138.85 32.4 139.0 32.1 139.1 30.5 139.45 29.25 139.45 28.85 139.35 28.65 139.15 28.55 138.95 28.5 138.75 28.2 138.6 28.0 138.4 28.0 138.2 28.05 138.05 28.05 137.85 28.1 137.65 28.2 137.5 28.65 137.1 28.85 136.95 29.0 136.85 29.9 136.95 30.05 137.15" fill="#333333" fill-rule="evenodd" stroke="none"/>
    <path d="M50.1 139.85 L43.75 139.95 39.5 140.35 39.1 140.2 38.85 140.0 38.65 139.85 38.45 139.45 38.4 139.25 38.4 139.1 38.35 138.9 38.25 138.75 38.1 138.9 36.2 139.25 34.7 139.8 34.25 139.95 Q32.05 140.4 29.9 139.9 L29.75 139.85 29.25 139.75 28.9 139.65 28.75 139.45 28.65 139.25 28.55 139.1 28.5 138.9 28.6 138.7 28.7 138.6 28.75 138.5 29.0 138.45 29.25 138.5 29.5 138.6 30.0 138.7 30.15 138.75 33.35 138.7 33.75 138.55 34.6 138.2 34.95 138.0 37.55 137.35 38.8 137.0 39.75 136.85 39.95 136.7 40.25 136.7 40.25 136.65 40.65 136.75 40.9 136.95 41.0 137.15 41.05 137.35 41.1 137.5 41.1 137.7 41.1 137.9 41.1 138.1 41.0 138.25 40.9 138.45 42.45 138.5 50.25 138.15 50.65 138.25 50.9 138.45 51.4 138.65 51.6 138.85 51.7 139.05 51.8 139.2 51.7 139.4 51.6 139.6 51.4 139.75 51.0 139.9 50.5 139.95 50.2 139.9 50.1 139.85" fill="#333333" fill-rule="evenodd" stroke="none"/>
    <path d="M57.45 139.15 L57.55 139.35 57.55 139.5 57.45 139.7 57.4 139.9 57.3 140.1 57.2 140.2 57.1 140.25 56.85 140.35 56.35 140.25 55.7 140.35 55.35 140.45 52.1 140.4 51.8 140.25 51.7 140.1 51.65 139.9 51.65 139.7 51.7 139.55 51.85 139.35 52.05 139.15 52.35 139.05 53.15 138.7 53.4 138.65 53.6 138.65 53.7 138.65 54.15 138.85 54.35 139.05 54.45 139.2 54.45 139.3 55.35 139.4 55.6 139.25 55.85 139.2 56.35 139.1 56.45 138.95 56.6 138.9 56.85 138.85 57.2 138.95 57.45 139.15" fill="#333333" fill-rule="evenodd" stroke="none"/>
    <path d="M60.25 139.45 L60.4 139.4 60.7 139.2 60.9 139.05 61.15 138.95 62.4 138.7 62.6 138.6 62.75 138.6 63.65 138.6 63.85 138.65 64.0 138.75 64.05 138.85 64.15 138.95 64.2 139.05 64.15 139.1 64.1 139.2 64.0 139.3 64.0 139.4 63.95 139.5 63.9 139.6 63.75 139.7 63.6 139.8 63.5 139.85 63.4 139.85 63.25 139.9 62.85 139.95 62.65 140.05 62.55 140.1 62.4 140.15 61.25 140.15 61.15 140.15 60.65 140.2 60.15 140.1 60.1 140.0 60.05 139.95 60.0 139.85 60.0 139.75 60.05 139.65 60.1 139.55 60.15 139.5 60.25 139.45" fill="#333333" fill-rule="evenodd" stroke="none"/>
    <path d="M26.5 129.1 L26.55 129.1 26.6 129.2 26.6 129.3 26.65 129.4 26.7 129.45 26.8 129.55 26.8 129.65 26.8 129.75 26.75 129.85 26.85 133.5 26.95 137.25 27.0 139.4 26.95 139.5 26.9 139.6 26.85 139.7 26.75 139.8 26.65 139.85 26.5 139.9 26.3 139.8 26.15 139.7 26.05 139.65 26.1 135.95 26.2 132.15 26.3 129.95 26.35 129.9 26.4 129.8 26.45 129.7 26.45 129.6 26.4 129.5 26.4 129.4 26.4 129.3 26.4 129.2 26.45 129.15 26.5 129.1" fill="#333333" fill-rule="evenodd" stroke="none"/>
  </g>
</svg>
