<?xml version="1.0" encoding="UTF-8" standalone="no"?>
<svg xmlns:xlink="http://www.w3.org/1999/xlink" height="29.25px" width="56.9px" xmlns="http://www.w3.org/2000/svg">
  <g transform="matrix(1.0, 0.0, 0.0, 1.0, 28.45, 14.6)">
    <path d="M4.2 -4.8 L10.65 -5.4 23.6 -6.75 24.6 -6.05 24.85 -5.7 25.0 -5.3 24.55 -4.55 Q24.25 -4.25 23.85 -4.25 7.7 -3.15 -8.35 -0.8 L-17.1 -0.2 -21.5 0.0 -22.25 -0.25 -22.85 -1.4 -22.25 -2.5 -16.75 -3.4 -7.3 -4.25 -1.5 -4.6 4.2 -4.8" fill="#d76c53" fill-rule="evenodd" stroke="none"/>
    <path d="M14.4 -12.1 L14.45 -12.45 Q14.85 -13.2 15.55 -13.45 L16.0 -13.4 17.75 -12.45 20.4 -10.8 26.35 -7.4 Q27.1 -7.05 27.35 -6.3 27.6 -4.45 26.15 -3.35 24.5 -2.2 22.65 -1.25 L21.7 -0.55 20.4 0.7 17.9 2.65 17.05 2.4 16.15 1.25 16.75 -0.35 Q17.4 -1.8 18.65 -2.7 L22.5 -5.4 21.05 -6.55 18.9 -8.1 16.9 -9.5 16.05 -10.15 Q14.75 -10.85 14.4 -12.1" fill="#d76c53" fill-rule="evenodd" stroke="none"/>
    <path d="M-17.0 -9.0 L-16.3 -8.4 -15.45 -7.5 Q-13.9 -5.6 -11.6 -4.7 -10.45 -4.15 -10.5 -2.8 L-10.75 -2.25 -11.35 -1.95 -12.7 -2.35 Q-13.95 -2.75 -15.0 -3.75 -15.8 -4.5 -17.0 -5.15 L-18.55 -6.15 -20.45 -7.8 Q-21.55 -8.55 -21.6 -10.05 L-21.05 -11.15 Q-20.6 -11.35 -20.25 -11.15 L-19.05 -10.85 -17.0 -9.0" fill="#d76c53" fill-rule="evenodd" stroke="none"/>
    <path d="M-18.05 0.15 L-19.0 -0.7 -20.0 -1.65 -20.85 -2.55 -21.45 -3.1 Q-22.7 -4.15 -24.1 -5.0 L-26.7 -6.95 Q-27.35 -7.55 -27.45 -8.45 L-26.95 -9.6 -26.1 -9.9 Q-23.7 -9.3 -22.1 -7.35 L-21.2 -6.4 Q-18.65 -4.65 -17.1 -1.7 L-15.75 -0.6 -16.15 0.5 -16.6 0.75 -17.4 0.5 -18.05 0.15" fill="#d76c53" fill-rule="evenodd" stroke="none"/>
    <path d="M-17.9 -2.0 Q-17.65 -1.25 -18.1 -0.6 L-19.5 1.45 -21.6 4.9 -21.65 5.35 Q-21.65 7.25 -23.3 7.95 L-24.2 7.75 -24.75 7.0 Q-24.85 3.2 -21.8 0.95 L-21.6 0.5 -21.1 -0.3 -19.2 -2.45 -18.7 -2.55 -17.9 -2.0" fill="#d76c53" fill-rule="evenodd" stroke="none"/>
    <path d="M-14.35 -2.85 L-13.7 -3.05 -13.1 -2.95 Q-12.45 -2.3 -12.4 -1.35 L-12.4 -0.55 Q-12.4 0.2 -12.75 0.95 L-13.8 2.9 -14.2 3.55 -15.1 5.15 -15.65 6.25 -16.25 7.2 -17.75 7.15 -18.3 6.4 Q-18.55 5.3 -18.2 4.35 -17.65 3.05 -16.75 2.15 L-15.95 1.25 Q-15.05 0.4 -14.9 -0.95 L-14.35 -2.85" fill="#d76c53" fill-rule="evenodd" stroke="none"/>
    <path d="M-19.2 -3.4 L-19.1 -3.25 -19.1 -3.05 -18.65 -2.65 -18.45 -2.5 -18.3 -2.3 -17.95 -1.9 -17.8 -1.75 -17.75 -1.5 -17.75 -1.3 -17.7 -1.1 -17.75 -0.9 -17.85 -0.7 -17.9 -0.45 -18.1 -0.3 -18.2 -0.25 -18.5 -0.1 -18.95 -0.25 -19.2 -0.4 -19.6 -1.0 -20.2 -1.6 -20.9 -2.15 -21.45 -2.5 -21.95 -2.85 -22.5 -3.25 Q-22.95 -3.45 -23.4 -3.75 L-23.7 -3.95 -23.95 -4.1 -24.15 -4.25 -24.3 -4.5 -24.9 -4.8 -25.15 -5.05 -25.5 -5.4 -25.8 -5.8 -25.95 -5.95 -26.2 -6.15 -26.6 -6.3 -26.75 -6.5 -26.9 -6.75 -27.0 -6.95 -27.1 -7.1 -27.25 -7.3 -27.3 -7.5 -27.5 -7.7 -27.65 -7.9 -27.7 -8.3 -27.8 -8.55 -27.8 -8.9 -27.85 -9.35 -27.9 -9.7 -27.9 -9.95 -27.9 -10.1 -27.8 -10.3 -27.6 -10.55 -27.2 -10.7 -27.25 -10.75 -27.0 -10.75 -26.55 -10.65 -26.2 -10.6 -25.8 -10.4 -25.5 -10.25 -25.3 -10.1 -25.05 -9.9 -24.7 -9.7 -24.45 -9.5 -23.15 -7.9 -21.25 -5.75 -19.25 -3.65 -19.2 -3.4 M-26.3 -8.7 L-26.1 -8.45 -26.0 -8.3 -25.9 -8.15 -25.75 -7.9 -24.85 -7.15 -24.25 -6.6 -23.9 -6.2 Q-23.75 -6.45 -24.3 -7.0 L-24.95 -7.55 -25.6 -8.3 -25.9 -8.5 -26.15 -8.7 -26.3 -8.7" fill="#d76c53" fill-opacity="0.3019608" fill-rule="evenodd" stroke="none"/>
    <path d="M-19.2 -2.6 L-18.85 -2.5 -18.7 -2.3 -18.55 -2.1 -18.25 -1.95 -18.05 -1.75 -17.9 -1.55 -17.8 -1.35 -17.8 -1.2 -17.75 -0.95 -17.8 -0.75 -17.9 -0.5 -18.1 -0.3 -18.4 -0.1 -18.35 0.1 -18.35 0.5 -18.3 0.7 -18.3 1.15 -18.25 1.5 -18.25 1.75 -18.3 2.0 -18.4 2.15 -18.45 2.4 -18.5 2.6 -18.6 2.8 -19.5 4.75 Q-20.35 6.4 -21.8 7.2 L-22.6 7.6 -23.0 7.5 -23.3 7.35 -23.45 7.15 -23.5 6.9 -23.55 6.7 -23.55 6.55 -23.5 6.3 -23.45 6.1 -23.35 5.9 -23.3 5.7 -23.35 5.5 -23.35 5.3 -23.4 5.05 -23.4 4.9 -23.3 4.7 -23.15 4.25 -22.9 3.8 -22.55 3.35 -22.55 3.15 -22.5 2.95 -22.3 2.75 -22.15 2.3 -22.0 2.1 -21.7 1.6 -21.6 1.45 -21.55 1.25 -21.5 1.0 -21.35 0.8 -21.15 0.6 -20.9 0.35 -20.85 0.15 -20.65 -0.3 -20.55 -0.5 -20.35 -0.95 -20.3 -1.1 -20.25 -1.35 -20.25 -1.6 -20.15 -1.75 -20.0 -1.95 -19.8 -2.25 -19.65 -2.45 -19.25 -2.55 -19.2 -2.6" fill="#d76c53" fill-opacity="0.3019608" fill-rule="evenodd" stroke="none"/>
    <path d="M13.4 -6.5 L21.8 -7.25 22.25 -7.2 22.8 -7.05 23.25 -7.0 23.5 -6.8 23.65 -6.65 23.75 -6.45 23.8 -6.25 23.8 -6.05 23.85 -5.8 23.85 -5.65 23.8 -5.45 23.8 -5.2 23.7 -5.0 23.5 -4.8 23.15 -4.5 22.95 -4.3 22.75 -4.1 22.35 -3.95 21.55 -3.7 21.1 -3.55 16.95 -3.0 16.45 -2.85 10.75 -1.9 10.25 -1.85 -0.4 -0.35 -17.45 1.15 -18.1 1.05 -18.35 0.85 -19.9 0.85 -20.4 0.8 -20.7 0.6 -20.8 0.4 -20.9 0.2 -20.85 0.05 -20.75 -0.25 -20.55 -0.45 -20.05 -0.55 -17.8 -0.95 -16.75 -1.3 -16.45 -1.35 -15.25 -1.65 -14.8 -1.75 -13.3 -2.0 -13.45 -2.0 -14.65 -2.05 -15.1 -2.15 -18.15 -2.0 -18.5 -2.05 -18.85 -2.15 -19.15 -2.35 -19.25 -2.5 -19.35 -2.7 -19.4 -2.95 -19.4 -3.1 -19.4 -3.3 -19.25 -3.6 -19.0 -3.8 -18.65 -3.95 -18.4 -4.0 -18.35 -4.0 -15.35 -4.3 -14.9 -4.25 -13.35 -4.2 -12.9 -4.2 -11.35 -4.05 -10.85 -4.0 Q1.1 -4.7 12.95 -6.4 L13.4 -6.5 M5.05 -3.2 L0.25 -2.75 1.15 -2.8 5.05 -3.2" fill="#d76c53" fill-opacity="0.3019608" fill-rule="evenodd" stroke="none"/>
    <path d="M-21.3 -11.5 L-21.25 -11.6 -21.0 -11.65 -20.65 -11.45 -20.45 -11.4 -20.1 -11.25 -19.5 -10.95 -18.55 -10.6 -15.1 -8.6 -12.55 -6.7 -10.5 -4.55 -10.35 -4.35 -10.2 -4.1 -10.1 -3.95 -10.05 -3.8 -10.0 -3.55 -10.05 -3.35 -10.15 -3.1 -10.25 -2.9 -10.35 -2.8 -10.65 -2.65 -11.1 -2.75 -11.3 -2.95 -11.4 -3.15 -11.55 -3.35 -11.7 -3.55 -11.8 -3.75 -11.9 -3.9 -13.7 -5.5 Q-14.85 -6.45 -16.1 -7.2 L-19.0 -8.85 -19.35 -9.0 -19.75 -9.1 -19.65 -8.95 -19.5 -8.5 -19.4 -8.3 -19.35 -8.15 -19.3 -7.95 -19.15 -7.7 -19.1 -7.55 -18.95 -7.3 -18.85 -7.15 -18.75 -6.95 -18.55 -6.75 -18.45 -6.55 -18.3 -6.45 -18.15 -6.5 -17.9 -6.65 -17.55 -6.75 -17.3 -6.75 -16.9 -6.7 -16.7 -6.55 -16.55 -6.35 -16.45 -6.1 -16.25 -5.95 -16.05 -5.8 -15.85 -5.55 -15.6 -5.35 -15.0 -4.95 -14.55 -4.65 -14.2 -4.25 -14.05 -4.1 -13.9 -4.0 -13.75 -3.9 -13.1 -3.85 -12.6 -3.8 -12.4 -3.65 -12.3 -3.4 -12.15 -3.2 -12.1 -3.05 -12.1 -2.85 -12.05 -2.6 -12.1 -2.4 -12.2 -2.25 -12.4 -1.95 -12.55 -1.8 -12.85 -1.7 -13.1 -1.7 -16.1 -2.5 Q-17.4 -2.85 -18.4 -3.75 L-19.4 -4.7 -19.5 -4.9 -19.6 -5.1 -19.65 -5.25 -19.75 -5.5 -19.9 -5.7 -20.0 -5.9 -20.15 -6.05 -20.3 -6.25 -20.45 -6.45 -20.55 -6.7 -20.6 -6.85 -20.75 -7.05 -20.85 -7.25 -21.0 -7.6 -21.1 -7.85 -21.15 -8.05 -21.2 -8.25 -21.35 -8.45 -21.4 -8.65 -21.5 -8.85 -21.6 -9.05 -21.65 -9.2 -21.65 -9.4 -21.75 -9.65 -21.8 -9.85 -21.85 -10.0 -22.0 -10.2 -22.0 -10.45 -22.05 -10.65 -22.05 -10.8 -21.95 -11.05 -21.85 -11.25 -21.7 -11.4 -21.6 -11.45 -21.3 -11.5" fill="#d76c53" fill-opacity="0.3019608" fill-rule="evenodd" stroke="none"/>
    <path d="M-14.55 -1.85 L-14.6 -2.1 -14.55 -2.25 -14.4 -2.35 -13.4 -2.75 -12.95 -2.85 -12.45 -2.85 -11.95 -2.9 -11.5 -2.8 -11.3 -2.6 -11.15 -2.45 -11.05 -2.2 -11.0 -2.05 -10.95 -1.85 -10.9 -1.6 -10.95 -1.4 -11.05 -1.25 -11.15 -1.0 -11.2 -0.75 -11.2 -0.55 -12.7 2.45 Q-13.55 4.4 -14.7 6.1 -15.55 7.3 -16.75 7.95 L-17.05 8.0 -17.5 8.05 -17.9 8.05 -18.25 7.85 -18.5 7.75 -18.7 7.55 -18.75 7.35 -18.75 7.1 -18.8 6.95 -18.8 6.5 -18.85 5.9 -18.9 5.7 -18.85 5.55 -18.75 5.3 -18.75 5.1 -18.7 4.9 -18.75 4.65 -18.25 3.4 -16.9 1.2 -16.0 -0.5 -15.85 -0.7 -15.65 -0.9 -15.3 -0.95 -14.95 -1.0 -14.75 -1.05 -14.65 -1.1 -14.3 -1.2 -13.25 -1.35 -13.3 -1.4 -14.1 -1.55 -14.45 -1.65 -14.55 -1.85 M-15.4 3.15 L-15.6 3.4 -15.8 3.6 -15.9 3.8 -15.95 4.05 -16.0 4.25 -15.95 4.3 -15.85 4.3 -15.65 3.8 -15.4 3.5 Q-15.15 3.2 -15.3 3.1 L-15.4 3.15" fill="#d76c53" fill-opacity="0.3019608" fill-rule="evenodd" stroke="none"/>
    <path d="M-20.8 -3.7 L-20.1 -3.7 -19.15 -3.55 -18.4 -3.2 -18.25 -3.05 -18.1 -2.8 -18.05 -2.65 -18.0 -2.25 -18.0 -2.05 -18.0 -1.85 -17.95 -1.45 -17.95 -1.25 -17.95 -0.95 -18.15 -0.6 -18.35 -0.15 -19.05 0.55 -19.35 0.75 -20.15 0.9 -22.15 1.0 -22.6 0.9 -22.85 0.75 -23.05 0.55 -23.25 0.35 -23.35 0.15 -23.35 -0.05 -23.4 -0.25 -23.4 -0.45 -23.45 -0.7 -23.45 -0.85 -23.4 -1.05 -23.35 -1.3 -23.25 -1.5 -23.25 -1.65 -23.25 -1.9 -23.15 -2.15 -23.05 -2.35 -23.15 -2.55 -23.15 -2.75 -23.05 -2.95 -22.9 -3.2 -22.55 -3.35 -22.25 -3.25 -21.95 -3.15 -21.5 -3.4 -21.25 -3.5 -21.15 -3.55 -20.85 -3.65 -20.8 -3.7" fill="#d76c53" fill-opacity="0.3019608" fill-rule="evenodd" stroke="none"/>
    <path d="M14.75 -13.7 L16.25 -13.85 16.6 -13.75 16.9 -13.55 17.95 -12.85 19.25 -11.7 20.05 -10.95 20.4 -10.75 20.7 -10.6 21.3 -10.25 Q21.45 -10.1 21.6 -10.1 L21.8 -9.9 22.0 -9.7 22.2 -9.5 22.4 -9.35 22.65 -9.15 22.95 -8.95 23.3 -8.75 23.5 -8.65 24.1 -8.45 24.5 -8.25 24.85 -8.1 25.0 -7.9 25.15 -7.7 25.2 -7.5 25.2 -7.25 25.25 -7.1 25.25 -6.9 25.3 -6.75 Q25.5 -6.65 25.65 -6.65 L26.15 -6.55 26.4 -6.4 26.5 -6.2 26.65 -6.0 26.75 -5.8 26.8 -5.65 26.8 -5.4 26.8 -5.2 26.75 -5.0 26.65 -4.7 26.6 -4.55 26.4 -4.35 26.0 -4.05 25.85 -3.9 25.65 -3.7 25.55 -3.4 25.2 -2.75 24.15 -1.85 23.1 -1.2 22.9 -0.95 22.55 -0.5 22.1 -0.05 21.6 0.4 21.45 0.55 21.3 0.85 21.1 1.05 20.85 1.25 20.25 1.7 19.4 2.25 19.15 2.45 17.85 3.2 17.0 3.7 16.5 3.85 15.75 3.95 15.25 3.85 15.0 3.6 14.75 3.45 14.7 3.25 14.6 3.05 14.5 2.85 14.45 2.7 14.4 2.45 14.35 2.25 14.35 2.05 14.35 1.85 14.3 1.65 14.3 1.45 14.25 1.2 14.6 0.4 16.15 -1.55 18.7 -3.7 19.15 -4.0 19.4 -4.15 19.9 -4.3 20.65 -4.65 21.5 -4.9 21.9 -4.75 22.2 -4.6 22.35 -4.4 22.45 -4.2 22.6 -4.0 22.7 -4.05 23.05 -4.25 23.3 -4.5 23.45 -4.7 23.55 -4.9 23.55 -5.1 23.55 -5.35 23.5 -5.5 23.5 -5.7 23.45 -5.95 23.45 -6.15 23.35 -6.3 23.15 -6.5 23.0 -6.45 23.05 -6.25 23.0 -6.1 22.95 -5.9 22.95 -5.65 22.8 -5.55 22.7 -5.5 22.45 -5.35 22.05 -5.5 21.6 -5.7 21.55 -5.85 21.6 -6.0 21.45 -6.25 Q20.5 -6.5 19.75 -7.05 L17.2 -9.05 15.4 -11.05 15.25 -11.25 14.75 -11.4 14.45 -11.55 14.25 -11.75 14.15 -11.95 13.95 -12.2 13.95 -12.35 13.95 -12.55 13.9 -12.8 13.95 -12.95 14.05 -13.15 14.1 -13.35 14.3 -13.55 14.4 -13.6 14.75 -13.65 14.75 -13.7 M16.75 0.95 L16.65 1.0 17.1 0.95 17.25 0.75 17.25 0.6 17.2 0.5 17.1 0.55 16.9 0.7 16.75 0.95" fill="#d76c53" fill-opacity="0.3019608" fill-rule="evenodd" stroke="none"/>
    <path d="M19.55 -12.5 L19.75 -12.35 20.0 -11.95 20.25 -11.6 20.4 -11.45 20.6 -11.2 20.95 -11.05 21.15 -10.9 21.35 -10.65 21.65 -10.3 21.9 -10.1 22.15 -9.95 22.6 -9.5 23.2 -9.2 Q23.65 -8.85 24.2 -8.65 L24.5 -8.45 25.25 -7.95 26.1 -7.4 26.7 -7.05 26.85 -6.8 27.0 -6.6 27.05 -6.45 27.1 -6.3 27.2 -6.05 27.15 -5.85 27.15 -5.65 27.1 -5.4 26.95 -5.2 26.65 -4.8 26.3 -4.75 25.8 -4.8 25.5 -5.05 25.35 -5.2 25.25 -5.35 24.95 -5.6 24.55 -5.75 24.25 -5.9 24.0 -6.1 23.6 -6.4 22.95 -6.8 22.7 -7.0 22.65 -7.1 22.3 -7.25 21.95 -7.45 21.9 -7.45 21.95 -7.25 22.05 -7.0 22.25 -6.8 22.4 -6.65 22.45 -6.45 22.55 -6.25 22.6 -6.1 22.55 -5.9 22.75 -5.65 23.05 -5.45 Q23.1 -5.35 23.25 -5.35 L23.35 -5.1 23.4 -4.9 23.45 -4.7 23.45 -4.5 23.4 -4.3 23.4 -4.1 23.05 -3.4 22.5 -2.75 22.0 -2.1 21.65 -1.65 21.35 -1.45 20.15 -0.8 18.1 -0.55 17.65 -0.6 17.35 -0.8 17.25 -1.05 17.15 -1.2 17.1 -1.35 17.1 -2.05 17.15 -2.25 17.2 -2.45 17.2 -2.65 17.25 -3.05 17.65 -3.75 18.2 -4.4 Q18.7 -4.85 19.25 -5.1 L19.4 -5.3 19.5 -5.5 18.65 -6.7 Q17.75 -7.4 17.2 -8.25 L16.0 -9.8 15.7 -10.1 15.55 -10.25 15.35 -10.5 15.25 -10.7 15.15 -10.85 15.05 -11.05 15.0 -11.25 15.0 -11.45 14.95 -11.7 14.95 -11.85 15.0 -12.05 15.1 -12.35 15.25 -12.55 15.5 -12.65 15.8 -12.75 16.15 -12.9 16.3 -13.1 16.5 -13.3 16.95 -13.45 16.95 -13.5 17.4 -13.4 17.75 -13.2 17.85 -13.15 18.0 -13.05 18.8 -12.85 19.2 -12.75 19.55 -12.5 M19.7 -2.85 L20.05 -3.15 20.25 -3.3 20.4 -3.55 20.6 -3.8 20.6 -4.0 20.55 -4.0 20.4 -4.0 20.15 -3.75 19.65 -3.25 19.05 -2.8 19.7 -2.85" fill="#d76c53" fill-opacity="0.3019608" fill-rule="evenodd" stroke="none"/>
    <path d="M18.25 -6.3 L20.6 -6.35 21.05 -6.25 21.3 -6.05 21.5 -5.9 21.65 -5.8 21.75 -5.7 22.7 -5.7 23.1 -5.6 23.35 -5.45 23.55 -5.2 23.6 -5.05 23.65 -4.85 23.7 -4.6 23.7 -4.4 23.7 -4.25 23.75 -4.05 23.75 -3.8 23.75 -3.6 23.65 -3.45 23.5 -3.2 23.35 -3.0 23.25 -2.95 22.95 -2.9 22.45 -2.85 22.0 -2.9 21.4 -3.0 20.95 -3.05 20.2 -3.3 17.6 -3.25 17.15 -3.3 11.15 -2.95 10.7 -3.05 10.4 -3.2 10.25 -3.35 9.1 -3.2 8.6 -3.05 5.65 -2.75 5.4 -2.65 5.2 -2.55 4.9 -2.5 2.75 -2.25 2.5 -2.1 2.25 -2.0 1.95 -1.95 -2.25 -1.55 -2.5 -1.45 -3.05 -1.35 -9.25 -0.85 -9.75 -0.9 -10.2 -1.0 -11.5 -1.0 -12.5 -0.95 -13.0 -1.05 -13.4 -1.1 -13.55 -1.15 -13.95 -1.25 -14.1 -1.5 -14.2 -1.65 -14.15 -1.85 -14.15 -2.1 -14.05 -2.2 -13.9 -2.3 -13.65 -2.4 -13.4 -2.5 -13.0 -2.4 -11.65 -2.45 -6.15 -2.75 -3.05 -3.15 -2.65 -3.25 -2.2 -3.45 1.95 -3.85 2.2 -4.0 2.4 -4.1 2.75 -4.2 4.85 -4.45 5.1 -4.55 5.35 -4.65 5.7 -4.7 11.55 -5.65 11.8 -5.8 12.15 -5.85 17.85 -6.4 18.25 -6.3" fill="#d76c53" fill-opacity="0.3019608" fill-rule="evenodd" stroke="none"/>
    <path d="M-9.25 -3.75 L-9.1 -3.55 -8.95 -3.4 -8.9 -3.2 -8.85 -2.95 -8.85 -2.8 -8.85 -2.6 -8.8 -2.35 -8.8 -2.15 -8.8 -2.0 -8.8 -1.75 -8.9 -1.5 -8.95 -1.3 -9.1 -1.1 -9.5 -0.9 -13.6 -0.7 -14.75 -0.95 -14.95 -1.15 -15.05 -1.35 -15.15 -1.5 -15.2 -1.7 -15.2 -1.95 -15.25 -2.1 -15.25 -2.3 -15.3 -2.55 -15.25 -2.7 -15.15 -2.95 -15.0 -3.15 -14.85 -3.3 -14.55 -3.5 -14.35 -3.65 -14.0 -3.8 -13.95 -4.0 -13.8 -4.15 -13.7 -4.35 -13.55 -4.55 -13.45 -4.55 -13.15 -4.65 -13.1 -4.7 -12.85 -4.75 -11.3 -4.5 -10.15 -4.2 -9.4 -3.95 -9.25 -3.75" fill="#d76c53" fill-opacity="0.3019608" fill-rule="evenodd" stroke="none"/>
    <path d="M-18.35 -12.0 L-17.95 -11.9 -17.65 -11.7 -17.4 -11.5 -17.3 -11.35 -17.15 -11.1 -17.05 -10.95 -17.05 -10.75 -17.0 -10.35 -16.95 -9.75 -16.95 -8.9 -17.0 -8.65 -17.1 -8.45 -17.2 -8.3 -17.4 -7.8 -17.75 -7.35 -17.85 -7.2 -18.0 -6.95 -18.15 -6.8 -18.25 -6.7 -18.6 -6.6 -18.8 -6.6 -19.25 -6.7 -19.6 -6.9 -19.95 -7.05 -20.1 -7.3 -20.5 -7.4 -20.8 -7.6 -20.95 -7.8 -21.1 -8.0 -21.1 -8.15 -21.15 -8.35 -21.15 -8.6 -21.2 -8.75 -21.35 -8.95 -21.5 -9.2 -21.7 -9.35 -21.8 -9.55 -21.8 -9.75 -21.8 -9.95 -21.8 -10.15 -21.7 -10.35 -21.55 -10.6 -21.45 -10.8 -21.35 -11.05 -21.3 -11.2 -21.25 -11.4 -21.15 -11.7 -21.0 -11.85 -20.9 -11.85 -20.6 -11.95 -20.55 -12.0 -18.8 -12.15 -18.35 -12.0" fill="#d76c53" fill-opacity="0.3019608" fill-rule="evenodd" stroke="none"/>
    <path d="M-20.45 -5.15 L-20.05 -4.95 -19.85 -4.85 -19.65 -4.6 -19.55 -4.4 -19.5 -4.2 -19.3 -4.05 -18.9 -3.85 -18.65 -3.7 -18.45 -3.45 -18.25 -3.3 -18.15 -3.1 -18.1 -2.9 -17.95 -2.7 -17.9 -2.55 -17.85 -2.35 -17.85 -2.1 -17.95 -1.9 -18.05 -1.7 -18.35 -1.5 -19.1 -1.75 -19.85 -1.95 -20.6 -2.35 -20.8 -2.55 -20.9 -2.75 -21.0 -2.95 -21.15 -3.1 -21.45 -3.35 -22.0 -3.45 -22.25 -3.6 -22.5 -3.85 -22.75 -3.95 -22.9 -3.95 -24.85 -3.9 Q-25.65 -4.0 -26.35 -4.45 L-27.45 -5.5 -28.25 -6.6 -28.3 -6.8 -28.3 -6.95 -28.35 -7.4 -28.4 -7.8 -28.35 -8.2 -28.4 -8.45 -28.3 -8.65 -28.2 -8.85 -28.2 -9.1 -28.2 -9.3 -28.1 -9.45 -28.0 -9.65 -27.8 -9.95 -27.6 -10.1 -27.25 -10.35 -27.05 -10.6 -26.9 -10.75 -26.8 -10.8 -26.5 -10.85 -26.5 -10.9 -26.0 -10.85 -25.55 -10.8 -25.0 -10.45 -24.15 -9.85 -23.45 -9.3 -23.05 -9.0 -22.9 -8.75 -22.9 -8.55 -22.85 -8.4 -22.8 -8.15 -22.8 -7.95 -22.8 -7.75 -22.75 -7.55 -22.75 -7.35 -22.75 -7.15 -22.7 -6.9 -22.75 -6.75 -22.75 -6.55 -22.8 -6.3 -22.85 -6.2 -22.75 -6.15 -22.4 -6.05 -22.1 -5.85 -21.85 -5.65 -21.45 -5.5 -20.8 -5.35 -20.45 -5.15" fill="#d76c53" fill-opacity="0.3019608" fill-rule="evenodd" stroke="none"/>
    <path d="M-14.15 -3.2 L-14.0 -3.05 -13.9 -2.9 -13.85 -2.7 -13.8 -2.45 -13.8 -2.25 -13.75 -2.1 -13.75 -1.95 -13.3 -2.0 -13.1 -2.2 -13.0 -2.25 -12.65 -2.35 -12.4 -2.35 -12.0 -2.3 -11.7 -2.05 -11.55 -1.9 -11.5 -1.75 -11.4 -1.5 -11.4 -1.3 -11.4 -1.1 -11.5 -0.9 -11.65 -0.65 -11.8 -0.5 -11.9 -0.45 -12.75 -0.05 -13.65 0.25 -18.2 0.55 -19.9 0.25 -20.1 0.2 -21.25 0.2 -21.7 0.15 -21.9 -0.1 -22.1 -0.25 -22.1 -0.4 -22.1 -0.6 -22.1 -0.85 -22.1 -1.2 -22.1 -1.65 -22.1 -1.8 -22.05 -2.1 -21.85 -2.3 -21.65 -2.7 -21.45 -2.95 -21.0 -3.15 -18.85 -3.3 -18.55 -3.4 -15.05 -3.7 -14.6 -3.65 -14.35 -3.45 -14.15 -3.2" fill="#d76c53" fill-opacity="0.3019608" fill-rule="evenodd" stroke="none"/>
    <path d="M-20.0 1.75 L-19.8 1.95 -19.8 2.15 -19.7 2.55 -19.65 3.35 -19.65 4.15 -19.7 4.4 -19.9 4.65 -20.25 5.05 -20.5 5.3 -20.55 5.5 -20.65 5.75 -20.85 5.95 -21.25 6.1 -21.7 6.25 -21.8 6.5 -22.0 6.7 -22.05 6.75 -22.4 6.8 -23.65 6.95 -24.1 6.85 -24.35 6.7 -24.55 6.45 -24.65 6.25 -24.65 6.1 -24.65 5.85 -24.65 5.45 -24.7 4.85 -24.75 4.45 -24.7 4.25 -24.6 4.05 -24.45 3.8 -24.1 3.4 -23.8 3.1 -22.85 2.4 -22.0 1.75 -21.65 1.6 -21.6 1.55 -20.6 1.45 -20.25 1.6 -20.0 1.75" fill="#d76c53" fill-opacity="0.3019608" fill-rule="evenodd" stroke="none"/>
    <path d="M-0.4 -3.65 L-0.35 -3.5 -0.3 -3.35 -0.25 -3.1 -0.3 -2.85 -0.4 -2.7 -0.5 -2.45 -0.7 -2.25 -0.9 -2.0 -1.45 -1.75 -1.7 -1.55 -2.05 -1.35 -2.7 -1.0 -3.0 -0.8 -3.2 -0.65 -3.35 -0.6 -3.7 -0.45 -4.7 -0.1 -8.55 0.3 -10.2 0.7 -10.6 0.85 -13.25 1.05 -13.35 1.3 -13.4 1.9 -13.3 2.9 -13.2 3.75 -13.2 4.1 -13.5 5.2 -14.1 6.45 -14.7 7.1 -15.25 7.5 -15.8 7.6 -17.4 7.75 -17.5 7.8 -17.85 7.95 -18.05 8.0 -18.5 7.85 -18.7 7.65 -18.85 7.5 -18.95 7.25 -18.95 7.05 -18.95 6.9 -18.9 6.65 -18.85 6.45 -18.9 6.25 -18.9 6.0 -18.9 5.85 -18.9 5.65 -18.75 5.45 -18.75 5.2 -18.7 5.05 -18.65 4.85 -18.55 4.55 -18.45 4.4 -18.15 3.95 -17.65 3.3 -17.3 3.05 -17.05 2.9 -16.7 2.85 -16.25 2.75 -15.85 2.85 -15.6 3.0 -15.45 3.25 -15.4 3.45 -15.35 3.65 -15.35 3.8 -15.3 4.05 -15.3 4.25 -15.25 4.25 -15.15 4.0 -15.1 3.75 -15.15 3.2 -15.2 2.15 -15.3 1.35 -15.3 0.95 -15.3 0.75 -15.2 0.55 -15.1 0.35 -14.95 -0.1 -14.65 -0.5 -14.35 -0.8 -14.05 -1.0 -13.9 -1.25 -13.65 -1.35 -13.3 -1.5 -12.8 -1.7 -12.45 -1.9 -12.2 -2.05 -10.9 -2.45 -9.6 -2.75 -9.1 -3.0 -8.85 -3.15 -8.0 -3.3 -7.6 -3.25 -7.3 -3.0 -7.15 -2.85 -7.05 -2.7 -7.0 -2.45 -7.0 -2.25 -7.05 -2.15 -5.4 -2.3 -4.9 -2.4 -4.4 -2.6 -4.0 -2.75 -3.85 -3.0 -3.6 -3.15 -3.2 -3.25 -2.8 -3.4 -2.65 -3.7 -2.4 -3.8 -1.95 -4.0 -1.55 -4.1 -1.5 -4.15 -1.25 -4.15 -0.85 -4.1 -0.6 -3.9 -0.4 -3.65" fill="#d76c53" fill-opacity="0.3019608" fill-rule="evenodd" stroke="none"/>
    <path d="M12.65 -12.55 L12.8 -13.0 13.1 -13.45 13.55 -13.9 14.4 -14.2 14.4 -14.3 14.9 -14.3 15.8 -14.1 16.3 -13.75 16.7 -13.4 17.05 -12.95 17.3 -12.65 17.7 -12.2 18.3 -11.9 18.75 -11.5 19.15 -11.1 20.45 -10.4 21.65 -9.7 22.5 -9.1 Q22.7 -9.0 22.85 -9.0 L23.8 -8.8 24.3 -8.4 24.7 -8.05 25.0 -7.65 25.25 -7.2 25.45 -6.9 25.5 -6.5 25.5 -6.05 25.4 -5.65 25.35 -5.2 24.85 -4.4 24.25 -3.5 23.45 -2.55 23.2 -2.2 22.65 -1.7 22.0 -1.25 21.85 -0.85 21.7 -0.4 21.45 0.0 20.85 0.9 20.5 1.3 20.4 1.75 20.3 2.2 19.85 2.6 19.5 2.95 18.85 3.1 18.0 2.95 17.5 2.55 17.1 2.15 16.95 1.8 16.9 1.35 16.85 0.95 16.85 0.55 16.8 0.15 16.9 -0.2 17.25 -0.7 17.45 -1.15 17.6 -1.5 -14.45 0.55 -15.3 0.35 -15.85 0.0 -16.25 -0.35 -16.3 -0.65 -18.6 -0.7 -20.9 -1.05 -21.1 -1.45 -21.3 -1.85 -21.35 -2.25 -21.25 -2.6 -21.05 -2.95 3.5 -6.8 Q9.4 -8.3 15.4 -7.35 L17.05 -7.65 16.35 -8.0 Q15.9 -8.35 15.5 -8.75 L14.25 -9.9 13.1 -11.05 12.85 -11.45 12.75 -11.75 12.7 -12.2 12.65 -12.55" fill="#d76c53" fill-opacity="0.3019608" fill-rule="evenodd" stroke="none"/>
    <path d="M-19.05 -11.7 L-18.15 -11.55 -17.65 -11.15 -17.2 -10.8 -16.75 -10.45 -16.0 -10.05 -15.6 -9.75 -15.05 -9.35 -14.6 -8.6 -13.55 -7.4 -12.15 -6.3 -11.5 -5.95 -11.1 -5.6 -10.8 -5.25 -10.6 -4.45 -10.55 -3.65 -10.45 -2.8 -10.3 -1.55 Q-10.2 -0.9 -10.35 -0.35 L-10.45 0.1 -10.7 0.5 -11.0 1.0 -11.3 1.4 -11.55 1.85 -11.55 2.2 -11.6 2.65 -11.7 3.05 -11.95 3.5 -12.35 4.0 -12.45 4.4 -12.55 4.75 -12.8 5.2 -13.1 6.0 -13.35 6.55 -13.65 6.95 -13.95 7.25 -14.2 7.35 -14.85 7.55 -15.7 7.4 -16.25 7.0 -16.55 6.65 -16.7 6.2 -16.75 5.8 -16.8 5.4 -16.85 5.0 -16.85 4.55 -16.9 4.2 -16.95 3.75 -16.8 3.4 -16.6 3.0 -16.0 2.1 -15.75 1.65 -15.65 1.2 -15.8 0.9 -16.05 0.55 -16.55 0.9 -16.8 1.05 -17.75 1.4 -18.45 1.95 -19.45 2.75 -20.1 3.25 -20.45 3.75 -21.15 4.6 -21.75 5.5 -22.2 6.3 -22.3 6.7 -22.4 7.15 -22.6 7.55 -22.9 8.05 -23.8 8.35 -24.65 8.2 -25.2 7.75 -25.5 7.45 -25.65 7.0 -25.7 6.6 -25.75 6.2 -25.8 5.8 -25.8 5.35 -25.85 5.0 -25.9 4.55 -25.75 4.2 -25.55 3.75 -25.25 3.3 -24.9 2.85 -24.2 2.35 -23.4 1.5 -23.0 1.05 -22.7 0.6 -22.15 0.15 -21.6 -0.3 -21.2 -0.8 Q-21.75 -2.1 -23.05 -3.25 -24.6 -4.55 -26.2 -6.0 -27.55 -7.25 -28.4 -8.7 L-28.45 -9.15 -28.35 -9.55 -28.15 -10.0 -27.45 -10.3 -26.75 -10.15 -24.65 -8.6 -22.55 -6.7 -20.5 -5.05 -20.3 -4.95 -19.7 -4.65 -19.3 -4.5 -18.75 -4.4 -18.5 -4.3 -17.9 -4.25 -17.15 -4.2 -17.8 -4.9 -18.45 -5.65 -19.1 -6.4 -20.15 -7.6 -20.35 -7.95 -20.45 -8.3 -20.55 -8.75 -20.6 -9.15 -20.65 -9.55 -20.6 -9.95 -20.55 -10.4 -20.45 -10.8 -20.1 -11.25 -19.65 -11.55 -19.05 -11.65 -19.05 -11.7" fill="#d76c53" fill-opacity="0.3019608" fill-rule="evenodd" stroke="none"/>
    <path d="M19.55 -13.6 L19.8 -13.2 20.0 -12.85 20.45 -12.45 21.2 -12.15 22.0 -11.8 22.55 -11.5 22.8 -11.45 23.4 -11.25 24.35 -10.4 25.6 -9.35 27.25 -7.85 27.95 -7.1 28.1 -6.7 28.3 -6.3 28.4 -5.95 28.45 -5.5 28.35 -5.1 28.15 -4.65 27.9 -4.25 27.3 -3.35 26.25 -2.0 24.95 -1.15 23.45 -0.1 Q22.75 0.3 22.1 0.8 L21.2 1.1 19.65 1.5 19.4 1.55 18.75 1.75 17.9 1.55 17.0 1.25 16.45 0.9 15.7 0.55 Q15.65 0.3 15.75 0.2 L16.7 -0.75 17.6 -1.4 18.55 -2.15 18.8 -2.3 19.4 -2.55 20.5 -2.9 21.25 -3.4 Q21.95 -3.8 22.65 -4.35 L24.1 -5.25 24.4 -5.7 23.55 -6.9 20.95 -8.6 17.85 -10.05 17.45 -10.4 16.8 -10.75 16.15 -11.1 15.3 -11.45 14.9 -11.85 14.6 -12.3 14.5 -12.65 14.55 -13.05 14.6 -13.4 14.8 -13.85 15.05 -14.2 15.3 -14.3 15.9 -14.45 15.85 -14.5 16.8 -14.6 17.6 -14.4 18.35 -14.2 19.15 -14.0 19.55 -13.6" fill="#d76c53" fill-opacity="0.3019608" fill-rule="evenodd" stroke="none"/>
    <path d="M-0.45 -2.7 L-0.35 -2.5 -0.3 -2.35 -0.3 -2.15 -0.3 -1.95 -0.3 -1.75 -0.35 -1.6 -0.45 -1.4 -0.35 0.5 -0.3 2.75 -0.3 4.8 -0.35 5.0 -0.45 5.15 -0.6 5.35 -0.6 5.55 -0.6 5.75 -0.65 5.9 -0.8 6.1 -0.95 6.25 -1.2 6.3 -1.6 6.15 -1.8 6.0 -1.85 5.8 -1.85 5.6 -1.85 5.4 -1.95 5.25 -2.1 5.05 -2.2 3.0 -2.1 0.35 -1.9 -1.9 -1.95 -2.05 -2.0 -2.3 -2.1 -2.45 -2.1 -2.65 -2.05 -2.8 -1.9 -3.0 -1.7 -3.15 -1.5 -3.15 -1.45 -3.2 -1.2 -3.2 -0.9 -3.05 -0.6 -2.9 -0.45 -2.7" fill="#d76c53" fill-rule="evenodd" stroke="none"/>
    <path d="M-4.3 -3.0 L-4.2 -3.2 -4.1 -3.4 -3.8 -3.5 -3.5 -3.4 -3.4 -3.2 -3.35 -3.0 -3.3 -2.85 -3.3 -2.65 -3.3 -2.45 -3.3 -2.25 -3.35 -2.1 -3.5 -1.9 -3.5 -1.7 -3.5 -1.5 -3.5 -1.35 -3.55 -1.15 -3.6 -0.95 -3.65 -0.75 -3.75 -0.6 -3.6 4.5 -3.4 9.75 Q-3.25 11.35 -3.4 12.9 L-3.5 13.1 -3.6 13.3 -3.85 13.5 -4.3 13.6 -4.75 13.5 -4.95 13.3 -5.15 13.1 Q-5.3 10.5 -5.1 7.85 L-4.95 2.4 -4.85 -0.75 -4.8 -0.95 -4.75 -1.15 -4.65 -1.35 -4.6 -1.5 -4.6 -1.7 -4.6 -1.9 -4.55 -2.1 -4.4 -2.25 -4.3 -2.45 -4.3 -2.65 -4.3 -2.85 -4.3 -3.0" fill="#d76c53" fill-rule="evenodd" stroke="none"/>
    <path d="M-5.05 -2.95 L-4.9 -3.1 -4.8 -3.15 -4.55 -3.15 -4.55 -3.2 -4.25 -3.1 -4.05 -2.9 -3.9 -2.7 -3.9 -2.5 -3.9 -2.35 -3.85 -2.15 -3.9 -1.95 -4.0 -1.75 -4.1 -1.6 -4.25 -1.4 -4.25 -1.2 -4.3 -1.0 -4.4 -0.65 -4.55 -0.25 -4.5 1.05 -4.45 2.35 -4.4 3.85 -4.35 4.05 -4.3 4.25 -4.25 4.4 -4.15 4.6 -4.15 5.15 -4.15 5.9 -4.15 6.65 -4.15 6.85 -4.15 7.05 -4.05 7.25 -4.0 7.4 -3.9 7.8 -3.85 8.35 -3.85 8.75 -3.85 8.9 -3.8 9.1 -3.75 9.3 -3.65 9.5 -3.6 9.65 -3.6 9.85 -3.6 10.25 -3.6 10.6 -3.6 11.0 -3.55 11.15 -3.5 11.35 -3.15 11.55 -3.05 11.75 -2.95 11.9 -2.9 12.3 -2.85 12.85 -2.85 13.4 -2.85 13.8 -2.95 14.0 -3.05 14.15 -3.15 14.35 -3.35 14.5 -3.5 14.55 -3.8 14.6 -4.55 14.6 -5.0 14.5 -5.2 14.3 -5.4 14.1 -5.5 13.0 -5.5 11.65 -5.5 10.15 -5.55 10.0 -5.65 9.8 -5.7 9.4 -5.7 8.85 -5.75 8.3 -5.75 8.1 -5.8 7.9 -5.85 7.75 -5.9 7.55 -5.9 6.8 -5.9 5.85 -5.9 4.9 -6.0 4.75 -6.05 4.55 -6.1 4.35 -6.15 4.15 -6.15 2.65 -6.05 1.0 -6.05 -0.5 -6.0 -0.7 -5.9 -0.9 -5.85 -1.1 -5.75 -1.45 -5.6 -1.65 -5.55 -1.85 -5.5 -2.0 -5.35 -2.2 -5.25 -2.4 -5.2 -2.6 -5.15 -2.75 -5.05 -2.95" fill="#d76c53" fill-opacity="0.3019608" fill-rule="evenodd" stroke="none"/>
    <path d="M-0.1 -1.9 L0.15 -1.7 0.3 -1.5 0.4 -1.35 0.45 -1.15 0.55 0.15 0.6 1.85 0.65 3.55 0.6 3.75 0.45 3.9 0.25 4.1 0.1 4.25 -0.2 4.3 -0.65 4.15 -0.9 4.0 -1.05 3.8 -1.1 3.65 -1.1 3.85 -1.1 4.05 -1.1 4.25 -1.1 4.4 -1.1 4.6 -1.05 4.75 -0.9 4.9 -0.65 4.9 -0.55 4.85 -0.2 4.8 0.05 4.8 0.45 4.9 0.65 5.1 0.75 5.3 0.85 5.5 0.85 5.65 0.85 5.85 0.8 6.05 0.65 6.2 0.45 6.4 0.05 6.6 -0.15 6.75 -0.5 6.75 -1.45 6.8 -1.9 6.65 -2.15 6.45 -2.35 6.3 -2.5 6.1 -2.8 5.75 -2.85 5.0 -2.85 3.85 -2.85 2.55 -2.85 2.35 -2.8 2.15 -2.7 2.0 -2.65 1.8 -2.6 1.6 -2.5 1.4 -2.4 1.25 -2.35 1.05 -2.35 0.85 -2.35 0.65 -2.35 0.5 -2.3 0.3 -2.2 0.1 -2.1 -0.1 -2.0 -0.25 -1.9 -0.45 -1.85 -0.65 -1.85 -0.85 -1.85 -1.0 -1.8 -1.2 -1.7 -1.4 -1.6 -1.6 -1.45 -1.75 -1.35 -1.95 -1.15 -2.1 -1.05 -2.1 -0.75 -2.2 -0.7 -2.2 -0.3 -2.1 -0.1 -1.9" fill="#d76c53" fill-opacity="0.3019608" fill-rule="evenodd" stroke="none"/>
    <path d="M-0.4 -0.65 L-0.4 -0.45 -0.4 -0.25 -0.4 -0.1 -0.4 0.1 -0.35 0.3 -0.3 0.5 -0.2 0.65 -0.2 0.85 -0.2 1.25 -0.15 1.6 -0.15 1.8 -0.1 1.95 0.0 2.15 0.1 2.35 0.15 2.55 0.15 2.9 0.15 3.3 0.15 3.5 0.25 3.65 0.4 3.85 0.65 4.05 0.75 4.25 0.85 4.4 0.9 4.8 0.9 5.35 0.9 5.9 0.9 6.3 0.7 6.65 0.4 7.05 -0.05 7.4 -0.45 7.55 -1.9 7.35 -2.4 7.1 -2.6 6.9 -2.8 6.55 -3.05 6.15 -3.05 5.8 -3.05 5.25 -3.05 4.65 -3.05 4.3 -2.95 4.1 -2.9 3.9 -2.85 3.75 -2.7 3.55 -2.55 3.35 -2.4 3.25 -2.3 3.2 -2.0 3.1 -1.6 3.0 -1.65 2.8 -1.75 2.6 -1.85 2.4 -1.8 2.05 -1.7 1.5 -1.7 0.9 -1.7 0.55 -1.65 0.35 -1.6 0.15 -1.55 0.0 -1.55 -0.2 -1.55 -0.4 -1.55 -0.6 -1.5 -0.75 -1.4 -0.95 -1.2 -1.1 -1.0 -1.1 -0.95 -1.15 -0.65 -1.0 -0.55 -0.85 -0.4 -0.65" fill="#d76c53" fill-opacity="0.3019608" fill-rule="evenodd" stroke="none"/>
    <path d="M-5.3 7.9 L-5.05 7.85 -4.9 7.85 -4.7 8.05 -4.5 8.25 -4.25 8.4 -4.15 8.6 -4.05 8.8 -3.95 8.95 -3.75 9.35 -3.7 9.55 -3.65 9.75 -3.65 9.9 -3.6 10.1 -3.4 10.3 -3.3 10.5 -3.25 10.6 -3.2 10.65 -2.9 10.8 -2.65 11.0 -2.45 11.15 -2.4 11.35 -2.3 11.55 -2.3 11.9 -2.3 12.5 -2.25 13.05 -2.35 13.6 -2.4 13.8 -2.55 14.0 -2.75 14.15 -3.15 14.55 -3.55 14.65 -3.8 14.65 -4.1 14.6 -4.5 14.5 -4.65 14.3 -4.85 14.1 -5.2 13.75 -5.4 13.55 -5.55 13.35 -5.65 13.15 -5.65 13.0 -5.65 12.8 -5.65 12.6 -5.65 12.4 -5.65 12.25 -5.6 12.05 -5.5 11.85 -5.45 11.65 -5.4 11.5 -5.35 11.3 -5.35 11.1 -5.4 10.9 -5.4 10.75 -5.4 10.55 -5.4 10.35 -5.4 10.15 -5.45 10.0 -5.55 9.8 -5.6 9.6 -5.6 9.4 -5.6 9.25 -5.55 9.05 -5.55 8.85 -5.55 8.65 -5.4 8.5 -5.4 8.3 -5.4 8.1 -5.3 7.9" fill="#d76c53" fill-opacity="0.3019608" fill-rule="evenodd" stroke="none"/>
    <path d="M-0.3 -2.45 L-0.2 -2.25 -0.2 -2.1 -0.15 -1.9 -0.15 -1.7 -0.15 -1.35 -0.15 -0.95 -0.25 -0.8 -0.35 -0.6 -0.6 -0.4 -0.95 -0.25 -1.2 -0.25 -1.65 -0.4 -1.8 -0.5 -2.3 -0.75 -2.65 -0.9 -3.05 -0.9 -3.05 -0.7 -3.05 -0.5 -3.05 -0.15 -3.05 0.25 -3.1 0.6 -3.2 0.8 -3.3 1.0 -3.3 1.15 -3.3 1.35 -3.3 1.55 -3.3 1.75 -3.35 1.9 -3.5 2.1 -3.65 2.3 -4.05 2.4 -4.3 2.4 -4.75 2.3 -4.9 2.1 -5.05 1.9 -5.05 1.75 -5.1 1.55 -5.25 1.35 -5.25 1.15 -5.25 1.0 -5.25 0.8 -5.25 0.6 -5.2 0.45 -5.1 0.25 -5.1 0.05 -5.1 -0.15 -5.1 -0.35 -5.1 -0.5 -5.1 -0.9 -5.05 -1.1 -4.9 -1.25 -4.8 -1.45 -4.75 -1.65 -4.75 -1.85 -4.6 -2.0 -4.5 -2.2 -4.35 -2.4 -4.1 -2.5 -3.8 -2.65 -3.6 -2.75 -3.3 -2.85 -2.9 -2.95 -2.45 -3.1 -1.5 -3.1 -1.45 -3.15 -1.2 -3.15 -0.85 -3.0 -0.6 -2.8 -0.4 -2.65 -0.3 -2.45" fill="#d76c53" fill-opacity="0.3019608" fill-rule="evenodd" stroke="none"/>
  </g>
</svg>
