<?xml version="1.0" encoding="UTF-8" standalone="no"?>
<svg xmlns:xlink="http://www.w3.org/1999/xlink" height="7.55px" width="28.1px" xmlns="http://www.w3.org/2000/svg">
  <g transform="matrix(1.0, 0.0, 0.0, 1.0, 26.15, -2.65)">
    <path d="M-10.8 3.3 L-10.85 3.35 -10.95 3.4 -11.05 3.45 -11.1 3.5 -11.2 3.6 -12.0 3.6 Q-14.85 3.5 -17.65 3.55 L-20.25 3.5 -22.5 3.5 -26.1 3.5 -26.1 3.45 -26.15 3.35 -26.15 3.25 -26.15 3.0 -26.1 3.0 -26.1 2.95 -21.15 2.85 -14.25 2.8 -10.9 2.9 -10.8 2.95 -10.75 3.0 -10.75 3.3 -10.8 3.3" fill="#473e30" fill-rule="evenodd" stroke="none"/>
    <path d="M1.95 2.8 L1.95 2.85 1.95 3.05 1.95 3.2 1.95 3.3 1.95 3.35 1.75 3.35 1.6 3.35 1.5 3.4 -0.25 3.45 -7.1 3.5 -7.15 3.3 -7.15 3.2 -7.1 3.15 -7.1 3.05 -7.05 3.0 -7.05 2.85 -6.95 2.75 -3.5 2.65 -0.9 2.7 0.85 2.75 1.95 2.8" fill="#473e30" fill-rule="evenodd" stroke="none"/>
    <path d="M-0.3 9.45 L-0.15 9.3 -0.2 9.4 -0.3 9.5 -0.35 9.5 -0.3 9.45 M-6.6 9.05 L-6.6 9.0 -6.55 8.95 -6.4 8.85 -2.9 8.7 -2.6 8.8 -2.0 8.8 -1.9 8.85 -1.8 8.95 -1.75 9.0 -1.65 9.05 -1.55 9.05 -1.55 9.2 -1.6 9.25 -2.35 9.45 -2.45 9.5 -6.75 9.45 -6.75 9.3 -6.65 9.15 -6.6 9.05" fill="#473e30" fill-rule="evenodd" stroke="none"/>
    <path d="M-6.75 9.55 L-6.75 9.4 -6.65 9.35 -6.5 9.4 -2.1 9.35 -2.35 9.45 -2.45 9.5 -2.55 9.6 -2.6 9.65 -2.7 9.75 -2.7 9.8 -2.75 9.85 -2.75 9.9 -2.8 9.9 -3.2 10.2 -6.5 10.05 -6.55 10.05 -6.55 9.85 -6.6 9.8 -6.65 9.7 -6.7 9.65 -6.7 9.6 -6.75 9.55" fill="#473e30" fill-rule="evenodd" stroke="none"/>
  </g>
</svg>
