<?xml version="1.0" encoding="UTF-8" standalone="no"?>
<svg xmlns:xlink="http://www.w3.org/1999/xlink" height="59.25px" width="66.45px" xmlns="http://www.w3.org/2000/svg">
  <g transform="matrix(1.0, 0.0, 0.0, 1.0, 33.75, 30.3)">
    <path d="M28.2 -9.05 Q32.1 -3.3 32.1 -1.5 32.1 0.65 29.35 8.05 L26.6 15.65 Q26.6 20.4 19.65 23.65 12.05 27.15 -0.6 27.15 L-3.3 26.5 -6.0 25.85 -8.75 26.5 -11.55 27.15 Q-22.55 27.15 -27.9 18.45 -31.8 12.15 -31.8 3.9 -31.8 -0.15 -27.9 -5.4 -24.1 -10.5 -24.35 -12.65 -24.75 -16.25 -20.45 -20.1 -18.7 -21.65 -10.55 -27.2 2.0 -35.75 18.1 -20.85 23.7 -15.65 28.2 -9.05" fill="#ffffff" fill-rule="evenodd" stroke="none"/>
    <path d="M1.8 -13.85 Q6.45 -13.85 9.0 -10.7 10.45 -8.95 11.7 -5.85 12.4 -6.4 13.15 -6.55 L15.75 -6.65 Q22.4 -6.65 24.6 -1.6 25.75 0.95 25.5 3.55 25.5 5.25 24.6 7.35 L23.7 9.35 24.0 10.45 24.3 11.55 Q24.3 13.3 21.65 15.8 L16.25 20.55 Q15.35 21.4 14.2 22.95 13.05 24.25 11.45 24.9 7.2 26.7 -6.9 26.7 -13.15 26.7 -16.8 23.45 -18.75 21.75 -20.3 19.5 -22.7 18.0 -27.45 16.7 -30.3 15.9 -30.3 13.9 -30.3 8.65 -28.05 3.9 -24.8 -2.95 -18.15 -3.65 -18.75 -5.95 -18.75 -7.4 L-18.95 -10.55 Q-18.8 -11.5 -16.8 -13.85 -16.35 -14.35 -16.25 -15.15 -16.2 -15.75 -15.75 -15.95 -14.65 -16.45 -5.4 -16.2 -4.5 -16.05 -2.85 -14.6 L-0.9 -13.2 0.45 -13.5 1.8 -13.85 M2.15 20.75 L2.4 21.9 8.0 21.9 9.35 21.45 2.15 20.75 M-23.25 3.0 L-23.8 4.8 -24.3 7.05 -24.2 7.7 Q-24.05 7.7 -23.9 7.85 L-22.5 7.85 -22.5 6.8 -22.8 4.95 -23.25 3.0 M-23.25 10.95 Q-23.25 12.05 -24.0 13.25 L-24.05 13.4 Q-23.2 13.5 -22.2 12.4 L-21.0 10.8 -23.25 10.95" fill="#d1d0a5" fill-opacity="0.3019608" fill-rule="evenodd" stroke="none"/>
    <path d="M-0.9 -4.0 Q6.3 -2.05 11.55 -1.65 15.45 -0.55 17.3 1.6 18.75 3.3 18.75 5.25 18.75 6.6 18.35 7.45 17.65 8.85 17.25 10.35 20.85 10.3 21.2 11.75 21.4 12.55 20.85 14.0 23.6 14.05 23.6 16.15 23.6 17.5 20.85 19.95 18.3 22.25 16.2 23.1 13.75 24.1 4.65 26.15 L-5.55 28.1 Q-12.5 28.1 -15.7 23.45 -17.6 20.65 -18.05 20.2 -19.6 18.75 -22.05 18.75 -26.15 18.75 -27.8 14.25 -28.65 11.95 -28.65 9.55 -28.65 8.9 -26.8 6.0 -24.85 3.05 -23.85 2.4 -22.4 1.5 -16.8 0.4 -11.1 -0.75 -8.1 -2.4 -3.75 -4.8 -0.9 -4.0 M-17.75 10.2 Q-18.95 11.7 -19.2 12.9 L-19.2 12.95 -15.3 7.85 Q-16.65 8.75 -17.75 10.2 M-17.55 3.6 Q-17.1 3.85 -16.95 4.35 L-15.9 3.9 -15.15 3.45 -17.6 3.45 -17.55 3.6 M3.15 20.55 L4.65 19.8 4.35 19.35 3.15 20.55" fill="#d1d0a5" fill-opacity="0.3019608" fill-rule="evenodd" stroke="none"/>
    <path d="M24.5 20.6 Q22.9 22.7 19.8 22.7 18.35 22.7 17.8 22.25 L17.3 21.8 10.65 22.8 Q3.45 24.1 0.3 25.65 -4.25 27.8 -9.5 27.8 -14.45 27.8 -16.15 26.1 -18.3 24.0 -21.45 23.4 -27.0 22.5 -27.0 18.15 L-28.5 13.15 Q-30.0 8.55 -30.0 7.5 -30.0 2.35 -28.1 4.55 -26.25 6.8 -26.25 12.8 L-24.6 10.4 Q-23.55 8.85 -21.3 8.85 -18.1 8.85 -18.0 10.85 -17.95 11.9 -18.45 13.65 -16.9 13.6 -10.45 11.05 -4.15 8.6 -1.2 8.6 1.6 8.6 3.15 9.65 L4.35 10.65 5.75 10.3 7.1 9.95 Q10.0 9.95 10.7 12.0 L10.85 14.7 13.65 14.55 Q14.25 14.55 14.9 15.0 L15.65 15.5 16.1 14.45 Q16.75 13.5 17.85 13.5 19.95 13.5 20.55 16.8 L20.55 16.85 21.9 15.6 Q22.4 14.9 23.6 14.9 25.65 14.9 25.65 17.4 25.65 19.1 24.5 20.6 M-13.2 23.15 L-13.05 23.15 Q-13.55 22.5 -13.95 22.5 L-13.2 23.15 M-7.5 15.65 Q-6.75 15.3 -6.75 15.05 L-7.5 15.6 -7.5 15.65" fill="#d1d0a5" fill-opacity="0.3019608" fill-rule="evenodd" stroke="none"/>
    <path d="M2.25 -2.15 L2.7 1.05 2.4 1.25 Q2.0 0.7 1.45 -1.45 0.9 -3.4 0.9 -3.8 0.7 -4.9 1.35 -5.4 1.95 -4.2 2.25 -2.15 M6.3 15.8 Q6.3 17.75 7.45 19.8 L9.9 24.15 9.95 24.25 9.65 24.3 Q8.15 24.3 5.4 17.35 5.4 13.55 6.95 15.75 L6.35 15.6 6.3 15.8 M1.2 13.25 L1.05 13.55 1.45 14.35 2.0 14.9 1.65 15.0 Q1.15 15.0 0.75 14.35 L0.45 13.5 0.5 13.0 1.1 12.5 1.2 13.25 M9.0 19.3 L9.05 18.65 Q9.25 18.2 9.9 18.5 9.45 19.05 9.85 19.9 L10.65 21.2 10.5 21.35 9.15 20.25 Q9.0 20.0 9.0 19.3 M-0.3 -2.75 L-0.05 -1.35 -0.15 -1.05 -0.45 -1.05 Q-1.4 -1.05 -1.8 -3.0 -1.8 -4.25 -1.35 -4.4 -0.7 -3.9 -0.3 -2.75 M-14.55 3.75 Q-15.6 2.7 -15.6 1.45 L-15.3 0.75 Q-14.4 1.5 -14.4 3.0 L-14.55 3.75 M-18.5 1.8 L-18.45 2.1 -18.75 3.35 Q-18.75 4.35 -18.2 4.5 L-19.0 4.8 Q-19.55 4.8 -19.65 4.2 L-19.65 3.4 -19.6 2.3 Q-19.4 1.75 -18.6 1.65 L-18.5 1.8 M-17.7 2.0 Q-17.7 -4.0 -16.7 0.45 -16.85 3.1 -15.0 6.2 L-15.0 6.3 -15.25 6.35 Q-16.3 6.35 -17.1 4.2 L-17.7 2.0 M-17.25 16.05 L-17.4 17.7 -17.3 18.85 -16.55 20.25 -17.7 19.0 -17.85 17.7 -17.85 16.9 Q-17.75 16.35 -17.25 16.05 M-19.65 14.4 L-19.2 18.6 -18.5 22.35 -18.55 22.45 -18.9 22.5 Q-20.0 22.5 -20.3 20.2 L-20.4 17.85 Q-20.4 14.05 -19.55 12.95 L-19.65 14.4 M-10.65 19.35 Q-9.75 19.25 -9.4 20.65 -9.0 22.35 -7.7 22.8 L-8.6 23.1 Q-9.7 23.1 -10.2 21.4 L-10.65 19.35 M-2.25 12.4 L-2.1 10.65 Q-1.65 11.4 -1.1 13.7 L-0.2 17.45 -0.3 17.55 Q-1.05 16.9 -1.7 14.75 L-2.25 12.4 M-3.55 14.2 Q-3.4 15.2 -2.85 15.75 L-3.0 15.9 Q-4.0 15.35 -4.15 14.5 L-4.25 12.95 -3.8 12.8 Q-3.7 12.95 -3.55 14.2 M-7.1 15.6 Q-7.1 17.75 -6.65 19.8 L-5.55 24.2 -5.85 24.35 Q-6.4 23.4 -7.05 20.95 -7.65 18.45 -7.65 16.95 L-7.4 15.35 -7.05 13.95 -7.1 15.6 M-2.35 21.25 Q-2.0 22.3 -1.35 22.95 L-1.3 23.15 -1.55 23.25 Q-2.35 23.25 -2.95 22.3 L-3.45 21.2 Q-3.45 19.65 -3.0 19.55 L-2.35 21.25 M-21.85 17.65 Q-21.8 19.3 -21.2 20.25 L-21.3 20.3 -22.4 18.65 -22.5 17.25 Q-22.5 15.5 -22.2 15.15 -21.85 15.85 -21.85 17.65" fill="#333333" fill-rule="evenodd" stroke="none"/>
    <path d="M0.65 -27.2 Q-6.1 -27.45 -10.25 -24.15 -13.05 -21.95 -13.4 -19.65 L-13.55 -19.65 -13.65 -20.2 -13.65 -19.6 -13.85 -20.25 -13.65 -21.5 -13.65 -22.2 -13.4 -22.85 -13.65 -23.0 -13.65 -23.5 -13.05 -23.35 Q-11.95 -25.0 -9.15 -27.0 -6.4 -29.0 -1.3 -29.3 3.8 -29.6 7.5 -28.05 11.2 -26.55 13.05 -24.25 14.3 -22.7 14.45 -22.0 L13.95 -22.0 9.9 -25.15 Q7.4 -27.0 0.65 -27.2 M17.4 -19.55 L14.8 -19.75 14.75 -19.8 13.3 -19.7 13.1 -19.75 10.8 -19.25 10.8 -19.35 13.05 -20.2 Q14.1 -20.65 14.95 -20.75 L14.1 -20.8 13.65 -21.2 14.15 -21.2 14.1 -20.8 Q18.15 -21.2 20.4 -20.3 L20.9 -20.3 21.25 -19.95 21.25 -19.9 Q22.3 -19.4 23.2 -18.6 26.85 -15.5 26.9 -11.85 L26.85 -8.05 26.85 -7.95 26.65 -7.8 Q32.7 -4.2 32.7 2.25 32.7 5.95 31.2 9.3 29.2 13.8 25.1 14.85 L25.05 14.85 25.15 15.45 Q25.05 18.2 22.1 21.45 L20.15 23.25 Q18.8 24.25 17.25 24.95 14.3 26.15 10.6 26.15 L7.8 26.0 7.25 26.45 7.25 26.95 7.05 26.9 5.55 27.8 Q3.05 28.95 -1.6 28.95 -5.4 28.95 -10.3 27.15 -14.1 25.7 -15.0 24.45 L-17.9 24.6 Q-22.3 24.6 -25.85 21.5 -28.85 18.85 -28.85 16.85 L-28.95 15.1 Q-28.85 13.7 -28.1 13.4 -29.25 13.05 -30.2 12.1 L-31.35 10.7 Q-33.75 8.2 -33.75 4.7 -33.75 -2.8 -28.5 -6.05 L-26.4 -7.0 -24.45 -7.0 -25.45 -8.3 Q-26.55 -10.1 -26.55 -11.75 -26.55 -17.65 -22.2 -20.85 -18.45 -23.5 -13.65 -22.75 L-13.65 -22.25 -13.95 -22.35 Q-20.75 -22.15 -23.6 -17.2 -25.15 -14.45 -25.15 -11.7 -25.15 -10.6 -24.35 -8.75 L-23.65 -7.0 -23.1 -7.0 -23.1 -6.9 -22.25 -5.85 -22.25 -5.7 -23.3 -6.6 -23.25 -6.3 Q-23.25 -6.0 -23.55 -5.7 L-23.85 -6.15 -24.35 -6.3 Q-29.4 -6.3 -31.45 -0.8 -32.5 1.95 -32.55 4.7 -32.55 6.6 -31.55 8.6 L-29.85 11.1 -27.0 13.65 -27.9 13.5 Q-28.3 17.25 -26.1 19.8 -22.95 23.35 -15.3 23.7 L-15.3 23.65 -13.7 23.7 -13.2 23.7 -12.8 23.85 -13.3 23.95 Q-12.25 24.55 -10.05 25.85 -8.95 26.8 -7.6 27.15 L2.1 27.75 Q2.8 27.75 4.55 27.0 L4.5 26.65 Q4.5 25.7 5.75 25.35 L6.0 25.3 5.4 25.3 5.15 25.1 Q4.65 23.95 4.2 23.55 L4.35 23.45 5.2 24.0 Q5.65 24.0 6.35 24.5 L6.85 24.65 6.9 24.6 7.2 24.45 7.25 24.4 7.3 24.6 7.3 24.75 10.55 25.0 12.85 24.9 17.25 23.85 18.5 23.25 Q20.7 22.05 22.15 19.95 23.75 17.65 24.6 14.95 L22.45 15.15 21.35 14.85 21.4 14.85 20.75 14.75 Q21.55 14.15 23.4 13.7 25.45 13.15 27.0 12.2 28.85 11.15 29.85 8.85 31.35 5.45 31.35 2.1 31.35 -0.95 28.6 -4.45 L25.8 -7.9 25.8 -8.3 26.15 -8.1 Q25.9 -8.65 25.7 -10.25 25.35 -13.2 24.9 -14.15 23.55 -17.35 18.85 -19.55 18.7 -19.35 19.45 -19.1 L18.1 -19.3 17.4 -19.55 M11.05 -20.05 L11.05 -19.95 10.7 -19.8 10.65 -19.85 11.05 -20.05" fill="#333333" fill-rule="evenodd" stroke="none"/>
  </g>
</svg>
