<?xml version="1.0" encoding="UTF-8" standalone="no"?>
<svg xmlns:xlink="http://www.w3.org/1999/xlink" height="48.9px" width="35.4px" xmlns="http://www.w3.org/2000/svg">
  <g transform="matrix(1.0, 0.0, 0.0, 1.0, 17.7, 24.45)">
    <path d="M8.15 -23.2 L4.8 -24.05 3.6 -24.45 10.3 -24.45 10.05 -24.15 9.45 -24.05 8.85 -23.8 8.6 -23.2 8.15 -23.2" fill="#f77543" fill-rule="evenodd" stroke="none"/>
    <path d="M4.8 -24.05 L3.55 -24.05 3.55 -23.6 1.85 -23.6 2.25 -24.45 3.6 -24.45 4.8 -24.05" fill="#f0623c" fill-rule="evenodd" stroke="none"/>
    <path d="M3.55 -23.6 L3.55 -24.05 4.8 -24.05 8.15 -23.2 4.8 -23.2 3.95 -23.2 3.85 -23.5 3.55 -23.6" fill="#f5884d" fill-rule="evenodd" stroke="none"/>
    <path d="M9.45 -24.05 L10.4 -23.55 11.55 -23.6 11.65 -22.9 9.75 -22.65 11.7 -21.4 11.55 -21.1 9.45 -21.1 8.6 -22.35 8.6 -23.2 8.85 -23.8 9.45 -24.05" fill="#fa753e" fill-rule="evenodd" stroke="none"/>
    <path d="M9.45 -24.05 L10.05 -24.15 10.3 -24.45 14.9 -24.45 14.4 -24.2 13.65 -24.05 11.55 -24.05 11.55 -23.6 10.4 -23.55 9.45 -24.05" fill="#fa6228" fill-rule="evenodd" stroke="none"/>
    <path d="M2.25 -24.45 L1.85 -23.6 Q0.75 -23.3 -1.6 -23.55 L-4.45 -24.05 -4.45 -24.45 2.25 -24.45" fill="#f26942" fill-rule="evenodd" stroke="none"/>
    <path d="M3.55 -23.6 L3.85 -23.5 3.95 -23.2 3.55 -23.2 3.55 -22.75 1.0 -22.75 1.0 -22.35 1.0 -21.95 0.5 -21.7 0.3 -21.7 -1.1 -22.35 -0.7 -22.75 -2.8 -23.2 -2.8 -22.75 -3.2 -22.75 -4.05 -23.2 -6.6 -23.6 -6.6 -24.05 -4.45 -24.05 -1.6 -23.55 Q0.75 -23.3 1.85 -23.6 L3.55 -23.6" fill="#df7d55" fill-rule="evenodd" stroke="none"/>
    <path d="M-4.45 -24.45 L-4.45 -24.05 -6.6 -24.05 -6.6 -23.6 -7.4 -23.6 -9.95 -23.6 -10.4 -24.05 -10.8 -24.45 -4.45 -24.45" fill="#f3542d" fill-rule="evenodd" stroke="none"/>
    <path d="M0.3 -21.7 L0.5 -21.7 1.3 -21.8 1.0 -21.95 1.0 -22.35 2.25 -22.35 4.8 -21.95 6.05 -21.5 3.55 -21.5 3.55 -21.1 -1.5 -21.1 -1.5 -21.5 0.3 -21.7" fill="#f28b65" fill-rule="evenodd" stroke="none"/>
    <path d="M-1.1 -22.35 L0.3 -21.7 -1.5 -21.5 -2.0 -21.95 -2.35 -22.35 -1.95 -22.35 -1.1 -22.35 M0.5 -21.7 L1.0 -21.95 1.3 -21.8 0.5 -21.7" fill="#f06340" fill-rule="evenodd" stroke="none"/>
    <path d="M1.0 -22.35 L1.0 -22.75 3.55 -22.75 4.0 -22.45 2.25 -22.35 1.0 -22.35" fill="#80949e" fill-rule="evenodd" stroke="none"/>
    <path d="M-2.8 -22.75 L-2.8 -23.2 -0.7 -22.75 -1.1 -22.35 -1.95 -22.35 -2.2 -22.65 -2.8 -22.75" fill="#8b7c79" fill-rule="evenodd" stroke="none"/>
    <path d="M-1.5 -21.5 L-1.5 -21.1 -3.2 -21.5 -2.8 -22.75 -2.2 -22.65 -1.95 -22.35 -2.35 -22.35 -2.0 -21.95 -1.5 -21.5" fill="#ea7855" fill-rule="evenodd" stroke="none"/>
    <path d="M-1.5 -21.1 L3.55 -21.1 6.9 -21.1 7.75 -21.1 Q8.7 -20.55 10.25 -20.2 L10.9 -20.3 11.95 -20.65 14.9 -20.65 Q15.1 -20.55 15.55 -20.4 L16.2 -20.25 17.25 -19.95 17.7 -19.3 17.7 -17.7 17.0 -17.7 16.6 -17.7 14.0 -18.5 9.55 -19.2 6.9 -19.0 5.2 -19.0 3.8 -18.8 0.15 -17.7 0.15 -17.9 -1.5 -17.45 -3.2 -16.85 -3.65 -16.85 -7.85 -17.3 -8.25 -17.3 -8.25 -17.7 -5.1 -18.15 -14.6 -19.4 -17.1 -21.5 -15.0 -21.5 -14.15 -21.5 -12.5 -21.15 -11.5 -21.55 Q-10.4 -22.0 -9.95 -22.35 L-8.25 -22.35 -7.0 -21.65 -6.15 -21.1 -5.95 -21.2 Q-5.75 -21.4 -5.75 -21.95 L-3.2 -21.5 -1.5 -21.1 M-1.1 -19.4 L-0.7 -19.15 0.45 -19.05 2.1 -19.45 2.7 -19.8 1.25 -20.0 -0.15 -19.7 -1.1 -19.4 M6.65 -19.35 L7.95 -19.25 9.2 -19.45 10.3 -19.8 4.8 -19.65 6.65 -19.35 M-10.35 -20.25 Q-9.65 -19.7 -8.9 -20.0 -8.15 -20.3 -8.1 -21.05 L-10.35 -20.25" fill="#f55938" fill-rule="evenodd" stroke="none"/>
    <path d="M-1.1 -19.4 L-0.15 -19.7 1.25 -20.0 2.7 -19.8 2.1 -19.45 0.45 -19.05 -0.7 -19.15 -1.1 -19.4" fill="#fc4b28" fill-rule="evenodd" stroke="none"/>
    <path d="M-3.2 -22.75 L-2.8 -22.75 -3.2 -21.5 -5.75 -21.95 Q-5.75 -21.4 -5.95 -21.2 L-6.15 -21.1 -7.0 -21.65 -8.25 -22.35 -6.6 -22.35 -3.2 -22.75" fill="#f96e47" fill-rule="evenodd" stroke="none"/>
    <path d="M-4.05 -23.2 L-3.2 -22.75 -6.6 -22.35 -8.25 -22.75 -8.25 -23.2 -7.4 -23.2 -4.05 -23.2" fill="#ed8c60" fill-rule="evenodd" stroke="none"/>
    <path d="M-3.65 -16.85 L-3.2 -16.85 -1.75 -16.6 -0.25 -17.3 Q0.7 -17.25 2.9 -18.05 4.95 -18.75 5.2 -19.0 L6.9 -19.0 6.9 -18.55 4.8 -17.7 5.4 -17.45 6.05 -17.3 6.35 -17.15 6.5 -16.85 3.55 -16.45 -0.25 -16.05 0.35 -15.75 1.0 -15.6 1.0 -15.2 -1.5 -15.2 -4.45 -15.2 -5.6 -16.4 -4.8 -16.25 -3.65 -16.85" fill="#f87e38" fill-rule="evenodd" stroke="none"/>
    <path d="M-3.65 -16.85 L-4.8 -16.25 -5.6 -16.4 -6.6 -16.45 -9.55 -16.45 -9.95 -16.45 -9.95 -16.85 -7.85 -17.3 -3.65 -16.85" fill="#ee7752" fill-rule="evenodd" stroke="none"/>
    <path d="M-9.95 -16.45 L-9.55 -16.45 -8.1 -15.8 -7.5 -15.9 Q-6.9 -16.15 -6.6 -16.45 L-5.6 -16.4 -4.45 -15.2 -6.15 -15.2 -5.3 -14.35 -7.4 -14.35 -13.75 -15.6 -13.75 -16.45 -12.05 -16.45 -9.95 -16.45" fill="#f98443" fill-rule="evenodd" stroke="none"/>
    <path d="M-4.45 -15.2 L-1.5 -15.2 -1.5 -14.75 -4.05 -14.75 -4.9 -14.75 -4.9 -14.35 -5.3 -14.35 -6.15 -15.2 -4.45 -15.2" fill="#f68b58" fill-rule="evenodd" stroke="none"/>
    <path d="M-5.3 -14.35 L-4.9 -14.35 -1.65 -13.75 -0.25 -14.0 1.45 -14.35 4.1 -14.65 Q6.3 -15.05 6.9 -15.6 L6.5 -14.75 6.9 -13.5 Q2.8 -12.35 1.05 -12.3 L-5.3 -12.25 -6.1 -12.7 -7.0 -13.1 -7.0 -12.65 -8.4 -12.5 -9.95 -13.1 -10.35 -13.9 -8.5 -13.75 -7.4 -14.35 -5.3 -14.35" fill="#f9592a" fill-rule="evenodd" stroke="none"/>
    <path d="M-4.9 -14.35 L-4.9 -14.75 -4.05 -14.75 Q-3.55 -14.45 -2.65 -14.3 L-0.25 -14.35 1.45 -14.35 -0.25 -14.0 -1.65 -13.75 -4.9 -14.35" fill="#f89758" fill-rule="evenodd" stroke="none"/>
    <path d="M-4.05 -14.75 L-1.5 -14.75 -0.25 -14.35 -2.65 -14.3 Q-3.55 -14.45 -4.05 -14.75" fill="#d5a59a" fill-rule="evenodd" stroke="none"/>
    <path d="M-3.2 -16.85 L-1.5 -17.45 0.15 -17.9 0.15 -17.7 -0.25 -17.7 -0.25 -17.3 -1.75 -16.6 -3.2 -16.85" fill="#f4704e" fill-rule="evenodd" stroke="none"/>
    <path d="M0.15 -17.7 L3.8 -18.8 5.2 -19.0 Q4.95 -18.75 2.9 -18.05 0.7 -17.25 -0.25 -17.3 L-0.25 -17.7 0.15 -17.7" fill="#f97557" fill-rule="evenodd" stroke="none"/>
    <path d="M-1.5 -15.2 L1.0 -15.2 1.6 -15.05 1.85 -14.75 1.45 -14.75 1.45 -14.35 -0.25 -14.35 -1.5 -14.75 -1.5 -15.2" fill="#e7a383" fill-rule="evenodd" stroke="none"/>
    <path d="M1.0 -15.2 L1.0 -15.6 2.2 -16.0 3.55 -16.45 6.5 -16.85 6.5 -16.45 Q5.7 -15.45 4.1 -14.9 L1.85 -14.75 1.6 -15.05 1.0 -15.2" fill="#f89c6d" fill-rule="evenodd" stroke="none"/>
    <path d="M6.9 -15.6 Q6.3 -15.05 4.1 -14.65 L1.45 -14.35 1.45 -14.75 1.85 -14.75 4.1 -14.9 Q5.7 -15.45 6.5 -16.45 L7.85 -16.6 9.0 -16.85 8.6 -16.05 6.9 -15.6" fill="#fa8652" fill-rule="evenodd" stroke="none"/>
    <path d="M1.0 -15.6 L0.35 -15.75 -0.25 -16.05 3.55 -16.45 2.2 -16.0 1.0 -15.6" fill="#fa8f25" fill-rule="evenodd" stroke="none"/>
    <path d="M6.05 -21.5 L4.8 -21.95 4.8 -22.35 5.2 -22.35 8.6 -22.35 9.45 -21.1 7.75 -21.1 6.9 -21.1 6.65 -21.4 6.05 -21.5" fill="#f8834b" fill-rule="evenodd" stroke="none"/>
    <path d="M4.8 -23.2 L8.15 -23.2 8.6 -23.2 8.6 -22.35 5.2 -22.35 4.8 -23.2" fill="#e18362" fill-rule="evenodd" stroke="none"/>
    <path d="M3.55 -21.1 L3.55 -21.5 6.05 -21.5 6.65 -21.4 6.9 -21.1 3.55 -21.1" fill="#f4735b" fill-rule="evenodd" stroke="none"/>
    <path d="M6.65 -19.35 L4.8 -19.65 10.3 -19.8 9.2 -19.45 7.95 -19.25 6.65 -19.35" fill="#fa4820" fill-rule="evenodd" stroke="none"/>
    <path d="M6.9 -19.0 L9.55 -19.2 14.0 -18.5 16.6 -17.7 12.8 -18.55 6.9 -18.15 6.9 -18.55 6.9 -19.0" fill="#fa7141" fill-rule="evenodd" stroke="none"/>
    <path d="M11.95 -20.65 L10.9 -20.3 10.25 -20.2 Q8.7 -20.55 7.75 -21.1 L9.45 -21.1 11.55 -21.1 11.85 -20.95 11.95 -20.65" fill="#f76844" fill-rule="evenodd" stroke="none"/>
    <path d="M3.95 -23.2 L4.8 -23.2 5.2 -22.35 4.8 -22.35 4.8 -21.95 2.25 -22.35 4.0 -22.45 3.55 -22.75 3.55 -23.2 3.95 -23.2" fill="#c18b6c" fill-rule="evenodd" stroke="none"/>
    <path d="M6.5 -16.85 L6.35 -17.15 6.05 -17.3 6.3 -17.9 6.9 -18.15 12.8 -18.55 14.5 -17.3 11.1 -17.3 11.1 -16.85 8.6 -16.05 9.0 -16.85 6.5 -16.85" fill="#f9834b" fill-rule="evenodd" stroke="none"/>
    <path d="M6.05 -17.3 L5.4 -17.45 4.8 -17.7 6.9 -18.55 6.9 -18.15 6.3 -17.9 6.05 -17.3" fill="#fc8d46" fill-rule="evenodd" stroke="none"/>
    <path d="M6.5 -16.45 L6.5 -16.85 9.0 -16.85 7.85 -16.6 6.5 -16.45" fill="#f99766" fill-rule="evenodd" stroke="none"/>
    <path d="M6.5 -14.75 L6.9 -15.6 8.6 -16.05 11.1 -16.85 13.15 -16.75 17.7 -16.45 17.7 -14.35 11.55 -15.45 7.95 -15.1 6.5 -14.75" fill="#fa5426" fill-rule="evenodd" stroke="none"/>
    <path d="M6.9 -13.5 L6.5 -14.75 7.95 -15.1 11.55 -15.45 17.7 -14.35 17.7 -13.95 15.35 -14.35 10.2 -14.15 6.9 -13.5" fill="#fa5f30" fill-rule="evenodd" stroke="none"/>
    <path d="M-9.95 -13.1 L-8.4 -12.5 -7.0 -12.65 -6.2 -12.4 -5.3 -12.25 1.05 -12.3 Q2.8 -12.35 6.9 -13.5 L10.2 -14.15 15.35 -14.35 15.75 -13.5 14.9 -13.5 11.55 -13.5 9.85 -13.5 9.85 -13.1 8.6 -13.1 6.0 -12.45 3.95 -11.8 3.7 -11.5 3.1 -11.4 -1.1 -10.95 -6.15 -11.4 -6.6 -11.4 -10.35 -12.25 -13.75 -12.65 -13.75 -13.1 -9.95 -13.1" fill="#fb7919" fill-rule="evenodd" stroke="none"/>
    <path d="M11.55 -23.6 L11.55 -24.05 13.65 -24.05 13.65 -23.6 15.75 -22.35 14.2 -22.15 13.9 -21.95 Q14.4 -21.5 15.35 -21.5 L15.35 -20.65 14.9 -20.65 11.95 -20.65 11.85 -20.95 11.55 -21.1 11.7 -21.4 9.75 -22.65 11.65 -22.9 11.55 -23.6" fill="#f47d4e" fill-rule="evenodd" stroke="none"/>
    <path d="M13.65 -24.05 L14.4 -24.2 14.9 -24.45 17.7 -24.45 17.7 -23.6 13.65 -23.6 13.65 -24.05" fill="#f56b3a" fill-rule="evenodd" stroke="none"/>
    <path d="M13.65 -23.6 L17.7 -23.6 17.7 -22.75 17.0 -22.75 17.0 -22.35 15.75 -22.35 13.65 -23.6" fill="#e0855e" fill-rule="evenodd" stroke="none"/>
    <path d="M17.7 -22.75 L17.7 -21.1 15.35 -20.65 15.35 -21.5 17.0 -22.35 17.0 -22.75 17.7 -22.75" fill="#f3733e" fill-rule="evenodd" stroke="none"/>
    <path d="M15.75 -22.35 L17.0 -22.35 15.35 -21.5 Q14.4 -21.5 13.9 -21.95 L14.2 -22.15 15.75 -22.35" fill="#f46027" fill-rule="evenodd" stroke="none"/>
    <path d="M17.7 -19.3 L17.25 -19.95 16.2 -20.25 16.2 -20.65 17.7 -20.65 17.7 -19.3" fill="#f74e1f" fill-rule="evenodd" stroke="none"/>
    <path d="M16.2 -20.25 L15.55 -20.4 Q15.1 -20.55 14.9 -20.65 L15.35 -20.65 17.7 -21.1 17.7 -20.65 16.2 -20.65 16.2 -20.25" fill="#fb5830" fill-rule="evenodd" stroke="none"/>
    <path d="M17.0 -17.7 L17.7 -17.7 17.7 -16.45 13.15 -16.75 11.1 -16.85 11.1 -17.3 14.5 -17.3 17.0 -17.7" fill="#fa7434" fill-rule="evenodd" stroke="none"/>
    <path d="M11.55 -13.5 L14.9 -13.5 14.9 -13.1 13.25 -13.1 11.55 -13.1 11.55 -13.5" fill="#e56e27" fill-rule="evenodd" stroke="none"/>
    <path d="M16.6 -17.7 L17.0 -17.7 14.5 -17.3 12.8 -18.55 16.6 -17.7" fill="#fc761f" fill-rule="evenodd" stroke="none"/>
    <path d="M15.75 -13.5 L15.35 -14.35 17.7 -13.95 17.7 -13.5 15.75 -13.5" fill="#f78441" fill-rule="evenodd" stroke="none"/>
    <path d="M14.9 -13.1 L14.9 -13.5 15.75 -13.5 17.7 -13.5 17.7 -12.65 17.0 -12.65 14.9 -13.1" fill="#b55346" fill-rule="evenodd" stroke="none"/>
    <path d="M11.55 -13.5 L11.55 -13.1 9.85 -13.1 9.85 -13.5 11.55 -13.5" fill="#f98405" fill-rule="evenodd" stroke="none"/>
    <path d="M-15.45 -24.45 L-10.8 -24.45 -10.4 -24.05 -9.95 -23.6 -10.8 -23.6 -10.8 -23.2 -12.5 -23.2 -15.45 -24.45" fill="#f5572e" fill-rule="evenodd" stroke="none"/>
    <path d="M-6.6 -23.6 L-4.05 -23.2 -7.4 -23.2 -7.4 -23.6 -6.6 -23.6" fill="#757f81" fill-rule="evenodd" stroke="none"/>
    <path d="M-10.8 -23.2 L-10.8 -23.6 -9.95 -23.6 -7.4 -23.6 -7.4 -23.2 -8.25 -23.2 -8.25 -22.75 -8.7 -22.75 -10.8 -23.2" fill="#bb755c" fill-rule="evenodd" stroke="none"/>
    <path d="M-17.55 -24.45 L-15.45 -24.45 -12.5 -23.2 -12.9 -23.2 -15.45 -23.2 Q-16.3 -23.2 -16.9 -23.55 -17.55 -23.95 -17.55 -24.45" fill="#f94d18" fill-rule="evenodd" stroke="none"/>
    <path d="M-17.7 -22.7 L-17.55 -24.45 Q-17.55 -23.95 -16.9 -23.55 -16.3 -23.2 -15.45 -23.2 L-15.45 -22.75 -17.7 -22.7" fill="#f3572f" fill-rule="evenodd" stroke="none"/>
    <path d="M-15.45 -23.2 L-12.9 -23.2 -12.85 -23.0 Q-14.0 -22.4 -14.15 -22.35 L-15.45 -22.75 -15.45 -23.2" fill="#e6664e" fill-rule="evenodd" stroke="none"/>
    <path d="M-17.7 -21.7 L-17.7 -22.7 -15.45 -22.75 -14.15 -22.35 -15.0 -21.5 -17.1 -21.5 -17.7 -21.7" fill="#f16c47" fill-rule="evenodd" stroke="none"/>
    <path d="M-17.7 -18.15 L-17.7 -21.7 -17.1 -21.5 -14.6 -19.4 -15.45 -18.55 -17.1 -18.55 -17.1 -18.15 -17.7 -18.15" fill="#f24429" fill-rule="evenodd" stroke="none"/>
    <path d="M-17.1 -18.15 L-17.1 -18.55 -15.45 -18.55 -14.15 -18.15 -15.85 -18.15 -16.25 -18.15 -16.25 -16.85 -16.85 -17.25 -17.1 -18.15" fill="#de4f3f" fill-rule="evenodd" stroke="none"/>
    <path d="M-16.25 -16.85 L-16.25 -18.15 -15.85 -18.15 -14.15 -16.85 -15.85 -16.85 -16.25 -16.85" fill="#ee6f53" fill-rule="evenodd" stroke="none"/>
    <path d="M-17.7 -15.6 L-17.7 -18.15 -17.1 -18.15 -16.85 -17.25 -16.25 -16.85 -15.85 -16.85 Q-15.85 -16.35 -16.1 -15.95 L-16.65 -15.6 -17.7 -15.6" fill="#ed5b35" fill-rule="evenodd" stroke="none"/>
    <path d="M-16.65 -15.6 L-16.1 -15.95 Q-15.85 -16.35 -15.85 -16.85 L-14.15 -16.85 -12.05 -16.45 -13.75 -16.45 -13.75 -15.6 -16.65 -15.6" fill="#f67945" fill-rule="evenodd" stroke="none"/>
    <path d="M-7.4 -14.35 L-8.5 -13.75 -10.35 -13.9 -9.95 -13.1 -13.75 -13.1 -15.85 -13.1 -15.85 -12.65 -17.7 -12.7 -17.7 -15.6 -16.65 -15.6 -13.75 -15.6 -7.4 -14.35" fill="#f84726" fill-rule="evenodd" stroke="none"/>
    <path d="M-8.25 -22.75 L-6.6 -22.35 -8.25 -22.35 -9.95 -22.35 -9.95 -22.75 -8.7 -22.75 -8.25 -22.75" fill="#eb7f54" fill-rule="evenodd" stroke="none"/>
    <path d="M-12.9 -23.2 L-12.5 -23.2 -10.8 -23.2 -8.7 -22.75 -9.95 -22.75 -9.95 -22.35 -12.05 -22.35 -14.15 -22.35 Q-14.0 -22.4 -12.85 -23.0 L-12.9 -23.2" fill="#75756c" fill-rule="evenodd" stroke="none"/>
    <path d="M-10.35 -20.25 L-8.1 -21.05 Q-8.15 -20.3 -8.9 -20.0 -9.65 -19.7 -10.35 -20.25" fill="#e36247" fill-rule="evenodd" stroke="none"/>
    <path d="M-9.95 -22.35 Q-10.4 -22.0 -11.5 -21.55 L-12.5 -21.15 -14.15 -21.5 -13.2 -21.9 -12.05 -22.35 -9.95 -22.35" fill="#f2724e" fill-rule="evenodd" stroke="none"/>
    <path d="M-15.0 -21.5 L-14.15 -22.35 -12.05 -22.35 -13.2 -21.9 -14.15 -21.5 -15.0 -21.5" fill="#d26b46" fill-rule="evenodd" stroke="none"/>
    <path d="M-14.6 -19.4 L-5.1 -18.15 -8.25 -17.7 -12.05 -17.7 -14.15 -18.15 -15.45 -18.55 -14.6 -19.4" fill="#f63f26" fill-rule="evenodd" stroke="none"/>
    <path d="M-9.95 -16.85 L-9.95 -16.45 -12.05 -16.45 -14.15 -16.85 -15.85 -18.15 -14.15 -18.15 -12.05 -17.7 -11.95 -17.4 -11.65 -17.3 Q-10.9 -16.9 -9.95 -16.85" fill="#c9746b" fill-rule="evenodd" stroke="none"/>
    <path d="M-8.25 -17.7 L-8.25 -17.3 -11.65 -17.3 -11.95 -17.4 -12.05 -17.7 -8.25 -17.7" fill="#b3605e" fill-rule="evenodd" stroke="none"/>
    <path d="M-7.85 -17.3 L-9.95 -16.85 Q-10.9 -16.9 -11.65 -17.3 L-8.25 -17.3 -7.85 -17.3" fill="#c57e6d" fill-rule="evenodd" stroke="none"/>
    <path d="M-9.55 -16.45 L-6.6 -16.45 Q-6.9 -16.15 -7.5 -15.9 L-8.1 -15.8 -9.55 -16.45" fill="#f77a36" fill-rule="evenodd" stroke="none"/>
    <path d="M-7.0 -12.65 L-7.0 -13.1 -6.1 -12.7 -5.3 -12.25 -6.2 -12.4 -7.0 -12.65" fill="#f85715" fill-rule="evenodd" stroke="none"/>
    <path d="M13.25 -13.1 L14.9 -13.1 17.0 -12.65 17.7 -12.65 17.7 -10.95 13.65 -11.4 13.25 -11.4 13.95 -9.95 13.95 -9.9 12.8 -10.2 11.5 -10.3 11.1 -10.2 10.8 -10.15 11.05 -10.25 Q11.5 -10.4 11.55 -10.5 L11.5 -10.5 11.55 -10.55 10.6 -10.95 8.8 -11.0 7.75 -10.95 8.15 -10.15 7.0 -9.55 6.5 -9.45 5.2 -9.7 5.2 -10.15 2.25 -10.15 2.25 -10.55 3.9 -10.95 6.05 -11.8 7.75 -11.8 7.75 -12.4 7.75 -12.65 8.15 -12.65 12.4 -12.65 13.0 -12.8 13.25 -13.1 M-8.7 -11.4 L-8.3 -10.95 -7.85 -10.55 -8.25 -10.55 -8.25 -10.15 -4.9 -9.3 -6.6 -9.3 -6.6 -8.85 -7.4 -9.15 -7.85 -9.3 -9.95 -8.85 -12.05 -8.85 -13.5 -9.05 Q-14.6 -9.2 -14.6 -9.3 L-14.6 -8.85 -17.1 -8.85 -16.45 -9.4 -16.7 -9.7 -17.1 -11.4 -14.6 -11.8 -11.65 -11.8 -10.0 -11.5 -8.7 -11.4" fill="#603031" fill-rule="evenodd" stroke="none"/>
    <path d="M-4.9 -9.3 L-8.25 -10.15 -8.25 -10.55 -7.85 -10.55 -5.3 -10.55 -4.45 -10.55 -3.65 -10.15 -3.65 -9.3 -4.9 -9.3" fill="#65342d" fill-rule="evenodd" stroke="none"/>
    <path d="M-7.85 -10.55 L-8.3 -10.95 -8.7 -11.4 -6.6 -11.4 -6.15 -11.4 -5.8 -10.95 -5.3 -10.55 -7.85 -10.55" fill="#c64e35" fill-rule="evenodd" stroke="none"/>
    <path d="M-8.7 -11.4 L-10.0 -11.5 -11.65 -11.8 -11.0 -11.95 -10.35 -12.25 -6.6 -11.4 -8.7 -11.4" fill="#e66836" fill-rule="evenodd" stroke="none"/>
    <path d="M-9.95 -8.0 L-9.95 -8.45 -5.75 -8.45 -1.95 -8.45 -1.5 -8.45 -1.75 -8.15 -2.35 -8.0 -5.75 -8.0 -9.95 -8.0" fill="#cd8057" fill-rule="evenodd" stroke="none"/>
    <path d="M-9.95 -8.45 L-9.95 -8.0 -14.15 -8.0 -14.15 -7.2 -14.45 -7.3 -14.6 -7.6 -14.6 -7.8 -16.7 -7.6 Q-16.0 -8.45 -14.6 -8.85 L-12.4 -8.55 -9.95 -8.45" fill="#ea8445" fill-rule="evenodd" stroke="none"/>
    <path d="M-14.6 -8.85 L-14.6 -9.3 Q-14.6 -9.2 -13.5 -9.05 L-12.05 -8.85 -9.95 -8.85 -7.85 -9.3 -7.4 -9.15 -6.6 -8.85 -5.75 -8.85 -5.75 -8.45 -9.95 -8.45 -12.4 -8.55 -14.6 -8.85" fill="#96656b" fill-rule="evenodd" stroke="none"/>
    <path d="M-6.6 -8.85 L-6.6 -9.3 -4.9 -9.3 -3.65 -9.3 -2.35 -9.3 -2.35 -8.85 -5.75 -8.85 -6.6 -8.85" fill="#ba6d59" fill-rule="evenodd" stroke="none"/>
    <path d="M-17.7 -11.2 L-17.7 -12.7 -15.85 -12.65 -14.7 -12.35 Q-14.35 -12.35 -13.75 -12.65 L-10.35 -12.25 -11.0 -11.95 -11.65 -11.8 -14.6 -11.8 -17.1 -11.4 -17.7 -11.2" fill="#f66e30" fill-rule="evenodd" stroke="none"/>
    <path d="M-13.75 -13.1 L-13.75 -12.65 Q-14.35 -12.35 -14.7 -12.35 L-15.85 -12.65 -15.85 -13.1 -13.75 -13.1" fill="#f86a0f" fill-rule="evenodd" stroke="none"/>
    <path d="M-12.5 -5.5 L-12.5 -6.35 -9.95 -6.35 -9.95 -5.9 -11.25 -5.2 -12.5 -5.5" fill="#fab771" fill-rule="evenodd" stroke="none"/>
    <path d="M-12.5 -6.35 L-12.5 -5.5 -13.3 -5.5 -12.5 -5.05 -13.05 -4.75 -13.75 -4.65 -14.15 -6.35 -14.15 -7.2 -13.75 -7.2 -13.6 -6.9 Q-13.5 -6.75 -13.3 -6.75 L-12.5 -6.35" fill="#db966c" fill-rule="evenodd" stroke="none"/>
    <path d="M-13.3 -6.75 Q-13.5 -6.75 -13.6 -6.9 L-13.75 -7.2 -6.15 -7.2 -4.45 -7.2 -4.45 -6.75 -7.4 -6.75 -13.3 -6.75" fill="#e2a26d" fill-rule="evenodd" stroke="none"/>
    <path d="M-16.7 -7.6 L-14.6 -7.8 -14.6 -7.6 Q-14.7 -6.7 -15.35 -6.35 -16.6 -5.6 -17.1 -5.05 L-17.1 -4.25 -17.55 -6.35 -16.75 -6.35 -15.65 -6.6 Q-15.25 -6.85 -15.4 -7.1 -15.55 -7.35 -16.7 -7.6" fill="#965044" fill-rule="evenodd" stroke="none"/>
    <path d="M-14.6 -7.6 L-14.45 -7.3 -14.15 -7.2 -14.15 -6.35 -14.15 -4.25 -14.6 -4.25 Q-14.6 -4.6 -14.95 -4.8 L-15.85 -5.05 -17.1 -5.05 Q-16.6 -5.6 -15.35 -6.35 -14.7 -6.7 -14.6 -7.6" fill="#623133" fill-rule="evenodd" stroke="none"/>
    <path d="M-9.95 -8.0 L-5.75 -8.0 -6.15 -7.2 -13.75 -7.2 -14.15 -7.2 -14.15 -8.0 -9.95 -8.0" fill="#f8861a" fill-rule="evenodd" stroke="none"/>
    <path d="M-13.75 -4.65 L-13.05 -4.75 -12.5 -5.05 -11.85 -4.95 -11.65 -4.65 -12.05 -4.65 -8.5 -4.2 -8.25 -4.25 -7.95 -4.1 -7.85 -3.8 -10.35 -3.8 -12.5 -3.8 -13.35 -4.05 Q-13.75 -4.3 -13.75 -4.65" fill="#e3934a" fill-rule="evenodd" stroke="none"/>
    <path d="M-14.15 -6.35 L-13.75 -4.65 Q-13.75 -4.3 -13.35 -4.05 L-12.5 -3.8 -12.05 -2.55 -13.3 -1.3 -14.15 -1.7 -14.15 -4.25 -14.15 -6.35" fill="#a85633" fill-rule="evenodd" stroke="none"/>
    <path d="M-14.6 -4.25 L-14.15 -4.25 -14.15 -1.7 -13.3 0.4 -13.3 0.85 -13.3 1.45 -13.8 0.7 Q-14.3 0.4 -15.0 0.4 L-15.0 0.0 -14.6 -0.85 -14.6 -4.25" fill="#883e27" fill-rule="evenodd" stroke="none"/>
    <path d="M-8.25 -4.25 L-8.5 -4.2 -12.05 -4.65 -11.65 -4.65 -8.25 -4.65 -8.25 -4.25" fill="#ba9d98" fill-rule="evenodd" stroke="none"/>
    <path d="M-12.5 -5.5 L-11.25 -5.2 -9.95 -5.9 -9.1 -5.5 -8.5 -5.35 -8.25 -5.05 -8.25 -4.65 -11.65 -4.65 -11.85 -4.95 -12.5 -5.05 -13.3 -5.5 -12.5 -5.5" fill="#f3942d" fill-rule="evenodd" stroke="none"/>
    <path d="M-12.5 -3.8 L-10.35 -3.8 -10.35 -3.4 -10.8 -3.4 -10.7 -2.85 -10.8 -2.1 -12.05 -2.55 -12.5 -3.8" fill="#854d4b" fill-rule="evenodd" stroke="none"/>
    <path d="M-10.8 -2.1 L-10.7 -2.85 -10.8 -3.4 -10.35 -3.4 -9.95 -3.4 Q-9.95 -2.85 -9.5 -2.5 -9.05 -2.15 -8.4 -2.1 L-10.35 -2.1 -10.35 -1.7 Q-10.55 -1.7 -10.65 -1.85 L-10.8 -2.1" fill="#77526e" fill-rule="evenodd" stroke="none"/>
    <path d="M-9.95 -6.35 L-12.5 -6.35 -13.3 -6.75 -7.4 -6.75 -9.95 -6.35" fill="#ec881b" fill-rule="evenodd" stroke="none"/>
    <path d="M-2.35 -8.0 L-1.75 -8.15 -1.5 -8.45 0.15 -8.45 0.15 -7.6 Q-0.05 -7.45 -0.75 -7.2 L-1.1 -7.2 -0.3 -6.7 0.6 -6.35 0.45 -6.05 Q0.35 -5.9 0.15 -5.9 L-5.3 -5.9 -9.1 -5.9 -9.1 -5.5 -9.95 -5.9 -9.95 -6.35 -7.4 -6.75 -4.45 -6.75 -2.35 -7.2 -2.35 -8.0" fill="#f69742" fill-rule="evenodd" stroke="none"/>
    <path d="M-9.1 -5.5 L-9.1 -5.9 -5.3 -5.9 -5.3 -5.05 -8.25 -5.05 -8.5 -5.35 -9.1 -5.5" fill="#f9b072" fill-rule="evenodd" stroke="none"/>
    <path d="M-10.35 -3.8 L-7.85 -3.8 -6.15 -3.8 -4.05 -3.4 -6.6 -3.4 -9.95 -3.4 -10.35 -3.4 -10.35 -3.8" fill="#b47e68" fill-rule="evenodd" stroke="none"/>
    <path d="M-7.85 -3.8 L-7.95 -4.1 -8.25 -4.25 -8.25 -4.65 -5.75 -4.65 -6.15 -3.8 -7.85 -3.8" fill="#d8b28d" fill-rule="evenodd" stroke="none"/>
    <path d="M-8.25 -5.05 L-5.3 -5.05 0.15 -5.05 0.15 -4.65 -3.2 -4.65 -5.75 -4.65 -8.25 -4.65 -8.25 -5.05" fill="#f5a73c" fill-rule="evenodd" stroke="none"/>
    <path d="M-9.95 -3.4 L-6.6 -3.4 Q-6.25 -3.05 -4.8 -2.7 L-2.35 -2.55 -2.35 -2.1 -5.75 -1.7 -7.4 -1.7 -7.9 -1.95 -8.35 -2.1 -8.4 -2.1 Q-9.05 -2.15 -9.5 -2.5 -9.95 -2.85 -9.95 -3.4" fill="#84638c" fill-rule="evenodd" stroke="none"/>
    <path d="M-17.7 -9.7 L-17.7 -11.2 -17.1 -11.4 -16.7 -9.7 -17.7 -9.7" fill="#cf5f3c" fill-rule="evenodd" stroke="none"/>
    <path d="M-17.7 -8.45 L-17.7 -9.7 -16.7 -9.7 -16.45 -9.4 -17.1 -8.85 -17.3 -8.55 -17.7 -8.45" fill="#754442" fill-rule="evenodd" stroke="none"/>
    <path d="M-17.7 -7.8 L-17.7 -8.45 -17.3 -8.55 -17.1 -8.85 -14.6 -8.85 Q-16.0 -8.45 -16.7 -7.6 L-17.7 -7.8" fill="#b1665c" fill-rule="evenodd" stroke="none"/>
    <path d="M-17.7 -6.7 L-17.7 -7.8 -16.7 -7.6 Q-15.55 -7.35 -15.4 -7.1 -15.25 -6.85 -15.65 -6.6 L-16.75 -6.35 -17.55 -6.35 -17.7 -6.7" fill="#662d29" fill-rule="evenodd" stroke="none"/>
    <path d="M-17.7 -3.5 L-17.7 -6.7 -17.55 -6.35 -17.1 -4.25 -16.7 -3.4 -16.95 -3.1 -17.55 -2.95 -17.7 -3.5" fill="#62251d" fill-rule="evenodd" stroke="none"/>
    <path d="M-17.1 -4.25 L-17.1 -5.05 -15.85 -5.05 Q-15.45 -4.15 -15.65 -3.55 L-16.25 -2.55 -16.7 -3.4 -17.1 -4.25" fill="#b9572b" fill-rule="evenodd" stroke="none"/>
    <path d="M-17.7 0.1 L-17.7 -0.45 -17.55 -0.45 -17.7 0.1 M-17.7 -2.95 L-17.7 -3.5 -17.55 -2.95 -17.7 -2.95" fill="#845240" fill-rule="evenodd" stroke="none"/>
    <path d="M-17.7 -0.45 L-17.7 -2.95 -17.55 -2.95 -16.95 -3.1 -16.7 -3.4 -16.25 -2.55 -17.1 -2.55 -17.0 -1.7 -17.1 -0.45 -17.55 -0.45 -17.7 -0.45" fill="#99472c" fill-rule="evenodd" stroke="none"/>
    <path d="M-15.85 -5.05 L-14.95 -4.8 Q-14.6 -4.6 -14.6 -4.25 L-14.6 -0.85 -15.85 -2.1 -15.85 -1.7 -16.15 -1.95 -16.25 -2.55 -15.65 -3.55 Q-15.45 -4.15 -15.85 -5.05" fill="#58281f" fill-rule="evenodd" stroke="none"/>
    <path d="M-14.6 -0.85 L-15.0 0.0 -15.85 0.4 -15.85 -1.7 -15.85 -2.1 -14.6 -0.85" fill="#4f2221" fill-rule="evenodd" stroke="none"/>
    <path d="M-16.25 -2.55 L-16.15 -1.95 -15.85 -1.7 -15.85 0.4 -15.85 0.85 -16.25 0.85 -16.25 1.65 -16.7 1.65 -17.1 -0.45 -17.0 -1.7 -17.1 -2.55 -16.25 -2.55" fill="#d66b31" fill-rule="evenodd" stroke="none"/>
    <path d="M-17.7 1.2 L-17.7 0.1 -17.55 -0.45 -17.1 -0.45 -16.7 1.65 -17.7 1.2" fill="#97472f" fill-rule="evenodd" stroke="none"/>
    <path d="M-15.0 0.0 L-15.0 0.4 -15.45 1.7 -15.85 0.85 -15.85 0.4 -15.0 0.0" fill="#7e4234" fill-rule="evenodd" stroke="none"/>
    <path d="M-15.0 0.4 Q-14.3 0.4 -13.8 0.7 L-13.3 1.45 -13.3 2.1 -13.45 2.75 -12.9 4.6 -13.15 5.2 -13.75 5.45 -13.3 6.75 -14.15 7.15 -14.15 6.95 -15.45 7.15 -15.85 6.3 -15.85 5.45 -15.8 5.55 -15.85 4.1 -16.25 1.65 -16.25 0.85 -15.85 0.85 -15.45 1.7 -15.0 0.4" fill="#e17a46" fill-rule="evenodd" stroke="none"/>
    <path d="M-17.7 2.6 L-17.7 1.2 -16.7 1.65 -16.25 1.65 -15.85 4.1 -15.8 5.55 -15.85 5.45 -16.4 4.7 -17.1 5.05 -16.85 4.6 -16.8 4.2 -17.7 2.6" fill="#cf6841" fill-rule="evenodd" stroke="none"/>
    <path d="M-17.7 4.85 L-17.7 2.6 -16.8 4.2 -16.85 4.6 -17.1 5.05 -17.7 4.85" fill="#ba603c" fill-rule="evenodd" stroke="none"/>
    <path d="M-17.7 5.8 L-17.7 4.85 -17.1 5.05 -16.4 4.7 -15.85 5.45 -15.85 6.3 Q-15.85 7.0 -16.1 7.5 -16.35 8.0 -16.7 8.0 L-17.7 5.8" fill="#c56745" fill-rule="evenodd" stroke="none"/>
    <path d="M-15.85 6.3 L-15.45 7.15 -15.0 9.7 -15.0 11.35 -15.0 12.65 -15.15 12.9 Q-15.25 13.05 -15.45 13.05 L-15.75 12.9 -15.85 12.65 -16.7 9.7 -16.7 8.0 Q-16.35 8.0 -16.1 7.5 -15.85 7.0 -15.85 6.3" fill="#b16042" fill-rule="evenodd" stroke="none"/>
    <path d="M-7.85 -0.85 L-8.6 -1.15 -8.55 -1.45 -7.95 -1.7 -7.4 -1.7 -5.75 -1.7 -5.75 -1.3 -5.95 -1.3 Q-6.4 -0.95 -5.8 -0.9 L-4.9 -0.85 -5.15 -0.55 -5.75 -0.45 -6.6 -0.45 -6.6 0.0 -7.85 -0.85" fill="#85606d" fill-rule="evenodd" stroke="none"/>
    <path d="M-8.4 -2.1 L-8.35 -2.1 -7.9 -1.95 -7.4 -1.7 -7.95 -1.7 -8.55 -1.45 -8.6 -1.15 -7.85 -0.85 -7.95 -0.55 -8.25 -0.45 -9.3 -0.85 -10.35 -1.7 -10.35 -2.1 -8.4 -2.1" fill="#8f667e" fill-rule="evenodd" stroke="none"/>
    <path d="M-8.25 -0.45 L-7.95 -0.55 -7.85 -0.85 -6.6 0.0 -4.9 1.25 -3.65 2.1 -3.5 2.4 -3.2 2.5 -3.0 3.35 -3.2 3.35 -8.25 -0.45" fill="#8d667b" fill-rule="evenodd" stroke="none"/>
    <path d="M-10.35 -1.7 L-9.3 -0.85 -8.25 -0.45 -3.2 3.35 -2.35 4.2 -1.1 5.05 Q-0.4 5.15 -0.25 5.35 -0.1 5.5 -0.3 5.65 L-0.95 5.85 -1.5 5.9 -4.45 3.8 -11.2 -1.3 -12.05 -2.55 -10.8 -2.1 -10.65 -1.85 Q-10.55 -1.7 -10.35 -1.7" fill="#d17337" fill-rule="evenodd" stroke="none"/>
    <path d="M-8.7 1.25 L-9.95 0.4 -11.65 -1.3 -11.2 -1.3 -4.45 3.8 -5.3 3.8 -4.9 4.6 -5.75 5.05 -6.15 3.8 -8.7 1.25" fill="#6e3528" fill-rule="evenodd" stroke="none"/>
    <path d="M-9.1 1.65 L-9.95 1.65 -10.8 0.85 -9.95 0.4 -8.7 1.25 -8.8 1.55 -9.1 1.65" fill="#aa5842" fill-rule="evenodd" stroke="none"/>
    <path d="M-9.95 1.65 L-9.1 1.65 -8.05 3.35 -8.25 3.35 -9.95 1.65" fill="#c26a42" fill-rule="evenodd" stroke="none"/>
    <path d="M-9.1 1.65 L-8.8 1.55 -8.7 1.25 -6.15 3.8 -7.4 3.8 -8.25 3.35 -8.05 3.35 -9.1 1.65" fill="#844b39" fill-rule="evenodd" stroke="none"/>
    <path d="M-6.6 0.0 L-6.6 -0.45 -5.75 -0.45 -2.5 0.7 -4.9 1.25 -6.6 0.0" fill="#704b4b" fill-rule="evenodd" stroke="none"/>
    <path d="M-11.65 -1.3 L-12.5 -1.7 -12.5 -0.45 -12.9 -0.45 -13.2 -0.65 -13.3 -1.3 -12.05 -2.55 -11.2 -1.3 -11.65 -1.3" fill="#934123" fill-rule="evenodd" stroke="none"/>
    <path d="M-9.95 0.4 L-10.8 0.85 -12.5 -0.45 -12.5 -1.7 -11.65 -1.3 -9.95 0.4" fill="#ab5535" fill-rule="evenodd" stroke="none"/>
    <path d="M-13.3 0.4 L-14.15 -1.7 -13.3 -1.3 -13.2 -0.65 -12.9 -0.45 -13.3 0.4" fill="#da6b39" fill-rule="evenodd" stroke="none"/>
    <path d="M-13.3 1.45 L-13.3 0.85 -11.65 2.5 -11.65 3.35 -11.65 4.6 -12.05 4.6 Q-12.05 4.45 -12.2 4.35 -12.3 4.2 -12.5 4.2 L-13.3 2.1 -13.3 1.45" fill="#67302a" fill-rule="evenodd" stroke="none"/>
    <path d="M-13.3 0.85 L-13.3 0.4 -12.9 -0.45 -12.5 -0.45 -11.65 2.1 -11.65 2.5 -13.3 0.85" fill="#a85138" fill-rule="evenodd" stroke="none"/>
    <path d="M-11.65 2.5 L-11.65 2.1 -9.6 3.35 Q-7.95 4.2 -7.4 4.2 L-5.75 5.45 -5.75 5.9 -7.0 5.9 -7.0 6.75 -7.15 7.0 -7.4 7.15 -9.95 4.6 -10.85 3.35 -11.65 2.5" fill="#4b2320" fill-rule="evenodd" stroke="none"/>
    <path d="M-10.8 0.85 L-9.95 1.65 -8.25 3.35 -7.4 3.8 -7.4 4.2 Q-7.95 4.2 -9.6 3.35 L-11.65 2.1 -12.5 -0.45 -10.8 0.85" fill="#6d3226" fill-rule="evenodd" stroke="none"/>
    <path d="M-13.3 6.75 L-13.75 5.45 -13.15 5.2 -12.9 4.6 -12.9 4.2 -12.5 4.2 Q-12.3 4.2 -12.2 4.35 -12.05 4.45 -12.05 4.6 L-12.25 4.85 -12.5 5.05 -11.65 6.75 -12.5 6.75 -12.9 6.75 -13.3 6.75" fill="#b9694a" fill-rule="evenodd" stroke="none"/>
    <path d="M-12.05 4.6 L-11.65 4.6 -11.2 5.9 -8.7 9.25 -10.25 8.1 -11.65 6.75 -12.5 5.05 -12.25 4.85 -12.05 4.6" fill="#9e583c" fill-rule="evenodd" stroke="none"/>
    <path d="M-11.65 4.6 L-11.65 3.35 -10.35 4.6 -11.2 5.9 -11.65 4.6" fill="#421b1c" fill-rule="evenodd" stroke="none"/>
    <path d="M-12.9 4.6 L-13.45 2.75 -13.3 2.1 -12.5 4.2 -12.9 4.2 -12.9 4.6" fill="#c77550" fill-rule="evenodd" stroke="none"/>
    <path d="M-14.15 7.15 L-13.3 6.75 -12.9 6.75 -13.3 9.7 -13.3 10.5 -13.3 11.35 -13.75 11.35 -14.6 9.7 -14.15 8.7 Q-13.8 7.85 -14.15 7.15" fill="#bf6847" fill-rule="evenodd" stroke="none"/>
    <path d="M-15.45 7.15 L-14.15 6.95 -14.15 7.15 Q-13.8 7.85 -14.15 8.7 L-14.6 9.7 -15.0 9.7 -15.45 7.15" fill="#ce6c45" fill-rule="evenodd" stroke="none"/>
    <path d="M-12.5 6.75 L-11.65 6.75 -10.25 8.1 -8.7 9.25 Q-8.5 9.25 -8.4 9.4 L-8.25 9.7 Q-8.45 10.55 -7.4 12.2 L-7.85 12.2 -7.85 12.65 -9.1 13.45 -9.55 13.45 Q-9.55 12.8 -10.0 12.3 -10.5 11.8 -11.2 11.8 L-11.2 10.95 Q-11.25 10.15 -11.65 9.25 L-12.05 8.4 -12.5 6.75" fill="#cc784c" fill-rule="evenodd" stroke="none"/>
    <path d="M-12.5 6.75 L-12.05 8.4 -12.5 8.4 -12.05 10.5 -13.3 9.7 -12.9 6.75 -12.5 6.75" fill="#a85f46" fill-rule="evenodd" stroke="none"/>
    <path d="M-5.75 5.45 L-7.4 4.2 -7.4 3.8 -6.15 3.8 -5.75 5.05 -5.75 5.45" fill="#b96a46" fill-rule="evenodd" stroke="none"/>
    <path d="M-11.65 2.5 L-10.85 3.35 -9.95 4.6 -10.35 4.6 -11.65 3.35 -11.65 2.5" fill="#8e4636" fill-rule="evenodd" stroke="none"/>
    <path d="M-8.25 9.7 L-8.4 9.4 Q-8.5 9.25 -8.7 9.25 L-11.2 5.9 -10.35 4.6 -9.95 4.6 -7.0 9.25 -7.4 9.25 -7.0 10.95 -8.25 9.7" fill="#45231f" fill-rule="evenodd" stroke="none"/>
    <path d="M-7.4 7.15 L-7.15 7.0 -7.0 6.75 -5.75 7.35 -5.75 7.15 Q-5.4 7.15 -5.15 7.4 L-4.9 8.0 -4.95 9.05 -5.2 9.85 -6.15 8.85 -7.4 7.15" fill="#6a3324" fill-rule="evenodd" stroke="none"/>
    <path d="M-7.0 6.75 L-7.0 5.9 -5.75 5.9 -5.3 5.9 -4.9 6.75 -5.75 6.75 -5.75 7.15 -5.75 7.35 -7.0 6.75" fill="#743b2c" fill-rule="evenodd" stroke="none"/>
    <path d="M-9.95 4.6 L-7.4 7.15 -6.15 8.85 -6.4 9.15 -7.0 9.25 -9.95 4.6" fill="#b15837" fill-rule="evenodd" stroke="none"/>
    <path d="M-7.0 10.95 L-7.4 9.25 -7.0 9.25 -6.75 9.85 -6.15 10.1 -6.0 11.85 -7.0 11.35 -7.0 10.95" fill="#3a1b15" fill-rule="evenodd" stroke="none"/>
    <path d="M-6.15 10.1 L-6.75 9.85 -7.0 9.25 -6.4 9.15 -6.15 8.85 -5.2 9.85 -4.95 9.05 -4.9 8.0 -4.05 8.85 -4.45 8.85 -4.05 10.1 -4.2 10.4 -4.45 10.5 -5.3 10.95 Q-5.3 10.6 -5.55 10.35 L-6.15 10.1" fill="#985032" fill-rule="evenodd" stroke="none"/>
    <path d="M-6.15 10.1 L-5.55 10.35 Q-5.3 10.6 -5.3 10.95 L-3.65 13.45 -3.2 14.3 -3.35 15.25 -3.65 16.0 -3.65 15.6 -5.3 13.45 -6.15 13.05 -6.45 12.9 -6.6 12.65 -7.0 11.35 -6.0 11.85 -6.15 10.1" fill="#492720" fill-rule="evenodd" stroke="none"/>
    <path d="M-7.4 12.2 Q-8.45 10.55 -8.25 9.7 L-7.0 10.95 -7.0 11.35 -6.6 12.65 -7.4 12.2" fill="#94583e" fill-rule="evenodd" stroke="none"/>
    <path d="M-7.85 12.65 L-7.85 12.2 -7.4 12.2 -6.6 12.65 -6.45 12.9 -6.15 13.05 -6.15 13.9 -6.6 14.75 -7.15 14.5 -7.4 13.95 -7.4 13.9 -7.85 12.65" fill="#cd7951" fill-rule="evenodd" stroke="none"/>
    <path d="M-12.05 8.4 L-11.65 9.25 -11.75 9.95 -12.05 10.5 -12.5 8.4 -12.05 8.4" fill="#925943" fill-rule="evenodd" stroke="none"/>
    <path d="M-11.65 9.25 Q-11.25 10.15 -11.2 10.95 L-11.65 10.95 -11.65 11.8 -12.05 11.8 -13.3 10.5 -13.3 9.7 -12.05 10.5 -11.75 9.95 -11.65 9.25" fill="#a26653" fill-rule="evenodd" stroke="none"/>
    <path d="M-13.75 11.35 L-13.3 11.35 -12.75 12.45 -12.05 11.8 -11.65 11.8 -11.2 13.45 Q-12.1 13.6 -12.9 14.3 L-13.75 11.35" fill="#be7461" fill-rule="evenodd" stroke="none"/>
    <path d="M-13.3 11.35 L-13.3 10.5 -12.05 11.8 -12.75 12.45 -13.3 11.35" fill="#b06441" fill-rule="evenodd" stroke="none"/>
    <path d="M-11.2 10.95 L-11.2 11.8 -10.35 13.45 -10.8 13.45 -10.35 14.75 -11.2 14.75 -11.2 13.45 -11.65 11.8 -11.65 10.95 -11.2 10.95" fill="#a76655" fill-rule="evenodd" stroke="none"/>
    <path d="M-14.6 9.7 L-13.75 11.35 -12.9 14.3 -12.5 15.6 -13.75 14.3 -13.75 13.9 -14.4 12.4 -15.0 11.35 -15.0 9.7 -14.6 9.7" fill="#d36840" fill-rule="evenodd" stroke="none"/>
    <path d="M-11.2 15.15 L-11.2 14.75 -10.35 14.75 -9.55 16.0 -9.55 17.7 -9.95 17.2 -10.35 16.85 Q-10.35 16.15 -10.6 15.65 -10.85 15.15 -11.2 15.15" fill="#bc7566" fill-rule="evenodd" stroke="none"/>
    <path d="M-11.2 14.75 L-11.2 15.15 -11.65 15.15 -11.65 16.4 -12.05 15.95 -12.5 15.6 -12.9 14.3 Q-12.1 13.6 -11.2 13.45 L-11.2 14.75" fill="#d27957" fill-rule="evenodd" stroke="none"/>
    <path d="M-11.2 15.15 Q-10.85 15.15 -10.6 15.65 -10.35 16.15 -10.35 16.85 L-10.8 16.85 -11.65 16.4 -11.65 15.15 -11.2 15.15" fill="#dd7a4a" fill-rule="evenodd" stroke="none"/>
    <path d="M-13.75 14.3 L-14.4 15.05 -14.65 15.65 -14.6 16.4 -14.7 16.7 -15.0 16.85 -15.45 13.05 Q-15.25 13.05 -15.15 12.9 L-15.0 12.65 -13.75 13.9 -13.75 14.3" fill="#bb6c4c" fill-rule="evenodd" stroke="none"/>
    <path d="M-14.6 16.4 L-14.65 15.65 -14.4 15.05 -13.75 14.3 -13.3 16.4 -13.75 16.4 -13.75 16.85 -14.6 16.4" fill="#995943" fill-rule="evenodd" stroke="none"/>
    <path d="M-15.0 16.85 L-14.7 16.7 -14.6 16.4 -13.75 16.85 -13.3 18.05 -13.65 18.95 -14.15 19.8 -15.0 16.85" fill="#b96848" fill-rule="evenodd" stroke="none"/>
    <path d="M-13.75 16.85 L-13.75 16.4 -13.3 16.4 -12.05 19.8 -11.2 22.3 Q-11.25 23.1 -11.65 24.0 L-12.5 22.3 -12.2 22.15 -12.7 21.55 -13.3 21.05 -13.3 21.5 -14.15 20.2 -14.15 19.8 -13.65 18.95 -13.3 18.05 -13.75 16.85" fill="#945945" fill-rule="evenodd" stroke="none"/>
    <path d="M-11.65 16.4 L-10.8 16.85 -10.35 19.35 -10.8 19.35 -11.65 16.4" fill="#d77c68" fill-rule="evenodd" stroke="none"/>
    <path d="M-12.5 15.6 L-12.05 15.95 -11.65 16.4 -10.8 19.35 -11.4 19.65 -12.05 19.8 -13.3 16.4 -13.75 14.3 -12.5 15.6" fill="#d47748" fill-rule="evenodd" stroke="none"/>
    <path d="M-9.1 13.45 L-7.85 12.65 -7.4 13.9 -7.4 13.95 -7.65 14.5 -8.25 14.75 -9.1 13.45" fill="#c67b58" fill-rule="evenodd" stroke="none"/>
    <path d="M-8.25 14.75 L-7.65 14.5 -7.4 13.95 -7.15 14.5 -6.6 14.75 -6.15 16.4 -7.05 15.4 -7.85 16.0 -8.25 14.75" fill="#ba8171" fill-rule="evenodd" stroke="none"/>
    <path d="M-9.55 13.45 L-9.1 13.45 -8.25 14.75 -7.85 16.0 -7.0 18.1 -7.0 18.55 -7.15 18.85 -7.4 18.95 -7.7 18.85 -7.85 18.55 Q-8.1 17.2 -8.65 16.15 L-9.55 14.75 -9.55 13.45" fill="#a3674a" fill-rule="evenodd" stroke="none"/>
    <path d="M-11.2 11.8 Q-10.5 11.8 -10.0 12.3 -9.55 12.8 -9.55 13.45 L-9.55 14.75 -10.35 13.45 -11.2 11.8" fill="#d57546" fill-rule="evenodd" stroke="none"/>
    <path d="M-9.55 16.0 L-10.35 14.75 -10.8 13.45 -10.35 13.45 -9.55 14.75 -9.55 16.0" fill="#884c3b" fill-rule="evenodd" stroke="none"/>
    <path d="M-10.35 16.85 L-9.95 17.2 -9.55 17.7 -8.7 20.2 -8.8 20.5 -9.1 20.65 -9.55 20.1 -10.35 19.35 -10.8 16.85 -10.35 16.85" fill="#dd804e" fill-rule="evenodd" stroke="none"/>
    <path d="M-9.55 17.7 L-9.55 16.0 -8.25 18.55 -8.35 18.7 -9.0 18.3 -9.55 17.7" fill="#915e4c" fill-rule="evenodd" stroke="none"/>
    <path d="M-7.0 18.1 L-7.0 17.7 -6.15 18.1 -5.3 20.65 -4.85 21.2 -4.05 20.65 Q-3.6 21.6 -4.05 22.7 -4.5 23.7 -5.3 24.0 L-6.15 22.75 -5.85 22.25 -5.7 21.95 -6.1 21.15 -6.6 20.2 -7.0 18.55 -7.0 18.1" fill="#d67b4e" fill-rule="evenodd" stroke="none"/>
    <path d="M-6.15 18.1 L-7.0 17.7 -7.0 18.1 -7.85 16.0 -7.05 15.4 -6.15 16.4 -5.3 18.55 -6.15 18.1" fill="#ba775c" fill-rule="evenodd" stroke="none"/>
    <path d="M-9.55 16.0 L-9.55 14.75 -8.65 16.15 Q-8.1 17.2 -7.85 18.55 L-8.25 18.55 -9.55 16.0" fill="#ca774c" fill-rule="evenodd" stroke="none"/>
    <path d="M-13.75 13.9 L-15.0 12.65 -15.0 11.35 -14.4 12.4 -13.75 13.9" fill="#cc7644" fill-rule="evenodd" stroke="none"/>
    <path d="M-17.7 16.8 L-17.7 5.8 -16.7 8.0 -16.7 9.7 -16.95 9.75 Q-17.15 9.8 -17.15 10.1 L-16.8 11.0 -15.85 12.65 -15.75 12.9 -15.45 13.05 -15.0 16.85 -14.15 19.8 -14.15 20.2 -14.45 20.3 -14.6 20.65 -14.1 21.5 -13.3 21.9 -13.3 22.75 -13.3 23.6 -14.6 23.6 -15.0 21.05 -15.85 18.1 Q-15.65 17.4 -16.05 16.9 L-17.1 16.0 -17.1 16.4 -17.3 16.7 -17.7 16.8" fill="#d87246" fill-rule="evenodd" stroke="none"/>
    <path d="M-16.7 9.7 L-15.85 12.65 -16.8 11.0 -17.15 10.1 Q-17.15 9.8 -16.95 9.75 L-16.7 9.7" fill="#e47743" fill-rule="evenodd" stroke="none"/>
    <path d="M-17.1 16.4 L-17.1 16.0 -16.05 16.9 Q-15.65 17.4 -15.85 18.1 L-16.15 19.0 -17.1 16.4" fill="#a95b3d" fill-rule="evenodd" stroke="none"/>
    <path d="M-14.15 24.45 L-14.6 24.45 -14.15 24.45 M-15.05 24.45 L-15.85 24.45 -16.25 22.75 -17.7 19.7 -17.7 16.8 -17.3 16.7 -17.1 16.4 -16.15 19.0 -15.85 18.1 -15.0 21.05 -15.85 20.65 -15.45 23.15 -15.05 24.45" fill="#c16847" fill-rule="evenodd" stroke="none"/>
    <path d="M-15.85 24.45 L-16.9 24.45 -17.1 22.75 -17.1 22.3 -16.25 22.75 -15.85 24.45" fill="#994631" fill-rule="evenodd" stroke="none"/>
    <path d="M-17.7 21.25 L-17.7 19.7 -16.25 22.75 -17.1 22.3 -17.1 22.75 -17.35 22.75 -17.7 21.25" fill="#b1573b" fill-rule="evenodd" stroke="none"/>
    <path d="M-16.9 24.45 L-17.7 24.45 -17.7 21.25 -17.35 22.75 -17.1 22.75 -16.9 24.45" fill="#de7849" fill-rule="evenodd" stroke="none"/>
    <path d="M-15.0 21.05 L-14.6 23.6 Q-15.0 23.4 -15.45 23.15 L-15.85 20.65 -15.0 21.05" fill="#b25e3d" fill-rule="evenodd" stroke="none"/>
    <path d="M-14.6 24.45 L-15.05 24.45 -15.45 23.15 Q-15.0 23.4 -14.6 23.6 L-13.3 23.6 -13.3 22.75 -12.5 22.3 -11.65 24.0 -14.15 24.45 -14.6 24.45" fill="#ad5435" fill-rule="evenodd" stroke="none"/>
    <path d="M-7.0 18.55 L-6.6 20.2 -7.0 21.05 -7.85 20.75 -8.25 20.65 -8.4 20.35 Q-8.5 20.2 -8.7 20.2 L-9.55 17.7 -9.0 18.3 -8.35 18.7 -8.25 18.55 -7.85 18.55 -7.7 18.85 -7.4 18.95 -7.15 18.85 -7.0 18.55" fill="#bf7a5d" fill-rule="evenodd" stroke="none"/>
    <path d="M-8.7 20.2 Q-8.5 20.2 -8.4 20.35 L-8.25 20.65 -7.85 22.3 -8.7 22.75 -9.55 20.65 -9.1 20.65 -8.8 20.5 -8.7 20.2" fill="#c9714a" fill-rule="evenodd" stroke="none"/>
    <path d="M-6.15 22.75 L-5.3 24.0 -5.3 24.45 -7.0 23.6 -7.85 22.3 -8.25 20.65 -7.85 20.75 -7.0 21.05 -6.15 22.75" fill="#9d5c46" fill-rule="evenodd" stroke="none"/>
    <path d="M-10.35 19.35 L-9.55 20.1 -9.1 20.65 -9.55 20.65 -9.95 20.65 -9.95 21.5 -10.8 21.05 -10.8 23.15 -11.2 22.3 -12.05 19.8 -11.4 19.65 -10.8 19.35 -10.35 19.35" fill="#ce7554" fill-rule="evenodd" stroke="none"/>
    <path d="M-9.95 21.5 L-9.95 20.65 -9.55 20.65 -8.7 22.75 -8.85 23.5 -9.55 23.15 Q-9.6 22.55 -9.95 21.5" fill="#c2787a" fill-rule="evenodd" stroke="none"/>
    <path d="M-9.55 24.45 L-11.2 24.45 -10.9 23.9 -10.8 23.15 -10.8 21.05 -9.95 21.5 Q-9.6 22.55 -9.55 23.15 L-9.55 24.45" fill="#d76943" fill-rule="evenodd" stroke="none"/>
    <path d="M-8.25 24.45 L-9.55 24.45 -9.55 23.15 -8.85 23.5 -8.7 22.75 -7.85 22.3 -7.0 23.6 -8.25 24.45" fill="#e17648" fill-rule="evenodd" stroke="none"/>
    <path d="M-6.6 20.2 L-6.1 21.15 -5.7 21.95 -5.85 22.25 -6.15 22.75 -7.0 21.05 -6.6 20.2" fill="#c1774e" fill-rule="evenodd" stroke="none"/>
    <path d="M-13.3 21.9 L-14.1 21.5 -14.6 20.65 -14.45 20.3 -14.15 20.2 -13.3 21.5 -13.3 21.9" fill="#ba673f" fill-rule="evenodd" stroke="none"/>
    <path d="M-13.3 22.75 L-13.3 21.9 -13.3 21.5 -13.3 21.05 -12.7 21.55 -12.2 22.15 -12.5 22.3 -13.3 22.75" fill="#8e503b" fill-rule="evenodd" stroke="none"/>
    <path d="M-11.2 24.45 L-14.15 24.45 -11.65 24.0 Q-11.25 23.1 -11.2 22.3 L-10.8 23.15 -10.9 23.9 -11.2 24.45" fill="#c3694b" fill-rule="evenodd" stroke="none"/>
    <path d="M-5.3 24.45 L-8.25 24.45 -7.0 23.6 -5.3 24.45" fill="#c56944" fill-rule="evenodd" stroke="none"/>
    <path d="M17.7 -10.95 L17.7 -10.3 Q17.7 -9.9 17.15 -9.6 16.55 -9.3 15.75 -9.3 L14.9 -9.7 13.95 -9.95 13.25 -11.4 13.65 -11.4 17.7 -10.95 M2.25 -10.55 L2.25 -10.15 1.0 -10.15 1.65 -9.9 2.7 -9.3 1.0 -9.3 -2.35 -9.3 -3.65 -9.3 -3.65 -10.15 -1.1 -9.7 0.1 -9.95 Q0.6 -10.2 0.6 -10.55 L1.45 -10.55 2.25 -10.55 M5.2 -9.7 L6.5 -9.45 7.0 -9.55 8.15 -10.15 7.3 -9.3 3.1 -9.3 3.1 -9.7 5.2 -9.7 M7.75 13.45 L10.7 15.6 10.7 16.4 9.85 16.4 8.6 16.4 8.6 16.0 7.75 14.9 6.9 13.9 6.9 13.05 7.75 13.45" fill="#673a33" fill-rule="evenodd" stroke="none"/>
    <path d="M17.7 -10.3 L17.7 -7.75 17.0 -8.85 16.4 -9.0 15.75 -9.3 Q16.55 -9.3 17.15 -9.6 17.7 -9.9 17.7 -10.3" fill="#978282" fill-rule="evenodd" stroke="none"/>
    <path d="M17.7 -7.75 L17.7 -5.9 16.6 -5.9 16.2 -6.75 15.75 -7.6 16.6 -8.45 14.9 -8.0 14.05 -8.45 13.65 -8.45 13.65 -8.85 13.65 -9.3 14.4 -9.45 14.9 -9.7 15.75 -9.3 16.4 -9.0 17.0 -8.85 17.7 -7.75 M6.9 -5.9 L12.6 -5.9 6.5 -5.05 6.5 -4.45 3.95 -4.65 3.95 -5.05 6.05 -5.5 6.65 -5.6 6.9 -5.9" fill="#72526b" fill-rule="evenodd" stroke="none"/>
    <path d="M11.55 -13.1 L13.25 -13.1 13.0 -12.8 12.4 -12.65 8.15 -12.65 8.6 -13.1 9.85 -13.1 11.55 -13.1 M7.75 -12.4 L7.75 -11.8 6.05 -11.8 6.05 -12.25 7.75 -12.4" fill="#c85b3d" fill-rule="evenodd" stroke="none"/>
    <path d="M8.15 -10.15 L7.75 -10.95 8.8 -11.0 10.6 -10.95 11.55 -10.55 11.5 -10.5 11.55 -10.5 Q11.5 -10.4 11.05 -10.25 L10.8 -10.15 11.1 -10.2 11.5 -10.3 11.4 -10.25 11.1 -10.15 10.8 -10.15 7.3 -9.3 8.15 -10.15" fill="#563035" fill-rule="evenodd" stroke="none"/>
    <path d="M11.5 -10.3 L12.8 -10.2 13.95 -9.9 13.95 -9.95 14.9 -9.7 14.4 -9.45 13.65 -9.3 11.1 -9.3 10.7 -9.7 10.95 -9.9 11.1 -10.15 11.4 -10.25 11.5 -10.3" fill="#6f5366" fill-rule="evenodd" stroke="none"/>
    <path d="M10.8 -10.15 L11.1 -10.15 10.95 -9.9 10.7 -9.7 11.1 -9.3 11.1 -8.45 9.0 -8.45 9.0 -9.3 8.6 -9.3 7.3 -9.3 10.8 -10.15" fill="#804e50" fill-rule="evenodd" stroke="none"/>
    <path d="M11.1 -8.45 L13.65 -8.85 13.65 -8.45 11.95 -8.0 11.1 -8.45" fill="#9e6358" fill-rule="evenodd" stroke="none"/>
    <path d="M11.1 -8.45 L11.95 -8.0 11.95 -7.6 9.0 -7.6 9.0 -8.45 11.1 -8.45" fill="#ab674a" fill-rule="evenodd" stroke="none"/>
    <path d="M11.1 -8.45 L11.1 -9.3 13.65 -9.3 13.65 -8.85 11.1 -8.45" fill="#815457" fill-rule="evenodd" stroke="none"/>
    <path d="M11.95 -8.0 L13.65 -8.45 14.05 -8.45 Q13.75 -8.1 13.05 -7.8 L11.95 -7.6 11.95 -8.0" fill="#bb7356" fill-rule="evenodd" stroke="none"/>
    <path d="M14.05 -8.45 L14.9 -8.0 16.6 -8.45 15.75 -7.6 16.2 -6.75 16.6 -5.9 16.45 -5.6 16.2 -5.5 14.5 -4.25 13.65 -4.25 11.55 -3.4 10.35 -3.6 Q9.85 -3.85 9.85 -4.2 L9.6 -3.05 Q9.35 -2.55 9.0 -2.55 L9.0 -2.1 8.4 -2.25 Q7.95 -2.4 7.75 -2.55 L7.6 -3.4 7.35 -4.25 12.6 -5.9 6.9 -5.9 6.3 -6.5 Q7.35 -7.2 8.15 -7.2 L8.15 -7.6 9.0 -7.6 11.95 -7.6 13.05 -7.8 Q13.75 -8.1 14.05 -8.45" fill="#64435c" fill-rule="evenodd" stroke="none"/>
    <path d="M11.55 -3.4 L13.65 -4.25 14.5 -4.25 15.1 -4.1 15.35 -3.8 13.25 -2.95 11.55 -3.4" fill="#643c35" fill-rule="evenodd" stroke="none"/>
    <path d="M9.0 -2.1 L9.0 -2.55 Q9.35 -2.55 9.6 -3.05 L9.85 -4.2 Q9.85 -3.85 10.35 -3.6 L11.55 -3.4 13.25 -2.95 12.8 -2.95 12.8 -2.55 10.7 -1.7 9.85 -2.1 9.0 -2.1" fill="#6c4639" fill-rule="evenodd" stroke="none"/>
    <path d="M12.8 -2.55 L12.8 -2.95 13.25 -2.95 15.35 -3.8 Q15.35 -3.3 14.85 -2.9 14.35 -2.55 13.65 -2.55 L12.8 -2.1 12.8 -2.55" fill="#986b56" fill-rule="evenodd" stroke="none"/>
    <path d="M17.7 -5.9 L17.7 -5.05 17.45 -5.05 17.45 -4.65 16.85 -4.4 16.6 -3.8 15.75 -3.8 15.35 -3.8 15.1 -4.1 14.5 -4.25 16.2 -5.5 16.45 -5.6 16.6 -5.9 17.7 -5.9" fill="#804e4b" fill-rule="evenodd" stroke="none"/>
    <path d="M15.75 -3.8 L16.6 -3.8 16.9 -3.7 17.0 -3.4 17.0 -3.3 16.65 -2.2 Q16.3 -1.7 15.75 -1.7 L15.75 -2.1 15.7 -3.35 15.75 -3.8" fill="#ee9662" fill-rule="evenodd" stroke="none"/>
    <path d="M17.7 -4.15 L17.7 0.25 17.65 0.45 17.6 0.75 17.7 1.65 17.7 2.1 16.2 1.25 14.9 0.4 Q14.9 0.05 15.15 -0.2 L15.75 -0.45 Q16.3 -0.45 16.65 -1.3 17.0 -2.15 17.0 -3.3 L17.0 -3.4 16.9 -3.7 16.6 -3.8 16.85 -4.4 17.45 -4.65 17.7 -4.15" fill="#c88a7b" fill-rule="evenodd" stroke="none"/>
    <path d="M15.35 -3.8 L15.75 -3.8 15.7 -3.35 15.75 -2.1 14.5 -1.3 13.65 -2.55 Q14.35 -2.55 14.85 -2.9 15.35 -3.3 15.35 -3.8" fill="#d1855e" fill-rule="evenodd" stroke="none"/>
    <path d="M17.7 -5.05 L17.7 -4.15 17.45 -4.65 17.45 -5.05 17.7 -5.05" fill="#ad8f8e" fill-rule="evenodd" stroke="none"/>
    <path d="M17.0 -3.3 Q17.0 -2.15 16.65 -1.3 16.3 -0.45 15.75 -0.45 L15.75 -1.7 Q16.3 -1.7 16.65 -2.2 L17.0 -3.3" fill="#d6855f" fill-rule="evenodd" stroke="none"/>
    <path d="M15.75 -0.45 L15.15 -0.2 Q14.9 0.05 14.9 0.4 L13.65 0.0 14.5 -1.3 15.75 -2.1 15.75 -1.7 15.75 -0.45" fill="#e99e66" fill-rule="evenodd" stroke="none"/>
    <path d="M17.7 0.25 L17.7 1.65 17.6 0.75 17.65 0.45 17.7 0.25" fill="#927f88" fill-rule="evenodd" stroke="none"/>
    <path d="M17.7 2.1 L17.7 2.45 17.5 3.0 17.3 3.9 17.45 5.05 16.6 6.3 16.2 6.3 16.2 5.45 15.85 3.8 14.9 2.1 14.05 0.85 13.75 0.6 13.65 0.0 14.9 0.4 16.2 1.25 17.7 2.1" fill="#d5987c" fill-rule="evenodd" stroke="none"/>
    <path d="M13.65 -2.55 L14.5 -1.3 13.65 0.0 13.25 0.0 12.7 -1.5 12.8 -2.1 13.65 -2.55" fill="#bd8366" fill-rule="evenodd" stroke="none"/>
    <path d="M12.8 -2.55 L12.8 -2.1 12.7 -1.5 13.25 0.0 12.8 0.85 11.1 1.65 10.45 1.95 10.3 0.85 Q10.65 0.25 11.1 0.0 L11.65 -0.05 11.7 -0.5 10.7 -1.7 12.8 -2.55" fill="#9d7864" fill-rule="evenodd" stroke="none"/>
    <path d="M10.7 -1.7 L11.7 -0.5 11.65 -0.05 11.1 0.0 10.75 -0.6 9.85 -0.85 9.45 -0.85 9.85 -2.1 10.7 -1.7" fill="#a77d62" fill-rule="evenodd" stroke="none"/>
    <path d="M11.1 1.65 L12.8 0.85 12.4 2.1 12.25 2.75 11.95 3.35 11.75 3.35 Q11.8 3.95 10.7 5.45 L10.7 3.8 11.1 1.65" fill="#d58a60" fill-rule="evenodd" stroke="none"/>
    <path d="M12.8 0.85 L13.25 0.0 13.65 0.0 13.75 0.6 14.05 0.85 14.05 2.5 12.4 2.1 12.8 0.85" fill="#e69b6e" fill-rule="evenodd" stroke="none"/>
    <path d="M14.05 2.5 L14.05 0.85 14.9 2.1 14.5 4.2 13.7 6.6 13.25 5.05 Q13.35 4.05 13.7 3.25 L14.05 2.5" fill="#be8f77" fill-rule="evenodd" stroke="none"/>
    <path d="M12.4 2.1 L14.05 2.5 13.7 3.25 Q13.35 4.05 13.25 5.05 L12.8 6.75 12.6 6.75 12.35 5.8 11.95 4.6 11.95 3.35 12.25 2.75 12.4 2.1" fill="#e39163" fill-rule="evenodd" stroke="none"/>
    <path d="M11.1 0.0 Q10.65 0.25 10.3 0.85 L9.6 0.25 9.85 -0.85 10.75 -0.6 11.1 0.0" fill="#c18666" fill-rule="evenodd" stroke="none"/>
    <path d="M10.7 5.45 Q11.8 3.95 11.75 3.35 L11.95 3.35 11.95 4.6 11.95 8.0 11.75 7.55 11.1 6.3 10.8 6.1 10.7 5.45" fill="#b78667" fill-rule="evenodd" stroke="none"/>
    <path d="M10.7 5.45 L10.8 6.1 11.1 6.3 10.95 7.25 10.7 8.0 10.3 4.6 10.3 3.8 10.7 3.8 10.7 5.45" fill="#b09783" fill-rule="evenodd" stroke="none"/>
    <path d="M11.1 6.3 L11.75 7.55 11.95 8.0 12.4 10.1 11.1 10.95 9.85 10.1 9.85 8.0 9.85 7.15 10.3 7.55 10.7 8.0 10.95 7.25 11.1 6.3" fill="#af7b5a" fill-rule="evenodd" stroke="none"/>
    <path d="M11.95 4.6 L12.35 5.8 12.6 6.75 12.8 6.75 12.8 8.0 12.8 8.2 11.95 8.0 11.95 4.6" fill="#e48959" fill-rule="evenodd" stroke="none"/>
    <path d="M16.2 5.45 L16.2 6.3 15.75 6.3 14.9 5.9 15.4 7.55 15.75 8.0 16.2 9.7 16.05 9.95 15.75 10.1 14.9 9.85 14.05 9.25 13.65 9.25 13.7 6.6 14.5 4.2 16.2 5.45" fill="#dd9b71" fill-rule="evenodd" stroke="none"/>
    <path d="M13.25 5.05 L13.7 6.6 13.65 9.25 13.25 9.25 13.1 8.65 12.8 8.0 12.8 6.75 13.25 5.05" fill="#b07865" fill-rule="evenodd" stroke="none"/>
    <path d="M17.7 2.45 L17.7 10.1 17.45 7.55 17.45 5.05 17.3 3.9 17.5 3.0 17.7 2.45" fill="#c79a90" fill-rule="evenodd" stroke="none"/>
    <path d="M16.2 6.3 L16.6 6.3 16.6 6.75 16.2 6.75 16.2 9.25 16.2 9.7 15.75 8.0 15.75 6.3 16.2 6.3" fill="#e6a57c" fill-rule="evenodd" stroke="none"/>
    <path d="M16.2 9.25 L16.2 6.75 16.6 6.75 17.0 7.55 16.8 8.75 16.2 9.25" fill="#cd9c7b" fill-rule="evenodd" stroke="none"/>
    <path d="M16.6 6.3 L17.45 5.05 17.45 7.55 17.0 7.55 16.6 6.75 16.6 6.3" fill="#e0a08f" fill-rule="evenodd" stroke="none"/>
    <path d="M17.7 10.1 L17.7 11.8 16.95 12.55 16.6 12.2 14.9 10.95 15.75 10.1 16.05 9.95 16.2 9.7 16.2 9.25 16.8 8.75 17.0 7.55 17.45 7.55 17.7 10.1" fill="#e1a17e" fill-rule="evenodd" stroke="none"/>
    <path d="M14.9 2.1 L15.85 3.8 16.2 5.45 14.5 4.2 14.9 2.1" fill="#eba179" fill-rule="evenodd" stroke="none"/>
    <path d="M15.75 6.3 L15.75 8.0 15.4 7.55 14.9 5.9 15.75 6.3" fill="#ce9882" fill-rule="evenodd" stroke="none"/>
    <path d="M10.3 0.85 L10.45 1.95 11.1 1.65 10.7 3.8 10.3 3.8 10.3 4.6 9.85 4.6 9.45 2.5 9.45 2.95 7.75 2.5 7.75 0.85 8.45 1.4 9.0 -0.45 9.0 -0.85 9.45 -0.85 9.85 -0.85 9.6 0.25 10.3 0.85 M9.85 6.75 L9.65 6.75 9.85 5.3 9.85 6.75" fill="#ab826d" fill-rule="evenodd" stroke="none"/>
    <path d="M8.15 -12.65 L7.75 -12.65 7.75 -12.4 6.05 -12.25 6.05 -11.8 3.95 -11.8 6.0 -12.45 8.6 -13.1 8.15 -12.65" fill="#f88032" fill-rule="evenodd" stroke="none"/>
    <path d="M8.6 -9.3 Q8.6 -8.75 8.25 -8.4 7.85 -8.0 7.35 -8.0 L5.65 -8.0 2.7 -7.6 2.7 -8.85 7.3 -9.3 8.6 -9.3" fill="#b57d68" fill-rule="evenodd" stroke="none"/>
    <path d="M9.0 -7.6 L8.15 -7.6 7.35 -8.0 Q7.85 -8.0 8.25 -8.4 8.6 -8.75 8.6 -9.3 L9.0 -9.3 9.0 -8.45 9.0 -7.6" fill="#a15a41" fill-rule="evenodd" stroke="none"/>
    <path d="M6.05 -11.8 L3.9 -10.95 2.25 -10.55 1.45 -10.55 3.1 -11.4 3.7 -11.5 3.95 -11.8 6.05 -11.8" fill="#bc5f3f" fill-rule="evenodd" stroke="none"/>
    <path d="M2.25 -10.15 L5.2 -10.15 5.2 -9.7 3.1 -9.7 3.1 -9.3 2.7 -9.3 1.65 -9.9 1.0 -10.15 2.25 -10.15" fill="#60322d" fill-rule="evenodd" stroke="none"/>
    <path d="M7.3 -9.3 L2.7 -8.85 1.45 -8.85 1.0 -8.85 1.0 -9.3 2.7 -9.3 3.1 -9.3 7.3 -9.3" fill="#875c63" fill-rule="evenodd" stroke="none"/>
    <path d="M5.2 -6.35 L5.0 -6.05 4.4 -5.9 3.0 -6.0 1.45 -6.35 3.1 -6.35 4.4 -6.35 5.2 -6.35" fill="#cd864f" fill-rule="evenodd" stroke="none"/>
    <path d="M5.2 -6.35 L6.1 -6.35 6.05 -5.5 3.95 -5.05 4.4 -5.9 5.0 -6.05 5.2 -6.35" fill="#d78f63" fill-rule="evenodd" stroke="none"/>
    <path d="M6.3 -6.5 L6.9 -5.9 6.65 -5.6 6.05 -5.5 6.1 -6.35 5.2 -6.35 4.4 -6.35 5.65 -7.2 6.1 -6.35 6.3 -6.5" fill="#6a3c3a" fill-rule="evenodd" stroke="none"/>
    <path d="M8.15 -7.6 L8.15 -7.2 Q7.35 -7.2 6.3 -6.5 L6.1 -6.35 5.65 -8.0 7.35 -8.0 8.15 -7.6" fill="#603a3c" fill-rule="evenodd" stroke="none"/>
    <path d="M2.7 -7.6 L5.65 -8.0 6.1 -6.35 5.65 -7.2 4.4 -6.35 3.1 -6.35 3.35 -6.8 2.25 -7.6 2.7 -7.6" fill="#703e32" fill-rule="evenodd" stroke="none"/>
    <path d="M0.15 -7.6 L0.15 -8.45 1.45 -8.85 2.7 -8.85 2.7 -7.6 2.25 -7.6 1.45 -7.6 0.15 -7.6" fill="#d38558" fill-rule="evenodd" stroke="none"/>
    <path d="M3.1 -6.35 L1.45 -6.35 1.45 -7.6 2.25 -7.6 3.35 -6.8 3.1 -6.35" fill="#8e4f3b" fill-rule="evenodd" stroke="none"/>
    <path d="M3.95 -5.05 L3.95 -4.65 1.45 -3.8 -1.2 -3.7 -1.5 -4.25 1.0 -4.25 2.25 -4.65 3.95 -5.05" fill="#d98545" fill-rule="evenodd" stroke="none"/>
    <path d="M0.15 -5.9 Q0.35 -5.9 0.45 -6.05 L0.6 -6.35 1.45 -6.35 3.0 -6.0 4.4 -5.9 3.95 -5.05 2.25 -4.65 0.15 -5.5 0.15 -5.9" fill="#f39c54" fill-rule="evenodd" stroke="none"/>
    <path d="M3.95 -4.65 L6.5 -4.45 Q6.5 -3.85 6.15 -3.4 5.75 -2.95 5.2 -2.95 L4.8 -2.95 3.55 -3.4 1.45 -3.4 1.45 -3.8 3.95 -4.65" fill="#825d7d" fill-rule="evenodd" stroke="none"/>
    <path d="M4.8 -2.95 L5.2 -2.95 6.1 -2.85 6.9 -2.95 5.65 -1.7 5.4 -1.4 4.8 -1.3 4.55 -2.15 Q4.3 -2.55 3.95 -2.55 L3.95 -2.95 4.8 -2.95" fill="#7f6071" fill-rule="evenodd" stroke="none"/>
    <path d="M12.6 -5.9 L7.35 -4.25 7.2 -3.55 6.9 -2.95 6.1 -2.85 5.2 -2.95 Q5.75 -2.95 6.15 -3.4 6.5 -3.85 6.5 -4.45 L6.5 -5.05 12.6 -5.9" fill="#704f63" fill-rule="evenodd" stroke="none"/>
    <path d="M3.55 -3.4 L4.8 -2.95 3.95 -2.95 3.95 -2.55 1.0 -1.3 0.7 -1.4 0.6 -1.7 1.5 -1.95 Q1.85 -2.2 1.85 -2.55 L3.55 -3.4" fill="#815d5f" fill-rule="evenodd" stroke="none"/>
    <path d="M7.35 -4.25 L7.6 -3.4 7.75 -2.55 6.9 -1.7 7.75 -1.3 6.95 -0.35 6.2 0.25 5.2 0.0 5.2 -0.45 6.0 -0.5 Q6.5 -0.6 6.7 -0.85 L6.65 -1.35 5.65 -1.7 6.9 -2.95 7.2 -3.55 7.35 -4.25" fill="#613d40" fill-rule="evenodd" stroke="none"/>
    <path d="M3.1 -11.4 L1.45 -10.55 0.6 -10.55 -1.1 -10.55 -1.1 -10.95 3.1 -11.4" fill="#ee783d" fill-rule="evenodd" stroke="none"/>
    <path d="M-5.3 -10.55 L-5.8 -10.95 -6.15 -11.4 -1.1 -10.95 -1.1 -10.55 -4.45 -10.55 -5.3 -10.55" fill="#f07136" fill-rule="evenodd" stroke="none"/>
    <path d="M-1.5 -8.45 L-1.95 -8.45 -1.95 -8.85 1.0 -8.85 1.45 -8.85 0.15 -8.45 -1.5 -8.45" fill="#ba7d67" fill-rule="evenodd" stroke="none"/>
    <path d="M-1.95 -8.45 L-5.75 -8.45 -5.75 -8.85 -2.35 -8.85 -1.95 -8.85 -1.95 -8.45" fill="#a187a0" fill-rule="evenodd" stroke="none"/>
    <path d="M-2.35 -9.3 L1.0 -9.3 1.0 -8.85 -1.95 -8.85 -2.35 -8.85 -2.35 -9.3" fill="#9a6460" fill-rule="evenodd" stroke="none"/>
    <path d="M0.6 -10.55 Q0.6 -10.2 0.1 -9.95 L-1.1 -9.7 -3.65 -10.15 -4.45 -10.55 -1.1 -10.55 0.6 -10.55" fill="#b4523b" fill-rule="evenodd" stroke="none"/>
    <path d="M-5.75 -8.0 L-2.35 -8.0 -2.35 -7.2 -4.45 -7.6 -4.45 -7.2 -6.15 -7.2 -5.75 -8.0" fill="#ef9142" fill-rule="evenodd" stroke="none"/>
    <path d="M-4.45 -6.75 L-4.45 -7.2 -4.45 -7.6 -2.35 -7.2 -4.45 -6.75" fill="#d78a63" fill-rule="evenodd" stroke="none"/>
    <path d="M-4.05 -3.4 L-6.15 -3.8 -5.75 -4.65 -3.2 -4.65 -3.2 -4.25 -3.65 -4.25 -3.65 -3.4 -4.05 -3.4" fill="#dda67d" fill-rule="evenodd" stroke="none"/>
    <path d="M-3.2 -4.65 L0.15 -4.65 0.75 -4.5 1.0 -4.25 -1.5 -4.25 -3.2 -4.25 -3.2 -4.65" fill="#d0a89c" fill-rule="evenodd" stroke="none"/>
    <path d="M-1.2 -3.7 L-3.65 -3.4 -3.65 -4.25 -3.2 -4.25 -1.5 -4.25 -1.2 -3.7" fill="#ae7b67" fill-rule="evenodd" stroke="none"/>
    <path d="M-6.6 -3.4 L-4.05 -3.4 -3.65 -3.4 Q-2.9 -2.95 -2.35 -2.95 L-2.35 -2.55 -4.8 -2.7 Q-6.25 -3.05 -6.6 -3.4" fill="#82555f" fill-rule="evenodd" stroke="none"/>
    <path d="M-2.35 -2.95 Q-2.9 -2.95 -3.65 -3.4 L-1.2 -3.7 1.45 -3.8 1.45 -3.4 -1.1 -2.95 -2.35 -2.95" fill="#7a494e" fill-rule="evenodd" stroke="none"/>
    <path d="M-5.3 -5.9 L0.15 -5.9 0.15 -5.5 0.15 -5.05 -5.3 -5.05 -5.3 -5.9" fill="#f8a86b" fill-rule="evenodd" stroke="none"/>
    <path d="M0.6 -6.35 L-0.3 -6.7 -1.1 -7.2 -0.75 -7.2 Q-0.05 -7.45 0.15 -7.6 L1.45 -7.6 1.45 -6.35 0.6 -6.35" fill="#cc9077" fill-rule="evenodd" stroke="none"/>
    <path d="M3.55 -3.4 L1.85 -2.55 0.15 -2.55 -0.45 -2.65 -1.1 -2.95 1.45 -3.4 3.55 -3.4" fill="#91718a" fill-rule="evenodd" stroke="none"/>
    <path d="M-2.35 -2.1 L-2.35 -2.55 -2.35 -2.95 -1.1 -2.95 -0.45 -2.65 0.15 -2.55 0.15 -2.1 -2.35 -1.7 -2.35 -2.1" fill="#846375" fill-rule="evenodd" stroke="none"/>
    <path d="M0.15 -4.65 L0.15 -5.05 0.15 -5.5 2.25 -4.65 1.0 -4.25 0.75 -4.5 0.15 -4.65" fill="#f0a278" fill-rule="evenodd" stroke="none"/>
    <path d="M1.85 -2.55 Q1.85 -2.2 1.5 -1.95 L0.6 -1.7 Q0.4 -1.7 0.3 -1.85 L0.15 -2.1 0.15 -2.55 1.85 -2.55" fill="#835646" fill-rule="evenodd" stroke="none"/>
    <path d="M-2.5 0.7 L-5.75 -0.45 -5.15 -0.55 -4.9 -0.85 -3.05 -1.05 -4.9 -1.3 -4.9 -1.7 -2.35 -1.7 0.15 -2.1 0.3 -1.85 Q0.4 -1.7 0.6 -1.7 L0.7 -1.4 1.0 -1.3 0.15 -0.4 0.15 -0.35 -0.2 0.2 -1.1 0.4 Q-1.5 0.85 -1.95 0.85 L-2.4 0.8 -2.5 0.7" fill="#7c595d" fill-rule="evenodd" stroke="none"/>
    <path d="M1.0 -1.3 L3.95 -2.55 Q4.3 -2.55 4.55 -2.15 L4.8 -1.3 4.65 -1.0 4.4 -0.85 1.95 -0.4 Q1.0 -0.05 0.6 0.85 L0.15 0.85 0.15 -0.35 0.15 -0.4 1.0 -1.3" fill="#82594e" fill-rule="evenodd" stroke="none"/>
    <path d="M0.15 -0.35 L0.15 0.85 0.15 1.25 -0.7 1.25 -0.7 1.65 -1.1 1.65 -1.1 2.95 -1.4 2.8 -1.5 2.5 -1.5 1.65 -1.1 0.4 -0.2 0.2 0.15 -0.35" fill="#744638" fill-rule="evenodd" stroke="none"/>
    <path d="M-0.7 1.65 L-0.7 1.25 0.15 1.25 0.6 3.35 0.6 4.6 0.6 5.05 -0.25 4.6 Q-0.1 4.1 -0.7 1.65" fill="#b57c53" fill-rule="evenodd" stroke="none"/>
    <path d="M-1.1 2.95 L-1.1 1.65 -0.7 1.65 Q-0.1 4.1 -0.25 4.6 L-0.7 4.6 -1.1 3.8 -1.1 2.95" fill="#ce8e61" fill-rule="evenodd" stroke="none"/>
    <path d="M-4.9 1.25 L-2.5 0.7 -2.4 0.8 -1.95 0.85 Q-1.5 0.85 -1.1 0.4 L-1.5 1.65 -3.65 1.65 -3.65 2.1 -4.9 1.25" fill="#825b63" fill-rule="evenodd" stroke="none"/>
    <path d="M-1.5 1.65 L-1.5 2.5 -3.2 2.5 -3.5 2.4 -3.65 2.1 -3.65 1.65 -1.5 1.65" fill="#7b514f" fill-rule="evenodd" stroke="none"/>
    <path d="M0.6 0.85 Q1.0 -0.05 1.95 -0.4 L4.4 -0.85 5.2 -0.45 5.2 0.0 3.95 0.0 1.85 0.0 1.85 0.85 1.0 0.85 0.6 0.85" fill="#db904f" fill-rule="evenodd" stroke="none"/>
    <path d="M1.85 0.85 L1.95 1.45 2.25 1.65 2.1 2.2 1.85 3.35 2.25 4.2 1.85 4.2 1.85 4.55 Q1.85 4.05 1.5 3.7 1.1 3.35 0.6 3.35 L1.0 0.85 1.85 0.85" fill="#ee9a55" fill-rule="evenodd" stroke="none"/>
    <path d="M2.25 1.65 L1.95 1.45 1.85 0.85 1.85 0.0 3.95 0.0 3.35 0.85 3.1 1.25 2.9 1.55 2.25 1.65" fill="#f69a3b" fill-rule="evenodd" stroke="none"/>
    <path d="M0.15 0.85 L0.6 0.85 1.0 0.85 0.6 3.35 0.15 1.25 0.15 0.85" fill="#e4975e" fill-rule="evenodd" stroke="none"/>
    <path d="M-5.75 -1.7 L-2.35 -2.1 -2.35 -1.7 -4.9 -1.7 -4.9 -1.3 -5.75 -1.3 -5.75 -1.7" fill="#78586a" fill-rule="evenodd" stroke="none"/>
    <path d="M-4.9 -0.85 L-5.8 -0.9 Q-6.4 -0.95 -5.95 -1.3 L-5.75 -1.3 -4.9 -1.3 -3.05 -1.05 -4.9 -0.85" fill="#714a49" fill-rule="evenodd" stroke="none"/>
    <path d="M-1.5 2.5 L-1.4 2.8 -1.1 2.95 -1.1 3.8 -2.35 3.65 -2.35 4.2 -3.2 3.35 -3.0 3.35 -3.2 2.5 -1.5 2.5" fill="#975c51" fill-rule="evenodd" stroke="none"/>
    <path d="M-1.1 3.8 L-0.7 4.6 -0.8 4.9 -1.1 5.05 -2.35 4.2 -2.35 3.65 -1.1 3.8" fill="#855145" fill-rule="evenodd" stroke="none"/>
    <path d="M-5.75 5.9 L-5.75 5.45 -5.75 5.05 -4.9 4.6 -1.5 6.75 -1.1 6.75 -2.35 8.0 -5.3 5.45 -5.3 5.9 -5.75 5.9" fill="#905540" fill-rule="evenodd" stroke="none"/>
    <path d="M-4.9 4.6 L-5.3 3.8 -4.45 3.8 -1.5 5.9 -1.5 6.75 -4.9 4.6" fill="#592e23" fill-rule="evenodd" stroke="none"/>
    <path d="M-4.05 8.85 L-4.9 8.0 -5.15 7.4 Q-5.4 7.15 -5.75 7.15 L-5.75 6.75 -4.9 6.75 -3.2 8.4 -3.2 9.25 -4.05 8.85" fill="#63301f" fill-rule="evenodd" stroke="none"/>
    <path d="M-5.3 5.9 L-5.3 5.45 -2.35 8.0 -2.55 8.75 -3.2 8.4 -4.9 6.75 -5.3 5.9" fill="#cd7547" fill-rule="evenodd" stroke="none"/>
    <path d="M0.6 5.05 L0.6 4.6 1.45 5.45 1.85 6.75 1.0 7.15 1.0 6.75 0.6 5.05" fill="#9c6446" fill-rule="evenodd" stroke="none"/>
    <path d="M0.6 4.6 L0.6 3.35 Q1.1 3.35 1.5 3.7 1.85 4.05 1.85 4.55 L1.85 4.6 1.45 5.45 0.6 4.6" fill="#ecae74" fill-rule="evenodd" stroke="none"/>
    <path d="M1.85 4.55 L1.85 4.2 2.25 4.2 3.1 6.3 3.95 6.75 3.95 7.15 3.5 8.05 3.1 8.85 2.9 9.15 2.25 9.25 1.85 6.75 1.45 5.45 1.85 4.6 1.85 4.55" fill="#d68a54" fill-rule="evenodd" stroke="none"/>
    <path d="M-0.7 4.6 L-0.25 4.6 0.15 6.3 -1.1 6.75 -1.5 6.75 -1.5 5.9 -0.95 5.85 -0.3 5.65 Q-0.1 5.5 -0.25 5.35 -0.4 5.15 -1.1 5.05 L-0.8 4.9 -0.7 4.6" fill="#b76d46" fill-rule="evenodd" stroke="none"/>
    <path d="M2.25 24.45 L-1.1 24.45 -1.1 23.6 -1.1 22.3 -1.5 18.55 -1.15 17.6 -1.1 16.85 -1.1 16.4 -1.95 15.6 -2.6 16.55 -2.55 16.95 -2.35 17.25 -3.65 16.0 -3.35 15.25 -3.2 14.3 -2.6 13.15 -2.8 12.2 -2.5 11.6 -2.35 10.95 -3.2 9.25 -3.2 8.4 -2.55 8.75 -2.35 8.0 -1.1 6.75 0.15 6.3 0.15 6.75 0.15 7.55 0.6 9.7 Q1.05 8.6 1.0 7.15 L1.85 6.75 2.25 9.25 2.9 9.15 3.1 8.85 3.55 8.85 4.8 8.0 4.8 8.4 5.7 10.5 6.5 9.7 6.6 10.3 6.9 10.5 6.9 10.95 6.8 11.6 6.5 12.2 6.05 11.35 6.05 12.2 5.65 13.1 5.2 13.9 6.05 14.3 5.6 15.1 5.2 15.6 4.75 16.2 4.4 16.85 3.95 17.7 3.95 18.55 3.55 18.55 3.55 18.95 3.4 19.6 3.1 20.2 3.0 19.9 2.7 19.8 2.35 20.65 Q2.05 21.1 2.05 21.6 L2.25 22.75 2.25 23.15 2.25 24.45 M-1.95 24.45 L-2.35 24.45 -2.8 21.5 -2.8 20.65 Q-2.4 19.5 -2.35 18.55 L-1.95 18.55 -1.95 22.3 -1.95 24.45" fill="#3b1b15" fill-rule="evenodd" stroke="none"/>
    <path d="M-0.25 4.6 L0.6 5.05 1.0 6.75 0.15 6.75 0.15 6.3 -0.25 4.6" fill="#e7985f" fill-rule="evenodd" stroke="none"/>
    <path d="M0.15 6.75 L1.0 6.75 1.0 7.15 Q1.05 8.6 0.6 9.7 L0.15 7.55 0.15 6.75" fill="#c7794c" fill-rule="evenodd" stroke="none"/>
    <path d="M2.25 1.65 L2.9 1.55 3.1 1.25 4.3 1.5 3.55 2.5 3.05 3.15 1.85 3.35 2.1 2.2 2.25 1.65" fill="#f8a65b" fill-rule="evenodd" stroke="none"/>
    <path d="M9.45 -0.85 L9.0 -0.85 9.0 -0.45 7.75 0.0 7.05 0.4 6.95 -0.35 7.75 -1.3 9.0 -2.1 9.85 -2.1 9.45 -0.85" fill="#79564b" fill-rule="evenodd" stroke="none"/>
    <path d="M4.4 -0.85 L4.65 -1.0 4.8 -1.3 5.4 -1.4 5.65 -1.7 6.65 -1.35 6.7 -0.85 Q6.5 -0.6 6.0 -0.5 L5.2 -0.45 4.4 -0.85" fill="#745249" fill-rule="evenodd" stroke="none"/>
    <path d="M7.75 -2.55 Q7.95 -2.4 8.4 -2.25 L9.0 -2.1 7.75 -1.3 6.9 -1.7 7.75 -2.55" fill="#562f2e" fill-rule="evenodd" stroke="none"/>
    <path d="M7.75 0.85 L6.95 1.5 6.5 2.1 6.05 2.1 5.65 1.25 5.2 1.25 5.2 0.0 6.2 0.25 6.95 -0.35 7.05 0.4 7.75 0.0 7.75 0.85" fill="#795249" fill-rule="evenodd" stroke="none"/>
    <path d="M9.0 -0.45 L8.45 1.4 7.75 0.85 7.75 0.0 9.0 -0.45" fill="#936e59" fill-rule="evenodd" stroke="none"/>
    <path d="M7.75 0.85 L7.75 2.5 7.35 2.5 6.9 1.65 6.9 2.95 6.6 2.7 6.5 2.1 6.95 1.5 7.75 0.85" fill="#8c6f57" fill-rule="evenodd" stroke="none"/>
    <path d="M7.75 2.5 L9.45 2.95 9.0 3.8 8.15 3.8 8.15 6.3 7.65 7.1 7.4 6.5 Q7.3 5.95 7.35 5.4 L7.35 5.05 7.35 2.5 7.75 2.5" fill="#bd7c6b" fill-rule="evenodd" stroke="none"/>
    <path d="M6.9 2.95 L6.9 1.65 7.35 2.5 7.35 5.05 6.5 5.05 6.85 4.3 6.5 3.35 6.75 3.2 6.9 2.95" fill="#96745d" fill-rule="evenodd" stroke="none"/>
    <path d="M3.1 1.25 L3.35 0.85 3.95 0.0 5.2 0.0 5.2 1.25 5.2 2.1 3.95 5.9 3.95 6.75 3.1 6.3 3.2 6.2 3.6 4.65 Q3.75 3.5 3.55 2.5 L4.3 1.5 3.1 1.25" fill="#f29c4f" fill-rule="evenodd" stroke="none"/>
    <path d="M3.95 7.15 L3.95 6.75 3.95 5.9 5.05 4.25 Q5.3 3.55 5.2 2.1 L5.2 1.25 5.65 1.25 5.25 3.55 4.8 5.9 4.8 6.75 3.95 7.15" fill="#cd7a50" fill-rule="evenodd" stroke="none"/>
    <path d="M5.65 1.25 L6.05 2.1 5.7 3.95 5.2 5.9 4.8 5.9 5.25 3.55 5.65 1.25" fill="#d58e5e" fill-rule="evenodd" stroke="none"/>
    <path d="M2.25 4.2 L1.85 3.35 3.05 3.15 3.55 2.5 Q3.75 3.5 3.6 4.65 L3.2 6.2 2.75 5.15 2.25 4.2" fill="#e99257" fill-rule="evenodd" stroke="none"/>
    <path d="M3.1 6.3 L2.25 4.2 2.75 5.15 3.2 6.2 3.1 6.3" fill="#c37c51" fill-rule="evenodd" stroke="none"/>
    <path d="M4.8 6.75 L4.8 5.9 5.2 5.9 5.65 8.0 5.65 8.85 4.8 8.4 4.8 8.0 4.8 6.75" fill="#cf8557" fill-rule="evenodd" stroke="none"/>
    <path d="M6.5 2.1 L6.6 2.7 6.9 2.95 6.75 3.2 6.5 3.35 6.85 4.3 6.5 5.05 6.5 7.15 6.05 6.7 5.65 6.3 5.65 8.0 5.2 5.9 5.7 3.95 6.05 2.1 6.5 2.1" fill="#825f4c" fill-rule="evenodd" stroke="none"/>
    <path d="M5.65 8.0 L5.65 6.3 6.05 6.7 6.5 7.15 6.5 7.55 6.5 8.4 6.05 8.4 6.05 8.85 5.65 8.85 5.65 8.0" fill="#653f2a" fill-rule="evenodd" stroke="none"/>
    <path d="M3.1 8.85 L3.5 8.05 3.95 7.15 4.8 6.75 4.8 8.0 3.55 8.85 3.1 8.85" fill="#97583a" fill-rule="evenodd" stroke="none"/>
    <path d="M5.2 2.1 Q5.3 3.55 5.05 4.25 L3.95 5.9 5.2 2.1" fill="#efa86c" fill-rule="evenodd" stroke="none"/>
    <path d="M9.85 7.15 L9.85 8.0 8.15 7.15 8.15 6.75 8.9 5.5 Q9.25 4.5 9.0 3.8 L9.45 2.95 9.45 2.5 9.85 4.6 9.85 5.3 9.65 6.75 9.85 6.75 9.85 7.15" fill="#9e715e" fill-rule="evenodd" stroke="none"/>
    <path d="M10.7 8.0 L10.3 7.55 9.85 7.15 9.85 6.75 9.85 5.3 9.85 4.6 10.3 4.6 10.7 8.0" fill="#ca8e6d" fill-rule="evenodd" stroke="none"/>
    <path d="M6.5 5.05 L7.35 5.05 7.35 5.4 Q7.3 5.95 7.4 6.5 L7.65 7.1 8.15 6.3 8.15 6.75 8.15 7.15 7.35 7.15 7.35 7.55 7.35 7.8 6.5 7.55 6.5 7.15 6.5 5.05" fill="#ab7054" fill-rule="evenodd" stroke="none"/>
    <path d="M9.0 3.8 Q9.25 4.5 8.9 5.5 L8.15 6.75 8.15 6.3 8.15 3.8 9.0 3.8" fill="#89615c" fill-rule="evenodd" stroke="none"/>
    <path d="M9.85 8.0 L9.85 10.1 7.35 7.55 7.35 7.15 8.15 7.15 9.85 8.0" fill="#bd7654" fill-rule="evenodd" stroke="none"/>
    <path d="M6.9 10.5 L6.6 10.3 6.5 9.7 6.05 8.85 6.05 8.4 6.5 8.4 Q7.0 8.4 7.4 8.8 7.75 9.15 7.75 9.7 L6.9 9.7 6.9 10.5" fill="#a15c33" fill-rule="evenodd" stroke="none"/>
    <path d="M6.9 10.5 L6.9 9.7 7.75 9.7 9.85 11.35 9.2 11.65 8.6 11.8 6.9 10.95 6.9 10.5" fill="#e87c23" fill-rule="evenodd" stroke="none"/>
    <path d="M9.85 10.1 L11.1 10.95 11.55 10.95 11.95 12.65 11.1 12.65 9.85 11.35 7.75 9.7 Q7.75 9.15 7.4 8.8 7.0 8.4 6.5 8.4 L6.5 7.55 7.35 7.8 7.35 7.55 9.85 10.1" fill="#a1653d" fill-rule="evenodd" stroke="none"/>
    <path d="M6.9 10.95 L8.6 11.8 9.85 13.05 9.6 13.35 9.0 13.45 7.75 13.05 7.75 13.45 6.9 13.05 6.9 13.9 6.5 15.6 6.05 15.6 6.05 16.0 5.2 15.6 5.6 15.1 6.05 14.3 6.5 12.2 6.8 11.6 6.9 10.95" fill="#572c27" fill-rule="evenodd" stroke="none"/>
    <path d="M8.6 11.8 L9.2 11.65 9.85 11.35 11.1 12.65 11.35 13.45 11.1 13.45 9.85 13.05 8.6 11.8" fill="#eb762d" fill-rule="evenodd" stroke="none"/>
    <path d="M4.8 8.4 L5.65 8.85 6.05 8.85 6.5 9.7 5.7 10.5 4.8 8.4" fill="#572a20" fill-rule="evenodd" stroke="none"/>
    <path d="M6.05 14.3 L5.2 13.9 5.65 13.1 6.05 12.2 6.05 11.35 6.5 12.2 6.05 14.3" fill="#5d3a35" fill-rule="evenodd" stroke="none"/>
    <path d="M6.05 18.55 L5.3 17.7 4.4 16.85 4.75 16.2 5.2 15.6 6.05 16.0 6.35 16.15 6.5 16.4 6.9 17.25 6.05 17.25 6.5 18.95 6.2 18.8 6.05 18.55" fill="#4e2626" fill-rule="evenodd" stroke="none"/>
    <path d="M4.4 16.85 L5.3 17.7 6.05 18.55 5.2 18.55 5.2 19.35 3.95 18.55 3.95 17.7 4.4 16.85" fill="#834e3f" fill-rule="evenodd" stroke="none"/>
    <path d="M6.5 16.4 L6.35 16.15 6.05 16.0 6.05 15.6 6.5 15.6 8.6 16.0 8.6 16.4 9.0 17.25 6.5 16.4" fill="#d7835c" fill-rule="evenodd" stroke="none"/>
    <path d="M9.0 13.45 L9.6 13.35 9.85 13.05 11.1 13.45 11.55 14.75 11.95 16.0 10.7 15.15 9.0 13.45" fill="#5a3736" fill-rule="evenodd" stroke="none"/>
    <path d="M9.0 13.45 L10.7 15.15 10.7 15.6 7.75 13.45 7.75 13.05 9.0 13.45" fill="#3b1c1a" fill-rule="evenodd" stroke="none"/>
    <path d="M6.9 13.9 L7.75 14.9 8.6 16.0 6.5 15.6 6.9 13.9" fill="#915542" fill-rule="evenodd" stroke="none"/>
    <path d="M6.9 17.25 L6.5 16.4 9.0 17.25 Q9.35 17.25 9.6 17.5 L9.85 18.1 10.7 20.65 10.3 20.65 9.0 19.35 6.9 17.25" fill="#d1673d" fill-rule="evenodd" stroke="none"/>
    <path d="M8.6 16.4 L9.85 16.4 12.8 18.55 13.0 20.2 12.8 20.2 11.55 19.8 9.85 18.1 9.6 17.5 Q9.35 17.25 9.0 17.25 L8.6 16.4" fill="#a4654d" fill-rule="evenodd" stroke="none"/>
    <path d="M6.5 18.95 L6.05 17.25 6.9 17.25 9.0 19.35 7.75 19.35 7.75 19.8 6.5 19.35 6.5 18.95" fill="#3d1e23" fill-rule="evenodd" stroke="none"/>
    <path d="M-4.05 10.1 L-4.45 8.85 -4.05 8.85 -3.2 9.25 -2.35 10.95 -2.5 11.6 -2.8 12.2 -2.9 11.9 -3.2 11.8 Q-3.2 11.1 -3.45 10.6 -3.7 10.1 -4.05 10.1" fill="#a6654c" fill-rule="evenodd" stroke="none"/>
    <path d="M-5.3 10.95 L-4.45 10.5 -3.65 11.8 Q-3.5 13.05 -3.65 13.45 L-5.3 10.95" fill="#cf7546" fill-rule="evenodd" stroke="none"/>
    <path d="M-4.45 10.5 L-4.2 10.4 -4.05 10.1 Q-3.7 10.1 -3.45 10.6 -3.2 11.1 -3.2 11.8 L-3.65 11.8 -4.45 10.5" fill="#94593d" fill-rule="evenodd" stroke="none"/>
    <path d="M-3.2 14.3 L-3.65 13.45 Q-3.5 13.05 -3.65 11.8 L-3.2 11.8 -2.9 11.9 -2.8 12.2 -2.6 13.15 -3.2 14.3" fill="#a05e4e" fill-rule="evenodd" stroke="none"/>
    <path d="M-6.15 13.05 L-5.3 13.45 -4.9 15.6 -6.15 13.9 -6.15 13.05" fill="#865642" fill-rule="evenodd" stroke="none"/>
    <path d="M-5.3 13.45 L-3.65 15.6 -4.9 15.6 -5.3 13.45" fill="#633e35" fill-rule="evenodd" stroke="none"/>
    <path d="M-6.6 14.75 L-6.15 13.9 -4.9 15.6 -4.45 16.4 -5.3 16.4 -5.3 16.85 -6.15 16.4 -6.6 14.75" fill="#bf7658" fill-rule="evenodd" stroke="none"/>
    <path d="M-5.3 16.85 L-5.3 16.4 -4.45 16.4 -4.35 16.7 -4.05 16.85 -4.05 18.55 -4.45 18.55 -5.3 16.85" fill="#d57d53" fill-rule="evenodd" stroke="none"/>
    <path d="M-3.65 15.6 L-3.65 16.0 -2.35 17.25 -2.35 17.7 -2.35 18.55 Q-2.4 19.5 -2.8 20.65 L-3.1 20.5 -3.2 20.2 Q-2.75 19.3 -3.1 18.3 -3.35 17.4 -4.05 16.85 L-4.35 16.7 -4.45 16.4 -4.9 15.6 -3.65 15.6" fill="#764f42" fill-rule="evenodd" stroke="none"/>
    <path d="M-5.3 18.55 L-6.15 16.4 -5.3 16.85 -4.45 18.55 -4.45 18.75 -5.3 18.55" fill="#cc9485" fill-rule="evenodd" stroke="none"/>
    <path d="M-2.35 17.7 L-2.35 17.25 -2.55 16.95 -2.6 16.55 -1.95 15.6 -1.1 16.4 -1.1 16.85 -2.35 17.7" fill="#34191e" fill-rule="evenodd" stroke="none"/>
    <path d="M-2.35 18.55 L-2.35 17.7 -1.1 16.85 -1.15 17.6 -1.5 18.55 -1.7 18.05 -1.95 18.1 -1.95 18.55 -2.35 18.55" fill="#44262a" fill-rule="evenodd" stroke="none"/>
    <path d="M-1.95 18.55 L-1.95 18.1 -1.7 18.05 -1.5 18.55 -1.1 22.3 -1.1 23.6 Q-1.25 23.2 -1.95 22.3 L-1.95 18.55" fill="#3b1f1f" fill-rule="evenodd" stroke="none"/>
    <path d="M-4.05 16.85 Q-3.35 17.4 -3.1 18.3 -2.75 19.3 -3.2 20.2 L-4.05 18.55 -4.05 16.85" fill="#a46a52" fill-rule="evenodd" stroke="none"/>
    <path d="M-4.05 20.65 L-4.85 21.2 -5.3 20.65 -5.25 19.6 -5.3 18.55 -4.45 18.75 -4.45 18.55 -4.05 18.55 -3.2 20.2 -3.1 20.5 -2.8 20.65 -2.8 21.5 -4.05 20.65" fill="#b87d64" fill-rule="evenodd" stroke="none"/>
    <path d="M-5.3 20.65 L-6.15 18.1 -5.3 18.55 -5.25 19.6 -5.3 20.65" fill="#bc7f74" fill-rule="evenodd" stroke="none"/>
    <path d="M-2.35 24.45 L-5.3 24.45 -5.3 24.0 Q-4.5 23.7 -4.05 22.7 -3.6 21.6 -4.05 20.65 L-2.8 21.5 -2.35 24.45" fill="#c6744e" fill-rule="evenodd" stroke="none"/>
    <path d="M-1.1 24.45 L-1.95 24.45 -1.95 22.3 Q-1.25 23.2 -1.1 23.6 L-1.1 24.45" fill="#2d121a" fill-rule="evenodd" stroke="none"/>
    <path d="M9.0 19.35 L10.3 20.65 Q9.3 20.5 8.6 20.65 L7.75 19.8 7.75 19.35 9.0 19.35" fill="#4c2124" fill-rule="evenodd" stroke="none"/>
    <path d="M8.6 20.65 Q9.3 20.5 10.3 20.65 L10.7 20.65 10.7 21.05 10.5 21.05 10.6 21.4 10.55 21.85 8.6 21.05 8.6 20.65" fill="#3c1c17" fill-rule="evenodd" stroke="none"/>
    <path d="M7.75 19.8 L8.6 20.65 8.6 21.05 8.6 21.5 8.15 21.5 7.35 21.5 7.35 21.9 5.65 20.2 6.5 19.35 7.75 19.8" fill="#854a3b" fill-rule="evenodd" stroke="none"/>
    <path d="M6.05 18.55 L6.2 18.8 6.5 18.95 6.5 19.35 5.65 20.2 5.2 20.2 5.2 19.35 5.2 18.55 6.05 18.55" fill="#865141" fill-rule="evenodd" stroke="none"/>
    <path d="M7.35 21.9 L7.35 21.5 8.15 21.5 8.55 23.2 8.15 23.15 7.35 22.3 7.35 21.9" fill="#ba6c4d" fill-rule="evenodd" stroke="none"/>
    <path d="M7.35 22.3 L8.15 23.15 8.4 24.0 8.15 24.0 6.9 22.75 7.2 22.6 7.35 22.3" fill="#7c403a" fill-rule="evenodd" stroke="none"/>
    <path d="M5.65 20.2 L7.35 21.9 7.35 22.3 7.2 22.6 6.9 22.75 5.2 20.65 5.2 20.2 5.65 20.2" fill="#55302f" fill-rule="evenodd" stroke="none"/>
    <path d="M9.35 24.45 L8.15 24.45 8.15 24.0 8.4 24.0 8.15 23.15 8.55 23.2 8.15 21.5 8.6 21.5 Q8.95 21.5 9.2 21.85 L9.45 22.75 10.15 23.55 10.0 23.95 9.35 24.45" fill="#a75d46" fill-rule="evenodd" stroke="none"/>
    <path d="M12.85 24.45 L11.85 24.45 11.55 24.45 Q11.55 23.75 10.95 23.25 10.3 22.75 9.45 22.75 L9.2 21.85 Q8.95 21.5 8.6 21.5 L8.6 21.05 10.55 21.85 10.6 21.4 10.5 21.05 10.7 21.05 12.8 22.75 Q13.2 22.7 13.5 23.0 L13.75 23.55 13.5 24.2 12.85 24.45" fill="#4b2120" fill-rule="evenodd" stroke="none"/>
    <path d="M3.95 18.55 L5.2 19.35 5.2 20.2 5.2 20.65 3.55 18.95 3.55 18.55 3.95 18.55" fill="#5e3a33" fill-rule="evenodd" stroke="none"/>
    <path d="M5.2 20.65 L6.9 22.75 6.05 22.75 5.75 22.6 5.65 22.3 4.4 21.9 4.4 22.3 3.1 20.65 3.1 20.2 3.4 19.6 3.55 18.95 5.2 20.65" fill="#a65f41" fill-rule="evenodd" stroke="none"/>
    <path d="M2.25 22.75 L2.05 21.6 Q2.05 21.1 2.35 20.65 L2.7 19.8 3.0 19.9 3.1 20.2 3.1 20.65 3.1 21.5 2.65 22.1 2.25 22.75" fill="#36191d" fill-rule="evenodd" stroke="none"/>
    <path d="M4.65 24.45 L3.5 24.45 2.25 23.15 2.25 22.75 2.65 22.1 3.1 21.5 4.65 24.45" fill="#34161d" fill-rule="evenodd" stroke="none"/>
    <path d="M6.5 24.45 L5.2 24.45 4.4 22.3 4.4 21.9 5.65 22.3 5.2 22.3 5.85 23.4 6.5 24.45" fill="#dd7142" fill-rule="evenodd" stroke="none"/>
    <path d="M7.45 24.45 L6.5 24.45 5.85 23.4 5.2 22.3 5.65 22.3 5.75 22.6 6.05 22.75 7.45 24.45" fill="#e46a2b" fill-rule="evenodd" stroke="none"/>
    <path d="M5.2 24.45 L4.65 24.45 3.1 21.5 3.1 20.65 4.4 22.3 5.2 24.45" fill="#723f38" fill-rule="evenodd" stroke="none"/>
    <path d="M3.5 24.45 L2.25 24.45 2.25 23.15 3.5 24.45" fill="#4e2427" fill-rule="evenodd" stroke="none"/>
    <path d="M8.15 24.45 L7.45 24.45 6.05 22.75 6.9 22.75 8.15 24.0 8.15 24.45" fill="#cf7751" fill-rule="evenodd" stroke="none"/>
    <path d="M11.3 24.45 L9.35 24.45 10.0 23.95 10.15 23.55 9.45 22.75 Q10.3 22.75 10.95 23.25 11.55 23.75 11.55 24.45 L11.3 24.45" fill="#854a40" fill-rule="evenodd" stroke="none"/>
    <path d="M17.7 11.8 L17.7 13.5 17.15 13.3 16.6 13.05 16.6 12.2 16.95 12.55 17.7 11.8" fill="#e19770" fill-rule="evenodd" stroke="none"/>
    <path d="M16.6 12.2 L16.6 13.05 15.45 12.65 14.4 12.35 14.05 11.8 14.05 10.95 14.05 9.25 14.9 9.85 15.75 10.1 14.9 10.95 16.6 12.2 M14.05 13.2 L14.05 14.3 13.75 14.2 13.65 13.9 13.65 13.45 14.05 13.2" fill="#cd916e" fill-rule="evenodd" stroke="none"/>
    <path d="M13.65 9.25 L14.05 9.25 14.05 10.95 12.8 10.1 12.8 9.25 13.25 9.25 13.65 9.25" fill="#cd9480" fill-rule="evenodd" stroke="none"/>
    <path d="M12.4 10.1 L11.95 8.0 12.8 8.2 12.8 8.0 13.1 8.65 13.25 9.25 12.8 9.25 12.8 10.1 12.4 10.1" fill="#cd8869" fill-rule="evenodd" stroke="none"/>
    <path d="M11.1 10.95 L12.4 10.1 12.8 10.1 14.05 10.95 14.05 11.8 13.25 11.8 12.4 11.35 11.55 10.95 11.1 10.95" fill="#d18b62" fill-rule="evenodd" stroke="none"/>
    <path d="M11.95 12.65 L11.55 10.95 12.4 11.35 13.25 13.45 12.35 13.25 Q11.95 13.0 11.95 12.65" fill="#b67245" fill-rule="evenodd" stroke="none"/>
    <path d="M11.55 14.75 L11.1 13.45 11.35 13.45 11.1 12.65 11.95 12.65 Q11.95 13.0 12.35 13.25 L13.25 13.45 13.35 13.75 13.65 13.9 13.75 14.2 14.05 14.3 14.9 14.75 14.55 15.35 13.65 15.6 12.8 15.15 11.55 14.75" fill="#e78946" fill-rule="evenodd" stroke="none"/>
    <path d="M13.25 11.8 L14.05 11.8 14.4 12.35 14.05 12.35 14.05 13.2 13.65 13.45 13.25 11.8" fill="#d39b79" fill-rule="evenodd" stroke="none"/>
    <path d="M17.7 13.5 L17.7 15.6 16.2 14.75 16.2 15.6 14.9 14.75 14.05 14.3 14.05 13.2 14.05 12.35 14.4 12.35 15.45 12.65 16.6 13.05 17.15 13.3 17.7 13.5" fill="#d58653" fill-rule="evenodd" stroke="none"/>
    <path d="M12.4 11.35 L13.25 11.8 13.65 13.45 13.65 13.9 13.35 13.75 13.25 13.45 12.4 11.35" fill="#cc895b" fill-rule="evenodd" stroke="none"/>
    <path d="M17.7 16.8 L17.7 18.95 17.45 18.95 14.9 16.85 14.7 16.55 14.05 16.4 13.65 15.6 14.55 15.35 14.9 14.75 16.2 15.6 17.7 16.8" fill="#ec7b32" fill-rule="evenodd" stroke="none"/>
    <path d="M11.95 16.0 L11.55 14.75 12.8 15.15 12.4 16.4 12.1 16.3 11.95 16.0" fill="#6b4641" fill-rule="evenodd" stroke="none"/>
    <path d="M10.7 15.15 L11.95 16.0 12.1 16.3 12.4 16.4 Q12.55 16.4 12.7 16.55 L12.8 16.85 12.8 17.25 10.7 16.4 10.7 15.6 10.7 15.15" fill="#4d2d2b" fill-rule="evenodd" stroke="none"/>
    <path d="M9.85 16.4 L10.7 16.4 12.8 17.25 12.8 18.55 9.85 16.4" fill="#815445" fill-rule="evenodd" stroke="none"/>
    <path d="M14.05 16.4 L14.7 16.55 14.9 16.85 15.35 18.1 12.8 17.25 12.8 16.85 14.05 16.4" fill="#6d4137" fill-rule="evenodd" stroke="none"/>
    <path d="M13.65 15.6 L14.05 16.4 12.8 16.85 12.7 16.55 Q12.55 16.4 12.4 16.4 L12.8 15.15 13.65 15.6" fill="#7a4d40" fill-rule="evenodd" stroke="none"/>
    <path d="M17.7 15.6 L17.7 16.8 16.2 15.6 16.2 14.75 17.7 15.6" fill="#ce7a40" fill-rule="evenodd" stroke="none"/>
    <path d="M14.9 16.85 L17.45 18.95 15.35 18.1 14.9 16.85" fill="#804431" fill-rule="evenodd" stroke="none"/>
    <path d="M17.7 18.95 L17.7 22.7 17.5 22.15 Q17.3 21.9 17.0 21.9 L17.0 21.5 17.15 21.05 Q17.15 20.45 16.7 20.05 L15.75 19.35 15.75 20.2 14.5 20.2 14.5 21.9 13.65 21.5 13.65 21.05 13.6 20.25 12.8 18.55 12.8 17.25 15.35 18.1 17.45 18.95 17.7 18.95" fill="#572f25" fill-rule="evenodd" stroke="none"/>
    <path d="M15.75 20.2 L15.75 19.35 16.7 20.05 Q17.15 20.45 17.15 21.05 L17.0 21.5 15.75 20.2" fill="#361817" fill-rule="evenodd" stroke="none"/>
    <path d="M17.0 21.5 L17.0 21.9 16.8 22.5 16.2 22.75 15.7 22.3 15.35 21.9 17.0 21.5" fill="#e17640" fill-rule="evenodd" stroke="none"/>
    <path d="M15.35 21.9 L15.7 22.3 16.2 22.75 16.2 23.6 14.9 22.75 14.6 22.5 14.5 21.9 15.35 21.9" fill="#c25933" fill-rule="evenodd" stroke="none"/>
    <path d="M17.0 21.5 L15.35 21.9 14.5 21.9 14.5 20.2 15.75 20.2 17.0 21.5" fill="#ab5a38" fill-rule="evenodd" stroke="none"/>
    <path d="M17.7 22.7 L17.7 23.6 16.6 24.0 16.45 23.7 16.2 23.6 16.2 22.75 16.8 22.5 17.0 21.9 Q17.3 21.9 17.5 22.15 L17.7 22.7" fill="#ce663d" fill-rule="evenodd" stroke="none"/>
    <path d="M11.55 19.8 L12.8 20.2 13.05 20.85 13.65 21.05 13.65 21.5 11.95 21.05 11.55 19.8" fill="#e2875e" fill-rule="evenodd" stroke="none"/>
    <path d="M13.65 21.5 L12.8 22.75 11.95 21.05 13.65 21.5" fill="#f87330" fill-rule="evenodd" stroke="none"/>
    <path d="M12.8 22.75 L10.7 21.05 10.7 20.65 11.95 21.05 12.8 22.75" fill="#c15739" fill-rule="evenodd" stroke="none"/>
    <path d="M15.2 24.45 L12.85 24.45 13.5 24.2 13.75 23.55 13.5 23.0 Q13.2 22.7 12.8 22.75 L13.65 21.5 14.5 21.9 14.6 22.5 14.9 22.75 15.2 24.45 M11.85 24.45 L11.6 24.45 11.55 24.45 11.85 24.45" fill="#ae543a" fill-rule="evenodd" stroke="none"/>
    <path d="M10.7 20.65 L9.85 18.1 11.55 19.8 11.95 21.05 10.7 20.65" fill="#f17333" fill-rule="evenodd" stroke="none"/>
    <path d="M12.8 20.2 L13.0 20.2 12.8 18.55 13.6 20.25 13.65 21.05 13.05 20.85 12.8 20.2" fill="#9f5a40" fill-rule="evenodd" stroke="none"/>
    <path d="M11.6 24.45 L11.3 24.45 11.55 24.45 11.6 24.45" fill="#93776e" fill-rule="evenodd" stroke="none"/>
    <path d="M17.7 23.6 L17.7 24.45 16.95 24.45 16.6 24.0 17.7 23.6" fill="#836054" fill-rule="evenodd" stroke="none"/>
    <path d="M16.95 24.45 L15.2 24.45 14.9 22.75 16.2 23.6 16.45 23.7 16.6 24.0 16.95 24.45" fill="#dd6c3a" fill-rule="evenodd" stroke="none"/>
  </g>
</svg>
