<?xml version="1.0" encoding="UTF-8" standalone="no"?>
<svg xmlns:xlink="http://www.w3.org/1999/xlink" height="52.7px" width="47.4px" xmlns="http://www.w3.org/2000/svg">
  <g transform="matrix(1.0, 0.0, 0.0, 1.0, 23.7, 26.35)">
    <path d="M9.75 23.2 L9.85 23.25 9.95 23.35 9.95 23.45 10.0 23.55 10.0 23.65 10.05 23.75 10.05 23.85 10.05 23.9 10.0 24.0 10.0 24.1 9.95 24.2 9.85 24.3 9.8 24.4 9.65 24.5 9.55 24.55 9.45 24.55 Q-6.15 24.7 -21.75 24.5 L-21.85 24.4 -21.95 24.3 -22.05 24.2 -22.2 24.0 -22.25 23.9 -22.25 23.85 -22.2 23.75 -22.2 23.65 -22.15 23.55 -22.05 23.45 -22.0 23.35 -21.9 23.25 -21.75 23.1 -21.65 23.1 -21.35 23.05 -2.1 23.0 9.25 23.05 9.6 23.1 9.75 23.2" fill="#663333" fill-opacity="0.2" fill-rule="evenodd" stroke="none"/>
    <path d="M-17.1 23.4 L-14.85 23.45 -14.6 23.5 -14.45 23.6 -14.4 23.7 -14.35 23.8 -14.3 23.9 -14.25 24.0 -14.25 24.1 -14.3 24.15 -14.3 24.25 -14.35 24.35 -14.4 24.45 -14.55 24.55 -14.65 24.6 -14.85 24.65 -15.8 24.7 -15.9 24.8 -16.0 24.9 -16.15 24.95 -16.35 25.0 -16.8 25.1 -16.8 25.15 -16.85 25.25 -16.9 25.35 -16.9 25.4 -17.0 25.5 -17.1 25.6 -17.35 25.7 -17.5 25.75 -17.55 25.8 -18.3 25.8 -18.75 25.7 -19.05 25.65 -19.6 25.55 -21.3 25.1 -21.75 25.05 -22.05 25.0 -22.15 24.95 -22.4 24.9 -22.55 24.8 -22.65 24.7 -22.7 24.6 -22.8 24.5 -22.85 24.4 -22.9 24.35 -22.9 24.25 -22.9 24.15 -22.9 24.05 -22.9 23.95 -22.85 23.85 -22.8 23.75 -22.75 23.65 -22.6 23.6 -22.45 23.55 -22.1 23.45 -21.5 23.4 -21.3 23.3 -21.0 23.25 -18.7 23.3 -17.1 23.4" fill="#663333" fill-opacity="0.2" fill-rule="evenodd" stroke="none"/>
    <path d="M2.0 23.6 L2.1 23.5 2.2 23.45 2.45 23.4 6.5 23.35 9.2 23.05 9.15 22.95 9.15 22.85 9.15 22.65 9.15 22.5 9.2 22.4 9.2 22.3 9.25 22.2 9.25 22.1 9.3 22.0 9.35 21.9 9.45 21.85 9.45 21.75 9.5 21.65 9.5 21.55 9.5 21.45 9.55 21.35 9.65 21.15 9.8 20.9 10.0 20.5 10.0 20.4 10.05 20.35 10.1 20.25 10.35 19.6 10.65 18.55 10.95 17.6 10.95 17.5 10.95 17.4 10.95 17.35 10.95 17.25 10.95 17.15 11.0 17.05 11.0 16.95 11.0 16.85 11.05 16.75 11.1 16.65 11.15 16.6 11.2 16.5 11.2 16.4 11.25 16.3 11.25 16.2 11.25 16.1 11.25 16.0 11.25 15.9 11.25 15.75 11.25 15.65 11.3 15.55 11.35 15.45 11.4 15.35 11.4 15.25 11.4 15.15 11.4 15.1 11.45 15.0 11.45 14.9 11.5 14.8 11.6 14.7 11.65 14.6 11.8 14.5 11.95 14.45 12.15 14.45 12.15 14.4 12.4 14.5 12.6 14.6 12.65 14.7 12.75 14.75 12.8 14.85 12.9 15.35 12.85 16.1 12.75 16.85 12.7 16.9 12.75 17.0 12.85 17.1 12.95 17.2 13.0 17.3 13.05 17.4 13.1 17.5 13.1 17.6 13.1 17.65 13.1 17.75 13.1 17.85 13.1 18.05 13.1 18.15 13.0 18.25 13.0 18.35 12.95 18.4 12.95 18.5 12.85 18.6 12.85 18.7 12.85 18.8 12.85 18.9 12.85 19.0 12.9 19.1 12.9 19.15 12.9 19.25 12.85 19.45 12.85 19.65 12.85 19.75 12.85 19.85 12.8 20.0 12.7 20.4 12.65 20.75 12.6 20.85 12.6 20.95 12.6 21.05 12.5 21.15 12.5 21.25 12.45 21.35 12.45 21.4 12.35 21.5 12.35 21.6 12.3 21.7 12.3 21.8 12.25 21.9 12.25 22.0 12.25 22.1 12.25 22.15 12.2 22.25 12.15 22.35 12.1 22.45 12.1 22.55 12.0 22.65 12.0 22.75 11.95 22.85 11.9 23.0 11.9 23.2 11.85 23.3 11.8 23.4 11.75 23.5 11.75 23.6 11.75 23.65 11.85 23.75 12.0 23.85 12.1 23.95 12.2 24.05 12.25 24.15 12.25 24.25 12.3 24.35 12.3 24.4 12.25 24.5 12.25 24.6 12.2 24.7 12.15 24.8 12.05 24.9 11.9 25.0 11.7 25.1 11.55 25.15 11.45 25.25 11.35 25.25 11.15 25.3 10.9 25.3 10.6 25.25 10.45 25.15 2.2 24.65 2.05 24.55 1.95 24.45 1.9 24.35 1.85 24.25 1.85 24.15 1.85 24.1 1.85 24.0 1.85 23.9 1.85 23.8 1.95 23.7 2.0 23.6" fill="#663333" fill-opacity="0.2" fill-rule="evenodd" stroke="none"/>
    <path d="M7.15 -25.35 L11.25 -25.35 15.4 -25.35 21.0 -25.05 21.1 -24.95 21.2 -24.85 21.25 -24.75 21.25 -24.7 21.3 -24.6 21.3 -24.5 21.25 -24.4 21.25 -24.3 21.15 -24.2 21.1 -24.1 21.0 -24.05 20.95 -24.05 20.75 -24.0 20.5 -23.95 20.15 -23.95 19.65 -23.9 Q3.75 -23.55 -12.15 -23.8 L-12.3 -23.85 -12.4 -23.95 -12.5 -24.05 -12.55 -24.15 -12.6 -24.25 -12.6 -24.35 -12.65 -24.45 -12.65 -24.5 -12.65 -24.6 -12.65 -24.7 -12.6 -24.8 -12.55 -24.9 -12.55 -25.0 -12.45 -25.1 -12.4 -25.2 -12.25 -25.25 -12.15 -25.35 -12.05 -25.35 -11.95 -25.4 -11.75 -25.4 -11.75 -25.45 -2.0 -25.4 2.9 -25.4 7.15 -25.35" fill="#ffffff" fill-opacity="0.2" fill-rule="evenodd" stroke="none"/>
    <path d="M21.5 -25.15 L21.75 -25.1 21.95 -25.0 22.0 -24.9 22.2 -24.7 22.4 -24.4 22.6 -24.05 22.75 -23.4 22.75 -22.35 22.6 -21.25 22.55 -21.15 22.5 -21.05 22.5 -20.95 22.45 -20.85 22.45 -20.75 22.35 -20.7 22.3 -20.6 22.25 -20.5 22.1 -20.4 21.95 -20.35 21.75 -20.3 21.65 -20.3 21.45 -20.35 21.2 -20.4 21.05 -20.5 20.95 -20.6 20.85 -20.7 20.8 -20.75 20.8 -20.85 20.75 -20.95 20.75 -21.05 20.7 -21.15 20.65 -21.25 20.6 -21.35 20.5 -21.45 20.5 -22.0 20.5 -22.95 20.5 -23.95 20.5 -24.05 20.55 -24.15 20.6 -24.25 20.7 -24.35 20.75 -24.4 20.8 -24.5 20.8 -24.6 20.85 -24.7 20.9 -24.8 20.95 -24.9 21.05 -25.0 21.2 -25.1 21.5 -25.15" fill="#ffffff" fill-opacity="0.2" fill-rule="evenodd" stroke="none"/>
    <path d="M-11.0 -24.5 L-10.95 -24.6 -10.85 -24.55 -10.7 -24.55 -10.65 -24.6 -10.5 -24.5 -10.4 -24.35 -10.35 -24.25 -10.35 -24.15 -10.3 -24.05 -10.35 -23.95 -10.3 -23.85 -10.35 -23.75 -10.35 -23.7 -10.35 -23.65 -10.4 -23.55 -10.35 -23.4 -10.6 -22.2 -10.85 -20.75 -11.1 -19.8 -11.05 -19.7 -11.1 -19.6 -12.35 -13.95 -13.6 -8.1 -14.95 -2.25 -16.3 3.55 -17.6 9.35 -19.0 15.25 -20.5 21.1 -20.5 21.25 -20.55 21.3 -20.6 21.35 -20.65 21.45 -20.7 21.75 -20.9 22.2 -21.0 22.7 -21.1 22.8 -21.15 22.8 -21.35 23.0 -21.45 23.0 -21.5 23.05 -21.75 23.05 -21.95 22.9 -22.1 22.85 -22.15 22.7 -22.2 22.6 -22.2 22.3 -22.15 21.85 -22.05 21.3 -22.05 21.25 -22.1 21.15 -22.05 21.05 -22.1 21.0 -20.95 15.3 -19.55 9.45 -18.15 3.7 -16.8 -2.1 -15.5 -7.9 -14.0 -13.85 -12.6 -19.65 -12.55 -19.95 -12.45 -20.05 -12.4 -20.05 -12.1 -21.25 -11.75 -22.65 -11.45 -23.7 -11.45 -23.75 -11.35 -23.85 -11.35 -23.9 -11.35 -24.0 -11.3 -24.1 -11.3 -24.2 -11.2 -24.3 -11.2 -24.4 -11.1 -24.4 -11.0 -24.5" fill="#ffffff" fill-opacity="0.2" fill-rule="evenodd" stroke="none"/>
    <path d="M-12.2 -25.6 L-12.2 -25.75 -12.1 -25.85 -12.05 -25.95 -11.95 -26.1 -11.8 -26.15 Q-6.65 -26.5 -1.7 -26.0 L4.85 -26.15 19.65 -26.3 20.1 -26.3 20.65 -26.25 21.1 -26.2 21.3 -26.15 21.4 -26.0 21.4 -25.9 21.5 -25.8 21.45 -25.65 21.45 -25.55 21.4 -25.45 21.35 -25.35 21.25 -25.25 21.2 -25.2 21.2 -25.15 21.2 -25.05 21.15 -24.95 21.1 -24.85 21.0 -24.75 20.9 -24.65 20.75 -24.55 19.05 -24.35 4.35 -24.55 Q1.1 -24.55 -2.15 -24.7 -7.35 -24.2 -12.4 -24.6 L-12.45 -24.7 -12.4 -24.85 -12.45 -24.95 -12.45 -25.05 -12.45 -25.1 -12.45 -25.25 -12.35 -25.35 -12.3 -25.45 -12.2 -25.6 -12.2 -25.55 -12.2 -25.45 -12.15 -25.35 -12.2 -25.2 -12.15 -25.1 Q-7.1 -24.7 -1.9 -25.2 1.35 -25.05 4.6 -25.05 L19.3 -24.85 21.0 -25.05 21.15 -25.15 21.2 -25.2 21.15 -25.15 21.0 -25.05 19.3 -24.85 4.6 -25.05 Q1.35 -25.05 -1.9 -25.2 -7.1 -24.7 -12.15 -25.1 L-12.2 -25.2 -12.15 -25.35 -12.2 -25.45 -12.2 -25.55 -12.2 -25.6" fill="#333333" fill-rule="evenodd" stroke="none"/>
    <path d="M-11.4 -26.25 L-11.35 -26.3 -11.1 -26.35 -10.95 -26.3 -10.85 -26.2 -10.8 -26.05 -10.75 -25.85 -10.7 -25.65 -10.7 -25.55 -10.8 -25.45 -10.8 -25.35 -10.85 -25.25 -10.95 -25.2 -12.05 -19.55 -13.45 -13.65 -14.85 -7.75 Q-15.35 -5.65 -16.0 -3.6 L-16.05 -3.55 -16.1 -3.45 -17.25 2.2 -18.55 8.1 -19.9 14.0 -21.15 19.9 -21.9 23.1 -22.0 23.2 -22.05 23.3 -22.1 23.4 -22.25 23.5 -22.4 23.6 -22.7 23.65 -22.9 23.6 -23.2 23.65 -23.4 23.6 -23.55 23.5 -23.6 23.4 -23.65 23.3 -23.7 23.2 -22.45 17.6 -20.95 11.65 -19.55 5.75 -18.05 -0.15 -17.25 -3.25 -17.25 -3.5 -16.15 -9.15 -14.85 -15.05 -13.45 -20.95 -12.3 -25.45 -12.2 -25.55 -12.15 -25.65 -12.15 -25.75 -12.15 -25.85 -12.1 -25.95 -12.05 -26.05 -12.05 -26.1 -11.95 -26.2 -11.85 -26.3 -11.6 -26.35 -11.45 -26.3 -11.4 -26.25 -11.45 -26.2 -11.55 -26.1 -11.55 -26.05 -11.6 -25.95 -11.65 -25.85 -11.65 -25.75 -11.65 -25.65 -11.7 -25.55 -11.8 -25.45 -12.95 -20.95 -14.35 -15.05 -15.65 -9.15 -16.75 -3.5 -16.75 -3.25 -17.55 -0.15 -19.05 5.75 -20.45 11.65 -21.95 17.6 -23.2 23.2 -23.15 23.3 -23.1 23.4 -23.05 23.5 -22.9 23.6 -23.05 23.5 -23.1 23.4 -23.15 23.3 -23.2 23.2 -21.95 17.6 -20.45 11.65 -19.05 5.75 -17.55 -0.15 -16.75 -3.25 -16.75 -3.5 -15.65 -9.15 -14.35 -15.05 -12.95 -20.95 -11.8 -25.45 -11.7 -25.55 -11.65 -25.65 -11.65 -25.75 -11.65 -25.85 -11.6 -25.95 -11.55 -26.05 -11.55 -26.1 -11.45 -26.2 -11.4 -26.25" fill="#333333" fill-rule="evenodd" stroke="none"/>
    <path d="M-16.4 22.75 L-13.35 22.9 -12.45 23.1 -12.35 23.15 -12.5 23.25 -12.85 23.35 -17.5 23.65 -18.85 23.6 -23.3 23.4 -23.4 23.3 -23.4 23.25 -23.35 23.15 -23.25 23.05 -23.15 23.0 -22.7 22.95 -22.15 22.9 -21.95 22.85 -18.65 22.7 -16.4 22.75" fill="#333333" fill-rule="evenodd" stroke="none"/>
    <path d="M9.25 22.7 L9.5 22.75 9.65 22.85 9.65 22.95 9.6 23.05 9.65 23.15 9.6 23.25 9.55 23.35 9.55 23.4 9.4 23.5 9.3 23.6 Q-1.1 23.8 -11.4 23.35 L-11.8 23.3 -11.85 23.2 -11.8 23.1 -8.95 22.75 7.5 22.7 9.25 22.7" fill="#333333" fill-rule="evenodd" stroke="none"/>
    <path d="M21.05 -26.1 L21.1 -26.0 21.05 -25.9 20.95 -25.8 19.75 -19.9 18.4 -14.0 17.1 -8.1 15.75 -2.2 15.35 -0.75 15.35 -0.7 15.3 -0.6 15.25 -0.5 15.25 -0.4 15.2 -0.3 15.2 -0.2 15.1 -0.1 15.05 0.0 15.05 0.05 15.0 0.15 15.0 0.25 14.95 0.35 14.85 0.45 14.8 0.55 14.8 0.65 14.75 0.75 14.7 0.8 14.6 0.8 14.6 0.75 14.6 0.65 14.6 0.55 14.6 0.45 14.5 0.35 14.55 0.25 14.55 0.15 14.6 0.05 14.6 0.0 14.55 -0.1 14.6 -0.2 14.6 -0.3 14.65 -0.4 14.65 -0.5 14.65 -0.6 14.65 -0.7 15.95 -6.6 Q16.6 -9.55 17.4 -12.5 L18.8 -18.4 20.2 -24.3 20.65 -25.7 20.8 -25.9 20.9 -26.05 20.95 -26.1 21.05 -26.1" fill="#333333" fill-rule="evenodd" stroke="none"/>
    <path d="M13.15 8.5 L13.15 8.55 13.2 8.65 13.15 8.75 13.15 8.85 13.05 8.95 11.95 14.1 10.6 19.65 9.9 22.85 9.9 22.9 9.8 23.0 9.8 23.1 9.65 23.2 9.55 23.25 9.45 23.3 9.25 23.25 9.2 23.15 9.15 23.05 10.4 17.7 11.65 12.05 12.55 8.9 12.55 8.8 12.7 8.7 12.75 8.6 12.75 8.5 12.8 8.4 12.85 8.35 13.1 8.4 13.15 8.5" fill="#333333" fill-rule="evenodd" stroke="none"/>
    <path d="M11.95 25.15 L12.15 25.15 12.2 25.25 12.15 25.4 12.2 25.5 12.2 25.6 12.2 25.65 12.2 25.8 12.1 25.9 12.05 26.0 11.95 26.15 11.8 26.2 Q6.65 26.55 1.7 26.05 L-4.85 26.2 -19.65 26.35 -20.1 26.35 -20.65 26.3 -21.1 26.25 -21.3 26.2 -21.4 26.05 -21.4 25.95 -21.5 25.85 -21.45 25.7 -21.55 25.7 -21.65 25.55 -21.65 25.45 -21.75 25.35 -21.7 25.2 -21.7 25.1 -21.65 25.0 -21.6 24.9 -21.5 24.8 -21.4 24.7 -21.25 24.6 -19.55 24.4 -4.85 24.6 1.65 24.75 Q6.85 24.25 11.9 24.65 L11.95 24.75 11.9 24.9 11.95 25.0 11.95 25.1 11.95 25.15 Q7.0 24.75 1.9 25.25 L-4.6 25.1 -19.3 24.9 -21.0 25.1 -21.15 25.2 -21.25 25.3 -21.35 25.4 -21.4 25.5 -21.45 25.6 -21.45 25.7 -21.45 25.6 -21.4 25.5 -21.35 25.4 -21.25 25.3 -21.15 25.2 -21.0 25.1 -19.3 24.9 -4.6 25.1 1.9 25.25 Q7.0 24.75 11.95 25.15" fill="#333333" fill-rule="evenodd" stroke="none"/>
    <path d="M11.4 25.8 L11.35 25.85 11.1 25.9 10.95 25.85 10.85 25.75 10.8 25.6 10.75 25.4 10.7 25.2 10.7 25.1 10.8 25.0 10.8 24.9 10.85 24.8 10.95 24.75 12.05 19.1 13.45 13.2 14.85 7.3 Q15.35 5.2 16.0 3.15 L16.05 3.1 16.1 3.0 17.25 -2.65 18.55 -8.55 19.9 -14.45 21.15 -20.35 21.9 -23.55 22.0 -23.65 22.05 -23.75 22.1 -23.85 22.25 -23.95 22.4 -24.05 22.7 -24.1 22.9 -24.05 23.2 -24.1 23.4 -24.05 23.55 -23.95 23.6 -23.85 23.65 -23.75 23.7 -23.65 22.45 -18.05 20.95 -12.1 19.55 -6.2 18.05 -0.3 17.25 2.8 17.25 3.05 16.15 8.7 14.85 14.6 13.45 20.5 12.3 25.0 12.2 25.1 12.15 25.2 12.15 25.3 12.15 25.4 12.1 25.5 12.05 25.6 12.05 25.65 11.95 25.75 11.85 25.85 11.6 25.9 11.45 25.85 11.4 25.8 11.35 25.75 11.3 25.6 11.25 25.4 11.2 25.2 11.2 25.1 11.3 25.0 11.3 24.9 11.35 24.8 11.45 24.75 12.55 19.1 13.95 13.2 15.35 7.3 Q15.85 5.2 16.5 3.15 L16.55 3.1 16.6 3.0 17.75 -2.65 19.05 -8.55 20.4 -14.45 21.65 -20.35 22.4 -23.55 22.5 -23.65 22.55 -23.75 22.6 -23.85 22.75 -23.95 22.9 -24.05 22.75 -23.95 22.6 -23.85 22.55 -23.75 22.5 -23.65 22.4 -23.55 21.65 -20.35 20.4 -14.45 19.05 -8.55 17.75 -2.65 16.6 3.0 16.55 3.1 16.5 3.15 Q15.85 5.2 15.35 7.3 L13.95 13.2 12.55 19.1 11.45 24.75 11.35 24.8 11.3 24.9 11.3 25.0 11.2 25.1 11.2 25.2 11.25 25.4 11.3 25.6 11.35 25.75 11.4 25.8" fill="#333333" fill-rule="evenodd" stroke="none"/>
    <path d="M-23.05 22.65 L-22.95 22.65 -22.85 22.65 -21.9 23.4 -20.8 24.4 -20.25 24.95 -20.25 25.05 -20.25 25.15 -20.3 25.3 -20.35 25.45 -20.35 25.55 -20.55 25.75 -20.8 25.9 -20.95 25.95 -21.1 26.0 -21.2 26.0 -22.15 25.15 -23.05 24.05 -23.6 23.3 -23.65 23.25 -23.6 23.1 -23.55 23.05 -23.5 23.0 -23.45 22.85 -23.2 22.7 -23.05 22.65" fill="#333333" fill-rule="evenodd" stroke="none"/>
    <path d="M20.9 -26.1 L21.0 -26.1 21.1 -26.1 22.05 -25.35 23.15 -24.35 23.7 -23.8 23.7 -23.7 23.7 -23.6 23.65 -23.45 23.6 -23.3 23.6 -23.2 23.4 -23.0 23.15 -22.85 23.0 -22.8 22.85 -22.75 22.75 -22.75 21.8 -23.6 20.9 -24.7 20.35 -25.45 20.3 -25.5 20.35 -25.65 20.4 -25.7 20.45 -25.75 20.5 -25.9 20.75 -26.05 20.9 -26.1" fill="#333333" fill-rule="evenodd" stroke="none"/>
    <path d="M-19.15 17.35 L-19.35 17.55 -19.4 17.6 -19.5 17.65 -19.65 17.65 -19.9 17.75 -20.75 18.15 -21.25 18.3 -21.4 18.25 -21.4 18.15 -21.4 18.05 -21.4 18.0 -21.3 17.9 -20.6 17.6 -20.2 17.4 -20.1 17.35 -20.0 17.3 -19.25 17.15 -19.05 17.0 -18.95 17.0 -19.0 17.15 -19.15 17.35" fill="#333333" fill-rule="evenodd" stroke="none"/>
    <path d="M-17.8 17.35 L-17.6 17.15 -17.55 17.1 -17.15 16.95 -17.0 16.95 -16.9 16.9 -16.6 16.95 -16.55 17.05 -16.6 17.15 -16.95 17.25 -17.05 17.3 -17.2 17.4 -17.3 17.5 -17.4 17.6 -17.5 17.7 -18.05 18.0 -18.3 18.15 -18.75 18.35 -19.0 18.4 -19.2 18.5 -19.3 18.5 -19.25 18.4 -19.05 18.3 -18.95 18.2 -18.9 18.1 -18.7 17.9 -18.6 17.8 -18.5 17.75 -18.35 17.65 -18.0 17.45 -17.8 17.35" fill="#333333" fill-rule="evenodd" stroke="none"/>
    <path d="M18.05 -16.6 L18.55 -16.5 18.9 -16.35 18.95 -16.25 18.95 -16.2 18.95 -16.1 18.85 -16.0 18.8 -16.0 18.6 -15.95 18.45 -16.0 18.1 -16.05 17.9 -16.1 17.75 -16.2 17.65 -16.3 17.4 -16.5 17.2 -16.55 16.95 -16.65 16.85 -16.75 16.7 -16.85 16.65 -16.95 16.55 -17.0 16.55 -17.1 16.6 -17.2 16.65 -17.2 16.75 -17.2 16.8 -17.2 16.95 -17.1 17.05 -17.05 17.1 -17.0 17.2 -17.0 17.5 -16.9 17.65 -16.85 17.8 -16.8 18.05 -16.6" fill="#333333" fill-rule="evenodd" stroke="none"/>
    <path d="M16.65 -18.85 L16.8 -18.75 16.95 -18.7 17.25 -18.55 17.4 -18.45 17.5 -18.35 17.6 -18.25 17.7 -18.2 17.85 -18.1 17.9 -18.0 17.85 -17.95 17.65 -17.9 17.5 -17.85 17.35 -17.9 17.15 -18.1 16.9 -18.25 16.5 -18.55 16.4 -18.65 16.4 -18.75 16.45 -18.85 16.6 -18.85 16.65 -18.85" fill="#333333" fill-rule="evenodd" stroke="none"/>
    <path d="M9.9 23.8 L10.0 23.9 10.05 24.0 10.3 24.1 10.45 24.15 10.5 24.25 10.6 24.35 10.75 24.45 10.9 24.55 10.95 24.6 11.15 24.65 11.25 24.8 11.25 24.85 11.2 24.9 11.1 24.95 10.95 25.0 10.85 25.0 10.7 24.95 10.55 24.85 10.4 24.75 10.25 24.65 10.15 24.55 10.05 24.5 9.85 24.4 9.8 24.3 9.75 24.2 9.65 24.1 9.65 24.0 9.65 23.9 9.7 23.8 9.85 23.8 9.9 23.8" fill="#333333" fill-rule="evenodd" stroke="none"/>
  </g>
</svg>
