<?xml version="1.0" encoding="UTF-8" standalone="no"?>
<svg xmlns:xlink="http://www.w3.org/1999/xlink" height="140.85px" width="29.5px" xmlns="http://www.w3.org/2000/svg">
  <g transform="matrix(1.0, 0.0, 0.0, 1.0, 14.75, 70.4)">
    <path d="M12.1 -65.8 L12.9 -65.3 13.0 -64.35 12.6 -63.8 12.25 -62.65 11.6 -62.15 11.0 -60.45 12.35 -60.35 Q13.15 -60.25 13.35 -59.45 L12.75 -58.4 11.7 -58.1 11.7 -48.55 Q12.9 -48.8 13.5 -47.85 13.75 -47.35 13.4 -46.9 L13.35 -46.6 Q13.55 -46.3 13.4 -45.9 L12.2 -44.05 10.45 -41.35 9.75 -40.2 Q9.4 -39.65 9.55 -38.85 L10.85 -38.65 11.55 -38.15 11.25 -36.1 8.35 -35.7 8.35 43.6 Q8.95 43.75 9.2 44.05 L9.55 44.85 10.7 48.75 Q11.4 50.75 11.35 52.75 11.35 54.7 11.65 56.65 11.9 58.55 11.75 60.45 L11.8 61.3 Q12.55 64.1 11.6 66.8 L11.45 66.85 Q10.95 66.85 10.7 67.2 L-9.15 67.1 -10.65 67.25 -11.25 66.85 -11.35 66.1 Q-11.3 65.2 -11.4 64.25 -11.8 59.75 -11.6 55.25 -11.5 53.0 -12.25 50.95 -12.55 50.1 -12.2 49.45 L-11.0 48.95 Q-10.65 48.0 -10.6 47.05 L-10.2 44.95 Q-9.65 43.5 -9.75 42.0 L-9.0 38.8 -9.0 -35.6 -12.0 -36.4 -12.2 -37.35 -12.15 -37.7 -11.6 -38.6 -9.0 -38.75 -11.0 -41.85 -10.9 -45.2 -13.75 -46.1 -13.85 -48.15 -11.35 -48.1 -11.45 -54.8 -11.65 -56.7 -12.5 -57.8 -13.6 -58.1 -14.25 -58.85 -14.0 -60.7 -12.4 -61.0 -11.6 -62.3 Q-11.5 -62.7 -11.7 -63.25 L-12.15 -64.4 Q-12.6 -65.55 -12.15 -66.4 L-10.9 -66.35 -10.45 -66.65 -9.0 -66.35 -7.0 -63.45 0.8 -69.65 1.55 -69.55 2.1 -69.45 Q2.95 -69.5 3.35 -68.8 L3.55 -68.2 Q4.05 -66.8 5.5 -65.8 6.85 -64.9 7.5 -63.55 L7.55 -63.35 Q9.55 -63.6 11.0 -65.05 L12.1 -65.8" fill="#c9a269" fill-rule="evenodd" stroke="none"/>
    <path d="M10.25 -64.7 L11.1 -64.95 12.65 -63.75 Q12.4 -57.0 13.35 -50.65 L12.75 -50.1 12.75 -49.1 13.6 -48.55 Q14.65 -47.85 14.75 -46.55 L13.75 -45.8 Q12.7 -44.65 12.6 -43.1 L12.25 -42.8 10.75 -42.95 9.75 -44.45 Q7.6 -44.5 6.1 -46.2 L6.0 -47.6 4.5 -49.1 -4.9 -48.85 -5.65 -54.85 -6.95 -55.9 -8.15 -56.05 -9.9 -54.85 -11.4 -55.85 -11.45 -57.1 -13.4 -58.35 -13.2 -59.3 Q-12.6 -61.15 -10.5 -60.95 L-10.75 -61.35 -10.75 -63.15 -12.15 -64.1 -12.4 -64.85 -12.0 -65.6 -9.4 -66.1 -7.0 -62.6 Q-5.35 -65.2 -2.25 -65.6 L0.25 -68.1 2.35 -68.1 Q5.1 -64.55 9.5 -63.7 L10.25 -64.7" fill="#9891a2" fill-opacity="0.3019608" fill-rule="evenodd" stroke="none"/>
    <path d="M5.25 -60.3 L4.9 -60.15 4.75 -59.85 Q4.75 -59.65 4.9 -59.5 L5.25 -59.4 5.6 -59.5 5.75 -59.85 5.6 -60.15 5.25 -60.3 M9.45 -65.85 Q11.5 -66.5 12.85 -64.7 L13.15 -61.35 10.3 -60.2 Q10.9 -58.45 9.9 -56.9 5.0 -54.1 -0.55 -55.3 L-1.05 -58.15 -1.9 -59.1 Q-8.8 -58.95 -12.75 -64.45 L-12.15 -65.45 -9.4 -65.7 -8.65 -65.15 Q-8.0 -64.75 -7.25 -64.5 -5.3 -63.85 -3.9 -64.85 L-2.5 -64.2 -2.35 -65.8 -2.2 -66.45 Q-1.55 -68.2 0.25 -68.5 L1.0 -68.35 1.9 -67.05 Q4.1 -66.8 4.6 -64.6 L9.45 -65.85" fill="#9891a2" fill-opacity="0.3019608" fill-rule="evenodd" stroke="none"/>
    <path d="M-0.2 -62.7 L1.35 -62.1 2.25 -60.9 Q3.65 -61.3 4.7 -60.2 8.1 -56.45 6.25 -52.05 L5.25 -51.95 5.5 -51.2 5.5 -50.6 5.3 -50.0 5.2 -49.75 3.35 -48.35 3.1 -47.15 2.4 -45.6 1.7 -44.8 0.7 -44.6 -0.95 -45.15 Q-1.6 -45.4 -2.15 -45.8 L-2.0 -47.6 Q-10.25 -49.6 -10.5 -58.6 L-9.6 -60.65 Q-6.5 -67.25 0.7 -65.9 L-0.2 -62.7" fill="#9891a2" fill-opacity="0.3019608" fill-rule="evenodd" stroke="none"/>
    <path d="M-4.5 -31.8 L-3.75 -31.2 -3.35 -31.6 -3.9 -31.95 -4.5 -31.8 M-7.15 -41.7 L-6.4 -41.95 -5.85 -41.7 -5.45 -41.45 -4.8 -40.85 -4.6 -40.45 -4.15 -39.05 0.35 -37.95 1.0 -36.05 5.85 -35.45 6.5 -33.55 5.4 -32.55 Q3.5 -31.15 1.25 -30.7 L0.0 -28.85 0.5 -27.7 -0.15 -26.7 -3.5 -25.45 -3.35 -24.25 Q-3.3 -23.7 -3.4 -23.2 L-4.0 -21.05 -8.4 -20.95 -8.75 -21.35 -7.25 -29.2 -7.75 -29.95 -7.7 -31.2 -9.25 -31.7 -9.7 -33.2 -9.25 -33.95 -6.25 -34.45 -5.9 -34.8 -6.25 -35.55 -10.65 -36.45 -10.9 -36.8 -10.15 -39.7 -7.55 -40.2 -7.15 -41.7" fill="#9891a2" fill-opacity="0.3019608" fill-rule="evenodd" stroke="none"/>
    <path d="M-9.15 -32.45 L-9.5 -33.55 -9.15 -34.2 Q-0.05 -37.05 8.85 -34.8 L9.1 -34.45 8.75 -33.3 6.3 -31.3 Q6.1 -28.85 4.05 -27.8 -0.35 -25.55 -5.25 -27.55 L-7.4 -29.8 -6.9 -32.15 -9.15 -32.45" fill="#9891a2" fill-opacity="0.3019608" fill-rule="evenodd" stroke="none"/>
    <path d="M-2.15 -23.05 L-3.85 -24.35 Q-8.95 -27.65 -7.25 -32.7 L6.35 -32.95 7.2 -31.85 Q7.95 -31.0 8.15 -29.8 8.4 -28.0 6.85 -26.95 L7.55 -25.9 Q11.15 -19.2 6.6 -13.2 L5.8 -14.15 Q4.55 -15.75 4.5 -17.8 L2.25 -17.7 Q0.85 -18.2 0.0 -19.45 L-3.0 -20.35 -3.5 -21.45 -2.15 -23.05" fill="#9891a2" fill-opacity="0.3019608" fill-rule="evenodd" stroke="none"/>
    <path d="M-7.75 7.95 L-6.9 7.7 -6.15 7.95 -5.55 8.9 Q-4.6 10.3 -4.85 11.9 L-3.5 13.2 -3.4 15.25 Q-3.45 16.3 -3.9 17.35 L0.25 19.2 Q1.0 20.9 0.15 22.5 L-1.0 24.8 -0.15 26.3 -0.25 27.45 -0.95 28.05 Q-2.1 28.9 -3.65 28.7 L-3.6 30.55 Q-3.6 33.45 -5.5 35.45 -4.15 41.95 -9.4 44.45 L-10.15 44.2 -10.6 43.45 -9.75 41.4 Q-6.8 34.0 -8.55 26.25 L-6.9 25.3 -8.4 24.2 -7.4 15.5 -8.1 15.15 Q-9.0 11.35 -7.75 7.95" fill="#9891a2" fill-opacity="0.3019608" fill-rule="evenodd" stroke="none"/>
    <path d="M-10.4 -3.55 L-9.75 -4.05 Q-8.35 -4.9 -6.65 -4.55 -5.05 -1.75 -7.2 0.8 L-6.2 0.85 Q-4.45 1.1 -3.75 2.8 L-2.25 3.95 Q0.25 6.1 -1.9 8.45 L-0.25 9.95 -1.0 12.05 -2.7 12.85 -2.25 13.2 -1.25 13.4 Q-0.05 13.6 0.75 14.45 L0.3 16.5 2.75 18.45 2.5 19.55 1.1 21.05 1.5 23.7 Q1.7 27.65 -2.4 27.8 L-2.4 28.65 Q-2.5 30.35 -3.8 31.4 L-4.45 32.75 Q-5.1 33.95 -6.4 34.2 L-7.9 33.2 Q-9.0 27.05 -6.4 21.2 -7.6 18.3 -7.5 15.2 L-8.5 13.7 -8.45 12.2 -6.0 10.7 -11.0 2.05 -10.4 -3.55" fill="#9891a2" fill-opacity="0.3019608" fill-rule="evenodd" stroke="none"/>
    <path d="M-3.15 -2.05 L-2.5 -1.3 -2.3 0.05 Q-1.8 1.95 -0.15 2.95 0.2 4.4 0.15 6.0 0.0 9.75 -2.75 12.2 L-3.5 12.0 Q-7.85 9.7 -7.35 4.2 L-6.15 2.8 -7.4 1.7 -7.35 0.2 -4.75 -2.05 -3.9 -2.3 -3.15 -2.05" fill="#9891a2" fill-opacity="0.3019608" fill-rule="evenodd" stroke="none"/>
    <path d="M7.1 36.55 L8.45 37.3 Q11.4 48.6 12.05 60.35 12.25 63.6 10.2 65.65 2.75 73.4 -9.75 68.6 L-11.6 63.7 Q-12.75 60.2 -10.95 56.95 L-11.95 55.85 -12.5 54.3 -11.75 53.3 Q-8.4 54.4 -4.9 53.75 L-4.4 51.7 -3.85 51.3 -2.7 50.75 -0.9 50.7 Q-1.15 49.3 -0.45 48.05 0.65 46.15 3.25 46.05 L3.25 41.95 Q5.25 39.65 6.25 36.8 L7.1 36.55" fill="#9891a2" fill-opacity="0.3019608" fill-rule="evenodd" stroke="none"/>
    <path d="M-2.5 47.7 L-1.65 48.8 0.0 49.2 0.6 49.95 6.1 47.95 6.9 48.3 Q8.3 49.05 9.05 50.35 9.5 51.15 9.0 51.8 L11.1 50.8 Q14.9 54.75 13.2 60.2 12.5 62.5 10.8 64.0 2.65 71.3 -8.5 66.85 L-9.9 67.1 -11.65 66.1 Q-12.15 54.3 -10.3 42.6 L-9.5 42.7 -8.6 44.25 Q-7.65 46.1 -7.65 48.2 -5.1 47.0 -2.5 47.7" fill="#9891a2" fill-opacity="0.3019608" fill-rule="evenodd" stroke="none"/>
    <path d="M5.6 32.55 L6.45 32.85 Q8.2 33.65 8.75 35.45 L8.0 37.55 6.1 37.95 6.4 39.25 6.25 40.55 6.65 41.75 Q7.15 44.15 5.25 45.7 L1.55 45.4 Q-0.85 41.8 0.0 37.3 2.3 34.35 5.6 32.55" fill="#9891a2" fill-opacity="0.3019608" fill-rule="evenodd" stroke="none"/>
    <path d="M-11.2 -45.2 L7.05 -45.75 7.05 -45.85 12.05 -45.85 12.8 -45.6 13.0 -45.4 12.75 -45.3 12.15 -44.7 11.85 -44.35 11.7 -44.15 11.65 -43.95 11.6 -43.6 11.6 -43.2 11.6 -43.05 11.6 -43.0 Q0.6 -42.55 -10.45 -43.2 L-11.2 -43.45 -11.4 -43.85 -11.55 -44.2 -11.55 -44.55 -11.4 -44.95 -11.2 -45.2" fill="#663333" fill-opacity="0.2" fill-rule="evenodd" stroke="none"/>
    <path d="M13.15 -57.7 L13.0 -57.55 12.95 -57.35 12.9 -57.15 12.85 -56.95 12.85 -56.8 12.85 -56.6 12.85 -56.4 12.85 -56.2 12.85 -56.05 12.9 -55.85 12.95 -55.65 13.0 -55.45 13.15 -55.3 13.25 -55.15 13.05 -55.1 -9.95 -55.25 -10.95 -55.35 -11.8 -55.65 -13.05 -56.35 -13.3 -56.7 -13.45 -57.1 -13.45 -57.45 -13.4 -57.8 -13.15 -58.2 -12.8 -58.6 -11.95 -58.75 -11.95 -58.85 -9.95 -58.6 -0.45 -58.55 13.05 -58.6 13.95 -58.35 13.75 -58.25 13.5 -58.1 13.35 -57.9 13.15 -57.7" fill="#663333" fill-opacity="0.2" fill-rule="evenodd" stroke="none"/>
    <path d="M-7.95 -35.0 L-7.95 -35.05 7.55 -34.9 8.8 -34.7 9.3 -34.3 9.55 -33.95 9.7 -33.55 9.65 -33.2 9.55 -32.8 9.45 -32.45 9.05 -32.1 8.7 -31.8 8.2 -31.75 -7.95 -31.55 -8.8 -31.8 -9.3 -32.2 -9.55 -32.6 -9.7 -32.95 -9.7 -33.3 -9.65 -33.7 -9.55 -34.05 -9.3 -34.45 -8.8 -34.8 -7.95 -35.0" fill="#663333" fill-opacity="0.2" fill-rule="evenodd" stroke="none"/>
    <path d="M7.15 17.35 L7.3 17.7 7.8 25.95 8.05 34.55 7.8 39.8 7.65 40.2 7.45 40.55 7.2 40.95 6.55 41.2 5.95 40.95 5.6 40.55 5.3 40.2 5.1 31.55 5.4 22.95 5.8 17.7 5.6 17.3 5.45 16.95 5.45 16.55 5.6 16.3 5.7 16.25 6.05 16.2 6.3 16.2 6.65 16.6 6.95 16.95 7.15 17.35" fill="#663333" fill-opacity="0.2" fill-rule="evenodd" stroke="none"/>
    <path d="M8.35 -64.1 Q9.4 -62.8 9.5 -60.8 9.5 -60.45 9.65 -60.05 L8.0 -56.6 Q10.2 -54.05 9.8 -50.65 9.05 -49.15 7.5 -49.0 L6.7 -48.95 7.7 -47.2 Q8.9 -46.85 9.85 -46.05 L10.2 -45.6 10.0 -44.55 Q8.75 -43.55 6.85 -43.45 8.15 -38.75 3.1 -37.6 5.05 -37.15 6.2 -35.6 4.75 -16.1 4.25 3.4 4.15 6.5 4.5 9.65 6.0 23.2 5.9 36.65 12.15 43.1 11.2 51.85 L10.6 52.5 Q5.5 54.0 0.35 52.7 -1.85 54.65 -4.5 53.15 L-4.75 52.9 Q-7.3 52.95 -5.0 42.7 L-4.0 41.25 -4.55 40.45 Q-1.3 27.25 -2.65 15.5 -4.05 3.7 -3.15 -4.3 -2.3 -12.35 -2.7 -15.45 -4.0 -25.5 -3.7 -35.3 L-4.05 -36.45 -1.9 -38.9 Q-3.9 -42.15 -2.05 -45.25 L-4.3 -45.95 Q-6.0 -48.85 -3.0 -51.2 L-3.8 -52.7 Q-4.45 -54.6 -3.4 -56.1 -3.5 -57.15 -2.95 -58.25 L-2.7 -58.65 -5.3 -59.1 -5.9 -59.85 Q-5.75 -65.5 -1.55 -69.1 L2.35 -68.95 2.95 -67.1 5.35 -66.6 6.15 -64.6 8.35 -64.1" fill="#663333" fill-opacity="0.2" fill-rule="evenodd" stroke="none"/>
    <path d="M-9.95 52.7 L1.05 52.7 1.8 52.95 2.15 53.35 2.4 53.7 2.55 54.05 2.95 54.15 9.2 53.8 10.05 53.55 10.8 53.8 11.3 54.2 11.55 54.55 11.65 54.95 11.7 56.8 11.7 57.2 11.7 57.55 11.7 58.7 11.7 60.95 11.7 61.35 11.85 61.7 12.05 62.1 12.15 62.45 12.2 63.2 12.2 64.35 12.2 64.7 12.2 65.1 12.2 65.45 12.05 65.8 11.8 66.2 11.05 66.95 10.45 67.6 10.2 67.65 -1.95 68.1 -2.55 67.95 -4.95 68.15 -5.95 68.35 -6.45 68.35 -7.3 68.05 -7.8 67.95 -8.05 68.1 -8.3 68.2 -8.95 68.3 -9.95 68.35 -10.8 68.0 -11.1 67.9 -11.8 67.6 -12.15 67.2 -12.45 66.85 -12.55 66.45 -12.55 66.1 -12.55 65.7 -12.55 64.95 -12.55 64.6 -12.5 64.2 -12.3 63.85 -11.95 63.45 -11.45 62.7 -11.55 62.35 -11.7 61.95 -11.95 61.6 -12.05 61.2 -12.05 60.85 -12.05 60.45 -12.05 60.1 -12.1 59.7 -12.3 59.3 -12.45 58.95 -12.55 58.55 -12.55 58.2 -12.55 57.45 -12.55 56.7 -12.55 56.3 -12.4 56.0 -12.05 55.55 -11.95 55.2 -11.95 54.8 -11.95 54.45 -11.8 54.1 -11.55 53.7 -11.2 53.3 -10.8 52.95 -9.95 52.75 -9.95 52.7" fill="#663333" fill-opacity="0.2" fill-rule="evenodd" stroke="none"/>
    <path d="M-11.8 64.6 L-11.05 64.2 -10.55 63.95 -9.95 63.85 -9.2 63.95 -8.85 63.9 -3.45 63.6 10.05 63.75 11.3 63.95 11.65 64.35 11.9 64.7 12.05 65.1 12.0 65.45 11.85 65.85 11.65 66.2 11.45 66.45 11.2 66.5 Q1.65 67.1 -8.05 66.85 L-8.3 66.95 -8.95 67.1 -9.8 66.85 -10.3 66.95 -10.95 67.1 -11.8 66.85 -12.05 66.45 -12.25 66.05 -12.3 65.7 -12.25 65.35 -12.05 64.95 -11.8 64.6" fill="#663333" fill-opacity="0.2" fill-rule="evenodd" stroke="none"/>
    <path d="M-0.3 51.95 L-0.4 51.7 11.5 51.7 Q12.4 55.55 11.95 59.7 L11.2 62.9 Q10.5 64.85 8.7 66.35 L-2.45 69.45 Q-5.35 70.15 -7.05 68.45 L-7.3 65.9 -8.45 64.95 -11.05 63.95 Q-11.45 62.25 -11.0 60.6 L-10.85 59.8 -10.1 56.05 Q-9.5 53.4 -6.95 53.0 L-0.3 51.95 M9.7 -66.1 L10.55 -66.35 11.3 -66.1 12.05 -64.95 12.45 -61.2 13.05 -59.7 11.7 -57.85 Q10.8 -53.8 12.15 -50.3 L13.5 -46.65 13.45 -46.6 13.4 -46.4 13.35 -46.3 13.25 -46.2 13.25 -46.15 12.95 -45.6 11.05 -44.35 10.7 -42.8 10.3 -42.05 10.7 -40.2 9.7 -38.8 7.2 -38.2 9.55 -37.95 Q10.8 -37.75 11.2 -36.55 L10.95 -35.45 10.2 -34.8 8.3 -34.05 8.05 -26.95 7.3 -25.8 Q6.85 -21.15 7.55 -16.8 8.05 -13.6 8.0 -10.45 7.9 -3.15 6.95 3.8 L7.75 4.65 8.05 5.3 Q8.3 8.2 6.95 10.95 L7.3 12.45 6.9 13.55 Q7.9 15.65 7.9 18.05 7.9 21.7 8.4 25.2 L8.65 27.5 9.05 31.55 Q9.35 33.7 7.95 35.3 L8.1 36.45 9.0 42.45 7.8 42.45 Q7.3 38.95 4.7 35.4 2.1 31.8 2.55 18.9 3.0 5.95 1.55 -0.35 0.1 -6.7 0.45 -10.85 0.75 -15.05 0.05 -18.0 -0.65 -21.0 0.1 -23.05 0.85 -25.15 -0.05 -27.95 -1.0 -30.75 0.2 -33.2 L2.55 -34.05 3.45 -35.55 3.55 -38.5 Q-0.55 -38.7 0.05 -42.7 1.8 -45.25 5.05 -45.2 L4.55 -48.1 Q1.05 -47.75 -0.95 -50.85 L-0.9 -55.3 1.55 -56.95 Q2.45 -58.05 3.55 -58.2 L7.95 -58.45 3.6 -59.85 3.5 -59.95 -1.4 -61.1 -2.65 -61.45 -2.75 -67.8 Q-2.5 -68.5 -1.75 -68.85 L2.2 -68.7 3.05 -67.85 4.45 -66.0 5.8 -65.6 6.55 -64.6 8.95 -64.65 9.7 -66.1" fill="#663333" fill-opacity="0.2" fill-rule="evenodd" stroke="none"/>
    <path d="M2.35 -59.55 Q-1.7 -59.3 -5.75 -59.4 L-9.25 -59.5 -10.5 -59.55 -11.5 -59.6 -11.8 -59.75 -12.0 -59.9 -12.15 -60.15 -12.2 -60.3 -12.15 -60.45 -12.05 -60.6 -12.0 -60.65 -11.75 -60.7 -11.75 -60.75 -11.45 -60.6 -5.75 -60.6 0.1 -60.65 1.1 -60.6 2.35 -60.55 2.65 -60.4 3.95 -60.25 4.1 -60.05 3.95 -59.85 2.65 -59.65 2.35 -59.55" fill="#ffffff" fill-opacity="0.2" fill-rule="evenodd" stroke="none"/>
    <path d="M1.35 -47.0 L1.1 -46.9 -5.25 -46.85 -13.6 -47.35 -13.75 -47.55 -13.6 -47.75 -13.25 -47.8 -5.25 -48.15 1.1 -48.15 1.35 -48.1 1.55 -48.05 1.9 -47.9 2.0 -47.75 2.2 -47.55 2.0 -47.35 1.9 -47.15 1.55 -47.05 1.35 -47.0" fill="#ffffff" fill-opacity="0.2" fill-rule="evenodd" stroke="none"/>
    <path d="M-11.0 -38.05 L5.1 -38.3 6.1 -38.3 6.85 -38.25 7.2 -38.1 7.45 -37.9 7.6 -37.75 7.7 -37.55 7.6 -37.35 7.45 -37.15 7.2 -37.0 6.85 -36.85 Q-2.1 -36.65 -11.0 -37.05 L-11.3 -37.15 -11.45 -37.35 -11.5 -37.55 -11.45 -37.7 -11.3 -37.9 -11.0 -38.05" fill="#ffffff" fill-opacity="0.2" fill-rule="evenodd" stroke="none"/>
    <path d="M-10.7 52.85 L-10.55 53.05 -10.45 53.25 -10.45 53.4 -10.4 53.6 -10.35 53.8 -10.4 54.0 -10.45 54.15 Q-10.1 56.55 -10.15 59.05 L-10.1 64.3 -10.2 67.5 -10.25 67.65 -10.35 67.85 -10.55 68.05 -11.0 68.15 -11.45 68.05 -11.7 67.85 -11.8 67.65 -11.85 63.0 -11.75 57.9 -11.75 54.9 -11.8 54.75 -11.95 54.55 -11.95 54.35 -11.9 54.15 -11.85 54.0 -11.85 53.8 -11.7 53.6 -11.55 53.4 -11.55 53.25 -11.5 53.05 -11.35 52.85 -11.0 52.75 -10.7 52.85" fill="#ffffff" fill-opacity="0.2" fill-rule="evenodd" stroke="none"/>
    <path d="M-9.25 -66.45 Q-10.35 -61.6 -6.85 -59.05 L-6.65 -58.7 -7.0 -57.95 -8.65 -57.35 Q-7.4 -56.1 -7.3 -54.4 -7.2 -52.2 -9.15 -50.6 L-9.1 -49.3 -7.4 -48.6 -6.65 -48.05 -6.15 -47.2 -6.5 -46.45 -8.15 -45.6 -4.5 -39.55 -4.8 -37.95 Q-5.35 -36.15 -7.4 -36.2 L-8.1 -34.85 -6.4 -34.55 -6.0 -34.4 -5.65 -34.25 -5.35 -33.9 Q-4.2 3.5 -5.5 41.05 -8.6 44.1 -11.4 47.8 -10.05 42.0 -7.9 36.45 L-7.9 -31.7 -8.4 -31.55 Q-10.1 -32.1 -10.45 -33.9 L-11.15 -37.4 -10.15 -39.3 -11.65 -42.7 -10.65 -46.4 -13.5 -47.2 -13.4 -49.05 -11.75 -49.85 -11.7 -57.85 -13.15 -58.35 -13.65 -59.45 -13.3 -59.95 -12.9 -60.3 -12.35 -60.55 -11.6 -60.9 -12.25 -61.95 -11.15 -67.2 -10.4 -67.45 -9.75 -67.2 -9.25 -66.45" fill="#ffffff" fill-opacity="0.2" fill-rule="evenodd" stroke="none"/>
    <path d="M11.15 -68.15 L12.45 -68.45 12.55 -68.45 12.65 -68.45 12.7 -68.45 12.8 -68.25 13.15 -60.2 12.45 -60.2 11.9 -60.25 11.1 -60.25 11.1 -61.65 11.3 -67.65 11.2 -68.0 11.15 -68.15 M13.15 -58.15 L13.35 -48.1 11.95 -48.1 11.0 -48.05 11.0 -51.5 11.05 -58.3 13.15 -58.2 13.15 -58.15" fill="#333333" fill-rule="evenodd" stroke="none"/>
    <path d="M-12.4 -67.85 L-12.25 -68.15 -12.2 -68.35 -12.15 -68.35 -11.25 -68.35 -10.95 -60.65 -12.8 -60.7 -12.8 -63.15 -12.55 -67.65 -12.4 -67.85 M-12.95 -53.0 L-12.85 -57.85 -10.95 -57.85 -10.8 -48.75 -10.75 -47.95 -11.6 -48.0 -12.95 -48.1 -12.95 -53.0" fill="#333333" fill-rule="evenodd" stroke="none"/>
    <path d="M0.1 -69.85 L0.25 -70.15 0.3 -70.2 0.65 -70.4 0.85 -70.35 1.0 -70.35 3.9 -67.95 6.85 -65.4 8.55 -63.8 8.6 -63.65 8.55 -63.45 8.5 -63.15 8.2 -62.8 7.8 -62.5 7.45 -62.4 7.15 -62.35 4.5 -64.9 1.75 -67.8 0.15 -69.55 0.1 -69.65 0.1 -69.85" fill="#333333" fill-rule="evenodd" stroke="none"/>
    <path d="M0.4 -70.4 L0.65 -70.25 0.7 -70.25 0.8 -70.0 0.75 -69.85 0.8 -69.65 -1.85 -67.0 -4.55 -64.25 -6.25 -62.65 -6.35 -62.6 -6.55 -62.6 -6.9 -62.65 -7.2 -62.85 -7.45 -63.15 -7.45 -63.4 -7.5 -63.65 -4.75 -66.15 -1.75 -68.8 0.15 -70.3 0.2 -70.4 0.4 -70.4" fill="#333333" fill-rule="evenodd" stroke="none"/>
    <path d="M-12.25 -68.2 L-12.15 -68.35 -12.15 -68.4 -10.9 -68.4 -10.4 -67.95 -7.5 -65.4 -5.8 -63.8 -5.75 -63.7 -5.75 -63.45 -5.8 -63.2 -6.1 -62.8 -6.5 -62.55 -6.85 -62.45 -7.1 -62.4 -9.8 -64.95 -12.5 -67.75 -12.4 -67.9 -12.25 -68.2" fill="#333333" fill-rule="evenodd" stroke="none"/>
    <path d="M13.25 -67.85 L13.25 -67.8 13.25 -67.75 13.2 -67.7 13.2 -67.6 13.2 -67.55 13.2 -67.45 13.2 -67.35 13.2 -67.25 12.7 -66.8 10.05 -64.05 8.35 -62.45 8.2 -62.4 7.95 -62.4 7.6 -62.55 7.15 -62.8 6.8 -63.25 6.75 -63.55 6.65 -63.85 9.4 -66.35 11.65 -68.15 12.45 -68.45 12.55 -68.45 12.65 -68.5 12.9 -68.35 13.05 -68.25 13.1 -68.2 13.1 -68.15 13.25 -67.95 13.25 -67.85" fill="#333333" fill-rule="evenodd" stroke="none"/>
    <path d="M-6.25 -60.8 L-6.2 -60.7 -6.25 -60.6 -6.3 -60.5 -6.4 -60.45 -6.6 -60.45 -6.75 -60.5 -9.0 -60.5 -10.95 -60.45 -12.7 -60.45 -12.9 -60.5 -13.1 -60.6 -13.15 -60.7 -13.15 -60.8 -13.15 -60.9 -13.15 -61.0 -13.15 -61.1 -13.1 -61.2 -12.9 -61.25 -12.7 -61.35 -11.65 -61.35 -10.95 -61.35 -9.0 -61.3 -7.75 -61.25 -6.85 -61.25 -6.65 -61.2 -6.55 -61.1 -6.4 -61.0 -6.3 -60.9 -6.25 -60.8" fill="#333333" fill-rule="evenodd" stroke="none"/>
    <path d="M11.6 -61.2 L11.7 -61.0 11.7 -60.8 11.65 -60.65 11.5 -60.45 11.3 -60.3 11.05 -60.25 -1.15 -60.65 -1.25 -60.85 -1.3 -61.0 10.0 -61.5 11.05 -61.5 11.35 -61.4 11.6 -61.2" fill="#333333" fill-rule="evenodd" stroke="none"/>
    <path d="M12.55 -57.2 L12.4 -57.0 12.15 -56.9 11.85 -56.85 -8.85 -56.8 -9.15 -56.75 -9.4 -56.7 -9.7 -56.65 -10.2 -56.75 -10.45 -56.9 -11.6 -56.95 -12.05 -57.05 -12.25 -57.25 -12.35 -57.45 -12.35 -57.65 -12.35 -57.8 -12.25 -58.0 -12.05 -58.2 -11.6 -58.3 -10.5 -58.3 -10.2 -58.25 -10.0 -58.2 -9.55 -58.2 -9.3 -58.25 -7.6 -58.5 0.65 -58.5 11.05 -58.5 11.85 -58.45 12.25 -58.3 12.5 -58.15 12.6 -57.95 12.7 -57.75 12.7 -57.55 12.65 -57.4 12.55 -57.2" fill="#333333" fill-rule="evenodd" stroke="none"/>
    <path d="M-14.7 -59.75 L-14.55 -59.95 -14.4 -60.15 -14.35 -60.3 -14.3 -60.5 -14.25 -60.7 -14.1 -60.9 -13.9 -61.05 -13.55 -61.25 -13.35 -61.45 -13.2 -61.55 -12.95 -61.6 -12.9 -61.65 -12.1 -61.55 -11.1 -61.35 -10.15 -60.9 -10.4 -60.8 -10.7 -60.95 -11.05 -60.85 -11.65 -60.75 -12.8 -60.55 -13.0 -60.4 -13.1 -60.2 -13.15 -60.0 -13.3 -59.8 -13.35 -59.65 -13.35 -59.45 -13.35 -59.25 -13.35 -59.05 -13.3 -58.9 -13.0 -58.7 -12.15 -58.55 -11.6 -58.45 -11.3 -58.4 -9.2 -58.5 -8.85 -58.4 -8.7 -58.2 -8.6 -58.0 -8.55 -57.8 -8.5 -57.65 -8.55 -57.45 -8.6 -57.25 -8.8 -57.05 -9.75 -56.95 -11.3 -56.9 -11.8 -57.0 -12.05 -57.15 -13.4 -57.4 -14.2 -57.7 -14.5 -57.9 -14.7 -58.1 -14.75 -58.25 -14.75 -58.45 -14.75 -58.65 -14.7 -58.8 -14.7 -59.2 -14.7 -59.4 -14.7 -59.55 -14.7 -59.75" fill="#333333" fill-rule="evenodd" stroke="none"/>
    <path d="M11.6 -61.15 L13.45 -61.15 13.85 -61.0 14.1 -60.8 14.3 -60.65 14.35 -60.45 14.45 -60.25 14.55 -60.05 14.6 -59.9 14.6 -59.7 14.6 -59.5 14.6 -59.3 14.6 -58.95 14.55 -58.75 13.95 -58.1 12.15 -57.2 11.85 -57.15 10.8 -57.15 10.3 -57.25 10.1 -57.45 10.0 -57.65 10.0 -57.8 10.0 -58.0 10.05 -58.2 10.2 -58.35 10.35 -58.55 10.6 -58.75 11.05 -58.85 11.9 -59.0 12.4 -59.2 12.55 -59.4 12.65 -59.5 12.65 -59.55 11.6 -59.65 11.1 -59.75 10.85 -59.95 10.7 -60.15 10.65 -60.3 10.65 -60.5 10.75 -60.7 10.9 -60.85 11.1 -61.0 11.2 -61.05 11.6 -61.1 11.6 -61.15" fill="#333333" fill-rule="evenodd" stroke="none"/>
    <path d="M-6.5 -48.3 L-6.45 -48.2 -6.5 -48.1 -6.55 -48.0 -6.65 -47.95 -6.85 -47.95 -7.0 -48.0 -9.25 -48.0 -11.2 -47.95 -12.95 -47.95 -13.15 -48.0 -13.35 -48.1 -13.4 -48.2 -13.4 -48.3 -13.4 -48.4 -13.4 -48.5 -13.4 -48.6 -13.35 -48.7 -13.15 -48.75 -12.95 -48.85 -11.9 -48.85 -11.2 -48.85 -9.25 -48.8 -8.0 -48.75 -7.1 -48.75 -6.9 -48.7 -6.8 -48.6 -6.65 -48.5 -6.55 -48.4 -6.5 -48.3" fill="#333333" fill-rule="evenodd" stroke="none"/>
    <path d="M13.35 -48.7 L13.45 -48.5 13.45 -48.3 13.4 -48.15 13.25 -47.95 13.05 -47.8 12.8 -47.75 0.6 -48.15 0.5 -48.35 0.45 -48.5 11.75 -49.0 12.8 -49.0 13.1 -48.9 13.35 -48.7" fill="#333333" fill-rule="evenodd" stroke="none"/>
    <path d="M12.55 -44.7 L12.4 -44.5 12.15 -44.4 11.85 -44.35 -8.85 -44.3 -9.15 -44.25 -9.4 -44.2 -9.7 -44.15 -10.2 -44.25 -10.45 -44.4 -11.6 -44.45 -12.05 -44.55 -12.25 -44.75 -12.35 -44.95 -12.35 -45.15 -12.35 -45.3 -12.25 -45.5 -12.05 -45.7 -11.6 -45.8 -10.5 -45.8 -10.2 -45.75 -10.0 -45.7 -9.55 -45.7 -9.3 -45.75 -7.6 -46.0 0.65 -46.0 11.05 -46.0 11.85 -45.95 12.25 -45.8 12.5 -45.65 12.6 -45.45 12.7 -45.25 12.7 -45.05 12.65 -44.9 12.55 -44.7" fill="#333333" fill-rule="evenodd" stroke="none"/>
    <path d="M-14.7 -47.25 L-14.55 -47.45 -14.4 -47.65 -14.35 -47.8 -14.3 -48.0 -14.25 -48.2 -14.1 -48.4 -13.9 -48.55 -13.55 -48.75 -13.35 -48.95 -13.2 -49.05 -12.95 -49.1 -12.9 -49.15 -12.1 -49.05 -11.1 -48.85 -10.15 -48.4 -10.4 -48.3 -10.7 -48.45 -11.05 -48.35 -11.65 -48.25 -12.8 -48.05 -13.0 -47.9 -13.1 -47.7 -13.15 -47.5 -13.3 -47.3 -13.35 -47.15 -13.35 -46.95 -13.35 -46.75 -13.35 -46.55 -13.3 -46.4 -13.0 -46.2 -12.15 -46.05 -11.6 -45.95 -11.3 -45.9 -9.2 -46.0 -8.85 -45.9 -8.7 -45.7 -8.6 -45.5 -8.55 -45.3 -8.5 -45.15 -8.55 -44.95 -8.6 -44.75 -8.8 -44.55 -9.75 -44.45 -11.3 -44.4 -11.8 -44.5 -12.05 -44.65 -13.4 -44.9 -14.2 -45.2 -14.5 -45.4 -14.7 -45.6 -14.75 -45.75 -14.75 -45.95 -14.75 -46.15 -14.7 -46.3 -14.7 -46.7 -14.7 -46.9 -14.7 -47.05 -14.7 -47.25" fill="#333333" fill-rule="evenodd" stroke="none"/>
    <path d="M11.6 -48.65 L13.45 -48.65 13.85 -48.5 14.1 -48.3 14.3 -48.15 14.35 -47.95 14.45 -47.75 14.55 -47.55 14.6 -47.4 14.6 -47.2 14.6 -47.0 14.6 -46.8 14.6 -46.45 14.55 -46.25 13.95 -45.6 12.15 -44.7 11.85 -44.65 10.8 -44.65 10.3 -44.75 10.1 -44.95 10.0 -45.15 10.0 -45.3 10.0 -45.5 10.05 -45.7 10.2 -45.85 10.35 -46.05 10.6 -46.25 11.05 -46.35 11.9 -46.5 12.4 -46.7 12.55 -46.9 12.65 -47.0 12.65 -47.05 11.6 -47.15 11.1 -47.25 10.85 -47.45 10.7 -47.65 10.65 -47.8 10.65 -48.0 10.75 -48.2 10.9 -48.35 11.1 -48.5 11.2 -48.55 11.6 -48.6 11.6 -48.65" fill="#333333" fill-rule="evenodd" stroke="none"/>
    <path d="M-5.4 -38.3 L-5.35 -38.2 -5.4 -38.1 -5.45 -38.0 -5.55 -37.95 -5.7 -37.95 -5.8 -38.0 -7.7 -38.0 -9.4 -37.95 -10.9 -37.95 -11.05 -38.0 -11.2 -38.1 -11.25 -38.2 -11.25 -38.3 -11.25 -38.4 -11.25 -38.5 -11.25 -38.6 -11.2 -38.7 -11.05 -38.75 -10.9 -38.85 -10.0 -38.85 -9.4 -38.85 -7.7 -38.8 -6.65 -38.75 -5.9 -38.75 -5.7 -38.7 -5.65 -38.6 -5.55 -38.5 -5.45 -38.4 -5.4 -38.3" fill="#333333" fill-rule="evenodd" stroke="none"/>
    <path d="M11.3 -38.7 L11.4 -38.5 11.4 -38.3 11.35 -38.15 11.2 -37.95 11.1 -37.8 10.85 -37.75 0.5 -38.15 0.4 -38.35 0.35 -38.5 9.95 -39.0 10.85 -39.0 11.15 -38.9 11.3 -38.7" fill="#333333" fill-rule="evenodd" stroke="none"/>
    <path d="M10.9 -34.7 L10.75 -34.5 10.55 -34.4 10.3 -34.35 -7.3 -34.3 -7.55 -34.25 -7.8 -34.2 -8.05 -34.15 -8.45 -34.25 -8.7 -34.4 -9.65 -34.45 -10.05 -34.55 -10.15 -34.75 -10.25 -34.95 -10.25 -35.15 -10.25 -35.3 -10.15 -35.5 -10.05 -35.7 -9.65 -35.8 -8.75 -35.8 -8.45 -35.75 -8.25 -35.7 -7.9 -35.7 -7.7 -35.75 -6.25 -36.0 0.8 -36.0 9.6 -36.0 10.3 -35.95 10.6 -35.8 10.85 -35.65 10.95 -35.45 11.0 -35.25 11.0 -35.05 10.95 -34.9 10.9 -34.7" fill="#333333" fill-rule="evenodd" stroke="none"/>
    <path d="M-12.25 -37.25 L-12.15 -37.45 -12.05 -37.65 -12.0 -37.8 -11.95 -38.0 -11.9 -38.2 -11.75 -38.4 -11.6 -38.55 -11.3 -38.75 -11.15 -38.95 -11.0 -39.05 -10.8 -39.1 -10.75 -39.15 -10.1 -39.05 -9.2 -38.85 -8.4 -38.4 -8.65 -38.3 -8.85 -38.45 -9.2 -38.35 -9.7 -38.25 -10.65 -38.05 -10.85 -37.9 -10.9 -37.7 -10.95 -37.5 -11.1 -37.3 -11.15 -37.15 -11.15 -36.95 -11.15 -36.75 -11.15 -36.55 -11.1 -36.4 -10.85 -36.2 -10.15 -36.05 -9.65 -35.95 -9.4 -35.9 -7.6 -36.0 -7.3 -35.9 -7.2 -35.7 -7.1 -35.5 -7.05 -35.3 -7.0 -35.15 -7.05 -34.95 -7.1 -34.75 -7.3 -34.55 -8.1 -34.45 -9.4 -34.4 -9.8 -34.5 -10.05 -34.65 -11.15 -34.9 -11.85 -35.2 -12.1 -35.4 -12.25 -35.6 -12.3 -35.75 -12.3 -35.95 -12.3 -36.15 -12.25 -36.3 -12.25 -36.7 -12.25 -36.9 -12.25 -37.05 -12.25 -37.25" fill="#333333" fill-rule="evenodd" stroke="none"/>
    <path d="M10.05 -38.65 L11.65 -38.65 11.95 -38.5 12.2 -38.3 12.35 -38.15 12.4 -37.95 12.5 -37.75 12.6 -37.55 12.65 -37.4 12.65 -37.2 12.65 -37.0 12.65 -36.8 12.65 -36.45 12.6 -36.25 12.05 -35.6 10.55 -34.7 10.3 -34.65 9.4 -34.65 9.0 -34.75 8.8 -34.95 8.7 -35.15 8.7 -35.3 8.7 -35.5 8.75 -35.7 8.9 -35.85 9.0 -36.05 9.2 -36.25 9.6 -36.35 10.35 -36.5 10.75 -36.7 10.9 -36.9 10.95 -37.0 10.95 -37.05 10.05 -37.15 9.65 -37.25 9.45 -37.45 9.3 -37.65 9.25 -37.8 9.25 -38.0 9.35 -38.2 9.5 -38.35 9.65 -38.5 9.75 -38.55 10.05 -38.6 10.05 -38.65" fill="#333333" fill-rule="evenodd" stroke="none"/>
    <path d="M12.1 -45.2 L12.25 -45.05 12.35 -44.8 12.45 -44.65 12.05 -42.75 11.4 -40.4 10.95 -38.65 10.8 -38.55 10.65 -38.4 10.5 -38.3 10.25 -38.15 9.8 -38.2 9.35 -38.4 9.15 -38.65 9.05 -38.85 9.05 -39.0 9.5 -41.05 10.1 -43.45 10.7 -45.1 10.75 -45.25 10.9 -45.4 11.2 -45.45 11.65 -45.45 11.75 -45.45 12.1 -45.2" fill="#333333" fill-rule="evenodd" stroke="none"/>
    <path d="M-9.5 -38.45 L-9.3 -38.65 -9.2 -38.85 -9.2 -39.05 -9.6 -40.95 -10.2 -43.3 -10.65 -45.05 -10.8 -45.1 -10.9 -45.3 -11.1 -45.4 -11.35 -45.5 -11.65 -45.55 -12.0 -45.35 -12.15 -45.15 -12.2 -44.95 -12.2 -44.75 -11.8 -42.75 -11.15 -40.4 -10.6 -38.7 -10.5 -38.5 -10.35 -38.4 -10.15 -38.3 -9.75 -38.35 -9.75 -38.3 -9.5 -38.45" fill="#333333" fill-rule="evenodd" stroke="none"/>
    <path d="M-9.3 -34.25 L-9.25 -34.35 -9.05 -34.5 -8.95 -34.7 -8.8 -34.85 -8.5 -34.85 -8.5 -34.9 -7.9 -34.85 -7.65 -34.75 -7.55 -34.65 -7.55 -34.5 -7.6 -34.35 -7.7 -34.25 -8.05 -34.15 -8.05 -33.95 -8.0 -33.85 -7.9 -33.7 -7.65 -25.05 -7.6 -15.8 -7.6 -6.55 -7.65 2.65 -7.6 11.95 -7.5 21.15 Q-7.5 24.05 -7.85 26.85 L-7.95 27.0 -8.1 27.2 -8.25 27.25 -8.5 27.35 -8.8 27.2 -9.05 27.05 -9.2 26.95 -9.2 26.8 -9.2 26.65 -9.25 26.5 -9.3 26.35 -9.4 17.7 -9.4 8.45 -9.35 -0.8 -9.35 -10.05 -9.35 -19.25 -9.25 -28.5 -9.05 -33.5 -9.1 -33.6 -9.15 -33.8 -9.25 -33.95 -9.3 -34.1 -9.3 -34.25" fill="#333333" fill-rule="evenodd" stroke="none"/>
    <path d="M6.8 -34.25 L6.85 -34.35 7.15 -34.5 7.3 -34.7 7.5 -34.85 7.95 -34.85 7.95 -34.9 8.8 -34.85 9.15 -34.75 9.3 -34.65 9.3 -34.5 9.2 -34.35 9.1 -34.25 8.6 -34.15 8.6 -33.95 8.65 -33.85 8.8 -33.7 9.15 -25.05 9.2 -15.8 9.2 -6.55 9.15 2.65 9.2 11.95 9.35 21.15 Q9.35 24.05 8.85 26.85 L8.7 27.0 8.5 27.2 8.3 27.25 7.95 27.35 7.5 27.2 7.15 27.05 6.95 26.95 6.95 26.8 6.95 26.65 6.85 26.5 6.8 26.35 6.65 17.7 6.65 8.45 6.7 -0.8 6.7 -10.05 6.7 -19.25 6.85 -28.5 Q6.85 -31.0 7.15 -33.5 L7.1 -33.6 7.0 -33.8 6.85 -33.95 6.8 -34.1 6.8 -34.25" fill="#333333" fill-rule="evenodd" stroke="none"/>
    <path d="M-12.25 52.6 L-11.95 52.7 -11.75 52.9 -11.6 53.1 -11.45 58.55 -11.35 64.35 -11.5 67.75 -11.55 67.9 -11.7 68.1 -11.8 68.25 -11.95 68.3 -12.25 68.35 -12.7 68.25 -12.85 68.05 -13.0 67.85 -13.2 62.4 -13.05 56.6 -12.95 53.2 -12.85 53.05 -12.75 52.85 -12.6 52.7 -12.5 52.7 -12.25 52.65 -12.25 52.6" fill="#333333" fill-rule="evenodd" stroke="none"/>
    <path d="M-9.5 66.95 L-1.0 67.0 2.5 67.0 3.0 67.1 3.25 67.3 3.35 67.5 3.45 67.65 3.75 67.9 3.8 68.05 3.75 68.2 3.45 68.4 3.35 68.6 3.25 68.8 3.0 69.0 2.5 69.1 Q-5.0 69.25 -12.45 68.75 L-12.6 68.55 -12.75 68.35 -12.8 68.15 -12.8 68.0 -12.8 67.8 -12.65 67.6 -12.3 67.3 -9.5 66.95" fill="#333333" fill-rule="evenodd" stroke="none"/>
    <path d="M0.2 68.35 L0.15 68.15 0.15 68.0 0.15 67.8 0.35 67.6 0.5 67.5 3.75 67.2 8.35 67.1 10.35 67.1 10.75 67.25 11.0 67.4 11.15 67.6 11.2 67.8 11.25 68.0 11.25 68.15 11.2 68.35 11.1 68.55 10.95 68.75 10.75 68.85 0.4 68.55 0.2 68.35" fill="#333333" fill-rule="evenodd" stroke="none"/>
    <path d="M12.1 52.3 L12.55 52.4 12.75 52.6 12.85 52.8 13.15 57.65 13.2 62.9 13.2 66.1 13.3 66.5 13.35 67.25 13.35 68.0 13.35 68.15 13.2 68.35 13.1 68.55 12.9 68.75 12.6 68.9 12.1 69.05 11.5 68.9 11.2 68.75 11.0 68.55 10.95 68.35 Q10.8 65.45 10.9 62.55 L11.05 56.55 11.25 52.95 11.25 52.8 11.4 52.6 11.55 52.4 12.05 52.3 12.1 52.3" fill="#333333" fill-rule="evenodd" stroke="none"/>
    <path d="M-8.35 20.75 Q-8.15 22.75 -8.1 24.85 -7.9 30.9 -8.4 36.75 L-9.05 40.7 -9.75 44.45 Q-10.35 48.6 -11.45 51.9 L-11.4 53.4 -12.25 54.55 -13.0 53.6 Q-13.25 51.4 -12.7 49.4 L-11.95 46.05 -10.8 40.5 Q-9.4 34.05 -9.4 27.5 -9.4 24.15 -9.05 20.95 -8.9 19.65 -8.45 20.35 L-8.35 20.75" fill="#333333" fill-rule="evenodd" stroke="none"/>
    <path d="M8.2 23.55 L8.4 20.75 8.5 20.35 Q8.95 19.65 9.1 20.95 9.45 24.15 9.45 27.5 9.45 34.05 10.85 40.5 L12.0 46.05 12.75 49.4 Q13.3 51.4 13.05 53.6 L12.3 54.55 12.0 54.15 11.7 54.55 10.85 53.4 10.85 51.9 Q9.7 48.6 9.05 44.45 L8.25 40.7 7.55 36.75 Q6.95 30.9 7.05 24.85 7.05 22.75 7.2 20.75 L7.3 20.35 Q7.75 19.65 7.9 20.95 L8.2 23.55" fill="#333333" fill-rule="evenodd" stroke="none"/>
    <path d="M8.35 -34.65 L8.7 -34.55 8.9 -34.35 9.0 -34.15 9.1 -33.95 9.05 -33.8 8.95 -33.6 8.9 -33.4 8.75 -33.3 Q2.35 -32.95 -4.1 -33.6 L-4.3 -33.8 -4.25 -33.95 -4.15 -34.15 -3.9 -34.3 8.1 -34.65 8.35 -34.65" fill="#333333" fill-rule="evenodd" stroke="none"/>
    <path d="M4.2 -50.85 L4.35 -51.05 4.6 -51.1 4.7 -51.1 4.95 -50.9 5.2 -50.7 5.4 -50.55 5.7 -50.35 5.8 -50.15 6.0 -49.8 6.25 -49.4 6.45 -49.05 6.7 -48.85 6.4 -48.8 5.9 -48.8 5.6 -48.95 5.4 -49.15 5.2 -49.35 5.1 -49.55 5.0 -49.7 4.85 -50.1 4.65 -50.3 4.45 -50.5 4.35 -50.65 4.2 -50.85" fill="#333333" fill-rule="evenodd" stroke="none"/>
    <path d="M6.45 -53.4 L7.5 -52.7 8.5 -51.95 9.65 -51.15 9.75 -51.0 9.85 -50.75 9.95 -50.6 9.95 -50.4 9.95 -50.3 9.85 -50.2 9.4 -50.3 8.7 -50.7 8.2 -51.0 7.85 -51.2 7.65 -51.4 7.45 -51.6 7.2 -51.75 6.85 -51.95 6.65 -52.15 6.45 -52.35 6.3 -52.55 6.15 -52.7 6.05 -52.9 5.95 -53.1 6.05 -53.25 6.15 -53.4 6.35 -53.4 6.45 -53.4" fill="#333333" fill-rule="evenodd" stroke="none"/>
    <path d="M8.65 -53.9 L8.75 -53.7 8.9 -53.55 9.0 -53.35 8.85 -53.2 8.55 -53.35 8.2 -53.55 7.85 -53.7 7.65 -53.9 7.6 -54.1 7.65 -54.3 7.65 -54.4 7.7 -54.45 7.85 -54.45 7.9 -54.45 8.0 -54.3 8.35 -54.1 8.65 -53.9" fill="#333333" fill-rule="evenodd" stroke="none"/>
    <path d="M9.5 -41.1 L8.85 -40.95 7.85 -40.9 7.5 -41.05 7.35 -41.25 7.35 -41.4 7.35 -41.55 7.5 -41.8 7.8 -41.85 7.85 -41.9 8.85 -41.9 9.15 -41.8 9.25 -41.6 9.4 -41.4 9.5 -41.2 9.5 -41.1" fill="#333333" fill-rule="evenodd" stroke="none"/>
    <path d="M11.85 52.75 L12.2 52.85 12.45 53.05 12.55 53.25 12.65 53.4 12.65 53.6 12.6 53.8 12.5 54.0 12.3 54.15 12.15 54.3 Q4.1 54.45 -3.9 54.1 L-4.8 54.0 -4.9 53.8 -5.0 53.6 -4.95 53.4 -4.9 53.25 -4.8 53.1 -4.65 53.05 6.35 52.75 11.85 52.75" fill="#333333" fill-rule="evenodd" stroke="none"/>
    <path d="M-8.9 63.1 L-8.65 63.25 -8.55 63.4 -8.5 63.6 -8.45 63.8 -8.5 64.0 -8.55 64.15 -8.65 64.35 -8.8 64.75 -9.0 65.3 -9.15 65.85 -9.25 66.05 -9.35 66.25 -9.55 66.6 -9.8 67.0 -9.85 67.1 -9.95 67.15 -10.25 67.25 -10.4 67.3 -10.55 67.25 -10.55 67.05 -10.6 66.85 -10.6 66.65 -10.55 66.5 -10.4 66.3 -10.4 66.1 -10.3 65.9 -10.15 65.55 -10.0 65.0 -9.8 64.4 -9.75 64.25 -9.6 64.05 -9.55 63.85 -9.4 63.65 -9.35 63.5 -9.3 63.3 -9.15 63.2 -8.95 63.15 -8.9 63.1" fill="#333333" fill-rule="evenodd" stroke="none"/>
    <path d="M-6.35 61.85 L-6.3 61.65 -6.3 61.5 -6.15 61.3 -5.9 61.25 -5.8 61.25 -5.6 61.4 -5.55 61.6 -5.55 61.8 -5.5 62.0 -5.5 62.15 -5.6 62.35 -5.75 62.75 -5.85 63.1 -6.0 63.5 -6.1 63.65 -6.25 63.85 -6.35 64.05 -6.55 64.6 -6.75 65.15 -6.9 65.75 -7.0 65.9 -7.1 66.1 -7.15 66.3 -7.2 66.5 -7.25 66.65 -7.3 66.85 -7.45 66.95 -7.65 67.05 -8.0 66.9 -8.15 66.75 -8.15 66.55 -8.2 66.35 -8.2 66.15 -8.25 66.0 -8.15 65.8 -8.1 65.6 -8.0 65.4 -7.85 65.05 -7.65 64.5 -7.5 63.9 -7.4 63.75 -7.1 63.35 -6.85 63.0 -6.8 62.8 -6.75 62.6 -6.65 62.4 -6.55 62.25 -6.4 62.05 -6.35 61.85" fill="#333333" fill-rule="evenodd" stroke="none"/>
    <path d="M-4.1 64.75 L-4.0 64.9 -3.85 65.1 -3.8 65.3 -3.85 65.5 -3.9 65.65 -4.0 65.85 -4.0 66.05 -4.0 66.4 -4.0 66.8 -4.05 67.0 -4.1 67.15 -4.25 67.35 -4.25 67.55 -4.25 67.75 -4.3 67.9 -4.35 68.1 -4.35 68.3 -4.45 68.4 -4.85 68.55 -5.0 68.35 -5.0 68.2 -5.1 68.0 -5.1 67.8 -5.1 67.6 -5.1 67.4 -5.1 67.25 -5.05 67.05 -4.95 66.85 -4.85 66.65 -4.85 66.5 -4.85 66.3 -4.85 66.1 -4.85 65.9 -4.85 65.75 -4.8 65.55 -4.65 65.35 -4.65 65.15 -4.7 64.95 -4.75 64.8 -4.65 64.65 -4.4 64.55 -4.3 64.55 -4.1 64.75" fill="#333333" fill-rule="evenodd" stroke="none"/>
    <path d="M5.4 64.0 L5.5 64.15 5.7 64.55 5.9 64.9 5.95 65.1 6.0 65.3 6.1 65.5 6.15 65.65 6.2 65.85 6.35 66.05 6.4 66.25 6.45 66.4 6.5 66.6 6.45 66.8 6.45 67.0 6.45 67.15 6.4 67.35 6.35 67.4 5.9 67.35 5.7 67.15 5.7 67.0 5.7 66.8 5.6 66.6 5.5 66.4 5.4 66.25 5.35 66.05 5.25 65.85 5.2 65.65 5.15 65.5 5.1 65.3 4.85 64.95 4.55 64.55 4.1 64.15 3.95 64.0 4.2 63.95 5.1 63.9 5.1 63.85 5.4 64.0" fill="#333333" fill-rule="evenodd" stroke="none"/>
    <path d="M7.4 61.4 L7.6 61.6 7.75 61.8 8.15 62.15 8.5 62.55 8.6 62.7 8.85 63.1 9.2 63.5 9.5 63.85 9.6 64.05 9.5 64.2 9.4 64.4 9.1 64.55 8.75 64.4 8.6 64.25 8.4 64.05 8.2 63.85 8.0 63.65 7.85 63.5 7.75 63.3 7.65 63.1 7.3 62.75 6.95 62.35 6.75 62.15 6.45 61.95 6.25 61.75 6.15 61.6 6.15 61.4 6.25 61.25 6.55 61.15 6.6 61.1 6.95 61.25 7.4 61.4" fill="#333333" fill-rule="evenodd" stroke="none"/>
    <path d="M4.85 8.9 L5.2 9.05 5.45 9.2 5.7 9.35 6.85 9.5 7.7 9.75 8.65 10.05 8.8 10.2 8.95 10.4 9.0 10.6 9.05 10.75 8.95 10.95 8.9 11.1 8.85 11.15 8.6 11.2 8.35 11.15 8.25 11.1 7.85 11.0 7.45 10.9 7.2 10.8 7.1 10.7 6.85 10.65 5.6 10.55 5.2 10.4 4.9 10.2 4.65 10.05 4.4 9.85 4.3 9.65 4.25 9.45 4.3 9.3 4.4 9.1 4.6 8.95 4.8 8.95 4.85 8.9" fill="#333333" fill-rule="evenodd" stroke="none"/>
    <path d="M7.25 12.55 L7.35 12.7 7.25 12.9 7.15 13.1 6.85 13.2 5.85 13.2 5.4 13.1 4.35 13.0 3.6 12.9 3.25 12.8 3.15 12.6 3.15 12.4 3.2 12.25 3.35 12.1 3.6 12.05 4.35 12.0 4.35 11.95 5.1 11.95 5.5 12.05 6.85 12.2 7.15 12.35 7.25 12.55" fill="#333333" fill-rule="evenodd" stroke="none"/>
    <path d="M-8.15 40.5 Q-5.55 34.05 -5.55 27.5 -5.55 24.8 -5.1 22.2 L-4.9 24.85 Q-4.55 30.9 -5.45 36.75 -5.85 38.7 -6.65 40.7 L-7.95 44.45 Q-9.05 48.6 -11.1 51.9 L-11.0 53.4 -11.7 53.95 -12.2 53.6 Q-12.65 51.4 -11.65 49.4 -10.8 47.75 -10.25 46.05 L-8.15 40.5" fill="#333333" fill-rule="evenodd" stroke="none"/>
    <path d="M4.35 20.75 L4.4 20.95 Q5.2 24.15 5.2 27.5 5.2 34.05 8.2 40.5 L10.65 46.05 Q11.3 47.75 12.3 49.4 13.5 51.4 12.95 53.6 L12.75 53.75 12.2 53.4 12.2 51.9 Q9.7 48.6 8.3 44.45 L6.6 40.7 Q5.6 38.7 5.1 36.75 3.8 30.9 4.0 24.85 4.0 22.75 4.35 20.75" fill="#333333" fill-rule="evenodd" stroke="none"/>
  </g>
</svg>
