<?xml version="1.0" encoding="UTF-8" standalone="no"?>
<svg xmlns:xlink="http://www.w3.org/1999/xlink" height="104.55px" width="25.35px" xmlns="http://www.w3.org/2000/svg">
  <g transform="matrix(1.0, 0.0, 0.0, 1.0, 12.65, 52.25)">
    <path d="M-8.55 -51.15 L-8.2 -51.5 8.15 -51.5 8.65 -50.95 9.65 -49.85 10.55 -48.95 10.65 -48.75 10.65 -26.8 10.25 -26.4 8.85 -24.85 8.0 -23.8 8.0 -23.7 8.0 -23.6 7.95 -23.5 7.85 -23.4 7.85 -23.3 7.85 -23.15 7.95 -23.05 7.95 -22.95 7.95 -22.85 8.0 -22.75 7.85 -22.7 7.85 -22.6 7.8 -22.5 7.8 -22.4 7.8 -22.05 7.8 -16.05 7.8 -10.05 7.8 -4.05 7.8 1.95 7.8 7.95 7.8 13.9 7.8 19.9 7.8 25.95 7.8 31.95 7.8 37.4 7.8 37.5 7.85 37.6 7.85 37.7 8.0 37.8 8.0 37.85 8.1 37.95 8.2 38.05 8.8 38.25 8.85 38.25 8.85 38.3 9.0 38.5 9.3 38.85 9.55 39.1 9.95 39.4 10.05 39.55 10.1 39.6 10.2 39.7 10.3 39.8 10.45 39.9 10.65 39.95 10.65 50.1 -11.6 50.1 -11.6 40.5 -11.4 40.5 -11.05 40.45 -10.95 40.4 -10.3 39.95 -10.1 39.7 -10.0 39.5 -10.0 39.35 -10.0 39.25 -9.95 39.15 -9.95 39.05 -9.95 39.0 -9.95 38.9 -9.9 38.85 -9.9 38.75 -9.9 38.65 -9.9 38.55 -9.9 38.45 -9.9 38.35 -9.95 38.3 -9.95 38.2 -10.05 38.1 -9.95 38.0 -9.5 37.45 -9.35 37.45 -9.2 37.5 -9.05 37.45 -8.85 37.45 -8.75 37.35 -8.6 37.3 -8.5 37.2 -8.45 37.1 -8.35 37.0 -8.3 36.9 -8.3 36.8 -8.25 36.7 -8.2 36.6 -8.2 36.35 -8.2 30.35 -8.2 24.35 -8.2 18.35 -8.2 12.35 -8.2 6.35 -8.2 0.35 -8.2 -5.65 -8.2 -11.7 -8.2 -17.7 -8.3 -23.1 -8.35 -23.2 -8.45 -23.35 -8.55 -23.45 -8.65 -23.55 -8.8 -23.65 -9.05 -23.7 -9.05 -23.8 -9.1 -23.9 -9.15 -23.95 -9.15 -24.1 -9.15 -24.2 -9.15 -24.3 -9.15 -24.4 -9.15 -24.5 -9.15 -24.6 -9.15 -24.65 -9.2 -24.7 -9.2 -24.8 -9.25 -24.9 -9.25 -25.0 -9.3 -25.1 -9.35 -25.2 -9.45 -25.35 -9.55 -25.45 -9.65 -25.55 -9.8 -25.65 -10.05 -25.7 -10.15 -25.75 -10.2 -25.8 -10.55 -26.3 -11.15 -27.0 -11.6 -27.25 -11.6 -48.35 -10.75 -48.95 -9.35 -50.25 -8.55 -51.15" fill="#c9a269" fill-rule="evenodd" stroke="none"/>
    <path d="M12.25 -42.8 L11.5 -41.65 9.05 -41.05 Q6.1 -39.65 2.85 -40.3 L1.45 -42.55 1.95 -44.4 Q7.9 -47.35 12.25 -42.8" fill="#9891a2" fill-opacity="0.3019608" fill-rule="evenodd" stroke="none"/>
    <path d="M-5.3 -44.7 Q-3.75 -44.7 -2.65 -44.1 -1.55 -43.55 -1.55 -42.75 -1.55 -41.95 -2.65 -41.35 -3.75 -40.8 -5.3 -40.8 -6.85 -40.8 -7.95 -41.35 -9.05 -41.95 -9.05 -42.75 -9.05 -43.55 -7.95 -44.1 -6.85 -44.7 -5.3 -44.7" fill="#9891a2" fill-opacity="0.3019608" fill-rule="evenodd" stroke="none"/>
    <path d="M-6.4 -34.75 L-7.75 -35.65 -7.8 -36.4 -5.3 -37.65 -1.65 -37.3 -1.25 -36.55 -1.55 -35.55 -3.05 -34.65 -3.4 -33.55 -4.3 -33.15 -5.05 -33.4 -6.4 -34.75" fill="#9891a2" fill-opacity="0.3019608" fill-rule="evenodd" stroke="none"/>
    <path d="M-1.55 -30.65 L-1.65 -30.15 -1.85 -29.65 -7.55 -29.4 -8.1 -30.05 -9.9 -30.65 -10.3 -31.4 -9.9 -32.15 -3.65 -32.4 -1.55 -30.65" fill="#9891a2" fill-opacity="0.3019608" fill-rule="evenodd" stroke="none"/>
    <path d="M7.95 -38.55 L8.4 -37.6 8.6 -36.45 6.35 -34.55 5.95 -33.55 Q3.3 -32.9 0.9 -34.0 L0.55 -34.5 0.7 -34.9 1.8 -35.8 1.95 -37.3 5.2 -37.9 5.45 -38.3 6.5 -38.7 7.95 -38.55" fill="#9891a2" fill-opacity="0.3019608" fill-rule="evenodd" stroke="none"/>
    <path d="M6.95 -32.55 L7.3 -32.2 7.35 -31.05 7.05 -30.75 Q5.0 -28.7 2.05 -29.0 L1.05 -29.2 -0.05 -29.55 -1.1 -31.75 -0.65 -32.55 6.95 -32.55" fill="#9891a2" fill-opacity="0.3019608" fill-rule="evenodd" stroke="none"/>
    <path d="M-1.8 -50.3 L-1.15 -51.65 0.8 -52.15 Q8.25 -53.05 9.75 -45.65 L9.3 -44.55 10.25 -43.05 8.45 -39.5 7.85 -39.3 7.4 -38.4 6.9 -36.75 6.85 -35.6 8.3 -37.55 9.3 -38.5 9.65 -38.25 Q11.8 -35.9 10.75 -32.45 9.95 -29.9 7.45 -29.65 6.6 -28.9 5.9 -29.1 -0.65 -30.05 1.35 -38.8 -0.15 -39.3 -0.95 -40.55 -2.75 -43.3 -1.15 -46.15 L2.45 -46.4 3.7 -47.4 2.65 -47.95 -1.15 -49.15 -1.8 -50.3" fill="#9891a2" fill-opacity="0.3019608" fill-rule="evenodd" stroke="none"/>
    <path d="M-11.25 -48.15 L-10.55 -49.0 Q-7.6 -52.15 -3.55 -50.1 L-3.9 -48.15 -4.8 -47.7 -4.75 -46.9 Q-4.7 -45.65 -3.75 -44.8 L-4.15 -44.05 -5.65 -43.6 -8.3 -44.05 -6.55 -41.05 -6.65 -40.0 -8.55 -39.9 -11.3 -43.3 -11.25 -48.15" fill="#9891a2" fill-opacity="0.3019608" fill-rule="evenodd" stroke="none"/>
    <path d="M-9.4 42.75 L-9.5 41.7 Q1.9 39.25 12.7 42.95 12.8 45.5 10.4 46.4 L9.85 46.65 8.55 46.8 7.8 46.7 7.5 46.65 6.7 45.85 -2.15 45.85 -2.8 45.1 -2.8 43.8 -9.4 42.75" fill="#9891a2" fill-opacity="0.3019608" fill-rule="evenodd" stroke="none"/>
    <path d="M-8.3 44.5 L-8.9 44.25 -9.3 43.1 -8.9 42.35 Q-4.15 40.4 0.95 40.0 6.35 39.5 10.85 41.7 L10.85 42.5 9.1 45.1 2.95 46.0 1.85 47.75 -5.65 47.0 -6.3 46.25 -6.05 44.1 -8.3 44.5" fill="#9891a2" fill-opacity="0.3019608" fill-rule="evenodd" stroke="none"/>
    <path d="M6.2 10.35 L7.1 10.6 Q9.85 21.55 4.9 31.95 9.8 35.1 7.35 39.75 L-0.15 39.35 -1.4 39.85 Q-2.5 40.2 -3.55 39.6 L-4.05 38.45 -2.2 36.95 Q-3.25 29.35 0.95 23.7 -0.9 18.8 3.45 16.2 L3.45 15.25 Q3.55 12.0 6.2 10.35" fill="#9891a2" fill-opacity="0.3019608" fill-rule="evenodd" stroke="none"/>
    <path d="M3.9 34.6 L3.8 33.8 2.55 34.05 Q2.2 34.0 1.95 34.25 L1.45 34.95 3.9 34.6 M-2.15 24.3 Q-1.65 21.1 1.6 21.65 L6.6 22.1 7.5 24.05 Q4.6 28.25 6.45 32.95 L4.5 34.1 7.75 34.5 Q9.75 35.05 9.8 37.15 9.9 39.95 7.7 41.4 L7.2 41.2 Q6.2 40.7 5.65 39.55 1.4 38.85 -2.8 39.5 L-4.55 38.45 -4.65 36.2 -2.2 32.95 Q-3.6 32.2 -3.55 30.6 L-2.65 29.45 -2.15 24.3" fill="#9891a2" fill-opacity="0.3019608" fill-rule="evenodd" stroke="none"/>
    <path d="M-7.8 -12.4 L-7.15 -12.05 Q-6.1 -11.25 -6.3 -9.9 L-4.95 -9.9 Q-4.5 -9.75 -4.15 -9.4 -2.6 -8.0 -3.8 -6.3 L-3.75 -4.65 -2.05 -4.15 Q-0.95 0.55 -3.4 4.85 -3.2 6.25 -3.35 7.75 -3.75 11.95 -6.85 13.35 -8.15 12.7 -8.1 11.2 -8.0 8.65 -6.7 6.1 L-7.65 5.7 -8.15 4.95 -8.05 -2.45 -8.8 -3.3 Q-9.45 -7.65 -8.9 -11.85 L-7.8 -12.4" fill="#9891a2" fill-opacity="0.3019608" fill-rule="evenodd" stroke="none"/>
    <path d="M-3.4 -12.9 L-2.8 -13.05 -1.4 -12.2 -0.8 -11.45 Q-0.3 -10.5 -0.2 -9.6 L-1.55 -8.15 -0.15 -6.0 Q1.75 -2.9 0.1 0.4 2.3 3.7 -0.3 6.4 -1.95 8.15 -4.1 8.2 L-5.8 6.4 -6.25 6.3 -6.65 6.05 -7.25 5.5 -7.4 5.15 -7.0 3.05 Q-9.75 -5.35 -3.4 -12.9" fill="#9891a2" fill-opacity="0.3019608" fill-rule="evenodd" stroke="none"/>
    <path d="M-8.15 21.85 L-9.9 19.2 -8.55 17.65 Q-7.1 16.5 -5.3 16.1 -3.9 17.1 -4.05 18.55 -4.35 22.1 -8.15 21.85" fill="#9891a2" fill-opacity="0.3019608" fill-rule="evenodd" stroke="none"/>
    <path d="M-9.15 35.45 L-8.6 34.75 Q-3.75 33.2 1.35 33.2 L0.2 32.1 0.15 30.95 Q0.15 28.8 1.6 27.35 L2.45 27.15 4.0 27.2 Q4.85 27.35 5.35 28.2 L4.7 30.85 6.8 33.1 6.1 34.45 Q5.45 34.75 4.9 35.2 L-0.7 38.65 -1.9 37.2 Q-5.35 37.85 -8.55 36.6 L-9.15 35.45" fill="#9891a2" fill-opacity="0.3019608" fill-rule="evenodd" stroke="none"/>
    <path d="M6.25 -18.3 L6.45 -17.8 5.85 -16.8 4.15 -16.05 5.95 -15.05 6.3 -14.2 6.45 -13.5 6.45 -12.7 6.35 -12.0 6.1 -11.3 Q6.8 -10.1 6.45 -8.85 6.15 -7.65 5.15 -7.25 L2.35 -7.15 1.7 -7.9 2.05 -10.5 1.45 -11.3 1.45 -17.65 2.7 -19.05 6.25 -18.3" fill="#9891a2" fill-opacity="0.3019608" fill-rule="evenodd" stroke="none"/>
    <path d="M10.6 -38.8 Q13.05 -34.6 10.6 -29.7 L12.15 -27.75 11.15 -25.25 Q4.85 -23.05 1.35 -27.35 1.1 -27.65 1.1 -28.1 L-0.75 -29.65 Q-1.6 -39.45 0.9 -48.75 10.95 -52.45 10.75 -40.85 L10.6 -38.8" fill="#663333" fill-opacity="0.2" fill-rule="evenodd" stroke="none"/>
    <path d="M8.0 -25.0 L-8.35 -25.75 -8.55 -26.85 -7.5 -27.25 Q0.1 -29.1 8.0 -28.0 L8.45 -27.45 8.65 -26.95 8.7 -26.4 Q8.75 -25.75 8.3 -25.45 L8.0 -25.0" fill="#663333" fill-opacity="0.2" fill-rule="evenodd" stroke="none"/>
    <path d="M-7.6 -22.5 L-8.1 -23.65 -7.35 -24.65 7.0 -25.0 7.8 -23.65 7.0 -22.0 -6.85 -22.25 -7.6 -22.5" fill="#663333" fill-opacity="0.2" fill-rule="evenodd" stroke="none"/>
    <path d="M5.7 -44.25 L8.0 -43.85 Q8.9 -43.5 8.9 -43.0 8.9 -42.5 8.0 -42.1 7.05 -41.75 5.7 -41.75 L3.45 -42.1 Q2.5 -42.5 2.5 -43.0 2.5 -43.5 3.45 -43.85 L5.7 -44.25" fill="#663333" fill-opacity="0.2" fill-rule="evenodd" stroke="none"/>
    <path d="M10.15 -37.55 Q10.15 -36.75 9.0 -36.2 7.85 -35.65 6.2 -35.65 4.55 -35.65 3.4 -36.2 2.25 -36.75 2.25 -37.55 2.25 -38.35 3.4 -38.9 L6.2 -39.45 Q7.85 -39.45 9.0 -38.9 10.15 -38.35 10.15 -37.55" fill="#663333" fill-opacity="0.2" fill-rule="evenodd" stroke="none"/>
    <path d="M4.6 -32.7 L6.8 -32.3 Q7.7 -31.9 7.7 -31.35 7.7 -30.8 6.8 -30.4 L4.6 -30.0 2.4 -30.4 Q1.5 -30.8 1.5 -31.35 1.5 -31.9 2.4 -32.3 L4.6 -32.7" fill="#663333" fill-opacity="0.2" fill-rule="evenodd" stroke="none"/>
    <path d="M-3.35 -44.3 Q-2.3 -43.9 -2.3 -43.3 -2.3 -42.7 -3.35 -42.3 L-5.9 -41.9 -8.45 -42.3 Q-9.5 -42.7 -9.5 -43.3 -9.5 -43.9 -8.45 -44.3 L-5.9 -44.7 -3.35 -44.3" fill="#663333" fill-opacity="0.2" fill-rule="evenodd" stroke="none"/>
    <path d="M-0.85 -37.8 Q-0.85 -37.2 -2.1 -36.8 L-5.1 -36.4 -8.1 -36.8 Q-9.35 -37.2 -9.35 -37.8 -9.35 -38.4 -8.1 -38.8 L-5.1 -39.2 -2.1 -38.8 Q-0.85 -38.4 -0.85 -37.8" fill="#663333" fill-opacity="0.2" fill-rule="evenodd" stroke="none"/>
    <path d="M-4.6 -33.25 L-1.75 -32.85 Q-0.6 -32.5 -0.6 -32.0 -0.6 -31.5 -1.75 -31.1 L-4.6 -30.75 -7.4 -31.1 Q-8.6 -31.5 -8.6 -32.0 -8.6 -32.5 -7.4 -32.85 L-4.6 -33.25" fill="#663333" fill-opacity="0.2" fill-rule="evenodd" stroke="none"/>
    <path d="M4.35 -45.6 L6.0 -45.0 6.7 -43.15 Q7.2 -41.5 6.4 -39.9 L5.4 -38.25 Q7.55 -33.15 4.55 -29.25 3.05 -27.3 1.0 -26.1 -7.75 -30.7 -5.65 -42.7 -5.1 -45.75 -2.75 -48.15 L2.4 -48.15 4.35 -45.6 M-0.6 -39.5 L0.7 -40.05 -0.3 -40.0 -0.6 -39.5" fill="#663333" fill-opacity="0.2" fill-rule="evenodd" stroke="none"/>
    <path d="M-9.15 39.15 Q-0.05 36.4 7.25 39.4 L7.3 39.5 -8.4 40.0 -9.15 39.15" fill="#663333" fill-opacity="0.2" fill-rule="evenodd" stroke="none"/>
    <path d="M7.9 -21.25 Q9.4 0.5 11.2 22.1 11.75 28.9 8.4 32.8 1.6 40.75 -0.35 31.55 -2.5 21.1 -1.85 10.65 L0.05 -17.4 0.9 -26.75 Q7.25 -30.6 7.9 -21.25" fill="#663333" fill-opacity="0.2" fill-rule="evenodd" stroke="none"/>
    <path d="M1.15 -25.75 L4.9 -24.75 Q6.55 -22.35 5.85 -19.4 5.15 -16.2 3.25 -13.5 3.75 7.45 2.55 28.3 L4.5 30.75 4.05 32.3 Q3.7 35.4 3.65 38.6 14.05 45.85 1.05 48.85 -7.65 50.95 -4.05 44.2 L-2.1 41.25 -2.45 40.85 -2.75 40.3 Q-3.7 38.4 -2.1 37.1 L-4.75 35.5 -4.75 33.6 -5.6 32.85 Q-2.25 7.3 -3.9 -18.15 -4.1 -21.1 -2.25 -23.4 L1.15 -25.75" fill="#663333" fill-opacity="0.2" fill-rule="evenodd" stroke="none"/>
    <path d="M11.5 42.0 Q13.4 44.2 11.3 46.3 L9.9 47.6 9.65 48.75 Q9.1 50.4 7.15 50.5 L6.25 51.5 Q-2.75 51.9 -6.25 45.35 L-7.75 43.85 -5.0 41.0 8.4 41.5 11.5 42.0" fill="#663333" fill-opacity="0.2" fill-rule="evenodd" stroke="none"/>
    <path d="M-9.85 -50.75 L6.0 -50.5 6.85 -49.0 6.0 -47.5 -10.35 -47.35 -11.15 -47.85 -11.5 -49.75 -9.85 -50.75" fill="#ffffff" fill-opacity="0.2" fill-rule="evenodd" stroke="none"/>
    <path d="M-4.85 -50.95 Q-3.9 -50.95 -3.2 -50.3 -2.55 -49.65 -2.55 -48.7 -2.55 -47.75 -3.2 -47.1 -3.9 -46.45 -4.85 -46.45 -5.8 -46.45 -6.45 -47.1 -7.15 -47.75 -7.15 -48.7 -7.15 -49.65 -6.45 -50.3 -5.8 -50.95 -4.85 -50.95" fill="#ffffff" fill-opacity="0.2" fill-rule="evenodd" stroke="none"/>
    <path d="M-8.85 -48.4 L-7.35 -47.5 -8.6 -45.65 -7.6 -44.5 -7.55 -27.65 -8.25 -27.0 -10.1 -27.5 -10.4 -43.2 -11.75 -44.75 -8.85 -48.4" fill="#ffffff" fill-opacity="0.2" fill-rule="evenodd" stroke="none"/>
    <path d="M-6.75 -22.4 L-6.25 -21.65 Q-5.05 9.15 -6.8 39.85 L-7.1 40.7 -8.5 40.1 Q-9.55 9.0 -8.35 -22.1 L-7.35 -22.65 -6.75 -22.4" fill="#ffffff" fill-opacity="0.2" fill-rule="evenodd" stroke="none"/>
    <path d="M-11.95 38.75 L-4.85 37.0 -3.85 38.0 -4.6 39.1 -12.1 39.85 -11.95 38.75" fill="#ffffff" fill-opacity="0.2" fill-rule="evenodd" stroke="none"/>
    <path d="M-11.3 42.3 L-10.85 40.7 -0.25 41.25 -0.25 42.7 -11.0 42.75 -11.3 42.3" fill="#ffffff" fill-opacity="0.2" fill-rule="evenodd" stroke="none"/>
    <path d="M-11.1 41.6 L-10.35 41.35 -9.75 41.6 Q-7.3 46.7 -9.35 52.1 L-11.0 51.6 -11.5 42.6 -11.1 41.6" fill="#ffffff" fill-opacity="0.2" fill-rule="evenodd" stroke="none"/>
    <path d="M-7.75 -23.5 L-7.65 -14.5 -7.6 -9.5 -7.6 -5.5 -7.6 -3.5 -7.6 -0.8 -7.55 23.25 -7.6 37.45 -9.6 37.45 -9.4 16.95 -9.25 1.8 -9.3 -3.5 -9.2 -6.7 -9.05 -10.5 -9.2 -15.5 Q-9.4 -19.0 -9.25 -23.5 L-9.25 -24.5 -9.0 -24.7 -8.55 -24.8 -8.5 -24.9 -7.95 -24.55 -7.75 -24.25 -7.75 -23.5 M-9.85 40.35 L-8.35 40.35 -8.35 40.6 -8.6 41.0 -9.5 41.1 -9.8 40.7 -9.85 40.35 M6.95 -24.65 L7.6 -24.9 8.3 -24.25 8.35 -15.85 Q8.25 -9.55 8.45 4.85 L8.9 37.45 6.45 37.45 6.35 32.15 6.2 5.3 Q6.25 -9.7 6.95 -24.65 M8.65 40.6 L8.15 40.75 7.4 40.5 7.25 40.35 9.0 40.35 8.85 40.45 8.65 40.6" fill="#333333" fill-rule="evenodd" stroke="none"/>
    <path d="M-11.35 51.95 L-12.0 51.75 -12.3 51.3 -12.35 51.0 -12.3 50.65 -12.0 50.25 -11.35 50.0 -10.85 49.85 2.15 49.65 2.15 49.6 5.15 49.65 7.15 49.7 11.15 49.85 11.75 50.1 12.0 50.5 12.15 50.9 12.15 51.25 12.0 51.6 11.85 51.85 11.65 52.0 11.15 52.1 5.15 52.25 Q-2.85 52.35 -10.85 52.1 L-11.35 51.95" fill="#333333" fill-rule="evenodd" stroke="none"/>
    <path d="M11.65 40.0 L12.25 40.25 12.5 40.6 12.65 41.0 12.5 41.35 12.25 41.75 11.65 42.0 Q4.2 42.15 -3.25 41.6 L-4.0 41.25 -5.1 41.25 -6.1 41.35 -6.6 41.0 -7.25 40.6 -7.05 40.35 -6.6 40.25 -5.85 40.35 -5.0 40.15 -4.35 40.0 -4.0 40.0 -3.25 40.25 6.65 40.0 11.65 40.0" fill="#333333" fill-rule="evenodd" stroke="none"/>
    <path d="M11.9 41.35 L12.25 41.75 12.3 42.1 12.15 42.5 12.1 44.75 Q12.05 46.1 12.15 47.35 L12.25 50.0 12.1 50.35 11.9 50.75 11.6 50.95 11.15 51.1 10.4 50.85 10.15 50.5 Q9.95 49.2 10.05 47.85 L10.1 44.5 Q10.0 42.95 10.4 41.5 L10.65 41.3 11.1 41.2 11.15 41.1 11.9 41.35" fill="#333333" fill-rule="evenodd" stroke="none"/>
    <path d="M-11.25 41.25 Q-11.0 42.9 -11.05 44.6 L-11.15 48.35 -11.25 50.6 -11.05 50.95 -10.85 51.4 -10.85 51.75 -11.0 51.95 -11.35 52.05 -12.25 52.0 -12.5 51.6 -12.6 47.85 -12.65 43.75 -12.5 41.1 -12.2 40.95 -11.85 40.85 -11.6 40.85 -11.25 41.25" fill="#333333" fill-rule="evenodd" stroke="none"/>
    <path d="M-8.3 39.75 L-8.1 39.95 -7.9 40.15 -7.8 40.3 -7.65 40.5 -7.6 40.7 -7.65 40.85 -7.7 41.05 -7.8 41.25 -7.9 41.4 -8.05 41.45 -8.35 41.5 -8.85 41.5 -9.3 41.4 -10.4 41.4 -10.85 41.5 -11.2 41.55 -11.4 41.75 -11.55 41.85 -11.85 41.95 -12.3 41.8 -12.4 41.65 -12.55 41.45 -12.55 41.25 -12.55 41.05 -12.55 40.9 -12.45 40.7 -12.35 40.5 -12.2 40.3 -12.1 40.15 -11.95 40.0 -11.85 39.95 -11.6 39.85 -11.2 39.75 -10.85 39.65 -8.6 39.65 -8.3 39.75" fill="#333333" fill-rule="evenodd" stroke="none"/>
    <path d="M8.8 -24.25 L8.8 -24.05 8.8 -23.9 8.8 -23.7 8.65 -23.5 8.55 -23.3 8.35 -23.2 Q-0.2 -22.95 -8.85 -23.2 L-9.3 -23.3 -9.45 -23.5 -9.6 -23.7 -9.65 -23.85 -9.65 -24.05 -9.65 -24.25 -9.5 -24.4 -9.15 -24.75 5.4 -24.95 7.9 -24.95 8.35 -24.8 8.6 -24.6 8.7 -24.45 8.8 -24.25" fill="#333333" fill-rule="evenodd" stroke="none"/>
    <path d="M-11.55 -46.8 L-11.35 -46.65 -11.25 -46.55 -11.15 -46.4 -10.9 -39.85 -10.75 -33.15 -10.85 -29.3 -10.9 -29.15 -11.05 -29.0 -11.2 -28.8 -11.6 -28.75 -12.05 -28.8 -12.2 -29.0 -12.35 -29.15 -12.35 -35.5 Q-12.2 -38.85 -12.2 -42.25 L-12.1 -46.05 -12.15 -46.25 -12.2 -46.4 -12.3 -46.55 -12.25 -46.65 -12.15 -46.8 -11.85 -46.9 -11.85 -46.95 -11.55 -46.8" fill="#333333" fill-rule="evenodd" stroke="none"/>
    <path d="M11.0 -46.75 L11.3 -46.6 11.5 -46.45 11.7 -46.25 11.7 -46.15 11.7 -46.0 11.7 -45.85 11.7 -45.7 11.6 -45.55 11.45 -45.4 11.6 -39.6 Q11.6 -36.55 11.75 -33.5 L11.7 -29.95 11.6 -29.75 11.45 -29.6 11.15 -29.5 10.65 -29.4 10.1 -29.5 9.8 -29.65 9.65 -29.75 Q9.45 -32.65 9.6 -35.55 L9.8 -41.65 9.8 -45.4 9.85 -45.55 10.0 -45.7 9.85 -45.85 9.75 -46.0 9.7 -46.15 9.7 -46.25 9.75 -46.45 10.0 -46.6 10.25 -46.75 10.65 -46.8 11.0 -46.75" fill="#333333" fill-rule="evenodd" stroke="none"/>
    <path d="M-8.8 -51.0 L-8.95 -51.25 -8.95 -51.4 -8.95 -51.55 -8.8 -51.75 -8.55 -51.9 -7.7 -51.95 -6.85 -52.0 -1.15 -52.15 5.0 -52.15 7.95 -52.1 8.3 -51.95 8.4 -51.75 8.5 -51.6 8.5 -51.4 8.5 -51.2 8.4 -51.0 8.3 -50.85 7.95 -50.7 5.0 -50.65 Q-1.8 -50.55 -8.55 -50.9 L-8.8 -51.0" fill="#333333" fill-rule="evenodd" stroke="none"/>
    <path d="M10.95 -30.75 L11.65 -30.2 11.75 -29.25 Q11.65 -28.35 11.0 -27.25 L9.9 -25.6 Q9.4 -25.1 9.15 -24.4 8.85 -23.75 7.65 -23.6 L6.85 -24.1 6.9 -25.25 9.4 -28.45 Q9.25 -28.75 9.45 -29.2 L9.7 -29.8 Q10.0 -30.9 10.95 -30.75" fill="#333333" fill-rule="evenodd" stroke="none"/>
    <path d="M-7.2 -24.6 L-7.35 -23.15 -8.25 -23.1 -8.75 -23.35 -11.35 -26.1 -11.85 -27.5 Q-12.7 -28.95 -12.05 -30.45 L-11.6 -30.6 -11.1 -30.3 Q-10.9 -30.0 -10.95 -29.35 L-10.65 -28.2 Q-9.7 -26.45 -8.35 -25.2 L-7.2 -24.6" fill="#333333" fill-rule="evenodd" stroke="none"/>
    <path d="M10.7 -45.15 L11.4 -45.7 11.5 -46.6 Q11.4 -47.45 10.75 -48.5 L9.65 -50.1 Q9.15 -50.6 8.9 -51.25 8.6 -51.9 7.4 -52.05 L6.6 -51.55 6.65 -50.45 9.15 -47.35 Q9.0 -47.1 9.2 -46.65 L9.45 -46.05 Q9.75 -45.0 10.7 -45.15" fill="#333333" fill-rule="evenodd" stroke="none"/>
    <path d="M-7.1 -50.6 L-7.25 -51.9 -8.15 -51.95 -8.65 -51.7 -11.25 -49.25 -11.75 -47.95 Q-12.6 -46.65 -11.95 -45.3 L-11.5 -45.2 -11.0 -45.45 Q-10.8 -45.7 -10.85 -46.3 L-10.55 -47.35 Q-9.6 -48.9 -8.25 -50.05 L-7.1 -50.6" fill="#333333" fill-rule="evenodd" stroke="none"/>
    <path d="M-8.05 37.3 L-8.0 37.15 -7.9 36.95 -7.7 36.8 5.9 36.35 7.4 36.25 7.9 36.25 8.35 36.4 8.6 36.55 8.7 36.75 8.85 36.95 8.9 37.15 8.9 37.3 8.85 37.5 8.8 37.7 8.65 37.85 8.45 38.05 8.3 38.2 -7.7 37.7 -7.95 37.5 -8.05 37.3" fill="#333333" fill-rule="evenodd" stroke="none"/>
    <path d="M-2.05 -45.1 L-1.9 -44.9 -1.8 -44.7 -1.75 -39.65 -1.65 -34.2 -1.7 -31.0 -1.85 -30.85 -2.05 -30.65 -2.35 -30.5 -2.7 -30.65 -2.9 -30.85 Q-3.15 -33.45 -3.05 -36.1 L-2.9 -41.5 -2.9 -44.7 -2.85 -44.9 -2.7 -45.1 -2.35 -45.2 -2.05 -45.1" fill="#333333" fill-rule="evenodd" stroke="none"/>
    <path d="M-9.2 -45.35 L-4.2 -45.3 -2.95 -45.25 -2.65 -45.15 -2.45 -44.95 -2.35 -44.75 -2.3 -44.6 -2.4 -44.4 -2.5 -44.2 -2.7 -44.1 -2.95 -44.05 -9.2 -43.95 -9.65 -44.1 -9.75 -44.25 -9.85 -44.45 -9.9 -44.65 -9.85 -44.85 -9.75 -45.0 -9.65 -45.2 -9.2 -45.3 -9.2 -45.35" fill="#333333" fill-rule="evenodd" stroke="none"/>
    <path d="M-8.9 -45.2 L-8.75 -45.0 -8.65 -44.85 -8.75 -44.65 -8.85 -44.45 -8.9 -44.25 -8.9 -44.1 -8.85 -43.9 -8.8 -43.7 -8.8 -43.5 -8.8 -43.35 -8.8 -43.15 -8.85 -42.95 -9.0 -42.75 -9.3 -42.65 -9.6 -42.75 -9.8 -42.95 -9.8 -43.5 -9.75 -44.1 -9.6 -44.65 -9.55 -44.8 -9.3 -45.15 -9.25 -45.2 -8.9 -45.2" fill="#333333" fill-rule="evenodd" stroke="none"/>
    <path d="M-9.55 -44.85 L-9.35 -45.0 -9.05 -45.05 -6.05 -45.05 -3.3 -45.0 -2.8 -44.85 -2.3 -44.65 -2.0 -44.5 -1.9 -44.3 -1.85 -44.1 -1.8 -43.95 -1.85 -43.75 -2.0 -43.55 -2.15 -43.35 -2.55 -43.25 -3.05 -43.35 -6.05 -43.4 -9.05 -43.45 -9.5 -43.55 -9.65 -43.75 -9.8 -43.95 -9.85 -44.1 -9.85 -44.3 -9.85 -44.5 -9.75 -44.7 -9.55 -44.85" fill="#333333" fill-rule="evenodd" stroke="none"/>
    <path d="M-9.2 -39.35 L-4.2 -39.3 -2.95 -39.25 -2.65 -39.15 -2.45 -38.95 -2.35 -38.75 -2.3 -38.6 -2.4 -38.4 -2.5 -38.2 -2.7 -38.1 -2.95 -38.05 -9.2 -37.95 -9.65 -38.1 -9.75 -38.25 -9.85 -38.45 -9.9 -38.65 -9.85 -38.85 -9.75 -39.0 -9.65 -39.2 -9.2 -39.3 -9.2 -39.35" fill="#333333" fill-rule="evenodd" stroke="none"/>
    <path d="M-8.9 -39.2 L-8.75 -39.0 -8.65 -38.85 -8.75 -38.65 -8.85 -38.45 -8.9 -38.25 -8.9 -38.1 -8.85 -37.9 -8.8 -37.7 -8.8 -37.5 -8.8 -37.35 -8.8 -37.15 -8.85 -36.95 -9.0 -36.75 -9.3 -36.65 -9.6 -36.75 -9.8 -36.95 -9.8 -37.5 -9.75 -38.1 -9.6 -38.65 -9.55 -38.8 -9.3 -39.15 -9.25 -39.2 -8.9 -39.2" fill="#333333" fill-rule="evenodd" stroke="none"/>
    <path d="M-9.55 -38.85 L-9.35 -39.0 -9.05 -39.05 -6.05 -39.05 -3.3 -39.0 -2.8 -38.85 -2.3 -38.65 -2.0 -38.5 -1.9 -38.3 -1.85 -38.1 -1.8 -37.95 -1.85 -37.75 -2.0 -37.55 -2.15 -37.35 -2.55 -37.25 -3.05 -37.35 -6.05 -37.4 -9.05 -37.45 -9.5 -37.55 -9.65 -37.75 -9.8 -37.95 -9.85 -38.1 -9.85 -38.3 -9.85 -38.5 -9.75 -38.7 -9.55 -38.85" fill="#333333" fill-rule="evenodd" stroke="none"/>
    <path d="M-9.2 -33.35 L-4.2 -33.3 -2.95 -33.25 -2.65 -33.15 -2.45 -32.95 -2.35 -32.75 -2.3 -32.6 -2.4 -32.4 -2.5 -32.2 -2.7 -32.1 -2.95 -32.05 -9.2 -31.95 -9.65 -32.1 -9.75 -32.25 -9.85 -32.45 -9.9 -32.65 -9.85 -32.85 -9.75 -33.0 -9.65 -33.2 -9.2 -33.3 -9.2 -33.35" fill="#333333" fill-rule="evenodd" stroke="none"/>
    <path d="M-9.55 -32.85 L-9.35 -33.0 -9.05 -33.05 -6.05 -33.05 -3.3 -33.0 -2.8 -32.85 -2.3 -32.65 -2.0 -32.5 -1.9 -32.3 -1.85 -32.1 -1.8 -31.95 -1.85 -31.75 -2.0 -31.55 -2.15 -31.35 -2.55 -31.25 -3.05 -31.35 -6.05 -31.4 -9.05 -31.45 -9.5 -31.55 -9.65 -31.75 -9.8 -31.95 -9.85 -32.1 -9.85 -32.3 -9.85 -32.5 -9.75 -32.7 -9.55 -32.85" fill="#333333" fill-rule="evenodd" stroke="none"/>
    <path d="M-8.9 -33.3 L-8.75 -33.1 -8.65 -32.95 -8.75 -32.75 -8.85 -32.55 -8.9 -32.35 -8.9 -32.2 -8.85 -32.0 -8.8 -31.8 -8.8 -31.6 -8.8 -31.45 -8.8 -31.25 -8.85 -31.05 -9.0 -30.85 -9.3 -30.75 -9.6 -30.85 -9.8 -31.05 -9.8 -31.6 -9.75 -32.2 -9.6 -32.75 -9.55 -32.9 -9.3 -33.25 -9.25 -33.3 -8.9 -33.3" fill="#333333" fill-rule="evenodd" stroke="none"/>
    <path d="M1.2 -45.1 L1.05 -44.9 0.95 -44.7 0.9 -39.65 0.8 -34.2 Q0.75 -32.6 0.85 -31.0 L1.0 -30.85 1.2 -30.65 1.5 -30.5 1.85 -30.65 2.05 -30.85 Q2.3 -33.45 2.2 -36.1 L2.05 -41.5 2.05 -44.7 2.0 -44.9 1.85 -45.1 Q1.7 -45.1 1.5 -45.2 L1.2 -45.1" fill="#333333" fill-rule="evenodd" stroke="none"/>
    <path d="M8.35 -45.35 L3.35 -45.3 2.1 -45.25 1.8 -45.15 1.6 -44.95 1.5 -44.75 1.45 -44.6 1.55 -44.4 1.65 -44.2 1.85 -44.1 2.1 -44.05 8.35 -43.95 8.8 -44.1 8.9 -44.25 9.0 -44.45 9.05 -44.65 9.0 -44.85 8.9 -45.0 8.8 -45.2 8.35 -45.3 8.35 -45.35" fill="#333333" fill-rule="evenodd" stroke="none"/>
    <path d="M8.05 -45.2 L7.9 -45.0 7.8 -44.85 7.9 -44.65 8.0 -44.45 8.05 -44.25 8.05 -44.1 8.0 -43.9 7.95 -43.7 7.95 -43.5 7.95 -43.35 7.95 -43.15 8.0 -42.95 8.15 -42.75 8.45 -42.65 8.75 -42.75 8.95 -42.95 8.95 -43.5 8.9 -44.1 8.75 -44.65 8.7 -44.8 8.45 -45.15 8.4 -45.2 8.05 -45.2" fill="#333333" fill-rule="evenodd" stroke="none"/>
    <path d="M8.7 -44.85 L8.5 -45.0 8.2 -45.05 5.2 -45.05 2.45 -45.0 1.95 -44.85 1.45 -44.65 1.15 -44.5 1.05 -44.3 1.0 -44.1 0.95 -43.95 1.0 -43.75 1.15 -43.55 1.3 -43.35 1.7 -43.25 2.2 -43.35 5.2 -43.4 8.2 -43.45 8.65 -43.55 8.8 -43.75 8.95 -43.95 9.0 -44.1 9.0 -44.3 9.0 -44.5 8.9 -44.7 8.7 -44.85" fill="#333333" fill-rule="evenodd" stroke="none"/>
    <path d="M8.35 -39.35 L3.35 -39.3 2.1 -39.25 1.8 -39.15 1.6 -38.95 1.5 -38.75 1.45 -38.6 1.55 -38.4 1.65 -38.2 1.85 -38.1 2.1 -38.05 8.35 -37.95 8.8 -38.1 8.9 -38.25 9.0 -38.45 9.05 -38.65 9.0 -38.85 8.9 -39.0 8.8 -39.2 8.35 -39.3 8.35 -39.35" fill="#333333" fill-rule="evenodd" stroke="none"/>
    <path d="M8.05 -39.2 L7.9 -39.0 7.8 -38.85 7.9 -38.65 8.0 -38.45 8.05 -38.25 8.05 -38.1 8.0 -37.9 7.95 -37.7 7.95 -37.5 7.95 -37.35 7.95 -37.15 8.0 -36.95 8.15 -36.75 8.45 -36.65 8.75 -36.75 8.95 -36.95 8.95 -37.5 8.9 -38.1 8.75 -38.65 8.7 -38.8 8.45 -39.15 8.4 -39.2 8.05 -39.2" fill="#333333" fill-rule="evenodd" stroke="none"/>
    <path d="M8.7 -38.85 L8.5 -39.0 8.2 -39.05 5.2 -39.05 2.45 -39.0 1.95 -38.85 1.45 -38.65 1.15 -38.5 1.05 -38.3 1.0 -38.1 0.95 -37.95 1.0 -37.75 1.15 -37.55 1.3 -37.35 1.7 -37.25 2.2 -37.35 5.2 -37.4 8.2 -37.45 8.65 -37.55 8.8 -37.75 8.95 -37.95 9.0 -38.1 9.0 -38.3 9.0 -38.5 8.9 -38.7 8.7 -38.85" fill="#333333" fill-rule="evenodd" stroke="none"/>
    <path d="M8.35 -33.35 L3.35 -33.3 2.1 -33.25 1.8 -33.15 1.6 -32.95 1.5 -32.75 1.45 -32.6 1.55 -32.4 1.65 -32.2 1.85 -32.1 2.1 -32.05 8.35 -31.95 8.8 -32.1 8.9 -32.25 9.0 -32.45 9.05 -32.65 9.0 -32.85 8.9 -33.0 8.8 -33.2 8.35 -33.3 8.35 -33.35" fill="#333333" fill-rule="evenodd" stroke="none"/>
    <path d="M8.7 -32.85 L8.5 -33.0 8.2 -33.05 5.2 -33.05 2.45 -33.0 1.95 -32.85 1.45 -32.65 1.15 -32.5 1.05 -32.3 1.0 -32.1 0.95 -31.95 1.0 -31.75 1.15 -31.55 1.3 -31.35 1.7 -31.25 2.2 -31.35 5.2 -31.4 8.2 -31.45 8.65 -31.55 8.8 -31.75 8.95 -31.95 9.0 -32.1 9.0 -32.3 9.0 -32.5 8.9 -32.7 8.7 -32.85" fill="#333333" fill-rule="evenodd" stroke="none"/>
    <path d="M8.05 -33.3 L7.9 -33.1 7.8 -32.95 7.9 -32.75 8.0 -32.55 8.05 -32.35 8.05 -32.2 8.0 -32.0 7.95 -31.8 7.95 -31.6 7.95 -31.45 7.95 -31.25 8.0 -31.05 8.15 -30.85 8.45 -30.75 8.75 -30.85 8.95 -31.05 8.95 -31.6 8.9 -32.2 8.75 -32.75 8.7 -32.9 8.45 -33.25 8.4 -33.3 8.05 -33.3" fill="#333333" fill-rule="evenodd" stroke="none"/>
    <path d="M-1.15 -27.7 L-1.15 -27.85 9.65 -28.45 10.65 -28.45 11.05 -28.3 11.2 -28.1 11.3 -27.95 11.3 -27.75 11.3 -27.55 11.2 -27.35 11.05 -27.2 10.65 -27.05 -1.05 -27.5 -1.15 -27.7" fill="#333333" fill-rule="evenodd" stroke="none"/>
    <path d="M-8.6 36.3 L-8.1 36.35 -7.6 36.4 -6.95 36.55 -6.8 36.75 -6.65 36.95 -6.55 37.15 -6.5 37.3 -6.6 37.5 -6.85 37.65 -7.05 37.6 -7.35 37.55 -7.6 37.6 -8.1 37.7 -8.65 37.8 -9.05 38.0 -8.75 38.1 Q-8.45 38.05 -8.75 38.25 L-9.2 38.55 -9.35 38.75 -9.35 38.95 -9.35 39.15 -9.25 39.3 -9.05 39.5 -8.9 39.65 -8.85 39.65 -7.8 39.7 -7.65 39.65 -7.35 39.5 -6.95 39.45 -6.8 39.65 -6.75 39.8 -6.7 40.0 -6.65 40.2 -6.7 40.35 -6.8 40.55 -6.9 40.75 -7.15 40.95 -7.45 41.15 -7.85 41.25 -9.1 41.25 -9.55 41.15 -9.7 40.95 -9.9 40.75 -10.15 40.6 -10.55 40.4 -10.7 40.2 -10.85 40.0 -10.85 39.8 -10.85 39.65 -10.85 39.25 -10.85 38.9 -10.85 38.3 -10.75 38.15 -10.6 37.95 -10.5 37.75 -10.4 37.55 -10.35 37.4 -10.2 37.2 -10.1 37.0 -9.8 36.8 -9.4 36.65 -9.05 36.45 -8.6 36.35 -8.6 36.3" fill="#333333" fill-rule="evenodd" stroke="none"/>
    <path d="M6.4 37.2 L6.65 37.05 6.8 37.0 7.1 36.95 8.1 36.95 8.6 37.1 9.1 37.25 9.4 37.45 9.6 37.65 9.8 37.8 9.85 38.0 9.9 38.2 10.05 38.35 10.2 38.55 10.35 38.75 10.45 38.95 10.55 39.15 10.55 39.3 10.5 39.5 10.5 39.7 10.5 39.9 10.45 40.25 10.4 40.45 10.35 40.6 10.2 40.8 10.05 41.0 9.6 41.15 8.35 41.15 7.85 41.0 7.45 40.9 6.7 40.65 5.9 40.4 5.65 40.2 5.5 40.0 5.35 39.8 5.3 39.6 5.3 39.45 5.3 39.25 5.3 39.05 5.3 38.9 5.3 38.5 5.35 38.3 5.45 38.1 5.55 37.95 5.75 37.75 5.9 37.55 6.1 37.4 6.4 37.2" fill="#333333" fill-rule="evenodd" stroke="none"/>
    <path d="M8.05 48.2 L7.05 46.9 6.15 45.55 5.35 44.65 5.35 44.45 5.4 44.25 5.4 44.05 5.45 43.9 5.65 43.8 5.8 43.8 5.85 44.0 5.9 44.2 6.95 45.45 7.85 46.6 8.3 47.4 8.3 47.55 8.3 47.75 8.35 47.95 8.3 48.05 8.05 48.2" fill="#333333" fill-rule="evenodd" stroke="none"/>
    <path d="M5.8 47.25 L5.95 47.45 6.0 47.6 6.05 47.8 6.15 48.0 6.2 48.2 6.4 48.4 6.55 48.55 6.6 48.75 6.65 48.95 6.8 49.15 6.75 49.3 6.65 49.5 6.55 49.7 6.3 49.7 6.1 49.5 6.0 49.3 5.9 49.15 5.55 48.75 5.35 48.35 5.2 48.0 5.25 47.8 5.35 47.45 5.5 47.3 5.65 47.25 5.8 47.25" fill="#333333" fill-rule="evenodd" stroke="none"/>
    <path d="M10.3 46.15 L10.25 46.25 10.05 46.4 9.7 46.25 9.35 45.9 8.95 45.5 8.55 45.15 8.5 44.95 8.65 44.8 8.9 44.8 9.05 44.8 9.5 45.2 9.9 45.55 10.3 46.15" fill="#333333" fill-rule="evenodd" stroke="none"/>
    <path d="M-8.05 47.85 L-8.2 47.9 -8.3 47.7 -8.35 47.5 -8.45 47.3 -8.2 46.7 -7.95 46.4 -7.75 46.25 -7.45 46.2 -7.3 46.4 -7.2 46.55 -7.3 46.75 -7.4 46.95 -7.45 47.15 -7.65 47.3 -7.85 47.5 -7.9 47.7 -8.05 47.85" fill="#333333" fill-rule="evenodd" stroke="none"/>
    <path d="M-4.45 44.45 L-4.3 44.65 -4.2 44.8 -4.3 45.0 -4.35 45.2 -4.4 45.4 -4.4 45.55 -4.6 45.95 -4.85 46.3 -5.1 46.7 -5.15 46.9 -5.2 47.05 -5.3 47.25 -5.35 47.45 -5.45 47.65 -5.55 47.8 -5.6 48.0 -5.65 48.2 -5.8 48.4 -5.9 48.55 -6.0 48.75 -6.1 48.95 -6.2 49.1 -6.45 49.2 -6.6 49.0 -6.6 48.8 -6.55 48.65 -6.45 48.45 -6.45 48.25 -6.45 48.05 -6.35 47.7 -6.2 47.15 -6.05 46.55 -5.85 46.2 -5.45 45.65 -5.2 45.25 -5.15 45.05 -5.1 44.9 -5.0 44.7 -4.85 44.5 -4.6 44.45 -4.45 44.45" fill="#333333" fill-rule="evenodd" stroke="none"/>
    <path d="M-3.1 48.5 L-3.15 48.7 -3.25 48.9 -3.35 49.05 -3.45 49.25 -3.7 49.3 -3.8 49.1 -3.85 48.95 -3.75 48.75 -3.65 48.55 -3.55 48.4 -3.35 48.3 -3.2 48.3 -3.1 48.5" fill="#333333" fill-rule="evenodd" stroke="none"/>
    <path d="M5.95 26.85 L6.8 27.0 7.2 27.2 7.4 27.4 7.4 27.55 7.35 27.75 7.05 27.8 6.85 27.7 5.4 27.25 4.7 26.95 4.35 26.75 4.15 26.55 4.2 26.4 4.5 26.2 4.65 26.2 4.7 26.2 5.4 26.7 5.95 26.85" fill="#333333" fill-rule="evenodd" stroke="none"/>
    <path d="M4.9 24.25 L5.1 24.3 5.5 24.45 5.95 24.65 6.2 24.75 6.35 24.8 7.3 24.95 7.7 25.15 7.9 25.25 8.2 25.4 8.3 25.55 8.15 25.65 7.8 25.8 7.45 25.8 7.2 25.7 6.2 25.55 5.85 25.4 5.6 25.25 5.45 25.2 4.95 25.05 4.8 24.85 4.65 24.7 4.5 24.5 4.55 24.4 4.65 24.35 4.9 24.3 4.9 24.25" fill="#333333" fill-rule="evenodd" stroke="none"/>
    <path d="M6.35 -26.75 L6.4 -26.65 6.45 -26.55 7.0 -25.7 7.65 -24.9 8.0 -24.2 8.05 -24.05 8.15 -23.75 8.2 -23.5 8.25 -23.2 8.25 -23.1 8.15 -23.0 8.1 -22.9 7.9 -22.85 7.7 -22.9 7.6 -23.0 7.5 -23.1 7.5 -23.2 7.45 -23.3 7.45 -23.4 7.35 -23.45 7.35 -23.55 7.3 -23.65 7.25 -23.75 7.25 -23.85 6.8 -24.6 6.2 -25.45 5.75 -26.1 5.75 -26.2 5.75 -26.3 5.75 -26.4 5.75 -26.45 5.8 -26.55 5.85 -26.65 5.95 -26.75 6.15 -26.8 6.35 -26.75" fill="#333333" fill-rule="evenodd" stroke="none"/>
    <path d="M4.4 -26.7 L4.55 -26.65 4.65 -26.55 4.7 -26.45 4.8 -26.35 4.85 -26.25 4.85 -26.15 4.8 -26.1 4.6 -26.0 4.55 -25.9 4.5 -25.45 4.5 -24.9 4.5 -24.2 4.5 -24.15 4.6 -23.95 4.6 -23.75 4.65 -23.55 4.65 -23.4 4.7 -23.3 4.7 -23.2 4.75 -23.1 4.75 -23.0 4.75 -22.9 4.7 -22.8 4.6 -22.7 4.55 -22.65 4.55 -22.55 4.55 -22.45 4.45 -22.35 4.3 -22.35 4.25 -22.45 4.25 -22.55 4.25 -22.65 4.15 -22.7 4.1 -22.8 4.0 -23.1 3.9 -23.45 3.8 -23.75 3.75 -23.95 3.75 -24.5 3.75 -25.15 3.75 -25.9 3.75 -26.0 3.8 -26.1 3.85 -26.2 3.85 -26.3 3.95 -26.4 4.0 -26.45 4.1 -26.55 4.2 -26.65 4.25 -26.65 4.4 -26.65 4.4 -26.7" fill="#333333" fill-rule="evenodd" stroke="none"/>
    <path d="M1.9 -19.25 L1.55 -19.15 1.15 -19.05 0.8 -19.2 0.7 -19.3 Q0.7 -19.95 1.4 -20.25 L2.5 -20.8 3.65 -21.2 3.65 -21.25 3.95 -21.1 4.1 -20.95 4.15 -20.75 4.1 -20.55 3.95 -20.35 3.05 -19.8 2.05 -19.3 1.9 -19.25" fill="#333333" fill-rule="evenodd" stroke="none"/>
    <path d="M2.8 -19.0 L2.9 -19.1 3.15 -19.2 3.9 -19.2 3.9 -19.25 4.4 -19.25 5.15 -19.2 5.45 -19.0 5.55 -18.85 5.55 -18.7 5.45 -18.5 5.4 -18.4 5.15 -18.3 3.15 -18.3 2.85 -18.45 2.65 -18.45 2.4 -18.45 2.05 -18.5 2.05 -18.55 2.15 -18.6 2.4 -18.7 2.65 -18.8 2.8 -19.0" fill="#333333" fill-rule="evenodd" stroke="none"/>
    <path d="M3.05 -15.8 L3.45 -15.6 3.85 -15.45 4.15 -15.25 4.3 -15.05 4.4 -14.85 4.4 -14.75 4.2 -14.7 3.7 -14.7 3.35 -14.85 3.1 -15.0 2.95 -15.05 2.2 -15.2 2.05 -15.35 2.05 -15.55 2.15 -15.75 2.4 -15.85 3.05 -15.8" fill="#333333" fill-rule="evenodd" stroke="none"/>
    <path d="M2.55 -43.95 L2.8 -43.75 2.9 -43.55 2.95 -38.7 2.8 -33.45 2.7 -30.25 2.65 -30.05 2.6 -29.85 2.55 -29.7 2.4 -29.6 2.15 -29.5 1.85 -29.6 1.65 -29.8 1.4 -34.7 1.3 -39.95 1.35 -43.3 1.35 -43.5 1.45 -43.7 1.65 -43.85 1.85 -44.0 2.15 -44.05 2.55 -43.95" fill="#333333" fill-rule="evenodd" stroke="none"/>
  </g>
</svg>
