<?xml version="1.0" encoding="UTF-8" standalone="no"?>
<svg xmlns:xlink="http://www.w3.org/1999/xlink" height="11.95px" width="1668.2px" xmlns="http://www.w3.org/2000/svg">
  <g transform="matrix(1.0, 0.0, 0.0, 1.0, 834.15, 1.0)">
    <path d="M833.5 10.0 L-833.45 10.0 -833.45 0.0 833.5 0.0 833.5 10.0" fill="#ffffff" fill-rule="evenodd" stroke="none"/>
    <path d="M659.0 0.0 L657.0 0.1 654.8 0.1 652.7 -0.1 650.9 -0.15 648.9 0.05 647.15 0.0 645.2 -0.2 643.0 0.0 M674.3 0.0 L672.4 -0.1 670.5 -0.1 668.1 0.0 666.15 0.0 664.3 0.1 662.3 0.1 660.3 0.0 M693.5 0.0 L691.65 0.1 689.5 0.15 687.4 -0.05 685.45 -0.25 683.45 -0.3 681.5 -0.2 679.55 -0.25 677.5 -0.2 675.5 0.0 M726.0 0.0 L723.75 -0.05 721.9 0.05 719.8 0.2 717.95 -0.05 716.0 -0.2 713.95 0.0 712.0 0.0 M747.2 0.0 L745.2 -0.2 743.35 -0.1 741.15 0.05 739.05 -0.1 737.05 -0.4 735.05 -0.2 733.4 0.0 731.25 0.25 729.35 0.35 727.2 0.0 M801.0 0.0 L798.85 0.15 796.95 0.0 795.2 -0.25 Q794.45 -0.45 793.2 -0.25 L791.05 0.0 789.05 0.0 786.95 0.0 785.0 0.0 782.95 -0.05 781.0 0.0 M818.2 0.0 L816.05 -0.15 814.0 0.35 811.8 0.15 810.1 -0.1 808.35 0.0 806.15 -0.1 804.05 -0.3 802.2 0.0 M831.3 10.0 Q832.7 10.0 833.05 9.55 833.45 9.15 833.45 7.95 L833.4 6.05 833.4 4.2 833.5 1.9 833.5 0.6 833.5 0.0 831.5 -0.2 829.35 0.0 827.4 0.35 825.4 -0.05 823.6 -0.15 821.4 0.0 819.5 0.0 M47.9 0.0 L46.1 -0.15 44.05 -0.25 41.95 -0.3 39.65 -0.2 37.8 0.15 36.05 0.2 34.15 0.0 32.15 0.05 29.9 -0.05 27.9 0.0 M63.2 0.0 L61.05 -0.25 59.1 -0.4 57.4 -0.2 55.35 -0.05 53.0 0.1 51.0 0.2 49.2 0.0 M80.4 0.0 L78.35 -0.3 76.45 -0.2 74.3 0.25 72.35 0.25 70.5 0.25 68.3 0.0 66.2 -0.15 64.4 0.0 M93.7 0.0 L91.6 -0.05 89.8 -0.05 87.6 -0.1 85.5 -0.1 83.5 0.0 81.7 0.0 M106.9 0.0 L105.1 0.05 103.1 0.05 100.9 -0.1 99.15 -0.35 97.0 -0.4 Q95.65 -0.4 94.9 0.0 M139.3 0.0 L137.2 -0.05 135.25 -0.15 133.2 -0.2 131.5 0.1 129.3 0.0 M152.5 0.0 L150.45 -0.3 148.3 -0.35 146.25 -0.1 144.15 0.1 142.0 0.05 140.5 0.0 M163.8 0.0 L161.9 -0.1 159.7 -0.05 157.9 -0.25 156.25 -0.35 153.8 0.0 M128.1 0.0 L126.05 0.35 123.95 0.15 122.15 -0.15 120.35 -0.1 118.1 0.05 116.0 0.0 114.2 0.15 112.15 0.2 110.05 -0.1 108.1 0.0 M179.0 0.0 L177.05 -0.1 174.7 -0.15 172.75 -0.05 171.0 0.0 168.95 0.0 166.95 -0.05 165.0 0.0 M198.3 0.0 L196.2 0.1 193.9 0.15 192.3 0.1 190.7 0.15 188.3 0.2 186.0 -0.15 184.2 -0.3 182.35 -0.4 180.3 0.0 M209.5 0.0 L207.5 -0.2 205.55 -0.3 203.55 -0.25 201.5 0.05 199.5 0.0 M241.9 0.0 L239.95 -0.05 238.0 0.0 235.8 0.15 233.7 0.15 231.9 -0.05 229.9 -0.05 227.75 0.0 225.9 0.0 M300.8 0.0 L298.65 -0.2 296.55 -0.1 294.75 0.05 292.7 0.0 290.75 0.05 288.8 0.0 M318.0 0.0 L315.85 0.0 314.05 -0.25 Q313.15 -0.45 312.1 -0.25 L310.0 0.0 308.0 0.15 306.25 0.15 304.25 0.0 302.0 0.0 M333.2 0.0 L331.3 -0.1 329.3 0.2 327.2 0.1 325.1 -0.25 Q324.05 -0.45 323.3 -0.25 L321.2 -0.05 319.2 0.0 M346.4 0.0 L344.4 -0.4 342.55 -0.2 340.45 0.2 Q339.35 0.4 338.2 0.2 L336.3 0.0 334.4 0.0 M363.6 0.0 L361.35 0.25 359.4 0.1 357.6 0.0 355.7 -0.05 353.7 -0.2 351.75 0.0 349.6 -0.2 347.6 0.0 M380.8 0.0 L378.75 -0.45 376.8 -0.45 374.85 -0.45 372.7 -0.3 370.7 0.1 368.8 0.15 366.65 0.0 364.8 0.0 M394.0 0.0 L392.1 0.2 390.05 0.25 387.95 0.1 386.0 -0.25 383.95 -0.3 382.0 0.0 M422.5 0.0 L420.6 0.0 418.5 -0.05 416.5 -0.25 Q415.55 -0.45 414.65 -0.25 L412.8 0.1 410.65 0.1 408.6 0.05 406.5 0.0 M439.7 0.0 L437.6 -0.05 435.7 0.05 433.6 0.05 431.65 -0.05 429.85 -0.2 428.05 -0.1 425.75 0.1 423.7 0.0 M458.9 0.0 L457.0 0.15 Q456.1 0.35 455.0 0.15 L452.9 0.0 451.1 -0.05 449.0 0.0 446.75 0.05 445.0 -0.1 443.0 -0.1 440.9 0.0 M485.4 0.0 L483.35 -0.25 Q482.45 -0.45 481.4 -0.25 L479.2 0.1 477.1 0.2 475.4 0.0 M502.6 0.0 L500.6 0.0 498.7 0.0 496.8 -0.1 494.45 -0.2 492.3 -0.3 490.45 -0.2 488.6 -0.1 486.6 0.0 M517.8 0.0 L515.6 -0.2 513.85 0.0 511.8 0.1 509.9 -0.1 507.8 -0.2 505.7 -0.25 503.8 0.0 M552.4 0.0 L550.6 0.25 548.7 0.0 546.5 -0.05 544.45 -0.05 542.55 0.05 540.5 0.05 538.35 -0.1 536.35 -0.3 534.4 0.0 M569.6 0.0 L567.75 0.25 565.65 0.35 563.65 0.05 561.55 -0.15 559.5 -0.1 557.4 -0.05 555.65 0.05 553.6 0.0 M641.8 0.0 L639.7 -0.05 637.9 -0.1 635.85 -0.1 634.0 0.0 632.05 0.05 629.8 0.05 627.8 0.0 M611.3 0.0 L609.05 -0.2 607.15 -0.4 605.25 0.0 603.35 0.25 601.6 0.1 599.45 0.05 597.3 0.0 M634.9 10.0 L636.9 10.2 639.0 10.15 641.0 9.7 642.85 9.9 644.95 10.35 646.75 10.25 648.9 10.0 M619.7 10.0 L621.5 10.05 623.5 10.2 625.75 10.25 627.95 10.05 630.0 9.8 Q630.85 9.55 632.0 9.8 L633.7 10.0 M626.6 0.0 L624.7 0.2 622.55 0.05 620.7 0.0 618.7 0.0 616.6 -0.15 614.75 0.0 Q613.85 0.35 612.6 0.0 M602.5 10.0 L604.7 9.95 606.3 10.1 608.5 10.1 610.65 10.15 612.7 9.85 614.8 9.7 616.4 9.75 618.5 10.0 M587.2 10.0 L589.1 9.95 591.25 9.8 Q592.55 9.65 593.4 9.8 L595.25 9.95 597.2 9.95 599.35 10.0 601.2 10.0 M596.1 0.0 L594.45 0.1 Q593.55 -0.1 592.4 0.1 591.3 0.3 590.3 0.1 L588.35 -0.05 586.25 0.05 584.35 -0.15 582.1 0.0 M565.9 10.0 L568.0 9.9 569.6 9.95 571.7 10.15 573.85 10.05 575.85 10.05 578.0 10.0 580.0 9.85 Q580.95 9.7 581.7 10.1 582.5 10.5 583.7 10.1 L585.9 10.0 M580.8 0.0 L578.55 -0.3 576.6 0.0 574.7 0.0 572.6 -0.05 570.8 0.0 M548.6 10.0 L550.65 10.05 552.7 10.2 554.65 10.2 556.6 10.0 558.6 9.8 560.65 9.9 562.4 10.0 Q563.15 9.85 564.6 10.0 M529.4 10.0 L531.45 10.05 533.35 10.05 535.45 10.05 537.45 10.05 539.5 10.05 541.55 9.9 543.6 9.95 545.75 10.15 547.4 10.0 M512.2 10.0 L513.9 10.0 516.15 10.0 518.3 10.0 520.45 9.85 Q521.5 9.7 522.35 9.85 L524.45 9.8 Q525.7 9.6 526.5 9.8 L528.2 10.0 M533.1 0.0 L531.15 0.15 529.2 0.1 527.25 0.15 525.15 -0.05 523.1 0.0 521.1 -0.05 519.1 0.0 M493.0 10.0 L494.9 9.9 497.05 9.85 499.05 9.75 500.95 10.0 502.75 10.3 504.7 10.1 506.9 9.95 508.95 9.8 511.0 10.0 M475.7 10.0 L477.65 10.1 479.7 10.05 481.9 9.95 483.9 10.2 485.5 10.35 487.3 10.4 489.6 10.2 491.7 10.0 M474.1 0.0 L472.35 0.05 470.15 0.1 468.1 0.1 466.2 0.35 464.25 0.45 462.15 0.15 460.1 0.0 M462.5 10.0 L464.45 9.95 466.5 9.75 468.65 9.6 470.75 9.8 472.65 9.95 474.5 10.0 M447.3 10.0 L449.25 9.9 451.25 10.05 453.3 10.15 455.3 10.15 457.2 10.3 459.2 10.45 461.3 10.0 M432.1 10.0 L434.2 9.85 436.0 9.9 438.15 10.0 440.4 10.0 442.2 10.2 444.1 10.35 446.1 10.0 M414.9 10.0 L416.9 10.1 419.15 10.05 421.05 10.2 422.95 10.15 425.0 10.0 426.9 10.05 428.85 10.15 430.9 10.0 M403.7 10.0 L405.7 10.1 407.65 10.0 409.7 9.9 411.75 10.0 413.7 10.0 M386.5 10.0 L388.45 9.9 390.7 9.95 392.6 9.9 394.25 10.05 396.3 10.1 398.5 10.15 400.35 10.15 402.5 10.0 M405.3 0.0 L403.25 0.15 401.3 0.35 399.35 0.4 397.35 0.2 395.3 0.0 M367.2 10.0 L369.35 10.4 371.45 10.15 373.25 9.85 375.25 9.9 377.5 10.0 379.05 10.05 380.85 10.05 383.1 10.1 385.2 10.0 M346.0 10.0 L348.1 9.7 350.05 9.85 352.0 10.2 Q352.95 10.4 353.95 10.2 354.95 10.0 355.95 10.2 L357.8 10.15 359.8 9.75 362.0 9.85 364.0 10.25 366.0 10.0 M330.7 10.0 L332.45 10.15 334.7 10.0 336.95 10.25 338.75 10.0 Q339.7 9.55 340.7 9.6 L342.55 9.8 344.7 10.0 M313.4 10.0 Q314.65 10.2 315.5 10.0 L317.25 9.9 319.25 10.0 321.4 10.0 323.35 10.05 325.4 10.1 327.4 9.9 329.4 10.0 M300.2 10.0 L302.2 9.9 304.05 9.8 306.0 9.85 308.25 9.95 310.2 10.0 312.2 10.0 M285.0 10.0 L286.8 10.2 288.8 10.15 291.1 9.95 292.95 9.95 294.85 9.9 296.95 10.1 299.0 10.0 M287.5 0.0 L285.45 0.15 283.45 -0.05 281.55 0.0 279.65 -0.05 277.6 0.0 275.5 0.05 273.5 0.0 M263.75 10.0 L265.65 9.9 267.55 10.0 269.45 10.15 271.7 10.1 273.75 10.05 275.7 9.9 277.7 9.8 279.95 10.1 281.8 10.15 283.75 10.0 M272.3 0.0 L270.3 -0.05 268.25 0.0 266.15 0.0 264.3 0.05 262.5 0.05 260.2 -0.2 258.3 0.0 M252.55 10.0 L254.55 10.15 256.35 10.1 258.35 9.9 260.65 9.85 262.55 10.0 M257.1 0.0 L255.15 0.25 253.05 0.15 251.0 0.0 249.2 -0.2 247.3 0.05 245.3 0.35 243.1 0.0 M237.25 10.0 L239.0 9.9 241.1 10.25 Q242.25 10.45 243.2 10.25 L245.2 10.05 247.35 9.95 249.35 9.85 251.25 10.0 M218.05 10.0 L220.1 10.0 222.0 9.85 224.0 9.75 226.1 9.85 228.1 10.0 230.15 10.1 232.15 10.3 234.3 10.2 236.05 10.0 M224.7 0.0 L222.6 0.15 220.9 0.1 218.95 -0.05 216.9 0.15 214.85 0.15 212.7 -0.15 210.7 0.0 M198.75 10.0 L200.65 9.7 Q201.75 9.55 202.65 10.0 203.6 10.45 204.65 10.0 L206.7 9.95 208.8 10.15 210.7 9.85 212.7 9.8 214.9 9.95 216.75 10.0 M181.45 10.0 L183.55 9.8 185.6 9.7 187.25 9.9 189.15 10.1 191.15 10.35 193.2 10.25 195.45 9.75 Q196.6 9.5 197.45 10.0 M166.25 10.0 L168.3 10.05 170.35 10.0 172.05 10.2 173.9 10.05 176.1 9.85 178.05 10.2 180.25 10.0 M144.95 10.0 L146.95 9.7 148.8 9.65 150.8 9.9 152.95 10.2 155.2 10.1 156.85 9.95 158.65 10.0 160.75 10.0 162.8 9.95 164.95 10.0 M125.65 10.0 L127.5 10.1 129.65 9.9 131.55 9.8 133.45 10.0 135.65 10.0 137.75 9.95 139.55 9.95 141.35 9.95 143.65 10.0 M106.35 10.0 L108.1 9.9 110.05 9.8 112.4 10.15 Q113.65 10.4 114.5 10.15 L116.4 9.7 118.35 9.75 120.35 10.2 122.35 10.0 Q123.35 9.65 124.35 10.0 M85.15 10.0 L87.05 10.0 89.05 10.05 91.05 10.0 93.1 10.0 95.1 10.1 97.15 10.05 99.15 9.85 101.2 9.8 103.05 9.9 105.15 10.0 M69.95 10.0 L71.65 10.2 73.9 10.15 75.95 9.9 78.1 9.85 80.25 9.85 82.1 9.9 83.95 10.0 M52.75 10.0 L54.75 10.05 56.75 9.75 58.75 10.1 60.55 10.25 62.65 10.0 64.8 10.0 66.95 9.95 68.75 10.0 M37.45 10.0 L39.4 10.0 41.55 10.0 43.6 9.95 45.6 10.0 47.55 9.75 Q48.5 9.55 49.35 9.75 L51.45 10.0 M24.15 10.0 L25.8 9.95 28.0 10.1 29.9 9.95 31.9 9.8 34.4 9.85 36.15 10.0 M26.7 0.0 L24.65 -0.05 22.65 0.0 20.7 0.0 18.65 0.05 16.7 0.0 M6.95 10.0 L9.1 9.9 11.05 9.7 12.9 9.8 14.85 10.1 16.85 9.95 19.0 10.0 20.7 10.1 22.95 10.0 M15.5 0.0 L13.55 0.05 11.35 0.05 9.3 -0.05 7.6 0.2 5.6 0.05 3.4 -0.05 1.5 0.0 M-10.35 10.0 L-8.3 10.3 -6.3 10.05 -4.3 9.85 -2.3 9.9 -0.55 9.9 1.55 10.1 Q2.9 10.3 3.75 10.1 L5.65 10.0 M816.1 10.0 L818.0 10.05 820.2 9.8 822.2 10.0 823.95 10.15 825.95 10.2 828.05 10.15 830.1 10.0 M802.8 10.0 L804.45 9.85 806.7 9.65 808.65 9.85 810.45 10.05 812.6 10.0 814.8 10.0 M783.6 10.0 L785.5 10.05 Q786.45 9.65 787.3 9.8 L789.25 9.95 791.3 9.9 793.45 9.95 795.85 9.95 797.8 9.85 799.6 9.95 801.6 10.0 M768.3 10.0 L770.3 9.75 772.25 9.5 774.4 9.85 776.5 10.05 778.1 10.1 780.1 10.2 782.3 10.0 M779.7 0.0 L777.65 0.0 775.9 0.0 773.7 -0.05 771.55 0.05 769.65 0.2 767.35 0.1 765.5 0.05 763.7 0.0 M751.0 10.0 L752.95 9.95 755.1 10.1 757.0 9.75 759.0 9.6 760.75 9.6 762.75 9.6 765.0 9.7 767.0 10.0 M762.5 0.0 L760.75 0.4 758.85 0.4 756.8 0.25 754.45 0.15 752.4 0.0 Q751.75 -0.2 750.45 0.0 749.2 0.2 748.5 0.0 M735.7 10.0 L737.8 9.85 739.7 9.85 741.7 10.0 743.8 10.1 745.8 10.1 747.9 10.0 749.7 10.0 M724.5 10.0 Q725.4 9.5 726.25 9.75 L728.3 9.95 730.35 10.1 732.35 10.0 Q733.5 9.8 734.5 10.0 M711.2 10.0 L713.65 9.8 715.2 10.0 717.0 10.2 719.2 9.95 721.1 9.8 723.2 10.0 M710.8 0.0 L708.95 0.0 706.65 0.05 704.85 0.05 702.95 0.2 700.8 0.0 Q699.8 -0.45 698.85 0.0 697.95 0.45 696.7 0.0 695.45 -0.45 694.8 0.0 M695.9 10.0 L697.65 10.0 699.7 9.9 702.1 10.0 704.05 10.3 705.9 10.35 707.95 10.15 709.9 10.0 M684.7 10.0 L686.7 9.85 688.65 9.75 690.4 10.1 692.55 10.05 694.7 10.0 M669.5 10.0 L671.5 10.15 673.4 9.95 675.35 9.85 677.3 9.95 679.5 10.0 681.7 10.0 683.5 10.0 M650.2 10.0 L652.1 10.1 653.9 10.05 656.0 10.2 658.25 10.05 660.45 10.1 662.65 10.1 664.2 10.1 666.0 10.0 Q667.25 9.8 668.2 10.0 M-622.05 0.0 L-623.95 0.25 -626.05 0.05 -628.0 -0.05 -630.0 0.05 -632.15 -0.05 -634.4 -0.3 Q-635.55 -0.45 -636.05 0.0 M-591.65 0.0 L-593.65 -0.05 -595.55 -0.35 -597.6 0.1 -599.7 0.2 -601.7 -0.05 -603.65 -0.05 -605.8 0.15 -608.0 0.15 -609.65 0.0 M-555.25 0.0 L-557.35 -0.1 -559.5 -0.25 -561.4 -0.2 -563.0 0.0 -565.1 0.15 -567.3 0.05 -569.25 0.0 M-536.05 0.0 L-538.05 -0.05 -540.1 -0.3 -541.9 -0.5 -543.85 -0.25 -546.0 0.0 -548.0 0.0 -550.05 -0.15 -552.05 -0.15 -554.05 0.0 M-513.65 0.0 L-515.7 -0.05 -517.55 -0.1 -519.45 0.0 -521.3 0.05 -523.65 0.0 M-465.85 0.0 L-467.9 0.1 -469.9 0.0 -471.8 -0.1 -473.85 0.1 -475.7 0.2 -477.65 -0.05 -480.05 -0.05 -481.85 0.0 M-425.45 0.0 L-427.25 -0.25 -429.35 -0.15 -431.6 -0.05 -433.65 -0.25 -435.7 -0.2 -437.3 -0.15 -439.4 -0.15 -441.75 -0.05 -443.4 0.05 -445.45 0.0 M-408.25 0.0 L-410.2 -0.05 -412.1 -0.05 -414.15 0.0 -416.25 -0.1 -418.05 -0.05 -420.05 0.05 -422.2 0.0 -424.25 0.0 M-379.85 0.0 L-381.75 0.0 -383.9 -0.15 -385.95 -0.2 -388.1 -0.15 -390.15 -0.1 -391.9 -0.2 -393.85 0.0 M-395.05 0.0 L-397.15 0.05 -399.3 -0.1 -401.25 -0.2 -402.85 -0.3 -404.95 -0.1 -407.05 0.0 M-366.65 0.0 L-368.85 0.15 -371.05 0.2 -373.0 -0.15 -374.75 -0.15 -376.65 -0.05 -378.65 0.0 M-338.15 0.0 L-340.15 -0.1 -342.15 -0.35 -344.25 -0.25 -346.4 0.0 -348.1 -0.05 -349.8 -0.1 -351.95 -0.05 -354.15 0.0 M-301.65 0.0 L-303.7 -0.3 -305.75 -0.45 -307.7 -0.2 -309.6 -0.05 -311.65 -0.05 -313.75 -0.25 -316.0 -0.3 Q-317.15 -0.1 -317.9 -0.3 L-319.65 0.0 M-284.35 0.0 L-286.55 0.05 -288.45 -0.3 -290.35 -0.35 -292.25 -0.05 -294.4 -0.15 -296.35 -0.2 -298.4 0.0 -300.35 0.0 M-269.05 0.0 L-270.95 0.05 -272.95 -0.05 -275.1 -0.15 -277.1 -0.3 -278.95 -0.2 -281.1 0.1 -283.05 0.0 M-253.75 0.0 L-255.85 0.0 -257.75 0.05 -259.8 -0.2 -262.0 -0.25 -263.85 0.05 -266.0 0.1 -267.75 0.0 M-238.5 0.0 L-240.55 -0.05 -242.3 0.3 -244.5 0.3 -246.75 -0.1 -248.4 -0.2 -250.35 0.0 -252.5 0.0 M-223.3 0.0 L-225.4 -0.3 -227.4 -0.2 -229.35 -0.05 -231.2 -0.05 -233.3 -0.15 -235.45 -0.15 -237.3 0.0 M-208.0 0.0 L-209.85 -0.25 -211.8 -0.15 -213.9 0.2 -215.95 -0.1 -218.15 -0.2 -220.35 -0.15 -222.0 0.0 M-173.5 0.0 L-175.3 -0.2 -177.05 -0.05 -179.25 0.05 -181.5 0.1 -183.5 -0.15 -185.5 -0.45 -187.5 -0.3 -189.5 0.0 M-156.2 0.0 L-158.1 0.05 -159.95 -0.1 -162.1 0.2 -164.4 0.35 -166.15 0.25 -167.9 -0.1 Q-169.0 -0.4 -170.1 -0.1 L-172.2 0.0 M-140.9 0.0 L-142.75 0.15 -144.95 -0.05 -146.95 0.25 -149.05 -0.05 -150.95 -0.25 -152.7 0.0 -154.9 0.0 M-127.7 0.0 L-129.6 0.05 -131.7 0.15 -133.9 -0.05 -135.85 -0.35 -137.7 0.05 -139.7 0.0 M-77.9 0.0 L-79.95 0.0 -81.75 -0.25 Q-82.5 -0.45 -83.95 -0.25 L-86.2 0.2 -87.7 0.25 -89.6 0.15 -91.9 0.0 M-36.2 0.0 L-38.3 0.15 -40.05 0.15 -42.1 0.0 -44.3 -0.05 -46.1 -0.05 -48.35 0.15 -50.2 0.0 M-18.9 0.0 Q-19.8 -0.25 -20.85 0.0 L-22.9 0.15 -24.7 0.0 -26.55 -0.1 -28.8 -0.1 -31.05 0.1 -33.1 0.2 -34.9 0.0 M0.3 0.0 Q-0.7 0.2 -1.55 0.0 L-3.45 -0.1 -5.75 -0.15 -7.95 0.05 -9.8 0.15 -11.75 -0.25 -13.95 0.0 -15.85 0.05 -17.7 0.0 M-802.45 0.0 L-804.65 0.05 -806.6 0.1 -808.5 0.2 -810.45 0.15 -812.35 0.0 -814.5 -0.15 -816.55 -0.25 -818.2 -0.1 -820.45 0.0 M-781.25 0.0 L-783.1 -0.25 -785.1 0.2 -787.25 0.1 -789.3 -0.1 -791.35 0.2 Q-792.35 0.4 -793.3 0.2 L-795.1 -0.15 -797.2 -0.05 -799.45 0.05 -801.25 0.0 M-764.05 0.0 L-765.95 -0.05 -768.0 0.05 -770.05 0.0 -772.25 0.0 -774.35 -0.1 -775.95 -0.15 -777.7 0.0 -780.05 0.0 M-727.45 0.0 L-729.35 -0.15 -731.25 0.0 -733.05 0.05 -735.1 0.05 -737.35 0.05 -739.55 -0.15 -741.55 -0.25 -743.45 -0.05 -745.45 0.0 M-658.55 0.0 L-660.75 -0.05 -662.85 -0.1 -664.75 0.1 -666.8 0.15 -668.95 0.0 -670.8 0.1 -672.65 -0.05 -674.6 -0.1 -676.55 0.0 M-637.35 0.0 L-639.35 0.0 -641.4 0.05 -643.6 0.15 -645.55 0.3 -647.45 0.15 -649.3 -0.15 -651.3 -0.35 -653.25 -0.3 -655.45 -0.25 -657.35 0.0 M-662.15 10.0 L-659.95 9.8 -657.95 9.9 -656.1 9.95 -654.2 9.8 -651.95 9.65 -649.85 9.65 -648.05 9.95 -646.15 10.0 M-677.45 10.0 L-675.45 10.2 Q-674.35 10.45 -673.35 10.2 L-671.3 10.1 -669.4 10.0 -667.45 9.9 -665.45 9.95 -663.45 10.0 M-698.65 10.0 L-696.8 10.1 -694.75 10.1 -692.55 10.0 -690.3 9.9 -688.25 9.8 -686.65 9.9 -684.85 9.95 -682.4 9.95 -680.4 10.05 -678.65 10.0 M-677.75 0.0 L-679.8 -0.05 -681.6 0.0 -683.6 -0.05 -685.8 0.2 -687.95 0.5 -690.15 0.05 -691.75 0.0 M-692.95 0.0 L-695.15 0.05 -697.1 0.15 -698.75 -0.1 -700.8 0.1 -703.15 0.25 -705.0 0.1 -706.8 0.0 -708.95 0.0 M-711.85 10.0 L-709.75 9.95 -707.75 10.2 -705.9 10.0 -704.0 9.7 -702.05 9.85 -699.85 10.0 M-729.15 10.0 L-727.15 9.85 -725.15 9.95 -723.05 10.2 -721.15 10.4 -719.3 10.2 -717.15 9.85 -715.25 10.05 -713.15 10.0 M-710.25 0.0 L-712.05 -0.1 -714.2 0.1 -716.2 0.05 -718.35 0.05 -720.35 -0.15 -722.25 0.05 -724.2 0.0 Q-725.1 -0.4 -726.25 0.0 M-748.35 10.0 L-746.1 9.95 -744.0 10.05 Q-742.85 9.9 -742.1 10.05 L-740.15 10.1 -738.15 9.95 -736.35 9.85 -734.25 9.95 -732.05 10.05 -730.35 10.0 M-763.65 10.0 L-761.45 9.7 -759.65 9.75 -757.65 10.0 -755.8 10.05 -753.75 10.0 -751.65 10.05 -749.65 10.0 M-746.75 0.0 L-749.05 0.05 -751.15 0.0 -752.85 -0.2 -754.7 0.0 -756.8 0.05 -758.75 0.05 -760.65 -0.25 -762.75 0.0 M-778.85 10.0 L-776.9 10.15 -774.7 10.05 -772.6 9.8 -770.9 9.95 -768.9 10.15 -766.6 10.1 -764.85 10.0 M-794.15 10.0 L-792.35 10.15 -790.3 10.35 -788.2 10.25 -786.05 9.8 -784.1 9.9 -782.25 10.25 -780.15 10.0 M-809.35 10.0 L-807.55 10.2 -805.6 10.05 -803.45 10.0 -801.15 10.1 -799.15 10.05 -797.35 10.05 -795.35 10.0 M-824.65 10.0 L-822.65 9.85 -820.85 9.8 -818.65 9.9 -816.65 9.9 -814.65 10.05 -812.65 10.0 Q-811.65 9.85 -810.65 10.0 M-821.75 0.0 Q-822.4 0.45 -823.7 0.4 L-826.0 0.45 -827.8 0.45 Q-828.55 0.45 -829.55 0.05 L-831.45 0.0 Q-832.4 0.35 -832.95 0.8 -833.5 1.25 -833.55 2.25 L-833.45 4.3 M-833.45 5.6 Q-833.8 6.75 -833.55 7.65 L-832.95 9.3 Q-832.65 10.0 -831.55 9.9 L-829.85 9.9 -828.05 9.85 -825.85 10.0 M-25.65 10.0 L-23.6 9.9 -21.4 9.8 -19.65 10.0 -17.55 9.9 -15.5 9.8 -13.6 10.1 -11.65 10.0 M-44.85 10.0 L-42.8 10.1 -40.85 10.05 -38.65 10.05 -36.5 9.95 -34.6 10.15 -32.5 10.1 -30.65 9.9 -29.05 10.0 -26.85 10.0 M-64.05 10.0 L-62.0 10.25 -60.05 10.35 -57.95 10.15 -55.9 9.85 -54.05 9.7 -52.05 10.1 -50.0 10.15 -48.2 9.95 -46.05 10.0 M-51.5 0.0 L-53.6 0.1 -55.5 0.1 -57.45 -0.05 -59.45 0.1 -61.5 -0.05 -63.5 0.0 M-79.25 10.0 L-77.2 9.85 -75.05 9.7 -73.2 9.8 -71.15 9.95 -68.9 9.9 -67.05 9.95 -65.25 10.0 M-64.7 0.0 L-66.3 0.15 -68.7 0.0 -70.85 0.05 -72.8 0.1 -75.0 -0.35 Q-76.05 -0.45 -76.7 0.0 M-98.55 10.0 L-96.55 10.25 -94.5 10.4 -92.55 10.35 -90.75 10.05 -88.95 9.9 -86.55 10.0 -84.35 10.0 -82.55 9.95 -80.55 10.0 M-93.1 0.0 L-95.2 0.1 -97.25 0.0 -99.1 -0.25 -100.75 0.0 -102.85 0.15 -105.1 0.1 -107.1 0.25 -109.2 0.1 -111.4 0.2 Q-112.45 0.5 -113.1 0.0 M-117.85 10.0 L-115.9 9.95 -113.9 10.35 -111.9 10.1 -110.1 10.05 Q-109.2 10.4 -108.0 10.05 L-105.85 9.85 -103.85 10.05 -101.65 10.0 -99.85 10.0 M-114.4 0.0 L-116.2 0.3 -118.2 0.3 -120.55 0.15 -122.6 -0.05 -124.45 0.0 Q-125.4 0.25 -126.4 0.0 M-129.15 10.0 L-127.35 9.95 -125.5 10.0 -123.55 10.2 -121.15 10.15 -119.15 10.0 M-146.45 10.0 L-144.55 9.85 -142.4 9.9 -140.25 10.15 -138.35 9.95 -136.45 9.75 -134.4 9.85 -132.6 9.95 -130.45 10.0 M-161.65 10.0 L-159.7 9.85 -157.85 9.8 -155.6 10.05 -153.75 10.1 -151.75 10.0 -149.65 9.95 -147.65 10.0 M-176.85 10.0 L-174.75 9.95 -172.7 10.0 -170.85 9.85 -168.8 9.8 -166.8 9.75 Q-165.8 9.55 -164.85 9.75 L-162.85 10.0 M-196.15 10.0 L-194.15 10.05 -192.2 10.0 -190.05 10.0 -187.85 9.75 -186.0 9.8 -184.2 10.0 -182.15 10.0 -180.15 9.8 -178.15 10.0 M-211.35 10.0 L-209.05 10.1 -207.1 10.0 -205.4 10.05 -203.6 9.8 -201.3 9.75 -199.1 10.05 -197.35 10.0 M-190.7 0.0 L-192.85 0.15 Q-193.7 0.0 -194.65 0.15 L-196.65 0.0 -198.85 -0.15 -200.9 0.05 -202.65 0.05 -204.7 -0.2 -206.7 0.0 M-222.55 10.0 L-220.6 9.9 -218.35 10.0 -216.25 10.05 -214.35 9.85 -212.55 10.0 M-241.75 10.0 L-239.65 9.95 -237.8 9.95 -236.0 10.05 -233.9 9.95 -231.85 9.9 -229.65 9.95 -227.8 10.05 -225.9 10.05 -223.75 10.0 M-254.95 10.0 L-253.0 10.0 -250.95 10.0 -248.85 10.0 -246.7 10.2 Q-245.6 10.4 -244.85 10.2 L-242.95 10.0 M-270.15 10.0 L-268.15 9.9 -266.15 9.9 -264.0 9.85 -261.8 9.85 -259.9 9.75 -258.2 9.9 -256.15 10.0 M-287.35 10.0 L-285.3 9.85 -283.2 9.95 -281.2 9.75 -279.6 9.8 Q-278.8 10.0 -277.7 9.8 -276.55 9.65 -275.7 9.8 L-273.45 9.95 -271.35 10.0 M-304.55 10.0 L-302.75 10.2 -300.6 10.4 -298.4 10.2 -296.5 9.8 -294.8 9.75 -292.6 9.95 -290.5 10.0 -288.55 10.0 M-323.85 10.0 L-321.85 9.75 -319.7 9.9 -317.7 9.8 -315.8 10.05 -314.1 10.3 -311.95 9.95 -309.6 10.1 -307.4 10.0 Q-306.35 9.55 -305.85 10.0 M-320.85 0.0 L-322.85 0.15 -324.85 0.25 -326.75 -0.05 -328.75 0.0 Q-329.8 0.35 -330.95 0.0 L-332.8 -0.2 -334.75 0.1 -336.85 0.0 M-341.15 10.0 L-339.25 10.0 -337.35 10.15 -335.2 10.0 -333.2 9.65 -331.35 9.75 Q-330.1 9.95 -329.1 9.75 -328.05 9.6 -326.95 9.75 L-325.15 10.0 M-356.45 10.0 L-354.45 9.8 -352.5 9.9 -350.35 10.15 -348.15 10.0 -346.15 9.6 -344.25 9.75 -342.45 10.0 M-369.75 10.0 L-367.9 9.75 -365.65 9.9 -363.75 10.05 -361.7 10.15 -359.75 10.1 -357.75 10.0 M-355.45 0.0 L-357.5 0.15 -359.5 0.15 -361.55 0.2 -363.2 0.2 -365.45 0.0 M-384.95 10.0 L-382.8 10.05 -380.8 9.95 -378.7 10.0 -376.8 10.0 -374.7 9.85 -372.6 10.05 -370.95 10.0 M-402.15 10.0 L-400.0 10.1 -397.9 10.0 -396.15 10.05 -394.2 10.1 -392.4 9.95 -390.4 9.9 -388.15 9.9 -386.15 10.0 M-417.35 10.0 L-415.25 10.1 -413.5 10.2 -411.6 10.2 -409.65 10.15 -407.5 10.0 -405.25 9.9 -403.35 10.0 M-432.55 10.0 L-430.4 9.9 -428.15 9.9 -426.25 9.9 -424.5 9.7 -422.7 9.75 -420.8 10.15 -418.55 10.0 M-453.85 10.0 L-451.85 10.15 -450.0 10.15 -448.0 10.1 -445.7 9.9 -443.55 9.8 -441.7 9.95 -439.8 10.15 -437.75 10.05 -435.85 9.85 -433.85 10.0 M-446.65 0.0 L-448.8 0.1 -450.8 -0.15 -452.9 0.0 -454.65 0.15 -456.45 0.25 -458.65 0.0 -460.65 -0.1 -462.5 0.0 -464.65 0.0 M-469.15 10.0 L-467.35 9.95 -465.1 9.7 -463.1 9.65 -461.2 9.85 -459.2 9.8 -457.15 9.65 Q-456.1 9.65 -455.15 10.0 M-484.45 10.0 L-482.45 10.2 -480.4 10.1 -478.4 9.95 -476.4 10.0 -474.6 9.9 -472.75 9.9 -470.45 10.0 M-499.65 10.0 L-497.65 9.8 -495.75 10.05 -493.6 10.05 -491.45 9.95 -489.6 9.95 -487.5 9.95 -485.65 10.0 M-483.15 0.0 L-484.95 -0.1 -487.05 0.05 -488.95 0.05 -491.15 0.05 -493.15 0.0 -495.15 0.05 -497.15 0.0 M-518.85 10.0 L-517.05 10.1 Q-515.85 10.4 -514.75 10.1 L-512.85 10.15 Q-512.1 10.45 -511.2 10.15 L-509.15 9.65 Q-508.0 9.5 -506.95 9.65 L-504.75 9.9 -502.75 9.75 Q-501.8 9.5 -500.85 10.0 M-498.45 0.0 L-500.25 0.1 -502.25 0.05 -504.3 0.05 -506.15 0.05 -508.5 0.15 -510.8 0.2 -512.45 0.0 M-536.15 10.0 L-534.05 10.2 -532.05 10.0 -529.7 9.9 -527.8 9.8 -526.1 9.9 -524.2 10.0 -522.15 10.0 -520.15 10.0 M-524.85 0.0 L-526.85 0.2 -528.75 0.0 -530.7 0.15 -532.8 0.2 -534.85 0.0 M-549.45 10.0 L-547.4 10.15 -545.1 9.95 -543.05 9.75 -541.5 10.15 -539.8 10.4 -537.45 10.0 M-562.65 10.0 L-560.55 10.05 -558.5 9.8 -556.7 9.75 -554.8 10.0 -552.55 9.95 -550.65 10.0 M-579.95 10.0 L-578.35 9.95 -576.3 10.15 -574.25 9.85 -572.0 9.85 -569.9 9.75 -568.2 9.65 -565.95 10.0 Q-564.55 10.3 -563.95 10.0 M-570.45 0.0 L-572.3 -0.2 -574.35 0.1 -576.25 0.15 Q-577.05 0.0 -578.15 0.15 L-580.35 0.15 -582.25 -0.15 -584.3 0.0 -586.5 0.15 -588.4 0.0 -590.45 0.0 M-597.25 10.0 L-595.2 10.1 -593.25 9.95 -591.15 10.05 -589.1 10.1 -587.15 10.05 -585.0 10.0 -583.25 9.9 -581.25 10.0 M-612.45 10.0 Q-611.05 10.35 -610.1 10.0 L-608.2 9.85 -606.35 9.75 Q-605.5 9.55 -604.45 9.75 L-602.65 10.2 Q-601.85 10.4 -600.45 10.2 L-598.45 10.0 M-625.75 10.0 L-624.05 10.2 -622.05 9.95 -619.95 9.9 -617.85 10.0 -615.95 9.95 -613.75 10.0 M-610.85 0.0 L-612.7 -0.05 -614.8 0.0 -616.65 0.0 -618.65 -0.05 -620.85 0.0 M-644.95 10.0 L-642.85 9.95 -640.75 10.1 -638.95 10.1 -637.0 9.85 -635.0 10.05 -633.1 10.1 -631.35 9.95 -629.2 10.05 -626.95 10.0" fill="none" stroke="#ffffff" stroke-linecap="round" stroke-linejoin="round" stroke-width="1.0"/>
  </g>
</svg>
