<?xml version="1.0" encoding="UTF-8" standalone="no"?>
<svg xmlns:xlink="http://www.w3.org/1999/xlink" height="19.85px" width="258.75px" xmlns="http://www.w3.org/2000/svg">
  <g transform="matrix(1.0, 0.0, 0.0, 1.0, 129.35, 9.9)">
    <path d="M83.75 -1.25 L-121.25 -1.25 -121.25 -8.0 83.75 -8.0 83.75 -1.25" fill="#999966" fill-rule="evenodd" stroke="none"/>
    <path d="M92.55 -9.45 L92.55 -0.1 82.45 -0.1 82.45 -9.45 92.55 -9.45" fill="#a6b8bf" fill-rule="evenodd" stroke="none"/>
    <path d="M84.8 -2.2 L89.9 -2.2 89.9 8.0 84.8 8.0 84.8 -2.2" fill="#a6b8bf" fill-rule="evenodd" stroke="none"/>
    <path d="M43.2 -8.85 L43.2 -0.35 40.8 -0.35 40.8 -8.85 43.2 -8.85" fill="#a6b8bf" fill-rule="evenodd" stroke="none"/>
    <path d="M47.75 -8.95 L47.75 -0.35 45.35 -0.35 45.35 -8.95 47.75 -8.95" fill="#a6b8bf" fill-rule="evenodd" stroke="none"/>
    <path d="M47.15 0.75 L45.8 2.65 Q44.3 3.2 43.0 2.35 41.55 1.45 41.95 -0.15 L42.0 -0.15 42.15 -0.05 43.35 1.5 44.55 1.55 45.95 -0.2 46.9 -0.5 47.15 0.75" fill="#a6b8bf" fill-rule="evenodd" stroke="none"/>
    <path d="M128.65 -7.75 L128.65 -1.1 93.05 -1.1 93.05 -7.75 128.65 -7.75" fill="#ffd670" fill-rule="evenodd" stroke="none"/>
    <path d="M-73.3 -7.75 L-73.3 -1.1 -128.35 -1.1 -128.35 -7.75 -73.3 -7.75" fill="#ffd670" fill-rule="evenodd" stroke="none"/>
    <path d="M-42.0 -3.1 L-38.9 -2.65 -38.8 -1.45 Q-44.75 -1.05 -50.85 -1.6 L-51.1 -2.85 -51.5 -2.75 -51.9 -1.85 -56.45 -1.4 -57.15 -1.95 -52.85 -2.9 -52.8 -3.65 Q-51.75 -4.4 -50.45 -4.4 -50.05 -4.15 -49.6 -4.2 L-48.95 -5.7 Q-44.85 -6.25 -42.3 -3.45 L-42.0 -3.1" fill="#a28c88" fill-rule="evenodd" stroke="none"/>
    <path d="M-31.35 -7.95 Q-31.05 -6.95 -31.65 -6.1 L-31.95 -5.7 -32.25 -4.45 -33.25 -4.05 -34.45 -4.9 Q-36.25 -2.3 -38.55 -4.1 L-38.4 -4.85 -36.9 -5.0 -37.55 -6.45 Q-36.45 -7.6 -34.85 -7.45 L-33.9 -7.05 -31.85 -8.2 -31.35 -7.95" fill="#a28c88" fill-rule="evenodd" stroke="none"/>
    <path d="M38.1 -5.9 L39.2 -6.05 39.4 -7.15 40.65 -7.2 40.9 -5.85 40.15 -5.15 41.5 -3.65 40.45 -2.3 Q33.5 0.0 26.45 -1.5 L26.95 -2.85 30.25 -3.4 Q32.85 -6.1 35.1 -3.05 L36.55 -3.2 36.5 -4.85 37.65 -5.4 38.1 -5.9" fill="#a28c88" fill-rule="evenodd" stroke="none"/>
    <path d="M20.75 -7.55 L22.95 -6.5 Q23.95 -6.9 25.0 -7.6 L26.7 -7.8 27.3 -7.2 Q31.75 -8.6 33.35 -6.7 L32.05 -6.3 30.9 -5.0 29.2 -4.7 Q27.55 -5.1 26.25 -6.3 L23.45 -4.8 19.9 -6.3 19.9 -7.2 20.75 -7.55" fill="#a28c88" fill-rule="evenodd" stroke="none"/>
    <path d="M17.35 -6.3 L19.0 -5.5 18.75 -4.0 18.6 -3.9 15.95 -4.2 15.15 -4.7 15.15 -5.45 17.35 -6.3" fill="#a28c88" fill-rule="evenodd" stroke="none"/>
    <path d="M58.55 -5.7 Q61.0 -5.05 62.75 -3.1 L66.15 -3.3 66.7 -1.95 Q65.4 -0.25 63.85 -0.05 62.45 -0.05 61.5 -1.25 L52.75 -0.85 52.35 -1.6 53.25 -3.1 Q55.5 -3.4 57.15 -4.8 L57.8 -5.55 58.55 -5.7 M57.5 -3.45 L59.95 -3.45 58.55 -4.15 57.5 -3.45" fill="#a28c88" fill-rule="evenodd" stroke="none"/>
    <path d="M66.2 -7.0 L71.35 -7.35 71.9 -7.1 Q73.0 -5.9 71.15 -4.4 L72.6 -2.15 72.15 -1.4 67.85 -2.05 65.85 -2.0 65.35 -2.85 66.7 -4.3 66.75 -5.2 64.9 -5.85 64.6 -6.6 64.2 -6.85 63.9 -7.6 64.7 -7.9 65.45 -7.85 66.2 -7.0" fill="#a28c88" fill-rule="evenodd" stroke="none"/>
    <path d="M77.25 -5.55 L77.4 -6.75 81.85 -7.65 82.35 -5.85 82.6 -3.3 80.8 -3.25 79.8 -5.2 78.95 -5.15 78.15 -5.15 Q77.9 -5.2 77.7 -5.35 L77.25 -5.55" fill="#a28c88" fill-rule="evenodd" stroke="none"/>
    <path d="M-13.1 -5.8 L-11.2 -3.4 -6.9 -3.45 -6.05 -2.5 -6.45 -1.25 -7.45 -1.4 -7.75 -1.8 Q-10.6 -2.65 -13.05 -1.35 L-21.75 -1.6 Q-18.4 -2.35 -15.8 -4.6 L-15.55 -5.5 -13.7 -5.9 -13.1 -5.8" fill="#a28c88" fill-rule="evenodd" stroke="none"/>
    <path d="M-10.95 -7.05 Q-8.4 -8.65 -5.3 -8.35 L-2.5 -8.1 -2.35 -7.2 -3.1 -6.7 -4.05 -6.65 -4.2 -6.05 -6.0 -4.6 -8.2 -4.6 -10.85 -6.3 -10.95 -7.05" fill="#a28c88" fill-rule="evenodd" stroke="none"/>
    <path d="M-71.65 -7.55 L-63.15 -7.35 -62.8 -7.6 -60.9 -7.45 -60.6 -6.25 -60.8 -5.85 -63.4 -5.3 -65.65 -5.3 -67.05 -3.25 -71.15 -1.5 -72.6 -1.9 -73.5 -6.7 -72.25 -7.15 -71.65 -7.55" fill="#a28c88" fill-rule="evenodd" stroke="none"/>
    <path d="M84.15 -5.95 L85.1 -5.85 85.95 -4.85 87.1 -4.5 87.2 -4.2 87.3 -3.65 Q87.4 -2.85 87.0 -2.4 L87.3 -1.65 84.9 1.8 84.05 1.4 83.75 -0.55 82.1 -0.7 80.95 -2.45 81.35 -4.8 81.65 -4.8 81.8 -4.75 82.0 -4.35 82.2 -3.95 82.95 -4.85 83.5 -5.6 84.15 -5.95" fill="#663300" fill-opacity="0.2" fill-rule="evenodd" stroke="none"/>
    <path d="M78.35 -7.55 L82.35 -7.45 83.15 -6.85 82.75 -5.05 83.85 -4.8 Q85.15 -3.45 84.4 -1.8 L83.85 -0.9 82.85 -1.2 82.9 -2.3 Q81.05 -1.25 79.0 -0.85 77.6 -0.55 77.0 -1.65 78.1 -3.9 80.1 -5.1 L80.15 -5.2 79.4 -5.8 78.55 -5.55 77.75 -5.8 77.4 -7.0 78.35 -7.55" fill="#663300" fill-opacity="0.2" fill-rule="evenodd" stroke="none"/>
    <path d="M81.7 -1.75 L81.5 -1.6 Q77.1 -1.75 72.95 -0.8 75.35 -6.5 81.85 -3.0 82.1 -2.25 81.7 -1.75" fill="#663300" fill-opacity="0.2" fill-rule="evenodd" stroke="none"/>
    <path d="M91.95 -6.4 Q92.3 -4.3 90.15 -3.45 L89.3 -3.2 88.15 -3.85 88.2 -6.3 88.8 -6.9 91.25 -6.9 91.95 -6.4 M89.35 -5.25 L89.2 -5.15 89.9 -5.1 90.35 -5.6 89.35 -5.25" fill="#663300" fill-opacity="0.2" fill-rule="evenodd" stroke="none"/>
    <path d="M93.5 -6.35 L93.5 -6.1 94.6 -5.2 94.9 -4.2 94.5 -3.15 91.8 -2.25 91.15 1.45 90.75 1.8 89.15 1.6 87.5 -0.75 85.8 -1.1 85.65 -2.3 88.35 -5.1 91.45 -4.7 91.8 -4.25 92.65 -4.45 91.5 -5.65 92.0 -7.15 Q93.3 -7.35 93.6 -6.4 L93.5 -6.35" fill="#663300" fill-opacity="0.2" fill-rule="evenodd" stroke="none"/>
    <path d="M43.5 -6.95 L44.25 -6.9 Q48.3 0.15 40.5 -1.0 L40.3 -1.15 Q39.5 -2.05 40.75 -3.05 L40.05 -3.65 40.15 -4.7 42.0 -4.65 42.2 -5.85 43.1 -6.35 43.5 -6.95" fill="#663300" fill-opacity="0.2" fill-rule="evenodd" stroke="none"/>
    <path d="M48.1 -8.85 Q49.3 -6.35 48.05 -4.0 L47.6 -3.05 47.35 -2.9 46.9 -3.2 46.65 -4.05 45.85 -4.95 46.05 -8.05 47.0 -8.95 48.1 -8.85" fill="#663300" fill-opacity="0.2" fill-rule="evenodd" stroke="none"/>
    <path d="M50.05 -7.25 Q50.9 -7.5 51.75 -7.9 L52.45 -7.35 52.0 -6.2 52.9 -5.85 53.75 -4.95 Q54.35 -4.5 55.05 -4.15 L55.1 -3.7 Q56.15 -3.0 57.5 -3.4 58.85 -3.75 59.95 -2.95 L59.95 -1.3 59.35 -1.0 58.15 -2.1 52.15 -1.4 50.6 -2.1 49.7 -1.75 Q47.85 -3.4 48.6 -6.2 L48.9 -7.1 50.05 -7.25" fill="#663300" fill-opacity="0.2" fill-rule="evenodd" stroke="none"/>
    <path d="M49.2 -3.2 Q51.15 -4.45 52.7 -2.7 L51.8 -1.85 50.6 -1.75 49.1 -2.45 49.2 -3.2" fill="#663300" fill-opacity="0.2" fill-rule="evenodd" stroke="none"/>
    <path d="M34.8 -6.25 L36.65 -6.55 38.15 -7.5 39.5 -7.05 40.5 -7.05 41.15 -5.8 41.15 -5.55 40.3 -4.9 40.5 -3.8 40.5 -3.7 40.65 -3.85 41.25 -2.05 40.35 -1.35 Q39.5 -0.95 38.8 -1.6 36.1 -0.45 33.2 -0.95 L32.85 -1.55 33.0 -2.0 Q34.3 -3.05 35.9 -3.15 L37.0 -4.2 35.1 -5.15 Q34.8 -5.2 34.6 -5.5 L34.8 -6.25" fill="#663300" fill-opacity="0.2" fill-rule="evenodd" stroke="none"/>
    <path d="M29.45 -7.25 Q34.95 -9.2 40.7 -6.7 40.4 -5.45 41.05 -4.7 L41.45 -3.7 Q41.65 -2.7 40.8 -2.25 L39.9 -2.25 39.9 -3.85 38.55 -3.3 37.65 -3.1 Q34.5 -2.7 33.4 -5.5 L30.0 -5.7 29.2 -6.6 29.45 -7.25" fill="#663300" fill-opacity="0.2" fill-rule="evenodd" stroke="none"/>
    <path d="M47.25 -0.3 L47.45 0.15 47.55 1.5 46.65 2.4 41.2 2.65 40.25 1.6 40.45 0.85 41.65 0.9 41.75 0.5 42.6 -0.1 42.65 0.95 45.85 0.85 46.6 -0.3 47.25 -0.3" fill="#663300" fill-opacity="0.2" fill-rule="evenodd" stroke="none"/>
    <path d="M0.15 -4.3 L3.45 -3.0 3.05 -1.65 -2.6 -1.5 -2.75 -2.1 -6.8 -1.3 -7.2 -1.75 -10.2 -1.95 -9.0 -2.6 -9.15 -3.6 Q-6.25 -4.05 -3.25 -5.45 -1.0 -6.35 0.05 -4.55 L0.15 -4.3" fill="#663300" fill-opacity="0.2" fill-rule="evenodd" stroke="none"/>
    <path d="M1.9 -6.8 L3.1 -6.25 3.65 -6.3 4.0 -6.75 4.5 -6.8 5.1 -6.4 6.45 -6.05 6.35 -5.35 5.95 -4.6 3.2 -3.95 2.6 -4.4 Q0.55 -1.6 -2.8 -3.6 L-3.3 -4.35 -3.0 -5.1 Q-1.2 -6.65 1.1 -6.7 L1.9 -6.8" fill="#663300" fill-opacity="0.2" fill-rule="evenodd" stroke="none"/>
    <path d="M-68.75 -5.6 L-68.55 -5.15 -67.15 -4.8 -66.95 -3.95 -64.05 -4.8 -62.35 -4.0 -61.95 -2.95 -62.1 -2.35 -63.85 -2.35 -64.2 -2.1 -67.2 -2.2 -67.85 -1.65 -72.2 -1.5 -73.15 -1.55 Q-73.4 -3.3 -72.75 -5.15 L-72.45 -5.2 -71.7 -5.05 -71.45 -5.2 -71.15 -5.45 -68.75 -5.6" fill="#663300" fill-opacity="0.2" fill-rule="evenodd" stroke="none"/>
    <path d="M-69.7 -6.35 L-68.35 -3.5 -66.25 -2.6 -66.35 -1.7 -72.6 -1.75 -73.1 -2.95 -73.35 -5.15 -73.2 -6.4 -72.45 -6.7 -70.8 -5.2 -70.7 -6.05 -69.7 -6.35" fill="#663300" fill-opacity="0.2" fill-rule="evenodd" stroke="none"/>
    <path d="M-27.85 -7.6 L-27.2 -6.9 -25.65 -7.8 -24.15 -7.25 -25.4 -5.9 -26.0 -5.95 Q-28.1 -4.3 -30.2 -5.6 L-30.3 -5.8 -31.45 -6.4 -31.25 -6.6 -27.85 -7.6" fill="#663300" fill-opacity="0.2" fill-rule="evenodd" stroke="none"/>
    <path d="M-27.6 -6.5 L-26.65 -7.2 -22.6 -7.1 -25.6 -4.8 Q-26.45 -4.15 -27.65 -3.8 L-29.9 -5.05 -29.5 -7.15 -27.6 -6.5" fill="#663300" fill-opacity="0.2" fill-rule="evenodd" stroke="none"/>
    <path d="M28.15 -5.15 Q36.55 -5.05 44.95 -5.25 L51.75 -5.3 65.55 -5.3 82.55 -5.0 83.15 -5.05 83.55 -5.2 84.15 -5.25 85.95 -5.4 86.55 -5.4 90.55 -5.4 91.75 -5.3 92.55 -5.2 92.85 -5.05 92.95 -5.0 100.55 -5.2 102.55 -5.3 110.55 -5.4 126.15 -5.3 127.35 -5.2 127.75 -5.0 127.95 -4.75 128.05 -4.55 128.2 -4.3 128.25 -4.1 128.2 -3.85 128.05 -3.65 127.95 -3.4 127.75 -3.2 127.35 -2.95 126.75 -2.9 Q114.65 -2.55 102.55 -2.9 L100.55 -2.95 97.35 -3.1 96.15 -3.15 92.85 -3.1 92.55 -2.95 92.35 -2.9 91.75 -2.8 90.55 -2.8 86.55 -2.8 85.95 -2.8 84.15 -2.95 83.35 -3.05 83.05 -3.2 82.55 -3.2 65.55 -2.85 64.95 -2.85 44.95 -3.0 28.15 -2.95 26.95 -2.95 4.95 -3.05 4.05 -3.05 Q-7.3 -3.35 -18.65 -3.25 L-53.05 -2.8 Q-89.05 -2.25 -125.05 -2.8 L-125.85 -2.95 -126.25 -3.2 -126.55 -3.4 -126.65 -3.5 -128.55 -3.7 -128.85 -3.95 -128.8 -4.15 -128.65 -4.4 -128.25 -4.55 -126.55 -4.7 -126.35 -4.9 -126.05 -5.15 -125.65 -5.3 -125.05 -5.3 Q-105.2 -5.6 -85.45 -5.5 L-65.05 -5.45 -53.05 -5.35 -20.65 -5.1 -12.25 -5.05 4.05 -5.15 4.95 -5.15 10.15 -5.25 28.15 -5.15" fill="#663333" fill-opacity="0.2" fill-rule="evenodd" stroke="none"/>
    <path d="M-28.75 -4.0 L-45.55 -3.9 -52.35 -3.85 -66.15 -3.85 Q-74.65 -3.85 -83.15 -4.15 L-83.75 -4.1 -84.15 -3.95 -84.75 -3.9 -86.55 -3.75 -87.15 -3.75 -91.15 -3.75 -92.35 -3.85 -93.15 -3.95 -93.45 -4.1 -93.55 -4.15 -101.15 -3.95 -103.15 -3.85 -111.15 -3.75 -126.75 -3.85 -127.95 -3.95 -128.35 -4.15 -128.55 -4.4 -128.65 -4.6 -128.8 -4.85 -128.85 -5.05 -128.8 -5.3 -128.65 -5.5 -128.55 -5.75 -128.35 -5.95 -127.95 -6.2 -127.35 -6.25 Q-115.25 -6.6 -103.15 -6.25 L-101.15 -6.2 -97.95 -6.05 -96.75 -6.0 -93.45 -6.05 -93.15 -6.2 -92.95 -6.25 -92.35 -6.35 -91.15 -6.35 -87.15 -6.35 -86.55 -6.35 -84.75 -6.2 -83.95 -6.1 -83.65 -5.95 -83.15 -5.95 -66.15 -6.3 -65.55 -6.3 -45.55 -6.15 -28.75 -6.2 -27.55 -6.2 -5.55 -6.1 -4.65 -6.1 Q6.7 -5.8 18.05 -5.9 L52.45 -6.35 Q88.45 -6.9 124.45 -6.35 L125.25 -6.2 125.65 -5.95 125.95 -5.75 126.05 -5.65 127.95 -5.45 128.25 -5.2 128.2 -5.0 128.05 -4.75 127.65 -4.6 125.95 -4.45 125.75 -4.25 125.45 -4.0 125.05 -3.85 124.45 -3.85 Q104.6 -3.55 84.85 -3.65 L64.45 -3.7 52.45 -3.8 20.05 -4.05 11.65 -4.1 -4.65 -4.0 -5.55 -4.0 -10.75 -3.9 -28.75 -4.0" fill="#663333" fill-opacity="0.2" fill-rule="evenodd" stroke="none"/>
    <path d="M25.15 -7.95 L41.95 -7.75 43.75 -7.75 53.35 -7.9 69.15 -7.95 72.55 -7.95 78.95 -7.9 79.3 -7.8 79.5 -7.65 79.6 -7.5 79.65 -7.35 79.7 -7.2 79.7 -7.05 79.65 -6.9 79.55 -6.75 79.45 -6.6 79.3 -6.5 79.2 -6.45 Q66.3 -6.25 53.35 -6.35 L43.75 -6.55 41.95 -6.55 25.15 -6.4 22.55 -6.35 20.75 -6.3 17.55 -6.25 -4.05 -6.2 -8.8 -6.5 -8.95 -6.6 -12.65 -6.55 -22.65 -6.4 -24.45 -6.35 Q-31.65 -6.2 -38.85 -6.35 L-43.85 -6.4 -45.05 -6.45 -45.65 -6.5 -101.45 -6.45 -120.25 -6.4 -123.25 -6.45 -124.25 -6.5 -125.05 -6.55 -127.05 -6.75 -127.35 -6.8 -127.9 -7.25 -127.9 -7.4 -127.85 -7.55 -127.75 -7.7 -127.45 -7.8 -127.15 -7.7 -126.65 -7.7 -123.25 -7.85 -120.25 -7.9 -93.45 -7.85 -92.85 -7.85 -85.05 -7.85 -76.65 -7.8 Q-51.55 -7.55 -26.45 -7.95 L-24.45 -7.95 -22.65 -7.9 -21.65 -7.85 -17.25 -7.75 -8.9 -7.75 -8.7 -7.85 -8.45 -7.9 -7.85 -7.95 -4.85 -8.0 -4.05 -8.05 -2.45 -8.05 -2.45 -8.1 17.55 -8.0 25.15 -7.95" fill="#ffffff" fill-opacity="0.2" fill-rule="evenodd" stroke="none"/>
    <path d="M92.7 -8.75 L92.85 -8.6 92.95 -8.45 93.0 -8.3 93.05 -8.15 93.0 -8.0 92.95 -7.85 92.85 -7.7 92.7 -7.55 92.35 -7.45 88.55 -7.4 82.35 -7.4 82.0 -7.5 81.8 -7.65 81.65 -7.8 81.6 -7.95 81.6 -8.1 81.6 -8.25 81.65 -8.4 81.7 -8.55 81.85 -8.7 82.0 -8.8 82.1 -8.85 82.35 -8.85 82.35 -8.9 88.55 -8.9 92.35 -8.85 92.7 -8.75" fill="#ffffff" fill-opacity="0.2" fill-rule="evenodd" stroke="none"/>
    <path d="M90.55 -9.1 L90.9 -9.0 91.1 -8.85 91.2 -8.7 91.25 -8.55 91.3 -8.4 91.3 -8.25 91.25 -8.1 91.15 -7.95 91.05 -7.8 90.8 -7.65 90.75 -7.5 90.75 -7.35 90.7 -7.2 90.65 -7.05 90.6 -6.9 90.45 -6.75 90.35 -6.65 Q88.15 -6.15 86.05 -6.7 L85.7 -6.65 85.35 -6.55 84.75 -6.55 84.35 -6.65 84.05 -6.8 83.8 -6.95 83.7 -7.1 83.6 -7.25 83.55 -7.4 83.55 -7.55 83.55 -7.7 83.6 -7.85 83.7 -8.0 83.65 -8.1 83.3 -8.3 83.0 -8.45 82.9 -8.6 82.9 -8.75 82.9 -8.9 83.0 -9.05 83.15 -9.15 83.35 -9.2 83.7 -9.1 84.15 -9.05 87.95 -9.35 88.25 -9.3 88.55 -9.25 88.9 -9.15 89.05 -9.05 89.1 -9.05 89.35 -9.1 90.55 -9.1" fill="#ffffff" fill-opacity="0.2" fill-rule="evenodd" stroke="none"/>
    <path d="M85.95 -0.9 L86.25 -0.8 86.4 -0.65 86.45 -0.5 86.5 -0.35 86.45 -0.2 86.45 -0.05 86.65 0.1 86.75 0.25 86.85 0.4 86.95 2.35 86.9 4.75 86.9 6.7 87.0 6.85 87.2 7.0 87.35 7.15 87.6 7.45 87.75 7.75 87.75 7.9 87.7 8.05 87.65 8.2 87.55 8.35 87.4 8.5 87.25 8.6 86.95 8.65 86.75 8.65 86.4 8.6 86.3 8.75 86.1 8.9 85.75 9.0 85.4 8.9 85.2 8.75 85.05 8.6 Q84.95 8.3 85.0 8.0 L85.0 7.4 85.05 6.65 85.05 6.35 85.0 6.2 84.95 6.05 84.9 5.9 84.9 5.75 84.9 5.6 84.9 5.3 84.9 5.0 84.85 4.85 84.8 4.7 84.8 4.55 84.75 4.4 84.7 4.25 84.75 2.9 84.85 1.1 85.15 -0.25 85.25 -0.4 85.35 -0.55 85.5 -0.7 85.65 -0.8 85.7 -0.85 85.95 -0.85 85.95 -0.9" fill="#ffffff" fill-opacity="0.2" fill-rule="evenodd" stroke="none"/>
    <path d="M93.75 -7.0 L118.55 -7.35 120.55 -7.35 121.75 -7.35 126.15 -7.35 126.5 -7.25 126.7 -7.1 126.8 -6.95 126.9 -6.8 126.95 -6.65 126.95 -6.5 126.9 -6.35 126.85 -6.2 126.75 -6.05 126.6 -5.9 126.45 -5.8 Q110.2 -5.65 93.95 -6.05 L93.65 -6.15 93.5 -6.3 93.45 -6.45 93.45 -6.6 93.5 -6.75 93.6 -6.9 93.75 -7.0" fill="#ffffff" fill-opacity="0.2" fill-rule="evenodd" stroke="none"/>
    <path d="M42.15 -8.35 L42.4 -8.25 42.5 -8.1 42.55 -7.95 42.55 -7.8 42.55 -7.5 42.55 -7.2 42.5 -7.05 42.45 -6.9 42.35 -6.8 42.15 -6.75 41.75 -6.75 41.5 -6.85 41.4 -7.0 41.35 -7.15 41.35 -7.3 41.35 -7.45 41.45 -7.6 41.55 -7.75 41.55 -7.9 41.55 -8.05 41.65 -8.2 41.75 -8.25 41.95 -8.3 41.95 -8.35 42.15 -8.35" fill="#ffffff" fill-opacity="0.2" fill-rule="evenodd" stroke="none"/>
    <path d="M47.0 -8.35 L47.15 -8.25 47.35 -8.2 47.95 -8.1 48.2 -8.05 48.3 -7.9 48.3 -7.75 48.25 -7.6 48.2 -7.5 48.15 -7.45 47.95 -7.4 47.75 -7.35 47.5 -7.2 47.45 -7.1 47.4 -6.95 47.35 -6.8 47.25 -6.65 47.15 -6.55 46.95 -6.5 46.75 -6.55 46.5 -6.65 46.35 -6.75 45.95 -6.75 45.65 -6.85 45.5 -7.0 45.45 -7.15 45.5 -7.3 45.6 -7.4 45.75 -7.45 45.95 -7.5 46.1 -7.6 46.1 -7.75 46.1 -7.9 46.1 -8.05 46.15 -8.2 46.25 -8.3 46.35 -8.35 46.55 -8.4 46.75 -8.4 46.75 -8.45 47.0 -8.35" fill="#ffffff" fill-opacity="0.2" fill-rule="evenodd" stroke="none"/>
    <path d="M42.55 -8.4 L42.65 -8.4 42.8 -8.25 42.85 -8.1 43.05 -7.95 42.85 -7.85 42.65 -7.7 42.45 -7.55 42.2 -7.55 42.1 -7.7 42.1 -7.85 42.2 -8.0 42.25 -8.15 42.3 -8.3 42.4 -8.35 42.55 -8.4" fill="#ffffff" fill-opacity="0.2" fill-rule="evenodd" stroke="none"/>
    <path d="M47.65 -7.7 L47.55 -7.65 47.25 -7.55 46.8 -7.55 46.7 -7.7 46.7 -7.85 46.8 -7.9 46.95 -7.95 46.95 -8.0 47.25 -7.95 47.6 -7.8 47.65 -7.7" fill="#ffffff" fill-opacity="0.2" fill-rule="evenodd" stroke="none"/>
    <path d="M-126.05 -6.9 L-125.75 -6.8 -125.6 -6.65 -125.55 -6.55 -125.5 -6.5 -125.25 -6.5 -124.65 -6.6 -124.25 -6.7 -123.6 -6.85 -123.2 -6.95 -123.05 -7.05 -122.95 -7.1 -122.65 -7.1 -122.65 -7.15 -121.65 -7.1 -120.45 -7.05 -119.05 -6.95 -118.75 -6.85 -118.6 -6.75 -117.25 -6.7 -117.05 -6.55 -116.95 -6.45 -116.95 -6.3 -117.0 -6.15 -117.05 -6.1 Q-117.15 -6.0 -117.25 -6.0 L-118.65 -5.9 -118.8 -5.8 -120.2 -5.7 -120.45 -5.65 -122.4 -5.5 -122.55 -5.4 -123.0 -5.35 -123.2 -5.25 -123.45 -5.2 -124.45 -5.1 -124.85 -5.0 -125.45 -4.9 -125.7 -4.75 -125.9 -4.6 -126.0 -4.45 -126.15 -4.3 -126.25 -4.15 -126.35 -4.0 -126.45 -3.85 -126.5 -3.7 -126.5 -3.55 -126.5 -3.4 -126.5 -3.25 -126.5 -3.1 -126.55 -2.95 -126.6 -2.8 -126.7 -2.65 -126.75 -2.5 -126.85 -2.35 -126.95 -2.2 -127.1 -2.1 -127.2 -2.05 -127.45 -2.0 -127.8 -2.1 -128.0 -2.25 -128.15 -2.4 -128.2 -2.7 -128.2 -2.85 -128.2 -3.0 -128.25 -3.15 -128.25 -3.45 -128.25 -3.6 -128.2 -4.5 -128.2 -4.65 -128.2 -4.95 -128.2 -5.1 -128.2 -5.25 -128.2 -5.4 -128.2 -5.7 -128.15 -5.85 -128.1 -6.0 -128.05 -6.15 -127.9 -6.3 -127.75 -6.45 -127.6 -6.55 -127.5 -6.6 -127.25 -6.65 -127.05 -6.65 -126.7 -6.7 -126.55 -6.8 -126.5 -6.85 -126.25 -6.9 -126.05 -6.9" fill="#ffffff" fill-opacity="0.2" fill-rule="evenodd" stroke="none"/>
    <path d="M-6.25 -3.2 L0.55 -3.15 10.15 -3.1 25.75 -3.05 36.95 -2.95 40.8 -2.9 40.9 -2.85 42.55 -2.8 42.8 -2.7 42.9 -2.65 44.65 -2.5 44.75 -2.35 44.65 -2.2 42.85 -2.05 42.75 -1.95 42.55 -1.9 40.9 -1.85 40.8 -1.8 40.55 -1.75 36.95 -1.7 25.75 -1.65 10.15 -1.6 -112.85 -1.75 Q-120.45 -1.8 -128.05 -2.1 L-128.4 -2.15 -128.5 -2.3 -128.5 -2.45 -128.4 -2.55 -128.25 -2.6 -128.05 -2.65 -127.45 -2.7 -126.85 -2.75 Q-82.25 -3.35 -37.65 -3.15 L-29.65 -3.2 -6.25 -3.2" fill="#ffffff" fill-opacity="0.2" fill-rule="evenodd" stroke="none"/>
    <path d="M82.7 -2.75 L83.1 -2.85 83.2 -2.7 82.85 -2.55 82.65 -2.45 82.55 -2.4 Q70.0 -1.6 57.35 -2.25 L54.85 -2.6 54.95 -2.65 56.15 -2.75 56.35 -2.85 57.35 -2.9 57.55 -2.95 58.75 -2.95 58.75 -3.0 74.15 -3.0 82.7 -2.75" fill="#ffffff" fill-opacity="0.2" fill-rule="evenodd" stroke="none"/>
    <path d="M45.0 0.3 L45.3 -0.05 45.4 -0.2 45.55 -0.35 45.9 -0.65 46.0 -0.8 46.35 -0.85 46.35 -0.9 46.65 -0.8 46.8 -0.65 46.85 -0.5 46.9 -0.35 46.9 -0.2 46.9 -0.05 46.85 0.1 46.85 0.25 46.85 0.4 46.9 0.55 46.9 0.7 46.9 0.85 46.85 1.0 46.8 1.15 46.65 1.3 46.35 1.4 45.6 1.65 45.5 1.8 45.55 1.95 45.6 2.1 45.5 2.25 45.4 2.4 45.25 2.5 44.1 2.65 42.75 2.55 42.45 2.45 42.3 2.3 42.05 2.0 41.75 1.7 41.7 1.55 41.6 1.4 41.5 1.25 41.35 1.1 41.3 0.8 41.3 0.35 41.3 -0.1 41.35 -0.4 41.45 -0.5 41.55 -0.55 41.75 -0.6 42.0 -0.5 42.1 -0.35 42.25 -0.2 42.3 -0.05 42.35 0.1 42.45 0.25 42.6 0.4 42.75 0.55 43.05 0.7 43.15 0.85 43.5 1.0 44.4 1.0 44.65 0.7 45.0 0.3" fill="#663333" fill-opacity="0.2" fill-rule="evenodd" stroke="none"/>
    <path d="M42.2 -0.3 L42.35 -0.2 42.6 -0.1 42.75 0.05 42.95 0.2 43.1 0.35 43.25 0.5 43.3 0.65 43.4 0.8 43.4 0.95 43.4 1.1 43.4 1.25 43.35 1.4 43.25 1.55 43.15 1.65 42.95 1.7 42.65 1.6 42.45 1.3 42.15 1.0 41.8 0.7 41.6 0.55 41.5 0.4 41.5 0.25 41.5 0.1 41.5 -0.05 41.55 -0.2 41.65 -0.3 41.75 -0.35 41.95 -0.35 41.95 -0.4 42.2 -0.3" fill="#663333" fill-opacity="0.2" fill-rule="evenodd" stroke="none"/>
    <path d="M45.9 0.65 L45.95 0.5 46.0 0.35 46.0 0.2 46.0 0.05 46.1 -0.1 46.25 -0.25 46.4 -0.4 46.75 -0.45 46.75 -0.5 47.05 -0.4 47.2 -0.25 47.25 -0.1 47.3 0.05 47.4 0.2 47.45 0.35 47.45 0.5 47.4 0.65 47.3 0.8 47.2 0.95 47.2 1.1 47.1 1.25 47.0 1.4 46.75 1.5 46.45 1.45 46.3 1.6 46.2 1.7 46.15 1.75 45.95 1.8 45.7 1.7 45.6 1.55 45.6 1.4 45.65 1.25 45.7 1.1 45.7 0.95 45.85 0.8 45.9 0.65" fill="#663333" fill-opacity="0.2" fill-rule="evenodd" stroke="none"/>
    <path d="M43.55 -8.0 L43.7 -8.0 43.75 -8.1 43.8 -8.15 43.95 -8.15 44.05 -8.15 44.15 -8.0 44.2 -7.85 44.25 -7.7 44.2 -7.55 44.1 -7.4 44.05 -7.25 44.1 -6.2 44.1 -5.0 44.15 -3.95 44.2 -3.8 44.25 -3.65 44.3 -3.5 44.35 -3.35 44.45 -3.2 44.5 -2.6 44.5 -2.0 44.45 -1.25 44.35 -1.1 44.2 -0.95 43.95 -0.85 43.65 -0.95 43.5 -1.1 43.45 -1.4 43.4 -1.7 43.4 -2.0 43.4 -2.3 43.4 -2.45 43.3 -2.6 43.3 -2.75 43.3 -2.9 43.15 -3.35 43.0 -3.8 42.8 -4.4 42.8 -4.55 42.8 -4.7 42.8 -4.85 42.8 -5.0 42.75 -5.15 42.7 -5.3 42.65 -5.45 42.6 -5.6 42.6 -6.2 42.6 -6.8 42.6 -7.55 42.65 -7.7 42.75 -7.85 42.85 -8.0 42.95 -8.1 43.15 -8.15 43.4 -8.05 43.55 -8.0" fill="#663333" fill-opacity="0.2" fill-rule="evenodd" stroke="none"/>
    <path d="M47.75 -7.4 L47.75 -7.85 47.8 -8.0 47.9 -8.15 48.0 -8.25 48.1 -8.3 48.35 -8.3 48.35 -8.35 48.6 -8.3 48.75 -8.3 49.05 -8.2 49.2 -8.05 49.25 -7.9 49.3 -7.75 49.3 -7.6 49.3 -7.45 49.3 -7.3 49.3 -7.05 49.45 -7.1 49.6 -7.2 49.7 -7.25 49.95 -7.3 50.3 -7.2 50.5 -7.05 50.6 -6.9 50.65 -6.75 50.7 -5.25 50.7 -3.9 50.7 -2.1 50.65 -1.95 50.6 -1.8 50.55 -1.65 50.45 -1.5 50.3 -1.35 50.0 -1.2 49.95 -1.05 49.85 -0.9 49.75 -0.75 49.65 -0.6 49.5 -0.5 49.4 -0.45 49.15 -0.4 48.8 -0.5 48.6 -0.65 48.45 -0.8 48.2 -0.95 48.0 -1.1 47.9 -1.25 47.85 -1.55 47.8 -1.85 47.8 -2.3 47.8 -2.6 47.85 -2.75 47.9 -2.9 47.9 -3.05 47.9 -3.2 47.9 -3.35 47.9 -3.5 47.9 -3.65 47.85 -3.8 47.8 -3.95 47.75 -4.1 47.75 -5.15 47.75 -6.35 47.75 -7.4" fill="#663333" fill-opacity="0.2" fill-rule="evenodd" stroke="none"/>
    <path d="M48.6 -6.7 L48.55 -6.85 48.55 -7.0 48.55 -7.15 48.55 -7.3 48.55 -7.45 48.6 -7.6 48.7 -7.75 48.8 -7.85 48.9 -7.9 49.15 -7.9 49.15 -7.95 49.45 -7.85 49.65 -7.7 49.8 -7.55 49.85 -7.4 49.95 -7.25 49.95 -7.1 49.95 -6.95 49.95 -6.8 49.95 -6.65 50.0 -6.5 50.05 -6.35 50.1 -6.2 50.15 -6.05 50.15 -5.9 50.15 -5.75 50.15 -5.6 50.15 -5.45 50.2 -5.3 50.25 -5.15 50.25 -5.0 50.3 -4.85 50.35 -4.7 50.35 -4.1 50.35 -3.2 50.35 -2.15 50.35 -2.0 50.35 -1.85 50.25 -1.7 50.2 -1.55 50.1 -1.45 50.0 -1.4 49.75 -1.35 49.55 -1.35 49.2 -1.45 49.05 -1.6 48.95 -1.75 48.95 -1.9 48.95 -2.05 49.0 -2.2 49.05 -2.35 49.05 -2.5 49.05 -2.65 49.05 -2.8 49.0 -2.95 48.95 -3.1 48.9 -3.25 48.85 -3.4 48.85 -4.0 48.85 -4.9 48.85 -5.95 48.85 -6.1 48.8 -6.25 48.75 -6.4 48.7 -6.55 48.6 -6.7" fill="#663333" fill-opacity="0.2" fill-rule="evenodd" stroke="none"/>
    <path d="M43.3 -8.3 L43.55 -8.35 43.85 -8.3 43.95 -8.35 44.0 -8.5 44.1 -8.65 44.35 -8.7 44.35 -8.75 44.6 -8.65 44.7 -8.5 44.75 -8.35 44.75 -8.2 44.75 -8.05 44.65 -7.9 44.6 -7.75 44.55 -7.6 44.45 -7.3 44.4 -7.15 44.4 -6.85 44.4 -6.4 44.4 -5.95 44.4 -5.65 44.45 -5.5 44.5 -5.35 44.55 -5.2 44.55 -4.9 44.55 -4.45 44.55 -4.15 44.55 -4.0 44.6 -3.85 44.65 -3.7 44.7 -3.55 44.75 -3.4 44.75 -2.65 44.75 -1.9 44.7 -1.0 44.65 -0.85 44.55 -0.7 44.4 -0.6 44.15 -0.55 43.8 -0.65 43.65 -0.8 43.55 -0.95 43.55 -1.1 43.55 -1.25 43.55 -1.4 43.55 -1.55 43.5 -1.7 43.45 -1.85 43.45 -2.3 43.45 -2.9 43.45 -3.5 43.4 -3.65 43.35 -3.8 43.35 -4.1 43.35 -4.55 43.35 -4.85 43.35 -5.0 43.3 -5.15 43.25 -5.3 43.2 -5.45 43.15 -5.6 43.15 -5.75 43.15 -5.9 43.15 -6.05 43.15 -6.2 43.1 -6.35 43.0 -6.5 42.95 -6.8 42.95 -7.25 42.95 -7.7 42.95 -7.85 43.0 -8.0 43.1 -8.15 43.2 -8.25 43.3 -8.3" fill="#663333" fill-opacity="0.2" fill-rule="evenodd" stroke="none"/>
    <path d="M93.2 -8.05 L93.25 -7.9 93.35 -7.6 93.45 -7.3 93.5 -7.15 93.5 -7.0 93.5 -6.85 93.5 -6.7 93.55 -6.55 93.6 -6.55 93.65 -6.6 93.65 -6.75 93.65 -6.9 93.65 -7.05 93.7 -7.2 93.75 -7.35 93.9 -7.5 94.1 -7.6 94.35 -7.65 94.7 -7.55 94.85 -7.4 94.95 -7.25 95.0 -7.1 95.05 -6.95 95.05 -6.8 95.05 -6.65 95.05 -6.55 95.15 -6.6 95.3 -6.75 95.45 -6.9 95.6 -7.0 95.7 -7.05 95.95 -7.1 96.3 -7.0 96.5 -6.85 96.75 -6.85 97.15 -6.95 97.5 -6.85 97.75 -6.85 98.15 -6.95 98.5 -6.85 98.7 -6.7 98.8 -6.55 98.9 -6.4 98.95 -6.25 98.95 -5.95 98.95 -5.65 98.95 -5.35 99.0 -5.2 99.05 -5.05 99.1 -4.9 99.1 -4.75 99.1 -4.6 99.1 -4.45 99.1 -4.3 99.2 -4.15 99.25 -4.0 99.3 -3.85 99.3 -3.7 99.35 -3.55 99.45 -3.4 99.5 -3.25 99.5 -3.1 99.5 -2.95 99.55 -2.8 99.55 -2.65 99.5 -2.5 99.45 -2.4 99.35 -2.35 99.05 -2.25 98.75 -2.15 98.4 -2.25 98.25 -2.4 98.2 -2.3 98.15 -2.15 98.1 -2.0 98.05 -1.85 98.0 -1.7 97.85 -1.55 97.75 -1.45 97.65 -1.4 97.35 -1.35 96.9 -1.45 96.65 -1.6 96.5 -1.75 96.45 -1.9 96.4 -2.05 96.2 -2.35 95.85 -2.8 95.8 -2.95 95.8 -3.1 95.75 -3.25 95.7 -3.25 95.6 -3.1 95.45 -2.8 95.15 -2.35 95.05 -2.2 94.75 -2.05 94.65 -1.9 94.65 -1.75 94.6 -1.6 94.55 -1.45 94.45 -1.3 94.3 -1.15 93.95 -1.05 93.6 -1.15 93.4 -1.3 93.3 -1.45 93.25 -1.6 93.1 -1.9 93.0 -2.05 92.95 -2.2 92.95 -2.35 92.95 -2.5 92.9 -2.65 92.85 -2.8 92.8 -2.95 92.7 -3.85 92.4 -5.2 92.2 -6.1 92.2 -6.4 92.2 -7.0 92.2 -7.6 92.2 -7.75 92.2 -7.9 92.3 -8.05 92.4 -8.2 92.75 -8.25 92.75 -8.3 93.05 -8.2 93.2 -8.05" fill="#663333" fill-opacity="0.2" fill-rule="evenodd" stroke="none"/>
    <path d="M87.55 -2.8 L87.75 -2.8 88.05 -2.7 88.35 -2.65 88.7 -2.55 88.85 -2.4 88.95 -2.3 89.3 -2.2 89.5 -2.05 89.85 -1.9 90.0 -1.75 90.1 -1.6 90.15 -1.45 90.2 -1.3 90.15 -1.15 90.05 -1.0 90.05 -0.7 90.05 -0.55 90.05 -0.25 90.05 0.05 90.05 0.2 90.05 0.5 90.1 0.65 90.15 0.8 90.2 0.95 90.3 1.1 90.35 1.25 90.4 1.4 90.45 1.55 90.45 1.7 90.45 1.85 90.45 2.0 90.45 2.15 90.45 2.45 90.65 3.5 90.65 5.0 90.7 6.8 90.65 7.4 90.6 7.55 90.55 7.7 90.35 7.85 90.2 7.95 89.9 8.05 89.75 8.2 89.6 8.3 89.35 8.35 89.0 8.25 88.8 8.1 88.7 7.95 88.65 7.65 88.65 7.35 88.65 6.9 88.6 6.6 88.6 6.15 88.55 6.05 88.35 5.95 88.0 5.85 87.8 5.7 87.7 5.55 87.65 4.05 87.65 1.5 87.65 -1.05 87.6 -1.35 87.55 -1.45 87.5 -1.5 87.2 -1.6 87.05 -1.75 86.95 -1.9 86.9 -2.05 86.9 -2.2 86.9 -2.35 87.0 -2.5 87.15 -2.65 87.3 -2.75 87.55 -2.75 87.55 -2.8" fill="#663333" fill-opacity="0.2" fill-rule="evenodd" stroke="none"/>
    <path d="M87.9 -3.95 L88.15 -3.8 88.45 -3.65 88.6 -3.5 89.15 -3.05 90.3 -2.45 90.55 -2.3 90.7 -2.15 90.8 -2.0 90.9 -1.85 90.95 -1.7 91.0 -1.55 91.05 -1.4 91.15 -1.25 91.2 -1.1 91.25 -0.95 91.25 -0.8 91.25 -0.65 91.25 -0.5 91.2 -0.35 91.15 -0.2 91.05 -0.05 90.9 0.05 90.8 0.1 90.55 0.15 90.2 0.05 90.05 -0.05 89.95 -0.05 89.75 -0.05 89.4 -0.15 89.2 -0.3 89.1 -0.45 88.85 -0.75 88.4 -1.2 87.65 -1.6 86.75 -1.65 86.45 -1.75 86.3 -1.9 86.25 -2.05 86.25 -2.2 86.25 -2.35 86.35 -2.5 86.15 -2.65 86.0 -2.8 85.9 -2.95 85.9 -3.1 85.85 -3.25 85.85 -3.4 85.85 -3.55 85.95 -3.7 86.05 -3.85 86.2 -3.95 86.3 -4.0 86.55 -4.0 86.55 -4.05 87.55 -4.05 87.9 -3.95" fill="#663333" fill-opacity="0.2" fill-rule="evenodd" stroke="none"/>
    <path d="M86.15 -7.15 L86.5 -7.05 86.85 -6.9 87.05 -6.75 87.15 -6.6 87.2 -6.45 87.2 -6.15 87.2 -5.55 87.15 -4.95 87.1 -4.8 86.95 -4.65 86.8 -4.5 86.45 -4.2 86.0 -4.05 85.8 -3.95 85.4 -3.75 85.15 -3.7 84.85 -3.6 84.55 -3.5 84.15 -3.5 83.8 -3.6 83.65 -3.75 83.55 -3.9 83.5 -4.05 83.5 -4.2 83.55 -4.35 83.8 -4.6 84.3 -4.95 84.55 -5.0 84.8 -5.1 84.8 -5.25 84.8 -5.4 84.75 -5.7 84.75 -6.15 84.75 -6.3 84.8 -6.45 84.95 -6.6 85.1 -6.7 85.35 -6.8 85.45 -6.9 85.55 -6.95 85.8 -7.05 86.15 -7.1 86.15 -7.15" fill="#663333" fill-opacity="0.2" fill-rule="evenodd" stroke="none"/>
    <path d="M90.35 -6.7 L90.35 -6.75 90.55 -6.75 90.85 -6.65 91.05 -6.5 91.2 -6.35 91.35 -6.2 91.45 -6.05 91.5 -5.9 91.55 -5.75 91.55 -5.6 91.55 -5.45 91.55 -5.3 91.55 -5.15 91.55 -5.0 91.55 -4.85 91.45 -4.7 91.4 -4.55 91.2 -4.4 91.05 -4.25 90.75 -3.95 90.45 -3.7 90.4 -3.65 90.15 -3.6 88.75 -3.7 88.45 -3.8 88.35 -3.95 88.3 -4.1 88.3 -4.25 88.35 -4.4 88.45 -4.5 88.75 -4.6 89.95 -4.75 90.1 -4.9 90.25 -5.05 90.35 -5.2 90.35 -5.35 90.3 -5.45 90.1 -5.6 89.8 -5.7 89.7 -5.85 89.6 -6.0 89.6 -6.15 89.6 -6.3 89.7 -6.45 89.8 -6.6 90.1 -6.7 90.35 -6.7" fill="#663333" fill-opacity="0.2" fill-rule="evenodd" stroke="none"/>
    <path d="M86.55 4.85 L88.15 4.9 89.1 5.05 89.25 5.2 89.35 5.35 89.4 5.5 89.45 5.65 89.45 5.8 89.45 5.95 89.7 6.1 90.1 6.1 90.5 5.95 90.6 6.1 Q90.45 6.2 90.25 6.25 L89.85 6.4 89.85 6.55 89.75 6.7 89.6 6.85 89.45 7.0 89.4 7.15 89.3 7.3 89.25 7.45 89.15 7.6 89.05 7.75 88.8 7.9 88.65 8.05 88.45 8.2 88.2 8.35 88.0 8.45 87.75 8.5 86.55 8.5 86.2 8.4 85.9 8.25 85.65 8.1 85.4 7.95 85.25 7.8 85.15 7.65 85.15 7.5 85.15 7.35 85.15 7.2 85.15 7.05 85.15 6.75 85.2 6.6 85.25 6.45 85.35 6.3 85.4 6.15 85.45 6.0 85.5 5.85 85.55 5.7 85.6 5.55 85.75 5.4 85.9 5.25 86.05 5.1 86.2 4.95 86.55 4.9 86.55 4.85" fill="#663333" fill-opacity="0.2" fill-rule="evenodd" stroke="none"/>
    <path d="M-71.6 -8.55 L-71.45 -8.4 -71.35 -8.25 -71.35 -7.95 -71.35 -7.5 -71.35 -7.05 -71.35 -6.9 -71.3 -6.75 -71.25 -6.6 -71.25 -6.3 -71.25 -5.7 -71.25 -5.1 -71.25 -4.95 -71.25 -4.8 -71.15 -4.65 -71.1 -4.5 -71.05 -4.35 -71.0 -4.2 -71.0 -4.05 -71.0 -3.9 -71.05 -3.75 -71.1 -3.6 -71.25 -3.45 -71.25 -3.15 -71.25 -2.55 -71.25 -1.95 -71.25 -1.8 -71.25 -1.65 -71.35 -1.5 -71.4 -1.35 -71.5 -1.25 -71.6 -1.2 -71.85 -1.15 -72.1 -1.15 -72.2 -1.1 -72.45 -1.05 -72.65 -1.05 -73.0 -1.15 -73.2 -1.3 -73.3 -1.45 -73.35 -1.6 -73.35 -2.05 -73.3 -2.65 -73.3 -3.25 -73.3 -3.4 -73.3 -3.55 -73.4 -3.7 -73.45 -3.85 -73.5 -4.3 -73.45 -4.9 -73.45 -5.5 -73.4 -5.65 -73.35 -5.8 -73.3 -5.95 -73.25 -6.1 -73.25 -6.25 -73.3 -6.4 -73.3 -6.55 -73.3 -6.7 -73.25 -6.85 -73.1 -7.0 -72.95 -7.15 -72.8 -7.3 -72.4 -7.45 -72.35 -7.6 -72.35 -7.75 -72.35 -7.9 -72.35 -8.2 -72.3 -8.35 -72.2 -8.5 -72.05 -8.6 -71.85 -8.6 -71.85 -8.65 -71.6 -8.55" fill="#663333" fill-opacity="0.2" fill-rule="evenodd" stroke="none"/>
    <path d="M126.15 -2.05 L126.1 -2.1 126.05 -2.15 125.95 -2.25 125.9 -2.3 125.85 -2.35 125.8 -2.5 125.7 -2.5 125.6 -2.6 125.55 -2.65 125.45 -2.65 125.4 -2.7 124.0 -4.0 122.5 -5.4 121.6 -6.3 121.55 -6.45 121.55 -6.55 121.5 -6.7 121.65 -6.85 121.8 -7.0 121.95 -6.95 122.05 -6.95 123.35 -5.75 124.7 -4.3 125.6 -3.3 125.65 -3.25 125.75 -3.25 Q125.85 -3.15 125.95 -3.15 L126.0 -3.1 126.05 -3.05 126.2 -2.9 126.35 -2.75 126.4 -2.7 126.4 -2.6 126.45 -2.45 126.5 -2.4 126.45 -2.25 126.4 -2.1 126.45 -2.05 126.25 -2.05 126.15 -2.05" fill="#333333" fill-rule="evenodd" stroke="none"/>
    <path d="M117.15 -2.05 L117.1 -2.1 117.05 -2.15 116.95 -2.25 116.9 -2.3 116.85 -2.35 116.8 -2.5 116.7 -2.5 116.6 -2.6 116.55 -2.65 116.45 -2.65 116.4 -2.7 115.0 -4.0 113.5 -5.4 112.6 -6.3 112.55 -6.45 112.55 -6.55 112.5 -6.7 112.65 -6.85 112.8 -7.0 112.95 -6.95 113.05 -6.95 114.35 -5.75 115.7 -4.3 116.6 -3.3 116.65 -3.25 116.75 -3.25 Q116.85 -3.15 116.95 -3.15 L117.0 -3.1 117.05 -3.05 117.2 -2.9 117.35 -2.75 117.4 -2.7 117.4 -2.6 117.45 -2.45 117.5 -2.4 117.45 -2.25 117.4 -2.1 117.45 -2.05 117.25 -2.05 117.15 -2.05" fill="#333333" fill-rule="evenodd" stroke="none"/>
    <path d="M108.15 -2.05 L108.1 -2.1 108.05 -2.15 107.95 -2.25 107.9 -2.3 107.85 -2.35 107.8 -2.5 107.7 -2.5 107.6 -2.6 107.55 -2.65 107.45 -2.65 107.4 -2.7 106.0 -4.0 104.5 -5.4 103.6 -6.3 103.55 -6.45 103.55 -6.55 103.5 -6.7 103.65 -6.85 103.8 -7.0 103.95 -6.95 104.05 -6.95 105.35 -5.75 106.7 -4.3 107.6 -3.3 107.65 -3.25 107.75 -3.25 Q107.85 -3.15 107.95 -3.15 L108.0 -3.1 108.05 -3.05 108.2 -2.9 108.35 -2.75 108.4 -2.7 108.4 -2.6 108.45 -2.45 108.5 -2.4 108.45 -2.25 108.4 -2.1 108.45 -2.05 108.25 -2.05 108.15 -2.05" fill="#333333" fill-rule="evenodd" stroke="none"/>
    <path d="M99.15 -2.05 L99.1 -2.1 99.05 -2.15 98.95 -2.25 98.9 -2.3 98.85 -2.35 98.8 -2.5 98.7 -2.5 98.6 -2.6 98.55 -2.65 98.45 -2.65 98.4 -2.7 97.0 -4.0 95.5 -5.4 94.6 -6.3 94.55 -6.45 94.55 -6.55 94.5 -6.7 94.65 -6.85 94.8 -7.0 94.95 -6.95 95.05 -6.95 96.35 -5.75 97.7 -4.3 98.6 -3.3 98.65 -3.25 98.75 -3.25 Q98.85 -3.15 98.95 -3.15 L99.0 -3.1 99.05 -3.05 99.2 -2.9 99.35 -2.75 99.4 -2.7 99.4 -2.6 99.45 -2.45 99.5 -2.4 99.45 -2.25 99.4 -2.1 99.45 -2.05 99.25 -2.05 99.15 -2.05" fill="#333333" fill-rule="evenodd" stroke="none"/>
    <path d="M94.1 -7.3 L94.35 -7.25 94.5 -7.2 94.6 -7.1 94.6 -7.0 94.6 -6.9 94.55 -6.8 94.55 -6.75 94.5 -6.7 94.25 -6.65 94.15 -6.55 94.1 -6.45 94.0 -6.4 94.1 -6.4 94.25 -6.45 94.7 -6.75 95.0 -6.95 95.05 -7.05 95.15 -7.1 95.2 -7.1 95.35 -7.15 95.6 -7.1 95.65 -7.0 95.75 -6.9 95.75 -6.8 95.8 -6.7 95.8 -6.65 95.8 -6.55 95.75 -6.45 95.75 -6.35 95.65 -6.25 95.3 -5.95 94.8 -5.5 94.65 -5.3 94.85 -5.35 94.95 -5.45 95.25 -5.65 95.45 -5.7 95.55 -5.8 95.6 -5.9 95.75 -6.0 96.0 -6.05 96.2 -6.0 96.35 -5.9 96.4 -5.8 96.45 -5.7 96.5 -5.65 96.5 -5.55 96.5 -5.45 96.45 -5.35 95.95 -4.7 95.35 -4.15 94.9 -3.65 94.8 -3.55 95.65 -3.8 96.5 -4.3 96.6 -4.4 96.65 -4.45 96.85 -4.55 96.9 -4.65 97.05 -4.7 97.25 -4.75 97.5 -4.7 97.6 -4.6 97.65 -4.5 97.7 -4.4 97.75 -4.3 97.75 -4.2 97.6 -3.85 97.05 -3.35 96.65 -3.1 97.2 -3.2 98.1 -3.35 98.35 -3.3 98.5 -3.2 98.55 -3.1 98.6 -3.0 98.65 -2.9 98.65 -2.8 98.65 -2.75 98.55 -2.55 98.45 -2.35 98.35 -2.15 98.25 -2.05 98.2 -1.95 98.15 -1.9 98.05 -1.8 98.1 -1.7 98.1 -1.6 98.1 -1.5 98.05 -1.4 98.0 -1.3 97.8 -1.2 97.75 -1.15 97.65 -1.05 97.6 -0.95 97.35 -0.85 97.25 -0.75 97.0 -0.7 96.85 -0.7 96.6 -0.75 96.5 -0.85 96.4 -0.95 96.35 -1.05 96.35 -1.15 96.35 -1.2 96.35 -1.3 96.35 -1.4 96.4 -1.5 96.5 -1.6 96.55 -1.7 96.6 -1.8 96.15 -1.75 95.25 -1.55 94.75 -1.55 94.5 -1.6 94.35 -1.7 94.25 -1.8 94.25 -1.9 94.2 -1.95 93.25 -2.15 93.1 -2.2 93.05 -2.3 93.0 -2.4 93.0 -2.5 93.0 -2.6 93.0 -2.7 93.0 -2.8 93.0 -2.9 93.05 -2.95 93.1 -3.05 93.15 -3.15 93.2 -3.25 93.25 -3.35 93.3 -3.45 93.4 -3.55 93.35 -3.6 93.15 -3.65 93.0 -3.75 92.95 -3.85 92.9 -3.95 92.9 -4.05 92.9 -4.15 92.9 -4.3 92.95 -4.5 93.0 -4.6 93.05 -4.7 93.2 -4.85 93.35 -5.05 93.4 -5.15 93.45 -5.25 93.5 -5.35 93.6 -5.4 93.6 -5.45 93.5 -5.45 93.25 -5.55 93.2 -5.65 93.15 -5.7 93.15 -5.8 93.15 -5.9 93.15 -6.1 93.15 -6.3 93.3 -6.5 93.55 -6.85 93.85 -7.15 93.9 -7.2 94.1 -7.25 94.1 -7.3" fill="#333333" fill-rule="evenodd" stroke="none"/>
    <path d="M105.65 -6.45 L105.75 -6.55 105.9 -6.65 106.15 -6.7 107.15 -7.4 108.0 -7.9 108.1 -7.95 108.2 -8.05 108.35 -8.05 108.55 -8.0 108.65 -7.9 108.65 -7.8 108.7 -7.7 108.75 -7.65 108.75 -7.55 108.7 -7.45 108.65 -7.35 108.6 -7.25 107.55 -6.45 106.95 -5.75 106.65 -5.3 Q106.95 -5.2 107.6 -5.55 L110.65 -7.1 111.75 -7.75 111.8 -7.8 112.0 -7.8 112.1 -7.8 112.35 -7.75 112.45 -7.65 112.5 -7.55 112.55 -7.45 112.6 -7.4 112.6 -7.3 112.6 -7.2 112.55 -7.1 112.5 -7.0 112.4 -6.9 112.3 -6.85 112.1 -6.8 111.95 -6.7 111.65 -6.5 111.5 -6.4 111.4 -6.3 111.2 -6.15 110.95 -5.95 110.65 -5.75 110.25 -5.45 110.05 -5.3 109.75 -5.0 109.55 -4.8 109.5 -4.8 109.65 -4.8 112.05 -5.9 113.4 -6.55 113.65 -6.7 113.85 -6.75 114.1 -6.7 114.25 -6.6 114.3 -6.5 114.35 -6.4 114.4 -6.3 114.4 -6.2 114.3 -5.95 114.0 -5.6 113.65 -5.3 112.45 -4.45 111.45 -3.8 111.35 -3.7 111.15 -3.5 110.9 -3.3 113.25 -4.2 114.5 -4.65 114.6 -4.65 114.85 -4.55 115.0 -4.45 115.1 -4.4 115.1 -4.3 115.15 -4.2 115.15 -4.1 115.2 -4.0 115.15 -3.9 115.1 -3.8 115.05 -3.75 114.95 -3.65 113.6 -2.85 112.75 -2.35 114.3 -2.85 114.7 -3.0 114.85 -3.05 115.1 -3.05 115.35 -2.95 115.5 -2.85 115.6 -2.8 115.6 -2.7 115.65 -2.6 115.65 -2.5 115.7 -2.4 115.7 -2.35 115.75 -2.3 115.85 -2.3 116.1 -2.2 116.25 -2.1 116.35 -2.05 116.35 -1.95 116.4 -1.85 116.4 -1.75 116.45 -1.65 116.4 -1.55 116.35 -1.5 116.3 -1.4 116.2 -1.3 116.05 -1.2 115.9 -1.1 115.8 -1.05 115.0 -0.95 114.35 -0.9 114.1 -0.95 114.0 -1.05 113.9 -1.15 113.8 -1.35 112.45 -1.05 111.15 -0.65 109.75 -0.4 109.5 -0.45 109.35 -0.55 109.25 -0.65 109.2 -0.75 109.2 -0.85 109.15 -0.95 109.2 -1.15 109.2 -1.3 109.25 -1.35 109.1 -1.4 108.6 -1.4 108.35 -1.45 108.25 -1.55 108.15 -1.65 108.1 -1.75 108.05 -1.85 108.05 -1.95 108.05 -2.05 108.05 -2.15 108.05 -2.2 108.35 -2.65 108.9 -3.15 109.15 -3.45 108.6 -3.25 108.0 -3.05 107.5 -3.05 107.25 -3.15 107.1 -3.2 107.05 -3.3 107.0 -3.4 107.0 -3.5 107.0 -3.6 107.0 -3.7 107.15 -3.95 107.6 -4.45 107.85 -4.65 107.05 -4.4 106.6 -4.3 106.0 -4.3 105.75 -4.4 105.7 -4.5 105.6 -4.55 105.6 -4.65 105.6 -4.75 105.6 -4.85 105.6 -4.95 105.6 -5.05 105.65 -5.15 105.65 -5.2 105.7 -5.3 105.75 -5.4 105.95 -5.7 106.15 -6.05 106.35 -6.3 106.35 -6.35 106.25 -6.35 106.1 -6.3 105.9 -6.25 105.75 -6.2 105.6 -6.25 105.6 -6.35 105.65 -6.45" fill="#333333" fill-rule="evenodd" stroke="none"/>
    <path d="M122.15 -6.05 L122.15 -6.15 122.15 -6.25 122.15 -6.35 122.2 -6.45 122.25 -6.55 122.35 -6.75 122.4 -6.8 122.5 -6.9 122.6 -7.0 122.85 -7.1 122.95 -7.2 123.1 -7.3 123.25 -7.4 123.35 -7.45 123.4 -7.55 123.45 -7.55 123.6 -7.6 123.85 -7.6 124.0 -7.55 124.05 -7.45 124.1 -7.35 124.1 -7.25 124.05 -7.15 123.95 -7.05 123.85 -7.05 123.65 -6.95 123.6 -6.9 123.45 -6.8 123.2 -6.6 123.0 -6.5 123.0 -6.45 123.25 -6.45 124.0 -6.75 124.6 -7.05 124.75 -7.1 124.95 -7.15 125.15 -7.2 125.3 -7.3 125.45 -7.4 125.6 -7.45 125.7 -7.55 125.85 -7.65 126.0 -7.7 126.1 -7.8 126.2 -7.85 126.35 -7.85 126.5 -7.9 126.7 -7.85 126.8 -7.75 126.85 -7.65 126.9 -7.55 126.9 -7.45 126.9 -7.4 126.85 -7.3 126.8 -7.2 126.75 -7.1 126.65 -7.0 126.55 -6.95 126.5 -6.9 126.25 -6.85 125.95 -6.6 125.35 -6.2 125.25 -6.1 125.25 -6.05 125.35 -6.0 126.25 -6.4 126.85 -6.65 127.05 -6.75 127.9 -7.05 128.1 -7.05 128.3 -7.0 128.45 -6.9 128.5 -6.8 128.55 -6.7 128.6 -6.65 128.6 -6.55 128.55 -6.45 128.5 -6.35 128.5 -6.25 128.45 -6.15 128.4 -6.05 128.35 -5.95 127.5 -5.4 126.75 -4.85 126.65 -4.75 126.95 -4.8 127.75 -5.15 127.9 -5.25 128.0 -5.35 128.1 -5.4 128.15 -5.45 128.35 -5.45 128.6 -5.45 128.8 -5.4 128.95 -5.3 129.0 -5.2 129.05 -5.15 129.1 -5.05 129.1 -4.95 129.05 -4.85 129.0 -4.75 128.95 -4.65 128.95 -4.55 128.65 -4.3 128.0 -3.8 127.85 -3.7 127.8 -3.65 127.65 -3.45 127.45 -3.15 127.45 -3.1 127.5 -3.1 127.75 -3.05 127.85 -2.95 127.9 -2.85 127.95 -2.75 128.0 -2.65 128.0 -2.55 128.0 -2.4 128.0 -2.2 128.0 -2.0 127.95 -1.9 127.9 -1.8 127.85 -1.7 127.7 -1.65 127.5 -1.55 127.25 -1.65 127.1 -1.7 127.05 -1.8 127.0 -1.9 126.95 -2.0 126.75 -2.05 126.5 -2.15 126.35 -2.2 126.3 -2.3 126.25 -2.4 126.25 -2.5 126.25 -2.7 126.25 -2.9 126.25 -3.05 126.25 -3.15 126.3 -3.25 126.35 -3.35 125.4 -3.3 124.75 -3.2 124.5 -3.3 124.35 -3.4 124.3 -3.5 124.25 -3.55 124.25 -3.65 124.25 -3.75 124.25 -3.85 124.25 -3.95 124.4 -4.2 124.85 -4.7 125.2 -4.9 125.0 -4.85 124.35 -4.75 124.1 -4.75 123.85 -4.8 123.75 -4.9 123.65 -5.0 123.6 -5.1 123.6 -5.2 123.6 -5.3 123.6 -5.4 123.65 -5.45 123.7 -5.55 123.75 -5.65 123.8 -5.7 123.6 -5.75 123.35 -5.7 122.5 -5.7 122.25 -5.8 122.2 -5.9 122.15 -5.95 122.15 -6.05" fill="#333333" fill-rule="evenodd" stroke="none"/>
    <path d="M118.55 -4.15 L118.55 -4.05 118.6 -3.9 118.6 -3.7 118.6 -3.6 118.65 -3.5 118.7 -3.3 118.75 -3.15 118.8 -3.05 118.8 -2.95 118.8 -2.75 118.8 -2.55 118.8 -2.45 118.85 -2.4 118.85 -2.3 118.9 -2.2 118.9 -2.1 118.95 -2.0 119.0 -1.9 119.05 -1.8 119.05 -1.7 119.05 -1.65 119.05 -1.55 119.05 -1.45 119.0 -1.35 118.95 -1.25 118.85 -1.2 118.75 -1.15 118.55 -1.2 118.45 -1.3 118.45 -1.4 118.45 -1.5 118.45 -1.6 118.4 -1.7 118.35 -1.8 118.25 -2.05 118.2 -2.45 118.2 -2.8 118.15 -2.9 118.1 -3.1 118.05 -3.3 118.0 -3.4 118.05 -3.55 118.05 -3.85 118.1 -4.15 118.15 -4.2 118.2 -4.25 118.35 -4.3 118.5 -4.25 118.55 -4.15" fill="#333333" fill-rule="evenodd" stroke="none"/>
    <path d="M119.85 -4.3 L120.0 -4.25 120.05 -4.15 120.1 -4.05 120.1 -3.95 120.2 -3.9 120.4 -3.15 120.65 -2.3 120.85 -1.65 120.85 -1.55 120.85 -1.45 120.9 -1.35 120.85 -1.25 120.75 -1.2 120.6 -1.25 120.45 -1.35 120.3 -1.55 120.2 -1.7 120.05 -2.3 119.85 -2.95 119.75 -3.4 119.7 -3.5 119.65 -3.6 119.6 -3.7 119.6 -3.8 119.55 -3.9 119.55 -3.95 119.55 -4.05 119.6 -4.15 119.7 -4.25 119.85 -4.3" fill="#333333" fill-rule="evenodd" stroke="none"/>
    <path d="M100.35 -7.2 L100.5 -7.1 100.55 -7.05 100.6 -6.55 100.6 -6.0 100.6 -5.55 100.55 -5.45 100.5 -5.35 100.4 -5.25 100.3 -5.25 100.15 -5.35 100.15 -5.7 100.15 -6.2 100.1 -6.65 100.1 -6.75 100.15 -6.85 100.15 -6.95 100.15 -7.05 100.2 -7.15 100.35 -7.15 100.35 -7.2" fill="#333333" fill-rule="evenodd" stroke="none"/>
    <path d="M80.6 -4.7 L80.75 -4.65 80.8 -4.55 80.85 -4.45 80.85 -4.35 80.9 -3.7 80.95 -2.95 80.9 -2.3 80.85 -2.2 80.8 -2.1 80.75 -2.0 80.5 -1.95 80.45 -2.05 80.35 -2.15 Q80.25 -2.6 80.3 -3.0 L80.3 -3.95 80.4 -4.5 80.45 -4.6 80.5 -4.65 80.6 -4.7" fill="#333333" fill-rule="evenodd" stroke="none"/>
    <path d="M78.35 -4.0 L78.5 -3.95 78.6 -3.85 78.65 -3.75 78.65 -3.65 78.65 -3.55 78.65 -3.45 78.7 -3.3 78.7 -3.2 78.75 -3.1 78.75 -3.0 78.85 -2.9 78.85 -2.8 78.9 -2.7 78.95 -2.65 78.95 -2.55 79.0 -2.45 79.05 -2.35 79.05 -2.25 79.05 -2.15 79.0 -2.05 78.95 -1.9 78.75 -1.8 78.6 -1.9 78.5 -1.95 78.5 -2.05 78.45 -2.15 78.4 -2.25 78.35 -2.35 78.3 -2.45 78.25 -2.55 78.25 -2.65 78.2 -2.7 78.15 -2.8 78.1 -2.9 78.1 -3.0 78.05 -3.1 78.05 -3.2 78.05 -3.4 78.05 -3.55 78.1 -3.75 78.1 -3.85 78.2 -3.95 78.35 -4.0" fill="#333333" fill-rule="evenodd" stroke="none"/>
    <path d="M-125.7 -6.4 L-125.65 -6.35 -125.6 -6.3 -125.5 -6.2 -125.45 -6.15 -125.4 -6.1 -125.35 -5.95 -125.25 -5.95 -125.15 -5.85 -125.1 -5.8 -125.0 -5.8 -124.95 -5.75 -123.55 -4.45 -122.05 -3.05 -121.15 -2.15 -121.1 -2.0 -121.1 -1.9 -121.05 -1.75 -121.2 -1.6 -121.35 -1.45 -121.5 -1.5 -121.6 -1.5 -122.9 -2.7 -124.25 -4.15 -125.15 -5.15 -125.2 -5.2 -125.3 -5.2 -125.5 -5.3 -125.55 -5.35 -125.6 -5.4 -125.75 -5.55 -125.9 -5.7 -125.95 -5.75 -125.95 -5.85 -126.0 -6.0 -126.05 -6.05 -126.0 -6.2 -125.95 -6.35 -126.0 -6.4 -125.8 -6.4 -125.7 -6.4" fill="#333333" fill-rule="evenodd" stroke="none"/>
    <path d="M-116.7 -6.4 L-116.65 -6.35 -116.6 -6.3 -116.5 -6.2 -116.45 -6.15 -116.4 -6.1 -116.35 -5.95 -116.25 -5.95 -116.15 -5.85 -116.1 -5.8 -116.0 -5.8 -115.95 -5.75 -114.55 -4.45 -113.05 -3.05 -112.15 -2.15 -112.1 -2.0 -112.1 -1.9 -112.05 -1.75 -112.2 -1.6 -112.35 -1.45 -112.5 -1.5 -112.6 -1.5 -113.9 -2.7 -115.25 -4.15 -116.15 -5.15 -116.2 -5.2 -116.3 -5.2 -116.5 -5.3 -116.55 -5.35 -116.6 -5.4 -116.75 -5.55 -116.9 -5.7 -116.95 -5.75 -116.95 -5.85 -117.0 -6.0 -117.05 -6.05 -117.0 -6.2 -116.95 -6.35 -117.0 -6.4 -116.8 -6.4 -116.7 -6.4" fill="#333333" fill-rule="evenodd" stroke="none"/>
    <path d="M-107.7 -6.4 L-107.65 -6.35 -107.6 -6.3 -107.5 -6.2 -107.45 -6.15 -107.4 -6.1 -107.35 -5.95 -107.25 -5.95 -107.15 -5.85 -107.1 -5.8 -107.0 -5.8 -106.95 -5.75 -105.55 -4.45 -104.05 -3.05 -103.15 -2.15 -103.1 -2.0 -103.1 -1.9 -103.05 -1.75 -103.2 -1.6 -103.35 -1.45 -103.5 -1.5 -103.6 -1.5 -104.9 -2.7 -106.25 -4.15 -107.15 -5.15 -107.2 -5.2 -107.3 -5.2 -107.5 -5.3 -107.55 -5.35 -107.6 -5.4 -107.75 -5.55 -107.9 -5.7 -107.95 -5.75 -107.95 -5.85 -108.0 -6.0 -108.05 -6.05 -108.0 -6.2 -107.95 -6.35 -108.0 -6.4 -107.8 -6.4 -107.7 -6.4" fill="#333333" fill-rule="evenodd" stroke="none"/>
    <path d="M-105.2 -2.0 L-105.3 -1.9 -105.45 -1.8 -105.7 -1.75 -106.7 -1.05 -107.55 -0.55 -107.65 -0.5 -107.75 -0.4 -107.9 -0.4 -108.1 -0.45 -108.2 -0.55 -108.2 -0.65 -108.25 -0.75 -108.3 -0.8 -108.3 -0.9 -108.25 -1.0 -108.2 -1.1 -108.15 -1.2 -107.1 -2.0 -106.5 -2.7 -106.2 -3.15 -107.15 -2.9 -110.2 -1.35 -111.3 -0.7 -111.35 -0.65 -111.55 -0.65 -111.65 -0.65 -111.9 -0.7 -112.0 -0.8 -112.05 -0.9 -112.1 -1.0 -112.15 -1.05 -112.15 -1.15 -112.15 -1.25 -112.1 -1.35 -112.05 -1.45 -111.95 -1.55 -111.85 -1.6 -111.65 -1.65 -111.5 -1.75 -111.2 -1.95 -111.05 -2.05 -110.95 -2.15 -110.75 -2.3 -110.5 -2.5 -110.2 -2.7 -109.8 -3.0 -109.6 -3.15 -109.3 -3.45 -109.1 -3.65 -109.05 -3.65 -109.2 -3.65 -111.6 -2.55 Q-112.3 -2.25 -112.95 -1.9 L-113.2 -1.75 -113.4 -1.7 -113.65 -1.75 -113.8 -1.85 -113.85 -1.95 -113.9 -2.05 -113.95 -2.15 -113.95 -2.25 -113.85 -2.5 -113.55 -2.85 -113.2 -3.15 -112.0 -4.0 -111.0 -4.65 -110.9 -4.75 -110.7 -4.95 -110.45 -5.15 -112.8 -4.25 -114.05 -3.8 -114.15 -3.8 -114.4 -3.9 -114.55 -4.0 -114.65 -4.05 -114.65 -4.15 -114.7 -4.25 -114.7 -4.35 -114.75 -4.45 -114.7 -4.55 -114.65 -4.65 -114.6 -4.7 -114.5 -4.8 -113.15 -5.6 -112.3 -6.1 -113.85 -5.6 -114.25 -5.45 -114.4 -5.4 -114.65 -5.4 -114.9 -5.5 -115.05 -5.6 -115.15 -5.65 -115.15 -5.75 -115.2 -5.85 -115.2 -5.95 -115.25 -6.05 -115.25 -6.1 -115.3 -6.15 -115.4 -6.15 -115.65 -6.25 -115.8 -6.35 -115.9 -6.4 -115.9 -6.5 -115.95 -6.6 -115.95 -6.7 -116.0 -6.8 -115.95 -6.9 -115.9 -6.95 -115.85 -7.05 -115.75 -7.15 -115.6 -7.25 -115.45 -7.35 -115.35 -7.4 -114.55 -7.5 -113.9 -7.55 -113.65 -7.5 -113.55 -7.4 -113.45 -7.3 -113.35 -7.1 -112.0 -7.4 -110.7 -7.8 -109.3 -8.05 -109.05 -8.0 -108.9 -7.9 -108.8 -7.8 -108.75 -7.7 -108.75 -7.6 -108.7 -7.5 -108.75 -7.3 -108.75 -7.15 -108.8 -7.1 -108.65 -7.05 -108.15 -7.05 -107.9 -7.0 -107.8 -6.9 -107.7 -6.8 -107.65 -6.7 -107.6 -6.6 -107.6 -6.5 -107.6 -6.4 -107.6 -6.3 -107.6 -6.25 -107.9 -5.8 -108.45 -5.3 -108.7 -5.0 -108.15 -5.2 -107.55 -5.4 -107.05 -5.4 -106.8 -5.3 -106.65 -5.25 -106.6 -5.15 -106.55 -5.05 -106.55 -4.95 -106.55 -4.85 -106.55 -4.75 -106.7 -4.5 -107.15 -4.0 -107.4 -3.8 -106.6 -4.05 -106.15 -4.15 -105.55 -4.15 -105.3 -4.05 -105.25 -3.95 -105.15 -3.9 -105.15 -3.8 -105.15 -3.7 -105.15 -3.6 -105.15 -3.5 -105.15 -3.4 -105.2 -3.3 -105.2 -3.25 -105.25 -3.15 -105.3 -3.05 -105.5 -2.75 -105.7 -2.4 -105.9 -2.15 -105.9 -2.1 -105.8 -2.1 -105.65 -2.15 -105.45 -2.2 -105.3 -2.25 -105.15 -2.2 -105.15 -2.1 -105.2 -2.0" fill="#333333" fill-rule="evenodd" stroke="none"/>
    <path d="M-121.7 -2.4 L-121.7 -2.3 -121.7 -2.2 -121.7 -2.1 -121.75 -2.0 -121.8 -1.9 -121.9 -1.7 -121.95 -1.65 -122.05 -1.55 -122.15 -1.45 -122.4 -1.35 -122.5 -1.25 -122.65 -1.15 -122.8 -1.05 -122.9 -1.0 -122.95 -0.9 -123.0 -0.9 -123.15 -0.85 -123.4 -0.85 -123.55 -0.9 -123.6 -1.0 -123.65 -1.1 -123.65 -1.2 -123.6 -1.3 -123.5 -1.4 -123.4 -1.4 -123.2 -1.5 -123.15 -1.55 -123.0 -1.65 -122.75 -1.85 -122.55 -1.95 -122.55 -2.0 -122.8 -2.0 -123.55 -1.7 -124.15 -1.4 -124.3 -1.35 -124.5 -1.3 -124.7 -1.25 -124.85 -1.15 -125.0 -1.05 -125.15 -1.0 -125.25 -0.9 -125.4 -0.8 -125.55 -0.75 -125.65 -0.65 -125.75 -0.6 -125.9 -0.6 -126.05 -0.55 -126.25 -0.6 -126.35 -0.7 -126.4 -0.8 -126.45 -0.9 -126.45 -1.0 -126.45 -1.05 -126.4 -1.15 -126.35 -1.25 -126.3 -1.35 -126.2 -1.45 -126.1 -1.5 -126.05 -1.55 -125.8 -1.6 -125.5 -1.85 -124.9 -2.25 -124.8 -2.35 -124.8 -2.4 -124.9 -2.45 -125.8 -2.05 -126.4 -1.8 -126.6 -1.7 -127.45 -1.4 -127.65 -1.4 -127.85 -1.45 -128.0 -1.55 -128.05 -1.65 -128.1 -1.75 -128.15 -1.8 -128.15 -1.9 -128.1 -2.0 -128.05 -2.1 -128.05 -2.2 -128.0 -2.3 -127.95 -2.4 -127.9 -2.5 -127.05 -3.05 -126.3 -3.6 -126.2 -3.7 -126.5 -3.65 Q-126.9 -3.4 -127.3 -3.3 L-127.45 -3.2 -127.55 -3.1 -127.65 -3.05 -127.7 -3.0 -127.9 -3.0 -128.15 -3.0 -128.35 -3.05 -128.5 -3.15 -128.55 -3.25 -128.6 -3.3 -128.65 -3.4 -128.65 -3.5 -128.6 -3.6 -128.55 -3.7 -128.5 -3.8 -128.5 -3.9 -128.2 -4.15 -127.55 -4.65 -127.4 -4.75 -127.35 -4.8 -127.2 -5.0 -127.0 -5.3 -127.0 -5.35 -127.05 -5.35 -127.3 -5.4 -127.4 -5.5 -127.45 -5.6 -127.5 -5.7 -127.55 -5.8 -127.55 -5.9 -127.55 -6.05 -127.55 -6.25 -127.55 -6.45 -127.5 -6.55 -127.45 -6.65 -127.4 -6.75 -127.25 -6.8 -127.05 -6.9 -126.8 -6.8 -126.65 -6.75 -126.6 -6.65 -126.55 -6.55 -126.5 -6.45 -126.3 -6.4 -126.05 -6.3 -125.9 -6.25 -125.85 -6.15 -125.8 -6.05 -125.8 -5.95 -125.8 -5.75 -125.8 -5.55 -125.8 -5.4 -125.8 -5.3 -125.85 -5.2 -125.9 -5.1 -124.95 -5.15 -124.3 -5.25 -124.05 -5.15 -123.9 -5.05 -123.85 -4.95 -123.8 -4.9 -123.8 -4.8 -123.8 -4.7 -123.8 -4.6 -123.8 -4.5 -123.95 -4.25 -124.4 -3.75 -124.75 -3.55 -124.55 -3.6 -123.9 -3.7 -123.65 -3.7 -123.4 -3.65 -123.3 -3.55 -123.2 -3.45 -123.15 -3.35 -123.15 -3.25 -123.15 -3.15 -123.15 -3.05 -123.2 -3.0 -123.25 -2.9 -123.3 -2.8 -123.35 -2.75 -123.15 -2.7 -122.9 -2.75 -122.05 -2.75 -121.8 -2.65 -121.75 -2.55 -121.7 -2.5 -121.7 -2.4" fill="#333333" fill-rule="evenodd" stroke="none"/>
    <path d="M-99.2 -6.4 L-99.15 -6.35 -99.1 -6.3 -99.0 -6.2 -98.95 -6.15 -98.9 -6.1 -98.85 -5.95 -98.75 -5.95 -98.65 -5.85 -98.6 -5.8 -98.5 -5.8 -98.45 -5.75 -97.05 -4.45 -95.55 -3.05 -94.65 -2.15 -94.6 -2.0 -94.6 -1.9 -94.55 -1.75 -94.7 -1.6 -94.85 -1.45 -95.0 -1.5 -95.1 -1.5 -96.4 -2.7 -97.75 -4.15 -98.65 -5.15 -98.7 -5.2 -98.8 -5.2 -99.0 -5.3 -99.05 -5.35 -99.1 -5.4 -99.25 -5.55 -99.4 -5.7 -99.45 -5.75 -99.45 -5.85 -99.5 -6.0 -99.55 -6.05 -99.5 -6.2 -99.45 -6.35 -99.5 -6.4 -99.3 -6.4 -99.2 -6.4" fill="#333333" fill-rule="evenodd" stroke="none"/>
    <path d="M-90.2 -6.4 L-90.15 -6.35 -90.1 -6.3 -90.0 -6.2 -89.95 -6.15 -89.9 -6.1 -89.85 -5.95 -89.75 -5.95 -89.65 -5.85 -89.6 -5.8 -89.5 -5.8 -89.45 -5.75 -88.05 -4.45 -86.55 -3.05 -85.65 -2.15 -85.6 -2.0 -85.6 -1.9 -85.55 -1.75 -85.7 -1.6 -85.85 -1.45 -86.0 -1.5 -86.1 -1.5 -87.4 -2.7 -88.75 -4.15 -89.65 -5.15 -89.7 -5.2 -89.8 -5.2 -90.0 -5.3 -90.05 -5.35 -90.1 -5.4 -90.25 -5.55 -90.4 -5.7 -90.45 -5.75 -90.45 -5.85 -90.5 -6.0 -90.55 -6.05 -90.5 -6.2 -90.45 -6.35 -90.5 -6.4 -90.3 -6.4 -90.2 -6.4" fill="#333333" fill-rule="evenodd" stroke="none"/>
    <path d="M-87.7 -2.0 L-87.8 -1.9 -87.95 -1.8 -88.2 -1.75 -89.2 -1.05 -90.05 -0.55 -90.15 -0.5 -90.25 -0.4 -90.4 -0.4 -90.6 -0.45 -90.7 -0.55 -90.7 -0.65 -90.75 -0.75 -90.8 -0.8 -90.8 -0.9 -90.75 -1.0 -90.7 -1.1 -90.65 -1.2 -89.6 -2.0 -89.0 -2.7 -88.7 -3.15 -89.65 -2.9 -92.7 -1.35 -93.8 -0.7 -93.85 -0.65 -94.05 -0.65 -94.15 -0.65 -94.4 -0.7 -94.5 -0.8 -94.55 -0.9 -94.6 -1.0 -94.65 -1.05 -94.65 -1.15 -94.65 -1.25 -94.6 -1.35 -94.55 -1.45 -94.45 -1.55 -94.35 -1.6 -94.15 -1.65 -94.0 -1.75 -93.7 -1.95 -93.55 -2.05 -93.45 -2.15 -93.25 -2.3 -93.0 -2.5 -92.7 -2.7 -92.3 -3.0 -92.1 -3.15 -91.8 -3.45 -91.6 -3.65 -91.55 -3.65 -91.7 -3.65 Q-92.9 -3.05 -94.1 -2.55 L-95.45 -1.9 -95.7 -1.75 -95.9 -1.7 -96.15 -1.75 -96.3 -1.85 -96.35 -1.95 -96.4 -2.05 -96.45 -2.15 -96.45 -2.25 -96.35 -2.5 -96.05 -2.85 -95.7 -3.15 -94.5 -4.0 -93.5 -4.65 -93.4 -4.75 -93.2 -4.95 -92.95 -5.15 -95.3 -4.25 -96.55 -3.8 -96.65 -3.8 -96.9 -3.9 -97.05 -4.0 -97.15 -4.05 -97.15 -4.15 -97.2 -4.25 -97.2 -4.35 -97.25 -4.45 -97.2 -4.55 -97.15 -4.65 -97.1 -4.7 -97.0 -4.8 Q-96.3 -5.15 -95.65 -5.6 L-94.8 -6.1 -96.35 -5.6 -96.75 -5.45 -96.9 -5.4 -97.15 -5.4 -97.4 -5.5 -97.55 -5.6 -97.65 -5.65 -97.65 -5.75 -97.7 -5.85 -97.7 -5.95 -97.75 -6.05 -97.75 -6.1 -97.8 -6.15 -97.9 -6.15 -98.15 -6.25 -98.3 -6.35 -98.4 -6.4 -98.4 -6.5 -98.45 -6.6 -98.45 -6.7 -98.5 -6.8 -98.45 -6.9 -98.4 -6.95 -98.35 -7.05 -98.25 -7.15 -98.1 -7.25 -97.95 -7.35 -97.85 -7.4 -97.05 -7.5 -96.4 -7.55 -96.15 -7.5 -96.05 -7.4 -95.95 -7.3 -95.85 -7.1 -94.5 -7.4 -93.2 -7.8 -91.8 -8.05 -91.55 -8.0 -91.4 -7.9 -91.3 -7.8 -91.25 -7.7 -91.25 -7.6 -91.2 -7.5 -91.25 -7.3 -91.25 -7.15 -91.3 -7.1 -91.15 -7.05 -90.65 -7.05 -90.4 -7.0 -90.3 -6.9 -90.2 -6.8 -90.15 -6.7 -90.1 -6.6 -90.1 -6.5 -90.1 -6.4 -90.1 -6.3 -90.1 -6.25 Q-90.2 -5.95 -90.4 -5.8 L-90.95 -5.3 -91.2 -5.0 -90.65 -5.2 -90.05 -5.4 -89.55 -5.4 -89.3 -5.3 -89.15 -5.25 -89.1 -5.15 -89.05 -5.05 -89.05 -4.95 -89.05 -4.85 -89.05 -4.75 -89.2 -4.5 -89.65 -4.0 -89.9 -3.8 -89.1 -4.05 -88.65 -4.15 -88.05 -4.15 -87.8 -4.05 -87.75 -3.95 -87.65 -3.9 -87.65 -3.8 -87.65 -3.7 -87.65 -3.6 -87.65 -3.5 -87.65 -3.4 -87.7 -3.3 -87.7 -3.25 -87.75 -3.15 -87.8 -3.05 -88.0 -2.75 -88.2 -2.4 -88.4 -2.15 -88.4 -2.1 -88.3 -2.1 -88.15 -2.15 -87.95 -2.2 -87.8 -2.25 -87.65 -2.2 -87.65 -2.1 -87.7 -2.0" fill="#333333" fill-rule="evenodd" stroke="none"/>
    <path d="M89.5 -0.35 L89.75 -0.4 89.8 -0.45 91.7 -0.5 91.85 -0.55 92.0 -0.6 92.15 -0.7 92.25 -0.8 92.3 -0.9 92.35 -0.95 92.45 -1.05 92.45 -1.15 92.5 -1.25 92.5 -1.35 92.5 -2.3 92.5 -2.35 94.4 -2.35 105.5 -2.5 116.55 -2.6 119.5 -2.6 122.4 -2.55 125.3 -2.4 128.15 -2.05 128.8 -1.8 129.05 -1.2 128.4 -0.2 89.5 -0.25 89.5 -0.35 M-127.8 -0.45 L-129.15 -1.95 -128.4 -2.45 -127.65 -2.25 -115.65 -2.3 Q-98.1 -2.6 -80.4 -2.45 L-56.75 -2.3 -44.95 -2.25 -33.15 -2.15 -31.8 -2.2 -30.5 -2.25 -18.85 -2.15 -7.25 -2.2 4.6 -2.4 16.4 -2.5 40.0 -2.4 40.7 -2.4 40.7 -2.35 40.7 -2.25 40.7 -2.2 40.7 -2.1 40.7 -2.0 40.7 -1.95 40.7 -1.85 40.7 -1.8 40.75 -1.7 41.05 -1.3 Q41.3 -1.05 41.65 -0.95 L42.3 -1.0 42.45 -1.1 42.55 -1.15 42.65 -1.25 42.7 -1.3 42.8 -1.45 42.85 -1.6 42.9 -1.75 42.95 -1.85 42.95 -1.9 42.95 -2.0 43.05 -2.15 43.05 -2.25 43.05 -2.3 43.05 -2.4 45.5 -2.35 45.5 -2.25 45.5 -2.15 45.5 -2.05 45.5 -2.0 45.5 -1.9 45.5 -1.85 45.55 -1.75 45.55 -1.7 45.6 -1.6 45.65 -1.55 45.75 -1.45 45.8 -1.4 46.3 -1.25 47.0 -1.3 47.1 -1.35 47.2 -1.4 47.3 -1.5 47.35 -1.55 47.4 -1.65 47.45 -1.7 47.45 -1.8 47.5 -1.85 47.5 -1.95 47.5 -2.0 47.5 -2.1 47.5 -2.2 47.5 -2.25 47.45 -2.35 Q65.15 -2.25 82.9 -2.3 L82.85 -2.25 82.85 -2.15 82.8 -2.05 82.75 -1.95 82.75 -1.9 82.75 -1.7 82.75 -1.6 82.75 -1.5 82.75 -1.4 82.75 -1.3 82.8 -1.2 82.85 -1.15 82.85 -1.05 82.9 -0.95 83.0 -0.85 83.1 -0.75 83.2 -0.65 83.35 -0.55 83.4 -0.55 83.45 -0.5 83.85 -0.4 85.25 -0.4 85.25 -0.25 -127.8 -0.45" fill="#333333" fill-rule="evenodd" stroke="none"/>
    <path d="M40.9 -7.0 L40.9 -6.9 40.95 -6.85 33.05 -6.9 31.7 -6.85 30.4 -6.8 18.75 -6.9 7.15 -6.85 -4.7 -6.65 -16.5 -6.55 -40.1 -6.65 -94.5 -6.7 -105.6 -6.55 -116.65 -6.45 -119.6 -6.45 -122.5 -6.5 -125.4 -6.65 -128.25 -7.0 -128.9 -7.25 -129.15 -7.85 -128.5 -8.85 40.85 -8.65 40.85 -8.6 40.9 -8.5 40.9 -8.45 40.9 -8.35 40.95 -8.3 40.95 -8.2 40.9 -8.15 40.9 -8.05 40.9 -8.0 40.85 -7.9 40.85 -7.65 40.85 -7.5 40.85 -7.35 40.85 -7.15 40.85 -7.05 40.9 -7.0 M45.55 -8.55 L45.5 -8.45 45.5 -8.4 45.5 -8.3 45.5 -8.1 45.5 -7.85 45.5 -7.7 45.5 -7.6 45.5 -7.55 45.5 -7.45 45.55 -7.4 45.55 -7.3 45.55 -7.25 45.55 -7.15 45.55 -7.1 45.55 -7.0 45.6 -6.95 45.6 -6.85 45.6 -6.8 44.85 -6.8 43.0 -6.8 43.0 -7.05 43.05 -7.65 43.05 -8.05 43.05 -8.45 43.05 -8.5 43.1 -8.65 45.6 -8.65 45.6 -8.6 45.55 -8.55 M82.65 -7.4 L82.6 -7.1 82.6 -6.8 82.6 -6.7 82.6 -6.55 80.3 -6.6 56.65 -6.75 47.65 -6.75 47.65 -6.9 47.65 -7.05 47.65 -7.2 47.65 -7.3 47.6 -7.35 47.6 -7.45 47.55 -7.5 47.5 -7.6 47.45 -7.65 47.4 -7.75 47.4 -7.8 47.4 -7.9 47.4 -8.0 47.4 -8.05 47.4 -8.15 47.4 -8.2 47.4 -8.3 47.35 -8.35 47.35 -8.45 47.3 -8.5 47.25 -8.6 47.2 -8.65 83.05 -8.6 83.0 -8.6 82.9 -8.5 82.85 -8.4 82.85 -8.3 82.8 -8.2 82.75 -8.15 82.7 -8.05 82.65 -7.95 82.65 -7.85 82.6 -7.75 82.6 -7.65 82.65 -7.4 M128.3 -6.6 L127.55 -6.8 115.55 -6.75 92.55 -6.55 92.55 -6.65 92.55 -6.7 92.6 -6.8 92.7 -6.9 92.7 -7.0 92.75 -7.1 92.75 -7.2 92.75 -7.3 92.75 -7.45 92.75 -7.65 92.75 -7.75 92.75 -7.85 92.75 -8.05 92.75 -8.2 92.7 -8.3 92.65 -8.4 92.6 -8.5 92.55 -8.6 92.5 -8.6 127.7 -8.6 129.05 -7.1 128.3 -6.6" fill="#333333" fill-rule="evenodd" stroke="none"/>
    <path d="M127.55 -7.3 L127.6 -7.4 Q128.1 -7.9 128.95 -7.65 L129.4 -5.8 Q129.45 -3.4 128.95 -1.35 L128.1 -1.05 Q127.7 -2.0 128.05 -3.2 128.4 -4.45 128.15 -5.7 128.05 -6.05 128.25 -6.45 L127.55 -7.3" fill="#333333" fill-rule="evenodd" stroke="none"/>
    <path d="M-127.5 -1.5 L-127.55 -1.4 Q-128.05 -0.9 -128.9 -1.15 -129.35 -1.95 -129.35 -3.0 -129.4 -5.4 -128.9 -7.45 L-128.05 -7.75 Q-127.65 -6.8 -128.0 -5.6 -128.35 -4.35 -128.1 -3.1 -128.0 -2.75 -128.2 -2.35 L-127.5 -1.5" fill="#333333" fill-rule="evenodd" stroke="none"/>
    <path d="M6.25 -3.85 L6.3 -3.7 6.3 -3.25 6.3 -2.65 6.35 -2.2 6.35 -2.05 6.3 -1.9 6.3 -1.75 6.3 -1.6 6.25 -1.45 6.15 -1.3 6.05 -1.15 5.85 -1.1 5.85 -1.25 5.95 -1.4 6.0 -1.55 6.0 -2.45 5.95 -3.35 Q5.9 -3.8 6.2 -4.0 L6.25 -3.85" fill="#333333" fill-rule="evenodd" stroke="none"/>
    <path d="M7.95 -4.15 L7.95 -3.4 8.0 -2.65 8.0 -1.9 8.1 -1.6 8.25 -1.3 8.4 -1.0 8.45 -0.85 8.65 -0.7 8.85 -0.55 8.65 -0.5 8.35 -0.65 8.15 -0.75 7.95 -1.05 7.75 -1.35 7.5 -1.65 7.55 -2.7 7.5 -3.75 Q7.4 -4.3 7.85 -4.3 L7.95 -4.15" fill="#333333" fill-rule="evenodd" stroke="none"/>
    <path d="M-60.05 -4.35 L-60.0 -3.3 -60.0 -2.25 -60.0 -1.35 -60.05 -1.25 -60.4 -1.15 -60.75 -1.3 -60.65 -1.45 -60.5 -1.6 -60.5 -2.5 -60.5 -3.55 -60.45 -4.3 -60.4 -4.4 -60.25 -4.5 -60.15 -4.5 -60.05 -4.35" fill="#333333" fill-rule="evenodd" stroke="none"/>
    <path d="M-57.85 -6.75 L-57.85 -5.7 -57.85 -5.1 -57.85 -4.95 -57.95 -4.8 -58.05 -4.75 -58.2 -4.8 -58.25 -6.0 -58.25 -7.2 -58.0 -7.8 -57.85 -6.75" fill="#333333" fill-rule="evenodd" stroke="none"/>
    <path d="M47.65 -8.5 L47.7 -8.45 47.75 -8.4 47.75 -8.25 47.7 -8.25 47.6 -8.2 47.55 -8.2 47.5 -8.15 45.9 -8.15 45.85 -8.15 45.8 -8.2 45.8 -8.3 45.85 -8.35 45.9 -8.35 46.7 -8.45 47.6 -8.45 47.6 -8.5 47.65 -8.5" fill="#333333" fill-rule="evenodd" stroke="none"/>
    <path d="M46.15 -7.55 L46.15 -7.7 46.2 -7.75 46.3 -7.75 47.05 -7.75 47.55 -7.75 47.6 -7.7 47.65 -7.7 47.7 -7.65 47.7 -7.55 47.65 -7.5 47.65 -7.45 47.6 -7.45 47.6 -7.4 47.5 -7.4 47.45 -7.45 46.7 -7.45 46.35 -7.45 46.25 -7.5 46.2 -7.55 46.15 -7.55" fill="#333333" fill-rule="evenodd" stroke="none"/>
    <path d="M41.05 -8.0 L41.1 -8.05 41.15 -8.05 41.8 -8.15 41.9 -8.15 42.05 -8.15 42.1 -8.2 42.2 -8.1 42.15 -8.05 42.15 -8.0 42.1 -7.95 42.05 -7.95 41.85 -7.9 41.35 -7.8 41.1 -7.75 41.05 -7.8 40.95 -7.75 40.95 -7.9 41.05 -8.0" fill="#333333" fill-rule="evenodd" stroke="none"/>
    <path d="M-76.7 -1.9 L-76.75 -1.95 -76.8 -2.0 -76.9 -2.1 -76.95 -2.15 -77.0 -2.2 -77.05 -2.35 -77.15 -2.35 -77.25 -2.45 -77.3 -2.5 -77.4 -2.5 -77.45 -2.55 -78.85 -3.85 -80.35 -5.25 -81.25 -6.15 -81.3 -6.3 -81.3 -6.4 -81.35 -6.55 -81.2 -6.7 -81.05 -6.85 -80.9 -6.8 -80.8 -6.8 -79.5 -5.6 -78.15 -4.15 -77.25 -3.15 -77.2 -3.1 -77.1 -3.1 -76.9 -3.0 -76.85 -2.95 -76.8 -2.9 -76.65 -2.75 -76.5 -2.6 -76.45 -2.55 -76.45 -2.45 -76.4 -2.3 -76.35 -2.25 -76.4 -2.1 -76.45 -1.95 -76.4 -1.9 -76.6 -1.9 -76.7 -1.9" fill="#333333" fill-rule="evenodd" stroke="none"/>
    <path d="M-80.7 -5.9 L-80.7 -6.0 -80.7 -6.1 -80.7 -6.2 -80.65 -6.3 -80.6 -6.4 -80.5 -6.6 -80.45 -6.65 -80.35 -6.75 -80.25 -6.85 -80.0 -6.95 -79.9 -7.05 -79.75 -7.15 -79.6 -7.25 -79.5 -7.3 -79.45 -7.4 -79.4 -7.4 -79.25 -7.45 -79.0 -7.45 -78.85 -7.4 -78.8 -7.3 -78.75 -7.2 -78.75 -7.1 -78.8 -7.0 -78.9 -6.9 -79.0 -6.9 -79.2 -6.8 -79.25 -6.75 -79.4 -6.65 -79.65 -6.45 -79.85 -6.35 -79.85 -6.3 -79.6 -6.3 -78.85 -6.6 -78.25 -6.9 -78.1 -6.95 -77.9 -7.0 -77.7 -7.05 -77.55 -7.15 -77.4 -7.25 -77.25 -7.3 -77.15 -7.4 -77.0 -7.5 -76.85 -7.55 -76.75 -7.65 -76.65 -7.7 -76.5 -7.7 -76.35 -7.75 -76.15 -7.7 -76.05 -7.6 -76.0 -7.5 -75.95 -7.4 -75.95 -7.3 -75.95 -7.25 -76.0 -7.15 -76.05 -7.05 -76.1 -6.95 -76.2 -6.85 -76.3 -6.8 -76.35 -6.75 -76.6 -6.7 -76.9 -6.45 -77.5 -6.05 -77.6 -5.95 -77.6 -5.9 -77.5 -5.85 -76.6 -6.25 -76.0 -6.5 -75.8 -6.6 -74.95 -6.9 -74.75 -6.9 -74.55 -6.85 -74.4 -6.75 -74.35 -6.65 -74.3 -6.55 -74.25 -6.5 -74.25 -6.4 -74.3 -6.3 -74.35 -6.2 -74.35 -6.1 -74.4 -6.0 -74.45 -5.9 -74.5 -5.8 -75.35 -5.25 -76.1 -4.7 -76.2 -4.6 -75.9 -4.65 -75.1 -5.0 -74.95 -5.1 -74.85 -5.2 -74.75 -5.25 -74.7 -5.3 -74.5 -5.3 -74.25 -5.3 -74.05 -5.25 -73.9 -5.15 -73.85 -5.05 -73.8 -5.0 -73.75 -4.9 -73.75 -4.8 -73.8 -4.7 -73.85 -4.6 -73.9 -4.5 -73.9 -4.4 -74.2 -4.15 -74.85 -3.65 -75.0 -3.55 -75.05 -3.5 -75.2 -3.3 -75.4 -3.0 -75.4 -2.95 -75.35 -2.95 -75.1 -2.9 -75.0 -2.8 -74.95 -2.7 -74.9 -2.6 -74.85 -2.5 -74.85 -2.4 -74.85 -2.25 -74.85 -2.05 -74.85 -1.85 -74.9 -1.75 -74.95 -1.65 -75.0 -1.55 -75.15 -1.5 -75.35 -1.4 -75.6 -1.5 -75.75 -1.55 -75.8 -1.65 -75.85 -1.75 -75.9 -1.85 -76.1 -1.9 -76.35 -2.0 -76.5 -2.05 -76.55 -2.15 -76.6 -2.25 -76.6 -2.35 -76.6 -2.55 -76.6 -2.75 -76.6 -2.9 -76.6 -3.0 -76.55 -3.1 -76.5 -3.2 -77.45 -3.15 -78.1 -3.05 -78.35 -3.15 -78.5 -3.25 -78.55 -3.35 -78.6 -3.4 -78.6 -3.5 -78.6 -3.6 -78.6 -3.7 -78.6 -3.8 -78.45 -4.05 -78.0 -4.55 -77.65 -4.75 -77.85 -4.7 -78.5 -4.6 -78.75 -4.6 -79.0 -4.65 -79.1 -4.75 -79.2 -4.85 -79.25 -4.95 -79.25 -5.05 -79.25 -5.15 -79.25 -5.25 -79.2 -5.3 -79.15 -5.4 -79.1 -5.5 -79.05 -5.55 -79.25 -5.6 -79.5 -5.55 -80.35 -5.55 -80.6 -5.65 -80.65 -5.75 -80.7 -5.8 -80.7 -5.9" fill="#333333" fill-rule="evenodd" stroke="none"/>
    <path d="M-74.9 -6.8 L-74.85 -6.9 Q-74.35 -7.4 -73.5 -7.15 -73.05 -6.35 -73.05 -5.3 -73.0 -2.9 -73.5 -0.85 L-74.35 -0.55 Q-74.75 -1.5 -74.4 -2.7 -74.05 -3.95 -74.3 -5.2 L-74.2 -5.95 -74.9 -6.8" fill="#333333" fill-rule="evenodd" stroke="none"/>
    <path d="M84.2 -1.4 L84.6 -1.3 85.25 -1.25 85.25 -0.9 85.25 -0.35 85.25 0.3 85.25 0.7 85.3 0.8 85.3 1.35 85.35 4.9 85.35 6.45 83.85 6.35 83.9 4.1 83.95 0.5 84.05 -1.55 84.2 -1.4" fill="#333333" fill-rule="evenodd" stroke="none"/>
    <path d="M90.6 -1.55 L90.65 -1.55 90.85 2.15 91.0 6.25 91.05 6.9 89.25 6.8 89.3 5.15 89.4 1.15 89.45 1.1 89.45 1.0 89.5 0.9 89.5 0.8 89.55 0.55 89.5 -0.2 89.5 -0.9 89.55 -1.4 90.6 -1.55" fill="#333333" fill-rule="evenodd" stroke="none"/>
    <path d="M82.1 -8.7 L82.2 -8.8 82.25 -8.85 82.3 -8.85 82.45 -8.9 82.65 -8.85 82.75 -8.75 82.95 -5.3 83.0 -1.7 83.0 0.35 82.95 0.45 82.9 0.55 82.8 0.6 82.7 0.7 82.65 0.7 82.45 0.75 82.2 0.7 82.1 0.6 82.0 0.5 81.95 0.4 81.95 -2.95 82.0 -6.55 82.1 -8.6 82.1 -8.7" fill="#333333" fill-rule="evenodd" stroke="none"/>
    <path d="M93.0 -9.05 L93.2 -8.85 93.3 -8.65 93.4 -5.65 93.55 -2.3 93.45 -0.05 93.35 0.15 93.2 0.35 93.0 0.45 92.7 0.5 92.25 0.4 92.1 0.2 91.95 0.0 Q91.8 -1.45 91.9 -3.0 L92.0 -6.35 92.05 -8.6 92.1 -8.75 92.25 -8.95 92.45 -9.1 92.7 -9.15 93.0 -9.05" fill="#333333" fill-rule="evenodd" stroke="none"/>
    <path d="M93.15 -9.4 L93.15 -9.25 93.05 -9.05 92.85 -8.85 92.7 -8.75 92.45 -8.65 82.25 -9.0 82.05 -9.15 82.1 -9.35 82.2 -9.55 82.45 -9.65 92.2 -9.9 92.45 -9.9 92.8 -9.8 93.05 -9.6 93.15 -9.4" fill="#333333" fill-rule="evenodd" stroke="none"/>
    <path d="M89.5 -0.9 L89.5 -1.25 92.2 -1.25 92.65 -1.1 92.9 -0.9 93.0 -0.7 93.05 -0.55 93.1 -0.35 93.1 -0.15 93.05 0.0 92.95 0.2 92.8 0.4 92.65 0.5 92.5 0.55 89.55 0.65 89.55 0.55 89.5 -0.2 89.5 -0.9 M84.2 -1.25 L85.3 -1.25 85.25 -1.1 85.25 -0.35 85.25 0.3 85.25 0.7 82.7 0.6 82.45 0.5 82.2 0.45 81.9 0.4 81.5 0.25 81.4 0.1 81.3 -0.1 81.25 -0.3 81.3 -0.45 81.4 -0.65 81.5 -0.85 81.9 -0.95 83.7 -1.2 84.2 -1.25" fill="#333333" fill-rule="evenodd" stroke="none"/>
    <path d="M88.0 -2.4 Q87.05 -2.65 87.45 -3.3 L88.2 -3.2 90.25 -1.9 90.75 -0.7 Q90.7 -0.3 90.25 -0.25 89.9 -0.25 89.8 -0.45 L89.6 -1.35 89.2 -1.8 88.0 -2.4" fill="#333333" fill-rule="evenodd" stroke="none"/>
    <path d="M84.65 -2.0 L85.1 -2.2 85.6 -2.3 85.25 -1.45 Q84.9 -1.0 84.85 -0.3 84.85 0.3 84.35 0.4 83.8 0.15 84.05 -0.6 L84.65 -2.0" fill="#333333" fill-rule="evenodd" stroke="none"/>
    <path d="M93.6 -2.05 L93.5 -2.1 92.7 -2.45 91.5 -3.05 Q90.7 -3.25 90.55 -3.65 92.5 -3.4 93.6 -2.05" fill="#333333" fill-rule="evenodd" stroke="none"/>
    <path d="M93.25 -5.0 L93.25 -4.9 91.1 -4.85 91.25 -5.0 92.4 -5.1 93.25 -5.0" fill="#333333" fill-rule="evenodd" stroke="none"/>
    <path d="M91.55 -7.6 L91.35 -7.45 90.95 -7.0 Q90.3 -6.55 89.85 -6.65 L89.9 -6.8 Q90.65 -7.5 91.55 -7.6" fill="#333333" fill-rule="evenodd" stroke="none"/>
    <path d="M88.3 0.7 Q87.25 0.75 87.5 0.2 L88.0 0.2 Q90.2 -0.15 90.6 0.55 L89.8 0.75 88.3 0.7" fill="#333333" fill-rule="evenodd" stroke="none"/>
    <path d="M88.25 1.1 L88.6 1.1 88.6 1.05 89.5 1.05 89.75 1.1 89.95 1.15 90.35 1.2 90.55 1.3 90.75 1.35 90.8 1.45 90.9 1.55 90.95 1.65 90.95 1.75 90.85 1.85 90.7 1.85 90.55 1.75 90.4 1.7 90.0 1.65 89.8 1.6 89.6 1.55 88.6 1.5 88.0 1.55 87.95 1.45 88.0 1.4 88.05 1.3 88.1 1.2 88.2 1.1 88.25 1.1" fill="#333333" fill-rule="evenodd" stroke="none"/>
    <path d="M85.0 5.2 L85.3 6.1 Q85.35 6.75 85.9 7.05 L87.0 7.55 Q88.1 7.9 89.05 7.25 L89.55 5.95 90.7 5.95 90.8 7.35 90.3 8.25 88.75 9.5 86.0 9.45 Q84.6 8.45 84.25 7.5 83.9 6.55 84.15 5.3 L85.0 5.2" fill="#333333" fill-rule="evenodd" stroke="none"/>
    <path d="M87.55 6.75 Q87.05 6.6 87.5 6.4 L88.5 6.55 Q88.95 6.6 89.2 6.8 90.15 6.7 90.35 7.45 L90.1 7.65 88.65 7.2 87.55 6.75" fill="#333333" fill-rule="evenodd" stroke="none"/>
    <path d="M84.15 -5.95 L84.25 -5.95 84.3 -5.95 84.4 -5.95 84.4 -6.2 84.45 -6.2 84.5 -6.25 84.55 -6.3 84.6 -6.3 84.7 -6.3 84.7 -6.35 85.05 -6.35 85.2 -6.3 85.35 -6.25 85.45 -6.2 85.5 -6.15 85.5 -6.1 85.6 -6.0 85.7 -5.9 85.85 -5.75 85.9 -5.7 85.9 -5.65 85.95 -5.6 85.95 -5.55 85.95 -5.45 85.9 -5.25 85.9 -5.1 85.9 -5.0 85.9 -4.95 85.85 -4.9 85.8 -4.8 85.65 -4.6 85.4 -4.45 85.3 -4.45 84.9 -4.45 84.8 -4.45 84.75 -4.5 84.65 -4.5 84.6 -4.55 84.55 -4.55 84.3 -4.65 84.2 -4.65 84.1 -4.75 84.05 -4.8 84.05 -4.85 84.0 -4.9 84.0 -5.05 83.95 -5.1 83.95 -5.25 83.95 -5.35 83.95 -5.5 83.95 -5.6 84.0 -5.65 84.0 -5.7 84.05 -5.75 84.1 -5.85 84.15 -5.95 M84.55 -5.7 L84.5 -5.75 84.45 -5.75 84.4 -5.7 84.4 -5.65 84.35 -5.6 84.35 -5.5 84.35 -5.35 84.35 -5.2 84.4 -5.15 84.45 -5.1 84.45 -5.05 84.65 -5.0 84.8 -4.95 84.9 -4.95 85.25 -4.95 85.3 -5.0 85.3 -5.05 85.35 -5.1 85.4 -5.15 85.35 -5.2 85.35 -5.4 85.3 -5.5 85.15 -5.6 85.1 -5.7 85.1 -5.65 85.05 -5.65 85.0 -5.6 84.9 -5.65 84.8 -5.65 84.7 -5.65 84.6 -5.7 84.55 -5.7" fill="#333333" fill-rule="evenodd" stroke="none"/>
    <path d="M90.45 -4.85 L90.35 -4.85 90.3 -4.85 90.2 -4.85 90.2 -4.6 90.15 -4.6 90.1 -4.55 90.05 -4.5 90.0 -4.5 89.9 -4.5 89.9 -4.45 89.55 -4.45 89.4 -4.5 89.25 -4.55 89.15 -4.6 89.1 -4.65 89.1 -4.7 89.0 -4.8 88.9 -4.9 88.75 -5.05 88.7 -5.1 88.7 -5.15 88.65 -5.2 88.65 -5.25 88.65 -5.35 88.7 -5.55 88.7 -5.7 88.7 -5.8 88.7 -5.85 88.75 -5.9 88.8 -6.0 88.95 -6.2 89.2 -6.35 89.3 -6.35 89.7 -6.35 89.8 -6.35 89.85 -6.3 89.95 -6.3 90.0 -6.25 90.05 -6.25 90.3 -6.15 90.4 -6.15 90.5 -6.05 90.55 -6.0 90.55 -5.95 90.6 -5.9 90.6 -5.75 90.65 -5.7 90.65 -5.55 90.65 -5.45 90.65 -5.3 90.65 -5.2 90.6 -5.15 90.6 -5.1 90.55 -5.05 90.5 -4.95 90.45 -4.85 M90.05 -5.1 L90.1 -5.05 90.15 -5.05 90.2 -5.1 90.2 -5.15 90.25 -5.2 90.25 -5.3 90.25 -5.45 90.25 -5.6 90.2 -5.65 90.15 -5.7 90.15 -5.75 89.95 -5.8 89.8 -5.85 89.7 -5.85 89.35 -5.85 89.3 -5.8 89.3 -5.75 89.25 -5.7 89.2 -5.65 89.25 -5.6 89.25 -5.4 89.3 -5.3 89.45 -5.2 89.5 -5.1 89.5 -5.15 89.55 -5.15 89.6 -5.2 89.7 -5.15 89.8 -5.15 89.9 -5.15 90.0 -5.1 90.05 -5.1" fill="#333333" fill-rule="evenodd" stroke="none"/>
    <path d="M41.0 -8.65 L41.15 -8.55 41.2 -8.5 41.3 -5.4 41.3 -2.1 41.25 -0.15 41.25 -0.05 41.15 0.05 41.1 0.15 41.0 0.2 40.85 0.25 40.6 0.2 40.5 0.1 40.45 0.0 40.35 -3.1 40.4 -6.4 40.45 -8.45 40.5 -8.55 40.6 -8.65 40.7 -8.7 40.85 -8.7 40.85 -8.75 41.0 -8.65" fill="#333333" fill-rule="evenodd" stroke="none"/>
    <path d="M42.85 -9.25 L43.0 -9.15 43.1 -9.05 43.1 -8.95 43.1 -8.9 43.05 -8.8 42.95 -8.7 42.9 -8.65 42.7 -8.6 40.85 -8.55 40.7 -8.5 40.45 -8.55 40.4 -8.65 40.35 -8.75 40.35 -8.8 40.35 -8.9 40.4 -9.0 40.45 -9.1 40.6 -9.2 40.7 -9.25 40.85 -9.3 42.1 -9.3 42.7 -9.3 42.85 -9.25" fill="#333333" fill-rule="evenodd" stroke="none"/>
    <path d="M43.35 -9.1 L43.45 -9.0 43.5 -8.9 43.65 -5.6 43.65 -2.15 43.65 -0.15 43.6 -0.05 43.6 0.05 43.55 0.1 43.45 0.2 43.35 0.25 43.2 0.3 42.95 0.2 42.85 0.1 42.75 0.05 42.7 -3.3 42.75 -6.85 42.8 -8.85 42.85 -8.95 42.95 -9.05 43.0 -9.1 43.2 -9.15 43.35 -9.1" fill="#333333" fill-rule="evenodd" stroke="none"/>
    <path d="M40.85 -0.6 L42.2 -0.6 43.0 -0.4 43.1 -0.3 43.15 -0.25 43.2 -0.15 43.2 -0.05 43.15 0.05 43.1 0.15 43.0 0.25 42.85 0.3 42.6 0.25 40.85 0.2 40.6 0.15 40.55 0.05 40.45 -0.05 40.45 -0.15 40.45 -0.2 40.45 -0.3 40.5 -0.4 40.6 -0.5 40.7 -0.55 40.85 -0.6" fill="#333333" fill-rule="evenodd" stroke="none"/>
    <path d="M45.5 -8.65 L45.65 -8.55 45.7 -8.5 45.8 -5.4 45.8 -2.1 45.75 -0.15 45.75 -0.05 45.65 0.05 45.6 0.15 45.5 0.2 45.35 0.25 45.1 0.2 45.0 0.1 44.95 0.0 44.85 -3.1 44.9 -6.4 44.95 -8.45 45.0 -8.55 45.1 -8.65 45.2 -8.7 45.35 -8.7 45.35 -8.75 45.5 -8.65" fill="#333333" fill-rule="evenodd" stroke="none"/>
    <path d="M47.35 -9.25 L47.5 -9.15 47.6 -9.05 47.6 -8.95 47.6 -8.9 47.55 -8.8 47.45 -8.7 47.4 -8.65 47.2 -8.6 45.35 -8.55 45.2 -8.5 44.95 -8.55 44.9 -8.65 44.85 -8.75 44.85 -8.8 44.85 -8.9 44.9 -9.0 44.95 -9.1 45.1 -9.2 45.2 -9.25 45.35 -9.3 46.6 -9.3 47.2 -9.3 47.35 -9.25" fill="#333333" fill-rule="evenodd" stroke="none"/>
    <path d="M47.85 -9.25 L47.95 -9.15 48.0 -9.05 48.15 -5.75 48.15 -2.25 48.15 -0.25 48.1 -0.15 48.1 -0.05 48.05 0.05 47.95 0.15 47.85 0.2 47.7 0.25 47.45 0.15 47.35 0.05 47.25 0.0 47.2 -3.45 47.25 -7.0 47.3 -9.0 47.35 -9.1 47.45 -9.2 47.5 -9.25 47.7 -9.3 47.85 -9.25" fill="#333333" fill-rule="evenodd" stroke="none"/>
    <path d="M45.35 -0.6 L46.7 -0.6 47.5 -0.4 47.6 -0.3 47.65 -0.25 47.7 -0.15 47.7 -0.05 47.65 0.05 47.6 0.15 47.5 0.25 47.35 0.3 47.1 0.25 45.35 0.2 45.1 0.15 45.05 0.05 44.95 -0.05 44.95 -0.15 44.95 -0.2 44.95 -0.3 45.0 -0.4 45.1 -0.5 45.2 -0.55 45.35 -0.6" fill="#333333" fill-rule="evenodd" stroke="none"/>
    <path d="M41.6 -0.2 L41.95 0.6 Q42.3 2.25 44.0 2.4 45.95 2.55 46.65 0.65 L46.25 -0.3 46.5 -0.9 46.6 -0.9 Q47.35 -0.85 47.65 -0.05 L47.5 1.3 Q46.8 2.95 45.2 3.3 L43.7 3.35 Q42.3 3.2 41.6 1.95 41.35 1.5 41.25 0.8 L41.2 0.1 Q41.1 -0.55 41.6 -0.2" fill="#333333" fill-rule="evenodd" stroke="none"/>
    <path d="M48.25 -7.75 L48.35 -7.8 48.45 -7.8 48.65 -7.75 48.75 -7.7 48.75 -7.6 48.8 -7.55 48.85 -5.5 48.85 -3.25 48.85 -1.85 48.8 -1.75 48.8 -1.7 48.75 -1.65 48.65 -1.55 48.6 -1.5 48.45 -1.45 48.3 -1.5 48.2 -1.6 48.1 -1.65 48.05 -3.0 48.1 -4.5 48.1 -5.55 47.95 -5.7 47.65 -6.0 47.6 -6.1 47.6 -6.15 47.65 -6.2 47.65 -6.3 47.65 -6.35 47.65 -6.5 47.85 -6.85 48.05 -7.2 48.05 -7.3 48.1 -7.35 48.1 -7.45 48.1 -7.5 48.1 -7.6 48.15 -7.65 48.25 -7.75" fill="#333333" fill-rule="evenodd" stroke="none"/>
    <path d="M49.05 -3.9 L49.0 -4.2 Q48.85 -5.0 49.6 -4.9 L49.75 -4.45 49.65 -1.15 49.35 -0.65 49.2 -0.9 49.1 -1.9 49.05 -3.9" fill="#333333" fill-rule="evenodd" stroke="none"/>
    <path d="M60.15 -7.7 L60.1 -7.6 60.1 -7.55 60.1 -7.45 60.1 -7.4 60.1 -7.3 60.05 -7.15 60.05 -7.1 60.05 -7.0 60.05 -6.95 60.1 -6.85 60.05 -6.8 60.05 -6.7 60.05 -6.65 60.0 -6.5 60.0 -6.2 59.95 -5.85 59.9 -5.5 59.85 -5.5 59.75 -5.45 59.65 -5.5 59.55 -5.55 59.55 -5.9 59.55 -6.25 59.55 -6.6 59.55 -6.7 59.6 -6.75 59.6 -6.85 59.65 -7.0 59.65 -7.05 59.65 -7.15 59.65 -7.2 59.7 -7.3 59.75 -7.35 59.75 -7.45 59.75 -7.55 59.8 -7.65 59.85 -7.75 59.95 -7.8 60.05 -7.85 60.1 -7.85 60.2 -7.75 60.15 -7.7" fill="#333333" fill-rule="evenodd" stroke="none"/>
    <path d="M60.95 -7.25 L61.1 -7.2 61.15 -7.15 61.2 -7.05 61.2 -6.75 61.2 -6.4 61.15 -6.0 61.15 -5.95 61.1 -5.9 61.1 -5.8 61.1 -5.7 61.0 -5.65 60.9 -5.65 60.85 -5.75 60.8 -5.8 60.75 -5.85 60.75 -6.25 60.75 -6.7 60.75 -7.05 60.75 -7.15 60.8 -7.2 60.95 -7.25" fill="#333333" fill-rule="evenodd" stroke="none"/>
    <path d="M42.9 1.25 Q42.35 0.7 42.35 -0.05 42.35 -0.8 42.9 -1.35 43.4 -1.9 44.15 -1.9 44.9 -1.9 45.45 -1.35 45.95 -0.8 45.95 -0.05 45.95 0.7 45.45 1.25 44.9 1.8 44.15 1.8 43.4 1.8 42.9 1.25 M43.3 -0.6 Q43.0 -0.3 43.0 0.15 43.0 0.6 43.3 0.9 L44.05 1.2 Q44.5 1.2 44.8 0.9 L45.1 0.15 44.8 -0.6 44.05 -0.9 43.3 -0.6" fill="#333333" fill-rule="evenodd" stroke="none"/>
  </g>
</svg>
