<?xml version="1.0" encoding="UTF-8" standalone="no"?>
<svg xmlns:xlink="http://www.w3.org/1999/xlink" height="100.65px" width="65.2px" xmlns="http://www.w3.org/2000/svg">
  <g transform="matrix(1.0, 0.0, 0.0, 1.0, 31.9, 38.65)">
    <path d="M0.1 60.05 Q-0.5 54.75 -2.45 50.0 -4.4 45.15 -5.95 40.2 -7.4 35.35 -9.4 29.85 -11.35 24.4 -12.5 19.95 -13.5 15.6 -14.85 11.05 L-17.9 0.75 -20.9 -9.0 -23.75 -18.65 Q-25.15 -24.2 -26.3 -26.55 -27.45 -28.8 -29.75 -37.0" fill="none" stroke="#333333" stroke-linecap="round" stroke-linejoin="round" stroke-opacity="0.7019608" stroke-width="2.0"/>
    <path d="M0.3 60.1 Q2.85 55.4 4.0 50.3 5.15 45.3 6.8 40.35 L9.9 29.9 Q11.45 24.2 13.05 20.0 L16.25 11.35 19.65 1.2 22.8 -8.55 Q24.05 -12.7 26.0 -18.05 28.05 -23.45 28.45 -26.0 28.85 -28.5 31.65 -36.55" fill="none" stroke="#333333" stroke-linecap="round" stroke-linejoin="round" stroke-opacity="0.7019608" stroke-width="2.0"/>
  </g>
</svg>
