<?xml version="1.0" encoding="UTF-8" standalone="no"?>
<svg xmlns:xlink="http://www.w3.org/1999/xlink" height="18.85px" width="13.25px" xmlns="http://www.w3.org/2000/svg">
  <g transform="matrix(1.0, 0.0, 0.0, 1.0, 10.4, 9.95)">
    <path d="M-3.35 -5.6 L-3.75 -4.35 -2.0 -2.95 Q-0.15 -1.8 1.75 -1.5 L1.9 -1.3 1.65 -0.5 1.6 -0.5 1.65 -0.45 Q0.5 1.0 -0.1 2.75 L-0.05 2.85 -0.25 2.85 -1.55 1.35 -1.65 1.2 -1.9 1.15 Q-2.05 0.9 -2.4 0.85 L-4.1 0.4 -4.3 0.25 -3.3 -2.85 Q-3.45 -3.45 -4.1 -3.6 -5.2 -4.05 -6.15 -4.8 L-7.65 -4.95 -4.2 -2.75 -4.65 -1.9 Q-5.35 -2.95 -6.7 -3.2 -8.6 -3.2 -9.35 -4.65 L-9.1 -5.8 -8.85 -6.2 Q-7.55 -7.65 -5.6 -8.4 L-5.05 -8.75 Q-3.8 -9.6 -2.95 -8.4 -2.75 -7.85 -2.95 -7.45 L-3.1 -6.4 -3.3 -5.7 -3.4 -5.65 -3.35 -5.6 M1.15 2.1 L2.05 0.4 2.0 0.5 1.85 1.05 1.7 1.5 1.65 1.65 1.6 1.75 1.35 1.95 1.15 2.1" fill="#e05b31" fill-rule="evenodd" stroke="none"/>
    <path d="M1.65 -0.5 L1.9 -1.3 1.75 -1.5 Q-0.15 -1.8 -2.0 -2.95 L-3.75 -4.35 -3.35 -5.6 -3.3 -5.7 -3.1 -6.4 -2.95 -7.45 Q-2.75 -7.85 -2.95 -8.4 -3.8 -9.6 -5.05 -8.75 L-5.6 -8.4 Q-7.55 -7.65 -8.85 -6.2 L-9.1 -5.8 -9.35 -4.65 Q-8.6 -3.2 -6.7 -3.2 -5.35 -2.95 -4.65 -1.9 L-4.2 -2.75 -7.65 -4.95 -6.15 -4.8 Q-5.2 -4.05 -4.1 -3.6 -3.45 -3.45 -3.3 -2.85 L-4.3 0.25 -4.3 0.35 -4.1 0.4 -2.4 0.85 Q-2.05 0.9 -1.9 1.15 L-1.55 1.35 -0.25 2.85 Q0.0 3.4 -0.7 3.6 -1.1 3.5 -1.3 3.25 -1.7 2.7 -2.25 2.45 L-5.45 1.0 -5.95 -0.2 Q-5.6 -1.0 -5.75 -1.6 L-5.95 -1.85 Q-8.95 -2.2 -10.4 -4.65 L-9.85 -6.15 Q-8.4 -8.3 -6.0 -9.05 L-5.75 -9.55 -4.65 -9.85 Q-2.55 -10.35 -1.8 -8.35 L-1.85 -8.15 -2.05 -6.35 Q-2.15 -5.5 -2.65 -4.65 L-1.65 -3.5 Q0.95 -3.1 2.85 -1.7 L2.85 -1.6 Q2.7 -0.6 2.05 0.4 L1.15 2.1 0.65 2.65 0.6 3.0 Q0.2 3.5 -0.05 2.85 L-0.1 2.75 Q0.5 1.0 1.65 -0.45 L1.65 -0.5" fill="#333333" fill-rule="evenodd" stroke="none"/>
    <path d="M0.45 6.2 L0.5 6.8 1.6 7.45 Q-0.1 8.85 -2.2 7.9 L-3.15 7.3 -3.15 7.05 -2.8 6.6 -2.15 6.55 Q-1.05 5.45 -0.65 3.85 L0.15 4.3 0.3 5.45 0.45 6.2" fill="#e05b31" fill-rule="evenodd" stroke="none"/>
    <path d="M-0.15 2.5 L-0.05 2.75 0.1 3.35 0.0 3.5 -0.1 3.7 -0.4 4.2 -1.95 6.95 Q-2.5 7.15 -2.65 6.65 L-2.6 6.05 -1.95 4.95 -1.2 3.8 -1.0 3.25 Q-0.8 2.35 -0.15 2.5" fill="#333333" fill-rule="evenodd" stroke="none"/>
    <path d="M-0.1 2.55 L0.4 3.4 0.65 4.45 0.8 5.2 Q1.3 6.45 0.65 7.35 0.05 7.55 0.0 6.95 L-0.3 5.05 -0.55 3.15 Q-0.55 2.5 -0.1 2.55" fill="#333333" fill-rule="evenodd" stroke="none"/>
    <path d="M0.05 6.25 L0.3 6.35 Q1.7 6.4 2.4 7.4 L2.4 7.6 2.4 7.7 2.35 7.75 1.8 8.6 Q1.65 8.65 1.55 8.75 -1.2 9.3 -3.65 7.9 L-4.1 7.5 -4.1 7.35 Q-4.15 6.6 -3.45 6.25 -2.6 6.05 -2.35 6.6 -2.7 7.05 -3.3 7.05 L-3.3 7.15 Q-1.1 8.7 1.4 7.65 0.75 7.15 -0.15 7.1 -0.75 7.2 -0.7 6.6 L-0.6 6.4 0.05 6.25" fill="#333333" fill-rule="evenodd" stroke="none"/>
  </g>
</svg>
