<?xml version="1.0" encoding="UTF-8" standalone="no"?>
<svg xmlns:xlink="http://www.w3.org/1999/xlink" height="78.35px" width="123.75px" xmlns="http://www.w3.org/2000/svg">
  <g transform="matrix(1.0, 0.0, 0.0, 1.0, 59.65, -43.5)">
    <path d="M0.1 60.05 Q-1.1 63.45 -3.6 67.25 L-8.4 74.7 Q-10.55 78.4 -13.3 81.3 -16.05 84.25 -18.05 88.1 -19.9 92.05 -22.4 95.5 -24.85 98.9 -27.85 100.8 L-34.1 104.8 Q-37.35 106.9 -40.65 104.45 -43.9 102.0 -46.45 97.6 -48.95 93.2 -49.8 88.15 -50.7 83.1 -51.2 77.9 L-51.95 70.4 -52.15 60.1" fill="none" stroke="#333333" stroke-linecap="round" stroke-linejoin="round" stroke-opacity="0.7019608" stroke-width="2.0"/>
    <path d="M0.3 60.1 Q3.1 64.35 4.45 68.15 5.9 72.05 7.8 76.0 9.65 79.95 11.55 83.05 13.4 86.25 15.45 90.65 L19.65 99.05 Q21.7 103.05 24.35 105.75 27.05 108.5 29.3 112.2 31.55 115.9 35.1 117.25 38.75 118.65 41.65 117.2 44.6 115.75 46.9 111.4 49.35 107.1 50.4 101.75 51.5 96.5 51.9 91.45 L52.8 81.3 Q53.25 76.15 52.95 70.95 52.6 65.85 53.1 63.4 53.65 61.0 53.6 60.35" fill="none" stroke="#333333" stroke-linecap="round" stroke-linejoin="round" stroke-opacity="0.7019608" stroke-width="2.0"/>
  </g>
</svg>
