<?xml version="1.0" encoding="UTF-8" standalone="no"?>
<svg xmlns:xlink="http://www.w3.org/1999/xlink" height="52.0px" width="43.0px" xmlns="http://www.w3.org/2000/svg">
  <g transform="matrix(1.0, 0.0, 0.0, 1.0, 1.0, 1.0)">
    <path d="M0.0 0.0 L0.15 4.0 0.85 8.0 Q1.25 10.05 1.8 11.95 L3.15 15.7 4.3 18.4 6.0 21.5 8.3 24.75 10.8 27.9 13.6 30.8 15.8 32.9 18.5 35.05 20.85 36.8 24.45 39.55 27.0 41.2 Q27.85 41.75 29.05 42.3 L30.55 40.05 31.9 37.5 32.65 36.1 32.0 35.5 M32.65 36.1 L33.0 35.0 M39.5 43.5 L37.95 44.2 35.0 43.85 31.9 43.2 29.05 42.3 26.65 45.6 24.8 48.15 23.5 50.0 27.3 48.8 31.15 47.6 34.1 46.7 39.05 45.15 41.0 44.0 38.05 41.15 35.85 39.05 32.65 36.1" fill="none" stroke="#ffffff" stroke-linecap="round" stroke-linejoin="round" stroke-width="2.0"/>
  </g>
</svg>
