<?xml version="1.0" encoding="UTF-8" standalone="no"?>
<svg xmlns:xlink="http://www.w3.org/1999/xlink" height="91.6px" width="184.6px" xmlns="http://www.w3.org/2000/svg">
  <g transform="matrix(1.0, 0.0, 0.0, 1.0, 92.3, 45.8)">
    <path d="M-69.85 15.1 L-69.25 15.8 -69.3 16.25 -70.7 18.7 -71.0 19.45 Q-72.05 22.45 -74.8 24.1 L-75.65 24.0 -77.1 22.4 -77.85 20.6 -77.85 19.45 Q-76.85 18.45 -75.55 17.75 L-74.9 17.45 Q-74.1 17.1 -73.4 16.55 -72.8 16.0 -72.0 15.9 L-71.8 15.9 -71.4 16.25 -70.6 15.25 -69.85 15.1 M-71.45 16.9 L-72.1 17.0 -72.55 17.4 Q-72.9 17.9 -73.4 18.15 L-74.8 18.8 Q-75.85 19.3 -76.4 20.15 L-76.25 20.55 Q-76.2 21.85 -74.95 22.45 L-74.4 21.95 -73.6 20.95 -73.0 19.95 -71.9 17.8 -71.45 16.9" fill="#333333" fill-rule="evenodd" stroke="none"/>
    <path d="M-2.85 -45.6 L-2.7 -45.75 -1.6 -45.8 -1.55 -45.7 -1.45 -45.6 -1.35 -45.5 -1.15 -45.4 -0.95 -45.3 -7.8 -39.05 -16.55 -31.15 Q-21.0 -27.2 -25.4 -23.35 L-34.15 -15.45 -42.9 -7.5 -51.6 0.45 -60.35 8.4 -69.2 16.15 -70.0 16.9 -70.2 17.0 -70.6 17.2 -70.9 17.35 -71.2 17.6 -71.4 17.6 -71.7 17.5 -71.8 17.2 -71.8 16.95 -71.65 16.8 -71.5 16.65 -71.35 16.55 -71.3 16.4 -71.2 16.2 -71.1 16.0 -62.6 8.15 -53.8 0.25 -45.0 -7.6 -36.2 -15.45 -27.5 -23.4 -18.75 -31.35 -10.0 -39.25 -2.9 -45.6 -2.85 -45.6" fill="#333333" fill-rule="evenodd" stroke="none"/>
    <path d="M-63.5 13.05 L-64.5 13.65 -65.0 13.85 Q-67.6 13.15 -66.8 10.6 L-66.6 10.4 -66.4 10.2 -66.25 10.15 -64.95 10.3 -63.8 10.5 Q-63.25 11.3 -63.4 12.2 L-63.5 13.05" fill="#333333" fill-rule="evenodd" stroke="none"/>
    <path d="M69.7 17.5 L69.9 18.15 70.35 18.55 71.15 19.35 72.0 20.6 Q72.65 21.6 73.5 22.05 L73.95 21.85 Q75.2 21.65 75.7 20.3 L75.15 19.8 74.0 19.1 72.9 18.7 70.65 17.8 69.7 17.5 M67.75 16.15 L68.35 15.45 68.8 15.4 Q70.0 16.2 71.4 16.6 L72.2 16.75 Q75.3 17.4 77.25 19.95 L77.25 20.8 75.85 22.5 Q75.0 23.05 74.15 23.4 L73.0 23.6 Q71.9 22.65 71.1 21.5 L70.7 20.9 69.55 19.55 Q69.0 18.95 68.8 18.15 68.7 18.05 68.75 17.95 L69.05 17.55 68.0 16.85 67.75 16.15" fill="#333333" fill-rule="evenodd" stroke="none"/>
    <path d="M-3.15 -45.5 L-2.85 -45.6 -2.75 -45.7 -1.65 -45.75 -1.55 -45.7 -1.5 -45.6 -1.4 -45.45 -1.35 -45.45 -1.4 -45.4 -1.6 -44.85 -2.1 -44.35 -2.15 -44.3 -2.25 -44.4 -3.35 -45.35 -3.25 -45.45 -3.15 -45.5 M0.9 -41.65 L1.2 -41.95 1.95 -42.7 6.55 -38.8 15.45 -31.1 24.25 -23.25 33.15 -15.55 42.1 -7.8 51.0 -0.15 59.95 7.6 68.7 15.4 69.55 16.15 69.7 16.3 69.9 16.75 70.1 16.95 70.4 17.25 70.4 17.45 70.35 17.75 70.05 17.9 69.8 17.9 69.65 17.8 69.5 17.65 69.35 17.6 69.2 17.5 69.0 17.4 68.8 17.35 59.95 9.85 51.05 2.1 42.2 -5.7 33.4 -13.45 24.45 -21.2 15.5 -28.9 6.65 -36.65 0.9 -41.65" fill="#333333" fill-rule="evenodd" stroke="none"/>
    <path d="M64.95 10.15 L65.7 11.05 65.9 11.5 Q65.6 14.2 62.9 13.7 L62.7 13.5 62.5 13.35 62.45 13.15 62.4 11.9 62.5 10.75 Q63.2 10.1 64.1 10.15 L64.95 10.15" fill="#333333" fill-rule="evenodd" stroke="none"/>
    <path d="M-60.05 35.6 L-60.3 35.55 -60.45 35.5 -60.8 35.5 -61.0 35.55 -61.15 35.55 -61.45 35.7 -61.85 36.0 -62.05 36.2 -62.15 36.3 -62.15 36.4 -62.2 36.45 -62.2 36.55 -62.2 36.75 -62.2 36.95 -62.2 37.05 -62.2 37.15 -62.2 37.2 -62.2 37.3 -62.2 37.4 -62.15 37.5 -62.15 37.6 -62.05 37.7 -62.0 37.8 -61.9 37.9 -61.8 37.95 -61.15 38.2 -60.8 38.25 -60.45 38.2 -60.35 38.15 -60.2 38.05 -60.1 37.95 -59.95 37.85 -59.8 37.75 -59.75 37.65 -59.65 37.55 -59.6 37.45 -59.55 37.4 -59.55 37.3 -59.5 37.2 -59.45 37.1 -59.45 36.9 -59.45 36.65 -59.5 36.45 -59.5 36.35 -59.5 36.25 -59.55 36.15 -59.65 36.0 -59.7 35.9 -59.8 35.8 -59.9 35.7 -60.05 35.6 M-30.95 35.65 L-30.95 35.7 -31.15 35.7 -31.3 35.7 -31.35 35.75 -31.7 36.0 -31.9 36.2 -32.05 36.4 -32.1 36.45 -32.15 36.55 -32.2 36.65 -32.2 36.75 -32.2 36.85 -32.2 36.95 -32.2 37.05 -32.2 37.15 -32.2 37.2 -32.2 37.3 -32.2 37.4 -32.15 37.5 -32.1 37.6 -32.05 37.7 -32.0 37.8 -31.9 37.9 -31.8 37.95 -31.45 38.15 -31.25 38.2 -31.05 38.25 -30.95 38.25 -30.8 38.2 -30.6 38.2 -30.55 38.15 -30.35 38.15 -30.2 38.1 -29.75 37.7 -29.5 37.45 -29.35 37.25 -29.3 37.15 -29.3 37.05 -29.25 36.95 -29.2 36.9 -29.2 36.8 -29.2 36.7 -29.2 36.6 -29.25 36.5 -29.25 36.4 -29.3 36.3 -29.4 36.15 -29.45 36.05 -29.55 35.95 -29.65 35.85 -29.8 35.75 -30.2 35.7 -30.95 35.65 M0.3 36.15 L0.15 36.05 0.0 35.95 -0.15 35.85 -0.35 35.8 -0.55 35.75 -0.7 35.75 -0.9 35.8 -1.05 35.8 -1.1 35.85 -1.25 35.9 -1.4 36.0 -1.55 36.1 -1.65 36.2 -1.75 36.3 -1.8 36.4 -1.85 36.45 -1.9 36.55 -1.95 36.65 -1.95 36.75 -1.95 36.85 -1.95 36.95 -1.95 37.05 -1.95 37.15 -1.95 37.2 -1.95 37.3 -1.95 37.4 -1.9 37.5 -1.85 37.6 -1.8 37.7 -1.75 37.8 -1.65 37.9 -1.55 37.95 -0.95 38.15 -0.1 38.1 0.3 37.8 0.45 37.6 0.55 37.45 0.65 37.25 0.65 37.15 0.7 37.05 0.7 36.95 0.7 36.9 0.7 36.8 0.65 36.7 0.65 36.6 0.6 36.5 0.55 36.4 0.5 36.3 0.4 36.25 0.3 36.15 M30.0 35.7 L29.55 35.65 28.9 35.6 28.75 35.65 28.55 35.65 28.4 35.75 28.25 35.85 28.15 35.95 28.05 36.05 28.0 36.15 28.0 36.25 27.95 36.3 27.9 36.4 27.9 36.7 27.9 36.9 27.9 37.0 27.9 37.05 27.9 37.15 27.9 37.25 27.95 37.35 28.0 37.45 28.0 37.55 28.05 37.65 28.15 37.75 28.25 37.8 28.3 37.9 28.75 38.05 29.75 38.05 29.9 38.05 30.0 38.0 30.1 37.95 30.2 37.85 30.3 37.75 30.4 37.65 30.45 37.55 30.5 37.5 30.5 37.4 30.55 37.3 30.55 37.2 30.55 37.0 30.55 36.75 30.55 36.55 30.55 36.45 30.55 36.35 30.5 36.25 30.4 36.1 30.35 36.0 30.25 35.9 30.15 35.8 30.0 35.7 M60.65 37.25 L60.65 37.15 60.65 37.05 60.65 36.95 60.65 36.85 60.6 36.75 60.25 36.3 59.65 36.0 59.05 35.85 58.85 35.9 58.7 35.9 58.65 35.95 58.4 36.1 58.3 36.2 58.05 36.5 57.9 36.65 57.85 36.75 57.85 36.85 57.8 36.95 57.8 37.05 57.8 37.15 57.8 37.25 57.8 37.3 57.8 37.4 57.85 37.5 57.85 37.6 57.9 37.7 57.95 37.8 58.0 37.9 58.1 38.0 58.2 38.05 58.4 38.15 58.9 38.25 59.25 38.2 59.4 38.15 59.65 38.1 59.85 38.05 60.0 38.05 60.15 38.0 60.3 37.9 60.4 37.8 60.45 37.7 60.5 37.6 60.6 37.5 60.6 37.4 60.65 37.3 60.65 37.25 M90.15 31.85 L88.9 31.85 88.9 41.5 90.15 41.5 90.15 44.55 -91.6 44.55 -91.6 41.8 -89.5 41.8 -89.5 31.45 -91.6 31.45 -91.6 28.0 90.15 28.0 90.15 31.85" fill="#dd9222" fill-rule="evenodd" stroke="none"/>
    <path d="M-73.55 20.3 L-73.55 44.3 -77.4 44.3 -77.4 20.3 -73.55 20.3" fill="#ffcc66" fill-rule="evenodd" stroke="none"/>
    <path d="M76.45 20.3 L76.45 44.3 72.6 44.3 72.6 20.3 76.45 20.3" fill="#ffcc66" fill-rule="evenodd" stroke="none"/>
    <path d="M54.0 43.75 L8.1 43.5 3.55 43.0 -53.1 42.75 -55.2 42.25 -56.6 41.5 -57.2 40.75 -57.65 40.0 -57.65 39.25 -57.55 38.55 -57.3 37.75 -56.85 37.05 -56.25 36.3 -55.55 35.75 -54.85 35.55 -53.2 34.95 -52.05 34.55 -50.7 34.0 -50.25 33.3 -49.65 32.5 -48.25 31.75 -45.2 30.95 -43.7 30.5 -42.0 30.4 Q-20.3 30.4 1.5 30.65 L3.2 30.75 4.95 30.9 54.0 31.25 56.35 31.8 58.15 32.25 60.6 32.75 61.65 33.5 64.7 33.7 65.45 34.0 65.55 34.15 67.55 34.75 68.55 35.55 69.25 36.3 69.65 37.0 69.65 37.75 69.45 38.5 68.9 39.25 67.85 40.0 66.85 40.5 65.05 40.7 62.35 40.85 58.85 41.0 58.45 41.5 57.75 42.25 56.7 43.0 55.75 43.5 54.0 43.65 54.0 43.75 M59.7 38.45 L59.85 38.35 60.0 38.3 60.05 38.2 60.25 38.1 60.4 38.0 60.6 37.95 60.75 37.85 60.8 37.8 60.9 37.7 60.95 37.6 61.0 37.5 61.0 37.4 61.1 37.3 61.1 37.2 61.1 37.1 61.1 37.05 61.1 36.95 61.1 36.85 61.0 36.75 60.95 36.65 60.95 36.55 60.95 36.35 60.95 36.3 60.95 36.2 60.95 36.1 60.95 36.0 60.95 35.9 60.8 35.7 60.75 35.65 60.65 35.55 60.55 35.45 60.4 35.35 60.0 35.3 58.75 35.25 58.5 35.3 57.9 35.45 57.55 35.65 57.35 35.7 57.25 35.8 57.05 36.0 57.0 36.1 57.0 36.2 56.85 36.3 56.85 36.35 56.8 36.45 56.8 36.55 56.7 36.65 56.7 36.85 56.7 37.05 56.7 37.2 56.7 37.3 56.8 37.4 56.8 37.5 56.9 37.7 57.0 37.8 57.05 37.85 57.2 37.95 57.25 38.05 57.4 38.15 57.7 38.2 57.7 38.25 57.75 38.3 57.9 38.4 59.5 38.45 59.7 38.45 M31.3 37.8 L31.4 37.7 31.4 37.6 31.55 37.5 31.55 37.4 31.6 37.3 31.6 37.2 31.6 37.1 31.6 37.05 31.6 36.95 31.6 36.85 31.55 36.75 31.45 36.65 31.4 36.55 31.4 36.45 31.25 36.35 31.2 36.3 31.05 36.2 30.85 36.1 30.7 35.9 30.65 35.7 30.5 35.65 30.4 35.55 30.3 35.45 30.0 35.4 29.8 35.35 29.6 35.35 29.45 35.35 28.55 35.5 Q28.0 35.55 27.55 36.05 L27.15 36.55 27.15 36.6 27.15 36.7 27.1 36.8 27.1 37.0 27.1 37.3 27.15 37.45 27.15 37.55 27.15 37.65 27.15 37.75 27.3 37.95 27.35 38.05 27.45 38.1 27.5 38.2 27.65 38.3 29.3 38.55 Q29.95 38.55 30.35 38.1 L30.55 38.1 30.75 38.05 30.9 38.05 31.05 37.95 31.25 37.85 31.3 37.8 M-2.7 37.7 L-2.7 37.9 -2.7 38.0 -2.6 38.1 -2.55 38.2 -2.55 38.3 -2.5 38.35 -2.4 38.45 -2.35 38.55 -2.2 38.65 -2.05 38.75 0.45 38.95 0.65 38.9 0.85 38.7 1.05 38.55 1.15 38.45 1.15 38.35 1.3 38.25 1.75 37.95 1.9 37.75 2.05 37.6 2.05 37.5 2.05 37.4 2.05 37.3 2.05 37.2 2.05 37.1 2.05 37.05 2.05 36.95 2.05 36.85 1.9 36.75 1.9 36.65 1.85 36.55 1.7 36.45 1.55 36.35 1.5 36.25 1.4 36.2 1.4 36.1 1.4 36.0 1.35 35.9 1.35 35.8 1.2 35.7 1.15 35.6 1.05 35.55 0.95 35.45 0.8 35.35 0.3 35.3 -0.8 35.25 -0.95 35.3 -1.15 35.3 -1.25 35.35 -1.3 35.35 -1.5 35.4 -2.0 35.65 -2.2 35.85 -2.4 36.05 -2.4 36.1 -2.5 36.2 -2.5 36.3 -2.55 36.4 -2.55 36.5 -2.55 36.6 -2.6 36.7 -2.7 37.05 -2.6 37.45 -2.7 37.7 M-32.25 39.2 L-32.1 39.35 -31.95 39.45 -31.55 39.6 -30.1 39.7 -29.9 39.65 -29.75 39.55 -29.6 39.45 -29.55 39.35 -29.45 39.25 -29.25 39.2 -28.9 38.8 -28.7 38.55 -28.5 38.25 -28.35 37.95 -28.3 37.85 -28.2 37.75 -28.2 37.7 -28.2 37.6 -28.15 37.5 -28.15 37.3 -28.15 36.75 -28.15 36.45 -28.15 36.2 -28.2 35.9 -28.2 35.8 -28.3 35.6 -28.35 35.55 -28.4 35.45 -28.55 35.35 -28.7 35.25 -29.05 35.1 -29.2 35.0 -29.35 34.95 -29.45 34.85 -29.9 34.75 -30.8 34.75 -31.0 34.8 -31.15 34.8 -32.05 35.3 -32.5 35.85 -32.8 36.3 -32.95 36.35 -32.95 36.45 -33.0 36.55 -33.0 36.65 -33.0 36.75 -33.0 36.95 -33.0 37.3 -33.0 37.6 -33.0 37.85 -33.0 38.05 -33.0 38.15 -33.0 38.25 -33.0 38.35 -32.95 38.45 -32.8 38.6 -32.5 38.9 -32.25 39.2" fill="#ffffff" fill-opacity="0.101960786" fill-rule="evenodd" stroke="none"/>
    <path d="M-20.75 39.5 L-21.8 38.75 -22.45 38.0 -22.85 37.25 -23.05 36.5 -22.85 35.75 -22.5 35.0 -21.8 34.3 -20.75 33.5 -18.7 32.75 -17.3 32.25 -15.6 31.95 -13.8 31.5 -12.75 30.8 -11.75 30.25 -10.0 30.05 -4.15 29.4 -1.65 29.0 Q35.15 28.2 72.1 28.65 L77.9 29.35 Q82.65 30.4 87.05 32.0 L88.1 32.75 89.05 33.55 89.8 34.25 90.0 35.05 90.15 35.75 90.15 36.5 90.15 37.25 89.7 37.95 88.75 38.75 86.95 39.5 85.65 40.0 84.95 40.25 83.15 40.4 52.95 41.25 51.55 41.75 49.8 41.9 49.8 42.0 Q36.25 42.95 22.9 42.1 L-7.15 40.25 Q-12.7 39.95 -18.35 40.0 L-20.75 39.5 M59.7 38.45 L59.85 38.35 60.0 38.3 60.05 38.2 60.25 38.1 60.4 38.0 60.6 37.95 60.75 37.85 60.8 37.8 60.9 37.7 60.95 37.6 61.0 37.5 61.0 37.4 61.1 37.3 61.1 37.2 61.1 37.1 61.1 37.05 61.1 36.95 61.1 36.85 61.0 36.75 60.95 36.65 60.95 36.55 60.95 36.35 60.95 36.3 60.95 36.2 60.95 36.1 60.95 36.0 60.95 35.9 60.8 35.7 60.75 35.65 60.65 35.55 60.55 35.45 60.4 35.35 60.0 35.3 58.75 35.25 58.5 35.3 57.9 35.45 57.55 35.65 57.35 35.7 57.25 35.8 57.05 36.0 57.0 36.1 57.0 36.2 56.85 36.3 56.85 36.35 56.8 36.45 56.8 36.55 56.7 36.65 56.7 36.85 56.7 37.05 56.7 37.2 56.7 37.3 56.8 37.4 56.8 37.5 56.9 37.7 57.0 37.8 57.05 37.85 57.2 37.95 57.25 38.05 57.4 38.15 57.7 38.2 57.7 38.25 57.75 38.3 57.9 38.4 59.5 38.45 59.7 38.45 M31.3 37.8 L31.4 37.7 31.4 37.6 31.55 37.5 31.55 37.4 31.6 37.3 31.6 37.2 31.6 37.1 31.6 37.05 31.6 36.95 31.6 36.85 31.55 36.75 31.45 36.65 31.4 36.55 31.4 36.45 31.25 36.35 31.2 36.3 31.05 36.2 30.85 36.1 30.7 35.9 30.65 35.7 30.5 35.65 30.4 35.55 30.3 35.45 30.0 35.4 29.8 35.35 29.6 35.35 29.45 35.35 28.55 35.5 Q28.0 35.55 27.55 36.05 L27.15 36.55 27.15 36.6 27.15 36.7 27.1 36.8 27.1 37.0 27.1 37.3 27.15 37.45 27.15 37.55 27.15 37.65 27.15 37.75 27.3 37.95 27.35 38.05 27.45 38.1 27.5 38.2 27.65 38.3 29.3 38.55 Q29.95 38.55 30.35 38.1 L30.55 38.1 30.75 38.05 30.9 38.05 31.05 37.95 31.25 37.85 31.3 37.8 M-2.7 38.0 L-2.6 38.1 -2.55 38.2 -2.55 38.3 -2.5 38.35 -2.4 38.45 -2.35 38.55 -2.2 38.65 -2.05 38.75 0.45 38.95 0.65 38.9 0.85 38.7 1.05 38.55 1.15 38.45 1.15 38.35 1.3 38.25 1.75 37.95 1.9 37.75 2.05 37.6 2.05 37.5 2.05 37.4 2.05 37.3 2.05 37.2 2.05 37.1 2.05 37.05 2.05 36.95 2.05 36.85 1.9 36.75 1.9 36.65 1.85 36.55 1.7 36.45 1.55 36.35 1.5 36.25 1.4 36.2 1.4 36.1 1.4 36.0 1.35 35.9 1.35 35.8 1.2 35.7 1.15 35.6 1.05 35.55 0.95 35.45 0.8 35.35 0.3 35.3 -0.8 35.25 -0.95 35.3 -1.15 35.3 -1.25 35.35 -1.3 35.35 -1.5 35.4 -2.0 35.65 -2.2 35.85 -2.4 36.05 -2.4 36.1 -2.5 36.2 -2.5 36.3 -2.55 36.4 -2.55 36.5 -2.55 36.6 -2.6 36.7 -2.7 37.05 -2.6 37.45 -2.7 37.7 -2.7 37.9 -2.7 38.0" fill="#ffffff" fill-opacity="0.101960786" fill-rule="evenodd" stroke="none"/>
    <path d="M-68.4 44.0 L-75.35 44.0 -78.15 43.5 -81.3 42.75 -84.4 41.95 -86.5 41.2 -87.9 40.5 -88.6 39.75 -89.2 39.0 -89.65 38.25 -89.85 37.5 -89.65 36.75 -89.3 36.0 -88.6 35.25 -87.9 34.55 -86.85 33.75 -85.8 33.05 -84.75 32.5 -84.05 32.3 -82.3 32.0 -79.2 31.5 -76.75 31.0 -51.35 30.5 -48.95 30.0 Q-9.9 29.7 28.95 31.25 L31.3 31.85 33.4 32.55 34.8 33.3 35.9 34.0 36.1 34.8 36.25 35.5 36.25 36.25 36.25 37.0 36.25 37.75 Q33.6 41.75 26.45 42.0 5.45 42.65 -15.55 42.4 L-20.75 42.0 -46.85 42.25 -47.6 42.45 -54.5 43.2 -68.4 43.9 -68.4 44.0 M31.3 37.8 L31.4 37.7 31.4 37.6 31.55 37.5 31.55 37.4 31.6 37.3 31.6 37.2 31.6 37.1 31.6 37.05 31.6 36.95 31.6 36.85 31.55 36.75 31.45 36.65 31.4 36.55 31.4 36.45 31.25 36.35 31.2 36.3 31.05 36.2 30.85 36.1 30.7 35.9 30.65 35.7 30.5 35.65 30.4 35.55 30.3 35.45 30.0 35.4 29.8 35.35 29.6 35.35 29.45 35.35 28.55 35.5 Q28.0 35.55 27.55 36.05 L27.15 36.55 27.15 36.6 27.15 36.7 27.1 36.8 27.1 37.0 27.1 37.3 27.15 37.45 27.15 37.55 27.15 37.65 27.15 37.75 27.3 37.95 27.35 38.05 27.45 38.1 27.5 38.2 27.65 38.3 29.3 38.55 Q29.95 38.55 30.35 38.1 L30.55 38.1 30.75 38.05 30.9 38.05 31.05 37.95 31.25 37.85 31.3 37.8 M-2.7 38.0 L-2.6 38.1 -2.55 38.2 -2.55 38.3 -2.5 38.35 -2.4 38.45 -2.35 38.55 -2.2 38.65 -2.05 38.75 0.45 38.95 0.65 38.9 0.85 38.7 1.05 38.55 1.15 38.45 1.15 38.35 1.3 38.25 1.75 37.95 1.9 37.75 2.05 37.6 2.05 37.5 2.05 37.4 2.05 37.3 2.05 37.2 2.05 37.1 2.05 37.05 2.05 36.95 2.05 36.85 1.9 36.75 1.9 36.65 1.85 36.55 1.7 36.45 1.55 36.35 1.5 36.25 1.4 36.2 1.4 36.1 1.4 36.0 1.35 35.9 1.35 35.8 1.2 35.7 1.15 35.6 1.05 35.55 0.95 35.45 0.8 35.35 0.3 35.3 -0.8 35.25 -0.95 35.3 -1.15 35.3 -1.25 35.35 -1.3 35.35 -1.5 35.4 -2.0 35.65 -2.2 35.85 -2.4 36.05 -2.4 36.1 -2.5 36.2 -2.5 36.3 -2.55 36.4 -2.55 36.5 -2.55 36.6 -2.6 36.7 -2.7 37.05 -2.6 37.45 -2.7 37.7 -2.7 37.9 -2.7 38.0 M-32.25 39.2 L-32.1 39.35 -31.95 39.45 -31.55 39.6 -30.1 39.7 -29.9 39.65 -29.75 39.55 -29.6 39.45 -29.55 39.35 -29.45 39.25 -29.25 39.2 -28.9 38.8 -28.7 38.55 -28.5 38.25 -28.35 37.95 -28.3 37.85 -28.2 37.75 -28.2 37.7 -28.2 37.6 -28.15 37.5 -28.15 37.3 -28.15 36.75 -28.15 36.45 -28.15 36.2 -28.2 35.9 -28.2 35.8 -28.3 35.6 -28.35 35.55 -28.4 35.45 -28.55 35.35 -28.7 35.25 -29.05 35.1 -29.2 35.0 -29.35 34.95 -29.45 34.85 -29.9 34.75 -30.8 34.75 -31.0 34.8 -31.15 34.8 -32.05 35.3 -32.5 35.85 -32.8 36.3 -32.95 36.35 -32.95 36.45 -33.0 36.55 -33.0 36.65 -33.0 36.75 -33.0 36.95 -33.0 37.3 -33.0 37.6 -33.0 37.85 -33.0 38.05 -33.0 38.15 -33.0 38.25 -33.0 38.35 -32.95 38.45 -32.8 38.6 -32.5 38.9 -32.25 39.2 M-60.2 38.65 L-60.05 38.55 -60.0 38.5 -59.95 38.45 -59.8 38.35 -59.65 38.25 -59.5 38.2 -59.45 38.1 -59.3 38.0 -59.3 37.9 -59.25 37.8 -59.15 37.7 -59.15 37.6 -59.15 37.5 -59.15 37.15 -59.15 36.85 -59.15 36.7 -59.15 36.5 -59.15 36.4 -59.45 36.05 -59.6 35.9 -59.6 35.8 -59.65 35.6 -59.8 35.55 -59.85 35.45 -60.0 35.35 -60.15 35.25 -60.55 35.2 -61.4 35.15 -61.6 35.2 -61.75 35.2 -62.15 35.45 -62.45 35.75 -62.5 35.95 -62.55 36.0 -62.7 36.1 -62.7 36.2 -62.8 36.3 -62.85 36.4 -62.85 36.5 -62.85 36.6 -62.85 36.75 -62.85 36.95 -62.85 37.05 -62.85 37.15 -62.85 37.25 -62.85 37.35 -62.85 37.45 -62.85 37.5 -62.8 37.6 -62.65 37.8 -62.5 37.9 -62.45 38.0 -62.35 38.1 -62.3 38.2 -62.1 38.3 -62.0 38.35 -61.9 38.45 -61.25 38.7 -60.75 38.7 -60.3 38.7 -60.3 38.65 -60.2 38.65" fill="#ffffff" fill-opacity="0.101960786" fill-rule="evenodd" stroke="none"/>
    <path d="M18.85 33.25 L19.55 34.0 19.8 34.8 19.9 35.5 19.9 36.25 19.8 37.0 19.55 37.75 19.1 38.45 18.2 39.25 16.8 39.75 15.05 39.9 15.05 40.0 -3.05 39.8 -6.15 39.5 Q-17.65 39.2 -29.1 39.05 L-28.9 38.8 -28.7 38.55 -28.5 38.25 -28.35 37.95 -28.3 37.85 -28.2 37.75 -28.2 37.7 -28.2 37.6 -28.15 37.5 -28.15 37.3 -28.15 36.75 -28.15 36.45 -28.15 36.2 -28.2 35.9 -28.2 35.8 -28.3 35.6 -28.35 35.55 -28.4 35.45 -28.55 35.35 -28.7 35.25 -29.05 35.1 -29.2 35.0 -29.35 34.95 -29.45 34.85 -29.9 34.75 -30.8 34.75 -31.0 34.8 -31.15 34.8 -32.05 35.3 -32.5 35.85 -32.8 36.3 -32.95 36.35 -32.95 36.45 -33.0 36.55 -33.0 36.65 -33.0 36.75 -33.0 36.95 -33.0 37.3 -33.0 37.6 -33.0 37.85 -33.0 38.05 -33.0 38.15 -33.0 38.25 -33.0 38.35 -32.95 38.45 -32.8 38.6 -32.5 38.9 -32.45 39.0 Q-46.55 38.8 -60.7 38.75 L-60.5 38.7 -60.3 38.7 -60.3 38.65 -60.2 38.65 -60.05 38.55 -59.95 38.45 -59.8 38.35 -59.65 38.25 -59.5 38.2 -59.45 38.1 -59.3 38.0 -59.3 37.9 -59.25 37.8 -59.15 37.7 -59.15 37.6 -59.15 37.5 -59.15 37.15 -59.15 36.85 -59.15 36.7 -59.15 36.5 -59.15 36.4 -59.45 36.05 -59.6 35.9 -59.6 35.8 -59.65 35.6 -59.8 35.55 -59.85 35.45 -60.0 35.35 -60.15 35.25 -60.55 35.2 -61.4 35.15 -61.6 35.2 -61.75 35.2 -62.15 35.45 -62.45 35.75 -62.5 35.95 -62.55 36.0 -62.7 36.1 -62.7 36.2 -62.8 36.3 -62.85 36.4 -62.85 36.5 -62.85 36.6 -62.85 36.75 -62.85 36.95 -62.85 37.05 -62.85 37.15 -62.85 37.25 -62.85 37.35 -62.85 37.45 -62.85 37.5 -62.8 37.6 -62.65 37.8 -62.5 37.9 -62.45 38.0 -62.35 38.1 -62.3 38.2 -62.1 38.3 -62.0 38.35 -61.9 38.45 -61.25 38.7 -60.95 38.75 -80.95 38.75 -83.0 38.25 -84.4 37.5 -85.05 36.75 -85.45 36.0 -85.4 35.3 -85.1 34.5 -84.75 33.75 -83.7 33.05 Q-83.25 32.75 -82.65 32.55 L-79.9 31.5 Q-41.5 31.0 -3.05 31.7 L5.3 31.75 6.7 31.5 8.1 31.25 10.9 31.55 15.0 32.1 17.5 32.5 18.85 33.25 M1.9 36.75 L1.9 36.65 1.85 36.55 1.7 36.45 1.55 36.35 1.5 36.25 1.4 36.2 1.4 36.1 1.4 36.0 1.35 35.9 1.35 35.8 1.2 35.7 1.15 35.6 1.05 35.55 0.95 35.45 0.8 35.35 0.3 35.3 -0.8 35.25 -0.95 35.3 -1.15 35.3 -1.25 35.35 -1.3 35.35 -1.5 35.4 -2.0 35.65 -2.2 35.85 -2.4 36.05 -2.4 36.1 -2.5 36.2 -2.5 36.3 -2.55 36.4 -2.55 36.5 -2.55 36.6 -2.6 36.7 -2.7 37.05 -2.6 37.45 -2.7 37.7 -2.7 37.9 -2.7 38.0 -2.6 38.1 -2.55 38.2 -2.55 38.3 -2.5 38.35 -2.4 38.45 -2.35 38.55 -2.2 38.65 -2.05 38.75 0.45 38.95 0.65 38.9 0.85 38.7 1.05 38.55 1.15 38.45 1.15 38.35 1.3 38.25 1.75 37.95 1.9 37.75 2.05 37.6 2.05 37.5 2.05 37.4 2.05 37.3 2.05 37.2 2.05 37.1 2.05 37.05 2.05 36.95 2.05 36.85 1.9 36.75" fill="#ffffff" fill-opacity="0.101960786" fill-rule="evenodd" stroke="none"/>
    <path d="M-78.6 33.35 L-78.3 33.75 -78.1 34.1 -78.05 34.5 -78.1 34.85 -78.25 35.25 -78.6 35.6 -79.35 35.85 -87.35 35.7 -89.1 35.5 -89.45 35.1 -89.6 34.75 -89.6 34.35 -89.55 34.05 -89.2 33.65 -88.85 33.35 -88.35 33.25 -87.35 33.2 -87.35 33.1 -79.35 33.1 -78.6 33.35" fill="#663333" fill-opacity="0.2" fill-rule="evenodd" stroke="none"/>
    <path d="M72.9 33.6 L72.95 34.0 72.9 34.35 72.75 34.75 72.4 35.1 71.75 35.35 71.15 35.45 Q1.15 36.5 -68.85 34.85 L-72.25 34.5 -72.45 34.1 -72.5 33.75 -72.2 33.55 -71.85 33.4 -53.35 32.35 14.65 32.4 Q42.9 32.45 71.15 32.65 L72.4 32.85 72.7 33.25 72.9 33.6" fill="#663333" fill-opacity="0.2" fill-rule="evenodd" stroke="none"/>
    <path d="M87.9 34.1 L87.75 34.5 87.6 34.85 87.4 35.25 87.1 35.45 86.65 35.6 86.15 35.45 85.9 35.35 85.15 35.35 80.15 35.35 79.25 35.1 79.0 34.75 78.8 34.35 78.75 34.0 78.8 33.65 79.0 33.25 79.25 32.85 80.1 32.7 80.15 32.6 85.15 32.65 86.65 32.75 87.25 33.0 87.6 33.4 87.8 33.75 87.9 34.1" fill="#663333" fill-opacity="0.2" fill-rule="evenodd" stroke="none"/>
    <path d="M79.65 32.75 L80.25 33.0 80.6 33.4 80.9 33.75 81.0 35.6 81.15 37.85 81.0 39.75 80.75 40.1 80.5 40.5 80.25 40.7 79.65 40.85 78.75 40.6 78.5 40.25 78.25 39.85 78.05 38.0 Q78.1 36.85 78.3 35.75 L78.4 33.85 78.45 33.55 78.75 33.15 79.15 32.85 79.6 32.8 79.65 32.75" fill="#663333" fill-opacity="0.2" fill-rule="evenodd" stroke="none"/>
    <path d="M-71.85 33.0 L-71.6 32.6 -70.9 32.45 -70.85 32.35 -70.25 32.6 -70.0 33.0 -69.75 33.35 -69.7 33.75 -69.6 34.1 -69.5 34.5 -69.35 34.85 -69.35 36.35 -69.35 38.25 -69.35 40.1 -69.5 40.5 -69.75 40.85 -70.1 41.25 -70.85 41.5 -71.75 41.25 -72.1 40.85 -72.35 40.5 -72.35 38.6 -72.35 36.35 -72.35 34.5 -72.25 34.1 -72.1 33.75 -72.0 33.35 -71.85 33.0" fill="#663333" fill-opacity="0.2" fill-rule="evenodd" stroke="none"/>
    <path d="M90.45 43.55 L90.6 43.75 90.65 43.95 90.6 44.1 90.55 44.3 90.45 44.5 90.35 44.65 90.2 44.7 89.9 44.7 67.65 44.8 Q-10.85 45.15 -89.35 44.5 L-90.85 44.45 -91.15 44.3 -91.25 44.1 -91.3 43.95 -91.2 43.75 -91.1 43.65 -90.85 43.6 -80.6 43.25 -47.85 43.25 67.65 43.25 89.9 43.25 90.3 43.4 90.45 43.55" fill="#663333" fill-opacity="0.2" fill-rule="evenodd" stroke="none"/>
    <path d="M-78.6 30.15 L-78.35 30.2 -77.6 30.25 -77.2 30.4 -77.05 30.6 -76.95 30.75 -76.95 30.95 -76.95 31.15 -77.05 31.35 -77.2 31.5 -77.6 31.65 -89.35 31.6 -89.7 31.45 -89.9 31.25 -89.95 31.1 -89.95 30.9 -89.95 30.7 -89.8 30.5 -89.6 30.4 -89.35 30.35 -78.85 30.15 -78.6 30.15" fill="#663333" fill-opacity="0.2" fill-rule="evenodd" stroke="none"/>
    <path d="M72.1 30.2 L72.35 30.4 72.45 30.55 72.5 30.75 72.45 30.95 72.4 31.15 72.1 31.3 71.65 31.45 -65.1 31.55 -73.8 31.05 -73.95 30.9 -73.95 30.7 -73.85 30.5 -73.6 30.4 -73.35 30.35 -65.1 30.05 71.65 30.05 72.1 30.2" fill="#663333" fill-opacity="0.2" fill-rule="evenodd" stroke="none"/>
    <path d="M91.3 30.2 L91.45 30.4 91.55 30.55 91.55 30.75 91.55 30.95 91.45 31.15 91.3 31.3 90.9 31.45 81.65 31.45 76.4 31.2 76.1 31.05 76.0 30.85 75.95 30.7 76.05 30.6 81.65 30.05 90.9 30.05 91.3 30.2" fill="#663333" fill-opacity="0.2" fill-rule="evenodd" stroke="none"/>
    <path d="M-74.95 30.55 L-74.7 30.75 -74.6 30.95 -74.5 34.3 -74.55 38.05 -74.55 40.7 -74.5 40.85 -74.25 41.05 -73.95 41.25 -73.85 41.45 -73.8 41.65 -73.8 41.8 -73.8 42.2 -73.8 42.55 -73.85 42.75 -73.9 42.95 -74.05 43.15 -74.05 43.3 -74.05 43.5 -74.05 43.7 -74.05 43.9 -74.1 44.05 -74.2 44.25 -74.45 44.45 -74.85 44.55 -75.25 44.4 -75.4 44.3 -75.6 44.3 -77.1 44.3 -77.55 44.2 -77.7 44.0 -77.85 43.8 -77.9 43.6 -77.9 43.25 -77.9 42.7 -77.9 42.3 -77.85 42.15 -77.65 41.95 -77.55 41.8 -77.4 41.75 -77.35 41.65 -77.45 41.45 -77.6 41.25 -77.6 40.15 -77.6 38.65 -77.6 37.15 -77.4 36.4 -77.25 35.25 -77.15 34.15 -77.1 33.95 -76.95 33.75 -76.95 33.55 -76.9 33.4 -76.9 33.0 -76.9 32.65 -76.9 32.45 -76.8 32.05 -76.35 31.25 -75.8 30.55 -75.35 30.45 -74.95 30.55" fill="#663333" fill-opacity="0.2" fill-rule="evenodd" stroke="none"/>
    <path d="M-77.15 27.45 L-76.95 26.9 -76.85 26.5 -76.85 26.3 -76.85 26.15 -76.75 25.95 -76.65 25.75 -76.55 25.65 -76.4 25.6 -76.1 25.55 -76.1 25.5 -75.85 25.5 -75.45 25.65 -75.2 25.8 -74.9 26.0 -74.7 26.2 -74.65 26.35 -74.55 26.55 -74.45 26.75 -74.35 26.95 -74.3 27.15 -74.2 27.3 -74.15 27.5 -74.15 28.8 -74.15 30.7 Q-74.1 31.75 -74.4 32.75 L-74.4 32.95 -74.4 33.15 -74.4 33.3 -74.4 33.5 -74.4 33.7 -74.4 33.9 -74.45 34.05 -74.55 34.25 -74.6 34.45 -74.6 35.0 -74.6 35.75 -74.6 36.7 -74.6 37.25 -74.55 37.4 -74.35 37.65 -74.2 37.85 -74.1 38.0 -74.05 38.4 -74.05 38.75 -74.0 39.1 -74.1 39.7 -74.15 39.85 -74.3 40.05 -74.4 40.2 -74.85 40.25 -76.35 40.3 -76.8 40.2 -76.95 40.0 -77.1 39.8 -77.15 39.65 -77.3 39.45 -77.4 39.25 -77.4 39.05 -77.4 38.9 -77.4 38.7 -77.4 38.5 -77.4 38.3 -77.5 38.15 -77.6 37.95 -77.7 37.2 -77.65 36.05 -77.65 34.75 -77.65 34.4 -77.6 34.2 -77.45 34.0 -77.35 33.8 -77.35 32.3 -77.35 30.25 -77.35 28.2 -77.25 27.8 -77.15 27.45" fill="#663333" fill-opacity="0.2" fill-rule="evenodd" stroke="none"/>
    <path d="M73.65 26.95 L74.05 27.05 74.3 27.25 74.4 27.45 74.45 27.65 74.5 27.7 74.6 27.75 74.9 27.7 75.3 27.8 75.55 28.0 75.65 28.2 75.75 29.3 75.7 30.45 75.7 31.95 75.7 32.3 75.75 32.45 75.95 32.7 76.1 32.9 76.15 33.05 76.25 34.75 76.2 37.0 76.2 39.25 75.95 40.55 76.05 42.05 75.95 43.95 75.9 44.1 75.75 44.3 75.6 44.5 75.15 44.65 74.7 44.5 74.4 44.35 74.1 44.2 73.9 44.35 73.7 44.5 73.4 44.55 72.95 44.45 72.8 44.25 72.65 44.05 72.6 43.85 72.6 43.7 72.6 43.5 72.6 43.3 72.55 43.15 72.2 42.95 72.05 42.75 71.9 42.55 71.85 42.4 71.9 38.8 71.9 34.7 71.9 31.15 72.0 30.95 72.1 30.75 72.2 30.65 72.35 30.55 72.8 30.45 72.85 29.95 72.85 29.2 72.85 28.65 72.85 27.7 72.85 27.5 72.95 27.3 73.15 27.15 73.35 27.0 73.65 26.95" fill="#663333" fill-opacity="0.2" fill-rule="evenodd" stroke="none"/>
    <path d="M73.55 30.8 L73.8 31.0 73.9 31.2 73.95 31.4 73.95 31.55 73.95 31.95 73.95 32.3 74.1 32.4 74.4 32.45 74.8 32.55 75.05 32.75 75.15 32.95 75.2 33.15 75.2 33.3 75.2 33.5 75.2 33.7 75.2 33.9 75.25 34.05 75.35 34.25 75.65 34.65 75.7 34.8 75.8 35.75 75.8 36.9 75.75 37.8 75.7 38.2 75.75 38.35 75.85 38.55 76.15 38.95 76.2 39.15 76.2 39.3 76.2 39.5 76.15 39.7 76.1 39.85 75.95 40.05 75.9 40.25 75.85 40.45 75.65 40.6 75.45 40.75 75.15 40.8 74.15 40.8 73.7 40.7 73.55 40.5 73.4 40.3 73.35 40.15 73.3 39.95 73.15 39.75 73.1 39.55 73.05 39.35 72.95 39.0 72.85 38.65 72.85 38.45 72.85 38.25 72.85 38.05 72.75 37.9 72.65 37.7 72.6 37.5 72.45 37.3 72.35 35.45 72.35 33.55 72.35 31.5 72.35 31.3 72.4 31.15 72.6 30.95 72.7 30.8 72.85 30.75 73.15 30.7 73.55 30.8" fill="#663333" fill-opacity="0.2" fill-rule="evenodd" stroke="none"/>
    <path d="M-58.85 35.15 L-58.75 35.3 -58.65 35.5 -58.55 35.7 -58.4 35.9 -58.35 36.05 -58.3 36.25 -58.3 36.45 -58.3 36.65 -58.3 36.8 -58.3 37.2 -58.3 37.4 -58.35 37.55 -58.45 37.75 -58.6 37.95 -58.65 38.1 -58.8 38.3 -58.85 38.5 -58.9 38.7 -59.1 38.9 -59.3 39.05 -59.55 39.25 -59.65 39.4 -59.8 39.4 Q-60.7 39.6 -61.6 39.4 L-62.8 39.05 -62.95 38.9 -63.15 38.7 -63.3 38.5 -63.4 38.3 -63.45 38.1 -63.45 37.95 -63.45 37.75 -63.45 37.4 -63.45 36.8 -63.4 36.65 -63.35 36.45 -63.25 36.25 -63.15 36.05 -63.05 35.9 -62.85 35.7 -62.85 35.5 -62.85 35.3 -62.85 35.15 -62.75 34.95 -62.65 34.75 -62.55 34.65 -62.4 34.55 -62.15 34.5 -61.85 34.45 -60.1 34.45 -59.65 34.6 -59.3 34.75 -59.05 34.95 -58.85 35.15 M-60.2 36.2 L-61.7 36.2 -61.9 36.4 -62.1 36.55 -62.2 36.75 -62.2 36.95 -62.2 37.15 -62.2 37.3 -62.2 37.5 -62.2 37.65 -61.85 37.8 -61.45 37.95 -60.85 38.0 -60.4 37.9 -60.35 37.7 -60.2 37.5 -60.15 37.3 -60.1 37.15 -60.0 36.95 -59.9 36.75 -60.0 36.55 -60.1 36.4 -60.2 36.2" fill="#663333" fill-opacity="0.2" fill-rule="evenodd" stroke="none"/>
    <path d="M-28.05 35.7 L-27.5 36.25 -27.35 36.45 -27.3 36.65 -27.3 36.8 -27.3 37.2 -27.3 37.55 -27.35 37.95 -27.4 38.1 -27.55 38.3 -27.75 38.5 -27.95 38.7 -28.35 38.8 -32.05 38.55 -32.25 38.4 -32.4 38.25 -32.6 38.2 -33.05 38.05 -33.15 37.9 -33.3 37.7 -33.3 37.5 -33.3 37.3 -33.25 36.95 -33.2 36.55 -33.15 36.2 -33.1 36.0 -32.95 35.8 -32.9 35.65 -32.85 35.45 -32.65 35.25 -32.45 35.05 -32.05 34.85 -31.85 34.75 -31.6 34.7 -31.35 34.7 -30.55 34.7 -30.3 34.55 -29.85 34.45 -29.6 34.45 -29.2 34.55 -28.6 35.1 -28.05 35.7 M-30.65 35.8 L-31.35 35.85 -31.4 35.9 -31.7 36.1 -31.8 36.25 -31.85 36.45 -31.95 36.65 -31.95 36.8 -31.8 37.0 -31.45 37.2 -31.1 37.25 -28.9 37.15 -29.05 36.95 -29.4 36.55 -29.8 36.2 -29.9 36.1 -30.3 35.95 -30.35 35.95 -30.6 35.85 -30.65 35.8" fill="#663333" fill-opacity="0.2" fill-rule="evenodd" stroke="none"/>
    <path d="M2.1 34.5 L2.25 34.7 2.4 34.9 2.5 35.05 2.7 35.45 2.75 35.65 2.8 35.8 2.8 36.2 2.8 36.75 2.8 37.15 2.7 37.3 2.65 37.5 2.6 37.7 2.45 38.05 2.4 38.25 2.3 38.4 2.15 38.65 1.95 38.8 1.85 38.95 1.7 39.0 1.4 39.15 1.2 39.25 0.9 39.3 -1.85 39.25 -2.3 39.15 -2.55 38.95 -2.9 38.75 -3.3 38.55 -3.4 38.4 -3.55 38.2 -3.55 38.0 -3.55 37.65 -3.5 36.9 -3.45 36.15 -3.4 35.95 -3.35 35.75 -3.2 35.55 -3.15 35.4 -3.1 35.2 -2.9 35.0 -2.7 34.8 -2.55 34.65 -2.35 34.5 -2.1 34.45 -1.8 34.55 -1.65 34.75 -1.6 34.95 -1.6 35.15 -1.65 35.3 -1.8 35.5 -1.95 35.7 -2.0 35.85 -2.05 36.05 -2.15 36.25 -2.2 36.45 -2.2 36.65 -2.2 36.8 -2.2 37.0 -2.15 37.2 -2.15 37.4 -2.1 37.55 -1.9 37.7 -0.6 37.65 0.7 37.55 0.9 37.35 0.95 37.2 1.0 37.0 1.05 36.8 1.05 36.65 1.05 36.45 1.0 36.35 -0.35 36.05 -0.8 35.95 -1.1 35.75 -1.2 35.55 -1.3 35.4 -1.3 35.2 -1.25 35.0 -1.15 34.8 -0.9 34.65 -0.65 34.5 -0.35 34.45 0.15 34.4 1.65 34.4 2.1 34.5" fill="#663333" fill-opacity="0.2" fill-rule="evenodd" stroke="none"/>
    <path d="M26.7 36.05 L26.85 35.85 26.9 35.7 27.1 35.5 27.3 35.3 27.45 35.15 27.65 34.95 27.8 34.8 27.9 34.75 28.15 34.7 28.65 34.7 29.15 34.65 29.65 34.65 29.9 34.65 30.35 34.75 30.75 35.15 31.1 35.55 31.55 36.1 31.65 36.25 31.7 36.45 31.7 36.65 31.7 37.0 31.7 37.4 31.7 37.75 31.65 37.95 31.6 38.1 31.45 38.3 31.4 38.5 31.35 38.7 31.15 38.9 30.95 39.05 30.85 39.2 29.4 39.35 27.9 39.25 27.45 39.1 27.15 39.0 26.7 38.9 26.55 38.7 26.4 38.5 26.4 38.15 26.45 37.75 Q26.4 37.45 26.5 37.2 L26.55 36.65 26.55 36.45 26.55 36.25 26.7 36.05 M30.05 37.0 L29.95 36.8 29.8 36.65 29.6 36.45 29.15 36.3 28.7 36.2 28.55 36.0 28.4 35.9 28.35 35.9 28.3 35.95 28.1 36.15 28.05 36.3 27.95 36.5 27.85 36.7 27.8 36.9 27.8 37.05 27.8 37.25 27.85 37.45 29.4 37.7 29.95 37.55 30.05 37.35 30.1 37.2 30.05 37.0" fill="#663333" fill-opacity="0.2" fill-rule="evenodd" stroke="none"/>
    <path d="M57.2 35.3 L57.45 35.15 57.65 35.0 57.9 34.95 58.2 34.85 58.35 34.85 58.65 34.75 59.15 34.7 60.35 35.1 Q60.8 35.25 61.15 35.6 L61.65 36.4 61.65 36.55 61.7 36.75 61.7 36.95 61.7 37.15 61.7 37.5 61.7 37.9 61.65 38.05 61.5 38.25 61.35 38.45 61.15 38.6 60.7 38.95 57.4 39.0 57.0 38.85 56.85 38.75 56.4 38.65 55.95 38.55 55.85 38.4 55.7 38.2 55.7 38.0 55.7 37.8 55.7 37.65 55.7 37.45 55.75 37.25 55.85 37.05 56.05 36.9 56.05 36.7 56.05 36.5 56.2 36.3 56.35 36.15 56.45 35.95 56.55 35.75 56.7 35.55 56.9 35.45 57.2 35.3 M59.95 36.8 L59.8 36.65 59.2 36.45 58.95 36.3 58.65 36.25 58.35 36.2 58.2 36.15 58.1 36.15 57.95 36.2 57.7 36.4 57.6 36.55 57.45 36.75 57.35 36.95 57.3 37.15 57.35 37.3 60.1 37.2 60.05 37.0 59.95 36.8" fill="#663333" fill-opacity="0.2" fill-rule="evenodd" stroke="none"/>
    <path d="M73.1 34.65 L73.25 35.0 73.35 35.35 73.4 35.75 73.4 36.1 73.35 36.5 73.25 36.85 73.1 37.25 72.85 37.6 72.5 38.0 71.65 38.25 70.75 38.0 69.65 37.75 69.15 37.75 62.65 37.75 61.75 37.45 61.1 37.25 60.25 37.0 59.9 36.75 59.15 36.75 57.15 37.05 56.1 37.2 54.0 37.5 53.15 37.9 52.75 38.1 52.15 38.2 40.65 38.25 39.65 38.05 35.15 37.75 34.25 37.45 33.5 37.1 32.9 36.75 32.65 36.35 32.45 35.95 32.4 35.6 32.4 35.5 26.75 35.5 26.35 35.85 25.85 36.2 25.15 36.65 24.5 37.0 23.65 37.25 3.65 37.25 2.75 37.0 2.25 36.6 2.15 36.5 -0.1 36.5 -0.25 36.85 -0.5 37.25 -1.0 37.6 -1.85 37.85 -2.35 37.9 -4.0 38.05 -4.85 38.25 -25.85 38.25 -26.75 38.0 -27.25 37.6 -27.35 37.5 -34.35 37.2 -35.0 37.1 -35.75 37.0 -36.1 37.35 -36.75 37.75 -37.5 38.1 -38.35 38.5 -38.75 38.75 -39.35 38.8 -57.85 38.75 -58.75 38.5 -59.25 38.1 -59.45 37.75 -59.6 37.35 -59.6 37.0 -59.6 36.75 -59.6 36.7 -63.5 36.75 -64.35 36.95 -66.5 37.25 -67.35 37.65 -67.75 37.85 -68.35 38.0 -69.0 37.85 -69.7 37.55 -70.0 37.4 -70.75 37.1 -71.0 36.75 -71.25 36.35 -71.25 36.0 -71.25 35.6 -71.25 35.25 -71.25 34.85 -71.2 34.5 -71.0 34.1 -70.85 33.75 -70.5 33.35 -70.25 33.1 -70.0 33.05 Q-56.1 33.0 -42.25 32.5 L-41.35 32.25 -35.0 32.0 -34.5 31.75 -33.85 31.6 -29.85 31.8 -29.25 31.9 -29.0 32.0 -26.25 32.0 -26.0 31.95 -10.85 31.75 -10.0 32.0 -6.25 32.1 -5.6 32.0 -4.35 31.85 Q0.9 31.55 6.15 31.6 L7.0 31.85 7.5 32.25 7.8 32.4 8.4 32.45 9.0 32.4 12.65 32.0 13.0 31.6 13.5 31.35 14.1 31.3 14.15 31.25 33.65 31.25 34.5 31.5 38.15 31.75 39.0 32.0 39.75 32.0 40.65 31.75 42.65 31.75 43.65 32.0 51.65 32.3 52.5 32.35 52.85 32.2 53.25 32.0 53.5 31.9 54.15 31.75 56.75 31.45 57.65 31.25 64.15 31.25 65.0 31.45 67.1 31.8 68.0 32.0 68.65 32.35 69.4 32.75 70.15 33.1 70.65 33.25 71.15 33.25 72.0 33.5 72.4 33.85 72.9 34.25 73.1 34.65" fill="#663333" fill-opacity="0.2" fill-rule="evenodd" stroke="none"/>
    <path d="M-78.75 32.65 L-78.5 33.0 -78.4 33.35 -78.35 33.75 -78.35 34.1 -78.2 34.45 -77.9 34.9 -77.6 35.25 -77.5 35.6 -77.35 36.0 -77.25 36.35 -77.25 36.75 -77.25 37.1 -77.35 37.5 -77.5 37.85 -77.9 38.2 -78.25 38.5 -78.85 38.6 -80.6 38.9 -81.35 39.1 -85.85 39.1 -86.7 38.8 -87.0 38.65 -87.75 38.35 -88.1 38.0 -88.45 37.6 -89.3 36.45 -89.5 36.1 -89.85 35.75 -89.95 35.35 -90.0 35.0 -90.0 34.25 -90.0 33.85 -90.0 33.5 -90.0 33.1 -89.8 32.75 -89.5 32.35 -89.25 32.1 -89.0 32.05 -88.35 31.95 -88.35 31.85 -87.85 31.85 -87.1 32.1 -86.6 32.5 -86.35 32.75 -86.35 32.8 -85.35 32.95 -84.5 33.0 -84.1 32.85 -83.95 32.75 -83.1 32.5 -82.75 32.25 -82.5 32.15 -81.85 32.05 -79.85 32.0 -79.1 32.25 -78.75 32.65" fill="#663333" fill-opacity="0.2" fill-rule="evenodd" stroke="none"/>
    <path d="M89.25 34.0 L89.25 34.35 89.25 34.75 89.1 35.1 88.9 35.5 88.35 35.85 87.75 36.25 87.6 36.6 87.4 37.0 86.85 37.35 86.15 37.75 85.75 38.0 84.75 38.25 84.25 38.5 79.15 38.35 Q78.15 38.15 77.25 37.75 L76.9 37.35 76.65 37.0 76.65 36.6 76.65 36.25 76.65 35.85 76.65 35.5 76.65 35.1 76.65 34.75 76.8 34.4 77.0 34.0 77.6 33.2 77.8 32.9 78.0 32.5 78.25 32.25 78.5 32.15 79.15 32.0 79.65 31.85 80.1 31.8 80.15 31.75 80.75 31.95 82.15 32.25 82.65 32.35 83.15 32.35 83.75 32.15 84.65 31.85 87.65 31.85 88.4 32.1 88.9 32.5 89.15 32.85 89.2 33.25 89.25 33.6 89.25 34.0" fill="#663333" fill-opacity="0.2" fill-rule="evenodd" stroke="none"/>
    <path d="M-78.05 28.65 L-77.9 28.8 -77.85 29.0 -77.9 29.2 -78.05 29.4 -78.35 29.5 -83.85 29.45 -91.05 29.3 -91.2 29.15 -91.2 28.95 -91.1 28.75 -90.85 28.65 -88.1 28.55 -83.85 28.5 -78.35 28.5 -78.05 28.65" fill="#ffffff" fill-opacity="0.2" fill-rule="evenodd" stroke="none"/>
    <path d="M71.65 28.8 L71.95 29.0 72.05 29.15 72.05 29.3 71.95 29.5 71.9 29.55 64.65 30.0 -66.1 29.95 -73.8 29.5 -73.9 29.3 -73.9 29.15 -73.8 29.05 Q-62.95 28.3 -52.1 28.65 L64.65 28.55 71.65 28.8" fill="#ffffff" fill-opacity="0.2" fill-rule="evenodd" stroke="none"/>
    <path d="M90.7 28.75 L90.9 28.95 91.0 29.15 91.05 29.3 90.95 29.5 90.85 29.7 90.65 29.8 90.4 29.9 76.9 29.75 76.65 29.7 76.35 29.55 76.25 29.35 76.2 29.2 76.3 29.0 76.4 28.9 76.65 28.8 76.9 28.75 87.9 28.65 90.4 28.65 90.7 28.75" fill="#ffffff" fill-opacity="0.2" fill-rule="evenodd" stroke="none"/>
    <path d="M-77.55 42.05 L-77.4 42.25 -77.35 42.45 -77.35 42.65 -77.4 42.8 -77.5 42.9 -77.6 43.0 -77.85 43.05 -85.6 43.2 -89.45 42.7 -89.6 42.5 -89.45 42.3 -89.05 42.2 -85.6 41.95 -77.85 41.95 -77.55 42.05" fill="#ffffff" fill-opacity="0.2" fill-rule="evenodd" stroke="none"/>
    <path d="M74.2 41.95 L74.4 42.15 74.5 42.35 74.55 42.5 74.45 42.7 74.35 42.9 74.15 43.0 73.9 43.1 Q24.4 43.1 -25.1 43.25 L-65.85 43.0 -73.2 42.65 -73.35 42.45 -73.2 42.25 -72.1 42.2 Q-48.55 41.6 -25.1 41.85 L73.9 41.85 74.2 41.95" fill="#ffffff" fill-opacity="0.2" fill-rule="evenodd" stroke="none"/>
    <path d="M91.95 41.5 L92.15 41.7 92.25 41.9 92.3 42.05 92.2 42.25 92.1 42.45 91.9 42.55 91.65 42.65 77.3 42.05 76.45 41.8 76.55 41.7 76.85 41.65 77.2 41.75 89.4 41.4 91.65 41.4 91.95 41.5" fill="#ffffff" fill-opacity="0.2" fill-rule="evenodd" stroke="none"/>
    <path d="M-89.95 41.5 L-89.35 41.65 -89.05 41.75 -88.85 41.9 -88.6 41.95 -88.45 42.0 -87.6 42.05 -87.2 42.2 -87.05 42.4 -86.9 42.45 -86.55 42.45 -86.15 42.25 -85.8 42.1 -85.35 41.95 -85.05 42.05 -84.9 42.25 -84.8 42.45 -84.85 42.65 -84.9 42.8 -84.95 43.0 -85.1 43.2 -85.35 43.35 -85.65 43.55 -85.9 43.75 -86.15 43.95 -86.3 44.15 -86.4 44.3 -86.65 44.5 -86.8 44.65 -87.15 44.8 -87.3 44.9 -87.6 44.9 -88.85 44.95 -89.3 44.8 -89.6 44.7 -90.05 44.55 -90.15 44.4 -90.45 44.2 -90.6 44.0 -90.65 43.8 -90.8 43.65 -90.9 43.45 -90.9 43.25 -90.9 43.05 -91.0 42.9 -91.3 42.7 -91.45 42.5 -91.45 42.3 -91.45 42.15 -91.45 41.95 -91.45 41.75 -91.3 41.55 -91.1 41.45 -90.85 41.4 -90.35 41.4 -89.95 41.5" fill="#ffffff" fill-opacity="0.2" fill-rule="evenodd" stroke="none"/>
    <path d="M-87.8 28.7 L-87.6 28.9 -87.55 29.05 -87.5 29.25 -87.45 29.45 -87.5 29.6 -87.5 29.8 -87.55 30.0 -87.6 30.2 -87.7 30.4 -87.85 30.55 -87.95 30.7 -88.1 30.75 -88.35 30.8 -88.8 30.9 -88.85 30.9 -89.1 31.0 -90.1 31.0 -90.35 30.9 -90.4 30.9 -90.85 30.8 -91.2 30.7 -91.4 30.5 -91.6 30.3 -91.65 30.1 -91.65 29.95 -91.65 29.75 -91.65 29.55 -91.65 29.4 -91.6 29.2 -91.4 29.0 -91.2 28.8 -90.85 28.7 -89.85 28.65 -89.45 28.5 -89.1 28.4 -88.35 28.4 -88.05 28.5 -87.8 28.7" fill="#ffffff" fill-opacity="0.2" fill-rule="evenodd" stroke="none"/>
    <path d="M-20.1 27.9 L-19.6 27.95 -19.35 28.0 -19.2 28.05 -17.85 28.15 -17.4 28.25 -15.6 28.4 -15.3 28.5 -15.05 28.5 -14.95 28.45 -14.95 28.25 -14.8 28.05 -14.6 27.95 Q-8.4 27.7 -2.2 28.0 4.35 28.3 10.95 28.25 L11.6 28.25 28.2 28.0 28.65 27.9 34.45 27.75 34.9 27.65 37.65 27.65 38.1 27.75 41.4 27.8 45.4 27.8 45.8 27.95 45.95 28.15 46.05 28.3 46.05 28.5 46.05 28.7 45.95 28.9 45.8 29.05 45.4 29.2 41.4 29.15 38.4 29.15 37.95 29.0 34.6 29.0 34.15 29.15 28.35 29.25 27.9 29.4 -5.9 29.75 -6.35 29.9 -8.55 30.0 -8.85 30.15 -11.4 30.25 -11.85 30.4 -19.6 30.4 -19.95 30.25 -20.1 30.15 -21.35 30.05 -21.7 29.9 -21.85 29.85 -22.2 29.65 -22.3 29.55 -22.85 29.5 -23.85 29.35 -26.35 29.2 -38.45 28.9 -38.7 28.75 -38.9 28.7 -39.95 28.5 -39.95 28.45 -39.85 28.4 -38.9 28.45 -38.55 28.55 -36.1 28.5 -34.85 28.45 -23.1 28.25 -22.8 28.4 -22.2 28.4 -22.15 28.2 -21.95 28.0 -21.6 27.9 -20.1 27.9" fill="#ffffff" fill-opacity="0.2" fill-rule="evenodd" stroke="none"/>
    <path d="M-92.2 44.7 L-91.7 44.15 -80.6 43.95 Q-63.75 43.7 -46.95 44.0 -30.85 44.3 -14.85 43.9 L-5.75 44.05 3.35 44.2 12.35 44.05 Q16.8 43.85 21.35 43.9 L30.45 43.95 39.55 44.05 50.55 44.25 51.55 44.15 58.05 44.05 64.55 44.05 76.95 44.0 89.35 43.9 90.1 43.8 91.05 44.25 91.35 45.35 90.6 45.8 -91.7 45.8 -92.2 44.7" fill="#333333" fill-rule="evenodd" stroke="none"/>
    <path d="M-77.2 27.65 L-77.2 27.75 -77.2 27.85 -77.2 27.95 -77.2 28.0 -77.2 28.1 -77.15 28.15 -77.2 28.15 -77.2 28.25 -77.2 28.35 -77.2 28.45 -77.2 28.5 -77.2 28.6 -77.2 28.7 -77.15 28.8 -77.15 28.9 -77.1 29.0 -77.1 29.05 -77.9 29.05 -90.3 29.1 -91.05 29.2 -92.0 28.85 -92.3 28.0 -91.55 27.6 -77.2 27.6 -77.2 27.65 M72.45 27.6 L72.45 27.75 72.45 27.95 72.45 28.05 72.45 28.15 72.45 29.15 46.0 29.05 Q29.9 28.8 13.9 29.1 L4.9 29.15 -4.2 29.2 -13.2 29.2 -22.3 29.1 -31.4 29.05 -40.5 29.0 Q-46.0 28.85 -51.5 28.85 L-52.5 28.9 -59.0 29.0 -65.5 29.0 -74.05 29.05 -74.15 27.6 72.45 27.6 M91.25 28.5 L90.75 28.9 79.65 29.05 75.95 29.1 75.9 27.6 90.75 27.6 91.25 28.5" fill="#333333" fill-rule="evenodd" stroke="none"/>
    <path d="M-91.65 27.5 L-91.6 27.45 -91.35 27.4 -91.35 27.35 -91.0 27.5 -90.9 27.7 -90.75 28.6 -90.7 29.75 -90.7 30.85 -90.75 31.05 -90.85 31.25 -90.9 31.4 -90.95 31.55 -91.1 31.6 -91.35 31.7 -91.7 31.55 -91.8 31.35 -91.9 31.2 -92.0 30.05 -91.95 28.75 -91.75 27.6 -91.65 27.5" fill="#333333" fill-rule="evenodd" stroke="none"/>
    <path d="M90.95 31.55 L90.95 31.75 90.9 31.9 90.8 32.05 90.7 32.1 90.45 32.15 89.7 32.2 78.2 32.35 77.45 32.35 75.95 32.35 76.0 30.9 77.45 30.9 78.2 30.9 89.7 31.0 90.45 31.05 90.75 31.2 90.9 31.35 90.95 31.55 M-77.05 31.95 L-77.05 32.2 -90.75 32.2 -91.1 32.3 -91.4 32.2 -91.5 32.0 -91.5 31.8 -91.45 31.65 -91.25 31.45 -91.15 31.3 -91.1 31.25 -90.85 31.2 -90.35 31.15 -77.05 31.15 -77.05 31.95 M72.45 31.7 L72.45 32.35 37.7 32.35 -74.05 32.2 -74.05 31.15 -46.35 31.05 -45.6 31.05 -31.05 30.85 -10.3 30.85 37.7 30.85 72.45 30.9 72.45 31.7" fill="#333333" fill-rule="evenodd" stroke="none"/>
    <path d="M91.1 28.05 L91.25 28.25 91.35 28.45 91.25 28.6 91.15 28.8 91.15 29.55 91.15 30.3 91.1 31.05 91.0 31.15 90.95 31.2 90.7 31.3 90.4 31.2 90.25 31.0 90.25 30.45 90.25 29.7 90.25 28.95 90.4 28.55 90.7 28.2 90.95 28.05 91.1 28.05" fill="#333333" fill-rule="evenodd" stroke="none"/>
    <path d="M-88.75 39.35 L-88.85 41.6 -88.9 41.8 -88.95 42.0 -89.05 42.15 -89.35 42.3 -89.65 42.2 -89.75 42.0 -89.9 38.45 -89.75 34.85 -89.7 32.6 -89.75 32.45 -89.8 32.25 -89.85 32.05 -89.75 31.95 -89.6 31.9 -89.35 31.85 -89.2 31.85 -89.0 32.05 -88.85 35.6 -88.75 39.35" fill="#333333" fill-rule="evenodd" stroke="none"/>
    <path d="M-91.6 41.7 L-91.35 41.65 -91.35 41.6 -91.0 41.75 -90.9 41.95 -90.85 42.1 -90.8 42.5 -90.75 43.05 -90.8 43.8 -90.85 44.0 -90.9 44.2 -91.0 44.3 -91.1 44.35 -91.35 44.45 -91.7 44.3 -91.85 44.1 -91.9 43.55 -91.9 42.8 -91.85 42.05 -91.75 41.9 -91.65 41.75 -91.6 41.7" fill="#333333" fill-rule="evenodd" stroke="none"/>
    <path d="M90.85 42.2 L90.45 42.3 76.0 42.3 75.95 42.25 75.95 42.15 75.95 40.9 85.45 40.95 90.45 40.95 90.85 41.05 91.0 41.25 91.1 41.45 91.1 41.6 91.1 41.8 91.0 42.0 90.85 42.2 M-77.05 41.05 L-77.05 42.2 -85.1 42.15 -90.1 42.1 -90.85 42.05 -91.15 41.95 -91.25 41.75 -91.25 41.55 Q-91.2 41.2 -90.85 41.2 L-77.05 41.05 M72.45 40.9 L72.45 42.3 -37.3 42.15 -43.35 42.15 -74.05 42.2 -74.05 41.0 Q-51.7 40.85 -29.3 41.2 L-26.95 41.2 -21.35 41.15 7.15 40.95 Q31.5 40.75 72.45 40.9" fill="#333333" fill-rule="evenodd" stroke="none"/>
    <path d="M91.3 42.5 L91.25 43.25 91.25 44.0 91.25 44.15 91.15 44.35 91.0 44.55 90.7 44.7 90.35 44.55 90.2 44.35 90.15 43.8 90.15 43.05 90.15 42.3 90.15 42.1 90.15 41.95 90.25 41.75 90.45 41.6 90.5 41.6 90.7 41.55 90.85 41.55 91.1 41.75 91.2 41.95 91.3 42.5" fill="#333333" fill-rule="evenodd" stroke="none"/>
    <path d="M89.1 31.05 L89.25 31.25 89.35 31.45 89.4 34.25 89.3 37.45 89.15 39.5 89.1 39.65 89.0 39.85 89.0 40.05 88.95 40.25 88.95 40.45 88.95 40.6 88.85 40.8 88.6 40.8 88.45 40.6 88.45 40.45 88.4 40.25 88.35 40.05 88.25 39.7 88.15 36.85 88.05 33.7 88.0 31.6 88.05 31.45 88.15 31.25 88.25 31.05 88.7 30.95 89.1 31.05" fill="#333333" fill-rule="evenodd" stroke="none"/>
    <path d="M88.95 33.65 L87.7 33.65 75.95 33.6 75.95 32.65 75.95 31.85 87.7 31.85 88.95 31.9 89.4 32.0 89.55 32.2 89.7 32.4 89.75 32.6 89.8 32.75 89.75 32.95 89.7 33.15 89.55 33.3 89.4 33.5 88.95 33.65 M-77.05 32.1 L-77.05 33.5 -84.35 33.5 -88.85 33.5 -89.35 33.45 -89.75 33.35 -89.9 33.15 -90.0 32.95 -90.0 32.75 -90.0 32.6 -89.9 32.4 -89.75 32.2 -89.35 32.1 -84.35 32.05 -77.05 32.1 M72.45 31.85 L72.45 33.6 Q-0.8 33.4 -74.05 33.5 L-74.05 32.75 -74.05 32.1 Q-4.5 32.2 64.95 31.85 L72.45 31.85" fill="#333333" fill-rule="evenodd" stroke="none"/>
    <path d="M1.4 37.05 Q1.5 37.75 0.95 38.3 0.4 38.85 -0.5 38.95 -1.45 39.0 -2.0 38.45 -2.55 37.85 -2.5 37.05 -2.5 36.25 -1.9 35.8 -1.35 35.3 -0.45 35.35 0.45 35.35 0.85 35.85 L1.4 37.05 M-0.8 36.1 Q-1.4 35.95 -1.7 36.3 L-1.95 37.05 -1.6 37.65 -0.75 37.9 0.1 37.65 0.45 37.05 Q0.45 36.7 0.1 36.45 L-0.8 36.1" fill="#333333" fill-rule="evenodd" stroke="none"/>
    <path d="M-28.6 37.05 Q-28.5 37.75 -29.05 38.3 -29.6 38.85 -30.5 38.95 -31.45 39.0 -32.0 38.45 -32.55 37.85 -32.5 37.05 -32.5 36.25 -31.9 35.8 -31.35 35.3 -30.45 35.35 -29.55 35.35 -29.15 35.85 -28.75 36.3 -28.6 37.05 M-30.8 36.1 Q-31.4 35.95 -31.7 36.3 L-31.95 37.05 -31.6 37.65 -30.75 37.9 -29.9 37.65 Q-29.55 37.4 -29.55 37.05 -29.55 36.7 -29.9 36.45 -30.25 36.2 -30.8 36.1" fill="#333333" fill-rule="evenodd" stroke="none"/>
    <path d="M31.4 37.05 Q31.5 37.75 30.95 38.3 30.4 38.85 29.5 38.95 28.55 39.0 28.0 38.45 27.45 37.85 27.5 37.05 27.5 36.25 28.1 35.8 28.65 35.3 29.55 35.35 30.45 35.35 30.85 35.85 L31.4 37.05 M29.2 36.1 Q28.6 35.95 28.3 36.3 28.0 36.65 28.05 37.05 28.05 37.4 28.4 37.65 L29.25 37.9 30.1 37.65 30.45 37.05 Q30.45 36.7 30.1 36.45 29.75 36.2 29.2 36.1" fill="#333333" fill-rule="evenodd" stroke="none"/>
    <path d="M-58.6 37.05 Q-58.5 37.75 -59.05 38.3 -59.6 38.85 -60.5 38.95 -61.45 39.0 -62.0 38.45 -62.55 37.85 -62.5 37.05 -62.5 36.25 -61.9 35.8 -61.35 35.3 -60.45 35.35 -59.55 35.35 -59.15 35.85 -58.75 36.3 -58.6 37.05 M-60.8 36.1 Q-61.4 35.95 -61.7 36.3 L-61.95 37.05 -61.6 37.65 -60.75 37.9 -59.9 37.65 Q-59.55 37.4 -59.55 37.05 -59.55 36.7 -59.9 36.45 -60.25 36.2 -60.8 36.1" fill="#333333" fill-rule="evenodd" stroke="none"/>
    <path d="M61.4 37.05 Q61.5 37.75 60.95 38.3 60.4 38.85 59.5 38.95 58.55 39.0 58.0 38.45 57.45 37.85 57.5 37.05 57.5 36.25 58.1 35.8 58.65 35.3 59.55 35.35 60.45 35.35 60.85 35.85 L61.4 37.05 M59.2 36.1 Q58.6 35.95 58.3 36.3 58.0 36.65 58.05 37.05 58.05 37.4 58.4 37.65 L59.25 37.9 60.1 37.65 60.45 37.05 60.1 36.45 Q59.75 36.2 59.2 36.1" fill="#333333" fill-rule="evenodd" stroke="none"/>
    <path d="M-78.0 20.7 L-77.95 20.5 -77.95 20.2 -77.85 20.0 -77.75 20.0 -77.6 19.9 -77.45 19.9 -77.2 20.2 -77.15 20.5 -77.05 20.75 -76.95 21.0 -77.0 21.25 -77.1 21.55 -77.15 21.75 -77.15 30.2 -77.05 38.9 -77.05 44.2 -77.1 44.5 -77.2 44.6 -77.35 44.75 -77.6 44.85 -77.95 44.6 -78.15 44.4 -78.1 35.7 -78.05 26.7 -77.95 21.7 -77.9 21.4 -77.85 21.2 -77.9 20.9 -78.0 20.7" fill="#333333" fill-rule="evenodd" stroke="none"/>
    <path d="M-73.5 20.9 L-73.4 21.2 -73.2 30.15 -73.1 39.35 -73.1 44.4 -73.15 44.6 -73.3 44.9 -73.45 45.2 -73.85 45.3 -74.3 45.2 -74.45 44.9 -74.6 44.6 -74.6 35.95 -74.5 26.7 -74.35 21.4 -74.3 21.2 -74.15 20.9 -73.85 20.75 -73.85 20.7 -73.5 20.9" fill="#333333" fill-rule="evenodd" stroke="none"/>
    <path d="M-72.6 30.75 L-72.25 30.9 -72.1 31.15 -71.95 31.4 -71.9 34.8 Q-71.8 36.65 -71.85 38.55 L-71.85 40.95 -71.85 41.25 -71.95 41.5 -72.05 41.7 -72.15 41.9 -72.3 41.95 -72.6 42.0 -73.0 41.9 -73.2 41.65 -73.35 41.35 -73.35 37.95 -73.25 34.3 -73.2 31.55 -73.2 31.35 -73.1 31.1 -72.95 30.9 -72.85 30.9 -72.6 30.85 -72.6 30.75" fill="#333333" fill-rule="evenodd" stroke="none"/>
    <path d="M-77.65 20.35 L-74.2 20.0 -73.8 20.0 -73.6 20.15 -73.5 20.25 -73.45 20.35 -73.4 20.45 -73.4 20.6 -73.4 20.7 -73.45 20.85 -73.5 21.0 -73.6 21.1 -73.8 21.2 -77.65 20.9 -77.7 20.8 -77.75 20.65 -77.75 20.5 -77.7 20.4 -77.65 20.35" fill="#333333" fill-rule="evenodd" stroke="none"/>
    <path d="M72.0 20.7 L72.05 20.5 72.05 20.2 72.15 20.0 72.25 20.0 72.4 19.9 72.55 19.9 72.8 20.2 72.85 20.5 72.95 20.75 73.05 21.0 73.0 21.25 72.9 21.55 72.85 21.75 72.85 30.2 72.95 38.9 72.95 44.2 72.9 44.5 72.8 44.6 72.65 44.75 72.4 44.85 72.05 44.6 71.85 44.4 71.9 35.7 71.95 26.7 72.05 21.7 72.1 21.4 72.15 21.2 72.1 20.9 72.0 20.7" fill="#333333" fill-rule="evenodd" stroke="none"/>
    <path d="M76.5 20.9 L76.6 21.2 76.8 30.15 76.9 39.35 76.9 44.4 76.85 44.6 76.7 44.9 76.55 45.2 76.15 45.3 75.7 45.2 75.55 44.9 75.4 44.6 75.4 35.95 75.5 26.7 75.65 21.4 75.7 21.2 75.85 20.9 76.15 20.75 76.15 20.7 76.5 20.9" fill="#333333" fill-rule="evenodd" stroke="none"/>
    <path d="M77.4 31.0 L77.75 31.15 77.9 31.4 78.05 31.65 78.1 35.05 78.15 38.8 78.15 41.2 78.15 41.5 78.05 41.75 77.95 41.95 77.85 42.15 77.7 42.2 77.4 42.25 77.0 42.15 76.8 41.9 76.65 41.6 76.65 38.2 76.75 34.55 76.8 31.8 76.8 31.6 76.9 31.35 77.05 31.15 77.15 31.15 77.4 31.1 77.4 31.0" fill="#333333" fill-rule="evenodd" stroke="none"/>
    <path d="M72.35 20.35 L75.8 20.0 76.2 20.0 76.4 20.15 76.5 20.25 76.55 20.35 76.6 20.45 76.6 20.6 76.6 20.7 76.55 20.85 76.5 21.0 76.4 21.1 76.2 21.2 72.35 20.9 72.3 20.8 72.25 20.65 72.25 20.5 72.3 20.4 72.35 20.35" fill="#333333" fill-rule="evenodd" stroke="none"/>
    <path d="M-70.8 36.75 L-70.75 36.85 -70.65 38.55 -70.6 40.35 -70.65 41.45 -70.7 41.55 -70.8 41.65 -71.0 41.7 -71.2 41.65 -71.25 41.55 -71.3 41.45 -71.3 39.75 -71.3 38.0 -71.25 36.95 -71.2 36.9 -71.15 36.75 -71.0 36.75 -71.0 36.7 -70.8 36.75" fill="#333333" fill-rule="evenodd" stroke="none"/>
    <path d="M-71.0 33.2 L-70.8 33.25 -70.75 33.35 -70.7 33.45 -70.65 34.1 -70.65 34.85 -70.65 35.5 -70.7 35.6 -70.75 35.7 -70.75 35.75 -70.8 35.85 -70.85 35.85 -71.0 35.9 -71.15 35.85 -71.2 35.75 -71.25 35.65 -71.3 34.9 -71.3 33.95 -71.25 33.3 -71.15 33.25 -71.1 33.2 -71.0 33.2" fill="#333333" fill-rule="evenodd" stroke="none"/>
    <path d="M-76.55 43.4 L-76.55 43.3 -76.55 43.1 -76.55 43.05 -76.5 42.95 -76.35 42.9 -76.3 42.85 -76.15 42.95 -76.1 43.0 -76.1 43.1 -76.05 43.3 -76.05 43.5 -76.05 43.6 -76.1 43.7 -76.15 43.8 -76.15 43.85 -76.25 43.95 -76.25 44.05 -76.25 44.15 -76.25 44.25 -76.25 44.35 -76.25 44.45 -76.25 44.5 -76.3 44.6 -76.3 44.7 -76.3 44.8 -76.3 44.9 -76.35 45.0 -76.4 45.1 -76.45 45.2 -76.55 45.25 -76.75 45.2 -76.8 45.1 -76.8 45.0 -76.8 44.8 -76.8 44.6 -76.8 44.5 -76.8 44.45 -76.75 44.35 -76.75 44.25 -76.75 44.15 -76.75 44.05 -76.75 43.95 -76.75 43.85 -76.7 43.8 -76.65 43.7 -76.6 43.6 -76.6 43.5 -76.55 43.4" fill="#333333" fill-rule="evenodd" stroke="none"/>
    <path d="M-75.3 43.1 L-75.15 43.2 -75.1 43.25 -75.05 43.35 -75.05 43.45 -75.0 43.55 -75.0 43.65 -75.0 44.0 -75.0 44.5 -74.95 44.95 -74.95 45.05 -74.95 45.15 -75.0 45.25 -75.15 45.25 -75.25 45.15 -75.4 45.05 -75.5 44.95 -75.5 44.5 -75.5 43.95 -75.55 43.35 -75.55 43.3 -75.5 43.2 -75.35 43.15 -75.3 43.1" fill="#333333" fill-rule="evenodd" stroke="none"/>
    <path d="M73.7 42.9 L73.85 42.95 73.9 43.05 73.95 43.15 73.95 43.25 74.0 43.35 74.0 43.4 73.95 43.5 73.9 43.6 73.9 43.7 73.85 43.8 73.8 43.9 73.75 44.0 73.7 44.1 73.7 44.2 73.7 44.25 73.65 44.35 73.6 44.45 73.55 44.55 73.55 44.65 73.55 44.75 73.55 44.85 73.5 44.95 73.45 45.0 73.45 45.1 73.35 45.2 73.2 45.2 73.15 45.1 73.05 45.0 73.05 44.95 73.05 44.85 73.05 44.75 73.05 44.65 73.05 44.55 73.05 44.45 73.1 44.35 73.15 44.25 73.15 44.2 73.2 44.1 73.3 44.0 73.3 43.9 73.35 43.8 73.4 43.7 73.45 43.6 73.45 43.5 73.5 43.45 73.5 43.35 73.5 43.25 73.45 43.15 73.5 43.05 73.55 42.95 73.7 42.9" fill="#333333" fill-rule="evenodd" stroke="none"/>
    <path d="M74.65 42.75 L74.7 42.8 74.8 43.15 74.8 43.65 74.7 44.1 74.7 44.2 74.7 44.3 74.7 44.4 74.7 44.5 74.65 44.6 74.6 44.65 74.55 44.75 74.55 44.85 74.55 44.95 74.5 45.05 74.5 45.15 74.45 45.25 74.4 45.3 74.3 45.35 74.15 45.25 74.05 45.2 74.05 45.1 74.05 45.0 74.05 44.9 74.05 44.7 74.05 44.6 74.1 44.5 74.15 44.45 74.2 44.35 74.2 44.25 74.2 44.15 74.2 43.95 74.2 43.85 74.25 43.75 74.3 43.7 74.3 43.4 74.3 43.0 74.35 42.75 74.4 42.7 74.55 42.65 74.65 42.75" fill="#333333" fill-rule="evenodd" stroke="none"/>
    <path d="M78.95 32.4 L79.1 32.5 79.15 32.6 79.2 32.65 79.2 34.35 79.2 36.15 79.15 37.25 79.15 37.35 79.15 37.45 79.2 37.55 79.15 37.65 79.1 37.75 78.95 37.75 78.85 37.65 78.65 35.75 78.65 33.8 78.65 32.65 78.7 32.6 78.75 32.5 78.95 32.45 78.95 32.4" fill="#333333" fill-rule="evenodd" stroke="none"/>
    <path d="M-46.2 43.15 L-46.2 43.3 -46.15 43.5 -46.15 43.7 -46.15 44.05 -46.25 44.25 -46.35 44.45 -46.4 44.65 -46.45 44.8 -46.45 45.0 -46.55 45.15 -46.7 45.4 -46.8 45.5 -46.95 45.55 -47.05 45.4 -47.15 45.2 -47.2 45.0 -47.25 44.8 -47.25 44.6 -47.3 44.45 -47.2 44.25 -47.15 44.05 -47.05 43.9 -47.05 43.7 -47.05 43.5 -47.05 43.3 -47.0 43.15 -46.9 42.95 -46.6 42.85 -46.6 42.8 -46.3 43.0 -46.2 43.15" fill="#333333" fill-rule="evenodd" stroke="none"/>
    <path d="M-43.3 43.4 L-43.2 43.55 -43.3 43.75 -43.4 43.95 -43.45 44.15 -43.45 44.25 -43.1 44.5 -42.95 44.7 -42.65 44.9 -42.55 45.05 -43.2 45.05 -44.05 45.05 -44.2 44.9 -44.2 44.7 -44.2 44.3 -44.2 43.95 -44.15 43.75 -44.1 43.6 -43.85 43.25 -43.8 43.2 -43.45 43.2 -43.3 43.4" fill="#333333" fill-rule="evenodd" stroke="none"/>
    <path d="M-10.1 40.7 L-10.1 40.9 -10.1 41.05 -10.15 41.25 -10.2 41.45 -10.45 41.45 -10.6 41.25 -10.6 40.9 -10.6 40.5 -10.5 40.4 -10.2 40.3 -10.1 40.5 -10.1 40.7" fill="#333333" fill-rule="evenodd" stroke="none"/>
    <path d="M-7.3 40.0 L-7.2 40.15 -7.2 40.3 -7.3 40.5 -7.4 40.7 -7.4 40.9 -7.4 41.05 -7.4 41.25 -7.5 41.45 -7.6 41.65 -8.05 41.7 -8.2 41.5 -8.25 41.3 -8.3 41.15 -8.3 40.95 -8.3 40.75 -8.3 40.55 -8.25 40.4 -8.15 40.2 -7.95 40.0 -7.85 39.9 -7.6 39.85 -7.6 39.8 -7.3 40.0" fill="#333333" fill-rule="evenodd" stroke="none"/>
    <path d="M32.95 30.15 L33.1 30.85 33.05 31.8 33.05 32.55 32.9 32.75 32.65 32.9 32.4 32.75 32.3 32.55 32.2 31.8 32.25 30.9 32.3 30.15 32.4 30.0 32.45 29.95 32.65 29.95 32.8 29.95 32.95 30.15" fill="#333333" fill-rule="evenodd" stroke="none"/>
    <path d="M35.55 30.15 L35.55 30.3 35.4 30.7 35.2 31.05 35.15 31.25 35.1 31.45 35.1 31.65 35.1 31.8 35.1 32.0 35.2 32.2 35.35 32.4 35.3 32.55 35.15 32.7 34.85 32.55 34.7 32.45 34.65 32.45 34.35 32.3 34.2 32.15 34.2 31.95 34.2 31.55 34.25 31.2 34.3 31.0 34.35 30.8 34.55 30.45 34.75 30.05 34.85 29.95 34.9 29.9 35.15 29.85 35.15 29.8 35.45 30.0 35.55 30.15" fill="#333333" fill-rule="evenodd" stroke="none"/>
    <path d="M85.0 40.0 L84.9 39.8 84.85 39.65 84.85 39.45 84.9 39.3 84.95 39.25 85.15 39.25 85.3 39.25 85.45 39.45 85.6 39.65 85.7 39.8 85.95 40.0 86.3 40.2 86.45 40.4 86.55 40.55 86.65 40.75 86.8 40.95 86.7 41.1 86.55 41.3 86.2 41.3 86.05 41.15 85.85 40.95 85.7 40.75 85.45 40.55 85.3 40.4 85.1 40.2 85.0 40.0" fill="#333333" fill-rule="evenodd" stroke="none"/>
    <path d="M86.9 37.9 L87.25 38.1 87.5 38.25 87.65 38.4 88.05 38.5 88.15 38.7 88.15 38.9 88.05 39.0 87.9 39.05 87.65 39.15 87.4 39.2 87.1 39.05 86.55 38.7 86.3 38.5 86.0 38.1 85.95 37.95 86.05 37.75 86.15 37.65 86.4 37.6 86.4 37.55 86.7 37.7 86.9 37.9" fill="#333333" fill-rule="evenodd" stroke="none"/>
  </g>
</svg>
