<?xml version="1.0" encoding="UTF-8" standalone="no"?>
<svg xmlns:xlink="http://www.w3.org/1999/xlink" height="37.8px" width="34.45px" xmlns="http://www.w3.org/2000/svg">
  <g transform="matrix(1.0, 0.0, 0.0, 1.0, 17.2, 18.9)">
    <path d="M12.6 -1.25 L8.65 0.35 8.4 0.45 14.2 -0.7 13.9 -1.8 12.6 -1.25 M16.4 2.25 L16.5 4.6 16.45 5.4 Q17.25 5.5 17.25 6.15 L16.35 6.95 Q16.15 8.85 15.55 10.45 14.1 14.65 10.85 15.85 L9.0 17.15 Q5.8 18.9 0.55 18.9 -6.0 18.9 -11.05 16.85 -15.6 14.95 -17.2 12.2 L-16.95 11.9 -13.15 14.05 Q-14.6 12.6 -15.55 10.3 L-16.15 8.5 Q-16.9 8.4 -17.1 8.1 L-17.15 7.7 -16.5 7.1 -16.75 5.5 -17.15 5.2 -17.2 4.85 -16.85 4.5 -16.85 3.95 Q-16.85 -0.9 -15.85 -3.75 -14.85 -6.5 -11.1 -12.3 -10.5 -12.15 -10.5 -11.45 -10.5 -10.65 -12.95 -6.25 -15.35 -1.05 -15.35 3.85 -12.85 2.85 -7.0 1.15 L4.9 -2.3 5.1 -2.4 -4.8 -0.2 -13.1 1.45 -14.05 1.2 -14.1 0.9 Q-14.1 0.55 -2.7 -3.1 8.7 -6.7 10.4 -6.9 9.95 -6.5 3.95 -4.25 L-2.4 -2.05 4.15 -3.6 10.45 -4.75 Q11.3 -4.75 11.3 -4.1 11.3 -3.65 6.95 -1.7 L11.1 -2.7 13.45 -3.3 11.7 -7.4 Q9.4 -12.0 6.3 -15.1 L5.65 -15.75 Q4.8 -14.75 -3.7 -12.0 L-0.25 -13.05 Q3.4 -14.0 6.6 -14.0 7.2 -14.0 7.15 -13.4 7.15 -13.15 -0.85 -10.55 -9.5 -7.7 -11.7 -6.05 L-2.3 -8.8 Q5.55 -11.15 7.6 -11.15 8.5 -11.15 8.4 -10.55 8.4 -10.2 2.55 -8.35 L-4.6 -6.0 -4.85 -5.9 -0.2 -7.25 5.2 -8.5 Q5.95 -8.5 5.9 -7.9 5.9 -7.2 -2.3 -4.55 -10.25 -2.0 -11.45 -2.0 L-12.0 -1.8 -12.65 -1.55 -12.8 -1.65 -12.75 -1.8 -13.1 -1.75 Q-13.6 -1.75 -13.7 -2.05 L-13.7 -2.35 Q-13.7 -2.95 -12.1 -3.85 L-9.35 -5.3 -10.25 -4.95 -11.65 -4.85 Q-12.75 -4.85 -12.95 -5.3 L-12.95 -5.8 Q-12.95 -6.95 -11.1 -7.95 L-6.0 -9.95 -7.75 -9.65 -9.05 -9.9 -9.1 -10.2 Q-9.1 -10.85 -4.8 -12.75 -0.7 -14.6 1.5 -15.05 L1.75 -15.15 -3.0 -13.8 Q-6.9 -12.65 -8.4 -12.65 -9.5 -12.65 -9.85 -13.0 L-9.85 -13.05 Q-10.25 -13.1 -10.25 -13.3 -9.4 -17.1 -3.3 -18.45 L0.3 -18.8 1.35 -18.9 1.4 -18.8 1.2 -18.75 3.15 -18.3 5.35 -18.7 5.7 -18.35 4.75 -17.65 7.65 -15.4 7.5 -15.25 Q10.95 -12.4 13.3 -7.85 15.75 -3.1 16.35 1.65 L16.45 2.1 16.4 2.25 M14.9 5.45 L14.9 4.6 14.85 3.2 7.8 6.05 -0.9 9.15 8.05 6.85 Q12.7 5.7 14.9 5.45 M14.65 1.55 L14.55 0.9 13.4 1.3 7.2 3.5 11.75 2.3 14.65 1.55 M13.55 9.55 L13.65 10.0 Q13.65 11.0 9.25 12.35 L1.45 14.85 6.35 13.6 Q9.9 12.7 10.8 12.7 L11.8 12.95 13.4 10.95 Q14.25 9.55 14.65 7.65 L13.9 7.9 9.15 9.35 8.95 9.45 11.95 9.2 Q13.2 9.2 13.55 9.55 M-1.5 -17.75 L-3.4 -17.4 -3.55 -17.35 -3.95 -17.2 -4.2 -17.1 -5.95 -16.25 -1.55 -17.4 -0.1 -17.7 -1.5 -17.75 M-7.1 -15.6 L-8.85 -14.25 -5.1 -15.6 1.4 -17.4 -2.6 -16.65 -6.8 -15.6 -7.1 -15.6 M-6.25 -14.2 L-2.65 -15.25 -6.15 -14.25 -6.25 -14.2 M-1.85 -15.5 L4.9 -16.4 4.75 -16.5 4.35 -16.8 3.55 -17.15 1.15 -16.35 -1.85 -15.5 M-11.55 -2.35 L-11.95 -2.15 -11.9 -2.15 -11.55 -2.35 M-13.45 10.9 L-11.85 12.7 -11.85 12.4 Q-11.85 11.45 -7.05 9.65 -4.4 8.65 0.35 7.0 L-13.45 10.9 M-14.7 8.3 L-14.25 9.5 Q-12.35 8.4 -6.1 6.3 L3.2 3.3 -7.15 6.2 -14.7 8.3 M-15.25 5.45 L-15.15 6.45 Q-13.6 5.8 -10.85 4.9 L2.0 1.0 -7.85 3.6 -15.25 5.45 M-10.9 13.45 Q-8.55 15.05 -4.95 15.75 L-5.7 15.9 -6.9 16.0 -7.35 16.15 -4.85 16.6 -4.85 16.4 Q-4.85 15.35 -1.45 14.15 L3.7 12.45 Q-4.95 15.05 -6.8 15.05 -7.85 15.05 -7.85 14.2 -7.85 13.5 -6.3 12.75 L-10.65 13.45 -10.9 13.45 M-3.8 -10.75 Q-3.2 -10.95 -2.1 -11.3 L-3.55 -10.85 -3.8 -10.75 M7.15 15.2 L3.1 16.3 -0.1 16.95 0.65 16.95 5.0 16.7 Q4.6 16.65 4.8 16.35 L4.9 16.25 7.4 15.55 7.15 15.2" fill="#333333" fill-rule="evenodd" stroke="none"/>
  </g>
</svg>
