<?xml version="1.0" encoding="UTF-8" standalone="no"?>
<svg xmlns:xlink="http://www.w3.org/1999/xlink" height="21.25px" width="130.95px" xmlns="http://www.w3.org/2000/svg">
  <g transform="matrix(1.0, 0.0, 0.0, 1.0, 65.5, 10.6)">
    <path d="M63.2 -0.1 L63.4 0.55 63.45 1.2 63.45 1.8 63.45 2.45 63.35 3.05 63.0 3.7 62.35 4.4 61.95 4.8 61.5 5.0 60.65 5.25 57.25 5.25 56.4 5.0 19.3 5.2 18.05 5.45 -53.6 5.45 -54.65 5.0 -55.25 4.35 -55.7 3.7 -55.95 3.1 -56.8 2.45 -57.2 1.8 -57.65 1.2 -57.65 0.55 -57.65 -0.1 -57.65 -0.75 -57.65 -1.35 -57.65 -2.0 -57.4 -2.65 -57.0 -3.25 -56.6 -3.7 -56.35 -3.85 -54.45 -4.05 -27.15 -3.95 -25.65 -3.5 27.4 -3.1 28.7 -2.65 37.85 -2.65 39.35 -3.1 50.45 -3.0 57.25 -2.85 58.55 -2.45 61.05 -1.5 62.8 -0.75 63.2 -0.1" fill="#827d75" fill-rule="evenodd" stroke="none"/>
    <path d="M-53.45 -8.2 L-52.25 -8.3 Q-49.1 -7.15 -47.0 -4.3 L-47.15 -3.2 Q-48.6 -2.35 -50.45 -2.05 L-52.55 -2.2 -52.55 -0.95 -55.5 2.05 -55.55 2.5 -54.95 3.6 Q-47.85 5.45 -40.75 3.8 L-40.1 4.4 -40.45 5.2 Q-43.85 6.4 -47.5 6.05 -50.1 8.5 -53.5 9.15 L-55.15 9.25 -55.5 8.8 Q-58.05 9.05 -60.35 8.15 L-60.65 7.2 -62.65 6.7 Q-65.9 0.1 -63.3 -3.55 -60.75 -7.2 -59.4 -7.8 L-55.7 -9.05 -54.2 -9.3 -53.45 -8.2 M-54.15 -1.9 L-54.7 -2.65 -56.05 -2.2 -55.85 0.0 -54.35 -1.25 -54.15 -1.9" fill="#827d75" fill-rule="evenodd" stroke="none"/>
    <path d="M-56.35 -2.75 L-55.4 -2.75 -54.15 -2.4 -54.0 -2.2 -53.85 -2.0 -53.85 -1.8 -53.85 -1.45 -53.85 -0.7 -53.85 0.05 -53.9 0.25 -54.15 0.65 -54.8 1.15 -55.15 1.4 -55.6 1.45 -55.6 1.5 -57.1 1.5 -57.5 1.4 -57.65 1.2 -57.8 1.0 -57.85 0.8 -57.95 0.65 -58.0 0.45 -58.05 0.25 -58.05 0.05 -58.05 -0.3 -58.05 -0.85 -58.0 -1.45 -57.9 -1.6 -57.8 -1.8 -57.6 -2.0 -57.4 -2.2 -57.05 -2.4 -56.85 -2.55 -56.65 -2.7 -56.35 -2.75" fill="#663333" fill-opacity="0.2" fill-rule="evenodd" stroke="none"/>
    <path d="M-57.0 -4.9 L-54.85 -5.0 -54.35 -4.9 -54.1 -4.7 -54.05 -4.6 -53.35 -4.5 -52.85 -4.4 -52.6 -4.2 -52.1 -3.6 -51.4 -2.65 -50.75 -1.95 -50.65 -1.75 -50.6 -1.55 -50.4 -1.35 -50.25 -1.2 -50.2 -1.0 -50.15 -0.8 -50.15 -0.6 -50.15 -0.45 -50.05 -0.25 -49.95 -0.05 -49.95 0.15 -49.9 0.3 -49.9 0.5 -49.9 0.9 -49.9 1.25 -49.9 1.45 -50.0 1.6 -50.1 1.8 -50.15 2.0 -50.15 2.2 -50.15 2.4 -50.15 2.55 -50.15 2.75 -50.25 2.95 -50.4 3.15 -50.6 3.3 -50.8 3.5 -51.0 3.7 -51.3 3.9 -51.6 4.05 -51.8 4.25 -52.0 4.45 -52.3 4.65 -52.65 4.8 -53.05 5.0 -53.3 5.15 -53.6 5.2 -55.0 5.3 -55.25 5.45 -55.6 5.5 -58.1 5.5 -58.55 5.4 -58.85 5.2 -59.05 5.0 -59.25 4.8 -59.35 4.65 -59.5 4.45 -59.55 4.25 -59.6 4.05 -59.7 3.9 -59.8 3.7 -59.95 3.5 -60.05 3.3 -60.1 3.15 -60.1 2.95 -60.1 2.75 -60.2 2.55 -60.25 2.4 -60.3 2.2 -60.35 2.0 -60.35 1.8 -60.35 1.45 -60.35 0.7 -60.35 -0.25 -60.3 -0.6 -60.3 -0.8 -60.35 -1.0 -60.35 -1.35 -60.4 -1.95 -60.3 -2.5 -60.25 -2.7 -60.1 -2.9 -60.0 -3.05 -59.75 -3.25 -58.5 -4.0 -57.1 -4.9 -57.0 -4.9 M-56.15 -2.0 L-56.35 -1.8 -56.55 -1.6 -56.75 -1.45 -57.0 -1.25 -57.1 -1.05 -57.3 -0.85 -57.5 -0.7 -57.65 -0.5 -57.75 -0.3 -57.8 -0.1 -57.8 0.05 -57.85 0.25 -57.95 0.45 -58.1 0.65 -58.2 0.85 -58.25 1.0 -58.2 1.2 -58.2 1.4 -58.1 1.55 -57.65 1.9 -57.05 2.35 -56.45 2.9 -56.15 3.2 -56.05 3.25 -55.35 3.25 -55.25 3.2 -55.0 3.05 -54.5 2.95 -54.1 2.75 -53.75 2.55 -53.4 2.4 -53.25 2.2 -53.05 2.0 -52.85 1.8 -52.85 1.65 -52.85 1.45 -52.85 1.25 -52.85 1.05 -52.85 0.9 -52.85 0.7 -52.85 0.5 -52.9 0.3 -53.0 0.15 -53.05 -0.05 -53.1 -0.25 -53.15 -0.45 -53.35 -0.8 -53.55 -1.15 -53.85 -1.55 -54.4 -2.1 -54.75 -2.3 -55.05 -2.45 -55.35 -2.35 -56.0 -2.2 -56.15 -2.0" fill="#663333" fill-opacity="0.2" fill-rule="evenodd" stroke="none"/>
    <path d="M2.5 -3.65 L17.25 -3.45 17.9 -3.35 18.15 -3.3 23.2 -3.25 24.1 -3.2 24.45 -3.25 31.1 -3.45 31.8 -3.45 38.55 -3.65 39.05 -3.75 58.35 -3.75 58.85 -3.65 59.6 -3.5 60.1 -3.4 60.35 -3.2 60.45 -3.1 60.85 -3.0 61.35 -2.9 61.6 -2.7 61.9 -2.5 62.1 -2.3 62.35 -2.1 62.5 -1.95 62.6 -1.75 62.65 -1.55 62.65 -1.4 62.6 -1.2 62.5 -1.0 62.35 -0.8 61.85 -0.7 61.5 -0.75 61.1 -0.75 60.65 -0.85 59.85 -1.0 59.4 -1.15 59.15 -1.25 59.1 -1.25 58.85 -1.2 56.0 -1.05 55.9 -0.85 55.7 -0.75 55.55 -0.7 55.25 -0.65 55.25 -0.6 46.7 -0.6 34.8 -0.75 27.8 -0.75 23.2 -1.1 -14.05 -1.0 -14.6 -1.1 -22.35 -1.35 -27.55 -1.55 -28.15 -1.6 -44.6 -1.75 -45.05 -1.85 -45.3 -2.05 -45.4 -2.25 -45.5 -2.45 -45.6 -2.65 -45.6 -2.8 -45.55 -3.0 -45.45 -3.2 -45.35 -3.35 -45.15 -3.55 -44.95 -3.7 -44.6 -3.75 -34.05 -4.0 -30.2 -4.05 -29.95 -4.1 -29.3 -4.2 -15.8 -4.25 -15.25 -4.2 -4.2 -3.9 -3.95 -3.9 -3.7 -3.8 2.0 -3.75 2.5 -3.65" fill="#663333" fill-opacity="0.2" fill-rule="evenodd" stroke="none"/>
    <path d="M63.45 3.0 L63.35 3.2 63.25 3.4 63.2 3.55 63.1 3.75 62.9 3.9 62.6 3.95 62.25 4.05 61.85 4.2 54.25 4.3 47.75 4.4 47.35 4.45 29.35 4.65 29.1 4.7 28.55 4.75 15.75 4.9 15.5 5.0 15.3 5.2 15.05 5.3 14.75 5.35 -1.25 5.6 -1.25 5.65 -46.6 5.65 -47.05 5.5 -47.2 5.3 -47.35 5.15 -47.4 4.95 -47.45 4.75 -47.4 4.55 -47.35 4.4 -47.2 4.2 -47.05 4.0 -46.6 3.9 -28.25 3.75 -27.8 3.65 -25.55 3.45 -22.8 3.15 15.75 3.15 28.7 3.15 28.95 3.05 29.55 3.0 47.3 2.8 47.8 2.7 54.25 2.75 59.85 2.7 60.35 2.65 62.6 2.25 63.1 2.3 63.4 2.45 63.5 2.65 63.5 2.8 63.45 3.0" fill="#663333" fill-opacity="0.2" fill-rule="evenodd" stroke="none"/>
    <path d="M-62.25 -0.5 L-62.25 -0.85 -62.25 -1.25 -62.1 -1.55 -61.5 -2.35 -61.25 -2.75 -60.8 -3.45 -59.7 -4.45 -59.1 -4.75 -58.75 -5.1 -58.5 -5.35 -58.25 -5.45 -54.1 -5.6 -51.6 -5.05 -49.25 -4.25 Q-47.6 -3.6 -46.6 -2.1 L-46.5 -1.7 -46.45 -1.0 -46.45 -0.6 -46.45 -0.25 -46.45 0.15 -46.45 0.9 -46.45 1.65 -46.55 2.0 -47.45 3.2 -48.6 4.3 -50.85 6.55 -51.25 6.9 -52.1 7.3 -52.5 7.55 -53.1 7.6 -53.1 7.65 -55.6 7.55 -56.5 7.45 -58.1 7.25 -59.0 7.05 -59.6 6.65 -60.35 6.3 -60.65 5.95 -60.95 5.5 -61.25 5.15 -61.35 4.8 -61.35 4.4 -61.35 4.05 -61.35 3.65 -61.35 3.3 -61.35 2.9 -61.45 2.55 -61.7 2.15 -61.95 1.75 -62.1 1.4 -62.2 1.0 -62.25 0.3 -62.25 -0.1 -62.25 -0.5 M-57.25 -0.75 L-57.35 0.05 -57.35 0.4 -57.4 0.75 -57.5 1.15 -57.3 1.5 -57.0 1.9 -56.6 2.3 -56.5 2.65 -56.35 3.05 -56.0 3.4 -55.75 3.65 -55.6 3.75 -55.25 3.8 -55.1 3.7 -54.6 3.5 -53.85 3.3 -53.35 2.9 -53.2 2.55 -52.95 2.15 -52.6 1.8 -52.5 1.0 -52.5 0.65 -52.5 0.3 -52.5 -0.5 -52.65 -0.8 -53.0 -1.25 -53.25 -1.5 -56.25 -1.5 -57.05 -1.0 -57.25 -0.75" fill="#663333" fill-opacity="0.2" fill-rule="evenodd" stroke="none"/>
    <path d="M-62.35 -1.2 L-62.25 -1.6 -62.1 -1.95 -61.9 -2.35 -61.75 -2.75 -61.4 -3.1 -60.8 -3.9 -59.35 -5.35 -58.25 -6.0 -57.6 -6.05 -54.1 -6.25 -53.25 -6.0 -52.75 -5.6 -52.35 -5.25 -52.0 -4.85 -51.6 -4.5 -51.5 -4.1 -51.35 -3.75 -51.25 -3.65 -50.6 -3.75 -49.7 -3.5 -49.2 -3.1 -48.95 -2.75 -48.9 -2.35 -48.85 -1.25 -48.85 0.65 -48.85 1.8 -48.85 2.9 -49.0 3.25 -49.2 3.65 -49.35 4.05 -49.4 4.4 -49.5 4.75 -49.75 5.15 -50.5 5.9 -50.85 6.3 -51.5 6.65 -52.25 7.05 -53.1 7.2 -53.1 7.3 -56.6 7.3 -57.5 7.05 -57.9 6.7 -58.35 6.3 -58.6 5.9 -58.75 5.55 -59.0 5.15 -59.35 4.75 -59.5 4.55 -59.65 4.45 -60.6 4.25 -61.5 4.05 -61.85 3.65 -62.1 3.25 -62.25 2.9 -62.35 2.5 -62.35 1.8 -62.35 0.65 -62.35 -0.85 -62.35 -1.2 M-57.35 -0.75 L-57.35 0.05 -57.35 0.4 -57.25 0.8 -57.1 1.15 -56.85 1.55 -56.6 1.9 -56.5 2.3 -56.35 2.65 -56.1 3.0 -55.75 3.4 -55.5 3.55 -53.5 3.55 -52.85 3.15 -52.85 2.8 -53.0 2.05 -53.1 1.3 -53.25 0.9 -53.25 0.55 -53.25 0.15 -53.3 -0.25 -53.35 -0.6 -53.55 -0.9 -53.95 -1.25 -54.1 -1.35 -54.6 -1.45 -55.25 -1.6 -56.75 -1.5 -57.35 -1.1 -57.35 -0.75" fill="#663333" fill-opacity="0.2" fill-rule="evenodd" stroke="none"/>
    <path d="M14.9 -2.0 L15.4 -1.6 15.6 -1.2 15.75 -0.85 15.75 -0.5 15.75 -0.1 15.65 0.3 15.4 0.65 14.9 1.05 14.0 1.2 14.0 1.3 -27.05 1.3 -27.95 1.05 -31.55 0.85 -40.6 0.65 -41.35 0.4 -41.7 0.15 -41.95 0.15 -42.6 0.3 -43.45 0.05 -43.8 -0.35 -44.05 -0.75 -44.2 -1.1 -44.3 -1.5 -44.35 -1.85 -44.35 -2.25 -44.2 -2.6 -43.95 -2.95 -43.6 -3.35 -43.35 -3.75 -42.95 -4.0 -42.7 -4.05 -27.55 -4.15 -26.95 -4.1 -25.95 -3.85 -14.55 -3.75 -13.65 -3.5 -7.55 -3.25 -6.65 -3.0 -6.15 -2.6 -6.05 -2.5 Q4.0 -2.3 14.0 -2.25 L14.9 -2.0" fill="#663333" fill-opacity="0.2" fill-rule="evenodd" stroke="none"/>
    <path d="M-61.75 -4.35 L-61.35 -4.75 -60.75 -5.1 -60.35 -5.5 -60.25 -5.85 -60.1 -6.25 -59.85 -6.6 -59.6 -7.0 -59.1 -7.35 -58.75 -7.6 -58.1 -7.75 -56.5 -8.0 -55.6 -8.25 -51.6 -8.25 -50.75 -8.0 -50.25 -7.6 -49.1 -6.5 -47.6 -5.0 -46.7 -4.25 -45.1 -4.2 -44.45 -4.1 -43.95 -4.0 Q-34.3 -3.55 -24.55 -3.75 L-23.7 -3.5 -23.2 -3.1 -22.8 -2.7 -22.55 -2.35 -22.05 -2.15 -21.2 -1.85 -19.7 -1.35 -19.3 -1.0 -19.05 -0.75 -18.9 -0.65 -18.15 -0.35 -17.8 0.05 -17.15 0.4 -15.7 1.2 -14.4 1.9 -14.15 2.05 -10.9 2.05 -10.05 1.8 -8.55 1.8 -7.65 2.05 -7.15 2.4 -6.65 2.75 -5.9 3.15 -5.55 3.55 -5.4 3.9 -5.3 4.3 -5.3 4.65 -5.3 5.05 -5.55 5.4 -5.8 5.8 -6.15 6.05 -6.4 6.15 -7.05 6.25 -9.05 6.3 -9.9 6.05 -13.55 6.05 -13.9 6.4 -14.4 6.65 -15.05 6.75 -20.55 6.8 -21.45 6.55 -23.05 6.25 -24.05 6.05 -28.7 6.05 -29.55 6.3 -30.05 6.3 -30.95 6.05 -37.1 6.05 -37.45 6.4 -37.95 6.65 -38.6 6.75 -45.1 6.8 -46.1 6.55 -47.1 6.3 -47.65 6.5 -47.85 6.8 -47.85 7.15 -47.9 7.5 -48.25 7.9 -48.6 8.15 -49.1 8.25 -51.1 8.55 -51.5 8.8 -52.1 8.95 -52.95 9.2 -53.75 9.55 -54.6 9.7 -54.6 9.8 -58.6 9.8 -59.5 9.55 -59.95 9.15 -61.1 8.05 -62.25 6.9 -63.1 5.8 -63.25 5.4 -63.35 5.05 -63.5 4.65 -63.75 4.3 -63.8 3.9 -63.85 3.55 -63.85 3.15 -64.1 2.75 -64.25 2.4 -64.35 2.0 -64.35 1.65 -64.35 1.3 -64.35 0.9 -64.35 0.55 -64.35 0.15 -64.35 -0.25 -64.2 -0.6 -64.0 -1.0 -63.9 -1.35 -63.85 -1.75 -63.85 -2.1 -63.75 -2.5 -63.6 -2.85 -63.35 -3.2 -62.95 -3.55 -61.75 -4.35 M-56.85 -2.1 L-57.0 -1.75 -57.25 -1.35 -57.6 -1.0 -57.75 -0.6 -58.0 -0.25 -58.25 0.15 -58.6 0.55 -58.75 0.9 -59.0 1.3 -59.0 1.65 -58.85 2.05 -58.85 2.8 -58.85 3.9 -58.8 4.65 -58.75 5.05 -58.6 5.15 -56.5 5.3 -56.25 5.2 -55.45 4.8 -55.35 4.55 -54.85 3.4 -53.5 1.9 -52.75 1.15 -52.75 0.8 -52.75 0.4 -52.85 0.05 -52.75 -0.35 -52.75 -0.75 -52.75 -1.1 -52.9 -1.45 -53.25 -1.85 -53.6 -2.2 -54.0 -2.5 -54.25 -2.55 -56.25 -2.5 -56.85 -2.1" fill="#663333" fill-opacity="0.2" fill-rule="evenodd" stroke="none"/>
    <path d="M-44.85 -3.5 L-44.7 -3.75 -44.6 -3.8 -44.1 -4.0 -43.6 -3.85 -43.1 -3.85 -39.1 -3.75 -38.6 -3.65 -37.6 -3.45 -36.7 -3.25 -36.35 -3.0 -33.05 -2.85 -32.2 -2.6 -31.8 -2.25 -31.45 -1.85 -31.25 -1.45 -31.2 -1.1 -31.2 -0.75 -31.35 -0.35 -31.55 0.05 -31.95 0.3 -32.8 0.55 -33.2 0.8 -33.45 0.85 -34.05 0.95 -34.05 1.05 -42.1 1.05 -42.85 0.8 -43.2 0.4 -43.45 0.0 -43.6 -0.35 -43.6 -0.75 -43.7 -1.05 -44.1 -1.35 -44.7 -1.6 -44.95 -2.0 -45.15 -2.35 -45.1 -2.75 -45.05 -3.1 -44.85 -3.5" fill="#663333" fill-opacity="0.2" fill-rule="evenodd" stroke="none"/>
    <path d="M58.5 -4.3 L58.85 -4.35 59.25 -4.2 59.75 -4.05 59.95 -3.85 60.2 -3.65 60.75 -3.45 60.95 -3.3 61.25 -3.1 61.65 -2.9 62.5 -2.35 62.85 -2.15 63.0 -1.95 63.15 -1.85 63.5 -1.7 63.7 -1.5 63.85 -1.35 63.9 -1.15 63.9 -0.95 63.9 -0.6 63.9 -0.2 63.9 0.0 63.95 0.15 64.1 0.35 64.15 0.55 64.15 0.75 64.15 0.9 64.15 1.1 64.15 1.3 64.1 1.45 64.0 1.65 63.85 1.85 63.75 2.05 63.75 2.2 63.65 2.4 63.5 2.6 63.45 2.8 63.4 3.0 63.25 3.15 63.1 3.35 62.9 3.5 62.45 3.6 62.35 3.8 62.2 3.9 62.1 4.0 61.7 4.1 60.6 4.45 60.6 4.5 58.35 4.4 57.45 4.3 57.25 4.1 57.25 3.95 57.35 3.75 57.6 3.6 58.35 3.55 59.55 3.35 59.5 3.25 59.6 3.05 59.65 2.85 59.95 2.5 60.2 2.3 60.75 2.1 61.0 1.9 61.25 1.75 61.5 1.55 61.6 1.35 61.8 1.2 62.0 1.0 62.05 0.8 62.1 0.6 62.2 0.4 62.25 0.25 62.25 0.05 62.25 -0.15 62.25 -0.35 62.2 -0.5 62.0 -0.7 60.85 -1.45 60.5 -1.65 60.2 -1.85 59.85 -1.95 59.45 -2.1 59.2 -2.3 59.0 -2.45 58.85 -2.65 58.65 -2.85 58.35 -3.0 58.2 -3.2 58.15 -3.4 58.1 -3.6 58.15 -3.8 58.2 -3.95 58.35 -4.15 58.5 -4.3" fill="#ffffff" fill-opacity="0.2" fill-rule="evenodd" stroke="none"/>
    <path d="M58.95 -0.2 L59.1 -0.25 59.35 -0.35 59.85 -0.35 60.2 -0.25 61.45 0.05 61.65 0.25 61.8 0.45 61.9 0.6 61.9 0.8 61.85 1.0 61.85 1.15 61.85 1.35 61.85 1.55 61.85 1.75 61.8 1.9 61.65 2.1 61.35 2.2 61.35 2.25 59.6 2.25 59.35 2.15 59.1 2.1 58.75 2.0 58.6 1.8 58.45 1.6 58.45 1.4 58.45 1.25 58.5 1.05 58.5 0.85 58.5 0.65 58.5 0.5 58.6 0.3 58.7 0.1 58.85 -0.1 58.95 -0.2" fill="#ffffff" fill-opacity="0.2" fill-rule="evenodd" stroke="none"/>
    <path d="M-53.8 1.5 L-53.8 1.65 -53.75 1.85 -53.75 2.05 -53.75 2.25 -53.75 2.4 -53.85 2.6 -54.0 2.8 -54.15 3.0 -54.3 3.1 -54.35 3.15 -54.6 3.2 -54.6 3.25 -54.85 3.25 -55.15 3.1 -55.3 3.0 -55.6 2.9 -56.0 2.8 -56.15 2.6 -56.25 2.4 -56.3 2.25 -56.3 2.05 -56.3 1.85 -56.15 1.65 -56.05 1.5 -55.8 1.3 -55.6 1.1 -55.4 0.95 -55.15 0.75 -54.85 0.6 -54.6 0.6 -54.25 0.75 -54.05 0.95 -53.9 1.1 -53.8 1.3 -53.8 1.5" fill="#ffffff" fill-opacity="0.2" fill-rule="evenodd" stroke="none"/>
    <path d="M24.85 -3.85 Q33.65 -3.95 41.95 -3.65 L60.15 -3.05 60.45 -3.05 61.2 -2.65 61.3 -2.6 61.3 -2.55 61.35 -2.55 61.5 -2.55 Q63.05 -2.3 63.8 -1.7 65.25 0.0 65.45 1.5 65.25 2.9 63.85 4.15 L63.8 4.3 63.15 4.65 61.7 4.95 61.35 4.95 61.0 4.95 47.85 5.2 Q30.05 5.35 -0.4 6.4 L-3.65 6.55 -3.65 6.6 -36.4 7.0 -43.2 7.15 -48.35 7.15 -48.5 7.15 -49.4 7.0 -48.2 5.8 -43.2 5.45 -19.3 5.15 36.25 4.25 Q59.6 3.75 60.3 3.9 L61.25 3.95 Q62.95 3.4 63.3 2.0 L63.35 1.8 63.3 1.3 Q63.55 -1.65 57.5 -2.1 L55.5 -2.05 43.4 -2.5 23.7 -2.5 3.85 -2.65 -25.1 -3.15 -43.2 -3.35 -47.3 -3.45 -47.35 -3.55 -48.2 -5.05 -43.2 -5.0 -30.3 -4.9 -7.3 -4.4 Q5.9 -4.0 23.9 -3.9 L24.85 -3.85" fill="#333333" fill-rule="evenodd" stroke="none"/>
    <path d="M-59.8 -6.95 Q-62.15 -5.4 -63.0 -3.15 -63.75 -1.15 -63.65 1.05 -63.5 4.15 -61.25 6.2 -59.3 8.05 -56.7 8.65 -54.05 9.2 -51.5 8.25 -49.0 7.2 -47.6 5.05 L-46.55 3.75 -46.25 3.55 Q-45.9 4.3 -46.4 5.45 -46.9 6.6 -48.5 8.2 -50.1 9.75 -52.15 10.25 L-55.45 10.6 Q-58.1 10.7 -60.55 9.3 -63.05 7.85 -64.2 5.5 -65.35 3.15 -65.5 0.25 -65.65 -2.7 -63.4 -6.2 -61.15 -9.75 -55.55 -10.55 -51.3 -10.5 -48.2 -7.5 -46.15 -5.55 -45.25 -2.9 -44.6 -0.95 -44.75 1.05 L-45.45 0.7 -45.8 0.5 -46.2 0.05 Q-46.35 -1.7 -47.05 -3.05 L-47.15 -3.25 -47.5 -3.95 -47.6 -4.05 -49.0 -5.8 Q-51.15 -8.05 -54.25 -8.35 -57.3 -8.6 -59.8 -6.95" fill="#333333" fill-rule="evenodd" stroke="none"/>
    <path d="M-21.0 0.5 L-21.05 0.55 -21.25 0.7 -21.35 0.85 -21.6 0.85 -21.65 0.75 -43.85 1.1 -45.6 1.1 -45.65 1.05 -46.0 0.8 -46.15 0.5 -46.35 0.05 -46.4 -0.25 Q-33.9 -0.35 -21.5 0.35 L-21.3 0.3 -21.0 0.4 -21.0 0.5" fill="#333333" fill-rule="evenodd" stroke="none"/>
    <path d="M-44.4 -5.05 L-44.35 -5.25 -44.3 -5.4 -44.2 -5.55 -44.0 -5.65 -43.9 -5.7 -43.65 -5.75 -43.2 -5.65 -43.0 -5.5 -42.85 -5.35 Q-42.75 -4.55 -42.8 -3.75 L-42.8 -1.8 -42.8 -0.2 -42.85 -0.05 -42.9 0.1 -42.9 0.25 -42.95 0.4 -43.05 0.6 -43.3 0.75 -43.65 0.85 -44.0 0.75 -44.2 0.55 -44.3 0.4 -44.35 0.35 -44.45 0.45 -44.6 0.65 -44.8 0.8 -44.95 0.9 -45.2 0.9 -45.2 0.95 -45.5 0.85 -45.65 0.7 -45.8 0.5 -45.8 0.35 -45.85 0.2 -45.9 0.05 -46.0 -0.3 -46.0 -0.45 -46.0 -0.6 -46.0 -0.9 -46.0 -1.25 -46.05 -1.4 -46.1 -1.55 -46.15 -1.7 -46.2 -1.9 -46.2 -2.2 -46.2 -2.85 -46.2 -3.45 -46.2 -3.65 -46.15 -3.8 -46.05 -3.95 -45.9 -4.1 -45.55 -4.25 -45.45 -4.45 -45.35 -4.55 -45.25 -4.6 -45.0 -4.65 -44.6 -4.6 -44.5 -4.75 -44.4 -4.9 -44.4 -5.05" fill="#333333" fill-rule="evenodd" stroke="none"/>
    <path d="M-41.75 -5.05 L-41.65 -5.25 -41.35 -5.25 -41.3 -5.25 -41.05 -5.15 -40.9 -4.95 -40.9 -3.2 -40.9 -1.45 -41.0 -0.15 -41.1 -0.1 -41.3 -0.05 -41.3 0.0 -41.55 -0.15 -41.65 -0.3 -41.7 -1.9 -41.75 -3.65 -41.75 -4.9 -41.75 -5.05" fill="#333333" fill-rule="evenodd" stroke="none"/>
    <path d="M-39.45 -5.0 L-39.35 -4.85 -39.3 -4.4 -39.25 -3.9 -39.25 -3.4 -39.3 -3.25 -39.4 -3.1 -39.45 -2.95 -39.5 -2.6 -39.5 -2.3 -39.55 -2.0 -39.55 -1.8 -39.65 -1.7 -39.8 -1.6 -39.9 -1.6 -40.1 -1.75 -40.1 -2.1 -40.15 -2.55 -40.2 -3.05 -40.15 -3.2 -40.1 -3.35 -40.05 -3.55 -40.0 -3.85 -39.9 -4.3 -39.85 -4.8 -39.8 -4.9 -39.45 -5.0" fill="#333333" fill-rule="evenodd" stroke="none"/>
    <path d="M-4.45 -2.1 L-4.6 -1.3 -4.7 -1.2 -4.75 -1.15 -4.9 -1.15 -5.0 -1.15 -5.15 -1.3 -5.2 -1.45 -5.3 -2.1 -5.35 -2.9 -5.3 -3.55 -5.4 -3.7 -5.55 -4.0 -5.7 -4.35 -5.65 -4.5 -5.55 -4.65 -5.4 -4.8 -5.1 -4.8 -4.85 -4.45 -4.7 -4.15 -4.5 -3.85 -4.45 -3.05 -4.45 -2.1" fill="#333333" fill-rule="evenodd" stroke="none"/>
    <path d="M-7.95 -4.85 L-7.9 -4.85 -7.6 -4.8 -7.35 -4.7 -7.2 -4.55 -7.05 -4.4 -6.75 -4.05 -6.7 -3.9 -6.6 -3.75 -6.6 -3.1 -6.6 -2.3 -6.6 -1.65 -6.65 -1.5 -6.7 -1.35 -6.85 -1.25 -7.0 -1.2 -7.05 -1.2 -7.3 -1.3 -7.4 -1.45 -7.45 -1.95 -7.45 -2.55 -7.45 -3.2 -7.45 -3.35 -7.5 -3.5 -7.7 -3.85 -7.95 -4.15 -8.05 -4.35 -8.05 -4.5 -8.15 -4.65 -8.25 -4.8 -8.1 -4.9 -7.95 -4.85" fill="#333333" fill-rule="evenodd" stroke="none"/>
    <path d="M-25.3 4.25 L-25.3 4.1 -25.2 3.95 -25.05 3.8 -24.8 3.8 -24.65 3.95 -24.5 4.1 -24.4 4.25 -24.3 4.4 -24.3 4.55 -24.3 4.75 -24.2 4.9 -24.1 5.05 -24.1 5.2 -24.1 5.35 -24.1 5.55 -24.2 5.7 -24.45 5.75 -24.45 5.8 -24.75 5.7 -24.8 5.55 -24.85 5.35 -24.9 5.2 -25.0 5.05 -25.15 4.75 -25.3 4.4 -25.3 4.25" fill="#333333" fill-rule="evenodd" stroke="none"/>
    <path d="M41.1 2.5 L41.35 2.4 41.65 2.5 41.7 3.0 41.7 3.6 41.7 4.25 41.6 4.35 41.55 4.4 41.35 4.4 41.25 4.4 41.1 4.25 41.05 3.75 41.05 3.15 41.0 2.65 41.1 2.5" fill="#333333" fill-rule="evenodd" stroke="none"/>
    <path d="M40.3 4.25 L40.2 4.4 39.95 4.5 39.65 4.4 39.55 4.25 39.5 4.1 39.4 3.95 39.35 3.8 39.3 3.6 39.3 3.45 39.3 3.3 39.35 3.15 39.4 3.0 39.55 2.8 39.85 2.8 40.0 3.0 40.05 3.15 40.05 3.3 40.05 3.45 40.1 3.6 40.2 3.8 40.25 3.95 40.3 4.1 40.3 4.25" fill="#333333" fill-rule="evenodd" stroke="none"/>
    <path d="M-55.25 -3.5 Q-53.6 -3.55 -52.4 -2.45 -51.2 -1.4 -51.15 0.05 -51.1 1.55 -52.35 2.95 -53.6 4.35 -55.2 4.35 -56.8 4.35 -58.0 3.15 -59.15 2.0 -59.2 0.45 -59.3 -1.1 -58.1 -2.25 -56.95 -3.45 -55.25 -3.5 M-53.15 -1.7 Q-54.0 -2.55 -55.2 -2.55 -56.4 -2.55 -57.3 -1.7 -58.15 -0.8 -58.2 0.45 -58.3 1.7 -57.3 2.6 -56.35 3.45 -55.0 3.6 -53.7 3.65 -52.95 2.65 -52.25 1.6 -52.25 0.4 -52.25 -0.8 -53.15 -1.7" fill="#333333" fill-rule="evenodd" stroke="none"/>
    <path d="M-52.85 -8.15 L-52.8 -8.35 -52.7 -8.45 -52.45 -8.6 -52.2 -8.5 -52.1 -8.35 -52.05 -8.15 -52.05 -8.0 -52.05 -7.85 -52.05 -7.7 -52.05 -7.55 -52.15 -7.35 -52.2 -7.2 -52.25 -7.05 -52.25 -6.9 -52.4 -6.55 -52.6 -6.25 -52.7 -5.95 -52.65 -5.75 -52.65 -5.6 -52.7 -5.5 -52.75 -5.45 -52.9 -5.45 -53.0 -5.45 -53.15 -5.6 -53.25 -5.75 -53.35 -5.95 -53.4 -6.1 -53.35 -6.25 -53.3 -6.4 -53.25 -6.55 -53.2 -6.75 -53.1 -6.9 -53.1 -7.05 -53.1 -7.2 -53.1 -7.35 -53.05 -7.5 -52.95 -7.7 -52.9 -7.85 -52.9 -8.0 -52.85 -8.15" fill="#333333" fill-rule="evenodd" stroke="none"/>
    <path d="M-54.1 -9.85 L-54.1 -9.25 -54.15 -8.45 -54.15 -8.25 -54.1 -8.1 -54.05 -7.95 -54.0 -7.8 -53.95 -7.65 -54.0 -7.5 -54.1 -7.3 -54.35 -7.25 -54.4 -7.2 -54.65 -7.3 -54.75 -7.45 -54.85 -7.65 -54.95 -7.8 -55.0 -7.95 -55.05 -8.45 -55.1 -9.05 -55.1 -9.85 -55.1 -10.05 -55.05 -10.2 -54.95 -10.35 -54.85 -10.5 -54.6 -10.6 -54.3 -10.5 -54.15 -10.35 -54.1 -9.85" fill="#333333" fill-rule="evenodd" stroke="none"/>
    <path d="M-57.2 5.5 L-57.4 5.8 -57.65 6.1 -57.9 6.45 -57.95 6.6 -58.0 6.75 -58.05 6.85 -58.05 6.9 -58.15 6.9 -58.2 6.9 -58.2 6.75 -58.2 6.6 -58.2 6.45 -58.15 6.3 -57.7 5.6 -57.3 5.15 -56.95 4.9 -56.8 5.0 -56.8 5.15 -56.85 5.3 -57.2 5.5" fill="#333333" fill-rule="evenodd" stroke="none"/>
    <path d="M-58.3 3.55 L-58.2 3.7 -58.2 3.9 -58.15 4.05 -58.15 4.2 -58.75 5.05 -59.7 5.8 -60.05 6.3 -60.15 6.35 -60.35 6.4 -60.35 6.45 -60.6 6.3 -60.65 6.15 -60.75 6.0 -60.75 5.85 -60.75 5.7 -60.2 5.0 -59.6 4.4 -59.15 3.95 -59.05 3.75 -59.0 3.6 -58.9 3.45 -58.85 3.35 -58.65 3.3 -58.4 3.4 -58.3 3.55" fill="#333333" fill-rule="evenodd" stroke="none"/>
    <path d="M-59.45 2.6 L-59.45 2.75 -59.5 2.9 -59.55 3.1 -59.55 3.25 -59.95 3.55 -60.4 3.9 -60.6 4.05 -61.05 4.5 -61.4 4.85 -61.8 5.15 -62.0 5.3 -62.6 5.55 -62.75 5.65 -62.9 5.7 -63.0 5.7 -63.2 5.55 Q-62.95 4.85 -62.15 4.35 L-60.8 3.4 -59.95 2.5 -59.55 2.45 -59.45 2.6" fill="#333333" fill-rule="evenodd" stroke="none"/>
    <path d="M-60.45 0.4 L-60.25 0.4 -60.35 0.55 -60.65 0.75 -60.8 0.9 -60.95 1.05 -61.05 1.15 -61.2 1.15 -61.3 1.15 -61.45 1.0 -61.4 0.85 -61.3 0.7 -61.1 0.5 -60.85 0.5 -60.45 0.4" fill="#333333" fill-rule="evenodd" stroke="none"/>
    <path d="M-54.5 -1.75 L-54.35 -1.6 -54.15 -1.45 -54.15 -1.3 -54.1 -1.15 -54.1 -0.95 -54.05 -0.65 -54.05 -0.35 -54.1 -0.2 -54.3 0.15 -54.75 0.6 -54.9 0.75 -55.0 0.75 -55.25 0.8 -55.25 0.85 -56.3 0.85 -56.55 0.75 -56.8 0.55 -56.9 0.4 -57.0 0.25 -57.05 0.1 -57.05 -0.05 -57.05 -0.2 -57.05 -0.4 -57.05 -0.7 -57.0 -0.85 -56.95 -1.0 -56.85 -1.2 -56.8 -1.35 -56.7 -1.5 -56.5 -1.65 -56.4 -1.75 -56.3 -1.8 -56.1 -1.9 -54.8 -1.9 -54.5 -1.75" fill="#333333" fill-rule="evenodd" stroke="none"/>
  </g>
</svg>
