<?xml version="1.0" encoding="UTF-8" standalone="no"?>
<svg xmlns:xlink="http://www.w3.org/1999/xlink" height="33.85px" width="60.0px" xmlns="http://www.w3.org/2000/svg">
  <g transform="matrix(1.0, 0.0, 0.0, 1.0, 1.0, 1.0)">
    <path d="M49.0 23.85 L49.0 22.85 45.05 22.1 41.2 21.05 37.55 19.6 34.95 18.35 32.95 17.15 29.95 14.6 Q28.55 13.3 27.55 11.6 L26.25 9.0 Q25.95 8.1 26.0 6.0 L22.2 7.45 18.5 8.0 15.4 7.55 10.7 6.25 Q8.9 5.45 7.25 4.45 L4.85 2.85 Q4.1 2.25 3.0 0.0 M47.0 29.85 L47.0 31.85 50.0 31.85 55.0 31.85 57.85 29.3 58.0 27.85 56.65 24.95 55.0 22.85 52.0 22.85 49.0 22.85 M47.0 28.85 L43.25 27.6 39.55 26.4 35.8 25.3 32.1 24.2 28.35 23.25 24.45 22.45 21.5 21.95 20.0 21.85 17.75 22.45 15.0 24.85 14.5 24.0 14.0 23.85 14.0 20.8 Q14.0 19.8 13.25 17.75 L11.4 15.35 Q10.8 14.6 8.0 12.85 L5.0 12.85 0.0 12.85" fill="none" stroke="#ffffff" stroke-linecap="round" stroke-linejoin="round" stroke-width="2.0"/>
  </g>
</svg>
