<?xml version="1.0" encoding="UTF-8" standalone="no"?>
<svg xmlns:xlink="http://www.w3.org/1999/xlink" height="13.3px" width="111.0px" xmlns="http://www.w3.org/2000/svg">
  <g transform="matrix(1.0, 0.0, 0.0, 1.0, 1.0, 1.0)">
    <path d="M109.0 0.3 L104.9 0.4 100.8 0.45 96.75 0.5 92.75 0.5 88.7 0.45 85.6 0.4 84.05 0.4 80.1 0.3 76.2 0.2 72.3 0.2 68.4 0.15 64.5 0.1 60.6 0.05 56.7 0.0 53.85 0.0 52.8 0.0 48.85 0.0 44.95 0.0 41.05 0.05 37.15 0.15 33.25 0.25 29.35 0.4 25.45 0.6 21.55 0.85 17.65 1.15 13.75 1.55 9.85 2.1 5.9 2.8 2.95 3.45 0.0 4.3 1.0 6.3 5.2 6.35 9.35 6.45 13.5 6.55 17.65 6.7 21.7 6.9 25.75 7.1 29.85 7.3 33.9 7.45 37.95 7.65 41.9 7.8 44.9 7.95 48.45 8.15 52.55 8.35 56.65 8.55 60.75 8.75 64.85 8.95 68.9 9.15 73.0 9.35 77.05 9.55 81.1 9.75 85.15 9.95 89.2 10.2 93.25 10.4 97.3 10.6 101.35 10.85 104.35 11.05 109.0 11.3" fill="none" stroke="#ffffff" stroke-linecap="round" stroke-linejoin="round" stroke-width="2.0"/>
  </g>
</svg>
