<?xml version="1.0" encoding="UTF-8" standalone="no"?>
<svg xmlns:xlink="http://www.w3.org/1999/xlink" height="28.25px" width="24.0px" xmlns="http://www.w3.org/2000/svg">
  <g transform="matrix(1.0, 0.0, 0.0, 1.0, 1.0, 0.85)">
    <path d="M21.3 16.45 L20.0 20.55 17.4 23.45 15.1 25.3 Q14.25 25.85 10.5 26.4 L6.65 25.65 Q4.8 25.15 3.9 24.75 L2.05 23.4 0.8 20.55 Q0.4 19.65 0.0 15.55 0.15 13.55 0.55 11.6 L1.25 8.65 Q1.6 7.7 3.45 4.75 L6.5 2.3 9.05 0.85 11.0 0.2 14.0 0.15 Q15.0 0.15 18.55 1.75 19.8 3.25 20.65 5.0 L21.75 7.8 22.0 9.55 21.65 13.45 21.3 16.45 Z" fill="none" stroke="#ffffff" stroke-linecap="round" stroke-linejoin="round" stroke-width="2.0"/>
  </g>
</svg>
