<?xml version="1.0" encoding="UTF-8" standalone="no"?>
<svg xmlns:xlink="http://www.w3.org/1999/xlink" height="572.0px" width="16.75px" xmlns="http://www.w3.org/2000/svg">
  <g transform="matrix(1.0, 0.0, 0.0, 1.0, 8.6, 297.45)">
    <path d="M7.35 -290.45 L-5.85 -285.6 -8.0 -291.6 5.2 -296.45 7.35 -290.45" fill="#a28c88" fill-rule="evenodd" stroke="none"/>
    <path d="M6.05 -295.6 L6.2 -295.35 6.25 -295.15 6.3 -294.75 6.25 -294.5 6.15 -294.3 6.05 -294.2 5.9 -294.1 5.75 -294.05 5.6 -294.0 5.5 -293.95 5.35 -293.85 5.35 -293.75 5.55 -293.25 5.6 -292.8 5.5 -292.6 5.4 -292.4 5.3 -292.3 5.15 -292.2 5.05 -292.1 3.35 -291.45 1.25 -290.75 -0.35 -290.2 -0.5 -290.2 -0.65 -290.2 -0.8 -290.2 -0.95 -290.1 -1.2 -290.0 -1.65 -289.85 -2.15 -289.85 -2.25 -289.8 -2.4 -289.75 -2.55 -289.75 -2.7 -289.7 -2.85 -289.65 -3.0 -289.65 -3.15 -289.65 -3.3 -289.65 -3.5 -289.65 -3.65 -289.7 -3.85 -289.7 -4.0 -289.7 -4.15 -289.7 -4.3 -289.75 -4.45 -289.75 -4.85 -289.9 -5.05 -290.0 -5.25 -290.05 -5.4 -290.15 -5.6 -290.3 -5.85 -290.8 -6.35 -291.9 -6.35 -291.85 -6.4 -292.25 -6.35 -292.5 -6.2 -292.6 -6.1 -292.75 -5.85 -292.9 -5.3 -293.1 -4.7 -293.3 -4.4 -293.4 -3.45 -293.8 -2.2 -294.25 -1.0 -294.55 -0.7 -294.6 -0.1 -294.65 0.55 -294.65 0.7 -294.65 0.85 -294.7 1.0 -294.75 1.1 -294.8 1.25 -294.85 1.4 -294.85 1.55 -294.95 1.7 -295.05 1.8 -295.15 1.9 -295.3 2.15 -295.45 2.75 -295.65 3.3 -295.8 3.6 -295.95 3.75 -295.95 3.9 -295.95 4.05 -295.95 4.2 -295.95 4.35 -296.0 4.5 -296.05 4.65 -296.1 4.8 -296.1 4.95 -296.1 5.15 -296.05 5.5 -295.95 5.7 -295.9 5.9 -295.7 6.05 -295.6" fill="#333333" fill-opacity="0.2" fill-rule="evenodd" stroke="none"/>
    <path d="M5.2 -296.0 Q6.55 -293.45 6.95 -290.6 L6.85 -290.45 6.75 -290.35 6.6 -290.35 6.45 -290.35 6.3 -290.35 Q5.3 -292.3 4.45 -294.4 L4.3 -294.55 4.2 -294.75 4.05 -295.0 4.0 -295.25 4.0 -295.55 4.1 -295.75 4.2 -295.85 4.3 -296.0 4.45 -296.05 4.6 -296.1 4.75 -296.1 4.9 -296.1 5.1 -296.05 5.2 -296.0" fill="#333333" fill-opacity="0.2" fill-rule="evenodd" stroke="none"/>
    <path d="M6.45 -295.5 L6.5 -295.1 6.35 -294.65 6.15 -294.2 5.75 -293.2 5.6 -292.8 Q5.3 -292.55 4.9 -292.45 L3.25 -291.8 1.35 -291.3 0.85 -291.25 0.7 -291.3 0.55 -291.3 0.4 -291.3 0.2 -291.3 0.05 -291.3 -0.3 -291.45 -0.7 -291.6 -1.4 -292.0 -1.45 -292.05 -1.6 -292.3 -1.6 -292.25 -1.85 -292.9 -1.9 -293.0 -1.9 -293.4 -1.9 -293.8 -1.85 -294.05 -1.75 -294.2 -1.65 -294.35 -1.5 -294.45 -1.4 -294.55 -1.25 -294.65 -0.85 -294.8 -0.15 -295.1 1.0 -295.5 1.7 -295.75 1.85 -295.8 2.15 -295.8 2.3 -295.85 2.6 -295.9 3.05 -296.0 3.2 -296.0 3.35 -295.95 3.55 -295.95 3.7 -295.9 3.9 -295.8 4.05 -295.85 4.35 -295.95 4.5 -296.0 4.9 -296.15 5.45 -296.4 5.6 -296.4 5.8 -296.35 5.95 -296.3 6.15 -296.15 6.4 -295.9 6.45 -295.5" fill="#333333" fill-opacity="0.2" fill-rule="evenodd" stroke="none"/>
    <path d="M-6.5 -291.8 L-6.35 -291.6 -6.3 -291.35 -6.2 -291.05 -6.1 -290.85 -5.95 -290.25 -5.95 -289.95 -5.8 -289.4 -5.8 -289.2 -5.5 -288.5 -5.25 -287.75 -5.1 -287.4 -5.1 -287.2 -5.05 -287.0 -5.05 -286.75 -5.0 -286.55 -4.95 -286.2 -5.05 -286.05 -5.2 -286.05 -5.4 -286.15 -5.6 -286.35 -5.75 -286.75 -5.85 -286.9 -6.0 -287.3 -6.1 -287.45 -6.6 -288.75 -6.65 -288.95 -6.9 -289.8 -7.25 -290.85 -7.35 -291.1 -7.4 -291.45 -7.3 -291.7 -7.2 -291.85 -7.1 -291.95 -6.95 -291.95 -6.75 -291.95 -6.6 -291.9 -6.5 -291.8" fill="#ffff99" fill-opacity="0.2" fill-rule="evenodd" stroke="none"/>
    <path d="M7.1 -290.95 L7.0 -290.8 Q4.7 -289.8 2.25 -289.0 L-2.6 -287.35 -5.5 -286.5 -5.6 -286.6 -5.7 -286.75 -5.75 -286.75 -5.7 -287.0 -5.6 -287.1 -5.45 -287.2 -5.35 -287.3 -5.2 -287.4 -1.35 -289.05 2.7 -290.6 5.0 -291.35 5.4 -291.55 5.95 -291.75 6.55 -291.9 6.7 -291.9 6.9 -291.8 7.05 -291.7 7.2 -291.5 7.2 -291.1 7.1 -290.95" fill="#ffff99" fill-opacity="0.2" fill-rule="evenodd" stroke="none"/>
    <path d="M-0.75 -289.45 L-0.6 -288.8 -0.55 -288.3 -0.65 -288.1 -0.75 -287.95 -0.9 -287.9 -1.0 -287.8 -1.15 -287.75 -1.3 -287.7 -1.45 -287.7 -1.6 -287.7 -1.8 -287.75 -1.9 -287.7 -2.05 -287.65 -2.25 -287.7 -2.4 -287.75 -2.6 -287.75 -2.9 -287.8 -3.1 -287.9 -3.25 -288.0 -3.35 -288.25 -3.4 -288.2 -3.4 -288.5 -3.45 -288.8 -3.35 -289.0 -3.25 -289.1 -3.1 -289.25 -3.0 -289.25 -2.8 -289.25 -2.65 -289.3 -2.55 -289.4 -2.45 -289.55 -2.3 -289.6 -2.15 -289.65 -2.05 -289.75 -1.9 -289.75 -1.75 -289.8 -1.6 -289.85 -1.45 -289.85 -1.25 -289.85 -1.1 -289.8 -0.95 -289.75 -0.75 -289.45" fill="#ffff99" fill-opacity="0.2" fill-rule="evenodd" stroke="none"/>
    <path d="M-6.2 -285.6 L-6.25 -285.75 -6.3 -285.85 -6.15 -286.1 -6.05 -286.2 -5.9 -286.35 -5.75 -286.55 -5.6 -286.65 -5.45 -286.75 -5.25 -286.75 -5.0 -286.7 -0.35 -288.55 4.6 -290.35 7.45 -291.25 7.7 -291.25 7.95 -291.25 8.15 -290.95 8.15 -290.65 8.0 -290.35 3.3 -288.6 -1.6 -286.8 -4.65 -285.75 -4.85 -285.75 -5.1 -285.8 -5.25 -285.75 -5.4 -285.6 -5.55 -285.5 -5.75 -285.45 -5.95 -285.45 -6.1 -285.5 -6.2 -285.6" fill="#152029" fill-rule="evenodd" stroke="none"/>
    <path d="M-5.4 -285.85 L-5.45 -285.6 -5.65 -285.55 -5.85 -285.6 -6.05 -285.8 -6.25 -285.95 -8.15 -290.9 -8.3 -291.35 -8.35 -291.7 -8.15 -291.9 -8.0 -292.0 -7.8 -292.05 -7.65 -292.05 -7.5 -292.05 -7.4 -291.95 -7.25 -291.7 -5.4 -286.25 -5.4 -285.85" fill="#333333" fill-rule="evenodd" stroke="none"/>
    <path d="M-4.55 -292.15 L-7.65 -291.25 -7.85 -291.3 -8.05 -291.35 -8.25 -291.6 -8.3 -291.6 -8.25 -291.95 -8.15 -292.05 -8.0 -292.15 -7.8 -292.25 -7.7 -292.45 -3.05 -294.35 1.8 -296.05 4.65 -297.1 4.8 -297.1 5.05 -297.05 5.25 -296.95 5.5 -296.6 5.55 -296.2 5.45 -295.95 5.3 -295.75 0.45 -294.0 -4.55 -292.15" fill="#152029" fill-rule="evenodd" stroke="none"/>
    <path d="M6.05 -292.05 L4.85 -295.35 Q4.55 -296.1 4.6 -296.75 L4.7 -297.15 4.8 -297.3 5.0 -297.35 5.15 -297.45 5.4 -297.4 5.65 -297.15 5.85 -296.9 Q7.35 -294.3 7.85 -291.5 L7.7 -291.2 7.55 -291.0 7.4 -290.8 7.3 -290.8 7.05 -290.9 6.8 -290.95 6.65 -291.05 6.55 -291.15 6.4 -291.35 6.1 -292.05 6.05 -292.05" fill="#152029" fill-rule="evenodd" stroke="none"/>
    <path d="M3.5 -294.45 L3.45 -294.15 3.45 -294.05 3.5 -293.9 3.45 -293.85 3.4 -293.8 3.4 -293.7 3.35 -293.7 3.3 -293.65 3.25 -293.75 3.3 -293.8 3.35 -293.85 3.35 -294.5 3.3 -295.05 3.35 -295.3 3.35 -295.4 3.3 -295.5 3.3 -295.6 3.35 -295.65 3.4 -295.7 3.45 -295.7 3.45 -295.9 3.5 -295.95 3.5 -296.0 3.6 -296.0 3.65 -295.95 3.7 -295.8 3.7 -295.7 3.65 -295.6 3.65 -295.55 3.6 -295.5 3.6 -295.45 3.6 -295.35 3.65 -295.25 3.55 -294.75 3.5 -294.45" fill="#152029" fill-rule="evenodd" stroke="none"/>
    <path d="M2.9 -293.25 L2.85 -293.3 2.8 -293.25 2.75 -293.35 2.7 -293.7 2.75 -294.1 2.7 -294.35 2.75 -294.4 2.8 -294.45 2.85 -294.6 2.95 -294.65 3.0 -294.6 3.1 -294.55 3.1 -294.45 3.1 -294.35 3.05 -294.35 3.1 -294.3 3.05 -294.05 3.0 -293.7 3.0 -293.4 3.0 -293.3 2.9 -293.25" fill="#152029" fill-rule="evenodd" stroke="none"/>
    <path d="M4.7 -293.6 L4.95 -293.9 5.15 -294.1 5.2 -294.25 5.25 -294.3 5.25 -294.35 5.35 -294.45 5.35 -294.5 5.55 -294.55 5.65 -294.55 5.6 -294.45 5.55 -294.45 5.55 -294.4 5.6 -294.35 5.6 -294.25 5.55 -294.15 5.55 -294.1 5.5 -294.05 5.45 -293.95 5.45 -293.9 5.4 -293.9 5.4 -293.8 5.35 -293.8 5.3 -293.75 5.25 -293.7 5.25 -293.65 5.2 -293.65 5.15 -293.55 5.1 -293.55 5.0 -293.45 4.95 -293.45 4.95 -293.4 4.8 -293.35 4.75 -293.25 4.7 -293.2 4.7 -293.15 4.65 -293.15 4.55 -293.1 4.55 -293.2 4.7 -293.6" fill="#152029" fill-rule="evenodd" stroke="none"/>
    <path d="M4.15 -294.2 L4.25 -294.35 4.3 -294.45 4.4 -294.45 4.4 -294.35 4.45 -294.25 4.4 -294.15 4.4 -294.1 4.35 -294.0 4.3 -293.95 4.25 -293.9 4.2 -293.95 4.15 -293.95 4.1 -294.05 4.1 -294.1 4.15 -294.2" fill="#333333" fill-rule="evenodd" stroke="none"/>
    <path d="M7.1 269.55 L-6.1 274.4 -8.25 268.4 4.95 263.55 7.1 269.55" fill="#a28c88" fill-rule="evenodd" stroke="none"/>
    <path d="M5.8 264.4 L5.95 264.65 6.0 264.85 6.05 265.25 6.0 265.5 5.9 265.7 5.8 265.8 5.65 265.9 5.5 265.95 5.35 266.0 5.25 266.05 5.1 266.15 5.1 266.25 5.3 266.75 5.35 267.2 5.25 267.4 5.15 267.6 5.05 267.7 4.9 267.8 4.8 267.9 3.1 268.55 1.0 269.25 -0.6 269.8 -0.75 269.8 -0.9 269.8 -1.05 269.8 -1.2 269.9 -1.45 270.0 -1.9 270.15 -2.4 270.15 -2.5 270.2 -2.65 270.25 -2.8 270.25 -2.95 270.3 -3.1 270.35 -3.25 270.35 -3.4 270.35 -3.55 270.35 -3.75 270.35 -3.9 270.3 -4.1 270.3 -4.25 270.3 -4.4 270.3 -4.55 270.25 -4.7 270.25 -5.1 270.1 -5.3 270.0 -5.5 269.95 -5.65 269.85 -5.85 269.7 -6.1 269.2 -6.6 268.1 -6.6 268.15 -6.65 267.75 -6.6 267.5 -6.45 267.4 -6.35 267.25 -6.1 267.1 -5.55 266.9 -4.95 266.7 -4.65 266.6 -3.7 266.2 -2.45 265.75 -1.25 265.45 -0.95 265.4 -0.35 265.35 0.3 265.35 0.45 265.35 0.6 265.3 0.75 265.25 0.85 265.2 1.0 265.15 1.15 265.15 1.3 265.05 1.45 264.95 1.55 264.85 1.65 264.7 1.9 264.55 2.5 264.35 3.05 264.2 3.35 264.05 3.5 264.05 3.65 264.05 3.8 264.05 3.95 264.05 4.1 264.0 4.25 263.95 4.4 263.9 4.55 263.9 4.7 263.9 4.9 263.95 5.25 264.05 5.45 264.1 5.65 264.3 5.8 264.4" fill="#333333" fill-opacity="0.2" fill-rule="evenodd" stroke="none"/>
    <path d="M4.95 264.0 Q6.3 266.55 6.7 269.4 L6.6 269.55 6.5 269.65 6.35 269.65 6.2 269.65 6.05 269.65 4.2 265.6 4.05 265.45 3.95 265.25 3.8 265.0 3.75 264.75 3.75 264.45 3.85 264.25 3.95 264.15 4.05 264.0 4.2 263.95 4.35 263.9 4.5 263.9 4.65 263.9 4.85 263.95 4.95 264.0" fill="#333333" fill-opacity="0.2" fill-rule="evenodd" stroke="none"/>
    <path d="M6.2 264.5 L6.25 264.9 6.1 265.35 5.9 265.8 5.5 266.8 5.35 267.2 4.65 267.55 3.0 268.2 1.1 268.7 0.6 268.75 0.45 268.7 0.3 268.7 0.15 268.7 -0.05 268.7 -0.2 268.7 -0.55 268.55 -0.95 268.4 -1.65 268.0 -1.7 267.95 -1.85 267.7 -1.85 267.75 -2.1 267.1 -2.15 267.0 -2.15 266.6 -2.15 266.2 -2.1 265.95 -2.0 265.8 -1.9 265.65 -1.75 265.55 -1.65 265.45 -1.5 265.35 -1.1 265.2 Q-0.75 265.0 -0.4 264.9 L0.75 264.5 1.45 264.25 1.6 264.2 1.9 264.2 2.05 264.15 2.35 264.1 2.8 264.0 2.95 264.0 3.1 264.05 3.3 264.05 3.45 264.1 3.65 264.2 3.8 264.15 4.1 264.05 4.25 264.0 4.65 263.85 5.2 263.6 5.35 263.6 5.55 263.65 5.7 263.7 5.9 263.85 6.15 264.1 6.2 264.5" fill="#333333" fill-opacity="0.2" fill-rule="evenodd" stroke="none"/>
    <path d="M-6.75 268.2 L-6.6 268.4 -6.55 268.65 -6.45 268.95 -6.35 269.15 -6.2 269.75 -6.2 270.05 -6.05 270.6 -6.05 270.8 -5.75 271.5 -5.5 272.25 -5.35 272.6 -5.35 272.8 -5.3 273.0 -5.3 273.25 -5.25 273.45 -5.2 273.8 -5.3 273.95 -5.45 273.95 -5.65 273.85 -5.85 273.65 -6.0 273.25 -6.1 273.1 -6.25 272.7 -6.35 272.55 -6.85 271.25 -6.9 271.05 -7.15 270.2 -7.5 269.15 -7.6 268.9 -7.65 268.55 -7.55 268.3 -7.45 268.15 -7.35 268.05 -7.2 268.05 -7.0 268.05 -6.85 268.1 -6.75 268.2" fill="#ffff99" fill-opacity="0.2" fill-rule="evenodd" stroke="none"/>
    <path d="M6.85 269.05 L6.75 269.2 Q4.45 270.2 2.0 271.0 L-2.85 272.65 -5.75 273.5 -5.85 273.4 -5.95 273.25 -6.0 273.25 -5.95 273.0 -5.85 272.9 -5.7 272.8 -5.6 272.7 -5.45 272.6 -1.6 270.95 2.45 269.4 Q3.6 268.95 4.75 268.65 L5.15 268.45 5.7 268.25 6.3 268.1 6.45 268.1 6.65 268.2 6.8 268.3 6.95 268.5 6.95 268.9 6.85 269.05" fill="#ffff99" fill-opacity="0.2" fill-rule="evenodd" stroke="none"/>
    <path d="M-1.0 270.55 Q-0.85 270.85 -0.85 271.2 L-0.8 271.7 -0.9 271.9 -1.0 272.05 -1.15 272.1 -1.25 272.2 -1.4 272.25 -1.55 272.3 -1.7 272.3 -1.85 272.3 -2.05 272.25 -2.15 272.3 -2.3 272.35 -2.5 272.3 -2.65 272.25 -2.85 272.25 -3.15 272.2 -3.35 272.1 -3.5 272.0 -3.6 271.75 -3.65 271.8 -3.65 271.5 -3.7 271.2 -3.6 271.0 -3.5 270.9 -3.35 270.75 -3.25 270.75 -3.05 270.75 -2.9 270.7 -2.8 270.6 -2.7 270.45 -2.55 270.4 -2.4 270.35 -2.3 270.25 -2.15 270.25 -2.0 270.2 -1.85 270.15 -1.7 270.15 -1.5 270.15 -1.35 270.2 -1.2 270.25 -1.0 270.55" fill="#ffff99" fill-opacity="0.2" fill-rule="evenodd" stroke="none"/>
    <path d="M-6.45 274.4 L-6.5 274.25 -6.55 274.15 -6.4 273.9 -6.3 273.8 -6.15 273.65 -6.0 273.45 -5.85 273.35 -5.7 273.25 -5.5 273.25 -5.25 273.3 -0.6 271.45 Q1.9 270.45 4.35 269.65 L7.2 268.75 7.45 268.75 7.7 268.75 7.9 269.05 7.9 269.35 7.75 269.65 3.05 271.4 -1.85 273.2 -4.9 274.25 -5.1 274.25 -5.35 274.2 -5.5 274.25 -5.65 274.4 -5.8 274.5 -6.0 274.55 -6.2 274.55 -6.35 274.5 -6.45 274.4" fill="#152029" fill-rule="evenodd" stroke="none"/>
    <path d="M-5.65 274.15 L-5.7 274.4 -5.9 274.45 -6.1 274.4 -6.3 274.2 -6.5 274.05 -8.4 269.1 -8.55 268.65 -8.6 268.3 -8.4 268.1 -8.25 268.0 -8.05 267.95 -7.9 267.95 -7.75 267.95 -7.65 268.05 -7.5 268.3 -5.65 273.75 -5.65 274.15" fill="#333333" fill-rule="evenodd" stroke="none"/>
    <path d="M-4.8 267.85 L-7.9 268.75 -8.1 268.7 -8.3 268.65 -8.5 268.4 -8.55 268.4 -8.5 268.05 -8.4 267.95 -8.25 267.85 -8.05 267.75 -7.95 267.55 -3.3 265.65 Q-0.95 264.75 1.55 263.95 L4.4 262.9 4.55 262.9 4.8 262.95 5.0 263.05 5.25 263.4 5.3 263.8 5.2 264.05 5.05 264.25 0.2 266.0 -4.8 267.85" fill="#152029" fill-rule="evenodd" stroke="none"/>
    <path d="M5.8 267.95 L4.6 264.65 Q4.3 263.9 4.35 263.25 L4.45 262.85 4.55 262.7 4.75 262.65 4.9 262.55 5.15 262.6 5.4 262.85 5.6 263.1 Q7.1 265.7 7.6 268.5 L7.45 268.8 7.3 269.0 7.15 269.2 7.05 269.2 6.8 269.1 6.55 269.05 6.4 268.95 6.3 268.85 6.15 268.65 5.85 267.95 5.8 267.95" fill="#152029" fill-rule="evenodd" stroke="none"/>
    <path d="M3.25 265.55 L3.2 265.85 3.2 265.95 3.25 266.1 3.2 266.15 3.15 266.2 3.15 266.3 3.1 266.3 3.05 266.35 3.0 266.25 3.05 266.2 3.1 266.15 3.1 265.5 3.05 264.95 3.1 264.7 3.1 264.6 3.05 264.5 3.05 264.4 3.1 264.35 3.15 264.3 3.2 264.3 3.2 264.1 3.25 264.05 3.25 264.0 3.35 264.0 3.4 264.05 3.45 264.2 3.45 264.3 3.4 264.4 3.4 264.45 3.35 264.5 3.35 264.55 3.35 264.65 3.4 264.75 3.3 265.25 3.25 265.55" fill="#152029" fill-rule="evenodd" stroke="none"/>
    <path d="M2.65 266.75 L2.6 266.7 2.55 266.75 2.5 266.65 2.45 266.3 2.5 265.9 2.45 265.65 2.5 265.6 2.55 265.55 2.6 265.4 2.7 265.35 2.75 265.4 2.85 265.45 2.85 265.55 2.85 265.65 2.8 265.65 2.85 265.7 2.8 265.95 2.75 266.3 2.75 266.6 2.75 266.7 2.65 266.75" fill="#152029" fill-rule="evenodd" stroke="none"/>
    <path d="M4.45 266.4 L4.7 266.1 4.9 265.9 4.95 265.75 5.0 265.7 5.0 265.65 5.1 265.55 5.1 265.5 5.3 265.45 5.4 265.45 5.35 265.55 5.3 265.55 5.3 265.6 5.35 265.65 5.35 265.75 5.3 265.85 5.3 265.9 5.25 265.95 5.2 266.05 5.2 266.1 5.15 266.1 5.15 266.2 5.1 266.2 5.05 266.25 5.0 266.3 5.0 266.35 4.95 266.35 4.9 266.45 4.85 266.45 4.75 266.55 4.7 266.55 4.7 266.6 4.55 266.65 4.5 266.75 4.45 266.8 4.45 266.85 4.4 266.85 4.3 266.9 4.3 266.8 4.45 266.4" fill="#152029" fill-rule="evenodd" stroke="none"/>
    <path d="M3.9 265.8 L4.0 265.65 4.05 265.55 4.15 265.55 4.15 265.65 4.2 265.75 4.15 265.85 4.15 265.9 4.1 266.0 4.05 266.05 4.0 266.1 3.95 266.05 3.9 266.05 3.85 265.95 3.85 265.9 3.9 265.8" fill="#333333" fill-rule="evenodd" stroke="none"/>
  </g>
</svg>
