<?xml version="1.0" encoding="UTF-8" standalone="no"?>
<svg xmlns:xlink="http://www.w3.org/1999/xlink" height="110.1px" width="108.7px" xmlns="http://www.w3.org/2000/svg">
  <g transform="matrix(1.0, 0.0, 0.0, 1.0, 54.35, 55.05)">
    <path d="M47.7 49.2 L-50.65 49.2 -50.65 -50.3 47.7 -50.3 47.7 49.2" fill="#c2bfbc" fill-rule="evenodd" stroke="none"/>
    <path d="M33.85 -20.6 L35.8 -18.4 36.7 -16.5 37.2 -14.35 37.4 -10.2 37.4 -3.95 37.4 0.25 37.4 4.45 36.6 6.45 35.2 8.5 31.5 13.05 28.85 16.9 27.65 18.4 26.2 18.95 22.75 19.8 17.9 18.4 15.15 16.2 13.1 14.15 11.6 12.1 11.1 10.0 10.9 7.95 10.9 5.85 10.65 1.7 10.2 0.25 9.7 2.4 9.5 4.45 9.35 6.5 8.8 8.65 7.85 10.55 5.95 12.7 3.95 14.2 -0.95 15.6 -1.5 17.75 -1.8 19.75 -2.35 21.9 -3.2 23.9 Q-3.75 25.05 -4.55 26.0 L-5.85 27.45 -7.3 28.0 -11.4 28.85 -14.2 30.95 -19.1 32.35 -21.9 32.35 -26.75 30.95 -29.55 28.85 -30.8 26.7 -31.65 24.7 -31.65 22.6 -31.5 20.5 -30.95 18.4 Q-32.1 14.35 -31.9 10.0 -31.65 4.8 -31.9 -0.45 L-32.3 -13.0 -32.35 -23.45 -31.5 -25.5 -30.25 -27.65 -28.15 -29.05 Q-24.35 -29.75 -20.7 -31.0 -12.3 -33.85 -3.05 -33.25 L-1.55 -34.5 -0.25 -35.35 3.15 -35.65 3.25 -36.0 8.8 -36.0 13.0 -34.65 15.7 -32.45 17.9 -30.45 Q18.6 -30.1 19.3 -30.1 L22.75 -30.45 26.95 -29.05 28.95 -26.85 30.3 -24.8 31.15 -22.75 33.85 -20.6" fill="#663333" fill-opacity="0.101960786" fill-rule="evenodd" stroke="none"/>
    <path d="M16.8 -14.75 L18.25 -15.3 21.7 -16.15 26.6 -14.75 28.6 -12.6 29.95 -10.5 30.75 -8.5 31.3 -6.35 31.45 -4.3 31.45 -2.2 Q31.45 -1.15 31.8 -0.2 L32.75 2.05 33.55 4.1 34.1 6.2 34.25 8.25 34.25 10.35 Q34.25 11.4 34.75 12.15 35.65 13.5 37.05 14.55 L38.3 16.7 39.15 18.75 39.65 20.85 39.85 22.9 39.85 25.0 39.65 27.1 39.15 29.2 38.3 31.2 36.95 33.3 34.95 35.5 30.15 37.7 Q29.05 38.25 28.0 38.95 L2.15 39.65 -27.85 35.5 -30.65 33.4 -32.05 31.3 -32.75 29.2 -33.4 27.1 -34.9 25.1 -36.65 22.75 -37.6 20.8 -37.6 18.75 -37.45 16.65 -36.9 14.55 -35.5 12.45 -35.0 8.25 -34.8 4.1 -34.8 -0.1 -34.8 -4.3 -34.8 -8.5 -33.9 -10.4 -32.05 -12.65 -30.65 -14.05 -29.2 -14.65 -24.35 -16.2 -22.3 -16.9 -20.85 -17.55 -17.45 -17.9 -17.4 -18.25 -13.2 -16.85 -10.4 -14.75 -9.0 -12.65 -7.6 -10.6 -2.7 -9.2 -1.35 -9.3 2.15 -9.9 6.35 -8.5 9.15 -6.4 10.55 -4.3 11.0 -2.2 11.25 2.0 11.25 4.1 11.25 8.25 11.25 10.35 11.25 12.45 11.25 13.15 11.75 9.65 11.95 5.45 11.95 1.3 11.95 -2.9 11.95 -7.1 Q11.95 -8.15 12.25 -9.1 12.65 -10.25 13.35 -11.25 L14.7 -13.35 16.8 -14.75" fill="#663333" fill-opacity="0.101960786" fill-rule="evenodd" stroke="none"/>
    <path d="M47.1 -46.45 L47.8 -45.45 48.35 -44.35 48.5 -43.35 48.35 -42.35 47.8 -41.25 Q47.45 -27.15 48.05 -13.0 48.7 2.65 48.65 18.4 48.65 28.4 48.15 38.25 L47.8 39.3 47.55 40.4 47.4 41.4 47.1 42.45 46.7 43.45 46.1 44.55 45.3 45.1 44.0 45.6 41.9 44.9 41.2 43.85 40.85 42.8 40.6 41.75 40.5 40.7 39.8 39.65 Q39.3 25.1 39.3 10.35 39.3 -5.95 39.9 -22.05 L40.5 -41.95 40.9 -42.95 41.55 -44.05 41.1 -45.05 40.5 -46.1 40.65 -47.1 41.2 -48.2 42.6 -48.5 43.3 -48.55 45.75 -47.5 47.1 -46.45" fill="#ffffff" fill-opacity="0.2" fill-rule="evenodd" stroke="none"/>
    <path d="M49.15 -45.75 L49.55 -44.75 49.65 -43.7 49.2 -42.65 48.5 -41.6 46.75 -40.9 44.7 -41.6 31.45 -41.75 Q-1.35 -41.75 -34.1 -40.7 -43.85 -40.35 -52.95 -43.35 L-53.9 -44.45 -54.35 -45.45 -53.9 -46.4 -52.95 -47.5 -50.85 -48.2 -49.5 -48.55 -48.1 -48.9 -43.9 -49.1 -43.9 -49.25 -34.15 -49.25 31.45 -48.8 45.4 -48.55 47.1 -47.85 48.5 -46.8 49.15 -45.75" fill="#ffffff" fill-opacity="0.2" fill-rule="evenodd" stroke="none"/>
    <path d="M-43.95 -48.5 L-43.2 -47.5 -43.2 -46.45 -43.2 -45.45 -42.8 -44.4 -42.25 -43.3 -41.8 -42.3 -41.65 -41.25 Q-41.65 -40.7 -41.8 -40.2 L-42.15 -39.15 -42.85 -38.1 Q-42.35 -24.05 -42.2 -9.85 -42.0 5.45 -42.5 20.5 -42.8 29.5 -43.9 38.25 L-44.3 39.3 -44.95 40.35 -46.7 41.05 -48.45 40.35 -49.5 39.3 Q-50.5 24.75 -50.7 10.0 L-50.9 -21.35 -50.55 -40.2 -50.35 -41.2 -49.85 -42.3 -50.1 -43.35 -50.2 -44.4 -50.2 -45.45 -50.2 -47.5 -49.7 -48.5 -48.8 -49.6 -46.75 -50.1 -46.7 -50.3 -44.95 -49.6 -43.95 -48.5" fill="#ffffff" fill-opacity="0.2" fill-rule="evenodd" stroke="none"/>
    <path d="M-6.25 41.75 L-4.5 42.45 -3.5 43.55 -2.9 44.6 Q-2.75 45.05 -2.75 45.6 L-3.15 46.6 -3.8 47.7 -4.85 48.4 -6.25 48.75 -27.15 48.65 -45.3 47.7 -47.05 47.0 -47.6 45.9 -47.75 44.9 -47.25 44.25 Q-37.5 40.95 -27.15 41.75 L-6.25 41.75" fill="#ffffff" fill-opacity="0.2" fill-rule="evenodd" stroke="none"/>
    <path d="M15.95 -47.1 L6.75 -47.15 -2.55 -47.25 -6.7 -48.15 -16.65 -48.55 -28.05 -47.6 Q-36.1 -46.55 -49.05 -47.0 L-49.8 -44.25 -49.5 -43.35 -48.9 -41.6 -48.6 -40.7 -48.4 -39.8 -48.1 -31.5 -47.95 -23.25 -47.75 -14.95 -47.65 -6.75 -47.5 1.75 -47.3 10.25 Q-46.7 28.45 -47.95 46.65 L-42.05 46.35 -39.2 46.45 -36.4 46.6 -31.7 46.6 -27.1 46.6 -17.9 46.65 -8.65 46.75 0.55 46.8 2.65 47.3 8.5 47.7 14.5 47.9 24.3 46.7 Q32.7 45.45 46.8 46.55 L46.9 39.45 46.95 32.3 47.0 25.1 47.0 17.85 47.0 8.7 46.95 -0.5 46.95 -9.6 47.0 -18.8 Q47.1 -23.95 47.35 -29.1 L47.55 -39.35 47.3 -41.15 46.9 -42.95 Q46.85 -43.8 47.2 -44.6 L48.1 -47.3 44.6 -46.9 41.15 -46.7 37.75 -46.7 34.4 -47.0 25.2 -47.0 15.95 -47.1 M51.55 -52.85 Q52.25 -51.85 52.25 -50.6 L52.55 -50.05 52.75 -49.15 53.05 -47.35 Q53.3 -45.5 52.65 -43.75 52.05 -42.15 53.2 -41.1 L53.4 -36.7 53.65 -28.0 53.8 -19.3 Q53.85 -14.95 53.15 -9.75 52.45 -4.55 53.1 0.35 53.75 5.2 53.8 7.5 L53.85 12.0 53.9 16.6 54.0 21.2 54.1 25.8 54.15 30.35 54.35 41.1 54.0 51.7 Q53.85 53.45 52.6 54.45 L50.55 55.05 47.95 54.05 41.3 54.25 30.0 53.55 Q-0.75 53.5 -5.1 54.05 L-4.8 53.85 -9.3 54.15 -23.05 54.45 -36.8 54.6 -52.75 53.4 -53.6 52.45 -53.85 52.05 Q-54.95 49.55 -52.85 47.55 L-53.3 46.25 Q-53.95 36.0 -54.0 25.65 L-54.05 17.4 -54.0 9.0 -53.9 0.55 -53.75 -7.95 -53.45 -20.75 -53.3 -25.65 -53.2 -30.55 -53.15 -35.45 -53.2 -40.4 -53.35 -41.3 -53.65 -42.2 -53.75 -43.05 Q-53.55 -46.15 -52.05 -48.6 -53.05 -49.65 -52.7 -51.15 L-52.0 -52.8 Q-51.35 -53.7 -50.35 -53.9 L-43.2 -54.65 -31.95 -53.95 Q-25.7 -53.55 4.75 -54.35 L7.35 -54.5 Q24.55 -55.5 41.75 -54.7 L50.75 -53.85 51.55 -52.85" fill="#333333" fill-rule="evenodd" stroke="none"/>
    <path d="M-40.85 29.7 L-40.7 30.15 -40.7 30.6 -40.7 31.05 -40.7 31.5 -41.3 33.25 -41.9 35.05 -42.45 36.85 -42.7 37.3 -42.75 37.75 -43.0 38.1 -43.5 38.5 -44.25 38.2 -44.3 37.75 -44.4 37.3 -44.55 36.85 -44.15 35.05 -43.35 32.85 -42.75 31.05 -42.75 30.6 -42.75 30.15 -42.75 29.7 -42.6 29.25 -42.3 28.95 -42.15 28.85 -41.75 28.8 -41.45 28.8 -41.05 29.3 -40.85 29.7" fill="#333333" fill-rule="evenodd" stroke="none"/>
    <path d="M-32.8 23.0 L-32.05 23.3 -31.8 23.75 -31.6 24.2 -31.5 24.65 -31.45 25.1 -31.45 25.55 -31.4 26.0 -31.3 26.45 -31.35 26.85 -31.4 27.35 -31.5 27.75 -31.75 28.65 -31.75 29.1 -31.75 29.55 -32.95 35.8 Q-33.55 38.85 -33.4 42.05 -33.3 44.3 -33.55 46.5 L-33.85 46.95 -34.15 47.4 -34.45 47.65 -35.2 47.85 -36.2 47.55 -36.5 47.1 -36.8 46.65 -37.05 40.4 Q-37.05 37.0 -36.25 33.7 L-35.2 28.8 -35.0 28.4 -34.75 27.9 -34.6 27.45 -34.55 27.05 -34.45 26.6 -34.15 25.7 -34.15 25.25 -34.15 24.8 -34.15 24.35 -33.95 23.9 -33.7 23.45 -33.35 23.25 -32.8 23.1 -32.8 23.0" fill="#333333" fill-rule="evenodd" stroke="none"/>
    <path d="M-26.1 34.75 Q-25.6 36.05 -25.5 37.45 L-25.5 40.55 -25.65 42.8 -25.95 43.25 -26.1 43.55 -26.25 43.65 -26.85 43.85 -27.6 43.55 -28.05 43.1 -28.2 40.4 -28.1 37.3 -27.9 35.05 -27.6 34.75 -27.45 34.65 -26.85 34.55 -26.85 34.45 -26.1 34.75" fill="#333333" fill-rule="evenodd" stroke="none"/>
    <path d="M7.85 -36.7 L7.55 -37.15 7.25 -37.6 7.1 -38.05 7.0 -38.95 6.95 -39.85 6.95 -41.15 6.95 -41.6 6.9 -42.05 6.7 -42.5 6.5 -42.95 6.65 -43.4 6.85 -43.8 7.1 -44.15 7.7 -44.3 8.45 -44.0 8.85 -43.5 9.1 -43.15 9.5 -42.65 9.6 -42.2 9.65 -41.3 9.65 -40.4 9.65 -39.55 9.7 -39.1 9.9 -38.65 10.15 -38.15 10.2 -37.75 10.2 -37.3 10.05 -36.85 9.75 -36.4 9.45 -36.2 8.9 -36.05 8.9 -35.95 8.15 -36.25 7.85 -36.7" fill="#333333" fill-rule="evenodd" stroke="none"/>
    <path d="M3.5 -22.85 L2.8 -23.15 2.5 -23.6 2.2 -24.05 1.9 -24.5 1.45 -25.4 1.3 -25.85 1.15 -26.3 0.85 -26.75 0.7 -28.95 0.2 -31.65 -0.2 -33.85 -0.4 -34.3 -0.9 -35.25 -1.4 -36.1 -1.7 -36.55 -1.85 -37.0 -2.0 -37.45 -2.15 -37.9 -2.1 -38.35 -2.0 -38.8 -1.85 -39.25 -1.85 -39.7 -1.55 -40.15 -1.4 -40.4 -1.2 -40.55 -0.65 -40.7 0.1 -40.4 0.55 -39.95 0.6 -39.55 0.7 -39.1 1.0 -38.65 1.15 -38.2 1.3 -37.75 1.45 -37.3 1.6 -36.85 1.9 -36.4 2.2 -35.95 2.5 -35.5 2.8 -34.15 3.2 -32.35 3.65 -30.6 3.8 -30.15 3.8 -29.7 3.8 -28.8 3.8 -27.9 3.8 -27.05 3.95 -26.6 4.1 -26.15 4.25 -25.7 4.25 -25.25 4.55 -24.8 4.7 -24.35 4.7 -23.9 4.5 -23.5 4.25 -23.15 4.1 -23.05 3.55 -22.95 3.5 -22.85" fill="#333333" fill-rule="evenodd" stroke="none"/>
    <path d="M-6.0 -32.9 L-6.0 -32.85 -6.75 -33.15 -7.15 -33.6 -7.75 -34.5 -8.25 -35.35 -8.55 -35.8 -8.65 -36.25 -8.7 -36.7 -8.7 -37.15 -8.7 -37.6 -8.7 -38.5 -8.85 -38.9 -9.1 -39.4 -9.0 -39.85 -8.85 -40.3 -8.8 -40.7 -8.7 -41.15 -8.5 -41.45 -8.35 -41.55 -7.8 -41.75 -7.05 -41.45 -6.75 -41.0 -6.7 -40.6 -6.6 -40.1 -6.3 -39.7 -6.0 -39.25 -5.7 -38.8 -5.7 -38.35 -5.7 -37.9 -5.7 -37.45 -5.65 -37.0 -5.4 -36.55 -5.25 -36.1 -4.95 -35.2 -4.85 -34.75 -4.65 -33.85 -4.85 -33.45 -5.1 -33.15 -5.4 -33.0 -6.0 -32.9" fill="#333333" fill-rule="evenodd" stroke="none"/>
    <path d="M40.1 46.65 L40.25 47.1 40.4 47.55 40.55 48.0 40.7 48.45 40.65 48.9 40.4 49.35 39.95 49.8 39.25 50.1 38.35 49.8 37.6 48.9 36.75 47.6 35.95 45.75 Q35.7 45.15 35.75 44.45 L35.8 42.2 35.8 39.95 35.8 39.1 35.65 38.65 35.55 38.2 35.5 37.75 35.7 37.3 35.95 36.85 36.8 36.65 36.85 36.55 37.6 36.85 38.15 37.3 38.6 37.75 38.95 38.2 38.95 39.55 39.1 41.75 39.15 44.45 39.25 44.9 39.4 45.3 39.65 45.8 39.85 46.2 40.1 46.65" fill="#333333" fill-rule="evenodd" stroke="none"/>
    <path d="M-27.6 -16.85 L-27.3 -16.45 -27.3 -16.0 -27.3 -15.55 -27.4 -14.65 -27.45 -14.2 -27.45 -13.3 -27.6 -12.85 -27.9 -12.4 -28.65 -12.0 -29.25 -11.65 -29.8 -11.5 -32.8 -11.55 -34.0 -11.65 -34.75 -11.95 -35.05 -12.4 -35.05 -12.85 -35.05 -13.3 -35.05 -14.2 -35.0 -15.1 -34.9 -16.45 -34.6 -16.9 -34.4 -17.3 -34.1 -17.75 -33.85 -18.05 -33.4 -18.2 -32.35 -18.4 -32.2 -18.5 -31.65 -18.6 -31.6 -18.65 -30.75 -18.35 -29.8 -17.95 -28.65 -17.6 -27.9 -17.3 -27.6 -16.85 M-29.8 -14.65 L-29.9 -15.05 -30.25 -15.55 -31.3 -16.0 -32.2 -16.45 -32.95 -16.5 -33.1 -16.45 -33.05 -15.55 -33.0 -14.65 -32.95 -13.9 -29.85 -14.4 -29.8 -14.65" fill="#333333" fill-rule="evenodd" stroke="none"/>
    <path d="M24.35 -40.25 L25.55 -40.25 26.3 -39.95 26.6 -39.5 26.8 -39.05 26.85 -38.6 26.8 -38.2 26.6 -37.7 26.3 -37.25 25.7 -36.8 24.95 -36.5 24.35 -36.55 23.15 -36.65 22.4 -36.95 22.2 -37.45 22.1 -37.85 22.3 -38.3 22.6 -38.75 22.95 -39.25 23.15 -39.65 23.45 -39.9 23.75 -40.05 24.35 -40.15 24.35 -40.25" fill="#333333" fill-rule="evenodd" stroke="none"/>
    <path d="M29.7 -10.35 L30.15 -10.75 30.6 -11.05 30.75 -11.15 31.45 -11.3 31.5 -11.35 32.55 -11.05 33.25 -10.6 34.0 -10.2 34.45 -9.75 34.9 -9.25 35.2 -8.8 35.35 -8.4 35.45 -7.95 35.5 -7.5 35.5 -7.05 35.5 -6.15 35.5 -5.25 35.5 -4.8 35.35 -4.4 35.05 -3.95 34.45 -3.5 33.7 -3.05 32.7 -2.75 31.5 -2.75 28.5 -2.9 27.6 -3.2 27.2 -3.65 26.85 -4.1 26.6 -4.5 26.6 -4.95 26.6 -5.4 26.6 -5.85 26.7 -6.75 26.75 -7.65 26.75 -8.1 26.9 -8.55 27.15 -9.0 27.45 -9.45 27.75 -9.9 28.5 -10.2 29.7 -10.35 M29.1 -7.05 L29.1 -6.6 29.3 -6.35 31.5 -6.0 32.1 -6.4 32.25 -6.75 32.05 -7.2 31.8 -7.65 31.05 -8.1 30.3 -8.25 29.1 -7.95 29.1 -7.5 29.1 -7.05" fill="#333333" fill-rule="evenodd" stroke="none"/>
    <path d="M-38.9 3.85 L-38.15 3.5 -37.6 3.45 -37.55 3.35 -36.8 3.65 -36.5 4.1 -36.4 4.55 -36.35 5.45 -36.25 6.35 -36.2 6.8 -36.35 7.25 -36.55 7.65 -36.65 8.0 -36.95 8.1 -37.55 8.25 -41.7 7.9 -42.45 7.7 -42.75 7.25 -42.75 6.8 -42.75 6.35 -42.75 5.9 -42.55 5.5 -42.15 5.0 -41.6 4.55 -41.15 4.5 -40.55 4.55 -39.95 4.55 -39.6 4.3 -38.9 3.85" fill="#333333" fill-rule="evenodd" stroke="none"/>
    <path d="M-7.4 26.45 L-7.2 26.9 -7.1 27.35 -7.05 27.75 -7.05 28.2 -7.05 28.65 -7.1 29.1 -7.35 29.55 -7.65 30.0 -8.25 30.45 -9.0 30.75 -10.2 30.75 -10.75 30.55 -11.5 30.3 -12.1 29.85 -12.65 29.35 -12.85 28.95 -12.65 28.55 -12.25 28.05 -11.35 27.6 -10.75 28.05 -10.2 28.2 -10.15 28.0 -10.65 27.5 -11.35 27.0 -11.75 26.55 -11.95 26.15 -11.9 25.7 -11.65 25.25 Q-11.5 25.1 -11.35 25.05 L-10.8 24.85 -10.75 24.8 -9.9 25.1 -8.7 25.55 -7.8 26.0 -7.4 26.45" fill="#333333" fill-rule="evenodd" stroke="none"/>
  </g>
</svg>
