<?xml version="1.0" encoding="UTF-8" standalone="no"?>
<svg xmlns:xlink="http://www.w3.org/1999/xlink" height="58.75px" width="18.1px" xmlns="http://www.w3.org/2000/svg">
  <g transform="matrix(1.0, 0.0, 0.0, 1.0, 9.05, 31.95)">
    <path d="M5.7 -2.0 L5.2 -0.5 Q7.8 4.7 4.4 9.9 0.45 11.7 -3.4 10.3 -4.8 7.1 -7.1 4.25 L-6.8 3.1 -5.75 2.7 Q-5.6 -0.75 -4.15 -3.9 0.1 -5.1 4.5 -4.45 L5.45 -3.5 5.7 -2.0" fill="#ffcc66" fill-rule="evenodd" stroke="none"/>
    <path d="M-1.4 11.35 L-1.2 11.2 -1.0 11.0 -0.9 10.85 -0.75 10.8 -0.45 10.75 1.3 10.75 1.7 10.85 1.95 11.05 2.1 11.1 2.25 11.05 2.55 11.0 2.95 11.1 3.2 11.3 3.3 11.5 3.35 11.7 3.35 11.85 3.35 12.05 3.35 12.45 3.3 12.6 3.2 12.8 2.95 13.0 2.75 13.2 2.6 13.35 2.5 13.5 2.05 13.55 -2.95 13.6 -3.4 13.5 -3.55 13.3 -3.75 13.1 -3.95 12.95 -4.0 12.75 -4.0 12.55 -4.0 12.35 -4.0 12.0 -4.0 11.8 -3.9 11.6 -3.7 11.45 -3.5 11.3 -3.2 11.25 -2.7 11.25 -2.3 11.35 -1.4 11.35" fill="#a6b8bf" fill-rule="evenodd" stroke="none"/>
    <path d="M0.8 16.9 L1.05 17.15 3.25 18.95 Q4.45 19.75 4.35 21.2 3.8 21.75 4.05 22.45 3.9 23.65 2.8 24.1 L2.5 24.7 1.35 25.45 Q-1.65 27.2 -3.8 24.1 L-4.35 23.1 -4.65 22.3 -4.75 21.9 -4.7 20.5 -4.25 20.1 -3.05 20.1 -2.5 20.9 -2.05 22.7 Q-0.85 23.6 0.5 22.9 1.65 21.75 1.1 20.15 L-1.0 18.85 -1.3 18.45 -1.6 17.8 Q-1.65 16.15 -1.25 14.55 L-1.05 14.55 Q-0.5 14.7 -0.15 14.25 L0.75 14.55 0.8 16.9" fill="#a6b8bf" fill-rule="evenodd" stroke="none"/>
    <path d="M0.05 10.85 L0.3 10.85 0.8 10.95 1.2 11.05 1.8 11.1 2.2 11.25 2.35 11.45 2.45 11.6 2.45 11.8 2.5 12.0 2.5 12.2 2.5 12.35 2.4 12.55 2.3 12.75 2.05 12.95 1.8 13.1 1.6 13.25 0.3 13.25 -0.9 13.1 -1.0 12.95 -1.15 12.75 -1.15 12.55 -1.15 12.35 -1.15 12.2 -1.15 12.0 -1.1 11.8 -1.0 11.6 -0.65 11.25 -0.45 11.05 -0.25 10.95 0.05 10.9 0.05 10.85" fill="#663333" fill-opacity="0.2" fill-rule="evenodd" stroke="none"/>
    <path d="M0.8 11.05 L1.25 11.05 1.55 11.0 1.95 11.1 2.15 11.3 2.35 11.5 2.5 11.7 2.55 11.85 2.6 12.05 2.6 12.25 2.6 12.6 2.6 13.0 2.6 13.2 2.55 13.35 2.4 13.55 2.25 13.75 1.85 14.05 1.55 14.1 1.1 14.0 0.95 13.8 0.7 13.7 0.3 13.8 -0.15 13.7 -0.3 13.5 -0.45 13.3 -0.45 13.1 -0.45 12.95 -0.45 12.55 -0.4 12.15 -0.4 12.0 -0.35 11.8 -0.25 11.6 0.0 11.45 0.3 11.25 0.5 11.1 0.8 11.05" fill="#663333" fill-opacity="0.2" fill-rule="evenodd" stroke="none"/>
    <path d="M0.1 14.4 L0.3 14.55 0.7 14.7 0.9 14.85 1.1 15.05 1.2 15.25 1.3 15.45 1.3 15.6 1.3 15.8 1.3 16.2 1.3 16.35 1.3 16.55 1.3 16.75 1.25 16.9 1.2 17.1 1.1 17.3 1.1 17.5 1.1 17.7 1.1 17.85 1.05 18.05 0.95 18.2 0.8 18.4 0.6 18.55 0.3 18.6 -0.45 18.6 -0.9 18.5 -1.05 18.3 -1.2 18.1 -1.25 17.9 -1.25 17.75 -1.25 17.55 -1.25 17.35 -1.2 17.2 -1.3 17.0 -1.45 16.8 -1.55 16.6 -1.65 16.45 -1.7 16.25 -1.8 16.05 -1.8 15.85 -1.8 15.7 -1.75 15.5 -1.7 15.3 -1.7 15.1 -1.7 14.95 -1.65 14.75 -1.65 14.55 -1.5 14.35 -1.3 14.25 -1.25 14.2 -0.95 14.15 -0.95 14.1 -0.45 14.1 -0.05 14.25 0.1 14.4" fill="#663333" fill-opacity="0.2" fill-rule="evenodd" stroke="none"/>
    <path d="M0.3 14.3 L0.65 14.45 0.95 14.55 1.3 14.55 1.7 14.7 1.85 14.85 2.0 15.05 2.05 15.25 2.1 15.45 2.1 15.8 2.1 16.15 2.05 16.35 2.0 16.55 1.85 16.75 1.7 16.95 1.3 17.05 0.55 17.05 0.1 16.9 -0.2 16.8 -0.7 16.7 -1.15 16.6 -1.25 16.45 -1.5 16.25 -1.65 16.05 -1.65 15.85 -1.65 15.5 -1.65 15.1 -1.65 14.95 -1.65 14.75 -1.6 14.55 -1.5 14.35 -1.3 14.25 -1.25 14.2 -0.95 14.15 -0.95 14.1 -0.55 14.25 -0.4 14.4 -0.25 14.5 -0.15 14.45 0.0 14.4 0.3 14.3" fill="#663333" fill-opacity="0.2" fill-rule="evenodd" stroke="none"/>
    <path d="M1.95 17.75 L2.1 17.95 2.2 18.1 2.3 18.3 2.85 18.7 3.1 18.85 3.35 19.05 3.5 19.25 3.6 19.45 3.7 19.6 3.75 19.8 3.85 20.0 3.95 20.15 4.05 20.35 4.1 20.55 4.2 20.75 4.25 20.95 4.25 21.5 4.25 21.85 4.25 22.25 4.2 22.8 4.2 23.0 4.1 23.15 4.0 23.35 3.9 23.55 3.8 23.75 3.8 23.95 3.8 24.1 3.75 24.3 3.65 24.5 3.55 24.65 3.45 24.85 3.35 25.05 2.9 25.4 2.55 25.6 2.35 25.75 1.2 25.95 0.8 26.05 -0.55 26.2 -0.95 26.3 -2.95 26.15 -3.3 26.05 -3.5 25.85 -3.55 25.7 -3.8 25.5 -3.95 25.3 -3.8 25.1 -3.55 25.05 -3.3 25.05 0.6 24.35 1.6 24.2 2.0 24.0 2.2 23.6 2.4 23.25 2.6 22.85 2.8 22.5 2.85 22.1 2.85 21.75 2.85 21.55 2.85 21.35 2.85 21.0 2.8 20.8 2.75 20.6 2.7 20.45 2.7 20.25 2.7 20.05 2.35 19.65 2.25 19.5 2.1 19.3 1.95 19.1 1.55 18.95 1.35 18.75 1.35 18.55 1.4 18.35 1.4 18.15 1.45 18.0 1.55 17.8 1.8 17.75 1.95 17.75" fill="#663333" fill-opacity="0.2" fill-rule="evenodd" stroke="none"/>
    <path d="M2.55 24.35 L2.85 24.45 3.05 24.55 3.05 24.7 3.0 24.85 2.85 25.05 2.7 25.25 2.35 25.45 2.05 25.65 1.95 25.75 1.8 25.8 0.95 26.0 0.55 26.1 -1.45 26.05 -1.75 25.95 -1.9 25.7 -1.95 25.55 -1.9 25.4 -1.75 25.2 -1.45 25.05 0.7 24.85 1.05 24.75 1.7 24.7 1.8 24.6 2.2 24.5 2.55 24.4 2.55 24.35" fill="#663333" fill-opacity="0.2" fill-rule="evenodd" stroke="none"/>
    <path d="M-4.95 9.55 L-5.0 9.35 -5.0 9.2 -4.95 9.0 -4.8 8.85 -4.7 8.8 -2.0 8.5 -1.7 8.5 3.55 8.5 3.95 8.6 4.2 8.8 4.3 9.0 4.35 9.2 4.35 9.35 4.3 9.55 4.25 9.75 4.05 9.9 3.85 10.05 3.55 10.1 -4.8 9.75 -4.95 9.55" fill="#663333" fill-opacity="0.2" fill-rule="evenodd" stroke="none"/>
    <path d="M5.55 4.1 L5.65 3.95 5.8 3.75 6.0 3.6 6.3 3.6 6.3 3.55 6.7 3.7 6.85 3.85 7.0 4.05 7.05 4.25 7.05 4.45 7.05 4.6 7.05 4.8 7.0 5.0 6.9 5.15 6.8 5.35 6.6 5.55 6.55 5.75 6.45 5.95 6.35 6.1 6.25 6.3 6.2 6.5 6.1 6.7 6.05 6.85 6.0 7.05 5.85 7.25 5.75 7.4 5.55 7.6 5.35 7.8 5.3 8.0 5.15 8.15 4.85 8.55 4.75 8.75 4.7 8.95 4.7 9.1 4.65 9.3 4.6 9.5 4.5 9.65 4.3 9.85 4.1 10.0 3.8 10.05 3.35 9.95 3.2 9.75 3.05 9.55 3.05 9.35 3.05 9.2 3.05 8.8 3.05 8.45 3.75 7.3 4.5 5.95 5.2 5.05 5.2 4.85 5.3 4.7 5.4 4.5 5.55 4.1" fill="#663333" fill-opacity="0.2" fill-rule="evenodd" stroke="none"/>
    <path d="M2.45 -5.15 L2.7 -4.95 2.8 -4.75 2.95 -4.55 3.05 -4.5 3.3 -4.45 3.7 -4.3 3.9 -4.15 4.1 -3.95 4.3 -3.6 4.45 -3.4 4.7 -3.2 4.9 -3.0 5.1 -2.8 5.1 -2.65 5.05 -2.55 5.0 -2.4 5.1 -2.2 5.45 -1.1 5.7 0.05 6.1 1.35 6.25 1.75 6.35 1.95 6.6 2.3 6.8 2.65 6.95 2.9 7.05 3.05 7.1 3.25 7.1 3.45 7.1 3.6 7.1 3.8 7.05 4.0 7.0 4.15 6.85 4.35 6.75 4.5 6.6 4.55 6.3 4.6 6.0 4.55 5.6 4.45 5.45 4.25 5.3 4.1 5.2 4.1 5.1 4.15 4.8 4.2 4.55 4.25 4.1 4.1 4.0 3.95 3.85 3.75 3.85 3.15 4.0 2.45 4.0 1.65 4.0 1.1 3.4 0.2 2.8 -0.75 2.25 -1.9 2.05 -2.25 2.0 -2.45 1.95 -2.65 1.85 -2.8 1.8 -3.0 1.75 -3.2 1.65 -3.4 1.55 -3.55 1.45 -3.75 1.35 -3.95 1.3 -4.15 1.25 -4.35 1.25 -4.5 1.25 -4.7 1.35 -4.9 1.55 -5.05 1.75 -5.2 2.05 -5.25 2.45 -5.15" fill="#663333" fill-opacity="0.2" fill-rule="evenodd" stroke="none"/>
    <path d="M4.75 -2.7 L4.95 -2.5 5.2 -2.3 5.3 -2.15 5.4 -1.95 5.5 -1.75 5.7 -1.4 5.8 -1.2 5.85 -1.0 5.95 -0.8 6.05 -0.65 6.1 -0.45 6.15 -0.25 6.15 -0.1 6.1 0.1 6.0 0.3 5.8 0.5 5.7 0.7 5.6 0.85 5.55 1.05 5.5 1.25 5.35 1.45 5.45 1.6 5.6 1.8 5.8 2.0 5.85 2.2 5.95 2.35 6.1 2.55 6.3 2.75 6.35 2.95 6.45 3.1 6.5 3.3 6.5 3.5 6.5 3.85 6.5 4.25 6.45 4.6 6.45 4.8 6.35 5.0 6.25 5.2 6.0 5.4 5.95 5.55 5.9 5.75 5.85 5.9 5.75 6.1 5.75 6.3 5.75 6.5 5.75 6.7 5.55 7.05 5.25 7.4 4.8 8.0 4.75 8.2 4.7 8.35 4.7 8.55 4.7 8.75 4.7 8.95 4.75 9.1 4.7 9.3 4.6 9.45 4.3 9.85 3.85 10.2 2.5 10.4 2.05 10.5 0.05 10.5 -0.4 10.35 -0.75 10.2 -1.0 10.05 -2.95 9.95 -3.4 9.8 -3.65 9.6 -3.75 9.45 -3.8 9.25 -3.8 9.05 -3.8 8.85 -3.8 8.7 -3.8 8.5 -3.8 8.3 -3.7 8.1 -3.65 7.95 -3.6 7.75 -3.55 7.55 -3.55 7.35 -3.55 7.0 -3.55 6.6 -3.5 6.45 -3.4 6.25 -3.15 6.05 -1.95 5.9 -1.2 5.85 -0.75 6.0 -0.4 6.0 -0.2 5.8 0.0 5.6 0.2 5.45 0.2 5.25 -0.15 4.85 -0.65 4.3 -0.75 4.1 -0.8 3.9 -0.8 3.55 -0.85 3.0 -0.75 2.45 -0.55 2.05 -0.15 1.5 0.45 0.95 1.1 0.55 2.1 0.0 2.3 -0.2 2.4 -0.4 2.5 -0.55 2.8 -0.95 3.2 -1.3 3.2 -1.5 3.25 -1.7 3.25 -1.9 3.25 -2.05 3.3 -2.25 3.45 -2.45 3.6 -2.65 4.0 -2.75 4.3 -2.8 4.75 -2.7 M2.6 2.5 L2.45 2.7 2.25 2.85 2.1 3.0 2.3 3.1 2.75 3.2 2.95 3.25 2.95 3.05 2.95 2.85 2.9 2.5 2.85 2.25 2.8 2.3 2.6 2.5" fill="#663333" fill-opacity="0.2" fill-rule="evenodd" stroke="none"/>
    <path d="M-1.75 13.7 L-1.65 13.6 -1.6 13.5 -1.45 13.5 -1.3 13.55 -1.2 13.65 -1.15 13.75 -1.05 15.15 -1.05 16.25 -1.0 16.75 -1.0 17.3 -0.8 18.4 0.15 18.7 0.65 19.05 0.85 19.1 1.5 19.9 Q1.85 20.5 1.85 21.2 1.85 22.2 1.15 22.9 L1.1 22.95 Q0.4 23.55 -0.6 23.55 -1.6 23.55 -2.3 22.9 L-3.0 21.55 Q-3.0 20.85 -3.25 20.4 L-3.4 20.15 -3.95 20.15 -4.3 20.35 -4.5 21.55 Q-4.45 23.2 -3.3 24.35 -2.05 25.6 -0.35 25.65 1.3 25.65 2.5 24.45 3.65 23.2 3.7 21.55 3.7 19.85 2.55 18.6 L2.2 18.25 0.6 17.2 0.5 16.25 0.5 16.05 0.5 15.05 0.55 14.2 0.6 14.1 0.6 14.0 0.65 13.9 0.7 13.85 0.8 13.75 0.9 13.65 1.05 13.65 1.25 13.7 1.35 13.8 1.4 13.9 1.45 14.0 1.5 14.05 1.5 14.15 1.55 14.25 1.55 15.0 1.6 16.05 1.6 16.25 1.6 16.75 2.2 17.05 3.35 17.85 Q4.85 19.3 4.85 21.45 4.85 23.55 3.45 25.15 2.0 26.7 -0.05 26.8 -2.1 26.85 -3.7 25.3 -5.3 23.7 -5.4 21.55 -5.4 20.75 -5.05 19.9 L-5.0 19.8 Q-4.35 18.95 -3.25 19.4 L-2.85 19.9 -2.5 20.6 -2.25 21.25 -2.05 21.55 -2.0 21.6 -1.65 22.2 Q-1.2 22.65 -0.6 22.65 L0.4 22.2 Q0.85 21.8 0.85 21.2 0.85 20.6 0.4 20.15 L0.1 19.9 -0.8 19.3 -1.35 19.1 -1.75 18.2 -1.9 16.25 -1.85 14.8 -1.75 13.75 -1.75 13.7" fill="#333333" fill-rule="evenodd" stroke="none"/>
    <path d="M-4.1 -5.3 L-3.75 -5.2 -3.5 -5.25 -0.2 -5.45 3.6 -5.45 3.95 -5.35 4.1 -5.15 4.15 -5.1 4.2 -5.15 4.25 -5.15 4.45 -5.15 4.55 -5.15 4.9 -4.85 5.2 -4.55 5.4 -3.85 5.35 -3.6 5.8 -1.45 6.65 1.6 7.2 4.4 7.15 4.55 6.6 6.4 5.8 8.5 5.3 10.0 5.35 10.15 5.4 10.3 5.4 10.45 5.15 10.65 4.9 10.85 4.5 11.05 4.15 11.15 3.8 11.1 3.55 11.15 0.25 11.25 -3.55 11.25 -3.9 11.2 -4.05 11.05 -4.1 11.0 -4.15 11.05 -4.2 11.05 -4.4 11.05 -4.5 11.05 -4.9 10.85 -5.15 10.65 -5.4 10.45 -5.4 10.3 -5.35 10.15 -5.3 10.0 -5.8 8.5 -6.6 6.4 -7.15 4.45 -7.1 4.4 -6.55 1.6 -5.75 -1.45 -5.25 -3.6 -5.3 -3.85 -5.1 -4.55 -4.85 -4.85 -4.45 -5.15 -4.1 -5.3 M4.25 -3.5 L4.3 -3.7 4.35 -3.9 4.3 -4.1 4.2 -4.25 4.1 -4.3 4.1 -4.35 4.05 -4.3 3.15 -4.3 -1.2 -4.3 -4.05 -4.25 -4.2 -4.1 -4.25 -3.9 -4.2 -3.7 -4.15 -3.5 -4.65 -0.8 -5.15 2.4 -5.65 4.5 -5.4 5.8 -4.85 7.8 -4.2 9.9 -4.25 10.05 -4.3 10.2 -4.25 10.35 -4.1 10.45 -4.05 10.5 -3.9 10.4 -3.55 10.35 0.25 10.3 4.0 10.55 4.1 10.45 4.25 10.35 4.3 10.2 4.25 10.05 4.2 9.9 4.85 8.0 5.45 6.05 5.75 4.35 5.25 2.4 4.75 -0.8 4.25 -3.5" fill="#333333" fill-rule="evenodd" stroke="none"/>
    <path d="M-3.95 9.5 L4.05 9.5 4.45 9.65 4.7 9.8 4.85 10.0 4.95 10.2 4.95 10.4 4.9 10.55 4.8 10.75 4.55 10.95 4.35 11.05 4.05 11.1 -3.95 11.15 -4.4 11.0 -4.6 10.8 -4.7 10.65 -4.8 10.45 -4.8 10.25 -4.75 10.1 -4.65 9.9 -4.45 9.7 -4.3 9.55 -4.0 9.55 -3.95 9.5" fill="#333333" fill-rule="evenodd" stroke="none"/>
    <path d="M-3.35 10.75 L-3.3 11.5 -3.2 12.45 -3.15 13.2 -3.2 13.35 -3.3 13.55 -3.35 13.7 -3.45 13.75 -3.65 13.8 -4.0 13.7 -4.2 13.5 -4.15 12.55 -4.1 11.45 -4.0 10.7 -3.85 10.6 -3.65 10.55 -3.55 10.55 -3.35 10.75" fill="#333333" fill-rule="evenodd" stroke="none"/>
    <path d="M3.9 11.2 L3.9 11.4 3.95 11.55 3.95 11.95 3.95 12.3 3.9 12.5 3.85 12.7 3.85 12.9 3.8 13.05 3.75 13.25 3.7 13.45 3.5 13.65 3.15 13.75 2.7 13.65 2.6 13.45 2.45 13.25 2.45 13.05 2.45 12.9 2.4 12.7 2.35 12.5 2.35 12.3 2.35 11.95 2.35 11.55 2.4 11.2 2.45 11.0 2.6 10.85 2.75 10.65 3.15 10.55 3.15 10.5 3.45 10.65 3.7 10.8 3.8 11.0 3.9 11.2" fill="#333333" fill-rule="evenodd" stroke="none"/>
    <path d="M-2.85 12.95 L0.9 12.95 3.15 13.0 3.45 13.15 3.6 13.3 3.65 13.5 3.65 13.7 3.55 13.9 3.5 14.0 3.4 14.05 3.15 14.15 0.9 14.15 -3.4 14.15 -3.8 14.0 -3.9 13.8 -4.0 13.65 -3.95 13.45 -3.9 13.25 -3.8 13.15 -3.65 13.1 -3.4 13.0 -2.85 13.0 -2.85 12.95" fill="#333333" fill-rule="evenodd" stroke="none"/>
    <path d="M0.2 -4.7 L1.25 -4.65 -2.25 -1.25 -3.85 0.35 -6.35 2.95 -6.4 2.9 -6.2 2.6 -6.15 2.45 -6.2 2.4 -6.05 2.25 -6.0 2.2 -6.05 2.05 -5.95 1.95 -5.9 1.9 -5.8 1.8 -5.8 1.7 -5.8 1.6 -5.75 1.55 -5.65 1.15 -5.65 1.05 -4.95 0.45 -0.8 -3.7 0.2 -4.7" fill="#333333" fill-rule="evenodd" stroke="none"/>
    <path d="M4.45 -4.15 L4.55 -4.05 4.7 -3.8 1.95 -0.95 -2.25 3.25 -3.85 4.85 -5.65 6.75 -5.7 6.7 -5.8 6.6 -5.8 6.5 -5.8 6.3 -5.9 6.1 -5.95 6.05 -6.0 6.0 -6.05 5.95 -4.95 4.95 -0.8 0.8 3.4 -3.4 4.3 -4.3 4.45 -4.15" fill="#333333" fill-rule="evenodd" stroke="none"/>
    <path d="M5.5 -0.9 L5.5 -0.1 1.95 3.55 -2.25 7.75 -3.85 9.35 -4.5 10.0 -4.6 9.8 -4.8 9.5 -4.95 9.45 -0.8 5.3 3.4 1.1 5.4 -0.9 5.45 -0.95 5.5 -0.9" fill="#333333" fill-rule="evenodd" stroke="none"/>
    <path d="M6.5 3.0 L6.55 3.05 6.6 3.2 6.55 3.25 6.55 3.45 6.5 3.5 6.4 3.6 6.45 3.65 6.4 3.8 6.3 3.8 6.15 3.85 6.1 3.9 6.05 3.95 5.9 4.0 1.95 8.05 -0.35 10.35 -1.3 10.3 -0.8 9.8 3.4 5.6 5.4 3.6 5.45 3.55 5.6 3.5 5.65 3.55 5.75 3.45 5.85 3.45 5.95 3.35 6.05 3.35 6.05 3.25 6.15 3.15 6.15 3.05 6.15 2.95 6.25 2.95 6.35 2.85 6.5 3.0" fill="#333333" fill-rule="evenodd" stroke="none"/>
    <path d="M1.8 -5.2 L2.05 -5.15 2.25 -5.1 2.55 -5.05 3.3 -4.8 3.9 -4.6 4.3 -4.55 4.45 -4.5 4.55 -4.45 4.6 -4.4 4.85 -4.35 4.95 -4.25 4.95 -4.15 4.9 -4.05 4.8 -4.0 4.55 -3.95 4.35 -4.05 4.25 -4.1 3.65 -4.25 3.2 -4.35 2.7 -4.55 2.55 -4.6 2.25 -4.6 2.3 -4.55 2.35 -4.45 2.4 -4.35 2.5 -4.25 2.9 -4.05 3.3 -3.85 3.4 -3.8 3.4 -3.7 3.45 -3.6 3.4 -3.5 3.5 -3.4 3.65 -3.3 3.7 -3.2 3.75 -3.1 3.7 -3.05 3.65 -2.95 3.6 -2.85 2.55 -2.7 2.6 -2.6 2.65 -2.5 2.65 -2.4 2.65 -2.3 2.55 -2.2 2.5 -2.1 2.3 -2.05 1.65 -2.05 0.8 -2.3 0.65 -2.3 0.6 -2.3 0.65 -2.2 0.75 -2.1 0.8 -2.05 0.9 -2.0 1.15 -1.95 1.3 -1.9 1.45 -1.8 1.55 -1.7 1.65 -1.6 1.65 -1.55 1.7 -1.45 1.65 -1.35 1.65 -1.25 1.55 -1.15 1.5 -1.1 0.5 -1.05 0.55 -0.95 0.7 -0.85 0.75 -0.75 0.8 -0.65 0.8 -0.55 0.75 -0.45 0.75 -0.35 0.65 -0.3 0.55 -0.2 -0.85 -0.1 -0.75 -0.05 -0.7 -0.05 -0.6 0.0 -0.45 0.05 -0.25 0.1 -0.15 0.2 -0.05 0.3 0.05 0.4 0.15 0.45 0.15 0.55 0.2 0.65 0.2 0.75 0.2 0.85 0.15 0.95 0.1 1.05 0.05 1.1 -0.05 1.2 -1.35 1.2 -2.05 1.0 -2.45 0.95 -2.35 1.0 -1.95 1.1 -1.85 1.15 -1.7 1.2 -1.55 1.3 -1.5 1.4 -1.45 1.5 -1.45 1.6 -1.5 1.7 -1.5 1.8 -1.6 1.85 -1.7 1.95 -3.0 2.0 -2.8 2.2 -2.6 2.4 -2.55 2.45 -2.5 2.55 -2.5 2.65 -2.45 2.75 -2.45 2.85 -2.5 2.95 -2.55 3.05 -2.6 3.1 -2.7 3.2 -3.5 3.3 -3.35 3.4 -3.25 3.45 -3.15 3.55 -3.05 3.65 -3.0 3.75 -2.95 3.85 -2.95 3.95 -2.95 4.05 -2.95 4.15 -3.0 4.2 -3.05 4.3 -3.2 4.4 -3.35 4.45 -3.7 4.45 -3.95 4.4 -4.0 4.35 -4.45 4.3 -4.65 4.3 -4.6 4.4 -4.55 4.5 -4.5 4.55 -4.45 4.65 -4.45 4.75 -4.45 4.85 -4.45 4.95 -4.5 5.05 -4.55 5.15 -4.6 5.2 -4.65 5.3 -4.75 5.4 -4.95 5.45 -5.1 5.45 -5.35 5.4 -5.45 5.3 -5.5 5.2 -5.5 5.15 -5.5 5.05 -5.5 4.95 -5.5 4.85 -5.6 4.75 -6.0 4.55 -6.25 4.45 -6.45 4.4 -6.75 4.2 -6.95 4.05 -7.0 3.95 -7.0 3.85 -7.0 3.75 -7.0 3.65 -7.0 3.55 -7.0 3.45 -7.0 3.4 -6.9 3.3 -6.85 3.2 -5.95 3.15 -5.35 3.25 -5.15 3.3 -4.9 3.4 -4.75 3.4 -4.85 3.3 -5.0 3.25 -5.15 3.2 -5.35 3.15 -5.5 2.95 -5.7 2.8 -5.8 2.7 -5.85 2.6 -5.85 2.5 -5.85 2.4 -5.85 2.3 -5.85 2.2 -5.85 2.15 -5.75 2.05 -5.7 1.95 -5.6 1.95 -5.45 1.9 -4.85 2.0 -4.4 2.15 -3.9 2.3 -3.8 2.3 -3.85 2.25 -4.0 2.2 -4.35 2.15 -4.5 2.05 -4.7 1.95 -4.85 1.85 -4.95 1.75 -5.0 1.65 -5.0 1.55 -5.0 1.45 -5.0 1.4 -5.0 1.3 -4.95 1.2 -4.85 1.1 -3.95 0.95 -4.0 0.85 -4.05 0.8 -4.1 0.7 -4.1 0.6 -4.1 0.5 -4.1 0.4 -4.1 0.3 -4.1 0.2 -4.05 0.15 -3.95 0.05 -3.85 -0.05 -3.75 -0.05 -3.6 -0.1 -2.7 0.05 -2.45 0.05 -2.3 0.05 -2.95 -0.25 -3.35 -0.4 -3.45 -0.5 -3.5 -0.6 -3.5 -0.7 -3.5 -0.8 -3.5 -0.85 -3.5 -0.95 -3.5 -1.05 -3.45 -1.15 -3.35 -1.25 -3.25 -1.3 -2.7 -1.3 -2.2 -1.2 -1.95 -1.15 -2.0 -1.2 -2.1 -1.3 -2.15 -1.4 -2.2 -1.5 -2.25 -1.6 -2.25 -1.7 -2.25 -1.8 -2.25 -1.85 -2.25 -1.95 -2.25 -2.05 -2.2 -2.15 -2.1 -2.25 -2.0 -2.3 -1.35 -2.35 -1.2 -2.35 -1.3 -2.5 -1.5 -2.7 -1.55 -2.8 -1.6 -2.85 -1.6 -2.95 -1.55 -3.05 -1.5 -3.15 -1.45 -3.25 -1.2 -3.3 -0.55 -3.25 -0.45 -3.25 -0.05 -3.3 -0.05 -3.35 -0.05 -3.45 0.0 -3.55 0.1 -3.6 0.3 -3.65 1.0 -3.75 0.9 -3.8 0.75 -3.85 0.65 -3.9 0.45 -3.95 0.3 -4.05 0.15 -4.15 0.1 -4.25 0.05 -4.3 0.1 -4.4 0.1 -4.5 0.2 -4.6 0.4 -4.65 0.65 -4.65 0.8 -4.6 0.9 -4.55 1.4 -4.45 1.65 -4.45 1.55 -4.55 1.55 -4.65 1.55 -4.75 1.55 -4.85 1.55 -4.95 1.55 -5.0 1.65 -5.1 1.8 -5.15 1.8 -5.2 M0.15 -1.1 L0.05 -1.15 -0.15 -1.25 -0.6 -1.35 -0.35 -1.25 -0.2 -1.2 0.0 -1.15 0.15 -1.1" fill="#333333" fill-rule="evenodd" stroke="none"/>
    <path d="M6.55 0.5 L6.65 0.6 6.7 0.7 6.75 0.8 6.75 0.85 6.7 0.95 6.65 1.05 6.6 1.15 6.55 1.15 6.4 1.2 6.15 1.25 6.25 1.35 6.4 1.45 6.55 1.55 6.65 1.65 6.75 1.7 6.8 1.8 6.9 1.9 6.95 2.0 7.0 2.1 7.0 2.2 6.95 2.3 6.9 2.35 6.8 2.45 6.65 2.55 6.4 2.55 6.15 2.45 6.05 2.4 5.9 2.3 5.75 2.2 5.6 2.25 5.7 2.35 5.75 2.45 5.85 2.55 6.05 2.65 6.1 2.75 6.15 2.8 6.25 3.0 6.3 3.1 6.4 3.2 6.4 3.3 6.4 3.35 6.35 3.5 6.3 3.55 6.25 3.65 6.2 3.65 6.05 3.7 5.8 3.65 5.75 3.55 5.7 3.55 5.7 3.65 5.75 3.7 5.75 3.8 5.75 3.9 5.75 4.0 5.75 4.1 5.7 4.2 5.65 4.3 5.55 4.4 5.4 4.45 5.15 4.45 4.9 4.4 4.8 4.3 4.75 4.25 4.6 4.2 4.4 4.15 4.25 4.05 4.0 3.95 3.6 3.8 3.7 3.9 4.1 4.2 4.4 4.45 4.6 4.65 4.85 4.85 4.9 4.95 4.95 5.05 5.0 5.15 5.0 5.2 4.95 5.3 4.9 5.4 4.85 5.45 4.8 5.5 4.65 5.55 4.55 5.55 4.4 5.5 4.15 5.45 3.9 5.4 3.8 5.3 3.75 5.2 3.7 5.25 3.75 5.35 3.75 5.45 3.75 5.55 3.75 5.6 3.7 5.75 3.65 5.8 3.6 5.9 3.55 5.9 3.4 5.95 3.3 5.95 3.1 5.85 3.0 5.8 2.8 5.8 2.9 5.9 3.0 5.95 3.05 6.05 3.1 6.15 3.15 6.25 3.15 6.35 3.15 6.45 3.05 6.55 3.0 6.65 2.8 6.7 2.65 6.7 2.4 6.6 2.35 6.55 2.15 6.55 1.9 6.45 1.8 6.4 1.65 6.3 1.5 6.2 1.3 6.2 1.4 6.3 1.45 6.4 1.5 6.45 1.6 6.55 1.65 6.65 1.7 6.75 1.75 6.85 1.75 6.95 1.75 7.05 1.75 7.1 1.7 7.25 1.65 7.3 1.6 7.4 1.55 7.4 1.4 7.45 1.15 7.4 1.05 7.3 0.65 7.1 0.1 6.9 -0.1 6.85 -0.25 6.85 -0.1 6.95 0.05 7.05 0.15 7.15 0.3 7.3 0.5 7.5 0.55 7.6 0.65 7.7 0.65 7.8 0.65 7.9 0.65 7.95 0.65 8.05 0.65 8.15 0.65 8.25 0.6 8.35 0.55 8.45 0.45 8.5 0.3 8.55 0.05 8.45 -0.05 8.4 -0.1 8.3 -0.2 8.3 -0.35 8.25 -0.6 8.2 -0.7 8.1 -0.85 8.0 -1.05 7.9 -1.3 7.8 -1.45 7.8 -1.1 8.1 -0.7 8.35 -0.35 8.55 -0.2 8.65 -0.1 8.75 -0.05 8.85 0.05 8.95 0.1 9.05 0.15 9.15 0.15 9.2 0.15 9.3 0.1 9.4 0.05 9.5 0.0 9.6 -0.2 9.65 -0.45 9.6 -0.8 9.4 -1.25 9.25 -1.7 9.15 -1.5 9.35 -1.25 9.65 -1.1 9.8 -1.05 10.0 -1.0 10.1 -1.05 10.2 -1.05 10.3 -1.1 10.4 -1.2 10.45 -1.35 10.5 -1.75 10.45 -1.85 10.45 -2.1 10.45 -2.45 10.45 -2.6 10.4 -2.7 10.4 -3.1 10.35 -3.45 10.25 -3.75 10.15 -4.05 10.05 -4.15 10.0 -4.3 9.9 -4.45 9.8 -4.5 9.7 -4.55 9.6 -4.55 9.5 -4.55 9.4 -4.55 9.3 -4.5 9.2 -4.45 9.15 -4.2 9.05 -3.95 9.05 -3.1 9.35 -2.5 9.55 -2.3 9.65 -2.35 9.6 -2.5 9.5 -2.6 9.4 -2.7 9.3 -2.75 9.2 -2.9 9.05 -3.0 8.95 -3.1 8.85 -3.25 8.75 -3.35 8.65 -3.45 8.55 -3.45 8.45 -3.45 8.4 -3.45 8.3 -3.45 8.2 -3.4 8.1 -3.3 8.05 -3.1 8.0 -2.7 8.05 -2.4 8.1 -2.15 8.2 -2.15 8.15 -2.25 8.05 -2.35 7.95 -2.4 7.9 -2.5 7.8 -2.5 7.7 -2.5 7.6 -2.5 7.5 -2.45 7.4 -2.45 7.3 -2.4 7.2 -2.35 7.15 -2.1 7.05 -1.35 7.05 -1.2 7.05 -1.3 7.0 -1.4 6.9 -1.5 6.8 -1.55 6.7 -1.6 6.65 -1.6 6.55 -1.6 6.45 -1.6 6.35 -1.55 6.25 -1.5 6.15 -1.45 6.1 -1.35 6.05 -1.2 6.05 0.2 6.15 0.25 6.15 0.2 6.05 0.15 6.0 0.1 5.9 0.0 5.8 0.0 5.7 0.0 5.6 0.05 5.5 0.1 5.4 0.15 5.35 0.25 5.3 0.4 5.3 0.75 5.2 0.7 5.15 0.65 5.05 0.65 4.95 0.65 4.85 0.65 4.75 0.7 4.65 0.75 4.55 0.8 4.5 0.9 4.5 1.05 4.45 1.55 4.45 1.65 4.4 1.6 4.3 1.55 4.2 1.5 4.15 1.5 4.05 1.5 3.95 1.6 3.85 1.65 3.75 1.9 3.7 2.05 3.7 2.25 3.7 2.4 3.7 2.3 3.6 2.2 3.5 2.1 3.4 2.05 3.3 2.0 3.2 2.0 3.15 2.0 3.05 2.0 2.95 2.1 2.85 2.15 2.75 2.4 2.7 2.9 2.7 3.25 2.7 3.25 2.65 3.25 2.55 3.25 2.4 3.25 2.3 3.25 2.2 3.25 2.1 3.25 2.0 3.3 1.9 3.35 1.8 3.45 1.7 3.5 1.65 3.5 1.55 3.85 1.15 4.05 0.9 4.4 0.6 4.75 0.3 4.75 0.2 4.75 0.15 4.75 0.05 4.75 -0.05 4.85 -0.15 4.9 -0.25 5.15 -0.3 5.35 -0.25 5.5 -0.15 5.6 -0.05 5.65 0.05 5.95 0.2 6.35 0.4 6.55 0.5" fill="#333333" fill-rule="evenodd" stroke="none"/>
    <path d="M-0.35 13.7 L0.45 13.75 0.95 13.85 1.1 14.0 1.15 14.15 1.2 14.3 1.15 14.45 1.1 14.6 0.95 14.75 0.7 14.85 -0.7 14.8 -1.25 14.65 -1.35 14.5 -1.4 14.35 -1.4 14.2 -1.35 14.05 -1.25 13.95 -1.15 13.9 -0.95 13.85 -0.7 13.8 -0.6 13.75 -0.35 13.75 -0.35 13.7" fill="#333333" fill-rule="evenodd" stroke="none"/>
    <path d="M-1.55 24.7 L-1.45 24.6 -1.1 24.35 -0.85 24.3 -0.7 24.45 -0.7 24.9 -0.7 25.35 -0.7 25.8 -0.7 25.95 -0.75 26.1 -0.85 26.25 -1.05 26.25 -1.15 26.1 -1.2 25.8 -1.2 25.5 -1.2 25.2 -1.2 25.05 -1.3 24.95 -1.45 24.85 -1.55 24.7" fill="#333333" fill-rule="evenodd" stroke="none"/>
    <path d="M1.25 25.4 L1.25 25.55 1.3 25.7 1.4 25.85 1.4 26.0 1.35 26.15 1.25 26.2 1.05 26.25 0.8 26.15 0.6 26.0 0.5 25.85 0.45 25.7 0.45 25.55 0.4 25.4 0.25 25.25 0.2 25.1 0.15 24.95 0.1 24.8 0.05 24.65 0.05 24.5 0.1 24.35 0.2 24.2 0.45 24.15 0.45 24.1 0.7 24.2 0.8 24.35 0.85 24.5 0.9 24.65 0.95 24.8 1.05 24.95 1.15 25.1 1.25 25.25 1.25 25.4" fill="#333333" fill-rule="evenodd" stroke="none"/>
    <path d="M0.35 15.1 L1.05 15.15 1.2 15.2 1.25 15.25 1.3 15.35 1.3 15.4 1.3 15.5 1.3 15.55 1.2 15.65 1.05 15.7 0.65 15.7 -1.15 15.75 -1.3 15.7 -1.4 15.6 -1.45 15.5 -1.45 15.4 -1.45 15.3 -1.4 15.25 -1.35 15.15 -1.25 15.1 -1.15 15.1 0.35 15.1" fill="#333333" fill-rule="evenodd" stroke="none"/>
    <path d="M-2.7 -26.8 L-2.3 -26.65 -2.15 -26.5 -2.0 -26.25 -1.95 -26.05 -1.9 -21.8 -2.0 -17.15 -2.0 -14.15 -1.95 -13.95 -1.9 -13.7 Q-1.7 -12.2 -1.75 -10.7 L-1.85 -7.25 -2.05 -4.85 -2.2 -4.7 -2.4 -4.45 -2.75 -4.25 -2.95 -4.2 -3.05 -4.25 -3.1 -4.45 -3.25 -4.7 -3.3 -4.85 -3.6 -9.3 -3.5 -14.15 -3.3 -16.95 -3.45 -20.2 -3.55 -23.85 -3.45 -26.25 -3.3 -26.5 -3.15 -26.65 -2.7 -26.75 -2.7 -26.8" fill="#333333" fill-rule="evenodd" stroke="none"/>
    <path d="M2.85 -26.7 L3.05 -26.5 3.2 -26.3 3.25 -26.15 3.3 -25.95 3.35 -25.75 3.3 -17.9 3.3 -9.8 3.2 -5.15 3.2 -4.95 3.25 -4.75 3.25 -4.55 3.15 -4.4 3.05 -4.3 2.8 -4.2 2.5 -4.35 2.2 -4.5 2.05 -4.7 2.0 -4.9 Q1.75 -8.9 1.75 -12.95 L1.8 -21.2 1.75 -25.9 1.8 -26.05 1.85 -26.25 1.95 -26.45 2.1 -26.65 2.3 -26.75 2.55 -26.8 2.85 -26.7" fill="#333333" fill-rule="evenodd" stroke="none"/>
    <path d="M6.45 -30.5 L7.7 -28.05 7.7 -25.25 Q6.25 -24.05 4.75 -23.0 L4.35 -22.7 2.3 -21.3 1.45 -20.75 Q-1.3 -20.45 -3.45 -22.2 L-3.75 -22.85 -7.55 -25.1 -7.55 -25.7 -7.45 -27.75 -7.4 -28.35 -7.3 -28.85 Q-7.15 -29.8 -6.45 -30.5 L6.45 -30.5" fill="#a6b8bf" fill-rule="evenodd" stroke="none"/>
    <path d="M0.85 -25.7 L0.85 -25.8 0.85 -25.9 0.9 -25.95 1.0 -26.05 1.1 -26.15 1.25 -26.15 1.5 -26.15 2.0 -26.15 2.2 -26.1 2.3 -26.0 2.35 -25.9 2.4 -25.8 2.4 -25.75 2.4 -25.65 2.35 -25.35 2.35 -24.9 2.35 -24.4 2.35 -24.3 2.3 -24.2 2.25 -24.15 2.1 -23.95 2.0 -23.75 1.9 -23.65 1.75 -23.55 1.65 -23.5 1.5 -23.5 1.25 -23.45 1.0 -23.4 0.7 -23.35 0.6 -23.3 0.5 -23.3 0.0 -23.3 -0.25 -23.3 -0.85 -23.35 -1.05 -23.4 -1.25 -23.5 -1.3 -23.6 -1.4 -23.7 -1.4 -23.8 -1.45 -23.9 -1.55 -24.0 -1.65 -24.05 -1.75 -24.15 -1.75 -24.25 -1.75 -24.35 -1.75 -24.45 -1.75 -24.65 -1.75 -24.9 -1.75 -25.0 -1.7 -25.1 -1.65 -25.2 -1.6 -25.3 -1.55 -25.4 -1.5 -25.45 -1.45 -25.55 -1.35 -25.65 -1.25 -25.75 -1.1 -25.75 -0.9 -25.7 -0.8 -25.6 -0.75 -25.5 -0.6 -25.4 -0.5 -25.3 -0.3 -25.15 -0.05 -24.85 0.1 -24.8 0.25 -24.9 0.35 -25.0 0.4 -25.05 0.5 -25.15 0.6 -25.25 0.75 -25.25 0.95 -25.25 0.95 -25.3 0.85 -25.4 0.85 -25.5 0.85 -25.6 0.85 -25.7" fill="#663333" fill-opacity="0.2" fill-rule="evenodd" stroke="none"/>
    <path d="M7.5 -27.25 L7.6 -27.35 7.7 -27.45 7.75 -27.55 7.85 -27.65 8.0 -27.7 8.15 -27.7 8.15 -27.75 8.35 -27.65 8.5 -27.55 8.55 -27.45 8.6 -27.4 8.6 -27.3 8.6 -27.2 8.6 -27.1 8.6 -27.0 8.55 -26.9 8.5 -26.85 8.4 -26.7 8.35 -26.65 8.3 -26.45 8.0 -26.05 7.6 -25.8 7.55 -25.7 7.5 -25.6 7.35 -25.4 7.25 -25.3 3.45 -22.6 0.2 -20.85 -0.25 -20.65 -0.35 -20.55 -0.45 -20.45 -0.6 -20.35 -0.75 -20.25 -0.85 -20.2 -1.0 -20.15 -1.1 -20.15 -1.3 -20.25 -1.45 -20.3 -1.5 -20.4 -1.55 -20.5 -1.55 -20.6 -1.55 -20.8 -1.55 -21.0 -1.55 -21.05 -1.55 -21.15 -1.55 -21.25 -1.5 -21.35 -1.45 -21.45 -1.4 -21.55 -1.3 -21.65 -1.15 -21.7 -1.05 -21.75 -0.8 -21.8 -0.7 -21.9 -0.55 -22.0 -0.5 -22.05 3.4 -24.4 5.95 -26.1 6.1 -26.2 6.25 -26.3 6.35 -26.4 6.45 -26.45 6.7 -26.65 6.9 -26.75 7.0 -26.75 7.2 -26.75 7.2 -26.8 7.25 -26.9 7.4 -27.1 7.5 -27.25" fill="#663333" fill-opacity="0.2" fill-rule="evenodd" stroke="none"/>
    <path d="M5.4 -31.25 L5.4 -31.3 5.6 -31.25 5.7 -31.15 5.75 -31.15 5.9 -31.15 6.1 -31.05 6.2 -31.0 6.25 -30.9 6.4 -30.8 6.45 -30.7 6.5 -30.6 6.55 -30.5 6.6 -30.4 6.6 -30.3 6.65 -30.25 6.8 -29.95 6.95 -29.65 7.2 -29.3 7.35 -29.1 7.35 -29.0 7.45 -28.9 7.5 -28.8 7.5 -28.75 7.55 -28.65 7.6 -28.55 7.6 -28.25 7.6 -27.95 7.55 -27.6 7.5 -27.25 7.55 -27.15 7.6 -27.05 7.65 -26.95 7.65 -26.85 7.7 -26.75 7.75 -26.65 7.8 -26.55 7.8 -26.4 7.8 -26.3 7.8 -26.2 7.8 -26.1 7.8 -26.0 7.75 -25.9 7.7 -25.8 7.6 -25.75 7.4 -25.65 7.25 -25.65 7.0 -25.75 6.9 -25.8 6.85 -25.9 6.8 -26.0 6.8 -26.1 6.8 -26.2 6.8 -26.3 6.55 -26.75 6.2 -27.4 5.8 -28.15 5.75 -28.25 5.75 -28.35 5.7 -28.45 5.65 -28.55 5.6 -28.65 5.6 -28.75 5.55 -28.8 5.5 -28.9 5.45 -29.0 5.4 -29.1 5.35 -29.3 5.3 -29.4 5.3 -29.45 5.25 -29.55 5.25 -29.65 5.2 -29.75 5.15 -29.85 5.1 -30.05 5.05 -30.15 5.0 -30.25 4.95 -30.4 4.95 -30.5 4.95 -30.7 4.95 -30.8 4.95 -30.9 4.95 -30.95 5.0 -31.05 5.1 -31.15 5.2 -31.25 5.25 -31.25 5.4 -31.25" fill="#663333" fill-opacity="0.2" fill-rule="evenodd" stroke="none"/>
    <path d="M1.6 -20.95 L1.5 -20.85 1.45 -20.75 1.35 -20.7 1.15 -20.65 0.6 -20.6 0.55 -20.6 0.15 -20.55 -0.05 -20.6 -0.25 -20.7 -0.35 -20.8 -0.45 -20.9 -0.5 -21.0 -0.5 -21.05 -0.45 -21.15 -0.45 -21.25 -0.8 -21.55 Q-1.05 -21.6 -1.3 -21.75 L-1.65 -22.0 -2.15 -22.3 -3.0 -22.85 -4.0 -23.25 -5.1 -24.15 -5.85 -24.55 -6.5 -24.85 -6.55 -24.95 -6.7 -25.05 -6.9 -25.2 -7.0 -25.3 -7.1 -25.3 -7.3 -25.4 -7.35 -25.45 -7.5 -25.65 -7.5 -25.75 -7.5 -25.85 -7.4 -25.95 -7.25 -26.0 -7.1 -25.95 -7.0 -25.85 -6.85 -25.85 -6.75 -25.8 -6.6 -25.75 -5.55 -25.15 -4.8 -24.8 -4.1 -24.35 -3.75 -24.05 -3.6 -24.0 Q-2.55 -23.7 -1.7 -23.1 L-0.65 -22.4 Q-0.35 -22.2 -0.05 -22.15 L0.7 -21.75 1.35 -21.5 1.5 -21.4 1.55 -21.3 1.6 -21.25 1.6 -21.15 1.6 -21.05 1.6 -20.95" fill="#663333" fill-opacity="0.2" fill-rule="evenodd" stroke="none"/>
    <path d="M1.35 -29.4 L1.4 -29.3 1.45 -29.25 1.45 -29.15 1.5 -29.05 1.55 -28.95 1.55 -28.85 1.6 -28.75 1.6 -28.65 1.6 -28.55 1.6 -28.5 1.6 -28.4 1.6 -28.3 1.65 -28.2 1.7 -28.1 1.7 -27.9 1.7 -27.75 1.7 -27.55 1.65 -27.25 1.6 -27.15 1.55 -27.05 1.45 -27.0 1.2 -26.9 1.2 -26.8 1.2 -26.75 1.25 -26.65 1.25 -26.55 1.2 -26.45 1.1 -26.35 1.0 -26.25 0.9 -26.2 0.75 -26.15 0.5 -26.25 0.4 -26.3 0.25 -26.4 -1.1 -26.4 -1.3 -26.5 -1.45 -26.55 -1.5 -26.65 -1.55 -26.75 -1.55 -26.85 -1.55 -26.95 -1.5 -27.05 -1.5 -27.15 -1.45 -27.2 -1.35 -27.3 -1.25 -27.4 Q-1.15 -27.85 -1.2 -28.25 L-1.2 -29.2 -1.2 -30.3 -1.15 -30.4 -1.1 -30.5 -1.05 -30.6 -0.95 -30.7 -0.9 -30.8 -0.9 -30.9 -0.85 -30.95 -0.75 -31.05 -0.5 -31.25 -0.35 -31.25 -0.25 -31.25 -0.05 -31.2 0.05 -31.1 0.2 -30.9 0.45 -30.75 0.6 -30.6 0.7 -30.65 0.75 -30.65 0.9 -30.7 1.1 -30.65 1.2 -30.55 1.25 -30.45 1.3 -30.35 1.35 -30.15 1.35 -30.0 1.35 -29.8 1.35 -29.5 1.35 -29.4" fill="#663333" fill-opacity="0.2" fill-rule="evenodd" stroke="none"/>
    <path d="M-0.4 -30.8 L-0.3 -30.7 -0.3 -30.6 -0.25 -30.5 -0.25 -30.3 -0.25 -30.15 -0.2 -30.05 -0.15 -29.95 -0.15 -29.85 -0.15 -28.75 -0.1 -27.4 -0.15 -26.4 -0.2 -26.3 -0.25 -26.2 -0.4 -26.1 -0.6 -26.05 -0.8 -26.1 -0.95 -26.2 -1.05 -26.3 -1.1 -27.5 -1.05 -28.9 -1.05 -29.95 -1.05 -30.05 -1.0 -30.25 -0.95 -30.4 -0.95 -30.6 -0.9 -30.7 -0.8 -30.8 -0.6 -30.85 -0.4 -30.8" fill="#663333" fill-opacity="0.2" fill-rule="evenodd" stroke="none"/>
    <path d="M0.3 -26.0 L0.4 -25.9 0.45 -25.8 0.45 -25.75 0.45 -25.65 0.4 -25.55 0.4 -25.45 0.35 -25.35 0.3 -25.25 0.2 -25.15 0.1 -25.1 -0.05 -25.05 -0.25 -25.0 -0.35 -24.95 -0.6 -24.95 -0.8 -25.0 -0.9 -25.1 -0.9 -25.2 -0.95 -25.3 -0.95 -25.4 -0.95 -25.5 -1.0 -25.55 -0.95 -25.65 -0.95 -25.75 -0.95 -25.85 -0.9 -25.95 -0.8 -26.05 -0.6 -26.1 -0.35 -26.1 0.15 -26.05 0.3 -26.0" fill="#ffffff" fill-opacity="0.2" fill-rule="evenodd" stroke="none"/>
    <path d="M0.05 -25.8 L0.05 -25.75 0.05 -25.65 0.05 -25.55 0.0 -25.45 0.0 -25.35 -0.05 -25.25 -0.1 -25.15 -0.25 -25.1 -0.35 -25.1 -0.5 -25.15 -0.65 -25.2 -0.7 -25.3 -0.75 -25.4 -0.7 -25.5 -0.7 -25.55 -0.6 -25.65 -0.55 -25.75 -0.55 -25.85 -0.5 -25.95 -0.45 -26.0 -0.4 -26.05 -0.25 -26.05 -0.1 -26.0 0.0 -25.9 0.05 -25.8" fill="#ffffff" fill-opacity="0.2" fill-rule="evenodd" stroke="none"/>
    <path d="M6.5 -30.6 L6.55 -30.5 6.6 -30.4 6.65 -30.3 6.65 -30.25 6.6 -30.15 6.6 -30.05 6.5 -29.95 6.4 -29.85 6.35 -29.8 Q0.15 -29.75 -6.0 -29.95 L-6.2 -30.0 -6.45 -30.1 -6.55 -30.2 -6.55 -30.3 -6.55 -30.4 -6.55 -30.45 -6.45 -30.55 -6.4 -30.65 -6.25 -30.65 -6.15 -30.65 4.0 -30.75 6.15 -30.75 6.35 -30.7 6.5 -30.6" fill="#ffffff" fill-opacity="0.2" fill-rule="evenodd" stroke="none"/>
    <path d="M-4.5 -31.2 L-4.3 -31.15 -4.2 -31.05 -4.15 -30.95 -4.05 -30.85 -3.95 -30.75 -3.9 -30.65 -3.9 -30.55 -3.95 -30.5 -4.05 -30.4 -4.15 -30.3 -4.4 -30.2 -4.45 -30.1 -4.55 -30.0 -4.7 -29.9 -5.0 -29.7 -5.15 -29.55 -5.3 -29.45 -5.5 -29.4 -5.75 -29.45 -5.8 -29.4 -5.85 -29.3 -5.9 -29.1 -5.9 -29.0 -5.95 -28.9 -6.0 -28.8 -6.05 -28.75 -6.05 -28.65 -6.15 -28.45 -6.15 -28.35 -6.2 -28.25 -6.2 -28.15 -6.2 -28.05 -6.25 -28.0 -6.25 -27.9 -6.3 -27.8 -6.35 -27.7 -6.4 -27.6 -6.4 -27.5 -6.4 -27.4 -6.45 -27.3 -6.5 -27.25 -6.6 -27.05 -6.75 -26.85 -6.95 -26.55 -7.0 -26.5 -7.05 -26.4 -7.05 -26.3 -7.1 -26.2 -7.15 -26.1 -7.15 -26.0 -7.2 -25.9 -7.25 -25.8 -7.3 -25.75 -7.35 -25.65 -7.4 -25.55 -7.45 -25.45 -7.5 -25.35 -7.6 -25.25 -7.7 -25.2 -7.85 -25.15 -8.05 -25.25 -8.2 -25.3 -8.25 -25.4 -8.3 -25.5 -8.3 -25.6 -8.3 -25.7 -8.3 -25.8 -8.3 -25.9 -8.25 -26.0 -8.2 -26.05 -8.2 -26.15 -8.15 -26.25 -8.15 -26.35 -8.15 -26.45 -8.15 -26.55 -8.15 -26.65 -8.15 -26.7 -8.1 -26.8 -8.0 -26.9 -8.0 -27.0 -7.95 -27.1 -7.95 -27.2 -7.85 -27.3 -7.75 -27.4 -7.75 -27.5 -7.7 -27.55 -7.65 -27.65 -7.65 -27.75 -7.6 -27.85 -7.55 -27.95 -7.5 -28.15 -7.45 -28.3 -7.4 -28.5 -7.35 -28.6 -7.25 -28.8 -7.15 -29.0 -7.05 -29.15 -7.0 -29.35 -6.95 -29.55 -6.9 -29.8 -6.9 -30.0 -6.9 -30.1 -6.85 -30.2 -6.8 -30.3 -6.75 -30.35 -6.65 -30.4 -6.5 -30.4 -6.4 -30.45 -6.35 -30.55 -6.3 -30.65 -6.25 -30.7 -6.25 -30.75 -6.1 -30.75 -5.95 -30.7 -5.9 -30.6 -5.85 -30.55 -5.55 -30.5 -5.25 -30.7 -4.9 -31.0 -4.75 -31.15 -4.65 -31.15 -4.5 -31.2" fill="#ffffff" fill-opacity="0.2" fill-rule="evenodd" stroke="none"/>
    <path d="M1.9 -30.8 L2.05 -30.75 2.15 -30.65 2.2 -30.55 2.3 -29.15 2.3 -27.65 2.25 -26.65 2.25 -26.55 2.15 -26.45 2.05 -26.4 1.9 -26.35 1.7 -26.4 1.6 -26.5 1.5 -26.6 1.5 -28.0 1.55 -29.5 1.6 -30.55 1.6 -30.6 1.7 -30.7 1.75 -30.8 1.9 -30.8" fill="#ffffff" fill-opacity="0.2" fill-rule="evenodd" stroke="none"/>
    <path d="M-1.65 -30.95 L-1.5 -30.85 -1.45 -30.75 -1.4 -30.65 -1.35 -30.55 -1.35 -30.5 -1.35 -30.3 -1.35 -30.2 -1.4 -30.1 -1.3 -30.0 -1.25 -29.9 -1.15 -29.8 -1.15 -29.75 -1.1 -29.65 -1.1 -29.55 -1.15 -29.45 -1.2 -29.35 -1.25 -29.25 -1.4 -29.15 -1.6 -29.1 -2.25 -29.05 -2.35 -28.95 -2.5 -28.85 -2.55 -28.8 -2.75 -28.7 -2.75 -28.65 -2.75 -28.55 -2.8 -28.45 -2.8 -28.35 -2.85 -28.25 -2.85 -28.15 -2.85 -28.05 -2.9 -28.0 -2.9 -27.9 -3.0 -27.7 -3.15 -27.5 -3.3 -27.3 -3.35 -27.25 -3.4 -27.15 -3.5 -27.05 -3.65 -26.95 -3.9 -26.85 -4.05 -26.8 -4.25 -26.75 -4.35 -26.65 -4.45 -26.55 -6.35 -26.65 -7.1 -26.9 -7.35 -26.85 -7.6 -26.85 -7.85 -26.9 -8.0 -27.0 -8.05 -27.1 -8.05 -27.2 -8.1 -27.3 -8.1 -27.4 -8.1 -27.55 -8.1 -27.65 -8.05 -27.75 -8.05 -27.85 -8.0 -27.95 -7.85 -28.05 -7.75 -28.15 -7.7 -28.2 -7.65 -28.3 -7.6 -28.4 -7.6 -28.5 -7.55 -28.7 -7.5 -28.9 -7.5 -29.05 -7.5 -29.15 -7.5 -29.25 -7.45 -29.35 -7.4 -29.45 -7.25 -29.75 -7.05 -30.1 -6.95 -30.3 -6.9 -30.4 -6.75 -30.55 -6.75 -30.65 -6.7 -30.75 -6.65 -30.85 -6.5 -30.95 -6.25 -31.0 -6.05 -30.95 -5.9 -30.85 -5.85 -30.75 -5.8 -30.65 -5.75 -30.65 -5.55 -30.65 -5.5 -30.7 -5.35 -30.75 -5.2 -30.65 -4.7 -30.65 -3.55 -30.9 -1.85 -31.0 -1.65 -30.95" fill="#ffffff" fill-opacity="0.2" fill-rule="evenodd" stroke="none"/>
    <path d="M7.05 -31.8 L7.45 -31.25 Q7.2 -31.55 7.45 -30.85 L7.75 -29.75 8.0 -28.95 8.25 -28.35 8.4 -28.0 8.5 -27.6 8.6 -27.25 8.8 -26.85 8.95 -26.5 9.05 -25.95 8.85 -25.55 8.55 -25.15 7.65 -24.3 7.3 -24.0 5.9 -23.05 3.95 -21.85 2.9 -21.15 1.95 -20.35 Q0.3 -19.65 -0.55 -20.05 L-2.2 -20.95 -3.55 -21.85 -4.65 -22.6 -5.85 -23.35 -7.1 -24.25 -7.9 -25.0 -8.45 -25.4 -8.55 -25.45 Q-9.05 -25.5 -9.05 -25.95 L-8.9 -26.75 Q-8.75 -27.0 -8.7 -27.5 L-8.4 -28.25 -8.2 -28.55 -7.9 -29.3 -7.7 -29.9 -7.55 -30.25 -7.45 -30.65 -7.45 -31.0 -7.45 -31.15 -7.2 -31.65 -6.0 -31.75 -4.4 -31.75 -2.8 -31.75 -1.2 -31.75 0.4 -31.85 2.0 -31.85 3.6 -31.85 5.2 -31.85 7.05 -31.8 M3.25 -30.45 L1.8 -30.5 1.55 -30.55 0.65 -30.65 -0.05 -30.6 -1.5 -30.5 -3.05 -30.5 -4.65 -30.5 -5.0 -30.55 -5.45 -30.55 -6.35 -30.5 -6.7 -30.15 -6.9 -29.75 -7.25 -28.65 -7.5 -27.85 -7.6 -27.5 -7.6 -27.15 -7.7 -26.75 -7.8 -26.2 -7.8 -26.1 -7.4 -25.85 -6.65 -25.3 -5.6 -24.5 -4.4 -23.7 -2.95 -22.75 -1.65 -21.9 Q-1.1 -21.5 -0.35 -21.2 L-0.25 -21.15 1.05 -21.55 2.05 -22.25 3.2 -23.05 4.35 -23.8 5.3 -24.65 5.8 -25.05 6.4 -25.6 7.1 -26.05 7.05 -26.75 6.95 -27.2 6.9 -27.55 6.8 -28.05 6.05 -30.05 6.0 -30.2 5.75 -30.5 4.85 -30.45 3.25 -30.45" fill="#333333" fill-rule="evenodd" stroke="none"/>
    <path d="M0.05 -26.75 Q0.7 -26.75 1.2 -26.3 L1.65 -25.25 Q1.65 -24.65 1.2 -24.2 0.7 -23.75 0.05 -23.75 -0.6 -23.75 -1.05 -24.2 -1.55 -24.65 -1.55 -25.25 -1.55 -25.85 -1.05 -26.3 L0.05 -26.75 M0.65 -24.75 Q1.1 -25.15 0.65 -25.75 -0.15 -26.1 -0.95 -25.75 L-0.95 -24.75 Q-0.15 -24.4 0.65 -24.75" fill="#333333" fill-rule="evenodd" stroke="none"/>
    <path d="M4.35 -25.15 L4.35 -25.25 4.4 -25.35 4.5 -25.4 4.55 -25.4 4.65 -25.3 4.65 -25.2 4.65 -25.1 4.7 -25.0 4.8 -24.9 4.9 -24.8 5.65 -24.35 5.95 -24.1 6.2 -23.8 6.15 -23.75 6.0 -23.65 5.5 -24.0 5.05 -24.3 4.7 -24.6 4.4 -24.9 4.35 -25.0 4.35 -25.05 4.35 -25.15" fill="#333333" fill-rule="evenodd" stroke="none"/>
    <path d="M5.0 -26.3 L5.15 -26.25 5.3 -26.15 5.35 -26.05 5.45 -26.0 5.85 -25.85 6.2 -25.65 6.3 -25.6 6.6 -25.55 6.95 -25.45 7.15 -25.35 7.25 -25.25 7.3 -25.15 7.35 -25.05 7.4 -24.95 7.45 -24.9 7.4 -24.8 7.25 -24.75 7.1 -24.85 6.9 -24.9 6.4 -25.05 6.05 -25.15 5.75 -25.35 5.55 -25.45 5.3 -25.5 5.15 -25.6 5.05 -25.7 4.95 -25.8 4.9 -25.9 4.8 -26.0 4.8 -26.05 4.8 -26.15 4.85 -26.25 5.0 -26.3" fill="#333333" fill-rule="evenodd" stroke="none"/>
    <path d="M-5.75 -27.55 L-5.8 -27.45 -5.9 -27.35 -6.05 -27.25 -6.15 -27.15 -6.25 -27.05 -6.3 -27.0 -6.45 -26.9 -6.55 -26.8 -6.6 -26.7 -6.75 -26.65 -6.95 -26.65 -7.0 -26.75 -7.0 -26.85 -6.9 -27.05 -6.75 -27.2 -6.55 -27.4 -6.45 -27.5 -6.35 -27.6 -6.3 -27.65 -6.3 -27.7 -6.15 -27.7 -6.15 -27.75 -6.05 -27.7 -5.85 -27.65 -5.75 -27.55" fill="#333333" fill-rule="evenodd" stroke="none"/>
    <path d="M-6.0 -26.6 L-6.0 -26.7 -5.9 -26.7 -5.85 -26.7 -5.65 -26.6 -5.6 -26.5 -5.6 -26.4 -5.55 -26.3 -5.55 -26.25 -5.6 -26.15 -5.7 -26.05 -5.75 -25.95 -5.9 -25.9 -6.1 -25.95 -6.25 -26.05 -6.3 -26.15 -6.15 -26.25 -6.1 -26.3 -6.05 -26.4 -6.0 -26.5 -6.0 -26.6" fill="#333333" fill-rule="evenodd" stroke="none"/>
    <path d="M-1.15 -30.75 L-1.15 -30.65 -1.15 -30.55 -1.1 -30.45 -1.0 -29.05 -1.0 -27.65 -1.05 -26.8 -1.05 -26.7 -1.1 -26.6 -1.15 -26.5 -1.1 -26.4 -1.05 -26.3 -1.05 -26.25 -1.05 -26.15 -1.05 -26.05 -1.1 -25.95 -1.2 -25.85 -1.35 -25.85 -1.45 -25.95 -1.45 -26.05 -1.45 -26.15 -1.5 -26.2 -1.55 -26.3 -1.6 -26.4 -1.65 -26.5 -1.6 -26.6 -1.55 -26.7 -1.5 -26.8 -1.45 -26.9 -1.5 -28.2 -1.5 -29.5 -1.45 -30.35 -1.4 -30.45 -1.35 -30.55 -1.35 -30.65 -1.35 -30.75 -1.35 -30.8 -1.2 -30.8 -1.15 -30.75" fill="#333333" fill-rule="evenodd" stroke="none"/>
    <path d="M1.35 -31.05 L1.5 -31.0 1.55 -30.9 1.6 -30.8 1.65 -30.7 1.65 -29.2 1.6 -27.5 1.55 -26.5 1.5 -26.4 1.55 -26.3 1.6 -26.2 1.65 -26.1 1.6 -26.05 1.4 -26.0 1.3 -26.05 1.25 -26.15 1.2 -26.25 1.2 -26.35 1.15 -26.45 1.1 -26.55 1.05 -28.05 1.05 -29.65 1.05 -30.75 1.05 -30.85 1.1 -30.95 1.2 -31.0 1.35 -31.0 1.35 -31.05" fill="#333333" fill-rule="evenodd" stroke="none"/>
  </g>
</svg>
