<?xml version="1.0" encoding="UTF-8" standalone="no"?>
<svg xmlns:xlink="http://www.w3.org/1999/xlink" height="1.75px" width="237.95px" xmlns="http://www.w3.org/2000/svg">
  <g transform="matrix(1.0, 0.0, 0.0, 1.0, 5.5, -20.4)">
    <path d="M133.5 21.3 L135.6 21.25 137.4 21.1 139.3 21.35 141.35 21.5 143.4 21.15 145.4 21.3 147.55 21.55 149.65 21.35 151.5 21.4 153.5 21.55 155.3 21.15 157.25 21.0 159.45 21.25 161.55 21.3 163.45 21.4 165.45 21.4 167.55 21.3 169.7 21.3 171.65 21.4 173.5 21.6 175.5 21.5 177.5 21.2 179.75 21.2 181.6 21.05 183.35 20.95 185.4 21.3 187.45 21.5 189.6 21.55 191.5 21.55 193.4 21.35 195.4 21.25 197.45 21.35 199.5 21.3 201.6 21.1 Q202.65 20.9 203.65 21.1 L205.55 21.5 207.65 21.5 209.55 21.3 211.5 21.25 213.6 21.2 215.3 21.3 217.2 21.2 219.5 21.05 221.35 21.25 223.05 21.3 225.3 21.3 227.7 21.3 229.85 21.3 231.0 21.25 231.95 21.3 M-5.0 21.3 L-2.8 21.25 -0.8 21.05 Q-0.05 20.9 0.95 21.05 L2.9 21.3 4.95 21.5 7.15 21.4 9.05 21.25 11.0 21.1 Q12.05 20.9 13.0 21.1 L14.9 21.25 16.9 21.2 18.9 21.25 20.9 21.25 23.0 21.35 25.2 21.25 27.15 21.0 28.85 20.9 30.95 21.0 33.05 21.0 34.9 20.9 36.9 20.95 38.95 21.1 40.95 21.35 42.85 21.6 44.8 21.4 46.9 21.2 48.75 21.45 50.65 21.25 52.9 21.15 55.0 21.2 56.95 21.4 58.95 21.5 61.25 21.3 63.25 21.1 65.1 20.9 66.95 20.9 68.85 21.15 71.05 21.2 73.05 21.25 74.95 21.45 77.0 21.25 78.95 20.95 Q79.85 20.8 81.05 20.95 L82.95 21.2 84.9 21.4 87.15 21.35 89.0 21.15 91.15 21.2 92.55 21.3 93.45 21.3" fill="none" stroke="#90c7b7" stroke-linecap="round" stroke-linejoin="round" stroke-opacity="0.5019608" stroke-width="1.0"/>
  </g>
</svg>
