<?xml version="1.0" encoding="UTF-8" standalone="no"?>
<svg xmlns:xlink="http://www.w3.org/1999/xlink" height="119.0px" width="154.0px" xmlns="http://www.w3.org/2000/svg">
  <g transform="matrix(1.0, 0.0, 0.0, 1.0, 1.0, 1.0)">
    <path d="M150.5 43.35 L151.45 47.25 151.9 50.15 152.0 51.5 151.75 55.5 151.25 59.5 150.45 63.5 149.4 67.35 148.45 70.2 146.7 74.4 144.8 77.9 142.75 81.3 140.5 84.6 138.0 87.75 135.25 90.8 133.1 93.0 130.5 95.5 127.4 98.0 124.2 100.4 120.85 102.6 117.4 104.65 113.85 106.55 110.2 108.25 106.5 109.75 102.75 111.15 98.9 112.35 95.05 113.4 91.2 114.3 87.35 115.05 83.4 115.65 79.4 116.15 75.4 116.5 71.4 116.75 68.45 116.9 64.0 117.0 60.0 116.9 56.05 116.7 52.1 116.35 48.15 115.85 44.25 115.25 40.4 114.45 36.6 113.5 32.85 112.4 29.15 111.1 26.35 110.0 22.0 108.0 18.55 106.05 15.25 103.95 12.15 101.6 9.25 98.95 6.7 96.0 Q5.5 94.5 4.45 92.8 L2.65 89.35 Q1.85 87.55 1.3 85.6 L0.45 81.65 0.05 78.65 0.0 76.5 0.2 72.5 Q0.35 70.55 0.65 68.55 L1.35 64.65 2.35 60.75 3.2 57.8 4.9 53.05 6.45 49.4 8.15 45.85 10.0 42.4 12.05 39.0 14.3 35.65 16.1 33.2 19.0 29.5 21.6 26.55 24.35 23.7 27.2 21.0 30.25 18.45 33.4 16.0 36.75 13.75 40.2 11.75 Q41.95 10.8 43.75 9.95 45.55 9.1 47.35 8.35 L51.1 7.05 54.95 5.95 58.9 5.1 62.9 4.5 65.95 4.15 70.0 4.0 73.85 3.0 77.75 2.0 81.8 1.0 84.85 0.25 86.0 0.0 89.9 0.0 93.85 0.05 97.8 0.2 100.8 0.35 105.55 0.75 109.45 1.3 113.35 2.1 117.15 3.1 Q119.05 3.7 120.9 4.45 122.8 5.2 124.55 6.2 L127.1 7.85 129.5 10.0 131.95 13.0 134.4 16.1 136.85 19.25 139.2 22.45 141.5 25.7 143.65 29.05 145.65 32.45 147.45 35.95 149.1 39.55 150.5 43.35 M93.0 8.0 Q91.3 6.9 89.5 6.05 L86.75 4.9 82.6 4.2 78.35 4.05 75.3 4.0 71.25 4.0 70.0 4.0 66.2 5.05 62.45 6.15 58.65 7.25 54.9 8.45 51.25 9.7 48.65 10.75 46.0 12.0" fill="none" stroke="#ffffff" stroke-linecap="round" stroke-linejoin="round" stroke-width="2.0"/>
  </g>
</svg>
