<?xml version="1.0" encoding="UTF-8" standalone="no"?>
<svg xmlns:xlink="http://www.w3.org/1999/xlink" height="43.5px" width="64.4px" xmlns="http://www.w3.org/2000/svg">
  <g transform="matrix(1.0, 0.0, 0.0, 1.0, 0.95, 1.0)">
    <path d="M52.45 0.0 L53.2 2.9 53.5 4.9 56.15 6.4 58.95 7.95 61.4 10.05 62.0 10.3 62.45 11.5 59.3 13.9 57.0 15.7 54.35 17.9 53.45 18.5 53.45 18.0 53.45 15.0 53.45 12.0 49.45 11.9 46.45 11.9 41.45 11.8 37.45 11.75 33.45 11.85 29.45 12.05 26.45 12.3 23.45 12.6 20.45 13.05 16.55 13.85 13.7 14.9 11.65 15.8 8.4 18.15 5.5 21.0 3.55 23.35 2.45 25.0 0.95 28.65 Q0.55 30.65 0.3 32.65 L0.05 36.65 0.2 39.65 0.45 41.5 M53.45 12.0 L53.45 9.0 53.5 5.0 53.5 4.9 51.95 4.0 M53.45 12.0 L56.45 12.0 60.95 12.0" fill="none" stroke="#ffffff" stroke-linecap="round" stroke-linejoin="round" stroke-width="2.0"/>
  </g>
</svg>
