<?xml version="1.0" encoding="UTF-8" standalone="no"?>
<svg xmlns:xlink="http://www.w3.org/1999/xlink" height="19.4px" width="78.6px" xmlns="http://www.w3.org/2000/svg">
  <g transform="matrix(1.0, 0.0, 0.0, 1.0, 38.85, 9.7)">
    <path d="M5.1 -7.05 L5.3 -7.55 5.35 -7.75 39.1 -7.75 39.1 4.75 -35.65 4.75 -35.65 -7.75 1.9 -7.75 1.85 -7.6 1.9 -7.4 1.9 -7.25 2.0 -7.15 2.05 -7.0 2.15 -6.9 2.25 -6.8 2.35 -6.75 2.45 -6.7 2.55 -6.65 2.65 -6.65 2.75 -6.6 2.8 -6.6 2.9 -6.6 3.0 -6.6 3.1 -6.6 3.2 -6.6 3.3 -6.6 3.4 -6.6 3.5 -6.55 3.55 -6.55 3.65 -6.5 3.75 -6.5 3.85 -6.5 3.95 -6.5 4.05 -6.5 4.15 -6.5 4.25 -6.5 4.3 -6.55 4.4 -6.55 4.5 -6.6 5.1 -7.05" fill="#6c6960" fill-rule="evenodd" stroke="none"/>
    <path d="M10.55 2.65 L10.65 2.75 10.75 2.85 10.8 2.9 10.9 2.9 11.0 2.95 11.1 2.95 11.2 2.95 11.3 2.95 11.4 2.95 11.5 3.0 11.55 3.1 11.65 3.2 11.7 3.4 11.75 3.6 11.8 3.7 12.0 4.1 12.05 4.1 12.15 4.1 12.2 4.1 12.3 4.15 12.4 4.2 12.5 4.25 12.55 4.35 12.6 4.5 12.55 4.7 12.4 5.0 12.25 5.45 12.15 5.75 12.05 5.95 11.75 7.45 11.4 8.05 11.3 8.1 11.2 8.15 11.1 8.2 11.0 8.2 10.9 8.25 10.8 8.25 10.75 8.25 10.65 8.25 10.55 8.3 10.45 8.5 10.35 8.6 10.25 8.65 10.2 8.7 10.1 8.9 10.0 9.0 9.9 9.1 9.8 9.15 9.75 9.2 9.65 9.2 9.55 9.2 9.45 9.2 9.35 9.2 9.25 9.15 9.15 9.1 9.05 9.0 9.0 8.95 8.9 8.9 8.8 8.85 8.15 8.0 7.85 7.6 7.2 6.7 6.75 6.1 6.65 5.95 6.55 5.8 6.45 5.9 6.35 5.95 6.25 6.0 6.15 6.0 6.05 6.05 6.0 6.1 5.9 6.15 5.8 6.15 5.7 6.2 5.6 6.2 5.5 6.2 5.4 6.2 5.3 6.15 5.25 6.1 5.15 6.1 5.05 6.0 4.95 6.0 4.85 5.95 4.75 5.95 4.65 5.9 4.55 5.85 4.3 5.75 4.1 5.7 3.8 5.6 3.75 5.55 3.65 5.5 3.55 5.5 3.35 5.45 3.25 5.45 3.15 5.45 3.05 5.5 3.0 5.5 2.8 5.7 2.6 5.85 2.5 5.9 2.3 6.0 2.25 6.05 2.15 6.1 2.05 6.15 1.95 6.25 1.85 6.3 1.75 6.35 1.65 6.4 1.55 6.45 1.5 6.45 1.4 6.5 1.3 6.55 1.2 6.6 1.1 6.7 1.0 6.75 0.9 6.75 0.8 6.8 0.75 6.85 0.65 6.85 0.55 6.9 0.45 6.95 0.35 6.95 0.25 6.95 0.15 6.95 0.05 7.0 0.0 7.0 -0.1 7.0 -0.1 7.1 0.0 7.2 0.05 7.35 0.15 7.45 0.15 7.65 0.1 7.9 0.0 8.0 -0.1 8.1 -0.2 8.15 -0.25 8.2 -0.35 8.2 -0.45 8.2 -0.55 8.2 -0.65 8.2 -0.75 8.2 -0.85 8.15 -0.95 8.1 -1.0 8.1 -1.1 8.0 -1.2 7.95 -1.3 7.85 -1.4 7.8 -1.5 7.75 -1.6 7.7 -1.7 7.65 -2.35 7.05 -2.7 6.7 -3.65 5.95 -4.5 5.1 -4.6 5.0 -4.7 4.8 -4.75 4.65 -4.85 4.5 -4.95 4.45 -5.0 4.25 -5.05 4.0 -5.0 3.75 -4.9 3.6 -4.8 3.55 -4.7 3.45 -4.5 3.45 -4.35 3.45 -4.25 3.45 -4.05 3.45 -3.95 3.45 -3.85 3.45 -3.75 3.45 -3.7 3.45 -3.6 3.45 -3.5 3.45 -3.4 3.5 -3.3 3.6 -3.2 3.7 -3.1 3.7 -3.0 3.75 -2.95 3.75 -2.85 3.8 -2.75 3.85 -2.65 3.85 -2.55 3.9 -2.45 3.95 -2.35 4.0 -2.25 4.05 -1.7 4.1 -1.35 4.1 -0.75 4.15 0.25 4.1 1.0 3.85 1.1 3.8 1.2 3.75 1.3 3.75 1.4 3.7 1.5 3.7 1.55 3.7 1.6 3.6 1.55 3.5 1.5 3.25 1.55 3.0 1.65 2.85 1.75 2.8 1.8 2.75 1.9 2.7 2.0 2.7 2.1 2.7 2.2 2.7 2.3 2.7 2.4 2.7 2.5 2.7 2.4 2.6 2.3 2.6 2.25 2.55 2.15 2.5 2.05 2.5 1.95 2.45 1.85 2.35 1.75 2.25 1.7 2.0 1.75 1.75 1.85 1.6 1.95 1.55 2.05 1.45 2.15 1.45 2.25 1.45 2.3 1.45 2.4 1.45 2.5 1.45 2.6 1.45 2.7 1.45 2.8 1.5 2.9 1.55 3.0 1.6 3.1 1.65 3.15 1.7 3.25 1.75 3.35 1.8 3.45 1.9 3.55 1.95 3.65 1.95 3.65 2.0 3.75 1.75 3.8 1.5 3.9 1.35 4.0 1.3 4.05 1.25 4.35 1.2 4.65 1.2 4.8 1.2 4.9 1.2 5.1 1.2 5.4 1.2 5.95 1.2 6.05 1.15 6.15 1.1 6.25 1.05 6.3 1.0 6.4 0.95 6.6 0.95 6.7 0.95 6.8 0.95 7.0 0.95 7.05 0.95 7.15 0.95 7.25 0.95 7.35 1.0 7.45 1.0 7.55 1.05 7.75 1.15 7.9 1.25 8.1 1.4 8.3 1.55 8.4 1.65 8.45 1.7 8.55 1.8 8.65 1.85 8.75 1.9 8.85 1.95 8.95 1.95 9.05 2.0 9.15 2.05 9.25 2.1 9.3 2.15 9.4 2.2 9.5 2.3 9.6 2.4 9.7 2.4 9.8 2.4 9.9 2.4 10.0 2.4 10.05 2.4 10.15 2.4 10.25 2.45 10.35 2.45 10.45 2.5 10.55 2.65 M7.7 2.75 L7.7 2.6 7.5 2.55 7.3 2.5 7.15 2.45 7.25 2.75 7.3 2.95 7.4 3.1 7.5 3.05 7.6 3.0 7.65 3.0 7.7 2.95 7.7 2.75 M5.8 2.25 L5.65 2.25 5.45 2.25 5.3 2.25 5.35 2.35 5.4 2.4 5.5 2.45 5.6 2.45 5.8 2.5 5.95 2.55 6.0 2.5 5.9 2.25 5.8 2.25" fill="#6c6960" fill-rule="evenodd" stroke="none"/>
    <path d="M-2.75 -8.8 L-2.35 -8.8 -2.3 -8.8 -2.2 -8.7 -2.1 -8.65 -2.0 -8.65 -1.9 -8.65 -1.8 -8.65 -1.7 -8.65 -1.6 -8.6 -1.5 -8.55 -1.45 -8.5 -1.35 -8.4 -1.25 -8.3 -1.05 -8.15 -0.95 -7.95 -0.85 -7.9 -0.8 -7.85 -0.7 -7.8 -0.6 -7.7 -0.5 -7.5 -0.55 -7.4 -0.6 -7.2 -0.7 -7.15 -0.7 -7.05 -0.7 -6.95 -0.6 -6.85 -0.55 -6.8 -0.45 -6.7 -0.35 -6.6 -0.3 -6.55 -0.25 -6.4 -0.25 -6.15 -0.3 -6.0 -0.4 -5.85 -0.5 -5.8 -0.6 -5.8 -0.7 -5.8 -0.75 -5.85 -0.85 -5.8 -0.95 -5.7 -1.0 -5.75 -0.95 -5.95 -0.85 -6.0 -0.8 -6.05 -0.75 -6.15 -0.8 -6.4 -0.9 -6.45 -1.0 -6.55 -1.1 -6.6 -1.25 -6.8 -1.35 -6.8 -1.45 -6.9 -1.55 -6.95 -1.65 -6.95 -1.75 -7.0 -1.85 -7.05 -2.1 -7.05 -2.7 -7.05 -3.25 -7.1 -3.45 -7.1 -3.5 -7.05 -3.6 -6.95 -3.7 -6.9 -3.8 -6.85 -3.9 -6.8 -4.0 -6.8 -4.1 -6.75 -4.15 -6.7 -4.25 -6.65 -4.35 -6.55 -4.45 -6.5 -4.55 -6.45 -4.65 -6.45 -4.75 -6.45 -4.85 -6.45 -4.95 -6.45 -5.1 -6.45 -5.3 -6.45 -5.4 -6.5 -5.5 -6.55 -5.6 -6.6 -5.65 -6.7 -5.65 -6.75 -5.7 -6.9 -5.55 -7.3 -5.1 -8.2 -5.0 -8.3 -4.8 -8.45 -4.5 -8.75 -4.45 -8.8 -3.95 -8.85 -3.3 -8.85 -2.75 -8.8" fill="#6c6960" fill-rule="evenodd" stroke="none"/>
    <path d="M-35.95 -5.55 L-35.85 -5.6 -35.75 -5.6 -35.7 -5.6 -35.5 -5.55 -35.4 -5.5 -35.3 -5.45 -35.25 -5.3 -35.2 -5.1 -35.1 -5.05 -35.0 -5.05 -34.8 -5.05 -34.7 -5.0 -34.6 -4.95 -34.55 -4.9 -34.55 -4.8 -34.5 -4.65 -34.5 -4.5 -34.45 -4.4 -34.35 -4.55 -34.2 -4.7 -34.1 -4.7 -34.0 -4.7 -33.8 -4.65 -33.75 -4.6 -33.75 -4.5 -33.75 -4.45 -33.85 -4.35 -33.95 -4.3 -34.0 -4.3 -34.0 -4.25 -34.05 -4.1 -34.6 -2.9 -34.7 -2.4 -34.8 -1.95 -34.85 -0.75 -34.95 -0.55 -35.0 -0.5 -35.1 -0.4 -35.2 -0.4 -35.3 -0.4 -35.4 -0.45 -35.55 -0.55 -35.7 -1.6 -35.75 -1.55 -35.85 -1.4 -36.0 -1.15 -36.0 -1.05 -35.75 -0.25 -35.7 0.0 -35.1 1.05 -34.85 1.5 -34.75 1.6 -34.65 1.7 -34.55 1.8 -34.45 1.8 -34.35 1.9 -34.25 1.95 -34.2 2.1 -34.2 2.25 -34.25 2.45 -34.35 2.6 -34.45 2.65 -34.5 2.7 -34.6 2.7 -34.7 2.7 -34.9 2.7 -35.0 2.7 -35.1 2.65 -35.2 2.6 -35.25 2.55 -35.35 2.55 -35.45 2.55 -36.15 2.05 -36.4 1.7 -36.85 0.9 -37.0 -1.2 -37.1 -1.35 -37.2 -3.0 -37.05 -3.5 -37.0 -3.65 -36.9 -4.15 -36.8 -4.4 -36.7 -4.5 -36.6 -4.65 -36.5 -4.75 -36.45 -4.85 -36.25 -5.2 -36.05 -5.45 -35.95 -5.55" fill="#6c6960" fill-rule="evenodd" stroke="none"/>
    <path d="M-12.7 -7.1 L-10.45 -7.65 -9.7 -7.35 Q-6.9 -8.7 -3.85 -8.9 -3.05 -6.25 -5.7 -4.15 L-8.85 -4.15 -10.05 -2.95 -11.75 -3.5 -12.85 -3.15 -14.55 -3.2 -15.6 -5.05 -17.1 -5.7 -18.6 -5.15 -19.3 -5.7 -19.05 -6.95 -14.0 -7.15 -13.25 -6.7 -12.7 -7.1" fill="#663300" fill-opacity="0.2" fill-rule="evenodd" stroke="none"/>
    <path d="M-12.7 -6.25 L-12.6 -5.4 -11.0 -4.95 -11.0 -4.05 -12.6 -2.95 -13.05 -0.95 -14.9 -0.75 -15.3 -0.4 -16.35 -0.45 Q-17.65 -0.8 -18.85 -1.3 L-19.2 -2.25 -18.5 -3.2 -17.75 -3.25 -17.75 -5.45 -16.2 -6.55 Q-14.95 -7.15 -13.45 -7.25 L-12.7 -6.25" fill="#663300" fill-opacity="0.2" fill-rule="evenodd" stroke="none"/>
    <path d="M22.75 -0.95 Q25.75 -2.55 29.15 -2.7 30.15 -5.0 32.7 -4.65 34.55 -3.35 34.75 -1.15 L38.15 3.05 37.75 3.85 Q33.1 5.65 28.4 4.5 L27.45 4.95 26.5 4.5 25.75 1.95 24.65 1.95 Q24.25 3.45 22.8 4.0 20.75 3.6 21.05 1.25 21.1 0.65 21.3 0.1 L22.0 -0.05 22.75 -0.95 M34.2 1.85 Q33.45 1.45 34.3 1.95 L34.2 1.85" fill="#663300" fill-opacity="0.2" fill-rule="evenodd" stroke="none"/>
    <path d="M32.45 2.4 L32.95 3.25 32.65 3.95 Q29.6 4.95 26.45 4.4 L25.3 4.85 24.3 4.15 Q23.7 4.6 22.6 4.65 L19.55 5.0 18.8 6.3 17.5 6.45 16.55 5.25 16.7 4.8 17.4 4.2 17.75 2.65 Q21.55 4.45 23.6 1.8 25.0 0.1 26.95 1.05 L27.75 0.05 Q29.75 0.7 31.7 2.25 L32.45 2.4" fill="#663300" fill-opacity="0.2" fill-rule="evenodd" stroke="none"/>
    <path d="M38.35 -7.05 Q40.5 -2.3 39.35 2.85 L39.25 3.1 39.1 3.2 38.9 3.25 38.65 3.25 38.0 4.5 36.15 5.05 34.25 4.05 Q30.9 4.3 30.25 1.15 29.75 -1.25 31.7 -2.8 L32.55 -2.8 32.75 -5.25 34.05 -5.55 34.65 -5.15 35.95 -6.8 38.35 -7.05" fill="#663333" fill-opacity="0.2" fill-rule="evenodd" stroke="none"/>
    <path d="M3.6 -5.7 L4.2 -6.2 6.4 -5.65 9.75 3.35 Q14.6 -0.85 21.3 -1.7 L24.4 -1.65 25.9 -0.65 27.0 -0.75 28.5 -2.15 34.05 -2.0 Q33.85 -5.2 36.25 -7.15 L38.15 -6.75 Q38.55 -5.05 38.0 -3.5 L38.25 -3.15 38.15 3.75 Q29.85 5.8 21.2 5.5 19.7 5.25 18.15 5.9 L13.4 5.75 Q11.3 6.45 10.6 8.7 L9.85 9.45 7.25 9.25 6.0 4.85 Q3.2 5.65 0.65 7.15 L-3.75 7.25 -4.75 5.25 Q-7.3 5.85 -9.1 4.35 -11.4 8.95 -17.1 6.75 -21.2 5.0 -25.65 6.05 -34.9 7.85 -37.5 -0.15 L-38.85 -2.0 Q-37.35 -4.6 -34.85 -6.25 L-31.5 -6.4 Q-29.7 -3.8 -29.35 -0.5 L-26.75 0.8 Q-17.8 -0.4 -8.55 0.55 -7.75 0.75 -7.0 1.35 -7.65 -4.35 -5.0 -8.75 0.7 -6.4 -1.1 1.6 -1.35 2.75 -0.75 3.6 L2.75 2.0 3.0 -4.45 3.6 -5.7" fill="#663333" fill-opacity="0.2" fill-rule="evenodd" stroke="none"/>
    <path d="M17.65 -0.65 Q22.7 -2.8 27.85 -2.8 L28.4 -2.65 Q29.05 -5.55 31.95 -4.9 L32.85 -4.65 34.4 -5.5 35.85 -5.15 36.8 -5.5 37.75 -5.4 38.4 -4.65 Q39.05 -1.1 37.9 2.1 L35.25 4.0 Q29.5 4.55 24.0 3.0 L22.75 1.7 21.4 2.1 21.0 3.35 Q20.3 3.9 19.55 4.05 L18.25 3.45 17.25 2.6 Q15.45 3.2 14.7 1.7 L14.4 1.0 Q14.8 -0.2 16.15 -0.4 L17.65 -0.65" fill="#663333" fill-opacity="0.2" fill-rule="evenodd" stroke="none"/>
    <path d="M4.15 -5.65 L5.9 -4.4 7.0 -1.45 Q12.6 0.0 10.9 7.0 L10.25 7.75 9.15 7.85 5.75 4.6 Q4.8 5.2 3.75 5.2 1.9 5.2 1.4 3.5 L2.65 -4.9 4.15 -5.65" fill="#663333" fill-opacity="0.2" fill-rule="evenodd" stroke="none"/>
    <path d="M-34.5 -2.65 L-33.6 -2.75 Q-26.3 3.8 -17.7 -0.4 L-17.1 -0.25 -14.5 -2.65 Q-9.95 -3.2 -5.85 -1.65 L-3.85 -3.65 -2.1 -2.9 Q-0.95 0.15 -2.15 3.2 L-2.45 3.75 -2.35 4.25 -0.6 5.25 -0.35 6.0 -0.6 6.6 -1.7 7.05 -2.5 6.75 Q-3.6 7.15 -4.4 6.45 L-5.8 4.95 -10.85 5.65 -11.7 5.45 -12.95 3.85 Q-13.9 2.85 -15.35 3.15 -16.4 4.25 -18.0 4.15 L-19.1 3.9 Q-25.35 5.35 -31.8 3.85 L-32.65 4.55 -36.75 4.75 Q-38.3 4.05 -38.0 2.65 -37.75 1.5 -36.65 1.0 L-36.1 0.75 -35.5 -1.9 -35.05 -2.35 -34.5 -2.65" fill="#663333" fill-opacity="0.2" fill-rule="evenodd" stroke="none"/>
    <path d="M25.6 -1.6 L25.45 -0.55 23.75 0.2 23.2 1.0 20.4 0.85 20.05 1.15 19.2 1.4 18.15 1.3 16.25 0.85 16.05 0.5 Q15.15 -1.45 16.0 -3.5 20.8 -5.85 23.85 -2.55 24.35 -2.05 25.35 -2.05 L25.6 -1.6" fill="#663333" fill-opacity="0.2" fill-rule="evenodd" stroke="none"/>
    <path d="M5.55 -5.45 Q7.7 -0.9 7.15 4.0 L7.05 4.4 6.35 4.65 5.85 5.7 4.75 5.75 Q3.7 0.25 4.65 -5.2 L5.55 -5.45" fill="#663333" fill-opacity="0.2" fill-rule="evenodd" stroke="none"/>
    <path d="M-6.95 -0.25 L-5.15 -6.6 -4.05 -6.3 Q-4.25 -1.4 -5.8 3.35 -6.7 6.0 -8.9 6.35 L-12.1 4.7 -12.9 5.2 -14.35 5.8 -15.5 5.75 -15.8 5.5 -15.95 5.2 -16.45 3.45 -16.4 2.95 -15.9 1.9 -15.2 1.85 -14.25 3.1 Q-13.6 2.65 -12.9 2.35 L-11.8 2.1 -10.3 2.6 -8.05 -0.3 -6.95 -0.25" fill="#663333" fill-opacity="0.2" fill-rule="evenodd" stroke="none"/>
    <path d="M-23.25 -2.7 L-22.1 -3.35 -19.45 0.5 -20.7 3.05 Q-21.75 3.55 -22.85 3.05 L-25.1 1.75 -25.35 0.35 -25.75 0.1 -26.0 -0.5 -25.3 -1.45 -23.6 -1.65 -23.25 -2.7" fill="#663333" fill-opacity="0.2" fill-rule="evenodd" stroke="none"/>
    <path d="M4.95 -0.25 Q7.65 2.15 5.0 5.6 2.7 7.05 0.05 7.75 L-0.3 7.8 -0.7 7.5 -1.7 2.5 -0.75 1.55 Q-1.15 0.35 -0.2 -0.4 L0.3 -0.75 Q1.9 -0.35 2.6 1.5 L3.15 2.4 4.15 2.4 Q3.25 1.3 4.1 0.2 L4.45 -0.2 4.95 -0.25" fill="#663333" fill-opacity="0.2" fill-rule="evenodd" stroke="none"/>
    <path d="M10.55 7.95 L10.0 8.35 8.7 8.1 8.25 7.5 7.0 7.1 7.15 6.1 6.0 4.3 6.25 2.85 7.4 2.55 Q9.65 4.6 10.7 7.5 L10.55 7.95" fill="#663333" fill-opacity="0.2" fill-rule="evenodd" stroke="none"/>
    <path d="M-2.75 -3.75 Q-2.4 1.45 -1.55 7.0 L-2.15 8.1 Q-5.0 6.75 -6.7 4.0 L-6.0 3.05 -5.25 3.1 -4.25 -3.7 -3.7 -4.0 -2.75 -3.75" fill="#663333" fill-opacity="0.2" fill-rule="evenodd" stroke="none"/>
    <path d="M9.7 -1.95 L8.75 -1.8 8.4 -2.05 7.7 -6.35 Q9.95 -6.4 10.7 -3.4 L10.9 -2.5 10.45 -1.4 10.05 -2.5 9.7 -1.95" fill="#ffffff" fill-opacity="0.2" fill-rule="evenodd" stroke="none"/>
    <path d="M9.0 -4.5 L10.5 -4.25 Q11.45 -1.65 10.8 1.35 L10.35 2.75 Q9.15 0.6 8.4 -2.65 L8.4 -3.7 9.0 -4.5" fill="#ffffff" fill-opacity="0.2" fill-rule="evenodd" stroke="none"/>
    <path d="M1.5 -0.1 L1.0 2.05 0.25 2.3 -0.25 0.1 0.1 -0.25 0.7 -4.05 Q2.4 -3.05 1.5 -0.1" fill="#ffffff" fill-opacity="0.2" fill-rule="evenodd" stroke="none"/>
    <path d="M1.15 -5.0 L1.8 -5.9 2.55 -5.25 0.9 -1.25 0.2 -1.75 Q0.0 -3.4 1.05 -4.75 L1.15 -5.0" fill="#ffffff" fill-opacity="0.2" fill-rule="evenodd" stroke="none"/>
    <path d="M14.6 -4.65 L13.9 -4.7 13.35 -3.45 Q12.0 -3.05 10.75 -3.7 L10.75 -5.65 11.3 -6.15 14.3 -6.2 14.95 -5.5 14.6 -4.65" fill="#ffffff" fill-opacity="0.2" fill-rule="evenodd" stroke="none"/>
    <path d="M19.5 -4.75 Q19.5 -4.25 19.15 -3.85 18.75 -3.5 18.25 -3.5 17.75 -3.5 17.4 -3.85 17.0 -4.25 17.0 -4.75 17.0 -5.25 17.4 -5.6 17.75 -6.0 18.25 -6.0 18.75 -6.0 19.15 -5.6 L19.5 -4.75" fill="#ffffff" fill-opacity="0.2" fill-rule="evenodd" stroke="none"/>
    <path d="M29.5 0.05 L30.25 0.75 Q30.7 2.0 30.0 3.1 L29.6 3.15 28.85 3.45 28.0 3.05 27.95 2.75 28.2 1.25 28.75 0.45 Q28.95 -0.1 29.5 0.05 M22.3 2.95 L22.2 3.05 22.0 3.05 21.8 3.0 Q21.4 2.1 21.8 1.25 L22.15 0.45 22.25 1.2 22.4 2.2 22.5 2.7 22.3 2.95 M22.75 -0.6 Q22.95 -0.8 23.25 -0.6 23.9 -0.15 24.15 0.7 L24.55 2.0 Q24.75 2.7 24.1 2.95 L23.55 2.7 Q22.8 1.6 22.75 0.45 L22.75 -0.6 M-25.85 3.15 Q-25.6 2.25 -25.0 1.7 L-24.9 1.85 Q-25.25 3.0 -25.95 3.65 L-25.85 3.15 M-30.4 0.2 L-29.4 0.25 -29.8 0.6 -31.2 1.25 -32.2 1.35 -32.25 1.25 Q-31.4 0.65 -30.4 0.2 M-28.25 -3.55 L-28.15 -3.5 Q-27.75 -3.4 -28.05 -3.0 L-28.15 -2.95 -28.75 -2.85 -31.05 -3.85 Q-31.7 -4.2 -31.7 -4.85 L-31.45 -4.95 -30.5 -4.7 -28.45 -3.65 -28.35 -3.6 -28.25 -3.55 M-29.4 -5.4 Q-29.75 -5.6 -29.4 -5.85 L-27.4 -4.9 Q-26.2 -4.4 -25.2 -3.35 -25.0 -3.15 -25.2 -3.0 L-25.8 -3.1 -29.4 -5.4 M38.55 5.15 L38.2 5.2 37.8 5.1 34.45 5.4 25.25 5.6 21.25 5.5 20.75 5.5 18.55 5.5 17.35 5.5 17.35 5.45 15.95 5.45 14.85 5.45 13.35 5.45 13.1 5.4 13.0 5.55 12.75 6.2 12.15 7.45 11.25 8.7 10.85 9.2 10.5 9.45 10.15 9.65 9.6 9.7 9.45 9.65 8.65 9.05 8.15 8.6 7.55 8.2 7.2 8.0 6.9 7.6 Q6.75 7.2 6.3 7.35 L6.1 7.45 5.95 7.45 5.75 7.45 5.55 7.4 5.35 7.25 5.2 7.2 5.0 7.2 4.8 7.15 4.6 7.05 4.45 7.0 4.25 6.8 4.2 6.7 4.1 6.35 3.45 6.4 3.05 6.55 2.7 6.8 2.3 7.1 1.75 7.6 0.95 8.35 0.7 8.6 -0.5 9.5 -1.65 9.5 -6.75 5.25 -7.05 5.2 -7.45 5.0 -8.2 5.1 -8.75 5.15 -9.15 5.35 -9.55 5.6 -10.05 6.0 -10.85 5.85 -12.55 5.95 -18.0 6.0 -18.75 6.0 -23.4 6.0 -23.6 6.0 -26.8 6.0 -30.3 6.0 -32.7 5.85 -33.25 4.95 -32.75 4.05 -30.55 3.9 -28.65 2.15 -27.65 1.2 -27.45 1.1 -27.15 1.0 -27.05 1.05 -27.0 1.2 -29.35 3.9 -17.05 3.9 -16.95 3.15 -16.95 2.9 -16.75 2.5 -16.6 2.45 -16.4 2.45 -16.2 2.5 -16.0 3.8 -12.65 4.0 -10.75 4.05 -10.75 4.1 -10.7 4.1 -10.15 4.1 -9.4 3.9 -8.65 3.8 -7.5 3.85 -6.8 4.25 -6.75 4.0 -6.55 3.75 -6.35 3.6 -6.2 3.5 -6.0 3.5 -5.7 3.6 -2.05 7.0 -2.1 5.5 -2.2 4.05 -3.15 4.15 -3.35 3.7 -3.45 2.45 -3.3 1.7 -2.8 -1.1 -2.5 -2.45 -2.1 -4.0 -1.7 -4.45 -1.5 -4.4 -1.3 -4.3 -1.2 -4.05 -0.95 -2.35 0.0 -5.6 0.65 -5.55 0.65 -5.05 0.4 -3.4 -0.1 -0.15 -0.6 4.0 -0.6 6.7 Q-0.6 7.15 -1.2 7.35 L-1.4 7.4 -1.45 7.4 -1.1 7.65 -0.95 7.65 -0.55 7.2 -0.25 6.95 0.2 6.7 0.5 6.45 1.9 5.45 Q2.05 5.3 2.25 5.25 L2.8 5.0 4.75 5.15 4.75 4.65 4.6 3.65 4.4 2.7 4.05 -0.2 3.8 -3.05 3.8 -3.8 Q3.9 -4.15 4.3 -4.3 L4.55 -4.1 5.3 -0.85 5.9 2.35 6.0 2.7 6.1 2.25 6.5 1.95 6.15 -1.65 Q5.9 -3.45 6.0 -5.2 L5.85 -5.35 5.7 -5.55 5.7 -5.45 5.3 -5.1 5.1 -5.05 4.95 -5.05 4.75 -5.05 4.55 -5.05 4.35 -5.05 4.2 -5.1 4.0 -5.15 3.85 -5.3 3.65 -5.5 3.65 -5.6 3.2 -5.6 1.1 -6.6 0.75 -6.7 -0.4 -7.35 -1.15 -7.8 -1.5 -7.8 -1.9 -8.0 -3.2 -8.05 -4.3 -7.95 -5.05 -7.45 -10.75 -7.2 -10.75 -7.15 -27.2 -6.75 -26.75 -6.3 -26.35 -5.95 -26.3 -5.9 -26.2 -5.9 -26.1 -5.8 -25.95 -5.75 -25.85 -5.5 -25.8 -5.35 -25.85 -5.2 -26.0 -5.0 -26.1 -5.0 -26.2 -5.0 -26.3 -5.0 -26.35 -5.05 -26.55 -5.15 -26.75 -5.25 -26.85 -5.3 -27.35 -5.75 -27.9 -6.35 -27.95 -6.45 -28.15 -6.55 -28.25 -6.6 -28.65 -6.65 -31.8 -6.75 -32.4 -7.2 -32.45 -7.55 -32.35 -7.95 -32.2 -8.15 -32.0 -8.3 -28.05 -8.45 -24.15 -8.45 -23.4 -8.4 -18.75 -8.35 -17.15 -8.35 -11.65 -8.3 -11.5 -8.3 -11.05 -8.3 -10.75 -8.3 -6.4 -8.05 -6.3 -8.0 -6.25 -8.3 -6.2 -8.75 -6.0 -9.0 -5.25 -9.55 Q-2.7 -10.0 -0.4 -8.85 L1.75 -7.65 2.05 -7.45 2.8 -6.85 3.2 -6.7 3.55 -6.5 3.95 -6.5 4.05 -6.55 4.6 -6.7 4.75 -6.9 5.0 -7.2 5.2 -7.6 5.3 -7.8 5.3 -7.85 5.55 -8.2 5.85 -8.5 6.4 -8.45 7.35 -8.45 7.75 -8.25 8.1 -8.1 8.5 -7.95 8.85 -7.85 9.25 -7.85 Q9.5 -7.7 9.8 -7.85 L10.0 -8.0 10.2 -8.1 10.35 -8.1 10.5 -8.05 10.55 -8.0 10.55 -7.8 10.55 -7.7 10.35 -7.45 10.15 -7.2 10.0 -7.0 6.65 -7.15 6.45 -6.95 6.3 -6.75 6.3 -6.55 6.25 -6.25 6.3 -6.25 6.45 -6.2 6.7 -5.9 7.35 -3.1 7.75 -0.35 8.25 2.75 8.25 3.7 7.85 4.45 7.7 4.5 7.5 4.5 7.3 4.45 7.1 4.45 6.95 4.5 6.75 4.5 6.55 4.45 6.35 4.4 6.4 4.55 6.55 4.8 7.25 5.6 7.6 5.85 8.0 6.15 8.4 6.5 8.7 6.95 9.1 7.3 9.45 7.55 Q9.85 8.0 10.05 7.85 L10.4 7.5 10.75 7.05 11.35 6.1 12.1 4.75 12.2 4.45 13.05 3.95 18.65 3.9 19.4 1.3 19.55 0.3 19.6 0.15 20.25 0.2 20.35 0.35 20.5 0.85 20.45 1.3 19.65 3.9 38.25 3.9 38.75 4.3 38.8 4.45 38.8 4.7 38.7 5.0 38.55 5.15 M34.25 -2.9 L34.8 -1.6 Q34.9 -1.1 35.5 -0.95 36.0 0.7 35.95 2.2 L35.4 3.25 35.25 3.3 35.05 3.35 34.5 3.05 34.25 3.05 34.0 3.3 Q33.8 3.55 33.5 3.5 L33.15 3.3 32.95 3.2 32.5 2.45 31.55 2.45 31.05 2.0 Q30.85 0.5 31.55 -0.65 L32.3 -0.85 32.4 -0.8 32.85 -2.3 33.3 -3.05 34.25 -2.9 M38.1 -7.9 L38.35 -7.45 38.2 -7.2 35.3 -7.05 32.3 -6.95 29.35 -6.85 26.35 -6.85 23.45 -6.85 22.35 -6.85 21.05 -6.85 20.45 -6.85 19.55 -6.85 17.55 -6.85 17.35 -6.85 14.85 -6.9 11.3 -7.0 11.1 -7.0 Q10.7 -7.25 10.75 -7.55 L10.9 -7.8 12.55 -8.05 14.85 -8.1 15.55 -8.15 17.35 -8.2 17.65 -8.2 18.45 -8.25 21.45 -8.25 22.35 -8.2 22.35 -8.15 25.3 -8.15 28.3 -8.15 31.85 -8.15 34.1 -8.1 36.55 -8.1 38.1 -7.9" fill="#333333" fill-rule="evenodd" stroke="none"/>
    <path d="M-34.3 -7.55 L-34.15 -7.65 -33.95 -7.75 -33.75 -7.8 -33.55 -7.85 -33.4 -7.9 -33.0 -8.0 -32.8 -8.1 -32.45 -8.15 -31.9 -8.15 -31.3 -8.1 -30.95 -8.05 -30.8 -8.0 -30.55 -7.85 -30.5 -7.55 -30.45 -7.55 -30.55 -7.25 -30.75 -7.15 -30.95 -7.05 -31.15 -7.0 -31.5 -7.0 -31.9 -6.95 -32.25 -6.95 -32.45 -6.85 -32.65 -6.75 -32.8 -6.6 -33.0 -6.55 -33.2 -6.5 -33.4 -6.45 -33.55 -6.35 -33.75 -6.25 -33.95 -6.1 -34.15 -6.05 -34.3 -6.0 -34.5 -5.95 -34.7 -5.85 -35.05 -5.7 -35.65 -5.25 -36.0 -5.0 -36.15 -4.75 -36.5 -4.05 -36.4 -3.9 -36.25 -3.65 -36.15 -3.5 -36.1 -3.35 -36.0 -3.05 -36.15 -2.6 -36.3 -2.3 -36.5 -1.95 -36.65 -1.8 -36.65 -1.75 -36.65 -0.75 -36.0 2.05 -35.8 2.4 -35.65 2.5 -35.45 2.7 -35.25 2.8 -35.05 2.9 -34.9 2.95 -33.9 3.5 -32.85 4.15 -32.25 4.65 -32.15 4.9 -32.1 5.2 -32.05 5.45 -32.2 5.9 -32.4 6.05 -32.6 6.2 -32.75 6.25 -32.95 6.3 -33.3 6.3 -33.7 6.3 -34.05 6.3 -34.4 6.1 Q-34.65 5.85 -35.0 5.75 L-35.4 5.55 -35.55 5.55 -35.95 5.35 -36.3 5.05 -36.5 4.85 -36.9 4.5 -37.05 4.3 -38.05 2.7 -38.5 1.75 -38.6 1.45 -38.8 0.45 Q-38.9 -2.0 -38.25 -4.35 L-37.7 -5.35 -37.3 -6.05 -37.1 -6.25 -36.95 -6.35 -36.75 -6.5 -36.55 -6.55 -36.35 -6.75 -36.2 -6.85 -36.0 -6.9 Q-35.8 -6.95 -35.65 -7.05 L-35.25 -7.25 -35.05 -7.35 -34.9 -7.45 -34.7 -7.5 -34.5 -7.55 -34.3 -7.55" fill="#333333" fill-rule="evenodd" stroke="none"/>
    <path d="M-37.45 -1.5 L-37.25 -1.75 -37.1 -2.0 -36.9 -2.35 -36.7 -2.55 -36.5 -2.6 -36.3 -2.65 -36.15 -2.7 -35.95 -2.7 -35.75 -2.65 -35.4 -2.65 -34.8 -2.6 -34.65 -2.55 -34.45 -2.5 -34.25 -2.45 -34.1 -2.3 -33.9 -2.1 -33.55 -1.5 -33.2 -0.6 -33.15 -0.3 -33.15 0.95 -33.3 1.35 -33.45 1.75 -33.65 2.15 -33.8 2.45 -34.0 2.6 -34.2 2.7 -34.4 2.75 -34.55 2.75 -34.75 2.75 -34.95 2.7 -35.15 2.7 -35.35 2.6 -35.5 2.5 -35.7 2.4 -35.9 2.25 -36.25 1.95 -36.55 1.65 -36.65 1.5 -36.75 1.15 -36.95 0.95 -37.15 0.75 -37.3 0.55 -37.45 0.4 -37.5 0.25 -37.55 -0.05 -37.55 -1.05 -37.45 -1.5" fill="#333333" fill-rule="evenodd" stroke="none"/>
    <path d="M-34.65 -7.2 Q-34.35 -7.0 -34.05 -6.9 L-33.5 -6.5 -33.15 -6.1 -32.95 -5.8 -32.9 -5.55 -32.9 -5.45 -33.05 -5.25 Q-33.45 -5.2 -33.8 -5.6 L-34.55 -6.15 Q-34.85 -6.25 -35.15 -6.45 L-35.3 -6.5 -35.5 -6.55 -35.7 -6.6 -35.9 -6.7 -36.05 -6.8 -36.15 -7.25 -35.95 -7.4 -35.75 -7.5 -35.4 -7.4 -35.0 -7.3 -34.8 -7.25 -34.65 -7.2" fill="#333333" fill-rule="evenodd" stroke="none"/>
    <path d="M-37.2 -3.8 L-37.25 -4.25 -37.05 -4.45 -36.3 -4.45 -35.4 -4.5 -34.25 -4.45 -34.05 -4.45 -33.95 -4.3 -33.9 -4.25 -33.85 -4.05 -33.8 -4.05 -33.9 -3.85 -34.0 -3.45 -34.2 -3.3 -34.4 -3.45 -34.55 -3.7 -35.15 -3.65 -35.9 -3.6 -36.8 -3.65 -37.0 -3.7 -37.2 -3.8" fill="#333333" fill-rule="evenodd" stroke="none"/>
    <path d="M-32.15 2.5 L-32.05 2.7 -31.95 2.95 -31.95 3.05 -32.15 3.25 -32.3 3.4 -32.5 3.55 -32.9 3.75 -33.05 3.95 -33.25 4.15 -33.45 4.3 -33.65 4.5 -33.8 4.55 -34.0 4.65 -34.2 4.75 -34.4 4.8 -34.55 4.8 -34.75 4.75 -34.8 4.7 -34.75 4.25 -34.25 3.8 -33.65 3.25 -33.05 2.9 -32.9 2.7 -32.7 2.45 -32.5 2.3 -32.35 2.35 -32.15 2.5" fill="#333333" fill-rule="evenodd" stroke="none"/>
  </g>
</svg>
