<?xml version="1.0" encoding="UTF-8" standalone="no"?>
<svg xmlns:xlink="http://www.w3.org/1999/xlink" height="38.65px" width="34.25px" xmlns="http://www.w3.org/2000/svg">
  <g transform="matrix(1.0, 0.0, 0.0, 1.0, 17.1, 19.3)">
    <path d="M-10.75 -13.8 L-10.4 -14.15 -10.0 -14.55 -9.65 -14.9 -9.45 -15.05 -9.1 -15.3 -8.9 -15.45 -8.7 -15.85 -8.5 -16.05 -8.35 -16.2 -8.15 -16.4 -7.95 -16.6 -7.75 -16.75 -7.6 -16.9 -7.4 -16.95 -7.2 -16.95 -7.0 -17.1 -6.85 -17.15 -6.65 -17.2 -6.45 -17.2 -6.25 -17.2 -6.1 -17.2 -5.9 -17.2 -5.7 -17.2 -5.5 -17.2 -5.35 -17.3 -5.15 -17.4 -4.95 -17.6 -4.75 -17.75 -4.6 -17.9 -4.4 -17.95 -4.2 -17.95 -4.0 -17.95 -3.85 -17.95 -3.65 -17.95 -3.25 -17.95 -3.1 -17.95 -2.9 -17.95 -2.7 -17.95 -2.55 -18.05 -2.35 -18.2 -2.15 -18.4 -1.95 -18.5 -1.75 -18.6 -1.6 -18.65 -1.4 -18.7 -1.0 -18.7 -0.65 -18.7 -0.1 -18.7 0.1 -18.7 0.65 -18.7 1.05 -18.7 1.8 -18.7 2.0 -18.7 2.15 -18.65 2.35 -18.6 2.55 -18.6 2.75 -18.65 2.9 -18.7 3.1 -18.7 3.3 -18.7 3.5 -18.7 3.65 -18.7 3.85 -18.7 4.05 -18.7 4.25 -18.7 4.4 -18.65 4.6 -18.5 4.8 -18.35 4.9 -18.1 5.05 -17.8 5.15 -17.75 5.35 -17.7 5.55 -17.7 5.75 -17.7 5.9 -17.7 6.1 -17.7 6.3 -17.7 6.45 -17.65 6.65 -17.45 6.85 -17.2 7.05 -16.85 7.25 -16.65 7.45 -16.55 7.6 -16.45 7.8 -16.45 7.95 -16.4 8.15 -16.2 8.35 -16.15 8.55 -16.05 8.75 -15.9 8.9 -15.8 9.1 -15.65 9.3 -15.55 9.5 -15.5 9.65 -15.45 9.85 -15.4 10.05 -15.35 10.25 -15.25 10.4 -15.15 10.6 -15.05 10.8 -14.95 11.0 -14.9 11.15 -14.7 11.35 -14.45 11.5 -14.05 11.55 -13.7 11.65 -13.35 11.85 -13.05 12.05 -12.95 12.25 -12.9 12.4 -12.7 12.8 -12.35 13.2 -11.9 13.75 -11.35 13.9 -11.15 14.5 -10.6 14.65 -10.4 14.85 -10.1 15.05 -9.7 15.25 -9.2 15.45 -8.85 15.6 -8.55 15.8 -8.2 15.9 -7.85 16.2 -6.85 16.7 -4.5 17.05 -1.85 17.1 -1.5 17.1 1.25 17.0 1.75 16.85 2.45 16.75 2.9 16.6 3.7 16.5 4.1 16.35 4.3 16.3 4.4 16.25 5.75 16.1 6.15 16.1 6.55 16.25 7.0 16.25 7.75 16.1 8.15 16.0 8.5 15.85 8.9 15.65 9.15 15.5 9.35 15.3 9.7 15.1 10.0 14.95 10.05 14.75 10.15 14.55 10.45 14.35 10.7 14.2 10.9 14.0 11.15 13.8 11.55 13.4 12.15 13.25 12.3 13.05 12.4 12.85 12.5 12.65 12.65 12.5 12.85 12.3 13.05 12.1 13.4 12.0 13.75 11.85 14.15 11.65 14.4 11.5 14.55 11.3 14.6 11.1 14.65 10.9 14.65 10.75 14.65 10.55 14.7 10.35 14.85 10.15 15.05 10.0 15.2 9.8 15.35 9.4 15.55 9.25 15.6 9.05 15.65 8.85 15.8 8.8 16.0 8.8 16.25 8.65 16.65 8.5 16.9 8.3 17.05 8.1 17.15 7.9 17.2 7.75 17.25 7.55 17.25 7.35 17.3 7.15 17.35 7.0 17.4 6.8 17.45 6.6 17.5 6.25 17.6 6.05 17.65 5.85 17.75 5.65 17.75 5.5 17.75 5.3 17.75 5.1 17.75 4.9 17.75 4.75 17.75 4.55 17.85 4.35 17.9 4.15 18.0 4.0 18.05 3.8 18.1 3.6 18.15 3.4 18.25 3.25 18.25 3.05 18.25 2.85 18.25 2.65 18.25 2.5 18.25 2.3 18.25 1.9 18.25 1.75 18.25 1.55 18.35 1.35 18.55 1.15 18.6 1.0 18.65 0.8 18.75 0.6 18.75 0.25 18.75 -0.15 18.75 -0.7 18.75 -0.9 18.75 -1.45 18.75 -1.85 18.75 -2.4 18.75 -2.6 18.75 -2.75 18.65 -2.95 18.55 -3.15 18.4 -3.35 18.15 -3.5 18.0 -3.7 17.95 -3.9 17.9 -4.1 17.85 -4.25 17.8 -4.45 17.65 -4.85 17.4 -5.2 17.15 -5.8 16.6 -5.95 16.5 -6.5 16.05 -6.9 15.6 -7.1 15.55 -7.65 15.25 -8.4 14.8 -8.6 14.65 -9.15 14.25 -9.75 13.7 -10.45 13.15 -10.65 12.85 -10.85 12.6 -11.0 12.3 -11.2 12.1 -11.4 11.9 -11.6 11.75 -11.8 11.4 -12.35 10.8 -13.1 9.75 -13.7 8.75 -14.55 7.05 -14.7 6.5 Q-14.7 3.1 -15.05 -0.25 -15.35 -3.25 -15.2 -6.3 L-15.1 -6.8 -14.95 -7.05 -14.85 -7.55 -14.7 -7.8 -14.65 -8.05 -14.5 -8.45 -14.35 -8.9 -14.15 -9.4 -13.95 -9.85 -13.75 -10.05 -13.6 -10.2 -13.4 -10.45 -13.2 -10.85 -13.0 -11.05 -12.85 -11.2 -12.65 -11.4 -12.45 -11.6 -12.25 -11.8 -11.7 -12.35 -11.5 -12.6 -11.3 -13.1 -11.15 -13.4 -10.95 -13.6 -10.75 -13.8" fill="#6c6960" fill-rule="evenodd" stroke="none"/>
    <path d="M-6.85 -17.35 L-6.5 -17.3 -6.1 -17.1 -5.85 -16.75 -5.8 -16.6 -5.6 -16.0 -5.85 -15.25 -6.25 -14.85 -6.6 -14.5 -7.0 -14.1 -7.25 -13.6 -7.2 -13.15 -7.1 -12.5 -7.35 -11.75 -7.6 -11.35 -7.85 -10.75 -8.25 -10.35 -8.6 -10.0 -9.0 -9.6 -9.35 -8.75 -9.35 -8.1 -9.15 -7.85 -9.0 -7.6 -8.95 -4.5 -9.0 -3.6 -8.85 -3.0 -8.5 -2.35 Q-8.1 -0.7 -7.35 0.85 L-5.45 4.35 -4.35 6.25 -3.95 6.6 -3.65 6.9 -2.85 7.65 -2.5 8.0 -2.1 8.4 -1.75 9.0 -1.35 9.25 -1.0 9.25 -0.6 9.25 0.15 9.25 0.5 9.25 0.9 9.25 1.25 9.25 1.65 9.25 2.0 9.4 2.4 9.5 2.75 9.65 3.1 9.5 3.5 9.25 3.9 9.25 4.25 9.25 4.65 9.15 5.4 8.75 6.5 8.25 7.25 7.85 8.4 7.15 8.75 6.9 9.15 6.8 9.5 6.75 9.9 6.75 10.25 6.65 10.65 6.5 11.05 6.3 11.4 6.15 11.8 5.8 12.15 5.5 12.5 5.25 12.9 5.25 13.25 5.25 13.65 5.15 13.85 4.85 14.15 4.15 14.55 3.75 14.9 3.55 15.25 3.4 15.65 3.4 16.0 3.45 16.35 3.65 16.75 4.0 17.0 4.4 17.05 5.0 17.15 5.0 17.15 5.5 16.9 6.25 16.5 6.75 16.15 7.15 15.75 7.5 Q15.4 8.65 14.6 9.6 L13.85 10.35 13.15 11.0 12.9 11.25 12.8 11.5 12.5 12.4 12.15 12.75 11.75 13.25 11.4 13.55 11.0 13.9 10.65 14.9 10.25 15.4 9.9 15.6 9.5 15.75 9.15 15.85 8.75 15.9 8.4 15.9 8.0 15.9 7.65 16.0 7.25 16.15 6.9 16.25 6.5 16.4 6.15 16.55 5.75 16.85 5.35 17.1 5.0 17.25 4.65 17.35 4.25 17.4 3.9 17.4 3.5 17.5 3.15 17.65 2.75 17.9 2.4 18.0 2.0 18.15 1.65 18.25 1.25 18.4 0.5 18.4 -0.25 18.4 -1.0 18.4 -1.75 18.4 -2.85 18.4 -3.25 18.25 -3.65 18.05 -4.0 17.85 -4.35 17.65 -4.75 17.5 -5.1 17.4 -5.5 17.25 -5.85 17.15 -7.0 16.15 -8.05 14.95 -9.15 14.0 -10.0 13.4 -10.35 12.75 -10.75 12.65 -11.1 12.5 -11.5 12.0 -11.85 11.4 -12.1 10.9 -12.25 10.65 -12.5 9.4 -12.7 8.65 -12.9 8.0 -13.1 7.25 -13.45 7.1 -13.85 6.75 -14.25 6.25 -14.65 5.15 -14.85 4.65 -15.1 3.65 -15.35 3.15 -15.5 2.5 -15.75 1.4 -16.0 0.5 -15.85 -5.0 -14.65 -8.55 Q-14.15 -10.0 -13.2 -11.2 L-12.75 -11.85 -12.35 -12.25 -12.1 -12.5 -12.0 -12.65 -11.75 -13.35 -11.35 -13.75 -11.0 -14.1 -10.2 -14.85 -9.9 -15.15 -9.5 -15.5 -9.1 -16.35 -8.75 -16.6 -8.35 -17.1 -8.0 -17.35 -7.6 -17.35 -7.25 -17.35 -6.85 -17.35" fill="#663333" fill-opacity="0.2" fill-rule="evenodd" stroke="none"/>
    <path d="M-10.5 -7.6 L-10.1 -7.6 -9.35 -7.6 -8.6 -7.6 -8.25 -7.6 -7.9 -7.55 -7.5 -7.35 -7.1 -7.25 -6.75 -7.1 -6.35 -7.0 -6.0 -6.85 -5.6 -6.75 -5.25 -6.5 -4.85 -6.35 -3.8 -5.2 Q-0.3 -1.15 0.25 4.25 L0.5 5.75 0.55 6.5 0.65 6.5 0.65 9.5 0.4 10.5 0.0 11.25 -0.35 11.9 -0.75 12.15 -1.15 12.35 -1.5 12.5 -1.85 12.6 -2.25 12.65 -2.6 12.65 -3.0 12.65 -3.75 12.65 -3.8 13.0 -3.75 13.65 -3.65 14.5 -3.6 15.5 -3.95 16.05 -4.25 16.25 -4.6 16.3 -5.0 16.15 -5.35 15.9 -5.75 15.65 -6.1 15.65 -6.5 15.65 -7.25 15.65 -8.75 15.65 -10.25 15.65 -10.6 15.5 -11.0 15.3 -11.35 15.15 -11.75 14.65 -12.0 14.25 -12.1 13.5 -11.85 12.5 -11.5 12.0 -11.1 11.65 -11.15 11.4 -11.5 11.0 -11.85 10.65 -12.6 9.85 -13.35 9.0 -13.6 8.0 -13.6 7.0 -13.35 6.0 -13.35 4.15 -13.75 3.65 -14.0 3.25 -14.05 2.5 -14.1 -3.5 -13.85 -4.5 -13.5 -5.25 -13.1 -5.85 -12.75 -6.25 -12.35 -6.6 -12.0 -7.0 -11.6 -7.35 -11.25 -7.5 -10.85 -7.6 -10.5 -7.6" fill="#663333" fill-opacity="0.2" fill-rule="evenodd" stroke="none"/>
    <path d="M11.05 5.25 L11.4 5.9 11.75 6.25 12.1 7.15 12.4 7.9 12.45 8.25 12.55 9.0 12.65 9.0 12.65 11.0 12.4 12.0 12.0 12.5 11.25 13.6 10.5 14.45 9.4 15.15 9.0 15.5 8.65 15.9 7.85 16.6 7.1 17.2 6.4 17.65 6.0 17.65 4.9 17.65 3.0 17.65 1.15 17.7 -1.1 17.5 -1.5 17.35 -2.25 17.0 -3.0 16.6 -4.1 16.0 -4.85 15.65 -5.25 15.15 -5.5 14.75 -5.55 14.0 -5.6 12.0 -5.6 11.25 -5.85 10.5 -6.25 9.9 -6.6 9.25 -7.0 8.5 -7.25 7.5 -7.25 5.5 -7.0 4.5 -6.6 3.9 -5.8 2.55 -4.75 1.25 Q-4.25 0.75 -3.6 0.4 L-3.25 0.4 -2.1 0.4 -0.6 0.4 1.25 0.4 2.75 0.4 3.15 0.5 3.5 0.6 4.25 0.75 5.0 0.85 5.75 0.9 6.15 0.9 6.5 1.0 6.9 1.15 7.25 1.25 7.65 1.4 8.05 1.6 8.4 1.8 8.8 2.0 9.15 2.15 9.45 2.55 10.25 3.75 11.05 5.25" fill="#663333" fill-opacity="0.2" fill-rule="evenodd" stroke="none"/>
    <path d="M1.65 -9.25 L1.7 -8.5 Q1.7 -6.5 2.2 -4.55 L2.65 -3.25 2.75 -2.65 2.9 -2.0 3.15 -0.75 3.25 0.0 3.05 5.5 2.4 9.75 2.15 11.0 1.75 11.75 1.4 12.35 1.0 12.75 0.65 13.0 0.25 13.25 -0.1 13.35 -0.5 13.5 -0.85 13.6 -1.25 13.75 -1.6 13.85 -2.0 13.85 -3.5 13.85 -5.35 13.85 -7.25 13.85 -9.85 13.85 -10.2 13.7 -11.35 13.1 -12.85 12.0 -13.95 10.75 -14.25 10.25 -14.9 6.7 Q-16.05 -3.0 -12.1 -12.0 L-11.75 -12.75 -11.35 -13.15 -11.0 -13.5 -10.6 -13.9 -10.2 -14.25 -9.85 -14.5 -9.5 -14.65 -9.1 -15.0 -8.75 -15.15 -8.35 -15.4 -8.0 -15.5 -7.6 -15.65 -7.25 -15.75 -6.85 -15.75 -6.5 -15.75 -6.1 -15.75 -5.75 -15.75 -5.35 -15.75 -4.6 -15.75 -4.25 -15.75 -3.85 -15.65 -3.5 -15.5 -3.1 -15.4 -2.75 -15.25 -2.4 -15.0 -1.0 -13.4 1.0 -10.35 1.65 -9.25" fill="#663333" fill-opacity="0.2" fill-rule="evenodd" stroke="none"/>
    <path d="M5.0 -17.5 L5.4 -17.35 5.75 -17.15 6.15 -17.0 6.5 -16.9 6.9 -16.75 7.65 -16.25 8.4 -15.8 9.15 -15.4 11.75 -12.6 14.1 -10.2 Q14.7 -9.6 14.75 -8.9 12.85 -9.5 11.3 -11.3 9.85 -13.0 8.05 -14.2 L5.75 -15.5 5.4 -15.6 5.0 -15.65 4.65 -15.65 1.65 -16.2 -1.35 -16.2 -4.75 -15.75 -5.85 -15.4 -6.25 -15.15 Q-6.4 -15.1 -6.6 -15.0 L-7.0 -14.8 -7.35 -14.65 -7.7 -14.65 -8.1 -14.5 -8.5 -14.25 -8.6 -14.75 -8.45 -15.05 -8.35 -15.5 -8.1 -16.15 -7.35 -16.6 -6.6 -17.0 -5.85 -17.4 -5.5 -17.5 -5.1 -17.55 -4.75 -17.65 -4.35 -17.75 -4.0 -17.9 -1.75 -17.9 0.15 -17.9 2.0 -17.9 3.5 -17.9 3.9 -17.75 4.25 -17.65 4.65 -17.55 5.0 -17.5" fill="#ffffff" fill-opacity="0.2" fill-rule="evenodd" stroke="none"/>
    <path d="M4.15 -13.25 L4.55 -13.45 4.9 -13.5 5.25 -13.9 5.65 -14.25 6.0 -14.5 6.4 -14.5 6.75 -14.5 7.15 -14.5 7.5 -14.45 7.9 -14.25 8.25 -13.9 8.65 -13.5 9.0 -13.4 9.35 -13.3 9.65 -13.15 9.75 -13.0 9.9 -12.5 9.65 -11.9 9.65 -11.4 10.0 -11.1 10.25 -10.9 10.35 -10.65 10.45 -10.0 10.5 -10.0 10.5 -9.5 10.25 -8.75 10.0 -8.4 9.9 -8.0 9.65 -7.25 9.25 -6.75 8.9 -6.5 8.5 -6.25 7.75 -6.15 6.65 -6.15 5.5 -6.15 4.4 -6.15 4.05 -6.3 3.65 -6.55 3.4 -6.75 3.3 -6.9 3.2 -7.5 3.15 -9.0 3.45 -9.85 3.55 -10.15 3.75 -11.15 3.65 -11.4 3.5 -12.0 3.75 -12.9 4.15 -13.25" fill="#ffffff" fill-opacity="0.2" fill-rule="evenodd" stroke="none"/>
    <path d="M11.15 -12.9 L11.5 -13.0 11.9 -13.05 12.3 -13.1 12.65 -13.15 13.0 -13.1 13.4 -12.85 13.75 -12.5 14.0 -12.15 14.1 -11.5 14.15 -11.5 14.05 -8.5 13.7 -6.75 13.4 -5.75 13.0 -5.25 12.65 -4.9 12.25 -4.65 11.9 -4.5 11.5 -4.4 11.15 -4.4 10.75 -4.4 10.4 -4.4 10.0 -4.5 9.65 -4.65 9.25 -4.9 8.9 -4.9 8.5 -4.9 8.15 -4.9 7.75 -4.9 7.4 -5.05 7.05 -5.3 6.65 -5.65 6.3 -6.05 6.0 -6.4 5.95 -7.0 Q5.95 -8.75 6.1 -10.5 L6.25 -11.4 6.65 -11.75 7.0 -12.0 7.4 -12.0 7.75 -12.0 8.15 -12.0 8.5 -12.0 8.9 -12.0 9.65 -12.0 10.0 -12.1 10.4 -12.35 10.75 -12.65 11.15 -12.9" fill="#ffffff" fill-opacity="0.2" fill-rule="evenodd" stroke="none"/>
    <path d="M10.0 -7.5 L10.7 -6.6 11.15 -5.9 11.35 -5.05 11.4 -5.0 11.4 -2.5 11.15 -1.75 10.75 -1.45 10.4 -1.25 10.0 -1.15 9.25 -1.15 8.15 -1.1 6.65 -1.25 6.3 -1.4 5.9 -1.65 5.5 -2.15 5.15 -2.65 4.9 -3.15 4.75 -3.4 4.7 -4.0 4.6 -4.9 4.5 -6.5 4.75 -7.4 5.15 -7.75 5.5 -8.0 5.9 -8.0 6.65 -8.0 7.75 -8.0 9.25 -7.9 9.65 -7.75 10.0 -7.5" fill="#ffffff" fill-opacity="0.2" fill-rule="evenodd" stroke="none"/>
    <path d="M-3.75 -13.15 L-3.35 -13.5 -2.95 -13.85 -2.6 -14.0 -2.25 -13.95 -1.85 -13.75 -1.45 -13.55 -1.1 -13.5 -0.75 -13.15 -0.55 -12.55 -0.5 -12.5 -0.75 -11.9 -1.1 -11.65 -1.5 -11.55 -1.85 -11.5 -2.25 -11.5 -2.6 -11.4 -3.0 -11.25 -3.3 -11.45 -3.75 -11.9 -4.0 -12.5 -3.75 -13.15" fill="#ffffff" fill-opacity="0.2" fill-rule="evenodd" stroke="none"/>
    <path d="M-15.7 -5.1 L-15.3 -6.8 -14.6 -8.55 -13.65 -10.1 -12.7 -11.6 -11.7 -13.0 -10.5 -14.5 -9.2 -15.85 -7.95 -16.8 -6.6 -17.45 -5.1 -18.0 -3.5 -18.5 -1.95 -18.95 -0.35 -19.25 1.15 -19.3 2.65 -19.1 4.1 -19.0 5.6 -18.35 7.2 -17.7 8.7 -16.75 10.0 -15.85 11.3 -14.9 12.35 -13.75 13.3 -12.45 14.2 -11.2 15.25 -9.7 16.15 -8.1 16.9 -6.6 Q17.35 -5.8 17.0 -5.25 L16.9 -5.15 Q16.75 -5.05 16.7 -5.25 L16.5 -5.5 16.0 -6.5 15.5 -7.65 15.1 -8.45 15.0 -8.6 14.25 -9.65 13.35 -10.9 12.4 -12.2 11.35 -13.35 10.05 -14.3 8.75 -15.2 7.25 -16.15 5.65 -16.8 4.15 -17.45 2.7 -17.55 1.2 -17.75 -0.3 -17.7 -1.9 -17.4 -3.45 -16.95 -5.05 -16.45 -6.55 -15.9 -7.9 -15.25 -9.15 -14.3 -10.45 -12.95 -11.65 -11.45 -12.15 -10.7 -12.5 -10.2 -13.85 -8.05 -14.6 -6.55 -15.1 -5.6 -15.2 -5.5 -15.55 -5.05 -15.6 -5.05 -15.7 -5.1 M-15.3 -1.2 L-14.7 2.75 -14.4 4.55 -13.9 6.2 -13.3 7.85 -12.55 9.35 -11.65 10.85 -10.75 12.05 -9.6 13.25 -8.45 14.3 -7.15 15.4 -5.9 16.35 -4.55 17.05 -3.15 17.7 -1.55 18.0 0.05 17.95 1.65 17.9 3.1 17.8 4.6 17.65 6.1 17.05 7.55 16.4 8.75 15.7 9.35 15.3 11.1 13.8 12.25 12.6 13.4 11.25 13.9 10.5 Q14.7 9.45 15.15 8.25 L15.6 7.05 15.95 5.7 Q16.15 4.95 16.5 4.25 L16.75 4.2 Q17.1 5.05 16.8 5.95 L16.2 7.7 15.55 9.25 15.15 9.95 14.25 11.45 13.15 12.95 11.95 14.4 10.7 15.6 9.5 16.55 8.35 17.35 7.0 18.2 6.15 18.5 4.5 19.05 2.9 19.2 1.45 19.3 -0.15 19.35 -1.85 19.35 -3.6 19.05 -5.15 18.35 -6.55 17.55 -7.9 16.6 -9.2 15.5 -10.95 13.85 -12.0 12.55 -13.0 11.2 -13.5 10.35 -14.65 8.0 -15.15 6.25 -15.55 4.35 -15.8 2.45 -16.1 0.9 Q-16.4 -0.4 -15.7 -1.6 L-15.3 -1.2" fill="#333333" fill-rule="evenodd" stroke="none"/>
    <path d="M-15.7 -5.1 L-15.6 -5.05 -15.55 -5.05" fill="none" stroke="#ff0000" stroke-linecap="round" stroke-linejoin="round" stroke-width="0.05"/>
    <path d="M-16.3 1.5 L-16.1 2.5 -15.85 3.25 -15.65 3.85 -15.6 4.25 -15.5 4.7 -15.5 4.85 -15.45 4.85 -15.55 5.0 -15.65 5.15 -15.7 5.2 -15.8 5.2 -15.9 5.15 -16.0 5.1 -16.1 4.85 -16.2 4.65 -16.25 4.6 -16.3 4.45 -16.3 4.25 -16.35 4.0 -16.45 3.8 -16.55 3.6 -16.6 3.5 -16.65 3.35 -16.7 3.2 -16.8 3.1 -16.9 2.95 -17.0 2.85 -17.05 2.75 -17.1 1.7 -17.05 1.45 -16.95 1.35 -16.85 1.3 -16.75 1.25 -16.65 1.25 -16.55 1.3 -16.4 1.45 -16.3 1.5" fill="#333333" fill-rule="evenodd" stroke="none"/>
    <path d="M-11.65 1.85 L-11.7 2.25 -11.55 2.35 -11.4 2.4 -11.2 2.35 -11.0 2.25 -10.85 2.15 -10.65 2.1 -10.45 2.1 -10.25 2.1 -10.1 2.1 -9.9 2.2 -9.7 2.35 -9.6 2.75 -9.7 3.05 -9.9 3.2 -10.1 3.35 -10.2 3.35 -10.25 3.5 -10.4 3.9 -10.6 4.2 -10.75 4.5 -10.95 4.6 -11.1 4.75 -11.15 4.85 -10.95 4.8 -10.8 4.65 -10.6 4.5 -10.4 4.3 -10.2 4.15 -10.05 3.9 -9.85 3.6 -9.65 3.5 -9.45 3.35 -9.25 3.25 -9.1 3.2 -8.9 3.15 -8.7 3.15 -8.5 3.15 -8.35 3.25 -8.15 3.4 -8.0 3.55 -8.0 3.65 -7.95 3.95 -7.9 4.0 -8.0 4.35 -8.2 4.6 -8.4 4.8 -8.6 5.0 -8.75 5.3 -8.95 5.65 -9.15 6.05 -9.15 6.35 -8.95 6.45 -8.8 6.6 -8.65 6.8 -8.6 6.9 -8.5 7.25 -8.65 7.65 -8.85 7.9 -9.0 8.25 -9.2 8.65 -9.4 8.9 -9.6 9.1 -9.8 9.2 -9.95 9.3 -10.15 9.35 -10.35 9.35 -10.5 9.3 -10.7 9.15 -10.9 9.0 -11.1 8.65 -11.25 8.6 -11.45 8.5 -11.65 8.35 -11.75 8.15 -11.8 8.05 -11.9 7.75 -11.8 7.4 -11.7 7.05 -11.6 6.6 -11.75 6.55 -11.95 6.55 -12.15 6.55 -12.35 6.55 -12.5 6.45 -12.7 6.35 -12.9 6.1 -13.0 5.75 -13.0 5.5 -12.95 5.0 -12.85 4.55 -12.65 4.35 -12.45 4.1 -12.25 3.8 -12.1 3.65 -11.95 3.55 -12.15 3.5 -12.35 3.4 -12.5 3.35 -12.6 3.2 -12.7 3.0 -12.7 2.75 -12.65 2.25 -12.5 1.95 -12.4 1.8 -12.25 1.3 -12.1 1.1 -11.9 1.15 -11.7 1.25 -11.6 1.5 -11.65 1.85" fill="#333333" fill-rule="evenodd" stroke="none"/>
    <path d="M-6.2 11.1 L-6.05 11.3 -5.9 11.5 -5.85 11.7 -5.85 11.75 -5.85 12.0 -5.95 12.3 -6.15 12.55 -6.35 12.7 -6.5 12.8 -6.7 12.85 -6.9 12.85 -7.1 12.85 -7.25 12.8 -7.45 12.65 -7.65 12.55 -7.75 12.25 -7.7 12.0 -7.55 11.65 -7.45 11.45 -7.35 11.15 -7.15 10.95 -6.95 10.75 -6.75 10.6 -6.6 10.65 -6.4 10.8 -6.2 11.1" fill="#333333" fill-rule="evenodd" stroke="none"/>
    <path d="M7.65 14.3 L7.85 14.55 8.25 15.05 8.4 15.25 8.8 16.25 8.9 16.5 8.95 16.7 9.0 16.75 8.8 17.0 8.65 17.1 8.5 17.1 8.3 17.05 8.1 16.85 7.75 15.9 7.55 15.35 7.35 15.1 7.25 14.9 7.2 14.75 7.1 13.85 7.3 13.75 7.5 13.85 7.65 14.3" fill="#333333" fill-rule="evenodd" stroke="none"/>
    <path d="M6.15 16.35 L6.35 16.35 6.55 16.55 6.75 16.75 6.8 16.95 6.85 17.0 6.8 17.85 6.6 18.0 6.4 18.0 6.35 17.9 6.2 16.6 6.15 16.35" fill="#333333" fill-rule="evenodd" stroke="none"/>
    <path d="M4.25 14.1 L4.35 14.8 4.4 14.95 4.4 15.0 4.35 16.85 4.15 17.05 4.0 17.05 3.8 17.0 3.65 16.75 3.65 15.0 3.7 14.8 3.85 14.1 4.05 14.0 4.25 14.1" fill="#333333" fill-rule="evenodd" stroke="none"/>
    <path d="M1.9 14.85 L1.8 15.1 1.75 16.35 1.55 16.5 1.35 16.35 1.35 15.1 1.75 14.55 1.85 14.55 1.9 14.75 1.9 14.85" fill="#333333" fill-rule="evenodd" stroke="none"/>
    <path d="M-9.75 -12.45 L-9.8 -12.55 -9.9 -12.8 -9.9 -13.3 -9.75 -13.55 -9.6 -13.5 -9.4 -13.3 -9.05 -12.95 -8.45 -12.4 -8.15 -12.1 -8.1 -12.0 -8.05 -11.8 -8.0 -11.8 -8.2 -11.5 -8.35 -11.4 -8.9 -11.6 -9.45 -12.15 -9.75 -12.45" fill="#333333" fill-rule="evenodd" stroke="none"/>
    <path d="M-10.5 -11.65 L-10.35 -11.55 -10.15 -11.4 -9.95 -11.35 -9.75 -11.3 -9.4 -10.9 -9.0 -10.55 -8.85 -10.4 -8.65 -10.35 -8.45 -10.35 -8.25 -10.35 -8.1 -10.35 -8.0 -10.2 -7.95 -10.05 -7.95 -9.9 -8.15 -9.7 -8.35 -9.7 -8.5 -9.7 -8.7 -9.7 -8.9 -9.7 -9.5 -10.05 -10.0 -10.65 -10.2 -10.9 -10.25 -11.15 -10.45 -11.35 -10.5 -11.65" fill="#333333" fill-rule="evenodd" stroke="none"/>
    <path d="M11.0 -6.0 L10.8 -6.15 10.8 -6.45 11.1 -7.2 11.3 -7.6 11.5 -7.95 11.7 -8.1 11.85 -8.15 12.05 -8.1 12.2 -8.0 12.3 -7.75 12.3 -7.65 11.95 -7.2 11.75 -6.85 11.55 -6.55 11.35 -6.2 11.15 -6.05 11.0 -6.0" fill="#333333" fill-rule="evenodd" stroke="none"/>
    <path d="M3.85 -13.7 L4.25 -13.65 4.4 -13.6 4.6 -13.55 4.7 -13.45 4.75 -13.3 4.75 -13.15 4.55 -13.05 4.15 -12.95 3.8 -12.85 3.4 -12.8 3.25 -12.8 3.05 -12.9 2.9 -12.95 2.85 -13.05 2.8 -13.3 2.9 -13.6 3.1 -13.8 3.3 -13.8 3.5 -13.8 3.65 -13.8 3.85 -13.7" fill="#333333" fill-rule="evenodd" stroke="none"/>
  </g>
</svg>
