<?xml version="1.0" encoding="UTF-8" standalone="no"?>
<svg xmlns:xlink="http://www.w3.org/1999/xlink" height="103.75px" width="31.8px" xmlns="http://www.w3.org/2000/svg">
  <g transform="matrix(1.0, 0.0, 0.0, 1.0, 15.75, 51.6)">
    <path d="M-13.05 -44.45 L-9.95 -44.25 -7.8 -44.1 -5.45 -41.1 -3.3 -38.65 -0.85 -35.9 0.7 -38.55 2.9 -40.9 4.85 -43.25 Q5.35 -43.6 6.65 -45.9 L7.35 -48.6 7.7 -51.1 M-0.85 -35.9 Q-1.65 -34.15 -1.8 -32.2 L-2.25 -28.1 Q-2.55 -25.9 -2.95 -25.0 -3.35 -24.05 -3.1 -23.15 L-2.05 -19.45 Q-1.55 -17.55 -1.45 -15.5 L-1.1 -11.4 Q-0.85 -9.4 -0.4 -8.6 0.1 -7.75 0.15 -5.85 -0.25 -6.05 1.35 -2.5 L3.95 -5.6 5.55 -8.05 7.15 -10.35 Q7.3 -12.3 7.8 -14.15 8.3 -15.95 8.45 -18.1 L8.6 -21.2 8.9 -25.15 Q10.35 -26.75 10.55 -27.55 10.8 -28.35 12.25 -29.65 11.35 -31.3 9.75 -32.75 L7.35 -34.8 6.4 -35.65 Q5.5 -36.95 5.05 -38.05 4.6 -39.15 2.9 -40.9 M15.55 -34.15 L13.4 -31.75 12.25 -29.65 M1.35 -2.5 Q1.7 -2.55 2.55 0.85 3.65 2.15 4.55 2.55 5.5 2.95 7.4 4.4 L8.4 0.65 Q8.85 -1.25 9.25 -2.25 L9.9 -4.1 Q10.85 -5.9 11.85 -6.45 12.85 -6.95 15.1 -9.65 L12.2 -9.8 7.15 -10.35 M2.55 0.85 Q1.85 3.0 1.7 4.75 L1.4 7.65 Q1.2 8.8 1.35 11.9 L3.95 13.65 4.9 14.4 6.3 11.7 8.4 8.4 7.5 5.4 Q7.1 4.6 7.4 4.4 M-15.25 38.15 L-12.45 37.4 -9.25 36.95 Q-7.8 35.4 -7.45 34.55 L-6.6 33.0 -4.45 29.7 -2.05 26.45 Q-0.75 24.85 -0.3 23.75 L0.15 22.9 Q-0.15 21.15 0.45 18.9 L1.05 15.95 1.35 11.9 Q0.75 10.15 0.0 9.3 L-2.1 5.9 Q-3.8 7.1 -4.85 7.55 L-7.85 9.65 -10.95 8.85 Q-12.15 8.55 -13.55 7.85 M15.4 21.4 Q13.7 20.2 13.1 19.4 12.55 18.6 10.65 17.9 10.65 16.2 9.95 14.0 L9.05 10.95 8.4 8.4 M-6.6 33.0 L-5.75 33.95 -3.25 35.8 -0.1 38.15 Q1.4 37.7 2.1 37.0 2.85 36.35 4.9 35.4 L6.55 37.15 8.65 39.65 Q10.7 37.65 10.9 37.65 10.2 35.7 9.8 33.6 L9.05 29.7 8.15 26.0 6.8 22.1 Q6.05 20.15 6.0 19.15 6.0 18.15 4.9 14.4 M-0.1 38.15 L0.65 42.2 1.3 46.1 1.65 49.05 Q1.75 50.05 2.55 51.65 M15.5 39.35 L12.35 38.2 10.9 37.65 M-13.65 -10.9 L-10.85 -11.55 -8.25 -11.85 -5.05 -9.65 -2.55 -7.8 0.15 -5.85" fill="none" stroke="#333333" stroke-linecap="round" stroke-linejoin="round" stroke-opacity="0.5019608" stroke-width="1.0"/>
  </g>
</svg>
