<?xml version="1.0" encoding="UTF-8" standalone="no"?>
<svg xmlns:xlink="http://www.w3.org/1999/xlink" height="17.85px" width="23.3px" xmlns="http://www.w3.org/2000/svg">
  <g transform="matrix(1.0, 0.0, 0.0, 1.0, 11.45, 8.7)">
    <path d="M11.35 -6.55 L8.5 -6.5 -4.4 -6.35 -4.2 0.1 -4.2 0.45 -5.25 0.35 -5.25 -3.6 Q-5.25 -5.05 -4.75 -6.35 L-9.7 -6.45 -9.6 -0.05 -11.35 -0.2 -11.35 -2.1 -11.15 -6.05 -11.15 -6.25 -11.3 -6.65 -11.4 -7.05 -11.45 -7.25 -11.4 -7.4 -11.3 -7.6 -11.2 -7.8 -11.15 -8.0 -11.05 -8.15 -10.85 -8.35 -10.55 -8.55 -10.15 -8.65 -10.15 -8.7 -9.8 -8.5 -9.65 -8.35 -9.65 -8.2 -9.7 -8.0 -9.75 -7.95 -7.25 -8.0 -7.25 -8.05 1.25 -8.0 8.5 -7.9 11.45 -7.85 11.35 -6.55" fill="#333333" fill-rule="evenodd" stroke="none"/>
    <path d="M-4.2 0.45 L-4.2 0.1 -4.4 -6.35 8.5 -6.5 11.35 -6.55 10.5 -1.35 3.0 8.65 -3.95 0.45 -4.2 0.45 M-9.6 -0.05 L-9.7 -6.45 -4.75 -6.35 Q-5.25 -5.05 -5.25 -3.6 L-5.25 0.35 -9.6 -0.05" fill="#b0cedc" fill-opacity="0.16078432" fill-rule="evenodd" stroke="none"/>
    <path d="M-4.2 0.45 L-3.95 0.45 -1.6 3.45 0.55 5.9 3.0 8.65 Q3.75 6.85 5.15 5.2 L7.8 2.2 Q9.05 0.8 9.4 -0.1 9.75 -0.95 10.5 -1.35 L11.05 -4.15 11.35 -6.55 M-9.6 -0.05 L-6.75 0.5 -5.25 0.35" fill="none" stroke="#333333" stroke-linecap="round" stroke-linejoin="round" stroke-opacity="0.5019608" stroke-width="1.0"/>
    <path d="M6.45 -3.95 L6.45 -3.75 6.4 -3.55 6.3 -3.4 6.2 -3.2 6.1 -3.0 5.95 -2.8 Q4.9 -2.05 3.8 -1.4 L1.15 0.35 0.9 0.55 0.75 0.75 0.6 1.1 0.25 1.7 0.0 2.05 -0.35 2.35 -0.65 2.45 -1.1 2.3 -1.35 2.1 -1.5 1.95 -1.55 1.75 -1.55 1.55 -1.55 1.35 -1.55 1.2 -1.65 1.1 -2.15 1.2 -2.4 1.2 -2.85 1.05 -3.1 0.85 -3.25 0.7 -3.35 0.65 -3.75 0.75 -4.15 0.85 -4.9 0.85 -5.35 0.75 -5.55 0.55 -5.65 0.35 -5.7 0.2 -5.75 0.0 -5.75 -0.4 -5.75 -0.75 -5.75 -0.95 -5.65 -1.15 -5.6 -1.3 -5.7 -1.4 -6.1 -1.55 -6.3 -1.75 -6.4 -1.95 -6.4 -2.15 -6.4 -2.3 -6.4 -2.5 -6.4 -2.65 -6.1 -3.05 -5.75 -3.45 -5.55 -3.65 -5.45 -3.8 -5.35 -4.0 -5.25 -4.2 -5.15 -4.4 -5.1 -4.55 -5.1 -4.75 -5.1 -4.95 -4.95 -5.1 -4.8 -5.3 -4.75 -5.5 -4.7 -5.7 -4.65 -5.9 -4.5 -6.05 -4.15 -6.25 -4.0 -6.4 -3.75 -6.5 -3.4 -6.55 -2.65 -6.6 -2.65 -6.65 -2.25 -6.5 -2.0 -6.3 -1.85 -6.15 -1.75 -6.0 -1.55 -5.95 -1.35 -6.15 -0.9 -6.25 -0.65 -6.25 -0.3 -6.15 -0.05 -5.95 0.05 -5.75 0.15 -5.55 0.15 -5.4 0.25 -5.25 Q0.25 -5.2 0.35 -5.2 L0.5 -5.4 0.95 -5.55 1.4 -5.75 1.65 -5.95 2.0 -6.15 2.25 -6.25 2.6 -6.3 2.85 -6.3 3.25 -6.2 3.45 -6.0 3.55 -5.8 3.65 -5.65 3.65 -5.45 3.65 -5.25 3.6 -5.05 3.3 -4.7 2.75 -4.15 2.4 -3.75 2.2 -3.55 1.9 -3.4 1.6 -3.2 1.0 -2.65 0.45 -2.1 -0.2 -1.5 -0.5 -1.15 -0.5 -1.1 -0.05 -1.2 0.45 -1.4 1.9 -2.7 Q3.1 -3.7 4.5 -4.4 L5.25 -4.75 5.6 -4.8 6.0 -4.7 6.2 -4.5 6.3 -4.3 6.4 -4.15 6.45 -3.95" fill="#663366" fill-opacity="0.050980393" fill-rule="evenodd" stroke="none"/>
    <path d="M4.25 -6.3 L4.4 -6.15 4.45 -5.95 4.5 -5.75 4.5 -5.55 4.5 -5.4 4.45 -5.2 Q3.6 -3.75 2.4 -2.65 L0.9 -1.25 Q-0.95 0.35 -3.1 1.55 L-3.35 1.7 -3.65 1.7 -4.15 1.75 -4.6 1.6 -4.85 1.4 -5.05 1.25 -5.1 1.05 -5.1 0.85 -5.1 0.7 -5.1 0.5 -5.1 0.3 -5.05 0.15 -4.9 -0.05 -5.05 -0.25 -5.1 -0.45 -5.1 -0.65 -5.1 -0.8 -5.05 -1.0 -4.95 -1.2 -4.8 -1.4 -4.6 -1.6 -4.5 -1.75 -4.5 -1.95 -4.5 -2.15 -4.5 -2.3 -4.5 -2.5 -4.45 -2.7 -4.45 -3.05 -4.4 -3.25 -4.45 -3.4 -4.65 -3.65 -4.85 -3.85 -4.9 -4.0 -4.9 -4.2 -4.9 -4.4 -4.85 -4.55 -4.85 -4.75 -4.85 -4.95 -4.7 -5.15 -4.55 -5.3 -4.35 -5.5 -4.05 -5.7 -3.85 -5.85 -3.6 -6.05 -3.5 -6.25 -3.9 -6.45 -4.15 -6.65 -4.25 -6.8 -4.2 -7.0 -4.15 -7.2 -4.05 -7.4 -3.7 -7.45 -3.65 -7.5 -3.3 -7.4 -2.85 -7.25 -2.4 -7.25 -2.05 -7.15 -1.75 -7.0 -1.4 -7.05 -1.25 -7.2 -0.9 -7.25 -0.55 -7.15 -0.3 -6.95 -0.2 -6.75 -0.1 -6.55 -0.1 -6.4 -0.1 -6.3 0.1 -6.2 0.45 -6.15 0.75 -6.2 1.0 -6.4 1.2 -6.55 1.4 -6.7 1.5 -6.75 1.85 -6.8 2.25 -6.7 2.45 -6.5 2.65 -6.4 3.0 -6.45 3.25 -6.55 3.6 -6.65 4.0 -6.5 4.25 -6.3" fill="#663366" fill-opacity="0.050980393" fill-rule="evenodd" stroke="none"/>
    <path d="M8.5 -6.5 L11.35 -6.55 10.5 -1.35 3.0 8.65 -3.95 0.45 -4.2 0.45 -4.2 0.1 -4.4 -6.35 8.5 -6.5" fill="#b0cedc" fill-opacity="0.16078432" fill-rule="evenodd" stroke="none"/>
  </g>
</svg>
