<?xml version="1.0" encoding="UTF-8" standalone="no"?>
<svg xmlns:xlink="http://www.w3.org/1999/xlink" height="39.75px" width="16.15px" xmlns="http://www.w3.org/2000/svg">
  <g transform="matrix(1.0, 0.0, 0.0, 1.0, 7.95, 19.8)">
    <path d="M-0.5 -18.8 L-0.25 -18.8 1.4 -16.85 1.4 -16.8 1.5 -16.65 1.65 -16.55 6.7 -10.6 4.45 2.15 7.7 19.45 -0.7 13.45 -2.15 13.75 -2.15 13.7 -2.15 13.3 -2.05 12.95 -1.9 12.55 -1.85 12.35 -1.8 12.2 -1.7 12.0 -1.6 11.8 -1.55 11.6 -1.45 11.45 -1.4 11.25 -1.3 11.05 -1.2 10.9 -1.1 10.7 -1.05 10.5 -1.0 5.05 -0.95 5.05 Q-0.85 4.8 -0.9 4.55 L-0.95 3.85 -0.85 3.1 -0.75 3.0 -0.7 2.95 -0.55 0.35 -0.3 -6.15 -0.35 -12.65 -0.5 -18.8" fill="#b0cedc" fill-opacity="0.3019608" fill-rule="evenodd" stroke="none"/>
    <path d="M-0.5 -18.8 L-0.35 -12.65 -0.3 -6.15 -0.55 0.35 -0.7 2.95 -0.75 3.0 -0.85 3.1 -0.95 3.85 -0.9 4.55 Q-0.85 4.8 -0.95 5.05 L-1.0 5.05 Q-1.3 4.9 -1.2 4.55 L-1.15 3.85 -1.15 3.35 -1.2 3.25 -1.3 3.1 -1.7 -3.35 -1.7 -9.85 -1.6 -16.35 -1.55 -18.9 -0.5 -18.8 M-5.9 -19.3 L-5.9 -13.9 -5.95 -1.95 -6.0 10.05 -6.05 14.4 -7.45 14.8 -7.45 14.6 Q-7.4 8.6 -7.5 2.65 L-7.7 -9.35 -7.65 -19.45 -5.9 -19.3" fill="#333333" fill-rule="evenodd" stroke="none"/>
    <path d="M-1.0 5.05 L-1.05 10.5 -1.1 10.7 -1.2 10.9 -1.3 11.05 -1.4 11.25 -1.45 11.45 -1.55 11.6 -1.6 11.8 -1.7 12.0 -1.8 12.2 -1.85 12.35 -1.9 12.55 -2.05 12.95 -2.15 13.3 -2.15 13.7 -2.15 13.75 -7.45 14.8 -6.05 14.4 -6.0 10.05 -5.95 -1.95 -5.9 -13.9 -5.9 -19.3 -1.55 -18.9 -1.6 -16.35 -1.7 -9.85 -1.7 -3.35 -1.3 3.1 -1.2 3.25 -1.15 3.35 -1.15 3.85 -1.2 4.55 Q-1.3 4.9 -1.0 5.05 M1.65 -16.55 L1.5 -16.65 1.4 -16.8 1.4 -16.85 1.65 -16.55" fill="#b0cedc" fill-opacity="0.16078432" fill-rule="evenodd" stroke="none"/>
    <path d="M-0.25 -18.8 L1.4 -16.85 1.65 -16.55 3.55 -14.2 6.7 -10.6 Q5.9 -8.85 5.75 -6.9 L5.3 -2.8 Q5.0 -0.6 4.6 0.3 4.2 1.25 4.45 2.15 L5.5 5.85 Q6.0 7.75 6.1 9.8 L6.45 13.9 Q6.7 15.9 7.15 16.7 7.65 17.55 7.7 19.45 L4.25 17.05 2.0 15.4 -0.7 13.45 Q-0.85 13.25 -2.15 13.75 L-4.7 14.35 -6.0 14.55 -7.45 14.8 M-5.9 -19.3 L-3.05 -18.75 -1.55 -18.9" fill="none" stroke="#333333" stroke-linecap="round" stroke-linejoin="round" stroke-opacity="0.5019608" stroke-width="1.0"/>
  </g>
</svg>
