<?xml version="1.0" encoding="UTF-8" standalone="no"?>
<svg xmlns:xlink="http://www.w3.org/1999/xlink" height="24.85px" width="8.85px" xmlns="http://www.w3.org/2000/svg">
  <g transform="matrix(1.0, 0.0, 0.0, 1.0, 4.65, 12.15)">
    <path d="M2.3 12.1 L-4.15 11.5 -2.4 -3.3 2.25 -9.55 2.25 2.25 2.3 12.1" fill="#b0cedc" fill-opacity="0.3019608" fill-rule="evenodd" stroke="none"/>
    <path d="M2.25 -9.55 L4.2 -12.15 4.15 -5.95 4.05 6.05 3.95 12.1 3.9 12.1 3.85 12.15 2.3 12.1 2.25 2.25 2.25 -9.55" fill="#333333" fill-rule="evenodd" stroke="none"/>
    <path d="M2.25 -9.55 L0.4 -7.2 -2.4 -3.3 Q-2.4 -1.3 -3.05 0.7 -3.65 2.7 -3.75 4.9 L-3.8 7.9 -4.15 11.5 -1.05 12.0 2.3 12.1" fill="none" stroke="#333333" stroke-linecap="round" stroke-linejoin="round" stroke-opacity="0.5019608" stroke-width="1.0"/>
  </g>
</svg>
