<?xml version="1.0" encoding="UTF-8" standalone="no"?>
<svg xmlns:xlink="http://www.w3.org/1999/xlink" height="31.1px" width="8.55px" xmlns="http://www.w3.org/2000/svg">
  <g transform="matrix(1.0, 0.0, 0.0, 1.0, 4.5, 15.55)">
    <path d="M2.25 14.25 L2.3 10.55 2.35 -1.45 2.2 -13.4 2.2 -13.9 3.75 -15.55 3.85 -15.55 3.75 -9.7 3.7 2.3 Q3.7 8.3 4.0 14.3 L4.05 15.55 2.25 14.25" fill="#333333" fill-rule="evenodd" stroke="none"/>
    <path d="M2.2 -13.9 L2.2 -13.4 2.35 -1.45 2.3 10.55 2.25 14.25 -0.75 12.05 -4.0 -1.45 -1.5 -9.95 2.2 -13.9" fill="#b0cedc" fill-opacity="0.3019608" fill-rule="evenodd" stroke="none"/>
    <path d="M2.2 -13.9 L0.05 -11.85 -1.5 -9.95 Q-2.45 -8.4 -2.7 -6.3 -2.9 -4.2 -3.35 -3.25 L-4.0 -1.45 -3.2 2.5 -2.25 6.35 -1.3 9.4 -0.75 12.05 2.25 14.25" fill="none" stroke="#333333" stroke-linecap="round" stroke-linejoin="round" stroke-opacity="0.5019608" stroke-width="1.0"/>
  </g>
</svg>
