<?xml version="1.0" encoding="UTF-8" standalone="no"?>
<svg xmlns:xlink="http://www.w3.org/1999/xlink" height="32.95px" width="17.5px" xmlns="http://www.w3.org/2000/svg">
  <g transform="matrix(1.0, 0.0, 0.0, 1.0, 8.65, 16.6)">
    <path d="M6.35 -13.5 L8.3 -10.1 7.1 0.9 -1.0 13.05 Q-1.0 7.75 -1.15 2.5 L-1.1 2.3 -1.05 2.15 -1.15 -0.7 -1.1 -5.85 Q-1.1 -8.35 -1.45 -10.8 L-1.5 -10.95 -1.5 -12.55 -0.9 -12.35 4.85 -16.1 6.3 -13.55 6.3 -12.55 6.3 -11.8 6.35 -11.7 6.55 -11.65 6.6 -11.8 6.6 -12.0 6.6 -12.15 6.6 -12.35 6.6 -12.55 6.55 -12.75 6.45 -12.9 6.35 -13.5" fill="#b0cedc" fill-opacity="0.3019608" fill-rule="evenodd" stroke="none"/>
    <path d="M6.35 -13.5 L6.45 -12.9 6.55 -12.75 6.6 -12.55 6.6 -12.35 6.6 -12.15 6.6 -12.0 6.6 -11.8 6.55 -11.65 6.35 -11.7 6.3 -11.8 6.3 -12.55 6.3 -13.55 6.35 -13.5 M-1.5 -12.55 L-1.5 -10.95 -1.55 -11.0 -1.65 -11.0 -1.75 -10.95 -1.8 -10.85 -1.9 -10.7 -1.95 -10.5 -2.0 -10.3 -2.05 -7.45 -2.15 -2.3 -2.15 2.65 -2.2 8.75 -2.2 13.65 -2.65 13.6 -2.65 13.65 -3.3 13.7 -3.4 13.9 -3.45 14.1 -3.4 14.3 -3.3 14.45 -3.0 14.55 -2.8 14.55 -2.75 14.45 -2.25 14.4 -2.25 14.9 -2.3 14.95 -6.4 15.8 -6.45 14.3 -6.75 4.6 -6.7 -1.3 -6.6 -13.3 -6.55 -14.15 -8.15 -14.8 -1.5 -12.55" fill="#b0cedc" fill-opacity="0.16078432" fill-rule="evenodd" stroke="none"/>
    <path d="M-1.5 -10.95 L-1.45 -10.8 Q-1.1 -8.35 -1.1 -5.85 L-1.15 -0.7 -1.05 2.15 -1.1 2.3 -1.15 2.5 Q-1.0 7.75 -1.0 13.05 L-2.25 14.9 -2.25 14.4 -2.75 14.45 -2.8 14.55 -3.0 14.55 -3.3 14.45 -3.4 14.3 -3.45 14.1 -3.4 13.9 -3.3 13.7 -2.65 13.65 -2.65 13.6 -2.2 13.65 -2.2 8.75 -2.15 2.65 -2.15 -2.3 -2.05 -7.45 -2.0 -10.3 -1.95 -10.5 -1.9 -10.7 -1.8 -10.85 -1.75 -10.95 -1.65 -11.0 -1.55 -11.0 -1.5 -10.95 M-6.4 15.8 L-8.35 16.15 -8.2 10.3 -8.0 4.6 -8.05 4.2 -8.05 3.85 -8.05 3.45 -8.0 3.1 -8.1 -8.7 -8.15 -14.8 -6.55 -14.15 -6.6 -13.3 -6.7 -1.3 -6.75 4.6 -6.45 14.3 -6.4 15.8" fill="#333333" fill-rule="evenodd" stroke="none"/>
    <path d="M-8.15 -14.8 L-6.55 -14.15 -5.35 -13.6 Q-4.3 -13.05 -1.5 -12.55 -1.5 -12.8 -0.9 -12.35 L1.35 -13.9 4.85 -16.1 6.3 -13.55 6.35 -13.5 8.3 -10.1 Q8.5 -8.1 8.05 -6.1 L7.55 -3.25 7.1 0.9 Q5.5 2.8 4.8 4.2 L2.85 7.55 1.05 10.15 -1.0 13.05 M-2.3 14.95 L-5.1 15.7 -6.4 15.8" fill="none" stroke="#333333" stroke-linecap="round" stroke-linejoin="round" stroke-opacity="0.5019608" stroke-width="1.0"/>
  </g>
</svg>
