<?xml version="1.0" encoding="UTF-8" standalone="no"?>
<svg xmlns:xlink="http://www.w3.org/1999/xlink" height="28.75px" width="18.5px" xmlns="http://www.w3.org/2000/svg">
  <g transform="matrix(1.0, 0.0, 0.0, 1.0, 9.25, 14.35)">
    <path d="M-2.0 -2.85 L-0.8 -13.85 2.75 -11.35 8.75 11.9 6.5 13.9 2.75 9.65 -2.25 12.4 -8.75 7.25 -2.0 -2.85" fill="#b0cedc" fill-opacity="0.3019608" fill-rule="evenodd" stroke="none"/>
    <path d="M-0.8 -13.85 L1.8 -12.1 Q2.4 -11.5 2.75 -11.35 2.85 -9.05 3.65 -7.55 4.45 -6.0 4.75 -4.05 L5.7 0.2 6.8 4.3 7.45 6.9 8.75 11.9 6.5 13.9 4.4 11.4 2.75 9.65 Q0.7 10.6 -0.05 11.25 -0.75 11.95 -2.25 12.4 L-5.4 10.05 -7.9 8.2 Q-8.8 7.6 -8.75 7.25 L-6.6 3.95 -4.2 0.7 Q-2.9 -0.9 -2.45 -2.0 L-2.0 -2.85 Q-2.3 -4.6 -1.7 -6.85 -1.05 -9.05 -1.1 -9.8 L-0.8 -13.85 Z" fill="none" stroke="#333333" stroke-linecap="round" stroke-linejoin="round" stroke-opacity="0.5019608" stroke-width="1.0"/>
  </g>
</svg>
