<?xml version="1.0" encoding="UTF-8" standalone="no"?>
<svg xmlns:xlink="http://www.w3.org/1999/xlink" height="20.8px" width="18.55px" xmlns="http://www.w3.org/2000/svg">
  <g transform="matrix(1.0, 0.0, 0.0, 1.0, 9.3, 10.65)">
    <path d="M8.65 7.75 L9.25 9.35 -1.6 9.4 -1.6 9.5 -1.65 9.7 -1.75 9.9 -1.9 10.0 -2.0 10.05 -2.35 10.15 -2.75 10.0 -2.95 9.85 -3.1 9.65 -3.1 9.4 -7.0 9.35 -7.2 9.5 -7.5 9.7 -8.05 9.85 -8.7 9.7 -9.0 9.5 -9.15 9.35 -9.2 9.15 Q-9.4 4.15 -9.2 -0.75 L-9.05 -5.0 -7.1 -5.35 -6.8 3.25 -6.75 7.7 -3.1 7.7 -3.05 -1.4 -3.0 -2.85 -3.4 -3.0 -3.9 -3.2 -4.35 -3.35 -4.9 -3.55 -5.0 -3.75 -5.0 -3.95 -4.95 -4.1 -4.8 -4.2 -4.6 -4.3 -4.35 -4.3 -3.6 -4.0 -3.0 -3.8 -2.95 -6.25 -1.7 -8.1 -1.7 -7.6 -1.65 -2.85 -1.55 3.4 -1.5 7.7 8.65 7.75" fill="#333333" fill-rule="evenodd" stroke="none"/>
    <path d="M8.65 7.75 L-1.5 7.7 -1.55 3.4 -1.65 -2.85 -1.7 -7.6 -1.7 -8.1 -0.35 -10.15 6.15 -5.0 8.65 7.75" fill="#b0cedc" fill-opacity="0.3019608" fill-rule="evenodd" stroke="none"/>
    <path d="M-2.95 -6.25 L-3.0 -3.8 -3.6 -4.0 -4.35 -4.3 -4.6 -4.3 -4.8 -4.2 -4.95 -4.1 -5.0 -3.95 -5.0 -3.75 -4.9 -3.55 -4.35 -3.35 -3.9 -3.2 -3.4 -3.0 -3.0 -2.85 -3.05 -1.4 -3.1 7.7 -6.75 7.7 -6.8 3.25 -7.1 -5.35 -3.0 -6.2 -2.95 -6.25" fill="#b0cedc" fill-opacity="0.16078432" fill-rule="evenodd" stroke="none"/>
    <path d="M-1.7 -8.1 Q-1.3 -8.0 -0.35 -10.15 L2.75 -7.65 Q4.3 -6.45 5.3 -5.8 6.3 -5.1 6.15 -5.0 L6.95 -0.95 7.6 2.95 7.9 5.95 Q7.95 6.95 8.65 7.75 M-3.0 -6.2 L-5.8 -5.45 -7.1 -5.35" fill="none" stroke="#333333" stroke-linecap="round" stroke-linejoin="round" stroke-opacity="0.5019608" stroke-width="1.0"/>
  </g>
</svg>
