<?xml version="1.0" encoding="UTF-8" standalone="no"?>
<svg xmlns:xlink="http://www.w3.org/1999/xlink" height="29.1px" width="26.0px" xmlns="http://www.w3.org/2000/svg">
  <g transform="matrix(1.0, 0.0, 0.0, 1.0, 10.15, 14.9)">
    <path d="M15.65 -14.8 L15.8 -12.75 15.75 -10.7 15.8 -9.45 15.75 -8.05 15.65 -6.55 15.6 -5.7 15.6 -5.6 15.55 -5.5 15.55 -5.45 15.55 -5.35 15.55 -5.25 15.45 -5.25 15.45 -5.3 15.45 -5.4 15.4 -5.5 15.35 -5.6 15.25 -9.15 15.2 -12.8 15.3 -14.75 15.35 -14.85 15.5 -14.9 15.55 -14.9 15.65 -14.8" fill="#473e30" fill-rule="evenodd" stroke="none"/>
    <path d="M15.7 -1.2 L15.6 -1.1 15.6 -1.0 15.65 -0.95 15.75 2.35 15.85 5.65 15.85 7.5 15.8 7.6 15.8 7.7 15.75 7.8 15.7 7.9 15.65 8.0 15.6 8.1 15.55 8.15 15.45 8.2 15.35 8.1 15.3 8.0 15.25 7.9 15.2 7.85 15.2 7.75 15.15 7.65 15.15 4.35 15.25 1.0 15.35 -0.9 15.35 -1.0 15.4 -1.1 15.4 -1.2 15.5 -1.25 15.65 -1.3 15.7 -1.3 15.7 -1.2" fill="#473e30" fill-rule="evenodd" stroke="none"/>
    <path d="M-8.65 9.15 L-8.7 9.05 -8.7 8.95 -8.65 8.85 -8.6 8.8 -3.65 8.6 -2.5 8.6 -2.0 8.9 -2.0 8.95 -2.0 9.05 -2.05 9.15 -2.1 9.25 -2.25 9.35 -2.35 9.4 -8.6 9.25 -8.65 9.15" fill="#473e30" fill-rule="evenodd" stroke="none"/>
    <path d="M-9.9 9.8 L-10.0 9.7 -10.15 9.6 -10.15 9.5 -10.15 9.4 -8.9 9.1 -2.65 9.1 -1.75 9.1 -1.3 9.6 -1.4 9.7 -1.6 9.9 -1.65 10.0 -9.9 9.8" fill="#473e30" fill-rule="evenodd" stroke="none"/>
    <path d="M-8.65 13.35 L-8.7 13.25 -8.7 13.15 -8.65 13.05 -8.6 13.0 -3.65 12.8 -2.5 12.8 -2.0 13.1 -2.0 13.15 -2.0 13.25 -2.05 13.35 -2.1 13.45 -2.25 13.55 -2.35 13.6 -8.6 13.45 -8.65 13.35" fill="#473e30" fill-rule="evenodd" stroke="none"/>
    <path d="M-9.9 14.0 L-10.0 13.9 -10.15 13.8 -10.15 13.7 -10.15 13.6 -8.9 13.3 -2.65 13.3 -1.75 13.3 -1.3 13.8 -1.4 13.9 -1.6 14.1 -1.65 14.2 -9.9 14.0" fill="#473e30" fill-rule="evenodd" stroke="none"/>
  </g>
</svg>
