<?xml version="1.0" encoding="UTF-8" standalone="no"?>
<svg xmlns:xlink="http://www.w3.org/1999/xlink" height="28.35px" width="29.2px" xmlns="http://www.w3.org/2000/svg">
  <g transform="matrix(1.0, 0.0, 0.0, 1.0, 14.35, 14.4)">
    <path d="M-4.25 7.15 L-4.2 7.35 -4.1 7.75 -4.05 8.75 Q-4.05 10.85 -5.55 12.4 -7.05 13.95 -9.2 13.95 -11.35 14.0 -12.85 12.45 -14.35 10.95 -14.35 8.85 -14.35 6.7 -12.85 5.2 -11.35 3.65 -9.2 3.6 -7.05 3.6 -5.55 5.15 -4.65 6.0 -4.25 7.15" fill="#000000" fill-rule="evenodd" stroke="none"/>
    <path d="M-4.25 7.15 L-9.4 -13.9 Q-6.5 -10.05 -0.55 -13.2 M9.2 -8.7 L14.35 1.45 9.2 11.85 M4.2 -8.7 L9.35 1.45 4.2 11.85" fill="none" stroke="#000000" stroke-linecap="round" stroke-linejoin="round" stroke-width="1.0"/>
  </g>
</svg>
