<?xml version="1.0" encoding="UTF-8" standalone="no"?>
<svg xmlns:xlink="http://www.w3.org/1999/xlink" height="103.35px" width="19.9px" xmlns="http://www.w3.org/2000/svg">
  <g transform="matrix(1.0, 0.0, 0.0, 1.0, 9.95, 51.65)">
    <path d="M-5.1 -48.3 L-5.0 -48.5 -4.75 -48.7 -4.3 -48.8 -3.9 -48.9 0.0 -49.2 3.45 -49.4 3.9 -49.25 4.05 -49.3 4.15 -49.45 4.35 -49.65 4.5 -49.75 4.65 -49.8 4.95 -49.85 4.95 -49.9 5.4 -49.75 5.65 -49.55 5.75 -49.4 5.85 -49.2 5.85 -49.0 5.9 -48.8 5.9 -48.65 5.9 -48.45 5.9 -48.25 5.9 -48.1 6.0 -47.9 6.1 -47.7 6.15 -46.75 6.1 -45.45 6.15 -44.15 6.1 -43.95 6.0 -43.75 5.95 -43.55 5.9 -43.4 5.9 -43.2 5.9 -43.0 5.9 -42.65 5.9 -42.25 5.85 -42.05 5.75 -41.9 5.75 -41.8 5.85 -41.8 6.0 -41.9 6.15 -41.95 6.45 -42.0 6.85 -41.9 7.4 -41.7 7.55 -41.5 7.65 -41.3 8.05 -40.75 8.2 -40.55 8.25 -40.4 8.3 -40.2 8.35 -40.0 8.35 -39.65 8.35 -39.25 8.35 -39.05 8.25 -38.9 8.15 -38.7 8.1 -38.5 8.1 -38.3 8.1 -38.15 8.1 -37.75 8.1 -37.55 8.0 -37.4 7.9 -37.2 7.7 -37.0 7.5 -36.9 7.2 -36.85 6.45 -36.8 6.4 -36.8 6.4 -36.75 6.4 -35.25 6.4 -33.95 6.4 -33.75 6.45 -33.7 6.9 -33.55 7.15 -33.4 7.25 -33.2 7.4 -33.0 7.45 -32.8 7.45 -32.65 7.45 -32.45 7.4 -32.05 7.4 -31.7 7.45 -31.5 7.45 -31.35 7.4 -31.15 7.35 -30.95 7.25 -30.75 7.2 -30.55 7.2 -30.0 7.2 -29.05 7.2 -28.15 7.2 -27.95 7.25 -27.8 7.45 -27.7 7.9 -27.55 8.15 -27.4 8.25 -27.2 8.4 -27.0 8.45 -26.45 8.45 -25.5 8.45 -24.55 8.45 -24.2 8.4 -24.0 8.35 -23.8 8.25 -23.65 8.05 -23.45 7.85 -23.25 7.7 -23.05 7.7 -22.9 7.65 -22.7 7.6 -22.5 7.5 -22.3 7.4 -22.15 7.25 -21.95 7.15 -21.75 7.0 -21.55 6.75 -21.4 6.6 -21.25 6.45 -21.25 6.4 -21.2 6.3 -21.0 6.2 -20.8 6.1 -19.9 6.15 -18.95 6.15 -18.0 5.95 -16.9 5.95 -15.55 5.95 -14.65 6.0 -14.45 6.1 -14.25 6.15 -14.05 6.2 -13.9 6.2 -12.25 6.95 -12.25 7.35 -12.15 7.9 -11.95 8.15 -11.75 8.35 -11.55 8.5 -11.4 8.65 -11.2 8.75 -11.0 8.8 -10.8 8.85 -10.65 8.85 -10.45 8.85 -10.05 8.85 -9.5 8.75 -8.95 8.7 -8.75 8.55 -8.6 8.4 -8.4 8.0 -8.0 7.65 -7.7 7.5 -7.65 7.0 -7.5 6.7 -7.3 6.25 -6.9 6.2 -6.85 6.3 2.8 7.7 2.8 8.45 3.05 8.8 3.45 9.05 3.8 9.2 4.15 9.15 4.55 9.1 4.9 9.05 5.3 8.95 5.65 8.75 6.0 8.45 6.4 8.05 6.8 7.8 7.0 7.2 7.1 6.3 7.15 6.2 18.9 6.3 18.8 6.55 18.55 6.7 18.45 7.15 18.35 7.2 18.3 7.7 18.3 8.3 18.55 8.7 18.9 9.05 19.3 9.45 19.65 9.55 20.05 9.7 20.4 9.8 20.8 9.8 21.15 9.7 21.55 9.55 21.9 9.45 22.15 9.2 22.25 8.7 22.4 7.2 22.4 6.45 22.15 6.2 21.8 6.2 22.4 6.2 31.7 6.7 31.55 7.55 31.8 7.9 32.2 8.15 32.55 8.3 32.9 8.4 33.65 8.45 34.8 8.45 36.3 8.45 36.65 8.5 37.0 8.65 37.45 8.8 37.8 9.0 38.9 8.95 40.8 8.9 42.3 8.8 42.65 8.65 43.05 8.45 43.4 8.45 43.8 8.45 44.55 8.45 45.65 8.45 46.8 8.5 47.15 8.65 47.55 8.8 47.9 8.9 48.3 8.95 48.65 8.95 49.05 8.8 49.4 8.55 49.75 8.15 50.15 7.8 50.4 -3.8 50.9 -6.8 50.9 -7.7 50.65 -8.05 50.3 -8.3 50.05 -8.35 49.95 -9.2 49.65 -9.55 49.25 -9.8 48.9 -9.9 48.55 -9.95 48.15 -9.95 47.4 -9.95 46.65 -9.9 46.3 -9.65 45.95 -9.35 45.5 -9.05 45.15 -8.9 42.55 -8.95 39.55 -8.95 36.55 -8.8 36.15 -8.7 35.8 -8.55 35.4 -8.45 35.05 -8.45 34.65 -8.45 34.3 -8.45 33.9 -8.45 33.55 -8.3 33.2 -8.05 32.8 -7.95 32.4 -7.95 32.05 -7.95 31.65 -7.9 31.3 -7.65 30.95 -7.3 30.55 -6.95 30.3 -6.3 30.25 -6.3 30.15 -5.65 30.4 -5.75 29.15 -5.65 28.0 -5.2 26.55 -5.15 24.65 -5.15 22.8 -5.15 22.65 -5.3 22.8 -5.8 22.9 -6.3 22.9 -7.8 22.8 -8.45 22.55 -8.8 22.15 -8.8 21.8 -8.8 21.4 -8.8 21.05 -8.8 20.65 -8.65 20.3 -8.45 19.9 -8.3 19.55 -8.05 19.15 -7.8 18.95 -7.3 18.65 -6.95 18.3 -6.55 17.9 -5.85 17.75 -5.8 17.65 -5.3 17.65 -4.95 17.8 -5.1 15.5 -5.2 15.4 -5.45 15.05 -5.5 10.55 -5.4 7.75 -5.7 7.8 -6.3 8.05 -7.3 8.05 -8.05 7.8 -8.45 7.4 -8.55 7.05 -8.7 6.65 -9.05 6.3 -9.05 5.9 -9.05 5.55 -9.05 5.15 -9.0 4.85 -8.65 4.45 -8.2 4.05 -7.9 3.7 -7.55 3.3 -6.85 3.1 -6.8 3.05 -6.2 3.3 -5.85 3.7 -5.6 4.05 -5.45 4.4 -5.4 4.45 -5.45 2.3 -5.05 0.8 -4.75 -0.7 -4.7 -0.8 -5.8 -1.1 -6.7 -1.35 -7.05 -1.7 -7.4 -2.1 -7.65 -2.45 -7.8 -2.85 -7.8 -3.2 -7.8 -3.6 -7.7 -3.95 -7.6 -4.35 -7.55 -4.7 -7.15 -5.05 -6.8 -5.35 -6.3 -5.45 -5.7 -5.2 -5.5 -5.0 -5.55 -5.95 -5.55 -6.05 -6.05 -6.05 -6.5 -6.2 -6.75 -6.4 -6.85 -6.55 -6.9 -6.75 -6.9 -7.15 -6.9 -7.4 -7.0 -7.55 -7.05 -7.75 -7.05 -7.95 -7.05 -8.15 -7.05 -8.3 -7.05 -8.5 -7.05 -8.6 -7.1 -8.65 -7.4 -8.8 -7.55 -9.0 -7.65 -9.2 -7.65 -10.3 -7.65 -12.0 -7.65 -13.7 -7.65 -13.9 -7.6 -14.05 -7.5 -14.25 -7.4 -14.45 -7.4 -14.65 -7.35 -14.8 -7.25 -15.0 -7.0 -15.2 -6.5 -15.4 -6.35 -15.55 -6.3 -15.75 -6.25 -15.95 -6.15 -16.15 -6.1 -16.3 -6.05 -16.5 -5.9 -16.7 -5.85 -16.9 -5.8 -17.05 -5.75 -17.25 -5.65 -17.45 -5.6 -18.4 -5.4 -19.9 -5.25 -20.45 -5.25 -21.0 -5.5 -21.05 -5.7 -21.25 -5.9 -21.45 -6.1 -21.65 -6.3 -21.8 -6.65 -22.0 -7.0 -22.2 -7.1 -22.4 -7.25 -22.55 -7.25 -22.7 -7.35 -22.8 -7.6 -23.15 -7.65 -23.35 -7.65 -23.5 -7.65 -23.7 -7.65 -23.75 -7.8 -23.95 -7.85 -24.15 -7.95 -24.35 -8.05 -24.5 -8.1 -24.7 -8.1 -24.9 -8.1 -25.05 -8.1 -25.25 -8.1 -25.45 -8.1 -25.65 -8.1 -25.8 -8.05 -26.0 -7.9 -26.2 -7.75 -26.4 -7.3 -26.5 -7.1 -26.5 -7.0 -26.7 -6.8 -26.8 -6.65 -26.85 -6.3 -26.95 -6.05 -27.05 -6.05 -28.75 -6.05 -30.8 -6.0 -32.9 -6.0 -33.05 -5.9 -33.25 -5.8 -33.45 -5.8 -33.65 -5.75 -33.8 -5.6 -34.0 -5.5 -34.2 -5.15 -34.4 -5.1 -34.45 -5.05 -35.4 -5.05 -36.3 -5.05 -36.7 -5.1 -36.9 -5.15 -37.1 -5.25 -37.05 -5.3 -36.9 -5.4 -36.7 -5.65 -36.5 -6.05 -36.4 -6.5 -36.5 -6.65 -36.7 -6.8 -36.8 -6.85 -36.85 -7.2 -37.05 -7.35 -37.1 -7.75 -37.25 -7.9 -37.45 -8.05 -37.65 -8.1 -37.85 -8.1 -38.4 -8.1 -39.3 -8.1 -40.05 -8.05 -40.25 -7.95 -40.45 -7.85 -40.65 -7.85 -40.8 -7.65 -41.15 -7.1 -41.75 -6.75 -42.15 -6.3 -42.25 -5.55 -42.25 -5.5 -42.25 -5.3 -43.05 -5.3 -43.25 -5.3 -43.45 -5.3 -43.8 -5.3 -44.2 -5.25 -44.4 -5.15 -44.55 -5.15 -45.5 -5.2 -46.8 -5.15 -48.15 -5.1 -48.3 M2.4 -34.2 L2.4 -34.25 2.4 -34.45 2.35 -34.45 2.25 -34.3 2.25 -34.2 2.4 -34.2 M2.15 -10.2 L2.1 -10.4 2.05 -10.6 2.0 -10.95 2.0 -11.3 1.95 -11.45 1.65 -10.3 1.45 -9.75 1.45 -9.45 1.55 -9.15 1.95 -8.75 2.15 -8.95 2.2 -9.05 2.25 -10.0 2.15 -10.2 M-5.5 -11.7 L-5.5 -11.85 -5.75 -11.75 -5.5 -11.6 -5.5 -11.7" fill="#a28c88" fill-rule="evenodd" stroke="none"/>
    <path d="M4.8 31.25 L5.5 31.6 5.7 31.8 5.8 32.0 5.9 32.2 6.0 32.1 6.15 31.95 6.35 31.8 6.45 31.75 6.8 31.7 7.15 31.7 7.25 31.55 7.45 31.35 7.7 31.25 8.0 31.2 8.45 31.3 8.65 31.5 8.75 31.7 8.85 31.85 8.9 32.05 8.9 32.25 8.9 32.6 8.9 32.8 8.9 33.0 8.9 33.2 8.8 33.35 8.7 33.55 8.5 33.75 8.35 33.85 8.0 33.95 7.2 34.05 7.0 34.25 6.85 34.4 6.5 34.45 5.7 34.55 5.5 34.75 5.35 34.9 5.0 34.95 4.6 34.8 4.2 34.8 3.75 34.95 3.35 35.05 3.35 35.45 3.35 36.0 3.35 36.2 3.35 36.4 3.35 36.55 3.35 36.75 3.25 36.95 3.15 37.15 2.9 37.3 2.5 37.45 2.25 37.45 1.85 37.3 1.6 37.15 1.45 37.25 1.35 37.45 1.2 37.55 1.1 37.6 0.75 37.7 -1.25 37.65 -1.65 37.5 -2.0 37.4 -2.4 37.25 -2.6 37.05 -2.75 36.9 -2.75 36.7 -2.75 36.5 -2.75 36.3 -2.7 36.15 -2.6 35.95 -2.2 35.55 -2.05 35.45 -1.75 35.3 -1.55 35.1 -1.5 34.95 -1.5 34.75 -1.5 34.55 -1.55 34.4 -1.8 34.2 -2.15 34.0 -2.35 33.8 -2.65 33.6 -3.0 33.45 -3.15 33.25 -3.35 33.05 -3.55 32.85 -3.75 32.7 -3.8 32.5 -3.8 32.3 -3.75 31.95 -3.75 31.75 -3.75 31.55 -3.75 31.35 -3.65 31.2 -3.45 31.0 -3.3 30.85 -3.0 30.85 -3.0 30.8 -2.75 30.8 -2.35 30.95 -2.15 31.05 -1.9 31.1 2.0 30.95 4.0 30.95 4.8 31.25" fill="#663300" fill-opacity="0.2" fill-rule="evenodd" stroke="none"/>
    <path d="M6.35 31.5 L6.75 31.35 7.5 31.35 7.95 31.5 8.2 31.7 8.3 31.9 8.4 32.05 8.45 32.25 8.45 32.45 8.45 32.6 8.45 32.8 8.4 33.0 8.35 33.2 8.25 33.35 8.0 33.55 7.7 33.75 7.65 33.95 7.65 34.15 7.65 34.3 7.6 34.5 7.5 34.7 7.4 34.85 7.2 35.05 6.65 35.25 6.45 35.4 6.35 35.45 6.0 35.5 5.4 35.65 5.4 35.8 5.4 36.0 5.4 36.2 5.4 36.4 5.4 36.55 5.4 36.75 5.3 36.95 5.2 37.1 5.0 37.3 4.85 37.45 4.5 37.5 4.25 37.5 3.85 37.4 3.6 37.2 3.4 37.0 3.25 36.8 3.0 36.75 2.7 36.7 2.35 36.55 2.15 36.35 2.0 36.2 2.0 36.0 1.95 35.8 1.95 35.65 1.9 35.45 1.75 35.25 1.6 35.05 1.5 34.85 1.45 34.7 1.45 34.6 -0.65 34.2 -1.0 34.15 -1.4 34.0 -1.6 33.8 -1.8 33.6 -2.0 33.45 -2.05 33.25 -2.05 33.05 -2.05 32.85 -2.05 32.7 -1.95 32.5 -1.85 32.3 -1.65 32.1 -1.45 31.95 -1.3 31.8 -1.0 31.65 -0.8 31.55 -0.5 31.5 0.0 31.4 0.5 31.3 0.5 31.25 1.5 31.25 1.9 31.35 2.15 31.55 3.0 31.75 3.85 32.0 4.1 32.1 5.35 32.05 5.65 31.85 5.95 31.7 6.35 31.5" fill="#663300" fill-opacity="0.2" fill-rule="evenodd" stroke="none"/>
    <path d="M8.95 45.5 L8.85 45.7 8.8 45.9 8.75 46.05 8.75 46.25 8.7 46.45 8.65 46.6 8.55 46.8 8.35 47.2 8.2 47.4 8.15 47.55 8.1 47.75 7.95 47.95 7.9 48.05 7.9 48.1 8.25 48.15 8.7 48.25 8.95 48.45 9.1 48.65 9.2 48.8 9.25 49.0 9.25 49.2 9.2 49.4 9.15 49.55 9.0 49.75 8.9 49.95 8.65 50.15 8.5 50.25 8.4 50.3 8.0 50.35 7.75 50.4 7.25 50.25 6.25 50.25 6.1 50.45 5.9 50.55 5.4 50.7 5.15 50.8 2.0 50.9 1.5 50.75 1.15 50.55 0.75 50.4 0.4 50.2 0.2 50.3 -0.05 50.5 -0.5 50.65 -1.0 50.5 -1.25 50.3 -1.35 50.15 -1.4 49.95 -1.45 49.75 -1.5 49.55 -1.6 49.35 -1.65 49.2 -1.7 49.0 -1.75 48.8 -1.75 48.65 -1.65 48.45 -1.55 48.25 -1.35 48.05 -1.1 47.95 1.5 47.9 1.75 47.8 1.75 47.65 1.75 47.45 1.75 47.05 1.7 46.7 1.65 46.5 1.5 46.3 1.45 46.15 1.4 45.95 1.35 45.75 1.35 45.55 1.35 45.4 1.35 45.0 1.35 44.65 1.4 44.45 1.5 44.25 1.65 44.05 1.7 43.9 1.9 43.7 2.1 43.5 2.35 43.3 2.75 43.2 3.75 43.2 4.2 43.35 4.6 43.5 4.85 43.65 5.25 43.6 5.35 43.5 5.35 43.3 5.3 43.15 5.15 42.75 4.9 42.4 4.9 42.2 4.9 42.0 4.9 41.8 4.9 41.65 4.9 41.45 4.95 41.25 5.1 41.05 5.25 40.9 5.35 40.7 5.4 40.5 5.55 40.3 5.7 40.15 5.9 39.95 6.1 39.8 6.55 39.75 7.15 39.65 7.5 39.55 7.75 39.65 8.1 39.75 8.2 39.95 8.25 40.15 8.2 40.3 8.1 40.5 8.05 40.7 7.95 40.9 7.95 41.45 7.95 42.2 7.95 42.95 7.95 43.15 7.9 43.3 7.85 43.5 7.75 43.7 7.75 43.75 8.0 43.9 8.45 44.0 8.7 44.2 8.85 44.4 8.95 44.55 9.0 44.75 9.0 44.95 9.0 45.15 9.0 45.3 8.95 45.5" fill="#663300" fill-opacity="0.2" fill-rule="evenodd" stroke="none"/>
    <path d="M-1.25 43.25 L-0.6 43.05 -0.4 42.9 -0.25 42.7 -0.05 42.5 0.15 42.3 0.4 42.2 0.75 42.15 1.25 42.15 1.7 42.25 2.0 42.45 2.2 42.65 2.4 42.8 2.55 43.0 2.65 43.15 3.0 43.15 5.0 43.4 5.45 43.5 5.75 43.7 6.05 43.85 6.35 44.05 6.5 44.25 6.65 44.45 6.7 44.65 6.75 44.8 6.75 45.0 6.75 45.2 6.8 45.55 6.7 46.15 6.65 46.3 6.5 46.5 6.4 46.7 6.2 46.9 6.15 47.05 6.0 47.25 5.85 47.45 5.65 47.55 5.25 47.65 4.75 47.5 4.5 47.3 4.4 47.15 4.35 46.95 4.25 46.75 4.15 46.65 4.1 46.8 4.0 47.0 3.9 47.2 3.75 47.4 3.65 47.55 3.6 47.75 3.5 47.95 3.45 48.15 3.4 48.3 3.25 48.5 3.45 48.7 3.6 48.9 3.7 49.05 3.75 49.25 3.75 49.45 3.7 49.65 3.65 49.8 3.5 50.0 3.35 50.2 3.15 50.3 2.8 50.4 2.35 50.5 2.1 50.7 1.9 50.8 1.5 50.85 0.0 50.9 -0.55 50.75 -0.8 50.65 -0.95 50.6 -1.3 50.5 -1.55 50.5 -2.0 50.65 -4.25 50.65 -6.25 50.35 -6.75 50.25 -7.0 50.05 -7.1 49.85 -7.15 49.7 -7.2 49.5 -7.25 49.3 -7.25 49.15 -7.15 48.95 -7.05 48.75 -6.85 48.55 -6.65 48.4 -6.35 48.2 -6.05 48.0 -5.85 47.8 -5.65 47.65 -4.95 47.25 -4.05 46.7 -3.5 46.3 -3.45 46.15 -3.4 45.95 -3.3 45.75 -3.1 45.55 -2.85 45.45 -2.5 45.4 -2.05 45.5 -1.8 45.65 -1.65 45.7 -1.7 45.5 -1.75 45.3 -1.75 44.95 -1.75 44.4 -1.7 44.0 -1.65 43.8 -1.6 43.65 -1.5 43.45 -1.25 43.25" fill="#663300" fill-opacity="0.2" fill-rule="evenodd" stroke="none"/>
    <path d="M-0.9 14.0 L-0.8 13.95 -0.5 13.9 -0.5 13.85 -0.05 14.0 0.2 14.2 0.35 14.35 0.4 14.55 0.45 14.75 0.45 14.95 0.55 15.15 0.65 15.3 0.7 15.5 0.7 15.85 0.75 16.45 0.75 16.8 0.8 17.0 0.95 17.2 1.1 17.35 1.15 17.55 1.2 17.75 1.35 18.1 1.45 18.5 1.45 19.8 1.45 21.5 1.45 23.2 1.4 23.35 1.35 23.5 1.35 23.55 1.75 23.6 2.2 23.7 2.3 23.6 2.55 23.25 2.9 22.9 3.15 22.7 3.25 22.5 3.3 22.3 3.35 22.1 3.35 21.75 3.35 21.35 3.4 21.2 3.55 21.0 3.7 20.8 3.95 20.7 4.25 20.6 4.7 20.75 4.95 20.95 5.05 21.15 5.15 21.3 5.45 21.7 5.65 22.05 5.7 22.25 5.7 22.8 5.7 23.35 5.7 23.95 5.65 24.1 5.5 24.3 5.7 24.5 5.95 24.7 6.05 24.9 6.15 25.05 6.2 25.25 6.2 25.45 6.2 25.8 6.2 26.2 6.15 26.35 6.05 26.55 5.95 26.75 5.9 26.95 5.75 27.1 5.75 27.3 5.7 27.5 5.7 27.7 5.7 27.85 5.7 28.05 5.65 28.25 5.6 28.45 5.5 28.6 5.45 28.8 5.4 29.0 5.4 29.2 5.4 29.35 5.45 29.75 5.45 30.1 5.45 30.3 5.4 30.5 5.35 30.7 5.25 30.85 5.0 31.05 4.85 31.2 -1.0 31.35 -1.5 31.5 -3.0 31.5 -4.65 31.05 -5.35 30.75 -5.5 30.55 -5.6 30.35 -5.65 30.2 -5.65 30.0 -5.65 29.8 -5.6 29.65 -5.4 29.45 -5.4 29.25 -5.4 29.05 -5.4 28.7 -5.4 28.3 -5.35 28.15 -5.15 27.95 -4.8 27.55 -4.65 27.35 -4.65 27.2 -4.65 27.0 -4.65 26.6 -4.6 26.25 -4.5 26.05 -4.35 25.85 -4.0 25.5 -3.8 25.3 -3.55 25.2 -3.25 25.15 -2.75 25.1 -2.3 25.25 -2.1 25.3 -2.0 25.2 -1.85 25.0 -1.8 24.8 -1.6 24.6 -1.4 24.45 -1.4 23.7 -1.4 22.55 -1.4 21.25 -1.4 21.05 -1.35 20.85 -1.3 20.7 -1.3 20.5 -1.25 20.3 -1.15 20.1 -1.3 18.45 -1.45 16.35 -1.35 14.5 -1.25 14.3 -1.1 14.15 -0.9 14.0" fill="#663300" fill-opacity="0.2" fill-rule="evenodd" stroke="none"/>
    <path d="M2.65 23.95 L2.85 24.15 2.95 24.3 3.0 24.5 3.05 24.7 3.05 24.85 3.0 25.05 2.95 25.25 2.8 25.45 2.7 25.6 2.7 25.75 2.7 25.8 3.0 25.9 3.45 26.0 3.8 26.2 4.15 26.35 4.35 26.55 4.5 26.75 4.85 27.15 4.9 27.25 4.9 27.3 5.5 27.4 5.95 27.5 6.2 27.7 6.3 27.9 6.4 28.05 6.45 28.25 6.45 28.45 6.45 28.6 6.4 28.8 6.3 29.0 6.2 29.2 5.95 29.35 5.5 29.5 5.15 29.6 5.0 29.8 4.9 30.0 4.65 30.2 4.45 30.3 4.0 30.4 2.6 30.55 2.35 30.7 2.0 30.75 1.5 30.75 1.1 30.6 0.85 30.45 0.65 30.25 0.6 30.35 0.45 30.55 0.3 30.75 0.15 30.95 -0.05 31.05 -0.15 31.1 -0.5 31.15 -0.75 31.2 -1.15 31.05 -1.4 30.85 -1.55 30.7 -1.6 30.5 -1.6 30.3 -1.6 30.1 -1.6 30.05 -2.05 30.1 -2.5 30.2 -3.25 30.2 -3.65 30.05 -4.0 29.85 -4.15 29.65 -4.25 29.5 -4.25 29.3 -4.2 29.15 -4.15 28.95 -4.0 28.75 -3.65 28.4 -3.3 28.0 -3.15 27.85 -3.05 27.8 -2.75 27.65 -2.55 27.55 -2.25 27.5 -1.05 27.35 -0.85 27.2 -0.55 27.0 -0.4 26.8 -0.5 26.65 -0.6 26.45 -0.65 26.25 -0.65 26.05 -0.65 25.7 -0.65 25.3 -0.6 25.15 -0.4 24.95 -0.15 24.75 0.3 24.65 1.25 24.5 1.5 24.3 1.65 24.15 1.85 23.95 2.25 23.85 2.25 23.8 2.65 23.95" fill="#663300" fill-opacity="0.2" fill-rule="evenodd" stroke="none"/>
    <path d="M1.55 -19.2 L1.5 -19.0 1.45 -18.85 1.35 -18.65 1.25 -18.45 1.2 -18.25 1.1 -18.1 0.9 -17.9 0.85 -17.7 0.8 -17.5 0.75 -17.35 0.7 -17.15 0.6 -16.95 0.6 -16.0 0.6 -15.05 0.6 -13.95 0.6 -13.75 0.7 -13.55 0.75 -13.4 0.8 -13.2 0.85 -13.0 0.95 -12.8 1.0 -12.65 1.05 -12.45 1.1 -12.05 1.1 -11.7 1.1 -11.5 1.0 -11.35 0.9 -11.15 0.65 -10.95 0.25 -10.8 -0.05 -10.7 -0.2 -10.5 -0.3 -10.3 -0.3 -10.15 -0.3 -9.95 -0.25 -9.75 -0.05 -9.55 0.0 -9.4 0.05 -9.0 0.1 -8.65 0.05 -8.25 0.0 -7.9 -0.05 -7.7 -0.25 -7.5 -0.4 -7.3 -0.4 -6.55 -0.4 -5.65 -0.4 -4.7 -0.4 -4.5 -0.5 -4.3 -0.55 -4.15 -0.6 -3.95 -0.6 -3.75 -0.55 -3.55 -0.5 -3.4 -0.45 -3.2 -0.4 -2.8 -0.4 -2.45 -0.4 -2.25 -0.5 -2.1 -0.6 -1.9 -0.7 -0.4 -0.65 1.3 -0.65 3.0 -0.75 3.2 -0.8 3.35 -0.85 3.55 -0.9 3.75 -0.9 3.95 -0.95 4.1 -1.0 4.3 -1.05 4.5 -1.2 4.65 -1.35 4.85 -1.6 5.05 -2.0 5.2 -2.4 5.05 -2.6 4.85 -2.75 4.7 -2.8 3.35 -2.8 1.85 -2.8 0.2 -2.8 0.0 -2.9 -0.2 -3.05 -0.4 -3.05 -0.55 -3.05 -0.95 -3.05 -1.3 -3.05 -1.7 -3.0 -1.85 -2.7 -2.25 -2.4 -2.65 -2.3 -2.8 -2.4 -3.0 -2.65 -3.2 -2.85 -3.4 -3.15 -3.55 -3.5 -3.75 -3.65 -3.95 -3.85 -4.15 -4.0 -4.3 -4.05 -4.5 -4.05 -4.7 -4.05 -4.9 -4.05 -5.05 -3.95 -5.25 -3.8 -5.45 -3.65 -5.55 -3.55 -5.65 -3.3 -5.75 -3.3 -5.95 -3.3 -6.15 -3.3 -6.3 -3.35 -6.5 -3.5 -6.7 -3.55 -6.9 -3.55 -7.05 -3.55 -7.25 -3.65 -7.45 -3.8 -7.65 -3.8 -7.8 -3.8 -8.0 -3.8 -8.4 -3.8 -8.75 -3.7 -8.95 -3.6 -9.15 -3.55 -9.3 -3.5 -9.5 -3.3 -9.7 -3.15 -9.8 -3.05 -9.9 -2.6 -10.0 -2.55 -10.4 -2.35 -10.95 -2.15 -11.5 -2.05 -11.9 -2.05 -12.05 -2.05 -12.25 -2.0 -12.45 -1.95 -12.65 -2.0 -12.8 -1.95 -12.95 -1.75 -13.15 -1.25 -13.25 -1.05 -13.4 -1.05 -14.7 -1.05 -16.0 -1.0 -17.5 -0.9 -17.7 -0.8 -17.9 -0.8 -18.1 -0.8 -18.25 -0.8 -18.45 -0.6 -18.8 -0.25 -19.1 0.2 -19.4 0.6 -19.5 0.75 -19.65 1.0 -19.65 1.0 -19.7 1.35 -19.6 1.45 -19.4 1.55 -19.2" fill="#663300" fill-opacity="0.2" fill-rule="evenodd" stroke="none"/>
    <path d="M-0.05 -28.95 L0.05 -29.15 0.2 -29.35 0.45 -29.45 0.75 -29.5 1.2 -29.4 1.4 -29.2 1.5 -29.0 1.6 -28.85 1.65 -28.65 1.65 -28.45 1.65 -28.1 1.65 -27.7 1.55 -27.3 1.45 -26.75 1.2 -26.0 1.15 -25.85 1.15 -25.45 1.15 -24.7 1.15 -23.95 1.15 -23.6 1.2 -23.4 1.25 -23.2 1.65 -23.0 1.75 -22.8 1.85 -22.65 1.9 -22.25 1.9 -21.7 1.9 -20.95 1.9 -20.75 1.95 -20.6 2.0 -20.4 2.05 -20.2 2.1 -20.0 2.15 -19.85 2.15 -17.0 2.15 -13.65 2.15 -11.2 2.1 -11.0 2.0 -10.8 1.95 -10.65 1.9 -10.45 1.95 -9.7 2.1 -8.55 2.35 -7.65 2.35 -7.25 2.35 -6.7 2.35 -6.15 2.35 -5.75 2.4 -5.55 2.45 -5.4 2.45 -5.2 2.45 -5.0 2.55 -4.8 2.65 -4.65 2.75 -4.45 2.85 -4.25 2.9 -4.05 2.95 -3.9 2.95 -3.7 2.95 -3.5 2.95 -3.3 2.95 -3.15 2.95 -2.95 3.0 -2.75 3.1 -2.55 3.15 -2.4 3.2 -2.2 3.2 -1.65 3.2 -0.7 3.2 0.25 3.2 0.6 3.15 0.8 3.1 1.0 3.0 1.15 2.8 1.35 2.6 1.55 2.45 1.75 2.45 1.95 2.35 2.3 2.2 2.7 2.1 3.05 1.95 3.25 1.9 3.45 1.85 3.6 1.7 3.8 1.5 4.2 1.35 4.55 1.2 4.75 0.95 4.95 0.8 5.15 0.65 5.3 0.65 5.5 0.6 5.7 0.45 5.85 0.25 6.05 0.1 6.2 -0.25 6.25 -0.5 6.25 -0.9 6.1 -1.15 5.95 -1.3 5.75 -1.35 5.55 -1.35 5.2 -1.35 4.6 -1.3 4.05 -1.2 3.85 -1.1 3.7 -1.05 3.5 -1.0 3.3 -0.85 3.1 -0.85 2.95 -0.85 2.55 -0.85 2.2 -0.85 1.7 -0.9 1.7 -1.25 1.7 -1.75 1.75 -2.15 1.6 -2.4 1.45 -2.55 1.25 -2.65 -2.5 -2.6 -6.45 Q-2.55 -7.95 -2.65 -9.45 L-2.75 -9.6 -2.9 -9.85 -3.05 -10.0 -3.15 -10.2 -3.25 -10.4 -3.3 -10.55 -3.4 -10.75 -3.5 -10.95 -3.55 -11.15 -3.6 -11.3 -3.6 -11.9 -3.6 -12.8 -3.6 -13.75 -3.55 -13.95 -3.45 -14.1 -3.3 -14.3 -3.1 -14.5 -2.9 -14.65 -2.8 -14.7 -2.5 -14.75 -2.15 -14.95 -2.05 -15.05 -2.0 -15.25 -1.95 -15.45 -2.0 -15.65 -2.05 -15.8 -2.1 -16.0 -2.15 -16.2 -2.15 -16.75 -2.15 -17.7 -2.15 -18.65 -1.9 -19.2 -1.45 -20.15 -1.0 -21.1 -0.9 -22.6 -0.85 -24.45 -0.85 -26.15 -0.8 -26.3 -0.7 -26.5 -0.6 -26.7 -0.4 -27.1 -0.35 -27.25 -0.35 -27.45 -0.35 -27.65 -0.3 -27.8 -0.15 -28.0 -0.1 -28.2 -0.1 -28.4 -0.1 -28.6 -0.1 -28.75 -0.05 -28.95" fill="#663300" fill-opacity="0.2" fill-rule="evenodd" stroke="none"/>
    <path d="M1.95 -44.85 L2.2 -44.75 2.5 -44.85 2.95 -44.7 3.2 -44.5 3.3 -44.35 3.4 -44.15 3.45 -43.75 3.45 -43.4 3.5 -42.85 3.4 -42.1 3.35 -41.9 3.15 -41.5 3.05 -41.35 2.85 -40.95 2.75 -40.75 2.75 -40.6 2.7 -40.4 2.7 -40.2 2.65 -40.0 2.5 -39.85 2.5 -39.65 2.45 -39.45 2.45 -39.25 2.5 -39.1 2.6 -38.9 2.7 -38.5 2.8 -38.15 2.95 -37.6 3.2 -36.85 3.25 -33.45 Q3.25 -31.35 2.7 -29.3 2.2 -27.55 2.0 -25.75 L1.95 -25.6 1.9 -25.4 1.85 -25.2 1.75 -25.0 1.75 -24.65 1.75 -24.45 1.75 -24.25 1.75 -23.7 1.75 -23.15 1.7 -22.95 1.65 -22.75 1.55 -22.6 1.25 -22.45 1.05 -22.35 0.95 -22.2 0.9 -22.0 0.8 -21.8 0.7 -21.65 0.6 -21.45 0.45 -21.25 0.2 -21.1 -0.25 -20.95 -0.65 -21.1 -0.9 -21.25 -1.1 -21.45 -1.15 -21.65 -1.15 -22.0 -1.15 -22.2 -1.15 -22.6 -1.15 -23.15 Q-0.55 -25.25 -0.55 -27.45 L-0.8 -32.5 -0.9 -36.65 -0.85 -36.8 -0.65 -37.0 -0.55 -37.2 -0.5 -37.4 -0.55 -37.6 -0.55 -37.75 -0.6 -37.95 -0.65 -38.15 -0.75 -38.35 -0.85 -38.5 -0.9 -38.7 -0.9 -38.9 -0.9 -39.1 -0.9 -39.25 -1.0 -39.45 -1.05 -39.65 -1.1 -39.85 -1.15 -40.0 -1.15 -40.2 -1.15 -40.4 -1.15 -40.6 -1.2 -40.75 -1.2 -40.95 -1.25 -41.35 -1.15 -41.5 -1.05 -41.7 -0.9 -41.9 -0.75 -42.0 -0.6 -42.05 -0.25 -42.15 0.0 -42.15 0.45 -42.15 0.5 -42.45 0.55 -42.85 0.55 -43.4 0.6 -44.15 0.65 -44.35 0.8 -44.5 0.95 -44.7 1.1 -44.85 1.2 -44.85 1.5 -44.9 1.5 -44.95 1.95 -44.85" fill="#663300" fill-opacity="0.2" fill-rule="evenodd" stroke="none"/>
    <path d="M3.5 -49.4 L3.95 -49.25 4.2 -49.1 4.35 -48.95 4.4 -48.9 4.75 -48.9 5.0 -48.9 5.45 -48.75 5.7 -48.6 5.85 -48.4 5.95 -48.2 6.0 -48.0 6.0 -47.85 6.0 -47.45 6.1 -47.3 6.25 -47.05 6.45 -46.7 6.6 -46.5 Q7.2 -45.0 7.1 -43.35 L7.0 -39.2 6.95 -35.65 6.8 -34.9 6.6 -34.15 6.25 -33.0 6.0 -32.25 5.9 -32.1 5.75 -31.9 5.65 -31.7 5.35 -31.5 5.95 -30.75 6.3 -30.35 6.7 -29.8 6.9 -29.45 7.0 -28.7 6.95 -28.15 6.95 -27.2 6.95 -26.45 6.5 -25.55 6.0 -24.75 5.15 -23.65 5.0 -23.5 4.9 -23.45 4.5 -23.4 4.2 -23.35 4.1 -23.15 3.95 -22.95 3.55 -22.6 3.4 -22.45 2.85 -22.35 2.65 -22.15 2.4 -21.95 2.45 -21.75 2.55 -21.55 2.65 -21.4 2.7 -21.2 2.7 -21.0 2.65 -20.85 2.5 -20.65 2.4 -20.45 2.2 -20.35 2.1 -20.3 1.75 -20.2 1.35 -20.35 1.1 -20.5 0.7 -20.9 0.4 -21.25 0.35 -21.45 0.35 -22.0 0.3 -22.2 0.3 -22.4 0.25 -22.6 0.25 -22.75 0.35 -22.95 0.4 -23.15 0.5 -23.35 1.15 -23.7 2.05 -24.25 2.35 -24.45 2.35 -24.65 2.35 -24.8 2.4 -25.0 2.35 -25.2 2.25 -25.4 2.15 -25.6 2.1 -25.75 2.1 -25.95 2.1 -26.15 2.05 -26.3 1.95 -26.5 1.85 -26.7 1.75 -26.9 1.7 -27.1 1.6 -27.45 1.5 -27.6 1.15 -27.85 0.95 -28.0 0.85 -28.2 0.75 -28.4 0.7 -28.6 0.6 -28.75 0.5 -28.95 0.5 -29.15 0.35 -29.5 0.15 -29.9 0.1 -30.1 0.05 -30.25 0.0 -30.45 0.0 -30.65 0.1 -30.8 0.2 -31.0 0.4 -31.2 0.65 -31.3 1.1 -31.45 1.15 -31.75 1.15 -32.35 1.15 -32.7 1.15 -33.25 1.15 -33.45 1.05 -33.65 0.95 -33.85 0.85 -34.0 0.75 -34.75 0.8 -35.35 0.8 -36.25 0.75 -37.2 0.85 -37.4 1.0 -37.95 1.15 -38.35 1.2 -38.5 1.25 -38.7 1.4 -38.9 1.4 -39.1 1.45 -39.25 1.5 -39.65 1.5 -39.85 1.5 -40.0 1.6 -40.2 1.65 -40.4 1.7 -40.6 1.8 -40.75 1.9 -40.95 2.1 -41.35 2.2 -41.5 2.2 -41.65 2.0 -41.9 1.65 -42.1 1.45 -42.3 1.35 -42.45 1.3 -42.65 1.25 -43.2 1.25 -43.6 1.25 -43.75 1.25 -44.15 1.35 -44.35 1.55 -44.9 1.65 -45.25 1.7 -45.45 1.85 -45.85 1.95 -46.0 2.0 -46.2 2.0 -46.4 2.0 -46.75 2.1 -46.95 2.15 -47.15 2.25 -47.5 2.25 -47.7 2.25 -47.9 2.35 -48.1 2.45 -48.3 2.5 -48.45 2.55 -48.65 2.6 -48.8 2.9 -49.2 3.15 -49.35 3.5 -49.35 3.5 -49.4" fill="#663300" fill-opacity="0.2" fill-rule="evenodd" stroke="none"/>
    <path d="M7.4 -39.95 L7.6 -39.75 7.6 -39.6 7.5 -39.4 7.5 -39.2 7.5 -39.0 7.4 -38.8 7.35 -38.65 7.15 -38.45 7.0 -38.25 6.9 -38.1 6.9 -37.9 6.9 -37.7 6.9 -37.5 6.85 -37.35 6.75 -37.15 6.65 -36.95 6.65 -36.75 6.65 -36.6 6.65 -36.4 6.65 -36.2 6.65 -36.0 6.7 -35.85 6.75 -35.65 6.85 -35.45 6.9 -34.35 6.9 -33.2 6.9 -32.1 6.85 -31.9 6.75 -31.7 6.7 -31.5 6.65 -31.35 6.65 -31.15 6.65 -30.95 6.45 -30.6 6.25 -30.2 6.1 -29.85 6.1 -29.65 6.15 -29.45 6.15 -29.25 6.15 -29.1 6.25 -28.9 6.55 -28.7 6.9 -28.5 7.0 -28.3 7.1 -28.15 7.15 -27.95 7.15 -27.75 7.15 -27.6 7.1 -27.2 7.0 -27.0 6.9 -26.85 6.9 -26.65 6.9 -26.45 6.9 -26.25 6.85 -26.1 6.85 -25.9 6.9 -25.7 6.9 -25.5 6.9 -25.35 6.85 -25.15 6.75 -24.95 6.65 -24.75 6.7 -24.6 6.75 -24.4 6.85 -24.2 6.9 -24.0 6.9 -23.85 6.95 -23.65 7.1 -23.45 7.15 -22.9 7.15 -22.15 7.1 -21.6 7.1 -21.4 7.0 -21.2 6.9 -21.0 6.5 -20.85 6.4 -20.65 6.45 -20.45 6.5 -20.25 6.6 -20.1 6.65 -19.9 6.75 -19.7 6.8 -19.5 6.85 -19.35 6.9 -19.15 6.9 -18.75 6.8 -18.6 6.7 -18.4 6.7 -18.2 6.75 -18.0 6.85 -17.85 6.9 -17.65 6.9 -17.45 6.9 -17.25 6.85 -16.9 6.75 -16.7 6.65 -16.5 6.45 -16.4 6.35 -16.35 6.0 -16.25 5.6 -16.4 4.6 -17.3 4.05 -18.1 3.85 -18.45 3.75 -18.65 3.7 -18.85 3.6 -19.0 3.5 -19.2 3.4 -19.4 3.4 -19.75 3.4 -20.15 3.4 -20.5 3.45 -20.7 3.55 -20.85 3.7 -21.1 4.1 -21.25 4.2 -21.45 4.2 -21.65 4.15 -21.8 4.05 -22.0 3.95 -22.2 4.0 -22.55 4.05 -23.15 4.1 -23.5 4.1 -23.7 4.1 -23.9 4.2 -24.05 4.4 -24.25 4.35 -24.4 4.1 -24.65 3.85 -24.85 3.7 -25.0 3.65 -25.2 3.55 -25.4 3.45 -25.6 3.4 -25.75 3.4 -25.95 3.4 -26.15 3.4 -26.5 3.35 -26.7 3.25 -26.9 3.1 -27.1 2.95 -27.25 Q2.85 -27.65 2.9 -28.0 L2.9 -28.75 2.9 -29.5 2.95 -29.7 3.05 -29.9 3.15 -30.1 3.15 -31.2 3.15 -32.35 Q3.1 -32.9 3.2 -33.45 L3.3 -33.65 3.45 -33.85 3.65 -34.0 3.85 -34.2 3.9 -34.4 4.0 -34.6 4.15 -34.75 4.35 -34.95 4.5 -35.35 4.7 -35.7 4.9 -36.1 4.9 -36.45 4.9 -36.85 4.9 -37.2 4.9 -37.4 4.95 -37.55 5.1 -37.75 5.15 -37.95 5.15 -38.15 5.15 -38.35 5.2 -38.7 5.3 -38.9 5.45 -39.1 5.65 -39.25 5.95 -39.45 6.2 -39.65 6.35 -39.75 6.45 -39.8 6.8 -39.9 7.0 -39.9 7.1 -39.95 7.25 -39.95 7.4 -39.95" fill="#663300" fill-opacity="0.2" fill-rule="evenodd" stroke="none"/>
    <path d="M6.75 -2.95 L6.8 -2.75 6.85 -2.55 6.85 -2.2 6.85 -1.8 6.75 -1.65 6.7 -1.45 6.65 -1.25 6.65 -1.05 6.7 -0.7 6.7 -0.15 6.7 0.45 6.75 0.6 6.8 0.8 6.85 1.0 6.75 1.15 6.65 1.35 6.4 1.55 6.0 1.7 5.7 1.7 5.6 1.85 5.6 2.05 5.6 2.25 5.6 2.45 5.6 2.6 5.6 2.8 5.75 3.0 6.15 3.4 6.25 3.55 6.35 3.75 6.4 4.1 6.4 4.7 6.4 5.25 6.3 5.4 6.2 5.6 5.95 6.0 5.9 6.2 5.9 6.35 5.95 6.55 6.0 6.75 6.1 6.95 6.15 7.1 6.2 7.3 6.4 7.5 6.5 7.7 6.6 7.85 6.65 8.05 6.65 8.25 6.65 8.45 6.65 8.6 6.6 8.8 6.5 9.0 6.4 9.15 6.2 9.35 5.75 9.5 5.35 9.35 5.1 9.2 4.9 8.8 4.6 8.25 4.2 7.5 4.15 7.1 4.15 6.35 4.15 5.6 4.15 5.45 4.2 5.25 4.35 5.05 4.6 4.65 4.65 4.5 4.55 4.3 4.4 4.1 4.2 3.95 4.0 3.75 4.0 3.35 3.95 2.6 3.95 1.85 3.95 1.5 4.0 1.3 4.1 1.1 4.15 0.95 4.2 0.75 4.2 0.2 4.2 -0.75 4.2 -1.7 4.2 -2.05 4.3 -2.25 4.45 -2.45 4.6 -2.55 4.7 -2.6 5.15 -2.75 5.2 -2.9 5.35 -3.05 5.55 -3.25 5.7 -3.4 6.0 -3.4 6.0 -3.45 6.4 -3.3 6.65 -3.15 6.75 -2.95" fill="#663300" fill-opacity="0.2" fill-rule="evenodd" stroke="none"/>
    <path d="M1.0 -49.25 L1.35 -48.85 1.5 -48.5 1.7 -47.4 1.7 -46.25 1.9 -45.15 2.05 -44.75 2.25 -44.4 2.35 -20.75 2.45 2.9 Q2.55 13.25 2.15 23.5 L2.0 23.9 1.75 24.25 1.5 24.5 1.35 24.6 0.75 24.75 -0.15 24.5 -0.4 24.15 -0.65 23.75 Q-1.05 12.0 -0.95 0.15 L-0.85 -23.5 -0.75 -44.5 -0.6 -44.85 -0.4 -45.25 Q-0.15 -45.8 -0.2 -46.4 L-0.2 -47.5 0.0 -48.65 0.15 -49.0 0.4 -49.2 0.75 -49.25 1.0 -49.25" fill="#333333" fill-opacity="0.2" fill-rule="evenodd" stroke="none"/>
    <path d="M1.35 -50.25 L1.75 -49.9 1.9 -49.5 2.0 -49.15 2.15 -48.75 2.25 -48.4 2.15 -25.1 2.1 -1.5 2.1 22.15 1.9 30.75 1.7 31.1 1.5 31.35 1.25 31.5 0.75 31.65 0.0 31.4 -0.4 31.0 -0.6 7.75 -0.75 -15.85 -0.75 -39.5 -0.75 -48.5 -0.65 -48.9 -0.55 -49.25 -0.5 -49.65 -0.15 -50.0 0.1 -50.25 0.25 -50.35 0.75 -50.45 0.75 -50.5 1.35 -50.25" fill="#333333" fill-opacity="0.2" fill-rule="evenodd" stroke="none"/>
    <path d="M6.65 29.75 L6.75 29.95 6.85 30.1 6.85 30.3 6.85 30.5 6.85 30.7 6.75 30.85 6.65 31.05 6.4 31.25 6.05 31.35 5.7 31.3 5.6 31.25 5.05 31.15 4.6 31.05 0.55 30.95 -0.45 31.0 -0.55 31.2 -0.65 31.35 -0.8 31.5 -0.9 31.55 -6.0 31.8 -6.4 31.7 -6.6 31.5 -6.7 31.3 -6.75 31.1 -6.7 30.95 -6.65 30.75 -6.55 30.55 -6.35 30.35 -6.3 30.2 -6.25 30.0 -6.1 29.8 -5.9 29.6 -5.5 29.5 -2.5 29.35 -2.0 29.25 0.55 29.2 5.05 29.2 5.45 29.3 6.0 29.45 6.45 29.55 6.65 29.75" fill="#333333" fill-opacity="0.2" fill-rule="evenodd" stroke="none"/>
    <path d="M9.7 41.2 L9.65 41.35 9.6 41.55 9.55 41.75 9.4 42.1 9.3 42.3 9.2 42.5 9.1 42.7 8.95 42.85 8.95 43.05 8.95 43.25 8.95 43.45 8.95 43.6 8.95 43.8 8.85 44.2 8.7 44.75 8.55 45.3 8.45 45.5 8.45 46.25 8.45 47.2 8.45 48.1 8.45 48.3 8.5 48.45 9.05 48.65 9.45 48.75 9.7 48.95 9.85 49.15 9.9 49.3 9.95 49.5 9.95 49.7 9.9 49.85 9.8 50.05 9.65 50.25 9.45 50.35 9.05 50.45 0.2 50.6 -0.2 50.75 -0.65 50.6 -0.9 50.45 -1.05 50.3 -3.5 50.2 -3.9 50.05 -8.0 49.95 -8.4 49.8 -8.65 49.6 -8.8 49.45 -8.85 49.25 -8.85 49.05 -8.85 48.9 -8.8 48.7 -8.65 48.5 -8.4 48.3 -8.0 48.2 -5.9 48.05 -4.45 47.7 -3.75 47.55 -3.35 47.2 -2.55 46.6 -2.15 46.25 Q-1.6 45.8 -0.85 45.6 L-0.6 45.45 -0.4 45.3 -0.3 45.25 0.05 45.2 0.55 45.2 0.95 45.3 1.15 45.5 1.3 45.7 1.6 45.7 1.95 45.5 2.15 45.3 2.15 44.95 2.15 44.2 2.15 43.45 2.15 43.25 2.2 43.05 2.35 42.7 2.55 42.3 2.65 42.1 2.65 41.95 2.7 41.75 2.9 41.35 3.2 40.75 3.6 40.25 4.2 39.85 Q4.75 39.55 5.4 39.35 L5.55 39.2 5.65 39.0 5.85 38.65 5.95 38.45 5.95 38.25 5.95 38.05 6.1 37.9 6.3 37.7 6.35 37.5 6.45 37.3 6.45 37.1 6.45 36.95 6.55 36.75 6.65 36.55 6.8 36.0 6.8 35.25 6.7 34.5 6.65 34.3 6.55 34.1 6.45 33.95 6.35 33.55 6.35 33.35 6.4 33.2 6.45 33.0 6.6 32.8 6.9 32.8 7.05 32.75 7.1 32.65 7.2 32.45 7.4 32.05 7.6 31.9 7.8 31.75 8.0 31.7 8.05 31.7 8.35 31.8 8.5 32.0 8.65 32.2 8.65 33.3 8.7 34.8 8.7 36.1 8.65 36.3 8.6 36.5 8.5 36.65 8.3 36.9 8.3 37.05 8.25 37.25 8.2 37.45 8.15 37.6 8.1 37.8 8.1 38.0 8.1 38.35 8.05 38.75 8.05 39.1 7.95 39.3 7.85 39.5 7.85 39.7 7.9 39.75 8.0 39.75 8.2 39.55 8.45 39.45 8.8 39.35 9.2 39.5 9.45 39.7 9.6 39.9 9.65 40.05 9.7 40.25 9.7 40.45 9.7 40.8 9.7 41.2" fill="#333333" fill-opacity="0.2" fill-rule="evenodd" stroke="none"/>
    <path d="M8.95 46.6 L8.9 46.8 8.85 47.0 8.7 47.2 8.45 47.35 8.25 47.6 8.15 47.75 8.1 47.95 8.1 48.1 8.2 48.5 8.2 48.7 8.35 48.9 8.4 49.05 8.45 49.25 8.45 49.45 8.4 49.6 8.3 49.8 8.15 50.0 7.95 50.1 5.2 50.35 4.75 50.5 3.95 50.6 3.55 50.8 3.35 50.95 1.8 51.0 1.35 50.85 -1.75 50.75 -2.15 50.6 -7.5 50.5 -7.9 50.35 -8.15 50.2 -8.35 50.0 -8.45 49.05 -8.4 48.1 -8.4 47.55 -8.35 47.2 -8.3 47.0 -8.15 46.8 -8.15 46.65 -8.1 46.45 -7.95 46.25 -7.8 46.05 -7.8 45.9 -8.0 45.5 -8.2 45.1 -8.3 44.95 -8.25 44.55 -8.2 44.0 -8.15 43.45 -8.05 43.25 -7.75 43.15 -7.75 43.1 -7.4 43.25 -7.3 43.65 -7.25 44.0 -7.25 44.35 -7.25 44.55 -7.15 44.75 -7.05 44.95 -6.85 45.1 -6.65 45.1 -6.25 45.0 -5.9 45.05 -5.65 45.05 -5.55 45.0 -5.25 44.95 -4.8 45.05 -4.35 45.45 -3.9 46.0 -3.8 46.2 -3.2 46.55 -2.6 46.95 -2.5 47.15 -2.25 47.5 -2.0 47.9 -1.9 48.05 0.3 48.25 0.45 48.05 0.85 47.85 1.1 47.75 1.2 47.7 3.3 47.5 4.0 46.75 5.2 45.8 5.4 45.6 5.6 45.45 5.8 45.25 5.7 45.05 5.65 44.85 5.6 44.7 5.6 44.5 5.6 44.3 5.6 44.1 5.65 43.95 5.8 43.75 5.95 43.55 6.2 43.45 7.1 43.25 7.55 43.1 7.95 43.25 8.2 43.45 8.35 43.65 8.4 43.8 8.45 44.2 8.45 44.75 8.45 45.3 8.5 45.45 8.7 45.7 8.85 45.9 8.9 46.05 8.95 46.25 8.95 46.45 8.95 46.6" fill="#333333" fill-opacity="0.2" fill-rule="evenodd" stroke="none"/>
    <path d="M3.55 38.0 L3.8 38.0 4.15 38.1 4.4 38.3 4.55 38.5 4.55 38.7 4.6 38.85 4.6 39.05 4.6 39.2 4.75 39.2 5.2 39.3 5.4 39.5 5.5 39.7 5.6 39.85 5.65 40.05 5.65 40.25 5.65 40.45 5.65 40.6 5.6 40.8 5.5 41.0 5.4 41.2 5.2 41.3 5.1 41.35 4.65 41.5 4.45 41.7 4.25 41.85 4.1 42.0 3.6 42.25 3.25 42.3 2.8 42.25 2.1 42.1 1.95 41.95 1.85 41.75 1.85 41.55 1.85 41.35 1.85 41.0 1.85 40.45 1.85 40.25 1.85 40.05 1.95 39.85 2.1 39.7 2.1 39.5 2.1 39.3 2.2 39.1 2.4 39.0 2.45 38.95 2.7 38.8 2.75 38.6 2.8 38.45 2.95 38.25 3.1 38.1 3.2 38.1 3.5 38.05 3.55 38.0" fill="#333333" fill-opacity="0.2" fill-rule="evenodd" stroke="none"/>
    <path d="M-5.5 42.55 L-5.45 42.4 -5.4 42.2 -5.2 42.0 -5.05 41.85 -4.75 41.85 -4.75 41.8 -4.35 41.95 -4.1 42.15 -3.9 42.3 -3.75 42.5 -3.55 42.85 -3.5 43.05 -3.55 43.25 -3.6 43.45 -3.65 43.65 -3.65 43.8 -3.75 44.0 -3.85 44.2 -4.0 44.3 -4.25 44.35 -5.0 44.35 -5.35 44.25 -5.55 44.05 -5.75 43.85 -5.75 43.7 -5.8 43.5 -5.8 43.3 -5.75 43.15 -5.65 42.95 -5.5 42.75 -5.5 42.55" fill="#333333" fill-opacity="0.2" fill-rule="evenodd" stroke="none"/>
    <path d="M-7.25 -39.7 L-7.0 -39.7 -6.6 -39.6 -6.35 -39.4 -6.25 -39.2 -6.2 -38.85 -6.2 -38.25 -6.1 -37.5 -6.1 -37.35 -6.2 -37.15 -6.3 -36.95 -6.5 -36.85 -6.75 -36.75 -7.0 -36.75 -7.35 -36.9 -7.55 -37.1 -7.65 -37.25 -7.9 -37.45 -8.25 -37.65 -8.35 -37.85 -8.4 -38.0 -8.4 -38.2 -8.4 -38.4 -8.4 -38.55 -8.3 -38.75 -8.05 -39.15 -7.55 -39.65 -7.25 -39.65 -7.25 -39.7" fill="#333333" fill-opacity="0.2" fill-rule="evenodd" stroke="none"/>
    <path d="M-7.0 -24.85 L-6.75 -24.85 -6.35 -24.7 -6.15 -24.5 -6.0 -24.3 -5.8 -23.95 -5.6 -23.6 -5.55 -23.4 -5.55 -23.2 -5.55 -23.0 -5.55 -22.85 -5.6 -22.65 -5.75 -22.45 -5.85 -22.35 -5.9 -22.3 -6.25 -22.2 -6.65 -22.3 -6.75 -22.35 -7.05 -22.4 -7.4 -22.5 -7.6 -22.7 -7.75 -22.9 -7.75 -23.1 -7.75 -23.25 -7.75 -23.65 -7.7 -24.0 -7.65 -24.4 -7.55 -24.6 -7.35 -24.7 -7.3 -24.75 -7.0 -24.8 -7.0 -24.85" fill="#333333" fill-opacity="0.2" fill-rule="evenodd" stroke="none"/>
    <path d="M-7.25 -9.95 L-6.9 -9.8 -6.8 -9.7 -6.75 -9.65 -6.35 -9.5 -6.15 -9.3 -6.05 -9.15 -6.0 -8.75 -6.0 -8.4 -6.0 -8.0 -6.0 -7.65 -5.95 -7.45 -5.85 -7.25 -5.8 -7.05 -5.75 -6.9 -5.65 -6.7 -5.75 -6.5 -5.8 -6.3 -5.85 -6.2 -6.0 -6.15 -6.25 -6.05 -6.5 -6.15 -6.9 -6.25 -7.1 -6.45 -7.4 -6.8 -7.45 -7.0 -7.5 -7.2 -7.6 -7.4 -7.65 -7.55 -7.75 -7.75 -7.85 -7.95 -7.85 -8.3 -7.85 -8.7 -7.85 -9.05 -7.8 -9.45 -7.7 -9.65 -7.6 -9.8 -7.25 -9.9 -7.25 -9.95" fill="#333333" fill-opacity="0.2" fill-rule="evenodd" stroke="none"/>
    <path d="M-6.1 5.95 L-6.05 6.3 -6.0 7.05 -6.1 7.8 -6.1 8.0 -6.25 8.2 -6.35 8.35 -6.45 8.5 -6.75 8.7 -7.05 8.55 -7.15 8.35 -7.3 8.2 -7.35 8.0 -7.4 7.8 -7.4 7.6 -7.4 7.45 -7.4 7.25 -7.5 7.1 -7.75 7.0 -8.0 7.05 -8.3 6.95 -8.4 6.75 -8.4 6.55 -8.3 6.4 -7.8 6.0 -7.4 5.8 -7.3 5.7 -7.1 5.55 -7.05 5.5 -6.75 5.45 -6.35 5.55 -6.2 5.75 -6.1 5.95" fill="#333333" fill-opacity="0.2" fill-rule="evenodd" stroke="none"/>
    <path d="M-7.55 20.7 L-7.4 20.5 -7.0 20.4 -7.0 20.35 -6.6 20.5 -6.4 20.7 -6.35 20.85 -6.3 21.05 -6.15 21.25 -6.05 21.45 -6.05 21.6 -6.05 21.8 -6.05 22.0 -6.05 22.2 -6.15 22.35 -6.3 22.55 -6.45 22.65 -6.8 22.85 -6.9 22.95 -7.25 23.0 -7.65 22.85 -7.8 22.7 -7.9 22.5 -8.0 22.3 -8.1 22.1 -8.15 21.95 -8.25 21.75 -8.3 21.55 -8.2 21.4 -7.9 21.2 -7.75 21.05 -7.65 20.9 -7.55 20.7" fill="#333333" fill-opacity="0.2" fill-rule="evenodd" stroke="none"/>
    <path d="M5.85 19.2 L5.85 19.0 5.85 18.8 5.95 18.6 6.15 18.5 6.2 18.45 6.55 18.35 6.9 18.45 7.15 18.35 7.35 18.25 7.55 18.25 7.65 18.25 7.9 18.45 8.05 18.6 8.25 19.0 8.45 19.35 8.6 19.55 8.7 20.1 8.65 20.7 8.65 21.45 8.65 21.6 8.6 21.8 8.45 22.0 8.3 22.2 8.15 22.3 8.0 22.35 7.6 22.45 7.05 22.5 6.6 22.35 6.45 22.2 6.2 22.0 6.1 21.8 6.05 21.6 5.95 21.45 5.85 21.25 5.85 20.7 5.85 19.95 5.85 19.2" fill="#333333" fill-opacity="0.2" fill-rule="evenodd" stroke="none"/>
    <path d="M8.05 3.15 L8.4 3.3 8.6 3.5 8.7 3.7 8.8 4.25 8.8 5.0 8.85 5.95 8.85 6.1 8.8 6.3 8.75 6.5 8.7 6.7 8.7 6.85 8.7 7.05 8.7 7.25 8.6 7.45 8.45 7.6 8.35 7.7 8.0 7.9 7.85 8.0 7.55 8.05 7.1 7.95 6.95 7.75 6.85 7.55 6.85 6.6 6.85 5.1 6.85 3.6 6.85 3.45 6.95 3.25 7.1 3.05 7.5 2.95 7.55 2.95 7.9 3.1 8.05 3.15" fill="#333333" fill-opacity="0.2" fill-rule="evenodd" stroke="none"/>
    <path d="M9.0 -7.5 L8.85 -7.35 8.6 -7.15 8.3 -7.0 7.9 -7.15 7.75 -7.35 7.65 -7.5 7.6 -7.7 7.55 -7.9 7.3 -8.05 7.2 -8.25 7.1 -8.45 7.1 -8.65 7.1 -8.8 7.1 -9.0 7.1 -9.2 7.05 -9.4 7.0 -9.6 6.9 -9.75 6.8 -9.95 6.75 -10.15 6.7 -10.3 6.75 -10.5 6.8 -10.7 6.85 -10.9 6.85 -11.05 6.85 -11.25 6.95 -11.45 7.1 -11.65 7.1 -11.8 7.2 -12.0 7.35 -12.2 7.75 -12.3 7.8 -12.3 8.2 -12.2 8.55 -12.0 8.6 -11.8 8.65 -11.65 8.7 -11.45 8.8 -11.25 8.9 -11.05 9.0 -10.9 9.1 -10.7 9.2 -10.15 9.15 -9.2 9.15 -8.05 9.1 -7.7 9.0 -7.5" fill="#333333" fill-opacity="0.2" fill-rule="evenodd" stroke="none"/>
    <path d="M7.0 -26.8 L7.05 -26.85 7.4 -26.7 7.55 -26.5 7.65 -26.35 7.8 -26.3 8.05 -26.25 8.35 -26.15 8.5 -25.95 8.65 -25.75 8.65 -25.6 8.7 -25.4 8.85 -25.2 9.0 -25.0 9.1 -24.85 9.15 -24.45 9.15 -23.9 9.15 -23.5 9.15 -22.95 9.1 -22.75 9.0 -22.6 8.85 -22.4 8.55 -22.25 8.3 -22.25 7.9 -22.4 7.6 -22.75 7.15 -23.3 6.85 -23.7 6.65 -23.9 6.6 -24.1 6.6 -24.25 6.55 -24.65 6.55 -24.85 6.45 -25.0 6.35 -25.2 6.35 -25.4 6.35 -25.6 6.35 -25.95 6.35 -26.15 6.35 -26.3 6.45 -26.5 6.6 -26.7 7.0 -26.8" fill="#333333" fill-opacity="0.2" fill-rule="evenodd" stroke="none"/>
    <path d="M6.35 -41.4 L6.45 -41.6 6.65 -41.7 6.7 -41.75 7.0 -41.8 7.05 -41.85 7.3 -41.85 Q7.45 -41.75 7.65 -41.7 L7.85 -41.5 7.9 -41.35 7.95 -41.15 7.95 -40.95 8.05 -40.75 8.15 -40.55 8.2 -40.4 8.35 -40.0 8.35 -39.85 8.4 -39.65 8.55 -39.45 8.65 -39.25 8.65 -39.1 8.6 -38.9 8.55 -38.7 8.55 -38.5 8.45 -38.35 8.4 -38.2 8.25 -38.15 8.05 -38.1 7.65 -38.2 7.3 -38.3 6.9 -38.4 6.7 -38.6 6.65 -38.95 6.65 -39.5 6.65 -40.1 6.6 -40.45 6.5 -40.65 6.4 -40.85 6.35 -41.0 6.35 -41.2 6.35 -41.4" fill="#333333" fill-opacity="0.2" fill-rule="evenodd" stroke="none"/>
    <path d="M0.2 -48.65 L0.45 -48.75 0.75 -48.8 0.75 -48.85 1.2 -48.7 1.45 -48.5 1.6 -48.35 1.65 -48.15 1.7 -47.95 1.8 -47.75 1.85 -36.35 1.9 -24.5 1.9 -12.7 1.85 -2.75 1.75 -2.6 1.65 -2.4 1.6 -2.2 1.35 -2.0 1.15 -1.9 0.75 -1.8 0.25 -1.95 0.05 -2.15 -0.15 -2.35 -0.25 -2.5 -0.35 -13.95 -0.3 -25.75 -0.3 -37.6 -0.15 -48.1 -0.1 -48.25 0.05 -48.45 0.2 -48.65" fill="#333333" fill-opacity="0.2" fill-rule="evenodd" stroke="none"/>
    <path d="M-2.5 -48.15 L-2.1 -48.5 -1.6 -48.85 -1.25 -49.15 -0.75 -49.2 -0.75 -49.25 -0.1 -49.0 0.15 -48.65 0.3 -48.25 0.25 -47.9 0.1 -47.5 -0.1 -47.1 -0.25 -46.75 -0.1 -46.4 0.0 -46.0 0.15 -45.65 0.4 -22.35 0.55 1.25 0.5 24.9 0.5 30.15 0.35 30.5 0.1 30.9 -0.25 31.25 -0.6 31.5 -1.25 31.65 -2.1 31.4 -2.6 31.0 -2.85 30.65 -3.05 7.4 -2.9 -16.25 -2.65 -39.85 -2.6 -45.15 -2.7 -45.5 -2.85 -45.9 -3.0 -46.25 -3.0 -46.65 -2.95 -47.0 -2.85 -47.4 -2.65 -47.75 -2.5 -48.15" fill="#333333" fill-opacity="0.2" fill-rule="evenodd" stroke="none"/>
    <path d="M5.25 -49.95 L5.25 -50.0 5.75 -49.85 6.5 -49.65 6.9 -49.25 6.7 -48.9 6.4 -48.5 Q6.95 -37.1 6.95 -25.6 L7.0 -2.0 7.05 21.65 6.75 29.9 6.6 30.25 6.25 30.6 5.9 30.9 5.25 31.0 4.4 30.75 4.0 30.4 3.75 30.0 Q3.35 18.6 3.4 7.15 L3.6 -16.5 3.75 -40.1 Q3.75 -44.65 4.25 -49.15 L4.4 -49.5 4.65 -49.75 4.75 -49.9 5.25 -49.95" fill="#333333" fill-opacity="0.2" fill-rule="evenodd" stroke="none"/>
    <path d="M-6.5 -47.65 L-6.25 -48.0 -6.0 -48.35 -5.35 -49.1 -4.6 -49.75 -4.35 -49.85 -3.75 -50.0 -3.1 -49.9 -2.75 -49.9 -0.75 -49.9 -0.1 -49.65 0.25 -49.65 0.3 -50.0 0.4 -50.35 0.65 -50.75 0.9 -51.15 1.25 -51.4 1.5 -51.45 2.25 -51.55 2.25 -51.65 2.75 -51.65 3.65 -51.4 4.15 -51.0 4.4 -50.65 4.6 -50.25 4.75 -49.9 4.75 -49.5 4.85 -49.2 5.4 -48.75 5.75 -48.35 6.0 -48.0 6.15 -47.65 6.5 -46.9 6.75 -46.5 6.9 -46.15 7.0 -45.75 7.25 -45.0 7.65 -43.9 7.75 -43.5 7.75 -43.15 7.75 -42.75 7.75 -42.4 7.75 -42.0 7.75 -41.65 7.95 -41.3 8.25 -40.85 8.5 -40.5 8.65 -40.1 8.8 -39.0 8.75 -37.1 8.75 -35.6 8.75 -34.1 8.65 -33.75 8.5 -33.35 8.4 -33.0 8.1 -32.65 7.75 -32.25 7.0 -31.55 6.0 -30.75 5.8 -30.35 5.6 -30.0 5.4 -29.6 5.3 -29.25 5.25 -28.9 5.15 -28.5 5.0 -28.15 4.75 -27.75 4.75 -27.4 4.65 -27.0 4.5 -26.65 4.25 -26.25 4.25 -25.9 4.15 -25.5 3.9 -25.1 3.6 -24.75 2.95 -24.05 2.25 -23.35 2.0 -23.3 1.25 -23.15 0.75 -23.1 -0.25 -23.35 -1.1 -24.15 -1.8 -25.2 -2.35 -26.4 -2.6 -27.0 -2.65 -27.05 -3.25 -27.1 -3.75 -27.1 -4.75 -27.35 -5.25 -27.75 -5.45 -28.15 -5.6 -28.5 -5.7 -28.9 -5.75 -29.25 -5.75 -29.6 -5.7 -30.35 -5.6 -30.75 -5.45 -31.1 -5.25 -31.5 -5.2 -31.85 -5.1 -32.25 -5.0 -32.6 -5.15 -35.6 -5.1 -39.35 -5.1 -43.5 -5.1 -44.25 -5.25 -44.65 -5.35 -45.0 -5.55 -45.35 -5.85 -45.75 -6.2 -46.15 -6.35 -46.5 -6.45 -46.9 -6.5 -47.25 -6.5 -47.65 M1.7 -32.5 L1.25 -32.6 0.75 -32.6 -0.25 -32.85 -0.65 -33.1 -0.7 -33.1 -0.75 -33.0 -0.75 -32.6 -0.8 -32.25 -0.85 -31.85 -0.9 -31.7 -0.35 -31.35 0.15 -31.0 0.4 -30.6 0.6 -30.25 0.8 -29.9 1.0 -29.6 1.2 -29.8 1.25 -30.1 1.25 -30.5 1.4 -30.85 1.65 -31.25 1.75 -31.65 1.75 -32.0 1.75 -32.35 1.7 -32.5" fill="#333333" fill-opacity="0.2" fill-rule="evenodd" stroke="none"/>
    <path d="M3.9 -17.5 L3.85 -17.1 3.75 -16.75 3.6 -16.4 3.35 -16.0 3.15 -15.75 2.85 -15.65 2.25 -15.5 1.4 -15.75 1.0 -16.1 0.65 -16.5 -0.25 -16.6 -0.75 -16.6 -1.6 -16.85 -2.15 -17.25 -2.75 -17.6 -3.0 -18.0 -3.1 -18.35 -3.1 -18.75 -3.1 -19.1 -3.05 -19.5 -2.85 -19.85 -2.6 -20.25 -2.35 -20.6 -2.1 -20.85 -1.85 -20.95 -1.25 -21.1 -0.75 -21.1 -0.25 -21.2 -0.25 -21.25 0.25 -21.25 0.9 -21.0 1.15 -20.6 1.3 -20.25 1.25 -19.85 1.4 -19.7 2.0 -19.35 3.0 -19.0 3.5 -18.6 3.75 -18.25 3.9 -17.85 3.9 -17.5" fill="#333333" fill-opacity="0.2" fill-rule="evenodd" stroke="none"/>
    <path d="M-5.35 -48.0 L-5.0 -48.4 -4.35 -49.15 -3.85 -49.4 -3.25 -49.45 -3.25 -49.5 4.25 -49.5 5.15 -49.25 5.65 -48.9 5.85 -48.5 6.0 -48.15 6.2 -47.8 6.6 -47.35 7.5 -46.25 7.85 -45.5 8.0 -45.15 8.1 -44.75 8.15 -44.4 8.15 -44.0 8.15 -43.25 8.15 -42.9 8.0 -42.5 7.75 -42.15 7.65 -41.75 7.65 -41.4 7.65 -40.6 7.6 -39.9 7.5 -39.1 7.35 -38.75 7.15 -38.35 7.0 -38.0 6.5 -37.25 6.15 -37.0 5.85 -36.9 5.25 -36.75 3.75 -36.5 3.65 -36.1 3.5 -35.75 3.4 -35.35 3.2 -35.05 2.9 -34.6 2.5 -34.25 1.65 -33.5 0.75 -33.25 0.25 -33.25 -0.6 -33.5 -1.1 -33.5 -1.4 -33.15 -1.75 -32.75 -2.1 -32.5 -2.75 -32.35 -3.6 -32.6 -4.1 -33.0 -4.5 -33.4 -4.75 -33.75 -5.0 -34.1 -5.0 -34.5 -5.05 -34.85 -5.1 -35.25 -5.1 -35.6 -5.1 -36.0 -5.25 -36.35 -5.35 -36.75 -5.45 -37.15 -5.5 -37.5 -5.65 -37.85 -5.9 -38.25 -6.2 -38.65 -6.35 -39.0 -6.45 -39.4 -6.5 -40.85 -6.5 -42.75 -6.5 -45.0 -6.5 -45.4 -6.35 -45.75 -6.25 -46.15 -6.1 -46.5 -6.0 -46.9 -5.85 -47.25 -5.7 -47.6 -5.35 -48.0 M0.15 -45.5 L0.0 -45.15 -0.25 -44.75 -0.3 -44.4 -0.35 -44.0 -0.5 -43.65 -0.6 -43.25 -0.6 -42.9 -0.6 -42.5 -0.6 -42.15 -0.6 -41.75 -0.55 -41.8 -0.35 -42.15 -0.25 -42.5 0.15 -43.25 0.5 -44.0 0.9 -44.75 0.9 -45.15 0.8 -45.35 0.15 -45.55 0.15 -45.5" fill="#333333" fill-opacity="0.2" fill-rule="evenodd" stroke="none"/>
    <path d="M-1.5 -29.5 L-0.75 -29.7 -0.75 -29.75 0.0 -29.5 0.35 -29.1 0.65 -28.75 0.9 -28.35 1.0 -28.0 1.15 -27.6 1.3 -27.25 1.25 -26.85 1.1 -26.55 0.75 -26.1 0.4 -25.75 0.0 -25.35 -0.75 -25.1 -1.25 -25.1 -2.1 -25.35 -2.5 -25.75 -2.75 -26.1 -2.75 -26.5 -2.75 -26.85 -2.75 -27.25 -2.7 -27.6 -2.55 -28.0 -2.5 -28.35 -2.35 -28.7 -2.0 -29.1 -1.5 -29.5" fill="#333333" fill-opacity="0.2" fill-rule="evenodd" stroke="none"/>
    <path d="M3.75 27.15 L3.85 26.9 4.0 26.5 4.15 26.15 4.25 25.75 4.5 25.55 4.75 25.45 5.25 25.35 5.25 25.25 5.9 25.5 6.15 25.9 6.4 26.25 6.5 26.65 6.6 27.4 6.65 28.15 6.65 28.5 6.5 28.9 6.4 29.25 6.25 29.65 6.05 30.05 5.85 30.35 5.25 31.15 5.0 31.4 4.75 31.5 4.25 31.65 3.5 31.4 3.15 31.0 3.0 30.65 2.5 30.25 2.25 29.9 2.15 29.5 2.15 29.15 2.15 28.75 2.15 28.4 2.2 28.05 2.4 27.65 2.75 27.4 3.25 27.25 3.75 27.15" fill="#333333" fill-opacity="0.2" fill-rule="evenodd" stroke="none"/>
    <path d="M-4.65 -49.0 L-4.6 -48.85 -4.6 -48.45 -4.6 -48.1 -4.6 -47.9 -4.55 -47.7 -4.45 -47.5 -4.35 -47.35 -4.2 -35.7 -4.15 -23.9 -4.0 -12.05 -4.0 -0.25 -3.95 11.55 -4.0 23.35 -4.1 29.95 -4.25 30.3 -4.35 30.7 -4.45 31.05 -4.5 31.25 -4.6 31.35 -4.75 31.45 -5.0 31.5 -5.35 31.4 -5.55 31.2 -5.6 31.0 -5.6 30.8 -5.65 30.6 -5.65 30.45 -5.8 30.25 -6.0 18.6 -6.0 6.8 -5.95 -5.0 -5.9 -16.8 -5.8 -28.65 -5.7 -40.45 -5.65 -47.2 -5.65 -47.4 -5.55 -47.55 -5.35 -47.75 -5.35 -48.15 -5.35 -48.5 -5.35 -48.9 -5.3 -49.1 -5.15 -49.15 -5.0 -49.2 -4.85 -49.2 -4.65 -49.0" fill="#ffff99" fill-opacity="0.2" fill-rule="evenodd" stroke="none"/>
    <path d="M2.6 -26.75 L2.65 -26.2 2.65 -25.45 2.65 -24.9 2.7 -24.7 2.8 -24.5 2.9 -24.35 3.05 -12.7 3.0 -0.9 3.05 10.95 3.05 22.75 2.75 30.25 2.7 30.45 2.65 30.55 2.5 30.65 2.25 30.7 1.9 30.55 1.75 30.4 1.5 18.75 1.5 6.95 1.5 -4.9 1.5 -16.7 1.6 -24.2 1.6 -24.4 1.7 -24.55 1.9 -24.75 1.9 -25.35 1.9 -26.05 1.95 -26.85 2.1 -26.9 2.25 -26.95 2.4 -26.95 2.6 -26.75" fill="#ffff99" fill-opacity="0.2" fill-rule="evenodd" stroke="none"/>
    <path d="M-7.0 31.65 L-6.6 31.75 -6.35 31.95 -6.3 32.1 -6.15 32.3 -6.1 33.65 -6.0 35.3 -6.0 36.8 -6.0 37.0 -6.1 37.2 -6.15 37.4 -6.35 37.55 -6.4 37.75 -6.5 37.95 -6.6 38.15 -6.65 40.4 -6.6 43.0 -6.65 44.9 -6.75 45.05 -6.85 45.25 -6.85 46.55 -6.85 48.25 -6.9 49.55 -7.0 49.75 -7.1 49.95 -7.1 50.15 -7.15 50.3 -7.25 50.5 -7.35 50.7 -7.5 50.9 -7.75 51.05 -8.0 51.25 -8.15 51.4 -8.5 51.45 -8.9 51.3 -9.25 51.15 -9.35 50.95 -9.4 50.75 -9.4 50.55 -9.4 50.4 -9.3 50.2 -9.05 50.0 -8.9 49.8 -8.85 49.65 -8.85 49.45 -8.85 49.25 -8.8 49.05 -8.7 48.9 -8.6 48.7 -8.6 47.55 -8.65 46.05 -8.55 44.55 -8.45 44.4 -8.35 44.2 -8.35 42.15 -8.3 39.7 -8.3 37.8 -8.25 37.65 -8.15 37.45 -8.05 37.25 -8.05 35.95 -8.0 34.25 -8.0 32.55 -7.95 32.4 -7.85 32.2 -7.45 31.8 -7.3 31.7 -7.0 31.65" fill="#ffff99" fill-opacity="0.2" fill-rule="evenodd" stroke="none"/>
    <path d="M4.1 33.15 L4.1 33.25 4.0 33.45 3.9 33.65 3.65 33.8 3.25 33.95 0.2 34.05 0.0 34.25 -0.15 34.45 -0.3 34.55 -0.4 34.6 -0.75 34.65 -1.5 34.7 -1.9 34.55 -3.4 34.55 -3.3 34.75 -3.25 34.95 -3.2 35.15 -3.15 35.3 -3.15 35.5 -3.2 35.7 -3.25 35.9 -3.3 36.05 -3.5 36.25 -3.65 36.45 -3.8 36.55 -3.9 36.6 -4.2 36.7 -4.6 36.8 -5.0 36.95 -6.0 36.95 -6.4 36.8 -6.6 36.65 -6.8 36.45 -7.15 36.05 -7.5 35.7 -7.55 35.5 -7.55 35.3 -7.55 35.15 -7.55 34.95 -7.55 34.75 -7.7 34.55 -7.85 34.35 -8.05 34.0 -8.05 33.8 -8.0 33.65 -7.8 33.25 -7.5 32.7 -7.15 32.5 -7.05 32.3 -6.95 32.15 -6.85 31.95 -6.65 31.75 -6.25 31.65 -5.75 31.65 -5.35 31.75 -5.0 31.8 -4.5 31.8 -4.1 31.95 -1.65 31.95 -1.2 31.85 1.75 31.3 6.25 31.3 6.65 31.45 6.9 31.65 7.0 31.8 7.1 32.0 7.05 32.2 7.05 32.4 6.95 32.55 6.8 32.75 6.65 32.9 6.5 32.95 6.25 33.0 4.1 33.15" fill="#ffff99" fill-opacity="0.2" fill-rule="evenodd" stroke="none"/>
    <path d="M-5.95 17.95 L-5.85 18.1 -5.8 18.3 -5.8 18.5 -5.8 18.7 -5.8 18.85 -5.85 19.05 -5.95 19.45 -6.05 19.8 -6.1 20.0 -6.2 20.15 -6.35 20.35 -6.75 20.5 -6.9 20.5 -7.25 20.55 -7.65 20.45 -7.85 20.25 -8.0 20.05 -8.0 19.9 -8.0 19.7 -8.05 19.3 -8.0 18.95 -7.75 18.6 -7.15 18.0 -6.8 17.7 -6.5 17.65 -6.5 17.6 -6.1 17.75 -5.95 17.95" fill="#ffff99" fill-opacity="0.2" fill-rule="evenodd" stroke="none"/>
    <path d="M-6.5 20.2 L-6.15 20.25 -6.25 20.45 -6.35 20.65 -6.35 20.8 -6.55 20.8 -6.6 20.7 -6.6 20.5 -6.55 20.35 -6.5 20.25 -6.5 20.2" fill="#ffff99" fill-opacity="0.2" fill-rule="evenodd" stroke="none"/>
    <path d="M-7.25 2.2 L-6.95 2.35 Q-6.85 2.35 -6.8 2.45 L-6.75 2.45 -6.35 2.55 -6.05 2.9 -5.7 3.35 -5.5 3.7 -5.45 3.85 -5.5 4.05 -5.55 4.25 -5.65 4.45 -5.9 4.6 -6.05 4.8 -6.25 5.2 -6.4 5.3 -7.5 5.3 -8.35 5.1 -8.55 4.95 -8.6 4.75 -8.6 4.35 -8.6 4.2 -8.6 4.0 -8.6 3.8 -8.55 3.65 -8.25 3.3 -8.0 3.25 -7.6 3.2 -7.6 3.0 -7.65 2.6 -7.65 2.45 -7.55 2.3 -7.5 2.25 -7.25 2.2" fill="#ffff99" fill-opacity="0.2" fill-rule="evenodd" stroke="none"/>
    <path d="M-7.25 -11.9 L-6.85 -11.75 -6.7 -11.55 -6.55 -11.4 -6.5 -11.2 -6.4 -11.0 -6.35 -10.8 -6.3 -10.65 -6.3 -10.45 -6.3 -10.25 -6.35 -10.05 -6.35 -9.9 -6.4 -9.7 -6.5 -9.5 -6.65 -9.35 -6.9 -9.15 -7.25 -9.0 -7.5 -9.0 -7.85 -9.15 -8.0 -9.35 -8.1 -9.5 -8.05 -9.9 -8.0 -10.45 -7.95 -11.0 -8.0 -11.2 -7.95 -11.4 -7.85 -11.55 -7.65 -11.75 -7.25 -11.85 -7.25 -11.9" fill="#ffff99" fill-opacity="0.2" fill-rule="evenodd" stroke="none"/>
    <path d="M-7.0 -12.7 L-6.65 -12.55 -6.55 -12.4 -6.4 -12.3 -6.25 -12.2 -5.9 -12.05 -5.8 -11.9 -5.7 -11.7 -5.75 -11.5 -5.8 -11.3 -5.85 -11.2 -6.0 -11.15 -6.25 -11.05 -6.5 -10.95 -6.5 -10.75 -6.6 -10.55 -6.65 -10.4 -6.7 -10.2 -6.75 -10.0 -6.75 -9.8 -6.8 -9.65 -6.95 -9.45 -7.1 -9.25 -7.5 -9.15 -7.9 -9.25 -8.1 -9.45 -8.25 -9.65 -8.25 -9.8 -8.25 -10.2 -8.25 -10.4 -8.25 -10.55 -8.25 -10.75 -8.15 -10.95 -8.05 -11.15 -8.0 -11.3 -8.0 -11.5 -8.0 -11.7 -8.0 -11.9 -7.9 -12.05 -7.8 -12.25 -7.65 -12.45 -7.35 -12.55 -7.25 -12.6 -7.0 -12.65 -7.0 -12.7" fill="#ffff99" fill-opacity="0.2" fill-rule="evenodd" stroke="none"/>
    <path d="M-7.65 -25.55 L-7.4 -25.75 -7.3 -25.95 -7.2 -26.15 -7.1 -26.3 -6.9 -26.5 -6.5 -26.6 -6.5 -26.65 -6.1 -26.5 -5.9 -26.3 -5.8 -26.15 -5.65 -25.95 -5.55 -25.75 -5.55 -25.6 -5.55 -25.4 -5.55 -25.2 -5.55 -25.0 -5.55 -24.65 -5.6 -24.45 -5.65 -24.25 -5.75 -24.1 -5.75 -23.9 -5.75 -23.7 -5.75 -23.5 -5.85 -23.3 -5.95 -23.15 -6.05 -23.0 -6.15 -22.95 -6.5 -22.9 -6.9 -23.0 -7.1 -23.2 -7.2 -23.4 -7.25 -23.6 -7.25 -23.75 -7.25 -23.9 -7.65 -24.1 -7.8 -24.25 -7.9 -24.45 -8.0 -24.65 -8.0 -24.85 -7.95 -25.0 -7.9 -25.2 -7.85 -25.35 -7.65 -25.55" fill="#ffff99" fill-opacity="0.2" fill-rule="evenodd" stroke="none"/>
    <path d="M-6.35 -26.5 L-6.25 -26.3 -6.15 -26.15 -6.05 -25.95 -6.05 -25.75 -6.05 -25.6 -6.05 -25.4 -6.1 -25.2 -6.3 -25.0 -6.6 -24.85 -6.9 -24.85 -7.1 -25.0 -7.1 -25.2 -7.0 -25.4 -6.95 -25.6 -6.9 -25.75 -6.9 -25.95 -6.85 -26.15 -6.75 -26.35 -6.6 -26.5 -6.55 -26.6 -6.5 -26.7 -6.4 -26.7 -6.35 -26.5" fill="#ffff99" fill-opacity="0.2" fill-rule="evenodd" stroke="none"/>
    <path d="M-6.0 -41.0 L-5.9 -40.85 -5.85 -40.65 -5.85 -40.45 -5.85 -40.25 -5.85 -40.1 -5.95 -39.9 -6.2 -39.5 -6.65 -38.9 -6.75 -38.75 -6.85 -38.65 -7.0 -38.6 -7.25 -38.5 -7.6 -38.65 -7.75 -38.85 -7.85 -39.0 -8.1 -39.2 -8.2 -39.4 -8.3 -39.6 -8.3 -39.75 -8.2 -39.95 -8.1 -40.15 -8.1 -40.35 -8.1 -40.5 -8.0 -40.7 -7.85 -40.9 -7.5 -41.1 -7.3 -41.2 -7.2 -41.25 -7.0 -41.3 -7.0 -41.35 -6.5 -41.35 -6.15 -41.2 -6.0 -41.0" fill="#ffff99" fill-opacity="0.2" fill-rule="evenodd" stroke="none"/>
    <path d="M-6.55 11.15 L-6.4 11.0 -6.3 10.95 -6.0 10.9 -6.0 10.85 -5.6 11.0 -5.35 11.2 -5.1 11.35 -5.0 11.55 -4.9 11.75 -4.9 11.95 -4.8 12.1 -4.65 12.2 -4.5 12.05 -4.3 11.95 -4.0 11.85 -3.6 12.0 -3.4 12.2 -3.3 12.35 -3.25 12.75 -3.2 13.3 -3.25 13.9 -3.35 14.25 -3.45 14.4 -3.6 14.65 -3.75 14.8 -3.75 15.0 -3.75 15.2 -3.75 15.35 -3.8 15.55 -3.9 15.75 -3.9 15.95 -3.95 16.1 -4.0 16.3 -4.05 16.5 -4.25 16.7 -4.4 16.8 -4.75 16.85 -5.15 16.75 -5.35 16.55 -5.45 16.35 -5.55 16.2 -5.8 15.8 -5.8 15.6 -5.8 15.25 -5.8 14.7 -5.8 14.1 -5.85 13.95 -5.9 13.75 -6.0 13.55 -6.05 13.35 -6.15 13.2 -6.25 13.0 -6.4 12.8 -6.55 12.6 -6.6 12.45 -6.8 12.05 -6.8 11.85 -6.8 11.7 -6.75 11.5 -6.65 11.3 -6.55 11.15" fill="#ffff99" fill-opacity="0.2" fill-rule="evenodd" stroke="none"/>
    <path d="M9.15 38.55 L9.1 46.05 9.0 50.3 9.05 50.5 9.05 50.7 9.0 50.85 8.9 50.95 8.8 51.05 8.55 51.1 5.5 51.1 5.4 51.1 5.15 51.2 4.85 51.25 4.35 51.3 4.1 51.35 -3.8 51.3 -7.95 51.25 -8.0 51.3 -8.1 51.5 -8.5 51.65 -8.65 51.7 -8.7 51.5 -8.65 51.3 -8.65 51.2 -8.85 51.1 -8.95 50.9 -9.0 50.75 -8.9 50.55 -8.75 50.35 -8.7 50.35 -8.9 44.0 -8.95 36.5 -8.85 32.2 -8.9 32.0 -8.9 31.8 -8.9 31.6 -8.9 31.45 -8.9 31.25 -8.9 31.05 -8.75 30.85 -8.55 30.75 -8.3 30.7 1.45 30.7 5.4 30.75 9.05 30.85 9.4 31.05 9.5 31.2 9.5 31.35 9.4 31.55 9.35 31.65 9.25 31.7 9.15 38.55 M7.9 31.75 Q0.15 32.05 -7.65 31.95 L-7.65 32.0 -7.7 32.2 -7.65 32.35 -7.65 32.55 -7.6 32.75 -7.65 32.9 -7.7 33.1 Q-7.6 34.25 -7.65 35.35 L-7.75 38.0 -7.6 39.85 -7.7 44.0 -7.75 48.3 -7.8 50.15 -7.2 50.1 0.9 50.0 3.0 50.0 8.05 50.0 7.9 43.05 7.85 35.75 7.9 31.75" fill="#333333" fill-rule="evenodd" stroke="none"/>
    <path d="M-6.05 -49.8 L-5.8 -49.85 -5.8 -49.9 -5.5 -49.75 -5.4 -49.6 -5.3 -49.4 -5.25 -49.2 -5.0 -44.85 -6.5 -44.85 -6.55 -45.5 -6.4 -49.05 -6.35 -49.25 -6.3 -49.45 -6.25 -49.65 -6.1 -49.75 -6.05 -49.8 M-5.3 -37.5 L-5.35 -37.2 -5.3 -33.65 -5.25 -33.45 -5.2 -33.35 -5.15 -33.25 -5.15 -29.9 -5.2 -26.3 -5.1 -23.9 -5.15 -23.7 -5.15 -23.5 -5.1 -15.25 -5.15 -6.85 -5.15 -6.75 -5.15 7.3 -5.2 7.75 -5.25 8.05 -5.2 11.75 -5.15 23.55 -5.3 30.7 -5.35 30.85 -5.4 31.05 -5.5 31.2 -5.55 31.2 -5.8 31.3 -6.1 31.2 -6.3 31.0 -6.45 19.35 -6.35 8.5 -6.4 8.15 -6.4 -6.85 -6.45 -13.05 -6.45 -24.9 -6.4 -33.3 -6.35 -33.5 -6.3 -33.65 -6.3 -33.7 -6.25 -37.5 -5.3 -37.5" fill="#333333" fill-rule="evenodd" stroke="none"/>
    <path d="M6.8 -49.6 L6.95 -37.95 6.85 -27.1 6.9 -26.75 6.9 -11.75 6.95 -5.55 6.95 6.3 6.9 14.7 6.85 14.9 6.8 15.1 6.75 18.9 5.8 18.9 5.85 18.6 5.8 15.05 5.75 14.85 5.7 14.75 5.65 14.65 5.65 11.3 5.7 7.7 5.6 5.3 5.65 5.1 5.65 4.9 5.6 -3.35 5.65 -11.75 5.65 -11.85 5.65 -25.9 5.7 -26.35 5.75 -26.65 5.7 -30.35 5.65 -42.15 5.8 -49.3 5.85 -49.45 5.9 -49.65 6.0 -49.8 6.05 -49.8 6.3 -49.9 6.6 -49.8 6.8 -49.6 M6.8 30.85 L6.75 31.05 6.6 31.15 6.55 31.2 6.3 31.25 6.3 31.3 6.0 31.15 5.9 31.0 5.8 30.8 5.75 30.6 5.5 26.25 7.0 26.25 7.05 26.9 6.9 30.45 6.85 30.65 6.8 30.85" fill="#333333" fill-rule="evenodd" stroke="none"/>
    <path d="M6.75 15.1 L6.9 15.3 7.0 15.6 7.0 15.9 6.9 16.2 6.85 16.45 6.75 16.75 6.75 17.05 7.0 17.1 7.3 17.2 7.75 17.35 7.95 17.5 8.2 17.65 8.4 17.8 8.55 17.95 8.65 18.1 8.7 18.15 8.85 18.3 9.1 18.6 9.25 18.9 9.3 19.05 9.4 19.2 9.45 19.3 9.45 19.45 9.55 19.6 9.6 19.75 9.6 19.9 9.6 20.2 9.6 20.35 9.6 20.4 9.6 20.7 9.6 21.15 9.6 21.55 9.6 21.7 9.55 21.85 9.55 22.0 9.45 22.15 9.4 22.3 9.3 22.45 8.95 22.8 8.55 23.25 7.65 24.1 7.2 24.4 7.0 24.45 6.9 24.55 6.9 24.6 6.85 26.25 5.95 26.25 5.95 14.7 6.25 14.8 6.75 15.1 M7.0 18.3 L6.85 18.25 6.9 20.4 7.0 21.1 7.05 20.95 7.45 20.7 7.65 20.65 7.8 20.65 8.1 20.7 8.2 20.8 8.2 20.7 8.2 20.4 8.25 20.2 8.2 19.75 8.1 19.6 8.05 19.45 7.9 19.3 7.8 19.2 7.75 19.05 7.75 18.9 7.6 18.75 7.45 18.6 7.2 18.45 7.0 18.3 M7.3 22.45 L7.35 22.45 7.05 22.3 7.0 22.3 7.0 22.65 7.15 22.6 7.3 22.45" fill="#333333" fill-rule="evenodd" stroke="none"/>
    <path d="M6.75 0.1 L6.9 0.3 7.0 0.6 7.0 0.9 6.9 1.2 6.85 1.45 6.75 1.75 6.75 2.05 7.0 2.1 7.3 2.2 7.75 2.35 7.95 2.5 8.2 2.65 8.4 2.8 8.55 2.95 8.65 3.1 8.7 3.15 8.85 3.3 9.1 3.6 9.25 3.9 9.3 4.05 9.4 4.2 9.45 4.3 9.45 4.45 9.55 4.6 9.6 4.75 9.6 4.9 9.6 5.2 9.6 5.35 9.6 5.4 9.6 5.7 9.6 6.15 9.6 6.55 9.6 6.7 9.55 6.85 9.55 7.0 9.45 7.15 9.4 7.3 9.3 7.45 8.95 7.8 8.55 8.25 7.65 9.1 7.2 9.4 7.0 9.45 6.9 9.55 6.9 9.6 6.85 11.25 5.95 11.25 5.95 -0.3 6.25 -0.2 6.75 0.1 M7.0 3.3 L6.85 3.25 6.9 5.4 7.0 6.1 7.05 5.95 7.45 5.7 7.65 5.65 7.8 5.65 8.1 5.7 8.2 5.8 8.2 5.7 8.2 5.4 8.25 5.2 8.2 4.75 8.1 4.6 8.05 4.45 7.9 4.3 7.8 4.2 7.75 4.05 7.75 3.9 7.6 3.75 7.45 3.6 7.2 3.45 7.0 3.3 M7.3 7.45 L7.35 7.45 7.05 7.3 7.0 7.3 7.0 7.65 7.15 7.6 7.3 7.45" fill="#333333" fill-rule="evenodd" stroke="none"/>
    <path d="M6.75 -14.9 L6.9 -14.7 7.0 -14.4 7.0 -14.1 6.9 -13.8 6.85 -13.55 6.75 -13.25 6.75 -12.95 7.0 -12.9 7.3 -12.8 7.75 -12.65 7.95 -12.5 8.2 -12.35 8.4 -12.2 8.55 -12.05 8.65 -11.9 8.7 -11.85 8.85 -11.7 9.1 -11.4 9.25 -11.1 9.3 -10.95 9.4 -10.8 9.45 -10.7 9.45 -10.55 9.55 -10.4 9.6 -10.25 9.6 -10.1 9.6 -9.8 9.6 -9.65 9.6 -9.6 9.6 -9.3 9.6 -8.85 9.6 -8.45 9.6 -8.3 9.55 -8.15 9.55 -8.0 9.45 -7.85 9.4 -7.7 9.3 -7.55 8.95 -7.2 8.55 -6.75 7.65 -5.9 7.2 -5.6 7.0 -5.55 6.9 -5.45 6.9 -5.4 6.85 -3.75 5.95 -3.75 5.95 -15.3 6.25 -15.2 6.75 -14.9 M7.0 -11.7 L6.85 -11.75 6.9 -9.6 7.0 -8.9 7.05 -9.05 7.45 -9.3 7.65 -9.35 7.8 -9.35 8.1 -9.3 8.2 -9.2 8.2 -9.3 8.2 -9.6 8.25 -9.8 8.2 -10.25 8.1 -10.4 8.05 -10.55 7.9 -10.7 7.8 -10.8 7.75 -10.95 7.75 -11.1 7.6 -11.25 7.45 -11.4 7.2 -11.55 7.0 -11.7 M7.3 -7.55 L7.35 -7.55 7.05 -7.7 7.0 -7.7 7.0 -7.35 7.15 -7.4 7.3 -7.55" fill="#333333" fill-rule="evenodd" stroke="none"/>
    <path d="M6.75 -29.9 L6.9 -29.7 7.0 -29.4 7.0 -29.1 6.9 -28.8 6.85 -28.55 6.75 -28.25 6.75 -27.95 7.0 -27.9 7.3 -27.8 7.75 -27.65 7.95 -27.5 8.2 -27.35 8.4 -27.2 8.55 -27.05 8.65 -26.9 8.7 -26.85 8.85 -26.7 9.1 -26.4 9.25 -26.1 9.3 -25.95 9.4 -25.8 9.45 -25.7 9.45 -25.55 9.55 -25.4 9.6 -25.25 9.6 -25.1 9.6 -24.8 9.6 -24.65 9.6 -24.6 9.6 -24.3 9.6 -23.85 9.6 -23.45 9.6 -23.3 9.55 -23.15 9.55 -23.0 9.45 -22.85 9.4 -22.7 9.3 -22.55 8.95 -22.2 8.55 -21.75 7.65 -20.9 7.2 -20.6 7.0 -20.55 6.9 -20.45 6.9 -20.4 6.85 -18.75 5.95 -18.75 5.95 -30.3 6.25 -30.2 6.75 -29.9 M7.0 -26.7 L6.85 -26.75 6.9 -24.6 7.0 -23.9 7.05 -24.05 7.45 -24.3 7.65 -24.35 7.8 -24.35 8.1 -24.3 8.2 -24.2 8.2 -24.3 8.2 -24.6 8.25 -24.8 8.2 -25.25 8.1 -25.4 8.05 -25.55 7.9 -25.7 7.8 -25.8 7.75 -25.95 7.75 -26.1 7.6 -26.25 7.45 -26.4 7.2 -26.55 7.0 -26.7 M7.3 -22.55 L7.35 -22.55 7.05 -22.7 7.0 -22.7 7.0 -22.35 7.15 -22.4 7.3 -22.55" fill="#333333" fill-rule="evenodd" stroke="none"/>
    <path d="M6.75 -44.9 L6.9 -44.7 7.0 -44.4 7.0 -44.1 6.9 -43.8 6.85 -43.55 6.75 -43.25 6.75 -42.95 7.0 -42.9 7.3 -42.8 7.75 -42.65 7.95 -42.5 8.2 -42.35 8.4 -42.2 8.55 -42.05 8.65 -41.9 8.7 -41.85 8.85 -41.7 9.1 -41.4 9.25 -41.1 9.3 -40.95 9.4 -40.8 9.45 -40.7 9.45 -40.55 9.55 -40.4 9.6 -40.25 9.6 -40.1 9.6 -39.8 9.6 -39.65 9.6 -39.6 9.6 -39.3 9.6 -38.85 9.6 -38.45 9.6 -38.3 9.55 -38.15 9.55 -38.0 9.45 -37.85 9.4 -37.7 9.3 -37.55 8.95 -37.2 8.55 -36.75 7.65 -35.9 7.2 -35.6 7.0 -35.55 6.9 -35.45 6.9 -35.4 6.85 -33.75 5.95 -33.75 5.95 -45.3 6.25 -45.2 6.75 -44.9 M7.0 -41.7 L6.85 -41.75 6.9 -39.6 7.0 -38.9 7.05 -39.05 7.45 -39.3 7.65 -39.35 7.8 -39.35 8.1 -39.3 8.2 -39.2 8.2 -39.3 8.2 -39.6 8.25 -39.8 8.2 -40.25 8.1 -40.4 8.05 -40.55 7.9 -40.7 7.8 -40.8 7.75 -40.95 7.75 -41.1 7.6 -41.25 7.45 -41.4 7.2 -41.55 7.0 -41.7 M7.3 -37.55 L7.35 -37.55 7.05 -37.7 7.0 -37.7 7.0 -37.35 7.15 -37.4 7.3 -37.55" fill="#333333" fill-rule="evenodd" stroke="none"/>
    <path d="M-5.85 -46.25 L-5.85 -32.75 -6.15 -33.0 -6.3 -33.3 -6.45 -33.8 -6.5 -34.1 -6.6 -35.55 -6.6 -35.7 -6.75 -35.7 -7.05 -35.85 -7.5 -36.15 -7.7 -36.3 -7.85 -36.45 -8.15 -36.65 -8.6 -37.25 -8.85 -37.7 -8.9 -37.8 -8.9 -37.95 -9.0 -38.1 -9.05 -38.25 -9.05 -38.7 -9.0 -39.5 -9.0 -39.95 -9.0 -40.5 -8.9 -40.95 -8.85 -41.0 -8.7 -41.3 -8.4 -41.75 -8.1 -42.15 -7.95 -42.3 -7.7 -42.45 -7.55 -42.6 -7.4 -42.75 -7.2 -42.9 -6.95 -43.05 -6.75 -43.1 -6.5 -43.2 -6.35 -43.2 -6.2 -43.2 -6.0 -45.95 -5.9 -46.05 -5.85 -46.25 M-6.35 -41.9 L-6.6 -41.85 -6.8 -41.7 -6.95 -41.55 -7.05 -41.4 -7.1 -41.25 -7.2 -41.1 -7.25 -40.95 -7.4 -40.7 -7.5 -40.55 -7.55 -40.25 -7.55 -39.65 -7.55 -39.15 -7.55 -38.85 -7.5 -38.45 -7.35 -38.15 -6.9 -37.55 -6.45 -37.25 -6.5 -37.5 -6.5 -38.1 -6.5 -38.3 -6.45 -38.6 -6.35 -38.9 -6.2 -42.0 -6.35 -41.9" fill="#333333" fill-rule="evenodd" stroke="none"/>
    <path d="M-5.85 -31.25 L-5.85 -17.75 -6.15 -18.0 -6.3 -18.3 -6.45 -18.8 -6.5 -19.1 -6.6 -20.55 -6.6 -20.7 -6.75 -20.7 -7.05 -20.85 -7.5 -21.15 -7.7 -21.3 -7.85 -21.45 -8.15 -21.65 -8.6 -22.25 -8.85 -22.7 -8.9 -22.8 -8.9 -22.95 -9.0 -23.1 -9.05 -23.25 -9.05 -23.7 -9.0 -24.5 -9.0 -24.95 -9.0 -25.5 -8.9 -25.95 -8.85 -26.0 -8.7 -26.3 -8.4 -26.75 -8.1 -27.15 -7.95 -27.3 -7.7 -27.45 -7.55 -27.6 -7.4 -27.75 -7.2 -27.9 -6.95 -28.05 -6.75 -28.1 -6.5 -28.2 -6.35 -28.2 -6.2 -28.2 -6.0 -30.95 -5.9 -31.05 -5.85 -31.25 M-6.35 -26.9 L-6.6 -26.85 -6.8 -26.7 -6.95 -26.55 -7.05 -26.4 -7.1 -26.25 -7.2 -26.1 -7.25 -25.95 -7.4 -25.7 -7.5 -25.55 -7.55 -25.25 -7.55 -24.65 -7.55 -24.15 -7.55 -23.85 -7.5 -23.45 -7.35 -23.15 -6.9 -22.55 -6.45 -22.25 -6.5 -22.5 -6.5 -23.1 -6.5 -23.3 -6.45 -23.6 -6.35 -23.9 -6.2 -27.0 -6.35 -26.9" fill="#333333" fill-rule="evenodd" stroke="none"/>
    <path d="M-5.85 -16.25 L-5.85 -2.75 -6.15 -3.0 -6.3 -3.3 -6.45 -3.8 -6.5 -4.1 -6.6 -5.55 -6.6 -5.7 -6.75 -5.7 -7.05 -5.85 -7.5 -6.15 -7.7 -6.3 -7.85 -6.45 -8.15 -6.65 -8.6 -7.25 -8.85 -7.7 -8.9 -7.8 -8.9 -7.95 -9.0 -8.1 -9.05 -8.25 -9.05 -8.7 -9.0 -9.5 -9.0 -9.95 -9.0 -10.5 -8.9 -10.95 -8.85 -11.0 -8.7 -11.3 -8.4 -11.75 -8.1 -12.15 -7.95 -12.3 -7.7 -12.45 -7.55 -12.6 -7.4 -12.75 -7.2 -12.9 -6.95 -13.05 -6.75 -13.1 -6.5 -13.2 -6.35 -13.2 -6.2 -13.2 -6.0 -15.95 -5.9 -16.05 -5.85 -16.25 M-6.35 -11.9 L-6.6 -11.85 -6.8 -11.7 -6.95 -11.55 -7.05 -11.4 -7.1 -11.25 -7.2 -11.1 -7.25 -10.95 -7.4 -10.7 -7.5 -10.55 -7.55 -10.25 -7.55 -9.65 -7.55 -9.15 -7.55 -8.85 -7.5 -8.45 -7.35 -8.15 -6.9 -7.55 -6.45 -7.25 -6.5 -7.5 -6.5 -8.1 -6.5 -8.3 -6.45 -8.6 -6.35 -8.9 -6.2 -12.0 -6.35 -11.9" fill="#333333" fill-rule="evenodd" stroke="none"/>
    <path d="M-5.85 -1.25 L-5.85 12.25 -6.15 12.0 -6.3 11.7 -6.45 11.2 -6.5 10.9 -6.6 9.45 -6.6 9.3 -6.75 9.3 -7.05 9.15 -7.5 8.85 -7.7 8.7 -7.85 8.55 Q-8.0 8.4 -8.15 8.35 L-8.6 7.75 -8.85 7.3 -8.9 7.2 -8.9 7.05 -9.0 6.9 -9.05 6.75 -9.05 6.3 -9.0 5.5 -9.0 5.05 -9.0 4.5 -8.9 4.05 -8.85 4.0 -8.7 3.7 -8.4 3.25 -8.1 2.85 -7.95 2.7 -7.7 2.55 -7.55 2.4 -7.4 2.25 -7.2 2.1 -6.95 1.95 -6.75 1.9 -6.5 1.8 -6.35 1.8 -6.2 1.8 -6.0 -0.95 -5.9 -1.05 -5.85 -1.25 M-6.35 3.1 L-6.6 3.15 -6.8 3.3 -6.95 3.45 -7.05 3.6 -7.1 3.75 -7.2 3.9 -7.25 4.05 -7.4 4.3 -7.5 4.45 -7.55 4.75 -7.55 5.35 -7.55 5.85 -7.55 6.15 -7.5 6.55 -7.35 6.85 -6.9 7.45 -6.45 7.75 -6.5 7.5 -6.5 6.9 -6.5 6.7 -6.45 6.4 -6.35 6.1 -6.2 3.0 -6.35 3.1" fill="#333333" fill-rule="evenodd" stroke="none"/>
    <path d="M-5.85 13.75 L-5.85 27.25 -6.15 27.0 -6.3 26.7 -6.45 26.2 -6.5 25.9 -6.6 24.45 -6.6 24.3 -6.75 24.3 -7.05 24.15 -7.5 23.85 -7.7 23.7 -7.85 23.55 Q-8.0 23.4 -8.15 23.35 L-8.6 22.75 -8.85 22.3 -8.9 22.2 -8.9 22.05 -9.0 21.9 -9.05 21.75 -9.05 21.3 -9.0 20.5 -9.0 20.05 -9.0 19.5 -8.9 19.05 -8.85 19.0 -8.7 18.7 -8.4 18.25 -8.1 17.85 -7.95 17.7 -7.7 17.55 -7.55 17.4 -7.4 17.25 -7.2 17.1 -6.95 16.95 -6.75 16.9 -6.5 16.8 -6.35 16.8 -6.2 16.8 -6.0 14.05 -5.9 13.95 -5.85 13.75 M-6.35 18.1 L-6.6 18.15 -6.8 18.3 -6.95 18.45 -7.05 18.6 -7.1 18.75 -7.2 18.9 -7.25 19.05 -7.4 19.3 -7.5 19.45 -7.55 19.75 -7.55 20.35 -7.55 20.85 -7.55 21.15 -7.5 21.55 -7.35 21.85 -6.9 22.45 -6.45 22.75 -6.5 22.5 -6.5 21.9 -6.5 21.7 -6.45 21.4 -6.35 21.1 -6.2 18.0 -6.35 18.1" fill="#333333" fill-rule="evenodd" stroke="none"/>
    <path d="M-1.2 -49.8 L-0.95 -49.85 -0.95 -49.9 -0.65 -49.75 -0.55 -49.6 -0.45 -49.4 -0.4 -49.2 -0.15 -44.85 -1.65 -44.85 -1.7 -45.5 -1.55 -49.05 -1.5 -49.25 -1.45 -49.45 -1.4 -49.65 -1.25 -49.75 -1.2 -49.8 M-0.45 -37.5 L-0.5 -37.2 -0.45 -33.65 -0.4 -33.45 -0.35 -33.35 -0.3 -33.25 -0.3 -29.9 -0.35 -26.3 -0.25 -23.9 -0.3 -23.7 -0.3 -23.5 -0.25 -15.25 -0.3 -6.85 -0.3 -6.75 -0.3 7.3 -0.35 7.75 -0.4 8.05 -0.35 11.75 -0.3 23.55 -0.45 30.7 -0.5 30.85 -0.55 31.05 -0.65 31.2 -0.7 31.2 -0.95 31.3 -1.25 31.2 -1.45 31.0 -1.6 19.35 -1.5 8.5 -1.55 8.15 -1.55 -6.85 -1.6 -13.05 -1.6 -24.9 -1.55 -33.3 -1.5 -33.5 -1.45 -33.65 -1.45 -33.7 -1.4 -37.5 -0.45 -37.5" fill="#333333" fill-rule="evenodd" stroke="none"/>
    <path d="M2.0 -49.6 L2.1 -37.95 2.05 -27.1 2.05 -26.75 2.05 -11.75 2.1 -5.55 2.1 6.3 2.05 11.5 2.05 18.45 2.05 18.9 2.0 19.3 1.95 26.25 2.1 26.25 2.15 26.9 2.05 30.45 2.05 30.65 2.0 30.85 1.95 31.05 1.9 31.15 1.85 31.2 1.7 31.25 1.7 31.3 1.5 31.15 1.45 31.0 1.4 30.8 1.35 30.6 1.2 26.25 1.45 26.25 1.4 19.2 1.35 18.75 1.3 18.35 1.3 11.5 1.3 11.3 1.35 7.7 1.3 5.3 1.3 5.1 1.3 4.9 1.3 -3.35 1.3 -11.75 1.3 -11.85 1.3 -25.9 1.35 -26.35 1.35 -26.65 1.35 -30.35 1.3 -42.15 1.4 -49.3 1.45 -49.45 1.45 -49.65 1.5 -49.8 1.55 -49.8 1.7 -49.9 1.9 -49.8 2.0 -49.6" fill="#333333" fill-rule="evenodd" stroke="none"/>
    <path d="M-4.7 -48.7 L-4.8 -48.6 -4.95 -48.6 -5.2 -48.65 -5.45 -48.75 -5.8 -48.95 -5.9 -49.05 -5.95 -49.1 -6.0 -49.2 -6.0 -49.3 -6.0 -49.4 -5.95 -49.5 -5.95 -49.6 -5.85 -49.65 -5.75 -49.75 -5.55 -49.95 -5.35 -49.95 -5.1 -50.0 -4.95 -50.0 6.8 -50.0 7.05 -49.95 7.2 -49.85 7.3 -49.75 7.35 -49.7 7.4 -49.6 7.4 -49.5 7.4 -49.4 7.4 -49.3 7.35 -49.2 7.3 -49.1 7.25 -49.0 7.15 -48.95 7.0 -48.85 6.8 -48.85 -4.55 -48.75 -4.7 -48.7" fill="#333333" fill-rule="evenodd" stroke="none"/>
    <path d="M-6.15 45.4 L-6.1 45.3 -6.1 45.25 -6.05 45.15 -5.95 45.15 -5.85 45.1 -5.7 45.15 -5.6 45.25 -5.55 45.35 -5.55 45.45 -5.55 45.55 -5.55 45.65 -5.6 45.75 -5.6 45.8 -5.7 45.9 -5.9 46.1 -6.05 46.2 -6.3 46.5 -6.6 46.85 -6.75 46.95 -6.8 47.05 -6.9 47.15 -7.05 47.25 -7.25 47.3 -7.35 47.4 -7.55 47.4 -7.6 47.3 -7.55 47.2 -7.5 47.1 -7.45 47.0 -7.1 46.45 -6.7 46.0 -6.3 45.6 -6.2 45.5 -6.15 45.4" fill="#333333" fill-rule="evenodd" stroke="none"/>
    <path d="M-6.25 48.75 L-6.2 48.65 -6.2 48.6 -6.15 48.5 -6.1 48.4 -6.1 48.3 -6.1 48.2 -5.95 48.0 -5.8 47.75 -5.7 47.55 -5.7 47.45 -5.7 47.35 -5.65 47.25 -5.65 47.15 -5.6 47.1 -5.55 47.1 -5.45 47.05 -5.25 47.1 -5.2 47.2 -5.2 47.3 -5.2 47.4 -5.15 47.5 -5.15 47.65 -5.25 47.85 -5.4 48.15 -5.5 48.35 -5.5 48.4 -5.55 48.5 -5.55 48.6 -5.6 48.7 -5.7 48.8 -5.75 48.85 -5.8 48.9 -6.0 48.95 -6.15 48.95 -6.25 48.85 -6.25 48.75" fill="#333333" fill-rule="evenodd" stroke="none"/>
    <path d="M-3.2 46.85 L-3.15 46.95 -3.15 47.05 -3.2 47.15 -3.25 47.25 -3.3 47.6 -3.25 48.1 -3.25 48.55 -3.25 48.65 -3.3 48.75 -3.35 48.85 -3.35 48.95 -3.35 49.0 -3.4 49.1 -3.45 49.15 -3.55 49.2 -3.7 49.15 -3.75 49.05 -3.75 48.95 -3.75 48.85 -3.8 48.75 -3.85 48.7 -3.85 48.3 -3.85 47.75 -3.85 47.2 -3.8 47.1 -3.75 47.0 -3.7 46.9 -3.65 46.8 -3.55 46.75 -3.45 46.75 -3.45 46.7 -3.25 46.75 -3.2 46.85" fill="#333333" fill-rule="evenodd" stroke="none"/>
    <path d="M3.4 48.1 L3.45 48.1 3.55 48.2 3.6 48.25 3.65 48.35 3.7 48.95 3.7 49.6 3.65 50.15 3.7 50.25 3.75 50.35 3.75 50.45 3.75 50.5 3.75 50.6 3.7 50.7 3.65 50.7 3.55 50.75 3.35 50.7 3.15 50.6 3.1 50.5 3.1 49.95 3.1 49.3 3.1 48.7 3.1 48.6 3.1 48.5 3.1 48.45 3.15 48.35 3.2 48.25 3.25 48.15 3.3 48.1 3.4 48.1" fill="#333333" fill-rule="evenodd" stroke="none"/>
    <path d="M5.15 47.0 L5.3 47.05 5.65 47.6 6.05 48.3 6.3 48.75 6.25 48.85 6.2 48.95 6.15 49.0 6.05 49.1 5.9 49.0 5.9 48.95 5.8 48.85 5.75 48.75 5.65 48.65 5.65 48.55 5.6 48.45 5.55 48.35 5.5 48.25 5.3 48.0 5.05 47.65 4.9 47.25 4.9 47.15 5.0 47.05 5.15 47.0" fill="#333333" fill-rule="evenodd" stroke="none"/>
    <path d="M5.8 45.5 L5.95 45.55 6.15 45.75 6.4 45.95 6.65 46.1 6.75 46.2 6.9 46.2 7.05 46.25 7.2 46.3 7.25 46.4 7.3 46.5 7.25 46.6 7.2 46.7 7.05 46.75 6.9 46.7 6.75 46.7 6.65 46.65 6.45 46.6 6.05 46.3 5.7 46.05 5.55 45.75 5.55 45.65 5.65 45.55 5.8 45.5" fill="#333333" fill-rule="evenodd" stroke="none"/>
    <path d="M5.15 33.1 L5.2 33.0 5.25 33.0 5.4 32.95 5.55 33.0 5.6 33.1 5.6 33.2 5.6 33.25 5.55 33.35 5.5 33.45 5.45 33.55 5.25 33.65 5.0 33.85 4.75 34.0 4.65 34.1 4.55 34.1 4.3 34.15 4.15 34.2 4.05 34.15 4.1 34.05 4.25 33.95 4.3 33.85 4.35 33.75 4.45 33.7 4.6 33.6 4.85 33.4 4.9 33.3 5.1 33.2 5.15 33.1" fill="#333333" fill-rule="evenodd" stroke="none"/>
    <path d="M6.1 34.85 L6.25 34.95 6.25 35.0 6.35 35.1 6.3 35.2 6.2 35.3 6.05 35.3 5.95 35.2 5.9 35.15 5.85 35.15 5.65 35.2 5.5 35.2 5.65 35.05 5.95 34.9 6.05 34.85 6.1 34.85" fill="#333333" fill-rule="evenodd" stroke="none"/>
    <path d="M6.5 34.75 L6.55 34.85 6.55 34.95 6.5 35.05 6.5 35.1 6.4 35.15 6.3 35.2 5.9 35.2 5.75 35.15 5.7 35.1 5.45 35.05 5.35 34.95 5.35 34.85 5.4 34.75 5.55 34.7 5.7 34.65 5.75 34.65 5.9 34.65 5.9 34.6 6.3 34.6 6.45 34.7 6.5 34.75" fill="#333333" fill-rule="evenodd" stroke="none"/>
    <path d="M1.6 29.75 L1.65 29.85 1.7 29.9 1.7 30.0 1.75 30.1 1.8 30.2 1.8 30.3 1.85 30.4 1.85 30.5 1.85 30.6 1.8 30.65 1.8 30.75 1.75 30.85 1.65 30.9 1.45 30.95 -0.45 31.0 -0.65 30.9 -0.75 30.8 -0.8 30.75 -0.85 30.65 -0.85 30.55 -0.85 30.45 -0.9 30.35 -0.95 30.25 -0.95 30.15 -0.95 30.1 -0.95 30.0 -0.85 29.9 -0.75 29.85 1.15 29.6 1.3 29.6 1.5 29.65 1.6 29.75" fill="#333333" fill-rule="evenodd" stroke="none"/>
    <path d="M4.2 31.3 L3.65 31.05 3.4 30.85 3.3 30.75 3.25 30.65 3.2 30.6 3.15 30.5 3.15 30.4 3.15 30.3 3.15 30.2 3.15 30.1 3.1 30.0 3.1 29.9 3.05 29.85 3.1 29.75 3.1 29.65 3.05 29.55 3.0 29.45 3.0 29.35 3.05 29.25 3.2 29.25 3.25 29.25 3.4 29.35 3.4 29.4 3.5 29.5 3.55 29.6 3.55 29.7 3.55 29.8 3.6 29.9 3.65 30.0 3.7 30.1 3.7 30.15 3.75 30.25 3.75 30.35 4.05 30.65 4.4 31.05 4.4 31.1 4.4 31.2 4.3 31.25 4.2 31.3" fill="#333333" fill-rule="evenodd" stroke="none"/>
    <path d="M6.55 30.0 L6.65 30.15 6.75 30.35 6.75 30.45 6.7 30.55 6.55 30.6 6.45 30.6 6.25 30.5 6.15 30.4 5.95 30.35 5.75 30.3 5.65 30.2 5.55 30.1 5.4 30.0 5.2 29.9 5.05 29.85 4.9 29.65 4.75 29.45 4.6 29.25 4.55 29.15 4.55 29.1 4.6 29.0 4.65 28.9 4.7 28.85 4.8 28.8 5.0 28.85 5.05 28.95 5.25 29.15 5.3 29.25 5.4 29.35 5.6 29.4 5.8 29.5 5.95 29.6 6.05 29.7 6.1 29.75 6.2 29.8 6.3 29.85 6.5 29.9 6.55 30.0" fill="#333333" fill-rule="evenodd" stroke="none"/>
    <path d="M4.4 26.85 L4.55 26.8 4.95 26.95 5.3 27.1 5.65 27.15 5.75 27.25 6.0 27.35 6.15 27.45 6.25 27.55 6.3 27.65 6.25 27.75 6.15 27.8 6.05 27.9 5.95 27.9 5.35 27.7 4.65 27.4 4.5 27.35 4.4 27.25 4.35 27.15 4.3 27.05 4.35 26.95 4.4 26.85" fill="#333333" fill-rule="evenodd" stroke="none"/>
    <path d="M0.7 24.2 L1.45 24.25 1.65 24.3 1.9 24.4 1.95 24.5 2.0 24.6 2.05 24.65 2.0 24.75 2.0 24.85 1.9 24.95 1.7 25.0 1.55 25.0 1.45 24.95 0.7 24.95 -0.8 24.9 -1.0 24.85 -1.1 24.75 -1.15 24.65 -1.15 24.6 -1.15 24.5 -1.1 24.4 -1.0 24.3 -0.8 24.25 -0.55 24.2 0.7 24.2" fill="#333333" fill-rule="evenodd" stroke="none"/>
    <path d="M-0.7 19.55 L0.95 19.6 1.55 19.65 1.7 19.75 1.75 19.85 1.75 19.9 1.75 20.0 1.7 20.1 1.55 20.2 1.3 20.25 -1.0 20.2 -1.1 20.1 -1.15 20.0 -1.15 19.9 -1.15 19.85 -1.1 19.75 -1.0 19.65 -0.85 19.6 -0.7 19.55" fill="#333333" fill-rule="evenodd" stroke="none"/>
    <path d="M0.7 15.2 L1.45 15.25 1.65 15.3 1.9 15.4 1.95 15.5 2.0 15.6 2.05 15.65 2.0 15.75 2.0 15.85 1.9 15.95 1.7 16.0 1.55 16.0 1.45 15.95 0.7 15.95 -0.8 15.9 -1.0 15.85 -1.1 15.75 -1.15 15.65 -1.15 15.6 -1.15 15.5 -1.1 15.4 -1.0 15.3 -0.8 15.25 -0.55 15.2 0.7 15.2" fill="#333333" fill-rule="evenodd" stroke="none"/>
    <path d="M-0.7 10.55 L0.95 10.6 1.55 10.65 1.7 10.75 1.75 10.85 1.75 10.9 1.75 11.0 1.7 11.1 1.55 11.2 1.3 11.25 -1.0 11.2 -1.1 11.1 -1.15 11.0 -1.15 10.9 -1.15 10.85 -1.1 10.75 -1.0 10.65 -0.85 10.6 -0.7 10.55" fill="#333333" fill-rule="evenodd" stroke="none"/>
    <path d="M0.15 -7.65 L-0.6 -7.7 -0.8 -7.75 -1.05 -7.85 -1.1 -7.95 -1.15 -8.05 -1.2 -8.1 -1.15 -8.2 -1.15 -8.3 -1.05 -8.4 -0.85 -8.45 -0.7 -8.45 -0.6 -8.4 0.15 -8.4 1.65 -8.35 1.85 -8.3 1.95 -8.2 2.0 -8.1 2.0 -8.05 2.0 -7.95 1.95 -7.85 1.85 -7.75 1.65 -7.7 1.4 -7.65 0.15 -7.65" fill="#333333" fill-rule="evenodd" stroke="none"/>
    <path d="M1.55 -3.0 L-0.1 -3.05 -0.7 -3.1 -0.85 -3.2 -0.9 -3.3 -0.9 -3.35 -0.9 -3.45 -0.85 -3.55 -0.7 -3.65 -0.45 -3.7 1.85 -3.65 1.95 -3.55 2.0 -3.45 2.0 -3.35 2.0 -3.3 1.95 -3.2 1.85 -3.1 1.7 -3.05 1.55 -3.0" fill="#333333" fill-rule="evenodd" stroke="none"/>
    <path d="M0.15 1.35 L-0.6 1.3 -0.8 1.25 -1.05 1.15 -1.1 1.05 -1.15 0.95 -1.2 0.9 -1.15 0.8 -1.15 0.7 -1.05 0.6 -0.85 0.55 -0.7 0.55 -0.6 0.6 0.15 0.6 1.65 0.65 1.85 0.7 1.95 0.8 2.0 0.9 2.0 0.95 2.0 1.05 1.95 1.15 1.85 1.25 1.65 1.3 1.4 1.35 0.15 1.35" fill="#333333" fill-rule="evenodd" stroke="none"/>
    <path d="M1.55 6.0 L-0.1 5.95 -0.7 5.9 -0.85 5.8 -0.9 5.7 -0.9 5.65 -0.9 5.55 -0.85 5.45 -0.7 5.35 -0.45 5.3 1.85 5.35 1.95 5.45 2.0 5.55 2.0 5.65 2.0 5.7 1.95 5.8 1.85 5.9 1.7 5.95 1.55 6.0" fill="#333333" fill-rule="evenodd" stroke="none"/>
    <path d="M0.7 -13.3 L1.45 -13.25 1.65 -13.2 1.9 -13.1 1.95 -13.0 2.0 -12.9 2.05 -12.85 2.0 -12.75 2.0 -12.65 1.9 -12.55 1.7 -12.5 1.55 -12.5 1.45 -12.55 0.7 -12.55 -0.8 -12.6 -1.0 -12.65 -1.1 -12.75 -1.15 -12.85 -1.15 -12.9 -1.15 -13.0 -1.1 -13.1 -1.0 -13.2 -0.8 -13.25 -0.55 -13.3 0.7 -13.3" fill="#333333" fill-rule="evenodd" stroke="none"/>
    <path d="M-0.7 -17.95 L0.95 -17.9 1.55 -17.85 1.7 -17.75 1.75 -17.65 1.75 -17.6 1.75 -17.5 1.7 -17.4 1.55 -17.3 1.3 -17.25 -1.0 -17.3 -1.1 -17.4 -1.15 -17.5 -1.15 -17.6 -1.15 -17.65 -1.1 -17.75 -1.0 -17.85 -0.85 -17.9 -0.7 -17.95" fill="#333333" fill-rule="evenodd" stroke="none"/>
    <path d="M0.7 -22.3 L1.45 -22.25 1.65 -22.2 1.9 -22.1 1.95 -22.0 2.0 -21.9 2.05 -21.85 2.0 -21.75 2.0 -21.65 1.9 -21.55 1.7 -21.5 1.55 -21.5 1.45 -21.55 0.7 -21.55 -0.8 -21.6 -1.0 -21.65 -1.1 -21.75 -1.15 -21.85 -1.15 -21.9 -1.15 -22.0 -1.1 -22.1 -1.0 -22.2 -0.8 -22.25 -0.55 -22.3 0.7 -22.3" fill="#333333" fill-rule="evenodd" stroke="none"/>
    <path d="M-0.7 -26.95 L0.95 -26.9 1.55 -26.85 1.7 -26.75 1.75 -26.65 1.75 -26.6 1.75 -26.5 1.7 -26.4 1.55 -26.3 1.3 -26.25 -1.0 -26.3 -1.1 -26.4 -1.15 -26.5 -1.15 -26.6 -1.15 -26.65 -1.1 -26.75 -1.0 -26.85 -0.85 -26.9 -0.7 -26.95" fill="#333333" fill-rule="evenodd" stroke="none"/>
    <path d="M0.15 -45.15 L-0.6 -45.2 -0.8 -45.25 -1.05 -45.35 -1.1 -45.45 -1.15 -45.55 -1.2 -45.6 -1.15 -45.7 -1.15 -45.8 -1.05 -45.9 -0.85 -45.95 -0.7 -45.95 -0.6 -45.9 0.15 -45.9 1.65 -45.85 1.85 -45.8 1.95 -45.7 2.0 -45.6 2.0 -45.55 2.0 -45.45 1.95 -45.35 1.85 -45.25 1.65 -45.2 1.4 -45.15 0.15 -45.15" fill="#333333" fill-rule="evenodd" stroke="none"/>
    <path d="M1.55 -40.5 L-0.1 -40.55 -0.7 -40.6 -0.85 -40.7 -0.9 -40.8 -0.9 -40.85 -0.9 -40.95 -0.85 -41.05 -0.7 -41.15 -0.45 -41.2 1.85 -41.15 1.95 -41.05 2.0 -40.95 2.0 -40.85 2.0 -40.8 1.95 -40.7 1.85 -40.6 1.7 -40.55 1.55 -40.5" fill="#333333" fill-rule="evenodd" stroke="none"/>
    <path d="M0.15 -36.15 L-0.6 -36.2 -0.8 -36.25 -1.05 -36.35 -1.1 -36.45 -1.15 -36.55 -1.2 -36.6 -1.15 -36.7 -1.15 -36.8 -1.05 -36.9 -0.85 -36.95 -0.7 -36.95 -0.6 -36.9 0.15 -36.9 1.65 -36.85 1.85 -36.8 1.95 -36.7 2.0 -36.6 2.0 -36.55 2.0 -36.45 1.95 -36.35 1.85 -36.25 1.65 -36.2 1.4 -36.15 0.15 -36.15" fill="#333333" fill-rule="evenodd" stroke="none"/>
    <path d="M1.55 -31.5 L-0.1 -31.55 -0.7 -31.6 -0.85 -31.7 -0.9 -31.8 -0.9 -31.85 -0.9 -31.95 -0.85 -32.05 -0.7 -32.15 -0.45 -32.2 1.85 -32.15 1.95 -32.05 2.0 -31.95 2.0 -31.85 2.0 -31.8 1.95 -31.7 1.85 -31.6 1.7 -31.55 1.55 -31.5" fill="#333333" fill-rule="evenodd" stroke="none"/>
  </g>
</svg>
