<?xml version="1.0" encoding="UTF-8" standalone="no"?>
<svg xmlns:xlink="http://www.w3.org/1999/xlink" height="158.95px" width="444.0px" xmlns="http://www.w3.org/2000/svg">
  <g transform="matrix(1.0, 0.0, 0.0, 1.0, -8.0, -8.0)">
    <path d="M388.0 111.0 L388.0 67.0 300.0 67.0 300.0 111.0 310.0 111.0 310.0 150.0 326.0 150.0 326.0 166.95 136.0 166.95 136.0 124.1 126.25 116.95 126.25 88.2 121.6 85.1 121.6 64.0 74.4 64.0 74.4 85.1 69.75 88.2 69.75 116.95 60.0 124.1 60.0 142.0 8.0 142.0 8.0 8.0 452.0 8.0 452.0 166.95 362.0 166.95 362.0 150.0 378.0 150.0 378.0 111.0 388.0 111.0" fill="#0033ff" fill-opacity="0.49411765" fill-rule="evenodd" stroke="none"/>
  </g>
</svg>
