<?xml version="1.0" encoding="UTF-8" standalone="no"?>
<svg xmlns:xlink="http://www.w3.org/1999/xlink" height="57.15px" width="141.75px" xmlns="http://www.w3.org/2000/svg">
  <g transform="matrix(1.0, 0.0, 0.0, 1.0, 72.7, 4.15)">
    <path d="M65.65 6.05 L17.05 30.25 35.0 44.85 Q-12.15 58.15 -58.45 45.05 L-53.05 40.85 Q-41.3 27.25 -42.4 10.6 L-25.6 2.15 65.65 2.15 65.65 6.05" fill="#d1bc9c" fill-rule="evenodd" stroke="none"/>
    <path d="M55.35 -3.55 L57.85 -2.6 57.95 -2.3 58.05 -1.8 Q58.95 1.1 63.15 0.5 66.3 0.1 69.05 1.6 L69.05 2.1 69.05 2.6 69.05 4.1 69.05 6.1 69.05 6.6 69.05 7.15 69.05 7.65 Q64.85 11.5 58.75 12.85 L26.45 20.25 25.6 20.75 24.75 21.2 Q22.55 22.05 20.5 23.25 L18.8 23.7 15.45 24.5 15.4 24.8 15.4 25.2 Q23.15 24.7 29.85 27.95 L29.85 28.45 29.85 29.5 29.85 32.5 29.85 33.0 29.85 33.5 29.85 34.5 29.85 36.05 29.75 36.45 29.0 37.0 Q27.75 37.55 26.55 38.25 L26.45 38.55 26.45 39.05 26.35 39.4 23.85 40.95 22.2 41.6 23.9 42.0 Q30.2 41.95 35.85 44.25 L36.55 44.9 36.8 45.2 37.55 46.3 38.4 47.3 Q11.55 51.55 -15.25 46.95 L-16.1 46.65 -16.1 46.1 -16.1 45.1 -16.1 43.1 -16.1 42.1 -16.1 41.6 -16.1 41.1 -16.1 40.05 -16.1 39.55 -15.25 39.15 -13.65 38.35 -12.8 37.5 -12.7 37.05 -11.85 36.55 -11.0 36.3 Q-8.9 36.2 -8.9 34.5 L-8.45 34.0 -8.45 33.5 -8.45 31.0 -8.45 29.5 -8.45 29.0 -8.45 28.45 -8.45 25.95 -8.45 22.95 -8.35 22.6 Q-4.1 20.35 0.9 19.7 L1.75 19.4 Q7.0 16.45 13.65 14.65 21.05 12.7 28.05 9.6 30.95 8.3 34.15 7.8 L35.0 7.3 38.4 5.3 41.8 3.25 42.5 2.65 42.65 2.25 42.65 1.75 42.6 1.25 Q42.3 0.05 42.95 -0.7 L44.35 -2.3 44.45 -2.6 Q45.6 -3.3 46.95 -3.55 L51.15 -4.15 55.35 -3.55" fill="#663333" fill-opacity="0.2" fill-rule="evenodd" stroke="none"/>
    <path d="M11.1 45.1 Q-28.5 46.85 -66.35 41.75 L-66.25 41.35 Q-65.95 41.0 -65.45 40.85 L-62.95 40.35 -58.7 40.0 -54.45 39.8 -54.45 39.75 -19.5 40.55 14.4 39.35 Q26.0 38.2 36.7 41.6 30.3 44.3 23.1 44.6 L11.1 45.1" fill="#663333" fill-opacity="0.2" fill-rule="evenodd" stroke="none"/>
    <path d="M62.2 9.3 L63.1 9.65 63.5 9.9 Q62.25 10.65 60.5 11.1 L56.25 12.15 55.4 12.65 54.55 13.2 52.85 13.6 46.05 14.7 45.2 15.2 44.3 15.65 42.65 16.2 42.5 16.55 40.9 17.6 39.25 18.3 38.35 18.65 36.7 19.25 27.45 20.7 21.4 21.1 Q18.4 20.95 18.8 23.1 18.35 26.55 24.1 25.3 29.15 24.2 34.05 25.95 35.0 26.3 35.85 26.8 21.95 32.6 4.1 29.65 L-19.5 25.3 -20.35 24.8 -21.25 24.25 -21.95 23.65 -22.1 23.25 -22.1 22.75 -22.1 21.75 -22.1 21.25 -22.1 20.75 -22.1 20.25 -22.1 19.75 -22.1 18.7 -22.1 18.2 -22.1 17.7 -22.1 17.2 Q-16.35 13.85 -9.2 12.05 14.1 6.15 37.55 11.65 42.75 11.7 47.8 10.35 52.95 9.05 57.95 8.8 L62.2 9.3" fill="#663333" fill-opacity="0.2" fill-rule="evenodd" stroke="none"/>
    <path d="M39.85 -1.65 Q43.75 -1.0 47.45 0.3 50.8 1.5 47.6 3.0 47.6 4.0 47.1 4.35 38.05 10.4 26.05 13.95 18.95 16.05 12.3 19.15 10.75 19.65 10.0 20.65 L10.0 21.15 Q10.0 21.65 9.45 22.35 L9.25 23.2 9.25 24.2 9.0 25.0 7.8 26.35 Q6.95 27.2 6.5 28.35 6.15 29.25 6.15 30.25 L5.95 30.9 Q4.65 31.75 3.1 32.3 L1.55 32.85 0.05 33.25 Q-25.3 36.65 -50.7 33.95 -56.55 33.35 -55.2 27.9 L-55.2 26.9 -54.95 26.05 -54.05 24.65 Q-53.65 23.85 -54.15 23.5 -56.3 21.95 -56.65 19.8 L-56.75 18.8 -56.75 17.8 -56.5 17.0 -55.35 15.65 Q-54.45 14.75 -54.0 13.65 -53.65 12.75 -53.65 11.75 -53.65 11.25 -53.45 11.1 -52.15 10.25 -50.6 9.8 -46.75 8.7 -43.2 7.15 -42.15 6.7 -41.4 5.7 -10.9 0.55 19.95 -2.1 L30.7 -2.7 39.85 -1.65" fill="#663333" fill-opacity="0.2" fill-rule="evenodd" stroke="none"/>
    <path d="M48.35 11.3 L48.35 11.8 48.35 12.3 48.35 12.8 48.35 13.3 47.55 13.75 Q43.15 15.7 38.55 17.3 L33.8 18.45 31.45 18.85 30.7 19.35 Q27.5 21.35 23.8 22.3 21.75 22.85 19.85 23.6 L14.6 25.4 14.5 25.8 13.8 26.35 12.3 26.9 10.75 27.4 10.0 27.95 9.25 28.45 Q-23.4 31.45 -56.0 28.45 -60.25 28.1 -63.65 25.9 L-63.65 25.4 -63.65 24.9 -63.65 24.4 -63.65 23.4 -63.65 22.4 -63.65 21.85 -63.65 21.35 -63.65 20.85 -63.5 20.5 -62.05 19.5 -57.5 17.3 -56.75 16.85 -55.2 15.8 -54.45 15.3 Q-47.55 13.0 -40.5 11.35 -31.5 9.2 -22.25 8.8 -15.25 8.5 -8.4 10.1 L-6.1 9.95 -5.35 9.45 -4.6 8.95 -3.8 8.45 -3.05 7.9 -1.55 7.4 Q1.1 6.35 3.85 6.1 L9.25 5.75 14.55 6.3 Q16.5 6.6 18.4 7.2 L19.2 7.6 Q19.6 7.85 19.85 8.2 L20.05 8.4 23.05 9.55 25.35 10.1 31.5 9.35 Q39.9 7.8 47.55 10.85 L48.35 11.3" fill="#663333" fill-opacity="0.2" fill-rule="evenodd" stroke="none"/>
    <path d="M66.85 10.65 Q64.45 12.1 61.15 13.5 L58.7 14.65 Q50.3 18.7 45.55 22.5 L42.8 24.55 Q34.65 31.85 40.1 39.5 L40.1 41.0 43.5 41.0 46.9 41.25 47.6 41.65 48.95 42.05 48.25 42.35 47.6 42.75 46.9 43.0 46.2 43.15 43.5 43.3 38.05 43.45 Q37.4 43.7 37.4 44.1 L46.9 44.1 Q50.3 44.65 53.0 45.75 L48.25 48.3 Q29.25 51.7 5.45 52.7 -29.2 53.9 -61.15 50.35 L-61.8 50.35 -68.6 49.4 -72.0 49.0 -72.0 48.3 Q-72.7 47.65 -72.7 46.95 -72.0 45.9 -70.65 45.05 -68.6 44.1 -68.6 43.45 L-63.2 24.55 -61.8 20.05 Q-60.8 17.3 -58.65 14.65 L-57.05 12.85 Q-56.05 11.8 -56.15 10.65 L-36.5 10.65 Q-36.45 11.85 -38.05 13.1 L-39.65 14.65 Q-41.0 16.15 -41.45 17.6 -42.8 21.0 -43.5 24.55 -44.85 27.8 -44.85 31.35 -45.5 37.6 -50.25 43.95 -51.65 45.2 -50.95 46.7 L-50.95 47.8 Q-23.1 49.3 6.15 48.75 18.35 48.3 19.05 46.95 L20.4 45.6 Q15.65 45.05 15.65 44.25 15.65 43.85 14.95 43.55 L-12.9 43.3 -17.0 43.0 -18.35 42.6 -19.0 42.2 -19.0 41.95 -18.35 41.5 -17.0 41.25 -15.6 41.1 -12.9 41.0 1.35 41.0 1.35 40.85 12.9 40.85 Q11.55 38.95 10.9 37.15 4.75 37.15 -0.65 37.3 L-5.4 37.05 -7.45 36.65 Q-8.15 36.35 -8.8 36.2 L-8.8 35.8 -8.15 35.4 -6.8 35.15 -3.4 34.85 -1.35 34.75 -0.65 34.75 9.55 34.75 Q7.5 31.75 6.15 28.9 5.45 26.7 7.5 24.55 10.9 20.05 23.8 15.7 L26.9 14.65 Q30.1 13.55 33.3 12.55 L39.6 10.65 66.85 10.65" fill="#333333" fill-rule="evenodd" stroke="none"/>
  </g>
</svg>
