<?xml version="1.0" encoding="UTF-8" standalone="no"?>
<svg xmlns:xlink="http://www.w3.org/1999/xlink" height="40.1px" width="42.95px" xmlns="http://www.w3.org/2000/svg">
  <g transform="matrix(1.0, 0.0, 0.0, 1.0, 20.35, 19.35)">
    <path d="M16.0 17.45 L16.0 18.2 16.0 19.5 16.0 20.6 Q13.75 20.9 11.3 20.6 L-0.7 20.55 -8.85 20.5 Q-11.45 20.95 -13.85 19.75 -15.75 18.8 -16.75 17.0 L-16.75 16.45 Q-15.25 15.55 -14.15 16.95 -8.5 18.4 -2.65 17.85 L7.25 17.55 14.1 17.45 Q15.45 17.25 16.0 16.15 L16.0 17.45" fill="#333333" fill-opacity="0.101960786" fill-rule="evenodd" stroke="none"/>
    <path d="M22.5 4.45 L22.6 6.75 22.5 10.3 22.5 9.85 22.5 4.45 M10.25 16.45 Q13.6 16.8 16.0 15.25 L16.0 17.45 16.0 18.2 16.0 19.25 14.05 19.7 10.4 19.95 0.15 20.1 -9.95 19.05 -10.0 17.8 Q-6.3 16.35 -2.35 16.8 L6.5 16.85 6.5 16.45 10.25 16.45" fill="#333333" fill-opacity="0.101960786" fill-rule="evenodd" stroke="none"/>
    <path d="M-11.35 -10.45 L-11.45 -10.45 -11.55 -10.4 -11.7 -10.3 -11.75 -10.25 -11.85 -10.15 -11.9 -10.1 -11.95 -10.0 -11.95 -9.95 -12.0 -9.55 -12.0 -8.75 -12.0 -8.05 -11.95 -7.75 -11.9 -7.7 -11.9 -7.6 -11.9 -7.55 -11.85 -7.45 -11.85 -7.4 -11.8 -7.3 -11.8 -7.25 -11.75 -7.2 -11.7 -7.1 -11.65 -7.0 -11.6 -6.85 -11.6 -6.8 -11.55 -6.7 -11.55 -6.65 -11.5 -6.55 -11.5 -6.5 -11.45 -6.4 -11.4 -6.35 -11.4 -6.25 -11.3 -6.15 -11.3 -6.05 -11.25 -6.0 -11.2 -5.9 -11.2 -5.8 -11.15 -5.75 -11.1 -5.6 -10.9 -5.35 -10.75 -5.2 -10.6 -5.05 -10.55 -5.0 -10.55 -4.9 -10.5 -4.85 -10.4 -4.7 -9.55 -4.15 -8.6 -4.15 -8.55 -4.2 -8.4 -4.25 -8.35 -4.35 -8.25 -4.4 -8.2 -4.5 -8.15 -4.55 -8.15 -4.65 -8.1 -4.7 -8.1 -4.8 -8.1 -4.85 -8.1 -4.95 -8.1 -5.05 -8.15 -5.1 -8.15 -5.15 -8.2 -5.25 -8.25 -5.3 -8.25 -5.4 -8.3 -5.45 -8.35 -5.55 -8.35 -5.6 -8.55 -5.85 -8.8 -6.15 -9.0 -6.3 -9.2 -6.45 -9.3 -6.5 -9.4 -6.6 -9.55 -6.65 -9.6 -6.75 -9.7 -6.8 -9.8 -6.9 -9.95 -7.0 -9.95 -7.05 -10.0 -7.1 -10.0 -7.2 -10.0 -7.25 -10.0 -7.35 -9.95 -7.45 -9.9 -7.5 -9.9 -7.95 -9.9 -8.45 -9.9 -8.75 -9.9 -9.0 -9.9 -9.05 -9.95 -9.15 -9.95 -9.2 -10.0 -9.3 -10.0 -9.35 -10.0 -9.5 -10.0 -9.65 -10.0 -9.75 -10.05 -9.9 -10.05 -9.95 -10.1 -10.05 -10.15 -10.1 -10.2 -10.2 -10.35 -10.35 -10.45 -10.4 -10.65 -10.45 -10.9 -10.5 -11.2 -10.5 -11.35 -10.45 M1.15 -4.05 L1.0 -4.1 0.85 -4.05 0.75 -4.05 0.65 -4.05 0.4 -3.85 0.25 -3.65 0.2 -3.6 0.15 -3.5 0.15 -3.45 0.15 -3.35 -0.3 -2.85 -0.6 -2.5 -0.7 -2.25 -0.75 -2.15 -0.75 -2.1 -0.8 -2.0 -0.8 -1.95 -0.85 -1.85 -0.9 -1.8 -0.95 -1.7 -0.95 -1.65 -1.0 -1.6 -1.0 -1.5 -1.0 -1.4 -1.0 -1.35 -1.0 -1.25 -0.95 -1.2 -0.95 -1.1 -0.9 -1.05 -0.85 -0.95 -0.8 -0.9 -0.75 -0.8 -0.65 -0.75 -0.5 -0.7 -0.35 -0.65 -0.2 -0.6 -0.05 -0.65 0.1 -0.65 0.2 -0.75 0.5 -1.05 0.6 -1.2 0.7 -1.3 0.75 -1.4 0.75 -1.45 0.8 -1.55 0.85 -1.6 0.9 -1.7 1.05 -1.85 1.1 -1.9 1.15 -2.0 1.2 -2.05 1.25 -2.15 1.6 -2.5 1.7 -2.75 1.8 -2.9 1.8 -3.15 1.8 -3.25 1.8 -3.45 1.75 -3.5 1.75 -3.55 1.7 -3.65 1.6 -3.8 1.55 -3.85 1.45 -3.95 1.35 -4.0 1.15 -4.05 M17.4 -17.95 L17.95 -17.35 18.35 -17.05 18.35 16.0 17.95 16.25 15.95 17.5 15.75 17.7 15.55 17.9 15.1 18.1 14.75 18.25 14.35 18.45 14.05 18.65 13.95 18.75 -13.65 18.75 -15.9 17.65 -18.75 16.05 -18.75 -15.4 -18.05 -16.2 -17.6 -16.75 -17.3 -17.1 -17.0 -17.3 -16.7 -17.5 -16.5 -17.65 -16.15 -17.85 -15.75 -18.05 -15.45 -18.25 -15.35 -18.35 16.95 -18.35 17.4 -17.95" fill="#ffffff" fill-rule="evenodd" stroke="none"/>
    <path d="M-20.2 -4.85 L-20.1 -5.05 -19.95 -5.25 -19.85 -5.45 -19.6 -5.8 -19.55 -6.2 -19.55 -6.75 -19.55 -7.3 -19.5 -7.7 -19.45 -8.05 -19.35 -8.25 -19.3 -8.45 -19.25 -8.65 -19.2 -8.8 -19.1 -9.0 -18.95 -9.2 -18.7 -9.35 -18.4 -9.55 -18.2 -9.8 -18.2 -9.95 -18.3 -10.1 -18.55 -10.45 -19.0 -10.9 -19.3 -11.25 -19.3 -11.45 -19.25 -11.6 -19.2 -11.8 -19.15 -12.0 -18.95 -12.2 -18.65 -12.35 -18.1 -12.45 -18.1 -12.5 -17.65 -12.35 -17.35 -12.2 -17.15 -12.0 -16.95 -11.8 -16.8 -11.6 -16.65 -11.55 -16.35 -11.5 -16.1 -11.5 -15.6 -11.35 -15.3 -11.2 -15.1 -11.0 -15.0 -10.85 -14.75 -10.4 -14.55 -10.05 -14.45 -9.85 -14.4 -9.7 -14.35 -9.5 -14.3 -9.3 -14.15 -9.1 -14.05 -8.95 -13.9 -8.75 -13.85 -8.55 -13.8 -8.35 -13.8 -8.2 -13.65 -8.0 -13.6 -7.8 -13.55 -7.6 -13.45 -7.45 -13.45 -7.25 -13.45 -7.05 -13.45 -6.9 -13.4 -6.7 -13.35 -6.3 -13.35 -6.15 -13.4 -5.95 -13.45 -5.75 -13.55 -5.55 -13.65 -5.35 -13.8 -5.2 -14.05 -5.0 -14.3 -4.85 -14.5 -4.85 -15.35 -4.7 -15.7 -4.5 -15.75 -4.3 -15.85 -4.1 -15.9 -3.95 -16.1 -3.75 -16.35 -3.6 -16.7 -3.35 -16.9 -3.2 -17.1 -3.0 -17.15 -2.8 -17.15 -2.6 -17.15 -2.45 -17.15 -2.25 -17.2 -1.85 -17.3 -1.7 -17.4 -1.5 -17.55 -1.3 -17.7 -1.1 -18.1 -0.95 -18.6 -0.8 -19.15 -0.95 -19.45 -1.15 -19.7 -1.3 -19.85 -1.5 -19.95 -1.7 -20.0 -1.85 -20.0 -2.05 -20.05 -2.25 -20.05 -2.45 -20.05 -2.6 -20.05 -2.8 -20.15 -3.0 -20.3 -3.2 -20.3 -3.35 -20.35 -3.55 -20.35 -3.95 -20.35 -4.3 -20.3 -4.7 -20.2 -4.85" fill="#a6b8bf" fill-rule="evenodd" stroke="none"/>
    <path d="M-9.65 -13.3 L-9.55 -13.1 -9.45 -12.95 -9.4 -12.75 -9.35 -12.55 -9.35 -12.35 -9.35 -12.2 -9.4 -12.0 -9.45 -11.8 -9.45 -11.6 -9.45 -11.45 -9.45 -11.25 -9.5 -11.05 -9.55 -10.7 -9.6 -10.5 -9.75 -10.3 -9.9 -10.1 -10.1 -9.95 -10.35 -9.75 -10.85 -9.6 -11.2 -9.7 -11.35 -9.75 -11.85 -9.85 -12.3 -9.95 -12.55 -10.15 -12.7 -10.35 -12.8 -10.5 -12.8 -10.7 -12.75 -10.85 -12.75 -11.05 -12.7 -11.25 -12.7 -11.45 -12.65 -11.6 -12.55 -11.8 -12.5 -12.0 -12.45 -12.2 -12.4 -12.35 -12.35 -12.55 -12.35 -12.75 -12.35 -12.95 -12.3 -13.1 -12.2 -13.3 -12.1 -13.5 -11.9 -13.7 -11.65 -13.85 -11.1 -13.95 -11.1 -14.0 -10.6 -13.85 -10.25 -13.7 -9.9 -13.5 -9.65 -13.3" fill="#a6b8bf" fill-rule="evenodd" stroke="none"/>
    <path d="M6.7 16.9 L6.85 17.05 6.9 17.25 6.95 17.45 7.05 17.65 7.0 17.8 6.95 18.0 6.9 18.2 6.85 18.4 6.7 18.55 6.6 18.75 6.35 18.95 6.05 19.05 5.65 19.1 5.15 19.15 4.6 19.0 3.65 18.9 2.9 18.95 2.35 19.15 2.05 19.25 1.65 19.3 0.4 19.3 -0.15 19.2 -0.45 19.0 -0.65 18.8 -0.8 18.65 -2.6 18.6 -5.1 18.65 -5.65 18.5 -5.95 18.3 -6.1 18.25 -6.45 18.25 -6.85 18.4 -7.1 18.3 -7.45 18.2 -7.9 18.0 -8.2 17.8 -8.3 17.6 -8.35 17.45 -8.25 17.25 -8.15 17.15 -8.1 17.05 -7.85 17.0 -7.4 17.15 -6.95 17.15 -6.8 16.95 -6.65 16.75 -6.5 16.55 -6.4 16.35 -6.4 16.2 -6.45 16.0 -6.45 15.8 -6.45 15.65 -6.45 15.45 -6.4 15.25 -6.2 15.05 -5.85 14.7 -5.35 14.35 -4.95 14.15 -4.7 14.05 -4.45 14.0 -4.1 13.95 -3.2 14.3 -2.35 14.6 -1.4 14.8 -1.2 14.75 -0.85 14.7 0.15 14.7 0.65 14.8 0.95 15.0 1.15 15.2 1.3 15.4 1.35 15.55 1.4 15.75 1.45 15.95 1.45 16.15 1.45 16.3 1.5 16.45 1.7 16.5 2.1 16.3 3.65 16.15 4.9 16.15 5.4 16.25 5.7 16.35 6.15 16.5 6.55 16.7 6.7 16.9" fill="#a6b8bf" fill-rule="evenodd" stroke="none"/>
    <path d="M14.65 -18.8 L15.15 -18.7 15.45 -18.5 15.65 -18.3 15.8 -18.1 15.85 -17.95 15.9 -17.75 15.95 -17.55 15.95 -17.35 15.95 -17.2 15.9 -17.0 15.85 -16.8 15.8 -16.6 15.65 -16.45 15.5 -16.25 15.25 -15.9 14.95 -15.5 14.65 -15.3 14.15 -15.2 13.8 -15.1 13.4 -14.95 13.1 -14.75 12.65 -14.45 12.5 -14.4 12.15 -14.3 11.8 -14.4 11.4 -14.5 11.15 -14.7 10.95 -14.9 10.85 -15.05 10.8 -15.25 10.7 -15.45 10.65 -15.6 10.4 -16.0 9.75 -16.75 9.1 -17.7 8.85 -17.85 8.85 -18.05 8.95 -18.25 9.3 -18.45 9.65 -18.55 10.05 -18.45 10.35 -18.25 10.65 -18.25 10.85 -18.45 11.1 -18.6 11.65 -18.75 12.65 -18.75 13.15 -18.6 13.95 -18.6 14.3 -18.75 14.65 -18.8" fill="#a6b8bf" fill-rule="evenodd" stroke="none"/>
    <path d="M12.4 -12.7 L13.05 -12.85 13.15 -13.0 13.2 -13.2 13.3 -13.35 13.45 -13.55 13.65 -13.75 13.85 -13.85 14.05 -13.9 14.4 -13.95 14.4 -14.0 14.9 -13.85 15.2 -13.7 15.4 -13.5 15.5 -13.3 15.6 -13.1 15.65 -12.75 15.65 -12.0 15.65 -11.05 15.6 -10.7 15.5 -10.5 15.4 -10.3 15.3 -10.1 15.0 -9.95 14.8 -9.8 14.4 -9.75 13.85 -9.85 13.65 -10.0 13.5 -10.05 13.15 -10.15 12.65 -10.25 12.4 -10.45 12.2 -10.6 12.05 -10.8 11.85 -11.0 11.8 -11.2 11.8 -11.35 11.8 -11.55 11.8 -11.75 11.85 -11.95 11.9 -12.1 12.0 -12.3 12.15 -12.5 12.4 -12.7" fill="#a6b8bf" fill-rule="evenodd" stroke="none"/>
    <path d="M6.15 13.55 L6.35 13.7 6.4 13.75 6.85 13.9 7.1 14.05 7.2 14.25 7.35 14.45 7.4 14.65 7.4 14.8 7.3 15.2 7.2 15.4 7.15 15.55 7.05 15.75 6.95 15.95 6.85 16.15 6.6 16.3 6.15 16.5 5.95 16.65 5.65 16.7 4.4 16.65 3.95 16.5 3.7 16.3 3.6 16.1 3.55 15.95 3.55 15.75 3.6 15.4 3.6 15.2 3.6 15.0 3.6 14.8 3.7 14.65 4.05 14.25 4.2 14.15 4.35 14.05 4.7 13.95 4.9 13.75 5.15 13.55 5.65 13.45 6.15 13.55" fill="#a6b8bf" fill-rule="evenodd" stroke="none"/>
    <path d="M-15.45 -14.3 L-15.15 -14.15 -15.0 -14.05 -14.7 -14.05 -14.45 -14.05 -13.95 -13.9 -13.7 -13.9 -13.8 -14.1 -14.05 -14.3 -14.3 -14.5 -14.45 -14.65 -14.55 -14.85 -14.65 -15.05 -14.7 -15.25 -14.7 -15.4 -14.7 -15.6 -14.7 -15.8 -14.65 -16.0 -14.55 -16.15 -14.4 -16.35 -14.2 -16.55 -14.0 -16.65 -13.8 -16.7 -13.45 -16.75 -13.45 -16.8 -12.95 -16.65 -12.65 -16.5 -12.25 -16.1 -11.75 -15.5 -11.35 -15.0 -11.2 -14.8 -11.1 -14.6 -11.0 -14.4 -10.95 -14.25 -10.9 -14.05 -10.8 -13.85 -10.75 -13.65 -10.8 -13.5 -10.8 -13.3 -10.9 -12.95 -11.0 -12.55 -11.15 -12.15 -11.25 -12.0 -11.35 -11.8 -11.45 -11.6 -11.55 -11.4 -11.85 -11.25 -12.05 -11.1 -12.45 -11.05 -13.05 -11.0 -13.3 -10.85 -13.7 -10.8 -14.2 -10.8 -14.75 -10.9 -15.0 -11.1 -15.2 -11.3 -15.4 -11.5 -15.55 -11.65 -15.65 -11.85 -15.7 -12.05 -15.95 -12.25 -16.1 -12.45 -16.2 -12.6 -16.2 -12.8 -16.2 -13.0 -16.15 -13.15 -16.05 -13.35 -15.95 -13.55 -15.95 -13.75 -15.95 -13.9 -15.8 -14.1 -15.7 -14.2 -15.45 -14.3" fill="#663300" fill-opacity="0.2" fill-rule="evenodd" stroke="none"/>
    <path d="M-15.45 -13.6 L-14.65 -13.45 -14.5 -13.45 -13.7 -13.35 -13.2 -13.25 -12.95 -13.05 -12.85 -12.85 -12.75 -12.7 -12.65 -12.5 -12.65 -12.3 -12.65 -11.95 -12.7 -11.75 -12.7 -11.55 -12.7 -11.35 -12.7 -11.15 -12.75 -11.0 -12.9 -10.8 -13.0 -10.6 -13.15 -10.4 -13.4 -10.25 -13.5 -10.05 -13.55 -9.85 -13.55 -9.65 -13.7 -9.5 -13.85 -9.3 -14.0 -9.1 -14.2 -9.0 -14.35 -8.95 -15.45 -8.85 -15.95 -9.0 -16.25 -9.15 -16.45 -9.35 -16.55 -9.55 -16.65 -10.1 -16.65 -10.3 -16.55 -10.65 -16.5 -11.4 -16.5 -12.0 -16.45 -12.15 -16.4 -12.35 -16.3 -12.55 -16.3 -12.75 -16.25 -12.9 -16.2 -13.1 -16.05 -13.3 -15.9 -13.5 -15.45 -13.6" fill="#663300" fill-opacity="0.2" fill-rule="evenodd" stroke="none"/>
    <path d="M10.55 10.95 L10.8 10.95 11.35 11.1 11.65 11.25 11.95 11.45 12.05 11.65 12.15 11.8 12.25 12.0 12.25 12.2 12.3 12.4 12.3 12.6 12.3 12.75 12.35 12.95 12.45 13.15 12.55 13.3 12.75 13.5 12.85 13.65 12.95 13.7 13.25 13.85 13.55 14.0 13.75 14.2 13.95 14.4 14.8 14.45 15.75 14.45 15.95 14.4 16.3 14.35 16.8 14.35 17.3 14.45 17.7 14.65 17.85 14.85 18.0 15.0 18.05 15.2 18.1 15.4 18.2 15.6 18.2 15.75 18.25 15.95 18.2 16.15 18.2 16.35 18.1 16.5 18.0 16.7 17.85 16.9 17.7 17.1 17.3 17.25 16.8 17.4 16.45 17.55 16.05 17.7 12.95 17.95 Q12.35 18.45 11.55 18.5 L8.95 18.25 5.8 18.35 5.25 18.2 5.0 18.1 4.8 18.05 4.45 18.0 4.25 17.95 3.75 17.85 3.55 17.7 2.55 17.65 1.8 17.7 1.35 17.9 1.2 18.1 1.0 18.25 Q0.75 18.45 0.55 18.6 L-0.05 18.95 -0.45 19.0 -0.95 19.0 -1.95 18.85 -2.2 18.65 -2.3 18.45 -2.4 18.25 -2.45 18.05 -2.45 17.9 -2.45 17.7 -2.35 17.5 -2.25 17.35 -2.05 17.15 -1.8 17.0 -1.45 16.95 -0.95 16.85 -0.5 16.75 -0.3 16.6 -0.15 16.4 0.0 16.2 0.2 16.0 0.35 15.85 0.7 15.65 1.05 15.45 2.55 15.25 3.45 15.15 3.45 14.95 3.45 14.75 3.45 14.6 3.45 14.4 3.45 14.0 3.5 13.85 3.55 13.65 3.65 13.45 3.8 13.25 4.2 12.9 4.75 12.35 5.0 12.2 5.2 12.15 5.55 12.1 6.55 12.1 7.05 12.2 7.3 12.25 7.75 12.25 8.45 11.95 9.35 11.45 10.0 11.1 10.2 11.05 10.55 11.0 10.55 10.95" fill="#663300" fill-opacity="0.2" fill-rule="evenodd" stroke="none"/>
    <path d="M14.2 7.85 L14.35 8.0 14.5 8.2 14.6 8.4 14.7 8.6 14.7 8.75 14.75 8.95 14.75 9.15 14.75 9.35 14.75 9.7 14.7 10.45 14.7 10.85 14.6 11.0 14.5 11.2 14.35 11.4 14.2 11.6 14.05 11.75 14.15 11.95 14.25 12.15 14.3 12.3 14.45 12.5 14.45 12.7 14.45 12.9 14.5 13.1 14.5 13.25 14.5 13.45 14.55 13.65 14.55 13.8 14.5 14.0 14.45 14.2 14.35 14.4 14.25 14.6 14.1 14.75 13.85 14.95 13.6 15.1 13.4 15.15 13.05 15.2 12.1 15.35 11.9 15.5 11.7 15.7 11.5 15.9 11.15 16.05 10.95 16.2 10.55 16.25 9.55 16.25 9.05 16.2 8.5 16.1 8.1 15.9 7.8 15.7 7.6 15.5 7.45 15.3 7.3 15.15 7.2 14.95 7.15 14.75 7.1 14.6 7.1 14.4 7.1 14.2 7.1 14.0 7.15 13.65 7.2 13.25 7.25 13.1 7.3 12.9 7.35 12.7 7.45 12.5 7.5 12.35 7.55 12.15 7.75 11.95 7.95 11.75 8.1 11.6 8.45 11.4 8.6 11.2 8.65 11.0 8.65 10.8 8.7 10.65 8.8 10.45 8.95 10.25 9.2 10.1 9.45 9.9 9.45 9.7 9.5 9.5 9.55 9.35 9.6 9.15 9.65 8.95 9.7 8.75 9.75 8.6 9.85 8.4 10.0 8.2 10.1 8.0 10.35 7.85 10.7 7.7 10.95 7.65 11.2 7.6 11.55 7.55 11.55 7.5 11.8 7.5 12.55 7.5 13.3 7.5 13.8 7.65 14.2 7.85" fill="#663300" fill-opacity="0.2" fill-rule="evenodd" stroke="none"/>
    <path d="M-12.95 12.15 L-12.45 12.25 -12.15 12.45 -11.95 12.65 -11.8 12.85 -11.7 13.0 -11.65 13.2 -11.55 13.4 -11.45 13.6 -11.35 13.75 -11.1 14.15 -10.8 14.7 -10.7 14.9 -10.65 15.1 -10.65 15.25 -10.6 15.65 -10.55 16.2 -10.55 16.6 -10.65 16.75 -10.7 16.95 -10.75 17.15 -10.9 17.3 -11.05 17.5 -11.45 17.7 -11.55 17.9 -11.65 18.05 -11.75 18.25 -11.9 18.45 -12.0 18.65 -12.35 18.8 -12.55 18.95 -12.8 19.0 -13.2 19.1 -13.75 18.95 -14.05 18.75 -14.25 18.6 -14.45 18.4 -14.65 18.2 -14.7 18.0 -14.75 17.85 -14.8 17.65 -14.8 17.45 -14.8 17.25 -14.8 17.1 -14.8 16.9 -14.95 16.8 -15.45 16.65 -15.75 16.45 -16.05 16.25 -16.25 16.05 -16.4 15.9 -16.5 15.7 -16.55 15.5 -16.6 15.3 -16.65 15.15 -16.6 14.95 -16.55 14.75 -16.5 14.6 -16.4 14.4 -16.35 14.2 -16.25 14.0 -16.25 13.85 -16.25 13.65 -16.15 13.45 -15.8 13.45 -15.55 13.65 -15.3 13.85 -15.2 14.0 -15.05 14.2 -15.0 14.35 -14.7 14.5 -14.6 14.45 -14.45 14.25 -14.4 14.1 -14.45 13.9 -14.5 13.7 -14.5 13.5 -14.5 13.35 -14.5 13.15 -14.45 12.95 -14.3 12.75 -14.2 12.6 -14.0 12.4 -13.75 12.25 -13.55 12.2 -13.2 12.15 -12.95 12.15" fill="#663300" fill-opacity="0.2" fill-rule="evenodd" stroke="none"/>
    <path d="M-14.5 2.6 L-14.1 3.1 -13.7 3.5 -13.55 3.7 -13.45 3.9 -13.4 4.1 -13.35 4.45 -13.3 4.65 -13.3 4.85 -13.3 5.0 -13.35 5.2 -13.4 5.6 -13.45 5.75 -13.55 5.95 -13.7 6.15 -13.9 6.35 -13.85 6.5 -13.8 6.7 -13.8 6.9 -13.8 7.1 -13.8 7.25 -13.9 7.45 -13.95 7.65 -14.0 7.85 -14.15 8.0 -14.25 8.2 -14.3 8.4 -14.4 8.6 -14.45 8.75 -14.55 8.95 -14.7 9.15 -14.95 9.3 -15.3 9.5 -15.35 9.7 -15.35 9.9 -15.3 10.1 -15.4 10.25 -15.45 10.45 -15.5 10.65 -15.65 10.8 -15.8 11.0 -16.2 11.2 -16.7 11.35 -16.95 11.35 -17.5 11.2 -17.8 11.0 -18.0 10.85 -18.2 10.65 -18.4 10.45 -18.45 10.25 -18.5 10.1 -18.55 9.9 -18.55 9.5 -18.55 9.35 -18.55 9.15 -18.55 8.95 -18.55 8.75 -18.55 8.4 -18.5 8.2 -18.45 8.0 -18.5 7.1 -18.5 6.15 -18.55 4.85 -18.45 3.35 -18.5 3.2 -18.75 2.95 -18.95 2.75 -19.05 2.55 -19.15 2.4 -19.15 2.2 -19.1 2.0 -19.05 1.85 -18.95 1.65 -18.75 1.45 -18.5 1.35 -18.2 1.3 -17.7 1.25 -17.7 1.2 -17.35 1.3 -17.2 1.35 -16.95 1.35 -16.45 1.35 -15.95 1.45 -15.55 1.65 -14.9 2.2 -14.5 2.6" fill="#663300" fill-opacity="0.2" fill-rule="evenodd" stroke="none"/>
    <path d="M-12.25 1.85 L-12.0 2.0 -11.9 2.2 -11.75 2.4 -11.7 2.6 -11.7 2.75 -11.65 2.95 -11.5 3.15 -11.45 3.3 -11.3 3.5 -11.3 4.1 -11.25 4.85 -11.25 5.75 -11.25 6.5 -11.2 6.7 -11.15 6.9 -11.15 7.1 -11.2 7.25 -11.25 7.45 -11.4 7.65 -11.65 8.0 -11.9 8.2 -12.15 8.35 -12.35 8.4 -12.7 8.45 -13.25 8.35 -13.65 8.15 -13.8 7.95 -13.95 7.85 -14.0 7.8 -14.95 7.65 -15.5 7.6 -15.9 7.4 -16.05 7.2 -16.2 7.0 -16.3 6.8 -16.4 6.65 -16.45 6.45 -16.45 6.25 -16.45 5.9 -16.4 5.5 -16.4 5.15 -16.4 4.95 -16.25 4.6 -16.1 4.0 -16.05 3.65 -15.8 2.9 -15.7 2.7 -15.65 2.5 -15.6 2.3 -15.55 2.15 -15.45 1.95 -15.3 1.75 -15.05 1.6 -14.75 1.4 -14.2 1.3 -14.2 1.25 -13.95 1.25 -13.45 1.4 -13.1 1.6 -12.9 1.7 -12.7 1.7 -12.25 1.85" fill="#663300" fill-opacity="0.2" fill-rule="evenodd" stroke="none"/>
    <path d="M13.95 -15.6 L14.2 -15.8 14.45 -15.9 14.8 -15.95 14.8 -16.0 15.05 -16.0 15.55 -15.85 15.85 -15.65 16.25 -15.3 16.6 -14.9 17.15 -14.35 17.3 -14.15 17.35 -14.0 17.4 -13.8 17.5 -13.4 17.55 -13.05 17.55 -12.7 17.5 -12.5 17.4 -12.3 17.3 -12.1 17.2 -11.9 16.9 -11.75 16.55 -11.55 16.35 -11.4 16.15 -11.35 15.8 -11.3 15.35 -11.15 15.2 -11.0 15.05 -10.8 14.8 -10.6 14.3 -10.5 13.8 -10.6 13.55 -10.8 13.35 -11.0 13.3 -11.15 13.2 -11.35 13.1 -11.55 13.0 -11.7 12.8 -11.9 12.55 -12.1 12.45 -12.3 12.3 -12.5 12.2 -12.65 11.95 -12.85 11.75 -13.05 11.7 -13.25 11.65 -13.45 11.6 -13.6 11.6 -13.8 11.6 -14.0 11.7 -14.15 11.75 -14.35 11.8 -14.55 12.0 -14.75 12.25 -14.85 12.55 -14.9 13.0 -14.8 13.15 -14.6 13.3 -14.4 13.45 -14.25 13.6 -14.15 13.65 -14.3 13.65 -14.5 13.6 -14.65 13.6 -14.85 13.6 -15.05 13.7 -15.25 13.8 -15.4 13.95 -15.6" fill="#663300" fill-opacity="0.2" fill-rule="evenodd" stroke="none"/>
    <path d="M12.45 -13.65 L12.5 -13.85 12.6 -14.05 12.8 -14.25 13.05 -14.35 13.2 -14.4 13.55 -14.45 13.55 -14.5 14.05 -14.5 14.55 -14.35 14.85 -14.15 15.0 -14.0 15.1 -13.8 15.25 -13.6 15.35 -13.4 15.45 -13.25 15.45 -13.05 15.45 -12.95 15.8 -12.8 16.2 -12.6 16.35 -12.4 16.5 -12.25 16.55 -12.05 16.6 -11.85 16.7 -11.65 16.7 -11.5 16.7 -11.3 16.7 -11.1 16.7 -10.9 16.6 -10.75 16.55 -10.55 16.5 -10.35 16.35 -10.2 16.2 -10.0 16.2 -9.8 16.15 -9.6 16.15 -9.25 16.1 -8.85 16.1 -8.5 16.05 -8.3 16.0 -8.1 15.95 -7.9 15.8 -7.75 15.6 -7.55 15.35 -7.35 15.2 -7.25 14.8 -7.15 14.3 -7.3 14.0 -7.5 13.8 -7.7 13.7 -7.85 13.55 -8.05 13.5 -8.25 13.5 -8.4 13.5 -8.6 13.5 -9.0 13.5 -9.15 13.45 -9.35 13.35 -9.55 13.25 -9.7 13.0 -9.95 12.55 -10.3 Q12.25 -10.5 12.1 -10.85 L12.05 -11.05 12.05 -11.25 12.05 -11.8 12.1 -12.35 12.2 -12.9 12.25 -13.1 12.35 -13.3 12.4 -13.5 12.45 -13.65" fill="#663300" fill-opacity="0.2" fill-rule="evenodd" stroke="none"/>
    <path d="M-0.1 -4.45 L0.05 -4.05 0.3 -3.7 0.65 -3.3 1.05 -2.9 1.6 -2.15 2.05 -1.45 2.4 -1.05 2.65 -0.7 2.8 -0.3 2.9 0.05 3.05 0.45 3.05 0.8 3.05 1.2 3.05 1.45 3.05 1.5 Q6.5 1.7 9.6 3.35 L11.4 4.55 11.65 4.95 11.9 5.3 12.05 5.7 12.15 6.05 12.3 6.45 12.55 7.2 12.8 7.95 12.8 8.3 12.8 8.7 12.8 9.05 12.9 9.8 12.9 10.95 12.8 11.3 12.65 11.7 12.65 12.0 13.05 12.45 13.65 12.8 13.9 13.2 14.05 13.55 14.25 13.95 14.4 14.3 14.4 14.7 14.4 15.05 14.3 15.45 14.05 15.85 13.9 16.2 13.65 16.55 13.05 16.95 12.55 17.2 11.8 17.25 6.3 17.95 -8.7 17.95 -9.85 17.7 -10.35 17.45 -13.6 17.55 -13.95 17.8 -14.7 17.95 -15.7 17.7 -16.2 17.3 -16.55 16.95 -16.8 16.55 -16.95 16.2 -17.0 15.8 -17.1 15.45 -17.35 15.05 -17.8 14.3 -17.95 13.95 -18.05 13.55 -18.1 13.2 -18.1 12.8 -18.1 12.05 -18.1 10.95 -18.1 10.55 -17.95 10.2 -17.7 9.85 -17.35 9.45 -16.6 8.7 -16.2 8.3 -16.1 7.95 -16.05 7.55 -16.0 6.8 -15.95 5.3 -15.9 4.2 -15.85 3.8 -15.7 3.45 -15.45 3.1 -15.05 2.7 -14.6 2.3 -13.95 2.1 -13.2 1.8 -12.95 1.45 -12.95 1.05 -12.95 0.7 -12.95 0.3 -12.95 -0.05 -12.95 -0.45 -12.8 -0.8 -12.6 -1.2 -12.3 -1.55 -11.95 -1.95 -11.35 -2.3 -10.2 -2.55 -9.35 -2.8 -9.2 -3.15 -8.95 -3.55 -8.95 -3.95 -8.85 -4.3 -8.6 -4.7 -8.3 -5.05 -7.95 -5.4 -7.1 -6.2 -6.45 -6.45 -5.7 -6.5 -5.7 -6.55 -2.7 -6.55 -1.7 -6.3 -0.95 -5.95 -0.6 -5.55 -0.35 -5.2 -0.2 -4.8 -0.1 -4.45" fill="#333333" fill-opacity="0.101960786" fill-rule="evenodd" stroke="none"/>
    <path d="M4.7 -3.65 L5.15 -3.95 6.3 -4.1 9.15 -4.25 10.3 -4.3 10.8 -4.3 11.3 -4.3 12.4 -4.05 13.05 -3.65 13.55 -3.3 13.8 -2.95 14.15 -2.55 14.4 -2.2 14.65 -1.8 14.9 -1.45 15.05 -1.05 15.15 -0.7 15.3 -0.3 15.5 0.1 15.65 0.45 15.75 0.8 15.8 1.2 15.8 1.55 15.8 1.95 15.8 2.3 15.8 2.7 15.9 2.95 16.9 3.45 17.55 3.85 18.05 4.2 18.45 4.95 18.65 5.35 18.8 5.7 19.0 6.1 19.15 6.45 19.25 6.8 19.3 7.2 19.3 7.55 19.55 7.95 19.8 8.3 19.9 8.7 20.05 9.05 20.15 9.45 20.15 10.2 20.15 10.55 20.25 11.65 20.35 12.8 20.15 13.95 20.0 14.3 19.8 14.7 19.55 15.05 19.3 15.45 18.65 15.8 18.05 16.05 17.4 16.3 16.3 17.1 15.8 17.45 15.15 17.8 14.55 18.05 -7.2 18.05 -8.35 17.8 -9.2 17.8 -10.2 18.05 -11.7 18.05 -12.85 17.8 -13.95 17.05 -14.3 16.65 -14.75 15.9 -15.45 14.8 -15.55 14.05 -15.6 13.7 -15.6 13.3 -15.55 12.95 -15.45 12.2 -15.3 11.85 -15.0 11.45 -14.7 11.05 -14.05 10.7 -13.45 10.45 -12.7 10.3 -10.95 10.4 -10.2 10.3 -8.95 10.05 -8.6 9.7 -8.2 9.3 -7.85 8.95 -7.2 8.55 -6.7 8.2 -6.2 7.8 -6.05 7.45 -5.8 7.1 -5.45 6.7 -5.15 6.3 -4.95 5.95 -4.95 5.55 -4.8 5.2 -4.6 4.8 -4.3 4.45 -3.95 4.05 -3.35 3.7 -2.2 3.45 -1.7 3.45 -0.35 3.3 0.15 3.1 0.55 2.95 1.55 2.7 Q1.85 2.5 2.2 2.35 L3.05 1.95 3.4 1.55 3.4 0.8 3.4 0.45 3.4 -0.3 3.45 -1.45 3.55 -2.2 3.7 -2.55 3.9 -2.95 4.15 -3.3 4.7 -3.65" fill="#663333" fill-opacity="0.101960786" fill-rule="evenodd" stroke="none"/>
    <path d="M-11.7 -7.95 L-10.7 -7.95 -9.7 -7.7 -9.1 -7.3 -8.75 -6.9 -8.45 -6.55 -8.35 -6.2 -8.2 -5.8 -8.1 -5.45 -8.1 -5.05 -8.0 -4.7 -7.75 -4.3 -7.45 -3.95 -7.2 -3.55 -7.1 -3.2 -6.95 -2.8 -6.85 -2.45 -6.85 -2.05 -6.85 -1.7 -6.85 -1.3 -6.85 -0.55 -6.85 0.55 -6.95 0.95 -7.1 1.3 -7.2 1.7 -7.5 2.05 -7.85 2.45 -8.2 2.8 -8.7 3.2 -9.7 3.45 -10.7 3.4 -12.2 3.25 -13.2 3.05 -13.7 2.7 -14.1 2.3 -14.45 1.9 -14.95 1.2 -15.1 0.8 -15.2 0.45 -15.2 0.05 -15.2 -0.3 -15.2 -0.7 -15.1 -1.45 -15.25 -1.8 -15.45 -2.2 -15.6 -2.55 -15.7 -2.95 -15.7 -3.3 -15.7 -3.7 -15.7 -4.05 -15.7 -4.45 -15.55 -4.8 -15.3 -5.15 -14.6 -5.9 -13.65 -7.05 -13.35 -7.45 -12.85 -7.7 -12.45 -7.75 -11.7 -7.85 -11.7 -7.95" fill="#663333" fill-opacity="0.101960786" fill-rule="evenodd" stroke="none"/>
    <path d="M3.3 15.6 L14.8 15.7 16.3 15.85 16.65 16.0 17.0 16.2 17.1 16.4 17.2 16.6 17.25 16.75 17.15 16.95 17.05 17.15 16.8 17.3 16.5 17.5 16.2 17.65 15.8 17.7 14.8 17.75 Q-0.95 18.15 -16.7 17.25 L-17.05 17.15 -17.2 16.95 -17.3 16.75 -17.4 16.55 -17.45 16.4 -17.35 16.2 -17.25 16.1 -17.2 16.0 -16.95 15.95 -16.7 16.05 -16.65 16.1 -15.95 16.05 -14.95 16.0 Q-7.15 15.65 0.55 15.6 L3.3 15.6" fill="#333333" fill-opacity="0.101960786" fill-rule="evenodd" stroke="none"/>
    <path d="M18.1 -17.25 L18.25 -17.05 18.35 -16.85 Q18.75 -11.1 18.8 -5.25 L18.9 6.6 18.55 14.25 18.5 14.45 18.35 14.65 18.25 14.85 18.05 14.95 17.8 15.0 17.45 14.9 17.25 14.7 17.1 14.5 16.8 10.95 16.7 7.2 16.8 4.75 Q16.75 0.65 16.85 -3.5 L17.0 -12.1 17.25 -17.0 17.35 -17.15 17.55 -17.3 17.8 -17.35 18.1 -17.25" fill="#333333" fill-opacity="0.101960786" fill-rule="evenodd" stroke="none"/>
    <path d="M-17.3 -16.3 L-16.65 -16.85 -15.75 -17.25 -13.65 -18.15 -13.4 -18.25 -13.25 -18.3 -12.95 -18.35 -11.95 -18.3 -11.55 -18.15 -11.4 -18.0 -11.25 -17.8 -11.2 -17.6 -11.25 -17.45 -11.3 -17.25 -11.4 -17.05 -11.5 -16.9 -11.65 -16.85 -11.95 -16.8 -12.9 -16.65 -13.35 -16.5 -13.9 -16.3 -14.2 -16.1 -14.9 -15.75 -15.55 -15.35 -15.75 -15.2 -16.6 -14.25 -17.2 -13.3 -17.3 -13.1 -17.55 -12.75 -17.65 -12.55 -17.7 -12.35 -17.8 -12.0 -17.9 -11.6 -17.95 -11.4 -17.95 -11.25 -17.95 -11.05 -17.95 -10.85 -17.95 -10.65 -18.0 -10.5 -18.15 -10.3 -18.15 -10.1 -18.15 -9.9 -18.2 -9.75 -18.35 -9.55 -18.5 -9.35 -18.8 -9.0 -19.15 -9.0 -19.3 -9.2 -19.4 -9.35 -19.55 -9.55 -19.7 -9.75 -19.75 -9.95 -19.8 -10.1 -19.8 -10.3 -19.9 -10.5 -19.95 -10.65 -19.95 -10.85 -19.95 -11.05 -19.95 -11.25 -19.95 -11.6 -19.95 -11.8 -19.9 -12.0 -19.8 -12.35 -19.65 -12.9 -19.4 -13.65 -19.25 -13.85 -18.85 -14.4 -18.2 -15.35 -17.95 -15.75 -17.7 -15.95 -17.3 -16.3" fill="#ffff99" fill-opacity="0.2" fill-rule="evenodd" stroke="none"/>
    <path d="M-15.45 -14.1 L-15.2 -14.05 -15.05 -14.0 -15.0 -14.0 -14.85 -14.05 -14.85 -14.15 -14.75 -14.25 -14.7 -14.35 -14.65 -14.45 -14.75 -14.55 -14.85 -14.6 -14.9 -14.7 -15.0 -14.8 -15.1 -14.9 -15.1 -15.0 -15.1 -15.1 -15.1 -15.2 -15.1 -15.3 -15.1 -15.35 -15.0 -15.45 -14.9 -15.55 -14.8 -15.65 -14.55 -15.7 -14.5 -15.7 -14.3 -15.75 -13.75 -15.6 -13.25 -15.5 -12.7 -15.2 -12.6 -15.1 -12.5 -15.05 -12.4 -14.95 -12.25 -14.85 -12.2 -14.75 -12.15 -14.65 -12.1 -14.55 -12.1 -14.45 -12.05 -14.35 -12.05 -14.3 -12.05 -14.2 -12.05 -14.1 -12.05 -14.0 -12.05 -13.9 -12.05 -13.8 -12.1 -13.7 -12.1 -13.6 -12.2 -13.55 -12.25 -13.45 -12.3 -13.35 -12.45 -13.25 -12.55 -12.95 -12.75 -12.7 -13.1 -12.3 -13.7 -11.85 -13.95 -11.8 -15.0 -11.9 -15.35 -12.0 -15.5 -12.1 -15.7 -12.3 -15.9 -12.45 -16.05 -12.65 -16.15 -12.85 -16.15 -12.95 -16.2 -13.05 -16.2 -13.2 -16.2 -13.3 -16.2 -13.4 -16.15 -13.5 -16.15 -13.7 -16.1 -13.8 -16.0 -13.85 -15.9 -13.95 -15.75 -14.05 -15.45 -14.1" fill="#333333" fill-opacity="0.101960786" fill-rule="evenodd" stroke="none"/>
    <path d="M13.6 -15.4 L13.6 -15.5 13.65 -15.6 13.7 -15.7 13.8 -15.8 14.05 -15.85 14.15 -15.95 14.45 -16.0 14.45 -16.05 14.65 -16.0 14.8 -16.0 15.05 -15.95 15.25 -15.85 15.4 -15.65 15.45 -15.55 15.55 -15.35 15.8 -15.1 15.9 -15.0 15.9 -14.9 15.95 -14.8 16.0 -14.7 16.0 -14.55 16.0 -14.35 16.0 -13.95 16.0 -13.7 16.0 -13.5 15.95 -13.4 15.9 -13.3 15.9 -13.2 15.85 -13.1 15.8 -12.95 15.75 -12.75 15.55 -12.5 Q15.05 -12.1 14.45 -12.1 L13.95 -12.1 13.65 -12.2 13.3 -12.35 13.15 -12.4 12.75 -12.55 12.6 -12.6 12.5 -12.7 12.45 -12.8 12.4 -12.9 12.35 -13.0 12.35 -13.1 12.35 -13.2 12.35 -13.25 12.4 -13.35 12.4 -13.45 12.5 -13.55 12.55 -13.65 12.7 -13.75 12.85 -13.8 13.05 -13.85 13.5 -13.95 13.55 -14.0 13.6 -14.1 13.65 -14.2 13.75 -14.3 13.8 -14.35 13.85 -14.45 13.95 -14.55 14.05 -14.65 14.2 -14.75 14.15 -14.85 14.05 -14.95 13.8 -15.05 13.7 -15.1 13.65 -15.2 13.6 -15.3 13.6 -15.4" fill="#333333" fill-opacity="0.101960786" fill-rule="evenodd" stroke="none"/>
    <path d="M-12.75 13.55 L-12.7 13.65 -12.7 13.7 -12.65 13.8 -12.6 13.9 -12.6 14.0 -12.6 14.1 -12.55 14.3 -12.5 14.45 -12.5 14.75 -12.5 15.15 -12.5 15.4 -12.6 15.5 -12.6 15.6 -12.65 15.7 -12.7 15.8 -12.8 15.95 -12.9 16.05 -13.15 16.35 -13.35 16.55 -13.45 16.6 -14.95 16.65 -15.65 16.4 -15.75 16.3 -15.8 16.2 -15.85 16.1 -15.9 16.0 -15.9 15.9 -15.9 15.8 -15.9 15.7 -15.9 15.65 -15.95 15.65 -16.15 15.55 -16.2 15.45 -16.25 15.4 -16.25 15.3 -16.2 15.2 -16.15 15.15 -16.1 15.1 -15.95 15.05 -15.75 15.0 -15.7 14.95 -15.55 14.85 -15.4 14.8 -15.2 14.75 -15.0 14.75 -14.9 14.7 -14.75 14.65 -14.75 14.55 -14.75 14.45 -14.75 14.4 -14.8 14.3 -14.85 14.2 -14.9 14.1 -14.9 14.0 -14.95 13.9 -14.95 13.8 -14.95 13.7 -14.95 13.55 -14.9 13.45 -14.9 13.35 -14.85 13.25 -14.8 13.15 -14.7 13.05 -14.55 13.0 -14.4 12.9 -14.2 12.9 -14.05 12.9 -13.8 12.95 -13.55 13.05 -13.35 13.15 -13.25 13.2 -13.2 13.25 -12.95 13.35 -12.85 13.45 -12.75 13.55" fill="#333333" fill-opacity="0.101960786" fill-rule="evenodd" stroke="none"/>
    <path d="M16.35 13.15 L16.4 13.25 16.4 13.35 16.4 13.55 16.4 13.9 16.4 14.3 16.45 14.35 16.5 14.45 16.5 14.65 16.5 15.15 16.5 15.7 16.5 15.9 16.45 15.95 16.35 16.15 16.05 16.45 16.0 16.5 13.95 16.65 13.8 16.65 13.5 16.6 13.35 16.5 13.15 16.3 13.0 16.05 12.9 15.95 12.8 15.85 12.6 15.65 12.55 15.45 12.55 15.4 12.6 15.3 12.65 15.2 12.65 15.1 12.75 15.0 12.8 14.95 12.95 14.9 13.1 15.0 13.25 15.05 13.4 15.15 13.45 15.1 13.5 15.0 13.6 14.9 13.75 14.8 14.05 14.75 14.5 14.7 14.6 14.7 14.65 14.6 14.65 14.55 14.65 14.45 14.65 14.35 14.65 14.25 14.65 14.15 14.7 14.05 14.75 13.95 14.8 13.9 14.95 13.8 15.15 13.7 15.15 13.6 15.15 13.5 15.15 13.4 15.15 13.3 15.2 13.2 15.25 13.15 15.3 13.05 15.4 12.95 15.5 12.9 15.6 12.85 15.8 12.85 15.8 12.8 16.05 12.9 16.2 12.95 16.3 13.05 16.35 13.15" fill="#333333" fill-opacity="0.101960786" fill-rule="evenodd" stroke="none"/>
    <path d="M13.8 -17.7 L12.65 -17.65 9.35 -17.7 6.05 -17.8 2.1 -17.65 -0.15 -17.5 -3.75 -17.55 -7.35 -17.55 -10.95 -17.7 -13.95 -17.75 Q-15.75 -17.5 -16.95 -16.25 -18.35 -14.7 -18.45 -12.7 L-18.45 -8.75 -18.35 -5.15 -18.4 -2.15 -18.45 0.75 -18.55 3.75 -18.55 6.65 -18.55 9.65 -18.5 13.3 -18.45 13.6 Q-18.05 15.45 -16.4 16.65 -14.75 17.8 -13.0 17.45 L-9.7 17.6 -6.4 17.65 -2.45 17.5 -0.1 17.45 3.5 17.45 7.15 17.6 10.75 17.65 14.05 17.5 Q15.85 17.15 17.0 15.4 18.2 13.65 18.1 11.7 L18.1 9.15 18.2 5.75 18.15 2.45 18.1 -0.55 18.1 -3.45 18.15 -6.45 18.2 -10.0 18.05 -13.3 Q17.9 -14.8 17.05 -15.85 15.8 -17.3 13.8 -17.7 M18.75 -16.4 Q19.45 -15.25 19.5 -13.65 L19.65 -10.1 19.75 -6.95 19.75 -3.9 19.75 -0.95 19.75 2.05 19.7 5.1 19.7 8.15 19.7 11.2 Q19.75 13.15 19.15 14.95 18.4 17.0 16.65 18.05 15.0 19.15 12.95 19.0 L9.7 19.1 7.5 19.15 5.15 19.15 2.4 19.15 -0.5 19.15 -2.95 19.05 -6.6 18.95 -9.3 19.0 -13.1 19.3 Q-14.8 19.2 -16.25 18.5 -18.3 17.6 -19.25 15.85 -19.85 14.65 -19.9 13.35 L-19.95 10.5 -19.95 8.4 -19.95 5.45 -19.9 2.45 -19.9 -0.55 -20.0 -3.6 -20.0 -6.55 -19.95 -9.55 -20.0 -12.55 Q-20.0 -13.9 -19.5 -15.1 -18.7 -17.1 -17.0 -18.25 -15.4 -19.3 -13.3 -19.05 L-10.05 -19.25 -7.75 -19.25 -4.15 -19.3 -1.2 -19.25 2.6 -19.15 6.25 -19.1 9.05 -19.1 12.8 -19.35 Q14.6 -19.35 16.15 -18.65 17.85 -17.95 18.75 -16.4" fill="#333333" fill-rule="evenodd" stroke="none"/>
    <path d="M-15.55 -14.3 L-15.5 -14.1 Q-15.15 -13.45 -14.25 -13.9 -13.8 -14.05 -13.9 -14.35 -14.0 -14.8 -14.7 -14.95 -15.2 -14.85 -15.3 -15.4 L-15.1 -15.8 Q-13.7 -16.25 -12.85 -14.95 L-13.0 -13.6 -14.05 -12.95 Q-15.35 -12.4 -16.1 -13.35 L-16.2 -13.6 Q-16.35 -14.35 -15.9 -14.85 L-15.85 -14.9 Q-14.9 -14.9 -15.55 -14.3" fill="#333333" fill-rule="evenodd" stroke="none"/>
    <path d="M13.2 -15.4 L13.4 -15.8 Q14.8 -16.25 15.65 -14.95 L15.5 -13.6 14.45 -12.95 Q13.15 -12.4 12.4 -13.35 L12.3 -13.6 Q12.15 -14.35 12.6 -14.85 L12.65 -14.9 Q13.6 -14.9 12.95 -14.3 L13.0 -14.1 Q13.35 -13.45 14.25 -13.9 14.7 -14.05 14.6 -14.35 14.5 -14.8 13.8 -14.95 13.3 -14.85 13.2 -15.4" fill="#333333" fill-rule="evenodd" stroke="none"/>
    <path d="M17.05 10.15 L17.3 10.15 18.15 10.35 19.0 10.5 19.6 10.7 19.7 10.8 19.75 10.9 19.75 10.95 19.7 11.05 19.65 11.15 19.55 11.2 18.9 11.25 17.95 11.0 17.55 10.9 17.5 10.8 17.25 10.75 17.05 10.65 16.95 10.6 16.8 10.55 16.65 10.5 16.6 10.4 16.55 10.3 16.6 10.25 16.65 10.15 16.8 10.15 16.95 10.1 17.05 10.15" fill="#333333" fill-rule="evenodd" stroke="none"/>
    <path d="M17.65 8.55 L17.7 8.65 17.7 8.75 17.65 8.85 17.6 8.95 17.45 9.0 17.2 9.0 17.05 8.95 17.0 8.95 16.55 8.9 16.05 8.9 15.85 8.8 15.8 8.7 15.75 8.65 15.75 8.55 15.8 8.45 15.85 8.4 15.9 8.35 16.05 8.3 16.55 8.3 16.95 8.3 17.15 8.35 17.45 8.4 17.6 8.45 17.65 8.55" fill="#333333" fill-rule="evenodd" stroke="none"/>
    <path d="M-17.95 10.7 L-17.85 10.6 -17.7 10.55 -17.55 10.5 -17.35 10.55 -17.3 10.65 -17.25 10.75 -17.2 10.85 -17.25 10.95 -17.25 11.05 -17.35 11.15 -17.45 11.25 -17.6 11.4 -18.65 11.9 -19.1 12.15 -19.15 12.15 -19.4 12.2 -19.55 12.25 -19.7 12.15 -19.75 12.1 -19.7 12.0 -19.65 11.9 -19.65 11.8 -19.65 11.7 -19.6 11.65 -19.5 11.55 -19.35 11.45 -19.25 11.35 -19.1 11.25 -18.45 10.95 -18.05 10.8 -17.95 10.7" fill="#333333" fill-rule="evenodd" stroke="none"/>
    <path d="M-15.55 14.2 L-15.5 14.4 Q-15.15 15.05 -14.25 14.6 -13.8 14.45 -13.9 14.15 -14.0 13.7 -14.7 13.55 -15.2 13.65 -15.3 13.1 L-15.1 12.7 Q-13.7 12.25 -12.85 13.55 L-13.0 14.9 -14.05 15.55 Q-15.35 16.1 -16.1 15.15 L-16.2 14.9 Q-16.35 14.15 -15.9 13.65 L-15.85 13.6 Q-14.9 13.6 -15.55 14.2" fill="#333333" fill-rule="evenodd" stroke="none"/>
    <path d="M13.2 13.1 L13.4 12.7 Q14.8 12.25 15.65 13.55 L15.5 14.9 14.45 15.55 Q13.15 16.1 12.4 15.15 L12.3 14.9 Q12.15 14.15 12.6 13.65 L12.65 13.6 Q13.6 13.6 12.95 14.2 L13.0 14.4 Q13.35 15.05 14.25 14.6 14.7 14.45 14.6 14.15 14.5 13.7 13.8 13.55 13.3 13.65 13.2 13.1" fill="#333333" fill-rule="evenodd" stroke="none"/>
    <path d="M4.45 -6.55 L5.7 -5.6 6.65 -4.3 7.4 -2.95 7.85 -1.45 8.0 0.05 7.85 1.65 7.4 3.1 6.65 4.45 5.65 5.65 4.45 6.7 3.1 7.4 1.7 7.95 0.05 8.0 -1.5 7.95 -2.95 7.4 -4.3 6.65 -5.55 5.65 -6.55 4.5 -7.3 3.15 -7.75 1.7 -7.9 0.05 -7.75 -1.5 -7.3 -2.95 -6.55 -4.35 -5.55 -5.55 -4.35 -6.6 -3.0 -7.35 -1.5 -7.8 0.05 -7.9 1.7 -7.8 3.15 -7.35 4.45 -6.55" fill="#333333" fill-rule="evenodd" stroke="none"/>
    <path d="M9.1 -9.15 L10.1 -8.15 11.25 -6.55 12.05 -4.9 12.65 -3.1 12.95 -1.25 13.0 0.05 13.0 1.4 12.8 3.25 12.15 5.0 11.55 6.15 10.6 7.7 9.15 9.1 Q8.85 9.3 8.5 9.45 L7.85 9.1 7.6 8.85 Q7.4 8.25 7.85 7.8 9.0 6.6 9.8 5.2 10.65 3.7 10.9 2.25 11.15 0.5 11.0 -1.05 10.85 -2.75 10.25 -4.2 9.6 -5.7 8.55 -6.85 L7.8 -7.8 7.45 -8.5 7.85 -9.1 8.45 -9.5 9.1 -9.15 M12.65 -11.35 L13.7 -10.0 14.6 -8.65 15.4 -7.2 16.05 -5.7 16.5 -4.1 16.8 -2.55 16.95 -0.85 16.95 0.85 16.8 2.6 16.5 4.2 16.05 5.8 15.4 7.3 14.65 8.65 13.7 10.05 12.6 11.3 11.65 12.15 11.3 12.25 10.65 11.9 10.4 11.65 Q10.2 10.95 10.6 10.55 L11.6 9.45 12.5 8.3 13.25 7.1 13.9 5.75 14.35 4.45 14.7 3.0 14.9 1.55 14.95 -0.05 14.9 -1.55 14.7 -3.0 14.35 -4.4 13.9 -5.75 13.3 -7.0 12.5 -8.25 11.55 -9.4 10.4 -10.95 10.25 -11.3 10.6 -12.0 10.9 -12.2 11.25 -12.3 Q12.1 -12.1 12.65 -11.35 M-11.05 -9.9 L-12.05 -8.8 -12.85 -7.55 -13.55 -6.25 -14.05 -5.0 -14.5 -3.55 -14.75 -2.15 -14.95 -0.65 -14.9 0.85 -14.75 2.35 -14.45 3.8 -14.05 5.2 -13.45 6.5 -12.75 7.7 -11.95 8.95 -11.05 10.1 -10.35 11.0 -10.25 11.3 -10.6 12.0 -10.9 12.1 -11.25 12.3 -11.9 11.9 -13.1 10.8 -14.05 9.45 -14.95 8.05 -15.65 6.5 -16.15 5.05 -16.55 3.45 -16.85 1.8 -16.95 0.05 -16.9 -1.65 -16.65 -3.3 -16.2 -4.9 -15.7 -6.45 -15.0 -7.9 -14.1 -9.25 -13.15 -10.65 -11.6 -12.1 -11.3 -12.25 -10.65 -11.85 -10.4 -11.6 -10.3 -11.25 Q-10.5 -10.35 -11.05 -9.9 M-11.95 -4.9 L-11.2 -6.55 -9.6 -8.65 -9.2 -9.15 -8.5 -9.45 -8.1 -9.35 -7.6 -8.8 -7.5 -8.45 -7.85 -7.8 -9.15 -6.0 Q-10.45 -4.3 -10.75 -2.15 L-10.9 -1.05 -10.95 0.05 -10.9 1.2 -10.75 2.25 -10.5 3.3 -10.15 4.25 -9.7 5.25 -9.15 6.15 -8.5 7.0 -7.75 7.8 -7.55 8.2 -7.45 8.5 Q-7.55 9.4 -8.45 9.5 -9.7 8.95 -10.5 7.8 L-11.45 6.25 -11.7 5.65 -11.95 5.05 -12.35 3.9 -12.5 3.35 -12.65 2.7 -12.75 2.1 -12.85 1.45 -12.9 0.8 -12.95 0.1 -12.95 0.05 -12.95 -0.55 -12.85 -1.25 -12.8 -1.85 -12.7 -2.55 -12.55 -3.15 -11.95 -4.9" fill="#333333" fill-rule="evenodd" stroke="none"/>
    <path d="M3.1 -2.25 L3.75 -0.95 3.85 0.55 3.35 1.95 2.35 3.1 1.05 3.75 -0.45 3.85 Q-1.2 3.7 -1.85 3.35 L-3.0 2.4 -3.6 1.0 Q-3.85 0.25 -3.7 -0.5 L-3.2 -1.9 -2.3 -3.0 Q-1.7 -3.45 -0.9 -3.7 L0.55 -3.8 2.0 -3.35 3.1 -2.25 M2.0 -2.1 Q1.35 -2.85 0.45 -2.9 L-0.7 -2.8 Q-1.6 -2.55 -2.2 -1.95 -2.75 -1.2 -2.85 -0.25 -2.95 0.65 -2.55 1.35 -2.2 2.15 -1.45 2.6 L-0.3 2.9 0.8 2.8 Q1.7 2.65 2.2 2.0 L2.8 0.95 Q3.15 0.05 2.95 -0.7 L2.0 -2.1" fill="#ffffff" fill-rule="evenodd" stroke="none"/>
    <path d="M6.65 -6.45 L6.55 -6.35 6.4 -6.1 6.2 -5.9 6.2 -5.8 4.75 -4.25 3.2 -2.7 2.25 -1.75 2.1 -1.7 2.05 -1.65 -1.1 1.4 -4.4 4.7 -6.15 6.75 -6.25 6.75 -6.3 6.8 -6.35 6.85 -6.45 6.85 -6.55 6.85 -6.65 6.95 -6.8 6.9 -7.0 6.8 -7.15 6.55 -7.2 6.4 -7.15 6.25 -7.15 6.15 -7.1 6.1 -7.1 6.0 -7.05 5.95 -3.65 2.85 -0.4 -0.4 1.4 -2.3 1.4 -2.4 1.5 -2.5 2.95 -4.05 4.6 -5.6 5.6 -6.5 5.7 -6.6 5.8 -6.6 5.85 -6.65 5.95 -6.75 6.0 -6.8 6.05 -6.85 6.1 -6.9 6.15 -6.95 6.3 -6.9 6.4 -7.0 Q6.5 -6.9 6.55 -6.95 L6.65 -6.85 6.7 -6.7 6.65 -6.55 6.65 -6.45" fill="#d76c53" fill-rule="evenodd" stroke="none"/>
    <path d="M8.05 -5.75 L8.1 -5.6 8.15 -5.45 8.15 -5.35 8.1 -5.3 8.0 -5.2 7.9 -5.1 7.8 -5.1 7.7 -5.1 7.6 -5.1 7.1 -5.5 6.2 -6.6 6.1 -6.8 6.1 -6.9 6.2 -7.0 6.25 -7.05 6.3 -7.1 6.4 -7.1 6.6 -7.0 7.7 -6.1 8.05 -5.75" fill="#d76c53" fill-rule="evenodd" stroke="none"/>
    <path d="M7.35 -5.95 L7.45 -5.95 7.75 -5.95 7.85 -5.95 7.95 -5.85 8.05 -5.75 8.05 -5.55 8.05 -5.45 8.05 -5.35 7.95 -5.25 7.9 -5.2 7.9 -5.1 7.85 -5.05 7.85 -4.95 7.8 -4.9 7.75 -4.75 7.7 -4.7 7.6 -4.7 7.45 -4.65 7.4 -4.6 7.25 -4.55 3.7 -0.8 -0.15 2.95 -3.9 6.8 Q-4.5 7.5 -5.2 8.0 L-5.3 8.0 -5.4 8.0 -5.55 8.05 -5.65 7.95 -5.85 7.85 -6.0 7.6 -6.05 7.45 -6.05 7.35 -6.0 7.2 -5.95 7.15 -2.4 3.5 1.45 -0.25 5.3 -4.1 6.85 -5.45 7.0 -5.5 7.05 -5.55 7.1 -5.6 7.15 -5.75 7.2 -5.8 7.25 -5.85 7.3 -5.9 7.35 -5.95" fill="#d76c53" fill-rule="evenodd" stroke="none"/>
    <path d="M-5.1 7.35 L-5.0 7.55 -4.95 7.7 -5.0 7.75 -5.0 7.85 -5.1 7.95 -5.2 8.05 -5.3 8.05 -5.4 8.05 -5.5 8.05 -5.6 8.05 -6.85 6.6 -6.85 6.5 -6.85 6.4 -6.75 6.3 -6.65 6.2 -6.6 6.15 -6.35 6.2 -6.25 6.3 -6.05 6.5 -5.75 6.7 -5.1 7.35" fill="#d76c53" fill-rule="evenodd" stroke="none"/>
    <path d="M7.05 -6.05 L7.2 -5.8 7.2 -5.7 7.2 -5.6 7.2 -5.5 7.2 -5.4 7.2 -5.3 7.1 -5.2 7.05 -5.15 7.05 -5.05 3.45 -1.45 -0.35 2.45 -4.15 6.25 -4.7 6.8 -4.8 6.8 -4.85 6.85 -4.9 6.9 -5.05 6.95 -5.15 7.05 -5.25 7.05 -5.4 7.1 -5.45 7.05 -5.65 7.05 -5.9 6.9 -6.0 6.7 -6.0 6.5 -6.1 6.4 -6.05 6.25 -6.05 6.15 -6.0 6.1 -5.95 6.05 -5.85 5.95 -5.85 5.85 -5.8 5.8 -2.2 2.2 1.7 -1.6 5.45 -5.45 6.2 -6.1 6.3 -6.2 6.5 -6.2 6.7 -6.2 6.85 -6.15 Q6.95 -6.05 7.05 -6.05" fill="#d76c53" fill-rule="evenodd" stroke="none"/>
    <path d="M5.65 -7.45 L5.55 -7.35 5.4 -7.1 5.2 -6.9 5.2 -6.8 3.75 -5.25 2.2 -3.7 1.25 -2.75 1.1 -2.7 1.05 -2.65 -2.1 0.4 -5.4 3.7 -7.15 5.75 -7.25 5.75 -7.3 5.8 -7.35 5.85 -7.45 5.85 -7.55 5.85 -7.65 5.95 Q-7.75 5.85 -7.8 5.9 L-8.0 5.8 -8.15 5.55 -8.2 5.4 -8.15 5.25 -8.15 5.15 -8.1 5.1 -8.1 5.0 -8.05 4.95 -4.65 1.85 -1.4 -1.4 0.4 -3.3 0.4 -3.4 0.5 -3.5 1.95 -5.05 3.6 -6.6 4.6 -7.5 4.7 -7.6 4.8 -7.6 4.85 -7.65 4.95 -7.75 5.0 -7.8 5.05 -7.85 5.1 -7.9 5.15 -7.95 5.3 -7.9 5.4 -8.0 Q5.5 -7.9 5.55 -7.95 L5.65 -7.85 5.7 -7.7 5.65 -7.55 5.65 -7.45" fill="#d76c53" fill-rule="evenodd" stroke="none"/>
    <path d="M7.05 -6.75 L7.1 -6.6 7.15 -6.45 7.15 -6.35 7.1 -6.3 7.0 -6.2 6.9 -6.1 6.8 -6.1 6.7 -6.1 6.6 -6.1 6.1 -6.5 5.2 -7.6 5.1 -7.8 5.1 -7.9 5.2 -8.0 5.25 -8.05 5.3 -8.1 5.4 -8.1 5.6 -8.0 6.7 -7.1 7.05 -6.75" fill="#d76c53" fill-rule="evenodd" stroke="none"/>
    <path d="M6.35 -6.95 L6.45 -6.95 6.75 -6.95 6.85 -6.95 6.95 -6.85 7.05 -6.75 7.05 -6.55 7.05 -6.45 7.05 -6.35 6.95 -6.25 6.9 -6.2 6.9 -6.1 6.85 -6.05 6.85 -5.95 6.8 -5.9 6.75 -5.75 6.7 -5.7 6.6 -5.7 6.45 -5.65 6.4 -5.6 6.25 -5.55 2.7 -1.8 -1.15 1.95 -4.9 5.8 -6.2 7.0 -6.3 7.0 -6.4 7.0 -6.55 7.05 -6.65 6.95 -6.85 6.85 -7.0 6.6 -7.05 6.45 -7.05 6.35 -7.0 6.2 -6.95 6.15 -3.4 2.5 0.45 -1.25 4.3 -5.1 5.85 -6.45 6.0 -6.5 6.05 -6.55 6.1 -6.6 6.15 -6.75 6.2 -6.8 6.25 -6.85 6.3 -6.9 6.35 -6.95" fill="#d76c53" fill-rule="evenodd" stroke="none"/>
    <path d="M-6.1 6.35 L-6.0 6.55 -5.95 6.7 -6.0 6.75 -6.0 6.85 -6.1 6.95 -6.2 7.05 -6.3 7.05 -6.4 7.05 -6.5 7.05 -6.6 7.05 -7.85 5.6 -7.85 5.5 -7.85 5.4 -7.75 5.3 -7.65 5.2 -7.6 5.15 -7.35 5.2 -7.25 5.3 -7.05 5.5 -6.75 5.7 -6.1 6.35" fill="#d76c53" fill-rule="evenodd" stroke="none"/>
    <path d="M6.05 -7.05 L6.2 -6.8 6.2 -6.7 6.2 -6.6 6.2 -6.5 6.2 -6.4 6.2 -6.3 6.1 -6.2 6.05 -6.15 6.05 -6.05 2.45 -2.45 -1.35 1.45 -5.15 5.25 -5.7 5.8 -5.8 5.8 -5.85 5.85 -5.9 5.9 -6.05 5.95 -6.15 6.05 -6.25 6.05 -6.4 6.1 -6.45 6.05 -6.65 6.05 -6.9 5.9 -7.0 5.7 -7.0 5.5 -7.1 5.4 -7.05 5.25 -7.05 5.15 -7.0 5.1 -6.95 5.05 -6.85 4.95 -6.85 4.85 -6.8 4.8 -3.2 1.2 0.7 -2.6 4.45 -6.45 5.2 -7.1 5.3 -7.2 5.5 -7.2 5.7 -7.2 5.85 -7.15 Q5.95 -7.05 6.05 -7.05" fill="#d76c53" fill-rule="evenodd" stroke="none"/>
    <path d="M6.45 6.65 L6.35 6.55 6.1 6.4 5.9 6.2 5.8 6.2 4.25 4.75 2.7 3.2 1.75 2.25 1.7 2.1 1.65 2.05 -1.4 -1.1 -4.7 -4.4 -6.75 -6.15 -6.75 -6.25 -6.8 -6.3 -6.85 -6.35 -6.85 -6.45 -6.85 -6.55 -6.95 -6.65 Q-6.85 -6.75 -6.9 -6.8 L-6.8 -7.0 -6.55 -7.15 -6.4 -7.2 -6.25 -7.15 -6.15 -7.15 -6.1 -7.1 -6.0 -7.1 -5.95 -7.05 -2.85 -3.65 0.4 -0.4 2.3 1.4 2.4 1.4 2.5 1.5 4.05 2.95 5.6 4.6 6.5 5.6 6.6 5.7 6.6 5.8 6.65 5.85 6.75 5.95 6.8 6.0 6.85 6.05 6.9 6.1 6.95 6.15 6.9 6.3 7.0 6.4 Q6.9 6.5 6.95 6.55 L6.85 6.65 6.7 6.7 6.55 6.65 6.45 6.65" fill="#d76c53" fill-rule="evenodd" stroke="none"/>
    <path d="M5.75 8.05 L5.6 8.1 5.45 8.15 5.35 8.15 5.3 8.1 5.2 8.0 5.1 7.9 5.1 7.8 5.1 7.7 5.1 7.6 5.5 7.1 6.6 6.2 6.8 6.1 6.9 6.1 7.0 6.2 7.05 6.25 7.1 6.3 7.1 6.4 7.0 6.6 6.1 7.7 5.75 8.05" fill="#d76c53" fill-rule="evenodd" stroke="none"/>
    <path d="M5.95 7.35 L5.95 7.45 5.95 7.75 5.95 7.85 5.85 7.95 5.75 8.05 5.55 8.05 5.45 8.05 5.35 8.05 5.25 7.95 5.2 7.9 5.1 7.9 5.05 7.85 4.95 7.85 4.9 7.8 4.75 7.75 4.7 7.7 4.7 7.6 4.65 7.45 4.6 7.4 4.55 7.25 0.8 3.7 -2.95 -0.15 -6.8 -3.9 -8.0 -5.2 -8.0 -5.3 -8.0 -5.4 -8.05 -5.55 -7.95 -5.65 -7.85 -5.85 -7.6 -6.0 -7.45 -6.05 -7.35 -6.05 -7.2 -6.0 -7.15 -5.95 -3.5 -2.4 0.25 1.45 4.1 5.3 5.45 6.85 5.5 7.0 5.55 7.05 5.6 7.1 5.75 7.15 5.8 7.2 5.85 7.25 5.9 7.3 5.95 7.35" fill="#d76c53" fill-rule="evenodd" stroke="none"/>
    <path d="M-7.35 -5.1 Q-7.45 -5.0 -7.55 -5.0 L-7.7 -4.95 -7.75 -5.0 -7.85 -5.0 -7.95 -5.1 -8.05 -5.2 -8.05 -5.3 -8.05 -5.4 -8.05 -5.5 -8.05 -5.6 -6.6 -6.85 -6.5 -6.85 -6.4 -6.85 -6.3 -6.75 -6.2 -6.65 -6.15 -6.6 -6.2 -6.35 -6.3 -6.25 -6.5 -6.05 -6.7 -5.75 -7.35 -5.1" fill="#d76c53" fill-rule="evenodd" stroke="none"/>
    <path d="M6.05 7.05 L5.8 7.2 5.7 7.2 5.6 7.2 5.5 7.2 5.4 7.2 5.3 7.2 5.2 7.1 5.15 7.05 5.05 7.05 1.45 3.45 -2.45 -0.35 -6.25 -4.15 -6.8 -4.7 -6.8 -4.8 -6.85 -4.85 -6.9 -4.9 -6.95 -5.05 -7.05 -5.15 -7.05 -5.25 -7.1 -5.4 -7.05 -5.45 -7.05 -5.65 -6.9 -5.9 -6.7 -6.0 -6.5 -6.0 -6.4 -6.1 -6.25 -6.05 -6.15 -6.05 -6.1 -6.0 -6.05 -5.95 -5.95 -5.85 -5.85 -5.85 -5.8 -5.8 -2.2 -2.2 1.6 1.7 5.45 5.45 6.1 6.2 6.2 6.3 6.2 6.5 6.2 6.7 6.15 6.85 6.05 7.05" fill="#d76c53" fill-rule="evenodd" stroke="none"/>
    <path d="M7.45 5.65 L7.35 5.55 7.1 5.4 6.9 5.2 6.8 5.2 5.25 3.75 3.7 2.2 2.75 1.25 2.7 1.1 2.65 1.05 -0.4 -2.1 -3.7 -5.4 -5.75 -7.15 -5.75 -7.25 -5.8 -7.3 -5.85 -7.35 -5.85 -7.45 -5.85 -7.55 -5.95 -7.65 Q-5.85 -7.75 -5.9 -7.8 L-5.8 -8.0 -5.55 -8.15 -5.4 -8.2 -5.25 -8.15 -5.15 -8.15 -5.1 -8.1 -5.0 -8.1 -4.95 -8.05 -1.85 -4.65 1.4 -1.4 3.3 0.4 3.4 0.4 3.5 0.5 5.05 1.95 6.6 3.6 7.5 4.6 7.6 4.7 7.6 4.8 7.65 4.85 7.75 4.95 7.8 5.0 7.85 5.05 7.9 5.1 7.95 5.15 7.9 5.3 8.0 5.4 Q7.9 5.5 7.95 5.55 L7.85 5.65 7.7 5.7 7.55 5.65 7.45 5.65" fill="#d76c53" fill-rule="evenodd" stroke="none"/>
    <path d="M6.75 7.05 L6.6 7.1 6.45 7.15 6.35 7.15 6.3 7.1 6.2 7.0 6.1 6.9 6.1 6.8 6.1 6.7 6.1 6.6 6.5 6.1 7.6 5.2 7.8 5.1 7.9 5.1 8.0 5.2 8.05 5.25 8.1 5.3 8.1 5.4 8.0 5.6 7.1 6.7 6.75 7.05" fill="#d76c53" fill-rule="evenodd" stroke="none"/>
    <path d="M6.95 6.35 L6.95 6.45 6.95 6.75 6.95 6.85 6.85 6.95 6.75 7.05 6.55 7.05 6.45 7.05 6.35 7.05 6.25 6.95 6.2 6.9 6.1 6.9 6.05 6.85 5.95 6.85 5.9 6.8 5.75 6.75 5.7 6.7 5.7 6.6 5.65 6.45 5.6 6.4 5.55 6.25 1.8 2.7 -1.95 -1.15 -5.8 -4.9 -7.0 -6.2 -7.0 -6.3 -7.0 -6.4 -7.05 -6.55 -6.95 -6.65 -6.85 -6.85 -6.6 -7.0 -6.45 -7.05 -6.35 -7.05 -6.2 -7.0 -6.15 -6.95 -2.5 -3.4 1.25 0.45 5.1 4.3 6.45 5.85 6.5 6.0 6.55 6.05 6.6 6.1 6.75 6.15 6.8 6.2 6.85 6.25 6.9 6.3 6.95 6.35" fill="#d76c53" fill-rule="evenodd" stroke="none"/>
    <path d="M-6.35 -6.1 Q-6.45 -6.0 -6.55 -6.0 L-6.7 -5.95 -6.75 -6.0 -6.85 -6.0 -6.95 -6.1 -7.05 -6.2 -7.05 -6.3 -7.05 -6.4 -7.05 -6.5 -7.05 -6.6 -5.6 -7.85 -5.5 -7.85 -5.4 -7.85 -5.3 -7.75 -5.2 -7.65 -5.15 -7.6 -5.2 -7.35 -5.3 -7.25 -5.5 -7.05 -5.7 -6.75 -6.35 -6.1" fill="#d76c53" fill-rule="evenodd" stroke="none"/>
    <path d="M7.05 6.05 Q6.95 6.15 6.8 6.2 L6.7 6.2 6.6 6.2 6.5 6.2 6.4 6.2 6.3 6.2 6.2 6.1 6.15 6.05 6.05 6.05 2.45 2.45 -1.45 -1.35 -5.25 -5.15 -5.8 -5.7 -5.8 -5.8 -5.85 -5.85 -5.9 -5.9 -5.95 -6.05 -6.05 -6.15 -6.05 -6.25 -6.1 -6.4 -6.05 -6.45 -6.05 -6.65 -5.9 -6.9 -5.7 -7.0 -5.5 -7.0 -5.4 -7.1 -5.25 -7.05 -5.15 -7.05 -5.1 -7.0 -5.05 -6.95 -4.95 -6.85 -4.85 -6.85 -4.8 -6.8 -1.2 -3.2 2.6 0.7 6.45 4.45 7.1 5.2 7.2 5.3 7.2 5.5 7.2 5.7 7.15 5.85 7.05 6.05" fill="#d76c53" fill-rule="evenodd" stroke="none"/>
  </g>
</svg>
