<?xml version="1.0" encoding="UTF-8" standalone="no"?>
<svg xmlns:xlink="http://www.w3.org/1999/xlink" height="33.0px" width="77.45px" xmlns="http://www.w3.org/2000/svg">
  <g transform="matrix(1.0, 0.0, 0.0, 1.0, 1.0, 1.0)">
    <path d="M72.95 2.5 L68.5 5.15 64.85 6.8 62.2 8.15 60.95 8.95 60.0 9.5 62.55 10.65 65.2 11.7 68.0 9.05 71.2 5.85 73.4 3.75 72.95 2.5 72.1 1.7 69.95 0.0 69.45 0.0 M72.95 2.5 L75.45 2.0 74.55 2.6 73.4 3.75 74.6 6.95 Q75.5 10.55 75.45 11.5 L75.45 14.5 74.95 14.45 73.45 14.0 71.85 13.5 68.9 12.75 65.2 11.7 62.35 13.8 58.9 15.85 55.4 17.8 51.8 19.5 49.05 20.65 47.0 21.45 43.2 22.65 39.4 23.85 35.65 25.0 32.75 25.85 29.45 26.8 25.6 27.8 22.7 28.55 18.55 29.65 14.7 30.4 10.75 30.9 6.75 31.0 3.75 30.9 0.0 30.5" fill="none" stroke="#ffffff" stroke-linecap="round" stroke-linejoin="round" stroke-width="2.0"/>
  </g>
</svg>
