<?xml version="1.0" encoding="UTF-8" standalone="no"?>
<svg xmlns:xlink="http://www.w3.org/1999/xlink" height="11.95px" width="1668.2px" xmlns="http://www.w3.org/2000/svg">
  <g transform="matrix(1.0, 0.0, 0.0, 1.0, 0.7, 1.0)">
    <path d="M1666.95 10.0 L0.0 10.0 0.0 0.0 1666.95 0.0 1666.95 10.0" fill="#ffffff" fill-rule="evenodd" stroke="none"/>
    <path d="M1318.85 0.0 L1316.8 -0.25 Q1315.9 -0.45 1314.85 -0.25 L1312.65 0.1 1310.55 0.2 1308.85 0.0 M1336.05 0.0 L1334.05 0.0 1332.15 0.0 1330.25 -0.1 1327.9 -0.2 1325.75 -0.3 1323.9 -0.2 1322.05 -0.1 1320.05 0.0 M1351.25 0.0 L1349.05 -0.2 1347.3 0.0 1345.25 0.1 1343.35 -0.1 1341.25 -0.2 1339.15 -0.25 1337.25 0.0 M1385.85 0.0 L1384.05 0.25 1382.15 0.0 1379.95 -0.05 1377.9 -0.05 1376.0 0.05 1373.95 0.05 1371.8 -0.1 1369.8 -0.3 1367.85 0.0 M1403.05 0.0 L1401.2 0.25 1399.1 0.35 1397.1 0.05 1395.0 -0.15 1392.95 -0.1 1390.85 -0.05 1389.1 0.05 1387.05 0.0 M1444.75 0.0 L1442.5 -0.2 1440.6 -0.4 Q1439.7 -0.45 1438.7 0.0 L1436.8 0.25 1435.05 0.1 1432.9 0.05 1430.75 0.0 M1475.25 0.0 L1473.15 -0.05 1471.35 -0.1 1469.3 -0.1 1467.45 0.0 1465.5 0.05 1463.25 0.05 1461.25 0.0 M1492.45 0.0 L1490.45 0.1 1488.25 0.1 1486.15 -0.1 1484.35 -0.15 1482.35 0.05 1480.6 0.0 1478.65 -0.2 1476.45 0.0 M1507.75 0.0 L1505.85 -0.1 1503.95 -0.1 1501.55 0.0 1499.6 0.0 1497.75 0.1 1495.75 0.1 1493.75 0.0 M1526.95 0.0 L1525.1 0.1 1522.95 0.15 1520.85 -0.05 1518.9 -0.25 1516.9 -0.3 1514.95 -0.2 1513.0 -0.25 1510.95 -0.2 1508.95 0.0 M1559.45 0.0 L1557.2 -0.05 1555.35 0.05 1553.25 0.2 1551.4 -0.05 1549.45 -0.2 1547.4 0.0 1545.45 0.0 M1580.65 0.0 L1578.65 -0.2 1576.8 -0.1 1574.6 0.05 1572.5 -0.1 1570.5 -0.4 1568.5 -0.2 1566.85 0.0 1564.7 0.25 1562.8 0.35 1560.65 0.0 M1634.45 0.0 L1632.3 0.15 1630.4 0.0 1628.65 -0.25 Q1627.9 -0.45 1626.65 -0.25 L1624.5 0.0 1622.5 0.0 1620.4 0.0 1618.45 0.0 1616.4 -0.05 1614.45 0.0 M1651.65 0.0 L1649.5 -0.15 1647.45 0.35 1645.25 0.15 1643.55 -0.1 1641.8 0.0 1639.6 -0.1 1637.5 -0.3 1635.65 0.0 M1664.75 10.0 Q1666.15 10.0 1666.5 9.55 1666.9 9.15 1666.9 7.95 L1666.85 6.05 1666.85 4.2 1666.95 1.9 1666.95 0.6 1666.95 0.0 1664.95 -0.2 1662.8 0.0 1660.85 0.35 1658.85 -0.05 1657.05 -0.15 1654.85 0.0 1652.95 0.0 M1649.55 10.0 L1651.45 10.05 1653.65 9.8 1655.65 10.0 1657.4 10.15 1659.4 10.2 1661.5 10.15 1663.55 10.0 M1636.25 10.0 L1637.9 9.85 1640.15 9.65 1642.1 9.85 1643.9 10.05 1646.05 10.0 1648.25 10.0 M1617.05 10.0 L1618.95 10.05 1620.75 9.8 1622.7 9.95 1624.75 9.9 1626.9 9.95 1629.3 9.95 1631.25 9.85 1633.05 9.95 1635.05 10.0 M1601.75 10.0 L1603.75 9.75 1605.7 9.5 1607.85 9.85 1609.95 10.05 1611.55 10.1 1613.55 10.2 1615.75 10.0 M1613.15 0.0 L1611.1 0.0 1609.35 0.0 1607.15 -0.05 1605.0 0.05 1603.1 0.2 1600.8 0.1 1598.95 0.05 1597.15 0.0 M1584.45 10.0 L1586.4 9.95 1588.55 10.1 1590.45 9.75 1592.45 9.6 1594.2 9.6 1596.2 9.6 1598.45 9.7 1600.45 10.0 M1595.95 0.0 L1594.2 0.4 1592.3 0.4 1590.25 0.25 1587.9 0.15 1585.85 0.0 Q1585.2 -0.2 1583.9 0.0 1582.65 0.2 1581.95 0.0 M1569.15 10.0 L1571.25 9.85 1573.15 9.85 1575.15 10.0 1577.25 10.1 1579.25 10.1 1581.35 10.0 1583.15 10.0 M1557.95 10.0 Q1558.85 9.5 1559.7 9.75 L1561.75 9.95 1563.8 10.1 1565.8 10.0 Q1566.95 9.8 1567.95 10.0 M1544.65 10.0 L1547.1 9.8 1548.65 10.0 1550.45 10.2 1552.65 9.95 1554.55 9.8 1556.65 10.0 M1529.35 10.0 L1531.1 10.0 1533.15 9.9 1535.55 10.0 1537.5 10.3 1539.35 10.35 1541.4 10.15 1543.35 10.0 M1544.25 0.0 L1542.4 0.0 1540.1 0.05 1538.3 0.05 1536.4 0.2 1534.25 0.0 Q1533.25 -0.45 1532.3 0.0 1531.4 0.45 1530.15 0.0 1528.9 -0.45 1528.25 0.0 M1518.15 10.0 L1520.15 9.85 1522.1 9.75 1523.85 10.1 1526.0 10.05 1528.15 10.0 M1502.95 10.0 L1504.95 10.15 1506.85 9.95 1508.8 9.85 1510.75 9.95 1512.95 10.0 1515.15 10.0 1516.95 10.0 M1483.65 10.0 L1485.55 10.1 1487.35 10.05 1489.45 10.2 1491.7 10.05 1493.9 10.1 1496.1 10.1 1497.65 10.1 1499.45 10.0 Q1500.7 9.8 1501.65 10.0 M1468.35 10.0 L1470.35 10.2 1472.45 10.15 1474.45 9.7 1476.3 9.9 1478.4 10.35 1480.2 10.25 1482.35 10.0 M1460.05 0.0 L1458.15 0.2 1456.0 0.05 1454.15 0.0 1452.15 0.0 1450.05 -0.15 1448.2 0.0 Q1447.3 0.35 1446.05 0.0 M1453.15 10.0 L1454.95 10.05 1456.95 10.2 1459.2 10.25 1461.4 10.05 1463.45 9.8 Q1464.3 9.55 1465.45 9.8 L1467.15 10.0 M1435.95 10.0 L1438.15 9.95 1439.75 10.1 1441.95 10.1 1444.1 10.15 1446.15 9.85 1448.25 9.7 1449.85 9.75 1451.95 10.0 M1420.65 10.0 L1422.55 9.95 1424.7 9.8 Q1426.0 9.65 1426.85 9.8 L1428.7 9.95 1430.65 9.95 1432.8 10.0 1434.65 10.0 M1429.55 0.0 L1427.9 0.1 Q1427.0 -0.1 1425.85 0.1 1424.75 0.3 1423.75 0.1 L1421.8 -0.05 1419.7 0.05 1417.8 -0.15 1415.55 0.0 M1399.35 10.0 L1401.45 9.9 1403.05 9.95 1405.15 10.15 1407.3 10.05 1409.3 10.05 1411.45 10.0 1413.45 9.85 Q1414.4 9.7 1415.15 10.1 1415.95 10.5 1417.15 10.1 L1419.35 10.0 M1414.25 0.0 L1412.0 -0.3 1410.05 0.0 1408.15 0.0 1406.05 -0.05 1404.25 0.0 M1382.05 10.0 L1384.1 10.05 1386.15 10.2 1388.1 10.2 1390.05 10.0 1392.05 9.8 1394.1 9.9 1395.85 10.0 Q1396.6 9.85 1398.05 10.0 M1362.85 10.0 L1364.9 10.05 1366.8 10.05 1368.9 10.05 1370.9 10.05 1372.95 10.05 1375.0 9.9 1377.05 9.95 1379.2 10.15 1380.85 10.0 M1366.55 0.0 L1364.6 0.15 1362.65 0.1 1360.7 0.15 1358.6 -0.05 1356.55 0.0 1354.55 -0.05 1352.55 0.0 M1345.65 10.0 L1347.35 10.0 1349.6 10.0 1351.75 10.0 1353.9 9.85 Q1354.95 9.7 1355.8 9.85 L1357.9 9.8 Q1359.15 9.6 1359.95 9.8 L1361.65 10.0 M1326.45 10.0 L1328.35 9.9 1330.5 9.85 1332.5 9.75 1334.4 10.0 1336.2 10.3 1338.15 10.1 1340.35 9.95 1342.4 9.8 1344.45 10.0 M1309.15 10.0 L1311.1 10.1 1313.15 10.05 1315.35 9.95 1317.35 10.2 1318.95 10.35 1320.75 10.4 1323.05 10.2 1325.15 10.0 M1295.95 10.0 L1297.9 9.95 1299.95 9.75 1302.1 9.6 1304.2 9.8 1306.1 9.95 1307.95 10.0 M1307.55 0.0 L1305.8 0.05 1303.6 0.1 1301.55 0.1 1299.65 0.35 1297.7 0.45 1295.6 0.15 1293.55 0.0 M659.95 0.0 L658.15 -0.2 656.4 -0.05 654.2 0.05 651.95 0.1 649.95 -0.15 647.95 -0.45 645.95 -0.3 643.95 0.0 M677.25 0.0 L675.35 0.05 673.5 -0.1 671.35 0.2 669.05 0.35 667.3 0.25 665.55 -0.1 Q664.45 -0.4 663.35 -0.1 L661.25 0.0 M692.55 0.0 L690.7 0.15 688.5 -0.05 686.5 0.25 684.4 -0.05 682.5 -0.25 680.75 0.0 678.55 0.0 M705.75 0.0 L703.85 0.05 701.75 0.15 699.55 -0.05 697.6 -0.35 695.75 0.05 693.75 0.0 M755.55 0.0 L753.5 0.0 751.7 -0.25 Q750.95 -0.45 749.5 -0.25 L747.25 0.2 745.75 0.25 743.85 0.15 741.55 0.0 M797.25 0.0 L795.15 0.15 793.4 0.15 791.35 0.0 789.15 -0.05 787.35 -0.05 785.1 0.15 783.25 0.0 M814.55 0.0 Q813.65 -0.25 812.6 0.0 L810.55 0.15 808.75 0.0 806.9 -0.1 804.65 -0.1 802.4 0.1 800.35 0.2 798.55 0.0 M833.75 0.0 Q832.75 0.2 831.9 0.0 L830.0 -0.1 827.7 -0.15 825.5 0.05 823.65 0.15 821.7 -0.25 819.5 0.0 817.6 0.05 815.75 0.0 M881.35 0.0 L879.55 -0.15 877.5 -0.25 875.4 -0.3 873.1 -0.2 871.25 0.15 869.5 0.2 867.6 0.0 865.6 0.05 863.35 -0.05 861.35 0.0 M896.65 0.0 L894.5 -0.25 892.55 -0.4 890.85 -0.2 888.8 -0.05 886.45 0.1 884.45 0.2 882.65 0.0 M913.85 0.0 L911.8 -0.3 909.9 -0.2 907.75 0.25 905.8 0.25 903.95 0.25 901.75 0.0 899.65 -0.15 897.85 0.0 M927.15 0.0 L925.05 -0.05 923.25 -0.05 921.05 -0.1 918.95 -0.1 916.95 0.0 915.15 0.0 M940.35 0.0 L938.55 0.05 936.55 0.05 934.35 -0.1 932.6 -0.35 930.45 -0.4 Q929.1 -0.4 928.35 0.0 M961.55 0.0 L959.5 0.35 957.4 0.15 955.6 -0.15 953.8 -0.1 951.55 0.05 949.45 0.0 947.65 0.15 945.6 0.2 943.5 -0.1 941.55 0.0 M972.75 0.0 L970.65 -0.05 968.7 -0.15 966.65 -0.2 964.95 0.1 962.75 0.0 M985.95 0.0 L983.9 -0.3 981.75 -0.35 979.7 -0.1 977.6 0.1 975.45 0.05 973.95 0.0 M997.25 0.0 L995.35 -0.1 993.15 -0.05 991.35 -0.25 989.7 -0.35 987.25 0.0 M1012.45 0.0 L1010.5 -0.1 1008.15 -0.15 1006.2 -0.05 1004.45 0.0 1002.4 0.0 1000.4 -0.05 998.45 0.0 M1031.75 0.0 L1029.65 0.1 1027.35 0.15 1025.75 0.1 1024.15 0.15 1021.75 0.2 1019.45 -0.15 1017.65 -0.3 1015.8 -0.4 1013.75 0.0 M1042.95 0.0 L1040.95 -0.2 1039.0 -0.3 1037.0 -0.25 1034.95 0.05 1032.95 0.0 M1075.35 0.0 L1073.4 -0.05 1071.45 0.0 1069.25 0.15 1067.15 0.15 1065.35 -0.05 1063.35 -0.05 1061.2 0.0 1059.35 0.0 M1134.25 0.0 L1132.1 -0.2 1130.0 -0.1 1128.2 0.05 1126.15 0.0 1124.2 0.05 1122.25 0.0 M1151.45 0.0 L1149.3 0.0 1147.5 -0.25 Q1146.6 -0.45 1145.55 -0.25 L1143.45 0.0 1141.45 0.15 1139.7 0.15 1137.7 0.0 1135.45 0.0 M1166.65 0.0 L1164.75 -0.1 1162.75 0.2 1160.65 0.1 1158.55 -0.25 Q1157.5 -0.45 1156.75 -0.25 L1154.65 -0.05 1152.65 0.0 M1179.85 0.0 L1177.85 -0.4 1176.0 -0.2 1173.9 0.2 Q1172.8 0.4 1171.65 0.2 L1169.75 0.0 1167.85 0.0 M1197.05 0.0 L1194.8 0.25 1192.85 0.1 1191.05 0.0 1189.15 -0.05 1187.15 -0.2 1185.2 0.0 1183.05 -0.2 1181.05 0.0 M1214.25 0.0 L1212.2 -0.45 1210.25 -0.45 1208.3 -0.45 1206.15 -0.3 1204.15 0.1 1202.25 0.15 1200.1 0.0 1198.25 0.0 M1227.45 0.0 L1225.55 0.2 1223.5 0.25 1221.4 0.1 1219.45 -0.25 1217.4 -0.3 1215.45 0.0 M1255.95 0.0 L1254.05 0.0 1251.95 -0.05 1249.95 -0.25 Q1249.0 -0.45 1248.1 -0.25 L1246.25 0.1 1244.1 0.1 1242.05 0.05 1239.95 0.0 M1273.15 0.0 L1271.05 -0.05 1269.15 0.05 1267.05 0.05 1265.1 -0.05 1263.3 -0.2 1261.5 -0.1 1259.2 0.1 1257.15 0.0 M1292.35 0.0 L1290.45 0.15 Q1289.55 0.35 1288.45 0.15 L1286.35 0.0 1284.55 -0.05 1282.45 0.0 1280.2 0.05 1278.45 -0.1 1276.45 -0.1 1274.35 0.0 M31.0 0.0 L28.8 0.05 26.85 0.1 24.95 0.2 23.0 0.15 21.1 0.0 18.95 -0.15 16.9 -0.25 15.25 -0.1 13.0 0.0 M52.2 0.0 L50.35 -0.25 48.35 0.2 46.2 0.1 44.15 -0.1 42.1 0.2 Q41.1 0.4 40.15 0.2 L38.35 -0.15 36.25 -0.05 34.0 0.05 32.2 0.0 M69.4 0.0 L67.5 -0.05 65.45 0.05 63.4 0.0 61.2 0.0 59.1 -0.1 57.5 -0.15 55.75 0.0 53.4 0.0 M106.0 0.0 L104.1 -0.15 102.2 0.0 100.4 0.05 98.35 0.05 96.1 0.05 93.9 -0.15 91.9 -0.25 90.0 -0.05 88.0 0.0 M174.9 0.0 L172.7 -0.05 170.6 -0.1 168.7 0.1 166.65 0.15 164.5 0.0 162.65 0.1 160.8 -0.05 158.85 -0.1 156.9 0.0 M196.1 0.0 L194.1 0.0 192.05 0.05 189.85 0.15 187.9 0.3 186.0 0.15 184.15 -0.15 182.15 -0.35 180.2 -0.3 178.0 -0.25 176.1 0.0 M211.4 0.0 L209.5 0.25 207.4 0.05 205.45 -0.05 203.45 0.05 201.3 -0.05 199.05 -0.3 Q197.9 -0.45 197.4 0.0 M241.8 0.0 L239.8 -0.05 237.9 -0.35 235.85 0.1 233.75 0.2 231.75 -0.05 229.8 -0.05 227.65 0.15 225.45 0.15 223.8 0.0 M278.2 0.0 L276.1 -0.1 273.95 -0.25 272.05 -0.2 270.45 0.0 268.35 0.15 266.15 0.05 264.2 0.0 M297.4 0.0 L295.4 -0.05 293.35 -0.3 291.55 -0.5 289.6 -0.25 287.45 0.0 285.45 0.0 283.4 -0.15 281.4 -0.15 279.4 0.0 M319.8 0.0 L317.75 -0.05 315.9 -0.1 314.0 0.0 312.15 0.05 309.8 0.0 M367.6 0.0 L365.55 0.1 363.55 0.0 361.65 -0.1 359.6 0.1 357.75 0.2 355.8 -0.05 353.4 -0.05 351.6 0.0 M408.0 0.0 L406.2 -0.25 404.1 -0.15 401.85 -0.05 399.8 -0.25 397.75 -0.2 396.15 -0.15 394.05 -0.15 391.7 -0.05 390.05 0.05 388.0 0.0 M425.2 0.0 L423.25 -0.05 421.35 -0.05 419.3 0.0 417.2 -0.1 415.4 -0.05 413.4 0.05 411.25 0.0 409.2 0.0 M438.4 0.0 L436.3 0.05 434.15 -0.1 432.2 -0.2 430.6 -0.3 428.5 -0.1 426.4 0.0 M453.6 0.0 L451.7 0.0 449.55 -0.15 447.5 -0.2 445.35 -0.15 443.3 -0.1 441.55 -0.2 439.6 0.0 M466.8 0.0 L464.6 0.15 462.4 0.2 460.45 -0.15 458.7 -0.15 456.8 -0.05 454.8 0.0 M495.3 0.0 L493.3 -0.1 491.3 -0.35 489.2 -0.25 487.05 0.0 485.35 -0.05 483.65 -0.1 481.5 -0.05 479.3 0.0 M531.8 0.0 L529.75 -0.3 527.7 -0.45 525.75 -0.2 523.85 -0.05 521.8 -0.05 519.7 -0.25 517.45 -0.3 Q516.3 -0.1 515.55 -0.3 L513.8 0.0 M549.1 0.0 L546.9 0.05 545.0 -0.3 543.1 -0.35 541.2 -0.05 539.05 -0.15 537.1 -0.2 535.05 0.0 533.1 0.0 M564.4 0.0 L562.5 0.05 560.5 -0.05 558.35 -0.15 556.35 -0.3 554.5 -0.2 552.35 0.1 550.4 0.0 M579.7 0.0 L577.6 0.0 575.7 0.05 573.65 -0.2 571.45 -0.25 569.6 0.05 567.45 0.1 565.7 0.0 M594.95 0.0 L592.9 -0.05 591.15 0.3 588.95 0.3 586.7 -0.1 585.05 -0.2 583.1 0.0 580.95 0.0 M610.15 0.0 L608.05 -0.3 606.05 -0.2 604.1 -0.05 602.25 -0.05 600.15 -0.15 598.0 -0.15 596.15 0.0 M625.45 0.0 L623.6 -0.25 621.65 -0.15 619.55 0.2 617.5 -0.1 615.3 -0.2 613.1 -0.15 611.45 0.0 M637.3 10.0 L639.3 10.05 641.25 10.0 643.4 10.0 645.6 9.75 647.45 9.8 649.25 10.0 651.3 10.0 653.3 9.8 655.3 10.0 M642.75 0.0 L640.6 0.15 Q639.75 0.0 638.8 0.15 L636.8 0.0 634.6 -0.15 632.55 0.05 630.8 0.05 628.75 -0.2 626.75 0.0 M622.1 10.0 L624.4 10.1 626.35 10.0 628.05 10.05 629.85 9.8 632.15 9.75 634.35 10.05 636.1 10.0 M610.9 10.0 L612.85 9.9 615.1 10.0 617.2 10.05 619.1 9.85 620.9 10.0 M591.7 10.0 L593.8 9.95 595.65 9.95 597.45 10.05 599.55 9.95 601.6 9.9 603.8 9.95 605.65 10.05 607.55 10.05 609.7 10.0 M578.5 10.0 L580.45 10.0 582.5 10.0 584.6 10.0 586.75 10.2 Q587.85 10.4 588.6 10.2 L590.5 10.0 M563.3 10.0 L565.3 9.9 567.3 9.9 569.45 9.85 571.65 9.85 573.55 9.75 575.25 9.9 577.3 10.0 M546.1 10.0 L548.15 9.85 550.25 9.95 552.25 9.75 553.85 9.8 Q554.65 10.0 555.75 9.8 556.9 9.65 557.75 9.8 L560.0 9.95 562.1 10.0 M528.9 10.0 L530.7 10.2 532.85 10.4 535.05 10.2 536.95 9.8 538.65 9.75 540.85 9.95 542.95 10.0 544.9 10.0 M509.6 10.0 L511.6 9.75 513.75 9.9 515.75 9.8 517.65 10.05 519.35 10.3 521.5 9.95 523.85 10.1 526.05 10.0 Q527.1 9.55 527.6 10.0 M512.6 0.0 L510.6 0.15 508.6 0.25 506.7 -0.05 504.7 0.0 Q503.65 0.35 502.5 0.0 L500.65 -0.2 498.7 0.1 496.6 0.0 M492.3 10.0 L494.2 10.0 496.1 10.15 498.25 10.0 500.25 9.65 502.1 9.75 Q503.35 9.95 504.35 9.75 505.4 9.6 506.5 9.75 L508.3 10.0 M477.0 10.0 L479.0 9.8 480.95 9.9 483.1 10.15 485.3 10.0 487.3 9.6 489.2 9.75 491.0 10.0 M478.0 0.0 L475.95 0.15 473.95 0.15 471.9 0.2 470.25 0.2 468.0 0.0 M463.7 10.0 L465.55 9.75 467.8 9.9 469.7 10.05 471.75 10.15 473.7 10.1 475.7 10.0 M448.5 10.0 L450.65 10.05 452.65 9.95 454.75 10.0 456.65 10.0 458.75 9.85 460.85 10.05 462.5 10.0 M431.3 10.0 L433.45 10.1 435.55 10.0 437.3 10.05 439.25 10.1 441.05 9.95 443.05 9.9 445.3 9.9 447.3 10.0 M416.1 10.0 L418.2 10.1 419.95 10.2 421.85 10.2 423.8 10.15 425.95 10.0 428.2 9.9 430.1 10.0 M400.9 10.0 L403.05 9.9 405.3 9.9 407.2 9.9 408.95 9.7 410.75 9.75 412.65 10.15 414.9 10.0 M379.6 10.0 L381.6 10.15 383.45 10.15 385.45 10.1 387.75 9.9 389.9 9.8 391.75 9.95 393.65 10.15 395.7 10.05 397.6 9.85 399.6 10.0 M364.3 10.0 L366.1 9.95 368.35 9.7 370.35 9.65 372.25 9.85 374.25 9.8 376.3 9.65 378.3 10.0 M386.8 0.0 L384.65 0.1 382.65 -0.15 380.55 0.0 378.8 0.15 377.0 0.25 374.8 0.0 372.8 -0.1 370.95 0.0 368.8 0.0 M349.0 10.0 L351.0 10.2 353.05 10.1 355.05 9.95 357.05 10.0 358.85 9.9 360.7 9.9 363.0 10.0 M350.3 0.0 L348.5 -0.1 346.4 0.05 344.5 0.05 342.3 0.05 340.3 0.0 338.3 0.05 336.3 0.0 M333.8 10.0 L335.8 9.8 337.7 10.05 339.85 10.05 342.0 9.95 343.85 9.95 345.95 9.95 347.8 10.0 M314.6 10.0 L316.4 10.1 Q317.6 10.4 318.7 10.1 L320.6 10.15 Q321.35 10.45 322.25 10.15 L324.3 9.65 Q325.45 9.5 326.5 9.65 L328.7 9.9 330.7 9.75 Q331.65 9.5 332.6 10.0 M335.0 0.0 L333.2 0.1 331.2 0.05 329.15 0.05 327.3 0.05 324.95 0.15 322.65 0.2 321.0 0.0 M297.3 10.0 L299.4 10.2 301.4 10.0 303.75 9.9 305.65 9.8 307.35 9.9 309.25 10.0 311.3 10.0 313.3 10.0 M308.6 0.0 L306.6 0.2 304.7 0.0 302.75 0.15 300.65 0.2 298.6 0.0 M284.0 10.0 L286.05 10.15 288.35 9.95 290.4 9.75 291.95 10.15 293.65 10.4 296.0 10.0 M270.8 10.0 L272.9 10.05 274.95 9.8 276.75 9.75 278.65 10.0 280.9 9.95 282.8 10.0 M253.5 10.0 L255.1 9.95 257.15 10.15 259.2 9.85 261.45 9.85 263.55 9.75 265.25 9.65 267.5 10.0 Q268.9 10.3 269.5 10.0 M263.0 0.0 L261.15 -0.2 259.1 0.1 257.2 0.15 Q256.4 0.0 255.3 0.15 L253.1 0.15 251.2 -0.15 249.15 0.0 246.95 0.15 245.05 0.0 243.0 0.0 M236.2 10.0 L238.25 10.1 240.2 9.95 242.3 10.05 244.35 10.1 246.3 10.05 248.45 10.0 250.2 9.9 252.2 10.0 M221.0 10.0 Q222.4 10.35 223.35 10.0 L225.25 9.85 227.1 9.75 Q227.95 9.55 229.0 9.75 L230.8 10.2 Q231.6 10.4 233.0 10.2 L235.0 10.0 M207.7 10.0 L209.4 10.2 211.4 9.95 213.5 9.9 215.6 10.0 217.5 9.95 219.7 10.0 M222.6 0.0 L220.75 -0.05 218.65 0.0 216.8 0.0 214.8 -0.05 212.6 0.0 M188.5 10.0 L190.6 9.95 192.7 10.1 194.5 10.1 196.45 9.85 198.45 10.05 200.35 10.1 202.1 9.95 204.25 10.05 206.5 10.0 M171.3 10.0 L173.5 9.8 175.5 9.9 177.35 9.95 179.25 9.8 181.5 9.65 183.6 9.65 185.4 9.95 187.3 10.0 M156.0 10.0 L158.0 10.2 Q159.1 10.45 160.1 10.2 L162.15 10.1 164.05 10.0 166.0 9.9 168.0 9.95 170.0 10.0 M134.8 10.0 L136.65 10.1 138.7 10.1 140.9 10.0 143.15 9.9 145.2 9.8 146.8 9.9 148.6 9.95 151.05 9.95 153.05 10.05 154.8 10.0 M155.7 0.0 L153.65 -0.05 151.85 0.0 149.85 -0.05 147.65 0.2 145.5 0.5 143.3 0.05 141.7 0.0 M140.5 0.0 L138.3 0.05 136.35 0.15 134.7 -0.1 132.65 0.1 130.3 0.25 128.45 0.1 126.65 0.0 124.5 0.0 M121.6 10.0 L123.7 9.95 125.7 10.2 127.55 10.0 129.45 9.7 131.4 9.85 133.6 10.0 M104.3 10.0 L106.3 9.85 108.3 9.95 110.4 10.2 112.3 10.4 114.15 10.2 116.3 9.85 118.2 10.05 120.3 10.0 M123.2 0.0 L121.4 -0.1 119.25 0.1 117.25 0.05 115.1 0.05 113.1 -0.15 111.2 0.05 109.25 0.0 Q108.35 -0.4 107.2 0.0 M85.1 10.0 L87.35 9.95 89.45 10.05 Q90.6 9.9 91.35 10.05 L93.3 10.1 95.3 9.95 97.1 9.85 99.2 9.95 101.4 10.05 103.1 10.0 M69.8 10.0 L72.0 9.7 73.8 9.75 75.8 10.0 77.65 10.05 79.7 10.0 81.8 10.05 83.8 10.0 M86.7 0.0 L84.4 0.05 82.3 0.0 80.6 -0.2 78.75 0.0 76.65 0.05 74.7 0.05 72.8 -0.25 70.7 0.0 M54.6 10.0 L56.55 10.15 58.75 10.05 60.85 9.8 62.55 9.95 64.55 10.15 66.85 10.1 68.6 10.0 M39.3 10.0 L41.1 10.15 43.15 10.35 45.25 10.25 47.4 9.8 49.35 9.9 51.2 10.25 53.3 10.0 M24.1 10.0 L25.9 10.2 27.85 10.05 30.0 10.0 32.3 10.1 34.3 10.05 36.1 10.05 38.1 10.0 M8.8 10.0 L10.8 9.85 12.6 9.8 14.8 9.9 16.8 9.9 18.8 10.05 20.8 10.0 Q21.8 9.85 22.8 10.0 M11.7 0.0 L9.75 0.4 7.45 0.45 5.65 0.45 3.9 0.05 2.0 0.0 Q1.05 0.35 0.5 0.8 -0.05 1.25 -0.1 2.25 L0.0 4.3 M0.0 5.6 Q-0.35 6.75 -0.1 7.65 L0.5 9.3 Q0.8 10.0 1.9 9.9 L3.6 9.9 5.4 9.85 7.6 10.0 M1280.75 10.0 L1282.7 9.9 1284.7 10.05 1286.75 10.15 1288.75 10.15 1290.65 10.3 1292.65 10.45 Q1293.75 10.5 1294.75 10.0 M1265.55 10.0 L1267.65 9.85 1269.45 9.9 1271.6 10.0 1273.85 10.0 1275.65 10.2 1277.55 10.35 1279.55 10.0 M1248.35 10.0 L1250.35 10.1 1252.6 10.05 1254.5 10.2 1256.4 10.15 1258.45 10.0 1260.35 10.05 1262.3 10.15 1264.35 10.0 M1238.75 0.0 L1236.7 0.15 1234.75 0.35 1232.8 0.4 1230.8 0.2 1228.75 0.0 M1237.15 10.0 L1239.15 10.1 1241.1 10.0 1243.15 9.9 1245.2 10.0 1247.15 10.0 M1219.95 10.0 L1221.9 9.9 1224.15 9.95 1226.05 9.9 1227.7 10.05 1229.75 10.1 1231.95 10.15 1233.8 10.15 1235.95 10.0 M1200.65 10.0 L1202.8 10.4 1204.9 10.15 1206.7 9.85 1208.7 9.9 1210.95 10.0 1212.5 10.05 1214.3 10.05 1216.55 10.1 1218.65 10.0 M1179.45 10.0 L1181.55 9.7 1183.5 9.85 1185.45 10.2 Q1186.4 10.4 1187.4 10.2 1188.4 10.0 1189.4 10.2 L1191.25 10.15 1193.25 9.75 1195.45 9.85 1197.45 10.25 1199.45 10.0 M1164.15 10.0 L1165.9 10.15 1168.15 10.0 1170.4 10.25 1172.2 10.0 Q1173.15 9.55 1174.15 9.6 L1176.0 9.8 1178.15 10.0 M1146.85 10.0 Q1148.1 10.2 1148.95 10.0 L1150.7 9.9 1152.7 10.0 1154.85 10.0 1156.8 10.05 1158.85 10.1 1160.85 9.9 1162.85 10.0 M1133.65 10.0 L1135.65 9.9 1137.5 9.8 1139.45 9.85 1141.7 9.95 1143.65 10.0 1145.65 10.0 M1118.45 10.0 L1120.25 10.2 1122.25 10.15 1124.55 9.95 1126.4 9.95 1128.3 9.9 1130.4 10.1 1132.45 10.0 M1120.95 0.0 L1118.9 0.15 1116.9 -0.05 1115.0 0.0 1113.1 -0.05 1111.05 0.0 1108.95 0.05 1106.95 0.0 M1097.2 10.0 L1099.1 9.9 1101.0 10.0 1102.9 10.15 1105.15 10.1 1107.2 10.05 1109.15 9.9 1111.15 9.8 1113.4 10.1 1115.25 10.15 1117.2 10.0 M1105.75 0.0 L1103.75 -0.05 1101.7 0.0 1099.6 0.0 1097.75 0.05 1095.95 0.05 1093.65 -0.2 1091.75 0.0 M1086.0 10.0 L1088.0 10.15 1089.8 10.1 1091.8 9.9 1094.1 9.85 1096.0 10.0 M1090.55 0.0 L1088.6 0.25 1086.5 0.15 1084.45 0.0 1082.65 -0.2 1080.75 0.05 1078.75 0.35 1076.55 0.0 M1070.7 10.0 L1072.45 9.9 1074.55 10.25 Q1075.7 10.45 1076.65 10.25 L1078.65 10.05 1080.8 9.95 1082.8 9.85 1084.7 10.0 M1051.5 10.0 L1053.55 10.0 1055.45 9.85 1057.45 9.75 1059.55 9.85 1061.55 10.0 1063.6 10.1 1065.6 10.3 1067.75 10.2 1069.5 10.0 M1058.15 0.0 L1056.05 0.15 1054.35 0.1 1052.4 -0.05 1050.35 0.15 1048.3 0.15 1046.15 -0.15 1044.15 0.0 M1032.2 10.0 L1034.1 9.7 Q1035.2 9.55 1036.1 10.0 1037.05 10.45 1038.1 10.0 L1040.15 9.95 1042.25 10.15 1044.15 9.85 1046.15 9.8 1048.35 9.95 1050.2 10.0 M1014.9 10.0 L1017.0 9.8 1019.05 9.7 1020.7 9.9 1022.6 10.1 1024.6 10.35 1026.65 10.25 1028.9 9.75 Q1030.05 9.5 1030.9 10.0 M999.7 10.0 L1001.75 10.05 1003.8 10.0 1005.5 10.2 1007.35 10.05 1009.55 9.85 1011.5 10.2 1013.7 10.0 M978.4 10.0 L980.4 9.7 982.25 9.65 984.25 9.9 986.4 10.2 988.65 10.1 990.3 9.95 992.1 10.0 994.2 10.0 996.25 9.95 998.4 10.0 M959.1 10.0 L960.95 10.1 963.1 9.9 965.0 9.8 966.9 10.0 969.1 10.0 971.2 9.95 973.0 9.95 974.8 9.95 977.1 10.0 M939.8 10.0 L941.55 9.9 943.5 9.8 945.85 10.15 Q947.1 10.4 947.95 10.15 L949.85 9.7 951.8 9.75 953.8 10.2 955.8 10.0 Q956.8 9.65 957.8 10.0 M918.6 10.0 L920.5 10.0 922.5 10.05 924.5 10.0 926.55 10.0 928.55 10.1 930.6 10.05 932.6 9.85 934.65 9.8 936.5 9.9 938.6 10.0 M903.4 10.0 L905.1 10.2 907.35 10.15 909.4 9.9 911.55 9.85 913.7 9.85 915.55 9.9 917.4 10.0 M886.2 10.0 L888.2 10.05 890.2 9.75 892.2 10.1 894.0 10.25 896.1 10.0 898.25 10.0 900.4 9.95 902.2 10.0 M870.9 10.0 L872.85 10.0 875.0 10.0 877.05 9.95 879.05 10.0 881.0 9.75 Q881.95 9.55 882.8 9.75 L884.9 10.0 M857.6 10.0 L859.25 9.95 861.45 10.1 863.35 9.95 865.35 9.8 867.85 9.85 869.6 10.0 M840.4 10.0 L842.55 9.9 844.5 9.7 846.35 9.8 848.3 10.1 850.3 9.95 852.45 10.0 854.15 10.1 856.4 10.0 M860.15 0.0 L858.1 -0.05 856.1 0.0 854.15 0.0 852.1 0.05 850.15 0.0 M848.95 0.0 L847.0 0.05 844.8 0.05 842.75 -0.05 841.05 0.2 839.05 0.05 836.85 -0.05 834.95 0.0 M823.1 10.0 L825.15 10.3 827.15 10.05 829.15 9.85 831.15 9.9 832.9 9.9 835.0 10.1 Q836.35 10.3 837.2 10.1 L839.1 10.0 M807.8 10.0 L809.85 9.9 812.05 9.8 813.8 10.0 815.9 9.9 817.95 9.8 819.85 10.1 821.8 10.0 M788.6 10.0 L790.65 10.1 792.6 10.05 794.8 10.05 796.95 9.95 798.85 10.15 800.95 10.1 802.8 9.9 804.4 10.0 806.6 10.0 M769.4 10.0 L771.45 10.25 773.4 10.35 775.5 10.15 777.55 9.85 779.4 9.7 781.4 10.1 783.45 10.15 785.25 9.95 787.4 10.0 M781.95 0.0 L779.85 0.1 777.95 0.1 776.0 -0.05 774.0 0.1 771.95 -0.05 769.95 0.0 M754.2 10.0 L756.25 9.85 758.4 9.7 760.25 9.8 762.3 9.95 764.55 9.9 766.4 9.95 768.2 10.0 M768.75 0.0 L767.15 0.15 764.75 0.0 762.6 0.05 760.65 0.1 758.45 -0.35 Q757.4 -0.45 756.75 0.0 M734.9 10.0 L736.9 10.25 738.95 10.4 740.9 10.35 742.7 10.05 744.5 9.9 746.9 10.0 749.1 10.0 750.9 9.95 752.9 10.0 M740.35 0.0 L738.25 0.1 736.2 0.0 734.35 -0.25 732.7 0.0 730.6 0.15 728.35 0.1 726.35 0.25 724.25 0.1 722.05 0.2 Q721.0 0.5 720.35 0.0 M715.6 10.0 L717.55 9.95 719.55 10.35 721.55 10.1 723.35 10.05 Q724.25 10.4 725.45 10.05 L727.6 9.85 729.6 10.05 731.8 10.0 733.6 10.0 M719.05 0.0 L717.25 0.3 715.25 0.3 712.9 0.15 710.85 -0.05 709.0 0.0 Q708.05 0.25 707.05 0.0 M704.3 10.0 L706.1 9.95 707.95 10.0 709.9 10.2 712.3 10.15 714.3 10.0 M687.0 10.0 L688.9 9.85 691.05 9.9 693.2 10.15 695.1 9.95 697.0 9.75 699.05 9.85 700.85 9.95 703.0 10.0 M671.8 10.0 L673.75 9.85 675.6 9.8 677.85 10.05 679.7 10.1 681.7 10.0 683.8 9.95 685.8 10.0 M656.6 10.0 L658.7 9.95 660.75 10.0 662.6 9.85 664.65 9.8 666.65 9.75 Q667.65 9.55 668.6 9.75 L670.6 10.0" fill="none" stroke="#ffffff" stroke-linecap="round" stroke-linejoin="round" stroke-width="1.0"/>
  </g>
</svg>
