<?xml version="1.0" encoding="UTF-8" standalone="no"?>
<svg xmlns:xlink="http://www.w3.org/1999/xlink" height="101.0px" width="101.0px" xmlns="http://www.w3.org/2000/svg">
  <g transform="matrix(1.0, 0.0, 0.0, 1.0, 50.5, 50.5)">
    <path d="M35.35 -35.35 Q50.0 -20.7 50.0 0.0 50.0 20.7 35.35 35.35 20.7 50.0 0.0 50.0 -20.7 50.0 -35.35 35.35 -50.0 20.7 -50.0 0.0 -50.0 -20.7 -35.35 -35.35 -20.7 -50.0 0.0 -50.0 20.7 -50.0 35.35 -35.35 M-19.45 -19.45 L0.0 0.0 -27.5 0.0 0.0 0.0 -19.45 -19.45 M19.5 -19.5 L0.0 0.0 0.0 -27.55 0.0 0.0 19.5 -19.5 M19.5 19.5 L0.0 0.0 27.55 0.0 0.0 0.0 19.5 19.5 M-19.45 19.45 L0.0 0.0 0.0 27.5 0.0 0.0 -19.45 19.45" fill="#666666" fill-rule="evenodd" stroke="none"/>
    <path d="M35.35 -35.35 Q50.0 -20.7 50.0 0.0 50.0 20.7 35.35 35.35 20.7 50.0 0.0 50.0 -20.7 50.0 -35.35 35.35 -50.0 20.7 -50.0 0.0 -50.0 -20.7 -35.35 -35.35 -20.7 -50.0 0.0 -50.0 20.7 -50.0 35.35 -35.35 M0.0 27.5 L0.0 0.0 -19.45 19.45 M27.55 0.0 L0.0 0.0 19.5 19.5 M0.0 -27.55 L0.0 0.0 19.5 -19.5 M-27.5 0.0 L0.0 0.0 -19.45 -19.45" fill="none" stroke="#cccccc" stroke-linecap="round" stroke-linejoin="round" stroke-width="1.0"/>
  </g>
</svg>
