<?xml version="1.0" encoding="UTF-8" standalone="no"?>
<svg xmlns:xlink="http://www.w3.org/1999/xlink" height="227.7px" width="14.05px" xmlns="http://www.w3.org/2000/svg">
  <g transform="matrix(1.0, 0.0, 0.0, 1.0, -26.75, -21.75)">
    <path d="M33.7 21.9 L33.75 21.75 35.25 22.25 36.25 23.0 36.75 23.75 Q37.2 46.6 37.25 69.5 L37.3 116.8 37.4 164.05 37.75 211.3 37.75 239.05 37.5 239.8 37.25 240.55 36.9 241.25 36.25 242.05 35.75 242.55 35.2 242.75 33.75 243.05 31.75 242.55 30.75 241.8 30.3 241.05 30.0 240.3 Q29.65 217.5 29.9 194.55 L30.2 147.3 30.3 100.05 30.45 52.75 30.5 24.25 30.8 23.55 31.5 22.75 32.0 22.25 32.5 22.1 33.7 21.9" fill="#339999" fill-opacity="0.3019608" fill-rule="evenodd" stroke="none"/>
    <path d="M40.5 30.15 L40.5 31.65 40.5 32.0 40.2 33.15 40.0 34.65 39.95 36.15 39.9 36.5 39.75 36.9 39.5 37.25 39.5 37.65 39.5 38.0 39.5 38.4 39.45 38.75 39.3 39.15 39.15 39.5 39.05 39.9 39.0 40.25 39.0 40.65 38.85 41.0 38.65 41.4 38.55 41.8 38.5 42.15 38.5 42.9 38.5 43.65 38.4 44.0 38.25 44.4 38.15 44.75 38.0 45.15 38.0 47.0 38.0 49.3 38.0 51.55 38.0 51.9 37.95 52.25 37.8 52.65 37.65 53.05 37.15 53.4 37.05 54.15 37.0 55.3 37.0 56.4 37.0 57.15 36.85 57.5 36.6 57.9 36.25 58.3 36.0 58.65 36.0 59.05 36.0 59.4 36.0 59.8 36.05 60.15 36.15 60.55 36.3 60.9 36.5 61.3 36.55 61.65 36.65 62.05 36.8 62.4 37.0 62.8 37.0 64.3 37.0 66.15 37.0 68.05 37.0 68.4 36.95 68.75 36.8 69.15 36.6 69.5 36.4 69.8 36.1 69.9 35.5 70.05 34.65 69.8 34.25 69.4 34.0 69.05 34.0 67.9 34.0 66.4 34.0 64.9 34.0 64.15 33.95 63.8 33.75 63.4 33.4 63.0 33.15 62.65 Q32.9 61.75 32.95 60.8 L33.05 58.55 32.9 56.3 32.6 56.4 32.0 56.55 31.4 56.4 30.65 56.15 30.4 55.8 30.15 55.4 30.15 53.9 30.15 52.05 30.15 50.15 30.15 49.8 29.95 49.45 29.5 49.05 29.25 48.65 29.0 48.3 28.75 47.9 28.75 47.5 28.75 47.15 28.75 46.75 28.75 46.4 28.5 45.65 28.15 44.5 27.85 43.4 27.75 43.0 27.9 38.5 27.9 32.9 27.9 28.75 28.05 28.4 28.35 28.0 28.65 27.65 28.65 27.25 28.65 26.9 28.65 26.5 28.65 26.15 28.65 25.75 28.8 25.4 29.0 25.0 29.4 24.75 30.0 24.7 30.0 24.65 30.75 24.9 31.1 25.3 31.25 25.65 31.35 26.0 31.4 26.4 31.4 26.75 31.6 27.15 31.8 27.5 32.0 27.9 32.25 28.65 32.6 30.15 32.75 31.25 32.9 31.9 33.15 31.0 33.4 29.55 33.5 28.0 33.5 27.65 33.65 27.3 33.85 26.9 34.0 26.5 34.05 26.15 34.15 25.8 34.5 25.4 34.9 25.15 35.5 25.0 36.25 25.3 36.75 25.5 37.5 25.5 38.25 25.75 38.65 26.15 38.9 26.4 39.0 26.5 39.75 26.75 40.1 27.15 40.4 27.5 40.55 28.65 40.5 30.15" fill="#339999" fill-opacity="0.3019608" fill-rule="evenodd" stroke="none"/>
    <path d="M40.65 34.15 L40.5 34.5 40.45 34.9 40.5 35.25 40.6 35.65 40.65 36.0 40.75 36.4 40.5 36.5 40.15 36.4 40.1 36.05 40.05 35.65 40.0 35.25 39.8 34.95 39.35 34.65 39.15 34.75 39.15 35.15 39.15 35.5 39.15 35.9 39.1 36.25 39.0 36.65 38.85 37.0 38.65 37.4 38.65 38.15 38.65 38.5 38.65 39.25 38.5 40.4 38.35 40.75 38.15 41.15 38.1 41.5 38.0 41.9 37.85 42.25 37.6 42.65 37.4 42.9 37.1 43.0 36.25 43.15 36.05 44.65 35.55 46.55 35.0 48.05 34.75 48.8 34.5 49.15 34.4 49.55 34.25 49.9 34.15 50.3 34.1 50.65 34.0 51.05 33.85 51.35 33.5 51.75 33.15 52.05 32.5 52.1 32.0 52.15 31.15 51.9 30.75 51.5 30.55 51.15 30.35 50.8 30.15 50.4 29.9 50.05 29.9 49.65 29.9 49.3 29.9 48.9 29.75 48.55 29.65 48.15 29.5 47.75 29.4 47.4 29.4 47.0 29.4 46.65 29.4 46.25 29.4 45.9 29.25 45.5 29.15 45.15 29.1 44.8 29.0 44.4 28.9 44.0 28.9 43.65 28.9 43.25 28.9 42.9 28.9 42.5 28.9 41.75 28.65 41.0 28.45 40.3 28.35 39.15 28.4 38.0 27.25 34.3 Q26.65 32.1 26.75 29.75 L26.9 25.65 27.05 25.3 27.4 24.9 27.65 24.65 27.9 24.55 28.5 24.45 28.5 24.4 29.15 24.5 29.5 24.55 30.25 24.75 30.6 25.15 30.9 25.5 30.95 25.9 31.05 26.25 31.25 26.5 31.5 26.65 32.25 26.9 32.6 27.3 32.75 27.65 32.85 28.05 32.9 28.4 32.9 28.75 32.9 29.15 33.15 29.9 33.35 30.65 33.7 31.75 33.9 32.9 34.05 33.1 34.6 33.4 34.9 33.5 35.0 33.25 35.15 32.9 35.35 32.5 35.55 32.15 35.75 31.75 35.85 31.4 35.9 31.0 35.9 30.65 36.05 30.3 36.4 29.9 36.65 29.65 36.9 29.55 37.5 29.4 38.25 29.65 38.75 30.0 39.0 30.4 39.5 30.8 39.9 31.15 40.0 31.5 40.15 31.9 40.3 32.3 40.4 32.65 40.3 33.0 40.4 33.4 40.65 33.75 40.65 34.15 M34.4 35.3 L34.4 35.65 34.5 35.75 34.8 35.6 34.9 35.25 34.9 34.9 34.85 34.55 34.75 34.45 34.65 34.5 34.5 34.9 34.4 35.3" fill="#339999" fill-opacity="0.3019608" fill-rule="evenodd" stroke="none"/>
    <path d="M34.7 43.6 Q35.2 43.25 35.75 43.4 L36.15 43.75 36.15 44.1 35.75 44.9 35.15 45.65 35.4 46.0 35.7 46.45 35.9 46.75 Q36.35 55.35 36.35 64.05 L36.5 82.4 36.4 92.9 36.25 93.25 36.0 93.65 36.0 116.55 36.25 140.15 Q36.5 152.0 36.35 163.8 L36.35 187.45 36.65 211.05 36.8 234.7 36.65 245.55 36.5 245.95 36.25 246.3 35.9 246.55 35.6 246.65 35.0 246.8 34.15 246.55 33.65 246.2 33.4 245.8 Q33.15 234.4 33.25 222.95 L33.45 199.3 33.5 175.7 33.4 152.05 Q33.35 140.2 33.65 128.4 L34.05 104.8 33.9 93.9 33.8 93.55 33.65 93.15 Q33.4 84.75 33.55 76.3 L33.7 58.3 Q33.7 53.0 34.0 47.75 L33.85 47.45 33.25 46.65 33.05 46.25 33.0 45.9 33.6 44.75 34.7 43.6" fill="#339999" fill-opacity="0.3019608" fill-rule="evenodd" stroke="none"/>
    <path d="M33.75 167.55 L34.15 167.95 34.75 168.3 35.0 168.7 35.15 169.05 35.45 192.3 35.55 215.95 35.7 239.6 35.5 242.6 35.35 242.95 35.15 243.35 34.9 243.7 34.5 243.95 34.25 244.05 33.5 244.2 32.5 243.95 32.0 243.55 31.65 243.2 31.5 242.85 Q31.2 231.2 31.35 219.55 L31.55 195.95 31.65 172.3 31.9 168.95 32.05 168.6 32.4 168.2 Q32.75 167.85 33.2 167.7 L33.75 167.55" fill="#339999" fill-opacity="0.3019608" fill-rule="evenodd" stroke="none"/>
    <path d="M29.75 37.5 L29.9 37.9 30.0 38.3 30.0 38.65 30.25 39.05 30.4 39.4 30.5 40.15 30.55 40.9 30.6 41.65 30.65 42.4 30.85 42.8 31.0 43.15 31.3 46.15 31.35 49.15 31.5 51.8 31.55 52.15 31.75 52.55 31.95 52.9 32.0 53.3 32.0 53.65 32.1 54.0 32.35 54.45 32.5 54.8 Q33.0 66.15 32.95 77.65 L32.85 101.3 32.6 124.9 Q32.4 136.7 32.45 148.55 L32.7 172.2 33.0 195.8 33.05 219.45 32.85 243.05 32.75 246.05 32.65 246.45 32.5 246.8 32.5 247.2 32.5 247.55 32.35 247.95 32.15 248.3 32.05 248.7 32.0 249.05 31.75 249.45 31.25 249.45 31.05 249.05 31.0 248.7 30.85 248.35 30.6 247.9 30.5 247.55 30.5 247.2 30.4 246.8 30.25 246.45 30.0 223.55 30.15 199.95 30.4 176.3 30.5 152.7 30.4 129.05 30.2 105.4 30.1 81.8 Q30.1 69.95 30.45 58.15 L30.4 56.3 30.25 55.9 30.05 55.5 29.9 55.15 29.9 54.8 29.9 54.4 30.0 54.0 30.0 53.65 29.85 53.3 29.5 52.9 29.5 49.9 29.65 46.5 29.9 43.9 29.75 43.55 29.5 43.15 29.4 42.4 29.4 41.65 29.5 40.9 29.5 40.15 29.35 39.8 29.15 39.4 29.0 39.0 29.0 38.65 28.85 38.3 28.65 37.9 28.55 37.5 28.65 37.25 28.65 37.2 29.0 37.15 29.25 37.15 29.75 37.5" fill="#ffffff" fill-opacity="0.2" fill-rule="evenodd" stroke="none"/>
    <path d="M39.65 34.2 L39.3 34.55 39.05 34.9 38.9 35.35 38.8 35.7 38.65 36.1 38.4 36.5 38.15 36.9 37.85 37.7 37.55 38.85 37.4 39.6 37.3 40.05 Q37.5 43.5 36.75 46.8 35.95 50.35 36.1 54.2 36.15 56.8 35.55 59.25 L35.55 83.25 35.4 108.0 35.3 132.75 35.15 157.5 Q35.05 169.85 35.1 182.3 L35.2 207.0 35.3 231.8 35.3 244.6 37.55 244.6 37.6 222.7 37.65 198.0 37.65 173.25 37.6 148.45 37.55 123.75 37.5 98.95 37.35 74.25 Q37.2 61.8 37.9 49.45 38.2 43.3 39.55 37.25 L39.55 36.9 39.55 36.5 39.65 36.1 39.8 35.75 40.4 34.9 40.8 34.15 40.8 33.85 40.75 33.8 40.4 33.75 40.15 33.75 39.65 34.2" fill="#333333" fill-rule="evenodd" stroke="none"/>
    <path d="M27.25 31.4 L27.2 32.2 27.1 32.95 27.0 33.75 Q27.15 35.4 27.7 36.9 L28.45 40.05 28.4 42.0 28.55 42.75 28.75 43.55 28.9 43.95 28.9 44.75 28.9 45.55 28.9 46.35 29.1 47.1 29.3 47.9 29.4 48.25 29.2 68.75 28.95 89.55 Q28.85 95.25 29.05 100.95 L28.95 101.3 28.95 101.75 29.0 102.1 29.05 102.5 29.35 126.9 29.25 136.3 Q28.85 148.65 28.85 161.0 28.8 173.45 29.05 185.8 29.35 198.2 28.95 210.55 28.55 222.85 28.55 235.3 L28.6 244.6 31.15 244.6 31.25 226.8 Q31.3 214.35 31.0 202.05 30.65 189.65 30.8 177.3 L30.85 152.55 30.5 127.75 Q30.3 118.55 30.85 109.35 31.05 106.0 30.8 102.65 L30.8 102.25 30.85 101.85 30.9 101.5 30.85 101.05 30.8 100.7 30.75 80.25 30.45 59.4 30.4 48.0 30.2 47.2 30.0 46.45 29.9 46.05 29.9 45.3 29.9 44.5 29.9 43.7 29.7 42.9 29.5 42.15 29.3 41.35 Q29.3 39.3 28.7 37.5 28.0 35.5 27.95 33.5 27.9 32.1 27.25 31.4" fill="#333333" fill-rule="evenodd" stroke="none"/>
  </g>
</svg>
