<?xml version="1.0" encoding="UTF-8" standalone="no"?>
<svg xmlns:xlink="http://www.w3.org/1999/xlink" height="223.9px" width="17.25px" xmlns="http://www.w3.org/2000/svg">
  <g transform="matrix(1.0, 0.0, 0.0, 1.0, -26.0, -18.8)">
    <path d="M27.85 22.8 L28.5 22.0 29.95 21.65 30.0 21.5 31.25 22.0 34.5 22.0 36.0 21.5 37.0 21.75 38.0 21.75 39.25 22.25 39.75 23.0 40.25 23.75 40.25 24.5 40.25 25.25 40.25 26.0 40.25 27.5 40.25 28.25 40.25 29.0 39.95 29.75 39.5 30.5 39.0 31.25 38.5 32.0 38.5 32.75 38.5 33.5 38.5 34.25 38.25 35.0 38.0 35.75 37.9 36.5 38.0 37.25 38.25 38.0 38.25 38.75 38.25 39.5 38.25 40.25 38.25 41.75 38.25 42.5 38.25 43.25 37.95 44.0 37.5 44.75 Q37.05 65.35 37.2 86.05 L37.55 133.3 37.85 180.55 38.0 227.8 38.0 233.05 37.75 233.8 37.55 234.55 37.45 235.3 37.25 236.05 36.95 236.8 36.5 237.55 35.75 238.05 35.25 238.25 34.0 238.55 32.25 238.05 31.25 237.3 30.75 236.55 30.55 235.8 30.45 235.05 30.25 234.3 30.0 233.55 29.95 192.3 30.25 145.05 30.7 97.8 Q30.95 74.1 30.55 50.5 L30.5 45.25 30.2 44.55 29.75 43.75 29.75 43.0 29.75 42.25 29.75 41.5 29.75 40.75 29.75 40.0 29.4 39.4 28.25 38.5 27.75 37.75 27.75 36.25 27.8 33.25 27.65 28.0 27.5 23.5 27.85 22.8" fill="#339999" fill-opacity="0.3019608" fill-rule="evenodd" stroke="none"/>
    <path d="M41.1 21.15 L41.25 21.55 Q41.65 24.0 41.2 26.4 L39.95 32.0 Q39.35 34.25 38.9 36.55 L38.9 39.9 38.9 44.05 38.9 47.8 38.75 48.15 38.5 48.55 38.25 48.9 37.9 49.3 37.75 49.65 37.5 50.05 37.4 50.4 37.4 50.8 37.4 51.55 37.4 52.3 37.45 52.65 37.6 53.05 37.75 53.4 37.85 54.15 37.9 55.65 37.85 57.15 37.75 57.55 37.6 57.9 37.4 58.3 36.9 58.65 36.0 58.9 35.15 58.65 34.65 58.25 34.25 57.9 34.05 57.5 33.9 57.15 33.95 56.8 34.15 56.4 34.15 56.05 34.15 55.65 34.15 55.3 34.15 54.9 34.05 54.55 33.9 54.15 33.75 53.8 33.6 52.3 33.65 50.05 33.65 47.8 33.65 47.55 33.6 47.45 33.0 47.4 32.15 47.15 31.65 46.75 31.25 46.4 31.15 46.05 31.15 45.65 31.15 45.3 31.15 44.9 31.15 44.55 31.0 44.15 30.9 43.8 30.75 43.4 30.65 43.05 30.65 41.55 30.45 38.95 30.15 36.3 29.85 35.9 29.65 35.65 29.35 35.55 28.65 35.3 28.25 34.9 28.0 34.55 28.0 34.15 28.1 33.05 28.15 31.9 28.15 30.8 27.9 30.0 27.5 28.55 27.0 27.05 26.9 26.65 26.9 26.3 26.9 25.15 26.9 24.05 26.9 22.9 26.95 22.55 27.15 22.15 27.5 21.8 27.9 21.55 28.5 21.45 29.0 21.4 29.75 21.65 30.25 22.05 30.5 22.4 30.6 22.8 30.65 23.15 30.75 23.55 30.95 23.85 31.5 24.3 31.9 24.65 32.15 24.8 32.35 24.5 32.65 24.15 32.7 23.75 32.75 23.4 32.75 23.05 33.0 22.65 33.25 22.3 33.65 22.05 33.9 21.95 34.5 21.8 35.0 21.8 35.9 22.05 36.25 22.4 36.5 22.8 36.65 23.15 36.7 23.55 36.75 23.9 36.75 24.15 37.5 24.05 37.6 23.65 37.65 23.3 37.65 22.55 37.65 21.8 37.75 21.4 37.9 21.05 38.25 20.65 38.65 20.4 38.9 20.3 39.5 20.2 39.5 20.15 40.4 20.4 40.9 20.8 41.1 21.15" fill="#339999" fill-opacity="0.3019608" fill-rule="evenodd" stroke="none"/>
    <path d="M28.15 21.4 L28.4 21.3 29.0 21.15 29.9 21.4 30.35 21.8 30.65 22.05 30.7 21.9 30.75 21.55 30.75 21.15 30.75 20.8 30.75 20.4 30.8 20.05 31.0 19.65 31.25 19.3 31.65 19.05 31.9 18.95 32.5 18.85 32.5 18.8 33.4 19.05 33.85 19.45 34.45 20.2 34.9 20.9 35.15 21.3 35.3 24.65 35.25 29.15 35.25 33.3 35.3 33.25 35.4 32.9 35.5 32.55 35.65 32.15 35.75 31.8 35.9 31.4 36.1 31.0 36.25 30.65 36.65 30.3 37.15 29.9 38.0 29.65 38.9 29.9 39.4 30.3 39.6 30.65 39.75 31.05 39.95 32.55 39.9 34.8 39.9 37.05 39.9 37.4 39.75 37.75 39.5 38.15 39.25 38.9 38.9 40.05 38.5 41.55 38.4 42.3 38.25 42.65 38.05 43.05 37.9 43.4 37.45 46.0 36.75 49.8 35.9 52.8 35.9 53.15 35.9 53.55 35.9 53.9 35.9 54.3 35.75 54.65 35.65 55.05 35.5 55.4 35.4 55.8 35.4 56.15 35.45 56.5 35.9 56.9 36.4 57.3 36.6 57.65 36.75 58.05 36.85 58.8 36.9 59.9 36.9 61.4 36.9 62.55 36.75 62.9 36.65 63.3 36.45 63.6 36.0 64.05 35.65 64.3 35.0 64.4 34.25 64.55 34.1 64.9 33.9 65.3 33.75 65.65 33.65 66.05 33.5 66.4 33.4 66.8 33.4 67.15 33.4 67.55 33.4 67.9 33.4 68.3 33.25 68.65 33.15 69.05 33.0 69.4 32.9 69.8 32.9 70.15 32.9 70.55 32.9 70.9 32.9 71.3 32.75 71.65 32.55 72.05 32.4 72.4 32.35 72.8 32.25 73.15 32.0 73.55 31.75 73.9 31.4 74.15 31.1 74.25 30.5 74.4 29.65 74.15 29.15 73.75 28.75 73.4 28.65 73.05 28.65 72.65 28.65 72.3 28.65 71.55 28.65 71.15 28.75 70.8 28.9 70.4 29.0 70.05 29.15 69.65 29.15 69.3 29.15 68.9 29.25 68.55 29.4 68.15 29.5 67.8 29.65 67.4 29.65 67.05 29.65 66.65 29.65 66.3 29.65 65.9 29.75 65.55 29.9 65.15 30.0 64.8 30.15 64.4 30.15 61.4 30.15 57.3 30.15 53.15 30.05 52.8 29.75 52.4 29.4 52.0 29.25 51.65 29.15 51.3 29.15 50.9 29.15 50.55 29.15 50.15 29.15 49.8 29.0 49.4 28.9 49.05 28.75 48.65 Q28.45 44.15 27.8 39.7 27.1 35.05 27.15 30.3 L27.25 22.4 27.4 22.05 27.75 21.65 28.15 21.4" fill="#339999" fill-opacity="0.3019608" fill-rule="evenodd" stroke="none"/>
    <path d="M38.5 33.55 L38.35 33.9 38.15 34.3 37.8 35.4 37.5 36.5 37.15 37.65 37.2 41.4 37.3 45.55 37.5 48.15 37.0 49.25 36.4 50.4 36.0 51.15 Q36.45 62.55 36.45 74.05 L36.45 97.65 36.5 117.15 36.4 117.55 36.25 117.9 36.4 140.8 36.4 164.45 36.3 188.05 36.5 193.3 36.5 210.55 36.6 228.2 Q36.7 233.5 36.25 238.7 L36.1 239.05 35.85 239.45 35.65 239.7 35.5 239.8 35.0 239.95 34.4 239.7 34.0 239.3 33.75 238.95 Q33.3 227.55 33.35 216.05 L33.5 192.45 33.6 168.8 33.6 145.2 Q33.55 133.35 33.75 121.55 L33.75 118.15 33.65 117.8 33.5 117.4 33.45 94.55 33.55 70.9 Q33.65 60.95 34.0 51.05 34.05 50.45 34.35 49.9 L35.0 48.75 35.5 47.65 35.7 43.9 35.8 39.8 35.9 37.15 36.0 36.8 36.15 36.4 36.25 36.05 36.5 35.65 36.65 35.3 36.75 34.9 36.9 34.55 37.25 33.8 37.7 33.3 Q37.95 33.15 38.25 33.15 L38.5 33.55" fill="#339999" fill-opacity="0.3019608" fill-rule="evenodd" stroke="none"/>
    <path d="M36.4 150.3 L36.6 150.7 36.75 151.05 36.95 173.95 36.9 197.55 36.9 221.2 36.9 231.35 36.75 231.7 36.5 232.1 36.25 232.45 35.9 232.7 35.6 232.8 35.0 232.95 34.15 232.7 33.65 232.3 33.25 231.95 33.1 209.05 33.15 185.45 33.05 161.8 33.25 150.95 33.4 150.6 33.75 150.2 34.15 149.95 34.4 149.85 35.0 149.75 35.0 149.7 35.9 149.95 36.4 150.3" fill="#339999" fill-opacity="0.3019608" fill-rule="evenodd" stroke="none"/>
    <path d="M30.8 37.0 L30.75 39.65 30.75 41.5 30.8 41.9 31.0 42.25 31.15 42.65 31.25 43.0 31.6 43.45 31.75 43.75 31.9 49.4 32.1 55.05 Q32.25 56.95 32.0 58.8 L31.85 59.15 31.65 59.55 31.65 59.9 31.75 60.3 32.0 61.05 32.15 61.4 32.2 84.65 32.25 108.3 Q32.25 120.1 32.4 131.9 L32.5 155.55 32.4 179.2 32.4 202.8 32.4 226.45 32.4 240.7 32.25 241.05 32.15 241.45 32.0 241.8 31.9 242.2 31.75 242.45 31.5 242.55 31.0 242.7 30.25 242.45 30.0 242.05 29.9 241.7 29.75 241.3 29.65 240.95 29.65 217.7 29.65 194.05 29.7 170.45 29.75 146.8 29.75 123.15 29.75 99.55 Q29.75 87.7 29.9 75.9 L29.9 62.05 29.75 61.65 29.65 61.3 29.5 60.9 29.4 60.55 29.4 60.15 29.4 59.8 29.4 59.4 29.4 59.05 29.45 58.65 29.65 58.3 29.9 57.9 29.9 53.05 30.05 48.15 30.15 44.4 30.0 44.05 29.75 43.65 29.7 43.3 29.55 42.9 29.4 42.5 Q29.15 41.4 29.2 40.25 L29.2 37.65 Q29.15 36.5 29.4 35.4 L29.15 35.0 28.95 34.65 28.9 34.25 29.15 34.1 29.5 34.0 29.75 34.0 30.25 34.4 30.5 34.75 30.8 37.0" fill="#ffffff" fill-opacity="0.2" fill-rule="evenodd" stroke="none"/>
    <path d="M36.75 69.4 Q37.5 93.05 37.35 116.7 37.2 137.4 37.5 158.05 L37.85 207.4 37.75 238.6 35.45 238.6 Q35.55 166.95 35.15 95.3 35.05 74.65 35.8 54.05 36.2 43.3 38.5 32.85 40.15 25.45 43.25 20.25 35.95 43.9 36.75 69.4" fill="#333333" fill-rule="evenodd" stroke="none"/>
    <path d="M27.0 29.2 L27.3 29.55 27.5 29.9 27.65 30.35 27.7 30.7 27.85 31.1 28.05 31.5 28.25 31.9 28.5 32.7 28.75 33.85 28.9 34.6 28.95 35.05 Q28.8 38.5 29.4 41.8 30.1 45.35 29.95 49.2 29.9 51.8 30.4 54.25 L30.4 78.25 30.55 103.0 30.65 127.75 30.75 152.5 30.8 177.3 30.7 202.0 30.65 226.8 30.65 238.6 28.75 238.6 28.7 217.7 28.7 193.0 28.7 168.25 28.7 143.45 28.75 118.75 28.8 93.95 28.95 69.25 Q29.05 56.8 28.45 44.45 28.2 38.3 27.1 32.25 L27.1 31.9 27.1 31.5 27.0 31.1 26.9 30.75 26.4 29.9 26.05 29.15 26.05 28.85 26.1 28.8 26.4 28.75 26.6 28.75 27.0 29.2" fill="#333333" fill-rule="evenodd" stroke="none"/>
  </g>
</svg>
