<?xml version="1.0" encoding="UTF-8" standalone="no"?>
<svg xmlns:xlink="http://www.w3.org/1999/xlink" height="237.4px" width="20.25px" xmlns="http://www.w3.org/2000/svg">
  <g transform="matrix(1.0, 0.0, 0.0, 1.0, -22.35, -10.9)">
    <path d="M40.0 39.75 L39.95 40.5 39.7 41.25 39.3 42.05 39.0 42.8 38.6 44.2 37.6 46.55 36.0 49.55 36.0 52.55 36.0 57.05 36.0 60.05 36.25 60.8 36.5 61.55 36.5 69.05 36.5 75.05 36.5 83.3 36.5 84.05 36.75 84.8 37.0 85.55 37.0 127.55 36.95 174.8 Q36.9 198.5 37.3 222.05 37.4 227.35 37.0 232.55 L36.7 233.3 36.25 234.05 35.75 234.8 34.75 235.55 33.0 236.05 31.0 235.55 30.0 234.8 29.5 234.05 Q28.35 213.2 28.65 192.05 L29.0 144.8 29.0 97.55 29.0 85.55 29.25 84.8 29.5 84.05 29.5 76.55 29.5 70.55 29.5 62.3 29.5 61.55 29.35 60.85 28.8 60.0 28.25 59.3 28.1 58.5 28.0 57.8 28.0 57.05 28.0 56.3 27.9 55.55 27.5 54.8 27.5 53.05 27.4 49.65 27.0 47.6 26.95 45.8 Q26.85 44.25 27.25 42.8 L27.55 42.05 27.9 41.25 28.0 40.5 28.0 40.0 27.95 39.9 26.25 39.25 26.0 38.9 26.0 33.5 26.0 30.15 25.9 29.75 25.75 29.4 25.65 29.0 25.5 28.65 25.25 27.9 25.15 27.5 25.0 27.15 24.75 26.8 24.1 26.05 23.25 25.3 23.25 25.0 23.25 23.5 23.35 22.05 23.5 20.5 23.85 19.85 24.5 19.0 25.75 18.25 25.8 17.55 26.1 16.8 26.5 16.25 27.05 16.1 28.0 15.9 28.0 15.75 29.25 16.25 29.75 17.0 30.2 17.8 30.55 18.5 31.0 19.25 31.2 20.05 31.25 20.75 31.25 21.5 31.25 21.75 31.75 21.25 32.5 20.5 33.8 19.05 34.25 18.5 34.8 18.3 36.0 18.0 37.5 18.5 38.25 19.3 38.75 20.0 38.95 21.55 39.0 23.75 39.0 26.75 39.0 27.5 38.25 29.75 37.25 32.75 36.25 35.75 36.0 36.5 36.1 36.8 37.0 37.0 38.5 37.5 39.25 38.3 39.7 39.05 40.0 39.75" fill="#339999" fill-opacity="0.3019608" fill-rule="evenodd" stroke="none"/>
    <path d="M28.5 19.65 L29.4 19.9 29.9 20.25 30.15 20.65 30.4 21.0 30.5 21.15 30.6 20.9 30.65 20.5 30.65 20.15 30.65 19.75 30.65 19.4 30.75 19.0 30.9 18.65 31.0 18.25 31.15 17.9 31.4 17.55 31.75 17.15 32.15 16.9 32.4 16.8 33.0 16.65 33.5 16.65 34.4 16.9 34.9 17.25 35.05 17.2 35.25 16.9 35.4 16.5 35.75 16.15 36.15 15.9 36.4 15.8 37.0 15.7 37.0 15.65 37.9 15.9 38.4 16.25 38.6 16.65 38.75 17.0 38.85 17.75 38.9 19.25 38.9 20.75 38.9 21.15 39.05 21.5 39.25 21.9 39.35 22.3 39.4 23.4 39.4 24.5 39.4 25.65 39.25 26.0 39.15 26.4 39.0 26.75 38.75 27.15 38.85 32.0 Q38.95 34.9 38.4 37.7 L37.25 42.15 37.25 42.55 37.25 42.9 37.25 43.65 37.25 44.4 37.25 44.8 37.1 45.15 36.85 45.5 36.55 45.9 36.25 46.3 35.9 46.55 35.65 46.65 35.0 46.8 34.15 46.55 33.75 46.55 33.75 48.05 33.8 50.3 33.65 52.55 33.5 52.9 33.25 53.3 32.9 53.55 32.65 53.65 32.0 53.8 31.15 53.55 30.65 53.15 30.4 52.8 Q30.15 52.05 30.2 51.3 L30.25 48.65 30.25 46.4 30.25 46.05 30.1 45.65 29.9 45.3 29.8 44.9 29.75 44.55 29.55 44.15 29.4 43.8 29.3 43.4 29.25 42.65 29.25 41.55 29.25 40.4 28.55 37.8 Q28.1 36.1 27.8 34.4 L27.25 31.4 27.1 31.05 26.9 30.65 26.75 30.25 26.6 27.65 26.6 24.25 Q26.55 22.55 26.75 20.9 L26.9 20.55 27.25 20.15 27.65 19.9 27.9 19.8 28.5 19.65" fill="#339999" fill-opacity="0.3019608" fill-rule="evenodd" stroke="none"/>
    <path d="M33.0 30.25 L33.9 30.5 34.25 30.9 34.5 31.3 34.65 31.65 34.8 33.15 34.75 35.4 34.75 37.65 34.75 38.05 34.85 38.0 35.25 37.65 35.65 37.4 35.9 37.3 36.5 37.15 37.4 37.4 37.9 37.8 38.1 38.15 38.25 38.55 38.35 38.9 38.4 39.3 38.4 39.65 38.4 40.05 38.5 40.4 38.65 40.8 38.75 41.15 38.9 41.55 38.9 41.9 38.9 42.3 38.9 42.65 38.75 43.05 38.5 43.8 38.15 44.9 37.9 45.65 37.9 46.05 37.9 46.4 37.9 47.15 37.9 47.9 37.75 48.3 37.65 48.65 37.6 49.0 37.5 49.4 37.4 49.8 37.4 50.15 37.4 50.55 37.4 50.9 37.25 51.25 37.0 51.65 36.9 52.05 36.9 52.4 36.9 52.8 36.75 53.15 36.65 53.55 36.5 53.9 36.4 54.3 Q36.3 54.45 36.35 54.65 L36.5 55.05 36.75 55.4 36.85 56.15 36.9 57.3 36.9 58.8 36.9 59.15 36.75 59.55 36.65 59.9 36.5 60.3 36.4 60.65 36.4 62.9 36.35 65.9 36.5 68.9 36.45 69.25 36.3 69.65 36.1 70.0 35.9 70.3 35.65 70.4 35.0 70.55 34.15 70.3 33.5 70.55 33.15 70.8 32.5 70.9 31.65 70.65 31.15 70.25 30.75 69.9 30.6 67.65 30.6 64.65 Q30.55 63.3 30.9 62.05 L30.75 61.65 30.65 61.3 30.65 60.9 30.65 60.55 30.5 60.15 30.25 59.8 30.15 59.4 30.15 59.05 30.15 58.65 30.15 58.3 30.0 57.9 29.9 57.55 29.75 57.15 29.65 56.8 29.65 56.4 29.65 56.05 29.65 55.65 29.65 55.3 29.5 54.9 29.15 53.8 28.9 52.65 28.65 51.9 28.75 45.15 28.9 38.8 28.9 32.4 28.95 32.05 29.15 31.65 29.5 31.3 29.9 31.0 30.5 30.9 31.25 31.0 31.6 30.85 32.15 30.5 33.0 30.35 33.0 30.25" fill="#339999" fill-opacity="0.3019608" fill-rule="evenodd" stroke="none"/>
    <path d="M37.65 27.75 L38.1 37.55 Q38.2 42.6 37.75 47.6 37.45 50.4 37.75 53.3 L37.5 54.05 37.15 55.15 36.75 56.3 36.75 56.65 36.75 57.05 36.7 57.4 36.55 57.8 36.4 58.15 36.45 61.55 36.5 64.9 36.5 67.15 36.4 67.55 36.25 67.9 36.15 68.3 36.0 68.65 36.2 92.3 36.15 115.55 36.15 139.15 36.15 162.8 36.15 186.45 36.0 210.05 35.9 233.7 35.9 239.7 35.75 240.05 35.5 240.45 35.25 240.7 35.1 240.8 34.5 240.95 33.65 240.7 33.4 240.3 33.15 239.95 33.1 216.3 33.0 193.05 32.9 169.45 32.9 145.8 32.9 122.15 32.9 98.55 32.85 74.9 Q32.85 71.5 33.0 68.15 L33.15 67.8 33.25 67.4 33.4 67.05 33.5 66.65 33.6 63.3 33.65 59.9 33.75 57.65 33.9 57.3 34.15 56.9 34.25 56.5 34.25 56.15 34.25 55.8 34.25 55.4 34.5 54.65 34.9 53.55 35.25 52.4 Q35.75 47.75 35.85 43.05 L36.05 33.25 Q36.05 30.45 36.4 27.65 L36.65 27.45 37.0 27.4 37.25 27.4 37.65 27.75" fill="#339999" fill-opacity="0.3019608" fill-rule="evenodd" stroke="none"/>
    <path d="M30.9 183.7 L31.15 186.7 Q31.15 188.4 31.5 190.05 L31.65 192.7 31.9 192.75 32.15 192.7 32.4 192.55 33.0 192.45 33.75 192.7 34.25 193.05 34.5 193.45 34.65 193.8 34.85 194.2 35.0 194.55 35.1 194.95 35.15 195.3 35.15 195.7 35.15 196.45 Q36.15 199.75 36.15 203.2 L36.25 209.55 Q36.4 212.45 35.65 215.2 L35.65 220.45 35.65 226.05 35.65 229.8 35.5 230.2 35.05 230.95 34.6 231.7 34.4 231.95 34.15 232.05 33.5 232.2 32.5 232.45 32.35 232.8 32.1 233.2 31.9 233.45 31.65 233.55 31.0 233.7 30.15 233.45 29.4 232.7 28.3 231.55 28.0 231.2 27.85 229.3 27.9 227.05 Q27.95 225.9 28.4 224.8 L28.4 223.3 28.4 221.45 28.4 219.55 28.4 219.2 28.55 218.85 28.9 218.45 29.2 218.05 29.4 217.7 29.25 217.5 28.5 218.5 27.65 219.6 27.4 219.8 27.1 219.9 26.5 220.05 25.65 219.8 25.25 219.45 25.0 219.05 25.0 218.7 25.0 218.3 25.0 217.95 25.05 217.6 25.25 217.2 25.5 216.8 25.55 216.45 25.75 216.05 25.9 215.7 26.15 214.95 26.4 214.2 26.65 213.45 26.9 213.05 27.0 212.7 27.15 212.3 27.4 211.95 27.5 211.55 27.65 211.2 27.9 210.45 28.0 210.05 28.0 201.05 28.0 192.45 28.0 185.7 28.2 185.35 28.5 184.95 28.9 184.55 28.8 184.2 28.75 183.8 29.15 183.45 29.5 183.2 30.0 183.15 30.0 183.05 30.65 183.3 30.9 183.7" fill="#339999" fill-opacity="0.3019608" fill-rule="evenodd" stroke="none"/>
    <path d="M29.9 34.75 L29.9 35.15 29.9 35.5 30.0 35.9 30.15 36.25 30.25 36.65 30.4 37.0 30.4 37.4 30.4 37.75 30.4 38.15 30.4 38.5 30.55 38.9 30.75 39.3 30.9 39.65 30.95 40.05 31.0 40.75 31.0 41.9 31.0 43.0 31.05 43.4 31.25 43.75 31.5 44.15 31.85 66.3 32.0 89.9 32.05 113.55 32.05 137.15 31.95 160.8 31.9 184.45 31.9 208.05 32.05 231.7 Q32.1 239.8 31.5 247.8 L31.25 248.05 31.0 248.2 30.5 248.3 29.75 248.05 29.4 247.7 Q29.0 236.65 29.05 225.55 L29.15 201.95 29.2 178.3 29.15 154.7 29.05 131.05 29.0 107.4 29.0 83.8 29.2 60.15 29.4 45.5 29.35 45.15 29.15 44.75 28.9 44.4 28.9 44.05 29.0 42.9 29.0 41.75 29.0 40.65 28.95 40.3 28.8 39.9 28.65 39.5 28.55 39.15 28.55 38.8 28.6 38.0 28.65 37.25 28.5 36.9 28.4 36.5 28.25 36.15 28.15 35.75 28.15 35.4 28.15 35.0 28.15 34.65 28.1 34.3 27.9 33.9 27.75 33.5 27.65 33.15 27.65 32.8 27.75 32.4 27.75 32.0 27.65 31.65 27.5 31.3 27.25 30.9 27.25 30.5 27.25 30.15 27.25 29.75 27.05 29.5 26.15 29.0 25.95 28.65 25.9 28.25 26.15 28.1 26.5 27.95 26.5 27.9 27.75 28.0 28.1 28.4 28.4 28.75 28.65 29.15 28.75 29.55 28.75 29.9 28.75 30.25 28.9 30.65 29.15 31.0 29.25 31.4 29.25 31.75 29.25 32.15 29.25 32.5 29.4 32.9 29.6 33.3 29.75 33.65 29.85 34.05 29.9 34.4 29.9 34.75" fill="#ffffff" fill-opacity="0.2" fill-rule="evenodd" stroke="none"/>
    <path d="M41.35 17.15 L42.15 10.9 Q43.35 17.05 41.25 22.75 40.3 25.4 40.0 28.2 38.45 42.25 37.8 56.5 L36.85 71.3 Q36.4 76.7 36.6 82.35 L36.9 94.0 36.9 129.35 36.9 155.95 36.9 164.75 36.95 182.5 37.05 206.15 37.1 221.1 37.2 235.95 37.2 239.1 35.0 239.1 35.0 113.55 34.9 89.9 Q34.8 75.15 35.85 60.25 L36.95 42.45 Q37.45 32.65 39.85 23.2 L40.95 19.2 41.2 18.25 41.35 17.15" fill="#333333" fill-rule="evenodd" stroke="none"/>
    <path d="M28.45 64.4 Q27.75 88.05 27.9 111.7 L27.75 153.05 Q27.35 177.8 27.4 202.4 L27.6 239.05 29.65 239.05 Q29.55 164.7 29.95 90.3 30.05 69.65 29.35 49.05 28.95 38.3 26.8 27.85 25.25 20.45 22.35 15.25 29.2 38.9 28.45 64.4" fill="#333333" fill-rule="evenodd" stroke="none"/>
  </g>
</svg>
