<?xml version="1.0" encoding="UTF-8" standalone="no"?>
<svg xmlns:xlink="http://www.w3.org/1999/xlink" height="81.75px" width="82.7px" xmlns="http://www.w3.org/2000/svg">
  <g transform="matrix(1.0, 0.0, 0.0, 1.0, 9.2, 7.85)">
    <path d="M20.9 -0.75 L21.05 -1.1 21.3 -1.45 21.65 -1.85 22.0 -2.25 22.4 -2.6 22.65 -2.85 22.9 -2.9 28.0 -3.1 28.75 -2.85 29.25 -2.45 29.6 -2.1 29.85 -1.7 30.0 -1.35 30.1 -0.95 30.15 -0.6 30.15 -0.25 30.15 0.0 30.4 0.0 31.0 -0.15 31.65 -0.35 32.5 -0.6 36.0 -0.6 36.75 -0.35 37.5 -0.1 38.25 0.15 38.75 0.5 39.0 0.9 39.1 1.3 39.15 1.65 39.15 2.0 39.2 2.4 39.35 2.8 39.55 3.15 39.75 3.4 39.85 3.25 39.9 2.9 39.9 2.5 39.9 2.15 40.05 1.8 40.25 1.4 40.7 0.7 41.4 -0.1 41.65 -0.35 41.9 -0.45 42.5 -0.55 44.5 -0.6 45.25 -0.35 45.65 -0.15 46.25 0.15 46.65 0.4 47.4 0.5 47.7 0.35 47.9 0.05 48.35 -0.75 48.75 -1.5 48.9 -1.85 48.9 -2.2 49.05 -2.6 49.3 -2.95 49.65 -3.35 50.5 -3.55 50.5 -3.6 52.5 -3.6 53.25 -3.35 53.65 -3.15 54.25 -2.85 54.75 -2.45 55.15 -2.1 55.5 -1.75 55.85 -1.3 56.0 -1.0 56.1 -0.6 56.15 -0.25 56.15 0.5 56.15 1.25 56.25 2.0 56.55 2.15 59.0 2.4 59.8 2.6 61.0 2.95 61.75 3.15 62.25 3.55 62.5 3.75 62.65 3.85 63.25 4.15 63.75 4.55 64.5 5.25 64.9 5.65 65.5 6.4 65.6 6.8 65.65 7.55 65.65 8.3 65.65 9.05 65.65 9.8 65.5 10.15 65.25 10.55 65.2 10.9 65.15 11.65 65.15 12.4 65.15 13.15 65.15 14.3 65.0 14.65 64.75 15.05 64.25 15.4 64.15 15.8 64.15 16.15 64.15 16.55 64.15 16.65 67.0 16.9 67.75 17.15 68.25 17.55 68.5 17.9 68.6 18.3 68.65 18.65 68.65 19.05 68.65 19.4 68.7 19.75 68.9 20.15 71.5 20.4 72.25 20.65 72.75 21.05 73.0 21.4 73.15 21.8 73.1 22.15 73.0 22.55 72.9 22.9 72.5 23.3 72.15 23.65 71.9 23.9 71.65 24.0 70.75 24.3 70.5 24.65 70.25 25.0 69.9 25.4 69.5 25.75 69.15 26.05 68.65 26.15 68.65 26.2 70.5 26.4 71.25 26.65 71.75 27.05 72.15 27.4 72.35 27.8 72.5 28.15 72.6 28.55 72.65 28.9 72.65 29.3 72.5 29.65 72.25 30.05 72.05 30.4 71.85 30.75 71.65 31.15 71.4 31.4 71.15 31.5 68.2 32.1 68.15 32.3 68.1 32.65 68.1 33.05 68.15 33.4 68.15 33.8 68.0 34.15 67.75 34.5 67.4 34.9 67.0 35.3 66.65 35.65 66.4 35.9 66.15 36.0 62.5 36.15 61.65 35.9 61.3 35.5 61.0 35.15 60.9 34.8 60.9 34.4 60.9 34.05 60.9 33.65 61.05 33.3 61.4 32.9 61.65 32.55 61.25 32.15 60.9 32.45 60.5 32.75 60.15 33.0 59.55 33.3 59.15 33.55 58.5 33.6 56.5 33.65 55.65 33.4 55.25 33.05 54.9 32.65 54.5 32.3 54.4 31.9 54.4 31.55 54.4 31.15 54.4 30.9 54.4 30.85 51.5 30.65 50.65 30.4 50.3 30.0 50.0 29.65 49.9 29.3 49.9 28.9 49.9 28.55 49.9 28.15 49.9 27.8 50.0 27.4 49.85 27.1 49.4 26.65 49.0 26.3 48.9 25.9 48.9 25.55 48.9 25.15 48.9 24.8 49.05 24.4 49.25 24.05 Q46.4 23.1 42.0 23.6 L41.0 23.65 40.15 23.4 39.8 23.0 39.5 22.65 39.4 22.25 39.4 21.9 39.4 21.55 39.4 21.15 39.4 20.8 39.35 20.6 36.9 20.4 36.65 20.8 36.65 21.15 36.65 21.9 36.6 22.65 36.65 23.8 36.75 25.3 36.6 25.65 36.35 26.0 36.05 26.4 35.75 26.8 35.4 27.05 35.15 27.15 34.5 27.25 34.0 27.3 33.15 27.05 32.75 26.8 31.9 26.9 31.75 27.3 31.65 27.65 31.5 28.05 31.4 28.4 31.15 28.8 31.0 29.15 30.75 29.55 30.25 29.9 29.5 30.15 28.5 30.15 27.65 29.9 27.25 29.55 26.9 29.15 26.5 28.8 26.4 28.4 26.4 28.05 26.4 27.65 26.4 27.3 26.4 26.9 26.4 26.55 26.4 26.4 23.4 26.4 23.0 26.75 22.65 27.05 22.0 27.1 20.5 27.15 19.65 26.9 19.3 26.5 19.0 26.15 18.9 25.75 18.9 25.4 18.9 25.05 18.9 24.65 18.7 24.45 18.25 24.55 17.9 24.9 17.5 25.3 17.15 25.65 16.9 25.9 16.65 26.0 13.15 26.4 13.35 26.8 13.55 27.15 14.0 27.9 14.35 28.65 14.5 29.05 14.6 29.4 14.65 29.8 14.6 30.15 14.5 30.55 14.35 30.9 14.0 31.25 13.65 31.55 13.0 31.65 12.5 31.65 11.65 31.4 11.25 31.05 10.9 30.65 10.4 30.4 9.5 30.65 9.0 30.65 8.15 30.4 7.75 30.05 7.4 29.65 7.0 29.3 6.7 29.2 6.65 29.4 6.55 29.75 6.2 30.5 5.9 30.9 5.15 31.65 4.9 31.9 4.6 32.0 4.0 32.15 3.15 31.9 2.65 32.0 2.0 32.15 1.15 31.9 0.75 31.5 0.5 31.15 0.4 30.8 0.4 30.4 0.4 30.05 0.4 29.65 0.4 29.4 0.35 29.35 -2.0 29.15 -2.85 28.9 -3.25 28.55 -3.5 28.3 -3.5 28.2 -4.0 28.15 -4.85 27.9 -5.25 27.5 -5.5 27.15 -5.6 26.8 -5.6 26.4 -5.6 26.05 -5.6 25.65 -5.6 25.3 -5.5 24.9 -5.65 24.55 -6.0 24.15 -6.35 23.8 -6.45 23.4 -6.5 22.65 -6.5 21.9 -6.5 21.15 -6.5 20.4 -6.45 20.05 -6.25 19.65 -5.85 19.3 -5.0 18.9 -5.0 18.55 -5.0 18.15 -5.0 17.8 -5.0 17.4 -5.0 17.05 -5.0 16.65 -5.0 16.3 -4.85 15.9 -4.6 15.55 -4.55 15.15 -4.5 14.8 -4.5 14.4 -4.5 14.05 -4.5 13.65 -4.5 13.3 -4.5 12.9 -4.45 12.55 -4.25 12.15 -3.85 11.8 -3.5 11.4 -3.1 11.15 -2.5 11.1 0.0 11.05 1.0 11.05 1.75 11.3 2.1 11.65 2.4 12.05 2.45 12.4 2.5 12.8 2.6 12.75 2.8 12.4 3.0 12.05 3.1 11.65 3.15 11.3 3.15 10.9 3.15 10.55 3.15 10.15 3.15 9.8 3.15 9.4 3.2 9.05 3.4 8.65 3.75 8.3 4.15 7.9 5.0 7.65 5.75 7.9 6.15 8.15 6.75 8.4 7.25 8.8 7.5 9.15 7.75 9.55 7.85 9.9 7.9 10.3 7.9 10.65 7.9 11.05 8.15 11.1 8.4 11.05 9.0 10.75 9.4 10.55 10.0 10.45 12.75 10.3 12.7 10.05 12.4 9.65 12.0 9.3 11.95 8.9 11.9 7.4 11.9 5.55 11.9 3.25 11.9 2.9 11.95 2.55 12.15 2.15 12.5 1.8 12.9 1.5 13.5 1.45 19.65 1.15 20.75 0.75 20.85 0.4 20.9 0.0 20.9 -0.35 20.9 -0.75 M0.3 16.65 L0.05 16.45 -0.1 16.35 -0.3 16.3 -0.5 16.3 -0.9 16.25 -0.9 16.3 -1.1 16.3 -1.3 16.35 -1.5 16.45 -1.6 16.55 -1.65 16.65 -1.75 16.75 -1.85 16.85 -1.9 16.9 -1.95 17.0 -1.95 17.1 -2.0 17.2 -2.0 17.3 -2.0 17.4 -2.0 17.5 -2.0 17.6 -2.0 17.65 -1.95 17.75 -1.95 17.85 -1.9 17.95 -1.85 18.05 -1.75 18.15 -1.65 18.25 -1.6 18.35 -1.0 18.55 -0.4 18.6 0.0 18.5 0.45 18.2 0.6 18.05 0.7 17.85 0.75 17.75 0.75 17.65 0.75 17.6 0.75 17.5 0.75 17.4 0.75 17.3 0.7 17.2 0.65 17.1 0.45 16.85 0.3 16.65 M56.45 27.05 L56.1 27.05 55.6 27.0 55.6 27.05 55.45 27.05 55.3 27.1 55.2 27.1 55.1 27.2 54.95 27.25 54.85 27.35 54.8 27.45 54.7 27.55 54.7 27.65 54.65 27.75 54.6 27.85 54.6 28.0 54.6 28.2 54.6 28.3 54.6 28.4 54.6 28.5 54.6 28.6 54.6 28.65 54.65 28.75 54.7 28.85 54.7 28.95 54.8 29.05 54.85 29.15 54.95 29.25 55.05 29.35 55.45 29.45 56.45 29.5 56.6 29.45 56.7 29.4 56.8 29.35 56.95 29.25 57.0 29.15 57.1 29.1 57.15 29.0 57.2 28.9 57.2 28.8 57.25 28.7 57.3 28.6 57.3 28.5 57.3 28.25 57.3 28.05 57.25 27.95 57.25 27.75 57.2 27.65 57.15 27.6 57.1 27.5 57.05 27.4 56.95 27.3 56.85 27.2 56.7 27.1 56.45 27.05" fill="#ffffff" fill-rule="evenodd" stroke="none"/>
    <path d="M18.35 -7.1 L19.2 -7.05 19.4 -6.85 19.45 -6.65 19.45 -6.5 19.35 -6.3 19.15 -6.1 19.05 -5.9 18.95 -5.8 18.85 -5.75 18.6 -5.65 18.2 -5.8 18.1 -6.0 17.95 -6.15 17.8 -6.35 17.8 -6.55 17.9 -6.75 18.2 -7.0 18.35 -7.05 18.35 -7.1" fill="#ffffff" fill-rule="evenodd" stroke="none"/>
    <path d="M69.6 11.0 L69.6 10.95 69.85 10.95 70.15 11.1 70.3 11.25 70.4 11.45 70.4 11.65 70.4 11.85 70.35 12.0 70.3 12.2 70.15 12.4 70.05 12.6 69.85 12.75 69.65 12.95 69.25 13.1 68.9 13.1 68.75 12.9 68.65 12.7 68.6 12.5 68.65 12.35 68.75 12.15 68.75 11.95 68.8 11.75 68.8 11.6 68.85 11.4 69.0 11.2 69.1 11.1 69.35 11.0 69.6 11.0" fill="#ffffff" fill-rule="evenodd" stroke="none"/>
    <path d="M63.1 41.45 L63.35 41.45 63.35 41.4 63.6 41.4 63.9 41.5 64.1 41.7 64.25 41.9 64.25 42.3 64.25 42.65 64.25 43.2 64.25 43.4 64.15 43.6 64.05 43.8 63.85 43.9 63.6 43.95 63.1 43.95 62.75 43.85 62.55 43.65 62.5 43.45 62.45 43.3 62.45 43.1 62.45 42.7 62.45 42.55 62.5 42.35 62.6 42.15 62.7 41.95 62.75 41.75 62.9 41.6 63.1 41.45" fill="#ffffff" fill-rule="evenodd" stroke="none"/>
    <path d="M45.3 23.6 L45.6 23.45 45.8 23.35 46.1 23.25 46.4 23.15 46.45 22.95 46.45 22.75 46.45 22.6 46.6 22.4 46.7 22.25 46.85 22.25 47.1 22.2 47.1 22.15 47.35 22.2 47.6 22.3 47.9 22.4 48.15 22.6 48.4 22.8 48.55 22.9 48.6 22.95 48.85 23.05 49.2 23.15 50.35 23.2 50.7 23.35 50.95 23.5 51.1 23.7 51.15 23.9 51.25 24.1 51.35 24.25 51.45 25.0 51.4 25.95 51.4 26.15 51.4 26.9 51.4 27.65 51.2 28.0 50.85 28.4 50.3 28.95 52.6 29.15 53.05 29.25 53.25 29.45 53.45 29.65 53.65 29.7 53.8 29.65 54.1 29.6 54.35 29.6 54.8 29.7 55.05 29.9 55.55 30.5 56.35 31.2 56.7 31.6 56.85 31.75 56.95 31.95 57.1 31.95 57.3 31.75 57.5 31.6 57.65 31.45 58.1 31.35 58.35 31.35 58.65 31.4 59.05 31.5 59.2 31.7 59.35 31.9 59.4 32.1 59.55 32.25 59.85 32.35 60.35 32.2 60.55 32.0 60.85 31.85 60.95 31.65 61.1 31.45 61.3 31.25 61.5 31.1 61.7 30.9 61.85 30.7 61.9 30.5 61.95 30.35 62.1 30.15 62.1 29.95 62.05 29.75 61.9 29.6 61.85 29.4 61.85 29.2 61.9 29.05 62.0 28.85 62.15 28.65 62.6 28.5 62.95 28.6 63.1 28.65 63.55 28.75 63.7 28.95 63.85 29.15 63.9 29.35 64.0 29.5 64.05 29.7 64.05 29.9 64.05 30.1 64.05 30.25 64.05 30.45 64.05 30.65 63.95 30.85 63.85 31.0 63.75 31.2 63.65 31.4 63.6 31.6 63.25 32.1 62.5 32.9 62.15 33.25 61.95 33.45 61.6 33.65 61.35 33.85 61.1 34.0 60.9 34.15 59.1 34.15 58.65 34.0 58.4 33.85 58.2 33.7 57.9 33.9 57.6 34.1 57.4 34.25 57.2 34.45 57.05 34.6 55.6 34.75 53.85 34.65 53.4 34.5 53.0 34.15 52.85 33.95 52.75 33.75 52.55 33.4 52.5 33.2 52.45 33.0 52.45 32.85 52.4 32.65 52.35 32.45 52.25 32.25 52.15 32.1 52.05 31.9 52.0 31.7 51.95 31.5 51.95 31.35 51.95 31.15 51.95 31.0 48.65 30.7 48.5 30.5 48.35 30.35 48.3 29.95 48.3 29.75 48.3 29.6 48.3 29.0 48.3 28.85 48.7 28.25 49.45 27.5 49.8 27.15 49.8 26.75 49.8 26.4 49.8 25.85 49.8 25.45 49.8 25.25 49.8 25.1 48.2 24.9 47.65 25.1 47.4 25.3 47.3 25.4 46.85 25.45 45.6 25.5 45.15 25.4 45.0 25.2 44.85 25.0 44.85 24.85 44.85 24.65 44.85 24.45 44.85 24.25 44.85 24.1 44.95 23.9 45.1 23.7 45.3 23.6" fill="#ffffff" fill-rule="evenodd" stroke="none"/>
    <path d="M6.6 27.65 L6.7 27.85 6.75 28.0 6.7 28.2 6.65 28.4 6.55 28.6 6.5 28.75 6.55 28.95 6.55 29.15 6.5 29.35 6.45 29.5 6.35 29.7 6.25 29.9 6.15 30.1 6.1 30.25 6.0 30.45 5.9 30.65 5.75 30.85 5.65 31.0 5.5 31.2 5.5 31.4 5.45 31.6 5.4 31.75 5.3 31.95 5.2 32.15 4.85 32.5 4.45 32.9 4.2 33.1 3.75 33.2 2.0 33.15 1.6 33.0 1.25 32.9 0.45 32.55 0.15 32.4 -0.05 32.2 -0.2 32.0 -0.3 31.85 -0.35 31.65 -0.35 31.45 -0.35 31.1 -0.35 30.7 -0.35 30.15 -0.4 29.95 -0.5 29.75 -3.0 29.45 -4.1 28.9 -4.25 28.7 -4.35 28.5 -4.35 28.35 -4.35 28.15 -4.3 27.95 -4.3 27.75 -4.3 27.6 -4.3 27.4 -4.2 27.2 -4.1 27.0 -4.05 26.65 -4.05 26.1 -4.05 25.15 -4.05 24.75 -4.05 24.4 -4.05 24.2 -7.75 24.0 -8.15 23.9 -8.35 23.7 -8.5 23.5 -8.5 23.35 -8.5 23.15 -8.5 22.75 -8.5 22.4 -8.5 21.85 -8.5 21.65 -8.4 21.45 -8.3 21.3 -8.1 21.1 -7.9 20.9 -7.5 20.8 -6.9 20.65 -6.75 20.45 -6.55 20.25 -6.45 20.1 -6.3 19.9 -5.85 19.7 -5.5 19.6 -5.25 19.6 -4.5 19.7 -3.85 19.85 -3.6 20.0 -3.4 20.25 -3.4 20.4 -3.6 20.35 -3.85 20.25 -4.0 20.3 -4.25 20.35 -4.5 20.4 -5.25 20.45 -5.5 20.6 -5.6 20.75 -5.75 20.95 -5.6 21.15 -5.55 21.35 -5.5 21.5 -5.5 21.7 -5.5 21.9 -5.6 22.1 -5.65 22.25 -5.75 22.4 -5.75 22.45 -3.5 22.5 -3.1 22.65 -2.85 22.85 -2.65 23.0 -2.6 23.2 -2.5 23.4 -2.45 23.95 -2.4 24.9 -2.4 25.65 -2.4 26.4 -2.4 27.35 -2.4 27.5 -2.25 27.7 -1.9 27.85 0.0 27.9 0.45 28.0 0.65 28.2 0.9 28.4 1.0 28.6 1.1 28.75 1.15 28.95 1.25 29.15 1.35 29.35 1.4 29.5 1.4 29.7 1.4 29.9 1.4 30.1 1.4 30.25 1.4 30.65 1.4 30.85 1.5 30.95 2.0 31.15 2.45 31.25 3.45 31.25 3.65 31.1 3.75 30.9 3.85 30.7 3.9 30.5 3.95 30.35 4.1 30.15 4.2 29.95 4.35 29.75 4.45 29.6 4.65 29.4 4.7 29.2 4.85 29.0 5.05 28.7 5.6 28.05 5.9 27.7 6.05 27.6 6.25 27.5 6.6 27.65" fill="#ffffff" fill-rule="evenodd" stroke="none"/>
    <path d="M-1.4 71.1 L-1.25 71.3 -1.1 71.45 -1.1 71.65 -1.05 71.85 -0.9 72.05 -1.0 72.2 -1.05 72.4 -1.05 72.6 -1.1 72.75 -1.2 72.95 -1.3 73.15 -1.4 73.35 -1.5 73.45 -1.85 73.6 -2.0 73.7 -2.25 73.8 -2.5 73.8 -2.8 73.65 -2.9 73.45 -2.9 73.3 -2.85 73.1 -3.0 72.9 -3.0 72.7 -3.05 72.35 -3.05 71.95 -3.05 71.6 -3.0 71.4 -2.9 71.2 -2.75 71.1 -2.5 71.05 -1.75 71.0 -1.75 70.95 -1.4 71.1" fill="#ffffff" fill-rule="evenodd" stroke="none"/>
    <path d="M43.75 21.35 L44.05 21.0 44.4 20.6 44.9 20.35 45.5 20.25 46.0 20.25 46.9 20.5 47.25 20.9 47.5 21.25 47.65 21.6 47.75 22.0 47.75 22.35 47.75 22.75 47.75 23.1 47.75 23.5 47.65 23.85 47.5 24.25 47.25 24.6 47.0 25.0 46.5 25.35 45.9 25.75 45.4 26.0 45.15 26.1 44.15 26.35 43.65 26.6 43.0 26.7 41.5 26.85 40.65 26.6 40.15 26.2 39.8 25.85 39.55 25.5 39.4 25.1 39.3 24.75 39.25 24.35 39.3 24.0 39.4 23.6 39.35 23.5 38.75 23.5 38.75 23.85 38.75 25.0 38.75 26.1 38.75 27.25 38.75 28.35 38.6 28.75 38.25 29.5 37.35 30.6 Q36.6 31.25 35.65 31.6 L35.0 31.7 30.4 32.0 30.0 32.35 29.65 32.6 29.0 32.7 28.5 32.75 27.65 32.5 27.15 32.1 26.9 31.75 26.8 31.35 26.75 31.0 26.75 30.25 26.75 29.85 26.75 29.1 26.9 28.75 27.1 28.35 27.25 28.0 27.3 27.6 27.4 27.25 27.65 26.9 28.0 26.5 28.4 26.1 28.9 25.85 29.5 25.75 30.25 25.85 30.5 25.7 30.9 25.35 31.25 25.0 31.4 24.6 31.5 24.25 31.9 23.85 32.15 23.6 32.4 23.5 32.9 23.35 33.5 23.25 34.4 23.5 34.75 23.9 35.0 24.25 35.15 24.35 35.2 24.1 35.25 23.75 35.25 23.0 35.25 22.6 35.25 21.85 35.25 21.1 35.4 20.75 35.65 20.35 36.15 20.0 37.0 19.8 37.0 19.75 40.0 19.75 40.9 20.0 41.35 20.35 41.65 20.6 42.4 20.85 42.9 21.25 43.15 21.4 43.75 21.35" fill="#ffffff" fill-opacity="0.3019608" fill-rule="evenodd" stroke="none"/>
    <path d="M41.4 17.5 L41.75 17.9 42.0 18.25 42.15 18.6 42.25 19.0 42.25 19.35 42.25 19.75 42.25 20.1 42.25 20.5 42.5 20.55 44.0 20.35 44.9 20.0 45.4 19.75 46.0 19.65 47.5 19.6 48.4 19.85 48.9 20.25 49.1 20.65 49.25 21.0 49.35 21.35 49.4 21.75 49.35 22.1 49.25 22.5 48.9 23.25 48.25 24.35 46.9 25.5 45.65 25.9 45.15 26.1 44.15 26.35 43.65 26.6 42.65 26.85 41.9 27.25 41.25 27.6 41.25 28.0 41.25 28.35 41.25 28.75 41.25 29.1 41.15 29.5 41.0 29.85 40.9 30.25 40.75 30.6 40.75 31.0 40.75 31.35 40.75 31.75 40.75 32.1 40.65 32.5 40.5 32.85 40.25 33.25 39.9 33.5 39.65 33.6 39.0 33.7 38.5 33.75 37.65 33.5 37.1 33.15 36.9 33.0 36.65 33.1 36.25 33.45 36.25 33.75 36.25 34.1 36.25 34.5 36.15 34.85 36.0 35.25 35.75 35.6 35.4 36.0 35.3 36.75 35.25 38.25 35.2 40.1 35.15 40.5 35.0 40.85 34.75 41.25 34.3 41.95 33.65 42.6 33.0 42.75 32.15 42.5 31.65 42.1 31.4 41.75 31.3 41.35 31.25 41.0 31.25 40.25 31.2 39.1 31.15 38.75 31.0 38.4 30.75 38.0 30.75 37.6 30.65 37.25 30.4 36.85 30.3 36.5 30.25 36.1 30.25 35.75 30.25 35.35 30.25 35.0 30.1 34.65 29.9 34.25 29.8 33.85 29.75 33.5 29.75 32.75 29.8 32.0 29.9 31.75 29.6 31.65 29.15 31.65 28.5 31.7 28.0 31.75 27.15 31.5 26.65 31.1 26.4 30.85 26.0 30.75 25.15 30.45 23.75 29.75 23.5 29.35 23.3 28.95 23.25 28.6 23.3 28.25 23.4 27.85 23.5 27.5 23.9 27.1 24.4 26.85 25.0 26.75 26.0 26.5 26.2 26.1 26.25 25.75 26.2 25.4 26.0 25.0 25.4 24.6 24.75 24.25 24.4 23.85 24.0 23.5 23.25 22.7 22.65 21.6 22.55 21.25 22.5 20.85 22.5 20.5 22.75 20.15 23.15 19.75 24.0 19.5 24.9 19.75 25.5 20.15 26.0 20.5 26.75 21.25 27.15 21.6 27.85 22.0 28.35 22.4 29.15 23.1 29.75 23.5 30.25 23.75 30.9 23.7 31.5 23.6 32.75 23.35 32.9 23.0 33.15 22.65 33.5 22.2 34.0 21.5 34.05 21.1 34.15 20.75 34.4 20.35 34.45 20.0 34.65 19.65 35.0 19.25 35.4 19.0 36.0 18.85 36.75 19.1 37.25 19.5 37.5 19.85 37.65 20.0 37.85 19.75 38.1 19.35 38.25 19.0 38.3 18.6 38.4 18.25 38.65 17.85 39.15 17.5 40.0 17.3 40.0 17.25 40.5 17.25 41.4 17.5" fill="#ffffff" fill-opacity="0.3019608" fill-rule="evenodd" stroke="none"/>
    <path d="M68.5 18.35 L68.6 18.75 68.65 19.1 68.65 19.5 68.65 19.85 68.65 20.25 68.7 20.45 70.0 20.9 70.75 21.1 71.25 21.5 71.5 21.85 71.6 22.25 71.65 22.6 71.65 23.0 71.65 23.35 71.65 23.75 71.5 24.1 71.25 24.5 70.75 24.85 70.0 25.05 69.0 25.25 71.0 25.35 71.75 25.6 72.4 26.0 72.75 26.4 73.0 26.75 73.15 27.1 73.25 27.5 73.25 27.85 73.25 28.25 73.25 28.6 73.15 29.0 73.0 29.35 72.75 29.75 72.4 30.0 72.15 30.05 69.4 30.35 68.25 30.75 68.2 31.5 68.15 32.6 68.1 34.1 68.0 34.5 67.85 34.85 67.5 35.25 67.15 35.6 66.9 35.85 66.65 36.0 66.05 36.25 65.65 36.5 65.0 36.6 64.0 36.6 63.15 36.35 62.8 35.95 62.55 35.6 62.35 35.25 61.75 34.5 61.5 34.35 60.75 34.35 60.0 34.75 59.65 35.1 59.25 35.45 58.75 35.85 58.0 36.1 56.0 36.1 55.15 35.8 54.85 35.65 54.15 35.35 53.75 35.0 53.0 34.25 Q52.45 33.8 52.2 33.15 L52.0 32.75 51.15 32.35 50.75 32.0 50.5 31.8 50.0 31.6 49.15 31.35 48.8 30.95 48.5 30.6 48.4 30.25 48.4 29.85 48.4 29.5 48.4 28.75 48.4 28.35 48.45 28.0 48.65 27.65 49.05 27.25 49.4 27.0 50.2 26.65 50.4 26.35 50.15 26.25 49.9 26.35 49.65 26.5 49.0 26.55 46.5 26.6 45.65 26.35 45.3 25.95 45.0 25.6 44.9 25.25 44.9 24.85 44.9 24.5 44.75 24.1 44.55 23.7 44.4 23.35 44.1 23.45 43.85 23.7 43.6 24.1 42.75 24.85 42.0 25.1 41.0 25.1 40.15 24.85 38.7 25.05 38.65 25.25 38.2 25.9 36.8 27.5 35.65 28.5 35.0 28.55 33.5 28.6 32.65 28.35 32.15 28.65 31.85 28.85 31.65 29.0 30.65 29.45 Q29.6 29.9 28.6 30.45 L27.65 31.0 27.0 31.05 26.0 31.1 25.15 30.85 24.8 30.45 24.55 30.1 24.4 29.75 24.0 29.6 23.15 29.35 22.8 28.95 22.5 28.6 22.4 28.25 22.4 27.85 22.4 27.5 22.25 27.1 22.0 26.75 21.65 26.35 19.0 26.05 18.15 25.85 17.65 26.0 17.0 26.25 16.65 26.5 16.0 26.6 14.15 26.85 14.15 27.25 14.15 27.6 14.15 28.0 14.15 28.35 14.15 28.75 14.0 29.1 13.8 29.5 13.65 29.85 13.6 30.25 13.5 30.6 13.25 31.0 12.75 31.35 12.0 31.6 11.5 31.6 10.65 31.35 10.25 31.0 9.9 30.6 9.55 30.2 9.4 29.85 9.3 29.7 8.65 29.35 8.25 29.0 8.15 29.25 8.1 29.6 8.0 30.0 7.2 31.15 Q5.8 32.3 4.15 33.0 L-0.5 33.1 -1.35 32.85 -1.75 32.45 -1.95 32.1 -2.1 31.75 -2.1 31.35 -2.05 31.0 -1.85 30.65 -1.1 30.0 -0.6 29.85 -1.0 29.7 -4.0 29.35 -4.6 29.1 -4.85 28.75 -5.1 28.35 -5.25 28.0 -5.2 27.6 -5.1 27.25 -5.05 26.85 -5.0 26.5 -4.75 26.1 -4.25 26.1 -4.0 26.5 -4.0 26.85 -4.0 27.25 -3.85 27.35 -2.85 27.35 -2.6 27.0 -2.35 26.75 -2.1 26.6 -1.5 26.35 -1.1 26.1 -0.35 25.85 0.25 25.5 0.65 25.1 1.0 24.75 1.5 24.35 2.5 24.15 3.25 24.0 3.65 23.6 4.5 23.35 5.0 23.35 5.75 23.6 6.25 24.0 6.9 23.95 10.0 23.35 15.65 23.1 16.5 22.75 16.95 22.05 17.95 20.5 Q18.3 19.85 18.9 19.35 L19.15 19.1 19.4 19.0 20.0 18.85 21.15 18.6 21.5 18.25 21.9 18.0 22.5 17.85 23.25 18.1 23.75 18.5 24.0 18.85 24.1 19.25 24.15 20.0 24.15 21.1 24.15 22.25 24.0 22.6 23.8 23.0 23.65 23.35 23.75 23.65 24.7 24.55 25.35 25.25 25.5 25.5 25.9 25.45 26.5 25.4 27.0 25.35 27.75 25.6 28.25 26.0 28.75 26.0 29.15 25.6 Q29.3 25.4 29.55 25.3 L30.5 24.7 30.9 24.5 31.5 24.4 34.25 24.35 34.35 24.1 34.4 23.75 34.4 23.0 34.4 22.25 34.4 21.85 34.2 21.5 33.9 21.1 33.5 20.75 33.4 20.35 33.4 20.0 33.4 19.6 33.4 19.25 33.55 18.85 33.8 18.5 34.15 18.1 Q34.5 17.9 34.9 17.75 L35.4 17.5 36.0 17.35 37.15 17.1 38.0 16.85 38.75 17.1 39.25 17.5 39.6 17.85 39.85 18.25 40.0 18.6 40.1 19.0 40.15 19.35 40.15 19.6 46.0 19.85 46.75 20.1 47.25 20.5 47.5 20.85 47.6 21.25 47.65 21.6 47.65 22.0 47.7 22.35 47.9 22.75 48.1 23.0 48.65 23.1 49.4 22.75 49.55 22.35 49.75 21.95 49.9 21.6 49.9 21.25 50.05 20.85 50.3 20.5 50.65 20.1 51.5 19.85 52.0 19.85 52.75 20.15 53.25 20.35 53.35 20.2 53.55 19.85 53.8 19.5 54.15 19.1 55.0 18.85 55.75 19.1 56.25 19.5 56.5 19.85 56.6 20.6 56.65 21.75 56.65 23.25 56.6 23.6 56.5 24.0 56.0 24.7 54.75 25.85 53.65 26.6 53.65 27.0 53.65 27.35 53.65 27.75 53.6 28.5 53.5 28.85 Q53.3 29.6 54.1 30.2 L55.65 31.85 56.0 32.25 56.4 32.6 57.15 32.6 58.0 32.25 58.4 31.85 58.65 31.6 58.9 31.5 59.5 31.2 59.9 31.0 60.5 30.9 63.25 30.85 63.35 30.6 63.4 30.25 63.4 29.85 63.4 29.1 63.4 28.75 63.55 28.35 63.8 28.0 64.15 27.6 64.9 27.25 64.9 26.85 64.9 26.5 64.9 26.1 65.05 25.75 65.25 25.35 65.4 25.0 65.45 24.6 65.55 24.25 65.9 23.85 66.25 23.5 66.2 23.15 66.0 22.75 65.65 22.35 65.4 22.0 65.4 21.6 65.4 21.25 65.4 20.85 65.4 20.1 65.4 19.75 65.25 19.35 65.0 19.0 64.95 18.65 64.75 18.25 64.85 17.9 65.0 17.5 65.65 17.1 66.5 17.0 67.25 17.25 67.75 17.6 68.25 18.0 68.5 18.35" fill="#339999" fill-opacity="0.2" fill-rule="evenodd" stroke="none"/>
    <path d="M55.65 -0.75 L55.9 -0.4 56.1 0.0 56.3 0.35 56.45 0.75 56.5 1.1 56.5 1.5 56.6 1.75 57.25 2.25 60.0 2.5 60.75 2.75 61.15 2.95 61.75 3.25 62.75 3.75 63.15 4.1 63.35 4.5 63.55 4.85 63.75 5.25 64.25 5.6 64.65 6.0 64.8 6.35 65.0 6.75 65.15 7.1 65.65 7.5 65.8 7.85 66.0 8.25 66.0 8.6 66.0 9.35 66.0 10.1 65.9 10.85 65.75 11.2 65.5 11.6 64.9 12.0 64.65 12.35 64.4 12.75 64.25 13.1 64.15 13.5 63.9 13.85 63.5 14.1 63.0 14.2 61.5 14.35 60.65 14.1 60.4 13.75 60.15 13.35 60.0 13.0 59.55 12.6 59.15 12.25 59.05 11.85 59.0 11.5 59.0 11.1 59.0 10.75 59.15 10.35 59.4 10.0 59.75 9.6 60.15 9.25 60.9 8.85 61.4 8.45 61.75 8.1 61.15 7.75 60.8 7.35 60.5 7.0 60.5 6.6 60.5 6.25 60.35 6.05 59.65 5.75 Q56.95 5.95 54.65 4.75 L54.25 4.35 53.9 3.95 53.65 3.6 53.55 2.85 53.5 2.1 53.5 1.0 53.5 0.6 53.65 0.25 53.9 -0.15 54.15 -0.5 54.4 -0.75 54.55 -0.85 55.0 -0.95 55.0 -1.0 55.65 -0.75" fill="#339999" fill-opacity="0.2" fill-rule="evenodd" stroke="none"/>
    <path d="M20.6 20.6 L20.2 21.05 20.15 21.35 19.9 22.05 19.25 23.15 18.0 24.7 17.65 25.0 17.0 25.1 16.5 25.05 14.65 24.75 14.15 24.75 14.15 25.85 14.15 27.75 14.1 29.25 14.0 30.0 13.85 30.35 13.5 30.7 13.15 31.0 12.5 31.1 12.0 31.1 11.15 30.85 10.75 30.5 10.4 30.1 10.15 29.85 10.0 29.8 7.15 29.85 6.95 30.2 6.6 30.6 6.1 30.95 5.4 31.35 5.0 31.75 4.65 32.1 4.25 32.45 3.75 32.85 3.0 33.1 2.15 32.85 1.75 32.5 1.4 32.1 1.15 31.75 0.15 31.35 -0.25 30.95 -0.5 30.6 -0.6 30.25 -0.6 29.85 -0.6 29.5 -0.7 29.25 -2.0 28.85 -2.85 28.6 -3.1 28.25 -3.75 27.85 -4.0 27.5 -4.25 27.1 -4.45 26.7 -4.5 26.35 -4.5 26.0 -4.4 25.65 -4.1 25.25 -3.5 25.0 -2.85 25.25 -2.5 25.6 -2.25 25.85 2.65 26.25 6.15 26.1 7.0 25.85 10.75 25.75 10.85 25.5 10.9 25.1 10.9 24.75 10.9 24.0 10.9 23.25 11.05 22.85 11.3 22.5 11.65 22.1 13.4 21.75 16.4 21.35 16.25 21.0 16.05 20.6 15.9 20.25 15.9 19.85 15.95 19.5 16.15 19.15 16.9 18.35 17.15 18.1 17.4 18.0 18.0 17.85 18.65 17.6 19.5 17.45 19.5 17.35 20.0 17.35 20.75 17.6 21.25 18.0 21.5 18.35 21.65 18.75 21.6 19.1 21.5 19.5 21.4 19.85 21.0 20.25 20.6 20.6" fill="#339999" fill-opacity="0.2" fill-rule="evenodd" stroke="none"/>
    <path d="M61.75 3.95 L62.15 4.25 63.0 4.25 63.9 4.5 64.25 4.85 64.5 5.25 64.65 5.6 64.75 6.0 64.75 6.35 64.75 6.75 64.75 7.0 65.4 7.5 65.75 7.85 66.05 8.2 66.35 8.65 66.5 9.0 66.7 10.1 66.65 11.25 66.65 13.5 66.65 15.0 66.65 15.75 66.5 16.1 66.4 16.5 66.45 16.8 66.75 17.25 67.0 17.6 67.15 18.0 67.25 18.35 67.5 18.75 67.65 19.1 68.0 19.2 70.5 19.25 71.4 19.5 71.75 19.85 72.0 20.25 72.15 20.6 72.25 21.0 72.25 21.75 72.25 22.1 72.25 22.5 72.25 23.25 72.15 24.0 72.0 24.35 71.75 24.75 71.0 25.1 71.0 25.4 71.4 25.9 71.75 26.25 72.0 26.6 72.15 27.0 72.25 27.35 72.25 27.75 72.25 28.1 72.25 28.5 72.25 28.85 72.25 29.25 72.1 29.6 71.9 30.0 71.65 30.35 71.5 30.7 71.25 31.1 70.9 31.5 70.0 31.7 68.9 32.0 68.65 32.35 68.25 32.75 67.9 33.1 67.75 33.5 67.65 33.85 67.5 34.25 67.5 34.6 67.5 35.0 67.4 35.35 67.25 35.75 67.0 36.1 66.65 36.5 66.4 36.75 66.15 36.85 65.5 36.95 64.5 37.0 63.9 37.0 63.65 37.1 63.0 37.25 62.15 37.0 61.65 36.6 61.4 36.25 61.3 35.85 61.25 35.5 61.25 35.1 61.25 34.75 61.25 34.35 61.15 34.0 61.0 33.75 61.0 33.65 60.0 33.6 59.15 33.65 58.5 33.75 57.65 34.0 57.5 34.35 57.25 34.75 56.9 35.0 56.65 35.1 56.0 35.2 55.5 35.25 54.65 35.0 54.15 34.6 53.9 34.25 53.8 33.85 53.75 33.5 53.4 33.1 52.8 32.7 52.25 32.35 51.0 32.2 50.15 32.0 49.65 31.6 49.4 31.25 49.3 30.85 49.25 30.5 49.25 30.1 49.25 29.75 49.2 29.4 49.05 28.95 48.9 28.6 48.8 28.25 48.75 27.85 48.75 27.5 48.75 27.1 48.8 26.75 48.9 26.35 48.9 26.0 48.65 25.6 48.5 25.45 46.5 25.25 45.65 25.0 45.15 24.6 44.9 24.2 44.75 23.85 44.75 23.5 44.8 23.1 44.9 22.75 45.15 22.4 45.5 22.0 45.9 21.6 46.4 21.35 47.0 21.25 48.75 21.0 49.0 20.6 49.3 20.25 49.65 19.85 50.0 19.5 50.4 19.1 51.15 18.75 51.65 18.5 51.9 18.35 52.5 18.3 54.0 18.25 54.9 18.5 55.4 18.85 55.75 19.25 56.15 19.6 56.5 19.85 56.75 19.7 57.15 19.35 57.5 18.95 57.7 18.6 57.75 18.25 57.75 17.85 57.8 17.5 58.0 17.1 58.25 16.75 58.65 16.5 58.9 16.4 59.7 16.0 59.9 15.75 59.75 15.35 59.65 15.0 59.5 14.6 59.4 14.55 59.15 14.6 58.5 14.7 58.0 14.75 57.15 14.5 56.65 14.1 56.4 13.75 56.3 13.35 56.25 13.0 56.25 12.6 56.3 12.25 56.4 11.85 56.55 11.5 56.9 11.1 57.65 10.7 58.15 10.35 58.45 9.95 58.65 9.6 58.75 9.25 58.75 8.85 58.75 8.5 58.6 8.1 58.4 7.75 58.3 7.35 58.25 7.0 58.25 6.6 58.25 6.25 58.3 5.85 58.4 5.1 58.55 4.75 58.9 4.35 59.25 4.0 59.65 3.6 60.5 3.4 60.5 3.35 61.25 3.6 61.75 3.95" fill="#339999" fill-opacity="0.2" fill-rule="evenodd" stroke="none"/>
    <path d="M40.8 4.6 L40.9 4.75 41.05 4.95 41.1 5.15 41.1 5.35 41.1 5.5 41.1 5.9 41.1 6.05 41.05 6.25 40.95 6.45 40.85 6.65 40.7 6.85 40.45 7.0 40.35 7.15 39.85 7.25 37.55 7.65 37.1 7.75 36.85 7.75 36.35 7.65 36.1 7.45 36.0 7.25 35.9 7.1 35.85 6.9 35.85 6.7 35.85 6.5 35.9 6.15 35.9 5.95 35.9 5.75 35.9 5.6 35.95 5.4 36.05 5.2 36.15 5.0 36.15 4.85 36.15 4.65 36.15 4.45 36.15 4.25 36.15 4.1 36.25 3.9 36.35 3.7 36.4 3.5 36.45 3.35 36.65 3.15 36.9 2.95 37.2 2.75 37.1 2.6 36.25 2.25 34.8 1.65 34.4 1.5 33.85 1.45 33.35 1.35 33.1 1.15 33.0 0.95 32.95 0.75 33.0 0.6 33.1 0.4 33.35 0.2 33.85 0.1 34.35 0.1 35.4 0.4 36.35 0.65 37.45 1.05 37.85 1.2 38.05 1.4 38.2 1.6 38.4 1.8 38.6 2.15 38.7 2.35 38.85 2.5 39.1 2.7 39.15 2.9 39.2 3.1 39.3 3.25 39.3 3.45 39.3 3.65 39.3 3.85 39.3 4.0 39.3 4.2 39.3 4.35 39.45 4.3 39.85 4.3 40.1 4.25 40.55 4.4 40.8 4.6" fill="#339999" fill-opacity="0.2" fill-rule="evenodd" stroke="none"/>
    <path d="M29.45 -0.35 L29.5 -0.95 31.35 -1.95 31.35 -0.1 33.65 -0.85 Q37.7 -1.75 39.05 2.1 39.85 4.45 38.6 5.8 37.65 5.5 37.9 4.2 38.15 3.0 37.5 1.9 L36.85 1.15 Q34.1 -0.8 31.9 1.65 L30.6 1.7 29.45 -0.35" fill="#333333" fill-rule="evenodd" stroke="none"/>
    <path d="M24.25 -4.05 L24.6 -4.1 Q28.6 -5.25 30.0 -2.35 L29.5 -2.25 29.0 -2.6 Q26.55 -3.85 24.2 -2.65 L22.95 -1.5 Q22.05 0.15 20.75 0.4 L20.7 0.25 Q21.35 -2.65 24.25 -4.05" fill="#333333" fill-rule="evenodd" stroke="none"/>
    <path d="M14.0 -0.1 L14.5 -0.25 Q17.25 -1.1 18.6 0.65 L18.6 0.8 18.5 1.2 18.4 1.4 17.65 1.45 14.35 1.05 12.9 2.95 13.95 9.5 12.85 9.9 12.25 9.05 Q10.8 5.85 11.7 2.4 L14.0 -0.1" fill="#333333" fill-rule="evenodd" stroke="none"/>
    <path d="M3.65 8.3 L4.55 7.65 Q6.65 6.2 9.05 7.15 L9.2 11.0 13.4 10.75 8.65 12.25 7.9 11.5 7.9 8.4 3.2 9.45 3.65 8.3" fill="#333333" fill-rule="evenodd" stroke="none"/>
    <path d="M2.95 11.15 L3.85 11.2 4.75 9.25 5.0 12.2 2.35 12.65 Q0.45 10.2 -2.1 10.8 L-2.0 9.7 1.45 9.8 2.95 11.15" fill="#333333" fill-rule="evenodd" stroke="none"/>
    <path d="M-4.5 11.5 L-3.4 11.05 Q-2.6 10.7 -2.05 11.35 -2.0 11.55 -2.25 11.55 -4.2 12.15 -4.8 14.0 -5.2 15.15 -4.65 16.1 L-3.85 16.5 -3.8 17.45 Q-4.15 17.9 -4.65 17.6 -7.6 16.1 -6.05 12.8 L-4.5 11.5" fill="#333333" fill-rule="evenodd" stroke="none"/>
    <path d="M0.35 27.4 L0.35 29.8 Q-3.2 32.25 -6.5 29.55 L-6.0 25.25 -9.15 24.55 Q-9.6 19.9 -5.5 17.5 L-4.85 17.8 -7.5 20.8 -7.8 23.45 -5.1 23.65 -4.6 24.2 -4.85 28.85 -1.8 29.0 Q-1.05 29.0 -0.85 28.4 -0.5 27.2 0.35 27.4" fill="#333333" fill-rule="evenodd" stroke="none"/>
    <path d="M0.95 25.7 L1.15 25.35 Q1.9 24.25 2.7 25.25 L1.6 27.45 -0.4 27.4 -1.15 26.25 -0.75 25.2 Q-0.45 25.2 -0.25 25.35 L0.2 25.9 0.95 25.7" fill="#333333" fill-rule="evenodd" stroke="none"/>
    <path d="M8.3 23.6 L9.9 23.15 10.4 25.6 8.35 27.45 5.2 26.9 4.9 25.0 3.1 24.9 Q2.25 25.2 2.65 24.45 L5.95 24.0 6.25 25.9 7.85 25.95 9.0 24.5 8.3 23.6" fill="#333333" fill-rule="evenodd" stroke="none"/>
    <path d="M5.95 29.25 L6.25 29.2 Q8.85 28.35 10.5 30.2 L10.1 32.45 Q9.4 32.85 9.15 32.1 L9.05 31.5 8.85 30.8 6.6 31.1 Q6.7 32.1 6.15 32.75 3.9 35.6 0.65 34.45 L0.6 33.7 0.15 33.0 Q-0.35 32.05 -0.2 31.05 0.0 29.95 0.85 30.15 L0.85 31.25 1.85 33.05 3.1 33.15 4.8 32.0 5.05 30.15 5.95 29.25" fill="#333333" fill-rule="evenodd" stroke="none"/>
    <path d="M-0.8 17.0 L-1.4 18.55 0.15 16.2 Q1.05 18.0 -0.5 19.35 L-2.05 18.95 -1.7 16.9 Q-1.05 16.35 -0.8 17.0" fill="#333333" fill-rule="evenodd" stroke="none"/>
    <path d="M14.65 25.65 Q15.55 26.25 14.55 26.85 L14.3 27.15 14.3 27.25 Q15.15 28.9 14.5 30.6 13.4 33.4 10.55 32.6 9.25 32.35 9.45 31.4 L12.45 31.3 13.3 30.2 13.25 29.65 Q13.4 27.6 11.35 26.9 L11.1 25.95 Q11.3 25.55 11.75 25.55 L14.65 25.65" fill="#333333" fill-rule="evenodd" stroke="none"/>
    <path d="M18.1 22.45 L19.3 22.4 17.75 26.7 Q15.55 27.9 13.95 26.05 L12.55 25.1 14.0 24.7 15.1 25.45 16.85 25.25 18.1 22.45" fill="#333333" fill-rule="evenodd" stroke="none"/>
    <path d="M21.25 20.95 L21.35 20.75 Q22.1 19.1 23.3 19.65 L21.95 22.25 19.65 22.25 18.75 21.15 19.25 19.75 19.9 20.8 21.25 20.95" fill="#333333" fill-rule="evenodd" stroke="none"/>
    <path d="M17.85 9.35 Q17.8 10.35 17.9 9.2 L17.85 9.35 M17.95 8.15 Q18.45 8.15 18.8 8.6 19.15 9.0 19.15 9.6 L18.8 10.65 Q18.45 11.05 17.95 11.05 17.45 11.05 17.1 10.65 16.75 10.2 16.75 9.6 16.75 9.0 17.1 8.6 17.45 8.15 17.95 8.15" fill="#333333" fill-rule="evenodd" stroke="none"/>
    <path d="M9.95 21.45 L10.05 20.7 10.75 19.85 11.9 20.05 10.5 21.05 12.25 20.95 Q12.15 20.65 12.35 20.5 L12.5 20.5 12.8 21.05 12.15 22.0 9.95 21.45" fill="#333333" fill-rule="evenodd" stroke="none"/>
    <path d="M26.0 29.7 L24.5 27.9 22.7 28.05 Q20.3 28.6 18.95 26.85 17.5 25.1 18.75 24.0 L21.0 26.55 Q23.1 27.15 24.45 25.6 L25.6 25.85 26.7 29.0 26.0 29.7" fill="#333333" fill-rule="evenodd" stroke="none"/>
    <path d="M33.3 25.9 L33.25 27.2 31.85 27.25 30.35 26.95 29.5 30.1 26.7 30.0 26.3 30.15 26.35 30.0 29.2 29.0 29.3 25.65 29.4 25.5 Q31.5 24.75 33.3 25.9" fill="#333333" fill-rule="evenodd" stroke="none"/>
    <path d="M31.3 35.5 L31.7 36.65 31.0 37.4 28.4 33.5 Q25.75 33.6 24.25 31.7 L24.55 29.65 Q24.65 29.35 25.0 29.2 L25.15 29.25 25.3 29.4 25.3 31.25 26.65 32.15 29.35 31.75 31.3 35.5" fill="#333333" fill-rule="evenodd" stroke="none"/>
    <path d="M21.95 2.65 Q22.9 1.8 22.65 2.8 L22.4 4.25 23.05 4.05 23.65 3.05 23.95 4.35 23.5 5.1 21.65 4.9 21.7 3.0 21.95 2.65" fill="#333333" fill-rule="evenodd" stroke="none"/>
    <path d="M18.05 -7.0 L17.65 -6.8 17.45 -6.4 17.65 -5.95 18.05 -5.8 18.5 -5.95 18.65 -6.4 18.5 -6.8 Q18.3 -7.0 18.05 -7.0 M17.7 -7.85 L19.7 -7.55 19.65 -5.3 Q17.65 -3.85 16.6 -5.7 L17.7 -7.85" fill="#333333" fill-rule="evenodd" stroke="none"/>
    <path d="M44.55 -0.3 L41.35 -0.3 40.4 0.65 Q40.25 0.7 40.15 0.55 39.25 0.4 39.6 -0.3 40.25 -1.2 41.3 -1.6 44.3 -2.85 46.05 -0.6 L45.6 0.7 44.55 -0.3" fill="#333333" fill-rule="evenodd" stroke="none"/>
    <path d="M48.6 -4.05 L49.8 -4.5 Q52.25 -4.95 53.6 -3.3 L53.1 -2.4 52.0 -2.6 49.8 -2.55 49.2 -0.85 47.85 0.05 45.6 0.05 Q44.15 0.3 44.7 -0.65 L47.45 -1.25 48.3 -2.0 48.6 -4.05" fill="#333333" fill-rule="evenodd" stroke="none"/>
    <path d="M53.75 -2.5 L55.6 -3.0 57.1 -2.1 57.55 1.55 57.85 1.65 Q60.45 1.8 61.4 3.75 L56.15 2.55 56.05 -1.85 53.75 -2.5" fill="#333333" fill-rule="evenodd" stroke="none"/>
    <path d="M43.35 21.55 L44.45 21.65 45.0 22.2 45.2 24.25 44.4 25.0 43.6 23.3 42.15 24.15 39.2 23.95 38.65 22.65 38.7 21.15 38.15 21.35 35.85 21.4 Q35.85 20.6 36.7 20.2 L39.65 20.25 40.2 22.65 41.65 22.65 43.35 21.55" fill="#333333" fill-rule="evenodd" stroke="none"/>
    <path d="M49.1 24.0 L49.95 24.7 Q49.05 26.6 46.9 26.75 43.65 26.75 44.15 24.0 L44.9 24.9 47.65 25.0 48.15 24.15 49.1 24.0" fill="#333333" fill-rule="evenodd" stroke="none"/>
    <path d="M50.8 30.0 L52.45 30.15 53.25 31.2 Q54.55 32.8 53.1 34.1 L51.6 31.85 50.9 32.5 49.4 32.4 47.4 30.3 48.9 26.4 49.35 26.25 Q49.7 26.15 50.0 26.7 L48.8 29.9 49.95 30.9 50.8 30.0" fill="#333333" fill-rule="evenodd" stroke="none"/>
    <path d="M52.6 34.75 L53.6 33.85 56.15 34.15 56.55 32.85 58.65 32.9 59.05 33.95 60.85 33.7 63.1 29.5 Q63.95 30.2 63.65 31.5 62.65 36.15 58.15 35.35 L57.55 34.7 56.95 35.85 Q54.35 36.45 52.6 34.75" fill="#333333" fill-rule="evenodd" stroke="none"/>
    <path d="M61.8 27.15 L62.35 25.6 63.45 27.4 Q63.0 29.05 61.8 27.15" fill="#333333" fill-rule="evenodd" stroke="none"/>
    <path d="M60.55 36.15 L60.65 34.65 61.05 34.7 Q61.8 34.75 61.7 35.65 L62.6 36.6 65.9 36.7 66.7 36.0 Q67.6 35.1 67.15 33.75 66.75 32.55 67.2 31.7 L68.65 32.15 68.8 33.45 Q69.2 36.3 66.9 37.75 64.8 38.95 62.45 37.95 61.15 37.5 60.55 36.15" fill="#333333" fill-rule="evenodd" stroke="none"/>
    <path d="M60.8 4.25 L60.85 4.45 60.6 4.45 59.8 3.7 60.1 3.0 62.95 4.0 Q63.95 4.3 64.65 5.1 65.25 5.75 65.15 6.65 64.95 8.65 63.75 10.2 L64.65 11.3 63.85 11.55 62.25 10.95 62.6 8.7 63.1 8.45 63.9 6.4 60.8 4.15 60.8 4.25" fill="#333333" fill-rule="evenodd" stroke="none"/>
    <path d="M64.1 15.7 L64.2 16.95 62.1 16.3 64.2 12.6 65.4 12.3 65.6 13.45 64.1 15.7" fill="#333333" fill-rule="evenodd" stroke="none"/>
    <path d="M66.7 17.0 L67.65 17.7 Q68.85 18.65 69.1 20.0 L71.35 21.2 71.3 21.3 67.25 21.2 67.15 20.45 67.25 20.25 Q67.8 19.55 67.1 18.65 66.9 18.4 66.45 18.25 L63.95 18.0 63.75 17.3 66.7 17.0" fill="#333333" fill-rule="evenodd" stroke="none"/>
    <path d="M73.0 23.7 L72.6 24.45 70.45 25.5 72.75 27.05 71.1 27.75 68.85 26.65 68.85 24.75 69.55 24.1 71.65 23.3 72.1 21.75 73.0 23.7" fill="#333333" fill-rule="evenodd" stroke="none"/>
    <path d="M73.5 28.3 L73.05 30.4 71.35 33.35 67.5 32.8 67.35 31.9 71.2 31.4 72.85 27.75 73.5 28.3" fill="#333333" fill-rule="evenodd" stroke="none"/>
    <path d="M45.15 23.75 L45.3 23.95 45.6 24.8 Q46.55 26.7 45.7 28.45 L42.15 29.25 41.05 33.2 Q40.55 33.6 40.05 33.05 L40.85 27.45 44.65 26.95 44.2 24.15 45.15 23.75" fill="#333333" fill-rule="evenodd" stroke="none"/>
    <path d="M37.85 30.15 Q38.25 29.85 38.4 30.45 39.0 32.65 37.3 34.25 L36.35 34.65 35.4 38.6 34.7 39.0 35.5 32.75 36.75 33.05 37.85 31.05 37.85 30.15" fill="#333333" fill-rule="evenodd" stroke="none"/>
    <path d="M51.4 22.95 L51.85 22.05 53.35 23.25 55.35 20.15 56.05 21.4 53.85 24.65 51.4 22.95" fill="#333333" fill-rule="evenodd" stroke="none"/>
    <path d="M62.8 43.75 Q63.3 43.7 63.5 43.45 63.7 43.1 63.35 43.0 L62.8 43.75 M62.85 41.45 L64.85 42.9 64.65 44.95 61.85 44.75 62.4 42.7 61.6 41.25 62.85 41.45" fill="#333333" fill-rule="evenodd" stroke="none"/>
    <path d="M69.35 9.65 L70.55 10.45 70.1 13.25 67.8 13.05 67.85 11.4 69.35 9.65 M69.35 10.5 L68.4 11.2 68.35 12.5 69.7 12.4 69.35 10.5" fill="#333333" fill-rule="evenodd" stroke="none"/>
    <path d="M55.7 28.55 L55.85 29.0 56.25 29.15 56.65 29.0 56.8 28.55 56.65 28.15 56.25 27.95 55.85 28.15 Q55.7 28.3 55.7 28.55 M56.55 27.45 L56.4 27.25 Q56.1 26.6 56.85 26.5 L57.75 27.2 57.9 29.05 56.85 30.3 54.9 29.95 55.0 28.45 55.65 27.75 56.55 27.45" fill="#333333" fill-rule="evenodd" stroke="none"/>
    <path d="M44.55 6.5 L44.1 7.2 43.85 5.65 47.9 5.75 48.6 6.7 50.7 7.05 49.85 8.15 47.95 8.0 46.85 6.35 44.55 6.5" fill="#333333" fill-rule="evenodd" stroke="none"/>
    <path d="M0.5 71.05 L0.65 71.2 0.65 71.4 0.65 71.6 0.65 71.8 0.65 71.95 0.65 72.15 0.55 72.35 0.45 72.55 0.35 72.7 0.3 72.9 0.2 73.1 0.1 73.3 -0.2 73.45 -0.45 73.65 -0.6 73.8 -0.75 73.85 -1.0 73.9 -2.25 73.9 -2.5 73.85 -2.85 73.7 -3.55 73.45 -3.75 73.3 -3.75 73.1 -3.7 72.7 -3.7 72.35 -3.65 71.95 -3.65 71.8 -3.6 71.6 -3.4 71.4 -3.25 71.2 -3.05 71.05 -2.75 70.85 -2.5 70.7 -2.25 70.75 -1.6 70.9 -1.5 71.1 -1.6 71.3 -2.3 71.45 -2.45 71.65 -2.6 71.85 -2.75 72.05 -2.8 72.2 -2.8 72.4 -2.7 72.6 -2.6 72.7 -2.5 72.75 -1.1 72.65 -0.85 72.45 -0.8 72.3 -0.75 72.1 -0.65 71.9 -0.6 71.7 -0.7 71.55 -0.85 71.35 -1.2 70.95 -1.4 70.6 -1.4 70.4 -1.25 70.2 -1.1 70.1 -1.0 70.05 -0.75 70.0 -0.75 69.95 -0.4 70.1 -0.2 70.3 0.2 70.65 0.5 71.05" fill="#333333" fill-rule="evenodd" stroke="none"/>
  </g>
</svg>
