<?xml version="1.0" encoding="UTF-8" standalone="no"?>
<svg xmlns:xlink="http://www.w3.org/1999/xlink" height="57.5px" width="83.1px" xmlns="http://www.w3.org/2000/svg">
  <g transform="matrix(1.0, 0.0, 0.0, 1.0, 8.15, 7.5)">
    <path d="M10.6 33.4 L10.65 33.75 10.65 34.1 10.65 34.85 10.65 35.25 10.15 35.9 9.4 37.05 8.15 38.5 5.15 39.05 5.15 39.25 5.0 39.6 4.75 40.0 4.25 40.35 3.5 40.6 Q2.8 40.75 2.2 41.05 L2.15 41.25 2.1 41.6 2.0 42.0 1.9 42.35 1.5 42.75 1.15 43.1 0.9 43.35 0.6 43.5 0.0 43.75 -0.35 44.0 -1.0 44.1 -2.0 44.1 -2.85 43.85 -3.25 43.5 -3.5 43.1 -3.9 42.4 -4.5 41.6 -4.6 41.25 -4.6 40.85 -4.6 40.5 -4.6 40.1 -4.6 39.75 -4.45 39.4 -4.25 39.0 -4.1 38.6 -4.0 38.25 -3.6 37.85 -3.7 37.55 -4.0 37.1 -4.35 36.75 -5.0 36.5 -5.85 36.25 -6.25 35.85 -6.5 35.5 -6.5 35.1 -6.5 34.75 -6.65 34.4 -6.85 34.0 -6.85 33.6 -6.85 33.25 -6.85 32.85 -6.85 32.1 -6.85 31.75 -6.7 31.4 -6.5 31.0 -6.1 30.65 -5.75 30.35 -5.6 30.3 -5.0 30.1 -3.85 29.85 -3.35 29.5 -3.85 29.1 -4.1 28.75 -4.15 28.7 -3.75 28.3 -3.5 27.95 -3.4 27.75 -3.35 27.6 -3.3 27.4 -3.25 27.2 -3.25 27.0 -3.25 26.85 -3.3 26.65 -3.35 26.45 -3.4 26.25 -0.5 26.1 0.25 26.35 0.75 26.75 1.0 26.9 1.9 26.85 2.25 26.5 2.75 26.1 3.15 25.75 3.75 25.35 4.25 25.0 5.0 24.8 5.0 24.75 5.5 24.75 6.15 25.0 6.5 25.4 6.7 25.75 6.75 26.1 6.6 26.5 6.4 26.9 6.25 27.25 6.05 27.95 5.6 28.8 4.65 29.75 5.5 30.0 8.25 30.75 9.15 31.5 9.95 32.3 10.5 33.0 10.6 33.4" fill="#ffffff" fill-rule="evenodd" stroke="none"/>
    <path d="M-7.4 19.9 L-5.45 20.15 Q-4.65 20.15 -4.25 20.65 L-4.25 20.85 -4.25 21.4 -4.25 21.75 -4.25 22.15 -4.25 22.9 -4.25 23.1 -4.5 23.1 -6.0 23.0 -6.6 22.75 -7.0 22.4 -7.5 22.0 -7.75 21.6 -7.7 21.25 -7.5 20.85 -7.7 20.45 -7.75 20.1 -7.7 19.85 -7.4 19.9" fill="#ffffff" fill-rule="evenodd" stroke="none"/>
    <path d="M17.75 -6.25 L18.25 -5.85 18.65 -5.5 18.8 -5.15 19.0 -4.75 19.4 -4.0 19.75 -3.25 19.9 -2.9 20.0 -2.5 20.0 -2.15 20.0 -1.75 20.0 -1.4 20.05 -1.25 20.5 -1.15 21.0 -1.15 21.9 -1.15 21.95 -1.4 21.9 -2.15 21.9 -3.25 21.9 -4.0 22.0 -4.75 22.15 -5.15 22.4 -5.5 22.65 -5.75 22.9 -5.85 23.5 -6.0 24.5 -6.25 24.9 -6.5 25.5 -6.8 25.9 -7.0 26.5 -7.05 26.5 -7.15 29.0 -7.15 29.75 -6.9 30.25 -6.5 30.5 -6.15 30.7 -5.8 31.25 -5.0 31.85 -4.25 32.0 -3.9 32.1 -3.5 32.15 -3.15 32.15 -2.75 32.15 -2.55 35.15 -2.4 36.0 -2.65 36.5 -2.65 37.25 -2.4 37.65 -2.15 38.25 -1.9 38.75 -1.5 39.0 -1.25 39.05 -1.2 Q39.4 -1.0 39.75 -0.9 L40.25 -0.5 41.4 0.6 42.95 2.05 43.65 2.6 43.9 2.5 44.5 2.2 44.9 2.0 45.5 1.9 47.5 1.85 48.25 2.1 48.65 2.35 49.25 2.65 49.65 2.85 50.25 3.1 50.75 3.5 51.0 3.85 51.1 4.25 51.15 5.35 51.15 6.85 51.15 8.35 51.15 8.75 51.0 9.1 50.75 9.5 50.25 9.85 49.75 10.2 48.45 11.05 48.25 11.25 48.2 11.3 48.65 11.5 48.9 11.6 49.65 11.6 49.9 11.55 54.75 11.1 54.75 10.75 54.75 10.35 54.75 10.0 54.75 9.25 54.75 8.85 54.8 8.5 55.0 8.1 55.2 7.85 55.5 8.2 55.85 8.6 56.05 8.75 56.2 8.95 56.4 9.15 56.8 9.3 57.2 9.45 57.6 9.5 57.95 9.45 58.3 9.4 58.4 9.35 58.65 9.2 58.9 9.0 59.1 8.8 59.2 8.65 60.3 8.65 60.3 8.7 60.4 8.9 60.7 9.45 60.9 9.8 61.05 10.0 61.2 10.2 61.4 10.4 61.8 10.55 62.75 10.8 62.8 10.85 63.0 11.25 63.2 11.5 63.75 11.6 64.4 11.4 65.0 11.25 65.5 11.25 66.4 11.5 66.75 11.9 67.05 12.2 67.4 12.65 68.0 13.35 68.1 13.75 68.15 14.1 68.4 14.5 68.65 14.85 68.75 15.25 68.75 15.6 68.75 16.0 68.75 16.75 68.65 17.5 68.5 17.85 68.25 18.25 67.9 18.6 68.4 19.0 69.05 19.35 69.75 19.75 70.05 20.1 70.4 20.5 70.65 20.85 70.75 21.25 70.75 21.6 70.75 22.35 70.75 23.1 70.75 23.85 70.75 24.25 70.6 24.6 70.4 25.0 70.1 25.35 69.4 26.0 69.15 26.1 68.5 26.25 66.9 26.5 66.65 26.9 66.5 27.25 66.25 27.6 66.15 28.0 66.0 28.35 65.8 28.75 65.6 29.1 65.4 29.5 64.75 30.25 64.3 30.65 63.9 31.0 63.0 31.35 62.8 31.75 62.6 32.1 62.35 32.45 61.65 33.1 61.0 33.2 60.0 33.25 59.15 33.0 58.65 32.6 58.4 32.25 58.3 31.85 58.25 31.1 58.25 30.0 58.25 29.25 58.15 28.5 58.0 28.75 57.75 29.1 57.65 29.5 57.5 29.85 57.25 30.25 56.9 30.5 56.65 30.6 56.0 30.7 54.5 30.75 53.65 30.5 53.15 30.1 52.9 29.75 52.8 29.35 52.75 29.0 52.75 28.25 52.75 27.5 52.75 26.75 52.7 26.4 52.5 26.0 51.65 26.0 51.5 26.35 51.25 26.75 50.9 27.0 50.65 27.1 50.0 27.2 49.5 27.25 48.65 27.0 48.15 26.6 47.9 26.25 47.8 25.85 47.75 25.5 47.75 25.1 47.75 24.35 47.75 23.6 47.9 23.25 48.1 22.85 48.25 22.5 48.0 22.3 47.2 22.3 47.0 22.5 46.85 22.85 46.5 23.6 45.55 24.8 45.0 25.5 44.5 25.85 44.15 26.1 43.5 26.2 42.5 26.25 41.65 26.0 41.15 25.6 40.9 25.25 40.8 24.85 40.75 24.5 40.75 24.1 40.75 23.75 40.75 23.35 40.55 23.25 39.9 23.5 38.65 23.9 38.15 24.1 37.5 24.25 35.75 24.5 35.75 24.85 35.75 25.25 35.75 25.6 35.75 26.35 35.75 26.75 35.6 27.1 35.35 27.5 35.0 27.85 34.25 28.25 33.9 28.5 33.65 28.6 33.0 28.7 32.5 28.75 31.65 28.5 31.15 28.1 30.9 27.75 30.8 27.35 30.75 27.0 30.5 26.6 30.4 26.25 30.3 25.85 30.25 25.5 30.0 25.1 29.75 24.75 29.4 24.5 28.25 24.75 28.25 25.1 28.25 25.5 28.25 25.85 28.2 26.6 28.15 27.0 28.0 27.35 27.75 27.75 27.4 28.0 27.15 28.1 26.15 28.35 25.65 28.6 25.0 28.7 24.0 28.75 23.15 28.5 22.65 28.1 22.3 27.75 22.0 27.35 21.75 27.0 21.75 26.6 21.65 26.25 21.5 25.9 21.3 25.45 21.25 25.1 21.25 25.0 20.15 25.0 20.0 25.35 19.8 25.75 19.6 26.1 19.0 26.85 18.25 27.25 17.9 27.5 17.65 27.6 17.0 27.7 16.5 27.75 15.65 27.5 15.15 27.1 14.75 26.75 14.05 25.95 13.4 24.85 13.25 24.5 13.15 24.1 12.9 23.75 12.75 23.35 12.7 23.15 11.9 23.0 11.5 23.35 10.75 23.75 10.35 24.1 9.9 24.5 9.0 24.75 8.15 24.5 7.65 24.1 7.4 23.75 7.3 23.35 7.25 23.1 7.35 22.95 7.45 22.75 7.6 22.6 7.65 22.4 7.7 22.2 7.75 22.0 7.75 21.85 7.75 21.65 7.7 21.45 7.7 21.25 7.65 21.1 7.6 21.0 7.75 20.75 8.4 20.35 8.7 19.95 8.75 19.6 8.65 19.35 Q7.35 18.1 5.15 17.75 L3.75 17.25 3.5 16.85 3.3 16.5 3.15 16.1 2.75 15.75 2.4 15.35 2.05 14.95 1.9 14.6 1.85 14.4 2.1 14.35 2.65 13.95 2.8 13.75 2.95 13.55 3.05 13.4 3.15 13.2 3.2 13.0 3.2 12.85 3.25 12.65 3.25 12.45 3.25 12.25 3.2 12.1 3.2 11.9 3.4 11.7 4.35 10.9 4.7 10.55 4.9 10.2 4.95 10.0 5.0 9.65 5.0 9.25 5.0 9.1 5.0 8.9 4.95 8.7 4.95 8.5 4.9 8.35 4.8 8.15 4.7 7.95 4.55 7.75 4.4 7.6 4.15 7.4 3.85 7.2 3.4 7.05 3.25 7.0 3.25 5.75 3.25 4.25 3.25 3.35 3.35 2.75 3.45 2.55 3.5 2.4 6.35 2.2 7.7 1.9 7.95 1.75 8.25 1.6 8.45 1.4 8.6 1.2 8.7 1.0 8.8 0.8 8.9 0.65 9.05 0.55 9.4 0.5 9.75 0.1 10.15 -0.25 11.0 -1.0 11.4 -1.4 11.15 -1.75 11.0 -2.15 10.9 -2.5 10.8 -2.65 10.85 -2.75 11.2 -3.85 11.45 -4.8 11.65 -5.35 11.75 -5.75 11.75 -5.95 11.75 -6.1 11.75 -6.3 11.75 -6.5 11.75 -6.65 11.7 -6.85 11.75 -6.95 12.0 -6.95 16.0 -7.0 16.75 -6.75 17.15 -6.55 17.75 -6.25 M35.55 4.15 L35.65 3.95 35.7 3.75 35.75 3.2 35.75 2.8 35.7 2.45 35.7 2.25 35.65 2.05 35.55 1.9 35.3 1.5 35.15 1.35 34.9 1.15 34.6 0.95 34.15 0.85 33.75 0.75 33.75 0.8 33.4 0.8 32.95 0.95 32.6 1.15 32.4 1.3 32.2 1.5 32.1 1.7 31.95 1.9 31.9 2.05 31.85 2.25 31.75 2.45 31.75 2.65 31.75 2.8 31.75 3.0 31.75 3.2 31.75 3.4 31.75 3.55 31.85 3.75 31.9 3.95 31.95 4.15 32.1 4.3 32.2 4.5 32.4 4.7 32.6 4.9 32.95 5.05 33.4 5.2 33.75 5.25 34.15 5.2 34.6 5.05 35.3 4.5 35.55 4.15" fill="#ffffff" fill-rule="evenodd" stroke="none"/>
    <path d="M60.55 36.3 L62.4 36.0 62.65 35.65 63.0 35.25 63.75 34.5 64.15 34.1 65.0 33.95 65.0 33.85 65.75 34.1 66.55 34.95 67.35 35.9 68.0 37.1 68.1 37.5 68.15 37.85 68.15 38.25 68.1 38.6 68.0 39.0 68.05 39.15 69.5 39.35 70.25 39.6 70.6 39.9 70.6 40.85 70.65 41.75 70.7 42.35 70.85 42.55 70.9 42.7 71.05 42.9 71.0 43.0 70.85 43.35 70.15 44.1 69.0 45.2 68.65 45.5 68.05 45.65 66.5 46.1 65.25 46.35 64.5 46.75 64.15 47.1 63.75 47.5 63.0 48.25 62.65 48.5 61.0 48.55 Q59.5 48.5 58.15 47.75 L57.8 47.35 57.5 47.0 57.5 46.6 57.5 45.85 57.5 45.1 57.5 44.35 57.5 43.75 57.5 43.65 57.0 43.5 56.15 43.25 55.8 42.85 55.5 42.5 55.5 42.1 55.5 41.75 55.5 41.35 55.5 41.0 55.5 40.6 55.7 40.3 56.0 39.85 56.4 39.5 56.65 39.25 56.9 39.15 57.5 39.0 58.55 38.6 58.65 38.35 58.65 38.0 58.8 37.65 59.05 37.25 59.75 36.5 60.55 36.3 M63.4 39.6 L63.0 39.6 62.0 39.6 61.5 39.5 61.4 39.55 61.4 39.6 61.4 40.0 61.5 40.35 61.45 40.75 61.3 41.15 61.25 41.35 Q62.15 41.25 62.9 40.8 L63.9 40.25 63.65 39.9 63.4 39.6" fill="#ffffff" fill-rule="evenodd" stroke="none"/>
    <path d="M73.85 31.0 L74.2 31.15 74.4 31.35 74.55 31.5 74.6 31.9 74.6 32.45 74.5 33.0 74.45 33.2 74.4 33.4 74.2 33.6 74.05 33.75 73.8 33.95 73.7 34.15 73.6 34.35 73.25 34.7 73.1 34.85 72.85 34.9 72.6 34.85 72.2 34.7 72.1 34.5 71.95 34.35 71.85 34.15 71.85 33.95 71.85 33.75 71.85 33.6 71.95 33.4 72.0 33.2 72.05 33.0 72.05 32.85 72.15 32.65 72.35 32.55 72.6 32.4 72.65 32.25 72.8 32.1 72.9 31.9 72.9 31.7 72.9 31.5 72.95 31.35 73.05 31.2 73.1 31.15 73.35 31.1 73.55 31.1 73.85 31.05 73.85 31.0" fill="#ffffff" fill-rule="evenodd" stroke="none"/>
    <path d="M52.3 -5.0 L52.4 -4.8 52.4 -4.6 52.45 -4.45 52.45 -4.25 52.4 -4.05 52.55 -3.85 52.65 -3.7 52.35 -3.5 52.05 -3.3 51.9 -3.2 51.85 -3.15 51.6 -3.05 51.15 -3.2 50.95 -3.35 51.0 -3.55 51.05 -3.95 51.1 -4.3 51.1 -4.5 51.15 -4.65 51.25 -4.9 51.35 -5.05 51.45 -5.15 51.6 -5.2 51.85 -5.25 51.85 -5.3 52.15 -5.2 52.3 -5.0" fill="#ffffff" fill-rule="evenodd" stroke="none"/>
    <path d="M44.85 21.35 L45.15 20.95 45.35 20.85 45.45 20.8 45.85 20.75 45.85 20.7 46.35 20.85 46.6 21.0 46.7 21.2 46.8 21.4 46.9 21.6 46.9 21.95 46.9 22.7 46.9 23.65 46.9 24.0 46.75 24.6 46.1 25.55 45.35 26.2 43.4 26.65 41.65 26.95 41.2 27.15 40.95 27.25 40.6 27.35 40.15 27.45 40.05 27.65 39.85 28.0 39.4 28.6 39.15 28.95 39.1 29.15 39.05 29.35 38.95 29.5 38.9 29.7 38.85 29.9 38.7 30.1 38.5 30.45 38.35 30.85 38.1 31.2 38.0 31.4 37.95 31.6 37.9 31.75 37.8 31.95 37.7 32.15 37.5 32.5 37.35 32.9 37.3 33.1 37.25 33.25 37.25 33.65 37.2 34.0 37.15 34.2 37.0 34.4 36.9 34.6 36.65 34.8 36.5 34.9 36.4 34.95 36.0 35.0 35.5 34.9 35.35 34.95 35.1 35.1 34.9 35.2 34.5 35.25 34.0 35.15 33.75 34.95 33.65 34.75 33.6 34.6 33.55 34.4 33.5 34.2 33.5 34.0 33.5 33.85 33.6 33.65 33.7 33.45 33.75 33.25 33.75 32.9 33.75 32.5 33.75 31.95 33.65 32.0 33.45 32.15 33.2 32.35 31.45 32.6 31.0 32.7 30.6 32.6 30.35 32.4 30.15 32.2 30.1 32.0 30.0 31.85 29.9 31.65 29.85 31.45 29.85 31.25 29.3 30.45 28.2 29.15 27.65 28.45 27.6 28.25 27.6 27.9 27.6 27.35 27.6 26.75 27.65 26.6 27.85 26.4 28.1 26.2 28.5 26.1 28.75 26.1 29.25 26.1 29.85 26.1 29.9 25.95 29.9 25.75 29.9 25.4 29.9 25.0 29.9 24.85 29.95 24.65 30.1 24.45 30.35 24.25 30.75 24.15 31.25 24.2 31.95 24.3 32.35 24.4 32.6 24.25 32.75 24.15 32.9 24.1 33.25 24.05 33.5 24.0 33.95 24.15 34.2 24.35 34.35 24.5 34.45 24.7 34.6 24.65 35.05 24.35 35.85 23.75 36.05 23.6 36.25 23.4 36.75 23.25 37.2 23.4 37.45 23.5 37.5 23.55 37.95 23.65 38.2 23.85 38.35 24.0 38.45 24.2 38.5 24.4 38.5 24.6 38.65 24.5 38.75 24.35 38.9 24.15 38.95 23.95 39.1 23.75 39.1 23.6 39.15 23.4 39.3 23.2 39.4 23.05 39.6 22.85 39.85 22.65 40.35 22.5 40.85 22.5 41.3 22.65 41.6 22.85 41.8 23.0 42.15 23.4 42.8 23.95 42.9 24.15 43.15 24.15 43.4 23.95 43.5 23.75 43.6 23.6 43.9 23.2 44.15 23.0 44.3 22.85 44.45 22.65 44.55 22.45 44.55 22.25 44.6 22.1 44.7 21.9 44.8 21.7 44.8 21.5 44.85 21.35" fill="#ffffff" fill-opacity="0.3019608" fill-rule="evenodd" stroke="none"/>
    <path d="M41.6 21.15 L42.1 21.25 42.35 21.45 42.55 21.65 42.6 21.85 42.65 22.0 42.7 22.15 42.85 22.15 43.6 22.15 44.1 22.25 44.35 22.45 44.55 22.65 44.6 22.85 44.65 23.0 44.7 23.2 44.7 23.4 44.65 23.6 44.6 23.75 44.45 23.95 44.3 24.15 42.6 25.1 40.6 26.05 40.2 26.2 40.15 26.4 40.15 26.6 40.15 26.95 40.15 27.5 40.15 27.7 39.9 28.45 39.6 29.4 39.25 30.35 38.85 31.65 38.7 31.85 38.65 32.0 38.5 32.2 38.4 32.4 38.25 32.6 38.15 33.15 37.95 34.1 37.9 34.45 37.55 35.6 37.35 36.15 37.2 36.35 37.1 36.5 36.85 36.7 36.65 36.85 36.25 36.9 35.75 36.85 35.5 37.0 35.2 37.2 35.15 37.4 35.05 37.75 34.85 38.7 34.8 38.9 34.7 39.25 34.65 39.45 34.65 39.65 34.65 39.85 34.6 40.0 34.5 40.2 34.45 40.4 34.25 40.6 34.1 40.75 33.65 41.1 33.25 41.15 32.75 41.0 32.55 40.85 32.35 40.65 32.2 40.45 32.15 39.7 32.2 38.75 32.2 37.85 32.2 36.7 32.15 36.4 32.1 36.35 31.75 36.35 31.25 36.2 31.0 36.1 30.5 35.95 30.3 35.75 30.1 35.6 29.65 35.05 29.25 34.45 29.2 34.25 29.1 33.9 28.9 32.95 28.85 32.75 28.75 32.4 28.7 32.0 28.6 31.85 28.5 31.65 28.45 31.45 28.4 31.25 28.35 31.1 28.2 30.9 28.15 30.7 28.1 30.5 28.0 30.35 27.95 30.15 27.85 29.95 27.75 29.75 27.7 29.4 27.45 28.65 27.4 28.45 27.35 28.25 27.2 27.9 27.2 27.7 27.2 27.5 27.2 27.35 27.2 27.15 27.25 26.95 27.35 26.75 27.45 26.6 27.65 26.4 27.9 26.25 28.25 26.2 28.45 26.1 28.45 25.95 28.45 25.75 28.5 25.6 28.5 25.4 28.5 25.25 28.2 25.0 28.0 24.85 27.85 24.65 27.65 24.45 27.45 24.25 27.4 24.1 27.4 23.9 27.4 23.7 27.4 23.35 27.4 22.95 27.5 22.8 27.65 22.6 27.85 22.4 28.15 22.2 28.4 22.1 28.75 22.05 29.1 22.0 29.7 21.9 30.0 21.85 30.35 21.9 30.45 21.9 30.9 21.85 31.75 21.7 32.15 21.8 32.5 21.9 32.75 21.85 33.0 21.75 33.25 21.7 33.75 21.6 34.05 21.75 34.15 21.9 34.15 22.05 34.1 22.25 34.0 22.35 33.75 22.45 33.5 22.5 33.0 22.65 32.75 22.7 32.5 22.85 32.4 23.0 32.15 23.2 32.25 23.4 32.4 23.55 32.6 23.65 32.65 23.5 32.65 23.35 32.7 23.15 32.75 22.95 32.9 22.85 33.05 22.8 33.25 22.7 33.6 22.85 33.7 23.0 33.85 23.2 33.9 23.4 33.9 23.6 33.9 23.75 33.9 23.95 33.95 24.15 34.05 24.3 34.15 24.5 34.2 24.7 34.25 24.9 34.35 25.0 34.65 25.1 35.0 24.95 35.15 24.9 35.6 24.75 35.9 24.55 36.15 24.4 36.95 24.0 37.15 23.65 37.8 22.75 38.4 22.35 39.1 21.95 39.3 21.75 39.45 21.6 39.7 21.45 40.1 21.4 40.6 21.25 41.1 21.15 41.6 21.15" fill="#ffffff" fill-opacity="0.3019608" fill-rule="evenodd" stroke="none"/>
    <path d="M10.6 33.4 L10.85 33.75 11.0 34.1 11.05 34.5 11.0 34.85 10.9 35.25 10.65 35.6 10.15 36.0 9.85 36.35 9.5 36.75 9.15 37.1 9.0 37.5 8.9 37.85 8.5 38.25 8.15 38.6 7.75 39.0 7.25 39.35 6.5 39.6 5.75 39.85 5.25 40.25 4.5 40.45 3.15 40.75 2.9 41.1 2.6 41.45 1.9 42.25 1.5 42.6 0.75 42.95 0.0 43.25 -0.6 43.5 -0.85 43.85 -1.5 44.1 -2.0 44.25 -2.75 44.0 -3.1 43.6 -3.5 43.25 -3.75 42.85 -3.75 42.5 -3.75 42.1 -3.9 41.75 -4.25 41.35 -4.5 41.0 -4.5 40.6 -4.5 40.25 -4.5 39.85 -4.5 39.1 -4.5 38.75 -4.35 38.4 -4.1 38.0 -3.85 37.75 -3.6 37.65 -3.0 37.5 -2.5 37.5 -1.75 37.7 -0.5 38.0 0.15 37.85 0.2 37.5 0.4 37.1 0.75 36.85 0.9 36.8 3.0 36.65 3.65 36.6 4.0 36.35 4.5 36.0 4.75 35.6 4.9 35.25 5.0 34.85 5.25 34.5 5.65 34.1 6.5 33.85 7.0 33.75 7.4 33.35 7.75 33.0 8.15 32.6 9.0 32.45 9.0 32.35 9.75 32.6 10.25 33.0 10.6 33.4" fill="#339999" fill-opacity="0.2" fill-rule="evenodd" stroke="none"/>
    <path d="M10.6 32.25 L10.75 32.6 10.85 33.35 10.9 34.1 10.95 34.85 11.0 35.6 10.6 36.35 9.95 37.05 9.0 37.6 8.85 38.0 8.35 38.7 7.65 39.35 5.05 39.9 5.0 40.1 4.95 40.5 4.9 40.85 4.75 41.25 4.5 41.6 4.15 41.85 3.5 42.0 2.65 41.75 2.25 41.35 2.0 41.0 2.0 40.6 2.0 40.25 2.0 39.85 1.85 39.5 1.65 39.1 1.5 38.75 1.4 38.35 1.4 38.0 1.4 37.6 1.55 37.25 1.9 36.85 2.15 36.6 3.0 36.45 5.0 36.35 6.0 36.25 6.15 35.9 6.4 35.5 6.65 35.25 6.9 35.15 7.5 34.85 7.9 34.6 6.0 34.35 5.0 34.1 4.5 33.75 4.25 33.35 4.2 32.25 4.3 31.1 4.4 30.0 4.4 29.25 4.5 28.9 4.9 28.15 5.5 27.35 5.75 27.1 6.0 27.05 6.5 26.95 6.5 26.85 7.15 27.1 7.4 27.5 7.55 27.9 7.5 28.25 7.35 28.6 7.1 29.0 6.75 29.35 6.65 29.75 6.65 30.1 6.65 30.5 6.65 30.85 6.65 31.25 9.5 31.6 10.25 31.85 10.6 32.25" fill="#339999" fill-opacity="0.2" fill-rule="evenodd" stroke="none"/>
    <path d="M10.65 10.15 L11.0 9.85 11.4 9.75 12.0 9.6 12.75 9.85 13.25 10.25 13.5 10.6 13.75 11.0 13.9 11.35 13.9 11.75 14.05 12.1 14.4 12.5 14.65 12.75 14.75 12.8 16.5 13.0 17.25 13.25 17.6 13.65 17.85 14.0 18.0 14.35 17.95 14.7 17.8 15.15 17.6 15.45 17.4 15.75 14.4 15.8 13.35 15.4 12.65 15.1 12.4 14.75 11.9 14.35 11.65 14.0 11.5 13.6 11.3 13.3 11.0 13.2 10.5 13.25 7.0 13.25 6.5 13.1 5.75 12.85 5.4 12.5 5.0 12.1 4.9 11.75 4.9 11.0 4.9 9.85 5.05 9.5 5.25 9.1 6.0 8.95 6.0 8.85 6.65 9.1 6.9 9.5 7.1 9.9 7.25 10.25 7.4 10.5 10.25 10.5 10.65 10.15" fill="#339999" fill-opacity="0.2" fill-rule="evenodd" stroke="none"/>
    <path d="M64.0 10.6 L65.0 10.65 65.65 10.75 65.9 10.7 66.5 10.6 67.4 10.85 67.9 11.25 68.15 11.6 68.55 12.35 68.9 12.75 69.25 13.15 69.75 13.85 Q70.05 14.8 69.95 15.75 L69.85 18.35 69.95 21.35 70.0 22.5 69.9 22.85 69.75 23.25 69.65 23.6 69.4 24.0 69.25 24.35 69.0 25.1 68.9 25.5 68.75 25.85 68.65 26.25 68.45 26.55 68.0 27.0 67.65 27.25 67.0 27.35 66.5 27.4 65.65 27.5 65.4 27.85 65.15 28.25 65.05 28.6 65.0 29.35 65.0 29.75 65.0 30.1 64.9 30.5 64.75 30.85 64.5 31.25 64.25 31.6 63.8 32.0 63.5 32.25 63.25 32.35 61.15 32.6 60.75 32.85 59.65 33.1 59.25 33.35 58.5 33.45 55.5 33.5 54.5 33.25 53.75 32.85 53.15 32.5 52.75 32.1 52.4 31.75 52.15 31.35 52.05 31.0 52.0 30.25 52.0 29.85 52.0 29.5 52.0 29.1 51.95 28.9 49.0 28.25 48.55 27.85 47.75 27.1 47.4 26.75 47.15 26.35 47.05 26.0 47.0 25.6 47.0 25.25 47.0 24.85 47.0 24.5 46.85 24.15 46.65 23.75 46.0 23.75 45.85 24.1 45.65 24.5 45.4 24.85 45.25 25.25 45.15 25.6 44.85 25.95 44.1 26.7 43.6 27.1 42.9 27.5 42.5 27.75 42.25 27.8 39.0 28.0 38.0 27.75 37.5 27.35 37.3 27.0 37.15 26.6 37.05 26.25 36.95 25.9 36.75 25.85 36.4 26.25 36.25 26.6 36.0 27.0 35.8 27.4 35.65 27.75 35.45 28.05 35.0 28.5 34.65 28.75 34.0 28.8 32.5 28.85 31.65 28.65 29.65 28.1 29.25 28.4 28.85 28.75 28.4 29.1 27.5 29.5 27.15 29.75 26.5 29.8 23.5 29.85 22.65 29.6 22.15 29.25 21.75 28.85 21.65 28.5 21.65 28.1 21.65 27.75 21.65 27.35 21.55 27.1 21.0 26.85 19.9 27.15 19.0 27.35 15.5 27.35 14.65 27.1 14.15 26.75 13.75 26.35 13.65 26.0 13.65 25.6 13.65 25.25 13.65 24.85 13.65 24.6 13.5 24.55 Q13.05 24.35 12.65 24.25 L12.3 24.3 12.0 24.6 11.65 24.85 11.0 24.95 9.5 25.0 8.65 24.75 8.25 24.35 8.0 24.0 Q7.95 23.4 8.05 22.85 L8.15 22.1 8.15 20.6 8.2 19.1 8.25 18.85 8.25 18.8 7.5 18.65 6.25 18.6 6.0 18.7 5.5 18.85 4.9 18.6 4.7 18.2 4.65 17.85 4.8 17.55 Q5.3 17.1 5.9 16.8 L6.5 16.5 7.5 16.4 9.5 16.25 10.15 16.5 10.5 16.9 10.75 17.25 10.75 17.6 10.75 18.35 10.75 18.75 10.8 19.1 10.85 19.85 10.9 20.6 10.9 20.75 13.0 21.0 13.75 21.25 14.4 21.25 14.55 20.9 14.75 20.5 15.15 20.1 16.0 19.9 16.75 19.75 17.15 19.6 18.0 19.45 20.5 19.35 21.25 19.6 21.75 20.0 22.0 20.35 24.0 20.65 24.9 20.85 25.4 21.25 25.65 21.35 25.8 21.15 26.15 20.75 26.65 20.35 27.5 20.1 28.4 20.35 28.9 20.75 29.1 21.15 29.25 21.5 29.35 21.85 29.4 22.25 29.4 22.5 29.5 22.55 30.4 22.5 30.9 22.25 31.5 22.1 32.15 21.95 32.9 21.75 33.5 21.35 33.9 21.0 34.4 20.75 35.0 20.65 37.15 20.35 37.3 20.0 37.5 19.6 38.0 19.25 39.0 19.0 39.5 19.0 40.4 19.25 40.9 19.6 41.15 20.0 41.4 20.35 41.5 20.75 41.5 21.1 41.4 21.5 41.5 21.85 41.5 22.25 41.5 22.6 41.4 23.0 41.4 23.35 41.6 23.3 41.8 23.0 42.0 22.6 42.0 22.25 42.0 21.85 42.0 21.5 42.15 21.15 42.4 20.75 42.75 20.35 43.25 20.1 44.25 19.85 44.75 19.6 45.5 19.55 47.5 19.5 48.35 19.8 49.75 20.5 50.15 20.85 50.25 21.25 50.5 22.0 50.65 22.35 50.75 22.75 51.0 23.5 51.0 23.85 54.0 24.5 54.9 24.75 55.4 25.1 55.65 25.5 55.9 25.85 56.0 26.25 56.0 27.0 56.0 27.35 56.0 27.75 56.0 28.5 56.0 28.85 56.05 29.05 58.0 29.25 58.65 28.85 59.1 28.15 59.7 27.3 60.15 26.6 60.8 25.5 61.0 25.1 61.0 24.75 61.0 24.35 61.0 24.0 61.15 23.65 61.35 23.25 61.5 22.85 61.55 22.5 61.95 21.75 62.25 21.35 62.65 21.0 63.25 20.6 63.5 20.25 63.5 19.85 63.5 19.1 63.5 18.75 63.5 18.35 63.5 18.0 63.65 17.65 63.9 17.25 64.25 16.85 64.9 16.5 64.9 16.15 64.65 15.75 64.25 15.35 64.15 15.0 64.0 14.6 63.4 14.25 62.75 13.85 62.45 13.45 62.25 13.1 62.15 12.75 62.15 12.35 62.15 12.0 62.3 11.65 62.65 11.25 63.15 10.85 64.0 10.7 64.0 10.6" fill="#339999" fill-opacity="0.2" fill-rule="evenodd" stroke="none"/>
    <path d="M50.9 4.1 Q50.7 5.2 50.75 6.35 L50.7 8.6 50.65 9.35 50.5 9.75 50.25 10.1 50.0 10.5 49.5 10.85 49.15 11.1 48.5 11.25 46.0 11.2 44.25 11.25 44.0 11.6 43.55 12.0 43.1 12.35 42.75 12.6 42.65 12.7 42.0 12.85 41.25 13.0 40.85 13.35 40.4 13.75 40.15 14.1 39.9 14.5 39.65 14.85 38.75 15.2 38.0 15.5 37.4 15.25 37.1 14.85 37.0 14.5 37.1 14.15 37.35 13.75 38.0 13.0 38.65 12.25 38.75 11.85 38.75 11.5 39.15 11.15 39.5 10.85 40.0 10.75 40.75 10.5 41.4 10.1 41.5 9.75 41.5 9.35 41.5 9.0 41.8 8.65 42.15 8.25 43.0 8.0 46.0 7.8 47.25 7.6 47.25 7.25 47.25 6.85 47.25 6.5 47.1 6.15 46.8 5.7 46.3 4.95 45.75 3.85 45.75 3.5 45.8 3.1 45.9 2.75 46.15 2.35 46.65 2.0 47.4 1.75 48.0 1.7 48.0 1.6 49.0 1.6 49.9 1.85 50.4 2.25 50.6 2.6 50.75 3.0 50.9 4.1" fill="#339999" fill-opacity="0.2" fill-rule="evenodd" stroke="none"/>
    <path d="M24.9 21.5 L25.5 21.45 25.5 21.35 27.5 21.35 28.25 21.6 28.75 22.0 29.15 22.35 29.5 22.75 29.9 23.1 30.0 23.5 30.15 23.85 30.5 24.25 30.9 24.6 31.25 25.0 31.5 25.35 31.8 25.5 32.25 25.5 32.65 25.1 33.0 24.75 33.4 24.35 33.65 24.1 33.9 24.0 34.5 23.7 34.9 23.5 35.5 23.4 36.5 23.35 37.25 23.6 37.65 23.85 38.25 24.1 38.75 24.5 39.0 24.9 39.15 25.25 39.1 25.6 39.0 26.0 38.9 26.35 38.5 26.7 38.15 27.0 37.5 27.1 36.5 27.15 35.5 27.25 35.15 27.6 34.75 28.0 34.4 28.35 34.0 28.7 33.65 29.0 33.0 29.05 31.0 29.1 30.15 28.85 29.75 28.5 29.4 28.1 29.0 27.75 28.7 27.65 28.5 27.85 28.35 28.25 28.1 28.6 27.75 29.0 27.0 29.7 26.65 30.0 26.0 30.05 23.0 30.1 22.15 29.85 21.75 29.5 21.4 29.1 20.65 28.35 20.15 27.6 19.65 27.25 19.4 27.0 18.65 26.75 18.15 26.35 17.75 26.6 17.6 27.0 17.4 27.35 17.0 27.6 16.5 27.75 15.5 27.6 15.0 27.45 14.4 27.25 14.15 27.0 14.0 26.85 13.4 26.6 13.15 26.25 13.15 25.85 13.15 25.5 13.15 25.1 13.25 24.75 13.4 24.4 13.65 24.0 14.25 24.0 14.65 24.35 14.7 24.7 14.9 25.1 15.2 25.05 15.5 24.75 15.6 24.35 15.65 24.0 15.9 23.6 16.25 23.35 16.4 23.3 17.0 23.15 18.0 23.0 18.85 23.3 19.6 23.65 20.0 23.9 20.15 24.0 20.75 24.25 21.15 24.45 21.75 24.75 22.25 25.15 22.65 25.5 23.1 25.9 23.9 26.6 25.15 26.6 25.35 26.2 25.4 25.85 25.4 25.5 25.3 25.15 24.65 24.35 24.05 23.6 23.9 23.25 23.9 22.85 23.95 22.5 24.15 22.15 24.5 21.75 24.9 21.5" fill="#339999" fill-opacity="0.2" fill-rule="evenodd" stroke="none"/>
    <path d="M69.15 15.15 L69.4 15.5 69.65 15.85 69.75 16.6 69.75 17.35 69.8 18.5 69.65 20.0 69.5 20.35 69.25 20.75 68.9 21.1 69.4 21.5 69.75 21.9 70.0 22.25 70.15 22.6 70.25 23.0 70.25 23.35 70.25 23.75 70.25 24.1 70.25 24.5 70.15 24.85 70.0 25.25 69.75 25.6 69.4 26.0 68.55 26.4 68.15 26.6 67.5 26.75 65.85 27.15 65.75 27.35 65.75 27.75 65.6 28.1 65.4 28.5 65.15 28.9 64.75 29.6 64.4 30.0 63.65 30.35 63.5 30.75 63.25 31.1 62.9 31.5 62.0 31.75 61.0 31.75 60.15 31.5 59.75 31.25 58.55 31.05 57.65 30.85 57.25 30.5 57.15 30.75 57.0 31.1 56.75 31.5 56.4 31.85 55.65 32.5 55.0 32.6 54.5 32.6 53.65 32.35 53.25 32.0 52.9 31.6 52.5 31.25 52.15 30.85 51.9 30.5 51.9 30.1 51.9 29.75 51.9 29.35 51.9 29.1 51.9 29.05 50.0 28.8 49.0 28.6 48.55 28.25 48.15 27.85 47.75 27.5 47.75 27.1 47.75 26.75 47.75 26.35 47.75 26.0 47.8 25.65 48.05 25.25 48.25 25.0 48.5 24.9 49.0 24.75 49.65 25.0 50.0 25.4 50.25 25.75 50.3 25.85 50.8 25.75 50.9 25.5 50.9 25.1 51.05 24.75 51.4 24.35 51.65 24.1 52.5 23.95 55.75 23.6 55.75 23.25 55.75 22.85 55.75 22.5 55.75 22.1 55.8 21.75 55.9 21.35 56.05 21.0 56.4 20.6 57.0 20.25 57.4 20.0 58.0 19.9 59.0 19.85 59.75 20.1 60.25 20.5 60.65 20.85 61.0 21.25 61.2 21.2 61.4 20.85 61.5 20.5 61.9 20.1 62.25 19.75 62.9 19.35 63.5 19.0 63.9 18.65 64.4 18.25 64.3 17.85 64.25 17.5 64.25 17.1 64.25 16.75 64.25 16.0 Q64.2 15.4 64.4 14.85 L64.55 14.5 64.9 14.1 65.4 13.85 66.0 13.8 66.0 13.75 66.5 13.75 67.4 14.0 68.05 14.35 68.75 14.75 69.15 15.15" fill="#339999" fill-opacity="0.2" fill-rule="evenodd" stroke="none"/>
    <path d="M57.5 40.35 L58.5 40.25 59.0 40.25 59.65 40.5 60.0 40.9 60.25 41.25 60.3 41.6 60.4 42.0 60.65 42.35 60.85 42.75 61.05 43.1 61.25 43.5 61.4 43.65 62.65 43.55 63.5 43.35 64.25 43.35 64.6 43.1 65.4 42.35 66.1 41.6 66.4 41.25 66.4 40.85 66.4 40.5 66.65 40.15 67.05 39.75 67.4 39.5 68.0 39.45 68.0 39.35 68.75 39.6 69.25 40.0 69.5 40.4 69.65 40.75 69.85 41.15 70.0 41.5 70.1 41.9 70.15 42.25 70.15 42.6 70.1 43.0 70.0 43.35 69.85 43.75 69.65 44.1 69.4 44.35 69.15 44.45 68.5 44.65 67.4 44.85 67.0 45.25 66.65 45.6 66.25 46.0 65.9 46.35 65.9 46.7 66.15 47.15 66.35 47.5 66.5 47.85 66.45 48.25 66.3 48.65 66.15 49.0 65.75 49.35 65.25 49.75 64.5 50.0 60.0 50.0 Q58.8 49.8 57.8 49.25 L55.15 47.85 54.8 47.5 54.55 47.1 54.4 46.75 54.4 46.35 54.45 46.05 55.05 45.3 55.4 45.0 56.15 44.75 56.4 44.35 56.5 44.0 56.5 43.6 56.55 43.25 56.65 42.85 56.65 42.65 56.5 42.5 55.9 42.25 55.6 41.85 55.5 41.5 55.6 41.15 55.9 40.75 56.5 40.5 57.5 40.35" fill="#339999" fill-opacity="0.2" fill-rule="evenodd" stroke="none"/>
    <path d="M65.5 34.75 L66.15 35.0 66.65 35.4 67.0 35.75 67.15 36.1 67.25 36.5 67.4 36.85 67.4 37.25 67.4 38.0 67.45 39.1 67.5 39.85 67.6 40.1 68.5 40.4 69.25 40.6 69.75 41.0 70.15 41.4 70.35 41.75 70.5 42.1 70.6 42.5 70.65 42.85 70.65 43.25 70.6 43.6 70.5 44.0 70.35 44.35 70.0 44.7 Q69.5 45.0 69.05 45.25 L68.65 45.5 68.05 45.65 67.25 45.9 65.9 46.35 65.65 46.75 65.6 47.1 65.5 47.5 65.35 47.85 65.0 48.25 64.65 48.6 64.4 48.85 64.15 48.95 63.5 49.1 62.65 48.85 62.3 48.5 62.0 48.1 61.9 47.75 61.9 47.35 61.9 47.0 61.9 46.6 62.05 46.25 62.25 45.85 62.4 45.5 62.4 45.15 62.55 44.8 63.25 44.0 63.65 43.6 64.5 43.2 64.9 43.0 64.15 42.75 63.8 42.35 63.5 42.0 63.5 41.6 63.5 41.25 63.5 40.85 63.55 40.5 63.8 40.15 64.1 39.7 64.5 39.0 64.6 38.6 64.65 38.25 64.65 37.85 64.6 37.5 64.4 37.1 64.3 36.75 64.25 36.35 64.25 36.0 64.3 35.65 64.55 35.25 64.75 35.0 65.05 34.9 65.5 34.8 65.5 34.75" fill="#339999" fill-opacity="0.2" fill-rule="evenodd" stroke="none"/>
    <path d="M17.5 -6.25 L20.0 -6.25 20.65 -6.0 21.0 -5.65 21.25 -5.25 21.25 -4.9 21.25 -4.5 21.25 -4.15 21.25 -3.75 21.25 -3.4 21.1 -3.05 20.85 -2.65 20.3 -1.85 19.9 -1.15 19.4 -0.75 19.4 -0.4 19.4 0.0 19.4 0.75 19.35 1.5 19.25 1.85 19.3 2.25 19.4 2.6 19.15 3.0 18.95 3.15 18.5 3.35 17.9 3.1 17.4 2.75 16.9 2.35 16.65 2.0 16.65 1.6 16.65 0.5 16.7 -1.4 16.5 -2.9 16.35 -3.25 16.15 -3.65 16.15 -4.0 16.15 -4.4 16.25 -4.75 16.25 -5.15 16.35 -5.5 16.65 -5.85 17.0 -6.15 17.5 -6.2 17.5 -6.25" fill="#339999" fill-opacity="0.2" fill-rule="evenodd" stroke="none"/>
    <path d="M27.85 -7.5 L28.9 -7.25 Q30.95 -7.1 31.65 -5.55 L31.65 -5.0 32.0 -4.05 Q31.65 -3.55 31.1 -3.75 30.85 -3.8 30.7 -3.95 30.55 -3.95 30.45 -4.05 L29.9 -5.2 Q27.45 -6.3 24.7 -5.95 L22.1 -2.0 21.25 -2.2 21.35 -2.8 22.2 -4.4 23.95 -6.95 24.45 -7.35 27.85 -7.5" fill="#333333" fill-rule="evenodd" stroke="none"/>
    <path d="M32.6 -3.0 L34.85 -2.85 36.85 -3.3 38.85 -3.35 39.7 -2.7 41.4 -1.55 Q42.85 -0.6 43.1 1.05 L42.35 2.0 41.8 1.7 41.65 1.5 41.2 0.2 38.85 -2.05 37.05 -2.1 36.15 -1.8 33.05 -1.9 Q32.05 -2.05 32.6 -3.0" fill="#333333" fill-rule="evenodd" stroke="none"/>
    <path d="M48.25 1.5 L48.2 1.85 Q48.0 2.85 46.9 2.4 L46.4 1.8 45.25 1.95 44.35 2.8 43.1 1.9 44.15 1.4 44.85 0.45 46.6 0.3 48.25 1.5" fill="#333333" fill-rule="evenodd" stroke="none"/>
    <path d="M50.9 3.3 L51.65 4.7 52.3 5.8 Q52.85 7.05 52.6 8.4 L52.2 8.9 50.6 10.55 Q49.45 11.45 47.9 11.2 L47.55 10.45 48.05 9.55 Q49.6 9.45 50.65 8.2 51.35 7.35 50.8 6.2 L50.55 5.85 49.15 3.2 49.05 3.1 48.45 2.8 Q47.65 2.7 47.9 2.1 L50.35 2.2 50.75 2.95 50.9 3.3" fill="#333333" fill-rule="evenodd" stroke="none"/>
    <path d="M43.8 9.65 L44.1 9.55 Q44.7 9.35 46.1 9.55 46.8 9.45 46.6 10.0 L46.35 10.35 44.3 10.8 44.3 12.1 42.85 13.25 42.4 13.15 42.15 12.95 Q41.7 12.5 42.2 12.0 L42.6 11.6 Q43.1 11.1 43.1 10.5 L43.8 9.65" fill="#333333" fill-rule="evenodd" stroke="none"/>
    <path d="M12.5 -5.95 L12.1 -5.35 12.5 -2.35 12.35 -1.8 11.7 -1.95 Q11.2 -2.05 11.05 -2.5 10.8 -3.5 10.85 -4.45 10.85 -5.3 11.3 -6.1 11.75 -6.95 12.65 -7.25 15.5 -7.65 18.25 -6.55 L20.0 -5.65 Q21.0 -4.95 20.85 -3.7 L20.8 -3.2 20.85 -3.0 20.8 -2.85 20.5 -2.7 Q19.85 -2.85 19.75 -3.55 L19.7 -3.95 19.7 -4.1 19.7 -4.25 19.65 -4.5 Q16.4 -6.75 12.5 -5.95" fill="#333333" fill-rule="evenodd" stroke="none"/>
    <path d="M9.6 -0.35 L10.05 -1.3 10.5 -1.55 Q11.4 -1.2 10.8 -0.25 10.3 0.45 10.25 1.35 9.8 1.85 9.4 1.5 L9.25 1.3 Q8.85 0.25 9.6 -0.35" fill="#333333" fill-rule="evenodd" stroke="none"/>
    <path d="M8.25 1.0 L8.65 1.35 8.7 1.5 8.7 1.7 8.35 2.3 7.9 2.65 7.8 2.4 5.5 2.25 Q3.65 2.9 2.6 4.5 2.35 4.95 2.55 5.5 L6.0 7.2 6.1 9.05 6.0 9.7 Q5.85 10.4 5.25 10.55 4.85 10.5 4.75 10.05 L4.7 9.95 4.45 9.15 Q4.3 8.85 4.45 8.55 L2.15 7.25 Q0.95 6.7 1.05 5.4 1.15 3.7 2.55 2.85 3.85 1.95 5.35 1.4 6.8 0.85 8.25 1.0" fill="#333333" fill-rule="evenodd" stroke="none"/>
    <path d="M7.3 9.7 L7.4 9.8 6.85 10.25 6.95 11.0 7.65 11.75 10.65 11.95 11.15 12.7 10.7 13.65 10.0 13.3 7.75 13.15 Q7.15 13.05 6.6 12.5 6.2 12.05 6.1 11.3 5.95 10.35 6.5 9.65 L6.75 9.5 7.3 9.7" fill="#333333" fill-rule="evenodd" stroke="none"/>
    <path d="M6.5 11.9 L5.5 11.9 Q4.25 12.45 3.5 13.5 L3.3 14.05 Q3.1 15.55 3.25 17.05 L3.8 17.35 4.75 17.8 7.15 18.2 Q8.65 18.7 9.2 20.3 9.8 22.15 8.95 24.0 L9.15 25.05 9.7 25.15 Q11.7 24.75 12.75 23.45 L13.25 23.65 13.7 24.25 Q13.3 25.4 12.1 25.95 10.35 26.85 8.5 26.9 7.8 26.7 7.4 26.0 L7.3 25.45 7.2 24.25 Q6.9 23.4 7.6 22.65 L7.7 21.7 Q7.75 20.55 6.85 19.8 L4.55 19.4 2.65 18.6 1.75 17.75 1.75 17.2 1.8 15.7 Q1.75 14.4 2.25 13.45 3.15 11.7 5.0 11.0 L6.5 11.9" fill="#333333" fill-rule="evenodd" stroke="none"/>
    <path d="M14.7 22.9 L14.8 22.7 Q15.45 21.5 16.6 21.1 L17.25 20.6 18.2 21.25 18.0 22.55 16.4 22.75 15.0 24.25 13.65 24.2 12.85 23.45 12.65 22.5 13.15 21.75 13.65 22.9 14.7 22.9" fill="#333333" fill-rule="evenodd" stroke="none"/>
    <path d="M16.4 28.0 L17.2 27.95 18.7 25.55 21.3 25.95 Q22.7 26.45 23.2 27.95 23.3 28.35 22.95 28.5 L21.35 28.35 20.7 27.2 19.25 27.15 17.9 29.4 16.1 29.35 13.1 26.35 Q12.55 25.8 12.5 25.0 L13.2 25.05 13.25 25.1 13.6 25.2 16.4 28.0" fill="#333333" fill-rule="evenodd" stroke="none"/>
    <path d="M26.85 24.25 L26.8 24.1 Q26.7 23.1 27.6 22.95 28.8 22.8 29.3 23.8 29.9 25.2 29.6 26.65 29.4 27.85 28.65 28.85 L28.0 29.5 Q24.7 31.6 21.4 29.5 L21.35 27.45 Q21.55 26.8 22.1 27.2 L22.45 28.65 Q22.6 28.95 23.1 29.0 L26.0 28.9 Q27.05 28.65 27.45 27.8 28.15 26.5 28.05 25.0 L26.85 24.25" fill="#333333" fill-rule="evenodd" stroke="none"/>
    <path d="M4.25 23.6 L4.5 23.55 5.2 23.7 Q5.45 23.65 5.7 23.85 L5.4 24.75 4.4 24.8 3.5 27.05 2.75 27.4 1.35 26.3 -2.75 25.25 0.75 24.7 1.5 24.8 2.35 25.3 2.7 25.75 4.25 23.6" fill="#333333" fill-rule="evenodd" stroke="none"/>
    <path d="M-2.2 26.3 L-2.3 27.05 -2.15 27.95 Q-1.9 28.6 -2.05 29.15 L-7.05 31.5 -7.2 30.65 -3.7 27.8 -3.35 25.55 -2.5 24.8 -1.25 25.5 Q-1.75 25.4 -2.0 25.8 L-2.2 26.3" fill="#333333" fill-rule="evenodd" stroke="none"/>
    <path d="M10.75 31.35 L11.1 33.2 Q11.25 34.6 10.25 35.6 L9.45 35.3 9.2 31.95 8.85 31.45 6.6 31.1 6.15 30.5 6.6 26.05 Q7.05 25.8 7.15 26.4 L7.35 29.6 8.1 29.8 Q9.95 29.45 10.75 31.35" fill="#333333" fill-rule="evenodd" stroke="none"/>
    <path d="M10.6 35.9 L10.6 37.0 10.75 37.65 Q11.15 38.4 10.65 39.1 L9.35 39.95 7.1 39.9 6.0 39.0 7.0 38.35 9.25 38.25 9.55 36.2 10.6 35.9" fill="#333333" fill-rule="evenodd" stroke="none"/>
    <path d="M-5.85 31.45 L-5.8 31.75 Q-6.0 32.4 -6.55 32.95 L-6.6 35.95 -4.45 36.6 -4.15 37.3 Q-3.95 37.9 -4.0 38.65 -4.1 40.2 -4.75 41.4 L-5.55 38.1 -7.85 37.45 -7.7 32.95 -7.05 31.9 -5.85 31.45" fill="#333333" fill-rule="evenodd" stroke="none"/>
    <path d="M0.3 40.7 L0.45 40.6 Q0.7 40.35 1.0 40.25 L2.95 40.35 Q4.05 40.9 4.45 42.0 L5.1 42.55 3.5 43.35 2.9 43.0 2.65 42.1 1.75 42.15 1.65 42.9 1.6 43.4 Q0.45 46.0 -2.65 45.4 -3.65 45.1 -4.15 44.25 L-3.7 41.7 -3.4 41.7 Q-3.05 41.9 -3.05 42.35 -3.05 43.2 -2.65 43.85 L-0.3 43.7 0.2 43.15 0.3 40.7" fill="#333333" fill-rule="evenodd" stroke="none"/>
    <path d="M4.95 35.65 L5.9 35.7 Q7.1 36.7 7.1 38.3 L7.0 38.65 6.7 39.6 Q6.0 40.8 4.5 41.35 L3.95 40.85 Q4.0 40.05 4.7 39.8 5.6 39.35 5.6 38.4 L4.6 37.25 4.95 35.65" fill="#333333" fill-rule="evenodd" stroke="none"/>
    <path d="M-2.25 31.25 L-1.5 31.2 -0.5 31.65 Q0.0 31.65 0.15 32.1 0.55 33.55 -0.25 34.7 L-2.3 34.65 -2.9 34.05 -2.9 32.6 -2.25 31.25 M-0.7 33.65 L-0.7 31.8 -1.95 31.8 -1.95 33.65 -0.7 33.65" fill="#333333" fill-rule="evenodd" stroke="none"/>
    <path d="M13.95 16.3 L15.0 16.4 14.75 16.25 13.95 16.3 M16.25 16.3 L15.8 17.05 14.75 17.35 13.7 17.05 Q13.25 16.75 13.25 16.3 13.25 15.85 13.7 15.55 L14.75 15.25 Q15.35 15.25 15.8 15.55 16.25 15.85 16.25 16.3" fill="#333333" fill-rule="evenodd" stroke="none"/>
    <path d="M30.95 26.85 L30.9 26.8 Q30.05 26.65 30.25 26.0 L31.4 25.9 31.95 26.45 31.95 27.35 Q31.8 28.35 32.65 28.75 L33.7 27.8 34.2 28.4 34.3 29.35 33.7 30.1 Q33.15 30.4 32.35 30.1 31.7 29.95 31.15 29.4 L30.95 26.85" fill="#333333" fill-rule="evenodd" stroke="none"/>
    <path d="M37.4 23.4 L37.35 24.3 Q36.9 25.75 35.6 26.65 34.85 26.9 34.85 26.05 L35.0 25.75 35.9 24.25 36.35 22.7 37.35 21.95 39.15 22.4 40.4 18.95 41.55 19.0 Q41.35 21.95 39.65 24.35 L38.65 24.3 38.2 23.4 37.4 23.4" fill="#333333" fill-rule="evenodd" stroke="none"/>
    <path d="M46.55 23.3 L47.35 23.2 48.1 23.75 Q49.0 24.35 48.8 25.4 L47.4 25.7 47.05 25.15 46.15 25.55 Q45.6 27.1 44.3 27.7 L41.2 27.9 Q40.15 27.55 39.8 26.55 L39.85 26.0 41.45 27.0 43.85 26.65 45.3 24.4 46.55 23.3" fill="#333333" fill-rule="evenodd" stroke="none"/>
    <path d="M51.1 26.8 Q51.65 26.9 51.75 27.5 L51.75 28.85 Q51.6 29.65 50.9 29.75 L50.45 28.85 50.4 28.7 48.45 28.5 Q47.7 28.35 47.3 27.65 L47.25 26.7 Q47.25 26.15 47.85 26.05 L47.85 26.0 48.15 26.15 48.3 26.35 Q48.5 26.6 48.35 26.9 L51.1 26.8" fill="#333333" fill-rule="evenodd" stroke="none"/>
    <path d="M61.9 11.45 L61.1 11.95 60.6 11.95 Q60.05 12.2 59.85 11.5 L60.9 10.4 60.0 9.75 Q59.3 9.35 58.4 9.35 L54.75 9.5 54.55 11.95 53.85 12.2 52.8 11.9 51.0 12.1 Q49.95 12.15 49.55 11.4 L49.65 11.35 50.7 10.95 50.85 10.9 53.1 10.75 53.45 10.75 53.55 8.3 Q53.75 8.15 54.1 8.05 L58.1 7.9 60.95 8.8 Q61.8 9.15 62.25 9.95 62.5 10.75 61.9 11.45" fill="#333333" fill-rule="evenodd" stroke="none"/>
    <path d="M62.65 11.9 L63.15 10.95 65.35 10.25 68.15 10.45 Q69.3 13.6 69.6 16.6 69.7 17.4 69.25 18.15 L68.1 19.4 67.55 19.05 67.5 17.95 68.15 17.0 67.2 11.5 62.65 11.9" fill="#333333" fill-rule="evenodd" stroke="none"/>
    <path d="M66.25 17.65 L66.55 18.55 70.2 18.95 Q71.1 19.7 71.05 21.0 L71.1 21.5 71.4 22.9 71.5 25.35 70.65 26.2 68.5 25.8 66.7 25.65 Q67.1 24.7 68.35 24.55 L70.05 24.45 69.35 20.15 66.6 19.75 Q65.9 19.5 65.65 18.95 L66.25 17.65" fill="#333333" fill-rule="evenodd" stroke="none"/>
    <path d="M55.8 28.85 L56.1 28.8 Q56.85 28.5 57.4 29.1 L57.7 30.55 57.15 30.85 56.4 30.6 54.9 32.6 54.6 32.7 53.1 32.55 Q52.25 32.5 51.8 31.9 51.05 30.8 51.4 29.6 L52.15 29.4 52.4 30.7 52.7 31.1 54.45 31.0 55.8 28.85" fill="#333333" fill-rule="evenodd" stroke="none"/>
    <path d="M61.35 21.65 L63.2 22.5 62.55 25.7 64.7 26.9 64.8 27.05 Q65.15 28.7 65.05 30.7 L64.75 31.95 Q64.3 33.35 63.1 33.85 L59.95 33.8 Q58.35 33.15 58.7 31.85 59.0 31.8 59.4 32.05 61.35 33.05 63.1 32.4 L63.5 31.65 Q63.75 29.9 63.6 28.1 L61.15 26.5 61.25 24.8 61.9 22.6 61.35 21.65" fill="#333333" fill-rule="evenodd" stroke="none"/>
    <path d="M67.6 26.0 L68.1 26.7 Q68.25 27.45 67.8 28.2 66.5 29.0 65.05 28.6 L65.05 27.85 67.05 27.05 67.6 26.0" fill="#333333" fill-rule="evenodd" stroke="none"/>
    <path d="M59.1 36.85 L59.85 35.7 61.1 35.9 61.75 35.65 61.75 35.3 61.5 34.9 Q61.3 34.4 62.1 34.3 L62.7 34.95 Q63.1 35.95 62.7 36.95 L59.9 37.2 59.5 38.0 58.7 37.95 59.1 36.85" fill="#333333" fill-rule="evenodd" stroke="none"/>
    <path d="M56.0 41.4 L58.2 43.25 58.05 44.0 Q56.8 44.35 55.75 43.3 53.7 41.45 54.35 38.95 54.7 38.4 55.45 38.35 L58.0 37.95 Q58.4 37.8 58.65 38.2 58.9 39.45 57.35 39.45 55.95 39.2 55.4 39.85 L55.4 40.2 Q55.45 41.0 56.0 41.4" fill="#333333" fill-rule="evenodd" stroke="none"/>
    <path d="M57.45 44.6 Q57.45 45.4 57.7 46.1 L58.15 46.85 59.6 47.85 62.6 47.9 63.0 46.75 63.6 46.45 Q65.55 46.0 66.7 46.75 L66.8 47.7 64.35 48.2 Q64.0 49.15 63.2 49.55 61.4 50.3 59.4 49.6 L58.95 49.35 58.15 48.75 Q57.25 48.15 56.85 47.35 L56.55 46.6 56.45 44.9 Q56.35 44.4 56.65 44.25 L57.45 44.6" fill="#333333" fill-rule="evenodd" stroke="none"/>
    <path d="M64.5 34.75 L65.6 34.25 66.1 34.15 Q66.9 34.1 67.45 34.65 68.05 35.3 67.9 36.15 L66.9 36.35 66.3 35.5 66.1 35.4 65.4 35.4 Q64.6 35.55 64.5 34.75" fill="#333333" fill-rule="evenodd" stroke="none"/>
    <path d="M68.85 40.15 L68.35 39.55 Q67.15 39.95 66.6 39.25 66.5 38.25 66.9 37.4 67.25 36.6 67.9 36.95 L68.0 37.35 67.65 38.25 69.15 38.25 Q70.0 39.05 70.3 40.15 L70.7 42.6 Q70.8 44.65 69.0 45.85 67.75 46.65 66.6 46.55 L66.05 45.9 66.25 45.7 67.1 45.2 Q68.65 45.15 69.0 43.9 69.3 42.65 69.2 41.1 L68.85 40.15" fill="#333333" fill-rule="evenodd" stroke="none"/>
    <path d="M64.85 39.0 L65.1 39.3 65.3 39.6 Q65.5 40.25 65.1 40.9 L64.35 41.4 63.6 41.35 62.55 41.1 62.75 39.4 63.25 38.9 63.9 39.0 63.15 39.45 63.05 40.4 63.6 40.65 64.35 40.35 64.4 39.6 64.85 39.0" fill="#333333" fill-rule="evenodd" stroke="none"/>
    <path d="M71.85 32.2 L71.8 31.6 72.05 31.45 Q73.65 30.8 74.9 32.0 L74.85 34.1 Q74.65 35.2 73.6 35.6 L72.6 35.55 Q71.85 35.65 71.35 35.2 L71.25 33.15 71.85 32.2 M72.55 32.35 L72.0 33.5 72.05 34.4 73.65 34.15 73.65 32.7 72.55 32.35" fill="#333333" fill-rule="evenodd" stroke="none"/>
    <path d="M-5.5 20.35 Q-5.3 19.85 -5.85 20.0 L-7.05 20.4 -7.25 22.25 -5.1 22.2 -4.75 21.45 -5.45 20.5 -5.5 20.35 M-7.85 20.0 L-7.05 19.5 -4.95 19.6 Q-4.1 19.8 -3.75 20.65 -3.65 21.6 -3.95 22.3 -4.35 23.25 -5.5 23.5 -7.15 23.75 -8.15 22.65 L-7.85 20.0" fill="#333333" fill-rule="evenodd" stroke="none"/>
    <path d="M40.9 26.9 Q41.25 27.35 40.7 27.75 40.3 28.1 40.1 28.7 39.1 31.85 39.3 35.1 L38.05 34.85 Q37.65 32.4 38.5 30.15 L39.15 28.3 Q39.75 26.6 40.9 26.9" fill="#333333" fill-rule="evenodd" stroke="none"/>
    <path d="M17.45 -0.75 L17.7 -1.1 17.75 -1.3 17.95 -1.7 Q18.85 -3.05 20.75 -2.6 22.8 -2.4 24.55 -1.2 25.65 -0.45 25.7 0.55 L24.4 0.45 Q23.05 -0.85 21.0 -1.3 L18.9 -1.1 18.7 2.25 18.1 2.95 16.25 3.0 Q16.25 2.7 16.4 2.55 L17.45 1.25 17.45 -0.75" fill="#333333" fill-rule="evenodd" stroke="none"/>
    <path d="M34.05 1.95 L33.65 0.75 34.65 0.8 Q35.85 2.75 34.35 4.75 L32.05 4.65 31.6 4.05 31.6 2.4 Q32.3 1.35 33.2 1.9 L32.55 3.2 33.85 3.45 34.05 1.95" fill="#333333" fill-rule="evenodd" stroke="none"/>
    <path d="M51.5 -4.55 L51.3 -4.15 51.5 -3.7 51.95 -3.55 52.4 -3.7 52.6 -4.15 52.4 -4.55 51.95 -4.75 51.5 -4.55 M53.4 -5.0 Q53.85 -4.6 53.85 -3.85 53.9 -2.9 53.1 -2.45 L50.45 -3.0 Q50.25 -3.9 50.75 -4.85 51.05 -5.4 50.6 -5.6 L51.6 -6.05 53.4 -5.0" fill="#333333" fill-rule="evenodd" stroke="none"/>
  </g>
</svg>
