<?xml version="1.0" encoding="UTF-8" standalone="no"?>
<svg xmlns:xlink="http://www.w3.org/1999/xlink" height="72.45px" width="81.2px" xmlns="http://www.w3.org/2000/svg">
  <g transform="matrix(1.0, 0.0, 0.0, 1.0, 9.05, 7.8)">
    <path d="M44.05 23.4 L44.1 23.6 44.1 23.75 44.1 23.95 43.45 25.05 43.05 25.45 40.6 27.15 40.05 27.5 39.85 27.7 39.75 27.9 39.65 28.1 39.55 28.25 39.3 28.45 38.8 28.65 38.2 29.0 38.0 29.15 37.9 29.2 37.65 29.25 37.2 29.4 36.85 29.95 36.6 30.35 36.4 30.7 36.25 30.9 35.95 31.25 35.9 31.45 35.75 31.65 35.6 31.8 35.4 31.95 35.0 32.0 34.75 32.0 34.25 31.9 34.0 31.7 33.9 31.5 33.65 31.15 33.6 30.95 33.5 30.75 33.5 30.65 33.5 30.6 33.3 30.7 33.25 30.85 33.25 31.0 33.25 31.2 33.35 31.4 33.35 31.6 33.35 31.95 33.35 32.15 33.35 32.35 33.4 32.5 33.35 32.9 33.35 33.25 33.35 33.45 33.35 33.65 33.35 33.85 33.35 34.0 33.35 34.2 33.35 34.4 33.25 34.6 33.15 34.8 33.1 34.95 32.85 35.15 32.65 35.25 32.2 35.4 32.15 35.6 32.0 35.75 31.75 35.95 31.25 36.1 30.75 35.95 30.55 35.75 30.35 35.55 30.25 35.4 30.2 35.25 29.85 34.85 29.6 34.65 29.4 34.45 29.35 34.25 29.35 34.1 29.35 33.9 29.25 33.7 29.2 33.5 29.15 33.35 29.1 33.15 29.1 32.95 29.1 32.75 29.0 32.6 28.9 32.2 28.85 32.0 28.75 31.85 28.7 31.65 28.65 31.45 28.5 31.25 28.4 31.1 28.25 30.9 28.15 30.7 28.1 30.5 28.05 30.35 28.0 30.15 27.95 29.95 27.9 29.8 27.65 29.4 27.55 29.2 27.45 29.0 26.9 28.45 26.6 28.1 26.25 27.7 26.1 27.5 25.6 27.0 25.5 26.95 25.1 26.85 24.85 26.65 24.45 26.25 24.3 26.05 24.15 25.9 24.1 25.7 24.05 25.5 24.0 25.35 24.05 25.15 24.1 24.95 24.15 24.75 24.25 24.6 24.5 24.4 25.0 24.25 25.5 24.3 26.25 24.3 26.5 24.35 26.95 24.45 27.5 24.5 27.95 24.65 28.2 24.85 28.35 24.95 28.45 24.95 28.75 24.9 29.2 25.0 29.5 25.1 30.4 24.6 31.5 24.0 31.75 23.8 31.95 23.65 32.15 23.45 32.5 23.25 32.75 23.15 32.9 23.1 33.25 23.05 33.5 23.0 33.95 23.15 34.2 23.25 34.25 23.25 35.75 23.25 36.2 23.4 36.5 23.5 37.0 23.5 37.85 23.45 38.15 23.35 38.35 23.15 38.45 22.95 38.6 22.75 38.75 22.65 38.9 22.6 39.25 22.55 39.3 22.5 39.7 22.65 39.95 22.75 41.2 22.65 43.1 22.5 43.55 22.65 43.8 22.85 43.9 23.0 44.05 23.2 44.05 23.4" fill="#ffffff" fill-opacity="0.3019608" fill-rule="evenodd" stroke="none"/>
    <path d="M42.35 22.25 L42.75 22.65 42.95 22.85 43.25 23.2 43.4 23.4 43.45 23.6 43.45 23.75 43.45 23.95 43.45 24.15 43.45 24.5 43.3 24.9 43.1 25.3 42.8 25.85 42.7 26.0 41.55 27.35 39.15 29.0 38.95 29.2 38.85 29.4 38.55 30.35 38.25 31.65 37.95 32.75 37.85 32.95 37.65 33.5 37.45 34.25 37.2 35.0 37.15 35.2 37.15 35.4 37.15 35.6 37.15 35.75 37.15 35.95 37.05 36.15 36.95 36.35 36.85 36.5 36.6 36.7 36.4 36.85 36.0 36.9 35.5 36.75 35.25 36.65 35.15 36.85 34.95 37.2 34.85 37.4 34.6 37.75 34.5 37.95 34.45 38.15 34.4 38.35 34.35 38.5 34.35 39.1 34.35 39.65 34.3 40.4 34.25 40.75 34.2 40.95 34.1 41.15 33.95 41.35 33.75 41.45 33.65 41.5 33.35 41.65 33.2 41.85 33.0 41.95 32.9 42.0 32.5 42.1 32.0 41.95 31.8 41.75 31.6 41.55 31.5 41.4 31.45 40.45 31.45 39.15 31.45 37.85 31.45 37.65 31.25 37.6 30.75 37.6 30.35 37.65 30.15 37.75 29.75 37.8 29.5 37.85 29.0 37.7 28.8 37.5 28.6 37.3 28.5 37.15 28.5 36.95 28.45 36.75 28.45 36.6 28.4 36.4 28.3 36.2 28.2 36.0 28.2 35.85 28.15 35.65 28.0 35.45 27.9 35.1 27.8 34.7 27.65 34.15 27.45 33.6 27.45 32.25 27.45 30.6 27.45 29.1 27.45 28.9 27.5 28.7 27.6 28.5 27.7 28.35 27.9 28.15 28.15 28.0 28.4 27.9 27.95 27.15 27.25 26.2 26.75 25.45 26.7 25.25 26.7 25.1 26.7 24.9 26.85 24.55 26.95 24.35 27.3 23.95 27.5 23.75 Q30.65 22.45 33.6 20.7 34.95 19.9 35.7 18.5 L35.75 18.35 35.75 18.15 35.75 17.95 35.75 17.75 35.85 17.6 35.95 17.4 35.95 17.2 35.95 17.0 36.1 16.85 36.1 16.65 36.1 16.45 36.15 16.25 36.3 16.2 36.5 16.1 36.85 16.2 36.95 16.35 37.15 16.6 37.4 16.75 37.5 16.95 37.55 17.15 37.6 17.35 37.6 17.5 37.7 17.7 37.75 17.9 37.75 18.1 37.75 18.25 37.8 18.45 37.85 18.85 37.6 19.6 36.8 20.7 36.15 21.45 36.1 21.55 36.25 21.65 36.75 21.75 37.0 21.95 37.2 22.15 37.25 22.35 37.5 22.5 37.75 22.7 38.0 22.75 38.45 22.65 38.75 22.5 38.9 22.45 40.45 22.25 41.85 22.15 42.35 22.25 M37.45 25.7 L37.4 25.75 37.15 25.95 36.95 26.15 36.85 26.35 36.95 26.4 37.1 26.25 37.25 26.05 37.4 25.9 37.5 25.7 37.45 25.7" fill="#ffffff" fill-opacity="0.3019608" fill-rule="evenodd" stroke="none"/>
    <path d="M10.0 -1.65 L11.85 -1.9 12.05 -2.25 12.35 -2.65 12.75 -3.0 13.1 -3.4 13.5 -3.75 14.1 -4.15 14.75 -4.5 15.15 -4.9 16.0 -5.15 17.1 -5.4 18.0 -5.65 21.5 -5.65 22.25 -5.4 22.75 -5.0 23.1 -4.65 23.35 -4.25 23.5 -3.9 23.6 -3.5 23.65 -3.15 23.65 -2.75 23.6 -2.4 23.5 -2.0 23.7 -2.05 24.15 -2.4 24.5 -2.75 25.25 -3.5 26.0 -4.25 26.4 -4.5 27.0 -4.6 29.0 -4.75 29.5 -4.75 30.4 -4.5 30.75 -4.15 30.95 -4.2 31.25 -4.5 31.4 -4.9 31.5 -5.25 31.9 -5.65 32.25 -6.0 32.65 -6.4 33.5 -6.6 33.5 -6.65 36.0 -6.65 36.75 -6.4 38.0 -6.1 38.75 -5.9 39.25 -5.5 39.5 -5.15 40.0 -4.8 40.75 -4.4 41.25 -4.15 41.35 -4.25 41.65 -4.65 42.0 -5.0 42.4 -5.4 42.9 -5.65 43.5 -5.7 47.5 -5.75 48.4 -5.5 49.0 -5.3 49.9 -5.0 50.5 -4.65 51.25 -4.25 51.5 -3.9 51.65 -3.5 51.75 -3.15 51.75 -2.75 51.75 -2.4 51.8 -2.05 52.0 -1.65 52.75 -1.25 53.0 -0.9 53.15 -0.5 53.25 -0.15 53.25 0.25 53.25 0.5 53.9 0.35 54.65 0.0 55.5 -0.25 57.5 -0.25 58.4 0.0 59.0 0.35 59.75 0.75 60.0 1.1 60.15 1.5 60.25 1.85 60.25 2.25 60.25 2.6 60.25 3.0 60.25 3.35 60.25 3.75 60.1 4.1 59.85 4.45 59.55 4.9 59.1 5.6 58.5 6.35 58.25 6.75 57.75 7.15 57.4 7.5 56.5 7.65 53.4 8.0 52.5 8.35 52.25 8.75 52.25 9.1 52.25 9.5 52.25 9.85 52.45 10.15 52.9 10.5 53.15 10.55 57.0 10.75 57.9 11.0 58.5 11.35 59.25 11.75 59.5 12.15 59.65 12.5 59.75 12.85 59.75 13.25 59.75 13.6 59.65 14.0 59.5 14.35 59.25 14.75 58.9 15.0 58.65 15.1 58.0 15.2 53.75 15.5 53.75 15.85 53.75 16.25 53.75 16.6 53.75 17.0 53.75 17.35 53.75 17.75 53.6 18.1 53.4 18.5 53.25 18.85 53.45 19.2 54.0 19.6 54.35 20.0 54.6 20.4 54.75 20.75 54.75 21.1 54.65 21.5 54.5 21.85 54.25 22.25 53.5 22.6 53.25 23.0 53.25 23.35 53.25 23.75 53.25 24.1 53.25 24.5 53.15 24.85 53.0 25.25 52.75 25.6 52.5 26.0 52.15 26.35 51.35 27.1 50.9 27.5 50.0 27.75 48.0 27.75 47.15 27.45 46.4 27.1 45.75 26.75 45.5 26.4 45.1 26.0 44.65 25.6 44.4 25.25 44.3 24.85 44.25 24.5 44.25 24.1 44.25 23.75 44.25 23.35 44.25 23.0 44.1 22.75 43.5 22.75 42.65 22.5 42.1 22.15 41.65 21.85 41.25 22.25 40.9 22.6 40.5 22.95 40.0 23.35 39.65 23.6 39.0 23.7 35.5 23.75 34.65 23.45 34.0 23.25 33.15 23.0 32.65 22.6 32.25 22.25 31.9 21.85 31.4 21.85 31.0 22.25 30.65 22.6 30.25 23.0 29.45 23.65 28.5 24.25 28.15 24.5 27.5 24.55 26.0 24.6 25.15 24.35 24.75 24.0 24.25 24.0 23.9 24.35 23.5 24.75 23.15 25.1 22.9 25.35 22.6 25.45 22.0 25.6 21.5 25.6 20.5 25.6 20.0 25.6 19.15 25.3 18.85 25.15 18.15 24.85 17.75 24.5 17.3 24.4 17.15 24.6 17.0 25.0 16.85 25.35 16.5 25.7 16.15 26.0 15.5 26.05 14.0 26.1 12.0 26.0 11.1 25.75 10.75 25.35 10.4 25.0 10.1 24.6 10.05 24.25 10.0 23.85 10.0 23.5 10.0 23.1 10.15 22.75 10.35 22.35 10.25 22.4 9.75 22.75 9.0 23.0 7.5 23.0 6.65 22.7 6.35 22.55 5.6 22.25 5.25 21.85 4.9 21.45 4.65 21.1 4.5 20.75 4.5 20.35 4.5 20.25 1.0 20.0 0.1 19.75 -0.25 19.35 -0.5 19.0 -0.5 18.6 -0.45 17.85 -0.5 16.7 -0.65 15.25 -0.65 13.75 -0.65 13.35 -0.55 13.0 -0.35 12.65 0.0 12.25 0.35 12.0 1.0 11.85 1.85 11.95 2.35 12.0 2.8 11.65 2.85 11.35 2.7 11.0 2.35 10.6 2.0 10.25 1.8 9.95 1.0 9.6 0.1 9.35 -0.25 9.0 -0.65 8.6 -1.0 8.25 -1.35 7.85 -1.65 7.5 -1.65 7.1 -1.65 6.75 -1.65 6.35 -1.55 6.0 -1.35 5.65 -1.0 5.25 -0.65 5.0 0.0 4.9 1.0 4.85 1.75 4.85 2.1 4.6 2.5 4.25 2.9 4.0 3.85 3.5 4.85 3.0 5.5 2.9 7.75 2.6 7.9 2.25 8.1 1.85 8.35 1.5 8.35 1.1 8.35 0.75 8.35 0.35 8.35 0.0 8.35 -0.4 8.55 -0.75 8.85 -1.15 9.1 -1.4 9.4 -1.5 10.0 -1.65 M15.0 -0.25 L15.0 -0.2 14.65 -0.15 14.35 -0.1 13.95 0.1 13.35 0.65 13.05 1.0 12.85 1.4 12.8 1.55 12.8 1.75 12.75 1.95 12.75 2.15 12.75 2.3 12.85 2.5 12.9 2.7 12.95 2.9 13.1 3.05 13.2 3.25 13.4 3.45 13.6 3.65 13.95 3.8 14.4 3.95 14.75 4.0 15.15 3.95 15.45 3.9 15.6 3.85 16.25 3.3 16.6 2.95 16.7 2.75 16.85 2.55 16.9 2.4 16.95 2.2 17.0 2.0 17.0 1.8 17.0 1.65 16.95 1.45 16.95 1.25 16.9 1.05 16.8 0.9 16.55 0.5 16.4 0.35 16.15 0.15 15.85 -0.05 15.4 -0.15 15.0 -0.25" fill="#ffffff" fill-rule="evenodd" stroke="none"/>
    <path d="M0.25 41.35 L0.6 41.75 0.8 42.5 1.0 43.6 0.85 44.75 0.7 45.1 0.5 45.5 0.55 45.85 0.5 46.25 0.35 46.6 0.25 47.0 0.1 47.35 -0.05 47.7 -0.85 48.55 -1.15 48.85 1.25 49.35 1.6 49.75 1.75 50.1 1.85 50.5 1.95 50.85 2.1 51.1 2.3 50.95 2.5 50.6 2.6 50.25 2.85 49.85 3.0 49.5 3.05 49.15 3.15 48.8 3.5 48.4 3.85 48.1 4.5 48.0 5.25 48.25 5.6 48.65 5.85 49.0 5.95 49.4 6.0 49.75 6.05 50.1 6.1 50.5 6.25 50.85 6.45 51.25 6.5 51.6 6.45 52.0 6.35 52.35 6.25 52.75 6.0 53.1 5.35 53.5 5.0 53.85 4.95 54.25 4.75 54.65 4.6 55.0 4.35 55.25 4.1 55.35 3.5 55.5 2.65 55.2 2.35 55.0 1.5 54.85 0.6 54.6 0.25 54.25 -0.1 53.85 -0.4 53.5 -0.5 53.1 -0.65 52.75 -0.85 52.35 -0.9 52.1 -3.5 51.85 -4.4 51.6 -4.65 51.25 -4.8 50.85 -4.9 50.5 -4.8 50.15 -4.65 49.75 -4.4 49.35 -3.9 49.0 -3.9 48.6 -3.85 48.25 -3.75 47.85 -3.7 47.55 -3.4 47.1 -3.25 46.75 -3.15 46.35 -2.75 46.0 -1.9 45.6 -1.5 45.25 -1.45 44.9 -1.4 44.5 -1.0 44.1 -0.9 43.75 -0.85 43.0 -0.75 42.25 -0.75 41.85 -0.5 41.5 0.0 41.4 0.25 41.35" fill="#ffffff" fill-rule="evenodd" stroke="none"/>
    <path d="M65.0 23.85 L65.75 24.1 66.25 24.5 66.5 24.85 66.6 25.25 66.65 25.6 66.65 26.35 66.65 27.1 66.8 27.5 67.0 27.9 67.15 28.25 67.15 28.6 67.3 29.0 67.5 29.35 67.65 29.6 67.65 29.7 69.0 29.85 69.75 30.1 70.25 30.5 70.5 30.9 70.65 31.25 70.6 31.6 70.5 32.0 70.4 32.35 70.15 32.75 69.95 33.1 69.4 33.9 69.15 34.25 69.1 34.6 69.0 35.0 68.85 35.35 68.7 35.75 68.65 36.1 68.65 36.5 68.7 36.85 68.85 37.25 69.0 37.6 69.1 38.0 69.0 38.35 68.9 38.75 68.6 39.1 68.25 39.5 67.75 39.85 67.0 40.1 65.0 40.6 62.2 41.05 62.15 41.25 62.0 41.6 61.75 42.0 61.25 42.35 60.5 42.6 60.0 42.6 57.65 42.25 57.25 41.85 56.9 41.5 56.65 41.1 56.55 40.75 56.5 40.35 56.5 39.6 56.5 38.85 56.5 38.5 56.25 38.35 55.5 38.5 52.5 38.5 51.65 38.25 51.3 37.85 51.0 37.5 51.0 37.1 51.0 36.75 51.0 36.0 51.0 35.25 51.0 34.85 51.05 34.5 51.3 34.15 52.05 33.4 52.4 33.1 53.0 33.0 54.65 32.75 54.65 32.0 54.65 30.5 54.65 29.0 54.65 28.25 54.8 27.9 55.0 27.5 55.65 27.1 56.0 26.75 56.25 26.5 56.5 26.4 57.0 26.25 58.0 26.25 58.65 26.5 59.1 26.9 59.45 27.25 59.65 27.6 59.75 28.0 59.75 28.35 59.75 28.75 60.0 29.1 60.15 29.35 60.45 29.2 60.9 28.5 Q61.25 27.85 61.9 27.5 L62.5 27.25 62.9 26.85 63.25 26.5 63.35 26.1 63.4 25.75 63.4 25.35 63.45 25.0 63.65 24.65 64.05 24.25 64.4 24.0 65.0 23.95 65.0 23.85 M59.75 36.1 L60.25 36.5 60.6 36.9 60.9 37.25 61.0 37.5 62.0 37.3 62.65 37.1 63.4 36.75 63.15 36.35 62.95 35.95 62.9 35.6 62.9 35.25 63.05 34.9 63.25 34.5 63.3 34.3 63.15 34.25 62.9 34.35 62.5 34.7 62.1 34.95 61.5 35.25 61.15 35.5 60.15 35.75 59.75 36.1" fill="#ffffff" fill-rule="evenodd" stroke="none"/>
    <path d="M62.75 53.1 L63.0 53.5 63.05 54.6 63.15 55.75 63.25 56.5 63.1 56.85 62.85 57.3 62.75 57.6 62.9 58.0 63.0 58.1 63.75 58.35 64.1 58.75 64.4 59.1 64.9 59.5 65.15 59.85 65.4 60.25 65.4 60.6 65.4 61.0 65.4 61.35 65.35 61.75 65.15 62.1 64.9 62.5 64.25 62.85 63.75 63.15 63.65 63.25 63.0 63.35 62.15 63.1 61.85 62.75 61.25 62.0 60.9 61.6 60.8 60.85 60.8 60.15 60.85 59.35 60.9 59.0 60.95 58.65 61.15 58.25 61.15 57.9 61.25 57.5 61.25 57.1 61.35 56.8 61.6 56.35 61.9 56.0 61.9 54.85 61.95 53.75 Q61.85 53.05 62.5 53.1 L62.75 53.1" fill="#ffffff" fill-rule="evenodd" stroke="none"/>
    <path d="M15.5 30.15 L15.6 30.35 15.65 30.5 15.65 30.7 15.65 30.9 15.65 31.1 15.55 31.25 15.45 31.45 15.25 31.65 15.2 31.85 15.15 31.95 15.0 32.0 14.75 32.1 13.5 32.1 13.15 31.95 12.85 31.75 12.7 31.6 12.7 31.4 12.7 31.2 12.7 31.0 12.8 30.85 12.9 30.65 12.9 30.45 12.9 30.25 13.1 30.1 13.25 29.9 13.4 29.75 13.5 29.7 13.75 29.65 14.75 29.65 15.1 29.75 15.35 29.95 15.5 30.15" fill="#ffffff" fill-rule="evenodd" stroke="none"/>
    <path d="M2.2 36.85 L2.2 36.65 2.25 36.45 2.35 36.25 2.5 36.1 2.7 35.9 2.9 35.75 3.0 35.7 3.25 35.65 3.6 35.75 3.75 35.95 3.85 36.15 3.9 36.35 3.9 36.5 3.85 36.7 3.75 36.9 3.7 37.1 3.65 37.2 3.5 37.25 3.25 37.35 2.75 37.35 2.4 37.2 2.3 37.0 2.2 36.85" fill="#ffffff" fill-rule="evenodd" stroke="none"/>
    <path d="M3.5 -6.5 L3.85 -6.35 3.95 -6.2 4.0 -6.0 4.0 -5.8 4.0 -5.6 4.05 -5.45 4.15 -5.25 4.3 -5.05 4.35 -4.85 4.3 -4.7 4.15 -4.5 3.85 -4.5 3.4 -4.7 3.2 -4.85 3.0 -5.05 3.0 -5.25 3.0 -5.45 3.0 -5.6 3.0 -5.8 3.0 -6.0 3.05 -6.15 3.2 -6.35 3.5 -6.45 3.5 -6.5" fill="#ffffff" fill-rule="evenodd" stroke="none"/>
    <path d="M56.7 -6.15 L56.8 -6.3 56.85 -6.35 57.15 -6.5 57.3 -6.6 57.35 -6.65 57.6 -6.7 57.6 -6.75 57.9 -6.6 58.0 -6.4 58.1 -6.25 58.1 -6.05 58.05 -5.85 57.95 -5.7 57.85 -5.6 57.45 -5.5 57.4 -5.3 57.3 -5.2 57.1 -5.15 56.65 -5.25 56.55 -5.45 56.55 -5.6 56.65 -5.8 56.65 -6.0 56.7 -6.15" fill="#ffffff" fill-rule="evenodd" stroke="none"/>
    <path d="M63.55 19.5 L63.65 19.7 63.7 19.9 63.7 20.05 63.65 20.25 63.55 20.45 63.25 20.65 63.15 20.85 63.15 21.0 63.1 21.2 62.95 21.4 62.85 21.5 62.6 21.6 61.1 21.45 60.8 21.35 60.65 21.15 60.65 20.95 60.65 20.6 60.7 20.2 60.7 20.0 60.8 19.85 61.1 19.65 61.4 19.45 62.85 19.25 63.1 19.2 63.4 19.35 63.55 19.5" fill="#ffffff" fill-rule="evenodd" stroke="none"/>
    <path d="M63.65 51.75 L63.85 51.95 63.95 52.15 63.95 52.35 63.95 52.5 63.95 52.7 63.95 52.9 64.0 53.05 64.15 53.3 64.3 53.45 64.25 54.0 64.3 54.95 64.3 55.7 64.3 55.9 64.05 56.3 63.55 56.9 63.15 57.2 62.85 57.35 62.6 57.4 62.2 57.25 62.05 57.1 62.0 56.9 61.95 56.7 61.95 56.5 62.0 56.35 62.1 56.15 62.3 55.95 62.35 55.8 62.45 55.6 62.6 55.4 62.7 55.2 62.7 54.45 62.7 53.5 62.7 52.4 62.7 52.2 62.75 52.05 62.9 51.85 63.1 51.7 63.35 51.7 63.35 51.65 63.65 51.75" fill="#ffffff" fill-rule="evenodd" stroke="none"/>
    <path d="M49.3 -0.5 L49.5 -0.9 49.75 -1.25 50.15 -1.5 50.4 -1.6 51.0 -1.7 51.0 -1.75 51.5 -1.75 52.0 -1.75 52.9 -1.5 53.25 -1.1 53.5 -0.75 53.65 -0.4 53.75 0.0 53.75 0.35 53.75 0.75 54.15 1.0 54.65 0.85 55.15 0.5 56.0 0.25 57.0 0.25 57.9 0.5 58.25 0.9 58.5 1.25 59.25 1.65 59.75 2.0 60.0 2.35 60.25 2.75 60.5 3.1 60.65 3.5 60.75 3.85 60.75 4.25 60.75 4.6 60.75 5.0 60.65 5.35 60.5 5.7 60.25 6.1 59.9 6.5 59.15 6.85 59.0 7.2 58.75 7.6 58.4 8.0 57.5 8.25 56.65 8.1 55.9 8.5 Q55.5 8.65 55.15 8.85 L54.65 9.1 56.85 9.65 58.25 10.25 58.9 11.0 59.15 11.35 59.65 12.1 60.15 12.85 60.25 13.6 60.25 14.0 60.3 14.75 60.15 15.85 60.0 16.25 59.75 16.6 59.4 17.0 Q58.85 17.2 58.35 17.5 L58.25 17.75 58.1 18.1 57.85 18.45 57.5 18.85 57.15 19.1 56.5 19.2 56.0 19.25 55.15 19.0 54.65 18.6 54.4 18.25 54.25 17.85 54.1 17.6 54.0 17.75 53.75 18.1 53.5 18.45 53.15 18.85 53.0 19.25 52.75 19.6 53.4 20.0 53.75 20.4 54.0 20.75 54.15 21.1 54.25 21.5 54.25 21.85 54.25 22.25 54.25 22.6 54.15 23.0 54.0 23.35 53.75 23.75 53.4 24.0 53.15 24.1 52.25 24.25 51.05 25.0 50.5 25.35 50.15 25.6 49.15 25.85 48.65 26.1 42.9 26.5 42.5 26.85 41.9 27.25 41.15 27.6 40.8 28.0 40.5 28.35 40.25 28.75 39.9 29.0 39.65 29.1 39.0 29.2 38.0 29.25 37.15 29.0 36.75 29.25 36.4 29.5 36.15 29.6 35.5 29.75 34.65 29.5 34.15 29.1 33.9 28.75 33.4 28.35 33.0 28.0 32.85 27.65 32.65 27.25 32.0 27.25 31.65 27.5 28.0 27.6 27.15 27.3 26.85 27.15 26.15 26.85 Q23.75 27.1 21.55 26.25 L21.4 26.35 21.15 26.45 20.5 26.6 19.65 26.35 19.3 26.0 19.0 25.6 18.7 25.35 18.65 25.5 Q18.2 26.0 17.5 26.0 L13.75 25.85 13.25 26.25 12.5 26.5 11.65 26.25 11.25 25.85 11.05 25.5 10.85 25.15 10.65 24.75 10.5 24.35 10.45 24.15 9.65 24.0 9.0 24.25 5.5 24.25 5.0 24.1 4.25 23.85 4.0 23.5 3.9 23.1 3.9 22.75 3.9 22.35 3.9 22.0 3.9 21.25 3.0 20.95 1.65 20.6 1.25 20.25 0.9 19.85 0.5 19.45 0.25 19.1 0.35 18.8 0.65 18.35 1.25 18.35 1.75 18.75 2.0 19.0 3.0 19.05 4.5 19.0 5.0 19.0 5.65 19.25 5.9 19.6 5.95 20.0 6.0 20.35 6.05 20.75 6.15 21.1 8.75 21.5 9.5 21.25 14.1 20.7 15.25 20.35 15.9 20.0 16.9 19.5 18.9 18.5 20.65 18.1 21.5 17.85 22.5 17.85 23.25 18.1 23.75 18.5 24.0 18.9 24.15 19.25 24.35 19.65 24.5 20.0 24.6 20.35 24.65 20.75 24.6 21.1 24.5 21.5 24.35 21.85 24.2 22.25 24.15 22.6 24.2 22.95 26.5 23.35 27.25 23.6 28.0 23.85 28.5 23.75 29.1 22.6 30.15 21.1 31.65 19.6 32.5 19.35 35.5 19.35 36.25 19.6 36.75 20.0 37.0 20.4 37.15 20.75 37.4 21.1 37.9 21.1 38.65 20.35 39.35 19.6 40.65 18.5 43.5 18.0 43.75 17.6 43.9 17.25 44.15 16.85 43.45 16.35 42.65 15.95 41.25 15.25 41.0 14.85 40.75 14.5 40.75 13.75 40.75 13.35 40.8 12.6 40.9 11.85 41.05 11.5 41.4 11.1 41.75 10.75 41.5 10.35 41.3 9.95 41.25 9.6 41.3 9.25 41.4 8.85 41.5 8.5 41.9 8.1 42.4 7.85 46.15 7.5 46.65 7.1 46.4 6.75 46.3 6.35 46.25 6.0 46.25 5.6 46.25 5.25 46.25 4.85 46.3 4.5 46.5 4.1 46.75 3.75 47.15 3.5 48.0 3.3 48.5 3.25 49.75 3.25 49.75 2.85 49.75 2.5 49.75 2.1 49.65 1.75 49.5 1.35 49.25 1.0 49.25 0.6 49.25 0.25 49.25 -0.15 49.3 -0.5" fill="#339999" fill-opacity="0.2" fill-rule="evenodd" stroke="none"/>
    <path d="M57.5 -0.15 L58.25 0.1 58.75 0.5 59.0 0.85 59.25 1.25 59.5 1.6 59.65 2.0 59.75 2.75 59.75 3.85 59.75 5.0 59.65 5.75 59.5 6.1 59.25 6.5 58.75 6.85 58.0 7.05 55.9 7.35 55.5 7.75 55.15 8.1 54.9 8.35 54.65 8.45 54.0 8.6 52.65 8.75 55.0 8.75 55.9 9.0 56.4 9.4 56.75 9.75 57.15 10.1 57.5 10.5 58.15 10.85 58.75 11.25 59.15 11.6 59.9 12.0 60.25 12.4 60.5 12.75 60.65 13.1 60.75 13.5 60.75 13.85 60.75 14.25 60.75 14.6 60.65 15.0 60.5 15.35 60.25 15.75 59.9 16.0 54.9 16.35 54.5 16.75 54.15 17.1 53.9 17.35 53.65 17.5 53.0 17.75 53.75 18.15 54.25 18.5 54.5 18.85 54.6 19.25 54.65 19.6 54.65 20.0 54.65 20.35 54.65 20.75 53.7 22.4 52.1 24.45 50.9 25.85 46.0 26.1 45.15 25.85 44.75 25.5 44.25 25.5 43.75 25.85 43.0 26.1 42.15 25.85 41.65 25.5 41.4 25.75 41.1 26.1 40.9 26.35 40.65 26.45 40.0 26.55 38.5 26.6 37.65 26.3 37.35 26.15 36.65 25.85 36.25 25.5 35.9 25.1 Q33.45 25.25 31.0 26.1 L28.0 27.1 27.0 27.1 26.4 26.95 25.65 26.75 25.25 26.35 24.7 25.6 24.25 24.9 24.0 24.5 23.75 24.75 23.55 25.15 23.35 25.5 23.1 25.85 22.75 26.25 22.0 26.5 18.15 26.75 17.75 27.0 17.5 27.1 17.0 27.25 15.0 27.25 14.5 27.15 13.5 26.95 12.65 26.75 12.25 26.35 12.0 26.0 12.0 25.6 12.05 25.25 12.15 24.85 11.9 24.5 11.25 24.1 11.05 23.7 11.0 23.35 11.15 23.0 11.4 22.75 11.5 22.6 12.0 22.5 12.9 22.7 14.5 22.85 15.1 23.15 15.5 23.35 18.0 23.0 19.15 22.85 19.4 22.75 19.9 22.6 20.5 22.5 20.9 22.15 21.0 21.85 21.05 21.5 21.3 21.15 21.65 20.75 22.5 20.5 24.5 20.5 25.25 20.75 25.65 20.95 26.25 21.25 26.6 21.65 26.9 22.0 27.0 22.35 27.0 22.75 27.0 23.1 27.15 23.25 28.0 23.35 32.65 22.1 35.5 21.35 36.5 21.35 37.25 21.6 37.75 22.0 38.0 22.35 38.5 22.75 38.75 22.85 38.85 22.6 38.9 22.25 39.0 21.85 39.25 21.5 39.4 21.1 39.4 20.75 39.55 20.4 39.8 20.0 40.15 19.6 41.0 19.35 43.5 19.4 44.4 19.5 44.9 19.35 45.25 19.0 45.6 18.6 45.9 18.25 45.9 17.85 45.9 17.5 45.9 17.1 46.05 16.75 46.4 16.35 46.65 16.1 46.9 16.05 49.65 15.6 50.4 15.25 50.9 15.0 51.5 14.75 51.9 14.35 52.25 14.0 53.05 13.25 53.4 13.0 54.0 12.85 54.5 12.5 54.4 12.35 54.25 12.3 53.5 12.35 53.15 12.6 52.5 12.7 52.0 12.75 51.15 12.5 50.65 12.1 49.9 11.35 49.15 10.6 48.9 10.25 48.8 9.85 48.75 9.1 48.75 8.0 48.75 6.85 48.8 6.5 49.0 6.1 49.25 5.75 49.65 5.5 49.9 5.4 52.75 5.1 52.9 4.75 53.15 4.35 53.65 4.0 54.5 3.8 56.25 3.6 56.0 3.25 55.9 2.85 55.9 2.5 55.9 2.1 55.9 1.75 55.9 1.35 55.95 1.0 56.15 0.65 56.55 0.25 56.9 0.0 57.5 -0.05 57.5 -0.15" fill="#339999" fill-opacity="0.2" fill-rule="evenodd" stroke="none"/>
    <path d="M19.5 -5.4 L20.5 -5.55 21.0 -5.65 21.5 -5.7 21.5 -5.75 22.25 -5.65 23.1 -5.25 23.5 -5.0 24.0 -4.85 24.55 -4.55 24.75 -4.25 24.85 -3.9 24.9 -3.5 24.9 -3.15 24.9 -2.75 25.0 -2.4 25.0 -2.0 24.85 -1.65 24.65 -1.25 24.5 -1.0 24.5 -0.95 25.5 -0.75 26.15 -0.5 26.5 -0.1 26.75 0.25 26.8 0.35 27.65 0.35 27.9 0.0 28.25 -0.4 28.65 -0.75 29.15 -1.15 29.2 -1.5 29.4 -1.9 29.75 -2.15 29.9 -2.25 30.5 -2.35 31.0 -2.4 31.75 -2.15 32.15 -1.9 32.6 -1.75 32.75 -1.65 35.0 -1.5 35.75 -1.25 36.1 -0.85 36.35 -0.5 36.5 -0.15 36.45 0.2 36.3 0.6 36.1 0.95 35.9 1.25 35.0 1.4 Q33.1 1.5 31.4 2.25 L31.15 2.6 30.9 3.0 30.65 3.35 30.25 3.6 30.1 3.7 29.5 3.8 28.0 3.85 27.15 3.6 26.5 3.4 25.5 3.1 25.0 2.75 24.75 2.35 24.55 2.1 23.5 1.7 22.75 1.5 22.45 1.1 22.25 0.75 22.25 0.35 22.3 0.0 22.5 -0.4 22.5 -0.75 22.5 -1.15 22.5 -1.5 22.6 -1.85 22.85 -2.3 23.0 -2.65 23.05 -3.0 22.9 -3.4 22.6 -3.75 22.4 -4.0 22.15 -4.1 21.5 -4.3 20.5 -4.5 19.25 -4.75 19.25 -5.1 19.5 -5.4" fill="#339999" fill-opacity="0.2" fill-rule="evenodd" stroke="none"/>
    <path d="M0.75 42.35 L1.0 42.75 1.1 43.15 1.15 43.5 1.2 43.9 1.25 44.25 1.3 44.6 1.15 45.0 0.9 45.35 0.9 45.75 0.95 46.15 1.0 46.5 1.0 46.85 1.1 47.2 1.4 47.6 1.75 48.0 2.0 48.35 2.5 48.5 3.0 48.35 3.6 48.1 4.0 47.85 4.5 47.75 5.0 47.75 5.65 48.0 6.0 48.4 6.25 48.75 6.25 49.85 6.2 51.75 6.35 53.25 6.4 53.6 6.25 54.0 6.0 54.35 5.75 54.6 5.6 54.7 4.75 55.0 4.5 55.35 4.25 55.6 4.1 55.7 3.5 55.9 2.0 56.35 1.15 56.1 0.9 55.75 0.65 55.35 0.65 55.0 0.65 54.6 0.65 54.25 0.8 53.9 1.0 53.5 1.4 53.25 2.15 53.0 2.4 52.6 2.75 52.35 2.9 52.25 3.55 51.9 3.75 51.6 3.7 51.4 3.0 51.35 1.5 51.75 1.0 51.75 0.25 51.5 -0.1 51.1 -0.25 50.75 -0.3 50.4 -0.7 49.65 -1.35 48.85 -1.75 48.5 -1.75 48.1 -1.7 47.75 -1.65 47.35 -1.6 47.0 -1.6 46.6 -1.35 46.25 -1.0 45.85 -0.9 45.5 -0.85 45.1 -0.85 44.75 -0.6 44.35 -0.4 44.0 -0.25 43.6 -0.3 43.25 -0.5 42.85 -0.75 42.5 -1.0 42.1 -0.9 41.85 -0.5 41.65 -0.25 41.6 0.25 42.0 0.75 42.35" fill="#339999" fill-opacity="0.2" fill-rule="evenodd" stroke="none"/>
    <path d="M4.15 47.9 L4.5 47.8 4.5 47.75 5.25 47.85 5.65 48.25 5.65 48.6 5.5 49.0 Q5.3 49.55 5.35 50.15 L5.45 51.6 5.5 53.1 5.5 53.5 5.35 53.85 5.15 54.25 4.5 54.5 3.9 54.25 3.5 53.85 3.6 52.4 3.65 50.5 3.75 48.6 3.75 48.25 4.0 48.0 4.15 47.9" fill="#339999" fill-opacity="0.2" fill-rule="evenodd" stroke="none"/>
    <path d="M54.0 36.75 L55.0 36.55 57.0 36.35 57.65 36.6 58.15 37.0 58.4 37.35 58.5 37.75 58.65 38.1 58.75 38.5 58.75 38.85 58.75 39.25 58.75 39.6 58.75 39.85 59.85 39.3 60.75 38.6 61.15 38.25 62.4 37.6 63.4 37.1 64.0 37.05 65.0 37.0 65.4 37.0 66.25 36.75 66.35 36.0 66.4 35.25 66.4 34.1 66.4 33.75 66.85 33.05 67.55 32.3 68.4 31.75 67.65 31.35 67.25 31.0 66.9 30.6 66.5 30.25 Q66.3 29.5 66.35 28.75 L66.6 27.25 66.75 26.1 67.0 25.75 67.3 25.5 67.5 25.35 68.0 25.1 68.5 25.1 68.75 25.1 69.0 25.5 69.1 25.85 69.25 26.25 69.3 26.6 69.4 27.0 69.5 27.35 69.5 27.75 69.5 28.1 70.3 28.6 71.25 29.1 71.75 29.5 72.0 29.85 72.1 30.6 72.15 31.35 72.1 32.1 72.0 32.5 71.2 33.65 70.0 34.75 69.65 35.1 69.65 35.85 69.65 36.6 69.65 37.35 69.65 37.75 69.2 38.45 68.5 39.25 67.9 39.85 67.65 40.0 67.05 40.25 66.65 40.5 65.5 40.55 64.0 40.5 63.3 40.75 62.5 41.1 60.9 42.25 59.0 42.85 58.0 42.85 57.15 42.6 56.9 42.25 56.6 41.9 56.25 41.5 56.25 40.75 56.25 40.0 56.25 39.25 56.25 38.85 Q55.75 38.4 54.55 38.2 L53.0 37.75 53.1 37.45 53.55 37.0 54.0 36.75" fill="#339999" fill-opacity="0.2" fill-rule="evenodd" stroke="none"/>
    <path d="M59.15 38.1 L60.4 37.5 61.0 37.4 62.65 37.1 63.0 36.75 63.0 36.35 63.0 36.0 63.0 35.25 63.0 34.5 63.0 34.1 63.2 33.75 63.5 33.35 64.15 33.0 64.65 32.75 64.9 32.65 65.5 32.55 65.5 32.5 67.5 32.5 68.25 32.75 68.65 33.15 68.9 33.5 69.0 33.85 69.0 34.25 69.0 34.6 69.1 34.95 69.55 35.35 70.15 35.75 70.35 36.15 70.5 36.5 70.35 36.85 70.15 37.25 69.5 37.5 68.75 37.35 68.4 37.75 68.15 38.1 67.9 38.5 67.4 38.9 67.0 39.25 66.65 39.6 66.15 40.0 65.5 40.25 63.75 40.35 63.0 40.6 Q62.2 40.75 61.45 41.05 L61.5 41.25 61.5 41.6 61.5 42.0 61.4 42.35 61.25 42.75 61.0 43.1 60.65 43.35 60.0 43.5 59.15 43.2 58.85 43.05 Q58.5 42.85 58.15 42.75 L57.75 42.35 57.4 42.0 57.15 41.6 57.05 41.25 57.0 40.9 56.9 40.5 56.9 40.1 56.9 39.75 57.05 39.4 57.3 39.0 57.65 38.6 58.5 38.35 59.15 38.1" fill="#339999" fill-opacity="0.2" fill-rule="evenodd" stroke="none"/>
    <path d="M63.75 52.1 L63.9 52.5 64.15 52.85 64.25 53.25 64.25 54.0 64.25 54.75 64.25 55.1 64.55 55.85 64.9 56.6 65.4 57.35 65.5 57.75 65.6 58.1 65.5 58.5 65.75 58.9 65.9 59.25 65.95 60.0 65.9 60.75 65.85 61.5 65.75 61.9 65.65 62.1 65.5 62.2 65.0 62.4 64.3 62.1 63.5 61.75 63.6 61.4 63.85 60.95 64.0 60.65 Q64.1 60.0 63.65 59.5 L62.8 58.35 62.4 57.6 62.25 57.25 62.15 56.85 61.75 56.5 61.75 55.35 61.75 54.25 Q61.7 53.5 61.9 52.75 L62.05 52.4 62.5 51.7 Q62.7 51.5 63.05 51.4 L63.25 51.35 63.65 51.75 63.75 52.1" fill="#339999" fill-opacity="0.2" fill-rule="evenodd" stroke="none"/>
    <path d="M13.6 -3.55 Q13.45 -4.65 14.45 -5.25 16.45 -6.4 19.0 -6.45 21.9 -6.85 24.35 -5.25 L25.05 -4.55 Q25.4 -3.75 25.35 -2.9 L25.2 -1.65 24.85 -0.3 25.6 0.0 25.8 0.75 24.25 1.35 23.25 0.65 23.15 -0.1 Q23.05 -0.65 23.3 -1.2 L23.7 -1.8 23.75 -3.85 Q22.95 -4.7 21.95 -4.95 19.2 -5.25 16.25 -4.85 15.3 -4.75 14.9 -4.1 L14.0 -3.05 13.6 -3.55" fill="#333333" fill-rule="evenodd" stroke="none"/>
    <path d="M7.4 -0.35 L9.0 -2.55 10.35 -2.9 Q12.05 -3.15 13.6 -3.85 14.25 -4.2 14.5 -3.5 L14.4 -3.4 Q13.65 -2.75 12.75 -2.55 L12.45 -2.15 9.45 -1.3 8.45 0.95 8.75 2.45 Q8.05 3.1 7.15 2.45 L7.4 -0.35" fill="#333333" fill-rule="evenodd" stroke="none"/>
    <path d="M6.85 2.15 Q7.2 2.8 6.5 3.0 L3.85 3.35 3.7 4.45 1.4 4.95 Q1.1 4.95 0.9 5.2 0.15 6.15 -0.3 7.2 L2.5 9.65 2.3 10.75 2.1 10.95 0.2 11.15 0.05 11.0 0.0 10.75 0.55 10.05 -1.75 7.95 -1.75 7.6 Q-1.55 5.95 -0.45 4.6 L0.65 3.5 1.0 3.45 2.65 3.1 2.7 2.9 3.0 1.8 6.85 2.15" fill="#333333" fill-rule="evenodd" stroke="none"/>
    <path d="M0.65 11.1 Q0.95 11.65 0.0 11.6 L-0.5 11.9 -0.85 14.9 Q0.0 15.05 0.85 15.5 L1.25 15.95 0.5 17.2 -1.6 16.45 -1.9 15.9 Q-2.75 13.05 -0.95 10.95 L0.65 11.1" fill="#333333" fill-rule="evenodd" stroke="none"/>
    <path d="M1.35 15.35 L1.4 14.75 2.0 14.25 2.65 14.9 2.6 15.85 0.45 19.2 0.5 20.35 2.45 21.35 6.25 21.2 6.5 23.6 7.4 24.0 7.65 25.15 Q7.5 25.55 7.0 25.5 5.5 25.45 4.75 23.9 L4.7 22.75 3.25 23.0 Q1.85 23.4 1.2 22.35 L-0.9 21.15 Q-1.25 19.9 -0.7 18.5 0.05 16.65 1.35 15.35" fill="#333333" fill-rule="evenodd" stroke="none"/>
    <path d="M7.5 23.25 L7.55 23.1 Q8.55 22.25 9.85 22.75 10.6 23.5 10.4 24.85 10.25 25.65 10.65 26.15 L15.05 26.05 14.1 27.7 10.1 27.65 9.1 26.5 9.1 23.95 9.0 23.9 Q7.9 24.2 7.5 23.25" fill="#333333" fill-rule="evenodd" stroke="none"/>
    <path d="M12.25 5.15 L12.85 6.0 8.85 6.95 8.4 10.25 7.75 10.35 Q6.8 10.35 5.9 10.8 5.4 11.05 5.1 11.6 L4.3 13.15 3.7 13.2 3.6 13.0 3.6 12.85 Q3.5 11.85 4.2 10.95 L5.55 10.0 7.4 8.95 Q7.15 7.6 7.6 6.35 L7.75 6.0 7.9 5.75 8.25 5.65 12.25 5.15" fill="#333333" fill-rule="evenodd" stroke="none"/>
    <path d="M14.55 -0.3 L15.6 -0.6 16.6 0.7 16.5 2.4 Q16.5 3.45 15.75 4.0 14.1 4.5 13.3 3.7 12.75 2.7 13.4 1.65 14.0 0.55 15.05 1.0 L14.1 1.65 13.9 2.75 15.4 2.7 15.45 1.0 14.55 -0.3" fill="#333333" fill-rule="evenodd" stroke="none"/>
    <path d="M19.35 25.1 L20.05 26.3 21.9 25.1 22.7 25.25 22.55 26.4 21.45 27.5 19.2 27.3 18.6 25.9 16.65 25.95 16.35 26.15 15.85 26.3 15.45 26.35 Q15.75 25.4 16.7 25.0 L19.35 25.1" fill="#333333" fill-rule="evenodd" stroke="none"/>
    <path d="M22.0 21.35 L21.5 21.6 18.05 21.45 18.4 20.35 18.75 20.7 21.0 20.4 21.45 19.9 24.65 20.1 25.4 20.5 25.7 21.1 Q26.1 21.9 25.7 22.7 L25.35 23.9 25.9 24.4 Q26.95 25.15 28.2 24.6 L29.7 22.7 29.85 22.65 29.95 22.55 30.5 22.4 31.0 22.7 Q31.25 23.1 31.0 23.6 30.15 25.2 28.85 26.1 27.05 27.25 25.15 25.85 L23.75 24.85 24.15 21.85 23.75 21.4 22.0 21.35" fill="#333333" fill-rule="evenodd" stroke="none"/>
    <path d="M31.75 21.95 L31.8 21.8 Q32.55 21.2 33.6 21.35 34.4 21.55 34.7 22.4 L35.05 23.1 37.35 23.7 37.45 24.65 36.9 25.0 34.4 24.65 Q33.75 23.9 33.35 22.95 33.15 22.55 32.8 22.95 32.25 23.1 31.8 22.55 31.65 22.3 31.75 21.95" fill="#333333" fill-rule="evenodd" stroke="none"/>
    <path d="M30.65 28.35 L31.75 30.75 31.35 31.45 31.0 31.5 30.4 31.2 Q29.85 30.9 29.7 30.3 L29.5 29.7 26.95 29.1 26.6 28.75 26.05 28.3 24.35 26.6 Q24.05 26.25 24.2 25.95 24.5 25.65 24.85 25.95 L25.25 26.25 26.7 27.4 Q27.0 27.65 27.4 27.7 L28.75 27.85 Q29.8 27.6 30.65 28.35" fill="#333333" fill-rule="evenodd" stroke="none"/>
    <path d="M0.3 39.5 Q0.6 40.1 0.1 40.75 L-0.6 41.65 Q-1.55 42.9 -1.3 44.5 L-1.35 45.05 Q-2.0 46.2 -2.95 47.0 L-3.05 47.35 -3.5 48.2 Q-4.4 49.25 -4.45 50.55 L-4.65 52.2 -5.55 51.1 -5.6 50.7 -5.65 49.8 Q-5.55 48.2 -4.5 46.95 L-4.4 46.2 -2.8 44.7 -2.6 42.65 -2.0 41.75 -1.0 40.3 Q-0.45 39.35 0.3 39.5" fill="#333333" fill-rule="evenodd" stroke="none"/>
    <path d="M0.75 39.25 L1.75 39.75 Q2.15 40.9 2.15 41.85 L1.95 43.1 1.5 45.0 1.6 45.9 Q0.6 46.0 0.15 45.15 0.0 44.8 0.15 44.4 L0.65 43.25 Q1.05 41.8 0.8 40.45 L0.65 40.3 Q-0.05 39.65 0.75 39.25" fill="#333333" fill-rule="evenodd" stroke="none"/>
    <path d="M0.0 49.3 Q0.0 48.15 0.75 47.4 1.3 47.7 1.35 48.35 L1.35 49.3 Q1.9 49.8 2.1 49.15 L3.2 47.15 3.75 47.0 6.15 47.4 Q6.85 47.45 7.25 48.25 L7.2 48.45 Q7.4 49.65 6.65 50.5 L5.95 51.0 5.85 48.65 3.85 48.85 2.9 50.65 0.65 50.6 0.15 50.05 0.0 49.3" fill="#333333" fill-rule="evenodd" stroke="none"/>
    <path d="M0.15 53.85 L0.45 55.3 1.4 56.75 0.15 56.85 -0.8 55.9 -1.1 54.4 -4.45 53.5 -4.25 51.9 -3.6 52.65 -0.65 52.9 0.15 53.85" fill="#333333" fill-rule="evenodd" stroke="none"/>
    <path d="M5.0 51.65 L5.05 51.45 5.95 51.4 Q7.0 53.8 5.45 56.1 3.1 57.2 0.5 57.15 -0.6 57.3 -0.85 56.8 -0.7 56.45 -0.2 56.25 L2.6 55.6 Q3.7 55.5 4.6 54.85 L4.8 54.45 Q5.35 53.05 5.0 51.65" fill="#333333" fill-rule="evenodd" stroke="none"/>
    <path d="M1.65 36.4 Q1.8 35.65 2.35 34.95 L4.3 34.75 Q4.8 36.3 4.1 38.1 2.5 38.6 1.6 37.7 L1.65 36.4 M3.05 35.7 L2.65 35.95 2.45 36.45 2.65 37.0 Q2.8 37.2 3.05 37.2 L3.5 37.0 3.65 36.45 3.5 35.95 3.05 35.7" fill="#333333" fill-rule="evenodd" stroke="none"/>
    <path d="M-8.15 33.4 L-9.05 33.4 -9.05 31.4 -8.15 31.4 -8.15 33.4" fill="#333333" fill-rule="evenodd" stroke="none"/>
    <path d="M14.15 28.65 L14.65 28.15 15.35 28.7 Q15.25 30.05 15.3 31.35 L15.05 32.25 Q14.05 33.35 12.5 33.1 L11.5 32.4 11.6 30.35 12.9 29.5 13.65 30.05 12.85 30.2 12.45 30.6 12.5 31.85 14.1 31.65 14.15 28.65" fill="#333333" fill-rule="evenodd" stroke="none"/>
    <path d="M6.75 18.7 L6.95 18.85 Q7.7 19.1 7.9 18.6 L7.2 17.7 6.75 18.7 M7.2 17.4 L8.75 17.75 9.05 18.5 Q9.2 19.05 8.85 19.65 7.9 20.3 6.7 19.85 L6.15 19.25 6.15 19.05 Q6.35 18.0 7.2 17.4" fill="#333333" fill-rule="evenodd" stroke="none"/>
    <path d="M4.4 -6.1 Q4.8 -5.65 4.8 -5.05 4.8 -4.45 4.4 -4.0 3.95 -3.55 3.35 -3.55 2.75 -3.55 2.35 -4.0 1.9 -4.45 1.9 -5.05 1.9 -5.65 2.35 -6.1 2.75 -6.55 3.35 -6.55 3.95 -6.55 4.4 -6.1 M3.7 -5.2 L2.65 -5.2 2.65 -4.5 3.7 -4.5 3.7 -5.2" fill="#333333" fill-rule="evenodd" stroke="none"/>
    <path d="M26.15 -4.25 L27.55 -5.1 31.0 -5.2 31.25 -5.55 Q31.9 -6.4 32.85 -6.7 L36.5 -7.7 Q37.8 -8.05 39.05 -7.3 40.95 -6.15 41.0 -3.8 L41.15 -1.95 Q41.35 -1.0 41.85 -0.45 L40.85 -0.1 Q39.95 -0.35 39.75 -1.35 39.5 -2.35 39.55 -3.45 39.6 -5.1 38.4 -6.2 L34.1 -5.7 32.8 -5.0 32.2 -3.5 32.05 -3.4 Q30.75 -3.25 30.1 -4.3 L26.9 -3.75 26.65 -2.35 26.15 -4.25" fill="#333333" fill-rule="evenodd" stroke="none"/>
    <path d="M43.65 -4.3 L43.65 -4.1 Q43.75 -2.45 42.4 -1.6 L42.15 -1.45 41.95 -1.7 42.7 -5.2 43.85 -6.3 49.9 -6.25 50.85 -5.8 50.8 -4.85 44.3 -5.05 43.65 -4.3" fill="#333333" fill-rule="evenodd" stroke="none"/>
    <path d="M42.55 0.4 L42.5 0.55 Q41.25 0.6 40.05 1.25 L39.35 1.85 39.2 0.5 42.55 0.4" fill="#333333" fill-rule="evenodd" stroke="none"/>
    <path d="M50.7 -4.55 L51.1 -4.95 51.6 -3.3 51.9 -2.9 52.4 -2.7 Q53.8 -2.65 54.6 -1.4 L54.5 2.3 53.35 3.25 53.1 3.4 Q51.95 3.5 51.8 2.65 L53.55 1.5 53.5 -0.9 50.6 -2.3 50.7 -4.55" fill="#333333" fill-rule="evenodd" stroke="none"/>
    <path d="M61.3 2.1 Q61.75 4.15 61.4 6.1 60.65 6.95 59.35 6.6 L59.0 5.85 60.2 5.0 60.05 3.2 Q59.8 1.9 58.95 1.25 L58.35 1.75 55.45 1.7 Q54.7 1.35 54.9 0.75 L58.15 0.4 58.6 0.05 59.35 -0.05 60.4 0.75 Q61.1 1.35 61.3 2.1" fill="#333333" fill-rule="evenodd" stroke="none"/>
    <path d="M55.1 8.85 L54.05 8.4 Q53.65 9.15 53.2 8.65 L53.35 7.0 55.05 7.6 57.4 7.4 58.2 6.75 58.3 8.05 57.85 8.75 55.1 8.85" fill="#333333" fill-rule="evenodd" stroke="none"/>
    <path d="M51.1 10.45 L51.1 10.25 Q51.0 9.05 51.85 9.25 L52.35 9.9 58.95 9.7 Q59.75 10.3 59.55 11.4 L58.85 12.1 58.35 11.75 58.1 11.2 57.1 10.85 52.35 11.1 51.1 10.45" fill="#333333" fill-rule="evenodd" stroke="none"/>
    <path d="M61.0 14.2 Q61.15 15.8 60.9 17.4 59.25 18.8 56.8 17.9 55.9 17.7 55.3 17.1 54.9 16.7 54.9 16.15 L55.3 15.65 56.45 16.1 59.65 16.2 59.7 13.6 58.85 12.65 59.6 11.85 Q60.9 12.65 61.0 14.2" fill="#333333" fill-rule="evenodd" stroke="none"/>
    <path d="M54.1 16.65 L55.1 17.0 53.55 17.95 53.7 19.05 54.7 19.9 54.6 21.2 53.6 21.6 53.2 21.45 53.2 20.5 52.6 19.4 52.75 17.55 54.1 16.65" fill="#333333" fill-rule="evenodd" stroke="none"/>
    <path d="M63.1 19.9 Q62.8 19.65 62.45 19.65 62.1 19.65 61.85 19.9 61.55 20.15 61.55 20.5 61.55 20.85 61.85 21.1 L62.45 21.35 63.1 21.1 63.35 20.5 63.1 19.9 M63.35 18.7 L64.25 19.2 Q64.6 19.9 64.35 20.7 64.15 21.4 63.3 21.95 61.75 23.1 60.6 21.6 L60.75 20.45 Q60.9 19.6 61.65 18.95 L63.35 18.7" fill="#333333" fill-rule="evenodd" stroke="none"/>
    <path d="M62.9 24.7 Q63.0 24.4 63.35 24.35 L66.1 24.2 66.65 24.5 67.5 25.15 Q68.15 25.85 68.15 26.75 L68.05 29.2 67.05 29.1 67.0 28.7 66.8 26.65 Q66.7 25.85 66.1 25.5 L63.6 25.25 Q63.0 25.25 62.9 24.7" fill="#333333" fill-rule="evenodd" stroke="none"/>
    <path d="M63.9 25.15 Q64.15 25.3 63.95 25.75 L63.7 25.9 Q62.95 25.9 62.6 26.35 L62.45 30.75 62.35 30.75 61.75 30.65 61.2 30.2 61.25 27.4 Q61.25 26.55 61.85 25.75 62.65 24.6 63.9 25.15" fill="#333333" fill-rule="evenodd" stroke="none"/>
    <path d="M57.65 25.1 L58.65 26.0 59.45 27.15 Q59.0 27.55 58.35 27.15 L57.2 26.2 55.7 26.3 55.15 25.75 55.35 25.5 55.6 25.25 57.65 25.1" fill="#333333" fill-rule="evenodd" stroke="none"/>
    <path d="M59.65 27.5 L59.8 27.75 Q60.6 29.5 59.55 31.15 L61.15 30.5 61.6 31.65 61.35 31.95 60.4 32.7 57.9 32.65 57.6 32.1 58.95 28.9 58.05 27.9 59.65 27.5" fill="#333333" fill-rule="evenodd" stroke="none"/>
    <path d="M54.65 26.6 Q55.1 26.3 55.5 26.85 55.7 27.1 55.35 27.3 L54.45 28.35 Q54.0 29.15 53.95 30.0 L54.25 30.3 Q55.6 31.05 55.65 32.45 L54.65 32.55 Q53.3 31.75 52.65 30.65 L52.65 30.3 Q52.65 28.1 54.35 26.75 L54.65 26.6" fill="#333333" fill-rule="evenodd" stroke="none"/>
    <path d="M50.95 35.0 L52.6 32.95 53.45 32.9 52.2 35.35 52.4 37.6 Q53.4 38.1 54.6 38.0 55.25 38.15 55.55 38.65 56.35 40.1 56.65 41.6 L57.5 42.55 59.4 42.9 61.6 41.9 61.3 43.2 59.65 44.45 57.35 44.5 Q56.7 44.3 56.25 43.95 L56.1 43.6 55.9 43.25 Q55.6 43.0 55.4 42.4 L54.5 39.85 51.9 39.15 51.3 38.15 Q50.75 36.55 50.95 35.0" fill="#333333" fill-rule="evenodd" stroke="none"/>
    <path d="M66.6 40.0 L66.6 39.85 66.9 39.25 67.45 39.0 Q67.8 39.8 67.35 40.9 L66.35 41.85 Q65.15 41.95 64.2 41.45 L63.85 41.1 Q62.35 40.7 60.95 41.4 L61.2 41.0 61.9 40.5 Q63.3 39.95 64.65 40.1 L65.2 40.6 65.3 40.65 Q66.15 41.0 66.6 40.0" fill="#333333" fill-rule="evenodd" stroke="none"/>
    <path d="M71.15 29.4 L71.5 30.1 Q71.65 31.25 71.45 31.95 70.95 33.55 69.85 34.75 L69.1 34.5 68.9 33.4 70.15 31.7 70.2 30.05 69.6 29.5 67.9 29.25 69.85 28.5 71.15 29.4" fill="#333333" fill-rule="evenodd" stroke="none"/>
    <path d="M69.85 36.1 L69.75 35.95 Q69.4 35.2 70.1 34.85 70.75 35.25 70.75 36.1 L70.55 37.95 Q70.4 38.9 69.5 39.5 68.55 40.25 67.35 40.1 66.4 40.3 65.6 39.75 L69.2 38.5 69.85 36.1" fill="#333333" fill-rule="evenodd" stroke="none"/>
    <path d="M60.15 37.7 L60.35 36.4 60.95 36.45 61.2 36.9 61.6 36.7 61.05 36.3 60.95 35.6 61.1 35.4 Q62.5 35.3 63.2 36.65 L63.05 37.95 60.15 37.7" fill="#333333" fill-rule="evenodd" stroke="none"/>
    <path d="M46.8 16.5 L46.85 17.85 46.65 19.7 46.45 19.85 46.0 20.25 43.0 20.8 40.35 24.45 39.5 24.05 39.5 23.95 41.75 20.75 41.8 19.65 45.35 18.9 45.35 17.2 43.65 14.6 44.1 13.85 Q44.5 13.65 44.9 14.1 L46.8 16.5" fill="#333333" fill-rule="evenodd" stroke="none"/>
    <path d="M41.35 10.75 Q42.55 10.4 43.35 11.45 L42.95 14.1 Q42.45 14.15 42.4 13.7 L42.4 11.9 40.35 11.9 40.2 11.2 41.35 10.75" fill="#333333" fill-rule="evenodd" stroke="none"/>
    <path d="M42.8 24.25 L42.85 23.55 43.65 23.35 43.95 24.45 45.3 26.35 47.8 26.25 48.6 25.15 49.25 25.65 Q49.55 26.35 49.2 27.15 L48.15 27.9 44.65 27.85 44.45 27.65 Q43.1 26.2 42.8 24.25" fill="#333333" fill-rule="evenodd" stroke="none"/>
    <path d="M53.4 22.45 L54.15 22.2 Q54.85 23.75 53.9 24.95 52.8 26.25 50.95 26.4 49.25 26.8 47.8 25.9 L47.45 25.35 47.6 24.95 Q47.85 24.55 48.35 24.7 L50.3 24.8 Q52.0 25.1 53.1 23.95 L53.4 22.45" fill="#333333" fill-rule="evenodd" stroke="none"/>
    <path d="M40.9 26.8 L40.95 26.65 Q41.25 25.0 42.6 24.25 L43.3 24.85 42.15 26.5 41.6 28.35 39.3 28.2 Q39.35 29.25 38.95 30.1 L38.35 30.7 Q37.8 30.5 37.85 30.2 L37.95 28.15 Q37.9 27.15 38.8 26.65 L40.9 26.8" fill="#333333" fill-rule="evenodd" stroke="none"/>
    <path d="M62.3 51.7 Q62.85 51.55 62.9 51.95 63.35 54.2 62.95 56.5 L61.1 56.6 61.35 55.85 61.5 55.7 61.85 54.55 Q62.0 53.05 62.3 51.7" fill="#333333" fill-rule="evenodd" stroke="none"/>
    <path d="M61.95 57.6 L61.2 58.15 61.6 61.75 60.6 62.55 60.05 62.2 60.05 58.65 Q60.1 57.9 60.6 57.15 L61.1 56.9 61.95 57.6" fill="#333333" fill-rule="evenodd" stroke="none"/>
    <path d="M63.25 51.0 L63.85 50.65 Q64.55 51.0 64.8 51.95 65.45 54.45 65.15 56.95 L63.85 58.05 63.15 57.15 63.9 56.05 64.1 53.2 63.75 51.7 63.25 51.0" fill="#333333" fill-rule="evenodd" stroke="none"/>
    <path d="M64.85 59.35 L64.85 58.95 Q64.9 58.05 65.65 58.45 L66.1 59.4 66.15 63.5 65.55 64.2 Q64.15 64.85 62.65 64.55 L61.4 63.65 61.1 62.75 61.25 62.6 Q61.55 62.25 62.05 62.45 63.45 63.15 64.85 62.7 L64.85 59.35" fill="#333333" fill-rule="evenodd" stroke="none"/>
    <path d="M48.0 4.15 Q47.75 4.15 47.6 4.35 47.45 4.5 47.45 4.75 L47.6 5.2 48.0 5.35 48.4 5.2 48.55 4.75 48.4 4.35 48.0 4.15 M47.05 6.1 Q46.55 5.6 46.55 4.95 46.55 4.3 47.05 3.85 47.5 3.35 48.15 3.35 48.8 3.35 49.3 3.85 49.75 4.3 49.75 4.95 L49.3 6.1 48.15 6.55 Q47.5 6.55 47.05 6.1" fill="#333333" fill-rule="evenodd" stroke="none"/>
    <path d="M55.9 -6.2 L56.35 -6.5 Q57.0 -6.45 56.7 -5.85 L56.15 -5.2 57.45 -5.1 57.4 -5.45 Q57.1 -6.2 57.7 -6.25 L58.15 -5.7 57.95 -4.2 Q56.65 -3.95 55.6 -4.85 L55.9 -6.2" fill="#333333" fill-rule="evenodd" stroke="none"/>
  </g>
</svg>
