<?xml version="1.0" encoding="UTF-8" standalone="no"?>
<svg xmlns:xlink="http://www.w3.org/1999/xlink" height="73.4px" width="80.95px" xmlns="http://www.w3.org/2000/svg">
  <g transform="matrix(1.0, 0.0, 0.0, 1.0, 8.65, 3.65)">
    <path d="M33.95 -0.5 L34.15 -0.9 34.55 -1.2 35.5 -1.75 35.9 -2.15 36.15 -2.4 36.4 -2.5 37.0 -2.6 37.0 -2.65 39.5 -2.65 40.25 -2.4 40.75 -2.0 41.0 -1.65 41.1 -1.25 41.15 -0.9 41.15 -0.5 41.15 0.25 41.15 0.6 41.15 0.75 42.0 0.75 42.4 0.5 43.0 0.4 47.0 0.35 47.75 0.6 48.15 0.85 48.75 1.1 49.25 1.5 49.6 1.85 49.85 2.25 50.0 2.6 50.1 3.0 50.15 4.1 50.15 6.0 50.1 7.5 50.0 7.85 49.85 8.2 49.6 8.6 49.3 9.0 49.15 9.35 49.15 9.75 49.15 10.1 49.25 10.5 49.6 10.85 49.85 11.25 50.05 11.6 50.25 12.0 50.55 12.15 51.15 12.1 52.9 11.6 52.9 11.25 52.9 10.85 52.9 10.5 52.9 10.1 53.05 9.75 53.4 9.0 Q53.75 8.35 54.4 8.0 L55.4 7.5 56.0 7.4 58.0 7.35 58.75 7.6 59.25 8.0 59.5 8.35 59.6 8.75 59.65 9.5 59.65 10.6 59.65 12.1 59.7 12.45 60.0 12.75 61.65 12.6 62.5 12.25 62.9 11.85 63.15 11.6 63.4 11.55 67.0 11.35 67.75 11.6 68.25 12.0 68.65 12.35 69.0 12.75 69.5 13.5 69.6 13.85 69.65 14.25 69.65 14.6 69.65 15.35 69.65 15.75 69.5 16.1 69.25 16.45 68.9 16.85 68.15 17.5 Q67.7 17.6 67.35 17.85 L67.15 18.1 67.15 18.5 67.2 18.8 67.5 19.25 68.3 19.6 69.4 20.0 69.9 20.35 70.25 20.75 70.5 21.1 70.65 21.5 70.75 21.85 70.75 22.25 70.75 22.6 70.65 23.35 70.65 23.75 70.5 24.1 70.25 24.5 69.75 24.85 69.0 25.05 67.55 25.3 65.75 25.75 65.75 26.1 65.75 26.85 65.8 28.0 65.65 29.5 65.5 29.85 65.25 30.25 64.75 30.6 64.5 30.95 63.8 31.75 62.5 32.85 62.15 33.1 61.5 33.2 60.5 33.25 59.65 33.0 59.15 32.6 58.9 32.25 58.8 31.85 58.75 31.5 58.75 30.75 58.8 29.6 58.9 28.85 59.05 28.5 59.4 28.1 59.9 27.85 58.4 28.0 Q57.95 28.15 57.55 28.4 L56.9 28.75 56.75 29.1 56.65 29.5 56.5 29.85 56.25 30.2 55.9 30.6 55.5 30.95 54.65 31.6 54.0 31.7 53.0 31.75 52.15 31.5 51.65 31.1 51.4 30.75 51.3 30.35 51.25 30.0 51.25 29.6 51.25 29.25 51.25 28.85 51.15 28.6 Q50.9 28.35 50.5 28.25 L49.65 28.0 49.15 27.6 48.9 27.25 48.8 26.85 48.75 26.5 48.75 26.1 48.75 25.75 48.7 25.4 48.5 25.0 47.9 25.0 47.55 25.4 47.25 25.75 46.5 26.1 45.0 26.85 43.9 27.5 43.65 27.55 40.0 27.75 39.15 27.45 38.4 27.1 36.9 26.35 36.5 26.0 33.9 26.0 33.0 26.35 32.75 26.75 32.75 27.1 32.65 27.5 32.5 27.85 32.25 28.25 31.5 28.6 30.9 29.0 30.0 29.25 27.5 29.25 26.65 29.0 26.15 28.6 25.75 28.25 25.4 27.85 25.0 27.5 24.9 27.1 24.8 26.75 24.75 26.35 24.6 26.0 24.35 25.65 23.65 24.85 22.5 23.85 22.25 24.25 21.9 24.5 21.6 24.6 20.65 24.85 20.15 25.1 19.5 25.2 16.15 25.5 16.0 25.85 15.75 26.25 15.3 26.65 15.15 27.0 15.0 27.35 14.75 27.75 14.25 28.15 13.9 28.5 13.5 28.85 13.15 29.1 12.5 29.2 10.4 29.5 10.3 29.85 10.25 30.25 10.25 30.6 10.25 31.0 10.3 31.35 10.5 31.75 10.65 32.1 10.7 32.5 10.75 32.85 10.75 33.25 10.7 34.0 10.65 34.35 10.5 34.7 10.25 35.1 10.15 35.5 10.0 35.85 9.75 36.2 9.4 36.65 9.15 37.0 8.75 37.75 8.4 38.0 8.1 38.05 4.4 38.5 4.3 38.85 4.25 39.25 4.2 39.6 4.15 40.0 4.0 40.35 3.75 40.7 3.0 41.5 2.25 42.25 1.5 42.65 0.9 43.0 0.0 43.25 -0.5 43.25 -1.35 43.0 -1.85 42.6 -2.45 41.85 -3.35 40.4 -3.75 39.25 -3.8 39.05 -4.5 38.8 Q-5.45 38.7 -6.2 38.2 L-6.9 37.85 -7.25 37.45 -7.5 37.1 -7.6 36.75 -7.65 35.6 -7.65 33.75 -7.65 32.25 -7.65 31.85 -7.55 31.5 -7.35 31.15 -7.0 30.75 -6.25 30.0 -6.15 29.6 -6.0 29.25 -5.65 28.85 -5.4 28.6 -5.1 28.5 -4.5 28.2 -4.1 28.0 -3.5 27.75 -3.15 27.35 -2.85 27.1 -2.6 27.0 -2.1 26.75 -2.4 26.4 -2.75 25.95 -2.95 25.6 -3.15 25.25 -3.15 24.85 -3.3 24.5 -3.5 24.1 -3.6 23.75 -3.65 23.35 -3.6 22.6 -3.6 21.5 -3.65 21.1 -3.7 20.75 -3.85 20.35 -4.3 19.65 -5.15 18.5 -5.15 18.1 -5.15 17.75 -5.15 17.35 -5.15 17.0 -5.15 16.6 -4.95 16.25 -4.65 15.85 -4.25 15.5 -3.9 15.1 -3.15 14.75 -3.1 14.35 -3.0 12.5 -3.0 10.25 -3.0 9.5 -3.0 9.1 -3.0 7.6 -2.85 7.25 -2.5 6.85 -2.1 6.6 -1.35 6.35 -1.0 6.0 -0.6 5.75 0.0 5.45 0.4 5.25 1.0 5.05 Q2.9 4.3 5.0 4.35 L5.25 4.0 5.65 3.6 6.05 3.15 6.15 2.85 6.2 2.5 6.4 2.1 6.75 1.85 6.9 1.75 7.5 1.6 8.9 1.35 9.25 1.0 9.65 0.6 10.0 0.35 10.5 0.25 11.5 0.25 13.5 0.35 14.1 0.65 14.5 0.85 15.15 1.1 15.4 1.5 15.55 1.85 15.5 2.25 15.35 2.6 15.0 3.0 14.65 3.4 14.5 3.75 14.55 3.9 18.0 4.35 18.75 4.6 19.25 5.0 19.65 5.35 20.15 5.5 21.0 5.4 Q23.35 5.35 25.3 4.1 L25.4 3.85 25.45 3.5 25.8 2.7 Q26.2 1.8 27.0 1.2 L27.65 0.6 27.9 0.55 32.0 0.35 32.75 0.6 33.25 1.0 33.75 1.0 33.85 0.6 33.9 0.25 33.9 -0.15 33.95 -0.5 M4.8 10.8 L4.75 10.75 4.65 10.55 4.55 10.45 4.4 10.35 4.25 10.25 4.05 10.2 3.85 10.15 3.85 10.2 3.65 10.2 3.45 10.25 3.25 10.35 3.15 10.45 3.05 10.55 3.0 10.65 2.9 10.75 2.85 10.8 2.8 10.9 2.8 11.0 2.75 11.1 2.75 11.2 2.7 11.3 2.65 11.4 2.65 11.5 2.6 11.55 2.6 11.65 2.6 11.95 2.6 12.15 2.6 12.25 2.6 12.3 2.6 12.4 2.65 12.5 2.65 12.6 2.7 12.7 2.75 12.8 2.85 12.9 2.9 13.0 3.0 13.05 3.2 13.15 3.4 13.2 3.6 13.25 3.8 13.2 4.0 13.15 4.35 12.85 4.5 12.7 4.55 12.6 4.55 12.5 4.6 12.4 4.65 12.25 4.65 12.15 4.7 12.05 4.75 11.95 4.75 11.85 4.75 11.75 4.75 11.65 4.75 11.55 4.8 11.5 4.8 11.4 4.85 11.3 4.85 11.2 4.85 11.1 4.85 11.0 4.8 10.9 4.8 10.8 M62.35 20.0 L62.35 19.9 62.3 19.8 62.25 19.75 62.15 19.55 62.05 19.45 61.95 19.35 61.8 19.25 61.55 19.2 61.35 19.15 61.35 19.2 61.2 19.2 61.05 19.25 60.9 19.3 60.75 19.4 60.65 19.5 60.55 19.6 60.5 19.65 60.45 19.75 60.4 19.85 60.4 19.95 60.4 20.05 60.35 20.15 60.35 20.25 60.35 20.3 60.4 20.4 60.45 20.5 60.45 20.6 60.55 20.7 60.6 20.8 60.7 20.9 60.8 21.0 60.95 21.05 61.2 21.15 61.35 21.15 61.55 21.15 61.7 21.1 61.85 21.05 62.0 20.95 62.1 20.85 62.15 20.75 62.2 20.65 62.3 20.55 62.3 20.5 62.35 20.4 62.35 20.3 62.35 20.2 62.35 20.1 62.35 20.0" fill="#ffffff" fill-rule="evenodd" stroke="none"/>
    <path d="M63.25 66.25 L63.35 66.6 63.25 67.0 63.15 67.35 63.0 67.75 62.85 68.1 62.5 68.35 62.0 68.1 61.9 68.15 61.65 68.5 61.5 68.7 61.0 68.85 60.4 68.6 60.2 68.25 60.15 67.85 60.15 67.5 60.25 67.2 60.9 66.35 61.25 66.0 Q61.4 65.85 61.55 65.8 L62.0 65.7 62.0 65.6 62.5 65.6 63.05 65.95 63.25 66.25" fill="#ffffff" fill-rule="evenodd" stroke="none"/>
    <path d="M57.3 0.6 L57.45 0.8 57.45 0.9 57.45 1.0 57.45 1.05 57.45 1.15 57.45 1.25 57.45 1.35 57.4 1.45 57.35 1.55 57.3 1.65 57.25 1.75 57.2 1.85 57.15 1.9 57.1 2.0 56.95 2.1 56.85 2.2 56.75 2.25 56.7 2.3 56.5 2.35 56.4 2.45 56.25 2.55 56.05 2.65 55.95 2.7 55.75 2.75 55.1 2.75 54.9 2.7 54.85 2.6 54.75 2.5 54.7 2.4 54.55 2.3 54.45 2.25 54.4 2.15 54.35 2.05 54.25 1.95 54.25 1.85 54.25 1.75 54.25 1.55 54.25 1.4 54.25 1.2 54.25 1.1 54.3 1.0 54.35 0.9 54.55 0.75 54.7 0.55 54.8 0.45 55.1 0.35 55.15 0.25 55.25 0.15 55.35 0.1 55.5 0.1 55.5 0.05 56.5 0.05 56.75 0.15 56.85 0.25 57.15 0.45 57.3 0.6" fill="#ffffff" fill-rule="evenodd" stroke="none"/>
    <path d="M40.85 24.25 L41.15 24.35 41.35 24.3 41.6 24.25 41.9 24.4 42.0 24.6 42.1 24.75 42.0 24.95 41.9 25.15 41.55 25.35 41.4 25.5 41.1 25.7 40.7 25.9 40.65 26.25 40.65 27.0 40.6 27.75 40.6 28.35 40.55 28.5 40.4 28.9 40.25 29.45 40.15 30.0 40.05 30.2 39.95 30.4 39.9 30.6 39.85 30.75 39.85 31.35 39.85 32.25 39.85 33.2 39.85 33.4 39.75 33.55 39.55 33.95 39.35 34.35 39.15 34.7 38.95 34.9 38.75 35.05 38.6 35.2 38.45 35.25 37.95 35.4 37.6 35.6 37.35 35.7 36.85 35.8 35.35 35.75 35.2 35.95 35.15 36.15 35.1 36.35 35.05 36.5 34.95 36.7 34.85 36.9 34.85 37.1 34.85 37.25 34.8 37.45 34.7 37.65 34.65 37.8 34.45 38.05 34.15 38.4 34.05 38.6 33.85 38.7 33.7 38.75 33.35 38.85 32.85 38.75 32.85 38.95 32.85 39.35 32.85 39.7 32.8 40.1 32.8 40.25 32.7 40.45 32.6 40.65 32.4 40.85 32.2 40.95 31.85 41.0 31.35 40.9 31.1 40.7 30.95 40.5 30.85 40.35 30.7 40.15 30.65 39.95 30.65 39.75 30.65 39.6 30.6 39.4 30.45 39.2 30.4 39.0 30.35 38.85 30.3 38.65 30.2 38.45 30.15 38.25 30.15 38.1 30.15 37.9 30.15 37.7 30.15 37.5 30.15 37.35 30.1 37.15 30.05 36.95 29.95 36.75 29.9 36.6 29.85 36.4 29.75 36.2 29.65 36.05 29.55 35.85 29.45 35.65 29.4 35.45 29.4 35.1 29.4 34.5 29.4 33.95 29.4 33.75 29.4 33.65 27.9 33.35 27.65 33.15 27.45 32.95 27.3 32.75 26.55 32.75 26.1 32.9 25.65 32.75 25.4 32.6 25.2 32.4 24.85 32.0 24.75 31.85 24.75 31.45 24.75 30.7 24.75 29.95 24.75 29.45 24.4 29.45 24.0 29.6 23.75 29.6 23.35 29.45 23.15 29.25 22.95 29.1 22.75 28.9 Q22.2 28.7 21.75 28.3 L21.0 27.6 20.85 27.4 20.8 27.0 20.75 26.25 20.75 25.5 20.75 24.95 20.8 24.8 20.9 24.6 21.1 24.4 21.45 24.3 22.35 24.1 22.75 24.0 23.15 24.15 23.35 24.35 23.6 24.35 24.0 24.2 24.25 24.2 24.65 24.35 24.9 24.5 25.05 24.7 25.05 24.9 25.1 25.25 25.1 25.85 25.1 26.35 25.45 26.35 25.45 25.75 25.5 24.85 25.45 23.7 25.4 23.35 25.5 23.15 25.6 22.95 25.8 22.75 26.05 22.65 26.35 22.6 26.8 22.7 27.05 22.9 27.15 23.1 27.3 23.25 27.35 23.45 27.4 23.65 27.55 23.85 27.6 24.0 27.65 24.2 27.7 24.4 27.8 24.6 27.75 24.95 27.7 25.5 27.7 26.25 27.7 26.65 27.75 26.7 27.95 26.7 28.95 26.1 30.35 25.9 30.8 26.0 30.95 26.2 31.1 26.4 31.15 26.45 32.45 26.6 32.65 26.45 32.85 26.25 33.05 25.9 33.4 25.35 34.1 24.65 34.2 24.6 34.6 24.55 35.35 24.5 35.85 24.65 36.2 24.85 36.45 25.05 36.65 25.2 38.35 24.85 40.1 24.4 40.35 24.4 40.55 24.35 40.85 24.25" fill="#ffffff" fill-opacity="0.3019608" fill-rule="evenodd" stroke="none"/>
    <path d="M42.05 23.0 L42.15 23.2 42.15 23.4 42.1 23.6 42.1 23.75 42.15 23.95 42.15 24.15 42.1 24.5 41.95 24.9 41.9 25.1 41.75 25.25 41.6 25.45 41.3 25.65 40.85 25.75 40.05 25.9 40.15 26.1 40.25 26.25 40.45 26.65 40.6 26.85 40.65 27.0 40.7 27.2 40.8 27.4 40.85 27.6 40.85 28.15 40.85 28.9 40.85 29.65 40.8 29.85 40.65 30.2 40.55 30.6 40.45 30.75 40.25 31.15 39.95 31.7 39.45 32.2 38.9 32.35 38.7 32.5 38.45 32.7 38.1 32.9 37.6 33.0 36.1 33.0 35.6 32.9 35.2 32.7 34.9 32.5 34.55 32.15 33.95 31.55 33.65 31.2 33.45 30.45 33.2 29.5 33.1 28.6 33.05 28.5 32.55 28.7 32.1 29.1 32.0 29.25 31.9 29.45 31.75 29.65 31.6 29.85 31.55 30.2 31.55 30.6 31.55 31.15 31.55 31.35 31.45 31.5 31.35 31.9 31.25 32.25 31.15 32.65 30.75 33.25 29.65 33.9 27.85 33.95 27.4 33.8 26.7 33.45 26.55 33.25 26.4 33.1 26.2 32.7 26.15 32.5 25.95 32.35 25.7 32.15 25.6 31.95 25.45 31.75 25.35 31.6 25.2 31.4 25.15 31.2 25.15 31.0 25.15 30.85 25.15 30.65 25.2 30.45 25.3 30.3 25.45 30.1 25.8 29.9 25.95 29.7 25.95 29.5 25.95 29.35 25.95 29.15 25.9 29.1 23.5 29.15 23.1 29.0 22.85 28.85 22.6 28.65 22.2 28.45 22.05 28.25 21.95 28.1 21.9 27.9 21.9 27.5 21.9 27.15 21.95 26.75 21.9 26.2 21.9 25.45 22.0 24.7 22.15 24.6 22.3 24.55 22.5 24.45 22.75 24.55 23.1 24.65 23.3 24.7 23.75 24.7 24.15 24.85 24.4 25.0 24.5 25.2 24.65 25.4 25.15 25.6 25.4 25.75 25.55 25.95 25.55 26.15 25.6 26.35 25.6 26.5 25.6 26.9 25.6 26.95 25.7 26.8 25.7 26.65 25.7 26.45 25.7 26.25 25.7 26.1 25.8 25.9 25.9 25.7 26.15 25.5 26.6 25.4 27.05 25.5 27.2 25.7 27.35 25.9 27.4 26.1 27.45 26.25 27.45 26.45 27.45 26.65 27.5 26.8 27.6 27.05 27.65 27.2 27.7 27.4 27.7 27.75 27.7 28.15 27.7 28.45 27.8 28.5 28.1 28.6 28.55 28.7 28.9 28.7 29.35 28.6 29.6 28.5 29.65 28.35 29.65 28.15 29.7 27.95 29.8 27.8 29.95 27.6 30.15 27.45 30.3 27.4 30.6 27.35 30.95 27.4 31.2 27.35 31.55 27.15 31.85 26.95 32.05 26.75 32.2 26.6 32.65 26.2 33.2 26.0 33.35 25.85 33.4 25.65 33.45 25.45 33.55 25.25 33.65 24.9 33.8 24.7 33.9 24.5 34.2 24.35 34.6 24.15 35.1 24.05 35.65 23.95 37.6 23.7 38.8 23.9 39.35 23.9 39.85 23.75 40.4 23.65 40.65 23.45 40.95 23.25 41.05 23.1 41.15 22.9 41.35 22.75 41.6 22.75 41.6 22.7 41.9 22.85 42.05 23.0" fill="#ffffff" fill-opacity="0.3019608" fill-rule="evenodd" stroke="none"/>
    <path d="M65.5 9.85 L66.0 9.8 66.0 9.75 66.65 10.0 67.15 10.35 67.35 10.75 67.5 11.1 67.6 11.5 67.7 11.7 68.0 11.85 68.75 12.1 69.15 12.35 69.75 12.6 70.25 13.0 70.5 13.35 70.6 13.75 70.65 14.5 70.6 15.6 70.5 16.35 70.35 16.75 70.15 17.1 69.9 17.35 69.65 17.45 69.0 17.65 68.15 17.85 68.5 18.55 69.5 19.8 70.0 20.5 70.1 21.25 70.15 22.35 70.1 23.1 70.0 23.85 69.85 24.2 69.25 25.0 68.15 26.0 67.5 26.1 66.0 26.35 65.85 26.75 65.65 27.1 65.65 27.85 65.65 29.0 65.6 29.75 65.5 30.5 65.35 30.85 65.0 31.25 64.65 31.6 64.4 31.85 58.0 32.1 57.15 31.85 56.75 31.5 56.4 31.1 55.9 30.85 54.9 31.25 54.65 31.6 54.4 31.85 54.15 31.95 53.5 32.1 52.65 31.85 52.3 31.5 52.0 31.1 51.9 30.75 51.9 30.35 51.9 30.0 51.9 29.6 51.8 29.35 51.15 28.85 50.9 28.6 50.15 28.35 49.8 28.0 49.5 27.6 49.4 27.25 49.4 26.85 49.4 26.5 45.9 26.35 45.5 26.75 45.15 27.1 44.25 27.85 43.5 28.05 41.4 28.35 41.0 28.7 40.65 29.0 40.0 29.1 39.5 29.1 38.65 28.85 38.3 28.5 38.05 28.1 37.9 27.75 37.5 27.35 37.15 27.65 36.8 28.0 36.35 28.7 35.9 29.35 35.65 29.45 35.0 29.6 33.9 29.85 33.5 30.2 33.15 30.5 32.5 30.65 31.5 30.85 31.35 31.25 31.1 31.6 30.9 31.85 30.65 31.95 30.0 32.1 29.15 31.85 28.75 31.5 28.5 31.3 27.15 30.8 26.15 30.35 25.8 30.0 25.55 29.6 25.4 29.25 25.4 28.85 25.3 28.55 25.0 28.25 24.65 28.5 24.0 28.6 23.5 28.6 22.65 28.3 22.35 28.15 21.65 27.85 21.25 27.5 20.9 27.1 20.15 26.35 19.9 26.0 19.0 26.25 18.65 26.6 18.4 26.85 18.1 26.95 17.5 27.1 16.5 27.1 15.65 26.85 15.25 26.5 15.0 26.1 14.65 26.1 14.0 26.25 13.65 26.5 13.0 26.6 12.65 26.85 12.85 27.25 13.0 27.6 13.1 28.0 13.15 28.35 13.15 28.75 13.0 29.1 12.75 29.5 12.25 29.85 11.6 30.35 11.0 31.0 11.15 31.35 11.35 31.75 11.5 32.1 11.65 33.25 11.65 34.75 11.65 35.85 11.5 37.0 11.35 37.35 11.0 37.75 10.65 38.0 7.7 38.65 5.25 39.25 4.6 39.95 3.35 41.1 2.9 41.5 2.6 41.7 2.0 41.85 0.5 41.85 -0.35 41.6 -0.6 41.25 -0.85 40.85 -0.85 40.5 -0.85 40.1 -0.85 39.75 -0.85 39.35 -0.85 39.0 -1.05 38.65 -1.35 38.25 -1.55 38.1 -2.0 38.0 -3.35 38.1 -3.5 38.2 -4.0 38.35 -5.0 38.3 -6.35 38.1 -6.75 37.75 -6.7 37.4 -6.5 37.0 -6.0 36.75 -5.0 36.6 -4.25 36.3 -4.0 36.1 -3.5 36.0 -2.65 35.75 -2.0 35.5 -1.0 35.5 -0.35 35.75 0.15 36.1 0.4 36.5 0.65 36.85 0.9 37.25 1.25 37.6 1.4 38.0 1.6 38.4 1.65 38.6 1.95 38.45 2.25 38.1 2.65 37.35 3.0 36.6 3.05 36.25 3.15 35.9 3.4 35.5 3.65 35.25 3.9 35.15 4.5 35.0 5.25 35.25 5.75 35.6 6.0 35.75 6.6 35.7 8.15 35.25 8.4 34.85 8.4 34.5 8.4 34.1 8.4 33.75 8.4 33.35 8.2 33.0 7.9 32.6 7.5 32.25 7.4 31.85 7.25 31.5 7.0 31.1 6.9 30.75 6.9 30.35 6.9 29.6 6.9 28.5 3.0 28.1 2.15 27.85 1.75 27.5 1.55 27.1 1.4 26.75 1.4 26.35 1.45 26.05 2.05 25.25 2.4 25.0 3.0 24.85 3.65 24.6 4.0 24.25 4.4 24.0 5.0 23.85 5.9 24.1 10.0 24.1 10.5 23.75 10.9 23.5 11.5 23.35 12.65 23.1 12.95 22.7 13.4 22.0 Q13.75 21.35 14.4 21.0 L15.0 20.9 16.5 20.85 17.25 21.1 17.75 21.5 18.0 21.9 18.15 22.25 18.2 22.45 18.35 22.45 18.8 22.15 18.9 21.85 18.95 21.5 19.15 21.15 19.5 20.75 19.9 20.5 20.5 20.4 21.0 20.35 21.75 20.6 22.25 21.0 22.5 21.4 22.65 21.75 22.85 22.15 23.0 22.5 23.1 22.85 23.15 23.25 23.15 23.6 23.15 24.0 23.2 24.35 23.5 24.75 24.5 24.8 26.5 24.85 27.25 25.1 27.75 25.5 28.1 25.9 28.4 26.25 28.5 26.6 28.6 27.0 28.65 27.35 29.0 27.75 30.0 27.75 30.4 27.5 31.6 27.05 33.5 26.25 33.9 25.85 34.65 25.1 35.65 24.1 35.9 24.0 36.5 23.9 38.0 23.85 38.75 24.1 39.15 24.35 39.75 24.6 42.9 24.25 43.05 23.9 43.3 23.5 43.65 23.1 47.4 22.6 47.4 22.25 47.4 21.85 47.4 21.5 47.4 21.1 47.55 20.75 47.9 20.35 48.15 20.1 48.4 20.0 49.0 19.9 50.0 19.85 50.75 20.1 51.25 20.5 51.5 20.85 51.6 21.25 51.65 21.6 51.65 22.0 51.7 22.35 52.0 22.75 52.75 23.5 53.0 23.85 53.1 24.25 53.15 24.6 53.15 25.0 53.15 25.35 53.35 25.65 Q53.75 25.95 54.25 26.1 L54.75 26.5 55.0 26.85 55.35 26.8 55.65 26.65 55.9 26.5 56.5 26.4 57.5 26.35 58.25 26.6 58.75 27.0 59.0 27.35 59.1 27.75 59.15 28.1 59.15 28.5 62.4 28.6 62.4 28.25 62.4 27.85 62.4 27.1 62.4 26.35 62.45 26.0 62.65 25.6 62.9 25.25 62.9 24.85 62.9 24.5 63.15 24.15 63.5 23.75 63.9 23.35 64.15 23.1 64.4 23.05 66.85 22.45 66.9 22.25 66.9 21.85 66.85 21.7 66.15 21.35 65.8 21.0 65.55 20.6 65.15 19.85 64.9 19.5 64.9 19.1 64.9 18.75 64.9 18.35 64.75 18.0 64.5 17.6 64.4 17.25 64.4 16.85 64.4 16.5 64.4 16.1 64.4 15.75 64.55 15.4 64.8 15.0 65.15 14.6 65.0 14.25 64.65 13.85 64.4 13.5 64.4 13.1 64.4 12.75 64.4 12.0 64.4 11.25 64.55 10.9 64.8 10.5 65.15 10.15 65.5 9.85" fill="#339999" fill-opacity="0.2" fill-rule="evenodd" stroke="none"/>
    <path d="M37.65 -0.5 L37.4 -0.9 37.25 -1.25 37.3 -1.6 37.5 -2.0 38.0 -2.1 38.25 -2.15 38.75 -1.75 38.9 -1.4 39.15 -1.0 39.65 -0.65 40.15 -0.25 41.5 0.05 42.15 0.25 Q44.3 0.5 46.5 0.25 L47.15 0.5 47.65 0.85 48.0 1.1 48.4 1.1 49.0 1.0 49.75 1.25 50.1 1.65 50.35 2.0 50.5 2.35 50.85 2.75 51.15 3.1 51.35 3.5 51.5 3.85 51.5 4.25 51.5 4.6 51.4 5.0 51.25 5.35 51.1 5.7 50.8 6.15 50.5 6.5 50.5 6.85 50.5 7.25 50.3 7.6 50.1 7.95 49.9 8.25 49.65 8.35 49.0 8.45 48.5 8.5 47.65 8.25 47.3 7.85 47.0 7.5 47.0 7.1 47.05 6.75 47.1 6.35 47.15 6.0 46.95 5.65 46.4 4.85 46.05 4.45 45.75 4.1 45.65 3.75 45.65 3.35 45.65 3.0 42.0 2.5 40.0 1.95 39.4 1.75 39.0 1.35 38.65 1.0 37.9 0.6 37.65 0.25 37.65 -0.15 37.65 -0.5" fill="#339999" fill-opacity="0.2" fill-rule="evenodd" stroke="none"/>
    <path d="M10.25 29.2 L11.0 29.25 11.9 29.5 12.35 29.9 12.75 30.25 13.55 30.95 14.75 31.75 15.1 32.15 15.4 32.5 15.55 32.9 15.5 33.25 15.35 33.6 15.0 34.0 14.5 34.35 14.15 34.6 13.5 34.7 13.0 34.75 12.1 34.55 11.75 34.5 11.75 34.85 11.7 35.25 11.65 35.6 11.5 36.0 11.25 36.35 11.2 36.75 11.15 37.1 10.85 37.5 10.5 37.85 10.15 38.1 9.5 38.2 9.0 38.25 8.15 38.0 7.75 37.75 6.9 37.85 5.65 38.65 Q4.75 39.25 4.1 40.1 L3.0 41.55 1.65 43.0 1.0 43.1 0.0 43.1 -0.85 42.85 -1.25 42.5 -1.5 42.1 -1.6 41.75 -1.6 41.35 -1.6 41.0 -1.6 40.25 -1.55 39.85 -1.6 39.5 -1.85 39.25 -2.0 39.15 -2.5 39.0 -4.35 38.6 -4.6 38.25 -4.8 37.85 -4.85 37.5 -4.8 37.15 -4.6 36.75 -4.35 36.35 -3.5 36.1 -2.75 35.85 -2.95 35.5 -3.0 35.1 -2.95 34.75 -2.85 34.4 -2.6 34.0 -2.35 33.75 -2.1 33.65 -1.5 33.5 -1.0 33.5 -0.25 33.75 2.0 33.95 Q4.7 34.25 6.25 33.25 L6.05 32.95 5.15 32.5 4.65 32.1 4.4 31.75 4.3 31.35 4.25 31.0 4.25 30.6 4.3 30.25 4.4 29.85 4.55 29.5 4.9 29.1 5.25 28.75 5.65 28.5 5.9 28.4 6.5 28.3 6.5 28.25 8.0 28.25 8.9 28.5 9.5 28.85 10.15 29.1 10.25 29.2" fill="#339999" fill-opacity="0.2" fill-rule="evenodd" stroke="none"/>
    <path d="M43.1 24.1 L44.0 24.75 44.75 25.5 45.0 25.6 48.15 25.6 48.65 25.25 48.75 24.85 48.75 24.5 48.75 24.1 48.75 23.35 48.75 23.0 48.75 22.6 48.7 22.25 48.5 21.85 48.3 21.45 48.25 21.1 48.3 20.75 48.4 20.35 48.5 20.0 48.9 19.6 49.4 19.35 50.0 19.3 50.0 19.25 50.5 19.25 51.4 19.5 51.9 19.9 52.25 20.25 52.9 21.0 53.45 21.75 53.65 22.1 53.75 22.5 53.75 22.85 53.75 23.25 53.75 23.6 53.65 24.0 53.5 24.35 53.3 24.75 53.1 25.1 52.9 25.5 52.8 25.85 52.75 26.25 52.65 26.6 52.5 27.0 52.35 27.35 52.0 27.75 51.25 28.1 50.5 28.35 49.65 28.5 48.9 28.85 48.0 29.1 44.5 29.1 43.65 28.85 43.25 28.5 42.9 28.1 42.1 27.4 41.4 26.75 40.15 26.85 40.15 27.25 40.15 27.6 40.15 28.0 40.15 28.35 40.15 28.75 40.0 29.1 39.75 29.5 39.25 29.85 38.75 30.25 38.5 30.6 38.15 30.85 37.5 30.95 36.0 31.0 35.15 30.75 34.75 30.35 34.4 30.0 34.0 29.6 33.65 29.25 33.35 29.05 32.65 28.85 32.0 29.1 31.0 29.35 30.25 29.7 29.5 30.0 28.9 29.75 28.6 29.35 28.5 29.0 28.6 28.65 28.9 28.25 29.5 27.9 30.25 27.45 31.5 26.75 31.65 26.4 31.9 26.0 32.25 25.6 32.65 25.25 36.9 24.75 37.05 24.4 37.3 24.0 37.65 23.6 38.5 23.35 41.5 23.35 43.1 24.1" fill="#339999" fill-opacity="0.2" fill-rule="evenodd" stroke="none"/>
    <path d="M71.75 8.9 L72.0 9.25 72.15 9.6 72.3 11.5 72.25 14.1 72.25 16.75 72.1 17.1 71.6 17.85 70.4 19.0 69.15 19.35 68.75 19.75 68.75 20.1 68.75 20.85 68.75 21.6 68.65 22.35 68.5 22.75 68.25 23.1 68.0 23.5 67.75 23.85 67.75 24.25 67.65 24.6 67.4 25.0 67.3 25.35 67.25 25.75 67.25 26.1 67.25 26.5 67.15 26.85 67.0 27.25 66.75 27.6 66.4 28.0 65.5 28.2 63.0 28.75 62.0 28.75 60.4 28.85 60.55 29.2 60.9 29.6 61.25 30.0 61.5 30.35 61.6 30.75 61.65 31.5 61.6 32.25 61.5 33.0 61.35 33.35 61.0 33.75 60.65 34.0 60.0 34.1 59.0 34.1 58.15 33.85 57.8 33.5 57.5 33.1 52.5 32.5 51.65 32.25 51.3 31.85 51.05 31.45 51.0 31.1 51.05 30.75 51.15 30.4 51.4 30.0 51.65 29.75 51.9 29.65 54.4 29.25 54.4 28.85 54.4 28.5 54.4 28.1 Q55.6 26.35 57.85 25.8 L61.9 25.1 62.25 24.75 63.5 23.6 64.25 22.5 64.3 22.1 64.4 21.75 64.65 21.4 65.0 21.0 65.05 20.65 64.9 20.25 64.75 19.85 64.4 19.1 64.3 18.75 64.25 18.35 64.25 18.0 64.5 17.6 64.75 17.25 65.15 17.0 66.25 16.6 68.65 15.75 68.8 14.25 68.75 12.0 68.8 9.75 68.9 9.35 69.05 9.0 69.4 8.6 69.9 8.35 70.5 8.3 70.5 8.25 71.4 8.5 71.75 8.9" fill="#339999" fill-opacity="0.2" fill-rule="evenodd" stroke="none"/>
    <path d="M14.95 -1.05 L15.5 -0.5 15.95 4.75 16.7 5.45 15.15 6.15 14.4 5.4 14.3 0.35 11.45 0.55 Q9.7 1.0 7.9 1.85 L7.75 2.35 6.95 1.9 Q9.8 -0.95 14.1 -1.15 L14.95 -1.05" fill="#333333" fill-rule="evenodd" stroke="none"/>
    <path d="M25.2 4.8 Q23.35 5.9 21.1 7.5 L20.2 7.2 19.35 5.0 Q17.55 5.9 15.75 5.3 L15.7 5.2 Q16.85 3.65 19.2 3.65 L19.95 3.7 21.2 5.7 Q22.8 3.6 24.9 4.6 L25.2 4.8" fill="#333333" fill-rule="evenodd" stroke="none"/>
    <path d="M31.2 1.45 L26.1 1.7 25.9 2.0 25.85 2.45 Q26.1 4.7 25.1 6.2 24.6 6.3 24.5 5.75 23.7 2.3 25.95 0.25 L31.05 0.5 31.2 1.45" fill="#333333" fill-rule="evenodd" stroke="none"/>
    <path d="M34.9 -3.05 Q40.85 -5.1 42.85 -0.1 43.1 0.45 42.9 1.2 L42.1 1.0 41.6 -0.85 Q38.7 -2.65 35.4 -1.55 L34.15 1.6 30.6 1.7 30.25 1.0 33.35 0.35 33.45 -0.45 34.9 -3.05" fill="#333333" fill-rule="evenodd" stroke="none"/>
    <path d="M49.05 1.5 L43.1 1.7 Q44.85 -0.1 48.6 0.1 50.05 0.15 50.85 1.35 52.95 5.85 50.2 9.65 L49.1 10.6 48.55 10.1 Q50.75 7.15 50.1 3.45 49.9 2.25 49.05 1.5" fill="#333333" fill-rule="evenodd" stroke="none"/>
    <path d="M61.3 10.45 L60.15 11.85 58.7 11.95 59.85 10.1 59.75 8.6 Q58.2 7.6 56.35 7.6 L55.05 7.75 Q55.1 8.9 54.65 9.85 53.9 11.5 52.35 12.25 L51.25 12.25 50.15 12.05 49.7 11.95 50.2 10.95 51.9 11.1 Q52.5 10.4 52.7 9.25 53.05 7.4 54.4 6.2 57.6 5.95 60.5 7.45 61.35 7.95 61.35 8.95 L61.3 10.45" fill="#333333" fill-rule="evenodd" stroke="none"/>
    <path d="M65.8 10.1 L67.25 9.95 Q71.25 12.25 70.4 16.4 L69.85 17.6 68.45 18.0 69.0 17.4 Q69.7 15.1 68.55 13.15 67.9 12.1 66.65 11.4 63.6 13.25 60.25 12.2 L59.85 11.25 60.35 10.95 64.35 11.0 65.8 10.1" fill="#333333" fill-rule="evenodd" stroke="none"/>
    <path d="M68.25 17.7 L67.6 19.1 69.25 19.7 69.55 20.45 Q68.35 21.25 66.85 20.75 L66.25 20.45 Q65.85 18.95 66.85 17.65 L67.35 17.45 68.25 17.7" fill="#333333" fill-rule="evenodd" stroke="none"/>
    <path d="M43.45 28.45 L42.55 28.65 Q40.85 28.55 39.6 27.75 L37.1 26.0 34.6 26.2 34.35 26.75 33.9 26.85 33.75 26.7 33.65 26.45 Q33.95 24.5 36.25 24.7 L37.7 24.7 Q40.2 26.95 43.4 27.6 L43.45 28.45" fill="#333333" fill-rule="evenodd" stroke="none"/>
    <path d="M49.85 22.75 L48.05 21.0 48.7 20.5 51.15 22.25 Q51.65 24.0 50.85 25.5 L49.85 26.15 46.3 25.95 44.85 27.75 44.2 27.85 45.45 25.0 49.85 24.6 49.85 22.75" fill="#333333" fill-rule="evenodd" stroke="none"/>
    <path d="M52.35 30.0 L52.4 30.95 52.8 31.35 56.55 31.2 55.6 32.85 Q52.45 33.8 51.4 31.2 50.95 30.1 50.85 28.9 L50.3 28.35 Q48.65 28.5 47.7 27.45 L47.9 26.15 48.35 25.95 48.95 26.55 50.9 27.0 Q52.45 28.15 52.35 30.0" fill="#333333" fill-rule="evenodd" stroke="none"/>
    <path d="M58.15 27.25 L58.5 27.65 61.9 26.9 61.5 28.0 59.75 28.95 58.9 29.2 57.85 29.1 57.4 28.5 56.35 31.25 54.55 31.35 55.4 30.3 55.75 29.85 Q56.25 28.7 56.1 27.55 L56.2 27.25 58.15 27.25" fill="#333333" fill-rule="evenodd" stroke="none"/>
    <path d="M70.6 21.7 Q72.15 24.75 69.15 27.45 67.85 27.65 67.75 26.6 L67.1 26.6 67.0 28.1 66.65 28.45 Q66.25 35.15 59.8 32.9 58.4 32.4 57.25 31.35 64.6 35.35 65.2 27.65 L65.6 27.1 65.6 26.15 Q66.85 24.15 68.95 25.15 L70.2 21.9 70.6 21.7" fill="#333333" fill-rule="evenodd" stroke="none"/>
    <path d="M6.8 5.15 L-0.5 5.4 Q-1.65 5.85 -2.35 6.9 L-3.0 7.75 Q-3.4 10.85 -1.15 13.25 L-0.5 14.1 Q-4.8 12.9 -4.05 8.3 -3.6 5.7 -1.25 4.2 2.9 4.0 6.75 4.95 L6.8 5.15" fill="#333333" fill-rule="evenodd" stroke="none"/>
    <path d="M-2.5 12.75 L-2.05 13.05 Q-1.6 16.2 -5.3 16.9 L-5.3 17.65 -2.25 20.65 -3.0 21.7 -6.5 18.75 -6.25 15.75 -3.4 14.6 -2.5 12.75" fill="#333333" fill-rule="evenodd" stroke="none"/>
    <path d="M-2.65 21.8 L-2.5 21.85 -2.4 25.25 -1.45 25.65 -1.35 26.75 -4.15 29.1 -4.45 29.1 -4.05 27.6 -3.0 26.65 Q-4.35 25.35 -3.75 23.45 L-2.65 21.8" fill="#333333" fill-rule="evenodd" stroke="none"/>
    <path d="M-5.3 28.75 L-4.75 29.4 Q-8.25 32.85 -6.15 37.25 L-6.5 38.25 Q-10.6 34.45 -6.9 30.2 L-6.35 29.85 -5.85 29.15 -5.3 28.75" fill="#333333" fill-rule="evenodd" stroke="none"/>
    <path d="M-3.05 37.65 L-1.9 37.9 -0.5 41.65 -1.25 42.35 -2.5 41.6 -2.85 39.7 -3.8 39.9 -5.45 39.65 -6.75 39.15 -6.0 37.65 -5.95 38.35 -3.55 38.35 -3.05 37.65" fill="#333333" fill-rule="evenodd" stroke="none"/>
    <path d="M5.55 39.7 Q4.5 45.95 -2.15 43.4 L-2.8 42.35 -2.5 40.7 -1.75 40.85 -1.6 42.15 3.4 41.95 3.95 38.2 Q6.1 37.55 7.95 39.4 7.2 40.45 5.75 39.75 L5.55 39.7" fill="#333333" fill-rule="evenodd" stroke="none"/>
    <path d="M12.6 29.35 L11.35 31.05 Q15.2 37.95 7.2 39.1 L6.3 39.15 5.7 38.65 Q9.1 38.15 11.3 35.65 L11.3 34.65 Q9.6 32.8 10.0 30.6 10.2 29.65 10.85 29.25 L10.35 28.7 10.4 27.95 11.45 27.65 12.55 28.6 12.6 29.35" fill="#333333" fill-rule="evenodd" stroke="none"/>
    <path d="M2.4 23.95 L3.45 24.35 3.2 25.45 Q6.4 24.65 9.4 25.45 9.7 25.55 10.0 25.9 6.2 27.35 2.6 27.1 L1.9 26.35 1.9 24.45 2.4 23.95" fill="#333333" fill-rule="evenodd" stroke="none"/>
    <path d="M3.0 20.35 L2.0 20.05 1.55 19.35 Q2.45 18.8 3.35 19.1 4.45 19.9 4.3 21.3 L4.0 21.7 2.95 21.25 3.0 20.35" fill="#333333" fill-rule="evenodd" stroke="none"/>
    <path d="M3.15 24.0 L3.4 23.7 4.0 23.55 4.6 23.7 4.85 24.0 4.6 24.35 4.0 24.45 3.4 24.35 3.15 24.0" fill="#333333" fill-rule="evenodd" stroke="none"/>
    <path d="M15.6 24.15 L16.1 23.95 Q16.5 24.05 16.85 24.3 L18.95 25.75 18.45 26.35 16.85 26.2 Q16.55 28.8 13.9 29.1 L11.45 29.0 10.95 28.4 11.6 27.5 14.8 27.35 15.35 26.4 14.8 25.25 14.95 24.9 15.2 24.5 15.6 24.15" fill="#333333" fill-rule="evenodd" stroke="none"/>
    <path d="M21.35 22.1 L24.0 22.55 24.3 23.15 21.55 23.75 Q21.65 25.0 20.6 25.8 L20.1 26.2 19.35 26.1 19.25 25.75 Q19.45 25.4 19.9 25.15 L20.25 23.65 21.35 22.1" fill="#333333" fill-rule="evenodd" stroke="none"/>
    <path d="M21.2 26.2 L21.4 28.45 22.85 29.2 23.3 28.85 24.1 28.75 25.3 29.45 25.7 30.6 24.9 31.35 24.15 30.4 22.7 30.5 20.55 29.65 20.45 26.25 21.2 26.2" fill="#333333" fill-rule="evenodd" stroke="none"/>
    <path d="M23.5 32.65 L23.95 30.95 24.35 30.75 25.6 31.4 24.65 32.1 25.1 32.5 28.15 33.15 28.95 33.15 Q30.85 35.65 30.75 38.95 L30.65 39.7 30.1 39.4 Q29.1 37.25 28.4 35.0 26.2 34.75 24.25 33.35 L23.5 32.65" fill="#333333" fill-rule="evenodd" stroke="none"/>
    <path d="M40.55 33.85 L36.35 33.7 36.15 33.6 39.85 32.5 39.8 28.95 40.8 28.75 Q41.45 30.7 41.1 32.7 L40.55 33.85" fill="#333333" fill-rule="evenodd" stroke="none"/>
    <path d="M42.35 22.15 L42.95 22.25 43.15 22.65 43.8 23.0 43.6 25.0 42.3 24.85 42.0 24.65 41.7 24.35 Q41.6 23.4 42.05 22.6 L42.35 22.15" fill="#333333" fill-rule="evenodd" stroke="none"/>
    <path d="M3.35 10.55 Q3.15 10.55 3.05 10.85 2.9 11.1 2.9 11.5 L3.05 12.2 3.35 12.45 3.7 12.2 3.8 11.5 3.7 10.85 3.35 10.55 M4.7 10.1 L4.7 12.7 4.0 13.45 2.1 12.95 3.5 9.7 Q3.85 9.4 4.4 9.85 L4.7 10.1" fill="#333333" fill-rule="evenodd" stroke="none"/>
    <path d="M18.4 -1.6 Q18.85 -2.05 19.5 -2.05 L20.6 -1.6 Q21.05 -1.15 21.05 -0.55 21.05 0.05 20.6 0.5 L19.5 0.95 Q18.85 0.95 18.4 0.5 17.95 0.05 17.95 -0.55 17.95 -1.15 18.4 -1.6 M18.8 -1.2 L18.7 0.1 20.15 -0.25 18.8 -1.2" fill="#333333" fill-rule="evenodd" stroke="none"/>
    <path d="M59.85 69.6 Q59.95 63.8 64.35 65.45 64.75 70.4 60.6 69.65 L59.85 69.6 M62.35 65.5 L61.65 65.6 60.9 68.55 62.55 68.7 63.25 66.1 62.35 65.5" fill="#333333" fill-rule="evenodd" stroke="none"/>
    <path d="M61.2 19.45 Q61.05 19.6 61.05 19.85 L61.2 20.25 61.6 20.4 62.0 20.25 62.15 19.85 62.0 19.45 61.6 19.3 Q61.35 19.3 61.2 19.45 M62.1 21.5 L60.3 21.4 60.4 19.15 61.6 18.25 62.85 18.75 63.15 20.2 62.1 21.5" fill="#333333" fill-rule="evenodd" stroke="none"/>
    <path d="M55.65 -0.55 Q56.6 -0.45 57.3 0.1 L57.55 0.45 57.4 3.05 54.05 2.95 Q53.6 1.25 54.6 0.15 L55.55 0.45 54.65 0.9 54.65 2.5 56.6 2.45 56.55 0.6 55.2 -0.25 55.65 -0.55" fill="#333333" fill-rule="evenodd" stroke="none"/>
    <path d="M43.45 8.1 Q43.6 7.6 44.1 7.25 49.85 6.15 50.3 11.5 L49.45 11.7 48.35 9.7 47.95 9.1 47.35 8.6 43.85 8.45 Q43.25 8.75 43.45 8.1" fill="#333333" fill-rule="evenodd" stroke="none"/>
    <path d="M25.95 27.55 L27.4 29.25 28.9 29.5 29.0 30.6 Q25.9 30.95 24.55 27.95 24.15 27.0 24.8 26.25 L25.1 26.05 25.35 26.2 25.55 26.5 25.55 26.55 25.95 27.55" fill="#333333" fill-rule="evenodd" stroke="none"/>
  </g>
</svg>
