<?xml version="1.0" encoding="UTF-8" standalone="no"?>
<svg xmlns:xlink="http://www.w3.org/1999/xlink" height="71.9px" width="80.15px" xmlns="http://www.w3.org/2000/svg">
  <g transform="matrix(1.0, 0.0, 0.0, 1.0, 9.15, 13.0)">
    <path d="M24.75 21.85 L25.85 21.85 26.3 21.95 26.5 22.15 26.7 22.35 27.1 22.7 27.4 23.1 27.5 23.15 27.85 23.3 28.3 23.4 28.6 23.6 28.7 23.75 28.95 24.1 29.45 24.7 30.05 25.25 30.2 25.3 30.6 25.3 30.85 25.25 31.3 25.4 31.6 25.45 31.7 25.35 31.85 25.15 31.95 24.95 32.05 24.75 32.1 24.6 32.15 24.4 32.3 24.2 32.4 24.0 32.7 23.85 33.1 23.65 33.6 23.5 33.85 23.5 34.2 23.45 34.35 23.4 34.4 23.2 34.6 23.05 Q34.7 22.9 34.85 22.85 L35.35 22.7 35.85 22.85 36.1 23.0 36.2 23.2 36.3 23.4 36.35 23.6 36.4 23.75 36.4 23.95 36.4 24.15 36.45 24.2 36.6 24.1 36.7 23.9 36.9 23.7 37.1 23.55 37.35 23.35 37.85 23.2 38.35 23.35 38.6 23.5 38.7 23.7 38.8 23.9 38.9 24.1 38.9 24.65 38.9 25.95 38.9 27.1 38.85 28.4 38.8 28.95 38.75 29.15 38.9 29.35 39.0 29.5 39.1 29.7 39.15 29.9 39.15 30.1 39.15 30.45 39.15 30.85 39.15 31.4 39.15 31.6 39.15 31.75 39.05 31.95 38.95 32.15 38.85 32.35 38.75 32.55 38.65 32.7 38.45 32.9 38.25 33.05 38.1 33.2 37.95 33.25 37.45 33.4 37.2 33.5 36.85 33.6 34.9 33.9 34.85 34.1 34.7 34.25 34.65 34.45 34.65 34.65 34.65 34.85 34.6 35.0 34.55 35.2 34.45 35.4 34.4 35.6 34.4 35.75 34.4 35.95 34.4 36.15 34.4 36.35 34.4 36.5 34.4 36.7 34.35 36.9 34.2 37.1 34.15 37.25 34.15 37.45 34.15 37.65 34.1 37.85 34.0 38.05 33.9 38.2 33.7 38.4 33.55 38.6 33.35 38.75 32.9 39.15 32.9 39.35 32.9 39.5 32.9 39.7 32.9 39.9 32.85 40.1 32.75 40.3 32.65 40.45 32.45 40.65 32.25 40.85 32.1 40.95 31.95 41.0 31.6 41.1 31.1 40.95 30.85 40.75 30.65 40.55 30.6 40.4 30.55 40.2 30.55 40.0 30.55 39.85 30.55 39.65 30.55 39.45 30.55 39.25 30.6 39.1 30.7 38.9 30.7 38.7 30.65 38.55 30.55 38.35 30.55 37.75 30.55 36.45 30.55 35.15 30.55 33.85 30.55 33.15 30.5 33.1 30.1 33.0 29.6 32.9 29.35 32.7 29.25 32.5 29.15 32.35 29.1 32.15 29.1 31.95 29.1 31.75 29.1 31.4 29.1 31.0 29.1 30.9 29.1 30.85 26.85 30.65 26.6 30.45 26.35 30.3 25.95 30.1 25.8 29.9 25.6 29.7 25.3 29.5 25.1 29.35 24.85 29.15 24.65 28.95 24.45 28.75 24.4 28.6 24.25 28.4 24.2 28.2 24.1 27.85 23.9 27.25 23.7 26.7 23.6 26.35 23.6 26.15 23.6 25.6 23.6 24.65 23.55 24.1 23.65 23.15 23.7 22.95 23.85 22.75 23.85 22.6 23.9 22.4 24.05 22.2 24.2 22.0 24.45 21.9 24.75 21.85" fill="#ffffff" fill-opacity="0.3019608" fill-rule="evenodd" stroke="none"/>
    <path d="M31.1 24.3 L31.85 23.5 32.15 22.95 32.35 22.75 32.5 22.6 32.85 22.2 33.05 22.0 33.3 21.9 33.6 21.85 34.05 21.95 34.3 22.15 34.4 22.35 34.45 22.5 34.55 22.7 34.55 22.9 34.6 23.1 34.3 23.85 33.4 24.95 32.9 25.7 33.1 25.75 33.55 25.9 33.85 26.1 34.05 26.25 34.15 26.35 34.2 26.2 34.35 26.0 34.4 25.85 34.7 25.45 34.95 25.35 35.35 25.3 36.1 25.25 36.55 25.4 36.85 25.6 37.2 26.0 37.7 26.7 38.1 27.25 38.15 27.35 38.55 27.5 38.7 27.7 38.85 27.9 38.9 28.1 38.95 28.25 38.9 28.45 38.85 28.65 38.7 28.85 38.6 29.0 38.6 29.6 38.6 30.55 38.55 31.25 38.55 31.65 38.45 31.85 38.35 32.0 38.2 32.2 37.85 32.4 37.65 32.6 37.5 32.75 37.35 32.95 37.05 33.15 36.45 33.35 36.2 33.45 35.65 33.6 35.45 33.75 35.35 33.9 35.2 33.95 34.85 34.0 34.35 33.9 34.1 33.7 34.0 33.5 33.9 33.35 33.85 33.15 33.85 32.6 33.85 32.0 33.85 31.45 33.8 31.25 33.7 30.9 33.6 30.5 33.45 30.15 33.4 30.25 33.35 30.45 33.3 30.65 33.2 30.85 33.1 31.0 32.85 31.2 32.35 31.35 31.9 31.25 31.8 31.45 31.65 31.65 31.55 31.85 31.35 31.95 31.2 32.0 30.85 32.05 30.6 32.1 30.1 31.95 29.85 31.75 29.65 31.6 29.35 31.2 29.3 31.0 29.3 30.85 29.3 30.65 29.2 30.45 29.1 30.25 29.05 30.15 28.85 30.1 28.35 29.95 28.1 29.75 27.9 29.55 27.85 29.4 27.8 29.0 27.8 28.25 27.8 27.5 27.8 27.15 27.8 26.95 27.9 26.75 28.05 26.6 28.2 26.4 28.45 26.25 28.95 26.15 29.2 26.0 29.6 25.95 30.1 26.1 30.35 26.3 30.45 26.4 30.5 26.35 30.55 26.15 30.55 25.95 30.55 25.75 30.6 25.6 30.7 25.4 30.75 25.2 30.8 25.0 30.8 24.85 30.85 24.65 31.1 24.3" fill="#ffffff" fill-opacity="0.3019608" fill-rule="evenodd" stroke="none"/>
    <path d="M1.35 41.5 L1.4 41.7 1.5 41.9 1.5 42.65 1.5 43.6 1.5 44.5 1.5 44.7 1.45 44.9 1.4 45.1 1.35 45.25 1.2 45.65 1.05 45.85 0.9 46.0 0.7 46.2 0.65 46.4 0.6 46.6 0.5 46.75 0.45 46.95 0.4 47.0 0.7 47.2 0.95 47.4 1.05 47.6 1.15 47.75 4.0 47.75 4.5 47.9 5.45 48.15 5.7 48.35 5.85 48.5 5.95 48.7 6.0 48.9 6.0 49.1 6.0 49.25 6.1 49.45 6.15 49.65 6.2 49.85 6.25 50.05 6.25 50.2 6.25 50.6 6.25 50.95 6.2 51.35 6.15 51.5 6.0 51.7 5.85 51.9 5.65 52.05 5.25 52.05 4.65 52.15 4.5 52.2 4.4 52.25 4.1 52.4 4.2 52.6 4.3 52.75 4.4 52.95 4.45 53.15 4.5 53.35 4.6 53.55 4.6 53.9 4.6 54.45 4.55 55.0 4.5 55.2 4.45 55.4 4.35 55.6 4.2 55.8 4.1 55.95 3.8 56.15 3.45 56.35 3.25 56.45 -1.0 56.6 -1.5 56.45 -1.85 56.25 -2.15 56.1 -2.35 55.9 -2.55 55.7 -2.65 55.55 -2.7 55.15 -2.75 54.6 -2.75 54.05 -2.75 53.65 -2.75 53.45 -2.85 53.3 -3.15 52.9 -3.3 52.7 -3.35 52.5 -3.35 52.35 -3.35 52.15 -3.35 51.95 -4.05 50.8 -5.05 49.6 -5.35 48.95 -5.35 48.75 -5.35 48.6 -5.3 48.4 -5.15 48.2 -4.9 48.0 -4.5 47.9 -3.9 47.85 -3.7 47.7 -3.4 47.5 -2.85 47.35 -2.6 47.15 -2.35 46.95 -2.15 46.75 -2.1 46.6 -2.1 46.4 -2.1 46.2 -2.1 46.0 -2.15 45.85 -2.4 45.45 -2.65 45.1 -2.75 44.9 -2.8 44.35 -2.8 43.6 -2.75 42.85 -2.75 42.65 -2.65 42.45 -2.55 42.25 -2.55 42.1 -2.45 41.9 -2.3 41.7 -2.1 41.5 -1.9 41.35 -1.5 41.2 -0.5 41.2 -0.3 41.1 -0.25 40.95 -0.2 40.8 -0.1 40.6 0.1 40.4 0.5 40.3 0.5 40.25 0.9 40.4 1.05 40.6 1.2 40.75 1.25 40.95 1.25 41.15 1.3 41.35 1.35 41.5" fill="#ffffff" fill-rule="evenodd" stroke="none"/>
    <path d="M62.35 53.35 L62.7 53.45 62.9 53.65 63.05 53.85 63.1 54.2 63.1 54.8 63.1 55.35 63.05 56.1 63.1 56.15 64.6 56.3 64.95 56.4 65.2 56.6 65.35 56.8 65.4 56.95 65.4 57.15 65.35 57.35 65.3 57.55 65.1 57.7 64.9 57.85 62.85 57.9 62.4 57.8 62.2 57.6 62.05 57.4 61.65 57.2 61.45 57.05 61.3 56.85 61.15 56.65 61.1 56.45 61.05 56.4 60.8 56.2 60.6 56.05 60.6 55.85 60.6 55.65 60.65 55.45 60.65 55.3 60.7 55.1 60.65 54.9 60.55 54.7 60.4 54.55 60.4 54.35 60.35 54.15 60.25 53.95 60.15 53.8 60.15 53.6 60.2 53.4 60.3 53.2 60.4 53.05 60.85 52.95 60.85 52.9 61.3 53.05 61.6 53.2 61.75 53.3 62.1 53.35 62.35 53.35" fill="#ffffff" fill-rule="evenodd" stroke="none"/>
    <path d="M66.0 17.0 L66.0 17.35 66.0 17.75 66.0 18.5 65.85 18.85 65.7 19.25 65.65 19.6 65.25 20.0 64.65 20.0 63.9 19.6 63.65 19.25 63.55 18.85 63.5 18.5 63.5 18.1 63.5 17.35 63.7 17.0 64.0 16.6 64.4 16.25 65.0 16.05 65.0 16.0 65.65 16.25 65.9 16.6 66.0 17.0" fill="#ffffff" fill-rule="evenodd" stroke="none"/>
    <path d="M56.65 27.75 L56.85 28.15 57.0 28.5 57.1 28.85 57.15 29.25 57.15 29.6 57.15 30.0 57.3 30.35 57.5 30.75 57.65 31.0 58.0 31.0 59.5 31.05 60.25 31.1 60.45 30.95 60.55 30.6 60.65 30.25 60.85 29.85 61.0 29.5 61.05 29.1 61.2 28.8 61.9 28.0 62.15 27.75 62.4 27.65 65.0 27.5 65.75 27.75 66.25 28.15 66.65 28.5 66.8 28.85 67.0 29.25 67.15 29.6 67.65 30.0 67.8 30.35 68.0 30.75 68.0 31.1 68.0 31.5 68.0 31.85 68.0 32.25 68.2 32.55 68.6 33.0 69.2 33.75 69.4 34.1 69.5 34.85 69.5 35.6 69.5 36.75 69.5 37.1 69.35 37.5 69.1 37.85 68.75 38.25 68.0 38.5 67.5 38.75 67.5 39.1 67.5 39.5 67.5 40.25 67.5 41.0 67.4 41.35 67.25 41.75 67.0 42.1 66.65 42.35 66.05 42.65 65.65 42.85 65.0 42.95 64.0 43.0 63.15 42.75 62.75 42.35 62.4 42.0 62.15 41.6 62.0 41.25 61.5 41.0 59.5 41.1 59.15 41.5 58.75 41.85 58.25 42.25 57.5 42.5 56.65 42.25 56.3 41.85 56.0 41.5 56.0 41.1 56.0 40.75 56.0 40.35 56.05 40.0 56.15 39.6 56.1 39.25 55.9 38.85 55.65 38.5 55.55 38.25 Q55.1 38.0 54.5 37.85 L53.65 37.6 53.4 37.25 53.15 36.85 53.15 36.5 53.15 36.1 53.15 35.75 53.15 35.35 53.2 35.0 53.4 34.6 53.75 34.35 53.9 34.25 54.5 34.0 54.6 33.6 54.65 33.25 54.75 32.85 54.9 32.5 54.8 32.1 54.75 31.75 54.6 31.4 54.25 31.0 54.25 30.6 54.25 30.25 54.3 29.5 54.35 28.75 54.4 28.35 54.55 28.0 54.75 27.6 55.5 27.45 55.5 27.35 56.0 27.5 56.65 27.75" fill="#ffffff" fill-rule="evenodd" stroke="none"/>
    <path d="M12.65 -0.4 L12.9 -0.5 13.5 -0.75 13.9 -1.15 13.95 -1.5 14.3 -2.3 15.05 -3.45 Q15.65 -4.05 16.5 -4.25 L16.9 -4.65 17.15 -4.9 17.4 -4.95 21.0 -5.15 21.75 -4.9 22.25 -4.5 22.5 -4.15 22.6 -3.75 22.65 -3.0 22.65 -1.9 22.65 -0.75 22.65 -0.4 22.8 -0.05 23.0 0.35 23.2 0.65 23.75 0.85 24.0 0.6 24.25 0.25 24.35 -0.15 24.4 -0.5 24.6 -0.9 25.05 -1.6 26.0 -2.8 26.65 -3.4 26.9 -3.5 27.5 -3.65 28.15 -3.9 28.5 -4.25 28.9 -4.5 29.5 -4.6 32.15 -4.9 32.5 -5.25 32.9 -5.5 33.5 -5.8 33.9 -6.0 34.5 -6.15 35.15 -6.4 36.0 -6.8 36.4 -7.0 37.0 -7.1 37.0 -7.15 40.5 -7.15 41.25 -6.9 41.75 -6.5 42.1 -6.15 42.35 -5.75 42.5 -5.4 42.6 -5.0 42.65 -4.65 42.65 -4.25 42.65 -3.9 42.8 -3.55 43.15 -3.15 43.55 -2.8 43.9 -2.6 44.25 -2.65 44.35 -3.0 44.4 -3.4 44.5 -3.75 44.9 -4.15 45.25 -4.5 45.65 -4.9 46.5 -5.15 50.0 -5.15 50.75 -4.9 51.25 -4.5 51.5 -4.15 51.6 -3.75 51.65 -3.4 51.65 -3.0 51.7 -2.65 51.85 -2.25 52.05 -1.9 52.3 -1.55 52.5 -1.25 52.55 -1.2 53.25 -0.9 53.65 -0.65 54.25 -0.4 54.75 0.0 55.0 0.35 55.15 0.75 55.2 0.95 57.5 1.35 58.25 1.6 58.75 2.0 59.0 2.25 59.15 2.35 59.75 2.6 60.25 3.0 60.5 3.35 60.6 3.75 60.65 4.1 60.65 4.5 60.6 5.25 60.5 6.0 60.35 6.35 60.0 6.7 59.65 7.0 59.0 7.15 58.4 7.35 58.0 7.7 57.65 8.0 56.75 8.25 56.65 8.6 56.65 9.0 56.65 9.75 56.65 10.5 56.65 11.25 56.6 11.45 58.0 11.8 58.9 12.0 59.25 12.4 59.5 12.75 59.65 13.1 59.75 13.5 59.75 13.85 59.75 14.25 59.65 15.0 59.65 15.75 59.5 16.1 59.25 16.5 58.75 16.85 58.0 17.05 56.0 17.35 55.85 17.75 55.6 18.1 54.9 18.85 53.75 20.0 53.7 20.35 53.65 21.1 53.65 22.25 53.65 23.35 53.65 23.75 53.5 24.1 53.25 24.5 52.9 24.85 52.15 25.6 51.9 25.85 51.65 25.95 51.0 26.1 50.5 26.1 49.75 26.0 49.25 26.35 48.5 26.6 46.0 26.6 45.15 26.35 44.8 26.0 44.55 25.6 44.4 25.25 44.15 25.15 43.4 25.4 42.75 25.75 42.5 26.1 41.85 26.85 40.75 27.95 40.25 28.35 39.5 28.6 38.65 28.35 38.15 28.5 37.5 28.6 37.0 28.6 36.15 28.35 35.75 28.0 35.4 27.6 35.15 27.25 35.05 26.85 35.0 26.5 35.0 26.1 34.9 26.05 34.65 26.1 34.0 26.25 33.0 26.5 32.6 26.85 32.25 27.1 32.1 27.2 31.5 27.3 30.0 27.35 29.15 27.1 28.9 26.75 28.65 26.35 28.65 26.0 28.65 25.6 28.65 25.25 28.65 24.85 28.75 24.1 28.6 23.9 26.5 23.75 25.65 23.5 22.5 22.75 21.4 22.5 21.15 22.5 20.4 22.75 20.15 23.1 20.0 23.5 19.9 23.85 19.5 24.25 19.15 24.6 18.4 25.35 17.4 26.35 17.1 26.45 16.5 26.55 14.25 26.5 14.25 26.85 14.25 27.25 14.2 27.6 14.15 28.0 14.0 28.35 13.75 28.75 13.4 29.0 13.1 29.1 12.5 29.25 11.65 29.3 11.5 29.5 11.35 29.85 11.0 30.25 10.65 30.6 10.65 31.0 10.65 31.35 10.65 31.75 10.6 32.1 10.5 32.85 10.35 33.25 10.1 33.6 9.9 33.85 9.6 33.95 9.0 34.05 7.0 34.1 6.15 33.85 5.75 33.5 5.5 33.35 4.5 33.35 4.25 33.75 3.9 34.1 3.5 34.5 3.0 34.85 2.75 35.25 2.25 35.65 1.9 36.0 1.25 36.35 0.5 36.6 -0.35 36.35 -1.85 35.85 -2.9 35.35 -3.25 35.0 -3.5 34.6 -3.6 34.25 -3.65 33.85 -3.65 33.1 -3.65 32.35 -3.75 31.6 -3.9 31.4 -4.0 31.3 -4.5 31.1 -5.4 30.85 -5.75 30.5 -6.0 30.1 -6.1 29.75 -6.15 29.35 -6.15 29.0 -6.15 28.6 -6.2 28.25 -6.4 27.85 -6.65 27.5 -6.65 27.1 -6.65 26.75 -6.65 26.0 -6.65 24.85 -6.65 24.25 -6.65 24.15 -7.4 23.85 -7.75 23.5 -8.0 23.1 -8.15 22.75 -8.15 22.35 -8.05 22.0 -7.85 21.65 -7.5 21.25 -7.15 21.0 -6.5 20.9 -4.4 20.6 -3.5 20.2 -3.15 20.0 -2.25 19.75 -2.15 19.35 -2.15 19.0 -2.15 18.6 -2.15 18.25 -2.0 17.9 -1.75 17.5 -1.4 17.1 -0.65 16.35 -0.4 16.1 -0.1 16.0 0.5 15.9 2.5 15.85 3.25 16.1 3.75 16.5 4.0 16.85 4.35 16.9 5.0 16.7 5.4 16.5 6.0 16.4 7.9 16.1 7.9 15.75 7.9 15.35 7.9 14.6 7.9 13.85 7.9 13.1 8.0 12.75 8.4 12.0 9.2 10.85 9.9 9.35 9.85 9.0 9.75 8.6 9.5 8.25 9.3 8.0 8.0 7.6 7.15 7.35 6.75 6.95 6.5 6.6 6.4 6.25 6.4 5.85 6.4 5.5 6.4 5.1 6.4 4.75 6.55 4.35 6.75 4.0 7.15 3.6 8.0 3.25 8.4 2.85 8.65 2.6 8.9 2.5 9.5 2.4 11.25 2.25 11.4 2.1 11.4 1.75 11.55 1.35 11.75 1.0 11.9 0.6 12.0 0.25 12.4 -0.15 12.65 -0.4 M0.5 26.25 L0.45 26.15 0.4 26.05 0.4 25.95 0.3 25.85 0.25 25.75 0.15 25.65 0.05 25.55 -0.1 25.5 -0.2 25.4 -0.3 25.3 -0.45 25.2 -0.6 25.1 -0.8 25.05 -1.0 25.0 -1.2 25.05 -1.4 25.1 -1.6 25.2 -1.75 25.4 -1.95 25.55 -2.1 25.75 -2.15 25.85 -2.2 25.95 -2.2 26.05 -2.25 26.4 -2.25 26.7 -2.25 27.0 -2.25 27.15 -2.2 27.25 -2.2 27.35 -2.15 27.45 -2.1 27.55 -2.0 27.65 -1.95 27.75 -1.85 27.8 -1.65 27.9 -1.45 27.95 -1.25 28.0 -1.05 27.95 -0.85 27.9 -0.7 27.8 -0.55 27.7 -0.45 27.65 -0.3 27.55 -0.1 27.45 0.0 27.35 0.15 27.15 0.25 27.05 0.3 27.0 0.4 26.9 0.4 26.8 0.45 26.7 0.5 26.6 0.5 26.5 0.5 26.4 0.5 26.3 0.5 26.25 M48.45 1.25 L48.2 1.2 48.0 1.15 47.75 1.15 47.6 1.2 47.45 1.2 47.3 1.3 47.15 1.4 47.05 1.45 46.95 1.55 46.9 1.65 46.85 1.75 46.8 1.85 46.8 1.95 46.8 2.05 46.75 2.15 46.75 2.2 46.75 2.3 46.8 2.4 46.85 2.5 46.85 2.6 46.95 2.7 47.0 2.8 47.1 2.9 47.2 2.95 47.6 3.1 48.0 3.15 48.35 3.1 48.5 3.05 48.65 2.95 48.75 2.85 48.8 2.75 48.85 2.65 48.95 2.55 48.95 2.45 49.0 2.4 49.0 2.3 49.0 2.2 49.0 2.1 49.0 2.0 49.0 1.9 48.95 1.8 48.85 1.65 48.8 1.55 48.7 1.45 48.6 1.35 48.45 1.25" fill="#ffffff" fill-rule="evenodd" stroke="none"/>
    <path d="M2.7 8.6 L2.8 8.7 2.85 8.75 2.9 8.85 2.95 8.95 2.95 9.05 2.95 9.15 3.0 9.25 3.0 9.4 3.05 9.8 3.05 10.25 3.0 10.35 3.0 10.45 2.9 10.55 2.85 10.65 2.6 10.7 2.5 10.7 2.25 10.75 2.2 10.85 2.15 10.9 2.1 11.0 1.95 11.1 1.75 11.15 1.35 11.15 1.15 11.1 1.05 11.0 1.0 10.9 0.95 10.85 0.85 10.8 0.65 10.75 0.5 10.65 0.45 10.55 0.35 10.45 0.35 10.35 0.35 10.15 0.35 9.9 0.35 9.5 0.35 9.35 0.35 9.25 0.4 9.15 0.45 9.05 0.65 8.85 0.75 8.75 0.9 8.65 1.1 8.6 1.2 8.5 1.3 8.4 1.5 8.35 2.25 8.35 2.5 8.4 2.6 8.5 2.7 8.6" fill="#ffffff" fill-rule="evenodd" stroke="none"/>
    <path d="M44.65 -11.65 L44.9 -11.35 44.95 -11.25 44.95 -11.1 44.95 -10.9 44.95 -10.6 44.9 -10.25 44.9 -10.15 44.85 -10.05 44.8 -9.95 44.7 -9.85 44.55 -9.75 44.45 -9.7 44.25 -9.6 44.1 -9.5 44.05 -9.5 43.85 -9.45 43.65 -9.4 43.55 -9.3 43.35 -9.3 43.05 -9.25 42.8 -9.35 42.7 -9.45 42.65 -9.5 42.65 -9.6 42.65 -9.7 42.7 -9.8 42.65 -9.9 42.55 -10.0 42.45 -10.1 42.45 -10.2 42.4 -10.25 42.35 -10.35 42.35 -10.55 42.35 -10.75 42.35 -11.0 42.4 -11.4 42.4 -11.5 42.45 -11.6 42.5 -11.7 42.6 -11.75 42.7 -11.85 42.85 -11.95 42.95 -12.0 43.1 -12.05 43.8 -12.05 43.8 -12.1 44.0 -12.0 44.35 -11.85 44.65 -11.65" fill="#ffffff" fill-rule="evenodd" stroke="none"/>
    <path d="M54.15 -4.5 L54.75 -4.25 55.1 -3.9 55.35 -3.5 55.5 -3.15 55.45 -2.8 55.3 -2.35 55.25 -2.0 55.25 -1.65 55.35 -1.3 55.65 -0.9 56.9 -0.5 57.4 -0.1 57.75 0.25 58.0 0.5 58.15 0.55 60.5 0.75 61.4 1.0 61.75 1.4 62.0 1.75 62.15 2.1 62.25 2.85 62.25 4.0 62.25 5.1 62.15 5.85 62.0 6.2 61.75 6.6 61.65 7.0 61.5 7.35 61.25 7.7 60.9 8.1 60.4 8.5 59.5 8.75 58.25 8.75 57.85 9.15 57.75 9.5 57.75 9.85 57.8 10.0 59.9 10.5 60.25 10.9 60.5 11.25 60.65 11.6 60.75 12.0 60.75 12.35 60.75 13.1 60.75 13.85 60.75 14.25 60.6 14.6 60.4 15.0 60.1 15.35 59.75 15.75 59.6 16.1 59.35 16.45 59.0 16.85 58.25 17.25 57.9 17.6 57.4 18.0 56.5 18.2 55.25 18.5 55.25 19.25 55.25 20.35 55.25 21.5 55.25 22.25 55.1 22.6 54.7 23.4 54.0 24.5 53.65 24.85 53.5 25.25 53.25 25.6 53.0 26.0 52.5 26.35 52.15 26.6 51.5 26.7 49.0 26.75 48.15 26.45 47.4 26.1 46.9 25.85 45.0 26.0 44.5 26.35 44.0 26.75 43.75 27.1 43.65 27.5 43.5 27.85 43.25 28.25 42.9 28.65 42.65 29.0 42.25 29.75 41.9 30.0 41.65 30.05 38.75 30.25 38.75 30.6 38.75 31.0 38.75 31.35 38.7 32.1 38.65 32.5 38.5 32.85 38.25 33.25 37.9 33.5 37.65 33.6 36.65 33.85 35.9 34.25 35.4 34.6 34.9 35.0 34.0 35.25 33.5 35.25 32.65 35.0 32.15 34.6 31.9 34.25 31.75 33.85 31.75 33.5 31.8 33.1 31.9 32.75 32.15 32.5 32.15 32.45 29.5 32.25 28.65 32.0 28.15 31.6 27.9 31.25 27.75 30.9 27.5 30.5 26.9 29.75 26.8 29.35 26.75 29.0 26.75 28.6 26.7 28.3 26.4 27.85 26.0 27.5 25.4 27.1 24.8 26.7 24.5 26.5 24.35 26.4 23.5 26.2 22.65 26.0 22.0 25.6 21.3 26.3 19.65 27.4 19.15 27.6 18.5 27.7 18.0 27.75 17.15 27.5 16.65 27.5 16.5 27.85 16.25 28.25 15.9 28.5 15.6 28.6 15.0 28.75 14.15 28.5 12.2 28.7 12.25 28.85 12.3 29.2 12.5 29.6 12.65 30.0 12.75 30.35 13.0 30.75 13.15 31.1 13.25 31.5 13.25 31.85 13.25 32.6 13.25 33.35 13.25 33.75 13.15 34.1 13.0 34.5 12.85 34.85 12.5 35.25 12.15 35.5 8.0 35.6 7.15 35.35 4.4 35.35 4.0 35.75 3.65 36.1 3.4 36.35 3.1 36.5 2.25 36.75 2.0 37.1 1.65 37.5 1.0 37.75 0.15 38.0 -0.5 38.25 -1.0 38.25 -1.75 38.0 -2.1 37.6 -2.25 37.25 -2.3 36.9 -2.45 36.5 -2.5 36.1 Q-2.55 35.5 -2.15 35.0 L-0.3 33.05 0.9 32.1 1.5 32.0 2.25 32.1 2.6 32.1 3.5 31.9 5.25 31.6 5.4 31.25 5.65 30.85 6.15 30.5 6.9 30.1 7.15 29.75 7.35 29.35 7.55 29.0 7.75 28.6 7.75 28.25 7.75 27.85 7.75 27.5 7.75 26.75 7.75 26.35 7.8 26.0 8.0 25.6 8.25 25.25 8.65 25.0 9.5 24.75 12.25 24.1 12.4 23.75 12.65 23.35 13.15 23.0 14.0 22.75 16.0 22.75 16.9 23.0 17.5 23.35 18.25 23.75 18.75 23.75 19.1 23.35 19.25 23.0 19.3 22.6 19.4 22.25 19.65 21.85 20.15 21.5 21.0 21.25 22.0 21.25 22.9 21.5 23.35 21.9 23.75 22.25 24.15 22.6 26.1 23.4 27.9 24.0 28.25 24.35 28.75 24.75 29.2 24.65 29.4 24.35 29.55 24.0 29.9 23.6 30.3 23.25 30.65 23.0 30.9 22.9 31.5 22.75 32.4 23.0 32.75 23.4 33.0 23.75 33.15 24.1 33.65 24.85 33.8 24.8 34.05 24.5 34.45 23.75 35.0 23.0 35.4 22.6 35.9 22.35 36.5 22.25 37.4 22.5 37.7 22.9 38.2 23.6 38.95 24.75 39.15 25.1 39.25 25.5 39.25 25.85 39.25 26.25 39.65 26.5 40.05 26.3 40.25 26.0 40.3 25.6 40.4 25.25 40.8 24.5 41.25 23.75 41.65 23.5 41.9 23.35 42.5 23.1 42.75 22.75 43.15 22.5 44.0 22.35 47.5 22.25 48.4 22.5 49.05 22.85 49.65 23.1 50.5 23.0 50.85 22.6 51.15 22.25 51.25 21.85 51.25 21.5 51.5 21.1 51.65 20.75 51.8 19.6 51.75 18.1 51.8 16.6 51.9 15.85 52.05 15.5 52.4 15.1 52.9 14.85 53.5 14.75 56.0 14.5 56.4 14.1 56.5 14.0 Q56.35 13.8 56.0 13.7 L55.15 13.5 54.65 13.1 54.4 12.75 54.3 12.35 54.25 12.0 54.25 11.25 54.25 10.5 54.25 10.1 54.15 10.0 Q53.95 10.05 53.75 10.25 L53.1 11.05 52.65 11.75 52.25 12.1 51.9 12.5 51.25 12.85 51.1 13.2 50.75 13.6 50.4 14.0 49.5 14.25 48.65 14.0 48.15 13.6 47.9 13.25 47.8 12.85 47.75 12.5 47.75 12.1 47.75 11.35 47.75 11.0 48.1 10.25 48.95 8.65 50.25 7.25 50.9 6.85 51.5 6.5 51.9 6.1 52.5 5.75 52.85 5.35 53.05 5.0 53.4 4.6 54.15 4.0 54.4 3.9 55.0 3.75 55.5 3.5 55.35 3.1 55.15 2.75 53.65 1.95 Q52.95 1.5 52.4 0.85 L51.9 0.1 51.8 -0.65 51.75 -1.4 51.8 -2.5 51.9 -3.25 52.05 -3.65 52.3 -4.0 52.65 -4.4 53.5 -4.55 53.5 -4.65 54.15 -4.5" fill="#339999" fill-opacity="0.2" fill-rule="evenodd" stroke="none"/>
    <path d="M56.05 36.8 L56.5 36.6 57.15 36.85 57.65 37.25 57.9 37.6 58.0 38.0 58.0 38.35 58.25 38.75 58.5 39.1 58.75 39.5 59.15 39.75 61.75 39.45 61.75 39.25 61.9 38.85 62.05 38.55 62.8 37.75 63.65 37.0 64.5 36.75 65.7 36.35 65.75 36.1 65.8 35.75 65.9 35.35 66.0 35.0 66.2 34.6 66.25 34.25 66.2 33.9 66.05 33.5 65.6 32.8 64.9 31.6 64.8 31.25 64.75 30.85 64.75 30.5 64.5 30.3 Q64.1 30.1 63.65 30.0 L63.15 29.6 62.9 29.25 62.75 28.85 62.75 28.5 62.8 28.1 62.9 27.75 63.15 27.35 63.65 27.0 64.5 26.8 64.5 26.75 67.0 26.75 67.9 27.0 68.25 27.4 68.5 27.75 68.65 28.1 68.75 28.5 68.75 28.85 68.75 29.25 68.75 30.0 68.65 30.35 68.8 30.75 69.0 31.1 69.15 31.5 69.25 31.85 69.5 32.25 69.65 32.6 69.75 33.0 69.75 33.35 69.75 33.75 70.0 34.15 70.15 34.5 70.25 34.85 70.25 35.25 70.15 35.6 69.9 36.0 69.65 36.4 69.5 36.75 69.25 37.1 69.25 37.5 69.25 37.85 69.25 38.25 69.25 38.6 69.15 39.0 69.0 39.35 68.75 39.75 68.4 40.0 68.15 40.1 67.5 40.25 65.5 40.5 65.9 40.85 66.25 41.25 66.5 41.65 66.65 42.0 66.75 42.4 66.75 42.75 66.75 43.1 66.65 43.5 66.5 43.85 66.25 44.25 65.9 44.5 65.65 44.6 65.0 44.75 64.05 44.6 63.15 44.35 62.75 44.0 62.4 43.6 62.15 43.35 62.0 43.3 60.15 43.35 59.75 43.75 59.0 44.0 58.0 44.0 57.15 43.75 56.8 43.35 56.5 43.0 56.5 42.6 56.5 42.25 56.5 41.85 56.55 41.5 56.65 41.1 56.6 40.75 56.4 40.35 56.4 40.0 56.4 39.6 56.25 39.25 56.0 38.85 55.8 38.5 55.65 38.1 55.65 37.75 55.65 37.35 55.75 37.0 56.05 36.8" fill="#339999" fill-opacity="0.2" fill-rule="evenodd" stroke="none"/>
    <path d="M2.65 42.25 L2.7 42.6 2.7 43.0 2.75 43.35 2.7 43.75 2.5 44.1 2.5 44.85 2.5 45.6 2.5 46.35 2.5 46.75 2.65 47.1 2.85 47.5 3.0 47.85 4.15 48.95 5.15 50.1 5.4 50.5 5.45 50.9 5.5 51.25 5.5 51.6 5.55 51.75 6.0 51.75 6.05 52.1 5.85 52.5 5.5 52.85 5.45 53.25 5.4 53.6 4.95 54.35 4.35 55.1 3.65 55.75 2.9 56.05 2.65 56.25 -0.5 56.35 -1.35 56.1 -1.6 55.75 -1.85 55.35 -1.85 55.0 -1.85 54.6 -1.85 54.25 -1.85 53.85 -1.8 53.5 -1.6 53.1 -1.25 52.85 1.5 52.35 2.5 52.25 1.15 50.7 0.05 49.3 -0.5 48.5 -0.5 47.0 -0.5 45.5 -0.5 43.6 -0.35 43.25 0.0 42.85 0.65 42.5 1.5 42.25 2.15 42.25 2.5 42.25 2.65 42.25" fill="#339999" fill-opacity="0.2" fill-rule="evenodd" stroke="none"/>
    <path d="M61.4 52.0 L61.65 52.35 62.0 52.75 62.15 53.1 62.25 53.5 62.5 53.85 62.7 54.25 62.75 54.6 62.65 55.0 62.7 55.35 62.9 55.75 63.15 56.1 62.4 56.5 62.15 56.85 61.5 57.1 60.75 56.85 60.5 56.5 60.4 56.1 60.4 55.75 60.4 55.35 60.2 55.05 59.9 54.6 59.75 54.25 59.65 53.85 59.35 53.45 59.25 53.1 59.3 52.75 59.4 52.35 59.5 52.0 59.75 51.6 60.5 51.45 60.5 51.35 61.15 51.6 61.4 52.0" fill="#339999" fill-opacity="0.2" fill-rule="evenodd" stroke="none"/>
    <path d="M11.5 30.75 L12.4 31.0 12.75 31.4 13.0 31.75 13.15 32.0 13.5 32.0 14.5 32.0 15.15 32.25 15.35 32.65 15.5 33.0 15.35 33.35 15.1 33.75 14.75 34.1 14.65 34.5 14.5 34.85 14.25 35.25 13.9 35.5 13.6 35.6 13.0 35.7 11.5 35.75 8.5 35.2 7.65 35.0 7.15 34.6 6.9 34.25 6.8 33.85 6.75 33.5 6.75 33.1 6.75 32.75 6.75 32.35 6.75 32.0 6.6 31.65 6.25 31.25 6.15 31.5 6.15 31.85 6.15 32.25 6.15 32.6 6.1 33.0 6.0 33.35 5.85 33.75 5.65 34.1 5.4 34.5 5.15 34.9 5.0 35.25 4.05 35.9 2.5 36.55 0.9 36.85 0.65 37.25 0.0 37.5 -0.6 37.25 -0.95 36.85 -1.0 36.6 -1.5 36.5 -2.35 36.25 -2.75 35.85 -3.0 35.5 -3.0 35.1 -3.0 34.75 -3.0 34.35 -3.0 34.0 -3.0 33.6 -3.0 33.25 -3.0 32.85 -2.95 32.5 -2.75 32.1 -2.5 31.75 -2.25 31.35 -2.1 31.0 -2.0 30.6 -1.85 30.25 -1.5 29.85 -0.85 29.5 -0.35 29.25 -0.1 29.1 0.5 29.05 2.75 28.75 2.9 28.6 2.9 28.25 3.05 27.9 3.25 27.5 3.65 27.1 4.5 26.95 4.5 26.85 5.0 26.85 Q6.2 27.1 7.15 27.85 L8.85 29.05 Q9.8 29.6 10.4 30.5 L11.5 30.75" fill="#339999" fill-opacity="0.2" fill-rule="evenodd" stroke="none"/>
    <path d="M43.5 22.75 L45.15 22.5 45.15 22.1 45.15 21.75 45.15 21.35 45.15 21.0 45.15 20.6 Q46.25 18.95 47.85 17.55 50.65 15.05 54.4 14.5 L54.8 14.15 55.15 13.85 55.4 13.8 56.0 13.7 56.0 13.6 56.9 13.85 57.4 14.25 57.6 14.65 57.75 15.0 57.85 15.35 57.9 15.75 57.9 16.0 58.5 16.0 59.15 16.25 59.4 16.6 59.75 17.0 60.0 17.35 60.1 17.75 60.15 18.1 60.2 18.5 60.15 18.85 60.0 19.25 59.75 19.6 59.4 20.0 58.65 20.2 57.5 20.4 56.4 20.6 56.25 21.0 56.1 21.35 55.9 21.75 55.8 22.1 55.75 22.5 55.65 22.85 55.5 23.25 55.25 23.6 54.8 24.4 54.65 24.75 54.0 25.45 52.5 26.95 51.65 27.6 51.0 27.7 50.0 27.75 49.15 27.45 48.65 27.25 48.25 27.6 47.9 28.0 47.0 28.25 46.05 28.05 44.9 27.6 43.9 27.1 43.4 27.0 43.15 26.95 42.4 27.0 Q42.1 27.2 41.75 27.35 L41.6 27.7 41.25 28.1 40.9 28.5 40.25 28.85 40.0 29.25 39.75 29.6 39.4 30.0 38.5 30.25 38.0 30.2 37.0 30.1 36.15 29.85 35.8 29.5 35.5 29.1 35.4 28.85 35.0 28.75 34.25 28.5 33.95 28.1 33.75 27.75 33.75 27.35 33.8 27.0 34.0 26.6 34.05 26.25 34.25 25.85 34.55 25.65 35.0 25.5 35.65 25.75 36.5 25.85 37.0 25.6 37.0 25.25 36.9 24.85 36.9 24.5 36.9 24.1 36.9 23.75 37.05 23.4 37.3 23.0 37.65 22.6 38.5 22.35 41.5 22.35 42.4 22.55 43.5 22.75" fill="#339999" fill-opacity="0.2" fill-rule="evenodd" stroke="none"/>
    <path d="M18.5 -5.0 L19.1 -4.75 19.4 -4.5 20.65 -4.4 21.0 -4.35 21.75 -4.15 22.15 -3.75 22.25 -3.4 22.4 -3.0 23.0 -2.65 23.25 -2.3 23.5 -2.0 Q26.35 -2.4 29.15 -1.9 L30.0 -1.75 30.65 -1.5 31.0 -1.15 31.3 -0.95 32.1 -0.55 32.25 -0.4 32.0 -0.3 31.15 0.0 30.9 0.35 30.5 0.6 28.5 0.95 25.4 1.35 25.0 1.75 24.65 2.1 24.5 2.5 24.4 2.85 24.0 3.2 23.65 3.5 23.0 3.6 22.5 3.6 21.65 3.35 21.3 2.95 21.0 2.6 20.9 2.25 20.9 1.85 20.9 1.5 20.9 1.1 20.65 1.2 20.0 1.35 19.0 1.1 18.5 0.75 18.25 0.35 18.2 0.0 18.05 -0.4 17.9 -0.75 17.85 -1.15 17.75 -1.5 17.5 -1.9 17.4 -2.25 17.4 -2.65 17.4 -3.0 17.15 -3.4 16.5 -3.75 16.2 -4.2 16.15 -4.5 16.2 -4.85 16.4 -5.15 16.5 -5.25 17.0 -5.3 17.0 -5.4 17.5 -5.25 17.75 -5.15 18.5 -5.0" fill="#339999" fill-opacity="0.2" fill-rule="evenodd" stroke="none"/>
    <path d="M0.5 41.0 L0.0 40.95 -0.8 41.35 -1.1 46.15 -2.55 45.7 -2.5 45.55 -2.2 44.8 -2.0 41.4 -1.05 40.3 -0.75 40.25 Q0.0 40.05 0.6 40.55 L0.55 40.9 0.5 41.0" fill="#333333" fill-rule="evenodd" stroke="none"/>
    <path d="M1.4 56.9 L1.0 57.4 Q-0.85 57.9 -2.55 56.9 L-3.45 56.15 -4.2 54.9 Q-4.85 53.45 -4.65 51.85 L-6.05 49.95 -5.8 47.35 -2.75 46.55 -2.45 46.7 Q-2.15 46.95 -2.25 47.2 L-4.9 48.4 -4.8 49.55 -3.45 50.75 -3.3 54.1 -1.95 55.2 0.3 55.65 Q1.15 55.95 1.4 56.9" fill="#333333" fill-rule="evenodd" stroke="none"/>
    <path d="M0.9 42.45 L1.05 42.15 Q1.7 41.6 2.35 41.95 3.05 43.05 2.85 44.6 L2.0 47.0 Q3.05 47.8 4.65 47.8 4.95 47.95 4.95 48.35 L4.4 49.1 Q2.05 49.4 0.6 47.8 L0.65 46.65 Q0.7 45.35 1.65 44.4 L1.75 42.9 0.9 42.45" fill="#333333" fill-rule="evenodd" stroke="none"/>
    <path d="M5.55 48.95 Q5.6 48.3 6.35 48.65 L6.6 49.05 6.45 51.1 6.3 51.35 Q5.7 51.95 5.6 52.45 6.5 53.75 6.2 55.45 L5.85 56.05 Q3.8 57.4 2.0 56.1 L2.25 55.85 4.2 55.15 Q4.65 55.05 4.85 54.55 L4.8 54.2 4.2 52.8 Q3.9 51.9 4.35 51.15 L5.4 50.65 5.4 50.3 5.55 48.95" fill="#333333" fill-rule="evenodd" stroke="none"/>
    <path d="M1.3 54.0 L1.4 53.1 Q1.4 52.1 2.35 52.4 L2.6 52.8 Q2.8 54.45 1.5 55.35 0.75 55.35 0.2 54.95 -0.7 54.35 -0.5 53.45 L0.1 54.05 1.2 54.3 1.3 54.0" fill="#333333" fill-rule="evenodd" stroke="none"/>
    <path d="M2.75 37.4 L3.4 38.1 Q2.6 39.2 1.15 39.2 -1.85 39.25 -4.15 37.4 L-4.75 35.5 -4.75 34.6 -5.55 33.45 -5.45 32.15 -5.3 31.45 -5.0 31.1 -4.6 31.75 -4.45 32.35 -4.4 33.0 -3.45 33.4 -2.65 36.6 -1.5 36.9 2.35 37.5 2.75 37.4" fill="#333333" fill-rule="evenodd" stroke="none"/>
    <path d="M-8.65 20.85 L-8.1 20.5 -4.5 20.35 -4.15 21.0 -7.5 21.65 -7.75 21.8 -7.85 22.15 -6.1 24.75 Q-5.9 25.65 -6.35 26.45 L-6.85 27.7 Q-7.15 29.9 -5.7 31.25 L-5.3 31.25 -4.65 31.45 -4.75 32.35 -6.4 32.65 Q-7.7 31.55 -8.05 29.8 -8.5 27.55 -7.5 25.35 -7.95 24.6 -8.5 24.0 L-9.1 22.9 Q-9.3 21.95 -8.85 21.0 L-8.65 20.85" fill="#333333" fill-rule="evenodd" stroke="none"/>
    <path d="M1.65 36.9 L2.05 36.0 2.6 36.7 2.8 36.6 4.15 33.85 Q4.85 33.25 5.65 33.65 6.65 34.0 7.45 34.6 L7.5 35.35 Q7.25 35.65 6.8 35.6 L5.1 35.35 4.6 36.25 Q4.2 37.5 3.25 37.9 2.0 37.9 1.65 36.9" fill="#333333" fill-rule="evenodd" stroke="none"/>
    <path d="M4.2 33.1 L4.1 34.0 3.5 34.35 1.9 34.2 1.1 33.45 1.15 32.15 2.0 33.0 3.45 32.9 4.2 33.1" fill="#333333" fill-rule="evenodd" stroke="none"/>
    <path d="M11.3 29.6 Q11.8 29.3 12.25 29.6 L13.7 31.15 13.35 31.9 Q12.7 31.8 12.85 32.7 L12.8 33.65 Q12.3 35.7 10.35 36.4 L7.8 36.15 Q6.75 35.85 7.05 35.0 L10.15 35.0 10.3 34.85 11.05 34.05 Q11.45 33.1 11.45 32.2 11.45 31.6 11.1 31.15 10.5 30.25 11.3 29.6" fill="#333333" fill-rule="evenodd" stroke="none"/>
    <path d="M3.35 18.1 L3.0 16.2 2.1 15.5 0.9 15.45 -0.8 15.85 -1.4 16.1 -1.4 17.0 -1.0 18.15 -1.25 18.6 -3.0 18.75 Q-3.6 18.9 -3.55 19.45 L-3.45 19.85 -3.5 20.05 -4.1 20.2 -4.35 18.55 -2.55 17.4 -2.25 14.95 -1.1 14.55 0.55 14.2 Q1.75 13.75 2.85 14.45 L4.4 15.75 4.35 17.85 3.35 18.1" fill="#333333" fill-rule="evenodd" stroke="none"/>
    <path d="M7.8 12.5 L7.95 12.85 Q8.6 14.05 8.2 15.25 7.8 16.35 6.9 16.7 5.8 16.55 6.0 17.5 5.65 18.4 5.0 17.7 L4.95 17.55 Q4.65 16.75 5.15 16.1 L6.6 15.4 7.6 12.25 7.8 12.5" fill="#333333" fill-rule="evenodd" stroke="none"/>
    <path d="M1.6 8.45 L0.45 9.2 0.5 10.5 2.7 10.65 2.65 9.5 1.6 8.45 M2.85 7.7 L3.8 9.05 4.0 9.75 Q4.05 11.15 3.0 12.0 0.95 12.6 -0.5 11.15 L-0.3 8.7 0.25 8.15 0.3 7.65 1.75 7.2 2.85 7.7" fill="#333333" fill-rule="evenodd" stroke="none"/>
    <path d="M12.05 11.4 L11.6 11.65 9.65 11.4 Q8.15 11.25 7.85 12.35 L8.05 13.6 6.85 13.15 6.65 11.65 Q7.25 10.9 7.95 10.5 L8.55 10.15 11.2 9.9 11.65 10.25 12.05 11.4" fill="#333333" fill-rule="evenodd" stroke="none"/>
    <path d="M11.5 2.0 L11.3 2.5 8.95 2.7 Q8.3 3.0 7.95 3.7 L7.3 5.15 Q7.0 5.95 7.35 6.85 L10.45 7.5 10.95 9.95 11.55 11.05 Q12.75 12.65 14.6 12.7 L16.15 13.0 17.15 13.35 17.35 13.65 13.6 14.35 12.8 14.0 Q10.7 13.05 9.7 11.0 L9.35 10.45 Q8.95 9.75 9.05 9.15 L6.85 8.4 5.85 7.25 Q5.65 5.8 5.95 4.6 6.5 2.75 7.95 1.95 9.5 1.0 11.4 1.65 L11.5 2.0" fill="#333333" fill-rule="evenodd" stroke="none"/>
    <path d="M14.1 -3.55 L14.7 -4.85 15.4 -5.8 19.1 -6.65 21.2 -6.55 Q22.55 -5.55 23.0 -3.9 23.5 -2.1 23.6 -0.4 L22.6 -0.8 21.8 -3.25 Q21.5 -4.5 20.6 -5.2 L16.05 -4.3 14.65 -1.15 13.65 -0.9 13.6 0.6 13.1 1.0 Q12.4 0.75 12.5 -0.05 L12.65 -2.1 13.9 -2.6 14.1 -3.55" fill="#333333" fill-rule="evenodd" stroke="none"/>
    <path d="M24.85 -0.15 L24.45 -0.65 25.3 -2.75 Q25.3 -3.35 25.45 -3.65 L26.35 -4.5 Q28.6 -5.35 30.9 -5.25 L31.2 -4.75 32.0 -4.95 32.25 -6.05 Q33.3 -7.4 35.1 -7.65 L40.55 -7.55 41.15 -6.9 Q41.95 -5.55 42.15 -4.2 L42.95 -3.3 Q43.35 -2.8 42.85 -2.45 41.1 -2.4 40.7 -4.2 L40.15 -6.15 34.85 -6.15 Q33.95 -5.85 33.55 -5.25 L33.55 -4.85 33.4 -4.25 Q33.15 -3.65 32.6 -3.4 L30.2 -3.5 29.9 -4.0 27.85 -3.8 Q26.9 -4.0 26.4 -3.3 L25.1 -0.35 24.85 -0.15" fill="#333333" fill-rule="evenodd" stroke="none"/>
    <path d="M45.75 -6.3 Q47.8 -7.2 50.1 -6.9 L51.2 -6.3 Q52.6 -5.55 52.95 -4.35 L53.05 -3.8 53.45 -1.55 53.15 -0.85 51.95 -1.6 Q52.2 -3.2 51.15 -4.55 L50.05 -5.5 46.5 -5.15 45.45 -5.1 44.65 -3.8 43.35 -3.25 43.9 -4.0 44.0 -4.7 Q44.6 -5.85 45.75 -6.3" fill="#333333" fill-rule="evenodd" stroke="none"/>
    <path d="M53.4 -0.5 L54.35 -1.0 Q55.15 -0.85 55.35 0.1 57.45 0.0 59.9 1.3 61.1 1.85 61.45 3.0 62.0 4.6 61.8 6.35 61.25 7.5 60.3 8.45 L58.85 9.35 Q58.0 9.5 57.55 8.9 L59.0 7.95 Q60.45 6.7 60.5 4.95 60.55 3.3 59.35 2.15 L54.3 1.6 54.05 0.1 53.4 -0.5" fill="#333333" fill-rule="evenodd" stroke="none"/>
    <path d="M55.55 8.4 L54.75 8.65 54.3 9.4 54.1 10.35 Q53.55 11.55 52.4 12.2 50.9 12.6 50.1 11.5 L50.35 11.25 Q50.95 10.8 51.8 10.5 52.7 10.35 52.8 9.35 52.9 8.8 53.15 8.25 L54.35 7.2 54.85 7.15 56.55 7.85 56.75 8.4 57.35 9.15 56.65 9.35 55.55 8.4" fill="#333333" fill-rule="evenodd" stroke="none"/>
    <path d="M15.45 27.4 L15.4 30.0 14.8 30.25 13.55 30.35 13.55 29.6 Q13.65 29.15 14.05 29.05 L14.55 28.7 14.6 28.15 Q14.45 26.75 15.45 27.4" fill="#333333" fill-rule="evenodd" stroke="none"/>
    <path d="M20.7 21.25 L21.85 21.0 Q22.15 21.35 21.95 22.1 L21.65 23.75 21.4 25.1 20.65 26.65 Q20.1 27.35 19.35 27.45 16.75 28.05 14.6 26.55 13.6 25.9 12.55 26.1 L11.95 26.95 Q10.4 27.4 9.25 26.25 9.1 26.0 9.3 25.55 9.65 24.9 9.8 25.5 10.45 26.25 11.4 25.65 L11.85 24.75 Q14.0 24.5 15.65 25.85 L19.55 25.6 20.15 24.85 20.7 21.25" fill="#333333" fill-rule="evenodd" stroke="none"/>
    <path d="M23.0 23.8 Q22.75 23.3 22.9 22.65 23.05 21.75 23.65 22.2 L23.95 23.5 24.1 23.65 25.35 23.9 Q26.2 24.0 26.45 23.25 L27.65 23.25 28.4 24.0 28.45 26.1 29.55 26.9 Q30.85 27.9 31.9 27.05 32.3 25.05 33.85 23.7 L34.35 23.55 Q35.15 23.15 35.4 23.85 L35.0 24.15 Q34.15 25.0 33.8 26.1 L32.8 28.35 31.7 28.85 27.3 26.85 27.15 24.9 25.15 25.15 Q23.8 25.1 23.1 24.15 L23.0 23.8" fill="#333333" fill-rule="evenodd" stroke="none"/>
    <path d="M47.0 27.1 L45.9 27.4 44.85 26.5 43.7 27.0 43.4 27.75 Q42.8 29.25 41.45 30.05 40.25 30.8 38.6 30.45 L37.15 30.05 Q35.8 29.5 35.1 28.5 L35.1 28.15 Q35.1 27.55 35.85 27.4 L36.1 27.6 36.05 28.15 Q37.25 28.95 38.6 29.1 40.0 29.45 41.1 28.5 42.25 27.5 42.5 25.95 L42.95 25.45 43.05 25.4 Q45.35 24.35 46.95 26.15 L47.0 27.1" fill="#333333" fill-rule="evenodd" stroke="none"/>
    <path d="M53.75 19.9 L53.9 19.75 Q54.45 19.2 54.8 19.75 L55.05 20.15 54.95 23.5 54.3 24.2 Q54.1 25.5 53.1 26.35 50.9 28.1 48.05 27.45 47.45 27.25 47.35 26.75 L47.45 26.6 Q49.15 25.2 51.3 25.75 51.9 25.95 52.3 25.35 L52.5 25.0 52.75 24.2 53.05 22.9 53.6 22.5 53.75 19.9" fill="#333333" fill-rule="evenodd" stroke="none"/>
    <path d="M61.05 14.15 L61.0 17.9 60.1 18.75 56.95 18.65 Q56.6 18.55 56.45 17.95 L56.65 17.2 59.65 17.15 59.4 14.15 59.5 13.6 59.2 12.85 57.45 12.7 56.6 11.6 56.45 10.65 56.85 10.1 57.85 11.45 59.65 11.5 60.15 12.15 61.05 14.15" fill="#333333" fill-rule="evenodd" stroke="none"/>
    <path d="M64.65 18.25 L64.6 18.5 64.45 19.05 64.3 19.6 Q64.1 20.45 64.6 20.65 L66.05 20.35 66.0 17.9 65.25 17.9 64.65 18.25 M66.35 16.65 Q67.15 16.85 67.4 17.5 67.85 18.8 67.4 20.5 67.25 21.2 66.75 21.75 64.85 22.4 63.35 21.35 L63.4 19.1 63.6 18.5 Q64.05 17.8 64.95 17.3 L66.35 16.65" fill="#333333" fill-rule="evenodd" stroke="none"/>
    <path d="M55.85 17.95 L56.65 18.1 57.05 18.65 56.6 19.25 Q56.1 19.05 56.2 19.45 L56.05 20.2 55.8 20.25 Q55.15 20.65 55.0 19.9 L55.15 18.4 55.85 17.95" fill="#333333" fill-rule="evenodd" stroke="none"/>
    <path d="M43.9 18.7 Q43.85 18.95 43.95 19.2 L45.1 20.6 45.15 21.5 Q45.1 22.3 44.35 22.75 L43.15 22.4 42.9 19.75 43.9 18.7 M43.75 21.45 Q44.25 21.8 43.95 21.2 43.6 20.45 43.65 21.15 L43.75 21.45" fill="#333333" fill-rule="evenodd" stroke="none"/>
    <path d="M48.1 2.5 L48.1 1.1 46.95 1.1 46.95 2.5 48.1 2.5 M48.85 0.9 L49.15 2.2 Q49.15 2.95 48.6 3.45 L46.3 3.35 Q46.0 2.25 46.25 1.1 46.4 0.6 46.85 0.5 L48.85 0.9" fill="#333333" fill-rule="evenodd" stroke="none"/>
    <path d="M44.15 -11.2 L43.55 -11.5 42.95 -11.2 42.7 -10.6 42.95 -9.95 Q43.2 -9.7 43.55 -9.7 L44.15 -9.95 44.4 -10.6 44.15 -11.2 M43.1 -13.0 L43.7 -13.0 43.8 -12.85 43.6 -12.55 42.9 -12.05 44.9 -12.05 45.25 -10.9 Q45.1 -9.7 44.1 -8.9 42.8 -8.55 41.95 -9.65 L42.4 -12.5 43.1 -13.0" fill="#333333" fill-rule="evenodd" stroke="none"/>
    <path d="M0.45 25.0 L0.4 27.8 -0.35 28.35 Q-1.8 28.9 -2.8 27.75 L-2.35 25.9 -1.9 26.05 -2.25 26.45 -2.15 27.6 -0.5 27.25 -0.7 25.05 0.45 25.0" fill="#333333" fill-rule="evenodd" stroke="none"/>
    <path d="M30.7 33.85 L31.3 34.6 30.35 35.25 29.75 35.0 Q28.8 34.5 28.5 33.6 L27.65 31.2 25.05 30.2 24.3 29.75 23.8 28.65 Q23.6 27.6 23.9 26.3 L24.35 26.0 Q24.9 26.25 24.95 26.85 L24.9 28.2 25.6 29.1 28.2 29.45 Q29.0 30.45 29.25 31.7 29.55 33.15 30.7 33.85" fill="#333333" fill-rule="evenodd" stroke="none"/>
    <path d="M60.15 27.65 L60.6 27.5 61.4 27.9 61.15 30.7 60.6 31.0 58.35 30.95 Q57.8 30.95 57.45 30.4 L56.9 29.7 56.25 28.7 55.2 27.25 54.45 27.2 53.6 27.95 Q52.65 28.45 52.5 27.7 L52.75 27.4 53.25 26.8 Q54.1 25.5 55.65 26.1 L58.5 29.35 59.85 29.25 59.85 28.15 60.15 27.65" fill="#333333" fill-rule="evenodd" stroke="none"/>
    <path d="M52.85 28.45 L53.1 28.65 53.6 29.5 54.3 31.6 Q54.6 32.35 54.2 33.0 53.75 33.35 53.3 32.85 L53.05 31.95 52.35 29.85 Q52.0 28.65 52.85 28.45" fill="#333333" fill-rule="evenodd" stroke="none"/>
    <path d="M66.45 26.65 Q68.0 28.0 68.9 30.0 L69.55 31.95 Q69.0 32.5 68.1 31.75 L67.6 30.45 Q66.85 28.45 65.05 27.1 L62.85 27.2 62.25 28.5 61.4 28.45 Q61.8 28.35 61.75 27.85 61.6 26.55 62.5 25.75 L62.85 25.75 Q64.85 25.3 66.45 26.65" fill="#333333" fill-rule="evenodd" stroke="none"/>
    <path d="M53.4 33.5 Q53.65 32.95 53.9 33.4 54.5 34.6 53.9 35.85 L53.75 36.15 Q53.3 36.65 53.2 37.1 L55.7 38.4 56.35 41.4 Q57.0 42.35 58.2 42.45 L58.95 43.4 58.4 43.95 57.1 43.8 Q55.55 43.3 54.85 42.0 L54.55 39.6 53.9 39.35 53.7 39.15 Q53.5 38.95 53.3 38.9 51.85 38.5 51.45 37.25 51.4 36.85 51.5 36.7 52.0 35.9 52.8 35.65 L53.15 34.5 Q53.15 33.95 53.4 33.5" fill="#333333" fill-rule="evenodd" stroke="none"/>
    <path d="M59.5 41.4 L60.35 41.25 61.15 41.35 62.5 42.8 66.45 43.0 67.05 42.25 66.95 41.15 66.15 39.1 66.6 38.2 Q67.55 38.55 68.1 39.55 68.7 40.7 68.75 42.05 68.85 43.55 67.45 44.2 L66.35 44.55 62.15 44.45 Q61.55 44.2 61.4 43.65 61.15 42.9 60.35 42.45 L59.65 42.7 Q59.05 43.0 58.85 42.35 L59.5 41.4" fill="#333333" fill-rule="evenodd" stroke="none"/>
    <path d="M61.55 36.45 L61.65 36.7 Q62.15 37.05 62.7 36.5 L61.55 36.25 61.55 36.45 M61.15 35.95 L62.15 35.2 Q63.1 35.05 63.8 35.5 L63.9 36.85 63.35 37.7 63.1 37.75 Q61.85 37.95 61.1 37.2 L61.15 35.95" fill="#333333" fill-rule="evenodd" stroke="none"/>
    <path d="M69.05 33.75 L69.35 33.9 Q70.45 34.55 71.0 35.7 L70.95 37.75 Q70.45 38.35 69.6 38.3 L67.45 38.35 67.15 38.0 67.15 37.85 67.45 37.55 69.65 37.0 69.3 35.35 68.0 34.65 68.6 32.65 69.05 33.75" fill="#333333" fill-rule="evenodd" stroke="none"/>
    <path d="M61.95 53.8 L61.75 53.6 60.3 52.85 Q60.05 52.9 60.05 52.45 L61.35 51.95 63.1 53.0 63.25 55.35 64.7 56.0 64.65 56.55 64.6 56.85 Q64.8 58.1 63.85 58.9 L60.25 58.6 59.6 57.85 59.75 54.5 60.35 53.9 61.15 53.8 Q60.7 54.1 60.55 54.7 60.25 56.05 60.9 57.35 L63.25 57.2 Q62.85 56.7 62.05 56.4 L61.95 53.8" fill="#333333" fill-rule="evenodd" stroke="none"/>
    <path d="M40.0 30.75 L39.8 30.5 39.45 30.6 39.1 34.15 36.3 34.0 34.2 37.6 33.55 37.65 33.4 37.45 Q33.9 35.0 35.6 32.95 L38.0 32.65 38.4 30.4 39.05 29.65 39.95 29.7 40.0 30.75" fill="#333333" fill-rule="evenodd" stroke="none"/>
    <path d="M29.6 1.9 L28.7 1.25 Q26.75 0.9 24.95 1.8 L23.35 3.0 21.85 2.8 21.65 2.75 21.6 2.5 22.9 1.9 Q23.55 1.15 24.5 0.7 24.85 0.45 25.15 0.35 27.2 -0.35 29.1 -0.15 L30.5 1.3 29.6 1.9" fill="#333333" fill-rule="evenodd" stroke="none"/>
  </g>
</svg>
