<?xml version="1.0" encoding="UTF-8" standalone="no"?>
<svg xmlns:xlink="http://www.w3.org/1999/xlink" height="69.4px" width="419.5px" xmlns="http://www.w3.org/2000/svg">
  <g transform="matrix(1.0, 0.0, 0.0, 1.0, 0.25, 1.2)">
    <path d="M418.3 -0.3 L418.3 67.25 0.6 67.25 0.6 -0.3 418.3 -0.3" fill="#ffffff" fill-rule="evenodd" stroke="none"/>
    <path d="M6.1 -0.1 L4.25 0.05 2.85 0.0 0.6 -0.3 0.75 1.8 0.75 3.85 Q0.6 4.8 0.8 5.75 1.0 6.75 0.8 7.6 0.6 8.5 0.65 9.6 L0.55 11.8 0.5 13.75 0.5 15.9 0.4 17.8 0.3 19.6 Q0.2 20.8 0.4 21.65 L0.65 23.5 0.85 25.65 Q1.05 26.85 0.6 27.65 0.2 28.5 0.4 29.8 L0.55 31.8 0.55 33.55 0.6 35.5 0.65 37.75 0.85 40.0 0.8 41.65 0.4 43.75 0.35 45.8 0.55 47.6 0.35 49.65 Q0.15 50.65 0.35 51.7 L0.65 53.75 0.6 55.7 0.4 57.7 0.4 59.7 0.55 61.7 0.6 63.75 0.55 65.0 0.6 67.25 2.55 67.55 4.8 67.35 6.75 67.15 8.6 67.15 10.7 67.15 12.55 67.1 14.4 67.1 16.3 67.15 18.7 67.25 21.05 67.3 22.8 67.4 24.75 67.65 26.55 67.45 28.3 67.25 30.5 67.25 32.4 67.45 34.2 67.55 36.6 67.4 38.65 67.3 40.5 67.2 42.8 67.4 44.9 67.4 46.75 67.25 48.65 67.25 50.65 67.45 52.8 67.5 54.8 67.1 56.45 67.2 58.25 67.3 60.4 67.1 62.6 67.05 64.45 66.9 66.3 66.85 68.7 67.1 70.85 67.3 72.65 67.25 74.6 67.0 76.6 66.9 78.5 67.15 80.35 67.2 82.6 67.45 84.65 67.55 86.4 67.35 88.5 67.25 90.7 67.1 92.75 67.15 94.7 67.1 96.4 67.05 98.5 67.25 100.65 67.45 102.5 67.45 104.6 67.6 106.9 67.6 108.85 67.25 110.65 67.1 112.75 67.25 114.45 67.35 116.35 67.35 118.35 67.4 120.2 67.4 122.35 67.25 124.65 67.2 126.6 67.15 128.25 67.05 130.45 67.1 132.65 67.15 134.55 67.3 136.75 67.35 138.6 67.2 140.2 67.25 142.4 67.2 144.4 66.95 146.45 66.8 148.55 67.05 150.7 67.35 152.85 67.35 154.7 67.3 156.75 67.3 158.85 67.35 160.8 67.45 162.45 67.35 164.2 67.25 166.25 67.3 168.45 67.3 170.45 67.25 172.25 67.2 174.35 67.3 176.55 67.35 178.6 67.45 Q179.65 67.65 180.6 67.45 L182.6 67.25 184.65 67.25 186.65 67.25 188.65 67.05 190.6 67.0 192.65 67.15 194.7 67.45 Q195.6 67.7 196.65 67.45 L198.55 67.1 200.45 67.1 202.65 67.4 204.75 67.35 206.55 67.2 208.7 67.4 210.7 67.35 212.75 67.3 214.85 67.3 216.65 67.2 218.7 67.1 220.8 66.85 222.7 67.0 224.55 67.25 226.5 67.25 228.55 67.25 230.65 67.35 232.65 67.4 234.8 67.25 236.85 67.1 238.7 66.95 240.7 67.15 242.6 67.15 244.5 67.0 246.5 67.1 248.45 67.45 250.4 67.3 252.75 67.25 254.65 67.4 256.2 67.5 258.15 67.45 260.1 67.15 262.4 67.15 264.8 67.2 266.75 67.45 268.7 67.65 270.85 67.3 272.75 67.15 274.6 67.2 276.65 67.15 278.75 67.25 280.65 67.3 282.5 67.2 284.55 67.2 286.45 67.25 288.6 67.25 290.6 67.05 292.7 66.95 294.7 67.1 296.4 67.3 298.6 67.3 300.7 67.25 302.6 67.3 304.4 67.45 306.4 67.65 308.55 67.25 310.5 67.1 Q311.55 67.35 312.55 67.1 L314.6 67.2 316.45 67.4 318.5 67.2 320.6 67.2 322.5 67.25 324.35 67.25 326.15 67.25 328.45 67.35 330.7 67.3 332.5 67.35 334.65 67.55 336.55 67.35 338.25 67.05 340.55 67.2 342.65 67.4 344.55 67.2 346.6 67.05 348.7 67.25 350.8 67.45 352.85 67.5 354.75 67.45 356.6 67.15 358.55 67.3 Q359.55 67.5 360.45 67.3 L362.7 67.15 364.8 67.0 Q365.65 66.85 366.7 67.0 L368.65 67.2 370.6 67.3 372.4 67.35 374.4 67.25 376.55 67.15 378.4 67.2 380.45 67.25 382.55 67.25 384.4 67.25 386.4 67.15 388.6 67.1 390.45 67.0 392.6 67.3 394.9 67.6 396.7 67.35 398.55 67.0 400.6 67.2 402.5 67.55 404.45 67.55 406.6 67.35 408.45 67.25 410.45 67.3 412.6 67.3 414.65 67.2 416.15 66.95 418.3 67.25 418.25 65.55 418.5 63.35 Q418.8 62.1 418.45 61.15 418.1 60.25 418.3 59.15 418.55 58.1 418.4 57.15 418.25 56.2 418.25 55.1 L418.1 53.1 418.0 51.15 Q418.05 50.15 418.4 49.25 L418.75 47.3 418.5 45.4 Q418.25 44.6 418.45 43.65 418.65 42.75 418.25 41.45 417.9 40.2 418.0 39.25 L418.2 37.25 418.1 35.45 417.9 33.55 Q417.9 32.4 418.3 31.4 418.75 30.45 418.35 29.3 417.95 28.15 418.2 27.2 L418.5 25.4 418.6 23.4 418.45 21.25 418.35 19.25 418.35 17.45 418.5 15.5 Q418.75 14.35 418.5 13.1 L418.15 11.2 417.95 9.3 Q417.9 8.05 418.1 7.1 L418.3 5.05 418.15 2.9 418.0 1.35 418.3 -0.3 416.3 -0.35 414.4 -0.45 412.4 -0.25 410.4 -0.35 408.35 -0.3 406.2 -0.1 404.2 0.15 402.25 0.15 400.4 -0.1 398.4 -0.2 396.15 -0.05 394.4 -0.15 392.5 -0.4 390.45 -0.5 388.5 -0.35 386.3 -0.25 384.4 -0.2 382.3 -0.3 380.25 -0.55 378.55 -0.45 376.7 -0.25 374.35 -0.3 372.0 -0.25 370.1 -0.05 368.45 -0.1 366.5 -0.3 364.35 -0.25 362.45 -0.45 360.3 -0.7 358.1 -0.45 356.15 -0.25 354.25 -0.15 352.2 -0.2 350.4 -0.45 348.65 -0.3 346.25 -0.35 344.0 -0.35 342.3 -0.2 340.3 -0.25 338.1 -0.55 336.35 -0.35 Q335.55 0.15 334.2 0.05 L332.3 -0.15 330.65 -0.45 328.4 -0.4 326.25 -0.25 324.3 -0.5 Q323.3 -0.75 322.35 -0.5 L320.35 -0.2 318.3 -0.15 316.55 -0.2 314.5 -0.35 312.3 -0.3 310.4 -0.5 Q309.45 -0.7 308.35 -0.5 L306.25 -0.3 304.3 -0.55 302.3 -0.6 300.55 -0.35 298.45 -0.2 296.3 0.0 294.4 -0.15 Q293.3 -0.35 292.35 -0.15 291.45 0.1 290.4 -0.15 L288.4 -0.4 286.2 -0.35 284.3 -0.3 282.4 -0.4 280.3 -0.5 278.5 -0.35 276.55 -0.25 274.3 -0.4 272.25 -0.4 270.25 -0.35 268.35 -0.35 266.35 -0.15 264.2 -0.2 262.05 -0.4 260.05 -0.6 258.2 -0.55 256.3 -0.2 254.3 -0.15 252.3 -0.3 250.35 -0.35 248.3 -0.25 246.1 -0.3 244.05 -0.3 242.2 -0.3 240.1 -0.3 238.3 -0.25 236.3 -0.25 234.1 -0.3 232.3 -0.3 230.3 -0.2 228.3 -0.2 226.3 -0.3 224.15 -0.55 222.35 -0.3 220.5 0.0 218.15 -0.2 216.1 -0.3 214.15 -0.1 212.05 -0.05 209.9 -0.35 208.1 -0.5 206.3 -0.4 204.4 -0.2 202.25 -0.2 200.15 -0.25 198.55 -0.3 196.55 -0.25 194.35 -0.25 192.5 -0.35 190.4 -0.25 187.95 -0.45 185.95 -0.55 184.25 -0.3 182.25 -0.1 179.95 0.05 178.05 -0.1 176.3 -0.3 174.3 -0.4 172.3 -0.2 170.3 -0.3 168.3 -0.5 166.25 -0.25 164.3 -0.4 162.45 -0.55 160.3 -0.15 Q159.1 0.15 158.3 -0.15 L156.45 -0.4 154.35 -0.35 152.3 -0.35 150.35 -0.6 Q149.4 -0.8 148.2 -0.6 L146.35 -0.35 144.35 -0.15 142.1 -0.4 140.2 -0.6 138.25 -0.3 136.2 -0.25 134.3 -0.35 132.15 -0.35 129.95 -0.55 128.15 -0.45 126.35 -0.25 124.35 -0.1 122.25 -0.05 120.15 -0.25 118.05 -0.25 116.1 -0.55 Q115.3 -0.75 114.25 -0.55 L112.4 -0.25 110.35 -0.3 108.2 -0.35 106.2 -0.3 104.3 -0.2 102.45 0.0 100.3 -0.1 98.25 -0.35 96.25 -0.3 94.5 -0.25 92.35 -0.2 90.05 -0.15 88.2 -0.4 86.25 -0.55 84.3 -0.25 82.3 -0.2 80.2 -0.25 78.2 -0.25 76.35 -0.15 Q75.4 0.0 74.5 -0.15 L72.4 -0.3 70.4 -0.5 68.25 -0.3 65.95 -0.15 64.05 -0.25 61.95 -0.2 60.05 -0.2 58.05 -0.5 56.25 -0.6 54.6 -0.55 52.5 -0.6 50.15 -0.35 48.05 -0.25 46.15 -0.4 44.1 -0.6 42.35 -0.45 40.25 -0.4 37.95 -0.55 36.15 -0.35 Q35.35 0.0 34.45 -0.35 L32.6 -0.45 Q31.65 -0.2 30.35 -0.45 29.1 -0.65 28.0 -0.45 L26.1 -0.2 24.3 -0.05 22.3 -0.2 20.45 -0.3 18.5 -0.1 16.3 -0.1 14.15 -0.15 12.15 -0.1 10.3 -0.15 8.15 -0.3 6.1 -0.1 Z" fill="none" stroke="#ffffff" stroke-linecap="round" stroke-linejoin="round" stroke-width="1.0"/>
    <path d="M411.85 2.85 L410.0 3.0 407.9 2.8 405.85 2.7 403.85 3.0 402.0 3.3 400.25 3.1 398.2 3.0 395.9 2.85 393.75 2.8 391.85 3.2 390.2 3.4 388.15 3.2 Q386.95 3.0 385.95 3.2 384.95 3.4 384.05 3.2 L382.05 2.9 379.85 3.0 377.9 3.05 376.0 2.9 374.1 2.75 372.3 2.8 370.1 3.1 367.9 3.0 365.9 2.7 364.05 2.8 361.85 2.95 359.85 2.95 358.3 3.2 356.15 3.0 Q354.95 2.55 354.05 2.55 L352.05 2.8 349.95 3.0 347.9 2.85 345.95 2.8 343.8 3.0 341.65 3.05 339.8 3.05 337.7 3.2 335.55 3.1 333.75 2.9 332.1 2.9 329.9 2.95 327.65 3.1 Q326.7 3.3 325.9 3.1 L324.15 2.75 Q323.15 2.55 322.3 2.75 L320.2 3.05 317.8 3.3 315.75 3.2 313.85 2.9 311.95 2.95 309.95 3.1 307.95 3.05 305.7 3.2 Q304.5 3.4 303.75 3.2 L302.05 2.95 300.0 2.75 297.9 2.9 295.9 3.05 293.7 2.85 291.5 2.9 289.9 3.0 287.9 2.8 285.95 2.95 284.2 3.1 281.95 2.7 Q280.85 2.55 280.15 2.7 L278.2 3.1 275.8 3.3 273.7 3.1 271.8 2.95 270.0 2.95 268.15 3.1 266.1 2.95 263.95 2.8 262.1 3.0 260.0 2.95 257.8 2.85 256.0 2.9 253.85 3.25 251.6 2.95 249.75 2.8 248.0 2.85 245.75 2.75 243.5 3.0 241.95 2.95 240.35 2.85 238.15 2.95 236.0 3.1 Q235.05 3.35 234.0 3.1 L231.95 2.75 229.9 2.9 227.9 3.2 225.9 3.1 223.9 3.0 221.95 3.0 219.95 2.9 218.1 3.15 216.2 3.2 214.0 2.95 212.05 2.95 209.85 2.95 207.75 3.0 205.85 2.85 204.05 2.9 202.1 3.25 199.8 3.05 197.75 2.75 195.8 2.95 193.95 3.15 192.1 3.3 190.1 3.1 188.15 3.0 186.35 2.9 184.15 2.75 181.95 3.05 179.95 3.1 178.0 3.15 176.0 3.3 174.0 3.05 171.75 3.0 169.65 3.15 167.8 3.35 165.8 3.25 163.9 3.15 162.05 3.2 160.25 3.2 157.95 2.95 155.75 2.85 154.1 3.05 152.2 3.0 150.25 2.75 148.15 2.9 146.05 2.95 143.95 3.1 142.1 3.3 140.05 2.85 137.8 2.9 135.95 3.05 134.15 2.95 132.05 2.9 130.0 3.0 127.9 2.95 125.75 2.9 123.95 3.0 121.95 2.95 120.05 2.95 118.05 3.2 116.15 3.4 114.2 3.35 111.9 3.2 109.85 3.05 107.95 3.05 105.95 3.1 103.85 3.1 101.65 3.1 99.8 3.0 98.0 3.05 95.95 2.95 93.95 3.05 92.2 3.15 90.15 3.0 87.9 3.0 85.9 3.0 83.95 3.0 81.7 2.85 79.75 2.8 78.15 2.85 Q77.3 2.7 76.1 2.85 L73.95 3.1 71.85 3.35 69.95 3.1 68.0 2.9 65.85 3.1 63.85 3.35 62.1 3.1 60.1 2.95 57.75 3.0 55.8 2.9 54.05 2.95 52.0 3.15 50.2 3.2 48.0 3.0 45.8 3.1 44.05 3.3 41.95 3.4 39.85 3.25 38.1 3.05 36.15 3.0 34.0 3.25 31.7 3.2 29.7 3.05 27.95 3.35 25.95 3.4 23.95 3.15 Q23.0 2.95 21.85 3.15 L19.95 3.25 17.95 3.1 15.65 2.8 13.75 2.65 12.05 3.05 9.95 3.15 7.8 2.95 6.55 3.05 4.25 3.0 Q3.9 3.5 4.15 4.85 L4.3 7.0 4.2 8.8 4.15 10.7 4.15 13.0 4.3 15.3 4.55 17.1 4.5 19.0 4.2 20.85 4.05 22.8 Q3.95 23.95 4.15 25.2 L4.5 27.4 Q4.65 28.4 4.45 29.2 L4.25 31.2 4.35 33.2 4.35 34.9 4.15 37.0 Q4.1 38.2 4.2 39.05 L4.3 40.9 4.4 42.75 4.6 44.8 Q4.7 46.0 4.4 47.1 4.15 48.2 4.2 49.0 L4.2 50.7 4.35 52.8 Q4.6 53.95 4.15 54.95 3.75 56.0 4.15 56.95 4.55 57.95 4.6 59.2 4.7 60.5 4.45 61.0 4.25 61.55 4.35 62.05 4.5 62.6 4.25 63.7 L6.1 63.7 8.15 63.75 10.4 63.5 12.2 63.6 14.3 63.9 16.35 63.7 18.2 63.7 20.15 63.9 22.05 63.85 24.05 63.45 Q25.05 63.25 26.15 63.45 L28.2 63.9 30.2 64.15 32.05 64.05 34.05 63.85 36.05 63.8 38.05 63.75 40.25 63.85 42.3 63.85 44.2 63.55 46.1 63.55 47.95 63.7 50.0 63.85 52.2 63.85 54.1 63.65 56.15 63.85 58.25 63.9 60.1 63.65 62.0 63.65 64.05 63.7 66.15 63.7 68.05 63.65 70.05 63.65 72.0 63.7 74.0 63.75 76.25 63.6 Q77.25 63.45 78.15 63.6 L80.4 63.8 82.4 63.85 84.05 63.8 86.15 63.65 88.15 63.8 90.25 63.95 92.45 63.95 94.25 63.85 96.15 63.65 98.15 63.45 Q99.1 63.2 100.2 63.45 L102.25 63.65 104.1 63.8 106.15 64.0 108.15 63.95 110.1 63.7 112.3 63.35 114.55 63.55 116.45 63.65 118.35 63.4 120.35 63.5 122.35 63.9 124.35 63.85 126.25 63.55 128.2 63.6 130.15 63.45 Q131.1 63.25 132.05 63.45 L134.2 63.85 136.2 63.9 138.15 63.75 140.25 63.65 142.2 63.7 144.25 63.75 146.15 63.8 147.9 63.75 149.95 63.7 152.05 63.75 154.1 63.65 156.3 63.6 158.4 63.65 160.45 63.7 162.35 63.7 164.2 63.7 166.15 63.7 168.25 63.7 170.45 63.5 172.25 63.55 174.1 63.8 176.0 63.75 178.0 63.8 180.25 63.65 182.25 63.7 Q183.25 64.0 184.05 63.7 L185.9 63.55 188.1 63.7 190.15 63.8 192.4 63.8 194.5 63.75 196.05 63.7 197.9 63.5 Q199.05 63.35 199.95 63.5 L202.05 63.75 204.45 63.95 206.65 63.85 Q207.65 63.7 208.35 63.85 L210.15 64.05 212.45 64.0 214.45 63.7 216.35 63.65 218.45 63.7 220.5 63.7 222.35 63.7 224.05 63.6 226.05 63.7 Q227.2 63.9 228.2 63.7 L230.15 63.5 231.9 63.65 234.2 63.7 236.5 63.7 238.3 63.5 240.1 63.55 241.9 63.75 244.05 63.7 246.05 63.75 247.8 63.5 250.0 63.25 252.35 63.4 254.4 63.65 256.25 63.45 Q257.2 63.25 258.05 63.45 L260.2 63.7 262.4 63.65 264.35 63.75 266.35 63.85 268.25 63.75 270.2 63.5 272.3 63.4 274.3 63.4 276.25 63.45 278.25 63.65 280.0 63.8 281.95 63.8 284.1 63.55 286.2 63.55 288.2 63.6 289.95 63.5 292.0 63.45 294.3 63.55 296.1 63.4 298.0 63.35 300.2 63.6 302.45 63.5 304.45 63.35 306.25 63.65 308.5 63.7 310.55 63.6 312.35 63.75 314.25 63.75 316.35 63.7 318.3 63.7 320.15 63.7 322.1 63.75 324.1 63.7 326.2 63.6 328.05 63.65 329.85 63.9 Q330.8 64.05 331.9 63.6 L334.15 63.45 336.25 63.9 Q337.25 64.15 338.4 63.9 L340.4 63.85 342.25 63.8 344.1 63.55 346.3 63.55 348.55 63.5 350.45 63.55 352.25 63.65 354.15 63.65 356.15 63.65 358.0 63.55 Q358.95 63.4 360.1 63.55 L362.3 63.7 364.05 63.7 366.05 63.7 368.4 63.7 370.6 63.65 372.45 63.7 374.2 63.8 376.1 63.7 378.15 63.8 380.2 63.9 382.2 63.8 384.1 64.05 386.15 63.9 388.05 63.7 389.9 63.7 392.0 63.8 394.15 63.7 396.4 63.55 398.3 63.8 400.15 64.0 402.4 63.85 404.5 63.8 406.35 63.8 408.2 63.95 410.4 64.0 411.95 63.75 413.95 63.7 413.95 61.7 413.9 59.65 413.9 57.9 414.0 55.9 414.0 53.65 413.8 51.75 Q413.65 50.8 413.8 49.7 L413.9 47.8 413.9 45.85 413.9 43.9 413.95 41.9 413.95 39.55 413.75 37.55 Q413.6 36.7 413.95 35.8 414.35 34.95 414.1 33.85 L413.9 31.6 Q413.9 30.45 414.05 29.55 L414.05 27.65 413.9 25.75 413.85 23.8 413.95 21.75 414.05 19.8 413.9 17.8 413.75 15.5 Q413.65 14.35 413.85 13.7 L413.95 11.95 413.9 9.85 414.05 7.75 414.25 5.6 414.25 4.2 413.95 3.0 411.85 2.85 Z" fill="none" stroke="#93c7b7" stroke-linecap="round" stroke-linejoin="round" stroke-opacity="0.5019608" stroke-width="1.0"/>
  </g>
</svg>
