<?xml version="1.0" encoding="UTF-8" standalone="no"?>
<svg xmlns:xlink="http://www.w3.org/1999/xlink" height="12.75px" width="26.45px" xmlns="http://www.w3.org/2000/svg">
  <g transform="matrix(1.0, 0.0, 0.0, 1.0, -56.9, -27.2)">
    <path d="M81.1 28.5 Q81.2 28.0 81.95 28.0 82.45 28.0 82.6 28.35 83.1 29.7 83.25 31.55 L83.35 34.9 Q83.35 36.95 82.5 37.75 82.2 38.1 81.7 38.1 L81.05 37.85 80.0 36.3 79.15 34.65 Q78.9 35.25 78.9 36.1 L78.95 36.75 78.95 37.4 78.8 38.55 Q78.7 39.05 78.0 39.05 77.5 39.05 77.15 38.65 77.0 38.5 77.0 38.25 L77.25 34.25 Q77.35 31.75 77.65 30.2 77.75 29.95 78.25 29.95 L78.95 30.15 Q79.6 30.95 80.25 32.9 80.9 34.8 81.55 35.65 L81.7 34.8 81.7 34.0 81.7 33.15 81.35 31.15 81.05 29.1 81.1 28.5 M57.8 27.9 L58.25 27.4 58.95 27.2 Q59.7 27.2 59.8 27.8 L59.9 29.1 59.5 32.45 59.1 35.85 59.35 37.75 63.3 37.25 Q63.75 36.9 64.1 36.9 L64.5 37.0 65.25 38.1 65.2 38.25 Q64.15 39.45 61.65 39.45 L60.5 39.45 57.7 39.95 Q56.9 39.45 56.9 38.2 L56.95 37.25 57.05 36.3 Q57.05 32.15 57.8 27.9 M71.05 35.5 Q71.45 37.25 72.5 37.25 L73.05 37.15 Q74.55 36.4 74.55 34.5 L74.45 33.6 Q74.2 32.7 72.85 32.7 L72.5 32.75 Q72.0 32.85 71.5 33.9 70.95 35.0 71.05 35.5 M76.0 36.5 Q75.5 37.5 74.55 38.1 73.5 38.8 72.4 38.8 71.35 38.8 70.55 38.2 68.85 37.0 68.85 35.15 68.85 33.55 70.3 32.05 71.7 30.55 73.25 30.55 74.65 30.55 75.65 31.85 76.55 33.0 76.55 34.4 76.55 35.5 76.0 36.5 M67.25 28.3 Q67.75 28.3 68.25 28.65 L68.45 29.1 68.45 29.25 Q67.85 30.95 67.85 33.4 L67.95 36.15 68.0 38.9 Q68.0 39.25 67.3 39.25 L66.7 39.1 Q66.05 38.75 65.9 37.95 L65.85 36.5 65.8 34.15 65.85 31.8 66.05 29.4 Q66.25 28.3 67.25 28.3" fill="#000000" fill-rule="evenodd" stroke="none"/>
  </g>
</svg>
