<?xml version="1.0" encoding="UTF-8" standalone="no"?>
<svg xmlns:xlink="http://www.w3.org/1999/xlink" height="14.75px" width="5.1px" xmlns="http://www.w3.org/2000/svg">
  <g transform="matrix(1.0, 0.0, 0.0, 1.0, 0.45, 7.65)">
    <path d="M0.35 -7.5 L0.4 -7.5 1.85 -7.1 3.15 -5.0 3.45 -4.35 3.8 -3.4 4.0 -2.6 4.15 -2.05 4.45 -1.35 4.65 -0.15 4.55 0.0 Q4.2 0.4 4.35 0.85 4.55 1.4 4.15 1.9 4.0 2.1 4.0 2.35 L3.9 2.85 3.6 3.95 Q2.85 5.75 1.15 6.85 0.4 7.35 -0.3 6.85 L-0.4 5.25 -0.25 3.55 Q0.0 1.7 -0.1 -0.1 L-0.25 -2.25 -0.3 -2.65 -0.45 -5.05 -0.25 -7.25 Q-0.15 -7.85 0.35 -7.5" fill="#ffcc33" fill-rule="evenodd" stroke="none"/>
  </g>
</svg>
