<?xml version="1.0" encoding="UTF-8" standalone="no"?>
<svg xmlns:xlink="http://www.w3.org/1999/xlink" height="24.6px" width="17.45px" xmlns="http://www.w3.org/2000/svg">
  <g transform="matrix(1.0, 0.0, 0.0, 1.0, 29.3, 13.8)">
    <path d="M-12.25 -7.05 Q-12.0 -6.6 -12.15 -6.35 L-12.55 -5.5 Q-12.9 -3.25 -12.55 -0.9 L-12.35 0.0 Q-12.1 0.7 -12.2 1.45 L-11.85 2.4 Q-12.5 2.4 -13.0 1.55 L-13.5 0.3 Q-14.1 -1.45 -13.8 -3.35 -13.5 -5.25 -12.7 -7.1 L-12.25 -7.05 M-20.7 -5.1 L-20.55 -5.05 Q-20.15 -4.4 -20.1 -3.65 L-19.95 -3.2 -19.4 -2.15 -18.05 -0.15 -15.75 2.4 -14.7 3.65 -13.9 5.15 -13.5 6.8 -13.6 6.95 -13.75 7.25 -13.8 7.2 -14.25 6.8 -14.3 6.8 -14.4 5.8 Q-14.5 5.3 -14.75 5.05 L-16.4 2.95 -16.9 2.3 -18.1 1.1 -19.35 -0.6 -19.85 -1.45 Q-20.95 -3.15 -20.7 -5.1 M-20.7 -13.15 L-20.6 -13.25 -20.4 -13.4 -20.25 -13.5 -20.1 -13.65 -20.0 -13.75 -19.8 -13.8 -19.65 -13.8 -19.6 -13.8 -19.45 -13.65 -19.3 -13.5 -18.75 -11.35 Q-18.55 -9.75 -18.0 -8.3 L-17.8 -7.9 -17.6 -7.35 -17.15 -6.25 Q-15.85 -4.15 -15.0 -1.7 L-15.05 -1.1 Q-14.9 -0.4 -15.3 -0.25 L-15.4 -0.6 -15.55 -1.25 -16.3 -2.6 -16.6 -2.95 -19.45 -7.8 -20.3 -8.1 Q-21.6 -8.05 -23.1 -9.0 L-25.35 -11.0 -24.9 -10.9 -24.15 -10.9 Q-23.2 -9.75 -21.85 -9.0 -22.2 -9.25 -22.15 -9.7 L-22.75 -10.15 -22.85 -10.3 -23.45 -11.15 -23.4 -11.15 -23.3 -11.25 -23.2 -11.3 -23.05 -11.4 -22.9 -11.45 -22.85 -11.55 -22.75 -11.6 Q-21.4 -10.65 -20.55 -10.4 L-20.75 -11.0 -20.8 -12.8 -20.75 -13.05 -20.7 -13.15" fill="#473e30" fill-rule="evenodd" stroke="none"/>
    <path d="M-14.1 6.1 L-13.95 6.15 -13.9 6.2 -13.85 6.25 -13.85 6.35 -13.8 6.45 -13.8 6.5 -13.75 6.6 -13.75 6.65 -13.7 6.7 -13.65 6.8 -13.6 6.9 -13.55 6.95 -13.5 7.05 -13.5 7.1 -13.45 7.2 -13.45 7.25 -13.45 7.35 -13.45 7.4 -13.45 7.5 -13.45 7.55 -13.4 7.65 -13.4 7.7 -13.35 7.8 -13.35 7.85 -13.35 7.95 -13.35 8.0 -13.35 8.15 -13.35 8.3 -13.4 8.35 -13.45 8.45 -13.5 8.5 -13.6 8.6 -13.7 8.55 -13.75 8.45 -13.8 8.4 -13.8 8.3 -13.85 8.25 -13.85 8.15 -13.85 8.1 -13.85 8.0 -13.85 7.95 -13.9 7.85 -13.9 7.8 -13.95 7.7 -13.95 7.65 -13.95 7.55 -13.95 7.5 -13.95 7.4 -13.95 7.35 -14.0 7.25 -14.0 7.2 -14.05 7.1 -14.1 7.05 -14.2 6.95 -14.25 6.9 -14.25 6.8 -14.25 6.75 -14.25 6.65 -14.2 6.6 -14.25 6.5 -14.3 6.4 -14.3 6.3 -14.3 6.2 -14.25 6.15 -14.1 6.1" fill="#473e30" fill-rule="evenodd" stroke="none"/>
    <path d="M-27.6 -9.55 L-27.5 -9.4 -27.45 -9.3 -27.45 -9.2 -27.45 -9.1 -27.4 -9.05 -27.4 -8.95 -27.35 -8.9 -27.35 -8.8 -27.3 -8.75 -27.25 -8.65 -27.2 -8.5 -27.15 -8.4 -27.15 -8.35 -27.1 -8.2 -27.1 -8.1 -27.05 -8.05 -27.0 -8.0 -27.0 -7.9 -26.95 -7.85 -26.9 -7.75 -26.8 -7.3 -26.6 -6.7 -26.45 -6.2 -26.35 -5.85 -26.35 -5.7 -26.35 -5.55 -26.4 -5.35 -26.35 -5.1 -26.35 -5.05 -26.4 -5.0 -26.45 -4.9 -26.45 -4.8 -26.45 -4.75 -26.45 -4.65 -26.4 -4.6 -26.4 -4.5 -26.35 -4.45 -26.35 -4.3 -26.35 -4.2 -26.35 -4.15 -26.35 -4.0 -26.35 -3.85 -26.4 -3.8 -26.45 -3.7 -26.55 -3.65 -26.7 -3.55 -26.75 -3.5 -26.9 -3.45 -27.05 -3.5 -27.15 -3.6 -27.2 -3.65 -27.3 -3.75 -27.35 -3.85 -27.4 -3.9 -27.4 -4.25 -27.4 -4.75 -27.45 -5.25 -27.4 -5.45 -27.45 -5.55 -27.5 -5.65 -27.55 -5.7 -27.55 -5.75 -27.6 -5.85 -27.6 -5.95 -27.6 -6.0 -27.65 -6.05 -27.7 -6.15 -27.75 -6.2 -27.75 -6.3 -27.8 -6.35 -27.8 -6.45 -27.85 -6.5 -27.85 -6.6 -27.85 -6.65 -27.85 -6.75 -27.85 -6.8 -27.9 -6.9 -27.9 -7.0 -27.95 -7.05 -27.95 -7.1 -27.95 -7.2 -27.95 -7.25 -27.95 -7.35 -28.0 -7.4 -28.0 -7.5 -28.05 -7.6 -28.05 -7.7 -28.1 -7.8 -28.15 -7.85 -28.15 -7.95 -28.15 -8.0 -28.15 -8.1 -28.2 -8.15 -28.25 -8.25 -28.25 -8.3 -28.3 -8.4 -28.3 -8.45 -28.35 -8.55 -28.35 -8.6 -28.4 -8.7 -28.45 -8.75 -28.5 -8.85 -28.5 -8.9 -28.55 -9.0 -28.55 -9.05 -28.55 -9.2 -28.55 -9.3 -28.55 -9.35 -28.55 -9.5 -28.55 -9.65 -28.6 -9.75 -28.7 -9.8 -28.8 -9.9 -28.9 -9.95 -29.05 -10.05 -29.1 -10.1 -29.2 -10.2 -29.3 -10.25 -29.3 -10.3 -29.25 -10.5 -29.25 -10.6 -29.2 -10.65 -29.15 -10.75 -29.15 -10.8 -29.1 -10.9 -29.1 -11.0 -29.05 -10.9 -28.9 -10.85 -28.8 -10.75 -28.7 -10.7 -28.6 -10.7 -28.5 -10.7 -28.4 -10.7 -28.25 -10.65 -28.15 -10.6 -28.1 -10.5 -28.1 -10.45 -28.05 -10.35 -27.95 -10.15 -27.75 -9.85 -27.6 -9.55" fill="#473e30" fill-rule="evenodd" stroke="none"/>
    <path d="M-23.1 1.25 L-23.05 1.2 -22.95 1.2 -22.85 1.3 -22.85 1.35 -22.85 1.45 -22.85 1.5 -22.8 1.6 -22.85 1.65 -22.85 1.75 -22.85 1.8 -22.9 1.9 -23.2 4.3 -23.5 5.85 -24.1 8.1 -24.15 8.2 -24.15 8.25 -24.2 8.35 -24.2 8.4 -24.25 8.5 -24.3 8.55 -24.3 8.65 -24.35 8.7 -24.35 8.8 -24.4 8.85 -24.45 8.95 -24.45 9.0 -24.5 9.1 -24.55 9.15 -24.55 9.25 -24.6 9.3 -24.65 9.4 -24.65 9.45 -24.7 9.55 -24.85 9.8 -25.05 10.2 -25.15 10.45 -25.3 10.5 -25.35 10.55 -25.35 10.65 -25.4 10.75 -25.5 10.8 -25.6 10.75 -25.6 10.65 -25.55 10.55 -25.5 10.5 -25.45 10.45 -25.45 10.35 -25.45 10.3 -25.45 10.2 -25.35 10.05 -25.3 9.9 -25.2 9.75 -25.2 9.65 -25.2 9.6 -25.15 9.55 -25.1 9.45 -25.1 9.4 -25.05 9.3 -25.0 9.25 -25.0 9.15 -24.95 9.1 -24.9 9.0 -24.9 8.95 -24.85 8.85 -24.8 8.8 -24.8 8.7 -24.75 8.65 -24.7 8.55 -24.7 8.5 -24.65 8.4 -24.65 8.35 -24.6 8.25 -24.55 8.2 -24.55 8.1 -24.5 8.05 -24.5 7.95 -24.45 7.9 -23.9 5.55 -23.65 4.35 -23.3 2.0 -23.3 1.9 -23.25 1.8 -23.25 1.75 -23.2 1.65 -23.2 1.6 -23.15 1.5 -23.15 1.45 -23.15 1.35 -23.1 1.3 -23.1 1.25" fill="#473e30" fill-rule="evenodd" stroke="none"/>
    <path d="M-22.9 1.7 L-22.85 1.75 -22.85 1.9 -22.85 2.15 -22.8 2.35 -22.8 2.45 -22.8 2.5 -22.85 2.55 -22.85 2.65 -22.85 2.75 -22.9 3.2 -23.0 3.7 -23.0 4.1 -23.25 4.8 -23.3 5.65 -23.3 6.25 -23.4 6.85 -23.5 7.55 -23.45 8.0 -23.55 8.45 -23.65 8.9 -23.8 9.25 -23.85 9.35 -23.9 9.4 -23.9 9.5 -23.95 9.55 -23.95 9.6 -23.95 9.7 -24.1 9.9 -24.3 10.2 -24.45 10.45 -24.6 10.45 -24.75 10.4 -24.85 10.35 -24.9 10.25 -24.95 10.15 -24.95 10.05 -24.9 9.9 -24.75 9.6 -24.55 9.2 -24.45 9.05 -24.3 8.7 -24.2 8.25 -24.1 7.85 -24.05 7.25 -23.95 6.65 -23.9 6.2 -23.9 6.15 -23.85 6.05 -23.85 5.3 -23.7 4.5 -23.6 3.95 -23.55 3.9 -23.45 3.35 -23.3 2.75 -23.15 2.3 -23.15 2.15 -23.2 1.95 -23.15 1.7 -23.1 1.65 -23.0 1.65 -22.9 1.7" fill="#473e30" fill-rule="evenodd" stroke="none"/>
  </g>
</svg>
