<?xml version="1.0" encoding="UTF-8" standalone="no"?>
<svg xmlns:xlink="http://www.w3.org/1999/xlink" height="70.8px" width="31.7px" xmlns="http://www.w3.org/2000/svg">
  <g transform="matrix(1.0, 0.0, 0.0, 1.0, 2.05, -0.6)">
    <path d="M29.65 0.6 L29.65 71.4 0.55 71.4 0.55 0.6 29.65 0.6" fill="#6c6960" fill-rule="evenodd" stroke="none"/>
    <path d="M1.75 7.65 L1.85 7.75 1.85 8.25 1.85 8.95 1.85 9.4 1.85 9.75 1.8 9.85 1.75 9.95 1.65 10.1 1.45 10.3 1.35 10.45 1.35 10.55 1.45 10.65 1.65 10.8 1.75 10.9 1.85 11.0 1.9 11.1 1.95 11.25 1.95 11.35 1.95 11.45 1.95 11.7 1.95 11.95 1.9 12.05 1.8 12.15 1.8 12.3 1.75 12.4 1.75 12.5 1.65 12.75 1.65 12.85 1.65 12.95 1.65 13.1 1.65 13.2 1.65 13.3 1.6 13.45 1.55 13.55 1.45 13.65 1.5 13.8 1.6 13.9 1.6 14.0 1.65 14.1 1.65 14.25 1.65 14.35 1.6 14.45 1.6 14.6 1.5 14.7 1.4 14.8 1.3 14.8 1.1 14.85 0.95 14.85 0.7 14.8 0.5 14.65 0.35 14.55 0.25 14.45 0.2 14.3 0.2 14.2 0.1 14.1 0.05 13.95 0.0 13.85 -0.1 13.75 -0.2 13.6 -0.25 13.5 -0.35 13.4 -0.45 13.3 -0.55 13.15 -0.65 13.05 -0.7 12.95 -0.75 12.8 -0.8 12.7 -0.85 12.6 -0.85 12.45 -0.85 12.35 -0.85 12.25 -0.85 12.1 -0.9 12.0 -0.9 11.9 -1.0 11.8 -1.3 11.55 -1.8 11.1 -2.0 10.85 -2.05 10.75 -2.05 10.4 -2.05 9.7 -2.05 9.35 -2.05 9.0 -2.0 8.9 -1.95 8.8 -1.9 8.65 -1.85 8.55 -1.85 8.45 -1.8 8.3 -1.75 8.2 -1.2 7.7 -0.35 7.1 -0.2 7.0 -0.15 6.9 -0.05 6.75 0.05 6.7 0.1 6.65 0.3 6.65 0.3 6.6 0.55 6.7 0.7 6.8 0.75 6.95 0.8 7.05 0.8 7.15 0.8 7.25 0.85 7.3 0.95 7.3 1.1 7.25 1.25 7.25 1.45 7.3 1.6 7.45 1.75 7.55 1.75 7.65" fill="#6c6960" fill-rule="evenodd" stroke="none"/>
    <path d="M0.15 29.3 L0.15 29.35 0.3 29.35 0.6 29.35 0.85 29.45 1.0 29.55 1.1 29.65 1.1 29.8 1.1 29.9 1.1 30.0 1.1 30.25 1.1 30.35 1.2 30.4 1.4 30.35 1.55 30.3 1.85 30.3 2.05 30.4 2.1 30.5 2.2 30.65 2.15 30.75 2.1 30.85 2.1 30.95 2.0 30.95 1.85 31.0 1.6 31.1 1.45 31.2 1.45 31.3 1.3 31.45 1.15 31.55 1.1 31.65 1.1 31.8 1.1 31.9 1.1 32.15 1.1 32.25 1.05 32.35 1.0 32.5 1.1 32.6 1.2 32.7 1.25 32.8 1.25 32.95 1.25 33.5 1.25 34.1 1.25 34.9 1.25 35.5 1.3 35.6 1.4 35.7 1.45 35.8 1.6 36.05 1.65 36.15 1.8 36.3 1.95 36.4 2.0 36.5 2.1 36.65 2.2 36.75 2.25 36.85 2.25 37.0 2.2 37.1 2.15 37.2 2.1 37.3 1.95 37.4 1.9 37.45 1.7 37.45 1.55 37.5 1.25 37.4 1.1 37.3 1.05 37.15 1.0 37.05 0.95 37.05 0.75 37.05 0.45 37.0 0.3 36.85 0.25 36.75 0.2 36.65 0.2 36.5 0.2 36.4 0.15 36.3 0.1 36.15 0.05 36.05 -0.05 35.95 -0.15 35.8 -0.25 35.7 -0.25 35.6 -0.35 35.5 -0.4 35.35 -0.5 35.25 -0.6 35.15 -0.65 35.0 -0.75 34.9 -0.75 34.8 -0.85 34.65 -0.9 34.55 -0.9 34.45 -1.0 34.3 -1.0 34.2 -1.0 34.1 -1.05 34.0 -1.05 33.85 -1.15 33.65 -1.2 33.5 -1.25 33.4 -1.25 33.3 -1.25 33.15 -1.25 33.05 -1.35 32.95 -1.4 32.8 -1.4 32.5 -1.4 32.15 -1.4 31.9 -1.4 31.45 -1.35 31.3 -1.3 31.2 -1.25 31.1 -1.25 30.95 -1.25 30.85 -1.25 30.75 -1.2 30.65 -1.15 30.5 -1.1 30.3 -1.05 30.15 -1.0 30.05 -0.9 29.95 -0.9 29.8 -0.8 29.7 -0.8 29.6 -0.8 29.45 -0.75 29.35 -0.7 29.25 -0.55 29.15 -0.3 29.05 -0.05 29.15 0.1 29.25 0.15 29.3" fill="#6c6960" fill-rule="evenodd" stroke="none"/>
    <path d="M0.3 51.6 L0.55 51.7 0.7 51.8 0.75 51.95 0.8 52.05 0.8 52.15 0.85 52.25 0.9 52.3 1.6 52.3 1.75 52.25 1.9 52.25 2.05 52.35 2.05 52.45 2.05 52.6 1.95 52.7 1.9 52.8 1.95 52.95 1.95 53.05 1.95 53.15 1.95 53.3 1.9 53.4 1.9 53.5 1.9 53.6 1.9 53.75 1.85 53.85 1.8 53.95 1.75 54.1 1.8 54.2 1.8 54.3 1.8 54.45 1.8 54.55 1.8 54.8 1.8 55.0 1.75 55.1 1.75 55.25 1.7 55.35 1.6 55.45 1.6 55.8 1.6 56.4 1.6 56.5 1.6 56.85 1.6 57.2 1.65 57.3 1.75 57.45 1.75 57.55 1.8 57.65 1.8 57.8 1.8 57.9 1.8 58.0 1.8 58.25 1.8 58.35 1.75 58.45 1.7 58.6 1.6 58.7 1.45 58.8 1.3 58.95 1.05 59.0 0.75 59.0 0.4 58.95 0.25 58.8 0.05 58.6 -0.2 58.2 -0.45 57.9 -0.5 57.8 -0.6 57.65 -0.6 57.55 -0.7 57.45 -0.75 57.3 -0.85 57.2 -0.95 57.1 -0.95 56.95 -1.0 56.85 -1.0 56.6 -1.0 56.3 -1.0 55.95 -1.0 55.8 -1.0 55.7 -1.05 55.6 -1.1 55.45 -1.15 55.35 -1.15 54.55 -1.15 54.1 -1.15 53.15 -1.15 52.6 -1.1 52.45 -1.05 52.35 -1.0 52.25 -0.9 52.15 -0.8 52.0 -0.7 51.9 -0.6 51.8 -0.5 51.8 -0.3 51.75 -0.1 51.7 0.15 51.6 0.3 51.6" fill="#6c6960" fill-rule="evenodd" stroke="none"/>
  </g>
</svg>
