<?xml version="1.0" encoding="UTF-8" standalone="no"?>
<svg xmlns:xlink="http://www.w3.org/1999/xlink" height="59.05px" width="9.2px" xmlns="http://www.w3.org/2000/svg">
  <g transform="matrix(1.0, 0.0, 0.0, 1.0, -3.35, -6.7)">
    <path d="M9.9 10.0 L9.95 10.05 9.95 10.15 10.05 10.25 10.15 10.35 10.25 10.45 10.3 10.6 10.45 10.7 10.5 10.75 10.5 10.8 10.55 10.9 10.55 10.95 10.6 11.0 10.65 11.05 10.7 11.1 10.8 11.2 10.85 11.3 10.9 11.35 10.9 11.4 10.95 11.45 10.95 11.5 11.0 11.55 11.0 11.65 11.0 11.75 11.05 11.8 11.05 11.85 11.1 11.9 11.2 12.05 11.2 12.1 11.25 12.15 11.3 12.2 11.35 12.25 11.35 12.3 11.4 12.4 11.4 12.45 11.45 12.5 11.45 12.55 11.5 12.6 11.5 12.65 11.55 12.75 11.55 12.8 11.6 12.85 11.6 12.9 11.65 12.95 11.7 13.0 11.7 13.05 11.7 13.15 11.75 13.2 11.75 13.25 11.8 13.3 11.8 13.4 11.8 13.5 11.8 13.6 11.9 13.9 11.95 14.05 11.95 14.15 12.0 14.35 12.05 14.45 12.1 14.55 12.1 14.7 12.1 15.1 12.1 15.5 12.1 15.75 12.1 15.95 12.1 16.15 12.1 16.25 12.15 16.3 12.15 16.35 12.2 16.4 12.25 16.5 12.3 16.55 12.4 16.6 12.55 16.65 12.55 16.8 12.55 16.9 12.55 16.95 12.5 17.0 12.5 17.1 12.45 17.15 12.45 17.25 12.45 17.55 12.45 17.65 12.45 17.75 12.4 17.8 12.4 17.9 12.4 18.0 12.4 18.3 12.4 18.4 12.35 18.5 12.3 18.55 12.3 18.65 12.3 18.8 12.3 18.85 12.25 18.9 12.25 19.05 12.25 19.15 12.25 19.45 Q10.85 20.75 9.05 20.75 6.7 20.75 5.0 18.55 3.35 16.35 3.35 13.25 3.35 10.15 5.0 7.95 5.6 7.2 6.3 6.7 L6.35 6.7 6.45 6.8 6.55 6.85 6.6 6.9 6.65 6.95 6.75 7.0 6.85 7.05 6.95 7.15 7.0 7.2 7.35 7.6 7.5 7.8 7.7 8.05 7.85 8.2 7.95 8.3 8.05 8.35 8.15 8.4 8.25 8.5 8.35 8.6 8.6 8.8 8.75 8.9 8.95 9.05 9.0 9.1 9.15 9.2 9.2 9.25 9.25 9.3 9.3 9.4 9.4 9.45 9.45 9.55 9.55 9.65 9.65 9.8 9.8 9.9 9.9 10.0" fill="#ff6633" fill-rule="evenodd" stroke="none"/>
    <path d="M9.9 32.0 L9.95 32.05 9.95 32.15 10.05 32.25 10.15 32.35 10.25 32.45 10.3 32.6 10.45 32.7 10.5 32.75 10.5 32.8 10.55 32.9 10.55 32.95 10.6 33.0 10.65 33.05 10.7 33.1 10.8 33.2 10.85 33.3 10.9 33.35 10.9 33.4 10.95 33.45 10.95 33.5 11.0 33.55 11.0 33.65 11.0 33.75 11.05 33.8 11.05 33.85 11.1 33.9 11.2 34.05 11.2 34.1 11.25 34.15 11.3 34.2 11.35 34.25 11.35 34.3 11.4 34.4 11.4 34.45 11.45 34.5 11.45 34.55 11.5 34.6 11.5 34.65 11.55 34.75 11.55 34.8 11.6 34.85 11.6 34.9 11.65 34.95 11.7 35.0 11.7 35.05 11.7 35.15 11.75 35.2 11.75 35.25 11.8 35.3 11.8 35.4 11.8 35.5 11.8 35.6 11.9 35.9 11.95 36.05 11.95 36.15 12.0 36.35 12.05 36.45 12.1 36.55 12.1 36.7 12.1 37.1 12.1 37.5 12.1 37.75 12.1 37.95 12.1 38.15 12.1 38.25 12.15 38.3 12.15 38.35 12.2 38.4 12.25 38.5 12.3 38.55 12.4 38.6 12.55 38.65 12.55 38.8 12.55 38.9 12.55 38.95 12.5 39.0 12.5 39.1 12.45 39.15 12.45 39.25 12.45 39.55 12.45 39.65 12.45 39.75 12.4 39.8 12.4 39.9 12.4 40.0 12.4 40.3 12.4 40.4 12.35 40.5 12.3 40.55 12.3 40.65 12.3 40.8 12.3 40.85 12.25 40.9 12.25 41.05 12.25 41.15 12.25 41.45 Q10.85 42.75 9.05 42.75 6.7 42.75 5.0 40.55 3.35 38.35 3.35 35.25 3.35 32.15 5.0 29.95 5.6 29.2 6.3 28.7 L6.35 28.7 6.45 28.8 6.55 28.85 6.6 28.9 6.65 28.95 6.75 29.0 6.85 29.05 6.95 29.15 7.0 29.2 7.35 29.6 7.5 29.8 7.7 30.05 7.85 30.2 7.95 30.3 8.05 30.35 8.15 30.4 8.25 30.5 8.35 30.6 8.6 30.8 8.75 30.9 8.95 31.05 9.0 31.1 9.15 31.2 9.2 31.25 9.25 31.3 9.3 31.4 9.4 31.45 9.45 31.55 9.55 31.65 9.65 31.8 9.8 31.9 9.9 32.0" fill="#737373" fill-rule="evenodd" stroke="none"/>
    <path d="M9.9 55.0 L9.95 55.05 9.95 55.15 10.05 55.25 10.15 55.35 10.25 55.45 10.3 55.6 10.45 55.7 10.5 55.75 10.5 55.8 10.55 55.9 10.55 55.95 10.6 56.0 10.65 56.05 10.7 56.1 10.8 56.2 10.85 56.3 10.9 56.35 10.9 56.4 10.95 56.45 10.95 56.5 11.0 56.55 11.0 56.65 11.0 56.75 11.05 56.8 11.05 56.85 11.1 56.9 11.2 57.05 11.2 57.1 11.25 57.15 11.3 57.2 11.35 57.25 11.35 57.3 11.4 57.4 11.4 57.45 11.45 57.5 11.45 57.55 11.5 57.6 11.5 57.65 11.55 57.75 11.55 57.8 11.6 57.85 11.6 57.9 11.65 57.95 11.7 58.0 11.7 58.05 11.7 58.15 11.75 58.2 11.75 58.25 11.8 58.3 11.8 58.4 11.8 58.5 11.8 58.6 11.9 58.9 11.95 59.05 11.95 59.15 12.0 59.35 12.05 59.45 12.1 59.55 12.1 59.7 12.1 60.1 12.1 60.5 12.1 60.75 12.1 60.95 12.1 61.15 12.1 61.25 12.15 61.3 12.15 61.35 12.2 61.4 12.25 61.5 12.3 61.55 12.4 61.6 12.55 61.65 12.55 61.8 12.55 61.9 12.55 61.95 12.5 62.0 12.5 62.1 12.45 62.15 12.45 62.25 12.45 62.55 12.45 62.65 12.45 62.75 12.4 62.8 12.4 62.9 12.4 63.0 12.4 63.3 12.4 63.4 12.35 63.5 12.3 63.55 12.3 63.65 12.3 63.8 12.3 63.85 12.25 63.9 12.25 64.05 12.25 64.15 12.25 64.45 Q10.85 65.75 9.05 65.75 6.7 65.75 5.0 63.55 3.35 61.35 3.35 58.25 3.35 55.15 5.0 52.95 5.6 52.2 6.3 51.7 L6.35 51.7 6.45 51.8 6.55 51.85 6.6 51.9 6.65 51.95 6.75 52.0 6.85 52.05 6.95 52.15 7.0 52.2 7.35 52.6 7.5 52.8 7.7 53.05 7.85 53.2 7.95 53.3 8.05 53.35 8.15 53.4 8.25 53.5 8.35 53.6 8.6 53.8 8.75 53.9 8.95 54.05 9.0 54.1 9.15 54.2 9.2 54.25 9.25 54.3 9.3 54.4 9.4 54.45 9.45 54.55 9.55 54.65 9.65 54.8 9.8 54.9 9.9 55.0" fill="#737373" fill-rule="evenodd" stroke="none"/>
  </g>
</svg>
