<?xml version="1.0" encoding="UTF-8" standalone="no"?>
<svg xmlns:xlink="http://www.w3.org/1999/xlink" height="101.35px" width="101.2px" xmlns="http://www.w3.org/2000/svg">
  <g transform="matrix(1.0, 0.0, 0.0, 1.0, 49.8, 52.15)">
    <path d="M35.55 -35.35 Q50.0 -20.9 50.0 -0.45 50.0 20.0 35.55 34.45 21.1 48.9 0.65 48.9 -19.8 48.9 -34.25 34.45 -48.7 20.0 -48.7 -0.45 -48.7 -20.9 -34.25 -35.35 -19.8 -49.8 0.65 -49.8 21.1 -49.8 35.55 -35.35" fill="#6c6960" fill-rule="evenodd" stroke="none"/>
    <path d="M31.8 -0.85 Q31.8 12.05 22.7 21.15 13.7 30.25 0.75 30.25 -12.2 30.25 -21.25 21.15 -30.3 12.05 -30.3 -0.85 -30.3 -13.75 -21.25 -22.85 -12.2 -31.9 0.75 -31.9 13.7 -31.9 22.7 -22.85 31.8 -13.75 31.8 -0.85" fill="#a6b8bf" fill-rule="evenodd" stroke="none"/>
    <path d="M5.85 -19.75 Q-1.4 -21.75 -9.05 -22.4 -14.4 -19.2 -17.05 -13.7 -18.05 -11.55 -18.45 -9.25 -20.1 0.2 -19.2 10.15 -19.15 10.85 -18.65 11.35 -13.6 17.15 -7.5 21.55 3.35 22.3 13.05 17.8 17.3 15.75 16.7 11.3 15.95 5.45 19.65 1.75 21.1 0.2 23.35 -0.1 24.1 -3.95 21.75 -7.1 19.4 -10.45 16.5 -13.15 L14.45 -15.05 Q10.6 -18.4 5.85 -19.75 M27.95 -24.25 Q40.45 -20.8 38.85 -5.9 L37.45 3.6 Q35.5 14.35 28.45 22.65 25.8 25.85 22.0 27.6 3.35 36.15 -15.9 29.95 -22.95 27.7 -27.65 22.4 -30.1 19.7 -31.2 16.25 -33.45 9.05 -34.35 1.25 -34.75 -2.05 -33.95 -5.25 -29.55 -22.6 -13.95 -30.6 L-12.7 -30.9 -11.75 -31.85 Q4.55 -36.2 20.9 -31.25 24.55 -28.6 27.2 -24.95 L27.95 -24.25" fill="#663333" fill-opacity="0.2" fill-rule="evenodd" stroke="none"/>
    <path d="M34.0 -26.5 Q41.45 -16.3 39.6 -3.05 38.95 1.75 38.7 6.7 37.75 24.45 20.6 32.05 5.25 38.8 -11.15 33.75 -26.2 29.2 -36.55 17.45 -38.95 7.3 -37.35 -2.8 -34.35 -21.9 -17.8 -33.85 -11.0 -38.7 -3.2 -40.75 L-2.85 -40.85 Q12.4 -39.35 26.4 -32.85 31.05 -30.65 34.0 -26.5 M12.35 -25.1 Q-0.05 -29.65 -7.1 -28.5 L-14.65 -27.3 Q-24.65 -15.25 -27.85 -0.3 -29.15 5.95 -27.5 12.25 -20.8 21.75 -9.15 24.25 3.65 27.15 15.55 23.1 24.2 20.25 29.1 12.3 30.4 10.1 30.35 7.45 30.15 -1.25 30.1 -9.95 L27.85 -9.9 25.4 -10.35 Q23.35 -10.9 22.25 -12.6 21.35 -13.95 21.4 -15.55 19.65 -18.4 17.0 -20.6 15.0 -22.2 13.15 -24.1 L12.35 -25.1" fill="#663333" fill-opacity="0.2" fill-rule="evenodd" stroke="none"/>
    <path d="M3.0 -15.75 L6.1 -15.1 8.35 -14.65 9.2 -14.45 9.85 -14.1 10.5 -13.75 11.05 -13.45 11.5 -13.15 11.8 -12.75 12.1 -12.45 12.25 -12.1 12.4 -11.8 12.7 -11.5 12.9 -11.1 13.1 -10.85 13.3 -10.45 13.3 -10.15 13.3 -9.85 13.3 -9.5 13.3 -9.15 13.3 -8.8 13.3 -8.5 13.35 -8.2 13.6 -7.85 14.05 -7.5 14.35 -7.15 14.7 -6.85 15.0 -6.55 15.3 -6.15 15.7 -5.5 15.9 -5.2 15.9 -4.55 15.9 -3.55 15.9 -2.2 15.9 0.45 15.9 4.05 15.9 5.0 15.75 5.35 15.65 5.7 15.45 6.05 15.2 6.4 14.8 7.0 14.6 7.35 14.35 7.7 14.25 8.0 14.0 8.3 13.2 8.95 11.95 9.65 11.5 9.95 11.05 10.3 10.45 10.65 9.75 11.0 9.2 11.3 8.35 11.5 7.0 11.75 6.3 12.05 5.9 12.3 5.2 12.4 -0.5 12.45 -1.4 12.25 -7.1 11.75 -7.55 11.45 -7.85 11.1 -8.2 10.8 -8.55 10.4 -9.05 10.1 -9.65 9.8 -9.95 9.45 -10.25 9.15 -10.65 8.85 -11.1 8.5 -11.75 8.15 -12.05 7.8 -12.35 7.5 -12.75 7.1 -12.9 6.8 -13.3 6.15 -13.6 5.85 -13.9 5.45 -14.15 5.15 -14.25 4.85 -14.8 4.15 -15.35 3.2 -15.5 2.85 -15.55 2.5 -15.6 1.55 -15.6 0.9 -15.6 -0.1 -15.6 -1.75 -15.6 -4.1 -15.6 -4.45 -15.5 -4.75 -15.25 -5.05 -15.15 -5.4 -15.15 -5.75 -15.1 -6.1 -15.05 -6.4 -14.9 -6.75 -14.7 -7.05 -14.65 -7.35 -14.6 -7.75 -14.45 -8.05 -14.15 -8.7 -13.9 -9.0 -13.6 -9.4 -13.25 -9.7 -12.6 -10.35 -11.75 -11.35 -11.4 -12.0 -11.1 -12.4 -10.7 -12.7 -10.4 -13.0 -9.95 -13.2 -9.2 -13.45 -8.75 -13.75 -8.45 -14.1 -8.0 -14.4 -7.35 -14.8 -6.9 -15.0 -6.2 -15.1 -4.45 -15.5 -0.95 -15.95 -0.95 -16.0 2.15 -16.0 3.0 -15.75 M3.9 -11.15 L3.25 -11.5 2.8 -11.7 -4.05 -11.55 -5.15 -11.25 -5.65 -10.9 -6.1 -10.6 -6.8 -9.9 -7.1 -9.6 -7.25 -9.25 -7.4 -8.95 -7.55 -8.65 -7.8 -8.25 -7.85 -7.95 -7.9 -7.6 -8.0 -7.3 -8.2 -7.0 -8.2 -6.6 -8.2 -6.3 -8.2 -5.65 -8.2 -4.95 -8.2 -4.3 -8.3 -4.0 -8.5 -3.3 -8.7 -2.65 -9.0 -1.65 -9.2 -1.0 -9.45 -0.7 -9.4 -0.4 -9.3 0.0 -9.25 0.3 -9.2 0.65 -8.9 0.95 -8.55 1.35 -8.3 1.65 -8.2 1.95 -8.1 2.3 -7.85 2.6 -7.65 2.95 -7.55 3.3 -7.55 3.6 -7.55 3.95 -7.5 4.65 -7.4 5.3 -7.35 5.55 -6.95 5.9 -6.55 6.25 -6.2 6.5 -5.3 6.65 -3.15 7.1 -2.6 7.45 -2.0 7.7 -1.85 7.75 -0.95 8.0 5.1 8.0 5.45 7.7 6.1 7.3 6.55 7.0 6.85 6.65 7.2 6.35 7.9 6.05 8.2 5.7 8.7 4.65 10.15 2.6 11.7 0.45 11.7 0.05 11.7 -0.25 11.7 -0.55 11.7 -0.9 11.75 -1.2 11.8 -1.6 11.95 -1.9 12.15 -2.2 12.15 -2.55 12.15 -2.85 12.15 -3.25 12.15 -3.55 12.15 -3.85 12.0 -4.1 11.4 -4.55 10.75 -4.9 Q10.5 -5.0 10.15 -5.2 L9.15 -6.4 7.0 -8.95 4.9 -10.8 3.9 -11.15" fill="#663333" fill-opacity="0.2" fill-rule="evenodd" stroke="none"/>
    <path d="M1.55 -7.45 L2.1 -7.15 2.95 -6.75 3.3 -6.25 3.65 -5.75 3.65 -5.2 3.65 -4.7 3.65 -4.15 3.6 -3.65 3.45 -3.1 3.25 -2.6 2.9 -2.1 2.5 -1.5 2.2 -1.1 1.75 -0.5 0.7 -0.2 0.0 -0.2 -1.4 -0.3 -2.1 -0.35 -3.1 -0.7 -3.65 -1.2 -4.15 -1.75 -4.5 -2.25 -4.5 -2.8 -4.5 -3.3 -4.45 -3.8 -4.4 -4.35 -4.35 -5.4 -3.95 -5.9 -3.45 -6.4 -2.95 -6.95 -2.45 -7.45 -1.4 -7.7 -1.4 -7.8 0.7 -7.8 1.55 -7.45" fill="#ffffff" fill-opacity="0.2" fill-rule="evenodd" stroke="none"/>
    <path d="M0.0 -4.7 L4.15 -4.7 5.2 -4.35 5.65 -3.8 5.9 -3.3 6.05 -2.75 6.05 -2.25 6.05 -1.75 6.05 -0.7 6.05 -0.2 6.0 0.3 5.7 0.85 5.35 1.35 4.5 2.25 4.3 2.35 3.45 2.55 0.0 2.6 -1.2 2.25 -1.75 1.75 -2.25 1.2 -2.6 0.7 -2.6 0.15 -2.6 -0.35 -2.6 -0.85 -2.6 -1.9 -2.6 -2.45 -2.4 -2.95 -2.05 -3.45 -1.55 -3.95 -1.05 -4.35 -0.85 -4.45 0.0 -4.6 0.0 -4.7" fill="#ffffff" fill-opacity="0.2" fill-rule="evenodd" stroke="none"/>
    <path d="M14.9 -17.35 L15.25 -16.85 15.55 -16.3 15.8 -15.8 16.3 -15.25 16.65 -14.75 16.8 -14.2 16.8 -13.7 17.3 -13.15 17.7 -12.65 18.0 -12.15 18.2 -11.6 18.35 -11.1 18.4 -10.6 18.4 -10.05 18.5 -9.6 18.9 -9.0 19.4 -8.5 19.6 -8.0 19.75 -7.45 19.95 -6.95 20.1 -6.4 20.1 -5.9 20.1 -5.4 20.1 -4.85 19.95 -4.35 19.75 -3.8 19.55 -3.35 19.1 -2.8 18.75 -2.45 18.35 -2.3 17.35 -2.1 15.95 -2.45 15.25 -2.95 14.9 -3.45 14.75 -4.0 14.6 -4.5 14.55 -5.05 14.35 -5.55 14.05 -6.05 13.65 -6.55 13.2 -7.15 12.85 -7.65 12.5 -8.15 12.15 -8.65 11.25 -9.2 10.4 -9.7 9.35 -10.25 8.85 -10.75 8.3 -11.25 7.65 -11.8 6.25 -12.3 4.7 -12.85 3.15 -13.4 2.45 -13.7 1.4 -13.9 -0.15 -14.25 -1.2 -14.55 -2.25 -14.55 -2.6 -14.45 -5.7 -13.8 -8.45 -13.05 -10.25 -12.3 -11.1 -12.2 -11.8 -12.15 -13.0 -12.5 -13.7 -13.0 -14.05 -13.55 -14.2 -14.05 -14.25 -14.55 -14.25 -15.1 -14.25 -15.6 -14.25 -16.15 -14.15 -16.65 -13.9 -17.15 -13.55 -17.7 -12.65 -18.2 -11.8 -18.75 -11.3 -19.25 -10.25 -19.8 -9.55 -20.3 -8.85 -20.8 -7.8 -21.35 -7.1 -21.7 -6.25 -21.75 -6.25 -21.85 0.7 -21.85 1.85 -21.45 Q3.9 -20.55 6.05 -19.85 8.5 -19.0 11.1 -18.6 L14.2 -17.85 14.9 -17.35" fill="#ffffff" fill-opacity="0.2" fill-rule="evenodd" stroke="none"/>
    <path d="M8.3 11.8 L9.35 12.15 9.85 12.7 10.2 13.2 10.4 13.7 10.4 14.2 10.35 14.75 10.25 15.25 9.85 15.75 9.35 16.3 8.3 16.8 7.8 17.35 7.3 17.85 7.1 18.4 6.95 18.9 6.25 19.4 Q6.0 19.6 5.7 19.75 L-4.85 20.65 -10.4 20.65 -12.6 19.65 -15.05 18.15 -16.3 17.15 -16.5 16.65 -16.85 16.15 -17.0 15.6 -17.15 15.1 -17.35 14.55 -17.5 14.05 -17.85 13.55 -18.05 13.0 -18.2 12.5 -18.55 11.95 -18.9 11.45 -19.25 10.9 -19.9 9.85 -20.1 9.35 -20.65 8.85 -21.15 8.3 -21.5 7.8 -21.65 7.3 -21.7 6.75 -21.7 6.25 -21.7 5.7 -21.7 4.7 -21.6 4.2 -21.3 3.65 -20.8 3.15 -20.3 2.75 -19.45 2.7 -19.45 2.6 -18.05 2.6 -17.0 2.95 -16.3 3.5 -15.8 4.0 -15.45 4.5 -15.25 5.05 -15.15 5.55 -15.1 6.05 -15.1 6.6 -15.1 7.1 -14.9 7.6 -14.6 8.15 -14.4 8.65 -13.9 8.85 -12.85 9.2 -12.15 9.7 -11.3 10.25 -9.7 11.25 -9.0 11.6 -8.35 11.8 -7.65 11.95 -6.95 11.95 -5.55 12.35 Q-4.85 12.55 -4.15 12.85 L-3.3 13.2 0.15 12.7 4.15 11.8 8.3 11.8" fill="#ffffff" fill-opacity="0.2" fill-rule="evenodd" stroke="none"/>
    <path d="M4.9 -25.65 L4.9 -26.1 7.45 -25.3 Q11.55 -24.0 15.25 -21.4 L16.0 -20.75 15.9 -20.65 15.7 -20.45 15.55 -20.2 15.45 -20.0 15.3 -19.6 15.25 -19.45 13.4 -17.55 Q15.3 -16.15 16.7 -14.0 L19.15 -9.85 19.25 -9.95 17.4 -13.1 19.4 -15.05 20.15 -15.85 20.25 -15.95 20.45 -16.15 20.9 -15.5 Q22.85 -14.2 24.6 -8.8 L26.05 -3.9 26.15 -3.35 25.95 -3.45 21.6 -3.45 21.65 -3.4 21.7 -3.15 21.3 -3.15 21.3 -2.6 Q21.3 0.35 20.2 3.7 L19.35 5.95 19.45 5.95 20.25 3.7 20.65 2.65 26.2 2.65 25.5 6.45 25.55 6.55 Q24.9 8.7 22.6 11.65 L22.6 11.75 19.95 14.75 17.55 12.35 16.25 11.05 Q14.4 13.35 12.25 14.65 L11.9 15.1 12.05 14.95 16.0 18.9 Q13.5 21.05 10.75 22.2 7.85 23.25 4.9 23.7 L4.9 19.8 4.75 19.85 4.75 18.3 2.7 18.9 -1.25 19.05 -1.25 23.85 -4.4 23.45 Q-8.2 22.65 -12.2 20.3 L-14.4 18.75 -14.3 18.6 -11.6 15.9 -10.85 15.2 -14.75 11.85 -15.4 11.2 -18.7 14.45 Q-21.15 11.0 -22.6 8.15 L-23.8 2.85 -23.65 2.8 -19.55 2.8 -19.85 0.25 Q-20.05 -1.6 -19.85 -3.45 L-24.0 -3.4 -23.05 -7.5 Q-21.55 -11.6 -19.8 -14.95 L-19.15 -16.15 -16.3 -13.25 Q-14.6 -15.75 -12.25 -17.45 L-12.05 -17.6 -15.0 -20.55 -14.25 -21.05 Q-10.6 -23.25 -7.45 -24.75 -4.55 -26.2 -1.3 -26.6 L-1.3 -26.5 -1.3 -22.0 Q1.85 -22.3 4.9 -21.4 L4.9 -25.65 M8.65 -31.55 Q13.8 -29.9 18.35 -26.6 22.95 -23.3 25.45 -19.3 27.95 -17.65 30.05 -10.9 L30.05 -10.85 Q31.4 -7.3 32.0 -4.7 32.65 -2.15 32.25 1.85 32.0 5.8 31.3 8.3 L31.3 8.4 Q30.6 11.05 27.55 14.75 L27.55 14.8 21.2 22.1 Q17.55 26.1 12.8 27.95 8.1 29.8 3.4 30.0 L-6.15 29.45 Q-11.0 28.55 -15.9 25.6 -20.7 22.65 -23.9 18.4 -27.1 14.05 -29.0 10.4 -30.2 7.05 -30.8 1.6 -31.35 -3.9 -29.55 -9.2 -27.75 -14.4 -25.5 -18.65 -23.25 -23.25 -18.45 -26.15 -14.0 -28.95 -9.95 -30.95 -5.75 -33.0 -1.05 -33.1 3.55 -33.2 8.65 -31.55 M36.05 -32.0 Q30.55 -37.95 24.35 -41.25 19.15 -45.45 15.45 -46.5 11.55 -47.55 1.3 -47.8 -5.75 -47.95 -12.6 -44.8 -21.7 -42.9 -25.6 -37.75 -31.3 -34.05 -36.15 -27.3 -41.1 -20.55 -43.55 -12.95 L-43.55 -13.0 Q-45.95 -5.5 -45.8 1.25 -45.65 7.9 -43.25 14.05 -40.85 20.2 -36.1 27.0 -31.4 33.75 -24.85 37.05 -18.3 40.35 -10.3 43.15 L-10.25 43.2 Q-2.45 45.95 5.15 45.65 12.55 45.35 17.9 42.55 L17.95 42.55 30.25 35.3 Q36.55 31.2 40.8 24.65 45.05 18.0 46.4 9.95 47.8 1.7 47.25 -5.45 46.75 -12.45 44.15 -19.35 41.55 -26.1 36.05 -32.0 M6.05 -51.95 Q12.4 -51.45 16.45 -50.35 L16.5 -50.35 Q20.85 -49.25 26.85 -44.35 L26.9 -44.35 38.55 -34.2 Q44.95 -28.4 47.9 -20.8 50.75 -13.35 51.25 -5.75 L51.25 -5.7 Q51.8 1.85 50.35 9.6 48.85 17.35 44.15 25.1 39.45 32.85 32.55 37.95 25.6 43.0 19.8 46.1 14.4 48.0 5.7 48.95 -3.0 49.9 -11.6 46.95 -19.9 44.05 -26.75 40.55 -34.0 36.85 -38.75 29.25 -43.2 22.1 -46.35 15.65 -49.65 8.9 -49.8 1.35 -49.95 -6.0 -47.35 -14.2 -44.7 -22.35 -39.4 -29.65 -34.1 -37.05 -27.8 -41.1 L-27.75 -41.1 Q-25.15 -45.05 -14.3 -48.45 L-14.25 -48.45 Q-8.65 -50.55 -4.45 -51.5 L6.05 -51.95 M15.1 -12.7 L14.85 -13.0 Q13.6 -14.7 11.9 -16.05 L10.2 -17.25 7.95 -18.4 6.15 -19.05 5.35 -19.25 4.6 -19.45 -0.9 -19.75 -1.25 -19.75 Q-3.9 -19.65 -6.4 -18.6 L-7.75 -17.95 Q-9.65 -16.95 -11.25 -15.25 L-14.45 -11.45 -14.9 -10.95 -14.9 -10.85 Q-16.7 -8.75 -17.1 -7.2 L-17.2 -6.7 -17.6 -3.45 Q-17.9 -1.1 -17.5 0.3 L-16.75 2.8 -16.35 3.9 -15.25 6.85 Q-14.65 8.1 -13.9 8.7 L-13.75 8.8 Q-12.3 11.1 -9.6 13.05 L-9.1 13.4 Q-6.75 14.95 -4.15 15.85 L-4.0 15.9 Q-1.0 16.85 1.6 16.85 L4.75 16.35 6.8 15.55 8.0 14.95 11.75 12.75 Q13.75 11.5 15.0 9.8 L15.8 8.45 17.15 5.5 17.5 4.55 18.1 2.95 Q19.15 -0.1 18.95 -3.2 L18.9 -3.35 Q18.5 -6.4 17.8 -8.35 L17.25 -9.45 15.2 -12.6 15.1 -12.7 M4.0 -14.7 L8.15 -12.95 Q10.1 -11.9 11.45 -9.9 L13.5 -6.2 Q14.45 -4.3 14.5 -2.25 14.5 -0.25 13.75 2.0 13.05 4.25 11.7 6.2 10.15 8.3 8.45 9.3 7.7 10.4 4.75 11.35 L2.05 12.2 -0.75 12.25 -3.65 11.9 Q-4.8 11.55 -6.35 10.15 L-6.45 10.15 -9.65 7.45 Q-11.45 5.85 -12.25 3.75 -13.0 1.75 -13.1 -0.3 -13.35 -2.4 -12.85 -4.45 -12.4 -6.6 -11.2 -8.75 -9.9 -10.8 -8.0 -12.2 L-4.55 -14.45 -0.7 -15.25 Q1.7 -15.5 4.0 -14.7 M1.85 -13.45 L-0.6 -13.4 -2.95 -12.65 Q-5.5 -11.85 -6.15 -10.9 -7.65 -10.0 -9.0 -8.2 -10.15 -6.5 -10.75 -4.55 -11.4 -2.6 -11.4 -0.85 -11.35 0.95 -10.55 2.6 L-8.75 5.8 Q-7.6 7.55 -5.9 8.45 L-2.3 10.0 1.8 10.45 5.15 9.75 8.15 7.8 Q9.8 6.6 10.95 4.8 12.0 2.95 12.4 1.05 12.8 -0.7 12.6 -2.55 12.5 -4.3 11.85 -6.05 11.15 -7.9 9.6 -9.3 L6.8 -11.65 6.7 -11.65 4.4 -13.15 1.85 -13.45 M9.25 16.75 L9.25 16.8 Q10.25 16.4 11.05 15.8 L9.25 16.75 M29.7 -2.2 Q29.5 -6.05 27.85 -9.8 26.65 -15.5 23.4 -17.95 21.1 -21.55 16.85 -24.6 12.7 -27.65 7.9 -29.15 3.25 -30.65 -0.9 -30.6 -5.15 -30.5 -9.0 -29.0 -12.8 -27.5 -17.1 -24.55 -21.3 -21.6 -23.3 -17.45 -25.4 -13.4 -27.2 -8.4 L-27.25 -8.4 Q-28.9 -3.45 -28.65 1.3 -28.5 5.95 -26.75 9.2 L-26.75 9.25 -22.25 16.95 Q-19.7 20.85 -15.6 23.55 -11.45 26.15 -6.45 27.0 L3.2 27.55 Q7.6 27.3 11.95 25.6 16.1 23.95 19.8 20.6 23.5 17.15 25.55 13.3 28.2 9.95 28.85 7.75 29.4 5.65 29.65 0.85 L29.75 0.7 29.9 0.4 30.0 0.15 30.1 -0.1 30.15 -0.35 30.15 -0.65 30.15 -0.9 30.1 -1.15 30.05 -1.4 30.0 -1.65 29.85 -1.95 29.7 -2.2" fill="#333333" fill-rule="evenodd" stroke="none"/>
    <path d="M-32.95 25.0 L-32.55 25.2 -32.4 25.4 -32.4 25.65 -32.5 25.95 -32.6 26.05 -32.95 26.2 -33.55 26.4 -33.8 26.65 -34.15 26.9 -34.8 27.2 -35.85 27.7 -36.15 27.95 -36.4 28.2 -36.85 28.35 -37.5 28.35 -37.95 28.2 -37.9 27.95 -37.5 27.45 -36.75 26.65 -36.5 26.4 -35.95 26.15 -34.65 25.6 -34.4 25.35 -34.15 25.1 -33.7 24.95 -33.7 24.9 -32.95 25.0" fill="#333333" fill-rule="evenodd" stroke="none"/>
    <path d="M-24.7 25.1 L-28.95 28.55 -33.15 31.6 -35.6 33.6 -35.8 33.65 -36.15 33.75 -36.65 33.85 -37.0 34.0 -37.15 34.1 -37.5 34.2 -37.95 34.0 -38.1 33.75 -38.15 33.5 -38.0 33.25 -37.7 33.0 -37.2 32.7 -35.65 31.4 -33.9 30.3 -33.2 29.85 -30.7 27.45 -27.8 25.45 -25.75 24.2 -25.4 24.15 -25.4 24.1 -24.95 24.3 -24.75 24.55 -24.65 24.85 -24.7 25.1" fill="#333333" fill-rule="evenodd" stroke="none"/>
    <path d="M-26.1 31.2 L-26.05 31.15 -25.65 31.3 -25.5 31.6 -25.4 31.85 -25.45 32.1 -25.55 32.35 -25.65 32.6 -26.05 32.9 -26.45 33.15 -26.85 33.4 -27.1 33.65 -27.65 34.15 -28.25 34.7 -28.4 34.95 -28.6 35.2 -28.85 35.5 -29.0 35.75 -29.2 35.85 -29.65 36.0 -29.8 36.25 -30.0 36.5 -30.15 36.8 -30.3 37.05 -30.6 37.2 -30.85 37.05 -30.75 36.8 -30.5 36.25 -30.15 35.75 -30.2 35.5 -30.25 35.2 -29.25 33.7 -28.05 32.4 -26.5 31.3 -26.1 31.2" fill="#333333" fill-rule="evenodd" stroke="none"/>
    <path d="M35.45 26.55 L35.5 26.8 35.4 27.05 35.35 27.1 34.7 27.05 33.8 26.5 33.05 26.05 32.2 25.6 31.6 25.7 31.35 25.4 31.4 25.15 31.5 24.9 31.85 24.65 32.1 24.45 32.2 24.4 32.55 24.35 32.55 24.3 33.0 24.45 33.25 24.7 33.75 25.0 34.1 25.25 34.45 25.5 34.9 25.75 35.15 26.05 35.35 26.3 35.45 26.55" fill="#333333" fill-rule="evenodd" stroke="none"/>
    <path d="M31.0 20.05 L31.2 19.9 31.5 19.8 31.85 19.75 31.85 19.7 34.55 20.8 37.0 22.35 Q38.0 23.0 38.35 24.05 L38.7 24.3 38.95 24.55 38.6 24.65 38.2 24.35 37.75 24.45 37.25 24.3 35.65 23.25 33.5 21.85 31.1 20.8 30.95 20.55 30.9 20.3 31.0 20.05" fill="#333333" fill-rule="evenodd" stroke="none"/>
    <path d="M37.4 16.6 L37.4 16.55 38.8 16.55 39.4 16.75 40.1 17.0 40.35 17.25 40.55 17.4 40.85 17.55 41.4 17.7 41.55 17.95 41.4 18.2 41.2 18.25 40.85 18.25 40.25 18.15 39.85 18.3 39.5 18.2 38.95 18.3 38.55 18.3 38.25 18.15 38.2 18.1 37.4 17.95 36.95 17.8 36.75 17.5 36.7 17.25 36.75 17.05 36.95 16.75 37.4 16.6" fill="#333333" fill-rule="evenodd" stroke="none"/>
    <path d="M13.8 -26.45 L13.85 -26.7 14.05 -26.95 14.2 -27.2 14.3 -27.5 14.45 -27.75 14.6 -28.0 15.3 -28.5 16.5 -29.3 16.75 -29.5 16.95 -29.55 17.45 -29.75 18.15 -29.9 18.5 -30.1 18.65 -30.15 19.0 -30.2 19.0 -30.25 19.45 -30.1 19.6 -29.8 19.7 -29.55 19.6 -29.3 19.45 -29.05 17.0 -27.75 15.9 -26.95 15.3 -26.2 14.95 -25.9 14.5 -25.75 14.05 -25.9 13.85 -26.2 13.8 -26.45" fill="#333333" fill-rule="evenodd" stroke="none"/>
    <path d="M19.3 -36.6 L17.2 -34.2 15.6 -32.15 14.4 -30.6 14.05 -30.35 13.75 -30.1 13.55 -29.85 13.3 -29.55 13.1 -29.3 12.5 -29.2 12.35 -29.5 12.4 -29.75 12.5 -30.0 12.7 -30.25 12.95 -30.5 13.05 -30.8 13.1 -31.05 13.2 -31.3 14.75 -33.4 16.4 -35.4 17.65 -36.75 17.7 -37.0 17.8 -37.3 17.95 -37.55 18.3 -37.7 18.65 -37.75 18.65 -37.8 19.05 -37.6 19.2 -37.35 19.3 -37.1 19.3 -36.85 19.3 -36.6" fill="#333333" fill-rule="evenodd" stroke="none"/>
    <path d="M10.35 -35.1 L11.05 -35.1 11.45 -34.95 11.65 -34.65 11.75 -34.4 11.65 -34.15 11.45 -33.9 11.1 -33.65 10.95 -33.4 10.7 -33.1 10.6 -32.85 10.5 -32.6 10.25 -32.35 10.25 -32.1 10.15 -31.8 10.05 -31.6 9.8 -31.3 9.5 -31.2 9.3 -31.45 9.05 -31.75 9.05 -32.0 9.0 -32.25 9.0 -32.5 8.95 -32.75 9.05 -33.05 9.2 -33.3 9.3 -33.55 9.3 -33.8 9.4 -34.05 9.5 -34.35 9.65 -34.6 9.8 -34.85 10.0 -35.0 10.35 -35.05 10.35 -35.1" fill="#333333" fill-rule="evenodd" stroke="none"/>
    <path d="M-22.3 -15.65 L-22.25 -15.7 -21.9 -15.7 -21.5 -15.5 -21.2 -15.25 -20.95 -15.0 -20.7 -14.75 -20.45 -14.45 -20.25 -14.3 -20.15 -14.25 -19.8 -14.0 -19.65 -13.8 -19.65 -13.55 -19.75 -13.25 -19.85 -13.15 -20.2 -13.0 -20.55 -12.9 -20.95 -13.1 -21.2 -13.35 -21.5 -13.6 -21.75 -13.85 -22.1 -14.1 -22.45 -14.2 -22.7 -14.45 -22.9 -14.75 -22.95 -15.0 -22.9 -15.25 -22.7 -15.5 -22.3 -15.65" fill="#333333" fill-rule="evenodd" stroke="none"/>
    <path d="M-19.05 -18.9 L-19.15 -18.65 -19.25 -18.35 -19.25 -18.1 -19.2 -17.85 -19.1 -17.75 -18.6 -17.5 -18.2 -17.25 -17.95 -16.95 -17.85 -16.75 -17.95 -16.45 -18.0 -16.3 -18.1 -16.2 -18.45 -16.1 -18.95 -16.3 -19.9 -16.65 -20.2 -16.9 -20.45 -17.15 -20.45 -17.4 -20.45 -17.7 -20.45 -17.95 -20.4 -18.2 -20.35 -18.45 -20.25 -18.7 -20.0 -18.95 -19.75 -19.1 -19.3 -19.15 -19.05 -18.9" fill="#333333" fill-rule="evenodd" stroke="none"/>
    <path d="M27.55 14.05 L27.3 16.0 Q23.8 22.9 17.35 27.0 L16.95 27.75 Q-0.15 36.0 -14.8 24.7 0.35 32.55 15.55 26.0 21.1 21.3 25.85 15.65 L26.85 14.7 27.55 14.05" fill="#333333" fill-rule="evenodd" stroke="none"/>
  </g>
</svg>
