<?xml version="1.0" encoding="UTF-8" standalone="no"?>
<svg xmlns:xlink="http://www.w3.org/1999/xlink" height="67.15px" width="71.3px" xmlns="http://www.w3.org/2000/svg">
  <g transform="matrix(1.0, 0.0, 0.0, 1.0, 35.65, 33.55)">
    <path d="M2.6 -23.45 L2.8 -23.3 2.85 -23.4 Q2.95 -23.3 3.05 -23.3 L3.3 -23.3 3.5 -23.25 3.65 -23.2 3.65 -23.1 3.75 -23.1 Q3.95 -23.1 3.75 -22.95 L3.95 -22.95 4.45 -22.65 4.8 -22.4 5.95 -21.2 5.9 -21.1 5.95 -20.9 6.1 -20.7 6.3 -20.45 6.2 -20.45 6.15 -20.4 6.6 -19.9 6.75 -19.55 6.8 -19.3 6.75 -19.2 6.95 -19.0 6.95 -18.7 7.0 -18.7 7.1 -18.5 7.0 -18.25 7.25 -18.25 7.35 -17.85 7.3 -17.55 7.45 -17.4 7.55 -17.15 7.45 -17.15 7.45 -17.1 7.55 -16.45 Q7.7 -16.05 7.45 -15.8 L7.5 -15.85 7.55 -15.9 7.7 -15.75 7.65 -15.6 7.7 -14.9 7.65 -14.25 7.7 -14.0 7.75 -13.65 7.7 -13.55 7.65 -13.4 7.7 -13.35 7.75 -13.3 7.65 -13.05 7.55 -12.95 7.65 -12.95 7.55 -12.3 7.65 -12.3 7.5 -12.2 7.55 -12.05 7.55 -12.1 7.6 -11.75 7.55 -11.45 7.5 -11.2 7.45 -10.95 7.45 -10.45 7.45 -10.3 7.3 -10.3 7.45 -9.9 7.3 -9.75 7.25 -9.65 7.2 -9.45 7.25 -9.45 7.0 -8.9 6.8 -8.35 6.8 -7.95 6.6 -7.9 Q6.8 -7.45 6.6 -7.15 L6.5 -6.7 6.3 -6.3 6.1 -6.3 6.3 -6.1 6.1 -5.45 5.95 -5.3 5.8 -5.25 5.85 -5.1 5.95 -5.1 5.95 -5.05 5.8 -5.0 5.65 -4.7 5.5 -4.6 5.3 -4.5 Q5.5 -4.25 5.0 -3.7 L5.1 -3.7 4.95 -3.65 4.8 -3.7 4.85 -3.5 4.9 -3.45 Q4.9 -2.8 4.6 -2.5 L4.1 -2.6 4.2 -2.25 4.1 -1.95 4.1 -1.75 4.1 -1.7 3.5 -0.85 3.5 -0.65 3.35 -0.35 3.1 -0.15 3.15 0.0 3.1 0.15 2.8 0.7 2.6 1.0 2.5 1.1 2.45 1.2 2.45 1.35 2.3 1.45 2.15 1.55 2.25 1.6 2.25 1.65 1.8 2.2 1.8 2.5 1.55 2.8 1.5 2.95 1.6 3.0 1.55 3.15 1.4 3.0 1.45 3.15 1.55 3.2 1.1 3.85 0.8 4.5 0.8 4.55 0.65 4.55 Q0.65 5.3 0.15 5.65 L0.15 5.6 0.0 5.8 -0.25 5.85 -0.05 6.0 -0.25 6.2 -0.25 6.3 -0.4 6.6 -0.5 6.85 -0.75 7.35 -0.8 7.45 -0.75 7.45 -0.9 7.65 -0.95 7.75 -0.9 7.8 -1.1 8.35 -1.1 8.25 -1.25 8.5 -1.45 8.4 -1.25 8.65 -1.25 9.0 -1.35 9.3 -1.45 9.7 -1.55 10.25 -1.65 10.25 -1.75 10.3 -1.75 10.6 -2.05 10.9 -2.0 10.95 -1.85 11.1 -1.7 11.4 -1.85 11.75 -2.0 11.9 -2.05 12.0 -2.0 12.25 -2.05 12.35 -2.0 12.4 -2.0 12.45 -2.0 12.65 -2.15 13.15 -2.25 13.75 -2.05 13.75 -2.05 13.8 -2.5 13.95 -2.35 14.05 Q-2.25 14.1 -2.25 14.0 L-2.2 14.1 -2.05 14.25 -2.25 14.25 -2.05 14.45 -2.1 14.7 -2.05 14.9 -2.2 15.0 -2.2 15.1 -1.95 15.6 -1.55 15.95 -1.25 15.85 -0.9 15.95 -0.6 15.85 -0.25 15.95 -0.15 15.85 -0.05 15.75 0.05 15.85 0.15 15.95 Q0.35 15.8 0.4 15.8 L0.65 15.95 0.75 16.05 0.9 16.05 0.85 15.9 0.9 15.75 3.0 15.95 2.9 16.0 2.85 16.05 3.0 16.15 3.1 15.75 3.25 15.8 3.3 15.75 3.75 15.75 4.15 16.05 4.25 16.1 4.15 16.4 Q4.15 16.15 4.3 16.05 L4.6 15.95 4.65 15.95 4.65 16.05 4.75 15.95 4.65 15.75 4.75 15.7 4.8 15.75 4.95 15.85 5.0 16.05 5.0 15.75 5.1 15.75 5.15 15.85 5.25 15.95 5.1 16.05 5.1 16.15 5.25 16.15 5.25 16.0 5.25 15.75 5.3 15.75 5.45 15.85 5.55 15.95 5.65 15.75 5.85 16.0 5.95 16.15 5.95 16.05 5.9 15.9 Q5.85 15.75 5.95 15.75 L6.0 15.9 6.1 16.15 6.15 16.05 6.1 15.95 6.25 15.85 6.4 15.65 6.55 15.75 6.75 15.95 Q6.75 15.65 6.95 15.95 7.0 15.65 7.3 15.65 L7.45 15.7 7.55 15.75 7.35 16.0 7.25 16.15 7.45 16.15 7.55 16.25 7.45 16.35 7.3 16.4 7.4 16.45 7.45 16.6 7.3 16.65 7.3 16.8 Q7.75 16.95 7.55 17.25 L7.45 17.4 7.55 17.4 7.5 17.5 7.55 17.45 7.65 17.5 7.45 18.25 7.45 18.5 7.55 18.8 7.5 19.15 7.65 19.45 7.6 19.55 7.55 19.7 7.45 20.8 7.5 21.0 7.55 21.25 7.3 21.45 7.55 21.55 7.55 21.8 7.45 21.8 7.55 21.95 7.5 22.25 7.3 22.55 7.3 22.8 7.45 22.8 7.45 22.75 7.5 22.9 7.55 23.05 7.55 23.25 7.45 23.25 7.65 23.45 7.3 23.55 7.25 23.6 7.25 23.7 7.1 23.6 6.95 23.55 7.0 23.65 7.0 23.75 6.7 23.8 Q6.5 23.8 6.4 23.9 L6.3 23.8 6.15 23.75 6.1 23.8 6.0 23.75 0.9 23.75 -1.25 23.9 -3.35 23.75 -3.55 23.8 -3.75 23.75 -3.85 23.8 -3.85 23.75 -4.3 23.8 -4.8 23.75 -4.85 23.8 -4.9 23.9 -7.8 23.75 -7.9 23.7 -7.85 23.55 -7.95 23.6 -8.15 23.7 -8.15 23.55 -8.2 23.3 -8.25 23.15 -8.15 22.95 -8.15 22.8 -8.2 21.8 -8.15 21.8 -8.2 21.1 -8.2 19.95 -8.15 19.9 -8.25 19.3 -8.15 18.8 -8.2 18.7 -8.2 18.6 -8.2 17.5 -8.25 17.3 -8.2 17.1 -8.2 16.9 -8.05 16.95 -7.9 16.9 -8.05 16.7 -8.2 16.45 -8.15 16.35 -8.0 16.25 -8.1 16.2 -8.15 16.15 Q-8.2 15.95 -7.85 15.95 L-7.85 15.65 -7.9 15.85 -8.0 15.95 -8.2 14.95 -8.0 14.9 Q-7.95 14.75 -8.05 14.7 L-8.2 14.5 -8.2 14.15 -8.15 14.15 -8.15 13.95 -8.0 13.85 -7.85 13.75 -8.0 13.5 -8.15 13.75 -8.2 13.6 -8.35 13.5 -8.15 13.35 -8.15 13.3 -8.2 13.15 -8.15 12.75 -8.0 12.35 -8.05 12.2 -8.2 12.0 -8.15 12.0 -8.2 11.75 -8.1 11.5 -8.0 11.3 -8.1 11.3 -8.15 11.15 -8.05 10.85 -8.15 10.5 -8.0 10.4 -7.9 10.3 -8.0 10.1 -7.9 9.8 -7.8 9.9 -7.8 10.0 -7.9 9.6 -7.8 9.3 -7.85 9.3 -7.7 8.95 -7.35 8.7 -7.35 8.65 -7.35 8.55 -7.25 8.5 -7.25 8.35 -7.35 8.3 -7.35 8.25 -7.35 8.15 -7.85 8.0 -7.55 7.85 -7.25 7.85 -7.3 7.75 -7.25 7.65 -7.15 7.65 -7.25 7.6 -7.6 7.25 -7.5 6.85 -7.45 6.45 -7.25 6.1 -7.25 6.2 -7.15 6.1 -7.05 6.0 -7.05 5.95 -7.05 5.8 -7.25 5.8 -7.1 5.5 -6.9 5.3 -7.05 5.1 -7.05 4.95 -6.95 4.85 -6.85 4.85 -6.85 4.65 -6.7 4.5 -6.65 4.5 -6.55 4.25 -6.65 3.85 -6.65 3.8 -6.5 3.95 -6.4 4.0 -6.4 3.8 -6.25 3.85 -6.45 3.65 -6.5 3.55 -6.3 3.4 -6.0 3.35 -6.2 3.35 -6.25 3.2 -6.2 3.15 -6.0 3.0 -6.1 2.85 -6.2 2.7 -6.15 2.5 -5.9 2.5 -6.0 2.45 -5.85 2.3 -5.7 2.2 -5.8 2.1 -5.7 2.0 -5.55 2.0 -5.5 2.1 -5.5 2.0 -5.35 2.0 -5.55 1.95 -5.55 1.8 -5.5 1.8 -5.5 1.55 -5.35 1.35 Q-5.35 1.2 -5.5 1.2 L-5.35 1.1 -5.25 0.9 -5.1 1.0 -5.05 0.7 -5.1 0.7 -5.1 0.6 -5.05 0.55 -4.85 0.5 -4.75 0.4 -4.7 0.3 -4.9 0.35 -5.05 0.3 -4.7 -0.1 Q-4.5 -0.3 -4.65 -0.55 L-4.35 -0.65 -4.25 -0.85 -4.4 -0.85 -4.25 -1.0 -4.05 -1.1 -4.2 -1.15 -4.25 -1.2 -3.9 -1.75 -3.65 -2.35 -3.55 -2.2 -3.55 -2.4 -3.35 -2.45 -3.2 -2.5 -3.2 -2.65 -3.35 -2.8 -3.2 -3.05 -3.05 -3.2 -2.95 -3.2 -2.85 -3.15 -2.7 -3.25 -2.5 -3.45 Q-2.6 -3.35 -2.6 -3.4 L-2.7 -3.5 -2.85 -3.5 -2.85 -3.6 -2.85 -3.7 -2.7 -3.75 -2.5 -4.35 -2.4 -4.6 -2.25 -4.85 -2.15 -4.8 -2.05 -4.7 -2.05 -4.6 -2.0 -4.45 -1.85 -4.35 -1.85 -4.5 -1.75 -4.5 -1.55 -4.5 Q-1.55 -4.75 -1.7 -4.75 L-2.05 -4.85 -2.1 -5.0 -2.0 -5.25 -2.05 -5.25 -1.75 -5.65 -1.65 -5.9 -1.55 -6.0 -1.5 -6.0 -1.35 -5.95 -1.25 -5.95 -1.3 -6.0 -1.25 -6.0 -1.3 -6.05 -1.35 -6.1 -0.9 -6.7 -1.05 -6.7 -0.9 -6.75 -0.9 -6.8 -0.9 -7.0 -0.95 -7.1 -0.9 -7.15 -0.75 -7.45 -0.65 -7.55 -0.55 -7.65 -0.35 -7.6 -0.55 -7.9 -0.45 -8.1 -0.25 -8.3 -0.35 -8.45 -0.25 -8.6 0.0 -8.85 0.15 -9.0 0.1 -9.15 0.0 -9.15 0.45 -10.0 0.5 -10.25 0.65 -10.45 0.65 -10.75 0.65 -10.95 0.9 -10.95 0.85 -11.0 0.8 -11.0 0.85 -11.2 0.9 -11.4 Q0.8 -11.8 1.05 -12.4 L1.1 -12.3 1.25 -12.3 1.25 -12.4 1.1 -12.45 1.1 -12.4 0.95 -12.7 0.9 -13.1 1.1 -13.15 1.0 -13.6 0.8 -14.1 0.9 -14.15 1.05 -14.25 0.9 -14.3 0.8 -14.45 0.8 -14.65 0.65 -14.9 0.65 -15.15 0.25 -15.9 0.2 -15.95 0.15 -16.05 -0.5 -16.3 -0.8 -16.35 -1.1 -16.25 -1.2 -16.3 -1.25 -16.3 -1.65 -16.1 -2.05 -15.8 -2.1 -15.9 -2.2 -15.9 -2.2 -15.6 -2.4 -15.25 -2.65 -14.9 -2.65 -14.8 -2.7 -14.7 -2.7 -14.55 -2.65 -14.45 -2.85 -14.05 -2.9 -13.3 -2.85 -13.3 -2.9 -12.9 Q-2.95 -12.75 -3.2 -12.75 L-3.05 -12.6 Q-2.9 -12.55 -2.9 -12.5 L-3.05 -12.4 -3.05 -12.3 -3.05 -12.1 -3.2 -12.1 -2.9 -12.05 -3.0 -11.85 -3.2 -11.65 -3.1 -11.65 -3.05 -11.6 -3.0 -11.4 -2.9 -11.25 -3.4 -10.85 -3.35 -10.85 -3.35 -10.8 -3.35 -10.75 -3.4 -10.75 -3.3 -10.65 -3.2 -10.75 Q-2.9 -10.25 -3.05 -10.1 L-3.15 -10.05 -3.2 -10.1 -3.35 -10.1 -3.25 -9.95 -3.35 -9.8 -3.05 -9.9 -3.0 -9.5 -3.05 -9.0 -3.05 -8.95 -3.2 -8.95 -3.05 -8.8 -3.45 -8.7 -3.85 -8.75 -4.4 -8.6 -4.65 -8.8 -4.7 -8.75 -4.75 -8.75 -4.85 -8.8 -5.15 -8.7 -5.35 -8.75 -5.55 -8.65 -5.7 -8.75 -5.8 -8.75 -5.75 -8.95 -5.9 -8.85 -6.0 -8.95 -5.9 -8.75 -6.4 -8.6 -6.45 -8.7 -6.5 -8.8 -6.6 -8.75 -6.7 -8.75 -7.05 -8.75 -7.5 -8.6 -7.5 -8.75 -7.7 -8.6 -7.85 -8.6 -8.15 -8.65 -8.4 -8.75 Q-8.6 -9.05 -8.4 -9.45 L-8.35 -9.6 Q-8.4 -9.45 -8.4 -9.65 L-8.45 -9.95 -8.4 -10.1 -8.55 -10.1 -8.5 -10.4 -8.4 -10.75 -8.45 -10.95 -8.4 -11.0 -8.5 -11.3 -8.4 -11.6 -8.4 -11.65 -8.55 -12.1 -8.4 -12.3 -8.15 -12.4 -8.2 -12.5 -8.15 -12.6 -8.2 -12.75 -8.3 -12.65 -8.4 -12.6 -8.55 -12.55 -8.55 -12.6 -8.5 -13.0 -8.55 -13.4 -8.4 -13.4 -8.5 -13.6 -8.55 -13.8 -8.5 -13.9 -8.4 -13.9 -8.45 -14.15 -8.2 -14.3 -8.15 -14.1 -8.1 -14.15 -8.0 -14.25 -8.35 -14.7 -8.5 -14.85 -8.55 -15.15 -8.35 -15.3 -8.2 -15.45 -8.15 -15.45 -8.25 -15.5 -8.35 -15.6 -8.35 -15.75 -8.2 -15.9 -8.35 -16.0 -8.35 -16.1 Q-8.2 -16.3 -8.2 -16.6 L-8.15 -17.1 -8.0 -17.3 -7.95 -17.3 -7.9 -17.3 -7.95 -17.4 -8.0 -17.55 -7.9 -17.55 -8.0 -17.75 -7.9 -17.95 -7.9 -18.55 -7.9 -18.7 -7.85 -18.75 -7.65 -19.2 -7.5 -19.7 -7.4 -19.8 -7.25 -19.9 -7.35 -19.95 -7.15 -20.15 -6.9 -20.4 -7.05 -20.45 -6.75 -20.9 -6.5 -21.3 -6.35 -21.45 -6.4 -21.6 -5.25 -22.7 Q-5.05 -22.55 -5.05 -22.7 L-4.85 -22.95 -4.55 -23.05 -4.25 -23.1 -4.25 -23.2 -4.2 -23.3 Q-4.05 -23.3 -4.05 -23.1 L-4.0 -23.1 -4.05 -23.1 -4.05 -23.2 -3.95 -23.35 -3.85 -23.4 -4.0 -23.4 -3.4 -23.7 -2.85 -23.95 -2.6 -23.9 -2.4 -23.95 -2.35 -23.85 -2.25 -23.75 -2.2 -23.45 Q-2.1 -23.5 -2.15 -23.65 L-2.25 -23.95 -2.2 -24.0 -2.05 -24.05 -1.85 -24.05 -1.85 -23.95 -1.3 -24.1 -0.9 -24.2 -0.9 -24.1 -0.75 -24.05 -0.7 -24.2 -0.6 -24.15 -0.55 -24.05 -0.55 -24.2 0.15 -24.05 0.15 -24.2 0.4 -24.05 0.4 -23.95 0.55 -24.0 0.65 -23.95 0.9 -24.05 1.0 -24.0 1.1 -24.05 1.35 -24.0 1.55 -23.75 1.65 -23.9 1.8 -23.75 2.1 -23.6 2.45 -23.45 2.45 -23.55 2.6 -23.55 2.6 -23.45 M0.65 -23.95 L0.6 -23.75 0.65 -23.95 M0.4 -17.15 Q0.15 -17.3 0.15 -16.75 L0.2 -16.7 0.25 -16.7 0.45 -16.95 0.4 -17.15 M-2.25 -4.1 L-2.25 -4.15 -2.4 -4.3 -2.4 -4.35 -2.5 -4.35 -2.4 -4.1 -2.25 -4.1 M-2.25 -1.45 L-2.0 -1.2 -2.1 -1.45 -2.25 -1.5 -2.3 -1.45 -2.25 -1.45 -2.4 -1.3 -2.25 -1.3 -2.25 -1.45 M-3.95 -0.9 L-3.85 -0.8 -3.75 -0.85 -3.95 -0.9 M-4.05 -1.1 L-4.05 -1.0 -4.0 -1.2 -4.05 -1.2 -4.05 -1.1 M-4.05 -0.15 L-3.95 -0.6 -3.95 -0.65 -4.0 -0.65 -4.0 -0.6 -4.05 -0.55 -4.05 -0.65 -4.25 -0.65 -4.25 -0.35 -4.05 -0.15 M-4.0 -0.1 Q-3.85 -0.1 -4.0 -0.15 L-4.0 -0.1 M-4.0 -0.65 L-4.0 -0.75 -4.05 -0.8 -4.0 -0.65 M-3.55 0.7 L-3.4 0.7 -3.55 0.55 -3.55 0.7 M-5.2 1.8 L-5.35 1.65 -5.3 1.9 -5.35 2.0 -5.25 2.05 -5.1 2.1 -5.1 2.0 -5.05 2.0 -5.2 1.8 M-6.25 5.6 L-6.2 5.6 -6.2 5.35 -6.2 5.3 -6.25 5.3 -6.25 5.6 M-5.05 8.0 L-5.1 8.05 -5.1 8.1 -5.0 8.2 -4.85 8.15 -5.05 8.0 M-1.05 7.8 L-1.15 7.65 -1.25 7.6 -1.3 7.65 -1.35 7.8 -1.1 7.85 -1.05 7.8 M-8.0 14.15 L-7.95 14.2 -7.9 14.15 -8.0 14.15 M-7.85 16.25 L-7.9 16.4 -7.85 16.4 -7.85 16.25 M-8.0 23.25 L-7.95 23.0 -8.0 22.95 -8.0 23.25 M7.3 17.05 L7.25 17.05 7.25 17.1 7.3 17.25 7.3 17.05" fill="#ffffff" fill-rule="evenodd" stroke="none"/>
    <path d="M-14.4 -23.95 L-13.65 -23.95 -13.2 -23.7 -12.85 -23.75 -12.85 -23.95 -12.7 -24.0 -12.65 -23.9 -12.55 -23.65 -12.7 -23.5 -12.65 -23.4 -12.4 -23.4 -12.65 -23.1 -12.4 -22.85 -12.2 -22.75 -12.75 -22.35 Q-13.1 -22.1 -12.85 -21.85 L-12.5 -21.9 -12.35 -22.1 Q-12.35 -22.0 -12.7 -21.65 -12.95 -21.4 -12.65 -21.25 L-12.4 -21.3 -12.35 -21.55 -12.2 -21.55 Q-12.1 -21.3 -12.25 -21.15 -12.3 -21.05 -12.65 -20.85 L-12.5 -20.5 -12.35 -20.2 -12.15 -18.95 -12.2 -17.6 -12.2 -17.5 -12.05 -17.35 Q-11.9 -16.4 -12.3 -16.2 L-12.2 -15.85 -12.3 -15.45 -12.05 -14.5 Q-12.0 -14.0 -12.3 -13.9 L-12.4 -13.3 Q-12.35 -12.95 -12.55 -12.75 L-12.3 -12.6 -12.5 -12.25 -12.65 -11.9 Q-12.15 -11.5 -12.3 -10.85 L-12.75 -9.75 Q-12.75 -9.6 -12.55 -9.6 L-12.3 -9.6 -12.3 -10.05 Q-12.15 -9.3 -12.15 -7.9 L-12.25 -7.9 -12.3 -7.8 -12.2 -7.15 -12.3 -6.6 -12.2 -6.45 -12.15 -6.4 -12.1 -5.4 -12.05 -4.4 -12.25 -4.35 Q-12.4 -4.25 -12.2 -4.1 L-12.15 -4.0 -12.05 -3.9 -12.15 -3.6 Q-12.3 -3.35 -12.05 -3.15 L-12.2 -3.0 -12.2 -2.9 -12.2 -2.3 Q-12.2 -1.9 -12.5 -1.75 L-12.1 -1.5 -12.05 -1.15 -12.2 0.05 Q-12.1 0.8 -12.15 2.2 L-12.15 4.4 -12.15 5.55 -12.4 6.8 -12.3 6.95 -12.15 7.2 -12.25 8.35 -12.15 9.4 -12.25 11.8 -12.15 14.15 -12.3 14.35 -12.5 14.65 Q-12.25 14.8 -12.25 15.1 L-12.35 15.65 -12.25 16.9 Q-12.2 17.65 -12.4 18.15 L-12.45 18.55 -12.7 18.9 -12.7 19.05 -12.4 19.15 -12.55 19.45 -12.35 20.05 -12.5 21.0 -12.4 22.0 -12.5 22.8 -12.4 23.45 -12.7 23.55 -13.0 23.8 -12.9 23.85 -13.75 23.8 -14.55 23.65 -14.55 23.5 Q-14.55 23.35 -14.7 23.4 L-14.85 23.45 -15.05 23.85 -16.2 23.85 -17.35 23.85 -17.3 23.8 Q-17.3 23.65 -17.4 23.65 L-17.55 23.85 -18.1 23.8 -18.8 23.5 -18.85 23.75 Q-18.95 23.95 -19.05 23.85 L-19.8 23.8 -20.7 23.85 -20.7 23.5 -20.9 23.25 -21.0 23.05 -21.1 21.65 -21.0 20.35 -20.9 20.45 Q-20.8 20.2 -21.0 19.85 L-21.05 19.3 -21.0 19.2 -20.9 19.05 Q-20.9 18.9 -21.05 18.9 L-21.0 18.15 -21.15 15.45 -21.15 12.75 -21.15 9.85 -21.05 6.9 Q-20.85 6.1 -20.95 5.4 -21.1 4.45 -21.8 4.25 L-25.6 4.15 -25.5 4.0 -25.45 4.0 -25.5 3.75 -25.6 3.65 -25.9 3.6 -26.15 3.75 -26.15 4.0 -25.95 4.15 -26.45 4.85 -26.65 7.7 Q-26.8 9.45 -26.6 10.65 L-26.65 10.85 -26.7 10.9 -26.75 12.8 -26.6 14.7 -26.7 14.8 -26.85 14.9 -26.6 15.3 -26.6 17.3 Q-26.55 18.55 -26.65 19.3 L-26.65 19.65 -26.75 21.15 Q-26.8 22.05 -27.15 22.65 -26.85 22.75 -26.9 23.1 L-27.05 23.7 -27.3 23.7 -27.35 23.5 -28.65 23.6 -29.85 23.7 -29.9 23.55 -30.0 23.5 -30.75 23.7 -31.45 23.65 -32.2 23.7 -33.15 23.8 -33.25 23.7 -33.35 23.6 -33.85 23.6 -34.45 23.8 -34.75 23.75 -34.95 23.35 -35.2 23.55 -35.35 23.6 -35.55 22.85 -35.65 21.95 -35.35 21.85 -35.35 21.65 -35.45 21.45 -35.65 21.45 -35.35 21.15 -35.3 20.85 -35.4 20.7 -35.5 20.55 -35.55 17.7 -35.5 14.8 -35.5 14.6 -35.35 14.5 -35.5 13.9 -35.45 13.2 -35.65 11.65 -35.45 9.9 -35.45 6.9 -35.3 6.6 -35.25 6.35 -35.45 5.8 -35.6 5.25 Q-35.35 5.25 -35.45 5.0 L-35.5 1.05 -35.4 0.75 -35.3 0.5 -35.45 0.0 -35.45 -0.45 Q-35.1 -0.45 -35.1 -0.6 -35.1 -0.75 -35.3 -0.7 L-35.5 -0.65 -35.5 -3.8 -35.5 -6.95 -35.15 -6.85 -35.0 -6.95 -35.3 -7.4 Q-35.55 -7.7 -35.3 -8.05 L-35.5 -8.15 -35.35 -8.95 -35.15 -9.75 -35.35 -9.8 -34.95 -11.05 -35.05 -11.3 -35.35 -11.3 -35.15 -11.9 -35.35 -11.95 -35.4 -14.05 -35.3 -16.2 -35.4 -17.25 -35.35 -18.4 -35.15 -18.65 -35.0 -18.95 -35.2 -19.55 -35.35 -20.2 -34.85 -20.2 Q-34.6 -20.25 -34.75 -20.6 L-35.0 -20.65 -35.1 -20.45 Q-35.3 -21.15 -35.1 -21.95 L-35.0 -22.7 -34.95 -23.4 Q-34.85 -23.65 -34.45 -23.75 L-33.8 -23.95 -33.1 -24.1 -30.3 -24.2 -29.7 -24.05 -29.2 -24.05 -29.5 -23.75 -29.65 -23.4 -29.4 -23.25 -29.2 -23.2 -28.95 -23.45 -28.8 -23.7 -28.85 -24.05 -27.9 -24.0 -26.85 -24.05 -27.35 -23.85 -27.6 -23.6 -27.25 -23.5 -26.8 -23.4 Q-26.5 -23.0 -26.5 -22.3 L-26.35 -21.2 -26.6 -21.0 -26.95 -20.85 -27.1 -20.5 -27.35 -20.1 -27.25 -19.75 Q-27.1 -19.6 -26.95 -19.6 -26.55 -19.8 -26.8 -20.45 -26.55 -20.35 -26.55 -19.9 L-26.45 -19.35 -26.75 -19.35 -26.95 -19.2 -26.95 -18.95 -26.8 -18.75 -26.45 -18.75 -26.65 -18.25 -26.65 -17.7 -26.75 -17.15 -26.6 -16.45 Q-26.4 -16.2 -26.35 -15.7 L-26.35 -14.9 -26.55 -14.75 -26.7 -14.7 -26.5 -13.15 -26.35 -11.65 Q-26.35 -11.55 -26.55 -11.55 L-26.8 -11.45 -26.55 -11.35 -26.35 -11.2 -26.4 -10.45 -26.8 -9.9 Q-26.5 -9.7 -26.5 -9.2 L-26.35 -8.45 -26.55 -8.35 -26.8 -8.25 -26.7 -7.9 -26.35 -7.55 -26.6 -7.35 -26.8 -7.15 -26.7 -7.05 -26.6 -6.95 Q-26.6 -6.8 -26.95 -6.8 -27.3 -6.8 -27.3 -6.6 L-27.2 -6.5 -27.05 -6.4 -26.85 -6.4 -26.8 -6.5 -26.65 -6.4 -26.5 -6.3 Q-26.8 -5.2 -26.0 -5.1 L-25.1 -4.7 -24.2 -4.65 -23.4 -4.75 -22.65 -4.9 -22.55 -4.65 -21.7 -4.8 Q-21.2 -4.9 -21.15 -5.25 -20.95 -5.85 -20.9 -6.7 L-20.9 -8.25 -21.05 -9.75 -20.9 -11.3 -20.75 -11.95 -20.5 -12.65 -20.65 -12.8 -20.9 -12.9 -20.8 -14.0 Q-20.7 -14.75 -20.9 -15.25 L-20.7 -15.15 -20.55 -15.05 -20.5 -15.25 Q-20.6 -15.45 -20.9 -15.45 L-20.9 -16.25 -20.8 -16.9 -21.0 -17.15 -20.9 -19.0 -20.85 -20.75 -20.9 -21.3 -20.85 -21.75 -20.65 -22.1 -20.15 -21.95 Q-20.05 -21.95 -20.05 -22.25 L-20.3 -22.45 -20.65 -22.5 -20.7 -23.25 -20.55 -23.7 -18.7 -24.15 -16.7 -23.95 -16.6 -23.65 -16.4 -23.5 -16.1 -23.8 -15.9 -23.95 -15.45 -24.0 -15.05 -23.95 -14.4 -23.95 M-14.7 -23.4 Q-14.8 -23.2 -14.55 -23.15 L-14.0 -23.25 -13.9 -23.3 -13.85 -23.4 -13.95 -23.7 -14.4 -23.65 -14.7 -23.4 M-16.4 -22.75 L-16.05 -23.1 -16.4 -23.1 -16.4 -22.75 M-14.85 -22.75 L-15.05 -22.8 -15.15 -22.85 -15.2 -22.75 -15.1 -22.65 -14.85 -22.75 M-15.2 -22.3 L-15.35 -22.05 -15.15 -21.85 -14.95 -22.1 -14.85 -22.3 -14.85 -22.55 -15.2 -22.3 M-14.4 -22.05 L-14.6 -21.8 -14.7 -21.6 -14.55 -21.45 -14.2 -21.55 -14.15 -21.85 -14.2 -22.0 -14.4 -22.05 M-16.2 -20.55 L-16.35 -20.35 -16.05 -20.2 -16.05 -20.1 -15.9 -20.1 -16.05 -20.35 -15.9 -20.6 -16.2 -20.55 M-13.2 -17.25 L-13.2 -16.95 -13.0 -17.0 -13.0 -17.25 -13.2 -17.25 M-13.5 -17.45 L-13.65 -17.55 -13.65 -17.35 -13.5 -17.45 M-15.3 -14.7 L-15.05 -14.8 -15.15 -15.0 -15.3 -15.1 -15.4 -14.95 -15.5 -14.75 -15.3 -14.7 M-15.25 -12.75 L-15.35 -12.6 -15.3 -12.4 Q-15.15 -12.4 -15.1 -12.5 L-15.0 -12.75 -15.15 -12.8 -15.25 -12.75 M-19.45 -23.6 L-19.7 -23.5 -19.8 -23.25 -19.7 -23.1 -19.2 -22.7 Q-18.8 -22.55 -18.8 -22.85 -18.75 -22.95 -18.95 -22.95 -19.2 -22.95 -19.3 -23.1 L-19.3 -23.25 -19.15 -23.5 -19.45 -23.6 M-17.35 -23.5 L-17.55 -23.4 Q-17.55 -23.3 -17.35 -23.3 -17.15 -23.3 -17.15 -23.4 L-17.35 -23.5 M-17.85 -22.05 L-17.7 -22.1 -17.65 -22.1 -18.15 -22.0 -17.85 -22.05 M-17.05 -22.85 L-16.85 -22.85 Q-16.7 -23.1 -16.9 -23.1 L-17.15 -23.1 -17.05 -22.85 M-31.15 -22.55 L-31.0 -22.4 -30.8 -22.5 -30.6 -22.6 Q-30.5 -22.7 -30.55 -22.8 -30.6 -22.95 -30.8 -22.95 L-31.1 -22.95 -31.15 -22.55 M-32.6 -22.55 L-32.7 -22.0 -32.45 -21.45 -32.25 -21.5 -32.1 -21.6 -32.2 -21.95 -32.35 -22.5 -32.6 -22.55 M-27.6 -21.95 L-27.45 -21.75 -27.35 -21.95 -27.45 -22.05 -27.6 -21.95 M-29.1 -21.1 L-29.1 -20.85 -28.95 -20.75 Q-28.9 -20.7 -28.85 -20.8 L-28.8 -20.95 Q-28.8 -21.1 -29.1 -21.1 M-30.3 -19.75 L-30.6 -19.55 -30.5 -19.4 -30.45 -19.4 -30.25 -19.6 -30.3 -19.75 M-30.5 -17.1 L-30.75 -16.8 -30.45 -16.4 -30.3 -16.3 -30.2 -16.35 Q-30.05 -16.5 -30.15 -16.8 -30.25 -17.15 -30.5 -17.1 M-26.95 -17.9 L-27.15 -18.35 -27.45 -18.1 -27.4 -18.0 -27.2 -17.9 -26.95 -17.9 M-27.85 -17.9 L-27.7 -17.75 -27.7 -18.05 -27.85 -17.9 M-27.85 -17.15 L-27.65 -17.1 -27.6 -17.25 -27.75 -17.35 -27.85 -17.15 M-31.55 -20.2 L-31.5 -19.8 -31.3 -19.7 -30.85 -20.05 Q-30.65 -20.2 -31.05 -20.3 L-31.55 -20.2 M-31.45 -19.25 L-31.75 -19.25 -31.8 -19.1 -31.8 -18.95 -31.5 -19.05 -31.45 -19.25 M-31.5 -15.4 L-31.75 -15.4 -31.95 -15.05 -31.8 -14.9 -31.65 -14.8 -31.4 -14.95 Q-31.3 -15.05 -31.35 -15.2 L-31.5 -15.4 M-32.45 -14.1 L-32.35 -14.25 -32.2 -14.3 -32.45 -14.3 -32.5 -14.1 -32.5 -14.05 -32.45 -14.05 -32.45 -14.1 M-32.45 -13.9 L-32.2 -13.9 -32.35 -14.0 -32.45 -14.05 -32.45 -13.9 M-31.8 -13.3 L-32.0 -13.1 -31.95 -13.05 -31.8 -13.05 -31.7 -13.05 -31.65 -13.2 -31.8 -13.3 M-33.45 -16.05 L-33.75 -16.2 -34.0 -16.0 -34.15 -15.75 -34.15 -15.6 -34.0 -15.6 -33.55 -15.65 -33.45 -16.05 M-33.65 -12.35 L-33.75 -12.1 -33.65 -11.9 -33.45 -11.9 -33.35 -12.1 -33.3 -12.3 -33.45 -12.4 -33.65 -12.35 M-33.75 -10.75 L-33.85 -10.7 -33.85 -10.45 -33.65 -10.3 -33.6 -10.45 -33.6 -10.65 -33.75 -10.75 M-32.2 -11.9 L-32.1 -12.05 -32.2 -12.25 -32.45 -12.4 -32.5 -11.95 -32.4 -11.85 -32.2 -11.9 M-32.15 -11.1 L-32.1 -11.25 -32.0 -11.3 -32.2 -11.4 -32.35 -11.25 -32.15 -11.1 M-28.05 -15.4 L-27.8 -15.25 -27.6 -15.8 -27.75 -15.95 -27.95 -15.8 -28.05 -15.4 M-27.95 -13.8 L-27.65 -13.8 -27.65 -13.95 -28.05 -13.95 -28.1 -13.85 -27.95 -13.8 M-28.85 -15.7 L-29.05 -15.55 -29.15 -15.4 -29.05 -15.25 -28.85 -15.1 -28.8 -15.05 -28.65 -15.1 Q-28.55 -15.2 -28.6 -15.4 L-28.7 -15.55 -28.85 -15.7 M-29.45 -13.1 L-30.1 -12.85 Q-30.3 -12.6 -30.1 -12.2 L-29.95 -12.05 -29.85 -12.2 -29.8 -12.3 -29.8 -12.45 -29.95 -12.55 -29.9 -12.7 -29.8 -12.75 -29.45 -12.65 Q-29.25 -12.65 -29.2 -12.9 L-29.45 -13.1 M-30.6 -10.25 L-30.75 -10.1 -30.6 -9.85 -30.45 -9.8 -30.25 -10.1 -30.45 -10.4 -30.6 -10.25 M-27.05 -12.55 L-27.35 -12.75 -27.65 -12.65 -27.6 -12.55 -27.6 -12.45 -27.3 -12.45 -27.05 -12.55 M-18.5 -21.6 L-18.8 -21.25 -18.6 -21.35 -18.5 -21.3 -18.5 -21.6 -18.15 -21.95 -18.35 -21.8 -18.5 -21.6 M-18.05 -20.55 L-18.05 -20.75 -18.15 -20.9 -18.3 -20.6 -18.2 -20.5 -18.05 -20.55 M-17.85 -19.1 L-18.05 -18.8 -17.9 -18.55 -17.7 -18.55 -17.65 -18.75 -17.6 -18.85 -17.65 -18.95 -17.7 -19.1 -17.85 -19.1 M-17.15 -18.1 Q-16.9 -18.1 -16.9 -17.95 L-16.65 -18.2 Q-16.5 -18.4 -16.65 -18.55 L-16.9 -18.7 -17.15 -18.1 M-18.5 -17.55 L-18.35 -17.45 -18.15 -17.6 -18.2 -17.8 -18.35 -17.95 -18.5 -17.55 M-17.85 -17.35 L-17.7 -17.25 -17.6 -17.4 -17.7 -17.55 -17.8 -17.45 -17.85 -17.35 M-16.65 -14.95 L-16.65 -15.2 -16.8 -15.1 -16.65 -14.95 M-18.05 -15.9 L-18.2 -15.75 -18.05 -15.75 -18.05 -15.9 M-17.8 -13.2 L-17.65 -13.15 -17.55 -13.25 -17.6 -13.4 -17.8 -13.45 -17.9 -13.3 -17.8 -13.2 M-17.85 -14.25 L-17.65 -14.2 -17.55 -14.4 -17.8 -14.45 -17.8 -14.4 -17.85 -14.25 M-20.2 -13.2 Q-20.05 -12.9 -20.0 -13.1 L-19.75 -13.35 -19.45 -13.55 Q-19.3 -13.65 -19.3 -13.9 L-19.7 -13.95 Q-20.0 -13.8 -20.05 -13.8 L-20.2 -13.45 -20.2 -13.2 M-19.8 -10.85 L-19.65 -10.9 -19.65 -11.25 -19.95 -10.95 -19.9 -10.45 -19.65 -10.6 -19.9 -10.8 -19.8 -10.85 M-17.5 -8.75 L-17.65 -8.75 -17.55 -8.6 -17.5 -8.75 M-19.5 -9.15 L-19.65 -9.15 -19.9 -9.05 -19.9 -8.85 -19.65 -8.75 -19.5 -8.75 -19.85 -8.55 -20.0 -8.3 -19.7 -8.25 Q-19.4 -8.4 -19.2 -8.6 L-19.35 -8.9 -19.5 -9.15 M-19.05 -6.9 L-19.1 -7.05 -19.2 -7.1 -19.35 -7.05 -19.45 -6.9 Q-19.35 -6.75 -19.25 -6.8 -19.2 -6.8 -19.05 -6.9 M-19.6 -6.95 L-19.5 -7.1 -19.6 -7.3 -19.65 -7.4 -20.0 -7.05 Q-20.0 -6.9 -19.65 -6.9 L-19.6 -6.95 M-17.15 -6.1 L-17.3 -5.95 -17.4 -5.9 -17.15 -5.8 Q-17.05 -5.85 -17.1 -5.95 L-17.15 -6.1 M-18.25 -4.95 L-18.15 -5.05 -18.25 -5.15 -18.35 -5.05 -18.25 -4.95 M-21.45 -4.1 Q-21.45 -4.45 -21.75 -4.25 L-22.05 -3.95 Q-22.05 -3.75 -21.75 -3.85 L-21.45 -4.1 M-21.8 -2.85 L-21.9 -3.1 -22.05 -2.85 -21.9 -2.75 -21.8 -2.85 M-21.35 -2.3 Q-21.2 -2.3 -21.15 -2.4 L-21.05 -2.5 Q-20.95 -2.55 -21.0 -2.65 L-21.15 -2.75 -21.35 -2.7 -21.45 -2.5 -21.5 -2.4 -21.35 -2.3 M-24.5 -0.65 L-24.6 -0.8 -24.7 -0.9 -24.85 -0.8 -24.95 -0.65 -24.85 -0.45 -24.7 -0.35 -24.65 -0.5 -24.5 -0.65 M-25.7 0.1 L-25.9 -0.05 -26.0 0.1 -25.9 0.25 -25.7 0.1 M-24.5 0.4 L-24.7 0.55 -24.8 0.65 -24.8 0.75 -24.6 0.9 -24.35 0.85 -24.3 0.55 Q-24.35 0.4 -24.5 0.4 M-21.55 -1.15 L-21.65 -0.9 -21.5 -0.75 -21.35 -0.75 -21.2 -0.95 -21.2 -1.15 -21.4 -1.3 -21.55 -1.15 M-18.35 -2.6 L-18.55 -2.8 -18.7 -2.75 -18.8 -2.6 -18.6 -2.5 -18.35 -2.6 M-16.8 -4.1 L-16.55 -4.05 -16.45 -4.05 -16.5 -4.15 -16.7 -4.15 -16.8 -4.1 M-16.85 -0.8 L-16.9 -0.75 -17.0 -0.55 -17.15 -0.5 -17.0 -0.3 -16.7 -0.55 Q-16.6 -0.8 -16.8 -0.95 L-16.85 -0.8 M-28.7 -10.1 L-28.85 -9.95 -28.8 -9.65 -28.55 -9.7 -28.35 -9.9 -28.5 -10.1 -28.7 -10.1 M-29.2 -6.4 L-29.1 -6.3 -28.95 -6.35 -28.85 -6.5 -29.0 -6.75 -29.15 -6.65 -29.2 -6.5 -29.2 -6.4 M-28.5 -6.3 L-28.6 -6.5 -28.7 -6.4 -28.5 -6.3 M-32.95 -9.6 L-32.85 -9.45 -32.75 -9.45 Q-32.5 -9.45 -32.55 -9.65 L-32.85 -9.9 -32.95 -9.85 -33.0 -9.75 -32.95 -9.6 M-33.15 -9.05 L-33.0 -8.9 -32.95 -8.85 -32.85 -8.8 -32.75 -8.95 Q-32.6 -9.1 -32.75 -9.15 L-32.9 -9.1 -33.15 -9.05 M-31.75 -4.4 L-31.85 -4.15 Q-31.75 -4.05 -31.65 -4.05 L-31.55 -4.25 -31.75 -4.4 M-30.75 -1.75 L-30.95 -1.5 -30.85 -1.4 -30.75 -1.3 -30.45 -1.5 -30.55 -1.6 -30.75 -1.75 M-29.65 -2.15 L-29.65 -2.05 -29.5 -1.95 Q-29.35 -1.95 -29.35 -2.3 L-29.5 -2.25 -29.65 -2.15 M-28.95 1.2 L-29.2 1.25 -29.1 1.7 -28.9 1.7 -28.8 1.5 -28.8 1.3 Q-28.8 1.2 -28.95 1.2 M-27.7 0.5 L-27.85 0.65 -27.3 0.85 -27.2 0.55 -27.4 0.4 -27.6 0.4 -27.7 0.5 M-26.5 1.4 L-26.15 1.5 Q-26.0 1.5 -26.0 1.2 -26.0 1.05 -26.1 1.05 L-26.3 1.05 -26.55 1.2 -26.5 1.4 M-27.45 1.4 L-27.7 1.85 -27.65 2.0 -27.5 2.1 -27.3 1.9 -27.0 1.85 Q-26.65 1.85 -26.75 1.5 -26.85 1.2 -27.05 1.25 -27.25 1.25 -27.45 1.4 M-30.35 3.9 Q-30.35 4.2 -29.8 4.2 L-29.7 3.95 -29.65 3.75 -30.15 3.75 -30.35 3.9 M-29.8 5.55 L-30.05 5.85 -29.95 6.15 -29.65 6.15 -29.5 6.0 -29.55 5.8 -29.6 5.7 -29.65 5.6 -29.8 5.55 M-32.85 1.9 L-33.1 2.05 -33.15 2.25 Q-33.1 2.5 -32.65 2.25 L-32.7 2.05 -32.85 1.9 M-32.35 3.35 L-32.15 3.3 -32.1 3.05 -32.1 2.9 -32.3 2.9 -32.45 3.05 -32.35 3.35 M-33.85 7.85 L-33.75 7.8 -33.6 7.7 -33.7 7.45 -33.85 7.2 -34.1 7.5 -33.85 7.85 M-34.6 10.3 Q-34.7 10.2 -34.75 10.25 L-34.8 10.4 -34.8 10.65 -34.6 10.7 -34.45 10.5 -34.6 10.3 M-35.3 11.5 Q-35.1 11.55 -35.0 11.7 L-34.85 11.55 -34.8 11.4 -35.15 11.3 -35.4 11.25 -35.6 11.4 -35.3 11.5 M-33.5 13.0 L-33.4 12.95 -33.3 12.85 -33.3 12.7 -33.45 12.65 -33.5 12.7 -33.6 12.85 -33.5 13.0 M-30.2 7.25 L-30.3 7.65 -30.15 7.5 -30.2 7.25 M-30.2 12.95 L-30.2 13.3 -30.1 13.15 -30.15 13.05 -30.2 12.95 M-29.65 11.85 L-29.95 11.7 -30.2 12.0 -30.1 12.35 Q-29.95 12.4 -29.9 12.25 L-29.8 12.05 -29.65 11.85 M-18.35 3.2 Q-18.35 2.8 -18.65 2.9 L-19.0 3.25 -18.95 3.35 -18.8 3.5 -18.45 3.3 -18.35 3.2 M-19.45 2.35 L-19.8 2.55 Q-20.05 2.75 -19.9 3.0 -19.8 3.1 -19.65 2.9 L-19.35 2.55 -19.3 2.4 -19.45 2.35 M-20.0 1.85 L-20.2 1.7 -20.45 1.7 -20.5 1.85 -20.35 2.05 -20.15 2.25 -20.0 2.1 -20.0 1.85 M-20.7 1.75 L-20.85 1.7 Q-21.15 1.7 -21.05 2.0 L-20.9 2.15 -20.7 2.1 -20.65 1.85 -20.7 1.75 M-14.75 -9.95 L-15.0 -10.05 -15.15 -9.95 -15.05 -9.8 -15.0 -9.75 -14.75 -9.95 M-15.75 -5.3 L-15.7 -5.25 -15.7 -5.45 -15.75 -5.3 M-14.05 -5.9 L-13.95 -5.85 -13.85 -5.95 -13.95 -6.15 -14.05 -6.1 -14.05 -5.9 M-13.35 -6.1 L-13.5 -6.25 -13.5 -5.95 -13.35 -6.1 M-13.75 -2.5 L-13.85 -2.75 -14.35 -2.5 -14.4 -2.35 -14.4 -2.25 -13.95 -2.2 Q-13.7 -2.3 -13.75 -2.5 M-12.55 -1.65 L-12.5 -1.9 -12.7 -1.95 -12.9 -1.9 -13.05 -1.75 -12.8 -1.6 -12.55 -1.65 M-15.2 -4.15 L-15.0 -4.4 Q-15.1 -4.8 -15.3 -4.4 L-15.3 -4.25 -15.2 -4.15 M-16.35 0.1 L-16.5 0.15 -16.55 0.25 -16.5 0.55 -16.3 0.6 -16.2 0.35 -16.35 0.1 M-12.85 -0.3 L-12.9 -0.15 -12.9 0.05 -12.85 0.25 Q-12.55 0.25 -12.55 0.1 L-12.55 -0.15 -12.85 -0.3 M-13.85 -0.75 L-14.05 -0.6 -14.3 -0.45 -14.15 -0.25 -14.0 -0.15 -13.7 -0.5 Q-13.5 -0.75 -13.85 -0.75 M-13.75 1.1 L-14.0 1.2 -13.95 1.45 -13.75 1.75 -13.6 1.5 -13.5 1.2 -13.75 1.1 M-13.2 2.2 L-13.4 2.1 -13.5 2.2 -13.75 2.4 -13.7 2.65 -13.2 2.4 -13.2 2.2 M-15.2 4.7 L-15.15 4.8 -15.0 4.85 -14.9 4.65 -14.9 4.4 -15.15 4.4 -15.2 4.45 -15.2 4.7 M-15.7 7.05 Q-15.8 6.95 -15.8 7.0 L-15.85 7.2 -15.85 7.35 -15.7 7.25 -15.7 7.05 M-16.3 9.05 L-16.5 9.5 -16.65 9.75 -16.55 10.0 -16.3 10.0 -16.15 9.7 -16.2 9.4 -16.3 9.05 M-15.4 12.95 L-15.4 12.85 -15.85 13.0 -15.75 13.15 -15.65 13.2 -15.45 13.15 -15.35 13.05 -15.4 12.95 M-15.55 16.7 L-15.55 17.0 -15.35 16.85 -15.55 16.7 M-13.95 19.5 L-13.95 19.35 -14.2 19.35 -14.2 19.5 -14.15 19.55 -13.95 19.5 M-13.55 19.95 L-13.7 19.95 -13.85 20.15 -13.65 20.3 -13.55 19.95 M-13.65 21.0 L-14.15 21.05 -14.1 21.3 Q-13.9 21.4 -13.85 21.5 -13.7 21.55 -13.65 21.4 L-13.55 21.2 -13.5 21.05 -13.65 21.0 M-15.75 21.2 Q-16.05 21.2 -16.05 21.55 -15.8 21.55 -15.75 21.4 L-15.75 21.2 M-18.85 20.2 L-19.0 20.15 -19.2 20.2 -19.3 20.35 -19.35 20.5 -19.2 20.55 -19.0 20.55 -18.85 20.35 -18.85 20.2 M-18.05 22.0 L-18.2 22.0 -18.2 22.05 -18.05 22.0 M-29.65 13.7 Q-29.3 13.5 -29.6 13.5 L-29.65 13.5 -29.65 13.7 M-30.75 15.45 L-31.0 15.15 -31.1 15.35 -31.15 15.35 -31.1 15.7 -31.0 15.65 -30.8 15.55 Q-30.55 15.55 -30.75 15.45 M-33.2 13.15 L-33.35 13.35 -33.2 13.55 -33.05 13.35 -33.2 13.15 M-32.8 15.85 L-32.7 15.75 -32.65 15.55 -32.75 15.4 -32.95 15.35 -33.0 15.7 -32.95 15.8 -32.8 15.85 M-32.65 18.8 Q-32.4 18.55 -32.5 18.4 L-32.75 18.2 -32.8 18.65 -32.65 18.8 M-32.0 19.5 L-31.8 19.7 -31.75 19.6 -31.75 19.5 -31.95 19.3 -32.0 19.5 M-32.5 19.35 L-32.45 19.2 -32.65 19.15 -32.65 19.35 -32.5 19.35 M-33.15 21.2 Q-33.15 21.05 -33.25 21.2 L-33.45 21.35 -33.35 21.75 -33.15 21.95 Q-32.95 21.9 -33.0 21.6 L-33.15 21.2 M-32.2 20.5 L-32.0 20.55 -31.9 20.45 -32.0 20.3 -32.15 20.4 -32.2 20.5 M-34.1 20.3 L-33.95 20.05 -33.95 19.7 Q-34.05 19.5 -34.3 19.5 L-34.5 19.85 -34.3 20.3 -34.1 20.3 M-30.4 20.3 L-30.75 20.55 -30.5 20.7 -30.2 20.35 Q-30.2 20.1 -30.4 20.3 M-30.2 21.15 L-30.5 21.15 -30.8 21.45 -30.75 21.7 -30.5 21.65 -30.3 21.35 -30.2 21.15 M-30.8 22.35 L-30.95 22.55 -30.8 22.7 -30.7 22.55 -30.8 22.35 M-28.55 22.3 L-28.3 22.35 -28.05 22.3 -28.15 21.85 -28.4 21.95 -28.6 22.15 -28.55 22.3" fill="#ffffff" fill-rule="evenodd" stroke="none"/>
    <path d="M33.25 -23.95 L34.0 -23.95 34.45 -23.7 34.8 -23.75 34.8 -23.95 34.95 -24.0 35.05 -23.9 35.1 -23.65 34.95 -23.5 35.0 -23.4 35.25 -23.4 35.05 -23.1 35.25 -22.85 35.45 -22.75 34.9 -22.35 Q34.55 -22.1 34.8 -21.85 L35.15 -21.9 35.3 -22.1 34.95 -21.65 Q34.7 -21.4 35.05 -21.25 L35.25 -21.3 35.3 -21.55 35.45 -21.55 35.4 -21.15 35.05 -20.85 35.15 -20.5 35.3 -20.2 35.5 -18.95 35.45 -17.6 35.45 -17.5 35.6 -17.35 Q35.75 -16.4 35.4 -16.2 L35.45 -15.85 35.4 -15.45 35.6 -14.5 35.4 -13.9 Q35.2 -13.7 35.25 -13.3 L35.1 -12.75 35.4 -12.6 35.15 -12.25 35.05 -11.9 Q35.5 -11.5 35.3 -10.85 L34.85 -9.75 Q34.85 -9.6 35.1 -9.6 L35.4 -9.6 35.4 -10.05 35.5 -7.9 35.4 -7.9 35.4 -7.8 35.45 -7.15 35.4 -6.6 35.45 -6.45 35.5 -6.4 35.6 -5.4 35.6 -4.4 35.4 -4.35 Q35.25 -4.25 35.45 -4.1 L35.5 -4.0 35.6 -3.9 35.5 -3.6 Q35.35 -3.35 35.6 -3.15 L35.45 -3.0 35.45 -2.9 35.45 -2.3 35.15 -1.75 35.55 -1.5 35.6 -1.15 Q35.45 -0.8 35.45 0.05 L35.5 2.2 35.5 4.4 35.5 5.55 35.25 6.8 35.4 6.95 35.5 7.2 35.4 8.35 35.5 9.4 35.4 11.8 Q35.3 13.2 35.5 14.15 L35.35 14.35 35.15 14.65 Q35.45 14.8 35.4 15.1 L35.3 15.65 35.4 16.9 35.25 18.15 35.2 18.55 34.95 18.9 34.95 19.05 35.25 19.15 35.1 19.45 35.3 20.05 35.15 21.0 Q35.05 21.55 35.25 22.0 L35.15 22.8 35.25 23.45 34.9 23.55 34.65 23.8 34.75 23.85 33.9 23.8 33.1 23.65 33.1 23.5 33.0 23.4 32.8 23.45 32.6 23.85 31.5 23.85 30.3 23.85 30.35 23.8 30.25 23.65 30.1 23.85 29.55 23.8 28.9 23.5 28.8 23.75 28.6 23.85 27.85 23.8 26.95 23.85 26.95 23.5 26.75 23.25 26.65 23.05 26.6 21.65 Q26.55 20.85 26.65 20.35 L26.75 20.45 26.65 19.85 26.6 19.3 26.65 19.2 26.75 19.05 26.6 18.9 26.65 18.15 Q26.5 17.0 26.5 15.45 L26.5 12.75 26.5 9.85 26.6 6.9 26.7 5.4 Q26.55 4.45 25.85 4.25 L22.1 4.15 22.15 4.0 22.2 4.0 22.15 3.75 22.1 3.65 21.75 3.6 21.5 3.75 21.5 4.0 21.7 4.15 Q21.2 4.45 21.2 4.85 L21.0 7.7 Q20.85 9.45 21.1 10.65 L21.0 10.85 20.95 10.9 20.9 12.8 21.1 14.7 20.95 14.8 20.8 14.9 21.1 15.3 21.05 17.3 21.0 19.3 21.0 19.65 20.9 21.15 20.5 22.65 Q20.8 22.75 20.75 23.1 L20.6 23.7 20.35 23.7 20.3 23.5 19.0 23.6 17.8 23.7 17.8 23.55 17.65 23.5 16.9 23.7 16.2 23.65 15.45 23.7 14.5 23.8 14.4 23.7 14.3 23.6 13.8 23.6 13.2 23.8 12.9 23.75 12.7 23.35 12.5 23.55 12.3 23.6 12.1 22.85 12.0 21.95 12.3 21.85 12.3 21.65 12.2 21.45 12.0 21.45 12.3 21.15 12.35 20.85 12.25 20.7 12.15 20.55 Q12.05 19.5 12.1 17.7 L12.15 14.8 12.15 14.6 12.3 14.5 Q12.1 14.3 12.15 13.9 L12.2 13.2 12.05 11.65 12.2 9.9 12.2 6.9 12.35 6.6 12.45 6.35 12.2 5.8 12.1 5.25 12.2 5.0 12.15 1.05 12.25 0.75 12.35 0.5 12.2 0.0 12.2 -0.45 Q12.55 -0.45 12.55 -0.6 L12.35 -0.7 12.15 -0.65 12.15 -3.8 12.15 -6.95 12.5 -6.85 12.65 -6.95 12.35 -7.4 Q12.1 -7.7 12.35 -8.05 L12.15 -8.15 12.3 -8.95 12.5 -9.75 12.3 -9.8 12.7 -11.05 12.6 -11.3 12.3 -11.3 12.5 -11.9 12.3 -11.95 12.25 -14.05 12.35 -16.2 12.3 -17.25 Q12.15 -17.95 12.3 -18.4 L12.5 -18.65 12.65 -18.95 12.45 -19.55 12.3 -20.2 12.8 -20.2 Q13.05 -20.25 12.9 -20.6 L12.65 -20.65 12.55 -20.45 Q12.35 -21.15 12.55 -21.95 L12.65 -22.7 12.7 -23.4 Q12.8 -23.65 13.2 -23.75 L13.85 -23.95 14.55 -24.1 17.35 -24.2 17.9 -24.05 18.45 -24.05 18.15 -23.75 Q17.9 -23.55 18.0 -23.4 L18.45 -23.2 18.7 -23.45 18.85 -23.7 18.8 -24.05 19.75 -24.0 20.8 -24.05 20.3 -23.85 20.1 -23.6 Q20.1 -23.5 20.4 -23.5 L20.85 -23.4 21.15 -22.3 Q21.15 -21.5 21.3 -21.2 L21.05 -21.0 20.7 -20.85 20.55 -20.5 20.3 -20.1 20.4 -19.75 Q20.55 -19.6 20.7 -19.6 21.1 -19.8 20.85 -20.45 L21.1 -19.9 21.2 -19.35 20.9 -19.35 20.7 -19.2 20.7 -18.95 20.85 -18.75 21.2 -18.75 21.05 -18.25 21.0 -17.7 20.9 -17.15 21.1 -16.45 21.3 -15.7 21.3 -14.9 Q21.3 -14.8 21.1 -14.75 L20.95 -14.7 21.15 -13.15 21.3 -11.65 Q21.3 -11.55 21.1 -11.55 L20.85 -11.45 21.1 -11.35 21.3 -11.2 21.25 -10.45 Q21.15 -10.05 20.85 -9.9 L21.15 -9.2 Q21.15 -8.65 21.3 -8.45 L21.1 -8.35 20.85 -8.25 20.95 -7.9 21.3 -7.55 21.05 -7.35 20.85 -7.15 20.95 -7.05 21.1 -6.95 Q21.1 -6.8 20.7 -6.8 20.35 -6.8 20.35 -6.6 L20.45 -6.5 20.6 -6.4 20.8 -6.4 20.85 -6.5 21.0 -6.4 21.15 -6.3 Q20.9 -5.2 21.65 -5.1 L22.55 -4.7 23.45 -4.65 24.25 -4.75 25.0 -4.9 25.1 -4.65 25.95 -4.8 26.5 -5.25 26.75 -6.7 26.75 -8.25 26.65 -9.75 26.75 -11.3 26.9 -11.95 27.15 -12.65 27.05 -12.8 26.75 -12.9 26.85 -14.0 26.75 -15.25 26.95 -15.15 27.1 -15.05 27.15 -15.25 26.75 -15.45 26.8 -16.25 Q26.75 -16.65 26.85 -16.9 L26.65 -17.15 26.75 -19.0 26.8 -20.75 26.75 -21.3 26.8 -21.75 Q26.85 -22.1 27.05 -22.1 L27.5 -21.95 27.6 -22.25 27.4 -22.45 27.0 -22.5 26.95 -23.25 Q26.95 -23.65 27.1 -23.7 L28.95 -24.15 30.95 -23.95 31.05 -23.65 Q31.0 -23.45 31.25 -23.5 L31.55 -23.8 31.75 -23.95 32.2 -24.0 32.6 -23.95 33.25 -23.95 M32.95 -23.4 Q32.85 -23.2 33.1 -23.15 L33.65 -23.25 33.75 -23.3 33.8 -23.4 33.75 -23.7 33.25 -23.65 32.95 -23.4 M31.25 -22.75 L31.6 -23.1 31.25 -23.1 31.25 -22.75 M32.8 -22.75 L32.6 -22.8 32.5 -22.85 32.45 -22.75 32.6 -22.65 32.8 -22.75 M32.8 -22.3 L32.8 -22.55 32.45 -22.3 32.3 -22.05 32.5 -21.85 32.7 -22.1 32.8 -22.3 M33.25 -22.05 L33.05 -21.8 32.95 -21.6 Q32.95 -21.45 33.1 -21.45 L33.45 -21.55 33.5 -21.85 33.45 -22.0 33.25 -22.05 M28.2 -23.6 L27.95 -23.5 27.85 -23.25 Q27.75 -23.05 27.95 -23.1 L28.45 -22.7 Q28.9 -22.55 28.9 -22.85 L28.7 -22.95 Q28.45 -22.95 28.35 -23.1 L28.35 -23.25 28.5 -23.5 28.2 -23.6 M30.3 -23.5 L30.1 -23.4 Q30.1 -23.3 30.3 -23.3 30.5 -23.3 30.5 -23.4 L30.3 -23.5 M29.8 -22.05 L29.95 -22.1 30.0 -22.1 29.5 -21.95 29.8 -22.05 M30.6 -22.85 L30.8 -22.85 Q30.95 -23.1 30.75 -23.1 L30.5 -23.1 30.6 -22.85 M29.15 -21.6 L28.9 -21.25 29.05 -21.35 29.15 -21.3 29.15 -21.6 29.5 -21.95 29.3 -21.8 29.15 -21.6 M29.6 -20.55 L29.6 -20.75 29.5 -20.9 29.35 -20.6 29.45 -20.5 29.6 -20.55 M29.8 -19.1 L29.6 -18.8 29.75 -18.55 29.95 -18.55 30.0 -18.75 30.05 -18.85 30.0 -18.95 29.95 -19.1 29.8 -19.1 M30.5 -18.1 L30.75 -17.95 31.0 -18.2 31.0 -18.55 30.75 -18.7 30.5 -18.1 M29.15 -17.55 L29.3 -17.45 29.5 -17.6 29.45 -17.8 29.3 -17.95 Q29.15 -17.8 29.15 -17.55 M29.95 -17.25 Q30.15 -17.35 29.95 -17.55 L29.9 -17.45 29.8 -17.35 29.95 -17.25 M31.0 -14.95 L31.0 -15.2 30.9 -15.1 31.0 -14.95 M29.6 -15.9 L29.45 -15.75 29.6 -15.75 29.6 -15.9 M29.9 -13.2 Q29.9 -13.05 30.0 -13.15 L30.1 -13.25 30.05 -13.4 29.9 -13.45 29.75 -13.3 29.9 -13.2 M29.8 -14.25 L30.0 -14.2 30.1 -14.4 29.9 -14.45 29.85 -14.4 29.8 -14.25 M27.45 -13.2 L27.5 -13.05 27.65 -13.1 27.9 -13.35 28.25 -13.55 28.35 -13.9 27.95 -13.95 27.6 -13.8 Q27.35 -13.7 27.45 -13.45 L27.45 -13.2 M27.85 -10.85 L28.0 -10.9 28.0 -11.25 27.7 -10.95 27.75 -10.45 28.0 -10.6 27.75 -10.8 27.85 -10.85 M31.45 -20.55 L31.3 -20.35 31.6 -20.2 31.6 -20.1 31.75 -20.1 31.6 -20.35 31.75 -20.6 31.45 -20.55 M34.65 -17.25 L34.45 -17.25 34.45 -16.95 34.65 -17.0 34.65 -17.25 M34.15 -17.45 L34.0 -17.55 34.0 -17.35 34.15 -17.45 M32.4 -14.7 L32.6 -14.8 32.5 -15.0 32.4 -15.1 32.25 -14.95 32.15 -14.75 32.4 -14.7 M32.4 -12.75 L32.3 -12.6 32.4 -12.4 32.6 -12.5 32.65 -12.75 32.5 -12.8 32.4 -12.75 M16.5 -22.55 Q16.5 -22.4 16.65 -22.4 L16.85 -22.5 17.05 -22.6 17.1 -22.8 16.85 -22.95 16.6 -22.95 16.5 -22.55 M15.05 -22.55 Q14.85 -22.4 14.95 -22.0 L15.2 -21.45 Q15.45 -21.45 15.6 -21.6 L15.45 -21.95 15.3 -22.5 Q15.25 -22.8 15.05 -22.55 M20.1 -21.95 L20.2 -21.75 20.3 -21.95 20.2 -22.05 20.1 -21.95 M18.6 -21.1 Q18.4 -20.95 18.55 -20.85 L18.7 -20.75 Q18.75 -20.7 18.8 -20.8 L18.85 -20.95 18.6 -21.1 M17.35 -19.75 L17.05 -19.55 17.2 -19.4 17.4 -19.6 17.35 -19.75 M17.15 -17.1 L16.9 -16.8 17.2 -16.4 17.35 -16.3 17.45 -16.35 17.5 -16.8 17.15 -17.1 M20.7 -17.9 L20.5 -18.35 Q20.45 -18.1 20.2 -18.1 L20.3 -18.0 20.45 -17.9 20.7 -17.9 M19.8 -17.9 L19.95 -17.75 19.95 -18.05 19.8 -17.9 M19.8 -17.15 L20.0 -17.1 20.1 -17.25 19.9 -17.35 19.8 -17.15 M16.8 -20.05 L16.6 -20.3 16.05 -20.2 16.15 -19.8 16.35 -19.7 16.8 -20.05 M16.2 -19.25 L15.95 -19.25 15.85 -19.1 15.85 -18.95 16.2 -19.05 16.2 -19.25 M16.15 -15.4 L15.95 -15.4 15.7 -15.05 Q15.7 -14.9 15.85 -14.9 L16.0 -14.8 16.2 -14.95 16.3 -15.2 16.15 -15.4 M15.2 -14.1 L15.3 -14.25 15.45 -14.3 15.2 -14.3 15.15 -14.1 15.15 -14.05 15.2 -14.05 15.2 -14.1 M15.2 -14.05 L15.2 -13.9 15.45 -13.9 15.35 -14.0 15.2 -14.05 M15.85 -13.3 L15.65 -13.1 Q15.65 -13.1 15.75 -13.05 L15.85 -13.05 15.95 -13.05 16.0 -13.2 15.85 -13.3 M14.2 -16.05 L13.95 -16.2 13.65 -16.0 13.5 -15.75 13.55 -15.6 13.65 -15.6 14.1 -15.65 14.2 -16.05 M14.0 -12.35 L13.95 -12.1 14.0 -11.9 14.2 -11.9 14.3 -12.1 14.35 -12.3 14.2 -12.4 14.0 -12.35 M13.95 -10.75 L13.8 -10.7 13.8 -10.45 Q13.8 -10.3 14.0 -10.3 L14.05 -10.45 14.05 -10.65 13.95 -10.75 M15.45 -11.9 L15.55 -12.05 15.45 -12.25 15.2 -12.4 15.15 -11.95 15.25 -11.85 15.45 -11.9 M15.5 -11.1 L15.6 -11.25 15.65 -11.3 15.45 -11.4 15.3 -11.25 Q15.3 -11.1 15.5 -11.1 M19.6 -15.4 Q19.6 -15.25 19.85 -15.25 L20.1 -15.8 19.9 -15.95 19.7 -15.8 19.6 -15.4 M19.7 -13.8 L20.0 -13.8 20.0 -13.95 19.6 -13.95 19.55 -13.85 19.7 -13.8 M18.8 -15.7 L18.6 -15.55 18.5 -15.4 18.6 -15.25 18.8 -15.1 18.85 -15.05 19.05 -15.1 19.05 -15.4 18.95 -15.55 18.8 -15.7 M18.2 -13.1 L17.55 -12.85 Q17.35 -12.6 17.6 -12.2 17.6 -12.05 17.7 -12.05 L17.8 -12.2 17.85 -12.3 17.85 -12.45 17.7 -12.55 17.75 -12.7 17.85 -12.75 18.2 -12.65 18.45 -12.9 18.2 -13.1 M17.05 -10.25 L16.95 -10.1 17.05 -9.85 17.2 -9.8 17.4 -10.1 17.2 -10.4 17.05 -10.25 M20.35 -12.45 L20.6 -12.55 20.3 -12.75 20.0 -12.65 20.05 -12.55 20.1 -12.45 20.35 -12.45 M18.95 -10.1 L18.8 -9.95 18.85 -9.65 19.1 -9.7 19.3 -9.9 19.15 -10.1 18.95 -10.1 M18.6 -6.3 L18.7 -6.35 18.8 -6.5 18.65 -6.75 18.5 -6.65 18.45 -6.5 18.45 -6.4 18.6 -6.3 M19.15 -6.3 L19.05 -6.5 18.95 -6.4 19.15 -6.3 M14.7 -9.6 L14.8 -9.45 14.95 -9.45 15.1 -9.65 14.8 -9.9 14.7 -9.85 14.65 -9.75 14.7 -9.6 M14.5 -9.05 L14.65 -8.9 14.7 -8.85 14.8 -8.8 14.9 -8.95 14.95 -9.15 14.75 -9.1 14.5 -9.05 M15.95 -4.4 Q15.7 -4.3 15.8 -4.15 L16.0 -4.05 16.05 -4.25 15.95 -4.4 M16.8 -1.4 L16.95 -1.3 17.2 -1.5 17.1 -1.6 16.95 -1.75 16.7 -1.5 16.8 -1.4 M18.0 -2.15 L18.05 -2.05 18.15 -1.95 18.3 -2.3 18.15 -2.25 18.0 -2.15 M18.7 1.2 L18.45 1.25 18.6 1.7 18.8 1.7 18.85 1.5 18.85 1.3 Q18.85 1.2 18.7 1.2 M20.1 0.4 Q20.0 0.4 19.95 0.5 L19.8 0.65 20.35 0.85 20.45 0.55 20.25 0.4 20.1 0.4 M21.15 1.4 L21.5 1.5 21.65 1.2 21.55 1.05 21.35 1.05 Q21.15 1.05 21.1 1.2 L21.15 1.4 M20.2 1.4 L19.95 1.85 20.0 2.0 20.15 2.1 20.35 1.9 20.65 1.85 Q21.0 1.85 20.9 1.5 L20.6 1.25 20.2 1.4 M17.3 3.9 Q17.3 4.2 17.85 4.2 L17.95 3.95 18.0 3.75 17.5 3.75 17.3 3.9 M17.85 5.55 L17.6 5.85 17.7 6.15 18.0 6.15 18.15 6.0 18.1 5.8 18.05 5.7 18.05 5.6 17.85 5.55 M14.8 1.9 Q14.65 1.9 14.55 2.05 L14.5 2.25 Q14.55 2.5 15.0 2.25 L14.95 2.05 14.8 1.9 M15.3 3.35 L15.5 3.3 15.6 3.05 15.6 2.9 15.35 2.9 Q15.2 2.9 15.2 3.05 L15.3 3.35 M13.8 7.85 L13.95 7.8 14.05 7.7 13.95 7.45 13.8 7.2 13.55 7.5 Q13.5 7.75 13.8 7.85 M13.1 10.3 L12.9 10.25 12.85 10.4 12.85 10.65 13.1 10.7 13.2 10.5 13.1 10.3 M12.35 11.5 L12.65 11.7 12.8 11.55 12.85 11.4 12.5 11.3 12.25 11.25 Q12.1 11.25 12.1 11.4 L12.35 11.5 M14.15 13.0 L14.25 12.95 14.35 12.85 14.35 12.7 14.2 12.65 14.15 12.7 14.05 12.85 14.15 13.0 M17.45 7.25 L17.35 7.65 17.5 7.5 17.45 7.25 M17.45 12.95 L17.45 13.3 17.6 13.15 17.5 13.05 17.45 12.95 M18.0 11.85 Q17.85 11.7 17.7 11.7 17.5 11.8 17.45 12.0 L17.6 12.35 17.8 12.25 17.85 12.05 18.0 11.85 M32.9 -9.95 L32.65 -10.05 32.5 -9.95 32.6 -9.8 32.65 -9.75 32.9 -9.95 M31.9 -5.3 L31.95 -5.25 31.95 -5.45 31.9 -5.3 M33.6 -5.9 L33.7 -5.85 33.8 -5.95 33.7 -6.15 33.6 -6.1 33.6 -5.9 M34.3 -6.1 L34.15 -6.25 34.15 -5.95 34.3 -6.1 M33.9 -2.5 L33.8 -2.75 Q33.6 -2.85 33.3 -2.5 L33.25 -2.35 33.25 -2.25 33.7 -2.2 33.9 -2.5 M35.1 -1.65 L35.15 -1.9 34.95 -1.95 34.75 -1.9 34.6 -1.75 Q34.65 -1.55 34.85 -1.6 L35.1 -1.65 M31.15 -4.15 L30.95 -4.15 30.9 -4.1 31.1 -4.05 31.2 -4.05 31.15 -4.15 M32.45 -4.15 L32.65 -4.4 Q32.6 -4.8 32.4 -4.4 L32.35 -4.25 32.45 -4.15 M31.3 0.1 L31.15 0.15 31.1 0.25 31.15 0.55 31.35 0.6 31.45 0.35 31.3 0.1 M33.5 -0.25 L33.65 -0.15 33.95 -0.5 Q34.15 -0.75 33.8 -0.75 L33.6 -0.6 33.4 -0.45 33.5 -0.25 M34.8 -0.3 L34.75 -0.15 34.75 0.05 34.8 0.25 35.1 0.1 35.1 -0.15 34.8 -0.3 M33.9 1.1 L33.65 1.2 33.9 1.75 34.05 1.5 34.15 1.2 33.9 1.1 M30.15 -8.75 L30.0 -8.75 30.1 -8.6 30.15 -8.75 M28.15 -9.15 L28.0 -9.15 27.75 -9.05 27.75 -8.85 28.0 -8.75 28.15 -8.75 27.85 -8.55 27.65 -8.3 27.95 -8.25 28.45 -8.6 28.3 -8.9 28.15 -9.15 M28.6 -6.9 L28.55 -7.05 28.45 -7.1 28.3 -7.05 28.25 -6.9 28.4 -6.8 28.6 -6.9 M28.05 -7.3 L28.0 -7.4 Q27.65 -7.4 27.65 -7.05 27.65 -6.9 28.0 -6.9 L28.05 -6.95 28.15 -7.1 28.05 -7.3 M30.5 -6.1 L30.35 -5.95 30.25 -5.9 30.5 -5.8 30.55 -5.95 30.5 -6.1 M29.4 -4.95 L29.5 -5.05 29.4 -5.15 29.3 -5.05 29.4 -4.95 M26.25 -4.1 Q26.25 -4.45 25.85 -4.25 L25.6 -3.95 Q25.6 -3.75 25.9 -3.85 L26.25 -4.1 M25.75 -2.75 L25.85 -2.85 25.75 -3.1 25.6 -2.85 25.75 -2.75 M26.3 -2.3 L26.5 -2.4 26.6 -2.5 26.65 -2.65 26.5 -2.75 26.3 -2.7 26.25 -2.5 26.2 -2.4 26.3 -2.3 M23.15 -0.65 L23.05 -0.8 22.95 -0.9 22.8 -0.8 22.75 -0.65 22.8 -0.45 22.95 -0.35 23.0 -0.5 23.15 -0.65 M21.95 0.1 L21.75 -0.05 21.65 0.1 21.75 0.25 21.95 0.1 M23.15 0.4 L22.95 0.55 22.9 0.65 22.85 0.75 23.05 0.9 23.3 0.85 23.35 0.55 23.15 0.4 M26.1 -1.15 L26.0 -0.9 Q26.0 -0.75 26.15 -0.75 L26.3 -0.75 26.45 -0.95 26.45 -1.15 26.25 -1.3 26.1 -1.15 M29.3 -2.6 L29.1 -2.8 28.95 -2.75 28.9 -2.6 29.05 -2.5 29.3 -2.6 M30.8 -0.8 L30.75 -0.75 30.7 -0.55 30.5 -0.5 Q30.5 -0.3 30.65 -0.3 L30.95 -0.55 30.9 -0.95 30.8 -0.8 M29.3 3.2 Q29.3 2.8 29.0 2.9 28.7 2.95 28.65 3.25 L28.7 3.35 28.9 3.5 Q28.95 3.35 29.2 3.3 L29.3 3.2 M28.25 2.35 L27.85 2.55 Q27.6 2.75 27.75 3.0 L28.0 2.9 28.3 2.55 28.35 2.4 28.25 2.35 M27.65 1.85 L27.45 1.7 27.2 1.7 27.15 1.85 27.3 2.05 27.5 2.25 27.65 2.1 27.65 1.85 M26.8 1.7 Q26.5 1.7 26.6 2.0 L26.75 2.15 26.95 2.1 27.0 1.85 26.95 1.75 26.8 1.7 M31.1 10.0 L31.35 10.0 31.5 9.7 31.45 9.4 31.35 9.05 31.15 9.5 31.0 9.75 31.1 10.0 M34.45 2.2 L34.25 2.1 34.15 2.2 33.9 2.4 33.95 2.65 34.45 2.4 34.45 2.2 M32.45 4.7 L32.55 4.8 32.65 4.85 32.75 4.65 32.75 4.4 32.5 4.4 32.45 4.45 32.45 4.7 M31.95 7.05 L31.85 7.0 31.8 7.2 31.8 7.35 31.95 7.25 31.95 7.05 M31.8 13.0 L31.9 13.15 32.0 13.2 32.2 13.15 32.3 13.05 32.25 12.95 32.25 12.85 Q31.8 12.85 31.8 13.0 M32.1 16.7 L32.1 17.0 32.3 16.85 32.1 16.7 M33.75 19.35 L33.45 19.35 33.45 19.5 33.5 19.55 33.75 19.5 33.75 19.35 M33.95 19.95 L33.8 20.15 34.0 20.3 34.1 19.95 33.95 19.95 M33.8 21.5 L34.0 21.4 34.1 21.2 34.15 21.05 34.0 21.0 33.5 21.05 33.6 21.3 33.8 21.5 M31.9 21.2 Q31.6 21.2 31.6 21.55 L31.9 21.4 31.9 21.2 M28.8 20.2 L28.65 20.15 28.45 20.2 28.35 20.35 28.3 20.5 28.45 20.55 28.65 20.55 28.8 20.35 28.8 20.2 M29.6 22.0 L29.45 22.0 29.45 22.05 29.6 22.0 M18.0 13.7 Q18.35 13.5 18.05 13.5 L18.0 13.5 18.0 13.7 M16.9 15.45 L16.65 15.15 16.6 15.35 16.5 15.35 16.6 15.7 16.65 15.65 16.85 15.55 16.9 15.45 M14.85 15.85 L14.95 15.75 15.0 15.55 14.9 15.4 14.7 15.35 14.65 15.7 14.75 15.8 14.85 15.85 M14.45 13.55 L14.6 13.35 14.45 13.15 14.35 13.35 14.45 13.55 M15.0 18.8 L15.15 18.4 14.95 18.2 Q14.85 18.05 14.85 18.65 L15.0 18.8 M15.65 19.5 L15.85 19.7 15.9 19.6 15.95 19.5 15.7 19.3 15.65 19.5 M15.15 19.35 L15.2 19.2 15.0 19.15 15.0 19.35 15.15 19.35 M14.5 21.2 Q14.5 21.05 14.4 21.2 L14.2 21.35 14.3 21.75 Q14.3 22.05 14.5 21.95 L14.65 21.6 14.5 21.2 M15.45 20.5 L15.65 20.55 15.75 20.45 15.65 20.3 15.5 20.4 15.45 20.5 M13.55 20.3 L13.7 20.05 13.75 19.7 13.35 19.5 Q13.1 19.55 13.15 19.85 L13.35 20.3 13.55 20.3 M17.25 20.3 L16.95 20.55 17.15 20.7 17.45 20.35 Q17.45 20.1 17.25 20.3 M17.45 21.15 L17.15 21.15 16.85 21.45 16.95 21.7 17.15 21.65 17.35 21.35 17.45 21.15 M16.85 22.35 L16.7 22.55 16.85 22.7 16.95 22.55 16.85 22.35 M19.1 22.3 L19.35 22.35 19.6 22.3 19.5 21.85 19.25 21.95 19.05 22.15 19.1 22.3" fill="#ffffff" fill-rule="evenodd" stroke="none"/>
    <path d="M-10.05 27.85 L-9.05 27.95 -9.15 28.1 -8.9 28.15 -8.55 27.85 -8.2 28.1 -8.1 27.95 -8.0 27.85 -7.45 27.9 -6.9 27.85 -6.95 27.95 -6.95 28.05 -6.9 28.15 -6.8 28.2 -6.6 27.85 -6.15 28.1 -5.85 28.05 Q-5.85 27.95 -6.0 27.95 L-5.75 27.9 -5.45 27.95 -5.55 28.2 -5.3 28.25 -5.1 28.05 -5.05 29.7 -5.0 30.25 -5.05 30.8 -5.15 30.85 -5.25 30.95 -5.25 31.05 -5.2 31.1 -5.05 31.1 -5.05 31.55 -5.05 31.85 -5.3 31.75 -5.2 32.05 -5.05 32.3 -5.0 32.8 -5.1 33.3 -5.4 33.4 -5.8 33.3 -5.9 33.4 -5.9 33.45 -6.1 33.4 -6.35 33.25 -6.55 33.25 -6.65 33.45 -6.75 33.35 Q-6.8 33.25 -6.9 33.25 L-7.1 33.4 -7.35 33.45 -7.75 33.3 -7.75 33.4 -7.85 33.5 -8.2 33.35 Q-8.25 33.45 -8.45 33.45 L-8.7 33.45 -10.25 33.4 -11.85 33.45 -12.95 33.4 -13.0 33.45 -13.1 33.45 -13.65 33.45 -14.15 33.4 -14.6 33.45 -14.65 33.35 -14.75 33.3 -14.75 33.45 -15.45 33.5 -16.1 33.45 -16.3 33.45 -16.45 33.35 -16.7 33.45 -17.55 33.45 -18.5 33.45 -18.6 33.4 -18.7 33.45 -18.85 33.4 -19.05 33.35 -19.25 33.45 -19.45 33.5 -19.75 33.3 -19.85 33.3 -19.9 33.35 -20.05 33.3 -20.1 33.4 -20.1 33.45 -24.4 33.5 -24.4 33.45 -24.45 33.35 -24.65 33.45 -24.85 33.45 -25.55 33.5 -26.25 33.45 -26.35 33.5 -26.5 33.6 -26.55 33.55 -26.65 33.45 -26.75 33.55 -26.85 33.55 -26.9 33.45 -27.0 33.6 -27.05 33.6 -27.85 33.55 -28.6 33.45 -28.5 33.35 -28.85 33.0 -29.05 33.1 -28.85 33.3 -28.8 33.4 -29.5 33.5 -30.25 33.5 -30.6 33.55 -30.9 33.35 Q-30.95 33.25 -31.0 33.3 L-31.1 33.4 -31.1 33.5 -31.55 33.55 -31.8 33.35 -31.95 33.4 -32.0 33.5 -32.8 33.5 -33.55 33.45 -33.7 33.4 -33.75 33.25 -33.95 33.35 -34.0 33.5 -34.6 33.3 -34.7 33.4 -34.9 33.5 -34.9 33.45 -34.9 33.3 -35.05 33.3 -35.2 33.45 -35.45 33.4 -35.6 33.3 -35.5 33.15 -35.45 33.0 -35.65 31.85 -35.5 31.8 -35.4 31.75 -35.55 31.4 -35.65 30.2 -35.6 29.0 -35.4 28.95 -35.55 28.65 -35.6 28.3 -35.4 28.1 -35.15 27.9 -35.1 28.0 -35.0 28.1 Q-34.25 27.65 -33.55 27.9 L-33.05 28.0 Q-32.95 27.95 -32.8 28.25 -32.75 28.45 -32.65 28.25 L-32.6 28.05 -32.5 27.9 -31.5 28.05 -31.35 27.9 -30.65 27.9 -29.8 27.85 -29.1 27.85 -28.1 27.8 -27.0 27.85 -26.9 28.0 -26.8 28.05 -26.4 27.8 -25.95 27.8 -25.75 27.95 -25.45 28.0 -25.4 27.9 -25.35 27.8 -23.75 27.85 -22.1 27.85 -21.9 27.85 -21.65 27.8 -21.7 27.9 -21.55 28.0 -21.55 27.8 Q-21.35 27.8 -21.25 27.9 L-21.05 28.05 -20.9 28.0 -21.0 27.8 -20.6 27.9 -20.1 27.9 -20.1 27.8 -19.65 27.9 -18.95 27.85 -18.2 27.7 Q-18.2 28.15 -18.0 28.15 L-17.8 27.8 -17.35 27.8 -17.0 27.85 Q-16.6 27.85 -16.4 28.1 L-16.25 28.0 -16.2 27.85 -15.95 27.85 -15.65 27.85 -15.25 28.0 -15.15 27.9 -15.1 27.7 -15.05 27.9 -14.95 27.95 -14.9 27.85 -14.8 27.8 -14.1 27.8 -13.45 27.8 -13.2 27.95 -13.05 28.15 -12.9 28.1 -12.9 28.0 -12.9 27.9 -12.55 27.9 -12.2 27.95 -12.05 27.9 -11.8 27.8 -11.65 27.85 -11.5 28.0 -11.3 27.9 -11.05 27.95 -11.0 27.8 -10.05 27.85 M-9.55 30.55 L-9.4 30.55 -9.4 30.45 -9.5 30.4 -9.55 30.55 M-9.25 29.7 L-9.3 29.8 -9.1 29.8 -9.0 29.65 -9.05 29.55 -9.2 29.5 -9.2 29.65 -9.25 29.7 M-8.9 30.45 L-8.8 30.6 -8.8 30.4 -8.9 30.45 M-14.75 29.95 L-14.9 29.95 -15.0 30.0 -14.95 30.0 -14.8 30.1 -14.75 29.95 M-12.7 29.3 L-12.85 29.25 -12.9 29.45 -12.7 29.6 -12.65 29.45 -12.7 29.3 M-13.9 31.1 L-13.95 31.25 -13.85 31.3 -13.8 31.15 -13.9 31.1 M-12.9 32.6 L-12.95 32.5 -12.95 32.7 -12.9 32.6 M-15.5 31.1 L-15.35 31.15 -15.35 30.95 -15.5 31.1 M-15.5 32.55 L-15.75 32.15 -15.85 32.55 -15.6 32.7 Q-15.5 32.8 -15.5 32.55 M-7.45 31.3 L-7.35 31.4 -7.35 31.15 -7.45 31.3 M-7.15 31.65 L-7.35 31.5 -7.4 31.55 -7.4 31.65 -7.35 31.75 -7.3 31.85 -7.2 31.95 Q-7.1 31.8 -7.15 31.65 M-7.3 32.4 L-7.2 32.3 -7.3 32.1 -7.5 32.15 -7.5 32.3 -7.3 32.4 M-7.65 32.5 L-7.55 32.45 -7.65 32.35 -7.8 32.35 -7.85 32.25 -7.9 32.4 -7.8 32.5 -7.65 32.5 M-9.65 31.45 L-9.55 31.4 -9.75 31.45 -9.65 31.45 M-11.25 31.05 L-11.0 30.9 -10.9 30.75 -11.3 30.8 -11.25 31.05 M-11.1 32.2 L-11.2 32.2 -11.25 32.25 -11.1 32.4 -10.9 32.35 -10.95 32.25 -11.1 32.2 M-16.45 30.5 L-16.65 30.55 -16.4 30.7 -16.45 30.5 M-5.55 31.95 L-5.55 31.8 -5.75 31.75 -5.85 31.8 -5.85 31.95 -5.85 32.0 -5.75 32.05 -5.6 32.05 -5.55 31.95 M-6.4 30.7 L-6.6 30.7 -6.6 30.8 -6.4 30.8 -6.4 30.7 M-6.4 31.3 L-6.4 31.4 -6.4 31.5 -6.2 31.5 -6.15 31.4 -6.2 31.35 -6.3 31.3 -6.4 31.3 M-6.95 32.0 L-6.95 32.05 -6.9 32.1 -6.85 32.15 -6.8 31.95 -6.95 31.95 -6.95 32.0 M-6.0 31.75 L-6.2 31.85 -6.2 32.05 -6.15 32.1 -6.1 32.15 -5.85 32.05 -5.85 32.0 -5.9 32.0 -5.85 31.95 -6.0 31.75 M-30.25 29.9 L-30.35 30.1 -30.25 30.25 -30.15 30.2 -30.1 30.15 -30.15 29.95 -30.25 29.9 M-30.1 30.5 L-30.15 30.45 -30.25 30.5 -30.3 30.6 -30.2 30.65 -30.15 30.55 -30.1 30.5 M-34.45 29.95 L-34.35 29.95 -34.3 29.9 -34.35 29.8 -34.45 29.8 -34.45 29.95 M-34.5 30.4 L-34.4 30.45 -34.1 30.35 -33.95 30.1 -34.15 30.05 -34.45 30.25 -34.5 30.4 M-33.4 30.1 L-33.5 30.1 -33.6 29.95 -33.7 30.1 -33.8 30.25 -33.8 30.4 -33.6 30.35 -33.4 30.1 M-31.05 29.75 L-31.15 29.55 Q-31.3 29.45 -31.3 29.65 L-31.2 29.8 -31.05 29.75 M-31.65 29.75 L-31.55 29.8 -31.45 29.75 -31.55 29.55 -31.7 29.55 -31.75 29.7 -31.65 29.75 M-31.05 30.75 L-31.0 30.6 -31.15 30.55 -31.15 30.7 -31.05 30.75 M-31.4 31.3 L-31.55 31.35 -31.6 31.25 -31.65 31.3 -31.65 31.4 -31.4 31.35 -31.25 31.0 -31.4 31.0 -31.4 31.3 M-31.3 32.45 L-31.25 32.45 -31.3 32.35 -31.3 32.45 M-28.05 31.45 L-28.05 31.6 -27.95 31.7 -27.8 31.6 -27.95 31.4 -28.05 31.45 M-28.35 32.3 L-28.45 32.65 -28.2 32.9 -28.1 32.85 -28.05 32.8 -28.05 32.75 -27.75 32.8 -27.9 32.7 -28.0 32.55 -28.1 32.6 -28.1 32.7 Q-28.25 32.55 -28.35 32.55 L-28.2 32.75 -28.2 32.85 -28.25 32.8 -28.35 32.8 -28.35 32.4 -28.35 32.45 -28.3 32.4 -28.2 32.4 -28.25 32.3 -28.35 32.3 M-29.35 31.3 L-29.45 31.25 -29.5 31.25 -29.65 31.15 -29.8 31.1 -29.9 31.3 -29.45 31.4 -29.35 31.3 M-30.05 30.9 L-30.2 30.9 -30.25 31.05 -30.2 31.05 -30.1 31.1 -29.95 31.0 -30.05 30.9 M-30.55 30.8 L-30.5 30.8 -30.5 30.75 -30.55 30.8 M-21.1 29.75 L-21.1 29.85 -21.0 29.95 -20.9 29.75 -21.1 29.75 M-19.85 29.5 L-19.85 29.4 -19.9 29.4 -19.85 29.5 M-17.35 28.75 L-17.5 28.85 -17.55 29.2 -17.35 29.2 Q-17.2 29.2 -17.2 29.0 L-17.35 28.75 M-18.7 29.0 L-18.7 29.15 -18.55 29.05 Q-18.5 28.85 -18.6 28.85 L-18.7 29.0 M-18.95 30.3 L-19.05 30.4 -18.95 30.55 -18.85 30.5 -18.8 30.35 -18.95 30.3 M-18.15 29.9 L-18.0 29.75 -18.05 29.7 -18.15 29.75 -18.15 29.9 M-24.0 29.25 L-24.3 29.3 -24.0 29.4 -24.0 29.25 M-23.15 29.1 L-23.25 29.25 -23.15 29.25 -22.9 29.1 -23.15 29.1 M-24.65 31.5 L-24.5 31.6 -24.4 31.5 -24.5 31.4 -24.65 31.5 M-18.15 30.85 L-18.35 30.8 -18.25 30.85 -18.15 30.85 -18.1 30.85 -18.1 30.8 -18.0 30.8 -18.1 30.7 -18.1 30.8 -18.15 30.85 M-17.3 32.4 L-17.4 32.4 -17.5 32.4 -17.4 32.45 -17.3 32.4" fill="#ffffff" fill-rule="evenodd" stroke="none"/>
    <path d="M0.1 27.85 L0.8 27.85 1.85 27.8 2.95 27.85 3.0 28.0 3.1 28.05 3.5 27.8 3.95 27.8 4.15 27.95 4.45 28.0 4.5 27.9 4.6 27.8 6.2 27.85 7.8 27.85 8.05 27.85 8.25 27.8 8.2 27.9 8.35 28.0 8.35 27.8 8.65 27.9 8.85 28.05 9.0 28.0 8.9 27.8 9.3 27.9 9.8 27.9 9.85 27.8 10.25 27.9 10.95 27.85 11.7 27.7 Q11.7 28.15 11.95 28.15 L12.05 28.05 12.1 27.8 12.55 27.8 12.9 27.85 Q13.3 27.85 13.5 28.1 L13.65 28.0 13.7 27.85 13.95 27.85 14.25 27.85 14.65 28.0 14.75 27.9 14.8 27.7 14.85 27.9 14.95 27.95 15.0 27.85 15.1 27.8 15.8 27.8 16.45 27.8 16.7 27.95 16.85 28.15 17.0 28.1 17.0 28.0 17.0 27.9 17.35 27.9 17.7 27.95 17.85 27.9 18.1 27.8 18.25 27.85 18.4 28.0 18.6 27.9 18.85 27.95 18.9 27.8 19.9 27.85 20.85 27.95 20.75 28.1 21.0 28.15 21.35 27.85 21.7 28.1 21.8 27.95 21.9 27.85 22.45 27.9 23.05 27.85 22.95 27.95 22.95 28.05 23.05 28.15 23.15 28.2 23.3 27.85 23.8 28.1 24.1 28.05 Q24.1 27.95 23.9 27.95 L24.15 27.9 24.45 27.95 24.35 28.2 24.6 28.25 24.8 28.05 24.85 29.7 24.9 30.25 24.85 30.8 24.75 30.85 24.7 30.95 24.65 31.05 24.7 31.1 24.85 31.1 24.85 31.55 24.85 31.85 24.6 31.75 24.7 32.05 24.85 32.3 24.95 32.8 24.8 33.3 24.55 33.4 24.15 33.3 24.0 33.4 24.0 33.45 23.8 33.4 23.55 33.25 23.35 33.25 23.25 33.45 23.15 33.35 23.05 33.25 Q22.95 33.25 22.8 33.4 L22.55 33.45 22.15 33.3 22.15 33.4 22.05 33.5 21.7 33.35 21.5 33.45 21.2 33.45 19.65 33.4 18.05 33.45 16.95 33.4 16.9 33.45 16.8 33.45 16.25 33.45 15.75 33.4 15.3 33.45 15.25 33.35 15.15 33.3 15.15 33.45 14.45 33.5 13.8 33.45 13.65 33.45 13.45 33.35 13.2 33.45 12.35 33.45 11.4 33.45 11.3 33.4 11.2 33.45 11.05 33.4 10.85 33.35 10.65 33.45 10.45 33.5 10.15 33.3 10.05 33.3 10.0 33.35 9.85 33.3 9.8 33.4 9.8 33.45 5.55 33.5 5.5 33.45 5.45 33.35 5.25 33.45 5.1 33.45 4.35 33.5 3.65 33.45 3.6 33.5 3.4 33.6 3.35 33.55 3.25 33.45 3.15 33.55 3.05 33.55 3.05 33.45 2.95 33.6 2.85 33.6 2.05 33.55 1.3 33.45 1.45 33.35 1.05 33.0 Q0.9 32.95 0.9 33.1 L1.05 33.3 1.1 33.4 0.4 33.5 -0.35 33.5 -0.7 33.55 -1.0 33.35 Q-1.0 33.25 -1.1 33.3 L-1.15 33.4 -1.15 33.5 -1.65 33.55 -1.9 33.35 -2.0 33.4 -2.1 33.5 -2.85 33.5 -3.65 33.45 -3.75 33.4 -3.8 33.25 -4.05 33.35 -4.1 33.5 Q-4.4 33.6 -4.7 33.3 L-4.8 33.4 -4.95 33.5 -4.95 33.45 -5.0 33.3 -5.15 33.3 -5.3 33.45 -5.5 33.4 -5.7 33.3 -5.55 33.15 -5.5 33.0 -5.75 31.85 -5.6 31.8 -5.45 31.75 -5.65 31.4 -5.7 30.2 -5.7 29.0 -5.45 28.95 -5.6 28.65 -5.7 28.3 -5.5 28.1 -5.25 27.9 -5.2 28.0 -5.1 28.1 -3.65 27.9 -3.15 28.0 Q-3.05 27.95 -2.9 28.25 -2.8 28.45 -2.7 28.25 L-2.65 28.05 -2.6 27.9 -1.6 28.05 -1.45 27.9 -0.7 27.9 0.1 27.85 M-1.3 29.8 L-1.1 29.75 -1.25 29.55 Q-1.4 29.45 -1.4 29.65 L-1.3 29.8 M-1.55 29.75 L-1.65 29.55 -1.75 29.55 -1.85 29.7 -1.7 29.75 -1.6 29.8 -1.55 29.75 M-0.35 29.9 L-0.45 30.1 -0.35 30.25 -0.25 30.2 -0.15 30.15 -0.2 29.95 -0.35 29.9 M-0.4 30.6 L-0.3 30.65 -0.2 30.55 -0.15 30.5 -0.25 30.45 -0.35 30.5 -0.4 30.6 M-4.55 29.8 L-4.55 29.95 -4.45 29.95 -4.35 29.9 -4.45 29.8 -4.55 29.8 M-4.2 30.35 L-4.05 30.1 Q-4.05 29.95 -4.2 30.05 L-4.55 30.25 -4.55 30.4 -4.5 30.45 -4.2 30.35 M-3.5 30.1 L-3.6 30.1 -3.7 29.95 -3.8 30.1 -3.9 30.25 -3.85 30.4 -3.7 30.35 -3.5 30.1 M2.1 31.6 L2.0 31.4 1.85 31.45 1.85 31.6 2.0 31.7 2.05 31.7 2.1 31.6 M0.25 31.15 L0.1 31.1 0.0 31.3 0.5 31.4 0.55 31.3 0.45 31.25 0.25 31.15 M1.95 32.55 L1.85 32.6 1.8 32.7 1.6 32.55 1.7 32.75 1.7 32.85 1.65 32.8 1.6 32.8 1.6 32.45 1.6 32.4 1.7 32.4 1.65 32.3 1.6 32.3 1.45 32.65 1.7 32.9 1.8 32.85 1.85 32.8 1.85 32.75 2.15 32.8 2.05 32.7 1.95 32.55 M-0.3 30.9 L-0.35 31.05 -0.3 31.05 -0.15 31.1 0.0 31.0 -0.1 30.9 -0.3 30.9 M-0.6 30.8 L-0.6 30.75 -0.6 30.8 M-1.1 30.6 L-1.2 30.55 -1.25 30.7 -1.1 30.75 -1.1 30.6 M-1.5 31.0 L-1.5 31.3 -1.65 31.35 -1.7 31.25 -1.7 31.3 -1.7 31.4 -1.45 31.35 -1.35 31.0 -1.5 31.0 M-1.35 32.45 L-1.4 32.35 -1.4 32.45 -1.35 32.45 M24.2 31.75 L24.05 31.8 24.05 31.95 24.1 32.0 24.2 32.05 24.3 32.05 24.35 31.95 24.35 31.8 24.2 31.75 M24.05 31.95 L23.9 31.75 Q23.75 31.7 23.7 31.85 L23.7 32.05 23.75 32.1 23.8 32.15 24.05 32.05 24.1 32.0 24.0 32.0 24.05 31.95 M23.5 30.7 L23.3 30.7 23.3 30.8 23.5 30.8 23.5 30.7 M23.5 31.3 L23.5 31.4 23.5 31.5 23.7 31.5 23.75 31.4 23.7 31.35 23.6 31.3 23.5 31.3 M23.0 31.95 L22.95 32.05 23.0 32.1 23.1 32.15 23.15 31.95 23.0 31.95 M22.45 31.3 L22.55 31.4 22.55 31.15 22.45 31.3 M22.8 31.65 L22.55 31.5 22.5 31.55 22.5 31.65 22.55 31.75 22.6 31.85 22.7 31.95 22.8 31.65 M22.4 32.3 L22.7 32.3 22.6 32.1 22.4 32.15 22.4 32.3 M22.35 32.45 L22.25 32.35 22.1 32.35 22.05 32.25 22.05 32.4 22.1 32.5 22.25 32.5 22.35 32.45 M8.8 29.75 L8.8 29.85 8.9 29.95 9.0 29.75 8.8 29.75 M11.2 29.0 L11.2 29.15 11.35 29.05 11.3 28.85 11.2 29.0 M10.0 29.4 L10.05 29.5 10.05 29.4 10.0 29.4 M11.75 29.75 L11.75 29.9 11.95 29.75 11.85 29.7 11.75 29.75 M11.05 30.5 L11.1 30.35 10.95 30.3 10.9 30.4 10.95 30.55 11.05 30.5 M5.9 29.25 L5.65 29.3 5.9 29.4 5.9 29.25 M6.8 29.25 L7.0 29.1 6.75 29.1 6.7 29.25 6.8 29.25 M5.5 31.5 L5.4 31.4 Q5.3 31.4 5.25 31.5 L5.4 31.6 5.5 31.5 M11.8 30.7 L11.8 30.8 11.95 30.8 Q11.95 30.7 11.8 30.7 M11.8 30.8 L11.75 30.85 11.8 30.85 11.8 30.8 M11.6 30.8 L11.65 30.85 11.75 30.85 11.6 30.8 M17.0 29.45 L17.2 29.6 17.25 29.45 17.25 29.3 17.05 29.25 17.0 29.45 M19.9 30.55 L19.9 30.6 20.0 30.75 20.15 30.4 20.0 30.4 19.9 30.55 M20.85 29.55 L20.7 29.5 20.7 29.65 20.65 29.7 20.6 29.8 20.8 29.8 20.95 29.65 20.85 29.55 M20.55 30.45 L20.45 30.4 Q20.25 30.4 20.4 30.55 L20.5 30.55 20.55 30.45 M12.45 28.85 L12.35 29.2 12.55 29.2 12.7 29.0 12.55 28.75 12.45 28.85 M13.25 30.55 Q13.25 30.7 13.55 30.7 L13.45 30.5 13.25 30.55 M15.15 29.95 L15.0 29.95 14.9 30.0 14.95 30.0 15.1 30.1 15.15 29.95 M15.95 31.25 L16.05 31.3 16.1 31.15 16.0 31.1 15.95 31.25 M14.55 30.95 L14.4 31.1 14.55 31.15 14.6 30.95 14.55 30.95 M12.4 32.4 L12.5 32.45 12.6 32.4 12.5 32.4 12.4 32.4 M14.4 32.55 L14.15 32.15 14.1 32.55 Q14.1 32.7 14.3 32.7 L14.4 32.55 M20.25 31.45 L20.4 31.4 20.15 31.45 20.25 31.45 M18.65 31.05 Q18.65 31.0 18.9 30.9 L19.0 30.75 18.6 30.8 18.65 31.05 M17.0 32.6 L16.95 32.5 16.9 32.6 16.95 32.7 17.0 32.6 M19.0 32.35 L18.95 32.25 18.8 32.2 18.7 32.2 18.65 32.25 18.8 32.4 19.0 32.35 M21.1 30.4 Q20.9 30.4 21.1 30.6 L21.1 30.4" fill="#ffffff" fill-rule="evenodd" stroke="none"/>
    <path d="M27.7 28.0 L27.7 27.9 28.1 27.9 28.4 27.95 28.6 27.9 28.8 27.8 29.0 27.85 29.15 28.0 29.35 27.9 29.6 27.95 29.65 27.8 30.6 27.85 31.55 27.95 31.45 28.1 31.75 28.15 32.05 27.85 Q32.3 27.8 32.45 28.1 L32.55 27.95 32.6 27.85 33.15 27.9 33.75 27.85 33.65 27.95 33.65 28.05 33.75 28.15 33.85 28.2 34.0 27.85 34.5 28.1 34.8 28.05 34.65 27.95 34.9 27.9 35.15 27.95 35.1 28.2 35.35 28.25 35.55 28.05 35.6 29.7 35.6 30.25 35.6 30.8 35.45 30.85 35.4 30.95 35.4 31.05 35.45 31.1 35.6 31.1 Q35.5 31.25 35.55 31.55 L35.6 31.85 35.3 31.75 35.4 32.05 35.6 32.3 35.65 32.8 35.55 33.3 35.25 33.4 34.85 33.3 34.75 33.4 34.7 33.45 34.5 33.4 Q34.4 33.25 34.25 33.25 L34.05 33.25 Q33.95 33.3 34.0 33.45 L33.85 33.35 33.75 33.25 33.5 33.4 33.25 33.45 32.9 33.3 32.9 33.4 32.8 33.5 32.45 33.35 32.2 33.45 31.95 33.45 30.35 33.4 28.8 33.45 27.65 33.4 27.65 33.45 27.55 33.45 26.95 33.45 26.5 33.4 26.05 33.45 26.0 33.35 25.9 33.3 25.85 33.45 25.2 33.5 24.55 33.45 24.35 33.45 24.15 33.35 23.95 33.45 23.1 33.45 22.1 33.45 22.0 33.4 21.95 33.45 21.75 33.4 21.55 33.35 21.4 33.45 21.2 33.5 20.9 33.3 20.8 33.3 20.75 33.35 20.6 33.3 20.5 33.4 20.5 33.45 16.25 33.5 16.2 33.45 16.15 33.35 16.0 33.45 15.8 33.45 15.1 33.5 14.4 33.45 14.3 33.5 14.1 33.6 14.05 33.55 13.95 33.45 13.9 33.55 13.75 33.55 13.75 33.45 13.65 33.6 13.55 33.6 12.8 33.55 12.0 33.45 12.15 33.35 11.8 33.0 Q11.6 32.95 11.6 33.1 L11.75 33.3 11.85 33.4 11.1 33.5 10.35 33.5 10.0 33.55 9.75 33.35 9.65 33.3 9.55 33.4 9.55 33.5 9.05 33.55 8.8 33.35 8.7 33.4 8.65 33.5 7.85 33.5 7.1 33.45 6.95 33.4 6.9 33.25 6.65 33.35 Q6.55 33.4 6.6 33.5 6.3 33.6 6.05 33.3 6.0 33.3 5.9 33.4 L5.75 33.5 5.75 33.45 5.7 33.3 5.55 33.3 5.45 33.45 5.2 33.4 5.0 33.3 5.15 33.15 5.2 33.0 Q4.95 32.65 4.95 31.85 L5.1 31.8 5.25 31.75 5.05 31.4 5.0 30.2 5.0 29.0 5.25 28.95 5.1 28.65 5.0 28.3 5.25 28.1 5.5 27.9 5.55 28.0 5.6 28.1 6.4 27.85 7.1 27.9 7.6 28.0 7.8 28.25 Q7.9 28.45 8.0 28.25 L8.05 28.05 8.15 27.9 9.15 28.05 9.25 27.9 10.0 27.9 10.85 27.85 11.5 27.85 12.55 27.8 13.65 27.85 13.7 28.0 13.85 28.05 14.25 27.8 14.65 27.8 14.9 27.95 15.15 28.0 15.25 27.9 15.3 27.8 16.9 27.85 18.55 27.85 18.75 27.85 19.0 27.8 18.9 27.9 19.1 28.0 19.1 27.8 19.4 27.9 19.6 28.05 19.75 28.0 19.65 27.8 20.05 27.9 20.5 27.9 20.55 27.8 20.95 27.9 21.7 27.85 22.45 27.7 22.65 28.15 22.8 28.05 22.85 27.8 23.25 27.8 23.6 27.85 24.2 28.1 24.35 28.0 24.45 27.85 24.7 27.85 25.0 27.85 25.4 28.0 25.5 27.9 25.55 27.7 25.55 27.9 25.65 27.95 25.75 27.85 25.8 27.8 26.55 27.8 27.2 27.8 27.4 27.95 27.6 28.15 27.7 28.1 27.7 28.0 M27.75 29.25 L27.7 29.45 27.9 29.6 27.95 29.45 27.95 29.3 27.75 29.25 M23.3 28.75 Q23.2 28.75 23.15 28.85 L23.05 29.2 23.3 29.2 23.45 29.0 23.3 28.75 M21.95 29.0 L21.95 29.15 22.1 29.05 22.0 28.85 21.95 29.0 M22.5 29.75 L22.5 29.9 22.65 29.75 22.6 29.7 22.5 29.75 M21.75 30.5 L21.85 30.35 21.7 30.3 21.6 30.4 21.7 30.55 21.75 30.5 M25.7 30.0 L25.8 30.1 25.85 29.95 25.7 29.95 25.6 30.0 25.7 30.0 M24.0 30.55 L24.25 30.7 24.15 30.5 24.0 30.55 M25.25 30.95 L25.1 31.1 25.25 31.15 25.3 30.95 25.25 30.95 M25.1 32.55 L24.9 32.15 24.8 32.55 Q24.8 32.7 25.05 32.7 L25.1 32.55 M22.5 30.8 L22.65 30.8 Q22.65 30.7 22.5 30.7 L22.5 30.8 22.5 30.85 22.3 30.8 22.4 30.85 22.5 30.85 22.5 30.8 M23.35 32.4 L23.2 32.4 23.1 32.4 23.2 32.45 23.35 32.4 M30.95 31.45 L31.1 31.4 30.9 31.45 30.95 31.45 M29.35 31.05 L29.65 30.9 29.75 30.75 29.3 30.8 29.35 31.05 M29.75 32.35 L29.7 32.25 29.5 32.2 29.45 32.2 29.35 32.25 29.5 32.4 29.75 32.35 M26.8 31.15 L26.7 31.1 26.65 31.25 26.75 31.3 26.8 31.15 M27.75 32.6 L27.65 32.5 27.65 32.7 27.75 32.6 M31.5 29.8 L31.65 29.65 31.55 29.55 31.4 29.5 31.4 29.65 31.35 29.7 31.35 29.8 31.5 29.8 M31.25 30.45 L31.15 30.4 Q30.95 30.4 31.1 30.55 L31.25 30.55 31.25 30.45 M31.75 30.45 L31.85 30.6 31.85 30.4 31.75 30.45 M35.1 31.95 L35.05 31.8 34.9 31.75 34.8 31.8 34.75 31.95 34.65 31.75 34.45 31.85 34.45 32.05 34.45 32.1 34.55 32.15 34.75 32.05 34.8 32.0 34.9 32.05 35.05 32.05 35.1 31.95 M34.2 30.7 L34.0 30.7 34.0 30.8 34.2 30.8 34.2 30.7 M34.25 31.3 L34.2 31.4 34.2 31.5 34.45 31.5 34.5 31.4 34.45 31.35 34.35 31.3 34.25 31.3 M33.7 31.95 L33.65 32.05 33.7 32.1 33.8 32.15 33.85 31.95 33.7 31.95 M33.15 31.3 L33.25 31.4 33.25 31.15 33.15 31.3 M33.5 31.65 L33.3 31.5 33.2 31.55 33.2 31.65 33.25 31.75 33.35 31.85 33.45 31.95 33.5 31.65 M33.1 32.3 L33.3 32.4 33.45 32.3 33.35 32.1 33.1 32.15 33.1 32.3 M33.05 32.45 L33.0 32.35 32.85 32.35 32.8 32.25 32.75 32.4 32.85 32.5 33.0 32.5 33.05 32.45 M9.45 29.55 Q9.3 29.45 9.3 29.65 L9.45 29.8 9.6 29.75 9.45 29.55 M9.2 29.75 L9.1 29.55 8.95 29.55 8.85 29.7 9.0 29.75 9.1 29.8 9.2 29.75 M10.35 30.5 L10.3 30.6 10.4 30.65 10.5 30.55 10.55 30.5 10.45 30.45 10.35 30.5 M10.35 29.9 L10.25 30.1 10.35 30.25 10.55 30.15 10.5 29.95 10.35 29.9 M6.15 29.8 L6.15 29.95 6.3 29.95 6.35 29.9 6.3 29.8 6.15 29.8 M6.55 30.35 L6.65 30.1 Q6.65 29.95 6.5 30.05 L6.15 30.25 6.15 30.4 6.2 30.45 6.55 30.35 M7.2 30.1 L7.15 30.1 7.05 29.95 6.9 30.1 6.8 30.25 6.85 30.4 7.05 30.35 7.2 30.1 M11.3 31.3 L11.2 31.25 11.15 31.25 10.95 31.15 Q10.85 31.2 10.85 31.1 L10.75 31.3 11.2 31.4 11.3 31.3 M10.6 30.9 L10.4 30.9 10.35 31.05 10.45 31.05 10.55 31.1 10.7 31.0 10.6 30.9 M10.1 30.8 L10.15 30.8 10.15 30.75 10.1 30.8 M9.6 30.75 L9.6 30.6 9.5 30.55 9.45 30.7 9.6 30.75 M9.25 31.0 L9.25 31.3 9.1 31.35 9.0 31.25 9.0 31.3 9.0 31.4 9.25 31.35 9.35 31.0 9.25 31.0 M9.35 32.45 L9.3 32.35 9.3 32.45 9.35 32.45 M17.45 29.1 Q17.35 29.15 17.4 29.25 L17.5 29.25 17.7 29.1 17.45 29.1 M19.55 29.75 L19.5 29.85 19.65 29.95 19.75 29.75 19.55 29.75 M20.75 29.4 L20.8 29.5 20.8 29.4 20.75 29.4 M16.6 29.25 L16.35 29.3 16.6 29.4 16.6 29.25 M16.2 31.5 L16.1 31.4 16.0 31.5 16.1 31.6 16.2 31.5 M12.55 31.45 L12.55 31.6 12.7 31.7 12.75 31.7 12.85 31.6 12.7 31.4 12.55 31.45 M12.3 32.3 L12.15 32.65 12.4 32.9 12.5 32.85 12.55 32.8 12.55 32.75 12.9 32.8 12.75 32.7 12.65 32.55 12.55 32.6 12.5 32.7 12.3 32.55 12.4 32.75 12.4 32.85 12.35 32.8 12.3 32.8 12.3 32.45 12.3 32.4 12.4 32.4 12.35 32.3 12.3 32.3" fill="#ffffff" fill-rule="evenodd" stroke="none"/>
    <path d="M-5.1 -33.25 L-5.05 -31.6 -5.0 -31.0 -5.05 -30.5 -5.15 -30.45 -5.25 -30.3 -5.25 -30.2 -5.2 -30.15 -5.05 -30.15 -5.05 -29.75 -5.05 -29.4 -5.3 -29.55 -5.2 -29.25 -5.05 -29.0 -5.0 -28.45 -5.1 -28.0 -5.4 -27.9 -5.8 -28.0 -5.9 -27.9 -5.9 -27.8 -6.1 -27.85 -6.35 -28.0 -6.55 -28.0 -6.65 -27.8 -6.9 -28.0 -7.1 -27.9 -7.35 -27.8 -7.55 -27.9 -7.75 -28.0 -7.75 -27.85 -7.85 -27.75 -8.2 -27.95 Q-8.25 -27.8 -8.45 -27.8 L-8.7 -27.85 -10.25 -27.85 -11.85 -27.85 -12.95 -27.9 -13.0 -27.85 -13.1 -27.8 -13.65 -27.8 -14.15 -27.9 -14.6 -27.85 -14.65 -27.9 -14.75 -28.0 -14.75 -27.85 -15.45 -27.75 -16.1 -27.85 -16.3 -27.85 -16.45 -27.95 Q-16.45 -27.8 -16.7 -27.85 L-17.55 -27.8 -18.5 -27.85 -18.6 -27.85 -18.7 -27.8 -18.85 -27.85 Q-19.05 -27.85 -19.05 -27.95 L-19.25 -27.8 -19.45 -27.75 Q-19.7 -27.9 -19.75 -28.0 L-19.85 -28.0 -19.9 -27.95 -20.0 -27.95 -20.05 -28.0 -20.1 -27.9 -20.1 -27.8 -24.4 -27.75 -24.4 -27.85 -24.45 -27.95 Q-24.5 -27.8 -24.65 -27.8 L-24.85 -27.8 -25.55 -27.75 -26.25 -27.85 -26.35 -27.75 -26.5 -27.65 -26.55 -27.7 -26.65 -27.8 -26.75 -27.7 -26.85 -27.7 -26.9 -27.8 -27.0 -27.7 -27.05 -27.65 -27.85 -27.75 -28.6 -27.8 -28.5 -27.95 -28.85 -28.25 -29.05 -28.15 -28.85 -27.95 -28.8 -27.9 -29.5 -27.8 -30.25 -27.75 -30.6 -27.75 -30.9 -27.95 -31.0 -27.95 -31.1 -27.9 -31.1 -27.75 -31.55 -27.7 -31.8 -27.95 -31.95 -27.85 -32.0 -27.75 -32.8 -27.75 -33.55 -27.8 -33.7 -27.85 -33.75 -28.0 -33.95 -27.95 -34.0 -27.75 Q-34.3 -27.7 -34.6 -28.0 L-34.7 -27.9 -34.9 -27.75 -34.9 -27.85 -34.9 -27.95 -35.05 -28.0 -35.2 -27.8 -35.45 -27.85 -35.6 -28.0 -35.5 -28.1 Q-35.4 -28.2 -35.45 -28.25 L-35.65 -29.4 -35.5 -29.45 -35.4 -29.55 -35.55 -29.9 -35.65 -31.05 -35.6 -32.3 -35.4 -32.3 -35.55 -32.65 -35.6 -32.95 -35.4 -33.2 -35.15 -33.35 -35.1 -33.3 -35.0 -33.2 -33.55 -33.35 -33.05 -33.3 -32.8 -33.0 Q-32.75 -32.8 -32.65 -33.0 L-32.6 -33.2 -32.5 -33.35 -31.5 -33.25 -31.35 -33.35 -30.65 -33.35 -29.8 -33.4 -29.1 -33.4 -28.1 -33.45 -27.0 -33.4 -26.9 -33.3 -26.8 -33.25 -26.4 -33.45 -25.95 -33.45 -25.75 -33.35 -25.45 -33.3 -25.4 -33.35 -25.35 -33.45 -23.75 -33.4 -22.1 -33.4 -21.9 -33.4 -21.65 -33.45 -21.7 -33.35 -21.55 -33.3 -21.55 -33.45 Q-21.35 -33.5 -21.25 -33.35 L-21.05 -33.25 -20.9 -33.3 -21.0 -33.45 -20.6 -33.35 -20.1 -33.35 -20.1 -33.45 -19.65 -33.35 -18.95 -33.4 -18.2 -33.55 Q-18.2 -33.1 -18.0 -33.1 -17.75 -33.3 -17.8 -33.45 L-17.35 -33.5 -17.0 -33.4 -16.4 -33.2 -16.25 -33.25 -16.2 -33.4 -15.95 -33.4 -15.65 -33.4 -15.4 -33.3 -15.25 -33.3 Q-15.15 -33.3 -15.15 -33.35 L-15.1 -33.55 -15.05 -33.4 -14.95 -33.35 -14.9 -33.4 -14.8 -33.45 -14.1 -33.5 -13.45 -33.45 -13.2 -33.35 -13.05 -33.15 -12.9 -33.15 -12.9 -33.3 -12.9 -33.35 -12.55 -33.4 -12.2 -33.35 -12.05 -33.4 -11.8 -33.45 -11.65 -33.4 -11.5 -33.3 -11.3 -33.4 -11.05 -33.35 -11.0 -33.45 -9.05 -33.35 -9.15 -33.2 Q-9.0 -33.0 -8.55 -33.4 -8.35 -33.5 -8.2 -33.2 L-8.1 -33.3 -8.0 -33.4 -7.45 -33.35 -6.9 -33.4 -6.95 -33.3 -6.95 -33.25 -6.9 -33.15 -6.8 -33.05 -6.6 -33.4 -6.15 -33.15 Q-5.95 -32.95 -5.85 -33.25 L-6.0 -33.35 -5.75 -33.35 -5.45 -33.35 -5.55 -33.05 -5.3 -33.05 -5.1 -33.25 M-5.6 -29.25 L-5.55 -29.3 -5.55 -29.45 -5.75 -29.55 -5.85 -29.45 -5.85 -29.3 -5.85 -29.25 -5.75 -29.2 -5.6 -29.25 M-6.4 -30.6 L-6.6 -30.6 -6.6 -30.45 -6.4 -30.45 -6.4 -30.6 M-6.3 -30.0 L-6.4 -30.0 -6.4 -29.9 -6.4 -29.75 -6.2 -29.75 -6.15 -29.9 -6.2 -29.95 -6.3 -30.0 M-6.95 -29.2 L-6.9 -29.15 -6.85 -29.1 -6.8 -29.3 -6.95 -29.3 -6.95 -29.2 M-6.2 -29.2 L-6.15 -29.15 -6.1 -29.1 Q-5.95 -29.1 -5.85 -29.2 L-5.85 -29.25 -5.9 -29.3 -5.85 -29.3 -6.0 -29.55 -6.2 -29.45 -6.2 -29.2 M-9.05 -31.75 L-9.2 -31.75 -9.2 -31.65 -9.25 -31.55 -9.3 -31.45 -9.1 -31.45 -9.0 -31.65 -9.05 -31.75 M-9.4 -30.85 L-9.5 -30.85 -9.55 -30.7 -9.4 -30.7 -9.4 -30.85 M-8.8 -30.85 L-8.9 -30.8 -8.8 -30.7 -8.8 -30.85 M-10.0 -30.7 L-10.0 -30.65 -9.9 -30.55 -9.75 -30.85 -10.0 -30.7 M-9.65 -29.8 L-9.55 -29.9 -9.75 -29.8 -9.65 -29.8 M-11.25 -30.2 L-11.0 -30.35 -10.9 -30.55 -11.3 -30.5 -11.25 -30.2 M-11.1 -29.05 L-11.2 -29.05 -11.25 -29.05 -11.1 -28.9 -10.9 -28.95 -10.95 -29.05 -11.1 -29.05 M-7.45 -30.0 L-7.35 -29.9 -7.35 -30.1 -7.45 -30.0 M-7.15 -29.6 L-7.35 -29.75 -7.4 -29.7 -7.4 -29.65 -7.35 -29.55 -7.3 -29.4 -7.2 -29.3 Q-7.1 -29.45 -7.15 -29.6 M-7.3 -29.15 L-7.5 -29.1 -7.5 -29.0 -7.3 -28.9 -7.2 -29.0 -7.3 -29.15 M-7.8 -28.75 L-7.65 -28.8 Q-7.55 -28.8 -7.55 -28.85 L-7.65 -28.95 -7.8 -28.95 -7.85 -29.05 -7.9 -28.9 -7.8 -28.75 M-12.9 -31.8 L-12.7 -31.7 -12.65 -31.8 -12.7 -31.95 -12.85 -32.0 -12.9 -31.8 M-14.9 -31.3 L-15.0 -31.25 -14.95 -31.25 -14.8 -31.2 -14.75 -31.3 -14.9 -31.3 M-15.5 -30.15 L-15.35 -30.1 -15.35 -30.3 -15.5 -30.15 M-15.5 -28.7 L-15.75 -29.1 -15.85 -28.7 Q-15.85 -28.55 -15.6 -28.55 -15.5 -28.5 -15.5 -28.7 M-13.8 -30.1 L-13.9 -30.15 -13.95 -30.05 -13.85 -30.0 -13.8 -30.1 M-12.9 -28.65 L-12.95 -28.75 -13.0 -28.65 -12.95 -28.55 -12.9 -28.65 M-16.45 -30.75 L-16.65 -30.7 Q-16.65 -30.6 -16.4 -30.6 L-16.45 -30.75 M-17.35 -32.5 L-17.5 -32.4 -17.55 -32.1 -17.35 -32.1 Q-17.2 -32.1 -17.2 -32.3 -17.15 -32.5 -17.35 -32.5 M-18.7 -32.3 L-18.7 -32.1 -18.55 -32.2 Q-18.5 -32.4 -18.6 -32.4 L-18.7 -32.3 M-18.85 -30.8 L-18.8 -30.9 -18.85 -30.95 -18.95 -31.0 -19.05 -30.85 -18.95 -30.7 -18.85 -30.8 M-18.15 -31.35 Q-18.0 -31.35 -18.0 -31.5 L-18.05 -31.55 -18.15 -31.55 -18.15 -31.35 M-21.1 -31.4 L-21.0 -31.3 -20.9 -31.5 -21.1 -31.55 -21.1 -31.4 M-19.85 -31.75 L-19.85 -31.85 -19.9 -31.85 -19.85 -31.75 M-18.15 -30.4 L-18.1 -30.4 -18.1 -30.45 -18.15 -30.4 -18.35 -30.5 -18.25 -30.4 -18.15 -30.4 M-18.1 -30.45 L-18.0 -30.5 -18.1 -30.6 -18.1 -30.45 M-17.3 -28.9 L-17.4 -28.9 -17.5 -28.9 -17.4 -28.85 -17.3 -28.9 M-23.15 -32.2 L-23.25 -32.0 -23.15 -32.0 -22.9 -32.2 -23.15 -32.2 M-24.0 -32.0 L-24.3 -31.95 -24.0 -31.85 -24.0 -32.0 M-24.5 -29.7 L-24.4 -29.75 -24.5 -29.85 -24.65 -29.75 -24.5 -29.7 M-30.25 -31.35 L-30.35 -31.2 -30.25 -31.05 -30.15 -31.1 -30.1 -31.15 -30.15 -31.3 -30.25 -31.35 M-30.25 -30.75 L-30.3 -30.7 -30.2 -30.65 -30.15 -30.7 -30.1 -30.75 -30.15 -30.8 -30.25 -30.75 M-29.35 -30.0 L-29.45 -30.0 -29.5 -30.05 -29.65 -30.1 -29.8 -30.15 -29.9 -30.0 Q-29.8 -29.85 -29.45 -29.85 L-29.35 -30.0 M-30.05 -30.35 L-30.2 -30.35 -30.25 -30.2 -30.2 -30.2 -30.1 -30.15 -29.95 -30.25 -30.05 -30.35 M-30.55 -30.5 L-30.55 -30.45 -30.5 -30.45 -30.5 -30.55 -30.55 -30.5 M-28.05 -29.8 L-28.05 -29.65 -27.95 -29.6 -27.8 -29.65 -27.95 -29.85 -28.05 -29.8 M-27.9 -28.55 L-28.0 -28.7 -28.1 -28.65 -28.1 -28.55 -28.35 -28.75 -28.2 -28.55 -28.2 -28.45 -28.25 -28.45 -28.35 -28.5 -28.35 -28.8 -28.3 -28.85 -28.2 -28.9 -28.25 -29.0 -28.35 -29.0 -28.45 -28.6 -28.2 -28.4 -28.1 -28.4 -28.05 -28.5 -28.05 -28.55 -27.75 -28.5 -27.9 -28.55 M-31.05 -31.5 L-31.15 -31.7 -31.3 -31.65 -31.2 -31.45 Q-31.05 -31.35 -31.05 -31.5 M-31.65 -31.5 L-31.55 -31.5 Q-31.45 -31.5 -31.45 -31.55 L-31.55 -31.7 -31.7 -31.7 -31.75 -31.55 -31.65 -31.5 M-31.15 -30.7 L-31.15 -30.6 -31.05 -30.55 -31.0 -30.65 -31.15 -30.7 M-34.45 -31.3 L-34.35 -31.3 -34.3 -31.35 -34.35 -31.45 -34.45 -31.45 -34.45 -31.3 M-34.5 -30.9 L-34.4 -30.8 -34.1 -30.9 Q-33.95 -31.0 -33.95 -31.2 L-34.15 -31.25 -34.45 -31.05 -34.5 -30.9 M-33.4 -31.2 L-33.5 -31.2 -33.6 -31.3 -33.7 -31.2 -33.8 -31.05 -33.8 -30.85 -33.6 -30.95 -33.4 -31.2 M-31.25 -30.25 L-31.4 -30.25 -31.4 -30.0 -31.55 -29.95 -31.6 -30.05 -31.65 -30.0 -31.65 -29.85 -31.4 -29.95 -31.25 -30.25 M-31.3 -28.8 L-31.25 -28.85 -31.3 -28.95 -31.3 -28.8" fill="#ffffff" fill-rule="evenodd" stroke="none"/>
    <path d="M24.9 -31.0 L24.85 -30.5 24.75 -30.45 24.7 -30.3 24.65 -30.2 24.7 -30.15 24.85 -30.15 24.85 -29.75 24.85 -29.4 24.6 -29.55 24.7 -29.25 24.85 -29.0 24.95 -28.45 24.8 -28.0 Q24.75 -27.85 24.55 -27.9 L24.15 -28.0 24.0 -27.9 24.0 -27.8 23.8 -27.85 23.55 -28.0 23.35 -28.0 23.25 -27.8 23.15 -27.95 23.05 -28.0 22.8 -27.9 Q22.65 -27.8 22.55 -27.8 L22.35 -27.9 22.15 -28.0 22.15 -27.85 22.05 -27.75 Q21.8 -27.75 21.7 -27.95 L21.5 -27.8 21.2 -27.85 19.65 -27.85 18.05 -27.85 16.95 -27.9 16.9 -27.85 16.8 -27.8 16.25 -27.8 15.75 -27.9 15.3 -27.85 15.25 -27.9 15.15 -28.0 15.15 -27.85 14.45 -27.75 13.8 -27.85 13.65 -27.85 Q13.5 -27.85 13.45 -27.95 L13.2 -27.85 12.35 -27.8 11.4 -27.85 11.3 -27.85 11.2 -27.8 11.05 -27.85 Q10.9 -27.85 10.85 -27.95 L10.65 -27.8 10.45 -27.75 10.3 -27.8 10.15 -28.0 10.05 -28.0 10.0 -27.95 9.9 -27.95 9.85 -28.0 9.8 -27.9 9.8 -27.8 5.55 -27.75 5.5 -27.85 5.45 -27.95 5.25 -27.8 5.1 -27.8 4.35 -27.75 3.65 -27.85 3.6 -27.75 3.4 -27.65 3.35 -27.7 3.25 -27.8 3.15 -27.7 3.05 -27.7 3.05 -27.8 2.95 -27.7 2.85 -27.65 2.05 -27.75 1.3 -27.8 1.45 -27.95 1.05 -28.25 Q0.9 -28.3 0.9 -28.15 L1.05 -27.95 1.1 -27.9 0.4 -27.8 -0.35 -27.75 -0.7 -27.75 -1.0 -27.95 -1.1 -27.95 -1.15 -27.9 -1.15 -27.75 -1.65 -27.7 -1.9 -27.95 -2.0 -27.85 -2.1 -27.75 -2.85 -27.75 -3.65 -27.8 -3.75 -27.85 -3.8 -28.0 -4.05 -27.95 -4.1 -27.75 Q-4.4 -27.7 -4.7 -28.0 L-4.8 -27.9 -4.95 -27.75 -4.95 -27.85 -5.0 -27.95 -5.15 -28.0 -5.3 -27.8 -5.5 -27.85 -5.7 -28.0 -5.55 -28.1 -5.5 -28.25 -5.75 -29.4 -5.6 -29.45 -5.45 -29.55 -5.65 -29.9 -5.7 -31.05 -5.7 -32.3 -5.45 -32.3 -5.6 -32.65 -5.7 -32.95 -5.5 -33.2 -5.25 -33.35 -5.2 -33.3 -5.1 -33.2 -3.65 -33.35 -3.15 -33.3 -2.9 -33.0 Q-2.8 -32.8 -2.7 -33.0 L-2.65 -33.2 -2.6 -33.35 -1.6 -33.25 -1.45 -33.35 -0.7 -33.35 0.1 -33.4 0.8 -33.4 1.85 -33.45 2.95 -33.4 3.0 -33.3 3.1 -33.25 3.5 -33.45 3.95 -33.45 4.15 -33.35 4.45 -33.3 4.5 -33.35 4.6 -33.45 6.2 -33.4 7.8 -33.4 8.05 -33.4 8.25 -33.45 8.2 -33.35 8.35 -33.3 8.35 -33.45 8.65 -33.35 8.85 -33.25 9.0 -33.3 8.9 -33.45 9.3 -33.35 9.8 -33.35 9.85 -33.45 10.25 -33.35 10.95 -33.4 11.7 -33.55 Q11.7 -33.1 11.95 -33.1 L12.05 -33.25 12.1 -33.45 12.55 -33.5 12.9 -33.4 13.5 -33.2 13.65 -33.25 13.7 -33.4 13.95 -33.4 14.25 -33.4 14.5 -33.3 14.65 -33.3 14.75 -33.35 14.8 -33.55 14.85 -33.4 Q14.85 -33.35 14.95 -33.35 L15.0 -33.4 15.1 -33.45 15.8 -33.5 16.45 -33.45 16.7 -33.35 16.85 -33.15 17.0 -33.15 17.0 -33.3 17.0 -33.35 17.35 -33.4 17.7 -33.35 17.85 -33.4 18.1 -33.45 18.25 -33.4 18.4 -33.3 18.6 -33.4 18.85 -33.35 18.9 -33.45 20.85 -33.35 20.75 -33.2 Q20.9 -33.0 21.35 -33.4 21.55 -33.5 21.7 -33.2 L21.8 -33.3 21.9 -33.4 22.45 -33.35 23.05 -33.4 22.95 -33.3 22.95 -33.25 23.05 -33.15 23.15 -33.05 23.3 -33.4 23.8 -33.15 Q24.0 -32.95 24.1 -33.25 L23.9 -33.35 24.15 -33.35 24.45 -33.35 24.35 -33.05 24.6 -33.05 24.8 -33.25 24.85 -31.6 24.9 -31.0 M23.5 -30.6 L23.3 -30.6 23.3 -30.45 23.5 -30.45 23.5 -30.6 M23.5 -30.0 L23.5 -29.9 23.5 -29.75 23.7 -29.75 23.75 -29.9 23.7 -29.95 23.6 -30.0 23.5 -30.0 M23.0 -29.3 L22.95 -29.2 23.0 -29.15 23.1 -29.1 23.15 -29.3 23.0 -29.3 M23.7 -29.45 L23.7 -29.2 23.75 -29.15 23.8 -29.1 24.05 -29.2 24.1 -29.25 24.0 -29.3 24.05 -29.3 23.9 -29.55 23.7 -29.45 M22.45 -30.0 L22.55 -29.9 22.55 -30.1 22.45 -30.0 M22.8 -29.6 L22.55 -29.75 22.5 -29.7 22.5 -29.65 22.55 -29.55 22.6 -29.4 22.7 -29.3 22.8 -29.6 M22.6 -29.15 L22.4 -29.1 22.4 -29.0 22.6 -28.9 22.7 -29.0 22.6 -29.15 M22.35 -28.85 L22.25 -28.95 22.1 -28.95 22.05 -29.05 22.05 -28.9 22.1 -28.75 22.25 -28.8 22.35 -28.85 M24.2 -29.2 L24.3 -29.25 24.35 -29.3 24.35 -29.45 24.2 -29.55 24.05 -29.45 24.05 -29.3 24.1 -29.25 24.2 -29.2 M20.0 -30.9 L19.9 -30.7 19.9 -30.65 20.0 -30.55 20.15 -30.85 20.0 -30.9 M20.7 -31.65 L20.65 -31.55 20.6 -31.45 20.8 -31.45 20.95 -31.65 20.85 -31.75 20.7 -31.75 20.7 -31.65 M20.45 -30.85 Q20.25 -30.85 20.4 -30.7 L20.5 -30.7 20.55 -30.85 20.45 -30.85 M21.1 -30.85 L21.0 -30.8 21.1 -30.7 21.1 -30.85 M17.0 -31.8 L17.2 -31.7 17.25 -31.8 17.25 -31.95 17.05 -32.0 17.0 -31.8 M18.65 -30.2 L18.9 -30.35 19.0 -30.55 18.6 -30.5 18.65 -30.2 M17.0 -28.65 L16.95 -28.75 16.9 -28.65 16.95 -28.55 17.0 -28.65 M19.0 -28.95 L18.95 -29.05 18.8 -29.05 18.7 -29.05 18.65 -29.05 18.8 -28.9 19.0 -28.95 M20.4 -29.9 L20.15 -29.8 20.25 -29.8 20.4 -29.9 M15.0 -31.3 L14.9 -31.25 14.95 -31.25 15.1 -31.2 15.15 -31.3 15.0 -31.3 M12.45 -32.4 L12.35 -32.1 12.55 -32.1 12.7 -32.3 12.55 -32.5 12.45 -32.4 M13.25 -30.7 L13.55 -30.6 13.45 -30.75 13.25 -30.7 M12.4 -28.9 L12.5 -28.85 12.6 -28.9 12.5 -28.9 12.4 -28.9 M14.4 -28.7 L14.15 -29.1 14.1 -28.7 Q14.1 -28.55 14.3 -28.55 L14.4 -28.7 M15.95 -30.05 Q15.95 -30.0 16.05 -30.0 L16.1 -30.1 16.0 -30.15 15.95 -30.05 M14.55 -30.3 L14.4 -30.15 14.55 -30.1 14.6 -30.3 14.55 -30.3 M11.2 -32.3 L11.2 -32.1 11.35 -32.2 11.3 -32.4 11.2 -32.3 M10.0 -31.85 L10.05 -31.75 10.05 -31.85 10.0 -31.85 M11.75 -31.55 L11.75 -31.35 11.95 -31.5 11.85 -31.55 11.75 -31.55 M10.95 -30.7 L11.05 -30.8 11.1 -30.9 11.05 -30.95 10.95 -31.0 10.9 -30.85 10.95 -30.7 M8.8 -31.4 L8.9 -31.3 9.0 -31.5 8.8 -31.55 8.8 -31.4 M11.8 -30.6 L11.8 -30.45 11.95 -30.5 11.8 -30.6 M11.8 -30.45 L11.75 -30.4 11.8 -30.4 11.8 -30.45 M11.75 -30.4 L11.6 -30.5 11.65 -30.4 11.75 -30.4 M6.7 -32.0 L6.8 -32.0 7.0 -32.2 6.75 -32.2 6.7 -32.0 M5.9 -32.0 L5.65 -31.95 5.9 -31.85 5.9 -32.0 M5.5 -29.75 L5.4 -29.85 5.25 -29.75 5.4 -29.7 5.5 -29.75 M-1.4 -31.65 L-1.3 -31.45 Q-1.1 -31.35 -1.1 -31.5 L-1.25 -31.7 -1.4 -31.65 M-1.55 -31.55 L-1.65 -31.7 -1.75 -31.7 -1.85 -31.55 -1.7 -31.5 -1.6 -31.5 -1.55 -31.55 M-1.2 -30.7 L-1.25 -30.6 -1.1 -30.55 -1.1 -30.65 -1.2 -30.7 M-0.35 -31.35 L-0.45 -31.2 -0.35 -31.05 -0.25 -31.1 Q-0.15 -31.1 -0.15 -31.15 L-0.2 -31.3 -0.35 -31.35 M-0.15 -30.75 L-0.25 -30.8 -0.35 -30.75 -0.4 -30.7 -0.3 -30.65 -0.2 -30.7 -0.15 -30.75 M-0.1 -30.35 L-0.3 -30.35 -0.35 -30.2 -0.3 -30.2 -0.15 -30.15 0.0 -30.25 -0.1 -30.35 M0.0 -30.0 Q0.1 -29.85 0.5 -29.85 L0.55 -30.0 0.45 -30.05 0.25 -30.1 Q0.15 -30.05 0.1 -30.15 L0.0 -30.0 M-0.6 -30.5 L-0.6 -30.45 -0.6 -30.55 -0.6 -30.5 M-1.5 -30.25 L-1.5 -30.0 -1.65 -29.95 -1.7 -30.05 -1.7 -30.0 -1.7 -29.85 -1.45 -29.95 -1.35 -30.25 -1.5 -30.25 M-1.35 -28.85 L-1.4 -28.95 -1.4 -28.8 -1.35 -28.85 M2.1 -29.65 L2.0 -29.85 1.85 -29.8 1.85 -29.65 2.0 -29.6 2.05 -29.6 2.1 -29.65 M1.95 -28.7 L1.85 -28.65 1.8 -28.55 1.85 -28.55 2.15 -28.5 2.05 -28.55 1.95 -28.7 M1.65 -29.0 L1.6 -29.0 1.45 -28.6 1.7 -28.4 1.8 -28.4 1.85 -28.5 1.85 -28.55 1.8 -28.55 1.7 -28.65 1.6 -28.75 1.7 -28.55 1.7 -28.45 1.65 -28.45 1.6 -28.5 1.6 -28.8 1.6 -28.85 1.7 -28.9 1.65 -29.0 M-4.55 -31.45 L-4.55 -31.3 -4.45 -31.3 Q-4.35 -31.3 -4.35 -31.35 L-4.45 -31.45 -4.55 -31.45 M-4.2 -30.9 Q-4.05 -31.0 -4.05 -31.2 L-4.2 -31.25 -4.55 -31.05 -4.55 -30.9 -4.5 -30.8 -4.2 -30.9 M-3.5 -31.2 L-3.6 -31.2 -3.7 -31.3 -3.8 -31.2 -3.9 -31.05 -3.85 -30.85 -3.7 -30.95 -3.5 -31.2" fill="#ffffff" fill-rule="evenodd" stroke="none"/>
    <path d="M35.55 -33.25 L35.6 -31.6 35.6 -31.0 35.6 -30.5 35.45 -30.45 35.4 -30.3 35.4 -30.2 35.45 -30.15 35.6 -30.15 Q35.5 -30.0 35.55 -29.75 L35.6 -29.4 35.3 -29.55 35.4 -29.25 35.6 -29.0 35.65 -28.45 35.55 -28.0 35.25 -27.9 34.85 -28.0 34.75 -27.9 34.7 -27.8 34.5 -27.85 34.25 -28.0 34.05 -28.0 Q33.95 -28.0 34.0 -27.8 L33.75 -28.0 33.5 -27.9 33.25 -27.8 33.05 -27.9 32.9 -28.0 32.9 -27.85 32.8 -27.75 Q32.5 -27.75 32.45 -27.95 L32.2 -27.8 31.95 -27.85 30.35 -27.85 28.8 -27.85 27.65 -27.9 27.65 -27.85 27.55 -27.8 26.95 -27.8 26.5 -27.9 26.05 -27.85 26.0 -27.9 25.9 -28.0 25.85 -27.85 25.2 -27.75 24.55 -27.85 24.35 -27.85 Q24.2 -27.85 24.15 -27.95 24.15 -27.8 23.95 -27.85 L23.1 -27.8 22.1 -27.85 22.0 -27.85 21.95 -27.8 21.75 -27.85 Q21.6 -27.85 21.55 -27.95 L21.4 -27.8 21.2 -27.75 20.9 -28.0 20.8 -28.0 20.75 -27.95 20.65 -27.95 20.6 -28.0 20.5 -27.9 20.5 -27.8 16.25 -27.75 16.2 -27.85 16.15 -27.95 16.0 -27.8 15.8 -27.8 15.1 -27.75 14.4 -27.85 14.3 -27.75 14.1 -27.65 14.05 -27.7 13.95 -27.8 13.9 -27.7 13.75 -27.7 13.75 -27.8 13.65 -27.7 13.55 -27.65 12.8 -27.75 12.0 -27.8 12.15 -27.95 11.8 -28.25 Q11.6 -28.3 11.6 -28.15 L11.75 -27.95 11.85 -27.9 11.1 -27.8 10.35 -27.75 10.0 -27.75 9.75 -27.95 9.65 -27.95 9.55 -27.9 9.55 -27.75 9.05 -27.7 Q8.85 -27.65 8.8 -27.95 L8.7 -27.85 8.65 -27.75 7.85 -27.75 7.1 -27.8 6.95 -27.85 6.9 -28.0 6.65 -27.95 6.6 -27.75 Q6.3 -27.7 6.05 -28.0 L5.9 -27.9 5.75 -27.75 5.75 -27.85 5.7 -27.95 5.55 -28.0 5.45 -27.8 5.2 -27.85 5.0 -28.0 Q5.0 -28.05 5.15 -28.1 L5.2 -28.25 Q4.95 -28.6 4.95 -29.4 L5.1 -29.45 5.25 -29.55 5.05 -29.9 5.0 -31.05 5.0 -32.3 5.25 -32.3 5.1 -32.65 5.0 -32.95 5.25 -33.2 5.5 -33.35 5.55 -33.3 5.6 -33.2 6.4 -33.45 7.1 -33.35 7.6 -33.3 7.8 -33.0 Q7.9 -32.8 8.0 -33.0 L8.05 -33.2 8.15 -33.35 9.15 -33.25 9.25 -33.35 10.0 -33.35 10.85 -33.4 11.5 -33.4 12.55 -33.45 13.65 -33.4 13.7 -33.3 13.85 -33.25 14.25 -33.45 14.65 -33.45 14.9 -33.35 15.15 -33.3 15.25 -33.35 15.3 -33.45 16.9 -33.4 18.55 -33.4 18.75 -33.4 19.0 -33.45 18.9 -33.35 19.1 -33.3 19.1 -33.45 19.4 -33.35 19.6 -33.25 19.75 -33.3 19.65 -33.45 20.05 -33.35 20.5 -33.35 20.55 -33.45 20.95 -33.35 21.7 -33.4 22.45 -33.55 Q22.45 -33.1 22.65 -33.1 L22.8 -33.25 22.85 -33.45 23.25 -33.5 23.6 -33.4 24.2 -33.2 24.35 -33.25 24.45 -33.4 24.7 -33.4 25.0 -33.4 25.2 -33.3 25.4 -33.3 25.5 -33.35 25.55 -33.55 25.55 -33.4 25.65 -33.35 25.75 -33.4 25.8 -33.45 26.55 -33.5 27.2 -33.45 27.4 -33.35 27.6 -33.15 27.7 -33.15 27.7 -33.3 27.7 -33.35 28.1 -33.4 28.4 -33.35 28.6 -33.4 28.8 -33.45 29.0 -33.4 29.15 -33.3 29.35 -33.4 29.6 -33.35 29.65 -33.45 31.55 -33.35 31.45 -33.2 Q31.6 -33.0 32.05 -33.4 32.3 -33.5 32.45 -33.2 L32.55 -33.3 32.6 -33.4 33.15 -33.35 33.75 -33.4 33.65 -33.3 33.65 -33.25 33.75 -33.15 33.85 -33.05 34.0 -33.4 34.5 -33.15 Q34.7 -32.95 34.8 -33.25 L34.65 -33.35 34.9 -33.35 35.15 -33.35 35.1 -33.05 35.35 -33.05 35.55 -33.25 M31.55 -31.75 L31.4 -31.75 31.4 -31.65 31.35 -31.55 31.35 -31.45 31.5 -31.45 31.65 -31.65 31.55 -31.75 M31.15 -30.85 Q30.95 -30.85 31.1 -30.7 L31.25 -30.7 31.25 -30.85 31.15 -30.85 M31.85 -30.85 L31.75 -30.8 31.85 -30.7 31.85 -30.85 M33.15 -30.0 L33.25 -29.9 33.25 -30.1 33.15 -30.0 M33.5 -29.6 L33.3 -29.75 33.2 -29.7 33.2 -29.65 33.25 -29.55 33.35 -29.4 33.45 -29.3 33.5 -29.6 M33.35 -29.15 L33.1 -29.1 33.1 -29.0 33.3 -28.9 33.45 -29.0 33.35 -29.15 M33.05 -28.85 L33.0 -28.95 32.85 -28.95 32.8 -29.05 32.75 -28.9 32.85 -28.75 33.0 -28.8 33.05 -28.85 M34.9 -29.2 L35.05 -29.25 35.1 -29.3 35.05 -29.45 34.9 -29.55 34.8 -29.45 34.75 -29.3 34.65 -29.55 34.45 -29.45 34.45 -29.2 34.45 -29.15 34.55 -29.1 Q34.65 -29.1 34.75 -29.2 L34.8 -29.25 34.9 -29.2 M34.2 -30.6 L34.0 -30.6 34.0 -30.45 34.2 -30.45 34.2 -30.6 M34.25 -30.0 L34.2 -29.9 34.2 -29.75 34.45 -29.75 34.5 -29.9 34.45 -29.95 34.35 -30.0 34.25 -30.0 M33.65 -29.2 L33.7 -29.15 33.8 -29.1 33.85 -29.3 33.7 -29.3 33.65 -29.2 M30.65 -30.7 L30.65 -30.65 30.75 -30.55 30.9 -30.85 Q30.75 -31.0 30.65 -30.7 M27.7 -31.8 L27.9 -31.7 27.95 -31.8 27.95 -31.95 27.75 -32.0 27.7 -31.8 M26.8 -30.1 L26.7 -30.15 26.65 -30.05 Q26.65 -30.0 26.75 -30.0 L26.8 -30.1 M27.75 -28.65 L27.65 -28.75 27.65 -28.55 27.75 -28.65 M30.9 -29.8 L30.95 -29.8 31.1 -29.9 30.9 -29.8 M29.35 -30.2 L29.65 -30.35 29.75 -30.55 29.3 -30.5 29.35 -30.2 M29.75 -28.95 L29.7 -29.05 29.5 -29.05 29.45 -29.05 29.35 -29.05 29.5 -28.9 29.75 -28.95 M25.7 -31.3 L25.6 -31.25 25.7 -31.25 25.8 -31.2 25.85 -31.3 25.7 -31.3 M23.3 -32.5 L23.15 -32.4 23.05 -32.1 23.3 -32.1 23.45 -32.3 23.3 -32.5 M21.95 -32.3 L21.95 -32.1 22.1 -32.2 22.0 -32.4 21.95 -32.3 M22.5 -31.55 L22.5 -31.35 22.65 -31.5 22.6 -31.55 22.5 -31.55 M21.7 -30.7 L21.75 -30.8 21.85 -30.9 21.75 -30.95 21.7 -31.0 21.6 -30.85 21.7 -30.7 M22.5 -30.45 L22.65 -30.5 22.5 -30.6 22.5 -30.45 22.5 -30.4 22.3 -30.5 22.4 -30.4 22.5 -30.4 22.5 -30.45 M23.35 -28.9 L23.2 -28.9 23.1 -28.9 23.2 -28.85 23.35 -28.9 M25.25 -30.3 L25.1 -30.15 25.25 -30.1 25.3 -30.3 25.25 -30.3 M25.1 -28.7 L24.9 -29.1 24.8 -28.7 Q24.8 -28.55 25.05 -28.55 L25.1 -28.7 M24.25 -30.6 L24.15 -30.75 24.0 -30.7 Q24.0 -30.6 24.25 -30.6 M19.55 -31.55 L19.5 -31.4 19.65 -31.3 19.75 -31.5 19.55 -31.55 M20.75 -31.85 L20.8 -31.75 20.8 -31.85 20.75 -31.85 M17.45 -32.2 L17.4 -32.0 17.5 -32.0 17.7 -32.2 17.45 -32.2 M16.6 -31.85 L16.6 -32.0 16.35 -31.95 Q16.35 -31.85 16.6 -31.85 M12.55 -29.8 L12.55 -29.65 12.7 -29.6 12.75 -29.6 12.85 -29.65 12.7 -29.85 12.55 -29.8 M12.75 -28.55 L12.65 -28.7 12.55 -28.65 12.5 -28.55 12.55 -28.55 12.9 -28.5 12.75 -28.55 M12.3 -29.0 L12.15 -28.6 12.4 -28.4 12.5 -28.4 12.55 -28.5 12.55 -28.55 12.5 -28.55 12.4 -28.65 12.3 -28.75 12.4 -28.55 12.4 -28.45 12.35 -28.45 12.3 -28.5 12.3 -28.8 12.3 -28.85 12.4 -28.9 12.35 -29.0 12.3 -29.0 M16.1 -29.7 L16.2 -29.75 16.1 -29.85 16.0 -29.75 16.1 -29.7 M10.55 -31.15 L10.5 -31.3 10.35 -31.35 10.25 -31.2 Q10.25 -31.05 10.35 -31.05 L10.55 -31.15 M10.45 -30.8 L10.35 -30.75 10.3 -30.7 10.4 -30.65 10.5 -30.7 10.55 -30.75 10.45 -30.8 M9.45 -31.7 L9.3 -31.65 9.45 -31.45 9.6 -31.5 9.45 -31.7 M9.2 -31.55 L9.1 -31.7 8.95 -31.7 8.85 -31.55 9.0 -31.5 9.1 -31.5 9.2 -31.55 M9.5 -30.7 L9.45 -30.6 9.6 -30.55 9.6 -30.65 9.5 -30.7 M9.1 -29.95 L9.0 -30.05 9.0 -30.0 9.0 -29.85 9.25 -29.95 9.35 -30.25 9.25 -30.25 9.25 -30.0 9.1 -29.95 M9.35 -28.85 L9.3 -28.95 9.3 -28.8 9.35 -28.85 M11.3 -30.0 L11.2 -30.0 11.15 -30.05 10.95 -30.1 Q10.85 -30.05 10.85 -30.15 L10.75 -30.0 Q10.85 -29.85 11.2 -29.85 L11.3 -30.0 M10.6 -30.35 L10.4 -30.35 10.35 -30.2 10.45 -30.2 Q10.45 -30.15 10.55 -30.15 L10.7 -30.25 10.6 -30.35 M10.1 -30.5 L10.1 -30.45 10.15 -30.45 10.15 -30.55 10.1 -30.5 M6.15 -31.45 L6.15 -31.3 6.3 -31.3 6.35 -31.35 6.3 -31.45 6.15 -31.45 M6.55 -30.9 L6.65 -31.2 6.5 -31.25 6.15 -31.05 6.15 -30.9 6.2 -30.8 6.55 -30.9 M7.2 -31.2 L7.15 -31.2 7.05 -31.3 6.9 -31.2 6.8 -31.05 6.85 -30.85 Q6.95 -30.8 7.05 -30.95 L7.2 -31.2" fill="#ffffff" fill-rule="evenodd" stroke="none"/>
  </g>
</svg>
