<?xml version="1.0" encoding="UTF-8" standalone="no"?>
<svg xmlns:xlink="http://www.w3.org/1999/xlink" height="75.7px" width="11.6px" xmlns="http://www.w3.org/2000/svg">
  <g transform="matrix(1.0, 0.0, 0.0, 1.0, 6.8, 23.05)">
    <path d="M2.6 50.9 L-4.9 50.9 -4.9 -22.1 2.6 -22.1 2.6 50.9" fill="#a07c64" fill-rule="evenodd" stroke="none"/>
    <path d="M0.3 17.15 L0.4 17.3 0.5 17.5 0.75 17.7 0.95 17.9 1.1 18.05 1.4 18.45 1.4 18.65 1.45 18.8 1.45 19.0 1.55 19.15 1.8 19.4 2.05 19.55 2.15 19.75 2.25 19.95 2.3 20.15 2.3 20.3 2.3 20.5 2.3 20.7 2.35 20.85 2.45 21.05 2.5 21.25 2.55 21.45 2.55 21.65 2.75 21.8 3.0 22.0 3.1 22.2 3.2 22.35 3.3 22.55 3.3 22.75 3.3 22.95 3.3 23.15 3.3 23.5 3.3 23.7 3.3 23.9 3.25 24.05 3.15 24.25 3.05 24.45 2.85 24.8 2.75 25.0 2.5 25.2 2.05 25.4 1.95 25.55 1.75 25.75 1.5 25.95 1.0 26.05 -2.0 25.95 -3.25 25.65 -3.5 25.5 -4.0 25.4 -4.25 25.2 -4.45 25.0 -4.55 24.8 -4.7 24.65 -4.75 24.45 -4.75 24.25 -4.75 24.05 -4.75 23.9 -4.75 23.5 -4.65 23.3 -4.55 23.15 -4.35 22.95 -4.45 22.75 -4.55 22.55 -4.55 22.4 -4.55 22.2 -4.55 22.0 -4.55 21.65 -4.55 21.45 -4.55 21.25 -4.6 21.05 -4.7 20.9 -4.85 20.7 -5.05 20.5 -5.1 20.3 -5.15 20.1 -5.2 19.95 -5.2 19.75 -5.2 19.55 -5.2 19.4 -5.1 19.2 -5.05 19.0 -5.0 18.8 -4.9 18.6 -4.8 18.45 -4.6 18.25 -4.45 18.05 -3.95 17.7 -3.6 17.5 -3.45 17.3 -2.95 17.15 -2.0 16.8 -1.8 16.75 -1.5 16.7 -0.5 16.8 0.15 16.95 0.3 17.15" fill="#663333" fill-opacity="0.2" fill-rule="evenodd" stroke="none"/>
    <path d="M1.65 -21.25 L1.75 -21.05 2.0 -20.85 2.25 -20.7 2.4 -20.5 2.4 -20.1 2.45 -19.75 2.5 -19.4 2.55 -18.8 2.55 -18.6 2.6 -18.45 2.5 -18.25 2.55 -17.3 2.55 -16.0 2.5 -14.5 2.5 -14.3 2.45 -14.15 2.4 -13.95 2.3 -13.75 2.1 -13.55 1.9 -13.35 1.5 -13.25 0.75 -13.25 0.3 -13.35 0.15 -13.55 -0.05 -13.75 -0.2 -13.95 -0.25 -14.15 -0.25 -14.3 -0.25 -14.5 -0.3 -14.55 -0.45 -14.5 -0.75 -14.45 -1.2 -14.55 -1.35 -14.75 -1.5 -14.95 -1.55 -15.15 -1.55 -15.3 -1.55 -15.5 -1.55 -15.7 -1.55 -15.85 -1.5 -16.05 -1.35 -16.25 -1.25 -16.45 -1.15 -16.65 -1.05 -16.8 -0.85 -17.0 -0.8 -17.55 -0.8 -18.3 -0.8 -19.25 -0.8 -19.8 -0.65 -20.15 -0.35 -20.6 -0.1 -20.95 0.3 -21.45 0.45 -21.5 0.75 -21.55 1.0 -21.55 1.4 -21.45 1.65 -21.25" fill="#663333" fill-opacity="0.2" fill-rule="evenodd" stroke="none"/>
    <path d="M2.0 17.7 L2.4 17.8 2.65 18.0 2.75 18.2 2.8 18.4 2.8 18.95 2.75 19.9 2.75 20.8 2.75 21.2 Q2.35 22.55 2.35 24.0 L2.35 27.0 2.3 29.25 2.2 29.65 2.1 30.4 2.05 31.15 2.05 31.3 2.0 31.5 1.95 31.7 1.95 31.85 2.05 32.05 2.35 32.45 2.55 32.8 2.6 33.0 2.65 33.2 2.65 33.4 2.65 33.55 2.7 33.75 2.8 34.15 3.0 34.7 3.15 35.05 3.35 39.0 3.4 43.3 Q3.45 44.75 2.95 46.15 L2.85 46.3 2.75 46.5 2.65 46.7 2.55 46.9 2.5 47.05 2.45 47.25 2.35 47.45 2.25 47.6 2.1 47.8 1.95 48.0 1.55 48.2 1.3 48.4 1.2 48.55 1.0 48.75 0.9 48.95 0.8 49.15 0.75 49.3 0.55 49.5 0.35 49.7 0.2 49.8 0.05 49.85 -0.25 49.95 -0.7 49.8 -0.95 49.6 -1.1 49.4 -1.2 49.25 -1.2 49.05 -1.25 48.9 -1.4 48.7 -1.55 48.5 -1.65 48.3 -1.75 48.15 -1.8 47.95 -1.85 47.75 -1.95 47.55 -2.0 47.4 -2.1 47.2 -2.2 47.0 -2.25 46.8 -2.35 46.45 -2.45 46.05 -2.45 45.15 -2.45 43.8 -2.45 42.5 -2.3 42.15 -2.15 41.55 -1.95 40.8 -1.85 40.65 -1.75 40.45 -1.6 40.25 Q-2.0 37.35 -2.05 34.45 L-2.25 28.25 -2.3 24.5 -2.25 24.3 -2.2 24.15 -2.1 23.95 -2.1 23.75 -2.1 23.55 -2.1 23.4 -2.05 23.2 -2.0 23.0 -1.8 22.8 -1.7 22.65 -1.65 22.25 -1.5 21.5 -1.35 20.75 -1.3 20.4 -1.25 20.2 -1.1 20.0 -0.95 19.8 -0.5 19.7 -0.1 19.75 0.05 19.7 0.45 19.5 0.55 19.3 0.65 19.15 0.65 18.95 0.7 18.75 0.8 18.55 1.0 18.4 1.4 18.0 1.55 17.8 2.0 17.7" fill="#663333" fill-opacity="0.2" fill-rule="evenodd" stroke="none"/>
    <path d="M0.45 17.9 L0.55 18.05 0.65 18.25 0.7 18.45 0.75 18.45 1.5 18.5 1.95 18.65 2.25 18.8 2.45 19.0 2.6 19.2 2.75 19.4 2.9 19.55 3.25 21.25 3.25 23.9 3.0 27.05 2.95 27.65 3.0 28.0 3.0 28.95 3.0 29.15 3.0 29.7 3.0 30.65 2.95 30.8 2.9 31.0 2.8 31.2 2.75 31.4 2.7 31.55 2.6 31.75 2.5 31.95 2.4 32.15 2.4 32.2 2.7 32.4 2.95 32.55 3.05 32.75 3.2 32.95 3.25 33.15 3.25 33.3 3.25 33.7 3.25 34.25 3.25 34.45 3.25 34.65 3.2 34.8 3.05 35.0 3.0 35.2 3.0 35.4 3.0 35.55 2.95 35.75 2.85 35.95 2.75 36.15 2.65 36.3 2.5 36.5 2.45 36.7 2.4 36.9 2.3 37.25 2.15 37.8 2.05 38.0 2.0 38.2 2.0 38.4 2.0 38.55 2.0 38.75 2.0 38.95 2.0 39.15 1.95 39.3 1.8 39.5 1.7 39.7 1.45 39.9 1.3 40.1 1.25 40.25 1.35 40.45 1.45 40.65 1.5 40.8 1.65 41.0 1.7 41.2 1.75 41.4 1.9 41.75 2.05 42.3 2.15 42.5 2.2 42.7 2.3 42.9 2.4 43.05 2.45 43.25 2.5 43.45 2.5 43.65 2.5 44.0 2.5 44.75 2.5 44.95 2.5 45.3 2.45 45.5 2.35 45.7 2.25 45.9 2.1 46.05 1.95 46.25 1.5 46.4 1.05 46.25 0.8 46.05 0.7 45.9 0.55 45.7 0.5 45.5 0.5 45.3 0.5 44.75 0.5 44.4 0.5 44.2 0.5 44.0 0.5 43.8 0.45 43.65 0.3 43.45 0.25 43.25 0.2 43.05 0.05 42.7 -0.1 42.15 -0.2 41.95 -0.25 41.75 -0.35 41.55 -0.45 41.4 -0.55 41.2 -0.6 41.0 -0.7 40.8 -0.75 40.65 -0.75 39.3 -0.75 38.55 -0.75 36.9 -0.75 35.55 -0.7 35.4 -0.6 35.2 -0.55 35.0 -0.5 34.8 -0.5 34.65 -0.5 34.45 -0.5 34.25 -0.5 34.05 -0.45 33.9 -0.35 33.7 -0.45 33.5 -0.6 33.3 -0.8 33.1 -0.95 32.95 -1.0 32.75 -1.0 32.55 -1.0 32.4 -1.1 32.2 -1.45 32.0 -1.6 31.8 -1.8 31.65 -2.0 31.45 -2.2 31.15 -2.2 31.1 -2.5 31.0 -3.0 30.9 -3.25 30.7 -3.45 30.5 -3.6 30.3 -3.95 29.95 -4.0 29.75 -4.0 29.4 -4.0 28.65 -4.0 28.45 -4.0 28.05 -4.0 27.9 Q-3.75 27.15 -3.75 26.4 L-3.55 24.1 Q-3.3 22.65 -3.35 21.15 L-3.35 20.4 -3.3 20.2 -3.2 19.8 -3.0 19.05 -2.95 18.9 -2.85 18.7 -2.8 18.5 -2.7 18.3 -2.5 18.15 -2.3 18.0 -2.0 17.95 -1.75 17.9 -1.45 17.9 -1.2 17.7 -0.75 17.6 -0.75 17.55 -0.25 17.55 0.2 17.7 0.45 17.9" fill="#663333" fill-opacity="0.2" fill-rule="evenodd" stroke="none"/>
    <path d="M1.75 -18.8 L2.05 -18.75 2.5 -18.65 2.9 -18.55 3.05 -18.35 3.1 -18.2 3.0 -18.0 2.85 -17.8 2.75 -17.7 2.55 -17.5 2.55 -17.3 2.55 -17.1 2.55 -16.95 2.55 -16.75 2.55 -16.55 2.6 -16.4 2.7 -16.2 2.75 -16.0 2.8 -15.8 2.8 -15.65 2.75 -15.45 2.65 -15.25 2.4 -15.05 2.0 -14.95 1.0 -15.05 0.3 -15.2 0.2 -15.1 -1.75 -15.0 -2.2 -15.15 -2.95 -15.35 -3.1 -15.55 -3.25 -15.75 -3.25 -16.1 -3.25 -16.3 -3.25 -16.5 -3.25 -16.85 -3.25 -17.05 -3.2 -17.25 -2.95 -17.6 -2.75 -17.8 -2.55 -17.95 -0.8 -18.4 0.25 -18.75 0.65 -18.6 0.8 -18.45 0.95 -18.3 1.0 -18.35 1.2 -18.55 1.3 -18.7 1.45 -18.75 1.75 -18.8" fill="#663333" fill-opacity="0.2" fill-rule="evenodd" stroke="none"/>
    <path d="M1.45 -20.8 L1.45 -20.6 1.4 -20.45 1.4 -20.25 1.25 -20.05 1.15 -19.95 1.05 -19.9 -3.1 -19.75 -3.3 -19.55 -3.6 -19.35 -4.0 -19.25 -4.45 -19.35 -4.6 -19.55 -4.75 -19.75 -4.75 -19.95 -4.8 -20.1 -4.85 -20.3 -4.85 -20.5 -4.85 -20.7 -4.85 -20.85 -4.8 -21.05 -4.6 -21.25 -4.25 -21.35 -3.85 -21.3 -3.55 -21.35 -3.45 -21.55 -3.0 -21.65 -3.0 -21.7 0.5 -21.7 0.9 -21.55 1.15 -21.35 1.25 -21.2 1.35 -21.0 1.45 -20.8" fill="#ffffff" fill-opacity="0.2" fill-rule="evenodd" stroke="none"/>
    <path d="M-3.25 -20.95 L-2.95 -20.75 -2.85 -20.6 -2.85 -20.45 -2.9 -20.25 -3.0 -20.05 -3.05 -19.9 -3.1 -19.7 -3.2 -19.5 -3.25 -19.3 -3.25 -19.15 -3.2 -18.95 -3.3 -18.75 -3.35 -18.55 -3.55 -18.35 -3.7 -18.2 -3.65 -18.0 -3.65 -17.8 -3.6 -17.6 -3.6 -17.45 -3.6 -17.25 -3.7 -17.05 -3.75 -16.85 -3.8 -16.7 -3.8 -16.5 -3.8 -16.1 -3.8 -15.75 -3.8 -15.55 -3.85 -15.4 -3.95 -15.2 -4.05 -15.0 -4.2 -14.9 -4.5 -14.8 -4.95 -14.95 -5.05 -15.1 -5.2 -15.3 -5.2 -15.7 -5.2 -16.25 -5.2 -16.8 -5.2 -17.0 -5.1 -17.2 -5.0 -17.35 -4.85 -17.55 -4.85 -17.75 -4.85 -17.95 -4.85 -18.15 -4.8 -18.3 -4.75 -18.5 -4.65 -18.7 -4.55 -18.9 -4.5 -19.05 -4.35 -19.25 -4.25 -19.45 -4.25 -19.6 -4.15 -19.8 -4.05 -20.0 -4.0 -20.2 -3.8 -20.35 -3.75 -20.55 -3.6 -20.75 -3.5 -20.85 -3.25 -20.9 -3.25 -20.95" fill="#ffffff" fill-opacity="0.2" fill-rule="evenodd" stroke="none"/>
    <path d="M-4.1 22.3 L-4.0 22.5 -3.85 22.7 -3.8 22.9 -3.75 23.05 -3.7 23.25 -3.5 27.0 -3.45 30.75 -3.45 33.0 -3.4 33.2 -3.3 33.4 -3.3 40.5 -3.15 47.8 -3.2 51.95 -3.25 52.1 -3.4 52.3 -3.55 52.5 -4.0 52.65 -4.45 52.5 -4.7 52.3 -4.8 52.15 -4.8 44.8 -4.7 37.5 -4.7 33.4 -4.6 33.2 -4.55 33.0 -4.55 29.25 -4.45 25.5 -4.3 23.25 -4.35 23.05 -4.35 22.9 -4.45 22.7 -4.45 22.5 -4.45 22.4 -4.45 22.35 -4.25 22.3 -4.1 22.3" fill="#ffffff" fill-opacity="0.2" fill-rule="evenodd" stroke="none"/>
    <path d="M3.1 -22.55 L3.25 -22.35 3.3 -22.2 3.35 -22.0 3.3 -21.8 3.25 -21.6 3.1 -21.45 2.95 -21.25 2.5 -21.1 1.75 -21.1 1.3 -21.25 1.15 -21.35 Q-0.9 -21.65 -2.95 -21.4 L-5.25 -21.2 -5.45 -21.15 -5.75 -21.05 -6.2 -21.2 -6.3 -21.35 -6.45 -21.55 -6.45 -21.75 -6.45 -21.95 -6.45 -22.1 -6.35 -22.3 -6.25 -22.5 -6.05 -22.6 -2.95 -22.9 -2.0 -22.95 0.0 -23.05 1.75 -23.0 2.5 -22.85 2.95 -22.75 3.1 -22.55" fill="#333333" fill-rule="evenodd" stroke="none"/>
    <path d="M2.95 -22.75 L3.05 -22.55 3.05 -22.35 3.05 -22.2 3.2 -22.0 3.25 -21.8 Q3.65 -16.05 3.5 -10.2 L3.35 1.65 3.3 13.45 3.25 25.25 3.4 37.05 3.35 48.9 3.3 49.65 3.25 49.8 3.15 50.0 3.15 50.2 3.15 50.4 3.1 50.55 3.05 50.95 2.95 51.1 2.75 51.3 2.65 51.5 2.65 51.7 2.6 51.85 2.55 52.05 2.4 52.0 2.4 51.9 2.4 51.7 2.35 51.5 2.25 51.3 2.0 51.15 1.9 50.95 1.9 50.75 1.9 50.55 1.9 50.4 1.9 50.2 1.8 50.0 1.75 49.8 1.7 49.65 Q1.45 43.8 1.6 38.0 L1.7 26.2 1.7 14.4 1.7 2.55 1.55 -9.25 Q1.35 -15.2 1.65 -21.05 L1.75 -22.0 1.85 -22.2 1.95 -22.35 1.95 -22.55 2.0 -22.75 2.15 -22.95 2.5 -23.05 2.8 -22.95 2.95 -22.75" fill="#333333" fill-rule="evenodd" stroke="none"/>
    <path d="M-5.55 51.3 L-5.65 51.2 -5.75 40.45 -5.75 29.75 -5.75 19.05 Q-5.75 15.95 -5.9 12.9 L-5.95 12.75 -6.0 12.55 -6.05 12.4 -6.15 1.65 -6.05 -9.05 -6.0 -19.75 -6.0 -21.45 -5.95 -21.6 -5.9 -21.8 -5.8 -21.95 -5.7 -22.1 -5.55 -22.15 -5.25 -22.2 -4.8 -22.1 -4.65 -21.95 -4.5 -21.75 -4.45 -11.05 -4.35 -0.35 -4.45 10.45 -4.45 12.45 -4.6 22.4 -4.65 33.55 -4.8 44.6 -4.8 51.25 -4.95 51.35 -5.0 51.4 -5.25 51.45 -5.25 51.5 -5.55 51.3" fill="#333333" fill-rule="evenodd" stroke="none"/>
    <path d="M2.4 16.8 L2.6 17.0 2.75 17.15 3.0 17.2 3.4 17.3 3.65 17.5 3.75 17.7 3.8 17.9 3.8 18.05 3.75 18.25 3.7 18.45 3.5 18.6 3.3 18.75 -3.25 18.8 -3.7 18.7 -4.7 18.45 -4.85 18.25 -5.0 18.05 -5.05 17.9 -5.05 17.7 -5.05 17.5 -4.95 17.3 -4.85 17.15 -4.8 16.95 -4.6 16.75 -4.25 16.65 -3.25 16.65 -3.0 16.7 -2.85 16.75 2.0 16.7 2.4 16.8" fill="#333333" fill-rule="evenodd" stroke="none"/>
    <path d="M3.25 18.15 L3.65 18.25 3.75 18.45 3.75 18.65 0.75 19.55 -3.0 19.8 -3.25 19.9 -3.5 19.95 -3.75 20.0 -4.0 20.05 -6.25 20.05 -6.6 19.95 -6.75 19.75 -6.8 19.55 -6.8 19.4 -6.75 19.2 -6.6 19.05 -6.5 19.0 -6.25 18.95 -3.75 18.9 -3.5 18.8 -3.25 18.75 -3.0 18.7 2.3 18.15 2.75 18.05 3.25 18.15" fill="#333333" fill-rule="evenodd" stroke="none"/>
    <path d="M3.4 19.3 L3.3 19.5 3.2 19.7 3.15 19.9 3.05 20.0 2.75 20.2 -1.0 20.8 -1.75 20.9 -3.1 21.15 -3.5 21.25 -4.0 21.25 -4.25 21.2 -4.85 21.0 -4.85 20.9 -4.85 20.7 -4.75 20.5 -4.5 20.4 -4.0 20.25 -3.0 20.0 -0.2 19.75 2.0 19.3 2.55 19.2 2.75 19.0 3.0 18.95 3.15 18.95 3.3 19.15 3.4 19.3" fill="#333333" fill-rule="evenodd" stroke="none"/>
    <path d="M4.4 21.75 L4.55 21.95 4.8 22.15 4.8 22.25 4.65 22.4 4.25 22.3 3.5 22.35 -4.0 22.45 -4.3 22.3 -4.4 22.1 -4.45 21.95 -4.35 21.75 -4.25 21.65 -4.0 21.6 -4.0 21.55 2.25 21.65 4.4 21.75" fill="#333333" fill-rule="evenodd" stroke="none"/>
    <path d="M3.15 25.45 L3.4 25.65 3.65 25.8 3.75 26.0 3.65 26.2 3.3 26.15 3.0 26.15 2.25 26.15 -0.25 26.2 -0.5 26.1 -0.95 26.0 -1.05 25.8 -1.05 25.65 -0.95 25.5 -0.75 25.45 -0.5 25.4 -0.25 25.35 -0.25 25.3 2.25 25.35 3.15 25.45" fill="#333333" fill-rule="evenodd" stroke="none"/>
    <path d="M0.7 33.8 L-0.7 33.8 -0.85 33.65 -0.85 33.45 -0.75 33.25 -0.5 33.15 0.7 33.0 1.0 32.9 1.45 32.8 1.55 32.65 1.75 32.55 1.9 32.55 2.0 32.75 2.05 32.95 2.0 33.1 1.9 33.3 1.65 33.5 0.95 33.7 0.7 33.8" fill="#333333" fill-rule="evenodd" stroke="none"/>
    <path d="M0.8 -18.3 L2.4 -18.2 2.5 -18.0 2.6 -17.8 2.55 -17.6 0.55 -17.85 0.45 -17.9 -0.35 -18.05 -0.45 -18.25 -0.45 -18.4 -0.25 -18.45 -0.25 -18.5 0.65 -18.45 0.8 -18.3" fill="#333333" fill-rule="evenodd" stroke="none"/>
  </g>
</svg>
