<?xml version="1.0" encoding="UTF-8" standalone="no"?>
<svg xmlns:xlink="http://www.w3.org/1999/xlink" height="35.15px" width="47.0px" xmlns="http://www.w3.org/2000/svg">
  <g transform="matrix(1.0, 0.0, 0.0, 1.0, 0.5, 0.5)">
    <path d="M46.0 19.9 L6.9 19.9 6.9 13.6 46.0 13.6 46.0 19.9" fill="#93c7b7" fill-rule="evenodd" stroke="none"/>
    <path d="M46.0 13.6 L44.0 13.7 41.9 13.65 39.7 13.65 37.8 13.65 35.95 13.55 33.8 13.3 31.8 13.35 29.85 13.55 27.75 13.55 25.75 13.5 23.95 13.7 22.1 13.75 20.1 13.55 17.85 13.35 15.6 13.25 13.85 13.5 12.15 13.6 10.1 13.75 Q9.0 13.95 8.55 13.75 L6.9 13.6 7.1 15.55 7.2 17.8 7.05 19.2 6.9 19.9 8.8 20.05 10.85 20.1 12.7 20.15 Q13.45 20.4 14.65 20.15 L16.8 19.9 18.6 20.05 Q19.55 20.3 20.9 20.05 22.25 19.8 23.05 20.05 L24.9 19.95 27.0 19.6 28.8 19.9 30.95 20.0 33.2 19.6 35.2 19.75 37.05 20.15 39.0 19.85 41.2 19.55 42.9 19.75 44.25 19.9 46.0 19.9 45.9 17.7 45.8 15.6 45.7 14.35 46.0 13.6 Z" fill="none" stroke="#90c7b7" stroke-linecap="round" stroke-linejoin="round" stroke-width="1.0"/>
    <path d="M20.3 4.2 L8.5 16.8 20.55 30.35 15.55 34.15 0.0 16.7 15.7 0.0 20.3 4.2" fill="#93c7b7" fill-rule="evenodd" stroke="none"/>
    <path d="M15.7 0.0 L14.4 1.3 12.85 2.95 11.6 4.6 10.3 5.95 8.75 7.3 7.25 8.95 5.7 10.4 4.4 11.95 3.0 13.7 1.45 15.0 0.5 15.9 0.0 16.7 1.4 18.45 2.9 20.05 4.1 21.35 5.2 22.65 6.7 24.15 8.05 25.65 9.2 27.4 10.4 28.9 11.9 30.1 13.5 31.55 14.65 32.7 Q15.1 33.15 15.55 34.15 15.9 33.1 16.85 32.6 L18.8 31.65 20.15 30.8 20.55 30.35 Q20.25 29.45 19.25 28.8 18.3 28.15 18.0 27.2 17.7 26.3 16.6 25.7 15.5 25.15 15.25 24.4 15.0 23.65 14.15 22.95 L12.5 21.4 11.2 19.6 Q10.75 18.65 9.95 18.1 L8.9 17.25 8.5 16.8 9.85 15.45 11.25 13.9 12.7 12.3 14.15 10.9 15.55 9.35 Q16.3 8.55 17.15 8.0 18.0 7.5 18.4 6.5 L19.05 5.2 Q19.3 4.9 20.3 4.2 19.1 3.5 18.6 2.75 L17.4 1.35 16.4 0.35 Q16.1 0.05 15.7 0.0 Z" fill="none" stroke="#90c7b7" stroke-linecap="round" stroke-linejoin="round" stroke-width="1.0"/>
  </g>
</svg>
