<?xml version="1.0" encoding="UTF-8" standalone="no"?>
<svg xmlns:xlink="http://www.w3.org/1999/xlink" height="46.35px" width="46.35px" xmlns="http://www.w3.org/2000/svg">
  <g transform="matrix(1.0, 0.0, 0.0, 1.0, 23.15, 23.2)">
    <path d="M22.25 -22.25 Q22.65 -21.85 22.65 -21.35 L22.65 21.35 Q22.65 21.9 22.25 22.25 21.9 22.65 21.35 22.65 L-21.35 22.65 Q-21.85 22.65 -22.25 22.25 -22.65 21.9 -22.65 21.35 L-22.65 -21.35 Q-22.65 -21.85 -22.25 -22.25 -21.85 -22.65 -21.35 -22.65 L21.35 -22.65 Q21.9 -22.65 22.25 -22.25" fill="#ffffff" fill-rule="evenodd" stroke="none"/>
    <path d="M14.85 -22.45 L13.6 -22.5 12.25 -22.65 11.0 -22.65 9.75 -22.55 8.55 -22.45 7.25 -22.55 5.7 -22.65 4.3 -22.55 3.15 -22.65 1.9 -22.65 0.65 -22.65 -0.6 -22.55 -1.9 -22.6 -3.05 -22.6 -4.3 -22.65 -5.7 -22.6 -7.15 -22.45 -8.4 -22.65 -9.75 -22.85 -11.05 -22.8 -12.2 -22.7 -13.6 -22.75 -15.0 -22.75 -16.3 -22.65 -17.4 -22.65 -18.7 -22.5 -19.75 -22.45 -21.35 -22.65 -22.25 -22.25 -22.65 -21.35 -22.65 -19.95 -22.65 -18.85 -22.65 -17.6 -22.65 -16.15 -22.55 -14.9 -22.55 -13.7 -22.65 -12.4 -22.5 -11.2 -22.5 -9.85 -22.75 -8.55 -22.75 -7.2 -22.65 -5.8 -22.55 -4.55 Q-22.4 -3.9 -22.4 -3.25 L-22.45 -1.95 -22.5 -0.7 -22.55 0.65 -22.65 1.9 -22.65 3.1 -22.7 4.45 -22.8 5.8 -22.75 7.2 -22.65 8.5 -22.55 9.55 Q-22.45 10.05 -22.65 10.95 L-22.75 12.4 -22.65 13.6 -22.5 14.95 Q-22.4 15.65 -22.6 16.15 -22.85 16.7 -22.7 17.35 L-22.6 18.65 -22.5 19.65 Q-22.4 20.0 -22.65 21.35 L-22.25 22.25 Q-22.3 22.1 -21.35 22.65 L-19.9 22.45 -18.6 22.4 -17.6 22.7 -16.35 22.8 -14.95 22.65 -13.6 22.5 -12.15 22.45 -10.75 22.6 -9.65 22.7 -8.45 22.65 -7.1 22.75 -5.85 22.75 -4.65 22.5 -3.5 22.65 -2.1 22.8 -0.65 22.7 0.6 22.65 1.95 22.65 3.2 22.45 4.45 22.35 5.8 22.4 7.15 22.55 8.35 22.65 9.5 22.6 10.8 22.5 12.3 22.5 13.55 22.45 Q14.05 22.3 14.8 22.45 L16.1 22.65 17.3 22.75 18.7 22.7 19.7 22.75 21.35 22.65 Q21.3 22.6 22.25 22.25 L22.65 21.35 22.55 20.1 22.5 18.8 Q22.45 18.1 22.55 17.55 L22.65 16.4 22.55 15.15 Q22.35 14.5 22.55 13.7 L22.6 12.3 22.55 10.95 22.75 9.7 22.7 8.4 22.6 6.9 22.5 5.7 22.5 4.55 22.8 3.25 22.8 2.05 22.55 0.7 22.55 -0.6 22.5 -1.85 22.55 -3.25 22.65 -4.5 22.45 -5.8 Q22.3 -6.45 22.45 -7.25 L22.65 -8.55 22.55 -9.75 22.55 -11.1 22.65 -12.35 22.65 -13.55 22.65 -14.9 22.75 -16.15 22.85 -17.55 22.75 -18.8 22.75 -19.55 22.65 -21.35 22.25 -22.25 21.35 -22.65 20.1 -22.55 18.7 -22.65 Q17.95 -22.85 17.3 -22.65 L16.1 -22.55 14.85 -22.45 Z" fill="none" stroke="#ffffff" stroke-linecap="round" stroke-linejoin="round" stroke-width="1.0"/>
    <path d="M22.65 -21.35 L22.65 21.35 Q22.65 21.9 22.25 22.25 21.9 22.65 21.35 22.65 L-21.35 22.65 Q-21.85 22.65 -22.25 22.25 -22.65 21.9 -22.65 21.35 L-22.65 -21.35 Q-22.65 -21.85 -22.25 -22.25 -21.85 -22.65 -21.35 -22.65 L21.35 -22.65 Q21.9 -22.65 22.25 -22.25 22.65 -21.85 22.65 -21.35 Z" fill="none" stroke="#ffffff" stroke-linecap="butt" stroke-linejoin="miter-clip" stroke-miterlimit="4.0" stroke-width="1.0"/>
    <path d="M13.65 -19.8 L12.3 -20.0 11.05 -19.9 9.8 -19.9 8.7 -19.9 7.55 -19.75 6.15 -19.8 4.75 -19.8 3.5 -19.6 2.3 -19.75 1.2 -19.8 -0.1 -19.6 -1.65 -19.5 -2.75 -19.55 -3.95 -19.65 -5.3 -19.8 -6.35 -19.8 -7.65 -19.7 -8.85 -19.75 -10.05 -19.95 -11.45 -20.0 -12.75 -19.9 -13.8 -19.9 -15.15 -19.8 -16.35 -19.65 -17.2 -19.65 -18.6 -19.7 Q-18.65 -19.9 -19.5 -19.3 L-19.85 -18.45 Q-19.7 -17.7 -19.85 -17.15 L-19.95 -16.0 -19.75 -14.75 Q-19.65 -14.15 -19.9 -13.5 L-20.05 -12.3 -19.95 -11.1 -19.85 -9.95 -19.8 -8.5 -19.8 -7.1 -19.9 -6.05 -19.9 -4.85 -20.0 -3.45 -20.05 -2.2 -19.95 -1.15 -19.85 0.15 -19.85 1.45 -19.9 2.55 -19.8 3.8 Q-19.7 4.5 -19.9 5.15 -20.05 5.8 -19.8 6.4 -19.6 7.0 -19.8 7.55 L-20.0 8.9 -19.9 10.1 -20.0 11.15 -20.0 12.65 Q-19.8 13.55 -19.9 14.1 L-19.85 15.1 -19.65 16.2 -19.75 17.3 -19.85 18.65 -19.5 19.5 -18.6 19.85 -17.35 19.7 -16.2 19.8 -15.15 20.05 -13.75 20.0 -12.4 19.75 Q-11.8 19.6 -11.1 19.75 L-9.85 19.85 -8.65 19.9 -7.45 19.85 -6.2 19.85 -5.05 19.85 -3.9 19.85 -2.5 19.85 -1.2 19.9 0.05 19.85 1.25 19.9 2.5 19.95 3.85 19.95 5.05 19.85 6.25 19.85 7.55 19.8 8.75 19.75 10.0 19.8 11.3 19.85 12.55 19.85 13.7 19.95 14.9 19.9 16.0 19.9 17.0 19.9 18.45 19.85 Q18.45 19.7 19.35 19.5 L19.7 18.65 19.6 17.5 19.8 16.3 19.95 15.15 19.75 13.75 19.6 12.3 19.55 11.1 19.7 9.95 19.8 8.65 19.6 7.5 19.65 6.3 19.85 5.05 19.85 3.6 19.8 2.35 19.7 1.25 19.7 -0.05 19.65 -1.4 19.65 -2.65 19.85 -3.85 20.0 -5.2 19.85 -6.4 Q19.7 -6.95 19.7 -7.4 L19.55 -8.65 Q19.4 -9.35 19.7 -9.95 19.95 -10.6 19.8 -11.1 L19.7 -12.25 19.6 -13.65 19.5 -15.0 19.55 -16.35 19.6 -17.2 19.7 -18.45 Q19.45 -18.65 19.35 -19.3 L18.45 -19.7 17.4 -19.85 16.05 -19.75 14.8 -19.65 13.65 -19.8 Z" fill="none" stroke="#93c7b7" stroke-linecap="round" stroke-linejoin="round" stroke-width="1.0"/>
  </g>
</svg>
