<?xml version="1.0" encoding="UTF-8" standalone="no"?>
<svg xmlns:xlink="http://www.w3.org/1999/xlink" height="86.15px" width="248.8px" xmlns="http://www.w3.org/2000/svg">
  <g transform="matrix(1.0, 0.0, 0.0, 1.0, 0.75, 1.0)">
    <path d="M236.4 24.8 L239.1 27.75 241.6 30.85 243.8 34.15 245.25 36.7 246.7 40.05 Q247.05 42.0 247.05 43.9 L246.85 46.8 Q246.7 47.8 245.35 50.3 L242.75 53.35 239.85 56.2 237.55 58.15 233.75 60.6 230.15 62.35 226.5 63.95 223.6 65.05 222.1 65.55 218.3 66.65 214.45 67.7 211.55 68.5 207.15 69.65 203.2 70.45 199.25 71.3 195.2 72.1 192.2 72.7 189.65 73.2 185.65 73.85 181.65 74.5 177.65 75.15 174.65 75.65 170.2 76.35 166.2 76.95 162.2 77.5 158.2 78.05 154.2 78.6 151.2 79.0 149.7 79.25 145.7 79.75 141.7 80.25 137.7 80.7 133.7 81.15 130.7 81.5 128.7 81.75 124.7 82.15 120.7 82.5 116.7 82.85 112.7 83.15 109.7 83.35 107.2 83.55 103.2 83.7 99.2 83.85 95.2 84.0 91.2 84.05 88.2 84.1 86.7 84.15 82.7 84.1 78.7 84.05 74.7 84.0 71.7 83.95 67.2 83.9 63.2 83.7 59.2 83.5 55.25 83.25 52.25 83.0 49.75 82.85 45.75 82.35 41.75 81.85 38.75 81.45 34.25 80.65 30.25 79.75 26.25 78.75 23.3 77.9 21.8 77.55 18.1 76.15 15.4 75.0 11.7 73.05 8.5 70.7 5.5 68.05 3.45 65.9 1.3 63.05 0.35 60.3 Q0.05 59.4 0.85 55.45 L2.8 52.0 5.0 48.7 6.85 46.3 10.15 42.9 13.05 40.35 16.1 37.95 18.5 36.25 19.95 35.3 23.35 33.15 26.8 31.15 29.5 29.65 33.35 27.7 36.95 25.95 40.55 24.25 44.15 22.6 46.85 21.5 49.85 20.3 53.55 18.85 Q55.45 18.15 56.4 17.8 L58.55 17.0 62.25 15.7 65.05 14.75 68.3 13.7 72.15 12.5 76.0 11.35 79.85 10.25 82.8 9.45 87.75 8.2 91.6 7.25 95.6 6.35 99.6 5.45 102.65 4.8 106.25 4.1 110.25 3.35 114.25 2.65 118.3 2.05 121.35 1.6 123.75 1.3 127.75 0.85 131.75 0.5 134.8 0.3 138.7 0.1 142.7 0.0 145.7 0.0 150.7 0.1 154.7 0.25 158.7 0.5 162.7 0.8 165.7 1.1 168.15 1.35 172.1 1.9 175.1 2.35 177.7 2.8 180.15 4.15 Q181.0 4.65 181.45 5.3 L185.45 5.85 189.4 6.45 192.4 6.95 195.1 7.45 199.05 8.3 203.0 9.25 207.0 10.3 210.0 11.2 212.05 11.85 215.8 13.15 219.5 14.6 222.2 15.75 225.9 17.5 229.35 19.5 232.65 21.75 235.0 23.55 236.4 24.8 M58.55 17.0 L62.4 16.0 65.3 15.25 69.3 14.2 73.2 13.15 77.2 12.2 80.25 11.55 82.75 11.05 86.75 10.25 90.75 9.45 94.8 8.75 97.8 8.25 99.2 8.0 103.2 7.3 107.2 6.7 111.25 6.1 114.25 5.7 117.75 5.3 121.75 4.85 125.75 4.5 129.75 4.2 132.8 4.0 137.2 3.8 141.2 3.65 145.2 3.55 149.2 3.55 152.2 3.55 157.2 3.65 161.2 3.8 165.2 4.0 169.2 4.25 172.2 4.45 176.65 4.8 179.65 5.1 181.45 5.3 181.7 5.9" fill="none" stroke="#ffffff" stroke-linecap="round" stroke-linejoin="round" stroke-width="2.0"/>
  </g>
</svg>
