<?xml version="1.0" encoding="UTF-8" standalone="no"?>
<svg xmlns:xlink="http://www.w3.org/1999/xlink" height="37.4px" width="37.45px" xmlns="http://www.w3.org/2000/svg">
  <g transform="matrix(1.0, 0.0, 0.0, 1.0, 18.7, 18.7)">
    <path d="M0.0 -18.1 L-5.1 -16.9 -8.35 -16.05 Q-9.2 -15.75 -12.85 -12.85 L-15.5 -8.75 -16.85 -5.85 -18.1 0.0 Q-17.3 2.4 -17.25 4.45 -17.15 6.5 -16.35 8.1 -15.5 9.7 -12.85 12.8 L-8.85 15.15 -5.95 16.7 Q-4.7 17.35 0.0 18.1 2.35 18.05 4.45 17.25 L7.7 16.1 12.8 12.8 Q14.75 10.75 15.7 8.8 16.6 6.85 17.2 6.05 17.8 5.25 18.1 0.0 18.4 -2.3 17.25 -4.85 16.1 -7.35 16.0 -8.0 15.9 -8.6 12.8 -12.85 11.45 -14.3 9.0 -15.75 L5.6 -17.5 0.0 -18.1 Z" fill="none" stroke="#91c7b7" stroke-linecap="round" stroke-linejoin="round" stroke-opacity="0.49803922" stroke-width="1.5"/>
  </g>
</svg>
