<?xml version="1.0" encoding="UTF-8" standalone="no"?>
<svg xmlns:xlink="http://www.w3.org/1999/xlink" height="37.95px" width="65.15px" xmlns="http://www.w3.org/2000/svg">
  <g transform="matrix(1.0, 0.0, 0.0, 1.0, 30.8, 17.3)">
    <path d="M25.2 -1.05 L25.35 -0.3 27.4 1.15 25.2 -1.05 M28.05 -8.65 L29.25 -7.25 Q29.95 -6.7 30.2 -5.9 31.4 -2.4 34.1 0.4 L34.3 1.55 34.35 2.65 Q34.4 4.25 33.45 5.45 L23.9 17.8 23.05 18.0 21.6 17.25 20.8 17.4 19.5 18.4 10.6 18.15 4.6 20.65 Q-9.8 19.85 -24.05 17.1 -25.2 16.85 -25.4 16.0 L-23.85 13.25 -13.3 14.4 -12.55 14.75 Q-6.55 16.7 -0.7 15.8 L-0.45 15.05 Q0.85 14.0 2.85 14.0 L10.2 13.15 18.4 13.55 23.35 8.7 23.05 7.55 21.35 5.9 22.25 2.25 Q21.55 1.35 21.5 0.5 21.1 -4.5 22.5 -9.05 23.6 -12.7 26.75 -10.05 L28.05 -8.65" fill="#333333" fill-opacity="0.2" fill-rule="evenodd" stroke="none"/>
    <path d="M31.15 1.9 L31.65 3.05 25.5 12.3 Q25.35 13.2 24.85 13.75 L23.8 14.65 22.5 15.75 16.9 16.15 10.8 16.3 9.65 16.8 1.65 18.55 -26.15 17.4 Q-27.2 17.5 -27.6 16.7 L-26.5 15.1 -24.95 15.0 Q-24.0 14.2 -22.85 14.05 L-0.65 16.2 5.2 15.65 8.95 14.35 10.5 13.9 Q15.3 13.5 20.15 13.65 L21.0 13.5 Q22.1 13.45 22.75 12.65 L22.65 12.1 Q22.6 11.45 22.85 10.95 25.2 6.7 28.25 2.95 L28.4 2.25 29.1 1.75 31.15 1.9" fill="#333333" fill-opacity="0.2" fill-rule="evenodd" stroke="none"/>
    <path d="M23.75 -11.35 Q24.8 -9.3 25.5 -8.6 L27.7 -4.95 28.4 -3.5 29.5 -0.9 29.85 0.15 Q30.05 1.25 29.5 2.25 L26.95 6.15 24.25 9.6 Q23.5 10.5 23.05 11.65 L22.3 13.0 21.15 14.4 15.95 14.75 11.25 14.7 5.15 15.0 0.05 15.8 -4.15 15.8 -8.8 16.25 -13.65 16.0 -18.45 15.45 -23.3 14.65 Q-25.35 14.75 -27.2 13.95 L-28.65 13.3 -28.0 8.5 -27.95 6.7 -28.75 5.5 -28.6 4.35 -28.3 3.8 Q-26.3 3.05 -24.2 2.45 L-23.85 2.4 Q-28.1 1.45 -28.95 -0.8 L-29.05 -6.1 Q-28.95 -8.85 -29.45 -11.55 -29.75 -13.0 -29.35 -14.6 -30.6 -17.05 -24.65 -16.1 L-20.25 -15.9 -14.55 -15.7 -8.65 -15.25 -2.35 -14.25 2.65 -13.75 7.65 -13.5 12.25 -13.95 16.25 -14.25 20.35 -14.1 21.5 -14.0 Q22.65 -13.4 23.75 -11.35" fill="#a07c64" fill-rule="evenodd" stroke="none"/>
    <path d="M-11.3 -12.4 L-11.05 -12.05 -11.0 -12.05 -11.0 -11.95 -10.95 -11.9 -10.95 -11.75 -10.9 -11.75 -10.9 -11.7 -10.85 -11.65 -10.85 -11.5 -10.8 -11.3 -10.85 -11.05 -10.8 -10.8 -10.85 -10.75 -10.9 -10.6 -11.05 -10.45 -11.2 -10.2 -11.25 -10.15 -11.3 -10.1 -11.4 -10.1 -11.5 -10.1 -11.7 -10.05 -11.75 -10.0 -11.85 -10.0 -12.25 -9.95 -12.6 -10.1 -13.0 -10.4 -13.25 -10.75 -13.25 -10.85 -13.25 -10.95 -13.25 -11.1 -13.25 -11.25 -13.25 -11.4 -13.25 -11.55 -13.2 -11.6 -13.15 -11.75 -12.9 -12.1 -12.6 -12.5 -12.4 -12.7 -12.3 -12.75 -12.2 -12.75 -12.15 -12.75 -12.0 -12.75 -11.65 -12.65 -11.3 -12.4" fill="#a6b8bf" fill-rule="evenodd" stroke="none"/>
    <path d="M13.55 7.1 L13.9 7.2 14.05 7.3 14.15 7.4 14.15 7.5 14.2 7.6 14.2 7.7 14.2 7.75 14.2 7.85 14.2 7.95 14.15 8.05 14.15 8.15 14.05 8.25 13.95 8.35 13.9 8.45 13.9 8.5 13.9 8.6 13.9 8.7 13.9 8.8 13.9 8.9 13.85 9.0 13.8 9.1 13.8 9.2 13.7 9.25 13.65 9.35 13.55 9.45 13.1 9.5 11.7 9.5 11.5 9.4 11.1 9.25 10.9 9.15 10.8 9.05 10.75 8.95 10.75 8.85 10.7 8.7 10.7 8.6 10.7 8.4 10.75 8.2 10.75 8.1 10.8 8.05 10.85 7.95 10.9 7.85 10.95 7.75 11.15 7.55 11.25 7.45 11.4 7.35 11.6 7.3 11.9 7.2 12.35 7.05 12.55 7.0 12.7 7.0 12.7 6.95 13.1 7.0 13.55 7.1" fill="#a6b8bf" fill-rule="evenodd" stroke="none"/>
    <path d="M14.3 -0.35 L14.25 -0.3 14.45 -0.35 14.3 -0.35 M6.95 -5.95 L7.0 -5.8 7.8 -4.7 8.75 -3.9 9.15 -3.95 9.2 -3.95 6.95 -5.95 M16.25 -0.95 L16.3 -0.85 16.3 -0.75 16.3 -0.55 16.0 -0.25 15.8 -0.25 15.65 0.5 14.35 1.9 Q12.0 3.9 10.0 6.0 L9.3 6.45 8.95 6.3 8.75 5.95 8.6 5.55 8.3 5.45 8.15 5.25 8.1 5.25 8.1 4.85 Q8.25 4.55 7.8 4.55 L7.4 4.7 6.85 4.35 6.85 4.25 7.05 4.0 7.6 3.4 8.1 2.6 2.35 2.9 -2.15 3.0 -4.8 3.4 -12.9 3.8 -13.3 3.45 -13.75 3.1 -13.8 2.95 -13.85 2.7 -12.95 2.0 -13.1 1.35 -13.05 1.25 -13.05 1.2 -13.0 1.1 -12.8 0.9 Q-12.3 0.5 -11.7 0.45 L-13.6 0.35 -17.25 -0.4 -17.45 -0.8 -17.35 -1.05 -16.7 -1.5 -12.7 -2.3 -13.6 -2.6 -14.3 -2.75 -14.45 -2.85 Q-15.5 -3.0 -16.1 -3.55 L-16.1 -3.6 -15.6 -3.6 -15.65 -3.65 Q-14.95 -4.1 -13.95 -3.95 L-10.8 -4.2 -7.85 -4.2 -4.65 -4.1 -1.8 -4.1 1.05 -4.05 7.75 -3.85 6.35 -5.4 6.3 -5.55 6.35 -5.7 6.35 -5.8 6.75 -6.15 6.75 -6.2 6.75 -6.3 6.75 -6.5 6.75 -6.6 6.9 -6.9 7.0 -6.95 7.05 -7.0 7.2 -7.0 7.5 -7.1 7.5 -7.15 7.45 -7.3 7.45 -7.4 7.45 -7.5 7.45 -7.55 7.55 -7.65 7.65 -7.75 8.1 -7.65 9.6 -6.55 12.45 -4.25 14.35 -2.65 Q14.7 -2.05 15.5 -1.75 L16.25 -0.95 M-10.1 2.8 L-11.05 2.7 -11.6 2.8 -10.1 2.8 M-7.15 0.6 L-7.25 0.65 -7.45 0.75 -7.55 0.7 -7.5 0.85 -7.15 0.6" fill="#ffffff" fill-rule="evenodd" stroke="none"/>
    <path d="M-7.5 1.25 L-7.35 1.45 -7.2 1.65 -7.0 4.25 Q-6.85 5.65 -6.95 7.1 L-7.15 8.75 -7.25 8.95 -7.35 9.1 -7.4 9.1 -7.65 9.2 -7.95 9.1 -8.15 8.9 -8.35 6.25 -8.25 3.45 -8.1 1.6 -7.95 1.4 -7.8 1.3 -7.65 1.25 -7.5 1.25" fill="#ffffff" fill-rule="evenodd" stroke="none"/>
    <path d="M-4.9 0.4 L-4.9 0.6 -4.75 0.75 -4.65 2.45 -4.65 4.15 -4.65 5.25 -4.7 5.45 -4.75 5.65 -4.85 5.85 -4.95 6.0 -5.1 6.2 -5.15 6.3 -5.4 6.4 -5.7 6.25 -5.85 6.1 -5.8 5.9 -5.75 5.7 -5.7 5.5 -5.65 5.35 -5.65 3.85 -5.65 2.15 -5.6 1.0 -5.55 0.85 -5.45 0.65 -5.4 0.45 -5.4 0.25 -5.35 0.1 -5.15 0.0 -5.0 0.0 -4.9 0.2 -4.9 0.4" fill="#ffffff" fill-rule="evenodd" stroke="none"/>
    <path d="M18.35 15.5 L17.15 15.5 13.35 15.5 10.0 15.15 8.9 14.85 5.2 14.2 3.15 13.65 Q1.05 12.95 -1.15 12.75 L-2.05 12.55 -3.35 12.3 -5.05 11.75 -22.15 12.25 -22.8 12.0 -23.05 11.25 -22.3 10.25 -19.75 9.8 -17.4 9.6 -14.95 9.55 -12.55 9.65 -10.15 9.35 -6.35 9.15 -4.2 9.4 -2.2 9.6 1.45 10.2 3.8 10.65 7.3 11.1 10.6 11.65 11.45 12.0 13.8 12.15 15.85 12.15 17.95 12.15 20.2 12.05 20.85 11.9 21.6 12.15 22.15 12.95 22.35 13.25 22.4 13.65 22.35 14.4 21.45 15.4 18.35 15.5" fill="#333333" fill-opacity="0.2" fill-rule="evenodd" stroke="none"/>
    <path d="M26.45 7.5 L26.85 8.65 26.35 9.4 12.1 10.25 11.85 9.9 11.75 9.5 11.75 9.15 11.9 8.8 12.3 8.35 12.65 8.0 13.1 6.5 13.8 6.4 13.85 6.25 14.45 6.55 15.45 7.0 19.35 7.2 23.25 7.25 26.45 7.5" fill="#333333" fill-opacity="0.2" fill-rule="evenodd" stroke="none"/>
    <path d="M-11.7 -12.5 L-11.5 -13.05 -9.9 -13.1 -9.55 -12.75 -9.35 -11.0 -7.55 -10.35 -7.15 -9.6 -7.55 -8.85 -10.4 -8.35 -11.15 -7.75 Q-12.3 -8.0 -12.65 -9.1 L-12.55 -9.4 -11.0 -11.1 -11.15 -11.5 -11.65 -12.1 -11.7 -12.5" fill="#333333" fill-opacity="0.2" fill-rule="evenodd" stroke="none"/>
    <path d="M25.9 -8.15 L26.05 -7.85 26.05 -7.5 25.9 -7.1 25.8 -6.9 15.1 -7.25 14.85 -7.6 15.1 -8.0 25.35 -8.5 25.9 -8.15" fill="#333333" fill-opacity="0.2" fill-rule="evenodd" stroke="none"/>
    <path d="M-1.65 1.4 L-3.65 1.5 -7.8 1.7 -10.65 1.95 -15.35 2.05 -20.05 2.15 -20.65 2.4 -22.15 2.4 -24.65 2.15 -25.65 1.9 Q-27.45 1.45 -28.15 0.0 L-28.05 -0.35 -27.65 -0.9 -25.15 -1.0 -22.15 -0.6 -20.15 -0.35 -17.35 -0.35 -14.55 -0.35 -13.15 -0.35 -11.75 -0.35 -7.65 -0.6 -3.65 -0.6 Q-1.1 -0.85 1.1 0.5 L-1.65 1.4" fill="#333333" fill-opacity="0.2" fill-rule="evenodd" stroke="none"/>
    <path d="M24.1 4.5 L24.95 4.15 25.65 3.4 29.05 -0.7 29.6 -0.75 30.1 0.0 29.7 0.75 29.7 1.5 25.6 6.75 25.6 7.5 24.2 9.2 22.05 11.6 21.05 13.2 20.85 13.9 20.2 15.65 19.95 15.7 18.45 15.65 17.85 14.9 17.9 13.75 18.1 12.75 Q18.8 11.3 19.8 10.1 L22.1 7.7 22.85 6.55 Q23.2 5.5 24.1 4.5" fill="#333333" fill-opacity="0.2" fill-rule="evenodd" stroke="none"/>
    <path d="M-11.05 -12.85 L-10.8 -12.45 -10.75 -12.1 -10.85 -11.75 -11.05 -11.35 -12.65 -11.25 -16.25 -12.05 -16.45 -12.1 Q-18.1 -12.75 -19.95 -12.75 L-25.25 -12.65 -27.15 -12.65 -29.4 -12.75 -29.65 -13.1 -29.4 -13.5 -26.8 -14.0 -23.85 -14.2 -17.9 -14.25 -15.9 -13.75 -12.65 -13.5 -11.05 -12.85" fill="#333333" fill-opacity="0.2" fill-rule="evenodd" stroke="none"/>
    <path d="M15.85 -10.1 L17.55 -10.1 20.75 -10.15 23.0 -9.65 Q23.45 -9.6 23.7 -9.1 L23.95 -8.5 24.2 -7.85 26.0 -7.3 26.9 -6.65 27.3 -6.0 27.45 -5.25 27.85 -4.85 28.15 -4.45 28.35 -4.1 28.45 -3.7 28.45 -3.35 28.3 -3.0 28.05 -2.65 27.95 -2.5 29.3 -2.1 30.5 -1.5 30.85 -0.85 30.85 -0.1 30.65 0.2 30.25 0.55 29.95 0.9 5.7 1.15 5.25 1.4 4.35 1.9 1.5 2.95 -1.4 4.1 -4.55 4.85 -8.55 4.9 -11.55 4.65 -16.4 4.65 -16.7 4.95 -17.1 5.15 -17.65 5.4 -18.55 5.15 -18.85 4.7 -19.3 4.05 -19.6 3.2 -19.65 2.5 -19.4 1.85 -18.85 1.0 -18.15 0.25 -18.4 -0.1 -21.55 -1.35 -22.15 -2.1 -22.15 -2.5 -22.15 -2.85 -22.1 -3.25 -22.25 -3.5 -23.5 -4.4 -24.9 -5.5 -26.05 -6.0 -26.55 -7.1 -26.05 -8.25 -23.15 -9.45 -19.9 -9.85 -17.0 -9.85 -14.1 -9.85 -11.2 -9.95 -8.3 -9.95 -5.4 -10.0 -2.5 -10.0 0.35 -10.1 3.05 -9.85 6.45 -9.85 9.85 -9.85 13.25 -9.85 15.85 -10.1" fill="#333333" fill-opacity="0.2" fill-rule="evenodd" stroke="none"/>
    <path d="M-12.3 3.9 L-11.9 4.1 -10.3 4.2 -12.3 3.9 M19.65 -5.25 L22.55 -5.25 26.95 -5.25 Q28.5 -5.55 29.6 -4.6 30.0 -4.15 29.95 -3.5 L29.35 -2.35 29.6 -1.9 29.8 -1.25 29.85 -0.1 29.7 0.55 Q29.45 1.1 29.55 1.75 L29.35 2.9 28.45 3.9 27.85 4.0 27.0 4.05 26.85 4.25 26.2 5.25 25.95 5.35 15.15 6.05 10.5 6.5 5.9 7.15 2.25 7.4 -2.75 7.4 -6.05 7.4 -9.35 7.4 -14.25 7.3 -19.25 7.5 -23.55 7.15 -24.15 6.4 -24.1 4.9 -23.55 4.15 -22.65 3.95 Q-20.25 3.6 -17.95 2.65 L-16.85 1.85 -15.8 0.9 -15.75 0.5 -15.7 0.15 -15.65 -0.25 -15.7 -0.5 -15.8 -0.6 -16.55 -0.85 -17.15 -1.6 -17.1 -3.1 -16.55 -3.85 -15.65 -4.1 -14.75 -4.5 -14.7 -4.55 -14.65 -4.75 Q-14.4 -5.95 -13.2 -6.25 L-12.15 -6.55 Q-10.45 -7.25 -8.75 -7.05 L-4.85 -6.95 -0.95 -7.0 2.1 -7.0 6.0 -6.95 9.75 -6.7 12.25 -6.4 16.1 -5.85 16.6 -5.35 16.7 -5.35 19.65 -5.25" fill="#333333" fill-opacity="0.2" fill-rule="evenodd" stroke="none"/>
    <path d="M15.4 -13.75 L19.05 -13.6 22.1 -13.45 22.7 -13.15 22.9 -12.4 Q22.75 -11.9 22.1 -11.7 L17.05 -11.8 12.25 -11.85 9.05 -11.85 5.85 -11.95 3.7 -12.05 0.1 -12.2 Q-1.6 -12.5 -3.15 -12.2 L-5.5 -12.3 -10.4 -13.0 -12.9 -13.3 -18.55 -13.45 -22.75 -13.35 -25.15 -13.35 -27.6 -13.25 -29.4 -13.1 -30.0 -13.4 -30.05 -14.15 Q-30.05 -14.45 -29.55 -14.55 -27.95 -15.25 -26.4 -15.0 L-24.45 -15.4 -21.55 -15.65 -18.65 -15.6 -16.05 -15.6 -13.25 -15.2 -10.4 -15.25 -7.9 -15.15 -4.15 -14.7 -0.5 -14.35 1.5 -14.05 5.35 -13.95 9.0 -13.75 12.2 -13.75 15.4 -13.75" fill="#ffff99" fill-opacity="0.2" fill-rule="evenodd" stroke="none"/>
    <path d="M-12.65 -12.85 L-12.4 -12.9 -12.15 -12.85 -11.35 -12.6 Q-11.15 -12.2 -11.3 -11.9 L-11.45 -11.55 -11.95 -11.4 Q-12.75 -11.15 -13.6 -11.7 L-13.7 -11.9 -13.6 -12.05 -12.95 -12.45 -12.75 -12.8 -12.65 -12.85" fill="#ffff99" fill-opacity="0.2" fill-rule="evenodd" stroke="none"/>
    <path d="M12.6 6.7 L13.1 6.9 13.3 7.4 13.1 7.9 12.6 8.1 Q12.3 8.1 12.1 7.9 L11.9 7.4 12.1 6.9 Q12.3 6.7 12.6 6.7" fill="#ffff99" fill-opacity="0.2" fill-rule="evenodd" stroke="none"/>
    <path d="M-28.6 -14.7 L-28.3 -13.95 -27.9 -12.3 -27.85 -11.7 -27.7 -10.8 Q-27.25 -9.4 -27.25 -8.15 L-27.0 -1.95 -26.85 -1.25 Q-26.35 0.1 -26.8 1.2 L-27.4 1.55 -28.2 1.05 -28.25 0.85 -28.65 -2.9 -28.65 -5.6 -28.75 -9.1 -29.2 -12.1 -29.4 -12.75 Q-29.85 -14.1 -28.9 -14.85 L-28.6 -14.7" fill="#ffff99" fill-opacity="0.2" fill-rule="evenodd" stroke="none"/>
    <path d="M-28.5 6.6 Q-28.95 5.75 -28.8 4.7 -28.7 4.05 -28.15 4.1 -27.5 4.2 -27.5 4.8 -27.55 6.4 -26.95 7.8 L-26.9 9.25 -26.4 9.85 -26.4 10.2 -26.3 11.35 -25.85 13.8 -26.15 14.5 -27.1 14.6 -27.45 14.2 -27.6 14.2 Q-28.35 14.35 -28.65 13.7 L-28.35 8.3 -28.6 7.9 -28.5 6.6" fill="#ffff99" fill-opacity="0.2" fill-rule="evenodd" stroke="none"/>
    <path d="M-13.4 7.7 L-11.25 8.2 -26.9 9.4 -27.15 9.25 -27.35 9.05 -27.4 8.9 -27.35 8.75 -27.2 8.55 -25.25 8.3 -22.9 8.0 -19.4 7.6 -15.65 7.6 -13.4 7.7" fill="#ffff99" fill-opacity="0.2" fill-rule="evenodd" stroke="none"/>
    <path d="M21.65 -15.1 L22.3 -14.7 22.35 -13.95 Q21.95 -13.45 21.2 -13.35 15.85 -13.1 10.3 -13.15 L-4.5 -14.1 -8.45 -14.75 -12.5 -15.25 -17.0 -15.6 -21.85 -16.0 -24.6 -15.75 -27.4 -15.75 -28.35 -15.5 Q-29.05 -15.3 -29.25 -15.8 L-28.65 -16.35 -27.45 -16.55 -21.7 -17.05 -17.05 -17.3 -12.75 -16.95 -7.95 -16.5 -2.85 -15.7 0.65 -15.25 5.8 -15.25 10.95 -15.25 16.1 -15.25 21.65 -15.1" fill="#333333" fill-rule="evenodd" stroke="none"/>
    <path d="M-29.3 -16.35 Q-28.65 -16.2 -28.95 -15.75 L-29.3 -14.5 Q-29.55 -12.7 -29.15 -11.05 L-29.0 -9.45 -28.9 -8.8 Q-28.55 -8.15 -28.75 -7.35 -29.1 -6.05 -28.7 -4.75 -28.15 -2.6 -28.2 -0.45 L-27.9 -0.3 Q-27.4 0.05 -27.6 0.6 L-27.75 0.75 Q-29.05 1.7 -29.85 0.35 L-29.9 -2.6 -29.95 -2.9 -30.05 -3.8 -30.0 -4.5 Q-30.05 -6.55 -30.45 -8.65 L-30.6 -9.7 Q-31.05 -12.3 -30.45 -15.1 -30.2 -16.15 -29.3 -16.35" fill="#333333" fill-rule="evenodd" stroke="none"/>
    <path d="M-22.75 1.8 L-22.65 2.55 -22.75 2.6 Q-23.6 3.15 -24.65 2.9 -26.45 2.8 -28.1 1.6 L-29.75 0.35 -29.6 -0.2 -29.05 -0.2 -27.6 0.35 -26.35 0.85 Q-24.4 0.75 -22.75 1.8" fill="#333333" fill-rule="evenodd" stroke="none"/>
    <path d="M-22.7 2.2 L-22.4 2.8 Q-23.05 3.15 -24.05 3.2 L-29.05 4.45 -29.35 4.25 -29.6 4.0 -29.65 3.8 -29.25 3.4 Q-26.35 2.2 -23.55 2.0 L-22.7 2.2" fill="#333333" fill-rule="evenodd" stroke="none"/>
    <path d="M-28.65 4.0 L-28.35 4.55 -28.15 5.45 -28.0 7.15 -28.0 7.5 Q-27.65 11.25 -27.9 14.85 L-28.5 15.55 -29.6 15.1 -29.65 12.45 -29.6 12.25 Q-29.05 9.4 -29.6 6.5 -29.85 5.15 -29.5 3.85 -29.0 3.45 -28.65 4.0" fill="#333333" fill-rule="evenodd" stroke="none"/>
    <path d="M21.3 13.0 L21.85 13.35 21.95 14.25 21.65 14.55 17.9 15.65 13.7 15.6 9.4 15.6 5.2 15.95 1.0 16.8 -1.15 17.3 -3.95 17.15 -12.5 16.7 -19.4 16.3 -23.95 16.0 -28.55 15.55 Q-29.2 15.4 -29.35 14.7 L-29.35 14.45 -29.3 14.3 -29.2 14.05 -29.05 13.85 -28.85 13.65 -23.6 14.0 -17.95 14.1 -12.35 14.25 -6.65 14.45 -1.4 14.65 -0.75 14.25 Q0.7 13.6 2.15 13.6 4.7 13.5 7.1 13.65 L11.4 13.7 15.7 13.4 21.3 13.0" fill="#333333" fill-rule="evenodd" stroke="none"/>
    <path d="M21.15 -15.05 L21.4 -15.35 21.65 -15.15 Q23.1 -13.4 24.35 -11.45 L26.95 -7.35 Q28.95 -4.2 30.3 -1.0 L30.6 0.3 30.5 0.7 30.25 0.8 29.95 0.95 29.55 0.8 29.35 0.7 29.15 0.0 28.85 -0.8 28.4 -1.7 24.25 -9.45 22.5 -12.6 21.35 -14.35 Q21.1 -14.7 21.15 -15.05" fill="#333333" fill-rule="evenodd" stroke="none"/>
    <path d="M30.3 0.55 L30.3 0.8 28.75 3.5 27.85 5.2 Q26.6 8.35 24.15 10.85 L23.95 11.4 23.45 12.45 Q23.1 13.85 21.9 14.95 21.05 15.2 20.8 14.75 20.45 14.0 21.1 13.15 L22.0 11.65 22.6 10.55 22.9 10.2 23.75 9.05 24.25 8.85 26.3 5.25 Q27.5 3.0 29.25 0.8 29.75 0.2 30.3 0.55" fill="#333333" fill-rule="evenodd" stroke="none"/>
    <path d="M-13.95 -12.3 L-13.95 -12.2 -14.0 -12.2 -15.25 -12.2 -15.65 -12.25 -15.85 -12.2 -15.95 -12.15 -16.05 -12.15 -16.25 -12.15 -16.85 -12.25 -17.45 -12.35 -17.5 -12.35 -17.65 -12.3 -18.15 -12.35 -20.05 -12.5 -21.05 -12.75 -26.5 -12.75 -27.05 -12.7 -29.15 -12.6 -29.35 -12.55 -29.55 -12.45 -30.05 -12.45 -30.25 -12.55 -30.35 -12.65 -30.4 -12.7 -30.4 -12.8 -30.45 -12.9 -30.45 -13.0 -30.4 -13.1 -30.35 -13.15 -30.3 -13.2 -30.15 -13.2 -30.0 -13.15 -29.5 -13.15 -29.3 -13.2 -29.05 -13.25 -28.4 -13.3 -23.8 -13.6 -21.05 -13.6 -20.85 -13.55 -19.65 -13.25 -18.15 -13.1 -17.65 -13.05 -17.45 -13.0 -16.65 -12.85 -16.05 -12.75 -15.9 -12.7 -15.8 -12.65 -15.8 -12.6 -15.65 -12.6 -14.0 -12.4 -13.95 -12.3" fill="#333333" fill-rule="evenodd" stroke="none"/>
    <path d="M-11.1 -12.7 L-10.7 -12.5 Q-10.2 -12.3 -9.95 -11.8 L-9.85 -11.2 Q-9.75 -10.65 -10.0 -10.25 L-10.85 -9.35 Q-12.3 -8.5 -13.5 -9.65 L-13.65 -9.8 -13.75 -10.35 Q-13.75 -11.05 -13.4 -11.65 L-12.85 -11.5 Q-12.7 -11.4 -12.7 -11.05 L-12.65 -10.85 Q-12.45 -10.25 -11.6 -10.85 L-11.2 -10.9 Q-10.95 -10.9 -11.3 -11.55 -11.7 -12.25 -12.15 -12.4 L-12.55 -12.7 Q-12.45 -12.95 -11.9 -13.05 L-11.1 -12.7" fill="#333333" fill-rule="evenodd" stroke="none"/>
    <path d="M-8.9 -10.5 Q-10.15 -10.45 -11.05 -10.95 L-10.9 -11.0 Q-4.2 -11.5 2.45 -10.85 L2.45 -10.8 2.35 -10.75 -3.15 -10.6 -3.15 -10.55 -8.9 -10.5" fill="#333333" fill-rule="evenodd" stroke="none"/>
    <path d="M-13.5 12.25 Q-7.6 11.9 -1.65 12.0 L0.55 12.05 0.9 12.15 1.1 12.15 4.85 12.1 5.2 12.2 6.0 12.5 6.35 12.65 6.75 12.85 Q7.4 13.2 8.1 13.35 L9.05 13.8 9.35 13.85 10.0 14.0 10.15 14.1 10.65 14.25 10.75 14.35 10.6 14.4 10.1 14.55 9.85 14.65 9.35 14.75 8.85 14.8 8.55 14.65 8.05 14.45 7.6 14.3 7.25 14.15 6.25 13.6 5.6 13.3 5.1 13.25 4.8 13.1 2.6 12.95 0.9 12.85 0.75 12.75 -11.65 12.35 -13.5 12.25" fill="#333333" fill-rule="evenodd" stroke="none"/>
    <path d="M21.7 8.55 L22.45 8.55 22.8 8.65 24.2 8.8 24.45 8.95 24.55 9.1 24.55 9.3 24.5 9.45 24.4 9.55 24.2 9.65 22.95 9.65 19.75 9.25 14.25 8.65 17.45 8.5 19.4 8.4 19.45 8.35 20.35 8.5 21.7 8.55" fill="#333333" fill-rule="evenodd" stroke="none"/>
    <path d="M17.6 -6.5 L17.55 -6.6 17.7 -6.65 23.7 -6.9 26.2 -6.85 26.8 -6.8 26.95 -6.55 26.95 -6.4 26.65 -6.3 Q22.3 -6.0 17.95 -6.35 L17.6 -6.5" fill="#333333" fill-rule="evenodd" stroke="none"/>
    <path d="M22.5 -4.3 L22.25 -4.45 22.35 -4.65 22.5 -4.8 22.7 -4.8 24.2 -4.85 24.2 -4.9 25.35 -4.85 25.75 -4.7 27.55 -4.6 27.75 -4.4 27.75 -4.2 27.7 -4.05 27.45 -3.9 25.75 -3.95 25.35 -4.1 24.2 -4.15 22.5 -4.3" fill="#333333" fill-rule="evenodd" stroke="none"/>
    <path d="M13.4 6.65 L13.8 6.85 14.55 7.55 14.65 8.15 Q14.75 8.7 14.5 9.1 L13.65 10.0 Q12.2 10.85 11.0 9.7 L10.85 9.55 10.75 9.0 Q10.75 8.3 11.1 7.7 L11.65 7.85 11.8 8.3 11.85 8.5 Q12.05 9.1 12.9 8.5 L13.3 8.45 Q13.55 8.45 13.2 7.8 L12.35 6.95 11.95 6.65 Q12.05 6.4 12.6 6.3 L13.4 6.65" fill="#333333" fill-rule="evenodd" stroke="none"/>
  </g>
</svg>
