<?xml version="1.0" encoding="UTF-8" standalone="no"?>
<svg xmlns:xlink="http://www.w3.org/1999/xlink" height="12.6px" width="30.05px" xmlns="http://www.w3.org/2000/svg">
  <g transform="matrix(1.0, 0.0, 0.0, 1.0, 14.5, 6.5)">
    <path d="M9.0 -4.9 L9.05 -4.8 9.05 -4.7 9.1 -4.6 9.1 -4.5 9.1 -4.4 9.05 -4.3 9.05 -4.25 9.5 -4.2 10.1 -4.0 10.3 -3.9 10.65 -3.65 10.8 -3.55 10.95 -3.45 11.55 -3.15 11.7 -3.05 12.0 -2.8 12.05 -2.7 12.1 -2.6 12.1 -2.5 12.15 -2.4 12.2 -2.3 12.2 -2.25 12.2 -2.15 12.2 -2.05 12.2 -1.95 12.25 -1.85 12.3 -1.75 12.3 -1.65 12.35 -1.55 12.35 -1.5 12.35 -1.4 12.35 -1.3 12.4 -1.2 12.45 -1.1 12.45 -1.0 12.45 -0.9 12.45 -0.8 12.45 -0.65 12.45 -0.55 12.4 -0.45 12.4 -0.35 12.45 -0.25 12.7 0.0 12.75 0.1 12.95 0.3 13.0 0.4 13.05 0.5 13.15 0.7 13.2 0.75 13.2 0.85 13.2 0.95 13.3 1.05 13.45 1.15 13.5 1.25 13.55 1.35 13.6 1.45 13.65 1.5 13.7 1.6 13.7 1.7 13.7 2.0 13.7 2.1 13.7 2.35 13.7 2.45 13.7 2.85 13.7 2.95 13.7 3.2 13.7 3.5 13.65 3.6 13.6 3.7 13.6 3.75 13.55 3.85 13.45 3.95 13.2 4.25 13.05 4.35 12.85 4.45 12.65 4.5 12.55 4.6 12.5 4.7 12.45 4.8 12.4 4.9 12.35 5.0 12.2 5.1 12.1 5.15 11.95 5.25 11.9 5.25 11.8 5.3 11.6 5.35 11.4 5.3 11.3 5.25 11.2 5.25 7.0 5.1 1.6 4.75 -4.15 4.65 -8.7 4.65 -11.5 5.05 -13.5 4.95 -13.9 4.8 -14.0 4.7 -14.05 4.6 -14.15 4.5 -14.2 4.45 -14.25 4.35 -14.3 4.25 -14.3 4.15 -14.3 4.05 -14.3 3.95 -14.3 3.7 -14.3 3.6 -14.3 3.5 -14.3 3.3 -14.3 3.2 -14.3 3.0 -14.3 2.95 -14.25 2.85 -14.2 2.55 -14.2 2.45 -14.2 2.25 -14.2 2.2 -14.2 2.1 -14.2 1.7 -14.2 1.6 -14.15 1.55 -14.05 1.45 -14.0 1.35 -13.9 1.25 -13.85 1.15 -13.85 1.05 -13.85 0.95 -13.85 0.85 -13.85 0.75 -13.8 0.7 -13.8 0.6 -13.75 0.5 -13.7 0.4 -13.3 0.0 -12.9 -0.35 -12.35 -0.8 -12.25 -0.9 -11.3 -1.55 -10.9 -1.85 -10.8 -1.95 -10.7 -2.05 -10.45 -2.3 -10.4 -2.4 -10.2 -2.7 -10.05 -2.9 -9.85 -3.15 -9.75 -3.25 -9.55 -3.55 -9.55 -3.65 -9.55 -3.75 -9.55 -3.8 -9.5 -3.9 -9.5 -4.0 -9.45 -4.1 -9.4 -4.2 -9.3 -4.4 -9.25 -4.45 -9.15 -4.55 -9.05 -4.65 -8.95 -4.75 -8.9 -4.85 -8.7 -4.95 -8.4 -5.0 -8.2 -5.05 -8.05 -5.15 -7.85 -5.2 -7.65 -5.25 -7.05 -5.5 -6.85 -5.55 -6.65 -5.6 -5.15 -5.6 -3.7 -5.5 -2.65 -5.35 -2.4 -5.3 -2.3 -5.25 -1.65 -5.3 -1.55 -5.35 -1.45 -5.4 -1.15 -5.4 7.7 -5.4 8.6 -5.25 8.8 -5.15 8.85 -5.05 8.95 -5.0 9.0 -4.9" fill="#a6b8bf" fill-rule="evenodd" stroke="none"/>
    <path d="M8.35 -5.45 L8.5 -5.5 8.7 -5.45 8.8 -5.35 9.3 -4.7 10.15 -3.75 10.6 -3.3 10.7 -3.1 10.95 -2.7 11.15 -2.35 11.25 -2.15 11.3 -2.05 11.3 -2.0 11.35 -1.9 11.35 -1.5 11.4 -0.95 11.4 -0.3 11.35 -0.1 11.35 -0.05 11.55 0.05 11.7 0.1 11.85 0.2 11.95 0.3 12.05 0.35 12.2 0.35 13.1 0.15 14.6 0.2 14.8 0.3 14.85 0.4 14.95 0.5 15.0 0.6 15.05 0.7 15.1 0.75 15.1 0.85 15.1 0.95 15.1 1.05 15.1 1.15 15.1 1.25 15.05 1.35 15.0 1.45 14.95 1.5 14.85 1.6 14.7 1.7 14.6 1.75 14.55 1.8 14.35 1.85 13.85 2.15 13.05 2.5 13.0 2.6 12.95 2.7 12.9 2.8 12.9 2.9 13.0 2.95 13.05 3.0 13.2 3.0 13.3 3.05 13.55 3.1 13.8 3.1 13.95 3.1 14.3 3.05 14.75 3.0 15.05 3.05 15.2 3.15 15.3 3.25 15.35 3.35 15.4 3.45 15.45 3.5 15.45 3.6 15.5 3.7 15.55 3.8 15.55 3.9 15.55 4.0 15.55 4.1 15.55 4.2 15.5 4.25 15.45 4.35 15.4 4.45 15.35 4.55 15.2 4.65 15.1 4.7 13.55 4.75 12.7 4.6 12.65 4.7 12.6 4.75 12.5 4.95 12.15 5.2 12.05 5.25 11.8 5.3 11.7 5.4 11.55 5.45 Q7.0 6.1 2.4 5.6 L2.0 5.6 -2.05 5.85 -2.15 5.75 -2.2 5.65 -2.3 5.55 -2.35 5.45 -2.35 5.35 -2.35 5.25 -2.4 5.2 -6.4 5.05 -6.8 5.0 -6.95 4.9 -7.05 4.8 -7.15 4.7 -7.2 4.6 -7.25 4.55 -10.8 3.9 -11.2 3.5 -11.25 3.4 -11.25 3.3 -11.25 3.1 -11.25 2.85 -11.2 2.65 -11.2 2.55 -11.15 2.45 -11.05 2.35 -10.9 2.2 -10.8 2.1 -10.65 2.0 -9.75 1.7 -8.5 1.35 -8.45 1.25 -8.35 1.15 -8.25 1.05 -8.15 1.0 -8.05 0.95 1.1 0.15 3.2 -0.05 5.5 -0.15 5.65 -0.25 5.8 -0.35 6.75 -1.05 Q7.6 -1.75 5.45 -3.75 3.3 -5.75 4.65 -5.45 L6.2 -5.2 6.2 -5.3 6.2 -5.4 6.2 -5.5 6.2 -5.6 6.25 -5.7 6.3 -5.8 6.4 -5.9 6.45 -6.0 6.6 -6.05 6.8 -6.15 7.0 -6.15 7.2 -6.15 7.35 -6.05 7.5 -5.95 7.6 -5.9 7.7 -5.8 7.7 -5.7 7.75 -5.6 7.8 -5.5 7.85 -5.4 7.9 -5.3 7.95 -5.25 8.05 -5.15 8.1 -5.2 8.15 -5.3 8.2 -5.4 8.3 -5.45 8.35 -5.45 M9.45 -2.75 L9.45 -2.65 9.55 -2.55 9.6 -2.5 9.65 -2.6 9.55 -2.8 9.5 -2.85 9.45 -2.8 9.45 -2.75" fill="#663333" fill-opacity="0.2" fill-rule="evenodd" stroke="none"/>
    <path d="M5.5 -6.5 L5.8 -6.45 5.95 -6.35 6.05 -6.25 6.1 -6.15 6.15 -6.05 6.2 -6.0 6.2 -5.9 6.25 -5.8 6.3 -5.7 6.35 -5.6 6.35 -5.5 6.4 -5.45 6.55 -5.35 6.7 -5.3 6.85 -5.2 7.0 -5.1 7.1 -5.0 7.2 -5.0 7.3 -5.05 7.45 -5.1 7.55 -5.15 7.75 -5.15 7.95 -5.15 8.1 -5.05 8.35 -4.85 8.75 -4.5 9.1 -4.3 9.05 -4.4 8.95 -4.5 8.9 -4.6 8.85 -4.7 8.8 -4.8 8.8 -4.9 8.8 -5.0 8.85 -5.05 8.95 -5.15 9.05 -5.25 9.15 -5.3 9.35 -5.35 9.55 -5.3 9.7 -5.2 9.8 -5.1 10.0 -4.9 10.4 -4.55 10.5 -4.45 11.5 -3.2 12.4 -2.2 13.35 -0.9 13.4 -0.8 13.45 -0.7 13.5 -0.5 13.6 -0.15 13.6 0.25 13.6 0.35 13.55 0.45 13.5 0.5 13.4 0.6 13.3 0.7 13.2 0.8 13.25 0.9 13.35 1.0 13.45 1.1 13.55 1.2 13.6 1.25 13.7 1.45 13.75 1.55 13.8 1.65 13.8 1.75 13.85 1.85 13.85 2.0 13.85 2.4 13.85 2.75 13.85 3.05 13.8 3.15 13.8 3.25 13.75 3.35 13.7 3.45 13.7 3.5 13.7 3.6 13.7 3.8 13.65 4.2 13.55 4.55 13.35 4.85 12.85 5.4 12.35 5.75 12.2 5.8 11.1 5.75 10.95 5.65 10.85 5.55 10.8 5.45 10.7 5.35 Q10.5 5.1 10.0 5.1 L5.35 5.15 4.35 5.15 0.05 4.7 -0.05 4.6 -0.15 4.5 -0.2 4.4 -0.25 4.3 -0.3 4.2 -0.3 4.1 -0.35 4.05 -0.5 3.95 -0.9 3.85 -1.05 3.75 -1.1 3.7 -1.2 3.6 -1.25 3.5 -1.3 3.4 -1.35 3.35 -1.55 3.2 -1.7 3.1 -1.8 3.0 -1.85 2.95 -1.9 2.85 -1.95 2.75 -1.95 2.65 -1.95 2.55 -1.95 2.45 -1.95 2.35 -1.95 2.25 -1.9 2.2 -1.9 2.1 -1.8 2.0 -1.7 1.9 -1.6 1.8 -1.45 1.75 6.5 1.6 6.55 1.5 6.55 1.45 6.55 1.35 6.55 1.25 6.55 1.15 6.5 1.05 6.45 0.95 Q5.1 0.3 4.2 -0.85 L3.2 -1.95 1.35 -3.9 1.35 -4.0 1.3 -4.1 1.25 -4.2 1.25 -4.3 1.25 -4.4 1.2 -4.5 1.25 -4.65 1.25 -4.85 1.3 -4.95 1.35 -5.05 1.45 -5.15 1.6 -5.3 1.7 -5.3 1.8 -5.35 2.0 -5.4 2.2 -5.35 2.35 -5.3 2.5 -5.2 2.6 -5.1 2.65 -5.0 2.75 -4.9 2.9 -4.9 3.1 -4.9 3.3 -4.9 3.3 -5.0 3.3 -5.05 3.3 -5.25 3.3 -5.45 3.35 -5.65 3.4 -5.75 3.45 -5.8 3.55 -5.9 3.65 -6.0 3.8 -6.05 3.9 -6.1 4.1 -6.15 4.2 -6.15 4.3 -6.15 4.5 -6.2 4.75 -6.15 4.85 -6.2 4.95 -6.3 5.05 -6.4 5.2 -6.45 5.3 -6.45 5.5 -6.5 M9.65 -3.8 L9.4 -4.05 9.35 -4.1 9.25 -4.1 9.25 -4.05 10.25 -2.75 11.2 -1.45 11.7 -0.7 11.85 -0.6 12.1 -0.55 11.5 -1.5 10.75 -2.4 10.1 -3.05 9.9 -3.45 9.65 -3.8 M10.25 1.5 L10.3 1.5 10.3 1.3 10.3 1.1 10.3 0.95 10.25 0.85 10.2 0.75 10.05 0.65 10.0 0.65 9.95 0.85 9.95 0.95 9.85 1.0 9.8 1.1 10.0 1.3 10.15 1.4 10.25 1.5" fill="#663333" fill-opacity="0.2" fill-rule="evenodd" stroke="none"/>
    <path d="M13.45 2.2 L13.6 2.4 13.7 2.5 13.8 2.7 13.8 2.75 13.8 2.85 13.8 2.95 13.8 3.05 13.8 3.15 13.8 3.25 13.8 3.35 13.75 3.45 13.7 3.5 13.65 3.6 13.6 3.7 13.6 3.8 13.6 3.9 13.6 4.1 13.6 4.2 13.6 4.35 13.6 4.45 13.6 4.55 13.6 4.65 13.55 4.75 13.55 4.85 13.45 4.95 13.4 5.0 13.3 5.1 13.15 5.2 13.0 5.3 12.9 5.35 12.8 5.4 Q11.6 5.6 10.4 5.4 L10.2 5.35 10.1 5.25 10.05 5.25 3.25 5.15 3.0 5.15 2.75 5.1 -4.15 4.6 -4.25 4.5 -6.45 4.45 -6.6 4.5 -6.95 4.6 -7.05 4.6 -7.75 4.7 -7.95 4.75 -11.65 5.0 -11.95 4.95 -12.15 4.85 -12.2 4.75 -12.3 4.65 -12.35 4.55 -12.4 4.45 -12.4 4.35 -12.4 4.1 -12.4 4.0 -12.35 3.7 -12.4 3.6 -12.4 3.15 -12.4 2.3 -12.35 2.0 -12.3 1.95 -12.25 1.85 -12.2 1.75 -12.05 1.65 -11.95 1.6 -11.85 1.55 -11.65 1.55 -11.65 1.5 -0.5 1.5 -0.2 1.6 0.0 1.65 0.1 1.65 9.7 1.75 9.8 1.75 9.85 1.8 12.8 1.9 12.95 1.95 13.2 2.0 13.35 2.1 13.45 2.2" fill="#663333" fill-opacity="0.2" fill-rule="evenodd" stroke="none"/>
    <path d="M11.3 1.6 L11.45 1.65 11.6 1.75 11.7 1.85 11.8 1.95 11.85 2.0 11.85 2.1 11.9 2.2 11.95 2.3 11.95 2.4 11.95 2.5 11.95 2.6 11.95 2.7 11.95 2.75 11.9 2.85 11.9 2.95 11.85 3.05 11.8 3.15 11.8 3.25 11.75 3.35 11.7 3.45 11.65 3.5 11.25 3.8 Q11.0 3.9 10.85 4.1 L10.75 4.2 10.15 4.55 10.1 4.65 9.95 4.85 9.9 4.9 9.7 5.1 9.55 5.2 9.4 5.25 9.3 5.3 9.1 5.35 8.9 5.3 1.1 5.0 0.3 4.85 0.0 4.75 -0.75 4.8 -2.75 5.0 -4.55 4.9 -4.7 4.8 -4.8 4.7 -4.95 4.65 -5.2 4.7 -7.75 5.1 -12.75 5.4 -13.05 5.35 -13.2 5.25 -13.3 5.15 -13.4 5.05 -13.45 4.95 -13.45 4.85 -13.5 4.75 -13.5 4.7 -13.5 4.6 -13.5 4.5 -13.5 4.4 -13.5 4.3 -13.45 4.2 -13.4 4.1 -13.35 4.05 -13.25 3.95 -13.15 3.85 -12.95 3.8 -11.95 3.65 -11.2 3.6 -11.05 3.5 -10.45 3.3 -10.0 3.1 -9.9 3.0 -9.7 2.85 -9.5 2.65 -9.25 2.45 -9.1 2.35 -8.95 2.3 -8.75 2.25 -8.5 2.2 -8.35 2.15 -8.15 2.15 -6.45 1.8 -5.1 1.5 -4.3 1.4 -3.55 1.1 -3.45 1.0 -3.35 0.95 -3.25 0.85 -3.05 0.75 -2.9 0.7 -2.8 0.65 -2.7 0.6 -2.5 0.6 3.5 0.65 4.1 0.75 4.25 0.85 4.45 0.95 4.6 1.0 5.25 1.05 5.95 1.2 7.1 1.4 7.45 1.5 8.7 1.5 8.9 1.4 9.05 1.35 9.25 1.3 9.45 1.35 9.6 1.4 9.8 1.5 9.85 1.6 9.95 1.7 10.05 1.75 10.1 1.85 10.15 1.95 10.25 1.95 10.35 1.85 10.45 1.8 10.55 1.7 10.7 1.6 10.8 1.6 11.0 1.55 11.1 1.55 11.3 1.6" fill="#663333" fill-opacity="0.2" fill-rule="evenodd" stroke="none"/>
    <path d="M4.65 -5.75 L7.95 -5.75 8.15 -5.8 8.35 -5.85 8.9 -5.9 9.1 -5.95 9.5 -5.95 9.7 -5.9 9.85 -5.85 10.05 -5.75 10.1 -5.65 10.2 -5.55 10.25 -5.5 10.3 -5.4 10.3 -5.3 10.35 -5.2 10.35 -5.1 10.35 -5.0 10.3 -4.9 10.3 -4.8 10.25 -4.75 10.2 -4.65 10.1 -4.55 10.05 -4.45 9.85 -4.35 4.35 -4.1 0.85 -4.1 0.5 -4.0 -0.1 -3.8 -0.8 -3.65 -0.95 -3.55 -1.25 -3.55 -5.85 -3.45 -5.9 -3.35 -5.95 -3.25 -6.05 -3.15 -6.2 -3.0 -6.4 -2.7 Q-7.5 -1.9 -8.4 -0.9 L-9.3 -0.15 -9.45 -0.1 -9.85 0.1 -10.05 0.2 -11.8 1.35 -11.9 1.4 -11.95 1.4 -12.05 1.45 -12.25 1.5 -12.45 1.45 -12.65 1.4 -12.8 1.3 -12.9 1.2 -12.95 1.1 -13.05 1.0 -13.05 0.95 -13.1 0.85 -13.1 0.75 -13.1 0.65 -13.1 0.55 -13.1 0.45 -13.1 0.35 -13.05 0.25 -13.05 0.2 -13.0 0.1 -12.95 0.0 -12.85 -0.1 -12.75 -0.2 -12.6 -0.3 -12.5 -0.4 -12.45 -0.45 -12.35 -0.55 -12.25 -0.65 -12.2 -0.75 -12.2 -0.85 -12.15 -0.95 -12.1 -1.05 -12.05 -1.15 -11.95 -1.2 -11.9 -1.3 -11.8 -1.4 -11.3 -2.05 -10.05 -3.2 -9.55 -3.65 -9.35 -3.85 -9.2 -3.95 -9.0 -4.05 -8.85 -4.15 -8.55 -4.3 -8.2 -4.45 -8.0 -4.5 -7.85 -4.6 -7.7 -4.7 Q-7.45 -5.1 -6.95 -5.1 L-1.4 -5.25 -1.0 -5.35 -0.35 -5.55 0.05 -5.65 0.2 -5.75 0.6 -5.8 4.45 -5.8 4.65 -5.75" fill="#ffffff" fill-opacity="0.16078432" fill-rule="evenodd" stroke="none"/>
    <path d="M5.05 -5.4 L5.1 -5.3 5.2 -5.3 5.4 -5.35 5.5 -5.45 5.6 -5.5 5.7 -5.55 5.8 -5.55 6.0 -5.6 6.2 -5.65 6.3 -5.65 6.5 -5.7 8.35 -5.65 8.7 -5.6 8.85 -5.5 8.95 -5.4 9.05 -5.3 9.1 -5.25 9.1 -5.15 9.15 -5.05 9.2 -4.95 9.2 -4.85 9.2 -4.75 9.15 -4.65 9.1 -4.55 9.1 -4.5 9.05 -4.4 8.95 -4.3 8.85 -4.2 8.7 -4.1 8.55 -4.05 6.55 -4.0 6.35 -3.9 6.2 -3.8 6.05 -3.7 5.95 -3.65 5.7 -3.55 Q4.0 -2.7 2.05 -3.0 L1.95 -2.95 -0.7 -2.3 -1.85 -1.8 -1.95 -1.8 -2.15 -1.75 -2.3 -1.65 -2.45 -1.55 -2.55 -1.55 -3.4 -1.45 -3.65 -1.35 -4.75 -1.2 -5.6 -1.2 -5.75 -1.15 -5.85 -1.05 -5.95 -1.0 -6.05 -0.9 -6.2 -0.7 -6.4 -0.5 -6.4 -0.4 -6.45 -0.3 -6.5 -0.2 -6.55 -0.15 -6.65 -0.05 -6.75 0.05 -6.85 0.1 -6.95 0.15 -7.15 0.2 -7.35 0.15 -7.55 0.1 -7.7 0.0 -7.8 0.1 -7.85 0.1 -7.95 0.15 -8.05 0.2 -8.2 0.2 -8.5 0.25 -8.65 0.35 -8.8 0.45 -9.05 0.6 -9.65 1.0 -9.8 1.1 -9.9 1.2 -9.95 1.25 -10.1 1.35 -10.2 1.45 -10.3 1.45 -10.5 1.5 -10.8 1.45 -10.95 1.35 -11.05 1.25 -11.15 1.15 -11.2 1.05 -11.25 0.95 -11.3 0.85 -11.4 0.9 -11.5 0.95 -11.7 1.0 -12.0 1.05 -12.3 1.0 -12.45 0.9 -12.55 0.8 -12.6 0.7 -12.65 0.6 -12.65 0.5 -12.65 0.45 -12.65 0.35 -12.65 0.25 -12.65 0.15 -12.6 0.05 -12.55 -0.05 -12.5 -0.1 -12.0 -0.7 -11.2 -1.55 -10.8 -1.8 -10.75 -1.9 -9.8 -2.9 -8.8 -3.8 -8.7 -3.9 -8.3 -4.45 -8.15 -4.55 -8.05 -4.65 -7.95 -4.75 -7.85 -4.8 -7.7 -4.9 -6.25 -5.2 -0.7 -5.25 -0.55 -5.25 -0.3 -5.25 -0.1 -5.25 2.7 -5.3 2.9 -5.35 3.45 -5.5 Q4.15 -5.75 4.85 -5.5 L5.05 -5.4" fill="#ffffff" fill-opacity="0.16078432" fill-rule="evenodd" stroke="none"/>
    <path d="M-6.7 2.2 L-6.65 2.3 -6.6 2.35 -6.55 2.45 -6.5 2.55 -6.5 2.65 -6.5 2.75 -6.55 2.85 -6.5 2.95 -6.45 3.0 -6.45 3.1 -6.4 3.2 -6.4 3.4 -6.4 3.5 -6.4 3.6 -6.45 3.7 -6.5 3.75 -6.55 3.85 -6.55 3.95 -6.65 4.05 -6.7 4.15 -6.8 4.25 -6.95 4.35 -7.25 4.4 Q-9.25 4.6 -11.3 4.4 L-13.5 3.75 -13.55 3.7 -13.65 3.6 -13.7 3.5 -13.7 3.4 -13.7 3.3 -13.7 3.1 -13.7 3.0 -13.7 2.95 -13.7 2.85 -13.7 2.75 -13.65 2.65 -13.65 2.55 -13.65 2.45 -13.65 2.35 -13.55 2.25 -13.35 2.0 -12.85 1.6 -12.55 1.45 -12.45 1.45 -12.25 1.4 -11.0 1.4 -10.75 1.45 -10.7 1.45 -10.5 1.4 -10.1 1.45 -7.95 1.75 Q-7.35 1.8 -6.85 2.1 L-6.7 2.2" fill="#ffffff" fill-opacity="0.16078432" fill-rule="evenodd" stroke="none"/>
    <path d="M9.3 -5.45 L9.3 -5.35 9.3 -5.25 10.8 -3.4 12.75 -0.55 14.15 1.2 14.2 1.25 14.25 1.35 14.3 1.45 14.4 1.55 14.45 1.65 14.5 1.75 14.5 1.85 14.55 1.95 14.55 2.0 14.5 2.1 14.5 2.2 14.45 2.3 14.4 2.4 14.3 2.5 14.25 2.55 14.25 2.6 14.25 2.7 14.3 2.75 14.3 2.85 14.3 3.35 14.3 4.1 14.3 4.85 14.3 4.95 14.25 5.05 14.2 5.1 14.1 5.2 14.1 5.3 14.05 5.4 14.05 5.5 14.0 5.6 13.9 5.7 13.8 5.75 13.75 5.85 13.65 5.85 13.45 5.9 8.45 5.95 8.15 5.85 8.05 5.8 7.05 5.8 0.2 5.9 Q-6.55 6.2 -13.3 6.0 L-13.85 5.95 -14.0 5.85 -14.1 5.75 -14.2 5.65 -14.25 5.55 -14.25 5.45 -14.3 5.35 -14.3 5.25 -14.35 5.2 -14.4 5.1 -14.45 5.0 -14.5 4.15 -14.5 2.95 -14.5 1.8 -14.45 1.7 -14.45 1.6 -14.4 1.55 -14.3 1.45 -14.2 1.35 -14.1 1.25 -14.1 1.2 -14.1 1.1 -13.85 0.7 -13.45 0.25 -13.15 -0.05 -13.0 -0.1 -12.85 -0.15 -12.8 -0.25 -12.6 -0.45 -12.45 -0.65 -12.4 -0.7 -12.4 -0.8 -12.35 -0.9 -12.25 -1.0 -11.0 -2.6 -9.6 -4.1 -8.95 -4.85 -8.55 -5.15 -8.1 -5.5 -8.05 -5.55 -8.0 -5.6 -7.9 -5.7 -7.8 -5.8 -7.55 -5.85 -7.2 -5.9 -7.0 -6.0 -6.85 -6.05 -6.7 -6.05 -6.5 -6.05 -6.35 -6.0 -6.25 -6.0 -6.1 -5.95 Q0.65 -6.15 7.45 -6.0 L7.7 -5.9 7.8 -5.85 7.8 -5.9 8.05 -5.85 9.05 -5.75 9.2 -5.65 9.25 -5.55 9.3 -5.45 M7.95 -4.8 L7.8 -4.8 7.75 -4.8 4.2 -4.75 -2.85 -4.8 -6.5 -4.9 -6.6 -4.9 -6.9 -4.85 -7.2 -4.8 -7.55 -4.8 -7.7 -4.85 -8.8 -3.4 -10.3 -1.55 -11.15 -0.55 -11.15 -0.45 -11.2 -0.35 -11.2 -0.25 -11.2 -0.15 -11.25 -0.05 -11.3 0.05 -11.4 0.2 -11.45 0.3 -11.6 0.4 -11.75 0.5 -11.85 0.6 -11.9 0.7 -11.95 0.75 -12.0 0.85 -12.2 0.95 -12.35 1.05 -12.4 1.15 -12.5 1.25 -12.65 1.45 -12.75 1.5 -12.8 1.6 -12.85 1.7 -13.0 1.8 -13.1 1.85 -13.1 2.7 -13.1 3.9 -13.1 4.5 -8.5 4.35 -8.5 4.2 -8.5 4.1 -8.45 4.0 -8.45 3.9 -8.45 3.8 -8.4 3.7 -8.35 3.6 -8.3 3.55 -8.25 3.45 -8.2 3.25 -8.15 3.05 -8.05 2.95 -8.0 2.95 -7.95 3.0 -7.95 3.1 -7.95 3.2 -7.9 3.3 -7.9 3.4 -7.95 3.7 -8.05 3.95 -8.1 4.15 -8.1 4.25 -8.1 4.35 -6.85 4.4 -6.95 4.3 -7.0 4.2 -7.0 4.1 -7.0 4.0 -7.0 3.95 -7.05 3.85 -7.1 3.75 -7.1 3.65 -7.1 3.55 -7.1 3.45 -7.1 3.4 -7.0 3.3 -6.95 3.2 -6.8 3.2 -6.65 3.25 -6.55 3.35 -6.5 3.45 -6.45 3.5 -6.45 3.6 -6.4 3.7 -6.35 3.8 -6.35 3.9 -6.35 4.0 -6.3 4.1 -6.2 4.2 -6.15 4.25 -6.1 4.35 -6.05 4.4 -1.45 4.45 3.05 4.6 8.05 4.7 8.15 4.6 8.25 4.6 8.45 4.55 13.05 4.6 13.05 4.35 13.05 3.5 13.05 2.75 13.1 2.7 13.15 2.6 13.15 2.5 13.15 2.45 13.0 2.35 12.95 2.25 12.9 2.2 12.9 2.1 12.85 2.0 12.85 1.9 12.85 1.85 12.7 1.9 7.7 2.0 4.95 1.75 4.75 1.65 4.6 1.65 Q4.7 1.3 4.75 1.3 L4.8 1.25 4.95 1.2 5.1 1.15 5.7 1.05 5.95 1.05 7.7 1.05 12.2 1.1 11.85 0.6 11.4 -0.15 11.3 -0.35 10.4 -1.65 10.35 -1.8 9.1 -1.5 8.7 -1.4 8.5 -1.4 8.45 -1.5 8.5 -1.6 9.55 -2.0 10.1 -2.15 10.15 -2.15 9.65 -2.9 9.35 -2.8 9.15 -2.75 8.95 -2.65 8.85 -2.55 8.75 -2.45 8.7 -2.4 8.5 -2.35 8.3 -2.3 8.1 -2.3 7.9 -2.3 7.9 -2.35 8.0 -2.5 8.1 -2.55 8.15 -2.65 8.35 -2.75 8.45 -2.85 8.65 -3.05 8.8 -3.15 9.0 -3.2 9.05 -3.2 9.25 -3.3 9.35 -3.3 9.3 -3.35 8.15 -4.75 7.95 -4.8 M1.25 1.45 L1.25 1.5 1.05 1.6 -0.05 1.7 -2.45 1.7 -4.45 1.7 -5.1 1.65 -5.15 1.55 -5.2 1.45 -5.2 1.35 -5.2 1.3 -5.15 1.2 -5.05 1.1 -4.4 1.1 -2.8 1.05 -0.3 1.1 1.05 1.2 1.2 1.25 1.25 1.35 1.25 1.45" fill="#333333" fill-rule="evenodd" stroke="none"/>
  </g>
</svg>
