<?xml version="1.0" encoding="UTF-8" standalone="no"?>
<svg xmlns:xlink="http://www.w3.org/1999/xlink" height="102.55px" width="106.05px" xmlns="http://www.w3.org/2000/svg">
  <g transform="matrix(1.0, 0.0, 0.0, 1.0, 53.0, 51.25)">
    <path d="M47.1 49.35 L-48.75 49.35 -48.75 -27.4 47.1 -27.4 47.1 49.35" fill="#cccc66" fill-rule="evenodd" stroke="none"/>
    <path d="M-0.95 -23.3 Q10.15 -23.3 17.95 -15.5 25.75 -7.7 25.75 3.4 25.75 14.5 17.95 22.3 10.15 30.1 -0.95 30.1 -12.05 30.1 -19.85 22.3 -27.65 14.5 -27.65 3.4 -27.65 -7.7 -19.85 -15.5 -12.05 -23.3 -0.95 -23.3" fill="#a6b8bf" fill-rule="evenodd" stroke="none"/>
    <path d="M47.5 -27.4 L-49.75 -27.4 -49.75 -44.8 47.5 -44.8 47.5 -27.4" fill="#a28c88" fill-rule="evenodd" stroke="none"/>
    <path d="M50.4 -44.2 L-51.85 -44.2 -51.85 -50.7 50.4 -50.7 50.4 -44.2" fill="#e6e6cc" fill-rule="evenodd" stroke="none"/>
    <path d="M19.45 -31.6 L-42.35 -31.6 -42.35 -44.3 19.45 -44.3 19.45 -31.6" fill="#e6e6cc" fill-rule="evenodd" stroke="none"/>
    <path d="M-0.75 -15.0 Q6.95 -15.0 12.4 -9.55 17.85 -4.1 17.85 3.6 17.85 11.3 12.4 16.75 6.95 22.2 -0.75 22.2 -8.45 22.2 -13.9 16.75 -19.35 11.3 -19.35 3.6 -19.35 -4.1 -13.9 -9.55 -8.45 -15.0 -0.75 -15.0" fill="#a28c88" fill-rule="evenodd" stroke="none"/>
    <path d="M22.45 -44.1 L40.3 -44.1 40.3 -31.9 22.45 -31.9 22.45 -44.1" fill="#a6b8bf" fill-rule="evenodd" stroke="none"/>
    <path d="M-9.15 -2.9 L-9.15 8.6 -23.85 8.6 -23.85 -2.9 -9.15 -2.9" fill="#a6b8bf" fill-rule="evenodd" stroke="none"/>
    <path d="M0.95 -40.8 Q2.35 -40.8 3.3 -39.85 4.25 -38.9 4.25 -37.5 4.25 -36.1 3.3 -35.15 2.35 -34.2 0.95 -34.2 -0.45 -34.2 -1.4 -35.15 -2.35 -36.1 -2.35 -37.5 -2.35 -38.9 -1.4 -39.85 -0.45 -40.8 0.95 -40.8" fill="#a28c88" fill-rule="evenodd" stroke="none"/>
    <path d="M6.2 5.25 Q8.05 19.4 -6.7 17.75 -10.8 17.25 -13.1 13.7 L-15.05 10.75 Q-14.2 9.45 -12.65 9.1 L-10.85 9.5 Q-4.5 -2.2 5.2 4.45 L6.2 5.25" fill="#663333" fill-opacity="0.2" fill-rule="evenodd" stroke="none"/>
    <path d="M16.5 7.8 Q15.65 10.8 13.9 13.3 1.55 22.7 -3.85 9.9 -4.45 8.45 -3.7 7.1 3.4 -5.75 15.2 3.45 17.25 5.1 16.5 7.8" fill="#663333" fill-opacity="0.2" fill-rule="evenodd" stroke="none"/>
    <path d="M0.25 15.35 Q-10.4 10.0 -2.3 -0.05 1.1 -4.35 6.95 -3.65 16.6 7.55 4.85 15.1 2.7 16.5 0.25 15.35" fill="#663333" fill-opacity="0.2" fill-rule="evenodd" stroke="none"/>
    <path d="M6.6 -13.6 Q13.4 -11.15 16.65 -5.0 L16.45 -4.1 15.95 -3.75 Q4.5 -16.8 -9.3 -7.05 -13.55 -4.15 -18.5 -3.1 -10.2 -19.1 6.55 -14.2 L6.6 -13.6" fill="#663333" fill-opacity="0.2" fill-rule="evenodd" stroke="none"/>
    <path d="M-6.95 -3.45 Q-2.6 4.75 -9.15 10.7 L-9.3 11.35 Q-12.6 13.2 -16.1 12.05 L-18.7 11.1 -18.75 9.85 Q-12.9 10.35 -9.0 6.85 L-8.75 -3.4 -7.65 -3.7 -6.95 -3.45" fill="#663333" fill-opacity="0.2" fill-rule="evenodd" stroke="none"/>
    <path d="M-6.55 10.55 Q-13.45 18.35 -18.0 9.05 L-6.85 9.75 -6.55 10.55" fill="#663333" fill-opacity="0.2" fill-rule="evenodd" stroke="none"/>
    <path d="M19.55 -40.6 Q5.9 -41.15 -7.95 -40.85 -21.55 -40.55 -35.25 -40.8 L-49.15 -41.5 -49.35 -42.7 -48.95 -43.0 47.2 -43.25 47.85 -42.6 47.8 -41.65 Q36.55 -39.35 25.15 -40.25 L19.55 -40.6" fill="#663333" fill-opacity="0.2" fill-rule="evenodd" stroke="none"/>
    <path d="M-40.5 -44.95 L-39.9 -44.55 -39.5 -32.0 -40.1 -31.3 -40.75 -31.2 -41.35 -31.6 -41.1 -44.45 -40.5 -44.95" fill="#663333" fill-opacity="0.2" fill-rule="evenodd" stroke="none"/>
    <path d="M5.0 -38.55 L5.7 -38.35 6.3 -37.45 Q5.35 -31.6 -0.6 -32.75 L-1.3 -33.35 -1.4 -34.0 -0.75 -34.9 Q2.3 -33.6 3.65 -36.4 L4.15 -37.95 5.0 -38.55" fill="#663333" fill-opacity="0.2" fill-rule="evenodd" stroke="none"/>
    <path d="M-9.05 2.2 L-8.8 3.95 -9.35 4.45 -8.7 6.8 -9.65 7.65 -13.1 7.35 -13.8 8.0 -20.0 7.85 -20.35 8.5 -21.15 8.45 -22.5 8.0 -23.2 7.4 Q-22.0 4.8 -19.3 4.0 L-16.9 3.5 -15.5 3.55 -14.4 1.35 -13.4 1.1 -12.15 1.35 -11.6 1.6 -11.1 2.0 -9.05 2.2" fill="#663333" fill-opacity="0.2" fill-rule="evenodd" stroke="none"/>
    <path d="M-8.85 -2.25 Q-7.05 2.5 -8.9 7.0 -16.75 9.0 -25.0 7.0 L-25.15 6.2 -10.9 4.9 -10.4 -1.85 -9.4 -2.4 -8.85 -2.25" fill="#663333" fill-opacity="0.2" fill-rule="evenodd" stroke="none"/>
    <path d="M20.65 -0.85 L22.2 -0.8 22.8 -1.35 22.05 -1.9 21.9 -2.5 23.4 -3.0 24.25 -2.35 Q24.6 -0.8 23.2 0.05 L22.35 0.55 Q21.8 0.45 21.15 -0.2 L20.65 -0.85" fill="#663333" fill-opacity="0.2" fill-rule="evenodd" stroke="none"/>
    <path d="M22.35 1.8 L23.1 2.25 Q25.1 6.05 21.25 6.75 L20.8 6.8 19.75 6.2 Q19.1 5.65 18.95 4.65 L19.85 4.05 20.8 4.8 21.95 4.65 22.35 1.8" fill="#663333" fill-opacity="0.2" fill-rule="evenodd" stroke="none"/>
    <path d="M14.25 -8.6 Q2.7 -16.4 -10.05 -10.6 -15.85 -7.95 -19.2 -2.25 L-20.25 -2.85 Q-16.9 -13.25 -6.15 -15.95 3.5 -18.4 11.45 -12.4 L14.35 -10.0 14.6 -9.2 14.25 -8.6" fill="#663333" fill-opacity="0.2" fill-rule="evenodd" stroke="none"/>
    <path d="M18.25 -17.55 Q26.75 -10.0 27.9 1.05 29.2 13.7 21.15 23.35 13.55 32.4 1.65 32.75 -10.5 33.1 -19.55 25.05 -23.15 21.9 -25.6 17.9 L-24.85 16.95 Q-19.35 24.5 -10.9 28.3 -2.45 32.2 6.35 29.55 9.5 28.65 12.55 26.8 17.95 21.15 22.5 15.05 25.4 11.25 25.15 6.3 24.4 -7.35 15.65 -17.8 L18.25 -17.55" fill="#663333" fill-opacity="0.2" fill-rule="evenodd" stroke="none"/>
    <path d="M5.9 24.25 L5.45 25.05 6.35 25.4 6.75 25.9 Q-3.4 35.45 -16.75 26.25 L-16.75 25.15 -15.65 24.5 -17.5 23.2 -17.5 21.9 -19.35 19.7 -19.35 19.25 -20.3 18.15 -20.1 17.05 -19.25 16.65 -19.05 15.4 -17.75 15.1 Q-8.15 24.85 5.5 23.35 L5.9 24.25" fill="#663333" fill-opacity="0.2" fill-rule="evenodd" stroke="none"/>
    <path d="M20.85 17.95 Q15.25 28.3 3.2 29.2 L1.45 29.25 1.0 28.8 Q-3.85 28.2 -8.85 28.6 L-13.05 25.75 -12.9 23.25 -12.5 22.75 Q3.95 26.6 15.35 14.35 L16.5 14.2 17.3 15.0 17.95 14.85 18.7 15.15 19.4 17.1 20.85 17.95" fill="#663333" fill-opacity="0.2" fill-rule="evenodd" stroke="none"/>
    <path d="M26.65 -1.7 L27.3 -0.85 Q26.8 12.45 17.55 21.6 9.6 29.55 -1.8 28.45 -14.3 27.8 -22.35 18.2 L-25.05 14.85 -24.7 14.45 -23.8 14.4 Q-16.5 23.6 -4.9 25.85 6.3 28.1 14.8 20.35 24.3 11.65 26.05 -1.15 L26.5 -1.45 26.65 -3.05 26.65 -1.7" fill="#663333" fill-opacity="0.2" fill-rule="evenodd" stroke="none"/>
    <path d="M-40.85 41.65 Q-39.1 45.45 -43.3 45.7 L-44.05 45.6 -45.65 43.55 -45.0 42.75 -43.3 43.6 -42.65 43.5 -42.45 41.55 -41.75 41.05 -41.15 41.1 -40.85 41.65" fill="#663333" fill-opacity="0.2" fill-rule="evenodd" stroke="none"/>
    <path d="M-43.0 -22.95 L-41.75 -23.0 -41.1 -22.2 -41.05 -20.15 -42.2 -19.05 -44.25 -19.25 -44.55 -20.1 -44.2 -20.95 -43.05 -21.4 -43.35 -22.35 -43.0 -22.95" fill="#663333" fill-opacity="0.2" fill-rule="evenodd" stroke="none"/>
    <path d="M39.2 -22.35 Q41.4 -22.4 43.25 -21.3 L43.4 -20.4 43.35 -20.0 42.45 -18.45 40.45 -18.9 39.7 -19.05 39.65 -20.15 40.85 -20.5 39.0 -21.2 39.2 -22.35" fill="#663333" fill-opacity="0.2" fill-rule="evenodd" stroke="none"/>
    <path d="M40.55 41.8 L41.15 41.5 41.75 41.9 41.95 42.8 42.55 43.3 Q42.35 45.75 39.85 45.3 L38.6 44.9 39.0 43.5 40.35 43.05 40.55 41.8" fill="#663333" fill-opacity="0.2" fill-rule="evenodd" stroke="none"/>
    <path d="M47.45 49.1 Q34.6 49.85 21.7 49.7 L-1.5 49.7 -25.15 49.75 -48.45 49.05 -48.9 48.6 -48.6 47.5 -25.1 47.2 -1.0 47.0 36.4 47.1 47.35 47.35 47.8 48.15 47.45 49.1" fill="#663333" fill-opacity="0.2" fill-rule="evenodd" stroke="none"/>
    <path d="M47.0 -47.0 L47.8 -46.45 Q48.6 -33.65 48.7 -20.9 L48.8 2.7 49.0 26.35 Q49.05 36.6 48.55 46.8 L48.35 49.7 47.4 50.25 46.95 50.35 46.4 50.05 46.15 50.0 45.9 49.8 45.4 49.25 45.4 27.2 45.3 8.1 45.2 -8.45 Q45.15 -18.5 45.4 -28.7 45.65 -37.8 46.35 -46.8 L47.0 -47.0" fill="#663333" fill-opacity="0.2" fill-rule="evenodd" stroke="none"/>
    <path d="M23.75 -34.75 Q29.95 -38.3 36.8 -35.8 36.5 -33.75 34.45 -32.55 29.05 -29.4 23.9 -32.75 L23.75 -34.75" fill="#663333" fill-opacity="0.2" fill-rule="evenodd" stroke="none"/>
    <path d="M39.15 -45.15 L40.6 -44.6 Q42.95 -29.0 27.2 -31.25 25.3 -31.45 23.45 -32.0 L23.25 -32.45 Q24.25 -33.5 25.45 -33.6 L28.2 -33.85 Q29.15 -38.2 34.4 -38.15 L37.9 -38.95 38.15 -44.6 39.15 -45.15" fill="#663333" fill-opacity="0.2" fill-rule="evenodd" stroke="none"/>
    <path d="M43.65 -44.15 L45.1 -43.65 46.4 -42.8 Q47.35 -37.95 46.6 -32.95 L45.4 -32.25 44.25 -36.35 Q42.2 -37.05 41.25 -39.2 40.15 -41.85 42.55 -43.4 L43.65 -44.15" fill="#663333" fill-opacity="0.2" fill-rule="evenodd" stroke="none"/>
    <path d="M-50.05 -42.7 L-46.25 -42.85 -44.6 -44.4 Q-38.0 -37.35 -44.6 -32.6 -44.95 -32.4 -45.35 -32.3 L-45.45 -36.05 Q-50.4 -36.15 -50.2 -41.2 L-50.05 -42.7" fill="#663333" fill-opacity="0.2" fill-rule="evenodd" stroke="none"/>
    <path d="M22.6 -43.45 Q23.6 -40.8 22.8 -38.1 L21.15 -37.15 19.5 -38.05 Q18.5 -40.2 19.85 -42.3 20.5 -43.25 21.9 -43.7 L22.6 -43.45" fill="#663333" fill-opacity="0.2" fill-rule="evenodd" stroke="none"/>
    <path d="M21.95 -40.8 L21.6 -40.4 19.4 -40.55 19.4 -41.35 21.1 -43.3 21.7 -43.5 22.55 -43.05 Q22.8 -41.75 21.95 -40.8" fill="#663333" fill-opacity="0.2" fill-rule="evenodd" stroke="none"/>
    <path d="M-48.2 -38.95 Q-48.65 -41.25 -47.4 -43.2 L-46.55 -43.25 -45.15 -42.75 -44.8 -42.65 -44.15 -42.75 -43.25 -43.55 -42.1 -43.3 -41.65 -42.5 -42.85 -38.4 -43.65 -38.05 -45.95 -39.0 -47.4 -38.55 -48.2 -38.95" fill="#663333" fill-opacity="0.2" fill-rule="evenodd" stroke="none"/>
    <path d="M40.0 -43.25 Q42.15 -43.7 44.15 -42.65 L44.85 -43.45 46.05 -43.3 Q47.0 -41.6 46.5 -39.7 L45.5 -39.0 40.95 -40.1 39.65 -41.5 39.65 -42.75 40.0 -43.25" fill="#ffffff" fill-opacity="0.2" fill-rule="evenodd" stroke="none"/>
    <path d="M-23.2 -1.25 L-21.95 -2.0 -8.4 -1.3 -23.0 -0.45 -23.2 -1.25" fill="#ffffff" fill-opacity="0.2" fill-rule="evenodd" stroke="none"/>
    <path d="M-23.05 -1.9 Q-20.7 3.25 -22.8 8.5 -24.45 3.6 -23.55 -1.6 L-23.05 -1.9" fill="#ffffff" fill-opacity="0.2" fill-rule="evenodd" stroke="none"/>
    <path d="M-14.85 -0.85 L-15.1 0.75 Q-18.0 2.8 -21.0 1.35 L-22.25 0.6 -22.25 -0.7 Q-17.95 -2.7 -13.35 -2.85 L-14.15 -1.3 -14.85 -0.85" fill="#ffffff" fill-opacity="0.2" fill-rule="evenodd" stroke="none"/>
    <path d="M-12.4 -7.1 Q-9.7 -11.45 -6.2 -8.4 L-5.25 -7.4 Q-5.65 -3.25 -9.4 -3.8 -11.1 -3.7 -12.4 -5.05 L-12.4 -7.1" fill="#ffffff" fill-opacity="0.2" fill-rule="evenodd" stroke="none"/>
    <path d="M-8.3 -10.0 Q-4.85 -14.9 -0.1 -11.35 2.3 -4.9 -6.1 -6.15 -7.7 -6.25 -7.95 -8.0 L-8.3 -10.0" fill="#ffffff" fill-opacity="0.2" fill-rule="evenodd" stroke="none"/>
    <path d="M-9.2 -4.1 L-9.2 -8.0 -5.6 -9.9 Q1.6 -7.8 -4.6 -2.3 L-6.6 -2.35 Q-7.9 -3.05 -9.2 -4.1" fill="#ffffff" fill-opacity="0.2" fill-rule="evenodd" stroke="none"/>
    <path d="M52.3 -46.8 L20.5 -46.6 -2.6 -46.35 -25.35 -46.35 Q-36.15 -46.35 -47.0 -46.65 L-51.95 -47.55 -51.95 -48.5 -51.45 -48.75 -0.5 -49.0 52.4 -48.75 53.05 -47.55 52.3 -46.8" fill="#ffffff" fill-opacity="0.2" fill-rule="evenodd" stroke="none"/>
    <path d="M7.75 -46.85 L-15.5 -46.1 Q-27.55 -46.2 -39.5 -46.75 L-40.4 -47.35 -40.55 -48.65 -39.95 -49.15 2.7 -50.35 3.4 -49.1 8.15 -48.5 8.35 -47.55 7.75 -46.85" fill="#ffffff" fill-opacity="0.2" fill-rule="evenodd" stroke="none"/>
    <path d="M9.85 -40.65 L15.7 -40.45 16.15 -38.45 15.85 -38.05 15.55 -37.8 Q13.4 -36.35 10.65 -37.1 L8.8 -38.65 9.3 -39.95 9.85 -40.65" fill="#ffffff" fill-opacity="0.2" fill-rule="evenodd" stroke="none"/>
    <path d="M3.6 -38.7 L2.15 -38.3 1.7 -38.6 -2.1 -37.05 Q-1.45 -38.8 0.3 -39.6 2.0 -40.5 3.85 -40.0 L3.85 -39.05 3.6 -38.7" fill="#ffffff" fill-opacity="0.2" fill-rule="evenodd" stroke="none"/>
    <path d="M18.75 -15.9 L18.4 -15.35 Q7.85 -22.2 -4.4 -19.55 -17.15 -17.05 -22.6 -5.5 -25.4 0.45 -25.45 7.25 L-24.5 8.85 -24.75 9.6 Q-30.85 4.9 -27.7 -2.65 -21.65 -17.0 -6.75 -21.45 6.25 -25.2 17.15 -17.15 L18.75 -15.9" fill="#ffffff" fill-opacity="0.2" fill-rule="evenodd" stroke="none"/>
    <path d="M1.85 -20.8 L-0.55 -20.9 2.2 -19.85 2.5 -18.7 1.45 -17.15 Q-8.8 -16.55 -16.95 -10.35 L-17.7 -10.7 -18.4 -11.2 -19.65 -12.45 -19.55 -14.65 Q-10.9 -23.0 1.05 -23.2 L2.5 -22.35 2.7 -21.4 1.85 -20.8" fill="#ffffff" fill-opacity="0.2" fill-rule="evenodd" stroke="none"/>
    <path d="M14.4 -16.0 Q14.45 -15.45 14.65 -14.85 9.1 -12.5 1.15 -14.3 L-4.6 -14.8 Q-10.65 -14.75 -14.55 -19.25 0.2 -26.9 14.3 -18.2 L14.45 -16.95 14.4 -16.0" fill="#ffffff" fill-opacity="0.2" fill-rule="evenodd" stroke="none"/>
    <path d="M2.2 -35.3 Q-2.4 -29.3 -9.0 -34.05 -21.65 -28.85 -33.95 -32.25 -36.65 -33.05 -38.15 -35.75 -27.8 -44.75 -16.7 -37.6 -12.25 -37.65 -8.15 -39.05 -3.65 -36.05 1.75 -36.25 L2.2 -35.3" fill="#ffffff" fill-opacity="0.2" fill-rule="evenodd" stroke="none"/>
    <path d="M-5.7 -32.85 Q-19.75 -30.8 -32.6 -34.65 -34.2 -35.1 -34.65 -36.85 -30.6 -38.1 -26.5 -37.95 L-23.8 -37.7 -20.8 -40.75 Q-9.55 -43.55 -5.45 -35.5 -4.85 -34.3 -5.7 -32.85" fill="#ffffff" fill-opacity="0.2" fill-rule="evenodd" stroke="none"/>
    <path d="M7.3 -22.1 Q-9.3 -22.35 -23.65 -15.25 -31.75 0.2 -25.4 16.65 -23.1 22.65 -25.6 27.65 -26.9 30.3 -29.95 30.8 L-33.0 30.7 Q-36.45 32.75 -40.5 31.6 L-42.05 31.1 -43.55 28.75 Q-50.55 25.1 -50.3 16.5 -49.95 2.45 -47.95 -11.45 L-47.0 -18.6 Q-50.0 -23.1 -45.45 -24.55 -30.85 -28.75 -15.45 -29.15 -5.8 -29.4 3.85 -29.25 L33.2 -28.65 Q37.7 -28.55 41.0 -25.8 48.25 -19.85 48.1 -9.6 47.9 3.3 40.5 13.45 39.2 15.3 36.85 15.35 25.8 15.5 25.75 3.95 25.75 -4.65 20.35 -10.65 17.7 -13.6 16.15 -17.4 11.35 -17.95 7.95 -21.15 L7.3 -22.1" fill="#ffffff" fill-opacity="0.2" fill-rule="evenodd" stroke="none"/>
    <path d="M35.7 -29.85 Q38.8 -28.8 41.1 -26.55 50.05 -24.35 46.2 -14.9 44.95 -11.85 43.2 -9.1 42.45 -8.0 41.3 -7.55 39.95 6.05 28.0 -0.45 22.45 -3.55 19.9 -9.65 L16.05 -18.8 Q-2.55 -20.95 -20.9 -17.55 -22.5 -13.75 -25.7 -11.3 -22.75 5.05 -37.7 7.1 -38.7 7.05 -39.6 6.4 -50.15 -1.5 -47.95 -15.65 -47.4 -19.15 -47.45 -22.75 L-42.2 -27.15 Q-13.2 -27.9 15.7 -27.6 L31.3 -27.15 Q32.35 -29.0 34.45 -29.6 L35.7 -29.85" fill="#ffffff" fill-opacity="0.2" fill-rule="evenodd" stroke="none"/>
    <path d="M2.1 30.0 L1.65 31.25 Q-5.5 33.65 -11.25 27.6 L-11.8 26.85 Q-24.3 25.8 -23.5 15.95 -23.45 15.65 -22.8 15.4 L-18.6 17.65 Q-16.6 15.1 -14.25 16.8 -13.65 17.2 -13.6 18.0 L-12.45 19.35 -10.25 17.85 -8.05 19.95 Q-5.3 21.05 -6.6 23.75 -7.05 24.6 -7.85 24.95 L-4.3 26.85 Q-3.2 25.35 -1.5 25.5 L-0.55 25.9 0.4 28.1 1.75 29.05 2.1 30.0" fill="#663300" fill-opacity="0.2" fill-rule="evenodd" stroke="none"/>
    <path d="M-16.7 9.2 L-15.55 11.1 -16.0 12.65 Q-10.75 16.3 -11.0 23.0 L-12.65 25.3 -14.2 25.9 -15.6 25.6 -16.65 24.65 -16.95 24.05 Q-18.25 23.65 -19.5 22.65 -21.1 21.35 -21.2 19.25 -24.15 17.75 -24.8 14.7 -25.15 12.95 -24.15 11.4 L-24.95 10.1 Q-25.5 9.05 -25.05 8.1 -24.65 7.35 -23.8 7.1 -20.9 7.15 -18.35 8.4 -17.5 8.75 -16.7 9.2" fill="#663300" fill-opacity="0.2" fill-rule="evenodd" stroke="none"/>
    <path d="M-7.05 5.75 L-6.8 6.3 -7.3 7.55 Q-10.3 10.85 -14.4 9.5 L-15.15 9.1 Q-22.45 16.9 -25.45 6.2 -26.0 4.15 -23.65 4.55 -19.75 4.7 -16.1 3.1 L-12.55 4.7 -9.85 4.05 Q-8.0 4.2 -7.05 5.75" fill="#663300" fill-opacity="0.2" fill-rule="evenodd" stroke="none"/>
    <path d="M5.65 -32.55 Q0.55 -29.4 -4.6 -32.55 -5.35 -35.9 -1.9 -37.7 L1.85 -35.95 2.9 -37.05 4.6 -36.8 Q6.7 -35.5 5.9 -33.2 L5.65 -32.55" fill="#663300" fill-opacity="0.2" fill-rule="evenodd" stroke="none"/>
    <path d="M5.8 -40.3 L6.0 -40.1 9.2 -36.65 9.2 -35.8 Q11.1 -35.6 11.6 -33.8 L11.45 -33.2 Q9.4 -31.1 6.7 -32.35 4.55 -31.05 2.1 -32.8 L1.0 -33.6 Q2.7 -36.45 3.45 -39.95 L4.75 -40.75 Q5.35 -40.75 5.8 -40.3" fill="#663300" fill-opacity="0.2" fill-rule="evenodd" stroke="none"/>
    <path d="M39.35 -42.5 L42.8 -44.8 44.25 -43.95 43.1 -34.25 43.4 -33.9 43.7 -33.4 43.85 -33.0 43.85 -32.05 43.55 -31.15 43.25 -30.65 42.55 -30.45 41.75 -30.3 41.0 -30.35 40.4 -30.75 39.8 -31.3 Q37.0 -32.15 34.4 -31.3 26.55 -28.85 19.95 -32.15 L20.45 -33.7 Q24.1 -34.9 27.85 -34.9 33.8 -35.35 38.85 -37.45 L39.35 -42.5" fill="#663300" fill-opacity="0.2" fill-rule="evenodd" stroke="none"/>
    <path d="M31.15 -42.35 Q33.1 -43.55 35.5 -43.3 L38.2 -43.95 Q46.15 -36.05 36.3 -32.15 29.0 -29.25 28.4 -36.45 29.1 -38.9 30.35 -41.15 L31.15 -42.35" fill="#663300" fill-opacity="0.2" fill-rule="evenodd" stroke="none"/>
    <path d="M37.7 -17.6 L37.7 -19.2 40.4 -20.45 39.55 -21.4 40.3 -23.6 Q48.15 -19.55 39.45 -17.15 L38.35 -17.1 37.7 -17.6" fill="#663300" fill-opacity="0.2" fill-rule="evenodd" stroke="none"/>
    <path d="M-43.15 -23.25 Q-38.1 -25.45 -38.9 -19.55 L-39.2 -18.9 Q-41.75 -18.1 -44.2 -19.4 L-44.2 -20.65 -43.55 -20.95 Q-42.85 -20.9 -43.0 -21.55 L-43.15 -22.0 -43.15 -23.25" fill="#663300" fill-opacity="0.2" fill-rule="evenodd" stroke="none"/>
    <path d="M-40.85 44.9 Q-44.6 47.35 -47.1 44.6 L-47.0 43.35 -45.75 42.5 -43.25 42.85 -43.8 42.15 -43.75 41.25 Q-42.5 40.25 -40.95 41.25 -39.65 42.8 -40.55 44.45 L-40.85 44.9" fill="#663300" fill-opacity="0.2" fill-rule="evenodd" stroke="none"/>
    <path d="M39.9 41.9 L41.35 40.55 42.5 41.45 Q43.5 45.25 39.7 44.35 39.0 44.15 38.4 43.55 L38.95 42.0 39.45 41.8 39.9 41.9" fill="#663300" fill-opacity="0.2" fill-rule="evenodd" stroke="none"/>
    <path d="M-47.2 -2.65 Q-45.75 -2.75 -44.95 -1.6 -44.25 -0.65 -44.6 0.45 -36.45 4.35 -42.1 10.9 -43.35 16.9 -48.15 15.65 L-49.0 15.15 Q-49.2 10.3 -48.15 5.75 L-48.35 4.9 -50.95 2.95 Q-51.3 1.25 -50.15 0.2 L-48.65 -0.8 -47.2 -2.65" fill="#663300" fill-opacity="0.2" fill-rule="evenodd" stroke="none"/>
    <path d="M-47.7 4.8 Q-37.1 8.05 -45.85 16.5 -43.0 25.25 -50.95 24.25 -51.4 22.45 -50.15 21.1 L-50.15 19.25 -49.4 18.3 Q-49.75 14.4 -48.45 10.45 L-49.2 10.25 -49.5 9.6 -48.6 7.75 Q-48.95 6.25 -48.0 5.1 L-47.7 4.8" fill="#663300" fill-opacity="0.2" fill-rule="evenodd" stroke="none"/>
    <path d="M-40.1 20.25 L-41.8 19.15 -42.0 16.3 Q-39.55 14.45 -37.9 16.7 -38.1 18.8 -39.85 20.05 L-40.1 20.25" fill="#663300" fill-opacity="0.2" fill-rule="evenodd" stroke="none"/>
    <path d="M40.4 48.9 L39.9 50.15 38.65 50.65 35.9 49.6 Q24.8 48.6 14.25 49.35 L13.55 48.9 7.7 50.25 6.8 49.4 7.3 47.85 Q11.75 45.65 16.9 45.35 L17.85 43.45 20.75 42.3 Q21.45 39.35 24.4 39.0 25.7 38.8 26.5 39.6 L27.25 40.65 Q30.75 38.5 33.45 41.25 34.4 42.2 34.35 43.55 34.3 44.9 33.4 45.95 L36.45 45.85 Q38.5 46.15 39.9 47.65 L40.4 48.9" fill="#663300" fill-opacity="0.2" fill-rule="evenodd" stroke="none"/>
    <path d="M39.65 48.6 L39.05 49.2 Q28.0 51.1 17.65 49.55 L17.0 49.0 Q17.15 46.4 19.85 46.05 L20.6 45.8 21.2 45.55 Q23.7 41.0 28.7 39.05 32.9 32.95 36.45 39.8 37.95 42.65 39.9 45.35 40.8 47.15 39.65 48.6" fill="#663300" fill-opacity="0.2" fill-rule="evenodd" stroke="none"/>
    <path d="M36.15 30.4 Q36.15 31.4 35.35 32.15 34.5 32.85 33.3 32.85 32.1 32.85 31.3 32.15 30.45 31.4 30.45 30.4 30.45 29.4 31.3 28.7 32.1 27.95 33.3 27.95 34.5 27.95 35.35 28.7 36.15 29.4 36.15 30.4" fill="#663300" fill-opacity="0.2" fill-rule="evenodd" stroke="none"/>
    <path d="M-6.05 -40.7 Q-9.15 -38.8 -12.55 -40.0 -15.75 -38.35 -19.45 -38.4 -21.75 -32.2 -27.45 -35.4 -28.15 -35.85 -28.65 -36.55 L-40.85 -39.85 -41.05 -40.5 -40.65 -41.45 Q-34.6 -44.0 -28.7 -43.65 L-28.4 -42.7 -23.5 -43.2 -23.4 -43.85 -22.5 -44.5 -20.45 -44.7 -19.5 -43.1 -10.15 -44.15 Q-6.05 -44.55 -5.95 -41.1 L-6.05 -40.7" fill="#663300" fill-opacity="0.2" fill-rule="evenodd" stroke="none"/>
    <path d="M-20.8 -41.45 Q-21.7 -38.3 -24.75 -37.75 L-25.6 -37.8 -28.7 -33.7 -29.75 -33.05 Q-37.7 -32.85 -38.85 -40.2 L-39.6 -41.75 Q-30.7 -45.25 -20.9 -43.95 -20.1 -43.1 -20.5 -42.1 L-20.8 -41.45" fill="#663300" fill-opacity="0.2" fill-rule="evenodd" stroke="none"/>
    <path d="M12.55 33.65 Q12.95 35.95 11.6 37.75 L10.65 38.85 Q3.3 40.4 -0.35 33.9 L-3.85 33.35 -4.4 32.7 -4.45 31.8 -3.65 30.95 7.3 29.55 8.55 28.4 13.55 27.7 Q14.35 24.65 17.35 23.85 L19.0 25.3 Q18.5 29.9 14.55 31.9 L13.8 32.05 12.55 33.65" fill="#663300" fill-opacity="0.2" fill-rule="evenodd" stroke="none"/>
    <path d="M3.15 33.0 Q11.85 35.2 4.9 40.75 3.6 41.75 2.0 40.95 L-0.65 37.6 -0.55 35.1 3.15 33.0" fill="#663300" fill-opacity="0.2" fill-rule="evenodd" stroke="none"/>
    <path d="M-42.05 -9.15 L-41.25 -10.0 -39.75 -10.15 -38.45 -9.7 Q-37.6 -8.35 -38.25 -7.0 L-38.75 -6.05 -40.5 -6.35 -42.0 -7.9 -42.05 -9.15" fill="#663300" fill-opacity="0.2" fill-rule="evenodd" stroke="none"/>
    <path d="M38.75 -25.05 L41.35 -27.85 41.9 -31.0 45.75 -32.75 46.75 -32.25 47.0 -26.9 Q48.0 -26.2 48.2 -25.1 48.5 -22.95 47.25 -21.25 L46.75 -20.4 Q47.95 -13.9 48.5 -7.05 48.75 -3.4 45.8 -2.3 43.25 -5.2 43.0 -9.8 42.9 -11.95 43.1 -14.3 38.05 -13.25 36.4 -18.05 34.9 -22.5 38.75 -25.05" fill="#663300" fill-opacity="0.2" fill-rule="evenodd" stroke="none"/>
    <path d="M16.05 -16.0 L14.85 -17.2 Q10.95 -20.05 6.4 -21.1 L4.35 -21.8 1.05 -22.3 Q-3.3 -23.3 -7.45 -21.7 L-11.65 -20.05 Q-13.55 -19.2 -15.25 -18.0 -17.8 -16.2 -19.95 -13.8 L-22.55 -10.55 Q-24.9 -7.05 -25.6 -3.05 L-26.45 3.7 -26.45 5.95 Q-26.1 10.05 -24.25 13.85 L-22.15 17.55 Q-19.8 21.45 -16.15 24.15 -12.35 26.85 -7.65 28.1 L-5.65 28.7 3.55 28.95 Q6.1 28.5 8.4 27.5 12.95 25.35 16.6 22.15 19.75 19.3 21.55 15.45 23.6 11.05 24.4 6.0 L24.9 2.15 Q25.1 0.5 24.6 -1.1 L22.75 -6.6 21.35 -9.4 19.0 -12.9 Q17.35 -14.2 16.05 -16.0 M8.4 -13.4 L11.2 -11.6 13.75 -9.45 Q17.4 -5.95 18.35 -1.1 18.95 1.75 18.85 4.8 18.75 7.4 17.85 9.9 16.3 14.25 12.65 17.4 10.45 19.4 7.8 20.7 6.1 21.6 4.4 22.0 L1.1 22.4 Q-2.9 22.95 -6.9 21.65 -8.7 21.05 -10.35 20.25 L-12.5 19.0 Q-16.0 16.3 -18.15 12.5 L-19.4 9.5 -19.75 7.9 -19.65 7.7 -18.9 7.9 -18.45 7.8 -16.25 12.05 -14.55 14.8 Q-12.8 17.65 -9.95 19.0 -8.05 20.0 -6.1 20.6 L-4.2 21.2 Q-0.4 21.9 3.6 21.2 5.8 20.75 7.55 19.5 L11.15 16.7 13.25 14.55 Q15.5 11.7 16.45 8.2 18.15 1.9 15.35 -4.15 L14.0 -6.4 Q12.6 -8.3 9.4 -10.95 6.15 -13.65 2.15 -14.05 -1.85 -14.45 -4.3 -14.0 L-6.8 -13.4 -9.35 -12.3 Q-11.95 -10.9 -13.95 -8.5 -16.3 -5.7 -17.85 -2.55 L-19.25 -2.35 Q-19.8 -3.2 -19.05 -4.3 L-18.55 -5.15 Q-16.3 -8.85 -13.15 -11.7 -11.85 -12.8 -10.3 -13.55 L-7.55 -14.85 Q-4.25 -15.95 -0.85 -15.95 2.1 -15.7 4.95 -14.85 L8.4 -13.4 M7.75 -22.65 L12.4 -21.05 Q16.55 -18.9 19.6 -15.35 L22.6 -11.65 Q25.45 -7.8 26.1 -3.25 L26.7 1.05 26.75 2.2 Q26.8 7.05 25.55 11.7 L24.5 14.8 Q23.25 17.85 21.1 20.35 L18.8 22.6 14.4 26.0 10.5 28.4 Q7.45 29.8 4.4 30.55 L2.2 31.1 Q-2.35 31.3 -6.85 30.3 -11.6 29.25 -15.85 26.75 L-17.7 25.45 Q-21.5 22.45 -24.15 18.6 -26.05 15.8 -27.2 12.55 L-28.6 7.45 Q-29.3 3.55 -28.55 -0.65 -27.7 -5.3 -25.55 -9.5 -24.5 -11.6 -23.1 -13.5 L-20.05 -16.8 -16.35 -19.8 Q-12.5 -22.6 -7.95 -23.3 L-3.4 -23.9 -1.05 -24.2 Q3.45 -24.0 7.75 -22.65" fill="#333333" fill-rule="evenodd" stroke="none"/>
    <path d="M50.95 -50.6 L51.05 -50.4 51.15 -50.2 51.25 -49.95 51.25 -49.75 51.25 -49.55 51.15 -49.3 51.05 -49.15 50.95 -48.9 50.7 -48.7 50.2 -48.6 38.95 -48.6 Q31.2 -48.3 23.45 -48.4 -2.35 -48.75 -28.15 -48.45 -39.65 -48.35 -51.15 -48.65 L-51.65 -48.75 -52.35 -48.9 -52.6 -49.15 -52.7 -49.35 -52.75 -49.55 -52.75 -49.75 -52.75 -50.0 -52.7 -50.15 -52.6 -50.4 -52.35 -50.6 -48.65 -51.2 -35.9 -51.0 Q-8.25 -50.9 19.45 -51.2 L31.45 -51.25 38.95 -51.1 42.45 -51.05 50.2 -50.95 50.7 -50.85 50.95 -50.6" fill="#333333" fill-rule="evenodd" stroke="none"/>
    <path d="M-51.35 -50.45 L-51.2 -50.25 -51.1 -48.55 -51.05 -46.5 -51.1 -44.8 -51.15 -44.65 -51.3 -44.45 -51.45 -44.25 -51.9 -44.1 -52.35 -44.25 -52.6 -44.45 -52.7 -44.6 -52.75 -46.3 -52.7 -48.35 -52.65 -50.05 -52.6 -50.25 -52.5 -50.45 -52.35 -50.6 -51.9 -50.7 -51.9 -50.75 -51.5 -50.6 -51.35 -50.45" fill="#333333" fill-rule="evenodd" stroke="none"/>
    <path d="M39.95 -46.1 L44.45 -46.1 47.45 -46.0 50.2 -45.95 50.65 -45.8 50.9 -45.6 51.0 -45.45 51.05 -45.25 51.1 -45.05 51.1 -44.85 51.05 -44.7 50.95 -44.5 50.8 -44.3 50.65 -44.2 Q27.2 -43.6 3.7 -43.95 L-21.05 -44.0 Q-36.75 -43.85 -52.4 -44.35 L-52.75 -44.5 -52.95 -44.7 -53.0 -44.85 -53.0 -45.05 -53.0 -45.25 -52.85 -45.4 -52.65 -45.55 Q-8.0 -46.0 36.7 -46.1 L39.95 -46.1" fill="#333333" fill-rule="evenodd" stroke="none"/>
    <path d="M49.95 -50.8 L50.15 -51.0 50.4 -51.1 50.7 -51.15 50.7 -51.2 51.15 -51.05 51.4 -50.85 51.5 -50.7 51.55 -50.5 51.7 -49.0 51.75 -46.95 51.65 -45.25 51.55 -45.05 51.45 -44.9 51.25 -44.7 51.05 -44.55 50.7 -44.5 50.2 -44.6 49.95 -44.8 49.85 -45.0 49.75 -45.2 49.65 -46.7 49.75 -48.75 49.75 -50.45 49.85 -50.6 49.95 -50.8" fill="#333333" fill-rule="evenodd" stroke="none"/>
    <path d="M-49.55 -44.05 L-49.15 -44.1 -48.6 -44.0 -48.4 -43.8 -48.2 -43.6 -48.15 -43.45 -48.05 -43.3 -48.0 -43.1 Q-47.65 -37.55 -47.6 -31.95 L-47.6 -20.45 -47.8 -8.95 -47.9 2.6 -47.85 14.1 -47.75 25.6 -47.65 37.15 Q-47.6 42.9 -47.9 48.65 L-48.2 50.3 -48.3 50.45 -48.45 50.65 -48.6 50.8 -48.8 50.85 -49.15 50.9 -49.7 50.8 -49.9 50.6 -50.1 50.4 Q-50.7 44.9 -50.65 39.25 L-50.65 27.75 -50.5 16.25 -50.4 4.7 -50.45 -6.8 -50.65 -18.3 -50.7 -29.85 -50.4 -41.35 -50.2 -43.5 -50.1 -43.7 -49.9 -43.85 -49.7 -44.0 -49.55 -44.05" fill="#333333" fill-rule="evenodd" stroke="none"/>
    <path d="M48.4 48.75 L48.65 48.95 48.8 49.1 48.85 49.35 48.9 49.55 48.95 49.8 48.95 49.95 48.9 50.15 48.85 50.4 48.75 50.6 48.6 50.8 48.4 50.95 48.25 51.0 47.15 51.1 35.45 51.1 24.5 51.05 14.75 51.0 1.35 50.95 -4.0 50.95 -13.5 51.1 Q-31.25 51.6 -48.95 50.85 L-50.35 50.6 -50.5 50.4 -50.65 50.15 -50.7 49.95 -50.7 49.8 -50.7 49.55 -50.55 49.35 -50.4 49.15 -50.2 49.0 -49.9 48.95 -49.45 48.85 -48.95 48.8 -47.95 48.75 -47.0 48.65 -44.3 48.6 -41.4 48.55 -41.4 48.5 -19.85 48.55 -13.5 48.6 -4.0 48.75 1.35 48.75 14.75 48.65 24.5 48.55 35.45 48.55 47.15 48.6 48.4 48.75" fill="#333333" fill-rule="evenodd" stroke="none"/>
    <path d="M46.7 -45.35 L46.95 -45.5 47.15 -45.55 47.55 -45.7 48.1 -45.7 48.1 -45.75 48.5 -45.6 48.75 -45.4 48.85 -45.25 48.95 -45.05 48.9 -44.9 48.85 -44.7 48.75 -44.5 48.45 -44.3 48.45 -44.15 48.5 -43.95 48.6 -43.75 49.0 -32.5 49.1 -20.65 48.85 -8.85 48.65 2.95 48.65 14.75 48.65 26.6 Q48.65 32.5 48.95 38.4 49.25 44.05 48.9 49.65 L48.8 49.85 48.65 50.05 48.5 50.2 48.2 50.4 47.9 50.55 47.5 50.6 46.85 50.45 46.55 50.3 46.3 50.1 46.2 49.9 46.05 49.7 Q45.7 44.1 46.0 38.45 L46.3 26.65 46.3 14.85 46.3 3.0 46.15 -8.8 45.9 -20.6 46.0 -32.45 46.3 -43.5 46.25 -43.7 46.15 -43.85 46.15 -44.05 46.05 -44.25 46.15 -44.4 46.3 -44.8 46.6 -45.2 46.7 -45.35" fill="#333333" fill-rule="evenodd" stroke="none"/>
    <path d="M36.7 -28.5 L46.7 -28.35 47.0 -28.2 47.2 -27.9 47.3 -27.65 47.3 -27.45 47.25 -27.15 47.15 -26.85 46.95 -26.75 46.7 -26.65 Q41.7 -26.4 36.7 -26.5 L35.95 -26.5 33.7 -26.5 31.45 -26.5 -0.8 -26.65 -7.55 -26.6 Q-28.85 -26.15 -50.15 -26.8 L-50.45 -26.95 -50.6 -27.2 -50.65 -27.5 -50.6 -27.7 -50.45 -28.0 -50.15 -28.2 -47.9 -28.25 -36.9 -28.4 -36.9 -28.5 -8.55 -28.2 -0.8 -28.2 5.2 -28.2 16.45 -28.35 30.7 -28.4 36.7 -28.5" fill="#333333" fill-rule="evenodd" stroke="none"/>
    <path d="M34.2 -45.2 L46.2 -45.1 46.9 -45.0 47.05 -44.8 47.2 -44.6 47.25 -44.45 47.3 -44.25 47.25 -44.05 47.2 -43.85 47.05 -43.7 46.9 -43.5 46.2 -43.4 34.2 -43.3 -50.15 -43.6 -50.85 -43.7 -50.95 -43.85 -51.05 -44.05 -51.1 -44.25 -51.05 -44.4 -50.95 -44.6 -50.85 -44.8 -50.15 -44.9 -46.65 -45.05 32.45 -45.2 34.2 -45.2" fill="#333333" fill-rule="evenodd" stroke="none"/>
    <path d="M-42.35 -44.25 L-42.35 -44.3 -42.0 -44.15 -41.85 -43.95 -41.7 -43.8 -41.6 -43.6 -41.45 -37.8 -41.5 -31.6 -41.6 -28.0 -41.65 -27.85 -41.75 -27.65 -42.1 -27.5 -42.4 -27.65 -42.6 -27.85 -42.7 -33.65 -42.65 -39.65 -42.6 -43.2 -42.65 -43.4 -42.8 -43.6 -42.85 -43.8 -42.8 -43.95 -42.65 -44.15 -42.35 -44.25" fill="#333333" fill-rule="evenodd" stroke="none"/>
    <path d="M40.9 -44.2 L41.1 -40.1 41.1 -35.8 Q41.05 -34.35 41.15 -32.95 L41.05 -30.9 40.95 -28.65 40.85 -27.15 40.75 -27.0 40.5 -26.85 40.15 -26.95 40.05 -27.15 39.85 -33.55 39.85 -40.1 40.0 -44.05 40.0 -44.2 40.15 -44.4 40.45 -44.5 40.5 -44.55 40.8 -44.4 40.9 -44.2" fill="#333333" fill-rule="evenodd" stroke="none"/>
    <path d="M21.95 -30.65 L-2.8 -30.6 Q-22.75 -30.5 -42.7 -30.9 L-42.7 -31.1 -42.65 -31.25 -42.45 -31.45 -41.3 -31.55 Q-22.1 -32.3 -2.8 -31.85 L-2.8 -31.9 21.95 -31.9 27.7 -31.9 39.5 -31.9 39.8 -31.8 39.95 -31.6 40.05 -31.4 40.1 -31.2 40.05 -31.05 39.9 -30.85 39.75 -30.7 39.5 -30.65 27.7 -30.65 21.95 -30.65" fill="#333333" fill-rule="evenodd" stroke="none"/>
    <path d="M22.65 -44.45 L22.85 -39.95 22.85 -35.3 22.7 -32.3 22.65 -32.1 22.55 -31.9 22.2 -31.8 21.9 -31.9 21.7 -32.1 Q21.55 -34.3 21.55 -36.6 L21.6 -41.3 21.7 -44.3 21.75 -44.45 21.9 -44.65 22.2 -44.75 22.2 -44.8 22.55 -44.65 22.65 -44.45" fill="#333333" fill-rule="evenodd" stroke="none"/>
    <path d="M19.95 -39.7 L19.95 -35.4 19.95 -32.95 20.05 -32.8 20.05 -32.6 20.1 -32.4 20.05 -32.2 20.0 -32.05 19.9 -31.85 19.7 -31.7 19.45 -31.65 19.1 -31.8 18.9 -31.95 18.85 -32.15 18.85 -32.35 18.85 -32.55 18.85 -32.7 18.9 -32.9 18.95 -33.1 19.0 -37.2 19.1 -41.35 19.15 -43.8 19.25 -43.95 19.45 -44.0 19.6 -44.05 19.8 -43.85 19.95 -39.7" fill="#333333" fill-rule="evenodd" stroke="none"/>
    <path d="M34.7 -44.15 L45.5 -43.8 45.8 -43.65 46.1 -43.45 46.25 -43.3 46.1 -43.1 45.8 -42.9 45.5 -42.8 44.5 -42.7 43.75 -42.65 43.25 -42.6 31.95 -42.5 Q-7.9 -42.15 -47.85 -42.55 L-50.4 -42.95 -50.5 -43.15 -50.5 -43.35 -50.45 -43.5 -50.3 -43.65 -50.1 -43.7 -49.1 -43.8 Q-35.7 -44.25 -22.3 -44.15 L-17.55 -44.15 13.45 -44.15 30.95 -44.1 34.7 -44.15" fill="#333333" fill-rule="evenodd" stroke="none"/>
    <path d="M-9.3 -3.15 L-9.0 -3.0 -8.8 -2.8 -8.7 -2.65 -8.7 -2.45 -8.75 -2.25 -8.85 -2.1 -9.05 -1.95 -9.3 -1.9 -23.8 -2.0 -24.15 -2.15 -24.3 -2.35 -24.3 -2.5 -24.3 -2.7 -24.15 -2.9 -23.8 -3.0 -10.8 -3.15 -9.3 -3.15" fill="#333333" fill-rule="evenodd" stroke="none"/>
    <path d="M-23.5 -3.1 L-23.45 -2.9 -23.4 -2.7 -23.3 -2.5 -23.2 1.45 -23.2 5.55 -23.2 8.0 -23.25 8.2 -23.3 8.35 -23.35 8.55 -23.45 8.95 -23.5 9.05 -23.55 9.1 -23.8 9.2 -24.15 9.05 -24.25 8.85 -24.25 8.7 -24.25 8.5 -24.4 8.3 -24.5 4.2 -24.45 -0.15 -24.25 -2.95 -24.15 -3.1 -24.05 -3.1 -23.8 -3.15 -23.8 -3.2 -23.5 -3.1" fill="#333333" fill-rule="evenodd" stroke="none"/>
    <path d="M-8.7 7.85 L-8.45 8.05 -8.35 8.25 -8.3 8.45 -8.3 8.6 -8.4 8.8 -8.5 9.0 -8.6 9.1 Q-15.8 9.65 -23.05 9.2 L-23.3 9.25 -23.55 9.3 -23.8 9.35 -24.2 9.25 -24.35 9.05 -24.45 8.85 -24.45 8.7 -24.4 8.5 -24.25 8.3 -24.05 8.2 -23.8 8.1 -23.25 7.95 -22.8 7.8 -18.05 7.7 -13.05 7.6 -9.55 7.7 -8.7 7.85" fill="#333333" fill-rule="evenodd" stroke="none"/>
    <path d="M-9.0 -2.9 L-8.95 -2.7 -8.95 -2.5 -8.95 -2.35 -8.85 -2.15 -8.7 -1.95 -8.6 -1.75 -8.55 -1.6 -8.5 -1.4 -8.35 -1.2 -8.25 -1.0 -8.15 -0.8 -8.05 -0.65 -7.8 2.15 -7.75 5.2 -7.7 7.25 -7.75 7.45 -7.8 7.6 -7.95 7.8 -8.1 8.0 -8.55 8.1 -9.0 8.0 -9.25 7.8 -9.35 7.6 -9.35 4.8 -9.25 1.6 -9.1 -0.45 -9.2 -0.65 -9.3 -0.8 -9.35 -1.0 -9.45 -1.4 -9.55 -1.75 -9.7 -1.95 -9.7 -2.15 -9.7 -2.35 -9.7 -2.5 -9.7 -2.7 -9.7 -2.9 -9.55 -3.0 -9.5 -3.05 -9.3 -3.1 -9.2 -3.1 -9.0 -2.9" fill="#333333" fill-rule="evenodd" stroke="none"/>
    <path d="M-19.3 9.55 L-19.35 9.35 -19.35 9.2 -19.35 9.0 -19.25 8.8 -18.85 8.5 -18.55 8.45 -13.05 8.3 -9.3 8.3 -8.85 8.45 -8.6 8.6 -8.5 8.8 -8.45 9.0 -8.4 9.2 -8.4 9.35 -8.45 9.55 -8.55 9.75 -8.7 9.95 -8.85 10.05 -9.0 10.1 -18.55 10.05 -19.0 9.95 -19.2 9.75 -19.3 9.55" fill="#333333" fill-rule="evenodd" stroke="none"/>
    <path d="M-7.8 0.25 L-7.45 0.35 -7.25 0.55 -7.1 0.75 -6.9 3.55 -6.8 6.75 -6.8 9.0 -6.85 9.2 -6.95 9.35 -7.0 9.55 -7.2 9.75 -7.3 9.85 -7.45 9.9 -7.8 10.0 -8.3 9.85 Q-8.45 9.8 -8.55 9.7 L-8.65 9.5 -8.75 9.3 -8.8 6.3 -8.65 3.1 -8.55 0.85 -8.5 0.7 -8.35 0.5 -8.25 0.35 -8.1 0.3 -7.8 0.25" fill="#333333" fill-rule="evenodd" stroke="none"/>
    <path d="M-15.2 5.45 L-15.1 5.55 -15.05 5.65 -15.0 5.75 -14.9 5.9 -14.75 6.1 -14.7 6.2 -14.55 6.3 -14.45 6.4 -14.4 6.5 -14.35 6.65 -14.25 6.75 -14.2 6.85 -13.55 7.8 -12.75 8.8 -12.3 9.5 -12.3 9.6 -12.25 9.7 -12.35 9.7 -12.45 9.75 -12.55 9.75 -12.7 9.7 -12.8 9.6 -13.0 9.5 -13.2 9.35 -13.3 9.25 -13.4 9.15 -13.5 9.05 -13.6 8.85 -13.65 8.75 -13.7 8.7 -14.05 8.3 -14.35 7.95 -14.55 7.65 -14.55 7.55 -14.6 7.45 -14.65 7.35 -14.7 7.25 -14.75 7.2 -14.75 7.1 -14.8 7.0 -14.85 6.9 -14.9 6.8 -14.95 6.7 -15.0 6.6 -15.0 6.5 -15.05 6.45 -15.15 6.35 -15.15 6.25 -15.2 6.15 -15.2 6.05 -15.2 5.95 -15.2 5.85 -15.25 5.75 -15.25 5.7 -15.3 5.6 -15.3 5.5 -15.2 5.45" fill="#333333" fill-rule="evenodd" stroke="none"/>
    <path d="M-11.8 5.7 L-11.4 6.25 -11.4 6.35 -11.35 6.45 -11.35 6.55 -11.35 6.65 -11.35 6.75 -11.4 6.8 -11.5 6.95 -11.65 6.95 -11.85 6.75 -12.0 6.55 -12.25 6.25 -12.45 5.95 -12.75 5.6 -13.0 5.15 -13.05 5.05 -13.15 4.95 -13.3 4.85 -13.35 4.75 -13.35 4.65 -13.35 4.6 -13.3 4.5 -13.25 4.4 -13.15 4.4 -13.05 4.4 -13.05 4.35 -12.85 4.4 -12.8 4.4 -12.6 4.5 -12.15 5.05 -11.8 5.7" fill="#333333" fill-rule="evenodd" stroke="none"/>
    <path d="M6.1 10.15 L6.15 10.5 6.2 10.8 6.25 10.85 7.0 10.9 7.5 10.9 8.5 11.15 9.0 11.55 9.2 11.9 9.4 12.25 9.55 12.65 9.6 13.05 9.55 13.4 9.4 13.8 9.2 14.15 9.0 14.55 8.5 14.9 7.6 15.3 Q7.4 15.4 7.25 15.55 L6.45 15.65 4.9 16.05 4.7 16.3 4.55 16.65 4.2 17.05 3.95 17.3 3.7 17.4 2.95 17.5 2.45 17.55 1.35 17.3 0.7 16.9 0.35 16.55 0.0 16.15 -0.3 15.8 -0.55 15.4 -0.6 15.65 -0.65 16.05 -0.65 16.4 -0.65 16.8 -0.8 17.15 -1.05 17.55 -1.3 17.9 -1.65 18.15 -1.9 18.25 -2.55 18.4 -3.05 18.4 -3.9 18.15 -4.4 17.75 -4.8 17.4 -5.05 17.3 -5.4 17.4 -7.05 17.45 Q-8.55 17.4 -9.9 16.65 L-10.15 16.3 -10.35 15.9 -10.4 15.55 -10.4 15.15 -10.3 14.8 -10.15 14.4 -9.8 14.05 -9.05 13.8 -8.4 14.05 -7.8 14.4 -7.05 14.55 -6.4 14.3 -6.2 13.9 -6.05 13.55 -6.0 13.15 -5.9 12.8 -5.7 12.4 -5.55 12.05 -5.15 11.65 -4.65 11.4 -4.05 11.3 -3.45 11.2 -3.15 11.05 -3.05 10.65 -2.95 10.25 -2.9 9.9 -2.9 9.55 -2.75 9.2 -2.4 8.8 -1.9 8.4 -1.05 8.2 -1.05 8.15 -0.55 8.15 0.35 8.4 0.85 8.8 1.05 9.15 1.2 9.55 1.3 9.9 1.35 10.3 1.35 10.4 1.45 10.15 1.6 9.8 1.85 9.4 2.1 9.05 2.45 8.8 2.75 8.65 3.25 8.55 3.95 8.4 4.95 8.65 5.45 9.05 5.7 9.4 5.85 9.75 6.1 10.15" fill="#333333" fill-rule="evenodd" stroke="none"/>
    <path d="M13.1 4.15 L13.35 4.5 13.6 4.9 13.5 5.3 13.45 5.65 13.4 6.05 13.35 6.4 13.35 6.75 13.3 7.15 13.1 7.55 12.95 7.7 12.5 7.9 10.5 7.9 9.85 7.65 9.6 7.3 9.65 6.9 9.7 6.5 9.75 6.15 9.8 5.8 10.1 5.4 10.75 5.15 11.0 4.9 11.35 4.5 11.75 4.15 12.45 3.95 12.5 3.9 13.1 4.15" fill="#333333" fill-rule="evenodd" stroke="none"/>
    <path d="M9.4 24.7 L9.45 24.8 9.45 24.9 9.5 25.0 9.55 25.1 9.6 25.2 9.7 25.3 9.75 25.35 9.8 25.45 9.8 25.55 9.8 25.65 9.85 25.75 9.85 25.85 10.2 26.4 10.7 27.05 10.95 27.35 10.95 27.4 10.9 27.55 10.8 27.55 10.7 27.55 10.55 27.6 10.4 27.55 9.85 26.95 9.45 26.4 9.25 26.1 9.2 26.0 9.2 25.85 9.15 25.65 9.15 25.55 9.1 25.45 9.05 25.35 9.0 25.2 9.0 25.0 8.95 24.9 9.0 24.8 9.05 24.7 9.2 24.65 9.4 24.7" fill="#333333" fill-rule="evenodd" stroke="none"/>
    <path d="M9.8 22.8 L9.8 22.75 9.95 22.85 10.0 22.95 10.05 23.0 10.1 23.1 10.15 23.2 10.2 23.3 10.2 23.4 10.25 23.6 10.3 23.75 10.3 23.85 10.35 23.95 10.45 24.05 10.5 24.15 10.6 24.35 10.7 24.5 10.75 24.6 10.8 24.7 10.8 24.8 10.9 24.9 11.0 25.0 11.1 25.1 11.15 25.2 11.15 25.25 11.15 25.35 11.1 25.4 10.95 25.45 10.8 25.4 10.7 25.3 10.6 25.2 10.4 25.1 10.3 25.0 10.25 24.95 10.2 24.85 10.2 24.75 10.15 24.65 10.05 24.55 10.0 24.45 9.95 24.35 9.95 24.25 9.9 24.2 9.85 24.1 9.75 23.8 9.7 23.45 9.6 23.05 9.6 22.95 9.65 22.85 9.7 22.8 9.8 22.8" fill="#333333" fill-rule="evenodd" stroke="none"/>
    <path d="M13.15 24.35 L13.3 24.45 13.45 24.5 13.7 24.8 13.9 25.1 14.05 25.35 14.05 25.55 14.1 25.65 14.15 25.75 14.05 25.8 13.95 25.8 13.8 25.75 13.65 25.7 13.5 25.5 13.25 25.25 13.05 25.05 12.95 24.95 12.8 24.85 12.65 24.75 12.45 24.6 12.3 24.4 12.15 24.2 12.05 24.15 11.9 24.1 11.85 24.0 11.8 23.9 11.85 23.8 11.9 23.7 12.05 23.65 12.3 23.65 12.3 23.6 12.45 23.7 12.65 23.85 12.8 24.05 13.0 24.25 13.15 24.35" fill="#333333" fill-rule="evenodd" stroke="none"/>
    <path d="M-14.85 23.0 L-14.8 23.1 -14.75 23.2 -14.8 23.25 -14.85 23.35 -14.95 23.55 -15.0 23.65 -15.4 23.95 -15.7 24.3 -15.9 24.5 -15.95 24.6 -16.0 24.7 -16.0 24.75 -16.1 24.85 -16.25 24.85 -16.35 24.75 -16.4 24.7 -16.45 24.6 -16.45 24.5 -16.45 24.4 -16.4 24.3 -16.4 24.2 -16.4 24.1 -16.2 23.95 -16.0 23.65 -15.75 23.35 -15.6 23.25 -15.45 23.2 -15.4 23.1 -15.35 23.0 -15.25 22.9 -15.1 22.85 -14.9 22.9 -14.85 23.0" fill="#333333" fill-rule="evenodd" stroke="none"/>
    <path d="M-12.8 22.0 L-12.75 22.1 -12.7 22.2 -12.7 22.3 -12.75 22.4 -12.8 22.5 -12.85 22.6 -12.85 22.7 -12.9 22.75 -13.25 23.25 -13.75 23.7 -13.9 23.9 -13.9 24.0 -13.95 24.1 -14.0 24.15 -14.1 24.2 -14.2 24.2 -14.4 24.15 -14.5 24.05 -14.5 23.95 -14.55 23.85 -14.6 23.75 -14.55 23.7 -14.55 23.6 -14.5 23.5 -14.45 23.4 -14.4 23.3 -13.85 22.75 -13.25 22.2 -13.15 22.0 -13.05 22.0 -12.95 22.0 -12.95 21.95 -12.8 22.0" fill="#333333" fill-rule="evenodd" stroke="none"/>
    <path d="M39.4 -47.65 L39.5 -47.55 39.6 -47.45 39.6 -46.4 39.7 -45.3 39.75 -44.55 39.8 -44.45 39.85 -44.35 39.9 -44.25 39.9 -44.15 39.85 -44.1 39.85 -44.0 39.75 -43.85 39.65 -43.8 39.5 -43.75 39.3 -43.85 39.2 -43.95 39.15 -44.0 39.1 -44.1 39.1 -44.2 39.0 -44.3 38.9 -45.3 38.9 -46.55 38.95 -47.4 38.95 -47.5 39.0 -47.6 39.1 -47.65 39.15 -47.65 39.25 -47.7 39.4 -47.65" fill="#333333" fill-rule="evenodd" stroke="none"/>
    <path d="M41.1 -48.05 L41.15 -47.95 41.2 -47.85 41.25 -47.75 41.3 -47.7 41.35 -47.6 41.35 -47.5 41.4 -47.4 41.45 -47.3 41.5 -47.2 41.55 -47.1 41.6 -46.85 41.7 -46.45 41.85 -46.1 41.9 -46.0 42.0 -45.9 42.0 -45.8 42.1 -45.7 42.1 -45.6 42.1 -45.5 42.1 -45.45 42.1 -45.35 42.1 -45.25 42.1 -45.15 42.15 -45.05 42.15 -44.95 42.15 -44.85 42.15 -44.75 42.2 -44.65 42.2 -44.6 42.2 -44.5 42.1 -44.4 42.0 -44.45 41.85 -44.5 41.75 -44.6 41.65 -44.7 41.55 -44.75 41.5 -44.85 41.5 -44.95 41.45 -45.05 41.45 -45.15 41.45 -45.25 41.45 -45.35 41.45 -45.45 41.45 -45.5 41.4 -45.6 41.3 -45.7 41.25 -45.8 41.05 -46.35 40.9 -47.0 40.8 -47.6 40.75 -47.7 40.7 -47.75 40.75 -47.85 40.75 -47.95 40.85 -48.0 40.9 -48.05 41.0 -48.05 41.1 -48.05" fill="#333333" fill-rule="evenodd" stroke="none"/>
    <path d="M47.25 38.95 L47.35 39.05 47.4 39.15 47.45 39.25 47.5 39.35 47.5 39.45 47.45 39.55 47.45 39.6 47.35 39.7 47.3 39.8 47.2 39.85 47.15 39.9 46.95 39.95 46.85 39.95 46.6 39.85 46.4 39.8 46.35 39.7 46.2 39.6 45.95 39.5 45.65 39.2 45.25 38.8 44.8 38.45 44.5 38.3 44.4 38.25 44.15 38.15 44.1 38.05 44.05 37.95 44.05 37.85 44.05 37.8 44.15 37.7 44.25 37.6 44.35 37.6 44.45 37.55 44.6 37.55 44.85 37.6 44.95 37.6 45.15 37.7 45.35 37.75 45.5 37.85 45.65 37.95 45.75 38.05 45.85 38.15 45.95 38.25 46.25 38.45 46.4 38.5 46.6 38.6 46.85 38.7 47.0 38.8 47.1 38.85 47.25 38.95" fill="#333333" fill-rule="evenodd" stroke="none"/>
    <path d="M44.1 35.0 L44.25 35.05 44.45 35.1 44.6 35.1 45.05 35.25 45.45 35.35 45.65 35.4 45.75 35.5 45.8 35.6 45.85 35.7 45.85 35.75 45.85 35.85 45.8 35.95 45.7 36.05 45.6 36.1 45.45 36.15 45.2 36.1 44.95 36.05 44.5 35.9 44.4 35.85 44.1 35.8 43.45 35.7 43.15 35.6 43.1 35.5 43.1 35.45 43.1 35.35 43.1 35.25 43.15 35.2 43.35 35.1 43.6 35.1 44.1 35.05 44.1 35.0" fill="#333333" fill-rule="evenodd" stroke="none"/>
    <path d="M-46.15 5.6 L-46.15 5.7 -46.25 5.8 -46.45 5.9 -46.6 6.0 -47.9 6.95 -49.15 7.75 -49.85 8.25 -49.95 8.35 -50.0 8.4 -50.05 8.4 -50.2 8.45 -50.4 8.4 -50.45 8.3 -50.5 8.2 -50.5 8.05 -50.4 7.95 -50.3 7.85 -50.25 7.75 -50.2 7.65 -48.65 6.65 -47.05 5.75 -46.2 5.5 -46.15 5.6" fill="#333333" fill-rule="evenodd" stroke="none"/>
    <path d="M-44.2 6.1 L-44.3 6.2 -44.35 6.3 -44.8 6.6 -45.3 6.9 -45.45 6.95 -45.55 7.05 -45.65 7.15 -45.8 7.25 -45.9 7.3 -45.95 7.35 -46.1 7.35 -46.35 7.3 -46.4 7.2 -46.45 7.1 -46.5 7.05 -46.5 6.95 -46.45 6.85 -46.4 6.75 -46.3 6.65 -46.0 6.45 -45.9 6.35 -45.85 6.3 -45.15 6.0 -44.6 5.65 -44.55 5.6 -44.2 5.45 -43.9 5.3 -43.65 5.15 -43.45 5.1 -43.35 5.05 -43.3 5.0 -43.2 5.0 -43.15 5.0 -43.05 5.1 -43.15 5.2 -43.25 5.25 -43.4 5.35 -43.5 5.45 -43.6 5.55 -43.7 5.65 -43.75 5.75 -43.9 5.85 -44.05 5.95 -44.1 6.0 -44.2 6.1" fill="#333333" fill-rule="evenodd" stroke="none"/>
    <path d="M9.2 -40.0 Q10.25 -41.05 11.75 -41.05 13.25 -41.05 14.3 -40.0 15.35 -38.95 15.35 -37.5 15.35 -36.05 14.3 -35.0 13.25 -33.95 11.75 -33.95 10.25 -33.95 9.2 -35.0 8.15 -36.05 8.15 -37.5 8.15 -38.95 9.2 -40.0 M9.9 -39.4 Q9.2 -38.7 9.2 -37.7 9.2 -36.7 9.9 -36.0 10.6 -35.3 11.6 -35.3 12.6 -35.3 13.3 -36.0 14.0 -36.7 14.0 -37.7 14.0 -38.7 13.3 -39.4 12.6 -40.1 11.6 -40.1 10.6 -40.1 9.9 -39.4" fill="#333333" fill-rule="evenodd" stroke="none"/>
    <path d="M1.35 -41.05 Q2.85 -41.05 3.95 -39.95 4.95 -38.95 4.95 -37.5 4.95 -36.0 3.95 -34.95 2.85 -33.95 1.35 -33.95 -0.1 -33.95 -1.15 -34.95 -2.25 -36.0 -2.25 -37.5 -2.25 -38.95 -1.15 -39.95 -0.1 -41.05 1.35 -41.05 M1.25 -39.85 Q0.3 -39.85 -0.45 -39.15 -1.15 -38.45 -1.15 -37.5 -1.15 -36.55 -0.45 -35.8 0.3 -35.1 1.25 -35.1 2.25 -35.1 2.95 -35.8 3.7 -36.55 3.7 -37.5 3.7 -38.45 2.95 -39.15 2.25 -39.85 1.25 -39.85" fill="#333333" fill-rule="evenodd" stroke="none"/>
    <path d="M-42.45 -20.5 Q-42.45 -21.4 -43.45 -22.2 L-43.75 -22.5 -43.5 -22.9 Q-41.55 -22.45 -41.45 -20.55 L-41.5 -19.95 Q-43.4 -18.65 -45.05 -20.0 -45.1 -20.8 -44.65 -21.45 L-44.4 -21.65 -44.2 -21.35 -44.25 -21.15 -44.4 -20.9 Q-44.15 -20.2 -43.3 -20.2 L-42.85 -20.2 -42.45 -20.5" fill="#333333" fill-rule="evenodd" stroke="none"/>
    <path d="M39.7 -22.35 L39.75 -22.4 39.85 -22.45 40.0 -22.5 40.1 -22.55 40.1 -22.6 40.25 -22.6 40.25 -22.65 40.45 -22.6 40.75 -22.6 41.0 -22.55 41.6 -22.15 42.25 -21.7 42.7 -21.05 42.7 -20.95 42.7 -20.85 42.7 -20.75 42.7 -20.65 42.7 -20.55 42.7 -20.45 42.7 -20.4 42.7 -20.3 42.65 -20.2 42.6 -20.1 42.55 -20.0 42.5 -19.9 42.45 -19.8 42.3 -19.65 42.2 -19.55 42.1 -19.45 41.75 -19.35 41.5 -19.3 40.0 -19.3 39.8 -19.35 39.7 -19.45 39.55 -19.55 39.4 -19.65 39.3 -19.75 39.25 -19.8 39.25 -19.9 39.2 -20.0 39.2 -20.1 39.2 -20.2 39.2 -20.3 39.2 -20.4 39.2 -20.45 39.2 -20.55 39.25 -20.65 39.25 -20.75 39.3 -20.85 39.35 -20.95 39.4 -21.05 39.45 -21.15 39.5 -21.2 39.6 -21.3 39.7 -21.4 39.85 -21.45 40.0 -21.45 40.2 -21.4 40.25 -21.3 40.3 -21.2 40.25 -21.15 40.2 -21.05 40.1 -20.95 40.0 -20.85 40.0 -20.75 39.95 -20.65 39.9 -20.55 39.85 -20.45 39.85 -20.4 39.85 -20.3 39.95 -20.2 40.05 -20.15 41.6 -20.15 41.65 -20.25 41.75 -20.35 41.75 -20.45 41.8 -20.55 41.85 -20.65 41.85 -20.7 41.8 -20.8 41.7 -20.9 41.55 -21.1 41.35 -21.3 41.1 -21.5 41.0 -21.55 40.85 -21.65 40.7 -21.75 40.55 -21.85 40.45 -21.9 40.25 -21.95 40.05 -22.0 40.0 -22.05 40.0 -22.1 39.75 -22.15 39.7 -22.25 39.7 -22.35" fill="#333333" fill-rule="evenodd" stroke="none"/>
    <path d="M-44.45 42.2 L-44.4 42.1 -44.35 42.05 -44.2 41.95 -43.95 41.95 -43.65 42.0 -43.55 42.1 -43.35 42.15 -43.3 42.1 -43.2 42.0 -42.95 41.95 -42.7 41.95 -42.5 42.0 -42.3 42.1 -42.2 42.15 -42.05 42.2 -41.9 42.2 -41.6 42.3 -41.45 42.4 -41.4 42.5 -41.35 42.6 -41.3 42.7 -41.3 42.8 -41.25 42.85 -41.25 42.95 -41.2 43.05 -41.2 43.15 -41.25 43.25 -41.25 43.35 -41.25 43.45 -41.25 43.55 -41.25 43.6 -41.3 43.7 -41.3 43.8 -41.35 43.9 -41.35 44.0 -41.4 44.1 -41.45 44.15 -41.5 44.3 -41.65 44.45 -41.7 44.55 -41.8 44.65 -41.9 44.7 -42.05 44.75 -42.2 44.75 -42.8 44.85 -43.75 44.7 -43.95 44.6 -44.05 44.55 -44.35 44.25 -44.55 44.05 -44.6 43.95 -44.7 43.85 -44.7 43.8 -44.75 43.7 -44.8 43.6 -44.8 43.5 -44.8 43.4 -44.8 43.3 -44.8 43.1 -44.8 43.05 -44.8 42.95 -44.8 42.85 -44.75 42.75 -44.7 42.65 -44.65 42.55 -44.6 42.45 -44.55 42.35 -44.5 42.3 -44.45 42.2 M-42.75 42.9 L-42.95 42.85 -43.2 42.75 -43.3 42.7 -43.35 42.6 -43.4 42.5 -43.4 42.4 -43.45 42.35 -43.55 42.35 -43.7 42.35 -44.0 42.4 -44.05 42.5 -44.05 42.6 -44.1 42.7 -44.1 42.75 -44.15 42.85 -44.15 42.95 -44.15 43.05 -44.15 43.15 -44.15 43.25 -44.1 43.35 -44.1 43.45 -44.05 43.55 -44.0 43.6 -43.8 43.8 Q-43.7 43.9 -43.55 43.95 L-43.45 44.0 -42.35 43.95 -42.3 43.85 -42.3 43.75 -42.2 43.55 -42.2 43.35 -42.2 43.3 -42.25 43.2 -42.45 43.1 -42.6 43.0 -42.75 42.9" fill="#333333" fill-rule="evenodd" stroke="none"/>
    <path d="M41.3 42.15 L41.9 42.6 42.0 42.7 42.05 42.8 42.05 42.9 42.1 43.1 42.1 43.25 42.1 43.45 42.1 43.75 42.05 44.0 42.0 44.2 41.95 44.3 41.9 44.4 41.8 44.5 41.7 44.55 41.4 44.75 41.25 44.85 40.1 44.8 39.15 44.5 39.05 44.4 38.95 44.3 38.85 44.2 38.8 44.1 38.8 44.0 38.85 43.95 38.85 43.85 38.85 43.75 38.85 43.65 38.85 43.55 38.9 43.45 38.9 43.35 39.0 43.25 39.05 43.2 39.2 43.15 39.35 43.2 39.65 43.25 39.75 43.35 39.75 43.45 39.7 43.55 39.55 43.65 39.55 43.75 39.6 43.8 39.7 43.85 39.9 43.95 40.1 44.0 40.45 43.95 41.05 43.9 41.1 43.85 41.1 43.75 41.1 43.65 41.1 43.55 41.1 43.45 41.1 43.35 41.05 43.25 41.0 43.15 40.9 43.1 40.75 43.0 40.65 42.9 40.3 42.7 40.05 42.6 39.85 42.55 39.65 42.5 39.55 42.4 39.5 42.35 39.45 42.25 39.45 42.15 39.4 42.05 39.4 41.95 39.45 41.85 39.45 41.75 39.55 41.7 39.7 41.6 39.95 41.55 39.95 41.5 40.65 41.75 41.3 42.15" fill="#333333" fill-rule="evenodd" stroke="none"/>
    <path d="M19.9 -2.1 L19.95 -2.2 20.0 -2.25 20.15 -2.35 20.4 -2.35 20.7 -2.3 20.8 -2.2 21.0 -2.15 21.05 -2.2 21.15 -2.3 21.4 -2.35 21.65 -2.35 21.85 -2.3 22.05 -2.2 22.15 -2.15 22.3 -2.1 22.45 -2.1 22.75 -2.0 22.9 -1.9 22.95 -1.8 23.0 -1.7 23.05 -1.6 23.05 -1.5 23.1 -1.45 23.1 -1.35 23.15 -1.25 23.15 -1.15 23.1 -1.05 23.1 -0.95 23.1 -0.85 23.1 -0.75 23.1 -0.7 23.05 -0.6 23.05 -0.5 23.0 -0.4 23.0 -0.3 22.95 -0.2 22.9 -0.15 22.85 0.0 22.7 0.15 22.65 0.25 22.55 0.35 22.45 0.4 22.3 0.45 22.15 0.45 21.55 0.55 20.6 0.4 20.4 0.3 20.3 0.25 20.0 -0.05 19.8 -0.25 19.75 -0.35 19.65 -0.45 19.65 -0.5 19.6 -0.6 19.55 -0.7 19.55 -0.8 19.55 -0.9 19.55 -1.0 19.55 -1.2 19.55 -1.25 19.55 -1.35 19.55 -1.45 19.6 -1.55 19.65 -1.65 19.7 -1.75 19.75 -1.85 19.8 -1.95 19.85 -2.0 19.9 -2.1 M21.4 -1.45 L21.15 -1.55 21.05 -1.6 21.0 -1.7 20.95 -1.8 20.95 -1.9 20.9 -1.95 20.8 -1.95 20.65 -1.95 20.35 -1.9 20.3 -1.8 20.3 -1.7 20.25 -1.6 20.25 -1.55 20.2 -1.45 20.2 -1.35 20.2 -1.25 20.2 -1.15 20.2 -1.05 20.25 -0.95 20.25 -0.85 20.3 -0.75 20.35 -0.7 20.55 -0.5 20.8 -0.35 20.9 -0.3 22.0 -0.35 22.05 -0.45 22.05 -0.55 22.15 -0.75 22.15 -0.95 22.15 -1.0 22.1 -1.1 21.9 -1.2 21.75 -1.3 21.6 -1.4 21.4 -1.45" fill="#333333" fill-rule="evenodd" stroke="none"/>
    <path d="M19.9 3.9 L19.95 3.8 20.0 3.75 20.15 3.65 20.4 3.65 20.7 3.7 20.8 3.8 21.0 3.85 21.05 3.8 21.15 3.7 21.4 3.65 21.65 3.65 21.85 3.7 22.05 3.8 22.15 3.85 22.3 3.9 22.45 3.9 22.75 4.0 22.9 4.1 22.95 4.2 23.0 4.3 23.05 4.4 23.05 4.5 23.1 4.55 23.1 4.65 23.15 4.75 23.15 4.85 23.1 4.95 23.1 5.05 23.1 5.15 23.1 5.25 23.1 5.3 23.05 5.4 23.05 5.5 23.0 5.6 23.0 5.7 22.95 5.8 22.9 5.85 22.85 6.0 22.7 6.15 22.65 6.25 22.55 6.35 22.45 6.4 22.3 6.45 22.15 6.45 21.55 6.55 20.6 6.4 20.4 6.3 20.3 6.25 20.0 5.95 19.8 5.75 19.75 5.65 19.65 5.55 19.65 5.5 19.6 5.4 19.55 5.3 19.55 5.2 19.55 5.1 19.55 5.0 19.55 4.8 19.55 4.75 19.55 4.65 19.55 4.55 19.6 4.45 19.65 4.35 19.7 4.25 19.75 4.15 19.8 4.05 19.85 4.0 19.9 3.9 M21.6 4.6 L21.4 4.55 21.15 4.45 21.05 4.4 21.0 4.3 20.95 4.2 20.95 4.1 20.9 4.05 20.8 4.05 20.65 4.05 20.35 4.1 20.3 4.2 20.3 4.3 20.25 4.4 20.25 4.45 20.2 4.55 20.2 4.65 20.2 4.75 20.2 4.85 20.2 4.95 20.25 5.05 20.25 5.15 20.3 5.25 20.35 5.3 20.55 5.5 20.8 5.65 20.9 5.7 22.0 5.65 22.05 5.55 22.05 5.45 22.15 5.25 22.15 5.05 22.15 5.0 22.1 4.9 21.9 4.8 21.75 4.7 21.6 4.6" fill="#333333" fill-rule="evenodd" stroke="none"/>
    <path d="M0.85 -37.4 L0.45 -37.35 -1.15 -37.3 -1.35 -37.35 -1.45 -37.45 -1.55 -37.55 -1.55 -37.65 -1.55 -37.75 -1.55 -37.85 -1.55 -37.9 -1.45 -38.0 -1.35 -38.1 -1.15 -38.15 -0.4 -38.15 0.45 -38.1 1.3 -37.85 1.4 -37.75 1.45 -37.65 1.45 -37.6 1.4 -37.5 1.35 -37.45 1.2 -37.4 1.0 -37.45 0.85 -37.4" fill="#333333" fill-rule="evenodd" stroke="none"/>
    <path d="M7.05 -34.95 L7.35 -34.25 7.05 -33.55 Q6.75 -33.25 6.35 -33.25 5.95 -33.25 5.65 -33.55 5.35 -33.85 5.35 -34.25 5.35 -34.65 5.65 -34.95 L6.35 -35.25 7.05 -34.95" fill="#333333" fill-rule="evenodd" stroke="none"/>
    <path d="M23.1 -39.95 L23.05 -40.05 23.0 -40.15 23.05 -40.25 23.1 -40.35 23.25 -40.4 39.6 -40.55 40.25 -40.55 40.45 -40.5 40.6 -40.4 40.65 -40.3 40.7 -40.2 40.65 -40.1 40.65 -40.0 40.6 -39.9 40.5 -39.85 40.45 -39.75 23.25 -39.9 23.1 -39.95" fill="#333333" fill-rule="evenodd" stroke="none"/>
    <path d="M34.6 -33.4 L34.75 -33.3 34.9 -33.15 35.05 -32.95 35.2 -32.75 35.25 -32.65 35.3 -32.6 35.35 -32.5 35.45 -32.2 35.7 -31.85 35.85 -31.45 35.95 -31.35 36.05 -31.25 36.15 -31.15 36.2 -31.1 36.25 -31.0 36.25 -30.9 36.25 -30.8 36.2 -30.7 36.0 -30.65 35.85 -30.65 35.65 -30.7 35.5 -30.8 35.35 -30.9 35.3 -31.0 35.25 -31.05 35.2 -31.15 35.15 -31.25 35.15 -31.35 35.05 -31.55 34.95 -31.75 34.85 -31.9 34.75 -32.0 34.75 -32.1 34.75 -32.2 34.75 -32.3 34.7 -32.4 34.65 -32.5 34.6 -32.55 34.55 -32.65 34.5 -32.75 34.5 -32.85 34.4 -32.95 34.35 -33.05 34.35 -33.15 34.35 -33.25 34.35 -33.3 34.45 -33.35 34.5 -33.4 34.6 -33.4" fill="#333333" fill-rule="evenodd" stroke="none"/>
    <path d="M35.4 -35.25 L35.5 -35.25 35.6 -35.3 35.75 -35.25 36.25 -34.5 Q36.5 -34.05 36.9 -33.75 L37.3 -33.35 37.35 -33.25 37.4 -33.15 37.4 -33.1 37.45 -33.0 37.3 -32.9 37.1 -32.85 36.95 -32.9 36.85 -33.0 36.65 -33.1 36.55 -33.2 36.35 -33.4 36.1 -33.55 35.85 -33.85 35.6 -34.2 35.4 -34.5 35.4 -34.6 35.35 -34.7 35.35 -34.8 35.3 -34.9 35.3 -35.0 35.3 -35.1 35.35 -35.15 35.4 -35.25" fill="#333333" fill-rule="evenodd" stroke="none"/>
    <path d="M-34.45 -33.6 L-34.35 -33.5 -34.35 -33.4 -34.35 -33.3 -34.4 -33.2 -34.45 -33.15 -35.0 -32.5 -35.4 -31.8 -35.75 -31.15 -35.85 -31.1 -35.95 -31.05 -36.15 -31.15 -36.25 -31.2 -36.3 -31.3 -36.3 -31.4 -36.35 -31.5 -36.35 -31.6 -36.3 -31.7 -36.3 -31.8 -36.2 -31.9 -36.15 -31.95 -36.1 -32.05 -36.1 -32.15 -35.75 -32.75 -35.3 -33.25 -34.85 -33.7 -34.7 -33.75 -34.5 -33.7 -34.45 -33.6" fill="#333333" fill-rule="evenodd" stroke="none"/>
    <path d="M-32.25 -34.45 L-32.05 -34.65 -31.9 -34.75 -31.75 -34.8 -31.75 -34.9 -31.7 -35.0 -31.55 -35.05 -31.5 -35.05 -31.4 -34.95 -31.35 -34.85 -31.35 -34.75 -31.35 -34.65 -31.35 -34.55 -31.65 -34.25 -31.9 -34.0 -32.0 -33.8 -32.2 -33.6 -32.3 -33.45 -32.45 -33.25 -32.65 -33.2 -32.75 -33.3 -32.8 -33.4 -32.85 -33.5 -32.85 -33.6 -32.8 -33.7 -32.75 -33.8 -32.75 -33.9 -32.5 -34.15 -32.25 -34.45" fill="#333333" fill-rule="evenodd" stroke="none"/>
  </g>
</svg>
