<?xml version="1.0" encoding="UTF-8" standalone="no"?>
<svg xmlns:xlink="http://www.w3.org/1999/xlink" height="46.55px" width="83.0px" xmlns="http://www.w3.org/2000/svg">
  <g transform="matrix(1.0, 0.0, 0.0, 1.0, 44.55, 70.9)">
    <path d="M4.25 -70.8 L5.0 -70.85 5.0 -70.9 6.0 -70.9 9.5 -70.65 12.45 -70.15 13.85 -69.7 14.5 -69.55 15.35 -69.25 15.85 -68.9 16.5 -68.45 16.8 -68.0 17.0 -67.65 17.1 -67.2 17.1 -66.8 17.0 -66.45 17.6 -66.0 18.35 -65.55 19.65 -64.35 20.8 -63.25 22.1 -61.9 22.25 -61.55 22.5 -61.1 22.6 -60.85 23.0 -60.7 23.75 -60.55 24.25 -60.4 24.6 -60.3 25.25 -60.1 26.0 -59.9 26.6 -59.45 27.15 -59.1 28.65 -57.9 29.85 -56.2 30.65 -54.55 30.85 -54.2 31.0 -53.75 31.1 -53.35 31.25 -52.9 31.45 -52.5 31.65 -52.1 31.85 -51.75 32.0 -51.3 32.1 -50.9 32.35 -50.45 32.5 -50.1 32.6 -49.65 32.6 -49.25 32.6 -48.0 32.6 -46.8 32.6 -45.55 32.55 -43.55 32.5 -42.75 32.35 -42.3 32.15 -41.85 31.95 -41.5 31.7 -41.1 31.35 -40.65 31.0 -40.3 30.85 -39.85 30.65 -39.4 29.5 -37.3 27.25 -34.95 Q25.55 -33.7 23.5 -33.45 L22.85 -33.05 22.25 -32.6 21.75 -32.2 21.5 -31.95 21.25 -31.85 20.75 -31.65 16.25 -31.8 13.75 -32.4 13.5 -32.45 11.25 -32.4 11.0 -31.95 10.7 -31.55 10.35 -31.1 10.0 -30.75 9.6 -30.3 9.25 -29.95 8.85 -29.5 Q6.3 -27.55 3.25 -26.7 -4.55 -24.75 -11.75 -28.3 L-12.5 -28.65 -12.9 -28.4 -13.05 -28.0 -13.4 -27.6 -13.75 -27.2 -14.15 -26.75 -14.5 -26.4 -15.15 -25.95 -15.75 -25.55 -16.5 -25.15 -17.0 -24.85 -17.25 -24.75 -17.75 -24.6 -18.5 -24.5 -22.55 -24.7 Q-24.15 -25.2 -25.75 -25.85 L-26.4 -26.2 -26.75 -26.65 -27.15 -27.05 -27.75 -27.45 -28.4 -27.85 -28.75 -28.3 -29.1 -28.65 -29.35 -29.1 -29.55 -29.5 -29.75 -29.95 -29.9 -30.3 -30.15 -30.75 -30.25 -31.1 -30.4 -31.55 -30.5 -31.95 -30.55 -32.3 -30.75 -32.65 Q-32.95 -33.2 -34.95 -34.35 -38.2 -36.25 -40.65 -39.15 -42.55 -41.3 -43.85 -44.0 L-44.4 -45.3 -44.5 -45.75 -44.5 -46.1 -44.5 -47.35 -44.4 -48.55 -44.4 -49.8 -44.1 -51.85 -43.9 -52.65 -43.9 -53.1 -43.9 -53.45 -43.75 -53.9 -43.65 -54.3 -43.5 -54.7 -43.3 -55.1 -43.15 -55.55 -42.75 -55.9 -42.5 -56.3 -42.1 -56.75 -41.6 -57.1 -41.15 -57.45 -40.75 -57.55 -40.0 -57.7 -38.5 -58.0 -38.3 -58.35 -38.1 -58.75 -37.5 -60.0 -36.55 -61.25 -35.25 -62.45 -34.65 -62.9 -33.5 -63.15 -32.65 -63.4 -31.5 -63.7 -29.0 -63.7 -28.0 -63.45 -25.25 -63.45 -24.9 -63.8 -24.5 -64.25 -24.15 -64.65 -23.75 -65.1 -23.15 -65.45 -22.0 -65.75 -21.5 -66.0 -21.25 -66.45 -21.0 -66.8 -20.25 -67.65 -19.5 -68.45 -18.75 -69.25 -18.15 -69.7 -17.0 -69.95 -15.15 -70.25 -14.0 -70.55 -4.5 -70.1 -1.0 -69.55 -0.5 -69.25 -0.4 -69.15 0.5 -68.9 1.1 -68.45 1.45 -68.5 2.0 -68.85 2.6 -69.25 3.0 -69.7 3.35 -70.1 3.75 -70.55 4.25 -70.8" fill="#be9a92" fill-opacity="0.3019608" fill-rule="evenodd" stroke="none"/>
    <path d="M8.1 -67.9 L10.0 -67.9 16.55 -67.8 17.45 -67.5 18.15 -67.25 19.8 -67.05 20.6 -66.8 22.45 -66.0 22.85 -65.6 23.3 -65.2 23.85 -64.8 24.45 -64.35 24.8 -64.0 25.15 -63.55 25.5 -63.1 25.75 -62.75 26.1 -62.35 26.65 -61.9 27.15 -61.5 27.45 -61.1 27.75 -60.7 27.95 -60.3 28.2 -59.9 28.4 -59.45 28.75 -58.65 28.9 -58.25 29.0 -57.85 29.0 -57.45 29.2 -57.1 29.85 -56.75 30.75 -56.45 31.55 -56.2 33.1 -55.55 33.8 -55.25 34.35 -54.85 34.85 -54.4 35.55 -53.6 36.1 -52.75 36.85 -51.55 37.75 -49.95 38.1 -49.1 38.25 -48.75 38.35 -48.3 38.45 -47.9 38.45 -47.45 38.45 -47.1 38.45 -46.3 38.45 -45.85 38.45 -45.0 38.45 -44.2 38.45 -43.4 38.35 -42.55 38.2 -42.2 38.0 -41.75 37.65 -40.95 37.4 -40.55 36.95 -39.75 36.25 -38.55 Q35.7 -37.75 34.95 -37.4 L34.5 -37.3 33.8 -37.1 32.85 -36.85 32.75 -36.45 32.5 -36.05 32.25 -35.65 32.05 -35.2 31.8 -34.85 31.45 -34.4 30.85 -34.0 30.55 -33.6 30.15 -33.2 29.6 -32.75 28.9 -32.4 28.2 -31.95 27.75 -31.65 27.5 -31.55 27.05 -31.4 26.35 -31.35 22.0 -31.1 21.05 -30.85 20.8 -30.45 20.0 -29.65 Q17.35 -27.3 14.15 -27.0 9.15 -26.45 4.15 -26.8 3.05 -26.95 2.05 -27.6 L1.7 -28.0 1.3 -28.35 0.2 -29.2 -0.4 -29.65 -1.35 -30.45 -1.8 -30.85 -2.6 -30.85 -3.0 -30.45 -3.3 -30.05 -3.8 -29.65 -4.25 -29.4 -4.7 -29.2 -5.4 -29.15 -10.8 -29.35 -11.5 -29.5 -12.1 -29.95 -12.4 -30.2 -12.65 -30.3 -13.1 -30.45 -13.8 -30.75 -14.5 -31.1 -15.2 -31.55 -15.6 -31.95 -16.05 -32.4 -16.85 -32.75 -17.55 -33.2 -17.95 -33.6 -18.25 -34.0 -18.65 -34.4 -18.95 -34.85 -19.35 -35.2 -19.55 -35.5 -19.65 -35.55 -23.65 -35.85 -25.25 -36.15 Q-26.7 -36.55 -28.05 -37.15 L-28.75 -37.55 -29.15 -37.95 -29.6 -38.35 -30.05 -38.75 -30.4 -39.2 -30.75 -39.55 -31.1 -40.0 -31.45 -40.4 -31.8 -40.85 -31.95 -41.2 -32.05 -41.65 -32.15 -42.0 -32.15 -42.45 -32.15 -42.85 -32.15 -43.65 -32.15 -44.1 -32.15 -44.9 -32.15 -46.1 -32.15 -47.35 -32.15 -48.55 -32.05 -49.0 -31.95 -49.4 -31.8 -49.8 -31.55 -50.2 -31.35 -50.65 -30.85 -51.45 -30.65 -51.85 -30.3 -52.65 -29.95 -53.45 -29.6 -54.3 -29.45 -54.7 -29.15 -55.1 -28.75 -55.55 -28.45 -55.9 -28.05 -56.35 -27.7 -56.75 -27.35 -57.0 -27.15 -57.1 -26.65 -57.25 -23.15 -57.25 -22.25 -57.2 Q-22.05 -57.25 -21.95 -57.35 L-21.6 -57.65 -20.8 -58.5 -20.15 -58.9 -19.55 -59.2 -19.2 -59.3 -18.5 -59.45 -18.05 -59.75 -17.8 -60.1 -17.45 -60.55 -17.35 -60.95 -17.1 -61.35 -16.5 -62.15 -16.05 -62.55 -15.05 -63.45 -14.2 -64.25 Q-13.85 -64.35 -13.6 -64.55 L-12.9 -64.6 -4.95 -64.65 -4.15 -64.65 -3.55 -64.9 -2.75 -65.35 0.2 -66.45 6.25 -67.5 8.1 -67.9" fill="#be9a92" fill-opacity="0.3019608" fill-rule="evenodd" stroke="none"/>
    <path d="M11.5 -63.1 L13.0 -62.9 13.6 -62.45 14.1 -62.05 14.5 -61.65 14.85 -61.2 15.1 -60.85 15.6 -60.0 15.85 -59.65 16.35 -59.2 17.0 -58.75 17.5 -58.35 17.85 -58.0 18.25 -57.55 19.75 -56.8 Q20.35 -56.45 21.0 -56.2 22.45 -55.5 23.7 -54.5 L24.1 -54.2 24.5 -53.75 25.85 -51.75 26.0 -51.3 26.1 -50.9 26.25 -50.45 26.35 -50.1 26.35 -49.65 26.35 -49.25 26.35 -48.85 26.35 -48.45 26.35 -48.0 26.35 -47.65 26.35 -46.8 26.25 -46.4 26.1 -46.0 26.0 -45.55 25.85 -45.2 25.75 -44.75 25.6 -44.35 25.4 -43.95 25.2 -43.55 25.0 -43.1 24.45 -42.35 23.0 -40.65 22.6 -40.3 21.1 -38.65 20.5 -38.2 19.75 -38.0 19.0 -37.85 16.6 -37.45 15.75 -37.3 14.35 -36.85 14.1 -36.45 13.85 -36.05 13.65 -35.6 13.45 -35.2 13.25 -34.85 13.0 -34.4 12.5 -34.0 11.85 -33.6 11.35 -33.2 10.75 -32.75 10.0 -32.4 9.25 -31.95 8.25 -31.65 6.75 -31.3 -2.0 -31.6 -2.75 -31.9 -3.65 -32.2 -4.0 -31.8 -4.3 -31.4 -4.65 -31.0 -5.0 -30.6 Q-5.3 -30.35 -5.65 -30.2 L-6.25 -29.75 -6.9 -29.4 -7.5 -28.95 -8.15 -28.55 -8.5 -28.3 Q-12.1 -27.0 -16.0 -27.9 L-19.7 -28.8 Q-21.55 -29.2 -23.25 -30.1 L-24.75 -30.85 -25.15 -31.3 -25.5 -31.65 -25.9 -32.1 -26.25 -32.5 -26.6 -32.9 -27.15 -33.75 -27.4 -34.1 -27.45 -34.5 -27.65 -34.95 -28.0 -35.4 -28.25 -35.75 -28.5 -36.2 -28.65 -36.55 -28.7 -36.8 -29.0 -36.95 -29.75 -37.1 -30.25 -37.3 -30.5 -37.4 -32.0 -37.55 -32.75 -37.65 -33.25 -37.85 -33.5 -37.95 -34.75 -38.25 -36.75 -38.9 -37.4 -39.3 -37.75 -39.75 -38.15 -40.1 -38.5 -40.55 -38.9 -40.95 -39.25 -41.3 Q-39.85 -41.8 -40.05 -42.55 L-40.25 -43.0 -40.4 -43.4 -40.5 -43.8 -40.65 -44.2 -40.65 -44.65 -40.65 -45.0 -40.65 -45.45 -40.65 -45.85 -40.65 -46.3 -40.65 -47.45 -40.65 -47.9 -40.6 -48.3 -40.5 -49.1 -40.35 -49.5 -40.15 -49.95 -40.0 -50.3 -39.75 -50.75 -39.5 -51.15 -38.4 -52.4 -38.0 -52.8 -37.65 -53.2 -37.25 -53.65 -36.75 -53.9 -36.25 -54.0 -35.6 -54.4 -35.5 -54.7 -35.5 -55.1 -35.4 -55.55 -35.25 -55.9 -35.15 -56.35 -34.9 -56.75 -34.75 -57.1 -34.5 -57.55 -34.2 -58.0 -33.75 -58.75 -32.75 -60.0 -32.4 -60.45 -31.25 -61.65 -30.65 -61.9 Q-30.45 -61.95 -30.25 -62.1 L-29.5 -62.35 -28.75 -62.5 -25.0 -62.75 -23.9 -62.45 -22.5 -62.25 -21.5 -62.2 -21.25 -62.45 -21.0 -62.9 -20.75 -63.3 -20.35 -63.65 -19.85 -64.05 -17.65 -65.35 -17.15 -65.6 -16.75 -65.7 -16.0 -65.8 -16.0 -65.9 -14.0 -65.9 -13.0 -65.7 -10.5 -65.3 -9.4 -65.0 -7.15 -64.35 -6.65 -64.35 -5.5 -64.55 -0.3 -64.25 3.25 -63.45 11.5 -63.1" fill="#be9a92" fill-opacity="0.3019608" fill-rule="evenodd" stroke="none"/>
  </g>
</svg>
