<?xml version="1.0" encoding="UTF-8" standalone="no"?>
<svg xmlns:xlink="http://www.w3.org/1999/xlink" height="46.45px" width="80.5px" xmlns="http://www.w3.org/2000/svg">
  <g transform="matrix(1.0, 0.0, 0.0, 1.0, 41.65, 69.1)">
    <path d="M9.15 -64.55 L10.0 -63.25 10.75 -61.55 15.7 -60.8 Q18.15 -60.25 20.45 -59.15 22.65 -58.05 24.55 -56.45 26.6 -54.6 27.75 -52.15 L27.85 -51.7 27.85 -51.3 27.85 -50.85 27.9 -50.45 28.1 -50.0 28.35 -49.6 28.6 -49.15 28.75 -48.75 28.8 -48.3 28.85 -47.45 28.85 -46.2 28.85 -45.35 28.85 -44.05 28.85 -43.65 28.85 -42.35 28.75 -41.5 28.6 -41.1 28.2 -40.25 27.75 -39.4 27.25 -38.55 26.7 -37.7 26.1 -36.9 25.65 -36.35 25.5 -36.05 25.35 -35.6 25.1 -35.2 24.75 -34.75 24.35 -34.35 24.0 -33.9 23.6 -33.5 23.0 -33.05 22.35 -32.65 22.0 -32.2 21.6 -31.8 19.95 -31.0 15.75 -29.5 Q10.8 -28.05 6.0 -29.7 5.6 -29.85 5.25 -30.1 L4.75 -30.2 4.0 -29.85 Q2.2 -28.8 0.25 -28.3 -3.3 -27.4 -6.65 -28.45 L-7.5 -28.7 -8.25 -28.5 Q-9.6 -26.75 -11.25 -25.6 -12.3 -24.85 -13.5 -24.6 -20.8 -23.45 -27.05 -27.35 -29.35 -28.8 -30.75 -31.25 L-30.85 -31.6 -30.9 -32.05 -30.9 -32.45 -30.9 -32.9 -30.9 -33.3 -30.9 -33.75 -30.9 -34.05 -30.9 -34.1 Q-32.5 -34.1 -34.0 -34.8 L-37.1 -36.1 Q-38.05 -36.4 -39.0 -36.9 L-39.4 -37.25 -39.75 -37.7 -40.15 -38.1 -40.5 -38.55 -40.75 -38.95 -41.0 -39.4 -41.15 -39.8 -41.25 -40.25 -41.25 -40.65 -41.25 -41.1 -41.25 -41.5 -41.25 -41.95 -41.25 -42.35 -41.25 -42.8 -41.25 -43.2 -41.25 -43.65 -41.25 -44.05 -41.4 -44.5 -41.5 -44.9 -41.65 -45.35 -41.65 -45.75 -41.65 -47.05 -41.65 -48.3 -41.6 -49.6 -41.55 -50.0 -41.5 -50.45 -41.5 -51.7 -41.45 -53.0 -41.4 -53.35 -41.25 -53.75 -41.0 -54.2 -40.65 -54.65 -40.25 -55.05 -39.9 -55.5 -39.5 -55.9 -39.0 -56.35 -38.25 -56.55 -33.15 -57.25 -33.15 -57.5 -33.0 -57.9 -32.65 -58.75 -32.25 -59.6 -31.85 -60.45 -31.35 -61.3 -30.75 -62.15 -30.4 -62.6 -29.65 -63.0 -28.1 -63.75 -26.15 -64.75 -25.65 -64.95 -25.25 -65.05 -24.5 -65.25 -23.5 -65.4 -22.5 -65.7 -22.0 -65.7 -21.75 -65.75 -21.0 -65.95 -20.0 -65.7 -19.5 -65.25 -19.25 -64.95 -19.05 -65.15 -18.35 -65.85 -17.25 -66.8 -16.1 -67.6 -14.75 -68.45 -14.25 -68.8 -13.75 -68.9 -13.0 -68.95 -13.0 -69.1 -8.0 -68.85 -3.8 -68.25 -1.0 -67.4 -0.3 -67.45 Q3.65 -68.45 7.05 -66.3 8.2 -65.65 9.15 -64.55" fill="#be9a92" fill-opacity="0.3019608" fill-rule="evenodd" stroke="none"/>
    <path d="M7.0 -64.85 L7.75 -65.25 9.0 -66.1 9.5 -66.55 10.25 -66.8 11.0 -66.9 11.0 -66.95 17.0 -66.95 18.1 -66.65 18.75 -66.2 19.25 -65.8 19.75 -65.7 20.25 -65.8 Q24.45 -67.2 28.25 -65.25 L29.0 -64.8 29.6 -64.4 30.25 -64.0 30.5 -63.55 30.85 -63.1 31.1 -62.7 31.75 -62.3 32.0 -61.85 32.35 -61.45 32.5 -61.0 32.7 -60.55 32.9 -60.15 33.25 -59.3 33.65 -58.45 33.85 -58.05 34.0 -57.6 34.1 -57.2 34.25 -56.75 34.25 -56.35 34.25 -55.9 34.35 -55.6 35.0 -55.05 35.6 -54.65 36.0 -54.2 36.4 -53.85 37.25 -52.6 37.95 -51.25 38.15 -50.85 38.35 -50.45 38.5 -50.0 38.6 -49.6 38.75 -49.15 38.85 -48.75 38.85 -48.3 38.85 -47.05 38.85 -45.35 38.85 -44.9 38.85 -43.65 38.85 -42.35 38.85 -41.1 38.75 -40.65 38.6 -40.25 38.5 -39.8 38.25 -39.4 37.95 -39.0 37.25 -38.1 36.5 -37.25 36.1 -36.9 35.5 -36.4 34.75 -36.05 34.25 -35.75 33.75 -35.6 33.0 -35.45 30.85 -35.2 30.35 -34.75 28.6 -33.5 Q27.3 -32.6 25.75 -32.2 L25.0 -32.0 24.25 -31.8 24.1 -31.35 23.85 -30.95 23.6 -30.5 23.35 -30.1 22.85 -29.25 21.7 -28.45 Q19.35 -27.05 16.75 -26.25 L15.25 -26.05 3.75 -25.4 3.5 -24.95 3.35 -24.55 3.0 -24.15 2.6 -23.7 2.0 -23.3 1.25 -23.05 Q-3.35 -21.7 -6.95 -24.65 L-8.15 -25.85 -11.15 -29.25 -11.75 -29.65 -12.4 -30.1 Q-12.7 -30.25 -13.0 -30.55 L-13.25 -30.75 -13.5 -30.9 -17.25 -31.3 -18.15 -31.5 -18.75 -31.9 -19.15 -32.35 -19.4 -32.45 Q-21.4 -32.6 -23.3 -33.35 L-24.75 -33.9 -25.25 -34.05 -26.65 -34.45 -27.25 -34.9 -28.35 -35.75 -30.0 -37.4 -30.35 -37.85 -30.65 -38.3 -30.9 -38.7 -31.0 -39.15 -31.15 -39.55 -31.25 -40.0 -31.3 -40.4 -31.5 -41.25 -31.65 -41.7 -31.65 -42.05 -31.65 -43.35 -31.65 -45.05 -31.6 -45.45 -31.45 -46.75 -31.5 -48.45 -31.5 -49.7 -31.4 -50.15 -31.25 -50.55 -31.15 -51.0 -31.0 -51.4 -30.9 -51.85 -30.75 -52.25 -30.5 -52.7 -29.45 -54.4 -28.5 -55.65 -28.0 -56.05 -26.65 -57.35 -25.4 -58.65 -24.75 -58.85 -24.25 -59.0 -23.25 -59.35 -22.15 -59.75 -21.75 -60.15 -21.4 -60.6 -20.65 -61.45 -19.5 -62.7 -19.15 -63.15 Q-18.75 -63.3 -18.4 -63.6 L-17.9 -64.0 -17.35 -64.4 -16.9 -64.65 -16.25 -64.75 -2.5 -64.3 -1.75 -64.3 -1.25 -64.4 0.5 -64.75 4.5 -64.95 5.5 -64.65 6.25 -64.55 7.0 -64.85" fill="#be9a92" fill-opacity="0.3019608" fill-rule="evenodd" stroke="none"/>
    <path d="M1.0 -63.7 L1.75 -63.5 2.5 -63.25 3.2 -62.8 3.75 -62.45 4.25 -62.15 4.75 -61.95 5.6 -61.75 6.1 -61.3 6.6 -60.85 6.95 -60.45 7.25 -60.05 7.35 -59.6 7.5 -59.2 7.75 -58.75 Q8.1 -58.5 8.5 -58.35 L9.25 -57.9 Q9.6 -57.65 10.0 -57.5 L10.75 -57.05 11.75 -56.75 12.5 -56.5 13.1 -56.05 13.6 -55.65 14.0 -55.25 14.6 -54.8 15.6 -53.9 16.35 -53.1 17.5 -51.85 18.3 -50.55 18.5 -50.15 18.6 -49.7 18.75 -49.3 19.0 -48.85 19.0 -48.45 19.1 -47.6 19.15 -46.75 19.2 -45.45 19.25 -44.2 19.25 -42.55 19.25 -41.7 19.1 -41.25 19.0 -40.85 18.85 -40.4 18.75 -40.0 18.45 -39.6 17.75 -38.7 17.35 -38.3 16.6 -37.45 15.35 -36.15 14.7 -35.75 13.1 -35.05 12.25 -34.8 10.5 -34.35 9.85 -33.9 8.75 -33.05 7.6 -32.2 5.5 -30.9 4.75 -30.5 2.75 -29.95 Q-3.85 -28.1 -10.0 -30.75 L-10.4 -30.4 -10.75 -29.95 -11.25 -29.55 Q-11.5 -29.3 -11.8 -29.15 -12.15 -28.85 -12.5 -28.7 L-13.0 -28.4 -13.25 -28.25 -13.75 -28.1 -19.75 -28.25 -21.25 -28.8 -21.65 -29.2 -22.0 -29.55 -24.5 -29.75 -26.0 -30.1 -27.5 -30.65 -28.25 -31.05 -28.65 -31.5 -29.0 -31.9 -29.75 -32.35 -31.25 -33.2 -32.5 -34.05 -33.75 -35.3 -34.0 -35.75 -34.65 -36.15 -36.15 -37.0 -37.0 -37.4 -38.15 -37.85 -38.75 -38.3 -39.15 -38.7 -39.5 -39.15 -39.75 -39.55 -39.9 -40.0 -40.0 -40.4 -40.15 -40.85 -40.15 -41.25 -40.15 -42.55 -40.15 -44.2 -40.15 -45.9 -40.15 -48.0 -40.0 -50.15 -39.85 -50.55 -39.65 -51.0 -39.35 -51.4 -39.0 -51.85 -38.85 -52.25 -38.65 -52.7 -38.35 -53.1 -38.0 -53.55 -37.65 -53.95 -37.1 -54.15 -36.25 -54.45 -31.75 -54.95 -31.6 -55.35 -31.0 -56.6 -30.0 -58.35 -28.45 -60.55 Q-27.5 -61.7 -26.25 -62.4 L-25.0 -62.65 -16.0 -62.4 -15.4 -62.6 Q-15.0 -62.75 -14.65 -63.05 L-12.85 -64.2 Q-12.1 -64.8 -11.25 -65.0 L-8.75 -65.8 -8.0 -65.85 -8.0 -65.95 -5.0 -65.8 -2.25 -65.2 0.6 -63.85 1.0 -63.7" fill="#be9a92" fill-opacity="0.3019608" fill-rule="evenodd" stroke="none"/>
  </g>
</svg>
