<?xml version="1.0" encoding="UTF-8" standalone="no"?>
<svg xmlns:xlink="http://www.w3.org/1999/xlink" height="77.45px" width="103.3px" xmlns="http://www.w3.org/2000/svg">
  <g transform="matrix(1.0, 0.0, 0.0, 1.0, 53.05, 89.15)">
    <path d="M42.5 -60.35 Q54.25 -54.35 48.15 -42.25 L47.35 -41.0 Q49.4 -20.75 27.45 -21.0 20.15 -7.05 5.35 -15.75 -0.2 -8.95 -8.25 -13.5 -9.65 -14.25 -11.15 -14.5 -33.95 -6.5 -43.95 -26.45 -44.8 -28.15 -44.7 -30.1 -52.05 -36.0 -50.5 -45.1 -58.55 -62.75 -41.0 -67.0 -40.65 -69.9 -38.1 -71.3 -35.9 -72.5 -33.4 -73.15 -30.15 -83.25 -18.95 -81.3 -7.25 -93.8 11.3 -86.45 30.25 -93.2 33.6 -74.35 40.8 -71.9 42.05 -64.35 L42.5 -60.35" fill="#be9a92" fill-opacity="0.3019608" fill-rule="evenodd" stroke="none"/>
    <path d="M23.25 -62.25 Q27.5 -61.8 28.45 -57.75 29.4 -53.8 29.8 -49.45 35.3 -42.55 31.7 -34.05 L30.95 -33.2 24.85 -29.75 Q18.0 -17.75 3.4 -17.65 0.75 -17.65 -1.65 -18.9 -18.3 -10.05 -30.05 -22.35 -30.95 -23.35 -31.0 -24.9 -44.75 -28.75 -46.65 -43.95 -47.0 -46.9 -46.8 -50.3 -46.15 -61.7 -35.65 -64.5 -34.3 -69.85 -29.15 -72.35 -27.15 -73.35 -25.0 -73.6 -21.35 -77.3 -15.65 -76.3 L-13.15 -76.0 Q-3.0 -78.8 5.6 -72.75 16.95 -74.4 21.6 -64.4 22.15 -63.2 23.25 -62.25" fill="#be9a92" fill-opacity="0.3019608" fill-rule="evenodd" stroke="none"/>
    <path d="M14.9 -77.1 L15.25 -76.25 Q22.65 -78.85 25.35 -72.65 L25.55 -71.8 Q28.2 -70.65 29.45 -68.1 29.85 -67.35 29.7 -66.2 39.2 -63.15 37.6 -52.7 45.7 -45.15 37.55 -37.65 37.55 -23.3 23.35 -26.15 9.7 -18.95 -4.0 -24.65 -23.9 -18.5 -35.45 -38.3 -41.2 -48.1 -32.5 -56.25 -32.8 -68.75 -20.65 -69.75 -13.05 -76.95 -2.2 -74.95 3.3 -82.2 13.0 -78.65 14.4 -78.35 14.9 -77.1" fill="#be9a92" fill-opacity="0.3019608" fill-rule="evenodd" stroke="none"/>
  </g>
</svg>
