<?xml version="1.0" encoding="UTF-8" standalone="no"?>
<svg xmlns:xlink="http://www.w3.org/1999/xlink" height="35.55px" width="51.15px" xmlns="http://www.w3.org/2000/svg">
  <g transform="matrix(1.0, 0.0, 0.0, 1.0, 28.4, 42.75)">
    <path d="M-4.9 -42.75 L0.05 -42.75 1.7 -42.35 2.9 -41.7 3.7 -41.05 4.35 -40.45 5.6 -39.8 6.65 -39.2 7.1 -38.65 7.9 -38.0 Q8.4 -37.65 8.9 -37.4 L11.6 -36.1 13.7 -35.1 14.9 -35.1 16.15 -34.85 17.4 -34.5 18.15 -33.85 18.8 -33.2 19.7 -32.05 20.8 -30.7 21.7 -29.55 22.1 -28.9 22.35 -28.3 22.5 -27.65 22.75 -27.1 22.75 -26.45 22.75 -25.2 22.75 -23.95 22.75 -22.7 22.75 -20.9 22.7 -19.65 22.5 -19.0 22.25 -18.4 21.95 -17.75 21.7 -17.2 21.25 -16.55 20.85 -15.95 20.45 -15.3 19.6 -14.7 19.05 -14.3 18.65 -14.15 17.8 -13.9 14.9 -13.4 13.7 -13.05 12.05 -12.65 11.8 -12.0 11.35 -11.4 10.95 -10.75 10.55 -10.15 9.95 -9.5 9.3 -8.95 8.3 -8.3 5.85 -7.7 Q-0.5 -6.4 -6.55 -8.35 -8.1 -8.85 -9.4 -9.95 L-10.9 -10.35 -12.3 -10.75 -14.2 -11.15 -15.45 -11.8 -16.0 -12.4 -16.65 -13.05 -17.25 -13.65 -17.65 -14.3 -17.9 -14.9 -18.1 -15.55 -18.1 -16.1 -18.1 -16.75 -18.1 -18.0 -18.1 -18.6 -18.1 -19.85 -18.15 -20.05 -20.55 -20.55 -22.45 -20.9 -23.7 -21.5 -24.9 -22.15 -25.5 -22.7 -26.15 -23.35 -26.75 -23.95 -27.3 -24.6 -27.8 -25.2 -28.0 -25.85 -28.2 -26.45 -28.4 -27.1 -28.4 -27.65 -28.4 -28.3 -28.4 -28.9 -28.2 -29.55 -28.0 -30.15 -28.0 -30.8 -28.0 -31.4 -27.75 -31.95 -27.3 -32.6 -26.75 -33.2 -25.25 -34.45 -24.5 -34.9 -24.1 -35.1 -23.05 -35.15 -16.45 -35.15 -12.3 -35.35 -12.15 -35.75 -12.05 -36.35 -11.9 -37.0 -11.65 -37.55 -11.25 -38.15 -10.25 -39.4 -9.1 -40.7 Q-8.1 -41.75 -6.75 -42.35 L-6.1 -42.45 -4.9 -42.6 -4.9 -42.75" fill="#be9a92" fill-opacity="0.3019608" fill-rule="evenodd" stroke="none"/>
    <path d="M1.25 -39.95 L2.0 -39.75 2.6 -39.35 3.1 -39.0 3.35 -38.65 3.6 -38.25 3.75 -37.9 3.95 -37.5 4.0 -37.15 4.25 -36.95 5.0 -36.65 5.6 -36.25 6.0 -35.9 6.35 -35.5 6.5 -35.15 6.7 -34.75 6.85 -34.4 6.95 -34.0 7.0 -33.65 7.0 -33.25 7.0 -32.9 7.0 -32.5 7.0 -32.15 6.85 -31.75 6.75 -31.4 6.6 -31.0 6.7 -30.7 7.1 -30.25 8.0 -29.85 8.75 -29.5 9.45 -29.1 10.6 -28.4 10.85 -28.0 11.1 -27.6 11.25 -27.25 11.5 -26.9 11.6 -26.5 11.75 -26.15 11.85 -25.75 12.0 -25.4 12.0 -24.65 12.0 -23.5 12.1 -21.65 12.1 -20.15 12.1 -19.75 12.1 -18.65 12.0 -18.25 11.85 -17.9 11.75 -17.5 11.5 -17.1 11.35 -16.75 11.1 -16.4 10.85 -16.0 10.75 -15.65 10.6 -15.25 10.4 -14.85 10.2 -14.5 10.0 -14.15 9.75 -13.75 9.5 -13.4 9.0 -13.0 8.5 -12.65 7.85 -12.25 7.25 -11.9 6.75 -11.65 5.25 -11.3 Q1.95 -10.5 -1.3 -11.45 L-3.4 -12.15 -4.0 -12.0 -4.65 -11.6 -5.0 -11.4 Q-7.65 -10.45 -10.5 -11.0 -13.8 -11.65 -16.75 -13.25 L-17.15 -13.65 -17.5 -14.0 -17.9 -14.4 -18.25 -14.8 -18.75 -15.5 -18.9 -15.9 -19.0 -16.25 -19.15 -16.65 -19.25 -17.0 -19.4 -17.4 -19.5 -17.75 -19.5 -18.15 -19.5 -18.5 -19.5 -18.9 -19.5 -19.25 -19.7 -19.6 -20.15 -20.0 -20.75 -20.4 -21.7 -21.2 -22.4 -21.9 -22.5 -22.25 -22.65 -22.65 -22.75 -23.0 -22.75 -23.75 -22.75 -25.65 -22.75 -27.9 -22.7 -28.6 -22.25 -30.5 -21.9 -31.65 -20.85 -33.1 -18.3 -36.15 -16.75 -37.65 Q-15.45 -39.0 -13.75 -39.9 L-12.65 -40.25 -11.75 -40.5 -11.0 -40.55 -11.0 -40.65 -9.55 -40.4 -7.55 -39.8 -6.0 -38.75 -5.65 -38.4 -5.15 -38.4 -4.75 -38.75 -4.4 -39.15 -3.75 -39.5 -3.25 -39.75 -2.75 -39.85 -2.0 -39.95 0.5 -40.15 1.25 -39.95" fill="#be9a92" fill-opacity="0.3019608" fill-rule="evenodd" stroke="none"/>
    <path d="M3.25 -38.8 L9.5 -39.2 9.5 -39.25 12.25 -38.5 14.65 -37.05 15.75 -35.9 15.85 -35.5 16.0 -35.15 16.1 -34.75 16.25 -34.4 16.25 -33.65 16.25 -33.25 16.25 -32.5 16.25 -31.75 16.25 -30.65 16.25 -29.9 17.0 -29.15 17.45 -28.75 18.2 -27.95 18.7 -27.25 19.1 -26.5 19.2 -25.75 19.25 -25.0 19.25 -24.25 19.25 -23.15 19.25 -21.65 19.1 -21.25 19.0 -20.9 18.85 -20.5 18.75 -20.15 18.45 -19.75 18.1 -19.4 17.6 -19.0 17.1 -18.65 17.0 -18.25 16.85 -17.9 16.75 -17.5 16.75 -17.15 16.7 -16.75 16.65 -16.4 16.6 -16.0 16.4 -15.6 16.2 -15.25 15.95 -14.9 15.35 -14.15 14.6 -13.4 13.85 -12.65 Q9.25 -9.5 3.45 -10.45 -2.45 -11.45 -7.8 -13.9 -10.4 -15.1 -11.75 -17.5 L-11.9 -17.9 -12.0 -18.25 -12.1 -18.65 -12.15 -19.0 -12.25 -19.75 -12.25 -20.5 -12.25 -21.25 -12.4 -21.65 -12.5 -22.0 -12.65 -22.4 -12.75 -22.75 -12.75 -23.15 -12.75 -23.5 -12.75 -23.9 -12.75 -24.25 -12.7 -24.65 -12.65 -25.4 -12.65 -26.15 -12.5 -26.5 -12.4 -26.9 -12.25 -27.25 -11.9 -28.0 -11.25 -29.1 -10.05 -30.65 -8.15 -32.5 -7.25 -32.85 -6.75 -33.0 -5.0 -33.2 -3.5 -33.25 -3.0 -33.4 -2.55 -34.15 -2.0 -35.25 -0.85 -36.7 1.35 -38.25 3.25 -38.8" fill="#be9a92" fill-opacity="0.3019608" fill-rule="evenodd" stroke="none"/>
  </g>
</svg>
