<?xml version="1.0" encoding="UTF-8" standalone="no"?>
<svg xmlns:xlink="http://www.w3.org/1999/xlink" height="35.2px" width="42.9px" xmlns="http://www.w3.org/2000/svg">
  <g transform="matrix(1.0, 0.0, 0.0, 1.0, 24.4, 42.25)">
    <path d="M13.9 -37.45 L15.1 -36.65 15.45 -36.25 15.75 -35.9 16.0 -35.5 16.1 -35.15 16.25 -34.75 16.35 -34.4 16.5 -34.0 16.6 -33.65 16.75 -33.25 16.85 -32.9 16.85 -32.5 16.85 -32.15 16.85 -31.75 16.85 -31.4 16.85 -31.0 16.85 -30.65 16.85 -30.25 16.75 -29.5 16.6 -29.15 16.4 -28.75 16.25 -28.4 16.3 -28.0 16.45 -27.6 16.65 -27.25 16.85 -26.85 17.0 -26.5 17.25 -26.15 17.35 -25.75 17.5 -25.4 17.6 -25.0 17.75 -24.65 17.85 -24.25 18.0 -23.9 18.25 -23.15 18.5 -22.4 18.5 -22.0 18.5 -21.65 18.5 -21.25 18.5 -20.9 18.5 -20.5 18.5 -20.15 18.5 -19.4 18.5 -18.65 18.35 -18.25 18.25 -17.9 18.1 -17.5 17.85 -17.1 17.0 -16.0 Q16.35 -15.35 16.0 -14.5 15.45 -13.25 14.5 -12.25 L14.1 -11.9 13.75 -11.5 12.6 -10.4 11.95 -10.05 10.2 -9.45 9.0 -9.15 5.25 -9.4 4.35 -9.25 3.95 -8.9 3.5 -8.5 2.95 -8.15 2.25 -7.75 1.75 -7.5 1.25 -7.4 Q-2.5 -6.7 -6.25 -7.45 L-7.0 -7.65 -7.65 -8.0 -9.2 -9.2 Q-10.2 -10.05 -11.35 -10.7 L-15.0 -12.9 -15.35 -13.25 -15.65 -13.65 -16.15 -14.0 -16.75 -14.4 -17.15 -14.75 -17.5 -15.15 -17.9 -15.5 -18.25 -15.9 -18.6 -16.25 -18.85 -16.65 -19.0 -17.0 -19.1 -17.4 -19.15 -17.75 -19.15 -18.15 -19.15 -18.5 -19.3 -18.75 -20.6 -19.3 -21.4 -19.6 -22.25 -20.0 -22.65 -20.4 -23.0 -20.75 -23.35 -21.15 -23.65 -21.5 -23.9 -21.9 -23.95 -22.25 -24.1 -22.65 -24.25 -23.0 -24.35 -23.4 -24.4 -24.15 -24.4 -24.9 -24.4 -26.0 -24.4 -27.9 -24.35 -28.6 -24.3 -29.0 -24.25 -30.15 -24.25 -30.5 -24.15 -30.9 -24.0 -31.25 -23.9 -31.65 -23.75 -32.0 -23.75 -32.4 -23.75 -32.75 -23.75 -33.15 -23.6 -33.5 -23.4 -33.9 -23.1 -34.25 -22.75 -34.65 -22.15 -35.0 -21.4 -35.4 -20.65 -35.75 -19.9 -36.15 -19.15 -36.5 -18.0 -36.65 -11.5 -37.0 -11.4 -37.4 -11.4 -37.75 -11.4 -38.15 -11.2 -38.5 -10.7 -39.3 -10.25 -40.0 -9.25 -41.1 Q-7.95 -42.05 -6.5 -42.25 L-1.5 -42.15 2.6 -41.4 Q4.35 -40.75 5.25 -39.25 L5.35 -38.9 5.55 -38.6 6.0 -38.5 6.75 -38.7 Q9.0 -39.2 11.2 -38.7 12.7 -38.35 13.9 -37.45" fill="#be9a92" fill-opacity="0.3019608" fill-rule="evenodd" stroke="none"/>
    <path d="M8.35 -25.0 L8.35 -23.9 8.35 -23.15 8.25 -22.75 8.1 -22.4 8.0 -22.0 7.85 -21.65 7.75 -21.25 7.6 -20.9 7.5 -20.5 7.25 -20.15 6.95 -19.75 6.6 -19.4 5.85 -18.65 5.35 -18.25 5.0 -18.0 4.75 -17.9 4.25 -17.75 3.5 -17.65 2.1 -17.5 1.95 -17.15 1.75 -16.75 1.6 -16.4 1.35 -16.0 1.1 -15.65 0.85 -15.25 -0.55 -14.15 Q-4.35 -10.6 -9.8 -11.9 -13.3 -12.75 -16.4 -14.65 L-16.75 -15.0 -17.05 -15.35 -17.35 -15.75 -17.65 -16.15 -17.9 -16.5 -18.15 -16.9 -18.35 -17.15 -19.75 -17.85 -21.4 -18.55 -22.15 -18.9 -22.5 -19.25 -22.75 -19.65 -23.0 -20.0 -23.1 -20.4 -23.15 -20.75 -23.25 -21.15 -23.4 -21.5 -23.5 -21.9 -23.5 -22.25 -23.5 -22.65 -23.5 -23.0 -23.5 -23.4 -23.5 -23.75 -23.5 -24.15 -23.35 -24.5 -23.15 -24.9 -23.0 -25.25 -22.9 -25.65 -22.75 -26.0 -22.55 -26.4 -22.35 -26.75 -22.15 -27.15 -21.75 -27.85 -21.5 -28.25 -20.9 -29.0 -20.25 -29.4 -19.75 -29.75 -19.15 -30.15 -19.05 -30.5 -19.0 -31.25 -19.0 -32.0 -19.0 -32.4 -19.0 -33.5 -19.0 -34.25 -19.0 -34.65 -18.9 -35.0 -18.75 -35.4 -18.65 -35.75 -18.4 -36.15 -17.95 -36.85 -17.35 -37.6 -17.0 -37.95 -16.0 -38.6 -15.75 -38.75 -15.25 -38.9 -14.5 -38.95 -14.5 -39.0 -9.0 -38.85 Q-7.55 -38.8 -6.25 -38.0 L-3.3 -37.65 Q-0.6 -37.25 1.7 -35.8 3.9 -34.4 5.7 -32.5 L8.0 -29.5 8.1 -29.15 8.25 -28.75 8.35 -28.4 8.35 -28.0 8.35 -27.25 8.35 -26.5 8.35 -26.15 8.35 -25.0" fill="#be9a92" fill-opacity="0.3019608" fill-rule="evenodd" stroke="none"/>
    <path d="M8.0 -38.65 L8.6 -38.25 9.0 -37.9 9.35 -37.5 9.5 -37.15 9.7 -36.75 9.85 -36.4 9.95 -36.0 10.0 -35.65 10.0 -35.25 10.0 -34.9 9.95 -34.5 9.85 -34.15 9.7 -33.75 9.55 -33.35 9.5 -33.15 9.75 -33.05 12.95 -32.15 Q15.55 -31.3 16.75 -28.9 L17.0 -28.5 17.0 -28.15 17.05 -27.4 17.1 -25.9 17.05 -24.0 17.0 -22.9 16.75 -22.5 15.9 -20.6 Q15.1 -18.85 13.55 -17.7 L11.6 -16.25 11.25 -16.15 10.75 -16.0 10.0 -15.85 9.1 -15.65 9.1 -15.25 9.0 -14.9 9.0 -14.5 8.75 -14.15 Q5.15 -8.6 -1.75 -10.0 -4.85 -10.65 -6.5 -13.25 L-6.55 -13.65 -6.65 -14.0 -6.8 -14.35 -7.25 -14.75 -7.65 -15.15 -8.3 -15.45 Q-10.0 -16.15 -11.35 -17.4 -12.85 -18.7 -13.9 -20.4 L-14.15 -20.75 -14.25 -21.15 -14.4 -21.5 -14.5 -21.9 -14.5 -22.25 -14.5 -23.4 -14.5 -25.25 -14.45 -27.5 -14.4 -28.25 -14.15 -28.65 -13.6 -29.35 -12.9 -30.15 -11.75 -31.25 -11.0 -31.55 -9.5 -31.9 -6.25 -32.25 -6.15 -32.65 -6.0 -33.0 -5.9 -33.4 -5.75 -33.75 -5.65 -34.15 -5.5 -34.5 -5.3 -34.9 -4.9 -35.65 -4.25 -36.75 -2.75 -38.25 Q-2.4 -38.45 -2.0 -38.6 L-1.25 -38.9 -0.5 -38.95 -0.5 -39.0 6.5 -38.85 8.0 -38.65" fill="#be9a92" fill-opacity="0.3019608" fill-rule="evenodd" stroke="none"/>
  </g>
</svg>
