<?xml version="1.0" encoding="UTF-8" standalone="no"?>
<svg xmlns:xlink="http://www.w3.org/1999/xlink" height="24.6px" width="25.8px" xmlns="http://www.w3.org/2000/svg">
  <g transform="matrix(1.0, 0.0, 0.0, 1.0, 12.9, 12.3)">
    <path d="M4.1 -4.25 L12.4 -2.8 6.65 3.5 7.65 11.8 0.05 8.3 -7.65 11.8 -6.55 3.5 -12.4 -2.8 -4.05 -4.25 0.0 -11.8 4.1 -4.25" fill="#fffef8" fill-rule="evenodd" stroke="none"/>
    <path d="M4.1 -4.25 L3.2 -5.6 2.1 -7.6 1.1 -9.45 0.4 -10.8 0.0 -11.8 -1.2 -10.15 -2.05 -8.2 Q-2.3 -7.15 -2.75 -6.6 L-3.4 -5.25 Q-3.65 -4.5 -4.05 -4.25 L-6.0 -3.95 -8.15 -3.55 -10.4 -3.3 -11.65 -3.0 -12.4 -2.8 -11.15 -1.2 -9.65 0.25 -8.15 1.8 -7.25 2.85 -6.55 3.5 -6.8 5.55 -7.35 7.4 -7.75 9.3 -7.8 10.9 -7.65 11.8 Q-6.7 11.5 -5.95 11.0 -5.2 10.5 -4.1 10.15 L-2.3 9.15 Q-1.55 8.5 -1.0 8.55 L0.05 8.3 1.8 9.15 Q2.75 9.5 3.65 10.15 4.55 10.8 5.45 10.95 L6.9 11.45 7.65 11.8 7.4 9.8 7.15 7.75 7.15 5.65 Q7.3 4.55 6.95 4.15 L6.65 3.5 8.1 1.9 9.7 0.45 Q10.55 -0.25 11.0 -1.0 11.5 -1.75 11.95 -2.1 L12.4 -2.8 10.35 -3.15 8.6 -3.45 6.7 -3.65 5.1 -3.95 4.1 -4.25 Z" fill="none" stroke="#e66b7f" stroke-linecap="round" stroke-linejoin="round" stroke-width="1.0"/>
  </g>
</svg>
