<?xml version="1.0" encoding="UTF-8" standalone="no"?>
<svg xmlns:xlink="http://www.w3.org/1999/xlink" height="61.95px" width="34.3px" xmlns="http://www.w3.org/2000/svg">
  <g transform="matrix(1.0, 0.0, 0.0, 1.0, 17.1, 28.25)">
    <path d="M-6.25 8.55 L-7.5 9.25 -6.0 16.6 Q-5.25 12.8 -5.55 9.05 L-6.25 8.55 M0.25 -16.15 L0.6 -15.75 Q1.1 -9.75 1.0 -3.75 L1.1 -3.0 1.3 -1.9 1.55 -0.05 1.8 1.5 1.95 2.6 Q2.15 4.05 1.25 5.1 L1.1 5.2 Q-0.4 5.45 -1.5 4.25 L-2.05 4.25 -1.95 4.45 -1.85 4.85 Q-1.75 7.85 -1.8 10.85 -1.95 16.1 -2.5 21.3 L-2.6 24.35 Q-2.6 25.4 -3.1 26.25 L-5.65 27.35 -5.7 28.5 Q-5.85 29.1 -5.6 29.6 -4.85 30.9 -4.65 32.25 L-5.0 33.0 Q-5.25 33.55 -5.9 33.7 L-7.3 33.4 Q-8.4 32.8 -9.1 31.7 L-9.5 31.05 -12.65 25.35 Q-13.4 24.2 -13.7 22.75 -13.95 21.35 -14.75 20.1 L-15.8 19.65 Q-16.2 19.45 -16.25 19.05 L-16.6 15.0 -16.45 7.1 -16.2 5.95 Q-15.55 4.4 -15.7 2.6 -15.85 0.5 -15.4 -1.15 -15.15 -2.1 -14.4 -2.9 L-13.5 -3.0 -12.3 -2.75 Q-11.9 -2.55 -11.85 -2.1 -11.6 0.0 -11.0 1.85 L-10.95 1.7 -10.75 0.95 -10.65 -0.15 -9.6 -3.95 Q-8.7 -6.35 -7.0 -8.4 L-6.95 -9.5 -6.9 -10.2 -5.95 -12.85 -4.8 -15.8 Q-4.35 -16.75 -4.4 -17.75 -3.4 -19.15 -3.1 -20.8 L-2.8 -21.8 Q-2.35 -22.7 -1.5 -23.0 L-0.85 -22.75 -0.6 -22.4 -0.5 -21.25 Q-0.4 -20.45 -0.65 -19.85 L-1.5 -16.45 0.25 -16.15" fill="#ffffcc" fill-rule="evenodd" stroke="none"/>
    <path d="M2.2 -1.0 Q3.0 -2.45 4.5 -2.75 L5.9 -2.5 Q7.3 -0.7 6.55 1.6 L5.5 3.3 4.55 4.35 Q2.6 7.0 0.35 9.1 -1.15 10.6 -3.25 10.5 L-3.25 15.0 -3.5 17.55 Q-3.7 18.5 -4.25 19.35 L-5.15 19.75 -5.65 20.35 -7.35 20.25 Q-8.05 19.7 -8.05 18.8 L-8.25 17.0 -8.4 15.5 Q-8.8 10.95 -8.7 6.5 -8.7 5.35 -7.9 4.6 L-7.0 4.35 -4.75 6.1 -2.6 6.5 -3.1 4.6 Q-2.9 4.0 -2.25 3.5 L-0.65 1.95 0.65 0.7 Q1.65 0.0 2.2 -1.0" fill="#ffffcc" fill-rule="evenodd" stroke="none"/>
    <path d="M-0.5 20.35 L-1.75 20.6 -2.35 20.6 -2.75 20.25 -3.1 19.5 Q-3.85 19.85 -3.9 20.75 -4.2 24.8 -4.15 28.95 L-2.5 28.85 Q-1.8 28.2 -1.55 27.4 L-1.05 25.85 Q-0.55 24.25 -0.35 22.5 -0.2 21.3 -0.5 20.35 M7.4 -14.25 L7.45 -12.4 7.5 -10.6 8.15 -10.4 8.65 -9.65 8.65 -8.9 Q8.65 -7.35 9.25 -5.95 L9.45 -5.1 9.7 -1.75 Q9.6 6.1 7.55 13.55 L7.35 14.75 Q7.2 15.85 6.15 16.5 L4.7 16.15 Q4.45 16.15 4.3 15.95 L4.05 15.6 3.9 15.25 3.8 15.1 2.4 17.6 2.55 18.0 3.1 19.55 Q3.65 21.35 3.5 23.3 3.15 27.55 0.65 31.0 -0.4 32.45 -2.0 32.85 L-5.85 32.4 -6.65 31.8 -7.75 30.35 Q-7.8 26.3 -7.5 22.35 -7.25 19.0 -6.4 15.8 L-5.8 13.85 -5.45 13.15 -2.85 9.1 0.75 4.4 Q1.55 3.5 1.9 2.25 L1.5 1.45 Q1.2 0.95 1.4 0.35 1.8 -1.05 2.65 -1.95 3.55 -2.85 3.95 -4.15 L4.3 -6.2 4.7 -15.35 5.15 -16.15 6.0 -16.4 6.75 -16.15 Q7.45 -15.45 7.4 -14.25" fill="#ffffcc" fill-rule="evenodd" stroke="none"/>
    <path d="M11.15 9.6 L12.5 9.35 Q13.85 9.5 14.15 10.75 L13.9 11.85 12.15 13.75 Q12.55 16.65 10.35 18.6 L6.7 22.05 4.05 24.25 Q3.55 24.6 3.45 25.05 L2.5 27.25 Q1.95 28.0 1.0 28.1 L-0.8 27.2 -1.35 27.9 -1.9 28.55 Q-2.9 29.45 -3.85 28.75 L-4.7 27.8 -5.4 26.95 -5.85 25.5 Q-5.9 24.5 -5.55 23.7 L-4.8 21.8 -4.1 19.85 Q-3.0 17.05 -0.5 16.25 L0.9 16.6 1.8 15.9 2.4 14.85 Q2.8 13.55 3.65 12.75 L4.5 12.55 6.2 12.35 Q9.0 11.8 11.15 9.6" fill="#ffffcc" fill-rule="evenodd" stroke="none"/>
    <path d="M13.25 6.5 L14.0 6.25 15.5 6.85 15.75 7.6 15.8 12.1 Q15.6 16.85 14.05 21.5 L13.7 22.2 Q13.05 23.2 12.7 24.1 11.75 26.55 10.0 28.65 9.4 29.4 8.5 29.5 L7.0 28.5 7.0 27.35 8.65 24.5 7.65 24.6 Q6.65 26.1 5.0 26.6 L4.25 26.2 Q3.2 25.5 3.4 24.1 L5.45 21.5 8.4 17.9 Q9.35 16.7 9.55 15.15 L9.0 14.0 Q9.85 12.05 11.0 10.3 L11.7 9.45 12.35 8.75 Q12.85 8.1 12.75 7.25 L13.25 6.5" fill="#ffffcc" fill-rule="evenodd" stroke="none"/>
    <path d="M0.4 1.85 L0.45 2.25 0.5 2.6 0.5 3.0 0.5 3.75 0.5 4.1 0.55 4.25 1.5 4.35 2.5 4.6 3.0 5.0 3.25 5.4 3.4 5.75 3.65 6.1 3.65 7.25 3.65 9.1 3.65 10.6 3.65 11.35 3.8 11.6 5.0 12.1 5.5 12.5 5.75 12.9 5.9 13.25 6.15 13.6 6.15 14.0 6.15 14.35 6.15 14.75 6.15 15.5 6.15 16.1 6.45 15.95 6.9 15.6 7.25 15.25 8.0 14.6 8.25 14.5 9.0 14.35 10.0 14.6 10.5 15.0 10.75 15.4 10.9 15.75 11.15 16.1 11.15 16.5 11.15 16.85 11.3 17.2 11.65 17.6 11.8 18.0 12.0 18.35 12.1 18.75 12.15 19.1 12.15 19.85 12.15 20.6 12.15 21.35 11.25 23.3 Q10.45 24.8 9.15 25.85 L7.5 26.85 7.25 26.95 6.5 27.1 4.75 27.35 4.25 27.7 3.75 28.0 3.0 28.1 2.0 28.1 1.0 27.85 0.5 27.5 0.15 27.1 -0.6 26.35 -1.25 25.6 Q-1.6 25.45 -2.0 25.25 L-2.5 25.5 -2.75 25.85 -3.15 26.2 -4.1 27.0 -4.5 27.35 -5.1 27.75 -6.0 28.0 -8.0 28.0 -9.0 27.75 -9.75 27.35 -10.4 27.0 -11.15 26.25 -12.05 25.15 -12.75 24.0 Q-13.35 22.55 -13.45 21.0 L-13.5 18.35 -13.5 14.6 -13.5 13.5 -13.15 12.75 -12.5 11.6 -11.0 10.25 -10.75 10.15 -10.0 10.0 -8.25 9.75 -8.2 9.4 -8.0 9.0 -7.65 8.6 -7.4 8.35 -7.0 8.25 Q-6.75 8.2 -6.6 8.0 L-6.5 7.75 -6.3 7.0 -6.0 5.9 -5.6 4.35 -5.35 3.6 -5.1 3.25 -4.75 2.9 -4.25 2.5 -4.1 2.1 -3.85 1.75 -3.6 1.35 -3.35 1.0 -3.0 0.75 -2.75 0.65 -2.0 0.55 -2.0 0.5 -1.5 0.5 -0.6 0.75 -0.1 1.1 0.15 1.5 0.4 1.85" fill="#ffffff" fill-opacity="0.2" fill-rule="evenodd" stroke="none"/>
    <path d="M3.0 15.0 L3.4 15.35 3.75 15.75 3.9 16.1 4.1 16.5 4.3 16.85 4.5 17.25 4.65 17.6 4.75 18.0 5.0 18.4 5.15 18.75 5.0 20.6 5.05 23.6 Q5.15 25.55 4.7 27.35 L4.25 28.85 4.0 29.25 3.75 29.6 3.4 30.0 3.15 30.35 2.9 30.75 2.35 31.1 1.65 31.5 1.15 31.75 0.5 31.85 -0.5 31.85 -1.4 31.7 -1.6 31.75 -1.9 31.85 -2.5 31.95 -3.5 32.0 -4.35 31.75 -4.95 31.3 -5.1 31.0 -5.1 30.6 -5.05 30.25 -5.0 29.85 -4.95 29.5 -5.15 29.15 -5.5 28.75 -5.6 28.35 -5.6 28.0 -5.6 27.6 -5.6 27.25 -5.6 26.85 -5.6 26.5 -5.6 26.1 -5.75 25.75 -5.85 25.35 -5.75 24.25 -5.55 22.35 -5.25 20.15 -5.1 18.25 -4.75 17.1 -3.9 15.65 -2.65 13.8 -2.0 13.1 -1.75 13.05 -1.0 12.95 -1.0 12.85 -0.5 12.85 0.5 13.1 1.25 13.5 1.9 13.85 2.25 14.25 2.65 14.6 3.0 15.0" fill="#ffffff" fill-opacity="0.2" fill-rule="evenodd" stroke="none"/>
    <path d="M0.5 0.6 L1.4 0.85 1.9 1.25 2.15 1.6 2.25 2.0 2.4 2.35 2.65 3.1 2.75 3.5 2.9 3.85 2.9 5.35 3.15 8.0 Q3.5 9.85 3.5 11.75 L3.65 13.6 3.6 14.0 3.55 14.35 3.5 14.6 3.7 14.45 4.35 13.7 5.5 12.65 6.75 12.0 7.5 11.85 8.5 12.1 9.25 12.5 9.9 12.85 10.15 13.25 10.35 13.65 10.5 14.0 10.6 14.35 10.65 14.75 10.65 15.1 10.65 15.5 10.65 15.85 10.65 16.25 10.7 16.6 11.0 17.0 11.25 17.4 11.4 17.75 11.65 18.1 11.65 18.5 11.65 18.85 11.65 19.25 11.5 19.6 11.3 20.0 11.15 20.35 10.75 20.75 10.4 21.1 10.25 21.5 10.15 21.85 10.0 22.25 9.2 23.7 7.55 26.3 Q5.95 28.35 3.5 29.35 L2.5 29.6 0.5 29.55 -1.25 29.25 -2.5 28.85 -3.1 28.5 -3.75 28.1 -4.25 27.75 -5.5 27.5 -6.5 27.25 -7.0 26.85 -7.25 26.5 -7.5 26.1 -7.65 25.75 -7.9 25.35 -8.6 22.75 Q-9.2 20.2 -9.1 17.5 L-9.0 11.85 -9.0 10.35 -8.75 9.6 -8.25 8.15 -7.75 6.25 -6.85 3.6 -6.65 3.2 -6.5 2.85 -6.1 2.15 -5.6 1.35 -5.35 1.0 -5.0 0.75 -4.75 0.65 -4.0 0.55 -4.0 0.5 -2.5 0.5 -1.5 0.75 -0.85 0.85 -0.6 0.75 0.0 0.65 0.5 0.6 M6.0 19.0 L5.75 19.35 5.5 19.75 5.4 20.0 5.95 19.45 6.3 18.7 6.2 18.55 6.15 18.6 6.0 19.0 M-0.85 10.75 L-0.8 11.5 -0.6 12.35 Q-0.4 11.9 -0.5 11.35 L-0.6 10.6 Q-0.6 10.25 -0.75 9.95 L-0.85 10.0 -0.85 10.75" fill="#ffffff" fill-opacity="0.2" fill-rule="evenodd" stroke="none"/>
    <path d="M5.9 5.6 L6.15 6.0 6.4 6.35 6.45 6.75 6.5 7.1 6.5 7.85 6.5 9.0 6.5 9.75 6.25 10.5 5.75 11.95 5.3 13.85 Q5.1 14.4 5.15 15.0 L4.9 15.35 4.75 15.75 4.65 16.1 4.4 16.5 3.9 17.25 3.05 18.7 2.4 19.85 2.4 20.25 2.4 20.6 2.4 21.0 2.4 21.25 2.5 21.1 2.65 20.75 2.9 20.35 3.0 20.0 3.15 19.6 3.25 19.25 3.5 18.85 4.0 18.1 4.9 16.65 Q5.3 15.9 6.0 15.5 L7.0 15.25 7.75 15.4 8.0 15.5 8.5 15.5 8.75 15.4 9.5 15.25 10.0 15.25 11.0 15.5 11.5 15.9 11.9 16.25 12.0 16.6 12.15 17.0 12.25 17.35 12.2 17.75 12.15 18.1 12.0 18.5 11.9 18.85 11.65 19.25 11.5 19.6 11.4 20.0 11.25 20.35 11.15 20.75 11.25 21.1 11.4 21.5 11.5 21.85 11.65 22.25 11.65 22.6 11.65 23.0 11.75 23.35 11.7 23.75 11.65 24.1 11.5 24.5 11.4 24.85 11.15 25.25 10.8 26.0 Q10.45 27.0 9.5 27.5 L8.25 28.1 7.5 28.25 6.65 28.35 6.35 28.75 6.0 29.1 5.1 29.85 4.25 30.5 3.5 30.55 -0.5 30.6 -1.6 30.35 -2.1 30.65 -2.6 31.0 -3.5 31.25 -5.5 31.1 -6.4 30.9 -7.5 30.6 -8.5 30.35 -9.25 30.0 -9.9 29.6 -10.25 29.25 -11.0 28.5 -12.1 27.0 -12.75 25.85 -12.9 25.5 -13.0 25.1 -13.15 24.75 -13.4 24.35 -13.5 24.0 -13.65 23.6 -13.75 23.25 -13.9 22.85 -14.15 22.5 -14.25 22.1 -14.4 21.75 -14.5 21.35 -14.65 21.0 -14.65 18.75 -14.4 15.0 -13.75 11.25 -13.6 10.9 -13.4 10.5 -13.25 10.15 -13.05 9.75 -12.9 9.35 -12.5 9.0 -12.0 8.65 -11.25 8.25 -10.75 8.0 -10.0 7.9 -9.0 7.85 -8.0 8.1 -7.5 8.5 -7.1 8.85 -6.25 9.6 -5.1 10.35 -4.85 10.75 -4.55 10.35 -3.5 8.5 Q-2.85 7.1 -1.5 6.25 L-0.5 6.0 0.5 5.9 1.5 5.85 2.0 5.6 2.5 5.25 3.5 5.05 3.5 5.0 4.5 5.0 5.4 5.25 5.9 5.6 M-10.35 20.1 L-10.25 20.5 -10.1 20.85 -9.9 21.25 -9.75 21.6 -9.65 22.0 -9.5 22.35 -9.4 22.75 -9.15 23.1 -9.0 23.5 -8.85 23.85 -8.75 24.0 Q-8.55 23.5 -8.8 22.95 L-9.15 22.25 -9.5 21.1 -9.9 20.4 -10.1 20.0 -10.25 19.75 -10.3 19.65 -10.35 19.65 -10.4 19.75 -10.35 20.1 M-2.35 22.85 L-2.35 23.25 -2.35 23.6 -2.35 24.0 -2.1 24.15 -1.9 24.1 -1.7 23.7 -1.6 23.35 -1.6 23.05 -1.9 22.65 -2.25 22.4 -2.35 22.4 -2.35 22.5 -2.35 22.85" fill="#ffffff" fill-opacity="0.2" fill-rule="evenodd" stroke="none"/>
    <path d="M11.5 11.9 L11.9 12.25 12.0 12.6 12.15 13.0 12.25 13.35 12.2 14.85 12.1 17.85 12.1 20.1 12.2 21.65 12.25 22.35 12.1 22.75 11.9 23.1 11.6 23.45 10.9 24.25 10.5 24.6 10.35 25.0 10.1 25.35 9.5 26.15 9.0 26.85 8.75 27.25 8.25 27.6 7.65 28.0 6.75 28.75 5.9 29.5 5.0 29.75 2.0 29.75 1.15 29.5 0.65 29.1 0.25 28.75 0.1 28.6 -1.0 28.35 -1.85 28.1 -2.25 27.85 Q-4.15 27.75 -6.0 27.0 L-10.25 24.75 -11.25 23.65 -12.8 21.35 -13.9 19.5 -14.15 19.1 -14.15 18.35 -14.15 16.5 -14.15 14.6 -14.1 13.1 -14.0 12.75 -13.65 12.0 -12.95 10.45 -11.95 9.0 -11.25 8.25 -10.5 7.85 -9.75 7.5 -9.4 7.1 -9.3 6.75 -9.2 6.35 -9.0 5.6 -8.75 4.85 -8.5 4.1 -8.25 3.75 -8.0 3.35 -7.6 2.6 -6.5 1.5 -5.5 1.3 -5.5 1.25 -4.5 1.25 -3.5 1.5 -3.0 1.9 -2.65 2.25 -2.25 3.0 -1.6 4.1 -1.45 4.4 -1.0 4.6 -0.75 4.5 0.0 4.35 0.75 4.1 1.0 3.7 1.15 3.35 1.5 3.0 2.0 2.6 3.0 2.35 3.5 2.35 4.5 2.6 5.0 3.0 5.25 3.35 5.4 3.7 5.65 4.1 5.65 4.85 5.65 6.35 5.65 8.25 5.6 9.75 5.5 10.1 5.5 10.45 5.75 10.85 6.4 11.25 7.0 11.6 7.4 12.0 7.75 12.35 7.95 12.3 8.4 12.0 8.75 11.6 9.25 11.35 10.0 11.25 11.0 11.5 11.5 11.9 M-9.9 14.8 L-9.9 14.85 -9.9 16.0 -9.9 17.1 -9.9 17.85 -9.75 18.25 -9.5 18.6 -9.25 18.85 -9.15 18.75 -9.15 18.35 -9.15 18.0 -9.15 17.6 -9.15 17.25 -9.45 16.1 -9.8 15.0 -9.9 14.8" fill="#ffffff" fill-opacity="0.2" fill-rule="evenodd" stroke="none"/>
    <path d="M0.95 -20.7 L0.9 -20.5 0.85 -20.3 0.8 -20.1 0.4 -19.55 -0.2 -18.8 -0.4 -18.4 -0.45 -18.25 -0.55 -17.85 -0.65 -17.5 -0.7 -17.3 Q-0.65 -16.15 -0.85 -15.05 L-1.25 -12.8 -1.65 -11.1 -1.65 -10.9 -1.7 -10.75 -1.85 -10.55 -1.9 -10.35 -1.95 -10.15 -2.1 -10.0 -2.15 -9.8 -2.2 -9.6 -2.25 -9.4 -2.95 -8.1 -3.85 -6.6 -4.35 -5.85 -4.55 -5.1 -4.8 -4.2 -4.95 -3.4 -5.05 -3.25 -5.15 -3.05 -5.2 -2.85 -5.3 -2.65 -5.35 -2.5 -5.4 -2.3 -5.55 -2.1 -5.55 -1.9 -5.6 -1.75 -5.65 -1.55 -5.7 -1.15 -5.85 -1.0 -6.05 -0.6 -6.2 -0.25 -6.35 -0.05 -6.4 0.15 -6.45 0.35 -6.55 0.5 -7.15 1.65 -8.0 3.0 -8.4 3.7 -8.45 3.9 -8.55 4.1 -8.6 4.25 -8.7 4.65 -8.7 4.85 -8.7 5.0 -8.7 5.2 -8.8 5.4 -8.9 5.6 -9.05 5.75 -9.3 5.95 -9.45 6.1 -9.85 6.15 -10.35 6.0 -10.6 5.8 -10.75 5.65 -10.9 5.45 -11.0 4.7 -10.95 3.75 -10.95 2.85 -10.95 2.65 -10.7 1.9 -10.5 0.95 -10.4 0.2 -10.3 0.0 -10.15 -0.75 -9.95 -1.85 -9.7 -2.8 -9.65 -2.95 -9.45 -3.2 -9.35 -3.35 -9.3 -3.55 -9.25 -3.75 -9.2 -3.9 -9.1 -4.1 -8.9 -4.3 -8.4 -5.8 -7.85 -7.5 -7.4 -8.8 -7.3 -9.0 -7.2 -9.15 -7.0 -9.55 -6.9 -9.75 -6.85 -9.9 -6.7 -10.3 -6.6 -10.65 -6.55 -10.85 -6.4 -11.05 -6.35 -11.25 -6.3 -11.4 -6.15 -11.6 -6.1 -11.8 -6.05 -12.0 -5.9 -12.15 -5.85 -12.35 -5.8 -12.55 -5.65 -12.75 -5.6 -12.9 -5.55 -13.1 -5.45 -13.3 -5.35 -13.5 -5.3 -13.65 -5.2 -13.85 -5.1 -14.05 -5.05 -14.25 -4.95 -14.4 -4.9 -14.6 -4.8 -14.8 -4.7 -15.0 -4.6 -15.15 -4.55 -15.35 -4.45 -15.55 -4.35 -15.75 -4.3 -15.95 -4.25 -16.1 -4.2 -16.3 -4.1 -16.65 -4.1 -16.85 -4.1 -17.05 -4.1 -17.25 -4.0 -17.4 -3.9 -17.6 -3.7 -17.8 -3.6 -18.0 -3.55 -18.2 -3.5 -18.35 -3.45 -18.55 -3.4 -18.9 -3.3 -19.1 -3.2 -19.3 -3.15 -19.5 -3.1 -19.65 -3.0 -19.85 -2.95 -20.05 -2.95 -20.25 -3.1 -20.1 -3.25 -19.95 -3.4 -19.9 -3.35 -20.1 -3.25 -20.3 -3.15 -20.5 -3.0 -20.7 -2.95 -20.85 -2.9 -21.05 -2.9 -21.25 -2.8 -21.45 -2.7 -21.6 -2.6 -21.8 -2.5 -22.0 -2.4 -22.35 -2.25 -22.75 -2.2 -22.95 -2.1 -23.1 -2.05 -23.3 -2.0 -23.5 -1.9 -23.7 -1.55 -23.75 -1.5 -23.8 -1.2 -23.7 -1.1 -23.5 -0.95 -23.3 -0.95 -23.1 -0.95 -22.95 -0.95 -22.75 -1.0 -22.55 -1.1 -22.35 -1.15 -22.2 -1.15 -22.0 -1.15 -21.8 -1.25 -21.6 -1.45 -21.25 -1.6 -20.85 -1.65 -20.7 -1.65 -20.5 -1.6 -20.4 -1.5 -20.4 -1.2 -20.8 -0.95 -21.15 -0.65 -21.55 -0.4 -21.7 0.0 -21.75 0.4 -21.6 0.65 -21.45 0.8 -21.25 0.9 -21.05 1.0 -20.85 0.95 -20.7" fill="#ff9900" fill-opacity="0.2" fill-rule="evenodd" stroke="none"/>
    <path d="M0.1 -21.8 L0.25 -21.6 0.3 -21.45 0.35 -21.25 0.5 -21.05 0.4 -17.7 -0.2 -13.75 -0.65 -11.1 -0.5 -10.35 -0.2 -9.25 -0.05 -8.1 0.0 -7.9 0.05 -7.55 0.25 -6.8 0.55 -5.85 0.6 -5.5 0.75 -5.3 0.8 -5.1 0.85 -4.9 0.9 -4.75 0.95 -4.55 1.0 -4.35 1.1 -4.15 1.25 -4.0 1.35 -3.8 1.5 -3.6 1.55 -3.4 1.6 -3.25 1.75 -3.05 1.75 -2.85 1.8 -2.65 1.8 -2.5 1.8 -2.3 1.85 -2.15 2.0 -1.95 2.25 -1.75 2.35 -1.55 2.45 -1.35 2.55 -1.15 2.55 -1.0 2.55 -0.8 2.55 -0.6 2.45 -0.45 2.35 -0.25 2.3 -0.05 2.05 0.15 1.85 0.25 1.5 0.35 1.0 0.2 0.6 0.0 0.3 -0.15 0.1 -0.35 -0.1 -0.55 -0.25 -0.75 -0.65 -1.1 -0.95 -1.1 -1.15 -1.0 -1.5 -0.9 -2.0 -1.05 -2.25 -1.25 -2.4 -1.35 -2.5 -1.35 -3.0 -1.35 -3.45 -1.5 -3.7 -1.7 -3.9 -1.85 -4.05 -2.05 -4.35 -2.4 -4.4 -3.0 -4.35 -4.1 -4.35 -5.25 -4.35 -5.6 -4.3 -5.8 -4.2 -6.0 -4.0 -8.8 -4.0 -12.35 -3.9 -15.0 -3.85 -15.15 -3.75 -15.35 -3.65 -15.55 -3.4 -17.05 -2.9 -19.3 -2.4 -21.2 -2.3 -21.35 -2.2 -21.55 -2.0 -21.75 -1.85 -21.95 -1.65 -22.1 -1.4 -22.25 -1.05 -22.25 -1.0 -22.3 -0.75 -22.3 -0.25 -22.2 0.0 -22.0 0.1 -21.8" fill="#ff9900" fill-opacity="0.2" fill-rule="evenodd" stroke="none"/>
    <path d="M6.65 -13.25 L6.75 -13.4 6.85 -13.6 7.05 -13.8 7.25 -13.9 7.35 -13.95 7.7 -14.0 7.75 -14.05 8.25 -13.9 8.45 -13.75 8.65 -13.55 8.8 -13.35 9.0 -13.0 9.05 -12.8 9.05 -12.6 9.05 -12.4 9.05 -12.25 9.05 -12.05 9.05 -11.85 9.15 -11.65 9.3 -11.5 9.4 -11.3 9.5 -11.1 9.5 -10.9 9.45 -10.75 9.45 -10.55 9.4 -10.35 9.35 -10.2 9.25 -10.0 9.1 -9.8 9.05 -9.6 Q9.05 -6.2 9.45 -2.85 L9.65 -0.05 Q9.75 3.75 9.35 7.45 L8.9 9.5 8.8 9.7 8.75 9.9 8.6 10.25 8.45 10.85 8.3 11.4 8.1 11.75 7.75 12.35 7.25 13.1 7.1 13.25 7.1 13.45 7.05 13.65 6.9 13.85 6.8 14.0 6.55 14.2 6.35 14.35 6.0 14.4 5.5 14.25 5.25 14.1 5.05 13.9 4.9 13.7 4.85 13.5 4.85 13.35 4.85 13.15 4.85 12.95 4.85 12.75 4.9 12.6 5.0 12.4 5.05 12.2 5.15 11.85 5.25 11.65 5.35 11.45 5.4 11.25 5.5 10.9 5.6 10.3 5.85 9.6 5.85 5.65 5.85 0.95 5.85 -2.8 5.75 -2.75 5.6 -2.6 5.55 -2.4 5.35 -2.25 5.1 -2.05 4.7 -1.55 4.05 -0.5 3.3 0.35 3.0 0.4 2.55 0.25 2.3 0.1 2.15 -0.1 2.1 -0.3 2.1 -0.5 2.1 -0.65 2.1 -0.85 2.15 -1.05 2.4 -1.4 2.8 -2.0 3.3 -2.75 3.4 -2.9 3.5 -3.1 3.55 -3.3 3.6 -3.5 3.75 -3.65 4.1 -4.05 4.45 -4.45 4.6 -4.6 4.65 -4.8 4.75 -5.0 4.85 -5.35 5.0 -5.75 5.05 -5.9 5.15 -6.1 5.25 -6.3 5.35 -6.5 5.45 -6.65 5.55 -6.85 5.65 -7.65 6.05 -8.9 6.5 -10.25 6.55 -10.4 6.65 -10.6 6.65 -11.0 6.65 -11.75 6.65 -12.65 6.65 -13.25" fill="#ff9900" fill-opacity="0.2" fill-rule="evenodd" stroke="none"/>
    <path d="M6.6 -12.6 L6.8 -12.8 7.0 -12.9 7.1 -12.95 7.45 -13.0 7.5 -13.05 8.0 -12.9 8.25 -12.75 8.35 -12.55 8.45 -12.35 8.55 -12.15 8.55 -12.0 8.55 -11.8 8.55 -11.4 8.5 -11.05 8.5 -10.85 8.5 -10.7 8.6 -10.5 8.65 -10.3 8.7 -10.1 8.7 -9.9 8.7 -9.75 8.65 -9.55 8.75 -7.85 8.75 -5.8 8.65 -3.9 8.75 -3.75 8.85 -3.55 9.0 -3.35 9.05 -3.15 9.1 -3.0 9.25 -2.8 9.4 -2.25 9.55 -1.1 9.55 0.0 9.55 0.2 9.5 0.4 9.4 0.6 9.35 0.75 9.3 0.95 9.15 1.15 8.95 1.5 8.4 2.05 8.25 2.2 8.1 2.25 7.75 2.3 7.0 2.35 6.5 2.2 6.1 2.0 5.8 1.85 5.6 1.65 5.4 1.25 5.1 0.7 4.9 0.35 4.9 0.15 4.9 -0.4 4.9 -1.0 4.9 -1.55 4.9 -1.7 4.8 -1.9 4.6 -2.1 4.5 -2.3 4.45 -2.5 4.4 -2.65 4.4 -2.85 4.4 -3.05 4.4 -3.25 4.5 -3.4 4.6 -3.6 4.7 -3.8 4.8 -4.0 5.1 -4.9 5.5 -6.45 5.85 -7.75 5.85 -8.3 5.9 -9.25 5.95 -10.15 6.0 -10.35 6.05 -10.55 6.15 -10.75 6.2 -10.95 6.25 -11.1 6.25 -11.3 6.25 -11.5 6.25 -11.65 6.3 -11.85 6.35 -12.05 6.4 -12.25 6.5 -12.4 6.6 -12.6" fill="#ff9900" fill-opacity="0.2" fill-rule="evenodd" stroke="none"/>
    <path d="M15.65 5.65 L15.9 5.85 16.05 6.0 16.15 6.2 16.25 6.4 16.2 6.6 16.15 6.75 16.1 6.95 15.95 7.15 15.8 7.35 15.4 7.5 15.25 7.7 15.1 7.9 15.0 8.1 14.9 8.2 15.0 8.2 15.5 8.35 15.75 8.5 15.85 8.7 15.95 8.9 16.05 9.1 16.05 9.25 16.05 9.45 16.05 9.65 16.05 9.85 16.05 10.2 16.1 10.4 16.25 10.55 16.5 10.75 16.6 10.95 16.7 11.15 16.8 11.35 16.8 12.65 16.65 14.15 16.2 15.85 16.0 16.6 16.0 16.75 16.0 16.95 15.9 17.15 15.8 17.35 15.75 17.5 15.65 17.7 15.6 17.9 15.55 18.1 15.4 18.25 15.25 18.45 15.15 18.65 15.05 19.0 14.85 19.6 14.65 20.15 14.6 20.35 13.45 22.4 12.05 24.85 Q11.4 26.1 10.35 27.0 L10.0 27.1 9.5 26.95 9.25 26.75 9.05 26.55 9.0 26.4 8.95 26.2 8.9 26.0 8.9 25.85 9.0 25.65 9.05 25.45 9.1 25.25 9.25 25.1 9.5 24.9 10.35 23.35 11.35 21.7 12.35 20.0 12.5 19.85 12.55 19.65 12.65 19.25 12.85 18.7 13.05 18.15 13.1 17.95 13.25 17.75 13.3 17.6 13.35 17.4 13.5 17.2 13.55 17.0 13.6 16.85 13.65 16.65 13.7 16.45 13.7 16.25 13.65 16.1 13.65 15.9 13.65 15.6 13.65 15.55 13.25 15.4 13.0 15.2 12.85 15.0 12.8 14.85 12.7 14.1 12.75 12.75 12.75 11.65 12.75 10.9 12.7 10.85 Q12.55 10.85 12.5 10.95 L12.15 11.15 12.0 11.35 11.85 11.5 11.65 11.7 11.3 12.1 11.25 12.25 11.15 12.45 10.95 12.65 10.8 12.75 10.5 12.85 10.05 12.7 9.85 12.5 9.75 12.35 9.7 12.15 9.65 11.95 9.65 11.75 9.65 11.6 9.75 11.4 9.9 11.2 10.1 10.85 10.6 10.25 10.75 10.1 10.8 9.9 10.85 9.7 10.95 9.5 11.05 9.35 11.2 9.15 11.35 8.95 11.65 8.75 11.85 8.6 12.05 8.4 12.3 8.0 12.75 7.45 12.8 7.3 13.05 6.9 13.65 6.1 14.25 5.65 14.35 5.6 14.7 5.55 14.75 5.5 15.25 5.5 15.65 5.65" fill="#ff9900" fill-opacity="0.2" fill-rule="evenodd" stroke="none"/>
    <path d="M14.9 6.6 L15.2 6.55 15.25 6.5 15.6 6.65 15.8 6.85 15.9 7.0 16.15 7.2 16.3 7.4 16.4 7.6 16.5 7.75 16.55 8.7 16.5 10.2 16.5 11.7 16.35 12.1 16.2 12.65 16.05 13.2 15.9 13.6 15.65 13.95 15.25 14.55 14.6 15.2 14.25 15.25 13.75 15.25 13.25 15.15 13.0 14.95 12.8 14.75 12.65 14.6 12.55 14.4 12.45 13.1 Q12.45 12.1 12.7 11.2 L13.1 9.7 13.2 9.5 13.3 9.35 13.4 9.15 13.5 8.95 13.55 8.75 13.6 8.6 13.65 8.4 13.75 8.2 13.85 8.0 14.0 7.85 14.2 7.65 14.4 7.45 14.5 7.25 14.5 7.1 14.55 6.9 14.75 6.7 14.9 6.6" fill="#ff9900" fill-opacity="0.2" fill-rule="evenodd" stroke="none"/>
    <path d="M-12.7 -1.1 L-12.6 -1.05 -12.15 -0.9 -11.95 -0.75 -11.8 -0.55 -11.65 -0.35 -11.6 -0.15 -11.55 0.0 -11.55 0.2 -11.55 0.4 -11.45 0.6 -11.4 0.75 -11.35 0.95 -11.3 1.15 -11.3 1.5 -11.25 1.9 -11.2 2.45 -11.05 3.0 -11.05 3.2 -11.05 3.4 -10.9 3.75 -10.9 3.95 -10.8 4.35 -10.6 4.9 -10.6 5.1 -10.6 5.25 -10.6 5.45 -10.6 5.65 -10.65 5.85 -10.75 6.0 -10.85 6.2 -10.95 6.35 -11.05 6.4 -11.35 6.45 -11.7 6.4 -11.85 6.6 -11.85 7.5 -11.85 9.0 -11.8 10.5 -11.8 10.7 -11.65 11.1 -11.6 11.45 -11.45 12.2 -11.3 12.95 -11.25 13.35 -11.2 13.7 -11.1 14.45 -11.1 15.2 -10.95 15.6 -10.85 15.95 -10.7 16.5 -10.55 17.1 -10.4 17.25 -10.3 17.65 -10.2 17.85 -10.1 18.2 -9.9 18.75 -9.85 18.95 -9.85 19.15 -9.85 19.35 -9.85 19.5 -9.8 19.7 -9.8 19.9 -9.8 20.1 -9.7 20.25 -9.55 20.45 -9.4 20.65 -9.3 20.85 -9.2 21.0 -9.15 21.2 -9.05 21.4 -8.9 21.6 -8.8 21.75 -8.65 21.95 -8.6 22.15 -8.55 22.35 -8.5 22.55 -8.45 22.7 -8.4 22.9 -8.3 23.1 -8.2 23.25 -8.15 23.45 -8.1 23.65 -8.05 23.85 -7.95 24.0 -7.85 24.2 -7.8 24.6 -7.8 24.75 -7.8 25.15 -7.85 25.5 -7.9 25.7 -8.0 25.9 -8.1 26.1 -8.2 26.3 -8.3 26.45 -8.55 26.65 -8.7 26.75 -9.1 26.8 -9.6 26.85 -10.1 26.7 -10.35 26.5 -10.55 26.35 -10.9 25.6 -11.7 24.35 -12.4 23.35 -12.45 22.95 -12.55 22.75 -12.65 22.4 -12.85 21.85 -12.9 21.65 -13.05 21.45 -13.6 19.55 -14.25 17.15 -14.7 15.25 -14.8 15.1 -14.9 14.9 -15.1 13.75 -15.5 12.1 -15.9 10.6 -15.9 7.6 Q-15.95 5.75 -15.55 4.0 L-14.9 1.4 -14.9 1.2 -14.9 1.0 -14.9 0.85 -14.9 0.65 -14.85 0.45 -14.8 0.25 -14.65 0.1 -14.45 -0.1 -14.15 -0.3 -14.05 -0.5 -13.95 -0.65 -13.75 -0.85 -13.55 -1.05 -13.1 -1.15 -12.7 -1.1" fill="#ff9900" fill-opacity="0.2" fill-rule="evenodd" stroke="none"/>
    <path d="M-11.9 -3.8 L-11.65 -3.6 -11.55 -3.4 -11.45 -3.25 -11.4 -3.05 -11.4 -2.65 -11.4 -2.1 -11.45 -1.6 -11.35 -1.6 -10.9 -1.5 -10.7 -1.3 -10.6 -1.1 -10.55 -0.9 -10.5 -0.75 -10.45 -0.55 -10.45 -0.35 -10.45 -0.15 -10.6 0.2 -10.8 0.75 -11.05 1.5 -11.1 1.7 -11.2 1.9 -11.35 2.1 -11.4 2.25 -11.55 2.45 -11.85 3.75 -12.1 5.25 -12.45 6.95 -12.55 7.15 -12.65 7.35 -12.75 7.5 -12.85 7.7 -12.85 8.1 -12.85 8.85 -12.85 9.75 -12.85 10.15 -12.25 12.75 -11.6 15.4 -10.9 17.85 -10.9 18.0 -10.9 18.2 -10.85 18.4 -10.8 18.6 -10.7 18.75 -10.7 18.95 -10.75 19.15 -10.75 19.35 -10.8 19.5 -10.85 19.7 -10.95 19.9 -11.1 20.0 -11.35 20.1 -11.7 19.95 -12.0 19.75 -12.3 19.6 -12.4 19.4 -12.45 19.2 -12.55 19.0 -12.55 18.85 -12.6 18.65 -12.7 18.45 -12.8 18.25 -12.85 18.1 -12.9 17.7 -13.05 17.35 -13.15 17.15 -13.85 14.9 -14.35 12.65 -14.85 10.6 -14.85 10.4 -14.85 10.2 -14.85 10.0 -14.85 9.85 -14.85 9.65 -14.9 9.5 -15.05 9.3 -15.3 9.1 -15.4 8.9 -15.45 8.7 -15.45 8.5 -15.45 8.35 -15.45 8.15 -15.4 7.95 -15.35 7.75 -15.3 7.6 -15.2 7.4 -15.2 7.2 -15.2 7.0 -15.25 6.85 -15.35 6.65 -15.5 6.45 -15.65 6.25 -15.65 6.1 -15.65 5.9 -15.65 5.7 -15.65 5.5 -15.6 5.35 -15.45 5.15 -15.4 4.95 -15.4 4.75 -15.4 4.6 -15.4 4.4 -15.4 4.2 -15.45 4.05 -15.55 3.85 -15.55 3.65 -15.6 3.25 -15.6 2.7 -15.6 2.35 -15.5 2.15 -15.4 1.95 -15.35 1.75 -15.3 1.6 -15.2 1.4 -15.15 1.2 -15.1 1.0 -15.0 0.8 -14.9 0.65 -14.7 0.25 -14.6 0.1 -14.55 -0.1 -14.55 -0.3 -14.4 -0.5 -14.2 -0.7 -14.1 -0.85 -14.0 -1.25 -13.8 -2.0 -13.6 -2.75 -13.45 -3.1 -13.35 -3.3 -13.15 -3.5 -12.95 -3.65 -12.8 -3.8 -12.65 -3.85 -12.35 -3.9 -11.9 -3.8" fill="#ff9900" fill-opacity="0.2" fill-rule="evenodd" stroke="none"/>
    <path d="M15.35 4.15 L15.25 3.0 15.75 2.5 Q16.1 2.65 16.25 3.2 17.3 6.75 17.2 10.5 L17.0 15.2 16.55 17.25 16.05 18.4 Q14.2 22.1 11.35 24.95 L10.4 25.95 9.55 27.0 9.2 27.15 8.95 27.25 8.75 27.4 8.35 27.75 7.95 28.1 7.75 28.25 7.75 28.0 7.95 27.7 8.7 27.0 8.8 26.85 Q9.1 25.9 9.7 25.1 L9.9 24.8 12.0 22.2 Q13.55 20.35 14.55 18.2 15.8 15.55 15.85 12.8 L15.75 8.55 15.35 4.15 15.35 4.5 Q15.3 5.4 14.65 6.05 L13.3 7.55 12.55 8.4 11.85 9.2 11.1 9.9 10.45 10.4 Q9.85 10.65 9.4 11.2 L8.95 12.0 8.1 13.1 8.3 12.5 8.45 11.75 8.7 10.85 9.15 9.7 Q10.75 2.4 9.1 -4.9 L7.15 -12.05 6.75 -13.35 6.65 -13.5 6.55 -13.7 6.45 -13.9 6.25 -14.5 6.15 -14.9 6.0 -15.4 Q5.65 -15.95 6.05 -16.55 L6.35 -16.55 6.75 -16.05 7.2 -14.7 7.5 -13.95 7.6 -13.55 7.75 -13.2 7.8 -13.0 7.95 -12.6 8.15 -12.0 9.0 -9.4 Q11.1 -2.45 10.9 4.65 L10.6 8.85 Q12.65 6.75 14.0 4.2 L14.7 3.65 15.35 4.15 M0.35 -28.05 L1.15 -28.25 Q1.45 -27.9 0.85 -27.5 L0.8 -26.75 1.05 -26.3 0.45 -21.75 Q0.1 -19.0 0.1 -16.15 0.15 -9.2 1.55 -2.35 L1.95 -3.05 2.5 -4.55 Q2.75 -5.45 3.15 -6.05 4.5 -8.15 5.15 -10.75 L5.1 -12.95 Q4.95 -13.7 5.55 -13.95 L5.95 -13.2 Q6.4 -10.6 5.55 -8.1 L5.05 -6.75 4.7 -6.0 Q4.05 -5.05 3.75 -4.0 3.3 -2.35 2.05 -1.45 L1.75 -1.65 Q1.35 -2.0 1.1 -2.7 L0.6 -3.1 0.3 -3.85 Q-1.05 -8.15 -1.05 -12.65 L-0.9 -23.05 -3.75 -17.8 -5.15 -14.8 -6.1 -11.85 Q-6.3 -10.75 -6.75 -9.6 L-7.7 -7.25 Q-9.25 -3.1 -9.9 1.4 L-10.45 3.65 Q-11.5 3.8 -11.25 2.7 L-11.25 2.65 -11.8 1.95 Q-12.75 -0.4 -13.2 -2.6 L-14.85 2.05 Q-17.15 9.85 -14.4 17.45 L-13.65 19.5 -11.4 24.45 -9.8 28.1 -10.05 28.05 -11.85 25.7 -14.0 21.9 -15.15 19.2 Q-18.85 9.65 -15.45 -0.1 L-15.3 -0.55 Q-14.65 -2.8 -13.45 -4.65 L-12.3 -6.1 -11.65 -6.3 -11.55 -6.1 -11.9 -4.8 Q-12.15 -1.9 -10.9 1.75 L-10.9 1.6 -10.75 0.65 -9.9 -3.3 -9.0 -7.65 -8.65 -8.55 Q-7.3 -10.45 -6.8 -12.7 L-6.7 -13.2 -5.6 -16.25 -5.1 -17.35 -3.4 -21.15 Q-2.3 -23.45 -0.7 -25.05 L0.35 -28.05" fill="#333333" fill-rule="evenodd" stroke="none"/>
    <path d="M5.05 -15.2 L5.1 -15.3 5.1 -15.4 5.1 -15.5 5.1 -15.6 5.1 -15.7 5.15 -15.8 5.15 -15.9 5.2 -15.95 5.25 -16.05 5.3 -16.15 5.35 -16.25 5.4 -16.35 5.45 -16.45 5.5 -16.55 5.6 -16.6 5.85 -16.65 5.85 -16.7 6.05 -16.6 6.15 -16.55 6.2 -16.45 6.25 -16.35 6.25 -16.25 6.25 -16.05 6.25 -15.85 6.25 -15.7 6.25 -15.6 6.2 -15.5 6.2 -15.4 6.15 -15.3 6.15 -15.2 6.1 -15.15 6.05 -15.05 6.0 -14.65 6.0 -14.1 6.0 -13.55 6.05 -13.45 6.1 -13.35 6.2 -13.25 6.25 -13.15 6.25 -13.05 6.3 -12.95 6.3 -12.85 6.3 -12.8 6.25 -12.7 6.15 -12.6 6.0 -12.5 5.85 -12.45 5.6 -12.5 5.5 -12.6 5.45 -12.7 5.4 -12.8 5.35 -12.85 5.3 -12.95 5.25 -13.05 5.1 -13.15 5.0 -13.25 4.95 -13.35 4.9 -13.7 4.95 -14.3 4.95 -14.85 4.95 -14.95 5.0 -15.05 5.05 -15.1 5.05 -15.2" fill="#333333" fill-rule="evenodd" stroke="none"/>
  </g>
</svg>
