<?xml version="1.0" encoding="UTF-8" standalone="no"?>
<svg xmlns:xlink="http://www.w3.org/1999/xlink" height="51.7px" width="33.9px" xmlns="http://www.w3.org/2000/svg">
  <g transform="matrix(1.0, 0.0, 0.0, 1.0, 17.15, 19.95)">
    <path d="M-11.4 -3.75 L-10.9 -5.65 -10.0 -5.9 -9.25 -5.65 -8.15 -3.75 Q-8.55 -1.5 -7.25 0.25 -6.75 0.4 -6.3 0.7 -5.9 0.95 -5.85 1.35 -5.55 3.6 -5.6 5.85 L-5.45 15.25 -5.55 15.95 -6.9 21.25 -7.1 22.0 Q-7.7 24.5 -8.65 26.75 L-10.4 26.75 Q-12.05 25.3 -13.0 23.35 L-13.35 22.65 -14.6 20.55 -15.7 18.05 Q-16.4 15.5 -15.85 13.25 L-15.15 12.6 Q-14.25 12.45 -13.35 12.95 L-12.55 13.75 Q-11.85 14.7 -11.95 15.85 L-11.05 16.5 Q-11.3 14.9 -12.1 13.5 L-12.65 12.0 -13.05 7.5 Q-13.2 5.85 -12.65 4.1 -12.25 2.9 -12.3 1.5 L-12.15 0.75 Q-11.85 0.25 -12.0 -0.4 -12.15 -1.3 -11.65 -2.25 -11.35 -2.85 -11.4 -3.75" fill="#ffffcc" fill-rule="evenodd" stroke="none"/>
    <path d="M0.35 -3.75 L0.55 -3.4 Q1.55 -1.5 1.3 0.7 1.2 1.35 0.6 1.7 L-0.85 1.85 -1.3 3.35 -1.7 4.0 -2.45 4.5 -3.9 4.6 -4.4 3.85 -4.45 1.5 -5.5 2.1 -6.25 1.85 Q-6.85 0.0 -6.7 -1.9 L-6.4 -4.1 -6.2 -5.25 -6.05 -5.95 -5.25 -9.0 -5.25 -10.15 Q-5.4 -11.15 -4.75 -11.85 L-2.5 -12.65 -1.85 -12.4 -1.35 -11.25 -1.4 -10.5 -1.15 -8.25 Q-0.7 -6.1 0.35 -3.75" fill="#ffffcc" fill-rule="evenodd" stroke="none"/>
    <path d="M4.65 8.6 L4.4 9.0 5.65 11.25 5.65 10.85 Q5.7 9.45 4.65 8.6 M3.9 -16.15 L5.0 -16.65 6.15 -15.9 6.45 -15.25 Q6.55 -14.5 7.0 -13.75 L7.55 -11.9 Q7.6 -10.7 7.95 -9.65 L8.05 -8.9 Q8.05 -7.7 8.5 -6.65 L9.1 -5.1 9.5 -2.9 9.8 3.5 9.65 11.75 Q8.9 13.0 7.5 12.85 L7.1 13.35 7.15 14.1 7.0 15.25 6.8 16.0 Q6.6 17.55 6.55 19.35 6.45 21.3 5.6 23.15 L5.1 24.65 Q4.75 26.2 3.75 27.6 L2.35 29.15 Q1.5 29.95 0.45 30.5 L-3.0 30.75 Q-4.55 30.2 -5.05 28.7 L-7.2 27.75 -8.7 28.65 -12.4 28.55 Q-13.25 28.25 -13.3 27.6 -13.45 24.0 -11.75 20.85 L-10.75 18.55 Q-9.55 15.7 -9.15 12.6 L-9.3 11.85 -9.3 7.0 Q-9.3 4.55 -8.2 2.5 -7.0 0.4 -5.4 -1.55 L-3.7 -3.8 Q-3.3 -4.4 -2.7 -4.6 -1.4 -4.7 -0.25 -5.25 L1.5 -7.9 Q2.25 -9.2 2.4 -10.9 L3.15 -12.0 3.4 -15.4 3.9 -16.15" fill="#ffffcc" fill-rule="evenodd" stroke="none"/>
    <path d="M16.25 0.75 L16.25 3.35 16.05 9.0 Q15.8 11.95 14.75 14.6 L13.25 18.25 14.65 19.75 14.6 20.1 14.4 20.8 12.9 23.35 10.15 24.75 8.9 26.85 6.65 27.0 Q6.2 27.45 5.5 27.5 4.2 27.25 3.65 26.1 L2.25 26.1 3.2 25.3 3.65 24.5 4.05 23.5 Q4.65 20.95 5.9 19.0 L5.75 16.35 Q5.65 15.2 6.05 14.15 L6.3 13.35 6.9 11.85 7.05 11.15 Q6.95 9.95 7.4 8.85 L8.15 8.5 8.4 8.1 9.0 7.45 10.1 6.5 10.95 5.95 Q12.95 4.9 13.4 2.85 L13.5 2.1 Q13.5 0.9 14.25 0.0 L15.0 -0.2 16.25 0.75" fill="#ffffcc" fill-rule="evenodd" stroke="none"/>
    <path d="M2.5 4.05 L2.5 4.0 3.4 4.25 3.9 4.6 4.15 5.0 4.4 5.35 4.55 8.35 4.5 12.1 4.5 15.35 4.7 15.2 4.85 14.85 4.9 14.5 5.05 14.15 5.25 13.75 5.65 13.4 6.0 13.1 6.25 13.0 7.0 12.85 8.0 13.1 8.5 13.5 8.75 13.9 8.9 14.25 9.15 14.6 9.15 16.1 9.15 18.35 9.15 20.6 9.15 21.0 9.0 21.35 8.9 21.75 8.75 22.1 7.7 23.95 5.85 26.9 4.5 28.35 4.25 28.45 3.5 28.6 2.5 28.35 2.0 28.0 1.65 27.6 1.5 27.25 Q1.4 27.1 1.25 27.1 L-1.6 26.75 -1.9 27.1 -2.25 27.5 -2.5 27.75 -2.75 27.85 -3.5 27.95 -5.0 28.0 -6.0 27.75 -6.5 27.5 -7.5 27.25 -8.0 26.85 -8.4 26.5 -9.1 25.7 -9.4 25.35 -9.45 25.0 -9.5 24.6 -9.85 24.25 -10.15 23.85 -10.2 23.5 -10.4 23.1 -10.65 22.75 -10.7 22.35 -10.75 22.0 -10.75 21.6 -10.9 21.25 -10.95 20.85 -11.0 20.5 -10.95 20.1 -10.9 19.75 -10.75 19.35 -10.65 19.0 -10.5 18.6 -10.25 18.25 -9.9 17.85 -9.5 17.5 -9.0 17.1 -8.2 16.65 -8.15 16.35 -8.1 16.0 -8.0 15.65 -7.75 15.25 -7.4 14.85 -7.4 14.5 -7.5 14.1 -7.75 13.35 -8.0 12.6 -8.0 11.85 -8.0 10.35 -8.0 8.85 -8.0 8.1 -7.85 7.75 -7.65 7.35 -7.4 7.0 -7.0 6.75 -6.75 6.65 -6.0 6.5 -5.1 6.75 -4.6 7.1 -4.35 7.5 -4.1 7.85 -4.0 7.85 -4.0 7.5 -4.0 7.1 -3.95 6.75 -3.85 6.35 -3.7 6.0 -3.5 5.6 -3.0 5.25 -2.0 5.0 -1.1 5.25 -0.6 5.6 -0.35 6.0 -0.1 6.35 -0.05 7.1 0.0 8.25 0.0 9.75 0.0 10.25 0.25 9.6 0.5 8.1 0.5 6.25 0.5 5.5 0.65 5.15 0.9 4.75 1.25 4.35 1.75 4.1 2.5 4.05" fill="#ffffff" fill-opacity="0.2" fill-rule="evenodd" stroke="none"/>
    <path d="M0.65 4.75 L0.9 5.1 1.0 5.5 1.15 5.85 1.25 6.25 1.35 6.3 1.75 6.1 2.15 5.75 2.5 5.5 2.75 5.4 3.5 5.25 4.5 5.5 5.0 5.9 5.4 6.25 5.55 6.6 5.75 7.0 5.9 7.35 6.0 7.75 6.15 8.1 6.25 8.5 6.25 8.85 6.25 9.25 6.25 9.6 6.25 10.0 6.25 10.35 6.6 11.45 6.75 13.35 6.8 15.25 6.9 15.85 7.25 15.85 8.0 15.75 9.0 16.0 9.5 16.4 9.9 16.75 10.0 17.1 10.15 17.5 10.25 17.85 10.2 18.25 10.15 18.6 10.0 19.0 9.9 19.35 9.75 19.75 9.9 20.1 10.0 20.5 10.15 20.85 10.25 21.25 10.25 21.6 10.25 22.75 10.25 23.85 10.25 25.35 10.1 25.75 9.9 26.1 9.65 26.5 9.1 26.85 8.75 27.1 7.9 27.35 7.75 27.75 7.65 28.1 7.5 28.5 7.4 28.85 7.15 29.25 6.8 30.0 Q6.6 30.7 6.0 31.1 L5.5 31.5 4.5 31.75 3.5 31.5 3.0 31.1 2.65 30.75 2.4 30.35 2.3 30.0 2.25 29.25 2.25 28.5 2.3 27.75 2.4 27.35 2.45 27.2 1.9 27.25 1.4 27.5 1.15 27.6 0.5 27.7 -0.6 27.55 -2.0 27.25 -2.5 26.85 -2.75 26.5 -3.0 26.1 -3.5 26.15 -4.35 26.25 -4.75 26.5 -5.5 26.6 -6.5 26.6 -7.5 26.35 -8.0 26.0 -8.35 25.6 -8.5 25.25 -8.6 24.85 -8.65 24.5 -8.65 24.1 -8.8 23.75 -9.0 23.35 -9.1 23.0 -9.15 22.6 -9.15 21.85 -9.15 21.1 -9.15 20.75 -9.0 20.35 -8.9 20.0 -8.75 19.6 -8.65 19.25 -8.65 18.85 -8.65 18.5 -8.65 18.1 -8.65 17.75 -8.5 17.35 -8.4 17.0 -8.25 16.6 -8.15 16.25 -8.1 14.0 -8.2 10.6 -8.25 8.35 -8.25 6.85 -8.1 6.5 -7.75 6.1 -7.35 5.75 -7.0 5.5 -6.75 5.4 -6.0 5.25 -5.0 5.5 -4.5 5.85 -4.25 6.0 -4.15 5.75 -4.15 5.35 -4.2 5.0 -4.25 4.25 -4.25 3.85 -4.1 3.5 -3.75 3.1 -3.35 2.75 -3.0 2.5 -2.75 2.4 -2.0 2.3 -2.0 2.25 -1.0 2.5 -0.55 2.9 0.05 3.65 0.65 4.75" fill="#ffffff" fill-opacity="0.2" fill-rule="evenodd" stroke="none"/>
    <path d="M6.5 12.35 L7.25 12.75 7.9 13.1 8.25 13.5 8.5 13.85 8.75 14.25 8.85 14.6 8.85 15.75 8.8 16.5 8.75 17.25 8.75 17.6 8.75 18.0 8.75 18.75 8.75 19.85 8.65 20.25 8.5 20.6 8.4 21.0 8.25 21.35 8.15 21.75 8.0 22.1 7.8 22.5 7.6 22.85 7.25 23.6 6.75 24.35 6.35 24.7 6.0 25.0 5.75 25.1 5.0 25.2 2.9 25.1 2.25 25.5 1.5 25.85 0.5 26.1 -1.35 26.35 -1.75 26.6 -2.5 26.75 -3.5 26.5 -4.0 26.1 -4.35 25.75 -4.75 25.35 -5.25 25.1 -5.75 25.5 -6.35 25.85 -6.75 26.1 -7.5 26.2 -10.5 26.25 -11.5 26.0 -12.0 25.6 -12.35 25.25 -12.65 24.85 -12.7 24.5 -12.75 23.75 -12.75 23.0 -12.75 22.6 -12.75 22.25 -12.75 21.5 -12.7 21.1 -12.65 20.75 -11.55 18.85 -10.5 17.35 -10.0 16.65 -7.25 13.6 -5.75 12.1 -5.25 11.85 -4.5 11.8 -4.5 11.75 -3.0 11.75 -2.0 12.0 -1.5 12.4 -1.1 12.7 -0.75 13.0 1.0 12.45 Q3.15 11.7 5.5 12.1 L6.5 12.35 M-6.0 18.85 L-6.25 19.25 -6.5 19.6 -6.75 20.0 -7.0 20.35 -7.25 20.75 -6.8 20.55 Q-6.3 20.25 -6.0 19.8 L-5.75 19.1 -5.75 18.85 -5.8 18.75 -5.85 18.75 -6.0 18.85" fill="#ffffff" fill-opacity="0.2" fill-rule="evenodd" stroke="none"/>
    <path d="M0.15 9.0 L0.25 9.35 0.4 9.75 0.6 10.15 0.75 10.5 1.0 10.55 2.5 10.6 3.4 10.85 3.85 11.25 4.25 11.6 4.65 12.0 5.0 12.35 5.15 12.5 7.5 12.75 8.4 13.0 8.75 13.4 9.0 13.75 9.15 14.1 9.2 14.5 9.15 14.85 9.15 15.25 9.15 16.0 9.15 16.75 9.0 17.1 8.9 17.5 8.5 18.6 8.15 19.75 7.9 20.5 6.95 21.85 4.1 25.0 Q3.6 25.5 3.25 26.1 L2.75 26.85 2.25 27.25 1.5 27.5 0.65 27.25 0.25 26.85 0.0 26.5 0.0 26.1 0.0 25.75 0.0 25.35 0.05 25.0 0.25 24.65 0.8 23.8 1.5 22.75 1.45 22.55 0.75 22.6 0.5 22.95 -0.25 23.75 -1.4 24.85 -2.25 25.5 -3.0 25.65 -3.5 25.75 -4.5 25.95 -5.5 26.0 -6.5 25.75 -7.0 25.35 -7.35 25.0 -7.65 24.6 -7.9 24.25 -8.0 23.85 -8.15 23.5 -8.4 23.15 -8.75 22.75 -9.1 22.35 -9.65 21.6 -9.75 21.25 -9.9 20.85 -10.0 20.5 -10.15 20.1 -10.15 19.75 -10.15 19.35 -10.15 18.25 -10.15 16.75 -10.15 16.0 -10.0 15.6 -9.9 15.25 -9.65 14.5 -9.25 13.35 -9.0 12.6 -8.75 12.25 -8.4 11.85 -7.65 11.1 -6.5 10.0 -6.35 9.6 -6.25 9.25 -6.1 8.85 -5.85 8.5 -5.6 8.15 -5.25 7.75 -4.5 7.35 -4.0 7.1 -3.75 7.05 -3.0 6.95 -3.0 6.85 -2.0 6.85 -1.0 7.1 -0.5 7.5 -0.25 7.9 -0.1 8.25 0.15 8.6 0.15 9.0 M5.25 16.85 L5.2 17.25 5.15 17.6 5.0 18.0 4.85 18.4 4.9 18.5 5.2 17.85 5.5 17.1 5.75 16.5 5.75 16.4 5.25 16.4 5.25 16.5 5.25 16.85" fill="#ffffff" fill-opacity="0.2" fill-rule="evenodd" stroke="none"/>
    <path d="M0.9 5.6 L1.15 6.0 1.4 6.35 1.45 6.75 1.5 7.1 1.5 7.5 1.5 7.85 1.5 8.25 1.85 8.3 2.5 8.15 3.5 7.85 4.5 7.85 5.5 8.1 6.0 8.5 6.25 8.9 6.4 9.25 6.6 9.6 7.0 10.35 7.25 10.75 7.4 11.1 7.5 11.5 7.65 11.85 7.65 12.6 7.65 13.75 7.65 15.25 7.65 16.35 7.5 16.75 7.4 17.1 7.25 17.5 7.15 17.85 6.9 18.25 6.75 18.6 6.5 19.0 6.25 19.35 6.0 19.75 5.95 20.1 5.9 20.5 5.65 21.25 5.25 22.35 5.0 23.1 4.75 23.5 4.75 23.6 5.5 23.6 6.5 23.35 7.5 23.6 8.0 24.0 8.25 24.4 8.4 24.75 8.65 25.1 8.65 25.5 8.65 25.85 8.65 26.25 8.65 26.6 8.65 27.0 8.55 27.35 8.4 27.75 8.25 28.1 8.0 28.5 7.5 28.85 6.5 29.1 5.5 28.85 4.9 28.5 4.0 28.65 3.0 28.85 2.25 29.25 1.75 29.5 1.0 29.55 -1.0 29.6 -2.0 29.35 Q-2.35 29.2 -2.75 29.0 L-3.35 28.6 -3.75 28.25 -4.1 27.85 -4.35 27.5 -4.6 27.1 -5.5 26.75 -6.0 26.35 -6.2 26.0 -6.35 25.6 -6.45 25.25 -6.5 24.85 -6.5 24.5 -6.55 24.15 -6.75 23.75 -7.15 23.35 -7.9 22.6 -8.05 22.25 -8.25 21.85 -8.4 21.5 -8.65 21.1 -8.65 19.6 -8.6 17.35 -8.6 16.25 -8.65 15.1 -8.65 14.35 -8.5 14.0 -8.4 13.6 -8.25 13.25 -8.15 12.85 -7.55 11.7 -6.65 10.3 -5.25 8.75 -4.35 8.35 -3.5 8.0 -3.35 7.6 -3.25 7.25 -3.1 6.85 -3.0 6.5 -2.85 6.1 -2.6 5.75 -2.25 5.35 -1.75 5.1 -1.0 5.05 -1.0 5.0 -0.5 5.0 0.4 5.25 0.9 5.6" fill="#ffffff" fill-opacity="0.2" fill-rule="evenodd" stroke="none"/>
    <path d="M0.25 10.75 L0.4 11.1 0.5 11.5 0.5 11.85 0.5 12.25 0.5 12.6 0.55 12.75 1.35 13.2 2.65 13.85 2.9 14.25 3.15 14.6 3.4 15.0 3.5 15.35 3.65 15.75 3.75 16.1 3.9 16.5 4.0 16.85 4.0 17.25 3.9 18.0 3.9 19.1 3.9 20.25 3.75 20.6 3.65 21.0 3.5 21.35 3.5 21.75 3.5 22.1 3.5 22.5 3.5 22.85 Q4.1 22.75 4.6 22.2 L6.05 20.2 7.0 18.35 7.05 18.0 7.15 17.65 7.4 17.25 7.75 16.85 8.25 16.6 9.0 16.5 9.9 16.75 10.4 17.1 10.65 17.5 10.9 17.85 10.95 18.6 11.0 20.1 11.0 21.6 11.0 22.35 10.9 22.75 10.75 23.1 10.65 23.5 10.5 23.85 10.5 24.25 10.5 25.0 10.5 26.1 10.5 27.25 10.35 27.6 10.15 28.0 9.9 28.35 9.4 28.75 8.5 29.0 7.5 28.75 7.0 28.35 6.8 28.0 6.6 27.65 6.4 27.25 6.0 26.5 5.75 26.45 4.9 26.6 4.0 26.85 2.5 26.9 1.75 27.0 1.5 27.35 1.25 27.75 0.9 28.0 0.6 28.1 -0.5 28.15 -2.35 27.85 -2.75 27.5 -3.1 27.1 -3.5 26.7 -3.6 26.5 -4.0 26.5 -4.5 26.5 -5.6 26.25 -6.25 25.85 -6.6 25.5 -7.0 25.1 -7.7 24.35 -7.9 24.0 -7.95 23.65 -8.15 23.25 -8.25 22.85 -8.4 22.5 -8.5 22.1 -8.5 21.75 -8.5 21.35 -9.35 18.0 -10.05 14.6 -10.8 11.6 -11.4 9.75 -11.65 9.35 -11.75 9.0 -11.9 8.6 -12.0 8.25 -12.0 7.85 -12.0 7.5 -12.0 7.1 -11.85 6.75 -11.65 6.35 -11.4 6.0 -11.0 5.75 -10.75 5.65 -10.0 5.55 -10.0 5.5 -9.15 5.75 -8.65 6.1 -8.4 6.5 -8.15 6.85 -8.05 7.25 -8.0 7.6 -7.75 8.0 -7.65 8.35 -7.5 8.75 -7.4 9.1 -7.15 9.2 -6.75 9.15 -6.0 9.0 -5.1 9.25 -4.6 9.6 -4.25 9.65 -3.85 9.5 -3.5 9.25 -3.25 9.15 -2.5 9.0 -2.0 9.0 -1.1 9.25 -0.5 9.6 -0.15 10.0 0.15 10.35 0.25 10.75" fill="#ffffff" fill-opacity="0.2" fill-rule="evenodd" stroke="none"/>
    <path d="M-11.95 -3.75 L-11.85 -3.9 -11.65 -4.1 -11.6 -4.3 -11.45 -4.5 -11.35 -4.65 -11.1 -4.85 -10.5 -5.25 -10.1 -5.55 -9.85 -5.6 -9.55 -5.6 -9.3 -5.75 -8.85 -5.8 -8.85 -5.85 -8.4 -5.75 -8.2 -5.55 -8.1 -5.35 -8.05 -5.15 -8.0 -4.8 -7.95 -4.05 -8.05 -3.3 -8.1 -3.1 -8.05 -2.95 -7.95 -2.75 -7.9 -2.55 -7.85 -2.35 -7.7 -2.0 -7.6 -1.6 -7.6 -1.4 -7.6 -1.05 -7.6 -0.65 -7.6 -0.3 -7.35 0.05 -6.7 0.85 -6.4 1.4 -6.4 1.6 -6.45 1.75 -6.45 1.95 -6.4 2.15 -6.4 2.35 -6.5 2.5 -6.6 2.7 -6.7 2.85 -7.05 2.95 -7.1 2.95 -7.55 2.85 -7.65 2.65 -7.8 2.45 -7.95 2.5 -8.1 2.65 -8.2 2.85 -8.45 3.0 -8.6 3.15 -8.7 3.2 -9.1 3.25 -9.35 3.35 -9.5 5.75 -9.45 8.6 -9.55 10.85 -9.6 11.0 -9.65 11.2 -9.55 12.15 -9.35 13.45 -9.4 14.75 -9.5 14.95 -9.6 15.15 -9.8 15.3 -9.95 15.45 -10.35 15.5 -10.85 15.4 -11.1 15.2 -11.2 15.0 -11.3 14.85 -11.35 14.65 -11.45 14.5 -11.6 14.65 -11.7 14.7 -12.1 14.75 -12.6 14.65 -12.85 14.45 -12.95 14.25 -13.05 14.1 -13.1 8.85 -13.1 3.95 -13.05 -0.75 -12.9 -0.9 -12.85 -1.1 -12.8 -1.3 -12.7 -1.5 -12.65 -1.65 -12.55 -1.85 -12.45 -2.25 -12.3 -2.8 -12.05 -3.55 -11.95 -3.75" fill="#ff9900" fill-opacity="0.2" fill-rule="evenodd" stroke="none"/>
    <path d="M-14.6 12.15 L-14.15 12.25 -13.95 12.45 -13.85 12.65 -13.8 12.85 -13.6 13.0 -13.4 13.2 -13.3 13.4 -13.05 13.6 -12.45 14.15 -11.7 14.85 -11.15 15.25 -10.95 15.25 -10.8 15.2 -10.7 15.35 -10.4 15.6 -10.3 15.75 -10.25 15.95 -10.2 16.15 -10.05 16.35 -9.95 16.5 -9.85 16.7 -9.8 16.9 -9.8 17.1 -9.85 17.25 -9.9 17.45 -10.05 17.65 -10.15 17.85 -10.5 18.05 -10.85 18.2 -11.35 18.35 -11.85 18.2 -12.1 18.0 -12.25 17.8 -12.35 17.65 -12.6 17.45 -12.85 17.25 -12.85 17.4 -12.8 17.6 -12.75 17.75 -12.7 17.95 -12.65 18.15 -12.6 18.35 -12.55 18.5 -12.55 19.1 -12.55 20.2 -12.55 21.15 -12.55 22.1 -12.6 22.45 -12.65 22.65 -12.8 22.85 -12.95 23.0 -13.2 23.2 -13.6 23.35 -14.05 23.2 -14.2 23.0 -14.35 22.85 -14.4 22.65 -14.4 22.45 -14.55 22.25 -14.55 22.1 -14.55 21.55 -14.7 20.75 -14.9 20.2 -15.05 19.85 -15.15 19.65 -15.25 19.25 -15.45 18.35 -15.55 17.6 -15.65 16.85 -15.7 16.65 -15.7 16.45 -15.7 16.25 -15.7 15.9 -15.75 15.5 -15.8 15.15 -15.85 14.95 -15.95 14.75 -16.1 14.6 -16.15 14.4 -16.2 14.2 -16.2 14.0 -16.2 13.65 -16.2 13.25 -16.2 12.9 -16.15 12.7 -16.05 12.55 -15.9 12.35 -15.65 12.2 -15.35 12.2 -15.35 12.15 -14.6 12.15" fill="#ff9900" fill-opacity="0.2" fill-rule="evenodd" stroke="none"/>
    <path d="M-10.15 -7.65 L-9.95 -7.85 -9.8 -8.0 -9.65 -8.05 -9.35 -8.1 -9.1 -8.1 -8.65 -8.0 -8.45 -7.8 -8.35 -7.6 -8.3 -7.4 -8.2 -7.25 -8.15 -7.05 -8.05 -6.85 -8.0 -6.65 -8.0 -6.5 -7.95 -6.3 -7.95 -6.1 -7.9 -5.9 -7.85 -5.75 -7.8 -5.55 -7.8 -5.35 -7.7 -5.15 -7.7 -4.8 -7.7 -4.25 -7.7 -3.5 -7.7 -3.1 -7.85 -2.75 -8.05 -2.15 -8.2 -1.6 -8.3 -1.4 -8.4 -1.25 -8.45 -1.05 -8.55 -0.85 -8.6 -0.65 -8.7 -0.5 -8.95 -0.3 -9.2 -0.1 -9.6 0.0 -9.9 -0.05 -10.35 -0.15 -10.6 -0.35 -10.7 -0.55 -10.75 -0.7 -10.85 -0.9 -10.9 -1.1 -10.9 -1.3 -11.15 -1.5 -11.35 -1.7 -11.45 -1.85 -11.55 -2.05 -11.55 -2.25 -11.5 -2.4 -11.5 -2.8 -11.45 -3.35 -11.45 -3.55 -11.4 -3.75 -11.35 -3.9 -11.3 -4.1 -11.2 -4.3 -11.2 -4.65 -11.25 -5.25 -11.3 -5.8 -11.3 -6.15 -11.2 -6.35 -11.15 -6.55 -11.1 -6.75 -10.95 -6.9 -10.8 -7.1 -10.4 -7.3 -10.3 -7.45 -10.15 -7.65" fill="#ff9900" fill-opacity="0.2" fill-rule="evenodd" stroke="none"/>
    <path d="M2.75 -16.5 L3.0 -16.65 3.5 -16.8 4.0 -16.65 4.2 -16.5 4.35 -16.35 4.4 -16.45 4.55 -16.6 4.75 -16.8 5.0 -17.0 5.45 -17.1 5.5 -17.1 6.0 -17.0 6.2 -16.8 6.4 -16.6 6.5 -16.45 6.6 -16.25 6.65 -16.05 6.9 -15.85 7.1 -15.65 7.4 -15.3 7.55 -15.1 7.6 -14.9 7.6 -14.75 7.6 -14.55 7.6 -14.35 7.6 -14.15 7.65 -14.0 7.7 -13.8 7.75 -13.6 7.8 -13.4 7.85 -13.25 7.95 -13.05 8.05 -12.85 8.15 -12.65 8.7 -11.0 9.3 -8.55 9.85 -6.3 9.9 -5.95 10.0 -5.35 10.05 -4.8 10.05 -4.25 10.1 -4.05 10.15 -3.85 10.15 -1.05 10.2 2.5 Q10.2 4.15 9.6 5.7 L9.5 5.9 9.4 6.1 9.35 6.25 9.3 6.45 9.25 6.65 9.1 6.8 8.9 7.0 8.65 7.2 8.5 7.35 8.35 7.4 8.0 7.45 7.6 7.4 7.25 7.25 6.9 7.25 6.65 7.45 6.5 7.6 6.35 7.65 6.0 7.7 5.5 7.6 5.15 7.4 5.0 7.2 4.85 7.0 4.8 6.85 4.8 6.65 4.8 6.45 4.8 6.25 4.8 6.1 4.85 5.9 4.9 5.7 5.0 5.5 5.1 5.35 5.15 5.15 5.25 4.95 5.3 4.75 5.35 4.6 5.4 4.4 5.55 4.2 5.6 4.0 5.75 3.85 6.1 0.85 Q6.0 -1.05 6.05 -2.9 L6.1 -6.3 5.95 -6.1 5.55 -5.35 5.2 -4.8 4.85 -4.25 4.85 -4.05 4.8 -3.85 4.65 -3.65 4.55 -3.5 4.3 -3.3 4.1 -3.15 3.75 -3.1 3.25 -3.25 3.0 -3.45 2.8 -3.6 2.65 -3.8 2.6 -4.0 2.6 -4.15 2.5 -4.15 2.3 -3.8 2.0 -3.25 1.8 -2.85 1.65 -2.65 1.5 -2.55 1.35 -2.5 -0.5 -2.4 -1.0 -2.55 -1.45 -2.9 -1.95 -3.5 -2.25 -4.05 -2.35 -4.25 -2.45 -4.2 -2.6 -4.05 -2.7 -3.85 -2.8 -3.7 -2.9 -3.5 -2.9 -3.3 -2.9 -3.1 -2.9 -2.9 -2.95 -2.75 -3.0 -2.55 -3.1 -2.35 -3.35 -2.0 Q-3.55 -1.65 -3.85 -1.45 L-4.25 -0.85 -4.35 -0.65 -4.6 -0.5 -4.8 -0.35 -5.1 -0.3 -5.35 -0.3 -5.8 -0.4 -6.0 -0.6 -6.2 -0.8 -6.25 -1.0 -6.3 -1.15 -6.3 -1.35 -6.3 -1.55 -6.3 -1.75 -6.2 -1.9 -6.1 -2.1 -6.05 -2.3 -5.95 -2.5 -5.9 -2.65 -5.9 -2.85 -5.9 -3.05 -5.9 -3.25 -5.9 -3.4 -5.9 -3.6 -5.85 -3.8 -5.8 -4.0 -5.65 -5.5 -5.25 -7.55 -4.65 -9.6 -4.6 -9.8 -4.45 -10.0 -4.4 -10.15 -4.35 -10.35 -4.3 -10.55 -4.2 -10.75 -4.2 -10.9 -4.2 -11.1 -4.2 -11.3 -4.15 -11.65 -4.15 -11.85 -4.05 -12.05 -3.9 -12.25 -3.5 -12.35 -3.15 -12.35 -2.75 -12.5 -2.75 -12.7 -2.7 -12.85 -2.7 -13.05 -2.7 -13.25 -2.65 -13.4 -2.45 -13.6 -2.2 -13.8 -1.75 -13.9 -1.35 -13.8 -1.1 -13.6 -0.95 -13.4 -0.9 -13.25 -0.85 -13.05 -0.85 -12.85 -0.85 -12.5 -0.85 -12.1 -0.85 -11.9 -0.9 -11.75 -0.95 -11.55 -1.0 -11.35 -1.15 -11.15 -1.15 -11.0 -1.15 -10.8 -1.15 -10.6 -1.3 -10.25 -1.5 -9.5 -1.6 -8.9 -1.75 -8.15 -1.8 -8.0 -1.7 -7.8 -1.65 -7.6 -1.5 -7.4 -1.45 -7.25 -1.4 -7.05 -1.35 -6.85 -1.2 -6.7 -1.05 -6.5 -0.9 -6.3 -0.75 -6.25 -0.1 -7.3 0.55 -8.6 1.35 -10.1 1.4 -10.3 1.55 -10.65 1.75 -11.25 1.85 -11.6 1.9 -11.8 1.9 -12.55 1.95 -13.5 2.25 -14.8 2.4 -15.35 2.4 -15.55 2.4 -15.75 2.45 -15.9 2.5 -16.1 2.55 -16.3 2.75 -16.5" fill="#ff9900" fill-opacity="0.2" fill-rule="evenodd" stroke="none"/>
    <path d="M4.95 -17.4 L5.0 -17.4 5.4 -17.3 5.75 -17.1 6.1 -16.9 6.25 -16.75 6.35 -16.55 6.5 -16.35 6.8 -16.0 6.9 -15.8 6.95 -15.6 7.0 -15.4 7.0 -15.25 7.0 -15.05 7.0 -14.85 7.05 -14.65 7.1 -14.5 7.25 -14.1 7.35 -13.75 7.45 -13.35 7.5 -13.15 7.5 -13.0 7.5 -12.8 7.55 -12.6 7.6 -12.4 7.65 -12.25 7.75 -12.05 7.75 -11.85 7.75 -11.65 7.75 -11.5 7.75 -11.1 7.75 -10.75 7.75 -10.55 7.9 -10.0 8.15 -8.85 8.25 -7.55 8.25 -7.0 8.15 -6.8 8.1 -6.6 8.0 -6.45 7.85 -6.25 7.6 -6.05 7.5 -5.85 7.5 -5.5 7.5 -5.1 7.55 -4.55 7.8 -3.8 7.8 -3.6 7.8 -3.4 7.8 -3.25 7.8 -3.05 7.8 -2.85 7.9 -2.65 8.0 -2.5 8.05 -2.3 8.05 -2.1 8.05 -1.9 8.05 -1.55 8.05 -1.35 7.95 -1.2 7.85 -1.0 7.8 -0.8 7.55 -0.6 7.35 -0.5 7.0 -0.4 6.5 -0.55 6.25 -0.75 6.05 -0.95 6.0 -1.1 5.95 -1.3 5.9 -1.5 5.9 -1.65 5.85 -1.85 5.75 -2.05 5.7 -2.4 5.65 -3.0 5.65 -3.75 5.5 -4.5 5.5 -5.6 5.5 -7.5 5.5 -9.35 5.5 -9.75 5.45 -9.9 5.35 -10.1 5.1 -10.3 4.85 -10.3 4.5 -10.15 4.05 -10.3 3.85 -10.5 3.65 -10.7 3.55 -10.85 3.5 -11.05 3.5 -11.25 3.5 -11.4 3.5 -11.6 3.5 -11.8 3.4 -12.0 3.35 -12.15 3.3 -12.35 3.3 -12.55 3.3 -12.75 3.3 -12.9 3.3 -13.3 3.35 -13.65 3.35 -13.85 3.45 -14.05 3.55 -14.25 3.55 -14.4 3.55 -14.6 3.55 -14.8 3.55 -15.0 3.6 -15.15 3.65 -15.35 3.8 -15.75 3.9 -16.1 4.0 -16.5 4.05 -16.65 4.1 -16.85 4.25 -17.05 4.4 -17.25 4.65 -17.35 4.95 -17.4" fill="#ff9900" fill-opacity="0.2" fill-rule="evenodd" stroke="none"/>
    <path d="M-2.65 -13.65 L-2.4 -13.5 -2.3 -13.3 -2.2 -13.1 -2.3 -11.8 -2.3 -10.1 -2.35 -8.4 -2.4 -8.25 -2.65 -7.85 -3.1 -7.3 -3.25 -7.15 -3.5 -7.1 -3.85 -7.2 -4.2 -7.3 -4.35 -7.5 -4.45 -7.65 -4.6 -7.85 -4.6 -8.05 -4.6 -8.25 -4.6 -8.4 -4.6 -8.8 -4.6 -8.9 -4.6 -8.95 -4.9 -8.9 -4.95 -8.75 -5.05 -8.55 -5.1 -8.35 -5.15 -8.15 -5.25 -8.05 -5.45 -7.9 -5.45 -8.1 -5.4 -8.3 -5.35 -8.5 -5.2 -8.85 -5.2 -9.05 -5.25 -9.25 -5.35 -9.4 -5.3 -9.6 -5.3 -9.8 -5.15 -10.15 -5.05 -10.55 -5.05 -10.75 -5.05 -10.9 -4.95 -11.1 -4.85 -11.3 -4.75 -11.5 -4.65 -11.65 -4.65 -11.85 -4.6 -12.05 -4.35 -12.4 -3.85 -13.15 -3.45 -13.65 -3.35 -13.7 -3.05 -13.75 -3.0 -13.8 -2.65 -13.65" fill="#ff9900" fill-opacity="0.2" fill-rule="evenodd" stroke="none"/>
    <path d="M14.1 -0.4 L14.35 -0.25 14.5 -0.05 14.65 0.15 14.8 0.35 14.85 0.5 14.9 0.7 14.9 0.9 14.9 1.1 14.9 1.25 15.0 1.4 15.25 1.5 15.65 1.65 15.9 1.85 16.05 2.0 16.15 2.2 16.2 2.6 16.25 3.15 16.25 3.9 16.25 4.45 16.15 4.65 16.1 4.85 16.1 5.0 16.05 5.2 16.0 5.4 16.0 5.95 16.0 6.9 16.0 7.65 16.0 8.2 15.9 8.4 15.8 8.75 15.7 9.15 15.55 9.7 15.5 10.1 15.4 10.85 15.25 11.6 15.1 11.95 15.0 12.15 14.9 12.35 14.85 12.5 14.75 12.7 14.65 12.9 14.55 13.25 14.4 13.65 14.3 14.0 14.25 14.4 14.2 14.95 14.05 15.7 13.9 16.1 13.8 16.25 13.75 16.45 13.65 16.65 13.6 16.85 13.1 17.75 12.4 19.05 11.8 20.0 11.65 20.2 11.4 20.4 11.0 20.5 10.5 20.4 10.25 20.2 10.1 20.0 10.05 19.85 10.0 19.65 9.95 19.45 9.9 19.25 9.95 19.1 10.0 18.9 10.05 18.7 10.15 18.5 10.25 18.35 10.35 18.15 10.45 17.75 10.6 17.2 10.85 16.45 10.9 16.25 11.05 16.1 11.1 15.9 11.15 15.7 11.3 15.5 11.35 15.35 11.5 15.15 11.45 14.95 11.35 14.75 11.3 14.6 11.25 14.4 11.25 14.2 11.25 14.0 11.25 13.85 11.25 13.45 11.3 13.25 11.35 13.1 11.4 12.9 11.5 12.7 11.6 12.5 11.7 12.35 11.8 12.15 11.85 11.95 12.0 11.75 12.05 11.4 12.15 10.85 12.35 10.1 12.4 9.9 12.4 9.15 12.4 8.0 12.45 7.25 12.6 6.5 12.6 6.35 12.55 6.15 12.35 5.95 Q12.2 5.8 11.9 6.2 L11.1 6.95 10.55 7.25 10.25 7.35 9.8 7.2 9.6 7.0 9.5 6.85 9.4 6.65 9.45 6.45 9.6 6.1 9.9 5.7 10.35 5.35 10.5 5.15 10.65 4.95 10.85 4.75 11.6 4.15 12.5 3.3 13.0 2.7 13.0 2.5 13.0 2.15 12.95 1.75 13.0 1.2 13.05 1.0 13.05 0.85 13.0 0.65 12.95 0.45 12.9 0.25 12.95 0.1 13.0 -0.1 13.15 -0.3 13.3 -0.4 13.4 -0.45 13.7 -0.5 13.75 -0.55 14.1 -0.4" fill="#ff9900" fill-opacity="0.2" fill-rule="evenodd" stroke="none"/>
    <path d="M15.75 1.0 L16.15 1.15 16.4 1.35 16.55 1.5 16.65 1.7 16.75 3.75 16.6 6.4 16.25 8.25 16.1 8.45 16.05 8.65 16.0 8.85 15.85 9.0 15.6 9.4 15.3 9.95 15.15 10.15 14.9 10.35 14.5 10.45 14.25 10.45 13.8 10.35 13.55 10.15 13.35 9.95 13.3 9.75 13.3 9.6 13.3 9.4 13.3 9.2 13.2 9.05 13.0 8.8 12.8 8.65 12.75 8.45 12.75 8.25 12.75 8.1 12.75 7.9 12.8 7.7 12.85 7.5 12.9 7.35 13.0 7.15 13.0 6.2 13.05 4.7 13.25 3.2 13.35 3.1 13.5 3.05 13.75 2.95 14.05 2.95 14.1 2.85 14.3 2.65 14.7 2.25 14.75 2.1 14.75 1.9 14.8 1.7 14.85 1.5 15.0 1.35 15.25 1.15 15.7 1.05 15.75 1.0" fill="#ff9900" fill-opacity="0.2" fill-rule="evenodd" stroke="none"/>
    <path d="M15.55 18.4 L15.55 18.6 15.55 18.75 15.5 18.95 15.4 19.15 15.3 19.35 Q15.15 19.45 15.05 19.5 L14.65 20.1 14.3 20.65 14.1 21.2 14.15 21.4 14.15 21.6 14.1 21.75 13.65 22.35 13.15 22.9 12.9 23.25 12.8 23.35 12.5 23.45 12.25 23.45 11.8 23.35 11.65 23.15 11.55 22.95 11.55 22.75 11.55 22.6 11.45 22.45 11.15 22.2 11.0 22.0 10.9 21.85 10.85 21.65 10.85 21.45 10.85 21.25 10.85 21.1 10.9 20.9 11.0 20.7 11.25 20.35 11.55 19.95 11.6 19.75 11.65 19.6 11.8 19.4 11.85 19.0 11.95 18.45 12.0 18.1 12.0 17.9 12.05 17.7 12.15 17.5 12.3 17.35 12.3 17.15 12.3 16.95 12.35 16.75 12.5 16.7 12.7 16.6 12.75 16.6 13.05 16.7 13.1 16.9 13.15 17.1 13.15 17.25 13.25 17.45 13.35 17.65 13.4 17.85 13.45 18.0 13.5 18.2 13.55 18.25 13.7 18.15 13.9 17.95 14.05 17.85 14.15 17.8 14.5 17.7 14.75 17.7 15.1 17.85 15.35 18.0 15.45 18.2 15.55 18.4" fill="#ff9900" fill-opacity="0.2" fill-rule="evenodd" stroke="none"/>
    <path d="M-17.05 10.65 L-17.0 10.45 Q-16.7 9.65 -16.45 10.6 -14.55 13.85 -11.45 15.65 -11.3 15.95 -11.9 16.1 -14.6 14.8 -16.4 12.0 -16.15 14.65 -15.0 17.1 L-14.55 18.4 -14.25 19.05 -10.05 25.05 -10.2 25.0 -10.75 24.8 Q-12.6 23.25 -13.9 21.2 -15.3 19.05 -16.3 16.5 -17.45 13.55 -17.05 10.65 M3.75 -19.9 L4.2 -19.75 7.45 -13.95 8.15 -12.55 Q9.5 -9.5 10.0 -6.5 10.7 -2.2 10.9 2.25 L10.8 4.05 10.65 4.75 Q10.4 5.35 10.65 5.3 L10.85 5.0 12.8 2.7 14.5 0.15 14.65 -0.4 15.25 -1.4 15.6 -1.3 15.65 -1.0 Q17.05 4.5 15.9 9.9 L14.7 15.2 13.75 17.8 16.2 18.0 16.0 18.65 15.2 20.15 13.1 23.1 11.45 24.85 Q8.9 27.7 5.2 27.8 L4.4 27.35 Q3.6 27.0 3.2 26.25 4.2 26.3 5.1 26.65 L6.8 26.75 Q10.05 25.35 12.4 22.6 L15.35 18.7 13.3 18.65 13.1 18.75 Q12.55 19.05 12.3 18.55 12.25 18.25 12.35 18.05 L12.9 17.25 Q13.85 14.75 14.4 12.25 L14.45 12.05 Q16.15 6.5 15.35 0.8 15.05 0.75 14.7 1.5 13.8 3.4 12.35 4.8 L11.1 6.4 10.8 6.35 9.8 6.15 Q9.3 5.65 9.6 4.75 L9.95 2.25 Q9.85 -2.8 8.8 -7.9 L7.7 -11.35 7.25 -12.55 Q6.1 -15.5 4.1 -18.3 L3.75 -15.2 Q3.5 -12.55 2.55 -10.1 L1.5 -7.2 1.0 -5.7 Q0.7 -4.95 0.05 -4.4 -1.15 -4.6 -1.6 -5.9 L-2.5 -9.2 Q-3.1 -11.9 -3.2 -13.95 -3.65 -12.6 -4.2 -11.5 -5.35 -9.15 -5.85 -6.65 -6.25 -4.7 -7.0 -2.45 L-7.3 -1.1 Q-7.35 0.0 -7.65 1.0 -8.15 1.05 -8.35 0.5 -9.7 -3.7 -10.2 -7.25 L-11.4 -4.15 -12.2 -1.3 Q-14.15 6.35 -12.1 14.05 -11.95 14.6 -12.25 15.0 L-12.55 14.5 Q-14.2 10.35 -14.05 5.75 -13.8 -0.9 -11.2 -6.75 L-10.3 -8.8 -10.4 -9.35 -10.3 -9.45 Q-10.0 -9.7 -9.85 -10.2 L-9.55 -10.15 Q-9.45 -5.55 -8.15 -1.95 L-5.55 -10.15 -4.7 -12.15 -3.95 -13.8 Q-3.45 -15.05 -2.7 -15.3 -2.05 -14.35 -2.1 -13.2 -2.15 -10.35 -1.25 -7.7 L-0.3 -5.5 0.35 -6.9 1.65 -10.25 Q2.45 -12.2 2.65 -14.1 3.0 -17.15 3.75 -19.9" fill="#333333" fill-rule="evenodd" stroke="none"/>
  </g>
</svg>
