<?xml version="1.0" encoding="UTF-8" standalone="no"?>
<svg xmlns:xlink="http://www.w3.org/1999/xlink" height="58.35px" width="34.3px" xmlns="http://www.w3.org/2000/svg">
  <g transform="matrix(1.0, 0.0, 0.0, 1.0, 17.2, 26.2)">
    <path d="M4.0 -18.0 L5.5 -16.65 Q5.5 -13.1 4.95 -9.5 L4.5 -6.05 Q4.4 -4.9 3.75 -3.9 L2.65 -3.5 Q2.55 -2.55 1.9 -1.7 L1.2 -0.9 Q0.5 -0.25 0.15 0.75 L-1.0 1.35 -1.85 1.1 -2.35 0.35 -2.3 -1.5 Q-1.25 -2.5 -0.85 -3.65 L0.25 -7.2 0.8 -9.0 1.95 -12.8 2.45 -15.35 2.0 -16.15 2.15 -17.25 2.9 -17.9 4.0 -18.0" fill="#ffffcc" fill-rule="evenodd" stroke="none"/>
    <path d="M2.5 -22.9 L3.75 -21.8 4.0 -21.15 4.05 -19.9 4.15 -17.5 Q5.35 -16.5 5.6 -15.05 L6.1 -12.75 Q6.25 -12.15 6.55 -11.5 L8.05 -7.85 Q8.8 -5.5 9.0 -3.0 9.3 0.75 9.25 4.6 L9.1 8.7 Q7.9 10.3 6.05 9.1 L5.8 8.85 Q5.7 7.35 5.1 5.9 L4.3 4.3 3.5 3.25 1.5 6.6 -0.3 8.8 -1.0 9.35 -2.6 8.75 Q-2.5 10.65 -3.0 12.5 -3.25 13.4 -4.0 14.05 L-5.7 14.15 Q-6.7 13.8 -6.9 12.6 -8.85 12.6 -10.25 11.35 -10.9 0.85 -9.4 -9.45 L-8.6 -12.45 Q-8.05 -14.0 -6.5 -13.9 L-5.35 -13.4 Q-5.05 -13.1 -4.85 -12.1 L-4.55 -10.8 -4.2 -9.25 -3.95 -8.05 Q-3.7 -5.9 -3.1 -3.9 -1.2 -6.75 2.15 -6.4 L1.4 -15.15 Q1.35 -15.85 1.6 -16.55 L2.0 -17.25 2.0 -19.0 0.75 -19.65 2.0 -20.2 1.7 -22.25 1.9 -22.65 2.5 -22.9" fill="#ffffcc" fill-rule="evenodd" stroke="none"/>
    <path d="M5.4 4.65 Q6.7 3.15 8.35 4.45 9.6 5.45 9.25 7.25 L8.8 9.8 Q8.05 14.05 8.0 18.35 L7.75 24.75 7.7 25.1 7.1 25.6 4.3 26.0 Q3.75 27.55 2.65 28.45 L1.5 29.1 Q-0.35 27.45 -2.75 27.15 -3.4 28.1 -4.35 28.35 L-5.85 28.4 -7.2 27.85 -8.05 27.05 -8.4 26.4 Q-10.9 26.15 -12.25 24.1 -14.5 20.7 -14.9 16.75 L-15.2 13.6 -15.45 5.0 -14.15 3.6 -12.25 3.75 Q-10.45 7.0 -9.85 10.7 L-8.35 11.05 -7.2 11.9 -6.75 12.0 0.45 3.8 Q1.6 2.65 3.0 2.5 5.0 2.8 5.25 4.95 L5.4 4.65" fill="#ffffcc" fill-rule="evenodd" stroke="none"/>
    <path d="M12.05 -1.6 L12.65 -1.7 13.4 -1.5 14.15 0.1 Q14.75 2.15 15.0 4.35 L15.25 8.8 Q15.25 10.75 14.85 12.7 L13.8 17.0 Q13.1 19.55 12.1 21.7 L10.4 25.35 Q9.05 27.95 6.3 28.75 L5.2 28.1 4.75 27.45 4.45 26.45 2.9 25.25 Q2.5 23.45 3.95 22.25 L5.45 20.55 6.55 18.4 Q8.15 14.5 8.05 10.25 L8.05 1.25 8.65 0.6 9.5 0.35 10.5 0.65 10.9 -0.65 12.05 -1.6" fill="#ffffcc" fill-rule="evenodd" stroke="none"/>
    <path d="M6.4 2.25 L6.9 2.6 7.15 3.0 7.35 3.35 7.55 3.7 7.75 4.1 8.0 4.85 8.3 6.0 8.6 7.5 9.0 8.6 9.0 9.35 9.0 10.5 9.0 12.0 9.0 12.75 9.05 13.1 9.3 13.45 9.95 14.3 10.4 15.0 10.45 15.35 10.5 15.75 10.5 16.1 10.4 16.5 10.25 16.85 10.15 17.25 10.0 17.6 10.0 18.35 10.0 19.5 10.0 21.0 10.0 21.75 9.9 22.1 9.75 22.5 9.65 22.85 9.5 23.25 9.5 23.6 9.5 24.0 9.5 24.35 9.45 24.75 9.4 25.1 9.05 25.9 8.35 27.0 6.75 28.5 6.5 28.75 6.25 28.85 5.5 28.95 4.5 29.0 3.5 28.75 3.0 28.35 2.8 28.0 2.65 27.6 2.5 27.25 2.5 27.0 2.5 26.95 2.0 26.85 1.0 27.1 0.5 27.5 0.1 27.7 -0.5 28.0 -0.65 28.35 -0.85 28.75 -1.5 29.0 -2.1 28.75 -2.5 28.35 -3.0 28.35 -3.9 28.15 -4.5 28.0 -5.0 28.0 -6.0 27.75 -6.5 27.35 -6.75 27.0 -6.85 26.6 -7.0 26.25 -7.25 25.9 -7.65 25.5 -7.8 25.15 -8.0 24.75 -8.15 24.35 -8.25 24.0 -9.15 22.8 -10.25 21.35 -11.25 19.85 -11.35 19.1 -11.35 18.0 -11.45 16.5 -11.5 15.75 -11.4 15.35 -11.25 15.0 -11.0 14.6 -10.5 14.25 -9.5 14.0 -8.5 14.1 -7.5 14.1 -6.6 14.35 -6.1 14.75 -5.9 15.15 -5.7 15.5 -5.45 15.8 -5.1 16.0 Q-4.65 14.8 -4.5 13.5 L-4.35 9.75 -4.5 6.0 -4.35 5.65 -4.1 5.25 -3.75 4.85 -3.25 4.6 -2.5 4.5 -1.75 4.6 -1.25 4.6 -0.5 4.5 0.0 4.5 0.9 4.75 1.5 5.1 1.9 5.35 1.95 5.25 2.0 4.85 2.0 4.5 2.15 4.15 2.4 3.75 3.15 3.0 4.0 2.25 5.0 2.05 5.0 2.0 5.5 2.0 6.4 2.25" fill="#ffffff" fill-opacity="0.2" fill-rule="evenodd" stroke="none"/>
    <path d="M0.5 10.35 L1.5 10.6 2.0 11.0 2.25 11.4 2.4 11.75 2.65 12.1 2.65 12.5 2.75 12.85 2.9 13.25 3.15 13.6 3.25 13.75 4.5 13.85 5.5 13.85 6.5 14.1 7.0 14.5 7.25 14.85 7.5 15.25 7.65 15.6 7.9 15.85 8.0 15.95 8.9 16.25 9.4 16.6 9.65 17.0 9.9 17.35 9.95 17.75 10.0 18.1 10.0 18.5 10.0 19.25 10.0 19.6 9.9 20.0 9.75 20.35 9.65 20.75 9.4 21.15 9.25 21.5 9.15 21.85 9.15 22.25 9.1 23.0 9.0 23.75 8.9 24.5 8.75 24.85 8.5 25.25 8.1 25.6 7.75 25.85 7.0 26.0 6.25 26.1 5.9 26.5 5.5 26.85 5.1 27.2 4.25 27.85 3.5 27.95 3.0 28.0 2.0 27.75 1.05 27.9 1.0 28.1 0.9 28.5 0.75 28.85 0.5 29.25 0.15 29.6 -0.5 30.0 -0.85 30.25 -1.5 30.35 -2.35 30.1 -2.85 29.75 -3.25 29.35 -3.35 29.0 -3.5 28.6 -3.75 28.25 -3.8 28.05 -4.25 27.85 -4.75 27.9 -5.5 27.95 -6.0 28.0 -7.0 27.75 -7.5 27.35 -7.85 27.0 -8.15 26.6 -8.4 26.25 -8.55 24.0 -8.5 21.75 -8.5 19.85 -8.45 17.25 -8.4 16.85 -8.25 16.5 -8.0 16.1 -7.5 15.75 -6.5 15.5 -5.65 15.75 -5.1 16.0 -5.0 16.0 -4.0 15.95 -3.25 15.85 -3.1 15.5 -3.0 15.1 -2.85 14.75 -2.75 14.35 -2.5 14.0 -2.35 13.6 -2.25 13.25 -2.1 12.85 -2.1 12.5 -2.1 12.1 -2.0 11.75 -1.85 11.4 -1.5 11.0 -1.0 10.6 0.0 10.45 0.0 10.35 0.5 10.35" fill="#ffffff" fill-opacity="0.2" fill-rule="evenodd" stroke="none"/>
    <path d="M4.5 7.5 L5.4 7.75 5.9 8.1 6.15 8.5 6.4 8.85 6.45 9.6 6.5 10.35 6.5 11.5 6.5 12.6 6.4 13.0 6.25 13.35 6.15 13.75 6.0 14.1 5.75 14.85 5.5 15.25 5.25 15.6 5.0 16.0 4.75 16.35 5.5 16.45 6.25 16.45 7.0 16.4 7.5 16.35 8.5 16.6 9.0 17.0 9.25 17.4 9.4 17.75 9.65 18.1 9.65 18.5 9.65 18.85 9.65 19.25 9.65 19.6 9.65 20.0 9.65 20.35 9.5 20.75 9.4 21.1 9.25 21.5 9.15 21.85 7.65 24.5 5.5 28.25 3.9 30.85 3.4 31.25 2.5 31.5 1.5 31.25 1.0 30.85 0.8 30.5 0.65 30.1 0.55 29.75 0.5 29.35 0.5 29.0 0.5 28.6 0.65 28.25 0.75 27.85 0.9 27.5 1.0 27.1 1.15 26.75 0.9 26.7 0.6 26.7 -2.1 27.1 -2.25 27.5 -2.5 27.85 -2.75 28.25 -3.1 28.5 -3.4 28.6 -4.0 28.75 -4.6 28.6 -5.35 28.35 -5.9 28.0 -6.5 27.6 -6.85 27.25 -7.25 26.85 -7.5 26.5 -7.5 26.1 -7.5 25.75 -7.5 25.0 -7.5 23.85 -7.5 23.1 -7.65 22.75 -7.75 22.35 -7.9 22.0 -7.9 21.25 -7.9 20.1 -7.9 18.6 -7.9 17.5 -7.75 17.15 -7.5 16.75 -7.5 15.6 -7.5 13.75 -7.5 11.5 -7.5 10.35 -7.15 9.25 -6.7 7.4 -6.1 5.5 -5.85 4.75 -5.6 4.35 -5.35 4.0 -5.0 3.65 -4.5 3.25 -3.5 3.05 -3.5 3.0 -3.0 3.0 -2.1 3.25 -1.5 3.6 -1.15 4.0 -0.85 4.35 -0.65 4.75 -0.45 5.1 -0.25 5.5 -0.1 5.85 0.0 6.25 0.15 6.6 0.25 7.0 0.5 7.75 0.5 8.1 0.5 8.5 0.5 8.85 0.6 9.2 0.85 9.65 1.15 10.0 1.4 10.3 1.65 10.35 1.75 10.0 1.9 9.65 2.35 8.85 Q2.8 8.15 3.5 7.75 L4.5 7.5" fill="#ffffff" fill-opacity="0.2" fill-rule="evenodd" stroke="none"/>
    <path d="M11.0 9.5 L11.25 9.85 11.5 10.25 11.75 10.6 12.25 11.4 12.65 12.1 12.65 12.85 12.65 14.75 12.65 17.35 12.65 19.6 12.5 20.0 12.4 20.35 12.3 20.75 12.25 21.1 12.1 21.5 11.9 21.85 11.75 22.25 11.65 22.6 11.5 23.0 11.4 23.35 10.0 26.0 Q8.25 29.3 5.1 31.2 3.2 32.35 1.0 32.1 L0.0 31.85 -0.6 31.5 -1.25 31.1 -2.1 30.35 -3.1 29.35 -3.5 29.25 -4.35 29.0 -5.0 28.6 -5.65 28.25 -6.35 27.85 -6.75 27.5 -7.1 27.1 -7.6 26.35 -8.4 25.25 -9.0 24.1 -9.1 23.75 -9.15 23.35 -9.1 23.0 -9.0 22.6 -9.05 22.25 -9.1 21.85 -9.15 21.5 -9.15 20.75 -9.15 19.6 -9.15 19.25 -9.05 18.9 -8.9 18.5 -8.9 18.1 -8.9 17.75 -8.9 17.35 -8.9 17.0 -8.7 16.65 -8.4 16.25 -8.0 15.85 -7.65 15.5 -7.5 15.15 -7.25 14.75 -6.85 14.4 -6.5 14.1 -6.25 14.0 -5.5 13.85 -4.5 13.6 -4.5 13.25 -4.5 12.5 -4.5 11.0 -4.45 9.1 -4.35 8.0 -4.1 7.6 -4.0 7.25 -3.85 6.85 -3.75 6.5 -3.6 6.1 -3.35 5.75 -3.35 5.35 -3.25 5.0 -3.1 4.6 -3.0 4.25 -2.85 3.85 -2.75 3.5 -2.5 3.15 -2.1 2.75 -1.75 2.35 -1.35 2.0 -1.0 1.75 -0.75 1.65 0.0 1.55 0.0 1.5 1.5 1.5 2.5 1.75 3.25 2.15 3.7 2.5 4.35 3.25 5.15 4.35 5.25 4.75 5.4 5.1 5.6 5.85 5.85 7.0 6.0 8.5 6.0 8.85 6.25 8.95 7.0 8.9 9.5 8.85 10.5 9.1 11.0 9.5" fill="#ffffff" fill-opacity="0.2" fill-rule="evenodd" stroke="none"/>
    <path d="M0.0 4.85 L0.5 4.85 1.5 5.1 1.9 5.35 2.5 5.35 4.0 5.35 5.0 5.6 7.1 6.8 7.95 7.5 8.6 8.25 9.25 9.35 9.4 9.75 9.5 10.1 9.65 10.5 9.65 10.85 9.65 11.25 9.65 11.6 9.65 12.0 9.65 12.35 9.65 12.75 9.5 13.1 9.4 13.5 9.15 14.25 9.0 14.6 8.9 15.0 8.75 15.35 8.65 15.75 8.65 16.1 8.65 16.5 8.65 16.85 8.65 17.25 8.65 17.6 Q8.3 18.35 8.25 19.1 L8.15 19.85 8.0 21.35 7.5 23.6 7.25 25.1 7.1 25.5 6.9 25.9 6.75 26.25 6.55 26.65 6.35 27.0 6.15 27.35 6.15 27.75 6.1 28.1 6.0 28.5 5.85 28.85 5.65 29.25 5.35 29.6 5.0 30.0 4.5 30.35 3.5 30.6 2.5 30.35 2.0 30.0 1.65 29.6 1.5 29.25 1.4 28.85 1.4 28.5 1.4 28.1 1.4 27.75 1.65 27.0 1.85 26.25 1.9 25.85 2.0 25.5 2.15 24.75 2.35 24.0 2.4 23.6 1.95 23.5 Q1.5 23.6 1.15 24.0 L0.75 24.35 0.35 24.7 -0.25 25.1 -0.85 25.35 -1.1 25.75 -1.6 26.1 -2.5 26.35 -5.0 26.35 -5.85 26.1 -6.35 25.75 -6.7 25.35 -6.85 25.0 -6.85 24.6 -6.95 24.3 -7.25 23.85 -7.9 23.5 -8.65 22.75 -9.4 22.0 -9.75 21.6 -10.1 21.25 -10.7 20.45 -10.9 20.1 -10.95 19.35 -11.0 18.6 -11.0 18.25 -11.0 17.85 -11.0 17.5 -11.0 16.75 -11.0 16.0 -10.85 15.65 -10.65 15.25 -10.5 14.85 -10.45 14.5 -10.35 14.15 -10.1 13.75 -9.75 13.4 -9.25 13.0 -9.0 12.65 -8.65 12.25 -8.25 11.85 -7.85 11.5 -7.5 11.25 -7.25 11.15 -6.5 11.0 -4.1 10.75 -4.1 10.35 -4.0 10.0 -3.85 9.25 -3.75 8.85 -3.6 8.5 -3.5 8.1 -3.1 7.4 -2.6 6.65 -2.25 6.25 -1.85 5.85 -1.5 5.5 -1.0 5.1 0.0 4.95 0.0 4.85 M4.0 9.85 L3.75 9.8 3.25 9.8 3.15 9.85 3.15 10.6 3.15 11.35 3.15 12.1 3.15 12.5 3.4 12.3 4.15 11.25 4.9 10.5 4.5 10.1 4.0 9.85" fill="#ffffff" fill-opacity="0.2" fill-rule="evenodd" stroke="none"/>
    <path d="M3.15 -22.6 L3.4 -22.45 3.55 -22.25 3.65 -22.05 4.0 -21.85 4.15 -21.65 4.25 -21.5 4.25 -21.3 4.3 -21.1 4.3 -20.95 4.3 -20.75 4.35 -20.55 4.4 -20.35 4.5 -20.15 4.5 -19.8 4.5 -19.4 4.5 -19.05 4.5 -18.5 4.5 -18.3 4.55 -18.1 4.6 -17.9 4.65 -17.75 4.65 -16.6 4.65 -14.9 4.65 -13.25 4.6 -13.05 4.5 -12.9 4.35 -12.7 4.1 -12.5 4.1 -12.3 4.1 -12.1 4.1 -11.9 4.1 -11.75 3.95 -11.0 3.9 -10.05 3.85 -8.75 3.85 -8.35 3.8 -8.2 3.65 -8.0 3.55 -7.8 3.15 -7.4 3.1 -7.25 3.1 -7.05 3.05 -6.85 3.0 -6.65 2.9 -6.5 2.8 -6.3 2.7 -6.1 2.6 -5.9 2.5 -5.55 2.3 -5.0 2.15 -4.45 1.9 -3.5 1.8 -3.3 1.7 -3.1 1.6 -2.9 1.5 -2.55 1.35 -2.15 1.25 -1.8 1.05 -1.25 1.05 -1.05 1.05 -0.85 0.95 -0.7 0.85 -0.5 0.8 -0.3 0.6 0.1 0.5 0.25 0.25 0.45 -0.35 0.65 -0.5 0.75 -0.65 0.8 -1.0 0.9 -1.5 0.75 -1.75 0.55 -1.95 0.4 -2.1 0.2 -2.15 0.0 -2.15 -0.15 -2.15 -0.55 -2.15 -0.9 -2.15 -1.3 -2.05 -1.5 -1.95 -1.65 -1.9 -1.85 -1.85 -2.05 -1.8 -2.25 -1.7 -2.6 -1.65 -2.8 -1.55 -3.0 -1.45 -3.2 -1.4 -3.35 -1.25 -3.55 -1.15 -3.9 -1.05 -4.5 -0.9 -5.05 -0.65 -6.0 -0.5 -6.15 -0.45 -6.35 -0.4 -6.55 -0.25 -6.75 -0.2 -6.9 -0.15 -7.1 0.0 -7.3 0.85 -10.85 Q1.25 -12.95 1.2 -15.15 1.1 -16.8 1.25 -18.35 L1.3 -18.55 1.4 -18.75 1.45 -19.5 1.5 -20.45 1.5 -21.55 1.5 -21.95 1.55 -22.1 1.65 -22.3 1.8 -22.5 2.0 -22.6 2.1 -22.65 2.45 -22.7 2.5 -22.75 2.75 -22.75 3.15 -22.6" fill="#ff9900" fill-opacity="0.2" fill-rule="evenodd" stroke="none"/>
    <path d="M3.0 -21.95 L3.15 -21.75 3.3 -21.55 3.4 -21.35 3.6 -21.0 3.65 -20.8 3.75 -20.6 3.85 -20.4 4.1 -20.25 4.3 -20.05 4.35 -19.85 4.4 -19.65 4.5 -19.5 Q4.45 -18.8 4.55 -18.2 L4.9 -16.5 5.25 -14.6 5.3 -14.45 5.4 -14.25 5.5 -14.05 5.6 -13.85 5.75 -13.3 5.95 -12.35 6.05 -11.6 6.05 -11.05 Q6.15 -10.7 6.45 -10.45 L7.1 -9.55 7.55 -8.6 7.65 -8.4 7.75 -8.25 7.8 -8.05 7.85 -7.85 7.9 -7.65 8.05 -7.5 8.1 -7.3 8.3 -6.9 8.5 -6.55 8.6 -6.35 8.65 -6.15 8.75 -6.0 8.85 -5.8 9.15 -4.85 9.45 -3.75 9.7 -2.45 9.8 -2.05 9.8 -1.65 9.8 -1.1 9.8 -0.35 9.8 0.2 9.85 0.4 10.0 0.75 10.1 1.15 10.3 1.7 10.3 1.9 10.3 2.25 10.3 2.85 10.3 3.4 10.25 3.6 10.15 3.75 10.1 3.95 9.95 4.15 9.8 4.3 9.6 4.45 9.25 4.5 8.75 4.4 8.5 4.2 8.35 4.0 8.3 3.85 8.25 3.65 8.15 3.45 8.15 3.25 8.15 3.1 8.15 2.7 8.15 2.35 8.1 1.95 8.05 1.75 7.9 1.6 7.6 1.4 7.4 1.2 7.3 1.0 7.15 0.85 7.15 0.65 7.15 0.45 7.15 0.25 7.15 -0.1 7.1 -0.3 7.05 -0.5 6.9 -0.65 6.9 -0.85 6.9 -1.05 6.9 -1.25 6.9 -1.4 6.9 -1.8 6.85 -2.0 6.8 -2.15 6.75 -2.35 6.75 -2.55 6.65 -2.75 6.55 -2.9 6.5 -3.1 6.4 -3.3 6.35 -3.5 6.3 -3.65 6.15 -3.85 6.15 -4.05 6.1 -4.45 5.95 -5.0 5.75 -5.55 5.65 -5.75 5.55 -5.95 5.45 -6.1 5.4 -6.25 5.35 -6.25 5.0 -6.15 4.5 -6.3 4.25 -6.5 4.05 -6.65 4.0 -6.85 3.95 -7.05 3.9 -7.25 3.8 -7.45 3.7 -7.6 3.6 -7.8 3.55 -8.0 3.5 -8.15 3.4 -8.55 3.3 -8.95 3.25 -9.3 3.05 -9.5 2.85 -9.65 2.65 -9.85 2.55 -10.05 2.5 -10.25 2.5 -10.6 2.45 -11.2 2.3 -11.75 2.25 -11.9 2.25 -12.1 2.25 -12.3 2.25 -12.5 2.25 -12.65 2.25 -12.85 Q2.05 -13.2 2.0 -13.6 L1.8 -14.75 1.55 -15.7 1.4 -16.05 1.3 -16.25 1.2 -17.55 1.25 -19.25 1.25 -21.1 1.25 -21.5 1.3 -21.65 1.4 -21.85 1.6 -22.05 1.85 -22.2 2.2 -22.2 2.25 -22.25 2.65 -22.1 3.0 -21.95" fill="#ff9900" fill-opacity="0.2" fill-rule="evenodd" stroke="none"/>
    <path d="M12.1 -0.6 L12.25 -0.8 12.4 -1.0 12.65 -1.1 12.95 -1.15 13.0 -1.15 13.5 -1.1 13.9 -1.0 14.1 -0.8 14.25 -0.6 14.4 -0.4 14.55 -0.25 14.65 -0.05 14.7 0.15 14.75 0.35 14.75 0.5 14.75 0.7 14.75 0.9 14.85 1.1 15.1 1.3 15.3 1.45 Q15.7 4.3 15.75 7.25 15.75 10.9 15.1 14.4 L14.1 19.1 14.05 19.25 13.85 19.65 13.55 20.2 13.25 20.75 13.0 20.95 12.5 21.1 12.1 21.0 11.75 20.9 11.5 20.7 11.35 20.5 11.3 20.35 11.25 20.15 11.25 19.95 11.25 19.75 11.3 19.6 11.35 19.4 11.4 19.2 11.5 19.0 11.55 18.85 11.55 18.65 11.6 18.45 11.75 18.25 11.85 18.1 11.85 17.9 11.85 17.7 12.0 17.5 12.2 17.3 12.3 17.15 12.3 16.95 12.25 16.8 12.15 16.6 12.05 16.4 Q11.85 14.9 12.15 13.4 L12.65 9.25 12.75 6.1 12.65 5.9 12.5 5.7 12.35 5.5 12.3 5.35 12.25 5.15 12.25 4.95 12.25 4.6 12.25 4.2 12.25 4.0 12.2 3.95 11.9 4.1 11.5 4.2 11.05 4.1 10.8 3.9 10.6 3.7 10.3 3.3 10.25 3.15 10.25 2.95 10.25 2.75 10.3 2.6 10.35 2.4 10.5 2.2 10.55 2.0 10.6 1.85 10.65 1.65 10.75 1.45 10.8 1.25 10.9 1.1 11.15 0.7 11.6 0.1 12.05 -0.4 12.1 -0.6" fill="#ff9900" fill-opacity="0.2" fill-rule="evenodd" stroke="none"/>
    <path d="M11.6 -0.3 L11.85 -0.4 12.1 -0.5 12.25 -0.55 12.45 -0.55 12.5 -0.6 12.85 -0.5 13.4 -0.3 13.65 -0.1 13.95 0.1 14.4 0.5 14.65 0.85 14.75 1.0 14.8 1.2 14.8 1.4 14.8 1.6 14.85 1.75 14.9 1.95 15.05 2.35 15.15 2.7 15.3 3.25 15.3 5.5 15.05 8.85 Q14.75 10.55 14.75 12.25 L14.65 12.45 14.55 12.65 14.4 12.85 14.25 12.95 14.1 13.0 13.75 13.1 13.25 12.95 13.0 12.75 12.8 12.6 12.75 12.4 12.65 12.2 12.6 12.0 12.6 11.85 12.6 11.65 12.65 11.25 12.65 10.9 12.65 10.35 12.65 10.15 12.75 9.95 12.8 9.75 12.9 9.4 13.0 8.85 13.15 8.1 13.15 7.9 13.15 7.7 13.15 7.5 13.15 7.35 13.15 7.15 13.15 6.85 13.15 6.8 12.65 6.65 12.35 6.45 12.15 6.25 12.1 6.1 12.05 5.9 12.0 5.85 Q11.9 5.85 11.85 5.95 L11.65 6.3 11.25 6.85 10.75 7.4 10.6 7.45 10.25 7.5 9.75 7.4 9.5 7.2 9.35 7.0 9.3 6.85 9.25 6.65 9.25 6.45 9.25 6.25 9.3 6.1 9.4 5.9 9.6 5.7 9.75 5.5 9.8 5.35 9.85 5.15 9.9 4.95 10.0 4.75 10.05 4.6 10.15 4.4 10.25 4.2 10.3 4.0 10.35 3.85 10.4 3.65 10.5 3.45 10.5 3.25 10.5 3.1 10.5 2.9 10.5 2.7 10.55 2.5 10.6 2.35 10.65 2.15 10.75 1.95 10.75 1.75 10.75 1.6 10.8 1.4 10.85 1.2 11.0 1.0 11.0 0.85 11.05 0.65 11.15 0.45 11.25 0.25 11.3 0.1 11.45 -0.1 11.6 -0.3" fill="#ff9900" fill-opacity="0.2" fill-rule="evenodd" stroke="none"/>
    <path d="M-6.5 -12.6 L-6.35 -12.6 -5.9 -12.5 -5.7 -12.3 -5.6 -12.1 -5.55 -11.9 -5.45 -11.55 -5.45 -11.35 -5.4 -11.0 -5.4 -10.4 -5.2 -10.05 -5.0 -9.7 -4.65 -8.95 -4.35 -8.35 -4.3 -8.15 -4.2 -8.0 -4.1 -7.8 -3.8 -6.85 -3.3 -5.35 -3.0 -4.05 -2.95 -3.85 -3.0 -3.65 -3.0 -3.5 -3.1 -3.3 -3.15 -3.1 -3.35 -2.95 -3.6 -2.75 -4.1 -2.6 -4.6 -2.75 -4.65 -2.4 -4.65 -2.25 -4.65 -1.85 -4.65 -1.5 -4.65 -1.3 -4.7 -1.1 -4.8 -0.9 -4.85 -0.75 -4.95 -0.55 -5.05 -0.35 -5.1 -0.15 -5.2 0.0 -5.35 0.2 -5.45 0.4 -5.6 0.6 -5.6 1.15 -5.6 2.1 -5.6 3.2 -5.6 3.6 -5.7 3.95 -5.85 4.35 -6.05 4.9 -6.2 5.45 -6.35 5.65 -6.45 5.85 -6.7 6.0 -7.0 6.2 -7.3 6.4 -7.4 6.6 -7.6 6.7 -7.7 6.75 -8.1 6.8 -8.35 6.85 -8.85 6.7 -9.1 6.5 -9.25 6.3 -9.35 6.15 -9.4 3.7 Q-9.5 2.35 -9.2 1.1 -8.95 -0.2 -9.05 -1.55 L-8.75 -2.5 -8.5 -3.95 -8.4 -5.3 -8.4 -5.5 -8.35 -5.65 -8.25 -5.85 -8.15 -6.05 -8.05 -7.15 -8.1 -8.85 -8.1 -10.35 -8.1 -10.55 -8.05 -10.75 -7.95 -10.9 -7.9 -11.1 -7.9 -11.3 -7.85 -11.5 -7.8 -11.65 -7.7 -11.85 -7.6 -12.05 -7.5 -12.25 -7.4 -12.4 -7.2 -12.55 -7.15 -12.6 -6.85 -12.65 -6.5 -12.6" fill="#ff9900" fill-opacity="0.2" fill-rule="evenodd" stroke="none"/>
    <path d="M-6.35 -13.2 L-6.35 -13.25 -5.9 -13.1 -5.65 -12.9 -5.55 -12.75 -5.4 -12.55 -5.3 -11.8 -5.3 -10.5 -5.4 -9.15 -5.5 -9.0 -5.6 -8.8 -5.6 -8.4 -5.6 -7.65 -5.6 -6.9 -5.6 -6.55 -5.65 -6.35 -5.8 -6.15 -6.25 -4.7 -6.6 -2.6 -6.65 -1.1 -6.95 -0.15 -7.45 1.35 -7.85 2.65 -7.85 3.6 -7.85 5.1 -7.85 6.6 -7.8 6.75 -7.7 6.95 -7.6 7.15 -7.35 7.5 -7.3 7.7 -7.2 7.9 -7.15 8.1 -7.1 8.25 -7.05 8.45 -7.05 8.65 -7.05 8.85 -6.95 9.0 -6.85 9.2 -6.8 9.4 -6.8 9.75 -6.75 10.15 -6.8 10.7 -6.85 10.9 -6.95 11.1 -7.05 11.25 -7.3 11.45 -7.6 11.6 -7.85 11.5 -7.9 11.45 -8.3 11.35 -8.5 11.15 -8.7 10.95 -8.8 10.75 -8.8 10.6 -8.85 10.4 -8.95 10.2 -9.05 10.05 -9.15 9.85 -9.15 9.65 -9.15 9.45 -9.15 9.1 -9.15 8.7 -9.15 8.5 -9.25 8.35 -9.4 8.15 -9.6 7.75 -9.8 7.4 -9.85 5.7 -9.9 3.45 -9.65 1.6 -9.6 1.4 -9.65 1.2 -9.7 1.0 -9.7 0.85 -9.7 0.65 -9.7 0.25 -9.65 -0.1 -9.7 -0.5 -9.7 -1.25 -9.7 -2.0 -9.7 -2.35 -9.65 -2.55 -9.6 -2.75 -9.5 -3.5 -9.35 -4.6 -9.2 -5.75 -9.15 -6.1 -9.0 -6.7 -8.75 -7.45 -8.7 -7.6 -8.65 -7.8 -8.55 -8.0 -8.45 -8.15 -8.4 -8.35 -8.3 -8.75 -8.15 -9.1 -8.05 -9.3 -7.95 -9.5 -7.85 -9.65 -7.8 -9.85 -7.7 -10.05 -7.65 -10.25 -7.6 -10.4 -7.6 -10.6 -7.6 -11.0 -7.6 -11.55 -7.55 -12.1 -7.45 -12.3 -7.35 -12.5 -7.25 -12.65 -6.95 -13.05 -6.7 -13.15 -6.35 -13.2" fill="#ff9900" fill-opacity="0.2" fill-rule="evenodd" stroke="none"/>
    <path d="M-9.05 11.4 L-9.05 11.6 -9.1 11.75 -9.15 11.95 -9.3 12.15 -9.4 12.35 -9.6 12.45 -9.7 12.5 -10.1 12.55 -10.35 12.6 -10.85 12.45 -11.1 12.25 -11.45 12.15 -11.6 12.35 -11.4 13.3 -11.1 14.4 -10.9 15.7 -10.9 15.9 -10.8 16.3 -10.65 16.85 -10.5 17.4 -10.4 17.75 -10.3 17.95 -10.2 18.15 -10.15 18.35 -10.1 18.5 -10.05 18.7 -9.9 18.9 -9.85 19.45 -9.85 20.2 -9.8 20.75 -9.9 21.5 -10.0 21.7 -10.1 21.9 -10.1 22.1 -10.15 22.25 -10.25 22.45 -10.35 22.65 -10.55 22.85 -10.7 22.95 -11.1 23.0 -11.6 22.9 -11.85 22.7 -11.95 22.5 -12.05 22.35 -12.1 22.15 -12.2 21.95 -12.4 21.75 -12.6 21.4 -12.9 20.85 -12.95 20.65 -13.05 20.45 -13.1 20.25 -13.15 19.9 -13.2 19.7 -13.3 19.55 -13.4 19.35 -13.6 18.95 -13.8 18.6 -13.85 18.4 -13.9 18.2 -13.95 18.0 -14.1 17.85 -15.0 14.65 -15.35 12.2 -15.35 9.4 -15.35 7.9 -15.35 7.7 -15.45 7.55 -15.65 7.3 -15.9 6.95 -15.9 6.75 -15.9 6.6 -15.85 6.4 -15.65 6.2 -15.55 6.1 -15.4 6.05 -15.1 5.95 -14.35 5.9 -14.1 5.9 -13.65 6.0 -13.45 6.2 -13.35 6.4 -13.2 6.6 -13.15 6.7 -13.1 6.75 -12.65 6.9 -12.4 7.1 -12.3 7.25 -12.15 7.45 -12.1 7.65 -12.1 7.85 -12.1 8.2 -12.1 8.75 -12.05 8.95 -11.9 9.15 -11.4 9.5 -10.85 9.9 -10.7 10.1 -10.3 10.3 -9.9 10.45 -9.3 10.85 -9.2 11.0 -9.1 11.2 -9.05 11.4" fill="#ff9900" fill-opacity="0.2" fill-rule="evenodd" stroke="none"/>
    <path d="M-15.25 7.85 L-15.3 7.45 -15.25 7.3 -15.15 7.1 -14.95 6.95 -14.9 6.9 -14.6 6.85 -13.85 6.9 -13.35 7.05 -13.05 7.15 -12.9 7.35 -12.85 7.45 -12.65 7.45 -12.35 7.4 -11.85 7.4 -11.55 7.55 -11.35 7.65 -11.05 7.7 -11.1 7.9 -11.2 8.1 -11.3 8.25 -11.35 8.45 -11.35 8.65 -11.25 8.85 -11.15 9.05 -11.1 9.2 -10.95 9.4 -10.9 9.6 -10.85 9.75 -10.8 9.95 -10.8 10.15 -10.8 10.7 -10.8 11.45 -10.8 11.85 -10.8 12.4 -10.85 12.6 -10.95 12.75 -11.05 12.95 -11.1 13.15 -11.15 13.35 -11.25 13.55 -11.6 14.1 -12.25 14.8 -12.6 15.15 -12.7 15.2 -14.1 15.25 -14.6 15.15 -14.85 14.95 -15.2 14.6 -15.4 14.4 -15.55 14.2 -15.6 13.65 -15.6 12.7 -15.6 12.15 -15.6 11.2 -15.6 10.85 -15.55 10.65 -15.45 10.45 -15.4 10.25 -15.35 9.9 -15.3 9.15 -15.3 8.6 -15.25 7.85 M-13.35 8.2 L-13.6 8.1 -13.9 8.2 -13.9 8.4 -13.9 8.6 -13.85 8.75 -13.85 8.95 -13.8 9.1 -13.45 9.2 -13.4 9.1 -13.4 8.9 -13.4 8.7 -13.35 8.5 -13.3 8.35 -13.35 8.2" fill="#ff9900" fill-opacity="0.2" fill-rule="evenodd" stroke="none"/>
    <path d="M2.4 -21.8 L2.65 -21.6 2.85 -21.4 3.0 -21.25 3.1 -21.05 3.15 -20.85 3.15 -20.7 3.15 -20.3 3.15 -19.9 3.15 -19.75 3.2 -19.55 3.3 -19.35 3.3 -19.15 3.3 -19.0 3.4 -18.8 3.4 -18.6 3.4 -18.4 3.5 -18.25 3.55 -18.05 3.6 -17.85 3.5 -17.7 3.4 -17.6 3.35 -17.4 3.35 -17.25 3.4 -16.85 3.4 -16.3 3.55 -15.75 3.6 -15.7 3.85 -15.75 4.25 -15.8 4.75 -15.8 5.25 -15.65 5.65 -15.3 6.2 -14.7 6.55 -14.15 6.55 -13.25 6.55 -11.75 6.5 -10.4 6.5 -10.25 6.4 -10.05 6.3 -9.85 6.4 -9.7 6.6 -9.5 6.7 -9.3 6.8 -9.1 6.9 -8.35 6.85 -7.25 6.8 -6.1 6.8 -5.9 6.75 -5.75 6.65 -5.55 6.6 -5.35 6.6 -5.15 6.05 -4.25 Q5.5 -3.4 4.75 -2.7 L4.1 -2.25 3.75 -2.2 2.5 -2.15 2.0 -2.3 1.75 -2.5 1.55 -2.65 1.45 -2.85 1.35 -3.05 1.35 -3.15 1.3 -3.2 1.0 -3.25 0.5 -3.25 0.0 -3.35 -0.25 -3.55 -0.4 -3.75 -0.45 -3.9 -0.5 -4.1 -0.5 -4.3 -0.5 -4.5 -0.3 -4.8 0.1 -5.4 0.6 -6.15 0.65 -6.35 0.75 -6.55 0.85 -6.75 1.05 -7.65 1.25 -9.15 1.4 -10.65 1.35 -10.85 1.25 -11.05 1.15 -11.25 1.1 -11.45 1.1 -11.6 1.0 -12.0 0.9 -12.15 0.9 -15.0 0.95 -18.35 1.05 -20.6 1.05 -21.2 1.1 -21.35 1.25 -21.55 1.4 -21.75 1.65 -21.85 1.95 -21.9 2.0 -21.95 2.4 -21.8 M4.3 -13.1 L4.3 -13.05 3.8 -11.35 3.55 -9.7 3.5 -8.6 3.7 -8.9 3.9 -9.25 4.05 -9.4 4.15 -9.8 4.3 -10.15 4.4 -10.55 4.4 -11.5 4.45 -12.4 4.3 -13.1 M4.65 -6.5 L4.65 -6.6 4.6 -6.6 4.55 -6.55 4.0 -5.8 3.4 -5.05 3.05 -4.5 3.1 -4.4 3.4 -4.4 3.8 -4.8 4.1 -5.2 4.35 -5.55 4.5 -5.75 4.5 -5.9 4.55 -6.1 4.6 -6.3 4.65 -6.5" fill="#ff9900" fill-opacity="0.2" fill-rule="evenodd" stroke="none"/>
    <path d="M0.7 -25.05 L1.55 -24.35 3.3 -21.1 4.25 -19.2 6.05 -15.35 6.7 -13.25 6.8 -12.7 Q7.1 -10.85 8.1 -9.5 8.85 -8.5 9.05 -7.3 L10.45 -0.85 10.75 0.25 10.75 1.0 Q10.7 1.45 10.9 1.75 L12.55 -4.0 11.9 -4.8 11.8 -5.0 11.5 -5.95 11.45 -6.1 11.65 -6.3 12.3 -6.1 13.4 -4.6 13.75 -4.05 15.1 -1.1 Q16.35 2.3 16.85 5.9 17.9 13.5 14.65 20.5 L13.95 21.9 12.25 24.6 11.7 25.6 Q11.1 26.95 10.05 28.05 L9.8 28.1 11.45 24.25 12.9 20.95 13.15 20.45 13.95 18.75 14.45 17.2 Q17.35 8.75 14.3 0.15 L14.1 -0.35 13.2 -2.6 Q12.8 -0.85 12.0 1.15 L11.8 1.75 Q11.7 2.25 11.25 2.55 L11.1 3.65 10.8 3.75 10.35 3.45 9.95 1.95 9.6 0.7 8.65 -4.05 Q7.95 -7.2 6.65 -10.2 6.25 -11.15 6.15 -11.9 6.0 -13.0 5.45 -14.05 L4.55 -15.95 3.2 -18.75 0.9 -23.05 Q1.35 -16.9 1.05 -10.8 L0.55 -7.05 -0.6 -3.1 -1.1 -2.7 -1.2 -2.5 -1.55 -1.75 -1.7 -1.65 -2.05 -1.45 -2.45 -1.8 Q-3.25 -2.65 -3.55 -3.6 L-4.05 -4.75 Q-5.3 -7.15 -6.0 -9.8 -6.5 -11.5 -6.0 -13.35 L-5.55 -13.95 -5.45 -13.85 Q-5.55 -11.8 -4.95 -10.0 -4.15 -7.45 -2.95 -5.45 L-2.5 -4.35 -1.55 -2.35 Q-1.25 -2.8 -1.35 -3.1 L-1.2 -4.25 -0.9 -5.2 Q-0.4 -8.4 -0.25 -11.95 0.0 -16.9 0.0 -21.8 0.0 -24.45 -0.75 -26.2 L0.3 -26.2 0.7 -25.05 M-6.05 -16.55 Q-5.65 -15.95 -6.0 -15.4 L-6.15 -14.9 -6.25 -14.5 -6.5 -13.95 -6.6 -13.75 -6.65 -13.5 -6.7 -13.35 -7.1 -12.0 -8.65 -7.0 Q-10.9 1.1 -9.2 9.5 L-8.85 10.7 -8.35 12.15 -8.1 13.1 -8.95 12.0 -9.4 11.2 Q-9.85 10.65 -10.45 10.35 L-11.15 9.95 -11.85 9.2 -12.55 8.4 -13.3 7.55 Q-14.4 6.45 -15.1 5.2 L-15.35 4.5 -15.35 4.15 -15.7 8.55 -15.8 12.8 Q-15.8 15.55 -14.55 18.2 -13.55 20.35 -11.95 22.15 -10.6 23.6 -9.75 25.1 L-9.05 26.3 -8.8 26.85 -7.65 28.15 -7.75 28.2 -8.0 28.15 -8.35 27.75 -8.75 27.4 -8.9 27.2 -9.55 27.0 -10.45 26.0 -11.05 25.35 -13.8 21.9 Q-16.25 19.2 -16.9 15.75 L-17.15 13.35 Q-17.35 10.15 -16.9 6.75 L-16.25 3.2 Q-16.1 2.65 -15.75 2.5 L-15.25 3.0 -15.35 4.15 -14.7 3.65 -14.05 4.2 Q-12.6 6.75 -10.55 8.85 -11.6 3.35 -10.6 -2.45 -9.7 -7.45 -8.15 -12.0 L-7.95 -12.6 -7.85 -13.0 -7.75 -13.2 -7.6 -13.55 -7.5 -13.95 -7.2 -14.7 -6.8 -16.0 Q-6.7 -16.6 -6.05 -16.55" fill="#333333" fill-rule="evenodd" stroke="none"/>
  </g>
</svg>
