<?xml version="1.0" encoding="UTF-8" standalone="no"?>
<svg xmlns:xlink="http://www.w3.org/1999/xlink" height="24.25px" width="24.8px" xmlns="http://www.w3.org/2000/svg">
  <g transform="matrix(1.0, 0.0, 0.0, 1.0, 12.4, 12.3)">
    <path d="M4.1 -4.25 L12.4 -2.8 6.65 3.5 7.65 11.8 0.05 8.3 -7.65 11.8 -6.55 3.5 -12.4 -2.8 -4.05 -4.25 0.0 -11.8 4.1 -4.25" fill="#ffff00" fill-rule="evenodd" stroke="none"/>
    <path d="M0.0 -11.8 L-1.2 -10.15 -2.05 -8.2 Q-2.3 -7.15 -2.75 -6.6 L-3.85 -5.1 Q-4.5 -4.15 -5.7 -4.2 L-7.65 -3.85 Q-8.4 -3.5 -9.4 -3.35 -10.35 -3.2 -10.95 -2.7 -11.55 -2.2 -11.1 -1.5 L-10.1 -0.25 -8.75 0.85 Q-7.95 1.45 -7.5 2.6 L-6.75 4.4 Q-6.5 5.0 -6.95 6.2 L-7.3 8.25 -7.3 9.8 Q-7.4 10.5 -6.95 10.9 L-5.55 10.85 Q-4.6 10.45 -3.85 10.2 L-2.2 9.4 Q-1.3 8.85 -0.25 8.65 0.8 8.5 1.7 9.1 2.6 9.75 3.5 10.2 L5.4 11.05 6.8 11.45 Q7.2 11.4 7.15 10.3 L6.95 8.6 Q6.8 7.95 7.05 6.8 L7.2 4.7 Q7.1 3.8 7.55 2.9 L8.65 1.1 10.0 -0.55 11.35 -1.85 Q12.05 -2.35 11.4 -2.8 10.8 -3.25 10.05 -3.3 L7.9 -3.65 5.9 -4.1 Q5.35 -4.2 4.4 -5.0 L3.0 -6.2 Q2.55 -6.6 2.05 -7.6 L1.1 -9.65 0.35 -10.95 Q0.1 -11.15 0.0 -11.8 Z" fill="none" stroke="#e66b7f" stroke-linecap="round" stroke-linejoin="round" stroke-width="1.0"/>
  </g>
</svg>
