<?xml version="1.0" encoding="UTF-8" standalone="no"?>
<svg xmlns:xlink="http://www.w3.org/1999/xlink" height="19.6px" width="15.6px" xmlns="http://www.w3.org/2000/svg">
  <g transform="matrix(1.0, 0.0, 0.0, 1.0, 5.35, 9.95)">
    <path d="M2.75 -9.9 L2.85 -9.85 2.95 -9.75 3.05 -9.7 3.15 -9.65 3.2 -9.55 3.3 -9.5 3.4 -9.45 3.55 -9.4 3.65 -9.35 3.7 -9.3 3.8 -9.2 3.85 -9.15 3.9 -9.05 3.9 -8.95 3.95 -8.85 4.0 -8.8 4.05 -8.7 4.1 -8.6 4.1 -8.55 4.2 -8.35 4.2 -8.25 4.2 -8.15 4.25 -8.05 4.2 -7.95 4.2 -7.85 4.1 -7.7 4.0 -7.55 3.85 -7.35 3.8 -7.25 3.7 -7.2 3.55 -7.05 3.5 -6.95 3.45 -6.8 3.4 -6.7 3.35 -6.55 3.3 -6.45 3.2 -6.3 2.85 -5.95 2.65 -5.75 2.3 -5.55 1.15 -4.95 1.05 -4.85 0.9 -4.75 0.55 -4.55 0.35 -4.4 0.25 -4.25 0.15 -4.1 -0.05 -3.9 -0.2 -3.75 -0.35 -3.55 -0.45 -3.45 -0.65 -3.1 -0.75 -3.0 -1.0 -2.65 -1.3 -2.1 -1.35 -2.0 -0.7 -2.15 0.1 -2.25 1.95 -2.15 2.3 -1.95 2.5 -1.95 2.65 -1.9 2.75 -1.85 2.9 -1.8 3.0 -1.75 3.2 -1.65 3.4 -1.55 3.45 -1.45 3.55 -1.4 3.6 -1.3 3.6 -1.2 3.65 -1.1 3.7 -1.05 3.75 -0.95 3.8 -0.85 3.85 -0.7 3.95 -0.5 3.95 -0.4 3.95 -0.3 3.95 -0.2 4.05 -0.15 4.15 -0.1 4.2 0.0 4.3 0.05 4.35 0.1 4.4 0.1 4.65 0.05 4.85 0.05 5.0 0.1 4.9 0.1 4.85 0.15 4.8 0.15 4.7 0.2 4.65 0.25 4.6 0.35 4.55 0.4 4.5 0.55 4.45 0.7 4.1 1.0 3.7 1.7 3.65 1.85 3.6 1.9 3.6 2.05 3.6 2.15 3.65 2.2 3.65 2.25 3.7 2.3 3.7 2.35 3.75 2.4 3.8 2.4 3.85 2.45 3.9 2.45 3.9 2.5 3.95 2.5 4.0 2.55 4.1 2.55 4.15 2.6 4.2 2.65 4.3 2.9 4.45 3.25 4.5 3.35 4.55 3.4 4.6 3.45 4.45 3.55 3.25 4.25 2.95 4.3 2.75 4.4 2.8 4.4 3.1 4.35 3.25 4.4 3.45 4.4 3.5 4.5 3.6 4.55 3.7 4.6 3.75 4.7 3.8 4.75 3.85 4.85 3.85 4.95 3.9 5.05 3.95 5.1 4.0 5.2 4.0 5.3 4.0 5.4 4.0 5.5 4.0 5.6 4.0 5.7 4.0 5.8 4.05 5.9 4.0 6.0 4.05 6.1 4.0 6.25 3.95 6.35 3.8 6.5 3.7 6.7 3.55 6.85 3.5 7.0 3.5 7.1 3.4 7.25 3.25 7.35 3.1 7.45 2.65 7.7 2.45 7.8 2.3 8.2 1.85 8.65 Q0.75 9.4 -0.55 9.65 L-0.75 9.65 -0.9 9.6 -1.0 9.5 -1.05 9.45 -1.15 9.4 -1.2 9.3 -1.25 9.25 -1.35 9.2 -1.55 9.15 -1.7 9.1 -1.8 9.05 -2.05 9.05 -2.25 9.05 -2.5 9.05 -2.6 9.0 -2.75 8.95 -2.85 8.9 -2.9 8.85 -3.0 8.75 -3.05 8.7 -3.1 8.6 -3.2 8.55 -3.35 8.5 -3.45 8.45 -3.55 8.4 -3.65 8.35 -3.7 8.25 -3.8 8.2 -3.9 8.15 -4.0 8.1 -4.1 8.0 -4.15 7.95 -4.25 7.9 -4.3 7.8 -4.4 7.75 -4.5 7.7 -4.55 7.6 -4.6 7.55 -4.65 7.45 -4.7 7.35 -4.75 7.3 -4.75 7.2 -4.8 7.1 -4.85 7.0 -4.9 6.95 -4.9 6.85 -4.9 6.75 -4.9 6.6 -4.85 6.5 -4.8 6.35 -4.75 6.25 -4.8 6.15 -4.8 6.05 -4.8 5.95 -4.75 5.85 -4.75 5.7 -4.65 5.6 -4.65 5.5 -4.7 5.4 -4.75 5.3 -4.8 5.25 -4.8 5.15 -4.85 5.05 -4.9 4.95 -4.9 4.85 -4.95 4.75 -4.95 4.65 -4.95 4.55 -5.0 4.5 -5.05 4.4 -5.05 4.3 -5.1 4.2 -5.1 4.1 -5.1 4.05 -5.15 3.95 -5.15 3.75 -5.15 3.6 -5.15 3.5 -5.15 3.4 -5.15 3.3 -5.2 3.2 -5.2 3.1 -5.15 3.0 -5.15 2.9 -5.15 2.8 -5.15 2.7 -5.2 2.6 -5.2 2.5 -5.25 2.4 -5.25 2.35 -5.3 2.25 -5.3 2.15 -5.3 2.05 -5.3 1.9 -5.3 1.8 -5.3 1.7 -5.35 1.65 -5.35 1.5 -5.35 1.4 -5.3 1.3 -5.25 1.2 -5.2 1.05 -5.25 0.95 -5.25 0.85 -5.25 0.75 -5.2 0.4 -5.05 -0.15 -4.75 -1.7 -4.3 -2.9 -4.15 -3.05 -4.05 -3.2 -3.95 -3.6 -3.8 -3.95 -3.4 -5.05 -3.0 -6.05 -2.8 -6.35 -2.6 -6.65 -2.4 -6.95 -1.85 -7.45 -1.7 -7.55 -1.5 -7.75 -1.4 -7.9 -1.25 -8.05 -1.15 -8.2 -1.0 -8.3 -0.75 -8.5 -0.6 -8.6 -0.4 -8.8 -0.25 -8.9 -0.05 -9.1 0.1 -9.2 0.55 -9.4 0.8 -9.45 1.2 -9.6 1.55 -9.75 2.0 -9.9 2.25 -9.95 2.45 -9.95 2.6 -9.9 2.75 -9.9" fill="#946d5a" fill-rule="evenodd" stroke="none"/>
    <path d="M2.35 3.8 L2.4 3.7 2.55 3.65 2.6 3.6 2.65 3.55 2.7 3.55 2.8 3.45 2.95 3.4 3.05 3.4 3.1 3.35 3.25 3.35 3.3 3.3 3.35 3.3 3.5 3.35 3.65 3.4 3.7 3.45 3.9 3.55 3.95 3.6 4.0 3.65 4.05 3.75 4.15 4.0 4.2 4.2 4.15 4.95 3.9 5.4 3.8 5.45 3.75 5.5 3.7 5.5 3.65 5.55 3.6 5.55 3.5 5.6 3.2 5.6 3.15 5.55 3.05 5.55 3.0 5.5 2.9 5.5 2.85 5.45 2.8 5.45 2.75 5.4 2.75 5.35 2.7 5.35 2.65 5.3 2.6 5.3 2.6 5.25 2.55 5.2 2.5 5.15 2.5 5.1 2.45 5.05 2.45 4.95 2.45 4.85 2.4 4.7 2.4 4.35 2.4 4.25 2.35 4.2 2.35 4.1 2.35 4.0 2.3 3.95 2.35 3.8" fill="#946d5a" fill-rule="evenodd" stroke="none"/>
    <path d="M0.65 -2.0 L0.7 -2.15 0.8 -2.2 1.45 -2.5 3.5 -3.2 5.15 -3.8 5.5 -3.95 6.05 -4.1 6.5 -4.2 6.55 -4.2 6.65 -4.2 6.75 -4.2 6.85 -4.2 6.95 -4.25 7.05 -4.3 7.15 -4.3 7.3 -4.3 7.35 -4.25 7.45 -4.25 7.65 -4.2 7.8 -4.2 7.9 -4.2 7.95 -4.2 8.0 -4.25 8.05 -4.25 8.15 -4.25 8.2 -4.25 8.4 -4.25 8.6 -4.25 8.7 -4.25 8.8 -4.25 8.9 -4.2 9.0 -4.15 9.05 -4.1 9.2 -4.1 9.25 -4.05 9.35 -4.0 9.5 -3.95 9.55 -3.9 9.6 -3.9 9.7 -3.8 9.75 -3.8 9.75 -3.75 9.9 -3.65 10.0 -3.45 10.1 -3.4 10.1 -3.35 10.15 -3.3 10.2 -3.25 10.2 -3.15 10.15 -2.55 9.8 -1.95 9.75 -1.9 9.7 -1.85 9.6 -1.8 9.55 -1.7 9.5 -1.65 9.45 -1.6 9.2 -1.45 9.05 -1.4 9.0 -1.4 8.95 -1.35 8.85 -1.3 8.8 -1.25 8.75 -1.25 8.65 -1.25 8.4 -1.25 8.1 -1.25 7.95 -1.25 7.9 -1.25 7.8 -1.2 7.7 -1.2 7.45 -1.2 7.05 -1.2 6.85 -1.2 6.8 -1.2 6.7 -1.25 6.6 -1.25 6.5 -1.25 6.4 -1.25 6.15 -1.15 6.05 -1.1 6.0 -1.1 5.4 -0.95 4.45 -0.55 3.45 -0.2 3.4 -0.2 3.3 -0.2 3.1 -0.2 3.05 -0.25 2.95 -0.25 2.9 -0.3 2.85 -0.3 2.85 -0.35 2.8 -0.4 2.75 -0.4 2.55 -0.4 2.4 -0.4 2.3 -0.4 2.25 -0.45 2.2 -0.45 2.15 -0.5 2.1 -0.55 2.05 -0.55 2.0 -0.5 1.85 -0.5 1.75 -0.5 1.7 -0.45 1.4 -0.45 1.35 -0.4 1.25 -0.4 0.95 -0.4 0.95 -0.45 0.9 -0.45 0.85 -0.5 0.8 -0.5 0.75 -0.55 0.75 -0.6 0.7 -0.7 0.7 -0.75 0.7 -0.85 0.7 -0.95 0.75 -1.05 0.8 -1.1 0.7 -1.1 0.65 -1.15 0.65 -1.25 0.65 -1.35 0.7 -1.4 0.75 -1.45 0.8 -1.45 0.85 -1.5 0.9 -1.5 0.95 -1.55 0.85 -1.55 0.8 -1.6 0.75 -1.6 0.7 -1.65 0.7 -1.7 0.65 -1.7 0.65 -1.8 0.6 -1.9 0.65 -2.0" fill="#946d5a" fill-rule="evenodd" stroke="none"/>
    <path d="M4.85 -4.2 L4.9 -4.25 5.2 -4.4 5.45 -4.45 5.7 -4.55 5.8 -4.55 6.3 -4.65 6.65 -4.65 7.0 -4.65 7.15 -4.65 7.3 -4.65 7.4 -4.65 7.45 -4.65 7.7 -4.55 7.95 -4.55 8.15 -4.55 8.35 -4.5 8.4 -4.5 8.45 -4.55 8.6 -4.55 8.65 -4.5 8.75 -4.5 8.85 -4.4 8.95 -4.4 9.0 -4.35 9.05 -4.35 9.05 -4.3 9.15 -4.3 9.2 -4.25 9.35 -4.25 9.4 -4.2 9.45 -4.2 9.45 -4.15 9.55 -4.05 9.55 -4.0 9.6 -3.95 9.6 -3.85 9.6 -3.75 9.65 -3.7 9.65 -3.6 9.4 -3.0 9.15 -2.65 9.05 -2.55 8.95 -2.5 8.9 -2.45 8.8 -2.4 8.6 -2.4 8.4 -2.3 8.3 -2.25 8.2 -2.25 8.15 -2.3 8.1 -2.3 8.05 -2.35 8.05 -2.4 8.0 -2.45 8.05 -2.55 8.1 -2.65 8.15 -2.7 8.25 -2.75 8.3 -2.8 8.45 -2.95 8.45 -3.0 8.5 -3.05 8.6 -3.15 8.7 -3.35 8.75 -3.55 8.7 -3.6 8.65 -3.6 8.6 -3.65 8.55 -3.7 8.15 -3.7 8.1 -3.75 7.95 -3.75 7.9 -3.7 7.75 -3.7 7.7 -3.75 7.55 -3.7 7.5 -3.7 7.45 -3.65 7.4 -3.65 7.25 -3.65 6.9 -3.6 6.65 -3.55 6.45 -3.55 5.95 -3.4 5.05 -3.05 Q4.65 -2.8 4.25 -2.65 L4.2 -2.6 4.05 -2.55 3.8 -2.4 3.65 -2.35 3.6 -2.3 3.5 -2.25 3.45 -2.25 3.4 -2.15 3.4 -2.1 3.25 -2.1 3.2 -2.15 3.15 -2.15 3.15 -2.2 3.1 -2.25 3.05 -2.3 3.05 -2.35 3.0 -2.4 3.0 -2.45 2.95 -2.5 2.95 -2.65 3.0 -2.7 3.0 -2.75 2.95 -2.8 2.9 -2.85 2.9 -2.9 2.85 -3.0 2.9 -3.1 2.95 -3.25 3.05 -3.3 3.15 -3.3 3.5 -3.65 4.3 -4.0 4.85 -4.2" fill="#946d5a" fill-rule="evenodd" stroke="none"/>
    <path d="M4.4 -1.6 L4.25 -1.6 4.15 -1.6 3.95 -1.5 3.8 -1.45 3.6 -1.45 3.55 -1.5 3.55 -1.55 3.5 -1.6 3.5 -1.7 3.55 -1.8 3.6 -1.8 3.7 -1.85 3.85 -1.95 4.0 -2.0 4.05 -2.1 4.1 -2.15 4.2 -2.2 4.3 -2.2 4.35 -2.25 4.45 -2.25 4.55 -2.25 4.75 -2.3 5.0 -2.4 5.2 -2.45 5.25 -2.45 5.7 -2.4 6.05 -2.4 6.4 -2.4 7.1 -2.35 7.9 -2.3 8.55 -2.3 8.75 -2.35 8.95 -2.4 9.1 -2.45 9.15 -2.5 9.2 -2.55 9.3 -2.55 9.3 -2.65 9.25 -2.65 9.2 -2.6 9.2 -2.55 9.15 -2.55 9.1 -2.6 9.05 -2.65 9.05 -2.7 9.05 -2.8 9.05 -2.85 9.1 -2.95 9.15 -3.05 9.2 -3.05 9.25 -3.1 9.3 -3.05 9.4 -3.05 9.45 -3.1 9.5 -3.2 9.55 -3.25 9.65 -3.3 9.7 -3.35 9.9 -3.35 9.95 -3.3 10.0 -3.3 10.05 -3.25 10.15 -3.15 10.2 -3.1 10.25 -3.05 10.25 -2.95 10.25 -2.85 10.25 -2.7 10.1 -2.35 10.05 -2.25 10.0 -2.15 9.95 -2.05 9.9 -2.0 9.85 -1.85 9.8 -1.7 9.75 -1.6 9.55 -1.45 9.25 -1.35 9.1 -1.3 8.95 -1.2 Q8.85 -1.1 8.75 -1.1 L8.5 -1.1 8.45 -1.05 8.4 -1.05 8.3 -1.05 8.2 -1.05 8.05 -1.05 7.9 -1.05 7.8 -1.05 7.7 -1.05 7.55 -1.05 7.4 -1.15 7.15 -1.2 7.05 -1.3 7.0 -1.35 6.95 -1.45 6.95 -1.55 6.9 -1.6 6.8 -1.6 6.75 -1.65 6.7 -1.6 6.4 -1.6 6.1 -1.65 5.9 -1.7 5.85 -1.7 5.6 -1.7 5.35 -1.7 5.2 -1.7 5.15 -1.7 5.0 -1.65 4.8 -1.6 4.7 -1.6 4.65 -1.6 4.55 -1.6 4.4 -1.6" fill="#946d5a" fill-rule="evenodd" stroke="none"/>
  </g>
</svg>
