<?xml version="1.0" encoding="UTF-8" standalone="no"?>
<svg xmlns:xlink="http://www.w3.org/1999/xlink" height="47.55px" width="83.1px" xmlns="http://www.w3.org/2000/svg">
  <g transform="matrix(1.0, 0.0, 0.0, 1.0, 43.2, 23.4)">
    <path d="M39.9 -22.35 L39.55 -21.25 Q18.15 -18.3 3.85 1.05 -11.05 21.1 -21.25 22.4 -31.45 23.65 -35.65 17.5 -39.9 11.35 -41.65 7.5 L-41.65 7.15 -41.4 6.85 -41.0 6.85 -40.75 7.1 Q-39.25 10.45 -35.15 16.4 -31.1 22.35 -21.65 21.15 -12.25 19.9 3.0 -0.05 17.75 -19.5 39.9 -22.35" fill="#ffcc33" fill-rule="evenodd" stroke="none"/>
    <path d="M38.3 -21.85 L38.4 -21.7 38.45 -21.6 38.5 -21.5 38.5 -21.4 38.5 -21.3 38.5 -21.2 38.5 -21.1 38.5 -21.0 38.45 -20.9 38.4 -20.85 38.35 -20.75 38.25 -20.7 38.15 -20.6 38.05 -20.55 37.9 -20.5 37.8 -20.45 37.6 -20.45 36.4 -20.25 35.35 -20.1 35.25 -20.05 35.15 -19.95 35.1 -19.9 34.15 -19.7 33.05 -19.35 33.0 -19.25 32.95 -19.2 32.9 -19.1 32.8 -19.05 32.7 -18.95 32.65 -18.9 31.45 -18.3 Q30.75 -17.95 30.0 -17.85 L29.6 -17.8 29.5 -17.7 29.45 -17.65 29.35 -17.55 29.25 -17.5 29.1 -17.45 29.0 -17.4 28.9 -17.4 28.8 -17.4 28.6 -17.45 28.45 -17.55 28.25 -17.65 28.1 -17.8 28.05 -17.9 28.0 -18.0 28.0 -18.15 27.95 -18.25 28.0 -18.35 28.0 -18.4 28.05 -18.6 28.1 -18.8 28.2 -18.95 28.25 -19.05 28.35 -19.1 28.35 -19.2 28.4 -19.3 28.45 -19.35 28.5 -19.45 28.55 -19.55 28.6 -19.6 28.7 -19.7 28.85 -19.8 29.05 -19.95 29.1 -20.05 29.15 -20.1 29.15 -20.2 29.15 -20.3 29.15 -20.4 29.15 -20.5 29.2 -20.6 29.25 -20.7 29.3 -20.75 29.45 -20.9 29.8 -21.1 30.35 -21.15 Q32.0 -21.75 33.75 -21.85 L36.45 -22.15 36.6 -22.2 37.0 -22.15 37.55 -22.1 37.95 -22.05 38.15 -21.95 38.3 -21.85" fill="#663333" fill-opacity="0.2" fill-rule="evenodd" stroke="none"/>
    <path d="M38.0 -22.1 L38.05 -22.0 38.0 -21.9 37.95 -21.8 37.9 -21.75 37.8 -21.65 37.75 -21.6 37.65 -21.5 37.55 -21.45 37.5 -21.45 37.3 -21.45 37.25 -21.4 37.2 -21.3 37.15 -21.2 37.05 -21.05 37.0 -20.95 34.9 -19.35 Q33.1 -18.4 31.0 -18.45 L30.8 -18.45 29.7 -18.9 29.45 -19.05 29.3 -19.2 29.25 -19.3 29.2 -19.4 29.15 -19.5 29.1 -19.65 29.1 -19.75 29.15 -19.8 29.2 -20.0 29.25 -20.15 29.35 -20.35 30.1 -20.95 31.5 -21.6 32.05 -21.85 34.5 -22.45 36.5 -22.7 36.65 -22.7 36.7 -22.65 36.95 -22.65 37.3 -22.65 37.45 -22.6 37.7 -22.55 37.85 -22.45 37.95 -22.3 38.0 -22.2 38.0 -22.1" fill="#663333" fill-opacity="0.2" fill-rule="evenodd" stroke="none"/>
    <path d="M17.9 -13.65 L18.55 -14.05 20.5 -15.2 21.1 -15.55 21.15 -15.6 21.15 -15.7 21.1 -15.85 21.15 -15.9 21.15 -16.0 21.2 -16.1 21.25 -16.15 21.35 -16.25 21.45 -16.3 21.55 -16.35 21.65 -16.35 21.85 -16.35 21.95 -16.4 22.0 -16.4 22.15 -16.4 22.35 -16.4 22.5 -16.45 22.65 -16.5 22.85 -16.55 23.25 -16.85 24.0 -17.25 24.35 -17.45 24.5 -17.45 25.0 -17.7 25.8 -18.05 25.95 -18.1 26.05 -18.15 26.3 -18.3 26.6 -18.5 26.85 -18.5 28.1 -18.9 29.3 -19.2 29.5 -19.2 29.65 -19.2 29.8 -19.15 29.8 -19.2 30.0 -19.05 30.05 -18.95 30.05 -18.85 30.05 -18.75 30.05 -18.65 30.0 -18.55 30.0 -18.45 29.95 -18.4 29.85 -18.3 29.8 -18.25 29.55 -18.1 29.45 -18.05 28.45 -17.6 27.5 -17.2 27.2 -17.1 27.15 -17.0 27.05 -16.95 27.05 -16.85 27.0 -16.75 26.95 -16.65 Q25.45 -15.65 23.6 -15.2 21.4 -14.7 19.5 -13.45 L17.15 -11.6 17.0 -11.55 16.75 -11.55 16.65 -11.45 16.55 -11.4 16.45 -11.35 16.3 -11.3 16.15 -11.25 15.95 -11.35 15.85 -11.3 15.7 -11.25 15.65 -11.25 15.7 -11.35 15.8 -11.4 15.85 -11.5 15.85 -11.6 15.85 -11.7 15.9 -11.75 15.9 -11.85 16.0 -11.95 16.1 -12.0 16.3 -12.15 16.4 -12.2 16.4 -12.3 16.45 -12.4 17.9 -13.65" fill="#663333" fill-opacity="0.2" fill-rule="evenodd" stroke="none"/>
    <path d="M-40.35 7.1 L-40.25 7.2 -40.25 7.3 -40.2 7.4 -40.0 7.45 -39.65 7.55 -39.45 7.7 -39.3 7.85 -39.25 7.95 -39.2 8.05 -39.2 8.15 -39.2 8.25 -39.2 8.35 -39.25 8.55 -39.3 8.65 -39.35 8.7 -39.35 8.8 -39.4 8.9 -39.4 9.0 -39.45 9.05 -39.5 9.15 -39.55 9.25 -39.6 9.4 -39.65 9.5 -39.7 9.6 -39.75 9.65 -39.75 9.75 -39.8 9.85 -39.85 9.95 -39.95 10.0 -40.0 10.1 -40.1 10.15 -40.25 10.2 -40.35 10.25 -40.45 10.2 -40.65 10.2 -41.55 9.8 -41.7 9.65 -41.75 9.5 Q-42.2 9.4 -42.55 9.1 L-42.7 8.95 -42.8 8.7 -42.85 8.6 -42.9 8.45 -42.95 8.35 -42.9 8.2 -42.85 8.1 -42.85 8.0 -42.8 7.9 -42.8 7.8 -42.75 7.75 -42.75 7.65 -42.65 7.55 -42.6 7.5 -42.55 7.4 -42.45 7.35 -42.45 7.25 -42.45 7.15 -42.4 7.05 -42.4 6.95 -42.35 6.9 -42.3 6.8 -42.1 6.65 -42.0 6.6 -41.9 6.55 -41.75 6.45 -41.65 6.45 -41.6 6.45 -41.45 6.45 -41.3 6.5 -41.25 6.55 -41.1 6.55 -40.65 6.8 -40.45 6.95 -40.35 7.1" fill="#663333" fill-opacity="0.2" fill-rule="evenodd" stroke="none"/>
    <path d="M-40.4 5.35 L-40.35 5.5 -40.35 5.6 -40.35 5.7 -40.35 5.75 -40.35 5.85 -40.35 5.95 -40.35 6.05 -40.35 6.15 -40.35 6.25 -40.35 6.35 -40.3 6.55 -40.2 6.8 -40.0 7.15 -39.95 7.25 -39.85 7.3 -39.65 7.45 -39.55 7.55 -39.45 7.7 -39.35 7.85 -39.3 7.95 -39.1 8.2 -38.95 8.45 -38.85 8.85 -38.85 8.95 -38.9 9.05 -38.9 9.15 -38.95 9.25 -39.0 9.3 -39.05 9.4 -39.0 9.45 -38.85 9.5 -38.65 9.65 -38.45 9.8 -38.35 9.95 -38.3 10.05 -38.25 10.2 -38.25 10.25 -38.2 10.4 -38.2 10.5 -38.15 10.6 -38.15 10.9 -38.15 11.5 -38.3 12.05 -38.4 12.3 -38.45 12.35 -38.5 12.45 -38.55 12.55 -38.65 12.6 -38.75 12.65 -38.9 12.7 -39.1 12.75 -39.2 12.85 -39.3 12.9 -39.35 12.95 -39.5 13.05 -39.65 13.05 -39.85 13.1 -40.0 13.05 -40.2 12.95 -40.35 12.85 -40.45 12.75 -40.5 12.6 -40.55 12.5 -40.55 12.4 -40.55 12.3 -40.55 12.2 -40.55 12.1 -40.5 12.0 -40.5 11.9 -40.55 11.8 -40.55 11.7 -40.55 11.6 -40.6 11.5 -40.65 11.3 -41.0 10.8 -41.35 10.35 -41.5 10.15 -41.6 9.9 -41.75 9.55 -41.8 9.45 -41.95 9.2 -42.1 8.85 -42.3 8.3 -42.35 8.2 -42.35 8.1 -42.4 8.0 -42.4 7.85 -42.45 7.65 -42.5 7.45 -42.35 6.9 -42.1 6.1 -41.85 5.5 -41.75 5.25 -41.7 5.15 -41.6 5.1 -41.5 5.0 -41.4 4.95 -41.2 4.9 -40.95 4.95 -40.9 4.95 -40.8 4.95 -40.6 5.1 -40.45 5.25 -40.4 5.35" fill="#663333" fill-opacity="0.2" fill-rule="evenodd" stroke="none"/>
    <path d="M-40.2 12.3 L-40.1 12.25 -40.0 12.25 -39.95 12.25 -39.85 12.4 -39.7 12.75 -39.55 12.95 -39.4 13.25 -39.35 13.35 -39.3 13.45 -39.25 13.55 -39.1 13.7 -39.05 13.8 -38.9 13.9 -38.8 14.05 -38.8 14.15 -38.75 14.25 -38.7 14.35 -38.3 14.75 -37.9 15.15 -37.5 15.65 -36.95 16.25 -36.85 16.35 -36.5 16.6 -35.95 16.95 -35.5 17.1 -35.3 17.25 -35.05 17.5 -34.95 17.55 -34.85 17.6 -34.55 17.8 -34.25 17.95 -34.15 18.1 -34.05 18.25 -34.0 18.35 -33.95 18.45 -33.9 18.6 -33.8 18.7 -33.75 18.8 -33.55 18.9 -33.3 19.0 Q-33.15 19.05 -33.05 19.15 L-32.95 19.25 -32.85 19.35 -32.6 19.5 -32.55 19.55 -32.35 19.6 -32.15 19.75 -32.05 19.85 -31.9 20.0 -31.8 20.05 -31.7 20.1 -31.3 20.3 -31.25 20.35 Q-30.6 20.6 -30.0 21.05 L-29.3 21.55 -29.25 21.65 -29.2 21.75 -29.0 21.95 -28.95 22.05 -28.95 22.15 -28.95 22.25 -29.0 22.3 -29.1 22.4 -29.25 22.4 -29.45 22.3 -29.8 22.25 -30.05 22.2 -30.3 22.2 -30.65 22.0 -30.95 21.8 -31.1 21.7 -31.2 21.65 -31.9 21.2 -32.45 20.9 -32.6 20.8 -32.85 20.65 -33.25 20.4 -33.4 20.3 -33.65 20.0 -34.1 19.8 -34.4 19.6 -34.7 19.25 -34.85 18.9 -34.9 18.7 -35.05 18.65 -35.25 18.55 -35.35 18.45 -35.55 18.3 -35.7 18.15 -35.75 18.1 -36.35 17.75 -36.8 17.45 -36.9 17.35 -37.7 16.75 -38.45 15.9 -38.6 15.75 -38.65 15.65 -38.75 15.5 -38.8 15.4 -39.0 15.1 -39.2 14.85 -39.25 14.75 -39.3 14.65 -39.35 14.4 -39.4 14.3 -39.45 14.2 -39.6 14.05 -39.65 13.95 -39.9 13.4 -40.15 12.8 -40.2 12.35 -40.2 12.3" fill="#663333" fill-opacity="0.2" fill-rule="evenodd" stroke="none"/>
    <path d="M-13.75 18.4 L-13.7 18.3 -13.65 18.25 -13.55 18.15 -13.45 18.1 -13.3 18.05 -13.2 18.05 -13.0 18.0 -12.9 17.95 -12.85 17.85 -12.8 17.8 -12.45 17.5 -11.95 17.25 -11.8 17.2 -11.5 17.1 -11.3 17.0 -11.15 16.85 -11.0 16.8 -10.85 16.75 -10.7 16.65 -10.55 16.65 -10.35 16.5 -10.2 16.35 -10.05 16.2 -10.0 16.1 -9.9 16.05 -9.75 15.9 -9.55 15.75 -9.45 15.7 -9.45 15.6 -9.4 15.5 -9.35 15.4 -9.3 15.35 -9.2 15.25 -9.2 15.2 -9.15 15.1 -9.15 15.0 -9.1 14.9 -9.0 14.85 -8.95 14.75 -8.9 14.7 -8.85 14.6 -8.8 14.5 -8.75 14.45 -8.75 14.35 -8.25 13.95 -7.6 13.7 -7.5 13.7 -7.45 13.7 -7.2 13.65 -7.05 13.65 -6.95 13.65 -6.9 13.7 -6.8 13.8 -6.85 13.9 -6.9 13.95 -7.0 14.05 -7.0 14.15 -7.05 14.25 -7.1 14.3 -7.3 14.55 -7.6 14.75 -7.8 14.85 -7.85 14.95 -7.9 15.05 -7.95 15.15 -7.95 15.2 -8.05 15.3 -8.1 15.35 -8.25 15.7 -8.45 16.05 -8.7 16.35 -8.75 16.45 -8.85 16.5 -8.95 16.55 -9.0 16.65 -9.05 16.75 -9.1 16.8 -9.2 16.9 -9.3 16.95 -9.35 17.05 -9.4 17.1 -9.5 17.2 -9.65 17.25 -9.7 17.3 -10.35 17.75 -11.1 18.1 -11.3 18.2 -11.45 18.25 -11.85 18.3 -11.9 18.4 -12.0 18.45 -12.05 18.55 -12.05 18.65 -12.15 18.7 -12.2 18.8 -12.3 18.85 -12.45 18.9 -12.6 18.95 -12.7 19.05 -12.85 19.1 -13.0 19.15 -13.1 19.2 -13.2 19.25 -13.25 19.35 -13.25 19.45 -13.35 19.5 -13.4 19.6 -13.45 19.7 -13.9 20.0 -14.5 20.35 -14.7 20.45 -14.9 20.5 -15.05 20.55 -15.4 20.7 -15.75 20.9 -15.9 21.05 -16.05 21.1 -16.2 21.15 -16.3 21.25 -16.35 21.3 -16.4 21.4 -16.7 21.5 -17.05 21.6 -17.2 21.65 -17.6 21.7 -17.9 21.8 -18.1 21.95 -18.35 22.05 -18.5 22.1 -18.5 22.2 -18.5 22.3 -18.5 22.4 -18.5 22.5 -18.55 22.6 -18.6 22.65 -18.7 22.75 -18.8 22.8 -18.85 22.85 -19.35 22.85 -19.85 22.75 -20.2 22.85 -20.55 22.95 -21.85 23.1 -22.3 23.15 -22.4 23.25 -22.4 23.35 -22.45 23.4 -22.5 23.5 -22.55 23.6 -22.65 23.65 -22.8 23.7 -23.95 23.6 -24.2 23.6 -24.3 23.6 -24.35 23.6 -24.55 23.6 -24.9 23.45 -25.1 23.35 -25.4 23.35 -25.55 23.35 -25.7 23.35 -25.85 23.3 -27.75 22.95 -28.55 22.9 -29.65 22.6 -29.85 22.6 -30.85 22.2 -31.55 22.1 -31.6 22.05 -31.6 21.95 -31.55 21.9 -31.4 21.8 -31.35 21.85 -31.1 21.9 Q-31.1 21.8 -31.7 21.65 L-31.95 21.6 -32.05 21.65 -32.2 21.6 -32.4 21.5 -32.45 21.35 -32.5 21.25 -32.45 21.15 -32.45 21.05 -32.4 21.0 -32.4 20.9 -32.35 20.8 -32.2 20.75 -32.15 20.7 -27.6 21.85 -27.45 21.85 -27.4 21.8 -25.0 22.2 -23.55 22.25 -23.45 22.2 -23.35 22.1 -23.3 22.05 -22.85 21.95 -22.55 21.9 -22.5 21.9 -22.35 21.9 -22.2 21.9 -21.95 21.8 -21.75 21.75 -21.65 21.7 -21.5 21.65 -21.4 21.6 -21.35 21.6 -21.1 21.6 -20.95 21.6 -20.8 21.55 -20.65 21.55 -20.55 21.55 -20.35 21.5 -20.2 21.45 -20.1 21.4 -19.1 21.25 -18.65 21.1 -18.45 20.95 -18.2 20.8 -18.1 20.75 -17.7 20.7 -17.4 20.6 -17.25 20.55 -17.05 20.5 -17.0 20.4 -16.85 20.3 -16.6 20.15 -16.45 20.1 -16.35 20.05 -16.3 19.95 -16.15 19.9 -15.95 19.85 -15.8 19.8 -15.65 19.7 -15.4 19.55 -15.1 19.45 -15.0 19.4 -14.95 19.3 -14.8 19.25 -14.65 19.2 -14.55 19.15 -14.45 19.05 -14.4 19.0 -14.35 18.9 -14.25 18.85 -14.15 18.75 -14.1 18.7 -14.0 18.6 -13.95 18.55 -13.8 18.5 -13.75 18.4" fill="#663333" fill-opacity="0.2" fill-rule="evenodd" stroke="none"/>
    <path d="M0.85 5.5 L1.4 4.95 1.75 4.65 1.9 4.7 1.9 4.65 2.0 4.8 2.05 4.85 1.95 5.05 1.75 5.25 1.6 5.5 1.45 5.75 1.25 6.0 1.0 6.2 0.9 6.35 0.75 6.6 0.55 6.85 0.5 6.95 0.4 7.0 0.35 7.1 0.3 7.15 0.25 7.25 -0.05 7.55 -0.4 7.85 -0.65 8.05 -0.7 8.15 -0.75 8.2 -0.8 8.3 -0.85 8.35 -0.95 8.45 -1.0 8.5 -1.1 8.6 -1.15 8.65 -1.2 8.75 -1.3 8.8 -1.4 8.9 -1.55 8.95 -1.65 9.0 -1.8 9.15 -1.95 9.3 -2.05 9.4 -2.2 9.45 -2.3 9.5 -2.4 9.55 -2.55 9.6 -2.6 9.7 -2.7 9.75 -2.85 9.8 -2.95 9.9 -3.05 9.95 -3.1 10.05 -3.15 10.1 -3.15 10.2 -3.2 10.3 -3.25 10.4 -3.3 10.45 -3.4 10.5 -3.5 10.6 -3.55 10.65 -3.6 10.75 -3.65 10.85 -3.7 10.95 -3.7 11.0 -3.75 11.1 -3.8 11.2 -3.85 11.25 -3.9 11.35 -4.0 11.4 -4.05 11.5 -4.15 11.55 -4.2 11.65 -4.25 11.8 -4.35 12.0 -4.4 12.1 -4.5 12.15 -4.55 12.25 -4.6 12.3 -4.65 12.4 -4.7 12.45 -4.8 12.55 -4.85 12.6 -4.95 12.7 -5.0 12.8 -5.0 12.85 -5.1 12.95 -5.15 13.0 -5.6 13.2 -5.95 13.35 -6.1 13.4 -6.15 13.5 -6.25 13.55 -6.35 13.65 -6.5 13.7 -6.7 13.8 -6.8 13.9 -7.05 14.2 -7.55 14.5 -7.85 14.85 -7.95 14.9 -8.05 14.95 -8.15 15.0 -8.2 15.1 -8.25 15.2 -8.25 15.3 -8.3 15.35 -8.35 15.45 -8.35 15.55 -8.45 15.6 -8.55 15.7 -8.7 15.75 -8.75 15.8 -8.8 15.9 -8.85 16.0 -8.9 16.05 -8.95 16.15 -9.05 16.2 -9.25 16.35 -9.4 16.5 -10.25 16.8 -11.0 17.25 -11.05 17.35 -11.15 17.35 -11.2 17.3 -11.2 17.2 -11.25 17.1 -11.3 17.0 -11.25 16.9 -11.2 16.8 -11.15 16.75 -11.15 16.65 -11.05 16.55 -11.0 16.5 -10.9 16.4 -10.8 16.35 -10.7 16.3 -10.05 15.8 -9.15 15.3 -8.95 15.15 -8.8 15.2 -8.7 15.25 -8.7 15.15 -8.7 15.05 -8.65 14.95 -8.65 14.85 -8.4 14.65 -8.0 14.35 -7.8 14.15 -7.75 14.05 -7.65 14.0 -7.6 13.9 -7.5 13.85 -7.45 13.75 -7.4 13.7 -7.4 13.6 -7.35 13.5 -7.3 13.4 -7.15 13.25 -6.9 13.05 -6.7 12.95 -6.6 12.85 -6.55 12.8 -6.45 12.7 -6.4 12.6 -6.35 12.55 -6.3 12.45 -6.25 12.35 -6.25 12.3 -6.2 12.2 -5.65 11.65 -5.05 11.05 -4.65 10.7 -4.55 10.65 -4.5 10.55 -4.45 10.5 -4.35 10.4 -4.3 10.35 -4.2 10.25 -4.15 10.2 -4.0 10.15 -3.9 10.05 -3.8 10.0 -3.75 9.9 -3.75 9.85 -3.7 9.75 -3.65 9.65 -3.35 9.4 -2.85 9.05 -2.55 8.8 -2.4 8.75 -2.25 8.7 -2.2 8.65 -2.15 8.55 -2.15 8.45 -2.1 8.4 -2.05 8.3 -1.9 8.25 -1.7 8.2 -1.6 8.15 -1.55 8.05 -1.45 8.0 -1.4 7.9 -1.35 7.85 -1.3 7.75 -1.25 7.65 -0.9 7.35 -0.6 7.1 -0.35 6.85 -0.3 6.8 -0.25 6.7 -0.2 6.6 -0.1 6.55 -0.05 6.45 0.1 6.3 0.2 6.15 0.3 6.0 0.35 5.9 0.85 5.5 M-9.4 15.9 L-9.5 15.9 -9.6 15.95 -9.75 16.0 -9.85 16.1 -9.9 16.15 -9.8 16.15 -9.65 16.1 -9.55 16.0 -9.45 15.95 -9.4 15.9" fill="#663333" fill-opacity="0.2" fill-rule="evenodd" stroke="none"/>
    <path d="M18.5 -12.5 L18.7 -12.65 18.9 -12.75 19.0 -12.8 19.1 -12.8 19.2 -12.7 19.25 -12.6 19.1 -12.35 18.75 -12.15 18.55 -12.05 18.5 -11.95 18.5 -11.85 18.4 -11.8 18.35 -11.7 17.4 -11.25 16.6 -10.65 16.15 -10.35 16.1 -10.25 16.0 -10.15 15.95 -10.1 15.85 -10.05 15.7 -10.0 15.5 -9.95 15.35 -9.8 15.15 -9.7 14.9 -9.55 14.8 -9.5 14.7 -9.4 14.65 -9.35 14.6 -9.25 14.5 -9.15 14.45 -9.1 14.35 -9.05 14.3 -8.95 14.2 -8.8 14.1 -8.65 14.0 -8.55 13.95 -8.5 13.75 -8.35 13.6 -8.2 13.2 -8.05 12.95 -7.8 12.65 -7.6 12.6 -7.5 12.55 -7.45 12.5 -7.35 12.45 -7.25 12.4 -7.2 12.3 -7.15 12.1 -7.1 11.9 -7.05 11.75 -6.9 11.6 -6.75 11.4 -6.65 11.3 -6.55 11.25 -6.45 11.15 -6.4 11.1 -6.3 11.05 -6.25 11.0 -6.15 10.95 -6.1 10.9 -6.0 10.8 -5.95 10.7 -5.85 10.55 -5.8 10.45 -5.75 10.35 -5.6 10.25 -5.4 10.15 -5.25 10.1 -5.15 10.05 -5.1 9.8 -4.95 9.7 -4.9 9.6 -4.85 9.55 -4.75 9.5 -4.65 9.45 -4.6 9.4 -4.5 9.4 -4.4 9.35 -4.3 9.35 -4.2 9.3 -4.15 9.2 -4.05 9.15 -4.0 8.9 -3.85 8.65 -3.75 8.6 -3.65 8.5 -3.6 8.45 -3.5 8.4 -3.45 8.3 -3.4 8.2 -3.3 8.15 -3.2 8.1 -3.15 7.95 -3.0 7.8 -2.85 7.7 -2.75 7.4 -2.65 7.15 -2.55 7.1 -2.5 6.95 -2.2 6.9 -1.95 6.8 -1.7 6.75 -1.6 6.6 -1.45 6.4 -1.3 6.25 -1.2 6.1 -1.1 6.1 -1.0 6.05 -0.95 6.05 -0.85 5.95 -0.75 5.9 -0.7 5.8 -0.6 5.6 -0.6 5.55 -0.5 5.5 -0.45 5.4 -0.35 5.35 -0.25 5.3 -0.2 5.2 -0.1 5.1 -0.05 5.05 0.0 5.0 0.1 4.9 0.2 4.7 0.3 4.45 0.5 4.25 0.65 4.2 0.75 4.15 0.85 4.15 0.9 4.1 1.0 4.05 1.1 4.0 1.15 3.85 1.3 3.75 1.4 3.65 1.45 3.65 1.55 3.65 1.65 3.5 1.9 3.35 2.15 3.2 2.4 3.05 2.65 3.0 2.7 2.9 2.8 2.8 2.85 2.8 2.95 2.75 3.05 2.65 3.1 2.6 3.2 2.55 3.25 2.45 3.35 2.35 3.4 2.25 3.5 2.2 3.55 2.15 3.65 2.1 3.7 2.05 3.8 1.95 3.85 1.9 3.95 1.85 4.05 1.75 4.1 1.7 4.2 1.65 4.25 1.6 4.35 1.6 4.45 1.55 4.55 1.55 4.65 1.5 4.7 1.5 4.8 1.5 4.9 1.45 5.0 1.35 5.05 1.3 5.15 1.25 5.25 1.2 5.3 1.15 5.4 1.1 5.45 1.0 5.55 0.95 5.6 0.9 5.7 0.7 5.95 0.45 6.15 0.2 6.35 0.1 6.6 0.0 6.9 -0.05 7.15 -0.15 7.45 -0.25 7.5 -0.3 7.6 -0.4 7.6 -0.6 7.65 -0.65 7.7 -0.8 7.85 -0.9 7.95 -0.95 8.0 -1.0 8.1 -1.0 8.2 -1.05 8.25 -1.1 8.35 -1.15 8.45 -1.2 8.5 -1.3 8.6 -1.35 8.65 -1.5 8.7 -1.7 8.7 -2.05 8.65 -2.25 8.8 -2.45 8.95 -2.6 9.1 -2.7 9.15 -2.75 9.25 -2.8 9.3 -2.9 9.4 -3.0 9.45 -3.05 9.55 -3.2 9.7 -3.35 9.85 -3.45 9.9 -3.5 10.0 -3.55 10.15 -3.6 10.35 -3.65 10.4 -3.75 10.5 -3.8 10.55 -3.95 10.65 -4.15 10.65 -4.35 10.5 -4.45 10.35 -4.45 10.25 -4.5 10.15 -4.45 10.0 -4.35 9.7 -4.3 9.55 -4.2 9.35 -4.15 9.3 -4.05 9.2 -4.0 9.15 -3.95 9.05 -3.9 9.0 -3.85 8.9 -3.75 8.8 -3.65 8.75 -3.55 8.7 -3.45 8.65 -3.35 8.55 -3.3 8.5 -3.25 8.4 -3.2 8.3 -3.15 8.25 -3.1 8.15 -2.95 8.0 -2.8 7.85 -2.6 7.7 -2.5 7.65 -2.45 7.55 -2.4 7.5 -2.3 7.4 -2.25 7.35 -2.15 7.25 -2.1 7.2 -2.05 7.1 -1.95 7.0 -1.9 6.95 -1.85 6.85 -1.8 6.8 -1.7 6.7 -1.6 6.65 -1.5 6.6 -1.4 6.4 -1.25 6.25 -1.15 6.1 -1.1 6.0 -1.0 5.95 -0.95 5.9 -0.85 5.8 -0.75 5.75 -0.65 5.55 -0.55 5.4 -0.45 5.25 -0.4 5.15 -0.35 5.05 -0.3 4.9 -0.3 4.8 -0.25 4.7 -0.25 4.6 -0.2 4.55 -0.1 4.45 0.0 4.4 0.25 4.25 0.45 4.15 0.6 4.0 0.65 3.9 0.7 3.85 0.75 3.75 0.85 3.7 1.05 3.55 1.1 3.45 1.2 3.4 1.25 3.3 1.3 3.25 1.4 3.15 1.4 3.1 1.45 3.0 1.55 2.9 1.6 2.85 1.65 2.75 1.75 2.7 1.85 2.6 1.9 2.55 1.95 2.45 2.0 2.4 2.05 2.3 2.1 2.2 2.2 2.15 2.3 2.05 2.35 2.0 2.4 1.9 2.45 1.85 2.5 1.75 2.5 1.65 2.7 1.4 2.8 1.15 2.9 0.9 3.0 0.7 3.05 0.65 3.15 0.55 3.2 0.5 3.25 0.4 3.3 0.35 3.35 0.25 3.35 0.15 3.4 0.05 3.45 0.0 3.65 -0.15 3.85 -0.3 3.9 -0.35 4.1 -0.5 4.25 -0.55 4.35 -0.6 4.5 -0.8 4.55 -0.85 4.65 -0.9 4.7 -1.0 4.75 -1.1 4.8 -1.15 4.9 -1.25 4.95 -1.3 5.0 -1.4 5.1 -1.45 5.2 -1.55 5.25 -1.6 5.3 -1.7 5.5 -1.85 5.7 -1.95 5.85 -2.1 5.95 -2.2 6.0 -2.35 6.1 -2.55 6.15 -2.7 6.2 -2.9 6.25 -2.95 6.3 -3.05 6.35 -3.15 6.4 -3.2 6.7 -3.45 7.1 -3.6 7.25 -3.65 7.3 -3.7 7.4 -3.8 7.45 -3.9 7.5 -3.95 7.55 -4.05 7.65 -4.1 7.75 -4.15 7.85 -4.25 7.85 -4.35 7.9 -4.4 8.0 -4.5 8.2 -4.6 8.5 -4.75 8.55 -4.8 8.55 -4.9 8.6 -5.0 8.6 -5.05 8.7 -5.15 8.75 -5.25 8.75 -5.3 8.8 -5.4 9.0 -5.55 9.15 -5.7 9.35 -5.85 9.4 -5.9 9.45 -6.0 9.55 -6.05 9.6 -6.15 9.6 -6.25 9.65 -6.3 9.75 -6.4 9.8 -6.5 9.85 -6.55 10.1 -6.65 10.25 -6.75 10.3 -6.8 10.3 -6.9 10.35 -7.0 10.45 -7.05 10.55 -7.1 10.85 -7.4 11.2 -7.7 11.65 -7.95 11.7 -8.05 11.8 -8.1 11.85 -8.15 12.0 -8.25 12.05 -8.3 12.2 -8.45 12.3 -8.55 12.35 -8.6 12.5 -8.7 12.55 -8.75 12.65 -8.8 12.7 -8.9 12.8 -8.95 12.95 -9.0 13.1 -9.05 13.2 -9.15 13.3 -9.2 13.35 -9.3 13.4 -9.35 13.5 -9.45 13.5 -9.55 13.55 -9.6 13.65 -9.7 13.7 -9.75 13.75 -9.85 13.85 -9.9 13.9 -10.0 14.0 -10.05 14.05 -10.15 14.1 -10.2 14.2 -10.3 14.45 -10.4 14.8 -10.6 14.95 -10.75 15.05 -10.8 15.2 -10.85 15.35 -10.9 16.25 -11.55 16.85 -11.9 18.05 -12.4 18.1 -12.4 18.3 -12.4 18.5 -12.5" fill="#663333" fill-opacity="0.2" fill-rule="evenodd" stroke="none"/>
    <path d="M2.35 -1.05 Q17.35 -21.0 39.9 -23.4 L39.9 -22.35 Q17.75 -19.5 3.0 -0.05 -12.25 19.9 -21.65 21.15 -31.1 22.35 -35.15 16.4 -39.25 10.45 -40.75 7.1 L-41.0 6.85 -41.4 6.85 -41.65 7.15 -41.65 7.5 Q-39.9 11.35 -35.65 17.5 -31.45 23.65 -21.25 22.4 -11.05 21.1 3.85 1.05 18.15 -18.3 39.55 -21.25 L39.05 -19.65 Q18.65 -16.5 3.85 3.15 -10.95 22.8 -22.8 23.95 -32.1 25.4 -38.95 15.5 -41.1 12.4 -43.0 8.15 -43.35 7.35 -43.05 6.6 -42.85 6.0 -42.35 5.7 L-39.15 5.7 Q-38.2 9.1 -37.0 11.1 -31.25 20.8 -23.35 19.95 -12.65 18.85 2.35 -1.05" fill="#333333" fill-rule="evenodd" stroke="none"/>
  </g>
</svg>
