<?xml version="1.0" encoding="UTF-8" standalone="no"?>
<svg xmlns:xlink="http://www.w3.org/1999/xlink" height="11.05px" width="18.45px" xmlns="http://www.w3.org/2000/svg">
  <g transform="matrix(1.0, 0.0, 0.0, 1.0, 9.25, 5.55)">
    <path d="M6.7 -4.6 L6.95 -4.55 7.1 -4.45 7.2 -4.35 7.3 -4.25 7.7 -4.2 7.95 -4.15 8.1 -4.05 8.2 -3.95 8.25 -3.85 8.3 -3.75 8.3 -3.7 8.35 -3.6 8.35 -3.5 8.35 -3.3 8.35 -3.2 8.35 -2.85 8.35 -2.55 8.35 -1.7 8.35 -1.25 8.3 -1.15 8.3 -1.05 8.25 -0.95 8.25 -0.85 8.25 -0.7 8.25 -0.6 8.25 -0.2 8.25 0.0 8.25 0.55 8.25 0.9 8.3 1.0 8.3 1.1 8.35 1.2 8.35 1.3 8.35 1.4 8.35 1.5 8.4 1.55 8.4 1.65 8.45 1.75 8.5 1.85 8.5 1.95 8.5 2.05 8.5 2.15 8.5 2.25 8.5 2.4 8.5 2.5 8.5 2.6 8.5 2.7 8.5 2.8 8.45 2.9 8.4 3.0 8.35 3.05 8.3 3.15 8.15 3.25 8.05 3.3 6.4 3.45 3.15 3.3 2.65 3.2 1.45 3.15 1.15 3.1 1.0 3.0 0.9 2.9 -2.1 2.9 -2.2 3.0 -2.35 3.1 -2.45 3.15 -2.65 3.2 -3.2 3.25 -3.35 3.3 -6.65 3.35 -6.95 3.3 -7.1 3.2 -7.2 3.15 -7.3 3.1 -7.6 3.05 -7.75 2.95 -7.85 2.85 -7.9 2.75 -7.95 2.65 -8.0 2.6 -8.1 2.5 -8.3 2.4 -8.35 2.3 -8.45 2.2 -8.5 2.1 -8.55 2.0 -8.6 1.9 -8.6 1.8 -8.6 1.75 -8.6 1.65 -8.55 1.55 -8.5 1.45 -8.45 1.35 -8.35 1.25 -8.2 1.15 -7.9 1.05 -7.9 0.8 -7.9 0.3 -7.9 -0.8 -7.9 -2.6 -7.9 -3.45 -7.85 -3.5 -7.8 -3.6 -7.8 -3.7 -7.8 -3.8 -7.8 -3.9 -7.8 -4.0 -7.8 -4.1 -7.75 -4.2 -7.7 -4.25 -7.65 -4.35 -7.6 -4.45 -7.55 -4.5 -7.45 -4.55 -7.3 -4.6 -7.1 -4.5 -7.05 -4.4 -6.95 -4.35 -6.9 -4.25 -6.8 -4.3 -6.7 -4.4 -6.55 -4.5 -6.3 -4.55 4.35 -4.75 5.35 -4.75 5.6 -4.7 5.75 -4.65 6.7 -4.6" fill="#b0cedc" fill-rule="evenodd" stroke="none"/>
    <path d="M4.3 -4.7 L4.4 -4.8 4.45 -4.85 4.55 -4.9 4.95 -4.9 5.35 -4.95 6.3 -4.8 6.85 -4.65 7.05 -4.65 7.15 -4.75 7.25 -4.85 7.3 -4.9 7.4 -4.95 7.6 -4.95 7.6 -5.0 7.85 -4.9 8.0 -4.85 8.1 -4.75 8.15 -4.65 8.2 -4.55 8.2 -4.45 8.25 -4.35 8.3 -4.25 8.3 -4.15 8.3 -4.1 8.3 -4.0 8.35 -3.9 8.4 -3.8 8.45 -2.6 8.45 -1.0 8.4 0.25 8.35 0.35 8.3 0.4 8.25 0.5 8.15 0.6 8.1 1.1 8.1 1.85 8.1 2.6 8.1 2.65 8.05 2.75 8.05 2.85 8.0 2.95 7.95 3.05 7.85 3.15 7.7 3.25 7.45 3.3 7.15 3.25 7.0 3.15 6.9 3.05 6.9 3.0 6.85 2.95 6.65 2.9 6.5 2.8 6.4 2.7 6.35 2.6 6.2 2.5 6.15 2.4 6.1 2.35 6.05 2.25 6.0 0.85 5.95 -0.1 5.95 -1.9 5.95 -2.25 5.95 -2.35 5.9 -2.45 5.85 -2.55 5.7 -2.75 5.6 -2.85 5.5 -2.9 5.4 -3.0 5.35 -3.1 5.3 -3.2 5.3 -3.3 5.3 -3.5 5.3 -3.65 5.3 -3.75 5.2 -3.75 4.95 -3.8 4.7 -3.85 4.55 -3.95 4.45 -4.05 4.25 -4.25 4.2 -4.35 4.2 -4.4 4.25 -4.5 4.25 -4.6 4.3 -4.7" fill="#ffffff" fill-opacity="0.16078432" fill-rule="evenodd" stroke="none"/>
    <path d="M7.45 -4.75 L7.85 -4.7 7.95 -4.6 8.05 -4.5 8.1 -4.4 8.15 -4.35 8.15 -4.25 8.15 -4.15 8.15 -4.05 8.1 -3.95 8.05 -3.85 7.95 -3.75 7.85 -3.7 -6.35 -4.1 -6.45 -4.2 -6.35 -4.3 6.7 -4.8 7.45 -4.75" fill="#ffffff" fill-opacity="0.16078432" fill-rule="evenodd" stroke="none"/>
    <path d="M7.8 -1.5 L7.8 -1.4 7.75 -1.35 7.7 -1.25 7.65 -1.15 7.6 -1.05 7.55 -0.95 7.45 -0.75 7.35 -0.6 7.25 -0.5 7.1 -0.4 6.95 -0.3 6.8 -0.2 6.7 -0.15 6.65 -0.1 6.1 -0.1 5.1 -0.15 4.9 -0.25 4.75 -0.35 4.6 -0.45 4.5 -0.55 4.4 -0.65 4.3 -0.75 4.1 -1.0 4.0 -1.2 3.95 -1.3 3.95 -1.4 3.95 -1.5 3.95 -1.6 3.95 -1.85 3.95 -2.05 3.95 -2.35 4.0 -2.4 4.05 -2.5 4.05 -2.6 4.1 -2.7 4.15 -2.8 4.15 -2.9 4.2 -3.0 4.3 -3.1 4.4 -3.25 4.6 -3.55 4.8 -3.85 4.95 -3.9 5.1 -4.0 5.3 -4.1 5.4 -4.15 5.55 -4.2 5.65 -4.25 5.75 -4.25 5.95 -4.3 6.45 -4.3 6.7 -4.2 6.95 -4.15 7.1 -4.05 7.15 -3.95 7.2 -3.85 7.35 -3.75 7.5 -3.65 7.6 -3.6 7.7 -3.5 7.75 -3.4 7.8 -3.3 7.8 -3.2 7.85 -2.9 7.85 -2.45 7.85 -1.9 7.8 -1.5" fill="#ffffff" fill-opacity="0.16078432" fill-rule="evenodd" stroke="none"/>
    <path d="M-1.2 -1.55 L-1.2 -1.35 -1.2 -1.1 -1.2 -0.8 -1.25 -0.7 -1.3 -0.6 -1.4 -0.5 -1.5 -0.45 -1.65 -0.45 -1.75 -0.4 -1.9 -0.4 -2.4 -0.45 -2.9 -0.5 -3.1 -0.55 -3.2 -0.65 -3.35 -0.75 -3.45 -0.85 -3.5 -0.9 -3.5 -1.0 -3.55 -1.1 -3.55 -1.2 -3.55 -1.3 -3.5 -1.4 -3.35 -1.55 -3.05 -1.85 -2.8 -2.1 -2.7 -2.15 -2.55 -2.15 -1.8 -2.15 -1.6 -2.1 -1.45 -2.0 -1.3 -1.9 -1.25 -1.8 -1.2 -1.75 -1.2 -1.65 -1.2 -1.55" fill="#ffffff" fill-opacity="0.16078432" fill-rule="evenodd" stroke="none"/>
    <path d="M-1.8 -1.85 L-1.7 -1.9 -1.55 -1.9 -1.05 -1.9 -0.85 -1.85 -0.7 -1.75 -0.65 -1.65 -0.6 -1.6 -0.6 -1.5 -0.6 -1.4 -0.6 -1.3 -0.65 -1.2 -0.7 -1.1 -0.7 -1.0 -0.8 -0.9 -0.9 -0.85 -1.05 -0.75 -1.1 -0.65 -1.3 -0.55 -1.4 -0.5 -1.5 -0.45 -1.65 -0.45 -2.05 -0.4 -2.3 -0.5 -2.4 -0.6 -2.45 -0.65 -2.5 -0.75 -2.5 -0.85 -2.5 -0.95 -2.5 -1.05 -2.45 -1.15 -2.4 -1.25 -2.35 -1.35 -2.3 -1.4 -2.3 -1.5 -2.2 -1.6 -2.1 -1.7 -1.85 -1.8 -1.8 -1.85" fill="#ffffff" fill-opacity="0.16078432" fill-rule="evenodd" stroke="none"/>
    <path d="M-3.3 -4.4 L-3.2 -4.3 -3.2 -4.25 -3.15 -4.05 -3.15 -3.75 -3.15 -3.4 -3.15 -3.3 -3.2 -3.2 -3.25 -3.1 -3.35 -3.0 -3.45 -2.85 -3.65 -2.75 -3.85 -2.85 -3.95 -2.9 -4.0 -3.0 -4.0 -3.1 -4.0 -3.3 -4.05 -3.6 -4.05 -3.75 -4.0 -3.85 -3.95 -3.95 -3.95 -4.05 -3.95 -4.15 -3.95 -4.25 -3.9 -4.3 -3.8 -4.4 -3.7 -4.5 -3.55 -4.55 -3.55 -4.6 -3.4 -4.5 -3.3 -4.4" fill="#ffffff" fill-opacity="0.16078432" fill-rule="evenodd" stroke="none"/>
    <path d="M7.95 -4.25 L8.0 -4.15 8.05 -4.1 8.05 -4.0 8.1 -3.9 8.1 -3.8 8.05 -3.7 8.05 -3.6 7.95 -3.5 7.8 -3.35 7.7 -3.25 Q0.45 -3.05 -6.8 -3.35 L-7.55 -3.5 -7.65 -3.6 -7.7 -3.65 -7.75 -3.75 -7.75 -3.85 -7.75 -3.95 -7.7 -4.05 -7.65 -4.15 -7.55 -4.25 -7.3 -4.25 Q-2.4 -4.65 2.45 -4.5 L7.45 -4.5 7.7 -4.45 7.85 -4.35 7.95 -4.25" fill="#ffffff" fill-opacity="0.16078432" fill-rule="evenodd" stroke="none"/>
    <path d="M7.9 -3.65 L7.9 -3.55 7.95 -3.45 7.95 -3.35 7.95 -3.25 8.0 -3.15 8.05 -3.05 8.05 -3.0 8.15 -1.75 8.35 0.2 8.5 2.35 8.5 2.45 8.45 2.55 8.4 2.65 8.35 2.75 8.2 2.85 7.95 2.9 7.7 2.85 7.55 2.85 7.4 2.9 7.3 3.0 7.1 3.0 6.8 2.95 6.7 2.85 6.6 2.75 6.55 2.65 6.45 2.5 6.45 2.4 6.15 2.35 6.05 2.25 5.95 2.15 5.9 2.1 5.85 2.1 5.75 2.2 5.7 2.25 5.65 2.35 5.5 2.45 5.4 2.5 5.2 2.55 4.9 2.5 4.75 2.4 4.65 2.3 4.6 2.2 4.55 2.1 4.55 2.0 4.45 1.9 4.45 1.85 4.4 1.75 4.35 1.65 4.3 1.55 4.3 1.45 4.3 1.35 4.25 1.2 4.25 1.1 4.2 1.0 4.15 0.9 4.0 0.8 3.9 0.7 3.85 0.6 3.7 0.5 3.65 0.4 3.6 0.35 3.55 0.25 3.5 0.15 3.4 0.05 3.25 0.1 3.15 0.15 2.95 0.2 2.65 0.15 2.5 0.05 2.4 -0.05 2.35 -0.15 2.3 -0.25 2.3 -0.35 2.3 -0.4 2.3 -0.5 2.3 -0.7 2.3 -0.8 2.35 -0.9 2.4 -1.0 2.45 -1.1 2.4 -1.15 2.35 -1.2 2.05 -1.25 1.9 -1.35 1.8 -1.45 1.75 -1.55 1.7 -1.65 1.7 -2.1 1.7 -2.4 1.7 -2.85 1.7 -3.5 1.7 -3.6 1.75 -3.7 1.8 -3.8 1.9 -3.9 2.0 -4.0 2.15 -4.05 2.35 -4.1 2.6 -4.0 2.75 -3.9 2.9 -3.9 3.0 -4.0 3.15 -4.1 3.3 -4.2 3.6 -4.25 4.2 -4.25 4.45 -4.2 4.6 -4.1 4.7 -4.0 4.75 -3.95 4.85 -4.0 4.95 -4.05 5.05 -4.15 5.4 -4.25 5.5 -4.35 5.55 -4.4 5.65 -4.45 5.85 -4.45 5.85 -4.5 5.95 -4.45 6.2 -4.4 6.35 -4.3 6.45 -4.25 6.55 -4.3 6.7 -4.4 6.95 -4.45 7.2 -4.4 7.35 -4.3 7.4 -4.2 7.5 -4.1 7.65 -3.95 7.85 -3.75 7.9 -3.65" fill="#ffffff" fill-opacity="0.16078432" fill-rule="evenodd" stroke="none"/>
    <path d="M-4.45 -1.75 L-4.3 -1.65 -4.25 -1.55 -4.2 -1.5 -4.2 -1.4 -4.2 -1.3 -4.2 -1.2 -4.15 -1.1 -4.15 -1.0 -4.1 -0.95 -4.0 -0.85 -3.95 -0.75 -3.95 -0.65 -4.0 -0.55 -4.15 -0.45 -4.2 -0.35 -4.2 -0.25 -4.25 -0.2 -4.35 -0.1 -4.4 0.0 -4.45 0.0 -4.65 0.05 -4.9 0.0 -5.05 -0.1 -5.1 -0.2 -5.1 -0.3 -5.15 -0.5 -5.15 -0.85 -5.15 -1.25 -5.1 -1.5 -5.05 -1.6 -4.95 -1.7 -4.85 -1.75 -4.8 -1.8 -4.65 -1.8 -4.65 -1.85 -4.45 -1.75" fill="#663366" fill-opacity="0.16078432" fill-rule="evenodd" stroke="none"/>
    <path d="M-4.45 -0.3 L-4.15 -0.25 -3.85 -0.2 -2.05 -0.15 -1.8 -0.1 -1.7 0.0 -1.6 0.1 -1.55 0.15 -1.55 0.25 -1.5 0.35 -1.5 0.45 -1.5 0.55 -1.5 0.65 -1.55 0.75 -1.6 0.85 -1.65 0.9 -1.8 1.0 -1.85 1.1 -4.65 1.1 -4.9 1.0 -5.05 0.9 -5.15 0.85 -5.25 0.75 -5.35 0.65 -5.35 0.55 -5.35 0.45 -5.35 0.35 -5.35 0.25 -5.35 0.2 -5.3 0.1 -5.2 0.0 -5.1 -0.1 -5.0 -0.2 -4.9 -0.3 -4.65 -0.35 -4.45 -0.3" fill="#663366" fill-opacity="0.16078432" fill-rule="evenodd" stroke="none"/>
    <path d="M-3.1 -4.6 L-3.0 -4.5 -2.95 -4.4 -2.9 -4.3 -2.85 -3.8 -2.85 -3.15 -2.9 -2.5 -2.95 -2.4 -3.0 -2.35 -3.1 -2.25 -3.3 -2.15 -3.55 -2.25 -3.65 -2.35 -3.7 -2.4 -3.75 -2.9 -3.75 -3.55 -3.75 -4.2 -3.75 -4.3 -3.7 -4.4 -3.65 -4.5 -3.55 -4.6 -3.3 -4.6 -3.3 -4.65 -3.1 -4.6" fill="#663366" fill-opacity="0.16078432" fill-rule="evenodd" stroke="none"/>
    <path d="M-3.7 0.25 L-3.55 0.15 -3.3 0.15 -3.3 0.1 -3.05 0.15 -2.95 0.25 -2.9 0.35 -2.85 0.45 -2.8 0.55 -2.8 1.1 -2.8 1.95 -2.8 2.8 -2.8 2.9 -2.85 3.0 -2.9 3.1 -2.95 3.15 -3.05 3.25 -3.3 3.35 -3.55 3.25 -3.7 3.15 -3.75 3.05 -3.8 3.0 -3.85 2.35 -3.85 1.4 -3.8 0.45 -3.75 0.35 -3.7 0.25" fill="#663366" fill-opacity="0.16078432" fill-rule="evenodd" stroke="none"/>
    <path d="M9.05 2.35 L9.05 2.4 9.0 2.5 8.95 2.6 8.95 2.7 8.9 2.8 8.8 2.9 8.7 3.0 8.55 3.05 8.35 3.05 Q0.35 3.3 -7.65 2.95 L-8.05 2.9 -8.2 2.8 -8.25 2.7 -8.35 2.6 -8.35 2.5 -8.35 2.4 -8.35 2.35 -8.35 2.25 -8.35 2.15 -8.25 2.05 -8.15 1.95 -8.05 1.9 -8.0 1.85 -4.15 1.7 8.35 1.7 8.6 1.75 8.8 1.85 8.85 1.95 8.95 2.05 8.95 2.15 9.0 2.25 9.05 2.35" fill="#663366" fill-opacity="0.16078432" fill-rule="evenodd" stroke="none"/>
    <path d="M0.45 -2.35 L0.55 -2.25 0.6 -2.2 0.85 -2.15 0.95 -2.1 1.0 -2.05 1.2 -2.05 1.45 -2.0 1.6 -1.9 1.65 -1.8 1.7 -1.7 1.75 -1.6 1.75 -1.5 1.8 -0.85 1.8 -0.1 1.75 0.55 1.7 1.1 1.65 1.2 1.65 1.3 1.6 1.4 1.55 1.5 1.5 1.6 1.45 1.65 1.45 1.75 1.4 1.85 1.35 1.95 1.3 2.05 1.2 2.15 1.15 2.25 1.1 2.35 0.95 2.45 0.8 2.5 0.7 2.6 0.65 2.6 0.45 2.65 0.2 2.65 -0.05 2.6 -0.2 2.5 -0.3 2.5 -0.55 2.6 -0.8 2.65 -2.05 2.65 -2.3 2.55 -2.55 2.5 -2.6 2.55 -2.7 2.65 -2.75 2.75 -2.9 2.85 -3.15 2.9 -4.55 2.9 -4.8 2.85 -5.0 2.75 -5.15 2.65 -5.25 2.55 -5.35 2.45 -5.45 2.35 -5.5 2.25 -5.6 2.15 -5.6 2.1 -5.65 2.0 -5.7 1.9 -5.85 1.8 -5.95 1.7 -6.0 1.6 -6.1 1.5 -6.1 1.4 -6.15 1.35 -6.15 1.25 -6.2 1.15 -6.2 1.05 -6.2 0.95 -6.2 0.0 -6.2 -0.85 -6.2 -1.95 -6.2 -2.25 -6.2 -2.3 -6.1 -2.4 -6.0 -2.5 -5.75 -2.7 -5.7 -2.8 -5.65 -2.9 -5.55 -3.0 -5.35 -3.05 -5.15 -3.15 -5.1 -3.25 -4.95 -3.35 -4.85 -3.4 -4.65 -3.45 -0.3 -3.45 -0.05 -3.4 0.1 -3.3 0.15 -3.2 0.3 -3.1 0.35 -3.0 0.4 -2.9 0.4 -2.85 0.45 -2.75 0.45 -2.65 0.45 -2.55 0.45 -2.45 0.45 -2.35 M-2.1 -2.25 L-4.85 -2.2 -4.8 -1.75 -4.8 -1.25 -4.8 -0.9 -4.75 -0.8 -4.7 -0.7 -4.65 -0.6 -4.6 -0.5 -4.6 -0.4 -4.6 -0.35 -4.6 -0.25 -4.6 -0.15 -4.6 -0.05 -4.6 0.0 -2.85 0.1 -1.9 -0.1 -1.75 -0.15 -1.0 -0.35 -1.0 -0.55 -0.95 -0.75 -0.9 -0.85 -0.9 -1.1 -0.9 -1.4 -0.85 -1.6 -0.85 -1.65 -0.8 -1.75 -0.8 -1.85 -0.95 -1.95 -1.7 -2.1 -2.1 -2.25" fill="#663366" fill-opacity="0.16078432" fill-rule="evenodd" stroke="none"/>
    <path d="M3.15 4.25 L2.95 4.3 2.55 4.35 2.4 4.4 2.0 4.5 1.3 4.6 1.15 4.65 0.65 4.75 -0.05 4.85 -0.2 4.9 -3.4 5.05 -3.7 5.0 -3.95 4.9 -4.1 4.85 -7.8 4.95 -8.1 4.9 -8.25 4.8 -8.35 4.7 -8.4 4.6 -8.45 4.5 -8.45 4.4 -8.45 4.35 -8.45 4.25 -8.45 4.15 -8.45 3.95 -8.4 3.85 -8.35 3.75 -8.3 3.65 -8.15 3.6 -8.0 3.5 -1.4 3.15 -1.15 3.2 -1.0 3.3 -0.9 3.4 -0.85 3.5 -0.8 3.55 -0.4 3.6 -0.25 3.5 7.35 2.85 7.5 2.75 7.7 2.75 7.85 2.75 8.1 2.8 8.25 2.9 8.35 3.0 8.4 3.1 8.45 3.15 8.45 3.25 8.5 3.35 8.5 3.45 8.45 3.55 8.45 3.65 8.4 3.75 8.3 3.85 8.2 3.9 8.05 4.0 7.9 4.1 7.8 4.15 3.2 4.25 3.15 4.25" fill="#663366" fill-opacity="0.16078432" fill-rule="evenodd" stroke="none"/>
    <path d="M4.95 4.7 L4.6 4.8 4.2 4.85 3.4 5.15 3.3 5.2 2.9 5.3 2.2 5.4 2.05 5.45 -4.4 5.45 -4.7 5.4 -4.85 5.3 -4.95 5.25 -6.1 5.2 -6.4 5.25 -6.65 5.35 -7.3 5.35 -7.6 5.25 -7.75 5.15 -7.85 5.1 -7.9 5.0 -7.95 4.9 -8.0 4.8 -8.0 4.7 -8.0 4.6 -8.0 4.5 -7.95 4.4 -7.95 4.35 -7.95 4.25 -7.95 4.15 -7.95 4.05 -7.95 3.95 -7.9 3.85 -7.85 3.75 -7.8 3.7 -7.1 3.5 -4.4 3.4 -4.15 3.5 -4.05 3.55 -3.8 3.6 -3.5 3.55 -3.35 3.5 -2.2 3.35 -0.8 3.35 5.2 3.1 5.95 3.1 6.2 3.15 6.4 3.25 6.45 3.35 6.55 3.4 6.6 3.5 6.65 3.6 6.65 3.7 6.65 3.8 6.65 3.9 6.65 4.0 6.6 4.1 6.55 4.15 6.45 4.25 6.4 4.35 6.2 4.45 5.95 4.5 5.7 4.55 5.45 4.6 5.15 4.6 4.95 4.7" fill="#663366" fill-opacity="0.16078432" fill-rule="evenodd" stroke="none"/>
    <path d="M-8.1 -3.15 L-8.05 -2.15 -8.05 -1.4 -8.15 0.2 -8.1 2.0 -8.05 3.1 -8.0 3.15 -7.8 3.25 -7.4 3.35 -7.3 3.4 -6.8 3.5 -6.2 3.75 -6.1 3.85 -6.05 3.95 -6.0 4.05 -5.95 4.15 -6.0 4.25 -6.05 4.3 -6.2 4.5 -6.3 4.7 -6.45 4.8 -6.55 4.85 -6.6 4.9 -6.8 4.9 -7.1 4.85 -7.2 4.75 -7.3 4.7 -7.4 4.65 -7.7 4.6 -7.8 4.55 -7.9 4.5 -8.2 4.45 -8.6 4.35 -8.7 4.25 -8.9 4.15 -9.0 4.1 -9.1 4.0 -9.15 3.9 -9.15 3.8 -9.2 3.7 -9.2 3.6 -9.2 3.5 -9.25 3.4 -9.25 1.75 -9.2 -0.15 -9.1 -1.45 -9.1 -1.55 -9.05 -1.65 -9.05 -2.3 -9.05 -3.15 -8.95 -4.0 -8.9 -4.05 -8.8 -4.15 -8.7 -4.25 -8.55 -4.25 -8.35 -4.2 -8.25 -4.1 -8.2 -4.0 -8.1 -3.15" fill="#663366" fill-opacity="0.16078432" fill-rule="evenodd" stroke="none"/>
    <path d="M-3.05 -5.45 L3.95 -5.55 5.95 -5.55 7.45 -5.5 8.1 -5.45 8.2 -5.45 8.3 -5.5 8.45 -5.45 8.7 -5.45 8.9 -5.4 9.05 -5.3 9.1 -5.2 9.15 -5.1 9.2 -5.0 9.2 -4.9 9.15 -4.85 9.15 -4.75 9.05 -4.65 9.05 -4.6 9.0 -4.5 8.95 -4.4 8.9 -4.35 9.0 -1.7 9.05 1.3 8.95 3.35 8.9 3.45 8.85 3.55 8.8 3.65 8.7 3.75 8.55 3.75 8.3 3.7 8.2 3.75 8.1 3.75 7.95 3.8 7.5 3.9 7.4 3.95 Q2.2 4.3 -3.05 4.15 L-3.2 4.15 -7.8 3.9 -7.9 3.95 -8.05 4.0 -8.25 3.9 -8.4 3.85 -8.45 3.75 -8.5 3.65 -8.55 3.6 -8.6 3.55 -8.65 0.45 -8.5 -2.4 -8.5 -2.85 -8.45 -4.8 -8.4 -4.9 -8.4 -5.0 -8.35 -5.1 -8.3 -5.2 -8.2 -5.25 -6.95 -5.45 -3.2 -5.45 -3.05 -5.45 -3.05 -2.4 -3.2 -2.4 -3.05 -2.4 -3.05 -5.45 M-3.2 0.45 L-3.15 0.4 -3.1 0.3 -3.1 0.25 -3.2 0.25 -4.8 0.2 -4.95 0.25 -5.1 0.2 -5.15 0.1 -5.2 0.05 -5.25 0.0 -5.3 -0.1 -5.3 -0.45 -5.25 -0.9 -5.3 -1.4 -5.35 -1.5 -5.4 -1.6 -5.45 -1.65 -5.4 -1.75 -5.35 -1.85 -5.2 -1.9 -5.05 -1.85 -5.0 -1.75 -4.95 -1.65 -4.9 -1.6 -4.85 -1.5 -4.85 -1.2 -4.85 -0.8 -4.8 -0.35 -3.8 -0.45 -3.2 -0.45 -3.05 -0.45 -1.95 -0.5 -1.3 -0.5 -1.3 -0.65 -1.25 -1.35 -1.2 -1.8 -1.15 -1.85 -1.2 -1.85 -1.3 -1.85 -3.05 -1.85 -3.2 -1.85 -4.8 -1.95 -4.9 -2.0 -5.1 -2.05 -5.1 -2.15 -5.05 -2.2 -4.9 -2.25 -3.2 -2.4 -3.25 -2.9 -3.25 -3.65 -3.2 -4.15 -3.2 -4.3 -3.15 -4.4 -3.2 -4.4 -7.65 -4.6 -7.55 -2.4 -7.55 -1.85 -7.45 0.45 -7.45 1.35 -7.45 2.85 -3.3 2.7 -3.3 2.15 -3.3 1.4 -3.25 0.6 -3.25 0.5 -3.2 0.45 -3.05 0.45 -3.05 4.15 -3.05 0.45 -3.2 0.45 M8.2 -4.45 Q2.7 -4.25 -2.8 -4.4 L-2.85 -4.35 -2.85 -4.25 -2.9 -4.15 -2.85 -3.6 -2.85 -2.9 -2.85 -2.4 -1.3 -2.4 -1.15 -2.35 -1.1 -2.25 -1.05 -2.15 -1.05 -2.05 -0.95 -2.05 -0.9 -2.05 -0.8 -1.95 -0.8 -1.85 -0.75 -1.75 -0.75 -1.65 -0.7 -1.6 -0.7 -1.1 -0.65 -0.65 -0.6 -0.15 -0.65 -0.1 -0.7 0.0 -0.75 0.1 -0.8 0.1 -0.95 0.15 -1.0 0.2 -2.5 0.25 -2.5 0.35 -2.55 0.4 -2.6 0.5 -2.6 0.6 -2.65 1.15 -2.65 1.95 -2.6 2.65 -2.6 2.7 4.8 2.65 5.35 2.65 5.25 2.6 5.25 2.5 5.2 2.4 4.9 2.1 4.65 1.85 4.55 1.75 4.55 1.65 4.55 1.55 4.55 1.45 4.6 1.35 4.6 1.25 4.65 1.2 4.8 1.2 4.8 1.15 4.95 1.25 5.0 1.35 5.0 1.45 5.0 1.5 5.3 1.8 5.55 2.1 5.7 2.25 5.75 2.35 5.75 2.45 5.8 2.55 5.85 2.65 6.9 2.7 7.55 2.9 7.8 2.95 7.95 3.0 8.1 3.0 8.05 0.7 8.1 -2.4 8.15 -4.45 8.2 -4.45 M-8.5 -2.4 L-7.55 -2.4 -8.5 -2.4 M-8.65 0.45 L-7.45 0.45 -8.65 0.45 M5.95 1.35 L6.05 1.3 6.1 1.3 6.25 1.4 6.35 1.5 6.5 1.6 6.6 1.65 6.8 1.75 6.9 1.85 6.9 1.95 6.95 2.05 6.9 2.1 6.7 2.15 6.6 2.1 6.3 1.9 6.1 1.7 6.0 1.5 5.9 1.4 5.95 1.35 M3.1 1.4 L3.2 1.4 3.25 1.4 3.35 1.5 3.35 1.6 3.3 1.65 3.35 1.75 3.35 1.85 3.4 1.95 3.4 2.05 3.35 2.1 3.25 2.2 3.1 2.2 3.0 2.1 3.0 2.05 2.9 1.9 2.85 1.85 2.85 1.75 2.9 1.65 2.95 1.55 3.05 1.45 3.1 1.4" fill="#333333" fill-rule="evenodd" stroke="none"/>
  </g>
</svg>
