<?xml version="1.0" encoding="UTF-8" standalone="no"?>
<svg xmlns:xlink="http://www.w3.org/1999/xlink" height="46.5px" width="18.0px" xmlns="http://www.w3.org/2000/svg">
  <g transform="matrix(1.0, 0.0, 0.0, 1.0, 9.2, 24.4)">
    <path d="M8.8 22.1 L-9.2 22.1 -9.2 -24.4 8.8 -24.4 8.8 22.1" fill="#c2bfbc" fill-rule="evenodd" stroke="none"/>
    <path d="M6.65 8.8 L-7.2 8.8 -7.2 -21.9 6.65 -21.9 6.65 8.8" fill="#6c6960" fill-rule="evenodd" stroke="none"/>
    <path d="M-0.6 -19.9 L-0.6 -17.75 -6.2 -17.75 -6.2 -19.9 -0.6 -19.9" fill="#76a6c5" fill-rule="evenodd" stroke="none"/>
    <path d="M-0.4 -5.95 Q2.15 -5.95 3.95 -4.15 5.8 -2.3 5.8 0.25 5.8 2.8 3.95 4.6 2.15 6.45 -0.4 6.45 -2.95 6.45 -4.8 4.6 -6.6 2.8 -6.6 0.25 -6.6 -2.3 -4.8 -4.15 -2.95 -5.95 -0.4 -5.95" fill="#c2bfbc" fill-rule="evenodd" stroke="none"/>
    <path d="M-0.45 -4.2 Q1.4 -4.2 2.7 -2.9 4.05 -1.55 4.05 0.3 4.05 2.1 2.7 3.4 1.4 4.75 -0.45 4.75 -2.25 4.75 -3.6 3.4 -4.9 2.1 -4.9 0.3 -4.9 -1.55 -3.6 -2.9 -2.25 -4.2 -0.45 -4.2" fill="#333333" fill-rule="evenodd" stroke="none"/>
    <path d="M5.05 -20.1 L5.05 -20.05 5.05 -19.95 5.0 -19.9 5.0 -19.85 4.9 -19.8 4.85 -19.75 -4.8 -19.75 -6.1 -19.9 -6.15 -19.95 -6.2 -20.0 -6.2 -20.1 -6.15 -20.15 -6.15 -20.2 -6.1 -20.2 -2.4 -20.4 2.25 -20.4 4.2 -20.4 4.85 -20.3 4.95 -20.25 5.0 -20.2 5.05 -20.2 5.05 -20.1" fill="#ffffff" fill-rule="evenodd" stroke="none"/>
    <path d="M-5.9 -20.2 L-5.85 -20.15 -5.8 -20.1 -5.8 -19.9 -5.75 -19.85 -5.75 -19.75 -5.7 -19.7 -5.7 -19.45 -5.75 -19.4 -5.7 -18.8 -5.7 -18.15 -5.7 -17.6 -5.7 -17.55 -5.75 -17.5 -5.75 -17.45 -5.8 -17.4 -5.9 -17.35 -6.0 -17.35 -6.15 -17.35 -6.2 -17.4 -6.25 -17.45 -6.3 -17.5 -6.3 -17.55 -6.3 -18.25 -6.3 -19.05 -6.25 -19.6 -6.25 -19.65 -6.25 -19.75 -6.25 -19.9 -6.2 -20.05 -6.2 -20.1 -6.1 -20.2 -6.0 -20.2 -5.9 -20.2" fill="#ffffff" fill-rule="evenodd" stroke="none"/>
    <path d="M4.85 -17.95 L4.95 -17.9 5.05 -17.85 5.1 -17.8 5.15 -17.75 5.15 -17.7 5.2 -17.65 5.2 -17.6 5.15 -17.55 5.15 -17.45 5.1 -17.4 5.1 -17.35 5.0 -17.3 4.95 -17.25 4.85 -17.25 Q-0.5 -17.15 -5.85 -17.4 L-6.1 -17.45 -6.15 -17.5 -6.2 -17.55 -6.2 -17.65 -6.15 -17.75 -6.05 -17.75 -1.5 -17.95 1.2 -17.95 4.85 -17.95" fill="#ffffff" fill-rule="evenodd" stroke="none"/>
    <path d="M5.2 -20.1 L5.15 -20.05 5.15 -20.0 5.1 -19.95 5.1 -19.55 5.15 -18.9 5.15 -18.1 5.15 -17.55 5.15 -17.5 5.1 -17.45 5.1 -17.4 5.05 -17.35 5.0 -17.35 4.95 -17.3 4.85 -17.3 4.7 -17.35 4.6 -17.4 4.6 -17.45 4.55 -17.5 4.5 -17.5 4.5 -18.35 4.5 -19.35 4.6 -20.05 4.6 -20.1 4.65 -20.2 4.8 -20.35 4.85 -20.35 4.85 -20.4 4.95 -20.4 5.05 -20.35 5.1 -20.3 5.15 -20.25 5.2 -20.2 5.2 -20.1" fill="#ffffff" fill-rule="evenodd" stroke="none"/>
  </g>
</svg>
