<?xml version="1.0" encoding="UTF-8" standalone="no"?>
<svg xmlns:xlink="http://www.w3.org/1999/xlink" height="9.95px" width="60.4px" xmlns="http://www.w3.org/2000/svg">
  <g transform="matrix(1.0, 0.0, 0.0, 1.0, 30.2, 5.0)">
    <path d="M-29.45 -4.35 L-29.45 -4.4 -29.2 -4.3 -29.05 -4.15 -28.95 -4.0 Q-28.8 -2.5 -28.8 -1.0 L-28.7 2.15 -28.7 4.1 -28.75 4.25 -28.8 4.4 -28.85 4.55 -29.05 4.7 -29.2 4.8 -29.45 4.85 -29.8 4.75 -30.0 4.6 -30.15 4.45 -30.2 1.45 -30.1 -1.85 -29.95 -3.95 -29.9 -4.1 -29.8 -4.25 -29.65 -4.35 -29.45 -4.35" fill="#ffffff" fill-rule="evenodd" stroke="none"/>
    <path d="M-24.1 -0.1 L-23.95 0.05 -23.85 0.2 -23.8 0.35 -23.75 0.5 -23.8 0.65 -23.85 0.8 -23.95 0.95 -24.1 1.1 -24.45 1.2 -26.45 1.25 -29.6 0.95 -29.7 0.8 -29.8 0.65 -29.8 0.5 -29.8 0.35 -29.7 0.2 -29.6 0.05 -29.25 0.0 -26.45 -0.2 -24.45 -0.2 -24.1 -0.1" fill="#ffffff" fill-rule="evenodd" stroke="none"/>
    <path d="M-24.25 -4.8 L-24.0 -4.7 -23.85 -4.55 -23.75 -4.4 -23.6 -1.1 -23.5 2.35 Q-23.45 3.4 -23.65 4.45 L-23.7 4.6 -23.8 4.75 -23.9 4.85 -24.0 4.9 -24.25 4.95 -24.6 4.85 -24.75 4.7 -24.85 4.55 -24.95 1.25 -24.8 -2.2 -24.8 -4.3 -24.75 -4.45 -24.65 -4.6 -24.55 -4.7 -24.45 -4.75 -24.25 -4.75 -24.25 -4.8" fill="#ffffff" fill-rule="evenodd" stroke="none"/>
    <path d="M-15.7 0.6 L-15.55 0.75 -15.2 1.05 -14.8 1.5 -14.65 1.8 -14.65 1.95 -14.6 2.1 -14.6 2.25 -14.6 2.4 -14.6 2.7 -14.55 3.0 -14.6 3.15 -14.7 3.3 -14.8 3.45 -14.95 3.6 -15.3 3.9 -16.0 4.1 -18.25 4.5 -20.45 4.6 -20.8 4.5 -21.0 4.35 -21.1 4.2 -21.2 4.05 -21.25 3.9 -21.3 3.75 -21.35 3.6 -21.35 3.45 -21.35 3.3 -21.3 3.15 -21.3 3.0 -21.2 2.7 -21.2 2.55 -21.1 2.4 -21.0 2.25 -20.65 2.15 -20.3 2.15 -20.0 2.05 -19.75 2.05 -19.6 2.2 -19.6 2.35 -19.65 2.5 -19.9 2.65 -20.05 2.85 -20.05 2.95 -20.0 3.05 -18.0 3.15 -17.75 3.1 -17.5 3.05 -16.9 2.9 -16.05 2.65 -15.95 2.5 -15.9 2.35 -15.95 2.2 -16.05 2.05 -16.15 1.9 -16.3 1.75 -16.55 1.45 Q-16.65 1.4 -16.8 1.3 L-17.65 0.85 -18.95 -0.25 -19.4 -0.8 -19.45 -0.95 -19.5 -1.1 -19.55 -1.25 -19.6 -1.4 -19.6 -1.55 -19.6 -1.7 -19.6 -1.85 -19.6 -2.15 -19.6 -2.6 -19.6 -2.75 -19.6 -2.9 -19.5 -3.05 -19.45 -3.2 -19.4 -3.35 -19.35 -3.5 -19.25 -3.65 -19.2 -3.8 -19.1 -3.95 -18.95 -4.1 -18.65 -4.15 -18.65 -4.2 -17.65 -4.15 -16.85 -4.1 -16.6 -4.0 -16.35 -3.85 -16.2 -3.7 -16.1 -3.55 -16.0 -3.4 -15.95 -3.25 -16.0 -3.1 -16.1 -3.0 -16.3 -2.85 -16.55 -2.8 -16.55 -2.95 -16.5 -3.1 -16.65 -3.2 -16.75 -3.25 -17.65 -3.2 -18.35 -3.15 -18.4 -3.0 -18.45 -2.85 -18.5 -2.7 -18.5 -2.55 -18.5 -2.4 -18.5 -2.25 -18.5 -2.1 -18.5 -1.95 -18.5 -1.8 -18.45 -1.65 -18.2 -1.2 -16.95 -0.15 -15.85 0.45 -15.7 0.6" fill="#ffffff" fill-rule="evenodd" stroke="none"/>
    <path d="M-11.7 -4.55 L-11.7 -4.6 -11.45 -4.5 -11.3 -4.35 -11.2 -4.2 -11.05 -1.2 -10.95 1.95 -10.95 3.9 -11.0 4.05 -11.05 4.2 -11.1 4.35 -11.3 4.5 -11.45 4.6 -11.7 4.65 -12.05 4.55 -12.25 4.4 -12.4 4.25 -12.45 1.25 -12.35 -2.05 -12.2 -4.15 -12.15 -4.3 -12.05 -4.45 -11.9 -4.55 -11.7 -4.55" fill="#ffffff" fill-rule="evenodd" stroke="none"/>
    <path d="M-6.35 -0.3 L-6.2 -0.15 -6.1 0.0 -6.05 0.15 -6.0 0.3 -6.05 0.45 -6.1 0.6 -6.2 0.75 -6.35 0.9 -6.7 1.0 -8.7 1.05 -11.85 0.75 -11.95 0.6 -12.05 0.45 -12.05 0.3 -12.05 0.15 -11.95 0.0 -11.85 -0.15 -11.5 -0.2 -8.7 -0.4 -6.7 -0.4 -6.35 -0.3" fill="#ffffff" fill-rule="evenodd" stroke="none"/>
    <path d="M-6.7 -4.95 L-6.5 -4.95 -6.5 -5.0 -6.25 -4.9 -6.1 -4.75 -6.0 -4.6 -5.85 -1.3 -5.75 2.15 -5.9 4.25 -5.95 4.4 -6.05 4.55 -6.15 4.65 -6.25 4.7 -6.5 4.75 -6.85 4.65 -7.0 4.5 -7.1 4.35 -7.2 1.05 -7.05 -2.4 -7.05 -4.5 -7.0 -4.65 -6.9 -4.8 -6.8 -4.9 -6.7 -4.95" fill="#ffffff" fill-rule="evenodd" stroke="none"/>
    <path d="M7.7 -3.2 L7.7 -2.75 7.55 -0.95 7.15 1.45 6.7 3.1 6.6 3.25 6.55 3.4 6.4 3.55 6.3 3.7 6.25 3.85 6.1 4.0 5.95 4.15 5.85 4.3 5.75 4.45 5.65 4.6 5.45 4.75 5.25 4.85 5.15 4.9 4.95 4.95 4.65 4.85 4.55 4.7 4.5 4.55 4.5 4.4 4.55 4.25 4.75 4.1 5.0 3.95 5.1 3.8 5.15 3.65 5.3 3.5 5.45 3.35 5.6 3.2 5.65 3.05 5.65 2.9 5.7 2.75 5.8 2.45 5.9 2.0 6.1 1.4 6.0 1.4 5.75 1.45 4.55 1.5 4.15 1.4 3.7 1.25 3.45 1.1 3.2 0.95 3.0 0.8 2.75 0.5 2.45 0.05 2.35 -0.1 2.35 -0.25 2.35 -0.55 2.35 -1.0 2.35 -1.6 2.35 -2.35 2.35 -2.5 2.5 -2.8 2.75 -3.25 3.2 -4.0 3.8 -4.6 4.15 -4.65 4.15 -4.7 5.55 -4.6 6.35 -4.4 6.7 -4.25 6.9 -4.1 7.1 -3.95 7.25 -3.8 7.4 -3.65 7.6 -3.35 7.7 -3.2 M6.1 -3.3 L5.75 -3.45 4.35 -3.45 4.1 -3.15 3.8 -2.7 3.6 -2.25 3.55 -1.8 3.55 -1.35 3.55 -0.75 3.55 -0.6 3.7 -0.35 4.0 -0.05 4.5 0.25 5.75 0.35 6.05 0.45 6.3 0.45 6.35 0.0 6.45 -0.45 6.6 -0.9 6.65 -1.05 6.65 -1.5 6.6 -1.95 6.6 -2.55 6.6 -2.7 6.55 -2.85 6.45 -3.0 6.3 -3.15 6.1 -3.3" fill="#ffffff" fill-rule="evenodd" stroke="none"/>
    <path d="M15.1 -0.05 L15.1 0.7 15.05 1.75 14.75 2.8 14.65 3.1 14.55 3.25 14.5 3.4 14.45 3.55 14.35 3.7 14.25 3.85 14.0 4.0 13.75 4.15 13.5 4.3 13.15 4.4 11.55 4.4 11.2 4.3 10.85 4.15 10.55 4.0 10.1 3.55 9.4 2.8 9.15 2.35 9.1 1.45 9.15 0.25 9.3 -0.95 9.35 -1.25 9.4 -1.4 9.5 -1.55 9.55 -1.7 9.6 -1.85 9.7 -2.0 9.75 -2.15 9.8 -2.3 9.9 -2.45 10.05 -2.75 10.2 -3.05 10.4 -3.35 10.65 -3.5 10.8 -3.65 10.95 -3.8 11.15 -3.95 11.55 -4.1 11.55 -4.25 11.55 -4.3 11.75 -4.35 12.7 -4.35 13.15 -4.15 13.35 -4.05 13.45 -3.8 14.05 -2.75 14.6 -1.7 14.7 -1.4 14.8 -0.95 15.0 -0.35 15.1 -0.05 M11.95 -3.15 L11.85 -3.15 11.55 -3.0 11.4 -2.85 11.25 -2.7 11.2 -2.55 11.1 -2.4 10.95 -2.1 10.8 -1.8 10.5 -0.9 10.35 0.3 10.35 1.65 10.5 1.95 10.8 2.4 11.2 2.85 11.45 2.95 13.05 2.9 13.15 2.75 13.45 1.7 13.5 0.35 13.25 -1.0 12.9 -1.6 12.45 -2.5 11.95 -3.15" fill="#ffffff" fill-rule="evenodd" stroke="none"/>
    <path d="M22.6 -0.05 L22.6 0.7 22.55 1.75 22.25 2.8 22.15 3.1 22.05 3.25 22.0 3.4 21.95 3.55 21.85 3.7 21.75 3.85 21.5 4.0 21.25 4.15 21.0 4.3 20.65 4.4 19.05 4.4 18.7 4.3 18.35 4.15 18.05 4.0 17.6 3.55 16.9 2.8 16.65 2.35 16.6 1.45 16.65 0.25 Q16.6 -0.35 16.8 -0.95 L16.85 -1.25 16.9 -1.4 17.0 -1.55 17.05 -1.7 17.1 -1.85 17.2 -2.0 17.25 -2.15 17.3 -2.3 17.4 -2.45 17.55 -2.75 17.7 -3.05 17.9 -3.35 18.15 -3.5 18.3 -3.65 18.45 -3.8 18.65 -3.95 19.05 -4.1 19.05 -4.25 19.05 -4.3 19.25 -4.35 20.2 -4.35 20.65 -4.15 20.85 -4.05 20.95 -3.8 21.55 -2.75 22.1 -1.7 22.2 -1.4 22.3 -0.95 22.5 -0.35 22.6 -0.05 M19.45 -3.15 L19.35 -3.15 19.05 -3.0 18.9 -2.85 18.75 -2.7 18.7 -2.55 18.6 -2.4 18.45 -2.1 18.3 -1.8 18.0 -0.9 Q17.85 -0.3 17.85 0.3 L17.85 1.65 18.0 1.95 18.3 2.4 18.7 2.85 18.95 2.95 20.55 2.9 20.65 2.75 20.95 1.7 21.0 0.35 20.75 -1.0 20.4 -1.6 19.95 -2.5 19.45 -3.15" fill="#ffffff" fill-rule="evenodd" stroke="none"/>
    <path d="M30.2 -0.05 L30.2 0.7 30.15 1.75 29.85 2.8 29.75 3.1 29.65 3.25 29.6 3.4 29.55 3.55 29.45 3.7 29.35 3.85 29.1 4.0 28.85 4.15 28.6 4.3 28.25 4.4 26.65 4.4 26.3 4.3 25.95 4.15 25.65 4.0 25.2 3.55 24.5 2.8 24.25 2.35 Q24.15 1.9 24.2 1.45 L24.25 0.25 Q24.2 -0.35 24.4 -0.95 L24.45 -1.25 24.5 -1.4 24.6 -1.55 24.65 -1.7 24.7 -1.85 24.8 -2.0 24.85 -2.15 24.9 -2.3 25.0 -2.45 25.15 -2.75 25.3 -3.05 25.5 -3.35 25.75 -3.5 25.9 -3.65 26.05 -3.8 26.25 -3.95 26.65 -4.1 26.65 -4.25 26.65 -4.3 26.85 -4.35 27.8 -4.35 28.25 -4.15 28.45 -4.05 28.55 -3.8 29.15 -2.75 29.7 -1.7 29.8 -1.4 29.9 -0.95 30.1 -0.35 30.2 -0.05 M27.05 -3.15 L26.95 -3.15 26.65 -3.0 26.5 -2.85 26.35 -2.7 26.3 -2.55 26.2 -2.4 26.05 -2.1 25.9 -1.8 25.6 -0.9 Q25.45 -0.3 25.45 0.3 L25.45 1.65 25.6 1.95 25.9 2.4 26.3 2.85 26.55 2.95 28.15 2.9 28.25 2.75 28.55 1.7 28.6 0.35 28.35 -1.0 28.0 -1.6 27.55 -2.5 27.05 -3.15" fill="#ffffff" fill-rule="evenodd" stroke="none"/>
  </g>
</svg>
