<?xml version="1.0" encoding="UTF-8" standalone="no"?>
<svg xmlns:xlink="http://www.w3.org/1999/xlink" height="52.85px" width="99.6px" xmlns="http://www.w3.org/2000/svg">
  <g transform="matrix(1.0, 0.0, 0.0, 1.0, 50.95, 27.1)">
    <path d="M-50.4 -26.25 L-50.5 -26.35 -50.55 -26.45 -50.55 -26.5 -50.5 -26.6 -50.45 -26.7 -50.35 -26.75 Q-38.7 -27.2 -27.1 -27.1 L-26.1 -27.1 -24.95 -27.05 -24.7 -27.0 -24.6 -26.9 -24.5 -26.8 -24.45 -26.7 -24.45 -26.6 -24.4 -26.5 -24.4 -26.45 -24.45 -26.35 -24.45 -26.25 -24.55 -26.15 -24.65 -26.05 -24.7 -26.0 Q-37.45 -25.75 -50.2 -26.2 L-50.4 -26.25" fill="#ffffff" fill-rule="evenodd" stroke="none"/>
    <path d="M-50.55 -26.4 L-50.45 -26.5 -50.35 -26.55 -50.3 -26.55 -50.15 -26.45 -50.05 -26.35 -50.05 -26.25 -50.05 -26.1 -49.95 -25.9 -49.95 -25.8 -49.9 -24.95 -49.85 -24.0 -49.9 -23.35 -49.9 -23.25 -50.0 -23.2 -50.05 -23.1 -50.15 -23.0 -50.35 -23.0 -50.6 -23.05 -50.7 -23.15 -50.8 -23.25 -50.8 -23.35 -50.85 -24.2 -50.8 -25.1 -50.75 -25.85 -50.7 -25.95 -50.7 -26.05 -50.65 -26.15 -50.65 -26.25 -50.6 -26.35 -50.55 -26.4" fill="#ffffff" fill-rule="evenodd" stroke="none"/>
    <path d="M-49.4 -23.55 L-27.95 -23.7 -25.6 -23.65 -25.0 -23.55 -24.85 -23.45 -24.8 -23.35 -24.8 -23.25 -24.75 -23.2 -24.75 -23.1 -24.8 -23.0 -24.85 -22.9 -24.9 -22.8 -25.0 -22.75 -25.6 -22.65 -49.2 -22.7 -49.25 -22.7 -49.45 -22.65 -49.7 -22.6 -49.95 -22.65 -50.45 -22.85 -50.55 -22.95 -50.6 -23.05 -50.6 -23.1 -50.6 -23.2 -50.55 -23.3 -50.5 -23.4 -50.4 -23.5 -50.2 -23.55 -50.1 -23.55 -49.9 -23.5 -49.7 -23.45 -49.5 -23.5 -49.4 -23.55" fill="#ffffff" fill-rule="evenodd" stroke="none"/>
    <path d="M-25.55 -25.85 L-25.45 -26.75 -25.4 -26.85 -25.3 -26.95 -25.15 -27.0 -25.1 -27.0 -24.95 -26.95 -24.85 -26.85 -24.7 -25.8 -24.65 -24.6 -24.6 -23.65 -24.65 -23.55 -24.7 -23.45 -24.75 -23.35 -24.8 -23.25 -24.85 -23.2 -24.95 -23.2 -25.1 -23.15 -25.35 -23.2 -25.5 -23.3 -25.55 -23.4 -25.6 -23.5 -25.65 -24.6 -25.55 -25.85" fill="#ffffff" fill-rule="evenodd" stroke="none"/>
    <path d="M-50.3 -26.55 L-24.8 -26.55 -24.8 -23.25 -50.3 -23.25 -50.3 -26.55" fill="#ffffff" fill-rule="evenodd" stroke="none"/>
    <path d="M-48.35 -13.2 L-38.6 -13.4 -33.45 -13.4 -33.2 -13.35 -33.05 -13.25 -32.95 -13.15 -32.85 -13.1 -32.8 -13.0 -32.8 -12.9 -32.8 -12.8 -32.8 -12.7 -32.8 -12.6 -32.85 -12.5 -32.95 -12.4 -33.05 -12.35 -33.2 -12.25 -33.45 -12.15 -48.1 -12.35 -48.5 -12.4 -50.1 -12.45 -50.35 -12.5 -50.45 -12.6 -50.5 -12.7 -50.55 -12.8 -50.5 -12.9 -50.45 -13.0 -50.35 -13.1 -50.1 -13.15 -48.5 -13.15 -48.35 -13.2" fill="#ffffff" fill-rule="evenodd" stroke="none"/>
    <path d="M-50.15 -15.7 L-50.1 -15.8 -50.05 -15.85 -49.95 -15.95 -49.7 -16.05 -46.75 -16.05 -46.6 -16.1 -41.9 -16.2 -39.55 -16.2 -39.25 -16.1 -39.1 -16.05 -39.05 -15.95 -39.0 -15.85 -38.9 -15.75 -38.9 -15.65 -38.9 -15.55 -38.9 -15.45 -39.0 -15.35 -39.0 -15.3 -39.1 -15.2 -39.2 -15.1 -39.35 -15.05 -46.4 -15.1 -46.75 -15.1 -49.7 -15.15 -49.95 -15.2 -50.05 -15.3 -50.1 -15.4 -50.15 -15.5 -50.15 -15.6 -50.15 -15.7" fill="#ffffff" fill-rule="evenodd" stroke="none"/>
    <path d="M-43.6 -19.2 L-43.5 -19.1 -43.45 -19.05 -43.4 -18.95 -43.4 -18.85 -43.4 -18.75 -43.45 -18.65 -43.5 -18.55 -43.6 -18.45 -43.7 -18.35 -43.95 -18.35 -49.85 -18.35 -50.1 -18.4 -50.2 -18.5 -50.25 -18.6 -50.3 -18.7 -50.35 -18.8 -50.35 -18.85 -50.35 -18.95 -50.3 -19.05 -50.25 -19.15 -50.15 -19.25 -50.05 -19.3 -49.85 -19.35 -47.1 -19.4 -44.2 -19.35 -43.7 -19.3 -43.6 -19.2" fill="#ffffff" fill-rule="evenodd" stroke="none"/>
    <path d="M-41.6 -18.5 L-41.65 -18.6 -41.7 -18.7 -41.65 -18.8 -41.6 -18.9 -41.55 -18.95 -39.85 -19.2 -36.35 -19.3 -35.1 -19.3 -34.85 -19.2 -34.7 -19.15 -34.65 -19.05 -34.6 -18.95 -34.55 -18.85 -34.55 -18.75 -34.55 -18.65 -34.55 -18.55 -34.6 -18.45 -34.6 -18.4 -34.7 -18.3 -34.8 -18.2 -34.95 -18.15 -41.55 -18.4 -41.6 -18.5" fill="#ffffff" fill-rule="evenodd" stroke="none"/>
    <path d="M35.15 20.0 L35.1 23.45 35.15 23.45 35.15 23.65 35.1 23.7 34.3 23.7 33.5 23.7 32.85 23.65 32.75 23.65 32.7 23.65 32.65 23.6 32.65 23.65 32.55 23.65 32.5 23.65 Q32.2 22.25 32.25 20.85 L32.25 20.15 32.3 20.1 32.35 20.05 32.45 20.05 32.5 20.0 32.55 20.05 32.6 20.05 32.65 20.0 32.7 20.0 32.8 19.95 34.05 19.95 34.15 19.95 34.6 19.95 35.15 19.95 35.15 20.0" fill="#ffffff" fill-rule="evenodd" stroke="none"/>
    <path d="M31.15 15.55 L31.1 23.1 31.15 23.15 31.15 23.65 31.1 23.7 30.3 23.75 29.5 23.7 28.85 23.65 28.75 23.65 28.7 23.55 28.65 23.5 28.65 23.55 28.55 23.6 28.5 23.55 Q28.2 20.45 28.25 17.45 L28.25 15.95 28.3 15.8 28.35 15.7 28.45 15.65 28.5 15.6 28.55 15.65 28.6 15.65 28.65 15.6 28.7 15.55 28.8 15.45 30.05 15.45 30.15 15.45 30.6 15.45 31.15 15.45 31.15 15.55" fill="#ffffff" fill-rule="evenodd" stroke="none"/>
    <path d="M27.15 12.35 L27.1 22.9 27.15 23.0 27.15 23.65 27.1 23.7 26.3 23.75 25.5 23.7 24.85 23.65 24.75 23.65 24.7 23.5 24.65 23.45 24.65 23.5 24.55 23.55 24.5 23.5 Q24.2 19.2 24.25 15.0 L24.25 12.9 24.3 12.7 24.35 12.55 24.45 12.5 24.5 12.45 24.55 12.5 24.6 12.5 24.65 12.45 24.7 12.35 24.8 12.25 26.05 12.25 26.15 12.25 26.6 12.25 27.15 12.25 27.15 12.35" fill="#ffffff" fill-rule="evenodd" stroke="none"/>
    <path d="M39.15 12.35 L39.1 22.95 39.15 23.0 39.15 23.7 39.1 23.75 38.3 23.8 37.5 23.75 36.85 23.7 36.75 23.7 36.7 23.55 36.65 23.5 36.65 23.55 36.55 23.6 36.5 23.55 Q36.2 19.25 36.25 15.0 L36.25 12.9 36.3 12.7 36.35 12.55 36.45 12.5 36.5 12.45 36.55 12.5 36.6 12.5 36.65 12.45 36.7 12.35 36.8 12.25 38.05 12.25 38.15 12.25 38.6 12.25 39.15 12.25 39.15 12.35" fill="#ffffff" fill-rule="evenodd" stroke="none"/>
    <path d="M22.15 4.45 L22.25 4.55 22.3 4.6 22.3 4.7 22.35 4.8 22.35 5.3 22.35 5.85 22.35 6.3 22.4 6.4 22.45 6.5 22.45 7.25 22.45 8.0 22.45 8.55 22.45 8.65 22.5 8.75 22.55 14.45 22.55 20.3 22.55 23.55 22.55 23.65 22.5 23.75 22.45 24.3 22.45 24.85 22.4 25.35 22.35 25.45 22.3 25.55 22.1 25.6 21.85 25.55 21.8 25.45 21.75 25.35 21.7 24.8 21.7 24.2 21.7 23.75 21.65 23.65 21.6 23.55 21.65 17.75 21.65 11.85 21.7 8.65 21.7 8.55 21.75 8.45 21.75 7.7 21.75 6.95 21.75 6.4 21.8 6.3 21.8 6.2 21.8 5.55 21.8 4.8 Q21.85 4.45 22.15 4.45" fill="#ffffff" fill-rule="evenodd" stroke="none"/>
    <path d="M48.55 24.95 L48.6 25.05 48.65 25.15 48.65 25.25 48.65 25.35 48.6 25.45 48.55 25.55 48.45 25.6 48.25 25.65 Q35.15 25.85 22.1 25.6 L21.6 25.55 21.55 25.45 21.5 25.35 21.45 25.3 21.45 25.2 21.5 25.1 21.55 25.0 21.6 24.95 21.7 24.9 Q24.45 24.65 27.25 24.8 L48.0 24.85 48.45 24.85 48.55 24.95" fill="#ffffff" fill-rule="evenodd" stroke="none"/>
    <path d="M-50.8 10.05 L-50.8 9.95 -50.8 9.85 -50.75 9.8 -50.7 9.7 -50.6 9.6 -50.5 9.55 -50.3 9.5 -48.3 9.5 -48.3 9.45 -44.8 9.45 -42.55 9.45 -42.3 9.55 -42.2 9.6 -42.1 9.7 -42.1 9.8 -42.05 9.9 -42.0 10.0 -42.05 10.1 -42.1 10.2 -42.1 10.3 -42.2 10.35 -42.3 10.45 -42.55 10.55 -43.45 10.55 -50.3 10.5 -50.55 10.45 -50.7 10.35 -50.75 10.25 -50.75 10.15 -50.8 10.05" fill="#ffffff" fill-rule="evenodd" stroke="none"/>
    <path d="M-50.7 15.4 L-50.65 15.3 -50.6 15.25 -50.5 15.15 -50.3 15.1 -50.3 15.05 -50.1 15.15 -50.0 15.2 -49.9 15.2 -49.45 15.15 -44.8 15.05 -44.55 15.15 -44.45 15.2 -44.35 15.3 -44.35 15.4 -44.3 15.5 -44.25 15.6 -44.3 15.7 -44.35 15.8 -44.35 15.9 -44.45 15.95 -44.55 16.05 -44.8 16.15 -49.5 16.05 -49.65 16.1 -49.8 16.15 -50.0 16.05 -50.35 15.9 -50.5 15.8 -50.6 15.7 -50.65 15.6 -50.7 15.5 -50.7 15.4" fill="#ffffff" fill-rule="evenodd" stroke="none"/>
    <path d="M-50.35 20.85 L-50.2 20.85 -50.1 20.85 -45.95 20.6 -43.05 20.6 -41.85 20.75 -41.7 20.85 -41.65 20.95 -41.6 21.0 -41.6 21.1 -41.6 21.2 -41.6 21.3 -41.7 21.4 -41.75 21.5 -41.85 21.55 -41.9 21.55 Q-45.8 21.85 -49.75 21.6 L-49.9 21.6 -50.05 21.65 -50.2 21.6 -50.3 21.6 -50.5 21.5 -50.6 21.45 -50.7 21.35 -50.85 21.3 -50.9 21.2 -50.95 21.1 -50.9 21.05 -50.85 20.95 -50.65 20.9 -50.45 20.85 -50.35 20.85" fill="#ffffff" fill-rule="evenodd" stroke="none"/>
    <path d="M-36.55 9.25 L-33.3 9.15 -24.95 9.15 -24.7 9.2 -24.6 9.3 -24.5 9.4 -24.45 9.45 -24.45 9.55 -24.4 9.65 -24.4 9.75 -24.45 9.85 -24.45 9.95 -24.55 10.05 -24.6 10.1 -24.7 10.2 -24.75 10.2 -36.75 10.2 -36.95 10.3 -37.15 10.2 -37.4 10.15 -37.7 10.05 -37.75 9.95 -37.85 9.85 -37.85 9.75 -37.85 9.65 -37.85 9.55 -37.8 9.5 -37.7 9.4 -37.6 9.3 -37.45 9.3 -37.3 9.25 -37.1 9.3 -36.85 9.3 -36.7 9.25 -36.55 9.25" fill="#ffffff" fill-rule="evenodd" stroke="none"/>
    <path d="M-37.35 14.95 L-32.35 14.8 -27.1 14.75 -25.35 14.95 -25.25 15.05 -25.2 15.15 -25.15 15.25 -25.1 15.35 -25.1 15.45 -25.1 15.55 -25.15 15.65 -25.2 15.7 -25.25 15.8 -25.35 15.9 -25.6 15.95 Q-31.6 16.35 -37.6 15.9 L-37.75 15.8 -37.8 15.7 -37.85 15.6 -37.85 15.5 -37.85 15.4 -37.85 15.3 -37.8 15.25 -37.75 15.15 -37.65 15.05 -37.55 14.95 -37.35 14.95" fill="#ffffff" fill-rule="evenodd" stroke="none"/>
    <path d="M-37.2 20.8 L-31.7 20.65 -25.95 20.65 -24.95 20.7 -24.85 20.8 -24.8 20.9 -24.75 21.0 -24.7 21.1 -24.7 21.2 -24.7 21.3 -24.75 21.4 -24.8 21.45 -24.85 21.55 -24.95 21.65 -25.2 21.7 Q-31.35 21.95 -37.45 21.55 L-37.55 21.45 -37.6 21.4 -37.65 21.3 -37.65 21.2 -37.65 21.1 -37.6 21.0 -37.55 20.9 -37.45 20.8 -37.2 20.8" fill="#ffffff" fill-rule="evenodd" stroke="none"/>
  </g>
</svg>
