<?xml version="1.0" encoding="UTF-8" standalone="no"?>
<svg xmlns:xlink="http://www.w3.org/1999/xlink" height="52.85px" width="99.6px" xmlns="http://www.w3.org/2000/svg">
  <g transform="matrix(1.0, 0.0, 0.0, 1.0, 50.95, 27.1)">
    <path d="M-50.4 -26.25 L-50.5 -26.35 -50.55 -26.45 -50.55 -26.5 -50.5 -26.6 -50.45 -26.7 -50.35 -26.75 Q-38.7 -27.2 -27.1 -27.1 L-26.1 -27.1 -24.95 -27.05 -24.7 -27.0 -24.6 -26.9 -24.5 -26.8 -24.45 -26.7 -24.45 -26.6 -24.4 -26.5 -24.4 -26.45 -24.45 -26.35 -24.45 -26.25 -24.55 -26.15 -24.65 -26.05 -24.7 -26.0 Q-37.45 -25.75 -50.2 -26.2 L-50.4 -26.25" fill="#ffffff" fill-rule="evenodd" stroke="none"/>
    <path d="M-50.55 -26.4 L-50.45 -26.5 -50.35 -26.55 -50.3 -26.55 -50.15 -26.45 -50.05 -26.35 -50.05 -26.25 -50.05 -26.1 -49.95 -25.9 -49.95 -25.8 -49.9 -24.95 -49.85 -24.0 -49.9 -23.35 -49.9 -23.25 -50.0 -23.2 -50.05 -23.1 -50.15 -23.0 -50.35 -23.0 -50.6 -23.05 -50.7 -23.15 -50.8 -23.25 -50.8 -23.35 -50.85 -24.2 -50.8 -25.1 -50.75 -25.85 -50.7 -25.95 -50.7 -26.05 -50.65 -26.15 -50.65 -26.25 -50.6 -26.35 -50.55 -26.4" fill="#ffffff" fill-rule="evenodd" stroke="none"/>
    <path d="M-49.4 -23.55 L-27.95 -23.7 -25.6 -23.65 -25.0 -23.55 -24.85 -23.45 -24.8 -23.35 -24.8 -23.25 -24.75 -23.2 -24.75 -23.1 -24.8 -23.0 -24.85 -22.9 -24.9 -22.8 -25.0 -22.75 -25.6 -22.65 -49.2 -22.7 -49.25 -22.7 -49.45 -22.65 -49.7 -22.6 -49.95 -22.65 -50.45 -22.85 -50.55 -22.95 -50.6 -23.05 -50.6 -23.1 -50.6 -23.2 -50.55 -23.3 -50.5 -23.4 -50.4 -23.5 -50.2 -23.55 -50.1 -23.55 -49.9 -23.5 -49.7 -23.45 -49.5 -23.5 -49.4 -23.55" fill="#ffffff" fill-rule="evenodd" stroke="none"/>
    <path d="M-25.55 -25.85 L-25.45 -26.75 -25.4 -26.85 -25.3 -26.95 -25.15 -27.0 -25.1 -27.0 -24.95 -26.95 -24.85 -26.85 -24.7 -25.8 -24.65 -24.6 -24.6 -23.65 -24.65 -23.55 -24.7 -23.45 -24.75 -23.35 -24.8 -23.25 -24.85 -23.2 -24.95 -23.2 -25.1 -23.15 -25.35 -23.2 -25.5 -23.3 -25.55 -23.4 -25.6 -23.5 -25.65 -24.6 -25.55 -25.85" fill="#ffffff" fill-rule="evenodd" stroke="none"/>
    <path d="M-50.3 -26.55 L-24.8 -26.55 -24.8 -23.25 -50.3 -23.25 -50.3 -26.55" fill="#ffffff" fill-rule="evenodd" stroke="none"/>
    <path d="M-48.35 -16.2 L-38.6 -16.4 -33.45 -16.4 -33.2 -16.35 -33.05 -16.25 -32.95 -16.15 -32.85 -16.1 -32.8 -16.0 -32.8 -15.9 -32.8 -15.8 -32.8 -15.7 -32.8 -15.6 -32.85 -15.5 -32.95 -15.4 -33.05 -15.35 -33.2 -15.25 -33.45 -15.15 -48.1 -15.35 -48.5 -15.4 -50.1 -15.45 -50.35 -15.5 -50.45 -15.6 -50.5 -15.7 -50.55 -15.8 -50.5 -15.9 -50.45 -16.0 -50.35 -16.1 -50.1 -16.15 -48.5 -16.15 -48.35 -16.2" fill="#ffffff" fill-rule="evenodd" stroke="none"/>
    <path d="M-50.15 -13.0 L-50.1 -13.1 -50.05 -13.15 -49.95 -13.25 -49.7 -13.35 -47.05 -13.35 -46.9 -13.4 -42.6 -13.5 -40.45 -13.5 -40.2 -13.4 -40.05 -13.35 -40.0 -13.25 -39.95 -13.15 -39.9 -13.05 -39.9 -12.95 -39.9 -12.85 -39.9 -12.75 -39.95 -12.65 -39.95 -12.6 -40.05 -12.5 -40.15 -12.4 -40.3 -12.35 -46.7 -12.4 -47.05 -12.4 -49.7 -12.45 -49.95 -12.5 -50.05 -12.6 -50.1 -12.7 -50.15 -12.8 -50.15 -12.9 -50.15 -13.0" fill="#ffffff" fill-rule="evenodd" stroke="none"/>
    <path d="M-50.15 -18.7 L-50.1 -18.8 -50.05 -18.85 -49.95 -18.95 -49.7 -19.05 -46.75 -19.05 -46.6 -19.1 -41.9 -19.2 -39.55 -19.2 -39.25 -19.1 -39.1 -19.05 -39.05 -18.95 -39.0 -18.85 -38.9 -18.75 -38.9 -18.65 -38.9 -18.55 -38.9 -18.45 -39.0 -18.35 -39.0 -18.3 -39.1 -18.2 -39.2 -18.1 -39.35 -18.05 -46.4 -18.1 -46.75 -18.1 -49.7 -18.15 -49.95 -18.2 -50.05 -18.3 -50.1 -18.4 -50.15 -18.5 -50.15 -18.6 -50.15 -18.7" fill="#ffffff" fill-rule="evenodd" stroke="none"/>
    <path d="M35.15 18.45 Q35.35 20.9 35.1 23.35 L35.15 23.4 35.15 23.7 35.1 23.7 34.3 23.75 33.5 23.7 32.85 23.7 32.75 23.7 32.7 23.6 32.65 23.6 32.55 23.65 32.5 23.6 Q32.2 21.65 32.25 19.7 L32.25 18.7 32.3 18.6 32.35 18.55 32.45 18.5 32.5 18.5 32.55 18.5 32.6 18.5 32.65 18.5 32.7 18.45 32.8 18.4 34.05 18.4 34.15 18.4 34.6 18.4 35.15 18.4 35.15 18.45" fill="#ffffff" fill-rule="evenodd" stroke="none"/>
    <path d="M31.15 12.8 L31.1 22.9 31.15 23.0 31.15 23.6 31.1 23.65 30.3 23.75 29.5 23.65 28.85 23.6 28.75 23.6 28.7 23.5 28.65 23.4 28.65 23.5 28.55 23.55 28.5 23.5 Q28.2 19.4 28.25 15.35 L28.25 13.3 28.3 13.15 28.35 13.0 28.45 12.95 28.5 12.9 28.55 12.95 28.6 12.95 28.65 12.9 28.7 12.8 28.8 12.7 30.05 12.7 30.15 12.7 30.6 12.7 31.15 12.7 31.15 12.8" fill="#ffffff" fill-rule="evenodd" stroke="none"/>
    <path d="M27.15 15.3 L27.1 23.15 27.15 23.2 27.15 23.7 27.1 23.75 26.3 23.8 25.5 23.75 24.85 23.7 24.75 23.7 24.7 23.6 24.65 23.55 24.65 23.6 24.55 23.65 24.5 23.6 Q24.2 20.4 24.25 17.25 L24.25 15.7 24.3 15.55 24.35 15.45 24.45 15.4 24.5 15.35 24.55 15.4 24.6 15.4 24.65 15.35 24.7 15.3 24.8 15.2 26.05 15.2 26.15 15.2 26.6 15.2 27.15 15.2 27.15 15.3" fill="#ffffff" fill-rule="evenodd" stroke="none"/>
    <path d="M39.15 15.8 Q39.35 19.5 39.1 23.2 L39.15 23.25 39.15 23.7 39.1 23.75 38.3 23.8 37.5 23.75 36.85 23.7 36.75 23.7 36.7 23.6 36.65 23.55 36.65 23.6 36.55 23.65 36.5 23.6 Q36.2 20.6 36.25 17.65 L36.25 16.15 36.3 16.0 36.35 15.9 36.45 15.85 36.5 15.8 36.55 15.85 36.6 15.85 36.65 15.8 36.7 15.8 36.8 15.7 38.05 15.7 38.15 15.7 38.6 15.7 39.15 15.7 39.15 15.8" fill="#ffffff" fill-rule="evenodd" stroke="none"/>
    <path d="M22.15 4.45 L22.25 4.55 22.3 4.6 22.3 4.7 22.35 4.8 22.35 5.3 22.35 5.85 22.35 6.3 22.4 6.4 22.45 6.5 22.45 7.25 22.45 8.0 22.45 8.55 22.45 8.65 22.5 8.75 22.55 14.45 22.55 20.3 22.55 23.55 22.55 23.65 22.5 23.75 22.45 24.3 22.45 24.85 22.4 25.35 22.35 25.45 22.3 25.55 22.1 25.6 21.85 25.55 21.8 25.45 21.75 25.35 21.7 24.8 21.7 24.2 21.7 23.75 21.65 23.65 21.6 23.55 21.65 17.75 21.65 11.85 21.7 8.65 21.7 8.55 21.75 8.45 21.75 7.7 21.75 6.95 21.75 6.4 21.8 6.3 21.8 6.2 21.8 5.55 21.8 4.8 Q21.85 4.45 22.15 4.45" fill="#ffffff" fill-rule="evenodd" stroke="none"/>
    <path d="M48.55 24.95 L48.6 25.05 48.65 25.15 48.65 25.25 48.65 25.35 48.6 25.45 48.55 25.55 48.45 25.6 48.25 25.65 Q35.15 25.85 22.1 25.6 L21.6 25.55 21.55 25.45 21.5 25.35 21.45 25.3 21.45 25.2 21.5 25.1 21.55 25.0 21.6 24.95 21.7 24.9 Q24.45 24.65 27.25 24.8 L48.0 24.85 48.45 24.85 48.55 24.95" fill="#ffffff" fill-rule="evenodd" stroke="none"/>
    <path d="M-50.8 13.05 L-50.8 12.95 -50.8 12.85 -50.75 12.8 -50.7 12.7 -50.6 12.6 -50.5 12.55 -50.3 12.5 -48.3 12.5 -48.3 12.45 -44.8 12.45 -42.55 12.45 -42.3 12.55 -42.2 12.6 -42.1 12.7 -42.1 12.8 -42.05 12.9 -42.0 13.0 -42.05 13.1 -42.1 13.2 -42.1 13.3 -42.2 13.35 -42.3 13.45 -42.55 13.55 -43.45 13.55 -50.3 13.5 -50.55 13.45 -50.7 13.35 -50.75 13.25 -50.75 13.15 -50.8 13.05" fill="#ffffff" fill-rule="evenodd" stroke="none"/>
    <path d="M-50.7 18.4 L-50.65 18.3 -50.6 18.25 -50.5 18.15 -50.3 18.1 -50.3 18.05 -50.1 18.15 -50.0 18.2 -49.9 18.2 -49.45 18.15 -44.8 18.05 -44.55 18.15 -44.45 18.2 -44.35 18.3 -44.35 18.4 -44.3 18.5 -44.25 18.6 -44.3 18.7 -44.35 18.8 -44.35 18.9 -44.45 18.95 -44.55 19.05 -44.8 19.15 -49.5 19.05 -49.65 19.1 -49.8 19.15 -50.0 19.05 -50.35 18.9 -50.5 18.8 -50.6 18.7 -50.65 18.6 -50.7 18.5 -50.7 18.4" fill="#ffffff" fill-rule="evenodd" stroke="none"/>
    <path d="M-50.35 23.85 L-50.2 23.85 -50.1 23.85 -45.95 23.6 -43.05 23.6 -41.85 23.75 -41.7 23.85 -41.65 23.95 -41.6 24.0 -41.6 24.1 -41.6 24.2 -41.6 24.3 -41.7 24.4 -41.75 24.5 -41.85 24.55 -41.9 24.55 Q-45.8 24.85 -49.75 24.6 L-49.9 24.6 -50.05 24.65 -50.2 24.6 -50.3 24.6 -50.5 24.5 -50.6 24.45 -50.7 24.35 -50.85 24.3 -50.9 24.2 -50.95 24.1 -50.9 24.05 -50.85 23.95 -50.65 23.9 -50.45 23.85 -50.35 23.85" fill="#ffffff" fill-rule="evenodd" stroke="none"/>
    <path d="M-36.55 12.25 L-33.3 12.15 -24.95 12.15 -24.7 12.2 -24.6 12.3 -24.5 12.4 -24.45 12.45 -24.45 12.55 -24.4 12.65 -24.4 12.75 -24.45 12.85 -24.45 12.95 -24.55 13.05 -24.6 13.1 -24.7 13.2 -24.75 13.2 -36.75 13.2 -36.95 13.3 -37.15 13.2 -37.4 13.15 -37.7 13.05 -37.75 12.95 -37.85 12.85 -37.85 12.75 -37.85 12.65 -37.85 12.55 -37.8 12.5 -37.7 12.4 -37.6 12.3 -37.45 12.3 -37.3 12.25 -37.1 12.3 -36.85 12.3 -36.7 12.25 -36.55 12.25" fill="#ffffff" fill-rule="evenodd" stroke="none"/>
    <path d="M-37.35 17.95 L-32.35 17.8 -27.1 17.75 -25.35 17.95 -25.25 18.05 -25.2 18.15 -25.15 18.25 -25.1 18.35 -25.1 18.45 -25.1 18.55 -25.15 18.65 -25.2 18.7 -25.25 18.8 -25.35 18.9 -25.6 18.95 Q-31.6 19.35 -37.6 18.9 L-37.75 18.8 -37.8 18.7 -37.85 18.6 -37.85 18.5 -37.85 18.4 -37.85 18.3 -37.8 18.25 -37.75 18.15 -37.65 18.05 -37.55 17.95 -37.35 17.95" fill="#ffffff" fill-rule="evenodd" stroke="none"/>
    <path d="M-37.2 23.8 L-31.7 23.65 -25.95 23.65 -24.95 23.7 -24.85 23.8 -24.8 23.9 -24.75 24.0 -24.7 24.1 -24.7 24.2 -24.7 24.3 -24.75 24.4 -24.8 24.45 -24.85 24.55 -24.95 24.65 -25.2 24.7 Q-31.35 24.95 -37.45 24.55 L-37.55 24.45 -37.6 24.4 -37.65 24.3 -37.65 24.2 -37.65 24.1 -37.6 24.0 -37.55 23.9 -37.45 23.8 -37.2 23.8" fill="#ffffff" fill-rule="evenodd" stroke="none"/>
    <path d="M-50.7 7.4 L-50.65 7.3 -50.6 7.25 -50.5 7.15 -50.3 7.1 -50.3 7.05 -50.1 7.15 -50.0 7.2 -49.9 7.2 -49.45 7.15 -44.8 7.05 -44.55 7.15 -44.45 7.2 -44.35 7.3 -44.35 7.4 -44.3 7.5 -44.25 7.6 -44.3 7.7 -44.35 7.8 -44.35 7.9 -44.45 7.95 -44.55 8.05 -44.8 8.15 -49.5 8.05 -49.65 8.1 -49.8 8.15 -50.0 8.05 -50.35 7.9 -50.5 7.8 -50.6 7.7 -50.65 7.6 -50.7 7.5 -50.7 7.4" fill="#ffffff" fill-rule="evenodd" stroke="none"/>
    <path d="M-37.35 6.95 L-32.35 6.8 -27.1 6.75 -25.35 6.95 -25.25 7.05 -25.2 7.15 -25.15 7.25 -25.1 7.35 -25.1 7.45 -25.1 7.55 -25.15 7.65 -25.2 7.7 -25.25 7.8 -25.35 7.9 -25.6 7.95 Q-31.6 8.35 -37.6 7.9 L-37.75 7.8 -37.8 7.7 -37.85 7.6 -37.85 7.5 -37.85 7.4 -37.85 7.3 -37.8 7.25 -37.75 7.15 -37.65 7.05 -37.55 6.95 -37.35 6.95" fill="#ffffff" fill-rule="evenodd" stroke="none"/>
  </g>
</svg>
