<?xml version="1.0" encoding="UTF-8" standalone="no"?>
<svg xmlns:xlink="http://www.w3.org/1999/xlink" height="76.6px" width="173.6px" xmlns="http://www.w3.org/2000/svg">
  <g transform="matrix(1.0, 0.0, 0.0, 1.0, 53.4, -107.5)">
    <path d="M120.2 107.5 L120.2 184.1 -53.4 184.1 -53.4 107.5 120.2 107.5" fill="#ffffff" fill-rule="evenodd" stroke="none"/>
    <path d="M15.55 142.55 L47.25 142.55 47.25 163.75 15.55 163.75 15.55 142.55" fill="#93c7b7" fill-rule="evenodd" stroke="none"/>
    <path d="M43.95 142.7 L45.55 142.75 46.7 142.75 47.25 142.55 47.3 144.1 47.45 145.75 47.4 147.15 47.1 148.55 47.0 150.15 47.15 151.55 47.2 153.0 47.25 154.55 47.3 156.15 47.3 157.6 47.45 159.1 47.5 160.55 47.35 162.1 47.2 163.45 Q47.15 163.75 47.25 163.75 L45.65 163.75 44.25 163.55 Q43.5 163.4 42.55 163.55 L41.1 163.9 39.9 163.8 38.45 163.55 36.8 163.6 35.2 163.65 33.8 163.6 Q33.25 163.45 32.2 163.6 L30.6 163.7 29.15 163.7 27.6 163.7 26.15 163.7 24.7 163.7 23.35 163.75 21.85 163.7 20.25 163.65 18.95 163.75 17.55 163.85 16.35 164.0 15.55 163.75 15.6 162.2 15.4 160.85 15.3 159.35 15.5 157.7 15.65 156.3 15.45 154.9 Q15.3 154.15 15.3 153.2 L15.45 151.65 15.5 150.3 15.6 148.65 15.6 147.15 Q15.45 146.5 15.65 145.75 L15.7 144.25 15.55 143.05 15.55 142.55 17.0 142.75 18.4 142.6 19.8 142.45 21.3 142.35 22.95 142.45 24.5 142.6 26.0 142.3 27.55 142.2 29.05 142.45 30.5 142.5 32.15 142.45 33.65 142.7 35.1 142.55 36.75 142.5 38.25 142.75 39.65 142.75 40.95 142.75 42.3 142.7 43.95 142.7 Z" fill="none" stroke="#93c7b7" stroke-linecap="round" stroke-linejoin="round" stroke-width="1.0"/>
    <path d="M44.25 138.2 L44.25 146.1 Q44.25 151.4 40.5 155.25 36.7 159.0 31.45 159.0 26.05 159.0 22.3 155.25 18.55 151.4 18.55 146.1 L18.55 138.2 Q18.55 132.95 22.3 129.1 26.05 125.35 31.45 125.35 36.7 125.35 40.5 129.1 44.25 132.95 44.25 138.2 M39.15 138.2 Q39.15 135.05 36.9 132.75 34.6 130.45 31.45 130.45 28.25 130.45 25.95 132.75 23.65 135.05 23.65 138.2 L23.65 146.1 Q23.65 149.3 25.95 151.6 28.25 153.9 31.45 153.9 34.6 153.9 36.9 151.6 39.15 149.3 39.15 146.1 L39.15 138.2" fill="#93c7b7" fill-rule="evenodd" stroke="none"/>
    <path d="M36.85 126.45 Q36.3 125.95 35.6 125.85 L34.15 125.7 33.0 125.45 31.45 125.35 30.1 125.45 28.6 125.7 27.2 126.05 25.85 126.65 Q25.0 127.0 24.35 127.5 L23.55 128.1 22.3 129.1 21.3 130.1 Q20.8 130.65 20.4 131.35 L19.7 132.75 19.3 134.25 19.0 135.7 18.65 136.9 18.55 138.2 Q18.15 138.95 18.35 139.85 L18.4 141.4 Q18.25 142.0 18.4 142.75 L18.55 144.25 18.55 145.45 18.55 146.1 Q18.95 146.85 18.85 147.75 18.75 148.65 18.9 149.35 L19.35 150.75 20.05 151.95 20.65 153.15 Q20.85 153.85 21.25 154.05 L22.3 155.25 Q23.1 155.45 23.55 156.05 L24.5 157.05 Q24.95 157.55 25.75 157.65 26.6 157.8 27.35 158.3 28.1 158.8 28.85 158.8 L29.95 158.9 31.45 159.0 32.95 158.9 34.45 158.65 35.9 158.35 Q36.6 158.3 37.3 157.7 L38.4 156.95 39.3 156.3 40.5 155.25 Q41.3 155.0 41.65 154.2 L42.4 152.85 42.85 151.65 Q42.9 151.0 43.4 150.4 43.9 149.85 44.0 148.95 L44.1 147.65 44.25 146.1 44.25 144.7 44.25 142.95 44.25 141.55 44.25 140.15 Q44.25 139.15 44.4 138.8 44.55 138.45 44.25 138.2 L44.1 136.6 43.8 135.05 43.35 133.7 42.9 132.65 Q42.55 132.15 42.3 131.25 L41.7 130.1 40.5 129.1 39.45 128.1 Q39.0 127.4 38.2 127.15 L36.85 126.45 M38.4 135.25 L38.7 136.35 39.15 138.2 39.15 139.6 39.05 141.0 39.05 142.6 39.15 144.4 Q39.15 145.35 39.3 145.45 39.5 145.6 39.15 146.1 L39.0 147.65 Q39.0 148.3 38.6 149.0 38.25 149.75 38.25 150.2 38.25 150.7 36.9 151.6 L35.55 152.25 34.15 152.95 32.65 153.45 Q31.9 153.6 31.7 153.9 31.45 154.2 31.45 153.9 L29.8 153.65 28.4 153.45 Q27.85 153.3 27.2 152.75 L26.3 151.9 25.95 151.6 24.85 150.25 24.05 148.95 Q23.75 148.35 23.6 147.55 23.4 146.8 23.5 146.7 L23.65 146.1 23.7 144.55 23.65 143.05 23.85 141.75 Q24.05 141.1 23.8 140.35 L23.6 139.0 23.65 138.2 23.75 136.8 24.1 135.25 Q24.35 134.5 24.85 134.0 L25.55 133.15 25.95 132.75 27.15 131.85 28.25 131.15 Q28.85 130.75 29.25 130.7 L31.45 130.45 32.85 130.55 34.2 131.1 35.65 132.0 36.6 132.5 Q36.85 132.4 36.9 132.75 37.05 133.45 37.65 134.0 38.3 134.55 38.4 135.25 Z" fill="none" stroke="#93c7b7" stroke-linecap="round" stroke-linejoin="round" stroke-width="1.0"/>
    <path d="M34.35 151.7 Q34.35 152.9 33.45 153.8 32.65 154.7 31.45 154.7 30.2 154.7 29.3 153.8 28.45 152.95 28.45 151.7 28.45 150.45 29.3 149.65 30.2 148.75 31.45 148.75 32.65 148.75 33.45 149.65 34.35 150.45 34.35 151.7" fill="#ffffff" fill-rule="evenodd" stroke="none"/>
    <path d="M28.05 158.95 L31.45 151.7 34.75 158.95 28.05 158.95" fill="#ffffff" fill-rule="evenodd" stroke="none"/>
  </g>
</svg>
