<?xml version="1.0" encoding="UTF-8" standalone="no"?>
<svg xmlns:xlink="http://www.w3.org/1999/xlink" height="76.6px" width="173.6px" xmlns="http://www.w3.org/2000/svg">
  <g transform="matrix(1.0, 0.0, 0.0, 1.0, 53.4, -107.5)">
    <path d="M120.2 107.5 L120.2 184.1 -53.4 184.1 -53.4 107.5 120.2 107.5" fill="#ffffff" fill-rule="evenodd" stroke="none"/>
    <path d="M15.55 132.55 L47.25 132.55 47.25 153.75 15.55 153.75 15.55 132.55" fill="#93c7b7" fill-rule="evenodd" stroke="none"/>
    <path d="M43.95 132.7 L45.55 132.75 46.7 132.75 47.25 132.55 47.3 134.1 47.45 135.75 47.4 137.15 47.1 138.55 47.0 140.15 47.15 141.55 47.2 143.0 47.25 144.55 47.3 146.15 47.3 147.6 47.45 149.1 47.5 150.55 47.35 152.1 47.2 153.45 Q47.15 153.75 47.25 153.75 L45.65 153.75 44.25 153.55 Q43.5 153.4 42.55 153.55 L41.1 153.9 39.9 153.8 38.45 153.55 36.8 153.6 35.2 153.65 33.8 153.6 Q33.25 153.45 32.2 153.6 L30.6 153.7 29.15 153.7 27.6 153.7 26.15 153.7 24.7 153.7 23.35 153.75 21.85 153.7 20.25 153.65 18.95 153.75 17.55 153.85 16.35 154.0 15.55 153.75 15.6 152.2 15.4 150.85 15.3 149.35 15.5 147.7 15.65 146.3 15.45 144.9 Q15.3 144.15 15.3 143.2 L15.45 141.65 15.5 140.3 15.6 138.65 15.6 137.15 Q15.45 136.5 15.65 135.75 L15.7 134.25 15.55 133.05 15.55 132.55 17.0 132.75 18.4 132.6 19.8 132.45 21.3 132.35 22.95 132.45 24.5 132.6 26.0 132.3 27.55 132.2 29.05 132.45 30.5 132.5 32.15 132.45 33.65 132.7 35.1 132.55 36.75 132.5 38.25 132.75 39.65 132.75 40.95 132.75 42.3 132.7 43.95 132.7 Z" fill="none" stroke="#93c7b7" stroke-linecap="round" stroke-linejoin="round" stroke-width="1.0"/>
    <path d="M40.5 145.25 Q36.7 149.0 31.45 149.0 26.05 149.0 22.3 145.25 18.55 141.4 18.55 136.1 L18.55 128.2 Q18.55 122.95 22.3 119.1 26.05 115.35 31.45 115.35 36.7 115.35 40.5 119.1 44.25 122.95 44.25 128.2 L44.25 136.1 Q44.25 141.4 40.5 145.25 M25.95 122.75 Q23.65 125.05 23.65 128.2 L23.65 136.1 Q23.65 139.3 25.95 141.6 28.25 143.9 31.45 143.9 34.6 143.9 36.9 141.6 39.15 139.3 39.15 136.1 L39.15 128.2 Q39.15 125.05 36.9 122.75 34.6 120.45 31.45 120.45 28.25 120.45 25.95 122.75" fill="#93c7b7" fill-rule="evenodd" stroke="none"/>
    <path d="M40.5 119.1 Q39.9 118.15 39.0 117.7 L37.4 116.8 Q36.7 116.35 35.8 116.0 L34.2 115.6 31.45 115.35 29.55 115.45 27.5 115.95 25.5 116.7 Q24.55 117.15 24.05 117.75 L23.15 118.55 22.3 119.1 Q21.45 120.1 21.1 121.05 L20.4 122.4 Q20.0 122.85 19.65 123.85 L19.05 125.45 Q18.75 126.05 18.55 128.2 L18.35 130.15 18.35 132.2 18.45 133.7 18.55 136.1 Q19.05 136.8 18.95 138.1 18.9 139.45 19.15 140.4 19.45 141.35 19.9 142.15 L21.15 143.75 22.25 144.9 22.3 145.25 24.15 146.8 25.8 148.0 Q26.6 148.45 27.55 148.35 L28.95 148.55 31.45 149.0 33.5 148.9 35.4 148.65 37.25 147.65 Q38.15 147.0 38.6 146.75 39.1 146.5 40.5 145.25 L41.8 143.85 Q42.3 143.35 42.6 142.35 L43.35 140.15 43.95 137.9 44.15 136.6 44.25 136.1 44.35 134.15 Q44.45 133.1 44.15 132.1 L43.9 130.5 Q43.9 129.95 44.25 128.2 L44.0 126.0 Q43.9 125.25 43.4 124.55 L42.5 122.95 41.65 121.0 Q41.25 119.9 40.9 119.55 L40.5 119.1 M27.65 121.45 Q28.6 120.85 29.1 120.8 L31.45 120.45 33.45 120.8 Q34.45 121.1 35.25 121.5 L36.6 122.25 Q37.1 122.55 36.9 122.75 L37.9 124.35 Q38.45 125.2 38.4 125.75 38.4 126.3 39.15 128.2 39.45 129.35 39.35 130.25 L39.1 132.2 39.05 133.95 39.15 136.1 38.75 137.9 38.45 139.55 Q38.4 140.2 36.9 141.6 36.1 141.7 35.2 142.25 L33.95 143.3 Q33.6 143.8 31.45 143.9 L29.2 143.65 Q28.4 143.25 27.65 142.65 26.95 142.1 26.35 142.05 25.8 142.0 25.95 141.6 L24.75 139.45 24.15 138.45 23.65 136.1 23.9 134.25 Q24.15 133.1 23.9 132.1 L23.5 130.5 Q23.35 129.95 23.65 128.2 23.55 127.2 23.8 126.2 L24.6 124.45 25.4 123.3 25.95 122.75 27.65 121.45 Z" fill="none" stroke="#93c7b7" stroke-linecap="round" stroke-linejoin="round" stroke-width="1.0"/>
    <path d="M34.35 141.7 Q34.35 142.9 33.45 143.8 32.65 144.7 31.45 144.7 30.2 144.7 29.3 143.8 28.45 142.95 28.45 141.7 28.45 140.45 29.3 139.65 30.2 138.75 31.45 138.75 32.65 138.75 33.45 139.65 34.35 140.45 34.35 141.7" fill="#ffffff" fill-rule="evenodd" stroke="none"/>
    <path d="M28.05 148.95 L31.45 141.7 34.75 148.95 28.05 148.95" fill="#ffffff" fill-rule="evenodd" stroke="none"/>
  </g>
</svg>
