<?xml version="1.0" encoding="UTF-8" standalone="no"?>
<svg xmlns:xlink="http://www.w3.org/1999/xlink" height="28.65px" width="26.1px" xmlns="http://www.w3.org/2000/svg">
  <g transform="matrix(1.0, 0.0, 0.0, 1.0, 11.05, 14.0)">
    <path d="M13.9 -12.5 L14.25 -12.3 14.6 -12.15 14.8 -11.85 14.95 -11.5 14.9 -11.25 14.5 -10.5 14.6 -10.4 14.95 -10.3 15.05 -10.3 15.05 -7.9 14.8 -7.9 14.5 -7.9 14.15 -7.9 Q13.7 -7.45 13.7 -6.75 L13.8 12.25 13.45 12.5 13.1 12.65 12.85 12.75 12.1 12.85 11.85 12.85 11.5 12.85 11.15 13.0 10.8 13.05 10.5 13.1 8.55 13.1 7.5 13.1 7.4 13.1 6.9 13.1 6.7 13.1 6.5 13.1 5.0 13.1 4.8 13.05 4.65 13.0 4.25 12.85 3.7 12.85 2.55 12.85 2.2 12.85 2.0 12.8 1.8 12.75 1.45 12.6 0.9 12.6 -0.25 12.6 -0.45 12.6 -0.6 12.55 -0.8 12.5 -1.0 12.35 -1.95 12.35 -3.25 12.35 -3.45 12.35 -3.6 12.35 -3.8 12.35 -4.0 12.3 -4.2 12.25 -4.35 12.2 -4.55 12.0 -4.95 11.4 -5.1 11.2 -5.3 11.15 -5.5 11.1 -5.7 11.1 -5.85 11.05 -6.05 10.9 -6.4 10.55 -6.6 10.2 -6.8 10.0 -7.0 9.9 -7.35 9.7 -7.55 9.5 -8.1 8.95 -8.3 8.75 -8.5 8.65 -8.7 8.55 -8.85 8.45 -9.5 7.65 -10.2 6.8 -10.3 6.6 -10.3 5.6 -10.25 5.5 -10.25 5.25 -10.3 5.1 -10.35 4.75 Q-9.6 -0.1 -10.1 -5.0 L-9.75 -7.25 -9.55 -7.5 -9.2 -7.9 -9.0 -8.05 -8.8 -8.15 -8.6 -8.2 -8.45 -8.4 -8.25 -8.55 -8.05 -8.6 -7.85 -8.65 -7.7 -8.65 -7.5 -8.65 -5.7 -10.55 -5.05 -11.4 -4.85 -11.7 -4.5 -12.05 -4.3 -12.1 -4.1 -12.15 -3.95 -12.15 -3.55 -12.25 -2.8 -12.5 -2.45 -12.65 0.0 -12.65 0.2 -12.65 6.9 -12.65 7.3 -12.65 7.4 -12.65 8.55 -12.65 13.65 -12.55 13.9 -12.5" fill="#b0cedc" fill-rule="evenodd" stroke="none"/>
    <path d="M7.65 -13.25 L8.0 -13.45 8.75 -13.5 9.5 -13.5 10.25 -12.85 11.0 -12.15 11.25 -11.9 Q12.25 -1.6 11.65 9.0 L11.35 9.75 11.15 10.25 11.3 10.45 11.65 10.85 11.9 11.1 11.95 11.35 12.05 11.95 12.15 12.0 11.9 12.75 11.1 13.6 10.35 14.3 10.0 14.5 8.9 14.65 7.4 14.55 6.65 14.35 Q4.55 8.15 6.9 1.0 7.05 -5.95 7.45 -12.9 L7.65 -13.25" fill="#663366" fill-opacity="0.16078432" fill-rule="evenodd" stroke="none"/>
    <path d="M12.35 -13.85 L12.75 -13.65 13.1 -13.25 13.5 -12.5 13.6 -7.4 13.75 -6.5 13.7 10.0 Q13.65 12.1 12.25 13.35 L11.9 13.45 11.55 13.45 11.1 13.25 10.75 13.1 10.55 12.85 10.4 12.6 10.15 12.0 9.75 12.0 Q9.55 12.05 9.4 12.15 L9.0 12.35 8.65 12.5 8.25 12.6 7.9 12.6 7.5 12.6 7.15 12.6 6.75 12.5 6.4 12.35 6.05 11.95 5.8 11.6 5.65 11.0 5.95 10.15 6.25 9.75 6.65 9.5 7.0 9.4 7.4 9.35 7.75 9.2 8.15 8.85 8.5 8.5 9.25 7.75 9.45 7.45 10.85 -13.35 11.25 -14.0 11.65 -14.0 12.0 -14.0 12.35 -13.85" fill="#663366" fill-opacity="0.16078432" fill-rule="evenodd" stroke="none"/>
    <path d="M0.3 -12.95 L0.4 -13.05 0.5 -13.05 0.55 -13.05 0.65 -13.05 0.85 -13.0 0.95 -12.9 Q1.3 -8.9 1.15 -4.85 L1.15 -4.75 1.1 -4.5 1.0 -4.4 0.9 -4.3 0.8 -4.25 0.75 -4.25 0.65 -4.2 0.55 -4.2 0.45 -4.25 Q0.35 -4.25 0.25 -4.35 L0.15 -4.4 Q-0.15 -8.6 0.2 -12.8 L0.3 -12.95" fill="#663366" fill-opacity="0.16078432" fill-rule="evenodd" stroke="none"/>
    <path d="M0.7 -13.15 L0.8 -13.2 0.85 -13.2 0.95 -13.2 1.05 -13.15 1.15 -13.1 1.4 -12.1 1.35 -7.1 1.35 -4.0 1.3 -3.8 1.2 -3.65 1.1 -3.6 1.05 -3.6 0.85 -3.55 0.75 -3.55 0.65 -3.65 0.55 -3.7 0.5 -3.8 Q0.3 -8.4 0.6 -13.0 L0.7 -13.15" fill="#663366" fill-opacity="0.16078432" fill-rule="evenodd" stroke="none"/>
    <path d="M0.75 3.85 L0.85 3.95 0.9 4.0 0.95 4.1 1.0 4.3 1.05 4.5 1.0 8.4 0.9 12.7 0.8 12.85 0.7 12.9 0.65 12.95 0.55 12.95 0.45 12.95 0.35 12.95 0.25 12.85 0.15 12.8 0.1 12.7 0.05 12.5 0.1 4.0 0.2 3.9 0.3 3.8 0.4 3.75 0.5 3.75 0.55 3.8 0.65 3.8 0.75 3.85" fill="#663366" fill-opacity="0.16078432" fill-rule="evenodd" stroke="none"/>
    <path d="M1.55 4.5 L1.55 5.4 1.5 12.0 1.45 12.2 1.35 12.35 1.25 12.4 1.15 12.45 1.05 12.5 1.0 12.5 0.8 12.4 0.7 12.35 0.5 12.0 0.5 5.25 0.45 5.15 0.55 4.2 0.65 4.05 0.75 4.0 0.8 3.95 0.9 3.9 1.0 3.9 1.1 3.9 1.2 3.95 1.3 4.0 1.35 4.05 1.5 4.2 1.5 4.5 1.55 4.5" fill="#663366" fill-opacity="0.16078432" fill-rule="evenodd" stroke="none"/>
    <path d="M0.75 -13.0 L0.85 -13.0 0.85 -12.95 0.9 -12.95 1.1 -4.95 1.05 -4.75 1.05 -4.65 1.0 -4.55 0.95 -4.55 0.9 -4.5 0.85 -4.5 0.8 -4.45 0.75 -4.5 0.7 -4.5 0.65 -4.55 0.6 -4.6 0.5 -10.8 0.6 -12.8 0.75 -13.0" fill="#663366" fill-opacity="0.16078432" fill-rule="evenodd" stroke="none"/>
    <path d="M0.95 3.75 L1.0 3.8 1.1 3.9 1.1 4.05 1.15 8.0 1.0 12.15 0.95 12.2 0.9 12.2 0.9 12.25 0.75 12.25 0.7 12.2 0.65 12.2 0.6 12.15 0.55 12.1 0.55 12.05 0.5 3.9 0.6 3.8 0.65 3.75 0.95 3.75" fill="#663366" fill-opacity="0.16078432" fill-rule="evenodd" stroke="none"/>
    <path d="M3.3 -12.6 L3.7 -12.55 3.85 -12.45 4.05 -12.25 4.25 -12.0 4.45 -11.45 4.55 -11.25 4.75 -11.0 4.85 -10.5 4.9 -10.5 4.85 -10.25 4.75 -9.75 4.55 -9.5 4.05 -9.1 Q3.6 -8.85 3.05 -8.7 L2.7 -8.65 1.0 -7.45 Q0.15 -6.85 -0.85 -6.5 L-2.2 -6.5 -3.85 -6.5 -4.25 -6.5 -4.4 -6.5 -4.6 -6.4 -5.0 -6.15 -5.35 -6.0 -5.55 -6.0 -5.75 -6.0 -5.95 -6.0 -6.1 -5.85 -6.3 -5.65 Q-6.35 -4.5 -6.8 -3.45 L-7.0 -3.3 -7.2 -3.2 -7.55 -3.05 -7.75 -3.0 -7.9 -2.95 -8.15 -2.75 -8.3 -2.6 -8.5 -2.5 -9.5 -2.55 Q-10.35 -2.9 -10.85 -3.7 L-10.9 -3.9 -11.0 -4.25 -10.85 -4.8 -10.7 -5.05 -10.5 -5.25 -10.3 -5.35 -10.1 -5.45 -9.95 -5.5 -9.75 -5.5 -9.55 -5.5 -9.35 -5.5 -9.05 -5.5 Q-8.75 -7.1 -7.65 -8.2 -7.2 -8.65 -7.0 -9.25 -6.35 -9.9 -5.85 -10.7 L-5.3 -11.7 -5.1 -11.9 -4.95 -12.05 -4.75 -12.2 -4.55 -12.25 -4.35 -12.25 -4.2 -12.25 -4.0 -12.25 -3.65 -12.4 -3.05 -12.65 -2.7 -12.8 -2.5 -12.8 -2.3 -12.8 -2.1 -12.8 -1.95 -12.8 -1.75 -12.7 -1.55 -12.55 -1.35 -12.4 -1.2 -12.3 -1.0 -12.4 -0.8 -12.5 -0.6 -12.55 -0.45 -12.65 1.25 -12.65 3.3 -12.6" fill="#ffffff" fill-opacity="0.16078432" fill-rule="evenodd" stroke="none"/>
    <path d="M-9.0 -6.35 L-8.8 -6.45 -8.65 -6.45 -8.25 -6.6 -8.05 -6.7 -7.85 -6.7 -7.7 -6.7 -7.5 -6.7 -7.4 -6.65 -7.25 -7.0 -7.05 -7.25 -6.85 -7.45 -6.7 -7.55 -6.5 -7.6 -6.3 -7.65 -6.1 -7.65 -5.75 -7.6 -5.55 -7.55 -5.2 -7.25 -4.6 -6.7 -4.05 -6.15 Q-2.9 -4.35 -3.5 -2.25 L-3.7 -2.0 -3.85 -1.8 -4.05 -1.65 -4.25 -1.5 -4.45 -1.45 -4.6 -1.35 -4.7 -1.25 -4.25 0.5 -3.95 1.85 -3.75 2.1 Q-2.9 3.95 -2.6 6.0 L-2.25 8.6 -2.05 8.75 -1.85 8.95 -1.7 9.1 -1.5 9.35 -1.4 9.65 -1.35 10.0 -1.3 10.0 -1.4 11.0 -1.6 11.8 -1.8 11.95 -2.0 12.05 -2.2 12.1 -2.35 12.2 -2.55 12.2 -2.75 12.2 -2.95 12.2 -3.5 11.95 -4.85 11.05 -5.35 10.7 -5.55 10.7 -5.75 10.7 -5.95 10.7 -7.4 9.45 -9.05 7.25 Q-11.4 0.55 -9.2 -6.25 L-9.0 -6.35" fill="#ffffff" fill-opacity="0.16078432" fill-rule="evenodd" stroke="none"/>
    <path d="M-8.2 -7.25 L-8.0 -7.4 -7.75 -7.9 -7.6 -8.15 -7.45 -8.1 -7.25 -8.0 -7.1 -7.75 -7.2 -7.45 -7.1 -7.15 -7.0 -6.95 -6.95 -6.8 -6.85 -6.5 Q-8.2 0.15 -6.3 6.5 L-5.65 7.55 -4.1 9.05 Q-3.95 9.15 -3.75 9.3 L-3.0 9.8 -2.8 9.95 -2.7 10.2 -2.65 10.5 -2.6 10.5 -2.7 10.95 -2.95 11.6 -3.15 11.75 -3.5 11.85 -4.05 12.0 -4.25 12.0 -4.45 11.95 -4.6 11.85 Q-6.35 10.55 -7.55 8.7 -8.25 7.55 -9.25 6.7 -9.8 0.45 -8.85 -5.7 L-8.35 -7.15 -8.2 -7.25" fill="#ffffff" fill-opacity="0.16078432" fill-rule="evenodd" stroke="none"/>
    <path d="M13.45 -13.2 L13.8 -13.0 13.9 -12.9 13.8 -12.75 13.9 -12.55 13.8 -12.4 13.65 -12.3 13.45 -12.25 13.35 -12.25 13.0 -12.3 8.55 -12.25 7.85 -12.25 7.4 -12.25 6.9 -12.25 5.4 -12.3 5.3 -12.3 5.2 -12.35 5.15 -12.4 3.85 -12.4 -1.0 -12.4 -1.5 -12.35 -2.05 -12.4 -2.15 -12.45 -2.85 -12.45 -3.75 -12.45 -9.8 -6.2 -9.8 0.65 -9.8 4.9 -9.85 5.1 -9.85 5.15 -9.9 6.15 -7.85 8.2 -7.75 8.4 -6.85 9.3 -4.1 12.1 -1.8 12.1 0.1 12.1 0.2 12.15 0.3 12.2 2.25 12.15 3.75 12.15 4.9 12.15 6.9 12.15 7.4 12.15 7.65 12.15 7.85 12.2 8.0 12.2 8.35 12.2 8.55 12.2 8.75 12.2 8.8 12.25 11.2 12.25 11.4 12.25 11.6 12.3 11.65 12.35 11.85 12.45 12.05 12.45 12.2 12.4 12.55 12.3 12.75 12.3 12.85 12.3 13.0 12.35 13.2 12.45 13.25 12.55 13.35 12.7 13.35 12.85 13.25 13.05 13.1 13.15 12.75 13.25 12.3 13.35 11.95 13.4 11.75 13.35 11.6 13.35 11.4 13.3 11.2 13.3 11.15 13.2 10.95 13.15 8.55 13.15 7.4 13.15 6.9 13.15 4.15 13.15 0.0 13.15 -0.1 13.15 -0.2 13.1 -0.25 13.05 -1.95 13.15 -3.15 13.1 -3.0 13.25 -3.15 13.25 -3.25 13.25 -3.35 13.25 -3.45 13.25 -3.55 13.2 -3.6 13.2 -3.7 13.15 -3.8 13.1 -3.9 13.1 -4.35 13.1 -4.5 13.1 -4.55 13.0 -4.7 12.8 Q-4.95 12.6 -5.25 12.55 L-9.9 8.0 -9.9 8.05 -10.9 7.0 Q-10.75 5.4 -11.0 3.8 L-11.05 3.45 -11.05 3.4 -10.95 -3.95 -10.8 -5.2 -10.7 -7.1 -10.0 -7.8 -9.85 -7.9 -4.35 -13.05 -4.35 -13.15 -4.25 -13.25 -4.2 -13.3 -4.1 -13.3 -3.95 -13.45 -3.1 -13.4 -3.0 -13.4 -3.0 -13.35 -2.85 -13.35 -2.25 -13.3 -2.2 -13.35 -2.1 -13.4 5.3 -13.35 6.9 -13.35 7.4 -13.35 8.55 -13.3 13.2 -13.25 13.45 -13.2" fill="#333333" fill-rule="evenodd" stroke="none"/>
  </g>
</svg>
