<?xml version="1.0" encoding="UTF-8" standalone="no"?>
<svg xmlns:xlink="http://www.w3.org/1999/xlink" height="8.45px" width="8.7px" xmlns="http://www.w3.org/2000/svg">
  <g transform="matrix(1.0, 0.0, 0.0, 1.0, 4.35, 4.2)">
    <path d="M1.4 -2.65 L0.65 -2.65 -0.1 -2.65 -0.5 -2.65 -0.65 -2.6 Q-2.3 -1.4 -2.55 0.6 -2.65 1.3 -2.25 1.85 L-1.85 2.15 -1.5 2.55 -1.3 2.7 -1.1 2.9 -0.9 2.95 -0.75 3.05 -0.55 3.1 0.2 3.1 0.95 3.05 1.35 3.05 1.5 3.05 1.7 2.95 1.9 2.9 2.1 2.8 Q2.75 2.05 2.85 1.1 L2.95 -0.9 2.9 -0.9 2.85 -1.3 2.85 -1.4 2.5 -1.75 1.95 -2.3 1.55 -2.6 1.4 -2.65 M3.7 -1.9 Q4.55 -0.5 4.3 1.2 4.05 2.75 2.6 3.5 L2.55 3.5 Q1.05 4.35 -0.55 4.25 -2.1 4.2 -3.4 2.9 -4.6 1.65 -4.3 0.1 L-3.25 -3.3 -1.15 -4.2 1.25 -3.8 Q2.8 -3.35 3.7 -1.9" fill="#a3b5c8" fill-rule="evenodd" stroke="none"/>
    <path d="M1.4 -2.65 L1.55 -2.6 1.95 -2.3 2.5 -1.75 2.85 -1.4 2.85 -1.3 2.9 -0.9 2.95 -0.9 2.85 1.1 Q2.75 2.05 2.1 2.8 L1.9 2.9 1.7 2.95 1.5 3.05 1.35 3.05 0.95 3.05 0.2 3.1 -0.55 3.1 -0.75 3.05 -0.9 2.95 -1.1 2.9 -1.3 2.7 -1.5 2.55 -1.85 2.15 -2.25 1.85 Q-2.65 1.3 -2.55 0.6 -2.3 -1.4 -0.65 -2.6 L-0.5 -2.65 -0.1 -2.65 0.65 -2.65 1.4 -2.65" fill="#b1c1d0" fill-rule="evenodd" stroke="none"/>
  </g>
</svg>
