<?xml version="1.0" encoding="UTF-8" standalone="no"?>
<svg xmlns:xlink="http://www.w3.org/1999/xlink" height="10.5px" width="10.75px" xmlns="http://www.w3.org/2000/svg">
  <g transform="matrix(1.0, 0.0, 0.0, 1.0, 5.05, 5.35)">
    <path d="M1.85 -4.85 Q3.7 -4.25 4.85 -2.55 5.95 -0.8 5.6 1.25 5.25 3.35 3.35 4.3 1.55 5.25 -0.3 5.15 -2.2 5.1 -3.8 3.5 L-3.95 3.3 Q-5.35 1.75 -5.0 -0.2 L-4.9 -0.65 -4.5 -2.1 -3.8 -3.95 -3.6 -4.15 Q-1.85 -5.2 -0.95 -5.3 L-0.2 -5.3 1.85 -4.85 M4.0 -2.0 Q3.1 -3.45 1.55 -3.9 L-0.85 -4.3 Q-1.6 -4.2 -2.95 -3.4 L-4.0 0.0 Q-4.3 1.55 -3.1 2.8 -1.8 4.1 -0.25 4.15 1.35 4.25 2.85 3.4 L2.9 3.4 Q4.35 2.65 4.6 1.1 4.85 -0.6 4.0 -2.0" fill="#333333" fill-rule="evenodd" stroke="none"/>
  </g>
</svg>
