<?xml version="1.0" encoding="UTF-8" standalone="no"?>
<svg xmlns:xlink="http://www.w3.org/1999/xlink" height="220.8px" width="188.75px" xmlns="http://www.w3.org/2000/svg">
  <g transform="matrix(1.0, 0.0, 0.0, 1.0, 0.9, 0.9)">
    <path d="M0.0 0.0 L186.95 0.0 186.95 218.95 0.0 218.95 0.0 0.0" fill="#ffffff" fill-rule="evenodd" stroke="none"/>
    <path d="M17.15 -0.1 L14.75 0.0 12.8 0.0 10.95 0.1 8.95 0.1 7.0 -0.05 4.95 0.05 2.95 0.1 1.25 0.1 0.0 0.0 Q0.45 1.0 0.0 1.8 -0.45 2.65 -0.15 4.0 0.15 5.4 -0.1 6.35 -0.35 7.3 -0.1 7.95 L0.1 9.85 -0.1 12.0 -0.1 14.0 -0.05 15.8 -0.15 17.85 Q-0.1 19.2 -0.2 20.35 L-0.4 22.15 Q-0.45 22.85 -0.1 23.9 0.3 25.0 0.15 26.0 L-0.05 27.9 -0.15 29.7 Q-0.2 30.6 0.15 31.8 0.5 33.05 0.15 34.15 L-0.15 36.15 -0.05 38.0 Q0.0 39.0 0.2 39.75 0.45 40.55 0.2 41.75 L0.05 44.0 0.05 46.0 -0.05 48.0 0.0 50.0 -0.05 51.95 0.0 53.9 0.05 55.9 -0.05 58.0 Q-0.05 59.1 0.2 60.0 0.5 60.9 0.0 61.95 -0.45 63.0 -0.15 64.05 0.2 65.1 -0.05 66.2 L-0.35 68.1 -0.2 70.05 0.0 72.1 0.05 74.2 0.25 76.4 0.35 78.4 0.3 80.25 -0.05 82.15 Q-0.4 83.25 -0.1 84.0 0.25 84.8 -0.05 86.0 -0.3 87.2 0.05 88.15 0.4 89.15 0.2 89.9 L0.0 91.8 Q0.0 92.95 0.15 93.9 0.35 94.85 -0.05 96.05 -0.45 97.25 -0.15 97.9 0.2 98.6 -0.15 99.6 -0.5 100.65 -0.15 101.8 0.2 102.95 0.2 104.0 L0.05 106.25 Q-0.1 107.4 0.15 108.35 L0.2 109.95 -0.25 111.7 Q-0.45 112.8 -0.25 113.95 0.0 115.1 -0.1 116.05 L-0.2 118.2 -0.05 119.95 0.0 121.8 -0.05 124.0 0.0 125.95 0.2 128.0 Q0.35 129.0 0.15 130.0 L-0.15 132.05 Q-0.25 133.1 0.05 134.05 0.35 135.0 0.15 136.2 L0.0 138.0 0.05 140.0 Q0.15 141.45 -0.1 142.0 -0.35 142.55 -0.1 143.75 L0.25 145.95 0.15 148.1 0.0 150.15 -0.1 151.95 -0.05 153.75 -0.05 155.7 0.0 157.8 0.05 159.75 0.0 161.8 0.0 163.9 -0.1 166.0 Q-0.2 167.0 0.1 167.9 0.45 168.85 0.2 169.9 L-0.2 172.0 Q-0.35 173.0 -0.15 174.0 0.05 175.0 0.0 176.1 L0.0 178.1 0.05 179.95 0.0 182.05 0.0 184.1 Q0.05 185.0 -0.2 186.1 L-0.3 187.9 -0.1 189.85 -0.1 192.05 0.15 194.0 Q0.45 195.0 0.2 195.8 L0.0 197.8 -0.1 200.0 -0.1 201.95 0.1 203.9 Q0.25 204.9 0.05 205.9 -0.1 206.9 0.2 208.0 0.5 209.1 0.25 210.05 L0.0 212.05 0.0 214.05 0.1 216.2 0.1 217.7 0.0 218.95 2.1 218.8 4.1 218.9 6.1 219.0 8.0 219.1 Q8.8 219.3 10.1 219.1 L12.25 218.9 14.15 219.0 16.0 219.25 17.7 219.15 19.85 218.9 22.0 219.0 23.95 219.1 26.15 219.05 28.2 219.05 29.95 218.85 32.15 218.8 34.2 219.1 36.25 219.25 38.45 219.15 40.15 218.9 41.9 218.85 43.8 218.8 45.8 218.85 48.05 218.7 50.1 218.65 52.0 218.85 54.05 218.9 56.2 219.2 58.2 219.15 60.05 219.05 61.8 219.35 63.8 219.15 65.75 218.9 67.65 218.95 69.85 218.95 72.0 218.85 74.0 218.85 76.0 219.0 78.0 219.15 80.15 219.15 82.1 219.05 84.05 219.0 86.25 218.95 88.15 219.15 90.0 219.1 92.05 218.95 94.15 219.2 96.3 219.0 98.05 218.85 99.8 219.1 101.85 219.0 103.7 218.85 106.0 218.85 108.05 218.85 109.8 219.1 111.8 219.25 113.6 218.85 Q114.6 218.55 116.0 218.85 L118.2 218.9 120.05 218.85 122.05 219.0 124.1 218.95 125.95 218.95 127.75 218.85 129.8 218.85 132.0 218.95 134.05 218.9 136.2 219.0 Q137.4 219.2 138.0 219.0 L139.9 218.8 142.1 218.8 144.0 218.95 146.15 219.0 148.2 219.1 Q149.1 219.3 149.85 219.1 L151.8 218.8 154.0 218.75 155.75 218.9 157.95 218.95 160.1 218.9 161.85 219.0 164.0 219.05 166.25 218.95 168.1 218.8 Q169.0 218.65 170.2 218.8 L172.3 218.9 174.0 219.1 175.85 218.9 Q176.85 218.5 177.7 218.9 L179.8 219.2 182.1 219.05 184.25 219.05 185.65 219.0 186.95 218.95 Q186.85 217.8 187.0 216.6 187.15 215.45 186.8 214.6 186.5 213.75 186.7 212.9 L186.95 210.9 187.15 208.6 187.3 206.7 187.15 204.95 186.95 202.95 186.85 200.95 Q186.75 199.95 187.05 198.95 187.35 197.95 186.95 196.95 186.55 195.95 186.75 194.9 L187.0 192.95 Q187.1 192.05 186.85 191.1 186.6 190.15 186.7 188.95 L187.1 186.95 Q187.4 186.2 187.1 185.1 L186.85 183.0 186.9 180.95 186.9 179.0 186.65 176.85 Q186.45 175.7 186.65 175.0 L186.9 173.0 187.1 170.75 Q187.25 169.8 186.85 168.85 186.45 167.9 186.65 166.9 L186.95 164.85 187.0 162.95 186.9 160.8 186.9 158.6 186.7 156.8 Q186.5 155.95 186.8 155.0 187.15 154.05 187.0 153.0 186.9 152.0 187.15 150.9 L187.2 148.8 187.0 146.7 187.0 144.75 186.7 142.9 Q186.5 141.9 186.7 141.05 L187.0 139.0 186.95 136.85 Q186.85 135.95 186.9 134.85 L186.95 132.95 187.05 131.1 187.25 128.95 Q187.4 127.95 187.15 126.9 L186.9 124.9 Q186.85 123.95 186.95 123.15 L187.0 121.0 187.05 118.7 187.1 116.85 186.85 114.9 Q186.6 113.95 186.7 112.95 L187.0 110.95 187.05 108.85 187.0 106.85 187.0 105.0 187.1 103.15 187.1 101.05 186.95 99.05 186.75 96.9 Q186.6 95.55 186.95 94.6 187.3 93.65 187.1 92.7 L187.0 90.6 187.05 88.7 187.05 86.7 186.75 84.9 Q186.45 84.35 186.65 83.25 L186.7 81.15 Q186.5 80.15 186.65 78.8 L186.9 76.7 187.0 74.8 186.85 72.75 186.65 71.0 186.8 68.9 186.85 66.6 186.7 64.8 Q186.6 64.0 186.9 63.1 187.25 62.25 186.9 61.25 186.55 60.3 186.8 59.0 187.05 57.75 186.8 56.65 186.6 55.6 186.8 54.75 L187.05 52.95 187.2 50.95 Q187.35 49.95 187.05 49.1 186.8 48.3 186.95 47.15 L187.15 44.95 187.15 42.8 187.1 40.8 187.15 38.95 187.1 36.8 186.95 34.75 187.15 32.9 187.3 31.0 187.25 28.85 187.2 26.6 187.05 24.75 187.05 23.15 187.0 21.3 187.05 19.1 187.05 17.05 186.85 15.05 186.85 12.8 187.1 10.8 187.2 9.0 186.85 6.95 Q186.6 5.95 186.8 4.9 L187.25 2.8 Q187.45 1.7 187.2 1.1 L186.95 0.0 184.95 -0.2 182.8 0.0 180.85 0.35 178.85 -0.05 177.05 -0.15 174.85 0.0 172.85 0.0 170.9 -0.2 168.8 -0.15 166.75 0.35 164.55 0.15 162.85 -0.1 161.1 0.0 158.9 -0.1 156.8 -0.3 155.1 -0.2 153.1 0.15 150.8 0.15 148.9 0.0 147.15 -0.25 Q146.4 -0.45 145.15 -0.25 L143.0 0.0 141.0 0.0 138.9 0.0 136.95 0.0 134.9 -0.05 132.95 -0.1 131.0 -0.1 128.9 0.0 127.15 0.0 124.95 -0.05 122.8 0.05 120.9 0.2 118.6 0.1 116.75 0.05 114.95 0.1 113.0 0.2 111.2 0.4 109.3 0.4 107.25 0.25 104.9 0.15 102.85 0.0 Q102.2 -0.2 100.9 0.0 L99.0 0.15 97.15 -0.1 94.95 -0.2 93.1 -0.1 90.9 0.05 88.8 -0.1 86.8 -0.4 84.8 -0.2 83.15 0.0 81.0 0.25 79.1 0.35 Q78.35 0.35 77.15 -0.05 L74.7 -0.3 72.7 -0.05 70.85 0.05 68.75 0.2 66.9 -0.05 64.95 -0.2 62.9 0.0 60.95 -0.05 59.15 0.0 57.1 0.0 54.8 0.05 53.0 0.05 51.1 0.2 48.95 0.0 Q47.95 -0.45 47.0 0.0 46.1 0.45 44.85 0.0 L42.85 -0.25 41.2 -0.05 39.1 0.1 36.95 0.15 34.85 -0.05 32.9 -0.25 30.9 -0.3 28.95 -0.2 27.0 -0.25 24.95 -0.2 22.95 -0.1 20.85 0.0 19.05 -0.1 17.15 -0.1 Z" fill="none" stroke="#ffffff" stroke-linecap="round" stroke-linejoin="round" stroke-width="1.0"/>
    <path d="M181.75 5.6 L179.95 5.8 Q179.05 6.0 177.9 5.8 L175.75 5.7 173.85 5.75 171.65 5.55 169.55 5.55 167.85 5.7 166.05 5.7 163.95 5.6 161.85 5.4 160.05 5.5 157.8 5.8 155.85 5.8 154.0 5.7 151.6 5.6 149.6 5.5 147.8 5.6 Q146.9 5.85 145.9 5.6 L143.7 5.5 141.75 5.75 139.75 5.75 137.5 5.6 135.45 5.55 133.6 5.45 131.75 5.55 129.95 5.6 128.1 5.6 125.75 5.65 123.65 5.45 Q122.8 5.25 121.7 5.45 L119.7 5.65 117.65 5.65 115.9 5.5 113.8 5.4 111.4 5.6 109.65 5.65 107.85 5.4 105.9 5.45 103.75 5.65 101.55 5.55 99.65 5.55 97.95 5.55 95.95 5.5 93.7 5.3 91.7 5.35 89.7 5.5 87.7 5.4 85.75 5.5 83.8 5.45 81.8 5.4 79.9 5.55 77.6 5.6 75.45 5.7 73.6 5.5 71.7 5.2 69.75 5.4 67.7 5.7 65.75 5.7 63.8 5.45 61.8 5.3 59.9 5.35 58.0 5.5 55.7 5.6 53.5 5.4 51.6 5.65 49.85 5.8 47.75 5.75 45.75 5.8 43.95 5.7 41.6 5.65 39.6 5.3 37.9 5.35 35.95 5.65 33.65 5.65 31.35 5.75 29.5 5.65 27.55 5.45 25.6 5.7 23.7 5.6 21.7 5.65 19.5 5.75 17.5 5.55 15.5 5.45 13.45 5.45 11.5 5.4 Q10.4 5.25 9.45 5.4 L7.75 5.6 6.5 5.6 5.1 5.6 Q5.0 6.65 5.25 7.8 5.55 9.0 5.45 9.85 L5.2 11.75 5.1 13.75 5.3 15.5 5.45 17.25 5.55 19.35 5.35 21.55 5.1 23.5 5.05 25.5 4.95 27.8 4.95 29.7 5.15 31.5 Q5.35 32.65 5.2 33.85 L4.95 35.8 Q4.85 36.6 4.9 37.7 L5.0 39.6 5.2 41.25 5.2 43.1 5.25 45.5 5.25 47.7 Q5.1 48.6 5.25 49.6 5.4 50.6 5.15 51.8 L4.8 53.7 Q4.65 54.4 4.75 55.7 L4.95 57.65 5.25 59.3 Q5.4 60.35 5.05 61.45 4.7 62.6 4.85 63.6 5.05 64.65 4.9 65.6 4.8 66.6 5.0 67.6 L5.15 69.6 4.85 71.55 Q4.7 72.5 4.9 73.45 L5.0 75.5 Q4.95 76.65 5.2 77.6 5.5 78.6 5.3 79.4 L5.1 81.4 5.2 83.55 5.15 85.55 Q5.0 86.6 5.2 87.55 L5.3 89.5 5.25 91.45 5.0 93.65 Q4.75 94.9 5.0 95.65 5.3 96.45 5.2 97.5 L4.85 99.6 Q4.6 100.7 4.95 101.5 5.3 102.35 5.2 103.5 L5.1 105.6 4.95 107.4 Q4.85 108.3 5.05 109.25 L5.3 111.35 5.2 113.45 5.1 115.5 5.25 117.75 5.25 119.9 5.25 121.7 5.4 123.7 Q5.6 124.85 5.3 125.75 5.05 126.7 5.1 127.45 5.2 128.25 4.9 129.5 4.65 130.8 4.85 131.5 5.1 132.25 5.0 133.45 L5.0 135.7 5.05 137.6 5.15 139.6 5.15 141.7 4.9 143.75 Q4.7 144.7 4.65 145.8 4.6 146.95 5.0 147.75 5.45 148.6 5.2 149.7 5.0 150.8 5.2 151.65 5.45 152.5 5.25 153.55 5.1 154.6 5.1 155.75 L5.15 157.8 5.4 159.6 Q5.6 160.55 5.3 161.55 5.0 162.6 5.2 163.6 L5.25 165.6 Q5.1 166.55 5.1 167.45 L5.15 169.45 Q5.25 170.55 5.0 171.55 4.75 172.6 4.9 173.5 5.1 174.45 4.95 175.55 4.85 176.7 5.0 177.65 5.15 178.65 4.9 179.6 L4.7 181.65 4.75 183.65 4.85 185.55 4.9 187.55 4.95 189.6 5.05 191.45 5.2 193.3 5.2 195.3 Q5.1 196.25 5.15 197.45 L5.1 199.6 5.15 201.55 Q5.3 202.55 5.05 203.8 4.8 205.05 4.85 205.9 L5.0 207.6 5.1 209.5 5.05 211.05 5.1 213.25 7.1 213.3 8.9 213.35 10.9 213.3 12.85 213.2 14.9 213.2 17.1 213.2 19.1 213.25 20.9 213.25 22.95 213.15 25.05 213.15 27.05 213.25 29.2 213.45 31.2 213.55 33.3 213.4 35.3 213.2 37.3 213.15 39.05 213.15 41.05 213.3 43.1 213.15 44.95 213.05 47.1 213.3 49.05 213.2 50.9 212.95 52.95 213.05 55.05 213.35 57.15 213.4 59.3 213.3 61.25 213.25 63.2 213.35 65.1 213.35 66.9 213.2 68.9 213.35 71.05 213.3 72.95 213.2 74.95 213.1 77.15 213.2 79.15 213.3 81.05 213.4 83.2 213.45 85.3 213.4 87.15 213.35 88.9 213.2 90.85 213.25 93.0 213.05 95.1 213.1 96.9 213.4 98.9 213.4 100.95 213.3 102.75 213.45 105.05 213.4 107.1 213.25 108.9 213.1 110.9 213.0 113.0 213.25 115.3 213.35 117.2 213.25 119.2 213.15 121.2 213.25 122.9 213.3 124.8 213.2 126.95 213.2 129.0 213.4 130.9 213.2 133.0 213.0 135.0 213.05 Q135.85 212.9 136.95 213.05 L139.0 213.3 140.8 213.25 142.85 213.1 145.1 213.15 147.1 213.1 148.8 212.9 151.1 213.0 153.35 213.35 155.1 213.4 157.15 213.25 159.15 213.2 161.05 213.15 163.05 213.1 165.1 213.25 167.15 213.35 169.1 213.4 171.05 213.3 173.05 213.05 175.0 213.1 177.15 213.25 179.0 213.4 180.3 213.45 181.75 213.25 Q181.4 212.6 181.55 211.4 L181.7 209.3 181.9 207.35 Q182.15 206.25 181.8 205.25 181.5 204.25 181.6 203.25 L181.75 201.25 181.8 199.4 181.65 197.65 181.65 195.55 181.65 193.3 181.45 191.1 Q181.35 190.0 181.5 189.0 L181.9 187.05 Q182.15 186.1 182.0 185.35 L181.8 183.35 Q181.75 182.1 181.85 181.1 L181.95 179.0 181.95 176.95 181.9 175.1 181.75 173.35 181.65 171.35 181.7 169.15 181.85 167.4 181.85 165.5 181.75 163.25 181.8 161.2 181.85 159.0 181.7 157.0 Q181.6 156.25 181.65 155.25 L181.65 153.25 181.5 151.45 181.7 149.4 Q181.95 148.1 181.8 147.4 L181.7 145.5 181.75 143.4 181.75 141.5 181.6 139.6 Q181.45 138.7 181.8 137.35 182.15 136.0 181.9 135.0 L181.65 133.1 181.5 131.35 Q181.4 130.55 181.65 129.25 L181.8 127.3 181.9 125.25 Q182.1 123.85 181.85 123.05 L181.45 121.25 Q181.3 120.25 181.45 119.25 L181.55 117.2 181.65 115.35 181.9 113.55 181.75 111.55 181.35 109.45 Q181.3 108.35 181.5 107.3 L181.9 105.2 181.9 103.15 Q181.75 102.25 181.75 101.05 181.75 99.85 181.9 99.2 L181.75 97.2 181.4 95.05 Q181.3 94.3 181.5 93.3 181.7 92.35 181.5 91.45 181.35 90.6 181.5 89.55 L181.7 87.25 181.5 85.25 Q181.3 84.55 181.5 83.4 L181.65 81.4 181.55 79.3 Q181.5 78.05 181.8 77.0 L182.05 75.15 181.7 73.5 Q181.45 72.7 181.85 71.7 182.25 70.75 181.75 69.5 181.3 68.25 181.35 67.15 L181.55 65.05 181.95 63.2 182.15 61.4 181.95 59.3 181.55 57.0 Q181.3 55.75 181.5 55.2 L181.7 53.3 181.75 51.05 181.75 49.3 181.6 47.3 181.6 45.4 181.7 43.4 181.5 41.0 Q181.35 39.8 181.55 38.9 181.75 38.05 181.55 36.9 181.4 35.75 181.55 35.15 L181.7 33.4 181.7 31.2 181.65 29.25 181.65 27.25 181.65 25.4 Q181.55 24.6 181.6 23.6 L181.6 21.5 181.5 19.2 181.65 17.0 Q181.8 16.0 181.6 15.1 181.4 14.25 181.6 13.2 L181.75 11.25 181.75 9.35 181.75 8.0 181.75 5.6 Z" fill="none" stroke="#90c7b7" stroke-linecap="round" stroke-linejoin="round" stroke-opacity="0.5019608" stroke-width="1.0"/>
    <path d="M81.25 211.3 L81.25 208.4 81.1 205.6 81.15 202.5 81.25 199.25 81.15 196.3 81.05 193.3 Q81.0 191.8 81.2 190.4 L81.55 187.4 Q81.65 185.75 81.1 184.05 80.55 182.35 80.85 181.2 L81.3 178.7 81.35 175.7 81.15 172.5 81.1 169.35 81.45 166.0 81.6 163.4 Q81.5 162.55 81.55 160.85 L81.55 157.7 81.4 154.45 81.35 151.25 81.4 148.35 Q81.45 146.9 81.15 145.55 80.85 144.25 80.95 142.5 L81.3 139.2 Q81.5 137.6 81.3 136.2 81.1 134.8 81.05 133.3 L81.05 130.55 80.95 128.3 Q80.8 127.3 81.25 125.2" fill="none" stroke="#90c7b7" stroke-linecap="round" stroke-linejoin="round" stroke-opacity="0.5019608" stroke-width="1.5"/>
    <path d="M6.4 167.1 L9.45 166.85 12.45 167.4 15.25 167.3 Q16.45 166.9 18.05 167.3 L21.05 167.6 23.8 167.1 26.9 166.85 29.95 166.75 Q31.15 166.45 32.6 166.75 L35.7 167.15 38.65 166.8 41.4 166.9 44.25 167.1 Q45.55 166.8 47.25 167.1 L50.45 167.25 52.95 167.35 55.65 167.45 58.9 167.2 61.95 167.05 64.8 167.05 67.4 167.1 70.4 167.4 Q72.1 167.7 73.8 167.45 L76.5 167.3 78.6 167.2 79.65 167.1" fill="none" stroke="#90c7b7" stroke-linecap="round" stroke-linejoin="round" stroke-opacity="0.5019608" stroke-width="1.5"/>
  </g>
</svg>
