<?xml version="1.0" encoding="UTF-8" standalone="no"?>
<svg xmlns:xlink="http://www.w3.org/1999/xlink" height="10.8px" width="108.1px" xmlns="http://www.w3.org/2000/svg">
  <g transform="matrix(1.0, 0.0, 0.0, 1.0, 54.05, 5.4)">
    <path d="M26.5 -3.75 L31.65 -3.55 36.75 -3.3 41.95 -2.9 46.95 -2.2 46.9 -2.2 51.45 -1.3 51.95 -1.2 52.1 -1.1 52.2 -1.0 52.75 -0.8 53.05 -0.55 53.2 -0.4 53.2 -0.1 53.2 0.0 53.2 0.15 53.05 0.3 52.7 0.6 Q52.5 0.9 52.1 1.05 L51.4 1.2 50.75 1.5 50.6 1.55 50.45 1.55 50.4 1.55 48.6 1.7 46.95 1.9 45.9 2.05 44.65 2.2 39.65 2.65 39.6 2.65 34.6 3.05 29.6 3.25 24.5 3.55 19.55 3.8 14.45 3.9 9.4 4.05 4.25 3.8 -0.9 3.85 -5.75 3.9 -10.9 3.85 -16.4 3.7 -16.45 3.7 -21.3 3.6 -26.15 3.35 -31.3 3.15 -36.7 2.95 -42.1 2.6 -47.3 2.0 -47.3 1.95 -50.25 1.4 -51.1 1.2 -51.95 1.0 -53.05 0.3 -53.05 0.25 Q-52.9 0.3 -53.05 0.15 L-53.15 0.1 -53.15 -0.25 -53.15 -0.35 -53.15 -0.55 -53.05 -0.65 -52.95 -0.75 -52.9 -0.8 -52.9 -0.85 -52.8 -0.9 -52.7 -0.9 -52.7 -0.95 -52.65 -1.0 -52.55 -1.0 -52.45 -1.1 -52.4 -1.2 -51.15 -1.7 -50.5 -1.85 -50.25 -1.9 -47.75 -2.3 -43.95 -2.7 -41.85 -2.9 -38.6 -3.15 -33.35 -3.45 -28.15 -3.75 -28.0 -3.75 -24.1 -3.95 -19.05 -4.1 -13.95 -4.2 -9.5 -4.25 -8.35 -4.25 -3.2 -4.2 1.8 -4.3 3.4 -4.4 6.15 -4.35 11.15 -4.2 16.15 -4.2 21.15 -3.95 26.5 -3.75" fill="#76a6c5" fill-rule="evenodd" stroke="none"/>
    <path d="M53.75 0.3 L53.45 0.75 Q44.2 4.0 34.05 3.75 27.3 3.55 20.65 3.9 L5.0 4.25 -13.5 4.0 -22.95 3.8 -35.0 3.6 Q-44.05 2.85 -52.95 0.9 L-53.15 0.75 -53.25 0.55 -53.2 0.35 -49.15 0.65 Q-40.75 2.4 -31.95 2.4 L-13.25 3.0 1.75 3.1 16.85 2.9 31.9 2.1 Q42.75 1.7 53.15 -0.35 L53.75 0.3" fill="#663333" fill-opacity="0.2" fill-rule="evenodd" stroke="none"/>
    <path d="M2.45 -0.7 L2.25 -0.75 -3.65 0.6 -10.25 1.15 -10.8 1.05 -11.1 0.9 -11.3 0.75 -11.45 0.6 -11.55 0.5 -11.6 0.3 -11.6 0.15 -11.6 0.0 -11.6 -0.1 -11.6 -0.25 -11.55 -0.4 -16.9 0.7 -22.0 1.1 -22.55 1.0 -22.9 0.85 -23.05 0.7 -23.2 0.55 -23.25 0.4 -23.3 0.3 -23.3 0.1 -23.3 -0.05 -23.3 -0.2 -23.3 -0.45 -23.3 -0.6 -23.65 -0.6 -24.4 -0.45 -26.65 0.15 -28.3 0.4 -32.75 0.55 -33.25 0.5 -33.5 0.3 -33.7 0.15 -33.8 0.0 -33.85 -0.1 -33.9 -0.25 -33.9 -0.4 -33.9 -0.6 -33.85 -0.7 -33.8 -0.85 -34.5 -0.95 -36.25 -0.6 -37.5 -0.4 -38.5 -0.45 -39.3 -0.6 -39.7 -0.65 -39.85 -0.8 -39.9 -0.95 -39.95 -1.1 -39.9 -1.25 -39.85 -1.4 -39.7 -1.55 -32.45 -2.6 -28.8 -3.35 -27.75 -3.5 -27.25 -3.4 -27.0 -3.25 -26.9 -3.05 -26.8 -2.95 -26.7 -2.8 -26.7 -2.65 -26.7 -2.55 -26.8 -2.35 -26.9 -2.2 -27.0 -2.05 -27.25 -1.95 -27.75 -1.8 -28.2 -1.65 -28.45 -1.5 -28.65 -1.4 -26.55 -1.75 -21.9 -2.95 -16.0 -3.9 -15.5 -3.8 -15.2 -3.6 -15.0 -3.45 -14.9 -3.35 -14.8 -3.2 -14.75 -3.05 -14.7 -2.9 -14.7 -2.75 -14.75 -2.6 -14.85 -2.45 -14.95 -2.35 -15.1 -2.2 -15.45 -1.95 -15.65 -1.85 -16.0 -1.85 -16.7 -1.75 -17.05 -1.6 -17.45 -1.45 -17.9 -1.3 -18.3 -1.15 -18.0 -1.1 -10.85 -2.75 -6.4 -3.8 -3.75 -4.3 -2.5 -4.3 -2.0 -4.2 -1.6 -4.1 -1.45 -3.95 -1.3 -3.8 -1.25 -3.6 -1.2 -3.5 -1.1 -3.35 -1.15 -3.2 -1.2 -3.05 -1.25 -2.9 -1.3 -2.75 -1.45 -2.6 -1.55 -2.45 -1.8 -2.35 -2.1 -2.2 -2.5 -2.2 -3.3 -2.05 -3.75 -1.9 -4.1 -1.8 -4.45 -1.65 -5.0 -1.4 -4.6 -1.4 -4.15 -1.5 -3.25 -1.7 -2.05 -2.15 4.15 -3.5 10.65 -4.6 11.75 -4.75 12.5 -4.75 12.75 -4.75 13.25 -4.65 13.65 -4.5 13.8 -4.35 13.95 -4.2 14.05 -4.05 14.15 -3.95 14.2 -3.8 14.2 -3.6 14.2 -3.5 14.15 -3.35 14.05 -3.2 13.95 -3.05 13.8 -2.9 13.7 -2.75 13.45 -2.6 13.2 -2.45 12.25 -2.2 10.15 -1.55 9.7 -1.45 13.4 -2.15 16.0 -2.75 21.25 -3.75 21.75 -3.8 22.25 -3.7 22.65 -3.55 22.8 -3.4 22.95 -3.25 23.05 -3.05 23.15 -2.95 23.2 -2.8 23.2 -2.65 23.2 -2.55 23.15 -2.35 23.05 -2.2 22.95 -2.05 22.85 -1.95 25.2 -2.4 27.35 -2.9 29.5 -3.2 30.0 -3.1 30.4 -2.95 30.55 -2.8 30.7 -2.65 30.8 -2.5 30.9 -2.35 30.95 -2.2 30.95 -2.05 30.95 -1.95 30.9 -1.8 30.85 -1.65 30.75 -1.5 30.65 -1.35 30.55 -1.2 30.45 -1.05 30.25 -0.9 30.1 -0.75 33.7 -1.55 38.5 -2.0 39.0 -1.95 39.4 -1.8 39.6 -1.65 39.7 -1.5 39.8 -1.3 39.9 -1.2 39.95 -1.1 40.05 -1.05 40.5 -0.95 40.9 -0.8 41.2 -0.65 41.35 -0.5 41.4 -0.4 41.5 -0.25 41.6 -0.05 41.6 0.1 41.55 0.2 41.55 0.35 41.4 0.5 41.35 0.65 41.2 0.8 40.9 0.95 40.5 1.1 40.0 1.2 38.5 1.2 37.95 1.1 37.65 0.95 37.4 0.8 37.25 0.65 37.2 0.5 37.15 0.35 Q34.3 0.45 31.4 1.35 L27.8 2.1 24.75 2.2 24.2 2.05 23.9 1.9 23.65 1.8 23.5 1.65 23.4 1.5 23.4 1.35 23.35 1.2 23.35 1.05 23.35 0.9 23.35 0.65 23.4 0.5 21.95 0.55 18.9 1.35 13.25 1.8 12.7 1.7 12.4 1.55 12.15 1.35 12.0 1.25 11.9 1.1 11.85 0.95 11.85 0.8 11.8 0.65 9.0 1.05 3.75 1.35 3.2 1.3 2.9 1.15 2.65 1.0 2.5 0.85 2.4 0.7 2.35 0.55 2.35 0.4 2.3 0.3 2.3 0.1 2.3 -0.2 2.3 -0.3 2.4 -0.45 2.45 -0.6 2.45 -0.7" fill="#ffffff" fill-opacity="0.101960786" fill-rule="evenodd" stroke="none"/>
    <path d="M4.75 -4.85 L5.25 -4.85 5.65 -4.8 5.95 -4.7 6.25 -4.55 6.45 -4.4 6.55 -4.25 6.65 -4.1 6.75 -3.95 6.75 -3.8 6.8 -3.7 6.8 -3.55 6.8 -3.45 7.2 -3.35 10.25 -3.85 14.9 -4.2 15.2 -4.1 15.5 -3.95 15.7 -3.8 15.85 -3.7 21.15 -4.1 23.25 -3.95 23.5 -3.8 23.7 -3.7 23.9 -3.55 25.75 -3.3 26.5 -3.2 26.75 -3.05 30.5 -3.0 31.5 -3.15 34.25 -3.0 34.5 -2.85 34.7 -2.7 37.9 -2.5 38.15 -2.45 38.25 -2.45 40.25 -2.4 40.65 -2.5 42.4 -2.5 42.8 -2.4 43.0 -2.25 43.2 -2.15 43.4 -2.0 43.45 -1.8 43.55 -1.65 43.6 -1.55 43.65 -1.4 43.65 -1.25 43.65 -1.1 43.6 -0.95 43.55 -0.8 43.45 -0.65 43.35 -0.5 43.3 -0.4 43.1 -0.2 42.85 -0.05 42.65 0.0 42.4 0.1 42.05 0.15 41.65 0.1 41.4 0.1 Q39.15 0.5 36.9 0.05 L36.75 0.0 32.75 -0.2 32.6 -0.25 27.2 0.65 20.25 0.95 20.0 0.8 19.85 0.7 19.65 0.5 19.6 0.35 19.4 0.2 17.9 -0.1 17.5 -0.2 9.4 0.25 9.0 0.15 8.75 0.0 8.55 -0.1 8.4 -0.25 8.3 -0.4 8.25 -0.55 8.2 -0.7 8.2 -0.85 3.6 -0.45 -1.5 -0.25 -2.25 -0.4 -2.5 -0.55 -2.7 -0.7 -2.85 -0.85 -2.95 -1.0 -3.0 -1.15 -3.0 -1.2 -3.2 -1.25 -8.9 -0.2 -13.8 0.55 -17.5 0.3 -18.2 0.1 -18.4 -0.05 -18.55 -0.2 -18.7 -0.4 -18.75 -0.5 -18.8 -0.65 -18.8 -0.8 -18.8 -0.95 -19.15 -1.0 -23.05 -0.35 -30.0 0.2 -30.55 0.15 -30.9 -0.05 -31.15 -0.2 -31.25 -0.3 -31.4 -0.45 -31.4 -0.6 -31.45 -0.75 -31.45 -0.9 -31.45 -1.05 -31.4 -1.2 -31.4 -1.35 -31.25 -1.45 -31.55 -1.55 -34.15 -1.25 -35.9 -0.9 -37.25 -0.7 -37.65 -0.75 -38.55 -0.6 -40.7 -0.2 -41.25 -0.1 -41.6 -0.15 -42.0 -0.2 -42.4 -0.3 -42.55 -0.45 -42.65 -0.6 -42.65 -0.75 -42.6 -0.9 -42.45 -1.05 -42.25 -1.15 -32.1 -3.1 -25.75 -3.95 -21.0 -4.5 -20.5 -4.4 -20.15 -4.3 -19.95 -4.1 -19.8 -3.95 -19.75 -3.8 -19.7 -3.7 -19.65 -3.55 -19.65 -3.4 -19.7 -3.25 -17.1 -3.6 -14.05 -4.15 -12.25 -4.4 -12.0 -4.5 -11.9 -4.55 -11.25 -4.65 -10.25 -4.6 -9.7 -4.5 -9.4 -4.35 -9.1 -4.2 -9.0 -4.05 -8.9 -3.95 -8.8 -3.75 -8.8 -3.6 -8.75 -3.5 -8.75 -3.35 -8.8 -3.2 -8.85 -3.05 -8.95 -2.9 -9.05 -2.75 -4.25 -3.5 -0.1 -4.1 4.4 -4.8 4.75 -4.85" fill="#ffffff" fill-opacity="0.101960786" fill-rule="evenodd" stroke="none"/>
    <path d="M2.7 -4.0 L2.75 -3.85 2.8 -3.65 2.9 -3.45 2.9 -3.25 2.9 -3.1 2.9 -2.9 2.9 -2.7 2.85 -2.5 2.8 -2.4 2.8 -2.35 4.5 -2.5 7.5 -3.0 7.9 -3.2 8.25 -3.4 8.5 -3.5 8.65 -3.6 8.9 -3.65 11.5 -4.2 Q13.4 -4.65 15.25 -4.25 L15.6 -4.1 15.75 -3.9 15.9 -3.7 16.0 -3.5 16.1 -3.35 16.15 -3.15 16.2 -2.95 16.2 -2.75 16.2 -2.6 16.15 -2.4 16.15 -2.25 17.15 -2.3 18.4 -2.6 19.65 -2.85 19.9 -2.95 20.15 -3.0 20.5 -3.1 20.9 -3.0 21.2 -2.9 21.5 -2.7 21.7 -2.5 21.85 -2.35 21.95 -2.15 22.0 -1.95 22.1 -1.75 22.15 -1.6 22.2 -1.4 22.2 -1.2 22.2 -1.0 22.15 -0.85 22.1 -0.65 21.95 -0.45 21.85 -0.25 21.7 -0.1 21.45 0.1 21.25 0.25 21.15 0.3 Q14.6 1.75 7.95 0.6 L7.15 0.35 6.4 0.45 -13.05 1.15 -13.5 1.05 -14.35 1.1 -21.35 0.85 -21.75 0.75 -22.0 0.55 -22.2 0.35 -22.3 0.15 -22.35 0.0 -22.4 -0.2 -22.4 -0.4 -22.4 -0.6 -22.3 -0.75 -21.95 -1.15 -21.15 -1.7 -19.65 -2.25 -19.25 -2.35 -18.8 -2.4 -18.4 -2.5 -18.0 -2.6 -17.75 -2.75 -17.45 -2.95 -17.05 -3.15 -16.55 -3.25 -13.0 -4.1 -8.5 -4.9 -7.35 -5.1 -7.0 -5.1 -7.0 -5.15 0.5 -5.05 Q1.6 -5.0 2.45 -4.4 L2.55 -4.2 2.7 -4.0" fill="#ffffff" fill-opacity="0.101960786" fill-rule="evenodd" stroke="none"/>
    <path d="M12.0 -5.35 Q14.5 -5.2 17.1 -5.3 L22.3 -5.1 27.3 -4.7 32.35 -4.7 37.55 -4.3 42.55 -3.8 47.75 -2.95 51.45 -2.15 52.1 -2.0 52.1 -2.05 53.0 -1.55 53.2 -1.4 54.0 -0.85 54.05 -0.55 54.05 -0.45 54.05 -0.2 54.05 -0.15 54.0 0.1 53.95 0.35 53.95 0.5 53.35 1.2 52.05 2.0 51.25 2.2 50.75 2.45 50.65 2.45 50.55 2.45 50.5 2.45 48.6 2.65 47.1 2.85 46.1 3.05 44.95 3.2 39.9 3.75 34.85 4.15 29.65 4.5 24.7 4.8 19.65 5.1 14.6 5.25 9.4 5.35 4.25 5.1 -0.85 5.15 -5.8 5.25 -10.9 5.15 -16.4 5.1 -21.4 4.85 -26.15 4.65 -31.35 4.45 -36.85 4.1 -42.25 3.75 -47.5 3.0 -50.25 2.35 -51.1 2.15 -52.45 1.75 -52.7 1.65 Q-53.8 1.1 -53.85 0.6 L-53.95 0.55 -54.0 0.5 -54.05 0.25 -54.05 0.1 -54.05 -0.15 -54.05 -0.3 -54.0 -0.5 -53.95 -0.7 -53.85 -0.95 -53.7 -1.2 -53.2 -1.45 -52.9 -1.65 -52.8 -1.7 -52.7 -1.75 Q-52.3 -1.85 -52.15 -2.05 L-51.15 -2.45 -50.25 -2.65 -47.95 -3.1 -47.85 -3.1 -47.0 -3.3 -46.95 -3.3 -43.45 -3.65 -42.05 -3.8 -39.0 -4.1 -33.85 -4.5 -29.05 -4.65 -28.25 -4.7 -28.15 -4.7 -23.2 -4.9 -18.15 -5.1 -13.35 -5.2 -9.5 -5.2 -8.8 -5.2 -3.8 -5.3 1.2 -5.3 3.35 -5.3 6.9 -5.4 12.0 -5.35 M11.15 -4.2 L6.15 -4.35 3.4 -4.4 1.8 -4.3 -3.2 -4.2 -8.35 -4.25 -9.5 -4.25 -13.95 -4.2 -19.05 -4.1 -24.1 -3.95 -28.0 -3.75 -28.15 -3.75 -33.35 -3.45 -38.6 -3.15 -41.85 -2.9 -43.95 -2.7 -47.75 -2.3 -50.25 -1.9 -50.5 -1.85 -51.15 -1.7 -52.4 -1.2 -52.45 -1.1 -52.55 -1.0 -52.65 -1.0 -52.7 -0.95 -52.7 -0.9 -52.8 -0.9 -52.9 -0.85 -52.9 -0.8 -52.95 -0.75 -53.05 -0.65 -53.15 -0.55 -53.15 -0.35 -53.15 -0.25 -53.15 0.1 -53.05 0.15 Q-52.9 0.3 -53.05 0.25 L-53.05 0.3 -51.95 1.0 -51.1 1.2 -50.25 1.4 -47.3 1.95 -47.3 2.0 -42.1 2.6 -36.7 2.95 -31.3 3.15 -26.15 3.35 -21.3 3.6 -16.45 3.7 -16.4 3.7 -10.9 3.85 -5.75 3.9 -0.9 3.85 4.25 3.8 9.4 4.05 14.45 3.9 19.55 3.8 24.5 3.55 29.6 3.25 34.6 3.05 39.6 2.65 39.65 2.65 44.65 2.2 45.9 2.05 46.95 1.9 48.6 1.7 50.4 1.55 50.45 1.55 50.6 1.55 50.75 1.5 51.4 1.2 52.1 1.05 Q52.5 0.9 52.7 0.6 L53.05 0.3 53.2 0.15 53.2 0.0 53.2 -0.1 53.2 -0.4 53.05 -0.55 52.75 -0.8 52.2 -1.0 52.1 -1.1 51.95 -1.2 51.45 -1.3 46.9 -2.2 46.95 -2.2 41.95 -2.9 36.75 -3.3 31.65 -3.55 26.5 -3.75 21.15 -3.95 16.15 -4.2 11.15 -4.2" fill="#333333" fill-opacity="0.972549" fill-rule="evenodd" stroke="none"/>
  </g>
</svg>
