<?xml version="1.0" encoding="UTF-8" standalone="no"?>
<svg xmlns:xlink="http://www.w3.org/1999/xlink" height="21.55px" width="108.15px" xmlns="http://www.w3.org/2000/svg">
  <g transform="matrix(1.0, 0.0, 0.0, 1.0, 53.95, 10.85)">
    <path d="M36.95 -2.3 Q42.2 -0.25 46.9 2.8 49.3 4.35 50.8 6.55 L49.95 6.3 49.4 6.2 48.25 5.85 45.85 5.8 45.05 5.6 41.85 5.6 41.15 5.75 40.85 5.8 39.8 6.25 39.45 6.45 38.95 7.0 38.75 7.1 38.35 7.5 37.9 7.95 37.8 8.05 37.7 8.15 37.1 8.8 36.75 9.25 36.65 9.05 36.45 8.85 36.25 8.65 35.95 8.5 35.65 8.3 35.4 8.1 35.1 7.9 34.65 7.8 34.3 7.7 33.85 7.55 32.4 7.0 32.0 6.9 30.8 6.65 26.6 6.5 25.95 6.65 25.05 6.85 24.65 6.9 24.0 7.05 23.7 7.1 23.0 7.5 Q22.4 7.75 21.9 8.1 L21.05 8.8 20.65 9.35 20.6 9.55 20.5 9.6 20.15 9.8 20.0 9.95 19.95 10.0 19.7 10.15 19.2 10.15 19.05 10.05 18.65 9.85 18.5 9.65 18.3 9.5 17.95 9.1 17.75 8.9 Q17.4 8.55 16.95 8.35 L16.65 8.15 16.2 8.05 15.6 7.9 14.8 7.75 Q13.7 7.25 12.5 7.05 L11.6 6.95 7.9 6.9 7.9 6.95 7.55 6.95 6.8 7.0 6.4 7.0 6.05 7.05 5.75 7.1 5.55 7.15 4.8 7.3 4.5 7.35 4.4 7.4 3.75 7.75 3.4 7.9 3.05 8.1 2.65 8.5 2.4 8.65 2.05 8.85 1.85 9.05 1.7 9.25 1.6 9.4 1.3 9.45 1.15 9.55 0.9 9.65 0.6 9.85 0.25 10.0 0.0 10.1 -0.15 10.25 -0.45 10.05 -0.5 10.05 -1.35 9.35 -1.35 9.25 -1.35 9.15 -1.35 9.05 -1.4 9.0 -1.45 8.9 -1.45 8.8 -1.7 8.55 Q-2.95 7.7 -4.5 7.5 L-6.2 7.3 -6.55 7.3 -11.6 7.1 -12.55 7.2 Q-14.8 7.45 -16.65 8.9 L-16.75 9.0 -16.95 9.1 -17.25 9.3 -17.25 9.35 -17.3 9.35 -17.5 9.45 -17.85 9.6 -18.0 9.8 -18.2 10.0 -18.25 10.15 -18.4 10.2 -18.4 10.25 -18.65 10.35 -18.75 10.55 -19.25 10.5 -19.35 10.4 -19.65 10.05 -19.95 9.7 -20.3 9.3 -20.65 8.9 -20.95 8.75 -21.2 8.55 -21.4 8.35 -21.6 8.15 -21.9 8.0 -22.3 7.8 -22.75 7.6 -23.05 7.4 -23.85 7.3 -23.9 7.3 -25.35 6.95 -25.5 6.85 -25.65 6.75 -25.9 6.7 -26.05 6.65 -27.1 6.4 -28.3 6.35 -31.85 6.25 -32.3 6.35 -33.0 6.5 -33.55 6.7 -34.25 7.05 -34.4 7.15 -34.6 7.35 -34.75 7.55 -36.2 8.2 -36.6 8.35 -36.8 8.55 -36.95 8.75 -36.95 8.8 Q-37.25 8.6 -37.55 8.55 L-37.6 8.55 -37.7 8.4 -37.8 8.2 -37.95 8.05 -38.1 7.85 Q-38.25 7.4 -38.65 7.1 L-38.85 6.95 -39.0 6.8 -39.25 6.6 -39.55 6.4 -39.75 6.35 Q-40.1 6.1 -40.5 5.95 L-40.8 5.8 -41.6 5.65 -42.6 5.65 -42.95 5.55 -43.3 5.5 -43.65 5.55 -44.0 5.6 -44.9 5.6 -45.0 5.6 -45.3 5.6 -45.35 5.6 -47.7 6.05 -48.65 6.25 -50.9 6.9 -51.2 6.95 -51.35 7.05 -51.6 7.15 -51.95 7.35 -52.25 7.55 -52.45 7.7 -52.65 7.9 -52.35 7.6 Q-40.15 -2.5 -25.0 -7.3 L-12.15 -9.85 1.6 -10.6 23.95 -7.9 Q31.5 -6.65 36.95 -2.3" fill="#76a6c5" fill-rule="evenodd" stroke="none"/>
    <path d="M2.95 -6.7 L-11.3 -6.6 -11.8 -6.5 -14.75 -6.05 -16.4 -5.75 -17.7 -5.6 -18.25 -5.4 -18.55 -5.25 -18.95 -5.25 -21.15 -4.85 -22.65 -4.45 -24.95 -3.75 -25.35 -3.7 -26.0 -3.55 -26.5 -3.45 -27.0 -3.35 -27.35 -3.15 -27.65 -3.0 -28.05 -2.95 -28.6 -2.85 -28.95 -2.65 -29.45 -2.45 -29.9 -2.35 -30.45 -2.1 -31.6 -1.6 -32.05 -1.4 -32.3 -1.2 -32.55 -1.1 -32.9 -1.0 -33.4 -0.9 -33.7 -0.7 -33.95 -0.5 -34.15 -0.4 -34.3 -0.35 -35.0 -0.2 -35.35 -0.05 -37.3 0.85 -38.25 1.35 -38.5 1.4 -38.95 1.55 -39.3 1.7 -39.75 1.85 -41.2 2.4 -41.85 2.55 -42.15 2.75 -43.4 3.35 -44.35 3.7 -46.25 4.65 -46.95 5.0 -47.25 5.0 -48.0 5.05 -48.4 4.9 -48.6 4.75 -48.7 4.55 -48.8 4.35 -48.8 4.15 -48.75 4.0 -48.65 3.8 -48.45 3.6 -48.3 3.5 -47.9 3.35 -47.7 3.15 -47.5 3.0 -47.1 2.8 -46.75 2.65 -46.55 2.6 -46.15 2.5 -45.9 2.3 -45.85 2.1 -45.75 1.9 -45.6 1.75 -45.4 1.55 -45.15 1.4 -44.65 1.3 -44.3 1.1 -43.9 0.95 -43.35 0.75 -43.05 0.55 -42.45 0.2 -41.9 0.0 -41.45 -0.15 -40.85 -0.35 -40.55 -0.5 -40.25 -0.7 -40.0 -0.9 -39.7 -1.1 -39.4 -1.25 -39.2 -1.4 -38.95 -1.45 -37.9 -1.95 -37.55 -2.15 Q-36.75 -2.75 -35.8 -3.0 L-34.7 -3.1 -34.4 -3.2 -32.9 -3.75 -31.65 -4.25 Q-30.3 -4.7 -29.1 -5.45 L-28.55 -5.6 -27.75 -5.9 -27.4 -6.0 -26.95 -6.15 -26.65 -6.25 -26.25 -6.35 -25.65 -6.45 -25.05 -6.65 -24.7 -6.75 -24.35 -6.85 -22.7 -7.2 -22.15 -7.35 -20.7 -7.75 -20.35 -7.8 -19.0 -7.95 -18.6 -8.15 -18.3 -8.25 -17.95 -8.3 -15.3 -8.75 -11.85 -9.25 -11.3 -9.35 2.9 -9.5 3.45 -9.6 10.6 -9.6 11.1 -9.45 12.1 -9.25 13.55 -9.05 14.05 -8.95 14.4 -8.75 14.8 -8.6 15.0 -8.45 15.05 -8.4 15.85 -8.3 16.35 -8.2 16.6 -8.1 17.0 -8.0 Q20.4 -7.0 23.9 -6.8 L29.8 -5.9 30.05 -5.75 30.55 -5.65 30.8 -5.5 31.3 -5.4 32.65 -4.95 33.5 -4.6 35.7 -3.6 36.0 -3.45 36.2 -3.25 36.4 -3.1 36.65 -2.9 36.8 -2.7 36.95 -2.5 37.0 -2.35 37.05 -2.15 37.1 -1.95 37.1 -1.75 37.05 -1.6 37.0 -1.4 36.9 -1.25 36.7 -1.0 36.5 -0.9 36.2 -0.85 35.9 -0.9 35.6 -0.95 35.45 -1.0 34.9 -1.15 34.65 -1.3 33.45 -1.9 33.05 -2.05 30.55 -2.9 30.3 -3.0 29.75 -3.15 29.55 -3.25 29.0 -3.4 20.45 -4.65 18.9 -4.85 17.45 -5.15 17.05 -5.35 16.8 -5.45 16.05 -5.55 15.45 -5.6 14.55 -5.75 14.0 -5.85 13.7 -6.0 13.5 -6.2 13.25 -6.35 13.15 -6.35 11.6 -6.6 10.85 -6.7 10.3 -6.85 3.45 -6.85 2.95 -6.7" fill="#ffffff" fill-opacity="0.101960786" fill-rule="evenodd" stroke="none"/>
    <path d="M8.4 -9.95 L8.95 -9.85 9.7 -9.65 10.0 -9.45 10.2 -9.25 10.25 -9.1 10.35 -8.9 10.4 -8.7 10.4 -8.5 10.4 -8.35 10.35 -8.15 10.25 -7.95 10.2 -7.75 10.0 -7.6 9.7 -7.4 9.3 -7.3 8.95 -7.25 8.15 -7.2 Q4.6 -7.45 1.0 -7.15 -0.9 -7.0 -2.6 -6.1 L-3.45 -5.6 -3.75 -5.45 -4.1 -5.4 -4.35 -5.4 -4.9 -5.5 -5.2 -5.7 -5.4 -5.9 -5.6 -6.1 -7.6 -5.4 -8.7 -5.05 -11.1 -4.2 -15.25 -2.95 -17.45 -2.95 -18.0 -3.1 -18.3 -3.25 -18.5 -3.45 -18.65 -3.65 -18.7 -3.85 -18.75 -4.0 -18.75 -4.2 -19.9 -4.0 -20.4 -3.8 -20.65 -3.7 -21.35 -3.5 -21.9 -3.35 Q-22.75 -2.8 -23.75 -2.45 L-23.9 -2.4 Q-24.8 -2.1 -25.65 -1.9 L-25.9 -1.8 -27.8 -1.6 -28.3 -1.7 -28.6 -1.9 -28.75 -2.1 -28.9 -2.25 -28.95 -2.45 -28.95 -2.65 -28.95 -2.85 -28.95 -3.2 -28.95 -3.4 -28.95 -3.6 -28.9 -3.75 -28.8 -3.95 -29.1 -3.95 -29.45 -3.85 -29.65 -3.75 -30.45 -3.55 -30.85 -3.45 -31.35 -3.25 -31.75 -3.15 -32.25 -3.05 -32.65 -3.0 -32.9 -2.95 -33.15 -2.9 -33.4 -2.9 -33.65 -2.85 -34.05 -2.7 -34.2 -2.6 -34.45 -2.5 -34.75 -2.65 -34.9 -2.85 -34.95 -3.0 -34.9 -3.2 -34.75 -3.4 -34.7 -3.6 -34.45 -3.7 -33.5 -4.0 -33.15 -4.15 -32.55 -4.45 -30.5 -5.15 Q-29.75 -5.4 -29.1 -5.7 L-27.35 -6.35 -24.6 -7.25 -23.85 -7.5 -22.45 -7.8 -21.25 -8.0 Q-19.9 -8.75 -18.35 -8.7 L-16.95 -8.8 -15.3 -9.1 -8.85 -10.0 -2.95 -10.15 -2.4 -10.25 -2.0 -10.45 -1.65 -10.55 -0.65 -10.8 -0.65 -10.85 -0.4 -10.85 0.1 -10.7 0.4 -10.5 0.55 -10.35 3.45 -10.15 3.95 -10.0 4.25 -9.9 5.5 -10.0 7.9 -10.1 8.4 -9.95" fill="#ffffff" fill-opacity="0.101960786" fill-rule="evenodd" stroke="none"/>
    <path d="M-29.05 -5.55 Q-24.0 -7.1 -18.8 -8.15 L-13.05 -9.25 -12.05 -9.2 -11.3 -9.15 -10.25 -8.95 -10.0 -8.75 -9.9 -8.6 -9.8 -8.4 -9.75 -8.2 -9.7 -8.0 -9.75 -7.85 -9.8 -7.65 -9.9 -7.45 -10.0 -7.25 -10.15 -7.1 -10.3 -6.95 -10.45 -6.9 -10.75 -6.85 -17.2 -5.75 -25.75 -3.2 Q-30.45 -1.75 -34.85 0.3 L-35.05 0.5 -35.25 0.7 -35.35 0.85 -35.65 1.05 -36.2 1.4 -37.75 2.3 -38.7 2.75 -39.05 2.8 -39.3 2.8 -39.65 2.7 -40.05 2.6 -40.3 2.4 -40.45 2.25 -40.65 2.05 -40.7 1.85 -40.8 1.65 -40.85 1.5 -40.85 1.3 -40.85 1.1 -40.85 0.9 -40.8 0.75 -40.7 0.55 -40.6 0.35 -40.4 0.15 -40.25 0.0 -39.95 -0.2 -39.7 -0.4 -39.5 -0.6 Q-34.65 -3.8 -29.05 -5.55" fill="#ffffff" fill-opacity="0.101960786" fill-rule="evenodd" stroke="none"/>
    <path d="M51.2 5.95 L51.05 6.25 Q45.75 4.95 40.0 6.25 38.55 6.65 38.1 7.95 L37.6 9.4 Q35.1 10.1 33.15 7.55 32.7 6.95 31.9 6.95 L23.95 7.15 Q21.35 7.75 20.25 10.5 16.5 9.9 12.85 8.15 10.95 7.1 8.55 7.1 3.8 7.35 0.4 10.5 L-0.8 10.15 -1.3 9.45 Q-9.9 3.55 -17.85 9.95 L-18.55 10.4 -19.1 10.15 -19.35 9.75 Q-27.85 2.9 -36.45 9.55 L-37.6 9.45 -40.8 5.65 Q-45.9 4.4 -50.8 7.2 L-51.4 6.95 Q-46.9 2.65 -40.7 4.3 L-39.5 5.15 -36.7 7.8 Q-28.95 1.9 -21.1 7.2 L-18.05 8.65 Q-9.15 1.7 0.15 8.8 7.35 3.15 15.7 6.85 17.35 7.55 18.5 8.7 L19.3 9.15 Q22.2 4.0 28.1 4.55 L32.8 5.55 Q34.85 5.95 35.9 7.8 41.6 1.4 50.95 5.0 51.45 5.35 51.2 5.95" fill="#663333" fill-opacity="0.2" fill-rule="evenodd" stroke="none"/>
    <path d="M6.35 -1.6 L6.65 -0.3 4.45 1.65 12.35 -0.95 13.1 0.15 12.95 0.75 4.95 6.55 14.2 1.9 15.0 2.05 15.6 2.3 16.05 2.8 16.4 3.35 16.5 3.7 16.15 4.65 16.65 4.9 Q17.65 5.45 17.6 6.65 L17.5 8.65 16.95 8.35 16.65 8.15 16.2 8.05 15.6 7.9 14.8 7.75 13.05 7.6 Q12.55 7.3 11.9 7.25 L10.9 7.15 10.1 7.0 6.4 7.0 6.05 7.05 5.75 7.1 5.55 7.15 4.8 7.3 4.5 7.35 4.4 7.4 3.75 7.75 3.4 7.9 3.05 8.1 2.65 8.5 2.4 8.65 2.05 8.85 1.85 9.05 1.7 9.25 1.55 9.4 1.3 9.6 0.95 9.8 0.7 10.0 0.35 10.35 0.2 10.55 0.0 10.4 -1.35 9.35 Q-2.25 8.65 -3.45 8.5 L-3.75 8.35 -3.9 8.15 -4.1 8.0 -4.35 7.8 -5.3 7.5 -12.55 7.2 Q-14.95 7.45 -16.85 9.05 L-17.15 9.25 -17.5 9.45 -17.85 9.6 -18.0 9.8 -18.2 10.0 -18.25 10.1 -19.55 10.2 -19.65 10.05 -19.95 9.7 -20.3 9.3 -20.65 8.9 -20.95 8.75 -21.2 8.55 -21.4 8.35 -21.6 8.15 -21.9 8.0 -22.3 7.8 -22.75 7.6 -23.05 7.4 -23.85 7.3 -24.35 7.25 -26.85 7.0 Q-27.65 6.6 -28.55 6.55 L-31.5 6.5 -31.85 6.55 -33.1 6.9 -34.15 7.25 -36.2 8.2 -36.6 8.35 -36.8 8.55 -36.95 8.75 -37.55 8.55 Q-38.35 8.4 -38.45 7.75 L-38.5 7.55 -38.7 7.2 -38.8 7.0 -39.0 6.8 -39.25 6.6 -39.3 6.6 Q-38.35 4.4 -36.05 3.35 L-34.7 2.8 -33.35 2.9 Q-32.1 2.35 -30.9 1.6 -23.05 -2.85 -14.65 -2.15 L-13.65 -2.8 -11.85 -3.4 Q-11.1 -3.65 -10.35 -3.4 -9.05 -3.25 -8.15 -2.3 L-8.2 -1.25 -6.7 -1.95 -5.15 -2.25 Q-4.25 -2.25 -3.5 -1.7 -2.75 -1.25 -2.95 -0.35 L-5.85 2.8 Q-0.85 -0.45 4.7 -2.25 L6.35 -1.6" fill="#663333" fill-opacity="0.101960786" fill-rule="evenodd" stroke="none"/>
    <path d="M3.45 -6.25 L5.75 -5.9 6.1 -5.4 Q6.65 -4.55 6.35 -3.7 L7.65 -4.5 8.85 -5.15 Q12.05 -6.65 14.9 -4.45 L16.45 -4.95 17.1 -5.2 Q19.3 -5.3 20.2 -3.35 L24.5 -3.15 24.65 -2.9 Q25.1 -1.5 24.45 -0.15 L29.55 -2.25 34.8 1.0 35.5 1.05 36.05 1.2 36.6 1.4 Q37.85 2.05 37.95 3.5 L38.9 3.1 39.7 2.85 Q42.15 2.55 42.35 5.2 L41.7 6.05 41.35 6.2 40.55 6.55 40.25 6.65 39.9 6.75 39.55 6.8 39.1 6.95 38.75 7.1 38.35 7.5 37.8 8.05 37.1 8.8 36.75 9.25 36.65 9.05 36.45 8.85 36.25 8.65 35.95 8.5 35.65 8.3 35.4 8.1 35.1 7.9 34.65 7.8 34.3 7.7 33.85 7.55 33.05 7.4 33.0 7.35 Q31.95 6.75 30.8 6.65 L26.6 6.5 25.95 6.65 25.05 6.85 24.65 6.9 24.0 7.05 23.7 7.1 23.0 7.5 Q22.4 7.75 21.9 8.1 L21.05 8.8 20.65 9.35 20.6 9.55 19.35 10.3 19.05 10.05 18.65 9.85 18.5 9.65 18.3 9.5 17.95 9.1 17.75 8.9 Q17.4 8.55 16.95 8.35 L16.65 8.15 16.2 8.05 15.6 7.9 14.8 7.75 13.05 7.6 Q12.55 7.3 11.9 7.25 L10.9 7.15 10.1 7.0 6.4 7.0 6.05 7.05 5.75 7.1 5.55 7.15 4.8 7.3 4.5 7.35 4.4 7.4 3.75 7.75 3.4 7.9 3.05 8.1 2.65 8.5 2.4 8.65 2.05 8.85 1.85 9.05 1.7 9.25 1.55 9.4 1.3 9.6 0.95 9.8 0.7 10.0 0.35 10.35 0.2 10.55 0.0 10.4 -1.35 9.35 Q-2.25 8.65 -3.45 8.5 L-3.75 8.35 -3.9 8.15 -4.1 8.0 -4.35 7.8 -5.3 7.5 -12.55 7.2 Q-14.95 7.45 -16.85 9.05 L-17.15 9.25 -17.5 9.45 -17.85 9.6 -18.0 9.8 -18.2 10.0 -18.3 10.15 -18.65 10.35 -18.8 10.55 -19.0 10.65 -19.2 10.6 -19.35 10.4 -19.65 10.05 -19.95 9.7 -20.3 9.3 -20.65 8.9 -20.95 8.75 -21.2 8.55 -21.2 7.9 -23.3 7.1 -23.65 6.55 Q-23.3 4.15 -20.95 3.1 L-20.4 3.1 -21.5 5.1 Q-12.85 -3.5 -4.6 -2.65 L-4.65 -2.2 3.45 -6.25" fill="#663333" fill-opacity="0.101960786" fill-rule="evenodd" stroke="none"/>
    <path d="M-44.1 2.15 L-44.05 2.15 Q-48.95 5.2 -52.55 8.55 L-53.35 8.55 -53.4 8.5 -53.5 8.4 -53.6 8.3 -53.75 8.2 -53.85 8.15 -53.9 8.1 -53.95 8.0 -53.95 7.95 Q-50.1 4.1 -44.6 0.7 -26.1 -10.75 -0.05 -10.75 26.1 -10.75 44.55 0.7 L44.6 0.7 Q50.25 4.2 54.2 8.15 L54.0 8.2 53.8 8.3 53.7 8.4 53.55 8.6 53.1 8.6 52.15 8.15 Q48.2 4.7 36.65 -2.0 24.3 -9.25 -1.6 -9.45 -27.5 -9.65 -44.1 2.15" fill="#333333" fill-rule="evenodd" stroke="none"/>
    <path d="M-14.3 6.85 Q-12.35 6.05 -10.0 6.25 -7.3 6.3 -4.55 7.1 -1.95 7.8 -0.25 9.7 L0.35 9.8 0.55 10.45 0.45 10.55 0.1 10.7 -0.25 10.6 -1.55 9.75 Q-6.65 6.25 -12.75 7.65 -15.65 8.2 -18.0 10.1 L-18.5 10.5 -19.05 10.35 -19.1 10.25 Q-19.2 9.85 -18.9 9.45 L-17.95 8.7 -14.3 6.85" fill="#333333" fill-opacity="0.972549" fill-rule="evenodd" stroke="none"/>
    <path d="M-27.9 5.6 Q-24.6 5.4 -22.15 7.1 -21.05 7.85 -20.1 9.0 -19.7 9.5 -19.1 9.5 -18.75 9.5 -18.85 9.8 L-18.9 9.9 -18.9 10.0 -18.95 10.1 -19.2 10.25 -19.65 10.35 Q-20.55 10.2 -21.15 9.55 -24.2 6.55 -28.9 6.7 -32.25 6.75 -35.2 8.5 L-35.8 8.9 -36.05 9.05 -36.6 9.45 Q-36.9 9.45 -37.0 9.25 L-37.15 9.2 -37.2 9.1 -37.25 9.0 -37.2 8.9 Q-37.2 8.5 -36.85 8.2 -35.1 6.8 -32.6 5.95 L-27.9 5.6" fill="#333333" fill-opacity="0.972549" fill-rule="evenodd" stroke="none"/>
    <path d="M-41.65 6.15 Q-45.45 5.05 -49.15 6.55 -50.05 6.85 -50.6 7.4 -51.05 7.85 -51.75 8.15 L-52.35 8.1 -52.35 8.0 Q-51.05 6.35 -49.75 5.75 -45.9 4.05 -41.85 4.85 -38.5 5.65 -36.9 8.8 L-36.6 9.45 -37.15 9.65 -37.3 9.65 -37.35 9.7 -37.7 9.85 -38.4 8.75 Q-39.5 6.85 -41.65 6.15" fill="#333333" fill-opacity="0.972549" fill-rule="evenodd" stroke="none"/>
    <path d="M13.8 6.85 Q11.85 6.05 9.5 6.25 6.8 6.3 4.05 7.1 1.45 7.8 -0.25 9.7 L-0.85 9.8 -1.05 10.45 -0.95 10.55 -0.6 10.7 -0.25 10.6 1.05 9.75 Q6.15 6.25 12.25 7.65 15.15 8.2 17.5 10.1 L18.0 10.5 18.55 10.35 18.6 10.25 Q18.7 9.85 18.4 9.45 L17.45 8.7 13.8 6.85" fill="#333333" fill-opacity="0.972549" fill-rule="evenodd" stroke="none"/>
    <path d="M27.4 5.6 Q24.1 5.4 21.65 7.1 20.55 7.85 19.6 9.0 19.2 9.5 18.6 9.5 18.25 9.5 18.35 9.8 L18.4 9.9 18.4 10.0 18.45 10.1 18.7 10.25 19.15 10.35 Q20.05 10.2 20.65 9.55 23.7 6.55 28.4 6.7 31.75 6.75 34.7 8.5 L36.05 9.45 Q36.4 9.45 36.5 9.25 L36.65 9.2 36.7 9.1 36.75 9.0 36.7 8.9 Q36.7 8.5 36.35 8.2 34.6 6.8 32.1 5.95 L27.4 5.6" fill="#333333" fill-opacity="0.972549" fill-rule="evenodd" stroke="none"/>
    <path d="M49.35 6.85 L51.75 7.95 51.85 8.0 Q50.15 5.85 47.7 5.05 42.7 3.45 38.55 6.3 37.15 7.3 36.35 9.0 L36.2 9.4 36.1 9.6 36.25 9.7 36.4 9.8 36.5 9.9 36.65 10.0 36.75 10.1 36.8 10.15 Q37.8 8.6 39.1 7.45 41.35 5.4 44.25 5.65 46.95 5.75 49.25 6.9 L49.35 6.85" fill="#333333" fill-opacity="0.972549" fill-rule="evenodd" stroke="none"/>
    <path d="M-40.9 3.55 L-40.85 3.6 -40.85 3.8 -40.9 3.9 -41.0 4.05 -41.1 4.15 -41.1 4.2 -41.3 4.5 -41.45 4.8 -41.6 4.95 -41.6 5.05 -41.55 5.1 -41.55 5.2 -41.6 5.25 -41.7 5.3 -41.75 5.35 -41.75 5.4 -41.8 5.45 -41.85 5.45 -41.95 5.5 -42.05 5.45 -42.1 5.4 -42.15 5.35 -42.15 5.25 -42.2 5.1 -42.2 5.0 -41.8 4.45 -41.4 3.95 -41.25 3.75 -41.15 3.65 -41.05 3.6 -41.0 3.55 -40.95 3.5 -40.9 3.5 -40.9 3.55" fill="#333333" fill-rule="evenodd" stroke="none"/>
    <path d="M-39.05 2.6 L-39.0 2.65 -39.0 2.85 -39.25 3.2 -39.6 3.65 -39.75 3.9 -39.8 3.95 -39.8 4.05 -39.9 4.15 -40.0 4.3 -40.0 4.4 -40.05 4.45 -40.05 4.5 -40.1 4.55 -40.15 4.55 -40.15 4.6 -40.25 4.6 -40.25 4.65 -40.4 4.65 -40.45 4.6 -40.45 4.3 -40.4 4.25 -40.4 4.1 -40.0 3.55 -39.6 2.95 -39.2 2.6 -39.15 2.6 -39.05 2.6" fill="#333333" fill-rule="evenodd" stroke="none"/>
    <path d="M-10.45 4.9 L-10.4 4.95 -10.4 5.05 -10.45 5.1 -10.45 5.2 -10.5 5.25 -10.5 5.35 -10.55 5.5 -10.6 5.6 -10.65 5.75 -10.65 5.8 -10.7 5.85 -10.7 5.9 -10.75 6.1 -10.8 6.3 -10.85 6.55 -10.85 6.65 -10.9 6.7 -11.0 6.7 -11.1 6.65 -11.15 6.6 -11.2 6.55 -11.2 6.3 -11.15 5.95 -11.05 5.65 -11.0 5.6 -11.0 5.55 -10.95 5.5 -10.95 5.4 -10.85 5.3 -10.85 5.2 -10.8 5.1 -10.7 5.0 -10.65 4.85 -10.6 4.8 -10.55 4.8 -10.45 4.8 -10.45 4.9" fill="#333333" fill-rule="evenodd" stroke="none"/>
    <path d="M-9.65 4.4 L-9.6 4.3 -9.55 4.25 -9.55 4.2 -9.5 4.15 -9.45 4.15 -9.35 4.15 -9.25 4.25 -9.25 4.4 -9.3 4.45 -9.3 4.5 -9.35 4.55 -9.35 4.6 -9.4 4.65 -9.45 4.7 -9.45 4.85 -9.5 4.9 -9.5 5.0 -9.55 5.05 -9.55 5.1 -9.55 5.2 -9.55 5.35 -9.55 5.45 -9.6 5.45 -9.65 5.5 -9.7 5.55 -9.8 5.5 -9.85 5.5 -9.85 5.4 -9.85 5.25 -9.9 5.1 -9.9 5.0 -9.9 4.9 -9.85 4.8 -9.85 4.7 -9.8 4.7 -9.8 4.65 -9.75 4.55 -9.65 4.4" fill="#333333" fill-rule="evenodd" stroke="none"/>
    <path d="M-8.4 4.65 L-8.35 4.7 -8.35 4.75 -8.35 4.85 -8.3 4.95 -8.3 5.0 -8.3 5.15 -8.3 5.3 -8.3 5.5 -8.3 5.55 -8.35 5.85 -8.45 6.2 -8.5 6.5 -8.55 6.55 -8.55 6.65 -8.6 6.7 -8.6 6.8 -8.65 6.85 -8.65 6.9 -8.7 6.95 -8.8 7.0 -8.9 6.95 -8.95 6.9 -9.0 6.85 -9.0 6.7 -9.05 6.65 -9.05 6.55 -9.0 6.5 -9.0 6.45 -8.95 6.35 -8.95 6.3 -8.85 6.05 -8.8 5.75 -8.75 5.45 -8.75 5.4 -8.75 5.3 -8.75 5.2 -8.75 5.1 -8.75 4.9 -8.7 4.85 -8.7 4.75 -8.65 4.7 -8.6 4.65 -8.5 4.65 -8.4 4.65" fill="#333333" fill-rule="evenodd" stroke="none"/>
    <path d="M40.7 3.85 L40.95 4.1 41.1 4.2 41.3 4.4 41.6 4.65 41.7 4.75 41.75 4.8 41.9 4.9 42.0 4.95 42.1 5.05 42.15 5.15 42.2 5.2 42.2 5.3 42.15 5.35 42.15 5.4 42.1 5.45 42.0 5.5 41.9 5.45 41.85 5.4 41.8 5.35 41.65 5.25 41.4 5.1 41.05 4.75 40.8 4.5 40.7 4.35 40.55 4.25 40.35 4.05 40.3 3.95 40.25 3.85 40.25 3.75 40.25 3.65 40.25 3.55 40.3 3.5 40.4 3.45 40.5 3.5 40.5 3.55 40.55 3.55 40.55 3.6 40.7 3.85" fill="#333333" fill-rule="evenodd" stroke="none"/>
    <path d="M39.5 4.15 L39.6 4.25 39.7 4.4 39.75 4.45 39.75 4.55 39.7 4.6 39.75 4.65 39.75 4.75 39.65 4.75 39.65 4.7 39.6 4.65 39.5 4.65 39.35 4.5 39.25 4.35 39.2 4.25 38.8 3.95 38.6 3.7 38.55 3.6 38.5 3.5 38.5 3.45 38.4 3.35 38.4 3.25 38.45 3.2 38.6 3.2 38.7 3.25 38.7 3.3 38.85 3.5 39.0 3.65 39.15 3.8 39.3 3.9 39.35 3.95 39.45 4.0 39.5 4.15" fill="#333333" fill-rule="evenodd" stroke="none"/>
  </g>
</svg>
