<?xml version="1.0" encoding="UTF-8" standalone="no"?>
<svg xmlns:xlink="http://www.w3.org/1999/xlink" height="28.3px" width="41.15px" xmlns="http://www.w3.org/2000/svg">
  <g transform="matrix(1.0, 0.0, 0.0, 1.0, 21.1, 0.5)">
    <path d="M19.25 7.3 L19.25 27.0 -20.3 27.0 -20.3 7.3 -7.25 7.3 0.05 0.0 7.35 7.3 19.25 7.3" fill="#65b3a0" fill-rule="evenodd" stroke="none"/>
    <path d="M19.25 7.3 Q19.6 8.2 19.55 9.3 19.55 10.4 19.2 11.35 18.9 12.3 19.0 13.3 L19.1 15.5 19.3 17.45 Q19.55 18.2 19.3 19.3 19.05 20.4 19.25 21.15 19.5 21.9 19.35 23.1 L19.15 24.8 19.25 27.0 17.2 26.75 15.15 26.95 13.35 26.9 11.4 26.75 9.35 26.85 7.4 27.05 5.45 27.05 3.4 27.15 1.2 27.3 -0.85 27.15 -2.75 27.0 -4.75 27.15 -7.05 27.05 -9.05 26.85 -10.7 26.9 -12.7 26.9 -14.85 26.9 -16.85 27.1 -18.3 27.25 -20.3 27.0 -20.3 25.5 -20.15 23.4 -19.95 20.9 -20.15 18.65 -20.25 16.85 Q-20.15 16.0 -20.45 15.1 -20.75 14.2 -20.45 13.25 L-20.05 11.3 Q-19.95 10.35 -20.2 9.65 L-20.3 7.3 -18.45 7.1 -16.35 7.15 -14.45 7.15 -12.25 7.3 -10.15 7.35 -8.95 7.2 -7.25 7.3 -6.5 6.5 -5.65 5.55 -4.25 4.55 Q-3.3 3.9 -2.9 2.8 -2.5 1.75 -1.35 1.2 -0.2 0.7 0.05 0.0 L0.7 0.65 1.8 1.7 3.2 2.85 4.45 4.25 Q5.05 5.2 5.95 5.7 6.9 6.2 7.35 7.3 L9.35 7.1 11.25 7.05 Q12.4 6.85 13.4 7.05 L15.4 7.3 16.85 7.3 19.25 7.3 M-7.25 7.3 L-5.8 7.45 -3.9 7.3 Q-4.35 7.35 -4.6 8.7 L-2.65 8.7 -0.6 8.65 1.2 8.7 3.05 8.75 4.1 8.7 Q3.8 8.55 3.45 7.3 L5.2 7.45 7.35 7.3" fill="none" stroke="#65b3a0" stroke-linecap="round" stroke-linejoin="round" stroke-width="1.0"/>
  </g>
</svg>
