<?xml version="1.0" encoding="UTF-8" standalone="no"?>
<svg xmlns:xlink="http://www.w3.org/1999/xlink" height="7.1px" width="7.2px" xmlns="http://www.w3.org/2000/svg">
  <g transform="matrix(1.0, 0.0, 0.0, 1.0, 3.25, 3.3)">
    <path d="M2.5 -0.8 L2.45 -0.85 2.45 -0.9 2.4 -0.95 2.4 -1.1 2.45 -1.15 2.45 -1.2 2.55 -1.3 2.7 -1.35 2.8 -1.3 2.95 -1.2 3.1 -1.1 3.3 -1.0 3.35 -1.0 3.45 -0.9 3.6 -0.75 3.65 -0.65 3.75 -0.5 3.75 -0.45 3.8 -0.2 3.8 0.2 3.75 0.75 3.7 1.1 3.6 1.25 3.5 1.35 3.4 1.5 3.25 1.65 3.25 1.7 3.2 1.75 3.2 1.85 3.15 1.9 3.15 2.0 3.1 2.05 3.05 2.1 3.05 2.2 3.0 2.25 3.0 2.35 2.95 2.45 2.85 2.55 2.8 2.65 2.7 2.75 2.55 2.8 2.25 3.0 1.95 3.2 1.65 3.25 1.55 3.35 1.2 3.5 1.05 3.6 -0.05 3.6 -0.2 3.55 -0.25 3.5 -1.8 3.45 -2.1 3.35 -2.15 3.3 -2.25 3.25 -2.3 3.2 -2.4 3.15 -2.5 3.05 -2.55 2.95 -2.65 2.85 -2.7 2.75 -2.75 2.6 -2.8 2.55 -2.8 2.5 -2.85 2.45 -3.05 2.3 -3.1 2.2 -3.2 2.05 -3.2 2.0 -3.2 1.85 -3.2 1.75 -3.2 1.6 -3.25 1.35 -3.2 1.15 -3.2 1.1 -3.15 1.05 -3.05 1.0 -3.05 0.85 -3.0 0.8 -2.95 0.75 -2.85 0.7 -2.75 0.75 -2.6 0.8 -2.55 0.85 -2.5 0.95 -2.4 1.0 -2.35 1.1 -2.25 1.2 -2.2 1.3 -2.15 1.45 -2.1 1.6 -2.1 1.75 -2.1 2.05 -2.1 2.2 -2.1 2.25 -2.05 2.3 -2.0 2.35 -1.95 2.35 -0.25 2.4 0.15 2.5 0.15 2.55 0.2 2.6 0.25 2.65 0.25 2.95 0.3 2.95 0.35 2.9 0.4 2.9 0.5 2.85 0.55 2.8 0.6 2.8 0.75 2.75 0.75 2.7 0.85 2.6 0.9 2.55 0.95 2.5 1.0 2.45 1.05 2.4 1.05 2.35 1.1 2.3 1.1 2.25 1.15 2.25 1.2 2.2 1.3 2.2 1.45 2.15 1.55 2.2 1.6 2.25 1.65 2.25 1.7 2.2 1.75 2.15 1.75 2.0 1.8 1.95 1.8 1.9 1.85 1.85 1.85 1.8 1.95 1.7 1.95 1.55 2.05 1.4 2.1 1.25 2.2 1.15 2.35 0.9 2.4 0.85 2.4 0.8 2.45 0.7 2.45 0.55 2.5 0.5 2.5 0.45 2.6 0.35 2.65 0.25 2.65 0.2 2.7 0.15 2.75 0.05 2.75 0.0 2.75 -0.1 2.75 -0.2 2.7 -0.25 2.65 -0.35 2.65 -0.4 2.6 -0.45 2.6 -0.5 2.55 -0.55 2.55 -0.7 2.5 -0.75 2.5 -0.8 M2.65 1.45 L2.7 1.4 2.7 1.35 2.65 1.4 2.65 1.45 2.6 1.5 2.6 1.55 2.65 1.5 2.65 1.45" fill="#663366" fill-opacity="0.16078432" fill-rule="evenodd" stroke="none"/>
    <path d="M2.5 -2.65 L2.6 -2.6 2.75 -2.5 2.85 -2.35 2.95 -2.25 3.0 -2.2 3.0 -2.1 3.05 -2.05 3.05 -1.9 3.1 -1.9 3.2 -1.9 3.3 -1.85 3.35 -1.8 3.4 -1.75 3.6 -1.6 3.75 -1.35 3.9 -1.1 3.9 -1.0 3.95 -1.0 3.95 -0.9 3.95 -0.6 3.95 -0.25 3.9 0.05 3.9 0.3 3.9 0.45 3.9 0.55 3.9 0.75 3.9 0.95 3.9 1.1 3.9 1.15 3.85 1.2 3.85 1.25 3.8 1.25 3.8 1.35 3.8 1.45 3.75 1.55 3.75 1.65 3.75 1.7 3.7 1.75 3.7 1.85 3.65 1.9 3.55 2.05 3.4 2.3 3.2 2.6 3.2 2.65 2.8 3.05 2.15 3.5 2.0 3.6 -0.65 3.7 -0.85 3.65 -0.9 3.6 -0.95 3.55 -0.95 3.5 -1.05 3.5 -1.2 3.45 -1.4 3.4 -1.55 3.25 -1.55 3.2 -1.9 2.95 -2.3 2.5 -2.45 2.3 -2.5 2.2 -2.6 2.0 -2.6 1.8 -2.65 1.65 -2.6 1.6 -2.55 1.55 -2.5 1.55 -2.45 1.5 -2.35 1.45 -2.2 1.5 -2.1 1.6 -2.1 1.65 -2.05 1.7 -2.0 1.75 -1.8 1.9 -1.6 2.1 -1.4 2.25 -1.2 2.4 -0.95 2.55 -0.85 2.65 1.75 2.7 1.8 2.65 1.85 2.6 1.95 2.55 2.1 2.5 2.2 2.4 2.2 2.15 2.2 2.05 2.25 1.95 2.35 1.85 2.4 1.75 2.45 1.7 2.45 1.65 2.5 1.6 2.5 1.55 2.55 1.5 2.55 1.45 2.6 1.4 2.6 1.35 2.65 1.3 2.75 0.9 2.75 0.4 2.8 0.05 2.9 -0.25 2.9 -0.5 2.85 -0.55 2.85 -0.6 2.8 -0.65 2.75 -0.7 2.65 -0.7 2.3 -0.8 2.15 -0.8 2.1 -0.85 2.0 -0.95 2.0 -1.0 1.95 -1.1 1.95 -1.2 1.95 -1.3 1.95 -1.45 2.0 -1.5 2.0 -1.55 2.05 -1.6 2.15 -1.7 2.25 -1.7 2.45 -1.7 2.5 -1.7 2.5 -1.9 2.4 -2.0 2.35 -2.1 2.25 -2.2 2.2 -2.25 2.15 -2.25 2.15 -2.4 2.2 -2.45 2.2 -2.5 2.3 -2.6 2.45 -2.6 2.45 -2.65 2.5 -2.65" fill="#663366" fill-opacity="0.16078432" fill-rule="evenodd" stroke="none"/>
    <path d="M1.85 -1.3 Q2.2 -0.4 2.0 0.3 L1.6 1.7 -0.4 2.35 Q-0.95 2.35 -1.35 1.9 L-1.35 1.85 Q-1.9 1.3 -2.15 0.35 -2.4 -0.55 -1.95 -1.15 L-0.65 -2.05 0.9 -2.25 1.85 -1.3" fill="#33ff66" fill-rule="evenodd" stroke="none"/>
    <path d="M0.3 -1.75 L0.35 -1.7 0.35 -1.65 0.4 -1.6 0.5 -1.55 0.6 -1.45 0.6 -1.4 0.65 -1.3 0.65 -1.25 0.65 -1.1 0.65 -1.0 0.65 -0.85 0.6 -0.75 0.6 -0.65 0.55 -0.6 0.5 -0.5 0.45 -0.4 0.35 -0.25 0.3 -0.25 0.2 -0.2 0.1 -0.15 0.05 -0.1 -1.0 -0.1 -1.3 -0.15 -1.4 -0.2 -1.4 -0.25 -1.45 -0.3 -1.45 -0.35 -1.5 -0.4 -1.5 -0.6 -1.5 -0.7 -1.5 -0.8 -1.45 -0.85 -1.45 -1.0 -1.4 -1.05 -1.4 -1.1 -1.3 -1.2 -1.25 -1.25 -1.2 -1.25 -1.2 -1.35 -1.15 -1.4 -1.1 -1.45 -1.05 -1.5 -0.95 -1.55 -0.95 -1.6 -0.9 -1.65 -0.9 -1.7 -0.8 -1.75 -0.7 -1.8 -0.65 -1.8 -0.55 -1.85 -0.3 -1.85 0.0 -1.8 0.3 -1.75" fill="#ffffff" fill-opacity="0.17254902" fill-rule="evenodd" stroke="none"/>
    <path d="M0.5 -1.7 L0.55 -1.65 0.6 -1.6 0.6 -1.55 0.65 -1.5 0.65 -1.4 0.65 -1.25 0.65 -1.0 0.65 -0.9 0.6 -0.85 0.6 -0.8 0.45 -0.65 0.15 -0.4 -0.05 -0.25 -0.1 -0.2 -0.1 -0.15 -0.15 -0.1 -0.15 -0.05 -0.2 0.0 -0.25 0.0 -0.35 0.05 -0.5 0.05 -0.6 0.0 -0.7 0.0 -0.7 -0.05 -1.05 -0.1 -1.2 -0.1 -1.3 -0.15 -1.35 -0.2 -1.4 -0.25 -1.45 -0.3 -1.45 -0.4 -1.5 -0.45 -1.5 -0.5 -1.55 -0.5 -1.55 -0.7 -1.55 -0.8 -1.55 -0.9 -1.55 -0.95 -1.65 -1.05 -1.65 -1.3 -1.6 -1.35 -1.6 -1.4 -1.55 -1.45 -1.45 -1.5 -1.35 -1.55 -1.2 -1.6 -1.15 -1.65 -1.15 -1.7 -1.05 -1.7 -0.75 -1.75 -0.6 -1.8 0.15 -1.75 0.5 -1.7 M0.1 -1.3 L0.1 -1.1 0.05 -1.05 0.05 -1.0 0.0 -0.95 0.0 -0.85 0.15 -1.0 0.15 -1.1 0.15 -1.3 0.1 -1.3" fill="#ffffff" fill-opacity="0.17254902" fill-rule="evenodd" stroke="none"/>
    <path d="M0.0 -1.05 L0.0 -1.0 -0.1 -0.9 -0.2 -0.85 -0.3 -0.8 -0.3 -0.75 -0.35 -0.75 -0.4 -0.7 -0.4 -0.65 -0.45 -0.6 -0.55 -0.6 -1.0 -0.6 -1.1 -0.6 -1.2 -0.65 -1.25 -0.7 -1.35 -0.75 -1.4 -0.8 -1.45 -0.85 -1.55 -0.9 -1.6 -0.95 -1.65 -1.0 -1.65 -1.3 -1.6 -1.35 -1.55 -1.4 -1.45 -1.45 -1.3 -1.5 -1.15 -1.55 -0.95 -1.6 -0.85 -1.6 -0.45 -1.6 -0.35 -1.6 -0.2 -1.55 -0.1 -1.5 -0.05 -1.45 0.0 -1.4 0.0 -1.15 0.0 -1.05" fill="#ffffff" fill-opacity="0.17254902" fill-rule="evenodd" stroke="none"/>
    <path d="M0.25 -1.15 L0.25 -0.8 0.2 -0.75 0.2 -0.65 0.15 -0.6 0.15 -0.55 0.05 -0.45 0.0 -0.4 -0.1 -0.35 -0.2 -0.3 -0.2 -0.25 -0.3 -0.25 -0.35 -0.25 -0.4 -0.2 -0.5 -0.2 -0.75 -0.2 -1.15 -0.25 -1.35 -0.3 -1.4 -0.35 -1.5 -0.4 -1.6 -0.45 -1.65 -0.5 -1.7 -0.55 -1.7 -0.6 -1.75 -0.65 -1.75 -0.7 -1.8 -0.75 -1.8 -0.85 -1.8 -0.95 -1.8 -1.05 -1.75 -1.15 -1.75 -1.25 -1.7 -1.3 -1.7 -1.35 -1.65 -1.4 -1.6 -1.4 -1.4 -1.5 -1.15 -1.55 -1.0 -1.6 -0.6 -1.55 -0.25 -1.55 0.0 -1.45 0.05 -1.4 0.1 -1.35 0.1 -1.3 0.15 -1.25 0.2 -1.2 0.25 -1.15 M-1.4 -1.05 L-1.4 -0.9 -1.35 -0.95 -1.3 -1.0 -1.2 -1.1 -1.2 -1.15 -1.1 -1.15 -1.0 -1.15 -0.8 -1.1 -0.75 -1.05 -0.75 -0.9 -0.8 -0.85 -0.85 -0.9 -0.85 -0.95 -1.05 -0.95 -1.15 -0.85 -1.15 -0.8 -1.2 -0.75 -1.15 -0.7 -1.1 -0.7 -1.0 -0.65 -0.95 -0.6 -0.75 -0.6 -0.7 -0.55 -0.55 -0.55 -0.45 -0.55 -0.4 -0.55 -0.3 -0.6 -0.2 -0.65 -0.2 -0.7 -0.15 -0.75 -0.15 -0.95 -0.15 -1.05 -0.2 -1.1 -0.2 -1.15 -0.45 -1.2 -1.05 -1.2 -1.15 -1.2 -1.25 -1.15 -1.35 -1.1 -1.4 -1.05" fill="#ffffff" fill-opacity="0.17254902" fill-rule="evenodd" stroke="none"/>
    <path d="M0.25 -1.1 L0.2 -1.05 0.2 -0.75 0.2 -0.65 0.2 -0.55 0.2 -0.45 0.2 -0.4 0.2 -0.3 0.2 -0.25 0.05 -0.1 0.0 -0.05 -0.1 0.0 -0.15 0.05 -0.2 0.1 -0.3 0.15 -0.35 0.15 -0.45 0.15 -0.5 0.2 -0.95 0.15 -1.05 0.15 -1.15 0.1 -1.15 0.05 -1.25 0.0 -1.4 -0.05 -1.5 -0.1 -1.55 -0.15 -1.6 -0.2 -1.6 -0.55 -1.65 -0.6 -1.7 -0.65 -1.7 -0.7 -1.7 -0.8 -1.7 -0.9 -1.7 -1.0 -1.7 -1.2 -1.65 -1.25 -1.65 -1.35 -1.6 -1.4 -1.5 -1.5 -1.5 -1.55 -1.4 -1.65 -1.3 -1.65 -1.3 -1.7 -0.75 -1.7 -0.65 -1.65 -0.6 -1.65 -0.5 -1.65 -0.2 -1.65 -0.05 -1.6 0.05 -1.55 0.1 -1.5 0.15 -1.5 0.2 -1.45 0.2 -1.3 0.25 -1.25 0.25 -1.1" fill="#ffffff" fill-opacity="0.17254902" fill-rule="evenodd" stroke="none"/>
    <path d="M-1.3 -0.9 L-1.3 -1.0 -1.3 -1.1 -1.3 -1.15 -1.25 -1.2 -1.2 -1.25 -1.1 -1.35 -1.0 -1.35 -0.5 -1.35 -0.4 -1.35 -0.35 -1.3 -0.3 -1.25 -0.3 -1.2 -0.3 -1.1 -0.3 -0.95 -0.35 -0.75 -0.4 -0.75 -0.45 -0.7 -0.55 -0.65 -0.65 -0.6 -0.7 -0.6 -0.95 -0.55 -1.05 -0.6 -1.1 -0.65 -1.2 -0.7 -1.25 -0.75 -1.3 -0.75 -1.3 -0.9" fill="#ffffff" fill-opacity="0.17254902" fill-rule="evenodd" stroke="none"/>
    <path d="M0.15 -2.1 L0.25 -2.1 0.25 -2.15 0.55 -2.0 0.9 -1.9 1.15 -1.75 1.2 -1.7 1.2 -1.65 1.25 -1.6 1.25 -1.45 1.3 -1.4 1.3 -1.3 1.3 -0.9 1.3 -0.75 1.3 -0.6 1.3 -0.5 1.3 -0.35 1.25 -0.05 1.0 0.25 0.15 0.7 -0.2 0.9 -0.35 0.9 -1.35 0.8 -1.7 0.55 -1.8 0.5 -1.85 0.45 -1.95 0.4 -2.0 0.35 -2.1 0.25 -2.15 0.15 -2.2 0.1 -2.2 0.05 -2.45 -0.2 -2.45 -0.25 -2.5 -0.4 -2.5 -0.5 -2.5 -0.6 -2.5 -0.7 -2.5 -0.85 -2.45 -0.95 -2.35 -1.15 -2.25 -1.3 -1.95 -1.55 -1.7 -1.8 -1.65 -1.85 -1.6 -1.9 -1.5 -1.95 -1.45 -2.0 -1.0 -2.1 -0.2 -2.1 -0.05 -2.05 0.05 -2.1 0.15 -2.1 M0.15 -0.85 L0.15 -1.0 0.15 -1.1 0.05 -1.2 -0.05 -1.3 -0.15 -1.3 -1.0 -1.3 -1.1 -1.2 -1.1 -1.15 -1.15 -1.0 -1.15 -0.85 -1.1 -0.65 -1.1 -0.6 -1.05 -0.5 -0.8 -0.4 -0.2 -0.4 -0.05 -0.45 0.1 -0.55 0.1 -0.6 0.15 -0.65 0.15 -0.75 0.15 -0.85" fill="#ffffff" fill-opacity="0.17254902" fill-rule="evenodd" stroke="none"/>
    <path d="M2.8 -1.7 L2.8 -1.65 Q3.3 -0.3 2.95 0.65 L2.55 2.1 2.45 2.35 2.3 2.5 -0.35 3.35 -0.4 3.35 Q-1.35 3.4 -2.1 2.55 -2.8 1.8 -3.1 0.6 -3.5 -0.75 -2.75 -1.75 -2.05 -2.6 -1.0 -3.0 L1.05 -3.25 Q2.2 -3.1 2.8 -1.7 M1.85 -1.3 L0.9 -2.25 -0.65 -2.05 -1.95 -1.15 Q-2.4 -0.55 -2.15 0.35 -1.9 1.3 -1.35 1.85 L-1.35 1.9 Q-0.95 2.35 -0.4 2.35 L1.6 1.7 2.0 0.3 Q2.2 -0.4 1.85 -1.3" fill="#333333" fill-rule="evenodd" stroke="none"/>
    <path d="M2.15 0.75 L2.25 0.8 2.25 0.85 2.3 0.9 2.3 1.5 2.25 1.55 2.25 1.6 2.2 1.65 2.15 1.75 2.1 1.85 1.9 2.0 1.8 2.1 1.6 2.15 1.45 2.2 1.0 2.25 0.95 2.3 0.8 2.4 0.6 2.45 0.45 2.55 0.4 2.55 -0.25 2.6 -0.4 2.55 -0.45 2.5 -0.7 2.4 -0.85 2.3 -0.9 2.25 -0.95 2.25 -0.95 2.1 -1.0 2.05 -1.0 2.0 -1.05 1.95 -1.05 1.9 -1.1 1.85 -1.1 1.7 -1.1 1.6 -1.1 1.5 -1.1 1.4 -1.1 1.35 -0.95 1.15 -0.65 0.85 -0.35 0.75 -0.3 0.7 -0.15 0.6 -0.05 0.5 0.05 0.45 0.15 0.4 0.25 0.4 0.3 0.4 0.35 0.35 0.45 0.35 0.55 0.3 1.05 0.35 1.55 0.4 1.85 0.5 1.95 0.55 2.05 0.65 2.15 0.75" fill="#663366" fill-opacity="0.16078432" fill-rule="evenodd" stroke="none"/>
    <path d="M1.6 1.3 L1.65 1.35 1.65 1.55 1.65 1.65 1.65 1.75 1.65 1.8 1.6 1.85 1.6 1.9 1.55 1.95 1.55 2.0 1.5 2.0 1.4 2.0 1.4 2.05 1.3 2.05 0.85 2.15 0.85 2.2 0.8 2.25 0.75 2.25 0.75 2.3 0.65 2.3 0.25 2.3 0.15 2.25 0.1 2.25 0.05 2.2 -0.1 2.15 -0.15 2.1 -0.2 2.05 -0.2 1.95 -0.2 1.85 -0.2 1.7 -0.2 1.5 -0.2 1.4 -0.2 1.35 -0.15 1.3 -0.15 1.25 -0.1 1.2 0.0 1.1 0.05 1.05 0.15 1.05 0.25 1.05 0.3 1.0 0.4 1.0 0.9 1.0 1.25 1.05 1.4 1.1 1.55 1.25 1.6 1.25 1.6 1.3 M1.2 1.7 L1.25 1.65 1.25 1.6 1.2 1.7" fill="#663366" fill-opacity="0.16078432" fill-rule="evenodd" stroke="none"/>
  </g>
</svg>
