<?xml version="1.0" encoding="UTF-8" standalone="no"?>
<svg xmlns:xlink="http://www.w3.org/1999/xlink" height="13.0px" width="966.5px" xmlns="http://www.w3.org/2000/svg">
  <g transform="matrix(1.0, 0.0, 0.0, 1.0, 320.65, 7.2)">
    <path d="M3.25 -4.3 L6.55 -4.4 9.75 -4.5 13.05 -4.6 16.25 -4.65 22.75 -4.8 29.25 -4.85 35.75 -4.9 42.25 -4.95 45.55 -5.0 48.75 -5.0 52.05 -5.05 55.25 -5.05 58.55 -5.05 65.05 -5.05 71.55 -5.0 79.95 -4.9 90.25 -4.75 100.55 -4.6 110.85 -4.5 121.15 -4.35 131.45 -4.2 141.75 -4.0 152.05 -3.85 162.35 -3.65 172.7 -3.45 183.0 -3.25 193.3 -3.0 203.6 -2.75 213.9 -2.55 224.2 -2.3 234.5 -2.1 244.7 -1.85 254.7 -1.7 264.75 -1.7 274.75 -1.8 284.8 -2.05 294.8 -2.3 304.8 -2.8 314.8 -3.4 319.8 -3.8 320.0 3.05 320.05 -3.8 324.35 -4.0 328.6 -4.2 332.9 -4.35 337.1 -4.55 341.4 -4.65 345.6 -4.85 349.9 -4.95 358.4 -5.15 371.1 -5.3 379.6 -5.35 388.1 -5.35 398.8 -5.2 409.5 -5.1 420.2 -4.95 430.9 -4.8 441.6 -4.65 447.0 -4.55 452.3 -4.5 457.7 -4.4 463.0 -4.3 468.3 -4.25 473.6 -4.15 479.0 -4.0 484.3 -3.9 489.7 -3.8 495.0 -3.7 500.4 -3.55 505.7 -3.45 511.1 -3.35 516.4 -3.25 521.8 -3.05 527.1 -2.95 532.5 -2.85 537.8 -2.75 543.2 -2.55 548.5 -2.45 553.8 -2.35 559.1 -2.25 564.4 -2.1 569.65 -2.0 580.15 -1.95 590.65 -2.0 601.15 -2.15 611.7 -2.35 622.2 -2.75 632.7 -3.3 643.2 -4.0 643.2 4.9 639.4 4.7 635.5 4.65 631.6 4.7 627.7 4.95 624.0 5.15 620.2 5.35 616.4 5.5 608.85 5.7 597.45 5.8 589.85 5.75 582.25 5.65 574.65 5.55 567.0 5.15 559.7 4.85 552.3 4.45 544.9 4.15 541.2 3.95 537.5 3.75 533.8 3.65 530.1 3.45 526.4 3.3 522.7 3.1 519.0 3.0 515.3 2.8 511.6 2.6 507.9 2.4 504.2 2.3 500.5 2.1 496.8 2.0 493.1 1.8 489.4 1.7 485.7 1.5 482.0 1.35 478.3 1.15 474.6 1.05 470.9 0.9 467.2 0.8 463.5 0.6 459.8 0.5 456.1 0.3 448.7 0.0 436.8 -0.25 424.8 -0.4 412.85 -0.4 400.85 -0.2 388.95 0.1 376.95 0.55 364.95 1.15 352.95 1.9 348.85 2.25 344.7 2.55 340.6 2.9 336.4 3.2 332.3 3.6 328.1 3.9 324.0 4.25 319.8 4.55 319.1 3.25 316.9 3.4 314.7 3.6 311.2 3.9 307.6 4.15 304.1 4.4 300.5 4.6 297.0 4.75 289.85 5.05 279.15 5.35 272.05 5.5 264.95 5.55 257.75 5.55 257.25 5.25 253.1 5.3 248.9 5.4 244.7 5.35 240.5 5.3 236.35 5.3 232.15 5.1 227.95 4.9 217.95 4.2 200.35 2.7 188.65 1.65 176.9 0.55 165.0 -0.15 153.05 -0.7 141.05 -1.05 129.05 -1.25 123.25 -1.25 117.45 -1.2 111.65 -1.2 105.75 -1.1 99.95 -0.95 94.15 -0.85 88.35 -0.65 78.75 -0.3 74.9 0.2 65.85 0.45 56.75 0.7 47.75 1.05 38.65 1.4 29.65 1.9 20.65 2.4 11.7 2.95 2.7 3.55 -3.2 3.95 -9.15 4.25 -15.05 4.55 -21.05 4.75 -26.95 5.0 -32.95 5.15 -38.95 5.25 -44.95 5.35 -51.05 5.4 -57.25 5.5 -63.35 5.5 -69.55 5.4 -75.65 5.4 -81.85 5.3 -88.0 5.15 -94.2 4.9 -100.3 4.7 -106.5 4.45 -112.6 4.15 -118.8 3.75 -124.9 3.4 -131.1 2.95 -137.2 2.5 -146.9 1.75 -154.0 1.25 -161.1 0.75 -168.3 0.4 -175.4 0.1 -182.55 -0.1 -189.65 -0.3 -196.85 -0.4 -205.95 -0.45 -211.55 -0.45 -217.05 -0.45 -222.65 -0.35 -228.15 -0.2 -233.75 -0.1 -239.35 0.05 -244.95 0.2 -250.45 0.45 -256.05 0.7 -261.6 1.0 -267.2 1.25 -272.7 1.65 -278.3 2.0 -283.9 2.4 -293.3 2.95 -301.05 3.35 -308.75 3.7 -316.5 4.05 -320.4 4.15 -319.75 -3.8 -314.05 -4.0 -308.35 -4.3 -302.65 -4.55 -297.05 -4.85 -293.45 -4.9 -289.95 -5.0 -286.35 -5.15 -279.25 -5.35 -268.7 -5.65 -261.6 -5.75 -254.5 -5.8 -247.4 -5.8 -240.4 -5.8 -233.3 -5.7 -226.2 -5.6 -219.1 -5.45 -215.6 -5.4 -212.1 -5.3 -208.5 -5.15 -205.0 -5.05 -201.5 -4.9 -198.0 -4.8 -194.4 -4.6 -190.9 -4.45 -187.4 -4.25 -183.9 -4.15 -179.0 -3.85 -174.2 -3.55 -169.3 -3.3 -164.5 -3.05 -159.6 -2.9 -154.8 -2.7 -150.0 -2.5 -145.2 -2.4 -140.3 -2.2 -135.5 -2.1 -130.7 -2.0 -125.9 -1.9 -121.0 -1.8 -116.2 -1.8 -106.6 -1.75 -96.9 -1.7 -87.25 -1.75 -77.55 -1.85 -67.95 -2.0 -58.25 -2.25 -48.65 -2.5 -38.95 -2.85 -29.35 -3.3 -26.05 -3.45 -22.75 -3.55 -19.45 -3.65 -16.25 -3.75 -12.95 -3.85 -9.75 -3.95 -6.45 -4.05 -3.25 -4.15 0.05 -4.3 3.25 -4.3" fill="#ffffff" fill-opacity="0.2" fill-rule="evenodd" stroke="none"/>
    <path d="M-299.5 -1.6 L-299.2 -1.85 -301.8 -1.75 -299.5 -1.6 M118.0 -1.2 L120.2 -1.05 120.25 -1.05 120.35 -1.1 118.0 -1.2 M0.1 -0.5 L1.35 -0.8 -3.15 -0.5 -3.05 -0.45 -3.0 -0.45 0.1 -0.5 M4.9 -3.8 L5.0 -3.8 Q78.1 -8.7 164.85 -3.8 251.65 1.1 324.8 -3.8 L325.05 -3.8 Q398.15 -8.7 484.9 -3.8 571.7 1.1 644.85 -3.8 L645.1 -3.8 645.1 -1.8 645.45 -1.7 645.8 -1.3 645.8 -0.7 645.35 -0.35 Q642.3 0.75 641.05 -0.55 L641.05 -0.5 640.7 -0.75 640.05 -0.7 Q639.1 -0.05 637.4 0.4 L633.65 1.05 630.75 1.0 628.45 1.4 624.5 1.25 617.9 1.55 611.0 2.15 602.05 2.9 593.35 3.35 584.25 3.6 575.55 4.0 566.35 4.3 Q561.9 4.0 557.35 4.25 L548.35 4.4 539.45 4.25 530.4 3.85 Q525.9 3.55 521.4 3.7 L512.1 3.8 503.1 3.75 494.05 3.15 485.1 2.3 476.3 1.5 467.75 1.05 458.65 0.5 449.05 -0.15 440.0 -0.6 431.65 -1.0 423.1 -1.25 413.65 -1.7 404.35 -1.75 Q399.8 -1.5 395.0 -1.7 L385.7 -2.05 376.9 -2.2 368.1 -1.9 Q363.5 -1.55 358.75 -1.95 354.15 -2.3 350.05 -1.9 L341.25 -1.15 331.9 -0.5 323.1 -0.05 314.2 0.7 305.3 1.2 Q304.6 2.4 303.0 2.05 L300.6 1.8 297.45 1.6 295.05 1.75 291.65 2.25 287.8 2.4 285.15 2.5 Q284.85 2.5 284.65 2.3 L284.45 1.95 Q228.1 5.4 164.1 1.7 L164.1 1.75 164.35 2.25 164.9 2.45 162.1 2.35 162.2 2.35 159.7 2.15 156.1 1.95 153.45 1.8 151.0 1.6 Q149.9 1.5 148.5 0.7 L144.85 0.45 143.9 0.4 141.65 0.9 141.7 0.9 137.6 0.7 135.3 -0.2 132.05 -0.4 Q130.7 -0.05 129.75 0.45 L129.8 0.45 126.35 0.55 Q125.05 -0.05 123.6 0.0 L120.6 0.4 Q118.8 0.85 117.25 0.1 L114.45 -1.2 112.1 -1.05 Q110.3 -0.15 108.05 -0.65 L104.85 -1.1 Q103.25 -1.1 102.0 -1.85 L101.8 -1.95 96.95 -2.1 93.3 -1.85 90.6 -2.15 90.55 -2.15 88.45 -2.1 88.5 -2.1 84.6 -1.2 Q81.05 -0.35 80.1 -1.95 L80.1 -2.0 Q79.6 -2.65 78.65 -2.3 L78.65 -2.35 Q77.0 -1.75 75.7 -1.8 L72.75 -1.85 69.5 -1.85 66.45 -1.85 Q64.9 -1.85 63.3 -2.4 L63.25 -2.4 Q62.15 -2.75 61.0 -1.9 59.05 -0.45 57.0 -1.95 55.8 -2.85 54.7 -2.5 L54.7 -2.55 Q53.1 -2.0 51.45 -2.05 L48.3 -2.5 47.55 -2.6 47.05 -2.6 45.9 -2.35 45.85 -2.35 Q44.15 -1.7 42.35 -1.65 L39.45 -1.5 36.85 -1.45 33.75 -1.35 29.7 -1.25 26.45 -1.45 26.5 -1.45 24.05 -1.75 21.9 -1.7 19.0 -1.15 15.45 -0.55 12.2 -0.45 9.25 -0.55 6.2 -0.4 3.8 0.05 3.8 0.0 0.4 0.95 Q-1.7 1.35 -3.35 1.0 L-5.9 0.5 Q-6.9 0.35 -8.2 1.0 -10.05 1.9 -12.1 1.0 L-14.5 0.9 Q-16.0 1.6 -16.95 1.7 L-19.95 1.95 -23.15 2.05 -25.5 2.3 -25.55 2.3 Q-27.35 2.7 -29.35 2.25 -30.95 1.9 -32.35 2.75 -34.35 3.9 -36.6 3.35 L-39.2 2.9 -41.55 3.05 -45.2 3.15 -48.0 3.45 -50.7 3.8 -53.75 3.6 -53.8 3.6 Q-55.05 3.55 -55.85 4.25 -57.15 5.4 -59.4 4.5 -61.0 3.9 -62.35 3.95 L-66.1 4.25 -69.45 4.3 -69.4 4.3 -71.5 4.25 -74.9 4.3 -74.95 4.3 -77.7 4.75 -80.05 5.5 -80.0 5.5 Q-81.45 5.9 -83.1 4.25 L-86.5 4.15 Q-89.95 5.35 -90.8 4.5 -91.35 4.1 -92.6 3.85 L-92.55 3.85 Q-93.7 3.65 -94.85 4.4 -96.55 5.5 -99.0 4.45 L-101.35 3.6 -102.45 3.6 -104.35 4.3 Q-106.45 5.35 -108.0 5.55 -109.8 5.8 -110.9 4.45 -111.55 3.75 -113.1 3.9 L-116.6 4.0 -120.2 3.55 -123.7 3.3 -125.75 3.7 -125.7 3.7 Q-126.65 4.2 -128.55 4.15 L-131.8 3.85 -133.65 4.05 -137.1 3.85 Q-138.9 3.1 -140.6 2.7 L-142.25 2.45 -143.75 2.35 Q-144.95 2.4 -146.2 3.05 L-146.15 3.05 Q-147.75 4.0 -150.05 4.05 -152.45 4.15 -153.8 3.3 L-155.8 2.25 -158.05 2.35 -161.55 2.45 -161.5 2.45 -164.85 1.95 -164.9 1.95 -168.0 2.2 -167.95 2.2 Q-169.8 2.9 -171.4 1.75 L-171.35 1.75 -172.75 1.7 Q-174.2 2.95 -176.3 1.15 -177.65 0.05 -179.25 0.35 L-181.75 1.0 -184.5 0.8 -187.45 0.1 -190.95 -0.15 -191.0 -0.15 -194.8 -0.4 -197.45 -0.2 Q-199.35 0.35 -200.8 -0.25 L-204.05 -0.35 Q-207.35 0.1 -207.55 -0.95 L-207.55 -1.0 -209.75 -0.95 -213.25 -0.75 -213.2 -0.75 -215.8 -0.45 -219.25 -0.85 -221.95 -1.35 -224.75 -1.1 -227.6 -1.0 -230.5 -1.4 -234.0 -1.75 -236.1 -1.55 -236.05 -1.55 -239.95 -1.65 -240.0 -1.65 Q-242.45 -2.15 -243.45 -2.6 L-244.9 -2.65 Q-246.2 -1.8 -248.05 -2.65 L-248.1 -2.65 -250.35 -2.7 -251.05 -2.45 Q-253.55 -1.35 -254.85 -1.95 L-257.4 -1.65 -257.4 -1.7 Q-259.75 -0.85 -261.5 -1.9 -262.7 -2.6 -263.85 -2.3 L-266.1 -1.9 -269.7 -2.25 -273.1 -2.35 -273.05 -2.35 -275.55 -1.55 -275.5 -1.55 -278.75 -1.45 -281.6 -1.7 -285.45 -1.85 -288.85 -1.7 Q-290.8 -1.3 -291.85 -2.05 L-292.05 -2.15 -292.75 -2.1 -293.25 -1.9 Q-294.7 -1.2 -296.5 -1.1 -297.8 -1.0 -298.45 -0.5 L-298.5 -0.45 Q-299.5 0.6 -302.4 -0.4 L-305.8 -1.55 -308.3 -1.4 -308.4 -1.35 Q-310.0 -0.35 -311.9 -0.3 L-314.75 -0.3 Q-315.1 -0.3 -315.3 -0.55 L-315.5 -1.05 -315.25 -1.6 -314.75 -1.8 -314.75 -3.8 Q-241.7 -8.7 -155.05 -3.8 -68.25 1.1 4.9 -3.8 M-58.85 3.1 Q-57.55 3.6 -56.8 3.1 L-56.7 3.0 -58.85 3.1 M-108.2 4.05 L-106.35 3.55 -109.75 3.5 Q-109.2 4.2 -108.2 4.05 M-80.3 4.0 L-78.7 3.55 -81.6 3.6 Q-80.95 4.1 -80.35 4.05 L-80.3 4.0 M-135.85 2.7 L-134.45 2.8 -134.45 2.75 -135.85 2.7 M-150.1 2.55 L-147.8 2.15 -153.25 1.85 -153.0 2.0 -153.0 2.05 Q-151.95 2.65 -150.1 2.55" fill="#ffffff" fill-opacity="0.2" fill-rule="evenodd" stroke="none"/>
    <path d="M17.05 -5.2 L26.25 -5.95 33.35 -6.05 48.15 -6.55 53.75 -6.75 62.9 -7.0 71.65 -7.1 71.7 -7.1 80.6 -6.65 80.65 -6.65 Q85.25 -6.25 89.6 -6.45 L98.55 -6.7 107.85 -6.7 117.05 -6.6 125.6 -6.6 134.55 -6.25 134.6 -6.25 143.75 -5.6 152.75 -5.15 161.55 -4.55 161.6 -4.55 164.8 -4.25 181.55 -3.5 188.35 -3.6 197.25 -3.25 206.45 -2.85 Q211.2 -3.0 215.75 -2.7 L224.9 -2.4 234.1 -2.3 234.15 -2.3 242.6 -2.05 Q246.6 -1.85 251.15 -2.05 L260.65 -2.3 270.35 -2.2 Q275.0 -2.0 279.15 -2.15 L287.6 -2.85 296.8 -3.6 305.8 -3.6 308.1 -3.55 317.85 -4.4 352.45 -6.35 359.5 -6.45 359.8 -6.45 360.85 -6.45 373.1 -6.5 376.9 -6.7 386.35 -7.05 395.5 -6.95 Q399.95 -6.75 404.75 -7.05 409.7 -7.3 413.9 -7.15 L422.5 -6.85 431.3 -6.55 431.55 -6.55 446.15 -6.15 449.2 -6.35 458.9 -5.85 460.35 -5.6 466.6 -5.35 466.9 -5.3 467.9 -5.4 Q472.2 -5.75 476.85 -5.25 L485.7 -4.45 495.05 -3.95 504.35 -3.4 505.85 -3.3 507.0 -3.25 508.65 -3.15 509.65 -3.15 512.65 -3.15 521.2 -2.95 530.75 -2.5 540.1 -2.3 549.1 -2.05 Q553.7 -1.8 558.0 -2.05 L558.05 -2.05 566.95 -2.2 573.9 -2.05 604.5 -3.45 Q619.7 -4.5 634.95 -4.2 L636.35 -4.3 642.95 -4.55 643.5 -4.3 643.7 -3.8 643.65 -3.55 643.7 -3.3 643.5 -2.75 642.95 -2.55 636.5 -2.3 Q634.35 -2.1 629.9 -2.2 L619.6 -1.75 612.15 -1.1 603.0 -0.6 594.0 -0.45 592.95 -0.4 Q578.5 0.5 563.95 0.4 541.05 0.25 518.15 -0.95 493.3 -1.45 468.2 -2.45 L411.85 -4.65 Q394.55 -4.85 377.25 -4.7 L377.0 -4.7 368.05 -4.4 359.45 -4.45 359.1 -4.45 358.75 -4.45 352.05 -4.3 350.3 -4.2 340.7 -3.8 331.9 -3.3 323.1 -2.55 322.95 -2.55 322.85 -2.55 312.5 -1.8 305.75 -1.6 296.85 -1.6 287.8 -0.85 279.2 -0.15 Q275.0 0.0 270.3 -0.2 L260.7 -0.3 251.2 -0.05 Q246.6 0.15 242.55 -0.05 L234.1 -0.3 224.9 -0.4 Q221.55 -0.4 218.35 -0.55 L212.65 -0.7 207.4 -0.85 206.5 -0.85 197.1 -1.25 196.75 -1.3 189.45 -1.6 188.4 -1.6 179.65 -1.55 170.5 -1.9 161.45 -2.55 152.7 -3.15 143.65 -3.6 137.95 -3.95 107.25 -4.5 91.15 -4.5 89.65 -4.45 Q86.7 -4.3 83.6 -4.45 L79.85 -4.4 62.95 -5.0 53.8 -4.75 44.2 -4.3 44.1 -4.3 34.9 -4.05 26.3 -3.95 17.25 -3.2 7.75 -2.7 -1.35 -2.45 -10.15 -2.2 -11.85 -2.2 -21.5 -1.65 -27.9 -1.1 -37.05 -0.6 -43.8 -0.5 -46.05 -0.45 -50.0 -0.3 -51.9 -0.25 -55.05 -0.1 Q-59.6 0.15 -64.1 0.0 L-65.8 -0.05 -82.7 0.0 -91.05 -0.05 -91.65 -0.05 Q-111.0 -0.3 -130.3 -1.1 L-172.9 -3.3 -173.45 -3.3 -178.4 -3.45 -221.35 -4.75 -234.9 -5.05 -235.2 -5.05 Q-240.1 -4.75 -244.6 -4.95 L-253.65 -5.05 -263.05 -4.7 -272.0 -4.4 -280.6 -4.45 -289.75 -4.2 -299.35 -3.8 -308.15 -3.3 -316.95 -2.55 -317.5 -2.75 -319.95 -2.55 -320.65 -2.95 -320.6 -3.4 -320.65 -3.45 -320.55 -4.3 -297.5 -6.15 -286.75 -6.35 -282.2 -6.45 -258.95 -6.9 -253.7 -7.05 -248.5 -7.05 -234.05 -7.1 -226.15 -7.15 -223.35 -7.0 -208.25 -6.75 -192.0 -6.25 -190.85 -6.35 -181.15 -5.85 -171.75 -5.4 Q-167.65 -5.75 -163.2 -5.25 L-154.35 -4.45 -145.0 -3.95 -135.7 -3.4 -127.4 -3.15 -118.85 -2.95 -109.3 -2.5 -99.95 -2.3 -90.95 -2.05 -83.05 -2.0 -82.05 -2.05 -82.0 -2.05 -73.1 -2.2 -65.0 -2.0 -62.6 -2.05 -54.3 -2.15 -46.1 -2.45 -37.05 -2.6 -28.05 -3.1 -19.1 -3.9 -10.1 -4.2 -1.45 -4.45 7.75 -4.7 9.3 -4.7 16.45 -5.1 17.05 -5.2" fill="#333333" fill-rule="evenodd" stroke="none"/>
  </g>
</svg>
