<?xml version="1.0" encoding="UTF-8" standalone="no"?>
<svg xmlns:xlink="http://www.w3.org/1999/xlink" height="13.15px" width="968.65px" xmlns="http://www.w3.org/2000/svg">
  <g transform="matrix(1.0, 0.0, 0.0, 1.0, 322.95, 7.2)">
    <path d="M53.8 0.25 L55.3 0.15 55.45 0.15 53.8 0.25 M-181.8 -2.0 Q-180.7 -1.75 -179.25 -2.0 L-182.05 -2.05 -181.8 -2.0 M460.55 -2.0 L457.75 -2.05 458.0 -2.0 Q459.1 -1.75 460.55 -2.0 M2.4 -3.8 L2.5 -3.8 Q75.6 -8.7 162.35 -3.8 249.15 1.1 322.3 -3.8 L322.3 3.1 322.5 3.05 322.55 3.05 322.55 -3.8 Q395.6 -8.7 482.25 -3.8 569.05 1.1 642.2 -3.8 L642.3 -3.8 645.7 -4.0 645.7 4.9 643.4 4.75 640.05 4.4 637.2 4.55 634.45 4.75 631.65 4.85 628.6 5.0 625.85 5.2 623.0 5.55 619.6 5.9 616.55 5.7 613.35 5.25 610.35 5.2 607.55 5.2 607.5 5.2 604.65 5.35 601.45 5.75 598.65 5.85 595.65 5.8 592.5 5.9 589.5 5.95 586.25 5.9 583.15 5.8 580.3 5.7 580.25 5.7 577.8 5.75 574.4 5.85 570.6 5.3 570.65 5.35 568.45 5.3 568.45 5.25 565.65 5.55 563.05 5.3 563.0 5.3 559.75 4.9 559.7 4.9 556.55 4.8 553.5 5.0 550.35 4.85 547.2 4.65 544.5 4.5 541.55 4.65 538.1 4.4 535.4 3.9 532.35 3.45 529.4 3.2 526.55 3.1 523.5 2.75 520.55 2.5 517.7 2.4 514.35 1.95 511.7 1.55 508.6 1.5 505.9 1.35 502.65 1.0 499.55 0.65 496.85 0.5 494.0 0.25 490.85 0.1 487.65 -0.05 484.55 -0.2 481.5 -0.2 481.45 -0.2 478.4 -0.3 475.65 -0.45 472.8 -0.25 469.5 -0.45 466.7 -0.85 463.85 -0.85 460.85 -0.55 Q459.05 -0.25 457.65 -0.55 L454.55 -1.05 451.25 -1.45 448.55 -1.7 445.65 -1.45 442.45 -1.35 442.4 -1.35 439.65 -1.15 Q437.75 -0.65 436.25 -1.1 L433.85 -1.2 430.9 -1.0 428.15 -1.4 425.55 -1.25 422.3 -1.0 419.0 -1.05 415.85 -0.7 412.7 -0.65 412.65 -0.65 409.9 -0.5 409.85 -0.5 406.6 -0.6 403.7 -0.75 400.05 -0.45 396.9 -0.4 394.3 -0.25 391.6 -0.1 388.45 0.1 385.85 0.25 382.95 0.55 379.55 0.75 376.55 0.75 373.8 0.95 370.85 1.3 367.85 1.45 364.7 1.65 361.45 1.9 358.55 2.15 355.5 2.6 355.45 2.6 Q353.6 2.9 352.15 2.6 L349.65 2.55 346.85 2.8 344.2 2.7 344.15 2.7 341.3 3.05 338.1 3.4 334.65 3.4 Q332.7 3.45 331.65 4.0 L328.1 4.3 325.3 4.2 322.6 4.55 322.3 4.55 322.05 4.4 321.8 3.85 321.9 3.4 320.45 3.55 317.25 4.15 314.2 4.5 311.15 4.4 308.0 4.4 307.95 4.4 305.4 4.55 302.8 4.9 299.55 4.95 296.2 4.75 293.55 4.9 Q291.95 5.15 290.1 4.9 L287.35 5.0 284.15 5.4 281.15 5.45 281.1 5.45 278.25 5.35 275.55 5.4 272.8 5.75 269.85 5.7 266.85 5.2 266.9 5.2 263.4 5.05 260.9 5.45 260.8 5.5 260.5 5.55 259.95 5.4 Q259.5 5.0 258.95 5.25 L259.0 5.25 256.05 5.6 Q254.65 5.4 253.35 5.6 L253.3 5.6 250.05 5.5 246.95 5.2 243.8 5.1 240.95 4.95 237.8 4.9 234.55 4.55 231.7 4.4 228.8 4.5 226.25 4.65 222.65 4.45 219.75 3.8 217.2 3.95 217.25 3.9 213.6 3.8 Q211.75 3.25 210.6 3.25 L207.95 3.1 Q206.7 2.95 205.55 3.1 L205.5 3.1 202.15 3.05 Q200.2 2.8 198.6 2.2 L198.65 2.2 195.6 2.0 192.55 1.85 189.9 1.15 186.95 1.0 187.0 1.0 183.85 1.1 183.8 1.1 180.95 1.25 177.55 1.15 174.6 0.55 171.7 0.3 168.75 0.0 168.8 0.0 166.1 -0.25 163.35 -0.25 160.15 -0.05 Q157.95 0.25 156.45 -0.5 155.25 -1.1 154.15 -1.15 L151.65 -0.85 148.1 -0.7 144.85 -1.1 142.0 -1.45 138.95 -1.45 138.9 -1.45 135.75 -1.55 133.0 -1.65 130.1 -1.45 127.6 -1.2 124.3 -0.9 120.9 -1.2 118.05 -1.4 114.9 -1.25 111.95 -1.15 108.55 -1.15 105.5 -1.25 102.85 -1.2 99.85 -1.25 97.1 -1.15 Q95.4 -0.95 93.85 -1.15 L93.8 -1.15 91.6 -0.75 91.65 -0.75 Q90.25 0.1 88.2 -0.2 L84.95 -0.5 81.7 -0.5 79.1 -0.1 79.15 -0.1 75.9 0.05 72.95 0.0 70.2 0.1 70.15 0.1 67.3 0.15 64.1 0.4 61.15 0.5 58.55 0.95 58.6 0.95 55.5 1.65 51.85 1.5 51.9 1.5 48.85 1.05 45.95 1.0 43.0 1.35 40.1 1.8 40.15 1.8 36.8 2.2 33.8 2.6 33.85 2.6 30.9 2.85 27.5 2.9 24.8 3.25 24.85 3.25 21.9 3.4 21.95 3.4 18.65 3.3 Q16.65 3.45 15.45 3.25 L13.45 3.2 12.55 3.25 10.05 3.8 7.1 4.7 Q5.45 5.05 3.6 4.75 L0.25 4.4 -2.6 4.55 -5.35 4.75 -8.15 4.85 -11.2 5.0 -13.95 5.2 -16.8 5.55 -20.2 5.9 -23.25 5.7 -26.45 5.25 -29.45 5.2 -32.25 5.2 -32.3 5.2 -35.15 5.35 -38.35 5.75 -41.15 5.85 -44.15 5.8 -47.3 5.9 -50.3 5.95 -53.55 5.9 -56.65 5.8 -59.5 5.7 -59.55 5.7 -62.0 5.75 -65.4 5.85 Q-67.65 5.85 -69.2 5.3 L-69.15 5.35 -71.35 5.3 -71.35 5.25 -74.15 5.55 -76.75 5.3 -76.8 5.3 -80.05 4.9 -80.1 4.9 -83.25 4.8 -86.3 5.0 -89.45 4.85 -92.6 4.65 -95.3 4.5 -98.25 4.65 -101.7 4.4 -104.4 3.9 -107.45 3.45 -110.4 3.2 -113.25 3.1 -116.3 2.75 -119.25 2.5 -122.1 2.4 -125.45 1.95 Q-126.7 1.5 -128.1 1.55 L-131.2 1.5 -133.9 1.35 -137.15 1.0 -140.25 0.65 -142.95 0.5 -145.8 0.25 -148.95 0.1 -152.15 -0.05 -155.25 -0.2 -158.3 -0.2 -158.35 -0.2 -161.4 -0.3 -164.15 -0.45 -167.0 -0.25 -170.3 -0.45 -173.1 -0.85 -175.95 -0.85 -178.95 -0.55 Q-180.75 -0.25 -182.15 -0.55 L-185.25 -1.05 -188.55 -1.45 -191.25 -1.7 -194.15 -1.45 -197.35 -1.35 -197.4 -1.35 -200.15 -1.15 Q-202.05 -0.65 -203.55 -1.1 L-205.95 -1.2 -208.9 -1.0 -211.65 -1.4 -214.25 -1.25 -217.5 -1.0 -220.8 -1.05 -223.95 -0.7 -227.1 -0.65 -227.15 -0.65 -229.9 -0.5 -229.95 -0.5 -233.2 -0.6 -236.1 -0.75 -239.75 -0.45 -242.9 -0.4 -245.5 -0.25 -248.2 -0.1 -251.35 0.1 -253.95 0.25 -256.85 0.55 -260.25 0.75 -263.25 0.75 -266.0 0.95 -268.95 1.3 -271.95 1.45 -275.1 1.65 -278.35 1.9 -281.25 2.15 -284.3 2.6 -284.35 2.6 Q-286.2 2.9 -287.65 2.6 L-290.15 2.55 -292.95 2.8 -295.6 2.7 -295.65 2.7 -298.5 3.05 -301.7 3.4 -305.15 3.4 Q-307.1 3.45 -308.15 4.0 L-311.7 4.3 -314.5 4.2 -317.2 4.55 -317.75 4.4 -318.0 3.85 -317.8 3.3 Q-317.6 3.05 -317.3 3.05 L-317.25 3.05 -317.25 -3.8 Q-244.2 -8.7 -157.55 -3.8 -70.75 1.1 2.4 -3.8" fill="#ffffff" fill-opacity="0.2" fill-rule="evenodd" stroke="none"/>
    <path d="M-116.55 4.0 L-115.1 4.0 -114.45 3.85 -113.85 3.55 -117.25 3.5 -116.55 4.0 M-86.2 3.55 L-89.1 3.6 -87.85 4.05 -86.2 3.55 M35.9 -1.65 Q24.65 -1.2 13.3 -1.4 L-4.9 0.25 -31.65 2.65 Q-40.6 3.3 -49.45 3.15 -57.5 3.0 -64.85 5.0 -71.75 3.55 -78.85 4.95 -85.5 6.35 -91.3 4.45 L-96.25 4.2 -100.75 4.45 Q-103.1 4.9 -105.3 4.45 -110.8 3.1 -116.45 5.25 L-118.7 5.15 Q-127.35 2.65 -136.6 3.75 L-144.45 3.25 -150.35 2.95 -160.0 3.45 -163.4 3.1 Q-171.7 3.1 -179.55 1.5 L-194.95 0.1 Q-204.85 0.15 -214.75 -0.45 L-215.05 -1.0 Q-221.3 -0.3 -227.55 -0.7 L-252.45 -1.9 Q-259.0 -2.2 -265.6 -2.15 L-279.25 -1.75 Q-289.6 -0.65 -299.55 -2.15 L-300.5 -1.95 -303.0 -1.15 Q-304.85 -1.25 -306.6 0.0 -309.15 0.0 -311.7 -0.8 L-315.8 -0.95 Q-319.0 -0.1 -322.35 -0.2 L-322.95 -0.75 -322.25 -3.8 -303.5 -4.85 Q-275.5 -6.1 -247.45 -6.2 L-226.0 -6.05 -193.8 -5.2 -170.8 -4.15 -145.25 -2.8 -125.65 -2.0 -109.95 -1.55 -90.55 -1.25 -75.75 -1.15 Q-66.5 -1.2 -57.3 -1.4 L-35.2 -2.05 5.8 -4.2 43.05 -5.65 67.25 -6.05 Q98.1 -6.3 128.95 -5.0 L162.75 -3.4 187.25 -2.3 204.05 -1.7 Q216.5 -1.45 229.05 -1.35 L257.45 -1.35 304.25 -2.9 355.0 -5.6 Q395.2 -6.7 435.45 -5.55 L477.75 -3.7 521.6 -1.85 Q558.4 -0.85 595.2 -1.65 L637.45 -3.8 638.3 -0.7 637.8 -0.45 636.65 0.1 635.9 0.2 635.3 0.25 634.15 -0.2 Q633.65 -0.45 633.2 -0.75 628.35 1.45 623.25 1.55 L603.5 2.15 545.95 4.5 515.0 4.25 460.2 1.65 402.75 -1.75 Q365.95 -2.75 329.1 -0.8 L297.8 1.2 Q297.2 2.3 295.9 2.2 286.65 1.4 277.4 2.45 L276.95 1.95 262.65 2.8 Q220.8 4.6 178.9 2.95 L156.9 2.2 Q150.15 2.75 143.05 1.15 140.35 0.4 137.45 0.35 130.35 1.05 123.4 0.1 122.35 0.8 121.2 0.45 L84.25 -2.0 80.6 -1.4 Q75.9 0.5 72.35 -2.2 L58.95 -1.8 Q47.3 -2.5 35.9 -1.65" fill="#ffffff" fill-opacity="0.2" fill-rule="evenodd" stroke="none"/>
    <path d="M2.75 -4.7 L12.05 -5.2 21.25 -5.95 29.95 -6.05 39.05 -6.3 39.1 -6.3 48.75 -6.75 57.9 -7.0 66.65 -7.1 66.7 -7.1 75.6 -6.65 75.65 -6.65 Q80.25 -6.25 84.6 -6.45 L93.55 -6.7 102.85 -6.7 112.05 -6.6 120.6 -6.6 129.55 -6.25 129.6 -6.25 138.75 -5.6 147.75 -5.15 156.55 -4.55 156.6 -4.55 165.6 -3.9 174.65 -3.55 174.7 -3.55 183.35 -3.6 192.25 -3.25 201.45 -2.85 Q206.2 -3.0 210.75 -2.7 L219.9 -2.4 229.1 -2.3 229.15 -2.3 237.6 -2.05 Q241.6 -1.85 246.15 -2.05 L255.65 -2.3 265.35 -2.2 Q270.0 -2.0 274.15 -2.15 L282.6 -2.85 291.8 -3.6 300.8 -3.6 307.25 -3.8 317.75 -4.55 317.95 -4.55 318.0 -4.55 326.7 -5.3 326.75 -5.3 335.7 -5.8 345.15 -6.2 354.5 -6.45 363.05 -6.4 371.9 -6.7 381.35 -7.05 390.5 -6.95 Q394.95 -6.75 399.75 -7.05 404.7 -7.3 408.9 -7.15 L417.5 -6.85 426.55 -6.55 435.2 -6.15 435.45 -6.15 439.9 -6.1 444.2 -6.35 453.9 -5.85 454.2 -5.8 461.85 -5.3 462.9 -5.4 Q467.2 -5.75 471.85 -5.25 L480.7 -4.45 490.05 -3.95 499.35 -3.4 507.65 -3.15 516.2 -2.95 525.75 -2.5 535.1 -2.3 544.1 -2.05 Q548.7 -1.8 553.0 -2.05 L553.05 -2.05 561.95 -2.2 571.0 -2.0 Q575.45 -1.85 579.9 -2.1 L588.95 -2.45 598.0 -2.6 607.0 -3.1 615.95 -3.9 624.95 -4.2 Q629.25 -4.1 631.35 -4.3 L637.95 -4.55 638.5 -4.3 638.7 -3.9 640.45 -3.6 640.7 -3.3 Q636.9 -1.9 631.65 -2.15 L609.15 -1.1 591.0 -0.15 Q569.75 0.1 548.35 -0.2 L513.85 -0.8 Q492.6 -1.3 471.5 -3.4 L462.85 -3.7 448.6 -4.4 439.6 -4.05 404.3 -5.15 369.4 -4.85 333.2 -3.6 306.65 -1.45 Q297.95 -1.75 289.3 -1.3 266.6 0.3 243.75 -0.1 L203.5 -0.85 140.65 -3.6 104.85 -4.75 Q80.15 -4.5 55.45 -4.65 L38.7 -4.1 31.9 -4.05 -4.35 -2.55 -40.05 -0.6 Q-58.05 0.3 -76.1 0.3 -94.2 0.3 -112.35 -0.5 L-148.05 -1.95 -180.2 -3.8 -183.4 -3.95 -186.75 -4.15 -207.0 -4.3 Q-224.9 -5.55 -243.0 -5.3 L-279.2 -4.75 -315.45 -2.85 -320.5 -2.7 -320.7 -3.1 -321.95 -3.05 -322.5 -3.25 -322.75 -3.75 -322.55 -4.3 -322.05 -4.55 -313.35 -5.3 -313.3 -5.3 -304.35 -5.8 -294.9 -6.2 -285.55 -6.45 -277.0 -6.4 -268.15 -6.7 -258.7 -7.05 -249.55 -6.95 Q-245.1 -6.75 -240.3 -7.05 -235.35 -7.3 -231.15 -7.15 L-222.55 -6.85 -213.5 -6.55 -204.6 -6.15 Q-200.35 -6.0 -195.85 -6.35 L-186.15 -5.85 -177.15 -5.4 Q-172.85 -5.75 -168.2 -5.25 L-159.35 -4.45 -150.0 -3.95 -140.7 -3.4 -132.4 -3.15 -123.85 -2.95 -114.3 -2.5 -104.95 -2.3 -95.95 -2.05 Q-91.35 -1.8 -87.05 -2.05 L-87.0 -2.05 -78.1 -2.2 -69.05 -2.0 Q-64.6 -1.85 -60.15 -2.1 L-51.1 -2.45 -42.05 -2.6 -33.05 -3.1 -24.1 -3.9 -15.1 -4.2 -6.45 -4.45 2.75 -4.7" fill="#333333" fill-rule="evenodd" stroke="none"/>
  </g>
</svg>
