<?xml version="1.0" encoding="UTF-8" standalone="no"?>
<svg xmlns:xlink="http://www.w3.org/1999/xlink" height="16.55px" width="15.4px" xmlns="http://www.w3.org/2000/svg">
  <g transform="matrix(1.0, 0.0, 0.0, 1.0, 8.25, 8.25)">
    <path d="M6.65 -4.0 L5.45 -5.5 Q4.35 -5.85 3.85 -6.3 L2.7 -7.0 0.0 -7.75 -1.95 -7.55 Q-3.05 -7.45 -3.7 -6.95 L-4.85 -6.05 -5.5 -5.5 Q-5.8 -4.25 -6.45 -3.65 L-7.1 -2.55 -7.75 0.0 Q-7.2 1.0 -7.4 1.8 -7.55 2.6 -6.8 3.8 L-6.0 5.3 Q-5.95 5.65 -5.5 5.45 -5.0 6.3 -3.75 6.85 L-2.15 7.6 0.0 7.75 1.75 7.55 3.75 6.7 5.0 5.6 Q5.3 5.15 5.4 5.35 L6.65 4.0" fill="none" stroke="#ffffff" stroke-linecap="round" stroke-linejoin="round" stroke-width="1.0"/>
  </g>
</svg>
