<?xml version="1.0" encoding="UTF-8" standalone="no"?>
<svg xmlns:xlink="http://www.w3.org/1999/xlink" height="43.75px" width="90.6px" xmlns="http://www.w3.org/2000/svg">
  <g transform="matrix(1.0, 0.0, 0.0, 1.0, 45.3, 21.9)">
    <path d="M19.55 -20.0 L19.6 -19.95 Q27.65 -20.3 35.7 -20.0 L36.05 -20.2 36.35 -20.3 36.75 -20.35 36.75 -20.4 37.0 -20.4 37.5 -20.25 37.8 -20.05 39.85 -20.0 40.05 -20.2 40.35 -20.3 40.75 -20.4 41.25 -20.25 41.55 -20.05 41.7 -19.85 41.8 -19.7 42.25 -19.5 42.55 -19.3 42.75 -19.15 42.8 -18.95 42.95 -18.75 43.0 -18.45 43.25 -18.45 43.75 -18.3 44.0 -18.15 44.2 -17.95 44.45 -17.75 44.75 -17.55 44.9 -17.4 45.05 -17.2 45.1 -17.0 45.2 -16.8 45.25 -16.65 45.25 -16.45 45.25 -16.25 45.15 -16.1 45.05 -15.9 44.95 -15.7 44.7 -15.5 44.25 -15.4 42.5 -15.4 42.45 -15.2 42.4 -15.05 42.55 -14.8 42.75 -14.65 42.8 -14.45 42.9 -14.25 43.0 -14.05 43.0 -13.9 43.0 -13.7 42.95 -13.5 42.8 -13.3 42.75 -13.15 42.55 -12.95 42.25 -12.75 41.85 -12.6 41.2 -12.3 40.95 -12.15 40.8 -12.0 39.5 -11.8 39.45 -11.75 39.1 -10.45 38.75 -9.15 38.0 -6.9 37.6 -5.75 37.5 -5.55 37.45 -5.4 37.35 -5.2 37.25 -5.0 37.2 -4.8 37.1 -4.65 37.0 -4.45 36.9 -4.25 36.7 -3.85 36.25 -3.1 35.95 -2.55 35.8 -2.2 35.65 -1.45 35.45 -0.5 35.35 -0.15 35.2 0.45 35.05 0.6 35.0 0.8 34.95 1.0 34.85 1.2 34.8 1.35 34.7 1.55 34.6 1.75 34.55 1.95 34.5 2.1 34.45 2.3 34.3 2.5 34.2 2.85 34.0 3.45 33.7 4.35 33.55 4.75 33.45 5.1 33.25 5.5 33.25 5.7 33.25 6.05 33.2 6.25 33.1 6.45 33.05 6.6 33.0 6.8 33.0 7.0 33.0 7.35 33.0 7.95 32.8 8.5 32.75 8.7 32.75 8.85 32.75 9.05 32.75 9.25 32.75 9.45 32.75 9.8 32.7 10.0 32.55 10.35 32.35 10.95 32.2 11.5 32.0 11.85 31.6 12.45 31.75 12.45 32.25 12.55 32.55 12.75 32.7 12.95 32.8 13.15 32.85 13.3 32.9 13.5 32.95 13.85 32.95 14.6 32.95 15.25 33.25 15.25 34.0 15.35 34.5 15.45 34.75 15.6 34.85 15.8 34.95 16.0 35.05 16.2 35.05 16.35 35.05 16.55 35.05 16.75 35.05 16.95 35.05 17.1 35.0 17.3 34.95 17.5 34.85 17.7 34.75 17.85 34.5 18.05 34.05 18.25 33.85 18.45 33.6 18.65 33.5 18.75 33.35 18.8 33.0 18.85 32.6 18.85 32.55 18.95 32.5 19.1 32.3 19.3 32.0 19.5 31.5 19.6 27.5 19.75 27.0 19.85 Q11.0 20.55 -5.0 20.6 L-5.6 20.5 -5.85 20.3 -6.0 20.1 -6.15 19.95 -6.2 19.8 -31.35 20.45 -31.9 20.3 -32.3 20.1 -32.65 19.95 -32.85 19.75 -32.95 19.55 -33.1 19.35 -33.15 19.2 -33.15 19.0 -33.15 18.8 -33.15 18.25 -33.15 18.05 -33.15 17.85 -33.15 17.75 -33.45 17.8 -33.65 17.95 -33.8 18.0 -34.1 18.05 -34.35 18.05 -34.8 17.95 -35.0 17.75 -35.2 17.55 -35.4 17.35 -35.45 17.2 -35.5 17.0 -35.55 16.8 -35.55 16.25 -35.55 16.05 -35.55 15.85 -35.55 15.7 -35.55 15.3 -35.55 15.1 -35.45 14.95 -35.3 14.75 -35.15 14.55 -35.1 14.35 -35.1 14.2 -35.05 14.0 -35.05 13.8 -34.95 13.65 -34.85 13.45 -34.6 13.25 -34.1 13.05 -34.05 12.85 -34.0 12.7 -33.95 12.5 -33.9 12.3 -33.75 12.15 -33.6 11.95 -33.35 11.8 -33.2 11.75 -32.85 11.7 -32.45 11.6 -32.1 11.55 -31.15 11.7 -31.35 11.05 -31.45 10.7 -31.45 10.5 -31.45 10.3 -31.45 10.1 -31.45 9.95 -31.45 9.75 -31.55 9.55 -31.65 9.35 -31.75 9.2 -31.85 9.0 -31.9 8.8 -31.95 8.6 -32.05 8.45 -32.15 8.25 -32.2 8.05 -32.3 7.85 -32.4 7.7 -32.45 7.5 -32.55 7.3 -32.65 7.1 -32.85 6.75 -33.1 6.2 -33.4 5.6 -34.15 3.35 -35.1 0.35 -35.75 -1.5 -35.85 -2.05 -35.9 -2.25 -36.05 -2.45 -36.1 -2.65 -36.15 -2.8 -36.2 -3.0 -36.35 -3.2 -36.65 -4.3 -37.1 -6.0 -37.7 -7.9 -37.7 -8.05 -37.7 -8.25 -37.75 -8.45 -37.8 -8.65 -37.85 -8.8 -38.15 -9.2 -38.75 -9.75 -39.15 -10.15 -39.2 -10.5 -39.2 -11.05 -39.2 -11.8 -39.2 -12.0 -41.35 -12.0 -41.9 -12.15 -42.2 -12.3 -42.4 -12.5 -42.55 -12.7 -42.65 -12.9 -42.7 -13.05 -42.7 -13.25 -42.7 -13.45 -42.7 -13.6 -43.1 -13.7 -43.35 -13.9 -43.55 -14.05 -43.9 -14.45 -44.25 -14.85 -44.35 -15.0 -44.4 -15.2 -44.4 -15.55 -44.4 -16.15 -44.35 -16.5 -44.3 -17.05 -44.3 -17.45 -44.2 -17.65 -44.1 -17.8 -43.85 -18.0 -43.55 -18.2 -43.1 -18.3 -42.7 -18.3 -42.75 -18.5 -42.75 -18.7 -42.8 -18.9 -42.8 -19.05 -42.8 -19.25 -42.75 -19.45 -42.7 -19.65 -42.65 -19.8 -42.5 -20.0 -42.35 -20.2 -42.0 -20.35 -41.7 -20.5 -41.35 -20.55 -40.85 -20.45 -40.55 -20.35 -40.1 -20.2 -28.85 -20.05 -28.35 -19.95 -10.65 -19.8 -7.4 -19.75 -4.9 -19.7 -4.0 -19.75 Q7.45 -20.3 19.0 -20.15 L19.55 -20.0 M-34.7 -12.05 L-34.6 -12.0 -34.6 -12.05 -34.7 -12.05" fill="#a28c88" fill-rule="evenodd" stroke="none"/>
    <path d="M14.0 -16.1 L18.4 -16.1 19.2 -15.9 20.8 -15.9 21.8 -16.25 22.2 -16.4 31.6 -16.5 32.5 -16.3 35.2 -15.9 37.9 -16.05 38.0 -16.2 38.15 -16.5 38.4 -16.8 38.8 -17.1 39.8 -17.4 40.2 -17.6 40.8 -17.65 40.8 -17.7 42.4 -17.7 43.2 -17.5 43.6 -17.2 43.8 -16.9 43.9 -16.6 44.1 -16.3 44.1 -16.0 44.1 -15.7 44.1 -15.4 44.1 -15.1 44.1 -14.8 44.05 -14.5 43.9 -14.2 43.8 -13.9 43.6 -13.6 43.2 -13.3 42.2 -12.95 41.8 -12.8 41.2 -12.7 40.8 -12.7 39.7 -12.6 39.4 -12.4 38.8 -12.35 35.2 -12.3 34.4 -12.45 31.9 -12.9 22.8 -12.9 21.8 -12.55 21.4 -12.4 14.0 -12.3 13.2 -12.5 12.8 -12.7 12.0 -12.9 11.75 -12.85 11.5 -12.6 11.4 -12.3 11.2 -12.0 10.8 -11.7 10.0 -11.5 8.0 -11.5 7.2 -11.65 5.6 -11.95 4.8 -12.1 -7.5 -12.2 -7.8 -12.0 -16.0 -11.5 -23.6 -11.5 -24.4 -11.7 -24.8 -12.0 -25.1 -12.3 -26.0 -12.35 -26.8 -12.4 -27.3 -12.3 -27.5 -12.0 -27.7 -11.7 -28.1 -11.4 -28.8 -11.2 -29.7 -11.4 -30.1 -11.6 -30.8 -11.7 -31.5 -11.9 -33.2 -11.9 -33.6 -11.6 -33.9 -11.3 -34.2 -11.0 -34.5 -10.8 -34.7 -10.7 -35.2 -10.6 -35.9 -10.8 -36.3 -11.1 -36.5 -11.4 -36.6 -11.7 -36.6 -12.0 -36.65 -12.1 -38.0 -12.4 -39.9 -12.7 -40.1 -13.0 -40.35 -13.35 -40.4 -13.6 -40.35 -13.85 -40.1 -14.2 -39.9 -14.5 -39.2 -14.65 -38.0 -14.85 -36.9 -15.0 -36.6 -15.3 -36.0 -15.6 -35.4 -15.9 -33.8 -16.7 -33.0 -16.9 -32.4 -17.2 -32.0 -17.4 -31.8 -17.5 -31.2 -17.6 -30.8 -17.6 -30.1 -17.4 -29.6 -17.1 -29.3 -16.8 -28.6 -16.5 -27.2 -16.05 -26.0 -15.7 -25.2 -15.9 -24.6 -16.2 -24.2 -16.4 -23.6 -16.5 -22.8 -16.7 -22.0 -16.9 -16.0 -16.9 -15.2 -16.7 -10.4 -15.9 -8.0 -15.9 -7.0 -16.25 -6.6 -16.4 Q-2.8 -17.1 1.0 -16.35 L1.2 -16.3 1.8 -16.3 2.2 -16.35 7.2 -16.9 10.8 -16.9 11.6 -16.7 12.4 -16.5 13.2 -16.3 13.6 -16.1 14.0 -16.1" fill="#663300" fill-opacity="0.2" fill-rule="evenodd" stroke="none"/>
    <path d="M15.4 -17.8 L15.8 -17.7 17.0 -17.7 17.4 -17.8 22.0 -18.0 22.9 -17.8 24.0 -17.6 24.7 -17.7 27.8 -18.15 28.2 -18.2 28.8 -18.25 28.8 -18.3 32.0 -18.15 34.2 -17.95 37.6 -17.8 38.4 -17.6 38.8 -17.3 39.1 -17.0 39.8 -16.7 40.8 -16.4 41.2 -16.1 41.5 -15.8 41.6 -15.5 41.7 -15.2 41.8 -14.9 41.8 -14.6 41.8 -14.3 41.8 -14.0 41.8 -13.7 41.8 -13.4 41.8 -13.1 41.7 -12.8 41.6 -12.5 41.5 -12.2 41.65 -11.9 41.9 -11.6 42.2 -11.3 42.05 -11.0 41.8 -10.7 41.6 -10.55 40.4 -10.15 40.2 -10.1 39.6 -10.0 38.5 -9.9 38.2 -9.7 37.8 -9.6 37.2 -9.5 36.8 -9.5 36.0 -9.7 34.4 -10.1 34.0 -10.4 33.8 -10.6 33.6 -10.6 29.8 -10.7 29.0 -10.6 28.2 -10.3 27.8 -10.0 27.4 -9.8 26.8 -9.7 26.0 -9.9 25.5 -10.2 25.2 -10.5 25.0 -10.8 24.9 -11.1 24.6 -11.15 23.8 -11.0 23.4 -10.9 22.8 -10.7 22.4 -10.45 Q21.65 -10.1 20.9 -9.85 L20.0 -9.6 15.6 -9.6 14.7 -9.8 14.3 -10.1 14.1 -10.2 10.8 -10.0 -26.3 -10.6 -26.8 -10.3 -27.4 -10.0 -27.8 -9.8 -28.4 -9.7 -31.6 -9.3 -34.8 -9.3 -35.6 -9.5 -36.1 -9.8 -36.6 -10.1 -36.8 -10.3 -36.9 -10.35 -37.3 -10.5 -37.9 -10.7 -38.2 -10.9 -38.4 -10.95 -39.6 -11.2 -40.3 -11.4 -40.6 -11.7 -40.75 -12.0 -40.8 -12.3 -40.8 -12.6 -40.7 -12.9 -40.5 -13.2 -40.3 -13.4 -40.1 -13.5 -39.6 -13.6 -39.0 -13.5 -37.7 -13.45 -37.2 -13.5 -36.7 -13.4 -36.3 -13.3 -36.2 -13.3 -35.6 -13.4 -35.0 -13.3 -34.8 -13.2 -31.6 -13.3 -30.8 -13.45 -29.3 -13.7 -29.1 -14.0 -28.8 -14.3 -28.4 -14.5 -28.2 -14.6 -27.8 -14.7 -27.1 -14.9 -26.8 -15.2 -26.5 -15.4 -26.2 -15.5 -25.5 -15.7 -22.0 -14.5 Q-17.95 -12.95 -15.65 -16.2 L-15.4 -16.35 -15.25 -16.45 -10.9 -16.6 -10.0 -16.9 -9.6 -17.2 -9.3 -17.4 -9.0 -17.45 -6.4 -17.55 Q-5.8 -17.5 -5.3 -17.1 -3.65 -15.85 -1.6 -15.4 2.1 -14.6 4.55 -17.1 L5.65 -17.25 Q6.55 -17.3 7.2 -17.85 L7.5 -18.15 9.8 -17.8 10.1 -17.85 Q12.55 -18.35 15.0 -17.9 L15.4 -17.8" fill="#663300" fill-opacity="0.2" fill-rule="evenodd" stroke="none"/>
    <path d="M8.6 -12.6 L9.2 -12.7 10.0 -12.5 10.5 -12.2 10.7 -12.1 16.0 -11.9 16.8 -11.7 17.2 -11.5 18.0 -11.3 18.8 -11.3 19.6 -11.5 23.6 -11.5 24.4 -11.3 25.2 -11.3 25.7 -11.6 26.0 -11.9 26.3 -12.2 26.8 -12.5 27.4 -12.8 27.8 -13.0 28.4 -13.05 28.4 -13.1 30.4 -12.95 31.2 -12.8 31.7 -12.5 32.3 -12.2 32.8 -11.9 33.2 -11.6 33.4 -11.3 33.5 -11.0 33.7 -10.7 33.8 -10.4 33.9 -10.1 33.9 -9.8 33.8 -9.5 33.6 -9.2 33.4 -8.9 33.1 -8.7 32.9 -8.6 32.4 -8.5 31.6 -8.7 31.2 -8.9 30.8 -9.0 30.0 -9.2 29.4 -9.2 29.0 -9.0 28.3 -8.8 28.0 -8.5 27.9 -8.2 27.8 -7.9 27.7 -7.6 27.5 -7.3 27.3 -7.0 26.8 -6.7 26.0 -6.5 23.2 -6.5 22.4 -6.7 21.9 -7.0 21.6 -7.3 21.5 -7.5 21.5 -7.55 20.4 -7.45 19.6 -7.3 17.6 -7.3 16.8 -7.5 16.4 -7.7 15.6 -7.9 12.3 -7.9 12.3 -7.6 12.3 -7.3 12.3 -7.0 12.3 -6.7 12.3 -6.4 12.3 -6.1 12.2 -5.8 12.0 -5.5 11.55 -4.9 10.95 -4.35 10.2 -3.8 2.4 -3.7 1.6 -3.9 1.0 -4.2 0.4 -4.5 -0.2 -4.8 -0.6 -5.1 -0.8 -5.4 -0.9 -5.5 -1.8 -5.5 -2.1 -5.2 -2.4 -4.9 -2.7 -4.6 -3.2 -4.35 -4.0 -4.0 -4.8 -3.7 -5.1 -3.4 -5.4 -3.1 -5.7 -2.8 -6.1 -2.5 -6.4 -2.2 -6.6 -1.9 -7.0 -1.6 -7.4 -1.4 -8.0 -1.35 -8.8 -1.3 -9.6 -1.5 -10.1 -1.8 -10.4 -2.1 -10.6 -2.4 -10.7 -2.7 -10.75 -2.9 -10.8 -2.9 -12.8 -2.7 -13.4 -2.4 -13.8 -2.2 -14.4 -2.15 -16.0 -2.1 -16.8 -2.3 -17.3 -2.6 -17.9 -3.15 Q-19.3 -4.3 -20.95 -5.1 -22.7 -5.9 -24.4 -6.8 L-25.2 -6.8 -26.0 -6.6 -26.8 -6.8 -27.2 -7.1 -27.4 -7.3 -27.6 -7.4 -28.2 -7.5 -28.4 -7.6 -36.0 -7.7 -36.8 -7.9 -37.3 -8.2 -37.6 -8.5 -37.8 -8.8 -37.9 -9.1 -37.9 -9.4 -37.9 -9.7 -37.9 -10.0 -37.8 -10.3 -37.6 -10.6 -37.4 -10.9 -37.0 -11.2 -36.6 -11.4 -36.0 -11.45 -30.8 -11.6 -30.6 -11.7 -30.0 -11.8 -29.6 -11.8 -29.0 -11.7 -28.8 -11.6 -26.7 -11.7 -26.4 -11.9 Q-22.05 -12.7 -17.75 -12.05 L-11.2 -11.5 -10.4 -11.3 -9.9 -11.0 -9.7 -10.7 -9.4 -10.65 -9.1 -10.8 -8.8 -11.1 -8.4 -11.3 -8.2 -11.4 -7.6 -11.45 -6.8 -11.5 -6.0 -11.3 -5.5 -11.0 -5.3 -10.9 -3.8 -10.9 -3.4 -11.2 -3.0 -11.4 -2.4 -11.45 -0.4 -11.5 0.5 -11.35 4.0 -10.9 4.5 -10.6 4.7 -10.5 7.3 -10.65 7.3 -10.8 7.3 -11.1 7.4 -11.4 7.5 -11.7 7.7 -12.0 8.0 -12.3 8.4 -12.5 8.6 -12.6" fill="#663300" fill-opacity="0.2" fill-rule="evenodd" stroke="none"/>
    <path d="M-15.6 -0.2 L-14.9 0.0 -14.6 0.3 -14.4 0.6 -14.3 0.9 -14.2 1.2 -14.15 1.3 -13.6 1.5 -12.8 1.7 -12.4 2.0 -12.2 2.3 -12.1 2.6 -11.9 2.9 -11.9 3.2 -11.9 3.5 -11.9 3.8 -12.0 4.1 -12.2 4.4 -12.3 4.7 -12.6 5.0 -12.9 5.3 -13.2 5.5 -14.0 5.65 -16.3 5.9 -16.7 6.2 -17.0 6.4 -17.6 6.45 -18.4 6.5 -19.2 6.3 -19.6 6.0 -19.9 5.7 -20.0 5.4 -20.1 5.1 -20.1 4.8 -20.3 4.5 -20.6 4.2 -20.8 3.9 -20.9 3.6 -20.9 3.3 -20.9 3.0 -20.9 2.7 -20.9 2.4 -20.8 2.1 -20.6 1.8 -20.3 1.5 -20.0 1.3 -19.8 1.2 -19.2 1.1 -17.6 0.9 -17.4 0.6 -17.1 0.3 -16.7 0.0 -16.0 -0.15 -16.0 -0.2 -15.6 -0.2" fill="#663300" fill-opacity="0.2" fill-rule="evenodd" stroke="none"/>
    <path d="M15.6 -12.6 L16.4 -12.4 17.0 -12.1 18.45 -11.15 20.0 -9.7 Q20.65 -9.05 20.9 -8.2 L21.0 -7.9 21.0 -7.6 21.0 -7.3 21.0 -7.0 21.0 -6.7 20.9 -6.4 20.8 -6.1 20.65 -5.8 20.4 -5.5 20.0 -5.2 19.2 -5.05 15.4 -4.8 15.4 -4.5 15.4 -4.2 15.4 -3.9 15.3 -3.6 15.2 -3.3 15.1 -3.0 15.0 -2.7 15.0 -2.4 15.0 -2.1 14.9 -1.8 14.7 -1.5 14.5 -1.2 14.4 -0.9 14.3 -0.6 14.0 -0.3 13.7 0.0 13.4 0.3 13.1 0.6 12.8 0.8 12.6 0.85 9.6 1.25 8.8 1.4 2.9 1.75 2.8 1.9 2.65 2.2 2.4 2.5 2.0 2.8 1.4 3.1 0.4 3.6 0.2 3.7 -0.4 3.75 -2.0 3.8 -2.8 3.6 -3.2 3.3 -3.5 3.0 -3.7 2.7 -3.8 2.4 -4.0 2.1 -4.2 1.6 -4.2 1.55 -5.2 1.35 -6.0 1.2 -6.6 0.9 -7.1 0.6 -7.5 0.3 -8.4 0.0 -8.8 -0.3 -9.1 -0.6 -9.3 -0.9 -9.4 -1.2 -9.4 -1.5 -9.4 -1.8 -9.4 -2.1 -10.25 -2.6 -13.4 -4.2 -16.3 -6.0 -16.5 -6.3 -16.7 -6.6 -16.8 -6.9 -16.8 -7.2 -16.8 -7.5 -16.8 -7.8 -16.8 -8.1 -16.8 -8.7 -16.8 -9.0 -16.9 -9.3 -17.0 -9.6 -17.0 -9.9 -17.0 -10.2 -17.0 -10.5 -16.85 -10.8 -16.6 -11.1 -16.3 -11.4 -16.0 -11.6 -15.8 -11.7 -15.2 -11.75 -14.4 -11.8 -13.5 -11.6 -12.9 -11.4 Q-1.2 -12.55 10.4 -11.1 L10.8 -11.3 11.1 -11.6 11.4 -11.9 12.1 -12.2 12.7 -12.4 13.0 -12.45 13.6 -12.55 13.6 -12.6 15.6 -12.6 M13.3 -8.8 L15.6 -8.8 13.6 -8.85 13.3 -8.8" fill="#663300" fill-opacity="0.2" fill-rule="evenodd" stroke="none"/>
    <path d="M30.7 4.0 L31.0 3.7 31.4 3.5 32.0 3.4 32.8 3.6 33.2 3.9 33.5 4.2 33.6 4.5 33.7 4.8 33.8 5.1 33.8 5.4 33.8 5.7 33.8 6.0 33.8 6.3 33.8 6.6 33.7 6.9 33.6 7.2 33.4 7.5 33.1 7.8 33.2 8.1 33.3 8.4 33.4 8.7 33.4 9.0 33.4 9.3 33.4 9.6 33.4 9.9 33.4 10.2 33.4 10.5 33.3 10.8 33.2 11.1 33.05 11.4 32.8 11.7 32.4 12.0 31.6 12.2 31.2 12.2 30.6 12.3 30.3 12.6 30.0 12.9 29.7 13.2 29.3 13.5 29.0 13.7 28.4 13.8 27.6 13.6 27.2 13.3 26.9 13.0 26.7 12.7 26.5 12.4 26.35 12.1 26.3 11.8 26.0 11.7 25.4 11.5 23.0 11.5 22.1 11.8 21.0 12.1 20.2 12.3 18.8 12.7 18.4 12.7 17.2 12.55 16.4 12.4 15.8 12.1 15.5 11.8 15.3 11.5 15.1 11.2 12.9 11.2 12.5 11.5 12.0 11.8 11.4 12.1 10.8 12.4 10.0 12.6 9.2 12.4 8.8 12.1 8.5 11.8 8.3 11.5 8.2 11.2 8.2 10.9 8.2 10.6 8.2 10.3 8.2 10.0 8.2 9.7 8.3 9.4 8.45 9.1 8.7 8.8 9.0 8.5 9.3 8.2 9.8 7.9 10.4 7.6 11.2 7.4 12.0 7.2 12.5 6.9 12.9 6.6 13.2 6.3 13.5 6.0 13.8 5.7 14.4 5.4 14.8 5.2 15.0 5.1 15.6 5.05 17.6 5.0 18.5 5.25 20.0 5.8 21.5 6.3 21.65 6.15 21.7 5.9 21.8 5.6 22.0 5.3 22.1 5.0 22.1 4.7 22.1 4.4 22.1 4.1 22.2 3.8 22.3 3.5 22.5 3.2 22.8 2.9 23.2 2.7 23.4 2.65 24.0 2.55 24.0 2.5 26.0 2.65 26.8 2.8 27.3 3.1 27.9 3.4 28.5 3.7 28.9 4.0 29.1 4.3 29.3 4.5 29.3 4.55 30.0 4.7 30.2 4.6 30.4 4.3 30.7 4.0" fill="#663300" fill-opacity="0.2" fill-rule="evenodd" stroke="none"/>
    <path d="M31.2 8.8 L31.4 9.1 31.5 9.4 31.7 9.7 31.7 10.0 31.7 10.3 31.7 10.6 31.6 10.9 31.4 11.2 31.3 11.5 30.9 11.8 30.6 12.0 30.0 12.1 29.2 11.9 28.9 11.7 28.0 11.6 27.7 11.6 27.3 11.7 28.0 11.8 28.8 12.0 29.9 12.3 30.3 12.6 30.6 12.9 30.8 13.2 30.9 13.5 31.0 13.8 31.0 14.1 31.0 14.4 31.0 14.7 30.9 15.0 30.7 15.3 30.5 15.6 30.1 15.9 29.8 16.1 29.2 16.2 28.4 16.0 28.0 15.7 27.8 15.6 27.3 15.6 26.9 15.9 26.6 16.1 26.0 16.15 22.4 16.2 21.6 16.0 21.2 15.7 20.9 15.4 20.8 15.2 20.7 15.15 17.2 15.0 16.4 14.8 16.0 14.5 15.7 14.2 15.5 13.9 Q15.0 13.15 13.9 13.15 11.3 13.2 8.8 12.4 L8.4 12.1 8.1 11.8 7.9 11.5 7.8 11.2 7.8 10.9 7.8 10.6 7.8 10.3 7.8 10.0 7.9 9.7 8.1 9.4 8.4 9.1 8.8 8.8 9.6 8.65 13.1 8.4 13.4 8.1 13.7 7.8 14.2 7.5 14.8 7.2 15.6 7.05 17.1 6.8 17.4 6.5 17.6 6.2 17.8 5.9 17.8 5.6 17.9 5.3 18.1 5.0 18.4 4.7 18.6 4.4 18.6 4.1 18.7 3.8 18.85 3.5 19.1 3.2 19.4 2.9 20.0 2.6 20.4 2.4 20.6 2.3 21.3 2.1 21.7 1.8 22.0 1.6 22.2 1.55 22.8 1.45 22.8 1.4 24.0 1.4 24.8 1.6 25.2 1.9 25.5 2.2 25.8 2.5 26.0 2.8 26.1 3.1 26.2 3.4 26.2 3.7 26.2 4.0 26.2 4.3 26.2 4.9 26.2 5.2 26.3 5.5 26.5 5.8 26.6 6.1 26.6 6.4 26.6 6.7 26.6 7.0 26.6 7.3 26.5 7.6 26.5 7.7 29.6 8.1 30.0 8.3 30.8 8.5 31.2 8.8" fill="#663300" fill-opacity="0.2" fill-rule="evenodd" stroke="none"/>
    <path d="M6.8 5.1 L7.6 4.95 7.6 4.9 8.4 4.9 9.0 5.1 9.25 5.4 9.4 5.7 9.5 6.0 9.5 6.3 9.5 6.6 9.4 6.9 9.3 7.2 9.1 7.5 8.8 7.7 8.4 7.8 7.2 7.7 6.6 7.5 6.4 7.2 6.3 6.9 6.3 6.6 6.15 6.3 6.1 6.0 6.15 5.75 6.4 5.4 6.8 5.1" fill="#663300" fill-opacity="0.2" fill-rule="evenodd" stroke="none"/>
    <path d="M28.4 12.3 L29.2 12.5 29.7 12.8 30.3 13.1 30.6 13.4 30.9 13.7 31.2 14.0 31.4 14.3 31.7 14.9 31.7 15.2 31.7 15.5 31.7 15.8 31.85 16.05 32.2 16.4 32.5 16.7 32.6 17.0 32.7 17.3 32.8 17.6 32.8 17.9 32.8 18.2 32.8 18.5 32.7 18.8 32.6 19.1 32.4 19.4 32.1 19.7 31.8 19.9 31.2 19.95 30.0 20.0 29.2 19.8 28.8 19.5 28.5 19.2 28.35 19.1 28.1 19.3 27.9 19.6 27.6 19.9 27.1 20.2 26.4 20.4 24.8 20.35 24.2 20.3 24.0 20.2 12.8 20.3 12.65 20.6 12.4 20.9 12.0 21.2 11.2 21.4 10.0 21.35 9.0 21.25 7.4 20.6 4.8 20.35 4.0 20.2 3.5 20.2 2.9 20.5 2.6 20.8 2.4 21.0 2.2 21.1 1.6 21.15 0.0 21.2 -0.8 21.0 -2.0 20.45 -3.6 19.8 -4.0 19.6 -4.6 19.7 -4.9 20.0 -5.2 20.3 -5.7 20.6 -6.4 20.8 -14.0 20.8 -14.8 20.6 -15.2 20.3 -15.5 20.0 -16.1 20.2 -16.5 20.5 -17.2 20.7 Q-22.85 20.1 -28.4 20.7 L-28.8 20.7 -29.5 20.5 -29.9 20.2 -30.2 19.9 -30.4 19.6 -30.5 19.3 -30.5 19.0 -30.4 18.7 -30.3 18.4 -30.2 18.1 -30.0 17.8 -29.8 17.5 -29.7 17.2 -29.4 16.9 -29.1 16.6 -28.7 16.3 -28.1 16.0 -27.7 15.8 -27.2 15.75 -26.4 15.7 -25.7 15.9 -25.2 16.0 -24.5 15.8 -22.8 15.6 Q-21.45 15.7 -21.1 14.9 L-21.0 14.6 -20.8 14.3 -20.5 14.0 -20.1 13.8 -19.6 13.75 -18.4 13.7 -17.7 13.95 -17.1 14.2 -16.5 14.2 -16.2 13.9 -15.8 13.7 -15.2 13.6 -14.8 13.6 -14.1 13.8 -13.6 14.1 -13.3 14.4 -13.0 14.7 -8.8 14.8 -1.2 15.6 -0.5 15.8 0.0 16.1 0.3 16.4 0.5 16.7 0.6 17.0 0.7 17.3 0.85 17.5 1.2 17.6 1.8 17.3 2.4 17.0 3.2 16.8 4.4 16.8 8.9 17.1 10.8 16.7 18.9 16.6 23.9 16.5 23.9 16.2 23.9 15.9 23.9 15.6 24.25 15.05 24.85 14.45 Q25.5 13.9 26.3 13.5 L26.5 13.2 26.7 12.9 27.0 12.6 27.4 12.4 28.0 12.35 28.0 12.3 28.4 12.3" fill="#663300" fill-opacity="0.2" fill-rule="evenodd" stroke="none"/>
    <path d="M8.8 15.0 L8.9 15.3 9.0 15.6 9.05 15.85 9.5 16.2 9.8 16.5 10.0 16.55 10.8 16.6 11.6 16.8 12.1 17.1 12.7 17.4 13.0 17.7 13.3 18.0 13.4 18.3 13.6 18.6 13.65 18.9 13.8 19.2 13.5 19.5 13.3 19.8 12.8 20.1 12.4 20.4 11.6 20.6 10.8 20.6 10.0 20.6 8.4 20.6 7.6 20.4 7.2 20.1 6.9 19.8 6.8 19.6 6.7 19.55 6.1 19.6 5.8 19.9 5.5 20.2 5.2 20.4 5.0 20.5 4.4 20.55 3.6 20.6 2.8 20.4 2.4 20.1 2.2 19.9 2.1 19.85 0.5 19.9 0.2 20.2 -0.1 20.5 -0.7 20.8 -1.2 21.1 -2.0 21.25 -3.2 21.35 -5.2 21.4 -8.0 20.6 -14.8 19.2 -15.3 18.9 -16.45 18.4 -19.4 17.1 -19.7 16.8 -20.0 16.5 -20.3 16.2 -20.6 15.9 -20.9 15.6 -21.0 15.3 -21.0 15.0 -21.0 14.7 -21.0 14.4 -21.0 14.1 -21.0 13.5 -20.85 13.2 -20.6 12.9 -20.3 12.6 -19.8 12.3 -18.6 11.75 -17.3 10.8 -17.0 10.5 -16.3 10.2 -14.85 9.55 -13.6 8.8 -13.4 8.75 -12.8 8.65 -12.8 8.6 -11.6 8.6 -10.8 8.8 -10.2 9.1 -9.7 9.4 -9.4 9.7 -9.1 10.0 -8.9 10.3 -8.7 10.6 -8.6 10.9 -8.6 11.2 -8.6 11.5 -8.45 11.8 -8.2 12.1 -7.6 12.4 -7.2 12.7 -6.5 13.0 -5.8 13.3 -4.6 13.9 -4.0 14.2 -3.2 14.4 -2.8 14.7 -2.5 15.0 -2.3 15.2 -2.0 15.15 -1.8 15.1 -1.2 15.05 0.8 15.0 1.6 15.2 2.2 15.5 2.8 15.8 3.2 16.0 4.0 16.0 4.7 15.75 5.3 15.5 6.0 15.2 6.3 14.9 6.6 14.6 6.9 14.4 7.1 14.3 7.6 14.2 8.3 14.4 8.6 14.7 8.8 15.0 M-12.3 12.4 L-12.4 12.4 -12.6 12.5 -13.2 12.8 -13.8 13.1 -14.5 13.4 -15.2 13.7 -15.5 14.0 -15.9 14.3 -16.1 14.6 -15.2 14.8 -14.8 14.7 -14.5 14.4 -14.2 14.1 -13.9 13.8 -13.6 13.5 -13.0 12.9 -12.4 12.55 -12.3 12.4" fill="#663300" fill-opacity="0.2" fill-rule="evenodd" stroke="none"/>
    <path d="M6.15 -11.6 L11.75 -11.05 Q15.05 -10.85 18.3 -10.9 L18.55 -11.05 18.95 -11.25 19.2 -11.4 19.75 -11.45 30.65 -11.6 Q33.0 -12.2 35.5 -11.7 L35.9 -11.7 38.25 -11.4 38.65 -11.2 38.8 -11.0 39.0 -10.85 39.1 -10.65 39.3 -10.25 39.35 -10.1 39.4 -9.9 39.35 -9.7 39.3 -9.5 39.25 -9.35 39.15 -9.15 39.0 -8.95 38.75 -8.8 38.55 -8.65 38.4 -8.6 33.5 -8.4 33.0 -8.25 28.5 -8.15 28.0 -8.0 11.0 -8.25 7.65 -8.55 5.4 -9.0 -6.5 -8.95 -7.0 -8.85 Q-21.35 -9.35 -35.6 -8.3 L-37.25 -8.25 -37.75 -8.4 -38.05 -8.6 -38.5 -8.95 -38.85 -9.35 -39.05 -9.55 -39.35 -9.9 -39.4 -10.1 -39.45 -10.25 -39.45 -10.45 -39.4 -10.85 -39.35 -11.0 -39.3 -11.2 -39.2 -11.4 -39.0 -11.6 -38.75 -11.7 -38.6 -11.75 -38.25 -11.8 -38.25 -11.85 -36.5 -11.85 -36.0 -11.7 -35.7 -11.5 -35.55 -11.35 Q-32.15 -10.7 -28.7 -11.2 L-25.45 -11.5 -25.1 -11.65 5.25 -11.65 6.15 -11.6" fill="#333333" fill-opacity="0.2" fill-rule="evenodd" stroke="none"/>
    <path d="M-29.95 -16.0 L-29.85 -15.85 -29.8 -15.65 -29.8 -15.45 -29.8 -15.25 -29.8 -15.1 -29.8 -14.9 -29.85 -14.7 -29.95 -14.5 -30.05 -14.35 -30.25 -14.15 -30.45 -14.0 Q-31.45 -13.8 -32.5 -14.0 L-32.95 -14.1 -33.2 -14.3 -33.35 -14.5 -33.45 -14.65 -33.45 -14.85 -33.4 -15.0 -33.35 -15.2 -33.3 -15.4 -33.3 -15.6 -33.3 -15.75 -33.25 -15.95 -33.1 -16.15 -32.95 -16.35 -32.55 -16.65 -32.25 -16.7 -31.65 -16.8 -31.35 -16.85 -31.0 -16.85 -31.0 -16.9 -30.55 -16.75 -30.3 -16.6 -30.2 -16.4 -30.0 -16.2 -29.95 -16.0" fill="#333333" fill-opacity="0.2" fill-rule="evenodd" stroke="none"/>
    <path d="M-9.6 -16.5 L-9.5 -16.35 -9.45 -16.15 -9.35 -15.95 -9.3 -15.75 -9.3 -15.6 -9.3 -15.4 -9.3 -15.2 -9.3 -15.05 -9.35 -14.65 -9.45 -14.45 -9.55 -14.25 -9.8 -14.1 -10.05 -13.9 -10.5 -13.75 -10.75 -13.8 -11.05 -13.85 -11.5 -13.95 -11.95 -14.1 -12.2 -14.3 -12.35 -14.5 -12.45 -14.65 -12.45 -14.85 -12.4 -15.0 -12.4 -15.2 -12.35 -15.4 -12.35 -15.75 -12.3 -15.95 -12.25 -16.15 -12.05 -16.35 -11.85 -16.5 -11.7 -16.7 -11.45 -16.9 -11.0 -17.0 -10.5 -17.0 -10.05 -16.9 -9.85 -16.7 -9.6 -16.5" fill="#333333" fill-opacity="0.2" fill-rule="evenodd" stroke="none"/>
    <path d="M13.15 -16.1 L13.4 -15.7 13.4 -15.5 13.45 -15.35 13.45 -15.15 13.45 -14.95 13.45 -14.75 13.35 -14.6 13.25 -14.4 13.15 -14.2 12.95 -14.1 12.8 -14.05 12.5 -14.0 11.25 -14.0 10.8 -14.15 10.55 -14.35 10.45 -14.5 10.4 -14.7 10.4 -14.9 10.4 -15.25 10.4 -15.65 10.4 -15.85 10.45 -16.0 10.55 -16.2 10.75 -16.4 10.95 -16.6 11.2 -16.7 11.5 -16.75 12.25 -16.75 12.7 -16.65 12.85 -16.45 13.0 -16.25 13.15 -16.1" fill="#333333" fill-opacity="0.2" fill-rule="evenodd" stroke="none"/>
    <path d="M33.55 -16.5 L33.8 -16.35 33.95 -16.15 34.05 -15.95 34.0 -15.8 33.8 -15.6 33.75 -15.4 33.7 -15.2 33.7 -15.0 33.6 -14.85 33.5 -14.65 33.35 -14.45 33.2 -14.3 32.95 -14.1 32.5 -13.95 32.25 -14.0 31.95 -14.05 31.55 -14.15 31.3 -14.35 31.2 -14.5 31.05 -14.7 30.95 -14.9 30.95 -15.1 30.95 -15.25 30.95 -15.45 30.95 -15.65 31.0 -15.85 31.05 -16.0 31.15 -16.2 31.25 -16.4 31.45 -16.6 31.65 -16.7 31.7 -16.75 32.0 -16.8 32.0 -16.85 32.25 -16.8 32.55 -16.75 32.75 -16.75 33.25 -16.65 33.55 -16.5" fill="#333333" fill-opacity="0.2" fill-rule="evenodd" stroke="none"/>
    <path d="M24.2 17.05 L24.7 17.25 24.8 17.4 24.55 17.4 24.2 17.3 22.9 17.1 22.9 17.05 23.0 17.0 24.2 17.05" fill="#333333" fill-opacity="0.2" fill-rule="evenodd" stroke="none"/>
    <path d="M22.0 16.3 L22.5 16.35 22.9 16.5 23.05 16.65 23.2 16.85 23.25 17.05 23.25 17.25 23.25 17.4 23.25 17.6 23.25 17.8 23.2 17.95 23.15 18.15 23.05 18.35 22.95 18.5 22.8 18.5 22.3 18.6 22.05 18.75 21.75 18.75 21.5 18.8 21.05 18.65 20.75 18.5 20.55 18.3 20.45 18.1 20.45 17.9 20.45 17.75 20.5 17.55 20.8 17.15 21.15 16.6 21.3 16.4 21.75 16.3 22.0 16.3" fill="#333333" fill-opacity="0.2" fill-rule="evenodd" stroke="none"/>
    <path d="M1.25 15.65 L1.7 15.8 1.95 16.0 2.05 16.15 2.15 16.35 2.15 16.55 2.2 16.75 2.2 16.9 2.2 17.1 2.25 17.3 2.3 17.5 2.3 17.65 2.3 17.85 2.25 18.05 2.2 18.25 2.05 18.4 1.95 18.55 1.8 18.6 1.55 18.65 1.3 18.7 1.0 18.8 0.25 18.7 -0.25 18.65 -0.7 18.55 -0.85 18.35 -1.0 18.15 -1.05 17.95 -1.05 17.8 -1.05 17.6 -1.05 17.4 -1.0 17.25 -0.8 17.05 -0.6 16.85 -0.25 16.5 0.05 16.3 0.2 16.1 0.4 15.9 0.55 15.8 0.7 15.75 1.0 15.7 1.0 15.65 1.25 15.65" fill="#333333" fill-opacity="0.2" fill-rule="evenodd" stroke="none"/>
    <path d="M-19.6 17.8 L-19.6 18.0 -19.7 18.15 -19.8 18.35 -19.95 18.55 -20.15 18.7 -20.3 18.85 -20.45 18.9 -21.75 18.9 -22.7 18.75 -22.85 18.55 -23.05 18.35 -23.25 18.15 -23.45 18.0 -23.6 17.8 -23.65 17.6 -23.7 17.4 -23.7 17.25 -23.7 17.05 -23.7 16.85 -23.7 16.65 -23.6 16.5 -23.5 16.3 -23.3 16.1 -23.05 16.0 -22.75 15.95 -22.75 15.9 -21.25 15.95 -20.3 16.1 -20.05 16.3 -19.9 16.5 -19.75 16.65 -19.7 16.85 -19.65 17.05 -19.6 17.25 -19.6 17.4 -19.6 17.6 -19.6 17.8" fill="#333333" fill-opacity="0.2" fill-rule="evenodd" stroke="none"/>
    <path d="M38.6 -15.15 L39.1 -15.5 40.2 -15.7 40.25 -15.75 40.75 -15.75 41.75 -15.5 42.35 -15.15 42.75 -14.75 42.9 -14.4 43.1 -14.0 43.2 -13.65 43.25 -13.25 43.35 -12.9 43.35 -12.5 43.35 -12.15 43.25 -11.75 43.1 -11.4 43.0 -11.0 42.7 -10.65 42.35 -10.25 41.75 -9.9 40.75 -9.65 39.35 -9.4 39.0 -9.0 38.6 -8.65 38.25 -8.25 37.85 -7.9 37.25 -7.5 36.25 -7.25 12.25 -6.75 -5.25 -6.75 -6.4 -7.0 -21.75 -7.0 -22.75 -6.75 -31.25 -6.5 -32.25 -6.25 -35.25 -6.25 -36.4 -6.5 -36.85 -6.9 -37.25 -7.25 -37.5 -7.65 -37.65 -8.0 -37.75 -8.4 -37.75 -8.75 -37.75 -9.15 -37.75 -9.4 -38.25 -9.75 -39.0 -9.9 -39.75 -10.05 -40.75 -10.25 -41.25 -10.65 -41.6 -11.0 -41.9 -11.4 -42.0 -11.75 -42.0 -12.15 -42.0 -12.5 -42.0 -12.9 -41.85 -13.25 -41.5 -13.65 -41.1 -14.0 -40.65 -14.4 -39.75 -14.65 -30.0 -14.4 -29.0 -14.25 -8.15 -14.5 -7.5 -14.75 29.75 -14.9 30.75 -14.65 31.6 -14.65 38.6 -15.15" fill="#333333" fill-opacity="0.2" fill-rule="evenodd" stroke="none"/>
    <path d="M26.1 17.1 L32.25 17.35 33.1 17.6 33.6 17.95 33.85 18.35 34.1 18.75 34.25 19.1 34.2 19.45 34.1 19.85 34.0 20.2 33.7 20.55 33.35 20.95 33.0 21.2 32.25 21.3 25.25 21.35 24.25 21.1 -8.75 20.85 -32.9 19.95 -34.0 19.7 -34.25 19.35 -34.4 18.95 -34.35 18.6 -34.25 18.25 -34.0 17.95 -33.75 17.9 Q-12.5 16.45 8.75 16.85 L25.25 16.85 26.1 17.1" fill="#333333" fill-opacity="0.2" fill-rule="evenodd" stroke="none"/>
    <path d="M-12.75 12.2 L-11.75 12.45 -11.25 12.7 -10.25 12.95 -9.8 13.35 -9.0 14.1 -8.65 14.5 -8.05 15.25 -7.65 15.95 -7.65 16.35 -7.65 16.7 -7.65 17.1 -7.65 17.45 -7.65 18.2 -7.65 18.95 -7.65 19.35 -7.7 19.7 -7.85 20.1 -8.05 20.45 -8.25 20.85 -8.75 21.2 -9.75 21.45 -10.9 21.35 -11.25 21.6 -11.5 21.7 -12.25 21.8 -12.75 21.85 -13.75 21.6 -14.25 21.2 -14.5 20.85 -14.9 20.6 -15.75 20.85 -19.75 20.85 -20.75 20.6 -21.5 20.2 Q-21.85 20.05 -22.15 19.85 L-22.4 19.45 -22.65 19.1 -22.75 18.7 -22.75 18.35 -22.75 17.95 -22.75 17.6 -22.75 17.2 -22.75 16.85 -22.6 16.5 -22.4 16.1 -22.4 15.7 -22.4 15.35 -22.2 15.0 -21.6 14.25 -20.7 13.55 -18.75 12.45 -18.5 12.4 -17.75 12.3 -17.75 12.2 -12.75 12.2" fill="#333333" fill-opacity="0.2" fill-rule="evenodd" stroke="none"/>
    <path d="M22.1 12.75 L22.85 13.1 23.35 13.35 24.35 13.6 26.1 14.15 Q27.1 14.55 28.0 15.2 L28.25 15.6 28.45 16.0 28.6 16.35 28.7 16.7 28.75 17.1 28.75 17.45 28.75 18.2 28.7 18.95 28.6 19.35 28.45 19.7 28.2 20.05 27.85 20.45 27.5 20.7 26.75 20.8 25.25 20.8 24.25 20.7 23.85 20.95 23.25 21.05 22.75 21.05 22.1 20.95 21.35 20.7 20.95 20.35 20.6 20.1 20.1 20.45 19.2 20.65 17.75 20.85 16.75 20.6 16.25 20.2 16.0 19.85 15.85 19.45 15.75 19.1 15.75 18.7 15.75 18.35 15.75 17.6 15.75 16.85 15.9 16.5 16.1 16.1 16.4 15.75 17.1 14.95 17.35 14.6 17.5 14.2 17.6 13.85 18.0 13.45 18.6 13.1 19.35 12.7 20.2 12.55 20.25 12.45 21.25 12.45 22.1 12.75" fill="#333333" fill-opacity="0.2" fill-rule="evenodd" stroke="none"/>
    <path d="M32.2 13.15 L32.25 13.1 33.1 13.35 33.45 13.75 33.7 14.1 33.85 14.45 33.9 15.2 34.0 16.75 34.1 18.2 34.1 18.6 33.95 18.95 33.75 19.35 33.5 19.7 32.75 20.1 31.75 20.35 31.0 20.2 30.75 20.1 29.85 19.85 29.35 19.45 29.15 19.1 29.0 18.7 28.9 18.35 28.85 17.95 28.85 17.6 29.0 17.2 29.1 16.85 29.25 16.45 29.25 16.1 29.25 15.7 29.25 15.35 29.4 15.0 29.65 14.6 30.0 14.2 30.75 13.85 31.1 13.45 31.6 13.2 32.2 13.15" fill="#333333" fill-opacity="0.2" fill-rule="evenodd" stroke="none"/>
    <path d="M40.35 -21.65 L41.2 -21.85 41.25 -21.9 41.85 -21.65 42.2 -21.25 42.5 -20.9 42.45 -20.55 42.4 -20.15 42.35 -19.4 42.35 -18.65 42.45 -18.3 42.7 -17.9 42.85 -17.55 42.95 -17.15 43.0 -16.8 43.0 -16.4 42.85 -16.05 42.75 -15.65 42.6 -15.3 42.5 -14.9 42.3 -14.6 41.75 -14.3 41.1 -14.55 40.85 -14.9 40.75 -15.3 40.75 -15.65 40.4 -16.05 40.1 -16.4 39.6 -16.8 39.4 -17.15 39.25 -17.55 39.15 -18.3 39.1 -19.05 39.15 -20.15 39.25 -20.55 39.4 -20.9 39.75 -21.3 40.35 -21.65" fill="#333333" fill-opacity="0.2" fill-rule="evenodd" stroke="none"/>
    <path d="M38.6 -9.05 L38.7 -8.65 38.75 -8.3 38.75 -7.9 38.75 -7.15 38.6 -6.8 38.35 -6.05 38.1 -5.3 37.85 -4.55 37.85 -4.15 37.9 -3.8 37.95 -3.4 38.0 -3.05 37.85 -2.7 37.35 -1.9 36.85 -1.15 36.75 -0.8 36.65 -0.4 36.6 -0.05 36.5 0.35 36.35 0.7 36.1 1.1 36.0 1.45 35.85 1.85 35.6 2.6 35.5 2.95 35.25 3.35 35.15 3.7 35.1 4.1 35.1 4.45 34.95 4.85 34.75 5.2 34.75 5.6 34.75 5.95 34.75 6.35 34.75 6.7 34.7 7.05 34.5 7.5 34.35 7.85 34.25 8.2 34.25 8.6 34.2 8.95 34.1 9.7 33.95 10.1 33.7 10.45 33.4 10.85 33.1 11.2 33.0 11.6 32.85 11.95 32.75 12.35 32.55 12.7 32.2 13.05 31.85 13.35 31.25 13.45 30.35 13.2 30.0 12.8 29.75 12.45 29.65 12.1 29.6 11.7 29.65 11.35 29.75 10.6 29.9 10.25 30.45 9.45 30.85 8.7 31.1 8.35 31.2 7.95 31.25 7.6 31.25 7.2 31.3 6.85 31.5 6.45 31.75 6.1 31.75 5.7 31.75 5.35 31.75 4.95 31.75 4.6 31.9 4.25 32.1 3.85 32.35 3.45 32.4 3.1 32.5 2.7 32.65 2.35 32.85 1.95 33.0 1.6 33.1 1.2 33.35 0.45 33.5 0.1 33.7 -0.3 33.9 -0.65 34.1 -1.05 34.25 -1.4 34.35 -1.8 34.5 -2.15 34.75 -2.55 35.0 -2.9 35.25 -3.3 35.5 -3.65 35.6 -4.05 35.6 -4.4 35.6 -4.8 35.6 -5.15 35.75 -5.55 35.85 -5.9 36.0 -6.3 36.25 -6.65 36.5 -7.05 36.75 -7.4 36.75 -7.8 36.75 -8.15 36.75 -8.55 36.8 -8.9 37.0 -9.3 37.25 -9.45 37.7 -9.6 37.75 -9.65 38.35 -9.4 38.6 -9.05" fill="#333333" fill-opacity="0.2" fill-rule="evenodd" stroke="none"/>
    <path d="M12.75 -12.95 L13.25 -13.1 13.5 -13.15 16.25 -13.35 17.25 -13.1 18.25 -12.85 19.0 -12.7 19.25 -12.6 33.85 -12.05 36.75 -11.7 37.35 -11.35 37.75 -10.95 37.9 -10.6 38.1 -10.2 38.25 -9.85 38.25 -9.45 38.2 -9.1 38.1 -8.7 37.85 -8.35 37.9 -7.95 38.0 -7.6 38.1 -7.2 38.1 -6.85 38.1 -6.1 38.1 -4.95 38.1 -4.6 38.1 -3.85 38.1 -3.1 38.1 -2.7 38.1 -2.35 38.0 -1.95 37.9 -1.6 37.85 -1.2 37.7 -0.45 37.6 -0.1 37.5 0.3 37.35 0.65 37.15 1.05 36.95 1.4 36.75 1.8 36.6 2.15 36.5 2.55 36.35 2.9 36.25 3.3 36.25 3.65 36.0 4.05 35.85 4.4 35.75 4.8 35.5 5.15 35.25 5.55 35.0 5.9 34.85 6.3 34.75 6.65 34.5 7.05 34.35 7.4 34.25 7.8 34.0 8.15 33.75 8.55 33.7 8.9 33.6 9.3 33.4 9.7 33.25 10.05 32.85 10.4 32.25 10.8 31.25 11.0 30.5 11.15 29.95 11.5 29.5 11.8 29.0 11.9 28.25 12.0 27.75 12.05 26.75 12.05 26.1 12.3 25.75 12.55 24.75 12.7 13.75 12.8 12.75 12.55 12.25 12.15 11.95 12.0 7.75 11.55 6.5 11.55 4.85 12.1 0.25 12.4 -0.75 12.15 -1.25 11.9 -2.25 12.05 -3.25 12.3 -4.75 12.3 -5.75 12.05 -6.25 11.65 -6.25 11.75 -6.3 11.85 -6.3 11.95 -6.4 12.05 -6.5 12.1 -6.55 12.2 -6.75 12.2 -7.75 12.2 -8.0 12.15 -8.15 12.05 -8.3 11.95 -8.4 11.85 -8.5 11.8 -8.5 11.85 -8.55 11.95 -8.55 12.05 -8.65 12.1 -8.75 12.2 -8.8 12.3 -9.0 12.3 -9.25 12.25 -9.4 12.15 -9.55 12.05 -9.6 11.95 -9.65 11.85 -9.65 11.8 -9.65 11.7 -9.65 11.6 -9.65 11.5 -9.65 11.4 -9.65 11.3 -9.65 11.1 -9.65 10.95 -9.65 10.85 -9.45 10.55 -9.2 10.3 -8.4 9.65 -8.3 9.65 -8.15 9.6 -7.75 9.6 -7.75 9.55 -7.15 9.55 -7.0 9.6 -7.0 9.4 -7.0 9.05 -6.85 8.7 -6.6 8.3 -6.25 7.9 -5.9 7.55 -5.5 7.15 -5.0 6.9 -4.25 6.8 -2.15 6.55 -1.75 6.15 -1.4 5.8 -1.4 5.75 -1.45 5.65 -1.5 5.55 -1.55 5.45 -1.55 5.3 -1.55 5.2 -1.55 5.1 -1.55 4.9 -1.5 4.55 -1.4 4.35 -1.35 4.25 -1.25 4.15 -1.25 4.05 -1.25 3.95 -1.25 3.85 -1.2 3.8 -1.05 3.6 -0.9 3.5 -0.75 3.4 -0.5 3.3 -0.25 3.25 0.5 3.25 0.7 3.3 0.8 3.35 1.1 3.4 1.35 3.45 1.6 3.55 1.7 3.65 1.8 3.75 1.85 3.85 1.85 3.95 1.9 4.05 1.9 4.1 1.9 4.3 1.9 4.4 1.9 4.5 1.9 4.6 1.9 4.65 4.05 4.25 4.0 4.05 3.9 3.65 3.85 3.3 3.85 2.9 3.9 2.55 4.0 1.8 4.15 1.45 4.35 1.05 4.4 0.7 4.25 0.3 4.0 -0.1 3.75 -0.45 3.6 -0.85 3.25 -1.2 2.5 -1.6 1.75 -1.95 0.35 -2.7 0.0 -3.1 -0.4 -3.45 -0.75 -3.85 -1.1 -4.25 -1.5 -4.95 -1.5 -5.2 -1.5 -5.25 -1.8 -5.25 -1.75 -5.15 -1.75 -5.05 -1.7 -4.95 -1.65 -4.85 -1.65 -4.65 -1.65 -4.45 -1.65 -4.3 -1.7 -4.0 -1.7 -3.7 -1.7 -3.65 -1.75 -3.55 -1.75 -3.45 -1.8 -3.35 -1.85 -3.25 -1.9 -3.15 -2.0 -3.05 -2.1 -3.0 -2.25 -3.0 -2.85 -2.9 -3.0 -2.8 -3.05 -2.75 -3.25 -2.7 -3.5 -2.65 -4.25 -2.65 -4.5 -2.7 -4.75 -2.8 -4.9 -2.9 -5.0 -2.95 -5.05 -3.05 -5.1 -3.15 -5.15 -3.25 -5.25 -3.45 -5.35 -3.55 -5.5 -3.7 -5.55 -3.9 -5.55 -4.1 -5.55 -4.3 -5.55 -4.55 -5.55 -4.6 -7.25 -4.1 -8.85 -4.3 Q-9.95 -4.55 -10.9 -5.05 L-11.25 -5.2 -12.15 -5.45 -12.65 -5.85 -12.9 -6.2 -13.0 -6.6 -13.15 -6.95 -13.25 -7.35 -23.25 -7.7 -24.25 -8.0 -25.15 -8.35 -26.0 -8.35 -25.75 -8.7 -25.75 -9.0 -26.25 -9.5 -27.1 -10.2 -27.9 -10.95 -28.0 -11.35 -28.0 -11.7 -28.0 -12.1 -28.0 -12.45 -27.85 -12.8 -27.6 -13.15 -24.9 -13.6 -23.25 -13.6 -22.75 -13.25 -22.25 -12.95 -9.25 -12.6 -8.0 -12.45 -3.4 -13.0 -0.25 -13.5 0.75 -13.7 4.25 -13.7 5.35 -13.45 6.75 -13.2 7.75 -12.95 8.25 -12.95 10.25 -12.95 12.75 -12.95 M-25.95 -14.1 L-26.95 -13.75 -26.75 -13.95 -25.95 -14.1 M-14.65 -6.1 L-14.4 -6.1 -14.2 -6.05 -14.1 -5.95 -14.0 -5.95 -13.85 -5.9 -13.7 -5.8 -13.65 -5.7 -13.6 -5.6 -13.6 -5.5 -13.6 -5.3 -13.6 -5.2 -13.6 -5.05 -13.65 -4.95 -13.7 -4.85 -13.75 -4.75 -13.85 -4.65 -13.9 -4.55 -14.0 -4.5 -14.1 -4.4 -14.25 -4.4 -14.5 -4.4 -14.75 -4.45 -14.8 -4.55 -14.9 -4.65 -14.9 -4.7 -14.9 -4.8 -15.0 -4.9 -15.05 -5.0 -15.1 -5.1 -15.1 -5.2 -15.1 -5.3 -15.15 -5.35 -15.25 -5.5 -15.3 -5.55 -15.3 -5.65 -15.3 -5.75 -15.25 -5.85 -15.2 -5.95 -15.15 -6.0 -15.05 -6.05 -14.9 -6.05 -14.65 -6.1 M-7.55 7.05 L-7.55 7.1 -7.55 7.2 -7.55 7.3 -7.55 7.4 -7.6 7.5 -7.6 7.6 -7.6 7.7 -7.6 7.8 -7.65 7.95 -7.65 8.15 -7.7 8.25 -7.75 8.35 -7.85 8.4 -8.0 8.45 -8.15 8.45 -8.65 8.35 -8.8 8.3 -8.9 8.25 -9.1 8.2 -9.15 8.1 -9.2 8.0 -9.2 7.8 -9.15 7.45 -9.15 7.05 -9.15 6.95 -9.1 6.9 -9.05 6.8 -8.95 6.7 -8.8 6.6 -8.65 6.6 -8.0 6.6 -7.8 6.65 -7.65 6.75 -7.6 6.85 -7.55 6.95 -7.55 7.05 M-12.05 8.95 L-11.9 8.85 -11.8 8.8 -11.65 8.8 -11.4 8.8 -11.25 8.85 -11.2 8.95 -11.15 9.05 -11.1 9.1 -11.1 9.2 -11.1 9.3 -11.1 9.4 -11.1 9.5 -11.15 9.6 -11.2 9.7 -11.3 9.75 -11.4 9.8 -11.9 9.8 -12.1 9.7 -12.2 9.6 -12.25 9.55 -12.25 9.45 -12.2 9.35 -12.2 9.25 -12.2 9.15 -12.15 9.05 -12.05 8.95" fill="#333333" fill-opacity="0.2" fill-rule="evenodd" stroke="none"/>
    <path d="M14.25 -1.55 L33.25 -1.55 33.75 -1.45 34.75 -1.25 35.25 -1.15 36.35 -1.3 36.85 -1.4 36.9 -1.05 36.7 -0.65 36.5 -0.4 36.25 -0.3 35.25 -0.15 34.75 -0.05 33.75 0.1 33.25 0.2 1.75 0.2 -0.25 0.15 -11.0 -0.4 -11.0 -0.75 -10.75 -1.05 -9.15 -1.2 -0.25 -1.45 -0.25 -1.55 7.75 -1.55 14.25 -1.55" fill="#333333" fill-opacity="0.2" fill-rule="evenodd" stroke="none"/>
    <path d="M-18.2 12.35 L-17.6 12.0 -17.05 11.6 -16.35 11.25 -14.85 10.8 -14.6 10.75 -14.25 10.7 -14.25 10.65 -13.5 10.65 -10.9 11.25 Q-9.4 11.75 -8.25 12.8 -7.2 13.75 -6.5 15.0 L-6.45 15.15 -6.35 15.35 -6.3 15.55 -6.3 15.75 -6.3 15.9 -6.3 16.1 -6.3 16.3 -6.3 16.5 -6.3 16.65 -6.3 17.05 -6.3 17.4 -6.3 17.8 -6.3 17.95 -6.2 18.15 -6.1 18.35 -6.0 18.55 -5.95 18.75 -5.85 18.9 -5.8 19.05 -5.5 19.3 -5.4 19.5 -5.3 19.65 -5.3 19.85 -5.3 20.05 -5.35 20.25 -5.5 20.4 -5.7 20.55 -6.0 20.6 -6.55 20.75 -7.0 20.85 -7.55 20.75 -8.0 20.8 -8.25 20.85 -9.25 20.85 -9.6 20.8 -10.25 20.85 -11.75 21.1 -14.25 21.1 -16.75 20.8 -18.0 20.6 -18.55 20.5 -18.95 20.3 -19.3 20.1 -19.7 19.9 -19.8 19.8 -20.25 19.65 -20.55 19.5 -20.75 19.3 -20.85 19.1 -20.9 18.9 -20.95 18.75 -20.95 18.55 -20.95 18.35 -20.95 18.15 -20.95 18.0 -20.95 17.6 -20.95 17.25 -20.9 16.85 -20.85 16.65 -20.8 16.5 -20.7 16.3 -20.7 16.1 -20.65 15.9 -20.6 15.75 -20.4 15.35 -20.2 15.0 -19.8 14.4 -19.25 13.65 -18.5 12.75 -18.2 12.35" fill="#333333" fill-opacity="0.2" fill-rule="evenodd" stroke="none"/>
    <path d="M24.0 10.5 L24.5 10.5 25.0 10.6 25.5 10.75 26.0 10.85 26.4 11.05 26.55 11.25 26.75 11.4 27.9 12.2 29.1 13.3 30.05 14.6 30.45 15.15 30.5 15.35 30.55 15.55 30.65 15.75 30.7 15.9 30.75 16.1 30.9 16.5 30.9 16.85 30.9 17.25 30.9 17.8 30.9 18.35 30.85 18.9 30.8 19.3 30.75 19.45 30.65 19.65 30.55 19.85 30.5 20.05 30.45 20.25 30.3 20.4 30.25 20.6 30.2 20.8 30.05 20.95 29.9 21.15 29.5 21.35 29.0 21.5 28.45 21.35 28.15 21.15 27.95 21.0 27.7 20.85 27.3 21.0 27.15 21.05 26.55 21.15 26.0 21.3 22.25 21.1 20.7 20.75 20.4 20.55 20.1 20.35 19.8 20.15 19.65 20.0 19.45 19.8 19.05 19.8 18.9 20.0 18.75 20.15 18.65 20.35 18.5 20.55 18.25 20.75 18.0 20.9 17.9 21.1 17.75 21.3 17.5 21.45 17.3 21.6 17.1 21.65 16.75 21.75 16.2 21.6 15.9 21.4 15.7 21.2 15.55 21.05 15.45 20.85 15.4 20.65 15.4 20.5 15.35 20.3 15.25 20.3 15.0 20.45 14.8 20.6 14.6 20.65 14.25 20.7 14.0 20.75 13.45 20.6 13.15 20.4 12.95 20.2 12.8 20.05 12.7 19.85 12.65 19.65 12.65 19.5 12.65 19.3 12.65 19.1 12.65 18.75 12.7 18.35 12.7 18.0 12.7 17.8 12.75 17.6 12.8 17.4 12.9 17.25 12.95 17.05 13.05 16.65 13.2 16.3 13.25 16.1 13.5 15.75 13.75 15.35 14.35 14.6 15.15 13.85 15.55 13.5 16.05 13.3 16.45 13.15 16.65 13.1 17.0 13.0 17.4 12.9 17.5 12.75 17.7 12.55 18.15 12.35 18.55 12.15 18.75 12.0 18.95 11.8 19.7 11.45 20.7 11.0 22.25 10.55 24.0 10.5" fill="#333333" fill-opacity="0.2" fill-rule="evenodd" stroke="none"/>
    <path d="M39.7 -18.95 L39.85 -18.9 39.85 -18.85 39.7 -18.95 M16.95 -17.1 L17.7 -16.25 18.3 -15.65 19.05 -14.9 19.35 -14.75 19.7 -14.65 20.0 -14.6 20.65 -14.65 21.95 -15.05 Q22.35 -15.25 22.65 -15.6 L23.0 -16.5 23.75 -16.85 25.4 -17.8 27.15 -17.7 28.3 -17.45 Q31.2 -16.5 33.65 -18.35 L34.9 -18.2 35.95 -17.9 36.05 -17.8 36.15 -17.75 36.25 -17.6 36.45 -17.5 38.05 -17.2 38.1 -17.15 38.2 -17.0 38.35 -16.9 38.5 -16.85 38.65 -16.35 38.9 -16.0 39.05 -15.8 Q39.2 -15.2 39.6 -14.75 L40.0 -14.25 40.0 -13.95 40.0 -13.05 39.85 -12.6 39.6 -12.15 39.35 -11.7 39.15 -11.45 39.0 -11.3 38.6 -10.9 38.5 -10.55 38.5 -10.15 38.5 -9.4 38.5 -9.05 38.5 -8.3 38.5 -7.55 38.5 -7.15 38.35 -6.8 38.1 -6.4 37.75 -5.65 37.6 -5.3 37.2 -4.55 37.0 -4.15 37.0 -3.8 36.95 -3.4 36.85 -3.05 36.7 -2.65 36.5 -2.3 36.25 -1.9 36.0 -1.55 35.75 -1.15 35.6 -0.8 35.25 0.35 35.1 0.7 34.75 1.85 34.5 2.6 34.25 3.7 34.1 4.85 33.95 5.2 33.75 5.6 33.6 5.95 33.5 6.35 33.25 7.1 33.1 7.45 32.9 8.2 32.7 8.95 32.6 9.35 32.45 9.7 32.25 10.1 32.1 10.45 32.1 10.85 31.95 11.2 31.6 11.95 31.35 12.35 30.95 13.1 30.5 13.85 30.35 14.2 30.25 14.6 30.0 14.95 29.45 15.3 29.0 15.6 28.25 15.7 27.75 15.7 26.75 15.45 26.1 15.1 25.75 14.7 25.5 14.6 25.0 14.7 24.25 14.85 23.1 14.6 19.75 14.15 19.0 14.15 17.75 14.2 16.85 13.95 16.5 13.7 16.35 13.65 14.75 13.45 14.0 13.2 13.75 12.85 13.6 12.45 13.65 12.1 13.75 11.75 14.0 11.45 14.25 11.35 14.75 11.25 16.5 10.95 16.75 10.6 16.75 10.2 16.75 9.85 16.75 9.45 16.75 9.1 16.75 8.7 16.9 8.35 17.15 8.0 17.85 7.2 18.25 6.85 19.0 6.1 19.35 5.7 20.1 5.3 20.6 4.95 19.6 4.6 19.1 4.2 18.75 3.85 18.05 3.05 17.85 2.7 17.75 2.35 17.75 1.6 17.75 1.2 17.75 0.85 17.75 -0.3 17.75 -1.05 17.75 -1.8 17.75 -2.15 17.55 -2.45 16.65 -3.3 16.25 -3.65 15.85 -4.05 15.8 -4.1 15.5 -3.9 15.1 -3.8 14.35 -3.8 13.9 -3.95 13.6 -4.05 13.15 -4.15 12.9 -4.35 12.7 -4.55 12.65 -4.75 12.65 -4.9 12.65 -5.3 12.65 -5.65 12.7 -6.05 12.8 -6.2 12.95 -6.4 13.4 -6.75 13.9 -7.05 12.0 -8.15 11.1 -8.45 Q9.1 -9.0 7.6 -10.35 7.1 -10.8 6.9 -11.45 L6.85 -11.55 6.85 -12.0 6.8 -12.2 4.75 -13.05 4.25 -13.5 4.4 -13.7 4.45 -13.85 4.45 -13.9 4.5 -14.0 4.5 -14.4 4.5 -14.6 4.5 -14.8 4.5 -14.9 4.45 -15.05 4.45 -15.15 4.4 -15.3 4.4 -15.4 6.65 -16.4 7.8 -16.95 Q11.2 -18.6 14.75 -17.55 L16.95 -17.1 M15.75 4.5 L15.75 4.45 16.05 4.6 16.25 4.65 16.5 4.65 16.9 4.75 17.25 4.95 17.6 5.15 17.7 5.35 17.8 5.5 17.85 5.7 17.85 6.1 17.85 6.25 17.85 6.45 17.85 6.65 17.8 6.8 17.55 7.2 17.35 7.4 17.15 7.5 16.5 7.6 15.8 7.45 15.05 7.2 14.85 7.0 14.75 6.85 14.7 6.65 14.65 6.45 14.65 6.25 14.65 6.1 14.65 5.9 14.75 5.7 14.85 5.55 15.05 5.3 15.15 5.15 15.2 4.95 15.25 4.75 15.35 4.6 15.75 4.5 M13.85 8.5 L13.85 8.6 13.85 8.65 13.85 8.75 13.85 8.85 13.8 8.95 13.8 9.05 13.8 9.15 13.8 9.25 13.8 9.35 13.8 9.4 13.75 9.5 13.7 9.6 13.65 9.7 13.6 9.8 13.5 9.9 13.4 9.95 13.25 9.95 12.5 9.95 12.25 9.9 12.15 9.8 12.1 9.7 12.05 9.6 12.05 9.5 12.05 9.4 12.0 9.35 11.95 9.25 11.95 9.15 11.95 9.05 11.95 8.95 11.95 8.85 11.95 8.75 12.0 8.7 12.1 8.6 12.2 8.5 12.45 8.3 12.55 8.25 12.6 8.2 12.75 8.2 12.75 8.15 13.25 8.2 13.4 8.2 13.6 8.25 13.75 8.3 13.8 8.4 13.85 8.5" fill="#333333" fill-opacity="0.2" fill-rule="evenodd" stroke="none"/>
    <path d="M20.25 -20.95 L32.0 -20.9 41.5 -20.45 42.05 -20.3 42.2 -20.15 42.35 -19.95 42.45 -19.75 42.45 -19.6 42.35 -19.4 42.3 -19.25 42.25 -19.2 42.0 -19.15 41.6 -19.25 41.0 -19.2 40.5 -19.15 39.75 -19.1 32.0 -18.95 Q-5.45 -18.35 -42.85 -18.95 L-43.1 -19.15 -43.25 -19.35 -43.35 -19.5 -43.4 -19.7 -43.4 -19.9 -43.4 -20.05 -43.35 -20.25 -43.25 -20.45 -43.1 -20.65 -42.85 -20.8 -42.35 -20.9 -41.6 -21.0 -41.35 -21.0 -37.35 -20.95 -36.35 -20.95 -32.85 -21.0 -28.35 -21.05 -12.5 -21.05 5.5 -21.0 20.25 -20.95" fill="#ffff99" fill-opacity="0.2" fill-rule="evenodd" stroke="none"/>
    <path d="M-41.2 -20.95 L-41.05 -20.75 -40.95 -20.55 -40.9 -20.4 -40.85 -20.2 -40.75 -17.75 -40.65 -14.95 -40.65 -12.9 -40.7 -12.7 -40.8 -12.5 -40.85 -12.35 -41.1 -12.15 -41.3 -12.0 -41.6 -11.95 -42.05 -12.05 -42.25 -12.25 -42.45 -12.45 -42.55 -15.25 -42.5 -18.45 -42.3 -20.5 -42.2 -20.7 -42.1 -20.9 -41.9 -21.0 -41.6 -21.05 -41.2 -20.95" fill="#ffff99" fill-opacity="0.2" fill-rule="evenodd" stroke="none"/>
    <path d="M-32.85 -18.05 L-32.45 -17.95 -32.3 -17.75 -32.15 -17.55 -32.1 -17.4 -32.05 -17.2 -32.05 -17.0 -32.05 -16.85 -32.1 -16.65 -32.15 -16.45 -32.3 -16.25 -32.6 -16.05 -32.8 -15.95 -33.1 -15.9 -33.55 -16.0 -33.6 -16.0 -34.05 -16.15 -34.3 -16.3 -34.4 -16.5 -34.45 -16.7 -34.45 -16.9 -34.45 -17.05 -34.45 -17.25 -34.4 -17.45 -34.3 -17.6 -34.15 -17.8 -33.9 -17.95 -33.6 -18.0 -33.15 -18.05 -32.85 -18.05" fill="#ffff99" fill-opacity="0.2" fill-rule="evenodd" stroke="none"/>
    <path d="M-13.75 -17.9 L-13.5 -17.95 -13.2 -17.95 -12.95 -18.05 -12.55 -18.15 -12.5 -18.2 -11.75 -18.2 -11.4 -18.05 -11.15 -17.9 -11.05 -17.7 -10.95 -17.5 -10.95 -17.35 -11.0 -17.15 -11.1 -16.95 -11.3 -16.75 -11.45 -16.65 -11.75 -16.55 -12.1 -16.5 -12.2 -16.45 -12.5 -16.4 -13.0 -16.45 -13.5 -16.55 -13.9 -16.65 -14.05 -16.85 -14.15 -17.0 -14.15 -17.2 -14.15 -17.4 -14.1 -17.55 -13.95 -17.75 -13.75 -17.9" fill="#ffff99" fill-opacity="0.2" fill-rule="evenodd" stroke="none"/>
    <path d="M11.1 -18.0 L11.3 -17.9 11.6 -17.75 11.85 -17.55 12.1 -17.4 12.2 -17.2 12.3 -17.0 12.3 -16.85 12.25 -16.65 12.15 -16.45 12.0 -16.25 11.8 -16.15 11.5 -16.1 11.0 -16.05 10.55 -16.2 10.35 -16.4 10.15 -16.55 10.1 -16.65 9.75 -16.75 9.5 -16.85 9.1 -16.95 9.0 -17.15 8.9 -17.3 8.95 -17.5 9.0 -17.7 9.1 -17.8 9.5 -17.95 10.25 -18.05 10.75 -18.15 11.1 -18.0" fill="#ffff99" fill-opacity="0.2" fill-rule="evenodd" stroke="none"/>
    <path d="M31.85 -18.0 L32.1 -17.8 32.3 -17.65 32.4 -17.45 32.5 -17.25 32.45 -17.1 32.45 -16.9 32.35 -16.7 32.3 -16.5 32.2 -16.3 31.95 -16.15 31.8 -16.05 30.75 -16.0 29.8 -16.2 29.6 -16.4 29.5 -16.55 29.45 -16.75 29.45 -16.95 29.45 -17.15 29.45 -17.3 29.5 -17.5 29.55 -17.7 29.7 -17.9 29.8 -18.0 29.95 -18.05 30.25 -18.1 30.25 -18.15 31.5 -18.15 31.85 -18.0" fill="#ffff99" fill-opacity="0.2" fill-rule="evenodd" stroke="none"/>
    <path d="M-37.55 -9.4 L-37.55 -9.2 -37.4 -9.0 -37.35 -8.85 -37.2 -8.65 -37.05 -8.45 -36.7 -7.9 -36.1 -7.15 -35.6 -6.55 -35.45 -6.4 -35.2 -6.0 -34.95 -5.65 -34.85 -5.45 -34.8 -5.25 -34.7 -5.05 -34.65 -4.9 -34.6 -4.7 -34.6 -4.5 -34.6 -4.3 -34.6 -4.15 -34.6 -3.95 -34.55 -3.75 -34.45 -3.55 -34.4 -3.4 -34.35 -3.2 -34.35 -3.0 -34.2 -2.85 -34.05 -2.65 -33.85 -2.45 -33.7 -2.25 -33.65 -2.05 -33.55 -1.7 -33.4 -1.3 -33.3 -0.95 -33.15 -0.75 -33.1 -0.55 -33.0 -0.2 -32.9 0.2 -32.8 0.55 -32.8 1.3 -32.8 2.25 -32.8 3.2 -32.8 3.35 -32.75 3.55 -32.6 3.75 -32.4 3.95 -32.2 4.1 -31.9 4.3 -31.6 4.5 -31.35 4.9 -30.9 5.45 Q-30.6 5.65 -30.55 6.0 L-30.5 6.2 -30.45 6.35 -30.35 6.55 -30.3 6.75 -30.3 6.95 -30.15 7.1 -30.05 7.3 -29.95 8.6 -29.9 10.1 -29.95 11.45 -29.95 11.6 -30.05 11.8 -30.15 12.0 -30.4 12.2 -30.85 12.3 -31.3 12.2 -31.5 12.0 -31.7 11.8 -31.75 11.6 -31.8 11.25 -31.8 10.85 -31.8 10.5 -32.1 9.75 -32.8 9.0 -33.2 8.45 -33.3 7.85 -33.3 7.1 -33.3 6.35 -33.3 6.0 -33.3 5.8 -33.4 5.65 -33.6 5.45 -33.9 5.25 -34.2 5.05 -34.55 4.65 -34.85 4.1 -35.2 3.55 -35.3 3.35 -35.35 3.2 -35.45 3.0 -35.5 2.6 -35.55 2.05 -35.55 1.5 -35.55 1.1 -35.6 0.95 -35.8 0.75 -35.95 0.55 -36.0 0.35 -36.05 0.2 -36.05 0.0 -36.1 -0.2 -36.7 -0.95 -37.5 -1.85 -37.95 -2.45 -38.05 -2.65 -38.1 -2.8 -38.2 -3.0 -38.3 -3.2 -38.3 -3.4 -38.35 -3.55 -38.45 -3.75 -38.5 -3.95 -38.55 -4.15 -38.55 -4.3 -38.55 -4.5 -38.55 -4.7 -38.65 -4.9 -38.7 -5.05 -38.75 -5.25 -38.8 -5.65 -38.75 -5.8 -38.7 -6.2 -38.65 -6.4 -38.55 -6.55 -38.45 -6.75 -38.4 -6.95 -38.2 -7.15 -37.9 -7.3 -38.0 -7.5 -38.1 -7.7 -38.2 -7.9 -38.25 -8.05 -38.3 -8.25 -38.4 -8.45 -38.5 -8.65 -38.6 -8.8 -38.65 -9.0 -38.65 -9.2 -38.65 -9.4 -38.8 -9.55 -38.85 -9.75 -38.9 -9.95 -38.95 -10.15 -39.05 -10.3 -39.0 -10.5 -38.9 -10.7 -38.6 -10.8 -38.3 -10.7 -38.15 -10.5 -38.1 -10.3 -37.9 -10.15 -37.85 -9.95 -37.7 -9.75 -37.6 -9.55 -37.55 -9.4 M-36.65 -5.5 L-36.65 -5.3 -36.65 -5.15 -36.65 -4.95 -36.6 -4.75 -36.55 -4.55 -36.45 -4.4 -36.4 -4.2 -36.4 -4.0 -36.4 -3.8 -36.35 -3.65 -36.25 -3.45 -36.15 -3.25 -35.95 -3.15 -36.0 -3.2 -36.1 -3.4 -36.1 -3.75 -36.1 -4.15 -36.1 -4.5 -36.1 -4.7 -36.3 -5.05 -36.5 -5.45 -36.7 -5.75 -36.7 -5.7 -36.65 -5.5" fill="#ffff99" fill-opacity="0.2" fill-rule="evenodd" stroke="none"/>
    <path d="M-33.0 12.55 L-32.9 12.4 -32.7 12.2 -32.45 12.05 -32.4 12.0 -32.1 11.95 -31.7 12.05 -31.55 12.25 -31.45 12.45 -31.45 12.6 -31.45 12.8 -31.55 13.0 -31.6 13.2 -31.45 15.25 -31.4 17.7 -31.55 19.35 -31.6 19.55 -31.7 19.75 -31.9 19.85 -32.05 19.9 -32.35 20.0 -32.8 19.85 -33.05 19.7 -33.15 19.5 -33.25 17.25 -33.15 14.6 -33.1 12.75 -33.0 12.55" fill="#ffff99" fill-opacity="0.2" fill-rule="evenodd" stroke="none"/>
    <path d="M27.55 13.05 L28.35 13.2 28.5 13.35 28.35 13.55 27.55 13.7 27.5 13.7 26.5 13.9 Q21.25 14.25 16.0 14.05 L15.5 14.05 -5.5 14.25 -31.85 14.25 -32.3 14.1 Q-32.4 14.05 -32.55 13.95 L-32.65 13.75 -32.7 13.55 -32.7 13.35 -32.7 13.2 -32.65 13.0 -32.55 12.8 -32.3 12.6 -31.85 12.55 -31.85 12.5 -17.25 12.55 -5.5 12.55 -4.25 12.55 10.0 12.65 16.5 12.7 26.5 12.85 27.55 13.05" fill="#ffff99" fill-opacity="0.2" fill-rule="evenodd" stroke="none"/>
    <path d="M39.0 0.95 L37.1 1.15 33.5 1.4 33.25 1.45 31.0 1.45 -34.7 1.3 -34.85 1.1 -34.75 0.95 -34.6 0.75 -34.35 0.6 -33.85 0.6 3.75 0.25 31.0 0.25 33.25 0.3 33.5 0.35 35.0 0.45 39.05 0.85 39.1 0.95 39.0 0.95" fill="#ffff99" fill-opacity="0.2" fill-rule="evenodd" stroke="none"/>
    <path d="M-43.35 -18.3 L-42.95 -18.2 -42.8 -18.0 -42.7 -17.8 -42.65 -17.65 -42.65 -17.45 -42.65 -17.25 -42.65 -17.05 -42.75 -16.9 -42.85 -16.7 -42.85 -16.5 -42.85 -16.3 -42.9 -16.15 -43.05 -15.95 -43.2 -15.75 -43.6 -15.65 -44.05 -15.75 -44.2 -15.95 -44.55 -16.15 -44.8 -16.3 -44.9 -16.5 -44.95 -16.7 -44.95 -16.9 -44.95 -17.25 -44.9 -17.65 -44.75 -17.8 -44.6 -18.0 -44.4 -18.15 -44.1 -18.2 -43.8 -18.25 -43.35 -18.3" fill="#ffff99" fill-opacity="0.2" fill-rule="evenodd" stroke="none"/>
    <path d="M-32.6 -16.25 L-32.65 -16.1 -32.7 -15.95 -32.85 -15.9 -33.1 -15.8 -33.85 -15.8 -34.2 -15.95 -34.35 -16.15 -34.4 -16.3 -34.35 -16.7 -34.35 -16.9 -34.35 -17.05 -34.25 -17.45 -34.2 -17.65 -34.1 -17.7 -33.85 -17.8 -33.55 -17.7 -33.4 -17.55 -33.1 -17.5 -32.8 -17.4 -32.6 -17.2 -32.5 -17.0 -32.45 -16.8 -32.5 -16.65 -32.55 -16.45 -32.6 -16.25" fill="#ffff99" fill-opacity="0.2" fill-rule="evenodd" stroke="none"/>
    <path d="M-12.5 -18.25 L-12.1 -18.1 -11.65 -17.95 -11.5 -17.75 -11.4 -17.55 -11.35 -17.4 -11.4 -17.2 -11.45 -17.0 -11.65 -16.8 -11.7 -16.65 -11.75 -16.45 -11.9 -16.25 -12.1 -16.15 -12.2 -16.1 -12.5 -16.0 -12.95 -16.15 -13.2 -16.3 -13.35 -16.5 -13.4 -16.7 -13.4 -16.9 -13.4 -17.05 -13.4 -17.25 -13.4 -17.45 -13.35 -17.65 -13.25 -17.8 -13.15 -18.0 -12.95 -18.15 -12.85 -18.2 -12.55 -18.25 -12.5 -18.25" fill="#ffff99" fill-opacity="0.2" fill-rule="evenodd" stroke="none"/>
    <path d="M10.8 -16.8 L10.8 -16.65 10.8 -16.45 10.8 -16.25 10.7 -16.1 10.6 -15.9 10.35 -15.7 10.0 -15.55 9.55 -15.7 9.35 -15.9 9.0 -15.95 8.75 -16.0 8.35 -16.15 8.2 -16.35 8.1 -16.5 8.1 -16.7 8.15 -16.85 8.5 -17.25 8.6 -17.4 8.75 -17.45 9.0 -17.5 9.4 -17.65 9.55 -17.75 9.65 -17.8 10.0 -17.85 10.0 -17.9 10.35 -17.75 10.55 -17.55 10.65 -17.4 10.75 -17.2 10.8 -17.0 10.8 -16.8" fill="#ffff99" fill-opacity="0.2" fill-rule="evenodd" stroke="none"/>
    <path d="M32.75 -16.2 L32.7 -16.0 32.65 -15.8 32.55 -15.65 32.45 -15.5 32.3 -15.45 32.0 -15.4 31.5 -15.4 30.3 -15.55 30.2 -15.75 30.05 -15.95 30.0 -16.15 29.8 -16.35 29.7 -16.5 29.6 -16.7 29.6 -16.9 29.65 -17.05 29.7 -17.25 29.8 -17.45 30.05 -17.65 30.5 -17.75 31.0 -17.75 31.5 -17.7 32.0 -17.6 32.35 -17.5 32.55 -17.3 32.7 -17.15 32.7 -16.95 32.75 -16.75 32.75 -16.55 32.75 -16.4 32.75 -16.2" fill="#ffff99" fill-opacity="0.2" fill-rule="evenodd" stroke="none"/>
    <path d="M20.85 16.45 L21.05 16.55 21.85 16.7 22.0 16.85 21.85 17.05 20.8 17.05 20.5 16.85 20.25 16.7 20.3 16.55 20.45 16.4 20.5 16.35 20.85 16.45" fill="#ffff99" fill-opacity="0.2" fill-rule="evenodd" stroke="none"/>
    <path d="M0.3 15.75 L0.3 15.95 0.3 16.1 0.3 16.3 0.4 16.5 0.4 16.7 0.45 16.85 0.4 17.05 0.35 17.25 0.25 17.45 0.05 17.55 -0.25 17.6 -0.75 17.6 -1.2 17.5 -1.7 17.3 -1.9 17.1 -2.0 16.95 -2.1 16.75 -2.3 16.35 -2.35 16.2 -2.3 16.0 -2.25 15.8 -1.95 15.45 -1.6 15.1 -1.3 15.1 -1.25 15.05 -0.5 15.05 -0.15 15.2 0.1 15.35 0.25 15.55 0.3 15.75" fill="#ffff99" fill-opacity="0.2" fill-rule="evenodd" stroke="none"/>
    <path d="M0.6 14.7 L0.85 14.85 1.0 15.05 1.1 15.25 1.1 15.45 1.05 15.6 0.9 15.8 0.8 16.0 0.6 16.35 0.35 16.55 0.0 16.7 -0.25 16.7 -0.65 16.75 -0.9 16.95 -1.2 16.95 -1.35 16.75 -1.45 16.55 -1.45 16.35 -1.45 16.2 -1.4 16.0 -1.4 15.8 -1.35 15.65 -1.2 15.45 -0.9 15.25 -0.6 15.05 -0.4 14.85 -0.2 14.7 0.2 14.6 0.25 14.55 0.6 14.7" fill="#ffff99" fill-opacity="0.2" fill-rule="evenodd" stroke="none"/>
    <path d="M18.95 -12.6 L30.6 -12.6 30.75 -12.65 32.0 -12.75 33.75 -12.85 36.75 -12.8 41.0 -12.7 42.05 -12.65 42.0 -13.6 41.9 -13.7 41.85 -13.75 41.85 -13.85 41.9 -13.95 41.9 -14.05 41.95 -14.15 42.0 -14.2 42.05 -17.35 42.2 -19.6 42.1 -19.8 Q38.25 -19.5 34.4 -19.7 L5.25 -19.9 -14.75 -19.85 -40.25 -19.85 -40.6 -19.95 -41.0 -20.1 -42.0 -20.15 -42.15 -20.15 -42.1 -18.2 -42.0 -16.15 -41.95 -15.95 -41.85 -15.75 -41.9 -15.6 -41.95 -15.2 -41.95 -15.0 -41.85 -13.5 -42.05 -12.4 -34.0 -12.65 -31.0 -12.65 -30.6 -12.5 -30.45 -12.35 -30.35 -12.25 Q-24.65 -12.65 -19.0 -12.5 L-2.75 -12.5 -0.75 -12.25 15.75 -12.6 18.25 -12.6 18.95 -12.6 M39.75 -21.1 L41.5 -21.0 42.25 -20.95 42.55 -20.85 42.7 -20.65 42.75 -20.45 42.8 -20.3 43.05 -20.2 43.4 -20.0 43.5 -19.85 43.55 -19.65 43.55 -19.45 43.5 -19.25 43.45 -19.1 43.4 -18.9 43.4 -18.7 43.55 -18.65 43.75 -18.6 44.05 -18.5 44.2 -18.4 44.35 -18.3 44.5 -18.2 44.6 -18.1 44.65 -18.0 44.7 -17.95 44.8 -17.85 44.95 -17.65 45.05 -17.45 45.1 -17.35 45.15 -17.25 45.2 -17.2 45.2 -17.1 45.25 -17.0 45.3 -16.9 45.3 -16.8 45.3 -16.6 45.3 -16.5 45.3 -16.45 45.3 -16.25 45.3 -15.95 45.3 -15.7 45.3 -15.6 45.25 -15.5 45.25 -15.4 45.2 -15.3 45.15 -15.2 45.1 -15.1 44.85 -14.85 44.6 -14.55 44.0 -14.0 43.7 -13.8 43.55 -13.75 43.5 -13.7 43.5 -13.65 43.45 -12.5 43.5 -12.5 43.8 -12.4 44.0 -12.2 44.1 -12.0 44.15 -11.85 44.05 -11.65 43.95 -11.45 43.75 -11.35 43.5 -11.3 43.25 -11.25 43.2 -11.2 43.0 -11.1 42.75 -11.0 42.4 -11.15 42.25 -11.15 Q36.5 -10.55 30.8 -11.2 L22.7 -11.1 22.55 -11.1 22.45 -10.95 22.3 -10.9 Q9.15 -10.45 -4.0 -11.2 L-4.3 -11.35 -4.35 -11.35 Q-17.35 -10.85 -30.35 -11.55 L-30.45 -11.4 -30.55 -11.25 Q-36.5 -11.0 -42.5 -11.35 L-42.85 -11.45 -43.0 -11.65 -43.05 -11.85 -43.05 -12.0 -43.15 -12.05 -43.35 -12.2 -43.45 -12.4 -43.55 -12.75 -43.6 -12.95 -43.65 -13.9 -43.65 -14.0 -43.75 -14.0 -43.95 -14.1 -44.25 -14.3 -44.4 -14.4 -44.5 -14.5 -44.7 -14.65 -45.0 -15.05 -45.15 -15.35 -45.2 -15.4 -45.2 -15.5 -45.25 -15.6 -45.3 -15.7 -45.3 -16.0 -45.25 -16.55 -45.25 -16.85 -45.25 -17.2 -45.2 -17.5 -45.15 -17.55 -45.05 -17.75 -44.85 -18.05 -44.65 -18.3 -44.55 -18.4 -44.4 -18.5 -44.3 -18.6 -44.2 -18.7 -44.05 -18.8 -43.9 -18.9 -43.75 -18.95 -43.6 -19.0 -43.5 -19.0 -43.4 -19.0 -43.25 -20.85 -43.2 -20.9 -43.15 -21.05 -43.05 -21.2 -43.0 -21.25 -42.75 -21.3 -42.75 -21.35 -42.45 -21.2 -42.0 -21.2 -41.0 -21.2 -40.5 -21.2 -40.2 -21.1 Q-3.85 -20.75 32.5 -21.05 L33.75 -21.05 35.8 -21.1 36.75 -21.15 39.75 -21.1 M38.4 -16.15 L38.75 -15.95 39.15 -15.65 39.4 -15.4 39.6 -15.35 39.75 -15.3 39.95 -15.1 40.15 -14.9 40.5 -14.65 40.6 -14.55 40.75 -14.45 40.8 -14.35 40.8 -14.25 40.75 -14.15 40.7 -14.1 40.6 -14.1 40.35 -14.1 40.15 -14.15 39.9 -14.35 39.6 -14.6 39.25 -14.85 39.05 -14.9 38.95 -15.0 38.85 -15.1 38.8 -15.2 38.6 -15.4 38.5 -15.5 38.45 -15.55 38.4 -15.65 38.35 -15.75 38.3 -15.85 38.25 -16.05 38.25 -16.15 38.35 -16.15 38.4 -16.15 M40.4 -16.8 L40.5 -16.85 40.75 -16.85 40.9 -16.8 40.95 -16.7 40.95 -16.6 40.9 -16.5 40.85 -16.45 40.75 -16.4 40.5 -16.4 40.35 -16.5 40.3 -16.6 40.3 -16.65 40.3 -16.75 40.4 -16.8 M37.0 -14.9 L37.05 -14.9 37.1 -14.8 37.6 -14.25 38.05 -13.6 38.3 -13.1 38.25 -13.0 38.2 -12.9 38.1 -12.85 38.0 -12.85 37.8 -12.9 37.55 -13.1 37.4 -13.25 37.3 -13.45 37.25 -13.55 37.2 -13.65 37.15 -13.75 37.1 -13.85 37.05 -13.9 37.05 -14.0 37.05 -14.1 37.05 -14.2 37.0 -14.3 36.95 -14.4 36.9 -14.5 36.85 -14.6 36.9 -14.65 36.9 -14.75 36.85 -14.85 37.0 -14.9 M36.0 -14.6 L36.1 -14.5 36.15 -14.45 36.25 -14.3 36.3 -14.25 36.3 -14.05 36.3 -13.85 36.3 -13.55 36.3 -13.5 36.25 -13.4 36.2 -13.35 36.1 -13.3 35.85 -13.35 35.75 -13.45 35.7 -13.55 35.7 -13.65 35.7 -13.75 35.7 -13.85 35.7 -13.9 35.65 -14.1 35.6 -14.2 35.55 -14.3 35.55 -14.4 35.55 -14.5 35.6 -14.6 35.7 -14.65 35.85 -14.65 36.0 -14.6 M35.25 -3.8 L35.25 -3.9 35.25 -3.95 35.35 -4.1 35.5 -4.1 35.5 -4.15 36.0 -4.15 36.1 -4.1 36.2 -4.1 36.5 -4.05 36.65 -4.0 36.7 -3.9 36.75 -3.8 36.7 -3.7 36.65 -3.6 36.5 -3.55 36.25 -3.55 36.1 -3.6 36.05 -3.6 35.5 -3.65 35.35 -3.7 35.25 -3.8 M43.45 -17.9 L43.5 -16.45 43.55 -16.0 43.6 -16.1 43.85 -16.25 44.0 -16.3 44.1 -16.3 44.3 -16.25 44.35 -16.2 44.35 -16.25 44.35 -16.45 44.4 -16.6 44.35 -16.9 44.3 -17.0 44.25 -17.1 44.15 -17.2 44.1 -17.25 44.05 -17.35 44.05 -17.45 43.95 -17.55 43.85 -17.65 43.7 -17.75 43.55 -17.85 43.45 -17.9 M43.8 -15.1 L43.6 -15.2 43.55 -15.2 43.55 -14.95 43.65 -15.0 43.75 -15.1 43.8 -15.1 M30.8 6.1 L30.7 6.0 30.5 5.9 30.35 5.85 30.3 5.75 30.3 5.7 30.3 5.6 30.4 5.55 30.5 5.5 30.75 5.45 30.9 5.5 31.35 5.6 31.45 5.6 32.0 5.7 32.2 5.75 32.3 5.85 32.45 5.95 32.5 6.0 32.55 6.1 32.5 6.2 32.45 6.3 32.35 6.35 32.25 6.4 32.05 6.35 31.95 6.25 31.75 6.25 31.6 6.2 31.0 6.15 30.8 6.1 M31.95 10.8 L31.9 10.9 31.85 11.0 31.75 11.05 31.6 11.1 31.35 11.0 31.3 10.95 31.25 10.9 31.0 10.8 30.8 10.7 30.35 10.45 30.0 10.15 29.85 9.95 29.85 9.85 29.9 9.75 29.9 9.7 29.9 9.6 29.9 9.5 29.95 9.4 30.05 9.35 30.1 9.3 30.25 9.3 30.25 9.25 30.45 9.35 30.55 9.45 30.55 9.5 30.6 9.6 30.65 9.7 30.8 9.8 31.15 10.0 31.3 10.05 31.5 10.1 31.7 10.15 31.8 10.25 31.85 10.35 31.9 10.45 31.95 10.5 31.95 10.6 31.95 10.7 31.95 10.8 M32.75 12.05 L32.8 12.2 33.05 12.3 33.4 12.5 33.5 12.65 33.55 12.85 33.55 13.05 33.5 13.25 33.45 13.4 33.4 13.6 33.45 14.3 33.5 14.3 33.7 14.4 34.0 14.5 34.1 14.6 34.2 14.65 34.25 14.75 34.35 14.85 34.5 14.95 34.6 15.05 34.7 15.15 34.75 15.25 34.8 15.35 34.95 15.5 35.0 15.6 35.05 15.8 35.1 15.9 35.15 16.2 35.2 16.35 35.25 16.65 35.3 16.75 35.3 16.9 35.3 17.0 35.3 17.3 35.3 17.5 35.3 17.75 35.3 17.85 35.05 18.45 34.15 19.25 33.45 19.8 33.45 20.0 33.5 20.0 33.7 20.05 33.3 21.1 33.25 21.25 33.2 21.3 33.0 21.4 32.75 21.5 32.4 21.35 32.25 21.35 Q26.5 21.95 20.8 21.3 L12.7 21.4 12.55 21.4 12.45 21.55 6.5 21.55 -9.2 21.55 -9.2 21.35 -20.85 20.95 -20.95 21.1 -21.05 21.25 Q-27.0 21.5 -33.0 21.15 L-33.35 21.05 -33.5 20.85 -33.55 20.65 -33.55 20.5 -33.65 20.45 -33.85 20.3 -33.95 20.1 -34.05 19.75 -34.1 19.55 -34.15 18.6 -34.15 18.55 -34.3 18.5 -34.45 18.4 -35.05 17.95 -35.3 17.7 -35.55 17.3 -35.55 16.75 -35.5 16.25 -35.55 15.6 -35.55 15.15 -35.5 15.05 -35.45 14.95 -35.45 14.85 -35.45 14.75 -35.4 14.65 -35.35 14.6 -35.3 14.5 -35.3 14.4 -35.25 14.3 -34.95 13.9 -34.6 13.65 -34.2 13.35 -34.0 13.3 -33.9 13.3 -33.75 11.65 -33.7 11.6 -33.65 11.45 -33.55 11.3 -33.5 11.25 -33.25 11.2 -33.25 11.15 -32.95 11.3 -32.5 11.3 -31.5 11.3 -31.0 11.3 -30.7 11.4 -6.85 11.6 0.2 11.6 7.8 11.6 22.5 11.45 23.75 11.45 25.8 11.4 26.75 11.35 29.75 11.4 31.5 11.5 32.25 11.55 32.55 11.65 32.7 11.85 32.75 12.05 M23.35 5.65 L23.4 5.55 23.45 5.45 23.6 5.4 23.7 5.45 23.85 5.45 24.0 5.5 24.1 5.6 24.15 5.65 24.25 5.75 24.7 5.95 25.0 6.15 25.05 6.25 25.1 6.35 25.1 6.45 25.05 6.5 25.0 6.6 24.95 6.6 24.85 6.65 24.75 6.65 24.55 6.6 24.45 6.5 24.05 6.3 23.75 6.1 23.7 6.0 23.6 5.95 23.5 5.85 23.4 5.75 23.35 5.65 M24.85 9.65 L25.0 9.7 25.2 9.9 25.3 10.0 25.4 10.1 25.5 10.2 25.8 10.35 26.0 10.45 26.1 10.55 26.2 10.65 26.3 10.75 26.3 10.85 26.35 10.95 26.5 11.05 26.55 11.1 26.5 11.2 26.35 11.25 26.2 11.25 26.1 11.25 25.9 11.2 25.8 11.1 25.7 11.0 25.2 10.7 24.85 10.45 24.7 10.25 24.55 10.15 24.35 10.05 24.3 9.95 24.25 9.85 24.15 9.75 24.1 9.7 23.95 9.6 23.9 9.5 23.9 9.4 24.0 9.3 24.1 9.3 24.15 9.3 24.3 9.35 24.35 9.35 24.5 9.45 24.6 9.5 24.7 9.6 24.85 9.65 M29.6 7.45 L29.85 7.65 29.9 7.75 29.95 7.85 29.95 7.95 29.9 8.0 29.8 8.1 29.75 8.15 29.6 8.2 29.35 8.15 29.2 8.05 29.0 7.95 28.8 7.85 28.75 7.8 28.6 7.75 28.4 7.7 28.3 7.6 28.3 7.5 28.3 7.45 28.3 7.35 28.35 7.25 28.45 7.2 28.6 7.15 28.85 7.15 28.85 7.1 29.05 7.2 29.2 7.25 29.4 7.35 29.6 7.45 M26.35 8.65 L26.45 8.6 26.6 8.55 26.75 8.6 26.85 8.7 27.0 8.9 27.4 9.2 27.7 9.35 28.0 9.4 28.3 9.5 28.55 9.6 28.7 9.7 28.75 9.8 28.8 9.85 28.75 9.95 28.7 10.05 28.6 10.1 28.5 10.15 27.6 9.9 26.7 9.5 26.4 9.2 26.35 9.1 26.3 9.0 26.3 8.95 26.3 8.85 26.3 8.75 26.35 8.65 M28.95 15.35 L29.0 15.25 29.05 15.15 29.25 15.1 29.4 15.15 29.45 15.25 30.1 15.4 30.25 15.45 30.35 15.55 30.4 15.65 30.45 15.75 30.55 15.85 30.5 15.9 30.4 16.0 30.35 16.05 30.25 16.05 30.1 16.05 29.85 16.05 29.6 16.0 29.5 16.0 29.35 15.95 29.1 15.9 29.05 15.8 29.0 15.7 28.95 15.6 28.95 15.5 28.95 15.45 28.95 15.35 M28.4 16.3 L28.45 16.4 28.45 16.5 28.5 16.6 28.45 16.7 28.35 16.75 28.2 16.7 28.1 16.65 27.95 16.6 27.85 16.5 27.85 16.45 27.9 16.35 27.95 16.3 28.1 16.25 28.25 16.25 28.4 16.3 M29.1 17.95 L29.15 17.9 29.2 17.9 29.35 17.85 29.8 18.0 30.25 18.15 30.55 18.2 30.7 18.3 30.8 18.35 30.85 18.4 31.0 18.45 31.15 18.5 31.2 18.6 31.3 18.7 31.3 18.75 31.3 18.85 31.3 18.95 31.25 18.95 31.1 18.95 31.0 19.0 30.75 19.0 30.55 18.95 30.25 18.8 29.35 18.45 29.15 18.35 29.1 18.25 29.05 18.15 29.05 18.05 29.1 17.95 M22.0 19.75 L23.75 19.65 26.75 19.7 29.15 19.75 29.1 19.7 29.0 19.6 28.95 19.5 28.95 19.45 28.65 19.35 28.55 19.25 28.55 19.2 28.6 19.1 28.75 19.0 29.1 19.0 29.25 19.05 29.3 19.15 29.45 19.25 29.6 19.35 29.75 19.45 30.1 19.75 30.15 19.8 31.0 19.8 32.05 19.85 32.0 18.35 32.05 15.15 Q32.05 14.05 32.2 12.9 L32.1 12.7 Q28.25 13.0 24.4 12.8 L10.3 12.65 -1.0 12.65 -5.25 12.65 -9.2 12.65 -30.75 12.65 -31.1 12.55 -31.5 12.4 -32.5 12.35 -32.65 12.35 -32.6 14.3 -32.5 16.35 -32.45 16.55 -32.35 16.75 -32.4 16.9 -32.45 17.3 -32.45 17.5 -32.4 18.0 -32.05 18.1 -32.05 18.15 -32.1 18.15 -32.35 18.25 -32.35 19.0 -32.55 20.1 -24.5 19.85 -21.5 19.85 -21.1 20.0 -20.95 20.15 -20.85 20.25 Q-15.15 19.85 -9.5 20.0 L-1.7 20.0 5.75 19.9 8.25 19.9 8.95 19.9 20.6 19.9 20.75 19.85 22.0 19.75 M33.5 15.3 L33.5 16.05 33.55 17.15 33.6 17.1 33.75 17.05 34.0 17.1 34.1 17.2 34.2 17.3 34.2 17.4 34.25 17.5 34.25 17.25 34.25 16.9 34.15 16.35 34.1 16.05 34.05 15.95 34.0 15.85 33.95 15.75 33.9 15.65 33.75 15.6 33.65 15.5 33.55 15.4 33.5 15.3 M33.55 18.4 L33.7 18.25 33.55 18.15 33.55 18.4 M11.8 2.1 L11.85 2.2 11.85 2.25 11.85 2.3 Q9.95 2.55 8.1 2.3 L7.75 2.25 7.75 2.2 7.85 2.1 8.1 2.1 8.4 2.05 8.5 2.0 10.85 2.05 11.8 2.1 M-43.5 -18.15 L-43.65 -18.1 -43.8 -18.0 -43.9 -17.9 -43.95 -17.8 -44.0 -17.7 -44.05 -17.6 -44.1 -17.5 -44.2 -17.35 -44.25 -17.25 -44.3 -17.05 -44.3 -16.65 -44.3 -16.3 -44.3 -16.1 -44.25 -15.85 -44.15 -15.65 -43.85 -15.25 -43.55 -15.05 -43.6 -15.2 -43.6 -15.6 -43.6 -15.75 -43.55 -15.95 -43.5 -16.15 -43.4 -18.2 -43.5 -18.15 M-34.4 -6.2 L-34.6 -6.1 -34.7 -6.05 -35.9 -5.8 -37.0 -5.6 -37.1 -5.5 -37.25 -5.5 -37.45 -5.5 -37.65 -5.55 -37.75 -5.65 -37.8 -5.75 -37.85 -5.85 -37.85 -5.9 -37.8 -6.0 -37.65 -6.2 -37.6 -6.25 -37.35 -6.35 -37.25 -6.4 -37.2 -6.4 -35.35 -6.75 -34.25 -6.95 -34.2 -7.0 -34.15 -7.05 -34.0 -7.05 -34.0 -7.1 -33.85 -7.0 -33.8 -6.9 -33.75 -6.8 -33.75 -6.75 -33.8 -6.65 -33.85 -6.55 -33.95 -6.45 -34.0 -6.4 -34.05 -6.35 -34.25 -6.3 -34.4 -6.2 M-36.4 -4.9 L-36.25 -5.0 -36.15 -5.1 -35.95 -5.15 -35.2 -5.15 -34.6 -5.1 -33.85 -5.0 -33.8 -4.9 -33.8 -4.85 -33.85 -4.75 -34.05 -4.6 -34.6 -4.45 -35.75 -4.35 -35.85 -4.3 -36.0 -4.25 -36.2 -4.3 -36.4 -4.35 -36.45 -4.45 -36.5 -4.55 -36.5 -4.65 -36.5 -4.75 -36.45 -4.85 -36.4 -4.9 M-34.55 14.6 L-34.65 15.15 -34.65 15.7 -34.65 16.45 -34.6 16.9 -34.6 17.0 -34.55 17.1 -34.5 17.2 -34.4 17.3 -34.2 17.5 -34.05 17.6 -34.05 17.5 -34.1 17.3 -34.1 16.9 -34.1 16.75 -34.05 16.55 -34.0 16.35 -33.9 13.95 -34.1 14.1 -34.35 14.4 -34.55 14.6" fill="#333333" fill-rule="evenodd" stroke="none"/>
    <path d="M-40.25 -13.6 L-39.9 -13.55 -39.8 -13.4 -39.65 -13.25 -39.55 -13.05 -39.4 -12.95 -39.25 -12.75 -39.15 -12.6 -38.35 -10.1 -37.4 -7.45 Q-37.05 -6.55 -37.1 -5.55 L-37.05 -5.4 -37.0 -5.25 -36.9 -5.05 -36.85 -4.85 -36.7 -4.75 -36.6 -4.55 -34.35 1.6 -32.25 7.85 -31.0 11.55 -31.0 11.75 -31.0 11.95 -31.05 12.1 -31.15 12.35 -31.45 12.65 -31.95 12.65 -32.1 12.5 -32.3 12.35 -34.4 5.95 -36.4 -0.7 -37.5 -4.45 -37.45 -4.65 -37.5 -4.85 -37.55 -5.05 -37.65 -5.2 -37.8 -5.55 -38.05 -5.9 -38.15 -6.0 -38.85 -8.1 -39.6 -10.5 -40.1 -12.3 -40.2 -12.45 -40.35 -12.6 -40.45 -12.75 -40.55 -12.95 -40.55 -13.1 -40.5 -13.35 -40.25 -13.55 -40.25 -13.6" fill="#333333" fill-rule="evenodd" stroke="none"/>
    <path d="M31.1 13.35 L31.45 13.3 31.55 13.15 31.7 13.0 31.8 12.8 31.95 12.7 32.1 12.5 32.2 12.35 33.0 9.85 33.95 7.2 Q34.3 6.3 34.25 5.3 L34.3 5.15 34.35 5.0 34.45 4.8 34.5 4.6 34.65 4.5 34.75 4.3 37.0 -1.85 39.1 -8.1 40.35 -11.8 40.35 -12.0 40.35 -12.2 40.3 -12.35 40.2 -12.6 39.9 -12.9 39.4 -12.9 39.25 -12.75 39.05 -12.6 36.95 -6.2 34.95 0.45 33.85 4.2 33.9 4.4 33.85 4.6 33.8 4.8 33.7 4.95 33.55 5.3 33.3 5.65 33.2 5.75 32.5 7.85 31.75 10.25 31.25 12.05 31.15 12.2 31.0 12.35 30.9 12.5 30.8 12.7 30.8 12.85 30.85 13.1 31.1 13.3 31.1 13.35" fill="#333333" fill-rule="evenodd" stroke="none"/>
    <path d="M-33.75 -0.6 L-24.0 -0.55 -17.0 -0.5 -10.1 -0.05 -10.25 0.0 -14.5 0.15 Q-24.75 0.6 -34.95 0.2 L-35.1 0.05 -35.1 -0.15 -35.0 -0.35 -34.75 -0.45 -34.5 -0.55 -33.75 -0.55 -33.75 -0.6" fill="#333333" fill-rule="evenodd" stroke="none"/>
    <path d="M27.5 -0.4 L28.25 -0.3 28.65 -0.2 28.8 -0.1 29.55 0.1 29.65 0.15 29.5 0.2 28.75 0.35 28.5 0.5 -4.5 0.45 -6.35 0.05 Q10.1 0.05 26.25 -0.45 L27.5 -0.4" fill="#333333" fill-rule="evenodd" stroke="none"/>
    <path d="M31.5 -0.15 L31.5 -0.2 32.15 -0.15 32.45 0.0 34.25 -0.15 35.75 -0.15 36.0 -0.1 36.3 0.1 36.4 0.25 36.4 0.4 36.3 0.6 36.25 0.7 36.0 0.8 35.75 0.85 32.3 0.6 32.2 0.55 32.05 0.5 31.4 0.55 31.25 0.6 31.05 0.55 30.65 0.35 30.65 0.3 30.75 0.25 31.15 0.1 31.25 -0.1 31.5 -0.15" fill="#333333" fill-rule="evenodd" stroke="none"/>
    <path d="M-32.8 -18.45 Q-31.95 -18.45 -31.3 -17.85 -30.7 -17.25 -30.7 -16.4 -30.7 -15.55 -31.3 -14.95 -31.95 -14.35 -32.8 -14.35 -33.7 -14.35 -34.3 -14.95 -34.95 -15.55 -34.95 -16.4 -34.95 -17.25 -34.3 -17.85 -33.7 -18.45 -32.8 -18.45 M-34.35 -16.25 Q-34.35 -15.85 -33.95 -15.55 -33.55 -15.25 -32.95 -15.25 -32.35 -15.25 -31.9 -15.55 -31.55 -15.85 -31.55 -16.25 -31.55 -16.7 -31.9 -17.0 L-32.95 -17.3 -33.95 -17.0 Q-34.35 -16.7 -34.35 -16.25" fill="#333333" fill-rule="evenodd" stroke="none"/>
    <path d="M-12.0 -14.35 Q-12.85 -14.35 -13.5 -14.95 -14.1 -15.55 -14.1 -16.4 -14.1 -17.25 -13.5 -17.85 -12.85 -18.45 -12.0 -18.45 -11.1 -18.45 -10.5 -17.85 -9.85 -17.25 -9.85 -16.4 -9.85 -15.55 -10.5 -14.95 -11.1 -14.35 -12.0 -14.35 M-10.45 -16.55 Q-10.45 -16.95 -10.85 -17.25 L-11.85 -17.55 -12.9 -17.25 -13.25 -16.55 Q-13.25 -16.1 -12.9 -15.8 L-11.85 -15.5 Q-11.25 -15.5 -10.85 -15.8 -10.45 -16.1 -10.45 -16.55" fill="#333333" fill-rule="evenodd" stroke="none"/>
    <path d="M10.7 -18.45 Q11.55 -18.45 12.2 -17.85 12.8 -17.25 12.8 -16.4 12.8 -15.55 12.2 -14.95 11.55 -14.35 10.7 -14.35 9.8 -14.35 9.2 -14.95 8.55 -15.55 8.55 -16.4 8.55 -17.25 9.2 -17.85 9.8 -18.45 10.7 -18.45 M9.15 -16.25 Q9.15 -15.85 9.55 -15.55 9.95 -15.25 10.55 -15.25 11.15 -15.25 11.6 -15.55 11.95 -15.85 11.95 -16.25 L11.6 -17.0 10.55 -17.3 9.55 -17.0 Q9.15 -16.7 9.15 -16.25" fill="#333333" fill-rule="evenodd" stroke="none"/>
    <path d="M32.0 -14.35 Q31.15 -14.35 30.5 -14.95 29.9 -15.55 29.9 -16.4 29.9 -17.25 30.5 -17.85 31.15 -18.45 32.0 -18.45 32.9 -18.45 33.5 -17.85 34.15 -17.25 34.15 -16.4 34.15 -15.55 33.5 -14.95 32.9 -14.35 32.0 -14.35 M33.55 -16.55 Q33.55 -16.95 33.15 -17.25 L32.15 -17.55 31.1 -17.25 Q30.75 -16.95 30.75 -16.55 30.75 -16.1 31.1 -15.8 31.55 -15.5 32.15 -15.5 32.75 -15.5 33.15 -15.8 33.55 -16.1 33.55 -16.55" fill="#333333" fill-rule="evenodd" stroke="none"/>
    <path d="M20.6 18.35 Q19.75 18.35 19.1 17.75 18.5 17.15 18.5 16.3 18.5 15.45 19.1 14.85 19.75 14.25 20.6 14.25 21.5 14.25 22.1 14.85 22.75 15.45 22.75 16.3 22.75 17.15 22.1 17.75 21.5 18.35 20.6 18.35 M22.15 16.15 Q22.15 15.75 21.75 15.45 L20.75 15.15 Q20.15 15.15 19.7 15.45 19.35 15.75 19.35 16.15 19.35 16.6 19.7 16.9 20.15 17.2 20.75 17.2 L21.75 16.9 Q22.15 16.6 22.15 16.15" fill="#333333" fill-rule="evenodd" stroke="none"/>
    <path d="M-0.2 14.25 Q0.65 14.25 1.3 14.85 1.9 15.45 1.9 16.3 1.9 17.15 1.3 17.75 0.65 18.35 -0.2 18.35 -1.1 18.35 -1.7 17.75 -2.35 17.15 -2.35 16.3 -2.35 15.45 -1.7 14.85 -1.1 14.25 -0.2 14.25 M-1.75 16.45 Q-1.75 16.85 -1.35 17.15 L-0.35 17.45 0.7 17.15 1.05 16.45 Q1.05 16.0 0.7 15.7 0.25 15.4 -0.35 15.4 -0.95 15.4 -1.35 15.7 -1.75 16.0 -1.75 16.45" fill="#333333" fill-rule="evenodd" stroke="none"/>
    <path d="M-22.9 18.35 Q-23.75 18.35 -24.4 17.75 -25.0 17.15 -25.0 16.3 -25.0 15.45 -24.4 14.85 -23.75 14.25 -22.9 14.25 -22.0 14.25 -21.4 14.85 -20.75 15.45 -20.75 16.3 -20.75 17.15 -21.4 17.75 -22.0 18.35 -22.9 18.35 M-21.35 16.15 Q-21.35 15.75 -21.75 15.45 -22.15 15.15 -22.75 15.15 -23.35 15.15 -23.8 15.45 L-24.15 16.15 Q-24.15 16.6 -23.8 16.9 L-22.75 17.2 -21.75 16.9 Q-21.35 16.6 -21.35 16.15" fill="#333333" fill-rule="evenodd" stroke="none"/>
  </g>
</svg>
