<?xml version="1.0" encoding="UTF-8" standalone="no"?>
<svg xmlns:xlink="http://www.w3.org/1999/xlink" height="31.65px" width="21.1px" xmlns="http://www.w3.org/2000/svg">
  <g transform="matrix(1.0, 0.0, 0.0, 1.0, -2.55, -4.1)">
    <path d="M18.95 16.35 L17.9 15.85 17.9 14.75 Q17.9 14.4 17.6 14.3 L18.15 13.45 Q18.95 13.9 18.95 14.75 L18.95 16.35" fill="#93c7b7" fill-rule="evenodd" stroke="none"/>
    <path d="M9.0 14.15 L8.55 13.3 2.8 4.6 9.25 4.55 12.1 9.15 9.0 14.2 9.0 14.15" fill="#93c7b7" fill-rule="evenodd" stroke="none"/>
    <path d="M12.1 9.15 Q11.5 9.45 11.5 10.0 L11.15 10.85 10.6 11.4 10.1 12.45 9.75 13.45 9.1 14.1 9.1 14.15 9.1 14.2 9.0 14.15 9.1 14.15 9.1 14.1 8.55 13.3 7.75 12.65 Q7.4 12.25 7.45 11.75 7.5 11.25 7.2 10.85 L6.55 9.9 6.15 9.1 Q6.15 8.9 5.55 8.7 5.0 8.5 4.9 8.0 L4.4 7.0 3.9 6.0 3.5 5.6 Q3.2 5.6 2.8 4.6 L3.8 4.6 4.7 4.7 5.7 4.6 Q6.15 4.35 6.9 4.6 L7.7 4.85 8.35 4.7 9.25 4.55 9.7 5.45 10.6 6.4 11.0 7.0 11.55 7.7 11.95 8.2 12.1 9.15 Z" fill="none" stroke="#90c7b7" stroke-linecap="round" stroke-linejoin="round" stroke-width="0.5"/>
    <path d="M16.5 4.8 L22.95 4.85 16.75 14.55 10.6 14.55 16.5 4.8" fill="#93c7b7" fill-rule="evenodd" stroke="none"/>
    <path d="M22.95 4.85 L22.6 5.85 22.2 6.65 21.65 7.4 20.95 8.4 20.35 9.1 19.95 9.45 19.4 10.2 18.8 11.0 18.45 11.8 18.15 12.85 17.4 13.5 Q16.9 13.7 16.75 14.55 L15.95 14.4 15.15 14.55 13.95 14.55 12.65 14.65 11.6 14.8 11.15 14.85 10.6 14.55 Q10.65 13.95 11.0 13.3 L11.7 12.25 12.15 11.4 Q12.3 11.0 12.75 10.65 L13.3 10.1 13.55 9.35 13.95 8.5 14.4 8.0 15.2 7.45 Q15.7 7.1 15.75 6.4 15.85 5.7 16.15 5.55 L16.5 4.8 Q16.55 4.35 17.25 4.35 L18.5 4.6 19.6 4.9 20.5 4.95 21.35 4.85 22.2 5.0 22.95 4.85 Z" fill="none" stroke="#90c7b7" stroke-linecap="round" stroke-linejoin="round" stroke-width="0.5"/>
    <path d="M21.5 25.25 Q21.0 25.25 21.0 25.75 21.0 26.25 21.5 26.25 L21.9 26.1 22.05 25.75 Q22.05 25.25 21.5 25.25 M21.3 27.8 L21.15 27.75 Q20.75 27.75 20.65 28.1 20.6 28.3 20.7 28.5 L20.95 28.75 21.15 28.75 Q21.55 28.75 21.6 28.4 L21.6 28.05 21.3 27.8 M9.0 31.8 L8.65 31.7 Q8.4 31.7 8.3 31.9 8.0 32.3 8.4 32.6 L8.7 32.7 9.1 32.5 9.2 32.1 9.0 31.8 M7.2 30.8 L7.45 30.45 7.35 30.1 Q7.25 29.9 7.0 29.9 L6.65 29.95 6.45 30.3 Q6.35 30.45 6.55 30.65 L6.95 30.9 7.2 30.8 M5.85 27.6 L5.7 27.6 5.4 27.85 5.35 28.25 Q5.45 28.6 5.85 28.6 L5.95 28.6 6.25 28.35 6.3 27.95 5.85 27.6 M6.0 25.6 L5.85 25.25 5.5 25.1 Q5.0 25.1 5.0 25.6 4.9 26.1 5.5 26.1 6.0 26.1 6.0 25.6 M15.7 32.95 L15.45 33.2 15.45 33.6 15.9 33.95 16.05 33.9 Q16.55 33.75 16.4 33.25 16.3 32.9 15.9 32.9 L15.75 32.95 15.7 32.95 M18.2 32.8 L18.45 32.7 Q18.9 32.4 18.6 32.0 L18.25 31.8 17.9 31.9 Q17.5 32.15 17.75 32.6 17.95 32.8 18.2 32.8 M11.4 33.15 L11.1 32.9 10.95 32.85 Q10.55 32.85 10.45 33.2 L10.45 33.6 10.75 33.85 10.95 33.85 11.4 33.55 11.4 33.15 M13.8 33.45 L13.25 33.35 Q12.9 33.45 12.9 33.8 L13.05 34.15 13.4 34.3 Q13.9 34.3 13.9 33.8 L13.8 33.45 M19.5 30.6 L19.7 30.9 Q19.75 31.0 19.95 31.0 20.25 31.0 20.4 30.8 L20.45 30.45 20.25 30.1 19.55 30.2 Q19.45 30.4 19.5 30.6 M17.95 19.5 L18.15 19.85 18.35 19.95 18.45 19.95 Q18.7 19.95 18.85 19.75 19.2 19.4 18.75 19.05 L18.55 18.95 18.05 19.15 17.95 19.5 M13.5 21.5 L12.1 24.3 9.05 24.75 11.25 26.95 10.75 30.0 13.5 28.55 16.25 30.0 15.75 26.95 18.0 24.75 14.9 24.3 13.5 21.5 M14.15 17.4 Q14.0 17.25 13.75 17.25 13.25 17.25 13.25 17.75 13.25 18.25 13.75 18.25 14.25 18.25 14.25 17.75 L14.15 17.4 M11.1 17.6 L10.8 17.8 10.8 18.2 Q10.9 18.55 11.25 18.55 L11.4 18.55 Q11.85 18.45 11.75 17.95 11.65 17.55 11.25 17.55 L11.1 17.6 M16.75 18.4 Q16.85 17.9 16.45 17.75 L16.25 17.75 Q15.9 17.75 15.8 18.05 15.6 18.55 16.1 18.7 L16.25 18.75 Q16.6 18.75 16.75 18.4 M6.4 23.25 Q6.55 22.85 6.1 22.65 L5.95 22.6 Q5.65 22.6 5.45 22.95 L5.5 23.3 5.8 23.6 5.95 23.6 6.4 23.25 M6.85 21.3 L7.15 21.4 Q7.35 21.4 7.55 21.2 7.8 20.75 7.45 20.5 L7.1 20.4 Q6.85 20.4 6.75 20.6 L6.65 20.95 6.85 21.3 M8.5 19.1 L8.55 19.45 Q8.7 19.65 9.0 19.65 L9.25 19.55 9.5 19.25 9.4 18.85 Q9.1 18.45 8.7 18.75 L8.5 19.05 8.5 19.1 M8.5 17.45 L9.5 16.9 Q11.35 16.05 13.5 16.05 15.65 16.05 17.5 16.9 L18.55 17.45 Q20.7 18.75 21.95 20.95 23.25 23.15 23.25 25.75 23.25 29.8 20.4 32.65 17.5 35.5 13.5 35.5 9.5 35.5 6.65 32.65 3.8 29.8 3.8 25.75 3.8 23.15 5.1 20.95 6.35 18.75 8.5 17.45 M20.6 21.05 Q20.5 20.85 20.25 20.85 L19.9 20.9 19.7 21.2 19.75 21.6 Q19.9 21.8 20.15 21.8 L20.45 21.75 Q20.9 21.45 20.6 21.05 M20.75 23.75 Q20.85 24.1 21.25 24.1 L21.35 24.1 Q21.85 23.95 21.7 23.45 L21.25 23.1 21.1 23.1 Q20.65 23.25 20.75 23.75" fill="#93c7b7" fill-rule="evenodd" stroke="none"/>
    <path d="M21.95 20.95 Q21.9 21.85 22.3 22.35 L22.7 23.1 22.9 23.8 23.3 24.65 Q23.55 25.05 23.25 25.75 L23.15 26.9 23.0 27.7 22.5 28.7 Q22.15 29.2 22.3 29.7 22.45 30.25 21.9 30.75 L20.95 31.65 20.55 32.25 20.4 32.65 Q20.0 32.55 19.65 33.05 L18.9 33.7 17.8 34.25 16.8 34.8 16.1 35.15 15.2 35.25 14.35 35.1 Q14.15 35.05 13.5 35.5 L12.7 35.15 11.8 34.75 10.85 34.75 10.0 34.6 Q9.6 34.35 9.0 34.15 L7.8 33.75 7.25 33.35 6.65 32.65 6.2 31.75 5.35 30.75 Q5.0 30.35 4.6 30.3 4.25 30.3 4.3 29.8 4.35 29.35 4.0 28.55 3.65 27.75 3.65 27.4 L3.6 26.75 3.8 25.75 3.95 24.75 4.05 23.75 4.3 22.55 Q4.45 21.9 4.55 21.9 L5.1 20.95 5.55 20.15 6.0 19.4 6.55 18.9 7.2 18.4 8.5 17.45 9.0 17.45 Q9.4 17.5 9.5 16.9 10.45 16.8 10.7 16.5 10.95 16.2 11.55 16.2 L12.6 16.15 13.5 16.05 Q14.0 16.4 14.55 16.4 L15.55 16.4 16.25 16.45 17.5 16.9 18.2 17.0 18.55 17.45 19.4 17.85 20.25 18.6 20.95 19.2 Q21.45 19.45 21.6 19.8 L21.95 20.95 Z" fill="none" stroke="#90c7b7" stroke-linecap="round" stroke-linejoin="round" stroke-width="0.5"/>
    <path d="M7.8 16.55 L7.8 14.95 Q7.8 13.95 8.7 13.55 L9.75 13.55 9.2 14.45 Q8.8 14.55 8.8 14.95 L8.8 16.05 7.8 16.55" fill="#93c7b7" fill-rule="evenodd" stroke="none"/>
  </g>
</svg>
