<?xml version="1.0" encoding="UTF-8" standalone="no"?>
<svg xmlns:xlink="http://www.w3.org/1999/xlink" height="106.1px" width="108.1px" xmlns="http://www.w3.org/2000/svg">
  <g transform="matrix(1.0, 0.0, 0.0, 1.0, 54.05, 53.05)">
    <path d="M11.7 -14.9 L11.7 -16.05 12.15 -17.15 12.9 -18.25 14.8 -20.5 17.0 -22.8 18.5 -23.55 20.7 -23.75 20.75 -23.9 22.25 -23.9 24.85 -23.15 26.35 -22.05 27.1 -20.9 27.8 -19.75 28.25 -18.65 28.15 -17.55 27.85 -16.4 27.5 -15.3 29.35 -14.15 34.25 -13.3 36.9 -12.65 38.4 -11.55 39.15 -10.4 39.8 -9.25 40.35 -8.2 40.95 -7.0 41.4 -5.9 41.65 -4.75 41.75 -3.65 41.75 -2.5 41.75 -1.75 41.85 -1.55 44.4 -0.65 45.9 0.5 46.65 1.6 47.4 2.75 47.65 3.85 47.75 5.0 47.75 6.1 47.75 8.35 47.75 10.6 47.4 11.75 47.0 12.85 46.25 15.1 45.5 17.35 45.15 18.5 44.35 19.6 43.25 20.7 40.6 22.95 39.15 24.15 39.15 25.25 39.15 26.4 39.05 27.5 38.75 28.65 38.3 29.75 37.65 30.9 Q37.25 31.45 37.15 32.05 37.05 32.6 37.25 33.15 L37.55 34.3 37.65 35.4 37.55 36.5 37.25 37.65 36.8 38.75 36.15 39.9 35.4 41.05 34.25 41.8 Q29.2 43.4 23.75 43.75 L16.25 44.8 15.15 45.95 14.35 47.05 13.2 47.8 Q7.45 49.6 1.25 49.9 L-4.4 50.8 -5.95 51.9 -7.05 52.65 -9.3 52.95 -10.8 53.05 -13.8 52.3 -15.3 51.15 -16.85 50.1 -19.05 48.9 -20.15 47.75 -20.95 46.65 -21.7 45.55 -21.7 44.4 -21.7 43.3 -21.7 42.15 -21.7 41.05 -21.7 39.9 -21.5 38.85 -20.95 37.65 -20.1 36.6 -17.55 34.25 -21.3 33.5 -23.2 33.25 -25.8 33.15 -28.45 32.4 -29.5 31.2 -30.25 30.1 -30.7 29.0 -31.85 27.9 -32.95 26.75 -34.05 25.6 -34.85 24.5 -35.1 23.35 -35.2 22.25 -35.2 21.15 -35.2 20.0 -34.7 18.95 -33.7 17.75 -32.95 17.0 -32.2 16.7 -30.3 16.35 -28.8 16.25 -26.55 17.0 -25.1 18.15 -24.0 19.3 -23.2 20.4 -17.95 20.4 Q-17.55 20.4 -17.2 20.0 L-16.7 18.95 -15.7 17.75 -14.55 16.6 -13.45 15.5 -10.8 14.75 -8.55 15.5 -7.05 16.6 -6.35 17.75 -5.9 18.5 -4.85 18.0 -3.35 16.95 -2.15 15.85 -2.0 14.8 -1.4 13.6 -0.6 12.55 0.45 11.35 1.95 10.6 3.45 9.85 4.65 8.8 Q5.15 8.35 5.7 8.0 L6.5 7.7 8.7 7.25 10.2 6.5 10.65 5.4 11.35 4.25 12.1 3.1 14.0 2.0 16.25 0.85 17.3 -0.3 18.1 -1.4 19.6 -2.5 18.85 -3.65 18.1 -4.8 16.2 -5.85 14.0 -7.05 12.9 -8.2 12.1 -9.3 11.8 -10.4 11.7 -11.55 11.7 -12.65 11.7 -14.9" fill="#663300" fill-opacity="0.2" fill-rule="evenodd" stroke="none"/>
    <path d="M-8.55 -3.3 L-7.4 -2.15 -7.05 -1.0 -6.65 0.1 -6.35 1.25 -6.3 2.0 -5.2 1.55 -3.65 0.85 -1.8 0.6 2.7 0.5 5.35 1.25 6.75 2.45 8.6 4.7 10.6 8.0 10.95 8.75 11.0 8.95 15.8 10.4 17.35 11.0 17.6 10.6 17.75 9.5 17.8 8.4 18.1 7.25 18.55 6.15 19.25 5.0 20.75 3.85 23.75 3.1 26.35 3.85 28.25 5.0 29.3 6.15 30.1 7.25 31.6 8.35 32.45 9.45 33.5 10.6 34.6 11.75 35.0 12.85 35.4 14.0 35.65 15.15 35.75 16.25 35.65 17.35 35.3 18.45 34.6 19.65 33.85 20.75 32.4 21.95 31.25 23.0 31.15 24.1 30.85 25.25 30.5 26.4 30.0 27.4 29.0 28.65 28.25 29.4 27.45 29.65 25.25 30.15 22.25 29.4 18.85 31.25 Q15.95 32.75 13.2 34.65 L12.05 35.7 10.6 36.9 9.45 37.65 2.7 38.0 Q-2.0 37.7 -6.3 35.75 L-7.4 36.6 -8.55 37.65 -9.3 38.4 -10.05 38.7 -12.3 39.15 -15.3 38.4 -16.75 37.25 -17.95 36.15 -19.05 35.0 -22.8 33.9 -24.3 32.75 -25.0 31.6 -25.45 30.5 -26.55 30.35 -28.8 30.5 -31.85 29.75 -33.3 28.6 -34.45 27.5 -34.85 26.4 -35.2 25.25 -35.6 24.15 -36.35 23.0 -37.0 21.85 -37.45 20.75 -37.45 19.65 -37.35 18.5 -37.1 17.35 -36.3 16.3 -35.2 15.1 Q-33.9 14.55 -32.55 14.15 -29.0 13.15 -25.8 11.35 L-22.8 10.6 -21.3 10.6 -18.7 11.35 -17.1 12.35 -16.45 12.5 -16.35 11.4 -16.05 10.25 -15.7 9.1 -14.95 8.0 -15.2 6.85 -15.3 4.6 -15.3 1.25 -15.3 0.1 -14.85 -1.0 -14.2 -2.15 -13.45 -3.3 -10.85 -3.8 -10.8 -4.05 -8.55 -3.3 M-15.3 16.25 L-15.0 17.4 -14.95 18.5 -14.95 19.65 -14.5 20.05 -13.05 20.0 -11.95 18.9 Q-12.1 18.3 -12.5 17.95 -13.25 17.2 -14.15 16.6 -14.75 16.25 -15.3 16.05 L-15.3 16.25" fill="#663300" fill-opacity="0.2" fill-rule="evenodd" stroke="none"/>
    <path d="M6.4 -45.3 L7.15 -44.15 7.6 -43.05 7.8 -41.95 7.6 -40.8 7.2 -39.7 6.4 -38.6 5.35 -37.45 Q4.4 -36.9 3.75 -36.1 3.45 -35.75 3.45 -35.2 L3.0 -34.1 2.4 -32.9 1.1 -30.75 -0.65 -28.45 -3.3 -27.7 -5.15 -28.05 Q-5.75 -27.85 -5.75 -27.7 -5.75 -27.1 -5.3 -26.45 L-4.8 -25.45 -4.5 -24.3 -4.4 -23.15 -4.5 -22.05 -4.8 -20.9 -5.3 -19.9 -6.35 -18.7 -7.4 -17.9 -9.3 -17.6 -10.8 -17.45 -12.7 -17.15 -13.85 -16.1 -14.95 -15.3 -16.8 -15.0 -18.3 -14.95 -24.3 -15.3 -26.95 -16.05 -27.7 -17.15 -28.5 -18.25 -29.6 -19.4 -29.6 -20.55 -29.6 -21.65 -30.7 -22.8 -31.7 -24.0 -32.2 -25.05 -32.5 -26.2 -32.6 -27.3 -32.6 -28.45 -32.6 -29.55 -32.15 -30.65 -31.45 -31.8 -29.9 -32.85 -27.7 -34.05 -26.55 -35.2 -25.4 -36.25 -23.95 -37.45 -20.6 -38.65 -17.95 -39.7 -16.45 -40.8 -14.95 -41.95 -12.3 -42.7 -10.8 -42.7 -8.95 -42.7 -8.5 -43.45 -7.8 -44.55 -7.05 -45.7 -5.9 -46.45 -5.15 -46.7 -3.35 -47.0 -3.3 -47.2 2.7 -47.2 5.35 -46.45 6.4 -45.3" fill="#663300" fill-opacity="0.2" fill-rule="evenodd" stroke="none"/>
    <path d="M20.35 -27.3 L18.5 -26.2 16.25 -25.45 13.55 -25.95 12.85 -25.8 12.1 -25.5 10.2 -25.15 8.75 -24.95 Q7.8 -24.85 7.1 -24.35 6.85 -24.1 6.85 -23.55 L6.4 -22.45 5.65 -21.35 4.95 -20.55 Q4.8 -20.35 4.55 -20.3 L2.75 -19.75 0.45 -19.05 -0.05 -18.0 -0.65 -17.15 -1.45 -16.85 -3.3 -16.55 -6.3 -16.4 -8.95 -17.15 -10.0 -18.35 -10.8 -19.4 -10.8 -20.55 -10.8 -21.65 -10.8 -22.8 -11.2 -23.9 -11.55 -25.05 -11.45 -26.15 -11.25 -27.3 -11.2 -28.45 -11.2 -29.55 -10.45 -30.7 -9.3 -31.45 -7.8 -31.75 -4.8 -32.2 -2.9 -31.8 -1.4 -32.2 -0.25 -33.25 0.85 -34.05 2.7 -34.4 7.2 -35.2 8.35 -35.95 10.2 -36.1 10.2 -36.3 14.75 -36.3 17.0 -35.55 18.5 -34.45 19.25 -33.3 20.55 -32.05 21.1 -31.05 21.4 -29.9 21.4 -28.8 21.1 -27.7 20.35 -27.3" fill="#663300" fill-opacity="0.2" fill-rule="evenodd" stroke="none"/>
    <path d="M24.0 -40.85 L21.25 -42.6 Q16.8 -45.25 11.55 -45.2 L-0.05 -48.1 Q-20.25 -47.05 -33.95 -32.5 -48.7 -16.95 -48.25 4.6 -47.9 23.4 -33.6 35.45 -23.1 44.3 -10.35 46.65 L-10.3 46.5 -10.15 46.2 -10.1 45.95 Q-10.2 45.45 -9.9 45.1 L-9.1 44.0 -8.6 43.1 -8.3 42.95 -7.85 42.9 -7.85 42.85 -7.3 43.0 -7.05 43.3 -6.9 43.6 -6.85 43.85 -6.85 44.15 -7.0 44.45 -7.1 44.7 -7.2 45.0 -7.3 45.25 -7.5 45.55 -7.65 45.85 -7.75 46.1 -7.85 46.4 -7.85 46.7 -7.95 46.95 -8.0 47.05 -2.65 47.5 -2.7 47.35 -2.8 47.05 -2.9 46.75 -2.9 46.2 -2.85 45.1 -2.75 43.95 -2.7 43.4 -2.65 43.15 -2.5 42.85 -2.2 42.55 -1.95 42.35 -1.5 42.3 -1.5 42.25 -0.9 42.45 -0.55 42.75 -0.35 43.0 -0.3 43.6 -0.25 44.45 -0.15 45.3 -0.05 45.85 -0.05 46.1 0.1 46.4 0.2 46.7 0.3 46.95 0.4 47.25 0.4 47.5 6.25 47.05 Q23.85 44.8 35.15 31.25 47.5 16.4 48.0 -2.65 48.15 -7.55 46.4 -12.2 41.35 -25.6 31.75 -34.7 L31.3 -34.45 31.1 -34.2 30.85 -33.9 30.45 -33.65 30.25 -33.35 29.75 -32.75 29.35 -32.2 28.95 -31.95 28.7 -31.75 28.2 -31.7 27.85 -31.65 27.2 -31.85 26.8 -32.1 26.6 -32.4 26.55 -32.7 26.5 -32.95 26.5 -33.25 26.55 -33.55 26.6 -33.8 26.75 -34.05 27.0 -34.4 27.35 -34.55 27.95 -34.75 Q28.35 -35.25 28.9 -35.55 L30.0 -36.3 26.35 -39.25 26.25 -39.05 25.0 -37.3 23.8 -35.75 22.75 -34.55 22.7 -34.3 22.6 -34.0 22.2 -33.7 21.95 -33.55 21.45 -33.45 20.8 -33.6 20.45 -33.9 20.15 -34.2 20.05 -34.45 20.05 -34.75 20.05 -35.05 20.05 -35.3 20.05 -35.6 22.3 -38.6 24.0 -40.85 M22.9 -21.0 Q12.15 -30.05 -2.3 -28.35 -13.45 -26.9 -20.6 -18.35 -28.4 -8.95 -28.75 3.1 -28.85 6.2 -27.7 9.15 -23.0 21.75 -11.8 28.35 -10.15 29.4 -8.25 29.8 L-7.65 29.8 -6.75 30.05 -5.65 30.05 0.9 31.65 Q13.75 30.7 22.5 21.35 32.3 11.05 32.0 -3.25 L31.95 -4.45 Q30.8 -14.35 22.9 -21.0 M34.25 -11.65 Q35.95 -5.6 35.85 0.35 35.95 7.8 33.0 15.1 28.35 26.4 17.4 31.55 9.75 35.1 1.65 35.0 L-3.3 34.8 Q-17.3 34.3 -26.25 23.65 -28.6 20.8 -30.4 17.75 L-30.8 18.0 -30.85 17.9 -31.0 17.35 -31.25 16.75 -31.4 16.45 -32.25 15.8 -32.25 15.65 -32.45 15.75 -35.05 17.15 -35.65 17.4 -36.4 17.6 -37.15 17.4 -37.5 17.15 -37.65 16.85 -37.8 16.55 -37.85 16.3 -37.9 16.0 -37.9 15.7 -37.75 15.45 -37.6 15.15 -37.3 14.9 -36.75 14.4 -36.55 14.35 -35.9 14.15 -35.55 13.85 -35.05 13.6 -34.05 13.05 -34.7 12.9 -35.05 12.85 -35.15 12.85 -37.5 13.3 -38.25 13.3 -38.8 13.4 -39.15 13.5 -39.4 13.55 -39.8 13.7 -39.9 13.75 -40.1 13.75 -40.75 13.55 -41.1 13.3 -41.3 13.0 -41.4 12.75 -41.4 12.45 -41.35 12.15 -41.3 11.9 -41.1 11.6 -40.75 11.3 -40.7 11.3 -40.6 11.2 -38.25 10.6 -35.95 10.15 -35.65 10.0 -35.3 9.8 -34.85 9.7 -34.35 9.55 -34.05 9.5 Q-35.5 4.95 -35.8 0.05 -36.0 -3.3 -35.3 -6.4 -32.15 -19.5 -21.8 -27.9 -15.05 -33.4 -6.45 -34.75 6.7 -36.8 18.45 -30.75 30.55 -24.55 34.25 -11.65 M39.55 -35.9 Q52.7 -20.05 53.95 -0.35 54.3 4.7 53.2 9.35 48.45 29.1 32.9 41.75 22.7 50.1 9.7 52.1 -10.1 55.2 -27.85 46.1 -46.05 36.75 -51.65 17.25 -57.3 -2.55 -49.55 -21.6 -42.25 -39.45 -24.9 -47.6 -10.55 -54.35 4.95 -52.75 26.1 -52.0 39.55 -35.9 M20.4 5.95 L20.85 6.15 21.15 6.35 21.5 6.45 22.0 6.6 22.7 6.9 23.0 7.2 23.2 7.45 23.3 7.75 23.3 8.0 23.25 8.3 23.2 8.6 23.0 8.85 22.7 9.15 22.15 9.35 21.7 9.25 21.15 9.05 20.75 8.75 20.55 8.6 20.0 8.35 19.8 8.25 18.5 7.65 18.05 7.35 17.85 7.1 17.75 6.8 17.7 6.5 17.65 6.25 17.65 5.95 17.85 5.7 18.15 5.4 18.75 5.25 18.8 5.2 19.15 5.2 19.7 5.4 20.1 5.7 20.3 5.85 20.4 5.95 M5.0 9.35 L5.2 9.15 5.3 9.1 5.65 9.0 5.65 8.95 6.1 9.15 6.3 9.45 6.85 9.75 7.25 10.0 7.65 10.55 8.0 11.15 8.5 12.0 8.85 12.55 8.95 12.8 9.05 13.1 9.1 13.35 9.25 13.65 9.3 13.95 9.2 14.2 9.0 14.5 8.85 14.7 8.75 14.75 8.3 14.85 7.6 14.7 7.25 14.4 7.0 14.1 6.8 13.85 6.65 13.55 6.5 13.3 6.4 13.0 6.4 12.7 6.4 12.45 6.2 12.15 5.95 11.85 5.75 11.6 5.7 11.3 5.55 11.05 5.1 10.75 4.9 10.45 4.8 10.2 4.85 9.9 4.9 9.6 5.0 9.35 M8.95 17.6 L9.4 17.55 9.4 17.5 9.95 17.7 10.35 17.95 10.9 18.8 11.6 19.85 12.2 21.05 12.5 21.35 12.75 21.65 13.2 22.2 13.35 22.45 13.4 22.75 13.45 23.05 13.4 23.3 13.35 23.6 13.25 23.85 13.05 24.15 12.7 24.45 12.05 24.65 11.35 24.45 11.0 24.15 10.7 23.9 10.6 23.6 10.55 23.3 9.55 21.9 8.5 20.3 7.9 18.8 7.95 18.55 8.0 18.25 8.2 18.0 8.35 17.8 8.55 17.7 8.95 17.6 M3.2 15.35 L3.4 15.6 3.55 16.75 3.65 18.45 3.7 20.15 4.05 21.25 4.45 22.95 5.0 24.65 5.2 24.9 5.35 25.2 5.45 25.45 5.55 25.75 5.55 26.05 5.45 26.3 5.3 26.6 5.2 26.9 4.9 27.15 4.6 27.35 4.15 27.45 3.5 27.25 3.2 27.0 2.95 26.7 2.75 26.45 2.45 26.15 1.3 22.5 Q0.75 20.55 0.9 18.55 L1.05 15.7 1.25 15.45 1.55 15.15 1.8 14.95 2.25 14.9 2.25 14.85 2.85 15.05 3.2 15.35 M17.2 13.85 L17.4 14.1 18.15 14.75 19.15 15.5 20.0 16.4 20.1 16.65 20.1 16.95 20.1 17.2 20.0 17.5 19.9 17.75 19.7 18.05 19.45 18.35 18.8 18.55 18.3 18.4 17.75 18.25 17.5 17.95 17.3 17.7 17.3 17.6 16.65 17.4 16.35 17.1 16.05 16.85 15.8 16.55 15.3 16.3 14.55 16.0 14.2 15.7 13.45 15.15 13.05 14.85 12.9 14.6 12.85 14.3 12.85 14.1 12.8 14.05 12.65 13.75 12.6 13.45 12.65 13.2 12.8 12.9 13.15 12.6 13.9 12.5 13.9 12.45 14.65 12.45 15.2 12.6 15.6 12.9 16.05 13.1 16.15 13.1 16.7 13.3 17.1 13.55 17.2 13.85 M-20.25 -24.05 L-19.15 -25.0 -16.4 -27.05 -20.25 -24.05 M-2.9 22.0 L-2.25 21.85 -2.25 21.8 -1.65 22.0 -1.4 22.3 -1.3 22.55 -1.2 22.85 -1.1 23.15 -1.1 23.7 -1.1 24.55 -1.1 25.4 -1.1 25.95 -1.2 26.25 -1.3 26.5 -1.4 26.75 -1.65 27.05 -2.25 27.25 -2.9 27.05 -3.05 26.8 -3.25 26.5 -3.4 25.65 -3.35 24.25 -3.35 22.85 -3.25 22.6 -3.05 22.3 -2.9 22.0 M-33.4 23.8 L-32.95 23.75 -32.95 23.7 -32.4 23.9 -32.1 24.2 -31.95 24.45 -31.8 24.75 -31.85 25.0 -32.0 25.3 -32.1 25.6 -32.4 25.85 -32.95 26.45 -33.9 27.25 -34.45 27.45 -34.85 27.45 -35.5 27.25 -35.75 27.0 -35.9 26.7 -35.95 26.4 -35.95 26.15 -35.85 25.85 -35.65 25.6 -35.5 25.4 -35.3 25.3 -34.85 25.1 -34.55 24.85 -33.95 24.3 -33.4 23.8" fill="#333333" fill-rule="evenodd" stroke="none"/>
  </g>
</svg>
