<?xml version="1.0" encoding="UTF-8" standalone="no"?>
<svg xmlns:xlink="http://www.w3.org/1999/xlink" height="31.25px" width="33.9px" xmlns="http://www.w3.org/2000/svg">
  <g transform="matrix(1.0, 0.0, 0.0, 1.0, 17.25, 15.6)">
    <path d="M10.95 -14.35 L12.95 -14.3 13.4 -14.3 13.65 -14.4 14.2 -14.55 14.45 -14.55 14.95 -14.4 15.25 -14.25 15.45 -14.05 15.55 -13.85 15.65 -13.65 15.7 -13.5 15.7 -13.3 15.7 -13.1 15.65 -12.9 15.55 -12.75 15.45 -12.55 15.25 -12.35 15.15 -12.15 15.05 -12.0 14.95 -11.8 15.2 -11.85 15.6 -11.75 15.85 -11.55 15.95 -11.35 16.0 -11.15 16.05 -11.0 16.1 -10.8 16.2 -10.6 16.25 -10.4 16.35 -10.25 16.4 -10.05 16.5 -9.85 16.6 -9.65 16.65 -9.5 16.65 -9.3 16.65 -9.1 16.6 -8.75 16.6 -8.35 16.5 -8.2 16.4 -8.0 16.2 -7.8 16.1 -7.6 16.1 -7.25 16.05 -6.7 15.95 -6.1 15.85 -5.75 15.9 -4.6 15.9 -3.1 15.85 -1.6 15.85 -1.4 15.75 -1.25 15.65 -1.05 15.45 -0.85 15.25 -0.75 15.0 -0.65 15.0 1.5 14.75 2.85 14.75 3.0 14.75 3.2 14.75 3.4 14.75 3.6 14.85 3.75 14.9 3.95 14.95 4.15 15.0 4.35 15.0 4.5 15.0 4.7 15.0 5.1 15.0 5.25 15.0 5.45 15.0 5.65 15.0 5.85 15.1 6.0 15.15 6.2 15.2 6.4 15.25 6.6 15.25 7.7 15.25 8.45 15.25 9.0 15.25 9.2 15.25 9.4 15.25 9.95 15.25 10.15 15.25 10.35 15.25 10.7 15.25 11.65 15.2 12.0 15.15 12.2 15.0 12.4 15.0 12.6 15.0 12.75 14.95 12.95 14.9 13.15 14.85 13.35 14.7 13.5 14.5 13.7 14.2 13.9 13.7 14.0 -6.05 14.0 -10.6 13.6 -10.6 13.65 -10.8 13.8 -11.0 13.95 -14.1 14.25 -14.55 14.4 -15.05 14.4 -15.5 14.25 -15.75 14.05 -15.9 13.9 -15.95 13.7 -16.0 13.5 -16.0 13.35 -16.0 13.15 -16.0 12.95 -15.9 12.8 -15.85 12.7 -15.95 12.5 -16.05 12.35 -16.1 12.15 -16.1 11.95 -16.1 11.6 -16.1 11.4 -16.1 11.2 -16.1 11.0 -16.1 10.8 -16.35 10.2 -16.4 7.6 -16.35 4.75 -16.35 2.7 -16.3 2.5 -16.15 2.35 -16.05 2.15 -16.0 1.95 -15.9 1.75 -15.55 1.4 -15.3 1.15 -15.3 1.1 -15.35 0.9 -15.45 0.7 -15.55 0.5 -15.65 0.35 -16.0 -1.55 -16.1 -2.65 -16.15 -3.05 -16.2 -3.25 -16.3 -4.15 -16.3 -8.1 -16.15 -13.15 -16.1 -13.35 -16.0 -13.55 -15.95 -13.75 -15.9 -13.9 -15.85 -14.1 -15.75 -14.3 -15.55 -14.5 -15.3 -14.6 -15.15 -14.65 -14.8 -14.75 -14.55 -14.75 -14.05 -14.6 -13.9 -14.75 -13.75 -14.85 -13.6 -14.9 -13.15 -15.05 -12.9 -15.25 -12.6 -15.4 -12.05 -15.5 -12.05 -15.55 -7.05 -15.55 -6.6 -15.4 -6.35 -15.25 -6.25 -15.05 -6.1 -14.85 -6.05 -14.65 -6.05 -14.5 -6.05 -14.4 Q2.15 -13.85 10.4 -14.3 L10.95 -14.35" fill="#d76c53" fill-rule="evenodd" stroke="none"/>
    <path d="M1.95 -1.7 Q1.7 -1.05 1.3 -0.85 L0.1 0.4 -0.6 1.35 -0.85 1.4 -1.65 2.45 -3.6 4.95 -4.25 5.8 -4.25 5.9 -4.45 6.35 -4.95 6.85 Q-4.9 7.65 -5.45 7.55 L-5.5 7.3 -3.9 0.15 -5.8 -0.3 Q-7.2 -0.3 -8.15 -1.25 L-7.6 -1.75 Q-6.8 -2.25 -6.25 -3.15 L-5.65 -4.2 -5.15 -4.25 -5.1 -4.35 -4.4 -5.45 -3.1 -7.0 -2.4 -7.85 -1.95 -8.85 Q-1.75 -9.45 -1.2 -9.75 L-0.95 -10.2 Q-0.5 -10.55 -0.45 -10.1 L-0.65 -9.1 -2.25 -3.05 -1.25 -2.8 Q0.7 -2.6 1.95 -1.7" fill="#ffffcc" fill-rule="evenodd" stroke="none"/>
    <path d="M11.1 -14.65 L11.45 -14.7 11.95 -14.75 12.45 -14.6 12.75 -14.4 12.95 -14.3 13.05 -14.35 13.35 -14.55 13.6 -14.65 13.95 -14.7 15.45 -14.75 15.95 -14.6 16.25 -14.4 16.4 -14.25 16.5 -14.05 16.6 -13.85 16.6 -13.65 16.65 -13.5 16.65 -13.3 16.65 -13.1 16.6 -12.95 16.6 -12.75 16.5 -12.55 16.4 -12.35 16.3 -12.2 16.05 -11.8 15.9 -11.6 15.55 -11.45 15.2 -11.25 14.7 -11.1 13.95 -11.1 12.2 -11.0 12.05 -10.8 11.9 -10.6 11.7 -10.5 11.55 -10.45 11.1 -10.3 10.7 -10.1 10.65 -9.9 10.6 -9.75 10.6 -9.55 10.5 -9.35 10.45 -9.15 10.35 -9.0 10.5 -8.8 10.65 -8.6 10.95 -8.25 11.2 -7.85 11.35 -7.65 11.35 -7.5 11.4 -7.3 11.4 -6.9 11.4 -6.35 11.4 -5.6 11.3 -5.45 11.1 -5.05 10.7 -4.45 10.1 -4.0 9.7 -3.95 7.95 -3.9 7.45 -4.05 7.2 -4.25 7.0 -4.45 6.9 -4.6 6.85 -4.8 6.85 -5.0 6.85 -5.35 6.85 -5.9 6.85 -6.5 6.9 -6.65 6.95 -6.8 6.95 -6.85 4.8 -7.1 Q4.1 -7.25 3.5 -7.65 L3.35 -7.85 3.15 -8.05 3.0 -8.1 2.85 -8.05 2.45 -8.0 0.95 -8.0 0.45 -8.1 0.2 -8.25 -0.05 -8.3 -0.55 -8.4 -0.8 -8.6 -1.0 -8.8 -1.1 -9.0 -1.25 -9.15 -1.3 -9.35 -1.3 -9.55 -1.3 -9.75 -1.3 -9.9 -1.3 -10.0 -1.8 -10.15 -2.05 -10.35 -2.15 -10.55 -2.25 -10.75 -2.3 -10.95 -2.3 -11.1 -2.35 -11.3 -2.4 -11.5 -2.5 -11.6 -4.55 -11.9 -5.1 -11.9 -5.55 -11.8 -5.8 -11.8 -6.3 -11.9 -6.55 -12.1 -6.65 -12.3 -6.75 -12.5 -6.8 -12.7 -6.8 -12.85 -6.8 -13.05 -6.8 -13.25 -6.7 -13.4 -6.6 -13.6 -6.55 -13.8 -6.55 -14.0 -6.45 -14.15 -6.35 -14.35 -6.25 -14.55 -6.05 -14.65 -5.9 -14.7 -4.55 -14.7 -3.35 -14.3 -3.05 -14.35 -2.8 -14.55 -2.3 -14.6 0.1 -14.85 0.45 -14.9 8.45 -14.9 8.95 -14.8 9.2 -14.6 9.4 -14.4 9.55 -14.25 9.7 -14.05 9.75 -13.85 9.8 -13.65 9.85 -13.55 9.95 -13.5 10.2 -13.55 10.25 -13.75 10.35 -13.9 10.4 -14.1 10.5 -14.3 10.7 -14.5 10.95 -14.6 11.1 -14.65" fill="#663300" fill-opacity="0.2" fill-rule="evenodd" stroke="none"/>
    <path d="M6.9 -11.9 L7.35 -11.8 7.5 -11.6 7.45 -11.4 7.4 -11.25 7.35 -11.05 7.35 -10.85 7.25 -10.65 7.2 -10.5 7.0 -10.3 6.75 -10.1 6.65 -9.95 6.45 -9.75 6.3 -9.55 6.35 -9.35 6.35 -9.0 6.4 -8.6 6.4 -8.05 6.35 -7.5 6.0 -6.95 5.05 -6.0 4.45 -5.5 1.95 -5.45 1.45 -5.55 1.2 -5.65 0.7 -5.8 0.45 -6.0 0.25 -6.2 0.15 -6.35 0.1 -6.75 0.1 -6.9 0.1 -7.3 0.15 -7.65 0.2 -7.85 0.4 -8.05 0.6 -8.25 0.75 -8.4 0.7 -8.8 0.7 -9.0 0.75 -9.35 0.85 -9.9 0.9 -10.1 1.0 -10.3 1.1 -10.5 1.45 -10.85 1.65 -11.05 2.1 -11.4 2.25 -11.55 2.7 -11.6 3.7 -11.55 4.35 -11.4 4.5 -11.25 4.7 -11.2 4.9 -11.3 5.1 -11.5 5.35 -11.6 5.75 -11.75 6.0 -11.85 6.15 -11.9 6.45 -11.95 6.45 -12.0 6.75 -11.9 6.9 -11.9" fill="#663300" fill-opacity="0.2" fill-rule="evenodd" stroke="none"/>
    <path d="M11.45 4.15 L11.6 4.1 11.95 4.05 11.95 4.0 12.7 4.0 13.2 4.15 13.5 4.35 13.65 4.5 13.75 4.7 13.85 4.9 13.85 5.1 13.85 5.25 13.85 5.45 13.75 5.65 13.7 5.85 13.6 6.0 13.35 6.2 13.15 6.4 13.15 6.55 13.2 6.75 13.35 7.15 13.5 7.7 13.65 8.1 13.65 8.25 13.65 8.45 13.65 8.85 13.65 9.4 13.65 9.9 14.2 10.05 14.7 10.15 15.0 10.35 15.15 10.5 15.25 10.7 15.35 10.9 15.45 11.1 15.5 11.25 15.7 11.45 15.95 11.65 16.1 11.85 16.35 12.2 16.35 12.4 16.35 12.55 16.35 12.75 16.2 12.95 16.05 13.15 15.9 13.3 15.7 13.45 15.55 13.5 15.2 13.55 14.45 13.6 13.95 13.5 13.7 13.5 13.2 13.6 9.1 13.7 7.85 14.0 3.95 14.25 3.7 14.45 3.2 14.6 2.7 14.45 2.45 14.25 2.25 14.1 2.1 13.9 1.9 13.7 1.85 13.5 1.8 13.35 1.8 13.15 1.75 12.95 1.8 12.75 1.8 12.55 1.85 12.4 1.85 12.2 1.9 12.0 1.95 11.85 2.25 11.25 2.95 10.15 3.5 9.4 3.5 9.2 3.55 9.0 3.6 8.85 3.65 8.65 3.75 8.45 3.95 8.25 4.15 8.1 4.45 7.9 4.95 7.75 5.95 7.75 6.5 7.9 7.65 8.25 8.15 8.35 8.45 8.25 8.95 8.15 9.45 8.0 9.95 8.15 10.25 8.35 10.45 8.45 10.45 8.2 10.45 7.25 10.45 6.35 10.5 5.4 10.5 5.2 10.6 5.0 10.7 4.85 10.85 4.65 11.2 4.25 11.45 4.15 M5.85 10.2 L5.75 10.25 5.65 10.45 5.55 10.65 5.45 10.8 5.2 11.15 5.9 11.15 5.9 10.75 5.9 10.6 5.9 10.25 5.85 10.2" fill="#663300" fill-opacity="0.2" fill-rule="evenodd" stroke="none"/>
    <path d="M10.95 5.95 L11.45 6.1 11.75 6.25 11.95 6.45 12.05 6.65 12.15 6.85 12.2 7.0 12.2 7.2 12.2 7.4 12.15 7.6 12.05 7.75 11.95 7.95 11.9 8.15 11.75 8.35 11.65 8.5 11.65 8.7 11.7 8.9 11.7 9.1 11.7 9.25 11.7 9.45 11.7 9.65 11.7 9.85 11.7 10.0 11.75 10.2 11.9 10.4 12.0 10.6 12.25 10.75 12.45 10.95 12.65 11.15 12.75 11.35 12.85 11.5 12.9 11.65 12.95 11.7 13.45 11.85 13.8 12.0 14.15 12.2 14.4 12.4 14.5 12.6 14.6 12.75 14.65 12.85 14.95 12.9 15.25 13.0 15.4 13.2 15.45 13.4 15.45 13.6 15.4 13.75 15.3 13.85 15.2 13.95 14.9 14.1 14.75 14.25 14.6 14.45 14.45 14.6 14.3 14.6 13.95 14.7 13.45 14.85 12.95 14.95 12.4 14.85 12.15 14.7 11.95 14.9 11.75 15.1 11.55 15.25 11.3 15.45 11.1 15.6 10.7 15.6 9.95 15.65 9.45 15.5 9.15 15.35 8.95 15.15 8.85 14.95 8.45 14.85 4.95 14.5 4.65 14.35 4.45 14.15 4.35 13.95 4.1 13.9 3.6 13.95 3.25 14.05 2.95 14.1 2.1 14.15 1.75 14.25 1.45 14.35 0.95 14.25 0.65 14.2 0.25 14.1 0.1 13.9 0.0 13.7 -0.05 13.5 -0.05 13.35 0.05 13.15 0.15 12.95 0.25 12.85 0.65 12.75 1.75 12.4 1.9 12.35 2.2 12.25 3.1 12.15 3.35 12.0 3.85 11.9 4.95 11.55 5.45 11.4 6.4 11.25 6.45 11.05 6.45 10.9 6.45 10.7 6.45 10.5 6.45 10.35 6.45 10.15 6.45 9.95 6.4 9.8 6.15 9.55 5.9 9.4 5.7 9.2 5.6 9.0 5.5 8.85 5.45 8.65 5.45 8.45 5.45 8.25 5.45 8.1 5.45 7.9 5.45 7.7 5.45 7.5 5.5 7.35 5.6 7.15 5.7 6.95 5.9 6.75 6.1 6.6 6.25 6.4 6.65 6.2 6.9 6.0 7.15 5.85 7.7 5.75 7.7 5.7 8.2 5.7 8.7 5.85 8.95 5.95 9.35 6.0 9.95 5.95 10.95 5.95" fill="#663300" fill-opacity="0.2" fill-rule="evenodd" stroke="none"/>
    <path d="M11.2 -14.45 L11.45 -14.5 11.6 -14.55 11.95 -14.6 12.45 -14.5 12.7 -14.3 12.9 -14.1 13.05 -14.15 13.35 -14.3 13.6 -14.4 13.95 -14.45 14.7 -14.5 15.2 -14.35 15.5 -14.15 15.65 -14.0 15.75 -13.8 15.85 -13.6 15.9 -12.1 15.9 -9.65 15.85 -6.65 15.65 -5.9 15.65 -5.75 15.65 -5.55 15.65 -5.35 15.65 -5.15 15.6 -5.0 15.5 -4.8 15.45 -4.6 15.4 -4.4 15.35 -3.5 15.25 -2.9 15.15 -2.0 14.95 -0.5 15.0 -0.3 15.1 -0.1 15.35 0.1 15.45 0.25 15.55 0.45 15.65 0.65 15.7 0.85 15.7 1.0 15.7 1.2 15.7 1.4 15.75 1.6 15.85 1.75 15.9 1.95 15.95 2.15 15.95 3.25 15.95 4.2 15.95 6.25 15.95 7.75 Q15.8 8.05 15.8 8.3 L15.7 9.1 15.7 9.25 15.5 9.85 15.25 10.6 15.25 10.75 15.25 10.95 15.25 11.15 15.25 11.3 15.2 11.5 15.25 11.65 15.55 11.9 15.85 12.1 15.95 12.25 16.05 12.45 16.15 12.65 16.2 12.85 16.2 13.0 16.15 13.2 16.1 13.4 16.0 13.6 15.9 13.75 15.65 13.95 15.3 14.15 14.95 14.35 14.45 14.45 12.85 14.45 12.2 14.5 11.65 14.4 11.35 14.2 11.2 14.1 11.2 14.05 10.65 13.9 10.35 13.7 10.15 13.5 10.0 13.35 9.95 13.15 9.9 12.95 9.8 12.6 9.75 12.4 9.7 12.2 9.7 12.0 9.7 11.85 9.7 11.65 9.7 11.45 9.7 11.25 9.7 11.1 9.65 10.9 9.5 10.7 9.45 10.15 9.45 9.4 9.45 9.2 9.45 8.65 9.45 7.7 9.4 7.5 9.35 7.3 9.25 7.15 9.15 2.85 9.2 -3.55 9.2 -9.15 9.25 -9.35 9.35 -9.55 9.4 -9.75 9.45 -9.9 9.6 -10.1 9.6 -10.3 9.6 -10.65 9.6 -11.05 9.6 -11.4 9.6 -11.6 9.6 -11.8 9.6 -12.0 9.65 -12.15 9.7 -12.35 9.75 -12.55 9.9 -12.75 9.95 -12.9 10.0 -13.1 10.05 -13.3 10.1 -13.5 10.15 -13.65 10.2 -13.85 10.4 -14.05 10.6 -14.25 10.85 -14.35 11.2 -14.45" fill="#333333" fill-opacity="0.2" fill-rule="evenodd" stroke="none"/>
    <path d="M9.2 -3.3 L9.95 -3.45 10.95 -3.3 11.25 -3.5 11.55 -3.8 11.8 -4.2 11.95 -4.55 12.05 -4.95 12.3 -5.3 12.55 -5.7 13.4 -5.85 13.45 -5.95 14.2 -5.7 14.55 -5.3 14.7 -4.95 14.8 -4.55 15.05 -4.2 15.3 -3.8 Q16.05 -1.25 15.9 1.45 15.7 4.45 15.75 7.45 L15.55 11.55 15.4 11.95 15.15 12.3 14.8 12.7 14.2 13.05 14.05 13.4 13.5 14.15 12.65 14.9 12.2 15.2 11.45 15.3 10.45 15.05 9.7 14.7 8.95 14.3 8.6 13.95 8.35 13.55 8.2 13.2 Q7.95 11.7 8.0 10.2 L8.05 6.05 8.05 2.7 7.9 2.35 7.7 1.95 7.6 1.2 7.55 0.05 7.6 -1.05 7.7 -1.8 7.85 -2.15 8.1 -2.55 8.45 -2.95 8.95 -3.2 9.2 -3.3" fill="#333333" fill-opacity="0.2" fill-rule="evenodd" stroke="none"/>
    <path d="M14.15 3.55 L14.35 3.95 14.6 4.3 14.7 5.05 14.75 6.2 14.75 7.3 14.75 8.05 14.85 8.45 14.95 8.8 14.95 9.2 14.95 9.55 14.95 9.95 14.95 10.3 14.95 10.7 14.6 11.4 13.7 12.6 13.1 13.3 12.75 13.55 12.5 13.65 11.6 13.8 11.1 14.2 10.8 14.45 10.1 14.55 9.65 14.55 8.7 14.3 8.25 13.95 7.85 13.55 7.65 13.8 7.3 14.2 6.95 14.55 6.6 14.8 5.9 14.95 5.0 14.7 3.45 14.7 2.65 14.95 2.2 14.95 -8.5 14.05 -9.4 13.8 -9.85 13.55 -10.55 13.45 -11.05 13.45 -11.95 13.7 -12.4 13.95 -13.35 14.2 -13.8 14.45 -14.5 14.55 -15.0 14.55 -15.9 14.3 -16.35 13.95 -16.7 13.55 -16.85 13.2 -17.0 10.95 -16.95 8.3 -16.85 6.05 -16.75 5.7 -16.6 5.3 -16.6 4.95 -16.6 4.55 -16.45 4.2 -16.3 3.8 -15.8 3.45 -15.45 3.05 -15.1 2.7 -14.55 2.5 -14.5 2.45 -13.95 2.7 -13.7 3.1 -13.6 3.45 -13.7 3.8 -13.6 4.2 -13.5 4.55 -13.35 4.95 -13.35 5.3 -13.35 5.7 -13.25 6.05 -13.1 6.45 -13.1 6.8 -13.05 7.55 -13.05 8.3 -13.05 9.05 -12.8 9.2 -12.2 9.1 -11.25 8.8 -10.8 8.8 -9.85 8.8 -8.95 9.05 -8.4 9.4 -7.8 9.7 -2.0 9.05 -0.35 8.45 0.55 8.2 1.05 7.95 3.15 7.55 4.05 7.3 4.5 7.3 5.45 7.55 5.9 7.7 Q6.2 7.55 6.45 7.45 L6.85 7.05 7.15 6.7 7.55 6.3 7.65 5.95 7.65 5.55 7.65 5.2 7.7 4.8 7.75 4.45 7.9 4.1 8.15 3.7 8.45 3.3 9.15 2.95 9.65 2.7 9.85 2.6 10.55 2.45 12.9 2.95 13.65 3.2 14.15 3.55 M0.95 3.3 L1.05 3.4 1.2 3.4 1.4 3.4 1.85 3.45 1.95 3.55 2.05 3.65 2.1 3.75 2.15 3.85 2.2 3.95 2.2 4.05 2.2 4.15 2.2 4.3 2.2 4.4 2.2 4.5 2.2 4.6 2.2 4.8 2.15 4.9 2.1 5.0 2.05 5.05 2.05 5.15 2.05 5.25 2.05 5.35 2.05 5.45 2.0 5.55 1.95 5.65 1.9 5.7 1.9 5.8 1.85 5.9 1.85 6.0 1.7 6.1 1.55 6.2 1.45 6.25 1.25 6.25 0.1 6.3 -0.1 6.2 -0.25 6.15 -0.35 6.05 -0.45 5.95 -0.65 5.75 -0.7 5.65 -0.75 5.55 -0.8 5.5 -0.85 5.4 -0.85 5.3 -0.9 5.2 -0.9 4.9 -0.9 4.7 -0.9 4.55 -0.9 4.15 -0.9 3.95 -0.85 3.9 -0.8 3.8 -0.75 3.6 -0.7 3.5 -0.6 3.4 -0.45 3.3 -0.2 3.25 0.7 3.25 0.95 3.3" fill="#333333" fill-opacity="0.2" fill-rule="evenodd" stroke="none"/>
    <path d="M11.6 -12.55 L11.6 -12.0 11.6 -11.25 11.7 -10.85 11.9 -10.1 12.15 -9.15 12.25 -9.0 12.25 -8.8 12.25 -8.25 12.25 -7.5 12.25 -6.9 12.3 -6.75 12.4 -6.55 12.5 -6.35 12.55 -5.25 12.45 -3.55 12.15 -1.85 12.15 -1.65 12.15 -1.5 12.15 -1.3 12.15 -1.1 12.15 -0.9 12.15 -0.75 12.4 -0.35 12.8 0.2 12.95 0.6 13.0 0.75 13.05 0.95 13.1 1.35 13.2 1.7 13.25 1.9 13.25 3.95 13.3 6.6 13.3 9.0 13.25 9.2 13.2 9.6 13.1 9.95 13.0 10.5 13.0 10.7 13.1 10.9 13.3 11.1 13.75 11.25 14.7 11.4 15.15 11.5 15.45 11.7 15.6 11.9 15.75 12.1 15.8 12.25 15.85 12.45 15.9 12.65 15.9 12.85 15.85 13.0 15.75 13.2 15.55 13.55 15.2 13.9 15.05 13.95 13.5 14.0 13.0 13.9 12.8 13.9 12.6 14.05 12.35 14.25 12.15 14.4 Q11.3 14.7 10.4 14.4 L8.6 13.9 7.75 13.9 -0.85 14.7 -1.05 14.75 -1.4 14.8 -1.85 14.85 -4.25 14.45 -4.75 14.4 -8.65 14.15 -8.95 13.95 -9.1 13.75 -9.2 13.55 -9.3 13.4 -9.35 13.2 -9.35 13.0 -9.35 12.85 -9.35 12.65 -9.3 12.45 -9.15 12.25 -9.05 12.1 -8.9 11.9 -8.65 11.75 -8.15 11.65 -6.15 11.25 -5.85 11.05 -5.6 10.9 -5.25 10.7 -4.95 10.6 -4.95 10.4 -4.9 10.2 -4.9 10.0 -4.9 9.85 -4.9 9.65 -4.9 9.45 -4.85 9.25 -4.75 9.1 -4.7 8.9 -4.65 8.7 -4.2 7.95 -3.3 6.65 -2.6 5.9 -2.25 5.7 -1.9 5.5 -1.4 5.4 -0.45 5.35 -0.15 5.35 2.3 3.4 4.55 1.5 4.95 1.0 5.2 0.85 5.4 0.65 5.6 0.45 5.8 0.35 6.0 0.25 6.3 0.2 6.75 0.35 7.05 0.5 7.25 0.7 7.35 0.7 7.5 0.65 8.2 0.4 8.4 -4.05 8.55 -9.1 8.55 -12.85 8.6 -13.05 8.75 -13.25 8.9 -13.4 9.1 -13.55 9.25 -13.6 10.05 -13.85 10.5 -14.0 10.95 -13.85 11.25 -13.65 11.4 -13.5 11.45 -13.3 11.55 -13.1 11.55 -12.9 11.6 -12.55 M3.05 11.4 L2.6 11.5 2.1 11.6 2.75 11.55 3.1 11.5 3.4 11.35 3.45 11.2 3.45 11.15 3.3 11.2 3.05 11.4" fill="#333333" fill-opacity="0.2" fill-rule="evenodd" stroke="none"/>
    <path d="M11.7 -13.3 L9.2 -13.05 5.4 -12.9 5.1 -12.8 4.7 -12.75 0.7 -12.7 -3.05 -12.15 -4.55 -12.15 -5.05 -12.25 -6.65 -12.4 -6.75 -12.35 -6.9 -12.25 -7.05 -12.15 -7.2 -12.05 -7.3 -12.0 -7.35 -11.95 -7.55 -11.95 -8.05 -11.9 -8.1 -11.85 -8.3 -11.8 -8.35 -11.75 -8.65 -11.7 -9.4 -11.6 -9.6 -11.5 -9.65 -11.4 -9.7 -11.35 -9.7 -11.25 -9.7 -11.15 -9.75 -11.05 -9.8 -10.95 -9.9 -10.85 -9.95 -10.75 -10.15 -10.6 -10.25 -10.5 -10.4 -10.4 -10.55 -10.3 -10.6 -10.25 -10.9 -10.15 -11.1 -10.1 -11.45 -9.95 -11.65 -9.95 -12.15 -9.95 -12.45 -10.0 -12.55 -10.1 -12.65 -10.2 -12.7 -10.25 -12.8 -10.45 -12.95 -10.55 -13.1 -10.65 -13.15 -10.7 -13.2 -10.75 -13.4 -10.8 -13.5 -10.85 -13.55 -10.9 -13.8 -10.95 -14.05 -11.05 -14.15 -11.1 -14.2 -11.15 -14.4 -11.15 -14.65 -11.2 -14.8 -11.3 -14.9 -11.4 -15.0 -11.5 -15.1 -11.7 -15.15 -11.75 -15.2 -11.85 -15.25 -11.95 -15.35 -12.05 -15.35 -12.15 -15.35 -12.25 -15.35 -12.35 -16.05 -12.3 -16.55 -12.4 -16.8 -12.6 -16.9 -12.8 -17.0 -13.0 -17.05 -13.2 -17.05 -13.35 -17.05 -13.55 -16.95 -13.75 -16.85 -13.9 -16.65 -14.1 -16.3 -14.3 -16.05 -14.4 -15.9 -14.45 -15.55 -14.5 -8.55 -14.9 -7.05 -14.9 -6.55 -14.85 -4.55 -14.65 -4.05 -14.55 -3.05 -14.55 -2.55 -14.65 -1.8 -14.8 -1.3 -14.9 0.7 -14.9 4.7 -15.0 5.2 -15.05 6.45 -15.05 9.2 -15.05 12.05 -14.6 12.75 -14.35 12.95 -14.15 12.95 -14.0 12.8 -13.8 12.7 -13.65 12.35 -13.55 12.15 -13.4 12.0 -13.35 11.7 -13.3 M-10.7 -5.85 L-10.5 -5.75 -10.35 -5.7 -10.1 -5.6 -10.0 -5.5 -9.95 -5.4 -9.9 -5.3 -9.85 -5.2 -9.8 -5.1 -9.75 -5.0 -9.7 -4.9 -9.7 -4.85 -9.65 -4.75 -9.6 -4.65 -9.6 -4.55 -9.6 -4.45 -9.6 -4.35 -9.6 -4.25 -9.6 -4.2 -9.6 -4.1 -9.6 -4.0 -9.65 -3.9 -9.7 -3.8 -9.75 -3.7 -9.85 -3.6 -9.95 -3.5 -9.95 -3.45 -10.0 -3.35 -10.05 -3.25 -10.05 -3.15 -10.1 -3.05 -10.2 -2.95 -10.25 -2.85 -10.4 -2.75 -10.65 -2.7 -10.9 -2.75 -11.05 -2.85 -11.15 -2.95 -11.2 -3.05 -11.4 -3.1 -11.7 -3.2 -11.9 -3.3 -12.05 -3.35 -12.15 -3.45 -12.25 -3.55 -12.3 -3.65 -12.35 -3.75 -12.45 -3.85 -12.45 -3.95 -12.45 -4.1 -12.45 -4.3 -12.45 -4.5 -12.45 -4.85 -12.45 -4.95 -12.45 -5.05 -12.4 -5.15 -12.35 -5.25 -12.3 -5.35 -12.2 -5.45 -12.05 -5.6 -11.95 -5.7 -11.75 -5.9 -11.65 -5.95 -11.6 -6.0 -11.4 -6.0 -11.05 -6.0 -10.8 -5.95 -10.7 -5.85" fill="#ffff99" fill-opacity="0.2" fill-rule="evenodd" stroke="none"/>
    <path d="M-16.15 -13.5 L-16.05 -13.65 -15.9 -13.8 -15.8 -13.85 -15.55 -13.9 -15.3 -13.85 -14.8 -13.8 -14.5 -13.65 -14.35 -13.5 -14.3 -13.3 -14.35 -13.1 -14.5 -12.9 -14.85 -12.75 -14.85 -12.55 -14.85 -12.35 -14.8 -12.15 -14.8 -12.0 -14.8 -11.8 -14.7 -11.6 -14.6 -11.4 Q-14.3 -9.4 -14.35 -7.3 L-14.35 -2.25 Q-14.3 -0.25 -14.4 1.7 L-14.5 1.9 -14.6 2.1 -14.6 2.25 -14.6 2.45 -14.6 2.85 -14.6 3.4 -14.65 3.75 -14.65 3.95 -14.75 4.15 -14.85 4.35 -14.85 4.5 -14.85 4.7 -14.85 5.1 -14.85 5.65 -14.9 6.0 -14.9 6.2 -15.0 6.4 -15.1 6.6 -15.1 6.95 -15.1 7.7 -15.1 8.45 -15.1 9.2 -15.15 9.4 -15.25 9.6 -15.3 9.75 -15.4 9.95 -15.5 10.15 -15.5 10.3 -15.55 10.5 -15.9 11.05 -16.1 11.45 -16.3 11.85 -16.55 11.95 -16.85 11.85 -16.9 11.65 -17.05 11.45 -17.15 11.25 -17.25 11.1 -17.25 10.9 -17.2 10.7 -17.15 10.5 -17.1 10.35 -17.15 10.15 -17.15 9.95 -17.15 9.75 -17.15 9.6 -17.1 9.4 -17.05 9.2 -17.0 9.0 -17.0 8.45 -17.0 7.7 -17.0 6.75 -17.0 6.0 -16.9 5.85 -16.8 5.65 -16.75 5.45 -16.75 5.25 -16.75 4.9 -16.75 4.35 -16.75 3.95 -16.75 3.75 -16.65 3.6 -16.55 3.4 -16.5 3.0 -16.5 2.45 -16.5 1.9 -16.4 1.15 -16.35 0.95 -16.25 0.75 -16.25 -2.8 -16.2 -7.3 -16.15 -10.65 -16.2 -10.85 -16.3 -11.05 -16.3 -11.4 -16.25 -12.15 -16.2 -12.75 -16.15 -13.5" fill="#ffff99" fill-opacity="0.2" fill-rule="evenodd" stroke="none"/>
    <path d="M0.15 -13.5 L0.2 -13.3 0.25 -13.1 0.25 -12.9 0.25 -12.75 0.25 -12.55 0.25 -12.35 0.2 -12.2 0.1 -12.0 0.0 -11.8 -0.1 -11.6 -0.35 -11.4 -0.55 -11.25 -0.75 -11.1 -2.8 -10.7 -5.65 -10.15 -6.0 -10.0 -6.1 -9.8 -6.25 -9.6 -6.25 -9.25 -6.25 -8.85 -6.25 -8.5 -6.25 -8.1 -6.25 -7.9 -6.25 -7.55 -6.25 -7.4 -6.45 -7.35 Q-9.4 -6.7 -9.05 -5.95 -8.7 -5.25 -9.75 -4.8 L-11.3 -4.2 -11.5 -4.05 -11.6 -4.1 -11.8 -4.25 -12.35 -4.35 -12.55 -4.5 -13.1 -4.6 -13.5 -4.8 -13.85 -5.0 -14.05 -5.15 -14.35 -5.35 -14.65 -5.55 -14.85 -5.75 -14.95 -5.95 -15.05 -6.1 -15.1 -6.5 -15.1 -7.05 -15.05 -7.6 -15.1 -7.8 -15.1 -8.15 -15.1 -8.35 -15.1 -8.75 -15.1 -8.9 -15.15 -9.1 -15.2 -9.3 -15.25 -9.5 -15.25 -9.65 -15.35 -9.7 -15.5 -9.7 -15.8 -9.6 -16.25 -9.75 -16.5 -9.95 -16.65 -10.15 -16.75 -10.3 -16.75 -10.5 -16.7 -10.85 -16.65 -11.05 -16.6 -11.25 -16.55 -11.6 -16.5 -11.8 -16.4 -12.0 -16.2 -12.35 -15.85 -12.9 -15.5 -13.5 -15.4 -13.65 -15.1 -14.05 -14.9 -14.25 -14.65 -14.35 -14.3 -14.4 -12.9 -14.4 -12.85 -14.55 -12.8 -14.75 -12.75 -14.9 -12.6 -15.1 -12.4 -15.3 -12.1 -15.5 -11.55 -15.6 -11.05 -15.5 -10.75 -15.3 -10.5 -15.15 -10.3 -15.15 -9.8 -15.05 -9.15 -14.9 -8.9 -14.85 -3.55 -14.85 -1.8 -14.6 -1.3 -14.5 -1.05 -14.35 -0.55 -14.25 -0.25 -14.05 -0.05 -13.85 0.1 -13.65 0.15 -13.5 M-3.55 -7.8 L-3.5 -7.7 -3.5 -7.6 -3.45 -7.35 -3.45 -6.85 -3.5 -6.4 -3.55 -6.3 -3.55 -6.2 -3.6 -6.1 -3.6 -6.0 -3.65 -5.85 -3.7 -5.75 -3.8 -5.65 -3.9 -5.55 -4.15 -5.5 -4.4 -5.5 -4.65 -5.55 -4.75 -5.65 -4.95 -5.85 -5.3 -6.2 -5.45 -6.4 -5.45 -6.5 -5.45 -6.7 -5.45 -6.95 -5.45 -7.35 -5.45 -7.45 -5.4 -7.5 -5.35 -7.6 -5.3 -7.7 -5.2 -7.8 -5.1 -7.9 -5.0 -7.95 -4.8 -8.0 -4.6 -8.1 -4.55 -8.1 -4.4 -8.15 -4.05 -8.15 -3.85 -8.1 -3.7 -8.0 -3.65 -7.9 -3.55 -7.8" fill="#ffff99" fill-opacity="0.2" fill-rule="evenodd" stroke="none"/>
    <path d="M13.85 -15.3 L15.35 -15.2 15.5 -15.1 15.6 -15.0 15.65 -14.9 15.65 -14.85 15.7 -14.85 15.8 -14.65 15.85 -14.55 15.85 -14.45 15.85 -14.35 15.8 -14.25 15.95 -8.55 15.95 -2.55 15.9 3.35 15.9 3.4 15.9 3.5 15.9 3.55 15.9 3.65 15.9 3.75 15.95 3.85 15.95 3.95 16.05 7.4 16.0 11.0 15.9 13.05 15.9 13.1 15.85 13.4 15.85 13.5 15.85 13.55 15.9 13.65 15.95 13.75 16.0 13.85 16.05 13.95 16.05 14.05 16.05 14.15 16.05 14.25 16.0 14.3 15.95 14.4 15.95 14.5 15.8 14.6 15.75 14.7 15.65 14.8 15.45 14.85 15.4 14.85 15.2 14.85 14.95 14.8 14.9 14.8 Q7.75 15.1 0.65 14.85 L-7.05 14.85 -7.2 14.85 Q-11.4 15.05 -15.5 14.7 L-15.6 14.75 -15.7 14.8 -15.9 14.8 -16.15 14.75 -16.25 14.65 -16.3 14.6 -16.35 14.6 -16.45 14.5 -16.5 14.4 -16.55 14.3 -16.6 14.2 -16.6 14.1 -16.6 8.3 -16.5 2.4 -16.3 -3.55 -16.4 -3.65 -16.5 -3.75 -16.55 -3.85 -16.55 -3.95 -16.6 -4.0 -16.6 -4.1 -16.6 -6.55 -16.6 -6.65 -16.6 -6.75 -16.6 -6.85 -16.7 -6.95 -16.7 -7.0 -16.7 -7.1 -16.75 -7.2 -16.75 -7.3 -16.75 -7.4 -16.75 -7.5 -16.8 -7.6 -16.85 -7.7 -16.85 -8.05 -16.85 -8.55 -16.85 -9.0 -16.85 -9.1 -16.85 -10.8 -16.8 -12.65 -16.75 -13.95 -16.8 -14.05 -16.85 -14.15 -16.95 -14.25 -16.95 -14.35 -16.95 -14.45 -16.95 -14.55 -16.95 -14.6 -16.9 -14.7 -16.9 -14.75 -16.85 -14.85 -16.8 -14.95 -16.7 -15.05 -16.5 -15.05 -16.5 -15.1 -16.45 -15.1 -16.3 -15.15 -16.2 -15.1 -16.15 -15.1 -16.05 -15.15 -15.9 -15.15 -15.9 -15.2 -15.75 -15.1 -15.3 -15.15 -14.35 -15.2 -12.05 -15.25 -1.05 -15.2 0.85 -15.1 1.05 -15.05 1.7 -15.0 4.55 -15.0 4.7 -15.0 5.25 -15.1 5.35 -15.15 5.4 -15.15 5.6 -15.2 5.95 -15.25 6.0 -15.25 6.6 -15.3 6.6 -15.35 10.35 -15.3 13.85 -15.3 M10.05 -14.0 L10.1 -10.15 10.1 -6.1 10.0 -3.7 9.95 -3.6 9.9 -3.5 9.9 -3.3 9.9 -2.95 9.9 -2.55 9.9 -2.45 9.85 -2.35 9.8 -2.25 9.8 -2.2 9.8 -2.1 9.8 -2.0 9.8 -1.9 9.75 -1.8 9.7 -1.75 9.6 -1.8 9.6 -1.9 9.6 -2.0 9.6 -2.1 9.6 -2.2 9.6 -2.25 9.55 -2.35 9.5 -2.55 9.5 -2.95 9.5 -3.3 9.5 -3.4 9.45 -3.5 9.4 -3.6 9.25 -7.5 9.3 -11.65 9.3 -14.0 5.55 -14.2 5.25 -14.2 5.15 -14.2 4.95 -14.1 -0.3 -14.1 -2.85 -14.1 Q-9.2 -13.9 -15.55 -14.15 L-15.6 -14.1 -15.55 -10.45 -15.5 -6.5 Q-15.45 -5.25 -15.55 -4.05 L-15.55 -3.95 -15.6 -3.6 -15.6 -3.5 -15.65 -3.4 -15.45 2.4 -15.4 8.4 -15.4 12.15 -15.4 12.65 -15.35 13.6 -15.35 13.85 -9.8 13.7 -7.05 13.75 -5.4 13.9 -5.2 13.95 -5.1 14.05 -1.75 14.05 -1.75 14.0 -1.7 13.9 -1.55 13.8 -1.35 13.75 -1.25 13.75 -1.05 13.7 9.3 13.7 9.3 13.4 9.3 12.75 9.35 12.65 9.4 12.55 9.4 12.05 9.35 11.5 9.4 10.95 9.35 6.65 9.4 2.15 9.45 -0.4 9.4 -0.5 9.35 -0.6 9.35 -0.7 9.35 -0.75 9.4 -0.85 9.5 -0.9 9.6 -0.95 9.75 -0.9 9.8 -0.8 9.85 -0.7 9.9 -0.6 10.0 2.2 10.0 5.1 10.05 6.9 10.0 9.05 10.0 11.3 10.0 12.6 10.05 12.7 10.05 12.8 10.1 13.35 10.1 13.7 14.35 13.8 14.8 13.85 14.8 13.65 14.8 12.55 14.85 11.5 14.9 11.4 14.95 11.35 15.1 11.25 15.25 11.2 15.2 9.35 15.2 7.4 15.1 7.3 15.05 7.2 15.0 7.1 14.95 7.0 14.9 6.9 Q14.75 4.05 14.75 1.2 L14.75 -4.8 14.75 -10.7 14.9 -14.15 14.6 -14.15 10.05 -14.0" fill="#333333" fill-rule="evenodd" stroke="none"/>
    <path d="M4.25 11.2 L4.3 11.3 4.4 11.4 4.45 11.5 4.45 11.6 4.5 11.7 4.5 11.8 4.5 11.9 4.5 11.95 4.5 12.05 4.55 12.15 4.6 12.25 4.65 12.35 4.65 12.45 4.7 12.55 4.7 12.65 4.75 12.7 4.75 12.8 4.8 12.9 4.85 13.0 4.9 13.1 4.9 13.2 4.9 13.3 4.9 13.4 4.9 13.45 4.85 13.55 4.8 13.65 4.75 13.75 4.6 13.8 4.45 13.75 4.35 13.65 4.3 13.55 4.3 13.45 4.3 13.4 4.25 13.3 4.25 13.2 4.2 13.1 4.15 13.0 4.1 12.9 4.1 12.8 4.05 12.7 4.05 12.65 4.05 12.55 4.0 12.45 3.95 12.35 3.9 12.25 3.9 12.15 3.9 12.05 3.9 11.95 3.9 11.8 3.9 11.7 3.85 11.6 3.8 11.5 3.8 11.4 3.85 11.3 3.9 11.2 4.1 11.2 4.1 11.15 4.25 11.2" fill="#333333" fill-rule="evenodd" stroke="none"/>
    <path d="M4.9 9.55 L5.0 9.65 5.05 9.75 5.05 9.85 5.1 9.95 5.15 10.05 5.15 10.15 5.8 11.15 6.45 12.2 6.8 12.75 6.85 12.85 6.85 12.95 6.9 13.05 6.9 13.15 6.95 13.25 7.0 13.3 6.95 13.4 6.85 13.45 6.7 13.4 6.05 12.5 5.45 11.5 5.15 11.05 5.15 10.95 5.1 10.9 4.95 10.7 4.8 10.4 4.7 10.2 4.7 10.15 4.65 10.05 4.65 9.95 4.65 9.85 4.65 9.75 4.7 9.65 4.75 9.6 4.85 9.55 4.9 9.55" fill="#333333" fill-rule="evenodd" stroke="none"/>
    <path d="M6.9 10.9 L6.85 10.8 6.85 10.7 6.85 10.65 6.9 10.55 7.0 10.5 7.1 10.45 7.25 10.5 7.3 10.6 7.35 10.7 7.4 10.8 7.55 10.9 7.65 10.95 7.8 11.05 7.9 11.15 7.85 11.25 7.75 11.35 7.7 11.35 7.6 11.35 7.45 11.35 7.25 11.3 7.1 11.2 7.0 11.1 6.9 10.9" fill="#333333" fill-rule="evenodd" stroke="none"/>
    <path d="M-13.45 10.85 L-13.3 10.8 -13.15 10.85 -13.05 10.95 -12.95 11.05 -12.95 11.15 -12.9 11.25 -12.85 11.3 -12.9 11.5 -13.0 11.8 -13.2 12.05 -13.25 12.15 -13.3 12.25 -13.3 12.35 -13.3 12.45 -13.35 12.55 -13.45 12.7 -13.55 12.9 -13.6 13.05 -13.7 13.1 -13.85 13.15 -13.9 13.25 -14.05 13.3 -14.2 13.25 -14.2 13.15 -14.2 13.05 -14.1 12.95 -14.1 12.8 -14.0 12.5 -13.95 12.2 -13.9 12.05 -13.85 11.95 -13.75 11.75 -13.65 11.55 -13.55 11.4 -13.6 11.3 -13.6 11.2 -13.6 11.1 -13.6 11.0 -13.55 10.9 -13.5 10.85 -13.45 10.85" fill="#333333" fill-rule="evenodd" stroke="none"/>
    <path d="M-13.0 9.05 L-12.95 9.15 -13.0 9.3 -13.15 9.6 -13.35 9.8 -13.35 9.9 -13.4 9.95 -13.45 10.05 -13.45 10.15 -13.5 10.25 -13.6 10.35 -13.65 10.45 -13.75 10.55 -13.9 10.6 -13.95 10.65 -13.95 10.55 -13.95 10.45 -14.0 10.35 -14.0 10.25 -13.95 10.15 -13.85 10.05 -13.85 9.95 -13.85 9.9 -13.8 9.8 -13.8 9.7 -13.6 9.4 -13.35 9.05 -13.15 8.95 -13.1 8.95 -13.0 9.05" fill="#333333" fill-rule="evenodd" stroke="none"/>
    <path d="M-10.4 11.3 L-10.35 11.55 -10.4 11.85 -10.45 12.15 -10.55 12.3 -10.65 12.5 -10.8 12.7 -11.0 12.7 -11.05 12.6 -11.05 12.55 -11.0 12.45 -10.95 12.35 -10.9 12.25 -10.85 12.15 -10.85 12.05 -10.8 11.95 -10.8 11.9 -10.75 11.8 -10.75 11.7 -10.75 11.6 -10.75 11.5 -10.8 11.4 -10.75 11.3 -10.7 11.2 -10.55 11.2 -10.5 11.2 -10.4 11.3" fill="#333333" fill-rule="evenodd" stroke="none"/>
    <path d="M7.0 -12.55 L7.05 -12.45 7.05 -12.35 7.1 -12.3 7.05 -12.2 7.05 -12.1 7.0 -12.0 6.95 -11.9 6.95 -11.8 6.45 -11.25 5.85 -10.7 5.65 -10.5 5.55 -10.45 5.45 -10.4 5.3 -10.45 5.2 -10.55 5.2 -10.65 5.7 -11.3 6.25 -11.85 6.5 -12.15 6.55 -12.25 6.55 -12.35 6.6 -12.45 6.65 -12.55 6.75 -12.55 6.85 -12.6 7.0 -12.55" fill="#333333" fill-rule="evenodd" stroke="none"/>
    <path d="M4.5 -12.8 L4.6 -12.7 4.65 -12.6 4.6 -12.55 4.6 -12.45 4.55 -12.35 4.5 -12.25 4.35 -12.05 4.25 -11.95 4.1 -11.9 3.95 -11.8 3.8 -11.8 3.8 -11.85 3.9 -11.95 3.9 -12.05 3.95 -12.15 4.05 -12.25 4.15 -12.35 4.15 -12.45 4.2 -12.55 4.25 -12.6 4.25 -12.7 4.3 -12.8 4.35 -12.8 4.45 -12.8 4.5 -12.8" fill="#333333" fill-rule="evenodd" stroke="none"/>
    <path d="M12.0 -13.85 L12.15 -14.05 12.3 -14.15 12.4 -14.25 12.55 -14.4 12.6 -14.4 12.7 -14.45 12.75 -14.45 12.85 -14.35 12.75 -14.15 12.6 -13.95 12.45 -13.75 12.4 -13.7 12.0 -13.2 11.6 -12.75 11.45 -12.55 11.3 -12.5 11.15 -12.6 11.1 -12.65 11.1 -12.75 11.15 -12.85 11.25 -12.95 11.25 -13.05 11.3 -13.1 11.65 -13.5 12.0 -13.85" fill="#333333" fill-rule="evenodd" stroke="none"/>
    <path d="M14.45 -14.05 L14.6 -13.95 14.65 -13.85 14.65 -13.8 14.6 -13.7 14.5 -13.6 14.25 -13.5 13.7 -13.0 13.35 -12.65 13.0 -12.3 12.9 -12.2 12.7 -12.15 12.6 -12.25 12.6 -12.35 12.65 -12.45 12.7 -12.55 13.0 -13.0 13.35 -13.35 13.9 -13.85 14.05 -13.95 14.25 -13.95 14.3 -14.0 14.45 -14.0 14.45 -14.05" fill="#333333" fill-rule="evenodd" stroke="none"/>
    <path d="M15.6 -12.55 L15.65 -12.45 15.7 -12.35 15.7 -12.25 15.65 -12.15 15.55 -12.05 15.2 -11.9 14.9 -11.8 14.75 -11.7 14.65 -11.6 14.55 -11.6 14.35 -11.6 14.25 -11.6 14.25 -11.7 14.3 -11.8 14.3 -11.9 14.4 -12.0 14.55 -12.1 14.7 -12.2 14.75 -12.3 15.0 -12.4 15.15 -12.45 15.25 -12.55 15.3 -12.55 15.45 -12.55 15.45 -12.6 15.6 -12.55" fill="#333333" fill-rule="evenodd" stroke="none"/>
    <path d="M14.75 -10.1 L14.75 -10.05 14.7 -9.95 14.6 -9.85 14.45 -9.75 14.3 -9.7 14.15 -9.75 14.1 -9.8 13.9 -9.9 13.9 -9.95 13.95 -9.95 14.1 -10.05 14.2 -10.1 14.35 -10.2 14.55 -10.25 14.55 -10.3 14.7 -10.2 14.75 -10.1" fill="#333333" fill-rule="evenodd" stroke="none"/>
    <path d="M13.5 -7.95 L13.5 -7.9 13.6 -7.8 13.9 -7.6 14.05 -7.5 14.15 -7.4 14.05 -7.35 13.9 -7.4 13.6 -7.55 13.35 -7.7 13.2 -7.8 13.25 -7.85 13.3 -7.95 13.4 -7.95 13.5 -7.95" fill="#333333" fill-rule="evenodd" stroke="none"/>
    <path d="M11.35 12.9 L11.4 13.0 11.45 13.1 11.45 13.2 11.5 13.3 11.5 13.4 11.55 13.45 11.65 13.65 11.75 13.85 11.8 13.95 11.75 14.05 11.7 14.15 11.65 14.15 11.55 14.2 11.35 14.15 11.25 14.05 11.15 13.95 11.1 13.85 11.05 13.75 11.0 13.65 11.0 13.55 10.9 13.45 10.9 13.4 10.9 13.3 10.9 13.2 10.9 13.1 10.95 13.0 11.05 12.9 11.2 12.85 11.35 12.9" fill="#333333" fill-rule="evenodd" stroke="none"/>
    <path d="M13.75 12.9 L13.9 13.0 14.05 13.1 13.9 13.15 13.8 13.15 13.7 13.1 13.55 13.1 13.25 13.15 13.15 13.15 13.1 13.05 13.05 12.95 13.05 12.9 13.1 12.85 13.2 12.8 13.6 12.8 13.75 12.9" fill="#333333" fill-rule="evenodd" stroke="none"/>
  </g>
</svg>
