<?xml version="1.0" encoding="UTF-8" standalone="no"?>
<svg xmlns:xlink="http://www.w3.org/1999/xlink" height="36.2px" width="39.8px" xmlns="http://www.w3.org/2000/svg">
  <g transform="matrix(1.0, 0.0, 0.0, 1.0, 1.0, 0.55)">
    <path d="M34.0 23.35 L30.0 23.35 26.0 23.35 22.05 23.35 18.05 23.35 14.05 23.35 10.05 23.35 6.1 23.3 3.1 23.3 1.8 23.3 1.9 27.3 1.95 30.35 2.0 33.35 6.0 33.9 10.05 34.3 14.15 34.5 17.2 34.6 21.0 34.6 25.05 34.25 29.15 33.8 32.2 33.4 36.55 32.6 36.7 28.6 36.85 24.65 37.0 20.7 37.05 16.75 37.1 12.8 37.05 8.85 37.05 5.9 37.0 1.35 33.05 0.9 29.1 0.6 26.15 0.45 22.25 0.5 18.3 0.6 14.4 0.7 11.5 0.85 10.45 0.9 6.5 1.05 3.55 1.2 0.0 1.35 0.45 5.35 0.8 8.4 1.0 10.35 5.0 10.35 9.0 10.35 13.0 10.35 17.0 10.35 21.0 10.35 25.0 10.35 29.0 10.35 32.0 10.35 34.0 10.35 M17.0 19.35 L16.7 16.3 16.5 15.0 18.8 16.75 21.0 19.2 21.0 16.3 21.0 15.05 25.1 15.15 28.6 14.8 M25.4 19.25 L25.15 16.25 25.1 15.15 M1.0 10.35 L1.25 14.35 1.5 18.35 1.7 21.4 1.8 23.3 M7.25 15.1 L10.15 14.85 11.0 15.35 13.5 14.85 M10.4 19.35 L10.45 16.45 Q10.5 15.5 10.15 14.85 M37.8 32.3 L36.55 32.6 36.5 32.95" fill="none" stroke="#ffffff" stroke-linecap="round" stroke-linejoin="round" stroke-width="2.0"/>
  </g>
</svg>
