<?xml version="1.0" encoding="UTF-8" standalone="no"?>
<svg xmlns:xlink="http://www.w3.org/1999/xlink" height="112.35px" width="144.45px" xmlns="http://www.w3.org/2000/svg">
  <g transform="matrix(1.0, 0.0, 0.0, 1.0, 72.2, 56.2)">
    <path d="M-51.55 -2.15 L-51.35 -2.6 -51.05 -2.85 -50.75 -3.1 -52.45 -3.75 -52.45 -3.8 -52.1 -4.7 -51.75 -5.6 Q-51.4 -8.15 -51.3 -10.75 L-50.95 -11.5 -50.65 -13.65 -50.3 -14.45 -49.85 -15.1 Q-48.2 -19.35 -49.05 -24.2 L-48.9 -25.05 -47.95 -26.15 -47.8 -27.5 -47.7 -29.25 -47.5 -38.5 -48.2 -39.25 -48.85 -39.95 -49.5 -40.75 -50.9 -42.7 -52.2 -43.75 -53.7 -47.4 -55.0 -48.4 -54.35 -49.35 -53.25 -50.4 -51.4 -50.85 -42.1 -51.6 -36.45 -51.35 -34.55 -51.1 -32.7 -51.35 -26.9 -51.7 -26.75 -51.95 -26.5 -52.2 -24.25 -52.3 Q-23.75 -52.25 -23.5 -52.0 L-23.45 -51.7 -23.5 -51.6 -19.55 -51.0 -18.3 -50.7 -17.65 -50.5 -17.05 -49.65 -16.85 -49.2 -16.2 -47.6 -14.25 -46.9 -13.0 -46.45 -12.35 -46.2 -11.7 -46.95 -10.6 -47.9 -6.85 -48.6 1.0 -49.05 1.1 -49.35 1.35 -49.6 3.2 -49.9 5.05 -49.95 6.85 -49.7 6.95 -49.6 7.2 -49.4 7.6 -49.35 8.0 -49.25 8.35 -49.2 8.75 -49.1 9.0 -49.0 9.15 -48.85 9.4 -48.6 9.65 -48.3 9.7 -48.15 9.85 -47.9 10.05 -47.85 10.4 -47.35 10.5 -47.3 11.25 -46.95 12.25 -46.45 12.4 -46.3 12.45 -46.15 12.7 -45.95 14.1 -45.35 15.55 -44.4 16.35 -43.85 17.75 -43.1 17.9 -43.0 18.15 -42.75 18.45 -42.55 18.7 -42.3 18.95 -42.0 19.2 -41.8 19.35 -41.65 19.4 -41.55 19.5 -41.5 19.55 -40.8 19.55 -40.75 20.5 -40.9 22.35 -41.7 26.0 -43.05 27.25 -43.45 Q27.55 -43.5 27.75 -43.7 L28.5 -44.4 29.6 -45.4 31.45 -45.9 40.8 -46.55 46.45 -45.65 47.75 -45.3 48.2 -44.45 48.6 -41.9 47.4 -40.85 46.45 -36.15 45.25 -35.15 44.25 -31.4 43.1 -30.25 43.2 -27.7 43.8 -15.4 Q48.3 -14.8 52.4 -12.75 53.5 -11.65 53.4 -10.0 L53.2 -2.7 Q43.25 -3.15 33.2 -2.85 24.6 -2.6 16.0 -2.65 L-17.85 -2.7 -51.55 -2.15 M48.8 4.75 L48.6 5.3 46.25 6.85 45.55 7.3 45.75 9.75 45.9 11.75 44.75 12.85 43.7 16.2 43.9 18.65 44.3 24.6 44.4 26.05 45.7 26.95 47.05 28.05 47.7 36.4 49.2 50.75 48.0 51.75 Q37.05 54.55 25.65 54.3 14.4 54.05 3.15 54.3 L-15.65 53.25 -17.55 52.9 -18.85 51.9 -20.2 50.8 Q-24.85 51.75 -29.45 53.0 -35.85 54.7 -42.5 54.65 -48.0 54.65 -53.2 53.1 L-53.75 52.4 -53.75 52.1 Q-53.3 51.55 -52.65 51.2 L-51.5 50.75 -51.5 50.5 -51.4 50.1 -50.35 49.15 -50.45 48.85 -52.25 48.25 -53.55 47.9 -54.2 47.65 -54.7 47.0 -55.6 44.7 -55.0 44.6 -54.05 44.3 -52.25 43.75 -51.65 43.25 -51.7 42.5 -51.7 42.35 -51.75 41.85 -51.75 41.6 -51.55 40.6 -51.55 40.35 -51.55 40.05 -51.65 39.85 -52.2 39.3 -52.9 38.75 -53.2 36.75 -52.9 29.75 -53.6 28.55 -54.9 28.25 Q-55.25 27.7 -55.85 27.25 L-56.6 25.5 -57.3 24.95 Q-58.15 22.0 -58.3 19.0 L-58.05 18.4 -57.6 17.4 -56.75 15.1 -56.4 14.8 -56.2 13.7 -56.15 13.6 -55.6 13.15 -55.0 12.35 -54.45 11.9 -53.9 11.3 -53.6 10.6 -53.65 9.75 -53.1 8.75 -52.5 8.25 Q-52.5 7.7 -52.65 7.25 -53.05 6.0 -52.05 5.35 L-51.9 5.2 Q-39.25 4.85 -26.55 4.95 -9.6 5.1 7.3 5.6 24.6 6.15 41.75 5.2 L42.25 4.8 42.5 4.7 47.0 4.7 48.8 4.75 M-27.35 36.5 L-27.8 36.9 -27.75 38.3 Q-26.1 39.4 -23.65 39.8 L-16.1 40.4 Q-12.65 40.4 -9.4 39.4 L-8.9 39.05 -8.45 38.75 -8.0 38.35 -7.75 37.9 -7.5 37.75 -7.0 37.5 -6.3 37.15 -5.85 36.75 -5.85 36.6 -6.35 36.2 -11.65 35.6 -19.85 35.75 -27.35 36.5" fill="#a07c64" fill-rule="evenodd" stroke="none"/>
    <path d="M53.2 -2.7 L67.05 -1.75 Q67.9 -1.65 68.6 -1.2 L68.8 -0.85 68.95 -0.1 68.45 0.35 67.75 0.65 67.3 0.85 67.0 1.1 66.55 1.6 66.1 2.85 65.9 3.15 65.95 3.35 66.2 3.65 65.7 4.1 56.75 4.85 48.8 4.75 47.0 4.7 42.5 4.7 42.25 4.8 41.75 5.2 Q24.6 6.15 7.3 5.6 -9.6 5.1 -26.55 4.95 -39.25 4.85 -51.9 5.2 L-60.3 5.45 Q-62.75 5.55 -64.6 4.45 L-64.65 4.25 -64.55 2.05 -64.1 1.65 -63.8 1.35 -63.35 0.95 -63.45 0.75 -63.9 0.3 -64.0 -1.1 -63.5 -1.45 Q-63.3 -1.6 -63.05 -1.7 L-62.55 -2.1 Q-60.8 -2.85 -58.9 -3.0 L-54.35 -2.85 -52.3 -2.15 -51.55 -2.15 -17.85 -2.7 16.0 -2.65 Q24.6 -2.6 33.2 -2.85 43.25 -3.15 53.2 -2.7 M-27.35 36.5 L-19.85 35.75 -11.65 35.6 -6.35 36.2 -5.85 36.6 -5.85 36.75 -6.3 37.15 -7.0 37.5 -7.5 37.75 -7.75 37.9 -8.0 38.35 -8.45 38.75 -8.9 39.05 -9.4 39.4 Q-12.65 40.4 -16.1 40.4 L-23.65 39.8 Q-26.1 39.4 -27.75 38.3 L-27.8 36.9 -27.35 36.5" fill="#a6b8bf" fill-rule="evenodd" stroke="none"/>
    <path d="M0.15 39.8 L-0.35 40.2 -0.8 41.0 Q-0.75 41.7 -0.05 42.15 L1.7 43.2 2.9 44.15 Q2.95 44.95 2.6 45.35 1.1 46.95 -0.75 48.2 -1.3 48.5 -1.75 48.9 L-3.65 50.5 Q-10.95 52.4 -18.55 52.5 -26.4 52.6 -33.7 49.8 L-36.8 48.6 -37.75 47.35 -39.05 45.05 -38.85 44.45 Q-38.15 43.5 -37.1 42.9 L-35.5 41.8 Q-35.25 41.6 -35.3 41.1 L-35.15 40.45 Q-34.4 39.5 -33.35 38.9 L-31.5 37.95 -31.6 37.15 -33.1 29.25 -35.25 27.55 -37.3 26.1 -39.6 22.75 -40.8 21.6 -41.65 21.35 -41.85 18.2 -39.95 16.8 -39.4 15.75 Q-39.15 14.25 -39.25 12.65 L-37.25 11.45 -35.4 10.7 -35.45 9.5 -35.65 6.35 -33.75 4.95 Q-26.55 2.65 -18.95 2.4 -11.3 2.15 -3.85 3.75 L-1.8 4.25 Q-1.25 4.85 -1.0 5.55 -0.05 7.8 0.6 10.2 L0.15 39.8" fill="#333333" fill-opacity="0.2" fill-rule="evenodd" stroke="none"/>
    <path d="M22.75 12.5 L24.85 14.1 25.7 25.95 Q25.75 26.7 25.4 27.3 24.85 28.3 23.9 29.1 L23.35 35.4 25.45 37.0 27.65 39.95 31.95 43.85 34.05 45.65 34.45 52.0 32.55 53.55 Q26.75 55.05 20.7 55.4 L2.7 56.15 Q-8.05 56.35 -18.4 53.3 L-23.6 51.55 -27.15 43.25 -29.2 42.65 -29.95 42.1 -30.55 41.35 Q-30.8 41.1 -31.3 41.1 L-31.45 38.7 -32.5 23.7 -30.6 21.95 -29.1 15.0 -27.2 13.25 -25.45 9.45 -23.55 7.9 -17.65 6.6 -14.7 6.05 -2.75 5.1 12.3 6.0 18.4 7.0 20.5 8.55 22.75 12.5" fill="#333333" fill-opacity="0.2" fill-rule="evenodd" stroke="none"/>
    <path d="M18.55 -49.1 L20.65 -47.55 20.7 -46.75 20.75 -45.95 20.9 -44.2 22.9 -43.55 23.95 -43.2 27.7 -32.55 29.8 -30.95 32.3 -23.3 34.45 -21.5 35.35 -8.05 33.45 -6.5 Q15.75 -3.85 -2.35 -3.55 -11.65 -3.4 -20.5 -5.95 L-21.25 -7.25 Q-21.7 -8.7 -21.8 -10.3 L-20.1 -18.15 -18.65 -22.95 -17.8 -23.95 Q-17.3 -24.65 -17.35 -25.3 -17.5 -27.7 -18.15 -30.05 L-20.25 -31.65 -22.5 -34.8 -23.75 -36.1 -24.6 -36.35 -24.45 -37.0 -22.75 -38.75 Q-21.75 -39.05 -20.85 -39.4 L-19.85 -39.95 Q-18.85 -40.4 -18.4 -41.2 -17.5 -42.6 -17.15 -44.3 L-15.15 -45.65 -13.3 -46.55 -13.3 -46.65 -13.35 -47.45 -13.2 -48.05 Q-12.45 -48.95 -11.5 -49.65 -2.7 -52.05 6.4 -51.5 12.65 -51.15 18.55 -49.1" fill="#333333" fill-opacity="0.2" fill-rule="evenodd" stroke="none"/>
    <path d="M8.95 -28.55 L10.2 -24.6 11.4 -7.2 10.55 -4.85 9.55 -3.8 8.75 -3.2 6.75 -1.85 0.85 -0.25 -2.1 0.15 -17.05 0.95 Q-24.6 1.7 -32.05 0.25 L-35.15 -0.6 Q-35.85 -3.45 -36.05 -6.35 -36.3 -9.85 -35.9 -13.4 L-35.3 -17.35 -35.65 -22.9 -35.9 -26.25 -36.85 -26.75 -37.75 -27.75 -38.45 -29.0 Q-38.6 -29.2 -39.1 -29.2 L-39.3 -32.35 -40.4 -48.15 -38.5 -49.55 -32.55 -50.7 -29.6 -51.1 Q-22.1 -51.7 -14.55 -51.25 -8.35 -50.9 -2.45 -48.85 L-0.35 -47.5 1.9 -43.75 4.05 -41.95 6.85 -30.3 8.95 -28.55" fill="#333333" fill-opacity="0.2" fill-rule="evenodd" stroke="none"/>
    <path d="M30.7 -13.95 Q32.0 -11.6 31.35 -8.45 L31.1 -7.95 30.9 -7.65 30.55 -7.25 30.2 -6.35 30.0 -6.05 29.75 -5.55 29.55 -5.3 29.3 -5.1 29.1 -4.9 28.85 -4.35 28.4 -4.0 Q26.2 -3.25 23.9 -3.35 22.5 -3.4 21.6 -4.0 L21.95 -4.4 22.15 -4.9 22.3 -5.2 22.55 -5.6 22.75 -7.15 22.9 -7.4 Q23.9 -10.35 22.2 -13.75 20.45 -15.15 21.45 -17.4 L21.95 -17.85 22.15 -18.0 22.65 -18.3 27.15 -18.55 28.65 -18.35 29.2 -18.0 29.4 -17.85 29.7 -17.7 30.7 -13.95" fill="#333333" fill-opacity="0.2" fill-rule="evenodd" stroke="none"/>
    <path d="M17.5 -2.3 L17.45 -2.5 17.55 -2.9 17.9 -3.35 Q23.45 -4.6 29.1 -3.55 34.75 -2.45 40.5 -2.5 L46.55 -1.8 47.05 -1.4 46.6 -0.95 45.85 -0.75 45.15 -0.55 44.4 -0.4 43.8 -0.1 43.9 0.05 44.1 0.35 44.25 0.95 44.0 1.35 43.75 1.65 43.55 1.8 43.35 2.35 42.85 2.8 42.15 3.15 41.4 3.5 40.7 3.9 Q25.6 6.9 10.0 6.05 -6.15 5.2 -22.3 5.15 -29.95 5.1 -37.4 3.4 L-38.75 2.5 -40.3 1.55 -41.05 1.05 -41.35 0.75 -41.15 0.45 -41.1 0.4 -40.65 -0.05 -40.75 -0.2 -41.45 -0.5 -42.2 -0.7 -42.65 -0.95 -42.8 -1.1 -43.0 -1.15 -42.5 -1.55 -38.8 -2.05 -35.05 -2.25 -32.8 -2.45 Q-23.25 -4.05 -13.35 -3.65 L6.2 -2.5 Q11.85 -2.05 17.5 -2.3" fill="#333333" fill-opacity="0.2" fill-rule="evenodd" stroke="none"/>
    <path d="M30.5 -2.2 L30.6 -0.5 32.15 -0.2 34.15 0.4 34.7 0.75 34.75 0.95 35.0 1.2 35.5 1.55 35.8 1.8 35.75 2.15 35.55 2.55 35.1 3.05 Q22.1 7.35 8.35 6.7 L-14.25 5.65 -21.1 4.5 -21.6 4.05 -21.55 3.8 -21.15 3.35 -20.45 3.0 -20.5 2.8 -21.2 2.55 -22.0 2.4 -23.45 2.5 -25.45 2.3 -25.75 2.15 -25.25 1.95 -24.5 1.85 -23.75 1.75 -23.55 1.55 -23.3 1.15 -23.05 0.9 -22.85 0.7 -22.9 0.45 -23.15 0.1 -22.65 -0.25 -19.7 -0.75 -15.95 -0.75 -15.95 -0.8 -16.45 -1.05 -16.7 -1.2 -16.8 -1.4 -16.5 -1.85 5.9 -3.1 23.9 -3.4 Q27.05 -3.5 30.0 -2.6 L30.5 -2.2" fill="#333333" fill-opacity="0.2" fill-rule="evenodd" stroke="none"/>
    <path d="M35.1 -43.6 L35.25 -42.85 34.75 -42.4 34.05 -42.15 34.0 -42.1 32.55 -41.05 32.1 -40.85 31.85 -40.1 31.7 -39.75 Q30.2 -38.5 30.55 -35.75 L30.55 -34.8 30.05 -34.4 29.7 -34.15 29.4 -33.2 28.9 -32.85 28.45 -32.55 28.05 -26.9 27.85 -26.3 27.4 -25.9 24.4 -25.65 22.9 -25.85 22.35 -26.25 22.05 -26.85 21.0 -31.65 21.25 -32.35 21.4 -32.65 21.65 -32.85 21.8 -33.05 21.8 -34.35 22.05 -34.6 22.25 -34.7 21.5 -38.95 21.75 -39.55 21.9 -39.85 22.05 -39.95 22.1 -40.9 22.65 -41.5 23.75 -42.4 24.2 -42.8 24.65 -43.6 25.15 -44.0 Q28.05 -44.85 31.1 -44.6 L32.6 -44.5 34.9 -43.95 35.1 -43.6" fill="#333333" fill-opacity="0.2" fill-rule="evenodd" stroke="none"/>
    <path d="M-64.15 0.5 L-64.2 -0.85 -63.75 -1.25 -60.8 -2.05 -57.05 -2.1 -54.25 -1.65 -54.0 -1.5 -53.5 -1.25 -52.75 -1.05 -52.2 -0.9 -52.0 -0.75 -51.65 -0.5 -51.15 -0.1 -50.65 0.3 -50.4 4.05 -50.85 4.45 -51.6 4.65 -52.35 4.8 -53.05 4.95 -53.8 5.45 -56.0 5.95 -59.0 6.1 -61.8 5.6 -62.05 5.35 -62.2 5.05 -62.2 3.5 -62.5 2.4 -63.05 1.95 -63.35 1.35 -63.6 0.9 -63.9 0.6 -64.15 0.5" fill="#ffff99" fill-opacity="0.2" fill-rule="evenodd" stroke="none"/>
    <path d="M49.45 0.2 L49.3 -1.9 49.8 -2.3 52.75 -2.7 57.25 -2.8 61.8 -2.3 62.55 -2.4 64.0 -2.55 65.5 -2.5 67.05 -2.35 67.55 -2.15 68.05 -1.9 68.45 -1.5 68.35 -1.25 68.15 -1.15 67.9 -0.85 67.65 -0.55 67.5 -0.45 67.25 0.75 66.8 1.2 66.4 3.35 65.95 3.75 65.2 3.95 65.0 4.15 64.5 4.6 62.3 5.05 58.55 5.05 54.75 4.5 54.0 4.3 53.2 3.9 52.7 3.6 52.15 3.3 51.4 2.9 50.85 2.45 50.3 1.9 49.8 1.45 49.6 0.25 49.45 0.2" fill="#ffff99" fill-opacity="0.2" fill-rule="evenodd" stroke="none"/>
    <path d="M-65.7 -0.45 L-65.65 -0.8 -65.25 -1.25 -62.3 -1.7 -59.25 -1.55 -57.75 -1.25 -57.2 -0.9 -56.95 -0.7 -56.7 -0.6 Q-55.9 2.4 -56.5 5.7 L-57.0 6.05 -60.0 6.4 -62.25 6.25 -63.75 6.05 -64.1 5.65 -64.05 5.4 Q-63.5 5.05 -63.75 4.05 L-64.35 1.1 -64.9 0.05 -65.35 -0.25 -65.5 -0.4 -65.7 -0.45" fill="#ffff99" fill-opacity="0.2" fill-rule="evenodd" stroke="none"/>
    <path d="M59.6 0.95 L59.65 -0.65 59.35 -1.6 59.35 -1.75 59.8 -2.2 64.25 -2.6 66.55 -2.35 67.3 -2.2 67.8 -1.8 67.4 0.7 67.25 0.95 Q66.55 1.6 66.55 2.6 L66.5 4.15 66.0 4.45 65.25 4.7 64.8 5.15 64.3 5.55 59.85 5.75 58.55 5.65 Q58.25 5.65 58.3 5.3 L58.8 4.95 58.95 4.6 59.25 4.2 Q58.85 2.75 59.3 1.55 L59.6 0.95" fill="#ffff99" fill-opacity="0.2" fill-rule="evenodd" stroke="none"/>
    <path d="M-27.5 38.15 L-27.5 38.0 -27.25 37.6 -26.85 37.2 -21.6 36.65 -17.1 36.8 -15.05 37.25 -14.85 37.5 -14.45 38.65 -14.5 38.85 -14.95 39.25 -20.15 39.8 -24.65 39.5 -26.7 39.0 -26.95 38.75 -27.2 38.45 -27.35 38.2 -27.5 38.15" fill="#ffff99" fill-opacity="0.2" fill-rule="evenodd" stroke="none"/>
    <path d="M-29.2 39.35 L-29.1 39.0 -28.75 38.6 Q-26.2 37.7 -23.55 37.8 L-19.05 37.8 -16.0 38.25 -15.8 38.5 -15.8 38.8 -16.2 39.2 Q-18.7 40.05 -21.4 40.1 L-26.65 40.05 Q-28.25 40.05 -29.2 39.35" fill="#ffff99" fill-opacity="0.2" fill-rule="evenodd" stroke="none"/>
    <path d="M-40.65 51.25 L-40.9 51.5 -41.35 51.8 -41.85 52.0 -42.1 52.3 -42.3 52.45 -42.75 52.85 -43.25 53.1 -43.5 53.2 -43.75 53.4 -44.2 53.75 -44.95 53.95 -45.7 54.05 Q-47.55 54.25 -49.45 54.1 L-51.75 53.65 -51.85 53.4 -51.75 53.15 -51.5 52.95 -51.1 52.5 -51.05 52.35 -51.3 52.05 -51.5 51.65 -51.35 51.4 -51.15 51.2 -51.25 46.7 -51.3 45.2 -51.65 44.15 -51.9 43.75 -52.0 42.55 -51.5 42.15 -51.4 40.4 -51.85 38.75 -52.0 38.5 -52.25 38.3 -52.45 38.0 -53.25 35.3 -53.5 35.1 -53.7 34.8 -54.4 32.55 -54.65 32.35 -54.9 32.05 -55.35 31.05 -55.55 30.8 -55.8 30.45 -56.05 30.05 -56.95 28.15 -57.5 27.7 -58.1 26.2 -58.65 25.75 -59.2 22.9 -59.35 22.7 -59.6 22.5 -59.8 22.15 -60.3 20.75 -60.5 20.5 -60.75 20.3 -60.95 20.0 -61.35 19.0 -61.85 18.75 -62.1 18.45 -62.7 17.55 -63.05 17.2 -63.25 17.1 -63.3 15.3 -63.3 12.7 -62.8 12.35 -62.3 12.15 -62.35 11.95 -62.4 11.35 -61.9 10.95 -61.45 10.35 -60.95 9.95 -60.5 9.6 -59.05 8.35 -58.6 7.95 -58.4 7.4 -58.15 7.0 -57.7 6.6 -56.95 6.4 -55.5 6.1 -51.0 5.95 -49.45 6.2 -48.95 6.55 -49.15 6.85 -49.15 6.95 -48.9 7.35 -48.6 7.95 -48.65 8.3 -49.0 8.8 Q-49.55 9.65 -50.4 10.2 L-50.9 10.55 -51.35 11.3 -51.85 11.75 -52.05 12.1 -52.3 12.5 -52.75 12.95 -52.85 15.25 -52.2 17.1 -51.7 17.5 -51.15 18.4 -50.6 18.8 -50.3 19.4 -50.2 20.05 -50.0 20.3 -49.75 20.5 -49.55 20.8 -49.05 22.25 -48.85 22.45 -48.6 22.65 -48.4 23.0 -47.6 25.85 -47.1 26.3 -46.5 27.85 -45.95 28.3 -45.85 29.45 -45.7 30.4 -45.55 30.7 -45.3 30.95 -45.05 31.25 -44.65 32.1 -44.45 32.35 -44.15 32.55 -43.95 32.85 -43.25 35.15 -43.0 35.35 -42.8 35.65 -42.0 38.3 Q-40.6 39.3 -40.65 41.35 -40.85 46.3 -40.65 51.25" fill="#ffff99" fill-opacity="0.2" fill-rule="evenodd" stroke="none"/>
    <path d="M-53.6 -50.5 L-51.35 -50.75 -49.85 -50.6 -49.35 -50.45 -49.1 -50.25 -48.55 -49.8 -48.05 -49.65 -47.8 -49.6 -47.25 -49.25 -46.5 -48.95 -45.95 -48.55 -44.85 -43.4 -44.35 -43.0 -44.05 -42.6 -43.5 -34.9 -43.4 -32.9 -43.15 -32.75 -42.85 -32.55 -42.6 -32.4 -42.35 -32.1 -42.3 -32.05 -42.2 -31.7 -42.25 -30.7 -41.85 -30.15 -41.4 -29.85 -41.25 -29.55 -41.0 -27.2 -40.45 -26.55 -39.9 -26.15 Q-39.65 -21.5 -39.05 -16.9 L-38.5 -16.55 Q-37.45 -13.95 -38.7 -12.1 L-39.0 -11.55 -39.25 -9.4 -39.5 -9.1 -39.75 -8.85 -39.95 -8.6 -40.15 -8.35 -40.4 -7.45 -40.6 -7.1 -40.85 -6.6 -41.05 -6.3 -41.25 -5.45 -41.5 -5.15 -41.7 -4.95 -42.2 -4.6 -42.7 -4.25 -43.05 -3.9 -43.35 -3.3 -43.85 -2.9 -48.3 -2.5 -51.35 -2.9 -51.85 -3.05 -52.0 -3.3 -51.85 -3.55 -51.65 -3.65 -51.4 -3.85 -51.15 -4.15 -50.95 -4.35 -50.75 -4.55 -50.7 -4.65 -50.5 -4.95 Q-49.45 -5.6 -49.8 -6.75 -50.35 -8.5 -50.35 -10.4 L-50.0 -11.0 Q-49.7 -12.0 -49.55 -13.05 -48.3 -18.7 -49.85 -25.4 L-50.0 -25.65 -50.4 -26.1 -50.95 -26.5 -51.0 -27.15 -51.1 -28.55 -51.4 -29.5 -51.65 -29.6 -51.95 -29.85 -52.25 -30.65 -52.25 -31.1 -52.3 -31.8 -52.85 -32.3 -53.4 -32.75 -54.15 -42.35 -54.3 -42.65 -54.65 -43.25 -55.15 -47.55 -54.95 -48.55 -55.05 -48.75 -55.2 -49.0 -55.35 -49.2 -55.5 -49.25 -55.0 -49.6 -54.55 -49.8 -54.35 -49.9 -54.05 -50.2 -53.6 -50.5" fill="#ffff99" fill-opacity="0.2" fill-rule="evenodd" stroke="none"/>
    <path d="M46.2 7.4 L46.3 7.65 46.0 8.1 45.5 8.5 45.55 9.15 45.5 9.6 45.15 10.1 44.75 11.85 44.85 13.1 44.95 14.8 44.5 15.25 44.15 17.55 43.65 18.0 43.25 19.15 43.3 19.95 42.85 20.4 42.4 21.2 42.4 22.7 43.15 29.05 43.7 29.45 44.25 29.9 45.0 30.0 45.75 30.1 47.25 30.4 47.8 30.8 48.35 35.45 48.6 35.65 48.9 35.95 49.25 37.7 Q49.1 39.2 49.1 40.65 L49.15 46.6 48.85 46.85 48.65 47.0 48.4 47.2 48.25 47.5 48.05 48.9 47.55 49.3 47.1 49.7 46.9 50.75 46.75 51.95 46.25 52.3 45.55 52.5 44.8 52.8 43.35 53.35 42.6 53.35 41.85 53.3 40.3 53.05 39.8 52.75 39.55 52.55 39.55 52.35 39.75 52.15 40.0 52.0 39.9 50.75 40.0 50.0 40.3 49.45 40.5 49.15 40.55 48.95 40.55 47.8 40.7 47.5 40.9 47.2 41.1 46.9 41.1 46.65 40.55 45.3 39.75 45.05 39.25 44.65 38.7 36.6 38.4 36.35 38.15 36.1 37.9 35.85 37.7 35.55 37.2 34.5 37.05 34.3 36.8 34.1 36.55 33.75 36.1 32.65 35.9 32.35 35.65 32.1 35.4 31.8 35.05 30.9 34.75 30.6 34.5 30.35 34.25 30.05 33.7 29.5 33.15 29.1 32.65 23.55 32.55 23.55 32.4 21.2 32.3 20.35 32.8 20.0 32.95 19.55 33.2 18.2 33.65 17.75 33.95 15.25 34.45 14.85 34.55 12.45 34.6 10.1 35.1 9.7 35.25 8.9 35.3 8.7 35.45 7.7 35.95 7.35 Q37.0 6.9 38.15 6.8 L40.4 6.7 41.9 6.75 42.65 6.75 45.7 7.25 46.2 7.4" fill="#ffff99" fill-opacity="0.2" fill-rule="evenodd" stroke="none"/>
    <path d="M40.6 -48.7 L45.1 -48.9 48.15 -48.3 48.35 -48.0 48.35 -47.85 47.95 -47.45 47.5 -47.2 47.0 -46.85 46.25 -46.6 45.55 -46.35 44.8 -46.1 Q44.95 -41.65 45.25 -37.25 L45.4 -36.95 45.75 -36.3 47.3 -24.3 47.8 -23.9 48.2 -21.85 48.45 -21.65 48.75 -21.45 49.0 -21.25 49.2 -18.15 49.35 -17.2 50.35 -12.3 50.6 -12.25 50.8 -12.0 51.2 -10.6 51.5 -10.1 51.75 -9.9 52.05 -9.7 52.5 -8.05 53.1 -4.5 53.2 -3.95 52.95 -3.7 52.7 -3.55 52.45 -3.35 52.0 -3.0 50.5 -2.7 49.75 -2.6 46.75 -2.75 45.5 -2.95 45.25 -3.1 44.7 -3.35 43.95 -3.4 43.2 -3.45 42.45 -3.6 41.15 -3.9 40.9 -4.15 40.75 -4.55 Q40.55 -6.0 40.65 -7.5 L40.9 -8.05 41.0 -8.5 40.45 -16.2 40.0 -21.05 39.75 -21.25 39.45 -21.4 39.2 -21.6 39.0 -21.95 38.3 -23.9 37.8 -24.3 36.7 -36.65 36.4 -36.9 36.2 -37.25 36.05 -37.45 35.85 -37.5 35.7 -39.7 35.3 -46.15 35.75 -46.5 36.2 -46.8 36.7 -47.15 37.45 -47.4 37.9 -47.65 38.4 -48.0 39.9 -48.5 40.6 -48.7" fill="#ffff99" fill-opacity="0.2" fill-rule="evenodd" stroke="none"/>
    <path d="M1.4 -47.3 L1.7 -47.1 1.75 -46.9 1.95 -46.75 2.25 -46.45 1.75 -46.05 0.3 -45.55 -1.15 -45.0 -2.4 -44.5 -2.6 -44.4 -2.9 -44.1 -3.35 -43.75 -3.85 -43.55 -4.05 -43.3 -4.55 -42.9 -8.25 -42.4 -12.0 -42.85 -14.85 -43.8 Q-15.85 -44.8 -17.2 -45.3 -18.65 -45.9 -19.95 -46.75 L-21.85 -47.6 -22.65 -47.9 -23.15 -48.25 -23.2 -48.35 -23.45 -48.55 -23.95 -48.85 -24.7 -49.1 -25.5 -49.4 -26.35 -50.05 -27.1 -50.7 Q-27.55 -51.15 -28.15 -51.35 L-30.15 -52.4 -30.7 -52.7 Q-29.15 -53.6 -27.25 -53.45 -25.65 -53.3 -24.15 -52.6 L-21.4 -51.45 -20.85 -51.0 -20.3 -50.6 -19.5 -50.15 -18.0 -49.55 -17.25 -49.25 -16.7 -48.9 -16.15 -48.6 -15.4 -48.3 -14.65 -48.0 -14.15 -47.8 -13.85 -47.7 -13.35 -47.3 -12.5 -46.85 -11.05 -46.15 -9.7 -45.55 -9.5 -45.55 -9.0 -45.85 -8.25 -46.05 -7.75 -46.15 -7.55 -46.25 -7.05 -46.65 -6.55 -46.8 -6.3 -46.85 -5.85 -47.2 -2.85 -47.65 -0.6 -47.65 1.4 -47.3" fill="#ffff99" fill-opacity="0.2" fill-rule="evenodd" stroke="none"/>
    <path d="M-32.05 51.95 L-27.8 52.45 -27.25 52.7 -26.5 52.8 -26.0 52.95 -25.75 53.0 -25.65 53.25 -25.95 53.7 -33.4 54.45 -40.95 54.45 Q-43.7 54.45 -46.0 53.4 L-45.5 53.05 -38.8 52.15 -32.05 51.95" fill="#ffff99" fill-opacity="0.2" fill-rule="evenodd" stroke="none"/>
    <path d="M1.9 54.5 L1.95 54.65 2.15 54.85 2.25 55.0 1.95 55.4 1.2 55.8 0.5 56.05 0.25 56.15 -1.25 56.1 -2.75 56.0 -3.55 55.85 -4.55 55.45 -6.1 54.85 -7.4 54.3 -7.65 54.2 -7.9 53.9 -8.2 53.5 -9.85 52.2 -11.5 50.85 -13.5 49.1 -13.75 48.75 -14.05 48.2 -15.15 47.5 -15.9 47.15 -16.4 46.95 -16.65 46.85 -17.2 46.6 -17.95 46.45 -18.7 46.25 -19.2 46.15 -20.0 45.75 -21.55 45.15 -22.75 44.7 -23.1 44.55 -23.35 44.45 -23.1 43.9 Q-22.25 43.3 -21.15 43.25 L-18.9 43.25 -17.4 43.6 -16.8 44.0 -15.35 44.5 Q-14.55 44.75 -13.75 45.15 L-11.5 45.7 -9.2 46.25 -7.65 46.7 -7.2 46.9 -6.85 47.1 -6.35 47.45 -5.85 47.8 -4.0 49.6 -2.4 50.75 0.0 52.3 0.3 52.65 0.75 53.15 1.05 53.5 1.35 53.65 1.55 53.8 1.8 54.1 1.9 54.5" fill="#ffff99" fill-opacity="0.2" fill-rule="evenodd" stroke="none"/>
    <path d="M41.2 51.5 L41.75 51.75 42.25 51.95 42.5 52.05 42.6 52.3 42.3 52.75 21.3 53.55 Q10.8 53.4 0.35 53.85 L-10.2 53.15 9.7 51.6 Q19.85 51.05 29.95 51.25 L40.95 51.4 41.2 51.5" fill="#ffff99" fill-opacity="0.2" fill-rule="evenodd" stroke="none"/>
    <path d="M1.25 -49.45 Q2.85 -50.25 4.7 -50.2 L7.75 -49.65 10.05 -48.8 11.1 -48.15 11.9 -47.7 12.65 -47.35 13.15 -47.15 13.4 -46.9 13.7 -46.65 14.2 -46.25 18.15 -45.0 21.15 -43.9 22.7 -43.25 23.2 -42.9 23.75 -42.55 23.95 -42.15 24.6 -41.0 25.1 -40.6 25.05 -40.45 24.65 -40.05 24.15 -39.75 24.7 -39.6 24.9 -39.5 25.5 -39.15 26.0 -38.9 26.25 -38.6 26.75 -38.25 27.15 -37.8 27.05 -37.55 26.8 -37.3 26.35 -36.9 25.15 -36.65 23.9 -36.4 22.4 -36.35 21.9 -36.5 21.35 -36.65 20.6 -36.8 20.15 -37.05 19.85 -37.25 19.3 -37.65 18.8 -37.85 18.55 -37.95 16.0 -39.5 12.85 -40.9 10.0 -42.0 9.75 -42.3 9.45 -42.7 9.2 -43.15 8.65 -43.45 7.9 -43.85 7.35 -44.1 7.1 -44.2 6.85 -44.5 6.55 -44.8 6.3 -45.1 5.75 -45.55 4.25 -46.45 3.15 -47.25 2.6 -47.65 2.55 -48.45 2.55 -48.65 Q2.4 -48.75 2.3 -48.8 L1.8 -49.15 1.45 -49.4 1.25 -49.45" fill="#ffff99" fill-opacity="0.2" fill-rule="evenodd" stroke="none"/>
    <path d="M3.8 37.75 L4.2 38.05 4.6 38.35 4.55 38.65 4.4 38.85 2.2 39.5 -0.9 39.95 -4.5 39.85 -8.2 39.5 Q-9.65 39.35 -10.8 38.45 L-12.15 38.2 -13.0 37.9 -13.45 37.7 -13.85 37.4 -14.65 36.85 Q-17.05 35.65 -19.85 36.3 -28.4 38.25 -35.0 35.3 -20.35 31.45 -4.9 32.8 L-2.15 33.15 -1.75 33.45 -1.35 33.75 -0.55 34.55 1.0 35.75 3.4 37.5 3.8 37.75" fill="#333333" fill-opacity="0.2" fill-rule="evenodd" stroke="none"/>
    <path d="M4.85 0.3 L5.85 -0.3 Q11.75 -1.7 17.85 -1.05 L29.9 -0.25 Q33.1 -0.15 36.0 1.2 L37.05 2.0 40.1 2.45 43.1 3.05 46.2 3.95 47.25 4.65 47.15 4.95 46.3 5.85 Q42.65 6.8 38.85 6.75 L31.35 6.45 25.3 5.9 17.85 6.4 10.35 6.3 Q7.2 6.25 4.25 5.25 -4.05 4.85 -12.3 4.9 -20.55 4.95 -28.8 4.45 -33.55 4.15 -37.5 2.4 -29.75 -0.25 -21.4 0.75 -15.55 1.45 -9.55 0.85 -2.8 0.25 3.95 0.6 L4.85 0.3" fill="#663300" fill-opacity="0.2" fill-rule="evenodd" stroke="none"/>
    <path d="M3.95 -1.2 L4.75 -2.05 Q16.5 -4.55 28.7 -4.55 L52.65 -4.3 Q58.75 -4.15 64.75 -2.9 L65.8 -2.1 64.85 -1.35 61.9 -0.7 60.4 -0.45 58.9 -0.35 57.4 -0.3 56.7 -0.1 Q56.2 0.55 56.05 1.45 L55.1 2.25 50.65 3.1 47.65 3.25 44.65 3.25 43.75 4.65 42.8 5.45 Q36.15 6.8 29.35 6.6 L17.25 6.0 Q13.55 5.8 10.65 3.95 L10.9 3.35 10.55 2.85 9.55 2.3 9.05 2.1 8.6 1.55 8.45 0.9 5.9 0.3 4.9 0.0 4.5 -0.25 4.2 -0.65 3.85 -0.75 3.95 -1.2" fill="#663300" fill-opacity="0.2" fill-rule="evenodd" stroke="none"/>
    <path d="M4.35 36.25 L5.9 36.65 6.3 37.2 6.5 38.35 5.55 39.0 Q-0.2 41.0 -6.3 41.6 -10.75 42.0 -15.25 41.75 -17.4 41.65 -19.35 40.85 L-19.7 40.3 -19.95 39.2 -19.0 38.5 -20.55 37.75 -21.45 37.2 -21.75 36.95 -22.1 36.85 -22.15 36.45 -22.0 35.75 -21.25 34.95 Q-17.7 33.4 -13.85 33.25 L-7.8 33.75 -6.3 34.1 -4.7 35.0 1.35 35.7 4.35 36.25" fill="#663300" fill-opacity="0.2" fill-rule="evenodd" stroke="none"/>
    <path d="M56.1 -52.2 L56.3 -52.25 56.3 -48.7 55.65 -48.2 55.55 -48.15 56.05 -47.9 Q54.1 -35.8 54.9 -27.75 55.45 -22.45 57.3 -19.0 58.65 -17.3 58.75 -16.55 L59.8 -9.0 60.75 -3.95 62.6 -4.0 70.1 -3.35 71.4 -3.15 71.9 -2.8 72.1 -2.35 72.25 -0.55 72.2 4.95 71.7 5.3 70.95 5.5 70.9 5.55 70.5 5.8 68.4 5.9 68.0 5.9 67.35 5.9 57.7 6.2 57.3 6.45 Q52.7 15.95 57.3 34.85 L58.55 35.7 58.45 37.65 57.9 43.6 56.65 44.35 Q56.05 44.45 55.65 44.85 L54.8 46.05 54.2 49.35 54.45 53.45 53.8 53.9 49.15 54.6 46.3 54.7 45.3 54.65 Q35.25 55.2 25.05 55.0 13.3 54.7 1.6 55.3 L-8.35 55.0 -9.65 55.1 -11.55 55.15 -13.4 54.95 -14.35 54.75 -14.65 54.45 -15.3 53.75 -15.9 53.5 -16.2 53.3 -16.55 53.05 -16.85 52.8 -17.15 52.55 -17.4 52.2 -17.8 50.8 -18.1 50.55 -18.4 50.3 -18.45 50.3 -18.8 51.2 -19.05 51.55 -19.35 51.8 -19.55 52.1 -19.95 53.2 -20.6 53.65 -22.6 54.55 -22.15 54.65 -22.05 54.85 -22.45 55.4 Q-29.0 56.0 -35.6 55.5 L-48.75 54.95 Q-52.5 54.95 -55.35 54.05 L-55.9 53.95 -57.05 53.3 -58.55 52.15 Q-59.05 51.8 -59.65 51.6 L-60.25 51.4 -60.65 50.95 Q-61.2 48.55 -61.35 46.05 L-61.85 37.2 -62.15 37.2 Q-68.95 20.65 -64.25 15.1 -61.35 11.6 -59.8 6.3 L-64.6 6.3 -67.1 6.15 -67.35 6.1 -68.85 5.85 -69.1 5.7 -69.65 5.5 -69.4 5.5 -69.65 3.8 -69.75 3.75 -69.8 0.0 -69.9 -2.2 -72.2 -2.7 -69.5 -2.95 -68.75 -3.1 -67.25 -3.3 -64.65 -3.3 -58.2 -3.7 Q-57.7 -12.1 -59.55 -19.1 -60.9 -24.0 -61.15 -27.45 -61.35 -30.0 -61.05 -31.75 L-60.3 -36.4 -60.3 -41.65 -59.05 -42.4 -57.8 -48.95 -56.85 -49.6 Q-56.0 -50.25 -54.95 -55.25 -41.95 -52.95 -37.0 -49.75 L-35.65 -50.85 -25.5 -56.2 -8.9 -48.0 -2.45 -51.7 -2.05 -52.5 Q0.5 -53.45 3.0 -53.75 L15.55 -48.05 Q23.0 -44.7 24.25 -43.45 39.4 -51.0 56.1 -52.2 M23.8 -31.9 Q17.7 -41.2 16.55 -41.85 L15.05 -42.85 13.9 -44.1 Q13.25 -44.7 9.15 -46.9 L4.85 -49.25 4.8 -49.25 Q0.4 -48.8 -3.25 -46.0 L-2.75 -43.7 -2.35 -40.3 Q-2.2 -37.85 -2.45 -35.3 L-2.55 -35.25 -2.5 -35.15 -2.2 -34.6 -2.05 -32.45 -1.95 -32.05 -1.75 -31.55 -1.45 -31.1 Q-0.15 -26.0 -1.3 -21.3 -2.45 -20.1 -2.1 -18.2 L-2.3 -17.9 -2.55 -17.6 -2.75 -17.25 -2.95 -16.45 -3.2 -16.2 -3.45 -15.95 -3.65 -15.7 -4.25 -13.6 -5.0 -13.25 -5.75 -12.5 -6.2 -12.4 -6.35 -12.55 -6.35 -13.2 -6.0 -13.55 -6.05 -13.7 -6.4 -15.45 -6.15 -15.7 -5.95 -15.95 -5.7 -16.2 -5.5 -16.5 -5.25 -17.25 -5.05 -17.6 -4.8 -17.9 -4.8 -20.4 -4.55 -21.0 Q-4.5 -25.95 -5.45 -31.05 L-5.75 -31.55 -6.05 -32.0 -6.3 -32.25 -7.0 -35.1 -7.3 -35.7 -7.55 -36.25 -7.85 -36.8 -7.9 -37.75 -8.8 -40.3 -9.05 -41.35 -9.2 -41.55 -9.2 -41.85 -9.3 -42.25 -9.5 -42.7 -9.8 -43.3 -9.95 -43.85 -10.1 -43.9 -9.65 -44.2 -9.6 -44.2 -9.65 -44.55 Q-21.1 -49.05 -24.9 -51.1 L-26.45 -52.0 -31.4 -48.35 -30.6 -47.9 -33.3 -46.55 -31.75 -40.8 -31.35 -40.1 -31.65 -39.9 -31.85 -39.75 -32.25 -39.7 -33.75 -40.05 Q-34.6 -40.15 -35.25 -40.65 L-36.65 -41.7 -36.6 -43.1 Q-37.85 -45.35 -39.8 -46.55 L-41.3 -47.7 Q-44.45 -49.75 -47.7 -51.45 -50.55 -44.7 -48.7 -41.75 -46.9 -38.8 -46.55 -36.4 L-46.55 -35.8 -46.65 -27.5 -46.7 -25.0 -46.85 -16.55 -47.0 -4.1 -43.45 -4.1 -43.2 -4.5 -42.95 -4.8 -42.9 -5.05 -42.75 -5.35 -42.25 -5.8 -42.15 -7.45 -41.9 -7.75 -41.65 -8.05 -41.45 -8.35 -41.05 -10.05 -40.85 -10.6 -40.65 -15.0 -40.2 -15.95 -40.0 -16.45 Q-39.45 -19.25 -39.4 -22.1 L-38.9 -22.3 -38.4 -22.4 -37.6 -25.35 -36.65 -22.35 -36.15 -22.25 -35.9 -22.1 Q-35.05 -19.25 -35.0 -16.45 -36.15 -14.25 -35.4 -11.65 L-35.85 -10.6 -36.05 -10.05 -36.45 -8.35 -36.75 -7.75 -36.8 -6.3 -37.25 -5.8 -37.75 -5.35 -37.95 -5.1 -38.2 -4.95 -38.45 -4.8 -38.95 -4.1 -38.75 -4.1 -4.95 -3.65 Q9.1 -3.5 23.2 -3.5 L23.2 -8.0 23.85 -10.1 24.75 -12.25 25.7 -12.35 26.1 -12.1 26.95 -10.1 27.55 -8.0 27.55 -3.55 28.8 -3.55 46.0 -3.7 46.0 -7.85 44.75 -8.75 43.75 -16.55 43.5 -18.25 42.25 -19.1 42.25 -27.7 42.25 -44.55 42.25 -46.5 40.75 -46.15 Q34.1 -41.2 28.4 -40.75 22.7 -40.25 23.8 -31.9 M3.15 -2.05 L-30.65 -2.05 -62.1 -1.85 -62.2 3.35 -62.3 5.05 -59.4 4.95 -59.35 4.7 -58.35 4.9 Q-47.35 4.4 -36.15 4.5 L-2.4 4.7 31.4 4.8 56.8 4.75 59.05 4.15 58.85 4.7 63.2 4.65 63.1 3.6 63.1 -0.15 63.2 -2.2 Q50.1 -1.7 36.9 -1.85 L3.15 -2.05 M47.65 -0.5 L49.9 -0.75 52.1 -0.9 53.5 -0.8 53.55 -0.7 53.4 -0.5 51.15 -0.15 48.95 -0.05 47.4 -0.35 47.65 -0.5 M56.1 4.2 Q52.75 4.4 49.35 4.1 L42.55 3.75 38.9 3.2 Q42.15 2.65 45.55 3.05 L52.3 3.5 56.1 3.9 56.35 4.0 56.1 4.2 M59.1 1.3 L58.9 1.45 50.3 1.75 42.05 1.75 37.4 1.4 45.9 1.05 54.5 1.0 59.0 1.25 59.1 1.3 M42.8 34.85 Q42.6 34.7 42.25 34.7 L42.25 6.4 36.75 6.35 27.35 6.3 Q26.95 13.55 25.05 19.75 L24.9 19.6 23.55 7.55 23.4 6.3 2.95 6.25 -16.05 6.3 -15.6 6.65 -15.15 6.8 -14.95 7.05 -14.6 7.8 Q-12.95 13.55 -14.35 18.55 L-14.7 19.15 -14.95 20.6 -15.05 20.7 -15.0 20.9 -14.7 21.15 -14.35 21.4 -14.05 21.6 -13.75 21.7 Q-12.25 28.25 -13.95 34.6 L-8.7 35.1 Q-5.25 35.5 -2.45 37.4 L-2.45 38.4 -3.1 38.85 -4.0 39.25 -4.95 39.75 -5.9 40.25 Q-9.55 41.3 -13.4 41.1 L-20.9 40.7 Q-23.45 40.55 -25.6 39.4 L-25.3 39.15 -24.65 38.75 -23.7 38.6 -22.8 38.65 -22.15 38.7 -21.85 38.9 -21.2 39.25 -20.3 39.6 -17.45 39.8 -14.65 39.85 -11.85 39.8 -10.9 39.4 -9.95 38.9 -9.35 38.55 -9.35 38.4 -9.95 37.15 Q-12.2 36.25 -14.6 36.2 L-15.0 36.55 -15.95 36.7 -16.85 36.55 -17.25 36.15 -19.35 36.15 Q-21.65 36.15 -23.4 37.4 L-23.25 37.55 -23.7 38.05 -26.55 38.35 -29.35 38.25 Q-30.1 38.15 -30.55 37.65 L-30.9 37.15 Q-25.9 34.35 -19.95 34.4 L-17.75 34.45 Q-18.9 27.95 -19.2 21.75 L-19.35 21.65 -19.4 21.6 -19.2 21.5 -19.2 21.15 -19.35 20.9 -18.75 19.8 -18.8 19.65 -18.55 19.35 -18.3 19.1 -18.1 18.85 -17.85 18.6 Q-18.7 13.35 -18.8 8.0 L-18.3 7.1 -17.9 6.75 -17.25 6.3 -30.8 6.3 -49.55 6.3 Q-58.15 16.85 -54.45 28.15 -50.25 40.9 -50.25 44.8 -50.3 48.65 -50.0 51.2 L-49.65 51.5 Q-49.35 51.75 -49.4 51.9 L-49.95 53.3 -41.85 53.5 -29.65 53.7 -27.65 53.8 -27.5 53.7 -26.85 53.35 -26.85 53.2 -26.75 52.25 -26.55 51.9 -26.25 51.65 -26.0 51.4 -25.6 50.0 -25.3 49.7 -24.95 49.45 -24.35 48.95 -23.7 48.55 -23.1 46.8 -22.45 46.45 -18.7 46.1 -15.9 46.55 -15.75 46.8 -15.75 47.0 -14.65 47.0 Q-13.35 47.05 -12.15 47.5 L-11.95 47.8 -11.55 49.2 -11.2 49.45 -10.9 49.7 -10.6 49.95 -10.3 50.2 -9.95 50.45 -9.65 50.7 -9.45 51.05 -9.05 52.4 -8.7 52.65 -8.45 52.95 -8.05 53.3 -7.45 53.65 -7.3 53.8 12.25 53.1 21.85 53.05 21.95 52.7 Q21.95 52.0 21.5 51.4 L21.0 51.0 Q19.85 46.55 20.2 41.6 L20.05 41.6 20.35 41.25 20.7 40.85 21.6 35.2 Q22.7 33.8 22.7 32.0 22.7 31.0 23.1 30.1 L23.5 29.7 24.0 29.45 24.75 28.45 25.7 28.4 27.0 29.55 27.55 29.75 Q28.5 31.5 28.1 33.7 L27.85 34.2 Q26.0 36.7 26.95 40.15 L26.6 40.5 26.3 40.85 26.0 41.25 Q25.35 45.85 25.2 50.75 L25.35 51.2 25.8 51.55 26.0 52.7 25.75 53.0 35.7 52.8 43.4 53.0 43.5 52.95 44.05 52.9 44.15 52.85 44.65 52.5 44.7 52.0 44.25 50.0 43.6 46.05 Q43.5 45.35 43.75 44.65 L44.15 44.1 44.5 43.8 44.75 37.7 43.5 35.6 42.8 34.85 M4.35 45.85 L4.3 45.75 4.3 45.65 8.0 45.4 11.8 45.95 14.85 46.3 15.35 46.6 13.1 46.8 10.1 46.45 7.05 45.95 6.3 45.85 5.55 45.9 4.8 45.9 4.35 45.85 M3.55 49.1 L3.5 49.0 4.25 48.9 8.75 49.4 13.35 50.15 16.9 50.8 17.15 50.85 17.65 51.15 18.2 51.45 13.85 51.55 Q11.65 50.85 9.35 50.5 L6.6 50.05 6.05 49.75 5.3 49.65 4.55 49.5 3.8 49.3 3.55 49.1 M-40.7 -30.35 L-40.45 -30.5 -40.0 -30.85 -39.25 -30.95 -38.5 -30.85 -37.95 -30.5 -37.8 -30.3 -37.3 -28.5 -36.55 -28.2 -36.0 -27.85 Q-36.25 -27.7 -36.5 -27.65 L-37.25 -27.6 -38.0 -27.7 -38.8 -28.0 -40.05 -28.45 -40.25 -28.65 -40.45 -29.15 -40.6 -29.2 -40.7 -30.35 M-53.45 -0.45 L-47.75 -0.3 -42.1 0.35 -39.1 0.7 -38.85 0.85 -39.05 1.0 Q-41.9 1.25 -44.7 0.95 L-50.4 0.3 -53.7 -0.3 -53.45 -0.45 M-35.75 -1.65 L-35.0 -1.75 -34.0 -1.7 -33.9 -1.65 -33.8 -1.55 -33.85 -1.4 -33.5 -1.3 -33.1 -1.2 -32.85 -1.05 Q-33.45 -0.75 -34.2 -0.8 L-36.1 -1.1 -36.75 -1.35 -35.75 -1.65 M-47.6 2.2 L-49.85 2.5 -52.5 2.45 -54.65 2.15 -52.15 1.9 -49.5 2.1 -47.6 2.2" fill="#333333" fill-rule="evenodd" stroke="none"/>
    <path d="M16.35 -4.5 L35.65 -5.05 52.6 -4.2 Q35.8 -3.1 18.95 -3.25 1.4 -3.4 -16.2 -3.0 L-40.4 -2.75 Q-42.2 -2.75 -44.2 -3.45 L-39.35 -4.2 Q-30.55 -5.2 -21.65 -4.45 L-2.55 -4.4 16.35 -4.5" fill="#333333" fill-rule="evenodd" stroke="none"/>
  </g>
</svg>
