<?xml version="1.0" encoding="UTF-8" standalone="no"?>
<svg xmlns:xlink="http://www.w3.org/1999/xlink" height="82.25px" width="46.95px" xmlns="http://www.w3.org/2000/svg">
  <g transform="matrix(1.0, 0.0, 0.0, 1.0, 23.5, 41.15)">
    <path d="M3.5 -39.8 L4.1 -38.9 4.8 -37.15 4.9 -36.2 4.75 -35.15 4.1 -33.45 3.5 -32.65 3.15 -32.35 3.05 -31.8 Q3.3 -31.3 3.95 -31.1 L4.2 -31.15 4.25 -31.0 4.4 -31.0 4.45 -30.95 4.6 -30.8 Q13.65 -28.5 18.75 -21.1 23.3 -14.45 22.2 -6.65 L21.75 -6.15 21.3 -6.0 20.55 -6.5 Q20.05 -8.15 20.35 -9.7 21.2 -14.0 18.7 -17.45 14.4 -26.8 3.95 -29.9 2.55 -29.85 1.35 -31.05 1.05 -31.7 1.35 -32.2 L1.45 -32.3 1.5 -32.4 1.5 -32.5 1.5 -32.7 1.95 -33.25 2.1 -33.4 2.45 -33.7 Q3.5 -34.75 3.5 -36.2 3.5 -37.65 2.45 -38.65 1.4 -39.7 -0.05 -39.7 -1.5 -39.7 -2.55 -38.65 -3.6 -37.65 -3.6 -36.2 -3.6 -34.75 -2.55 -33.7 L-1.85 -33.2 -1.65 -32.8 -1.65 -32.75 -1.6 -32.65 -1.6 -32.55 -1.55 -32.5 -1.55 -32.45 -1.55 -32.3 -1.55 -32.2 -1.45 -31.9 -1.55 -31.45 Q-3.0 -29.9 -4.85 -29.8 -14.9 -26.55 -19.15 -17.45 -21.65 -14.0 -20.8 -9.7 -20.5 -8.15 -21.0 -6.5 L-21.75 -6.0 -22.2 -6.15 -22.65 -6.65 Q-23.75 -14.45 -19.2 -21.1 -14.75 -27.5 -7.3 -30.1 -6.55 -30.6 -5.8 -30.75 L-4.7 -31.0 -4.7 -31.15 -4.45 -31.15 Q-3.9 -31.45 -3.4 -31.95 L-3.3 -32.45 -3.55 -32.7 -4.3 -33.55 -4.6 -34.3 -4.8 -36.0 Q-4.9 -37.15 -4.55 -38.05 L-3.6 -39.75 -2.75 -40.3 -1.05 -41.1 -0.1 -41.15 1.1 -41.0 2.45 -40.45 3.5 -39.8 M0.0 -31.25 L0.0 -31.3 0.0 -31.2 0.0 -31.25" fill="#333333" fill-rule="evenodd" stroke="none"/>
    <path d="M6.75 -9.0 L7.6 -9.25 8.75 -9.5 11.75 -9.5 12.75 -9.25 13.25 -9.0 14.25 -8.75 14.85 -8.4 Q15.0 -8.25 15.15 -8.25 L17.75 -7.75 20.75 -7.25 21.35 -6.9 21.6 -6.5 21.85 -6.15 22.0 -5.75 22.1 -5.4 22.1 -5.0 22.1 -4.65 22.25 -4.3 22.45 -3.85 22.6 -3.5 22.6 -3.15 22.6 -2.75 22.5 -2.4 22.25 -2.0 22.0 -1.65 21.85 -1.25 21.75 -0.9 21.6 -0.5 21.5 -0.15 21.25 0.6 21.1 1.0 21.2 1.35 21.5 1.75 21.75 2.1 21.85 2.5 22.0 2.85 22.1 3.25 22.1 3.6 22.1 4.0 22.0 4.35 21.85 4.75 21.75 5.1 21.6 5.5 21.6 5.85 21.6 6.25 21.5 6.6 21.35 7.0 21.25 7.35 21.1 7.75 21.0 8.1 20.75 8.5 20.6 8.85 20.35 9.25 20.1 9.6 20.0 10.0 19.85 10.35 19.75 10.75 19.6 11.1 19.35 11.85 19.25 12.25 19.0 12.6 19.0 13.0 19.0 13.75 19.0 14.5 19.0 14.85 19.0 15.25 19.0 15.6 19.0 16.0 19.0 16.75 19.0 17.1 18.85 17.5 18.75 17.85 18.65 18.25 18.6 18.6 18.55 19.0 18.5 19.4 18.35 19.75 18.1 20.15 18.1 20.5 18.1 20.9 18.1 21.25 18.1 21.65 18.0 22.0 17.85 22.4 17.75 22.75 17.6 23.15 17.35 23.9 17.25 24.25 17.1 24.65 17.1 25.0 17.1 25.4 17.1 25.75 17.1 26.15 17.1 26.5 17.0 26.9 16.85 27.25 16.75 27.65 16.6 28.0 16.6 28.4 16.6 28.75 16.45 29.1 16.25 29.5 16.0 29.9 16.0 30.25 16.0 30.65 16.0 31.0 16.0 31.4 16.0 32.15 16.0 32.5 16.0 32.9 16.0 33.25 16.0 33.65 15.85 34.0 15.75 34.4 15.6 34.75 15.6 35.15 15.6 35.5 15.6 35.9 15.6 36.25 15.5 37.0 15.35 37.4 15.25 37.75 15.1 38.1 14.75 38.55 14.5 38.85 14.1 39.25 13.75 39.5 13.5 39.6 8.75 40.3 6.75 40.75 -2.25 40.75 -3.25 40.5 -3.75 40.25 -9.25 40.25 -11.25 40.25 -12.25 40.0 -12.9 39.65 -13.25 39.25 -13.5 38.9 -13.8 38.7 -14.75 38.4 -15.25 38.0 -15.65 37.65 -16.0 37.25 -16.35 36.85 -16.5 36.5 -16.55 36.15 -16.65 35.75 -16.9 35.4 -17.0 35.0 -17.1 34.3 -17.15 33.15 -17.15 32.75 -17.15 32.4 -17.15 32.0 -17.15 30.9 -17.15 29.4 -17.0 29.0 -16.9 28.65 -16.95 28.25 -17.0 27.9 -17.15 27.5 -17.25 27.15 -17.4 26.75 -17.5 26.4 -17.5 26.0 -17.5 25.65 -17.5 25.25 -17.5 24.9 -17.65 24.5 -17.75 24.1 -17.8 23.75 -17.9 23.4 -18.0 23.0 -18.0 22.65 -18.0 22.25 -18.0 21.9 -18.0 21.5 -18.0 21.15 -18.0 20.75 -18.6 18.1 -19.35 13.65 Q-19.95 9.85 -20.95 6.1 -21.7 3.2 -21.55 0.1 L-21.7 -0.25 -21.9 -0.65 -22.05 -1.0 -22.05 -1.4 -22.2 -1.75 -22.4 -2.15 -22.5 -2.5 -22.55 -2.9 -22.55 -3.25 -22.55 -3.65 -22.55 -4.4 -22.55 -4.75 -22.55 -5.15 -22.4 -5.5 -22.15 -5.85 -21.75 -6.25 -21.25 -6.6 -20.0 -7.25 -16.75 -7.65 -8.25 -8.15 -7.25 -8.4 4.6 -8.4 5.25 -8.6 6.75 -9.0" fill="#bda775" fill-rule="evenodd" stroke="none"/>
    <path d="M17.85 1.45 L18.15 1.65 18.35 1.85 18.45 1.85 18.85 1.85 19.45 1.7 19.65 1.5 19.95 1.4 20.35 1.35 20.85 1.45 21.15 1.65 21.35 1.85 21.4 2.0 21.55 2.2 21.55 2.4 21.6 2.95 21.6 3.5 21.6 3.9 21.6 4.45 21.6 4.85 21.5 5.0 21.4 5.2 21.35 5.4 21.3 5.6 21.2 5.75 21.15 5.95 21.0 6.15 20.7 6.5 20.7 6.65 20.8 6.85 20.85 7.0 20.8 7.2 20.75 7.4 20.65 7.55 20.55 7.7 20.4 7.75 20.1 7.9 19.95 8.1 19.7 8.25 19.35 8.4 18.6 8.4 18.15 8.25 17.85 8.1 17.8 8.05 17.6 8.1 15.1 8.1 14.55 8.05 4.5 7.65 -1.15 7.65 -17.75 8.35 -18.75 8.35 -19.3 8.25 -20.25 8.05 -20.8 7.95 -21.05 7.75 -21.25 7.6 -21.35 7.4 -21.45 7.2 -21.5 7.0 -21.5 6.85 -21.5 6.65 -21.45 6.45 -21.55 6.25 -21.7 6.1 -21.75 5.9 -21.75 5.7 -21.75 5.35 -21.75 5.15 -21.75 4.95 -21.75 4.75 -21.65 4.6 -21.55 4.4 -21.4 4.2 -21.25 4.0 -21.25 3.85 -21.3 3.65 -21.3 3.25 -21.3 2.9 -21.3 2.7 -21.3 2.5 -21.25 2.35 -21.1 2.15 -21.0 1.95 -20.8 1.75 -20.55 1.65 -20.35 1.6 -20.0 1.5 -19.5 1.65 -13.8 1.65 -13.25 1.55 -0.25 1.1 15.6 1.1 16.1 1.2 16.4 1.4 16.55 1.4 16.7 1.4 17.1 1.35 17.35 1.35 17.85 1.45 M17.15 26.65 L17.35 26.85 17.4 27.05 17.55 27.2 17.6 27.4 17.6 27.6 17.6 27.8 17.6 27.95 17.55 28.15 17.45 28.35 17.35 28.55 17.2 28.7 17.1 28.9 17.05 29.1 16.95 29.3 16.9 29.45 16.9 29.65 16.95 29.85 17.05 30.05 17.1 30.25 17.1 30.4 17.05 30.6 16.95 30.8 16.9 30.95 16.8 31.15 16.55 31.35 16.4 31.45 11.65 32.0 11.1 32.1 3.5 32.6 -1.0 32.6 -15.5 31.8 -16.0 31.65 -16.3 31.45 -16.5 31.3 -16.6 31.1 -16.7 30.9 -16.75 30.7 -16.85 30.55 -16.95 30.35 -17.15 30.0 -17.35 29.6 -17.4 29.4 -17.4 28.85 -17.45 28.1 -17.5 27.55 -17.4 27.35 -17.3 27.15 -17.1 26.95 -16.95 26.8 -16.6 26.65 -16.25 26.6 -15.75 26.6 -13.5 26.9 -13.0 26.95 8.1 27.2 16.35 26.35 16.85 26.45 17.15 26.65" fill="#a28c88" fill-rule="evenodd" stroke="none"/>
    <path d="M1.0 5.75 L1.35 6.15 1.5 6.5 1.55 6.85 1.5 7.25 1.4 7.6 1.0 8.0 0.65 8.35 0.65 8.75 0.65 9.1 0.65 9.5 0.5 9.85 0.25 10.2 -0.4 10.95 -0.85 11.35 -1.75 11.7 Q-3.8 12.3 -5.85 12.5 L-6.0 12.85 -6.25 13.25 -6.75 13.6 -6.7 13.95 -6.5 14.35 -6.4 14.75 -6.35 15.1 -6.35 15.5 -6.4 15.85 -6.5 16.25 -6.65 16.6 -7.0 17.0 -7.75 17.25 -8.75 17.25 -9.6 16.95 -10.25 16.75 -11.1 16.5 -11.5 16.1 -11.85 15.7 -12.1 15.35 -12.1 15.0 -12.1 14.6 -12.1 13.85 -12.1 13.1 -12.1 12.75 -12.05 12.4 -11.85 12.0 -12.75 11.75 -13.65 11.5 -13.9 11.1 -14.15 10.75 -14.15 10.35 -14.25 10.0 -14.25 9.85 -16.25 9.6 -17.0 9.35 -17.35 8.95 -17.5 8.6 -17.5 8.25 -17.45 7.9 -17.1 7.5 -16.75 7.25 -16.25 7.15 -13.25 7.0 -12.5 7.25 -12.1 7.6 -11.5 7.75 -11.35 7.65 -10.75 7.5 -10.25 7.5 -9.5 7.75 -9.0 8.1 -8.75 8.25 -5.75 8.5 -5.0 8.75 -4.75 8.85 -4.65 8.6 -4.6 8.25 -4.6 7.85 -4.35 7.5 -4.15 7.1 -3.95 6.75 -3.75 6.35 -3.35 6.1 -2.75 6.0 -2.0 6.0 -1.6 5.75 -0.75 5.55 -0.75 5.5 0.25 5.5 1.0 5.75" fill="#663300" fill-opacity="0.2" fill-rule="evenodd" stroke="none"/>
    <path d="M10.15 10.1 L9.9 10.2 8.9 10.5 8.4 10.85 8.15 11.1 7.25 11.25 3.75 11.35 2.9 11.1 2.5 10.75 2.15 10.35 1.9 10.0 1.4 10.25 0.6 10.55 -0.25 10.85 -1.75 10.85 -2.6 10.6 -2.85 10.85 -3.15 11.2 -3.95 12.05 -4.1 12.35 -4.1 12.65 -3.5 13.1 -3.15 13.5 -2.9 13.85 -2.75 14.25 -2.75 14.6 -2.8 15.0 -2.85 15.35 -2.85 15.75 -2.85 16.1 -3.1 16.5 -3.35 16.85 -3.65 17.05 -4.25 17.2 -4.75 17.25 -5.6 16.95 -6.6 16.6 -7.0 16.2 -7.2 15.85 -7.25 15.5 -7.25 15.1 -7.3 14.95 -8.1 14.6 -8.5 14.25 -12.75 13.85 -13.65 13.6 -14.0 13.25 -14.75 12.5 -15.75 11.35 -15.75 11.0 -15.75 10.6 -15.75 10.25 -15.8 9.85 -16.0 9.45 -16.15 9.1 -16.15 8.75 -16.05 8.35 -15.9 8.0 -15.75 7.6 -15.65 7.25 -15.35 6.85 -15.15 6.6 -14.85 6.5 -14.25 6.35 -13.5 6.6 -13.0 6.95 -12.65 7.1 -12.4 6.85 -12.1 6.6 -11.85 6.5 -11.25 6.35 -10.65 6.5 -9.85 6.7 -9.25 6.85 -8.75 6.75 -8.25 6.6 -7.5 6.5 -7.0 6.2 -6.85 6.1 -6.25 6.0 -5.75 6.0 -5.0 6.3 Q-4.85 6.35 -4.75 6.5 L-4.35 6.45 -3.75 6.4 -3.25 6.35 -2.5 6.6 -2.0 7.0 -1.6 7.35 -1.35 7.6 -1.25 7.65 -0.25 7.6 0.25 7.25 0.65 7.0 1.25 6.85 1.9 6.6 2.25 6.25 2.65 6.0 3.25 5.9 3.25 5.85 4.0 6.1 4.35 6.5 4.65 6.85 4.75 7.25 4.75 7.6 4.75 8.0 4.75 8.1 6.9 8.1 7.6 7.7 8.5 6.95 8.9 6.6 9.75 6.35 11.25 5.85 12.0 6.1 12.35 6.5 12.6 6.85 12.75 7.25 12.7 7.6 12.55 8.0 12.4 8.35 12.0 8.7 11.5 9.1 10.65 9.5 10.35 9.85 10.15 10.1" fill="#663300" fill-opacity="0.2" fill-rule="evenodd" stroke="none"/>
    <path d="M7.9 30.0 Q11.75 28.75 15.5 30.1 L15.85 30.5 16.1 30.9 16.25 31.25 16.2 31.6 16.05 32.0 15.85 32.35 15.65 32.6 14.9 32.8 11.65 33.25 11.25 33.6 10.9 33.85 7.0 34.1 6.25 34.5 5.9 34.75 4.9 35.25 4.25 35.35 3.25 35.35 2.4 35.1 2.05 34.75 1.8 34.35 1.75 34.1 1.75 34.05 -0.85 34.1 -1.55 34.9 -2.0 35.6 -2.25 36.0 -2.6 36.35 -3.0 36.75 -3.5 37.1 -4.25 37.35 -5.1 37.1 -5.5 36.75 -5.7 36.35 -5.75 36.0 -5.75 35.6 -5.8 35.45 -6.25 35.35 -7.1 35.1 -7.45 34.75 -7.6 34.5 -7.65 34.45 -8.25 34.35 -10.25 34.35 -11.1 34.1 -11.65 33.75 -12.1 33.5 -13.25 33.35 -14.15 33.1 -14.65 32.75 -15.25 32.35 -15.6 32.0 -15.9 31.6 -16.05 31.2 -16.15 30.85 -16.05 30.5 -15.9 30.1 -15.65 29.75 -14.75 29.5 -14.0 29.75 -13.5 30.1 -12.25 30.4 -11.25 30.6 -10.75 30.6 -11.1 30.25 -11.3 29.85 -11.35 29.5 -11.35 29.1 -11.2 28.75 -11.0 28.4 -10.6 28.0 -9.75 27.8 -9.75 27.75 -9.25 27.75 -8.6 27.85 -8.15 28.0 -7.85 28.1 1.15 29.15 2.4 29.35 7.25 30.0 7.9 30.0" fill="#663300" fill-opacity="0.2" fill-rule="evenodd" stroke="none"/>
    <path d="M1.15 29.85 L1.75 30.25 2.0 30.65 2.15 31.0 2.2 31.35 2.15 31.75 2.0 32.1 1.75 32.5 1.15 32.85 -2.35 33.35 -2.6 33.75 -2.75 34.1 -3.0 34.5 -3.25 34.85 -3.75 35.25 -4.1 35.5 -4.75 35.6 -5.25 35.6 -6.1 35.35 -6.6 35.0 -6.85 34.6 -9.75 33.95 -10.6 33.75 -11.0 33.35 -11.2 33.0 -11.35 32.6 -11.4 32.25 -11.5 31.9 -11.75 31.5 -11.65 31.15 -11.35 30.75 -11.25 30.35 -11.1 30.0 -10.85 29.6 -10.6 29.25 -9.75 29.05 -9.75 29.0 -9.0 29.25 -8.6 29.6 -8.5 30.0 -8.35 30.35 -8.25 30.5 -5.85 30.5 -5.35 30.25 -4.75 30.1 -2.25 29.6 0.25 29.6 1.15 29.85" fill="#663300" fill-opacity="0.2" fill-rule="evenodd" stroke="none"/>
    <path d="M11.65 24.1 L11.9 24.5 12.0 24.85 12.15 25.25 12.25 25.6 12.25 26.0 12.15 26.35 12.0 26.75 11.75 27.1 11.0 27.75 10.15 28.0 9.25 28.2 7.75 28.35 6.65 28.1 6.0 27.75 5.5 27.35 5.15 27.5 0.25 27.75 -0.6 27.45 -1.35 27.15 -2.25 26.75 -3.1 26.5 -3.85 26.5 -4.35 26.9 -4.75 27.2 -5.1 27.5 -6.0 27.6 -6.35 27.85 -6.65 27.95 -7.25 28.1 -9.1 28.25 -9.75 28.65 -10.0 28.85 -10.25 28.95 -10.75 29.1 -11.25 29.1 -12.5 29.1 -12.75 29.2 -13.25 29.35 -13.9 29.1 -14.2 28.7 -14.25 28.35 -14.3 28.2 -14.75 28.0 -15.65 27.75 -16.0 27.35 -16.25 27.0 -16.4 26.6 -16.4 26.25 -16.3 25.9 -16.1 25.5 -15.4 24.85 -14.75 24.8 -8.5 24.5 -8.35 24.15 -8.15 23.75 -8.0 23.35 -7.95 23.0 -7.85 22.65 -7.6 22.25 -7.1 21.85 -6.35 21.65 -5.75 21.5 -5.25 21.5 -4.35 21.75 -3.6 21.75 -2.85 21.35 -2.1 21.0 -1.6 20.75 -1.35 20.65 -0.75 20.55 -0.75 20.5 2.25 20.5 3.15 20.75 3.65 21.1 3.85 21.5 4.0 21.85 4.1 22.25 4.15 22.6 4.15 22.85 4.25 22.95 4.9 23.1 5.15 23.1 5.75 23.05 6.75 23.0 7.65 23.25 8.15 23.6 9.4 23.75 9.65 23.65 10.25 23.5 11.15 23.75 11.65 24.1" fill="#663300" fill-opacity="0.2" fill-rule="evenodd" stroke="none"/>
    <path d="M14.9 28.6 L7.25 28.75 6.4 28.5 5.9 28.15 5.65 28.0 5.4 28.1 4.4 28.35 4.0 28.7 3.65 29.0 3.4 29.1 2.75 29.2 2.25 29.25 1.4 28.95 0.65 28.6 0.0 28.25 -0.35 27.85 -1.1 27.5 -1.6 27.65 -2.35 27.9 -3.6 28.5 -4.6 28.75 -4.75 29.1 -4.95 29.5 -5.15 29.85 -5.35 30.1 -5.65 30.2 -6.25 30.35 -7.25 30.35 -8.75 29.9 -11.1 29.25 -11.6 28.85 -12.1 28.5 -12.35 28.1 -12.5 27.75 -12.5 27.35 -12.45 27.0 -12.4 26.6 -12.1 26.25 -11.6 25.85 -10.75 25.6 -5.6 25.35 -4.5 25.0 -4.0 24.6 -3.75 24.25 -3.35 23.85 -3.0 23.5 -2.6 23.25 -2.35 23.15 -1.75 23.05 -0.75 23.0 0.15 23.25 0.65 23.6 0.9 23.95 1.25 24.35 1.75 24.5 2.25 24.25 2.65 23.85 Q3.0 23.7 3.4 23.5 L3.4 23.1 3.4 22.75 3.4 22.35 3.4 21.6 3.5 21.25 3.7 20.9 4.0 20.5 4.4 20.15 4.9 19.75 5.75 19.55 5.75 19.5 6.25 19.5 7.15 19.75 7.65 20.1 7.85 20.5 8.0 20.85 8.1 21.25 8.15 21.6 8.15 22.0 8.15 22.75 8.15 23.1 8.65 23.1 11.75 23.0 12.65 23.25 13.15 23.6 13.4 23.8 14.25 24.0 15.15 24.25 15.65 24.6 15.85 25.0 16.0 25.35 16.1 25.75 16.15 26.1 16.15 26.5 16.15 26.85 16.0 27.25 15.9 27.6 15.7 27.95 15.25 28.35 14.9 28.6" fill="#663300" fill-opacity="0.2" fill-rule="evenodd" stroke="none"/>
    <path d="M18.75 -7.3 L20.75 -7.05 21.25 -6.65 21.45 -6.25 21.65 -5.9 21.85 -5.55 21.85 -4.8 21.85 -3.65 21.85 -2.9 21.85 -2.15 21.85 -1.4 21.85 -0.65 21.8 -0.3 21.6 0.1 21.5 0.5 21.5 0.85 21.5 1.25 21.5 1.6 21.35 2.0 21.25 2.35 21.1 2.75 21.0 3.1 21.0 5.0 21.0 6.5 21.0 8.0 21.0 9.1 21.0 11.75 21.0 12.5 20.85 12.85 20.75 13.25 20.65 13.6 20.6 14.0 20.5 14.35 20.35 14.7 20.1 15.1 19.85 15.85 19.5 17.0 19.4 17.35 19.25 18.1 19.1 18.85 19.0 19.25 18.85 19.6 18.6 20.0 18.35 20.35 18.15 21.1 17.85 22.25 17.75 23.0 17.6 23.75 17.35 24.5 17.25 24.85 17.0 25.25 16.75 25.6 16.5 26.0 16.5 26.35 16.5 26.75 16.5 27.1 16.5 27.5 16.5 27.85 16.5 28.25 16.6 28.6 16.75 29.0 16.85 29.35 17.0 29.75 17.0 30.5 17.0 31.25 17.0 32.0 17.0 32.75 17.0 33.1 17.0 33.85 16.85 34.25 16.6 34.6 16.5 35.0 16.5 35.35 16.5 35.75 16.35 36.1 16.1 36.5 15.45 37.25 15.1 37.6 14.7 38.0 14.25 38.35 13.25 38.6 12.25 38.6 11.75 38.65 11.0 38.75 10.6 39.1 10.25 39.35 9.95 39.45 9.25 39.55 7.0 39.5 6.1 39.6 5.7 40.0 5.25 40.35 4.25 40.6 2.25 40.6 1.25 40.35 0.75 40.0 0.35 39.6 -0.4 38.85 -0.75 38.45 -0.9 38.1 -1.05 37.0 -1.05 35.85 -1.05 34.75 -1.05 34.0 -1.05 33.25 -1.05 32.85 -1.05 31.75 -0.9 31.4 -0.65 31.0 Q-0.45 30.1 -0.5 29.1 L-0.5 27.6 -0.5 26.1 -0.55 25.0 -0.5 22.35 -0.5 21.6 -0.65 21.25 -0.9 20.85 -1.0 20.5 -1.05 20.1 -1.05 19.35 -1.05 19.0 -1.05 18.6 -1.05 18.25 -1.05 17.85 -0.9 17.5 -0.8 17.1 -0.65 16.75 -0.5 16.35 -0.5 14.1 -0.5 12.25 -0.5 10.75 -0.5 8.5 -0.5 5.5 -0.3 4.7 -0.15 3.6 -0.05 2.85 0.0 2.1 0.0 1.35 0.0 0.6 0.2 -0.15 0.4 -0.9 0.6 -1.65 0.85 -2.4 1.0 -2.75 1.1 -3.15 1.5 -3.9 1.85 -4.65 2.4 -5.35 3.1 -6.15 3.5 -6.55 4.25 -6.9 4.75 -7.15 5.0 -7.25 5.75 -7.4 7.7 -7.85 7.75 -7.9 8.25 -7.9 9.25 -7.65 9.7 -7.25 10.1 -6.9 10.5 -6.55 11.5 -6.55 Q11.85 -6.7 12.2 -6.95 L12.75 -7.3 13.25 -7.65 14.25 -7.9 14.75 -7.9 15.75 -7.65 16.1 -7.4 18.75 -7.3" fill="#333333" fill-opacity="0.2" fill-rule="evenodd" stroke="none"/>
    <path d="M17.25 -8.8 L17.85 -8.4 18.1 -8.05 18.35 -7.65 18.5 -7.3 18.6 -6.9 18.6 -6.55 18.6 -6.15 18.6 -5.8 18.7 -5.45 19.1 -5.0 19.7 -4.25 20.0 -3.9 20.05 -3.5 20.1 -2.75 20.1 -1.65 20.1 -0.15 20.0 0.25 19.85 0.6 19.75 1.0 19.5 1.35 19.35 1.75 19.25 2.1 19.0 2.5 18.5 3.25 17.9 4.4 17.25 5.5 17.05 10.0 16.85 15.6 Q16.6 18.2 16.6 20.85 L16.45 21.6 16.0 23.15 15.5 24.6 15.1 25.75 15.1 26.1 15.1 27.25 15.1 28.75 15.1 29.85 14.85 30.6 14.25 32.5 13.85 34.0 13.5 35.1 13.25 35.5 13.0 35.85 12.75 36.25 12.6 36.6 12.5 37.0 12.35 37.35 12.1 37.75 11.85 38.1 10.95 38.85 10.5 39.1 9.75 39.2 8.75 39.3 8.0 39.35 7.5 39.6 1.25 39.75 0.25 39.5 -0.4 39.1 -0.65 38.85 -1.25 38.75 -2.3 38.5 -2.9 38.1 -4.05 38.35 -4.55 38.6 -5.3 38.75 -6.3 38.5 -6.9 38.1 -7.25 37.75 -7.55 37.35 -7.6 37.0 -7.65 36.6 -7.65 35.85 -7.65 35.1 -7.8 34.75 -8.05 34.35 -8.15 34.0 -8.3 33.6 -8.4 33.25 -8.55 32.85 -8.65 32.5 -8.65 27.25 Q-8.65 23.85 -8.8 20.5 -8.95 17.4 -8.15 14.5 L-8.8 11.45 Q-9.25 9.65 -9.2 7.75 L-9.15 3.6 -9.15 3.25 -8.75 2.5 -7.6 0.65 -6.65 -0.9 -6.4 -1.25 -6.3 -1.65 -6.25 -2.0 -6.15 -2.4 -6.0 -2.75 -5.8 -3.15 -5.65 -3.55 -5.55 -3.9 -5.4 -4.3 -5.15 -4.65 -4.8 -5.05 -4.3 -5.3 -4.0 -5.4 -3.3 -5.65 -2.75 -6.0 -2.3 -6.3 0.75 -6.95 4.75 -7.55 5.75 -7.55 12.75 -6.8 13.4 -6.45 13.75 -6.4 13.85 -6.8 13.9 -7.15 14.0 -7.55 14.25 -7.9 14.5 -8.3 15.0 -8.65 15.5 -8.9 16.2 -8.95 16.25 -9.05 17.25 -8.8" fill="#333333" fill-opacity="0.2" fill-rule="evenodd" stroke="none"/>
    <path d="M21.1 8.8 L21.15 8.95 21.15 9.15 21.1 9.35 21.05 9.55 20.85 9.7 20.65 9.85 -8.0 9.9 -8.5 9.9 -13.15 9.9 -13.65 10.05 -14.0 10.05 -16.15 10.1 -16.65 10.2 -17.0 10.25 -21.0 10.3 -21.5 10.15 -21.75 9.95 -21.85 9.75 -21.85 9.6 -21.85 9.4 -21.75 9.2 -21.5 9.05 -21.0 8.9 -16.8 8.85 -16.4 8.7 -16.0 8.6 -13.8 8.55 -13.3 8.4 -13.0 8.35 -9.0 8.3 -8.0 8.3 20.35 8.3 20.7 8.4 20.95 8.6 21.1 8.8" fill="#333333" fill-opacity="0.2" fill-rule="evenodd" stroke="none"/>
    <path d="M16.85 31.4 L17.3 31.55 17.55 31.75 17.65 31.9 17.7 32.1 17.75 32.3 17.75 32.5 17.7 32.65 17.6 32.85 17.45 33.05 17.1 33.25 16.8 33.4 14.1 33.8 12.6 34.05 -5.75 34.05 -13.75 33.45 -14.25 33.35 -15.0 33.15 -15.3 33.1 -15.4 33.1 -15.75 33.15 -16.15 33.05 -16.35 32.85 -16.45 32.65 -16.55 32.5 -16.55 32.3 -16.5 32.1 -16.4 31.95 -16.25 31.75 -16.05 31.55 -15.9 31.4 -15.8 31.4 -15.5 31.35 -15.5 31.3 -14.5 31.5 -14.0 31.6 -12.65 31.8 -12.15 31.9 -6.0 31.9 -5.55 32.05 12.4 32.05 14.6 31.7 16.35 31.4 16.85 31.4" fill="#333333" fill-opacity="0.2" fill-rule="evenodd" stroke="none"/>
    <path d="M-14.8 -5.65 L-14.8 -5.3 -14.7 -4.9 -14.65 -4.55 -14.65 -4.35 -14.9 -4.55 -14.95 -4.7 -15.05 -5.1 -15.1 -5.3 -15.05 -3.55 -14.9 -1.3 -14.8 0.6 -14.6 1.5 Q-14.5 2.15 -14.55 2.85 L-14.55 4.15 -14.6 4.35 -14.75 4.55 -14.75 4.7 -14.75 4.9 -14.85 5.1 -15.05 5.25 -15.25 5.4 -15.5 5.3 -15.65 5.05 -15.75 4.9 -15.75 4.7 -15.8 4.55 -15.9 4.35 -15.9 3.4 -15.95 2.3 -16.15 0.95 -16.25 -1.7 -16.4 -4.65 -16.3 -6.75 -16.2 -6.9 -16.1 -7.1 -15.75 -7.2 -15.75 -7.25 -15.5 -7.15 -15.25 -7.1 -14.95 -6.95 -14.85 -6.8 -14.85 -6.6 -14.9 -6.4 -14.9 -6.25 -14.9 -6.05 -14.85 -5.85 -14.8 -5.65" fill="#333333" fill-opacity="0.2" fill-rule="evenodd" stroke="none"/>
    <path d="M-14.5 8.4 L-14.1 8.55 -13.8 8.7 -13.65 8.9 -13.55 9.1 -13.6 9.25 -13.75 9.45 -13.75 9.65 -13.75 9.85 -13.75 10.2 -13.75 10.6 -13.75 10.8 -13.8 10.95 -13.85 11.15 -13.85 11.35 -13.9 11.55 -14.0 11.7 -14.0 12.45 -14.0 13.6 -14.0 14.9 -14.0 15.1 -14.05 15.3 -14.1 15.45 -14.15 15.85 -14.25 16.2 -14.3 16.4 -14.35 16.6 -14.5 16.8 -14.75 16.95 -14.8 17.15 -14.85 17.35 -14.9 17.55 -15.0 17.7 -15.25 17.85 -15.55 17.7 -15.55 17.55 -15.55 17.35 -15.5 17.15 -15.5 16.95 -15.55 16.8 -15.65 16.6 -15.65 16.4 -15.65 16.2 -15.6 15.85 -15.55 15.45 -15.5 15.3 -15.5 14.35 -15.5 12.85 -15.5 11.35 -15.4 11.15 -15.4 10.95 -15.35 10.8 -15.3 10.6 -15.25 10.4 -15.25 10.2 -15.25 10.05 -15.2 9.65 -15.2 9.3 -15.15 9.1 -15.15 8.9 -15.05 8.7 -14.9 8.55 -14.5 8.45 -14.5 8.4" fill="#333333" fill-opacity="0.2" fill-rule="evenodd" stroke="none"/>
    <path d="M5.45 8.2 L5.7 15.9 Q5.8 20.0 5.45 24.0 L4.95 28.5 4.85 28.85 4.65 29.4 4.4 30.15 4.4 30.35 4.3 30.55 4.2 30.7 4.1 30.9 4.05 31.1 3.95 31.3 3.9 31.5 3.8 31.65 3.7 31.85 3.6 32.05 3.45 32.15 3.4 32.2 3.1 32.35 2.95 32.55 2.85 32.7 2.6 32.85 2.3 32.75 2.3 32.55 2.35 32.35 2.4 32.15 2.45 32.0 2.4 31.8 2.4 31.6 2.4 31.4 2.45 31.25 2.55 31.05 2.65 30.65 2.8 30.5 2.85 30.1 3.0 29.55 3.2 28.8 3.3 28.6 3.85 20.9 4.05 12.85 4.15 8.35 4.25 8.15 4.35 7.95 4.45 7.85 4.6 7.8 4.85 7.75 4.85 7.7 5.15 7.85 5.35 8.05 5.45 8.2" fill="#333333" fill-opacity="0.2" fill-rule="evenodd" stroke="none"/>
    <path d="M10.3 13.15 L10.3 11.45 10.3 9.6 10.3 8.3 10.35 8.1 10.45 7.9 10.85 7.8 11.15 7.9 11.3 8.1 11.4 8.3 11.4 9.8 11.4 11.45 11.4 12.95 11.4 13.15 11.3 13.35 11.25 13.7 11.2 14.3 11.2 14.85 11.1 15.0 10.85 15.15 10.55 15.05 10.5 14.85 10.45 14.45 10.45 14.1 10.45 13.7 10.4 13.55 10.35 13.35 10.3 13.15" fill="#333333" fill-opacity="0.2" fill-rule="evenodd" stroke="none"/>
    <path d="M-4.5 17.7 Q-4.3 17.8 -4.15 17.85 L-4.0 18.05 -3.85 18.2 -3.7 21.95 Q-3.7 24.0 -4.05 25.9 L-4.25 28.35 -4.3 28.55 -4.35 28.9 -4.45 29.3 -4.55 29.65 -4.55 29.85 -4.55 30.05 -4.55 30.2 -4.65 30.4 -4.8 30.6 -4.85 30.8 -4.85 31.0 -4.85 31.15 -5.0 31.35 -5.4 31.4 -5.55 31.2 -5.6 31.05 -5.6 30.85 -5.7 30.65 -5.8 30.5 -5.9 30.3 -5.9 30.1 -5.95 29.75 -5.95 29.35 -6.0 29.0 -5.45 25.05 Q-5.15 23.0 -5.2 20.9 L-5.1 18.3 -5.05 18.1 -4.9 17.9 -4.75 17.8 -4.5 17.75 -4.5 17.7" fill="#333333" fill-opacity="0.2" fill-rule="evenodd" stroke="none"/>
    <path d="M4.6 32.75 L4.9 32.85 5.1 33.05 5.2 33.25 5.2 33.8 5.3 34.55 5.3 35.3 5.3 35.5 5.2 35.65 5.1 35.85 4.9 36.25 4.85 36.4 4.8 36.6 4.8 36.8 4.8 37.15 4.8 37.55 4.7 37.75 4.65 37.9 4.6 38.1 4.45 38.3 4.4 38.5 4.35 38.7 4.3 38.85 4.3 39.05 4.2 39.25 4.1 39.4 3.9 39.6 3.55 39.8 3.4 39.95 3.2 40.0 3.15 39.8 3.1 39.6 3.05 39.4 2.95 39.25 3.0 38.65 3.2 37.95 3.4 37.15 3.4 37.0 3.4 36.8 3.4 36.4 3.45 36.05 3.55 35.85 3.65 35.65 3.75 35.5 3.85 35.3 3.9 34.75 3.9 34.0 3.95 33.25 4.05 33.05 4.2 32.85 4.6 32.75" fill="#333333" fill-opacity="0.2" fill-rule="evenodd" stroke="none"/>
    <path d="M12.6 -4.65 L12.7 -4.65 12.9 -4.5 12.9 -4.3 12.85 -4.1 12.8 -3.9 12.7 -3.75 12.7 -3.15 12.7 -2.6 12.55 -1.85 12.45 -0.55 12.3 0.8 12.3 1.7 12.25 1.9 12.15 2.1 12.1 2.45 12.0 2.85 11.9 3.2 11.8 3.4 11.8 3.6 11.8 3.8 11.8 3.95 11.7 4.1 11.45 4.2 11.4 4.0 11.4 3.85 11.4 3.65 11.4 3.45 11.3 3.25 11.2 3.1 11.35 2.15 11.4 1.0 11.4 0.25 11.6 -0.3 11.65 -1.05 11.65 -1.8 11.7 -2.0 11.85 -2.35 11.9 -2.55 11.95 -2.75 11.95 -2.9 11.95 -3.1 11.95 -3.3 11.95 -3.5 11.95 -3.65 12.05 -3.85 12.1 -4.05 12.15 -4.25 12.2 -4.4 12.35 -4.6 12.6 -4.65" fill="#333333" fill-opacity="0.2" fill-rule="evenodd" stroke="none"/>
    <path d="M5.7 -4.65 L5.9 -4.5 5.85 -4.3 5.8 -4.1 5.8 -3.9 5.8 -3.55 5.8 -3.15 5.85 -3.0 5.8 -2.8 5.8 -2.6 5.7 -2.4 5.65 -2.25 Q5.6 -1.55 5.7 -0.9 L5.7 0.4 5.45 1.35 5.45 1.7 5.45 2.1 5.45 2.65 5.45 2.85 5.4 3.05 5.35 3.2 5.35 3.4 5.35 3.6 5.25 3.75 5.15 3.95 4.85 4.15 4.75 4.3 4.6 4.45 4.45 4.3 4.4 4.15 4.4 3.95 4.35 3.8 4.35 3.6 4.35 3.4 4.3 3.2 4.2 3.05 4.2 2.45 4.2 1.7 4.2 0.95 4.4 -0.15 4.5 -1.3 4.55 -2.25 4.6 -2.4 4.65 -2.6 4.7 -2.8 4.8 -3.0 4.9 -3.15 4.9 -3.35 4.9 -3.55 4.9 -3.75 4.9 -3.9 5.1 -4.3 5.35 -4.55 5.6 -4.65 5.7 -4.65" fill="#333333" fill-opacity="0.2" fill-rule="evenodd" stroke="none"/>
    <path d="M15.4 10.1 L15.45 11.05 14.95 18.0 14.15 25.1 13.3 29.05 13.2 29.2 13.1 29.4 12.95 29.6 12.85 29.8 12.8 30.0 12.7 30.35 12.6 30.75 12.55 30.9 12.4 31.1 12.3 31.2 Q12.2 31.3 12.05 31.35 L11.95 31.55 11.85 31.75 11.8 31.9 11.7 32.05 11.5 32.1 11.45 32.0 11.55 31.8 11.6 31.6 11.7 31.4 11.75 31.25 11.7 31.05 11.65 30.85 11.7 30.65 11.75 30.3 11.85 29.9 11.95 29.55 11.95 29.35 11.95 29.15 11.95 29.0 11.95 28.8 13.3 20.55 14.15 12.3 14.4 7.6 14.55 7.45 14.6 7.45 14.85 7.35 15.15 7.45 15.3 7.65 15.4 8.8 15.4 10.1" fill="#333333" fill-opacity="0.2" fill-rule="evenodd" stroke="none"/>
    <path d="M11.3 -7.6 L11.8 -7.5 14.5 -7.4 15.05 -7.35 21.0 -7.2 21.45 -7.05 22.0 -6.95 22.45 -6.8 22.75 -6.65 23.15 -6.45 23.25 -6.25 23.35 -6.05 23.45 -5.85 23.45 -5.7 23.4 -5.5 23.3 -5.3 23.2 -5.1 22.95 -4.95 22.5 -4.8 22.25 -4.8 21.8 -4.95 21.25 -5.05 20.8 -5.2 16.75 -5.35 16.2 -5.35 11.7 -5.7 11.2 -5.75 -11.25 -5.7 -12.25 -5.65 -14.65 -5.5 -14.9 -5.3 -15.25 -5.2 -16.95 -5.1 -17.2 -5.05 -20.05 -4.8 -21.45 -4.85 -21.75 -4.75 -22.0 -4.7 -22.75 -4.7 -23.0 -4.75 -23.35 -4.85 -23.5 -5.1 -23.5 -5.25 -23.5 -5.4 -23.35 -5.6 -23.1 -5.8 -23.05 -6.0 -22.95 -6.2 -22.75 -6.35 -22.6 -6.5 -22.25 -6.55 -21.25 -6.7 -20.75 -6.8 -18.25 -6.9 -17.85 -6.95 -16.5 -7.1 -15.5 -7.25 -14.5 -7.4 -13.85 -7.5 -13.6 -7.65 -13.25 -7.65 -11.75 -7.85 -11.25 -7.95 -9.1 -8.0 -8.75 -8.05 -7.75 -8.2 -7.75 -8.25 4.0 -8.25 7.5 -8.2 7.95 -8.05 8.45 -7.85 8.7 -7.75 11.0 -7.65 11.3 -7.6" fill="#ffff99" fill-opacity="0.2" fill-rule="evenodd" stroke="none"/>
    <path d="M-12.35 -6.7 L-12.25 -6.5 -12.2 -5.2 -12.25 -3.7 -12.25 -2.55 -12.4 -2.2 -12.5 -1.8 -12.6 -1.45 -12.65 -1.25 -12.75 -1.1 -13.0 -0.95 -13.3 -1.1 -13.4 -1.25 -13.3 -3.1 -13.3 -5.2 -13.25 -6.7 -13.2 -6.85 -13.1 -7.05 -12.8 -7.15 -12.75 -7.2 -12.45 -7.05 -12.4 -6.85 -12.35 -6.7" fill="#ffff99" fill-opacity="0.2" fill-rule="evenodd" stroke="none"/>
    <path d="M-3.4 -3.25 Q-3.2 2.15 -3.15 7.6 L-3.15 23.35 -3.15 36.9 -3.2 37.25 -3.35 37.65 -3.55 38.0 -3.75 38.4 -4.25 38.75 -5.4 39.0 -5.75 39.35 -6.25 39.75 -7.25 40.0 -10.75 40.0 -11.75 39.75 -12.25 39.35 -12.65 39.0 -13.0 38.65 -13.35 38.25 -13.65 37.9 -13.9 37.5 -13.9 37.15 -13.9 36.75 -13.9 36.4 -13.9 36.0 -14.05 35.65 -14.25 35.25 -14.35 34.85 -14.4 34.5 -14.4 34.1 -14.4 33.75 -14.4 33.35 -14.4 33.0 -14.55 32.65 -14.75 32.25 -14.85 31.85 -14.9 31.1 -14.9 30.75 -14.9 30.35 -15.0 29.6 -15.15 28.9 -15.4 28.1 Q-15.3 26.6 -15.5 25.1 L-16.25 19.15 -16.85 12.0 -16.9 9.75 -17.0 9.35 -17.15 9.0 -17.25 8.6 -17.3 8.25 -17.4 7.85 -17.5 7.5 -17.65 6.75 -17.9 6.0 -17.9 5.6 -17.9 5.25 -17.9 4.85 -18.0 4.5 -18.15 4.1 -18.25 3.75 -18.4 3.35 -18.4 3.0 -18.4 2.6 -18.35 2.25 -18.25 1.85 -18.35 1.1 -18.4 0.35 -18.4 -0.4 -18.4 -1.5 -18.35 -3.0 -18.25 -3.4 -18.1 -3.75 -17.95 -4.15 -17.9 -4.5 -17.9 -4.9 -17.85 -5.25 -17.65 -5.65 -17.35 -6.0 -17.0 -6.4 -16.6 -6.75 -16.25 -7.0 -16.0 -7.1 -15.25 -7.3 -14.65 -7.4 -14.15 -7.65 -13.75 -7.9 -13.5 -8.0 -12.75 -8.1 -12.75 -8.15 -11.75 -8.15 -10.9 -7.9 -10.25 -7.65 -9.25 -7.65 -8.25 -7.65 -7.4 -7.4 -6.75 -7.0 -6.4 -6.65 -5.65 -6.25 -5.25 -5.9 -5.0 -5.5 -4.9 -5.15 -4.75 -4.75 -4.35 -4.4 -3.9 -4.0 -3.65 -3.65 -3.4 -3.25" fill="#ffff99" fill-opacity="0.2" fill-rule="evenodd" stroke="none"/>
    <path d="M16.7 -7.8 L19.25 -7.65 22.95 -7.4 22.95 -7.35 23.15 -7.05 23.3 -6.85 23.3 -6.75 23.3 -6.7 23.3 -6.6 23.35 -6.4 23.4 -6.2 23.35 -6.15 23.3 -6.15 22.55 -0.55 21.7 5.25 21.25 8.35 21.25 8.45 21.25 8.55 21.1 9.5 21.0 9.55 20.7 9.95 20.45 12.75 20.4 13.3 20.35 13.3 20.3 13.4 19.9 16.25 19.35 19.5 19.1 21.35 19.05 21.45 18.8 22.4 18.6 22.95 18.6 23.05 18.6 23.7 18.55 24.05 18.55 24.6 18.55 24.9 18.65 25.2 18.55 25.7 18.5 26.0 18.5 26.05 18.55 26.15 18.55 26.2 18.55 26.3 18.55 26.4 18.5 26.5 18.45 26.6 18.4 26.7 18.3 27.2 18.3 27.3 18.2 27.35 18.15 27.45 17.5 31.4 17.55 31.5 17.55 31.6 17.6 31.7 17.6 31.8 17.55 31.9 17.55 31.95 17.5 32.05 17.4 32.15 17.4 32.2 17.25 32.95 16.4 38.8 16.3 39.45 16.35 39.55 16.25 39.7 16.25 39.75 16.2 39.8 15.15 40.15 13.4 40.35 7.45 40.9 5.35 40.95 -4.7 41.1 Q-9.5 41.1 -14.1 39.85 L-15.1 39.7 -16.5 39.3 -16.65 39.15 -16.65 39.1 -16.7 39.05 -17.2 35.9 Q-17.45 32.95 -18.05 30.1 L-18.75 25.85 -18.7 25.7 -18.65 24.85 -18.8 24.45 -18.8 24.15 -18.8 23.8 -18.8 23.4 -18.8 23.3 -18.85 23.05 -18.95 22.65 -19.05 22.45 -19.05 22.3 -19.05 22.1 -19.1 22.0 -19.1 21.9 -19.1 21.8 -19.15 21.55 -19.2 21.15 -19.3 20.95 -19.35 20.6 -19.55 19.9 -19.75 18.4 Q-20.1 15.45 -20.6 12.55 L-20.9 11.05 -21.0 10.95 -21.05 10.9 -21.9 5.1 -22.3 2.1 -22.45 2.0 -22.45 1.9 -22.45 1.8 -22.35 1.8 -22.8 -0.7 -23.5 -5.85 -23.5 -6.1 -23.45 -6.35 -23.5 -6.65 -23.5 -6.75 -23.5 -6.85 -23.35 -6.95 -23.3 -7.05 -23.05 -7.05 -22.9 -7.05 -22.7 -7.15 -19.2 -7.65 -13.9 -8.05 -10.65 -8.2 -7.05 -8.35 -3.4 -8.5 -0.35 -8.5 2.75 -8.45 8.1 -8.3 13.85 -7.9 16.7 -7.8 M16.65 -6.8 L16.65 -6.75 16.65 -6.65 16.65 -6.35 16.65 -6.1 16.65 -5.85 16.5 -4.2 16.35 -4.25 15.65 -3.95 15.9 -6.0 15.95 -6.1 16.05 -6.45 16.15 -6.85 3.7 -7.2 -8.8 -7.15 -12.4 -7.05 -12.6 -7.05 -12.7 -7.05 -12.85 -7.05 -16.1 -6.75 -16.05 -6.45 -15.95 -6.1 -15.9 -6.0 -15.45 -0.25 -15.3 0.9 -14.85 0.85 -13.7 0.8 -10.95 0.7 -10.75 0.65 -10.45 0.6 -6.7 0.6 -6.75 -0.7 -6.75 -0.85 -6.55 -0.8 -6.35 -0.7 -6.15 -0.65 -6.05 -0.65 -6.05 -0.25 -6.0 0.55 -5.55 0.55 1.3 0.55 4.65 0.55 4.7 -3.3 4.85 -6.45 4.95 -6.7 5.55 -7.05 5.4 -3.05 5.25 0.55 7.05 0.55 7.3 0.6 7.55 0.65 9.2 0.65 11.7 0.65 11.8 0.65 14.5 0.7 14.75 0.75 14.9 0.85 15.15 0.85 15.25 -0.25 15.55 -2.8 15.6 -2.65 15.8 -2.45 15.95 -2.35 16.2 -2.3 16.25 -2.3 16.05 -0.7 15.9 0.9 16.3 0.9 16.6 0.9 18.85 0.95 19.1 1.0 19.3 1.1 21.0 1.1 21.9 -4.2 22.25 -6.15 17.75 -6.7 16.65 -6.8 M19.25 2.3 L19.15 2.25 18.95 2.25 17.65 2.1 8.75 1.8 7.65 1.8 7.55 1.8 7.45 1.75 5.2 1.75 5.2 1.8 4.6 1.8 4.6 1.75 1.7 1.7 Q-2.2 1.6 -6.0 1.65 L-6.0 1.75 -6.65 1.75 -6.65 1.65 -10.75 1.75 -15.2 1.9 -15.2 2.0 -15.95 2.0 -15.95 1.9 -16.5 1.9 -16.65 1.9 -16.8 1.95 -17.1 2.0 -17.25 2.0 -18.2 2.05 -18.7 2.1 -19.95 2.1 -20.05 2.1 -20.2 2.1 -20.35 2.15 -20.4 2.2 -20.55 2.2 -20.9 2.2 -21.1 2.2 -20.5 5.55 -20.05 8.25 -16.65 8.1 -16.1 8.1 -15.65 8.05 -13.35 7.9 -8.65 7.7 -6.45 7.7 -5.8 7.7 -4.4 7.7 -3.0 7.7 -1.45 7.65 0.3 7.6 0.4 7.6 6.25 7.6 6.4 7.6 11.5 7.65 11.8 7.65 14.3 7.7 14.3 7.65 14.8 7.65 14.9 7.65 15.2 7.7 15.25 7.7 15.35 7.75 17.1 7.75 17.35 7.75 18.85 7.8 19.1 7.85 19.2 7.9 19.9 7.9 19.95 7.55 20.8 2.35 19.55 2.35 19.5 2.35 19.25 2.3 M6.1 8.55 L5.95 8.55 5.1 8.6 5.05 8.6 4.75 14.4 4.6 17.95 4.35 17.85 4.1 17.9 4.2 14.2 4.3 8.6 2.9 8.5 2.75 8.5 -5.75 8.6 -5.65 10.6 -5.7 10.75 -5.65 10.85 -5.7 11.25 -5.75 11.9 -5.75 12.45 -5.7 13.0 -6.0 12.85 -6.2 12.8 -6.2 12.55 -6.3 11.05 -6.35 10.95 -6.35 10.9 -6.45 8.6 -8.65 8.65 -14.55 8.85 -14.35 10.6 -14.45 10.75 -14.4 10.85 -14.4 11.25 -14.45 11.9 -14.4 12.45 -13.75 18.2 -13.7 18.6 -13.75 19.55 -13.8 19.6 -13.85 19.8 -13.9 19.9 -13.9 20.0 -13.95 20.1 -14.0 20.2 -14.05 20.3 -14.1 20.3 -14.15 20.25 -14.2 20.15 -14.25 20.05 -14.25 19.95 -14.25 19.7 -14.4 19.4 -14.4 19.35 -14.5 18.4 Q-14.65 15.45 -14.95 12.55 L-15.15 11.05 -15.2 10.95 -15.25 10.9 -15.45 8.85 -19.95 8.9 -19.7 10.6 -19.7 10.75 -19.7 10.85 -19.75 11.25 -19.75 11.9 -19.7 12.45 -18.65 18.2 -17.6 24.0 -17.3 25.9 -17.25 25.85 -16.15 25.85 -13.85 25.95 -14.0 24.8 -13.9 24.7 -13.7 24.3 -13.6 24.05 -13.55 24.05 -13.45 24.2 -13.15 24.75 -13.05 24.9 -12.95 26.0 -8.85 26.25 -6.25 26.25 -6.0 26.3 -5.8 26.35 -5.9 24.25 -6.05 18.4 -6.05 18.2 -5.4 19.55 -5.2 24.0 -5.1 26.45 -5.0 26.45 0.8 26.5 3.75 26.45 3.85 21.7 3.9 21.65 3.9 21.55 3.95 21.45 4.0 21.55 4.2 21.65 4.45 21.7 4.6 21.75 4.55 21.85 4.6 22.0 4.4 26.45 12.1 26.1 12.35 24.0 12.85 20.6 13.5 19.9 13.5 20.1 13.5 20.3 13.5 20.4 13.6 20.6 13.25 24.25 13.0 26.05 17.15 25.75 17.2 25.25 17.55 23.2 17.75 21.75 17.8 21.65 17.95 21.55 18.45 18.65 18.95 15.4 19.25 13.3 19.25 13.2 19.25 13.1 19.75 8.9 19.1 8.9 18.85 8.85 18.7 8.8 17.1 8.8 16.85 8.75 15.1 8.75 15.05 8.75 14.75 10.9 14.7 10.95 14.65 11.05 14.45 12.55 14.35 13.3 14.0 13.1 13.85 13.05 13.9 12.45 13.95 11.9 13.9 11.25 13.9 10.85 13.95 10.75 13.95 10.6 14.2 8.7 11.75 8.65 11.45 8.6 6.35 8.65 6.1 8.55 M11.5 27.35 L11.3 27.4 9.75 27.4 9.55 27.45 4.35 27.5 4.35 27.6 3.75 27.6 3.75 27.5 3.5 27.55 0.75 27.65 -5.1 27.5 -5.1 27.65 -5.75 27.65 -5.75 27.5 -6.4 27.45 -8.75 27.35 -9.0 27.3 -9.2 27.25 -12.9 27.1 -12.9 27.25 -13.7 27.25 -13.75 27.05 -17.15 26.8 -16.75 29.85 -16.55 31.5 -15.05 31.45 -14.9 31.5 -14.25 31.6 -13.75 31.7 -13.25 31.7 -13.3 31.55 -12.55 31.6 -12.55 31.75 -12.15 31.8 -9.4 31.8 -8.35 31.85 -8.3 31.85 -8.05 31.9 -7.25 31.9 -3.05 32.0 -2.0 32.05 3.55 32.1 3.55 31.95 3.6 31.95 4.2 32.1 4.3 32.1 6.5 32.1 6.8 32.05 9.4 31.95 9.5 31.9 9.7 31.9 11.55 31.85 11.55 31.8 12.55 31.75 14.0 31.45 14.5 31.5 14.6 31.45 14.8 31.45 15.8 31.35 16.15 31.25 16.25 31.2 16.45 31.2 16.45 31.15 16.5 31.15 17.05 27.3 17.05 27.2 17.0 27.1 16.95 27.05 17.0 26.85 12.85 27.25 12.85 27.35 12.0 27.35 11.55 27.35 11.5 27.35 M9.65 33.1 L4.15 33.2 3.95 38.6 3.95 38.7 3.85 39.05 3.8 39.45 3.8 39.55 3.7 39.65 3.6 39.65 3.5 39.65 3.5 39.55 3.4 39.45 3.4 39.35 3.4 39.25 3.4 38.95 3.35 38.7 3.35 38.45 3.5 33.3 3.5 33.2 -2.3 33.15 -4.95 33.1 -4.85 35.65 -4.7 39.65 -5.25 39.3 -5.4 39.05 -5.55 35.9 -5.55 33.1 -8.55 32.9 -12.4 32.75 -12.45 32.75 -12.15 35.65 -11.75 39.35 -8.4 39.6 2.7 39.9 10.6 39.45 Q10.7 37.5 11.05 35.65 L11.4 32.95 9.75 33.05 9.65 33.1 M15.7 32.5 L15.0 32.6 14.9 32.65 14.7 32.7 13.45 32.75 13.4 32.75 13.2 32.8 12.5 32.8 12.4 32.85 12.15 32.9 11.9 35.9 11.5 39.05 11.3 39.3 11.0 39.4 15.3 38.75 15.3 38.6 16.25 32.75 16.3 32.45 15.7 32.5 M-21.0 -6.2 L-22.35 -6.05 -22.3 -6.0 -21.5 -0.25 -21.2 1.5 -21.15 1.5 -20.75 1.4 -20.4 1.35 -20.2 1.3 -19.0 1.25 -18.5 1.2 -18.3 1.15 -17.4 1.1 -17.25 1.1 -17.05 1.05 -16.85 0.95 -16.05 0.95 -16.25 -0.7 -16.65 -5.85 -16.65 -6.1 -16.65 -6.35 -16.65 -6.65 -16.65 -6.7 -16.7 -6.7 -17.15 -6.55 -18.9 -6.45 -19.35 -6.4 -19.75 -6.25 -21.0 -6.2 M-6.6 -7.05 L-6.5 -7.05 -6.4 -6.95 -6.4 -6.85 -6.35 -6.45 -6.25 -6.1 -6.25 -6.0 -6.15 -3.6 -6.4 -3.65 -6.6 -3.65 -6.8 -3.55 -6.85 -5.85 -6.85 -6.1 -6.8 -6.35 -6.85 -6.65 -6.85 -6.75 -6.8 -6.85 -6.7 -6.95 -6.7 -7.05 -6.6 -7.05 M-14.0 32.6 L-14.05 32.55 -16.3 32.35 -16.4 32.35 -15.85 35.65 -15.3 38.75 -15.15 38.7 -13.5 39.1 -12.55 39.25 -12.7 39.05 -13.0 35.9 -13.15 32.75 -13.75 32.7 -14.0 32.6" fill="#333333" fill-rule="evenodd" stroke="none"/>
    <path d="M5.85 37.65 L5.9 37.6 6.0 37.6 6.05 37.6 6.15 37.65 6.3 37.7 6.4 37.8 6.55 37.9 6.65 38.0 6.75 38.05 6.9 38.15 7.0 38.25 7.05 38.35 7.1 38.45 7.1 38.55 7.05 38.6 6.9 38.7 6.75 38.65 6.5 38.55 6.3 38.35 6.2 38.25 6.1 38.15 6.0 38.05 5.95 38.0 5.9 37.9 5.75 37.9 5.65 37.85 5.75 37.75 5.85 37.65" fill="#333333" fill-rule="evenodd" stroke="none"/>
    <path d="M8.0 36.9 L8.05 37.0 8.15 37.1 8.25 37.2 8.5 37.4 8.8 37.55 9.0 37.65 9.05 37.75 9.15 37.85 9.25 37.95 9.4 38.05 9.5 38.15 9.55 38.25 9.6 38.3 9.6 38.4 9.4 38.45 9.25 38.5 9.05 38.4 8.8 38.3 8.6 38.15 8.2 37.85 8.05 37.75 7.9 37.55 7.75 37.4 7.65 37.2 7.55 37.0 7.55 36.9 7.6 36.8 7.75 36.8 7.75 36.75 7.9 36.8 8.0 36.9" fill="#333333" fill-rule="evenodd" stroke="none"/>
    <path d="M9.65 35.8 L9.85 35.9 10.15 36.1 10.2 36.15 10.2 36.25 10.15 36.35 10.15 36.4 10.0 36.45 9.8 36.4 9.55 36.3 9.3 36.2 9.2 36.1 9.15 36.0 9.2 35.9 9.25 35.8 9.3 35.8 9.4 35.75 9.65 35.8" fill="#333333" fill-rule="evenodd" stroke="none"/>
    <path d="M13.6 37.5 L13.8 37.6 14.0 37.7 14.1 37.8 14.15 37.9 14.2 38.0 14.25 38.05 14.35 38.15 14.35 38.25 14.3 38.35 14.1 38.4 14.0 38.35 13.85 38.3 13.75 38.2 13.55 38.1 13.35 38.0 13.2 37.9 12.9 37.85 12.75 37.8 12.65 37.7 12.65 37.65 12.45 37.55 12.4 37.5 12.45 37.4 12.65 37.3 12.75 37.3 12.85 37.3 12.9 37.35 13.15 37.35 13.6 37.5" fill="#333333" fill-rule="evenodd" stroke="none"/>
    <path d="M14.35 36.3 L14.3 36.4 14.15 36.5 14.0 36.45 13.9 36.45 13.4 36.3 13.25 36.25 13.1 36.25 13.05 36.3 12.9 36.3 12.75 36.25 12.7 36.15 12.7 36.05 12.75 36.0 12.85 35.9 13.0 35.8 13.05 35.8 13.15 35.8 13.15 35.75 13.35 35.8 13.65 35.9 13.85 35.95 14.0 36.05 14.1 36.15 14.25 36.25 14.35 36.3" fill="#333333" fill-rule="evenodd" stroke="none"/>
    <path d="M15.55 34.3 L15.55 34.4 15.5 34.5 15.4 34.55 15.25 34.55 14.65 34.55 14.45 34.55 14.25 34.6 14.1 34.55 14.1 34.45 14.15 34.35 14.3 34.25 14.4 34.2 14.5 34.15 14.65 34.15 15.25 34.15 15.45 34.2 15.55 34.3" fill="#333333" fill-rule="evenodd" stroke="none"/>
    <path d="M18.35 23.55 L18.4 23.65 18.4 23.75 18.35 23.8 18.25 23.85 18.05 23.9 18.0 23.9 17.9 23.95 16.9 23.95 16.75 23.9 16.65 23.75 16.65 23.7 16.65 23.6 16.75 23.5 16.9 23.45 17.9 23.45 18.0 23.45 18.35 23.55" fill="#333333" fill-rule="evenodd" stroke="none"/>
    <path d="M-17.55 14.3 L-17.5 14.4 -17.5 14.5 -17.55 14.6 -17.6 14.7 -17.65 14.8 -18.5 15.15 -18.8 15.35 -18.9 15.4 -19.0 15.45 -19.3 15.4 -19.5 15.3 -19.5 15.2 -19.45 15.15 -19.4 15.05 -19.25 14.95 -19.05 14.9 -18.15 14.45 -17.75 14.35 -17.55 14.3" fill="#333333" fill-rule="evenodd" stroke="none"/>
    <path d="M-19.25 16.1 L-18.15 16.15 -17.9 16.15 -17.75 16.2 -17.65 16.3 -17.6 16.4 -17.65 16.5 -17.65 16.6 -17.7 16.65 -17.75 16.7 -17.9 16.7 -19.1 16.8 -19.15 16.8 -19.25 16.85 -19.4 16.8 -19.5 16.7 -19.55 16.6 -19.55 16.5 -19.55 16.4 -19.55 16.3 -19.45 16.2 -19.4 16.15 -19.25 16.15 -19.25 16.1" fill="#333333" fill-rule="evenodd" stroke="none"/>
    <path d="M12.1 1.65 L12.35 1.85 12.5 2.0 12.55 2.2 12.55 2.4 12.5 2.6 12.45 2.75 12.05 3.15 10.95 3.9 13.9 2.65 Q14.65 2.25 15.5 2.0 L15.75 2.0 16.1 2.15 16.35 2.25 16.7 2.2 17.05 2.0 17.3 1.9 17.45 1.85 17.75 1.8 18.0 1.75 18.35 1.9 18.6 2.1 18.75 2.3 18.8 2.45 18.8 2.65 18.8 2.8 18.95 2.85 19.7 2.45 21.0 2.0 21.35 2.15 21.6 2.35 21.75 2.55 21.8 2.7 21.8 2.9 21.8 3.1 21.75 3.25 21.65 3.45 21.55 3.65 21.45 3.75 21.3 3.85 21.0 3.95 20.8 4.15 20.55 4.35 20.55 4.5 20.55 4.7 20.55 4.9 20.5 5.1 20.4 5.25 20.25 5.45 20.05 5.55 19.75 5.7 20.1 5.9 20.35 6.1 20.5 6.25 20.55 6.45 20.55 6.65 20.5 6.85 20.55 7.0 20.55 7.2 20.5 7.4 20.35 7.6 20.1 7.75 19.75 7.9 19.5 7.9 19.05 7.75 18.5 7.75 16.8 8.25 15.5 8.4 15.05 8.25 14.85 8.1 14.75 7.9 14.7 7.7 14.5 7.6 14.0 7.75 13.5 7.9 13.25 7.9 12.8 7.8 12.45 7.7 12.1 7.75 11.5 7.85 10.75 7.9 10.3 7.75 10.1 7.6 10.0 7.4 9.85 7.2 9.5 7.35 8.55 7.7 Q8.4 7.75 8.3 7.85 L8.0 7.9 7.55 7.75 7.35 7.6 7.25 7.4 7.15 7.2 7.0 7.1 3.35 8.3 2.0 8.65 1.55 8.5 1.35 8.35 1.25 8.15 1.15 7.95 1.15 7.75 1.15 7.6 1.05 7.6 0.05 8.0 -1.25 8.15 -1.7 8.0 -1.9 7.85 -2.0 7.65 -2.1 7.45 -3.55 7.6 -5.25 7.9 -5.7 7.75 -5.9 7.6 -6.0 7.4 -6.1 7.2 -6.6 7.25 -7.75 7.4 -8.2 7.25 -8.4 7.1 -8.5 6.9 -8.6 6.75 -8.85 6.7 -12.8 8.15 -14.1 8.4 -14.55 8.25 -14.8 8.1 Q-15.85 8.65 -17.0 9.0 L-18.6 9.15 -19.05 9.0 -19.2 8.85 -19.35 8.65 -19.4 8.45 -19.4 8.25 -19.4 8.1 -19.4 7.9 -19.45 7.75 -19.8 7.5 -19.95 7.35 -20.1 7.15 -20.15 6.95 -20.15 6.75 -20.15 6.6 -20.15 6.4 -20.15 6.2 -20.15 6.15 -20.35 6.1 -20.8 5.95 -20.95 5.75 -21.1 5.6 -21.1 5.4 -21.1 5.2 -21.1 5.0 -21.05 4.85 -20.95 4.7 -21.1 4.65 -21.45 4.5 -21.6 4.35 -21.65 4.15 -21.65 3.95 -21.55 3.8 -21.35 3.6 -21.1 3.4 -21.0 3.2 -20.9 3.05 -20.75 2.85 -20.6 2.65 -20.25 2.45 -19.95 2.25 -19.85 2.15 -19.6 2.1 -19.1 2.15 -18.8 2.25 -18.5 2.15 -17.75 1.45 -17.15 0.95 -16.85 0.9 -16.45 1.0 -16.3 1.2 -16.2 1.4 -16.2 1.6 -16.2 1.75 -16.3 1.95 -16.4 2.15 -16.8 2.5 -17.35 3.1 -17.4 3.15 -17.2 3.15 -16.15 2.4 -14.55 1.65 -14.3 1.45 -14.1 1.3 -13.9 1.15 -13.65 1.1 -13.35 1.0 -12.95 1.15 -12.7 1.35 -12.6 1.5 -12.55 1.7 -12.55 1.9 -12.6 2.1 -12.65 2.25 -12.85 2.45 -13.05 2.65 -11.75 2.2 -10.35 1.35 -10.05 1.25 -9.65 1.4 -9.4 1.6 -9.3 1.75 -9.2 1.95 -9.2 2.15 -9.25 2.35 -9.25 2.5 -9.35 2.7 -9.45 2.9 -10.15 3.4 -11.15 4.2 -11.35 4.35 -11.1 4.25 -10.05 3.75 -8.75 3.15 -8.55 2.95 -8.35 2.75 -7.95 2.4 -7.6 2.25 -7.35 2.2 -6.95 2.1 -6.7 1.9 -6.5 1.7 -6.35 1.6 -6.0 1.55 -5.75 1.5 -5.4 1.65 -5.15 1.85 -5.05 2.05 -4.95 2.2 -4.95 2.4 -5.0 2.6 -5.1 2.75 -5.5 3.1 -6.65 3.9 -6.4 3.9 -0.65 1.4 Q0.3 1.0 1.25 0.75 L1.6 0.9 1.85 1.1 1.95 1.25 2.05 1.45 2.05 1.65 2.05 1.75 2.25 1.75 2.5 1.75 2.85 1.9 3.1 2.1 3.2 2.3 3.3 2.45 3.3 2.65 3.25 2.85 3.15 3.0 3.0 3.2 3.3 3.2 Q4.75 2.4 6.25 1.85 L7.4 1.35 7.75 1.25 8.1 1.4 8.35 1.6 8.45 1.8 8.55 1.95 8.55 2.15 8.5 2.35 8.4 2.5 8.25 2.7 7.15 3.25 5.8 4.0 Q7.35 3.65 9.05 2.7 10.2 2.05 11.45 1.6 L11.75 1.5 12.1 1.65 M4.85 4.45 L4.65 4.5 4.25 4.65 3.8 4.85 3.55 4.95 4.1 4.8 4.6 4.65 4.95 4.45 4.85 4.45 M-13.65 3.0 L-14.7 3.55 -15.6 4.15 -16.35 4.7 -16.35 4.75 -16.05 4.65 -15.2 4.1 -14.3 3.55 -13.6 3.0 -13.65 3.0" fill="#333333" fill-rule="evenodd" stroke="none"/>
    <path d="M14.2 25.0 L14.5 24.95 14.5 24.9 14.95 25.05 15.2 25.2 15.3 25.4 15.35 25.6 15.4 25.8 15.4 25.95 15.35 26.15 15.45 26.2 15.75 26.15 16.2 26.3 16.45 26.45 16.55 26.65 16.6 26.85 16.65 27.05 16.65 27.2 16.6 27.4 16.5 27.6 16.35 27.8 16.35 27.95 16.6 28.15 16.75 28.35 16.85 28.55 16.9 28.75 16.95 28.9 16.95 29.1 17.0 29.3 17.05 29.45 17.1 29.65 17.2 29.85 17.2 30.05 17.2 30.2 17.2 30.6 17.2 30.95 17.1 31.15 17.0 31.35 16.65 31.7 16.45 31.9 16.0 32.05 15.55 31.9 15.3 31.7 15.1 31.55 15.05 31.35 15.05 31.15 15.05 30.95 15.0 30.9 14.5 30.9 13.6 31.45 12.2 32.4 11.8 32.55 11.3 32.65 10.55 33.0 10.25 33.05 9.8 32.9 9.55 32.7 9.4 32.5 9.3 32.35 9.3 32.15 9.25 32.05 9.0 32.05 8.4 32.1 8.05 32.2 7.75 32.25 7.25 32.3 6.8 32.15 6.55 31.95 6.4 31.75 6.3 31.6 6.3 31.4 6.25 31.3 6.05 31.2 3.7 32.2 2.55 32.75 2.25 32.75 1.75 32.8 1.3 32.65 1.05 32.45 0.85 32.3 0.75 32.25 0.4 32.35 -0.2 32.55 -1.75 32.75 -2.2 32.6 -2.45 32.4 -2.55 32.2 -2.65 32.05 -2.7 31.95 -3.2 32.0 -4.0 32.15 -4.25 32.15 -4.7 32.05 -4.9 31.85 -5.0 31.65 -5.1 31.45 -5.25 31.35 -5.8 31.5 -6.25 31.65 -6.75 31.65 -7.2 31.55 -7.4 31.35 -7.5 31.15 -7.75 31.05 -8.25 31.15 -9.0 31.15 -9.45 31.05 -9.65 30.85 -9.75 30.65 -9.85 30.45 -9.85 30.3 -9.9 30.2 -10.4 30.2 -12.25 31.15 -13.85 31.6 -14.3 31.45 -14.45 31.3 -14.6 31.1 -14.65 31.0 -15.3 31.0 -16.1 31.1 -16.55 30.95 -16.7 30.8 -16.85 30.6 -16.85 30.4 -16.85 30.2 -16.85 30.05 -16.8 29.85 -16.7 29.65 -16.35 29.3 -16.2 29.1 -16.15 29.05 -16.35 28.95 -17.1 28.95 -17.45 28.85 -17.65 28.65 -17.7 28.45 -17.7 28.3 -17.7 28.1 -17.7 27.95 -17.2 27.35 Q-16.8 27.05 -16.7 26.6 L-16.5 26.4 -16.35 26.3 -16.1 26.2 -15.8 26.35 -15.6 26.55 -15.5 26.75 -15.45 26.9 Q-15.45 27.15 -15.05 27.05 L-13.45 26.35 -12.95 26.05 -12.9 26.0 -12.6 25.9 -12.2 26.05 -12.05 26.25 -11.95 26.4 -11.9 26.6 -11.9 26.8 -11.9 26.95 -12.05 27.15 -12.15 27.35 -12.4 27.55 -12.7 27.7 -12.9 27.9 -13.05 28.1 -13.4 28.45 -13.6 28.65 -13.4 28.7 -13.1 28.6 -12.25 28.05 -10.65 27.15 -10.35 27.1 -9.95 27.2 -9.8 27.4 -9.65 27.6 -9.6 27.8 -9.6 27.95 -9.7 28.15 Q-8.4 28.0 -6.95 27.15 L-5.4 26.55 -5.2 26.4 -5.1 26.35 -4.75 26.3 -4.4 26.4 -4.15 26.6 -4.05 26.8 -3.95 26.95 -3.95 27.15 -3.95 27.35 -4.0 27.55 -3.05 27.35 -1.85 26.9 -1.5 26.8 -1.25 26.6 -0.95 26.4 -0.5 26.3 0.0 26.3 0.35 26.4 0.6 26.6 0.7 26.8 0.8 26.95 0.8 27.15 0.8 27.25 1.0 27.3 1.5 27.3 1.85 27.4 2.1 27.6 2.4 27.6 2.9 27.4 3.25 27.2 3.4 27.1 3.75 27.05 4.0 27.05 4.35 27.15 4.6 27.35 4.7 27.55 4.8 27.7 4.8 27.9 4.75 28.1 4.65 28.3 Q5.15 28.35 6.3 27.65 7.25 27.05 8.25 26.7 L8.5 26.7 8.9 26.85 9.1 27.05 9.25 27.2 9.35 27.35 9.55 27.4 12.35 25.95 Q13.2 25.45 14.05 25.05 L14.2 25.0" fill="#333333" fill-rule="evenodd" stroke="none"/>
  </g>
</svg>
