<?xml version="1.0" encoding="UTF-8" standalone="no"?>
<svg xmlns:xlink="http://www.w3.org/1999/xlink" height="72.8px" width="171.15px" xmlns="http://www.w3.org/2000/svg">
  <g transform="matrix(1.0, 0.0, 0.0, 1.0, 85.55, 36.4)">
    <path d="M28.1 -28.8 L45.85 -32.6 49.85 -32.6 51.6 -32.1 52.6 -31.3 53.1 -30.85 53.85 -30.6 55.6 -30.1 56.6 -29.3 57.35 -28.6 58.85 -27.8 59.85 -27.05 60.6 -26.35 61.15 -26.05 65.85 -25.6 67.6 -25.1 68.9 -24.4 70.1 -23.85 70.85 -23.6 72.6 -23.1 73.9 -22.35 75.35 -21.6 75.9 -20.85 76.65 -20.1 77.6 -19.3 78.1 -18.85 78.85 -18.6 80.6 -18.1 81.6 -17.35 82.05 -16.55 82.35 -15.85 82.55 -15.05 82.55 -14.35 82.35 -13.6 83.1 -12.85 83.85 -12.1 84.1 -11.35 84.35 -10.6 84.6 -9.85 84.6 -9.1 84.6 -8.35 84.6 -7.6 84.6 -6.85 84.6 -6.1 84.6 -5.35 84.3 -4.6 83.85 -3.85 83.35 -3.1 82.6 -2.6 82.1 -2.35 80.85 -1.85 80.35 -1.1 79.6 -0.6 79.1 -0.4 77.85 -0.1 76.1 -0.6 74.85 -0.6 73.85 0.15 73.7 0.3 73.1 0.65 71.35 1.15 70.5 2.6 69.1 4.2 68.35 4.95 68.25 5.05 67.75 5.55 67.6 5.65 66.6 6.45 64.1 7.2 63.35 7.95 63.15 8.15 62.6 8.7 61.85 9.4 60.85 10.15 60.1 10.7 58.85 10.9 55.85 11.45 55.1 12.2 54.35 12.9 53.35 13.7 52.8 14.4 52.45 14.85 52.1 15.2 51.35 15.95 50.1 16.7 49.4 17.45 48.85 18.2 48.5 18.65 48.55 18.65 48.35 18.85 48.3 18.9 47.6 19.65 46.6 20.45 44.85 21.2 43.35 21.95 42.6 22.45 42.5 22.5 42.1 22.65 40.85 22.9 39.1 23.2 38.35 23.95 36.9 24.75 35.85 25.45 34.85 26.15 34.1 26.7 24.6 27.45 14.85 28.95 1.6 29.45 Q0.7 29.8 -0.15 30.25 L-0.9 30.7 -2.9 31.2 -3.9 31.7 -11.9 32.45 -12.65 32.95 -18.4 33.6 -23.4 34.5 -25.15 34.95 -31.15 35.15 -32.15 35.2 -34.15 34.7 -35.65 33.9 -36.9 33.2 -37.65 32.45 -38.4 31.7 -39.85 30.15 -40.4 29.45 -40.9 28.7 -41.1 27.9 -41.15 27.2 -41.15 26.45 -42.2 24.2 -42.95 22.7 -43.35 21.9 -43.7 21.2 -44.4 19.7 -45.25 18.25 -45.45 17.95 -45.6 17.75 -46.4 16.65 -46.9 15.95 -47.1 15.15 -47.15 14.45 -47.15 13.7 -47.15 12.95 -47.15 12.2 -47.15 11.6 -47.15 11.45 -47.35 10.8 -47.55 10.5 -47.95 10.1 -48.1 10.0 -48.15 9.95 -48.65 9.2 -49.1 8.4 -49.4 7.7 -50.15 6.95 -50.85 6.15 -51.15 5.7 -50.45 5.85 Q-51.0 5.3 -50.0 4.4 L-62.25 2.95 -64.65 1.65 -65.65 0.9 -66.4 0.15 -67.65 -0.6 -68.4 -1.35 -69.15 -2.1 -69.4 -2.6 -69.7 -2.75 -70.4 -3.05 -71.15 -3.35 -72.15 -4.1 -72.95 -4.75 -75.15 -6.35 -76.15 -7.1 -77.15 -8.6 -77.9 -10.1 -78.25 -10.8 -78.7 -11.55 -79.4 -12.35 -79.95 -13.1 -80.1 -13.85 -80.2 -14.6 -80.2 -15.35 -80.2 -16.1 -80.5 -16.8 -80.95 -17.6 -81.4 -18.35 -81.7 -19.1 -81.7 -19.85 -81.6 -20.5 -83.2 -20.5 -83.65 -20.65 -83.8 -20.85 -83.95 -21.05 -84.0 -21.2 -84.0 -21.4 -83.95 -21.55 -83.85 -21.75 -83.5 -22.1 -83.2 -22.15 -81.3 -22.45 -81.25 -22.65 -81.15 -22.8 -81.0 -23.0 -80.75 -23.15 -80.45 -23.2 -77.75 -23.4 -76.15 -23.85 -75.4 -24.6 Q-74.65 -24.95 -73.95 -25.4 L-71.9 -26.75 -70.4 -27.6 -69.4 -28.1 -68.15 -28.35 -66.95 -28.05 -66.4 -27.85 -65.4 -27.85 Q-61.6 -29.15 -57.65 -29.8 L-53.85 -30.6 -43.7 -33.4 -41.4 -34.1 -40.15 -34.85 -39.4 -35.6 -38.4 -36.1 -37.2 -36.2 -37.15 -36.35 -36.15 -36.35 -34.4 -35.85 -33.65 -35.35 -32.15 -35.35 -29.9 -35.85 -28.15 -36.35 Q-26.1 -36.35 -22.5 -33.75 L-22.5 -33.65 -22.15 -33.3 Q-21.6 -32.7 -20.75 -32.4 L-20.65 -32.35 -20.4 -32.35 -18.9 -32.25 -18.55 -32.1 -18.4 -32.0 -18.25 -32.0 -15.55 -31.45 -14.85 -31.35 -13.3 -30.25 -14.45 -31.25 -13.8 -31.15 -10.3 -30.8 -8.15 -30.3 -8.0 -30.25 Q-7.15 -29.65 -6.05 -29.3 L-3.9 -28.55 -2.15 -28.0 -1.85 -27.6 -1.15 -26.85 0.6 -26.1 1.85 -25.6 3.6 -25.1 8.85 -25.1 Q14.55 -27.05 20.55 -27.7 L28.1 -28.8" fill="#ab98a0" fill-rule="evenodd" stroke="none"/>
    <path d="M4.6 -18.9 L6.1 -18.9 7.85 -19.4 9.6 -18.9 10.6 -18.15 11.35 -18.05 19.85 -19.05 26.65 -19.85 Q30.75 -20.5 34.6 -22.15 L35.85 -22.25 35.85 -22.4 46.85 -22.4 48.85 -21.8 55.6 -19.55 Q58.95 -18.35 62.15 -16.75 L68.1 -13.85 72.85 -13.65 74.6 -13.7 75.85 -13.95 77.1 -14.35 78.1 -15.1 79.85 -15.6 81.85 -15.6 83.6 -15.1 84.6 -14.35 85.05 -13.6 85.35 -12.85 85.55 -12.1 85.6 -11.35 85.55 -10.65 85.35 -9.85 85.05 -9.15 84.6 -8.4 83.85 -7.6 83.1 -6.85 82.35 -6.15 81.6 -5.6 81.1 -5.4 79.85 -5.15 76.35 -4.6 75.85 -3.85 75.35 -3.1 74.6 -2.6 74.1 -2.4 72.1 -1.85 70.6 -1.1 67.55 0.2 63.6 1.15 Q60.45 1.5 59.6 3.65 L59.3 4.35 58.85 5.15 58.35 5.9 57.6 6.4 57.1 6.6 55.85 6.85 50.7 7.7 Q50.5 7.75 50.35 8.15 L50.05 8.85 49.6 9.65 48.6 10.35 47.1 11.15 46.35 11.85 45.6 12.4 45.1 12.6 43.1 13.15 42.35 13.9 41.6 14.6 40.6 15.35 39.35 16.15 39.05 16.85 38.6 17.65 37.6 18.4 35.85 18.9 34.1 18.4 33.15 17.6 32.6 17.15 32.55 17.0 31.15 16.35 29.6 15.6 28.35 14.9 27.85 15.4 27.1 16.15 26.35 16.9 25.6 17.6 24.55 18.35 23.1 19.15 22.35 19.9 Q21.6 20.25 20.9 20.7 20.35 21.0 19.85 21.4 L18.85 22.1 18.1 22.65 16.85 22.85 15.85 22.9 14.1 22.45 10.85 21.8 9.15 21.3 7.6 20.65 6.6 20.15 4.85 20.4 3.85 21.1 2.6 21.9 1.6 22.65 0.6 23.4 -1.15 23.85 -3.4 24.45 Q-4.65 24.75 -5.9 25.2 L-6.9 25.65 -8.15 25.85 -10.15 26.05 -12.15 26.15 -14.15 26.15 -16.4 25.65 -17.9 24.9 -19.65 24.2 -21.9 23.3 -23.4 22.6 -24.65 21.9 -25.3 21.1 -25.65 20.4 -25.85 19.6 -25.9 18.9 -25.9 18.15 -26.65 17.4 -27.35 16.6 -27.8 15.85 -27.9 15.4 -27.9 15.25 -30.15 15.15 -31.15 15.15 -32.15 15.15 -34.15 14.65 -35.15 13.9 -35.65 13.15 -35.9 12.4 -36.15 11.65 -36.7 10.9 -37.4 10.15 -38.65 9.4 -40.15 8.6 -40.9 8.15 -42.15 8.15 -44.4 7.65 -45.65 6.9 -46.4 6.15 -47.1 5.35 -47.65 4.65 -47.85 3.85 -47.9 3.15 -47.9 2.4 -48.2 1.65 -48.7 0.9 -49.4 0.15 -50.15 -0.6 -50.65 -1.1 -50.9 -1.25 -58.65 -1.1 -60.15 -0.6 -61.9 -1.1 -62.65 -1.85 -63.4 -2.65 -63.85 -3.4 -64.15 -4.1 -64.9 -4.85 -66.15 -5.6 -66.9 -6.35 -67.2 -7.1 -67.6 -7.9 -67.95 -8.6 -68.35 -9.4 -68.65 -10.1 -69.65 -10.9 -70.4 -11.6 -71.15 -12.35 -71.35 -13.15 -71.4 -13.85 -71.4 -14.6 -71.35 -15.35 -71.25 -16.15 -71.15 -16.85 -70.65 -17.6 -69.9 -18.4 -68.15 -18.85 -67.15 -19.15 -66.15 -19.4 -65.4 -19.6 -64.15 -19.9 -61.2 -19.5 -59.4 -19.2 -56.2 -18.55 -54.65 -18.15 -53.9 -17.35 -52.15 -16.6 -45.4 -16.35 -44.4 -16.6 -40.4 -17.45 -31.4 -18.75 -21.9 -19.65 -20.15 -20.15 -18.15 -20.15 -16.65 -19.65 -12.15 -19.05 -10.15 -18.65 -9.15 -18.4 -3.9 -19.0 -2.15 -19.4 2.85 -19.4 4.6 -18.9" fill="#663333" fill-opacity="0.2" fill-rule="evenodd" stroke="none"/>
    <path d="M2.6 -4.35 L3.85 -3.6 4.55 -2.85 5.1 -2.1 5.6 -1.35 6.6 -0.6 7.1 0.15 7.6 0.9 7.85 1.65 8.1 2.4 8.35 3.15 8.6 3.9 8.6 4.65 8.6 5.4 8.6 6.15 8.5 7.6 8.35 8.4 8.4 9.1 8.55 9.9 8.6 10.65 8.6 12.15 8.6 13.65 8.3 14.35 7.85 15.15 7.3 15.85 5.85 17.4 5.65 18.15 5.6 18.9 5.6 20.4 5.6 22.65 5.6 24.15 5.35 24.9 5.1 25.65 4.75 26.35 4.1 27.15 2.55 28.55 0.6 30.15 -1.15 30.65 -5.4 30.9 -9.25 32.3 Q-15.45 34.6 -22.15 33.4 L-23.9 32.9 -24.9 32.15 -25.15 32.1 -27.15 31.65 -27.9 31.15 -28.2 30.95 Q-29.65 30.4 -31.2 30.0 -33.6 29.35 -35.65 27.9 L-36.4 27.15 -37.1 26.35 -37.65 25.65 -37.85 24.9 -37.9 24.15 -37.9 23.4 -37.9 22.65 -38.0 21.9 -38.4 21.15 -38.65 20.4 -38.85 19.6 -38.9 18.9 -39.4 18.15 -40.85 17.35 -41.85 16.6 -43.3 15.05 -43.65 14.4 -43.85 13.6 -43.9 12.9 -43.9 12.15 -43.9 11.4 -43.55 10.7 -42.35 9.15 -40.15 6.9 -38.65 5.4 -37.4 4.7 -35.65 3.9 -36.4 3.15 -37.1 2.35 -37.65 1.65 -37.85 0.85 -37.9 0.15 -37.9 -1.35 -37.85 -3.6 -37.65 -5.1 -37.3 -5.8 -36.7 -6.65 -36.2 -7.4 -35.9 -8.1 -35.75 -8.8 -34.8 -10.3 -31.9 -13.35 -30.4 -14.85 -28.9 -15.6 -24.4 -17.85 -21.4 -19.4 -20.15 -19.55 -18.15 -19.75 -18.15 -19.9 -15.15 -19.9 -13.4 -19.4 -12.4 -18.65 -11.9 -17.85 -11.4 -17.1 -11.2 -16.35 -11.15 -15.6 -11.15 -14.85 -11.15 -14.1 -11.05 -13.4 -10.65 -12.6 -9.65 -11.85 Q-8.5 -10.9 -7.9 -9.5 -6.95 -7.45 -5.5 -5.8 L-4.65 -4.6 -4.15 -4.65 0.85 -4.85 2.6 -4.35" fill="#663333" fill-opacity="0.2" fill-rule="evenodd" stroke="none"/>
    <path d="M17.85 -14.6 L29.85 -14.6 31.65 -14.2 35.85 -13.5 37.6 -13.1 38.6 -12.35 39.05 -11.6 39.4 -10.9 39.9 -10.15 40.6 -9.35 42.1 -7.85 42.6 -7.35 42.85 -7.25 47.1 -7.1 48.1 -7.4 48.65 -7.55 49.85 -7.85 51.35 -7.35 52.1 -6.6 52.55 -5.85 52.85 -5.1 52.75 -4.4 52.35 -3.6 52.1 -2.85 51.85 -2.1 51.35 -1.35 50.85 -0.6 49.85 0.1 49.1 0.65 48.35 0.85 46.85 1.0 38.1 1.15 37.35 1.9 36.6 2.65 35.85 3.4 35.1 4.15 34.35 4.9 33.1 5.65 32.6 6.4 32.1 7.15 31.6 7.9 31.15 8.65 30.85 9.4 Q30.85 9.65 31.0 9.7 L31.85 10.15 33.6 10.65 34.6 11.4 35.35 12.15 36.1 12.9 36.75 13.7 37.6 15.15 37.8 15.9 37.8 16.6 37.6 17.4 37.1 18.15 36.6 18.9 36.1 19.65 35.1 20.35 34.35 20.9 32.35 21.4 31.35 22.15 30.35 22.85 28.85 23.65 28.15 24.4 27.65 25.15 27.3 25.85 26.8 26.6 25.35 28.15 24.85 28.65 24.35 28.85 22.85 29.05 16.85 29.15 14.85 28.65 12.85 28.15 10.85 27.65 9.85 27.15 7.85 26.65 5.85 26.15 3.85 25.65 2.9 24.8 2.6 24.4 2.35 24.2 0.85 23.6 -0.15 23.15 -3.15 23.15 -4.15 23.15 -6.15 22.65 -7.15 21.9 -7.6 21.1 -7.9 20.4 -8.1 19.6 -8.15 18.9 -8.15 18.15 -8.15 15.15 -8.25 11.4 -8.35 9.9 -8.4 8.4 -8.05 7.7 -7.45 6.85 -6.9 6.15 -5.65 5.4 -5.05 4.55 -4.9 3.9 -4.85 3.15 -4.55 2.45 -3.85 1.65 -2.9 0.9 -1.15 0.4 1.1 -0.1 2.6 -0.85 3.6 -1.35 4.85 -1.65 6.35 -2.1 6.7 -2.8 7.35 -3.6 8.6 -4.35 9.85 -5.1 10.6 -5.85 11.4 -6.6 12.35 -7.35 12.85 -8.1 13.05 -8.9 13.1 -9.6 13.15 -10.35 13.35 -11.1 13.7 -11.8 14.35 -12.6 15.15 -13.35 16.1 -14.1 17.8 -14.5 17.85 -14.6" fill="#663333" fill-opacity="0.2" fill-rule="evenodd" stroke="none"/>
    <path d="M-81.4 -15.1 L-81.6 -15.9 -81.65 -16.6 -81.65 -17.35 -81.65 -18.15 -81.65 -18.9 -81.65 -19.65 -81.35 -20.35 -80.9 -21.15 -79.9 -21.9 -78.15 -22.35 -75.9 -22.9 -74.15 -23.4 -61.15 -23.4 -59.4 -22.9 Q-58.8 -22.5 -58.15 -22.2 L-56.9 -21.65 -52.65 -22.65 -50.15 -23.35 -47.9 -23.9 -46.4 -24.65 -45.4 -25.15 -44.15 -25.35 -41.9 -25.7 -40.15 -26.15 Q-33.6 -25.4 -27.2 -26.75 L-27.15 -26.9 -25.65 -26.4 -24.15 -25.9 -21.15 -25.1 -19.65 -24.65 -18.65 -23.9 -16.15 -23.1 Q-14.65 -22.65 -13.1 -22.35 L-8.15 -21.65 -6.9 -21.15 -6.6 -20.4 -6.2 -19.6 -5.9 -18.9 Q-6.0 -18.5 -6.25 -18.25 L-7.15 -17.6 -8.9 -17.6 -10.15 -17.6 -10.65 -16.85 -11.65 -16.1 -13.15 -15.6 Q-16.2 -15.5 -19.15 -15.65 L-26.15 -15.85 -27.65 -16.35 -29.4 -15.85 Q-29.65 -15.6 -29.95 -15.45 -30.55 -15.1 -31.15 -14.85 L-31.95 -14.15 -32.65 -13.6 -32.95 -13.45 -34.15 -13.1 -36.4 -12.6 -37.4 -11.85 -39.2 -11.2 -42.9 -10.2 -45.65 -9.6 -46.4 -8.85 -54.9 -7.85 -54.25 -7.05 -53.9 -6.35 -53.65 -5.6 -53.55 -4.85 -53.65 -4.1 -53.9 -3.35 -54.25 -2.7 -55.15 -1.9 -55.9 -1.35 -57.15 -1.1 -58.9 -1.6 -60.15 -2.4 -60.9 -2.85 -63.9 -3.7 -66.85 -4.75 -70.9 -6.6 -71.4 -6.75 -78.15 -7.1 -79.9 -7.6 -80.9 -8.4 -81.65 -9.1 -81.85 -9.9 -81.9 -10.6 -81.9 -11.35 -81.9 -12.1 -81.9 -12.85 -81.9 -13.6 -81.65 -14.35 -81.4 -15.1" fill="#663333" fill-opacity="0.2" fill-rule="evenodd" stroke="none"/>
    <path d="M28.05 -11.65 L28.0 -12.0 28.15 -12.35 28.4 -12.55 29.85 -12.85 30.35 -12.75 30.5 -12.65 31.0 -12.75 31.25 -13.1 31.6 -13.5 32.1 -13.75 32.85 -13.8 32.85 -13.85 33.75 -13.6 34.25 -13.25 34.5 -12.85 34.7 -12.45 34.9 -12.1 35.1 -11.75 35.75 -11.4 37.2 -10.55 37.75 -10.25 38.6 -9.95 38.85 -9.9 39.75 -9.6 Q41.35 -8.4 43.35 -7.9 45.0 -7.5 46.5 -6.6 L47.1 -6.25 48.25 -5.85 48.75 -5.5 49.25 -5.1 55.35 -4.85 56.35 -5.15 58.1 -5.75 58.85 -5.9 61.1 -6.55 61.6 -6.75 71.1 -7.5 71.6 -7.6 72.1 -7.75 73.0 -8.0 73.85 -8.75 75.0 -9.85 75.75 -10.6 76.1 -11.0 76.85 -11.4 77.35 -11.75 77.85 -12.1 79.1 -12.5 79.6 -12.75 80.35 -12.85 80.85 -12.85 81.75 -12.6 82.25 -12.25 82.5 -11.85 82.75 -11.5 82.85 -10.75 82.85 -9.25 82.85 -8.5 82.85 -7.75 82.85 -7.0 82.85 -6.6 82.7 -6.25 82.5 -5.85 82.25 -5.5 82.0 -5.1 81.5 -4.75 81.1 -4.5 80.35 -4.35 79.25 -4.1 78.5 -3.7 78.0 -3.35 77.9 -3.0 77.85 -2.6 77.85 -2.25 77.85 -1.85 77.75 -1.5 77.6 -1.1 77.45 -0.75 77.1 -0.35 76.75 0.0 76.25 0.4 75.35 0.65 73.85 0.65 72.85 0.4 72.1 0.0 71.6 -0.25 67.0 -0.1 66.5 0.25 66.1 0.5 65.35 0.65 63.0 1.25 62.4 1.65 61.45 2.35 60.35 3.15 60.35 4.25 60.35 5.75 60.35 6.9 60.4 8.0 60.25 9.15 60.1 9.5 59.85 9.9 59.45 10.25 59.1 10.5 58.35 10.6 56.85 10.65 55.75 10.95 54.95 11.35 54.75 11.65 54.6 12.0 54.35 12.4 54.35 12.75 54.25 13.15 54.1 13.5 53.85 13.9 53.45 14.25 53.1 14.5 52.35 14.65 51.35 14.4 50.85 14.0 50.65 13.65 50.5 13.25 50.4 12.9 50.35 12.5 50.35 11.75 50.35 11.0 50.3 10.7 50.0 10.25 49.4 9.85 48.5 9.15 47.75 8.4 47.1 8.0 46.5 7.65 46.1 7.25 45.75 6.9 45.5 6.5 45.4 6.15 45.35 5.75 45.1 5.4 44.5 5.0 43.85 4.65 43.1 4.25 42.75 3.9 42.0 3.1 41.5 2.4 41.25 2.0 41.1 1.65 41.0 1.25 40.85 0.9 40.85 0.5 40.85 0.15 40.85 -0.25 40.9 -0.6 41.0 -1.0 Q40.0 -2.85 38.0 -4.05 L34.5 -6.45 Q33.1 -7.5 31.9 -8.8 L31.0 -10.0 30.35 -10.25 29.6 -10.5 29.45 -10.75 29.35 -10.85 28.85 -11.0 28.25 -11.25 28.05 -11.65" fill="#663333" fill-opacity="0.2" fill-rule="evenodd" stroke="none"/>
    <path d="M57.85 -23.5 L58.5 -23.25 59.0 -22.85 59.15 -22.5 59.3 -22.1 59.35 -21.75 59.2 -21.4 59.0 -21.0 58.95 -20.6 58.85 -20.25 58.65 -19.85 58.2 -19.15 57.6 -18.4 57.1 -18.0 53.5 -16.4 51.5 -15.5 50.5 -15.25 50.0 -15.0 49.35 -14.7 49.0 -14.5 48.35 -14.35 47.5 -14.6 47.15 -15.0 46.85 -15.35 46.85 -15.75 46.85 -16.5 46.9 -17.25 46.95 -18.0 47.0 -18.35 47.2 -18.75 47.65 -19.45 48.1 -20.25 48.6 -20.85 48.85 -20.95 50.6 -21.4 51.35 -21.6 53.0 -21.75 53.85 -22.15 54.25 -22.35 55.5 -22.75 57.85 -23.4 57.85 -23.5" fill="#663333" fill-opacity="0.2" fill-rule="evenodd" stroke="none"/>
    <path d="M-31.4 -4.1 L-29.9 -4.6 -28.4 -5.1 -27.15 -5.85 -26.4 -6.6 -25.6 -7.35 -24.9 -7.85 -24.4 -8.05 -23.15 -8.25 -23.15 -8.35 -22.15 -8.35 -20.4 -7.85 -19.7 -7.1 -19.2 -6.35 -18.9 -5.6 -17.75 -4.05 -16.35 -1.9 -14.95 0.4 -14.65 1.15 -14.45 1.9 -14.4 2.65 -14.4 3.4 -14.4 4.15 -14.65 4.9 -14.9 5.65 -15.25 6.3 -16.15 7.1 -16.9 7.65 -18.85 8.2 -20.65 8.9 -21.15 9.65 -21.35 10.4 -21.45 11.15 -21.65 11.9 -22.15 13.4 -22.4 14.15 -22.4 14.9 -22.4 15.65 -22.4 16.4 -22.4 17.15 -22.4 17.9 -22.3 18.6 -21.95 19.4 -21.6 20.1 -21.15 20.9 -20.9 21.65 -20.65 22.4 -20.4 23.15 -20.4 23.9 -20.45 24.65 -20.55 25.4 -20.65 26.9 -20.65 27.65 -20.95 28.35 -21.45 29.1 -22.1 29.9 -22.65 30.65 -24.15 31.4 -25.4 32.15 -27.15 32.65 -28.15 32.65 -29.9 32.15 -30.9 31.4 -31.35 30.6 -31.65 29.9 -31.65 29.15 -31.6 28.4 -31.4 27.65 -30.9 26.9 -30.4 26.15 -31.15 25.65 -32.9 25.15 -33.85 24.35 -34.6 23.6 -35.15 22.9 -35.65 22.15 -35.65 21.4 -35.65 20.65 -35.65 19.9 -35.65 19.15 -36.0 18.45 -36.65 17.65 -37.4 16.9 -38.9 16.15 -40.4 15.35 -41.65 14.65 -42.4 13.9 -43.05 13.1 -43.4 12.4 -43.6 11.65 -43.65 10.9 -43.65 9.4 -43.7 7.9 -43.9 6.4 -43.85 5.65 -43.7 4.85 -43.65 4.15 -43.55 2.65 -43.4 1.9 -43.05 1.2 -42.4 0.4 -41.6 -0.35 -40.9 -0.85 -40.4 -1.05 -39.15 -1.3 -38.15 -1.35 -36.4 -1.35 -34.9 -1.85 -33.65 -2.65 -32.65 -3.35 -31.9 -3.85 -31.4 -4.1" fill="#663333" fill-opacity="0.2" fill-rule="evenodd" stroke="none"/>
    <path d="M11.55 -21.85 L12.1 -21.1 12.35 -20.35 12.6 -19.6 12.85 -18.85 13.1 -18.1 13.35 -17.35 13.7 -16.7 14.35 -15.85 15.1 -15.1 25.85 -13.85 27.6 -13.35 28.6 -12.6 29.15 -11.9 29.6 -11.35 41.85 -9.8 43.6 -9.35 44.85 -8.6 45.6 -7.85 46.1 -7.1 46.35 -6.35 46.6 -5.6 46.85 -4.85 46.85 -4.1 46.85 -3.35 46.8 -2.65 46.6 -1.85 46.3 -1.15 45.85 -0.4 45.1 0.35 44.35 0.9 Q38.65 1.4 32.85 1.15 L30.85 0.65 29.85 0.65 27.35 1.4 26.4 2.15 25.85 2.65 25.35 2.85 23.85 3.15 20.85 3.65 21.6 4.4 22.1 5.15 22.6 5.9 22.8 6.65 22.85 7.4 22.85 8.15 22.85 8.9 22.85 9.65 22.6 10.4 22.35 11.15 22.1 11.9 21.65 12.65 20.8 14.1 18.9 16.4 17.35 17.9 15.9 18.65 14.6 19.4 12.85 19.9 11.1 19.4 9.35 19.9 8.6 20.4 8.1 20.6 6.85 20.85 3.85 21.4 2.85 22.1 1.35 22.9 -1.4 24.4 -3.15 24.85 -5.4 25.4 -7.15 25.9 -19.15 26.4 -20.15 27.15 -20.9 27.65 -22.15 27.85 -23.15 27.9 -24.9 27.4 -25.9 26.7 -28.4 25.15 Q-29.5 24.5 -30.65 23.9 L-31.4 23.65 -32.9 23.15 -33.85 22.35 -34.6 21.6 -35.15 20.9 -35.65 20.15 -35.65 19.4 -35.65 18.65 -35.65 17.9 -35.65 17.15 -35.65 16.4 -35.35 15.65 -34.95 14.85 -34.65 14.15 -34.5 13.4 Q-34.5 13.0 -34.75 12.7 L-35.4 11.9 -36.15 11.15 -37.4 10.4 -38.65 9.65 -39.15 8.9 -39.65 8.15 -39.65 7.4 -39.65 6.65 -39.65 5.9 -39.55 5.15 -39.15 4.4 -38.65 3.65 -37.65 2.9 -38.9 2.15 -40.4 1.35 -41.65 0.65 -42.15 -0.1 -42.65 -0.85 -42.65 -1.6 -42.6 -2.35 -42.4 -3.1 -43.5 -4.5 Q-44.95 -6.0 -45.95 -7.75 -46.85 -9.3 -48.05 -10.7 L-48.4 -11.35 -48.4 -12.1 -48.3 -12.85 -47.85 -13.55 -46.4 -14.85 -42.4 -15.3 Q-38.7 -15.05 -35.15 -16.1 L-34.15 -16.15 -29.9 -16.35 -27.65 -17.15 -26.65 -17.6 -25.15 -17.9 -23.15 -18.35 -21.15 -18.85 3.85 -20.1 3.9 -20.85 4.15 -21.6 4.65 -22.35 5.35 -23.1 6.35 -23.6 7.85 -23.75 7.85 -23.85 9.6 -23.35 10.85 -22.6 11.55 -21.85" fill="#663333" fill-opacity="0.2" fill-rule="evenodd" stroke="none"/>
    <path d="M-83.65 -21.95 Q-81.2 -22.65 -78.85 -23.7 -77.15 -24.4 -75.55 -25.4 L-75.05 -25.75 -74.65 -26.0 -74.15 -26.1 -73.15 -26.1 -72.55 -26.0 -71.8 -26.15 -69.8 -26.9 -68.3 -27.6 -67.65 -27.7 -67.15 -27.75 -66.4 -27.85 -65.8 -28.1 -65.15 -28.4 -64.8 -28.6 -64.15 -28.7 -57.55 -29.0 -56.65 -29.2 -53.65 -29.7 Q-52.35 -29.9 -51.3 -30.6 L-50.65 -30.75 Q-46.3 -31.7 -42.0 -33.0 L-41.15 -33.25 -40.05 -33.5 -35.25 -35.1 -34.65 -35.2 -34.65 -35.25 -27.65 -35.25 Q-25.9 -35.3 -24.9 -34.1 L-24.85 -33.75 -25.0 -33.35 -25.2 -33.2 Q-29.35 -31.7 -33.9 -32.25 L-34.65 -32.0 -36.15 -31.65 Q-37.95 -31.4 -39.55 -30.6 L-40.15 -30.45 Q-42.25 -29.7 -44.4 -29.3 -46.55 -28.9 -48.55 -28.1 L-49.15 -28.0 -50.4 -27.7 -51.25 -27.35 -51.55 -27.1 -52.15 -27.0 -54.65 -26.5 -57.65 -26.0 -63.4 -25.75 -64.15 -25.5 -65.3 -25.2 -66.5 -24.85 -67.05 -24.6 -67.65 -24.5 -68.65 -24.25 -69.4 -23.85 -70.15 -23.45 -70.65 -23.1 -70.9 -22.85 -71.15 -22.75 -71.65 -22.65 -72.9 -22.35 -73.3 -22.0 -73.65 -21.75 -74.15 -21.65 -75.8 -21.35 -76.55 -21.0 -76.9 -20.75 -77.05 -20.65 -78.75 -20.15 -82.65 -19.1 -83.15 -19.1 -83.9 -19.35 -84.3 -19.75 -84.4 -20.1 -84.4 -20.5 -84.4 -20.85 -84.35 -21.2 -84.15 -21.6 -83.9 -21.85 -83.65 -21.95" fill="#ffff99" fill-opacity="0.2" fill-rule="evenodd" stroke="none"/>
    <path d="M-75.3 -11.5 L-75.15 -11.4 -73.65 -11.25 -72.9 -11.0 -72.5 -10.65 -72.2 -10.35 -72.15 -10.25 -71.4 -10.0 -71.05 -9.6 -70.4 -8.85 -70.3 -8.5 -70.3 -7.75 -70.3 -7.35 -70.25 -7.0 -70.05 -6.6 -69.9 -6.25 -69.8 -5.85 -69.4 -5.5 -68.7 -4.7 -68.4 -4.35 -61.65 -4.25 -60.9 -3.95 -59.9 -3.5 -59.55 -3.1 -59.4 -2.75 -59.3 -2.35 -58.9 -2.0 -58.55 -1.6 -58.5 -1.25 -58.65 -0.85 -59.15 -0.6 -59.65 -0.5 -61.15 -0.25 -61.65 -0.25 -62.15 -0.4 Q-62.3 -0.4 -62.4 -0.5 L-66.15 -0.6 -66.65 -0.75 -66.9 -0.85 -69.15 -1.0 -70.05 -1.25 -70.4 -1.6 -71.0 -2.4 -71.15 -2.75 -71.35 -3.05 -71.8 -3.5 -72.05 -3.85 -72.15 -4.25 -72.3 -4.6 -72.5 -5.0 -72.7 -5.35 -72.9 -5.75 -73.0 -6.1 -73.05 -6.85 -73.15 -7.25 -73.2 -7.4 -74.05 -7.75 -74.3 -8.1 -74.65 -8.35 -76.15 -8.55 -77.05 -8.75 -77.3 -9.1 -77.55 -9.5 -77.55 -9.85 -77.55 -10.25 -77.55 -10.6 -77.4 -11.0 -77.15 -11.35 -76.9 -11.75 -76.2 -11.9 -76.15 -12.0 -75.55 -11.7 -75.3 -11.5" fill="#ffff99" fill-opacity="0.2" fill-rule="evenodd" stroke="none"/>
    <path d="M-65.05 -10.75 L-63.7 -9.7 -62.5 -8.5 -61.9 -7.85 -61.65 -7.75 -60.8 -7.5 -60.15 -7.1 -59.55 -6.7 -59.3 -6.5 -59.15 -6.4 -58.4 -6.1 -57.9 -5.7 -57.55 -5.35 -57.15 -5.0 -56.8 -4.75 -47.65 -4.6 -46.8 -4.35 -46.4 -3.95 -46.2 -3.6 -46.05 -3.25 -45.95 -2.85 -45.9 -2.5 -45.9 -2.1 -45.65 -1.75 -44.9 -1.0 -44.1 -0.2 -43.35 0.95 -43.3 1.25 -43.45 1.65 -43.65 2.0 -43.9 2.4 -44.3 2.65 -44.55 2.75 -45.15 2.9 -46.0 2.6 -46.75 2.25 -47.4 1.9 -47.8 1.5 -48.45 0.7 -48.9 0.0 -49.3 -0.75 -49.4 -0.85 -57.25 -1.35 -58.05 -1.5 -58.4 -1.85 -58.8 -2.25 -59.55 -2.6 -59.9 -3.0 -60.15 -3.35 -60.65 -3.75 -61.0 -4.15 -61.3 -4.5 -61.9 -4.85 -63.05 -5.25 -63.3 -5.6 -64.25 -6.75 -65.35 -7.9 -66.35 -9.0 -66.65 -9.35 -70.05 -9.75 -70.4 -10.15 -70.65 -10.5 -70.8 -10.85 -70.6 -11.15 -70.15 -11.35 -69.9 -11.35 -66.65 -11.25 -66.15 -11.35 -65.55 -11.1 -65.05 -10.75" fill="#ffff99" fill-opacity="0.2" fill-rule="evenodd" stroke="none"/>
    <path d="M32.85 -28.4 L42.4 -30.75 44.35 -31.35 51.35 -31.35 52.1 -31.1 52.6 -30.75 52.85 -30.5 53.0 -30.4 53.6 -30.1 54.1 -29.75 54.35 -29.5 54.5 -29.4 55.1 -29.1 55.5 -28.9 56.1 -28.6 56.6 -28.25 56.85 -28.0 57.0 -27.9 57.6 -27.6 58.1 -27.25 58.4 -27.05 60.1 -26.6 62.1 -26.1 64.4 -25.85 65.15 -25.65 68.75 -24.6 70.15 -24.1 70.5 -23.9 71.9 -23.4 74.15 -22.6 74.6 -22.25 75.0 -21.85 75.25 -21.6 75.4 -21.55 78.4 -21.35 79.15 -21.1 79.5 -20.75 79.75 -20.35 79.9 -20.0 79.85 -19.6 79.75 -19.25 79.65 -18.85 79.35 -18.5 79.15 -18.25 79.0 -18.15 78.4 -18.0 77.75 -18.15 77.65 -18.25 74.9 -18.35 74.0 -18.6 73.65 -19.0 73.25 -19.35 73.0 -19.6 72.85 -19.7 71.5 -20.1 69.5 -20.6 69.15 -21.0 68.9 -21.25 68.75 -21.3 57.9 -24.0 Q56.9 -24.2 56.0 -24.6 L55.6 -25.0 55.25 -25.35 54.85 -25.75 54.0 -26.15 53.7 -26.3 53.0 -26.6 52.6 -27.0 52.35 -27.25 52.25 -27.35 51.5 -27.6 51.1 -28.0 50.85 -28.1 46.6 -28.1 45.85 -27.9 38.35 -25.9 37.25 -25.6 36.85 -25.25 36.5 -25.0 35.85 -24.95 26.85 -25.35 24.1 -25.25 23.35 -25.0 21.0 -25.0 20.25 -24.75 19.85 -24.6 17.6 -24.35 16.5 -24.0 15.75 -23.75 15.35 -23.6 12.6 -23.35 11.85 -23.15 9.85 -22.85 9.6 -22.5 8.5 -22.35 8.1 -22.75 7.75 -23.1 7.8 -23.45 8.0 -23.85 8.7 -24.3 9.0 -24.5 9.35 -24.55 12.6 -24.85 13.35 -25.1 16.1 -25.35 17.25 -25.75 Q18.8 -26.35 20.5 -26.35 L20.85 -26.6 21.35 -26.7 23.6 -27.0 24.35 -27.25 26.85 -27.35 31.75 -27.85 32.0 -28.1 32.25 -28.25 32.85 -28.4" fill="#ffff99" fill-opacity="0.2" fill-rule="evenodd" stroke="none"/>
    <path d="M13.9 -1.9 L14.1 -1.6 14.15 -1.25 14.0 -0.85 13.5 -0.5 12.5 -0.05 11.25 0.65 10.45 1.35 9.6 2.1 8.85 2.5 8.45 2.85 8.0 3.25 7.75 3.65 7.65 4.0 7.6 4.4 7.35 4.75 7.1 5.15 7.0 5.5 6.85 5.9 6.75 6.25 6.6 6.65 6.35 7.0 6.25 7.4 6.25 7.75 6.25 8.15 6.25 8.5 6.2 8.85 6.0 9.25 5.75 9.65 5.75 10.0 5.75 10.4 4.75 11.9 4.4 12.65 3.8 13.8 3.1 14.9 2.85 15.25 2.85 15.65 2.75 16.0 2.35 16.75 1.95 17.5 1.6 17.9 1.1 18.25 Q0.75 19.35 0.0 20.15 L-1.6 21.35 -3.65 22.25 -4.0 22.65 -4.4 23.0 -4.9 23.4 -5.65 23.65 -8.25 23.45 -9.0 23.25 -9.2 23.1 -9.75 22.75 -9.95 22.35 -10.0 22.0 -9.85 21.65 -9.6 21.4 -9.15 21.15 -8.75 20.9 -8.25 20.75 -6.5 20.4 Q-5.95 19.75 -5.15 19.45 L-4.15 19.0 -3.75 18.8 -3.15 18.5 -1.9 17.05 -1.35 16.3 -0.7 15.5 -0.15 14.75 -0.1 14.4 0.0 14.05 0.25 13.65 0.6 13.25 0.75 12.9 1.25 12.15 1.6 11.75 1.85 11.4 1.95 11.0 2.0 10.65 2.25 10.3 2.6 9.85 2.85 9.5 2.95 9.15 3.0 8.75 3.2 8.4 3.35 8.0 3.45 7.65 3.5 7.25 3.5 6.9 3.5 6.5 3.55 6.15 4.0 5.4 4.25 5.0 4.45 4.65 4.6 4.25 4.65 3.9 Q4.65 3.7 4.8 3.55 L5.1 3.15 5.3 2.8 5.85 2.0 6.25 1.65 6.6 1.25 8.7 0.2 9.6 -0.5 10.35 -1.25 12.15 -1.9 13.35 -2.15 13.35 -2.25 13.9 -1.9" fill="#ffff99" fill-opacity="0.2" fill-rule="evenodd" stroke="none"/>
    <path d="M40.85 21.55 L41.05 21.9 41.1 22.25 40.95 22.65 40.75 23.0 40.25 23.4 40.0 23.75 39.75 24.0 39.5 24.15 38.85 24.4 38.5 24.75 38.1 25.15 37.35 25.85 37.0 26.15 36.25 26.4 36.0 26.75 35.75 27.0 35.5 27.15 34.9 27.4 34.5 27.65 Q27.45 29.05 21.0 26.4 L20.6 26.0 20.35 25.75 20.25 25.65 19.5 25.35 19.25 25.15 18.35 25.1 16.5 25.15 15.75 25.55 15.35 25.75 14.75 26.05 14.35 26.25 13.85 26.4 12.85 26.4 10.35 26.25 9.65 25.95 9.5 25.75 8.85 25.6 8.25 25.4 8.0 25.15 7.85 25.0 7.25 24.75 6.85 24.4 6.55 24.0 6.5 23.65 6.55 23.3 6.75 23.0 6.85 22.9 7.35 22.75 8.0 23.0 8.35 23.15 9.85 23.65 10.35 23.75 10.5 23.85 13.0 23.75 13.35 23.5 13.85 23.4 14.6 23.1 15.85 22.5 18.35 22.3 20.35 22.15 21.1 22.4 21.6 22.8 22.0 23.15 22.35 23.5 23.25 23.85 24.35 24.15 25.25 24.4 33.5 24.25 33.85 23.9 34.5 23.5 35.1 23.15 35.5 22.75 35.85 22.4 36.25 22.0 36.5 21.75 36.75 21.65 37.35 21.4 37.75 21.0 38.0 20.75 38.25 20.7 38.85 20.6 38.85 20.5 39.6 20.8 40.5 21.15 40.85 21.55" fill="#ffff99" fill-opacity="0.2" fill-rule="evenodd" stroke="none"/>
    <path d="M-40.5 22.0 L-40.25 22.4 -39.9 22.75 -39.55 23.0 -39.15 23.15 -38.4 23.4 -37.9 23.8 -37.2 24.55 -36.75 25.25 -36.7 26.0 -36.75 27.15 -36.75 28.25 -36.75 28.65 -36.6 29.0 -36.15 29.8 -35.75 30.5 -35.5 30.9 -35.4 31.25 -35.25 31.65 -34.9 32.0 -34.6 32.2 -34.0 32.4 -31.9 32.1 -31.15 31.9 -22.4 30.2 -21.65 30.0 Q-19.75 29.75 -18.1 30.65 L-17.9 30.9 -17.85 31.25 -18.0 31.65 -18.65 31.9 -21.65 32.4 -22.15 32.65 Q-25.9 33.0 -29.4 34.15 L-29.65 34.25 -31.05 34.65 -33.0 35.15 -33.5 35.4 -34.15 35.5 -35.0 35.25 -36.5 34.75 -36.75 34.4 -37.25 34.0 -37.65 33.65 -37.85 33.25 -38.0 32.9 -38.2 32.2 -38.75 31.0 -39.4 29.9 -39.5 29.5 -39.55 28.75 -39.55 28.0 -39.55 27.25 -39.6 26.9 -39.8 26.5 -40.3 26.15 -40.8 25.8 -41.55 25.4 -41.9 25.0 -42.3 24.65 -42.65 24.25 -43.05 23.9 -43.2 23.55 -43.4 23.15 -43.5 22.75 -43.7 22.05 -43.9 21.25 -44.15 20.5 -44.4 20.15 -44.65 19.8 -45.05 19.4 -45.2 19.05 -45.4 18.65 -45.55 18.25 -45.6 17.9 -45.65 17.5 -45.8 17.15 -46.05 16.75 -46.1 16.0 -46.15 15.25 -46.15 14.15 -46.15 13.75 -46.0 13.4 -45.8 13.0 -45.65 12.65 -45.4 12.25 -44.65 12.1 -44.65 12.0 -44.05 12.25 -43.8 12.65 -43.55 13.0 -43.4 13.4 -43.3 13.75 -43.15 14.15 -43.15 14.5 -43.15 14.9 -43.1 15.25 -43.05 15.65 -42.9 16.0 -42.65 16.4 -42.65 16.75 -42.65 17.15 -42.5 17.5 -42.25 17.9 -41.9 18.25 -41.75 18.65 -41.55 19.0 -41.4 19.4 -41.3 19.75 -41.05 20.15 -40.9 20.5 -40.8 20.9 -40.7 21.25 -40.65 21.65 -40.5 22.0" fill="#ffff99" fill-opacity="0.2" fill-rule="evenodd" stroke="none"/>
    <path d="M-39.9 5.9 L-39.55 6.3 -39.3 6.65 -39.2 7.0 -39.15 7.4 -38.5 8.1 -37.4 9.25 -36.75 9.9 -36.5 10.0 -35.9 10.25 -35.4 10.65 -35.15 11.0 -34.9 11.4 -33.95 12.2 -32.75 13.25 -32.5 13.45 -31.15 14.0 -30.4 14.25 -29.9 14.65 -29.15 15.35 -28.65 15.75 -28.4 16.15 -28.25 16.5 -28.35 16.85 -28.5 17.25 -28.75 17.65 -29.05 17.85 -29.65 18.0 -32.95 16.85 -35.0 16.0 -35.4 15.65 -35.75 15.25 -36.25 14.5 -36.75 14.15 -37.6 13.35 -38.15 12.65 -40.15 10.8 -41.65 9.25 -42.05 8.9 -42.05 8.75 -42.8 8.75 -43.15 9.15 -43.4 9.55 -43.55 9.9 -43.9 10.25 -44.65 10.5 -45.15 10.5 -46.15 10.25 -46.65 9.9 -47.4 9.5 -47.65 9.25 -48.4 9.0 -48.65 8.65 -48.9 8.25 -49.15 7.9 -49.15 7.5 -49.15 7.15 -49.15 6.75 -49.1 6.4 -48.9 6.0 -48.65 5.85 -48.15 5.7 -48.15 5.65 -47.55 5.9 -47.3 6.3 -47.15 6.65 -47.15 6.9 -47.1 6.95 -46.55 7.25 -46.15 7.35 -45.55 7.4 -45.15 7.1 -44.8 6.75 -44.05 6.0 -43.15 5.75 -40.65 5.65 -39.9 5.9" fill="#ffff99" fill-opacity="0.2" fill-rule="evenodd" stroke="none"/>
    <path d="M82.65 -2.1 L83.65 -2.0 84.0 -1.6 84.05 -1.25 83.9 -0.85 83.25 -0.5 83.0 -0.15 82.65 0.25 81.75 0.65 81.25 0.9 81.0 1.0 73.75 1.5 73.4 1.9 73.0 2.25 72.75 2.5 72.5 2.65 71.9 2.9 71.5 3.15 70.65 3.4 70.4 3.75 70.1 4.1 69.4 4.9 69.0 5.25 68.75 5.5 68.5 5.6 67.5 5.9 66.65 6.65 65.45 7.75 64.65 8.85 64.25 9.5 62.85 9.85 49.9 9.4 49.0 9.25 48.6 8.9 48.0 8.5 47.0 7.4 45.75 6.0 44.55 4.35 44.1 3.65 43.5 3.25 43.1 2.9 43.0 2.5 42.85 2.15 42.75 1.75 42.85 1.45 43.35 1.0 44.0 1.4 44.15 1.75 44.5 2.15 45.1 2.55 45.6 2.9 45.8 3.25 46.1 3.65 46.85 4.4 47.25 4.75 47.85 5.15 48.35 5.55 49.1 6.25 49.85 6.55 50.1 6.65 62.35 6.4 62.75 6.0 63.5 5.25 64.65 4.15 65.4 3.4 66.0 3.0 66.65 2.65 67.0 2.25 67.25 1.9 67.25 1.5 67.25 1.15 67.5 0.8 67.9 0.4 68.25 0.15 68.9 0.0 70.5 -0.25 70.75 -0.6 70.9 -1.0 71.15 -1.35 71.5 -1.75 72.4 -2.0 81.9 -2.25 82.65 -2.1" fill="#ffff99" fill-opacity="0.2" fill-rule="evenodd" stroke="none"/>
    <path d="M24.5 20.7 L26.0 20.3 26.35 20.2 26.35 20.15 26.85 20.15 27.35 20.3 27.95 20.6 28.1 20.75 27.85 20.85 27.35 21.05 26.6 21.25 26.1 21.65 24.9 22.05 24.1 22.4 23.75 22.75 23.35 23.15 22.75 23.55 22.5 23.75 22.35 23.85 21.85 24.05 21.15 24.3 20.85 24.5 3.85 25.0 3.0 24.75 2.25 24.35 1.75 24.0 1.55 23.6 1.5 23.25 1.5 22.9 1.65 22.55 1.85 22.15 2.25 21.9 2.85 21.75 3.75 22.0 Q11.75 22.4 19.75 22.4 L20.35 22.15 21.75 22.0 22.6 21.65 23.1 21.4 23.5 21.0 24.5 20.7" fill="#ffff99" fill-opacity="0.2" fill-rule="evenodd" stroke="none"/>
    <path d="M11.25 26.0 L11.85 25.9 12.5 26.05 13.1 26.25 13.6 26.65 13.85 27.05 14.0 27.4 13.95 27.75 13.85 28.15 13.75 28.5 13.4 28.9 13.1 29.25 12.75 29.65 11.85 29.9 7.85 29.75 6.75 29.3 5.35 28.8 4.5 28.5 4.1 28.15 3.85 27.9 3.75 27.85 2.6 27.9 1.65 28.3 1.0 28.65 0.5 28.9 -0.5 29.15 -1.0 29.5 -1.4 29.75 -2.15 30.0 -4.15 30.45 -5.4 30.65 -6.15 30.9 -7.15 30.9 -8.9 31.0 -9.65 31.25 -14.65 31.0 -15.25 30.75 -15.45 30.4 -15.5 30.0 Q-15.05 28.95 -13.65 28.95 L-9.4 28.75 -8.65 28.5 Q-6.85 28.5 -5.15 27.9 L-3.75 27.4 -2.55 26.95 -1.25 26.45 -0.4 26.15 0.1 25.75 0.5 25.4 1.35 25.0 1.75 24.75 2.35 24.7 4.35 24.6 4.35 24.5 4.85 24.5 5.6 24.75 6.1 25.15 6.35 25.5 7.0 25.9 8.1 26.25 10.75 26.25 11.25 26.0" fill="#ffff99" fill-opacity="0.2" fill-rule="evenodd" stroke="none"/>
    <path d="M-51.8 -31.35 Q-47.65 -31.15 -43.65 -32.05 L-37.45 -33.05 -33.4 -33.5 -33.0 -33.85 -32.95 -34.25 -32.75 -34.6 -32.5 -35.0 -31.5 -35.35 -30.65 -35.55 -30.65 -35.6 -29.75 -35.35 -29.4 -35.0 -29.0 -34.75 -22.65 -34.15 -21.65 -34.1 -20.75 -33.85 -20.15 -33.5 -19.5 -33.25 -17.65 -33.1 -16.8 -32.8 -15.4 -32.1 -15.15 -31.75 -15.0 -31.35 -14.9 -31.0 -14.9 -30.6 -14.9 -30.25 -15.0 -29.85 -15.15 -29.5 -15.4 -29.1 -15.75 -28.85 -16.05 -28.75 -16.65 -28.65 -18.15 -28.6 -19.0 -28.9 -20.5 -29.35 -21.0 -29.75 -21.5 -30.1 -22.0 -30.25 -28.15 -29.25 -40.15 -27.65 -42.05 -27.5 -44.75 -26.7 -45.65 -26.5 -46.4 -26.25 -47.15 -26.0 -50.65 -26.0 -51.65 -26.25 -52.0 -26.5 -52.15 -26.6 -52.9 -26.85 -53.4 -27.25 -54.05 -27.6 -56.15 -28.0 -57.15 -28.15 -58.55 -28.35 -59.05 -28.75 -59.65 -29.1 -59.55 -29.45 -59.15 -29.85 -58.4 -29.6 -55.65 -29.75 -53.65 -30.0 -53.05 -29.85 -52.85 -30.05 -52.7 -30.35 -52.5 -30.75 -52.15 -31.1 -51.8 -31.35" fill="#ffff99" fill-opacity="0.2" fill-rule="evenodd" stroke="none"/>
    <path d="M28.35 -27.9 L30.0 -28.1 30.75 -28.5 31.25 -28.75 31.85 -28.9 32.85 -29.1 33.35 -29.5 33.75 -29.75 34.25 -29.85 34.85 -29.95 34.85 -30.0 35.35 -30.0 36.1 -29.75 36.6 -29.35 36.9 -29.2 37.0 -29.25 37.25 -29.5 37.4 -29.6 37.85 -29.75 38.5 -29.5 38.65 -29.15 38.85 -28.75 39.0 -28.35 38.95 -28.0 38.85 -27.6 38.75 -27.25 38.35 -26.85 36.35 -25.75 33.75 -24.25 31.75 -23.7 30.5 -23.35 29.9 -23.0 29.35 -22.6 29.0 -22.35 28.35 -22.25 27.25 -22.0 26.35 -21.75 19.85 -21.75 19.0 -22.0 14.0 -22.25 13.5 -22.1 13.0 -22.0 12.35 -21.85 11.5 -22.1 10.85 -22.25 10.1 -22.1 9.35 -22.0 8.75 -22.25 8.55 -22.65 8.5 -23.0 8.65 -23.35 8.9 -23.55 11.0 -24.1 11.4 -24.45 11.75 -24.75 14.4 -25.35 17.5 -25.75 17.9 -26.1 18.25 -26.35 25.35 -27.5 28.35 -27.9" fill="#ffff99" fill-opacity="0.2" fill-rule="evenodd" stroke="none"/>
    <path d="M55.1 -5.25 L56.0 -5.5 56.4 -5.85 56.75 -6.1 58.0 -6.4 62.0 -7.1 63.5 -7.5 63.9 -7.85 64.05 -8.25 64.25 -8.6 64.5 -9.0 65.4 -9.25 68.9 -9.25 69.6 -8.95 69.9 -8.75 70.65 -8.75 70.9 -8.85 71.5 -9.15 72.5 -9.6 73.5 -10.0 73.9 -10.25 74.35 -10.3 74.4 -10.35 75.9 -10.25 76.85 -10.05 77.65 -9.85 78.0 -9.5 77.8 -9.15 77.35 -8.75 76.9 -8.5 75.9 -8.45 74.65 -8.25 74.35 -8.05 Q74.0 -7.85 73.65 -7.75 L73.0 -7.35 72.5 -6.95 72.15 -6.6 71.85 -6.4 71.35 -6.25 69.85 -6.05 68.9 -6.0 68.0 -6.25 66.5 -6.25 66.25 -5.85 66.0 -5.65 65.4 -5.35 65.0 -5.0 64.65 -4.75 64.5 -4.6 63.8 -4.3 63.5 -4.1 62.9 -4.05 58.0 -3.6 57.35 -3.5 56.5 -3.7 55.85 -3.85 55.1 -3.8 54.0 -3.75 53.6 -4.1 53.7 -4.45 53.85 -4.85 54.35 -5.1 55.1 -5.25" fill="#ffff99" fill-opacity="0.2" fill-rule="evenodd" stroke="none"/>
    <path d="M-7.9 22.75 L-7.4 22.5 -6.65 22.25 -5.4 22.65 -4.6 22.25 -2.4 21.0 -1.15 20.25 -0.6 20.6 -0.4 20.9 -0.45 21.2 -0.85 21.9 -1.8 22.85 -3.45 24.2 -4.55 24.9 Q-6.05 25.65 -7.5 25.25 L-7.75 24.9 -8.9 23.5 -8.15 23.15 -7.9 22.75 M-22.85 -20.95 L-21.65 -21.1 -19.45 -21.0 -18.35 -21.0 -17.3 -20.95 -16.15 -20.6 -15.55 -20.35 -15.25 -20.3 -14.15 -20.25 -13.4 -20.0 -12.25 -19.8 -10.4 -19.5 -8.9 -19.75 -7.15 -20.2 -6.15 -20.5 -4.5 -20.25 -4.3 -19.85 -4.15 -19.5 -4.15 -19.1 -4.65 -18.35 -6.05 -18.0 -8.05 -17.65 -9.65 -17.25 -10.75 -17.65 -11.15 -17.85 -12.15 -17.9 -13.15 -18.0 -13.9 -18.25 -14.4 -18.5 -15.55 -18.75 -16.3 -19.1 -16.9 -19.35 -19.6 -19.45 -21.9 -19.55 -24.2 -19.65 -25.35 -19.65 -27.65 -19.5 -28.05 -19.85 -28.05 -20.0 -27.25 -20.4 -25.85 -20.8 -24.05 -20.95 -22.85 -20.95 M-62.7 -18.7 L-61.6 -18.75 -60.55 -18.85 -59.45 -18.85 -58.35 -18.9 -57.25 -18.9 -56.15 -18.95 -54.95 -18.7 -53.2 -18.2 -51.5 -17.8 -49.95 -17.35 -48.55 -16.75 -47.9 -15.75 -46.55 -15.25 -45.15 -14.85 -44.15 -14.6 -43.15 -14.3 -41.55 -14.5 -40.65 -15.25 -39.65 -15.85 -39.05 -15.6 -38.4 -14.5 -39.8 -11.85 -40.65 -11.65 -41.85 -11.5 -42.45 -11.5 -43.15 -11.5 -44.05 -11.9 Q-44.9 -12.35 -45.9 -12.4 L-46.9 -12.85 -48.4 -13.5 -49.6 -14.3 -50.3 -15.0 -50.45 -15.9 -51.55 -16.25 -52.15 -16.5 -52.8 -16.8 -53.45 -17.0 -54.15 -17.25 -54.65 -17.35 -56.15 -17.75 -58.4 -17.7 -60.65 -17.85 -62.8 -18.1 -64.9 -18.5 -63.8 -18.6 -62.7 -18.7 M15.6 -1.1 Q15.55 -0.3 15.1 0.4 L14.05 0.95 12.8 1.35 11.5 1.85 Q10.5 2.1 9.6 2.6 8.95 2.95 8.5 3.6 L7.75 4.65 Q6.9 5.95 6.55 7.25 L6.2 8.75 Q5.9 10.4 5.2 11.75 L4.75 12.9 4.6 13.65 4.55 14.4 4.25 15.5 4.05 16.25 3.55 17.7 Q2.95 18.35 2.25 18.1 L2.85 17.25 2.7 16.5 Q2.45 15.6 2.8 14.65 L2.95 13.9 3.15 12.8 3.5 11.45 3.9 10.15 4.1 9.45 4.7 7.55 5.3 5.6 Q5.45 5.05 5.75 4.6 L6.85 2.65 7.2 1.85 7.9 0.8 Q8.35 0.45 8.9 0.3 L10.75 -0.1 Q11.8 -0.4 12.8 -1.05 L13.35 -1.3 14.85 -1.75 15.6 -1.1 M25.35 0.8 L26.05 1.2 26.55 1.95 27.45 3.45 Q27.95 4.0 28.2 4.9 L28.75 6.4 29.4 7.95 29.55 8.65 Q29.6 9.75 30.35 10.4 32.25 10.05 32.6 11.75 L32.25 12.5 Q30.45 13.2 28.6 12.5 L27.85 11.0 27.85 9.5 Q27.8 8.35 27.4 7.3 L26.6 5.1 26.2 3.5 Q26.05 2.65 25.45 2.1 24.65 1.4 25.15 0.85 L25.35 0.8 M64.75 -5.5 L64.85 -6.6 66.0 -7.75 Q66.6 -8.3 67.35 -8.1 L67.95 -7.75 68.6 -7.2 71.1 -7.25 72.65 -8.55 75.0 -9.9 Q75.35 -10.15 75.85 -10.25 L76.4 -9.85 76.6 -9.6 76.55 -9.25 Q76.4 -8.25 75.4 -7.7 L73.65 -6.55 71.85 -4.85 69.85 -4.7 67.1 -4.85 66.25 -5.5 66.0 -5.1 65.35 -4.85 64.85 -5.2 64.75 -5.5 M48.85 -32.9 L49.1 -32.9 51.25 -31.95 52.85 -31.25 54.55 -30.5 55.95 -29.85 57.05 -29.15 58.2 -28.5 60.0 -27.25 61.35 -26.1 62.55 -26.0 64.3 -25.75 66.5 -25.25 69.75 -24.25 71.65 -23.55 73.05 -22.8 74.35 -21.85 75.25 -21.1 75.95 -20.65 Q76.25 -20.4 76.6 -20.25 L78.8 -19.85 Q79.35 -19.8 79.7 -19.35 L80.1 -18.75 79.75 -18.0 78.85 -17.6 76.35 -17.6 Q75.35 -17.85 74.75 -18.35 L74.0 -19.1 73.2 -19.75 71.6 -21.0 70.55 -21.65 69.35 -22.1 68.0 -22.5 65.75 -23.25 64.6 -23.55 62.55 -23.7 60.75 -24.1 60.4 -24.5 59.8 -25.25 58.8 -26.25 57.4 -27.15 56.4 -27.9 55.55 -28.5 54.35 -29.3 53.05 -29.85 51.7 -30.45 49.75 -31.45 47.1 -31.5 46.85 -31.9 47.1 -32.25 48.0 -32.65 48.85 -32.9 M39.3 -8.65 L38.6 -9.35 37.1 -10.5 37.85 -10.55 Q38.7 -10.55 39.5 -10.0 L40.55 -9.25 41.8 -8.55 42.4 -8.25 43.7 -7.5 44.9 -6.8 Q46.35 -6.25 47.0 -4.85 L47.95 -4.45 Q48.4 -4.2 48.9 -4.05 L53.35 -3.75 53.85 -3.35 54.1 -3.1 54.1 -2.75 53.95 -2.4 53.85 -2.2 52.25 -2.0 51.15 -2.0 50.05 -2.0 48.85 -2.0 Q48.1 -2.3 47.5 -2.8 L46.1 -3.85 45.3 -4.45 44.5 -5.15 43.3 -5.85 41.8 -6.85 40.85 -7.45 39.3 -8.65 M10.75 -18.0 L11.1 -17.6 11.9 -16.9 13.1 -16.15 14.6 -15.0 Q15.2 -14.2 16.05 -13.8 L17.65 -13.25 Q18.2 -12.95 18.85 -12.75 L19.85 -12.85 21.95 -13.05 24.85 -13.4 27.85 -13.6 29.85 -13.75 30.85 -13.85 33.65 -13.3 35.05 -12.9 36.5 -12.25 36.9 -11.5 36.6 -10.55 35.85 -10.4 35.0 -10.5 33.65 -10.4 32.15 -10.35 30.55 -10.8 28.85 -11.0 25.45 -11.0 23.35 -10.8 21.05 -10.35 19.15 -10.55 18.6 -10.85 17.25 -11.25 16.65 -11.85 15.15 -12.9 Q14.2 -13.7 13.4 -14.4 L11.9 -15.8 11.2 -16.45 10.5 -17.25 9.05 -18.25 7.25 -18.95 7.35 -19.05 8.05 -19.0 9.7 -18.6 10.75 -18.0 M21.4 -28.0 L22.25 -28.3 24.15 -28.6 27.45 -29.15 29.65 -29.45 31.85 -29.8 33.0 -30.15 34.65 -30.9 36.85 -31.7 38.5 -32.2 39.4 -32.55 40.75 -33.0 42.85 -33.3 45.5 -33.15 45.85 -32.4 45.65 -31.7 45.35 -31.05 44.85 -30.9 Q43.95 -31.45 43.0 -31.25 L41.35 -31.0 40.7 -30.85 39.35 -30.4 Q38.35 -29.85 37.35 -29.85 L35.55 -29.2 34.55 -28.85 33.35 -28.35 31.85 -28.0 31.15 -28.0 29.65 -28.0 28.2 -27.8 25.3 -27.15 21.85 -26.6 20.7 -26.5 20.25 -25.85 19.85 -25.8 18.85 -25.65 18.35 -25.5 16.35 -25.0 14.85 -24.65 11.75 -23.95 9.85 -23.6 5.25 -23.75 5.85 -22.65 Q6.3 -21.7 7.1 -21.1 L7.05 -20.8 6.8 -20.2 5.85 -19.85 4.25 -20.6 4.0 -21.05 3.9 -21.4 3.85 -21.75 3.75 -22.05 3.55 -22.45 2.6 -23.25 1.7 -23.9 0.05 -24.85 -0.9 -25.3 -1.15 -25.5 -2.15 -25.75 Q-3.2 -26.05 -3.95 -26.45 L-5.25 -27.1 -6.8 -27.75 -8.35 -28.4 -9.65 -28.9 -11.0 -29.05 -12.4 -29.05 -15.35 -29.25 Q-16.4 -29.15 -17.1 -29.8 -17.8 -30.5 -18.8 -30.75 L-19.05 -31.15 Q-19.4 -31.85 -19.95 -32.05 L-21.75 -32.75 Q-22.75 -33.25 -23.75 -33.85 -25.2 -34.8 -26.85 -34.9 L-27.65 -34.25 Q-28.35 -33.8 -29.15 -34.0 L-30.85 -34.25 -33.25 -34.25 -36.55 -34.25 -37.65 -33.5 -39.15 -32.95 Q-40.75 -32.85 -42.55 -32.9 L-43.05 -32.6 Q-43.85 -32.2 -44.8 -31.9 L-46.55 -31.35 -47.75 -31.05 -49.55 -30.75 -51.4 -30.15 -53.45 -29.5 -55.55 -29.1 -58.35 -28.55 Q-59.35 -28.25 -60.35 -28.1 L-62.95 -27.75 -63.3 -27.3 -64.15 -27.0 -64.8 -27.2 -66.05 -27.25 -67.8 -26.6 -70.1 -25.65 -71.7 -25.3 -74.55 -24.85 -75.9 -24.3 Q-76.55 -23.95 -77.25 -23.7 L-80.05 -22.7 Q-81.15 -22.25 -82.15 -21.95 -83.35 -22.05 -83.4 -21.25 L-82.85 -20.9 Q-81.6 -20.1 -80.75 -18.6 L-79.15 -16.15 -77.4 -14.1 -77.45 -13.0 Q-77.5 -12.15 -77.05 -11.5 L-75.35 -10.4 -74.55 -9.85 -74.25 -9.45 -74.0 -8.75 -73.7 -7.85 -73.3 -7.1 -72.6 -6.25 -71.6 -5.2 -70.3 -4.05 -68.9 -2.8 Q-68.55 -2.45 -68.1 -2.25 -66.8 -1.65 -65.4 -1.85 L-62.5 -1.75 -58.65 -1.65 -60.25 -3.05 -61.2 -3.75 Q-62.5 -4.3 -63.7 -5.5 L-65.2 -6.9 Q-65.95 -7.55 -66.55 -8.5 L-67.15 -8.25 -67.85 -8.35 -69.35 -8.8 Q-70.6 -9.1 -70.8 -10.25 L-72.2 -11.15 -72.75 -11.8 -71.9 -12.0 Q-70.7 -12.1 -69.65 -11.35 L-69.15 -10.6 -68.35 -10.75 -68.25 -11.5 -67.9 -12.25 -67.15 -12.5 -66.55 -12.25 -66.05 -11.5 -66.05 -10.1 -64.45 -8.3 -62.95 -7.0 -61.35 -6.0 -59.8 -4.95 -58.4 -3.9 -57.0 -3.05 Q-56.35 -2.75 -55.7 -2.8 L-53.6 -3.2 -51.55 -3.55 -48.4 -3.5 -48.15 -3.1 -47.85 -2.35 -48.05 -1.55 -46.75 -0.6 -46.3 -0.25 -45.6 0.05 -44.4 1.1 -43.1 1.85 -40.35 2.25 Q-38.7 2.65 -37.15 2.25 L-36.4 2.9 -36.45 3.25 Q-36.65 4.0 -37.4 4.65 L-41.15 5.0 -44.05 4.75 Q-44.75 3.45 -45.85 2.3 L-47.95 0.2 -49.7 -0.95 -50.65 -0.75 Q-52.3 -0.6 -53.7 0.05 L-53.15 0.75 -52.75 1.3 -52.3 1.75 -52.05 2.15 -51.5 2.85 -50.6 3.7 -49.1 5.5 -48.3 6.5 -46.4 8.9 -41.9 9.5 -41.65 9.9 -41.35 10.65 -41.45 11.0 Q-41.7 11.9 -42.65 12.0 L-45.55 12.0 -45.5 13.8 -45.45 14.5 -45.3 16.4 -44.85 18.15 -44.0 19.7 -42.9 21.1 -42.0 22.35 -41.15 23.6 -40.75 24.2 -39.95 25.4 -38.9 26.65 -38.55 26.9 -36.65 27.3 -33.65 26.65 -33.05 26.9 -32.65 27.65 -32.75 28.0 Q-33.05 28.8 -33.9 29.75 L-34.65 29.9 -35.4 30.0 -35.1 30.45 Q-34.7 30.95 -34.7 31.85 L-35.1 32.7 -34.35 32.95 Q-33.2 33.5 -31.9 33.65 L-31.05 33.3 -30.15 32.9 -29.45 32.9 -28.1 32.6 -25.65 32.4 -23.75 32.25 -20.95 31.85 -17.75 31.05 -18.6 30.65 -19.35 30.0 -20.6 28.8 -21.65 27.85 Q-22.2 27.45 -22.35 26.65 L-22.9 25.15 -23.9 24.4 -23.95 24.0 Q-24.1 23.05 -24.9 22.5 L-26.0 21.55 -27.2 20.5 Q-28.25 19.5 -29.3 19.15 L-29.6 19.45 -30.1 19.55 -31.35 19.45 Q-32.35 18.8 -33.55 18.75 L-33.8 18.4 -34.35 17.75 -35.8 16.5 -36.45 15.85 -38.0 14.6 -39.9 13.15 -40.65 13.25 -41.4 12.65 -40.75 11.95 Q-40.2 11.45 -39.4 11.5 -38.65 11.85 -37.95 12.3 L-37.05 13.0 -35.85 13.85 -33.9 15.25 -32.6 15.8 -29.9 16.5 -28.95 17.65 -28.85 18.0 -28.85 18.35 -28.85 18.4 -27.3 19.05 -26.7 19.45 -25.9 20.1 -24.1 21.7 -23.35 22.5 -22.05 23.9 Q-21.35 24.4 -20.9 25.25 L-20.9 25.35 -19.55 25.75 -19.0 26.5 -18.45 27.15 -17.15 28.6 -16.9 28.7 -15.15 28.75 -14.25 28.95 -12.45 29.35 -10.95 29.7 -8.25 30.1 -7.15 30.1 Q-5.85 29.8 -4.75 30.45 L-3.95 30.15 Q-2.6 29.55 -1.0 29.25 L-0.35 28.45 0.3 27.8 0.75 27.45 2.6 27.5 3.0 28.25 3.15 28.85 7.0 28.95 7.15 28.8 8.0 28.4 8.25 28.0 10.0 26.75 8.9 26.55 7.85 26.0 Q6.6 25.05 6.55 23.8 L6.8 23.55 7.35 23.25 7.95 23.55 8.8 24.15 9.7 24.6 10.35 24.65 11.0 24.85 13.85 24.5 15.35 23.85 17.05 23.2 19.5 23.25 19.7 23.7 19.85 24.4 19.65 24.75 19.35 25.15 16.1 26.0 15.75 26.4 15.5 26.65 18.55 26.3 19.75 25.9 22.1 26.0 22.5 26.55 22.85 26.5 24.5 26.85 26.45 26.9 29.3 26.55 32.15 26.15 35.35 25.2 36.3 24.1 37.5 22.8 37.85 22.15 38.3 21.05 38.85 19.9 36.35 20.0 35.75 19.75 Q35.25 18.95 35.1 18.2 34.75 16.85 34.8 15.65 L34.65 13.45 Q33.75 12.9 33.75 11.9 34.0 11.0 34.85 10.5 L35.35 10.4 Q36.7 10.35 37.1 11.4 L37.0 13.25 36.85 17.75 37.85 18.9 39.1 19.65 42.0 19.75 42.35 20.4 43.65 19.8 Q45.45 19.0 47.35 18.9 48.7 17.9 49.65 16.4 L51.6 13.7 Q52.8 12.25 54.25 11.05 L53.1 11.25 53.35 10.9 54.85 10.15 55.25 9.4 56.65 8.95 57.85 8.5 62.5 8.0 Q63.05 7.3 63.85 7.1 L66.0 6.4 66.6 5.25 67.15 4.15 Q67.45 3.4 68.05 3.0 L69.8 2.0 72.1 -0.25 72.85 -0.5 74.25 -0.5 77.35 -1.1 79.8 -1.7 82.35 -3.0 83.2 -4.45 83.15 -4.5 Q82.6 -5.3 82.15 -6.4 L81.35 -7.85 81.35 -10.1 81.5 -11.8 81.55 -14.2 81.55 -16.85 80.95 -17.75 Q80.85 -18.0 80.9 -18.25 L82.6 -18.35 83.0 -18.0 83.1 -15.75 83.1 -14.85 83.15 -13.15 83.45 -9.8 83.7 -8.65 84.3 -7.55 Q84.95 -6.45 84.95 -5.25 L84.75 -4.85 84.15 -3.75 83.8 -3.05 83.0 -1.95 Q82.1 -1.1 81.2 -0.65 L79.9 -0.05 78.15 0.45 76.35 0.85 75.1 1.15 74.8 1.3 74.05 2.05 73.1 3.15 72.4 3.7 71.15 4.6 70.4 5.3 Q69.85 6.0 68.95 6.15 L68.5 6.75 67.5 8.0 66.15 9.25 64.9 10.1 64.0 10.55 62.75 11.1 59.95 11.05 57.85 10.75 56.35 11.05 55.85 11.95 55.3 12.75 53.85 14.35 52.95 15.3 51.15 17.15 50.35 18.15 48.0 20.9 45.35 21.75 44.1 22.0 42.8 22.95 Q42.2 23.55 41.35 23.65 L40.65 23.4 40.2 24.25 39.75 25.0 39.3 25.75 38.35 27.0 38.15 27.05 37.35 27.25 36.7 27.25 35.3 27.5 33.85 27.75 32.35 28.15 30.85 28.45 27.85 29.05 23.85 29.25 Q22.85 29.55 22.0 28.75 L21.3 28.75 20.3 28.95 17.55 29.2 15.75 29.15 13.85 29.55 11.85 30.1 11.35 30.25 10.35 30.55 9.3 30.8 7.65 31.15 6.35 31.1 3.85 31.0 1.75 30.5 1.7 30.5 Q0.7 31.0 -0.15 31.4 L-1.15 31.75 -3.2 32.3 Q-4.0 32.75 -4.8 32.85 -5.2 33.65 -6.15 33.6 L-7.5 33.35 -9.95 32.9 -13.3 32.5 -13.9 33.25 -16.5 33.65 -18.15 33.85 -18.75 34.05 -19.95 34.3 -22.15 34.45 -23.7 34.65 -25.3 34.95 -26.9 35.15 -28.85 35.55 -30.75 36.05 -31.65 36.4 Q-33.3 36.4 -34.7 35.45 L-36.8 34.3 -38.15 33.2 -39.05 33.0 -39.3 32.6 -39.5 31.9 -39.3 31.5 -39.2 31.4 -39.05 31.0 -39.55 30.4 -40.6 29.05 -41.25 28.2 -42.25 27.1 -43.25 25.65 -44.55 23.5 -44.55 22.75 -44.8 22.4 Q-45.2 21.75 -45.7 21.45 -47.0 21.0 -47.4 20.0 L-47.2 17.75 -47.05 15.15 -46.85 13.3 -46.8 12.0 -47.55 11.75 -48.6 10.45 -49.6 9.05 -50.1 8.35 -50.65 7.25 Q-51.3 6.1 -52.2 5.05 L-53.65 3.4 -55.55 2.9 -56.05 2.25 -58.05 1.7 -60.35 1.6 -63.4 1.55 -65.9 1.3 -69.05 0.75 -69.55 0.15 -70.65 -1.15 -71.85 -2.35 -74.1 -4.75 -75.0 -6.3 -75.5 -7.6 -76.4 -7.85 -76.85 -8.2 -77.7 -8.95 Q-78.55 -9.45 -79.1 -10.2 L-79.6 -10.95 -79.85 -11.65 -79.9 -12.35 -79.95 -13.1 -80.1 -13.45 -80.55 -14.25 -81.6 -16.15 -82.25 -17.5 -83.1 -18.7 -85.3 -20.25 -85.55 -21.0 -85.4 -21.35 -85.0 -21.95 -84.45 -22.1 -82.95 -22.95 -81.35 -23.75 -80.65 -23.95 -79.25 -24.55 -77.15 -25.35 -75.8 -25.95 -74.55 -26.5 -73.0 -26.7 -71.65 -27.1 -70.65 -27.6 -69.65 -28.1 -68.35 -28.65 -67.15 -29.1 -65.65 -29.25 Q-64.25 -29.5 -63.25 -28.35 L-62.3 -28.7 -60.15 -29.35 -58.85 -29.5 -58.2 -29.6 -57.6 -29.75 -56.95 -29.85 -56.35 -30.05 -55.75 -30.2 -54.2 -30.65 -51.8 -31.35 -50.65 -31.85 -50.1 -31.95 -48.35 -32.45 -45.8 -33.0 -44.3 -33.7 -42.8 -34.35 -41.4 -34.7 -40.0 -34.9 -38.6 -35.5 -37.75 -35.9 -34.75 -36.25 -29.95 -36.3 -27.05 -36.15 -26.7 -35.8 -25.4 -35.75 -23.75 -34.95 -22.3 -34.3 -21.65 -34.0 -20.8 -33.65 -20.1 -33.5 -19.45 -33.25 -18.9 -33.05 -17.55 -32.15 Q-16.8 -31.7 -16.15 -31.75 L-15.55 -31.5 -14.85 -31.4 -13.45 -31.4 -11.45 -31.4 -10.2 -31.15 -9.15 -30.9 -7.95 -30.45 -5.85 -29.6 -4.05 -28.75 Q-3.1 -28.25 -2.1 -27.9 -0.95 -27.55 -0.1 -27.05 0.9 -26.35 2.1 -26.0 3.1 -25.8 3.8 -24.8 L5.5 -25.05 7.15 -25.25 8.9 -25.3 10.6 -25.35 12.5 -25.7 Q13.4 -25.9 14.3 -26.25 L15.95 -26.85 16.35 -27.1 17.5 -27.35 18.85 -27.8 20.5 -27.8 21.4 -28.0" fill="#333333" fill-rule="evenodd" stroke="none"/>
    <path d="M-78.85 -16.6 L-77.75 -16.95 -77.35 -17.05 -77.2 -17.1 -77.05 -17.1 -76.85 -16.9 -76.95 -16.75 -77.2 -16.55 -78.7 -15.95 -79.0 -15.8 -79.3 -15.6 -79.6 -15.6 -79.95 -15.45 -80.3 -15.3 -80.55 -15.3 -80.45 -15.45 -80.05 -15.65 -79.8 -15.85 -79.7 -16.05 -79.45 -16.2 -79.2 -16.4 -78.85 -16.6" fill="#333333" fill-rule="evenodd" stroke="none"/>
    <path d="M-76.55 -15.9 L-75.9 -16.25 -75.5 -16.4 -75.35 -16.4 -75.2 -16.2 -75.15 -16.05 -75.25 -15.85 -76.2 -15.3 -76.95 -14.9 -77.35 -14.7 -77.65 -14.55 -77.95 -14.35 -78.95 -14.1 -79.55 -14.05 -79.45 -14.2 -79.25 -14.4 -79.1 -14.6 -78.3 -15.0 -77.75 -15.35 Q-77.15 -15.55 -76.55 -15.9" fill="#333333" fill-rule="evenodd" stroke="none"/>
    <path d="M-75.5 -14.2 L-74.6 -14.15 -74.45 -13.95 -74.4 -13.8 -74.5 -13.6 -74.75 -13.45 -75.0 -13.4 -75.85 -13.35 -76.45 -13.15 -76.95 -13.05 -77.25 -12.85 -77.6 -12.65 -78.1 -12.6 -78.25 -12.8 -77.95 -13.1 Q-77.25 -13.6 -76.45 -13.9 L-75.85 -14.1 -75.5 -14.2" fill="#333333" fill-rule="evenodd" stroke="none"/>
    <path d="M-61.25 -4.2 L-60.85 -4.1 -60.7 -3.9 -60.75 -3.75 -60.9 -3.5 -61.05 -3.35 -61.25 -3.2 -61.55 -3.15 -62.05 -2.6 -62.75 -1.8 -63.35 -1.1 -63.7 -1.05 -64.0 -1.0 -64.05 -1.1 -63.85 -1.35 -63.6 -1.9 -63.1 -2.45 -62.65 -3.05 -62.45 -3.4 -62.25 -3.6 -61.95 -3.8 -61.5 -4.05 -61.25 -4.15 -61.25 -4.2" fill="#333333" fill-rule="evenodd" stroke="none"/>
    <path d="M-63.85 -4.0 L-63.75 -3.85 -63.85 -3.65 -64.2 -3.45 -64.25 -3.25 -64.3 -3.1 -64.35 -2.9 -64.65 -2.55 -64.95 -2.15 -65.35 -1.6 -65.5 -1.4 -65.55 -1.2 -65.6 -1.0 -65.7 -0.85 -65.8 -0.7 -66.05 -0.45 -66.2 -0.3 -66.35 -0.25 -66.35 -0.45 -66.3 -0.65 -66.3 -0.85 -66.3 -1.0 -66.25 -1.2 -66.2 -1.4 -66.1 -1.6 -66.05 -1.75 -65.8 -2.15 -65.5 -2.5 -65.1 -2.9 -65.05 -3.1 -65.0 -3.25 -64.95 -3.45 -64.85 -3.65 -64.7 -3.85 -64.45 -3.95 -64.2 -4.0 -64.0 -4.0 -63.85 -4.0" fill="#333333" fill-rule="evenodd" stroke="none"/>
    <path d="M-66.85 -4.15 L-66.7 -3.95 -66.6 -3.4 -66.6 -2.65 -66.6 -2.1 -66.7 -1.95 -67.0 -1.75 -67.35 -1.4 -67.7 -1.05 -67.85 -1.0 -67.8 -1.2 -67.7 -1.4 -67.55 -1.6 -67.45 -1.75 -67.4 -1.95 -67.35 -2.35 -67.35 -2.7 -67.35 -2.9 -67.4 -3.05 -67.6 -3.2 -67.65 -3.4 -67.65 -3.6 -67.5 -3.95 -67.45 -4.1 -67.25 -4.15 -67.0 -4.15 -66.85 -4.15" fill="#333333" fill-rule="evenodd" stroke="none"/>
    <path d="M-68.0 -6.85 L-68.0 -6.65 -68.05 -6.3 -68.2 -5.9 -68.4 -5.55 -68.5 -5.35 -68.5 -5.15 -68.5 -4.95 -68.55 -4.8 -68.7 -4.6 -68.8 -4.4 -69.0 -4.35 -69.1 -4.4 -69.05 -4.8 -69.0 -5.15 -68.95 -5.5 -68.85 -5.7 -68.75 -5.9 -68.65 -6.1 -68.55 -6.25 -68.5 -6.65 -68.4 -6.95 -68.25 -7.0 -68.1 -7.0 -68.0 -6.85" fill="#333333" fill-rule="evenodd" stroke="none"/>
    <path d="M-69.6 -6.85 L-69.45 -6.65 -69.45 -6.45 -69.45 -6.3 -69.5 -6.1 -69.5 -5.9 -69.6 -5.75 -69.85 -5.65 -70.0 -5.85 -70.0 -6.0 -70.05 -6.2 -70.05 -6.4 -70.05 -6.6 -69.95 -6.75 -69.75 -6.85 -69.6 -6.85" fill="#333333" fill-rule="evenodd" stroke="none"/>
    <path d="M-20.45 28.5 L-20.4 28.5 -20.15 28.65 -20.05 28.8 -20.0 29.0 -20.0 29.15 -20.0 29.35 -20.0 29.75 -20.3 30.25 -20.85 31.05 -21.1 31.4 -21.35 31.6 -21.65 31.75 -21.95 31.55 -22.05 31.4 -22.0 31.25 -21.8 30.85 -21.6 30.5 -21.4 30.3 -21.25 30.1 -21.05 29.9 -20.95 29.75 -20.85 29.55 -20.85 29.35 -20.85 29.15 -20.85 29.0 -20.85 28.8 -20.75 28.6 -20.45 28.5" fill="#333333" fill-rule="evenodd" stroke="none"/>
    <path d="M-21.4 27.4 L-21.3 27.55 -21.3 27.75 -21.35 27.9 -21.45 28.0 -21.65 28.1 -22.0 28.25 -22.05 28.4 -22.25 28.8 -22.55 29.35 -22.75 29.75 -22.75 29.9 -22.75 30.1 -22.8 30.3 -22.9 30.45 -23.15 30.6 -23.65 30.6 -23.9 30.5 -23.9 30.3 -23.8 30.1 -23.7 29.9 -23.6 29.75 -23.5 29.15 -23.1 28.4 -22.65 27.65 -22.5 27.35 -22.4 27.3 -22.2 27.25 -22.15 27.25 -21.65 27.25 -21.4 27.4" fill="#333333" fill-rule="evenodd" stroke="none"/>
    <path d="M-24.05 27.4 L-23.8 27.6 -23.7 27.8 -23.6 28.0 -23.6 28.15 -23.6 28.35 -23.65 28.55 -23.8 28.75 -24.0 28.9 -24.15 29.1 -24.55 29.25 -24.75 29.4 -25.05 29.5 -24.95 29.3 -24.8 29.1 -24.75 28.9 -24.65 28.75 -24.5 28.55 -24.3 28.35 -24.25 28.15 -24.3 28.0 -24.45 27.8 -24.5 27.6 -24.4 27.5 -24.35 27.45 -24.15 27.4 -24.05 27.4" fill="#333333" fill-rule="evenodd" stroke="none"/>
    <path d="M-31.6 25.9 L-31.3 25.85 -31.15 26.05 -31.05 26.25 -31.1 26.4 -31.25 26.6 -31.3 27.0 -31.3 27.35 -31.3 27.75 -31.3 27.9 -31.4 28.1 -31.6 28.3 -31.8 28.25 -32.0 28.1 -32.05 27.55 -32.05 27.0 -32.0 26.4 -31.9 26.25 -31.65 25.9 -31.6 25.9" fill="#333333" fill-rule="evenodd" stroke="none"/>
    <path d="M-28.05 26.15 L-27.85 26.35 -27.75 26.55 -27.65 26.75 -27.65 26.9 -27.65 27.3 -27.65 27.65 -27.65 27.85 -27.75 28.0 -28.05 28.1 -28.15 27.9 -28.2 27.75 -28.2 27.55 -28.25 27.35 -28.25 27.15 -28.3 27.0 -28.35 26.8 -28.45 26.6 -28.5 26.4 -28.4 26.3 -28.15 26.2 -28.05 26.15" fill="#333333" fill-rule="evenodd" stroke="none"/>
    <path d="M-31.3 30.6 L-31.15 30.8 -31.05 31.0 -31.0 31.15 -31.0 31.35 -31.0 31.55 -31.0 31.75 -31.1 32.1 -31.3 32.65 -31.5 33.25 -31.5 33.6 -31.5 34.0 -31.55 34.35 -31.6 34.55 -31.65 34.7 -31.8 34.9 -32.1 34.9 -32.25 34.75 -32.35 34.2 -32.4 33.6 -32.35 33.05 -32.25 32.65 -32.1 32.3 -32.0 31.9 -32.05 31.75 -32.0 31.55 -31.95 31.35 -31.85 31.15 -31.85 31.0 -31.8 30.8 -31.65 30.7 -31.4 30.6 -31.3 30.6" fill="#333333" fill-rule="evenodd" stroke="none"/>
    <path d="M-27.8 30.85 L-27.8 31.4 -27.8 32.0 -27.8 32.15 -27.75 32.35 -27.65 32.55 -27.6 32.75 -27.55 32.9 -27.5 33.1 -27.35 33.3 -27.4 33.5 -27.45 33.7 -27.55 33.85 -27.65 34.0 -27.8 33.85 -27.9 33.7 -28.05 33.5 -28.1 33.3 -28.25 33.1 -28.35 32.9 -28.5 32.75 -28.55 32.15 -28.55 31.6 -28.55 30.85 -28.6 30.7 -28.65 30.5 -28.75 30.3 -28.7 30.1 -28.65 30.0 -28.6 29.95 -28.4 29.9 -28.3 29.9 -28.1 30.1 -28.0 30.3 -27.85 30.5 -27.8 30.85" fill="#333333" fill-rule="evenodd" stroke="none"/>
    <path d="M-24.9 31.65 L-24.9 31.85 -24.9 32.05 -24.9 32.25 -24.95 32.4 -25.05 32.6 -25.15 32.65 -25.35 32.6 -25.4 32.25 -25.4 31.65 -25.35 31.55 -25.05 31.5 -24.9 31.65" fill="#333333" fill-rule="evenodd" stroke="none"/>
    <path d="M-39.2 7.85 L-39.2 8.05 -39.15 8.25 -39.15 8.4 -39.2 8.6 -39.25 8.8 -39.35 9.0 -39.35 9.9 -39.35 10.85 -39.45 11.6 -39.5 11.8 -39.6 12.0 -39.6 12.15 -39.85 12.25 -39.9 12.05 -40.0 11.85 -40.15 10.75 -40.15 9.6 -40.05 8.65 -40.0 8.5 -39.9 8.3 -39.8 8.1 -39.8 7.9 -39.7 7.75 -39.5 7.7 -39.35 7.65 -39.2 7.85" fill="#333333" fill-rule="evenodd" stroke="none"/>
    <path d="M-36.1 9.75 L-36.0 9.9 -36.1 10.1 -36.55 10.3 -36.65 10.5 -36.75 10.65 -36.85 10.85 -36.85 11.05 -36.85 11.4 -36.85 11.8 -36.9 12.55 -36.95 12.9 -37.0 13.05 -37.45 13.15 -37.55 13.0 -37.6 12.8 -37.6 12.4 -37.6 12.05 -37.6 11.3 -37.6 10.9 -37.55 10.75 -37.35 10.35 -37.25 10.15 -36.9 9.7 -36.75 9.6 -36.1 9.75" fill="#333333" fill-rule="evenodd" stroke="none"/>
    <path d="M-34.4 12.4 L-34.3 12.4 -34.05 12.6 -33.95 12.8 -33.85 13.0 -33.9 13.15 -33.95 13.3 -34.15 13.5 -34.4 13.35 -34.5 13.15 -34.55 13.0 -34.7 12.75 -34.75 12.6 -34.65 12.5 -34.6 12.45 -34.4 12.4" fill="#333333" fill-rule="evenodd" stroke="none"/>
    <path d="M-34.15 1.85 L-34.1 2.05 -34.15 2.2 -34.3 2.25 -34.6 2.35 -34.65 2.55 -34.7 2.75 -34.8 2.9 -34.85 3.1 -34.85 3.3 -34.85 3.5 -34.85 3.65 -34.8 3.85 -34.6 4.05 -34.65 4.2 -34.75 4.4 -35.15 4.5 -35.35 4.3 -35.55 4.1 -35.6 3.9 -35.6 3.55 -35.6 3.15 -35.6 2.8 -35.55 2.6 -35.45 2.4 -35.4 2.2 -35.35 2.05 -35.35 1.85 -35.25 1.65 -35.0 1.6 -35.0 1.55 -34.3 1.65 -34.15 1.85" fill="#333333" fill-rule="evenodd" stroke="none"/>
    <path d="M8.35 -22.8 L8.6 -22.6 8.7 -22.45 8.75 -22.3 8.75 -21.9 8.75 -21.55 8.75 -21.15 8.65 -20.8 8.4 -20.25 8.15 -19.85 8.05 -19.75 7.7 -19.65 7.45 -19.65 7.4 -19.85 7.4 -20.05 7.45 -20.2 7.6 -20.6 7.75 -20.95 7.85 -21.15 7.9 -21.35 7.9 -21.7 7.85 -22.1 7.9 -22.3 7.95 -22.45 8.0 -22.65 8.3 -22.75 8.35 -22.8" fill="#333333" fill-rule="evenodd" stroke="none"/>
    <path d="M10.45 -21.9 L10.65 -21.7 10.7 -21.35 10.7 -20.95 10.7 -20.6 10.7 -20.4 10.5 -20.05 10.15 -19.65 10.0 -19.45 9.95 -19.3 9.9 -19.1 9.8 -18.95 9.5 -18.7 9.35 -18.55 9.2 -18.55 9.25 -18.7 9.25 -18.9 9.25 -19.1 9.25 -19.3 9.35 -19.45 9.4 -19.65 9.45 -19.85 9.55 -20.0 9.7 -20.2 9.9 -20.4 9.95 -20.8 9.95 -21.15 9.95 -21.55 9.95 -21.7 10.1 -21.85 10.15 -21.9 10.35 -21.9 10.45 -21.9" fill="#333333" fill-rule="evenodd" stroke="none"/>
    <path d="M11.6 -19.35 L12.2 -19.3 12.35 -19.1 12.2 -18.9 12.1 -18.85 11.45 -18.9 11.4 -19.1 11.4 -19.2 11.4 -19.25 11.6 -19.3 11.6 -19.35" fill="#333333" fill-rule="evenodd" stroke="none"/>
    <path d="M15.35 -21.85 L15.45 -21.85 15.75 -21.45 16.0 -21.1 16.2 -20.7 16.2 -19.8 16.2 -18.65 16.2 -17.7 16.2 -17.55 16.1 -17.35 15.65 -17.3 15.45 -17.45 15.45 -18.2 15.45 -19.15 15.45 -20.1 15.45 -20.3 15.45 -20.45 15.35 -20.65 15.25 -20.85 15.2 -21.05 15.15 -21.2 15.05 -21.3 14.7 -21.45 14.7 -21.65 14.85 -21.8 15.1 -21.85 15.35 -21.85" fill="#333333" fill-rule="evenodd" stroke="none"/>
    <path d="M18.45 -20.55 L18.6 -20.35 18.65 -19.6 18.65 -18.85 18.65 -18.3 18.6 -18.1 18.45 -17.9 18.2 -17.9 18.1 -18.1 18.0 -18.85 18.05 -19.6 18.05 -20.15 18.1 -20.35 18.15 -20.45 18.15 -20.5 18.35 -20.55 18.45 -20.55" fill="#333333" fill-rule="evenodd" stroke="none"/>
    <path d="M20.4 -19.2 L20.5 -19.0 20.6 -18.85 20.7 -18.65 20.7 -18.45 20.6 -18.3 20.5 -18.3 20.4 -18.45 20.3 -18.65 20.2 -18.85 20.2 -19.1 20.35 -19.2 20.4 -19.2" fill="#333333" fill-rule="evenodd" stroke="none"/>
    <path d="M23.4 -19.7 L23.5 -19.5 23.55 -19.35 23.45 -19.15 23.35 -19.1 23.25 -19.15 23.15 -19.35 23.15 -19.55 23.15 -19.65 23.2 -19.7 23.35 -19.7 23.4 -19.7" fill="#333333" fill-rule="evenodd" stroke="none"/>
    <path d="M20.2 21.85 L20.4 22.05 20.45 22.25 20.5 22.6 20.55 23.15 20.55 23.75 20.6 23.9 20.7 24.1 20.65 24.3 20.55 24.5 20.35 24.6 20.1 24.6 19.8 24.5 19.65 24.3 19.65 23.9 19.65 23.35 19.6 22.8 19.6 22.6 19.65 22.4 19.65 22.25 19.7 22.05 19.85 21.9 19.9 21.9 20.1 21.85 20.2 21.85" fill="#333333" fill-rule="evenodd" stroke="none"/>
    <path d="M22.6 22.3 L22.7 22.1 22.85 22.0 23.1 21.95 23.1 21.9 23.35 22.0 23.6 22.15 23.7 22.3 23.75 22.45 23.65 22.65 23.6 23.05 23.6 23.4 23.6 23.8 23.6 24.15 23.55 24.35 23.45 24.55 23.35 24.7 23.1 24.85 22.8 24.75 22.65 24.55 22.55 24.0 22.6 23.25 22.6 22.5 22.6 22.3" fill="#333333" fill-rule="evenodd" stroke="none"/>
    <path d="M25.2 23.9 L25.2 24.3 25.2 24.65 25.15 24.85 25.0 25.05 24.85 25.2 24.7 25.25 24.65 25.05 24.55 24.85 24.5 24.65 24.45 24.5 24.45 24.3 24.45 23.9 24.4 23.75 24.3 23.55 24.3 23.35 24.35 23.25 24.4 23.2 24.6 23.15 24.7 23.15 24.95 23.35 25.15 23.55 25.2 23.75 25.2 23.9" fill="#333333" fill-rule="evenodd" stroke="none"/>
    <path d="M30.4 24.65 L30.45 24.85 30.6 25.25 30.7 25.6 30.85 25.8 30.95 26.0 31.1 26.15 31.2 26.35 31.3 26.55 31.35 26.75 31.4 26.9 31.3 27.05 30.9 27.15 30.7 27.0 30.5 26.6 30.25 26.25 29.95 25.85 29.9 25.65 29.8 25.3 29.65 24.9 29.55 24.75 29.5 24.55 29.45 24.35 29.45 24.0 29.45 23.8 29.5 23.6 29.6 23.4 29.85 23.35 29.95 23.35 30.15 23.55 30.2 23.75 30.2 23.9 30.2 24.1 30.2 24.3 30.3 24.5 30.4 24.65" fill="#333333" fill-rule="evenodd" stroke="none"/>
    <path d="M30.7 20.75 L30.85 20.9 31.0 21.1 31.15 21.3 31.25 21.5 31.35 21.65 31.4 21.85 31.45 22.05 31.5 22.25 31.55 22.4 31.6 22.6 31.8 23.0 32.0 23.35 32.2 23.75 32.3 23.9 32.35 24.1 32.4 24.3 32.4 24.5 32.6 24.7 32.65 24.85 32.65 25.05 32.5 25.0 32.25 24.85 32.0 24.7 31.8 24.55 31.7 24.35 31.65 24.15 31.6 24.0 31.5 23.8 31.4 23.6 31.3 23.4 31.05 23.05 30.9 22.65 30.85 22.3 30.7 21.9 30.6 21.75 30.55 21.55 30.55 21.35 30.4 21.15 30.35 21.0 30.4 20.85 Q30.45 20.75 30.6 20.75 L30.7 20.75" fill="#333333" fill-rule="evenodd" stroke="none"/>
    <path d="M33.95 22.75 L34.2 22.9 34.35 23.1 34.4 23.3 34.55 23.5 34.55 23.65 34.5 23.85 34.45 24.05 34.35 24.2 34.25 24.2 34.2 24.05 34.05 23.65 33.85 23.3 33.65 22.9 33.65 22.8 33.65 22.75 33.85 22.75 33.95 22.75" fill="#333333" fill-rule="evenodd" stroke="none"/>
    <path d="M24.55 -1.15 L24.75 -0.95 24.75 -0.8 24.7 -0.6 24.55 -0.4 24.25 -0.4 24.05 -0.3 24.05 -0.1 24.05 0.1 24.05 0.3 24.05 0.45 23.95 0.65 23.7 0.85 23.6 1.05 23.5 1.2 23.3 1.25 23.35 1.05 23.35 0.85 23.4 0.65 23.35 0.45 23.3 0.3 23.3 -0.1 23.3 -0.3 23.3 -0.45 23.4 -0.65 23.5 -0.85 23.8 -1.1 23.95 -1.2 24.55 -1.15" fill="#333333" fill-rule="evenodd" stroke="none"/>
    <path d="M5.7 22.3 L5.9 22.35 6.3 22.5 6.45 22.65 6.5 22.85 6.5 23.05 6.3 23.05 5.8 23.05 5.7 23.25 5.65 23.4 5.55 23.6 5.25 24.0 4.9 24.5 4.55 24.9 4.3 25.1 4.0 25.1 3.85 24.9 3.75 24.75 4.25 23.8 4.8 22.95 Q5.15 22.45 5.7 22.35 L5.7 22.3" fill="#333333" fill-rule="evenodd" stroke="none"/>
    <path d="M3.55 21.65 L3.75 21.85 3.75 22.05 3.75 22.25 3.75 22.4 3.7 22.6 3.6 22.8 3.55 23.0 3.5 23.1 3.35 23.15 3.3 23.05 3.3 22.85 3.25 22.65 3.15 22.5 3.15 22.3 3.15 22.1 3.15 21.9 3.2 21.75 3.45 21.7 3.55 21.65" fill="#333333" fill-rule="evenodd" stroke="none"/>
    <path d="M42.3 16.5 L42.45 16.65 42.45 16.85 42.5 17.05 42.6 17.2 42.7 17.4 42.75 17.6 42.75 17.8 42.8 18.0 42.8 18.15 42.9 18.35 43.0 18.55 43.1 18.7 43.2 18.9 43.25 19.1 43.25 19.3 43.25 19.5 43.25 19.65 43.15 19.8 42.75 19.9 42.65 19.75 42.65 19.55 42.65 19.35 42.45 19.0 42.25 18.6 42.2 18.4 42.15 18.25 42.15 18.05 42.15 17.85 42.05 17.65 41.95 17.5 41.9 17.3 41.85 17.1 41.8 16.9 41.75 16.75 41.85 16.6 42.2 16.5 42.3 16.5" fill="#333333" fill-rule="evenodd" stroke="none"/>
    <path d="M43.9 15.6 L44.2 15.8 44.45 16.0 44.55 16.35 44.8 17.1 45.05 17.85 45.2 18.25 45.25 18.4 45.2 18.6 45.2 18.8 45.2 19.0 45.25 19.15 45.3 19.35 45.2 19.4 45.0 19.35 44.9 19.15 44.7 19.0 44.6 18.6 44.4 17.85 44.05 16.9 43.95 16.55 43.85 16.4 43.65 16.15 43.3 16.0 43.15 15.75 43.15 15.6 43.2 15.5 43.25 15.45 43.45 15.4 43.55 15.4 43.9 15.6" fill="#333333" fill-rule="evenodd" stroke="none"/>
    <path d="M46.8 16.6 L47.45 17.15 48.0 17.75 48.3 18.1 48.35 18.3 48.45 18.5 48.55 18.65 48.3 18.75 48.05 18.55 47.75 18.5 47.4 18.1 46.8 17.6 46.3 17.0 46.35 16.8 46.45 16.65 46.5 16.65 46.7 16.6 46.8 16.6" fill="#333333" fill-rule="evenodd" stroke="none"/>
    <path d="M49.9 12.5 L50.8 13.0 51.45 13.4 51.55 13.6 51.7 13.8 51.7 13.95 51.55 14.15 51.25 14.15 50.65 13.8 49.75 13.3 48.7 12.65 48.6 12.45 48.55 12.3 48.7 12.15 48.75 12.1 48.95 12.1 49.05 12.1 49.9 12.5" fill="#333333" fill-rule="evenodd" stroke="none"/>
    <path d="M50.25 11.4 L50.2 11.25 50.25 11.1 Q50.3 11.0 50.45 10.95 L50.45 10.9 51.25 11.1 51.3 11.25 51.3 11.4 51.4 11.6 51.55 11.8 51.55 11.95 51.3 12.05 51.0 11.85 50.3 11.6 50.25 11.4" fill="#333333" fill-rule="evenodd" stroke="none"/>
    <path d="M52.0 7.3 L52.05 7.5 52.1 7.65 52.1 7.85 52.1 8.0 52.25 8.25 52.6 8.4 52.75 8.6 52.65 8.75 52.45 8.9 52.0 8.8 51.75 8.75 51.55 8.55 51.4 8.35 51.35 8.15 51.3 7.8 51.35 7.4 51.4 7.25 51.55 7.15 51.7 7.1 51.85 7.1 52.0 7.3" fill="#333333" fill-rule="evenodd" stroke="none"/>
    <path d="M73.5 -1.95 L73.65 -1.8 73.75 -1.05 73.8 -0.25 73.75 0.3 73.75 0.45 73.65 0.65 73.35 0.75 73.15 0.55 73.15 -0.4 73.15 -1.35 73.45 -1.95 73.5 -1.95" fill="#333333" fill-rule="evenodd" stroke="none"/>
    <path d="M75.6 -4.1 L75.85 -3.9 75.95 -3.7 76.05 -2.4 76.1 -0.9 76.0 0.05 76.0 0.2 75.85 0.4 75.5 0.4 75.4 0.25 75.3 -0.9 75.3 -2.2 75.4 -3.35 75.3 -3.5 75.2 -3.75 75.15 -3.9 75.2 -4.0 75.25 -4.05 75.45 -4.1 75.6 -4.1" fill="#333333" fill-rule="evenodd" stroke="none"/>
    <path d="M77.6 -2.85 L77.65 -2.65 77.8 -2.45 77.9 -2.3 77.85 -2.1 77.75 -1.9 77.5 -1.9 77.35 -2.1 77.15 -2.3 77.15 -2.65 77.15 -2.85 77.25 -3.0 77.4 -3.05 77.5 -3.05 77.6 -2.85" fill="#333333" fill-rule="evenodd" stroke="none"/>
    <path d="M-36.5 -17.1 L-36.3 -16.9 -36.35 -16.75 -36.45 -16.55 -36.4 -16.4 -36.05 -16.15 -35.9 -15.95 -35.85 -15.8 -35.95 -15.6 -36.25 -15.55 -36.55 -15.7 -36.9 -15.9 -37.05 -16.1 -37.15 -16.3 -37.2 -16.45 -37.1 -16.65 -37.0 -16.85 -36.9 -17.05 -36.65 -17.1 -36.5 -17.1" fill="#333333" fill-rule="evenodd" stroke="none"/>
    <path d="M-35.65 -19.6 L-35.5 -19.6 -35.25 -19.4 -35.25 -19.2 -35.2 -19.05 -35.05 -18.85 -34.95 -18.65 -34.25 -17.9 -33.9 -17.35 -33.5 -16.8 -33.45 -16.6 -33.3 -16.2 -33.25 -16.05 -33.2 -15.85 -33.25 -15.65 -33.4 -15.45 -33.45 -15.3 -33.45 -15.1 -33.65 -14.95 -33.8 -15.1 -33.85 -15.3 -33.9 -15.45 -34.05 -15.65 -34.15 -15.85 -34.2 -16.05 -34.25 -16.2 -34.3 -16.4 -34.7 -16.95 -35.1 -17.5 -35.4 -18.1 -35.55 -18.3 -35.75 -18.45 -35.85 -18.65 -35.95 -18.85 -36.0 -19.05 -35.95 -19.4 -35.9 -19.5 -35.8 -19.55 -35.65 -19.6" fill="#333333" fill-rule="evenodd" stroke="none"/>
    <path d="M-32.8 -18.9 L-32.8 -18.7 -32.8 -18.55 -32.8 -18.35 -32.8 -18.15 -32.9 -18.1 -33.3 -18.1 -33.45 -18.3 -33.45 -18.45 -33.45 -18.65 -33.45 -18.85 -33.35 -19.0 -33.15 -19.1 -33.0 -19.1 -32.8 -18.9" fill="#333333" fill-rule="evenodd" stroke="none"/>
    <path d="M-32.4 2.25 L-32.1 2.4 -32.0 2.55 -31.95 2.75 -31.95 2.9 -31.95 3.1 -32.0 3.3 -32.05 3.5 -32.15 3.65 -32.25 3.85 -32.5 3.85 -32.6 3.65 -32.7 3.5 -32.8 3.3 -32.8 3.1 -32.8 2.9 -32.8 2.75 -32.8 2.55 -32.7 2.35 -32.4 2.25" fill="#333333" fill-rule="evenodd" stroke="none"/>
    <path d="M-51.25 -1.4 L-51.1 -1.2 Q-51.0 -0.75 -51.4 -0.35 L-52.0 0.1 -52.6 0.5 -52.95 0.85 -53.2 1.25 -53.45 1.6 -53.5 1.8 -53.7 2.0 -53.8 2.15 -53.9 2.35 -54.35 2.4 -54.4 2.2 -54.45 2.05 -54.4 1.85 -54.25 1.65 -54.25 1.5 -54.15 1.3 -54.1 1.1 -54.0 0.9 -53.95 0.75 -53.35 -0.05 -52.6 -0.6 -52.15 -0.95 -51.85 -1.15 -51.65 -1.35 -51.4 -1.4 -51.25 -1.4" fill="#333333" fill-rule="evenodd" stroke="none"/>
    <path d="M-50.7 0.5 L-50.7 0.65 -50.75 0.85 -50.9 1.05 -51.1 1.25 -51.15 1.4 -51.35 1.8 -51.5 2.15 -51.65 2.35 -51.7 2.55 -51.7 2.75 -51.7 2.9 -51.7 3.1 -51.75 3.3 -51.85 3.45 -52.0 3.65 -52.15 3.85 -52.6 3.9 -52.7 3.75 -52.7 3.55 -52.65 3.35 -52.6 3.15 -52.6 3.0 -52.6 2.8 -52.6 2.6 -52.6 2.4 -52.4 1.85 -52.1 1.3 -51.85 0.75 -51.65 0.55 -51.6 0.35 -51.5 0.15 -51.4 0.05 -51.15 0.0 -51.15 -0.05 -50.85 0.15 -50.75 0.3 -50.7 0.5" fill="#333333" fill-rule="evenodd" stroke="none"/>
    <path d="M-48.35 1.55 L-48.25 1.75 -48.25 1.9 -48.3 2.1 -48.45 2.3 -48.75 2.5 -49.15 3.0 -49.5 3.45 -49.7 3.8 -49.8 4.0 -49.9 4.15 -49.95 4.35 -50.1 4.55 -50.25 4.75 -50.55 4.8 -50.85 4.95 -51.0 5.0 -50.95 4.8 -50.8 4.6 -50.75 4.25 -50.65 3.85 -50.6 3.65 -50.55 3.5 -50.25 2.95 -49.9 2.5 -49.65 2.15 -49.55 2.0 -49.4 1.8 -49.05 1.6 -48.9 1.4 -48.65 1.35 -48.5 1.35 -48.35 1.55" fill="#333333" fill-rule="evenodd" stroke="none"/>
    <path d="M-47.0 3.25 L-46.9 3.4 -46.9 3.6 -47.0 3.95 -47.4 4.3 -47.7 4.5 -47.8 4.65 -47.95 4.85 -48.05 5.05 -48.2 5.25 -48.5 5.3 -48.4 4.95 -48.2 4.55 -48.05 4.35 -47.6 3.95 -47.4 3.6 -47.4 3.4 -47.35 3.3 -47.3 3.25 -47.15 3.25 -47.0 3.25" fill="#333333" fill-rule="evenodd" stroke="none"/>
    <path d="M57.25 -25.65 L57.35 -25.45 57.4 -25.3 57.5 -25.1 57.6 -24.9 57.6 -24.7 57.6 -24.55 57.45 -24.4 57.0 -24.55 56.85 -24.75 56.7 -24.9 56.65 -25.1 56.6 -25.3 56.65 -25.65 56.8 -25.8 57.1 -25.85 57.25 -25.65" fill="#333333" fill-rule="evenodd" stroke="none"/>
    <path d="M54.6 -25.9 L54.85 -25.7 54.9 -25.55 54.85 -25.35 54.9 -25.15 55.1 -24.95 55.15 -24.8 55.25 -24.6 55.3 -24.4 55.3 -24.2 55.25 -24.05 55.25 -23.9 55.1 -23.8 54.95 -23.95 54.7 -24.1 54.5 -24.3 54.45 -24.45 54.35 -24.65 54.2 -24.85 54.1 -25.05 54.1 -25.2 54.1 -25.4 54.1 -25.6 54.15 -25.8 54.3 -25.85 54.45 -25.9 54.6 -25.9" fill="#333333" fill-rule="evenodd" stroke="none"/>
    <path d="M50.95 -25.85 L51.05 -25.85 51.25 -25.65 51.25 -25.5 51.15 -25.25 51.05 -25.1 50.95 -24.9 50.5 -24.85 50.4 -25.05 50.4 -25.2 50.4 -25.4 50.5 -25.6 50.7 -25.8 50.95 -25.85" fill="#333333" fill-rule="evenodd" stroke="none"/>
  </g>
</svg>
