<?xml version="1.0" encoding="UTF-8" standalone="no"?>
<svg xmlns:xlink="http://www.w3.org/1999/xlink" height="30.1px" width="55.7px" xmlns="http://www.w3.org/2000/svg">
  <g transform="matrix(1.0, 0.0, 0.0, 1.0, 27.35, 15.45)">
    <path d="M-1.35 -4.85 L4.35 -4.05 10.8 -3.55 23.75 -2.6 24.65 -1.75 24.8 -1.35 24.85 -0.95 24.3 -0.3 23.55 -0.1 -8.75 -2.35 -17.45 -3.25 -21.8 -3.85 -22.5 -4.2 -22.9 -5.45 -22.05 -6.45 -16.6 -6.35 -7.1 -5.6 -1.35 -4.85" fill="#d76c53" fill-rule="evenodd" stroke="none"/>
    <path d="M17.0 -10.7 L17.45 -10.55 19.05 -9.3 21.35 -7.15 26.6 -2.85 27.4 -1.55 Q27.35 0.3 25.7 1.1 L21.9 2.6 20.85 3.1 19.4 4.15 Q18.05 5.15 16.6 5.6 L15.7 5.25 15.1 3.9 15.9 2.5 Q16.9 1.15 18.25 0.45 L22.45 -1.55 21.2 -2.9 19.4 -4.75 17.7 -6.55 16.9 -7.3 Q15.8 -8.2 15.65 -9.55 L15.8 -9.9 Q16.3 -10.55 17.0 -10.7" fill="#d76c53" fill-rule="evenodd" stroke="none"/>
    <path d="M-16.55 -8.1 L-17.85 -9.4 -19.45 -11.35 Q-20.45 -12.3 -20.2 -13.8 L-19.45 -14.8 -18.65 -14.6 Q-17.95 -14.6 -17.55 -14.1 L-15.95 -12.0 -15.35 -11.25 -14.65 -10.15 Q-13.4 -8.05 -11.3 -6.75 -10.25 -6.0 -10.5 -4.65 L-10.85 -4.2 -11.55 -4.0 -12.8 -4.6 Q-13.95 -5.2 -14.85 -6.4 -15.55 -7.35 -16.55 -8.1" fill="#d76c53" fill-rule="evenodd" stroke="none"/>
    <path d="M-16.1 -3.45 L-16.7 -2.45 -17.2 -2.3 -17.9 -2.65 -18.45 -3.1 -19.3 -4.15 -20.1 -5.2 -20.75 -6.3 -21.25 -6.85 -23.5 -9.25 -25.8 -11.6 Q-26.35 -12.3 -26.25 -13.2 L-25.55 -14.25 -24.7 -14.45 Q-22.4 -13.35 -21.2 -11.2 L-20.4 -10.15 Q-18.25 -7.9 -17.2 -4.75 L-16.1 -3.45" fill="#d76c53" fill-rule="evenodd" stroke="none"/>
    <path d="M-19.15 -5.8 L-18.65 -5.9 -17.95 -5.15 Q-17.8 -4.4 -18.35 -3.85 L-20.1 -2.1 -22.7 0.95 -22.85 1.4 Q-23.25 3.3 -24.95 3.7 L-25.85 3.3 -26.3 2.45 Q-25.7 -1.25 -22.3 -2.9 L-22.0 -3.35 -21.35 -4.05 -19.15 -5.8" fill="#d76c53" fill-rule="evenodd" stroke="none"/>
    <path d="M-14.3 -5.4 L-13.65 -5.5 -13.05 -5.3 Q-12.5 -4.55 -12.65 -3.6 L-12.75 -2.8 Q-12.95 -2.05 -13.4 -1.4 L-14.75 0.35 -15.25 0.9 -16.45 2.4 -17.2 3.3 -17.9 4.15 -19.4 3.9 -19.85 3.05 Q-19.9 1.85 -19.35 1.0 -18.6 -0.2 -17.5 -0.9 L-16.6 -1.6 Q-15.6 -2.35 -15.15 -3.6 L-14.3 -5.4" fill="#d76c53" fill-rule="evenodd" stroke="none"/>
    <path d="M-18.95 -6.75 L-18.95 -6.6 -18.95 -6.4 -18.6 -5.9 -18.4 -5.75 -18.25 -5.5 -18.0 -5.05 -17.9 -4.9 -17.9 -4.65 -17.9 -4.45 -17.95 -4.25 -18.0 -4.05 -18.1 -3.85 -18.25 -3.7 -18.45 -3.55 -18.55 -3.5 -18.85 -3.45 -19.3 -3.6 -19.55 -3.85 -19.85 -4.45 -20.2 -5.15 -20.8 -5.8 -21.35 -6.25 -21.75 -6.7 -22.25 -7.2 -23.05 -7.85 -23.35 -8.1 -23.5 -8.25 -23.7 -8.5 -23.85 -8.75 -24.35 -9.15 -24.6 -9.4 -24.85 -9.85 -25.05 -10.25 -25.2 -10.5 -25.45 -10.7 -25.75 -10.95 -25.9 -11.15 -25.95 -11.4 -26.05 -11.6 -26.15 -11.75 -26.2 -12.05 -26.25 -12.25 -26.45 -12.45 -26.5 -12.65 -26.55 -13.05 -26.55 -13.3 -26.55 -13.65 -26.5 -14.1 -26.45 -14.45 -26.45 -14.7 -26.35 -14.85 -26.25 -15.05 -26.05 -15.3 -25.6 -15.35 -25.6 -15.4 -25.35 -15.4 -25.0 -15.2 -24.65 -15.05 Q-24.45 -14.9 -24.25 -14.85 L-24.05 -14.6 -23.85 -14.45 -23.6 -14.15 -23.35 -13.95 -23.1 -13.75 -22.1 -11.95 -20.55 -9.4 -19.0 -7.0 -18.95 -6.75 M-25.05 -13.25 L-24.9 -13.0 -24.85 -12.75 -24.75 -12.6 -24.7 -12.35 -23.9 -11.5 -23.4 -10.85 -23.15 -10.35 Q-22.9 -10.6 -23.35 -11.25 L-23.9 -11.9 -24.45 -12.75 -24.7 -12.95 -24.9 -13.25 -25.05 -13.25" fill="#d76c53" fill-opacity="0.3019608" fill-rule="evenodd" stroke="none"/>
    <path d="M-19.15 -5.95 L-18.8 -5.85 -18.65 -5.65 -18.6 -5.35 -18.3 -5.2 -18.1 -5.0 -18.05 -4.7 -17.95 -4.5 -17.95 -4.35 -18.0 -4.1 -18.05 -3.9 -18.25 -3.75 -18.45 -3.55 -18.75 -3.35 -18.8 -3.15 -18.8 -2.75 -18.85 -2.55 -18.85 -2.1 -18.9 -1.7 -18.95 -1.5 -19.05 -1.35 -19.15 -1.2 -19.25 -0.95 -19.35 -0.75 -19.45 -0.5 -20.65 1.2 Q-21.75 2.65 -23.35 3.25 L-24.25 3.45 -24.65 3.25 -24.85 3.1 -25.0 2.9 -25.05 2.65 -25.0 2.45 -25.0 2.3 -24.95 2.05 -24.8 1.85 -24.7 1.65 -24.65 1.45 -24.6 1.25 -24.6 1.05 -24.55 0.8 -24.55 0.65 -24.45 0.45 -24.2 0.1 -23.85 -0.35 -23.5 -0.7 -23.4 -0.85 -23.35 -1.1 -23.1 -1.3 -22.9 -1.65 -22.7 -1.85 -22.3 -2.25 -22.1 -2.4 -22.05 -2.6 -22.0 -2.85 -21.75 -3.05 Q-21.65 -3.05 -21.55 -3.15 L-21.3 -3.4 -21.15 -3.6 -20.95 -3.95 -20.75 -4.15 -20.45 -4.6 -20.4 -4.75 -20.35 -4.9 -20.25 -5.15 -20.15 -5.3 -20.0 -5.5 -19.7 -5.7 -19.6 -5.9 -19.2 -6.0 -19.15 -5.95" fill="#d76c53" fill-opacity="0.3019608" fill-rule="evenodd" stroke="none"/>
    <path d="M0.1 -2.8 L0.9 -2.65 4.95 -2.35 0.1 -2.8 M9.7 -0.1 L-1.05 -0.5 -18.1 -2.0 -18.65 -2.2 -18.9 -2.35 -20.4 -2.7 -20.85 -2.85 -21.1 -3.05 -21.2 -3.35 -21.2 -3.55 -21.15 -3.7 -21.05 -3.9 -20.75 -4.1 -20.25 -4.1 -18.05 -4.1 -16.9 -4.25 -16.6 -4.3 -15.4 -4.4 -14.95 -4.4 -13.45 -4.35 -13.6 -4.45 -14.7 -4.7 -15.15 -4.8 -18.2 -5.25 -18.55 -5.3 -18.9 -5.5 -19.1 -5.7 -19.2 -5.95 -19.25 -6.15 -19.25 -6.4 -19.25 -6.55 -19.15 -6.75 -19.0 -6.95 -18.75 -7.15 -18.35 -7.2 -18.05 -7.25 -18.0 -7.25 -15.0 -6.95 -14.6 -6.9 -13.1 -6.55 -12.65 -6.45 -11.1 -6.1 -10.7 -5.95 13.2 -4.15 13.65 -4.15 22.05 -3.5 22.5 -3.35 23.05 -3.1 Q23.25 -3.0 23.4 -2.95 L23.65 -2.75 23.8 -2.5 23.8 -2.3 23.85 -2.1 23.85 -1.9 23.8 -1.65 23.8 -1.5 23.75 -1.3 23.65 -1.05 23.55 -0.95 23.35 -0.75 22.9 -0.55 22.7 -0.35 22.4 -0.15 22.0 -0.05 21.2 0.05 20.75 0.1 16.5 -0.15 16.0 -0.1 10.25 -0.15 9.7 -0.1" fill="#d76c53" fill-opacity="0.3019608" fill-rule="evenodd" stroke="none"/>
    <path d="M-19.3 -15.2 L-18.95 -15.0 -18.8 -14.85 -18.55 -14.7 -17.95 -14.3 -17.1 -13.75 -14.05 -11.15 -11.9 -8.85 -10.25 -6.4 -10.1 -6.2 -9.95 -5.95 -9.95 -5.7 -9.9 -5.55 -9.9 -5.3 -10.0 -5.1 -10.1 -4.95 -10.3 -4.75 -10.4 -4.65 -10.7 -4.6 -11.15 -4.7 -11.25 -5.0 -11.35 -5.2 -11.5 -5.4 -11.55 -5.6 -11.65 -5.8 -11.75 -6.05 -13.25 -7.85 -15.25 -9.95 -17.85 -12.1 -18.2 -12.35 -18.5 -12.45 -18.5 -12.3 -18.35 -11.85 -18.35 -11.65 -18.3 -11.5 -18.25 -11.25 -18.2 -11.05 -18.15 -10.8 -18.1 -10.55 -18.0 -10.4 -17.9 -10.2 -17.8 -10.0 -17.7 -9.8 -17.55 -9.6 -17.4 -9.65 -17.15 -9.8 -16.8 -9.8 -16.55 -9.8 -16.15 -9.65 -15.95 -9.4 -15.9 -9.2 -15.8 -8.95 -15.6 -8.8 -15.5 -8.55 -15.3 -8.3 -15.1 -8.1 -14.55 -7.6 -14.2 -7.2 -13.95 -6.8 -13.8 -6.55 -13.65 -6.45 -13.5 -6.35 -12.85 -6.2 -12.45 -6.05 -12.25 -5.8 -12.15 -5.55 -12.1 -5.35 -12.05 -5.2 -12.05 -4.95 -12.1 -4.75 -12.15 -4.55 -12.3 -4.4 -12.55 -4.2 -12.7 -4.05 -13.0 -4.05 -13.25 -4.05 -16.05 -5.3 Q-17.35 -5.9 -18.15 -7.0 L-18.95 -8.05 -19.05 -8.35 -19.05 -8.55 -19.1 -8.7 -19.2 -8.95 -19.25 -9.15 -19.35 -9.35 -19.45 -9.6 -19.5 -9.8 -19.65 -10.0 -19.65 -10.25 -19.7 -10.4 -19.85 -10.6 -19.85 -10.9 -20.0 -11.25 -20.0 -11.5 -20.05 -11.7 -20.1 -11.9 -20.15 -12.1 -20.2 -12.3 -20.3 -12.5 -20.3 -12.8 -20.35 -12.95 -20.35 -13.15 -20.35 -13.4 -20.4 -13.6 -20.4 -13.75 -20.5 -13.95 -20.5 -14.2 -20.45 -14.4 -20.45 -14.55 -20.35 -14.8 -20.15 -15.0 -20.0 -15.05 -19.9 -15.1 -19.6 -15.15 -19.55 -15.25 -19.3 -15.2" fill="#d76c53" fill-opacity="0.3019608" fill-rule="evenodd" stroke="none"/>
    <path d="M-14.25 -4.1 L-14.6 -4.2 -14.7 -4.4 -14.65 -4.65 -14.6 -4.8 -14.45 -4.9 -13.35 -5.05 -12.9 -5.2 -12.4 -5.1 -11.9 -5.05 -11.55 -4.85 -11.35 -4.65 -11.2 -4.4 -11.2 -4.15 -11.15 -4.0 -11.1 -3.8 -11.15 -3.55 -11.2 -3.35 -11.3 -3.2 -11.5 -3.0 -11.55 -2.8 -11.65 -2.6 -13.55 0.1 -16.25 3.35 Q-17.2 4.35 -18.5 4.8 L-18.85 4.85 -19.3 4.8 -19.65 4.7 -20.0 4.5 -20.25 4.3 -20.35 4.1 -20.4 3.9 -20.4 3.65 -20.35 3.5 -20.35 3.05 -20.3 2.45 -20.25 2.25 -20.2 2.1 -20.1 1.85 -20.0 1.65 -19.95 1.45 -19.9 1.2 -19.2 0.05 -17.55 -1.85 -16.35 -3.35 -16.2 -3.55 -15.9 -3.65 -15.55 -3.7 -15.2 -3.65 -15.0 -3.7 -14.9 -3.75 -14.55 -3.75 -13.5 -3.7 -13.55 -3.75 -14.25 -4.1 M-16.35 0.3 L-16.65 0.55 -16.85 0.75 -16.95 0.85 -17.1 1.1 -17.15 1.3 -17.1 1.35 -17.0 1.35 -16.7 0.95 -16.45 0.65 Q-16.1 0.45 -16.25 0.35 L-16.35 0.3" fill="#d76c53" fill-opacity="0.3019608" fill-rule="evenodd" stroke="none"/>
    <path d="M-19.8 -7.25 L-18.9 -6.9 -18.25 -6.45 -18.1 -6.3 -18.0 -6.05 -18.0 -5.8 -18.05 -5.4 -18.05 -5.2 -18.05 -5.0 -18.1 -4.6 -18.1 -4.4 -18.2 -4.2 -18.4 -3.85 -18.7 -3.4 -19.5 -2.9 -19.9 -2.7 -20.65 -2.75 -22.7 -2.95 -23.05 -3.15 -23.3 -3.3 -23.5 -3.6 -23.6 -3.8 -23.7 -4.0 -23.7 -4.2 -23.65 -4.4 -23.65 -4.6 -23.6 -4.85 -23.6 -5.0 -23.55 -5.2 -23.4 -5.45 -23.3 -5.65 -23.3 -5.8 -23.2 -6.05 -23.1 -6.2 -23.0 -6.4 -23.0 -6.6 -23.0 -6.8 -22.9 -7.0 -22.65 -7.25 -22.3 -7.3 -21.95 -7.2 -21.65 -7.0 -21.2 -7.15 -20.95 -7.25 -20.85 -7.3 -20.55 -7.3 -20.5 -7.35 -19.8 -7.25" fill="#d76c53" fill-opacity="0.3019608" fill-rule="evenodd" stroke="none"/>
    <path d="M16.2 -11.05 L17.7 -10.9 18.1 -10.8 18.4 -10.5 19.25 -9.6 20.35 -8.25 21.0 -7.4 21.25 -7.1 21.55 -6.95 22.05 -6.5 22.35 -6.25 22.55 -6.05 22.65 -5.85 22.85 -5.55 23.05 -5.4 23.2 -5.2 23.5 -4.9 23.8 -4.7 23.95 -4.5 24.55 -4.2 24.85 -4.0 25.2 -3.75 25.35 -3.55 25.4 -3.35 25.45 -3.15 25.45 -2.9 25.4 -2.75 25.4 -2.55 25.45 -2.4 25.75 -2.2 26.2 -2.0 26.45 -1.85 26.55 -1.6 26.6 -1.35 26.7 -1.15 26.7 -1.0 26.65 -0.75 26.65 -0.55 26.5 -0.35 26.4 -0.15 26.35 0.0 26.05 0.2 25.65 0.4 25.5 0.55 25.2 0.75 25.1 0.95 24.65 1.6 Q24.1 2.05 23.4 2.3 L22.25 2.75 22.05 2.9 21.6 3.35 21.15 3.7 20.55 4.05 20.4 4.2 20.15 4.4 19.95 4.6 19.6 4.85 19.05 5.05 18.1 5.5 17.85 5.6 16.45 6.15 15.45 6.45 14.95 6.6 14.2 6.5 13.7 6.3 13.45 6.05 13.3 5.9 13.25 5.7 13.15 5.4 13.15 5.2 13.1 5.05 13.05 4.8 13.1 4.6 13.1 4.4 13.1 4.25 13.15 4.0 13.15 3.8 13.2 3.55 13.65 2.85 15.5 1.2 Q16.9 0.25 18.4 -0.45 L18.95 -0.75 19.2 -0.8 19.7 -0.85 20.5 -1.1 21.35 -1.15 21.75 -1.0 21.95 -0.75 22.1 -0.55 22.2 -0.35 22.25 -0.15 22.35 -0.1 22.8 -0.3 23.05 -0.45 23.2 -0.65 23.4 -0.85 23.4 -1.05 23.45 -1.3 23.45 -1.45 23.45 -1.65 23.5 -1.85 23.5 -2.1 23.4 -2.25 23.3 -2.45 23.15 -2.5 23.1 -2.3 23.05 -2.15 23.0 -1.9 22.9 -1.7 22.75 -1.6 22.65 -1.55 22.4 -1.5 22.0 -1.65 21.55 -1.95 21.6 -2.1 21.65 -2.25 21.5 -2.5 20.05 -3.6 Q18.9 -4.7 17.9 -6.0 17.05 -7.1 16.45 -8.3 L16.3 -8.5 15.8 -8.75 15.6 -9.0 15.4 -9.2 15.3 -9.4 15.2 -9.65 15.2 -9.8 15.2 -10.0 15.25 -10.25 15.3 -10.4 15.45 -10.6 15.55 -10.8 15.75 -11.0 15.85 -10.95 16.2 -11.0 16.2 -11.05 M16.2 3.6 L16.2 3.45 16.15 3.35 16.05 3.4 15.85 3.55 15.7 3.7 15.6 3.75 16.05 3.8 16.2 3.6" fill="#d76c53" fill-opacity="0.3019608" fill-rule="evenodd" stroke="none"/>
    <path d="M20.8 -9.05 L20.9 -8.8 21.15 -8.4 21.3 -8.05 21.45 -7.75 21.55 -7.55 21.9 -7.3 22.05 -7.15 22.2 -6.9 22.4 -6.45 22.65 -6.25 22.9 -6.0 23.25 -5.55 23.75 -5.15 24.65 -4.4 24.95 -4.2 25.6 -3.5 26.35 -2.85 26.85 -2.4 27.0 -2.15 27.05 -1.95 27.1 -1.8 27.15 -1.5 27.15 -1.3 27.1 -1.1 27.05 -1.0 26.95 -0.75 26.8 -0.55 26.4 -0.25 26.05 -0.2 25.55 -0.35 25.35 -0.6 25.2 -0.85 25.1 -1.0 24.9 -1.25 24.5 -1.5 24.2 -1.75 24.05 -1.95 23.65 -2.35 23.1 -2.85 22.95 -3.05 22.9 -3.15 22.55 -3.4 22.2 -3.6 22.15 -3.6 22.2 -3.4 22.3 -3.15 22.4 -2.95 22.55 -2.8 22.6 -2.5 22.6 -2.3 22.65 -2.15 22.6 -1.9 22.7 -1.7 23.0 -1.5 23.15 -1.3 23.2 -1.05 23.25 -0.85 23.2 -0.65 23.2 -0.45 23.15 -0.25 23.05 -0.05 22.6 0.55 21.95 1.1 21.35 1.65 20.9 2.0 20.6 2.2 19.35 2.65 17.3 2.5 16.85 2.35 16.65 2.15 16.5 1.9 16.4 1.65 16.45 1.5 16.55 0.9 16.6 0.75 16.65 0.5 16.75 0.3 16.85 -0.1 17.45 -0.7 18.1 -1.25 Q18.6 -1.6 19.25 -1.75 L19.4 -1.95 19.5 -2.15 Q19.5 -2.9 18.95 -3.45 18.15 -4.2 17.75 -5.2 L16.75 -6.95 16.55 -7.35 16.4 -7.5 16.3 -7.75 16.2 -7.95 16.1 -8.2 16.1 -8.4 16.05 -8.6 16.05 -8.8 16.1 -9.05 16.1 -9.2 16.2 -9.4 16.35 -9.6 16.5 -9.8 16.75 -9.9 17.15 -9.9 17.5 -9.95 17.65 -10.15 17.9 -10.35 18.45 -10.4 18.45 -10.45 18.8 -10.25 19.15 -10.05 19.25 -9.9 19.4 -9.8 20.1 -9.5 20.5 -9.3 20.8 -9.05 M19.3 0.5 L19.65 0.3 19.8 0.15 20.05 0.0 20.25 -0.2 20.35 -0.45 20.3 -0.45 20.15 -0.45 19.8 -0.25 19.25 0.1 18.65 0.45 19.3 0.5" fill="#d76c53" fill-opacity="0.3019608" fill-rule="evenodd" stroke="none"/>
    <path d="M18.45 -3.15 L20.75 -2.8 Q20.95 -2.65 21.15 -2.6 L21.35 -2.4 21.55 -2.15 21.7 -2.0 21.7 -1.95 22.65 -1.75 23.05 -1.65 23.3 -1.4 23.4 -1.15 23.45 -1.0 23.5 -0.8 23.45 -0.55 23.45 -0.35 23.45 -0.2 23.4 0.05 23.4 0.25 23.3 0.45 23.2 0.6 23.05 0.85 22.85 0.95 22.7 1.0 22.4 1.05 21.9 1.0 21.5 0.85 20.95 0.65 20.5 0.5 19.75 0.15 17.3 -0.2 16.85 -0.35 10.8 -1.05 10.35 -1.2 10.15 -1.45 10.0 -1.6 8.85 -1.65 8.35 -1.6 5.45 -1.8 5.2 -1.8 4.9 -1.7 4.6 -1.75 2.4 -1.75 2.15 -1.75 1.9 -1.65 1.6 -1.7 -2.6 -2.0 -2.85 -2.0 -3.4 -2.0 -9.6 -2.5 -10.1 -2.65 -10.55 -2.85 -11.85 -3.0 -12.85 -3.2 -13.25 -3.4 -13.65 -3.55 -13.8 -3.6 -14.2 -3.8 -14.25 -4.05 -14.35 -4.2 -14.3 -4.4 -14.2 -4.65 -14.1 -4.75 -13.95 -4.75 -13.7 -4.85 -13.45 -4.85 -13.05 -4.75 -11.7 -4.5 -6.25 -3.9 -3.1 -3.7 -2.7 -3.8 -2.25 -3.9 1.9 -3.6 2.15 -3.65 2.45 -3.7 2.8 -3.75 4.95 -3.6 5.2 -3.7 5.45 -3.7 5.8 -3.75 Q8.7 -3.65 11.7 -3.7 L11.95 -3.75 12.3 -3.8 18.05 -3.25 18.45 -3.15" fill="#d76c53" fill-opacity="0.3019608" fill-rule="evenodd" stroke="none"/>
    <path d="M-9.05 -5.4 L-9.0 -5.2 -8.85 -4.95 -8.8 -4.75 -8.85 -4.5 -8.85 -4.35 -8.85 -4.15 -8.9 -3.9 -8.9 -3.7 -8.9 -3.55 -9.0 -3.3 -9.1 -3.15 -9.25 -2.95 -9.45 -2.75 -9.85 -2.65 -13.95 -3.15 -15.0 -3.6 -15.2 -3.8 -15.3 -4.0 -15.3 -4.25 -15.35 -4.45 -15.3 -4.7 -15.3 -4.85 -15.3 -5.05 -15.25 -5.25 -15.2 -5.45 -15.1 -5.6 -14.85 -5.8 -14.7 -5.95 -14.4 -6.05 -14.2 -6.2 -13.75 -6.25 -13.7 -6.45 -13.55 -6.6 -13.4 -6.8 -13.2 -6.9 -13.1 -6.9 -12.8 -6.95 -12.75 -7.05 -12.5 -7.0 -11.05 -6.45 Q-10.5 -6.3 -9.9 -5.95 -9.6 -5.85 -9.25 -5.6 L-9.05 -5.4" fill="#d76c53" fill-opacity="0.3019608" fill-rule="evenodd" stroke="none"/>
    <path d="M-16.7 -15.15 L-16.3 -14.95 -16.0 -14.65 -15.85 -14.45 -15.75 -14.3 -15.6 -14.05 -15.6 -13.8 -15.6 -13.6 -15.65 -13.2 -15.7 -12.6 -15.8 -11.85 -15.95 -11.6 -16.05 -11.4 -16.15 -11.25 -16.45 -10.85 -16.9 -10.4 -17.0 -10.25 -17.15 -10.1 -17.4 -9.95 -17.5 -9.85 -17.85 -9.85 -18.05 -9.85 -18.5 -10.05 -18.75 -10.25 -19.1 -10.5 -19.2 -10.75 -19.5 -10.95 -19.8 -11.15 -19.85 -11.4 -20.0 -11.65 -20.0 -11.8 -19.95 -12.0 -19.95 -12.25 -20.0 -12.4 -20.05 -12.6 -20.2 -12.85 -20.4 -13.1 -20.4 -13.3 -20.4 -13.5 -20.4 -13.7 -20.3 -13.9 -20.2 -14.1 -20.05 -14.25 -19.85 -14.45 -19.75 -14.7 -19.65 -14.85 -19.55 -15.05 -19.45 -15.25 -19.2 -15.4 -19.1 -15.4 -18.85 -15.4 -18.8 -15.45 -17.05 -15.3 -16.7 -15.15" fill="#d76c53" fill-opacity="0.3019608" fill-rule="evenodd" stroke="none"/>
    <path d="M-19.85 -8.7 L-19.5 -8.5 -19.4 -8.3 -19.2 -8.05 -19.2 -7.85 -19.15 -7.65 -18.95 -7.4 -18.65 -7.2 -18.4 -6.95 -18.2 -6.7 -18.1 -6.55 -18.0 -6.35 -17.95 -6.05 -17.9 -5.85 -17.85 -5.7 -17.8 -5.45 -17.9 -5.25 -18.0 -5.05 -18.15 -4.95 -18.5 -4.75 -19.15 -5.1 -19.85 -5.5 -20.5 -6.0 -20.7 -6.2 -20.7 -6.4 -20.8 -6.6 -20.95 -6.85 -21.15 -7.1 -21.7 -7.3 -21.9 -7.55 -22.15 -7.75 -22.4 -7.9 -22.55 -8.0 -24.5 -8.25 -25.8 -9.1 -26.75 -10.25 -27.3 -11.55 -27.35 -11.75 -27.35 -11.9 -27.3 -12.35 -27.25 -12.75 -27.2 -13.15 -27.15 -13.4 -27.05 -13.5 -26.95 -13.7 -26.85 -13.95 -26.85 -14.15 -26.7 -14.3 -26.55 -14.5 -26.35 -14.7 -26.05 -14.85 -25.7 -15.0 -25.5 -15.25 -25.25 -15.4 -25.15 -15.35 -24.85 -15.4 -24.85 -15.45 -24.35 -15.3 -24.0 -15.15 -23.45 -14.7 -22.7 -14.0 -22.1 -13.35 -21.8 -12.95 -21.7 -12.7 -21.7 -12.5 -21.65 -12.35 -21.7 -12.1 -21.7 -11.9 -21.7 -11.7 -21.75 -11.5 -21.75 -11.3 -21.75 -11.1 -21.8 -10.85 -21.85 -10.7 -21.9 -10.5 -22.05 -10.25 -22.1 -10.15 -22.0 -10.1 -21.6 -9.9 -21.4 -9.7 -21.15 -9.5 -20.75 -9.25 -20.2 -9.0 -19.85 -8.7" fill="#d76c53" fill-opacity="0.3019608" fill-rule="evenodd" stroke="none"/>
    <path d="M-14.0 -5.75 L-13.95 -5.5 -13.85 -5.35 -13.8 -5.1 -13.85 -4.9 -13.85 -4.7 -13.85 -4.55 -13.9 -4.4 -13.45 -4.35 -13.15 -4.55 -13.05 -4.6 -12.7 -4.6 -12.45 -4.6 -12.05 -4.45 -11.85 -4.2 -11.7 -3.95 -11.65 -3.8 -11.65 -3.55 -11.65 -3.35 -11.75 -3.15 -11.85 -2.95 -12.0 -2.8 -12.25 -2.65 -12.35 -2.6 -13.2 -2.4 -14.2 -2.2 -18.65 -2.7 Q-19.55 -2.85 -20.3 -3.3 L-20.5 -3.35 -21.55 -3.55 -22.0 -3.7 -22.2 -3.9 -22.3 -4.2 -22.3 -4.35 -22.3 -4.55 -22.2 -4.8 -22.2 -5.15 -22.1 -5.6 -22.1 -5.75 -21.95 -5.95 -21.75 -6.15 -21.45 -6.55 -21.25 -6.7 -20.8 -6.8 -18.7 -6.65 -18.3 -6.65 -14.8 -6.35 -14.45 -6.2 -14.2 -6.0 -14.0 -5.75" fill="#d76c53" fill-opacity="0.3019608" fill-rule="evenodd" stroke="none"/>
    <path d="M-20.6 -1.8 L-20.5 -1.6 -20.5 -1.4 -20.5 -1.0 -20.55 -0.2 -20.65 0.6 -20.8 0.85 -21.0 1.0 -21.45 1.4 -21.7 1.55 -21.85 1.75 -21.95 2.0 -22.15 2.1 -22.65 2.25 -23.15 2.3 -23.25 2.55 -23.45 2.65 -23.6 2.7 -23.95 2.75 -25.2 2.6 -25.55 2.5 -25.8 2.25 -26.0 2.0 -26.0 1.8 -26.0 1.65 -26.0 1.4 -25.9 1.0 -25.85 0.4 -25.8 0.0 -25.75 -0.2 -25.55 -0.4 -25.4 -0.65 -24.95 -0.95 -24.65 -1.15 -23.6 -1.75 -22.65 -2.2 -22.25 -2.25 -22.2 -2.3 -21.2 -2.2 -20.85 -2.05 -20.6 -1.8" fill="#d76c53" fill-opacity="0.3019608" fill-rule="evenodd" stroke="none"/>
    <path d="M-0.45 -3.8 L-0.4 -3.65 -0.35 -3.4 -0.4 -3.15 -0.45 -3.0 -0.55 -2.85 -0.75 -2.6 -0.95 -2.4 Q-1.05 -2.35 -1.25 -2.25 L-1.8 -2.1 -2.05 -1.9 -2.5 -1.8 -3.15 -1.55 -3.45 -1.45 -3.75 -1.3 -3.9 -1.25 -4.25 -1.2 -5.25 -1.05 -9.05 -1.25 -10.85 -1.15 -11.25 -1.05 -13.9 -1.4 -14.0 -1.15 -14.15 -0.55 -14.25 0.45 -14.35 1.3 -14.35 1.65 -14.85 2.65 -15.65 3.8 -16.35 4.35 -17.0 4.65 -17.55 4.65 -19.15 4.5 -19.25 4.55 -19.6 4.6 -19.8 4.65 -20.25 4.4 -20.45 4.2 -20.5 4.05 -20.55 3.8 -20.55 3.6 -20.5 3.45 -20.45 3.25 -20.4 3.0 -20.35 2.8 -20.35 2.55 -20.3 2.4 -20.25 2.2 -20.1 2.0 -20.0 1.75 -19.95 1.6 -19.9 1.4 -19.7 1.2 -19.6 1.05 -19.2 0.6 -18.6 0.05 -18.25 -0.1 -18.0 -0.25 -17.65 -0.2 -17.1 -0.2 -16.8 0.0 Q-16.65 0.1 -16.55 0.15 L-16.4 0.4 -16.45 0.6 -16.4 0.8 -16.4 0.95 -16.45 1.2 -16.45 1.4 -16.4 1.4 -16.3 1.25 -16.15 1.0 -16.1 0.45 -16.05 -0.6 -15.95 -1.4 -15.95 -1.8 -15.85 -2.0 -15.75 -2.2 -15.6 -2.4 -15.4 -2.75 -15.0 -3.15 -14.7 -3.35 -14.3 -3.55 -14.15 -3.7 -13.9 -3.8 -13.55 -3.85 -12.95 -3.95 -12.6 -4.15 -12.35 -4.2 -10.95 -4.4 -9.65 -4.5 -9.1 -4.65 -8.75 -4.65 -7.9 -4.75 -7.5 -4.55 -7.3 -4.35 -7.15 -4.1 -7.1 -3.95 -7.1 -3.7 -7.1 -3.5 -7.15 -3.4 -5.55 -3.25 -5.05 -3.35 -4.55 -3.45 -4.15 -3.5 -3.9 -3.75 -3.65 -3.8 -3.25 -3.9 -2.85 -3.95 -2.6 -4.1 -2.35 -4.25 -1.9 -4.35 -1.5 -4.45 -1.45 -4.4 -1.2 -4.4 -0.8 -4.25 -0.55 -4.05 -0.45 -3.8" fill="#d76c53" fill-opacity="0.3019608" fill-rule="evenodd" stroke="none"/>
    <path d="M15.1 -11.45 L15.95 -11.55 15.95 -11.65 16.45 -11.65 17.35 -11.25 17.8 -10.8 18.15 -10.35 18.45 -9.9 18.6 -9.5 18.9 -9.05 19.5 -8.65 19.85 -8.15 20.15 -7.75 21.3 -6.75 22.3 -5.85 23.05 -5.15 23.4 -4.95 24.3 -4.65 24.75 -4.15 25.05 -3.7 25.25 -3.3 25.5 -2.85 25.6 -2.45 25.55 -2.05 25.45 -1.6 25.35 -1.3 25.2 -0.85 24.6 -0.15 23.8 0.65 Q23.35 1.0 22.9 1.5 L22.55 1.75 21.9 2.15 21.25 2.5 21.0 2.9 20.75 3.25 20.5 3.65 19.7 4.45 19.3 4.8 19.2 5.2 19.0 5.55 18.45 5.95 18.1 6.2 17.45 6.25 16.6 5.9 16.15 5.5 15.75 5.0 15.7 4.65 15.75 4.2 15.8 3.8 15.8 3.4 15.85 3.0 16.05 2.65 16.4 2.25 16.75 1.8 17.0 1.45 -15.0 -2.05 -15.8 -2.4 -16.3 -2.85 -16.6 -3.3 -16.65 -3.6 -18.85 -4.05 Q-19.95 -4.25 -21.0 -4.8 L-21.15 -5.2 -21.3 -5.6 -21.25 -6.0 -21.05 -6.35 -20.85 -6.7 Q-8.5 -6.25 3.95 -6.15 10.05 -6.65 15.75 -4.7 L17.55 -4.7 16.8 -5.15 16.15 -6.0 15.1 -7.35 14.15 -8.7 14.0 -9.1 13.9 -9.5 13.95 -9.95 14.0 -10.3 14.15 -10.65 14.55 -11.1 15.1 -11.45" fill="#d76c53" fill-opacity="0.3019608" fill-rule="evenodd" stroke="none"/>
    <path d="M-16.5 -14.6 L-16.1 -14.1 -15.75 -13.75 -15.35 -13.3 -14.65 -12.8 -14.35 -12.4 -13.9 -11.9 -13.55 -11.15 -12.7 -9.75 -11.5 -8.45 -10.95 -8.0 -10.65 -7.55 -10.35 -7.1 -10.35 -6.3 -10.4 -5.5 -10.5 -4.65 -10.55 -3.4 Q-10.55 -2.75 -10.8 -2.2 L-11.0 -1.85 -11.25 -1.45 -11.65 -1.05 -12.05 -0.65 -12.4 -0.3 -12.4 0.1 -12.55 0.5 -12.75 0.9 -13.0 1.25 -13.5 1.65 -13.7 2.05 -13.9 2.4 -14.15 2.85 -14.65 3.55 -14.95 4.0 -15.3 4.4 -15.7 4.6 -15.95 4.7 -16.6 4.8 -17.45 4.45 -17.9 3.95 -18.1 3.6 -18.15 3.15 -18.2 2.75 -18.15 2.35 -18.1 1.95 -18.1 1.55 -18.05 1.15 -18.0 0.7 -17.8 0.35 -17.55 -0.05 -16.75 -0.85 -16.5 -1.2 -16.3 -1.65 -16.35 -1.95 -16.6 -2.3 -17.1 -2.05 -17.35 -2.0 -18.4 -1.85 -19.2 -1.4 -20.25 -0.8 -21.0 -0.4 -21.4 0.0 -22.25 0.75 -23.0 1.55 -23.65 2.25 -23.75 2.65 -23.95 3.1 -24.25 3.4 -24.65 3.8 -25.55 4.0 -26.4 3.65 -26.85 3.2 -27.05 2.8 -27.1 2.35 -27.15 1.95 -27.1 1.55 -27.05 1.15 -27.05 0.75 -27.0 0.35 -26.95 -0.1 -26.75 -0.45 -26.5 -0.8 -26.1 -1.25 -25.65 -1.6 -24.95 -2.0 -23.95 -2.65 -23.5 -3.1 -23.15 -3.45 -22.45 -3.8 Q-22.15 -3.9 -21.8 -4.15 L-21.4 -4.55 Q-21.65 -5.95 -22.8 -7.3 L-25.45 -10.55 Q-26.5 -11.95 -27.15 -13.65 L-27.1 -14.1 -26.9 -14.4 -26.7 -14.85 -25.9 -15.05 -25.3 -14.7 Q-24.3 -13.95 -23.45 -12.85 L-21.65 -10.65 -19.9 -8.6 -19.75 -8.5 -19.25 -8.1 -18.85 -7.85 -18.4 -7.65 -18.15 -7.55 -17.55 -7.35 -16.8 -7.25 -17.35 -8.05 -17.9 -8.9 -18.35 -9.75 -19.2 -11.05 -19.25 -11.5 -19.35 -11.85 -19.35 -12.3 -19.3 -12.7 -19.25 -13.1 -19.2 -13.5 -19.05 -13.95 -18.9 -14.25 -18.55 -14.7 -18.0 -14.9 -17.4 -14.9 -17.4 -14.95 -16.5 -14.6" fill="#d76c53" fill-opacity="0.3019608" fill-rule="evenodd" stroke="none"/>
    <path d="M20.9 -10.05 L21.15 -9.65 21.25 -9.3 21.6 -8.8 22.35 -8.4 23.05 -7.85 23.5 -7.55 23.75 -7.4 24.35 -7.1 25.1 -6.15 26.15 -4.9 27.5 -3.1 28.1 -2.25 28.15 -1.85 28.25 -1.35 28.35 -1.0 28.3 -0.55 28.1 -0.25 27.9 0.2 27.55 0.6 26.8 1.3 25.5 2.45 24.1 3.1 22.45 3.85 Q21.7 4.15 20.95 4.55 L20.05 4.65 18.45 4.75 18.2 4.8 17.55 4.9 16.7 4.55 15.85 4.1 15.4 3.65 14.7 3.2 14.8 2.85 15.95 2.1 17.0 1.55 18.05 1.0 18.3 0.95 18.9 0.8 20.05 0.65 20.8 0.25 22.4 -0.4 23.95 -1.1 24.35 -1.45 23.7 -2.85 21.5 -4.95 18.75 -6.9 18.35 -7.35 17.8 -7.8 17.2 -8.25 16.35 -8.7 16.05 -9.2 15.85 -9.65 15.85 -10.0 15.9 -10.4 16.05 -10.75 16.35 -11.2 16.6 -11.45 16.85 -11.55 17.5 -11.6 17.5 -11.65 18.5 -11.55 19.2 -11.25 19.95 -10.85 20.65 -10.55 20.9 -10.05" fill="#d76c53" fill-opacity="0.3019608" fill-rule="evenodd" stroke="none"/>
    <path d="M-0.45 -1.4 L-0.35 0.5 -0.3 2.75 -0.3 4.8 -0.35 5.0 -0.45 5.15 -0.6 5.35 -0.6 5.55 -0.6 5.75 -0.65 5.9 -0.8 6.1 -0.95 6.25 -1.2 6.3 -1.6 6.15 -1.8 6.0 -1.85 5.8 -1.85 5.6 -1.85 5.4 -1.95 5.25 -2.1 5.05 -2.2 3.0 -2.1 0.35 -1.9 -1.9 -1.95 -2.05 -2.0 -2.3 -2.1 -2.45 -2.1 -2.65 -2.05 -2.8 -1.9 -3.0 -1.7 -3.15 -1.5 -3.15 -1.45 -3.2 -1.2 -3.2 -0.9 -3.05 -0.6 -2.9 -0.45 -2.7 -0.35 -2.5 -0.3 -2.35 -0.3 -2.15 -0.3 -1.95 -0.3 -1.75 -0.35 -1.6 -0.45 -1.4" fill="#d76c53" fill-rule="evenodd" stroke="none"/>
    <path d="M-3.8 -3.5 L-3.5 -3.4 -3.4 -3.2 -3.35 -3.0 -3.3 -2.85 -3.3 -2.65 -3.3 -2.45 -3.3 -2.25 -3.35 -2.1 -3.5 -1.9 -3.5 -1.7 -3.5 -1.5 -3.5 -1.35 -3.55 -1.15 -3.6 -0.95 -3.65 -0.75 -3.75 -0.6 -3.6 4.5 -3.4 9.75 Q-3.25 11.35 -3.4 12.9 L-3.5 13.1 -3.6 13.3 -3.85 13.5 -4.3 13.6 -4.75 13.5 -4.95 13.3 -5.15 13.1 Q-5.3 10.5 -5.1 7.85 L-4.95 2.4 -4.85 -0.75 -4.8 -0.95 -4.75 -1.15 -4.65 -1.35 -4.6 -1.5 -4.6 -1.7 -4.6 -1.9 -4.55 -2.1 -4.4 -2.25 -4.3 -2.45 -4.3 -2.65 -4.3 -2.85 -4.3 -3.0 -4.2 -3.2 -4.1 -3.4 -3.8 -3.5" fill="#d76c53" fill-rule="evenodd" stroke="none"/>
    <path d="M-4.55 -3.2 L-4.25 -3.1 -4.05 -2.9 -3.9 -2.7 -3.9 -2.5 -3.9 -2.35 -3.85 -2.15 -3.9 -1.95 -4.0 -1.75 -4.1 -1.6 -4.25 -1.4 -4.25 -1.2 -4.3 -1.0 -4.4 -0.65 -4.55 -0.25 -4.5 1.05 -4.45 2.35 -4.4 3.85 -4.35 4.05 -4.3 4.25 -4.25 4.4 -4.15 4.6 -4.15 5.15 -4.15 5.9 -4.15 6.65 -4.15 6.85 -4.15 7.05 -4.05 7.25 -4.0 7.4 -3.9 7.8 -3.85 8.35 -3.85 8.75 -3.85 8.9 -3.8 9.1 -3.75 9.3 -3.65 9.5 -3.6 9.65 -3.6 9.85 -3.6 10.25 -3.6 10.6 -3.6 11.0 -3.55 11.15 -3.5 11.35 -3.15 11.55 -3.05 11.75 -2.95 11.9 -2.9 12.3 -2.85 12.85 -2.85 13.4 -2.85 13.8 -2.95 14.0 -3.05 14.15 -3.15 14.35 -3.35 14.5 -3.5 14.55 -3.8 14.6 -4.55 14.6 -5.0 14.5 -5.2 14.3 -5.4 14.1 -5.5 13.0 -5.5 11.65 -5.5 10.15 -5.55 10.0 -5.65 9.8 -5.7 9.4 -5.7 8.85 -5.75 8.3 -5.75 8.1 -5.8 7.9 -5.85 7.75 -5.9 7.55 -5.9 6.8 -5.9 5.85 -5.9 4.9 -6.0 4.75 -6.05 4.55 -6.1 4.35 -6.15 4.15 -6.15 2.65 -6.05 1.0 -6.05 -0.5 -6.0 -0.7 -5.9 -0.9 -5.85 -1.1 -5.75 -1.45 -5.6 -1.65 -5.55 -1.85 -5.5 -2.0 -5.35 -2.2 -5.25 -2.4 -5.2 -2.6 -5.15 -2.75 -5.05 -2.95 -4.9 -3.1 -4.8 -3.15 -4.55 -3.15 -4.55 -3.2" fill="#d76c53" fill-opacity="0.3019608" fill-rule="evenodd" stroke="none"/>
    <path d="M-0.1 -1.9 L0.15 -1.7 0.3 -1.5 0.4 -1.35 0.45 -1.15 0.55 0.15 0.6 1.85 0.65 3.55 0.6 3.75 0.45 3.9 0.25 4.1 0.1 4.25 -0.2 4.3 -0.65 4.15 -0.9 4.0 -1.05 3.8 -1.1 3.65 -1.1 3.85 -1.1 4.05 -1.1 4.25 -1.1 4.4 -1.1 4.6 -1.05 4.75 -0.9 4.9 -0.65 4.9 -0.55 4.85 -0.2 4.8 0.05 4.8 0.45 4.9 0.65 5.1 0.75 5.3 0.85 5.5 0.85 5.65 0.85 5.85 0.8 6.05 0.65 6.2 0.45 6.4 0.05 6.6 -0.15 6.75 -0.5 6.75 -1.45 6.8 -1.9 6.65 -2.15 6.45 -2.35 6.3 -2.5 6.1 -2.8 5.75 -2.85 5.0 -2.85 3.85 -2.85 2.55 -2.85 2.35 -2.8 2.15 -2.7 2.0 -2.65 1.8 -2.6 1.6 -2.5 1.4 -2.4 1.25 -2.35 1.05 -2.35 0.85 -2.35 0.65 -2.35 0.5 -2.3 0.3 -2.2 0.1 -2.1 -0.1 -2.0 -0.25 -1.9 -0.45 -1.85 -0.65 -1.85 -0.85 -1.85 -1.0 -1.8 -1.2 -1.7 -1.4 -1.6 -1.6 -1.45 -1.75 -1.35 -1.95 -1.15 -2.1 -1.05 -2.1 -0.75 -2.2 -0.7 -2.2 -0.3 -2.1 -0.1 -1.9" fill="#d76c53" fill-opacity="0.3019608" fill-rule="evenodd" stroke="none"/>
    <path d="M-0.4 -0.65 L-0.4 -0.45 -0.4 -0.25 -0.4 -0.1 -0.4 0.1 -0.35 0.3 -0.3 0.5 -0.2 0.65 -0.2 0.85 -0.2 1.25 -0.15 1.6 -0.15 1.8 -0.1 1.95 0.0 2.15 0.1 2.35 0.15 2.55 0.15 2.9 0.15 3.3 0.15 3.5 0.25 3.65 0.4 3.85 0.65 4.05 0.75 4.25 0.85 4.4 0.9 4.8 0.9 5.35 0.9 5.9 0.9 6.3 0.7 6.65 0.4 7.05 -0.05 7.4 -0.45 7.55 -1.9 7.35 -2.4 7.1 -2.6 6.9 -2.8 6.55 -3.05 6.15 -3.05 5.8 -3.05 5.25 -3.05 4.65 -3.05 4.3 -2.95 4.1 -2.9 3.9 -2.85 3.75 -2.7 3.55 -2.55 3.35 -2.4 3.25 -2.3 3.2 -2.0 3.1 -1.6 3.0 -1.65 2.8 -1.75 2.6 -1.85 2.4 -1.8 2.05 -1.7 1.5 -1.7 0.9 -1.7 0.55 -1.65 0.35 -1.6 0.15 -1.55 0.0 -1.55 -0.2 -1.55 -0.4 -1.55 -0.6 -1.5 -0.75 -1.4 -0.95 -1.2 -1.1 -1.0 -1.1 -0.95 -1.15 -0.65 -1.0 -0.55 -0.85 -0.4 -0.65" fill="#d76c53" fill-opacity="0.3019608" fill-rule="evenodd" stroke="none"/>
    <path d="M-4.9 7.85 L-4.7 8.05 -4.5 8.25 -4.25 8.4 -4.15 8.6 -4.05 8.8 -3.95 8.95 -3.75 9.35 -3.7 9.55 -3.65 9.75 -3.65 9.9 -3.6 10.1 -3.4 10.3 -3.3 10.5 -3.25 10.6 -3.2 10.65 -2.9 10.8 -2.65 11.0 -2.45 11.15 -2.4 11.35 -2.3 11.55 -2.3 11.9 -2.3 12.5 -2.25 13.05 -2.35 13.6 -2.4 13.8 -2.55 14.0 -2.75 14.15 -3.15 14.55 -3.55 14.65 -3.8 14.65 -4.1 14.6 -4.5 14.5 -4.65 14.3 -4.85 14.1 -5.2 13.75 -5.4 13.55 -5.55 13.35 -5.65 13.15 -5.65 13.0 -5.65 12.8 -5.65 12.6 -5.65 12.4 -5.65 12.25 -5.6 12.05 -5.5 11.85 -5.45 11.65 -5.4 11.5 -5.35 11.3 -5.35 11.1 -5.4 10.9 -5.4 10.75 -5.4 10.55 -5.4 10.35 -5.4 10.15 -5.45 10.0 -5.55 9.8 -5.6 9.6 -5.6 9.4 -5.6 9.25 -5.55 9.05 -5.55 8.85 -5.55 8.65 -5.4 8.5 -5.4 8.3 -5.4 8.1 -5.3 7.9 -5.05 7.85 -4.9 7.85" fill="#d76c53" fill-opacity="0.3019608" fill-rule="evenodd" stroke="none"/>
    <path d="M-0.15 -1.35 L-0.15 -0.95 -0.25 -0.8 -0.35 -0.6 -0.6 -0.4 -0.95 -0.25 -1.2 -0.25 -1.65 -0.4 -1.8 -0.5 -2.3 -0.75 -2.65 -0.9 -3.05 -0.9 -3.05 -0.7 -3.05 -0.5 -3.05 -0.15 -3.05 0.25 -3.1 0.6 -3.2 0.8 -3.3 1.0 -3.3 1.15 -3.3 1.35 -3.3 1.55 -3.3 1.75 -3.35 1.9 -3.5 2.1 -3.65 2.3 -4.05 2.4 -4.3 2.4 -4.75 2.3 -4.9 2.1 -5.05 1.9 -5.05 1.75 -5.1 1.55 -5.25 1.35 -5.25 1.15 -5.25 1.0 -5.25 0.8 -5.25 0.6 -5.2 0.45 -5.1 0.25 -5.1 0.05 -5.1 -0.15 -5.1 -0.35 -5.1 -0.5 -5.1 -0.9 -5.05 -1.1 -4.9 -1.25 -4.8 -1.45 -4.75 -1.65 -4.75 -1.85 -4.6 -2.0 -4.5 -2.2 -4.35 -2.4 -4.1 -2.5 -3.8 -2.65 -3.6 -2.75 -3.3 -2.85 -2.9 -2.95 -2.45 -3.1 -1.5 -3.1 -1.45 -3.15 -1.2 -3.15 -0.85 -3.0 -0.6 -2.8 -0.4 -2.65 -0.3 -2.45 -0.2 -2.25 -0.2 -2.1 -0.15 -1.9 -0.15 -1.7 -0.15 -1.35" fill="#d76c53" fill-opacity="0.3019608" fill-rule="evenodd" stroke="none"/>
  </g>
</svg>
