<?xml version="1.0" encoding="UTF-8" standalone="no"?>
<svg xmlns:xlink="http://www.w3.org/1999/xlink" height="36.45px" width="36.3px" xmlns="http://www.w3.org/2000/svg">
  <g transform="matrix(1.0, 0.0, 0.0, 1.0, 0.55, 0.75)">
    <path d="M22.1 22.15 Q24.0 20.2 24.0 17.5 24.0 14.8 22.1 12.9 20.15 11.0 17.45 11.0 14.75 11.0 12.85 12.9 10.9 14.8 10.9 17.5 10.9 20.2 12.85 22.15 14.75 24.05 17.45 24.05 20.15 24.05 22.1 22.15 M23.05 5.75 L28.25 3.6 31.4 6.65 29.25 11.95 29.75 13.15 35.0 15.3 35.0 19.7 29.75 21.9 29.25 23.1 31.45 28.3 28.35 31.45 23.1 29.3 21.9 29.85 19.65 35.0 15.3 35.0 13.15 29.85 11.85 29.4 6.65 31.45 3.6 28.4 5.65 23.2 5.15 21.9 0.0 19.75 0.0 15.4 5.15 13.15 5.65 11.9 3.55 6.75 6.6 3.6 11.8 5.75 13.1 5.2 15.25 0.0 19.65 0.0 21.85 5.2 23.05 5.75" fill="#e66b7f" fill-rule="evenodd" stroke="none"/>
    <path d="M31.15 7.55 L30.35 8.6 Q29.95 8.9 29.9 9.3 L29.85 10.2 29.7 10.8 29.25 11.95 Q29.65 12.65 29.45 12.65 29.25 12.65 29.75 13.15 29.8 13.35 30.45 13.55 L31.55 13.9 32.3 14.35 33.15 14.55 34.05 14.7 35.0 15.3 Q35.4 15.7 35.1 16.25 L34.75 17.45 34.65 18.4 Q34.6 18.8 35.0 19.0 35.45 19.2 35.0 19.7 34.45 19.7 34.1 20.0 L33.1 20.45 32.35 20.65 31.55 21.05 30.6 21.4 Q30.45 21.4 29.75 21.9 L29.4 22.55 Q29.1 22.8 29.25 23.1 L29.6 24.2 30.25 25.35 Q30.7 25.8 30.55 26.2 30.4 26.65 30.9 26.9 31.45 27.15 31.15 27.3 30.9 27.45 31.45 28.3 L30.5 29.1 29.7 30.1 29.15 30.75 28.7 31.1 28.35 31.45 27.1 31.25 Q26.55 31.25 26.3 30.85 L25.85 30.15 24.9 29.75 24.0 29.6 23.1 29.3 22.25 29.65 Q22.1 29.7 21.9 29.85 21.7 29.9 21.55 30.55 L21.15 31.55 20.45 32.45 Q20.05 33.0 19.95 33.45 L19.95 34.15 19.65 35.0 18.7 35.2 17.6 34.85 16.45 34.7 15.8 34.95 15.3 35.0 14.95 34.15 14.5 32.95 14.15 32.0 13.7 31.25 Q13.35 30.9 13.5 30.8 13.7 30.7 13.15 29.85 L12.05 29.65 Q11.8 29.65 11.85 29.4 L11.1 29.55 Q10.9 29.55 10.05 29.95 L8.95 30.45 8.2 30.65 Q7.7 30.75 7.5 31.05 L6.65 31.45 Q6.05 31.3 5.7 30.8 L5.05 30.0 4.5 29.5 4.3 29.0 3.6 28.4 Q4.0 28.35 4.25 27.6 L4.55 26.7 4.8 25.95 5.2 25.0 5.45 24.15 5.65 23.2 5.3 22.4 5.15 21.9 4.15 21.15 3.2 20.95 Q2.65 21.05 2.1 20.75 L1.3 20.3 0.8 20.0 0.0 19.75 0.15 18.65 0.2 17.65 0.0 16.5 0.0 16.0 0.0 15.4 0.9 14.65 1.95 14.45 3.0 14.05 3.7 13.65 4.1 13.4 Q4.15 13.2 5.15 13.15 4.95 12.65 5.25 12.4 L5.65 11.9 5.05 10.9 Q4.65 10.4 4.75 10.05 4.85 9.75 4.55 9.2 L3.9 8.05 Q3.55 7.4 3.7 7.35 3.9 7.35 3.55 6.75 3.45 6.65 3.9 6.15 L4.9 5.3 5.45 4.6 5.9 4.05 Q6.3 3.75 6.6 3.6 L7.6 4.1 8.5 4.3 Q9.15 4.5 9.45 4.85 9.75 5.25 10.25 5.3 10.8 5.35 10.95 5.7 L11.8 5.75 12.25 5.5 13.1 5.2 Q13.05 4.45 13.3 4.1 L13.85 3.15 14.3 2.4 14.65 1.7 14.95 0.9 15.25 0.0 16.25 -0.2 17.1 0.0 18.15 0.35 18.9 -0.05 19.65 0.0 Q20.3 0.45 20.05 0.7 19.8 1.0 20.3 1.8 20.8 2.65 20.75 3.05 20.7 3.45 21.15 3.55 21.6 3.65 21.65 4.1 L21.85 5.2 Q22.1 5.6 22.4 5.5 22.75 5.45 23.05 5.75 23.75 5.65 24.05 5.4 24.35 5.15 24.8 5.0 L25.95 4.55 27.0 4.4 27.35 4.15 Q27.3 3.8 28.25 3.6 L29.05 4.4 29.75 4.9 Q30.3 5.25 30.5 5.75 L31.0 6.3 31.4 6.65 31.15 7.55 M20.55 11.5 Q20.3 11.1 19.75 11.15 L18.8 11.1 17.95 10.95 17.45 11.0 16.6 11.2 15.5 11.4 14.4 11.55 Q13.8 11.75 13.95 11.9 14.1 12.05 12.85 12.9 L11.9 13.7 Q11.4 14.0 11.35 14.45 L11.2 15.4 11.0 16.25 10.9 17.5 10.9 18.45 Q10.8 18.95 11.0 19.4 L11.55 20.4 11.85 21.2 12.85 22.15 13.55 22.8 14.4 23.35 15.5 23.7 16.35 23.9 17.45 24.05 18.6 24.05 19.65 23.85 20.3 23.3 Q20.75 22.8 21.1 22.95 21.5 23.1 22.1 22.15 L22.7 21.3 23.35 20.4 23.9 19.7 Q24.15 19.5 23.8 18.8 L23.5 17.9 24.0 17.5 23.85 16.6 23.7 15.5 23.35 14.45 23.05 14.2 Q22.9 14.25 22.1 12.9 L21.25 12.15 20.55 11.5 Z" fill="none" stroke="#e66b7f" stroke-linecap="round" stroke-linejoin="round" stroke-width="1.0"/>
  </g>
</svg>
