<?xml version="1.0" encoding="UTF-8" standalone="no"?>
<svg xmlns:xlink="http://www.w3.org/1999/xlink" height="24.75px" width="22.25px" xmlns="http://www.w3.org/2000/svg">
  <g transform="matrix(1.0, 0.0, 0.0, 1.0, 11.1, 12.35)">
    <path d="M-8.7 -1.7 L-7.85 -1.75 -7.6 -1.8 -6.5 -1.95 -6.4 -2.05 -6.25 -2.1 -2.6 -2.2 1.55 -2.7 3.9 -2.7 4.1 -2.65 4.25 -2.55 4.3 -2.55 5.15 -2.45 5.35 -2.4 5.5 -2.3 5.55 -2.2 5.6 -2.15 5.6 -2.05 5.6 -1.95 5.6 -1.85 5.5 -1.75 5.5 -1.65 5.5 -1.55 5.5 -1.45 5.5 -1.4 5.5 -1.3 5.45 -1.2 5.4 -1.1 5.3 -1.0 5.2 -0.9 5.0 -0.8 4.8 -0.7 4.65 -0.65 4.6 -0.55 4.5 -0.45 4.5 -0.35 4.5 -0.25 4.5 -0.05 4.5 0.05 4.5 0.1 4.5 0.4 4.5 0.5 4.55 0.6 4.65 0.7 4.7 0.8 4.75 0.85 4.75 0.95 4.8 1.05 4.8 1.15 4.8 1.25 4.8 1.45 4.8 1.55 4.8 1.6 4.8 1.8 4.75 1.9 4.7 2.0 4.65 2.1 4.5 2.2 4.3 2.25 4.1 2.2 3.9 2.15 -7.6 1.7 -8.1 1.65 -8.15 1.6 -8.2 1.55 -8.35 1.55 -8.6 1.45 -8.85 1.4 -9.0 1.3 -9.15 1.2 -9.25 1.1 -9.3 1.0 -9.35 0.95 -9.4 0.95 -9.55 0.85 -9.7 0.8 -9.75 0.8 -9.95 0.75 -10.15 0.7 -10.3 0.6 -10.4 0.5 -10.45 0.4 -10.5 0.3 -10.5 0.2 -10.5 0.05 -10.5 -0.05 -10.5 -0.15 -10.5 -0.35 -10.5 -0.45 -10.55 -0.55 -10.6 -0.65 -10.6 -0.7 -10.55 -0.8 -10.55 -0.9 -10.5 -1.0 -10.4 -1.1 -10.35 -1.15 -10.25 -1.2 -10.1 -1.2 -9.9 -1.3 -9.75 -1.35 -9.6 -1.35 -9.15 -1.45 -9.05 -1.55 -9.0 -1.65 -8.85 -1.7 -8.7 -1.7" fill="#6c6960" fill-rule="evenodd" stroke="none"/>
    <path d="M10.35 -11.85 L10.5 -11.75 10.55 -11.65 10.65 -11.55 10.7 -11.45 10.75 -11.4 10.8 -11.3 10.8 -11.2 10.8 -11.1 10.8 -11.0 10.8 -10.9 10.75 -10.8 10.7 -10.6 10.5 -10.35 10.25 -9.95 10.25 -9.85 10.25 -9.8 10.2 -9.7 10.15 -9.6 10.1 -9.5 10.05 -9.4 10.1 -8.55 10.1 -7.55 10.1 -6.5 10.1 -6.4 10.1 -6.3 10.15 -6.2 10.15 -4.45 10.15 -2.3 9.9 -0.5 9.9 -0.4 9.95 -0.3 10.0 -0.2 10.05 -0.15 10.1 1.1 10.1 2.5 10.1 3.9 9.95 4.55 9.9 5.4 9.9 6.25 9.9 6.35 9.95 6.45 10.0 6.55 10.05 6.6 10.1 7.1 10.1 7.85 10.1 8.5 10.1 8.7 10.05 8.8 10.0 8.85 10.0 8.95 9.9 9.05 9.9 9.6 9.9 10.35 9.9 11.05 9.9 11.2 9.85 11.3 9.8 11.4 9.75 11.5 9.65 11.55 9.6 11.6 9.4 11.6 9.15 11.55 9.0 11.45 8.9 11.35 8.9 11.3 8.85 11.2 8.85 11.1 8.75 11.0 8.7 10.9 8.6 10.8 8.55 10.7 8.5 10.6 8.5 10.55 8.4 10.45 8.35 10.35 8.25 10.25 8.25 10.15 8.25 10.05 8.2 9.95 8.1 9.8 7.95 9.6 7.85 9.3 7.8 9.2 7.8 9.15 7.75 9.05 7.65 8.95 7.55 8.85 7.5 8.75 7.45 8.65 7.4 8.55 7.35 8.45 7.35 8.35 7.3 8.3 7.25 8.2 7.25 8.1 7.25 8.0 6.2 6.35 4.8 4.35 4.25 3.5 4.25 3.3 4.25 2.95 4.25 2.45 4.25 2.3 4.3 2.2 4.35 2.1 4.35 2.0 4.35 1.9 4.35 1.8 4.35 1.7 4.35 1.6 4.35 1.55 4.3 1.45 4.25 1.35 4.2 1.25 4.15 1.15 4.15 1.05 4.1 0.95 4.1 0.85 4.1 0.8 4.1 0.6 4.1 0.4 4.1 0.3 4.05 0.25 3.95 0.1 3.9 0.05 3.85 -0.05 3.8 -0.15 3.8 -0.25 3.8 -0.35 3.8 -0.45 3.8 -0.55 3.85 -0.6 4.0 -0.8 4.15 -1.0 4.2 -1.1 4.15 -1.2 4.1 -1.3 4.05 -1.4 4.05 -1.45 4.05 -1.55 4.05 -1.65 4.05 -1.75 4.1 -1.85 4.1 -1.95 4.15 -2.05 4.15 -2.15 4.2 -2.2 4.35 -2.5 4.6 -2.95 4.95 -3.45 5.0 -3.55 5.0 -3.65 5.1 -3.7 5.1 -3.8 5.15 -3.9 5.35 -4.2 5.7 -4.65 5.95 -5.15 6.0 -5.2 6.0 -5.3 6.15 -5.6 6.4 -6.1 6.7 -6.65 6.75 -6.7 6.75 -6.8 6.8 -6.9 6.85 -7.0 6.9 -7.1 6.95 -7.2 7.0 -7.3 7.0 -7.4 7.1 -7.45 7.1 -7.55 7.15 -7.65 7.3 -7.95 7.5 -8.4 7.9 -8.9 8.3 -9.55 8.85 -10.35 9.15 -10.95 9.15 -11.05 9.15 -11.15 9.25 -11.2 9.35 -11.3 9.45 -11.35 9.6 -11.45 9.65 -11.55 9.7 -11.6 9.75 -11.7 9.85 -11.8 9.95 -11.9 10.15 -11.9 10.35 -11.85" fill="#6c6960" fill-rule="evenodd" stroke="none"/>
    <path d="M-8.6 -0.65 L-8.6 -0.75 -8.55 -0.85 -8.5 -0.95 -8.4 -1.0 -8.35 -1.0 -8.2 -1.05 -8.0 -1.0 -7.9 -0.9 -7.85 -0.8 -7.8 -0.7 -7.8 -0.65 -7.8 -0.55 -7.75 -0.45 -7.7 -0.35 -7.65 -0.25 -7.6 -0.15 -7.55 -0.05 -7.55 0.05 -7.55 0.2 -7.55 0.4 -7.6 0.5 -7.65 0.6 -7.65 0.7 -7.65 0.8 -7.75 0.85 -7.75 0.95 -7.8 1.05 -7.85 1.15 -7.9 1.25 -8.0 1.35 -8.15 1.45 -8.35 1.5 -8.95 1.45 -9.6 1.3 -9.65 1.2 -9.7 1.1 -9.75 1.0 -9.9 0.9 -10.2 0.7 -10.45 0.55 -10.5 0.45 -10.55 0.35 -10.55 0.15 -10.55 -0.15 -10.5 -0.3 -10.45 -0.4 -10.4 -0.5 -10.3 -0.6 -10.25 -0.7 -10.2 -0.8 -10.1 -0.9 -9.85 -0.95 -9.7 -0.9 -9.5 -0.85 -9.4 -0.75 -9.35 -0.65 -9.3 -0.55 -9.3 -0.45 -9.3 -0.4 -9.3 -0.3 -9.3 -0.2 -9.3 -0.1 -9.35 0.0 -9.2 0.05 -8.9 0.05 -8.75 -0.05 -8.6 -0.1 -8.6 -0.2 -8.6 -0.3 -8.6 -0.45 -8.6 -0.65" fill="#663333" fill-opacity="0.2" fill-rule="evenodd" stroke="none"/>
    <path d="M2.3 1.05 L2.55 1.1 2.65 1.2 2.75 1.3 2.75 1.4 2.85 1.5 2.85 1.6 2.9 1.7 2.95 1.8 3.0 1.85 3.0 1.95 3.0 2.05 3.0 2.15 2.95 2.25 3.0 2.35 3.05 2.45 3.1 2.55 3.05 2.6 3.05 2.7 3.0 2.8 2.95 2.9 2.85 2.95 1.95 3.05 0.55 2.9 -1.8 2.6 -8.95 2.2 -9.15 2.15 -9.3 2.05 -9.4 1.95 -9.45 1.9 -9.5 1.9 -9.7 1.85 -9.95 1.8 -10.1 1.7 -10.15 1.6 -10.15 1.5 -10.2 1.4 -10.2 1.3 -10.2 1.2 -10.2 1.1 -10.15 1.05 -10.1 0.95 -10.0 0.85 -9.9 0.8 -9.7 0.75 -9.0 0.7 -8.85 0.7 -8.6 0.65 -6.25 0.7 -2.1 0.85 1.8 1.05 2.3 1.05" fill="#663333" fill-opacity="0.2" fill-rule="evenodd" stroke="none"/>
    <path d="M-0.15 -0.55 L-0.1 -0.65 -0.05 -0.75 0.0 -0.85 0.1 -0.95 0.2 -1.05 0.3 -1.15 0.5 -1.2 0.7 -1.25 0.9 -1.3 1.25 -1.35 1.4 -1.45 1.5 -1.6 1.65 -1.8 1.9 -2.1 2.25 -2.45 2.4 -2.55 2.55 -2.65 2.6 -2.65 2.8 -2.65 2.8 -2.7 3.05 -2.65 3.2 -2.65 3.4 -2.7 3.65 -2.7 3.9 -2.65 4.0 -2.55 4.05 -2.45 4.1 -2.35 4.15 -2.25 4.15 -2.15 4.15 -2.05 4.15 -1.95 4.15 -1.9 4.15 -1.8 4.15 -1.6 4.15 -1.5 4.15 -1.4 4.1 -1.3 4.1 -1.2 4.05 -1.15 4.0 -1.05 3.95 -0.95 3.9 -0.85 3.75 -0.65 3.65 -0.45 3.45 -0.2 3.25 0.3 3.15 0.35 3.1 0.55 3.1 0.65 3.05 0.75 3.05 0.95 3.0 1.3 3.0 1.4 3.0 1.5 2.9 1.6 2.85 1.7 2.75 1.75 2.7 1.75 2.55 1.8 2.35 1.75 2.2 1.7 2.2 1.8 2.15 1.85 2.15 1.95 2.1 2.05 2.05 2.15 2.0 2.25 1.95 2.35 1.85 2.45 1.75 2.5 1.55 2.5 1.4 2.55 1.15 2.45 1.0 2.35 0.9 2.3 0.9 2.2 0.85 2.1 0.8 2.05 0.55 1.95 0.35 1.85 0.25 1.8 0.15 1.7 0.05 1.6 0.0 1.5 -0.05 1.4 -0.15 1.3 -0.2 1.2 -0.25 0.95 -0.25 0.75 -0.25 0.3 -0.25 -0.3 -0.2 -0.4 -0.15 -0.45 -0.15 -0.55" fill="#663333" fill-opacity="0.2" fill-rule="evenodd" stroke="none"/>
    <path d="M-8.35 -0.55 L-8.25 -0.6 -8.25 -0.7 -8.25 -0.8 -8.2 -0.85 -8.15 -0.95 -7.95 -1.15 -7.9 -1.15 -1.2 -1.55 1.8 -1.55 2.05 -1.45 2.15 -1.4 2.25 -1.3 2.25 -1.2 2.3 -1.2 2.55 -1.15 2.65 -1.05 2.75 -0.95 2.75 -0.85 2.85 -0.75 2.85 -0.65 2.85 -0.55 2.85 -0.4 2.85 -0.2 2.85 -0.1 2.85 0.0 2.8 0.1 2.75 0.2 2.75 0.25 2.6 0.45 2.8 0.55 3.25 0.65 3.4 0.75 3.45 0.85 3.5 0.95 3.55 1.05 3.55 1.1 3.5 1.2 3.5 1.3 3.5 1.4 3.4 1.5 3.35 1.6 3.25 1.65 3.2 1.7 3.05 1.7 2.5 1.8 2.5 1.85 2.4 1.95 2.3 2.05 2.05 2.1 -7.45 2.05 -7.7 1.95 -7.8 1.85 -7.9 1.75 -7.95 1.7 -8.0 1.65 -8.95 1.45 -9.1 1.35 -9.25 1.3 -9.35 1.2 -9.4 1.1 -9.5 1.0 -9.5 0.9 -9.5 0.8 -9.5 0.7 -9.45 0.65 -9.4 0.55 -9.3 0.45 -9.2 0.35 -9.15 0.35 -8.95 0.3 -8.85 0.25 -8.9 0.15 -8.9 0.05 -8.9 -0.05 -8.9 -0.15 -8.85 -0.2 -8.8 -0.3 -8.7 -0.4 -8.6 -0.45 -8.55 -0.5 -8.35 -0.55" fill="#663333" fill-opacity="0.2" fill-rule="evenodd" stroke="none"/>
    <path d="M8.65 -7.35 L8.9 -7.85 8.9 -7.95 8.95 -8.05 9.0 -8.15 9.05 -8.2 9.1 -8.3 9.15 -8.4 9.2 -8.5 9.2 -8.6 9.25 -8.7 9.3 -8.8 9.35 -8.9 9.4 -8.95 9.5 -9.05 9.6 -9.15 9.65 -9.15 9.8 -9.15 9.8 -9.2 10.0 -9.15 10.1 -9.05 10.15 -8.95 10.2 -8.85 10.25 -8.75 10.25 -8.65 10.25 -8.55 10.25 -8.45 10.2 -8.4 10.15 -8.3 10.15 -8.2 10.1 -8.1 10.05 -8.0 9.95 -7.8 9.9 -7.7 9.85 -7.6 9.85 -7.45 9.8 -7.25 9.75 -7.05 9.8 -6.95 9.8 -6.85 9.85 -6.8 9.9 -6.6 9.9 -6.3 9.9 -6.05 9.9 -5.9 9.95 -5.9 10.15 -5.9 10.35 -5.85 10.5 -5.75 10.55 -5.65 10.6 -5.55 10.65 -5.45 10.65 -5.4 10.6 -5.3 10.6 -5.2 10.55 -5.1 10.5 -5.0 10.4 -4.8 10.15 -4.45 9.85 -4.15 9.8 -4.05 9.85 -3.95 9.9 -3.9 Q9.9 -2.45 10.05 -1.05 L10.25 1.45 10.35 4.0 10.3 4.2 10.2 4.55 10.1 4.95 10.1 5.1 10.1 5.2 10.1 5.3 10.1 5.4 10.1 5.5 10.1 5.6 10.0 5.85 9.85 6.35 9.85 6.8 9.85 6.9 9.85 7.0 9.95 7.2 10.05 7.35 10.1 7.45 10.1 7.55 10.15 7.65 10.2 7.85 10.25 8.05 10.35 8.1 10.35 8.2 10.35 8.3 10.4 8.4 10.4 8.5 10.4 8.7 10.4 9.05 10.4 9.45 10.4 9.55 10.45 9.6 10.5 9.7 10.5 9.8 10.6 9.9 10.6 10.0 10.6 10.1 10.6 10.2 10.55 10.3 10.55 10.35 10.5 10.45 10.45 10.55 10.4 10.65 10.35 10.75 10.35 10.85 10.25 10.95 10.25 11.05 10.15 11.1 10.05 11.2 9.8 11.3 9.55 11.2 9.45 11.1 9.25 10.95 9.1 10.75 9.1 10.65 9.05 10.55 9.0 10.45 8.95 10.35 8.9 10.3 8.85 10.2 8.85 10.1 8.85 10.0 8.75 10.0 8.55 10.0 8.4 10.05 8.15 9.95 8.0 9.85 7.85 9.7 7.7 9.4 7.65 9.3 7.6 9.2 7.6 9.05 7.6 8.75 7.6 8.55 7.55 8.45 7.5 8.4 7.4 8.3 7.4 8.2 7.35 8.1 7.35 8.0 7.3 7.95 7.05 7.8 6.9 7.7 6.75 7.6 6.65 7.55 6.65 7.45 6.6 7.35 6.55 7.25 6.5 7.15 6.45 6.95 6.4 6.8 6.2 6.5 5.9 6.05 5.7 5.75 5.65 5.45 5.55 5.0 5.55 4.6 5.55 4.55 5.5 4.45 5.3 4.15 5.15 3.9 5.1 3.8 5.05 3.7 5.05 3.6 5.05 3.5 5.05 3.4 5.05 3.3 5.0 3.2 4.95 3.1 4.9 3.05 4.9 2.95 4.85 2.85 4.8 2.75 4.75 2.65 4.65 2.55 4.65 1.8 4.65 0.85 4.65 -0.05 4.7 -0.15 4.75 -0.25 4.9 -0.35 4.9 -0.45 4.9 -0.55 4.9 -0.65 4.95 -0.7 4.95 -0.8 5.0 -0.9 5.05 -1.0 5.05 -1.1 5.1 -1.2 5.1 -1.3 5.1 -1.35 5.15 -1.45 5.25 -1.55 5.35 -1.65 5.35 -1.75 5.4 -1.85 5.4 -1.95 5.4 -2.05 5.7 -2.45 6.15 -3.0 6.4 -3.25 6.45 -3.35 6.5 -3.45 6.5 -3.55 6.6 -3.7 6.9 -4.1 7.25 -4.65 7.45 -5.05 7.6 -5.15 7.6 -5.2 7.65 -5.3 7.65 -5.4 7.7 -5.5 7.7 -5.6 7.75 -5.7 7.8 -5.8 7.9 -5.9 7.95 -5.95 8.0 -6.05 8.05 -6.15 8.1 -6.25 8.3 -6.7 8.65 -7.35 M6.4 0.4 L6.3 0.15 6.3 0.2 6.3 0.35 6.3 0.55 6.3 0.75 6.3 0.85 6.4 0.65 6.4 0.4" fill="#663333" fill-opacity="0.2" fill-rule="evenodd" stroke="none"/>
    <path d="M9.8 -5.2 L10.05 -5.15 10.15 -5.05 10.25 -4.95 10.25 -4.85 10.35 -4.75 10.3 -4.2 10.35 -3.35 10.35 -2.5 10.3 -2.4 10.25 -2.3 10.25 -2.2 10.15 -2.15 10.15 -2.05 10.15 -1.85 10.15 -1.65 10.1 -1.4 10.0 -0.45 9.85 0.8 9.85 1.7 9.85 1.8 9.95 1.9 10.0 2.0 10.05 2.1 10.1 3.2 10.1 4.6 10.1 5.65 10.1 5.75 10.15 5.85 10.2 5.95 10.25 6.05 10.3 6.1 10.35 6.85 10.35 7.9 10.35 8.85 10.3 8.95 10.25 9.05 10.25 9.1 10.2 9.2 10.15 9.3 10.15 9.4 10.15 9.6 10.15 9.8 10.1 10.05 10.1 10.15 10.1 10.25 10.1 10.45 10.15 10.6 10.15 10.7 10.15 10.9 10.2 11.1 10.15 11.35 10.1 11.45 10.05 11.55 10.0 11.65 9.9 11.7 9.85 11.75 9.65 11.8 9.4 11.7 9.25 11.6 9.2 11.5 9.15 11.45 9.1 11.35 9.1 11.25 9.1 11.15 9.1 11.05 9.05 10.95 9.0 10.9 8.9 10.8 8.9 10.7 8.85 10.6 8.85 10.5 8.85 10.4 8.8 10.3 8.75 10.2 8.65 10.05 8.6 9.95 8.55 9.85 8.55 9.75 8.5 9.7 8.3 9.55 8.2 9.45 8.1 9.35 8.05 9.3 8.0 9.2 8.0 9.1 8.0 9.0 8.0 8.9 8.0 8.85 7.65 8.75 7.3 8.7 7.15 8.6 7.1 8.5 7.05 8.4 7.0 8.3 6.9 8.2 6.9 8.1 6.85 8.05 6.85 7.95 6.8 7.85 6.8 7.75 6.8 7.65 6.8 7.55 6.8 7.45 6.8 7.4 6.75 7.3 6.7 7.2 6.65 7.1 6.6 7.0 6.5 6.7 6.4 6.45 6.35 6.15 6.25 6.05 6.1 5.85 5.95 5.7 5.9 5.6 5.8 5.5 5.7 5.4 5.65 5.3 5.6 5.2 5.6 5.1 5.6 5.05 5.6 4.95 5.6 4.85 5.6 4.75 5.55 4.65 5.45 4.55 5.4 4.45 5.35 4.35 5.35 4.3 5.35 4.1 5.4 3.9 5.45 3.8 5.5 3.7 5.65 3.6 5.9 3.55 7.15 3.55 7.3 3.5 7.35 3.4 7.4 3.3 7.4 3.2 7.5 3.1 7.55 3.05 7.5 2.95 7.45 2.85 7.35 2.65 7.3 2.55 7.3 2.35 7.25 2.0 7.25 1.55 7.25 1.35 7.25 1.25 7.2 1.15 7.15 1.05 7.1 0.95 7.1 0.7 7.1 0.4 7.1 0.1 7.3 -0.15 Q7.75 -0.5 8.35 -0.6 L8.35 -0.95 8.35 -1.55 8.35 -2.1 8.4 -2.2 8.45 -2.3 8.5 -2.4 8.7 -2.55 8.75 -2.65 8.75 -2.75 8.75 -2.85 8.75 -2.95 8.8 -3.05 8.85 -3.2 8.9 -3.5 8.9 -3.7 8.95 -3.8 9.0 -3.9 9.0 -3.95 9.0 -4.05 9.0 -4.25 9.0 -4.45 9.0 -4.55 9.05 -4.6 9.2 -4.8 9.4 -5.0 9.5 -5.1 9.6 -5.15 9.8 -5.15 9.8 -5.2" fill="#663333" fill-opacity="0.2" fill-rule="evenodd" stroke="none"/>
    <path d="M6.65 -0.7 L6.85 -0.65 7.0 -0.55 7.15 -0.35 7.25 -0.2 7.4 0.0 7.5 0.1 7.5 0.3 7.5 0.55 7.5 0.85 7.5 1.2 7.45 1.3 7.4 1.4 7.35 1.5 7.35 1.6 7.3 1.7 Q6.75 2.25 5.9 2.05 L5.35 1.9 5.2 1.8 5.1 1.7 5.1 1.6 5.1 1.55 5.1 1.45 5.1 1.35 5.15 1.25 5.15 1.15 5.15 1.05 5.15 0.95 5.15 0.85 5.15 0.8 5.2 0.7 5.25 0.6 5.35 0.5 5.55 0.45 5.75 0.5 5.85 0.6 5.9 0.65 6.2 0.6 6.2 0.55 6.2 0.45 6.2 0.35 6.2 0.25 6.2 0.15 6.15 0.05 6.1 -0.05 6.1 -0.15 6.1 -0.2 6.1 -0.3 6.1 -0.4 6.15 -0.5 6.25 -0.6 6.35 -0.65 6.4 -0.7 6.55 -0.7 6.65 -0.7" fill="#663333" fill-opacity="0.2" fill-rule="evenodd" stroke="none"/>
    <path d="M-0.85 -0.7 L-0.65 -0.65 -0.4 -0.55 -0.25 -0.45 -0.2 -0.4 -0.15 -0.3 -0.05 -0.2 0.1 -0.2 0.3 -0.15 0.45 -0.05 0.55 0.05 0.6 0.05 0.8 0.1 1.0 0.15 1.15 0.25 1.3 0.3 1.55 0.35 1.7 0.45 1.85 0.55 1.95 0.55 2.15 0.6 2.25 0.7 2.35 0.8 2.55 0.85 2.65 0.95 2.75 1.05 2.75 1.15 2.85 1.25 2.85 1.35 2.85 1.45 2.8 1.55 2.8 1.6 2.75 1.7 2.7 1.8 2.65 1.9 2.55 1.95 2.5 2.0 2.3 2.05 2.1 2.1 2.0 2.2 2.0 2.3 1.9 2.35 1.8 2.45 1.55 2.55 1.3 2.55 1.05 2.45 0.95 2.35 0.85 2.3 0.65 2.2 0.45 2.1 0.35 2.05 0.3 2.05 -0.9 2.0 -1.05 2.0 -1.15 2.05 -1.25 2.05 -1.45 2.1 -1.5 2.2 -1.55 2.3 -1.6 2.4 -1.7 2.45 -1.75 2.5 -1.95 2.5 -2.1 2.55 -2.35 2.45 -2.5 2.35 -2.6 2.3 -2.75 2.35 -2.85 2.45 -3.1 2.5 -3.6 2.6 -4.2 2.75 -4.7 2.75 -4.95 2.7 -5.1 2.6 -5.15 2.5 -5.15 2.4 -5.2 2.3 -5.2 2.2 -5.2 2.1 -5.2 2.0 -6.05 1.95 -6.15 2.05 -6.25 2.1 -6.35 2.2 -6.6 2.3 -6.7 2.25 -6.95 2.2 -7.05 2.1 -7.15 2.0 -7.2 1.95 -7.3 1.85 -7.45 1.75 -7.55 1.65 -7.65 1.55 -7.7 1.45 -7.75 1.35 -7.75 1.3 -7.75 1.2 -7.75 1.1 -7.7 0.9 -7.65 0.8 -7.55 0.7 -7.45 0.6 -7.15 0.5 -7.0 0.45 -6.85 0.35 -6.8 0.35 -6.65 0.3 -6.5 0.25 -6.35 0.2 -6.15 0.1 -6.05 0.05 -5.95 -0.05 -5.8 -0.15 -5.7 -0.2 -5.65 -0.25 -5.45 -0.3 -5.35 -0.3 -5.15 -0.25 -5.0 -0.2 -4.7 -0.15 -4.6 -0.05 -4.5 0.05 -4.4 0.15 -4.3 0.25 -4.25 0.35 -4.2 0.45 -4.1 0.45 -3.7 0.25 -2.75 -0.25 -2.6 -0.3 -2.5 -0.35 -2.4 -0.4 -1.95 -0.55 -1.5 -0.7 -1.35 -0.7 -0.85 -0.7" fill="#663333" fill-opacity="0.2" fill-rule="evenodd" stroke="none"/>
    <path d="M6.05 -0.55 L6.2 -0.5 6.3 -0.4 6.35 -0.3 6.35 -0.2 6.35 -0.15 6.35 -0.05 6.35 0.05 6.3 0.15 6.25 0.25 6.25 0.3 6.15 0.35 6.05 0.35 5.4 0.35 5.2 0.3 5.15 0.2 5.1 0.1 5.1 0.05 5.1 -0.05 5.1 -0.15 5.15 -0.25 5.3 -0.3 5.55 -0.35 5.6 -0.4 5.7 -0.5 5.9 -0.55 6.05 -0.55" fill="#ffffff" fill-opacity="0.2" fill-rule="evenodd" stroke="none"/>
    <path d="M-8.7 -0.65 L-8.65 -0.55 -8.65 -0.45 -8.65 -0.4 -8.65 -0.3 -8.65 -0.2 -8.65 -0.1 -8.7 0.0 -8.85 0.05 -8.95 0.05 -9.2 0.0 -9.3 -0.1 -9.3 -0.2 -9.3 -0.3 -9.35 -0.4 -9.3 -0.45 -9.25 -0.55 -9.15 -0.65 -8.95 -0.7 -8.85 -0.7 -8.7 -0.65" fill="#ffffff" fill-opacity="0.2" fill-rule="evenodd" stroke="none"/>
    <path d="M-7.4 -1.3 L-8.05 -1.25 -8.65 -1.1 -9.8 -0.75 -10.2 -0.6 -10.3 -0.5 -10.4 -0.4 -10.6 -0.4 -10.65 -0.5 -10.65 -0.55 -10.55 -0.65 -10.45 -0.75 -10.4 -0.85 -8.0 -1.6 -5.25 -1.9 1.75 -2.4 1.85 -2.5 2.0 -2.5 3.0 -2.6 3.35 -2.6 3.5 -2.55 3.55 -2.45 3.6 -2.35 3.55 -2.25 3.5 -2.15 3.35 -2.1 2.85 -2.05 1.95 -1.95 1.85 -1.9 1.75 -1.85 -5.6 -1.4 -7.4 -1.3" fill="#ffffff" fill-opacity="0.2" fill-rule="evenodd" stroke="none"/>
    <path d="M10.1 -11.4 L10.2 -11.25 10.15 -11.2 10.15 -11.1 10.1 -11.0 10.0 -10.9 10.0 -10.8 10.0 -10.7 10.0 -10.65 9.85 -10.45 9.7 -10.25 9.6 -10.15 9.35 -9.6 9.05 -9.0 8.8 -8.65 8.75 -8.55 8.75 -8.45 7.25 -5.75 5.55 -3.05 4.65 -1.55 4.65 -1.45 4.6 -1.35 4.6 -1.25 4.55 -1.15 4.5 -1.05 4.4 -0.9 4.3 -0.7 4.15 -0.5 4.15 -0.4 4.1 -0.3 4.1 -0.2 4.05 -0.15 4.0 -0.05 3.9 0.05 3.8 0.05 3.6 0.0 3.5 -0.1 3.5 -0.2 3.5 -0.3 3.5 -0.4 3.5 -0.45 3.5 -0.55 3.55 -0.65 3.6 -0.75 3.6 -0.85 3.7 -0.95 3.75 -1.05 3.85 -1.15 3.85 -1.2 3.9 -1.3 3.9 -1.4 4.0 -1.5 4.0 -1.6 4.05 -1.7 4.1 -1.8 6.2 -5.15 7.75 -7.7 9.15 -10.2 9.25 -10.3 9.35 -10.4 9.45 -10.5 9.5 -10.6 9.6 -10.7 9.65 -10.8 9.65 -10.9 9.7 -10.95 9.75 -11.05 9.8 -11.15 9.85 -11.25 9.9 -11.35 10.05 -11.35 10.1 -11.4" fill="#ffffff" fill-opacity="0.2" fill-rule="evenodd" stroke="none"/>
    <path d="M-8.7 -1.85 L-8.85 -1.85 -8.9 -1.9 -8.95 -2.0 -8.95 -2.1 -8.9 -2.25 -8.85 -2.3 -5.35 -2.7 -4.9 -2.75 -0.35 -3.05 0.4 -3.15 4.05 -3.45 4.15 -3.35 4.25 -3.3 4.4 -3.25 4.4 -3.15 4.45 -3.0 4.4 -2.8 4.25 -2.65 4.1 -2.5 -0.35 -2.25 -1.75 -2.2 -5.35 -1.95 -6.5 -1.9 -8.65 -1.85 -8.7 -1.85 M4.45 2.25 L4.55 2.45 4.7 2.55 4.75 2.7 4.8 2.95 4.75 3.35 4.6 3.4 4.5 3.5 4.3 3.55 4.2 3.5 4.15 3.45 4.0 3.35 3.9 3.25 -0.35 3.05 -2.3 2.85 -5.35 2.6 -7.05 2.45 -9.15 2.15 -9.2 2.15 -9.25 2.05 -9.3 2.0 -9.45 2.0 -9.5 1.95 -9.5 1.85 -9.5 1.8 -9.4 1.75 -9.3 1.75 -9.25 1.75 -9.2 1.7 -5.35 1.6 -5.0 1.6 -0.35 1.7 0.45 1.7 4.2 2.1 4.3 2.2 4.45 2.25" fill="#333333" fill-rule="evenodd" stroke="none"/>
    <path d="M3.4 1.95 L3.4 1.85 3.45 1.8 3.6 1.7 3.55 1.65 3.75 1.65 3.9 1.7 6.2 5.25 8.45 8.95 9.75 11.15 9.75 11.25 9.8 11.4 9.75 11.55 9.7 11.65 9.6 11.75 9.5 11.9 9.2 11.95 8.95 11.95 8.8 11.9 6.6 8.2 4.5 4.25 3.4 1.95" fill="#333333" fill-rule="evenodd" stroke="none"/>
    <path d="M3.4 -1.85 L3.4 -1.75 3.45 -1.7 3.6 -1.6 3.55 -1.55 3.75 -1.55 3.9 -1.6 6.2 -5.15 8.45 -8.85 9.75 -11.05 9.75 -11.15 9.8 -11.3 9.75 -11.45 9.7 -11.55 9.6 -11.65 9.5 -11.8 9.2 -11.85 8.95 -11.85 8.8 -11.8 6.6 -8.1 4.5 -4.15 3.4 -1.85" fill="#333333" fill-rule="evenodd" stroke="none"/>
    <path d="M10.3 -12.05 L10.4 -12.1 10.55 -12.05 10.7 -12.0 10.8 -11.9 10.95 -11.8 11.05 -11.5 Q11.35 0.35 10.85 12.2 L10.75 12.3 10.6 12.35 10.45 12.4 10.35 12.4 10.2 12.35 10.1 12.25 10.0 12.2 9.9 11.55 9.8 -7.25 9.8 -9.3 9.85 -11.5 9.9 -11.8 10.05 -11.9 10.2 -12.0 10.3 -12.05" fill="#333333" fill-rule="evenodd" stroke="none"/>
    <path d="M4.3 2.2 L4.45 2.3 4.6 2.45 4.7 2.65 4.8 2.8 4.8 2.9 4.9 3.15 5.0 3.4 5.1 3.6 5.0 3.8 5.0 4.0 4.9 3.95 4.8 3.9 4.65 3.8 4.5 3.7 4.4 3.5 4.3 3.4 4.15 3.25 3.8 2.7 3.25 1.75 3.1 1.4 3.1 1.2 3.1 -1.0 3.1 -1.35 3.25 -1.55 3.3 -1.65 3.45 -2.2 3.55 -2.4 3.65 -2.5 3.8 -2.6 4.05 -2.9 4.2 -3.05 4.3 -3.15 4.45 -3.35 4.6 -3.5 4.7 -3.45 4.8 -3.35 4.7 -3.05 4.65 -2.9 4.5 -2.7 4.45 -2.65 4.35 -2.3 4.2 -2.0 4.05 -1.65 3.9 -1.3 3.85 -1.0 3.95 1.4 4.05 1.7 4.2 1.95 4.3 2.2" fill="#333333" fill-rule="evenodd" stroke="none"/>
    <path d="M9.2 10.95 L9.35 10.9 9.45 10.9 9.55 10.95 9.7 11.0 9.85 11.05 9.95 11.15 10.05 11.2 10.2 11.2 10.35 11.2 10.45 11.25 10.55 11.3 10.6 11.4 10.6 11.55 10.55 11.8 10.4 11.9 10.3 12.2 10.2 12.25 10.05 12.35 9.9 12.35 9.75 12.35 9.65 12.35 9.55 12.3 9.4 12.3 9.25 12.2 9.15 11.95 9.05 11.8 9.0 11.7 9.0 11.55 9.0 11.4 9.05 11.1 9.2 10.95" fill="#333333" fill-rule="evenodd" stroke="none"/>
    <path d="M8.65 -11.4 L8.75 -11.5 8.85 -11.7 9.25 -12.05 9.45 -12.2 9.75 -12.35 10.0 -12.35 10.1 -12.35 10.25 -12.35 10.4 -12.3 10.55 -12.3 10.6 -12.25 10.75 -12.05 10.65 -11.85 10.55 -11.7 10.4 -11.7 10.25 -11.7 10.1 -11.7 10.0 -11.7 9.9 -11.6 9.75 -11.55 9.6 -11.5 9.5 -11.5 9.35 -11.4 9.25 -11.3 9.0 -11.25 8.85 -11.25 8.75 -11.25 8.65 -11.3 8.65 -11.35 8.65 -11.4" fill="#333333" fill-rule="evenodd" stroke="none"/>
    <path d="M6.65 1.1 L5.9 1.05 5.8 0.95 5.65 0.9 Q5.25 0.55 5.3 0.1 5.35 -0.15 5.65 0.2 L5.95 0.4 6.3 0.4 Q6.4 0.05 6.15 -0.1 L5.95 -0.2 5.8 -0.3 5.6 -0.45 5.55 -0.5 5.55 -0.65 6.3 -0.65 Q7.2 -0.3 7.05 0.7 L6.65 1.1" fill="#333333" fill-rule="evenodd" stroke="none"/>
    <path d="M-7.45 -2.3 L-6.85 -2.2 -6.65 -2.2 -6.55 -2.05 -6.6 -2.0 -6.6 -1.95 -6.85 -1.9 -8.65 -1.7 -8.9 -1.6 -9.0 -1.55 -9.1 -1.5 -9.2 -1.5 -9.6 -1.45 -9.75 -1.35 -9.9 -1.25 -10.0 -1.15 -10.1 -1.05 -10.2 -0.95 -10.25 -0.85 -10.3 -0.75 -10.35 -0.7 -10.35 -0.6 -10.35 -0.5 -10.35 -0.4 -10.3 -0.1 -10.35 0.25 -10.35 0.35 -10.35 0.45 -10.35 0.55 -10.35 0.65 -10.3 0.7 -10.2 0.8 -10.05 0.9 -9.9 1.0 -9.8 1.05 -9.6 1.1 -9.45 1.15 -9.25 1.2 -9.1 1.3 -8.85 1.4 -7.45 1.65 -7.25 1.7 -7.05 1.75 -6.95 1.8 -6.35 1.85 -6.15 1.9 -6.1 2.0 -5.8 2.05 -5.75 2.2 -5.75 2.25 -5.75 2.3 -5.85 2.35 -6.1 2.4 -6.15 2.5 -6.2 2.5 -6.35 2.55 -6.85 2.55 -7.0 2.55 -7.15 2.5 -7.35 2.45 -7.95 2.45 -8.4 2.4 -9.4 2.1 -9.5 2.0 -9.6 1.95 -9.65 1.9 -9.8 1.9 -9.95 1.85 -10.15 1.8 -10.35 1.7 -10.5 1.6 -10.6 1.5 -10.75 1.35 -10.95 1.15 -11.0 1.05 -11.0 0.95 -11.1 0.85 -11.1 0.75 -11.1 0.65 -11.1 0.5 -11.1 0.0 -11.1 -0.2 -11.1 -0.25 -11.05 -0.35 -11.05 -0.45 -11.05 -0.85 -11.0 -0.95 -11.0 -1.0 -10.9 -1.1 -10.85 -1.2 -10.75 -1.4 -10.4 -1.75 -10.35 -1.75 -10.15 -1.85 -10.0 -1.9 -9.9 -2.0 -9.8 -2.05 -9.75 -2.1 -9.6 -2.1 -9.15 -2.2 -9.0 -2.25 -8.85 -2.25 -8.75 -2.3 -8.6 -2.3 -8.45 -2.3 -8.45 -2.35 -7.7 -2.3 -7.45 -2.3" fill="#333333" fill-rule="evenodd" stroke="none"/>
    <path d="M-8.4 0.7 L-9.15 0.65 -9.25 0.55 -9.4 0.5 -9.75 -0.3 Q-9.7 -0.55 -9.4 -0.2 L-9.1 0.0 -8.75 0.0 Q-8.65 -0.35 -8.9 -0.5 L-9.1 -0.6 -9.25 -0.7 -9.45 -0.85 -9.5 -0.9 -9.5 -1.05 -8.75 -1.05 Q-7.85 -0.7 -8.0 0.3 L-8.4 0.7" fill="#333333" fill-rule="evenodd" stroke="none"/>
    <path d="M2.5 -0.95 L2.6 -1.05 2.65 -1.15 2.65 -1.25 2.7 -1.35 2.75 -1.45 2.85 -1.5 2.9 -1.55 3.25 -1.65 3.4 -1.7 3.7 -1.65 3.75 -1.5 3.75 -1.45 3.75 -1.4 3.65 -1.35 3.5 -1.3 3.55 -1.2 3.55 -1.0 3.55 -0.8 3.55 -0.65 3.55 -0.55 3.6 -0.45 3.65 -0.15 3.75 0.05 3.8 0.2 3.8 0.3 3.8 0.4 3.8 0.5 3.85 0.6 3.85 0.7 3.9 0.85 3.95 0.95 3.95 1.35 3.95 1.9 3.95 2.45 3.95 2.55 3.9 2.65 3.85 2.75 3.75 2.85 3.55 2.9 3.15 2.95 2.9 2.85 2.8 2.8 2.75 2.7 2.7 2.6 2.65 2.5 2.6 2.4 2.55 2.3 2.45 2.1 2.4 2.05 2.35 1.35 2.4 0.45 2.4 -0.4 2.5 -0.5 2.5 -0.6 2.5 -0.7 2.5 -0.8 2.5 -0.9 2.5 -0.95" fill="#333333" fill-rule="evenodd" stroke="none"/>
    <path d="M2.0 0.15 L2.05 0.25 2.1 0.35 2.1 0.45 2.15 0.55 2.15 0.8 2.15 1.2 2.15 1.55 2.15 1.65 2.25 1.85 2.3 2.05 2.35 2.1 2.4 2.2 2.45 2.3 2.5 2.4 2.5 2.5 2.5 2.6 2.45 2.7 2.4 2.8 2.4 2.85 2.35 2.85 2.3 2.8 2.3 2.7 2.15 2.65 2.05 2.55 2.0 2.45 1.95 2.35 1.9 2.3 1.8 2.2 1.75 2.1 1.75 2.0 1.7 1.9 1.65 1.8 1.65 1.7 1.65 1.45 1.65 1.05 1.65 0.7 1.6 0.6 1.6 0.5 1.55 0.4 1.55 0.3 1.55 0.2 1.6 0.15 1.65 0.05 1.8 0.0 1.95 0.05 2.0 0.15" fill="#333333" fill-rule="evenodd" stroke="none"/>
    <path d="M-3.65 0.5 L-3.6 0.8 -3.6 1.15 -3.6 1.55 -3.6 1.6 -3.65 1.7 -3.65 1.8 -3.7 1.9 -3.7 2.0 -3.7 2.1 -3.7 2.2 -3.7 2.3 -3.75 2.35 -3.8 2.45 -3.9 2.55 -3.95 2.6 -4.05 2.55 -4.15 2.45 -4.15 2.35 -4.2 2.3 -4.2 2.1 -4.25 1.9 -4.25 1.8 -4.25 1.7 -4.2 1.6 -4.15 1.55 -4.15 1.45 -4.15 1.25 -4.1 0.95 -4.1 0.7 -4.1 0.6 -4.1 0.5 -4.0 0.4 -3.85 0.35 -3.7 0.4 -3.65 0.5" fill="#333333" fill-rule="evenodd" stroke="none"/>
    <path d="M-3.3 0.6 L-3.3 0.55 -3.2 0.45 -2.95 0.4 -2.95 0.35 -2.8 0.45 -2.75 0.55 -2.7 0.65 -2.65 0.7 -2.65 0.8 -2.65 0.9 -2.65 1.0 -2.6 1.1 -2.55 1.2 -2.5 1.3 -2.5 1.4 -2.5 1.45 -2.5 1.55 -2.5 1.65 -2.45 1.75 -2.4 1.85 -2.5 1.85 -2.6 1.85 -2.7 1.8 -2.85 1.75 -2.9 1.65 -2.9 1.55 -2.9 1.45 -2.95 1.4 -3.0 1.3 -3.1 1.2 -3.1 1.1 -3.1 1.0 -3.1 0.9 -3.1 0.8 -3.25 0.7 -3.3 0.6" fill="#333333" fill-rule="evenodd" stroke="none"/>
    <path d="M6.85 4.95 L6.95 5.05 6.95 5.15 6.7 5.6 6.4 5.8 6.0 6.2 6.0 6.3 5.9 6.35 5.75 6.45 5.65 6.5 5.6 6.55 5.6 6.45 5.6 6.35 5.6 6.25 5.6 6.15 5.8 5.75 6.1 5.5 6.4 5.15 6.55 5.1 6.6 5.05 6.7 5.0 6.8 4.95 6.85 4.95" fill="#333333" fill-rule="evenodd" stroke="none"/>
    <path d="M8.35 3.95 L8.45 4.05 8.4 4.3 8.2 4.6 8.1 4.8 8.05 4.85 8.0 4.95 8.0 5.05 8.0 5.15 7.95 5.25 7.9 5.35 7.85 5.45 7.85 5.55 7.85 5.6 7.85 5.7 7.85 5.8 7.8 5.9 7.7 6.0 7.65 6.1 7.55 6.15 7.35 6.1 7.35 6.05 7.4 5.95 7.4 5.85 7.4 5.75 7.4 5.55 7.4 5.35 7.4 5.3 7.45 5.2 7.5 5.1 7.6 5.0 7.65 4.9 7.65 4.8 7.65 4.7 7.85 4.45 8.0 4.15 8.15 3.95 8.3 3.95 8.35 3.95" fill="#333333" fill-rule="evenodd" stroke="none"/>
    <path d="M8.45 5.95 L8.5 6.05 8.5 6.1 8.55 6.3 8.5 6.4 8.4 6.6 8.3 6.8 8.2 6.95 8.05 7.45 7.9 7.9 7.8 8.3 7.75 8.35 7.75 8.45 7.7 8.55 7.65 8.65 7.6 8.75 7.5 8.8 7.45 8.7 7.4 8.6 7.35 8.5 7.35 8.4 7.3 8.3 7.3 8.2 7.3 8.15 7.35 8.05 7.45 7.65 7.55 7.25 7.65 7.0 7.75 6.7 7.95 6.45 8.1 6.15 8.1 6.05 8.1 5.95 8.15 5.85 8.3 5.85 8.35 5.85 8.45 5.95" fill="#333333" fill-rule="evenodd" stroke="none"/>
  </g>
</svg>
