<?xml version="1.0" encoding="UTF-8" standalone="no"?>
<svg xmlns:xlink="http://www.w3.org/1999/xlink" height="66.6px" width="66.7px" xmlns="http://www.w3.org/2000/svg">
  <g transform="matrix(1.0, 0.0, 0.0, 1.0, -2.6, -2.6)">
    <path d="M61.0 15.1 Q60.25 13.85 58.8 12.85 L54.1 9.65 49.05 6.35 Q46.4 4.85 43.6 4.4 L39.35 3.95 35.85 3.35 30.35 3.65 Q27.8 3.95 24.75 5.3 L18.85 8.2 15.05 10.4 Q14.1 11.05 12.85 12.85 L9.0 17.6 Q6.9 20.05 5.8 22.8 4.7 25.55 3.9 28.2 3.1 30.85 3.45 32.9 3.85 35.0 3.35 35.85 3.6 39.5 4.1 42.05 4.65 44.65 5.95 47.4 L8.65 52.5 10.7 56.3 Q11.4 57.8 12.85 58.8 15.1 61.45 17.45 62.95 19.85 64.45 22.6 65.65 25.35 66.9 28.5 67.5 L33.05 67.95 35.85 68.35 41.9 68.1 Q44.7 67.55 47.45 66.3 50.2 65.05 52.9 63.05 55.65 61.1 56.65 60.45 L58.8 58.8 62.4 53.95 Q64.2 51.65 65.35 48.7 66.5 45.75 67.15 43.0 L68.3 38.7 Q68.8 37.15 68.35 35.85 68.6 33.5 67.95 30.0 67.35 26.55 66.15 24.0 64.95 21.5 63.35 18.95 L61.0 15.1 Z" fill="none" stroke="#90c7b7" stroke-linecap="round" stroke-linejoin="round" stroke-opacity="0.5019608" stroke-width="1.5"/>
    <path d="M48.2 24.45 Q53.3 29.6 53.3 36.85 53.3 44.1 48.2 49.2 43.05 54.35 35.8 54.35 28.55 54.35 23.45 49.2 18.3 44.1 18.3 36.85 18.3 29.6 23.45 24.45 28.55 19.35 35.8 19.35 43.1 19.35 48.2 24.45 M47.3 36.85 Q47.3 32.1 43.95 28.7 40.55 25.35 35.8 25.35 31.05 25.35 27.7 28.7 24.3 32.1 24.3 36.85 24.3 41.6 27.7 44.95 31.1 48.35 35.8 48.35 40.55 48.35 43.95 44.95 47.3 41.6 47.3 36.85" fill="#93c7b7" fill-rule="evenodd" stroke="none"/>
    <path d="M41.1 33.55 L30.55 33.55 27.0 14.5 44.6 14.5 41.1 33.55" fill="#ffffff" fill-rule="evenodd" stroke="none"/>
    <path d="M38.8 35.35 L32.8 35.35 31.8 16.7 39.8 16.7 38.8 35.35" fill="#93c7b7" fill-rule="evenodd" stroke="none"/>
  </g>
</svg>
