<?xml version="1.0" encoding="UTF-8" standalone="no"?>
<svg xmlns:xlink="http://www.w3.org/1999/xlink" height="84.8px" width="26.85px" xmlns="http://www.w3.org/2000/svg">
  <g transform="matrix(1.0, 0.0, 0.0, 1.0, 12.4, 42.55)">
    <path d="M-1.15 -42.3 L-1.15 41.1 -11.6 41.1 -11.6 -42.3 -1.15 -42.3" fill="#b0cedc" fill-rule="evenodd" stroke="none"/>
    <path d="M4.9 -7.9 L4.9 7.9 -1.2 13.55 -1.2 -13.55 4.9 -7.9" fill="#b0cedc" fill-rule="evenodd" stroke="none"/>
    <path d="M14.15 -35.1 L-1.65 -28.55 -1.65 -41.6 14.15 -41.6 14.15 -35.1" fill="#b0cedc" fill-rule="evenodd" stroke="none"/>
    <path d="M13.9 35.1 L-1.9 28.55 -1.9 41.6 13.9 41.6 13.9 35.1" fill="#b0cedc" fill-rule="evenodd" stroke="none"/>
    <path d="M0.15 -1.35 L0.25 -1.25 0.3 -1.1 0.4 -0.95 0.5 -0.9 0.6 -0.85 0.7 -0.75 0.75 -0.7 0.8 -0.65 0.8 -0.5 0.8 -0.15 0.8 -0.05 0.8 0.0 0.85 0.15 0.85 0.4 0.9 0.4 0.85 0.65 0.75 0.75 0.65 0.85 0.55 0.95 0.45 1.05 0.35 1.1 0.25 1.25 0.15 1.3 0.05 1.4 -0.2 1.8 -0.45 2.05 -0.75 2.5 -0.85 2.55 -0.95 2.6 -1.05 2.65 -1.15 2.7 -1.25 2.7 -1.35 2.7 -1.45 2.7 -1.5 2.7 -1.6 2.7 -1.7 2.7 -1.8 2.7 -1.9 2.65 -2.0 2.6 -2.1 2.5 -2.15 2.45 -2.2 2.25 -2.1 2.05 -2.05 1.95 -2.05 1.75 -2.0 -2.85 -1.95 -3.05 -1.85 -3.2 -1.75 -3.25 -1.7 -3.25 -1.6 -3.25 -1.5 -3.25 -1.4 -3.25 -1.3 -3.2 -1.2 -3.05 -1.1 -2.9 -0.95 -2.65 -0.9 -2.45 -0.8 -2.25 -0.6 -2.1 -0.35 -1.8 -0.05 -1.45 0.05 -1.4 0.15 -1.35" fill="#33ff66" fill-rule="evenodd" stroke="none"/>
    <path d="M-5.35 -2.7 L-5.25 -2.75 -5.15 -2.75 -5.05 -2.75 -4.95 -2.7 -4.9 -2.65 -4.8 -2.55 -4.7 -2.4 -4.7 -2.25 -4.7 -2.1 -4.75 -2.0 -4.75 -1.85 -4.8 -1.65 -4.85 -1.15 -4.8 -0.25 -4.75 0.15 -4.6 1.15 -4.6 1.9 -4.65 2.1 -4.7 2.25 -4.6 2.4 -4.55 2.6 -4.45 2.7 -4.45 2.75 -4.4 2.9 -4.4 2.95 -4.45 3.15 -4.55 3.25 -4.65 3.3 -4.75 3.35 -4.85 3.35 -4.95 3.35 -5.05 3.35 -5.1 3.35 -5.2 3.3 -5.3 3.25 -5.4 3.05 -5.5 2.95 -5.6 2.8 -6.05 2.45 -6.55 1.9 -6.7 1.55 -6.8 1.45 -7.0 1.25 -7.2 0.9 -7.3 0.85 -7.4 0.75 -7.45 0.65 -7.55 0.5 -7.65 0.4 -7.65 0.25 -7.6 0.05 -7.5 -0.1 -7.4 -0.15 -7.25 -0.55 -6.95 -1.3 -6.85 -1.4 -6.65 -1.75 -6.35 -2.1 -6.3 -2.15 -6.2 -2.15 -6.1 -2.2 -6.0 -2.2 -5.9 -2.2 -5.85 -2.25 -5.6 -2.5 -5.35 -2.7" fill="#33ff66" fill-rule="evenodd" stroke="none"/>
    <path d="M-1.2 -10.7 L-11.3 -10.7 -11.3 -37.45 -1.2 -37.45 -1.2 -10.7" fill="#ffcc66" fill-rule="evenodd" stroke="none"/>
    <path d="M-1.4 37.35 L-11.1 37.35 -11.1 10.65 -1.4 10.65 -1.4 37.35" fill="#ffcc66" fill-rule="evenodd" stroke="none"/>
    <path d="M2.15 -7.15 L3.45 -7.15 3.6 -7.05 4.0 -6.75 4.5 -6.15 Q4.5 -4.1 4.85 -2.1 L4.85 1.0 4.7 1.35 4.7 2.15 4.9 2.55 5.25 3.3 5.4 3.75 5.4 4.5 5.25 4.95 5.25 5.2 5.4 5.45 5.4 5.75 5.45 5.75 5.35 6.2 5.15 6.45 4.95 6.55 4.75 6.6 4.55 6.65 4.4 6.7 4.2 6.7 4.0 6.7 3.8 6.75 3.65 6.8 3.45 6.85 3.25 6.95 1.95 6.95 0.25 6.9 -1.25 7.2 -2.95 7.2 -5.0 7.2 -6.9 7.2 -7.1 7.25 -7.25 7.3 -7.65 7.4 -8.0 7.5 -8.2 7.5 -8.6 7.5 -9.15 7.5 -9.5 7.5 -9.7 7.45 -9.9 7.35 -10.1 7.3 -10.25 7.2 -10.45 7.2 -10.65 7.2 -10.85 7.1 -11.0 7.0 -11.2 6.85 -11.35 6.7 -11.35 6.55 -11.45 5.0 -11.2 3.5 -11.1 3.05 -10.95 -5.6 -10.85 -6.05 -10.65 -6.3 -10.45 -6.8 -10.25 -6.95 -10.1 -7.1 -9.5 -7.2 -8.6 -7.15 -7.65 -7.15 -7.45 -7.15 -7.25 -7.1 -7.1 -7.05 -6.9 -7.0 -6.7 -6.9 -6.5 -6.9 -6.15 -6.85 -5.75 -6.75 -5.4 -6.65 -5.2 -6.65 -5.0 -6.65 -4.65 -6.65 -4.25 -6.65 -4.05 -6.7 -3.9 -6.8 -3.7 -6.85 -3.5 -6.85 -3.3 -6.85 -3.15 -6.9 -2.95 -7.05 -2.75 -7.2 -2.55 -7.35 -2.35 -7.4 -2.2 -7.4 -2.0 -7.4 -1.8 -7.4 -1.65 -7.4 -1.45 -7.35 -1.25 -7.3 -1.05 -7.25 -0.85 -7.1 -0.7 -7.0 -0.5 -7.05 -0.3 -7.1 -0.1 -7.15 0.8 -7.15 2.15 -7.15" fill="#663366" fill-opacity="0.16078432" fill-rule="evenodd" stroke="none"/>
    <path d="M-10.15 -41.85 L-9.95 -41.6 -9.85 -41.1 -9.8 -38.6 -9.7 -30.4 -9.7 40.5 -9.85 40.9 -10.0 41.15 -10.2 41.25 -10.4 41.3 -10.6 41.3 -10.75 41.25 -10.95 41.2 -11.15 41.0 -11.25 40.8 -11.3 40.5 Q-11.8 -0.3 -11.2 -41.1 L-11.1 -41.6 -10.9 -41.85 -10.7 -41.95 -10.5 -42.0 -10.35 -41.95 -10.15 -41.85" fill="#663366" fill-opacity="0.16078432" fill-rule="evenodd" stroke="none"/>
    <path d="M10.35 35.95 L10.55 36.0 10.7 36.05 10.9 36.1 11.1 36.2 11.3 36.35 11.45 36.55 11.65 36.7 11.85 36.7 12.05 36.7 12.2 36.7 12.4 36.7 12.6 36.7 12.75 36.7 12.95 36.8 13.15 36.95 13.5 37.15 13.7 37.3 13.8 37.75 13.85 37.75 13.85 40.25 13.7 40.65 13.55 40.85 13.35 41.05 13.0 41.25 12.6 41.5 12.4 41.55 12.2 41.55 11.85 41.55 11.45 41.55 11.1 41.55 10.9 41.5 10.7 41.4 10.55 41.3 10.35 41.2 10.15 41.2 9.95 41.25 9.75 41.3 9.0 41.4 5.85 41.4 2.25 41.2 0.75 40.9 0.6 40.9 0.4 41.15 0.2 41.25 0.0 41.3 -0.75 41.4 -4.15 41.4 -7.7 41.4 -9.2 41.3 -9.4 41.25 -9.6 41.15 -9.75 41.15 -9.95 41.15 -10.15 41.15 -10.35 41.05 -10.5 40.95 -10.7 40.75 -10.85 40.55 -10.9 40.25 -11.15 38.5 -11.15 37.5 -11.0 37.05 -10.85 36.8 -10.65 36.7 -10.45 36.6 -10.25 36.6 -10.1 36.65 -9.9 36.7 -9.7 36.8 -9.5 37.0 -9.35 37.2 -9.15 37.5 -8.95 37.45 -8.75 37.35 -8.6 37.35 -6.5 37.35 -4.05 37.35 -2.2 37.45 -2.0 37.35 -1.8 37.25 -1.65 37.2 -1.45 37.15 -1.25 37.1 -1.1 37.1 -1.0 35.55 -0.95 35.05 -0.95 33.25 -1.0 33.1 -1.05 32.8 -0.95 32.35 -0.75 32.2 -0.55 32.05 -0.35 32.0 -0.2 32.0 0.0 32.0 0.2 32.0 0.4 32.0 0.55 32.05 0.75 32.15 0.95 32.25 1.15 32.3 1.3 32.4 1.5 32.5 1.7 32.5 1.9 32.55 2.05 32.7 2.25 32.75 2.45 32.8 2.65 32.95 2.8 32.95 3.0 33.0 3.2 33.1 3.4 33.3 3.6 33.5 3.95 33.8 4.15 33.85 4.35 33.95 4.5 34.0 4.7 34.15 4.9 34.3 5.1 34.5 5.25 34.6 5.45 34.7 5.65 34.75 5.8 34.75 6.2 34.85 6.6 35.0 6.75 35.0 6.95 35.0 7.15 35.05 7.7 35.2 8.65 35.35 9.6 35.5 9.75 35.55 9.95 35.7 10.15 35.8 10.35 35.95" fill="#663366" fill-opacity="0.16078432" fill-rule="evenodd" stroke="none"/>
    <path d="M-2.3 36.35 L-2.15 36.35 -1.75 36.35 -1.55 36.35 -1.4 36.35 -1.2 36.45 -1.0 36.6 -0.9 37.0 -0.85 37.0 -1.0 37.3 -1.2 37.5 -1.4 37.6 -1.55 37.7 -1.75 37.8 -1.95 38.05 -2.15 38.15 -2.3 38.2 -2.35 38.25 -2.5 38.55 -2.7 38.75 -2.9 38.9 -3.05 38.9 -3.25 38.95 -3.45 39.05 -3.65 39.2 -4.2 39.4 -4.75 39.55 -5.5 39.8 -5.7 39.8 -5.9 39.95 -6.1 40.05 -6.45 40.25 -6.65 40.4 -7.0 40.5 -7.4 40.65 -7.75 40.75 -8.15 40.9 -8.35 41.0 -8.5 41.05 -8.9 41.1 -9.45 41.15 -9.85 41.2 -10.2 41.2 -10.4 41.15 -10.6 41.05 -10.75 40.95 -10.85 40.8 -10.95 40.5 -10.9 40.0 -10.95 39.95 -11.15 39.9 -11.35 39.8 -11.5 39.7 -11.6 39.55 -11.7 39.25 -11.7 39.0 -11.6 38.55 -11.4 38.45 -11.2 38.35 -11.0 38.3 -10.85 38.3 -10.7 38.3 -10.7 38.25 -10.7 38.0 -10.6 37.55 -10.4 37.45 -10.2 37.3 -10.0 37.3 -9.65 37.3 -9.25 37.3 -8.9 37.3 -8.7 37.4 Q-8.5 37.45 -8.35 37.55 L-7.95 37.8 -7.75 37.95 -7.6 37.85 -7.4 37.8 -7.2 37.75 -7.0 37.65 -6.85 37.55 -6.65 37.45 -5.5 37.15 -4.0 36.85 -2.5 36.35 -2.3 36.35" fill="#663366" fill-opacity="0.16078432" fill-rule="evenodd" stroke="none"/>
    <path d="M13.05 40.2 L13.2 40.4 13.3 40.75 13.35 40.75 13.2 41.05 13.05 41.2 12.85 41.25 12.65 41.25 12.45 41.2 12.3 41.05 12.1 40.95 11.9 40.95 11.7 41.0 11.55 41.05 11.35 41.15 3.05 41.3 -5.55 41.3 -10.65 41.3 -10.85 41.25 -11.0 41.15 -11.2 40.9 -11.35 40.5 -11.2 40.05 -11.0 39.9 -10.85 39.75 -2.75 39.7 5.7 39.75 10.8 39.9 10.95 39.85 11.15 39.8 11.35 39.75 11.55 39.7 11.7 39.65 11.9 39.65 12.1 39.65 12.25 39.65 12.5 39.8 12.65 39.95 12.85 40.0 13.05 40.2" fill="#663366" fill-opacity="0.16078432" fill-rule="evenodd" stroke="none"/>
    <path d="M13.4 -40.25 L4.6 -39.95 -4.65 -39.9 -9.9 -40.0 -10.1 -40.05 -10.25 -40.1 -10.45 -40.2 -10.65 -40.35 -10.75 -40.55 -10.85 -40.85 -10.7 -41.3 -10.5 -41.5 -10.35 -41.6 -10.15 -41.7 -0.95 -41.85 8.65 -41.65 14.1 -41.55 14.25 -41.45 14.35 -41.35 14.45 -41.1 14.35 -40.8 14.15 -40.55 13.95 -40.4 13.8 -40.35 13.6 -40.3 13.4 -40.25" fill="#663366" fill-opacity="0.16078432" fill-rule="evenodd" stroke="none"/>
    <path d="M-6.25 -40.4 L-6.05 -40.4 -5.7 -40.35 -5.3 -40.35 -4.95 -40.3 -4.75 -40.2 -4.55 -40.1 -4.4 -40.1 -4.2 -40.1 -3.8 -40.1 -3.45 -40.1 -3.25 -40.1 -3.05 -40.0 -2.9 -39.8 -2.7 -39.6 -2.5 -39.6 -2.3 -39.5 -2.15 -39.3 -1.95 -39.05 -1.75 -38.9 -1.55 -38.8 -1.4 -38.8 -1.2 -38.75 -1.0 -38.6 -0.85 -38.4 -0.85 -38.1 -0.8 -38.1 -0.95 -37.75 -1.15 -37.55 -1.3 -37.5 -1.5 -37.45 -1.7 -37.4 -1.9 -37.4 -2.05 -37.4 -2.25 -37.5 -2.45 -37.6 -2.8 -37.85 -3.0 -38.0 -3.2 -37.95 -3.4 -37.85 -3.55 -37.85 -3.95 -37.85 -4.3 -37.85 -4.7 -37.85 -4.9 -37.8 -5.05 -37.75 -5.25 -37.65 -5.45 -37.6 -5.65 -37.6 -6.0 -37.6 -6.4 -37.6 -6.75 -37.6 -6.95 -37.55 -7.15 -37.5 -7.35 -37.4 -7.5 -37.35 -8.1 -37.35 -9.0 -37.35 -9.75 -37.35 -9.95 -37.35 -10.15 -37.4 -10.35 -37.45 -10.5 -37.55 -10.7 -37.85 -10.9 -38.1 -11.0 -38.3 -11.1 -40.05 -11.2 -40.2 -11.25 -40.3 -11.35 -40.6 -11.25 -40.9 -11.15 -41.3 -10.95 -41.5 -10.75 -41.6 -10.6 -41.7 -10.4 -41.85 -10.2 -41.95 -10.0 -41.95 -9.85 -41.9 -9.65 -41.85 -9.45 -41.75 -9.25 -41.85 -9.1 -41.85 -8.9 -41.85 -8.7 -41.85 -7.9 -41.5 -7.05 -40.85 -6.25 -40.4" fill="#663366" fill-opacity="0.16078432" fill-rule="evenodd" stroke="none"/>
    <path d="M12.9 -41.7 L13.1 -41.6 13.25 -41.5 13.45 -41.3 13.6 -40.85 13.6 -40.5 13.75 -40.3 13.9 -40.1 14.05 -39.9 14.05 -39.6 14.1 -39.6 14.1 -39.35 13.95 -39.0 13.8 -38.75 13.6 -38.6 13.4 -38.55 13.35 -38.35 13.2 -38.0 13.05 -37.75 12.85 -37.6 12.65 -37.35 12.45 -37.2 12.3 -37.1 12.1 -37.05 11.9 -37.05 11.7 -37.05 11.5 -36.95 11.35 -36.85 11.15 -36.75 10.95 -36.65 10.8 -36.6 10.6 -36.55 10.4 -36.55 10.2 -36.45 10.05 -36.35 9.85 -36.3 9.65 -36.3 9.45 -36.3 9.1 -36.3 8.9 -36.3 8.7 -36.2 8.5 -36.1 8.35 -36.05 8.15 -36.0 7.95 -36.0 7.75 -36.0 7.6 -35.9 7.4 -35.8 7.2 -35.75 7.0 -35.75 6.85 -35.75 6.45 -35.75 6.25 -35.75 6.1 -35.75 5.9 -35.7 5.7 -35.6 5.5 -35.15 5.3 -35.0 5.15 -34.85 4.95 -34.8 4.75 -34.7 4.6 -34.65 4.4 -34.45 4.2 -34.3 3.65 -33.45 2.9 -32.95 2.35 -32.65 2.15 -32.55 1.75 -32.5 1.2 -32.45 0.8 -32.45 0.45 -32.5 0.25 -32.55 0.1 -32.5 -0.1 -32.2 -0.3 -32.1 -0.5 -32.05 -0.7 -32.0 -0.85 -32.0 -1.05 -32.05 -1.25 -32.15 -1.45 -32.35 -1.55 -32.55 -1.75 -36.4 -1.95 -36.75 -2.7 -36.75 -3.45 -36.75 -4.4 -36.7 -4.95 -36.8 -5.15 -36.85 -5.3 -37.0 -5.5 -37.0 -5.7 -37.05 -5.9 -37.1 -6.05 -37.25 -6.45 -37.25 -7.0 -37.25 -7.4 -37.25 -7.95 -37.25 -8.35 -37.3 -8.5 -37.35 -8.7 -37.5 -8.9 -37.5 -9.1 -37.5 -9.25 -37.55 -9.45 -37.6 -9.65 -37.6 -9.85 -37.55 -10.0 -37.4 -10.2 -37.3 -10.4 -37.25 -10.6 -37.25 -10.75 -37.25 -10.95 -37.3 -11.15 -37.35 -11.35 -37.5 -11.5 -37.65 -11.65 -38.1 -11.5 -38.55 -11.4 -38.85 -11.4 -39.35 -11.25 -39.8 -11.1 -40.15 -10.9 -40.55 -10.9 -41.1 -10.75 -41.55 -10.6 -41.8 -10.4 -41.95 -9.65 -42.0 -8.9 -42.0 -7.95 -42.0 -7.2 -42.0 -7.0 -41.95 -6.8 -41.85 -6.65 -41.8 -6.45 -41.75 -5.5 -41.75 -4.55 -41.75 -3.25 -41.75 -2.7 -41.75 -2.5 -41.7 -2.3 -41.65 -2.15 -41.55 -1.95 -41.5 -1.75 -41.5 -1.55 -41.5 -1.4 -41.4 -1.2 -41.3 -0.25 -41.4 0.5 -41.35 1.65 -41.35 2.4 -41.35 2.55 -41.45 2.75 -41.5 4.05 -41.5 5.75 -41.5 7.65 -41.5 8.2 -41.5 8.4 -41.45 8.6 -41.35 8.95 -41.4 9.5 -41.45 9.9 -41.5 10.3 -41.6 10.45 -41.7 10.85 -41.7 11.4 -41.7 11.8 -41.7 12.15 -41.75 12.35 -41.75 12.55 -41.75 12.7 -41.7 12.9 -41.7" fill="#663366" fill-opacity="0.16078432" fill-rule="evenodd" stroke="none"/>
    <path d="M-2.25 -3.4 L-2.15 -3.3 -2.1 -3.15 Q-1.7 -0.9 -1.95 1.25 L-1.95 3.5 -2.05 3.85 -2.25 4.1 -2.45 4.2 -2.65 4.3 -2.8 4.3 -3.0 4.25 -3.2 4.15 -3.35 4.0 -3.5 3.8 -3.55 3.5 -3.5 -2.85 -3.4 -3.3 -3.2 -3.45 -3.0 -3.55 -2.8 -3.6 -2.65 -3.6 -2.45 -3.5 -2.25 -3.4" fill="#663366" fill-opacity="0.16078432" fill-rule="evenodd" stroke="none"/>
    <path d="M-7.1 -3.4 L-6.9 -3.45 -6.7 -3.45 -6.5 -3.45 -6.3 -3.3 -6.15 -3.1 -5.95 -3.1 -5.75 -3.1 -5.55 -3.1 -5.4 -3.1 -5.2 -3.0 -5.0 -2.9 -4.9 -2.8 -4.85 -2.65 -4.8 -2.35 -4.75 -2.35 -4.9 -1.95 -5.1 -1.8 -5.25 -1.65 -5.65 -1.45 -5.8 -1.35 -6.0 -1.3 -6.2 -1.2 -6.4 -1.1 -6.55 -0.9 -6.75 -0.6 -6.95 -0.25 -7.15 -0.1 -7.25 0.25 -7.4 0.6 -7.45 0.85 -7.15 1.2 -6.55 1.8 -6.0 2.35 -5.8 2.75 -5.65 3.0 -5.3 3.35 -5.25 3.5 -5.2 3.75 -5.3 4.1 -5.5 4.2 -5.7 4.3 -6.05 4.2 -6.65 3.8 -7.2 3.05 -7.4 2.95 -7.6 2.85 -7.75 2.6 -7.95 2.25 -8.3 1.85 Q-8.55 1.55 -8.85 1.45 L-9.4 1.05 -9.45 0.95 -9.5 0.75 -9.45 0.0 -9.35 -0.45 -9.15 -0.6 -8.95 -0.85 -8.9 -1.0 -8.95 -1.15 -9.0 -1.3 -9.05 -1.6 -9.1 -1.85 -8.95 -2.3 -8.75 -2.45 -8.6 -2.65 -8.4 -2.8 -8.2 -2.9 -8.0 -2.95 -7.65 -3.1 -7.25 -3.35 -7.1 -3.4" fill="#663366" fill-opacity="0.16078432" fill-rule="evenodd" stroke="none"/>
    <path d="M-1.1 -1.85 L-0.95 -0.25 -0.9 -0.05 -0.85 0.0 -0.9 0.25 -0.95 1.5 -1.05 1.8 -1.25 1.9 -1.45 2.05 -1.65 2.05 -1.8 2.05 -2.0 2.1 -2.2 2.05 -2.35 1.95 -2.5 1.85 -2.55 1.75 -2.65 1.5 -2.5 1.1 -2.35 0.5 -2.15 0.0 -2.05 -0.25 -2.0 -0.5 -2.05 -1.95 -2.05 -2.3 -1.9 -2.45 -1.7 -2.45 -1.5 -2.35 -1.3 -2.25 -1.2 -2.15 -1.15 -2.1 -1.1 -1.85" fill="#663366" fill-opacity="0.16078432" fill-rule="evenodd" stroke="none"/>
    <path d="M-10.2 -7.2 L-10.0 -7.25 -9.85 -7.25 -9.65 -7.2 -9.45 -7.15 -9.3 -7.1 -9.1 -6.9 -8.95 -6.65 -8.85 -6.4 -8.65 -6.4 -8.45 -6.4 -8.1 -6.4 -7.5 -6.4 -7.35 -6.35 -7.15 -6.4 -6.95 -6.55 -6.75 -6.65 -6.55 -6.65 -6.4 -6.65 -6.2 -6.65 -6.0 -6.65 -5.8 -6.6 -5.65 -6.65 -5.45 -6.65 -5.25 -6.65 -5.05 -6.65 -4.9 -6.6 -4.7 -6.4 -4.5 -6.2 -4.3 -6.05 -4.15 -5.65 -3.95 -5.3 Q-3.85 -5.2 -3.75 -5.2 L-3.55 -5.15 -3.4 -5.05 -3.2 -4.9 -3.0 -4.7 -2.8 -4.55 -2.6 -4.1 -2.5 -3.9 -2.45 -3.6 -2.3 -3.3 -2.2 -2.85 -2.2 -2.35 -2.3 -1.95 -2.5 -1.7 -2.5 -1.55 -2.4 2.1 -2.2 2.25 -2.0 2.35 -1.8 2.55 -1.7 3.0 -1.7 4.25 -1.8 4.6 -2.0 4.85 -2.2 5.0 -2.4 5.05 -2.55 5.05 -2.75 5.05 -2.95 5.05 -3.15 5.05 -3.3 5.1 -3.5 5.2 -3.7 5.25 -3.9 5.3 -4.05 5.3 -4.25 5.4 -4.45 5.5 -4.65 5.55 -4.8 5.55 -5.0 5.65 -5.2 5.75 -5.4 5.8 -5.6 6.1 -5.75 6.35 -6.15 6.75 -6.3 6.95 -6.5 7.0 -6.7 7.05 -6.9 7.15 -7.1 7.25 -7.25 7.3 -7.45 7.3 -7.85 7.3 -8.4 7.3 -8.75 7.25 -8.95 7.15 -9.15 7.0 -9.35 6.8 -9.5 7.2 -9.7 7.35 -9.9 7.5 -10.1 7.55 -10.25 7.6 -10.45 7.55 -10.65 7.5 -10.85 7.35 -11.0 7.2 -11.15 6.75 -11.2 4.8 -11.3 4.3 -11.5 -3.9 -11.65 -4.35 -11.65 -5.35 -11.5 -5.8 -11.35 -6.05 -11.15 -6.15 -10.95 -6.55 -10.75 -6.8 -10.6 -7.05 -10.4 -7.15 -10.2 -7.2 M-5.9 -2.5 L-6.05 -2.55 -6.25 -2.55 -6.45 -2.5 -6.5 -2.45 -6.4 -2.3 -6.25 -1.85 -6.25 -1.6 -6.4 -1.2 -6.6 -1.05 -6.75 -0.9 -6.95 -0.85 -7.15 -0.85 -7.1 -0.1 -7.0 0.15 -6.65 0.9 -6.25 2.15 -6.15 2.35 -5.75 1.7 -5.55 1.45 -5.4 1.25 -5.2 1.1 -5.15 0.55 -5.3 -0.3 -5.5 -1.35 -5.7 -2.4 -5.9 -2.5" fill="#663366" fill-opacity="0.16078432" fill-rule="evenodd" stroke="none"/>
    <path d="M3.75 -7.75 L3.95 -7.7 4.1 -7.65 4.3 -7.55 4.5 -7.3 4.6 -6.85 4.6 -6.35 4.6 0.5 4.6 6.75 4.5 7.2 4.3 7.35 4.1 7.5 3.95 7.55 3.75 7.6 3.55 7.55 3.35 7.5 3.2 7.35 3.0 7.2 2.85 6.75 2.85 0.5 2.85 -6.35 2.85 -6.85 3.0 -7.3 3.2 -7.55 3.4 -7.65 3.55 -7.75 3.75 -7.75" fill="#ffffff" fill-opacity="0.16078432" fill-rule="evenodd" stroke="none"/>
    <path d="M-10.2 20.75 L-10.45 21.85 -10.65 29.05 -11.1 32.4 -11.3 33.2 -11.35 33.95 -11.4 34.0 -11.2 34.9 -10.85 35.4 -10.65 35.7 -10.55 35.95 -10.3 36.85 -10.0 37.25 -9.65 37.65 -9.35 37.8 -9.05 37.8 -8.7 37.8 -8.4 37.8 -8.05 37.95 -7.75 37.95 -7.4 37.95 -7.1 37.8 -6.45 37.8 -5.45 37.8 -4.5 37.8 -3.55 37.8 -3.2 37.65 -2.9 37.8 -2.6 37.7 -2.25 37.5 -1.95 37.25 -1.7 37.0 -1.6 36.7 Q-1.3 35.05 -1.4 33.35 L-1.6 32.25 -1.6 31.25 -1.3 30.75 -1.05 30.3 -0.95 29.5 -1.15 28.4 -1.5 27.95 -1.8 27.55 -2.15 27.4 -2.45 27.25 -2.8 27.0 -3.1 26.85 -3.4 26.45 -3.55 25.05 -3.75 23.95 -4.1 23.5 -4.4 23.15 -4.7 23.0 -5.05 23.0 -5.35 23.0 -5.7 23.0 -6.0 23.15 -6.35 23.15 -6.65 23.15 -7.3 23.15 -7.65 23.15 -7.85 23.15 -7.9 23.15 -8.1 21.85 -8.25 20.75 -8.6 20.4 -8.95 20.15 -9.25 20.1 -9.55 20.15 -9.9 20.4 -10.2 20.75" fill="#663366" fill-opacity="0.16078432" fill-rule="evenodd" stroke="none"/>
    <path d="M3.1 -9.75 L4.05 -8.8 4.15 -8.35 4.2 -8.35 4.05 -8.0 3.85 -7.8 3.7 -7.5 3.5 -7.25 3.3 -7.1 3.1 -7.05 2.95 -7.05 2.75 -7.05 2.55 -7.05 2.4 -7.0 2.15 -6.9 2.0 -6.85 1.45 -6.75 0.5 -6.8 -0.65 -6.8 -1.0 -6.85 -1.2 -6.9 -1.4 -7.05 -1.6 -7.05 -1.75 -7.1 -1.95 -7.2 -2.15 -7.35 -2.35 -7.6 -2.5 -7.75 -2.7 -7.85 -2.9 -8.0 -3.1 -8.0 -3.25 -8.0 -3.45 -8.05 -3.65 -8.1 -3.85 -8.25 -4.0 -8.4 -4.2 -8.65 -4.35 -9.05 -4.2 -9.5 -4.0 -9.65 -3.85 -9.8 -3.65 -9.85 -3.45 -9.85 -3.25 -9.85 -3.1 -9.85 -2.9 -9.85 -2.7 -9.8 -2.5 -9.65 -2.45 -9.65 -2.3 -10.05 -2.2 -10.5 -2.0 -10.65 -1.85 -10.8 -1.65 -10.85 -1.45 -10.85 -1.25 -10.85 -1.1 -10.85 -0.7 -10.85 -0.6 -10.85 -0.55 -10.85 -0.45 -11.1 -0.4 -11.3 -0.25 -11.65 -0.05 -11.85 0.1 -11.9 0.7 -11.75 1.45 -11.05 2.2 -10.4 2.55 -10.2 3.1 -9.75" fill="#ffffff" fill-opacity="0.16078432" fill-rule="evenodd" stroke="none"/>
    <path d="M2.75 -9.9 L2.9 -9.7 3.05 -9.55 3.2 -9.25 3.35 -8.95 3.55 -8.65 3.75 -8.5 3.95 -8.3 4.1 -8.1 4.3 -7.9 4.7 -7.55 5.0 -7.15 5.05 -6.85 5.0 -6.55 4.95 -6.4 5.05 -5.85 5.2 -5.2 5.3 -4.9 5.35 -4.6 5.25 -4.15 5.1 -0.5 5.0 -0.1 5.0 1.05 5.2 1.4 5.3 1.65 5.35 2.0 5.25 2.4 5.05 2.85 4.85 3.05 4.7 3.1 4.5 3.15 4.3 3.1 4.1 3.05 3.95 2.85 3.75 2.5 3.55 2.25 3.35 2.1 3.25 1.9 3.2 1.8 3.15 1.5 3.1 -0.25 3.25 -0.7 3.2 -0.9 3.05 -0.9 2.85 -0.9 2.7 -0.95 2.5 -1.1 2.3 -1.2 2.2 -1.4 2.15 -1.55 2.05 -1.85 1.95 -3.55 1.75 -3.7 1.55 -3.85 1.35 -4.0 1.2 -4.15 0.55 -4.9 -0.1 -5.75 -0.5 -6.15 -0.65 -6.6 -0.65 -7.85 -0.5 -8.3 -0.4 -8.55 -0.25 -9.0 -0.2 -9.3 -0.2 -9.8 -0.05 -10.25 0.1 -10.5 0.3 -10.65 0.5 -10.85 0.7 -11.0 0.85 -11.1 1.05 -11.15 1.25 -11.15 1.45 -11.15 1.6 -11.15 1.8 -11.1 2.0 -11.0 2.2 -10.85 2.3 -10.6 2.35 -10.3 2.45 -10.05 2.55 -9.9 2.75 -9.9" fill="#ffffff" fill-opacity="0.16078432" fill-rule="evenodd" stroke="none"/>
    <path d="M13.0 -41.65 L13.2 -41.55 13.4 -41.35 13.5 -41.2 13.55 -40.85 13.6 -40.85 13.6 -40.1 13.5 -35.1 13.4 -34.7 13.2 -34.55 13.0 -34.4 12.85 -34.35 12.65 -34.4 12.45 -34.45 12.3 -34.55 12.15 -34.65 12.1 -34.8 12.05 -35.1 11.95 -40.85 12.1 -41.3 12.25 -41.5 12.45 -41.6 12.65 -41.7 12.85 -41.7 13.0 -41.65" fill="#ffffff" fill-opacity="0.16078432" fill-rule="evenodd" stroke="none"/>
    <path d="M12.9 33.55 L13.0 33.75 13.05 34.05 13.15 35.0 13.15 35.3 13.2 35.3 13.2 39.25 13.15 40.25 13.0 40.7 12.8 40.85 12.65 41.0 12.45 41.05 12.25 41.1 12.1 41.05 11.9 41.0 11.7 40.85 11.5 40.7 11.4 40.25 11.35 39.25 Q11.2 36.65 11.45 34.05 L11.6 33.6 11.75 33.45 11.95 33.3 12.15 33.25 12.35 33.25 12.5 33.25 12.7 33.35 12.9 33.55" fill="#ffffff" fill-opacity="0.16078432" fill-rule="evenodd" stroke="none"/>
    <path d="M13.2 -37.15 L13.4 -37.15 13.6 -37.15 13.75 -37.15 13.95 -37.05 14.15 -36.85 14.25 -36.65 14.3 -36.35 14.35 -36.35 14.2 -35.9 14.0 -35.55 13.65 -35.1 13.5 -34.9 13.6 -34.6 13.7 -34.4 13.75 -34.1 13.65 -33.7 13.45 -33.55 13.25 -33.4 13.1 -33.35 12.9 -33.35 12.7 -33.35 12.55 -33.3 12.35 -33.2 12.15 -33.15 11.95 -33.15 11.75 -33.15 11.6 -33.1 11.4 -33.05 11.2 -32.95 9.9 -32.15 8.2 -31.15 6.15 -29.95 5.95 -29.9 5.75 -29.85 5.55 -29.8 5.35 -29.8 5.2 -29.8 5.0 -29.8 4.8 -29.85 4.65 -29.9 4.45 -30.05 4.3 -30.15 4.25 -30.3 4.2 -30.6 4.15 -31.0 4.05 -31.05 3.9 -30.95 3.5 -30.6 3.1 -30.25 2.75 -29.95 2.55 -29.85 2.35 -29.55 2.15 -29.4 2.0 -29.35 1.6 -29.3 1.05 -29.3 0.5 -29.3 -0.05 -29.3 -0.25 -29.35 -0.45 -29.4 -0.65 -29.55 -0.85 -29.9 -1.0 -30.15 -1.2 -30.35 -1.35 -30.55 -1.4 -30.85 -1.4 -31.1 -1.25 -31.55 -1.1 -31.8 -0.9 -31.9 -0.7 -32.0 -0.5 -32.1 -0.35 -32.15 -0.15 -32.2 0.05 -32.2 0.25 -32.2 0.45 -32.35 0.6 -32.4 0.8 -32.45 1.0 -32.55 1.2 -32.6 1.35 -32.75 1.55 -32.9 1.75 -33.1 1.9 -33.15 2.1 -33.3 2.3 -33.35 2.5 -33.4 2.65 -33.55 2.9 -33.7 3.05 -33.85 3.25 -33.95 3.45 -33.95 3.8 -33.95 4.2 -33.95 4.55 -33.95 4.95 -33.95 5.1 -33.95 5.3 -34.0 5.5 -34.1 5.7 -34.15 5.9 -34.2 6.25 -34.4 7.0 -34.8 7.6 -35.15 8.3 -35.6 8.5 -35.65 8.7 -35.75 8.9 -35.85 9.05 -35.9 9.45 -36.05 9.8 -36.15 10.2 -36.3 10.55 -36.35 10.75 -36.4 10.95 -36.4 11.15 -36.4 11.35 -36.4 11.5 -36.4 11.7 -36.4 11.9 -36.5 12.1 -36.6 12.25 -36.75 12.65 -37.0 12.85 -37.1 13.0 -37.15 13.2 -37.15" fill="#ffffff" fill-opacity="0.16078432" fill-rule="evenodd" stroke="none"/>
    <path d="M13.0 -40.35 L13.2 -40.15 13.35 -39.9 13.35 -39.6 13.4 -39.1 13.4 -38.8 13.5 -38.75 13.7 -38.6 13.9 -38.5 14.0 -38.3 14.05 -38.15 14.1 -37.85 14.15 -37.85 14.0 -37.4 13.8 -37.15 13.65 -37.0 13.5 -36.85 13.55 -36.65 13.55 -36.35 13.6 -36.1 13.45 -35.75 13.25 -35.5 13.1 -35.35 12.9 -35.25 12.7 -35.15 12.5 -35.05 12.35 -34.7 12.15 -34.55 11.95 -34.4 11.6 -34.2 11.2 -34.05 11.0 -33.95 10.8 -33.9 10.65 -33.85 10.05 -33.5 9.35 -33.05 8.75 -32.7 8.2 -32.4 8.0 -32.25 7.8 -32.1 7.65 -32.05 7.45 -32.05 7.25 -32.05 7.05 -32.1 6.9 -32.15 6.7 -32.3 6.55 -32.4 6.5 -32.55 6.35 -32.95 6.25 -32.95 6.05 -33.05 5.9 -33.1 5.7 -33.25 5.5 -33.4 5.35 -33.85 5.35 -34.35 5.5 -34.8 5.7 -35.05 5.9 -35.15 6.05 -35.2 6.25 -35.25 6.45 -35.25 6.6 -35.3 6.8 -35.4 6.95 -35.5 6.9 -35.5 6.7 -35.5 6.5 -35.55 6.3 -35.6 6.15 -35.75 6.0 -35.9 5.95 -36.05 5.9 -36.35 6.0 -36.8 6.2 -37.05 6.4 -37.15 6.55 -37.2 6.75 -37.25 6.95 -37.35 7.15 -37.4 7.3 -37.45 7.5 -37.5 7.7 -37.5 7.9 -37.5 8.05 -37.55 8.25 -37.6 8.45 -37.65 8.8 -37.75 8.8 -37.85 8.65 -38.0 8.5 -38.15 8.45 -38.3 8.4 -38.6 8.5 -39.05 8.7 -39.3 9.05 -39.5 9.65 -39.8 10.0 -40.0 10.4 -40.2 10.55 -40.3 10.75 -40.35 10.95 -40.4 11.15 -40.5 11.35 -40.5 11.7 -40.5 12.1 -40.5 12.45 -40.5 12.65 -40.45 12.85 -40.4 13.0 -40.35" fill="#ffffff" fill-opacity="0.16078432" fill-rule="evenodd" stroke="none"/>
    <path d="M11.05 32.95 L12.2 34.05 12.5 34.45 12.55 34.55 12.7 34.85 12.9 35.05 13.1 35.25 13.2 35.35 13.25 35.5 13.3 35.8 13.35 35.8 13.2 36.2 13.0 36.45 12.85 36.55 12.65 36.6 12.25 36.6 11.7 36.6 11.15 36.6 10.55 36.45 9.8 36.2 8.9 35.85 8.7 35.85 8.5 35.85 8.3 35.9 8.15 35.95 7.95 35.9 7.75 35.85 7.55 35.8 Q6.75 35.4 6.05 34.85 L4.2 33.55 3.25 33.0 3.05 32.95 2.85 32.95 2.7 32.9 2.5 32.85 2.3 32.8 1.95 32.6 1.55 32.3 1.35 32.1 1.2 32.15 1.0 32.25 0.8 32.3 0.6 32.25 0.4 32.2 0.25 32.1 0.05 31.85 -0.15 31.4 -0.35 31.2 -0.5 31.0 -0.85 30.6 -0.85 30.3 -0.9 29.55 -0.75 29.1 -0.6 28.85 -0.4 28.75 -0.2 28.7 0.0 28.65 0.35 28.65 0.75 28.65 0.9 28.75 1.3 28.95 1.65 29.25 1.85 29.4 2.05 29.75 2.25 30.05 2.45 30.2 2.6 30.35 2.8 30.5 3.0 30.55 3.2 30.6 3.4 30.7 3.55 30.8 3.75 30.9 3.95 31.0 4.1 31.05 4.5 31.15 4.85 31.3 5.05 31.25 5.25 31.15 5.45 31.05 5.65 31.0 5.8 31.0 6.0 31.0 6.2 31.0 6.35 31.05 6.55 31.25 7.7 31.6 9.2 32.05 10.3 32.35 11.05 32.95" fill="#ffffff" fill-opacity="0.16078432" fill-rule="evenodd" stroke="none"/>
    <path d="M10.4 33.3 L10.75 33.45 11.35 33.6 11.7 33.75 11.85 33.85 12.1 34.0 12.25 34.2 12.45 34.35 12.55 34.8 12.65 35.35 12.75 35.45 12.95 35.5 13.15 35.6 13.35 35.85 13.5 36.1 13.85 36.55 13.85 36.7 13.9 37.0 13.95 37.0 13.85 37.45 13.65 37.7 13.45 37.8 13.25 37.9 13.1 37.9 12.9 37.95 12.85 38.0 12.95 38.1 13.15 38.25 13.35 38.45 13.45 38.55 13.5 38.7 13.65 39.05 13.75 39.5 13.65 39.9 13.45 40.05 13.25 40.2 13.1 40.25 12.9 40.25 12.7 40.15 12.5 40.05 12.3 39.8 12.15 39.65 11.95 39.55 11.6 39.3 10.85 38.8 10.65 38.7 10.45 38.45 10.25 37.95 10.05 37.95 9.9 37.95 9.7 37.95 9.5 37.95 9.3 37.95 9.15 37.9 8.75 37.75 8.4 37.6 8.0 37.5 7.8 37.35 7.65 37.3 7.45 37.25 7.05 37.05 6.15 36.2 5.75 35.6 5.55 35.45 5.4 35.25 5.2 35.0 5.05 34.55 5.2 34.1 5.3 33.95 5.35 33.8 5.5 33.35 5.7 33.1 5.9 33.0 6.45 32.9 7.4 32.95 8.15 32.95 8.5 32.95 8.7 33.0 8.9 33.05 9.25 33.15 9.65 33.25 9.8 33.25 10.0 33.25 10.2 33.25 10.4 33.3" fill="#ffffff" fill-opacity="0.16078432" fill-rule="evenodd" stroke="none"/>
    <path d="M-3.65 -37.15 L-3.95 -37.15 -5.55 -37.15 -7.2 -37.15 -7.5 -37.15 -8.8 -37.15 -9.1 -37.05 -9.45 -36.9 -9.75 -36.75 -10.1 -36.6 -10.4 -36.6 -10.75 -36.6 -11.05 -36.5 -11.35 -36.15 -11.7 -35.75 -11.9 -34.75 -11.9 -33.85 -12.05 -33.4 -12.15 -33.1 -12.2 -32.4 -12.25 -32.4 -12.25 -31.25 -12.05 -30.35 -11.8 -19.65 -11.6 -18.8 -11.25 -18.4 -10.95 -18.05 -10.65 -17.9 -10.3 -18.0 -10.0 -18.2 -9.7 -18.4 -9.45 -18.65 -9.35 -18.9 -9.25 -19.65 -9.0 -23.3 -8.7 -23.25 -8.35 -23.1 -8.05 -22.95 -7.7 -22.95 -7.4 -22.95 -7.1 -22.95 -6.75 -22.95 -6.45 -22.95 -6.1 -22.95 -5.8 -23.1 -5.45 -23.3 -5.15 -23.7 -4.8 -24.1 -4.5 -24.45 -4.15 -24.7 -3.85 -24.85 -3.55 -25.3 -3.2 -25.9 -2.85 -26.75 -2.55 -27.6 -2.25 -28.05 -1.9 -28.2 -1.6 -28.35 -1.25 -28.6 -1.05 -29.1 -0.95 -29.35 -0.85 -30.1 -0.85 -31.25 -1.05 -32.25 -1.35 -32.85 -1.7 -33.4 -1.7 -33.55 -1.75 -34.25 -1.8 -35.3 -2.0 -36.3 -2.35 -36.75 -2.65 -37.05 -3.0 -37.15 -3.65 -37.15" fill="#663366" fill-opacity="0.16078432" fill-rule="evenodd" stroke="none"/>
    <path d="M-9.15 -37.15 L-8.5 -37.15 -7.85 -37.15 -6.9 -37.15 -6.55 -37.15 -6.25 -37.05 -5.9 -36.9 -5.6 -36.8 -5.25 -36.6 -4.95 -36.45 -4.6 -36.45 -4.3 -36.45 -3.65 -36.45 -3.0 -36.45 -2.7 -36.45 -2.35 -36.35 -2.05 -36.1 -1.8 -35.9 -1.75 -35.7 -1.65 -35.25 -1.6 -35.25 -1.8 -34.75 -2.15 -34.4 -2.45 -34.2 -2.8 -34.0 -3.1 -33.85 -3.45 -33.65 -3.75 -33.5 -4.1 -33.4 -4.4 -33.3 -4.6 -32.8 -4.85 -32.25 -5.15 -31.85 -5.5 -31.7 -5.8 -31.6 -6.15 -31.6 -6.45 -31.7 -6.75 -31.85 -7.0 -31.95 -7.05 -32.0 -7.2 -30.65 -7.45 -30.1 -7.65 -29.55 -7.85 -29.0 -8.2 -28.7 -8.4 -28.45 -8.45 -28.45 -8.7 -27.95 -9.05 -27.6 -9.4 -27.35 -9.7 -27.15 -10.0 -27.05 -10.35 -27.0 -10.65 -27.05 -11.0 -27.15 -11.3 -27.35 -11.5 -27.5 -11.6 -27.7 -11.7 -28.15 -11.75 -28.45 -11.5 -29.1 -11.5 -29.75 -11.75 -30.25 -11.5 -30.9 -11.2 -31.15 -10.85 -31.4 -10.55 -31.7 -10.55 -32.8 -10.75 -33.05 -10.9 -33.5 -11.1 -34.0 -11.3 -34.55 -11.3 -35.65 -11.1 -36.25 Q-10.95 -36.4 -10.75 -36.5 L-10.45 -36.7 -10.1 -36.8 -9.8 -36.95 -9.45 -37.15 -9.15 -37.15" fill="#663366" fill-opacity="0.16078432" fill-rule="evenodd" stroke="none"/>
    <path d="M-1.75 -37.6 L-1.7 -37.35 -1.85 -36.9 -1.85 -36.55 -1.7 -36.1 -1.65 -35.6 -1.6 -35.1 -1.6 -11.05 -1.7 -10.6 -1.9 -10.35 -2.1 -10.25 -2.25 -10.15 -2.45 -10.1 -2.65 -10.1 -2.85 -10.15 -3.0 -10.3 -3.2 -10.4 -3.35 -10.6 -3.35 -10.75 -3.4 -35.1 -3.2 -36.55 -3.0 -36.85 -2.8 -37.4 -2.65 -37.8 -2.45 -37.9 -2.25 -37.9 -2.1 -37.9 -1.9 -37.8 -1.75 -37.6" fill="#ffffff" fill-opacity="0.16078432" fill-rule="evenodd" stroke="none"/>
    <path d="M-4.0 30.05 L-3.65 29.95 -3.35 29.95 -3.0 30.0 -2.7 30.15 -2.35 30.25 -2.05 30.35 -1.7 30.6 -1.5 30.9 -1.45 31.45 -1.4 32.3 -1.6 32.95 -1.6 35.1 -1.3 35.35 -1.05 35.65 -1.0 36.2 -0.95 36.2 -1.2 36.85 -1.5 37.15 -1.8 37.25 -2.15 37.35 -2.45 37.35 -2.8 37.35 -3.1 37.35 -3.45 37.5 -3.75 37.6 -4.1 37.8 -4.4 37.8 -4.75 37.7 -5.05 37.5 -6.0 37.5 -7.65 37.5 -8.95 37.5 -9.25 37.5 -9.6 37.35 -9.9 37.25 -10.2 37.05 -10.45 36.85 Q-11.2 35.05 -10.85 32.95 L-11.1 32.3 -11.1 31.9 -10.85 31.15 -10.55 30.9 -10.25 30.5 -9.9 30.25 -9.6 30.25 -9.25 30.25 -8.6 30.25 -7.95 30.25 -7.65 30.35 -7.3 30.6 -7.1 30.9 -7.05 31.45 -7.0 33.15 -6.9 33.5 -6.55 33.3 -6.25 33.15 -5.9 33.15 -5.6 33.15 -5.25 33.15 -5.0 33.1 -4.6 32.85 -4.55 32.3 -4.5 31.0 -4.3 30.35 -4.0 30.05" fill="#663366" fill-opacity="0.16078432" fill-rule="evenodd" stroke="none"/>
    <path d="M-2.9 10.15 L-2.7 10.15 -2.55 10.15 -2.35 10.3 -2.2 10.5 -2.15 10.75 -2.0 11.2 -1.9 11.45 -1.85 11.75 -1.8 14.45 -1.75 14.45 -1.75 16.45 -1.75 37.25 -1.9 37.7 -2.1 37.95 -2.25 38.05 -2.45 38.2 -2.65 38.25 -2.85 38.25 -3.0 38.2 -3.2 38.15 -3.4 38.0 -3.55 37.8 -3.7 37.6 -3.75 16.45 -3.75 14.7 -3.7 11.75 -3.6 11.3 -3.45 11.15 -3.4 10.75 -3.25 10.4 -3.05 10.2 -2.9 10.15" fill="#ffffff" fill-opacity="0.16078432" fill-rule="evenodd" stroke="none"/>
    <path d="M-9.8 12.3 L-9.5 11.75 -9.15 11.3 -8.85 11.1 -8.5 11.0 -8.2 11.0 -7.85 11.0 -7.55 10.9 -7.25 10.8 -6.9 10.55 -6.6 10.35 -6.25 10.25 -5.95 10.15 -5.6 10.15 -5.3 10.15 -4.95 10.25 -4.65 10.25 -4.3 10.25 -4.0 10.25 -3.65 10.25 -3.05 10.25 -2.7 10.25 -2.4 10.25 -2.05 10.35 -1.75 10.6 -1.4 10.9 -1.2 11.55 -1.15 12.05 -1.1 12.05 -1.3 12.85 -1.6 13.15 -1.75 13.8 -1.95 14.45 -2.25 14.85 -2.6 22.4 -2.8 23.05 -3.15 23.35 -3.45 23.6 -3.8 23.7 -4.1 23.65 -4.45 23.5 -4.75 23.35 -4.95 23.15 -5.05 22.95 -5.2 22.4 -5.4 21.55 -5.7 21.45 -5.95 21.35 -6.05 21.1 -6.15 20.7 -5.95 20.05 -5.85 18.1 -5.6 17.35 -5.85 17.3 -6.15 17.35 -6.45 17.45 -6.8 17.45 -7.1 17.45 -7.45 17.45 -7.75 17.35 -8.1 17.25 -8.4 17.0 -8.75 16.7 -9.05 16.7 -9.4 16.7 -9.7 16.7 -10.05 16.7 -10.35 16.6 -10.65 16.5 -11.0 16.25 -11.3 15.85 -11.65 15.0 -11.95 14.65 -12.2 14.35 -12.3 13.9 -12.4 13.35 -12.2 12.6 -11.85 12.4 -11.55 12.2 -11.2 12.0 -10.9 11.95 -10.55 12.0 -10.25 12.05 -9.9 12.3 -9.8 12.3" fill="#ffffff" fill-opacity="0.16078432" fill-rule="evenodd" stroke="none"/>
    <path d="M-3.85 -21.9 L-3.55 -21.95 -3.25 -21.95 -2.9 -21.85 -2.6 -21.65 -2.4 -21.45 -2.3 -21.2 Q-2.2 -19.0 -1.75 -17.25 L-1.75 -15.95 -1.95 -15.3 -2.05 -14.85 -1.95 -14.55 -1.85 -14.3 -1.75 -13.8 -1.75 -13.35 -1.95 -12.7 -2.25 -12.4 -2.4 -12.15 -2.5 -11.65 -2.5 -11.2 -2.7 -10.55 -3.05 -10.1 -3.35 -9.9 -3.65 -9.8 -4.0 -9.8 -4.3 -9.8 -4.65 -9.8 -4.95 -9.8 -5.3 -9.9 -5.6 -10.15 -5.95 -10.45 -6.25 -10.55 -6.6 -10.65 -6.9 -10.65 -7.25 -10.65 -8.2 -10.65 -8.85 -10.65 -9.15 -10.65 -9.5 -10.75 -9.8 -10.85 -10.1 -11.2 -10.35 -11.5 -10.45 -12.05 -10.25 -12.8 -9.9 -13.1 -9.6 -13.35 -9.25 -13.45 -8.95 -13.65 -8.65 -13.9 -8.3 -13.9 -8.0 -13.9 -7.65 -13.9 -7.0 -13.9 -6.7 -13.8 -6.4 -14.0 -6.05 -14.3 -5.7 -14.55 -5.4 -14.75 -5.45 -14.95 -5.6 -18.1 -5.4 -18.85 -4.95 -20.15 -4.55 -21.45 -4.2 -21.75 -3.85 -21.9" fill="#ffffff" fill-opacity="0.16078432" fill-rule="evenodd" stroke="none"/>
    <path d="M14.3 -41.6 L14.1 -41.45 13.9 -41.35 Q8.75 -41.1 3.55 -41.25 L-7.15 -41.25 -12.05 -41.15 -12.05 -42.15 -11.95 -42.3 -11.85 -42.45 -11.75 -42.55 -2.75 -42.45 Q2.65 -42.3 7.95 -42.5 L13.95 -42.4 14.15 -42.3 14.3 -42.2 14.3 -42.05 14.35 -41.85 14.4 -41.85 14.3 -41.6" fill="#333333" fill-rule="evenodd" stroke="none"/>
    <path d="M-11.95 41.75 L-12.05 41.65 -12.1 41.6 -12.1 41.0 -3.15 40.95 7.55 40.95 Q10.55 40.85 13.55 40.9 L13.75 41.0 13.95 41.05 14.1 41.15 14.25 41.3 14.3 41.3 14.35 41.55 14.25 41.95 14.05 42.05 13.85 42.15 13.7 42.25 3.15 42.15 Q-2.25 42.0 -7.55 42.2 L-11.7 42.15 -11.75 42.0 -11.85 41.85 -11.95 41.75" fill="#333333" fill-rule="evenodd" stroke="none"/>
    <path d="M-1.3 -37.85 L-1.2 -37.8 -1.05 -37.7 -0.9 -37.55 -0.8 -37.4 -0.75 -37.1 -0.8 -28.85 -0.75 -21.75 -0.75 -17.4 -0.7 -17.4 -0.7 -10.15 -1.7 -10.15 -2.2 -10.15 -2.2 -12.45 -2.1 -12.6 -2.05 -13.0 -2.05 -20.05 -2.05 -20.3 -2.0 -24.2 Q-1.9 -28.3 -1.95 -32.4 L-2.05 -37.1 -1.9 -37.5 -1.8 -37.7 -1.65 -37.75 -1.5 -37.85 -1.3 -37.85 M-1.75 10.3 L-1.7 10.3 -1.35 10.3 -1.3 10.35 -1.15 10.35 -1.1 10.35 -1.05 10.35 -0.95 10.45 -0.9 18.25 Q-0.75 22.0 -0.75 25.7 -0.7 31.1 -1.0 36.4 L-1.05 37.05 -1.15 37.3 -1.3 37.4 -1.45 37.4 -1.6 37.3 -1.65 37.3 -1.95 32.8 Q-2.15 25.55 -1.95 18.25 L-1.95 17.75 -1.9 17.55 -1.85 17.1 -1.75 12.65 -1.75 10.3" fill="#333333" fill-rule="evenodd" stroke="none"/>
    <path d="M14.2 -37.4 L9.6 -35.65 9.55 -35.65 9.35 -35.7 9.25 -35.7 9.15 -35.7 9.05 -35.7 8.95 -35.7 8.95 -35.9 9.05 -36.1 9.05 -36.15 9.3 -36.25 13.9 -38.05 14.2 -37.4 M6.25 -34.35 L6.2 -34.2 5.3 -33.8 -0.75 -31.3 -0.95 -31.35 -1.2 -31.3 -1.35 -31.35 -1.6 -31.45 -1.65 -31.4 -1.75 -31.6 -1.65 -31.7 -1.5 -31.9 -1.4 -32.05 5.3 -34.7 5.45 -34.7 5.9 -34.7 6.2 -34.7 6.45 -34.65 6.5 -34.65 6.35 -34.55 6.25 -34.35 M14.0 -35.0 L14.25 -34.9 14.3 -34.95 14.4 -34.7 14.45 -34.3 14.3 -34.15 14.15 -33.95 14.05 -33.8 Q8.7 -31.65 3.35 -29.6 L-1.25 -27.8 -1.7 -28.85 Q2.9 -30.55 7.35 -32.55 L13.4 -35.05 13.6 -35.0 13.85 -35.05 14.0 -35.0 M-1.4 -37.85 L-1.4 -37.0 -7.55 -36.95 -12.05 -36.95 -12.05 -37.85 -3.15 -37.9 -1.4 -37.85" fill="#333333" fill-rule="evenodd" stroke="none"/>
    <path d="M14.2 -42.35 L14.25 -42.2 14.3 -41.95 14.35 -40.45 14.4 -40.45 14.4 -34.2 14.25 -33.9 14.05 -33.7 13.85 -33.6 13.7 -33.55 13.5 -33.65 13.3 -33.75 13.2 -33.95 13.15 -34.2 13.15 -40.45 13.2 -41.95 13.3 -42.35 13.5 -42.45 13.7 -42.5 13.9 -42.5 14.05 -42.45 14.2 -42.35" fill="#333333" fill-rule="evenodd" stroke="none"/>
    <path d="M-7.7 36.95 L-1.55 37.0 -1.55 37.85 -3.3 37.9 -12.1 37.85 -12.1 36.95 -7.7 36.95 M6.7 34.65 L6.9 34.6 14.05 37.4 13.75 38.05 9.15 36.25 7.45 35.6 7.1 35.25 6.7 34.7 6.7 34.65 M3.2 33.0 L3.2 33.1 3.15 33.3 3.2 33.45 2.65 33.45 2.3 33.45 2.2 33.45 2.1 33.45 2.05 33.4 1.95 33.35 1.85 33.3 1.75 33.25 1.65 33.2 1.55 33.1 1.35 33.05 1.1 32.95 1.05 32.95 0.9 32.9 0.85 32.9 0.8 32.85 0.7 32.85 0.65 32.8 0.55 32.75 0.45 32.7 0.35 32.65 0.25 32.6 0.15 32.55 0.05 32.55 -0.05 32.5 -0.15 32.5 -0.2 32.5 -0.3 32.45 -0.4 32.45 -0.5 32.4 -0.6 32.35 -0.7 32.3 -0.9 32.3 -1.55 32.05 -1.65 31.9 -1.8 31.7 -1.9 31.6 -1.8 31.4 -1.75 31.45 -1.5 31.35 -1.35 31.3 -1.1 31.35 -0.9 31.3 3.2 33.0 M13.9 33.8 L14.0 33.95 14.15 34.15 14.3 34.3 14.25 34.7 14.15 34.95 14.1 34.9 13.85 35.0 13.7 35.05 13.45 35.0 13.25 35.05 7.2 32.55 Q2.75 30.55 -1.85 28.85 L-1.4 27.8 3.2 29.6 13.9 33.8" fill="#333333" fill-rule="evenodd" stroke="none"/>
    <path d="M14.1 41.45 L14.15 41.3 14.2 41.1 14.25 39.8 14.25 34.3 14.15 34.05 13.95 33.85 13.8 33.8 13.65 33.75 13.5 33.8 13.3 33.9 13.2 34.1 13.15 34.3 13.15 39.8 13.2 41.1 13.3 41.45 13.5 41.55 13.65 41.6 13.85 41.6 13.95 41.55 14.1 41.45" fill="#333333" fill-rule="evenodd" stroke="none"/>
    <path d="M4.8 12.4 L4.9 12.4 4.9 12.45 4.85 12.45 4.8 12.4 M4.7 -8.6 Q5.05 -8.0 5.55 -7.55 L5.55 -6.6 5.55 7.2 5.5 7.4 5.45 7.6 5.25 7.95 4.75 8.75 4.65 8.85 4.55 8.95 4.45 9.05 4.5 -6.6 4.5 -8.9 4.7 -8.6" fill="#333333" fill-rule="evenodd" stroke="none"/>
    <path d="M5.2 7.95 L5.15 8.1 -1.75 15.0 -1.8 13.45 5.65 6.1 5.7 6.95 5.6 7.05 5.5 7.25 5.5 7.45 5.45 7.6 5.2 7.95" fill="#333333" fill-rule="evenodd" stroke="none"/>
    <path d="M-2.0 -13.75 L-2.0 -15.15 0.55 -12.6 5.05 -8.1 5.65 -7.5 5.6 -5.95 -0.2 -11.85 -2.0 -13.75" fill="#333333" fill-rule="evenodd" stroke="none"/>
    <path d="M5.4 -7.05 L5.5 -6.95 5.55 -6.9 5.6 -6.75 5.5 -6.6 5.45 -6.55 5.35 -6.55 5.15 -6.65 5.05 -6.7 4.95 -6.75 4.9 -6.7 4.8 -6.65 4.7 -6.6 4.6 -6.55 1.0 -6.45 -0.4 -6.45 -0.4 -7.05 2.1 -7.05 4.35 -7.0 4.45 -7.05 4.65 -7.15 4.75 -7.2 4.85 -7.25 4.95 -7.25 5.05 -7.2 5.15 -7.15 5.2 -7.15 5.3 -7.1 5.4 -7.05 M-5.0 -6.4 L-5.1 -6.45 -5.2 -6.5 -5.25 -6.55 -5.3 -6.6 -5.35 -6.75 -5.3 -7.0 -5.2 -7.05 -5.1 -7.1 -2.4 -7.1 -2.45 -6.45 -2.75 -6.45 -5.0 -6.4" fill="#333333" fill-rule="evenodd" stroke="none"/>
    <path d="M-11.9 -6.5 L-11.9 -7.25 -11.6 -7.25 -9.05 -7.2 -7.55 -7.15 -7.45 -7.15 -7.35 -7.1 -7.3 -7.0 -7.3 -6.9 -7.35 -6.75 -7.45 -6.65 -7.55 -6.6 -9.95 -6.55 -11.9 -6.5" fill="#333333" fill-rule="evenodd" stroke="none"/>
    <path d="M-11.9 -10.15 L-11.9 -11.1 -9.65 -11.15 -4.95 -11.05 -2.25 -11.0 -2.15 -11.0 -2.05 -10.95 -1.95 -10.85 -1.85 -10.85 -1.75 -10.85 -1.65 -10.9 -1.55 -11.0 -1.5 -11.0 -1.4 -11.0 -1.3 -11.0 -1.2 -10.9 -1.15 -10.75 -1.2 -10.6 -1.3 -10.4 -1.4 -10.35 -1.5 -10.25 -1.6 -10.2 -1.65 -10.2 -1.75 -10.15 -1.85 -10.15 -1.95 -10.15 -2.05 -10.15 -2.15 -10.2 -2.25 -10.25 -6.55 -10.2 -11.15 -10.15 -11.9 -10.15" fill="#333333" fill-rule="evenodd" stroke="none"/>
    <path d="M-4.6 7.3 L-4.5 7.2 -4.4 7.1 -4.3 7.05 -4.2 7.0 -4.15 6.95 -4.2 6.95 -4.3 6.9 -4.4 6.85 -4.5 6.8 -8.1 6.7 -11.85 6.7 -11.9 6.7 -11.9 7.35 -10.75 7.35 -7.0 7.3 -4.75 7.25 -4.65 7.3 -4.6 7.3" fill="#333333" fill-rule="evenodd" stroke="none"/>
    <path d="M5.3 6.65 L2.85 6.65 0.3 6.7 0.2 6.8 0.0 6.9 -0.05 6.95 -0.15 7.0 -0.05 7.05 -0.05 7.2 -0.05 7.35 1.2 7.35 3.75 7.4 5.25 7.35 5.35 7.3 5.45 7.25 5.5 7.15 5.55 7.0 5.5 6.8 5.4 6.7 5.3 6.65" fill="#333333" fill-rule="evenodd" stroke="none"/>
    <path d="M-11.9 11.35 L-9.65 11.4 -4.95 11.3 -2.25 11.25 -2.15 11.25 -2.05 11.2 -1.95 11.1 -1.85 11.1 -1.75 11.1 -1.65 11.15 -1.55 11.25 -1.5 11.25 -1.4 11.25 -1.3 11.25 -1.2 11.15 -1.15 11.0 -1.2 10.85 -1.3 10.65 -1.4 10.6 -1.5 10.5 -1.6 10.45 -1.65 10.45 -1.75 10.4 -1.85 10.4 -1.95 10.4 -2.05 10.4 -2.15 10.45 -2.25 10.5 -6.55 10.45 -11.15 10.4 -11.9 10.4 -11.9 11.35" fill="#333333" fill-rule="evenodd" stroke="none"/>
    <path d="M-2.55 -3.6 L-2.45 -3.7 -2.35 -3.75 -2.25 -3.8 -2.2 -3.8 -2.1 -3.8 -2.0 -3.75 -1.85 -3.55 -1.8 2.95 -1.75 2.95 -1.75 3.4 -1.85 3.6 -1.95 3.7 -2.05 3.75 -2.1 3.8 -2.2 3.8 -2.3 3.8 -2.4 3.75 -2.5 3.7 -2.6 3.6 -2.65 3.4 -2.6 -3.4 -2.55 -3.6" fill="#333333" fill-rule="evenodd" stroke="none"/>
    <path d="M1.25 -0.6 L1.4 -0.55 1.5 -0.55 1.5 -0.45 1.6 -0.35 1.65 -0.2 1.55 -0.1 1.4 0.05 1.2 0.05 1.05 0.0 0.95 0.0 0.85 0.0 0.75 -0.1 0.65 -0.2 0.6 -0.25 0.5 -0.35 0.45 -0.5 Q0.15 -0.7 -0.2 -1.05 L-1.0 -1.85 -1.75 -2.6 -1.8 -2.65 -1.9 -2.75 -2.0 -2.85 -2.05 -2.9 -2.15 -3.0 -2.15 -3.1 -2.1 -3.25 -2.1 -3.45 -1.85 -3.5 -1.7 -3.55 -1.65 -3.5 -0.8 -2.75 0.2 -1.65 1.0 -0.85 1.1 -0.75 1.1 -0.65 1.25 -0.6" fill="#333333" fill-rule="evenodd" stroke="none"/>
    <path d="M-1.5 3.2 L-1.55 3.35 -1.55 3.45 -1.65 3.45 -1.75 3.55 -1.9 3.6 -2.0 3.5 -2.15 3.35 -2.15 3.15 -2.1 3.0 -2.1 2.9 -2.1 2.8 -2.0 2.7 -1.9 2.6 -1.85 2.55 -1.75 2.45 -1.6 2.4 -1.05 1.75 -0.25 0.95 0.5 0.2 0.55 0.15 0.65 0.05 0.75 -0.05 0.8 -0.1 0.9 -0.2 1.0 -0.2 1.15 -0.15 1.35 -0.15 1.4 0.1 1.45 0.25 1.4 0.3 0.65 1.15 -0.45 2.15 -1.25 2.95 -1.35 3.05 -1.45 3.05 -1.5 3.2" fill="#333333" fill-rule="evenodd" stroke="none"/>
    <path d="M-4.45 3.6 L-4.55 3.7 -4.65 3.75 -4.75 3.8 -4.8 3.8 -4.9 3.8 -5.0 3.75 -5.15 3.55 -5.2 -2.95 -5.25 -2.95 -5.25 -3.4 -5.15 -3.6 -5.05 -3.7 -4.95 -3.75 -4.9 -3.8 -4.8 -3.8 -4.7 -3.8 -4.6 -3.75 -4.5 -3.7 -4.4 -3.6 -4.35 -3.4 -4.4 3.4 -4.45 3.6" fill="#333333" fill-rule="evenodd" stroke="none"/>
    <path d="M-8.25 0.6 L-8.4 0.55 -8.5 0.55 -8.5 0.45 -8.6 0.35 -8.65 0.2 -8.55 0.1 -8.4 -0.05 -8.2 -0.05 -8.05 0.0 -7.95 0.0 -7.85 0.0 -7.75 0.1 -7.65 0.2 -7.6 0.25 -7.5 0.35 -7.45 0.5 -6.8 1.05 -6.0 1.85 -5.25 2.6 -5.2 2.65 -5.1 2.75 -5.0 2.85 -4.95 2.9 -4.85 3.0 -4.85 3.1 -4.9 3.25 -4.9 3.45 -5.15 3.5 -5.3 3.55 -5.35 3.5 -6.2 2.75 -7.2 1.65 -8.0 0.85 -8.1 0.75 -8.1 0.65 -8.25 0.6" fill="#333333" fill-rule="evenodd" stroke="none"/>
    <path d="M-5.5 -3.2 L-5.45 -3.35 -5.45 -3.45 -5.35 -3.45 -5.25 -3.55 -5.1 -3.6 -5.0 -3.5 -4.85 -3.35 -4.85 -3.15 -4.9 -3.0 -4.9 -2.9 -4.9 -2.8 -5.0 -2.7 -5.1 -2.6 -5.15 -2.55 -5.25 -2.45 -5.4 -2.4 -5.95 -1.75 -6.75 -0.95 -7.5 -0.2 -7.55 -0.15 -7.65 -0.05 -7.75 0.05 -7.8 0.1 -7.9 0.2 -8.0 0.2 -8.15 0.15 -8.35 0.15 -8.4 -0.1 -8.45 -0.25 -8.4 -0.3 -7.65 -1.15 -6.55 -2.15 -5.75 -2.95 -5.65 -3.05 -5.55 -3.05 -5.5 -3.2" fill="#333333" fill-rule="evenodd" stroke="none"/>
    <path d="M-12.05 -40.25 L-12.05 -41.5 -11.9 -41.8 -11.7 -41.95 -11.55 -42.0 -11.35 -41.95 -11.15 -41.8 -11.05 -41.5 -10.9 29.15 -10.85 36.35 -10.85 41.35 -10.95 41.75 -11.15 41.9 -11.35 42.0 -11.55 42.0 -11.7 42.0 -11.9 41.95 -12.1 41.75 -12.2 41.35 -12.1 -4.75 -12.05 -40.25" fill="#333333" fill-rule="evenodd" stroke="none"/>
    <path d="M-10.5 -37.4 L-6.9 -33.8 -3.25 -30.05 -1.35 -27.95 -1.3 -27.8 -1.35 -27.75 -1.4 -27.7 -1.55 -27.75 -5.3 -31.2 -8.95 -34.85 -10.95 -36.75 -11.0 -36.9 -11.1 -37.0 -11.1 -37.2 -11.0 -37.4 -10.8 -37.5 -10.65 -37.45 -10.5 -37.4" fill="#333333" fill-rule="evenodd" stroke="none"/>
    <path d="M-10.6 -31.8 L-6.9 -28.2 -3.25 -24.45 -1.25 -22.35 -1.15 -22.25 -1.1 -22.1 -1.2 -21.9 -1.35 -21.85 -1.5 -21.9 -1.65 -21.95 -5.2 -25.4 -8.9 -29.0 -11.05 -31.15 -11.1 -31.3 -11.15 -31.45 -11.25 -31.65 -11.15 -31.85 -10.95 -31.95 -10.75 -31.85 -10.6 -31.8" fill="#333333" fill-rule="evenodd" stroke="none"/>
    <path d="M-11.0 -24.9 L-11.1 -25.0 -11.1 -25.2 -11.0 -25.4 -10.8 -25.5 -10.65 -25.45 -10.5 -25.4 -6.9 -21.8 -3.25 -18.05 -1.35 -15.95 -1.3 -15.8 -1.35 -15.75 -1.4 -15.7 -1.55 -15.75 -5.3 -19.2 -8.95 -22.85 -10.95 -24.75 -11.0 -24.9" fill="#333333" fill-rule="evenodd" stroke="none"/>
    <path d="M-11.1 -19.3 L-11.15 -19.45 -11.25 -19.65 -11.15 -19.85 -10.95 -19.95 -10.75 -19.85 -10.6 -19.8 -6.9 -16.2 -3.25 -12.45 -1.35 -10.45 -2.25 -10.45 -5.2 -13.4 -8.9 -17.0 -11.05 -19.15 -11.1 -19.3" fill="#333333" fill-rule="evenodd" stroke="none"/>
    <path d="M-11.1 -13.3 L-11.15 -13.45 -11.25 -13.65 -11.15 -13.85 -10.95 -13.95 -10.75 -13.85 -10.6 -13.8 -7.15 -10.45 -8.3 -10.4 -8.9 -11.0 -11.05 -13.15 -11.1 -13.3" fill="#333333" fill-rule="evenodd" stroke="none"/>
    <path d="M-4.7 -37.3 L-4.45 -37.35 -3.25 -36.05 -1.35 -33.95 -1.3 -33.8 -1.35 -33.75 -1.4 -33.7 -1.55 -33.75 -5.3 -37.2 -5.35 -37.25 -4.7 -37.3" fill="#333333" fill-rule="evenodd" stroke="none"/>
    <path d="M-3.95 -37.35 L-3.85 -37.45 -3.75 -37.5 -3.65 -37.55 -3.6 -37.5 -3.45 -37.45 -3.35 -37.3 -3.3 -37.3 -3.2 -37.3 -3.1 -37.3 -3.0 -37.3 -2.9 -37.2 -2.8 -37.3 -2.7 -37.45 -2.65 -37.55 -2.55 -37.55 -2.45 -37.55 -2.35 -37.55 -2.25 -37.5 -2.2 -37.45 -2.15 -37.4 -2.15 -37.3 -2.15 -37.2 -2.15 -37.05 -2.15 -36.95 -2.15 -36.4 -2.05 -36.45 -1.95 -36.55 -1.85 -36.6 -1.8 -36.6 -1.7 -36.6 -1.6 -36.55 -1.5 -36.45 -1.45 -36.3 -1.45 -36.2 -1.45 -36.05 -1.4 -36.0 -1.3 -35.9 -1.2 -35.8 -1.2 -35.7 -1.2 -35.55 -1.25 -35.35 -1.35 -35.25 -1.45 -35.0 -1.55 -34.8 -1.65 -34.75 -1.7 -34.7 -1.8 -34.65 -1.9 -34.65 -2.0 -34.6 -2.1 -34.6 -2.2 -34.6 -2.3 -34.65 -2.4 -34.7 -2.45 -34.8 -2.55 -35.6 -2.65 -35.65 -2.7 -35.7 -2.8 -35.8 -2.9 -35.95 -2.95 -36.0 -3.05 -35.95 -3.15 -35.9 -3.2 -35.9 -3.3 -35.95 -3.4 -35.95 -3.5 -36.05 -3.55 -36.2 -3.65 -36.4 -3.7 -36.4 -3.8 -36.45 -3.9 -36.5 -3.95 -36.55 -4.0 -36.7 -4.0 -37.2 -3.95 -37.35" fill="#333333" fill-rule="evenodd" stroke="none"/>
    <path d="M-10.0 -37.3 L-9.9 -37.25 -9.8 -37.15 -9.75 -36.95 -9.65 -35.8 -9.55 -35.95 -9.45 -36.0 -9.35 -36.1 -9.25 -36.1 -9.15 -36.1 -9.1 -36.1 -9.0 -36.1 -8.9 -36.1 -8.8 -36.05 -8.7 -35.95 -8.65 -35.9 -8.6 -35.85 -8.5 -33.6 -8.4 -33.7 -8.35 -33.7 -8.25 -33.7 -8.15 -33.7 -8.05 -33.7 -7.95 -33.7 -7.85 -33.65 -7.75 -33.6 -7.65 -33.5 -7.6 -33.45 -7.5 -33.35 -7.5 -33.2 -7.4 -32.75 -7.3 -32.95 -7.15 -33.35 -7.05 -33.45 -6.95 -33.55 -6.85 -33.6 -6.75 -33.6 -6.65 -33.6 -6.55 -33.6 -6.5 -33.55 -6.4 -33.5 -6.3 -33.4 -6.25 -33.2 -6.15 -31.95 -6.05 -31.95 -6.0 -31.95 -5.9 -31.95 -5.8 -31.95 -5.7 -31.95 -5.6 -31.9 -5.5 -31.85 -5.4 -31.75 -5.35 -31.55 -5.3 -30.4 -5.25 -30.6 -5.15 -30.85 -5.05 -31.05 -4.95 -31.15 -4.9 -31.2 -4.8 -31.2 -4.7 -31.2 -4.6 -31.2 -4.5 -31.2 -4.4 -31.2 -4.35 -31.15 -4.25 -31.1 -4.15 -31.0 -4.15 -30.95 -4.1 -30.8 -4.05 -30.15 -3.95 -30.15 -3.85 -30.15 -3.75 -30.15 -3.65 -30.15 -3.55 -30.15 -3.5 -30.05 -3.4 -29.9 -3.3 -29.8 -3.3 -29.65 -3.25 -28.4 -3.2 -28.55 -3.15 -28.75 -3.05 -28.8 -2.95 -28.9 -2.9 -28.95 -2.8 -28.95 -2.7 -28.95 -2.6 -28.95 -2.5 -28.95 -2.4 -28.95 -2.3 -28.9 -2.2 -28.8 -2.15 -28.75 -2.15 -28.65 -2.1 -28.55 -2.1 -28.05 -2.1 -27.85 -2.05 -27.9 -1.95 -28.0 -1.85 -28.1 -1.75 -28.15 -1.65 -28.15 -1.55 -28.15 -1.45 -28.15 -1.4 -28.15 -1.3 -28.1 -1.2 -27.9 -1.2 -27.25 -1.15 -27.15 -1.2 -26.15 -1.2 -25.8 -1.25 -25.15 -1.3 -24.9 -1.4 -24.7 -1.4 -24.15 -1.45 -23.9 -1.5 -23.8 -1.65 -23.5 -1.75 -23.35 -1.85 -23.3 -1.95 -23.3 -2.05 -23.3 -2.15 -23.4 -2.2 -23.4 -2.25 -23.5 -2.35 -23.4 -2.45 -23.4 -2.55 -23.35 -2.65 -23.4 -2.7 -23.45 -2.8 -23.65 -2.8 -23.8 -2.75 -24.0 -2.6 -24.45 -2.55 -24.65 -2.5 -24.7 -2.55 -24.8 -2.65 -24.75 -2.7 -24.75 -2.8 -24.75 -2.9 -24.8 -3.0 -24.9 -3.05 -25.05 -3.05 -25.55 -3.05 -25.65 -2.95 -26.55 -2.9 -26.75 -2.85 -27.0 -2.9 -27.4 -2.95 -27.25 -3.05 -27.05 -3.15 -26.8 -3.15 -26.65 -3.25 -26.4 -3.3 -26.25 -3.3 -25.9 -3.35 -25.75 -3.4 -25.65 -3.45 -25.45 -3.55 -25.35 -3.65 -25.3 -3.7 -25.25 -3.8 -25.25 -3.9 -25.3 -4.0 -25.35 -4.05 -25.4 -4.1 -25.5 -4.2 -27.35 -4.25 -27.05 -4.3 -26.85 -4.4 -26.75 -4.5 -26.65 -4.6 -26.65 -4.7 -26.65 -4.8 -26.65 -4.9 -26.65 -4.95 -26.7 -5.05 -26.8 -5.15 -26.9 -5.15 -27.05 -5.1 -27.95 -5.1 -28.15 -5.1 -28.6 -5.15 -28.5 -5.2 -28.25 -5.25 -28.1 -5.4 -27.75 -5.45 -27.6 -5.55 -27.35 -5.65 -27.25 -5.75 -27.15 -5.8 -27.15 -5.9 -27.15 -6.0 -27.15 -6.1 -27.2 -6.2 -27.3 -6.25 -27.4 -6.3 -27.55 -6.25 -28.7 -6.25 -28.85 -6.2 -29.0 -6.2 -29.35 -6.25 -29.05 -6.35 -28.55 -6.4 -28.35 -6.5 -28.25 -6.6 -28.2 -6.7 -28.15 -6.8 -28.15 -6.9 -28.15 -7.0 -28.2 -7.05 -28.3 -7.15 -28.4 -7.15 -28.55 -7.25 -30.6 -7.3 -30.35 -7.35 -30.05 -7.4 -29.9 -7.5 -29.6 -7.7 -29.1 -7.85 -28.75 -7.95 -28.7 -8.05 -28.65 -8.15 -28.65 -8.25 -28.65 -8.35 -28.7 -8.4 -28.75 -8.5 -28.85 -8.5 -28.9 -8.55 -30.3 -8.5 -30.45 -8.45 -30.7 -8.5 -31.25 -8.55 -30.95 -8.65 -30.35 -8.7 -30.25 -8.75 -30.15 -8.8 -29.95 -8.9 -29.85 -9.0 -29.75 -9.1 -29.75 -9.15 -29.75 -9.25 -29.75 -9.35 -29.75 -9.45 -29.8 -9.55 -29.9 -9.6 -30.0 -9.65 -30.15 -9.65 -31.0 -9.55 -32.2 -9.45 -32.65 -9.4 -33.55 -9.45 -33.7 -9.5 -33.45 -9.6 -33.05 -9.7 -32.5 -9.9 -31.7 -10.0 -31.35 -10.1 -31.25 -10.2 -31.2 -10.3 -31.15 -10.4 -31.15 -10.5 -31.15 -10.6 -31.2 -10.65 -31.25 -10.75 -31.35 -10.85 -31.55 -10.9 -32.6 -11.0 -32.55 -11.1 -32.5 -11.15 -32.5 -11.25 -32.5 -11.35 -32.55 -11.45 -32.6 -11.5 -32.7 -11.55 -32.75 -11.55 -32.95 -11.6 -33.45 -11.5 -33.7 -11.45 -33.9 -11.45 -35.25 -11.5 -35.3 -11.6 -35.3 -11.7 -35.35 -11.8 -35.45 -11.85 -35.55 -11.9 -35.7 -11.9 -35.95 -11.85 -36.1 -11.85 -36.15 -11.8 -36.7 -11.75 -36.9 -11.7 -37.05 -11.65 -37.3 -11.6 -37.5 -11.5 -37.65 -11.4 -37.75 -11.3 -37.8 -11.2 -37.85 -11.1 -37.85 -11.0 -37.85 -10.95 -37.85 -10.85 -37.8 -10.75 -37.75 -10.65 -37.65 -10.55 -37.4 -10.45 -37.2 -10.35 -37.3 -10.25 -37.35 -10.15 -37.35 -10.1 -37.35 -10.0 -37.3 M-4.1 -28.05 L-4.1 -27.95 -4.05 -28.25 -4.1 -28.05" fill="#333333" fill-rule="evenodd" stroke="none"/>
    <path d="M-10.4 -25.9 L-10.35 -25.85 -10.25 -25.75 -10.25 -25.7 -10.15 -25.5 -10.1 -25.35 -10.1 -25.3 -9.95 -24.25 -9.9 -24.25 -9.8 -24.3 -9.7 -24.3 -9.6 -24.3 -9.5 -24.3 -9.4 -24.3 -9.35 -24.25 -9.25 -24.2 -9.15 -24.1 -9.1 -23.9 -9.05 -22.55 -9.0 -22.75 -8.9 -22.85 -8.8 -22.95 -8.7 -23.0 -8.6 -23.05 -8.5 -23.05 -8.4 -23.05 -8.35 -23.05 -8.25 -23.0 -8.15 -22.95 -8.05 -22.9 -7.95 -22.8 -7.9 -22.75 -7.85 -22.55 -7.75 -21.65 -7.65 -21.7 -7.55 -21.75 -7.5 -21.75 -7.4 -21.75 -7.3 -21.75 -7.2 -21.75 -7.1 -21.75 -7.0 -21.75 -6.9 -21.7 -6.85 -21.6 -6.75 -21.55 -6.65 -21.45 -6.55 -20.05 -6.5 -20.3 -6.4 -20.45 -6.3 -20.55 -6.2 -20.6 -6.1 -20.65 -6.0 -20.65 -5.9 -20.65 -5.8 -20.65 -5.75 -20.6 -5.65 -20.55 -5.55 -20.5 -5.55 -20.3 -5.45 -18.5 -5.35 -18.6 -5.25 -18.65 -5.05 -18.65 -5.0 -18.65 -4.8 -18.65 -4.7 -18.65 -4.6 -18.65 -4.5 -18.65 -4.4 -18.65 -4.35 -18.6 -4.25 -18.5 -4.15 -18.45 -4.05 -17.55 -3.95 -17.8 -3.9 -17.85 -3.8 -17.95 -3.7 -17.95 -3.6 -17.95 -3.5 -17.95 -3.4 -17.95 -3.3 -17.9 -3.25 -17.8 -3.15 -17.7 -3.15 -16.5 -3.2 -16.25 -3.25 -16.0 -3.25 -15.75 -3.0 -16.5 -2.7 -17.15 -2.65 -17.25 -2.55 -17.35 -2.45 -17.35 -2.35 -17.35 -2.25 -17.35 -2.15 -17.35 -2.05 -17.3 -1.95 -17.25 -1.9 -17.2 -1.8 -17.1 -1.7 -17.1 -1.6 -17.1 -1.5 -17.05 -1.45 -16.9 -1.45 -16.75 -1.45 -16.6 -1.5 -16.4 -1.5 -16.25 -1.55 -16.1 -1.7 -13.15 -1.8 -12.7 -1.9 -12.3 -1.95 -12.15 -2.0 -11.95 -2.05 -11.85 -2.1 -11.75 -2.15 -11.6 -2.25 -11.5 -2.35 -11.45 -2.45 -11.4 -2.55 -11.45 -2.65 -11.5 -2.7 -11.6 -2.8 -11.75 -2.85 -11.8 -2.95 -11.8 -3.05 -11.85 -3.15 -11.9 -3.2 -11.95 Q-3.45 -12.55 -3.25 -13.25 L-3.4 -13.1 -3.45 -12.9 -3.55 -12.8 -3.65 -12.7 -3.75 -12.65 -3.85 -12.6 -3.95 -12.6 -4.05 -12.6 -4.15 -12.65 -4.2 -12.7 -4.3 -12.8 -4.4 -13.0 -4.3 -14.15 -4.2 -14.4 -4.2 -14.55 -4.15 -14.75 -4.15 -14.95 -4.3 -14.55 -4.4 -14.25 -4.45 -14.05 -4.55 -13.95 -4.65 -13.9 -4.75 -13.85 -4.8 -13.85 -4.9 -13.85 -5.0 -13.9 -5.1 -13.95 -5.2 -14.05 -5.25 -14.25 -5.25 -14.4 -5.05 -15.7 -5.0 -16.05 -5.0 -16.2 -4.95 -16.3 -4.95 -17.9 -5.05 -17.85 -5.25 -17.1 -5.3 -16.85 -5.35 -16.75 -5.4 -16.5 -5.45 -16.4 -5.6 -15.95 -5.65 -15.75 -5.7 -15.55 -5.8 -15.45 -5.9 -15.4 -6.0 -15.35 -6.05 -15.4 -6.15 -15.4 -6.25 -15.45 -6.3 -15.5 -6.4 -16.4 -6.3 -16.8 -6.3 -17.85 -6.4 -17.4 -6.5 -17.1 -6.5 -16.95 -6.65 -16.6 -6.75 -16.4 -6.85 -16.25 -6.95 -16.2 -7.05 -16.15 -7.15 -16.15 -7.25 -16.15 -7.3 -16.2 -7.4 -16.25 -7.5 -16.35 -7.5 -17.45 -7.4 -17.75 -7.45 -20.55 -7.5 -20.45 -7.55 -20.35 -7.7 -19.55 -7.75 -19.1 -7.8 -19.0 -7.85 -18.4 -7.9 -18.2 -8.0 -18.1 -8.1 -18.05 -8.15 -18.0 -8.25 -18.0 -8.35 -18.05 -8.45 -18.05 -8.55 -18.15 -8.6 -18.25 -8.65 -20.7 -8.75 -20.5 -8.8 -20.2 -8.85 -19.65 -8.9 -19.45 -8.95 -19.3 -9.0 -19.15 -9.05 -18.95 -9.15 -18.85 -9.25 -18.8 -9.35 -18.75 -9.4 -18.75 -9.5 -18.75 -9.6 -18.8 -9.7 -18.8 -9.8 -18.9 -9.85 -19.0 -9.9 -21.9 -10.05 -19.8 -10.1 -19.55 -10.2 -19.45 -10.3 -19.4 -10.4 -19.35 -10.5 -19.35 -10.6 -19.35 -10.65 -19.4 -10.75 -19.45 -10.85 -19.55 -10.95 -19.8 -10.95 -23.1 -11.15 -21.55 -11.2 -21.3 -11.2 -20.8 -11.25 -20.55 -11.35 -20.45 -11.45 -20.4 -11.55 -20.35 -11.65 -20.35 -11.75 -20.35 -11.85 -20.4 -11.9 -20.45 -12.0 -20.55 -12.1 -20.8 -12.1 -21.55 -12.0 -21.75 -11.95 -21.85 -11.75 -23.4 -11.75 -23.55 -11.6 -24.2 -11.25 -25.6 -11.15 -25.75 -11.1 -25.8 -11.0 -25.9 -10.9 -25.95 -10.8 -25.95 -10.7 -26.0 -10.6 -26.0 -10.5 -25.95 -10.4 -25.9" fill="#333333" fill-rule="evenodd" stroke="none"/>
    <path d="M-10.0 -13.3 L-9.9 -13.2 -9.85 -13.0 -9.85 -12.65 -9.9 -12.4 -9.9 -12.2 -9.8 -12.25 -9.7 -12.25 -9.6 -12.25 -9.5 -12.25 -9.35 -12.2 -9.25 -12.15 -9.15 -12.1 -9.1 -11.9 -9.1 -10.65 -9.15 -10.45 -9.25 -10.35 -9.35 -10.25 -9.45 -10.2 -9.5 -10.15 -9.6 -10.2 -9.7 -10.25 -9.8 -10.35 -9.85 -10.5 -9.8 -10.65 -9.75 -10.65 -9.75 -11.2 -9.85 -11.1 -9.85 -11.0 -9.9 -10.75 -9.95 -10.55 -10.05 -10.45 -10.15 -10.35 -10.25 -10.3 -10.35 -10.3 -10.4 -10.25 -10.5 -10.3 -10.6 -10.35 -10.7 -10.45 -10.85 -10.6 -10.9 -10.6 -11.0 -10.65 -11.1 -10.65 -11.2 -10.75 -11.25 -10.8 -11.25 -11.0 -11.25 -12.15 -11.2 -12.35 -11.1 -12.45 -11.05 -12.5 -11.0 -12.65 -10.85 -13.05 -10.75 -13.25 -10.65 -13.35 -10.6 -13.35 -10.5 -13.35 -10.4 -13.35 -10.3 -13.35 -10.2 -13.35 -10.1 -13.35 -10.0 -13.3" fill="#333333" fill-rule="evenodd" stroke="none"/>
    <path d="M-2.7 11.1 L-6.3 14.7 -9.95 18.45 -11.85 20.55 -11.9 20.7 -11.85 20.75 -11.8 20.8 -11.65 20.75 -7.9 17.3 -4.25 13.65 -2.25 11.75 -2.2 11.6 -2.1 11.5 -2.1 11.3 -2.2 11.1 -2.4 11.0 -2.55 11.05 -2.7 11.1" fill="#333333" fill-rule="evenodd" stroke="none"/>
    <path d="M-2.6 16.7 L-6.3 20.3 -9.95 24.05 -11.95 26.15 -12.05 26.25 -12.1 26.4 -12.0 26.6 -11.85 26.65 -11.7 26.6 -11.55 26.55 -8.0 23.1 -4.3 19.5 -2.15 17.35 -2.1 17.2 -2.05 17.05 -1.95 16.85 -2.05 16.65 -2.25 16.55 -2.45 16.65 -2.6 16.7" fill="#333333" fill-rule="evenodd" stroke="none"/>
    <path d="M-2.2 23.6 L-2.1 23.5 -2.1 23.3 -2.2 23.1 -2.4 23.0 -2.55 23.05 -2.7 23.1 -6.3 26.7 -9.95 30.45 -11.85 32.55 -11.9 32.7 -11.85 32.75 -11.8 32.8 -11.65 32.75 -7.9 29.3 -4.25 25.65 -2.25 23.75 -2.2 23.6" fill="#333333" fill-rule="evenodd" stroke="none"/>
    <path d="M-2.1 29.2 L-2.05 29.05 -1.95 28.85 -2.05 28.65 -2.25 28.55 -2.45 28.65 -2.6 28.7 -6.3 32.3 -9.95 36.05 -11.85 38.05 -10.95 38.05 -8.0 35.1 -4.3 31.5 -2.15 29.35 -2.1 29.2" fill="#333333" fill-rule="evenodd" stroke="none"/>
    <path d="M-2.1 35.2 L-2.05 35.05 -1.95 34.85 -2.05 34.65 -2.25 34.55 -2.45 34.65 -2.6 34.7 -6.05 38.05 -4.9 38.1 -4.3 37.5 -2.15 35.35 -2.1 35.2" fill="#333333" fill-rule="evenodd" stroke="none"/>
    <path d="M-8.5 11.2 L-8.75 11.15 -9.95 12.45 -11.85 14.55 -11.9 14.7 -11.85 14.75 -11.8 14.8 -11.65 14.75 -7.9 11.3 -7.85 11.25 -8.5 11.2" fill="#333333" fill-rule="evenodd" stroke="none"/>
    <path d="M-9.25 11.15 L-9.35 11.05 -9.45 11.0 -9.55 10.95 -9.6 11.0 -9.75 11.05 -9.85 11.2 -9.9 11.2 -10.0 11.2 -10.1 11.2 -10.2 11.2 -10.3 11.3 -10.4 11.2 -10.5 11.05 -10.55 10.95 -10.65 10.95 -10.75 10.95 -10.85 10.95 -10.95 11.0 -11.0 11.05 -11.05 11.1 -11.05 11.2 -11.05 11.3 -11.05 11.45 -11.05 11.55 -11.05 12.1 -11.15 12.05 -11.25 11.95 -11.35 11.9 -11.4 11.9 -11.5 11.9 -11.6 11.95 -11.7 12.05 -11.75 12.2 -11.75 12.3 -11.75 12.45 -11.8 12.5 -11.9 12.6 -12.0 12.7 -12.0 12.8 -12.0 12.95 -11.95 13.15 -11.85 13.25 -11.75 13.5 -11.65 13.7 -11.55 13.75 -11.5 13.8 -11.4 13.85 -11.3 13.85 -11.2 13.9 -11.1 13.9 -11.0 13.9 -10.9 13.85 -10.8 13.8 -10.75 13.7 -10.65 12.9 -10.55 12.85 -10.5 12.8 -10.4 12.7 -10.3 12.55 -10.25 12.5 -10.15 12.55 -10.05 12.6 -10.0 12.6 -9.9 12.55 -9.8 12.55 -9.7 12.45 -9.65 12.3 -9.55 12.1 -9.5 12.1 -9.4 12.05 -9.3 12.0 -9.25 11.95 -9.2 11.8 -9.2 11.3 -9.25 11.15" fill="#333333" fill-rule="evenodd" stroke="none"/>
    <path d="M-3.2 11.2 L-3.3 11.25 -3.4 11.35 -3.45 11.55 -3.55 12.7 -3.65 12.55 -3.75 12.5 -3.85 12.4 -3.95 12.4 -4.05 12.4 -4.1 12.4 -4.2 12.4 -4.3 12.4 -4.4 12.45 -4.5 12.55 -4.55 12.6 -4.6 12.65 -4.7 14.9 -4.8 14.8 -4.85 14.8 -4.95 14.8 -5.05 14.8 -5.15 14.8 -5.25 14.8 -5.35 14.85 -5.45 14.9 -5.55 15.0 -5.6 15.05 -5.7 15.15 -5.7 15.3 -5.8 15.75 -5.9 15.55 -6.05 15.15 -6.15 15.05 -6.25 14.95 -6.35 14.9 -6.45 14.9 -6.55 14.9 -6.65 14.9 -6.7 14.95 -6.8 15.0 -6.9 15.1 -6.95 15.3 -7.05 16.55 -7.15 16.55 -7.2 16.55 -7.3 16.55 -7.4 16.55 -7.5 16.55 -7.6 16.6 -7.7 16.65 -7.8 16.75 -7.85 16.95 -7.9 18.1 -7.95 17.9 -8.05 17.65 -8.15 17.45 -8.25 17.35 -8.3 17.3 -8.4 17.3 -8.5 17.3 -8.6 17.3 -8.7 17.3 -8.8 17.3 -8.85 17.35 -8.95 17.4 -9.05 17.5 -9.05 17.55 -9.1 17.7 -9.15 18.35 -9.25 18.35 -9.35 18.35 -9.45 18.35 -9.55 18.35 -9.65 18.35 -9.7 18.45 -9.8 18.6 -9.9 18.7 -9.9 18.85 -9.95 20.1 -10.0 19.95 -10.05 19.75 -10.15 19.7 -10.25 19.6 -10.3 19.55 -10.4 19.55 -10.5 19.55 -10.6 19.55 -10.7 19.55 -10.8 19.55 -10.9 19.6 -11.0 19.7 -11.05 19.75 -11.05 19.85 -11.1 19.95 -11.1 20.45 -11.1 20.65 -11.15 20.6 -11.25 20.5 -11.35 20.4 -11.45 20.35 -11.55 20.35 -11.65 20.35 -11.75 20.35 -11.8 20.35 -11.9 20.4 -12.0 20.6 -12.0 21.25 -12.05 21.35 -12.0 22.35 -12.0 22.7 -11.95 23.35 -11.9 23.6 -11.8 23.8 -11.8 24.35 -11.75 24.6 -11.7 24.7 -11.55 25.0 -11.45 25.15 -11.35 25.2 -11.25 25.2 -11.15 25.2 -11.05 25.1 -11.0 25.1 -10.95 25.0 -10.85 25.1 -10.75 25.1 -10.65 25.15 -10.55 25.1 -10.5 25.05 -10.4 24.85 -10.4 24.7 -10.45 24.5 -10.6 24.05 -10.65 23.85 -10.7 23.8 -10.65 23.7 -10.55 23.75 -10.5 23.75 -10.4 23.75 -10.3 23.7 -10.2 23.6 -10.15 23.45 -10.15 22.95 -10.15 22.85 -10.25 21.95 -10.3 21.75 -10.35 21.5 -10.3 21.1 -10.25 21.25 -10.15 21.45 -10.05 21.7 -10.05 21.85 -9.95 22.1 -9.9 22.25 -9.9 22.6 -9.85 22.75 -9.8 22.85 -9.75 23.05 -9.65 23.15 -9.55 23.2 -9.5 23.25 -9.4 23.25 -9.3 23.2 -9.2 23.15 -9.15 23.1 -9.1 23.0 -9.0 21.15 -8.95 21.45 -8.9 21.65 -8.8 21.75 -8.7 21.85 -8.6 21.85 -8.5 21.85 -8.4 21.85 -8.3 21.85 -8.25 21.8 -8.15 21.7 -8.05 21.6 -8.05 21.45 -8.1 20.55 -8.1 20.35 -8.1 19.9 -8.05 20.0 -8.0 20.25 -7.95 20.4 -7.8 20.75 -7.75 20.9 -7.65 21.15 -7.55 21.25 -7.45 21.35 -7.4 21.35 -7.3 21.35 -7.2 21.35 -7.1 21.3 -7.0 21.2 -6.95 21.1 -6.9 20.95 -6.95 19.8 -6.95 19.65 -7.0 19.5 -7.0 19.15 -6.95 19.45 -6.85 19.95 -6.8 20.15 -6.7 20.25 -6.6 20.3 -6.5 20.35 -6.4 20.35 -6.3 20.35 -6.2 20.3 -6.15 20.2 -6.05 20.1 -6.05 19.95 -5.95 17.9 -5.9 18.15 -5.85 18.45 -5.8 18.6 -5.7 18.9 -5.5 19.4 -5.35 19.75 -5.25 19.8 -5.15 19.85 -5.05 19.85 -4.95 19.85 -4.85 19.8 -4.8 19.75 -4.7 19.65 -4.7 19.6 -4.65 18.2 -4.7 18.05 -4.75 17.8 -4.7 17.25 -4.65 17.55 -4.55 18.15 -4.5 18.25 -4.45 18.35 -4.4 18.55 -4.3 18.65 -4.2 18.75 -4.1 18.75 -4.05 18.75 -3.95 18.75 -3.85 18.75 -3.75 18.7 -3.65 18.6 -3.6 18.5 -3.55 18.35 -3.55 17.5 -3.65 16.3 -3.75 15.85 -3.8 14.95 -3.75 14.8 -3.7 15.05 -3.6 15.45 -3.5 16.0 -3.3 16.8 -3.2 17.15 -3.1 17.25 -3.0 17.3 -2.9 17.35 -2.8 17.35 -2.7 17.35 -2.6 17.3 -2.55 17.25 -2.45 17.15 -2.35 16.95 -2.3 15.9 -2.2 15.95 -2.1 16.0 -2.05 16.0 -1.95 16.0 -1.85 15.95 -1.75 15.9 -1.7 15.8 -1.65 15.75 -1.65 15.55 -1.6 15.05 -1.7 14.8 -1.75 14.6 -1.75 13.25 -1.7 13.2 -1.6 13.2 -1.5 13.15 -1.4 13.05 -1.35 12.95 -1.3 12.8 -1.3 12.55 -1.35 12.4 -1.35 12.35 -1.4 11.8 -1.45 11.6 -1.5 11.45 -1.55 11.2 -1.6 11.0 -1.7 10.85 -1.8 10.75 -1.9 10.7 -2.0 10.65 -2.1 10.65 -2.2 10.65 -2.25 10.65 -2.35 10.7 -2.45 10.75 -2.55 10.85 -2.65 11.1 -2.75 11.3 -2.85 11.2 -2.95 11.15 -3.05 11.15 -3.1 11.15 -3.2 11.2 M-9.1 20.45 L-9.1 20.55 -9.15 20.25 -9.1 20.45" fill="#333333" fill-rule="evenodd" stroke="none"/>
    <path d="M-2.8 22.6 L-2.85 22.65 -2.95 22.75 -2.95 22.8 -3.05 23.0 -3.1 23.15 -3.1 23.2 -3.25 24.25 -3.3 24.25 -3.4 24.2 -3.5 24.2 -3.6 24.2 -3.7 24.2 -3.8 24.2 -3.85 24.25 -3.95 24.3 -4.05 24.4 -4.1 24.6 -4.15 25.95 -4.2 25.75 -4.3 25.65 -4.4 25.55 -4.5 25.5 -4.6 25.45 -4.7 25.45 -4.8 25.45 -4.85 25.45 -4.95 25.5 -5.05 25.55 -5.15 25.6 -5.25 25.7 -5.3 25.75 -5.35 25.95 -5.45 26.85 -5.55 26.8 -5.65 26.75 -5.7 26.75 -5.8 26.75 -5.9 26.75 -6.0 26.75 -6.1 26.75 -6.2 26.75 -6.3 26.8 -6.35 26.9 -6.45 26.95 -6.55 27.05 -6.65 28.45 -6.7 28.2 -6.8 28.05 -6.9 27.95 -7.0 27.9 -7.1 27.85 -7.2 27.85 -7.3 27.85 -7.4 27.85 -7.45 27.9 -7.55 27.95 -7.65 28.0 -7.65 28.2 -7.75 30.0 -7.85 29.9 -7.95 29.85 -8.15 29.85 -8.2 29.85 -8.4 29.85 -8.5 29.85 -8.6 29.85 -8.7 29.85 -8.8 29.85 -8.85 29.9 -8.95 30.0 -9.05 30.05 -9.15 30.95 -9.25 30.7 -9.3 30.65 -9.4 30.55 -9.5 30.55 -9.6 30.55 -9.7 30.55 -9.8 30.55 -9.9 30.6 -9.95 30.7 -10.05 30.8 -10.05 32.0 -10.0 32.25 -9.95 32.5 -9.95 32.75 -10.2 32.0 -10.5 31.35 -10.55 31.25 -10.65 31.15 -10.75 31.15 -10.85 31.15 -10.95 31.15 -11.05 31.15 -11.15 31.2 -11.25 31.25 -11.3 31.3 -11.4 31.4 -11.5 31.4 -11.6 31.4 -11.7 31.45 -11.75 31.6 -11.75 31.75 -11.75 31.9 -11.7 32.1 -11.7 32.25 -11.65 32.4 -11.5 35.35 -11.4 35.8 -11.3 36.2 -11.25 36.35 -11.2 36.55 -11.15 36.65 -11.1 36.75 -11.05 36.9 -10.95 37.0 -10.85 37.05 -10.75 37.1 -10.65 37.05 -10.55 37.0 -10.5 36.9 -10.4 36.75 -10.35 36.7 -10.25 36.7 -10.15 36.65 -10.05 36.6 -10.0 36.55 Q-9.75 35.95 -9.95 35.25 L-9.8 35.4 -9.75 35.6 -9.65 35.7 -9.55 35.8 -9.45 35.85 -9.35 35.9 -9.25 35.9 -9.15 35.9 -9.05 35.85 -9.0 35.8 -8.9 35.7 -8.8 35.5 -8.9 34.35 -9.0 34.1 -9.0 33.95 -9.05 33.75 -9.05 33.55 -8.9 33.95 -8.8 34.25 -8.75 34.45 -8.65 34.55 -8.55 34.6 -8.45 34.65 -8.4 34.65 -8.3 34.65 -8.2 34.6 -8.1 34.55 -8.0 34.45 -7.95 34.25 -7.95 34.1 -8.15 32.8 -8.2 32.45 -8.2 32.3 -8.25 32.2 -8.25 30.6 -8.15 30.65 -7.95 31.4 -7.9 31.65 -7.85 31.75 -7.8 32.0 -7.75 32.1 -7.6 32.55 -7.55 32.75 -7.5 32.95 -7.4 33.05 -7.3 33.1 -7.2 33.15 -7.15 33.1 -7.05 33.1 -6.95 33.05 -6.9 33.0 Q-6.7 32.55 -6.8 32.1 L-6.9 31.7 -6.9 30.65 -6.8 31.1 -6.7 31.4 -6.7 31.55 -6.55 31.9 -6.45 32.1 -6.35 32.25 -6.25 32.3 -6.15 32.35 -6.05 32.35 -5.95 32.35 -5.9 32.3 -5.8 32.25 -5.7 32.15 -5.7 31.05 -5.8 30.75 -5.75 27.95 -5.7 28.05 -5.65 28.15 -5.5 28.95 -5.45 29.4 -5.4 29.5 -5.35 30.1 -5.3 30.3 -5.2 30.4 -5.1 30.45 -5.05 30.5 -4.95 30.5 -4.85 30.45 -4.75 30.45 -4.65 30.35 -4.6 30.25 -4.55 27.8 -4.45 28.0 -4.4 28.3 -4.35 28.85 -4.3 29.05 -4.25 29.2 -4.2 29.35 -4.15 29.55 -4.05 29.65 -3.95 29.7 -3.85 29.75 -3.8 29.75 -3.7 29.75 -3.6 29.7 -3.5 29.7 -3.4 29.6 -3.35 29.5 -3.3 26.6 -3.15 28.7 -3.1 28.95 -3.0 29.05 -2.9 29.1 -2.8 29.15 -2.7 29.15 -2.6 29.15 -2.55 29.1 -2.45 29.05 -2.35 28.95 -2.25 28.7 -2.25 25.4 -2.05 26.95 -2.0 27.2 -2.0 27.7 -1.95 27.95 -1.85 28.05 -1.75 28.1 -1.65 28.15 -1.55 28.15 -1.45 28.15 -1.35 28.1 -1.3 28.05 -1.2 27.95 -1.1 27.7 -1.1 26.95 -1.2 26.75 -1.25 26.65 -1.45 25.1 -1.45 24.95 -1.6 24.3 -1.95 22.9 -2.05 22.75 -2.1 22.7 -2.2 22.6 -2.3 22.55 -2.4 22.55 -2.5 22.5 -2.6 22.5 -2.7 22.55 -2.8 22.6" fill="#333333" fill-rule="evenodd" stroke="none"/>
    <path d="M-3.2 35.2 L-3.3 35.3 -3.35 35.5 -3.35 35.85 -3.3 36.1 -3.3 36.3 -3.4 36.25 -3.5 36.25 -3.6 36.25 -3.7 36.25 -3.85 36.3 -3.95 36.35 -4.05 36.4 -4.1 36.6 -4.1 37.85 -4.05 38.05 -3.95 38.15 -3.85 38.25 -3.75 38.3 -3.7 38.35 -3.6 38.3 -3.5 38.25 -3.4 38.15 -3.35 38.0 -3.4 37.85 -3.45 37.85 -3.45 37.3 -3.35 37.4 -3.35 37.5 -3.3 37.75 -3.25 37.95 -3.15 38.05 -3.05 38.15 -2.95 38.2 -2.85 38.2 -2.8 38.25 -2.7 38.2 -2.6 38.15 -2.5 38.05 -2.35 37.9 -2.3 37.9 -2.2 37.85 -2.1 37.85 -2.0 37.75 -1.95 37.7 -1.95 37.5 -1.95 36.35 -2.0 36.15 -2.1 36.05 -2.15 36.0 -2.2 35.85 -2.35 35.45 -2.45 35.25 -2.55 35.15 -2.6 35.15 -2.7 35.15 -2.8 35.15 -2.9 35.15 -3.0 35.15 -3.1 35.15 -3.2 35.2" fill="#333333" fill-rule="evenodd" stroke="none"/>
  </g>
</svg>
