<?xml version="1.0" encoding="UTF-8" standalone="no"?>
<svg xmlns:xlink="http://www.w3.org/1999/xlink" height="245.4px" width="5.2px" xmlns="http://www.w3.org/2000/svg">
  <g transform="matrix(1.0, 0.0, 0.0, 1.0, 2.6, 122.7)">
    <path d="M-0.7 121.7 L-0.85 121.5 -0.7 121.3 -0.6 121.1 -0.65 120.0 -0.65 118.7 -0.75 117.75 -0.65 117.0 -0.35 116.05 -0.15 115.3 0.0 115.1 0.05 114.95 0.1 114.75 0.15 114.55 0.15 114.35 0.3 114.15 0.35 114.0 0.55 113.6 0.65 113.45 0.9 112.3 1.1 111.0 1.35 110.05 1.35 109.7 1.35 109.3 1.35 108.75 1.35 108.55 1.3 108.35 1.25 108.2 1.2 108.0 1.1 107.6 0.3 106.3 -0.65 104.75 -1.0 104.25 -1.05 104.05 -1.1 103.85 -1.1 103.7 -1.1 103.3 -1.15 103.1 -1.2 102.95 -1.25 102.75 -1.35 102.55 -1.4 102.0 -1.4 101.4 -1.4 100.85 -1.3 100.7 -1.2 100.5 -0.95 100.1 -0.85 99.95 -0.8 99.75 -0.75 99.55 -0.7 99.35 -0.65 99.0 -0.15 98.05 0.4 97.1 0.65 96.55 0.75 96.35 0.8 96.15 0.85 96.0 1.0 95.8 1.1 95.4 1.2 95.05 1.3 94.65 1.25 93.95 1.2 93.0 1.25 92.05 0.9 90.95 0.5 89.6 0.25 88.85 0.25 87.75 0.25 86.4 0.25 85.3 0.15 85.1 0.1 84.9 0.05 84.75 0.0 84.35 -0.2 84.15 -0.35 84.0 -0.45 83.8 -0.6 83.4 -0.7 83.05 -0.85 82.65 -0.9 82.5 -1.0 82.3 -1.2 81.75 -1.4 81.15 -1.6 80.6 -1.6 79.65 -1.6 78.55 -1.6 77.6 -1.4 77.05 -1.2 76.3 -0.95 75.55 -0.85 75.35 -0.7 75.2 -0.55 74.95 -0.4 74.8 -0.3 73.85 -0.35 72.9 -0.35 72.0 -0.4 71.8 -0.45 71.6 -0.5 71.4 -0.6 71.25 -0.6 71.05 -0.6 70.85 -0.6 70.65 -0.6 70.5 -0.6 70.3 -0.65 70.1 -0.7 69.9 -0.75 69.75 -0.85 69.55 -0.85 69.35 -0.85 69.15 -0.95 68.95 -1.05 68.8 -1.15 68.6 -1.2 68.4 -1.25 68.25 -1.35 68.05 -1.35 67.85 -1.35 67.65 -1.45 67.45 -1.5 67.3 -1.6 66.55 -1.6 65.8 -1.6 65.05 -1.5 64.85 -1.45 64.65 -1.4 64.5 -1.25 64.1 -1.15 63.9 -1.05 63.75 -0.95 63.55 -0.85 63.15 -0.75 62.8 -0.65 62.4 -0.6 62.25 -0.6 61.65 -0.6 60.9 -0.6 60.45 -1.0 60.7 -1.25 60.75 -1.3 60.75 -1.25 60.6 -0.9 60.4 -0.6 60.0 -0.45 59.8 -0.4 59.6 -0.35 59.4 -0.2 59.25 0.05 59.05 0.1 59.05 0.2 58.9 0.25 58.7 0.3 58.5 0.35 58.3 0.45 57.95 0.5 57.75 0.55 57.55 0.65 57.35 0.75 57.2 0.85 57.0 1.0 56.65 1.15 56.1 1.3 55.5 1.35 55.15 1.35 54.55 1.35 53.8 1.35 53.05 1.3 52.5 1.25 52.3 1.2 52.15 1.05 51.75 0.95 51.4 0.85 51.2 0.6 50.8 0.15 50.25 -0.15 49.7 -0.25 49.5 -0.3 49.3 -0.4 49.15 -0.45 48.95 -0.5 48.75 -0.5 47.8 -0.5 46.7 -0.55 45.55 -0.55 45.4 -0.5 45.2 -0.4 45.0 -0.3 44.8 -0.2 44.65 -0.15 44.45 -0.15 44.25 0.0 44.05 0.05 43.9 0.25 43.5 0.45 43.15 0.55 42.95 0.6 42.75 0.7 42.55 0.75 42.4 0.85 42.2 1.0 41.8 1.2 41.25 1.35 40.7 1.55 40.15 1.55 39.95 1.55 39.75 1.55 39.55 1.55 39.4 1.55 39.2 1.55 39.0 1.5 38.8 1.45 38.65 1.35 38.45 1.3 38.25 1.2 38.05 1.05 37.9 0.95 37.7 0.85 37.5 0.75 37.3 0.7 37.15 0.6 36.95 0.5 36.75 0.45 36.35 0.4 35.8 0.35 35.25 0.2 34.7 0.2 34.3 0.2 33.75 0.15 33.2 0.1 32.8 Q0.15 32.35 0.35 31.85 L0.75 30.75 1.1 29.6 1.1 29.45 1.1 29.25 1.1 29.05 1.1 28.85 1.05 28.7 0.95 28.5 0.8 28.3 0.75 28.1 0.7 27.95 0.6 27.75 0.6 26.8 0.6 25.7 0.65 24.35 0.7 24.2 0.75 24.0 0.85 23.8 1.0 23.6 1.1 23.45 1.25 23.25 1.3 23.05 1.35 22.85 1.45 22.7 1.55 22.3 1.6 22.1 1.6 21.95 1.6 21.75 1.6 21.35 1.6 21.0 1.6 20.8 1.6 20.65 1.5 20.45 1.45 20.25 1.4 20.05 1.35 19.85 1.35 19.7 1.35 19.5 1.35 19.3 1.3 19.1 1.25 18.95 1.2 18.75 1.1 18.55 1.1 17.45 1.1 15.95 1.1 14.45 1.05 14.25 1.05 14.05 1.1 13.85 1.2 13.7 1.25 13.5 1.3 13.3 1.3 12.75 1.3 12.2 1.3 11.6 1.3 11.05 1.2 10.7 1.05 10.3 0.95 9.95 0.8 9.55 0.8 9.35 0.8 9.2 0.8 9.0 0.8 8.8 0.75 8.6 0.7 8.45 0.6 8.25 0.55 8.05 0.55 6.55 0.55 4.85 0.55 3.2 0.55 3.0 0.5 2.8 0.35 2.6 0.2 2.45 0.0 2.05 -0.25 1.5 -0.35 1.6 -0.6 1.65 -0.7 1.7 -0.85 1.5 -0.7 1.3 -0.6 1.1 -0.65 0.8 -0.75 0.55 -0.85 0.2 -0.95 -0.2 -1.05 -0.55 -1.15 -0.95 -1.05 -1.15 -0.95 -1.3 -0.75 -1.5 -0.65 -1.55 -0.75 -2.25 -0.65 -3.0 -0.35 -3.95 -0.15 -4.7 0.0 -4.9 0.05 -5.05 0.1 -5.25 0.15 -5.45 0.15 -5.65 0.3 -5.85 0.35 -6.0 0.55 -6.4 0.65 -6.55 0.9 -7.7 1.1 -9.0 1.35 -9.95 1.35 -10.3 1.35 -10.7 1.35 -11.25 1.35 -11.45 1.3 -11.65 1.25 -11.8 1.2 -12.0 1.1 -12.4 0.3 -13.7 -0.65 -15.25 -1.0 -15.75 -1.05 -15.95 -1.1 -16.15 -1.1 -16.3 -1.1 -16.7 -1.15 -16.9 -1.2 -17.05 -1.25 -17.25 -1.35 -17.45 -1.4 -18.0 -1.4 -18.6 -1.4 -19.15 -1.3 -19.3 -1.2 -19.5 -0.95 -19.9 -0.85 -20.05 -0.8 -20.25 -0.75 -20.45 -0.7 -20.65 -0.65 -21.0 -0.15 -21.95 0.4 -22.9 0.65 -23.45 0.75 -23.65 0.8 -23.85 0.85 -24.0 1.0 -24.2 1.1 -24.6 1.2 -24.95 1.3 -25.35 1.25 -26.05 1.2 -27.0 1.25 -27.95 0.9 -29.05 0.5 -30.4 0.25 -31.15 0.25 -32.25 0.25 -33.6 0.25 -34.7 0.15 -34.9 0.1 -35.1 0.05 -35.25 0.0 -35.65 -0.2 -35.85 -0.35 -36.0 -0.45 -36.2 -0.6 -36.6 -0.7 -36.95 -0.85 -37.35 -0.9 -37.5 -1.0 -37.7 -1.2 -38.25 -1.4 -38.85 -1.6 -39.4 -1.6 -40.35 -1.6 -41.45 -1.6 -42.4 -1.4 -42.95 -1.2 -43.7 -0.95 -44.45 -0.85 -44.65 -0.7 -44.8 -0.55 -45.05 -0.4 -45.2 -0.3 -46.15 -0.35 -47.1 -0.35 -48.0 -0.4 -48.2 -0.45 -48.4 -0.5 -48.6 -0.6 -48.75 -0.6 -48.95 -0.6 -49.15 -0.6 -49.35 -0.6 -49.5 -0.6 -49.7 -0.65 -49.9 -0.7 -50.1 -0.75 -50.25 -0.85 -50.45 -0.85 -50.65 -0.85 -50.85 -0.95 -51.05 -1.05 -51.2 -1.15 -51.4 -1.2 -51.6 -1.25 -51.75 -1.35 -51.95 -1.35 -52.15 -1.35 -52.35 -1.45 -52.55 -1.5 -52.7 -1.6 -53.45 -1.6 -54.2 -1.6 -54.95 -1.5 -55.15 -1.45 -55.35 -1.4 -55.5 -1.25 -55.9 -1.15 -56.1 -1.05 -56.25 -0.95 -56.45 -0.85 -56.85 -0.75 -57.2 -0.65 -57.6 -0.6 -57.75 -0.6 -58.35 -0.6 -59.1 -0.6 -59.55 -1.0 -59.3 -1.25 -59.25 -1.3 -59.25 -1.25 -59.4 -0.9 -59.6 -0.6 -60.0 -0.45 -60.2 -0.4 -60.4 -0.35 -60.6 -0.2 -60.75 0.05 -60.95 0.1 -60.95 0.2 -61.1 0.25 -61.3 0.3 -61.5 0.35 -61.7 0.45 -62.05 0.5 -62.25 0.55 -62.45 0.65 -62.65 0.75 -62.8 0.85 -63.0 1.0 -63.35 1.15 -63.9 1.3 -64.5 1.35 -64.85 1.35 -65.45 1.35 -66.2 1.35 -66.95 1.3 -67.5 1.25 -67.7 1.2 -67.85 1.05 -68.25 0.95 -68.6 0.85 -68.8 0.6 -69.2 0.15 -69.75 -0.15 -70.3 -0.25 -70.5 -0.3 -70.7 -0.4 -70.85 -0.45 -71.05 -0.5 -71.25 -0.5 -72.2 -0.5 -73.3 -0.55 -74.45 -0.55 -74.6 -0.5 -74.8 -0.4 -75.0 -0.3 -75.2 -0.2 -75.35 -0.15 -75.55 -0.15 -75.75 0.0 -75.95 0.05 -76.1 0.25 -76.5 0.45 -76.85 0.55 -77.05 0.6 -77.25 0.7 -77.45 0.75 -77.6 0.85 -77.8 1.0 -78.2 1.2 -78.75 1.35 -79.3 1.55 -79.85 1.55 -80.05 1.55 -80.25 1.55 -80.45 1.55 -80.6 1.55 -80.8 1.55 -81.0 1.5 -81.2 1.45 -81.35 1.35 -81.55 1.3 -81.75 1.2 -81.95 1.05 -82.1 0.95 -82.3 0.85 -82.5 0.75 -82.7 0.7 -82.85 0.6 -83.05 0.5 -83.25 0.45 -83.65 0.4 -84.2 0.35 -84.75 0.2 -85.3 0.2 -85.7 0.2 -86.25 0.15 -86.8 0.1 -87.2 0.35 -88.15 0.75 -89.25 1.1 -90.4 1.1 -90.55 1.1 -90.75 1.1 -90.95 1.1 -91.15 1.05 -91.3 0.95 -91.5 0.8 -91.7 0.75 -91.9 0.7 -92.05 0.6 -92.25 0.6 -93.2 0.6 -94.3 0.65 -95.65 0.7 -95.8 0.75 -96.0 0.85 -96.2 1.0 -96.4 1.1 -96.55 1.25 -96.75 1.3 -96.95 1.35 -97.15 1.45 -97.3 1.55 -97.7 1.6 -97.9 1.6 -98.05 1.6 -98.25 1.6 -98.65 1.6 -99.0 1.6 -99.2 1.6 -99.35 1.5 -99.55 1.45 -99.75 1.4 -99.95 1.35 -100.15 1.35 -100.3 1.35 -100.5 1.35 -100.7 1.3 -100.9 1.25 -101.05 1.2 -101.25 1.1 -101.45 1.1 -102.55 1.1 -104.05 1.1 -105.55 1.05 -105.75 1.05 -105.95 1.1 -106.15 1.2 -106.3 1.25 -106.5 1.3 -106.7 1.3 -107.25 1.3 -107.8 1.3 -108.4 1.3 -108.95 1.2 -109.3 1.05 -109.7 0.95 -110.05 0.8 -110.45 0.8 -110.65 0.8 -110.8 0.8 -111.0 0.8 -111.2 0.75 -111.4 0.7 -111.55 0.6 -111.75 0.55 -111.95 0.55 -113.45 0.55 -115.15 0.55 -116.8 0.55 -117.0 0.5 -117.2 0.35 -117.4 0.2 -117.55 0.0 -117.95 -0.25 -118.5 -0.55 -119.05 -0.75 -119.45 -0.85 -119.8 -0.95 -120.2 -1.05 -120.55 -1.15 -120.95 -1.05 -121.15 -0.95 -121.3 -0.75 -121.5 -0.55 -121.65 -0.25 -121.7" fill="none" stroke="#ffffff" stroke-linecap="round" stroke-linejoin="round" stroke-width="2.0"/>
  </g>
</svg>
