<?xml version="1.0" encoding="UTF-8" standalone="no"?>
<svg xmlns:xlink="http://www.w3.org/1999/xlink" height="47.4px" width="70.95px" xmlns="http://www.w3.org/2000/svg">
  <g transform="matrix(1.0, 0.0, 0.0, 1.0, 1.0, 1.0)">
    <path d="M43.75 45.0 L43.55 43.5 43.5 41.15 41.0 41.55 36.4 41.6 27.75 40.35 23.65 39.05 19.75 37.0 15.7 33.3 15.45 33.0 15.1 32.7 13.65 31.0 12.25 28.9 11.0 26.5 9.95 23.4 9.8 22.5 9.6 20.0 9.75 17.9 10.55 14.75 11.4 12.65 13.65 9.15 15.0 7.75 21.15 3.0 22.7 2.1 25.4 1.05 28.65 0.3 30.5 0.1 39.65 0.0 42.65 0.35 43.9 0.6 45.25 1.1 45.9 1.25 47.65 1.9 51.25 4.25 53.2 5.85 57.65 10.4 58.65 11.9 59.9 14.75 60.3 15.45 61.35 17.75 61.65 18.65 62.0 20.75 M11.15 27.4 L11.0 27.75 10.95 27.95 10.5 28.45 8.25 29.65 7.65 29.8 6.0 29.9 3.5 29.45 2.8 29.1 0.4 26.4 0.1 25.5 0.0 24.65 0.05 23.75 1.7 20.7 2.35 20.1 4.4 19.35 6.5 19.5 8.4 19.9 M19.75 44.75 L19.8 42.0 19.85 41.65 19.85 39.0 20.0 37.65 M26.9 45.0 L27.0 40.5 M66.0 24.0 L62.8 23.2 63.15 23.3 65.15 24.5 66.15 25.25 67.35 26.65 68.15 27.2 68.65 27.0 68.9 26.4 68.95 24.5 68.85 24.25 67.4 23.0 66.25 22.45 64.25 21.65 64.0 21.65 63.5 21.55 60.4 21.4 58.25 21.55 57.9 21.65 56.1 23.25 56.6 23.35 57.5 22.5 58.2 22.15 59.15 22.05 59.65 22.1 61.6 22.8 62.25 23.2 64.5 26.25 64.8 27.4 64.85 27.75 64.9 30.0 64.85 30.4 64.55 31.5 64.35 31.85 62.9 33.4 62.6 33.6 61.25 34.25 60.75 34.4 57.25 34.45 56.9 34.75 54.0 36.7 52.25 37.65 43.55 41.15 43.5 41.15 M61.35 25.9 L61.35 26.45 61.5 26.35 61.85 26.25 61.7 25.55 61.1 24.7 60.15 24.45 58.75 24.9 57.05 26.5 55.7 28.5 55.45 29.45 56.25 27.7 57.7 25.95 59.0 25.4 60.0 25.7 60.25 25.75 60.35 25.65 61.15 25.45 61.35 25.9 M62.6 26.7 L62.65 26.9 62.7 28.3 62.85 28.9 62.8 30.05 63.2 29.25 63.25 27.25 62.6 26.7 62.3 26.35 61.85 26.25 61.85 26.75 62.6 26.7 M61.35 26.45 L60.9 26.75 60.9 27.15 61.25 26.95 61.35 26.45 M61.25 26.95 L60.8 28.25 60.6 28.8 60.5 29.25 61.55 28.25 61.7 27.75 61.85 26.75 61.3 26.9 61.25 26.95 M61.55 28.25 L60.0 30.55 59.6 30.85 59.3 31.25 59.25 31.3 60.1 31.25 61.5 30.5 62.7 28.3 62.55 28.15 61.85 28.05 61.55 28.25 M62.4 30.6 L61.15 31.75 60.15 32.1 59.5 32.75 61.45 32.1 62.8 30.05 62.4 30.6 M51.65 24.5 L51.9 24.55 52.15 24.35 52.5 24.2 51.65 24.5 M51.9 24.55 L52.7 24.35 53.9 23.75 54.15 23.65 53.65 23.75 52.5 24.2 M53.65 23.75 L53.95 23.55 55.5 23.25 55.65 23.25 55.15 23.35 55.0 23.4 56.1 23.25 54.2 25.75 53.5 27.25 52.95 29.15 53.2 31.9 53.4 32.4 54.75 33.85 55.75 34.25 56.9 34.45 57.25 34.45 58.8 32.9 58.85 32.7 58.2 32.5 57.85 32.2 56.95 32.45 55.8 32.35 55.25 31.8 55.15 31.15 55.1 30.8 54.6 30.15 54.4 29.25 54.7 27.15 55.95 24.25 56.6 23.35 M54.65 23.55 L55.0 23.4 54.15 23.65 54.65 23.55 M56.4 22.0 L55.9 21.85 53.15 22.4 49.7 23.55 49.15 23.9 48.45 24.45 48.2 24.75 48.05 25.0 47.9 25.4 47.7 26.4 47.9 26.9 49.35 27.15 51.9 24.55 M60.25 25.75 L60.15 25.85 60.75 26.9 60.9 26.75 60.65 26.05 60.25 25.75 M60.0 25.7 L60.15 25.85 59.05 27.25 58.15 29.0 58.1 30.2 58.2 30.0 59.6 28.25 59.9 27.95 60.3 27.35 60.75 26.9 60.8 27.2 60.9 27.15 60.8 28.25 60.7 28.45 60.6 28.8 59.65 30.15 58.85 30.85 58.85 30.9 58.9 31.2 58.95 31.25 59.4 31.0 60.25 29.55 60.5 29.25 59.65 30.8 59.6 30.85 59.4 31.0 59.3 31.25 M60.0 25.7 L58.9 26.05 57.55 27.45 56.8 30.8 57.25 31.1 57.75 31.05 58.1 30.2 58.35 30.8 58.95 30.4 59.25 29.2 59.9 27.95 60.8 27.2 60.8 27.65 60.7 28.45 60.0 29.4 58.95 30.4 58.85 30.85 58.6 31.05 58.9 31.2 58.9 31.25 58.95 31.25 59.05 31.25 59.25 31.3 59.05 31.7 59.15 31.8 59.6 32.1 59.65 32.0 60.1 31.45 60.1 31.25 M58.6 31.05 L58.35 30.8 57.75 31.05 57.7 31.55 57.75 31.55 58.6 31.05 M57.7 31.55 L57.75 31.95 57.85 32.2 59.0 31.55 58.9 31.25 57.75 31.55 M57.7 31.55 L56.75 31.5 55.2 30.85 55.15 30.8 55.15 31.15 55.5 31.7 56.65 31.85 57.7 31.55 M59.0 31.55 L59.25 31.3 M58.85 32.7 L59.05 31.7 59.0 31.55 M59.6 32.1 L60.15 32.1 60.5 31.5 M55.1 30.8 L55.25 30.35 55.3 29.8 55.45 29.45 55.25 30.35 55.15 30.8 55.1 30.8 M59.4 32.75 L59.0 32.7 58.8 32.9 58.8 33.0 58.9 33.1 59.5 32.75 59.4 32.75 M58.85 32.7 L59.0 32.7 59.6 32.1 M52.0 45.4 L52.0 45.15 52.05 44.9 52.45 38.75 52.65 38.0" fill="none" stroke="#ffffff" stroke-linecap="round" stroke-linejoin="round" stroke-width="2.0"/>
  </g>
</svg>
