<?xml version="1.0" encoding="UTF-8" standalone="no"?>
<svg xmlns:xlink="http://www.w3.org/1999/xlink" height="86.0px" width="27.95px" xmlns="http://www.w3.org/2000/svg">
  <g transform="matrix(1.0, 0.0, 0.0, 1.0, 1.0, 1.05)">
    <path d="M0.0 0.3 L4.1 0.2 8.2 0.15 12.25 0.1 15.3 0.05 17.75 0.0 20.7 0.15 22.5 0.3 25.4 -0.05 25.55 2.95 25.7 7.7 22.7 8.45 18.7 9.7 Q16.9 10.55 15.15 11.5 L12.6 13.05 10.35 14.85 10.2 15.0 10.2 19.0 10.2 23.0 10.2 26.0 10.2 28.45 13.1 31.05 15.3 33.0 16.95 34.5 17.6 38.65 17.95 42.8 17.95 46.85 17.95 49.85 17.95 51.05 17.85 51.15 14.85 53.6 12.6 55.45 9.3 57.6 9.3 61.6 9.3 64.6 9.3 69.3 13.05 70.95 15.85 72.2 19.1 73.8 21.75 75.0 25.1 76.6 M22.5 9.35 L21.9 12.15 Q21.75 13.1 22.65 15.15 L23.95 17.75 24.75 20.2 23.6 23.55 22.55 26.25 Q22.2 27.2 22.15 27.9 L22.6 30.75 Q22.8 31.75 23.5 33.1 L24.4 35.95 24.75 37.45 22.0 44.15 22.3 47.0 Q22.45 48.0 23.0 48.95 L24.1 51.9 24.6 53.7 24.15 56.7 Q24.05 57.7 23.45 58.9 L22.35 61.6 22.0 62.7 24.65 69.7 24.25 72.55 23.3 75.15 M0.2 0.9 L0.2 4.8 0.2 8.75 0.2 12.7 0.2 16.65 0.2 20.6 0.2 24.55 0.2 28.5 0.2 32.45 0.2 36.4 0.2 40.35 0.2 44.3 0.2 48.25 0.2 52.25 0.2 56.25 0.2 60.25 0.2 64.25 0.2 68.25 0.15 72.25 0.1 76.25 0.0 79.25 0.0 83.65 M10.2 15.0 L9.9 15.25 M25.65 76.9 L25.75 79.95 25.95 83.95 21.7 83.8 17.55 83.7 13.5 83.7 9.5 83.65 6.5 83.65 1.4 83.65" fill="none" stroke="#ffffff" stroke-linecap="round" stroke-linejoin="round" stroke-width="2.0"/>
  </g>
</svg>
