<?xml version="1.0" encoding="UTF-8" standalone="no"?>
<svg xmlns:xlink="http://www.w3.org/1999/xlink" height="28.8px" width="54.9px" xmlns="http://www.w3.org/2000/svg">
  <g transform="matrix(1.0, 0.0, 0.0, 1.0, 28.0, 28.6)">
    <path d="M26.1 -8.0 L7.75 -8.0 0.05 -0.3 -7.65 -8.0 -27.2 -8.0 -27.2 -27.7 26.1 -27.7 26.1 -8.0" fill="#65b3a0" fill-rule="evenodd" stroke="none"/>
    <path d="M26.1 -27.7 L26.2 -25.7 26.3 -23.6 26.35 -21.7 Q26.2 -20.8 26.2 -19.75 L26.15 -17.65 26.05 -15.9 26.0 -13.85 26.05 -11.6 26.25 -10.2 26.1 -8.0 24.0 -8.0 22.1 -8.1 20.0 -8.0 18.05 -7.95 15.9 -7.9 13.95 -8.0 12.3 -8.2 10.2 -8.15 8.65 -8.15 7.75 -8.0 Q7.0 -7.0 6.65 -6.95 L5.65 -6.15 4.3 -4.7 2.85 -3.25 1.4 -1.75 0.05 -0.3 -1.1 -1.2 -2.0 -2.1 -3.35 -3.7 -4.8 -5.45 Q-5.5 -6.35 -6.45 -6.75 -7.4 -7.1 -7.65 -8.0 L-9.85 -8.15 -11.6 -8.25 -13.55 -7.9 -15.6 -7.7 -17.75 -7.85 -19.85 -8.0 -21.75 -8.05 Q-22.6 -8.25 -23.4 -8.05 L-24.8 -8.0 -27.2 -8.0 Q-27.65 -9.25 -27.25 -10.35 -26.85 -11.4 -26.85 -12.25 L-26.9 -13.9 -27.05 -15.85 -27.2 -18.1 -27.3 -20.1 -27.45 -22.0 -27.45 -24.0 -27.4 -25.7 Q-27.5 -26.4 -27.2 -27.7 L-25.3 -27.55 -23.2 -27.8 -21.15 -27.55 -19.15 -27.5 -17.2 -27.8 -15.05 -27.6 -13.0 -27.75 -11.35 -27.95 -9.4 -27.75 -7.25 -27.7 -5.25 -27.75 -3.35 -27.75 -1.2 -27.55 0.95 -27.6 2.75 -27.8 4.85 -27.8 7.15 -27.75 9.2 -27.95 10.75 -28.05 12.6 -27.6 14.95 -27.25 16.95 -27.65 18.75 -27.95 20.75 -27.85 23.05 -27.75 24.55 -27.7 26.1 -27.7 M7.75 -8.0 L8.75 -9.0 6.65 -9.1 4.85 -9.2 3.05 -9.35 0.8 -9.2 -1.45 -9.0 -3.15 -9.1 -5.0 -9.25 -7.0 -9.1 -8.65 -9.0 -7.65 -8.0" fill="none" stroke="#65b3a0" stroke-linecap="round" stroke-linejoin="round" stroke-width="1.0"/>
  </g>
</svg>
