<?xml version="1.0" encoding="UTF-8" standalone="no"?>
<svg xmlns:xlink="http://www.w3.org/1999/xlink" height="28.85px" width="86.15px" xmlns="http://www.w3.org/2000/svg">
  <g transform="matrix(1.0, 0.0, 0.0, 1.0, 43.75, 28.65)">
    <path d="M0.05 -0.3 L-8.65 -9.0 -9.3 -9.0 -8.25 -8.0 -42.85 -8.0 -42.85 -27.7 41.8 -27.7 41.8 -8.0 8.45 -8.0 9.5 -9.0 8.75 -9.0 0.05 -0.3" fill="#65b3a0" fill-rule="evenodd" stroke="none"/>
    <path d="M27.6 -27.85 L25.6 -28.05 23.75 -28.1 21.65 -27.75 19.7 -27.55 17.6 -27.75 15.6 -27.75 13.55 -27.75 11.55 -27.8 9.85 -27.75 8.0 -27.65 6.1 -27.75 4.1 -27.75 1.95 -27.5 -0.2 -27.45 -2.25 -27.65 -4.15 -27.55 -6.25 -27.3 -8.35 -27.55 -10.3 -28.0 -12.25 -28.0 -14.3 -27.75 -16.45 -27.8 -18.4 -27.9 -20.3 -27.95 -22.3 -28.05 -24.25 -28.15 -26.1 -27.95 -27.95 -27.7 -30.1 -27.65 -32.0 -27.55 -34.1 -27.6 -36.15 -27.95 Q-36.9 -28.15 -37.95 -27.95 L-39.85 -27.75 -41.55 -27.75 -42.85 -27.7 -42.75 -25.65 -42.8 -23.7 -43.1 -21.9 -43.25 -20.15 -43.05 -18.0 -42.85 -15.75 -42.8 -13.7 -42.8 -11.8 -43.0 -10.35 -42.85 -8.0 -40.9 -8.35 -38.5 -8.25 -36.55 -7.9 -34.7 -7.85 -32.85 -8.1 -30.95 -8.1 -29.1 -8.0 -27.1 -8.0 -25.05 -8.2 Q-24.15 -8.4 -23.0 -8.2 L-20.9 -8.15 -19.0 -8.15 -16.8 -8.0 -14.7 -7.95 -13.0 -8.1 -11.15 -8.1 -9.55 -8.0 -8.6 -8.0 -9.3 -9.0 -8.65 -9.0 -7.0 -9.1 -5.0 -9.25 -3.15 -9.1 -1.45 -9.0 0.8 -9.2 3.05 -9.35 4.85 -9.2 6.65 -9.1 8.75 -9.0 9.5 -9.0 8.45 -8.0 10.4 -8.35 12.8 -8.25 14.75 -7.9 16.6 -7.85 18.45 -8.1 20.35 -8.1 22.2 -8.0 24.2 -8.0 26.25 -8.2 Q27.15 -8.4 28.3 -8.2 L30.4 -8.15 32.3 -8.15 34.5 -8.0 36.6 -7.95 38.3 -8.1 39.65 -8.1 41.8 -8.0 Q41.4 -8.65 41.7 -10.1 42.0 -11.5 41.8 -12.5 L41.75 -14.15 41.85 -15.9 41.75 -18.2 41.7 -20.15 41.8 -21.95 41.75 -23.9 41.8 -25.4 41.8 -27.7 39.65 -27.75 37.65 -27.85 35.8 -27.95 33.85 -27.6 31.8 -27.6 29.8 -27.65 27.6 -27.85 M-7.65 -8.0 Q-7.4 -7.1 -6.45 -6.75 -5.5 -6.35 -4.8 -5.45 L-3.35 -3.7 -2.0 -2.1 -1.1 -1.2 0.05 -0.3 1.4 -1.75 2.85 -3.25 4.3 -4.7 5.65 -6.15 6.65 -6.95 Q7.0 -7.0 7.75 -8.0 M-8.25 -8.0 Q-8.4 -7.85 -8.6 -8.0" fill="none" stroke="#65b3a0" stroke-linecap="round" stroke-linejoin="round" stroke-width="1.0"/>
  </g>
</svg>
