<?xml version="1.0" encoding="UTF-8" standalone="no"?>
<svg xmlns:xlink="http://www.w3.org/1999/xlink" height="71.4px" width="27.25px" xmlns="http://www.w3.org/2000/svg">
  <g transform="matrix(1.0, 0.0, 0.0, 1.0, 13.6, 35.7)">
    <path d="M9.4 -33.5 L10.3 -33.25 10.8 -32.9 11.0 -32.5 11.2 -32.15 11.4 -31.75 11.55 -31.4 11.65 -31.0 11.8 -30.65 11.8 -30.25 11.8 -29.9 11.8 -29.5 11.8 -29.1 11.8 -28.75 11.8 -28.35 11.65 -28.0 11.4 -27.6 11.15 -27.25 10.8 -26.85 10.65 -26.5 10.4 -26.1 10.15 -25.75 9.8 -25.35 9.55 -25.0 9.4 -24.6 9.3 -24.25 9.15 -23.85 8.95 -23.5 8.75 -23.15 8.55 -22.75 8.4 -22.4 8.2 -22.0 8.0 -21.65 7.8 -21.25 7.75 -20.9 7.65 -20.5 7.55 -20.25 7.55 -20.2 8.4 -19.95 9.3 -19.75 9.8 -19.35 10.0 -19.0 10.15 -18.6 10.25 -18.25 10.25 -17.9 10.15 -17.5 9.9 -17.1 9.65 -16.75 9.3 -16.5 9.35 -15.6 9.15 -13.0 8.4 -10.35 8.2 -10.0 8.0 -9.65 7.8 -9.25 7.8 -8.85 7.8 -8.5 7.8 -8.1 7.8 -7.75 Q8.3 -6.45 8.3 -5.1 L8.3 -1.35 8.3 1.25 8.3 1.65 8.4 2.0 8.5 2.4 8.55 2.75 8.65 3.15 8.8 3.5 8.8 9.9 8.8 15.9 8.8 21.9 8.65 22.25 8.55 22.65 8.4 23.0 8.15 23.25 8.1 23.35 9.8 23.75 10.3 24.15 10.5 24.55 10.65 24.9 10.75 25.25 10.8 26.0 10.8 27.15 10.8 28.25 10.85 28.6 11.0 29.05 11.15 29.4 11.25 29.75 11.3 30.15 11.25 30.5 11.15 30.9 11.0 31.25 10.8 31.65 10.75 32.0 10.65 32.4 10.5 32.75 10.3 33.15 9.8 33.5 8.55 33.9 8.05 34.15 -3.1 34.25 -3.95 34.0 -9.6 33.75 -10.5 33.5 -10.95 33.1 -11.35 32.75 -11.5 31.65 -11.5 29.75 -11.5 27.5 -11.35 27.15 -11.1 26.75 -11.0 26.4 -11.0 26.0 -11.0 25.65 -11.0 25.25 -11.0 24.9 -10.8 24.55 -10.5 24.15 -10.1 23.75 Q-9.25 21.85 -9.05 12.8 L-8.65 -5.35 -8.45 -16.05 -8.45 -16.25 -8.6 -16.25 -9.5 -16.5 -9.95 -16.9 -10.3 -17.3 -10.5 -17.6 -10.5 -18.0 -10.45 -18.35 -10.35 -18.75 -10.2 -19.1 -9.85 -19.5 -9.45 -19.75 -9.2 -19.85 -8.6 -20.1 -8.75 -20.5 -8.85 -20.85 -9.0 -21.25 -9.1 -21.6 -9.25 -22.0 -9.35 -22.35 -9.35 -22.75 -9.35 -23.1 -9.35 -23.5 -9.35 -23.85 -9.35 -24.25 -9.35 -24.6 -9.5 -25.0 -9.7 -25.4 -9.75 -25.6 -9.95 -25.6 -10.6 -25.5 -11.5 -25.75 -11.85 -26.15 -12.1 -26.5 -12.2 -26.9 -12.25 -27.25 -12.25 -27.6 -12.25 -28.0 -12.25 -28.35 -12.25 -28.75 -12.25 -29.1 -12.25 -29.5 -12.1 -29.85 -11.9 -30.25 -11.75 -30.65 -11.7 -31.0 -11.55 -31.35 -11.25 -31.75 -10.85 -32.15 -10.5 -32.5 -9.6 -32.75 -9.0 -33.0 -8.6 -33.35 -8.25 -33.65 -7.6 -33.7 -3.6 -33.8 -3.6 -33.9 -1.1 -33.9 2.4 -33.6 7.4 -33.45 8.3 -33.45 9.4 -33.5" fill="#c18e79" fill-rule="evenodd" stroke="none"/>
    <path d="M5.95 11.75 L9.95 14.75 Q10.45 18.6 7.65 21.6 6.2 23.15 4.3 22.0 L2.8 22.25 Q2.45 22.6 2.05 22.9 L-6.25 22.85 -7.55 24.5 -9.3 23.65 -7.95 16.5 -7.05 16.25 -2.95 18.65 3.05 18.5 4.95 17.25 6.25 17.7 6.8 17.15 4.3 13.75 5.35 11.95 5.95 11.75" fill="#9891a2" fill-opacity="0.3019608" fill-rule="evenodd" stroke="none"/>
    <path d="M-7.2 12.0 Q-2.3 11.95 -3.4 17.95 2.15 19.15 6.6 22.0 L6.95 22.5 6.2 23.65 Q3.15 22.85 0.45 24.4 L-0.2 26.15 Q-5.7 25.75 -10.05 28.9 L-10.95 28.65 -11.95 27.5 -11.65 23.4 -9.6 21.3 -9.45 18.25 -7.8 16.9 -8.7 16.0 -7.9 12.65 -7.2 12.0" fill="#9891a2" fill-opacity="0.3019608" fill-rule="evenodd" stroke="none"/>
    <path d="M7.8 7.25 L8.45 7.0 9.05 7.25 Q11.0 11.45 8.2 15.0 L7.55 15.65 8.95 16.75 9.1 21.8 11.95 23.25 12.05 24.65 13.45 25.75 Q13.9 27.1 13.4 28.4 13.05 29.4 11.8 29.6 L11.4 32.0 Q5.7 34.85 1.35 31.25 L1.35 28.7 -2.7 25.75 -2.5 23.95 -5.8 22.9 Q-6.2 16.65 1.3 13.9 L4.3 14.4 7.05 12.15 7.8 7.25" fill="#9891a2" fill-opacity="0.3019608" fill-rule="evenodd" stroke="none"/>
    <path d="M1.7 23.9 Q6.15 21.9 9.35 25.15 10.0 25.85 11.05 26.25 11.65 27.2 11.7 28.6 11.8 30.3 10.55 31.4 L7.2 31.65 6.55 32.35 Q5.7 33.25 4.65 32.75 L3.7 32.4 4.3 28.9 Q-0.85 31.7 -5.8 29.05 L-7.7 27.65 -6.8 24.9 -1.05 23.15 1.7 23.9" fill="#9891a2" fill-opacity="0.3019608" fill-rule="evenodd" stroke="none"/>
    <path d="M-8.3 -13.5 L-10.7 -14.35 -10.9 -16.6 -9.95 -17.75 7.8 -18.7 Q9.25 -18.45 9.75 -17.0 L6.8 -11.85 3.45 -11.85 2.8 -10.85 0.45 -10.1 Q-0.5 -9.85 -1.4 -10.1 L-2.05 -10.35 -3.8 -9.95 -5.3 -5.85 -7.45 -5.85 -8.05 -6.6 -7.6 -10.35 -8.5 -13.0 -8.3 -13.5" fill="#9891a2" fill-opacity="0.3019608" fill-rule="evenodd" stroke="none"/>
    <path d="M-10.2 -14.25 L-9.2 -15.6 Q-4.45 -16.35 0.2 -15.55 L2.95 -14.9 5.95 -16.25 9.4 -13.75 8.8 -11.25 4.8 -9.85 Q4.1 -8.35 3.0 -7.4 2.3 -6.8 1.45 -6.5 L-0.3 -6.1 -2.45 -6.25 -3.05 -7.85 -3.1 -8.55 -2.95 -9.25 -2.55 -10.0 -3.8 -10.5 -4.55 -10.25 -5.45 -10.5 -6.95 -12.25 -9.45 -12.75 -10.2 -14.25" fill="#9891a2" fill-opacity="0.3019608" fill-rule="evenodd" stroke="none"/>
    <path d="M0.45 -15.85 Q5.0 -16.7 7.45 -13.5 8.05 -12.75 7.7 -11.8 L10.1 -10.15 10.65 -9.1 10.25 -8.55 Q9.4 -7.3 7.95 -7.25 7.0 -7.25 6.25 -7.9 L1.95 -4.35 0.8 1.9 -4.55 2.15 -5.7 1.15 -5.7 -8.25 -6.55 -9.35 -6.2 -13.1 -1.2 -14.85 0.45 -15.85" fill="#9891a2" fill-opacity="0.3019608" fill-rule="evenodd" stroke="none"/>
    <path d="M6.3 -31.35 L-2.55 -30.75 -0.95 -29.35 -1.75 -27.15 -0.5 -24.65 -1.2 -22.75 -2.95 -22.75 -3.7 -23.8 -4.7 -20.85 -6.45 -20.85 -6.8 -21.25 -8.05 -20.75 -9.8 -21.75 -10.05 -25.85 -8.05 -27.35 -10.95 -27.75 Q-11.65 -28.15 -11.7 -29.0 L-11.75 -29.6 Q-11.75 -31.0 -10.6 -31.65 L-9.3 -32.1 -8.45 -33.5 -7.55 -33.75 -2.7 -33.45 Q1.95 -34.45 6.55 -33.5 L6.9 -32.4 6.3 -31.35" fill="#9891a2" fill-opacity="0.3019608" fill-rule="evenodd" stroke="none"/>
    <path d="M3.55 -31.25 L1.05 -30.85 0.8 -30.25 -5.3 -29.25 -5.95 -28.1 -2.95 -25.85 -4.55 -22.9 -8.95 -22.85 -10.55 -24.75 -10.6 -27.5 -12.45 -29.0 Q-10.45 -36.8 -0.05 -35.55 3.0 -35.1 4.75 -32.75 L3.55 -31.25" fill="#9891a2" fill-opacity="0.3019608" fill-rule="evenodd" stroke="none"/>
    <path d="M-7.05 -33.6 Q3.4 -36.95 9.95 -31.25 13.5 -28.75 10.4 -26.1 L9.55 -25.5 8.55 -24.1 7.05 -24.25 Q5.8 -26.25 7.0 -28.25 L5.55 -28.85 4.9 -30.3 -6.45 -31.0 -7.45 -32.5 -7.05 -33.6" fill="#9891a2" fill-opacity="0.3019608" fill-rule="evenodd" stroke="none"/>
    <path d="M-9.2 -27.5 L8.5 -27.0 8.8 -25.1 6.0 -20.25 -8.05 -20.1 -8.8 -20.6 -8.95 -23.5 -10.55 -24.65 -9.2 -27.5" fill="#663333" fill-opacity="0.2" fill-rule="evenodd" stroke="none"/>
    <path d="M-3.55 -24.85 L-0.95 -26.6 -0.95 -30.65 Q7.45 -35.15 8.4 -27.9 8.55 -26.7 7.55 -26.1 L6.8 -21.25 6.05 -20.6 Q-0.1 -18.35 -3.7 -22.25 L-3.55 -24.85" fill="#663333" fill-opacity="0.2" fill-rule="evenodd" stroke="none"/>
    <path d="M-0.6 -18.6 Q3.2 -22.95 9.5 -19.85 L10.4 -19.25 10.55 -17.35 8.8 -15.25 Q2.75 -12.65 -0.6 -17.1 L-0.6 -18.6" fill="#663333" fill-opacity="0.2" fill-rule="evenodd" stroke="none"/>
    <path d="M-10.0 -16.95 Q-7.25 -17.85 -4.1 -17.85 L8.0 -16.5 8.25 -15.4 8.3 -14.4 8.1 -13.9 7.3 -12.85 -6.7 -13.5 Q-8.35 -13.7 -8.35 -15.5 L-9.7 -15.85 -10.0 -16.95" fill="#663333" fill-opacity="0.2" fill-rule="evenodd" stroke="none"/>
    <path d="M-6.05 20.3 Q1.05 19.0 8.0 20.45 L8.3 20.4 8.3 21.75 -1.7 22.2 Q-4.0 22.35 -6.05 21.4 L-6.05 20.3" fill="#663333" fill-opacity="0.2" fill-rule="evenodd" stroke="none"/>
    <path d="M-7.6 30.75 L10.15 30.65 10.9 31.75 10.3 33.15 -7.6 33.5 -8.7 32.5 -8.35 31.4 -7.6 30.75" fill="#663333" fill-opacity="0.2" fill-rule="evenodd" stroke="none"/>
    <path d="M0.9 -15.75 L4.15 -14.75 5.55 -10.25 4.2 2.1 5.05 3.25 Q6.6 10.45 6.05 17.8 L5.55 21.65 7.05 24.25 6.3 29.5 Q8.05 33.6 3.2 34.35 L0.15 34.85 -4.4 34.45 Q-8.05 29.2 -3.25 23.9 L-1.6 22.45 -0.6 21.9 -2.9 20.7 -3.15 13.3 Q-4.5 4.95 -2.35 -3.6 -4.45 -7.35 -3.4 -11.8 -2.7 -14.7 0.05 -15.5 L0.9 -15.75" fill="#663333" fill-opacity="0.2" fill-rule="evenodd" stroke="none"/>
    <path d="M2.3 -13.85 L4.2 -14.5 5.05 -16.75 5.9 -17.0 7.05 -16.35 8.55 -7.75 9.4 -7.0 Q10.15 4.8 8.3 15.9 L8.4 23.45 Q11.05 23.8 11.2 26.35 L11.8 31.65 10.8 33.0 Q2.55 37.15 -0.3 31.75 -3.0 26.7 1.05 23.25 L0.55 21.75 -1.1 20.5 -1.2 19.0 Q-1.05 14.35 1.9 9.5 0.7 1.45 1.9 -7.75 1.65 -10.2 2.3 -13.85" fill="#663333" fill-opacity="0.2" fill-rule="evenodd" stroke="none"/>
    <path d="M-6.6 -21.5 L-7.45 -21.75 -7.85 -22.15 -8.1 -22.5 -8.2 -22.85 -8.35 -23.25 -8.7 -23.6 -9.1 -24.0 -9.45 -24.35 -9.55 -24.75 -9.6 -25.1 -9.6 -25.5 -9.6 -25.85 -9.6 -26.25 -9.55 -26.6 -9.35 -27.0 -9.1 -27.35 -8.7 -27.75 -8.45 -28.0 -8.2 -28.1 -7.6 -28.2 -7.6 -28.25 3.9 -28.25 4.65 -28.0 5.15 -27.75 5.8 -27.8 6.4 -27.85 7.3 -27.6 7.65 -27.25 7.9 -26.85 8.05 -26.5 8.15 -26.1 8.15 -25.75 8.15 -25.35 8.15 -25.0 8.05 -24.6 7.9 -24.25 7.5 -23.5 7.05 -22.75 6.85 -22.4 6.3 -21.6 5.4 -21.2 5.05 -21.0 4.4 -20.95 -4.6 -21.0 -5.45 -21.25 -6.6 -21.5" fill="#663333" fill-opacity="0.2" fill-rule="evenodd" stroke="none"/>
    <path d="M9.9 -32.15 L1.9 -32.05 Q-3.8 -31.85 -9.45 -32.2 L-9.6 -32.4 -9.75 -32.6 -9.85 -32.8 -9.8 -32.95 -9.7 -33.15 -9.45 -33.35 -9.1 -33.45 -7.85 -33.55 -6.1 -33.65 -1.85 -33.7 1.9 -33.7 4.65 -33.65 9.9 -33.55 10.3 -33.4 10.45 -33.2 10.55 -33.05 10.55 -32.85 10.55 -32.65 10.5 -32.45 10.3 -32.3 9.9 -32.15" fill="#ffffff" fill-opacity="0.2" fill-rule="evenodd" stroke="none"/>
    <path d="M-7.85 -33.15 L-5.1 -33.35 -4.35 -32.65 Q-5.0 -29.15 -8.0 -27.8 L-10.8 -27.65 -11.4 -28.4 Q-11.6 -29.35 -11.1 -29.95 -9.9 -31.5 -9.45 -33.45 L-8.4 -33.6 -7.85 -33.15" fill="#ffffff" fill-opacity="0.2" fill-rule="evenodd" stroke="none"/>
    <path d="M-5.15 -19.9 L-4.95 -19.7 -4.85 -19.5 -4.75 -19.35 -4.7 -19.15 -4.7 -18.95 -4.7 -18.8 -4.7 -18.6 -4.7 -18.2 -4.75 -18.05 -4.85 -17.85 -4.9 -17.65 -5.1 -17.5 -5.25 -17.35 -5.6 -17.3 -7.15 -17.15 -7.35 -16.95 -7.65 -16.8 -7.9 -16.65 -8.0 -16.6 -8.35 -16.55 -8.85 -16.55 -9.85 -16.6 -10.25 -16.7 -10.45 -16.9 -10.6 -17.1 -10.6 -17.3 -10.6 -17.45 -10.6 -17.65 -10.6 -18.05 -10.6 -18.4 -10.55 -18.6 -10.45 -18.75 -10.25 -18.95 -10.25 -19.15 -10.2 -19.35 -10.0 -19.5 -9.8 -19.75 -9.6 -19.9 -9.45 -20.05 -9.35 -20.1 -9.1 -20.15 -8.35 -20.15 -8.1 -20.1 -7.9 -20.1 -7.65 -20.15 -7.35 -20.2 -5.85 -20.2 -5.4 -20.1 -5.15 -19.9" fill="#ffffff" fill-opacity="0.2" fill-rule="evenodd" stroke="none"/>
    <path d="M1.85 -19.9 L2.15 -19.7 2.25 -19.55 2.25 -19.35 2.25 -19.15 2.15 -18.95 1.85 -18.8 1.4 -18.65 -8.6 -18.7 -8.95 -18.85 -9.2 -19.0 -9.5 -19.2 -9.6 -19.4 -9.65 -19.6 -9.6 -19.75 -9.5 -19.95 -9.35 -20.1 -9.1 -20.1 -9.1 -20.15 -8.85 -20.1 -8.7 -20.05 1.4 -20.05 1.85 -19.9" fill="#ffffff" fill-opacity="0.2" fill-rule="evenodd" stroke="none"/>
    <path d="M-5.25 -14.15 L-5.3 -14.0 -5.45 -13.8 -5.65 -13.6 -5.7 -13.4 -5.75 -13.2 -6.05 -13.05 -6.2 -13.05 -6.0 -13.4 -5.8 -13.75 -5.55 -14.1 -5.25 -14.15" fill="#ffffff" fill-opacity="0.2" fill-rule="evenodd" stroke="none"/>
    <path d="M-7.1 -12.8 L-7.2 -12.6 -7.45 -12.55 -7.45 -12.7 -7.35 -12.9 -7.25 -13.1 -6.9 -13.45 -6.7 -13.65 -6.5 -13.8 -6.25 -13.9 -6.5 -13.55 -6.65 -13.35 -6.85 -13.15 -7.0 -12.95 -7.1 -12.8" fill="#ffffff" fill-opacity="0.2" fill-rule="evenodd" stroke="none"/>
    <path d="M-7.35 -14.6 L-5.55 -13.75 Q-5.25 -0.1 -6.5 13.65 L-6.35 16.65 Q-5.7 19.95 -7.5 22.55 L-8.5 22.3 Q-8.75 13.8 -8.2 5.05 L-7.3 -12.35 -7.35 -14.6" fill="#ffffff" fill-opacity="0.2" fill-rule="evenodd" stroke="none"/>
    <path d="M0.25 23.9 L0.45 24.65 Q1.4 25.0 -0.4 24.75 L-6.45 25.35 -9.8 28.55 -10.1 31.75 -10.85 32.25 -11.6 31.75 Q-12.35 28.9 -11.45 26.05 L-11.05 24.05 -9.9 22.95 -1.8 23.4 0.25 23.9" fill="#ffffff" fill-opacity="0.2" fill-rule="evenodd" stroke="none"/>
    <path d="M-8.35 -15.9 L-8.25 -16.25 -7.85 -16.65 Q-7.55 -16.7 -7.7 -8.15 L-8.0 3.65 -8.15 7.25 -8.15 18.55 -8.25 22.65 -8.35 22.85 -8.45 23.05 -8.65 23.15 -8.75 23.2 -9.05 23.3 -9.3 23.25 -10.1 24.15 -11.0 25.7 Q-11.35 27.95 -11.25 30.2 -11.2 31.9 -10.5 33.45 L-9.65 33.7 -9.6 33.8 -6.15 33.65 -3.35 33.65 -2.8 33.65 -2.1 33.65 -1.5 33.65 -0.8 33.65 -0.2 33.65 0.5 33.65 1.1 33.65 1.8 33.65 2.4 33.65 3.1 33.65 3.7 33.65 4.4 33.65 5.0 33.65 6.2 33.6 6.9 33.65 9.15 33.7 10.0 33.45 Q10.7 31.9 10.8 30.2 L10.55 25.7 9.65 24.15 9.3 23.7 8.4 23.65 0.2 23.25 Q-0.55 23.0 0.25 22.7 L1.6 22.55 5.9 22.3 7.85 22.25 7.95 22.0 8.15 12.15 8.0 5.5 7.75 -2.65 7.65 -10.85 7.45 -15.35 Q8.05 -14.65 8.1 -15.05 L8.25 -15.15 8.3 -15.2 8.5 -15.2 8.55 -15.2 8.7 -15.05 8.8 -14.9 Q9.3 -9.55 9.35 -3.95 L9.6 7.25 9.6 7.45 10.1 19.5 10.05 21.85 10.05 22.05 9.95 22.25 9.9 22.3 10.3 22.3 10.75 23.1 10.5 23.25 10.8 23.7 Q12.1 25.55 12.15 27.85 L12.2 28.65 11.9 33.0 Q11.8 34.4 10.8 35.05 L9.6 35.55 9.1 35.6 9.0 35.5 8.9 35.5 7.8 35.6 6.6 35.65 5.5 35.7 4.3 35.7 3.2 35.7 2.0 35.7 0.9 35.7 -0.3 35.65 -1.4 35.65 -2.55 35.6 -4.1 35.6 -6.8 35.5 -9.45 35.45 -9.6 35.6 -10.1 35.55 -11.25 35.05 Q-12.3 34.4 -12.35 33.0 L-12.65 28.65 -12.7 27.85 Q-12.65 25.55 -11.25 23.7 -10.7 22.8 -9.9 22.4 L-9.75 16.3 -9.5 9.85 -9.4 7.25 -9.3 6.3 -9.15 -2.65 -8.95 -11.15 -8.65 -15.8 -8.55 -15.85 -8.35 -15.9 M-9.15 35.1 Q-8.9 35.0 -9.1 34.95 L-9.05 35.0 -9.15 35.1" fill="#333333" fill-rule="evenodd" stroke="none"/>
    <path d="M9.25 -33.2 Q-0.25 -32.7 -9.7 -33.4 L-9.8 -33.6 -9.9 -33.8 -9.9 -33.95 -9.8 -34.15 -9.7 -34.3 -9.6 -34.3 -0.6 -34.65 6.4 -34.6 8.9 -34.6 9.3 -34.45 9.45 -34.25 9.6 -34.1 9.65 -33.9 9.65 -33.7 9.55 -33.5 9.45 -33.35 9.35 -33.2 9.25 -33.2" fill="#333333" fill-rule="evenodd" stroke="none"/>
    <path d="M-12.35 -30.7 L-11.7 -31.65 -11.0 -32.8 -10.7 -33.35 -10.55 -33.55 -10.4 -33.7 -10.4 -33.9 -10.35 -34.1 -10.2 -34.3 -9.85 -34.35 -9.85 -34.4 -9.5 -34.3 -9.4 -34.1 -9.3 -33.9 -9.25 -33.7 -9.3 -33.55 -9.35 -33.35 -9.45 -33.15 -9.45 -32.95 -9.5 -32.8 -9.65 -32.6 -9.7 -32.4 -9.85 -32.2 -9.9 -32.05 -9.95 -31.85 -10.2 -31.45 -10.6 -30.9 -10.95 -30.35 -11.0 -30.15 -11.05 -29.95 -11.1 -29.8 -11.25 -29.4 -11.55 -28.85 -11.85 -28.45 -11.85 -28.3 -11.85 -28.1 -11.9 -27.9 -11.95 -27.7 -12.1 -27.5 -12.3 -27.15 -12.45 -26.95 -12.85 -26.85 -13.25 -26.95 -13.45 -27.15 -13.6 -27.35 -13.6 -27.55 -13.6 -27.7 -13.6 -27.9 -13.55 -28.1 -13.45 -28.3 -13.35 -28.45 -13.35 -28.65 -13.35 -28.85 -13.15 -29.2 -12.8 -29.75 -12.45 -30.35 -12.4 -30.55 -12.35 -30.7" fill="#333333" fill-rule="evenodd" stroke="none"/>
    <path d="M11.95 -30.7 L11.3 -31.65 10.6 -32.8 10.3 -33.35 10.15 -33.55 10.0 -33.7 10.0 -33.9 9.95 -34.1 9.8 -34.3 9.45 -34.35 9.45 -34.4 9.1 -34.3 9.0 -34.1 8.9 -33.9 8.85 -33.7 8.9 -33.55 8.95 -33.35 9.05 -33.15 9.05 -32.95 9.1 -32.8 9.25 -32.6 9.3 -32.4 9.45 -32.2 9.5 -32.05 9.55 -31.85 9.8 -31.45 10.2 -30.9 10.55 -30.35 10.6 -30.15 10.65 -29.95 10.7 -29.8 10.85 -29.4 11.15 -28.85 11.45 -28.45 11.45 -28.3 11.45 -28.1 11.5 -27.9 11.55 -27.7 11.7 -27.5 11.9 -27.15 12.05 -26.95 12.45 -26.85 12.85 -26.95 13.05 -27.15 13.2 -27.35 13.2 -27.55 13.2 -27.7 13.2 -27.9 13.15 -28.1 13.05 -28.3 12.95 -28.45 12.95 -28.65 12.95 -28.85 12.75 -29.2 12.4 -29.75 12.05 -30.35 12.0 -30.55 11.95 -30.7" fill="#333333" fill-rule="evenodd" stroke="none"/>
    <path d="M-6.6 -26.85 L-11.85 -26.85 -13.1 -26.85 -13.4 -26.95 -13.5 -27.15 -13.5 -27.35 -13.5 -27.5 -13.4 -27.65 -13.35 -27.7 -13.1 -27.8 -11.85 -27.8 -11.85 -27.85 -6.6 -27.85 -6.35 -27.75 -5.95 -27.65 -5.75 -27.45 -5.75 -27.3 -5.85 -27.1 -6.1 -26.95 -6.35 -26.9 -6.6 -26.85" fill="#333333" fill-rule="evenodd" stroke="none"/>
    <path d="M-2.1 -27.8 L9.4 -28.05 12.4 -28.05 12.8 -27.9 12.95 -27.7 13.05 -27.55 13.1 -27.35 13.05 -27.15 13.0 -26.95 12.8 -26.8 12.4 -26.65 -2.1 -26.9 -2.5 -27.05 -2.7 -27.2 -2.7 -27.4 -2.6 -27.6 -2.35 -27.7 -2.1 -27.8" fill="#333333" fill-rule="evenodd" stroke="none"/>
    <path d="M8.55 -24.1 Q10.0 -27.15 12.9 -27.8 L13.45 -27.45 Q13.85 -26.65 12.9 -26.4 10.7 -25.6 9.85 -23.1 9.35 -21.65 9.4 -20.25 9.4 -19.7 9.0 -19.35 L7.9 -19.75 Q7.6 -21.95 8.55 -24.1" fill="#333333" fill-rule="evenodd" stroke="none"/>
    <path d="M-11.35 -27.25 Q-10.2 -26.0 -9.4 -24.6 L-8.45 -22.9 -8.05 -20.1 Q-8.3 -19.65 -8.85 -19.65 L-9.25 -19.75 -9.35 -19.95 Q-9.5 -22.95 -11.35 -25.4 L-12.4 -26.4 Q-13.1 -27.0 -12.95 -27.85 L-12.85 -28.05 Q-12.05 -28.05 -11.35 -27.25" fill="#333333" fill-rule="evenodd" stroke="none"/>
    <path d="M1.4 -20.65 L1.3 -20.85 1.25 -20.9 7.95 -20.8 8.85 -20.7 9.05 -20.5 9.15 -20.35 9.2 -20.15 9.2 -20.0 9.1 -19.75 9.0 -19.6 8.9 -19.45 6.0 -19.45 Q3.15 -19.5 1.45 -20.35 L1.45 -20.55 1.4 -20.65 M-6.3 -20.6 Q-5.6 -20.8 -5.15 -20.6 L-5.2 -20.6 -5.5 -20.4 -5.7 -20.2 -5.9 -20.0 -6.0 -19.85 -8.1 -19.7 -8.2 -19.7 -8.45 -19.8 -8.65 -19.95 -8.65 -20.15 -8.55 -20.35 -8.3 -20.45 -8.05 -20.55 -7.8 -20.55 -6.55 -20.55 -6.3 -20.6" fill="#333333" fill-rule="evenodd" stroke="none"/>
    <path d="M-8.5 -21.1 L-8.35 -20.9 -8.25 -20.7 -8.2 -20.55 -8.3 -20.35 -8.4 -20.15 -8.55 -19.95 -8.7 -19.8 -9.1 -19.65 -9.6 -19.55 -9.65 -19.35 -9.75 -19.15 -9.9 -18.95 -10.1 -18.8 -10.1 -18.6 -10.1 -18.4 -10.1 -18.05 -10.1 -17.65 -10.0 -17.45 -9.9 -17.3 -9.6 -16.9 -9.45 -16.7 -9.2 -16.5 -8.8 -16.1 -8.6 -15.8 -8.55 -15.6 -8.5 -15.4 -8.5 -15.2 -8.6 -15.05 -8.7 -14.85 -8.95 -14.65 -9.35 -14.55 -9.75 -14.65 -9.95 -14.85 -10.15 -15.05 -10.25 -15.2 -10.5 -15.4 -10.7 -15.6 -10.9 -15.8 -10.95 -15.95 -11.1 -16.15 -11.15 -16.35 -11.2 -16.55 -11.35 -16.7 -11.45 -16.9 -11.6 -17.1 -11.6 -17.45 -11.6 -18.05 -11.6 -18.6 -11.6 -18.8 -11.6 -19.15 -11.4 -19.5 -10.9 -20.1 -10.5 -20.65 -10.15 -20.85 -9.9 -20.95 -9.6 -21.05 -9.2 -21.1 -9.1 -21.15 -8.85 -21.2 -8.5 -21.1" fill="#333333" fill-rule="evenodd" stroke="none"/>
    <path d="M-9.15 -15.2 L-9.25 -15.4 -9.25 -15.6 -9.25 -15.75 -9.15 -15.95 -9.0 -16.15 5.4 -16.6 8.65 -16.6 9.9 -16.6 10.35 -16.45 10.6 -16.3 10.75 -16.1 10.85 -15.9 10.9 -15.7 10.9 -15.55 10.85 -15.35 10.8 -15.15 10.65 -14.95 10.2 -14.8 4.9 -14.7 Q0.0 -14.6 -4.35 -14.75 L-9.0 -15.05 -9.15 -15.2" fill="#333333" fill-rule="evenodd" stroke="none"/>
    <path d="M7.65 -20.8 L9.2 -20.6 10.4 -20.15 11.55 -19.35 11.65 -19.15 11.8 -18.95 11.85 -18.8 11.9 -18.6 12.0 -18.4 12.0 -18.2 12.0 -17.85 12.0 -17.65 12.0 -17.45 12.0 -17.3 11.95 -17.1 11.9 -16.9 11.85 -16.7 11.75 -16.55 11.5 -16.35 11.05 -15.95 10.85 -15.8 10.6 -15.6 10.4 -15.4 10.25 -15.3 9.75 -15.15 9.5 -15.05 9.15 -15.0 8.9 -14.95 8.5 -15.1 8.25 -15.3 8.1 -15.45 8.05 -15.65 8.05 -15.85 8.05 -16.0 8.1 -16.2 8.25 -16.4 8.4 -16.6 8.6 -16.8 8.85 -16.9 9.75 -17.2 10.0 -17.4 10.25 -17.6 10.35 -17.8 10.35 -17.95 10.3 -18.15 10.2 -18.35 10.05 -18.55 9.75 -18.7 9.1 -19.05 8.7 -19.1 8.1 -19.35 7.65 -19.4 7.15 -19.55 6.9 -19.7 6.8 -19.9 6.8 -20.1 6.8 -20.25 6.9 -20.45 7.15 -20.65 7.65 -20.75 7.65 -20.8" fill="#333333" fill-rule="evenodd" stroke="none"/>
    <path d="M5.8 -29.2 L5.85 -29.0 5.95 -28.85 5.95 -28.45 5.95 -28.1 6.0 -27.7 6.05 -27.5 6.15 -27.35 6.25 -27.15 6.3 -26.95 6.3 -26.8 6.25 -26.6 6.05 -26.4 5.7 -26.25 5.3 -26.4 5.2 -26.6 5.15 -26.8 5.1 -26.95 5.0 -27.15 4.95 -27.35 Q4.85 -27.6 4.9 -27.9 L4.95 -28.45 4.95 -29.0 5.0 -29.2 5.05 -29.4 5.2 -29.5 5.25 -29.55 5.45 -29.6 5.55 -29.6 5.75 -29.4 5.8 -29.2" fill="#333333" fill-rule="evenodd" stroke="none"/>
    <path d="M6.9 -31.1 L6.95 -31.15 7.25 -31.0 7.5 -30.85 7.6 -30.65 7.75 -30.45 7.8 -30.25 7.85 -30.1 8.0 -29.9 8.05 -29.7 8.1 -29.5 8.25 -29.35 8.45 -29.15 8.6 -28.95 8.7 -28.8 8.8 -28.6 9.1 -28.2 9.3 -28.0 9.4 -27.85 9.5 -27.65 9.5 -27.45 9.55 -27.25 9.6 -27.1 9.55 -26.9 9.5 -26.8 9.4 -26.7 9.2 -26.65 8.85 -26.75 8.2 -27.55 7.45 -28.45 7.05 -29.0 7.0 -29.2 6.95 -29.4 6.85 -29.6 6.8 -29.75 6.7 -29.95 6.55 -30.15 6.45 -30.35 6.35 -30.5 6.4 -30.7 6.45 -30.9 6.55 -31.0 6.7 -31.05 6.9 -31.1" fill="#333333" fill-rule="evenodd" stroke="none"/>
    <path d="M5.45 31.85 L5.55 31.85 6.5 32.2 7.6 32.55 8.55 32.9 9.0 33.1 9.1 33.25 9.3 33.5 9.45 33.65 9.3 33.85 9.2 33.9 9.0 33.85 8.7 33.85 7.95 33.65 6.55 33.2 5.45 32.8 5.25 32.6 4.75 32.4 4.35 32.2 4.3 32.1 4.45 32.05 4.75 31.9 5.45 31.85" fill="#333333" fill-rule="evenodd" stroke="none"/>
    <path d="M7.95 30.5 L8.45 30.5 9.35 30.8 10.15 31.2 10.85 31.55 10.8 31.7 10.7 31.85 10.3 31.8 9.75 31.75 9.35 31.65 9.2 31.6 8.75 31.5 7.5 31.25 7.3 31.05 7.35 30.85 7.45 30.65 7.7 30.55 7.9 30.5 7.95 30.5" fill="#333333" fill-rule="evenodd" stroke="none"/>
    <path d="M8.2 28.8 L9.2 28.8 10.1 28.8 10.6 28.8 10.75 29.0 10.3 29.15 10.2 29.35 9.95 29.5 9.2 29.55 8.2 29.55 7.75 29.4 7.65 29.2 7.6 29.05 7.75 28.95 7.95 28.85 8.15 28.85 8.2 28.8" fill="#333333" fill-rule="evenodd" stroke="none"/>
    <path d="M2.6 26.3 Q3.15 26.0 3.7 25.8 L3.95 25.75 4.2 25.65 4.45 25.6 4.65 25.55 4.7 25.55 5.55 25.6 5.75 25.8 5.75 25.95 5.7 26.15 5.45 26.3 4.45 26.4 Q3.65 26.5 3.0 26.9 L2.5 27.0 2.2 27.05 1.95 27.1 1.55 27.1 1.45 26.9 1.55 26.75 1.95 26.6 2.3 26.5 2.6 26.3" fill="#333333" fill-rule="evenodd" stroke="none"/>
    <path d="M3.05 28.6 L3.2 28.55 3.5 28.5 3.8 28.4 4.05 28.3 4.2 28.15 4.25 28.15 4.4 28.1 4.45 28.05 5.3 28.1 5.5 28.3 5.5 28.45 5.45 28.65 5.2 28.8 4.25 28.7 3.8 28.65 3.5 28.7 3.05 28.65 3.05 28.6" fill="#333333" fill-rule="evenodd" stroke="none"/>
    <path d="M6.2 -11.3 L6.45 -11.1 6.55 -10.95 6.55 -10.8 6.5 -10.6 6.4 -10.5 5.55 -10.25 5.2 -10.15 4.5 -10.3 3.8 -10.45 3.8 -10.65 3.95 -10.8 4.5 -10.9 5.45 -11.2 5.65 -11.25 5.7 -11.3 6.2 -11.3" fill="#333333" fill-rule="evenodd" stroke="none"/>
    <path d="M3.05 -7.2 L3.25 -7.4 3.7 -7.55 4.05 -7.65 4.45 -7.8 5.45 -7.8 5.7 -7.6 5.8 -7.45 5.8 -7.3 5.75 -7.1 5.65 -7.0 5.45 -6.9 4.45 -6.9 4.2 -6.9 3.95 -6.85 3.7 -6.8 3.25 -6.8 2.8 -6.85 2.5 -6.8 2.05 -6.85 2.05 -6.9 2.2 -6.95 2.5 -7.05 2.8 -7.1 3.05 -7.2" fill="#333333" fill-rule="evenodd" stroke="none"/>
    <path d="M6.1 -3.55 L6.3 -3.35 6.4 -3.15 6.35 -2.95 6.3 -2.8 6.15 -2.7 Q6.05 -2.6 5.95 -2.6 L5.55 -2.75 5.15 -2.9 4.5 -3.1 4.4 -3.3 4.35 -3.45 4.5 -3.55 4.7 -3.65 5.1 -3.75 5.2 -3.8 5.4 -3.8 5.45 -3.85 5.8 -3.7 6.1 -3.55" fill="#333333" fill-rule="evenodd" stroke="none"/>
    <path d="M5.75 -14.9 L5.65 -14.75 5.45 -14.6 5.1 -14.7 4.95 -14.9 4.55 -15.25 4.2 -15.45 4.0 -15.65 3.9 -15.85 3.75 -16.05 3.65 -16.2 3.55 -16.4 3.5 -16.6 3.45 -16.8 3.35 -16.95 3.4 -17.15 3.45 -17.3 3.5 -17.3 3.7 -17.35 3.8 -17.35 4.0 -17.15 4.25 -16.75 4.45 -16.4 5.05 -16.0 5.5 -15.65 5.55 -15.45 5.6 -15.3 5.7 -15.1 5.75 -14.9" fill="#333333" fill-rule="evenodd" stroke="none"/>
    <path d="M6.45 -18.3 L6.75 -18.15 6.9 -17.95 7.05 -17.8 7.1 -17.6 7.1 -17.2 7.1 -16.85 7.1 -16.45 7.15 -16.3 7.25 -16.1 7.3 -15.9 7.25 -15.7 7.1 -15.55 7.0 -15.4 6.8 -15.3 6.75 -15.45 6.6 -15.65 6.35 -16.05 6.25 -16.2 6.25 -16.4 6.25 -16.6 6.25 -16.8 6.25 -16.95 6.15 -17.15 6.0 -17.3 6.0 -17.45 6.0 -17.65 6.0 -17.85 6.0 -18.05 6.1 -18.15 6.2 -18.2 6.4 -18.25 6.45 -18.3" fill="#333333" fill-rule="evenodd" stroke="none"/>
    <path d="M-3.5 22.75 L-3.4 22.9 -3.3 23.1 -3.3 23.3 -3.4 23.5 -3.45 23.6 -3.55 23.65 -3.85 23.75 -7.1 23.75 -7.45 23.6 -7.55 23.4 -7.65 23.25 -7.6 23.05 -7.55 22.85 -7.45 22.75 -7.3 22.7 -7.1 22.65 -7.1 22.6 -3.85 22.6 -3.5 22.75" fill="#333333" fill-rule="evenodd" stroke="none"/>
    <path d="M10.25 22.2 Q11.15 23.0 11.7 24.1 12.1 24.85 12.15 25.8 12.15 26.65 12.4 27.3 12.55 27.8 12.2 28.35 11.15 28.5 10.7 27.4 L10.7 26.65 10.55 25.75 9.95 24.05 Q9.0 23.65 8.9 22.75 L9.0 22.55 Q9.4 21.8 10.15 22.05 L10.25 22.2" fill="#333333" fill-rule="evenodd" stroke="none"/>
    <path d="M7.8 -24.1 Q9.25 -27.15 12.15 -27.8 L12.7 -27.45 Q13.1 -26.65 12.15 -26.4 9.95 -25.6 9.1 -23.1 8.6 -21.65 8.65 -20.25 8.65 -19.7 8.25 -19.35 L7.15 -19.75 Q6.85 -21.95 7.8 -24.1" fill="#333333" fill-rule="evenodd" stroke="none"/>
    <path d="M11.45 -30.7 L10.8 -31.65 10.1 -32.8 9.8 -33.35 9.65 -33.55 9.5 -33.7 9.5 -33.9 9.45 -34.1 9.3 -34.3 8.95 -34.35 8.95 -34.4 8.6 -34.3 8.5 -34.1 8.4 -33.9 8.35 -33.7 8.4 -33.55 8.45 -33.35 8.55 -33.15 8.55 -32.95 8.6 -32.8 8.75 -32.6 8.8 -32.4 8.95 -32.2 9.0 -32.05 9.05 -31.85 9.3 -31.45 9.7 -30.9 10.05 -30.35 10.1 -30.15 10.15 -29.95 10.2 -29.8 10.35 -29.4 10.65 -28.85 10.95 -28.45 10.95 -28.3 10.95 -28.1 11.0 -27.9 11.05 -27.7 11.2 -27.5 11.4 -27.15 11.55 -26.95 11.95 -26.85 12.35 -26.95 12.55 -27.15 12.7 -27.35 12.7 -27.55 12.7 -27.7 12.7 -27.9 12.65 -28.1 12.55 -28.3 12.45 -28.45 12.45 -28.65 12.45 -28.85 12.25 -29.2 11.9 -29.75 11.55 -30.35 11.5 -30.55 11.45 -30.7" fill="#333333" fill-rule="evenodd" stroke="none"/>
  </g>
</svg>
