<?xml version="1.0" encoding="UTF-8" standalone="no"?>
<svg xmlns:xlink="http://www.w3.org/1999/xlink" height="105.0px" width="105.55px" xmlns="http://www.w3.org/2000/svg">
  <g transform="matrix(1.0, 0.0, 0.0, 1.0, 52.8, 52.5)">
    <path d="M37.0 -32.95 Q67.8 11.2 24.4 39.45 0.0 55.35 -23.2 40.8 -28.95 37.2 -33.4 32.3 -63.85 6.9 -38.6 -24.9 -9.8 -63.5 34.0 -37.2 L37.0 -32.95 M-25.95 20.25 L-27.35 19.0 -26.05 22.0 -25.95 20.25" fill="#ffffff" fill-rule="evenodd" stroke="none"/>
    <path d="M15.3 -20.1 L17.0 -19.6 18.4 -18.8 18.95 -17.95 19.5 -17.1 19.8 -16.25 20.05 -15.45 20.35 -14.6 20.6 -13.75 20.85 -12.9 21.2 -11.25 21.45 -10.4 21.8 -9.6 22.3 -8.75 22.5 -7.9 22.55 -7.05 22.55 -6.2 22.9 -5.4 23.4 -4.55 23.95 -3.7 24.25 -2.85 24.55 -2.0 25.0 -0.35 25.45 1.3 26.2 3.85 26.75 5.5 26.75 6.35 26.75 7.2 26.75 8.85 26.75 10.55 26.75 13.05 26.75 15.55 26.5 16.4 26.2 17.25 25.9 18.1 25.35 18.9 24.8 19.75 24.25 20.6 23.7 21.45 23.1 22.25 21.45 23.95 21.4 24.8 21.2 25.65 20.85 26.45 20.4 27.35 20.0 28.1 19.5 29.0 18.95 29.8 18.4 30.65 18.1 31.5 17.8 32.35 17.55 33.15 17.0 34.0 16.45 34.85 15.3 35.7 13.35 36.5 11.1 37.35 10.0 38.15 8.6 39.0 7.5 39.6 Q-1.85 39.05 -11.0 40.6 -15.8 41.35 -20.5 40.1 L-25.45 39.05 -26.85 38.2 -27.7 37.35 -29.4 35.7 Q-30.7 34.55 -31.4 33.05 -32.35 31.15 -33.9 29.6 L-34.95 28.15 -35.2 27.3 -35.25 26.45 -35.25 25.65 -35.25 24.8 -35.25 23.1 -35.25 21.45 -35.25 19.75 Q-35.25 19.35 -35.4 19.0 L-36.1 18.1 Q-36.9 17.65 -37.75 17.25 L-38.55 16.35 -39.1 15.55 -39.5 14.75 -40.0 13.9 -40.25 13.05 -40.55 12.2 -40.85 11.4 -40.85 9.7 -40.85 6.35 -40.75 1.35 Q-40.6 -1.65 -39.7 -4.55 L-39.15 -6.2 -35.55 -11.25 Q-31.2 -17.15 -26.0 -22.4 -21.3 -27.15 -15.95 -31.05 L-14.85 -31.35 -13.75 -31.65 -12.6 -31.9 -10.65 -32.5 -9.0 -33.05 -8.15 -33.2 -6.5 -33.45 -6.5 -33.6 -3.1 -33.6 -0.9 -33.05 Q0.8 -32.2 2.5 -31.45 4.6 -30.55 6.15 -28.9 L9.35 -25.4 10.55 -23.8 10.85 -22.95 11.05 -22.1 11.25 -21.35 11.7 -20.75 11.7 -20.6 13.65 -20.4 15.3 -20.1" fill="#d1d0a5" fill-opacity="0.3019608" fill-rule="evenodd" stroke="none"/>
    <path d="M32.85 -28.0 L35.7 -26.35 39.0 -24.65 40.15 -22.95 41.15 -21.2 41.8 -19.6 42.25 -17.9 42.35 -16.25 42.35 -14.55 43.05 -12.95 44.05 -11.2 44.4 -9.5 44.6 -6.2 44.6 0.5 44.6 10.6 44.6 15.6 44.05 17.3 43.5 18.95 42.9 20.65 42.35 22.3 41.8 24.0 40.8 25.7 40.0 27.3 39.0 29.0 37.9 30.7 36.8 32.35 34.0 34.05 31.2 35.7 29.5 37.4 27.75 39.0 26.15 40.2 25.05 40.5 1.55 41.3 -2.9 40.2 -6.25 38.5 Q-7.95 37.7 -9.6 36.85 L-12.95 35.15 -14.55 33.4 -15.75 31.8 -16.75 30.1 -17.55 28.55 -19.5 25.05 -20.2 23.45 -20.6 21.75 -20.8 18.4 -20.8 13.35 -20.8 6.65 -20.8 3.3 -18.8 0.2 Q-16.2 -3.0 -14.2 -6.5 -10.85 -12.35 -5.75 -16.9 L-2.35 -20.15 0.45 -21.85 5.5 -23.4 10.5 -24.7 14.45 -25.75 16.1 -27.4 18.35 -28.55 21.65 -28.8 21.7 -29.1 28.4 -29.1 32.85 -28.0" fill="#d1d0a5" fill-opacity="0.3019608" fill-rule="evenodd" stroke="none"/>
    <path d="M24.8 -32.15 Q25.7 -29.75 25.35 -27.1 24.95 -23.65 25.3 -20.35 25.9 -13.7 26.1 -7.0 26.3 -0.2 25.35 6.4 L24.6 7.95 21.9 11.35 18.45 14.6 13.65 18.2 9.15 21.5 4.65 22.6 -6.45 22.15 -15.45 20.95 -18.8 19.25 -25.5 15.9 -32.2 12.45 -35.0 10.85 -36.6 9.15 -37.7 7.45 -38.5 5.9 -39.35 4.1 -40.05 2.5 -40.45 0.8 -40.6 -0.85 -40.6 -2.55 -40.6 -4.2 -40.6 -5.9 -40.6 -7.55 -40.6 -10.9 -40.35 -12.5 -39.6 -14.35 -38.8 -15.9 -37.9 -17.7 -37.15 -19.25 -36.4 -21.05 Q-36.15 -21.8 -36.15 -22.65 L-36.15 -24.35 -35.9 -25.9 -35.1 -27.75 -34.35 -29.3 -33.45 -31.1 Q-33.05 -31.9 -32.8 -32.7 L-31.1 -34.4 -29.4 -36.05 -27.75 -37.75 -24.4 -39.4 -22.15 -40.55 -21.0 -40.95 -17.7 -41.75 -13.8 -42.75 -12.1 -44.45 -9.85 -45.55 -6.55 -45.85 -6.5 -46.1 0.2 -46.1 4.65 -45.0 6.9 -43.9 11.35 -42.75 13.6 -41.65 18.1 -40.55 20.25 -38.8 21.9 -37.1 23.1 -35.5 24.1 -33.8 24.8 -32.15" fill="#d1d0a5" fill-opacity="0.3019608" fill-rule="evenodd" stroke="none"/>
    <path d="M-42.5 -15.4 L-42.1 -15.8 -41.7 -16.25 -40.95 -17.45 -39.9 -18.75 -39.6 -19.15 -39.3 -19.6 Q-38.6 -20.6 -37.5 -21.3 L-36.95 -21.7 -36.35 -22.5 -35.7 -23.35 -35.0 -24.2 -34.7 -24.6 -34.45 -25.05 -33.85 -25.9 -33.75 -26.3 -33.6 -26.7 -33.15 -27.1 -32.6 -27.55 -31.65 -27.85 -31.1 -27.85 -30.4 -27.95 -29.95 -28.25 -29.65 -28.35 -28.85 -28.45 -28.85 -28.55 -27.05 -27.8 -25.4 -26.95 -24.35 -26.3 -19.9 -25.65 -18.9 -25.45 -18.35 -25.05 -18.1 -24.6 -17.8 -24.2 -17.7 -23.8 -17.65 -23.35 -17.65 -22.95 -17.65 -22.1 -17.65 -21.25 -17.65 -20.85 -17.65 -20.45 -17.65 -20.0 -17.8 -19.6 -17.95 -19.15 -18.1 -18.75 -18.25 -18.35 -18.5 -17.5 -18.65 -17.1 -18.8 -16.65 -18.8 -16.25 -18.8 -15.8 -18.8 -15.4 -18.8 -15.0 -18.95 -14.55 -19.05 -14.15 -19.2 -13.7 -19.35 -13.3 -19.35 -12.9 -19.35 -12.45 -19.4 -12.05 -19.5 -11.65 -19.65 -11.2 -19.9 -10.8 -19.9 -10.35 -19.95 -9.95 -20.05 -9.55 -20.2 -9.15 -20.45 -8.7 -20.65 -8.3 -20.9 -7.85 -21.15 -7.45 -21.3 -7.0 -21.45 -6.6 -21.85 -6.2 -22.15 -5.9 -22.45 -5.8 -23.25 -5.6 -23.8 -5.5 -23.85 -5.05 -23.95 -4.65 -24.1 -4.25 -24.3 -3.85 -24.65 -3.4 -24.95 -3.1 -25.2 -3.0 -26.05 -2.85 -29.55 -2.55 -30.25 -2.1 -30.8 -1.7 -31.25 -1.3 -31.8 -0.85 -32.7 -0.35 -32.9 -0.05 -33.05 0.35 -33.35 0.8 -33.75 1.2 -34.15 1.5 -35.0 1.6 -37.8 1.65 -38.9 1.35 -39.45 0.9 -39.85 0.5 -40.15 0.1 -40.4 -0.35 -40.55 -0.75 -40.95 -1.15 -41.25 -1.55 -41.55 -2.0 -41.65 -2.4 -41.7 -2.85 -41.7 -3.25 -41.7 -4.1 -41.7 -4.9 -41.7 -5.35 -41.7 -5.75 -41.7 -6.2 -41.85 -6.6 -42.1 -7.0 -42.2 -7.45 -42.25 -7.85 -42.25 -8.3 -42.25 -8.7 -42.25 -9.1 -42.25 -9.55 -42.1 -9.95 -41.85 -10.35 -41.75 -10.8 -41.7 -11.2 -41.7 -11.65 -41.8 -11.95 -42.4 -12.45 -42.75 -12.9 -42.95 -13.3 -43.05 -13.75 -43.1 -14.15 -43.1 -14.55 -42.8 -15.0 -42.5 -15.4" fill="#d1d0a5" fill-rule="evenodd" stroke="none"/>
    <path d="M-28.15 35.15 L-26.9 36.4 -26.05 37.3 -24.8 38.35 -24.4 38.5 -23.65 38.8 -23.4 39.2 -23.3 39.65 -23.3 40.05 -23.3 40.5 -23.25 40.9 -23.4 41.3 -23.65 41.75 -23.95 42.15 -24.4 42.55 -24.95 43.0 -25.35 43.25 -26.05 43.35 -26.6 43.4 -27.6 43.1 -28.15 42.7 -28.55 42.25 -28.85 41.9 -29.25 41.45 -29.55 41.25 -30.5 41.0 -31.5 40.75 -32.05 40.35 -32.35 39.9 -32.6 39.5 -34.15 38.25 -35.4 37.0 -36.25 36.15 -37.35 34.9 -37.5 34.45 -37.65 34.05 -37.95 33.65 -38.35 33.2 -38.75 32.8 -39.2 32.35 -39.9 31.95 -40.55 31.55 -41.0 31.1 -41.4 30.7 -41.65 30.25 -41.85 29.85 -41.85 29.45 -41.75 29.05 -41.55 28.6 -41.1 28.2 -40.7 27.9 -40.05 27.85 -40.0 27.75 -39.45 27.75 -38.6 28.05 -38.05 28.45 -37.35 28.9 -36.65 29.3 -36.25 29.7 -35.85 30.15 -34.7 30.6 -33.85 30.95 -32.45 32.2 -30.95 33.05 -29.4 33.9 -28.15 35.15" fill="#d1d0a5" fill-rule="evenodd" stroke="none"/>
    <path d="M22.15 9.45 L22.7 9.9 23.1 10.3 23.4 10.75 23.8 11.55 23.95 12.0 24.1 12.4 24.3 12.6 24.8 12.8 25.75 13.1 26.35 13.5 26.6 13.95 26.9 14.35 27.0 15.2 27.05 16.85 27.05 18.55 27.05 19.4 26.9 19.8 26.75 20.2 26.6 20.65 26.35 21.05 26.2 21.45 26.05 21.9 24.95 23.55 23.55 25.7 22.0 27.75 21.85 28.15 21.6 28.6 21.3 29.0 20.9 29.45 20.7 29.85 20.45 30.25 20.05 30.7 19.35 31.15 18.8 31.55 17.95 32.35 17.55 32.8 16.8 33.2 16.0 33.65 15.55 33.9 5.8 34.05 2.45 33.45 1.35 33.2 0.5 32.75 0.05 32.5 -0.35 32.4 -1.45 32.1 -2.0 31.65 -2.3 31.25 -2.45 30.85 -2.55 30.4 -2.6 30.0 -2.6 29.6 -2.4 29.15 -2.15 28.75 -1.75 28.3 -1.05 27.9 -1.1 27.5 -1.35 27.05 -1.45 26.65 -1.45 26.2 -1.45 25.8 -1.65 25.4 -1.9 24.95 -2.0 24.55 -2.15 24.15 -2.3 23.7 -2.45 23.3 -2.6 22.85 -2.6 22.45 -2.55 22.05 -2.45 21.6 -2.55 21.2 -2.6 20.8 -2.6 19.95 -2.6 18.25 -2.6 17.85 -2.4 17.45 -2.15 17.0 -1.75 16.6 -1.2 16.3 -0.5 16.05 -0.5 15.6 -0.5 15.2 -0.5 14.35 -0.5 13.1 Q-0.4 12.1 0.3 11.25 L2.45 8.9 4.1 7.35 4.4 7.25 5.5 6.95 6.1 6.65 Q10.1 5.6 14.3 5.7 L15.55 5.25 16.4 5.0 16.85 4.85 17.5 4.8 17.55 4.7 18.1 4.7 19.05 5.0 19.45 5.45 19.75 5.85 19.9 6.25 20.05 6.65 20.05 6.95 20.05 7.05 20.9 7.35 21.45 7.8 21.7 8.2 21.9 8.6 22.1 9.05 22.15 9.45" fill="#d1d0a5" fill-rule="evenodd" stroke="none"/>
    <path d="M28.45 -37.2 L28.85 -36.8 30.75 -35.45 32.05 -34.25 32.2 -33.85 32.35 -33.4 32.6 -33.0 32.85 -32.55 33.05 -32.15 33.05 -31.75 33.0 -31.35 32.9 -30.9 32.75 -30.5 32.55 -30.1 32.2 -29.65 31.8 -29.25 31.8 -28.8 31.9 -28.4 32.05 -27.95 32.05 -27.55 32.05 -27.15 32.05 -26.7 32.05 -26.3 32.05 -25.9 32.05 -25.45 31.9 -25.05 31.65 -24.6 31.35 -24.2 30.8 -23.8 29.8 -23.5 27.6 -22.95 22.0 -22.95 20.9 -23.2 18.65 -23.8 18.1 -24.2 17.8 -24.6 17.65 -25.05 17.55 -25.45 17.55 -25.9 17.35 -26.25 17.0 -26.75 16.7 -27.15 16.6 -27.55 16.55 -28.4 16.55 -29.25 16.55 -30.05 16.55 -30.9 16.45 -31.25 16.15 -31.6 15.55 -31.75 15.0 -31.9 14.2 -32.15 13.65 -32.6 13.2 -33.0 12.65 -33.4 11.95 -33.7 10.95 -34.0 10.4 -34.4 10.0 -34.8 9.85 -35.25 9.7 -35.65 9.15 -35.95 8.75 -36.0 Q6.7 -36.05 5.2 -37.4 L3.15 -39.0 2.9 -39.45 2.7 -39.85 2.7 -40.25 2.75 -40.7 2.85 -41.1 3.15 -41.5 3.7 -41.95 4.65 -42.15 4.7 -42.2 14.3 -41.75 18.25 -41.1 Q22.75 -40.0 26.85 -38.0 L28.45 -37.2" fill="#d1d0a5" fill-rule="evenodd" stroke="none"/>
    <path d="M3.5 24.05 L4.2 24.6 4.5 25.15 4.75 25.65 4.85 26.15 4.9 26.7 4.9 27.2 4.9 27.75 4.9 28.8 4.7 29.3 4.4 29.85 4.05 30.35 3.0 30.9 2.3 31.4 1.8 31.95 1.4 32.45 1.4 32.95 1.4 33.5 1.4 34.0 1.45 35.05 1.25 36.65 1.35 37.15 1.4 37.7 1.4 38.05 1.75 38.15 3.0 38.45 4.2 38.75 4.9 39.3 5.25 39.6 5.8 39.8 7.0 40.15 7.7 40.7 8.25 41.15 8.75 41.55 9.45 41.55 9.8 41.4 11.0 40.95 Q14.8 39.5 19.05 40.5 L20.25 40.85 20.95 41.4 21.45 41.9 21.85 42.4 22.2 42.95 22.3 43.45 22.35 43.95 22.35 44.5 22.35 45.0 22.35 45.55 22.15 46.05 21.85 46.6 21.5 47.1 20.95 47.45 20.6 47.6 19.75 47.8 18.55 47.45 17.65 46.95 17.15 46.4 16.95 46.05 16.95 46.0 13.3 46.05 11.55 46.65 10.85 46.95 9.45 47.3 8.9 47.8 8.4 48.15 8.05 48.3 7.2 48.45 -4.7 48.5 -14.45 47.0 Q-19.5 45.95 -23.75 43.1 L-24.25 42.6 -24.75 42.05 -25.3 41.55 -25.8 41.0 -26.35 40.5 -27.2 39.95 -28.1 39.45 -28.6 38.9 -29.15 38.4 -29.65 37.85 -30.75 36.85 -31.25 36.45 -32.45 36.1 -33.15 35.6 -33.45 35.05 -33.7 34.55 -33.7 34.0 -33.65 33.5 -33.5 32.95 -33.15 32.45 -32.45 31.95 -30.9 31.4 -30.0 31.1 -25.8 29.65 -23.4 28.8 -22.7 28.25 -22.0 27.75 -20.75 27.5 -16.4 27.05 -15.35 26.5 -14.65 26.15 -13.75 26.05 -12.4 26.0 -11.15 26.35 -10.65 26.9 -10.3 27.4 -10.05 27.9 -9.75 28.45 -9.05 28.45 -8.55 27.9 -8.2 27.35 -7.6 26.4 Q-6.5 24.95 -4.9 24.25 L-4.15 23.9 -3.3 23.8 -3.3 23.7 -1.9 23.7 2.3 23.7 3.5 24.05" fill="#663300" fill-opacity="0.2" fill-rule="evenodd" stroke="none"/>
    <path d="M1.6 17.3 L5.1 17.45 6.3 17.85 7.35 18.3 8.6 18.8 9.8 19.2 10.5 19.75 11.0 20.25 11.35 20.75 11.7 21.3 11.9 21.8 11.85 22.3 11.7 22.85 11.55 23.35 11.2 23.9 10.5 24.4 9.3 24.8 8.55 25.1 8.55 25.65 8.55 26.15 8.55 27.2 8.55 27.75 8.55 28.25 8.55 28.8 8.55 29.85 8.55 30.35 8.65 30.85 8.9 31.4 9.1 31.95 9.25 32.45 9.8 32.95 10.5 33.5 10.85 34.0 11.15 34.55 11.35 35.05 11.35 35.6 11.3 36.1 11.2 36.65 11.0 37.15 10.8 37.65 10.3 38.2 9.95 38.55 9.6 38.65 3.15 39.1 2.3 39.6 2.3 40.15 2.3 40.65 2.3 41.2 2.3 41.7 2.1 42.25 1.95 42.75 1.7 43.25 1.25 43.8 0.9 44.15 0.55 44.3 -0.5 44.5 -3.3 45.0 -8.2 45.0 -9.4 44.65 -10.1 44.15 -10.85 43.65 -11.85 43.1 -12.4 42.6 -13.25 42.05 -14.1 41.55 -14.6 40.95 -14.8 40.5 -14.95 39.95 -15.0 39.45 -15.0 38.9 -15.2 38.4 -15.5 37.85 -15.85 37.35 -16.2 36.8 -16.5 36.4 -16.55 36.45 -16.95 36.6 -17.95 36.8 -19.35 36.45 -20.05 35.95 -20.35 35.4 -20.6 34.9 -20.7 34.35 -20.75 33.85 -20.75 32.8 -20.75 32.3 -20.75 31.75 -20.7 31.25 -20.6 30.7 -20.6 30.25 -21.1 29.65 -21.55 29.1 -21.8 28.6 -21.95 28.1 -22.0 27.55 -22.0 27.05 -21.75 26.55 -21.25 26.0 -20.6 25.45 -19.35 24.95 -19.15 24.45 -18.85 23.9 -18.5 23.35 -18.3 22.85 -17.95 22.3 -17.25 21.8 -15.85 21.5 -12.9 21.1 -12.55 20.6 -12.15 20.1 -11.15 19.0 -10.65 18.5 -9.95 18.15 -8.9 17.9 -7.85 17.6 -7.45 17.1 -6.95 16.55 -6.25 16.2 -5.4 16.15 -5.4 16.05 -1.9 16.05 -0.7 16.4 0.0 16.9 0.4 17.15 1.6 17.3" fill="#663300" fill-opacity="0.2" fill-rule="evenodd" stroke="none"/>
    <path d="M-13.75 0.3 L-12.75 0.65 -12.05 1.2 -11.7 1.55 -11.65 1.65 -10.65 2.05 -9.95 2.6 -9.6 3.1 -9.45 3.65 -9.4 4.15 -9.4 4.7 -9.4 5.2 -9.25 5.75 -9.05 6.25 -8.9 6.8 -8.9 7.3 -8.9 7.85 -8.9 8.35 -9.05 9.4 -9.25 9.9 -9.6 10.45 Q-10.5 11.5 -11.85 12.0 L-12.4 12.5 -12.9 12.9 -13.8 13.05 -14.45 13.0 -17.1 12.55 -17.45 12.0 -17.8 11.5 -17.8 10.95 -17.8 10.45 -17.75 9.95 -17.6 9.4 -17.8 8.9 -17.95 8.35 -17.85 7.9 -17.55 7.25 -17.45 6.8 -17.4 6.25 -17.25 5.75 -16.9 5.2 -16.8 4.7 -16.7 4.15 -16.65 3.65 -16.55 2.6 -16.35 2.1 -16.1 1.55 -15.8 1.05 -15.5 0.65 -15.15 0.55 -14.5 0.4 -14.45 0.3 -13.75 0.3" fill="#663300" fill-opacity="0.2" fill-rule="evenodd" stroke="none"/>
    <path d="M23.25 -37.55 L27.45 -37.55 28.65 -37.2 29.15 -36.65 29.5 -36.15 29.7 -35.65 29.95 -35.35 Q31.1 -34.95 32.3 -34.7 L33.55 -34.4 34.05 -33.85 34.4 -33.35 34.6 -32.85 34.7 -32.3 34.6 -31.8 34.4 -31.3 34.15 -30.75 34.05 -30.25 34.1 -29.7 34.35 -29.25 35.1 -28.65 35.65 -28.15 36.5 -27.65 37.55 -27.1 37.95 -26.6 38.4 -26.0 38.8 -25.5 38.9 -25.0 38.95 -24.45 38.95 -23.95 38.95 -23.4 38.95 -22.9 39.1 -22.5 39.85 -21.85 40.3 -21.3 40.65 -20.8 40.85 -20.3 41.0 -19.75 41.05 -19.25 41.05 -18.7 41.05 -18.2 41.05 -17.15 41.0 -16.1 40.85 -15.55 40.65 -15.05 40.35 -14.5 39.85 -14.15 39.45 -14.05 38.6 -13.8 37.9 -13.45 38.25 -12.95 38.55 -12.4 38.8 -11.9 38.9 -11.35 38.95 -10.85 38.95 -10.35 38.95 -9.8 38.9 -9.3 38.8 -8.75 38.55 -8.25 38.25 -7.7 38.15 -7.2 38.2 -6.65 38.25 -6.15 38.25 -5.6 38.25 -4.55 38.2 -3.5 38.1 -3.0 37.85 -2.5 37.6 -1.95 37.35 -1.45 37.0 -0.95 36.0 0.0 35.1 0.1 33.0 0.15 31.8 -0.2 31.1 -0.7 30.75 -1.25 30.4 -1.75 29.0 -2.3 28.1 -2.6 26.9 -3.0 26.25 -3.55 25.7 -4.05 25.35 -4.55 25.0 -5.1 25.0 -6.15 25.0 -6.65 25.0 -7.7 25.0 -9.3 25.05 -9.8 25.15 -10.35 25.35 -10.85 25.7 -11.35 22.05 -12.15 21.15 -12.4 19.9 -12.75 19.2 -13.3 18.85 -13.8 18.75 -14.35 18.7 -14.85 18.7 -15.4 18.7 -15.9 18.7 -16.95 18.7 -17.3 18.35 -17.35 17.15 -17.65 16.45 -18.2 16.1 -18.7 15.95 -19.25 15.9 -19.75 15.9 -20.3 15.7 -20.8 15.4 -21.35 15.25 -21.85 15.2 -22.35 15.2 -22.9 15.2 -23.4 15.2 -24.45 15.2 -25.5 15.3 -26.0 15.55 -26.55 15.95 -27.05 16.45 -27.55 18.0 -28.65 18.0 -29.2 18.0 -29.7 18.0 -30.25 18.0 -31.3 18.0 -32.85 18.0 -33.35 18.0 -33.9 18.1 -34.4 18.3 -34.95 18.55 -35.45 18.85 -36.0 19.05 -36.5 19.55 -37.05 20.25 -37.4 21.15 -37.45 21.15 -37.55 23.25 -37.55" fill="#663300" fill-opacity="0.2" fill-rule="evenodd" stroke="none"/>
    <path d="M19.2 -7.9 L20.45 -8.25 21.65 -8.6 21.65 -9.1 21.65 -9.65 21.65 -10.65 21.65 -12.25 21.65 -12.75 21.9 -13.3 22.15 -13.85 22.35 -14.35 22.45 -14.85 22.35 -15.4 22.2 -15.9 22.2 -16.45 22.2 -16.95 22.2 -17.5 22.4 -18.0 22.75 -18.5 23.25 -19.05 24.3 -20.1 25.15 -20.65 26.05 -21.15 26.55 -21.65 27.25 -22.0 28.45 -22.4 29.35 -22.7 30.2 -22.8 30.2 -22.9 31.6 -22.9 32.85 -22.55 33.35 -22.0 33.7 -21.5 33.9 -21.0 34.0 -20.45 33.9 -19.95 33.7 -19.4 33.35 -18.9 33.0 -18.35 33.35 -17.85 33.7 -17.3 33.9 -16.8 34.0 -16.25 33.9 -15.75 33.7 -15.2 33.35 -14.7 33.6 -14.2 34.05 -13.6 34.4 -13.1 34.6 -12.6 34.7 -12.05 34.75 -11.55 34.75 -11.0 34.75 -10.0 34.75 -9.45 34.85 -8.95 35.15 -8.45 36.2 -7.4 36.85 -6.85 37.15 -6.3 37.4 -5.8 37.5 -5.25 37.55 -4.75 37.55 -4.2 37.5 -3.7 37.4 -3.15 37.15 -2.65 36.85 -2.15 36.35 -1.6 35.1 -1.05 34.1 -0.55 33.55 -0.2 33.2 -0.05 32.3 0.1 31.6 0.15 30.2 -0.2 29.25 0.75 27.3 2.85 25.15 4.7 24.8 4.85 23.95 5.0 22.55 5.05 21.3 4.7 20.6 4.15 20.3 3.65 19.65 2.7 18.45 1.0 18.0 0.0 18.0 -0.55 17.9 -1.05 17.7 -1.6 17.5 -2.1 17.35 -2.65 17.3 -3.15 17.3 -3.7 17.3 -4.75 17.3 -5.25 17.4 -5.75 17.65 -6.3 18.05 -6.8 19.2 -7.9" fill="#663300" fill-opacity="0.2" fill-rule="evenodd" stroke="none"/>
    <path d="M-3.85 -47.5 L-3.5 -46.95 -3.3 -46.45 -3.4 -45.95 -3.6 -45.4 -3.8 -44.9 -4.35 -44.4 -5.05 -43.9 -6.1 -43.3 -6.6 -42.8 -7.65 -41.7 Q-8.4 -40.85 -9.55 -40.45 L-10.1 -40.2 -11.0 -40.0 -13.1 -40.2 -14.3 -40.0 -14.65 -39.7 -15.0 -39.5 -15.85 -39.3 -17.45 -38.95 -17.8 -38.45 -18.15 -37.9 -18.85 -37.4 -19.7 -36.85 -20.4 -36.35 -21.45 -36.0 -24.25 -36.0 -25.45 -36.4 -25.85 -36.6 -26.85 -37.05 -27.2 -37.55 -27.55 -38.1 -27.55 -38.6 -27.55 -39.15 -27.55 -39.65 -27.55 -40.2 -27.55 -40.7 -27.5 -41.2 -27.2 -41.75 -26.85 -42.3 -25.65 -42.6 -23.55 -42.95 -23.05 -43.5 -22.7 -43.85 -22.35 -44.0 -21.45 -44.4 -20.95 -44.7 -20.05 -44.95 -17.95 -45.5 -16.2 -45.75 -16.05 -45.9 -15.15 -46.1 -14.5 -46.1 -13.45 -45.95 -12.75 -46.1 -12.2 -46.65 -11.15 -47.15 -9.9 -47.65 -8.35 -48.2 -7.5 -48.3 -7.5 -48.4 -5.4 -48.4 -4.35 -48.05 -3.85 -47.5" fill="#663300" fill-opacity="0.2" fill-rule="evenodd" stroke="none"/>
    <path d="M-18.85 -33.2 L-18.65 -33.3 -18.0 -33.45 -17.95 -33.55 -16.55 -33.55 -15.7 -33.2 -15.5 -32.7 -15.2 -32.15 -15.0 -31.65 -15.05 -31.1 -15.15 -30.6 -15.35 -30.05 -15.5 -29.7 -15.85 -29.55 -16.75 -29.15 -17.25 -28.85 -17.95 -28.65 -18.65 -28.65 -19.35 -28.85 -20.25 -29.2 -20.75 -29.7 -20.75 -30.25 -20.75 -30.75 -20.75 -31.3 -20.5 -31.75 -20.05 -32.3 -19.35 -32.85 -18.85 -33.2" fill="#663300" fill-opacity="0.2" fill-rule="evenodd" stroke="none"/>
    <path d="M-31.4 28.35 L-30.65 28.9 -18.8 37.75 -17.15 43.2 -18.1 44.45 -19.25 44.9 Q-20.9 44.85 -22.3 43.8 L-22.4 40.0 -39.9 27.15 -38.35 26.3 -36.0 26.75 Q-34.1 26.9 -32.3 27.9 -31.85 28.05 -31.4 28.35 M-25.05 -5.1 L-24.5 -8.25 Q-23.05 -16.0 -20.15 -23.2 L-32.1 -27.15 Q-36.35 -21.25 -39.9 -14.95 -41.35 -12.25 -40.9 -9.2 -39.65 -4.4 -37.2 0.2 L-25.05 -5.1 M-45.55 -12.35 Q-43.95 -15.9 -41.6 -18.95 -38.45 -23.05 -34.8 -26.95 L-31.65 -30.25 -30.95 -29.95 -30.5 -29.15 -21.9 -27.05 Q-20.75 -26.75 -19.7 -25.95 L-19.45 -25.75 -17.65 -26.05 -16.25 -24.5 Q-19.4 -17.3 -20.65 -9.3 L-21.7 -2.6 -37.5 4.0 -39.3 3.7 Q-40.8 1.8 -41.8 -0.3 -44.3 -5.55 -46.3 -11.0 L-45.55 -12.35 M26.6 17.35 Q24.9 13.9 22.7 10.75 20.1 7.0 15.7 5.85 L-1.7 13.2 -1.8 16.9 -1.7 20.7 Q-1.1 26.4 0.75 31.8 L3.0 32.2 Q10.65 33.3 18.35 32.0 20.55 29.6 22.2 27.05 25.15 22.6 26.6 17.35 M24.6 6.75 L27.7 10.6 31.0 15.75 32.15 18.6 Q26.95 27.15 21.05 35.35 20.4 36.25 19.25 36.45 L16.55 36.5 3.2 35.45 -1.3 34.6 Q-3.2 34.15 -4.55 33.0 L-5.4 25.2 Q-5.65 22.85 -5.5 20.5 L-5.2 18.25 Q-4.75 16.15 -4.7 13.7 L-4.8 12.6 Q-5.0 11.05 -4.1 9.7 L1.0 8.25 6.0 6.5 Q12.75 3.95 19.2 0.75 L24.6 6.75 M45.75 -12.25 L46.5 -12.3 Q48.95 -12.45 49.3 -10.05 L48.05 -10.05 48.25 9.55 46.7 11.25 45.9 16.55 43.95 16.55 Q42.1 12.35 43.65 8.15 45.2 4.0 44.6 -0.5 44.35 -2.4 43.75 -4.15 42.7 -7.2 43.95 -10.3 L45.25 -11.0 45.75 -12.25 M27.55 -32.45 Q27.0 -34.15 25.4 -35.35 L22.25 -37.1 Q14.55 -40.8 5.95 -42.45 L3.65 -35.9 9.25 -33.25 Q11.95 -32.0 14.4 -30.25 L18.5 -26.85 Q20.0 -25.3 22.0 -24.4 L30.9 -26.85 Q28.6 -29.4 27.55 -32.45 M26.2 -39.45 L28.0 -37.7 Q30.65 -34.9 31.9 -31.5 L32.05 -31.2 32.25 -30.8 33.35 -28.5 35.25 -24.8 Q33.4 -24.15 31.55 -23.65 26.15 -21.8 20.5 -21.05 L18.75 -21.5 18.7 -22.15 17.3 -23.8 15.85 -25.4 14.3 -26.8 Q11.85 -28.95 8.95 -30.25 4.35 -32.2 -0.5 -33.3 L-0.75 -35.0 4.1 -44.65 10.95 -44.0 17.6 -42.4 26.2 -39.45" fill="#333333" fill-rule="evenodd" stroke="none"/>
    <path d="M20.2 -47.45 Q25.35 -47.6 36.3 -36.95 52.25 -21.45 52.75 0.5 52.95 12.05 46.1 24.35 43.85 30.8 33.25 41.35 22.65 51.85 0.55 52.5 -21.6 53.1 -37.2 37.8 -38.4 36.6 -43.6 26.65 -52.8 20.75 -52.8 0.5 -52.8 -21.45 -37.25 -36.95 L-34.35 -39.7 Q-19.2 -52.5 -0.7 -52.5 5.95 -52.5 20.2 -47.45 M26.55 -39.5 Q22.45 -41.3 20.2 -43.4 10.15 -46.8 -2.45 -47.1 -19.35 -47.5 -33.0 -33.75 -47.4 -19.35 -47.35 0.3 -47.3 19.95 -33.35 33.75 -19.45 47.5 -0.05 47.55 19.35 47.6 33.85 32.7 48.3 17.75 47.75 -0.6 47.2 -18.95 33.45 -32.7 L30.2 -35.75 Q27.05 -38.2 26.55 -39.5" fill="#333333" fill-rule="evenodd" stroke="none"/>
    <path d="M-41.7 -12.2 L-41.5 -13.45 -36.55 -16.6 -36.9 -17.2 -36.85 -17.6 Q-35.85 -19.85 -33.6 -20.35 L-34.3 -20.7 -34.4 -21.95 -31.65 -23.45 -31.1 -24.2 -30.45 -24.4 Q-27.15 -25.5 -23.7 -25.55 L-23.4 -24.7 -28.25 -23.0 -19.1 -25.25 -18.2 -24.25 -18.3 -24.05 Q-18.4 -23.6 -18.9 -23.45 -23.5 -22.35 -28.1 -20.4 -23.5 -21.45 -19.15 -23.3 -17.9 -23.8 -16.9 -23.1 L-16.65 -22.25 -17.0 -21.6 Q-20.85 -20.05 -24.85 -18.85 -31.35 -16.9 -36.05 -14.2 L-18.9 -19.4 -18.25 -18.55 -18.55 -17.7 Q-19.95 -16.65 -22.0 -16.15 -26.35 -14.95 -30.3 -13.15 L-33.75 -11.05 -19.1 -15.4 -18.3 -15.05 -17.95 -14.4 -18.25 -13.6 -29.65 -8.9 -27.5 -9.45 -22.7 -10.65 Q-20.95 -11.0 -20.5 -9.65 L-20.6 -9.05 -29.85 -4.35 -28.3 -4.65 -27.55 -4.3 -27.35 -3.25 Q-28.45 -2.05 -29.95 -1.8 L-33.7 -0.8 -38.35 -0.65 -38.65 -1.7 Q-36.15 -4.05 -32.9 -5.45 L-37.4 -5.6 -37.45 -6.9 -35.9 -8.35 -38.1 -8.75 -38.25 -9.2 -38.25 -10.25 Q-38.1 -11.05 -37.45 -11.5 -39.75 -10.8 -41.6 -11.75 L-41.7 -12.2" fill="#333333" fill-rule="evenodd" stroke="none"/>
    <path d="M21.35 -38.85 L21.7 -38.45 21.35 -37.2 13.05 -34.9 18.4 -35.7 25.9 -37.0 26.6 -36.6 26.75 -35.6 16.1 -32.3 22.8 -33.3 27.75 -33.85 28.25 -33.0 27.75 -32.15 18.4 -29.5 25.45 -30.75 Q27.4 -31.1 28.75 -30.25 L28.9 -29.25 28.5 -29.0 21.65 -27.05 27.0 -27.55 Q27.65 -27.5 27.85 -27.0 L27.7 -25.95 27.45 -25.9 Q26.15 -25.35 24.8 -25.05 L23.65 -24.85 Q23.15 -24.85 22.95 -25.25 19.5 -24.2 16.2 -25.3 L16.05 -25.5 16.0 -25.75 15.95 -25.95 15.95 -26.15 15.95 -26.35 16.0 -26.55 16.45 -27.15 13.05 -27.25 12.25 -27.6 12.4 -29.3 14.15 -30.15 11.15 -30.65 11.2 -32.3 Q8.6 -31.65 6.1 -32.35 L6.05 -34.05 3.7 -34.7 3.45 -35.3 3.8 -36.35 3.25 -37.2 Q3.7 -38.25 4.85 -39.1 L5.65 -39.7 6.15 -40.15 Q7.0 -40.9 8.0 -41.4 L8.7 -40.9 8.7 -40.7 8.65 -40.5 8.6 -40.3 8.5 -40.0 8.3 -39.85 Q7.55 -38.9 6.55 -38.45 L13.9 -40.6 14.8 -39.85 14.45 -39.0 8.3 -36.5 11.1 -36.9 Q13.4 -37.4 15.6 -38.2 18.4 -39.25 21.35 -38.85" fill="#333333" fill-rule="evenodd" stroke="none"/>
    <path d="M24.5 7.85 L25.25 8.2 25.45 9.25 11.9 16.15 17.55 14.4 22.45 12.45 Q25.35 11.05 28.35 11.05 L28.95 12.1 28.85 12.25 26.0 14.1 Q21.5 16.5 16.6 18.55 L17.15 18.45 25.55 15.4 Q28.2 14.45 31.15 14.4 L31.75 15.45 31.65 15.65 29.95 16.7 Q20.8 21.4 11.0 24.9 18.15 22.95 25.1 20.45 26.9 19.8 28.35 20.45 L28.7 21.05 Q28.6 21.9 27.95 22.1 18.3 26.05 9.05 30.5 L9.55 30.4 18.7 27.55 Q22.2 26.3 25.6 25.75 L26.4 26.1 26.75 26.7 26.45 27.55 Q23.7 29.1 20.7 30.15 L18.95 30.05 10.15 32.3 6.9 32.75 6.0 32.6 5.5 31.75 Q5.35 30.65 6.2 29.85 L7.2 29.0 8.3 28.2 4.6 29.2 Q2.3 30.05 -0.1 29.25 L-0.3 27.75 -0.15 27.55 Q1.7 25.9 4.25 25.05 0.2 26.05 -3.55 27.3 -4.85 27.8 -5.95 27.0 L-6.2 25.95 -6.15 25.75 -5.8 25.3 -4.75 24.85 -2.6 23.8 -4.55 23.65 -4.85 22.4 -4.05 21.55 -1.4 19.85 -1.2 19.65 -1.5 19.65 -4.0 19.8 -4.75 19.65 -4.95 19.4 -5.05 18.8 -1.75 16.6 -3.15 16.55 -3.6 16.35 -4.0 15.95 Q-4.15 15.45 -3.9 15.1 -1.85 12.35 1.25 11.5 L12.7 8.0 Q14.25 7.5 15.35 6.3 L16.45 6.55 16.4 7.6 16.05 7.95 Q12.4 9.95 8.55 11.35 L4.8 12.75 Q12.1 10.6 19.15 7.55 19.85 7.2 20.45 7.7 L20.6 8.75 18.15 10.25 24.5 7.85" fill="#333333" fill-rule="evenodd" stroke="none"/>
    <path d="M-28.85 30.7 L-28.45 30.85 -27.95 31.9 -31.3 34.4 Q-28.2 34.4 -25.45 33.25 -23.85 32.55 -23.2 33.9 -23.3 34.8 -23.9 35.15 L-29.4 37.7 -28.15 37.75 -23.05 36.5 Q-21.95 36.25 -21.55 37.2 L-22.0 38.45 -25.6 39.7 -20.35 39.85 Q-19.95 40.45 -20.35 41.25 -21.15 42.95 -23.3 43.4 L-24.2 42.85 -24.2 42.0 -24.05 41.8 -23.9 41.6 -24.0 41.5 Q-27.0 42.35 -29.9 41.4 L-30.0 39.9 -33.25 39.4 -33.5 38.6 -33.1 37.6 Q-32.45 36.85 -31.45 36.5 L-33.75 36.0 -34.25 34.95 -32.8 33.05 -36.25 32.85 -36.2 31.2 -33.6 29.9 -32.9 30.05 -32.65 30.9 -32.75 31.05 -28.85 30.7" fill="#333333" fill-rule="evenodd" stroke="none"/>
    <path d="M-7.35 37.0 L-7.45 37.1 -8.7 37.8 Q-13.7 40.35 -19.3 39.45 -20.3 39.15 -20.15 38.25 L-7.9 36.2 -7.35 37.0" fill="#333333" fill-rule="evenodd" stroke="none"/>
    <path d="M19.75 40.45 L20.3 39.3 Q21.25 39.1 21.55 40.0 L20.95 41.9 Q20.2 43.35 19.85 44.8 19.3 46.85 18.15 48.55 L17.5 48.75 Q16.7 49.3 16.9 48.65 L19.75 40.45" fill="#333333" fill-rule="evenodd" stroke="none"/>
    <path d="M7.45 -34.65 L1.15 -33.7 Q-5.15 -32.6 -10.8 -29.85 L-11.25 -29.5 -11.9 -29.85 Q-9.85 -32.35 -6.3 -33.35 L-1.4 -34.95 Q3.1 -36.4 8.0 -36.2 L11.1 -36.05 11.55 -35.7 14.3 -35.35 11.55 -35.15 11.1 -34.8 7.45 -34.65" fill="#333333" fill-rule="evenodd" stroke="none"/>
    <path d="M-22.7 -4.1 L-22.8 -4.85 -21.95 -4.85 Q-19.75 -3.85 -17.7 -2.3 -16.75 -1.6 -15.6 -1.0 -14.4 -0.45 -14.25 0.4 L-14.8 0.45 -16.75 -0.5 -22.7 -4.1" fill="#333333" fill-rule="evenodd" stroke="none"/>
    <path d="M20.1 -22.6 L20.35 -23.0 20.85 -23.15 21.5 -22.8 22.0 -18.55 Q22.4 -16.05 22.05 -13.6 L21.7 -13.15 21.55 -10.45 21.35 -10.65 Q21.1 -11.85 21.1 -13.15 L20.65 -13.8 20.1 -22.6" fill="#333333" fill-rule="evenodd" stroke="none"/>
    <path d="M-37.1 0.65 L-37.0 2.55 -37.1 5.45 -37.4 7.4 -38.65 13.45 -39.15 14.05 -39.6 15.95 -39.55 13.75 -39.9 13.3 Q-39.9 9.85 -39.1 6.6 -38.35 3.6 -38.65 0.5 L-37.45 0.25 -37.1 0.65" fill="#333333" fill-rule="evenodd" stroke="none"/>
    <path d="M46.35 13.45 Q46.8 13.85 46.45 14.25 L44.85 15.4 Q42.75 16.7 40.4 17.55 L38.05 17.8 37.85 17.0 38.25 16.8 Q42.4 15.4 45.75 13.05 L46.35 13.45" fill="#333333" fill-rule="evenodd" stroke="none"/>
    <path d="M33.2 -16.1 L31.25 -16.25 Q33.85 -18.25 36.9 -17.8 L37.0 -17.15 33.2 -16.1" fill="#333333" fill-rule="evenodd" stroke="none"/>
    <path d="M31.25 -13.2 Q31.7 -14.15 34.5 -14.2 L40.7 -14.65 41.0 -14.65 41.7 -14.25 31.8 -12.65 31.25 -13.2" fill="#333333" fill-rule="evenodd" stroke="none"/>
    <path d="M33.9 -8.8 L34.85 -9.55 42.4 -10.1 42.95 -9.55 42.85 -9.45 Q42.15 -9.05 41.4 -9.05 L36.25 -8.3 34.65 -8.4 34.15 -8.5 Q34.0 -8.5 33.95 -8.6 L33.9 -8.8" fill="#333333" fill-rule="evenodd" stroke="none"/>
    <path d="M33.1 -4.6 L32.85 -4.85 38.2 -5.85 38.75 -5.1 Q38.8 -4.6 38.2 -4.55 L34.6 -4.25 33.1 -4.6" fill="#333333" fill-rule="evenodd" stroke="none"/>
    <path d="M-36.75 20.6 Q-37.55 22.15 -38.4 21.8 -37.65 19.7 -36.2 18.35 -35.6 17.75 -35.1 18.45 L-35.45 18.85 Q-36.3 19.6 -36.75 20.6" fill="#333333" fill-rule="evenodd" stroke="none"/>
    <path d="M-28.25 16.7 Q-27.7 16.5 -27.35 17.2 L-35.85 28.05 -36.6 27.8 -34.7 24.05 Q-32.15 19.95 -28.25 16.7" fill="#333333" fill-rule="evenodd" stroke="none"/>
    <path d="M-26.9 23.95 L-25.85 24.6 -26.3 24.85 Q-28.6 26.1 -29.9 28.5 L-31.0 30.3 -31.75 30.65 -31.95 29.7 -31.9 29.5 Q-31.05 26.45 -28.4 24.65 L-26.9 23.95" fill="#333333" fill-rule="evenodd" stroke="none"/>
    <path d="M-23.95 29.05 L-23.25 28.45 -23.1 28.05 Q-22.85 27.25 -22.35 27.8 L-22.6 28.65 -23.95 29.05" fill="#333333" fill-rule="evenodd" stroke="none"/>
  </g>
</svg>
