<?xml version="1.0" encoding="UTF-8" standalone="no"?>
<svg xmlns:xlink="http://www.w3.org/1999/xlink" height="36.1px" width="74.2px" xmlns="http://www.w3.org/2000/svg">
  <g transform="matrix(1.0, 0.0, 0.0, 1.0, 36.7, 17.15)">
    <path d="M3.65 -15.4 L8.35 -15.4 13.05 -15.4 17.7 -15.35 22.0 -14.5 Q24.05 -14.05 25.5 -12.6 L28.9 -9.35 31.55 -6.85 34.1 -4.5 Q35.85 -3.0 36.9 -0.85 37.6 0.6 37.45 2.35 37.2 5.25 35.25 7.65 L31.45 11.7 28.55 14.25 26.35 16.2 23.95 18.05 23.05 18.55 20.25 18.6 17.1 18.65 12.45 18.9 7.75 18.9 3.05 18.9 -2.9 18.85 -8.65 18.85 -13.5 18.85 -17.5 18.85 -21.7 18.8 -27.25 18.95 -28.45 18.8 -29.95 18.2 Q-31.4 18.15 -32.7 17.05 L-33.7 16.2 Q-35.15 14.9 -35.5 13.1 L-35.85 9.8 -35.85 5.35 -35.9 0.75 -35.9 -3.65 -35.55 -7.8 -34.7 -11.15 Q-34.15 -12.6 -32.55 -13.85 -31.0 -15.1 -28.0 -15.1 L-22.1 -15.1 -20.5 -15.05 -15.0 -15.3 -11.1 -15.25 -6.4 -15.3 Q-4.0 -15.25 -1.9 -15.35 L3.65 -15.4" fill="#663366" fill-opacity="0.2" fill-rule="evenodd" stroke="none"/>
    <path d="M-33.45 -14.7 L-32.8 -15.25 Q-31.75 -16.05 -30.45 -16.05 L-28.55 -16.05 -26.65 -15.8 -24.15 -16.0 -22.45 -15.75 -20.75 -15.75 -19.45 -15.65 -18.2 -15.65 -16.9 -15.65 -14.75 -15.65 -14.5 -15.65 -12.25 -15.65 -10.55 -15.65 -8.9 -15.65 -7.55 -15.6 -6.35 -15.6 -5.05 -15.6 -2.85 -15.6 -0.55 -15.6 Q0.75 -15.8 2.05 -15.6 L2.9 -15.6 4.15 -15.6 4.65 -15.6 4.65 -15.55 6.55 -15.4 9.1 -15.4 9.95 -15.55 10.3 -15.6 11.2 -15.6 12.0 -15.6 13.6 -15.65 16.65 -15.8 19.2 -15.8 20.4 -15.45 Q21.25 -15.25 22.0 -14.65 L22.8 -14.0 24.0 -13.1 25.65 -11.75 27.5 -9.9 29.2 -8.1 30.75 -6.4 31.75 -5.4 33.15 -4.05 34.7 -1.75 Q35.2 -0.8 35.3 0.35 35.45 1.1 35.15 1.9 L34.1 3.6 32.3 5.7 30.55 7.6 28.95 9.15 27.5 10.6 26.15 11.9 24.85 13.15 23.25 14.3 21.35 14.85 19.15 15.25 16.85 15.25 14.4 15.25 12.1 15.2 10.05 15.05 9.95 15.05 8.1 14.95 6.0 14.95 4.95 14.9 4.65 14.9 4.65 14.95 4.05 14.95 3.1 14.95 2.25 14.95 1.95 14.95 -0.6 14.9 -3.35 14.95 -5.15 14.95 -6.95 14.95 -9.75 15.0 -11.55 15.0 -13.4 15.0 -14.5 15.0 -15.2 15.0 -17.05 15.0 -18.85 15.0 -20.65 15.0 -22.95 15.0 -25.7 14.95 -28.35 14.9 -30.35 14.75 -32.05 14.5 -32.75 14.1 -33.45 13.5 -34.3 12.7 Q-35.45 11.2 -36.0 9.45 L-35.55 8.8 -35.8 6.3 -35.8 3.9 -35.65 1.35 -35.65 -0.7 -35.55 -2.9 -35.55 -5.0 -35.45 -7.25 -35.45 -9.0 -35.1 -11.15 -34.4 -12.9 -34.05 -14.0 -33.45 -14.7 -33.45 13.5 -33.45 -14.7 M20.35 12.15 L21.0 12.0 21.4 11.8 22.7 10.8 23.65 10.0 24.7 9.0 25.9 8.1 26.85 7.15 27.95 6.05 29.05 4.9 30.05 3.6 30.75 2.4 31.25 0.95 31.25 -0.35 30.75 -2.0 30.05 -3.35 28.8 -4.65 27.85 -5.45 26.9 -6.2 25.95 -7.2 25.0 -8.15 23.75 -9.35 22.6 -10.55 21.75 -11.25 20.85 -11.85 20.1 -12.15 19.0 -12.25 17.95 -12.5 15.4 -12.55 14.55 -12.55 13.45 -12.55 12.6 -12.55 11.55 -12.55 10.7 -12.55 9.95 -12.55 8.85 -12.55 8.75 -12.55 8.15 -12.55 6.95 -12.55 6.65 -12.55 5.0 -12.55 4.75 -12.55 3.8 -12.55 2.9 -12.55 2.15 -12.55 1.85 -12.55 -0.05 -12.55 -2.15 -12.55 -5.0 -12.55 -7.95 -12.55 -10.75 -12.5 -13.45 -12.5 -13.9 -12.5 -14.5 -12.5 -14.85 -12.5 -15.4 -12.5 -15.9 -12.5 -16.5 -12.5 -16.65 -12.5 -16.75 -12.5 -18.2 -12.5 -18.65 -12.5 -19.7 -12.5 -20.65 -12.5 -21.15 -12.5 -21.75 -12.5 -22.2 -12.5 -22.2 -12.45 -22.8 -12.45 -22.95 -12.45 -23.85 -12.45 -24.45 -12.45 -24.75 -12.45 -26.25 -12.25 -27.95 -12.15 -29.5 -11.3 -30.65 -10.3 -31.4 -8.8 -31.85 -7.2 -32.05 -5.75 -32.1 -4.0 -32.1 -2.35 -32.05 -0.75 -32.05 0.85 -31.95 2.55 -31.95 4.2 -31.95 5.7 -31.85 7.4 -31.85 7.6 -31.65 8.55 -30.8 10.0 -30.05 10.7 -28.4 11.8 -27.05 12.0 -26.35 12.3 -25.25 12.3 -24.4 12.3 -23.35 12.3 -22.7 12.3 -22.2 12.3 -22.2 12.35 -21.55 12.35 -21.15 12.35 -14.5 12.35 -13.55 12.35 -13.45 12.35 -11.45 12.35 -8.55 12.35 -6.6 12.35 -4.75 12.35 -2.85 12.35 -0.85 12.35 1.1 12.35 2.15 12.35 4.1 12.3 5.0 12.3 6.05 12.3 8.0 12.3 8.85 12.3 9.95 12.3 10.7 12.25 10.8 12.25 12.75 12.25 13.85 12.25 14.7 12.25 15.75 12.25 16.75 12.25 17.55 12.25 17.8 12.25 19.75 12.2 20.05 12.2 20.35 12.15" fill="#ffffff" fill-rule="evenodd" stroke="none"/>
    <path d="M-21.15 -12.5 L-20.65 -12.5 -19.7 -12.5 -18.65 -12.5 -18.2 -12.5 -16.75 -12.5 -16.65 -12.5 -16.5 -12.5 -15.9 -12.5 -15.4 -12.5 -14.85 -12.5 -14.5 -12.5 -13.9 -12.5 -13.45 -12.5 -10.75 -12.5 -7.95 -12.55 -5.0 -12.55 -2.15 -12.55 -0.05 -12.55 1.85 -12.55 2.15 -12.55 2.9 -12.55 3.8 -12.55 4.75 -12.55 5.0 -12.55 6.65 -12.55 6.95 -12.55 8.15 -12.55 8.75 -12.55 8.85 -12.55 9.95 -12.55 10.7 -12.55 11.55 -12.55 12.6 -12.55 13.45 -12.55 14.55 -12.55 15.4 -12.55 17.95 -12.5 19.0 -12.25 20.1 -12.15 20.85 -11.85 21.75 -11.25 22.6 -10.55 23.75 -9.35 25.0 -8.15 25.95 -7.2 26.9 -6.2 27.85 -5.45 28.8 -4.65 30.05 -3.35 30.75 -2.0 31.25 -0.35 31.25 0.95 30.75 2.4 30.05 3.6 29.05 4.9 27.95 6.05 26.85 7.15 25.9 8.1 24.7 9.0 23.65 10.0 22.7 10.8 21.4 11.8 21.0 12.0 20.35 12.15 19.9 12.0 19.0 12.2 18.65 12.2 17.8 12.25 17.55 12.25 16.75 12.25 15.75 12.25 14.7 12.25 13.85 12.25 12.75 12.25 10.8 12.25 10.7 12.25 9.95 12.25 9.95 12.3 8.85 12.3 8.0 12.3 6.05 12.3 5.0 12.3 4.1 12.3 2.15 12.35 1.1 12.35 -0.85 12.35 -2.85 12.35 -4.75 12.35 -6.6 12.35 -8.55 12.35 -11.45 12.35 -13.45 12.35 -13.55 12.35 -14.5 12.35 -21.15 12.35 -21.15 12.3 -21.65 12.3 -22.2 12.3 -22.7 12.3 -23.35 12.3 -24.4 12.3 -25.25 12.3 -26.35 12.3 -27.05 12.0 -28.4 11.8 -30.05 10.7 -30.8 10.0 -31.65 8.55 -31.85 7.6 -31.85 7.4 -31.95 5.7 -31.95 4.2 -31.95 2.55 -32.05 0.85 -32.05 -0.75 -32.1 -2.35 -32.1 -4.0 -32.05 -5.75 -31.85 -7.2 -31.4 -8.8 -30.65 -10.3 -29.5 -11.3 -27.95 -12.15 -26.25 -12.25 -24.75 -12.45 -24.45 -12.45 -23.85 -12.45 -22.95 -12.45 -22.8 -12.45 -22.2 -12.45 -21.9 -12.45 -21.15 -12.45 -21.15 -12.5" fill="#84c146" fill-rule="evenodd" stroke="none"/>
    <path d="M-15.25 -10.2 L-10.2 -10.2 -9.85 -10.0 -9.8 -9.85 -9.65 -9.75 -9.65 -9.65 -9.65 -9.55 -9.7 -9.35 Q-9.55 -5.85 -9.55 -2.2 L-9.55 5.0 -9.55 6.55 -9.55 9.0 -9.55 9.2 -9.55 9.3 -9.65 9.4 -9.7 9.55 -9.85 9.6 Q-16.6 10.0 -23.1 9.4 L-23.55 9.4 -23.7 9.5 -23.85 9.55 -24.4 9.5 -24.8 9.4 -24.9 9.35 -24.95 9.2 -25.1 9.0 -25.05 6.55 -25.05 1.95 -24.9 -5.2 -24.85 -8.9 -25.05 -8.95 -25.1 -9.1 -25.2 -9.25 -25.2 -9.4 -25.2 -9.55 -24.9 -9.75 -24.8 -9.95 -24.4 -10.0 -23.7 -10.1 -15.25 -10.2" fill="#ffffff" fill-rule="evenodd" stroke="none"/>
    <path d="M16.75 -6.65 L16.85 -6.7 16.9 -6.85 17.05 -7.15 17.15 -7.3 17.3 -7.4 17.5 -7.45 17.75 -7.4 17.8 -7.45 18.05 -7.4 18.2 -7.4 18.3 -7.4 18.45 -7.25 23.75 -1.95 24.45 -1.3 24.5 -1.35 25.0 -0.7 25.15 -0.55 25.15 -0.25 25.1 -0.2 25.1 -0.05 25.0 0.05 24.95 0.2 24.85 0.25 24.8 0.4 24.7 0.55 24.55 0.65 24.5 0.7 24.45 0.65 18.4 6.65 18.1 6.8 17.8 6.8 17.65 6.8 17.5 6.65 17.45 6.6 17.3 6.6 16.9 6.5 16.7 6.35 16.6 6.2 16.55 6.05 16.55 3.45 3.35 3.4 -0.5 3.15 -0.6 3.25 -0.7 3.4 -0.85 3.55 -1.1 3.55 -1.4 3.45 -1.6 3.3 -1.75 3.15 -1.85 0.95 -1.75 -1.6 -1.7 -3.35 -1.6 -3.5 -1.45 -3.65 -1.3 -3.75 -1.1 -3.75 -1.1 -3.8 -0.95 -3.75 -0.95 -3.8 -0.85 -3.9 -0.8 -4.05 -0.65 -4.2 -0.5 -4.25 -0.2 -4.35 3.9 -4.35 16.7 -4.25 16.55 -5.75 16.6 -5.9 16.7 -6.2 16.7 -6.5 16.75 -6.65" fill="#ffffff" fill-rule="evenodd" stroke="none"/>
    <path d="M-12.85 -2.75 L-12.05 -1.6 -11.75 -0.85 Q-11.5 -0.45 -11.5 0.15 L-11.5 1.55 -11.5 3.1 Q-11.5 3.9 -11.95 4.6 -11.7 4.6 -11.9 4.85 L-12.05 5.3 Q-12.3 5.85 -12.9 6.3 L-13.25 6.65 -14.5 7.55 -15.2 7.95 -15.4 7.9 -15.45 8.05 -15.9 8.05 -16.2 7.9 -15.8 6.55 -15.65 5.65 -16.4 6.45 -16.55 6.65 -18.5 7.95 -18.75 7.9 -18.8 8.05 -19.2 8.05 -19.55 7.9 -19.1 6.55 -18.95 5.65 -19.7 6.45 -19.85 6.65 -21.15 7.55 -21.85 7.95 -22.05 7.9 -22.1 8.05 -22.55 8.05 -22.85 7.9 -22.45 6.15 -22.05 4.3 Q-21.9 3.35 -21.9 2.4 L-21.9 0.45 Q-21.85 -0.7 -21.3 -1.75 L-20.4 -3.0 -19.0 -4.0 -17.55 -4.45 -16.35 -4.45 -14.95 -4.2 -14.25 -3.85 -13.9 -3.75 -12.85 -2.75 M-13.0 0.5 Q-12.85 -0.25 -13.25 -0.95 -13.65 -1.75 -14.45 -1.95 L-16.1 -2.0 -17.35 -0.95 Q-17.7 -0.35 -17.7 0.4 L-17.65 0.9 -17.45 1.45 Q-17.1 2.25 -16.3 2.5 L-14.85 2.55 Q-14.1 2.35 -13.6 1.75 -13.15 1.2 -13.0 0.5" fill="#84c146" fill-rule="evenodd" stroke="none"/>
    <path d="M-15.7 0.6 L-15.65 -0.4 -15.1 -0.85 -14.1 -0.65 -13.95 -0.5 -13.85 -0.05 -13.9 0.4 -14.45 0.95 Q-15.2 1.2 -15.7 0.6" fill="#84c146" fill-rule="evenodd" stroke="none"/>
    <path d="M-22.55 -5.3 Q-22.85 -5.6 -22.85 -6.05 L-22.5 -7.1 Q-21.8 -7.85 -20.85 -7.55 -20.6 -7.5 -20.45 -7.3 L-20.25 -6.75 -20.2 -6.55 Q-20.05 -6.0 -20.45 -5.65 L-21.35 -5.0 -21.6 -4.95 -22.35 -5.05 -22.55 -5.3" fill="#84c146" fill-rule="evenodd" stroke="none"/>
    <path d="M-21.0 -6.35 L-20.95 -6.35 -20.85 -6.3 -20.8 -6.3 -20.75 -6.2 -19.75 -4.7 -18.65 -3.05 -17.95 -1.95 -17.95 -1.9 -17.95 -1.8 -17.95 -1.75 -18.05 -1.6 -18.15 -1.5 -18.35 -1.4 -18.5 -1.35 -18.55 -1.4 -18.65 -1.4 -19.7 -2.95 -20.85 -4.7 -21.5 -5.8 -21.55 -5.8 -21.55 -5.95 -21.5 -6.05 -21.45 -6.15 -21.3 -6.25 -21.15 -6.35 -21.0 -6.35" fill="#84c146" fill-rule="evenodd" stroke="none"/>
    <path d="M-13.5 -7.0 L-12.9 -7.6 -11.85 -7.7 Q-10.8 -7.4 -10.65 -6.4 -10.6 -6.15 -10.7 -6.0 L-11.1 -5.55 -11.3 -5.4 Q-11.75 -5.0 -12.25 -5.2 L-13.2 -5.75 -13.4 -6.0 -13.55 -6.65 -13.5 -7.0" fill="#84c146" fill-rule="evenodd" stroke="none"/>
    <path d="M-11.7 -6.6 L-11.7 -6.5 -11.7 -6.45 -11.7 -6.4 -11.7 -6.3 -12.6 -4.75 -13.6 -3.05 -13.9 -2.5 -13.95 -2.55 -14.0 -2.55 -14.3 -2.8 -14.7 -3.05 -14.2 -3.95 -13.15 -5.7 -12.45 -6.85 -12.4 -6.85 -12.35 -6.9 -12.2 -6.9 -12.1 -6.9 -11.95 -6.85 -11.75 -6.7 -11.7 -6.6" fill="#84c146" fill-rule="evenodd" stroke="none"/>
    <path d="M15.2 -12.4 Q16.4 -10.75 16.05 -8.65 15.9 -7.9 15.45 -7.3 14.9 -6.4 14.05 -6.0 12.0 -5.3 10.15 -4.15 L9.1 -2.45 Q6.65 0.4 3.7 2.85 L3.65 4.35 3.7 5.8 4.55 8.9 Q4.9 10.0 4.35 11.05 L3.3 12.45 Q1.65 13.9 -0.55 14.4 L-3.55 15.4 -13.65 15.3 -25.3 14.65 -26.75 13.1 Q-28.35 11.4 -27.0 9.4 L-26.35 8.3 -26.5 8.05 -27.75 7.05 Q-28.9 6.15 -29.5 4.85 -30.2 3.35 -30.35 1.85 -30.5 -0.15 -29.6 -1.75 -28.2 -4.2 -25.55 -4.65 L-17.3 -5.15 -17.25 -7.35 Q-17.1 -8.75 -16.0 -9.6 L-14.75 -10.05 Q-12.2 -10.5 -9.6 -10.05 L-6.55 -9.65 -5.3 -10.3 Q-5.2 -11.4 -4.45 -12.05 L-2.25 -13.6 -0.75 -14.15 2.85 -15.2 Q3.8 -15.55 4.7 -16.15 L6.45 -16.65 8.15 -16.05 Q11.75 -14.45 15.2 -12.4" fill="#663366" fill-opacity="0.101960786" fill-rule="evenodd" stroke="none"/>
    <path d="M0.45 -7.9 L0.65 -11.65 Q0.65 -12.9 1.45 -13.9 L3.7 -15.9 8.45 -16.2 15.45 -16.15 20.35 -15.25 Q21.75 -14.9 23.25 -14.2 L24.4 -13.6 25.55 -12.0 Q26.3 -9.95 26.35 -7.65 L26.25 -4.25 Q26.2 -3.3 25.75 -2.45 25.3 -1.65 24.5 -1.35 21.55 -0.05 18.45 0.85 L18.2 1.6 18.05 1.95 Q17.1 3.1 15.7 3.85 17.65 4.95 18.6 6.95 19.5 8.9 17.9 10.55 17.2 11.2 16.3 11.45 L10.4 11.2 7.65 10.3 4.4 9.9 3.0 10.1 2.65 11.1 1.8 12.5 0.35 13.75 -2.6 14.4 -5.9 14.2 -7.45 13.05 -9.65 10.0 -10.75 7.75 Q-11.2 6.65 -11.1 5.6 L-10.85 4.15 -10.2 2.7 Q-8.6 0.5 -6.05 -0.15 -5.75 -1.6 -5.85 -3.15 -5.9 -4.45 -4.75 -5.35 -2.45 -6.95 0.45 -7.15 L0.45 -7.9" fill="#663366" fill-opacity="0.101960786" fill-rule="evenodd" stroke="none"/>
    <path d="M24.4 14.1 L24.55 14.3 24.6 14.5 24.6 14.65 24.55 14.85 24.5 15.05 24.3 15.25 24.1 15.35 23.8 15.4 Q-4.65 15.95 -33.05 15.2 L-33.4 15.05 -33.5 14.85 -33.6 14.7 -33.6 14.5 -33.5 14.3 -33.4 14.2 -33.3 14.15 Q-22.75 13.45 -12.3 13.75 L19.8 13.75 23.8 13.8 24.15 13.95 24.4 14.1" fill="#663366" fill-opacity="0.101960786" fill-rule="evenodd" stroke="none"/>
    <path d="M36.5 0.1 L36.55 0.3 36.55 0.5 36.45 0.65 36.3 0.85 36.0 1.05 34.15 3.5 31.95 6.15 30.85 7.6 28.8 9.7 26.55 11.75 25.75 12.3 25.0 13.05 24.25 13.8 23.85 14.2 23.8 14.35 23.75 14.55 23.55 14.75 23.35 14.85 23.05 15.0 22.65 15.35 22.05 15.75 21.85 15.85 21.55 15.95 21.1 15.8 20.95 15.6 20.8 15.45 20.75 15.25 20.75 15.05 20.75 14.85 20.75 14.7 20.8 14.5 21.0 14.3 21.1 14.2 21.25 14.1 21.55 14.0 21.75 13.9 22.05 13.75 27.55 8.55 Q30.0 6.35 32.1 3.8 L33.85 1.55 34.15 1.35 34.45 1.0 34.9 0.45 35.15 0.1 35.3 0.05 35.7 -0.05 36.05 -0.15 36.05 -0.2 36.35 -0.1 36.5 0.1" fill="#663366" fill-opacity="0.101960786" fill-rule="evenodd" stroke="none"/>
    <path d="M24.95 -8.4 L26.75 -7.9 28.95 -7.35 30.75 -6.9 31.45 -6.1 31.95 -5.35 32.25 -4.65 32.4 -3.85 32.5 -3.15 32.5 -2.4 Q32.5 -2.0 32.65 -1.7 L33.2 -0.85 33.55 -0.1 33.5 0.65 33.1 1.2 31.75 2.15 31.4 2.8 30.75 3.65 30.5 4.4 30.25 5.15 30.0 5.9 28.7 7.35 28.0 8.15 26.5 9.65 23.2 12.4 21.95 12.55 20.95 12.65 19.2 12.15 18.2 11.4 17.75 10.6 17.45 9.9 17.45 9.15 17.55 8.4 17.7 7.65 18.0 6.9 18.45 6.15 18.7 5.4 18.95 4.65 19.7 3.9 20.45 3.15 21.2 2.4 21.85 1.55 22.45 0.15 22.15 -0.55 21.5 -1.4 20.95 -2.15 20.45 -2.9 20.45 -3.65 20.45 -4.4 20.45 -5.15 Q20.45 -5.5 20.6 -5.85 L20.95 -6.65 21.45 -7.4 22.2 -7.9 22.75 -8.05 23.95 -8.25 23.95 -8.4 24.95 -8.4" fill="#ffffff" fill-opacity="0.101960786" fill-rule="evenodd" stroke="none"/>
    <path d="M15.0 4.5 L19.95 3.9 21.0 3.2 22.35 2.2 22.7 1.65 23.0 0.9 23.5 0.15 24.2 -0.6 25.95 -1.0 26.0 -1.15 27.5 -0.6 28.45 0.15 29.2 0.9 29.7 1.65 30.0 2.4 30.15 3.15 30.25 3.9 30.25 5.4 30.25 6.9 30.25 7.65 29.95 8.35 29.5 9.15 28.45 9.8 Q27.75 10.25 27.0 10.65 L26.25 11.15 22.2 11.95 13.2 11.65 12.45 10.9 11.75 10.1 11.25 9.35 10.95 8.65 10.95 7.9 Q10.95 7.5 11.1 7.15 11.2 6.75 11.55 6.45 L13.2 4.9 15.0 4.5" fill="#ffffff" fill-opacity="0.101960786" fill-rule="evenodd" stroke="none"/>
    <path d="M-22.05 -15.4 L-21.05 -15.4 -19.3 -14.9 -18.55 -14.1 -18.1 -13.35 -17.8 -12.65 -17.65 -11.9 Q-17.65 -11.5 -17.8 -11.15 L-18.05 -10.4 -21.0 -6.4 Q-23.05 -3.8 -26.05 -2.1 L-28.3 -0.85 -28.8 -0.65 -30.05 -0.45 -32.05 -0.35 -33.8 -0.85 -34.8 -1.65 -35.3 -2.4 -35.5 -3.15 -35.55 -3.9 -35.55 -4.65 -35.55 -5.4 -35.55 -6.15 -35.45 -6.85 -35.05 -7.65 -34.55 -8.4 -33.8 -8.9 -33.3 -9.1 -32.05 -9.45 -31.0 -10.05 -30.8 -10.65 -30.75 -11.35 -30.5 -12.1 -30.05 -12.9 -29.3 -13.4 -27.8 -13.9 -27.05 -14.4 -26.3 -14.9 -25.05 -15.05 -23.3 -15.15 -22.05 -15.25 -22.05 -15.4" fill="#ffffff" fill-opacity="0.101960786" fill-rule="evenodd" stroke="none"/>
    <path d="M-24.1 -11.4 L-24.25 -10.6 -24.3 -9.9 -24.3 -9.15 -24.4 -8.4 -24.8 -7.65 -25.3 -6.9 -26.05 -6.15 -26.05 -5.4 -26.0 -4.65 -25.9 -3.9 Q-25.9 -3.5 -26.05 -3.15 L-26.35 -2.4 -26.8 -1.65 -27.05 -0.85 -27.3 -0.1 -27.8 0.65 -27.8 1.4 -27.85 2.1 -28.05 2.9 -28.35 3.6 -28.8 4.35 -29.3 4.9 -29.8 5.1 -31.05 5.4 -32.05 5.65 -33.55 5.15 -34.25 4.35 -34.75 3.6 -35.05 2.9 -35.05 2.15 -35.0 1.4 -34.8 0.65 -34.3 -0.1 -34.3 -0.85 -34.3 -1.65 -34.3 -2.4 -34.0 -3.1 -33.5 -3.85 -32.85 -4.65 -32.3 -5.4 -32.1 -6.15 -32.05 -6.9 -32.05 -7.65 -32.05 -8.4 -32.05 -9.15 -31.9 -9.8 -31.2 -11.45 Q-30.7 -12.75 -29.55 -13.65 L-28.8 -14.4 -27.05 -14.75 -27.05 -14.9 -25.55 -14.4 -24.8 -13.6 -24.35 -12.85 -24.05 -12.15 -24.1 -11.4" fill="#ffffff" fill-opacity="0.101960786" fill-rule="evenodd" stroke="none"/>
    <path d="M7.6 -17.15 L12.3 -17.15 16.95 -17.1 21.25 -16.25 Q23.3 -15.8 24.75 -14.35 L28.15 -11.1 30.8 -8.6 33.35 -6.25 Q35.1 -4.75 36.15 -2.6 36.85 -1.15 36.7 0.6 36.45 3.5 34.5 5.9 L30.7 9.95 27.8 12.5 25.6 14.45 23.2 16.3 22.3 16.8 19.5 16.85 16.35 16.9 11.7 17.15 7.0 17.15 2.3 17.15 -3.65 17.1 -9.4 17.1 -14.25 17.1 -18.25 17.1 -22.45 17.05 -28.0 17.2 -29.2 17.05 -30.7 16.45 Q-32.15 16.4 -33.45 15.3 L-34.45 14.45 Q-35.9 13.15 -36.25 11.35 L-36.6 8.05 -36.6 3.6 -36.65 -1.0 -36.65 -5.4 -36.3 -9.55 -35.45 -12.9 Q-34.9 -14.35 -33.3 -15.6 -31.75 -16.85 -28.75 -16.85 L-22.85 -16.85 -21.25 -16.8 -15.75 -17.05 -11.85 -17.0 -7.15 -17.05 Q-4.75 -17.0 -2.65 -17.1 L2.9 -17.15 7.6 -17.15 M19.25 -15.6 L13.3 -15.8 8.8 -15.85 3.8 -15.8 -0.9 -15.9 -6.65 -15.8 -12.55 -15.8 -18.5 -15.85 -24.45 -15.9 -30.75 -15.9 -31.65 -15.55 Q-32.55 -15.2 -33.65 -13.95 -34.75 -12.75 -35.05 -10.0 L-35.45 -3.2 -35.55 3.6 -35.35 8.5 -35.7 9.15 -35.05 10.85 -33.6 13.0 -33.3 13.3 -33.25 13.35 Q-32.75 13.95 -31.95 14.2 L-28.35 14.9 -22.95 15.0 -18.85 15.0 Q-16.1 14.8 -13.4 15.0 L-8.35 15.15 -3.3 15.0 2.25 14.9 8.1 14.95 12.1 15.2 16.85 15.25 21.35 14.85 23.15 14.15 Q25.5 12.8 27.55 10.65 L30.5 7.55 34.0 3.55 35.0 1.8 Q35.55 0.6 35.1 -0.7 34.45 -2.65 33.1 -4.0 L33.0 -4.1 32.9 -4.2 32.8 -4.3 31.95 -5.1 29.85 -7.3 29.15 -8.05 28.15 -9.1 26.15 -11.15 25.6 -11.65 25.3 -11.95 24.7 -12.55 23.75 -13.45 Q21.85 -15.1 19.25 -15.6" fill="#333333" fill-rule="evenodd" stroke="none"/>
  </g>
</svg>
