<?xml version="1.0" encoding="UTF-8" standalone="no"?>
<svg xmlns:xlink="http://www.w3.org/1999/xlink" height="485.95px" width="699.95px" xmlns="http://www.w3.org/2000/svg">
  <g transform="matrix(1.0, 0.0, 0.0, 1.0, 360.95, 400.95)">
    <path d="M78.0 -221.95 L78.0 -351.95 -329.0 -351.95 -329.0 -221.95 -252.95 -221.95 -252.95 -143.9 -329.0 -67.85 -329.0 -7.0 339.0 -7.0 339.0 85.0 -360.95 85.0 -360.95 -400.95 339.0 -400.95 339.0 -111.95 56.0 -111.95 56.0 -221.95 78.0 -221.95" fill="#cccccc" fill-rule="evenodd" stroke="none"/>
    <path d="M72.0 -79.95 L-94.0 -79.95 -94.0 -171.05 -116.0 -171.05 -116.0 -79.95 -135.0 -79.95 -198.95 -143.9 -198.95 -221.95 29.0 -221.95 29.0 -175.95 -75.0 -175.95 -75.0 -122.95 29.0 -122.95 29.0 -88.95 72.0 -88.95 72.0 -79.95" fill="#cccccc" fill-rule="evenodd" stroke="none"/>
  </g>
</svg>
