<?xml version="1.0" encoding="UTF-8" standalone="no"?>
<svg xmlns:xlink="http://www.w3.org/1999/xlink" height="90.45px" width="18.0px" xmlns="http://www.w3.org/2000/svg">
  <g transform="matrix(1.0, 0.0, 0.0, 1.0, 9.0, 45.2)">
    <path d="M6.2 -44.95 L6.2 28.25 6.5 28.4 6.9 28.55 7.15 28.75 7.35 28.95 7.45 29.15 7.7 29.35 7.9 29.5 8.1 29.7 8.2 29.9 8.3 30.05 8.35 30.45 8.35 30.8 8.35 31.0 8.35 31.4 8.35 31.95 8.35 32.15 8.3 32.3 8.2 32.5 8.15 32.7 8.05 32.9 7.9 33.05 7.85 33.45 7.85 33.8 7.85 34.2 7.85 34.75 7.85 35.3 7.9 35.5 7.95 35.7 8.05 35.9 8.15 36.05 8.3 36.25 8.35 36.8 8.35 37.4 8.35 38.3 8.35 39.05 8.35 39.65 8.3 39.8 8.2 40.0 8.1 40.2 7.9 40.4 7.85 40.55 7.8 40.75 7.7 40.95 7.6 41.15 7.6 41.3 7.55 41.5 7.45 41.7 7.35 41.9 7.15 42.05 6.6 42.2 6.4 42.4 6.2 42.55 6.2 43.85 -3.45 43.85 -3.45 44.0 -3.55 44.2 -3.65 44.4 -3.85 44.55 -4.3 44.7 -4.55 44.7 -4.95 44.55 -5.2 44.4 -5.35 44.2 -5.4 44.0 -5.6 43.85 -6.3 43.85 -6.3 43.45 -6.6 43.25 -6.8 43.05 -6.95 42.9 -7.15 42.7 -7.55 42.3 -7.6 42.15 -7.7 41.95 -7.8 41.95 -8.2 41.8 -8.45 41.65 -8.6 41.45 -8.7 40.3 -8.65 38.45 -8.65 36.4 -8.65 35.25 -8.65 35.1 -8.55 34.9 -8.4 34.7 -8.35 34.3 -8.35 33.0 -8.35 31.9 -8.35 30.95 -8.25 30.75 -8.15 30.6 -7.95 30.4 -7.8 30.2 -7.8 30.0 -7.8 29.8 -7.65 29.65 -7.45 29.45 -7.05 29.3 -6.65 29.45 -6.4 29.5 -6.3 29.45 -6.3 -44.95 6.2 -44.95 M6.2 30.95 L6.25 30.85 6.25 30.7 6.2 30.6 6.2 30.95" fill="#b0cedc" fill-rule="evenodd" stroke="none"/>
    <path d="M-1.7 32.3 Q-1.05 31.65 -0.15 31.65 0.75 31.65 1.4 32.3 2.05 32.95 2.05 33.85 2.05 34.75 1.4 35.4 0.75 36.05 -0.15 36.05 -1.05 36.05 -1.7 35.4 -2.35 34.75 -2.35 33.85 -2.35 32.95 -1.7 32.3" fill="#33ff66" fill-rule="evenodd" stroke="none"/>
    <path d="M-2.0 32.95 L-2.0 34.05 0.3 34.05 0.3 32.95 -2.0 32.95 M-3.4 33.15 L-1.85 31.45 3.05 31.95 3.6 33.25 3.5 35.3 2.1 37.15 -0.7 37.15 -1.95 36.4 -2.45 35.65 -2.95 35.4 -3.4 33.15" fill="#663366" fill-opacity="0.16078432" fill-rule="evenodd" stroke="none"/>
    <path d="M1.9 -44.15 L1.95 -44.0 Q2.55 -9.65 2.2 24.65 L1.05 25.0 1.1 -44.4 1.45 -44.45 1.45 -44.5 1.75 -44.3 1.9 -44.15" fill="#663366" fill-opacity="0.16078432" fill-rule="evenodd" stroke="none"/>
    <path d="M6.75 29.95 Q6.8 29.5 7.25 29.8 L7.6 42.3 6.95 42.75 Q6.5 42.85 6.45 42.25 6.2 36.15 6.75 29.95" fill="#663366" fill-opacity="0.16078432" fill-rule="evenodd" stroke="none"/>
    <path d="M6.1 43.6 L6.05 43.75 Q0.5 44.1 -5.3 43.95 -7.1 44.3 -7.5 43.0 L5.45 42.7 6.1 43.6" fill="#663366" fill-opacity="0.16078432" fill-rule="evenodd" stroke="none"/>
    <path d="M7.6 40.9 L7.8 40.7 9.0 40.75 5.2 44.3 2.9 43.7 Q4.2 41.4 7.6 40.9" fill="#663366" fill-opacity="0.16078432" fill-rule="evenodd" stroke="none"/>
    <path d="M3.3 -44.45 Q3.35 -45.15 4.2 -45.2 L5.2 -44.6 5.3 -44.15 5.65 -32.55 5.75 -20.95 5.8 -9.15 Q5.8 8.15 5.15 25.5 L4.7 26.5 3.2 26.05 2.8 14.45 2.6 2.8 2.55 -9.0 2.65 -20.85 2.8 -32.45 Q2.9 -38.45 3.3 -44.45" fill="#663366" fill-opacity="0.16078432" fill-rule="evenodd" stroke="none"/>
    <path d="M-4.8 -40.35 L-3.05 -40.15 -2.35 -39.7 -3.05 -39.25 -4.8 -39.05 -6.5 -39.25 Q-7.25 -39.45 -7.25 -39.7 -7.25 -39.95 -6.5 -40.15 L-4.8 -40.35" fill="#663366" fill-opacity="0.16078432" fill-rule="evenodd" stroke="none"/>
    <path d="M5.15 -40.0 L6.5 -39.85 Q7.05 -39.7 7.05 -39.45 7.05 -39.2 6.5 -39.05 L5.15 -38.9 3.8 -39.05 3.25 -39.45 Q3.25 -39.7 3.8 -39.85 L5.15 -40.0" fill="#663366" fill-opacity="0.16078432" fill-rule="evenodd" stroke="none"/>
    <path d="M-5.3 -44.2 L-4.3 -44.7 -3.3 -44.1 Q-1.9 -21.7 -3.1 0.55 L-3.55 1.15 -5.45 0.8 Q-6.8 -21.65 -5.3 -44.2" fill="#663366" fill-opacity="0.16078432" fill-rule="evenodd" stroke="none"/>
    <path d="M3.45 -43.35 L4.7 -43.95 5.8 -43.35 Q6.45 -37.75 6.3 -32.1 L5.4 -13.35 Q5.35 -12.45 4.2 -11.95 L3.55 -12.2 3.2 -12.95 3.45 -43.35" fill="#663366" fill-opacity="0.16078432" fill-rule="evenodd" stroke="none"/>
    <path d="M-2.05 -43.2 L-1.55 -42.85 0.2 -43.1 5.8 -41.35 Q6.4 -40.3 6.2 -39.1 L6.05 -38.7 6.0 -38.35 Q5.75 -36.05 5.05 -33.85 L5.3 -33.1 Q5.9 -31.85 5.75 -30.4 L5.7 -29.7 Q5.8 -28.15 4.65 -26.9 L2.2 -24.45 1.05 -21.2 -1.8 -20.35 -2.55 -17.7 -5.7 -17.7 -6.3 -18.45 -5.8 -22.2 -5.65 -40.6 -3.7 -43.2 -2.8 -43.45 -2.05 -43.2" fill="#663366" fill-opacity="0.16078432" fill-rule="evenodd" stroke="none"/>
    <path d="M-5.95 -43.35 L-3.8 -44.7 2.2 -44.6 3.45 -44.0 5.8 -43.35 Q6.65 -41.1 6.3 -38.45 6.0 -36.35 6.4 -34.3 7.9 -27.15 6.8 -19.75 L6.45 -19.35 5.7 -19.1 4.8 -19.35 2.3 -21.35 Q0.45 -24.1 1.05 -27.35 L-0.2 -28.35 -1.7 -28.6 -3.0 -33.45 -5.2 -34.7 -5.8 -35.45 -5.55 -39.95 -5.95 -43.35" fill="#663366" fill-opacity="0.16078432" fill-rule="evenodd" stroke="none"/>
    <path d="M5.4 -3.55 L5.5 -3.1 5.4 -2.65 5.05 -2.45 4.75 -2.65 Q4.6 -2.85 4.6 -3.1 L4.75 -3.55 5.05 -3.75 5.4 -3.55" fill="#663366" fill-opacity="0.16078432" fill-rule="evenodd" stroke="none"/>
    <path d="M5.45 25.65 L4.55 25.9 3.8 25.65 3.3 24.9 4.0 -41.05 4.55 -41.35 5.45 -40.75 5.45 25.65" fill="#663366" fill-opacity="0.16078432" fill-rule="evenodd" stroke="none"/>
    <path d="M0.25 33.85 L0.8 32.55 -0.2 32.55 -1.45 33.4 0.25 33.85 M-6.0 33.1 L-5.05 32.1 -5.0 31.1 -3.3 29.9 -0.8 29.3 -0.3 29.3 4.15 30.05 Q5.35 30.2 5.85 31.15 L5.95 32.65 5.7 33.3 Q3.95 35.25 2.75 37.5 L1.5 39.1 0.85 39.55 Q-2.5 41.05 -4.95 38.3 L-5.2 36.45 -5.95 35.65 -6.0 33.1" fill="#663366" fill-opacity="0.16078432" fill-rule="evenodd" stroke="none"/>
    <path d="M-0.95 35.8 L1.3 35.4 -1.25 35.3 -0.95 35.8 M-2.2 29.05 L-1.8 27.95 -0.8 27.15 -0.2 27.4 1.95 29.4 2.45 30.05 3.45 30.4 5.3 32.3 5.55 36.05 5.8 37.1 Q6.7 39.55 5.45 41.3 0.45 42.75 -3.95 40.65 L-4.7 38.4 Q-4.7 36.7 -4.95 35.1 -5.55 31.2 -2.2 29.05" fill="#663366" fill-opacity="0.16078432" fill-rule="evenodd" stroke="none"/>
    <path d="M-2.1 33.2 L-1.8 32.7 -1.2 32.5 -0.55 32.7 -0.3 33.2 -0.55 33.7 -1.2 33.9 -1.8 33.7 -2.1 33.2" fill="#ffffff" fill-opacity="0.16078432" fill-rule="evenodd" stroke="none"/>
    <path d="M-7.85 30.25 Q-7.8 29.5 -7.2 29.9 L-6.95 42.45 Q-7.4 43.0 -7.95 42.6 L-8.15 42.2 Q-8.5 36.2 -7.85 30.25" fill="#ffffff" fill-opacity="0.16078432" fill-rule="evenodd" stroke="none"/>
    <path d="M-1.7 -43.8 Q-1.65 -44.4 -1.3 -44.3 L-1.05 -43.95 Q-0.35 -26.45 -0.45 -8.55 L-0.6 15.05 -0.75 23.3 -0.8 23.55 -0.9 23.7 Q-1.1 24.45 -1.55 24.05 L-1.6 23.9 -1.85 17.9 -2.1 0.25 -2.1 -11.55 -2.1 -23.4 -2.0 -35.2 -1.7 -43.8" fill="#ffffff" fill-opacity="0.16078432" fill-rule="evenodd" stroke="none"/>
    <path d="M-5.1 -44.25 L-4.8 -44.5 -4.6 -44.2 Q-3.8 -14.85 -3.95 14.9 L-4.0 20.35 -4.1 25.75 -4.15 25.95 -4.2 26.15 Q-4.4 26.95 -5.1 26.65 L-5.25 26.05 -5.55 14.25 -5.6 2.45 -5.6 -9.35 -5.6 -21.2 -5.45 -33.0 -5.1 -44.25" fill="#ffffff" fill-opacity="0.16078432" fill-rule="evenodd" stroke="none"/>
    <path d="M-1.7 25.5 L-1.4 26.25 -6.85 31.5 -7.8 32.15 -8.65 31.5 Q-7.55 29.85 -5.95 28.55 L-3.8 26.25 Q-2.8 25.0 -1.7 25.5" fill="#ffffff" fill-opacity="0.16078432" fill-rule="evenodd" stroke="none"/>
    <path d="M-3.7 26.2 L-2.7 26.4 -3.15 28.45 -3.0 30.5 -2.85 31.25 -4.5 35.55 -5.4 36.1 -6.95 38.85 -8.15 38.55 -7.8 32.2 -7.05 29.95 -3.7 26.2" fill="#ffffff" fill-opacity="0.16078432" fill-rule="evenodd" stroke="none"/>
    <path d="M-6.9 33.4 L-6.55 33.75 -6.45 34.7 -4.6 36.4 Q-3.3 36.15 -2.55 37.2 L-2.0 38.05 Q-1.7 38.45 -1.7 39.1 L-1.65 39.85 1.3 43.6 0.9 44.15 Q-3.4 44.4 -6.7 44.15 L-7.1 43.75 -7.2 42.1 -7.9 41.25 Q-8.25 41.1 -8.65 40.9 L-8.75 33.2 Q-8.25 32.6 -7.7 33.0 L-7.3 33.2 -7.2 33.25 -6.9 33.4" fill="#ffffff" fill-opacity="0.16078432" fill-rule="evenodd" stroke="none"/>
    <path d="M0.2 -9.15 L0.65 -9.55 2.0 -9.1 Q2.0 -2.1 2.25 4.4 2.55 11.35 1.45 18.05 L0.3 18.4 -0.2 14.8 -1.15 14.25 -1.8 9.3 -2.9 8.4 -2.05 4.7 -2.7 4.15 -2.7 1.7 -2.35 1.15 Q-2.05 -0.5 -2.3 -2.25 -2.4 -3.05 -2.0 -3.7 -0.9 -5.45 -0.4 -7.5 L0.05 -8.25 0.2 -9.15" fill="#ffffff" fill-opacity="0.16078432" fill-rule="evenodd" stroke="none"/>
    <path d="M-5.4 2.15 L-4.3 1.65 -3.55 1.9 -3.05 2.65 -2.5 10.85 Q-2.2 13.95 -3.8 16.15 L-5.05 16.05 Q-5.6 15.5 -5.65 14.55 -6.1 8.3 -5.4 2.15" fill="#ffffff" fill-opacity="0.16078432" fill-rule="evenodd" stroke="none"/>
    <path d="M-3.45 41.1 L-3.25 40.8 -3.05 41.1 -2.95 41.85 -3.05 42.6 -3.25 42.9 -3.45 42.6 -3.55 41.85 -3.45 41.1" fill="#333333" fill-rule="evenodd" stroke="none"/>
    <path d="M-3.8 -44.6 Q-3.8 -45.05 -3.3 -45.1 L-3.05 -44.8 Q-2.55 -21.35 -2.6 2.45 L-2.6 14.25 -2.65 22.9 -2.65 23.1 -2.7 23.4 Q-2.6 24.75 -3.65 24.6 L-3.75 23.25 -3.9 11.45 -3.95 -0.35 -3.95 -12.2 -3.95 -24.0 -3.95 -35.8 -3.8 -44.6" fill="#663366" fill-opacity="0.16078432" fill-rule="evenodd" stroke="none"/>
    <path d="M4.9 -42.8 Q4.95 -43.45 5.3 -43.35 L5.55 -43.05 5.95 -31.25 6.0 -19.45 6.0 -7.6 6.0 4.2 5.95 16.0 5.75 26.15 Q5.75 26.6 5.4 26.7 L5.1 26.5 Q4.7 20.6 4.65 14.7 L4.6 2.9 4.6 -8.95 4.6 -20.75 4.6 -32.55 Q4.6 -37.7 4.9 -42.8" fill="#663366" fill-opacity="0.16078432" fill-rule="evenodd" stroke="none"/>
    <path d="M-6.45 -44.5 L-6.35 -44.5 -6.1 -44.3 -6.0 -44.15 -5.9 -43.95 Q-5.6 -38.15 -5.65 -32.3 L-5.65 -20.5 -5.6 -8.7 -5.55 3.15 -5.5 14.95 -5.5 26.75 -5.5 28.4 -5.65 28.4 -5.95 28.45 -6.2 28.55 -6.55 28.75 -6.7 28.95 -6.85 29.1 -6.95 21.25 -6.9 9.45 -6.85 -2.35 -6.75 -14.2 -6.8 -26.0 -6.7 -37.8 -6.65 -43.65 -6.7 -43.8 -6.8 -44.0 -6.85 -44.2 -6.75 -44.35 -6.65 -44.45 -6.45 -44.5" fill="#333333" fill-rule="evenodd" stroke="none"/>
    <path d="M6.85 -43.65 L6.9 -32.0 6.9 -20.2 6.95 -8.35 7.0 3.45 6.9 15.25 Q6.7 21.15 6.65 27.1 L6.65 29.65 6.4 29.25 6.25 29.05 6.05 28.9 5.55 28.55 5.15 19.6 5.05 7.75 5.1 -4.05 5.25 -15.85 5.25 -27.7 5.25 -39.5 5.15 -43.45 5.25 -43.6 5.35 -43.8 5.5 -44.0 6.05 -44.1 6.05 -44.15 6.5 -44.0 6.75 -43.8 6.85 -43.65" fill="#333333" fill-rule="evenodd" stroke="none"/>
    <path d="M-5.95 -44.7 L-5.7 -44.75 -5.2 -44.8 5.8 -44.8 6.1 -44.7 6.3 -44.5 6.4 -44.3 6.4 -44.15 6.35 -43.95 6.25 -43.75 6.05 -43.65 5.8 -43.55 -5.2 -43.65 -6.1 -43.75 -6.2 -43.95 -6.25 -44.15 -6.25 -44.3 -6.2 -44.5 -6.1 -44.65 -5.95 -44.7" fill="#333333" fill-rule="evenodd" stroke="none"/>
    <path d="M6.2 44.45 L6.15 44.45 5.8 44.7 5.45 44.85 5.15 45.25 -6.0 45.2 -6.1 45.05 -6.25 44.8 -6.35 44.55 -6.25 44.35 -6.1 44.15 -5.9 43.9 -5.45 43.75 5.55 43.75 5.9 43.9 6.1 44.15 6.15 44.35 6.2 44.45" fill="#333333" fill-rule="evenodd" stroke="none"/>
    <path d="M-4.0 45.1 L-6.15 45.05 -6.45 44.75 -8.7 42.4 -9.0 42.0 -8.95 40.05 -4.0 45.1" fill="#333333" fill-rule="evenodd" stroke="none"/>
    <path d="M5.75 44.65 L5.4 44.8 5.2 45.0 3.45 45.05 4.75 43.65 8.75 39.75 8.75 41.85 6.05 44.45 Q5.9 44.5 5.75 44.65" fill="#333333" fill-rule="evenodd" stroke="none"/>
    <path d="M7.65 29.4 L8.05 29.3 8.1 29.45 8.3 29.6 8.5 29.8 8.65 29.95 8.8 33.05 8.8 41.45 8.8 42.0 8.8 42.1 8.6 42.2 8.4 42.4 7.65 43.15 7.5 43.35 7.4 43.25 7.3 43.05 7.2 38.0 7.3 32.75 7.5 29.75 7.55 29.6 7.65 29.4" fill="#333333" fill-rule="evenodd" stroke="none"/>
    <path d="M-8.35 29.75 L-8.15 29.95 -8.1 30.15 -7.9 34.8 -7.85 39.7 -7.85 42.5 -7.85 42.7 -7.95 42.9 -8.15 43.05 -8.2 43.1 -8.35 42.95 -8.45 42.75 -8.65 42.55 -8.7 42.4 -8.95 42.1 -8.9 33.05 -8.9 30.45 -8.85 29.95 -8.7 29.8 -8.65 29.8 -8.45 29.75 -8.35 29.75" fill="#333333" fill-rule="evenodd" stroke="none"/>
    <path d="M2.25 -44.2 L2.55 -44.25 2.9 -44.15 3.15 -43.95 3.3 -43.75 3.35 -32.1 3.35 -20.1 3.4 -8.05 3.35 -5.35 3.4 5.7 3.4 17.15 3.3 23.65 3.3 23.8 3.4 24.0 3.5 24.2 3.5 24.4 3.45 24.6 3.4 24.8 3.3 25.0 3.05 25.2 2.9 25.3 2.8 25.35 2.55 25.45 2.3 25.45 1.9 25.3 1.75 25.1 1.65 24.95 1.65 24.7 1.7 24.55 1.8 24.35 1.7 12.9 1.65 1.05 1.75 -5.45 1.8 -17.1 1.8 -29.15 1.75 -41.15 1.75 -43.65 1.8 -43.8 2.0 -44.0 2.1 -44.15 2.25 -44.2" fill="#333333" fill-rule="evenodd" stroke="none"/>
    <path d="M-2.3 25.4 L-2.5 25.45 -2.75 25.35 -2.9 25.15 -3.0 24.95 -3.05 13.3 -3.05 1.3 -3.1 -10.75 -3.05 -13.45 -3.1 -24.5 -3.1 -35.95 -3.0 -42.45 -3.0 -42.6 -3.1 -42.8 -3.15 -43.0 -3.15 -43.2 -3.1 -43.4 -3.1 -43.6 -3.0 -43.8 -2.85 -44.0 -2.75 -44.1 -2.65 -44.15 -2.5 -44.25 -2.35 -44.25 -2.05 -44.1 -1.95 -43.9 -1.9 -43.75 -1.9 -43.5 -1.9 -43.35 -2.0 -43.15 -1.9 -31.7 -1.9 -19.85 -1.95 -13.35 -2.0 -1.7 -2.0 10.35 -1.95 22.35 -1.95 24.85 -2.0 25.0 -2.15 25.2 -2.2 25.35 -2.3 25.4" fill="#333333" fill-rule="evenodd" stroke="none"/>
    <path d="M-2.55 23.55 L-2.55 25.05 -2.6 25.6 -5.35 28.45 -8.9 31.9 -8.95 29.85 -3.25 24.25 -2.55 23.55" fill="#333333" fill-rule="evenodd" stroke="none"/>
    <path d="M8.4 32.2 L8.3 32.0 8.3 31.8 8.2 31.6 2.05 25.85 2.2 25.0 2.4 23.7 5.15 26.55 8.9 30.7 8.85 30.95 8.65 32.45 8.5 32.3 8.4 32.2" fill="#333333" fill-rule="evenodd" stroke="none"/>
    <path d="M0.55 34.65 Q0.9 34.35 0.9 33.85 0.9 33.35 0.55 33.05 0.2 32.7 -0.3 32.7 -0.75 32.7 -1.1 33.05 -1.45 33.35 -1.45 33.85 -1.45 34.35 -1.1 34.65 L-0.3 35.0 Q0.2 35.0 0.55 34.65 M1.45 32.3 Q2.15 33.0 2.15 33.95 2.15 34.9 1.45 35.6 0.75 36.25 -0.2 36.25 -1.15 36.25 -1.8 35.6 -2.5 34.9 -2.5 33.95 -2.5 33.0 -1.8 32.3 -1.15 31.65 -0.2 31.65 0.75 31.65 1.45 32.3" fill="#333333" fill-rule="evenodd" stroke="none"/>
    <path d="M5.3 -38.55 L2.8 -38.55 2.8 -39.3 5.4 -39.25 5.6 -39.05 5.6 -38.9 5.55 -38.7 5.3 -38.55 M-2.45 -39.2 L-2.45 -38.5 -5.35 -38.5 -5.75 -38.45 -6.1 -38.55 -6.05 -38.75 -5.95 -38.95 -5.6 -39.05 -5.15 -39.2 -2.45 -39.2" fill="#333333" fill-rule="evenodd" stroke="none"/>
    <path d="M-6.15 -33.7 L-6.15 -33.85 -6.1 -34.05 -5.85 -34.2 -2.45 -34.2 -2.45 -33.45 -5.95 -33.5 -6.15 -33.7 M2.8 -33.55 L2.8 -34.25 4.8 -34.25 5.2 -34.3 5.55 -34.2 5.5 -34.0 5.4 -33.8 5.05 -33.7 4.6 -33.55 2.8 -33.55" fill="#333333" fill-rule="evenodd" stroke="none"/>
    <path d="M5.6 -29.05 L5.6 -28.9 5.55 -28.7 5.3 -28.55 2.8 -28.55 2.8 -29.3 5.4 -29.25 5.6 -29.05 M-2.45 -29.2 L-2.45 -28.5 -5.35 -28.5 -5.75 -28.45 -6.1 -28.55 -6.05 -28.75 -5.95 -28.95 -5.6 -29.05 -5.15 -29.2 -2.45 -29.2" fill="#333333" fill-rule="evenodd" stroke="none"/>
    <path d="M-6.15 -23.7 L-6.15 -23.85 -6.1 -24.05 -5.85 -24.2 -2.45 -24.2 -2.45 -23.45 -5.95 -23.5 -6.15 -23.7 M2.8 -23.55 L2.8 -24.25 4.8 -24.25 5.2 -24.3 5.55 -24.2 5.5 -24.0 5.4 -23.8 5.05 -23.7 4.6 -23.55 2.8 -23.55" fill="#333333" fill-rule="evenodd" stroke="none"/>
    <path d="M5.6 -19.05 L5.6 -18.9 5.55 -18.7 5.3 -18.55 2.8 -18.55 2.8 -19.3 5.4 -19.25 5.6 -19.05 M-2.45 -19.2 L-2.45 -18.5 -5.35 -18.5 -5.75 -18.45 -6.1 -18.55 -6.05 -18.75 -5.95 -18.95 -5.6 -19.05 -5.15 -19.2 -2.45 -19.2" fill="#333333" fill-rule="evenodd" stroke="none"/>
    <path d="M-6.15 -13.7 L-6.15 -13.85 -6.1 -14.05 -5.85 -14.2 -2.45 -14.2 -2.45 -13.45 -5.95 -13.5 -6.15 -13.7 M2.8 -13.55 L2.8 -14.25 4.8 -14.25 5.2 -14.3 5.55 -14.2 5.5 -14.0 5.4 -13.8 5.05 -13.7 4.6 -13.55 2.8 -13.55" fill="#333333" fill-rule="evenodd" stroke="none"/>
    <path d="M5.6 -9.05 L5.6 -8.9 5.55 -8.7 5.3 -8.55 2.8 -8.55 2.8 -8.6 2.8 -9.3 5.4 -9.25 5.6 -9.05 M-2.45 -9.2 L-2.45 -8.5 -5.35 -8.5 -5.75 -8.45 -6.1 -8.55 -6.05 -8.75 -5.95 -8.95 -5.6 -9.05 -5.15 -9.2 -2.45 -9.2" fill="#333333" fill-rule="evenodd" stroke="none"/>
    <path d="M-6.15 -3.7 L-6.15 -3.85 -6.1 -4.05 -5.85 -4.2 -2.45 -4.2 -2.45 -3.45 -5.95 -3.5 -6.15 -3.7 M2.8 -3.55 L2.8 -4.25 4.8 -4.25 5.2 -4.3 5.55 -4.2 5.5 -4.0 5.4 -3.8 5.05 -3.7 4.6 -3.55 2.8 -3.55" fill="#333333" fill-rule="evenodd" stroke="none"/>
    <path d="M5.6 0.95 L5.6 1.1 5.55 1.3 Q5.4 1.35 5.3 1.45 L2.8 1.45 2.8 0.7 5.4 0.75 5.6 0.95 M-2.45 0.8 L-2.45 1.5 -5.35 1.5 -5.75 1.55 -6.1 1.45 -6.05 1.25 -5.95 1.05 -5.6 0.95 -5.15 0.8 -2.45 0.8" fill="#333333" fill-rule="evenodd" stroke="none"/>
    <path d="M-6.15 6.3 L-6.15 6.15 -6.1 5.95 -5.85 5.8 -2.45 5.8 -2.45 6.55 -5.95 6.5 -6.15 6.3 M2.8 6.45 L2.8 5.75 4.8 5.75 5.2 5.7 5.55 5.8 5.5 6.0 5.4 6.2 5.05 6.3 4.6 6.45 2.8 6.45" fill="#333333" fill-rule="evenodd" stroke="none"/>
    <path d="M5.6 10.95 L5.6 11.1 5.55 11.3 Q5.4 11.35 5.3 11.45 L2.8 11.45 2.8 10.7 5.4 10.75 5.6 10.95 M-2.45 10.8 L-2.45 11.5 -5.35 11.5 -5.75 11.55 -6.1 11.45 -6.05 11.25 -5.95 11.05 -5.6 10.95 -5.15 10.8 -2.45 10.8" fill="#333333" fill-rule="evenodd" stroke="none"/>
    <path d="M-6.15 16.3 L-6.15 16.15 -6.1 15.95 -5.85 15.8 -2.45 15.8 -2.45 16.55 -5.95 16.5 -6.15 16.3 M2.8 16.45 L2.8 15.75 4.8 15.75 5.2 15.7 5.55 15.8 5.5 16.0 5.4 16.2 5.05 16.3 4.6 16.45 2.8 16.45" fill="#333333" fill-rule="evenodd" stroke="none"/>
    <path d="M5.6 20.95 L5.6 21.1 5.55 21.3 Q5.4 21.35 5.3 21.45 L2.8 21.45 2.8 20.7 5.4 20.75 5.6 20.95 M-2.45 20.8 L-2.45 21.5 -5.35 21.5 -5.75 21.55 -6.1 21.45 -6.05 21.25 -5.95 21.05 -5.6 20.95 -5.15 20.8 -2.45 20.8" fill="#333333" fill-rule="evenodd" stroke="none"/>
  </g>
</svg>
