<?xml version="1.0" encoding="UTF-8" standalone="no"?>
<svg xmlns:xlink="http://www.w3.org/1999/xlink" height="48.5px" width="23.5px" xmlns="http://www.w3.org/2000/svg">
  <g transform="matrix(1.0, 0.0, 0.0, 1.0, 1.0, 1.0)">
    <path d="M10.0 0.0 L11.25 0.35 13.0 2.0 15.0 5.5 16.55 8.1 19.55 11.45 21.0 14.0 21.5 15.0 18.0 15.3 15.1 15.9 13.55 16.3 12.55 20.1 11.45 23.9 10.1 27.75 9.0 30.7 8.5 32.0 6.75 35.6 4.85 39.1 2.75 42.5 1.05 44.95 0.0 46.5 M15.0 5.5 L12.95 9.0 11.4 11.55 10.25 13.2 7.0 18.0 9.9 17.5 13.0 16.55 13.55 16.3 13.95 14.5 14.55 10.5 14.9 7.5 15.0 5.5 Z" fill="none" stroke="#ffffff" stroke-linecap="round" stroke-linejoin="round" stroke-width="2.0"/>
  </g>
</svg>
