<?xml version="1.0" encoding="UTF-8" standalone="no"?>
<svg xmlns:xlink="http://www.w3.org/1999/xlink" height="20.65px" width="59.15px" xmlns="http://www.w3.org/2000/svg">
  <g transform="matrix(1.0, 0.0, 0.0, 1.0, 29.55, 10.0)">
    <path d="M-7.4 6.75 L-7.3 6.85 -7.25 6.95 -7.2 7.0 -7.2 7.1 -7.2 7.2 -7.2 7.3 -7.25 7.4 -7.3 7.5 -7.4 7.6 -7.5 7.65 -7.75 7.7 -19.65 7.7 -19.9 7.65 -20.05 7.6 -20.4 7.55 -20.7 7.5 -20.9 7.4 -21.05 7.3 -21.15 7.2 -21.2 7.1 -21.3 7.0 -21.4 6.9 -21.45 6.85 -21.45 6.75 -21.45 6.65 -21.45 6.55 -21.45 6.45 -21.4 6.35 -21.3 6.25 -21.2 6.2 -21.1 6.1 -20.9 6.1 -20.7 6.1 -20.55 6.0 -20.45 5.95 -20.35 5.85 -20.15 5.85 -16.65 6.05 -14.9 6.15 -10.9 6.2 -10.75 6.2 -10.5 6.25 -10.4 6.35 -10.25 6.35 -10.05 6.25 -9.95 6.2 -9.75 6.2 -9.5 6.2 -9.25 6.25 -9.15 6.35 -9.05 6.45 -9.0 6.5 -7.5 6.65 -7.4 6.75" fill="#663366" fill-opacity="0.16078432" fill-rule="evenodd" stroke="none"/>
    <path d="M-7.3 6.7 L-7.15 6.8 -7.1 6.9 -7.05 7.0 -7.0 7.1 -7.0 7.2 -7.05 7.25 -7.05 7.35 -7.0 7.45 -6.9 7.45 -6.65 7.5 -6.55 7.6 -6.25 7.7 -6.05 7.75 -5.9 7.85 -5.85 7.95 -5.8 8.0 -5.8 8.1 -5.8 8.2 -5.8 8.3 -5.7 8.4 -5.85 8.45 -5.95 8.55 -6.15 8.6 -6.25 8.6 -6.45 8.65 -6.65 8.7 -6.75 8.65 -7.0 8.6 -7.1 8.55 -7.15 8.55 -7.45 8.5 -7.65 8.5 -10.4 8.25 -10.55 8.25 -10.75 8.25 -12.5 8.25 -12.75 8.2 -12.95 8.1 -13.2 7.9 -13.3 7.85 -13.45 7.65 -13.55 7.45 -13.55 7.4 -15.0 7.25 -16.25 7.3 -17.95 7.1 -18.0 7.0 -18.05 6.95 -18.05 6.85 -18.0 6.75 -17.95 6.7 -17.5 6.6 -16.25 6.55 -11.7 6.55 -11.6 6.5 -11.4 6.5 -10.25 6.5 -10.05 6.55 -9.9 6.6 -7.5 6.65 -7.3 6.7" fill="#663366" fill-opacity="0.16078432" fill-rule="evenodd" stroke="none"/>
    <path d="M20.6 6.95 L20.6 7.0 20.6 7.1 20.6 7.2 20.55 7.3 20.5 7.4 20.45 7.5 20.4 7.6 20.25 7.7 20.0 7.7 16.5 7.85 16.35 7.95 16.3 8.0 16.1 8.05 15.6 8.1 15.35 8.15 15.1 8.2 11.5 8.2 11.25 8.15 11.15 8.1 10.6 8.1 7.8 8.4 7.75 8.5 7.7 8.6 7.65 8.7 7.5 8.75 7.25 8.8 6.65 8.9 6.55 8.95 6.35 9.0 6.05 9.05 5.75 9.1 5.55 9.15 5.45 9.25 5.4 9.35 5.25 9.45 5.0 9.5 3.9 9.65 3.8 9.7 3.6 9.75 2.85 9.7 2.6 9.65 2.25 9.65 2.1 9.7 1.85 9.6 1.75 9.5 1.7 9.45 1.6 9.35 1.55 9.25 1.6 9.15 1.7 9.05 1.75 8.95 1.85 8.85 2.1 8.8 2.3 8.75 2.6 8.6 2.65 8.5 2.65 8.45 2.65 8.35 2.7 8.25 2.75 8.15 3.1 7.85 3.7 7.75 4.35 7.7 4.6 7.6 4.8 7.5 5.1 7.35 5.2 7.35 5.35 7.3 5.5 7.25 5.85 7.2 6.15 7.15 6.3 7.1 6.35 7.05 6.55 7.0 6.75 6.95 6.9 7.0 7.0 7.05 7.1 7.05 7.55 6.95 7.9 6.9 8.75 6.7 9.85 6.7 10.1 6.75 11.5 6.8 12.4 6.75 12.55 6.75 14.05 6.45 16.5 6.15 19.25 6.15 19.5 6.2 19.65 6.3 19.7 6.35 20.0 6.4 20.25 6.45 20.4 6.55 20.45 6.65 20.5 6.75 20.55 6.85 20.6 6.95" fill="#663366" fill-opacity="0.16078432" fill-rule="evenodd" stroke="none"/>
    <path d="M14.5 6.25 L15.35 6.25 15.55 6.35 15.7 6.45 15.75 6.55 15.8 6.6 15.8 6.7 15.8 6.8 15.8 6.9 15.8 7.0 15.75 7.1 15.7 7.15 15.6 7.25 15.5 7.35 15.35 7.35 14.8 7.4 14.75 7.4 13.35 7.5 13.25 7.6 13.1 7.6 11.05 7.75 10.85 7.8 10.6 7.85 8.3 8.0 8.25 8.1 8.2 8.2 8.05 8.3 7.8 8.35 5.85 8.5 5.6 8.45 5.45 8.35 5.4 8.25 5.35 8.15 5.35 8.05 5.35 7.95 5.35 7.85 5.35 7.75 5.4 7.7 5.5 7.6 5.6 7.5 5.8 7.3 5.8 7.2 5.85 7.1 5.9 7.05 6.0 6.95 6.15 6.85 6.35 6.75 6.55 6.7 6.6 6.65 6.7 6.65 8.35 6.55 8.55 6.6 8.65 6.7 10.6 6.75 10.7 6.75 12.95 6.6 13.1 6.55 13.25 6.55 14.0 6.4 14.35 6.3 14.5 6.3 14.5 6.25" fill="#663366" fill-opacity="0.16078432" fill-rule="evenodd" stroke="none"/>
    <path d="M13.5 6.75 L13.65 6.7 17.6 6.55 17.65 6.55 17.85 6.5 18.05 6.55 18.2 6.65 18.25 6.75 18.3 6.85 18.35 6.95 18.35 7.0 18.3 7.1 18.3 7.2 18.3 7.3 18.25 7.4 18.2 7.5 18.1 7.6 18.0 7.65 14.55 7.75 14.45 7.75 14.25 7.8 13.8 7.85 13.7 7.95 13.55 8.05 13.35 8.1 13.1 8.2 13.0 8.25 12.95 8.25 12.75 8.3 12.3 8.45 10.5 8.65 10.05 8.7 9.95 8.75 9.45 8.9 7.25 8.95 7.0 8.9 6.8 8.9 5.1 9.85 4.85 9.9 3.6 10.15 3.3 10.2 2.25 10.3 2.2 10.4 2.05 10.5 1.95 10.55 Q0.15 10.8 -1.55 10.55 L-2.2 10.35 -3.35 10.05 -4.15 9.7 -4.3 9.6 -4.4 9.5 -4.5 9.4 -4.55 9.35 -4.55 9.25 -4.55 9.15 -4.55 9.05 -4.55 8.95 -4.5 8.85 -4.4 8.75 -4.3 8.7 -4.2 8.6 -4.0 8.6 -3.5 8.6 -3.25 8.65 -3.15 8.75 -3.05 8.85 -2.85 8.95 -2.75 9.0 -0.7 9.05 -0.35 9.0 1.1 8.8 1.3 8.7 1.35 8.6 1.45 8.5 1.6 8.45 1.65 8.45 1.85 8.4 1.9 8.35 2.1 8.35 2.35 8.4 2.45 8.5 2.6 8.5 4.5 7.9 5.0 7.6 5.1 7.5 5.2 7.45 5.3 7.35 5.55 7.3 5.9 7.15 6.55 6.75 6.7 6.65 6.8 6.55 6.85 6.45 6.95 6.35 7.05 6.25 7.15 6.2 7.35 6.2 7.6 6.25 7.7 6.35 7.8 6.45 7.85 6.5 7.85 6.6 7.9 6.7 7.9 6.8 7.9 6.9 7.9 7.0 8.05 7.0 8.15 6.95 8.8 6.75 9.85 6.2 10.1 6.15 10.1 6.1 10.35 6.1 10.6 6.2 10.7 6.25 10.75 6.35 10.8 6.45 10.85 6.55 10.85 6.65 10.85 6.75 10.8 6.85 12.6 6.85 12.85 6.8 13.5 6.75" fill="#663366" fill-opacity="0.16078432" fill-rule="evenodd" stroke="none"/>
    <path d="M8.8 -9.1 L24.05 -9.65 24.6 -9.7 28.0 -9.7 28.75 -9.5 29.15 -9.2 29.35 -8.85 29.5 -8.55 29.55 -8.2 29.6 -7.9 29.55 -7.6 29.5 -7.25 29.35 -6.95 29.15 -6.65 28.75 -6.3 28.0 -6.0 26.75 -5.35 25.55 -4.75 25.35 -4.4 25.35 -4.1 25.3 -3.8 25.25 -3.45 25.1 -3.15 24.9 -2.85 24.4 -2.2 23.85 -1.55 23.8 -1.2 23.75 -0.9 23.75 0.05 23.7 1.0 23.65 1.65 23.5 1.95 23.35 2.3 23.35 2.6 23.35 2.9 23.2 3.25 23.1 3.55 22.95 3.85 22.7 4.2 22.5 4.4 22.25 4.45 21.7 4.55 21.75 4.65 21.75 4.75 21.8 4.8 21.8 4.9 21.85 4.95 21.8 5.05 21.8 5.15 21.75 5.2 21.75 5.3 21.65 5.35 21.6 5.4 10.15 5.7 10.0 5.8 9.9 5.85 9.75 5.9 9.55 5.9 9.5 5.95 9.45 6.0 5.75 6.15 5.65 6.25 5.55 6.3 5.35 6.5 5.3 6.55 5.35 6.65 5.4 6.7 5.4 6.8 5.4 6.9 5.4 6.95 5.4 7.05 5.35 7.1 5.35 7.2 5.3 7.3 5.25 7.35 5.1 7.5 4.85 7.75 4.45 7.9 4.0 8.05 Q2.7 9.0 1.15 9.0 L1.0 9.0 -2.35 8.95 -2.6 8.9 -3.75 8.6 -3.85 8.5 -3.95 8.4 -4.1 8.35 -4.4 8.25 -4.7 8.15 -4.8 8.05 -4.9 8.0 -4.95 7.9 -5.3 7.7 -5.7 7.3 -5.75 7.2 -5.8 7.1 -5.8 7.05 -5.8 7.0 -5.85 6.85 -6.0 6.55 -6.4 6.3 -7.25 6.1 -7.65 5.8 -7.85 5.45 -7.85 5.4 -8.0 5.4 -8.05 5.5 -8.15 5.55 -9.7 5.9 -10.3 5.95 -11.8 6.0 -12.0 5.95 -12.1 5.85 -12.2 5.8 -12.3 5.7 -12.35 5.7 -13.1 5.65 -13.3 5.6 -13.4 5.5 -13.55 5.4 -13.75 5.35 -14.5 5.2 -15.35 4.95 -15.45 4.9 -15.6 4.9 -17.2 4.9 -18.05 5.15 -18.45 5.45 -18.7 5.65 -18.9 5.75 -19.55 5.85 -21.65 5.9 -22.5 5.65 -22.95 5.35 -23.1 5.0 -23.25 4.7 -23.3 4.4 -23.35 3.1 -23.35 1.2 -23.35 0.6 -23.35 -0.05 -23.35 -0.4 -23.5 -0.65 -24.1 -1.35 -25.0 -2.35 -25.35 -2.9 -25.45 -3.25 -25.45 -3.55 -25.45 -3.9 -25.45 -4.5 -25.45 -4.85 -25.55 -5.0 -26.75 -5.4 -27.4 -5.55 -27.65 -5.9 -27.8 -6.2 -27.8 -6.55 -27.75 -6.85 -27.65 -7.2 -27.6 -7.5 -27.6 -7.8 -27.55 -8.1 -27.35 -8.45 -27.05 -8.75 -26.3 -8.95 8.05 -9.3 8.8 -9.1" fill="#b0cedc" fill-rule="evenodd" stroke="none"/>
    <path d="M10.55 -4.9 L10.8 -4.25 10.75 -3.65 10.6 -3.0 10.4 -2.35 9.7 -1.75 9.1 -1.3 Q8.35 -1.1 7.75 -0.7 L7.4 -0.25 7.2 0.4 6.9 1.0 6.3 1.65 5.7 2.1 4.65 2.3 Q3.7 2.5 2.8 2.85 1.7 3.25 0.6 3.8 L-0.45 4.0 -3.4 4.5 -4.7 4.85 -6.4 4.85 -7.85 4.45 -8.95 4.45 -9.8 5.05 -10.4 5.5 -11.5 5.7 -12.9 5.2 -13.4 4.85 -19.1 4.35 -22.7 3.6 -23.55 2.9 -24.2 2.3 -24.85 1.65 -25.0 1.0 -25.05 0.4 -25.05 -0.25 -25.2 -0.8 -25.7 -1.5 -26.35 -2.15 -27.6 -3.4 -27.8 -4.05 -28.05 -4.7 -28.4 -5.35 -28.65 -5.95 -28.65 -6.6 -28.55 -7.2 -28.2 -7.85 -26.95 -8.95 -25.9 -9.05 -18.5 -9.35 -17.65 -9.6 -16.8 -9.8 -15.75 -9.9 -15.7 -10.0 -8.1 -10.0 -6.8 -9.6 -5.95 -8.95 -5.6 -8.3 -5.3 -7.65 -4.9 -7.45 Q1.1 -8.1 6.95 -6.75 L9.3 -6.2 10.15 -5.55 10.55 -4.9" fill="#ffffff" fill-opacity="0.16078432" fill-rule="evenodd" stroke="none"/>
    <path d="M-22.5 -8.25 L-21.7 -8.4 -21.65 -8.5 -20.6 -8.1 -16.55 -7.65 -15.3 -7.55 -11.25 -7.7 -8.1 -7.9 -6.8 -7.45 -6.15 -6.8 -5.95 -6.2 -5.75 -5.55 -5.55 -5.6 -4.85 -6.15 -4.25 -6.6 -4.05 -6.75 -3.0 -7.05 -1.7 -6.6 -1.15 -5.9 -0.85 -5.35 -0.7 -4.7 -0.65 -4.05 -0.65 -3.4 -1.1 -2.8 -1.55 -2.2 -2.15 -1.5 -2.35 -0.9 -2.55 -0.25 -2.95 0.4 -3.25 1.0 -3.65 1.65 -4.25 2.3 -5.55 2.75 -9.8 2.8 -11.25 2.95 -12.1 3.35 -13.2 3.5 -17.4 3.6 -18.9 3.15 -19.35 2.5 -19.75 1.9 -21.25 1.25 -21.85 0.6 -22.05 -0.05 -22.1 -0.65 -22.1 -1.3 -22.1 -1.95 -22.1 -2.55 Q-22.1 -2.9 -22.25 -3.1 L-22.9 -3.85 -23.55 -4.5 -23.75 -5.15 -23.8 -5.75 -23.8 -6.4 -23.7 -7.0 -23.35 -7.65 -22.95 -8.1 -22.5 -8.25" fill="#ffffff" fill-opacity="0.16078432" fill-rule="evenodd" stroke="none"/>
    <path d="M-8.7 -6.8 L-8.1 -6.15 -7.65 -5.55 -7.25 -4.9 -7.25 -4.25 -7.25 -3.65 -7.25 -3.0 -7.25 -2.35 -7.25 -1.75 -7.0 -1.1 -6.9 -0.45 -7.0 0.2 -7.3 0.8 -7.7 1.2 -8.1 1.45 -9.35 1.9 -9.45 2.5 -9.8 3.15 -10.4 3.8 -11.5 4.2 -14.0 4.2 -15.5 3.8 -17.4 3.35 -18.7 2.95 -19.35 2.3 -19.5 1.65 -19.55 1.05 -19.55 0.4 -19.55 -0.9 -19.55 -1.5 -19.4 -2.1 -18.9 -2.75 -18.25 -3.2 -17.4 -3.4 -14.0 -3.85 -14.0 -4.5 -14.0 -5.1 -13.95 -5.75 -13.8 -6.4 -13.4 -6.8 -13.15 -6.95 -12.35 -7.15 -12.35 -7.25 -9.8 -7.25 -8.7 -6.8" fill="#ffffff" fill-opacity="0.16078432" fill-rule="evenodd" stroke="none"/>
    <path d="M-12.55 -1.25 L-12.4 -1.1 -12.15 -0.85 -12.0 -0.7 -12.0 -0.6 -11.95 -0.55 -11.95 -0.45 -11.95 -0.4 -11.95 -0.2 -11.95 -0.15 -11.95 -0.05 -11.95 0.0 -11.95 0.1 -11.9 0.2 -11.85 0.25 -11.8 0.35 -11.75 0.4 -11.75 0.5 -11.7 0.6 -11.65 0.65 -11.55 0.75 -11.4 0.8 -11.35 0.9 -11.3 0.95 -11.25 1.05 -11.2 1.15 -11.2 1.2 -11.15 1.35 -11.15 1.45 -11.15 1.55 -11.1 1.6 -11.1 1.7 -11.1 2.0 -11.1 2.25 -11.1 2.5 -11.1 2.8 -11.1 2.9 -11.15 2.95 -11.2 3.05 -11.35 3.3 -11.65 3.6 -11.9 3.85 -11.95 3.9 -11.95 4.0 -11.95 4.1 -11.95 4.15 -11.95 4.25 -11.95 4.3 -11.95 4.4 -12.0 4.45 -12.0 4.55 -12.0 4.65 -12.05 4.7 -12.1 4.8 -12.1 4.85 -12.15 4.95 -12.35 5.1 -12.5 5.25 -12.65 5.45 -12.8 5.5 -13.65 5.8 -14.05 5.95 -16.4 5.95 -16.6 5.9 -16.75 5.8 -17.2 5.55 -17.6 5.25 -17.75 5.2 -17.85 5.1 -17.95 5.05 -18.0 4.95 -18.05 4.85 -18.1 4.8 -18.15 4.7 -18.15 4.65 -18.15 4.55 -18.15 4.45 -18.15 4.4 -19.05 4.35 -19.25 4.3 -19.4 4.25 -19.55 4.15 -19.65 4.05 -19.7 4.0 -19.75 3.9 -19.75 3.85 -19.75 3.75 -19.75 3.6 -19.75 3.45 -19.75 3.3 -19.75 3.1 -19.75 2.95 -19.75 2.9 -19.65 2.55 -19.6 2.25 -19.55 1.95 -19.5 1.7 -19.45 1.6 -19.4 1.55 -19.35 1.45 -19.35 1.35 -19.25 1.3 -19.25 1.2 -19.2 1.15 -19.15 1.05 -19.1 0.95 -19.05 0.9 -19.0 0.8 -18.95 0.75 -18.9 0.65 -18.9 0.6 -18.8 0.5 -18.8 0.4 -18.75 0.35 -17.45 -0.7 Q-16.4 -1.45 -15.2 -1.55 L-13.65 -1.5 -12.65 -1.35 -12.55 -1.25 M-17.85 0.8 L-17.95 0.9 -17.9 0.9 -17.8 0.85 -17.75 0.8 -17.7 0.75 -17.7 0.7 -17.75 0.7 -17.75 0.75 -17.85 0.8 M-14.25 4.65 L-14.3 4.75 -14.35 4.8 -14.4 4.9 -14.0 4.9 -13.6 4.75 -13.35 4.65 -13.25 4.6 -13.15 4.5 -13.15 4.45 -13.55 4.55 -13.95 4.6 -14.25 4.65" fill="#ffffff" fill-opacity="0.16078432" fill-rule="evenodd" stroke="none"/>
    <path d="M1.2 6.7 L1.25 6.8 1.25 6.85 1.25 6.95 1.25 7.0 1.25 7.1 1.25 7.2 1.25 7.35 1.25 7.4 1.25 7.5 1.25 7.6 1.25 7.65 1.25 7.75 1.2 7.8 1.2 7.9 1.15 7.95 1.15 8.05 1.1 8.2 1.1 8.3 1.05 8.35 1.05 8.45 1.0 8.55 0.95 8.6 0.95 8.7 0.9 8.75 0.85 8.85 0.8 8.95 0.7 9.0 0.65 9.1 0.55 9.15 0.45 9.25 0.25 9.3 -1.0 9.25 -1.95 9.1 -2.55 8.9 -4.6 8.25 -4.7 8.2 -4.85 8.15 -5.0 8.1 -5.35 8.05 -5.6 8.0 -6.05 7.9 -6.15 7.8 -6.2 7.75 -6.25 7.65 -6.25 7.6 -6.25 7.5 -6.35 7.4 -6.45 7.35 -6.55 7.25 -6.6 7.2 -6.7 7.1 -6.7 7.0 -6.7 6.95 -6.7 6.85 -6.7 6.8 -6.7 6.7 -6.7 6.6 -6.65 6.55 -6.55 6.45 -6.5 6.4 -6.4 6.3 -6.2 6.25 -6.05 6.15 -5.85 6.05 -5.65 6.05 -5.65 6.0 -3.35 6.1 -2.4 6.1 -0.8 6.15 -0.55 6.2 -0.35 6.3 -0.15 6.35 0.0 6.45 0.05 6.5 0.05 6.6 0.2 6.6 0.3 6.55 0.35 6.5 0.45 6.5 0.55 6.45 0.65 6.45 0.8 6.4 1.0 6.45 1.1 6.55 1.15 6.6 1.2 6.7 M0.0 7.75 L-0.05 7.8 -0.25 7.85 -0.4 8.0 -0.65 8.15 -0.8 8.25 -0.85 8.3 0.1 8.35 0.1 8.25 0.15 8.2 0.2 8.05 0.25 7.85 0.3 7.7 0.3 7.6 0.25 7.55 0.2 7.6 0.1 7.65 0.0 7.75" fill="#ffffff" fill-opacity="0.16078432" fill-rule="evenodd" stroke="none"/>
    <path d="M1.65 5.85 L1.75 5.9 1.8 6.0 1.85 6.05 1.9 6.15 1.9 6.2 1.85 6.3 1.85 6.4 1.8 6.45 1.7 6.55 1.6 6.6 1.45 6.6 0.9 6.7 0.5 6.8 0.4 6.85 0.25 6.85 0.0 6.9 -0.45 7.0 -0.45 7.1 -0.45 7.2 -0.45 7.25 -0.45 7.35 -0.45 7.5 -0.45 7.6 -0.5 7.65 -0.5 7.75 -0.5 7.8 -0.55 7.9 -0.6 7.95 -0.65 8.05 -0.7 8.15 -0.7 8.2 -0.75 8.3 -0.8 8.35 -0.8 8.45 -0.85 8.55 -0.95 8.6 -1.2 8.65 -1.95 8.65 -2.15 8.6 -2.65 8.4 -4.2 7.8 -4.7 7.7 -5.85 7.4 -6.3 7.25 -6.4 7.2 -6.5 7.1 -6.5 7.0 -6.55 6.95 -6.55 6.85 -6.55 6.8 -6.5 6.7 -6.5 6.6 -6.4 6.55 -6.3 6.45 -6.1 6.4 -5.55 6.45 -4.1 6.85 -3.9 6.85 -3.8 6.75 -3.7 6.7 -3.35 6.55 -3.15 6.55 -3.0 6.5 -2.85 6.45 -2.7 6.4 -2.55 6.3 -2.45 6.25 -2.25 6.2 -1.35 5.95 -0.9 5.9 -0.5 5.95 0.85 5.8 1.0 5.8 1.0 5.75 1.45 5.75 1.65 5.85" fill="#ffffff" fill-opacity="0.16078432" fill-rule="evenodd" stroke="none"/>
    <path d="M-3.25 6.45 L-2.8 6.5 -2.6 6.5 -2.05 6.55 -1.85 6.6 -1.7 6.7 -1.6 6.75 -1.55 6.85 -1.5 6.9 -1.45 7.0 -1.45 7.05 -1.5 7.15 -1.5 7.25 -1.55 7.3 -1.65 7.4 -1.85 7.45 -2.05 7.45 -2.45 7.45 -2.45 7.55 -2.4 7.65 -2.4 7.7 -2.4 7.8 -2.45 7.85 -2.45 7.95 -2.55 8.05 -2.6 8.1 -4.1 8.15 -4.5 8.1 -4.7 8.05 -4.8 7.95 -4.85 7.9 -4.9 7.8 -4.9 7.75 -4.95 7.65 -5.0 7.55 -5.05 7.5 -5.1 7.4 -5.1 7.35 -5.2 7.25 -5.25 7.2 -5.25 7.15 -5.1 7.05 -4.95 7.1 -4.8 7.1 -4.6 7.05 -4.4 7.15 -4.3 7.15 -4.25 7.1 -4.25 7.0 -4.2 6.95 -4.1 6.85 -3.95 6.8 -3.65 6.6 -3.5 6.55 -3.4 6.5 -3.25 6.5 -3.25 6.45" fill="#ffffff" fill-opacity="0.16078432" fill-rule="evenodd" stroke="none"/>
    <path d="M8.7 -8.95 L8.8 -8.9 8.85 -8.8 8.9 -8.75 8.95 -8.65 9.0 -8.55 9.0 -8.5 8.9 -8.4 8.9 -8.35 8.85 -8.25 8.75 -8.2 8.7 -8.1 6.85 -8.05 6.65 -8.05 -1.35 -7.8 -1.45 -7.75 -2.15 -7.6 -2.3 -7.6 -14.15 -7.55 -14.35 -7.6 -14.45 -7.7 -14.55 -7.75 -14.6 -7.85 -14.6 -7.9 -16.85 -7.9 -16.9 -7.8 -16.95 -7.75 -17.15 -7.75 -22.3 -7.75 -22.5 -7.75 -22.9 -7.8 -26.7 -7.9 -26.9 -7.95 -27.0 -8.0 -27.05 -8.1 -27.05 -8.2 -27.05 -8.25 -27.05 -8.35 -27.05 -8.4 -27.0 -8.5 -26.9 -8.55 -26.7 -8.65 -25.15 -8.75 -25.1 -8.85 -25.1 -8.9 -24.95 -9.0 -24.8 -9.05 -24.65 -9.15 -22.75 -9.25 -22.45 -9.25 -14.7 -9.55 -14.6 -9.5 -14.45 -9.5 -14.35 -9.4 -6.1 -9.35 -5.6 -9.3 -5.4 -9.3 -0.8 -9.0 6.35 -8.95 6.4 -8.95 8.35 -9.05 8.45 -9.05 8.7 -8.95" fill="#ffffff" fill-opacity="0.16078432" fill-rule="evenodd" stroke="none"/>
    <path d="M7.5 -3.65 L11.2 -3.65 11.4 -3.6 11.55 -3.5 11.6 -3.4 11.65 -3.35 12.8 -3.3 13.45 -3.25 14.1 -3.25 23.5 -3.15 23.65 -3.25 23.85 -3.3 24.05 -3.3 24.25 -3.25 24.4 -3.15 24.5 -3.05 25.0 -3.0 25.25 -2.95 25.35 -2.85 25.4 -2.8 25.45 -2.7 25.5 -2.65 25.5 -2.55 25.5 -2.45 25.5 -2.4 25.5 -2.3 25.5 -2.25 25.45 -2.15 25.4 -2.05 25.3 -2.0 25.25 -1.95 25.15 -1.9 25.0 -1.9 23.9 -1.8 23.65 -1.8 22.35 -1.7 22.15 -1.75 22.0 -1.85 21.8 -1.85 21.6 -1.8 21.25 -1.75 21.05 -1.7 20.3 -1.6 19.2 -1.45 18.85 -1.45 17.85 -1.3 Q14.4 -0.95 10.9 -1.15 L10.7 -1.2 10.55 -1.25 10.5 -1.35 10.45 -1.45 10.4 -1.5 10.4 -1.6 10.4 -1.65 6.25 -1.7 -1.5 -1.85 -3.9 -1.9 -4.45 -1.95 -15.55 -1.85 -20.6 -1.7 -22.85 -1.6 -23.05 -1.65 -23.15 -1.75 -23.25 -1.8 -23.3 -1.9 -23.3 -1.95 -23.3 -2.05 -23.3 -2.1 -23.3 -2.2 -23.25 -2.3 -23.15 -2.35 -23.05 -2.45 -22.85 -2.5 -26.85 -2.5 -27.05 -2.55 -27.15 -2.65 -27.25 -2.75 -27.3 -2.8 -27.3 -2.9 -27.3 -2.95 -27.3 -3.05 -27.3 -3.15 -27.3 -3.2 -27.2 -3.3 -27.1 -3.35 -27.05 -3.4 -27.0 -3.45 -26.85 -3.45 -14.65 -3.4 -12.1 -3.45 -9.4 -3.6 -9.05 -3.6 -9.05 -3.65 -1.4 -3.65 1.15 -3.65 7.5 -3.65" fill="#663366" fill-opacity="0.16078432" fill-rule="evenodd" stroke="none"/>
    <path d="M18.85 -3.15 Q19.9 -3.7 21.05 -3.9 L21.85 -4.05 23.4 -4.05 23.6 -4.0 23.7 -3.9 23.75 -3.8 23.75 -3.75 23.8 -3.65 23.8 -3.6 23.8 -3.5 23.8 -3.4 23.9 -3.4 23.95 -3.45 24.05 -3.45 24.2 -3.4 24.35 -3.35 24.4 -3.25 24.45 -3.2 24.7 -3.1 25.2 -2.9 25.3 -2.8 25.35 -2.75 25.4 -2.65 25.4 -2.55 25.4 -2.5 25.4 -2.35 25.4 -2.0 25.4 -1.6 25.4 -1.55 25.4 -1.45 25.35 -1.05 25.2 -0.5 25.05 -0.1 25.0 0.05 24.95 0.15 24.9 0.2 24.9 0.3 24.85 0.35 24.85 0.45 24.8 0.55 24.75 0.6 24.75 0.7 24.7 0.75 24.65 0.85 24.6 0.95 24.6 1.0 24.55 1.1 24.5 1.15 24.5 1.25 24.45 1.35 24.4 1.4 24.4 1.5 24.35 1.55 24.3 1.65 24.25 1.7 24.2 1.8 24.2 1.9 24.15 1.95 24.1 2.05 24.05 2.1 24.0 2.2 23.95 2.3 23.85 2.45 23.8 2.5 23.75 2.6 23.7 2.7 23.7 2.75 23.65 2.85 23.65 2.9 23.6 3.0 23.6 3.1 23.55 3.15 23.5 3.25 23.5 3.3 23.5 3.4 23.5 3.55 23.5 3.8 23.5 3.85 23.5 3.95 23.45 4.05 23.4 4.1 23.35 4.2 23.3 4.25 23.25 4.35 23.25 4.45 23.2 4.5 23.15 4.6 23.1 4.65 23.0 4.75 22.85 4.85 22.85 4.9 22.8 5.0 22.8 5.05 22.75 5.15 22.75 5.2 22.75 5.3 22.75 5.4 22.7 5.45 22.65 5.55 22.6 5.6 22.45 5.7 22.25 5.75 22.05 5.7 21.9 5.6 21.85 5.55 21.8 5.45 21.8 5.4 21.2 5.4 20.35 5.45 20.15 5.4 20.0 5.35 19.95 5.3 18.05 5.75 16.4 5.85 16.2 5.8 16.05 5.75 16.0 5.7 14.4 5.75 14.2 5.7 14.05 5.6 14.0 5.55 13.95 5.45 13.9 5.4 13.9 5.3 13.9 5.2 13.9 5.15 13.9 5.05 13.95 5.0 14.0 4.9 14.05 4.85 14.15 4.75 14.3 4.65 14.35 4.6 14.35 4.5 14.35 4.45 14.4 4.35 14.4 4.25 14.45 4.2 14.8 3.9 15.35 3.4 15.3 3.3 15.25 3.25 15.2 3.15 15.2 3.1 15.2 3.0 15.2 2.9 15.2 2.75 15.2 2.6 15.25 2.5 15.3 2.45 15.7 1.95 16.2 1.45 16.35 1.15 16.35 1.1 16.35 1.0 16.4 0.95 16.45 0.85 16.5 0.75 16.5 0.7 16.55 0.6 16.6 0.55 17.0 -0.05 17.5 -0.7 17.8 -1.0 17.9 -1.05 18.05 -1.15 18.1 -1.2 17.8 -1.25 17.6 -1.25 17.55 -1.35 17.5 -1.45 17.5 -1.5 17.45 -1.6 17.4 -1.65 17.35 -1.75 17.35 -1.85 17.35 -1.9 17.35 -2.0 17.35 -2.05 17.35 -2.25 17.35 -2.3 17.35 -2.4 17.4 -2.45 17.5 -2.55 17.55 -2.65 17.7 -2.7 17.85 -2.8 18.15 -2.9 18.2 -2.95 18.35 -2.95 18.75 -3.05 18.85 -3.15" fill="#663366" fill-opacity="0.16078432" fill-rule="evenodd" stroke="none"/>
    <path d="M8.35 -4.05 L8.65 -4.0 8.9 -3.95 9.3 -3.85 9.5 -3.8 9.55 -3.7 9.6 -3.65 9.65 -3.6 9.7 -3.7 9.7 -3.75 9.75 -3.85 9.85 -3.95 9.95 -4.0 12.7 -3.8 14.15 -3.5 14.65 -3.45 14.75 -3.45 14.8 -3.55 14.85 -3.65 14.9 -3.7 15.05 -3.8 15.25 -3.85 15.35 -3.85 15.6 -3.8 15.7 -3.7 15.75 -3.65 15.8 -3.55 15.85 -3.45 15.85 -3.4 15.85 -3.3 15.85 -3.25 15.9 -3.15 15.95 -3.1 16.1 -3.05 24.05 -3.45 24.25 -3.4 24.4 -3.3 24.45 -3.25 24.45 -3.15 24.5 -3.05 24.5 -3.0 24.5 -2.9 24.45 -2.85 24.45 -2.75 24.4 -2.7 24.25 -2.6 24.05 -2.55 24.4 -2.5 24.6 -2.45 24.7 -2.4 24.8 -2.3 24.85 -2.25 24.85 -2.15 24.9 -2.05 24.9 -2.0 24.85 -1.9 24.85 -1.85 24.75 -1.75 24.7 -1.7 24.6 -1.6 24.4 -1.6 23.7 -1.55 23.55 -1.5 23.5 -1.4 23.4 -1.3 23.3 -1.25 23.2 -1.15 23.15 -1.1 23.05 -1.0 22.85 -0.95 22.75 -0.85 22.75 -0.75 22.75 -0.7 22.75 -0.6 22.75 -0.55 22.75 -0.45 22.7 -0.35 22.65 -0.3 22.6 -0.2 22.45 -0.15 22.35 -0.05 22.2 0.05 22.05 0.1 22.1 0.2 22.1 0.25 22.1 0.35 22.05 0.4 21.95 0.6 21.9 0.65 21.8 0.75 21.65 0.8 21.4 0.95 21.35 1.0 21.05 1.05 20.6 1.15 19.65 1.35 20.65 1.35 20.9 1.4 21.0 1.5 21.05 1.55 21.1 1.65 21.15 1.7 21.15 1.8 21.3 1.9 21.4 1.95 21.45 2.05 21.45 2.1 21.5 2.2 21.5 2.3 21.5 2.35 21.5 2.45 21.5 2.5 21.5 2.6 21.5 2.7 21.45 2.75 21.4 2.85 21.35 2.9 21.2 3.0 21.2 3.1 21.2 3.15 21.25 3.25 21.25 3.3 21.3 3.4 21.25 3.45 21.25 3.55 21.2 3.65 21.15 3.7 21.1 3.8 21.1 3.85 21.0 3.95 20.65 4.2 20.15 4.45 19.55 4.65 19.45 4.75 19.45 4.85 19.45 4.9 19.45 5.0 19.4 5.05 19.35 5.15 19.3 5.2 19.2 5.3 19.1 5.4 19.0 5.45 16.45 5.95 Q13.85 6.4 11.25 6.05 L11.1 5.95 11.05 5.9 11.0 5.8 10.95 5.75 10.95 5.65 9.0 5.5 8.15 5.25 8.05 5.15 8.0 5.1 8.0 5.0 7.95 4.95 7.95 4.85 7.95 4.75 7.95 4.7 7.95 4.6 8.0 4.55 8.05 4.45 8.1 4.4 8.2 4.3 8.3 4.25 9.05 4.15 9.05 4.1 9.05 4.0 9.1 3.9 9.1 3.85 9.15 3.75 9.2 3.7 9.25 3.6 9.3 3.55 9.9 3.2 11.4 2.65 11.5 2.55 11.6 2.5 11.75 2.4 11.85 2.35 11.9 2.25 12.0 2.15 12.0 2.1 12.0 2.0 12.0 1.95 12.0 1.85 12.05 1.8 12.15 1.7 12.2 1.6 12.25 1.55 12.25 1.45 12.3 1.4 12.35 1.3 12.3 1.2 12.25 1.15 12.2 1.05 12.2 1.0 12.15 0.9 12.1 0.8 12.1 0.75 12.1 0.65 12.1 0.6 12.15 0.5 12.2 0.4 12.15 0.35 12.0 0.25 11.9 0.2 11.85 0.1 11.85 0.05 11.8 -0.05 11.8 -0.15 11.8 -0.2 11.8 -0.3 11.8 -0.35 11.8 -0.45 11.8 -0.55 11.8 -0.65 11.6 -0.65 11.35 -0.6 11.2 -0.6 11.0 -0.65 10.85 -0.7 10.8 -0.8 10.7 -0.9 10.7 -0.95 10.7 -1.05 10.7 -1.1 10.7 -1.2 10.5 -1.3 10.25 -1.4 9.65 -1.5 9.5 -1.55 9.45 -1.65 9.35 -1.7 9.3 -1.8 9.3 -1.9 9.25 -1.95 9.2 -2.05 9.15 -2.1 9.05 -2.2 9.0 -2.3 8.7 -2.45 8.6 -2.5 8.45 -2.6 8.35 -2.7 8.2 -2.75 8.15 -2.85 8.05 -2.9 8.05 -3.0 8.0 -3.1 7.95 -3.15 7.9 -3.25 7.85 -3.3 7.85 -3.4 7.85 -3.45 7.85 -3.55 7.85 -3.65 7.9 -3.7 7.95 -3.8 8.0 -3.85 8.1 -3.95 8.2 -4.0 8.35 -4.0 8.35 -4.05 M23.2 -2.5 L23.3 -2.45 23.5 -2.5 23.2 -2.5" fill="#663366" fill-opacity="0.16078432" fill-rule="evenodd" stroke="none"/>
    <path d="M14.0 -8.8 L16.3 -8.9 16.55 -8.85 16.65 -8.75 16.75 -8.75 19.95 -9.05 20.15 -9.1 20.3 -9.1 20.3 -9.15 22.7 -9.0 24.5 -8.85 25.2 -8.8 25.45 -8.75 25.55 -8.65 25.65 -8.55 25.7 -8.5 25.75 -8.45 25.85 -8.4 26.0 -8.35 26.2 -8.3 26.35 -8.2 26.4 -8.1 26.45 -8.0 26.5 -7.9 26.55 -7.8 26.55 -7.75 26.55 -7.65 26.55 -7.55 26.5 -7.45 26.45 -7.35 26.3 -7.05 26.2 -6.9 26.05 -6.7 25.9 -6.5 25.8 -6.4 25.7 -6.35 25.65 -6.35 25.35 -6.25 25.0 -6.1 24.65 -5.9 24.65 -5.85 24.8 -5.75 24.9 -5.65 24.95 -5.55 25.0 -5.45 25.05 -5.35 25.05 -5.25 25.05 -5.15 25.0 -5.05 24.95 -5.0 24.9 -4.9 24.8 -4.8 24.7 -4.7 24.6 -4.6 24.5 -4.55 24.3 -4.5 24.1 -4.5 23.9 -4.5 23.8 -4.4 23.8 -4.3 23.85 -4.25 23.9 -4.15 23.9 -4.05 23.85 -3.95 23.8 -3.85 23.75 -3.75 23.7 -3.65 23.55 -3.55 23.3 -3.5 21.55 -3.55 21.3 -3.6 21.15 -3.7 19.25 -3.7 18.95 -3.6 13.1 -3.8 12.9 -3.9 12.8 -4.0 12.7 -4.1 12.65 -4.15 12.65 -4.25 12.65 -4.55 12.65 -4.8 12.65 -5.0 12.65 -5.2 12.65 -5.3 12.65 -5.55 12.65 -5.75 12.7 -5.85 12.75 -5.95 12.8 -6.05 12.85 -6.15 12.9 -6.25 12.9 -6.3 12.95 -6.4 13.0 -6.5 13.1 -6.6 13.15 -6.7 13.15 -6.8 13.15 -7.0 13.15 -7.15 13.15 -7.35 13.15 -7.45 13.15 -7.65 13.15 -7.75 13.15 -7.8 13.15 -7.9 13.15 -8.0 13.2 -8.1 13.25 -8.2 13.3 -8.3 13.4 -8.4 13.5 -8.5 13.55 -8.55 13.65 -8.65 13.8 -8.75 14.0 -8.8 M13.9 -5.65 L13.85 -5.55 13.8 -5.45 13.75 -5.35 13.75 -5.25 13.75 -5.15 13.9 -5.25 14.05 -5.45 14.25 -5.65 14.25 -5.75 14.25 -5.8 14.2 -5.9 14.2 -6.0 14.15 -6.0 14.0 -5.9 13.95 -5.8 13.9 -5.75 13.9 -5.65" fill="#663366" fill-opacity="0.16078432" fill-rule="evenodd" stroke="none"/>
    <path d="M16.9 -2.65 L21.3 -2.85 22.45 -3.1 23.5 -3.25 23.5 -3.3 23.5 -3.4 23.55 -3.5 23.55 -3.6 23.55 -3.7 23.55 -3.8 23.6 -3.9 23.65 -3.95 23.7 -4.1 23.75 -4.15 23.75 -4.25 23.8 -4.35 23.85 -4.4 23.95 -4.4 24.0 -4.4 24.1 -4.3 24.15 -4.25 24.15 -4.15 24.2 -4.05 24.25 -3.95 24.3 -3.85 24.3 -3.75 24.3 -3.65 24.3 -3.55 24.35 -3.5 24.4 -3.4 24.4 -3.3 24.4 -3.2 24.4 -3.1 24.45 -3.0 24.5 -2.9 24.55 -2.8 24.55 -2.75 24.6 -2.65 24.6 -2.55 24.6 -2.35 24.6 -2.25 24.6 -2.05 24.55 -2.0 24.55 -1.9 24.5 -1.8 24.4 -1.7 24.3 -1.6 24.05 -1.5 23.8 -1.35 22.5 -1.0 21.75 -0.9 21.65 -0.8 16.9 -0.4 16.8 -0.35 15.95 -0.3 15.7 -0.35 15.55 -0.4 13.35 -0.7 Q12.95 -0.8 12.6 -1.0 L11.15 -1.15 9.8 -1.35 9.65 -1.4 Q1.55 -1.35 -6.5 -1.85 L-7.05 -1.9 Q-7.6 -2.05 -8.05 -2.5 L-8.3 -2.55 -8.75 -2.65 -8.8 -2.75 -8.85 -2.8 -8.85 -2.9 -8.8 -3.0 -8.75 -3.05 -8.55 -3.1 -8.05 -3.2 -7.9 -3.15 -7.8 -3.15 -7.6 -3.05 -7.35 -2.9 -6.9 -2.7 -6.75 -2.75 -6.75 -2.8 -6.75 -2.9 -6.65 -3.05 -6.55 -3.15 -6.45 -3.25 -6.2 -3.25 -3.3 -3.3 -3.05 -3.25 -2.95 -3.15 Q5.2 -3.4 13.3 -3.3 L15.8 -3.0 15.9 -2.9 16.8 -2.75 16.9 -2.65" fill="#663366" fill-opacity="0.16078432" fill-rule="evenodd" stroke="none"/>
    <path d="M16.65 -7.6 L16.75 -7.7 17.2 -7.95 19.8 -8.8 21.05 -9.0 22.45 -9.0 22.65 -8.95 22.8 -8.85 22.85 -8.75 22.9 -8.65 22.95 -8.55 22.95 -8.5 22.95 -8.4 22.95 -8.3 22.95 -8.2 22.9 -8.1 22.85 -8.0 22.8 -7.9 22.65 -7.8 22.55 -7.75 22.55 -7.65 22.55 -7.55 22.55 -7.45 22.55 -7.35 22.5 -7.25 22.45 -7.05 22.4 -6.8 22.35 -6.7 22.3 -6.6 22.2 -6.5 22.1 -6.45 21.95 -6.45 21.5 -6.4 21.35 -6.35 20.15 -5.85 19.05 -5.75 18.95 -5.65 19.2 -5.55 19.3 -5.5 19.5 -5.4 19.6 -5.3 19.75 -5.3 19.95 -5.25 20.55 -5.15 20.75 -5.15 20.8 -5.1 22.7 -5.05 22.95 -5.0 23.05 -4.9 23.15 -4.8 23.2 -4.75 23.25 -4.65 23.25 -4.55 23.25 -4.45 23.25 -4.35 23.2 -4.25 23.15 -4.15 23.05 -4.05 22.95 -4.0 22.9 -4.0 22.6 -3.9 22.45 -3.85 22.4 -3.8 18.85 -3.75 17.8 -3.7 17.55 -3.75 17.4 -3.85 Q10.2 -4.15 2.9 -3.9 L2.75 -3.8 2.55 -3.8 1.8 -3.8 1.55 -3.85 1.45 -3.9 -10.2 -3.95 -10.45 -4.0 -10.6 -4.1 -10.65 -4.2 -10.75 -4.3 -10.75 -4.4 -10.75 -4.5 -10.75 -4.55 -10.75 -4.65 -10.75 -4.75 -10.65 -4.85 -10.55 -4.95 -10.45 -5.0 14.55 -5.8 14.8 -5.75 14.9 -5.7 15.2 -5.65 15.4 -5.65 15.5 -5.6 17.4 -5.65 17.35 -5.75 17.25 -5.8 17.0 -5.8 16.8 -5.85 16.55 -5.9 16.4 -6.0 16.35 -6.1 16.3 -6.2 16.25 -6.3 16.25 -6.4 16.2 -6.5 16.2 -6.55 16.2 -6.65 16.2 -6.75 16.2 -6.85 16.2 -6.95 16.25 -7.05 16.3 -7.15 16.4 -7.3 16.65 -7.6" fill="#663366" fill-opacity="0.16078432" fill-rule="evenodd" stroke="none"/>
    <path d="M12.9 -7.15 L13.05 -7.25 13.1 -7.25 13.7 -7.35 15.55 -7.45 15.75 -7.5 17.5 -7.55 17.55 -7.6 18.2 -7.75 19.05 -7.9 19.45 -8.15 Q20.0 -8.6 20.7 -8.7 L21.8 -8.8 22.45 -8.8 22.7 -8.8 22.9 -8.75 23.05 -8.65 23.15 -8.55 23.2 -8.45 23.3 -8.35 23.4 -8.25 23.55 -8.15 23.8 -8.05 24.05 -8.0 24.15 -7.9 24.25 -7.8 24.35 -7.7 24.45 -7.6 24.5 -7.5 24.55 -7.4 24.55 -7.3 24.55 -7.25 24.55 -7.05 24.55 -6.75 24.55 -6.55 24.55 -6.5 24.55 -6.4 24.5 -6.3 24.45 -6.2 24.4 -6.1 24.35 -6.0 24.2 -5.9 24.05 -5.8 23.9 -5.75 23.7 -5.75 22.75 -5.65 22.6 -5.55 22.5 -5.5 22.45 -5.5 20.95 -5.45 20.75 -5.5 19.8 -5.6 19.45 -5.65 19.3 -5.65 19.2 -5.65 19.05 -5.65 18.8 -5.7 18.75 -5.75 7.0 -5.55 6.8 -5.45 5.85 -5.25 5.25 -5.1 5.05 -5.1 3.3 -5.05 3.05 -5.15 2.9 -5.25 2.85 -5.25 2.7 -5.3 2.45 -5.4 2.3 -5.5 0.05 -5.5 -1.1 -5.45 -1.2 -5.4 -1.7 -5.35 -2.8 -5.3 -3.05 -5.4 -3.2 -5.5 -7.45 -5.5 -7.75 -5.55 -8.15 -5.75 -8.55 -5.9 -8.7 -5.95 -8.95 -5.95 -9.45 -5.85 -12.0 -5.8 -12.1 -5.75 -12.3 -5.7 -12.6 -5.65 -12.75 -5.6 -12.95 -5.55 -14.75 -5.4 -14.85 -5.35 -23.85 -5.2 -25.0 -5.15 -25.1 -5.1 -25.3 -5.1 -26.55 -5.05 -26.8 -5.15 -26.95 -5.2 -27.55 -5.25 -27.8 -5.3 -27.9 -5.4 -28.0 -5.5 -28.05 -5.55 -28.1 -5.65 -28.1 -5.75 -28.1 -5.85 -28.05 -5.95 -28.0 -6.05 -27.9 -6.15 -27.8 -6.25 -11.7 -6.95 -11.0 -7.15 -8.65 -7.05 -8.0 -7.05 -7.9 -7.1 -6.3 -7.15 -6.05 -7.05 -5.95 -7.0 -5.85 -6.9 -5.85 -6.8 -5.75 -6.7 -5.55 -6.65 -2.3 -6.7 -2.15 -6.75 Q3.7 -7.0 9.6 -6.9 L11.25 -7.15 12.9 -7.15" fill="#663366" fill-opacity="0.16078432" fill-rule="evenodd" stroke="none"/>
    <path d="M9.9 -9.8 L26.8 -9.8 27.1 -9.8 27.15 -9.8 27.4 -9.8 27.55 -9.75 27.6 -9.7 28.0 -9.65 28.1 -9.55 28.15 -9.5 28.25 -9.4 28.35 -9.3 28.4 -9.2 28.5 -9.1 28.65 -9.0 28.7 -8.9 28.75 -8.8 28.85 -8.75 28.9 -8.55 28.9 -8.25 28.9 -7.9 28.9 -7.4 28.9 -7.3 28.65 -6.75 27.55 -5.85 27.2 -5.6 27.25 -5.55 27.3 -5.3 27.3 -5.0 27.3 -4.65 27.35 -4.45 27.3 -4.35 27.25 -4.25 27.2 -4.15 27.15 -4.05 27.1 -3.95 26.95 -3.9 26.65 -3.7 26.55 -3.65 26.05 -3.5 25.5 -3.25 25.5 -3.1 25.4 -3.1 24.95 -1.15 24.1 2.15 23.5 4.1 23.45 4.2 23.4 4.3 23.25 4.75 23.15 5.25 23.2 5.3 23.2 5.45 23.15 5.5 23.15 5.55 23.0 5.7 23.0 5.8 22.95 5.85 22.95 5.9 22.9 6.0 22.8 6.1 22.7 6.2 22.65 6.25 22.55 6.3 22.4 6.2 21.85 6.2 21.8 6.2 21.65 6.25 19.45 6.25 19.55 6.35 19.6 6.4 19.6 6.5 19.5 6.6 19.4 6.65 19.35 6.7 9.5 6.75 8.35 6.7 7.85 6.65 7.55 6.65 7.5 6.65 7.4 6.65 7.25 6.6 7.2 6.5 6.35 6.5 6.35 6.6 6.35 6.65 6.3 6.75 6.3 6.8 6.2 6.9 6.2 7.0 6.15 7.15 6.1 7.3 6.1 7.4 6.05 7.45 5.95 7.55 5.6 7.85 5.35 8.15 5.1 8.5 Q2.95 9.65 0.55 9.9 L-3.55 9.65 -4.75 9.3 -4.95 9.2 -5.0 9.15 -6.25 8.2 -7.15 7.45 -7.6 7.0 -7.65 6.9 -8.95 6.85 -13.5 6.9 Q-16.5 6.85 -19.5 6.95 L-19.6 6.85 -19.75 6.8 -19.75 6.7 -19.8 6.65 -19.75 6.55 -19.75 6.5 -21.7 6.45 -21.95 6.4 -22.2 6.3 -22.45 6.2 -22.6 6.25 -22.7 6.3 -22.85 6.3 -22.9 6.3 -23.2 6.3 -23.25 6.25 -23.35 6.15 -23.45 6.05 -23.55 5.95 -23.55 5.85 -23.55 5.75 -23.55 5.65 -23.55 5.45 -23.6 5.35 -23.6 5.3 -23.75 4.75 -23.9 4.2 -23.95 4.1 -24.0 4.0 -24.05 3.95 -25.0 0.7 -25.85 -2.65 -25.95 -3.2 -26.35 -3.35 -26.45 -3.3 -26.65 -3.4 -26.7 -3.45 -27.05 -3.6 -27.15 -3.65 -27.25 -3.65 -27.45 -3.7 -27.55 -3.8 -27.6 -3.9 -27.65 -4.0 -27.75 -4.2 -27.75 -4.3 -27.75 -4.4 -27.75 -4.55 -27.7 -4.75 -27.7 -4.95 -27.7 -5.05 -27.65 -5.15 -27.6 -5.2 -27.35 -5.3 -27.3 -5.3 -27.5 -5.35 -27.65 -5.4 -28.2 -5.45 -28.2 -5.55 -28.15 -5.65 -27.95 -5.65 -28.5 -5.9 -28.65 -5.95 -28.8 -6.05 -28.9 -6.15 -29.0 -6.25 -29.3 -6.55 -29.55 -6.8 -29.55 -6.9 -29.5 -7.0 -29.5 -7.1 -29.5 -7.3 -29.5 -7.65 -29.5 -7.85 -29.5 -7.95 -29.5 -8.05 -29.5 -8.15 -29.45 -8.4 -29.45 -8.5 -29.4 -8.6 -29.4 -8.7 -29.3 -8.8 -29.25 -8.9 -29.2 -9.0 -29.05 -9.05 -28.95 -9.15 -28.85 -9.25 -28.75 -9.35 -28.65 -9.45 -28.45 -9.55 -28.2 -9.55 -27.65 -9.55 -27.1 -9.5 -26.7 -9.55 -25.65 -9.55 9.3 -9.8 9.9 -9.8 M7.4 -5.9 L20.3 -5.9 20.35 -6.0 20.4 -6.05 20.4 -6.45 20.3 -6.8 Q20.2 -7.0 20.4 -7.0 L20.5 -6.9 20.5 -6.8 20.55 -6.7 20.55 -6.65 20.6 -6.55 20.65 -6.45 20.65 -6.35 20.65 -6.25 20.65 -6.15 20.6 -6.05 20.55 -5.95 20.5 -5.9 21.6 -5.9 21.6 -6.1 21.6 -6.55 21.6 -6.95 21.65 -7.05 21.75 -7.15 21.9 -7.15 21.95 -7.15 22.0 -7.05 22.0 -6.95 21.95 -6.6 22.0 -6.2 22.0 -5.9 24.05 -5.9 24.2 -5.9 25.4 -6.0 26.3 -6.15 26.35 -6.2 26.4 -6.25 26.5 -6.25 26.55 -6.25 26.55 -6.3 26.6 -6.25 26.85 -6.4 Q27.6 -6.7 28.15 -7.35 L28.15 -7.45 28.15 -7.55 28.15 -7.7 28.15 -8.0 28.15 -8.3 28.15 -8.4 28.1 -8.55 27.95 -8.75 27.85 -8.85 27.4 -8.85 26.8 -8.8 Q0.05 -8.6 -26.6 -9.1 L-26.7 -9.1 -27.65 -9.0 -28.3 -8.95 -28.4 -8.85 -28.45 -8.75 -28.55 -8.65 -28.65 -8.55 -28.7 -8.5 -28.7 -8.4 -28.75 -8.3 -28.8 -8.2 -28.75 -8.1 -28.75 -8.0 -28.75 -7.9 -28.75 -7.8 -28.75 -7.7 -28.75 -7.45 -28.75 -7.25 -28.25 -6.7 Q-27.8 -6.45 -27.3 -6.35 L-25.15 -5.95 -25.1 -5.95 -19.2 -6.05 -17.7 -6.05 -17.7 -6.1 -17.7 -6.2 -17.7 -6.3 -17.7 -6.35 -17.7 -6.45 -17.7 -6.5 -17.65 -6.6 -17.6 -6.7 -17.6 -6.75 -17.6 -6.9 -17.6 -7.1 -17.6 -7.25 -17.6 -7.3 -17.55 -7.4 -17.55 -7.45 -17.5 -7.5 -17.45 -7.55 -17.4 -7.55 -17.35 -7.45 -17.35 -7.35 -17.3 -7.3 -17.3 -7.15 -17.3 -6.9 -17.3 -6.65 -17.35 -6.55 -17.4 -6.5 -17.4 -6.4 -17.4 -6.35 -17.4 -6.25 -17.4 -6.2 -17.4 -6.1 -17.45 -6.05 -16.5 -6.0 -16.5 -6.1 -16.5 -6.3 -16.5 -6.45 -16.5 -6.5 -16.55 -6.6 -16.5 -6.7 -16.5 -6.75 -16.5 -6.85 -16.5 -6.9 -16.35 -6.9 -16.25 -6.85 -16.25 -6.6 -16.25 -6.35 -16.25 -6.1 -16.25 -6.0 -14.35 -6.0 -9.6 -5.9 5.3 -5.9 7.4 -5.9 M9.4 -3.8 L10.15 -3.8 13.8 -3.8 17.05 -3.9 22.85 -4.0 25.35 -4.2 25.6 -4.3 25.9 -4.4 26.05 -4.4 26.25 -4.45 26.4 -4.55 26.45 -4.65 26.45 -4.75 26.5 -4.85 26.5 -5.05 26.5 -5.15 26.5 -5.2 26.4 -5.2 25.75 -5.2 24.4 -5.0 24.05 -5.05 23.65 -5.1 23.4 -5.15 7.4 -5.15 6.15 -5.15 5.3 -5.2 -11.45 -5.15 -13.1 -5.1 Q-18.65 -4.85 -24.15 -5.1 L-24.2 -5.1 -24.45 -5.05 -24.65 -5.05 -25.15 -5.0 -25.7 -5.1 -26.3 -5.2 -26.45 -5.2 -26.6 -5.1 -26.8 -4.95 -27.05 -4.65 -27.05 -4.55 -27.0 -4.45 -26.95 -4.35 -26.25 -4.05 -26.15 -4.05 -25.95 -4.1 -25.9 -4.15 -25.85 -4.15 -25.75 -4.25 -25.65 -4.25 -25.65 -4.3 -25.45 -4.2 -25.4 -4.15 -25.4 -4.05 -25.3 -4.0 -10.1 -4.0 -8.45 -4.0 -6.45 -4.0 0.15 -3.9 1.8 -3.9 9.4 -3.8 M22.85 -3.0 L22.75 -2.95 12.25 -2.95 -3.65 -3.0 -4.1 -3.0 -5.0 -2.95 -5.15 -2.9 -15.55 -2.95 -21.9 -3.0 -22.2 -3.0 -22.35 -3.05 -24.4 -3.1 -24.55 -3.1 -25.25 -3.1 -24.8 -1.5 -23.9 1.8 -23.45 3.7 -23.45 3.8 -23.5 3.9 -23.45 4.05 -23.35 4.4 -23.15 4.4 -23.0 4.55 -22.95 4.6 -22.9 4.7 -22.85 4.8 -22.85 4.85 -22.8 5.0 -22.85 5.15 -22.85 5.25 -22.85 5.35 -22.8 5.5 -22.8 5.55 -22.6 5.5 -22.4 5.4 -22.35 5.4 -22.15 5.45 -21.9 5.55 -21.7 5.6 -18.75 5.6 -18.8 5.5 -18.8 5.45 -18.8 5.35 -18.8 5.3 -18.8 5.2 -18.8 5.1 -18.75 5.05 -18.75 4.95 -18.7 4.9 -18.7 4.8 -18.7 4.7 -18.7 4.65 -18.7 4.55 -18.65 4.5 -18.5 4.45 -18.35 4.5 -18.3 4.55 -18.3 4.65 -18.3 4.7 -18.3 4.8 -18.3 4.9 -18.3 4.95 -18.3 5.05 -18.35 5.1 -18.35 5.2 -18.35 5.3 -18.35 5.35 -18.35 5.45 -18.4 5.5 -18.4 5.6 -17.45 5.6 -17.45 5.05 -17.5 4.4 -17.3 4.1 -17.2 4.15 -17.2 4.65 -17.2 5.2 -17.2 5.6 6.15 5.6 11.65 5.65 11.6 5.55 11.6 5.45 11.55 5.4 11.5 5.3 11.45 5.2 11.45 5.15 11.45 5.05 11.45 5.0 11.45 4.9 11.45 4.85 11.45 4.75 11.45 4.65 11.45 4.6 11.5 4.5 11.6 4.5 11.7 4.55 11.75 4.65 11.75 4.7 11.75 4.8 11.75 4.9 11.75 4.95 11.75 5.05 11.75 5.1 11.8 5.2 11.85 5.3 11.9 5.35 11.95 5.45 11.95 5.5 12.0 5.6 12.05 5.65 12.8 5.65 13.05 5.7 13.05 5.6 12.95 5.5 12.95 5.45 12.95 5.35 12.9 5.3 12.9 5.2 12.85 5.1 12.8 5.05 12.7 4.95 12.7 4.9 12.75 4.85 12.8 4.8 12.85 4.8 12.95 4.9 13.1 4.95 13.15 5.05 13.15 5.1 13.2 5.2 13.2 5.3 13.25 5.35 13.3 5.45 13.35 5.5 13.35 5.6 13.35 5.7 14.2 5.75 14.2 5.7 14.25 5.6 14.4 5.55 14.5 5.45 14.65 5.45 14.75 5.45 14.8 5.5 20.15 5.4 20.15 5.35 21.65 5.35 21.85 5.45 21.9 5.5 21.9 5.45 21.95 5.4 22.0 5.4 22.05 5.35 22.1 5.3 22.15 5.25 22.2 5.25 22.25 5.2 22.35 5.15 22.4 5.15 22.5 4.8 22.65 4.25 22.65 4.15 22.7 4.1 22.65 3.95 23.45 0.8 24.4 -2.5 24.6 -3.1 23.2 -3.05 22.95 -3.05 22.9 -3.0 22.85 -3.0 M4.2 7.05 L3.45 7.05 3.25 7.0 3.2 6.95 2.9 6.95 2.65 6.95 2.4 6.95 0.6 7.0 0.4 6.95 0.3 6.85 0.25 6.8 -6.3 6.85 -6.5 6.8 -6.6 6.75 -6.65 6.75 -7.05 6.75 -7.0 6.8 -6.6 7.1 -6.4 7.25 -6.3 7.3 -6.2 7.4 -6.0 7.55 -5.95 7.65 -5.3 8.05 -4.7 8.45 -4.55 8.5 -2.2 9.0 0.75 8.95 2.4 8.65 4.35 7.9 4.25 7.9 4.15 7.95 3.9 8.1 3.75 8.15 3.7 8.15 3.7 8.1 3.85 8.0 4.05 7.85 4.15 7.75 4.15 7.7 4.2 7.6 4.25 7.55 4.3 7.45 4.25 7.4 4.2 7.3 4.2 7.2 4.2 7.15 4.2 7.05" fill="#333333" fill-rule="evenodd" stroke="none"/>
    <path d="M-28.2 -8.75 L-28.3 -8.75 -28.6 -8.75 -28.7 -8.65 -28.8 -8.55 -28.85 -8.55 -28.95 -8.5 -29.1 -8.55 -29.2 -8.65 -29.2 -8.75 -29.2 -8.85 -29.2 -8.95 -29.1 -9.05 -28.95 -9.15 -28.85 -9.2 -28.85 -9.25 -28.7 -9.25 -26.95 -9.45 -26.55 -9.5 -26.45 -9.6 -26.35 -9.65 -26.2 -9.7 -25.3 -9.65 -24.7 -9.55 -24.5 -9.4 -24.5 -9.3 -24.55 -9.25 -24.6 -9.2 -24.95 -9.1 -26.0 -8.95 -26.1 -8.85 -26.15 -8.8 -28.1 -8.8 -28.2 -8.75" fill="#333333" fill-rule="evenodd" stroke="none"/>
    <path d="M8.95 -3.6 L12.9 -3.55 13.0 -3.55 13.95 -3.5 14.2 -3.45 14.35 -3.4 14.7 -3.35 15.0 -3.3 15.45 -3.2 15.55 -3.15 15.75 -3.15 15.85 -3.25 16.5 -3.25 22.0 -3.4 22.2 -3.5 22.35 -3.6 22.5 -3.65 22.55 -3.7 22.7 -3.7 23.35 -3.9 23.8 -4.05 23.95 -4.05 24.45 -4.05 24.65 -4.0 24.8 -3.9 24.85 -3.8 24.9 -3.75 24.9 -3.65 24.9 -3.55 24.9 -3.45 24.8 -3.35 24.75 -3.25 24.65 -3.2 24.6 -3.15 24.4 -3.1 24.2 -3.0 24.0 -2.9 23.85 -2.8 23.75 -2.75 23.55 -2.65 23.2 -2.65 23.0 -2.75 22.8 -2.8 22.65 -2.7 22.5 -2.6 22.4 -2.5 22.25 -2.4 22.05 -2.35 16.75 -2.3 16.65 -2.3 16.45 -2.25 16.25 -2.2 16.15 -2.15 15.95 -2.1 15.45 -2.1 15.2 -2.15 15.1 -2.25 15.05 -2.25 14.3 -2.4 13.9 -2.5 13.05 -2.55 12.75 -2.55 8.8 -2.6 -1.95 -2.7 -2.15 -2.75 -2.25 -2.8 -2.35 -2.85 -2.55 -2.9 -2.7 -2.9 -2.85 -2.95 -5.5 -2.95 -5.55 -2.95 -6.45 -2.8 -6.55 -2.75 Q-8.9 -2.45 -11.25 -2.75 L-14.55 -2.8 -14.75 -2.85 -19.55 -3.0 -20.0 -3.05 -20.15 -3.15 -20.2 -3.25 -20.2 -3.3 -20.1 -3.4 -20.0 -3.5 -19.8 -3.5 -14.7 -3.55 -14.55 -3.5 -14.45 -3.45 -10.85 -3.4 -7.7 -3.4 -7.6 -3.45 -7.45 -3.45 -6.8 -3.55 -6.7 -3.6 -6.55 -3.6 -5.75 -3.65 -2.1 -3.55 8.7 -3.55 8.95 -3.6" fill="#333333" fill-rule="evenodd" stroke="none"/>
    <path d="M1.75 6.45 L2.7 6.45 2.8 6.35 2.9 6.25 3.05 6.25 3.2 6.2 3.3 6.15 3.45 6.15 4.05 6.1 4.25 6.2 4.3 6.3 4.4 6.35 4.4 6.45 4.4 6.55 4.35 6.65 4.3 6.75 4.2 6.85 4.05 6.85 3.55 6.95 3.4 7.0 3.35 7.1 3.3 7.2 3.2 7.25 3.05 7.3 1.45 7.3 1.25 7.25 1.15 7.15 1.05 7.1 0.2 7.05 0.0 7.0 -4.7 6.9 -4.95 6.85 -5.0 6.75 -5.1 6.65 -5.1 6.55 -5.1 6.45 -5.1 6.35 -5.05 6.3 -4.85 6.1 -0.95 5.85 0.05 5.75 0.8 5.75 1.0 5.8 1.1 5.9 1.15 6.0 1.2 6.1 1.2 6.2 1.3 6.25 1.5 6.3 1.65 6.4 1.75 6.45" fill="#333333" fill-rule="evenodd" stroke="none"/>
    <path d="M27.3 -6.05 L27.4 -6.15 27.5 -6.25 27.7 -6.3 27.85 -6.25 27.95 -6.15 28.0 -6.05 28.0 -6.0 27.95 -5.9 27.9 -5.8 27.8 -5.6 27.7 -5.5 27.65 -5.4 27.65 -5.3 27.7 -5.25 27.65 -5.15 27.6 -5.05 27.55 -5.05 27.45 -5.0 26.95 -5.0 26.8 -5.05 26.7 -5.15 26.65 -5.25 26.65 -5.35 26.65 -5.45 26.65 -5.55 26.7 -5.65 26.75 -5.75 27.0 -5.8 27.05 -5.9 27.1 -6.0 27.15 -6.0 27.3 -6.05" fill="#333333" fill-rule="evenodd" stroke="none"/>
    <path d="M26.8 -3.4 L26.8 -3.25 26.8 -3.15 26.6 -2.95 26.4 -2.8 26.35 -2.75 26.1 -2.7 25.75 -2.6 25.6 -2.5 25.5 -2.45 25.45 -2.4 25.3 -2.4 25.05 -2.4 24.8 -2.45 24.75 -2.55 24.65 -2.65 24.6 -2.75 24.65 -2.8 24.7 -2.9 24.75 -3.0 24.8 -3.05 24.9 -3.1 25.05 -3.15 25.15 -3.25 25.15 -3.35 25.15 -3.45 25.15 -3.55 25.2 -3.65 25.25 -3.75 25.45 -3.8 25.95 -3.9 26.1 -3.85 26.2 -3.85 26.3 -3.9 26.45 -3.95 26.65 -3.9 26.75 -3.8 26.75 -3.7 26.8 -3.6 26.8 -3.4" fill="#333333" fill-rule="evenodd" stroke="none"/>
    <path d="M5.7 7.05 L5.5 6.85 5.45 6.75 5.45 6.7 5.6 6.5 5.8 6.35 6.05 6.3 9.5 6.25 9.8 6.2 16.25 6.1 16.4 6.05 16.8 6.05 17.3 6.0 17.55 5.95 18.0 5.9 18.15 5.85 21.0 5.75 22.4 5.6 22.55 5.55 22.75 5.5 22.8 5.4 22.95 5.25 23.1 5.05 23.1 4.95 23.15 4.75 23.15 4.6 23.15 4.4 23.15 4.3 23.2 4.2 23.25 4.1 23.3 4.0 23.35 3.85 23.4 3.65 23.45 3.45 23.5 3.35 23.55 3.25 23.55 3.2 23.6 3.1 23.65 2.9 23.65 2.8 23.7 2.7 23.8 2.5 23.9 2.35 23.95 2.25 24.0 2.05 24.05 1.85 24.1 1.7 24.1 1.6 24.15 1.5 24.2 1.4 24.25 1.3 24.25 1.2 24.3 1.1 24.35 0.95 24.4 0.65 24.45 0.35 24.45 0.25 24.5 0.2 24.55 -0.2 24.65 -0.65 24.75 -1.15 24.8 -1.25 24.9 -1.6 24.95 -1.95 25.0 -2.35 25.05 -2.45 25.15 -2.65 25.2 -2.8 25.25 -3.0 25.25 -3.1 25.3 -3.2 25.4 -3.3 25.45 -3.4 25.45 -3.5 25.5 -3.55 25.55 -3.65 25.7 -3.7 25.7 -3.75 25.85 -3.65 25.9 -3.55 25.9 -3.5 25.9 -3.4 25.9 -3.3 25.85 -3.2 25.8 -3.1 25.75 -2.9 25.65 -2.65 25.55 -2.35 25.55 -2.25 25.55 -2.05 25.5 -1.9 25.5 -1.7 25.5 -1.6 25.45 -1.4 25.4 -1.25 25.35 -1.15 25.3 -0.65 25.25 -0.2 25.15 0.25 25.1 0.55 25.1 0.85 25.05 1.1 25.05 1.2 25.0 1.3 24.95 1.4 24.9 1.5 24.9 1.6 24.85 1.7 24.8 1.75 24.75 1.95 24.7 2.25 24.65 2.45 24.65 2.5 24.6 2.6 24.55 2.7 24.5 2.8 24.45 2.9 24.4 3.1 24.35 3.25 24.35 3.45 24.3 3.55 24.3 3.65 24.25 3.75 24.15 3.95 24.15 4.1 24.05 4.3 24.05 4.4 24.0 4.5 23.95 4.7 23.95 4.95 23.95 5.15 24.0 5.25 23.95 5.35 23.85 5.5 23.75 5.7 23.65 5.8 23.55 6.0 23.4 6.2 23.25 6.35 23.05 6.45 22.85 6.5 22.75 6.55 21.4 6.65 18.3 6.75 18.2 6.8 16.8 6.95 16.55 7.05 16.45 7.1 9.75 7.15 9.45 7.2 6.05 7.2 5.8 7.15 5.7 7.05" fill="#333333" fill-rule="evenodd" stroke="none"/>
    <path d="M4.45 8.1 L5.0 7.8 5.1 7.7 5.2 7.6 5.3 7.5 5.45 7.45 5.55 7.35 5.75 7.25 5.65 7.15 5.7 7.1 5.85 7.0 6.15 6.85 6.3 6.85 6.45 6.9 6.55 7.0 6.6 7.1 6.65 7.2 5.6 8.35 4.2 9.05 3.55 9.2 3.45 9.25 2.05 9.35 -0.4 9.55 -0.45 9.65 -0.5 9.75 -0.6 9.85 -0.8 9.9 -2.45 9.9 -2.7 9.85 -2.85 9.65 -3.15 9.35 -3.25 9.25 -3.45 9.2 -3.5 9.1 -3.55 9.0 -3.6 8.9 -3.7 8.8 -3.7 8.7 -3.65 8.6 -3.5 8.6 -3.35 8.6 -3.2 8.55 -3.05 8.6 -2.95 8.6 -2.75 8.65 -2.65 8.75 -2.55 8.85 -2.35 9.0 -1.35 9.0 -1.3 8.95 -1.2 8.85 -1.1 8.75 -0.95 8.75 -0.8 8.65 -0.7 8.6 1.8 8.55 3.25 8.45 3.4 8.35 3.55 8.35 4.1 8.25 4.45 8.1" fill="#333333" fill-rule="evenodd" stroke="none"/>
    <path d="M-20.8 6.0 L-19.95 5.9 -19.2 5.9 -19.2 5.85 -18.95 5.9 -18.2 5.95 -18.0 6.0 -17.85 6.1 -17.7 6.1 -17.45 6.1 -17.35 6.1 -12.55 6.15 -12.35 6.2 -12.3 6.3 -12.25 6.3 -12.15 6.35 -10.65 6.35 -10.6 6.35 -10.45 6.3 -10.2 6.25 -10.1 6.2 -8.8 6.15 -8.55 6.2 -8.3 6.2 -8.15 6.3 -8.0 6.35 -7.9 6.45 -7.95 6.55 -8.05 6.65 -8.1 6.7 -8.3 6.75 -8.55 6.8 -9.85 6.9 -9.9 6.95 -10.05 7.0 -10.35 7.0 -10.55 7.05 -12.3 7.1 -12.5 7.0 -12.7 6.95 -17.3 6.8 -17.5 6.75 -17.7 6.7 -17.95 6.65 -18.1 6.6 -18.95 6.5 -20.6 6.35 -20.7 6.45 -20.75 6.35 -20.85 6.25 -20.9 6.2 -20.9 6.1 -20.8 6.0" fill="#333333" fill-rule="evenodd" stroke="none"/>
    <path d="M0.8 -5.1 L-6.55 -5.1 -6.9 -5.1 -8.05 -5.25 -8.25 -5.3 -8.8 -5.4 -9.85 -5.5 -9.85 -5.55 -9.8 -5.55 -8.8 -5.6 -8.25 -5.65 -8.1 -5.55 -6.9 -5.55 Q-3.05 -5.4 0.8 -5.55 L3.3 -5.65 3.4 -5.65 5.3 -5.75 5.4 -5.75 5.55 -5.8 8.15 -5.85 8.45 -5.9 9.55 -5.9 13.45 -5.9 13.55 -5.9 13.7 -5.85 15.95 -5.85 16.15 -5.8 16.25 -5.7 16.25 -5.65 17.95 -5.6 18.15 -5.55 18.25 -5.5 21.9 -5.5 22.05 -5.55 22.2 -5.6 22.5 -5.65 22.55 -5.65 24.55 -5.7 24.8 -5.75 26.95 -5.65 27.15 -5.65 27.2 -5.55 27.25 -5.45 27.25 -5.35 27.25 -5.25 27.25 -5.15 27.15 -5.05 26.95 -5.05 26.3 -5.0 24.8 -5.0 22.9 -5.0 22.85 -4.95 22.2 -4.85 22.1 -4.8 21.95 -4.75 18.2 -4.75 18.0 -4.8 17.9 -4.9 8.45 -4.95 7.95 -4.95 3.4 -5.05 3.3 -5.05 0.8 -5.1" fill="#333333" fill-rule="evenodd" stroke="none"/>
  </g>
</svg>
