<?xml version="1.0" encoding="UTF-8" standalone="no"?>
<svg xmlns:xlink="http://www.w3.org/1999/xlink" height="6.0px" width="12.0px" xmlns="http://www.w3.org/2000/svg">
  <g transform="matrix(1.0, 0.0, 0.0, 1.0, 5.85, 7.8)">
    <path d="M2.3 -7.4 L2.4 -7.3 2.5 -7.25 2.6 -7.15 2.8 -7.05 3.45 -6.8 Q3.9 -6.55 4.3 -6.25 L4.75 -5.75 4.95 -5.5 5.0 -5.4 5.0 -5.3 5.0 -5.25 5.05 -5.15 5.2 -4.95 5.3 -4.85 5.55 -4.6 5.85 -4.2 6.0 -3.9 6.05 -3.8 6.05 -3.7 6.1 -3.65 6.1 -3.55 6.1 -3.45 6.1 -3.35 6.1 -3.25 6.15 -3.15 6.15 -3.05 6.1 -3.0 6.05 -2.9 6.05 -2.8 6.0 -2.7 5.85 -2.6 5.75 -2.55 5.55 -2.5 5.2 -2.5 4.9 -2.55 4.7 -2.65 4.55 -2.55 4.5 -2.5 4.3 -2.4 4.2 -2.35 2.7 -2.2 1.9 -2.15 -1.75 -1.9 -1.85 -1.8 -2.05 -1.8 -2.2 -1.8 -2.45 -1.85 -2.6 -1.95 -2.65 -2.05 -2.75 -2.15 -2.75 -2.25 -2.75 -2.3 -2.75 -2.4 -2.8 -2.5 -3.15 -2.7 -3.25 -2.8 -3.35 -2.9 -3.5 -3.1 -3.55 -3.15 -3.65 -3.15 -3.75 -3.1 -3.8 -3.1 -3.95 -3.05 -4.05 -3.05 -4.25 -3.05 -4.4 -2.95 -4.45 -2.9 -4.5 -2.9 -4.7 -2.85 -4.85 -2.8 -5.05 -2.75 -5.3 -2.7 -5.55 -2.75 -5.65 -2.85 -5.75 -2.95 -5.85 -3.05 -5.85 -3.15 -5.85 -3.3 -5.85 -3.4 -5.85 -3.5 -5.85 -3.6 -5.85 -3.8 -5.85 -4.0 -5.85 -4.05 -5.85 -4.15 -5.8 -4.25 -5.75 -4.35 -5.75 -4.45 -5.75 -4.55 -5.75 -4.65 -5.75 -4.75 -5.75 -4.8 -5.75 -4.9 -5.75 -5.0 -5.7 -5.1 -5.6 -5.2 -5.5 -5.3 -5.5 -5.4 -5.45 -5.5 -5.4 -5.55 -5.35 -5.65 -5.35 -5.75 -5.25 -5.85 -5.1 -6.05 -5.05 -6.15 -4.85 -6.3 -4.5 -6.7 -4.4 -6.8 -4.25 -6.9 -4.05 -6.95 -3.4 -7.1 -2.5 -7.35 -1.55 -7.7 -1.2 -7.7 -0.5 -7.75 -0.4 -7.8 -0.2 -7.8 0.8 -7.8 1.05 -7.75 1.15 -7.7 1.7 -7.65 2.2 -7.5 2.3 -7.4" fill="#ff6633" fill-rule="evenodd" stroke="none"/>
  </g>
</svg>
