<?xml version="1.0" encoding="UTF-8" standalone="no"?>
<svg xmlns:xlink="http://www.w3.org/1999/xlink" height="28.7px" width="48.25px" xmlns="http://www.w3.org/2000/svg">
  <g transform="matrix(1.0, 0.0, 0.0, 1.0, 24.6, 28.5)">
    <path d="M23.0 -8.0 L7.75 -8.0 0.05 -0.3 -7.65 -8.0 -24.05 -8.0 -24.05 -27.7 23.0 -27.7 23.0 -8.0" fill="#65b3a0" fill-rule="evenodd" stroke="none"/>
    <path d="M20.9 -28.0 L19.15 -27.7 17.35 -27.55 15.35 -27.7 13.15 -27.65 10.85 -27.6 8.75 -27.7 7.1 -27.75 5.2 -27.55 Q4.1 -27.35 3.15 -27.55 L0.95 -27.7 -1.2 -27.7 -2.95 -27.7 -4.95 -27.7 -7.25 -27.7 -9.2 -27.5 -11.0 -27.45 -12.9 -27.7 -15.0 -27.9 -17.15 -27.8 -19.1 -27.7 -21.05 -27.55 -22.5 -27.5 -24.05 -27.7 -24.05 -25.7 -23.95 -23.65 -23.85 -21.85 -23.75 -19.95 Q-23.65 -18.75 -23.8 -17.85 L-24.05 -16.0 -24.1 -13.7 -24.1 -11.55 -24.1 -10.35 -24.05 -8.0 -22.15 -8.0 -20.05 -8.1 -18.15 -8.0 -16.1 -7.95 -14.25 -7.9 -12.2 -8.0 -9.85 -8.2 -8.45 -8.15 -7.65 -8.0 -8.65 -9.0 -7.0 -9.1 -5.0 -9.25 -3.15 -9.1 -1.45 -9.0 0.8 -9.2 3.05 -9.35 4.85 -9.2 6.65 -9.1 8.75 -9.0 7.75 -8.0 10.1 -8.25 12.05 -8.0 13.65 -7.75 15.55 -7.95 17.75 -8.2 19.5 -8.0 20.9 -7.8 23.0 -8.0 Q22.55 -9.45 22.75 -10.45 L23.0 -12.2 23.1 -13.9 23.0 -15.85 Q22.8 -16.9 22.85 -17.95 L22.95 -19.8 23.05 -21.85 22.85 -24.05 Q22.65 -24.95 22.75 -25.35 L23.0 -27.7 20.9 -28.0 M-7.65 -8.0 Q-7.4 -7.1 -6.45 -6.75 -5.5 -6.35 -4.8 -5.45 L-3.35 -3.7 -2.0 -2.1 -1.1 -1.2 0.05 -0.3 1.4 -1.75 2.85 -3.25 4.3 -4.7 5.65 -6.15 6.65 -6.95 Q7.0 -7.0 7.75 -8.0" fill="none" stroke="#65b3a0" stroke-linecap="round" stroke-linejoin="round" stroke-width="1.0"/>
  </g>
</svg>
