<?xml version="1.0" encoding="UTF-8" standalone="no"?>
<svg xmlns:xlink="http://www.w3.org/1999/xlink" height="121.55px" width="46.9px" xmlns="http://www.w3.org/2000/svg">
  <g transform="matrix(1.0, 0.0, 0.0, 1.0, 23.45, 60.75)">
    <path d="M22.7 59.75 L-22.6 59.75 -22.6 -60.25 22.7 -60.25 22.7 59.75" fill="#6c6960" fill-rule="evenodd" stroke="none"/>
    <path d="M-11.15 -60.25 L-11.15 59.75 -22.6 59.75 -22.6 -60.25 -11.15 -60.25" fill="#663333" fill-opacity="0.2" fill-rule="evenodd" stroke="none"/>
    <path d="M-22.15 -60.5 L-22.05 -60.6 -21.8 -60.65 -21.8 -60.7 -21.5 -60.55 Q-21.05 -54.8 -21.05 -48.95 L-21.0 -37.1 -20.95 -25.3 -20.9 -13.5 -20.85 -1.7 -20.75 10.15 -20.75 21.95 -20.7 33.75 -20.65 45.55 -20.75 57.4 -20.75 58.15 -20.8 58.3 -20.9 58.5 -21.0 58.7 -21.25 58.85 -21.4 59.0 -21.8 59.05 -22.3 58.95 -22.55 58.75 -22.7 58.55 -22.8 58.4 -22.9 46.75 -22.85 34.95 -22.85 23.15 -22.85 11.3 -22.75 -0.5 -22.65 -12.3 -22.65 -24.1 -22.6 -35.95 -22.55 -47.75 -22.3 -59.55 -22.15 -60.5" fill="#663333" fill-opacity="0.2" fill-rule="evenodd" stroke="none"/>
    <path d="M22.85 57.7 L22.85 57.85 22.85 58.05 22.7 58.25 22.6 58.45 22.4 58.55 Q2.7 58.95 -17.05 58.7 L-22.85 58.05 -23.15 58.15 -23.2 57.95 -23.1 57.75 -23.05 57.55 -22.8 57.45 -19.8 57.05 Q-4.1 56.75 11.45 56.75 L20.95 56.8 21.95 56.8 22.4 56.95 22.65 57.15 22.75 57.3 22.85 57.5 22.85 57.7" fill="#663333" fill-opacity="0.2" fill-rule="evenodd" stroke="none"/>
    <path d="M22.6 -59.0 L22.7 -58.8 22.75 -58.6 22.75 -58.45 22.7 -58.25 22.65 -58.05 22.45 -57.9 22.25 -57.75 Q1.25 -57.55 -19.8 -58.0 L-20.05 -58.1 -20.1 -58.1 -20.75 -58.2 -21.3 -58.25 -21.55 -58.2 -21.8 -58.1 -22.05 -58.05 -23.25 -58.2 -23.4 -58.35 -23.4 -58.55 -23.3 -58.75 -23.05 -58.85 -22.05 -58.95 -21.55 -59.05 -21.05 -59.2 Q-2.15 -58.95 16.7 -59.3 L21.95 -59.3 22.35 -59.2 22.6 -59.0" fill="#ffffff" fill-opacity="0.2" fill-rule="evenodd" stroke="none"/>
    <path d="M20.55 -59.35 L20.65 -59.55 20.85 -59.75 20.95 -59.85 21.2 -59.9 21.2 -59.95 21.5 -59.75 21.6 -59.6 21.6 -59.45 21.5 -59.25 21.55 -47.6 21.7 -35.8 21.8 -24.0 21.85 -12.2 21.85 -0.35 21.75 11.45 21.7 23.25 21.7 35.05 21.75 46.9 21.6 57.55 21.5 57.75 21.4 57.95 21.2 58.05 20.95 58.15 20.6 58.0 20.4 57.8 20.35 57.65 Q20.05 51.85 20.15 46.0 L20.2 34.2 20.2 22.4 20.15 10.55 20.05 -1.25 20.1 -13.05 20.1 -24.85 20.2 -36.7 20.3 -48.5 20.45 -59.2 20.55 -59.35" fill="#ffffff" fill-opacity="0.2" fill-rule="evenodd" stroke="none"/>
    <path d="M-13.8 -11.75 L-13.6 -8.8 Q-9.05 17.9 -9.55 46.75 -9.65 52.15 -11.65 57.15 -13.45 61.7 -19.7 58.6 L-21.7 59.1 -22.7 58.5 -23.15 58.0 -23.2 56.5 -21.75 54.25 Q-24.05 23.75 -21.5 -7.25 L-20.3 -8.2 -19.45 -11.15 -18.55 -11.4 -17.05 -10.4 -16.45 0.25 Q-15.7 -3.55 -15.45 -7.45 L-14.7 -11.25 -13.8 -11.75" fill="#663333" fill-opacity="0.2" fill-rule="evenodd" stroke="none"/>
    <path d="M-19.45 16.6 L-18.55 16.45 -16.95 17.4 -16.6 22.9 -15.55 24.1 -16.3 24.75 -16.05 32.25 -14.55 31.85 -10.95 33.9 -10.55 57.5 -11.8 59.6 -14.55 60.0 Q-15.65 61.15 -17.25 60.65 L-18.95 59.75 -20.4 58.75 -21.8 57.75 Q-21.55 54.7 -21.95 51.75 -24.0 37.4 -22.65 22.5 L-20.55 21.0 -20.15 17.25 -19.45 16.6" fill="#663333" fill-opacity="0.2" fill-rule="evenodd" stroke="none"/>
    <path d="M-10.4 -30.6 L-10.25 -30.4 -10.1 -30.25 -10.05 -30.05 -10.05 -29.85 -10.05 -29.7 -10.05 -29.5 -10.0 -29.3 -9.9 -29.1 -9.8 -28.9 -9.7 -28.75 -9.7 -28.55 -9.7 -28.2 -9.75 -27.6 -9.8 -27.25 -10.05 -26.85 -10.45 -26.15 -10.8 -25.35 -10.95 -25.2 -11.1 -25.05 -11.2 -25.0 -11.55 -24.95 -12.05 -24.95 -12.45 -25.05 -12.65 -25.25 -12.85 -25.45 -13.0 -25.6 -13.15 -25.8 -13.2 -26.0 -13.3 -26.2 -13.35 -26.35 -13.35 -26.75 -13.35 -27.3 -13.3 -27.85 -13.3 -28.05 -13.25 -28.25 -13.15 -28.45 -13.1 -28.6 -12.9 -29.0 -12.9 -29.2 -12.85 -29.35 -12.7 -29.55 -12.45 -29.75 -12.2 -29.95 -11.8 -30.05 -11.55 -30.2 -11.45 -30.35 -11.25 -30.55 -11.1 -30.7 -10.8 -30.7 -10.8 -30.75 -10.4 -30.6" fill="#663333" fill-opacity="0.2" fill-rule="evenodd" stroke="none"/>
    <path d="M-20.55 43.6 L-20.3 46.15 -19.15 44.0 -18.3 42.95 -17.45 43.3 Q-16.45 46.75 -16.45 50.55 L-15.65 48.2 -15.15 47.85 -14.05 48.1 -13.7 49.2 -12.3 47.95 -11.3 48.65 -11.4 55.8 -10.55 56.35 -10.2 57.1 -10.8 58.05 Q-16.55 59.15 -22.3 57.8 L-22.05 43.7 -21.3 43.1 -20.55 43.6" fill="#663333" fill-opacity="0.2" fill-rule="evenodd" stroke="none"/>
    <path d="M19.0 -59.6 L19.2 -59.5 20.8 -59.15 21.3 -59.1 21.6 -59.0 21.75 -58.8 21.85 -58.6 21.9 -58.45 21.95 -58.25 22.0 -58.05 22.05 -57.85 22.05 -57.65 22.05 -57.3 22.0 -57.1 22.0 -56.9 22.0 -56.75 22.0 -56.55 21.95 -56.35 21.85 -56.15 21.8 -56.0 21.45 -55.6 21.25 -55.45 21.0 -55.25 20.55 -55.1 19.35 -55.25 18.8 -55.45 18.3 -55.55 18.05 -55.75 17.85 -55.95 17.75 -56.1 17.7 -56.3 17.7 -56.5 17.7 -56.65 17.7 -56.85 17.75 -57.05 17.8 -57.25 17.75 -57.4 17.65 -57.6 17.5 -57.8 17.45 -58.0 17.45 -58.35 17.45 -58.55 17.45 -58.75 17.5 -58.9 17.6 -59.1 17.95 -59.5 18.1 -59.6 18.25 -59.65 18.55 -59.7 18.55 -59.75 19.0 -59.6" fill="#ffffff" fill-opacity="0.101960786" fill-rule="evenodd" stroke="none"/>
    <path d="M23.0 -54.75 L22.95 -54.0 22.95 -51.75 23.05 -48.0 23.05 -46.6 22.7 -44.25 22.4 -43.5 21.95 -42.75 22.15 -42.15 23.05 -41.35 23.05 -36.45 23.05 -27.85 22.95 -27.75 22.2 -27.0 21.7 -26.5 21.2 -26.3 19.95 -26.0 18.7 -25.75 17.95 -25.05 17.2 -24.5 15.95 -24.3 14.95 -24.3 13.7 -24.5 12.7 -24.25 12.9 -23.5 12.95 -22.75 12.95 -22.0 12.9 -21.25 12.7 -20.5 12.4 -19.75 11.9 -19.0 11.2 -18.25 10.9 -17.5 10.45 -16.75 9.95 -16.0 9.95 -15.25 9.95 -14.5 9.95 -13.75 9.95 -13.0 9.65 -12.25 9.15 -11.5 8.45 -10.75 6.95 -10.25 5.2 -10.75 4.5 -11.5 3.95 -12.25 3.95 -13.0 3.95 -13.75 3.95 -14.5 3.6 -15.2 2.95 -16.0 2.2 -16.75 2.0 -17.5 1.95 -18.25 0.95 -18.7 -0.55 -19.25 -1.3 -20.0 -1.5 -20.75 -1.55 -21.5 -1.55 -22.25 -1.6 -23.0 -1.8 -23.75 -2.1 -24.45 -2.55 -25.25 -2.55 -26.0 -2.55 -26.75 -2.55 -27.5 -2.55 -28.25 -2.7 -28.5 -3.3 -28.0 -3.8 -27.25 -4.3 -26.5 -4.8 -25.75 -6.05 -25.25 -8.05 -25.25 -9.3 -25.75 -10.05 -26.5 -10.05 -27.25 -10.05 -28.0 -10.05 -34.75 -10.05 -43.75 -10.05 -49.75 -9.8 -50.5 -9.55 -51.25 -9.3 -52.0 -9.05 -52.75 -8.8 -53.5 -8.35 -54.05 -8.35 -54.15 -9.8 -54.75 -10.5 -55.55 -10.95 -56.3 -11.05 -57.0 -11.0 -57.75 -10.75 -58.45 -10.25 -59.2 -9.8 -59.75 -9.7 -59.75 23.05 -59.8 23.05 -54.9 23.0 -54.75" fill="#ffffff" fill-opacity="0.050980393" fill-rule="evenodd" stroke="none"/>
    <path d="M19.45 -59.75 L20.35 -58.35 21.65 -56.7 22.65 -55.2 22.95 -54.5 23.05 -54.4 23.05 -48.25 23.05 -43.5 22.95 -43.25 22.45 -42.5 22.2 -41.75 21.95 -41.0 21.7 -40.25 21.75 -27.5 21.65 -9.5 21.45 8.5 21.0 10.05 20.65 11.5 19.95 13.75 19.45 15.25 19.2 16.0 18.7 16.75 18.15 17.5 17.45 18.25 16.7 19.0 16.4 19.75 15.95 20.5 15.45 21.25 14.7 21.75 14.2 21.95 12.95 22.2 10.45 22.25 10.2 23.0 9.95 23.75 9.7 24.5 9.7 25.25 9.7 26.0 9.7 26.75 9.7 27.5 9.7 28.25 9.7 29.75 9.45 30.5 9.2 31.25 8.85 31.95 7.95 32.75 7.2 33.25 5.95 33.5 4.2 33.0 3.25 32.25 2.45 31.5 2.25 30.75 2.2 30.0 2.2 29.25 2.2 28.5 2.2 27.75 2.2 27.0 2.1 26.75 0.95 26.5 -0.8 26.0 -1.75 25.25 -2.55 24.5 -2.75 23.75 -2.8 23.0 -2.8 22.25 -2.8 21.5 -3.05 21.35 -4.3 21.0 -5.8 20.5 -6.5 19.75 -7.05 19.0 Q-7.45 17.95 -7.4 16.75 L-7.3 13.75 -7.3 10.75 -7.3 7.75 -7.3 7.0 -7.55 6.25 -7.8 5.5 -8.05 4.75 -8.3 4.0 -8.35 -12.5 Q-8.45 -23.4 -8.05 -34.25 -7.7 -44.05 -8.05 -53.75 L-8.0 -54.5 -7.85 -55.25 -7.8 -56.0 -7.8 -56.75 -7.75 -57.5 -7.55 -58.25 -7.0 -58.65 -6.05 -59.0 -4.8 -59.0 -4.8 -59.5 -4.8 -59.75 19.45 -59.8 19.45 -59.75" fill="#ffffff" fill-opacity="0.050980393" fill-rule="evenodd" stroke="none"/>
    <path d="M21.45 -59.45 L21.9 -58.7 22.2 -58.0 22.4 -57.25 22.45 -56.5 22.45 -55.75 22.45 -55.0 22.2 -54.25 21.95 -53.5 21.7 -52.75 21.2 -52.0 20.95 -51.25 20.7 -50.5 20.45 -49.75 20.2 -49.0 19.95 -48.25 19.45 -47.5 19.45 -46.0 19.45 -44.5 19.45 -42.25 19.45 -41.5 19.4 -40.0 19.2 -38.5 18.9 -37.75 18.4 -37.0 17.7 -36.25 15.95 -35.8 13.95 -35.5 13.2 -35.0 11.95 -34.85 7.95 -34.75 6.2 -35.25 5.2 -36.0 4.75 -36.75 4.45 -37.5 4.4 -38.25 4.15 -38.95 3.7 -39.5 3.7 -38.75 3.7 -38.0 3.65 -37.25 3.45 -36.5 3.1 -35.8 2.45 -35.0 0.95 -34.5 -0.8 -35.0 -1.3 -35.75 -1.8 -36.5 -1.8 -37.25 -1.8 -38.0 -1.8 -38.75 -1.8 -39.5 -2.05 -39.65 -4.05 -40.05 -5.8 -40.5 -6.5 -41.25 -7.05 -42.0 Q-7.45 -43.05 -7.35 -44.25 L-7.3 -46.5 -7.3 -48.75 -7.4 -51.75 -7.05 -54.75 -6.75 -55.45 -6.35 -56.25 -6.0 -56.95 -5.6 -57.75 -5.3 -58.5 -4.55 -59.25 -4.0 -59.75 21.15 -59.8 21.45 -59.45" fill="#ffffff" fill-opacity="0.050980393" fill-rule="evenodd" stroke="none"/>
    <path d="M18.7 -59.5 L18.9 -58.75 18.95 -58.0 18.95 -57.25 19.2 -56.5 19.45 -55.75 19.7 -55.0 19.95 -54.25 19.95 -53.5 19.95 -52.0 19.95 -49.0 19.95 -46.0 19.95 -44.5 20.2 -43.75 20.45 -43.0 20.7 -42.25 20.95 -41.5 20.95 -33.25 20.75 -19.0 Q20.55 -11.4 18.95 -4.0 L18.7 -3.25 18.45 -2.5 17.95 -1.0 17.45 0.5 17.2 1.25 16.7 2.0 16.2 2.75 15.2 4.25 13.7 6.5 12.7 7.25 10.95 7.75 8.95 7.25 7.95 6.5 7.45 5.75 7.2 5.0 7.0 4.25 6.95 3.5 6.45 2.75 5.95 2.0 Q5.35 2.25 4.9 2.7 L4.7 3.25 4.4 4.0 3.95 4.75 3.45 5.5 2.7 6.0 2.2 6.2 0.95 6.45 -0.05 6.5 -1.8 6.0 -2.75 5.25 -3.55 4.5 -3.8 3.75 -4.05 3.0 -4.55 2.25 -4.75 1.5 -4.8 0.75 -4.8 0.0 -5.15 -0.6 Q-5.65 -1.1 -6.3 -1.5 L-6.95 -2.3 -7.3 -3.0 -7.5 -3.75 -7.55 -4.5 -7.55 -5.25 -8.0 -6.0 -8.35 -6.7 -8.8 -7.5 -9.05 -8.25 -9.3 -9.0 -9.55 -9.75 -9.4 -17.25 -8.75 -30.75 Q-8.35 -37.5 -8.8 -44.25 L-9.1 -44.95 -9.55 -45.75 -9.75 -46.5 -10.1 -48.0 -10.8 -50.25 -11.8 -53.25 -11.8 -54.0 -11.8 -54.75 -11.8 -55.5 -11.8 -56.25 -11.8 -57.0 -11.5 -57.7 -11.0 -58.45 -10.3 -59.25 -9.3 -59.75 -9.05 -59.75 -5.55 -59.75 -5.3 -59.75 -5.25 -59.75 18.5 -59.8 18.7 -59.5" fill="#ffffff" fill-opacity="0.050980393" fill-rule="evenodd" stroke="none"/>
    <path d="M13.45 -60.5 L21.7 -60.5 22.1 -60.35 22.25 -60.15 22.35 -59.95 22.35 -59.75 22.35 -59.5 22.25 -59.3 22.1 -59.1 21.7 -58.95 Q9.35 -58.85 -3.05 -59.05 L-9.05 -59.05 -11.8 -59.0 -13.55 -58.95 -22.15 -58.95 -22.3 -58.9 -22.55 -58.85 -22.9 -58.95 -23.05 -59.2 -23.1 -59.4 -23.1 -59.55 -23.05 -59.8 -22.9 -60.0 -22.75 -60.25 -22.55 -60.35 -22.3 -60.4 -21.8 -60.45 -19.55 -60.5 -19.55 -60.6 -9.05 -60.45 Q-6.05 -60.35 -3.05 -60.4 L5.95 -60.5 13.45 -60.5" fill="#333333" fill-rule="evenodd" stroke="none"/>
    <path d="M-22.25 -60.1 Q-21.95 -54.25 -21.95 -48.3 L-21.9 -36.5 -21.95 -24.7 -21.95 -12.85 -21.8 -1.05 Q-21.65 4.85 -21.65 10.75 L-21.7 22.55 -21.8 34.4 -21.85 46.2 -21.75 58.0 -21.85 59.3 -21.95 59.5 -22.05 59.7 -22.15 59.8 -22.25 59.85 -22.55 59.95 -23.0 59.8 -23.1 59.65 -23.25 59.45 -23.3 47.65 -23.25 35.8 -23.35 24.0 -23.45 12.2 -23.35 0.4 -23.2 -11.45 Q-23.1 -17.35 -23.15 -23.25 L-23.15 -35.05 -23.15 -46.85 -23.15 -52.85 -22.85 -60.2 -22.7 -60.3 -22.55 -60.3 -22.4 -60.3 -22.25 -60.1" fill="#333333" fill-rule="evenodd" stroke="none"/>
    <path d="M22.85 -60.6 L23.0 -60.45 23.3 -48.8 23.3 -37.0 23.2 -25.2 23.0 -13.35 Q22.95 -7.45 23.05 -1.55 L23.3 10.25 23.45 22.05 23.45 33.9 23.35 45.7 23.3 57.5 23.0 59.55 22.9 59.65 22.75 59.75 22.45 59.8 22.05 59.7 21.9 59.5 21.6 47.9 21.5 36.05 21.45 24.25 Q21.45 18.35 21.6 12.45 L21.8 0.65 21.9 -11.2 21.8 -23.0 21.75 -34.8 21.7 -46.6 21.75 -58.45 21.95 -60.5 22.1 -60.6 22.2 -60.65 22.45 -60.7 22.45 -60.75 22.85 -60.6" fill="#333333" fill-rule="evenodd" stroke="none"/>
    <path d="M23.25 58.85 L23.4 59.05 23.45 59.25 23.4 59.45 23.25 59.7 22.95 59.8 22.2 59.85 8.2 59.95 7.45 59.95 Q0.35 59.95 -6.8 60.1 L-22.05 60.1 -22.5 60.0 -22.65 59.8 -22.8 59.55 -22.85 59.4 -22.85 59.2 -22.85 59.0 -22.75 58.75 -22.55 58.6 -22.35 58.45 -22.05 58.4 -13.05 58.4 -5.05 58.5 7.45 58.55 14.45 58.5 Q18.7 58.4 22.95 58.7 L23.25 58.85" fill="#333333" fill-rule="evenodd" stroke="none"/>
    <path d="M-10.75 -59.85 L-10.55 -49.85 Q-10.5 -44.85 -10.6 -39.85 L-10.7 -29.8 -10.7 -19.8 -10.65 -9.8 -10.65 -3.45 -10.75 -3.3 -10.8 -3.15 -10.8 -2.85 -10.8 -2.5 -10.8 -2.2 -10.8 -2.05 -10.85 -1.85 -10.9 -1.75 -10.9 -1.4 -10.9 -0.95 -10.9 -0.45 -10.95 -0.35 Q-11.05 -0.25 -11.15 -0.25 L-11.15 -0.7 -11.15 -1.2 -11.15 -1.65 -11.25 -1.8 -11.3 -2.0 -11.3 -2.3 -11.3 -2.6 -11.3 -2.9 -11.3 -3.1 -11.35 -3.25 -11.4 -3.45 -11.4 -13.4 -11.4 -23.4 -11.45 -33.4 -11.5 -43.45 -11.5 -53.45 -11.35 -59.8 -11.25 -59.9 -11.05 -60.0 -10.9 -60.0 -10.75 -59.85" fill="#333333" fill-rule="evenodd" stroke="none"/>
    <path d="M-10.9 17.55 L-10.8 17.75 -10.8 17.95 -10.8 18.1 -10.75 18.3 -10.8 18.5 -10.9 18.7 -10.85 18.85 -10.75 19.05 -10.55 29.75 -10.55 40.65 -10.6 46.65 -10.55 51.7 -10.4 56.95 -10.5 59.75 -10.55 59.95 -10.65 60.15 -10.8 60.25 -11.05 60.3 -11.4 60.2 -11.55 60.0 -11.6 59.8 -11.65 54.75 -11.55 49.5 -11.5 46.7 -11.55 46.15 -11.55 45.55 -11.5 45.0 -11.55 35.05 -11.5 24.95 -11.4 19.3 -11.5 19.15 -11.6 18.95 -11.6 18.75 -11.6 18.55 -11.45 18.2 -11.3 17.8 -11.25 17.65 -11.05 17.55 -10.9 17.55" fill="#333333" fill-rule="evenodd" stroke="none"/>
    <path d="M-19.9 55.8 L-19.8 55.9 -19.8 56.15 -19.9 56.55 -20.0 56.8 -20.1 56.9 -20.1 57.0 -20.2 57.1 -20.35 57.75 -20.5 58.4 -20.55 58.95 -20.6 59.05 -20.6 59.15 -20.65 59.25 -20.8 59.3 -20.95 59.25 -21.0 59.15 -21.05 58.5 -20.9 57.85 -20.75 57.2 -20.7 57.1 -20.6 57.0 -20.6 56.9 -20.55 56.8 -20.5 56.75 -20.45 56.65 -20.4 56.55 -20.35 56.45 -20.35 56.35 -20.35 56.25 -20.25 56.05 -20.15 55.9 -20.05 55.8 -19.9 55.8" fill="#333333" fill-rule="evenodd" stroke="none"/>
    <path d="M-19.9 53.4 L-19.9 53.5 -19.85 53.6 -19.9 53.7 -19.95 53.8 -20.0 53.9 -20.1 53.95 -20.15 54.15 -20.2 54.35 -20.25 54.55 -20.3 54.65 -20.45 54.9 -20.6 55.2 -20.75 55.4 -20.75 55.45 -20.8 55.55 -20.8 55.65 -20.85 55.75 -20.85 55.85 -20.85 55.95 -20.9 56.0 -21.05 56.1 -21.2 56.2 -21.35 56.2 -21.35 56.15 -21.3 56.05 -21.25 55.95 -21.25 55.85 -21.25 55.75 -21.25 55.65 -21.25 55.55 -21.2 55.4 -21.2 55.3 -21.15 55.2 -20.95 54.9 -20.8 54.65 -20.7 54.45 -20.65 54.25 -20.6 54.05 -20.5 53.9 -20.35 53.7 -20.25 53.5 -20.2 53.4 -20.2 53.3 -20.15 53.25 -20.05 53.2 -20.0 53.2 -19.9 53.3 -19.9 53.4" fill="#333333" fill-rule="evenodd" stroke="none"/>
    <path d="M-18.5 55.1 L-18.5 55.0 -18.45 54.9 -18.4 54.85 -18.3 54.8 -18.25 54.8 -18.15 54.9 -18.15 55.0 -18.15 55.1 -18.15 55.2 -18.2 55.3 -18.25 55.4 -18.25 55.55 -18.3 55.75 -18.35 55.95 -18.4 56.05 -18.45 56.15 -18.5 56.3 -18.55 56.6 -18.6 56.9 -18.6 56.95 -18.65 57.05 -18.75 57.15 -18.8 57.25 -18.95 57.3 -19.1 57.25 -19.1 57.15 -19.1 57.05 -19.0 56.95 -19.0 56.7 -19.0 56.3 -18.85 55.95 -18.8 55.85 -18.75 55.75 -18.75 55.65 -18.75 55.55 -18.7 55.45 -18.65 55.4 -18.6 55.3 -18.6 55.2 -18.5 55.1" fill="#333333" fill-rule="evenodd" stroke="none"/>
    <path d="M-14.25 56.65 L-14.2 56.7 -14.2 56.9 -14.15 57.1 -14.15 57.3 -14.15 57.4 -14.05 57.65 -14.0 58.05 -14.0 58.3 -14.0 58.4 -13.95 58.5 -13.9 58.6 -13.85 58.7 -13.8 58.8 -13.8 58.9 -13.75 58.95 -13.75 59.05 -13.75 59.15 -13.8 59.25 -13.9 59.35 -14.05 59.35 -14.15 59.25 -14.15 59.15 -14.15 59.05 -14.2 58.9 -14.25 58.7 -14.35 58.6 -14.35 58.5 -14.4 58.15 -14.45 57.75 -14.5 57.45 -14.45 57.2 -14.45 56.8 -14.35 56.65 -14.25 56.65" fill="#333333" fill-rule="evenodd" stroke="none"/>
    <path d="M-13.4 54.65 L-13.4 54.75 -13.35 54.85 -13.3 54.95 -13.25 55.05 -13.25 55.15 -13.2 55.2 -13.15 55.3 -13.1 55.4 -13.1 55.5 -13.05 55.6 -13.0 55.7 -12.95 55.8 -12.9 55.95 -12.85 56.15 -12.8 56.35 -12.85 56.45 -12.9 56.55 -12.95 56.65 -13.0 56.55 -13.15 56.35 -13.25 56.15 -13.3 56.05 -13.35 55.9 -13.45 55.7 -13.5 55.5 -13.55 55.4 -13.6 55.3 -13.65 55.2 -13.7 55.15 -13.7 55.05 -13.75 54.95 -13.75 54.85 -13.75 54.75 -13.7 54.65 -13.65 54.6 -13.55 54.55 -13.5 54.55 -13.4 54.65" fill="#333333" fill-rule="evenodd" stroke="none"/>
    <path d="M-10.7 43.75 L-10.85 43.8 -10.95 43.7 -11.0 43.6 -11.0 43.5 -10.95 43.4 -10.95 43.3 -10.45 42.75 -9.95 42.3 -9.6 41.9 -9.45 41.8 -9.35 41.7 -9.2 41.7 -9.15 41.7 -9.05 41.8 -9.55 42.55 -10.25 43.2 -10.7 43.75" fill="#333333" fill-rule="evenodd" stroke="none"/>
    <path d="M-8.0 42.5 L-7.9 42.45 -7.75 42.4 -7.6 42.35 -7.55 42.35 -7.45 42.35 -7.4 42.35 -7.3 42.45 -7.3 42.5 -7.35 42.6 -7.65 42.8 -7.75 42.9 -7.85 43.0 -7.95 43.1 -7.95 43.2 -8.0 43.25 -8.1 43.35 -8.2 43.45 -8.25 43.55 -8.3 43.65 -8.35 43.75 -8.4 43.85 -8.55 43.9 -8.7 43.85 -8.8 43.75 -8.8 43.65 -8.8 43.55 -8.75 43.45 -8.75 43.35 -8.65 43.3 -8.6 43.2 -8.45 43.1 -8.35 42.9 -8.25 42.8 -8.2 42.7 -8.0 42.5" fill="#333333" fill-rule="evenodd" stroke="none"/>
    <path d="M20.15 30.05 L20.2 30.05 20.3 30.0 20.35 30.0 20.45 29.95 20.5 29.95 20.65 30.05 20.7 30.1 21.65 30.5 22.45 30.85 Q22.75 30.9 23.05 31.1 L23.05 31.2 23.1 31.3 23.1 31.35 23.15 31.45 23.1 31.5 22.95 31.55 22.4 31.35 21.9 31.15 21.4 31.0 21.25 30.9 21.15 30.8 21.0 30.7 20.8 30.6 20.55 30.55 20.45 30.45 20.45 30.35 20.4 30.25 20.3 30.2 20.15 30.1 20.15 30.05" fill="#333333" fill-rule="evenodd" stroke="none"/>
    <path d="M18.45 30.55 L18.5 30.6 18.75 30.6 18.85 30.7 19.0 30.8 19.1 30.9 19.2 31.0 19.35 31.1 19.4 31.2 19.5 31.25 19.65 31.35 19.7 31.45 19.75 31.55 19.8 31.65 19.75 31.75 19.6 31.75 19.45 31.65 19.3 31.6 19.15 31.55 19.05 31.45 19.0 31.35 18.95 31.25 18.9 31.2 18.75 31.1 18.65 31.0 18.55 30.9 18.45 30.8 18.4 30.75 18.25 30.65 18.25 30.6 18.3 30.6 18.45 30.55" fill="#333333" fill-rule="evenodd" stroke="none"/>
    <path d="M-11.3 3.5 L-11.3 3.45 -11.3 3.35 -11.2 3.25 -11.05 3.2 -10.9 3.25 -10.85 3.35 -10.85 3.45 -10.85 3.5 -10.85 3.6 -10.85 3.7 -10.85 3.8 -10.9 3.9 -10.85 4.0 -10.85 4.1 -10.8 4.2 -10.75 5.5 -10.75 6.9 -10.75 7.75 -10.8 7.85 -10.8 7.95 -10.8 8.0 -10.85 8.1 -10.95 8.2 -11.05 8.25 -11.2 8.2 -11.3 8.1 -11.3 8.0 -11.35 7.95 -11.35 7.85 -11.35 6.6 -11.35 5.3 -11.3 4.45 -11.3 4.35 -11.35 4.2 -11.4 4.0 -11.4 3.9 -11.4 3.8 -11.35 3.7 -11.3 3.6 -11.3 3.5" fill="#333333" fill-rule="evenodd" stroke="none"/>
  </g>
</svg>
