<?xml version="1.0" encoding="UTF-8" standalone="no"?>
<svg xmlns:xlink="http://www.w3.org/1999/xlink" height="103.15px" width="104.8px" xmlns="http://www.w3.org/2000/svg">
  <g transform="matrix(1.0, 0.0, 0.0, 1.0, 52.4, 51.6)">
    <path d="M49.55 -49.8 L49.55 50.1 -50.4 50.1 -50.4 -49.8 49.55 -49.8" fill="#b0cedc" fill-rule="evenodd" stroke="none"/>
    <path d="M7.05 -2.7 L7.5 -2.8 7.55 -2.9 9.55 -2.9 10.15 -2.65 10.4 -2.25 10.5 -1.9 10.55 -1.5 10.8 -1.15 10.8 -0.75 10.85 -0.4 10.9 0.0 10.9 0.35 10.8 0.75 10.6 1.1 10.1 1.85 9.4 2.6 9.15 2.75 6.55 3.0 5.65 2.75 5.4 2.35 5.15 2.0 5.15 1.6 5.15 1.25 5.15 0.85 5.15 0.5 5.2 0.15 5.4 -0.25 5.8 -1.0 6.4 -1.75 6.55 -2.1 6.8 -2.5 7.05 -2.7" fill="#33ff66" fill-rule="evenodd" stroke="none"/>
    <path d="M19.9 -38.3 Q22.35 -36.05 23.5 -32.4 24.8 -24.75 17.0 -24.6 L13.25 -24.15 Q1.15 -21.45 -12.8 -24.15 -13.95 -21.95 -16.55 -21.9 L-18.05 -22.15 -21.3 -27.4 Q-23.45 -39.35 -10.45 -40.75 L8.3 -41.7 Q15.5 -42.35 19.9 -38.3" fill="#663366" fill-opacity="0.16078432" fill-rule="evenodd" stroke="none"/>
    <path d="M8.95 20.6 Q9.6 20.1 10.5 19.85 26.55 23.2 21.2 37.25 20.95 37.95 19.7 38.6 18.75 39.15 17.9 39.8 15.15 45.75 8.1 44.75 6.0 44.25 4.25 43.15 -6.65 44.95 -17.3 41.65 -22.9 32.45 -17.3 23.6 -5.75 21.25 7.25 22.35 L8.95 20.6" fill="#663366" fill-opacity="0.16078432" fill-rule="evenodd" stroke="none"/>
    <path d="M50.8 -13.4 L50.85 -12.7 50.55 -11.9 49.55 -11.4 -0.25 -11.65 -1.0 -12.4 -0.85 -13.15 -0.5 -13.9 0.45 -14.25 0.5 -14.4 50.05 -14.15 50.8 -13.4" fill="#663366" fill-opacity="0.16078432" fill-rule="evenodd" stroke="none"/>
    <path d="M50.65 12.0 L51.05 12.6 51.1 13.3 50.8 14.1 50.45 14.45 Q50.05 14.75 49.55 14.85 L29.55 14.75 -1.25 14.35 -1.85 13.55 -2.0 12.85 -1.75 12.1 -1.35 11.5 Q-1.0 11.25 -0.45 11.15 L0.0 11.1 29.55 11.3 49.55 11.35 50.65 12.0" fill="#663366" fill-opacity="0.16078432" fill-rule="evenodd" stroke="none"/>
    <path d="M3.0 -1.65 L3.0 -2.4 3.15 -3.1 3.55 -3.9 4.25 -4.65 4.85 -5.05 5.5 -5.25 5.55 -5.4 12.05 -5.15 12.8 -4.4 13.5 -3.6 14.6 -2.25 15.55 -1.4 15.7 -0.65 15.8 0.1 15.8 0.85 15.8 1.6 15.8 2.35 15.5 3.05 15.0 3.8 14.3 4.65 13.75 5.3 13.3 5.85 12.55 5.95 7.55 5.85 6.3 5.3 5.55 4.85 3.75 4.35 3.0 3.6 3.0 2.85 3.0 1.35 3.0 -0.15 3.0 -1.65 M6.15 -1.1 L6.05 -0.4 6.05 0.35 Q6.05 0.7 6.2 0.9 6.9 1.45 7.8 1.85 L9.65 1.5 9.8 1.1 9.8 0.35 9.9 -0.35 10.3 -1.15 6.75 -2.0 6.55 -1.9 6.15 -1.1" fill="#663366" fill-opacity="0.16078432" fill-rule="evenodd" stroke="none"/>
    <path d="M37.0 -37.65 Q44.45 -20.15 43.35 0.85 42.4 18.85 36.4 35.2 36.0 36.35 34.75 37.1 L27.75 36.85 26.3 34.3 Q29.45 28.3 27.75 21.85 L-24.3 22.85 Q-22.35 32.15 -28.0 37.75 -28.45 38.25 -29.3 38.35 -31.05 42.3 -35.3 40.65 L-40.1 33.35 Q-41.5 31.2 -40.8 28.6 -44.8 22.75 -41.05 17.35 -41.9 -1.65 -37.75 -19.9 -44.5 -28.4 -36.3 -37.4 -28.35 -44.65 -24.6 -37.55 -23.05 -34.65 -22.95 -31.15 -22.85 -27.55 -23.05 -23.9 L25.25 -22.65 26.1 -30.85 Q25.75 -38.4 33.8 -37.7 L37.0 -37.65 M6.0 -1.9 L6.0 1.85 12.0 1.1 12.0 -1.15 6.0 -1.9" fill="#663366" fill-opacity="0.16078432" fill-rule="evenodd" stroke="none"/>
    <path d="M29.9 -31.65 L31.5 -32.4 33.25 -31.9 Q39.45 -16.5 32.0 -2.65 37.95 14.6 29.5 26.85 L28.8 26.7 Q25.7 25.1 23.75 22.1 L-26.05 21.1 Q-24.35 30.35 -31.3 29.85 L-33.8 26.1 Q-33.05 15.5 -36.6 6.4 -36.75 6.05 -37.05 5.85 -38.0 1.6 -34.55 -1.65 -34.55 -8.2 -29.5 -15.9 -33.2 -18.55 -32.5 -22.25 -31.4 -27.7 -28.3 -32.4 L-26.55 -32.9 Q-21.9 -29.65 -24.05 -24.15 L-23.1 -19.7 Q0.85 -25.2 26.9 -23.05 L27.8 -26.6 Q27.3 -29.85 29.9 -31.65" fill="#663366" fill-opacity="0.16078432" fill-rule="evenodd" stroke="none"/>
    <path d="M23.0 -28.95 L28.25 -27.95 Q30.25 -26.05 29.9 -23.45 L29.65 -22.7 29.2 -22.0 28.7 -21.25 27.25 -19.95 8.25 -18.95 1.3 -17.8 Q-8.6 -17.65 -18.45 -18.15 L-25.25 -19.2 -26.5 -20.7 -26.75 -23.7 -25.25 -25.7 -23.0 -26.45 Q-17.7 -31.8 -9.5 -31.65 L20.45 -29.7 Q21.75 -29.6 23.0 -28.95" fill="#663366" fill-opacity="0.16078432" fill-rule="evenodd" stroke="none"/>
    <path d="M29.45 20.85 L29.2 24.55 24.0 27.6 23.45 28.3 Q16.45 34.35 6.55 32.15 L4.0 31.1 Q-3.5 33.6 -11.5 32.6 -17.35 31.65 -21.75 28.6 L-21.75 25.1 -24.5 23.85 -24.5 19.35 -22.75 17.35 -21.5 17.15 -6.6 15.4 Q-1.35 14.75 2.3 17.55 L20.0 18.35 Q24.0 18.85 27.85 19.9 28.7 20.1 29.45 20.85" fill="#663366" fill-opacity="0.16078432" fill-rule="evenodd" stroke="none"/>
    <path d="M-4.85 -7.15 Q-4.5 -4.55 -4.5 -1.9 L-4.45 3.75 -4.35 7.15 -4.5 7.5 -4.75 7.9 -5.0 8.1 -5.5 8.25 -6.25 8.0 -6.5 7.65 -6.6 2.0 -6.45 -3.65 -6.25 -7.0 -6.0 -7.4 -5.5 -7.5 -5.25 -7.5 -4.85 -7.15" fill="#ffffff" fill-opacity="0.16078432" fill-rule="evenodd" stroke="none"/>
    <path d="M48.15 -11.5 L48.35 -11.1 48.4 -10.75 48.25 -10.4 48.0 -10.2 47.55 -10.0 8.0 -10.15 Q3.05 -10.2 -1.85 -10.4 L-2.05 -10.8 -2.1 -11.15 -1.85 -11.3 8.0 -11.75 47.55 -11.75 48.15 -11.5" fill="#ffffff" fill-opacity="0.16078432" fill-rule="evenodd" stroke="none"/>
    <path d="M50.3 9.4 L50.3 9.75 50.15 10.15 50.05 10.25 Q24.6 11.65 -1.0 10.9 L-1.75 10.65 -2.35 10.25 -2.75 9.9 -2.7 9.5 -2.5 9.15 -1.85 8.75 -1.5 8.5 -1.0 8.45 -1.0 8.4 34.5 8.15 49.5 9.0 Q49.9 9.05 50.3 9.4" fill="#ffffff" fill-opacity="0.16078432" fill-rule="evenodd" stroke="none"/>
    <path d="M-46.9 -47.55 L-44.25 -47.55 Q-37.0 -47.1 -29.9 -48.7 L-29.0 -48.9 -28.5 -48.9 -27.75 -48.65 -27.4 -48.4 -27.25 -48.35 -26.0 -48.1 -24.75 -47.9 -24.4 -47.5 -24.15 -47.15 -24.2 -46.85 -24.5 -46.55 -25.0 -46.65 -26.0 -46.6 -27.4 -46.4 -27.75 -46.05 -28.25 -45.65 -32.75 -44.6 -33.5 -44.4 -47.0 -44.15 -47.4 -43.9 -48.0 -43.8 -48.5 -43.8 -49.9 -44.15 -50.25 -44.55 -50.5 -44.9 -50.5 -45.3 -50.5 -45.65 -50.5 -46.4 -50.5 -46.8 -50.35 -47.1 -50.0 -47.5 -49.65 -47.8 -49.0 -47.9 -48.0 -48.05 -47.25 -47.8 -46.9 -47.55" fill="#ffffff" fill-opacity="0.16078432" fill-rule="evenodd" stroke="none"/>
    <path d="M-46.95 -46.6 L-46.75 -46.3 Q-46.4 -34.65 -46.35 -23.0 L-46.2 0.6 -46.1 24.25 -46.0 45.65 -46.15 46.0 -46.25 46.4 -46.45 46.75 -46.75 47.15 -47.0 47.4 -47.3 47.5 -48.0 47.65 -49.0 47.4 -49.5 47.05 -49.75 46.65 -49.9 46.25 -50.0 23.0 -49.85 -0.65 -49.65 -24.25 -49.4 -46.05 -49.35 -46.4 -49.15 -46.8 -48.75 -47.05 -48.65 -47.1 -48.05 -47.2 -48.0 -47.3 -47.25 -47.05 -46.95 -46.6" fill="#ffffff" fill-opacity="0.16078432" fill-rule="evenodd" stroke="none"/>
    <path d="M-31.5 43.5 L-28.5 43.5 -27.75 43.75 -26.5 44.05 -25.75 44.25 -25.25 44.65 -25.0 45.0 -24.65 45.4 -24.3 45.8 -24.15 46.15 -24.25 46.5 -24.4 46.75 -24.5 46.9 -25.25 47.15 -25.65 47.4 -25.9 47.5 -26.5 47.65 -27.15 47.5 -27.4 47.4 -46.0 47.3 -46.85 46.95 -47.15 46.75 -48.0 46.65 -49.0 46.5 -49.65 46.25 -49.85 45.9 -49.9 45.5 -49.75 45.15 -49.5 44.95 -49.0 44.8 -48.05 44.6 -47.0 44.4 -46.65 44.15 -37.5 43.65 -31.5 43.5" fill="#ffffff" fill-opacity="0.16078432" fill-rule="evenodd" stroke="none"/>
    <path d="M24.75 49.55 L24.0 49.6 -27.0 49.65 -28.0 49.4 -28.5 49.05 -28.75 48.65 -28.9 48.3 -29.0 47.9 -29.0 47.55 -29.0 47.15 -28.85 46.8 -28.6 46.4 -28.25 46.0 -27.75 45.75 -27.0 45.7 -27.0 45.65 24.0 45.65 24.9 45.9 25.4 46.25 25.65 46.65 25.85 47.05 26.0 47.4 26.0 47.75 25.9 48.15 25.75 48.55 25.5 48.9 25.15 49.25 24.75 49.55" fill="#ffffff" fill-opacity="0.16078432" fill-rule="evenodd" stroke="none"/>
    <path d="M49.4 43.9 L49.65 44.3 49.8 44.65 49.9 45.05 49.9 45.4 49.8 45.75 49.55 46.15 49.3 46.5 48.9 46.75 48.65 46.85 30.0 47.05 29.15 46.75 28.75 46.5 28.5 46.45 27.0 46.25 26.25 46.0 26.05 45.65 25.9 45.25 25.95 44.9 26.05 44.55 26.25 44.25 26.55 44.15 27.0 44.05 28.65 43.75 29.15 43.5 29.4 43.45 30.0 43.35 30.0 43.25 48.05 43.25 48.9 43.5 49.4 43.9" fill="#ffffff" fill-opacity="0.16078432" fill-rule="evenodd" stroke="none"/>
    <path d="M47.8 -50.3 L48.3 -49.9 48.55 -49.55 48.85 -36.75 48.9 -23.25 48.9 -15.4 49.0 -10.5 49.05 -4.9 48.9 -0.4 49.1 17.25 49.05 35.65 49.05 46.15 48.9 46.5 48.8 46.9 48.6 47.25 48.3 47.65 48.05 47.9 47.75 48.0 47.05 48.15 46.05 47.9 45.55 47.55 45.3 47.15 45.15 46.75 Q44.95 38.0 45.0 29.15 L44.95 10.75 45.15 -0.15 45.05 -18.9 45.3 -38.4 45.4 -49.3 45.55 -49.6 45.9 -50.05 46.15 -50.3 46.4 -50.35 47.0 -50.45 47.05 -50.55 47.8 -50.3" fill="#ffffff" fill-opacity="0.16078432" fill-rule="evenodd" stroke="none"/>
    <path d="M40.05 -47.95 L48.0 -47.45 48.65 -47.3 48.9 -46.9 49.05 -46.5 49.05 -46.15 48.9 -45.8 48.75 -45.55 48.55 -45.4 48.05 -45.3 47.55 -45.2 33.5 -44.8 27.0 -44.8 26.15 -45.05 25.8 -45.4 25.55 -45.8 25.4 -46.15 25.4 -46.55 25.45 -46.9 25.65 -47.25 26.05 -47.65 26.4 -47.9 27.0 -47.95 27.0 -48.05 33.5 -48.0 40.05 -47.95" fill="#ffffff" fill-opacity="0.16078432" fill-rule="evenodd" stroke="none"/>
    <path d="M-49.7 -27.05 Q-55.15 -41.65 -41.85 -49.4 L-38.55 -51.15 -35.55 -49.15 Q-30.55 -50.1 -27.3 -46.8 -22.15 -41.65 -27.75 -36.15 L-34.0 -33.4 -34.85 -30.5 Q-32.35 -23.8 -37.05 -18.65 -50.25 -4.1 -48.05 -23.9 -49.05 -25.4 -49.7 -27.05" fill="#ffffff" fill-opacity="0.16078432" fill-rule="evenodd" stroke="none"/>
    <path d="M-36.8 25.75 L-36.05 30.15 Q-32.1 32.35 -29.4 36.0 -26.9 39.45 -26.0 43.65 L-27.65 46.1 Q-32.35 46.9 -37.05 46.2 -41.8 45.55 -46.3 43.65 L-47.55 44.15 -48.8 43.65 -47.9 32.8 -50.05 30.15 Q-47.55 22.45 -49.3 14.4 -50.3 9.95 -49.05 6.1 L-47.55 5.6 Q-44.95 7.5 -43.15 10.4 -40.65 14.5 -39.1 18.9 L-40.55 22.25 -36.8 25.75" fill="#ffffff" fill-opacity="0.16078432" fill-rule="evenodd" stroke="none"/>
    <path d="M25.8 -42.35 Q22.7 -40.6 21.25 -44.3 L17.5 -44.15 Q-2.15 -30.4 -24.25 -40.65 L-25.25 -42.15 Q-22.0 -50.95 -12.5 -49.4 L-11.25 -50.65 Q0.05 -51.05 11.25 -49.15 23.7 -56.2 26.45 -42.85 L25.8 -42.35" fill="#ffffff" fill-opacity="0.16078432" fill-rule="evenodd" stroke="none"/>
    <path d="M-29.5 42.15 L-26.25 40.85 Q0.35 30.35 24.25 47.0 0.6 50.55 -23.25 47.65 L-24.7 44.9 -28.25 43.65 -29.5 42.15" fill="#ffffff" fill-opacity="0.16078432" fill-rule="evenodd" stroke="none"/>
    <path d="M36.0 -42.75 L31.0 -44.15 29.35 -47.95 31.5 -50.15 46.0 -47.15 47.1 -44.7 Q50.65 -36.25 47.75 -27.65 48.6 -25.0 48.75 -22.35 49.0 -17.95 47.55 -13.75 L48.55 -12.45 Q50.35 -10.15 50.75 -7.35 51.35 -2.75 47.75 0.1 47.75 2.4 47.05 4.7 46.5 6.6 44.95 7.65 36.1 -7.75 37.5 -25.45 L34.5 -28.9 Q34.35 -30.15 34.35 -31.35 34.35 -37.2 36.0 -42.75" fill="#ffffff" fill-opacity="0.16078432" fill-rule="evenodd" stroke="none"/>
    <path d="M49.25 46.15 L46.5 47.15 42.05 44.75 39.5 45.75 Q37.3 46.65 35.0 46.15 L33.65 47.0 32.45 46.95 Q30.15 46.8 28.7 45.0 26.6 42.2 26.5 38.65 L28.75 37.25 31.25 36.4 Q32.0 26.35 36.5 17.65 L36.15 15.0 Q34.85 1.05 46.5 -6.9 57.15 14.0 48.55 36.3 L52.0 38.65 51.75 42.4 49.5 44.65 49.25 46.15" fill="#ffffff" fill-opacity="0.16078432" fill-rule="evenodd" stroke="none"/>
    <path d="M-26.45 32.45 L-26.35 22.55 -24.65 22.0 Q-24.4 34.95 -24.5 47.95 L-24.6 49.95 -24.7 50.3 -25.1 50.95 -25.5 51.1 -26.05 50.85 -26.15 50.45 -26.4 44.25 -26.45 38.35 -26.45 32.45 M-25.1 -51.05 L-24.75 -49.9 -24.4 -21.75 -26.55 -21.8 -26.45 -33.55 -26.25 -45.3 -25.95 -50.55 -25.1 -51.05" fill="#333333" fill-rule="evenodd" stroke="none"/>
    <path d="M27.2 -49.95 L27.4 -22.4 25.35 -22.15 25.65 -50.05 26.1 -51.05 27.2 -49.95 M27.6 21.35 L27.6 22.85 27.65 28.8 27.65 34.7 27.6 40.6 27.35 49.5 Q27.35 50.2 26.85 50.6 L25.95 50.5 25.7 50.1 25.6 49.75 25.4 38.35 25.4 20.5 27.6 21.35" fill="#333333" fill-rule="evenodd" stroke="none"/>
    <path d="M-50.3 -49.9 L-49.9 -49.55 Q-49.0 -35.2 -49.0 -20.85 L-49.0 -15.1 -48.95 -9.4 -48.95 -3.7 -49.0 2.1 -49.0 7.8 -49.1 13.55 -49.2 19.25 -49.25 25.05 -49.2 30.8 -49.0 36.5 -48.75 42.2 -48.6 45.5 Q-48.6 47.1 -48.75 48.7 L-48.85 49.05 -49.2 49.65 -49.95 50.25 Q-51.3 50.65 -52.3 49.55 L-52.3 43.9 -52.3 38.15 -52.3 32.45 -52.2 26.6 -52.1 20.9 -52.0 15.2 -52.0 9.45 -52.0 3.7 -52.0 -2.05 -52.0 -7.75 -52.0 -13.45 -51.95 -19.2 -51.95 -24.9 Q-51.85 -37.05 -51.2 -49.05 L-51.05 -49.8 -50.3 -49.9" fill="#333333" fill-rule="evenodd" stroke="none"/>
    <path d="M26.65 -51.45 L26.65 -50.45 50.75 -50.2 51.5 -49.05 50.9 -47.7 26.65 -47.45 26.65 -48.45 -25.9 -48.45 -25.9 -47.45 -29.0 -47.45 -35.25 -47.45 -41.55 -47.45 -44.75 -47.45 -47.85 -47.45 -51.9 -47.8 -52.4 -48.95 -51.9 -50.05 -51.05 -50.3 -47.55 -50.4 -42.1 -50.45 -36.7 -50.45 -25.9 -50.45 -25.9 -51.45 26.65 -51.45" fill="#333333" fill-rule="evenodd" stroke="none"/>
    <path d="M50.0 -50.95 L50.65 -50.7 50.85 -49.95 Q51.5 -41.05 51.55 -32.45 L51.6 -26.65 51.55 -20.7 51.55 -14.8 51.45 -8.9 51.4 -3.05 51.3 2.9 51.3 8.8 51.3 14.7 51.35 20.6 51.5 26.55 51.6 32.45 51.7 38.35 51.85 44.25 51.8 48.35 51.7 48.75 Q51.4 49.55 50.65 49.85 49.25 50.25 48.25 49.0 L48.25 43.2 48.3 37.4 48.35 31.6 48.45 25.75 48.55 19.85 48.65 13.95 48.65 8.05 48.55 2.1 48.45 -3.8 48.45 -9.7 48.45 -15.6 48.4 -21.55 48.75 -45.2 Q48.8 -47.65 49.15 -50.0 L49.4 -50.7 50.0 -50.95" fill="#333333" fill-rule="evenodd" stroke="none"/>
    <path d="M46.9 46.6 L49.7 47.1 50.5 48.6 49.7 50.1 26.95 50.55 26.95 51.55 -25.4 51.4 -25.4 50.4 -51.1 50.35 -51.8 50.1 -52.3 49.0 -51.45 47.5 -25.4 47.05 -25.4 48.05 26.95 47.65 26.95 46.65 32.35 46.6 37.7 46.6 46.9 46.6" fill="#333333" fill-rule="evenodd" stroke="none"/>
    <path d="M0.7 -21.65 L0.85 -21.55 1.05 -21.4 1.2 -21.2 1.25 -20.9 1.25 -19.4 1.15 -13.5 1.15 -12.1 1.05 -12.0 1.0 -11.95 0.9 -11.95 0.8 -11.9 0.6 -11.8 0.55 -11.7 0.45 -11.6 0.35 -11.5 0.25 -11.45 -0.05 -11.25 -0.25 -11.05 -0.35 -19.4 -0.35 -20.9 -0.25 -21.3 -0.05 -21.5 0.15 -21.6 0.35 -21.7 0.5 -21.7 0.7 -21.65" fill="#333333" fill-rule="evenodd" stroke="none"/>
    <path d="M1.05 20.3 L1.0 21.0 0.9 21.35 0.7 21.45 0.5 21.55 0.35 21.5 0.15 21.45 0.05 21.4 -0.05 21.25 -0.1 21.0 -0.15 20.3 -0.35 11.15 -0.15 11.3 1.25 12.6 1.15 16.1 1.05 20.3" fill="#333333" fill-rule="evenodd" stroke="none"/>
    <path d="M-6.9 7.1 L-7.05 7.0 -7.25 6.85 -7.4 6.65 -7.45 6.35 -7.45 5.85 -7.45 4.85 -7.35 -1.05 -7.25 -5.25 -7.2 -5.95 -7.1 -6.3 -6.9 -6.4 -6.7 -6.5 -6.55 -6.45 -6.35 -6.4 -6.25 -6.35 -6.15 -6.2 -6.1 -5.95 -6.05 -5.25 -5.85 4.85 -5.85 6.35 -5.95 6.75 -6.15 6.95 -6.35 7.05 -6.55 7.15 -6.7 7.15 -6.9 7.1" fill="#333333" fill-rule="evenodd" stroke="none"/>
    <path d="M-0.3 -13.1 L0.2 -13.6 0.55 -13.75 0.8 -13.7 0.95 -13.65 1.05 -13.45 1.1 -13.3 1.15 -13.15 1.15 -13.05 1.0 -12.8 0.5 -12.3 Q-2.85 -8.55 -6.5 -5.0 L-7.55 -3.95 -7.5 -6.2 -3.35 -10.25 -0.3 -13.1" fill="#333333" fill-rule="evenodd" stroke="none"/>
    <path d="M1.35 13.4 L1.35 13.2 1.3 12.95 1.15 12.7 0.1 11.65 -4.15 7.5 -7.2 4.65 -7.5 4.35 -7.5 5.15 -7.45 5.3 -7.45 5.5 -7.45 5.6 -7.45 6.1 -1.0 12.75 0.05 13.8 0.4 14.05 0.65 14.0 0.9 13.95 1.05 13.9 1.2 13.75 1.3 13.65 1.35 13.4" fill="#333333" fill-rule="evenodd" stroke="none"/>
    <path d="M10.8 3.4 Q9.55 4.7 7.75 4.7 5.95 4.7 4.65 3.4 3.4 2.15 3.4 0.35 3.4 -1.5 4.65 -2.75 5.95 -4.05 7.75 -4.05 9.55 -4.05 10.8 -2.75 12.1 -1.5 12.1 0.35 12.1 2.15 10.8 3.4 M6.35 1.7 Q7.0 2.35 7.9 2.35 8.85 2.35 9.45 1.7 10.1 1.05 10.1 0.15 10.1 -0.75 9.45 -1.4 8.85 -2.05 7.9 -2.05 7.0 -2.05 6.35 -1.4 5.75 -0.75 5.75 0.15 5.75 1.05 6.35 1.7" fill="#333333" fill-rule="evenodd" stroke="none"/>
    <path d="M27.5 -23.75 Q28.2 -23.6 28.25 -22.8 L28.1 -22.4 26.9 -22.35 26.45 -22.2 24.1 -22.05 12.2 -21.7 0.2 -21.5 -11.8 -21.5 -23.8 -21.6 -26.3 -21.9 -26.8 -23.0 Q-26.6 -24.0 -25.55 -24.0 L-16.85 -24.1 -8.25 -24.15 0.4 -24.2 9.0 -24.2 18.3 -24.1 27.5 -23.75" fill="#333333" fill-rule="evenodd" stroke="none"/>
    <path d="M25.75 21.15 L25.95 21.5 26.05 21.95 26.05 22.25 25.85 23.0 25.1 23.65 -24.8 23.0 -25.0 21.55 -18.6 21.3 -12.5 21.2 -6.4 21.15 -0.3 21.05 5.8 20.95 11.9 20.85 18.0 20.7 24.0 20.6 25.25 20.75 25.75 21.15" fill="#333333" fill-rule="evenodd" stroke="none"/>
    <path d="M-21.8 40.05 Q-21.8 39.25 -21.1 39.3 L-20.85 39.65 Q-20.85 41.45 -22.1 42.85 L-22.65 42.3 Q-22.8 41.95 -22.55 41.7 L-22.05 41.0 -21.8 40.05" fill="#333333" fill-rule="evenodd" stroke="none"/>
    <path d="M-20.5 46.8 L-20.6 46.65 Q-20.9 44.3 -19.85 42.2 L-18.45 38.45 -17.7 38.25 Q-17.25 39.05 -17.6 39.9 L-18.6 42.3 -19.15 44.1 Q-19.55 45.6 -20.5 46.8" fill="#333333" fill-rule="evenodd" stroke="none"/>
    <path d="M-14.95 43.75 L-14.9 43.95 Q-15.0 45.25 -15.75 46.3 L-16.25 45.6 Q-16.25 44.85 -15.85 44.05 -15.55 43.5 -14.95 43.75" fill="#333333" fill-rule="evenodd" stroke="none"/>
    <path d="M-9.5 42.5 L-8.75 42.5 -8.75 44.4 -9.5 44.4 -9.5 42.5" fill="#333333" fill-rule="evenodd" stroke="none"/>
    <path d="M14.75 42.5 L15.3 42.5 15.3 45.7 14.75 45.7 14.75 42.5" fill="#333333" fill-rule="evenodd" stroke="none"/>
    <path d="M17.55 39.4 L18.1 39.35 19.2 44.9 Q18.85 45.5 18.45 45.0 L17.5 41.6 Q17.1 40.4 17.55 39.4" fill="#333333" fill-rule="evenodd" stroke="none"/>
    <path d="M-17.45 -44.05 L-19.0 -48.55 -18.75 -49.1 -18.55 -49.05 Q-17.45 -48.3 -17.1 -46.6 L-16.95 -46.25 -16.6 -45.3 Q-16.55 -44.15 -16.75 -43.1 L-17.0 -43.7 -17.45 -44.05" fill="#333333" fill-rule="evenodd" stroke="none"/>
    <path d="M-18.85 -42.7 L-19.25 -42.95 -19.7 -43.6 -20.05 -44.55 Q-20.3 -45.55 -19.6 -45.5 L-18.85 -42.7" fill="#333333" fill-rule="evenodd" stroke="none"/>
    <path d="M-13.8 -45.35 L-13.85 -45.55 Q-13.75 -46.3 -13.1 -45.8 L-12.2 -44.75 Q-11.7 -44.45 -11.85 -43.95 -13.1 -44.2 -13.8 -45.35" fill="#333333" fill-rule="evenodd" stroke="none"/>
    <path d="M-45.25 -6.65 L-45.35 -6.5 -47.55 -5.85 -49.3 -5.05 Q-49.95 -4.85 -50.35 -5.3 L-49.45 -6.1 Q-48.2 -6.85 -46.5 -7.15 -45.55 -7.4 -45.25 -6.65" fill="#333333" fill-rule="evenodd" stroke="none"/>
    <path d="M-49.15 -3.3 L-47.75 -3.45 -46.3 -3.3 -45.75 -2.9 Q-45.75 -2.65 -46.3 -2.5 L-47.75 -2.35 -49.15 -2.5 Q-49.75 -2.65 -49.75 -2.9 -49.75 -3.15 -49.15 -3.3" fill="#333333" fill-rule="evenodd" stroke="none"/>
    <path d="M44.55 11.85 L46.05 11.6 49.3 11.4 Q50.0 11.45 50.15 12.1 L50.0 12.35 46.05 13.0 43.55 12.6 44.15 12.25 44.55 11.85" fill="#333333" fill-rule="evenodd" stroke="none"/>
    <path d="M44.45 7.8 L44.45 8.6 39.85 8.6 39.85 7.8 44.45 7.8" fill="#333333" fill-rule="evenodd" stroke="none"/>
  </g>
</svg>
