<?xml version="1.0" encoding="UTF-8" standalone="no"?>
<svg xmlns:xlink="http://www.w3.org/1999/xlink" height="50.0px" width="52.8px" xmlns="http://www.w3.org/2000/svg">
  <g transform="matrix(1.0, 0.0, 0.0, 1.0, 1.0, 1.0)">
    <path d="M0.8 48.0 L5.1 48.0 9.3 48.0 13.45 48.0 17.6 48.0 21.65 47.95 25.7 47.95 29.75 47.95 33.8 47.9 37.85 47.85 41.9 47.85 45.95 47.8 49.05 47.75 50.8 47.75 50.8 43.75 50.75 39.8 50.75 35.85 50.7 31.9 50.7 27.95 50.65 24.0 50.6 20.05 50.6 16.1 50.55 12.15 50.55 8.15 50.5 4.25 50.5 1.35 50.5 0.1 M49.7 0.1 L45.6 0.0 41.5 0.0 37.5 0.0 33.5 0.0 30.5 0.0 26.45 0.0 22.55 0.0 18.7 0.0 14.85 0.0 11.0 0.0 7.15 0.0 4.25 0.0 0.0 0.1 M0.0 0.6 L0.25 3.8 0.7 8.3 1.0 12.3 1.2 16.3 1.3 19.3 1.35 21.4 1.15 24.5 0.7 28.85 0.25 32.8 0.05 35.8 0.0 37.4 0.2 40.7 0.3 42.0 0.45 44.95 0.55 48.0" fill="none" stroke="#ffffff" stroke-linecap="round" stroke-linejoin="round" stroke-width="2.0"/>
  </g>
</svg>
