<?xml version="1.0" encoding="UTF-8" standalone="no"?>
<svg xmlns:xlink="http://www.w3.org/1999/xlink" height="36.45px" width="39.05px" xmlns="http://www.w3.org/2000/svg">
  <g transform="matrix(1.0, 0.0, 0.0, 1.0, 1.0, 1.0)">
    <path d="M0.0 0.5 L0.0 3.5 0.0 7.5 1.95 9.75 Q2.6 10.5 2.9 11.9 L2.95 14.9 3.0 17.0 2.75 20.0 2.6 21.9 1.85 24.75 0.5 27.5 0.5 30.5 0.5 34.0 4.5 34.0 8.5 34.0 12.5 34.0 16.5 34.0 20.5 34.0 24.5 34.0 28.5 34.0 32.5 34.0 35.5 34.0 37.0 34.0 36.6 29.95 36.25 26.9 36.0 25.4 35.4 21.45 35.1 18.5 35.0 16.25 Q35.1 14.3 35.45 12.35 L36.15 9.5 Q36.5 8.6 37.0 8.0 M37.0 7.0 L37.0 4.0 37.0 1.0 36.5 1.0 M36.5 0.5 L32.4 0.35 28.3 0.25 24.25 0.15 20.2 0.1 16.2 0.05 12.2 0.05 8.2 0.0 5.2 0.0 1.0 0.0 M37.0 34.45 L37.05 34.0 37.0 34.0 37.0 34.45 Z" fill="none" stroke="#ffffff" stroke-linecap="round" stroke-linejoin="round" stroke-width="2.0"/>
  </g>
</svg>
