<?xml version="1.0" encoding="UTF-8" standalone="no"?>
<svg xmlns:xlink="http://www.w3.org/1999/xlink" height="559.95px" width="608.0px" xmlns="http://www.w3.org/2000/svg">
  <g transform="matrix(1.0, 0.0, 0.0, 1.0, 355.95, 316.95)">
    <path d="M246.0 49.05 L246.0 104.1 107.1 243.0 -105.0 243.0 -355.95 243.0 -355.95 167.8 -218.8 167.8 -175.7 207.0 -105.0 207.0 -103.0 207.0 18.5 165.3 Q45.2 158.35 60.15 151.1 72.5 145.1 83.4 135.3 L105.8 114.9 Q135.5 85.2 149.5 49.05 L246.0 49.05 M242.05 -204.95 L215.05 -204.95 215.05 -78.35 209.0 -78.35 174.0 -78.35 153.6 -78.35 133.35 -121.9 132.95 -122.55 99.8 -161.7 62.9 -188.75 20.4 -205.85 -30.0 -212.0 -79.55 -205.85 -119.6 -190.1 -155.25 -165.05 -155.4 -164.9 -185.55 -132.0 -185.85 -131.55 -208.85 -89.45 -219.95 -42.25 -219.95 1.2 -219.9 1.45 -211.4 41.2 -193.9 78.6 -193.75 78.8 -170.45 109.25 -137.2 138.25 -156.25 138.25 Q-164.9 131.2 -173.1 123.0 L-173.75 122.35 -199.35 99.05 -355.95 99.05 -355.95 -316.95 174.0 -316.95 252.05 -316.95 252.05 -78.35 242.05 -78.35 242.05 -204.95" fill="#cccccc" fill-rule="evenodd" stroke="none"/>
  </g>
</svg>
