<?xml version="1.0" encoding="UTF-8" standalone="no"?>
<svg xmlns:xlink="http://www.w3.org/1999/xlink" height="375.5px" width="369.8px" xmlns="http://www.w3.org/2000/svg">
  <g transform="matrix(1.0, 0.0, 0.0, 1.0, 184.05, 187.75)">
    <path d="M-89.05 54.0 L-94.05 56.9 Q-102.5 42.75 -106.25 26.6 -109.2 13.8 -109.2 -0.25 -109.2 -13.6 -106.55 -25.85 -99.75 -56.6 -76.1 -80.3 -42.9 -113.45 3.95 -113.45 50.85 -113.45 84.0 -80.3 104.3 -59.95 112.2 -34.45 113.5 -30.2 114.45 -25.85 117.15 -13.6 117.15 -0.25 117.15 13.8 114.2 26.6 L112.6 32.65 183.45 54.0 Q181.4 60.95 178.8 67.65 165.15 102.95 136.15 131.95 81.4 186.75 3.95 186.75 -19.65 186.75 -41.15 181.65 -90.2 170.05 -128.3 131.95 -134.45 125.8 -139.9 119.3 L-142.25 116.5 Q-168.85 83.9 -178.1 44.15 -183.0 23.0 -183.0 -0.25 -183.0 -22.3 -178.6 -42.5 -167.4 -93.3 -128.3 -132.45 -73.5 -187.25 3.95 -187.25 81.4 -187.25 136.15 -132.45 168.35 -100.25 181.7 -60.25 L176.1 -58.4 Q163.25 -97.2 132.1 -128.35 79.05 -181.4 3.95 -181.4 -71.15 -181.4 -124.2 -128.35 -177.25 -75.3 -177.25 -0.2 -177.25 74.85 -124.2 127.95 -87.3 164.85 -39.8 176.1 L-38.3 170.05 -29.9 136.25 Q-13.8 140.0 3.95 140.0 L21.3 139.05 Q48.3 136.05 71.35 123.5 L68.6 118.5 55.5 94.4 Q68.55 87.15 79.9 75.8 111.35 44.35 111.35 -0.15 111.35 -44.65 79.9 -76.1 48.45 -107.55 3.95 -107.55 -40.55 -107.55 -71.95 -76.1 -103.4 -44.65 -103.4 -0.15 -103.4 29.85 -89.05 54.0" fill="url(#gradient0)" fill-rule="evenodd" stroke="none"/>
    <path d="M176.1 -58.4 L170.3 -56.45 Q157.8 -93.9 127.7 -124.0 76.45 -175.25 3.95 -175.25 -68.55 -175.25 -119.85 -124.0 -156.45 -87.35 -166.95 -39.8 -171.05 -20.9 -171.05 -0.25 -171.05 21.5 -166.45 41.3 -160.65 66.2 -147.6 88.1 -141.15 98.95 -132.9 109.05 L-130.7 111.65 Q-125.6 117.75 -119.85 123.5 -86.85 156.5 -45.05 168.3 L-44.05 168.55 -38.3 170.05 -39.8 176.1 Q-87.3 164.85 -124.2 127.95 -177.25 74.85 -177.25 -0.2 -177.25 -75.3 -124.2 -128.35 -71.15 -181.4 3.95 -181.4 79.05 -181.4 132.1 -128.35 163.25 -97.2 176.1 -58.4 M21.3 139.05 L20.8 133.55 Q46.1 131.0 68.6 118.5 L71.35 123.5 Q48.3 136.05 21.3 139.05 M55.5 94.4 L52.5 88.85 Q64.8 82.0 75.5 71.3 91.2 55.6 98.6 36.5 L101.1 29.15 102.5 23.8 Q105.15 12.35 105.15 -0.25 105.15 -12.2 102.75 -23.1 L100.75 -30.8 Q93.7 -53.6 75.5 -71.8 45.85 -101.45 3.95 -101.45 -37.95 -101.45 -67.6 -71.8 -88.75 -50.6 -94.85 -23.1 -97.2 -12.2 -97.2 -0.25 -97.2 12.35 -94.55 23.8 -91.2 38.15 -83.65 50.85 L-89.05 54.0 Q-103.4 29.85 -103.4 -0.15 -103.4 -44.65 -71.95 -76.1 -40.55 -107.55 3.95 -107.55 48.45 -107.55 79.9 -76.1 111.35 -44.65 111.35 -0.15 111.35 44.35 79.9 75.8 68.55 87.15 55.5 94.4" fill="#a2adb1" fill-rule="evenodd" stroke="none"/>
    <path d="M62.7 121.85 L63.6 121.6 64.55 121.3 64.95 121.1 65.7 120.65 66.6 120.15 67.4 119.8 67.55 119.75 67.75 119.75 67.95 119.75 68.1 119.8 68.3 119.95 68.5 120.05 68.65 120.25 68.65 120.35 68.75 120.75 68.65 121.2 68.45 121.5 68.25 121.7 68.05 121.85 67.9 122.0 67.7 122.5 67.65 122.7 67.75 122.7 67.95 122.7 68.15 122.7 68.3 122.7 68.5 122.7 68.7 122.75 68.85 122.9 69.05 123.05 69.25 123.2 69.45 123.15 69.65 123.1 69.8 123.1 70.0 123.1 70.2 123.2 70.35 123.3 70.55 123.5 70.75 123.75 70.85 124.25 70.9 124.25 70.85 124.75 70.8 125.25 70.7 125.75 70.5 126.0 70.3 126.1 70.15 126.2 69.95 126.3 69.55 126.6 69.2 126.8 69.0 126.85 68.8 126.95 68.65 127.0 68.45 127.1 68.25 127.25 68.05 127.35 67.9 127.45 67.7 127.55 67.5 127.6 67.3 127.7 67.15 127.8 66.95 127.85 66.75 127.95 66.55 128.0 66.35 128.1 66.2 128.2 66.0 128.3 65.8 128.4 65.65 128.5 65.45 128.55 65.25 128.6 65.05 128.75 64.7 128.85 63.95 129.1 63.0 129.3 62.05 129.6 61.9 129.75 61.5 129.85 60.75 130.1 59.8 130.45 58.7 130.75 58.5 130.8 58.3 130.95 58.15 131.0 57.95 131.05 57.75 131.1 57.4 131.2 57.0 131.3 56.8 131.3 56.65 131.3 56.45 131.35 56.25 131.45 56.05 131.5 55.9 131.55 55.7 131.6 55.5 131.6 55.3 131.6 55.1 131.6 54.55 131.55 54.0 131.55 53.65 131.55 53.45 131.5 53.25 131.35 53.05 131.35 52.9 131.3 52.7 131.2 52.5 131.05 52.3 130.8 52.2 130.6 52.15 130.25 52.15 129.0 52.25 128.5 52.45 128.25 52.65 128.05 52.8 127.95 53.0 127.9 53.2 127.85 53.4 127.85 53.55 127.8 53.75 127.7 53.95 127.6 54.0 127.5 53.95 127.0 54.05 126.5 54.25 126.25 54.45 126.05 54.55 125.95 54.55 125.85 54.5 125.5 54.65 125.0 54.8 124.75 55.0 124.65 55.2 124.55 55.4 124.5 55.55 124.5 55.75 124.5 55.95 124.45 56.15 124.35 56.5 124.25 57.05 124.1 57.6 123.95 57.8 123.95 58.0 123.85 58.2 123.75 58.4 123.6 58.55 123.5 58.95 123.3 59.15 123.25 59.3 123.2 59.5 123.05 59.7 123.0 59.9 122.95 60.05 122.85 60.25 122.75 60.45 122.7 60.6 122.65 60.8 122.6 61.0 122.5 61.2 122.45 61.4 122.35 61.55 122.25 61.95 122.1 62.7 121.85" fill="#663366" fill-opacity="0.16078432" fill-rule="evenodd" stroke="none"/>
    <path d="M65.45 120.65 L65.25 120.75 65.1 120.9 65.05 121.0 65.25 121.0 65.45 121.0 65.65 121.05 65.8 121.0 66.0 121.0 66.2 121.0 66.55 120.85 66.95 120.6 67.15 120.45 66.55 120.45 66.0 120.5 65.65 120.55 65.45 120.65 M65.35 118.65 L66.5 118.55 67.25 118.55 68.55 118.55 69.3 118.6 69.5 118.7 69.7 118.9 69.8 119.05 69.85 119.2 69.9 119.5 69.95 119.5 69.95 120.25 69.8 120.7 69.6 120.95 69.45 121.1 69.25 121.3 69.3 121.5 69.45 121.7 69.55 121.95 69.65 122.25 69.5 122.7 69.3 122.95 69.15 123.1 69.0 123.75 68.9 124.2 68.7 124.5 68.5 124.7 68.4 124.8 68.35 124.9 68.2 125.25 68.0 125.5 67.8 125.6 67.65 125.7 67.25 125.95 66.9 126.2 66.7 126.3 66.5 126.35 66.3 126.45 66.15 126.5 65.95 126.6 65.75 126.75 65.4 126.95 65.0 127.2 64.8 127.3 64.65 127.35 64.45 127.45 64.25 127.5 64.05 127.5 63.9 127.5 63.7 127.4 63.5 127.3 63.15 127.3 62.2 127.3 61.65 127.3 61.05 127.3 60.3 127.3 60.15 127.3 59.95 127.25 59.75 127.15 59.55 127.05 59.4 126.8 59.25 126.6 59.2 126.25 59.2 125.85 59.0 125.75 58.8 125.5 58.7 125.0 58.8 124.5 59.0 124.1 59.2 123.8 59.4 123.6 59.9 123.05 60.75 122.4 61.25 121.95 62.05 121.0 63.15 120.05 63.9 119.4 64.65 118.85 65.35 118.65" fill="#663366" fill-opacity="0.16078432" fill-rule="evenodd" stroke="none"/>
    <path d="M61.4 -89.5 L61.75 -89.6 62.15 -89.65 62.5 -89.65 62.9 -89.65 63.2 -89.45 Q64.2 -88.45 65.5 -87.85 67.2 -87.1 68.5 -85.75 L70.7 -83.9 71.5 -83.25 71.9 -82.65 72.25 -82.15 72.6 -81.85 73.4 -81.3 74.85 -80.25 76.4 -78.9 76.75 -78.5 77.1 -78.35 77.5 -78.15 77.9 -77.9 78.25 -77.65 79.0 -77.25 79.4 -76.9 84.45 -71.5 87.6 -67.85 89.7 -64.8 91.0 -62.75 91.35 -62.7 91.75 -62.5 92.0 -62.25 92.1 -62.0 92.4 -61.4 92.75 -61.0 93.5 -60.25 94.95 -58.7 96.0 -57.25 96.1 -57.0 Q96.35 -55.7 97.0 -54.5 L99.25 -50.75 99.65 -50.25 100.0 -50.0 Q100.2 -49.9 100.35 -49.75 L100.75 -49.4 101.15 -48.25 101.55 -47.3 102.25 -45.9 102.45 -45.15 103.05 -43.4 104.75 -39.9 104.9 -39.65 105.0 -39.15 106.15 -34.65 107.25 -30.15 108.0 -27.4 108.4 -26.25 108.75 -26.05 109.1 -25.85 109.5 -25.6 109.75 -25.4 109.85 -25.15 109.95 -24.5 110.0 -24.5 110.0 -17.5 109.75 -16.65 109.5 -16.0 109.25 -15.25 108.85 -14.9 108.5 -14.65 108.15 -14.5 107.75 -14.0 107.35 -13.7 107.0 -13.5 106.6 -13.4 106.25 -13.4 105.9 -13.5 105.5 -13.75 105.15 -14.25 104.9 -15.0 104.65 -16.15 104.25 -16.3 103.9 -16.5 103.5 -17.15 103.25 -17.65 103.15 -17.9 Q103.05 -21.95 101.8 -25.85 100.4 -30.15 99.3 -34.55 98.05 -39.5 96.1 -44.25 L95.75 -45.0 95.35 -45.25 95.0 -45.4 94.65 -45.75 94.25 -46.15 93.9 -46.55 93.65 -46.9 93.5 -47.5 93.25 -48.4 92.9 -49.0 88.1 -56.85 86.55 -58.95 Q85.0 -60.7 83.9 -62.75 L83.5 -63.0 80.5 -65.75 77.1 -69.15 75.25 -70.65 74.15 -71.65 73.75 -72.25 73.35 -72.75 72.6 -73.6 71.65 -74.65 71.55 -74.9 71.4 -75.9 71.0 -76.25 70.65 -76.65 70.25 -77.0 69.55 -77.9 69.15 -78.65 68.75 -79.0 68.4 -79.4 68.0 -79.5 67.65 -79.65 67.25 -80.0 66.1 -80.85 Q65.3 -81.2 64.65 -81.75 L62.75 -83.5 62.4 -84.15 62.0 -84.75 61.65 -85.25 61.25 -85.55 60.9 -85.9 60.65 -86.15 60.55 -86.4 60.4 -87.0 60.4 -87.5 60.4 -88.0 60.65 -88.9 61.0 -89.25 61.4 -89.5" fill="#663366" fill-opacity="0.16078432" fill-rule="evenodd" stroke="none"/>
    <path d="M80.4 -76.25 L81.9 -76.25 82.25 -76.15 82.65 -76.0 83.0 -76.0 83.4 -76.0 83.75 -76.0 84.1 -75.85 84.5 -75.6 84.75 -75.4 84.85 -75.15 85.15 -74.4 85.5 -74.1 85.9 -73.8 86.25 -73.5 86.65 -73.15 86.9 -72.5 86.55 -71.95 86.25 -71.75 85.9 -71.7 85.5 -71.85 85.25 -72.0 85.4 -71.65 85.75 -71.25 86.5 -70.5 86.9 -70.15 87.25 -69.4 87.5 -68.9 87.65 -68.65 87.75 -68.0 88.0 -67.25 Q91.05 -64.25 93.2 -60.5 L98.1 -52.0 101.9 -44.9 104.0 -40.65 104.15 -40.15 104.75 -37.65 105.75 -34.0 106.4 -32.0 106.75 -31.4 107.15 -31.0 107.5 -30.4 107.75 -29.9 107.9 -29.65 108.0 -29.0 108.25 -27.9 108.5 -27.0 Q108.75 -23.45 109.6 -20.0 110.95 -14.3 111.45 -8.55 L112.15 -2.0 112.15 3.5 111.9 4.25 111.5 4.75 111.35 5.0 111.25 5.5 111.0 6.35 110.6 6.7 110.25 6.95 109.9 7.1 109.5 7.2 109.15 7.25 108.75 7.25 108.4 7.1 108.0 6.85 107.65 6.6 107.0 5.85 Q104.85 -4.85 103.4 -15.7 L102.75 -19.0 Q100.3 -29.5 95.6 -39.3 94.0 -42.6 92.55 -46.0 L88.5 -56.4 88.15 -56.9 86.95 -58.6 85.85 -60.35 85.5 -60.9 85.15 -61.15 84.75 -61.4 84.0 -62.15 83.65 -62.65 83.25 -63.25 82.9 -63.65 82.5 -64.0 82.15 -64.4 81.75 -65.0 81.4 -65.55 80.65 -66.9 80.25 -67.25 79.9 -67.65 79.15 -68.5 78.9 -68.9 78.6 -69.85 77.55 -72.15 76.9 -73.4 76.8 -74.0 76.75 -74.5 77.0 -75.4 77.4 -75.9 77.75 -76.15 78.15 -76.2 78.9 -76.25 79.65 -76.25 80.4 -76.25" fill="#663366" fill-opacity="0.16078432" fill-rule="evenodd" stroke="none"/>
    <path d="M9.0 -106.2 L10.15 -106.25 11.25 -106.25 12.0 -106.25 12.35 -106.4 12.75 -106.75 13.15 -107.0 13.5 -107.25 13.9 -107.25 14.25 -107.25 15.0 -107.25 16.15 -107.25 16.5 -107.25 16.85 -107.1 17.25 -106.9 17.65 -106.65 18.0 -106.65 18.4 -106.65 19.5 -106.3 21.4 -105.75 22.85 -105.45 23.65 -105.25 24.0 -105.4 24.4 -105.5 24.75 -105.65 25.15 -105.65 25.5 -105.65 25.9 -105.6 26.25 -105.5 26.6 -105.35 27.0 -105.15 27.75 -105.15 28.9 -105.15 30.4 -105.15 31.15 -105.15 31.5 -105.0 31.9 -104.9 32.25 -104.75 32.65 -104.65 33.0 -104.65 33.4 -104.65 33.75 -104.65 34.15 -104.65 34.5 -104.65 34.9 -104.5 35.25 -104.4 35.65 -104.25 36.0 -104.0 36.75 -103.75 37.9 -103.45 39.4 -103.0 40.15 -102.75 40.5 -102.5 40.9 -102.4 Q41.05 -102.3 41.25 -102.25 L41.65 -102.15 42.0 -101.9 42.35 -101.75 42.75 -101.5 43.5 -101.15 43.9 -101.0 44.25 -100.9 44.65 -100.75 45.0 -100.5 45.4 -100.4 45.75 -100.25 Q47.0 -99.2 48.45 -98.4 L50.65 -96.65 Q51.6 -95.6 52.9 -94.9 L53.25 -94.75 53.65 -94.65 54.4 -94.4 55.15 -94.15 55.5 -94.0 Q62.1 -89.65 68.5 -85.0 76.05 -79.5 82.6 -72.75 87.25 -67.95 90.4 -62.0 L91.9 -60.15 94.15 -56.9 94.4 -56.0 94.4 -55.5 94.5 -54.75 94.75 -54.4 94.85 -54.15 94.95 -53.5 95.0 -53.5 95.0 -53.0 94.75 -52.25 94.35 -51.9 94.0 -51.65 93.6 -51.55 93.25 -51.5 92.9 -51.5 92.5 -51.55 92.15 -51.65 91.75 -51.8 91.4 -52.0 91.0 -52.65 90.65 -53.25 90.25 -53.65 89.9 -54.0 89.45 -54.45 89.15 -54.65 88.75 -54.8 88.4 -55.0 88.15 -55.4 87.85 -56.0 87.65 -56.4 87.45 -57.0 87.25 -57.65 86.9 -58.0 86.65 -58.4 86.4 -59.0 86.0 -59.4 85.65 -59.75 85.25 -60.25 84.9 -60.9 82.3 -63.65 79.7 -65.95 78.15 -67.0 Q74.4 -68.65 71.7 -72.1 L66.05 -78.7 62.75 -82.65 62.4 -82.9 62.0 -83.0 61.65 -83.15 61.25 -83.25 57.1 -86.05 53.45 -88.6 50.0 -91.1 49.65 -91.4 49.25 -91.4 48.9 -91.4 48.5 -91.4 48.15 -91.5 47.75 -91.65 47.4 -91.9 47.0 -92.25 46.65 -92.65 46.25 -92.8 45.85 -93.0 45.1 -93.35 Q44.5 -93.6 44.0 -94.0 L43.65 -94.15 43.25 -94.25 42.5 -94.5 41.75 -94.75 41.4 -94.9 41.0 -94.9 40.65 -94.9 40.25 -94.9 39.5 -94.9 39.15 -94.9 38.75 -95.05 38.35 -95.25 38.0 -95.4 37.65 -95.65 37.25 -95.75 36.9 -95.8 36.5 -95.9 36.15 -96.0 35.75 -96.15 35.35 -96.35 35.0 -96.55 34.6 -96.75 33.9 -97.15 33.5 -97.25 33.15 -97.4 32.75 -97.5 32.4 -97.65 32.0 -97.9 31.65 -98.0 31.25 -98.15 30.9 -98.25 30.5 -98.4 30.15 -98.65 29.75 -98.75 29.4 -98.75 29.0 -98.75 28.25 -98.8 27.9 -98.9 27.5 -99.05 27.15 -99.25 26.75 -99.3 26.4 -99.4 26.0 -99.5 25.65 -99.65 25.25 -99.75 24.5 -99.75 23.35 -99.75 Q22.8 -99.85 22.25 -100.1 L21.9 -100.25 20.0 -100.25 17.75 -100.4 16.25 -100.4 15.15 -100.4 14.75 -100.55 14.4 -100.75 14.0 -100.9 13.65 -101.0 13.25 -101.15 12.9 -101.25 12.5 -101.4 12.15 -101.4 11.75 -101.4 11.4 -101.55 11.0 -101.75 10.65 -101.9 10.25 -102.0 9.9 -102.25 9.5 -102.6 9.15 -102.75 8.75 -102.8 8.4 -102.9 8.05 -103.15 7.4 -103.9 7.25 -104.5 7.5 -105.4 7.9 -105.9 8.25 -106.15 9.0 -106.2" fill="#663366" fill-opacity="0.16078432" fill-rule="evenodd" stroke="none"/>
    <path d="M-53.5 165.9 L-53.1 166.1 -52.75 166.25 -52.35 166.35 -52.0 166.5 -51.25 166.75 -50.85 167.0 -50.1 167.25 -49.0 167.6 -47.85 168.0 -47.5 168.1 -47.1 168.35 -46.75 168.5 -46.35 168.6 -46.0 168.6 -45.6 168.85 -45.25 169.1 -44.85 169.1 -44.5 169.1 -44.1 169.1 -43.75 169.1 -43.0 169.45 -41.9 170.15 -41.25 170.85 -40.95 171.55 -40.75 171.75 -40.4 171.9 -40.0 172.25 -39.8 172.95 -39.75 173.0 -40.0 173.6 -40.4 173.95 -40.75 174.25 -41.1 174.25 -41.5 174.25 -41.85 174.25 -42.25 174.4 -42.6 174.6 -43.0 174.85 -43.35 175.0 -43.75 175.0 -44.1 174.95 -44.5 174.85 -44.85 174.6 -45.25 174.4 -45.6 174.35 -46.0 174.3 -46.75 174.1 -47.85 173.6 -48.25 173.35 -49.0 173.15 -50.1 172.85 -51.25 172.5 -51.6 172.5 -52.0 172.5 -52.35 172.45 -52.75 172.25 -53.1 172.1 -53.5 172.0 Q-53.7 171.9 -53.85 171.85 L-54.25 171.75 -54.6 171.5 -56.15 171.25 -58.0 170.8 -59.85 170.25 -60.25 170.0 -60.6 169.85 -61.0 169.6 -62.15 169.3 -63.65 168.9 -65.1 168.35 -65.85 168.0 -67.35 167.1 -68.5 166.1 -69.6 165.55 -71.1 164.8 -72.6 164.1 -73.0 164.0 -73.35 164.0 -73.75 164.0 -74.15 163.75 -74.5 163.6 -74.9 163.25 -75.25 163.0 -75.65 162.75 -76.0 162.6 -76.35 162.25 -76.75 162.1 -77.1 162.0 -77.5 161.85 -77.9 161.65 -78.25 161.5 -78.6 161.45 -79.0 161.35 Q-79.2 161.25 -79.35 161.1 L-79.75 160.75 -80.0 160.0 -79.75 159.1 -79.35 158.75 -78.95 158.55 -78.6 158.5 -78.5 158.0 -78.25 157.1 -77.85 156.75 -77.45 156.55 -77.1 156.5 -76.75 156.5 -76.4 156.65 -76.0 156.9 -75.6 157.25 -73.75 158.15 -71.55 159.3 -70.0 160.25 -69.6 160.35 Q-69.45 160.4 -69.25 160.5 L-68.85 160.6 -68.5 160.75 -68.1 161.0 -67.0 161.35 -65.5 161.85 -64.0 162.35 -63.6 162.5 Q-63.45 162.6 -63.25 162.75 L-62.85 162.85 -62.5 163.0 -62.1 163.1 -61.75 163.25 -61.35 163.5 -61.0 163.6 -60.6 163.75 -60.25 163.85 -59.5 164.25 -58.35 164.8 Q-57.75 165.05 -57.2 165.45 L-56.85 165.6 -56.15 165.6 -55.0 165.6 -54.25 165.65 -53.85 165.75 Q-53.7 165.8 -53.5 165.9" fill="#663366" fill-opacity="0.16078432" fill-rule="evenodd" stroke="none"/>
    <path d="M-97.6 147.5 L-97.35 146.6 -97.0 146.25 -96.6 146.0 -96.25 145.9 -95.85 145.85 -95.5 145.85 -95.1 145.85 -94.4 146.4 -93.25 147.5 -92.5 148.25 -92.1 148.35 -91.75 148.5 -91.35 148.6 -91.0 148.85 -90.65 149.15 -90.2 149.45 -89.5 149.85 Q-86.45 151.35 -83.35 153.15 L-77.15 156.5 -73.75 158.25 -73.35 158.35 -73.0 158.35 -72.6 158.35 Q-72.45 158.4 -72.25 158.55 L-71.85 158.85 -71.6 159.1 -71.5 159.35 -71.2 159.8 -70.85 160.0 -70.5 160.05 -70.1 160.25 -69.75 160.35 -69.35 160.5 -69.0 160.6 -68.6 160.75 -68.25 161.0 -65.25 162.0 -61.5 163.2 -58.85 163.85 -58.5 164.0 -58.1 164.25 -57.75 164.35 -57.35 164.5 -57.0 164.75 -56.6 164.85 -56.25 165.0 -55.85 165.1 -55.5 165.35 -55.1 165.5 -54.75 165.6 -54.35 165.75 -54.0 165.85 -53.6 166.1 -53.25 166.25 -52.85 166.35 -52.1 166.6 -51.35 166.85 Q-51.2 167.0 -51.0 167.1 L-50.65 167.25 -50.25 167.5 -49.85 167.6 -49.5 167.6 -49.1 167.6 -48.35 167.85 -47.25 168.25 -46.1 168.6 -45.75 168.75 -45.35 169.0 -45.0 169.1 -44.6 169.25 -44.25 169.35 -43.85 169.5 -43.5 169.6 -43.1 169.85 -42.75 170.1 -42.35 170.1 -42.0 170.1 -41.6 170.35 -41.25 170.6 -40.85 170.7 -40.5 170.75 -40.1 171.1 -39.75 171.5 -39.5 171.75 -39.4 172.0 -39.3 172.45 -39.25 172.5 -39.5 173.1 -39.9 173.6 -40.25 173.95 -40.6 174.1 -41.0 174.2 -41.35 174.25 -41.75 174.25 -42.5 174.25 -42.85 174.25 -43.25 174.2 -43.6 174.0 -44.0 174.0 -44.35 174.0 -44.75 174.0 -45.1 174.0 -45.5 173.85 -45.85 173.75 -46.25 173.85 -46.6 173.85 -47.0 173.85 -47.35 173.85 -48.1 173.6 -49.3 173.05 -50.35 172.5 -50.75 172.4 -51.1 172.35 -51.5 172.35 -51.85 172.3 -52.25 172.1 -53.0 171.75 -53.75 171.35 -54.5 171.2 -55.65 170.95 -57.15 170.55 -57.5 170.5 -57.85 170.35 -58.25 170.1 -58.6 170.0 -59.0 169.85 -59.35 169.75 -59.75 169.6 Q-59.95 169.5 -60.1 169.35 L-60.5 169.25 -60.85 169.1 -61.6 168.7 -62.75 168.1 -63.85 167.35 -64.6 167.1 -65.75 166.8 -67.25 166.35 -67.6 166.25 -67.95 166.3 -68.4 166.6 -68.75 166.85 -69.1 167.0 -69.5 167.1 -69.85 167.1 -70.25 167.1 -73.85 164.45 -78.45 161.3 -80.0 160.35 -80.35 160.25 -80.75 160.1 -81.1 160.0 -81.5 159.75 -81.85 159.5 -82.25 159.25 -82.6 159.0 -83.0 158.85 -83.35 158.75 -83.75 158.6 -84.1 158.5 -84.5 158.2 -84.85 157.85 -85.25 157.5 -85.6 157.25 -85.95 157.2 -86.35 157.0 -86.75 156.85 -87.1 156.75 -89.75 155.0 -93.2 152.15 -94.25 151.5 -95.35 150.35 -96.85 148.85 -97.5 148.1 -97.6 147.5" fill="#663366" fill-opacity="0.16078432" fill-rule="evenodd" stroke="none"/>
    <path d="M143.5 -111.75 L143.9 -112.0 144.25 -112.15 Q147.75 -110.5 150.15 -106.95 L153.55 -101.85 157.4 -96.4 157.75 -95.5 158.15 -94.65 158.5 -93.75 158.9 -93.25 160.4 -90.9 161.5 -88.75 161.85 -88.35 162.25 -87.9 162.65 -87.25 163.0 -87.0 Q163.2 -86.9 163.35 -86.75 L163.75 -86.35 164.15 -85.9 164.5 -85.6 164.75 -85.4 164.85 -85.15 165.15 -84.5 Q168.4 -80.25 169.7 -74.95 170.75 -70.75 172.4 -66.75 L172.75 -66.4 173.0 -65.5 173.75 -63.4 174.25 -61.9 174.45 -61.05 174.5 -61.0 174.5 -59.0 174.25 -58.25 173.85 -57.9 173.5 -57.65 173.15 -57.5 172.4 -57.15 172.0 -57.05 171.65 -57.0 171.25 -57.0 170.85 -57.25 170.5 -57.4 170.25 -57.65 170.15 -57.9 169.85 -58.5 169.65 -58.9 169.35 -59.9 169.0 -60.75 168.65 -61.65 168.25 -62.1 167.9 -62.5 167.55 -63.15 Q166.9 -64.45 166.5 -65.9 L166.25 -66.65 165.9 -67.25 165.15 -68.55 164.4 -70.0 164.0 -70.5 163.65 -70.7 163.25 -71.0 162.9 -71.4 162.65 -71.65 162.5 -71.9 162.25 -72.5 161.9 -72.9 161.5 -73.25 161.15 -73.75 160.9 -74.4 160.75 -74.9 160.5 -75.75 160.15 -76.4 159.75 -77.0 159.5 -77.4 152.65 -90.9 Q150.05 -95.95 147.1 -100.8 L145.75 -103.0 145.4 -103.4 143.55 -105.8 142.0 -108.4 141.9 -109.0 142.15 -109.9 142.5 -110.25 142.75 -110.5 142.85 -110.55 143.15 -111.4 143.5 -111.75" fill="#663366" fill-opacity="0.16078432" fill-rule="evenodd" stroke="none"/>
    <path d="M161.4 -82.5 L161.65 -83.4 162.0 -83.75 162.4 -84.0 162.75 -84.1 163.15 -84.15 163.5 -84.15 163.9 -84.15 164.2 -83.95 164.65 -83.65 164.9 -83.4 165.0 -83.15 165.3 -82.5 165.5 -82.15 165.75 -81.25 166.15 -80.65 166.9 -79.65 167.65 -78.9 Q170.15 -74.85 171.8 -70.4 L173.25 -67.15 173.35 -66.5 173.4 -66.0 173.75 -64.5 174.65 -61.5 174.9 -60.9 175.25 -60.65 175.65 -60.5 176.0 -60.4 176.35 -60.1 176.65 -59.9 176.7 -59.65 176.8 -59.0 176.9 -59.0 176.65 -58.25 176.25 -57.9 175.9 -57.65 175.5 -57.5 175.15 -57.4 174.75 -57.25 174.0 -57.25 172.9 -57.25 171.75 -57.3 171.0 -57.4 170.65 -57.55 170.25 -57.75 169.85 -57.85 169.5 -57.9 169.15 -58.0 168.75 -58.15 168.4 -58.4 168.15 -58.65 168.05 -58.9 167.9 -59.5 168.15 -60.4 168.15 -61.15 167.9 -62.0 167.65 -63.15 167.25 -63.55 167.0 -63.9 166.85 -64.5 166.65 -65.65 Q163.7 -72.75 162.0 -80.25 L161.5 -81.9 161.4 -82.5" fill="#663366" fill-opacity="0.16078432" fill-rule="evenodd" stroke="none"/>
    <path d="M57.25 89.6 L57.65 90.45 57.85 90.85 58.15 91.5 58.5 91.85 58.9 92.25 59.25 92.6 59.65 93.5 60.0 93.85 60.25 94.1 60.35 94.35 60.55 94.95 60.75 95.6 61.15 96.1 61.55 96.95 61.75 97.35 62.0 98.25 62.4 98.85 62.65 99.25 62.7 99.35 62.9 100.0 63.15 101.1 63.5 101.85 64.1 103.1 64.5 104.1 65.65 105.95 66.55 108.0 67.15 109.6 69.25 112.8 Q70.2 114.15 70.75 115.7 71.55 117.8 72.65 119.75 L73.0 120.75 73.25 121.5 73.3 121.95 73.4 122.0 73.15 123.25 72.75 123.6 72.4 123.65 72.0 123.5 71.75 123.0 71.45 121.75 71.15 120.75 70.75 120.25 70.4 119.7 70.0 119.1 Q69.3 117.05 68.25 115.15 L66.65 112.85 65.15 110.75 63.2 106.75 61.8 104.45 60.4 101.85 60.25 101.6 60.1 101.0 59.9 100.25 59.5 99.6 59.25 99.1 59.0 98.5 58.65 98.1 58.25 97.75 57.9 97.0 57.4 96.0 56.9 95.0 56.5 94.6 55.8 93.7 55.4 93.0 55.0 92.6 54.75 92.35 54.65 92.1 54.25 90.75 54.0 90.0 54.25 89.1 54.65 88.75 Q54.8 88.6 55.0 88.55 L55.4 88.5 55.75 88.5 56.1 88.65 56.85 89.25 57.25 89.6" fill="#ffffff" fill-opacity="0.16078432" fill-rule="evenodd" stroke="none"/>
    <path d="M56.55 85.8 L57.25 85.35 57.65 85.1 58.0 85.0 58.4 85.0 58.75 85.0 59.85 84.1 61.4 83.0 62.55 82.15 63.25 81.6 63.65 81.5 64.0 81.5 64.4 81.5 64.75 81.5 65.15 81.5 65.5 81.5 65.85 81.65 66.25 81.9 66.65 82.25 66.9 82.75 66.95 83.45 67.0 83.5 66.75 84.35 66.4 85.0 66.0 85.35 65.65 85.75 65.25 86.1 64.9 86.5 64.75 87.0 65.0 87.5 65.4 87.85 65.75 88.6 66.0 89.1 66.15 89.35 66.25 90.0 66.4 91.0 66.15 91.85 65.75 92.35 65.35 92.6 65.0 92.75 Q64.7 92.8 64.7 92.9 64.3 95.05 64.25 97.25 L64.4 97.6 64.5 97.85 64.6 98.5 64.65 99.5 64.4 100.25 64.0 100.75 63.65 101.0 62.9 101.05 61.75 101.1 60.65 101.1 59.5 101.15 58.75 101.25 58.4 101.1 58.0 100.85 57.65 100.45 57.4 100.1 57.25 99.5 57.5 98.6 57.5 98.1 57.15 97.7 56.75 97.25 56.45 97.05 55.75 96.15 54.5 94.65 54.15 94.35 53.8 93.85 53.35 93.1 53.15 92.75 53.0 92.0 53.25 91.0 53.5 90.0 53.75 89.0 54.0 88.6 54.0 88.5 54.25 87.5 54.65 87.0 55.0 86.75 55.75 86.3 56.55 85.8" fill="#ffffff" fill-opacity="0.16078432" fill-rule="evenodd" stroke="none"/>
    <path d="M76.75 73.9 L77.15 74.25 77.35 74.75 77.65 75.5 77.9 75.6 78.25 75.9 78.65 76.25 78.9 76.75 78.95 77.45 79.0 77.5 79.0 78.0 78.75 78.85 78.4 79.5 77.65 80.25 76.5 81.75 75.4 83.0 75.15 83.35 75.25 83.4 75.65 83.4 76.0 83.35 76.4 83.35 76.75 83.5 77.1 83.65 77.5 84.0 77.9 84.5 78.15 85.5 77.95 87.0 77.75 88.0 77.4 88.75 77.05 89.85 76.75 90.85 76.9 91.35 77.25 91.75 77.65 92.5 77.9 93.0 78.0 93.25 78.1 94.0 78.15 96.0 77.9 97.0 77.5 97.45 77.15 97.85 76.75 98.25 76.4 99.5 76.0 99.95 75.65 100.35 75.25 100.75 74.9 101.1 74.5 101.25 74.15 101.5 73.75 101.6 73.4 101.6 73.0 101.6 72.65 101.6 72.25 101.6 71.9 101.6 71.95 101.8 72.25 102.25 72.5 102.75 72.65 103.5 72.4 104.5 72.0 105.0 71.9 105.5 72.05 106.5 72.15 110.5 71.9 111.5 71.5 111.95 71.1 112.35 70.75 112.6 70.35 112.85 70.0 113.0 69.65 113.1 69.25 113.1 68.9 113.1 68.55 113.15 68.15 113.35 67.75 113.6 67.35 113.85 67.0 114.0 66.65 114.1 66.25 114.1 65.9 114.0 65.5 113.75 65.15 113.6 64.75 113.25 64.4 112.85 64.0 112.1 63.65 111.5 63.35 110.5 63.15 109.6 62.8 109.1 62.35 108.35 62.0 107.75 61.6 107.35 61.25 107.1 60.9 106.85 60.55 106.1 60.15 105.1 59.75 104.75 59.4 104.35 58.0 100.95 Q57.25 99.1 56.15 97.5 L56.05 97.25 55.85 96.75 55.65 96.0 55.25 95.75 54.9 95.6 54.5 95.25 54.15 94.85 53.75 94.35 53.5 93.5 53.5 89.0 53.75 88.0 54.15 87.5 54.5 87.25 54.9 87.1 55.25 87.0 55.65 87.0 56.0 87.0 56.35 86.85 56.75 86.6 57.15 86.3 57.5 86.1 57.9 86.1 58.25 85.95 59.0 85.5 59.75 85.0 60.5 84.5 60.9 84.0 61.25 83.6 61.65 83.25 62.0 82.6 62.4 82.0 62.75 81.65 63.1 81.35 63.5 81.0 63.9 80.75 64.25 80.6 64.65 80.6 65.0 80.65 65.25 80.85 65.25 80.6 65.15 80.0 65.3 79.0 65.55 78.15 66.25 76.75 66.65 76.5 67.0 76.25 67.35 76.1 67.75 75.85 68.5 75.75 69.25 75.75 70.0 75.75 70.75 75.75 71.5 75.85 71.85 75.9 72.25 75.75 72.65 75.1 73.0 74.6 73.4 74.25 74.15 73.6 74.5 73.5 74.9 73.5 75.25 73.5 75.65 73.5 76.0 73.5 76.35 73.65 76.75 73.9" fill="#ffffff" fill-opacity="0.16078432" fill-rule="evenodd" stroke="none"/>
    <path d="M93.9 104.5 L93.9 106.5 93.65 107.25 93.25 107.75 92.9 108.0 92.5 108.2 92.15 108.35 91.75 108.35 91.4 108.25 90.65 108.25 89.9 108.25 89.15 108.25 88.75 108.2 88.4 107.95 88.0 107.6 87.65 107.0 87.25 106.25 86.9 106.0 86.65 105.6 86.55 105.0 Q86.55 104.0 86.7 103.0 L86.9 102.1 87.25 101.75 87.65 101.4 88.0 101.1 88.4 101.1 88.75 101.1 89.15 101.1 89.5 101.1 89.9 101.1 90.25 101.25 90.65 101.5 91.0 101.6 91.4 101.6 91.75 101.85 92.1 102.15 92.9 102.85 93.65 103.6 93.8 104.45 93.9 104.5 M90.5 104.5 L90.4 104.4 90.4 105.0 90.35 105.6 90.5 105.75 90.75 105.65 90.95 105.0 90.9 104.85 90.5 104.5" fill="#ffffff" fill-opacity="0.16078432" fill-rule="evenodd" stroke="none"/>
    <path d="M73.1 -89.1 L75.15 -86.65 75.5 -86.35 75.9 -86.05 76.25 -85.75 76.65 -85.65 77.0 -85.65 77.4 -85.65 77.75 -85.65 78.1 -85.5 78.5 -85.25 79.3 -84.8 79.65 -84.65 85.6 -78.2 90.45 -72.25 93.5 -68.5 93.85 -68.25 94.25 -67.9 94.65 -67.5 99.25 -61.1 102.5 -56.5 103.25 -55.4 103.45 -54.55 103.5 -54.5 103.25 -53.75 102.85 -53.4 102.5 -53.15 102.15 -53.0 101.8 -53.05 101.35 -53.15 101.0 -53.15 100.65 -53.05 100.3 -53.05 99.85 -53.25 99.5 -53.4 98.8 -54.3 97.65 -56.25 Q95.05 -59.25 92.7 -62.45 L89.35 -67.1 87.9 -69.15 87.5 -69.4 87.15 -69.5 86.75 -69.65 86.4 -69.9 86.0 -70.25 85.65 -70.65 85.25 -71.25 84.5 -72.25 84.15 -72.65 83.75 -73.25 82.95 -74.2 82.25 -74.9 76.6 -79.45 72.15 -83.3 67.65 -87.65 67.25 -88.0 66.9 -88.65 66.5 -89.25 66.15 -89.65 65.75 -90.0 65.4 -90.25 65.0 -90.25 64.65 -90.25 64.25 -90.4 63.85 -90.6 63.5 -90.8 63.15 -91.0 62.75 -91.15 62.4 -91.25 62.0 -91.3 61.65 -91.4 61.25 -91.55 60.9 -91.8 60.5 -92.15 60.25 -93.0 60.5 -93.9 60.9 -94.4 61.25 -94.65 61.65 -94.75 62.0 -94.75 62.75 -94.75 63.5 -94.75 63.85 -94.6 64.25 -94.4 64.65 -94.25 65.4 -93.9 Q65.55 -93.8 65.75 -93.8 L66.15 -93.75 66.5 -93.75 66.9 -93.65 67.25 -93.5 67.65 -93.4 68.0 -93.25 71.0 -91.0 73.1 -89.1" fill="#ffffff" fill-opacity="0.16078432" fill-rule="evenodd" stroke="none"/>
    <path d="M29.65 -104.4 L29.25 -104.65 28.9 -105.15 28.65 -106.0 28.9 -106.9 29.3 -107.35 29.65 -107.75 30.0 -107.85 30.4 -107.9 30.75 -107.9 31.15 -107.9 31.45 -108.0 32.3 -108.85 32.65 -109.25 33.0 -109.35 33.75 -109.4 34.15 -109.4 34.9 -109.4 35.25 -109.25 35.65 -109.05 Q35.8 -108.95 36.0 -108.9 L36.4 -108.85 36.75 -108.75 37.15 -108.5 37.5 -108.4 37.9 -108.35 38.25 -108.25 38.6 -108.1 39.0 -107.9 39.4 -107.75 39.75 -107.65 40.15 -107.5 40.5 -107.4 40.9 -107.4 41.25 -107.4 41.65 -107.4 42.0 -107.4 42.35 -107.25 43.15 -106.75 43.5 -106.5 43.9 -106.25 44.25 -106.15 44.65 -106.1 45.0 -106.0 45.4 -105.9 45.75 -105.75 46.15 -105.5 46.5 -105.4 46.9 -105.25 47.25 -105.15 47.65 -104.9 48.0 -104.75 48.4 -104.65 48.75 -104.4 49.5 -104.0 49.85 -103.85 50.25 -103.65 50.65 -103.5 51.0 -103.4 51.4 -103.25 51.75 -103.15 52.15 -102.9 52.5 -102.75 52.9 -102.65 53.65 -102.15 54.35 -101.75 55.15 -101.25 55.5 -101.0 55.9 -100.9 56.25 -100.75 58.15 -99.2 59.6 -98.1 60.75 -97.25 61.15 -96.9 61.45 -96.85 61.9 -97.15 62.3 -97.45 62.65 -97.65 63.0 -97.65 63.4 -97.6 63.75 -97.5 68.15 -93.9 73.0 -89.5 Q74.85 -87.75 76.9 -86.25 L77.25 -86.1 77.65 -85.9 Q77.8 -85.8 78.0 -85.75 L78.4 -85.55 78.75 -85.4 Q80.1 -83.9 81.7 -82.7 L84.0 -80.4 86.25 -77.4 Q86.8 -75.95 87.85 -74.85 L89.25 -73.15 89.6 -72.0 89.9 -71.0 89.9 -70.5 90.0 -69.4 90.0 -69.0 90.0 -68.75 89.65 -68.4 89.25 -68.55 88.9 -68.8 88.5 -69.15 88.15 -69.25 87.75 -69.4 87.4 -69.75 87.0 -70.4 86.25 -71.65 85.55 -72.55 84.75 -73.65 84.4 -73.9 84.0 -74.25 83.65 -74.5 83.3 -74.55 82.85 -74.75 82.5 -74.9 81.75 -75.75 81.0 -76.4 80.25 -77.15 Q79.2 -78.9 77.65 -80.25 L75.75 -82.35 74.25 -84.0 73.9 -84.05 73.5 -84.0 73.15 -83.9 72.75 -83.9 72.4 -83.9 72.0 -84.0 71.65 -84.15 69.0 -86.35 67.1 -87.7 64.9 -89.4 64.5 -89.5 64.15 -89.65 63.75 -89.75 63.4 -89.9 Q61.45 -91.2 59.3 -92.2 57.15 -93.25 55.2 -94.6 L51.05 -97.2 50.25 -97.75 49.5 -98.15 48.75 -98.6 48.0 -99.0 46.9 -99.15 45.75 -99.15 45.0 -99.15 44.25 -99.15 43.5 -99.25 43.15 -99.4 42.75 -99.65 42.4 -100.15 42.0 -101.15 41.65 -101.25 41.25 -101.4 40.9 -101.5 40.5 -101.5 40.15 -101.75 39.75 -101.9 39.4 -102.0 39.0 -102.25 38.65 -102.5 38.25 -102.75 37.5 -102.9 36.75 -103.05 35.65 -103.15 35.25 -103.15 34.9 -103.15 34.5 -103.25 34.15 -103.4 33.75 -103.5 33.4 -103.65 33.0 -103.65 32.65 -103.65 32.25 -103.65 31.9 -103.75 31.5 -103.9 31.15 -104.15 30.75 -104.15 30.4 -104.15 30.0 -104.25 29.65 -104.4" fill="#ffffff" fill-opacity="0.16078432" fill-rule="evenodd" stroke="none"/>
    <path d="M74.0 -89.65 L74.4 -89.25 74.75 -88.9 75.1 -88.75 75.5 -88.5 75.85 -88.1 76.25 -87.6 76.65 -87.0 77.35 -86.55 80.35 -84.1 81.5 -83.0 81.9 -82.65 83.8 -80.4 84.85 -79.1 85.65 -78.4 86.0 -77.75 87.45 -75.95 89.8 -73.05 90.5 -72.0 90.9 -71.5 91.25 -71.15 91.6 -70.95 92.75 -70.0 95.05 -66.55 95.75 -65.4 96.15 -65.3 96.5 -65.25 96.9 -65.25 97.25 -65.1 97.65 -64.9 98.0 -64.4 102.4 -55.95 105.45 -50.35 Q107.65 -46.45 109.25 -42.25 110.05 -40.15 111.15 -38.15 L111.25 -37.5 111.65 -36.3 112.8 -33.35 113.25 -32.0 113.0 -31.15 112.65 -30.75 112.65 -30.0 Q113.05 -28.5 113.6 -27.1 115.1 -23.4 115.65 -19.5 L116.15 -16.5 116.4 -15.5 116.25 -11.5 115.95 -9.65 115.65 -8.75 115.25 -8.45 114.9 -8.25 114.5 -8.2 114.15 -8.25 113.75 -8.4 113.4 -8.75 113.1 -9.65 Q112.35 -13.3 112.05 -17.0 L111.9 -18.0 111.5 -18.5 111.25 -18.9 111.15 -19.5 110.9 -21.5 107.85 -30.9 105.55 -37.25 103.25 -42.9 103.0 -43.9 102.75 -44.4 102.5 -45.4 102.15 -46.15 101.75 -46.5 Q100.95 -49.2 99.4 -51.45 L96.9 -54.9 Q95.7 -56.4 94.65 -58.05 L91.9 -62.7 90.5 -64.65 90.1 -65.25 Q89.3 -66.4 88.65 -67.65 L86.35 -71.1 85.65 -71.9 85.25 -71.65 84.9 -71.5 84.5 -71.45 84.15 -71.5 83.75 -71.65 83.4 -71.9 83.0 -72.35 82.65 -72.75 82.25 -73.15 81.9 -73.5 81.5 -74.15 81.15 -74.75 80.75 -75.15 Q79.45 -76.45 78.55 -78.0 77.65 -79.5 76.25 -80.5 L75.85 -80.7 Q74.9 -81.15 74.05 -81.8 L73.65 -82.15 73.25 -82.75 72.9 -83.15 72.5 -83.3 72.1 -83.5 71.8 -83.7 71.0 -84.25 70.0 -85.4 69.9 -86.0 70.0 -87.0 69.6 -87.6 68.85 -88.45 Q68.1 -89.2 67.7 -90.1 L67.15 -91.4 67.0 -92.0 67.25 -92.9 67.65 -93.25 68.0 -93.5 68.4 -93.5 68.75 -93.5 69.15 -93.5 69.45 -93.45 70.7 -92.7 72.95 -90.8 74.0 -89.65" fill="#ffffff" fill-opacity="0.16078432" fill-rule="evenodd" stroke="none"/>
    <path d="M156.15 -102.0 L156.15 -103.0 156.4 -103.9 156.75 -104.15 157.15 -104.35 157.5 -104.4 158.2 -104.05 Q159.4 -103.3 160.1 -102.15 L161.65 -99.9 162.0 -99.0 163.9 -96.0 Q165.25 -93.55 166.85 -91.25 L167.5 -90.25 Q167.95 -88.95 168.55 -87.75 169.95 -84.85 171.65 -82.15 L172.0 -82.0 172.4 -81.75 172.75 -81.5 173.4 -80.9 Q174.05 -79.1 174.85 -77.35 L177.15 -71.65 177.5 -71.0 177.9 -70.65 178.75 -68.25 180.25 -63.0 180.25 -61.5 180.0 -60.65 179.6 -60.3 179.25 -60.05 178.9 -59.9 178.5 -59.8 178.15 -59.75 177.75 -59.75 Q177.55 -59.8 177.4 -59.9 L177.0 -60.15 176.0 -61.4 175.5 -62.4 175.35 -63.0 175.15 -63.65 Q170.2 -73.45 165.6 -83.55 162.8 -89.8 159.5 -95.8 L156.4 -101.25 156.15 -102.0" fill="#ffffff" fill-opacity="0.16078432" fill-rule="evenodd" stroke="none"/>
    <path d="M113.25 -149.35 L113.65 -149.7 114.0 -149.9 114.4 -149.9 114.75 -149.85 115.15 -149.75 Q117.35 -148.6 119.15 -146.8 L121.15 -144.9 122.8 -143.3 125.65 -140.4 126.0 -140.0 Q127.1 -139.6 127.95 -138.7 L130.15 -136.4 131.25 -135.25 132.0 -134.5 132.4 -133.9 132.75 -133.4 133.5 -132.5 133.9 -132.15 134.25 -131.5 134.65 -131.0 135.0 -130.5 135.4 -130.15 135.6 -129.6 135.9 -128.9 136.25 -128.4 136.65 -128.05 137.0 -127.9 137.35 -127.85 137.75 -127.75 138.1 -127.5 138.9 -126.75 139.25 -126.15 139.65 -125.75 140.0 -125.5 140.35 -125.25 141.15 -124.5 Q141.75 -123.4 142.65 -122.55 144.4 -120.9 145.3 -118.65 L145.65 -118.0 147.35 -116.0 149.75 -113.35 150.9 -112.25 151.65 -111.5 152.0 -111.4 152.4 -111.25 152.75 -110.9 153.15 -110.5 153.5 -110.15 153.9 -109.5 Q155.9 -107.8 157.4 -105.45 L159.5 -102.4 161.0 -100.4 161.75 -99.4 162.15 -99.25 162.5 -99.15 162.9 -98.75 163.25 -98.35 163.6 -97.85 164.0 -97.15 164.4 -96.75 169.6 -87.6 171.55 -83.7 174.0 -78.15 174.35 -77.65 174.65 -77.25 174.75 -77.15 Q175.65 -74.25 176.9 -71.55 177.8 -69.5 178.15 -67.25 L179.2 -64.85 180.15 -61.5 180.15 -60.5 179.9 -59.75 179.5 -59.25 179.15 -59.0 178.75 -58.9 178.4 -58.85 178.0 -58.8 177.65 -58.9 177.25 -59.05 176.9 -59.3 176.5 -59.65 176.15 -60.75 Q174.9 -63.45 173.9 -66.25 L172.75 -69.65 172.4 -70.15 172.15 -71.0 171.9 -71.9 171.5 -72.5 171.15 -72.9 170.75 -73.25 168.7 -78.3 167.4 -81.4 167.3 -82.0 167.25 -83.75 166.9 -84.15 166.5 -84.25 166.15 -84.4 165.75 -84.65 165.4 -85.05 164.8 -85.9 164.5 -86.5 161.4 -92.55 159.25 -96.15 158.9 -96.75 158.45 -97.05 158.15 -97.15 157.75 -97.15 157.4 -97.3 157.0 -97.5 156.65 -97.75 156.25 -98.4 155.9 -99.0 155.5 -99.4 155.15 -99.75 154.75 -100.4 154.4 -101.0 154.0 -101.4 153.65 -101.8 152.85 -102.9 152.5 -103.4 152.15 -104.25 151.75 -105.15 151.35 -105.3 151.0 -105.25 150.6 -105.15 150.25 -105.15 149.9 -105.25 149.5 -105.5 149.15 -105.8 148.75 -106.15 148.4 -106.65 148.0 -107.9 147.65 -108.25 147.25 -108.65 146.5 -109.65 146.15 -110.25 145.75 -110.65 145.4 -111.0 145.0 -111.4 144.6 -112.0 144.25 -112.5 143.4 -113.65 143.15 -113.65 142.75 -113.65 142.4 -113.8 142.0 -114.0 141.65 -114.25 141.25 -115.0 140.85 -115.5 140.5 -115.9 140.15 -116.25 139.75 -116.9 139.4 -117.65 139.0 -118.4 138.65 -118.75 138.25 -119.15 137.9 -119.65 137.45 -120.6 137.05 -121.15 136.75 -121.25 136.4 -121.4 136.0 -121.65 135.65 -122.0 135.25 -122.65 134.9 -122.9 134.5 -123.15 134.15 -123.5 133.35 -124.75 131.9 -127.0 131.5 -127.5 131.1 -127.75 130.75 -127.9 130.4 -128.25 130.0 -128.65 129.65 -129.4 129.25 -129.75 128.9 -130.15 128.1 -130.85 127.4 -131.5 126.6 -132.6 125.1 -134.6 124.4 -135.65 124.15 -136.65 123.35 -137.25 122.2 -138.2 120.9 -139.9 120.75 -140.65 120.0 -141.2 118.5 -142.5 117.0 -144.0 116.65 -144.15 116.25 -144.4 115.55 -144.9 114.75 -145.65 Q114.55 -145.7 114.4 -145.8 L114.0 -146.0 113.65 -146.3 112.9 -147.15 112.65 -148.0 112.9 -148.9 113.25 -149.35" fill="#ffffff" fill-opacity="0.16078432" fill-rule="evenodd" stroke="none"/>
    <path d="M170.0 -83.65 L170.35 -83.35 170.7 -83.0 171.25 -82.0 Q174.1 -79.25 175.4 -75.35 L177.3 -69.15 177.65 -68.0 178.0 -67.5 178.4 -66.9 178.6 -66.15 178.75 -65.65 178.9 -65.15 179.15 -64.5 179.5 -64.0 179.9 -63.4 180.05 -62.55 Q180.05 -62.5 180.15 -62.5 L180.15 -61.5 179.9 -60.75 179.5 -60.25 179.1 -60.05 178.75 -59.9 178.4 -59.9 178.0 -60.0 177.65 -60.15 177.25 -60.5 176.85 -61.0 176.5 -61.4 176.25 -61.65 176.15 -61.9 175.85 -62.65 175.15 -64.65 174.75 -65.15 174.4 -65.75 174.15 -66.5 174.1 -67.15 174.0 -67.75 173.75 -68.75 173.4 -69.5 173.0 -70.25 172.3 -72.1 171.7 -74.0 171.4 -75.4 171.0 -76.0 170.75 -76.25 170.65 -76.5 170.5 -77.4 170.15 -78.15 169.75 -78.5 169.4 -78.9 168.7 -79.8 168.0 -80.9 167.75 -81.75 167.4 -82.75 167.0 -83.25 166.8 -84.0 166.65 -84.9 166.25 -85.4 166.0 -86.0 166.25 -86.65 166.6 -86.6 167.0 -86.4 167.4 -85.9 167.8 -85.45 Q167.95 -85.3 168.15 -85.25 L168.45 -85.2 168.85 -84.85 169.25 -84.4 169.65 -83.9 170.0 -83.65" fill="#ffffff" fill-opacity="0.16078432" fill-rule="evenodd" stroke="none"/>
    <path d="M185.5 58.6 L185.1 58.95 184.75 59.2 184.4 59.25 184.0 59.1 183.65 58.85 182.85 58.25 182.5 58.0 181.75 57.75 180.6 57.4 179.9 57.2 179.15 57.0 178.75 57.0 178.4 57.0 178.0 57.0 176.15 56.45 173.85 56.0 171.25 55.5 170.9 55.35 170.5 55.15 170.15 54.95 169.75 54.75 164.9 53.5 158.9 51.9 154.75 50.85 154.4 50.85 153.65 50.85 152.9 50.85 152.15 50.85 151.4 50.6 150.25 50.25 149.5 50.0 149.15 49.85 148.75 49.85 148.4 49.85 147.65 49.85 146.9 49.75 146.5 49.6 146.15 49.35 145.75 49.35 145.4 49.35 145.0 49.35 144.65 49.35 144.25 49.35 143.9 49.25 143.5 49.1 143.15 49.0 142.75 49.0 142.4 48.95 142.0 48.85 141.65 48.7 141.25 48.5 140.9 48.2 140.5 47.85 140.15 47.85 139.75 47.85 139.4 47.85 139.0 47.75 138.65 47.6 138.25 47.5 137.9 47.35 137.5 47.35 137.15 47.35 136.75 47.2 136.35 47.0 136.0 46.85 135.65 46.6 134.9 46.45 133.75 46.1 133.0 45.85 132.65 45.75 132.25 45.5 131.9 45.25 131.5 45.0 131.15 45.0 130.75 45.0 130.4 44.85 130.0 44.6 129.65 44.35 129.25 44.1 128.9 44.0 128.5 43.85 128.15 43.75 127.75 43.6 127.0 43.1 125.85 42.4 125.15 42.0 124.75 41.95 124.4 41.85 124.0 41.65 123.65 41.5 123.25 41.45 122.9 41.35 122.5 41.1 122.15 40.85 121.75 40.75 121.4 40.6 121.0 40.4 120.65 40.2 119.9 39.85 119.5 39.6 118.75 39.5 118.0 39.5 117.25 39.45 116.5 39.35 116.15 39.2 115.45 38.55 114.9 37.6 114.5 37.5 114.15 37.35 113.75 37.25 113.4 37.1 113.0 36.9 112.65 36.7 111.9 36.1 111.65 35.75 111.5 35.0 111.75 34.0 112.15 33.5 112.5 33.25 112.9 33.1 113.25 33.0 113.65 33.0 114.0 33.0 114.4 33.0 114.75 33.15 115.15 33.35 115.5 33.5 115.9 33.5 116.25 33.65 116.65 33.85 117.0 33.95 117.4 34.0 117.75 34.0 118.15 34.1 118.5 34.25 118.9 34.35 119.25 34.6 119.65 34.85 120.0 34.95 120.4 35.0 120.75 35.1 121.1 35.25 121.9 35.6 122.6 36.0 123.4 36.5 123.75 36.5 124.15 36.5 124.5 36.5 126.0 37.0 127.5 37.5 129.4 38.1 129.75 38.35 130.1 38.5 130.85 38.9 131.25 39.1 131.6 39.15 132.4 39.35 133.15 39.6 133.9 39.85 134.25 40.1 134.6 40.25 135.0 40.5 135.4 40.6 136.1 40.75 136.9 41.0 137.65 41.25 140.3 42.55 143.4 44.4 145.15 45.6 145.5 45.6 145.9 45.6 146.25 45.6 146.65 45.6 147.0 45.6 147.35 45.75 147.75 46.0 148.15 46.1 148.5 46.1 149.25 46.1 150.0 46.1 150.75 46.35 151.9 46.75 152.65 47.0 153.0 47.1 153.4 47.1 153.75 47.1 154.15 47.1 154.5 47.1 154.9 47.1 156.4 47.55 158.3 48.0 160.15 48.6 160.5 48.75 160.9 49.0 163.45 49.85 166.85 50.65 169.9 51.35 170.2 51.55 170.65 51.85 171.0 52.0 171.4 52.25 175.15 53.1 179.65 54.05 183.0 55.1 183.8 55.7 184.9 56.6 185.5 57.25 185.6 57.5 185.7 57.95 185.75 58.0 185.5 58.6" fill="#ffffff" fill-opacity="0.16078432" fill-rule="evenodd" stroke="none"/>
    <path d="M184.15 56.0 L183.9 56.75 183.5 57.0 183.15 56.75 182.75 56.25 182.4 56.0 182.0 55.75 181.65 55.7 180.85 55.5 180.5 55.45 179.75 55.4 179.4 55.35 178.65 55.0 177.85 54.6 176.75 54.1 176.4 53.85 175.65 53.7 174.85 53.5 173.75 53.2 173.0 53.0 172.65 53.0 172.25 53.0 171.15 52.6 170.0 52.35 168.5 52.15 167.75 52.1 163.3 50.95 158.4 49.55 154.25 48.25 153.9 48.25 153.5 48.25 149.4 47.15 144.85 45.95 140.75 45.35 138.5 44.7 135.15 43.65 132.15 43.5 131.75 43.45 131.0 43.35 130.65 43.25 129.9 43.0 129.5 43.0 129.15 43.0 128.75 42.95 128.0 42.6 127.6 42.35 126.9 42.0 126.5 41.95 126.15 41.85 125.4 41.5 124.65 41.1 123.5 40.1 123.25 39.85 123.15 39.6 123.0 39.0 123.25 38.1 123.65 37.75 124.0 37.5 124.4 37.5 124.75 37.5 125.15 37.5 125.45 37.55 126.3 38.05 127.0 38.5 127.75 39.0 128.15 39.0 128.5 39.0 128.85 39.25 129.25 39.6 129.65 39.85 130.4 40.0 131.1 40.15 131.9 40.35 132.65 40.6 133.0 40.6 133.4 40.6 133.75 40.6 134.15 40.6 134.5 40.6 136.35 41.2 138.95 42.0 141.25 42.5 141.65 42.75 145.35 43.45 149.9 44.6 154.0 45.6 154.35 45.75 154.75 46.0 162.25 48.35 170.85 50.6 176.5 52.0 177.25 52.35 178.35 52.9 179.85 53.65 180.25 53.85 180.6 53.9 181.0 53.95 181.35 54.0 181.75 54.1 182.5 54.5 183.25 54.95 183.95 55.65 184.15 56.0" fill="#ffffff" fill-opacity="0.16078432" fill-rule="evenodd" stroke="none"/>
    <path d="M-27.6 138.5 L-27.55 141.5 -27.5 141.5 -29.75 151.25 -31.85 160.6 -33.1 166.0 -33.1 168.5 -33.35 169.35 -33.6 173.0 -33.85 173.75 -34.1 174.1 -34.35 174.75 -34.75 175.05 -35.1 175.25 -35.5 175.3 -35.85 175.25 -36.25 175.1 -36.6 174.75 -36.85 174.0 -36.85 173.5 -36.25 169.5 -35.85 168.1 Q-35.2 163.75 -34.05 159.5 L-31.35 148.7 -29.95 143.0 -29.5 141.35 -29.35 138.5 -29.1 137.85 -28.7 137.65 -28.35 137.6 -28.0 137.75 -27.8 138.0 -27.6 138.5" fill="#ffffff" fill-opacity="0.16078432" fill-rule="evenodd" stroke="none"/>
    <path d="M-30.05 148.15 L-32.25 156.95 -33.75 161.6 -34.05 163.85 -34.35 167.0 -34.6 167.75 -34.9 168.95 -35.1 169.75 -35.2 171.5 -35.2 172.0 -35.1 172.6 -34.75 172.75 -34.4 173.0 -34.0 173.35 -33.65 173.75 -33.35 174.1 -33.25 174.35 -33.1 175.0 -33.35 175.85 -33.75 176.35 -34.1 176.6 -34.35 176.85 -34.2 177.2 -33.9 177.5 -33.5 177.85 -33.1 178.2 -32.35 178.85 -32.1 179.5 -32.45 180.05 -32.75 180.25 -33.1 180.3 -33.5 180.25 -33.85 180.25 -34.25 180.4 -34.6 180.5 -35.0 180.35 -35.4 180.15 -35.75 179.95 -36.1 179.75 -36.5 179.6 -36.85 179.5 -37.25 179.35 -37.6 179.25 -38.0 179.0 -38.35 178.75 -38.75 178.1 -39.15 177.5 -39.5 176.95 -39.75 176.6 -39.85 176.0 -39.85 175.5 -39.6 174.6 -39.35 174.25 -39.35 174.0 -39.35 173.5 -39.2 172.0 -39.0 171.1 -38.75 170.75 Q-37.1 160.75 -34.05 151.0 L-31.75 143.35 Q-30.95 140.45 -29.25 138.35 L-28.85 138.4 -28.5 138.5 -28.1 138.75 -27.95 139.45 -27.85 139.5 -30.05 148.15" fill="#ffffff" fill-opacity="0.16078432" fill-rule="evenodd" stroke="none"/>
    <path d="M20.15 134.0 L20.4 133.1 20.75 132.85 21.15 132.65 21.5 132.6 21.9 132.65 22.2 132.6 22.65 132.4 23.0 132.25 23.35 132.4 23.6 132.65 23.75 133.0 23.85 133.5 24.4 141.5 24.4 145.0 24.15 145.75 23.75 146.05 23.4 146.25 23.0 146.3 22.65 146.25 22.25 146.1 21.9 145.75 21.65 145.0 21.4 141.35 20.95 140.4 20.75 140.1 20.65 139.5 20.4 136.75 20.15 136.0 20.15 134.0" fill="#ffffff" fill-opacity="0.16078432" fill-rule="evenodd" stroke="none"/>
    <path d="M-100.1 24.6 L-97.2 37.5 -95.75 42.0 Q-95.65 44.25 -94.5 46.25 L-92.75 49.5 Q-92.05 50.15 -91.5 50.9 L-89.75 53.5 -89.5 53.85 -89.45 54.45 -89.35 54.5 -89.35 55.0 -89.6 55.75 -90.0 56.25 -90.35 56.5 -90.75 56.6 -91.1 56.6 -91.5 56.6 -91.85 56.6 -92.25 56.6 -92.6 56.45 -92.95 56.2 -93.4 55.9 -93.75 55.6 -94.1 55.6 -94.5 55.5 -94.85 55.35 -95.25 55.15 -95.6 54.95 -96.0 54.75 -97.8 51.7 Q-98.9 49.85 -99.35 47.75 L-100.0 46.3 -101.1 44.35 Q-104.0 35.4 -106.15 26.25 -107.4 20.95 -107.5 15.5 L-107.25 14.5 -106.85 14.0 -106.5 13.75 -106.1 13.6 -105.75 13.5 -105.35 13.5 -105.0 13.5 -104.65 13.65 -104.25 13.9 -103.5 14.6 -102.75 15.5 -101.7 21.75 -101.5 23.0 -101.25 23.5 -100.85 23.85 -100.5 24.25 -100.1 24.6" fill="#ffffff" fill-opacity="0.16078432" fill-rule="evenodd" stroke="none"/>
    <path d="M-101.0 -29.25 Q-101.15 -21.3 -102.9 -13.45 L-103.65 -8.75 -103.75 -7.25 -103.85 4.75 -102.6 14.0 Q-102.15 16.7 -101.0 18.5 L-100.6 18.5 -100.25 18.65 -99.55 19.15 -98.75 20.0 -98.5 21.0 Q-97.6 28.85 -96.85 36.75 L-96.2 38.85 -95.5 41.0 -94.35 42.7 -92.6 45.75 -92.5 46.25 -92.35 46.75 -91.95 48.1 -91.6 49.0 -91.25 49.5 -90.85 50.25 -90.5 50.6 -90.25 51.0 -90.15 51.25 -90.05 51.95 -90.0 52.0 -90.0 52.5 -90.25 53.35 -90.6 53.85 -91.0 54.1 -91.4 54.35 -91.75 54.5 -92.15 54.7 -92.5 54.85 -92.85 54.95 -93.25 55.0 -93.6 54.95 -94.0 54.85 -94.35 54.7 -94.7 54.45 -95.45 53.7 -96.25 52.85 -96.6 52.6 -97.0 52.25 -97.35 51.6 -97.75 50.85 -98.35 49.75 -98.6 48.6 -98.85 48.25 -99.1 47.25 -99.35 46.7 -99.65 45.85 -100.35 44.0 -100.7 43.45 -101.1 42.85 -101.35 42.1 -101.5 41.6 -101.85 40.25 -102.1 39.85 -102.2 39.6 -102.5 38.6 -102.85 38.35 -103.2 37.95 -103.5 37.6 -103.6 37.1 -103.85 36.25 -104.1 35.85 -104.2 35.6 -104.35 35.1 -104.5 34.6 -104.75 33.85 -105.1 33.25 -105.5 32.5 -105.75 32.0 -105.85 31.75 Q-108.7 18.15 -108.85 4.25 L-108.9 2.75 Q-109.55 -11.35 -105.9 -25.0 -105.6 -26.25 -105.6 -27.5 L-105.35 -28.5 -105.0 -29.25 -104.6 -29.9 -104.2 -30.25 -103.85 -30.5 -103.5 -30.6 -103.1 -30.65 -102.75 -30.65 -102.4 -30.6 -102.0 -30.4 -101.65 -30.1 -101.25 -29.75 -101.0 -29.25" fill="#ffffff" fill-opacity="0.16078432" fill-rule="evenodd" stroke="none"/>
    <path d="M-102.0 34.0 L-101.75 33.0 -101.35 32.5 -101.0 32.25 -100.6 32.1 -100.25 32.0 -99.85 32.0 -99.5 32.0 -99.15 32.15 -98.75 32.4 -98.35 32.75 -98.1 33.25 -97.85 34.25 -97.6 34.75 Q-97.4 36.6 -96.8 38.35 L-95.0 43.35 Q-94.15 44.4 -93.6 45.65 L-91.75 50.5 -91.7 52.5 -91.6 52.5 -91.6 53.5 -91.85 54.35 -92.25 54.85 -92.65 55.1 -93.0 55.25 -93.35 55.35 -93.75 55.35 -94.1 55.25 -95.3 54.4 Q-96.65 53.2 -97.6 51.65 L-98.5 50.35 -98.55 50.1 -99.05 47.5 -99.25 46.5 -99.25 43.6 -100.85 38.7 -102.0 35.0 -102.0 34.0" fill="#ffffff" fill-opacity="0.16078432" fill-rule="evenodd" stroke="none"/>
    <path d="M181.15 55.65 L181.5 56.0 181.8 56.4 181.85 57.0 181.9 57.0 181.9 59.0 181.65 59.9 181.4 60.5 181.15 61.25 181.1 61.65 181.15 62.5 181.15 63.0 180.9 63.75 180.5 64.25 180.15 64.65 179.8 65.15 179.0 66.25 178.65 66.65 178.3 67.4 177.9 68.4 177.55 68.9 177.15 69.5 176.9 69.9 175.7 72.9 Q174.1 76.1 173.1 79.55 L172.5 81.9 172.15 82.25 171.75 82.5 171.05 84.15 169.5 87.35 168.4 89.15 168.0 89.5 167.25 90.25 166.55 90.9 165.8 91.8 165.5 92.15 165.4 92.5 165.15 93.4 164.75 93.9 164.4 94.1 164.0 94.25 163.65 94.35 163.3 94.35 162.9 94.25 162.5 94.0 162.15 93.75 161.9 93.4 161.8 93.15 161.65 92.5 161.65 92.0 161.65 91.0 165.0 82.75 Q167.0 77.55 169.45 72.6 L169.9 71.65 170.3 71.15 170.5 70.9 170.65 70.5 170.9 69.65 171.3 69.15 171.65 68.75 172.05 68.65 172.4 68.65 Q173.85 66.05 174.55 63.15 L176.3 57.0 Q177.1 54.4 179.3 53.15 L179.65 53.15 180.0 53.2 180.4 53.4 180.65 53.75 180.75 53.9 180.9 54.5 181.15 55.65" fill="#ffffff" fill-opacity="0.16078432" fill-rule="evenodd" stroke="none"/>
    <path d="M181.3 52.4 L181.65 52.65 181.9 53.5 181.95 56.0 182.05 56.0 182.05 57.0 182.05 57.5 181.4 59.1 181.0 59.9 180.65 60.5 180.3 61.0 179.85 61.85 179.1 63.25 178.75 63.75 178.4 64.15 Q175.85 69.85 173.55 75.65 L169.8 84.15 168.25 87.5 167.9 87.9 167.5 88.25 167.15 88.9 166.75 89.65 166.35 90.4 166.0 90.9 Q165.4 92.5 164.4 93.9 L162.9 96.05 161.5 98.4 161.15 98.75 159.7 101.3 158.15 103.9 156.25 106.75 154.35 108.75 152.1 111.85 Q150.9 113.55 150.2 115.5 L149.9 116.25 149.5 116.65 149.15 117.0 148.75 118.0 148.4 118.75 Q147.05 120.35 145.35 121.35 L142.5 123.1 Q141.2 123.9 140.25 125.1 138.6 127.3 137.35 129.7 L136.75 130.4 136.4 131.15 136.0 131.8 135.65 132.15 135.25 132.55 134.9 132.9 134.5 133.3 134.15 133.65 133.75 134.15 133.4 134.4 133.0 134.65 132.65 134.9 132.25 135.05 131.9 135.0 131.5 134.9 131.15 134.8 130.8 134.5 130.4 134.15 130.15 133.8 130.0 133.05 130.25 132.05 130.65 131.3 131.0 130.65 131.75 129.9 132.15 129.55 132.5 129.15 133.3 128.4 134.0 127.8 134.8 126.55 135.45 125.35 136.6 123.4 136.9 122.9 136.65 122.05 136.95 121.15 137.3 120.4 137.65 119.75 138.75 118.65 139.95 117.6 140.95 116.8 142.15 115.75 142.5 115.4 142.85 115.25 143.6 114.75 144.0 114.4 144.4 114.05 145.15 113.55 145.5 113.4 145.9 113.0 146.25 112.4 146.15 111.5 146.15 111.0 146.4 110.15 Q149.0 107.7 150.8 104.6 L154.6 97.85 Q156.4 94.5 158.5 91.3 L159.5 89.4 159.9 89.05 160.25 88.75 160.65 88.3 161.0 87.9 161.4 87.5 162.85 84.5 164.35 81.15 165.5 79.0 166.3 77.15 167.05 75.65 167.75 74.25 168.15 73.9 168.5 73.5 168.9 73.15 169.3 72.9 169.65 72.75 170.0 72.75 170.35 72.7 170.75 72.4 171.35 70.85 171.65 69.9 171.9 68.9 172.25 67.65 172.65 67.0 173.35 65.85 173.75 65.15 174.0 64.65 174.15 64.4 174.25 63.9 174.4 63.4 174.5 62.65 174.25 62.0 174.5 61.25 174.9 60.75 175.25 60.5 175.5 60.25 Q175.5 59.4 175.65 58.5 176.0 56.6 176.8 54.9 L177.9 52.65 178.25 52.4 178.65 52.15 179.0 52.15 179.4 52.15 179.8 52.15 180.15 52.15 180.55 52.15 180.9 52.2 181.3 52.4" fill="#ffffff" fill-opacity="0.16078432" fill-rule="evenodd" stroke="none"/>
    <path d="M180.4 52.5 L180.75 52.7 181.15 53.0 181.4 53.4 181.45 54.0 181.55 54.0 181.55 58.0 181.3 59.0 181.0 61.0 180.75 62.0 180.0 64.25 179.65 65.0 179.3 65.4 178.9 65.75 178.5 66.4 178.15 67.0 177.75 67.25 Q177.6 67.3 177.4 67.4 L177.0 67.5 Q176.85 67.55 176.75 67.7 176.45 68.15 176.3 68.65 L175.9 69.75 175.55 70.4 175.15 71.25 174.75 71.6 174.4 71.75 174.0 71.85 173.65 71.75 173.25 71.65 172.9 71.25 172.65 70.5 172.65 70.0 172.9 69.15 173.1 68.85 173.25 68.5 173.4 68.0 173.5 67.75 173.5 66.0 173.8 65.25 174.15 64.4 174.15 63.75 173.9 63.0 173.65 59.9 173.25 59.8 172.9 59.75 172.55 59.75 172.15 59.65 171.8 59.5 171.4 59.25 171.0 58.9 170.8 58.0 170.65 57.0 170.9 56.15 171.3 55.65 171.65 55.25 172.0 54.85 172.25 54.5 172.5 53.65 172.9 53.15 173.3 52.9 173.65 52.75 174.0 52.75 174.4 52.8 174.8 52.85 175.15 52.9 175.5 52.9 175.9 53.15 176.25 53.5 176.65 53.25 177.05 52.9 177.4 52.65 177.8 52.55 178.15 52.5 178.5 52.5 178.9 52.5 179.3 52.5 179.65 52.5 180.05 52.5 180.4 52.5" fill="#ffffff" fill-opacity="0.16078432" fill-rule="evenodd" stroke="none"/>
    <path d="M162.65 48.25 L162.8 48.55 162.95 49.0 163.0 49.0 162.75 49.65 162.4 49.85 162.0 50.0 161.65 49.9 161.3 49.75 160.55 49.35 160.15 49.15 160.15 49.9 160.5 50.05 160.9 50.3 161.25 50.65 161.5 51.5 161.5 53.0 161.25 53.75 160.9 54.1 160.5 54.4 160.15 54.5 159.75 54.5 159.4 54.5 159.0 54.5 158.65 54.5 158.3 54.45 157.9 54.25 157.5 54.25 157.15 54.25 156.75 54.25 156.4 54.25 156.0 54.15 155.65 54.0 155.25 53.75 155.0 53.4 154.9 53.15 154.75 52.5 155.0 51.65 155.4 51.15 155.75 50.9 156.15 50.15 156.55 49.8 156.9 49.5 157.1 49.0 157.4 48.15 157.75 47.75 158.15 47.15 158.5 46.75 158.9 46.75 159.25 46.8 159.65 46.85 160.0 46.9 160.4 46.9 160.75 47.15 161.55 47.6 162.25 48.0 162.65 48.25" fill="#ffffff" fill-opacity="0.16078432" fill-rule="evenodd" stroke="none"/>
    <path d="M81.5 64.9 L80.05 63.35 79.25 62.4 78.5 61.75 77.75 61.15 77.0 60.5 76.9 59.65 77.25 59.25 77.95 59.6 79.1 60.4 80.25 61.4 80.65 61.5 81.0 61.65 82.5 63.15 84.0 64.65 84.75 65.4 87.05 67.0 88.9 68.65 90.75 69.9 Q100.1 76.5 108.8 83.9 117.9 91.6 127.55 98.65 137.3 105.75 145.9 114.25 L146.3 114.9 146.65 115.25 146.85 115.55 146.95 116.0 147.05 116.0 146.8 116.65 146.4 116.85 146.05 117.0 Q137.3 109.45 127.9 102.4 118.35 95.25 109.25 87.5 100.2 79.85 90.65 72.75 L83.75 67.4 83.4 66.75 81.5 64.9" fill="#ffffff" fill-opacity="0.16078432" fill-rule="evenodd" stroke="none"/>
    <path d="M115.65 93.75 L116.05 93.65 116.4 93.65 116.75 93.65 117.15 93.65 117.5 93.65 Q123.3 97.45 128.5 102.3 133.35 106.85 138.5 111.05 140.85 112.95 143.4 114.5 L143.8 114.65 144.55 114.9 145.3 115.15 145.65 115.25 146.05 115.5 146.3 115.9 146.35 116.5 146.4 116.5 146.15 117.25 145.8 117.65 145.4 117.75 145.05 117.9 144.65 118.0 144.3 118.0 143.55 117.75 142.8 117.5 142.4 117.4 142.0 117.15 141.65 117.0 141.3 116.75 140.9 116.65 140.55 116.5 140.15 116.4 133.0 110.95 Q129.45 108.35 126.3 105.25 L123.25 102.65 Q122.25 102.2 121.35 101.45 L119.15 99.3 118.4 98.5 118.0 98.4 117.65 98.3 117.25 98.25 116.9 98.1 116.5 97.9 116.15 97.75 115.75 97.65 115.45 97.45 115.05 97.0 114.75 96.65 114.65 96.0 114.65 95.5 114.9 94.65 115.3 94.15 115.65 93.75" fill="#ffffff" fill-opacity="0.16078432" fill-rule="evenodd" stroke="none"/>
    <path d="M20.35 141.15 L20.0 141.4 19.75 141.05 20.0 140.55 20.35 140.15 Q20.55 140.2 20.65 140.35 L21.1 141.05 21.35 141.55 Q22.6 148.7 22.9 156.05 23.1 161.4 23.75 166.7 24.1 169.4 24.75 172.05 L24.8 174.05 24.85 174.05 24.85 177.05 24.55 177.6 24.25 177.8 23.9 177.8 23.5 177.65 23.3 177.5 23.1 177.05 23.1 174.05 23.1 171.55 22.15 161.4 21.05 146.55 20.35 141.15" fill="#ffffff" fill-opacity="0.16078432" fill-rule="evenodd" stroke="none"/>
    <path d="M22.75 148.9 L23.0 149.55 Q23.1 154.85 24.25 160.05 L24.35 163.9 25.5 169.65 26.1 174.05 Q26.2 175.5 26.6 176.55 L26.6 177.55 26.35 178.3 26.0 178.8 25.6 179.0 25.25 179.15 24.9 179.15 24.5 179.05 24.1 178.9 23.75 178.5 23.5 178.15 Q21.65 170.95 21.05 163.5 20.65 158.7 19.25 154.05 L19.25 152.55 19.5 151.65 19.85 151.15 20.25 150.95 20.6 150.8 20.8 150.5 21.0 149.55 21.25 148.9 21.65 148.6 22.0 148.55 22.35 148.6 22.75 148.9" fill="#ffffff" fill-opacity="0.16078432" fill-rule="evenodd" stroke="none"/>
    <path d="M64.4 120.0 L65.0 121.2 65.3 121.9 65.95 123.5 66.15 123.8 66.5 124.25 66.7 124.5 66.85 125.05 67.15 126.0 67.2 126.0 67.0 126.55 66.95 126.6 66.75 125.8 66.55 125.25 66.4 124.7 66.0 124.25 65.85 124.0 65.65 123.6 65.45 123.25 65.25 123.0 65.05 122.45 64.9 122.1 64.5 121.5 64.3 121.1 64.15 121.0 63.95 120.7 63.8 120.5 63.75 120.25 63.8 119.85 64.0 119.75 64.2 119.85 64.4 120.0 M63.2 121.45 L63.35 121.5 63.55 121.75 63.75 122.05 63.95 122.25 64.1 122.55 64.3 122.95 64.45 123.2 64.5 123.3 64.55 123.5 64.45 124.1 64.25 124.25 64.05 124.1 63.85 123.45 63.5 122.7 63.3 122.5 63.15 122.3 63.0 122.2 62.95 122.0 63.0 121.55 63.2 121.45 M66.2 119.55 L66.4 119.45 66.55 119.35 66.75 119.3 66.95 119.3 67.15 119.35 67.3 119.45 67.5 119.6 67.7 119.7 67.9 119.8 68.0 120.0 68.15 120.3 68.45 120.75 69.05 121.75 69.2 121.85 69.25 122.0 69.3 122.25 69.35 122.5 69.4 122.8 69.55 123.0 69.7 123.1 69.75 123.25 69.9 123.6 70.0 123.85 70.05 124.0 70.1 124.25 70.15 124.25 70.0 124.55 69.8 124.75 69.6 124.85 69.45 124.95 69.25 125.2 69.05 125.3 68.85 125.4 68.7 125.45 68.5 125.35 68.3 125.25 68.1 125.0 67.95 124.8 67.75 124.7 67.65 124.55 67.5 124.2 67.4 124.05 67.3 123.75 67.2 123.35 67.0 123.05 66.9 122.8 66.8 122.5 66.7 122.1 66.5 121.8 66.3 121.45 66.15 121.05 66.1 120.75 66.05 120.0 66.2 119.55" fill="#483e32" fill-rule="evenodd" stroke="none"/>
    <path d="M68.5 118.55 L63.0 121.15 57.35 123.5 Q54.55 124.6 51.85 125.8 49.15 127.0 46.35 127.65 L40.6 129.45 Q37.7 130.55 34.95 131.1 L29.15 132.45 24.45 133.4 20.45 133.5" fill="none" stroke="#483e32" stroke-linecap="round" stroke-linejoin="round" stroke-width="1.0"/>
    <path d="M68.0 119.05 Q65.45 120.1 62.65 121.45 L57.15 124.0 51.6 126.5 Q48.8 127.8 45.75 128.55 L40.0 130.05 34.35 131.35 28.55 132.5 24.05 133.15 Q22.5 133.2 20.2 133.95" fill="none" stroke="#483e32" stroke-linecap="round" stroke-linejoin="round" stroke-width="1.0"/>
    <path d="M176.35 -57.65 L174.35 -63.35 Q173.35 -65.75 172.5 -68.55 171.65 -71.3 170.0 -74.15 168.35 -76.95 167.2 -79.7 L164.65 -85.25 161.9 -90.5 Q160.55 -92.85 158.6 -95.4 156.65 -97.95 155.2 -100.45 L151.8 -105.5 147.95 -110.2 Q146.1 -112.3 144.35 -114.65 L140.65 -119.0 136.5 -123.5 133.2 -127.0 Q132.05 -128.05 132.1 -128.35 L127.8 -132.7 123.45 -136.55 119.0 -140.55 Q116.75 -142.7 114.2 -144.4 L109.4 -147.8 104.75 -151.3 Q102.4 -153.15 99.9 -154.55 L94.9 -157.5 89.85 -160.5 Q87.35 -161.9 84.5 -163.3 L80.0 -165.3 Q78.35 -165.9 75.7 -167.25 M50.3 -175.85 L44.35 -177.1 38.5 -178.05 32.7 -179.15 26.85 -180.15 20.9 -180.5 14.85 -180.9 9.95 -181.3 3.95 -181.4 -2.05 -181.5 -7.95 -181.35 -14.05 -180.75 -19.85 -180.1 -25.65 -179.05 -31.5 -177.95 -37.4 -177.2 -43.25 -175.95 -49.2 -174.3 Q-52.2 -173.55 -54.9 -172.4 L-60.3 -170.0 Q-62.95 -168.75 -65.65 -167.6 -68.3 -166.45 -71.2 -165.5 -74.05 -164.5 -76.6 -163.1 L-81.7 -160.0 Q-84.25 -158.35 -87.0 -157.05 -89.7 -155.7 -92.35 -154.0 L-97.35 -150.6 -102.2 -147.1 -106.95 -143.6 -111.6 -140.1 -116.25 -136.15 -119.5 -132.9 Q-120.4 -131.85 -124.2 -128.35 L-128.5 -124.25 Q-130.6 -122.25 -132.25 -119.85 -133.9 -117.4 -136.0 -115.15 L-140.05 -110.65 -143.7 -105.9 -146.95 -100.7 Q-148.55 -98.0 -150.25 -95.7 L-153.6 -90.85 -156.55 -85.7 -159.05 -80.3 Q-160.2 -77.5 -161.6 -75.05 -163.0 -72.55 -163.95 -69.55 -164.85 -66.55 -166.15 -63.85 L-168.4 -58.4 Q-169.4 -55.6 -170.0 -52.35 -170.6 -49.1 -171.6 -46.4 -172.55 -43.7 -172.95 -40.7 -173.3 -37.65 -174.2 -34.7 -175.05 -31.75 -175.5 -28.95 -175.95 -26.15 -176.0 -22.75 -176.0 -19.35 -176.5 -16.45 L-177.3 -10.45 Q-177.55 -7.35 -177.3 -6.05 -177.05 -4.75 -177.25 -0.2 -177.55 2.75 -177.35 5.85 L-177.2 12.0 Q-177.2 15.05 -176.75 17.75 -176.25 20.5 -176.1 23.65 -175.9 26.8 -175.2 29.75 L-173.95 35.75 -173.05 40.45 -172.55 42.5 M68.15 -170.25 Q65.35 -171.3 64.0 -171.6 62.7 -171.85 58.25 -173.6 M-162.9 71.9 L-160.35 77.3 -157.6 82.8 -154.7 88.0 -151.7 92.9 -148.55 98.1 -145.25 103.3 -141.55 108.35 -137.6 113.1 -133.7 117.5 -129.95 122.15 -126.85 125.4 Q-125.55 126.35 -124.2 127.95 L-119.65 132.2 -115.5 136.3 -110.9 140.2 -106.1 143.8 Q-103.6 145.65 -101.4 147.5 L-96.65 151.2 -91.65 154.5 Q-89.1 156.05 -86.25 157.3 -83.4 158.55 -80.8 160.1 -78.2 161.65 -75.65 162.8 -73.05 164.0 -70.5 165.5 -67.9 167.05 -65.0 168.15 L-59.25 170.25 -53.6 172.05 -47.8 173.85 -41.7 175.6 -35.8 176.95 -30.2 178.05 -24.5 179.05 -18.4 179.65 -12.05 180.1 -6.0 180.75 -1.5 181.0 3.95 181.0 9.85 180.75 15.95 180.65 21.8 180.5 27.85 179.75 33.7 178.7 39.55 177.8 45.45 176.6 51.45 175.05 57.35 173.5 62.9 171.65 68.7 169.45 74.25 167.3 Q76.9 166.3 79.55 165.1 L85.05 162.45 90.45 159.75 Q92.95 158.45 95.55 156.8 L100.45 153.75 105.25 150.4 110.15 146.7 115.0 143.05 119.85 139.3 124.35 135.3 127.6 132.2 132.1 127.95 Q133.75 125.8 136.0 123.65 L140.2 119.3 144.15 114.8 147.95 109.85 151.4 105.25 154.75 100.6 158.2 95.5 161.4 90.15 Q162.9 87.3 164.35 84.9 L167.3 79.75 169.75 74.4 171.8 69.1 173.85 63.4 175.5 58.9 177.55 53.4 M-168.55 57.0 Q-167.1 59.9 -166.8 61.3 L-165.95 64.4" fill="none" stroke="#483e32" stroke-linecap="round" stroke-linejoin="round" stroke-width="1.0"/>
    <path d="M-40.2 176.2 Q-38.5 170.45 -38.8 170.55 -39.0 170.35 -44.55 169.05 L-45.55 168.8 -51.2 166.95 -57.05 164.9 -62.35 162.7 -68.0 160.6 Q-70.95 159.55 -73.5 158.2 -76.0 156.85 -78.7 155.4 L-83.7 152.5 Q-85.95 151.05 -88.65 149.7 -91.35 148.35 -93.85 146.4 -96.3 144.45 -98.9 142.8 -101.5 141.15 -103.9 139.0 L-108.5 135.1 -112.75 131.35 -116.05 128.25 -120.35 124.0 -124.45 119.95 Q-126.45 118.0 -127.35 116.65 -128.2 115.35 -131.2 112.15 L-133.4 109.55 Q-134.85 107.0 -136.8 104.6 L-140.5 99.8 -144.05 94.9 Q-145.8 92.45 -146.4 91.0 -146.95 89.55 -148.1 88.6 -149.2 86.0 -150.9 83.4 -152.6 80.8 -153.9 78.05 L-156.4 72.65 -159.0 67.25 Q-160.35 64.5 -161.2 61.8 L-162.95 56.0 -164.7 50.15 -166.1 46.0 Q-166.65 44.55 -166.95 41.8 -167.9 39.05 -168.3 36.1 L-169.1 30.25 -169.9 24.2 -170.7 17.95 -171.25 12.2 -171.45 7.9 -171.55 0.25 -171.5 -5.8 -171.2 -11.7 -170.8 -17.7 -170.15 -23.6 -169.15 -29.55 Q-168.45 -32.5 -168.4 -34.0 L-167.45 -39.3 Q-166.85 -42.45 -165.95 -45.0 -165.0 -47.55 -164.2 -50.85 -163.35 -54.15 -162.3 -56.75 -161.2 -59.3 -160.45 -62.2 -159.65 -65.1 -158.45 -67.8 L-155.85 -73.05 Q-154.4 -75.6 -153.35 -78.45 L-150.7 -83.95 -147.55 -89.15 -144.45 -94.25 -141.0 -99.15 -137.4 -103.7 -133.75 -108.45 -129.8 -113.1 Q-127.75 -115.15 -125.9 -117.55 -124.05 -119.95 -122.85 -120.95 -121.6 -121.95 -120.35 -123.5 -117.75 -125.55 -115.95 -127.75 -114.1 -129.95 -111.75 -131.65 -109.35 -133.3 -107.3 -135.3 L-102.6 -139.2 -97.6 -142.85 -92.75 -146.1 -87.75 -149.2 -82.7 -152.4 Q-80.15 -153.9 -77.25 -155.2 -74.35 -156.5 -71.95 -158.05 -69.5 -159.6 -66.7 -160.95 L-61.05 -163.2 Q-58.25 -164.15 -55.4 -165.35 -52.55 -166.55 -49.75 -167.0 -46.9 -167.45 -44.0 -168.45 L-38.25 -170.15 -32.2 -171.3 -26.35 -172.25 -20.5 -173.25 -14.15 -173.9 -8.15 -174.35 -3.65 -174.55 3.45 -174.75 9.6 -174.45 15.55 -174.35 21.1 -173.95 27.15 -173.35 33.0 -172.65 38.8 -171.55 44.85 -170.1 50.6 -168.65 56.35 -166.9 62.05 -165.0 Q64.85 -164.1 67.7 -162.8 70.55 -161.45 73.3 -160.5 L78.75 -158.2 84.2 -155.45 89.65 -152.6 94.8 -149.45 99.8 -146.1 104.65 -142.5 Q107.05 -140.55 109.5 -138.9 L114.25 -135.3 118.75 -131.35 122.1 -128.3 127.2 -123.5 Q129.75 -121.45 131.5 -119.25 L135.25 -114.8 139.1 -110.5 142.95 -105.75 146.7 -100.7 150.15 -95.85 153.65 -90.7 156.75 -85.45 159.45 -80.2 162.35 -74.85 164.9 -69.55 167.0 -63.8 168.45 -59.4 Q168.85 -58.15 169.8 -55.95 173.1 -56.9 174.35 -57.55 175.6 -58.15 181.2 -59.75 L179.05 -65.45 176.8 -70.8 174.75 -76.5 Q173.75 -79.6 172.25 -81.9 170.75 -84.2 169.35 -87.2 168.0 -90.15 166.45 -92.55 L163.4 -97.5 Q161.95 -100.05 159.95 -102.4 158.0 -104.7 156.4 -107.3 L152.95 -112.25 149.2 -116.9 145.2 -121.5 141.15 -126.0 138.05 -129.1 Q136.9 -129.95 135.65 -131.95 L131.5 -136.15 126.95 -139.9 122.65 -143.9 Q120.55 -146.15 118.1 -147.9 L113.2 -151.5 108.3 -155.1 103.35 -158.4 Q100.9 -160.0 98.45 -161.25 96.05 -162.45 93.35 -164.1 L87.95 -167.3 Q85.25 -168.85 82.65 -169.7 80.05 -170.55 77.25 -171.95 L71.65 -174.4 65.85 -176.55 60.2 -178.45 54.45 -180.05 Q51.35 -180.8 48.65 -181.7 L42.8 -183.05 37.05 -184.0 31.35 -184.75 25.05 -185.45 19.1 -186.2 13.3 -186.7 8.55 -186.95 3.45 -186.75 -2.45 -186.65 -8.35 -186.35 -14.3 -185.95 -20.45 -185.6 -26.25 -184.8 -31.95 -183.65 -37.75 -182.35 -43.7 -180.95 -49.65 -179.45 -55.15 -177.8 -60.7 -175.9 -66.65 -173.55 -72.2 -171.35 Q-74.8 -170.45 -77.5 -169.05 L-82.75 -166.25 -87.95 -163.25 -93.1 -160.15 -98.0 -157.0 -102.9 -153.8 Q-105.4 -152.3 -107.75 -150.4 L-112.6 -146.45 -117.5 -142.35 -122.05 -138.4 -125.3 -135.55 -128.8 -131.95 -132.75 -127.75 Q-134.55 -125.45 -136.65 -123.45 L-140.75 -119.0 -144.75 -114.3 -148.45 -109.45 -151.85 -104.35 -154.95 -99.4 -158.1 -94.3 -161.4 -89.05 -164.25 -83.85 -166.8 -78.45 -169.25 -72.85 -171.5 -67.15 -173.5 -61.4 Q-174.35 -58.45 -175.3 -56.05 -176.2 -53.65 -176.8 -50.5 -177.4 -47.35 -177.9 -45.9 L-179.1 -42.0 Q-180.1 -39.2 -180.4 -36.2 -180.65 -33.15 -181.25 -30.2 L-182.35 -24.15 -182.8 -18.1 Q-182.75 -15.1 -183.05 -12.1 L-183.4 -6.05 -183.55 -1.45 -183.5 0.25 -183.25 6.5 -183.05 12.15 -182.95 18.1 Q-182.95 21.35 -182.15 24.35 -181.3 27.4 -181.25 30.45 -181.2 33.5 -180.5 36.4 L-179.4 40.7 -178.6 44.65 -177.15 50.25 -175.45 56.05 -173.45 61.85 -171.3 67.6 -169.25 73.15 -166.9 78.9 -164.25 84.3 -161.2 89.5 -157.95 94.95 -155.05 99.95 -151.95 104.7 -148.5 109.65 -145.85 113.4 -142.75 117.0 Q-142.75 116.65 -140.4 119.8 L-136.3 124.25 -133.25 127.75 -128.8 132.45 Q-126.7 134.85 -124.3 136.75 L-119.85 140.4 Q-117.75 142.15 -115.3 144.45 L-110.85 148.4 -106.15 152.15 -101.25 155.8 -96.3 158.9 -91.05 162.25 Q-88.45 164.05 -85.65 165.35 -82.85 166.65 -80.25 168.15 -77.65 169.7 -75.05 170.95 -72.45 172.25 -69.7 173.2 L-64.05 175.05 -58.15 177.1 -52.55 179.15 -48.35 180.4 -41.65 182.15 -35.8 183.3 Q-32.75 183.65 -29.9 184.45 L-23.65 185.6 -17.3 186.15 -11.55 186.6 -5.65 186.8 -1.1 187.0 3.45 187.25 9.2 187.1 15.0 186.8 21.0 186.55 27.0 186.2 33.1 185.25 39.0 183.85 44.9 182.5 50.7 181.3 56.45 179.8 62.4 178.1 68.1 176.4 Q70.85 175.55 73.45 174.25 76.1 172.95 78.9 171.75 L84.65 169.25 Q87.65 168.0 90.05 166.6 L94.9 163.85 Q97.3 162.45 100.1 160.95 102.95 159.45 105.2 157.45 107.5 155.45 110.0 153.8 L114.85 150.1 Q117.2 148.05 119.9 146.3 122.65 144.6 124.65 142.6 L129.05 138.55 132.5 135.35 135.65 132.45 139.55 128.1 143.7 123.9 147.65 119.5 151.5 114.65 155.35 109.85 Q157.3 107.45 158.8 104.75 160.35 102.05 161.95 99.85 L165.35 95.2 Q167.1 92.75 168.3 89.95 L170.75 84.45 173.5 79.0 176.25 73.55 Q177.5 70.75 177.7 69.3 177.9 67.85 178.3 68.15 179.85 65.3 180.55 62.35 181.3 59.45 181.8 58.1 L182.95 54.5 177.5 52.8 171.8 51.0 165.85 49.35 160.15 47.6 154.4 45.9 148.55 44.4 Q145.55 43.7 142.95 42.7 140.4 41.7 137.15 40.9 L131.2 39.35 Q128.45 38.6 125.75 37.5 L120.2 35.4 115.9 34.15 112.1 33.15 113.25 28.65 Q113.6 27.15 113.7 27.1 L114.8 20.95 115.8 15.15 116.55 9.2 Q116.9 6.25 116.75 4.8 L116.65 0.25 Q116.25 -2.85 116.25 -5.55 L116.05 -11.65 Q115.85 -15.05 115.2 -17.85 114.55 -20.65 114.5 -22.1 L113.95 -25.35 Q113.15 -28.3 113.0 -29.65 112.85 -31.0 111.7 -33.95 L109.9 -39.45 Q109.1 -42.4 107.65 -45.15 L104.7 -50.65 101.95 -55.95 98.75 -61.1 95.25 -65.9 91.8 -70.45 87.85 -75.0 84.85 -78.25 83.5 -79.8 78.7 -84.0 74.55 -88.0 Q72.6 -90.05 70.1 -91.55 L65.0 -94.75 59.9 -97.95 54.75 -101.0 Q52.05 -102.6 49.4 -103.6 L43.9 -105.5 38.1 -107.5 32.3 -109.15 26.6 -110.5 20.75 -111.75 14.95 -112.45 10.55 -112.8 3.45 -112.95 -2.35 -112.8 -8.25 -112.3 -14.3 -111.45 -20.05 -110.3 -25.85 -109.15 -31.6 -107.6 Q-34.35 -106.7 -37.25 -105.45 L-42.7 -103.15 -48.05 -100.7 -53.45 -98.05 Q-56.05 -96.75 -58.6 -95.0 L-63.45 -91.3 -68.3 -87.65 Q-70.8 -85.9 -71.8 -84.5 -72.8 -83.1 -76.6 -79.8 L-80.9 -75.45 -84.8 -71.05 -88.4 -66.4 -91.8 -61.15 Q-93.35 -58.4 -94.85 -56.15 -96.3 -53.9 -97.6 -51.05 -98.85 -48.15 -100.35 -45.55 L-103.0 -39.9 -104.85 -34.1 -105.8 -29.75 Q-106.05 -28.25 -107.05 -25.35 L-108.25 -19.4 Q-108.8 -16.05 -108.85 -13.45 -108.85 -10.85 -109.2 -7.6 L-109.7 -2.6 -109.7 0.25 Q-109.35 3.4 -109.45 6.55 -109.5 9.75 -109.1 12.55 L-108.15 18.25 -107.5 22.75 -106.75 27.1 -105.15 32.8 -103.45 38.6 Q-102.55 41.65 -101.25 44.35 L-98.8 49.7 -96.75 54.0 -94.55 57.4 Q-91.95 55.45 -89.35 54.3 L-85.2 52.4 Q-83.65 51.65 -84.15 51.35 L-86.75 46.05 -89.3 40.75 -91.85 35.2 -93.45 31.0 -95.05 24.3 -96.2 18.5 -96.95 12.35 -97.4 6.2 -97.75 1.6 Q-97.95 0.2 -97.7 0.25 -97.95 -2.85 -97.7 -5.55 L-97.0 -11.6 Q-96.55 -15.0 -96.6 -16.35 -96.6 -17.7 -95.35 -22.6 -95.0 -25.35 -94.0 -28.35 L-92.0 -34.15 -89.95 -39.8 Q-88.9 -42.6 -87.45 -45.2 L-84.3 -50.4 -81.05 -55.45 -77.6 -60.1 -73.65 -64.55 Q-71.55 -66.75 -70.8 -67.95 L-68.1 -71.3 -63.5 -75.5 -58.85 -79.5 -54.2 -82.85 Q-51.9 -84.3 -49.3 -86.25 L-44.3 -89.4 -38.9 -91.85 -33.4 -94.2 -27.85 -96.25 -22.05 -97.7 -16.0 -98.9 -10.0 -99.95 -4.0 -100.65 0.7 -100.95 3.45 -100.95 9.55 -100.75 15.45 -100.45 Q18.65 -100.3 21.25 -99.45 23.9 -98.6 26.85 -98.1 L32.75 -96.7 38.4 -94.7 44.1 -92.45 49.5 -90.15 54.95 -87.3 60.35 -84.0 65.1 -80.5 69.4 -76.35 72.65 -73.2 75.0 -71.3 79.2 -66.9 83.1 -62.6 Q85.1 -60.45 86.75 -57.8 L90.0 -52.55 92.95 -47.25 95.45 -41.75 Q96.5 -39.0 97.95 -36.55 99.4 -34.05 99.75 -32.5 L100.25 -30.3 101.45 -26.0 102.25 -22.6 103.25 -16.7 104.25 -10.45 Q104.8 -7.55 104.7 -6.05 104.6 -4.55 104.65 0.25 104.85 3.4 104.45 6.6 L103.85 12.55 103.55 16.8 Q103.5 18.3 102.0 24.3 102.5 24.2 100.6 29.65 L99.4 34.25 98.1 37.0 Q97.0 40.25 95.8 42.7 L93.0 47.8 89.9 53.0 86.6 57.85 82.95 62.6 79.1 67.1 76.1 70.4 75.0 71.8 Q72.75 73.75 70.55 76.05 L66.15 80.1 61.4 83.55 57.6 86.05 Q56.45 86.95 52.0 89.35 L55.15 94.7 58.05 100.1 Q59.5 102.85 60.55 105.4 61.65 107.95 63.3 110.5 65.0 113.05 66.3 115.95 L68.6 120.2 70.85 124.0 65.45 126.65 60.0 129.15 54.5 131.6 Q51.8 132.85 49.0 133.55 L43.35 135.15 37.55 136.7 31.55 137.9 25.45 138.65 19.4 139.2 13.3 139.9 8.9 140.35 3.45 140.5 -2.7 140.25 -8.7 139.8 -14.85 139.45 -20.6 138.55 -24.85 137.8 -30.4 136.75 -31.95 142.55 -33.35 148.3 -34.6 154.05 -36.0 160.05 Q-36.65 163.15 -37.2 164.35 -37.7 165.55 -38.8 170.55" fill="none" stroke="#483e32" stroke-linecap="round" stroke-linejoin="round" stroke-width="1.0"/>
    <path d="M-42.1 172.25 L-41.75 170.8 -41.4 169.9 -41.25 169.65 -39.55 169.75 -38.95 170.7 Q-38.75 172.1 -39.1 173.6 L-39.35 174.65 -39.5 175.65 -39.85 175.95 -40.05 176.1 -40.25 176.2 -40.45 176.3 -40.65 176.3 -41.45 176.1 -42.1 175.6 Q-42.8 174.8 -42.5 173.8 L-42.1 172.25" fill="#483e32" fill-rule="evenodd" stroke="none"/>
    <path d="M-42.3 170.7 L-42.1 170.65 -42.3 171.75 -43.0 174.25 -43.3 175.1 Q-43.4 175.4 -43.65 175.2 L-43.45 174.0 -42.95 172.55 -42.3 170.7" fill="#483e32" fill-rule="evenodd" stroke="none"/>
    <path d="M62.75 104.75 L62.7 105.15 62.5 105.4 62.3 105.5 62.15 105.6 61.95 105.75 61.75 105.9 61.55 105.9 61.4 105.9 61.2 105.9 61.0 105.9 60.85 105.8 60.65 105.65 60.65 105.35 60.8 105.15 61.0 105.15 61.2 105.15 61.4 105.15 61.55 105.05 61.75 104.95 61.95 104.9 62.1 104.7 62.35 104.5 62.5 104.45 62.6 104.55 62.65 104.6 62.7 104.75 62.75 104.75" fill="#483e32" fill-rule="evenodd" stroke="none"/>
    <path d="M64.7 105.65 L64.5 105.85 64.35 105.85 64.15 106.0 63.95 106.4 63.75 106.6 63.6 106.6 63.35 106.75 63.2 106.85 63.0 106.8 62.95 106.75 62.95 106.35 63.3 105.95 63.7 105.6 64.1 105.25 64.25 105.2 64.45 105.2 64.6 105.3 64.7 105.5 64.7 105.65" fill="#483e32" fill-rule="evenodd" stroke="none"/>
    <path d="M-4.75 177.8 L-4.8 181.65 -5.0 181.8 -5.2 181.8 -5.25 181.75 -5.3 177.6 -5.1 177.5 -4.95 177.5 -4.85 177.6 -4.8 177.8 -4.75 177.8" fill="#483e32" fill-rule="evenodd" stroke="none"/>
    <path d="M-6.2 178.05 L-6.25 178.9 -6.4 179.25 -6.4 179.8 -6.5 180.15 -6.65 181.05 -6.8 181.3 -6.95 181.4 -7.15 181.45 -7.3 181.45 -7.5 181.4 -7.65 181.35 -7.65 181.3 -7.75 181.05 -7.65 180.7 -7.5 180.3 -7.35 179.9 -7.25 179.65 -7.15 179.1 -7.0 178.85 -6.9 177.85 -6.7 177.65 -6.5 177.7 -6.3 177.8 -6.25 178.05 -6.2 178.05" fill="#483e32" fill-rule="evenodd" stroke="none"/>
    <path d="M29.2 -105.4 L29.35 -105.4 Q29.55 -105.35 29.7 -105.25 L29.7 -105.2 29.75 -105.05 29.75 -104.9 29.55 -104.75 29.45 -104.65 29.4 -104.6 29.25 -103.9 29.05 -103.55 28.85 -103.2 28.7 -103.05 28.5 -102.9 28.3 -103.0 28.1 -103.15 28.1 -103.7 28.3 -103.9 28.45 -104.05 28.45 -104.1 28.6 -104.7 28.85 -105.05 29.2 -105.4" fill="#483e32" fill-rule="evenodd" stroke="none"/>
    <path d="M27.25 -105.05 L27.3 -103.3 27.25 -101.65 27.05 -101.45 26.9 -101.45 26.7 -101.55 26.55 -101.8 26.55 -103.3 26.6 -105.05 26.75 -105.4 26.95 -105.55 27.1 -105.4 27.25 -105.05" fill="#483e32" fill-rule="evenodd" stroke="none"/>
    <path d="M165.6 -67.65 L165.45 -67.65 165.25 -67.8 165.15 -67.85 165.05 -68.1 165.2 -68.4 165.35 -68.5 165.55 -68.6 166.15 -68.75 166.85 -69.15 167.45 -69.45 167.6 -69.55 167.8 -69.5 168.0 -69.45 168.1 -69.35 168.15 -69.1 168.2 -69.1 168.05 -68.8 167.7 -68.6 167.1 -68.3 166.55 -68.05 166.35 -67.8 166.15 -67.65 166.0 -67.6 165.8 -67.6 165.6 -67.65" fill="#483e32" fill-rule="evenodd" stroke="none"/>
    <path d="M170.25 -67.45 L170.05 -67.3 169.9 -67.2 169.7 -67.05 169.5 -66.95 169.3 -66.9 169.1 -66.7 168.9 -66.55 168.75 -66.45 168.55 -66.5 168.4 -66.55 168.35 -66.7 168.45 -67.05 168.8 -67.4 169.2 -67.7 169.55 -67.9 169.75 -67.95 169.95 -67.95 170.1 -67.9 170.2 -67.75 170.25 -67.6 170.25 -67.45" fill="#483e32" fill-rule="evenodd" stroke="none"/>
    <path d="M166.9 82.5 L167.0 82.6 167.05 82.8 167.05 82.9 166.85 83.05 166.7 83.15 166.35 83.05 165.95 82.7 165.55 82.35 165.2 82.15 164.8 81.8 164.45 81.4 164.3 81.05 164.1 80.85 163.95 80.55 163.95 80.4 164.1 80.5 164.3 80.65 164.5 80.8 164.7 80.85 164.85 80.9 165.25 81.25 165.6 81.5 165.8 81.6 166.0 81.8 166.35 82.15 166.55 82.35 166.75 82.4 166.9 82.5" fill="#483e32" fill-rule="evenodd" stroke="none"/>
    <path d="M160.85 80.15 L161.05 80.2 161.25 80.2 161.4 80.2 161.6 80.35 161.8 80.4 162.0 80.45 162.2 80.6 162.35 80.7 162.55 80.85 162.75 80.9 162.95 81.1 163.1 81.3 163.3 81.45 163.5 81.8 163.7 81.9 163.85 82.0 164.05 82.1 164.25 82.3 164.3 82.55 164.3 82.65 164.1 82.8 163.95 82.9 163.75 82.85 163.55 82.75 163.35 82.65 162.45 81.8 161.7 81.15 161.1 80.85 160.9 80.6 160.75 80.4 160.65 80.15 160.85 80.15" fill="#483e32" fill-rule="evenodd" stroke="none"/>
    <path d="M162.75 84.05 L162.95 84.1 163.1 84.15 163.25 84.3 163.3 84.35 163.3 84.55 163.3 84.65 163.1 84.8 162.95 84.9 162.75 84.85 162.55 84.8 162.35 84.7 162.2 84.65 162.0 84.55 161.8 84.3 161.6 84.15 161.4 84.05 161.3 83.8 161.4 83.55 161.6 83.55 161.8 83.65 162.0 83.8 162.2 83.9 162.35 83.9 162.55 83.95 162.75 84.05" fill="#483e32" fill-rule="evenodd" stroke="none"/>
    <path d="M102.9 42.5 L104.65 36.9 106.45 31.15 108.2 25.4 Q109.1 22.5 109.4 19.55 L110.15 13.6 110.95 7.65 111.5 3.35 Q111.7 2.0 111.35 -0.15 L111.1 -6.4 110.45 -12.4 109.85 -18.1 109.0 -23.75 107.75 -29.55 Q107.05 -32.4 105.95 -35.25 L103.85 -41.0 Q102.85 -43.85 101.5 -46.4 L98.6 -51.8 95.35 -57.15 92.2 -61.85 88.85 -66.35 84.6 -71.1 81.35 -74.7 79.9 -76.1 Q77.45 -77.7 75.6 -79.8 L71.3 -84.1 Q68.85 -86.35 66.25 -88.05 63.65 -89.75 61.3 -91.05 L56.45 -93.8 51.2 -96.7 Q48.5 -98.15 45.5 -99.3 L39.9 -101.5 34.5 -103.3 28.75 -104.6 22.9 -105.8 17.0 -106.6 11.3 -107.15 6.8 -107.6 3.95 -107.55 -1.9 -107.1 -7.85 -106.55 -14.1 -106.0 -19.9 -105.05 -25.3 -103.8 -31.0 -102.15 -37.0 -100.0 -42.55 -97.45 -47.8 -94.5 -52.9 -91.35 -57.75 -87.95 -62.2 -84.4 -66.95 -80.9 Q-69.6 -79.05 -70.55 -77.85 L-71.95 -76.1 -76.2 -71.75 -79.95 -66.95 Q-81.75 -64.5 -83.65 -62.2 L-87.3 -57.4 -89.75 -53.6 -91.2 -50.5 M55.4 94.45 Q58.3 93.4 60.7 91.45 63.1 89.5 65.65 87.75 L70.45 84.15 74.65 80.35 77.95 77.55 79.9 75.8 83.85 71.5 87.75 66.75 90.5 63.25 93.2 59.95 M97.65 52.95 Q97.35 52.95 99.0 50.5 M-94.8 -43.05 L-96.3 -38.7 Q-96.6 -37.2 -98.3 -33.85 M-101.6 -20.5 Q-101.65 -17.35 -102.35 -14.2 -103.0 -11.0 -103.05 -8.1 L-103.25 -3.75 -103.4 -0.15 -103.25 5.8 -102.75 11.65 -101.95 17.6 -100.9 23.45 -99.5 29.55 -97.75 35.2 -95.65 40.45 -93.2 46.15 -91.2 50.45 -89.0 54.1" fill="none" stroke="#483e32" stroke-linecap="round" stroke-linejoin="round" stroke-width="1.0"/>
    <path d="M111.4 87.05 L106.85 83.5 101.85 79.55 Q99.3 77.5 97.25 75.45 95.2 73.4 92.75 71.6 L89.1 68.95 87.85 67.9 M143.45 113.05 L139.05 109.1 134.25 105.3 Q131.75 103.55 129.65 101.45 127.55 99.4 126.15 98.65 L124.4 97.6" fill="none" stroke="#483e32" stroke-linecap="round" stroke-linejoin="round" stroke-width="1.0"/>
    <path d="M22.2 147.4 Q21.55 144.55 21.5 141.5 L21.2 136.7 20.45 133.05 M26.0 178.3 L25.25 172.5 24.8 167.7 Q24.75 166.15 24.3 164.45 M23.6 158.95 Q23.45 158.95 23.1 154.95" fill="none" stroke="#483e32" stroke-linecap="round" stroke-linejoin="round" stroke-width="1.0"/>
    <path d="M21.2 139.1 L15.5 139.45 11.05 139.8 3.95 140.0 -2.05 139.55 -7.95 139.55 -13.7 139.1 -19.65 138.1 -24.25 137.35 -29.9 136.25 -31.3 142.05 -32.85 147.85 -34.35 153.5 -35.7 159.3 -36.85 163.75 -38.3 170.05 -44.05 168.55 Q-43.65 168.4 -45.05 168.3 L-51.1 166.55 -56.65 164.5 Q-59.4 163.4 -62.1 162.65 -64.8 161.9 -67.5 160.45 -70.15 159.0 -72.85 157.65 L-78.15 154.95 Q-80.8 153.55 -83.1 151.95 -85.4 150.4 -88.2 148.85 L-93.5 145.6 -98.3 142.25 -103.15 138.7 -107.85 134.8 -112.5 130.75 -115.65 127.6 Q-116.4 126.5 -119.85 123.5 L-123.9 119.35 -126.95 116.3 -130.7 111.65 -132.9 109.05 -136.35 104.4 -139.9 99.6 -143.4 94.7 -146.15 90.9 Q-147.25 89.4 -147.6 88.1 L-150.55 82.9 -153.35 77.55 -156.0 72.05 -158.55 66.7 -160.65 61.3 -162.45 55.55 -164.2 49.9 -165.55 45.8 -166.45 41.3 -167.9 35.45 Q-168.65 32.55 -168.9 29.6 -169.15 26.7 -169.55 23.9 L-170.2 17.85 -170.65 11.75 -170.9 7.3 -171.05 -0.25 -170.85 -6.4 -170.4 -12.1 -170.1 -17.95 -169.7 -23.95 -169.0 -29.85 -168.1 -34.45 Q-167.65 -35.9 -166.95 -39.8 -166.65 -42.65 -165.85 -45.6 L-164.2 -51.5 -162.35 -57.2 -160.25 -62.55 -157.9 -68.0 -155.35 -73.65 -152.8 -79.15 -149.95 -84.4 -147.05 -89.35 Q-145.6 -91.65 -144.1 -94.45 L-140.8 -99.6 -137.15 -104.25 -133.2 -108.75 -129.15 -113.4 -125.4 -117.85 -122.6 -121.45 -119.85 -124.0 Q-118.1 -126.5 -115.75 -128.2 -113.4 -129.9 -111.0 -131.85 -108.6 -133.8 -106.35 -135.9 L-101.85 -139.75 -97.2 -143.25 -92.35 -146.8 -87.35 -150.1 -81.95 -153.2 Q-79.15 -154.65 -76.7 -156.05 L-71.55 -158.9 -66.1 -161.4 -60.55 -163.6 -54.75 -165.75 -48.8 -167.75 -43.05 -169.15 -37.25 -170.4 -31.5 -171.65 -25.9 -172.7 -19.95 -173.9 -13.95 -174.65 -7.9 -174.95 -3.5 -175.0 3.95 -175.25 Q7.15 -175.5 10.15 -175.2 L16.2 -174.85 22.1 -174.4 27.95 -173.75 33.8 -173.25 39.55 -172.4 45.4 -170.85 Q48.35 -169.9 51.05 -169.4 53.8 -168.85 56.8 -167.7 L62.75 -165.55 68.45 -163.55 74.0 -161.25 79.25 -158.65 84.4 -155.85 89.75 -153.2 Q92.4 -152.0 95.1 -150.15 L100.55 -146.5 105.35 -143.05 Q107.5 -141.35 110.15 -139.55 L114.9 -136.05 119.25 -131.95 Q121.5 -129.5 122.6 -128.9 123.75 -128.25 127.7 -124.0 L131.7 -119.75 135.95 -115.35 139.95 -110.7 143.65 -106.0 147.35 -101.2 150.5 -96.3 153.6 -91.15 Q155.2 -88.4 156.85 -86.0 L159.85 -80.95 162.6 -75.55 165.15 -70.1 Q166.35 -67.45 167.35 -64.15 L168.85 -59.65 170.3 -56.45 174.65 -58.2 181.7 -60.25 179.7 -65.8 177.65 -71.3 Q176.6 -74.1 175.0 -76.75 173.45 -79.4 172.35 -82.2 L169.95 -87.55 166.9 -92.95 163.6 -98.15 160.5 -103.1 157.0 -108.0 153.25 -112.6 149.85 -117.2 Q148.3 -119.6 146.15 -122.0 L141.95 -126.5 138.85 -129.65 136.15 -132.45 132.0 -136.25 127.5 -140.4 123.15 -144.65 118.5 -148.45 113.65 -151.95 108.8 -155.4 103.75 -158.65 98.7 -161.95 Q96.3 -163.55 93.6 -164.85 L88.3 -167.35 Q85.75 -168.5 83.05 -170.15 80.4 -171.8 77.5 -173.05 74.6 -174.3 71.85 -175.15 L66.35 -176.85 Q63.65 -177.65 60.8 -178.9 58.0 -180.1 55.05 -180.75 L49.2 -182.2 43.45 -183.35 37.55 -184.25 31.85 -185.2 25.85 -186.05 19.7 -186.7 13.65 -187.1 9.15 -187.2 3.95 -187.25 -2.05 -187.2 -7.95 -186.95 -13.9 -186.4 -19.95 -185.8 -25.85 -185.15 -31.55 -184.15 -37.5 -182.75 -43.35 -181.45 -48.9 -180.2 -54.7 -178.5 -60.5 -176.55 Q-63.3 -175.7 -65.8 -174.3 -68.3 -172.9 -71.4 -172.0 -74.45 -171.1 -77.1 -169.75 L-82.5 -166.95 -87.8 -163.75 Q-90.35 -161.95 -92.75 -160.6 L-97.5 -157.8 -102.6 -154.5 Q-105.35 -152.65 -107.7 -150.6 L-112.3 -146.75 -117.2 -143.05 -121.9 -139.3 -124.9 -136.25 -128.3 -132.45 -132.55 -128.05 -136.6 -123.65 -140.6 -119.2 -144.4 -114.6 -147.85 -109.9 -151.35 -105.2 -154.65 -100.15 -157.85 -94.95 -160.85 -89.65 -163.85 -84.35 -166.4 -79.0 Q-167.45 -76.25 -168.65 -73.45 L-170.95 -67.8 -173.05 -62.25 -174.95 -56.75 -176.6 -50.7 -177.55 -46.1 Q-177.8 -44.75 -178.6 -42.5 L-179.95 -36.5 Q-180.65 -33.15 -180.8 -30.5 -180.9 -27.8 -181.3 -24.85 L-181.9 -18.75 -182.35 -12.55 -182.75 -6.7 -183.05 -2.25 -183.0 -0.25 Q-183.35 2.8 -182.95 5.85 -182.5 8.9 -182.45 11.95 L-182.15 17.95 -181.6 23.9 -180.85 29.95 -179.75 36.0 -178.95 40.3 -178.1 44.15 -176.35 49.85 Q-175.4 52.65 -174.95 55.75 -174.5 58.85 -173.25 61.7 L-170.95 67.25 -168.75 72.7 -166.25 78.25 -163.7 83.8 -161.05 89.0 -157.75 93.95 Q-155.95 96.45 -154.4 99.35 L-151.2 104.6 -148.05 109.3 -145.3 112.9 -142.25 116.5 -139.9 119.3 -135.85 123.75 -132.8 127.2 -128.3 131.95 -124.05 136.35 -119.75 140.5 -115.15 144.25 Q-112.6 146.0 -110.35 148.05 L-105.6 151.7 -100.7 154.95 -95.75 158.1 Q-93.1 159.6 -90.75 161.1 L-85.4 164.35 Q-82.45 166.1 -79.9 167.2 -77.3 168.35 -74.85 169.75 -72.35 171.2 -69.4 172.35 L-63.45 174.55 -57.8 176.6 -52.2 178.55 -46.45 180.25 -40.4 181.8 -34.5 183.1 -28.55 184.05 Q-25.35 184.4 -22.55 185.1 L-16.75 186.05 Q-13.7 186.3 -10.7 186.15 L-4.65 186.35 -0.1 186.75 3.95 186.75 9.9 186.6 15.8 186.4 21.6 185.85 27.75 185.3 33.8 184.65 39.5 183.65 45.45 182.35 51.1 180.9 56.85 179.25 62.95 177.55 68.7 175.9 Q71.35 175.05 74.1 173.8 L79.85 171.35 85.15 168.8 Q87.45 167.5 90.3 166.1 93.2 164.75 95.85 163.1 L100.85 160.0 105.7 156.8 110.75 153.55 115.5 149.95 120.2 146.05 125.1 142.0 129.8 138.1 Q132.1 136.45 133.3 135.0 L136.15 131.95 140.6 127.5 144.5 123.3 148.5 119.05 152.3 114.2 156.0 109.5 Q157.95 107.35 159.4 104.7 L162.5 99.55 165.65 94.5 168.55 89.25 171.25 83.8 173.75 78.4 176.35 73.25 Q177.8 70.75 178.25 69.25 L178.8 67.65 180.75 62.1 182.4 57.5 183.45 54.0 177.5 52.35 171.9 50.45 Q169.2 49.45 166.25 48.75 L160.55 47.2 154.95 45.7 Q152.15 45.1 149.25 43.9 146.4 42.7 143.3 41.95 L137.35 40.55 Q134.55 39.95 131.85 38.6 129.2 37.3 126.15 36.6 L120.45 35.0 116.45 33.6 112.6 32.65 113.9 28.4 114.2 26.6 115.3 20.75 116.25 15.05 117.0 8.95 Q117.35 5.7 117.2 4.45 117.1 3.2 117.15 -0.25 L116.9 -6.25 116.5 -12.35 115.8 -18.35 115.1 -22.8 114.45 -25.85 Q113.2 -28.75 113.1 -30.1 113.05 -31.45 112.2 -34.45 L110.25 -39.95 107.7 -45.5 105.1 -51.05 102.35 -56.55 Q100.85 -59.3 99.15 -61.6 L95.85 -66.35 92.35 -71.15 88.6 -75.55 85.55 -78.65 Q84.35 -79.6 84.0 -80.3 L79.7 -84.35 75.15 -88.3 70.25 -92.2 65.2 -95.85 60.4 -98.85 55.35 -101.45 50.0 -103.95 44.45 -106.3 38.6 -108.3 32.8 -110.0 27.15 -111.3 21.35 -112.2 15.3 -112.85 10.75 -113.05 3.95 -113.45 -2.0 -113.5 -7.9 -113.15 -14.0 -112.4 -19.8 -111.25 -25.45 -109.55 -31.25 -107.7 -36.7 -105.9 -42.25 -103.75 -47.75 -101.2 -52.95 -98.35 -58.1 -95.15 -63.25 -91.75 -68.0 -88.05 -71.15 -84.75 Q-72.15 -83.5 -76.1 -80.3 L-80.2 -75.9 -83.9 -71.35 -87.65 -66.6 -91.15 -61.6 -94.25 -56.8 Q-95.9 -54.35 -97.15 -51.55 L-99.75 -45.9 -102.1 -40.2 -104.05 -34.55 -105.6 -30.25 Q-106.2 -28.75 -106.55 -25.85 L-107.65 -19.8 -108.45 -14.0 -109.15 -7.9 Q-109.55 -4.9 -109.25 -3.35 -108.9 -1.75 -109.2 -0.25 L-108.9 5.5 -108.4 11.7 Q-108.1 14.75 -107.95 17.75 L-107.4 22.25 -106.25 26.6 -104.85 32.4 Q-104.2 35.5 -103.15 38.0 -102.1 40.5 -101.0 43.7 -99.9 46.95 -98.25 49.5 -96.55 52.1 -96.2 53.2 -95.85 54.35 -94.05 56.9 L-88.8 53.95 -84.85 51.9 Q-83.5 51.05 -83.65 50.85 L-86.4 45.75 -88.85 40.5 -91.2 34.9 Q-92.3 32.2 -92.5 30.65 -92.7 29.15 -94.55 23.8 -94.85 21.2 -95.6 18.2 -96.3 15.2 -96.55 11.95 L-97.15 5.7 Q-97.5 2.7 -97.3 1.25 -97.05 -0.15 -97.2 -0.25 L-96.9 -6.45 -96.35 -12.25 Q-96.05 -15.2 -96.1 -16.7 -96.15 -18.15 -94.85 -23.1 L-93.25 -28.9 -91.55 -34.6 -89.4 -40.05 -86.65 -45.5 -83.8 -50.8 -80.7 -55.8 -77.2 -60.7 -73.25 -65.35 -70.3 -68.55 -67.6 -71.8 -63.3 -75.95 Q-61.2 -78.05 -58.7 -79.85 L-53.9 -83.15 Q-51.55 -84.65 -48.85 -86.5 L-43.6 -89.95 Q-41.0 -91.55 -38.45 -92.65 -35.9 -93.7 -32.9 -94.9 L-27.2 -97.1 -21.5 -98.8 -15.75 -99.95 -9.85 -100.65 -3.6 -101.3 0.95 -101.6 3.95 -101.45 10.2 -101.1 16.1 -100.65 21.95 -100.15 27.7 -99.05 33.35 -97.3 39.1 -95.3 44.7 -93.05 50.25 -90.7 Q53.0 -89.5 55.7 -87.7 L60.85 -84.25 65.55 -80.9 70.0 -77.25 73.15 -74.15 75.5 -71.8 79.65 -67.45 83.5 -62.85 87.15 -58.15 90.55 -53.35 93.65 -48.3 96.3 -42.85 98.7 -37.2 Q100.0 -34.25 100.15 -32.8 100.3 -31.3 100.75 -30.8 101.35 -28.15 101.95 -26.6 102.6 -25.05 102.75 -23.1 L103.8 -17.15 104.55 -11.1 104.95 -6.5 105.15 -0.25 104.85 5.75 104.4 11.65 103.95 16.15 102.5 23.8 101.1 29.15 99.65 33.3 98.6 36.5 96.05 42.05 93.4 47.65 Q92.0 50.45 90.3 52.65 L87.2 57.15 83.7 62.0 79.6 66.8 76.75 70.05 75.5 71.3 71.25 75.35 Q69.2 77.25 66.65 78.95 L61.4 82.75 57.5 85.6 52.5 88.85 55.35 94.1 58.3 99.5 61.15 104.55 64.1 109.75 67.05 115.2 69.15 119.15 71.35 123.5" fill="none" stroke="#483e32" stroke-linecap="round" stroke-linejoin="round" stroke-width="1.0"/>
  </g>
  <defs>
    <radialGradient cx="0" cy="0" gradientTransform="matrix(0.1773, 0.1428, -0.1428, 0.1773, 3.95, -0.25)" gradientUnits="userSpaceOnUse" id="gradient0" r="819.2" spreadMethod="pad">
      <stop offset="0.0" stop-color="#97afb1"/>
      <stop offset="1.0" stop-color="#d8e0d9"/>
    </radialGradient>
  </defs>
</svg>
