<?xml version="1.0" encoding="UTF-8" standalone="no"?>
<svg xmlns:xlink="http://www.w3.org/1999/xlink" height="160.1px" width="183.25px" xmlns="http://www.w3.org/2000/svg">
  <g transform="matrix(1.0, 0.0, 0.0, 1.0, 0.0, -0.35)">
    <path d="M170.9 22.85 L171.6 24.1 Q176.95 33.9 180.0 45.5 189.65 82.05 170.65 114.8 158.95 134.9 140.65 146.25 137.65 148.2 134.45 149.85 125.45 154.45 115.05 157.2 104.05 160.1 93.45 160.4 L81.4 160.0 Q63.05 157.9 45.7 147.85 12.9 128.8 3.25 92.25 -1.95 72.6 1.15 54.1 L1.35 53.05 Q3.45 41.3 8.9 30.05 L11.7 24.75 12.7 22.95 Q14.85 19.2 17.2 15.8 L18.25 14.3 Q21.55 9.8 25.3 5.85 L27.55 3.5 33.95 10.25 33.45 10.75 Q29.25 15.0 25.65 19.95 L24.8 21.25 Q22.65 24.25 20.75 27.6 L18.8 31.1 17.75 33.15 Q9.6 49.65 9.45 67.2 L37.0 67.2 Q37.2 53.55 44.65 40.85 L47.35 36.55 47.95 35.65 Q50.55 32.15 53.55 29.15 L62.85 39.35 79.85 56.45 79.9 56.45 Q81.05 55.2 82.45 54.35 L83.65 53.65 Q85.05 52.95 86.65 52.5 L87.0 52.35 87.05 52.25 87.1 52.3 87.25 52.25 87.5 52.2 91.25 51.7 93.45 51.8 Q96.15 52.1 98.75 53.35 L99.05 53.5 99.15 53.5 99.2 53.6 99.45 53.7 100.1 54.0 Q105.35 57.1 107.35 62.7 L107.7 63.8 107.8 64.15 107.8 64.25 107.85 64.4 Q109.5 70.85 106.45 76.65 L106.4 76.7 106.15 77.05 105.35 78.35 105.15 78.65 104.2 79.85 Q102.2 82.05 99.6 83.45 97.9 84.35 95.9 84.85 L95.7 84.9 92.1 85.5 Q89.05 85.6 86.25 84.6 L83.65 83.5 36.5 129.75 Q42.75 135.35 50.35 139.75 65.95 148.85 82.45 150.7 L93.2 151.05 Q102.7 150.8 112.65 148.15 122.0 145.7 130.0 141.55 L135.65 138.4 Q152.05 128.1 162.55 110.1 165.95 104.3 168.3 98.35 177.35 75.7 171.75 51.05 L171.55 50.35 170.95 47.9 Q168.3 37.85 163.7 29.25 L162.85 27.7 Q156.55 16.55 146.95 8.0 L146.55 7.65 146.6 7.6 152.4 0.35 153.75 1.55 Q164.05 10.8 170.9 22.85" fill="#cccccc" fill-rule="evenodd" stroke="none"/>
  </g>
</svg>
