<?xml version="1.0" encoding="UTF-8" standalone="no"?>
<svg xmlns:xlink="http://www.w3.org/1999/xlink" height="108.5px" width="108.5px" xmlns="http://www.w3.org/2000/svg">
  <g transform="matrix(1.0, 0.0, 0.0, 1.0, 54.25, 54.25)">
    <path d="M38.15 -38.2 Q54.0 -22.35 54.0 0.0 54.0 22.35 38.15 38.15 22.35 54.0 0.0 54.0 -22.35 54.0 -38.2 38.15 -54.0 22.35 -54.0 0.0 -54.0 -22.35 -38.2 -38.2 -22.35 -54.0 0.0 -54.0 22.35 -54.0 38.15 -38.2" fill="url(#gradient0)" fill-rule="evenodd" stroke="none"/>
    <path d="M3.15 -54.1 L3.35 -54.15 3.5 -54.1 3.6 -53.9 3.5 -53.75 3.35 -53.65 Q3.25 -53.65 3.15 -53.75 L3.1 -53.9 3.15 -54.1 M0.25 -54.0 L0.15 -53.85 0.0 -53.75 -0.2 -53.85 -0.25 -54.0 -0.2 -54.2 0.0 -54.25 0.15 -54.2 0.25 -54.0 M10.1 -53.3 L10.3 -53.35 10.45 -53.3 10.55 -53.1 10.45 -52.95 10.3 -52.85 10.1 -52.95 10.05 -53.1 10.1 -53.3 M6.65 -53.8 L6.85 -53.85 7.0 -53.8 7.1 -53.6 7.0 -53.45 6.85 -53.35 Q6.75 -53.35 6.65 -53.45 L6.6 -53.6 6.65 -53.8 M13.75 -52.1 Q13.65 -52.1 13.55 -52.2 L13.5 -52.35 13.55 -52.55 13.75 -52.6 13.9 -52.55 14.0 -52.35 13.9 -52.2 13.75 -52.1 M16.9 -51.55 L17.1 -51.6 17.25 -51.55 17.35 -51.35 17.25 -51.2 17.1 -51.1 16.9 -51.2 16.85 -51.35 16.9 -51.55 M20.1 -50.15 L20.15 -50.35 20.35 -50.4 20.5 -50.35 20.6 -50.15 20.5 -50.0 20.35 -49.9 Q20.25 -49.9 20.15 -50.0 L20.1 -50.15 M32.35 -43.55 L32.5 -43.5 32.6 -43.3 32.5 -43.15 32.35 -43.05 Q32.25 -43.05 32.15 -43.15 L32.1 -43.3 32.15 -43.5 32.35 -43.55 M35.15 -41.3 L35.25 -41.1 35.15 -40.95 35.0 -40.85 34.8 -40.95 34.75 -41.1 34.8 -41.3 35.0 -41.35 35.15 -41.3 M37.7 -39.0 L37.8 -38.8 37.7 -38.65 37.55 -38.55 Q37.45 -38.55 37.35 -38.65 L37.3 -38.8 37.35 -39.0 37.55 -39.05 37.7 -39.0 M26.35 -47.3 L26.55 -47.35 26.7 -47.3 26.8 -47.1 26.7 -46.95 26.55 -46.85 Q26.45 -46.85 26.35 -46.95 L26.3 -47.1 26.35 -47.3 M29.3 -45.5 L29.5 -45.55 29.65 -45.5 29.75 -45.3 29.65 -45.15 29.5 -45.05 29.3 -45.15 29.25 -45.3 29.3 -45.5 M23.3 -48.95 L23.5 -49.0 23.65 -48.95 23.75 -48.75 23.65 -48.6 23.5 -48.5 23.3 -48.6 23.25 -48.75 23.3 -48.95 M39.7 -36.6 L39.9 -36.65 40.05 -36.6 40.15 -36.4 40.05 -36.25 39.9 -36.15 39.7 -36.25 39.65 -36.4 39.7 -36.6 M42.25 -34.05 L42.35 -33.85 42.25 -33.7 42.1 -33.6 41.9 -33.7 41.85 -33.85 41.9 -34.05 42.1 -34.1 42.25 -34.05 M44.4 -31.25 L44.5 -31.05 44.4 -30.9 44.25 -30.8 Q44.15 -30.8 44.05 -30.9 L44.0 -31.05 44.05 -31.25 44.25 -31.3 44.4 -31.25 M46.0 -28.4 L46.2 -28.45 46.35 -28.4 46.45 -28.2 46.35 -28.05 46.2 -27.95 46.0 -28.05 45.95 -28.2 46.0 -28.4 M48.05 -25.45 L48.15 -25.25 48.05 -25.1 47.9 -25.0 47.7 -25.1 47.65 -25.25 47.7 -25.45 47.9 -25.5 48.05 -25.45 M50.95 -18.95 L50.85 -18.8 50.7 -18.7 50.5 -18.8 50.45 -18.95 50.5 -19.15 50.7 -19.2 50.85 -19.15 50.95 -18.95 M51.6 -15.9 L51.8 -15.95 51.95 -15.9 52.05 -15.7 51.95 -15.55 51.8 -15.45 51.6 -15.55 51.55 -15.7 51.6 -15.9 M52.7 -12.6 L52.85 -12.55 52.95 -12.35 52.85 -12.2 52.7 -12.1 52.5 -12.2 52.45 -12.35 52.5 -12.55 52.7 -12.6 M49.2 -22.4 L49.4 -22.45 49.55 -22.4 49.65 -22.2 49.55 -22.05 49.4 -21.95 49.2 -22.05 49.15 -22.2 49.2 -22.4 M53.1 -9.0 L53.15 -9.2 53.35 -9.25 53.5 -9.2 53.6 -9.0 53.5 -8.85 53.35 -8.75 Q53.25 -8.75 53.15 -8.85 L53.1 -9.0 M53.55 -5.75 L53.75 -5.8 53.9 -5.75 54.0 -5.55 53.9 -5.4 53.75 -5.3 Q53.65 -5.3 53.55 -5.4 L53.5 -5.55 53.55 -5.75 M53.75 -2.3 L53.95 -2.35 54.1 -2.3 54.2 -2.1 54.1 -1.95 53.95 -1.85 Q53.85 -1.85 53.75 -1.95 L53.7 -2.1 53.75 -2.3 M53.8 1.25 L54.0 1.2 54.15 1.25 54.25 1.45 54.15 1.6 54.0 1.7 53.8 1.6 53.75 1.45 53.8 1.25 M53.95 4.75 L54.05 4.95 53.95 5.1 53.8 5.2 53.6 5.1 53.55 4.95 53.6 4.75 53.8 4.7 53.95 4.75 M53.65 8.4 L53.55 8.55 53.4 8.65 53.2 8.55 53.15 8.4 53.2 8.2 53.4 8.15 53.55 8.2 53.65 8.4 M52.55 11.75 L52.75 11.7 52.9 11.75 53.0 11.95 52.9 12.1 52.75 12.2 52.55 12.1 52.5 11.95 52.55 11.75 M50.55 18.65 L50.6 18.45 50.8 18.4 50.95 18.45 51.05 18.65 50.95 18.8 50.8 18.9 50.6 18.8 50.55 18.65 M49.5 22.15 L49.3 22.05 49.25 21.9 49.3 21.7 49.5 21.65 49.65 21.7 49.75 21.9 49.65 22.05 49.5 22.15 M51.65 15.3 L51.7 15.1 51.9 15.05 52.05 15.1 52.15 15.3 52.05 15.45 51.9 15.55 51.7 15.45 51.65 15.3 M48.2 25.05 L48.1 25.2 47.95 25.3 47.75 25.2 47.7 25.05 47.75 24.85 47.95 24.8 48.1 24.85 48.2 25.05 M46.35 27.9 L46.45 28.1 46.35 28.25 46.2 28.35 46.0 28.25 45.95 28.1 46.0 27.9 46.2 27.85 46.35 27.9 M44.3 30.7 L44.45 30.75 44.55 30.95 44.45 31.1 44.3 31.2 44.1 31.1 44.05 30.95 44.1 30.75 44.3 30.7 M42.0 33.5 L42.2 33.45 42.35 33.5 42.45 33.7 42.35 33.85 42.2 33.95 42.0 33.85 41.95 33.7 42.0 33.5 M39.7 36.15 L39.9 36.1 40.05 36.15 40.15 36.35 40.05 36.5 39.9 36.6 39.7 36.5 39.65 36.35 39.7 36.15 M23.05 48.85 L23.15 49.05 23.05 49.2 22.9 49.3 22.7 49.2 22.65 49.05 22.7 48.85 22.9 48.8 23.05 48.85 M28.85 45.4 L29.05 45.35 29.2 45.4 29.3 45.6 29.2 45.75 29.05 45.85 28.85 45.75 28.8 45.6 28.85 45.4 M26.2 47.25 L26.3 47.45 26.2 47.6 26.05 47.7 25.85 47.6 25.8 47.45 25.85 47.25 26.05 47.2 26.2 47.25 M37.05 38.85 L37.25 38.8 37.4 38.85 37.5 39.05 37.4 39.2 37.25 39.3 37.05 39.2 37.0 39.05 37.05 38.85 M34.45 41.2 L34.65 41.15 34.8 41.2 34.9 41.4 34.8 41.55 34.65 41.65 34.45 41.55 34.4 41.4 34.45 41.2 M32.05 43.4 L32.15 43.6 32.05 43.75 31.9 43.85 31.7 43.75 31.65 43.6 31.7 43.4 31.9 43.35 32.05 43.4 M19.45 50.25 L19.65 50.2 19.8 50.25 19.9 50.45 19.8 50.6 19.65 50.7 19.45 50.6 19.4 50.45 19.45 50.25 M16.55 51.4 L16.65 51.6 16.55 51.75 16.4 51.85 16.2 51.75 16.15 51.6 16.2 51.4 16.4 51.35 16.55 51.4 M13.1 52.3 L13.2 52.5 13.1 52.65 12.95 52.75 12.75 52.65 12.7 52.5 12.75 52.3 12.95 52.25 13.1 52.3 M6.2 53.5 L6.3 53.7 6.2 53.85 6.05 53.95 5.85 53.85 5.8 53.7 5.85 53.5 6.05 53.45 6.2 53.5 M9.3 53.0 L9.5 52.95 9.65 53.0 9.75 53.2 9.65 53.35 9.5 53.45 9.3 53.35 9.25 53.2 9.3 53.0 M2.65 53.75 L2.75 53.95 2.65 54.1 2.5 54.2 2.3 54.1 2.25 53.95 2.3 53.75 2.5 53.7 2.65 53.75 M-20.5 -50.4 L-20.3 -50.45 -20.15 -50.4 -20.05 -50.2 -20.15 -50.05 -20.3 -49.95 -20.5 -50.05 -20.55 -50.2 -20.5 -50.4 M-16.9 -51.6 L-16.8 -51.4 -16.9 -51.25 -17.05 -51.15 Q-17.15 -51.15 -17.25 -51.25 L-17.3 -51.4 -17.25 -51.6 -17.05 -51.65 -16.9 -51.6 M-10.55 -53.3 L-10.35 -53.35 -10.2 -53.3 -10.1 -53.1 -10.2 -52.95 -10.35 -52.85 Q-10.45 -52.85 -10.55 -52.95 L-10.6 -53.1 -10.55 -53.3 M-13.7 -52.65 L-13.55 -52.6 -13.45 -52.4 -13.55 -52.25 -13.7 -52.15 -13.9 -52.25 -13.95 -52.4 -13.9 -52.6 -13.7 -52.65 M-7.1 -53.8 L-6.9 -53.85 -6.75 -53.8 -6.65 -53.6 -6.75 -53.45 -6.9 -53.35 -7.1 -53.45 -7.15 -53.6 -7.1 -53.8 M-3.65 -54.1 L-3.45 -54.15 -3.3 -54.1 -3.2 -53.9 -3.3 -53.75 -3.45 -53.65 Q-3.55 -53.65 -3.65 -53.75 L-3.7 -53.9 -3.65 -54.1 M-44.45 -31.1 L-44.3 -31.05 -44.2 -30.85 -44.3 -30.7 -44.45 -30.6 Q-44.55 -30.6 -44.65 -30.7 L-44.7 -30.85 -44.65 -31.05 -44.45 -31.1 M-42.55 -33.8 L-42.35 -33.85 -42.2 -33.8 -42.1 -33.6 -42.2 -33.45 -42.35 -33.35 Q-42.45 -33.35 -42.55 -33.45 L-42.6 -33.6 -42.55 -33.8 M-46.2 -28.1 L-46.1 -27.9 -46.2 -27.75 -46.35 -27.65 Q-46.45 -27.65 -46.55 -27.75 L-46.6 -27.9 -46.55 -28.1 -46.35 -28.15 -46.2 -28.1 M-48.25 -25.1 L-48.05 -25.15 -47.9 -25.1 -47.8 -24.9 -47.9 -24.75 -48.05 -24.65 Q-48.15 -24.65 -48.25 -24.75 L-48.3 -24.9 -48.25 -25.1 M-49.8 -21.95 L-49.6 -22.0 -49.45 -21.95 -49.35 -21.75 -49.45 -21.6 -49.6 -21.5 -49.8 -21.6 -49.85 -21.75 -49.8 -21.95 M-50.75 -18.7 L-50.65 -18.5 -50.75 -18.35 -50.9 -18.25 -51.1 -18.35 -51.15 -18.5 -51.1 -18.7 -50.9 -18.75 -50.75 -18.7 M-52.2 -15.35 L-52.0 -15.4 -51.85 -15.35 -51.75 -15.15 -51.85 -15.0 -52.0 -14.9 -52.2 -15.0 -52.25 -15.15 -52.2 -15.35 M-53.0 -12.0 L-52.8 -12.05 -52.65 -12.0 -52.55 -11.8 -52.65 -11.65 -52.8 -11.55 -53.0 -11.65 -53.05 -11.8 -53.0 -12.0 M-53.6 -8.45 L-53.4 -8.5 -53.25 -8.45 -53.15 -8.25 -53.25 -8.1 -53.4 -8.0 -53.6 -8.1 -53.65 -8.25 -53.6 -8.45 M-53.65 -4.95 L-53.55 -4.75 -53.65 -4.6 -53.8 -4.5 -54.0 -4.6 -54.05 -4.75 -54.0 -4.95 -53.8 -5.0 -53.65 -4.95 M-54.2 -1.4 L-54.0 -1.45 -53.85 -1.4 -53.75 -1.2 -53.85 -1.05 -54.0 -0.95 -54.2 -1.05 -54.25 -1.2 -54.2 -1.4 M-23.4 -49.0 L-23.3 -48.8 -23.4 -48.65 -23.55 -48.55 Q-23.65 -48.55 -23.75 -48.65 L-23.8 -48.8 -23.75 -49.0 -23.55 -49.05 -23.4 -49.0 M-26.5 -47.3 L-26.4 -47.1 -26.5 -46.95 -26.65 -46.85 Q-26.75 -46.85 -26.85 -46.95 L-26.9 -47.1 -26.85 -47.3 -26.65 -47.35 -26.5 -47.3 M-29.85 -45.45 L-29.65 -45.5 -29.5 -45.45 -29.4 -45.25 -29.5 -45.1 -29.65 -45.0 Q-29.75 -45.0 -29.85 -45.1 L-29.9 -45.25 -29.85 -45.45 M-32.25 -43.45 L-32.15 -43.25 -32.25 -43.1 -32.4 -43.0 -32.6 -43.1 -32.65 -43.25 -32.6 -43.45 -32.4 -43.5 -32.25 -43.45 M-37.8 -39.0 L-37.6 -39.05 -37.45 -39.0 -37.35 -38.8 -37.45 -38.65 -37.6 -38.55 -37.8 -38.65 -37.85 -38.8 -37.8 -39.0 M-35.35 -41.2 L-35.15 -41.25 -35.0 -41.2 -34.9 -41.0 -35.0 -40.85 -35.15 -40.75 Q-35.25 -40.75 -35.35 -40.85 L-35.4 -41.0 -35.35 -41.2 M-40.25 -36.45 L-40.05 -36.5 -39.9 -36.45 -39.8 -36.25 -39.9 -36.1 -40.05 -36.0 Q-40.15 -36.0 -40.25 -36.1 L-40.3 -36.25 -40.25 -36.45 M-39.0 37.05 L-38.85 37.1 -38.75 37.3 -38.85 37.45 -39.0 37.55 -39.2 37.45 -39.25 37.3 -39.2 37.1 -39.0 37.05 M-33.85 42.1 L-33.65 42.05 -33.5 42.1 -33.4 42.3 -33.5 42.45 -33.65 42.55 -33.85 42.45 -33.9 42.3 -33.85 42.1 M-36.5 39.8 L-36.3 39.75 -36.15 39.8 -36.05 40.0 -36.15 40.15 -36.3 40.25 -36.5 40.15 -36.55 40.0 -36.5 39.8 M-31.05 44.2 L-30.85 44.15 -30.7 44.2 -30.6 44.4 -30.7 44.55 -30.85 44.65 -31.05 44.55 -31.1 44.4 -31.05 44.2 M-27.75 46.15 L-27.65 46.35 -27.75 46.5 -27.9 46.6 -28.1 46.5 -28.15 46.35 -28.1 46.15 -27.9 46.1 -27.75 46.15 M-24.7 47.9 L-24.6 48.1 -24.7 48.25 -24.85 48.35 -25.05 48.25 -25.1 48.1 -25.05 47.9 -24.85 47.85 -24.7 47.9 M-21.65 49.4 L-21.5 49.45 -21.4 49.65 -21.5 49.8 -21.65 49.9 -21.85 49.8 -21.9 49.65 -21.85 49.45 -21.65 49.4 M-54.15 2.1 L-53.95 2.05 -53.8 2.1 -53.7 2.3 -53.8 2.45 -53.95 2.55 -54.15 2.45 -54.2 2.3 -54.15 2.1 M-53.95 5.6 L-53.75 5.55 -53.6 5.6 -53.5 5.8 -53.6 5.95 -53.75 6.05 -53.95 5.95 -54.0 5.8 -53.95 5.6 M-53.5 9.05 L-53.3 9.0 -53.15 9.05 -53.05 9.25 -53.15 9.4 -53.3 9.5 -53.5 9.4 -53.55 9.25 -53.5 9.05 M-52.8 12.5 L-52.6 12.45 -52.45 12.5 -52.35 12.7 -52.45 12.85 -52.6 12.95 -52.8 12.85 -52.85 12.7 -52.8 12.5 M-51.9 15.9 L-51.7 15.85 -51.55 15.9 -51.45 16.1 -51.55 16.25 -51.7 16.35 -51.9 16.25 -51.95 16.1 -51.9 15.9 M-50.75 19.25 L-50.55 19.2 -50.4 19.25 -50.3 19.45 -50.4 19.6 -50.55 19.7 -50.75 19.6 -50.8 19.45 -50.75 19.25 M-49.35 22.5 L-49.15 22.45 -49.0 22.5 -48.9 22.7 -49.0 22.85 -49.15 22.95 -49.35 22.85 -49.4 22.7 -49.35 22.5 M-47.4 25.65 L-47.3 25.85 -47.4 26.0 -47.55 26.1 -47.75 26.0 -47.8 25.85 -47.75 25.65 -47.55 25.6 -47.4 25.65 M-45.95 28.7 L-45.75 28.65 -45.6 28.7 -45.5 28.9 -45.6 29.05 -45.75 29.15 -45.95 29.05 -46.0 28.9 -45.95 28.7 M-43.5 31.65 L-43.4 31.85 -43.5 32.0 -43.65 32.1 -43.85 32.0 -43.9 31.85 -43.85 31.65 -43.65 31.6 -43.5 31.65 M-41.65 34.4 L-41.45 34.35 -41.3 34.4 -41.2 34.6 -41.3 34.75 -41.45 34.85 -41.65 34.75 -41.7 34.6 -41.65 34.4 M-4.45 53.65 L-4.35 53.85 -4.45 54.0 -4.6 54.1 -4.8 54.0 -4.85 53.85 -4.8 53.65 -4.6 53.6 -4.45 53.65 M-1.2 53.8 L-1.0 53.75 -0.85 53.8 -0.75 54.0 -0.85 54.15 -1.0 54.25 -1.2 54.15 -1.25 54.0 -1.2 53.8 M-7.95 53.25 L-7.85 53.45 -7.95 53.6 -8.1 53.7 -8.3 53.6 -8.35 53.45 -8.3 53.25 -8.1 53.2 -7.95 53.25 M-14.9 51.8 L-14.8 52.0 -14.9 52.15 -15.05 52.25 -15.25 52.15 -15.3 52.0 -15.25 51.8 -15.05 51.75 -14.9 51.8 M-11.85 52.6 L-11.65 52.55 -11.5 52.6 -11.4 52.8 -11.5 52.95 -11.65 53.05 -11.85 52.95 -11.9 52.8 -11.85 52.6 M-18.65 50.95 L-18.6 50.75 -18.4 50.7 -18.25 50.75 -18.15 50.95 -18.25 51.1 -18.4 51.2 -18.6 51.1 -18.65 50.95" fill="#000000" fill-rule="evenodd" stroke="none"/>
  </g>
  <defs>
    <radialGradient cx="0" cy="0" gradientTransform="matrix(0.0665, 0.0, 0.0, 0.0665, 0.0, 0.0)" gradientUnits="userSpaceOnUse" id="gradient0" r="819.2" spreadMethod="pad">
      <stop offset="0.0" stop-color="#a6c0fb"/>
      <stop offset="1.0" stop-color="#bebefc" stop-opacity="0.0"/>
    </radialGradient>
  </defs>
</svg>
