<?xml version="1.0" encoding="UTF-8" standalone="no"?>
<svg xmlns:xlink="http://www.w3.org/1999/xlink" height="47.0px" width="61.75px" xmlns="http://www.w3.org/2000/svg">
  <g transform="matrix(1.0, 0.0, 0.0, 1.0, 30.9, 23.5)">
    <path d="M11.7 -14.6 L12.2 -14.35 13.2 -14.1 13.9 -13.7 14.55 -13.3 14.9 -12.95 15.3 -12.55 15.55 -12.2 15.65 -11.8 15.8 -11.45 16.05 -11.05 16.1 -10.9 Q16.55 -10.65 17.05 -10.55 L17.75 -10.15 18.4 -9.75 18.65 -9.5 18.8 -9.4 19.25 -9.25 22.3 -8.5 24.65 -7.95 25.15 -7.55 25.35 -7.15 25.5 -6.8 25.6 -6.4 25.65 -6.05 25.65 -5.65 25.65 -5.3 25.6 -4.9 25.6 -4.15 25.45 -3.8 25.25 -3.4 25.2 -3.05 25.45 -2.65 25.6 -2.65 26.6 -2.4 27.1 -2.0 27.45 -1.6 28.05 -0.85 28.75 0.25 29.05 0.65 29.3 1.05 29.45 1.4 29.55 1.8 29.6 2.15 29.5 3.3 29.4 4.4 29.4 4.8 29.4 5.15 29.4 5.55 29.25 6.65 29.1 7.05 28.85 7.4 28.85 7.8 28.75 8.15 28.55 8.5 28.25 8.9 27.85 9.3 27.45 9.65 26.6 10.4 26.05 10.6 25.2 10.9 24.55 11.15 24.05 11.4 23.7 11.75 23.3 12.1 22.9 12.5 22.55 12.85 22.15 13.25 Q21.85 13.4 21.5 13.6 L20.9 14.0 20.5 14.35 20.35 14.7 20.1 15.1 19.45 15.85 18.75 16.6 18.2 17.35 18.2 17.7 18.1 18.1 17.8 18.45 17.45 18.85 16.95 19.1 16.3 19.2 15.55 19.05 15.05 19.2 14.7 19.45 4.4 20.2 2.85 20.7 2.35 20.9 2.0 21.0 1.25 21.15 0.6 21.3 0.25 21.4 -0.05 21.5 -0.8 21.65 -2.65 21.9 -4.55 22.2 -5.3 22.6 -5.8 22.85 -6.05 22.9 -6.8 23.0 -6.8 23.05 -7.35 23.05 -9.35 23.05 -9.85 23.05 -10.7 22.75 -11.2 22.4 -11.45 22.0 -11.7 21.65 Q-14.4 20.8 -17.85 20.85 L-20.2 20.65 -20.7 20.25 -21.1 19.9 -21.35 19.65 -27.35 19.3 -28.85 19.3 -29.75 19.05 -30.25 18.65 -30.5 18.3 -30.7 17.9 -30.85 17.5 -30.8 17.15 -30.7 16.75 -30.6 16.4 -30.3 16.05 -30.0 15.6 -29.8 15.3 -29.85 14.9 -30.0 14.55 -30.3 14.15 -30.55 13.75 -30.7 13.4 -30.75 13.0 -30.8 12.65 -30.8 11.9 -30.8 11.15 -30.75 10.35 -30.75 10.0 -30.75 9.6 -30.65 9.25 -30.5 8.85 -30.35 8.5 -30.25 8.1 -30.25 7.75 -30.25 7.35 -30.25 7.0 -30.25 6.6 -30.2 6.25 -30.1 5.85 -29.95 5.5 -29.8 5.15 -29.45 4.75 -29.2 4.35 -29.2 4.0 -29.15 3.6 -29.05 3.25 -28.9 2.9 -28.65 2.5 -28.3 2.1 -27.65 1.75 -27.4 1.4 -27.15 1.0 -27.15 0.65 -27.15 0.25 -27.15 -0.1 -27.15 -0.5 -27.2 -0.85 -27.5 -1.25 -27.75 -1.65 -27.85 -2.0 -28.0 -2.4 -28.1 -2.75 -28.1 -3.15 -28.1 -3.5 -28.1 -3.9 -28.1 -4.3 -27.95 -4.65 -27.85 -5.05 -27.7 -5.4 -27.55 -5.8 -27.45 -6.15 -27.3 -6.5 -27.15 -6.85 -26.8 -7.25 -26.4 -7.65 -25.9 -8.0 -25.65 -8.4 -25.8 -8.75 -26.0 -9.15 -26.15 -9.5 -26.1 -9.9 -26.0 -10.25 -25.9 -10.65 -25.6 -11.0 -25.25 -11.4 -24.75 -11.8 -24.35 -12.1 -23.85 -12.5 -23.6 -12.9 -23.45 -13.25 -23.35 -13.65 -23.1 -14.0 -22.85 -14.4 -22.05 -15.5 -21.05 -16.6 -20.55 -17.0 -20.15 -17.2 -19.55 -17.5 -19.3 -17.85 -18.9 -18.1 -18.65 -18.2 -17.9 -18.3 -13.35 -18.55 -13.1 -18.65 -12.1 -18.9 -11.6 -19.15 -11.1 -19.25 -10.6 -19.4 -10.1 -19.5 -9.35 -19.75 -8.6 -20.1 -8.1 -20.25 -7.7 -20.35 -5.45 -20.95 -3.3 -21.45 -2.55 -21.8 -2.05 -22.05 3.6 -21.95 5.1 -21.7 5.6 -21.3 6.0 -20.95 7.0 -20.2 8.1 -19.05 8.35 -18.65 8.35 -18.3 8.35 -17.9 8.35 -17.55 8.3 -17.15 8.3 -16.8 8.3 -16.4 8.5 -16.1 9.2 -15.65 9.9 -15.25 10.3 -15.0 10.7 -14.9 11.7 -14.6" fill="#ab98a0" fill-rule="evenodd" stroke="none"/>
    <path d="M4.65 -14.45 L5.15 -14.45 6.2 -14.45 7.05 -14.2 7.7 -13.8 8.45 -13.45 9.55 -13.0 10.05 -12.65 10.55 -12.3 11.05 -12.0 11.3 -11.95 13.7 -11.7 14.55 -11.4 Q14.9 -11.25 15.3 -11.05 L15.9 -10.7 16.3 -10.3 17.05 -9.9 17.55 -9.55 17.9 -9.15 18.05 -8.8 18.3 -8.4 18.65 -8.0 18.9 -7.65 19.15 -7.25 19.75 -6.9 20.1 -6.5 20.4 -6.1 20.45 -5.35 20.5 -4.6 20.5 -3.85 20.5 -3.1 20.45 -2.35 20.6 -2.0 20.8 -1.6 20.95 -1.2 21.0 -0.85 21.1 -0.5 21.3 -0.1 21.4 0.3 21.45 0.65 21.45 1.4 21.4 2.15 21.4 2.55 21.3 2.9 21.4 3.3 21.4 3.65 21.4 4.45 21.4 5.2 21.35 5.55 21.25 5.95 21.1 6.3 20.75 6.7 20.1 7.05 19.6 7.25 18.7 7.55 18.25 7.9 17.85 8.3 Q16.5 8.9 15.4 9.85 L13.85 11.3 13.0 12.35 12.75 12.75 12.15 13.1 11.75 13.5 11.5 13.85 11.25 14.2 10.85 14.6 10.35 14.95 9.35 15.2 8.85 15.2 8.35 15.2 7.85 15.2 Q5.2 14.15 2.35 14.0 L1.35 13.85 0.35 13.85 -0.45 14.2 -0.95 14.45 -1.7 14.55 -3.3 14.7 -5.1 15.4 -7.25 15.8 -9.25 16.0 -9.75 16.0 -10.6 15.75 -11.1 15.35 -11.5 15.0 -11.95 14.55 -12.35 14.2 -12.95 13.8 -13.5 13.45 -14.6 12.7 -15.2 12.3 -17.2 11.55 -19.5 10.55 Q-20.0 10.3 -20.6 10.1 L-21.1 9.7 -21.35 9.35 -21.55 8.95 -21.65 8.55 -21.7 8.2 -21.7 7.8 -21.7 7.45 -21.7 7.05 -21.5 6.7 -21.3 6.3 -21.2 5.95 -21.15 5.55 -21.15 5.2 -21.15 4.8 -21.15 4.45 -21.3 4.1 -21.5 3.65 -21.65 3.3 -21.75 2.9 -21.75 2.55 -21.7 1.8 -21.65 1.05 -21.55 0.7 -21.45 0.3 -21.3 -0.05 -21.05 -0.45 -20.7 -0.8 -20.1 -1.2 -19.8 -1.55 -19.55 -1.9 -19.2 -2.3 -18.45 -2.7 -18.15 -3.05 -17.9 -3.45 -17.4 -3.8 -15.7 -4.35 -13.4 -5.4 -12.85 -5.75 -12.6 -6.15 -12.35 -6.5 -11.7 -7.25 -10.95 -8.0 -10.35 -8.35 -9.7 -8.7 -8.8 -9.1 -8.45 -9.45 -7.8 -9.8 -7.05 -10.2 -6.65 -10.6 -6.4 -10.8 -5.65 -11.0 -3.9 -11.1 -2.9 -11.05 -1.75 -11.15 -1.15 -11.55 -0.9 -11.75 -0.6 -11.85 0.1 -12.05 1.0 -12.25 2.1 -13.0 3.05 -13.7 3.9 -14.35 4.65 -14.45" fill="#663333" fill-opacity="0.2" fill-rule="evenodd" stroke="none"/>
    <path d="M1.6 -16.65 L1.95 -16.25 2.2 -15.85 2.3 -15.5 2.45 -15.1 2.8 -14.75 3.2 -14.35 3.55 -14.0 4.05 -13.6 6.2 -13.4 8.2 -13.1 9.05 -12.9 9.55 -12.55 9.8 -12.15 9.95 -11.8 10.2 -11.4 10.55 -11.0 10.8 -10.65 10.9 -10.25 11.05 -9.9 11.3 -9.5 11.65 -9.1 12.05 -8.75 12.4 -8.35 12.75 -7.95 12.9 -7.6 13.15 -7.2 13.25 -6.85 13.25 -6.45 13.5 -6.1 13.6 -5.7 13.6 -5.35 13.6 -4.95 13.7 -4.65 14.1 -4.2 14.6 -3.8 14.95 -3.4 15.1 -3.05 15.2 -2.65 15.2 -2.3 15.2 -1.9 15.2 -1.55 14.85 -0.85 Q14.15 0.3 12.95 0.9 L10.45 2.45 9.0 3.65 9.0 4.0 9.1 4.4 9.1 4.8 9.1 5.55 9.05 6.65 8.95 7.4 8.8 7.75 8.45 8.15 7.95 8.55 6.95 8.75 5.9 9.0 4.9 9.25 4.4 9.25 3.3 8.95 2.3 8.6 1.55 8.35 0.05 8.25 -1.2 8.3 -1.7 8.55 -2.25 8.65 -2.7 8.8 -4.1 9.4 -5.4 10.0 -6.1 10.05 -6.15 10.15 -8.15 10.1 -9.15 9.85 -9.75 9.45 -10.5 9.05 -10.75 8.7 -11.0 8.3 -11.15 7.95 -11.4 7.55 Q-11.6 7.35 -11.9 7.2 L-12.6 6.8 -13.35 6.4 -14.0 6.0 -14.35 5.65 -14.5 5.3 -14.75 4.9 -15.35 4.15 -16.45 3.0 -16.85 2.6 -17.0 2.25 -17.2 1.85 -17.5 1.5 -18.25 0.75 -19.2 0.05 -22.55 -0.2 -23.6 -0.35 -24.1 -0.75 -24.3 -1.15 -24.45 -1.5 -24.7 -1.9 -24.7 -2.25 -24.7 -2.65 -24.7 -3.0 -24.55 -3.35 -24.3 -3.75 -24.15 -4.15 -23.8 -4.5 -23.4 -4.9 -22.65 -5.6 Q-22.1 -6.1 -21.8 -6.75 L-21.6 -7.1 -21.6 -7.5 -21.45 -7.85 -21.25 -8.25 -21.1 -8.6 -20.75 -9.0 -20.45 -9.35 -20.2 -9.75 -20.1 -10.1 -20.05 -10.5 -19.95 -10.85 -19.8 -11.2 -19.55 -11.6 -19.3 -12.0 -18.95 -12.75 -18.3 -13.85 -17.9 -14.1 -17.65 -14.2 -16.9 -14.3 -16.4 -14.35 -14.15 -14.45 -13.65 -14.7 -12.9 -14.8 -11.85 -15.05 Q-11.5 -15.2 -11.1 -15.4 L-9.6 -16.1 Q-8.15 -16.75 -6.85 -17.6 L-6.3 -18.0 -5.45 -18.15 -4.2 -18.25 -0.15 -17.8 0.35 -17.4 0.85 -17.05 1.6 -16.65" fill="#663333" fill-opacity="0.2" fill-rule="evenodd" stroke="none"/>
    <path d="M-21.3 -5.6 L-20.55 -5.7 -19.55 -5.45 -19.15 -5.2 -19.05 -5.2 -17.9 -5.2 -16.9 -4.9 -16.4 -4.55 -16.15 -4.15 -15.9 -3.8 -14.05 -3.45 -13.15 -3.2 -12.4 -2.85 -11.8 -2.5 -11.45 -2.05 -11.3 -1.7 -11.2 -1.35 -11.1 -1.05 -10.65 -0.7 -10.3 -0.35 -10.35 0.05 -10.55 0.45 -10.7 0.8 -10.55 1.15 -10.35 1.55 -10.15 1.9 -9.65 2.65 -8.8 3.4 -8.2 3.85 -7.85 4.25 -7.6 4.6 -7.45 4.95 -7.5 5.35 -7.4 5.7 -7.15 6.1 -6.85 6.5 -6.1 6.75 -5.25 7.0 -4.75 7.4 -4.5 7.8 -4.35 8.15 -4.4 8.5 -4.4 8.9 -4.5 9.3 -4.5 9.65 -4.5 10.05 -4.8 10.4 -5.15 10.75 -5.8 11.15 -6.4 11.55 -6.9 11.9 -8.45 13.05 -11.1 14.35 -11.6 14.45 -12.1 14.6 -12.75 14.85 -13.2 15.2 -13.6 15.6 -13.85 15.95 -14.25 16.2 -14.5 16.25 -15.25 16.35 -15.25 16.45 -17.25 16.4 -18.15 16.2 -21.25 15.8 -22.15 15.6 -23.8 15.1 -24.3 14.85 -25.15 14.55 -25.8 14.15 -26.15 13.8 -26.5 13.4 -26.85 13.0 -27.15 12.65 -27.4 12.25 -27.65 11.9 -27.7 11.5 -27.8 11.15 -27.85 10.75 -28.0 10.4 -28.1 10.0 -28.25 9.65 -28.25 9.25 -28.2 8.9 -28.2 8.5 -28.2 8.1 -28.2 7.75 -28.2 7.35 -28.2 6.6 -28.2 5.85 -28.05 5.5 -27.8 5.1 -27.55 4.75 -27.5 4.35 -27.4 4.0 -27.15 3.6 -26.9 3.25 -26.65 2.85 -26.65 2.5 -26.65 2.1 -26.5 1.75 -26.4 1.35 -26.25 1.0 -26.1 0.6 -26.0 0.25 -25.85 -0.15 -25.6 -0.5 -25.35 -0.85 -24.95 -1.25 -24.6 -1.65 -24.35 -2.0 -24.15 -2.35 -23.55 -3.1 -23.4 -3.5 -23.2 -3.85 -22.9 -4.2 -22.55 -4.6 -22.05 -5.0 -21.65 -5.35 -21.3 -5.6" fill="#663333" fill-opacity="0.2" fill-rule="evenodd" stroke="none"/>
    <path d="M5.45 -5.15 L5.8 -5.4 6.6 -5.45 11.1 -5.35 11.35 -5.75 11.6 -6.1 12.25 -6.85 12.6 -7.2 12.75 -7.6 12.9 -7.95 13.15 -8.35 13.4 -8.7 14.05 -9.45 14.4 -9.7 15.15 -9.85 16.05 -10.05 16.4 -10.45 16.7 -10.7 16.95 -10.8 17.7 -10.9 18.7 -10.65 19.15 -10.25 19.8 -9.5 20.05 -9.15 20.3 -8.75 20.55 -8.4 20.65 -8.0 20.8 -7.65 21.0 -7.25 21.15 -6.85 21.35 -6.6 23.0 -5.3 23.7 -4.55 24.15 -3.8 24.2 -3.45 24.25 -3.05 24.25 -2.7 24.35 -2.3 24.5 -2.4 25.1 -2.55 26.0 -2.3 26.25 -1.9 26.45 -1.5 26.5 -1.15 26.45 -0.8 26.35 -0.4 26.2 -0.05 25.85 0.35 24.6 1.15 Q23.5 1.95 22.65 3.0 L21.6 4.35 Q21.1 4.9 20.75 5.55 L20.4 5.8 20.1 5.85 19.5 5.95 19.5 6.05 17.5 5.85 16.35 5.6 16.1 5.65 14.1 5.35 12.6 4.8 12.35 4.7 11.5 4.55 10.6 4.3 10.1 3.9 9.75 3.55 9.0 3.15 8.5 2.75 7.75 2.0 7.0 1.65 6.15 1.2 5.75 1.0 5.5 0.95 4.6 0.7 4.15 0.35 0.0 0.05 -0.9 -0.2 -1.4 -0.6 -1.65 -1.0 -1.85 -1.35 -2.0 -1.75 -1.95 -2.1 -1.85 -2.5 -1.75 -2.85 -1.45 -3.2 -1.1 -3.6 -0.7 -3.85 0.05 -4.0 4.55 -4.95 5.45 -5.15" fill="#663333" fill-opacity="0.2" fill-rule="evenodd" stroke="none"/>
    <path d="M1.75 -20.9 L2.2 -20.5 2.6 -20.15 2.7 -19.75 2.8 -19.35 2.85 -19.0 Q2.9 -18.8 3.05 -18.7 3.25 -18.45 3.6 -18.25 L3.95 -17.85 4.35 -17.5 4.7 -17.1 4.95 -16.75 5.3 -16.3 5.55 -15.95 5.8 -15.6 5.8 -15.2 5.8 -14.8 5.75 -14.45 5.65 -14.05 5.85 -13.75 6.4 -13.3 6.75 -12.9 6.9 -12.55 7.0 -12.15 7.05 -11.8 7.0 -11.4 6.85 -11.1 6.55 -10.65 6.25 -10.3 6.0 -9.9 5.85 -9.55 5.5 -9.2 5.1 -8.8 4.35 -8.05 3.6 -7.3 2.9 -6.55 2.45 -5.85 2.4 -5.45 2.3 -5.1 2.05 -4.7 1.8 -4.3 1.65 -3.95 1.25 -3.6 0.9 -3.35 0.65 -3.25 0.0 -3.15 -2.0 -3.05 -2.0 -3.0 -6.0 -3.05 -10.0 -3.1 -10.9 -3.4 -11.65 -3.75 -12.15 -4.0 -13.5 -4.2 -14.4 -4.4 -14.9 -4.4 -15.9 -4.15 -16.8 -4.4 -17.25 -4.8 -17.5 -5.2 -17.75 -5.55 -17.85 -5.95 -17.9 -6.3 -17.9 -6.7 -17.9 -7.05 -17.85 -7.45 -17.7 -7.8 -17.5 -8.2 -17.35 -8.55 -17.1 -8.95 -16.95 -9.3 -16.85 -9.7 -16.7 -10.05 -16.5 -10.45 -16.3 -10.8 -16.05 -11.2 -15.9 -11.55 -15.95 -11.95 -16.2 -12.15 -16.45 -12.2 -22.45 -12.25 -23.35 -12.5 -23.85 -12.9 -24.1 -13.3 -24.3 -13.7 -24.45 -14.05 -24.4 -14.4 -24.3 -14.8 -24.2 -15.15 -23.9 -15.55 -23.55 -15.9 Q-23.25 -16.1 -22.9 -16.25 L-22.4 -16.55 -22.15 -16.6 -21.4 -16.7 Q-19.2 -16.75 -17.25 -17.75 L-15.85 -18.45 -15.5 -18.85 -15.25 -19.1 -14.95 -19.2 -14.45 -19.3 -13.7 -19.45 -11.7 -19.9 -11.2 -19.95 -10.25 -20.1 Q-7.55 -20.95 -4.8 -20.75 L-0.25 -21.15 0.75 -21.15 1.75 -20.9" fill="#663333" fill-opacity="0.2" fill-rule="evenodd" stroke="none"/>
    <path d="M20.8 14.05 L20.65 14.25 20.4 14.4 19.9 14.55 19.5 14.65 19.4 14.85 19.3 15.05 19.25 15.25 19.15 15.4 19.05 15.6 19.0 15.8 19.0 16.0 19.0 16.15 19.0 16.35 19.0 16.55 18.9 16.7 18.75 16.9 18.5 17.1 18.05 17.2 17.6 17.1 17.45 17.1 17.2 17.25 16.9 17.45 16.85 17.65 16.7 17.8 16.5 18.0 16.35 18.15 16.2 18.2 15.85 18.25 15.35 18.15 15.1 17.95 14.9 17.75 14.75 17.55 14.65 17.35 14.6 17.2 14.55 17.0 14.45 16.8 14.4 16.6 14.35 16.4 14.25 16.25 14.15 16.05 14.05 15.85 14.05 15.65 14.05 15.5 14.05 15.3 14.05 15.1 14.05 14.75 14.05 14.55 13.95 14.35 13.85 14.15 13.85 13.95 13.8 13.8 13.8 13.6 13.8 13.4 13.7 13.2 13.65 13.05 13.65 12.85 13.65 12.45 13.65 12.1 13.7 11.9 13.8 11.7 13.9 11.5 14.05 11.35 14.35 11.15 14.65 10.95 15.3 10.8 15.5 10.65 15.85 10.65 16.85 10.6 17.35 10.8 18.15 11.15 18.5 11.35 18.7 11.5 19.15 11.85 20.05 12.4 20.4 12.55 20.65 12.75 20.85 12.95 20.9 13.1 20.95 13.3 20.95 13.5 20.95 13.65 20.9 13.85 20.8 14.05" fill="#ffff99" fill-opacity="0.2" fill-rule="evenodd" stroke="none"/>
    <path d="M24.0 6.75 L24.3 6.55 Q24.65 6.4 24.95 6.2 L25.4 6.0 26.5 5.65 26.9 5.5 27.35 5.35 27.85 5.35 28.1 5.35 28.2 5.3 28.6 5.15 28.9 4.95 29.05 4.85 29.3 4.8 29.65 4.7 30.05 4.55 30.5 4.7 30.65 4.9 30.75 5.1 30.8 5.25 30.75 5.45 30.7 5.65 30.6 5.8 30.4 6.0 30.2 6.2 29.7 6.35 29.2 6.55 28.95 6.75 28.7 6.95 28.45 7.1 28.15 7.3 27.55 7.5 27.25 7.65 27.05 7.85 26.8 8.05 26.5 8.15 26.3 8.2 26.0 8.3 25.65 8.4 25.4 8.5 25.3 8.6 25.0 8.65 24.65 8.7 24.55 8.9 24.45 9.05 24.45 9.25 24.4 9.45 24.3 9.65 24.15 9.8 24.1 10.0 24.0 10.2 23.9 10.4 23.6 10.75 23.45 10.95 23.35 11.1 23.2 11.35 22.95 11.7 22.8 11.9 22.7 12.05 22.55 12.25 22.35 12.35 22.25 12.4 21.75 12.55 21.5 12.7 21.1 12.75 19.9 13.05 19.65 13.15 19.55 13.2 19.15 13.35 19.0 13.55 18.95 13.7 18.95 13.9 18.95 14.1 18.85 14.3 18.75 14.45 18.7 14.65 18.7 14.85 18.7 15.05 18.7 15.2 18.65 15.4 18.6 15.6 18.35 15.9 17.55 16.55 17.35 16.7 16.8 17.25 16.6 17.45 16.2 17.85 15.95 17.95 15.6 18.0 15.2 18.05 14.95 18.2 14.75 18.35 14.55 18.55 14.4 18.75 14.15 18.95 13.7 19.15 Q13.35 19.3 13.05 19.5 L12.35 19.85 12.0 20.05 11.55 20.35 11.4 20.4 10.9 20.55 10.6 20.65 10.25 20.65 10.2 20.7 9.45 20.7 8.95 20.55 8.8 20.45 8.3 20.45 7.75 20.35 5.75 20.05 5.5 19.9 5.0 19.75 2.95 19.7 2.7 19.75 2.05 19.85 1.95 19.85 1.7 19.9 1.45 19.95 0.7 20.05 0.45 20.1 0.25 20.15 0.0 20.2 -0.2 20.25 -0.45 20.35 -0.75 20.4 -1.2 20.25 -1.4 20.05 -1.65 20.0 -2.2 20.15 -2.7 20.3 -3.15 20.35 -3.0 20.2 -2.5 20.0 -2.0 19.8 -1.65 19.6 -1.6 19.45 -1.55 19.25 -1.5 19.05 -1.35 18.9 -1.2 18.75 -1.05 18.7 -0.8 18.65 -0.6 18.6 -0.35 18.5 -0.15 18.45 0.1 18.4 0.45 18.25 0.6 18.15 0.7 18.1 1.6 17.85 2.25 17.65 2.5 17.6 5.3 17.5 5.8 17.65 6.8 17.9 7.8 18.05 8.25 18.0 8.35 17.8 8.75 17.6 9.05 17.45 9.7 17.25 10.05 17.05 10.35 16.95 10.85 16.85 12.15 16.5 12.65 16.3 13.6 15.9 14.25 15.15 14.5 14.8 14.85 14.25 15.0 14.05 16.3 12.7 17.45 11.8 17.6 11.65 17.75 11.45 18.75 10.95 19.35 10.65 19.75 10.45 21.15 9.9 21.65 9.7 21.95 9.55 22.15 9.35 22.2 9.15 22.3 9.0 22.35 8.8 22.45 8.6 22.5 8.45 22.55 8.25 22.6 8.05 22.75 7.85 22.85 7.65 23.1 7.5 23.55 7.1 24.0 6.75" fill="#ffff99" fill-opacity="0.2" fill-rule="evenodd" stroke="none"/>
    <path d="M-20.8 -5.55 L-20.6 -5.75 -20.6 -5.95 -20.55 -6.15 -20.4 -6.3 -20.3 -6.5 -20.0 -6.7 -19.6 -6.8 -19.1 -6.7 -18.1 -6.45 -17.7 -6.3 -16.6 -5.7 -16.4 -5.6 -16.25 -5.5 -15.75 -5.4 -15.5 -5.2 -15.4 -5.0 -15.35 -4.8 -15.3 -4.6 -15.2 -4.45 -14.9 -4.05 -14.35 -3.2 -13.4 -2.15 -13.25 -1.95 -13.0 -1.75 -11.3 -1.6 -10.8 -1.5 -10.55 -1.3 -10.45 -1.1 -10.35 -0.95 -10.35 -0.75 -10.3 -0.15 -10.3 0.2 -10.3 0.95 -10.3 1.15 -10.2 1.35 -10.1 1.5 -10.05 1.7 -10.0 1.9 -10.0 2.1 -9.95 2.3 -10.1 2.45 -10.35 2.45 -10.55 2.6 -10.85 2.65 -11.2 2.5 -11.45 2.3 -11.7 2.15 -11.95 1.95 -12.1 1.75 -12.15 1.55 -12.2 1.35 -12.2 1.2 -12.2 1.0 -12.25 0.8 -12.3 0.6 -12.35 0.5 -12.35 0.45 -13.45 0.2 -14.5 -0.05 -14.75 -0.2 -14.9 -0.4 -15.0 -0.6 -15.05 -0.8 -15.25 -1.0 -15.65 -1.55 -15.9 -1.95 -16.1 -2.3 -16.3 -2.5 -16.45 -2.7 -16.8 -3.05 -16.95 -3.2 -17.0 -3.25 -17.5 -3.2 -17.7 -3.0 -18.05 -2.85 -19.2 -2.3 -19.7 -2.1 -19.95 -1.9 -20.25 -1.55 -20.55 -1.15 -20.65 -1.0 -20.95 -0.8 -21.1 -0.6 -21.05 -0.4 -21.05 -0.25 -21.05 -0.05 -21.55 0.45 -22.55 0.95 -22.85 1.15 -23.05 1.3 -23.25 1.5 -23.5 1.7 -23.95 1.9 -24.5 2.25 -24.7 2.4 -25.2 2.65 -26.2 3.15 -26.9 3.45 -27.15 3.65 -27.35 3.75 -27.8 3.9 -28.15 4.0 -28.2 4.0 -28.95 3.95 -29.25 3.8 -29.35 3.6 -29.5 3.5 -29.85 3.35 -30.05 3.15 -30.15 3.0 -30.25 2.8 -30.25 2.6 -30.25 2.4 -30.15 2.25 -30.05 2.05 -29.9 1.85 -29.65 1.7 -29.45 1.55 -29.1 1.45 -27.45 0.9 -27.15 0.7 -26.8 0.5 -26.65 0.4 -26.4 0.35 -26.15 0.25 -25.75 0.15 -25.45 -0.05 -25.25 -0.2 -24.95 -0.4 -24.8 -0.6 -24.6 -0.95 -24.3 -1.35 -24.1 -1.7 -24.1 -1.9 -24.05 -2.1 -23.95 -2.25 -23.75 -2.65 -23.5 -3.0 -23.2 -3.4 -22.9 -3.6 -22.7 -3.75 -22.55 -3.95 -22.15 -4.3 -21.95 -4.5 -21.35 -4.65 -21.25 -4.8 -21.15 -5.0 -20.9 -5.4 -20.8 -5.55" fill="#ffff99" fill-opacity="0.2" fill-rule="evenodd" stroke="none"/>
    <path d="M6.25 -21.15 L6.35 -20.95 6.45 -20.75 6.4 -20.55 6.4 -20.4 6.35 -20.2 6.3 -20.0 6.15 -19.8 5.95 -19.65 5.55 -19.5 Q1.25 -20.2 -2.7 -18.9 L-3.5 -18.8 -4.95 -18.35 -5.2 -18.25 -6.45 -18.0 -8.5 -17.7 -15.3 -17.6 -15.5 -17.4 -15.9 -17.25 -16.15 -17.05 -16.6 -16.7 -16.75 -16.5 -17.4 -16.1 -18.1 -15.55 -18.5 -15.2 -19.1 -14.85 -19.95 -14.3 -20.2 -14.1 -20.7 -14.0 -20.7 -13.95 -20.95 -13.95 -21.45 -14.1 -21.7 -14.3 -21.8 -14.5 -21.9 -14.65 -22.0 -14.85 -22.0 -15.05 -22.0 -15.25 -22.0 -15.45 -22.0 -15.6 -21.95 -15.8 -21.85 -16.0 -21.75 -16.2 -21.65 -16.35 -21.55 -16.55 -21.5 -16.75 -21.45 -16.95 -21.4 -17.1 -21.35 -17.3 -21.2 -17.5 -21.1 -17.7 -20.9 -17.8 -20.75 -17.85 -20.4 -17.9 -19.15 -18.4 -18.95 -18.6 -18.75 -18.8 -18.55 -18.95 -18.4 -19.15 -18.3 -19.35 -18.2 -19.55 -18.05 -19.7 -17.85 -19.85 -8.65 -19.8 -8.45 -19.85 -8.1 -19.9 -6.8 -20.1 -6.4 -20.25 -6.15 -20.45 -3.85 -21.2 -2.15 -21.6 -1.9 -21.8 -1.55 -21.9 -0.3 -22.05 0.3 -22.15 0.55 -22.15 1.05 -22.0 1.25 -21.9 Q3.65 -22.0 6.0 -21.3 L6.25 -21.15" fill="#ffff99" fill-opacity="0.2" fill-rule="evenodd" stroke="none"/>
    <path d="M1.25 -16.45 L1.85 -15.5 2.4 -14.7 2.45 -14.5 2.5 -14.35 2.55 -14.15 2.65 -13.95 2.7 -13.75 2.7 -13.6 2.8 -13.4 3.0 -13.2 3.35 -13.05 3.6 -13.2 4.1 -13.3 4.35 -13.45 4.65 -13.5 9.1 -13.2 9.3 -13.05 9.65 -13.0 10.1 -12.85 10.3 -12.65 10.6 -12.5 10.9 -12.3 11.3 -11.9 11.55 -11.7 11.95 -11.35 12.3 -11.2 12.45 -11.15 12.9 -11.0 13.2 -10.85 13.6 -10.65 13.8 -10.45 13.95 -10.25 14.2 -10.05 14.4 -9.85 14.65 -9.75 14.85 -9.55 14.8 -9.35 14.7 -9.15 14.45 -9.05 14.2 -9.0 13.95 -8.95 13.65 -9.05 13.55 -9.2 13.25 -9.45 12.95 -9.65 12.85 -9.75 12.4 -9.9 11.75 -10.1 10.95 -10.4 10.4 -10.8 10.15 -10.95 9.5 -11.35 4.35 -11.15 2.85 -11.0 2.05 -11.35 1.5 -11.7 1.05 -12.1 0.95 -12.3 0.85 -12.45 0.75 -12.65 0.7 -12.85 0.65 -13.05 0.45 -13.4 0.3 -13.6 -0.05 -14.0 -0.3 -14.35 -0.35 -14.55 -0.4 -14.75 -0.55 -14.95 -0.6 -15.1 -0.75 -15.3 -0.85 -15.45 -2.6 -15.5 -3.1 -15.4 -3.4 -15.45 -3.8 -15.45 -4.1 -15.4 -4.5 -15.55 -4.65 -15.75 -4.8 -15.95 -4.85 -16.1 -4.85 -16.3 -4.75 -16.5 -4.65 -16.65 -4.55 -16.8 -4.1 -16.9 -3.7 -17.05 -2.85 -17.4 -2.6 -17.6 -2.1 -17.7 -0.55 -17.7 -0.05 -17.55 0.3 -17.35 0.6 -17.2 1.25 -16.45" fill="#ffff99" fill-opacity="0.2" fill-rule="evenodd" stroke="none"/>
    <path d="M-16.95 19.2 L-16.6 19.15 -15.25 19.0 -14.8 18.9 -14.35 19.05 -14.05 19.25 -13.85 19.45 -13.75 19.6 -13.75 19.8 -13.75 20.0 -13.8 20.15 -13.95 20.35 -14.15 20.55 -14.7 20.9 -15.15 21.0 -16.2 21.2 -16.65 21.3 -17.15 21.25 -18.6 21.2 -19.0 21.05 -19.25 20.85 -19.5 20.7 -19.65 20.5 -19.7 20.3 -20.0 20.1 -20.4 19.9 -20.7 19.7 -20.9 19.55 -21.05 19.35 -21.5 19.2 -24.25 19.2 -24.5 19.2 -24.95 19.05 -25.8 18.95 -29.1 18.7 -29.45 18.55 -29.65 18.35 -29.75 18.15 -29.85 18.0 -29.8 17.8 -29.75 17.6 -29.65 17.45 -29.5 17.3 -29.1 17.2 Q-26.55 16.95 -24.05 17.3 L-22.0 17.35 -21.0 17.4 -20.75 17.4 -20.3 17.55 -20.05 17.75 -19.85 17.9 -19.65 18.1 -19.45 18.3 -18.85 18.5 -18.5 18.7 -18.2 18.85 -18.0 19.05 -17.95 19.2 -17.2 19.3 -16.95 19.2" fill="#ffff99" fill-opacity="0.2" fill-rule="evenodd" stroke="none"/>
    <path d="M-24.45 -11.8 L-24.35 -12.0 -24.1 -12.4 -24.05 -12.55 -23.8 -12.75 -23.6 -12.95 -23.2 -13.3 Q-21.0 -14.15 -18.95 -15.4 L-17.8 -16.0 -17.0 -16.15 -15.65 -16.25 -15.1 -16.1 -14.7 -15.9 -14.35 -15.7 -14.15 -15.5 -14.1 -15.4 -13.9 -15.35 -13.45 -15.2 -13.2 -15.0 -13.1 -14.8 -12.95 -14.65 -12.7 -14.45 -12.45 -14.25 -11.95 -14.05 -11.45 -13.85 -11.3 -13.65 -11.0 -13.3 -10.75 -12.9 -10.75 -12.75 -10.75 -12.55 -10.8 -12.35 -10.85 -12.15 -11.05 -12.0 -11.45 -11.85 -11.75 -12.0 -11.9 -12.2 -12.05 -12.35 -12.25 -12.55 -13.1 -12.9 -13.85 -13.25 -14.05 -13.45 -14.35 -13.55 -14.8 -13.7 -15.05 -13.9 -15.45 -14.0 -15.75 -14.1 -15.85 -14.15 -16.8 -14.2 -17.2 -14.05 -17.45 -13.85 -17.4 -13.7 -17.4 -13.5 -17.4 -13.3 -17.4 -13.1 -17.4 -12.95 Q-17.7 -11.95 -18.8 -11.5 L-20.85 -10.7 -21.05 -10.5 -21.45 -10.35 -21.85 -10.15 -21.95 -9.4 -21.95 -8.65 -21.95 -7.7 -22.0 -7.55 -22.1 -7.35 -22.2 -7.15 -22.4 -6.95 -22.65 -6.85 -23.05 -6.8 -23.6 -6.65 -23.85 -6.55 -24.25 -6.45 -24.65 -6.35 -24.7 -6.15 -24.75 -6.0 -24.75 -5.8 -24.75 -5.6 -24.8 -5.4 -24.85 -5.25 -24.95 -5.05 -25.0 -4.85 -25.2 -4.65 -25.4 -4.5 -25.45 -4.3 -25.5 -4.1 -25.65 -3.95 -26.0 -3.85 -26.0 -3.8 -26.35 -3.95 -26.45 -4.1 -26.55 -4.3 -26.55 -4.5 -26.55 -4.7 -26.6 -4.85 -26.7 -5.05 -26.75 -5.25 -26.75 -5.45 -26.8 -5.65 -26.85 -5.8 -26.85 -6.0 -26.85 -6.4 -26.85 -6.75 -26.85 -7.15 -26.8 -7.3 -26.7 -7.5 -26.6 -7.7 -26.45 -7.9 -26.2 -8.05 -25.95 -8.25 -25.35 -8.45 -24.65 -8.7 -24.45 -8.8 -24.35 -8.85 -24.1 -9.0 -24.05 -9.2 -24.05 -9.35 -24.05 -9.55 -24.05 -9.75 -24.05 -9.95 -24.15 -10.1 -24.25 -10.3 -24.5 -10.7 -24.55 -10.9 -24.6 -11.05 -24.6 -11.25 -24.6 -11.45 -24.55 -11.65 -24.45 -11.8" fill="#ffff99" fill-opacity="0.2" fill-rule="evenodd" stroke="none"/>
    <path d="M0.85 16.25 L0.95 16.45 1.0 16.65 0.9 16.8 0.8 16.95 0.55 17.0 Q-0.7 17.0 -1.85 17.45 L-5.7 18.9 -7.15 19.45 -7.4 19.6 -7.65 19.75 -7.9 19.8 -8.4 19.95 -9.05 20.1 -9.95 20.35 -10.25 20.45 -10.55 20.5 -12.05 20.55 -12.05 20.6 -12.8 20.55 -13.3 20.55 -13.8 20.55 -14.25 20.4 -15.05 20.1 -15.8 19.85 -16.25 19.7 -16.5 19.5 -16.75 19.35 -17.1 19.15 -17.45 18.95 -17.6 18.75 -17.75 18.55 -17.8 18.35 -17.8 18.2 -17.75 18.0 -17.8 17.8 -17.8 17.6 -17.8 17.45 -17.7 17.25 -17.6 17.05 -17.45 16.85 -17.2 16.7 -16.8 16.55 -16.25 16.7 -16.05 16.9 -15.85 17.1 -15.7 17.25 -15.5 17.45 -15.3 17.65 -14.8 18.0 -14.7 18.05 -14.45 18.1 -13.95 18.25 -13.75 18.45 -13.65 18.55 -13.05 18.6 -10.45 18.65 -10.0 18.55 -9.45 18.55 -9.2 18.45 -9.0 18.4 -8.75 18.35 -8.3 18.25 -8.0 18.05 -7.6 17.9 -7.25 17.75 -7.05 17.7 -6.6 17.65 -5.75 17.3 -4.75 17.0 -4.1 16.8 -3.6 16.65 -3.1 16.6 -2.8 16.5 -2.35 16.4 -1.7 16.25 -1.15 16.05 -0.7 15.95 0.05 16.0 0.3 16.05 0.55 16.15 0.85 16.25" fill="#ffff99" fill-opacity="0.2" fill-rule="evenodd" stroke="none"/>
    <path d="M12.95 -14.8 L14.2 -14.65 15.25 -14.4 16.1 -13.9 17.65 -12.8 18.5 -11.95 19.55 -10.6 20.85 -10.1 21.55 -9.9 22.15 -9.85 22.75 -9.85 24.1 -8.85 24.8 -8.3 25.4 -7.7 26.0 -6.4 26.3 -4.95 26.35 -3.7 26.5 -2.9 26.6 -2.45 27.4 -1.45 28.15 -0.5 28.8 0.4 29.65 1.75 30.1 2.4 30.7 3.0 30.85 3.85 30.85 4.2 30.85 4.25 30.6 6.1 29.75 6.65 29.45 7.2 28.05 7.75 27.75 7.95 27.5 8.05 27.2 8.4 27.1 8.95 27.0 9.2 26.85 9.5 26.4 10.05 25.45 10.9 Q24.95 11.3 24.4 11.65 L23.0 12.35 21.8 12.85 Q20.7 13.35 20.2 14.6 L19.5 16.25 18.8 17.45 18.45 18.05 17.85 18.6 16.9 19.15 15.45 19.75 13.9 20.25 13.5 20.45 12.95 20.8 12.65 21.0 10.5 21.0 9.7 20.9 8.8 20.55 7.25 20.15 5.8 20.0 4.3 20.0 2.5 20.0 Q1.0 20.3 -0.2 20.9 L-1.05 21.25 -1.8 21.4 -3.2 21.55 -4.55 22.0 -7.05 22.8 -8.75 23.35 -10.15 23.5 -10.85 23.45 -12.15 23.0 -14.3 22.3 -14.6 21.9 -16.0 22.1 -16.3 22.2 -17.2 22.2 -19.05 21.8 -20.95 21.05 -22.45 20.7 -24.0 20.35 -27.15 20.1 -28.6 19.95 -29.4 19.6 -29.85 19.4 -30.55 18.25 -30.75 17.55 -30.75 17.15 -30.8 15.5 -30.75 13.4 -30.65 13.05 -30.3 12.45 -30.7 11.7 -30.45 10.85 -30.75 9.65 -30.9 8.45 -30.9 7.75 -30.75 6.25 -30.65 5.25 -30.6 3.8 -30.55 2.5 -30.4 1.55 -29.6 1.0 -29.2 0.75 -29.1 0.55 -28.3 0.05 -27.8 -0.5 -27.95 -1.75 -27.9 -2.7 -27.9 -3.7 -27.95 -5.75 -27.65 -7.25 -26.95 -8.4 -26.1 -9.4 -25.65 -10.0 -24.85 -10.2 -24.8 -11.5 -24.6 -12.2 -24.2 -12.95 -23.45 -13.9 -22.95 -14.65 -22.25 -15.6 -21.5 -17.2 -20.5 -18.7 -19.95 -19.3 -17.95 -19.45 -16.85 -20.3 -16.3 -20.6 -15.65 -20.8 -14.55 -20.95 -13.5 -20.8 -13.1 -20.55 -11.85 -20.8 -10.8 -21.15 -9.85 -21.5 -8.1 -22.05 -6.45 -22.45 -5.2 -22.6 -3.15 -22.8 -0.65 -23.2 -0.3 -23.5 1.3 -23.5 2.2 -23.4 3.1 -23.2 4.75 -22.65 5.4 -22.45 6.1 -22.15 6.5 -21.75 6.45 -21.4 6.55 -21.15 6.9 -20.7 7.85 -19.5 9.0 -18.05 10.4 -16.55 11.75 -15.35 12.45 -15.05 12.95 -14.8 M1.65 -21.75 L0.75 -21.75 -0.15 -21.15 -2.55 -21.05 -4.45 -20.85 -6.7 -20.35 -7.15 -19.9 -8.55 -19.45 -9.85 -19.2 -11.15 -18.95 -11.75 -18.8 -13.3 -18.6 -14.95 -18.5 -16.7 -18.3 -19.3 -17.85 -20.8 -16.05 -21.0 -15.65 -15.3 -15.85 -15.7 -14.85 -18.8 -14.1 -20.65 -13.75 -22.05 -13.15 -22.65 -12.7 Q-23.4 -11.9 -23.55 -10.95 L-23.5 -10.3 -23.4 -9.75 -23.35 -9.45 Q-23.6 -8.9 -24.0 -8.6 L-24.45 -8.0 -24.7 -7.6 Q-25.55 -7.15 -26.2 -6.2 L-26.35 -1.85 -25.85 -2.45 -24.95 -2.4 -23.5 -3.75 -22.45 -4.85 -21.15 -6.25 -20.55 -7.0 -17.85 -7.0 -16.35 -6.65 Q-15.65 -6.55 -15.05 -6.1 L-14.3 -5.3 Q-14.0 -4.85 -14.05 -4.2 -14.05 -3.8 -13.65 -3.6 L-13.55 -3.45 -13.55 -3.25 -13.6 -3.15 -13.7 -2.95 -13.0 -1.95 -11.7 -1.0 -10.85 -0.65 -10.15 -0.35 Q-9.85 -0.3 -9.65 -0.05 L-8.25 1.8 Q-7.75 2.75 -7.45 4.0 L-7.35 4.5 -7.75 5.2 -8.05 5.45 -8.15 5.65 Q-8.55 5.55 -8.7 4.85 L-8.85 4.35 -9.45 2.65 -9.9 1.7 -10.3 1.15 -11.1 0.85 -12.8 -0.35 -13.85 -1.2 -14.25 -1.7 -14.7 -2.35 -15.1 -2.35 -15.5 -2.5 -15.7 -2.7 -16.05 -4.75 -19.75 -5.15 -21.15 -3.85 -22.35 -2.75 -23.65 -1.4 -24.55 -0.8 -26.2 0.45 -27.35 1.4 -28.05 1.85 -28.35 2.45 -28.45 2.65 -28.65 2.85 -28.95 5.05 -29.0 6.2 -29.1 7.85 -29.05 8.85 -28.8 10.35 -28.35 11.55 -28.45 12.1 -27.65 13.0 -27.0 13.45 -26.6 13.95 -26.35 14.2 -25.7 15.35 -25.0 15.6 -23.65 15.1 -23.0 14.9 -23.2 15.55 -23.5 15.9 -24.0 16.4 -24.45 16.55 -24.85 16.85 -26.1 16.8 -27.2 15.7 -27.4 15.35 -28.7 14.0 -29.0 13.75 -29.35 15.5 -29.45 16.95 -29.4 17.7 -28.9 18.1 -28.3 18.65 -27.7 18.85 -26.0 18.7 -24.5 18.65 -22.9 18.7 -22.1 18.7 Q-20.65 18.9 -19.35 19.7 L-18.45 20.15 -17.6 20.6 -14.9 20.65 Q-15.8 20.05 -16.9 19.6 L-18.15 18.65 -18.6 17.9 -17.75 17.4 Q-16.7 17.4 -15.9 18.05 L-14.6 18.95 -13.7 19.5 -7.75 19.65 -9.05 20.2 -10.3 20.55 -11.6 20.75 -12.25 20.85 -12.65 21.0 -11.1 21.5 -9.6 21.55 -8.1 21.5 -7.4 21.45 -5.3 20.75 -3.5 20.35 -2.85 20.15 -2.5 19.7 Q-1.4 19.7 -0.5 19.15 0.1 18.75 0.8 18.65 L3.9 18.2 3.35 18.9 12.15 19.55 Q12.85 19.05 13.5 18.85 L14.7 18.5 16.45 17.7 17.2 17.35 17.55 17.2 18.35 15.8 18.9 14.65 19.0 14.3 19.05 14.1 19.25 12.8 19.7 12.3 Q20.05 12.05 20.45 11.9 L21.4 11.5 21.95 11.15 22.55 10.8 24.15 9.7 24.9 8.95 24.6 9.0 Q24.8 8.45 25.0 8.45 L25.4 8.35 26.3 7.8 26.9 7.4 28.55 6.25 28.8 6.05 Q29.35 5.0 29.1 3.9 L28.55 2.55 27.6 1.25 26.9 0.35 25.4 -1.25 24.75 -2.2 22.85 -2.6 22.05 -2.1 Q21.2 -1.95 20.55 -2.4 L19.55 -3.1 19.2 -3.5 18.7 -4.05 18.15 -4.85 18.2 -5.75 18.3 -5.9 18.4 -6.05 18.65 -6.3 19.35 -6.4 20.05 -6.1 20.75 -4.95 Q21.0 -4.35 21.5 -3.85 L24.55 -4.1 24.65 -5.55 Q24.3 -6.55 23.2 -7.25 L21.85 -8.1 20.75 -8.65 20.15 -8.7 Q19.1 -8.7 18.5 -9.15 17.55 -9.9 16.75 -11.1 L16.0 -11.9 14.15 -13.2 12.9 -13.9 12.7 -14.1 11.45 -13.95 9.6 -15.45 8.45 -16.45 7.3 -17.65 6.75 -18.25 5.1 -20.1 4.1 -21.2 Q2.9 -21.8 1.65 -21.75 M2.65 -16.25 L2.85 -15.5 Q2.4 -14.75 1.7 -15.3 L-0.15 -16.45 -0.35 -16.75 -0.25 -17.05 0.15 -17.4 Q1.25 -17.3 2.15 -16.65 L2.65 -16.25 M4.3 -15.15 L5.8 -15.2 7.75 -14.85 9.35 -14.6 10.9 -14.15 Q11.35 -13.0 12.35 -12.25 L13.8 -11.1 14.6 -10.1 14.7 -9.7 Q14.2 -9.25 13.75 -9.7 L12.8 -10.75 11.05 -12.15 9.9 -12.8 8.1 -13.3 6.2 -13.6 4.7 -13.15 Q3.85 -13.2 3.1 -13.6 L2.75 -13.8 2.7 -14.15 2.7 -14.65 Q3.45 -15.25 4.3 -15.15 M16.65 -6.75 L17.9 -7.0 18.05 -6.6 18.05 -6.3 Q17.95 -5.85 17.45 -6.0 16.8 -6.1 16.55 -6.45 L16.65 -6.75 M-10.7 -9.55 L-9.55 -10.45 Q-8.75 -11.05 -7.7 -11.1 L-5.9 -10.6 Q-5.15 -10.35 -5.25 -9.9 L-5.35 -9.6 -5.5 -9.45 -5.75 -9.3 -6.75 -9.25 -8.25 -9.25 Q-9.3 -8.95 -10.3 -8.3 -10.6 -8.05 -11.0 -7.95 L-11.3 -7.4 -12.3 -6.85 -12.85 -7.2 -11.7 -8.9 -10.7 -9.55" fill="#333333" fill-rule="evenodd" stroke="none"/>
    <path d="M-19.75 1.55 L-19.8 1.65 -19.95 1.65 -19.95 1.7 -20.15 1.65 -20.2 1.55 -20.25 1.45 -20.25 1.35 -20.25 1.25 -20.25 1.15 -20.25 1.05 -20.4 0.5 -20.6 -0.15 -20.75 -0.65 -20.75 -0.75 -20.75 -0.85 -20.8 -0.9 -20.8 -1.0 -20.8 -1.1 -20.7 -1.2 -20.55 -1.2 -20.45 -1.1 -20.3 -0.9 -20.15 -0.75 -20.0 -0.15 -19.8 0.5 -19.7 0.95 -19.7 1.05 -19.7 1.15 -19.7 1.25 -19.7 1.35 -19.7 1.45 -19.75 1.55" fill="#333333" fill-rule="evenodd" stroke="none"/>
    <path d="M-23.0 -0.45 L-22.95 -0.4 -22.85 -0.3 -22.8 -0.2 -21.95 0.85 -21.4 1.9 -21.15 2.35 -21.15 2.45 -21.1 2.55 -21.1 2.65 -21.0 2.75 -20.95 2.95 -20.85 3.2 -20.8 3.5 -20.8 3.6 -20.8 3.7 -20.8 3.9 -20.85 3.95 -20.9 4.05 -21.0 4.05 -21.05 4.05 -21.15 3.95 -21.2 3.85 -21.2 3.8 -21.2 3.7 -21.25 3.5 -21.3 3.3 -21.35 3.1 -21.4 3.0 -21.45 2.95 -21.5 2.85 -21.5 2.75 -21.55 2.65 -21.6 2.55 -21.65 2.45 -21.65 2.35 -21.95 1.8 -22.3 1.2 -22.45 0.85 -22.8 0.5 -23.05 0.1 -23.05 0.0 -23.15 -0.1 -23.2 -0.2 -23.25 -0.3 -23.3 -0.4 -23.3 -0.45 -23.25 -0.55 -23.1 -0.55 -23.0 -0.45" fill="#333333" fill-rule="evenodd" stroke="none"/>
    <path d="M-24.5 0.2 L-24.45 0.15 -24.3 0.2 -24.25 0.25 -24.2 0.25 -24.0 0.35 -23.9 0.4 -23.8 0.5 -23.75 0.6 -23.65 0.7 -23.65 0.8 -23.6 0.9 -23.55 1.0 -23.55 1.1 -23.55 1.2 -23.6 1.25 -23.6 1.45 -23.7 1.5 -23.75 1.55 -23.85 1.55 -23.85 1.6 -24.0 1.5 -24.1 1.45 -24.15 1.35 -24.15 1.25 -24.15 1.15 -24.15 1.05 -24.3 0.85 -24.4 0.75 -24.4 0.65 -24.45 0.55 -24.45 0.5 -24.5 0.4 -24.55 0.3 -24.5 0.2" fill="#333333" fill-rule="evenodd" stroke="none"/>
    <path d="M-14.0 -1.2 L-14.0 -1.1 -14.0 -0.9 -14.0 -0.7 -14.0 -0.55 -14.0 -0.45 -14.05 -0.35 -14.05 -0.25 -14.1 -0.15 -14.15 -0.05 -14.15 0.05 -14.1 0.15 -14.15 0.2 -14.25 0.3 -14.35 0.4 -14.4 0.45 -14.45 0.5 -14.55 0.5 -14.55 0.55 -14.7 0.45 -14.8 0.35 -14.8 0.3 -14.8 0.2 -14.8 0.1 -14.75 0.0 -14.7 -0.1 -14.65 -0.2 -14.6 -0.3 -14.55 -0.4 -14.55 -0.45 -14.5 -0.55 -14.5 -0.65 -14.5 -0.75 -14.5 -0.95 -14.45 -1.15 -14.4 -1.2 -14.4 -1.3 -14.35 -1.3 -14.25 -1.35 -14.05 -1.3 -14.0 -1.2" fill="#333333" fill-rule="evenodd" stroke="none"/>
    <path d="M-15.55 -1.35 L-15.55 -1.15 -15.55 -1.0 -15.55 -0.9 -15.6 -0.8 -15.65 -0.7 -15.7 -0.6 -15.75 -0.5 -15.85 -0.15 -15.95 0.25 -16.1 0.7 -16.15 0.8 -16.2 0.9 -16.25 1.1 -16.25 1.25 -16.35 1.45 -16.45 1.65 -16.55 1.8 -16.8 2.0 -16.95 2.05 -17.1 2.0 -17.2 1.9 -17.2 1.8 -17.2 1.75 -17.1 1.65 -17.05 1.55 -16.95 1.5 -16.9 1.4 -16.8 1.0 -16.7 0.65 -16.55 0.15 -16.45 0.05 -16.45 0.0 -16.4 -0.2 -16.35 -0.4 -16.35 -0.6 -16.3 -0.7 -16.25 -0.75 -16.2 -0.85 -16.15 -0.95 -16.1 -1.05 -16.1 -1.15 -16.1 -1.25 -16.1 -1.35 -16.1 -1.4 -16.0 -1.6 -15.9 -1.8 -15.8 -1.9 -15.6 -1.95 -15.5 -1.85 -15.55 -1.65 -15.55 -1.35" fill="#333333" fill-rule="evenodd" stroke="none"/>
    <path d="M-18.2 -1.25 L-18.2 -1.15 -18.3 -1.05 -18.25 -0.95 -18.25 -0.85 -18.2 -0.75 -18.2 -0.6 -18.15 -0.5 -18.1 -0.4 -18.05 -0.3 -18.05 -0.2 -18.2 -0.1 -18.3 -0.05 -18.45 -0.05 -18.45 0.0 -18.6 -0.1 -18.65 -0.15 -18.7 -0.25 -18.7 -0.35 -18.7 -0.45 -18.7 -0.65 -18.7 -0.75 -18.7 -0.85 -18.7 -0.95 -18.65 -1.0 -18.6 -1.1 -18.4 -1.15 -18.3 -1.25 -18.2 -1.3 -18.2 -1.25" fill="#333333" fill-rule="evenodd" stroke="none"/>
    <path d="M-26.2 -3.5 L-26.15 -3.45 -26.0 -3.4 -25.95 -3.3 -25.9 -3.2 -25.75 -3.1 -25.55 -3.0 -25.4 -2.9 -25.05 -2.75 -24.95 -2.6 -24.95 -2.55 -24.95 -2.45 -25.05 -2.35 -25.2 -2.3 -25.6 -2.45 -25.95 -2.65 -26.25 -2.95 -26.3 -3.0 -26.35 -3.1 -26.4 -3.2 -26.35 -3.3 -26.4 -3.4 -26.45 -3.5 -26.5 -3.6 -26.45 -3.65 -26.4 -3.65 -26.3 -3.6 -26.2 -3.5" fill="#333333" fill-rule="evenodd" stroke="none"/>
    <path d="M-25.15 -5.85 L-25.05 -5.9 -24.85 -5.85 -24.8 -5.75 -24.8 -5.65 -24.75 -5.55 -24.75 -5.45 -24.7 -5.35 -24.65 -5.25 -24.6 -5.15 -24.55 -5.05 -24.55 -5.0 -24.5 -4.8 -24.4 -4.7 -24.35 -4.6 -24.3 -4.5 -24.3 -4.4 -24.3 -4.2 -24.3 -4.05 -24.35 -3.85 -24.4 -3.8 -24.45 -3.75 -24.6 -3.75 -24.6 -3.7 -24.75 -3.8 -24.8 -3.9 -24.85 -4.0 -24.85 -4.05 -24.85 -4.15 -24.85 -4.25 -24.85 -4.35 -24.9 -4.45 -25.0 -4.65 -25.1 -4.75 -25.1 -4.85 -25.15 -4.9 -25.15 -5.0 -25.2 -5.1 -25.2 -5.2 -25.15 -5.3 -25.2 -5.4 -25.2 -5.5 -25.25 -5.6 -25.25 -5.7 -25.2 -5.75 -25.2 -5.85 -25.15 -5.85" fill="#333333" fill-rule="evenodd" stroke="none"/>
    <path d="M-23.95 -6.1 L-23.8 -6.05 -23.65 -6.0 -23.55 -5.9 -23.55 -5.8 -23.4 -5.7 -23.25 -5.6 -23.2 -5.55 -23.2 -5.45 -23.2 -5.35 -23.2 -5.25 -23.2 -5.15 -23.3 -5.1 -23.3 -5.05 -23.4 -5.05 -23.45 -5.05 -23.55 -5.15 -23.6 -5.25 -23.65 -5.35 -23.8 -5.45 -23.85 -5.55 -23.95 -5.65 -23.95 -5.7 -24.1 -5.8 -24.2 -5.9 -24.2 -6.0 -24.1 -6.1 -23.95 -6.1" fill="#333333" fill-rule="evenodd" stroke="none"/>
    <path d="M-14.7 -15.25 L-14.65 -15.35 -14.65 -15.45 -14.65 -15.55 -14.6 -15.6 -14.5 -15.7 -14.3 -15.8 -14.1 -15.7 -14.05 -15.6 -13.95 -15.5 -13.95 -15.45 -13.95 -15.35 -14.0 -15.25 -14.0 -15.15 -14.0 -15.05 -14.05 -14.95 -14.1 -14.85 -14.15 -14.75 -14.2 -14.7 -14.25 -14.6 -14.3 -14.5 -14.35 -14.4 -14.6 -14.35 -14.75 -14.4 -14.85 -14.5 -14.9 -14.6 -14.9 -14.7 -14.9 -14.8 -14.9 -14.85 -14.85 -14.95 -14.8 -15.05 -14.75 -15.15 -14.7 -15.25" fill="#333333" fill-rule="evenodd" stroke="none"/>
    <path d="M-13.65 -14.45 L-13.5 -14.5 -13.45 -14.6 -13.4 -14.7 -13.3 -14.9 -13.2 -15.1 -13.05 -15.15 -12.95 -15.25 -12.85 -15.35 -12.8 -15.4 -12.6 -15.45 -12.5 -15.5 -12.35 -15.45 -12.35 -15.35 -12.4 -15.25 -12.4 -15.15 -12.6 -14.75 -12.9 -14.35 Q-13.0 -14.05 -13.25 -13.9 L-13.4 -13.85 -13.55 -13.85 -13.7 -13.9 -13.8 -14.0 -13.85 -14.1 -13.85 -14.2 -13.8 -14.3 -13.75 -14.4 -13.65 -14.45" fill="#333333" fill-rule="evenodd" stroke="none"/>
    <path d="M-11.0 -14.4 L-10.85 -14.45 -10.75 -14.55 -10.7 -14.6 -10.6 -14.65 -10.6 -14.55 -10.65 -14.45 -10.7 -14.35 -10.65 -14.25 -10.65 -14.15 -10.7 -14.1 -10.75 -14.0 -10.75 -13.9 -10.85 -13.8 -11.1 -13.6 -11.25 -13.45 -11.4 -13.45 -11.4 -13.4 -11.55 -13.5 -11.6 -13.6 -11.65 -13.7 -11.6 -13.75 -11.55 -13.85 -11.5 -13.95 -11.45 -14.05 -11.4 -14.1 -11.4 -14.15 -11.2 -14.15 -11.1 -14.25 -11.05 -14.35 -11.0 -14.4" fill="#333333" fill-rule="evenodd" stroke="none"/>
    <path d="M7.95 -16.75 L8.1 -16.85 8.25 -16.75 8.3 -16.7 8.35 -16.6 8.35 -16.5 8.35 -16.4 8.35 -16.3 8.3 -16.2 8.3 -16.1 8.35 -16.0 8.35 -15.95 8.35 -15.85 8.3 -15.75 8.25 -15.65 8.25 -15.55 8.25 -15.45 8.3 -15.35 8.3 -15.25 8.3 -15.2 8.2 -15.1 8.05 -15.0 8.0 -14.9 7.8 -14.85 7.6 -14.9 7.5 -15.0 7.5 -15.1 7.45 -15.2 7.45 -15.3 7.45 -15.35 7.45 -15.45 7.5 -15.55 7.5 -15.65 7.55 -15.75 7.6 -15.95 7.7 -16.05 7.7 -16.1 7.7 -16.2 7.7 -16.3 7.8 -16.4 7.85 -16.5 7.85 -16.6 7.9 -16.7 7.95 -16.75" fill="#333333" fill-rule="evenodd" stroke="none"/>
    <path d="M5.45 -16.55 L5.65 -16.85 5.8 -17.0 5.8 -17.1 5.8 -17.2 5.85 -17.3 5.9 -17.4 5.9 -17.5 5.9 -17.6 5.9 -17.7 5.95 -17.75 6.1 -17.85 6.15 -17.95 6.3 -18.0 6.5 -17.95 6.5 -17.65 6.55 -17.3 6.5 -17.0 6.5 -16.9 6.35 -16.65 6.1 -16.3 5.9 -16.0 5.75 -15.9 5.65 -15.8 5.5 -15.6 5.45 -15.5 5.4 -15.45 5.3 -15.35 5.1 -15.3 5.1 -15.25 4.95 -15.35 4.85 -15.45 4.8 -15.55 4.8 -15.6 4.8 -15.7 4.85 -15.8 4.9 -15.9 4.95 -16.0 5.1 -16.2 5.35 -16.35 5.45 -16.55" fill="#333333" fill-rule="evenodd" stroke="none"/>
    <path d="M5.1 -18.4 L5.15 -18.3 5.15 -18.2 5.1 -18.1 5.05 -18.0 5.0 -17.9 4.95 -17.8 4.85 -17.65 4.5 -17.25 4.25 -16.95 4.25 -16.9 4.2 -16.8 4.1 -16.7 3.95 -16.7 3.95 -16.65 3.75 -16.75 3.6 -16.85 3.55 -16.95 3.5 -17.0 3.65 -17.3 4.1 -17.75 4.4 -18.15 4.55 -18.2 4.75 -18.3 4.8 -18.4 4.95 -18.45 5.1 -18.4" fill="#333333" fill-rule="evenodd" stroke="none"/>
    <path d="M2.75 -20.1 L2.8 -20.0 2.8 -19.9 2.7 -19.8 2.65 -19.75 2.6 -19.65 2.6 -19.55 2.55 -19.45 2.55 -19.35 2.5 -19.25 2.35 -19.25 2.3 -19.25 2.2 -19.3 2.2 -19.4 2.2 -19.5 2.25 -19.7 2.25 -19.8 2.3 -19.9 2.35 -20.0 2.5 -20.05 2.75 -20.1" fill="#333333" fill-rule="evenodd" stroke="none"/>
    <path d="M17.4 7.2 L17.5 7.0 17.6 6.85 17.7 6.75 17.75 6.85 17.75 6.9 17.85 7.0 17.8 7.1 17.8 7.2 17.8 7.3 17.8 7.4 17.8 7.5 17.8 7.6 17.8 7.65 17.7 7.75 17.6 7.85 17.55 7.85 17.45 7.9 17.3 7.85 17.25 7.75 17.2 7.65 17.2 7.55 17.2 7.45 17.35 7.35 17.35 7.3 17.4 7.2" fill="#333333" fill-rule="evenodd" stroke="none"/>
    <path d="M15.65 6.6 L15.95 6.3 16.0 6.2 16.1 6.1 16.3 6.05 16.4 6.0 16.45 6.05 16.45 6.15 16.45 6.25 16.45 6.35 16.4 6.45 16.35 6.55 16.3 6.6 16.25 6.7 15.8 7.45 15.25 8.2 14.85 8.6 14.8 8.75 14.6 9.05 14.35 9.35 14.3 9.4 14.25 9.5 14.2 9.5 14.1 9.55 13.95 9.45 13.9 9.4 Q13.8 9.2 13.95 9.0 L14.25 8.65 14.45 8.35 14.45 8.25 14.5 8.15 14.7 7.9 15.05 7.5 15.25 7.35 15.45 6.95 15.65 6.6" fill="#333333" fill-rule="evenodd" stroke="none"/>
    <path d="M14.7 5.7 L14.7 5.8 14.65 5.9 14.65 6.0 14.65 6.05 14.7 6.15 14.7 6.25 14.65 6.35 14.6 6.45 14.55 6.55 14.5 6.65 14.5 6.75 14.5 6.8 14.45 6.9 14.4 7.0 14.25 7.3 14.0 7.55 13.8 7.75 13.75 7.85 13.7 7.9 13.7 7.95 13.55 7.95 13.4 7.9 13.35 7.8 13.3 7.7 13.25 7.6 13.25 7.55 13.3 7.45 13.35 7.35 13.5 7.25 13.7 7.05 13.8 6.95 13.8 6.9 13.9 6.8 13.9 6.7 13.95 6.6 14.0 6.5 14.05 6.4 14.2 6.2 14.35 6.05 14.45 5.95 14.5 5.9 14.55 5.8 14.65 5.7 14.7 5.7" fill="#333333" fill-rule="evenodd" stroke="none"/>
    <path d="M11.85 6.3 L11.85 6.2 11.9 6.1 11.9 6.0 11.95 5.9 12.0 5.8 12.1 5.75 12.2 5.85 12.25 5.9 12.25 6.0 12.25 6.1 12.2 6.2 12.15 6.3 12.15 6.4 12.1 6.45 12.0 6.5 11.95 6.5 11.85 6.4 11.85 6.3" fill="#333333" fill-rule="evenodd" stroke="none"/>
    <path d="M-6.6 19.15 L-6.2 19.05 -5.55 19.0 -5.45 18.9 -5.25 18.9 -5.1 18.85 -4.95 18.9 -4.9 19.0 -4.85 19.1 -4.9 19.15 -4.95 19.25 -5.25 19.45 -5.4 19.55 -5.6 19.6 -6.2 19.6 -6.45 19.6 -6.6 19.55 -6.65 19.55 -6.9 19.45 -6.95 19.35 -6.95 19.3 -6.95 19.25 -6.85 19.2 -6.6 19.15" fill="#333333" fill-rule="evenodd" stroke="none"/>
    <path d="M23.35 -5.2 L23.35 -5.1 23.35 -5.05 23.35 -4.95 23.3 -4.85 23.25 -4.75 23.25 -4.65 23.2 -4.55 23.1 -4.45 23.05 -4.35 23.0 -4.3 22.95 -4.2 22.9 -4.1 22.85 -4.0 22.8 -3.9 22.7 -3.8 22.65 -3.7 22.65 -3.6 22.55 -3.55 22.4 -3.5 22.35 -3.45 22.2 -3.55 22.15 -3.65 22.15 -3.7 22.15 -3.8 22.25 -4.0 22.4 -4.2 22.5 -4.45 22.8 -4.85 23.0 -5.15 23.1 -5.2 23.2 -5.3 23.3 -5.3 23.35 -5.2" fill="#333333" fill-rule="evenodd" stroke="none"/>
    <path d="M20.65 -4.5 L20.7 -4.6 20.8 -4.7 20.95 -4.75 21.05 -4.85 21.2 -5.05 21.45 -5.35 21.55 -5.5 21.65 -5.6 21.75 -5.65 21.85 -5.6 21.95 -5.5 21.95 -5.4 22.0 -5.35 21.95 -5.25 21.95 -5.15 21.9 -5.05 21.8 -4.85 21.6 -4.65 21.5 -4.5 21.4 -4.4 21.3 -4.3 21.15 -4.2 21.05 -4.1 20.95 -4.0 20.8 -3.95 20.45 -3.75 20.25 -3.7 20.1 -3.75 20.0 -3.85 20.0 -3.95 20.0 -4.05 20.05 -4.1 20.1 -4.2 20.3 -4.3 20.65 -4.5" fill="#333333" fill-rule="evenodd" stroke="none"/>
    <path d="M20.1 -5.65 L20.0 -5.55 19.9 -5.45 19.8 -5.45 19.75 -5.45 19.75 -5.4 19.6 -5.5 19.55 -5.55 19.6 -5.6 19.65 -5.6 19.65 -5.55 19.9 -5.6 20.1 -5.65" fill="#ab98a0" fill-rule="evenodd" stroke="none"/>
  </g>
</svg>
