<?xml version="1.0" encoding="UTF-8" standalone="no"?>
<svg xmlns:xlink="http://www.w3.org/1999/xlink" height="1153.9px" width="1153.9px" xmlns="http://www.w3.org/2000/svg">
  <g transform="matrix(1.0, 0.0, 0.0, 1.0, 576.95, 576.95)">
    <path d="M80.6 -80.6 Q47.2 -114.0 0.0 -114.0 -47.2 -114.0 -80.6 -80.6 -114.0 -47.2 -114.0 0.0 -114.0 47.2 -80.6 80.6 -47.2 114.0 0.0 114.0 47.2 114.0 80.6 80.6 114.0 47.2 114.0 0.0 114.0 -47.2 80.6 -80.6 M407.95 -408.0 Q576.95 -239.0 576.95 0.0 576.95 239.0 407.95 407.95 239.0 576.95 0.0 576.95 -239.0 576.95 -408.0 407.95 -576.95 239.0 -576.95 0.0 -576.95 -239.0 -408.0 -408.0 -239.0 -576.95 0.0 -576.95 239.0 -576.95 407.95 -408.0" fill="#cc33ff" fill-opacity="0.40392157" fill-rule="evenodd" stroke="none"/>
  </g>
</svg>
