<?xml version="1.0" encoding="UTF-8" standalone="no"?>
<svg xmlns:xlink="http://www.w3.org/1999/xlink" height="60.1px" width="60.0px" xmlns="http://www.w3.org/2000/svg">
  <g transform="matrix(1.0, 0.0, 0.0, 1.0, -2.25, -2.2)">
    <path d="M48.2 7.65 Q45.85 6.2 42.95 5.05 L38.85 3.35 32.25 3.0 Q28.8 3.05 25.85 3.85 L20.4 5.55 Q17.9 6.45 16.55 7.15 15.25 7.85 11.55 11.55 L8.4 16.25 Q6.55 18.7 5.6 21.25 L4.25 25.55 Q3.85 27.25 3.0 32.25 3.2 35.05 3.95 37.65 L5.65 43.35 Q6.65 46.45 7.6 47.75 L11.55 52.9 16.65 56.1 21.55 58.95 25.65 61.05 32.25 61.5 37.9 60.65 Q40.9 59.95 43.65 58.7 46.45 57.45 47.95 57.1 49.45 56.75 52.9 52.9 55.55 51.1 57.05 48.65 58.55 46.25 59.05 43.2 59.6 40.2 60.15 38.85 60.75 37.55 61.5 32.25 61.25 29.3 60.6 26.4 59.95 23.5 58.55 20.6 L56.65 16.55 Q56.15 15.4 52.9 11.55 50.55 9.15 48.2 7.65 Z" fill="none" stroke="#e66b7f" stroke-linecap="round" stroke-linejoin="round" stroke-opacity="0.5019608" stroke-width="1.5"/>
  </g>
</svg>
