<?xml version="1.0" encoding="UTF-8" standalone="no"?>
<svg xmlns:xlink="http://www.w3.org/1999/xlink" height="46.8px" width="46.8px" xmlns="http://www.w3.org/2000/svg">
  <g transform="matrix(1.0, 0.0, 0.0, 1.0, -1.6, -1.6)">
    <path d="M41.0 8.95 L36.35 6.25 32.35 3.7 Q30.7 2.55 25.0 2.35 L19.6 3.2 Q16.55 3.55 15.45 4.75 14.35 5.95 8.95 8.95 L5.4 13.9 Q3.5 16.55 3.15 17.8 2.8 19.05 2.35 25.0 2.5 27.85 3.3 30.8 L4.6 34.85 Q5.1 35.95 8.95 41.0 11.25 43.2 13.8 44.25 16.4 45.3 17.75 46.1 19.1 46.95 25.0 47.65 27.85 47.5 31.15 46.55 L35.5 45.3 Q36.55 44.95 41.0 41.0 43.55 39.1 44.65 36.25 45.8 33.4 46.65 32.05 47.5 30.75 47.65 25.0 47.25 22.05 46.5 19.2 45.8 16.35 44.9 15.1 L41.0 8.95 Z" fill="none" stroke="#90c7b7" stroke-linecap="round" stroke-linejoin="round" stroke-opacity="0.5019608" stroke-width="1.5"/>
  </g>
</svg>
