<?xml version="1.0" encoding="UTF-8" standalone="no"?>
<svg xmlns:xlink="http://www.w3.org/1999/xlink" height="35.2px" width="47.1px" xmlns="http://www.w3.org/2000/svg">
  <g transform="matrix(1.0, 0.0, 0.0, 1.0, 0.55, 0.55)">
    <path d="M46.0 19.9 L6.9 19.9 6.9 13.6 46.0 13.6 46.0 19.9" fill="#e66b7f" fill-rule="evenodd" stroke="none"/>
    <path d="M45.6 16.15 Q45.55 14.95 45.85 14.6 46.2 14.3 46.0 13.6 L43.95 13.55 41.9 13.75 39.75 13.8 38.05 13.65 36.0 13.55 33.85 13.65 32.0 13.75 29.85 13.75 27.9 13.9 26.0 13.7 23.75 13.5 21.75 13.65 19.9 13.9 18.0 13.85 15.85 13.9 13.95 13.65 Q13.4 13.2 12.35 13.3 L10.35 13.3 8.7 13.4 6.9 13.6 6.9 15.7 6.7 17.6 6.75 19.0 6.9 19.9 9.05 20.0 10.9 19.9 12.85 19.85 14.95 19.9 17.15 19.8 18.9 20.0 20.8 20.1 23.0 19.65 25.05 19.6 27.1 19.85 29.2 19.75 31.25 19.7 33.1 19.7 35.1 19.75 37.1 20.0 39.0 20.0 40.85 19.9 42.9 19.85 44.5 19.95 46.0 19.9 45.85 18.2 45.6 16.15 Z" fill="none" stroke="#e66b7f" stroke-linecap="round" stroke-linejoin="round" stroke-width="1.0"/>
    <path d="M20.3 4.2 L8.5 16.8 20.55 30.35 15.55 34.15 0.0 16.7 15.7 0.0 20.3 4.2" fill="#e66b7f" fill-rule="evenodd" stroke="none"/>
    <path d="M17.15 1.7 Q16.25 1.25 16.0 0.55 L15.7 0.0 Q15.45 0.75 14.3 1.3 13.15 1.9 12.75 3.0 12.35 4.15 11.4 4.85 L10.0 5.95 8.8 7.35 7.2 9.0 5.8 10.5 4.45 11.8 Q3.65 12.25 2.95 13.3 L1.5 15.2 Q0.7 16.1 0.25 16.1 -0.15 16.15 0.0 16.7 0.15 17.5 1.05 18.15 L2.6 19.85 Q3.3 20.9 3.95 21.4 L5.15 22.45 6.35 24.0 7.65 25.55 9.1 27.2 Q9.85 28.25 10.55 28.8 L11.9 30.25 13.25 31.8 14.2 32.9 Q14.5 33.4 15.55 34.15 L17.15 33.0 18.9 31.75 20.15 30.8 20.55 30.35 19.25 28.95 18.05 27.6 16.7 26.0 15.3 24.2 13.8 22.7 12.35 21.35 11.2 19.85 10.05 18.4 9.0 17.25 8.5 16.8 9.75 15.35 11.1 14.2 12.7 12.6 14.1 11.05 15.25 9.6 16.8 7.85 18.5 6.4 Q19.15 6.0 19.2 5.5 19.25 5.0 20.3 4.2 L18.8 2.8 17.15 1.7 Z" fill="none" stroke="#e66b7f" stroke-linecap="round" stroke-linejoin="round" stroke-width="1.0"/>
  </g>
</svg>
