<?xml version="1.0" encoding="UTF-8" standalone="no"?>
<svg xmlns:xlink="http://www.w3.org/1999/xlink" height="28.35px" width="48.75px" xmlns="http://www.w3.org/2000/svg">
  <g transform="matrix(1.0, 0.0, 0.0, 1.0, 24.95, 0.5)">
    <path d="M23.0 7.3 L23.0 27.0 -24.05 27.0 -24.05 7.3 -7.25 7.3 0.05 0.0 7.35 7.3 23.0 7.3" fill="#65b3a0" fill-rule="evenodd" stroke="none"/>
    <path d="M22.95 11.35 Q22.65 12.3 22.75 13.3 L22.85 15.5 23.05 17.45 Q23.3 18.2 23.05 19.3 22.8 20.4 23.0 21.15 23.25 21.9 23.1 23.1 L22.9 24.8 23.0 27.0 21.2 27.15 19.05 27.25 17.0 27.0 Q16.0 26.8 15.0 27.0 L13.05 27.1 11.05 26.95 9.05 27.2 7.0 27.35 5.2 27.0 3.25 26.75 0.85 26.75 -1.1 26.85 -2.8 26.95 -4.95 26.85 -6.95 26.75 -8.9 26.85 -10.95 27.05 -12.7 27.0 -14.8 26.95 -17.0 26.95 -19.0 26.95 -21.3 27.1 -22.65 27.05 -24.05 27.0 Q-24.4 25.6 -24.25 24.85 -24.05 24.15 -24.2 23.05 L-24.45 20.8 -24.35 18.8 -24.1 16.9 -24.05 14.75 -24.1 12.75 -24.1 10.85 -24.05 9.65 -24.05 7.3 -22.05 7.35 -20.3 7.3 -18.35 7.35 -16.2 7.2 -14.1 7.2 -12.15 7.3 -10.1 7.3 -8.45 7.3 -7.25 7.3 -6.5 6.5 -5.65 5.55 -4.25 4.55 Q-3.3 3.9 -2.9 2.8 -2.5 1.75 -1.35 1.2 -0.2 0.7 0.05 0.0 L0.7 0.65 1.8 1.7 3.2 2.85 4.45 4.25 Q5.05 5.2 5.95 5.7 6.9 6.2 7.35 7.3 L9.35 7.1 11.25 7.05 Q12.4 6.85 13.4 7.05 L15.4 7.3 17.35 7.3 19.45 7.3 21.05 7.2 23.0 7.3 Q23.35 8.2 23.3 9.3 23.3 10.4 22.95 11.35 M-7.25 7.3 L-8.65 8.7 Q-7.95 9.15 -6.85 9.1 L-4.8 8.75 -2.7 8.55 -0.6 8.65 1.35 8.45 Q2.35 8.25 3.35 8.45 L5.4 8.7 7.05 8.55 8.25 8.6 7.35 7.3 M8.75 8.7 L8.25 8.6" fill="none" stroke="#65b3a0" stroke-linecap="round" stroke-linejoin="round" stroke-width="1.0"/>
  </g>
</svg>
