<?xml version="1.0" encoding="UTF-8" standalone="no"?>
<svg xmlns:xlink="http://www.w3.org/1999/xlink" height="67.05px" width="66.75px" xmlns="http://www.w3.org/2000/svg">
  <g transform="matrix(1.0, 0.0, 0.0, 1.0, -2.6, -2.35)">
    <path d="M60.75 15.15 L58.85 12.85 54.3 8.95 Q51.8 6.8 49.45 5.85 L43.9 4.0 Q40.75 3.1 39.15 3.1 L35.9 3.35 30.4 4.05 Q27.5 4.55 24.5 6.0 21.5 7.45 18.85 8.95 L15.1 11.25 12.85 12.85 9.0 17.6 Q6.9 20.05 5.8 22.8 4.7 25.55 3.9 28.2 3.1 30.9 3.45 32.95 3.85 35.05 3.35 35.9 L4.4 41.85 Q4.75 44.85 5.85 47.55 6.95 50.3 8.35 52.85 L10.85 56.8 12.85 58.85 Q14.65 60.85 17.3 62.7 20.0 64.55 22.8 65.45 L28.4 66.95 Q31.25 67.5 32.95 68.2 L35.9 68.4 41.75 67.6 Q44.8 67.1 47.65 66.0 50.55 64.9 52.65 63.35 L56.0 60.6 Q57.25 59.45 58.85 58.85 60.8 57.1 62.15 54.4 L65.15 49.1 Q66.8 46.45 67.05 43.35 67.3 40.3 68.1 39.0 68.95 37.7 68.4 35.9 68.2 33.15 67.6 30.05 67.05 26.95 66.0 24.05 65.0 21.15 63.4 18.9 L60.75 15.15 Z" fill="none" stroke="#e66b7f" stroke-linecap="round" stroke-linejoin="round" stroke-opacity="0.5019608" stroke-width="1.5"/>
  </g>
</svg>
