<?xml version="1.0" encoding="UTF-8" standalone="no"?>
<svg xmlns:xlink="http://www.w3.org/1999/xlink" height="21.75px" width="6.85px" xmlns="http://www.w3.org/2000/svg">
  <g transform="matrix(1.0, 0.0, 0.0, 1.0, 3.4, 10.85)">
    <path d="M0.8 -9.15 L0.85 -8.45 0.95 -8.4 Q2.25 -12.15 2.85 -6.85 L3.3 0.6 3.45 6.0 Q3.25 10.9 1.3 10.9 0.6 10.9 0.4 10.55 L0.35 10.2 0.7 9.45 0.75 9.4 Q0.2 9.25 -0.25 9.9 -0.75 10.55 -1.15 10.55 -1.85 10.55 -2.15 9.9 L-2.3 9.15 -2.35 9.1 -3.0 8.45 -3.35 7.7 Q-3.55 3.15 -3.0 -2.2 -2.4 -8.9 -1.05 -10.85 L-0.75 -10.55 -0.9 -9.75 -0.95 -8.8 Q-0.5 -9.55 0.15 -9.55 0.8 -9.55 0.8 -9.15 M-0.4 -7.35 L-0.45 -7.35 -0.5 -7.05 -0.5 -7.0 -0.4 -7.35 M-1.4 1.0 L-1.3 5.05 -1.2 7.1 -0.95 6.75 Q-0.75 2.55 -0.95 -3.8 L-1.4 1.0 M2.1 7.0 Q1.55 7.65 1.05 9.15 L1.05 9.2 Q1.85 8.85 2.0 8.15 L2.1 7.0 M0.5 5.85 L0.55 6.75 1.05 4.9 0.75 3.7 0.5 5.85 M-1.1 8.85 L-1.15 8.85 -1.15 8.95 -1.1 8.85" fill="#333333" fill-rule="evenodd" stroke="none"/>
  </g>
</svg>
