<?xml version="1.0" encoding="UTF-8" standalone="no"?>
<svg xmlns:xlink="http://www.w3.org/1999/xlink" height="21.9px" width="7.2px" xmlns="http://www.w3.org/2000/svg">
  <g transform="matrix(1.0, 0.0, 0.0, 1.0, 3.8, 11.2)">
    <path d="M0.95 -4.4 L1.15 -2.3 0.75 2.5 0.55 5.0 0.3 7.25 Q0.3 7.7 0.6 8.55 1.3 7.7 1.45 5.2 L1.45 1.3 1.45 -1.1 1.0 -4.4 0.95 -4.4 M3.35 -1.55 L3.3 4.25 Q2.85 9.7 1.6 9.7 L1.4 9.7 Q0.75 10.7 -0.25 10.7 -2.2 10.7 -3.2 8.3 -3.8 6.85 -3.8 5.65 -3.85 2.5 -2.9 -2.55 L-1.25 -10.6 -1.05 -10.75 -0.85 -9.0 Q-0.85 -8.25 -1.75 -4.95 L-1.75 -4.85 -0.85 -6.65 Q0.05 -8.35 0.05 -8.9 L-0.15 -9.2 -0.4 -9.55 Q-0.45 -13.3 1.2 -8.5 L1.25 -10.0 1.5 -10.0 Q3.05 -7.7 3.35 -1.55 M-2.45 -0.35 L-2.45 -0.3 Q-1.9 -2.4 -2.0 -3.05 L-2.1 -2.95 -2.45 -0.35 M-2.55 2.9 L-2.9 4.35 -2.95 5.65 Q-2.95 7.05 -2.5 7.75 L-2.4 7.75 -2.55 2.9" fill="#333333" fill-rule="evenodd" stroke="none"/>
  </g>
</svg>
