<?xml version="1.0" encoding="UTF-8" standalone="no"?>
<svg xmlns:xlink="http://www.w3.org/1999/xlink" height="24.4px" width="26.7px" xmlns="http://www.w3.org/2000/svg">
  <g transform="matrix(1.0, 0.0, 0.0, 1.0, 13.0, 11.55)">
    <path d="M8.5 -9.35 L8.75 -9.2 8.95 -9.05 9.1 -8.9 9.35 -8.75 9.55 -8.6 9.7 -8.5 9.8 -8.35 9.9 -8.2 9.95 -8.05 10.0 -7.9 10.0 -7.75 10.0 -7.65 10.0 -7.5 10.1 -7.35 10.2 -7.2 10.3 -7.05 10.35 -6.9 10.45 -6.8 10.5 -6.65 10.6 -6.5 10.65 -6.35 10.8 -6.2 10.95 -6.05 11.05 -5.95 11.15 -5.8 11.25 -5.65 11.4 -5.5 11.55 -5.35 11.65 -5.2 11.8 -5.05 11.8 -4.95 11.9 -4.8 11.95 -4.65 12.0 -4.5 12.1 -4.35 12.1 -4.2 12.15 -4.1 12.15 -3.95 12.15 -3.8 12.15 -3.65 12.15 -3.5 12.15 -3.35 12.2 -3.25 12.25 -3.1 12.3 -2.95 12.4 -2.8 12.5 -2.65 12.55 -2.5 12.65 -2.35 12.65 -2.25 12.7 -2.1 12.75 -1.95 12.8 -1.8 12.85 -1.65 12.85 -1.5 12.9 -1.4 12.9 -1.25 12.9 -1.1 12.9 -0.95 12.95 -0.8 12.95 -0.65 13.0 -0.55 13.0 -0.4 13.05 -0.25 13.05 -0.1 13.1 0.05 13.1 0.2 13.1 0.6 13.1 1.05 13.1 1.6 13.1 2.3 13.05 2.45 13.0 2.6 13.0 2.75 12.95 2.9 12.9 3.0 12.85 3.15 12.8 3.3 12.7 3.45 12.7 3.6 12.6 3.75 12.5 3.9 12.4 4.0 12.25 4.15 12.15 4.3 12.0 4.45 11.8 4.6 11.75 4.75 11.7 4.85 11.7 5.0 11.7 5.15 11.6 5.3 11.55 5.45 11.45 5.6 11.4 5.7 11.3 5.85 11.25 6.0 11.15 6.15 11.1 6.3 11.0 6.45 10.95 6.55 10.9 6.7 10.85 6.85 10.75 7.0 10.65 7.15 10.6 7.3 10.45 7.45 10.35 7.55 10.15 7.7 8.85 8.65 5.95 10.15 5.75 10.25 5.7 10.4 5.15 11.15 Q4.2 12.15 2.8 12.4 L-1.05 12.2 -2.15 11.75 -3.8 11.6 -5.75 11.1 Q-6.7 10.85 -7.3 10.05 L-7.5 9.9 -7.65 9.75 -7.8 9.6 -7.9 9.45 -8.0 9.3 -8.05 9.2 -8.1 9.05 -8.15 8.9 -8.15 8.75 -8.15 8.6 -8.15 8.45 -8.15 8.35 -8.15 8.2 -8.15 8.05 -8.15 7.75 -8.15 7.5 -8.25 7.5 -8.8 7.25 -9.1 7.1 -9.3 6.95 -9.5 6.8 -9.65 6.75 -9.85 6.75 -10.15 6.7 -10.45 6.6 -10.65 6.5 -10.8 6.35 -10.95 6.2 -11.05 6.05 -11.1 5.9 -11.25 5.75 -11.45 5.6 -11.8 5.35 -12.05 5.05 -12.35 4.75 -12.6 4.5 -12.65 4.35 -12.7 4.2 -12.75 4.05 -12.8 3.9 -12.8 3.8 -12.85 3.65 -12.85 3.5 -12.85 3.35 -12.85 3.2 -12.85 3.05 -12.85 2.95 -12.85 2.8 -12.9 2.65 -12.95 2.5 -13.0 2.35 -13.0 2.2 -13.0 1.95 -13.0 1.65 -13.0 1.35 -13.0 0.95 -13.0 0.65 -12.95 0.5 -12.9 0.25 -12.8 -0.05 -12.75 -0.35 -12.6 -0.75 -12.55 -0.9 -12.45 -1.05 -12.15 -1.45 -11.8 -1.9 -11.25 -2.6 -10.95 -3.05 -11.0 -3.2 -11.05 -3.3 -11.15 -3.45 -11.25 -3.6 -11.3 -3.75 -11.35 -3.9 -11.35 -4.05 -11.35 -4.15 -11.35 -4.3 -11.35 -4.45 -11.35 -4.6 -11.35 -4.75 -11.35 -5.05 -11.35 -5.15 -11.4 -5.3 -11.4 -5.45 -11.4 -5.6 -11.4 -5.75 -11.35 -5.9 -11.35 -6.0 -11.25 -6.15 -11.2 -6.3 -11.15 -6.45 -11.1 -6.6 -11.0 -6.75 -10.95 -6.85 -10.9 -7.0 -10.9 -7.15 -10.85 -7.3 -10.8 -7.45 -10.75 -7.6 -10.65 -7.7 -10.5 -8.0 -10.3 -8.3 -10.05 -8.55 -9.65 -9.0 -9.35 -9.15 -9.05 -9.3 -8.95 -9.45 -8.45 -10.0 -7.1 -10.95 -6.0 -11.5 -5.7 -11.55 -3.6 -11.45 Q-2.75 -11.4 -2.0 -10.85 L-1.45 -10.3 -1.4 -10.15 -1.3 -10.0 -1.25 -9.85 -1.2 -9.7 -1.2 -9.6 -0.65 -9.5 -0.35 -9.45 -0.15 -9.45 0.0 -9.4 0.3 -9.45 0.55 -9.55 0.7 -9.7 0.8 -9.85 0.9 -10.0 1.05 -10.15 1.3 -10.3 1.6 -10.4 1.8 -10.5 1.95 -10.55 5.75 -10.75 6.7 -10.4 6.9 -10.3 7.35 -10.0 7.85 -9.7 8.15 -9.45 8.2 -9.45 8.5 -9.35" fill="#5b5546" fill-opacity="0.3019608" fill-rule="evenodd" stroke="none"/>
    <path d="M0.3 -0.4 L0.4 -0.25 0.45 -0.15 0.5 -0.1 0.8 -0.05 1.05 0.0 1.3 0.1 1.55 0.25 1.75 0.35 1.85 0.5 1.95 0.65 2.1 0.8 2.2 0.95 2.4 1.2 2.6 1.5 2.65 1.65 2.75 1.8 2.8 1.95 2.85 2.1 2.9 2.2 2.95 2.35 3.0 2.5 3.0 2.65 3.0 2.8 3.0 2.95 3.05 3.05 3.15 3.2 3.25 3.3 3.4 3.3 3.9 3.3 4.2 3.35 4.55 3.45 4.7 3.6 4.9 3.75 5.05 3.9 5.15 4.0 5.25 4.15 5.35 4.3 5.4 4.45 5.45 4.6 5.55 4.75 5.55 4.8 5.85 4.85 6.15 4.9 6.45 4.95 6.65 5.1 6.85 5.25 7.0 5.3 7.2 5.2 7.3 5.05 7.5 4.95 7.6 4.9 7.85 4.85 8.15 4.8 8.4 4.9 8.75 4.95 8.95 5.1 9.1 5.25 9.25 5.4 9.35 5.55 9.4 5.65 9.45 5.8 9.5 5.95 9.55 6.1 9.55 6.25 9.55 6.4 9.55 6.55 9.5 6.65 9.5 6.8 9.4 6.95 9.35 7.1 9.25 7.25 9.15 7.35 9.05 7.5 8.9 7.65 8.55 7.95 8.35 8.1 8.0 8.25 7.6 8.4 7.35 8.55 7.15 8.65 7.1 8.8 7.05 8.95 6.5 9.65 Q5.75 10.4 4.7 10.55 L2.9 10.35 2.6 10.45 2.4 10.55 1.45 10.85 -0.5 11.0 -0.85 10.95 Q-1.7 11.4 -2.65 11.25 -3.75 11.1 -4.4 10.2 L-4.95 9.9 -5.3 9.65 -5.75 9.2 -6.05 8.8 -6.1 8.65 -6.15 8.5 -6.25 8.4 -6.4 8.25 -6.85 7.95 -7.45 7.55 -8.25 6.8 -8.35 6.65 -8.7 6.55 -9.0 6.4 -9.2 6.25 -9.5 5.95 -9.65 5.8 -9.9 5.5 -10.1 5.25 -10.15 5.1 -10.2 4.95 -10.2 4.8 -10.25 4.7 -10.45 4.55 -10.7 4.4 -10.85 4.25 -11.0 4.1 -11.1 3.95 -11.2 3.85 -11.2 3.7 -11.25 3.55 -11.25 3.4 -11.25 3.1 -11.25 2.85 -11.25 2.25 -11.25 1.7 -11.25 1.55 -11.2 1.4 -11.2 1.25 -11.1 1.15 -11.1 1.0 -11.1 0.85 -11.1 0.7 -11.05 0.55 -11.05 0.4 -11.0 0.3 -10.95 0.15 -10.9 0.0 -10.8 -0.3 -10.75 -0.45 -10.5 -0.85 -10.05 -1.45 -9.1 -2.15 -8.45 -2.35 -8.15 -2.35 -7.35 -2.3 -6.5 -1.95 -5.9 -1.25 -5.85 -1.1 -2.8 -2.0 Q-1.7 -2.3 -0.8 -1.65 L0.25 -0.55 0.3 -0.4" fill="#5b5546" fill-opacity="0.3019608" fill-rule="evenodd" stroke="none"/>
    <path d="M4.95 -5.7 L5.2 -5.7 5.45 -5.75 5.5 -5.8 6.8 -5.75 7.75 -5.6 8.35 -5.45 8.55 -5.3 8.75 -5.15 8.95 -5.05 9.3 -4.9 9.5 -4.75 9.7 -4.6 9.85 -4.45 9.95 -4.3 10.0 -4.15 10.0 -4.05 10.1 -3.9 10.15 -3.75 10.2 -3.6 10.25 -3.45 10.25 -3.3 10.3 -3.2 10.3 -3.05 10.3 -2.9 10.3 -2.75 10.3 -2.6 10.35 -2.5 10.95 -1.9 11.55 -1.35 11.85 -0.9 11.9 -0.75 12.0 -0.6 12.05 -0.5 12.15 -0.35 12.2 -0.2 12.3 0.1 12.45 0.5 12.5 0.65 12.55 0.8 12.6 0.95 12.6 1.1 12.6 1.2 12.6 1.5 12.6 1.8 12.6 1.95 12.6 2.1 12.6 2.2 12.55 2.35 12.5 2.5 12.5 2.65 12.4 2.8 12.35 2.95 12.25 3.05 12.15 3.2 12.05 3.35 11.95 3.5 11.75 3.65 11.55 3.8 11.2 3.9 10.9 3.95 10.9 4.1 10.9 4.25 10.9 4.4 10.9 4.55 10.9 4.7 10.85 4.8 10.8 4.95 10.7 5.1 10.6 5.25 10.5 5.4 10.4 5.55 10.35 5.65 10.3 5.8 10.25 5.95 10.2 6.1 10.1 6.25 9.6 6.95 9.25 7.4 8.85 7.8 8.45 8.1 8.15 8.25 6.25 8.75 4.6 8.6 4.35 8.65 4.25 8.8 4.0 9.1 3.65 9.5 3.25 9.8 2.9 9.85 1.35 10.05 1.15 10.15 0.85 10.25 Q-0.2 10.45 -1.1 9.95 L-1.9 9.2 -2.2 8.75 -2.25 8.6 -2.35 8.45 -2.45 8.35 -2.5 8.2 -2.55 8.05 -2.65 7.9 -2.85 7.75 -3.0 7.6 -3.15 7.45 -3.4 7.2 -3.4 7.05 -3.5 6.9 -3.6 6.75 -3.7 6.6 -3.75 6.5 -3.85 6.35 -3.85 6.25 -3.9 6.2 -5.6 5.5 -6.45 4.95 -6.6 4.85 -6.8 4.65 -6.9 4.55 -7.15 4.25 -7.2 4.1 -7.25 3.95 -7.3 3.85 -7.3 3.7 -7.3 3.55 -7.3 3.25 -7.3 3.0 -7.3 2.85 -7.3 2.7 -7.25 2.55 -7.2 2.4 -7.1 2.25 -7.0 2.15 -6.9 2.0 -6.75 1.85 -6.5 1.7 -6.35 1.55 -6.1 1.45 -4.7 0.7 -3.9 0.35 -3.6 0.3 -2.65 -0.6 -0.9 -1.7 1.55 -2.05 1.7 -2.15 1.85 -2.3 2.0 -2.35 2.15 -2.4 2.65 -2.5 2.95 -2.55 3.25 -2.5 3.6 -2.4 3.75 -2.3 3.95 -2.15 4.15 -2.0 4.3 -1.85 4.45 -1.8 4.45 -1.9 4.45 -2.05 4.4 -2.2 4.4 -2.35 4.4 -2.45 4.3 -2.6 4.2 -2.75 4.15 -2.9 4.1 -3.05 4.05 -3.2 4.05 -3.3 4.05 -3.6 4.05 -4.05 4.05 -4.15 4.05 -4.3 4.05 -4.6 4.1 -4.75 4.15 -4.9 4.2 -5.05 4.3 -5.15 4.45 -5.3 4.6 -5.45 4.95 -5.7" fill="#5b5546" fill-opacity="0.3019608" fill-rule="evenodd" stroke="none"/>
    <path d="M6.65 -10.2 L7.05 -9.9 8.35 -8.35 8.4 -8.2 8.5 -8.05 8.55 -7.9 8.65 -7.75 8.7 -7.65 8.75 -7.5 8.75 -7.35 8.8 -7.2 8.85 -7.05 8.85 -6.9 8.9 -6.8 8.9 -6.65 8.9 -6.5 8.9 -6.35 8.9 -6.05 8.9 -5.8 8.9 -5.5 8.9 -5.35 8.9 -5.3 9.15 -5.25 9.65 -5.35 Q11.1 -5.6 12.3 -4.8 L12.8 -4.2 12.85 -4.1 12.95 -3.95 13.0 -3.8 13.05 -3.65 13.15 -3.5 13.2 -3.35 13.3 -3.25 13.4 -3.1 13.45 -2.95 13.55 -2.8 13.55 -2.65 13.6 -2.5 13.65 -2.35 13.7 -2.25 13.7 -2.1 13.7 -1.65 13.7 -1.1 13.7 -0.55 13.7 -0.4 13.7 0.05 13.7 0.45 13.7 0.6 13.6 0.9 13.55 1.2 13.5 1.45 13.4 1.9 13.35 2.05 13.25 2.15 13.2 2.3 13.1 2.45 13.05 2.6 12.95 2.75 12.9 2.9 12.8 3.0 12.75 3.15 12.1 4.05 11.15 4.9 10.95 5.0 9.3 6.25 7.5 6.9 7.4 7.05 7.3 7.2 7.25 7.35 7.15 7.45 7.05 7.6 6.8 7.9 6.75 8.05 6.65 8.2 6.6 8.35 6.5 8.45 6.1 9.05 5.45 9.75 5.15 10.05 5.0 10.15 4.7 10.45 3.55 11.2 Q2.6 11.8 1.55 12.2 L1.25 12.3 Q0.3 12.85 -0.75 12.85 L-1.05 12.8 -1.35 12.7 -1.6 12.55 -1.7 12.5 -3.1 12.3 Q-4.05 12.05 -4.8 11.4 L-5.0 11.3 -6.75 10.35 -6.95 10.15 -7.1 10.05 -7.25 9.9 -7.35 9.75 -7.45 9.6 -7.55 9.45 -7.6 9.3 -7.65 9.2 -7.75 9.05 -7.95 8.9 -8.95 8.3 -9.65 7.6 -9.8 7.35 -9.9 7.2 -9.95 7.05 -10.05 6.9 -10.2 6.75 -10.35 6.6 -10.45 6.5 -10.5 6.35 -10.55 6.2 -10.55 6.05 -10.55 5.9 -10.65 5.75 -10.9 5.6 -11.6 5.05 -12.2 4.35 -12.35 4.05 -12.45 3.95 -12.7 3.65 -12.75 3.5 -12.8 3.35 -12.85 3.2 -12.85 3.05 -12.85 2.8 -12.85 2.5 -12.85 2.1 -12.85 1.65 -12.85 1.5 -12.85 1.35 -12.85 1.2 -12.8 0.95 -12.6 0.2 -12.45 -0.5 -12.4 -0.6 -12.25 -1.2 -12.0 -2.05 -11.9 -2.35 -11.8 -2.45 -11.75 -2.6 -11.7 -2.75 -11.65 -2.9 -11.55 -3.05 -11.5 -3.2 -11.5 -3.3 -11.5 -3.6 -11.5 -3.9 -11.5 -4.3 -11.5 -4.75 -11.5 -4.9 -11.5 -5.05 -11.45 -5.15 -11.4 -5.3 -11.35 -5.45 -11.3 -5.6 -11.2 -5.75 -11.15 -5.9 -11.05 -6.0 -11.0 -6.15 -10.9 -6.3 -10.8 -6.45 -10.7 -6.6 -10.65 -6.75 -10.55 -6.85 -10.5 -7.0 -10.4 -7.15 -10.25 -7.3 -10.2 -7.45 -10.15 -7.6 -10.1 -7.7 -10.05 -7.85 -9.95 -8.0 -9.85 -8.15 -9.8 -8.3 -9.5 -8.75 -8.2 -9.7 -7.75 -9.85 -7.5 -9.9 Q-6.75 -10.1 -6.0 -9.9 L-5.65 -9.95 -5.35 -10.1 -3.9 -10.6 -2.15 -10.85 -1.95 -10.95 -1.85 -11.0 -1.65 -11.05 -1.4 -11.05 -1.4 -11.1 -0.2 -11.05 0.35 -10.95 0.6 -10.8 0.85 -10.65 1.05 -10.5 1.25 -10.5 Q1.7 -10.85 2.25 -10.85 L5.35 -10.7 Q6.1 -10.65 6.65 -10.2 M0.5 9.05 L0.4 8.9 0.25 8.85 0.0 8.9 -0.7 8.9 -0.75 9.05 -0.8 9.2 -0.8 9.3 -0.8 9.45 -0.9 9.6 -0.95 9.75 -0.55 9.8 -0.35 9.75 -0.2 9.7 0.1 9.6 0.25 9.45 0.5 9.3 0.6 9.2 0.5 9.05" fill="#5b5546" fill-opacity="0.3019608" fill-rule="evenodd" stroke="none"/>
    <path d="M0.2 -3.65 L0.5 -3.7 Q1.65 -2.6 1.0 -0.85 L0.6 -0.35 0.05 -0.15 Q-0.95 -0.15 -1.75 -1.05 L-2.5 -0.05 Q-4.65 -0.15 -5.7 -2.0 -5.5 -0.9 -6.35 -0.1 -9.25 -0.6 -9.75 -3.8 -9.95 -5.2 -9.4 -5.8 -8.7 -3.5 -7.45 -1.55 L-6.7 -0.9 Q-6.4 -4.0 -7.05 -7.3 L-6.15 -7.5 Q-6.25 -3.65 -3.5 -1.05 L-2.85 -1.1 Q-2.65 -3.9 -3.0 -6.85 L-2.2 -7.25 -0.65 -2.15 0.0 -1.2 Q0.3 -1.8 -0.05 -2.85 -0.3 -3.3 0.2 -3.65" fill="#333333" fill-rule="evenodd" stroke="none"/>
    <path d="M4.75 -5.0 L5.55 -5.2 Q6.6 -4.0 6.35 -2.3 L6.7 -1.8 7.5 -1.5 8.25 -2.1 8.4 -2.25 8.6 -2.2 8.8 -1.85 8.9 -1.55 8.9 -1.25 8.35 -0.6 6.15 -0.9 5.8 -0.5 Q3.15 0.9 1.85 -2.7 L0.5 -6.8 Q0.85 -7.6 1.8 -4.35 2.75 -1.15 5.05 -1.6 5.2 -2.35 4.8 -4.1 L4.75 -5.0" fill="#333333" fill-rule="evenodd" stroke="none"/>
    <path d="M6.65 4.0 Q6.5 4.95 7.0 5.85 L7.3 6.25 8.0 5.9 8.55 6.85 7.95 7.5 Q6.85 7.65 6.05 6.75 5.65 8.55 4.1 9.6 L3.0 9.4 2.55 8.65 1.55 9.75 Q-0.2 9.9 -0.9 8.4 L-1.2 9.75 Q-5.75 9.05 -5.85 3.7 -5.85 2.45 -4.95 1.6 -5.3 6.05 -2.1 8.7 -2.1 5.7 -1.7 2.8 L-1.15 2.45 -0.7 2.6 Q-0.3 4.6 -0.3 6.7 -0.3 8.05 1.0 8.6 1.65 6.1 1.65 3.45 L2.55 3.35 Q2.7 6.05 3.8 8.45 5.5 6.7 5.6 3.8 L5.75 3.6 6.3 3.55 6.4 3.6 6.65 4.0" fill="#333333" fill-rule="evenodd" stroke="none"/>
  </g>
</svg>
