<?xml version="1.0" encoding="UTF-8" standalone="no"?>
<svg xmlns:xlink="http://www.w3.org/1999/xlink" height="175.4px" width="337.65px" xmlns="http://www.w3.org/2000/svg">
  <g transform="matrix(1.0, 0.0, 0.0, 1.0, 168.65, 87.75)">
    <path d="M0.75 -85.45 L0.8 -85.05 0.55 -84.75 0.3 -84.7 0.3 75.25 0.55 75.15 0.75 74.85 0.65 76.8 0.9 78.9 1.05 80.9 0.95 82.7 0.8 84.25 0.8 86.75 0.8 86.8 0.8 87.0 0.7 87.15 0.35 87.3 -1.65 87.15 -3.7 86.9 -5.75 87.15 -7.85 87.35 -9.65 87.45 -11.9 87.4 -13.6 87.15 -15.25 87.3 -17.8 87.25 Q-19.05 87.1 -19.9 87.25 L-21.7 87.4 -23.7 87.35 -26.05 87.05 -26.0 87.05 -27.35 87.2 -27.4 87.2 Q-28.3 87.75 -29.8 87.65 L-31.8 87.45 -33.4 87.15 -35.55 87.2 -37.75 87.35 -39.8 87.1 Q-40.7 86.85 -41.5 87.1 L-43.65 87.4 -45.65 87.45 -47.55 87.4 -49.5 87.25 -51.7 87.3 -53.7 87.1 Q-54.55 86.9 -55.55 87.1 L-57.75 87.3 -59.8 87.05 -61.6 87.0 -63.4 87.25 -65.5 87.4 -67.65 87.6 -69.7 87.45 Q-70.7 87.25 -71.55 87.45 L-71.5 87.45 Q-72.55 87.7 -73.7 87.45 L-75.6 87.2 -77.75 87.25 -79.65 87.3 -79.7 87.3 -81.65 87.2 -83.7 87.1 -85.4 87.25 -87.45 87.35 -89.75 87.2 -91.7 87.2 -93.75 87.25 -95.65 87.25 -97.55 87.45 -99.9 87.4 -101.95 87.2 -104.05 87.0 -105.7 87.05 -105.65 87.05 -107.65 87.4 -109.7 87.45 -111.75 87.3 -113.6 87.25 -115.7 87.35 -117.9 87.3 -119.95 87.3 -121.8 87.3 -123.9 87.3 -125.7 87.35 -127.7 87.35 -129.9 87.3 -131.7 87.3 -133.65 87.4 -135.75 87.4 -137.7 87.3 -139.95 87.05 -141.35 87.2 Q-142.05 87.8 -143.55 87.6 L-145.9 87.4 -147.9 87.3 -149.75 87.5 -149.7 87.5 -152.0 87.55 -154.15 87.25 -155.9 87.1 -157.6 87.2 -159.6 87.4 -161.75 87.4 -163.85 87.35 -164.95 87.3 -167.65 87.3 -167.75 87.3 -168.05 87.15 -168.1 87.1 -168.2 86.8 -168.2 86.75 -167.95 84.8 Q-167.8 83.85 -168.05 83.15 -168.4 82.15 -168.2 80.9 L-168.2 80.85 Q-167.95 79.75 -168.0 78.85 -168.05 77.85 -168.25 76.95 L-168.4 74.7 -168.4 74.65 Q-168.2 73.7 -168.15 72.75 L-168.2 70.85 -168.05 68.6 -168.0 68.6 Q-167.75 67.55 -167.9 66.75 L-168.05 64.55 Q-168.0 63.45 -168.2 62.95 -168.55 62.3 -168.1 60.65 L-167.8 58.65 -167.8 58.6 -168.0 56.95 -168.2 54.7 -168.1 52.6 -168.1 52.55 -167.95 50.85 -167.95 50.8 Q-167.85 50.05 -168.1 49.0 L-168.15 48.95 -168.5 46.8 Q-168.55 45.8 -168.2 44.7 L-168.2 44.65 Q-167.95 43.75 -168.1 42.75 L-168.1 42.7 -168.4 40.65 -168.45 40.6 Q-168.65 39.4 -168.4 38.6 L-168.4 38.55 Q-168.25 37.9 -168.45 36.85 -168.65 35.55 -168.3 34.55 -168.1 33.8 -168.25 33.15 -168.6 32.25 -168.15 30.85 -167.8 29.8 -168.0 28.8 L-168.35 27.05 -168.6 25.1 -168.6 22.8 Q-168.55 21.7 -168.1 20.65 -167.8 19.8 -168.05 19.1 -168.45 18.15 -168.35 16.85 L-168.05 14.85 Q-167.9 14.05 -168.05 13.05 -168.2 11.9 -168.0 10.75 -167.8 9.85 -168.0 8.8 L-168.15 6.7 -168.25 5.0 -168.25 4.95 -168.3 2.85 -168.3 2.8 -168.3 1.1 -168.4 -1.1 -168.5 -3.2 -168.5 -3.25 -168.4 -5.3 -168.35 -5.35 -168.15 -7.4 -167.95 -9.35 -167.9 -9.35 Q-167.8 -10.05 -168.15 -11.05 -168.65 -12.4 -168.35 -13.2 L-168.25 -15.05 -168.25 -15.1 -168.25 -17.35 -168.2 -19.4 -168.15 -21.15 -167.95 -22.95 Q-167.75 -24.05 -168.0 -25.15 L-168.4 -27.05 -168.45 -29.15 -168.25 -31.3 -168.4 -33.1 -168.45 -33.15 Q-168.65 -34.25 -168.45 -35.3 L-168.15 -37.2 -168.2 -39.1 -168.4 -41.15 -168.4 -43.2 -168.4 -43.25 -168.25 -45.2 -168.25 -45.25 Q-168.15 -46.2 -168.2 -47.1 L-168.2 -47.15 -168.25 -49.35 -168.25 -51.4 -168.25 -53.3 -168.25 -53.35 -168.2 -55.25 -168.35 -57.0 Q-168.65 -58.15 -168.25 -59.35 -167.95 -60.25 -168.05 -61.35 L-168.2 -63.3 -168.2 -63.35 -168.4 -65.05 Q-168.6 -66.2 -168.45 -67.35 L-168.45 -67.4 -168.2 -69.3 -168.2 -71.3 -168.25 -73.55 -168.25 -73.6 Q-168.2 -74.6 -168.3 -75.3 L-168.55 -77.15 -168.55 -77.2 -168.5 -79.3 -168.5 -79.35 -168.3 -81.05 -168.2 -82.85 -168.2 -85.1 -168.2 -85.2 -168.15 -85.35 -168.1 -85.5 -168.05 -85.55 -167.95 -85.65 -167.7 -85.7 -167.65 -85.7 -167.45 -85.65 -165.6 -85.1 -163.8 -84.75 -161.8 -84.5 -159.5 -84.25 -159.45 -84.25 -157.4 -84.05 -155.55 -83.95 -155.5 -83.95 -153.65 -84.1 -151.3 -84.55 -149.2 -84.65 -149.15 -84.65 -147.6 -84.9 -145.35 -85.2 -145.3 -85.2 -143.5 -85.45 -143.45 -85.45 -141.2 -85.85 -139.3 -85.9 -139.25 -85.9 -137.15 -86.1 -135.05 -86.2 Q-134.35 -86.15 -133.5 -86.55 L-131.15 -87.1 -129.15 -87.15 -127.25 -87.25 -125.25 -87.4 -123.25 -87.5 -121.15 -87.35 -119.2 -87.2 -119.15 -87.2 Q-118.25 -87.15 -117.2 -86.7 L-115.35 -86.3 -113.2 -86.0 -111.05 -85.4 -109.05 -85.0 -107.4 -85.0 -105.05 -84.7 -103.0 -84.4 -100.85 -84.25 -98.95 -84.1 -97.25 -84.0 -97.2 -84.0 -95.4 -84.3 -95.35 -84.3 -93.0 -84.95 -92.95 -84.95 -90.75 -84.85 -89.0 -85.1 -86.85 -85.55 -86.8 -85.55 -85.0 -85.75 -82.65 -85.8 -82.6 -85.8 -80.95 -85.9 -78.95 -86.5 -78.95 -86.55 -76.8 -86.95 -76.8 -87.0 -74.85 -87.1 -73.15 -87.0 -70.9 -87.05 -68.95 -87.3 -68.9 -87.3 Q-67.8 -87.6 -66.7 -87.3 L-64.9 -87.2 -62.85 -87.4 -62.8 -87.4 -60.6 -87.05 -58.8 -86.6 -56.9 -86.25 -54.6 -85.7 -52.7 -85.1 -52.75 -85.1 -51.1 -84.8 -48.9 -84.55 -46.8 -84.1 -45.0 -84.15 -42.9 -84.3 -42.85 -84.25 -40.85 -84.4 -38.6 -84.65 -36.9 -84.6 -34.95 -84.8 -34.9 -84.8 -32.7 -85.1 -32.65 -85.1 -30.65 -85.3 -28.6 -85.7 -26.35 -85.85 -24.75 -85.8 -22.8 -86.35 -22.75 -86.35 -20.65 -86.75 -18.65 -86.85 -16.55 -86.95 Q-15.7 -86.95 -15.0 -87.3 L-12.55 -87.25 -10.6 -87.1 -8.3 -87.25 -8.25 -87.25 -6.15 -86.8 -6.05 -86.75 -4.35 -86.55 -2.2 -86.35 -2.2 -86.3 -0.75 -86.2 -0.7 -86.2 Q0.2 -86.35 0.75 -85.45" fill="#ff0000" fill-rule="evenodd" stroke="none"/>
    <path d="M168.65 -85.7 L168.7 -85.3 168.45 -85.0 168.2 -84.95 168.2 75.0 168.45 74.9 168.65 74.6 168.55 76.55 168.8 78.65 168.95 80.65 168.85 82.45 168.7 84.0 168.7 86.5 168.7 86.55 168.7 86.75 168.6 86.9 168.25 87.05 166.25 86.9 164.2 86.65 162.15 86.9 160.05 87.1 158.25 87.2 156.0 87.15 154.3 86.9 152.65 87.05 150.1 87.0 Q148.85 86.85 148.0 87.0 L146.2 87.15 144.2 87.1 141.85 86.8 141.9 86.8 140.55 86.95 140.5 86.95 138.1 87.4 136.1 87.2 134.5 86.9 132.35 86.95 130.15 87.1 128.1 86.85 Q127.2 86.6 126.4 86.85 L124.25 87.15 122.25 87.2 120.35 87.15 118.4 87.0 116.2 87.05 114.2 86.85 Q113.35 86.65 112.35 86.85 L110.15 87.05 108.1 86.8 106.3 86.75 104.5 87.0 102.4 87.15 100.25 87.35 98.2 87.2 Q97.2 87.0 96.35 87.2 L96.4 87.2 Q95.35 87.45 94.2 87.2 L92.3 86.95 90.15 87.0 88.25 87.05 88.2 87.05 86.25 86.95 84.2 86.85 82.5 87.0 80.45 87.1 78.15 86.95 76.2 86.95 74.15 87.0 72.25 87.0 70.35 87.2 68.0 87.15 65.95 86.95 63.85 86.75 62.2 86.8 62.25 86.8 60.25 87.15 58.2 87.2 56.15 87.05 54.3 87.0 52.2 87.1 50.0 87.05 47.95 87.05 46.1 87.05 44.0 87.05 42.2 87.1 40.2 87.1 38.0 87.05 36.2 87.05 34.25 87.15 32.15 87.15 30.2 87.05 27.95 86.8 26.55 86.95 Q25.85 87.55 24.35 87.35 L22.0 87.15 20.0 87.05 18.15 87.25 18.2 87.25 15.9 87.3 13.75 87.0 12.0 86.85 10.3 86.95 8.3 87.15 6.15 87.15 4.05 87.1 2.95 87.05 0.25 87.05 0.15 87.05 -0.15 86.9 -0.2 86.85 -0.3 86.55 -0.3 86.5 -0.05 84.55 Q0.1 83.6 -0.15 82.9 -0.5 81.9 -0.3 80.65 L-0.3 80.6 Q-0.05 79.5 -0.1 78.6 -0.15 77.6 -0.35 76.7 L-0.5 74.45 -0.5 74.4 Q-0.3 73.45 -0.25 72.5 L-0.3 70.6 -0.15 68.35 -0.1 68.35 Q0.15 67.3 0.0 66.5 L-0.15 64.3 Q-0.1 63.2 -0.3 62.7 -0.65 62.05 -0.2 60.4 L0.1 58.4 0.1 58.35 -0.1 56.7 -0.3 54.45 -0.2 52.35 -0.2 52.3 -0.05 50.6 -0.05 50.55 Q0.05 49.8 -0.2 48.75 L-0.25 48.7 -0.6 46.55 Q-0.65 45.55 -0.3 44.45 L-0.3 44.4 Q-0.05 43.5 -0.2 42.5 L-0.2 42.45 -0.5 40.4 -0.55 40.35 Q-0.75 39.15 -0.5 38.35 L-0.5 38.3 Q-0.35 37.65 -0.55 36.6 -0.75 35.3 -0.4 34.3 -0.2 33.55 -0.35 32.9 -0.7 32.0 -0.25 30.6 0.1 29.55 -0.1 28.55 L-0.45 26.8 -0.7 24.85 -0.7 22.55 Q-0.65 21.45 -0.2 20.4 0.1 19.55 -0.15 18.85 -0.55 17.9 -0.45 16.6 L-0.15 14.6 Q0.0 13.8 -0.15 12.8 -0.3 11.65 -0.1 10.5 0.1 9.6 -0.1 8.55 L-0.25 6.45 -0.35 4.75 -0.35 4.7 -0.4 2.6 -0.4 2.55 -0.4 0.85 -0.5 -1.35 -0.6 -3.45 -0.6 -3.5 -0.5 -5.55 -0.45 -5.6 -0.25 -7.65 -0.05 -9.6 0.0 -9.6 Q0.1 -10.3 -0.25 -11.3 -0.75 -12.65 -0.45 -13.45 L-0.35 -15.3 -0.35 -15.35 -0.35 -17.6 -0.3 -19.65 -0.25 -21.4 -0.05 -23.2 -0.1 -25.4 -0.5 -27.3 -0.55 -29.4 -0.35 -31.55 -0.5 -33.35 -0.55 -33.4 Q-0.75 -34.5 -0.55 -35.55 L-0.25 -37.45 -0.3 -39.35 -0.5 -41.4 -0.5 -43.45 -0.5 -43.5 -0.35 -45.45 -0.35 -45.5 Q-0.25 -46.45 -0.3 -47.35 L-0.3 -47.4 -0.35 -49.6 -0.35 -51.65 -0.35 -53.55 -0.35 -53.6 -0.3 -55.5 -0.45 -57.25 Q-0.75 -58.4 -0.35 -59.6 -0.05 -60.5 -0.15 -61.6 L-0.3 -63.55 -0.3 -63.6 -0.5 -65.3 Q-0.7 -66.45 -0.55 -67.6 L-0.55 -67.65 Q-0.35 -68.65 -0.3 -69.55 L-0.3 -71.55 -0.35 -73.8 -0.35 -73.85 Q-0.3 -74.85 -0.4 -75.55 L-0.65 -77.4 -0.65 -77.45 -0.6 -79.55 -0.6 -79.6 -0.4 -81.3 -0.3 -83.1 -0.3 -85.35 -0.3 -85.45 -0.25 -85.6 -0.2 -85.75 -0.15 -85.8 -0.05 -85.9 0.2 -85.95 0.25 -85.95 0.45 -85.9 2.3 -85.35 4.1 -85.0 6.1 -84.75 8.4 -84.5 8.45 -84.5 10.5 -84.3 12.35 -84.2 12.4 -84.2 14.25 -84.35 16.6 -84.8 18.7 -84.9 18.75 -84.9 20.3 -85.15 22.55 -85.45 22.6 -85.45 24.4 -85.7 24.45 -85.7 26.7 -86.1 28.6 -86.15 28.65 -86.15 30.75 -86.35 32.85 -86.45 34.4 -86.8 36.75 -87.35 38.75 -87.4 40.65 -87.5 42.65 -87.65 44.65 -87.75 46.75 -87.6 48.7 -87.45 48.75 -87.45 50.7 -86.95 52.55 -86.55 54.7 -86.25 56.85 -85.65 58.85 -85.25 60.5 -85.25 62.85 -84.95 64.9 -84.65 67.05 -84.5 68.95 -84.35 70.65 -84.25 70.7 -84.25 72.5 -84.55 72.55 -84.55 74.9 -85.2 74.95 -85.2 77.15 -85.1 Q78.1 -84.95 78.9 -85.35 L81.05 -85.8 81.1 -85.8 82.9 -86.0 85.25 -86.05 85.3 -86.05 86.95 -86.15 88.95 -86.75 88.95 -86.8 91.1 -87.2 91.1 -87.25 93.05 -87.35 94.75 -87.25 97.0 -87.3 98.95 -87.55 99.0 -87.55 Q100.1 -87.85 101.2 -87.55 L103.0 -87.45 105.05 -87.65 105.1 -87.65 107.3 -87.3 109.1 -86.85 111.0 -86.5 113.3 -85.95 115.2 -85.35 115.15 -85.35 116.8 -85.05 119.0 -84.8 121.1 -84.35 122.9 -84.4 125.0 -84.55 125.05 -84.5 127.05 -84.65 129.3 -84.9 131.0 -84.85 132.95 -85.05 133.0 -85.05 135.2 -85.35 135.25 -85.35 137.25 -85.55 139.3 -85.95 141.55 -86.1 143.15 -86.05 145.1 -86.6 145.15 -86.6 147.25 -87.0 149.25 -87.1 151.35 -87.2 Q152.2 -87.2 152.9 -87.55 L155.35 -87.5 157.3 -87.35 159.6 -87.5 159.65 -87.5 161.75 -87.05 161.85 -87.0 163.55 -86.8 165.7 -86.6 165.7 -86.55 167.15 -86.45 167.2 -86.45 Q168.1 -86.6 168.65 -85.7" fill="#ff0000" fill-rule="evenodd" stroke="none"/>
  </g>
</svg>
