<?xml version="1.0" encoding="UTF-8" standalone="no"?>
<svg xmlns:xlink="http://www.w3.org/1999/xlink" height="57.25px" width="65.8px" xmlns="http://www.w3.org/2000/svg">
  <g transform="matrix(1.0, 0.0, 0.0, 1.0, 34.1, 28.45)">
    <path d="M8.05 -26.1 L11.1 -24.3 11.3 -24.0 11.45 -23.7 11.6 -23.35 11.75 -23.0 11.95 -22.95 13.7 -23.15 17.65 -23.25 18.5 -22.95 20.15 -22.35 20.9 -22.05 21.35 -21.7 21.65 -21.4 21.8 -21.05 22.0 -20.7 22.1 -20.4 22.2 -20.05 22.3 -19.75 22.45 -19.4 22.65 -19.1 22.95 -18.75 23.3 -18.45 23.6 -18.1 23.85 -17.8 23.95 -17.45 24.05 -17.15 24.15 -16.8 24.4 -16.5 25.6 -15.1 26.6 -13.8 27.65 -12.55 28.25 -11.6 28.4 -11.25 28.5 -10.9 28.55 -10.6 28.55 -10.25 28.55 -9.95 28.55 -9.6 28.55 -9.3 28.65 -8.95 28.85 -8.6 29.0 -8.3 29.15 -7.95 29.3 -7.65 29.35 -7.3 29.4 -6.65 29.4 -6.0 29.4 -5.35 29.4 -4.7 29.4 -4.05 29.45 -3.75 29.6 -3.4 29.75 -3.1 29.95 -2.75 30.05 -2.4 30.15 -2.1 30.25 -1.75 30.35 -1.45 30.4 -1.1 30.7 -0.8 31.0 -0.45 31.25 -0.1 31.4 0.2 31.6 0.5 31.65 1.15 31.7 2.8 31.7 4.75 31.7 6.05 31.7 8.05 31.7 9.0 31.55 9.35 31.4 9.7 31.25 10.0 31.05 10.3 30.95 10.65 30.8 11.0 30.7 11.3 30.6 11.65 30.25 12.25 29.25 13.95 28.1 15.9 27.2 17.15 25.9 18.8 24.6 19.8 Q22.85 21.1 20.85 22.0 L16.1 24.05 15.35 24.65 Q13.85 25.75 12.1 26.25 L8.5 26.45 7.5 26.25 6.85 25.9 6.55 25.85 6.1 25.9 5.45 26.05 4.8 26.25 4.45 26.55 4.15 26.9 3.8 27.2 2.7 27.8 Q-0.55 29.3 -4.15 28.6 L-5.15 28.45 -8.3 27.65 -10.15 27.0 -10.6 26.65 -11.55 26.0 -12.55 25.35 -14.05 24.4 -14.4 24.05 -14.95 23.7 -15.25 23.5 -15.7 23.4 -16.55 23.2 -17.45 22.95 -18.85 22.5 -19.85 22.5 -23.75 22.5 -24.75 22.3 -25.4 22.0 -27.7 20.7 -29.0 19.4 -29.75 18.05 -29.85 17.75 -29.85 17.4 -29.85 17.1 -29.85 16.75 -29.85 16.4 -29.85 16.1 -29.85 15.45 -29.85 15.1 -30.0 14.85 -30.8 14.1 -31.45 13.45 -31.95 12.85 -32.7 11.85 -32.8 11.5 -33.0 10.85 -33.15 10.2 -33.25 9.55 -33.3 8.9 -33.3 8.25 -33.25 7.95 -33.3 7.6 -33.45 7.25 -33.65 6.95 -33.85 6.6 -34.0 6.3 -34.05 5.95 -34.1 5.3 -34.1 4.65 -34.1 4.0 -34.1 3.0 -34.1 2.05 -34.0 1.7 -33.9 1.4 -33.8 1.05 -33.65 0.75 -33.55 0.4 -33.35 0.1 -33.1 -0.25 -32.8 -0.55 -32.45 -0.9 -32.15 -1.2 -32.05 -1.55 -31.95 -1.9 -31.8 -2.2 -31.6 -2.5 -31.05 -3.2 -30.55 -3.85 -30.05 -4.5 -29.55 -5.15 -28.95 -5.45 -27.45 -5.95 -25.4 -6.35 -25.4 -6.65 -25.4 -8.0 -25.4 -9.3 -25.35 -10.6 -25.15 -11.55 -24.75 -12.9 -24.65 -13.2 -24.4 -13.55 -24.3 -13.85 -24.2 -14.2 -24.1 -14.5 -24.0 -14.85 -23.85 -15.15 -23.75 -15.5 -23.65 -15.8 -23.35 -16.5 -22.3 -18.15 -20.55 -20.15 Q-19.5 -21.2 -18.1 -21.75 L-17.45 -22.05 -17.0 -22.15 -16.55 -22.25 -16.15 -22.35 -15.7 -22.45 -15.05 -22.6 -14.6 -22.8 -14.3 -23.15 -13.8 -23.75 -13.2 -24.45 -12.2 -25.4 -11.45 -26.05 -10.9 -26.25 -10.25 -26.5 -9.8 -26.8 -9.4 -27.15 -9.05 -27.35 -8.7 -27.45 -7.1 -27.8 -5.45 -28.15 -3.7 -28.4 -3.7 -28.45 2.2 -28.05 Q5.3 -27.5 8.05 -26.1 M16.2 12.4 L16.1 12.7 16.0 13.05 16.0 14.35 16.0 15.65 16.0 16.55 16.1 16.4 16.35 16.1 16.45 15.45 16.65 14.8 16.75 14.15 16.95 13.8 17.1 13.5 16.8 12.85 16.4 12.35 16.2 12.4 M-6.35 -23.1 L-6.85 -23.0 -7.6 -22.75 -8.3 -22.45 -8.5 -22.15 -8.05 -22.15 -4.4 -23.05 -6.35 -23.1 M-18.2 17.2 L-18.0 16.85 -17.8 16.5 -17.7 16.2 -17.75 16.15 -17.9 16.2 -18.3 16.5 -18.85 16.85 -18.65 17.2 -18.2 17.2 M-9.25 14.15 L-9.5 14.45 -9.8 14.8 -9.9 15.0 -10.0 15.05 -9.4 15.1 -9.0 14.85 -8.95 14.6 -9.05 14.25 -9.1 14.05 -9.15 14.05 -9.25 14.15 M-5.55 20.0 L-5.75 20.35 -5.9 20.65 -5.9 20.8 -5.0 20.8 -4.25 20.45 -3.4 20.15 -3.35 20.0 -3.95 19.8 -4.8 19.6 -5.25 19.65 -5.35 19.7 -5.55 20.0" fill="#5b5546" fill-opacity="0.3019608" fill-rule="evenodd" stroke="none"/>
    <path d="M0.45 -2.55 L0.75 -2.2 1.55 -1.25 2.35 0.05 3.25 1.75 3.7 2.7 3.85 2.95 4.45 3.4 5.3 4.05 5.9 4.65 6.2 5.0 6.35 5.3 6.55 5.65 6.55 5.95 6.6 6.3 6.65 6.6 6.65 6.95 6.65 7.25 6.65 7.6 6.65 8.15 6.75 8.2 7.6 8.45 8.25 8.8 8.7 9.15 8.95 9.45 9.25 9.8 9.4 10.1 9.6 10.45 9.6 10.75 9.65 11.4 9.7 12.05 9.7 13.05 9.7 14.05 9.7 14.7 9.6 15.0 9.5 15.35 9.45 15.65 9.65 15.9 9.7 15.95 10.45 16.1 10.65 16.4 10.45 16.75 Q10.25 16.9 10.0 17.1 L9.9 17.4 9.65 17.7 9.35 18.05 8.9 18.4 8.7 18.7 8.25 19.0 7.85 19.25 7.2 19.4 6.3 19.6 6.1 19.9 6.0 20.25 5.95 20.55 5.9 20.9 5.85 21.2 5.75 21.55 5.55 22.2 5.45 22.5 5.25 22.85 4.75 23.8 3.65 25.45 Q2.65 26.8 1.1 27.45 L0.2 27.65 -1.1 27.65 -2.05 27.4 -5.15 26.15 -7.85 24.15 -7.95 23.95 -8.1 23.85 -8.5 23.75 -9.5 23.5 -10.15 23.2 -10.6 22.95 -10.8 22.9 -11.55 22.85 -12.85 22.85 -13.85 22.65 -14.5 22.3 -15.15 21.95 -16.25 21.3 -17.2 20.65 -17.55 20.35 -17.9 20.0 -18.2 19.7 -18.4 19.45 -18.55 19.4 -18.95 19.25 -19.95 19.05 -21.4 18.4 Q-23.7 17.5 -25.5 15.8 L-28.2 12.9 -28.9 11.85 -29.0 11.5 -29.1 11.2 -29.2 10.85 -29.25 10.55 -29.3 10.2 -29.4 9.9 -29.4 9.55 -29.4 9.35 -29.55 9.25 -30.1 9.1 -30.5 9.0 -30.95 8.9 -31.4 8.8 -32.05 8.6 -32.45 8.25 -32.8 7.95 -33.1 7.6 -33.35 7.25 -33.55 6.95 -33.9 6.3 -33.95 5.95 -34.0 5.3 -34.0 4.35 -34.0 3.35 -33.95 2.05 -33.9 1.7 -33.75 1.4 -33.45 0.75 -32.85 -0.2 -31.6 -1.55 -30.95 -2.2 -30.4 -2.55 -29.55 -3.2 -28.0 -4.2 -26.9 -4.8 -26.6 -5.15 -26.25 -5.45 -25.95 -5.8 -25.6 -6.15 -25.3 -6.45 -24.95 -6.8 -24.4 -7.0 -23.75 -7.05 -20.25 -7.2 -19.4 -7.0 -18.85 -6.7 -18.4 -6.45 -18.25 -6.6 -18.0 -6.9 -17.75 -7.2 -17.55 -7.55 -17.2 -7.85 -16.9 -8.2 -16.45 -8.4 -16.15 -8.5 -15.5 -8.6 -15.5 -8.65 -12.45 -8.65 -11.55 -8.4 -10.9 -8.1 -10.6 -7.75 -9.95 -7.4 -8.8 -6.45 -7.9 -5.4 -7.15 -4.2 -7.0 -3.85 -6.3 -3.5 -5.6 -3.15 -5.25 -2.95 -4.8 -2.95 -1.1 -3.1 -0.25 -2.85 0.45 -2.55 M-0.05 12.2 Q0.0 11.35 -0.3 10.9 L-0.35 11.0 -0.65 12.6 -0.85 14.55 -0.65 15.9 -0.6 15.9 -0.45 15.75 -0.35 15.45 -0.15 13.8 -0.05 12.2" fill="#5b5546" fill-opacity="0.3019608" fill-rule="evenodd" stroke="none"/>
    <path d="M0.3 -5.05 L0.55 -5.35 3.25 -7.9 Q5.45 -9.8 8.15 -10.95 L9.7 -11.55 10.65 -11.75 10.65 -11.8 15.45 -11.8 16.35 -11.55 16.95 -11.2 17.4 -10.9 18.1 -10.25 18.85 -9.3 19.05 -8.95 19.15 -8.65 19.25 -8.3 19.25 -8.0 Q19.4 -7.85 19.5 -7.85 L20.05 -7.8 20.7 -7.85 21.55 -7.65 22.1 -7.45 22.45 -7.45 23.75 -7.4 24.6 -7.3 25.15 -7.45 25.7 -7.65 26.35 -7.75 27.2 -7.75 28.1 -7.55 Q28.4 -7.4 28.75 -7.2 L29.05 -6.9 29.3 -6.55 29.5 -6.2 29.65 -5.9 29.85 -5.6 29.85 -5.25 29.95 -4.95 30.05 -4.6 30.05 -4.25 30.05 -3.6 30.05 -2.65 30.05 -1.35 30.05 -0.35 30.15 -0.1 30.5 0.3 30.95 0.65 31.15 0.95 31.25 1.3 31.35 1.6 31.45 1.95 31.45 2.25 31.3 3.25 31.35 4.9 31.35 6.85 31.35 7.8 31.25 8.15 31.15 8.45 31.05 8.8 30.9 9.45 30.7 10.1 30.6 10.45 30.4 10.75 30.25 11.1 30.15 11.4 29.95 11.75 29.85 12.05 29.75 12.4 29.6 12.7 29.4 13.05 29.1 13.35 28.5 13.7 27.8 14.05 27.2 14.35 26.8 14.55 26.55 14.65 25.9 14.8 25.05 14.55 24.7 14.8 24.65 15.1 24.6 15.45 24.5 15.75 24.35 16.4 24.15 17.1 24.05 17.4 23.85 17.75 23.7 18.05 23.15 18.65 22.1 19.35 21.65 19.6 21.35 19.65 20.7 19.75 19.8 19.8 18.85 19.6 18.3 19.3 17.75 19.05 17.3 19.35 16.55 19.7 16.0 20.0 15.35 20.35 14.8 20.55 14.15 20.65 13.3 20.65 12.3 20.45 11.65 20.15 11.0 19.8 10.45 19.45 10.0 19.15 9.55 19.2 5.85 19.35 4.9 19.15 4.35 19.25 3.7 19.35 1.45 19.65 1.4 19.8 1.3 20.15 1.15 20.45 0.95 20.8 0.75 21.1 0.55 21.45 0.1 21.75 -0.35 22.1 -0.9 22.3 -1.55 22.35 -4.15 22.4 -5.15 22.2 -5.8 21.9 Q-7.25 21.25 -8.5 20.25 L-11.3 17.6 -11.8 16.95 -11.8 16.65 -12.2 14.0 -12.3 11.1 -12.3 9.15 -12.3 6.85 -12.2 5.85 -12.1 5.55 -11.9 5.2 -11.8 4.9 -11.65 4.55 -11.55 4.2 -11.35 3.9 -11.25 3.55 -11.1 3.25 -10.9 2.9 -10.6 2.25 -10.1 1.25 -9.3 -0.05 -9.15 -0.35 -8.85 -0.7 -8.6 -1.0 -8.2 -1.35 -7.0 -2.35 Q-5.85 -3.25 -4.6 -3.95 L-3.4 -4.6 -2.4 -4.8 -0.65 -4.8 0.0 -4.8 0.3 -5.05 M1.4 3.5 L1.3 3.55 0.7 6.5 Q0.45 7.95 0.5 9.45 L0.55 11.4 0.9 8.8 Q1.0 7.3 1.35 5.9 L1.75 3.9 1.6 3.6 1.4 3.5 M-4.9 16.15 L-5.55 15.45 -6.0 15.1 -6.6 14.1 -7.1 13.15 -7.25 12.9 -7.3 12.95 -7.3 13.25 -7.25 13.6 -7.15 13.9 -7.1 14.25 -7.1 14.55 -6.25 15.6 -5.15 16.55 -4.7 16.65 -4.9 16.15" fill="#5b5546" fill-opacity="0.3019608" fill-rule="evenodd" stroke="none"/>
    <path d="M0.75 -26.6 L6.7 -25.8 Q9.5 -25.2 11.95 -23.7 14.2 -22.3 15.25 -19.95 L15.35 -19.65 15.45 -19.3 15.7 -19.0 15.8 -18.65 15.9 -18.35 17.65 -18.3 18.05 -18.35 23.75 -18.35 24.6 -18.1 25.25 -17.75 26.25 -17.1 26.65 -16.75 27.2 -16.1 27.35 -15.85 27.55 -15.5 27.7 -14.5 27.9 -13.55 28.0 -11.9 28.0 -9.3 Q28.05 -7.3 27.6 -5.35 L27.55 -4.05 27.55 -3.75 27.55 -3.4 27.45 -3.1 27.35 -2.75 27.2 -2.4 27.0 -2.1 26.8 -1.75 26.55 -1.45 26.35 -1.1 25.8 -0.5 25.35 -0.15 24.95 0.2 24.5 0.85 24.3 1.15 24.1 1.5 23.7 2.15 23.5 2.5 23.1 3.15 22.2 4.1 21.45 4.75 21.35 5.1 21.35 5.4 21.35 5.75 21.35 6.05 21.35 6.75 21.35 7.05 21.35 7.4 21.35 7.7 21.3 8.05 21.25 8.35 20.7 9.35 20.35 9.7 19.25 10.6 16.35 11.95 14.6 12.6 13.6 13.6 13.25 13.9 11.85 14.9 9.0 16.05 7.2 16.55 6.55 17.5 6.1 18.15 4.7 19.55 1.9 21.35 -0.9 22.65 -8.5 22.75 -9.5 22.5 -10.35 22.2 Q-10.75 22.05 -11.1 21.85 L-11.9 21.55 -12.3 21.2 -12.65 20.9 -12.95 20.55 -13.3 20.25 -13.65 19.9 -13.75 19.6 -13.85 19.25 -13.95 18.95 -14.05 18.65 -14.4 18.3 -15.15 17.95 -15.8 17.6 -16.35 17.3 -17.45 16.35 -18.65 15.35 -19.9 14.0 Q-21.1 12.75 -22.5 11.8 L-25.3 9.8 -25.5 9.45 -25.8 9.1 -26.05 8.8 -26.35 8.45 -26.85 7.85 -27.1 7.5 -27.35 7.15 -27.45 6.85 -27.55 6.5 -27.65 6.2 -27.7 5.85 -27.8 5.2 -27.9 4.9 -28.0 4.55 -28.0 3.55 -27.95 3.25 -27.85 2.25 -27.95 0.95 Q-28.05 0.1 -27.75 -0.65 L-27.2 -2.65 -27.05 -3.3 -26.8 -3.6 -26.6 -3.95 -26.35 -4.25 -26.15 -4.6 -25.8 -5.25 -25.6 -5.6 -25.4 -5.9 -25.3 -6.25 -25.15 -6.55 -24.85 -6.9 -24.65 -7.2 -24.4 -7.55 -24.1 -7.85 -24.3 -8.2 -24.6 -8.55 -24.85 -8.85 -24.9 -9.2 -24.95 -9.85 -24.95 -10.15 -24.95 -10.8 -24.95 -11.15 -24.95 -11.45 -24.95 -12.1 -24.95 -12.75 -24.95 -13.1 -24.85 -13.4 -24.75 -13.75 -24.65 -14.1 -24.1 -15.05 -23.65 -16.05 -22.85 -17.3 -20.65 -19.6 -16.8 -22.45 -16.55 -22.5 -12.45 -22.7 -11.55 -22.8 -11.0 -23.1 -10.35 -23.45 -9.7 -23.75 Q-9.3 -23.95 -8.95 -24.1 L-7.5 -25.05 -7.0 -25.4 -5.3 -26.35 -3.7 -26.85 -1.95 -27.15 -0.65 -27.15 0.2 -26.95 Q0.5 -26.75 0.75 -26.6" fill="#5b5546" fill-opacity="0.3019608" fill-rule="evenodd" stroke="none"/>
    <path d="M21.9 12.5 L22.3 12.85 22.65 13.15 22.85 13.5 23.1 13.8 23.2 14.15 23.3 14.45 23.5 14.8 23.55 15.1 23.6 15.45 23.65 15.75 23.65 16.1 23.65 16.4 23.65 16.75 23.65 17.1 23.75 17.4 23.85 17.75 23.95 18.05 24.05 18.4 24.05 18.7 24.05 19.05 24.05 19.35 23.95 19.7 Q22.6 22.0 20.55 23.8 17.15 26.7 12.65 27.6 8.7 28.35 4.55 27.65 L3.6 27.45 1.95 27.2 0.95 27.0 0.55 26.75 -0.35 26.55 -0.75 26.35 -1.95 26.45 Q-6.85 27.85 -12.0 26.95 L-16.9 26.35 -17.45 26.0 -18.0 25.7 -18.55 25.35 -19.5 25.0 -20.85 24.4 -22.45 23.4 -23.45 22.75 -24.0 22.5 -24.65 22.4 -25.3 22.3 -25.95 22.2 -26.8 22.0 -27.35 21.65 -27.9 21.3 -28.3 21.0 -28.65 20.65 -29.0 20.35 -29.1 20.05 -29.3 19.7 -29.55 19.35 -29.75 19.05 -29.95 18.7 -30.1 18.4 -30.3 18.05 -30.4 17.75 -30.4 17.4 -30.4 17.1 -30.4 16.75 -30.35 16.4 -30.3 15.75 -30.3 15.1 -30.2 14.8 -30.1 14.45 -29.95 14.15 -29.85 13.8 -29.75 13.5 -29.3 12.85 -28.8 12.15 -28.1 11.15 -26.5 9.55 -25.85 9.0 -25.6 8.95 -25.05 8.8 -24.5 8.9 -23.65 8.75 -23.0 8.6 -22.65 8.5 -22.0 8.4 -22.0 8.35 -20.7 8.35 Q-19.35 8.6 -18.1 9.2 -16.55 9.9 -15.5 11.25 -14.45 12.6 -13.65 14.15 L-13.55 14.45 -13.5 14.8 -13.5 15.45 -13.5 16.1 -13.5 17.1 -13.5 18.4 -13.5 18.7 -13.65 19.05 -13.75 19.35 -13.9 19.65 -14.15 20.0 -14.3 20.35 -14.5 20.65 -14.7 21.0 -14.9 21.35 -15.05 21.65 -15.15 21.75 -13.75 22.0 -13.1 22.1 -12.65 22.2 -12.2 22.3 -9.4 22.25 -8.3 22.1 -8.3 21.75 -8.3 21.45 -8.3 21.1 -8.3 20.8 -8.3 20.45 -8.2 20.15 -8.05 19.8 -7.95 19.5 -7.65 19.15 -7.3 18.8 -7.0 18.5 -6.35 17.85 -5.7 17.2 -5.15 16.85 -3.95 16.55 -2.4 16.3 1.5 16.2 2.4 16.45 3.05 16.65 3.6 16.55 4.0 16.3 4.35 16.2 5.0 16.1 6.55 15.9 6.95 15.55 7.0 15.25 7.05 14.9 7.3 14.55 7.7 14.25 8.5 14.05 9.25 13.9 10.65 12.9 Q12.1 11.85 13.95 11.5 L18.5 11.0 19.4 11.2 20.05 11.5 20.35 11.85 21.0 12.15 21.9 12.5 M-20.15 12.6 L-20.7 12.4 -22.0 12.45 -22.25 12.5 -22.55 12.85 -22.65 13.05 -18.95 13.35 Q-19.4 12.85 -20.15 12.6" fill="#5b5546" fill-opacity="0.3019608" fill-rule="evenodd" stroke="none"/>
    <path d="M-22.35 -15.55 L-22.3 -15.7 -22.1 -15.85 -21.95 -15.95 -21.8 -16.0 -21.55 -15.9 -21.45 -15.75 -21.4 -15.6 -21.3 -15.45 -21.25 -15.3 -21.25 -15.2 -21.25 -15.05 -21.25 -14.9 -21.25 -14.75 -21.25 -14.6 -21.2 -14.45 -21.15 -14.35 -21.15 -14.2 -21.1 -14.05 -21.1 -13.9 -21.05 -13.75 -21.05 -13.2 -21.05 -12.05 -21.05 -10.8 -21.05 -10.05 -20.95 -9.8 -20.85 -9.35 -20.65 -8.8 -20.4 -8.1 -20.3 -7.95 -20.25 -7.8 -20.2 -7.65 -20.15 -7.5 -20.05 -7.35 -20.0 -7.25 -20.0 -7.1 -19.95 -6.95 -19.9 -6.8 -19.8 -6.65 -19.75 -6.5 -19.7 -6.35 -19.6 -6.25 -19.55 -6.1 -19.5 -5.95 -19.4 -5.8 -19.35 -5.65 -19.15 -5.4 -18.9 -4.95 -18.3 -4.4 -18.1 -4.25 -16.75 -4.25 -16.55 -4.4 -16.45 -4.55 -16.5 -4.65 -16.6 -4.8 -16.7 -4.95 -16.85 -5.1 -16.9 -5.25 -16.95 -5.4 -17.05 -5.5 -17.1 -5.65 -17.15 -5.8 -17.2 -5.95 -17.25 -6.1 -17.3 -6.25 -17.35 -6.5 -17.45 -6.65 -17.6 -7.2 -17.8 -8.35 -18.05 -9.65 -18.2 -10.2 -18.2 -10.65 -18.2 -11.2 -18.2 -12.05 -18.2 -12.75 -18.15 -12.9 -18.15 -13.5 -18.15 -14.6 -18.15 -15.9 -18.15 -16.6 -18.1 -16.75 -17.95 -17.05 -17.75 -17.3 -17.4 -17.7 -17.15 -17.95 -16.9 -18.0 -16.45 -18.0 -16.15 -17.95 -15.95 -17.8 -15.7 -17.65 -15.55 -17.5 -15.4 -17.35 -15.3 -17.2 -15.25 -17.05 -15.15 -16.95 -14.95 -16.35 -14.65 -15.35 -14.3 -14.1 -14.2 -13.65 -14.2 -13.5 -14.2 -13.4 -14.15 -13.25 -14.15 -13.1 -14.15 -12.95 -14.15 -12.8 -14.1 -12.65 -14.1 -11.95 -14.1 -10.7 -14.1 -9.25 -14.1 -8.7 -14.15 -8.55 -14.15 -8.4 -14.15 -8.25 -14.15 -8.1 -14.2 -8.0 -14.2 -7.85 -14.2 -7.7 -14.25 -7.55 -14.25 -7.4 -14.25 -7.25 -14.3 -7.15 -14.35 -6.85 -14.4 -6.55 -14.5 -6.15 -14.65 -5.7 -14.75 -5.55 -14.8 -5.45 -14.85 -5.3 -14.9 -5.15 -14.95 -5.0 -15.05 -4.85 -15.0 -4.7 -14.85 -4.55 -14.75 -4.45 -14.65 -4.3 -14.4 -4.15 -14.2 -4.0 -13.75 -4.0 -13.7 -4.15 -13.6 -4.3 -13.55 -4.45 -13.5 -4.6 -13.5 -4.7 -13.45 -4.85 -13.4 -5.15 -13.35 -5.45 -13.35 -5.85 -13.35 -6.55 -13.35 -7.55 -13.35 -8.25 -13.3 -8.4 -13.3 -8.55 -13.3 -8.7 -13.25 -8.85 -13.25 -9.0 -13.25 -9.1 -13.2 -9.25 -13.2 -9.4 -13.15 -9.55 -13.15 -9.7 -13.15 -9.85 -13.1 -9.95 -13.1 -10.1 -13.1 -10.25 -13.1 -10.4 -13.05 -10.55 -13.0 -10.7 -13.0 -10.8 -13.0 -10.95 -13.0 -11.1 -12.95 -11.25 -12.9 -11.4 -12.9 -11.55 -12.8 -11.8 -12.75 -12.1 -12.75 -12.25 -12.75 -12.4 -12.75 -12.55 -12.75 -12.65 -12.75 -12.8 -12.7 -12.95 -12.65 -13.1 -12.55 -13.25 -12.4 -13.4 -12.3 -13.5 -12.2 -13.5 -11.95 -13.55 -11.7 -13.5 -11.5 -13.35 -11.4 -13.2 -11.35 -13.05 -11.35 -12.9 -11.35 -12.75 -11.35 -12.6 -11.3 -12.5 -11.25 -12.2 -11.15 -11.9 -11.1 -11.5 -11.05 -11.05 -11.05 -10.9 -11.05 -10.8 -11.0 -10.65 -11.0 -10.5 -11.0 -10.35 -11.0 -10.05 -11.0 -9.8 -11.0 -9.35 -11.0 -9.2 -10.95 -9.05 -10.95 -8.95 -10.9 -8.65 -10.85 -8.35 -10.75 -7.95 -10.75 -7.8 -10.75 -7.65 -10.75 -7.5 -10.75 -7.35 -10.75 -7.1 -10.75 -6.8 -10.65 -6.8 -10.6 -6.95 -10.5 -7.1 -10.45 -7.25 -10.45 -7.35 -10.45 -7.5 -10.4 -7.65 -10.3 -7.75 -10.25 -7.8 -10.1 -7.85 -9.85 -7.75 -9.75 -7.6 -9.7 -7.45 -9.7 -7.3 -9.7 -7.2 -9.65 -7.05 -9.55 -6.9 -9.5 -6.75 -9.5 -6.6 -9.55 -6.45 -9.55 -6.35 -9.55 -6.2 -9.55 -6.05 -9.6 -5.9 -9.65 -5.75 -9.7 -5.6 -9.75 -5.45 -9.8 -5.35 -9.9 -5.2 -10.0 -5.05 -10.2 -4.9 -10.3 -4.8 -10.4 -4.75 -10.65 -4.75 -10.85 -4.7 -11.15 -4.8 -11.35 -4.95 -11.5 -5.1 -11.6 -5.25 -11.7 -5.4 -11.75 -5.5 -11.8 -5.65 -11.8 -5.8 -11.85 -5.95 -11.9 -6.25 -11.95 -6.5 -11.95 -6.65 -11.95 -6.8 -11.95 -6.95 -11.95 -7.1 -11.95 -7.35 -11.95 -7.65 -12.0 -7.8 -12.05 -7.95 -12.05 -8.1 -12.15 -7.7 -12.1 -7.0 -12.1 -6.0 -12.1 -5.15 -12.15 -5.0 -12.15 -4.85 -12.2 -4.55 -12.25 -4.3 -12.4 -3.85 -12.5 -3.7 -12.55 -3.6 -12.6 -3.45 -12.7 -3.3 -12.8 -3.15 -12.9 -3.0 -13.15 -2.85 -13.35 -2.75 -13.45 -2.75 -13.7 -2.7 -14.0 -2.7 -14.35 -2.75 -14.6 -2.9 -14.85 -3.05 -15.05 -3.2 -15.3 -3.35 -15.45 -3.5 -15.6 -3.6 -15.7 -3.7 -15.9 -3.55 -16.05 -3.45 -16.25 -3.3 -16.4 -3.2 -16.45 -3.15 -17.85 -3.1 -18.2 -3.2 -18.85 -3.6 -19.65 -4.35 -20.2 -5.2 -20.25 -5.35 -20.35 -5.45 -20.4 -5.6 -20.5 -5.75 -20.55 -5.9 -20.6 -6.05 -20.7 -6.2 -20.75 -6.35 -20.8 -6.45 -20.85 -6.6 -20.9 -6.75 -20.95 -6.9 -21.0 -7.05 -21.05 -7.2 -21.15 -7.3 -21.2 -7.45 -21.25 -7.6 -21.3 -7.75 -21.35 -7.9 -21.45 -8.05 -21.5 -7.95 -21.6 -7.8 -21.7 -7.65 -21.75 -7.5 -21.8 -7.35 -21.9 -7.25 -22.0 -7.15 -22.2 -7.1 -22.4 -7.1 -22.65 -7.2 -22.75 -7.35 -22.75 -7.45 -22.75 -7.6 -22.65 -7.75 -22.4 -7.9 -22.3 -8.05 -22.25 -8.15 -22.15 -8.3 -22.1 -8.45 -22.1 -8.6 -22.05 -8.75 -22.0 -8.9 -21.95 -9.0 -21.85 -9.3 -21.9 -9.45 -21.9 -9.6 -21.9 -9.75 -21.9 -9.9 -21.95 -10.0 -22.0 -10.3 -22.05 -10.6 -22.15 -11.0 -22.25 -11.6 -22.25 -11.7 -22.25 -11.85 -22.3 -12.0 -22.3 -12.15 -22.3 -12.3 -22.35 -12.45 -22.35 -12.6 -22.35 -12.7 -22.4 -12.85 -22.4 -13.3 -22.4 -13.85 -22.4 -14.7 -22.4 -15.4 -22.35 -15.55 M-16.45 -16.9 L-16.7 -16.9 -16.75 -16.9 -16.85 -16.75 -17.0 -16.6 -17.05 -16.45 -17.1 -16.3 -17.1 -15.05 -17.1 -13.75 -17.1 -12.75 -17.05 -12.6 -17.05 -11.9 -17.05 -11.2 -17.05 -10.5 -16.8 -9.2 -16.5 -7.8 -16.35 -6.95 -16.25 -6.8 -16.15 -6.5 -16.05 -6.25 -15.95 -5.95 -15.9 -5.8 -15.85 -5.85 -15.75 -5.95 -15.7 -6.1 -15.6 -6.25 -15.45 -6.8 -15.35 -7.35 -15.25 -7.95 -15.25 -8.1 -15.25 -8.2 -15.25 -8.35 -15.2 -8.5 -15.2 -8.65 -15.2 -8.8 -15.15 -8.95 -15.15 -10.05 -15.15 -11.35 -15.15 -12.35 -15.2 -12.5 -15.2 -12.6 -15.2 -12.75 -15.2 -12.9 -15.25 -13.05 -15.25 -13.2 -15.25 -13.35 -15.3 -13.5 -15.3 -13.6 -15.3 -13.75 -15.6 -14.75 -15.95 -15.9 -16.2 -16.6 -16.35 -16.75 -16.45 -16.9" fill="#333333" fill-rule="evenodd" stroke="none"/>
    <path d="M-28.55 -0.1 L-28.55 -0.35 -28.55 -0.65 -28.55 -0.95 -28.5 -1.05 -28.4 -1.2 -28.25 -1.3 -28.05 -1.35 -27.75 -1.25 -27.6 -1.1 -27.5 -1.0 -27.4 -0.85 -27.35 -0.7 -27.3 -0.55 -27.25 -0.4 -27.2 -0.25 -27.15 -0.1 -27.1 0.0 -27.0 0.15 -26.95 0.3 -26.85 0.45 -26.8 0.6 -26.7 0.75 -26.65 0.85 -26.6 1.0 -26.5 1.15 -26.45 1.3 -26.35 1.45 -26.3 1.6 -26.25 1.7 -26.2 1.85 -26.15 2.0 -26.05 2.15 -25.85 2.7 -25.65 3.4 -25.4 4.15 -25.35 4.3 -25.3 4.4 -25.25 4.55 -25.2 4.7 -25.15 4.85 -25.05 5.0 -24.9 5.4 -24.7 6.15 -24.45 6.85 -24.45 7.0 -24.35 7.1 -24.3 7.25 -24.25 7.4 -24.2 7.55 -24.1 7.7 -24.05 7.85 -24.0 7.95 -23.35 8.8 -22.65 9.8 -22.25 10.25 -21.7 10.25 -21.65 10.1 -21.55 9.8 -21.5 9.55 -21.45 9.25 -21.45 9.1 -21.45 8.85 -21.45 8.55 -21.45 8.1 -21.45 8.0 -21.55 7.85 -21.65 7.7 -21.7 7.55 -21.8 7.4 -21.8 7.25 -21.9 7.1 -21.95 7.0 -22.05 6.85 -22.1 6.7 -22.15 6.55 -22.25 6.4 -22.3 6.25 -22.4 6.15 -22.45 6.0 -22.55 5.85 -22.6 5.7 -22.65 5.55 -22.7 5.4 -22.7 5.25 -22.8 5.15 -22.85 5.0 -22.9 4.85 -22.95 4.7 -23.05 4.55 -23.25 3.85 -23.45 3.0 -23.6 2.15 -23.6 2.0 -23.6 1.85 -23.6 1.7 -23.65 1.6 -23.7 1.45 -23.7 1.3 -23.7 1.0 -23.7 0.6 -23.7 0.15 -23.7 0.0 -23.7 -0.1 -23.6 -0.25 -23.6 -0.4 -23.55 -0.55 -23.45 -0.7 -23.35 -0.85 -23.25 -0.95 -23.15 -0.95 -22.9 -1.0 -22.7 -1.0 -22.45 -0.95 -22.3 -0.8 -22.2 -0.65 -22.15 -0.5 -22.05 -0.35 -22.0 -0.2 -21.95 -0.1 -21.9 0.05 -21.85 0.2 -21.8 0.35 -21.75 0.5 Q-21.45 1.25 -21.3 2.05 L-20.85 3.9 -20.45 5.45 -20.45 5.6 -20.45 5.75 -20.4 5.9 -20.4 6.05 -20.4 6.15 -20.35 6.3 -20.35 6.45 -20.35 6.6 -20.35 6.75 -20.3 6.9 -20.3 7.05 -20.3 7.15 -20.3 7.3 -20.3 7.45 -20.3 7.6 -20.25 7.75 -19.95 8.15 -19.15 8.85 -18.8 9.15 -18.55 9.25 -18.35 9.3 -17.5 9.25 -17.45 9.1 -17.4 8.95 -17.45 8.85 -17.45 8.7 -17.5 8.55 -17.5 8.4 -17.5 8.25 -17.55 8.1 -17.55 8.0 -17.6 7.85 -17.6 7.7 -17.6 7.55 -17.65 7.4 -17.65 7.25 -17.65 7.1 -17.7 7.0 -17.7 6.25 -17.7 5.4 -17.7 4.55 -17.7 4.4 -17.7 4.3 -17.6 4.15 -17.45 4.0 -17.35 3.9 -17.1 3.85 -16.8 3.95 -16.6 4.1 -16.5 4.25 -16.4 4.35 -16.3 4.5 -16.25 4.65 -16.2 4.8 -16.15 5.1 -16.05 5.35 -16.05 6.2 -16.05 7.2 -16.05 8.2 -16.05 8.3 -15.95 8.25 -15.9 8.1 -15.9 7.95 -15.9 7.85 -15.9 7.7 -15.9 7.55 -15.75 7.4 -15.55 7.3 -15.3 7.4 -15.2 7.55 -15.15 7.7 -15.15 7.85 -15.15 7.95 -15.15 8.1 -15.1 8.25 -15.05 8.4 -14.95 8.55 -14.95 8.7 -14.95 8.85 -14.95 8.95 -14.95 9.25 -14.95 9.4 -14.9 9.55 -14.9 9.7 -14.9 9.8 -14.9 9.95 -14.9 10.25 -14.9 10.4 -14.95 10.55 -15.0 10.65 -15.05 10.8 -15.15 10.95 -15.25 11.1 -15.45 11.25 -15.7 11.35 -16.15 11.35 -16.45 11.25 -16.6 11.1 -16.75 10.95 -16.85 10.8 -16.95 10.65 -17.0 10.55 -17.15 10.45 -18.45 10.55 -19.3 10.3 -19.5 10.15 -19.9 9.85 -20.2 9.6 -20.3 9.6 -20.35 9.75 -20.35 9.85 -20.45 10.15 -20.45 10.3 -20.55 10.45 -20.6 10.6 -20.65 10.7 -20.75 10.85 -20.8 11.0 -20.9 11.15 -21.1 11.3 -21.3 11.4 -21.4 11.45 -21.65 11.45 -22.2 11.5 Q-23.1 11.2 -23.7 10.35 L-24.6 9.1 -24.7 8.95 -24.7 9.05 -24.7 9.35 -24.7 9.75 -24.7 10.2 -24.75 10.35 -24.85 10.5 -24.95 10.6 -25.1 10.75 -25.35 10.85 -26.2 10.85 -26.5 10.75 -27.15 10.5 -28.1 9.65 -29.1 8.5 -29.3 8.2 -29.35 8.05 -29.4 7.95 -29.45 7.8 -29.55 7.65 -29.6 7.5 -29.7 7.35 -29.75 7.2 -29.8 7.05 -29.85 6.95 -29.9 6.8 -30.0 6.65 -30.05 6.5 -30.1 6.35 -30.15 6.2 -30.2 6.1 -30.25 5.95 -30.3 5.8 -30.35 5.65 -30.35 5.5 -30.3 5.35 -30.3 5.25 -30.3 4.95 -30.3 4.65 -30.3 4.35 -30.25 4.25 -30.2 4.1 -30.2 3.95 -30.2 3.8 -30.2 3.65 -30.2 3.5 -30.15 3.4 -30.1 3.25 -30.05 3.1 -29.9 2.95 -29.7 2.95 -29.55 3.1 -29.55 3.25 -29.6 3.4 -29.65 3.5 -29.65 3.65 -29.65 3.8 -29.65 3.95 -29.65 4.1 -29.65 4.25 -29.6 4.35 -29.55 4.5 -29.55 4.65 -29.55 4.8 -29.55 4.95 -29.55 5.25 -29.55 5.35 -29.5 5.5 -29.45 5.65 -29.4 5.8 -29.35 5.95 -29.3 6.1 -29.25 6.2 -29.15 6.35 -29.1 6.5 -29.05 6.65 -29.0 6.8 -28.95 6.95 -28.9 7.05 -28.8 7.2 -28.75 7.35 -28.65 7.5 -28.6 7.65 -27.95 8.35 -27.2 9.2 -26.9 9.5 -26.65 9.65 -26.4 9.75 -26.2 9.8 -25.75 9.7 -25.75 9.0 -25.75 8.15 -25.75 7.3 -25.75 7.05 -25.8 6.9 -25.8 6.75 -25.8 6.6 -25.85 6.45 -25.95 6.15 -26.1 5.75 -26.2 5.45 -26.25 5.3 -26.3 5.2 -26.35 5.05 -26.45 4.9 -26.5 4.75 -26.55 4.6 -26.65 4.45 -26.7 4.35 -26.75 4.2 -26.85 4.05 -26.9 3.9 -26.95 3.75 -27.0 3.6 -27.1 3.5 -27.15 3.35 -27.2 3.2 -27.3 3.05 -27.35 2.9 -27.45 2.75 -27.5 2.6 -27.6 2.5 -27.65 2.35 -27.75 2.2 -27.8 2.05 -27.85 1.9 -27.95 1.75 -28.0 1.65 -28.05 1.5 -28.05 1.35 -28.15 1.2 -28.2 1.05 -28.3 0.8 -28.45 0.35 -28.55 0.05 -28.55 -0.1" fill="#333333" fill-rule="evenodd" stroke="none"/>
    <path d="M0.7 20.4 L0.8 20.5 0.9 20.65 0.95 20.8 1.0 20.95 1.0 21.1 1.0 21.25 1.0 21.35 1.0 21.5 1.05 21.65 1.05 21.8 0.95 22.1 0.8 22.5 0.65 22.95 0.55 23.1 0.4 23.35 -0.05 23.8 -0.35 23.9 -0.55 23.9 -0.9 23.8 -1.15 23.65 -1.25 23.5 -1.35 23.35 -1.45 23.2 -1.5 23.1 -1.6 22.8 -1.75 22.35 -1.85 21.95 -1.85 21.5 -1.85 20.8 -1.85 20.1 -1.85 19.8 -1.9 19.85 -2.0 19.95 -2.1 20.1 -2.15 20.25 -2.2 20.4 -2.3 20.5 -2.35 20.65 -2.4 20.8 -2.5 20.95 -2.55 21.1 -2.6 21.25 -2.7 21.35 -2.75 21.5 -2.8 21.65 -2.9 21.8 -2.95 21.95 -3.05 22.1 -3.1 22.2 -3.3 22.5 -3.4 22.65 -3.45 22.8 -3.65 23.1 -4.0 23.65 -4.3 24.05 -4.85 24.5 Q-5.4 24.9 -6.1 25.0 L-6.5 25.0 -6.8 24.9 -7.0 24.8 -7.1 24.65 -7.2 24.5 -7.3 24.35 -7.4 24.2 -7.5 23.95 -7.6 23.5 -7.7 23.05 -7.75 22.8 -8.2 23.3 -8.75 24.0 -9.25 24.4 -9.45 24.45 -10.2 24.45 -10.55 24.35 -11.05 23.9 -11.6 23.2 -11.8 22.95 -11.85 22.8 -11.95 22.65 -11.95 22.5 -12.1 22.6 -12.25 22.75 -12.4 22.85 -12.5 22.9 -12.75 22.9 -13.05 22.95 -13.4 22.85 -13.75 22.55 -14.15 22.15 -14.35 21.85 -14.4 21.7 -14.5 21.55 -14.55 21.4 -14.6 21.3 -14.65 21.15 -14.75 20.85 -14.75 21.0 -14.75 21.3 -14.75 21.7 -14.75 22.0 -14.8 22.15 -14.85 22.25 -14.85 22.4 -14.95 22.7 -15.05 22.85 -15.25 23.0 -15.55 23.1 Q-16.6 23.0 -17.35 22.2 L-18.2 21.1 -18.25 20.95 -18.35 20.8 -18.45 20.65 -18.55 20.5 -18.6 20.4 -18.7 20.25 -18.8 20.1 -18.9 20.2 -19.0 20.35 -19.2 20.45 -19.45 20.55 -19.75 20.65 -20.25 20.65 -20.55 20.55 -22.2 19.4 -23.15 18.15 -23.2 18.0 -23.25 17.85 -23.3 17.75 -23.4 17.6 -23.45 17.45 -23.5 17.3 -23.6 17.15 -23.6 17.0 -23.6 16.75 -23.6 16.3 -23.6 15.9 -23.55 15.75 -23.55 15.6 -23.55 15.45 -23.55 15.3 -23.5 15.15 -23.45 15.05 -23.45 14.9 -23.35 14.8 -23.15 14.75 -22.9 14.85 -22.85 15.0 -22.85 15.1 -22.8 15.25 -22.75 15.4 -22.75 15.55 -22.75 15.7 -22.75 15.85 -22.7 15.95 -22.7 16.1 -22.7 16.25 -22.7 16.55 -22.7 16.85 -22.7 16.95 -22.65 17.1 -22.6 17.25 -22.55 17.4 -22.2 17.85 -21.7 18.5 -21.25 19.1 -20.95 19.25 -20.45 19.5 -20.25 19.6 -20.2 19.65 -19.75 19.6 -19.7 19.5 -19.65 19.35 -19.55 19.05 -19.45 18.75 -19.5 18.65 -19.6 18.5 -19.65 18.35 -19.75 18.2 -19.85 17.9 -20.0 17.5 -20.1 17.05 -20.15 16.9 -20.25 16.8 -20.3 16.65 -20.3 16.5 -20.3 16.35 -20.4 15.8 -20.6 14.9 -20.8 14.1 -20.8 13.8 -20.8 13.25 -20.8 12.65 -20.8 12.5 -20.75 12.4 -20.65 12.25 -20.5 12.15 -20.25 12.1 -20.0 12.2 -19.85 12.35 -19.75 12.45 -19.65 12.6 -19.6 12.75 -19.6 12.9 -19.6 13.05 -19.6 13.2 -19.6 13.3 -19.55 13.45 -19.5 13.6 -19.45 13.75 -19.35 13.9 -19.3 14.05 -19.25 14.2 -19.2 14.45 -19.15 14.75 -19.15 14.9 -19.15 15.05 -19.15 15.15 -19.1 15.3 -19.1 15.45 -19.1 15.6 -19.0 15.75 -18.95 15.9 -18.9 16.0 -18.85 16.15 -18.75 16.45 -18.65 16.6 -18.6 16.75 -18.55 16.85 -18.55 17.0 -18.55 17.15 -18.5 17.3 -18.5 17.45 -18.5 17.6 -18.45 17.75 -18.45 17.85 -18.45 18.0 -18.45 18.15 -18.4 18.3 -18.3 18.45 -18.25 18.6 -18.2 18.7 -18.15 18.85 -18.05 19.0 -18.0 19.15 -17.9 19.3 -17.85 19.45 -17.75 19.55 -17.65 19.7 -17.6 19.85 -17.5 20.0 -17.4 20.15 -17.35 20.3 -17.3 20.45 -17.0 20.85 -16.3 21.55 -16.0 21.7 -16.0 20.3 -16.0 18.6 -16.0 17.15 -16.15 16.6 -16.25 15.75 -16.4 14.9 -16.45 14.75 -16.45 14.6 -16.45 14.45 -16.45 14.3 -16.5 14.2 -16.5 14.05 -16.5 13.9 -16.5 13.75 -16.55 13.6 -16.55 12.9 -16.55 11.9 -16.55 10.9 -16.55 10.75 -16.5 10.6 -16.4 10.5 -16.3 10.4 -16.2 10.35 -15.95 10.3 -15.65 10.4 -15.5 10.55 -15.4 10.65 -15.3 11.1 -15.15 11.8 -15.0 12.5 -15.0 12.65 -15.0 12.8 -14.95 12.95 -14.95 13.1 -14.95 13.25 -14.9 13.35 -14.9 13.5 -14.9 13.65 -14.85 13.8 -14.85 13.95 -14.85 14.1 -14.85 14.2 -14.8 14.35 -14.8 14.5 -14.8 14.65 -14.8 14.8 -14.75 14.95 -14.75 15.1 -14.75 15.2 -14.4 17.05 -13.85 19.2 -13.35 20.75 -13.25 20.9 -13.2 21.05 -13.15 21.2 -13.05 21.3 -12.95 21.4 -12.9 21.35 -12.8 21.1 -12.7 20.65 -12.65 20.4 -12.65 20.25 -12.65 20.1 -12.6 19.95 -12.6 19.8 -12.55 19.65 -12.6 19.5 -12.6 19.25 -12.7 18.8 -12.8 18.55 -12.8 16.4 -12.8 13.85 -12.8 12.0 -12.75 11.85 -12.7 11.7 -12.65 11.55 -12.6 11.45 -12.55 11.3 -12.4 11.15 -12.2 11.05 -11.95 11.0 -11.65 11.1 -11.45 11.25 -11.3 11.4 -11.2 11.5 -11.15 11.65 -11.1 11.8 -11.1 14.5 -11.1 17.5 -11.1 19.5 -11.15 19.6 -11.15 19.75 -11.15 19.9 -11.1 20.2 -11.05 20.45 -11.05 20.6 -11.05 20.75 -11.0 20.9 -11.0 21.05 -11.0 21.2 -10.95 21.35 -10.85 21.6 -10.7 22.05 -10.6 22.3 -10.5 22.45 -10.4 22.6 -10.2 22.9 -10.1 23.05 -9.7 23.05 -9.55 22.9 -9.35 22.6 -9.05 22.2 -8.95 22.05 -8.75 21.45 -8.55 20.6 -8.4 19.75 -8.4 19.6 -8.4 19.5 -8.4 19.35 -8.35 19.2 -8.3 19.05 -8.3 18.9 -8.25 18.65 -8.25 17.9 -8.25 17.05 -8.25 16.05 -8.2 15.95 -8.15 15.8 -8.1 15.65 -8.0 15.5 -7.9 15.35 -7.75 15.25 -7.65 15.25 -7.45 15.15 -7.1 15.25 -6.95 15.4 -6.85 15.55 -6.8 15.7 -6.75 15.85 -6.75 16.55 -6.75 17.4 -6.75 18.4 -6.7 18.55 -6.7 18.65 -6.7 18.8 -6.65 18.95 -6.65 19.1 -6.65 19.25 -6.6 19.4 -6.6 19.55 -6.6 19.65 -6.6 19.8 -6.6 20.1 -6.6 20.65 -6.6 21.25 -6.6 21.5 -6.55 21.65 -6.5 21.8 -6.5 21.95 -6.5 22.1 -6.5 22.2 -6.45 22.35 -6.4 22.65 -6.3 23.1 -6.2 23.5 -6.1 23.55 -5.85 23.55 -5.7 23.4 -5.5 23.25 -5.3 23.1 -5.1 22.85 -4.75 22.25 -4.45 21.85 -4.4 21.7 -4.3 21.55 -4.2 21.4 -4.1 21.3 -4.05 21.15 -3.95 21.0 -3.95 20.85 -3.9 20.7 -3.8 20.55 -3.75 20.45 -3.7 20.3 -3.65 20.15 -3.55 20.0 -3.5 19.85 -3.4 19.7 -3.35 19.55 -3.25 19.45 -3.15 19.3 -3.1 19.15 -3.05 19.0 -3.0 18.85 -2.9 18.7 -2.85 18.6 -2.75 18.45 -2.7 18.3 -2.65 18.15 -2.55 18.0 -2.35 17.75 -1.95 17.3 -1.85 17.2 -1.75 17.15 -1.5 17.1 -1.3 17.1 -1.0 17.2 -0.85 17.35 -0.75 17.5 -0.7 17.65 -0.65 17.75 -0.6 18.05 -0.5 18.35 -0.5 19.35 -0.5 20.45 -0.5 21.6 -0.45 21.75 -0.4 21.9 -0.35 21.75 -0.35 21.6 -0.3 21.45 -0.25 21.35 -0.25 21.2 -0.25 21.05 -0.25 20.9 -0.2 20.75 -0.15 20.6 -0.05 20.45 0.0 20.35 0.1 20.25 0.2 20.2 0.4 20.15 0.6 20.25 0.7 20.4" fill="#333333" fill-rule="evenodd" stroke="none"/>
    <path d="M-10.5 -0.75 L-10.5 -0.9 -10.45 -1.0 -10.4 -1.15 -10.3 -1.3 -10.2 -1.4 -10.1 -1.45 -9.9 -1.5 -9.7 -1.5 -9.4 -1.4 -9.2 -1.25 -9.05 -1.1 -8.95 -1.0 -8.9 -0.85 -8.8 -0.7 -8.7 -0.55 -8.65 -0.4 -8.55 -0.25 -8.4 0.15 -8.25 0.75 -8.0 1.45 -7.95 1.6 -7.85 1.7 -7.5 2.85 -7.2 4.15 -6.9 5.4 -6.9 5.85 -6.9 6.55 -6.9 7.25 -6.9 7.55 -6.9 7.7 -6.8 7.85 -6.55 7.95 -6.25 8.1 -5.9 8.2 -5.75 8.15 -5.65 8.0 -5.6 7.9 -5.5 7.75 -5.45 7.6 -5.4 7.45 -5.35 7.3 -5.25 7.15 -5.2 7.05 -5.7 4.9 -6.45 2.5 -6.9 0.5 -6.9 0.35 -6.85 0.2 -6.85 -0.8 -6.85 -2.05 -6.85 -3.35 -6.85 -3.5 -6.8 -3.65 -6.75 -3.75 -6.7 -3.9 -6.65 -4.05 -6.55 -4.2 -6.45 -4.35 -6.1 -4.4 -6.1 -4.45 -5.85 -4.45 -5.6 -4.35 -5.45 -4.2 -5.35 -4.05 -5.3 -3.9 -5.2 -3.75 -5.15 -3.65 -5.1 -3.5 -5.05 -3.35 -5.0 -3.2 -4.95 -3.05 -4.85 -2.9 -4.85 -2.75 -4.8 -2.65 -4.75 -2.5 -4.7 -2.35 -4.65 -2.2 -4.55 -2.05 -4.4 -1.65 -4.2 -0.9 -3.95 -0.2 -3.95 -0.1 -3.85 0.05 -3.8 0.2 -3.75 0.35 -3.75 0.5 -3.75 0.65 -3.7 0.8 -3.7 0.9 -3.7 1.05 -3.65 1.2 -3.65 1.35 -3.65 1.5 -3.6 1.65 -3.6 1.75 -3.55 1.9 -3.55 2.35 -3.55 3.05 -3.55 3.75 -3.55 4.05 -3.6 4.2 -3.6 4.35 -3.6 4.45 -3.65 4.6 -3.65 4.75 -3.7 4.9 -3.7 5.05 -3.7 5.2 -3.75 5.3 -3.75 5.45 -3.8 5.6 -3.8 5.75 -3.8 6.05 -3.8 6.45 -3.8 6.9 -3.85 7.05 -3.75 7.15 -3.7 7.3 -3.65 7.45 -3.6 7.6 -3.55 7.75 -3.45 7.9 -3.4 8.0 -3.35 8.15 -3.3 8.3 -3.25 8.45 -3.15 8.6 -3.1 8.75 -3.05 8.85 -3.05 9.0 -2.95 9.15 -2.9 9.3 -2.85 9.45 -2.8 9.6 -2.4 10.15 -1.75 11.0 -1.35 11.45 -1.15 11.45 -1.05 11.4 -1.05 10.55 -1.05 9.4 -1.05 8.25 -1.0 8.1 -1.0 6.85 -1.0 5.25 -1.0 3.85 -0.95 3.7 -0.95 3.55 -0.9 3.45 -0.9 3.3 -0.85 3.15 -0.85 3.0 -0.85 2.85 -0.85 2.7 -0.85 2.6 -0.75 2.45 -0.6 2.3 -0.45 2.2 -0.25 2.15 0.05 2.25 0.25 2.4 0.35 2.55 0.4 2.65 0.4 4.8 0.4 7.2 0.4 9.5 0.45 9.65 0.5 9.75 0.55 9.9 0.6 10.05 0.75 10.2 1.5 10.2 1.85 9.9 2.35 9.5 2.75 9.2 3.3 8.45 4.1 7.5 4.5 7.1 4.75 7.05 5.0 7.15 5.2 7.3 5.35 7.45 5.45 7.6 5.5 7.75 5.55 8.0 5.65 8.45 5.85 8.85 5.9 9.0 5.95 9.15 6.05 9.3 6.15 9.4 6.25 9.35 6.25 9.2 6.25 9.05 6.25 8.9 6.3 8.8 6.4 8.65 6.55 8.5 6.6 8.35 6.55 8.2 6.55 8.05 6.55 7.95 6.7 7.9 6.75 8.0 6.75 8.15 6.75 8.3 6.8 8.4 7.05 8.6 7.2 8.75 7.25 8.85 7.3 9.0 7.3 9.15 7.3 9.3 7.3 9.45 7.35 9.6 7.4 9.7 7.4 9.85 7.4 10.0 7.4 10.15 7.45 10.3 7.45 10.45 7.4 10.6 7.3 10.7 7.15 10.85 7.0 10.95 6.75 11.0 6.2 11.0 5.85 10.9 5.65 10.75 5.25 10.45 4.95 10.05 4.9 9.9 4.8 9.75 4.7 9.65 4.65 9.5 4.6 9.35 4.55 9.2 Q4.15 9.35 3.6 9.9 L2.2 11.25 1.9 11.5 1.65 11.5 0.7 11.5 0.4 11.45 0.3 11.45 0.3 11.55 0.25 11.7 0.15 12.0 0.05 12.4 0.0 12.55 -0.1 12.7 -0.25 12.8 -0.35 12.85 -0.55 12.9 -1.3 12.9 -1.65 12.8 -1.95 12.65 -2.35 12.4 -2.8 11.8 -3.45 10.95 -3.8 10.55 -3.85 10.4 -3.9 10.25 -3.95 10.1 -3.95 9.95 -4.05 9.8 -4.1 9.7 -4.15 9.55 -4.2 9.4 -4.3 9.25 -4.35 9.1 -4.4 8.95 -4.45 8.85 -4.55 8.7 -4.6 8.75 -4.75 8.9 -4.9 9.05 -5.2 9.3 -5.3 9.35 -5.55 9.4 -5.85 9.4 -6.25 9.3 -6.7 9.15 -6.95 9.05 -7.0 9.2 -7.05 9.35 -7.05 9.5 -7.15 9.65 -7.2 9.75 -7.3 9.9 -7.35 10.05 -7.45 10.2 -7.5 10.35 -7.6 10.5 -7.8 10.6 -8.05 10.75 -8.5 11.0 -9.7 11.0 -10.55 10.75 Q-10.65 10.7 -10.8 10.6 L-11.05 10.5 -11.5 10.2 -11.75 9.95 -12.15 9.5 -12.55 8.9 -12.6 8.8 -12.7 8.65 -12.75 8.5 -12.85 8.35 -12.85 8.2 -12.95 8.05 -13.0 7.95 -13.1 7.8 -13.15 7.65 -13.2 7.5 -13.25 7.35 -13.35 7.2 -13.5 6.8 -13.7 6.05 -13.9 5.35 -14.0 5.1 -14.0 4.95 -14.0 4.8 -14.0 4.65 -14.05 4.5 -14.05 4.4 -14.1 4.25 -14.1 4.1 -14.15 3.95 -14.15 3.8 -14.15 3.65 -14.15 3.5 -14.1 3.4 -14.1 3.25 -14.1 3.1 -14.1 2.95 -14.1 2.8 -14.1 2.65 -14.05 2.55 -14.05 2.4 -14.05 2.25 -13.9 2.1 -13.7 2.0 -13.45 2.1 -13.35 2.25 -13.3 2.4 -13.3 2.55 -13.3 2.65 -13.25 2.8 -13.25 2.95 -13.25 3.1 -13.25 3.25 -13.25 3.4 -13.25 3.5 -13.0 4.5 -12.65 5.8 -12.3 6.95 -12.2 7.05 -12.15 7.2 -12.1 7.35 -12.05 7.5 -11.95 7.65 -11.95 7.8 -11.85 7.95 -11.8 8.05 -11.7 8.2 -11.65 8.35 -11.25 8.95 -10.4 9.65 -10.0 9.85 -9.8 9.9 -9.6 9.95 -8.7 9.9 -8.45 9.75 -8.35 9.6 -8.25 9.5 -8.2 9.35 -8.1 9.2 -8.1 9.05 -8.05 8.9 -8.05 8.8 -8.0 8.65 -8.0 8.5 -8.0 8.35 -8.1 8.2 -8.25 8.05 -8.5 7.8 -8.55 7.65 -8.65 7.5 -8.7 7.35 -8.8 7.2 -8.85 7.05 -8.9 6.95 -9.0 6.8 -9.05 6.65 -9.15 6.5 -9.2 6.35 -9.3 6.2 -9.35 6.1 -9.45 5.95 -9.5 5.8 -9.6 5.65 -9.7 5.5 -9.75 5.35 -9.85 5.25 -10.1 4.4 -10.4 3.25 -10.65 2.25 -10.65 1.95 -10.65 1.55 -10.65 0.95 -10.65 0.55 -10.6 0.4 -10.6 0.25 -10.6 0.1 -10.6 -0.05 -10.6 -0.3 -10.6 -0.45 -10.55 -0.6 -10.5 -0.75 M-5.75 -1.05 L-5.7 -0.35 -5.75 0.2 -5.4 1.5 -5.05 2.8 -4.85 3.45 -4.75 3.1 -4.8 2.65 -4.8 2.25 -4.85 2.1 -4.85 1.95 -4.85 1.8 -4.85 1.65 -4.9 1.55 -4.9 1.4 -4.9 1.25 -4.9 1.1 -4.95 0.95 -4.95 0.8 -4.95 0.7 -5.2 -0.3 -5.5 -1.3 -5.75 -1.8 -5.75 -1.05 M-9.5 0.6 L-9.5 1.0 -9.5 1.45 -9.5 1.85 -9.25 3.0 -8.9 4.15 -8.75 4.85 -8.65 5.0 -8.55 5.15 -8.5 5.25 -8.4 5.4 -8.35 5.55 -8.25 5.7 -8.2 5.85 -8.1 6.0 -8.0 6.1 -7.95 6.15 -7.95 6.0 -7.95 5.85 -7.95 5.7 -8.3 4.3 -8.65 2.85 -8.9 2.0 -9.0 1.85 -9.2 1.3 -9.35 0.75 -9.55 0.3 -9.55 0.45 -9.5 0.6" fill="#333333" fill-rule="evenodd" stroke="none"/>
    <path d="M-0.2 -19.0 L-0.1 -18.85 -0.05 -18.75 0.0 -18.6 0.1 -18.45 0.15 -18.3 0.25 -18.15 0.3 -17.9 0.45 -17.3 0.55 -16.75 0.6 -16.45 0.6 -16.05 0.6 -15.45 0.6 -14.75 0.6 -14.45 0.65 -14.35 0.7 -14.2 0.75 -14.05 0.85 -13.9 0.9 -13.75 1.35 -13.2 2.0 -12.35 Q2.2 -11.95 2.55 -11.65 L2.8 -11.55 3.05 -11.6 3.2 -11.7 3.3 -11.85 3.4 -12.0 3.5 -12.15 3.55 -12.3 3.6 -12.45 3.7 -12.6 3.9 -13.45 4.2 -14.55 4.4 -15.85 4.45 -16.0 4.45 -16.15 4.45 -16.25 4.5 -16.4 4.65 -16.55 4.75 -16.65 4.85 -16.7 5.05 -16.75 5.35 -16.65 5.55 -16.5 5.65 -16.35 5.7 -16.2 5.7 -16.1 5.7 -15.95 5.7 -15.8 5.7 -15.65 5.7 -15.5 5.7 -15.35 5.75 -15.4 5.9 -15.45 5.95 -15.5 6.2 -15.55 6.5 -15.45 6.65 -15.3 6.75 -15.2 6.75 -15.05 6.8 -14.9 6.8 -14.75 6.75 -14.6 6.65 -14.5 6.55 -14.35 6.4 -14.2 6.25 -14.1 6.0 -14.05 5.35 -14.05 5.25 -13.45 5.05 -12.75 4.85 -12.05 4.75 -11.75 4.65 -11.65 4.6 -11.5 4.5 -11.35 4.4 -11.2 4.25 -11.05 4.1 -10.9 3.95 -10.8 3.85 -10.65 3.6 -10.35 3.45 -10.25 3.2 -10.2 2.8 -10.2 1.6 -10.9 0.7 -11.85 0.6 -11.95 0.6 -11.55 0.6 -10.95 0.6 -10.25 0.6 -9.95 0.55 -9.85 0.55 -9.7 0.55 -9.55 0.55 -9.4 0.5 -9.25 0.5 -9.1 0.45 -9.0 0.45 -8.85 0.45 -8.7 0.45 -8.55 0.45 -8.25 0.45 -8.0 0.45 -7.85 0.4 -7.7 0.35 -7.55 0.25 -7.4 0.2 -7.25 0.15 -7.15 0.05 -6.85 -0.05 -6.55 -0.15 -6.4 -0.2 -6.3 -0.3 -6.15 -0.4 -6.0 -0.6 -5.7 -0.7 -5.55 -0.9 -5.45 -1.25 -5.3 -1.75 -5.2 -2.25 -5.15 -2.65 -5.25 -3.1 -5.4 -3.75 -5.8 -4.35 -6.5 -4.65 -6.95 -4.7 -7.1 -4.8 -7.25 -4.85 -7.35 -4.85 -7.5 -4.95 -7.65 -5.0 -7.8 -5.1 -8.05 -5.2 -8.5 -5.35 -8.95 -5.45 -8.85 -5.55 -8.7 -5.65 -8.55 -5.7 -8.4 -5.8 -8.25 -5.9 -8.1 -6.15 -7.85 -6.35 -7.7 -6.6 -7.6 -7.05 -7.6 -7.3 -7.65 -7.55 -7.75 -7.8 -7.9 -8.0 -8.05 -8.1 -8.15 -8.2 -8.3 -8.25 -8.45 -8.35 -8.6 -8.45 -8.75 -8.65 -9.0 -8.75 -9.15 -8.75 -9.3 -8.75 -9.45 -8.8 -9.6 -8.8 -9.75 -8.85 -9.9 -8.9 -10.0 -8.9 -10.15 -8.9 -10.3 -8.95 -10.45 -8.95 -10.6 -8.95 -10.75 -9.0 -10.85 -9.0 -11.0 -9.0 -11.15 -9.05 -11.3 -9.05 -11.6 -9.05 -12.15 -9.05 -12.7 -9.05 -13.15 -9.0 -13.3 -9.0 -14.15 -9.0 -15.25 -9.0 -16.4 -9.0 -16.55 -8.95 -16.7 -8.9 -16.85 -8.9 -17.0 -8.9 -17.1 -8.85 -17.25 -8.85 -17.4 -8.85 -17.55 -8.8 -17.7 -8.8 -17.85 -8.75 -17.95 -8.75 -18.1 -8.75 -18.4 -8.75 -18.7 -8.75 -18.95 -8.75 -19.1 -8.7 -19.25 -8.6 -19.4 -8.55 -19.55 -8.5 -19.7 -8.4 -19.8 -8.15 -19.95 -7.9 -19.95 -7.75 -19.8 -7.7 -19.7 -7.8 -19.55 -7.8 -19.4 -7.75 -19.25 -7.75 -19.1 -7.7 -18.95 -7.85 -19.0 -7.95 -19.1 -8.0 -19.1 -8.0 -18.95 -8.0 -18.7 -8.0 -18.4 -8.0 -18.1 -8.0 -17.85 -7.95 -17.7 -7.95 -17.55 -8.0 -17.4 -8.0 -17.25 -8.0 -17.1 -8.0 -17.0 -8.05 -16.85 -8.05 -15.85 -8.05 -14.55 -8.05 -13.3 -8.05 -13.15 -8.0 -13.0 -8.0 -12.85 -8.0 -12.6 -8.0 -12.15 -8.0 -11.7 -8.0 -11.6 -7.95 -11.45 -7.95 -11.3 -7.95 -11.15 -7.9 -11.0 -7.9 -10.85 -7.9 -10.75 -7.85 -10.6 -7.85 -10.45 -7.85 -10.3 -7.8 -10.15 -7.75 -10.0 -7.75 -9.9 -7.7 -9.75 -7.65 -9.6 -7.55 -9.45 -7.45 -9.3 -7.35 -9.15 -7.25 -9.0 -7.2 -8.9 -7.05 -8.85 -6.85 -8.95 -6.75 -9.05 -6.65 -9.2 -6.6 -9.35 -6.55 -9.5 -6.35 -10.05 -6.2 -10.9 -6.0 -11.75 -5.95 -12.05 -5.95 -12.2 -5.95 -12.35 -5.95 -12.5 -5.95 -12.6 -5.95 -12.75 -6.05 -13.05 -6.15 -13.45 -6.25 -13.9 -6.3 -14.2 -6.3 -14.35 -6.3 -14.45 -6.35 -14.6 -6.35 -14.75 -6.35 -14.9 -6.35 -15.05 -6.4 -15.2 -6.4 -15.3 -6.4 -15.45 -6.45 -15.6 -6.45 -16.3 -6.45 -17.3 -6.45 -18.45 -6.45 -18.75 -6.4 -18.85 -6.3 -19.0 -6.2 -19.1 -6.1 -19.15 -5.85 -19.2 -5.75 -19.2 -5.45 -19.1 -5.25 -18.95 -5.1 -18.85 -5.05 -18.7 -4.95 -18.55 -4.9 -18.4 -4.9 -18.25 -4.85 -18.1 -4.85 -17.95 -4.8 -17.85 -4.8 -17.1 -4.8 -16.15 -4.8 -15.0 -4.8 -14.7 -4.75 -14.55 -4.75 -14.3 -4.75 -13.7 -4.75 -13.15 -4.75 -12.7 -4.7 -12.55 -4.65 -12.45 -4.65 -12.3 -4.65 -12.15 -4.65 -12.0 -4.4 -10.9 -4.15 -9.45 -3.75 -8.05 -3.65 -7.9 -3.6 -7.75 -3.55 -7.6 -3.45 -7.45 -3.4 -7.3 -3.3 -7.2 -3.2 -7.05 -3.05 -6.9 -3.0 -6.75 -2.8 -6.6 -2.6 -6.5 -2.5 -6.45 -2.3 -6.4 -1.65 -6.45 -1.5 -6.6 -1.4 -6.75 -1.4 -6.9 -1.3 -7.05 -1.25 -7.2 -1.25 -7.3 -1.15 -7.45 -1.05 -7.6 -1.0 -7.75 -0.95 -7.9 -0.9 -8.05 -0.9 -8.15 -0.9 -8.3 -0.9 -8.6 -0.9 -8.9 -0.9 -9.0 -0.85 -9.15 -0.85 -9.3 -0.85 -9.45 -0.8 -9.6 -0.8 -9.75 -0.75 -9.9 -0.75 -10.0 -0.7 -10.15 -0.7 -11.15 -0.7 -12.45 -0.7 -13.85 -0.7 -14.0 -0.75 -14.15 -0.8 -14.3 -0.9 -14.4 -0.95 -14.55 -1.05 -14.7 -1.15 -14.85 -1.2 -15.0 -1.25 -15.15 -1.35 -15.25 -1.45 -15.55 -1.65 -16.1 -1.8 -16.7 -1.85 -17.0 -1.85 -17.1 -1.85 -17.25 -1.9 -17.4 -1.9 -17.55 -1.9 -17.7 -1.9 -17.85 -1.95 -17.95 -1.95 -18.1 -1.95 -18.4 -1.95 -18.7 -1.95 -18.95 -1.95 -19.25 -1.95 -19.4 -2.0 -19.55 -1.95 -19.7 -1.95 -19.8 -1.9 -19.95 -1.75 -20.1 -1.55 -20.2 -1.35 -20.2 -1.3 -20.25 -1.0 -20.15 -0.8 -20.0 -0.7 -19.85 -0.5 -19.6 -0.35 -19.3 -0.25 -19.15 -0.2 -19.0" fill="#333333" fill-rule="evenodd" stroke="none"/>
    <path d="M14.8 -14.0 L14.9 -14.0 15.25 -13.9 15.45 -13.75 15.55 -13.6 15.6 -13.5 15.7 -13.35 15.7 -13.2 15.75 -13.05 15.8 -12.75 15.9 -12.35 15.95 -12.2 15.95 -12.05 15.95 -11.9 15.95 -11.75 16.0 -11.5 16.05 -11.2 16.15 -10.8 16.2 -10.5 16.2 -10.35 16.2 -10.2 16.25 -10.05 16.25 -9.9 16.25 -9.8 16.3 -9.65 16.3 -9.5 16.3 -9.35 16.35 -9.2 16.4 -9.05 16.4 -8.95 16.4 -8.8 16.45 -8.65 16.45 -8.5 16.45 -8.35 16.45 -8.2 16.5 -8.1 16.5 -7.95 16.5 -7.8 16.5 -7.65 16.5 -7.5 16.55 -7.35 16.55 -6.65 16.55 -5.65 16.55 -4.65 16.55 -4.55 16.55 -4.4 16.65 -4.25 16.75 -4.1 16.85 -4.05 17.2 -4.05 17.25 -4.5 17.5 -5.2 17.65 -5.9 17.7 -6.2 17.7 -6.35 17.7 -6.45 17.75 -6.6 17.75 -6.75 17.8 -6.9 17.8 -7.05 17.8 -7.2 17.85 -7.45 18.0 -7.9 18.2 -8.45 18.3 -8.75 18.35 -8.9 18.4 -9.0 18.4 -9.15 18.45 -9.3 18.5 -9.45 18.5 -9.6 18.45 -9.75 18.5 -9.85 18.5 -10.0 18.6 -10.15 18.8 -10.3 19.15 -10.4 19.25 -10.4 19.6 -10.3 19.75 -10.15 19.85 -10.0 19.9 -9.9 19.95 -9.75 19.9 -9.6 19.9 -9.45 19.9 -9.3 19.9 -9.15 19.9 -8.9 19.9 -8.6 19.95 -8.45 19.95 -8.3 19.95 -8.15 19.95 -8.05 19.95 -7.9 19.95 -7.75 19.95 -7.6 20.05 -7.45 20.1 -7.3 20.15 -7.2 20.2 -7.05 20.3 -6.9 20.35 -6.75 20.45 -6.6 20.55 -6.45 20.7 -6.35 21.5 -6.35 21.55 -6.45 21.6 -6.6 21.65 -6.75 21.65 -6.9 21.65 -7.05 21.65 -7.2 21.7 -7.3 21.7 -7.45 21.65 -7.6 21.35 -7.7 21.1 -7.8 21.05 -7.95 21.05 -8.1 21.05 -8.2 21.2 -8.3 21.35 -8.35 21.65 -8.45 21.95 -8.55 22.2 -8.5 22.3 -8.45 22.6 -8.35 22.8 -8.2 22.85 -8.1 22.9 -7.95 22.9 -7.8 22.9 -7.65 22.9 -7.5 22.9 -7.35 22.9 -7.25 22.95 -7.1 22.95 -6.95 22.95 -6.8 22.95 -6.65 22.95 -6.5 22.95 -6.35 22.9 -6.25 22.85 -6.1 22.85 -5.95 22.75 -5.8 22.7 -5.65 22.6 -5.5 22.5 -5.4 22.4 -5.25 22.1 -5.0 21.8 -4.95 20.6 -4.9 20.25 -5.0 19.85 -5.3 19.55 -5.6 19.3 -5.85 19.25 -6.0 19.2 -6.15 19.1 -6.3 19.05 -6.2 19.05 -6.05 19.05 -5.9 18.9 -5.35 18.7 -4.5 18.45 -3.65 18.35 -3.5 18.35 -3.35 18.3 -3.2 18.2 -3.05 18.1 -2.9 17.95 -2.8 17.8 -2.7 16.6 -2.6 16.4 -2.6 16.35 -2.45 16.35 -2.3 16.3 -2.15 16.2 -1.9 16.15 -1.75 16.05 -1.6 16.0 -1.45 15.95 -1.3 15.9 -1.15 15.8 -1.0 15.75 -0.9 15.7 -0.75 15.65 -0.6 15.55 -0.45 15.45 -0.3 15.4 -0.15 14.9 0.25 13.9 0.95 13.75 1.05 13.65 1.1 13.4 1.15 12.9 1.15 12.05 0.9 11.3 0.5 11.05 0.2 10.65 -0.2 10.35 -0.65 10.25 -0.8 10.25 -0.65 10.25 -0.5 10.25 -0.35 10.25 -0.1 10.25 0.05 10.2 0.2 10.15 0.35 10.1 0.65 10.0 0.9 9.95 1.05 9.85 1.2 9.8 1.35 9.7 1.5 9.5 1.65 9.2 1.75 8.85 1.85 7.95 1.7 7.5 1.6 6.25 0.6 5.1 -0.85 4.9 -1.1 4.85 -1.25 4.8 -1.4 4.75 -1.55 4.65 -1.7 4.55 -1.95 4.4 -2.4 4.25 -2.8 4.15 -3.1 4.1 -3.25 4.05 -3.4 4.0 -3.55 3.95 -3.65 3.85 -3.8 3.85 -3.95 3.85 -4.1 3.85 -4.25 3.7 -4.65 3.6 -5.4 3.4 -6.1 3.35 -6.25 3.25 -6.35 3.2 -6.5 3.2 -6.65 3.15 -6.8 3.05 -6.95 3.0 -7.1 3.0 -7.25 3.0 -7.35 3.1 -7.5 3.1 -7.65 3.1 -7.8 3.1 -7.95 3.1 -8.2 3.1 -8.35 3.1 -8.5 3.15 -8.65 3.2 -8.8 3.45 -8.8 3.55 -8.65 3.6 -8.5 3.6 -8.35 3.65 -8.2 3.65 -8.1 3.7 -7.95 3.65 -7.8 3.65 -7.65 3.65 -7.5 3.7 -7.35 3.75 -7.25 3.85 -7.1 3.9 -6.95 3.95 -6.8 4.0 -6.65 4.1 -6.5 4.1 -6.35 4.15 -6.25 4.25 -6.1 4.3 -5.95 4.4 -5.8 4.45 -5.5 4.55 -5.1 4.65 -4.55 4.8 -4.1 4.9 -3.95 4.95 -3.8 5.0 -3.65 5.0 -3.55 5.1 -3.4 5.15 -3.25 5.2 -3.1 5.25 -2.95 5.35 -2.8 5.4 -2.7 5.5 -2.55 5.55 -2.4 5.6 -2.25 5.65 -2.1 5.7 -1.95 5.8 -1.85 5.85 -1.7 5.85 -1.55 6.1 -1.25 6.35 -0.95 6.7 -0.55 7.15 -0.15 7.8 0.45 8.1 0.6 8.3 0.65 8.75 0.6 8.8 0.45 8.85 0.3 8.9 0.15 8.95 -0.1 9.0 -0.25 9.0 -0.4 9.0 -0.55 9.0 -0.7 9.0 -0.85 9.0 -1.0 8.95 -1.1 8.95 -1.25 8.9 -1.4 8.9 -1.55 8.9 -1.7 8.85 -1.85 8.85 -1.95 8.85 -2.1 8.7 -2.55 8.5 -3.1 8.35 -3.8 8.3 -3.95 8.2 -4.1 8.1 -4.25 8.05 -4.4 7.95 -4.55 7.9 -4.65 7.8 -4.8 7.75 -4.95 7.65 -5.1 7.65 -5.25 7.55 -5.4 7.5 -5.5 7.4 -5.65 7.35 -5.8 7.3 -5.95 7.3 -6.1 7.25 -6.25 7.15 -6.35 7.1 -6.5 7.05 -6.65 7.0 -6.8 6.95 -6.95 6.9 -7.1 6.8 -7.25 6.75 -7.5 6.7 -7.8 6.65 -8.2 6.6 -8.5 6.6 -9.05 6.6 -9.9 6.6 -10.8 6.6 -10.9 6.65 -11.05 6.7 -11.2 6.75 -11.35 6.75 -11.5 6.8 -11.65 6.9 -11.75 7.05 -11.9 7.4 -12.0 7.65 -11.9 7.85 -11.75 7.9 -11.65 8.0 -11.5 8.05 -11.35 8.1 -11.2 8.15 -11.05 8.15 -10.9 8.15 -10.8 8.15 -10.65 8.15 -10.35 8.15 -10.05 8.2 -9.9 8.2 -9.8 8.2 -9.65 8.2 -9.5 8.25 -9.35 8.25 -9.2 8.25 -9.05 8.3 -8.95 8.3 -8.8 8.3 -8.65 8.55 -7.5 8.9 -6.1 9.25 -4.8 9.8 -3.95 10.55 -2.8 10.95 -2.25 11.0 -2.1 11.1 -1.95 11.15 -1.85 11.2 -1.7 11.3 -1.55 11.35 -1.4 11.5 -1.25 11.65 -1.1 11.9 -0.85 12.15 -0.55 12.4 -0.4 12.55 -0.3 12.65 -0.25 12.85 -0.2 13.3 -0.25 13.75 -0.55 14.25 -1.0 14.45 -1.25 14.5 -1.4 14.6 -1.55 14.65 -1.7 14.75 -1.85 14.8 -1.95 14.8 -2.1 14.85 -2.25 14.9 -2.4 14.95 -2.55 15.05 -2.7 15.05 -2.8 15.1 -2.95 15.1 -3.1 15.1 -3.25 15.15 -3.4 15.15 -3.55 15.2 -3.65 15.1 -3.8 14.95 -3.95 14.85 -4.1 14.6 -4.4 14.55 -4.55 14.45 -4.65 14.35 -4.8 14.25 -4.95 14.15 -5.1 14.1 -5.25 14.0 -5.4 13.9 -5.5 13.85 -5.65 13.8 -5.8 13.7 -5.95 13.6 -6.1 13.5 -6.25 13.45 -6.35 13.35 -6.5 13.25 -6.65 13.2 -6.8 13.15 -6.95 13.15 -7.95 13.15 -9.35 13.15 -10.65 13.2 -10.8 13.25 -10.9 13.25 -11.05 13.25 -11.2 13.25 -11.35 13.3 -11.5 13.3 -11.65 13.3 -11.75 13.3 -11.9 13.35 -12.05 13.35 -12.2 13.4 -12.35 13.45 -12.5 13.5 -12.6 13.6 -12.75 13.65 -12.9 13.7 -13.05 13.75 -13.2 13.8 -13.35 13.9 -13.5 14.05 -13.6 14.25 -13.75 14.45 -13.9 14.75 -13.95 14.8 -14.0 M14.95 -9.95 L14.95 -10.1 14.95 -10.25 14.85 -10.8 14.75 -11.4 14.6 -11.85 14.6 -11.8 14.6 -11.7 14.55 -11.55 14.55 -11.4 14.55 -11.25 14.5 -11.1 14.5 -9.7 14.5 -8.25 14.5 -7.25 14.55 -7.15 14.65 -7.0 14.75 -6.85 14.8 -6.7 14.85 -6.55 14.95 -6.4 15.05 -6.3 15.15 -6.15 15.2 -6.15 15.2 -6.4 15.2 -6.7 15.2 -7.0 15.2 -7.15 15.15 -7.25 15.15 -7.4 15.15 -7.55 15.15 -7.7 15.1 -7.85 15.1 -8.0 15.1 -8.1 15.1 -8.25 15.1 -8.4 15.05 -8.55 15.05 -8.85 15.05 -9.1 15.05 -9.4 15.0 -9.55 15.0 -9.7 15.0 -9.85 14.95 -9.95" fill="#333333" fill-rule="evenodd" stroke="none"/>
    <path d="M13.2 -0.45 L13.65 -0.45 13.9 -0.35 14.1 -0.2 14.25 -0.1 14.3 0.05 14.4 0.2 14.45 0.35 14.55 0.5 14.6 0.65 14.65 0.8 14.75 0.9 14.8 1.05 14.8 1.2 14.85 1.35 14.95 1.65 15.0 1.75 15.1 1.9 15.25 2.6 15.5 3.75 15.8 5.05 15.85 5.3 15.85 5.45 15.85 5.75 15.85 6.15 15.85 6.6 15.85 6.75 15.9 6.9 15.9 7.15 15.9 7.75 15.9 8.45 15.9 9.15 15.95 9.3 16.05 9.45 16.15 9.6 16.2 9.7 16.3 9.85 16.35 10.0 16.45 10.15 16.55 10.3 16.6 10.45 16.65 10.6 16.7 10.7 16.8 10.85 16.9 11.0 17.0 11.15 17.1 11.3 17.15 11.45 17.25 11.55 17.35 11.7 17.5 11.85 17.8 12.1 17.9 12.05 18.0 11.9 18.05 11.75 18.1 11.6 18.2 11.5 18.25 11.35 18.35 11.2 18.4 11.05 18.45 10.9 18.5 10.75 18.55 10.6 18.6 10.5 18.6 10.35 18.6 10.2 18.6 10.05 18.75 9.5 18.95 8.35 19.25 7.2 19.3 6.95 19.3 6.8 19.3 6.65 19.35 6.5 19.4 6.35 19.4 6.2 19.45 6.1 19.45 5.95 19.45 5.8 19.45 5.5 19.45 4.95 19.45 4.35 19.45 4.25 19.5 4.1 19.55 3.95 19.7 3.8 19.85 3.7 20.1 3.65 20.35 3.75 20.55 3.9 20.65 4.05 20.7 4.2 20.7 5.05 20.7 6.3 20.7 7.75 20.7 8.0 20.75 8.15 20.75 8.85 20.75 10.15 20.75 11.45 20.75 11.7 20.8 11.85 20.8 12.0 20.85 12.1 20.9 12.05 21.05 11.9 21.05 11.75 21.1 11.6 21.2 11.5 21.25 11.35 21.35 11.2 21.45 11.05 21.5 10.9 21.6 10.75 21.7 10.6 21.75 10.5 21.85 10.35 21.9 10.2 21.95 10.05 22.0 9.9 22.1 9.75 22.15 9.65 22.25 9.5 22.3 9.35 22.35 9.2 22.45 9.05 22.5 8.9 22.6 8.8 22.65 8.65 22.7 8.5 22.8 8.35 22.85 8.2 22.85 8.05 22.95 7.95 23.0 7.8 23.05 7.65 23.1 7.5 23.15 7.35 23.2 7.2 23.3 7.05 23.35 6.95 23.4 6.8 23.5 6.65 23.6 6.5 23.7 6.35 23.85 6.1 23.95 5.95 24.0 5.8 24.1 5.65 24.15 5.5 24.2 5.35 24.3 5.25 24.4 5.1 24.5 4.95 24.6 4.85 24.7 4.8 24.95 4.75 25.15 4.75 25.5 4.85 25.6 5.0 25.7 5.15 25.75 5.25 25.8 5.4 25.8 5.7 25.8 6.25 25.8 7.0 25.8 7.55 25.85 7.7 25.9 7.85 25.95 8.1 26.05 8.4 26.15 8.6 26.25 8.5 26.4 8.4 26.45 8.35 26.65 8.3 26.95 8.25 27.3 8.15 27.6 8.25 27.75 8.4 27.85 8.55 27.9 8.7 27.95 8.85 27.95 8.95 27.95 9.1 27.95 9.25 27.9 9.4 27.85 9.55 27.8 9.7 27.7 9.8 27.6 9.95 27.55 10.1 27.45 10.25 27.3 10.4 27.2 10.55 26.85 10.6 26.15 10.6 25.8 10.5 25.5 10.4 25.25 10.25 25.15 10.1 25.05 9.95 24.95 9.7 24.8 9.1 24.65 8.4 24.55 7.95 24.45 7.85 24.4 7.95 24.35 8.05 24.3 8.2 24.25 8.35 24.2 8.5 24.1 8.65 24.05 8.8 24.0 8.9 23.9 9.05 23.85 9.2 23.8 9.35 23.7 9.5 23.7 9.65 23.6 9.75 23.55 9.9 23.5 10.05 23.4 10.2 23.35 10.35 23.25 10.5 23.2 10.6 23.1 10.75 23.05 10.9 22.95 11.05 22.9 11.2 22.85 11.35 22.75 11.5 22.7 11.6 22.6 11.75 22.5 11.9 22.45 12.05 22.35 12.2 22.3 12.35 22.25 12.45 22.15 12.6 22.1 12.75 22.0 12.9 21.95 13.05 21.85 13.2 21.65 13.45 21.55 13.6 21.35 13.75 21.05 13.85 20.6 13.85 20.25 13.75 20.1 13.6 20.0 13.45 19.95 13.3 19.9 13.2 19.8 13.05 19.7 12.9 19.6 12.75 19.55 12.6 19.5 12.45 19.5 12.35 19.45 12.2 19.4 12.05 19.4 12.0 Q19.3 12.0 19.25 12.1 L19.25 12.25 19.15 12.4 19.1 12.5 19.05 12.65 18.95 12.8 18.9 12.95 18.75 13.1 18.6 13.25 18.5 13.3 18.4 13.35 18.2 13.4 17.75 13.4 17.45 13.3 17.0 13.05 16.4 12.45 15.85 11.75 15.8 11.6 15.7 11.5 15.65 11.35 15.55 11.2 15.5 11.05 15.4 11.15 15.3 11.3 15.2 11.45 15.1 11.55 15.05 11.7 14.95 11.85 14.85 12.0 14.8 12.15 14.75 12.3 14.7 12.4 14.6 12.55 14.55 12.7 14.5 12.85 14.4 13.0 14.35 13.15 14.3 13.3 14.2 13.4 14.1 13.55 13.9 13.7 13.65 13.8 13.4 13.8 13.05 13.7 12.95 13.6 12.9 13.55 12.55 13.45 12.3 13.3 12.1 13.2 11.65 12.9 11.4 12.75 11.25 12.6 11.0 12.35 10.55 11.9 10.4 11.75 10.35 11.6 10.3 11.5 10.25 11.35 10.15 11.2 10.1 11.05 10.0 10.9 9.95 10.75 9.85 10.6 9.8 10.5 9.75 10.35 9.65 10.2 9.6 10.05 9.55 9.9 9.5 9.75 9.45 9.5 9.35 9.2 9.25 9.05 9.25 8.9 9.25 8.8 9.2 8.65 9.15 8.5 9.1 8.2 9.0 7.8 8.95 7.5 8.95 7.2 8.95 6.8 8.95 6.2 8.95 5.65 9.0 5.5 9.0 5.35 9.0 5.25 9.0 4.95 9.0 4.65 9.0 4.35 9.05 4.25 9.05 4.1 9.05 3.95 9.05 3.8 9.05 3.65 9.1 3.5 9.1 3.4 9.1 3.25 9.2 3.1 9.3 3.0 9.45 2.95 9.7 3.05 9.8 3.2 9.85 3.35 9.85 3.5 9.85 3.6 9.9 3.75 9.9 3.9 9.9 4.05 9.9 4.2 9.9 4.35 9.95 4.45 9.95 4.6 9.95 4.75 9.95 5.05 9.95 5.3 9.95 5.6 10.0 5.75 10.0 5.9 10.0 6.15 10.0 6.6 10.0 7.15 10.0 7.3 10.05 7.45 10.1 7.6 10.15 7.9 10.25 8.3 10.3 8.6 10.35 8.75 10.4 8.85 10.45 9.0 10.5 9.15 10.6 9.3 10.65 9.45 10.7 9.6 10.75 9.7 10.85 10.0 10.9 10.15 11.0 10.3 11.05 10.45 11.15 10.6 11.2 10.7 11.25 10.85 11.3 11.0 11.55 11.3 12.2 11.85 13.0 12.4 13.25 12.4 13.35 12.25 13.4 12.15 13.45 12.0 13.55 11.85 13.6 11.7 13.7 11.55 13.75 11.45 13.85 11.3 13.9 11.15 13.95 11.0 14.05 10.85 14.15 10.7 14.25 10.6 14.3 10.45 14.4 10.3 14.45 10.15 14.5 10.0 14.55 9.85 14.6 9.7 14.65 9.6 14.6 9.45 14.55 9.3 14.45 9.15 14.35 9.0 14.3 8.85 14.2 8.75 14.1 8.6 14.05 8.45 13.95 8.3 13.9 8.15 13.9 8.0 13.85 7.9 13.75 7.75 13.7 7.6 13.65 7.45 13.6 7.3 13.55 7.15 13.45 7.05 13.4 6.9 13.35 6.75 13.3 6.6 13.25 6.45 13.15 6.3 13.1 6.15 13.05 6.05 13.0 5.9 13.0 5.75 12.95 5.6 12.85 5.45 12.8 5.3 12.75 5.2 12.7 5.05 12.6 4.75 12.55 4.6 12.45 4.45 12.4 4.35 12.4 4.05 12.4 3.5 12.4 2.75 12.4 2.2 12.45 2.05 12.45 1.9 12.45 1.75 12.45 1.5 12.45 1.05 12.45 0.8 12.5 0.65 12.55 0.5 12.55 0.35 12.6 0.05 12.65 -0.1 12.75 -0.2 12.9 -0.35 13.2 -0.45 M13.7 1.5 L13.6 1.3 13.6 1.35 13.6 1.65 13.6 1.9 13.6 2.2 13.65 2.35 13.65 2.9 13.65 3.5 13.65 3.9 13.75 4.2 13.85 4.45 13.9 4.75 13.95 4.9 14.05 5.05 14.15 5.3 14.25 5.6 14.3 5.75 14.4 5.9 14.45 6.05 14.5 6.15 14.55 6.3 14.6 6.45 14.7 6.6 14.75 6.6 14.75 6.3 14.75 6.05 14.75 5.75 14.75 5.6 14.45 4.35 14.15 3.05 13.95 2.2 13.9 2.05 13.8 1.75 13.7 1.5" fill="#333333" fill-rule="evenodd" stroke="none"/>
    <path d="M3.4 12.15 L3.45 12.0 3.55 11.85 3.65 11.75 3.75 11.75 4.0 11.7 4.0 11.65 4.25 11.75 4.4 11.9 4.5 12.05 4.55 12.2 4.6 12.45 4.7 12.9 4.8 13.2 4.9 13.3 5.2 14.3 5.55 15.45 5.85 16.45 5.9 16.6 5.95 16.75 6.05 16.85 6.1 17.0 6.2 17.15 6.25 17.3 7.45 19.0 9.15 20.9 9.6 21.3 9.7 21.25 9.75 21.15 9.85 20.85 9.9 20.55 9.9 20.45 9.9 20.15 9.9 19.7 9.9 19.45 10.1 18.45 10.3 17.15 10.5 16.0 10.6 15.9 10.65 15.75 10.75 15.6 10.8 15.45 10.85 15.3 10.95 15.15 11.0 15.05 11.1 14.9 11.2 14.75 11.35 14.6 11.45 14.5 11.7 14.45 12.0 14.55 12.15 14.7 12.25 14.85 12.3 15.0 12.3 15.25 12.3 15.7 12.3 16.1 12.3 16.25 12.35 16.4 12.35 16.55 12.3 16.85 12.2 17.25 12.15 17.55 12.15 18.55 12.15 19.65 12.15 20.8 12.2 20.95 12.3 21.1 12.45 21.2 13.2 21.15 13.5 20.85 13.9 20.45 14.2 20.0 14.25 19.85 14.3 19.7 14.4 19.55 14.55 19.0 14.65 18.3 14.85 17.6 14.85 17.45 14.85 17.3 14.85 17.0 14.85 16.75 14.85 16.45 14.9 16.3 14.95 16.15 15.05 16.0 15.05 15.9 15.1 15.75 15.2 15.6 15.4 15.45 15.7 15.35 15.85 15.35 16.2 15.45 16.35 15.6 16.45 15.75 16.55 15.9 16.6 16.15 16.7 16.6 16.9 17.15 16.95 17.3 17.05 17.45 17.2 17.6 17.4 17.85 17.5 18.0 17.55 18.15 17.75 18.3 17.95 18.45 18.25 18.7 18.7 19.0 19.25 19.45 19.35 19.55 19.4 19.7 19.5 19.85 19.5 20.0 19.5 20.15 19.4 20.3 19.35 20.45 19.25 20.55 19.1 20.7 18.7 20.8 18.4 20.75 18.15 20.65 17.95 20.5 17.8 20.45 17.45 20.35 17.25 20.2 17.1 20.05 16.85 19.75 16.5 19.35 16.45 19.2 16.35 19.05 16.25 18.9 16.2 18.75 16.1 18.65 16.05 18.5 15.9 18.85 15.85 19.45 15.7 20.0 15.65 20.15 15.55 20.3 15.5 20.45 15.45 20.55 15.05 21.1 14.3 21.95 13.95 22.25 Q13.8 22.35 13.6 22.4 L12.45 22.55 12.1 22.45 11.45 22.2 11.35 22.05 11.25 21.9 11.1 21.75 11.05 21.65 11.05 21.8 11.05 21.95 11.05 22.1 11.05 22.2 11.0 22.35 10.95 22.5 10.85 22.65 10.8 22.8 10.7 22.95 10.55 23.05 10.45 23.05 10.25 23.1 10.0 23.1 9.65 23.0 9.15 22.75 8.1 21.55 6.9 20.35 6.6 19.95 6.6 20.1 6.6 20.25 6.6 20.4 6.6 20.5 6.6 20.65 6.55 20.8 6.55 20.95 6.5 21.1 6.45 21.25 6.45 21.35 6.45 21.5 6.45 21.65 6.4 21.8 6.35 21.95 6.3 22.1 6.1 22.2 5.8 22.35 5.45 22.45 4.5 22.4 4.15 22.3 3.8 22.05 2.8 21.45 2.7 21.35 2.65 21.2 2.55 21.05 2.5 20.9 2.4 20.75 2.3 20.6 2.3 20.45 2.2 20.35 2.15 20.2 2.05 20.05 1.95 19.9 1.85 19.75 1.85 19.6 1.85 19.35 1.85 19.05 1.85 18.75 1.9 18.65 1.9 18.5 1.9 18.35 1.9 18.2 2.0 18.05 2.1 17.9 2.2 17.75 2.4 17.65 2.65 17.75 2.7 17.9 2.65 18.05 2.65 18.2 2.65 18.35 2.65 18.5 2.65 18.65 2.65 18.75 2.7 18.9 2.7 19.05 2.7 19.2 2.7 19.35 2.7 19.45 2.8 19.6 2.85 19.75 2.95 19.9 3.1 20.05 3.2 20.2 3.25 20.35 3.35 20.45 3.45 20.6 3.95 20.9 4.55 21.3 4.65 21.3 5.05 21.35 5.25 21.2 5.3 21.1 5.3 20.95 5.35 20.8 5.4 20.65 5.45 20.4 5.45 20.1 5.45 19.65 5.45 19.25 5.45 19.1 5.4 18.8 5.25 18.25 5.0 17.7 5.0 17.55 4.9 17.4 4.85 17.25 4.75 17.1 4.7 16.95 4.6 16.85 4.55 16.7 4.45 16.55 4.4 16.4 4.3 16.25 4.2 16.1 4.15 15.95 4.1 15.85 4.05 15.7 3.95 15.55 3.85 15.4 3.8 15.25 3.7 15.1 3.65 15.0 3.55 14.85 3.5 14.7 3.5 14.55 3.5 14.4 3.5 14.25 3.5 14.15 3.45 14.0 3.45 13.85 3.4 13.7 3.4 13.4 3.4 12.85 3.4 12.3 3.4 12.15" fill="#333333" fill-rule="evenodd" stroke="none"/>
  </g>
</svg>
