<?xml version="1.0" encoding="UTF-8" standalone="no"?>
<svg xmlns:xlink="http://www.w3.org/1999/xlink" height="58.15px" width="67.65px" xmlns="http://www.w3.org/2000/svg">
  <g transform="matrix(1.0, 0.0, 0.0, 1.0, 33.9, 29.15)">
    <path d="M26.2 -10.8 Q33.15 -1.1 33.15 7.7 33.15 8.65 31.25 11.35 28.8 14.85 25.15 17.9 14.2 26.85 -1.8 26.85 -19.1 26.85 -27.15 16.8 -32.1 10.55 -32.1 4.25 -32.1 1.7 -27.3 -4.95 -22.9 -11.0 -24.05 -14.1 -19.4 -22.35 -8.45 -26.4 1.65 -30.2 7.35 -27.5 19.0 -20.85 26.2 -10.8 M6.15 19.5 L6.3 19.5 6.3 19.4 6.15 19.5 M-13.8 16.95 L-16.95 17.25 -16.95 17.85 -16.15 18.1 -14.55 18.3 -13.4 18.25 -13.8 16.95 M-7.85 21.3 L-7.45 21.45 -7.4 21.0 -7.85 21.0 -7.85 21.3 M-21.8 15.45 L-21.8 13.9 -22.4 13.3 -22.55 13.45 -23.0 14.1 -22.1 15.45 -21.8 15.45" fill="#ffffff" fill-rule="evenodd" stroke="none"/>
    <path d="M7.8 -13.4 Q11.35 -12.15 10.35 -9.3 16.5 -7.8 18.4 -4.35 19.8 -1.9 19.05 1.85 23.05 1.55 24.35 3.8 24.95 4.8 24.95 6.8 24.95 20.3 -6.6 28.4 -12.0 28.4 -19.8 22.55 -27.15 17.05 -27.15 14.4 -27.15 13.05 -26.45 11.85 L-26.45 11.7 Q-28.6 10.85 -29.25 10.15 -29.7 9.6 -29.7 8.55 -29.7 5.65 -27.35 1.3 -24.45 -4.15 -20.9 -2.25 -20.8 -3.5 -21.0 -6.3 -21.05 -8.75 -20.3 -10.25 -16.95 -17.1 -12.5 -15.55 -7.9 -12.45 -6.15 -12.45 -1.2 -14.3 1.2 -14.3 5.35 -14.3 7.8 -13.4 M1.05 -10.1 L1.75 -10.4 2.15 -10.7 2.6 -10.95 -0.15 -10.95 0.45 -10.65 1.05 -10.1 M21.2 6.2 Q21.65 6.15 21.65 6.0 19.35 5.8 18.6 6.55 L17.6 7.85 21.2 6.2 M-10.1 24.45 L-8.4 24.8 -6.3 24.75 Q-7.1 23.2 -7.8 23.35 L-10.1 24.45 M-19.8 10.1 L-19.65 10.65 -17.4 8.55 -17.45 8.45 Q-19.35 9.6 -19.8 10.1" fill="#d1d0a5" fill-opacity="0.3019608" fill-rule="evenodd" stroke="none"/>
    <path d="M15.7 7.0 Q20.35 9.0 19.2 12.6 22.55 12.05 22.55 15.05 22.55 16.55 12.65 21.35 1.95 26.55 -4.05 26.55 -19.7 26.55 -24.2 19.35 -25.7 16.95 -25.9 13.75 L-25.85 9.9 -25.85 8.0 Q-25.6 6.5 -24.2 6.5 -23.15 6.5 -22.8 6.95 L-22.65 7.7 Q-20.1 6.75 -13.4 3.0 -6.5 -0.85 -3.2 -2.2 8.5 -6.9 8.55 4.2 10.1 5.35 15.7 7.0 M-20.1 17.5 Q-20.1 15.9 -21.3 16.4 L-20.15 17.85 -20.1 17.5" fill="#d1d0a5" fill-opacity="0.3019608" fill-rule="evenodd" stroke="none"/>
    <path d="M24.8 13.65 Q24.8 15.7 20.1 20.4 14.7 25.8 9.65 25.8 7.6 25.8 7.1 25.25 6.6 24.65 5.85 24.65 1.2 26.7 -1.95 26.7 -14.55 26.7 -21.05 22.2 -26.25 18.65 -26.25 13.7 -28.65 13.4 -29.3 12.5 L-29.55 11.25 Q-29.55 9.15 -26.2 6.4 -23.0 3.7 -24.05 8.25 -23.1 7.7 -22.35 7.7 -21.25 7.7 -20.9 8.8 L-20.7 9.95 Q-18.45 9.4 -15.95 8.15 -14.4 7.35 -11.6 7.35 -10.15 7.35 -7.1 9.3 -4.45 10.95 -3.5 12.0 L-2.05 11.0 0.45 10.65 Q2.9 10.65 4.15 12.05 L5.25 13.4 6.85 12.95 Q7.95 12.45 8.6 12.45 9.55 12.45 10.35 13.0 L11.4 13.65 Q11.9 12.75 12.7 11.95 14.3 10.35 16.35 10.35 L17.65 10.65 18.9 10.95 Q19.3 10.95 20.0 10.3 20.75 9.65 21.65 9.65 24.25 9.65 24.8 11.6 25.05 12.6 24.8 13.65 M1.2 16.2 Q-1.25 15.75 -2.5 16.95 -3.3 17.7 -3.3 18.35 L-2.85 19.65 -1.8 20.3 Q-0.15 20.3 0.6 18.8 1.2 17.7 1.2 16.2 M6.0 18.0 L6.0 18.45 7.2 18.45 Q7.2 17.7 7.35 17.25 L7.05 17.25 6.0 18.0 M-8.1 13.55 Q-9.0 15.45 -11.3 18.15 -10.4 18.05 -8.65 16.7 -6.9 15.3 -6.9 14.75 L-7.35 14.2 -8.1 13.55 M-8.4 21.75 L-9.65 22.05 -8.4 21.8 -8.4 21.75 M-26.4 10.5 L-26.3 9.75 Q-26.35 9.3 -26.55 9.15 L-26.75 10.5 -26.4 10.5" fill="#d1d0a5" fill-opacity="0.3019608" fill-rule="evenodd" stroke="none"/>
    <path d="M0.75 -5.7 Q0.75 -4.7 1.7 -2.45 2.4 -0.7 3.15 0.6 L3.1 0.7 2.85 0.75 Q1.2 0.75 0.15 -4.0 0.15 -5.0 0.3 -5.3 L0.9 -7.1 1.05 -7.1 0.75 -5.7 M2.1 12.3 L2.1 12.45 1.35 12.6 Q1.55 13.3 2.55 14.85 L2.5 15.0 2.25 15.05 Q1.35 15.05 0.65 13.0 L0.75 11.85 2.1 12.3 M6.95 17.0 L9.15 22.55 8.9 22.5 8.45 22.35 Q7.85 22.35 6.7 19.55 L5.7 16.9 Q5.7 13.6 6.95 17.0 M0.15 16.8 Q-2.4 14.8 -2.4 13.15 L-2.25 9.2 Q-1.4 9.95 -0.95 12.25 -0.45 15.15 0.3 16.65 L0.15 16.8 M6.95 21.05 L6.95 21.3 6.65 21.5 Q5.85 21.5 4.85 18.85 L5.0 17.9 5.15 17.9 Q5.15 18.45 5.75 19.5 L6.95 21.05 M9.0 18.15 Q9.7 18.0 10.15 18.55 10.5 19.05 10.5 19.65 L10.55 19.95 10.8 20.1 10.4 20.1 Q10.05 20.1 9.5 19.2 L9.0 18.15 M-0.7 -2.7 L-0.3 -1.8 Q-0.3 -1.65 -0.65 -1.65 -1.7 -1.65 -1.7 -2.9 L-1.35 -3.6 -0.7 -2.7 M-17.25 -0.65 Q-17.25 1.25 -16.85 2.4 L-15.3 5.85 -15.35 6.05 -15.3 6.1 -15.6 6.15 Q-16.65 6.15 -17.35 3.6 L-17.9 1.05 Q-17.9 -0.55 -17.0 -1.2 L-17.25 -0.65 M-18.9 1.85 Q-18.6 2.1 -18.3 3.1 -18.05 4.05 -17.45 4.5 L-17.85 4.5 Q-19.15 4.5 -19.35 2.75 L-18.9 1.85 M-20.25 16.95 Q-20.25 18.35 -19.7 20.05 -19.05 22.05 -18.0 22.95 L-18.3 23.25 Q-19.75 22.95 -20.55 20.5 -21.15 18.65 -21.15 16.95 L-21.0 15.3 -20.7 13.1 -20.25 12.9 Q-19.85 13.45 -19.85 14.3 L-20.05 15.45 -20.25 16.95 M-16.3 17.0 Q-15.7 18.35 -15.35 20.45 L-15.65 20.6 Q-17.0 19.3 -17.0 17.65 -17.0 15.55 -16.3 17.0 M-10.05 18.85 Q-9.95 18.4 -9.35 18.0 -8.95 18.55 -9.0 18.85 L-9.2 19.65 -8.95 21.25 -8.7 22.5 -8.6 22.85 -8.4 23.1 -8.35 23.25 -8.6 23.3 Q-9.45 23.3 -9.85 21.5 L-10.1 19.7 -10.05 18.85 M-7.55 20.8 Q-7.9 15.9 -6.95 14.45 L-6.5 20.15 Q-6.25 23.65 -4.85 25.8 L-4.85 25.9 -5.1 26.0 Q-6.3 26.0 -7.05 23.45 L-7.55 20.8 M-2.7 19.6 L-2.85 19.9 Q-2.85 20.85 -1.1 23.1 L-2.65 21.95 Q-3.65 20.9 -3.65 20.35 -3.65 18.85 -2.55 19.5 L-2.7 19.6 M-22.1 14.4 L-22.05 14.7 -22.2 16.35 -22.35 18.15 Q-22.85 17.85 -22.95 17.2 L-23.0 15.95 -22.95 14.4 -22.2 14.4 -22.1 14.4" fill="#333333" fill-rule="evenodd" stroke="none"/>
    <path d="M12.05 -25.3 Q14.7 -23.25 14.7 -21.35 L14.7 -21.15 17.55 -21.3 Q21.65 -20.6 24.6 -16.6 27.0 -13.35 27.0 -11.0 L26.9 -10.3 Q27.15 -10.35 27.15 -9.2 L27.1 -8.3 28.6 -7.45 Q31.1 -5.65 32.55 -3.0 L33.7 0.35 33.75 3.0 Q33.75 12.8 25.5 15.25 L25.5 15.3 Q25.5 18.3 22.2 21.95 17.75 26.85 10.25 26.85 L6.85 26.2 4.4 27.65 Q1.1 29.0 -3.65 29.0 -7.7 29.0 -11.65 26.9 -13.7 25.8 -14.55 24.9 L-17.25 25.05 Q-22.95 25.05 -26.45 21.05 -29.1 18.0 -29.1 15.55 L-29.1 14.7 Q-28.95 14.1 -28.25 14.2 L-28.35 14.4 Q-28.35 17.35 -25.55 20.05 -21.95 23.6 -15.1 23.9 L-15.15 23.7 -15.05 23.4 -14.85 23.15 -13.85 23.9 Q-13.55 23.85 -13.2 23.6 L-12.95 23.65 -12.9 23.9 -13.15 24.4 -10.75 26.0 Q-8.1 27.5 -3.6 27.5 L3.3 26.75 6.4 26.05 5.95 25.8 Q4.25 24.95 3.9 24.0 L3.9 23.7 4.2 23.6 Q4.3 23.6 6.0 24.55 7.65 25.5 10.3 25.5 18.6 25.5 22.85 19.55 24.35 17.5 25.3 15.3 L24.65 15.45 24.45 15.4 24.35 15.1 Q24.35 14.9 25.75 14.2 L26.1 13.25 25.8 14.2 26.75 13.7 Q29.45 12.0 30.9 9.0 32.1 6.6 32.2 5.65 L32.15 2.9 Q32.15 -0.5 29.15 -4.05 L26.65 -6.9 26.6 -6.9 Q25.95 -6.9 25.85 -7.25 L25.8 -7.85 Q25.8 -8.55 26.4 -9.6 24.15 -16.45 20.65 -18.65 18.3 -20.1 13.1 -20.1 12.3 -20.1 10.8 -19.2 L10.65 -19.2 Q11.5 -19.45 12.0 -20.45 12.6 -20.9 14.2 -21.1 9.7 -27.6 0.35 -27.6 -5.65 -27.6 -9.0 -25.2 -9.95 -24.55 -11.6 -22.35 L-11.65 -22.3 Q-12.65 -20.1 -13.2 -19.2 L-13.65 -19.8 -13.65 -20.3 Q-13.65 -21.55 -12.6 -23.2 L-19.2 -21.3 Q-22.75 -19.75 -23.75 -17.4 L-24.7 -13.65 -25.2 -9.6 -25.05 -8.4 -24.0 -6.75 -24.2 -6.5 Q-25.7 -7.45 -26.15 -9.2 L-26.4 -12.35 Q-26.4 -16.65 -23.85 -19.5 -20.3 -23.45 -12.6 -23.55 L-12.45 -23.4 -12.05 -24.0 Q-10.85 -25.6 -9.55 -26.05 -8.05 -27.1 -4.75 -28.1 1.7 -30.1 5.7 -28.35 9.4 -27.35 12.05 -25.3 M-22.65 -5.55 L-23.15 -5.75 -25.4 -6.0 Q-30.1 -6.0 -31.85 -1.2 -32.75 1.25 -32.7 3.7 -32.7 6.1 -31.35 8.75 -29.85 11.7 -27.15 13.8 L-27.6 14.15 Q-30.75 14.15 -32.6 9.0 -33.55 6.45 -33.9 3.65 -33.9 -2.25 -30.5 -5.1 -27.05 -8.0 -22.35 -5.7 L-22.35 -5.6 -22.65 -5.55" fill="#333333" fill-rule="evenodd" stroke="none"/>
  </g>
</svg>
