<?xml version="1.0" encoding="UTF-8" standalone="no"?>
<svg xmlns:xlink="http://www.w3.org/1999/xlink" height="86.7px" width="79.85px" xmlns="http://www.w3.org/2000/svg">
  <g transform="matrix(1.0, 0.0, 0.0, 1.0, 33.35, 45.05)">
    <path d="M-18.2 -0.25 L-12.1 -0.2 -12.1 -0.1 -11.0 0.05 -10.6 0.2 -9.85 0.55 -7.95 1.5 -5.7 2.65 -4.55 3.25 Q-4.05 3.5 -3.6 3.8 L-1.5 5.5 0.4 7.15 2.65 9.45 3.25 10.05 3.8 10.6 4.0 11.15 4.35 11.75 5.1 12.9 5.45 13.45 5.75 14.0 6.05 14.6 6.25 15.15 6.45 15.75 7.15 16.9 7.8 18.0 8.55 19.1 9.55 20.8 9.8 21.45 10.05 22.0 10.55 24.8 10.75 26.5 10.8 27.65 10.8 29.95 10.8 30.5 10.8 31.05 10.6 31.65 10.4 32.2 10.25 32.75 10.05 33.35 9.85 33.9 8.85 35.0 Q4.7 38.95 -1.1 39.55 -5.65 40.05 -10.05 38.85 L-11.0 38.65 -16.5 35.85 Q-20.05 33.9 -23.15 31.35 L-26.85 28.4 -27.45 27.85 Q-27.75 26.9 -28.3 26.05 L-29.2 24.45 -29.9 23.3 -31.4 21.0 -31.65 20.5 -32.0 19.9 -32.2 19.3 -32.4 18.75 -32.55 18.2 -32.75 17.6 -33.1 17.05 -33.35 16.5 -33.35 14.8 -33.35 13.65 -33.35 12.5 -33.35 10.8 -33.35 10.25 -33.35 9.65 -33.15 9.1 -32.95 8.55 -32.75 7.95 -32.55 7.4 -32.4 6.8 -32.2 6.25 -31.8 5.7 -31.05 4.55 -30.7 4.0 -30.25 3.45 -29.75 2.85 Q-27.35 1.3 -24.65 0.55 -21.45 -0.35 -18.2 -0.25" fill="#663333" fill-opacity="0.16078432" fill-rule="evenodd" stroke="none"/>
    <path d="M21.15 20.1 L21.4 20.65 21.4 21.2 21.4 22.9 21.4 24.65 21.4 26.35 21.35 28.05 21.2 28.6 20.9 29.2 20.6 29.7 20.3 30.35 20.05 30.85 19.7 31.45 19.5 32.0 19.35 32.6 18.95 33.15 17.75 34.95 16.3 36.55 14.6 38.25 14.0 38.85 12.9 39.4 Q9.25 41.0 5.3 41.35 L-2.25 41.65 -3.8 41.3 -6.05 40.15 -8.75 38.5 Q-9.2 38.15 -9.65 37.9 L-11.0 37.5 -11.75 37.3 -12.85 36.95 -13.8 36.35 -14.6 35.8 -15.55 35.25 -16.1 34.65 -17.25 33.55 -17.8 32.95 -18.35 32.4 -18.6 31.85 -18.9 31.25 -19.1 30.7 -19.1 29.55 -19.1 28.4 -19.1 27.3 -19.1 26.15 -19.1 25.0 -19.1 24.45 -18.75 23.85 -18.55 23.3 -18.35 22.75 -18.2 22.15 -18.0 21.6 -17.8 21.05 -17.45 20.45 -17.2 19.9 -16.85 19.3 -16.45 18.75 -15.7 18.2 -13.85 15.85 -10.95 13.1 -7.4 10.2 -6.6 9.65 Q-4.5 8.95 -2.25 8.8 L4.55 8.55 4.55 8.65 5.5 8.8 5.9 8.9 7.75 9.85 9.85 11.05 10.6 11.55 12.5 12.15 14.4 12.7 15.9 13.25 16.65 13.85 18.75 16.1 19.85 17.85 21.15 20.1" fill="#663333" fill-opacity="0.16078432" fill-rule="evenodd" stroke="none"/>
    <path d="M0.0 17.45 L0.4 18.0 0.75 18.55 0.95 19.15 1.15 19.7 1.3 20.3 1.4 20.85 1.5 21.4 1.7 22.0 2.05 22.55 2.3 23.1 2.4 23.7 2.45 24.25 2.45 24.8 2.45 25.4 2.45 25.95 2.45 26.5 3.05 26.9 3.4 27.45 2.45 28.05 2.4 28.6 2.1 29.15 1.15 29.75 0.4 30.3 0.0 30.9 -0.35 31.45 -2.5 32.4 -5.3 33.0 -9.85 33.15 -11.2 32.85 -13.65 32.4 -14.6 32.2 -15.35 31.8 -16.45 31.25 -17.6 30.65 -18.55 30.1 -19.1 29.55 -19.7 29.0 -20.25 28.4 -20.6 27.85 -20.85 27.3 -20.95 26.7 -21.0 26.15 -21.0 25.55 -21.0 25.0 -21.4 24.45 -22.15 23.3 -22.5 22.7 -22.75 22.2 -23.05 21.6 -23.3 21.05 -23.3 20.45 -23.3 19.3 -23.3 18.2 -23.3 17.6 -23.3 17.05 -23.3 16.5 -23.3 15.9 -23.1 15.35 -22.9 14.8 -22.7 14.2 -22.15 13.65 -21.6 13.05 -21.0 12.55 -20.25 11.95 -18.95 11.6 -17.25 11.15 -15.9 10.8 -11.35 10.8 -11.35 10.9 -10.4 11.0 -9.85 11.2 -8.7 11.5 -6.8 11.95 -5.5 12.3 -4.9 12.9 -4.35 13.45 -3.6 14.0 -2.8 14.55 -1.9 15.15 -1.3 15.75 -0.8 16.3 -0.35 16.85 0.0 17.45" fill="#663333" fill-opacity="0.16078432" fill-rule="evenodd" stroke="none"/>
    <path d="M-9.5 26.2 L-9.6 26.2 -9.65 26.35 -9.65 26.7 -9.6 27.25 -9.25 27.8 -8.9 28.05 -7.9 27.7 -7.95 27.5 -8.55 26.95 -9.3 26.35 -9.5 26.2 M28.45 11.75 L28.95 12.3 29.55 12.9 30.1 13.45 30.35 14.0 30.7 14.6 30.85 15.15 31.05 15.75 31.25 16.3 31.25 16.85 31.25 17.45 31.25 18.6 31.25 20.3 31.25 21.4 31.25 22.55 31.25 23.1 31.25 23.7 30.9 24.25 30.35 25.4 29.05 27.6 27.45 29.35 26.3 30.5 25.55 31.1 25.2 31.65 23.95 33.3 22.35 35.05 21.2 36.2 20.65 36.75 20.05 37.35 Q16.0 39.0 11.7 39.6 L3.05 40.65 Q-4.35 41.4 -10.4 37.35 L-11.2 36.2 -12.0 35.1 -13.05 33.9 Q-14.05 32.95 -14.65 31.65 L-15.5 29.95 -16.0 28.8 -16.1 28.25 -16.1 27.1 -16.1 25.95 -16.1 24.85 -16.1 24.25 -16.1 23.7 -16.05 23.15 -15.9 22.55 -15.55 21.95 -15.35 21.4 -13.7 20.25 -12.3 19.15 -11.55 18.6 -10.9 17.95 -10.6 17.45 -10.4 16.9 -10.05 16.3 -9.65 15.75 -8.7 15.2 -4.85 13.1 Q-0.35 10.8 4.5 9.6 L6.05 9.1 7.45 8.05 9.3 6.9 11.95 5.8 13.65 5.3 17.4 5.3 17.45 5.4 18.55 5.6 18.95 5.7 19.7 6.05 20.8 6.7 21.6 7.2 23.65 7.8 25.4 8.35 26.3 8.9 27.25 10.05 28.05 11.2 28.45 11.75" fill="#663333" fill-opacity="0.16078432" fill-rule="evenodd" stroke="none"/>
    <path d="M20.45 -34.85 L21.05 -34.85 21.5 -34.65 22.5 -33.85 23.3 -33.2 23.65 -32.9 23.95 -32.65 24.15 -32.35 24.45 -31.5 24.65 -30.95 24.8 -30.4 24.9 -30.1 25.0 -29.8 25.1 -29.5 25.1 -29.25 25.1 -28.95 25.1 -28.65 25.2 -28.4 25.2 -27.25 25.2 -26.4 25.2 -25.85 25.2 -25.55 25.2 -25.25 25.2 -25.0 25.1 -24.7 25.0 -24.4 24.9 -24.15 24.8 -23.85 23.95 -22.85 Q19.85 -19.2 15.4 -22.4 14.65 -22.95 14.2 -23.75 L14.1 -24.05 13.95 -24.3 13.85 -24.6 13.65 -24.9 13.55 -25.15 13.45 -25.45 13.35 -25.75 13.35 -26.0 13.35 -27.15 13.35 -28.0 13.35 -28.6 13.35 -28.85 13.35 -29.15 13.35 -29.45 13.45 -29.7 13.55 -30.0 13.65 -30.3 13.75 -30.55 13.95 -30.85 14.0 -31.15 14.2 -31.4 14.3 -31.7 14.3 -32.0 14.3 -32.25 14.4 -32.55 14.4 -32.85 14.6 -33.1 14.7 -33.4 14.9 -33.7 15.15 -33.95 15.65 -34.25 16.1 -34.45 16.65 -34.55 17.8 -34.75 18.55 -34.9 20.45 -34.9 20.45 -34.85" fill="#ffffff" fill-opacity="0.2" fill-rule="evenodd" stroke="none"/>
    <path d="M20.45 -37.5 L21.3 -37.4 22.35 -36.8 24.6 -35.15 25.75 -33.95 25.95 -33.7 26.05 -33.4 26.25 -33.1 26.45 -32.85 26.6 -32.55 26.8 -32.25 27.1 -31.1 27.35 -30.25 27.55 -29.7 27.75 -29.15 27.85 -28.85 27.85 -27.7 27.85 -26.3 27.85 -25.15 27.85 -24.3 27.85 -24.05 27.75 -23.75 27.65 -23.45 27.55 -23.2 27.45 -22.9 27.35 -22.6 27.3 -22.35 27.0 -22.05 26.8 -21.75 26.5 -21.45 26.25 -21.2 25.95 -20.9 25.55 -20.6 23.65 -19.95 20.65 -19.85 20.25 -19.95 18.95 -21.0 18.2 -21.85 17.8 -22.4 17.6 -22.7 17.55 -23.0 17.35 -23.25 17.15 -23.55 16.7 -23.85 16.3 -24.15 15.75 -24.7 15.45 -25.0 15.15 -25.25 14.7 -25.55 14.5 -25.85 14.3 -26.1 14.1 -26.4 13.95 -26.7 13.75 -26.95 13.65 -27.25 13.45 -27.55 13.25 -27.8 13.05 -28.4 12.9 -28.95 12.8 -29.25 12.7 -29.8 12.65 -30.1 12.6 -30.4 12.6 -30.95 12.6 -31.5 12.6 -31.8 12.6 -32.35 12.6 -32.65 12.6 -32.95 12.7 -33.2 12.75 -33.5 12.8 -33.8 12.85 -34.05 12.9 -34.35 13.0 -34.65 13.15 -34.9 13.25 -35.2 13.45 -35.5 13.65 -35.75 13.85 -36.05 14.05 -36.35 14.3 -36.65 14.8 -36.9 15.35 -37.1 15.7 -37.2 16.3 -37.35 17.05 -37.55 20.45 -37.55 20.45 -37.5" fill="#ffffff" fill-opacity="0.2" fill-rule="evenodd" stroke="none"/>
    <path d="M21.6 -35.85 L21.8 -35.6 22.0 -35.3 22.05 -35.0 22.15 -34.75 22.35 -34.45 22.45 -34.15 22.55 -33.9 22.65 -33.6 22.75 -33.3 22.85 -33.05 22.85 -32.45 22.85 -31.6 22.85 -31.05 22.85 -30.75 22.85 -30.45 22.85 -29.9 22.75 -29.6 22.65 -29.35 22.55 -29.05 Q21.9 -27.85 20.85 -27.05 18.5 -25.25 15.55 -25.2 12.1 -25.15 10.25 -28.0 L10.15 -28.3 10.05 -28.6 9.95 -28.85 9.85 -29.15 9.75 -29.45 9.65 -29.7 9.55 -30.0 9.55 -30.85 9.55 -31.7 9.55 -32.25 9.55 -32.85 9.55 -33.4 9.65 -33.7 9.75 -33.95 9.85 -34.25 9.95 -34.55 10.05 -34.85 10.25 -35.1 10.35 -35.4 11.65 -36.85 Q12.4 -37.55 13.4 -38.05 L15.15 -38.5 15.15 -38.45 15.75 -38.45 16.1 -38.35 16.3 -38.25 16.65 -38.05 18.35 -37.65 19.15 -37.45 20.35 -37.0 20.65 -36.75 21.0 -36.4 21.3 -36.15 21.6 -35.85" fill="#ffffff" fill-opacity="0.2" fill-rule="evenodd" stroke="none"/>
    <path d="M18.45 -30.3 L17.9 -30.85 17.8 -30.9 17.15 -30.85 17.05 -30.75 17.05 -30.45 17.05 -30.2 17.05 -29.9 17.05 -29.6 17.15 -29.35 17.2 -29.05 17.25 -28.75 17.35 -28.5 17.55 -28.2 17.7 -27.9 18.1 -27.65 18.55 -27.35 19.9 -27.35 19.9 -27.45 19.9 -27.7 19.9 -28.0 19.8 -28.3 19.7 -28.6 19.5 -28.85 19.4 -29.15 19.0 -29.7 18.45 -30.3 M20.55 -37.4 L20.95 -37.2 23.5 -34.8 26.35 -32.4 27.75 -30.65 27.85 -30.4 28.05 -30.1 28.25 -29.8 28.4 -29.5 28.5 -29.25 28.7 -28.95 28.8 -28.4 28.9 -27.8 28.95 -27.55 29.0 -27.25 29.05 -26.95 29.1 -26.7 29.15 -26.4 29.15 -26.1 29.15 -25.55 29.15 -25.0 29.15 -24.4 29.15 -24.15 29.15 -23.85 29.15 -23.55 29.15 -23.25 29.1 -23.0 29.05 -22.7 29.0 -22.4 28.95 -22.15 28.9 -21.85 28.8 -21.55 28.7 -21.3 28.7 -21.0 28.5 -20.7 28.1 -20.15 27.55 -19.6 27.0 -19.0 26.45 -18.45 Q20.65 -14.85 14.95 -18.4 12.8 -19.75 11.55 -21.95 L11.45 -22.25 11.3 -22.5 11.2 -22.8 11.1 -23.1 11.0 -23.35 10.8 -23.65 10.7 -23.95 10.45 -24.25 10.2 -24.5 9.95 -24.8 9.85 -25.05 9.65 -25.35 9.55 -25.65 9.4 -25.95 9.3 -26.2 9.2 -26.5 9.0 -26.8 9.0 -27.05 8.9 -27.35 8.8 -27.65 8.7 -27.9 8.6 -28.2 8.55 -28.5 8.45 -28.75 8.45 -29.05 8.45 -29.9 8.45 -30.45 8.45 -31.05 8.45 -31.6 8.45 -32.2 8.5 -32.45 8.55 -32.75 8.6 -33.05 8.7 -33.3 8.8 -33.6 8.85 -33.9 8.9 -34.15 9.1 -34.45 9.2 -34.75 10.45 -36.15 12.6 -37.6 Q13.8 -38.25 15.15 -38.15 L15.15 -38.1 15.7 -38.0 16.2 -37.95 16.55 -37.85 16.75 -37.75 19.3 -37.6 20.35 -37.5 20.55 -37.4" fill="#ffffff" fill-opacity="0.2" fill-rule="evenodd" stroke="none"/>
    <path d="M25.3 -37.75 L25.85 -37.2 26.4 -36.6 26.6 -36.35 26.75 -36.05 26.8 -35.75 27.0 -35.5 28.0 -35.1 29.15 -34.55 29.9 -34.25 30.5 -33.95 30.95 -33.7 31.25 -33.4 32.35 -32.25 32.55 -32.0 32.75 -31.7 32.95 -31.4 33.5 -30.55 33.9 -30.0 34.15 -29.7 34.35 -29.45 34.45 -29.15 34.55 -28.85 34.65 -28.55 34.75 -28.3 34.95 -28.0 35.55 -27.15 35.8 -26.85 36.0 -26.6 36.2 -26.3 36.8 -25.45 37.2 -24.9 37.4 -24.6 37.6 -24.3 38.25 -24.05 38.6 -23.75 38.9 -23.45 39.2 -23.2 39.3 -22.9 39.4 -22.6 39.5 -22.3 39.65 -22.05 39.75 -21.75 39.95 -21.45 40.05 -21.2 40.15 -20.9 40.25 -20.6 40.35 -20.35 40.45 -20.05 40.55 -19.75 40.6 -19.5 40.7 -19.2 40.8 -18.9 41.0 -18.65 41.1 -18.35 41.2 -18.05 41.3 -17.8 41.4 -17.5 41.45 -17.2 41.55 -16.95 41.65 -16.65 41.7 -16.35 41.75 -16.05 41.95 -15.8 42.05 -15.5 42.25 -14.95 42.35 -14.65 42.4 -14.35 42.5 -14.1 42.7 -13.5 42.9 -12.95 42.95 -12.65 43.0 -12.4 43.1 -12.1 43.1 -11.8 43.1 -11.55 43.25 -11.25 43.35 -10.95 43.55 -10.7 43.65 -10.4 43.85 -10.1 43.95 -9.8 44.15 -9.55 44.2 -9.25 44.3 -8.95 44.4 -8.7 44.4 -8.4 44.4 -8.1 44.4 -7.85 44.4 -7.55 44.3 -7.25 44.25 -7.0 44.2 -6.7 44.25 -6.4 44.3 -6.15 44.4 -5.85 44.5 -5.55 44.6 -5.3 44.6 -5.0 44.6 -4.7 44.6 -4.45 44.6 -4.15 44.6 -3.85 44.6 -3.55 44.6 -3.3 44.6 -3.0 44.7 -2.7 44.8 -2.45 44.9 -2.15 45.0 -1.85 45.0 -1.6 45.0 -1.3 45.0 -1.0 45.05 -0.75 45.25 -0.45 45.35 -0.15 45.55 0.1 45.65 0.4 45.75 0.7 45.75 0.95 45.75 1.25 45.85 1.55 45.9 1.8 46.0 2.1 46.1 2.4 46.15 2.65 46.2 2.95 46.3 3.25 46.4 3.55 46.5 3.8 46.5 4.1 46.5 4.4 46.5 4.65 46.5 4.95 46.5 5.25 46.5 5.5 46.5 5.8 46.4 6.1 46.4 6.35 46.4 6.65 46.4 6.95 46.4 7.2 46.3 7.5 46.3 7.8 46.3 8.05 46.3 8.35 46.2 8.65 46.1 8.95 45.9 9.2 45.65 9.5 45.45 9.75 45.15 10.05 44.7 10.35 43.95 10.55 43.35 10.4 43.2 10.35 42.9 10.15 42.6 9.85 42.4 9.6 42.25 9.3 42.15 9.0 42.15 8.75 42.15 8.45 42.25 8.15 42.3 7.9 42.35 7.6 42.3 7.3 42.25 7.05 42.25 6.75 42.25 6.45 42.25 6.2 42.25 5.9 42.15 5.6 42.15 5.35 42.15 5.05 42.05 4.75 41.85 4.45 41.85 4.2 41.75 3.9 41.55 3.6 41.45 3.35 41.4 3.05 41.4 2.75 41.4 2.5 41.3 2.2 41.2 1.9 41.0 1.65 40.9 1.35 40.7 1.05 40.7 0.8 40.6 0.5 40.6 0.2 40.6 -0.05 40.6 -0.35 40.6 -0.65 40.55 -0.9 40.35 -1.2 40.3 -1.5 40.25 -1.8 40.25 -2.05 40.25 -2.35 40.25 -2.65 40.25 -2.9 40.25 -3.2 40.25 -3.5 40.25 -3.75 40.25 -4.05 40.15 -4.35 39.95 -4.6 39.95 -4.9 39.85 -5.2 39.85 -5.45 39.85 -5.75 39.75 -6.05 39.65 -6.3 39.6 -6.6 39.5 -6.9 39.5 -7.15 39.5 -7.45 39.3 -7.75 39.2 -8.0 39.0 -8.3 38.8 -8.6 38.65 -8.9 38.45 -9.15 38.35 -9.45 38.15 -9.75 38.05 -10.0 37.9 -10.3 37.9 -10.6 37.7 -10.85 37.5 -11.15 37.3 -11.4 37.05 -11.75 36.8 -12.0 36.55 -12.3 36.45 -12.55 36.35 -12.85 36.15 -13.15 36.0 -13.4 35.9 -13.7 35.8 -14.0 35.8 -14.25 35.8 -14.55 35.9 -14.85 35.8 -15.15 35.8 -15.4 35.8 -15.7 35.8 -16.0 35.7 -16.25 35.65 -16.55 35.6 -16.85 35.5 -17.1 35.4 -17.4 35.3 -17.7 35.2 -17.95 35.15 -18.25 34.95 -18.55 34.85 -18.8 34.6 -19.1 34.35 -19.4 34.2 -19.65 33.8 -19.95 33.45 -20.25 32.85 -21.05 31.25 -22.8 30.7 -23.35 30.1 -23.95 29.55 -24.5 28.8 -25.35 28.6 -25.65 28.3 -25.9 27.85 -26.2 27.4 -26.75 26.3 -27.9 26.05 -28.2 25.75 -28.5 25.45 -28.75 24.9 -29.35 24.05 -30.2 23.75 -30.45 23.5 -30.75 22.9 -30.95 22.55 -31.05 22.25 -31.2 21.3 -31.8 20.75 -32.05 20.05 -32.35 19.5 -32.55 19.2 -32.75 18.85 -33.0 17.35 -33.9 16.1 -34.45 15.6 -34.75 15.15 -35.0 14.95 -35.3 14.5 -35.6 14.1 -35.85 13.7 -36.15 13.25 -36.4 11.7 -36.8 Q11.1 -36.95 10.5 -37.25 L9.95 -37.55 9.35 -37.85 8.35 -38.05 7.5 -38.25 3.05 -39.15 1.5 -39.3 0.95 -39.35 0.55 -39.55 -5.2 -39.55 -7.85 -39.35 Q-13.9 -39.25 -19.65 -38.0 L-20.65 -37.65 Q-20.95 -37.5 -21.2 -37.4 L-21.95 -37.15 -22.05 -37.1 -22.25 -36.9 -22.55 -36.65 -23.4 -36.05 -24.25 -35.5 -24.6 -35.2 -24.9 -34.95 -25.3 -34.65 -26.15 -34.45 -26.5 -34.45 -27.1 -34.55 -27.45 -34.75 -27.85 -35.0 -28.05 -35.3 -28.2 -35.6 -28.3 -35.85 -28.4 -36.15 -28.4 -36.45 -28.4 -36.7 -28.4 -37.0 -28.3 -37.3 -28.15 -37.55 -28.05 -37.85 -27.75 -38.15 -27.25 -38.4 -26.8 -38.7 -25.1 -40.1 -23.95 -40.7 -22.85 -41.3 Q-21.55 -42.0 -20.1 -42.15 L-19.9 -42.2 -19.25 -42.4 -18.95 -42.7 -18.65 -42.95 -18.2 -43.25 -15.55 -43.65 -14.75 -43.75 -12.5 -43.9 -12.1 -44.1 -11.35 -44.3 -11.0 -44.5 -9.1 -44.65 -3.8 -44.85 -1.5 -44.85 -1.5 -44.8 -0.95 -44.75 -0.65 -44.65 Q6.75 -45.65 13.8 -44.25 L14.4 -44.1 14.85 -43.9 15.55 -43.9 16.4 -43.7 16.95 -43.45 17.25 -43.15 17.5 -42.85 19.8 -41.45 20.65 -40.9 21.75 -40.3 23.55 -39.15 23.95 -38.9 24.45 -38.6 24.7 -38.35 25.0 -38.05 25.3 -37.75" fill="#ffffff" fill-opacity="0.2" fill-rule="evenodd" stroke="none"/>
    <path d="M24.25 -38.2 L25.5 -37.4 25.95 -37.1 26.25 -36.8 26.6 -36.55 27.2 -36.25 27.45 -35.95 27.75 -35.7 28.05 -35.4 28.3 -35.1 28.85 -34.5 29.05 -34.25 29.45 -34.0 29.9 -33.7 30.2 -33.45 31.05 -32.85 31.45 -32.55 32.25 -31.45 33.35 -30.3 33.6 -30.0 33.8 -29.7 34.2 -29.15 34.45 -28.85 35.05 -28.65 35.4 -28.5 35.7 -28.2 35.9 -27.9 36.0 -27.65 36.2 -27.35 36.45 -27.05 36.65 -26.75 36.75 -26.5 36.95 -26.2 37.0 -25.9 37.2 -25.65 37.3 -25.35 37.5 -25.05 37.6 -24.8 37.9 -24.5 38.15 -24.2 38.55 -23.65 38.75 -23.35 38.8 -23.1 39.0 -22.8 39.1 -22.5 39.3 -22.25 39.4 -21.95 39.6 -21.65 39.65 -21.4 39.85 -21.1 39.95 -20.8 40.15 -20.5 40.25 -20.25 40.45 -19.95 40.55 -19.65 40.6 -19.4 40.7 -19.1 40.9 -18.55 41.0 -18.25 41.2 -17.95 41.25 -17.7 41.3 -17.4 41.4 -17.1 41.55 -16.85 41.65 -16.55 41.7 -16.25 41.75 -16.0 41.95 -15.7 42.05 -15.4 42.25 -15.15 42.35 -14.85 42.5 -14.55 42.7 -14.25 42.8 -14.0 42.8 -13.7 42.8 -13.4 42.8 -13.15 42.8 -12.85 42.8 -12.55 43.0 -12.3 43.05 -12.0 43.1 -11.7 43.2 -11.45 43.35 -10.85 43.45 -10.6 43.65 -10.3 43.75 -10.0 43.85 -9.75 43.85 -9.45 43.85 -9.15 43.85 -8.9 43.85 -8.6 43.85 -8.3 44.05 -8.0 44.15 -7.75 44.3 -7.45 44.4 -7.15 44.4 -6.9 44.4 -6.6 44.5 -6.3 44.6 -6.05 44.6 -5.75 44.6 -5.45 44.5 -5.2 44.5 -4.9 44.5 -4.6 44.5 -4.35 44.2 -4.05 43.75 -4.05 43.5 -4.35 43.25 -4.6 42.9 -4.9 42.7 -5.2 42.5 -5.45 42.4 -5.75 42.25 -6.05 42.05 -6.3 41.85 -6.6 41.75 -6.9 41.55 -7.15 41.3 -7.45 41.2 -7.75 41.1 -8.0 41.0 -8.3 41.0 -8.6 41.0 -8.9 41.0 -9.15 40.8 -9.45 40.7 -9.75 40.6 -10.0 40.55 -10.3 40.35 -10.85 40.25 -11.15 40.05 -11.45 39.95 -11.7 39.9 -12.0 39.85 -12.3 39.6 -12.6 39.4 -12.85 39.2 -13.15 39.1 -13.4 38.9 -13.7 38.8 -14.0 38.65 -14.25 38.55 -14.55 38.45 -14.85 38.25 -15.15 38.05 -15.4 37.9 -15.7 37.8 -16.0 37.7 -16.25 37.5 -16.55 37.4 -16.85 37.3 -17.1 37.2 -17.4 37.1 -17.7 36.95 -18.25 36.85 -18.55 36.55 -18.85 36.35 -19.1 36.15 -19.4 35.8 -19.65 35.4 -19.95 35.15 -20.25 34.55 -20.8 34.2 -21.1 34.0 -21.4 33.8 -21.65 33.5 -21.95 32.95 -22.55 32.75 -22.8 32.65 -23.1 32.45 -23.35 32.2 -23.65 32.0 -23.95 31.9 -24.2 31.8 -24.5 31.7 -24.8 31.55 -25.05 31.35 -25.35 31.15 -25.65 31.05 -25.9 30.85 -26.2 30.75 -26.5 30.5 -26.8 30.3 -27.05 30.05 -27.35 29.85 -27.65 29.45 -27.9 29.2 -28.2 28.95 -28.5 28.9 -28.75 28.6 -29.05 28.05 -29.6 27.75 -29.9 27.45 -30.2 27.0 -30.75 26.8 -31.05 26.4 -31.3 26.05 -31.6 25.45 -32.15 25.2 -32.45 24.45 -32.65 24.05 -32.85 23.6 -33.15 22.7 -33.7 22.25 -33.95 21.4 -34.15 21.1 -34.35 20.75 -34.6 20.25 -34.9 19.15 -35.5 18.65 -35.75 17.8 -35.95 17.15 -36.15 15.7 -36.45 15.55 -36.55 15.25 -36.7 13.85 -37.2 13.65 -37.3 13.35 -37.45 12.8 -37.75 11.95 -37.95 11.65 -38.15 10.8 -38.35 10.5 -38.5 9.65 -38.7 9.35 -38.9 8.5 -39.1 8.15 -39.25 6.45 -39.75 5.85 -39.85 5.6 -40.05 3.4 -40.5 2.65 -40.7 -6.35 -40.7 -7.2 -40.5 -15.15 -40.55 -15.7 -40.6 -16.2 -40.8 -16.55 -41.05 -16.75 -41.35 -16.85 -41.65 -16.95 -41.95 -16.95 -42.2 -16.85 -42.5 -16.65 -42.8 -16.45 -43.05 -16.2 -43.35 -15.8 -43.65 -15.15 -43.8 -6.05 -43.95 -4.45 -44.0 -3.8 -44.1 3.05 -44.2 3.7 -44.05 6.8 -43.8 7.5 -43.65 8.8 -43.35 9.2 -43.25 9.55 -43.35 9.95 -43.65 10.6 -43.8 12.1 -43.8 Q14.65 -43.05 16.95 -41.65 L17.45 -41.4 19.4 -40.5 19.9 -40.3 20.45 -40.2 20.95 -40.15 21.2 -39.95 23.8 -38.55 24.25 -38.2" fill="#ffffff" fill-opacity="0.2" fill-rule="evenodd" stroke="none"/>
  </g>
</svg>
