<?xml version="1.0" encoding="UTF-8" standalone="no"?>
<svg xmlns:xlink="http://www.w3.org/1999/xlink" height="95.35px" width="95.6px" xmlns="http://www.w3.org/2000/svg">
  <g transform="matrix(1.0, 0.0, 0.0, 1.0, 47.6, 46.7)">
    <path d="M34.05 30.8 L34.05 30.85 Q34.95 28.85 37.9 25.35 40.6 22.1 41.9 18.85 L44.4 11.75 45.1 9.05 45.5 4.2 45.5 3.95 45.1 -4.45 44.6 -8.35 43.9 -11.9 Q43.1 -15.25 41.5 -18.95 40.0 -22.6 37.15 -25.9 L31.4 -32.3 Q28.75 -35.25 25.45 -37.4 22.15 -39.55 18.6 -40.7 L10.65 -42.95 Q6.4 -44.05 2.65 -44.2 L1.65 -44.2 0.25 -44.2 -3.95 -43.85 -11.75 -42.3 Q-15.9 -41.25 -18.65 -39.8 -21.45 -38.3 -25.1 -35.75 -28.7 -33.3 -31.15 -30.45 -33.65 -27.55 -35.9 -23.9 -38.15 -20.25 -39.7 -16.85 -41.25 -13.5 -42.3 -10.0 -43.3 -6.6 -43.5 -3.15 L-43.5 -3.1 Q-43.75 0.4 -43.4 4.75 -43.05 9.05 -42.05 12.85 -41.0 16.6 -39.1 19.7 L-35.05 26.2 Q-33.1 29.4 -30.35 32.25 -27.55 35.15 -24.45 37.25 L-17.6 41.5 Q-14.05 43.5 -10.2 44.5 L-2.45 45.95 -2.4 45.95 -0.3 46.15 4.55 45.45 12.6 43.7 Q16.3 43.0 19.4 41.4 22.6 39.7 26.35 37.7 29.9 35.7 32.8 32.65 L33.2 32.35 34.05 30.8 M34.6 34.6 Q31.6 37.75 27.9 39.9 24.25 41.95 21.0 43.6 17.65 45.4 13.6 46.15 L5.8 47.9 -0.25 48.65 -3.6 48.45 -11.75 46.95 Q-16.05 45.85 -19.9 43.7 L-27.05 39.35 -27.15 39.2 Q-30.45 36.95 -33.4 34.0 -36.4 30.9 -38.55 27.55 L-42.65 21.05 Q-44.8 17.6 -45.95 13.5 -47.05 9.45 -47.4 4.95 -47.75 0.4 -47.5 -3.25 -47.3 -7.0 -46.15 -10.7 -45.05 -14.4 -43.35 -17.9 -41.8 -21.4 -39.4 -25.2 -37.0 -28.95 -34.5 -31.9 L-34.4 -32.05 Q-31.75 -35.1 -27.8 -37.7 L-27.7 -37.8 Q-23.8 -40.45 -20.9 -42.0 -17.9 -43.6 -13.35 -44.7 -8.9 -45.9 -5.05 -46.35 L0.15 -46.7 1.65 -46.7 3.4 -46.7 3.45 -46.7 Q7.4 -46.55 11.8 -45.35 L19.8 -43.05 Q23.65 -41.8 27.15 -39.45 30.7 -37.15 33.5 -33.95 L39.15 -27.5 Q42.2 -23.95 43.9 -19.95 L43.95 -19.8 44.65 -17.95 46.35 -12.55 46.4 -12.4 46.4 -12.35 Q47.25 -8.85 47.6 -4.65 L47.6 -4.6 48.0 3.9 Q48.1 8.5 46.8 12.5 L46.8 12.55 45.2 17.2 44.25 19.75 Q42.95 23.35 39.95 26.95 37.4 30.1 36.5 31.95 35.45 34.1 34.6 34.6" fill="#333333" fill-rule="evenodd" stroke="none"/>
  </g>
</svg>
