<?xml version="1.0" encoding="UTF-8" standalone="no"?>
<svg xmlns:xlink="http://www.w3.org/1999/xlink" height="37.35px" width="35.35px" xmlns="http://www.w3.org/2000/svg">
  <g transform="matrix(1.0, 0.0, 0.0, 1.0, 16.65, 18.6)">
    <path d="M4.1 -16.65 L4.95 -16.5 2.6 -17.2 -8.7 -13.85 -6.3 -13.7 -3.45 -14.25 -0.75 -14.85 2.4 -15.45 5.2 -15.9 4.2 -16.5 4.1 -16.65 M3.6 -17.45 L5.35 -16.8 5.95 -16.5 6.75 -16.05 7.35 -16.05 8.25 -15.9 8.3 -15.35 7.75 -15.0 10.15 -12.2 10.9 -11.25 Q12.05 -11.2 11.9 -10.35 L11.7 -10.2 13.25 -7.5 14.0 -7.65 Q14.8 -7.65 14.85 -6.95 L13.7 -6.15 14.65 -3.35 14.85 -3.25 14.75 -3.1 Q16.45 2.2 16.55 4.6 L17.25 4.5 Q18.9 4.5 18.65 5.5 18.65 6.25 18.05 6.4 L16.7 6.45 16.35 6.5 15.85 8.15 15.55 9.05 Q15.9 9.3 15.9 9.75 L15.1 10.3 14.75 11.05 13.55 13.6 Q11.2 18.05 8.25 18.15 L7.85 17.85 8.3 17.55 7.95 17.7 Q5.3 18.75 3.65 18.75 -4.4 18.75 -8.65 17.05 L-12.05 14.9 Q-12.05 14.4 -11.7 14.4 L-11.4 14.5 Q-12.9 13.3 -14.15 11.35 -16.65 7.4 -16.65 3.8 -16.65 -0.1 -15.2 -4.2 -13.45 -9.1 -10.55 -11.0 L-10.5 -10.65 -12.95 -6.05 Q-15.45 -1.25 -15.45 3.75 -15.45 6.9 -13.4 10.05 -10.8 14.05 -5.7 15.95 L-5.9 15.45 -5.7 14.95 -4.95 14.25 -4.7 14.1 -5.95 14.35 -7.35 14.55 Q-8.4 14.55 -8.65 14.05 L-8.75 13.5 Q-8.75 12.65 -5.5 11.45 L0.45 9.3 -9.0 11.6 Q-11.15 11.6 -11.15 10.95 -11.15 9.95 -9.5 9.3 L-4.75 7.6 -8.65 8.55 -12.35 9.3 Q-13.85 9.3 -13.85 8.6 -13.85 7.0 -3.6 4.05 L-6.15 4.5 -8.4 4.8 -9.5 5.25 Q-11.0 5.25 -11.0 4.55 -11.0 3.55 1.5 0.0 L1.3 0.0 Q0.25 0.0 -4.05 1.15 L-9.9 2.25 -11.45 2.0 -11.55 1.7 Q-11.55 1.1 -8.5 -0.05 L-4.35 -1.55 -4.8 -1.55 -3.15 -1.95 -3.05 -1.8 Q-3.85 -1.2 -6.4 -0.2 L-10.1 1.25 -10.35 1.35 -9.75 1.5 8.25 -2.4 13.8 -3.35 12.8 -5.75 7.95 -3.9 Q1.15 -1.5 -0.3 -1.5 L-0.6 -1.55 -0.75 -1.6 -0.75 -1.85 1.4 -2.95 4.55 -4.2 4.35 -4.2 -3.95 -2.4 -12.6 -0.6 Q-13.7 -0.6 -13.5 -1.6 -13.5 -2.2 -6.2 -5.05 L2.6 -8.4 -3.95 -6.55 Q-9.1 -5.1 -10.05 -5.1 -12.4 -5.1 -12.15 -5.8 -12.15 -7.05 -7.3 -8.75 L0.75 -11.4 0.8 -11.45 -9.0 -9.0 Q-10.85 -9.0 -10.8 -9.95 -10.8 -10.6 -7.3 -11.95 L-2.6 -13.65 -2.75 -13.65 -6.45 -12.9 -9.65 -13.3 Q-9.95 -13.5 -9.75 -13.75 L-9.5 -14.05 -7.0 -16.75 Q-4.8 -18.45 -1.4 -18.6 L0.5 -18.2 1.65 -18.3 Q3.6 -18.3 3.6 -17.45 M6.65 -14.65 L1.4 -13.1 -6.15 -10.95 -6.35 -10.85 0.45 -12.3 7.05 -13.5 7.65 -13.45 7.0 -14.25 6.65 -14.65 M7.2 -14.85 L7.25 -14.8 8.4 -13.25 8.5 -13.2 8.6 -13.05 9.2 -12.25 7.6 -14.6 7.3 -14.85 7.2 -14.85 M9.5 -11.8 L9.3 -11.6 8.35 -12.6 Q7.25 -12.1 1.3 -10.1 L-7.85 -7.05 -8.3 -6.9 Q5.9 -10.75 9.85 -11.2 L9.5 -11.8 M10.7 -9.75 L4.85 -7.5 Q-1.55 -5.05 -4.8 -3.95 L-5.15 -3.75 5.2 -5.9 12.05 -7.3 10.8 -9.55 10.7 -9.75 M14.4 -0.75 L14.0 -2.8 7.9 -0.75 -2.25 2.45 5.7 0.5 Q11.05 -0.9 13.95 -0.9 L14.4 -0.7 14.4 -0.75 M13.95 2.6 Q13.95 3.35 7.4 5.45 L-0.75 7.8 -1.05 7.95 6.55 6.35 14.45 5.0 14.45 4.8 14.9 1.55 14.8 1.15 14.5 0.0 Q13.85 0.75 5.05 3.25 L-5.75 6.3 -6.05 6.45 5.2 3.65 12.6 1.85 Q14.0 1.85 13.95 2.6 M14.3 6.95 L7.9 8.85 1.1 11.15 7.55 9.8 14.05 8.7 14.3 6.95 M6.55 16.8 L7.95 16.35 Q10.95 15.45 10.95 15.2 L10.95 15.3 Q12.75 13.3 13.55 10.85 L9.65 11.95 1.4 14.1 1.7 14.1 6.9 13.65 Q8.55 13.65 9.1 14.1 L9.3 14.8 Q9.3 15.05 7.3 16.3 L6.55 16.8 M4.15 17.3 L3.95 16.45 4.4 15.75 4.05 15.65 -0.4 16.2 -4.05 16.7 -4.35 16.7 3.7 17.3 4.15 17.3 M-6.1 -15.6 L-1.25 -16.95 -0.95 -17.1 -1.55 -17.1 -4.2 -16.8 -2.35 -17.5 Q-4.5 -17.4 -6.7 -16.0 L-8.4 -14.7 -6.1 -15.6 M-5.4 16.45 L-5.4 16.5 -4.95 16.6 -5.4 16.35 -5.4 16.45" fill="#333333" fill-rule="evenodd" stroke="none"/>
  </g>
</svg>
