<?xml version="1.0" encoding="UTF-8" standalone="no"?>
<svg xmlns:xlink="http://www.w3.org/1999/xlink" height="11.55px" width="18.45px" xmlns="http://www.w3.org/2000/svg">
  <g transform="matrix(1.0, 0.0, 0.0, 1.0, 8.15, -7.8)">
    <path d="M-6.45 9.2 Q-8.15 10.15 -8.15 12.65 -8.25 14.45 -7.15 16.1 -4.95 19.35 1.0 19.35 6.5 19.35 8.85 17.0 10.3 15.55 10.3 13.7 10.3 11.5 9.55 10.3 8.1 7.8 3.8 7.8 L1.95 7.95 1.45 8.1 Q-4.4 8.1 -6.45 9.2 M0.1 16.5 Q3.85 16.5 3.85 14.65 3.85 11.25 0.6 11.45 -2.6 11.65 -2.6 13.7 -2.6 14.55 -2.2 15.25 -1.5 16.5 0.1 16.5 M-1.45 14.1 Q-1.45 12.8 0.8 12.5 3.1 12.2 3.1 14.6 L2.8 15.2 Q2.35 15.6 1.4 15.6 -0.55 15.6 -1.2 14.85 L-1.45 14.1 M-6.8 13.3 Q-6.8 10.95 -5.2 10.05 -3.1 8.85 2.95 8.85 7.45 8.85 8.8 11.1 9.25 11.9 9.25 13.65 9.25 14.9 7.9 16.35 6.25 18.15 4.0 18.15 -3.5 18.15 -5.9 15.75 -7.1 14.55 -6.8 13.3" fill="#333333" fill-rule="evenodd" stroke="none"/>
  </g>
</svg>
