<?xml version="1.0" encoding="UTF-8" standalone="no"?>
<svg xmlns:xlink="http://www.w3.org/1999/xlink" height="10.7px" width="18.0px" xmlns="http://www.w3.org/2000/svg">
  <g transform="matrix(1.0, 0.0, 0.0, 1.0, 7.5, -8.1)">
    <path d="M1.5 8.55 Q0.6 9.3 -2.1 9.0 -4.6 8.75 -6.2 10.5 -6.5 10.8 -6.5 12.7 -6.5 14.65 -5.25 15.75 -2.9 17.85 3.6 17.85 L5.1 17.55 5.4 17.5 7.15 15.85 Q9.45 13.75 9.45 11.8 9.45 10.1 6.4 9.25 L1.35 8.1 Q7.45 8.3 9.1 9.3 10.5 10.15 10.5 12.85 8.0 18.5 5.4 18.5 L5.0 18.4 0.65 18.8 Q-4.05 18.8 -6.2 16.15 -7.5 14.55 -7.5 12.9 -7.5 10.55 -6.95 9.8 -5.15 7.35 1.35 8.4 L1.5 8.55 M5.15 15.3 Q4.3 16.35 2.4 16.35 0.5 16.35 -0.45 15.5 -1.05 15.0 -1.05 14.5 -0.75 12.65 -0.35 12.2 L-0.3 12.15 -0.7 12.35 -1.5 12.6 -1.5 12.45 Q-1.5 10.45 2.05 11.1 5.6 11.75 5.6 14.0 L5.15 15.3 M4.65 14.05 Q4.65 12.5 2.25 12.05 -0.2 11.6 -0.2 13.6 L-0.05 14.7 Q0.25 15.45 1.25 15.45 4.65 15.45 4.65 14.05" fill="#333333" fill-rule="evenodd" stroke="none"/>
  </g>
</svg>
