<?xml version="1.0" encoding="UTF-8" standalone="no"?>
<svg xmlns:xlink="http://www.w3.org/1999/xlink" height="10.5px" width="19.7px" xmlns="http://www.w3.org/2000/svg">
  <g transform="matrix(1.0, 0.0, 0.0, 1.0, 9.85, 5.25)">
    <path d="M9.25 2.85 Q7.9 5.25 4.4 5.25 1.25 5.25 -0.1 2.9 L-0.85 0.55 Q-0.85 -5.25 4.15 -5.25 7.2 -5.25 8.85 -2.6 9.85 -0.95 9.85 0.35 9.9 1.65 9.25 2.85 M6.25 -0.4 L6.25 -0.75 5.75 0.4 5.3 0.9 6.05 0.1 6.15 -0.05 6.25 -0.4 M6.8 0.55 Q6.2 1.85 4.85 1.85 3.4 1.85 2.8 0.1 L2.5 -1.8 Q2.5 -2.75 4.25 -2.75 5.95 -2.75 6.7 -1.85 L7.15 -0.8 6.8 0.55 M7.75 -2.15 Q6.45 -4.1 4.2 -4.1 L2.6 -3.9 2.5 -3.95 2.95 -4.4 Q1.3 -3.95 0.5 -2.5 -0.05 -1.4 -0.05 -0.25 -0.05 1.05 0.45 2.05 1.45 4.15 4.25 4.15 7.3 4.15 8.3 2.25 8.8 1.3 8.65 0.35 8.65 -0.75 7.75 -2.15 M3.4 -0.15 L4.25 -0.3 Q4.0 -0.45 4.0 -1.1 4.0 -1.55 4.15 -1.75 3.35 -1.7 3.35 -1.2 L3.4 -0.15" fill="#333333" fill-rule="evenodd" stroke="none"/>
    <path d="M3.4 -0.15 L3.35 -1.2 Q3.35 -1.7 4.15 -1.75 4.0 -1.55 4.0 -1.1 4.0 -0.45 4.25 -0.3 L3.4 -0.15 M7.75 -2.15 Q8.65 -0.75 8.65 0.35 8.8 1.3 8.3 2.25 7.3 4.15 4.25 4.15 1.45 4.15 0.45 2.05 -0.05 1.05 -0.05 -0.25 -0.05 -1.4 0.5 -2.5 1.3 -3.95 2.95 -4.4 L2.5 -3.95 2.6 -3.9 4.2 -4.1 Q6.45 -4.1 7.75 -2.15 M6.8 0.55 L7.15 -0.8 6.7 -1.85 Q5.95 -2.75 4.25 -2.75 2.5 -2.75 2.5 -1.8 L2.8 0.1 Q3.4 1.85 4.85 1.85 6.2 1.85 6.8 0.55" fill="#ffffff" fill-rule="evenodd" stroke="none"/>
    <path d="M-9.05 -0.25 Q-9.05 1.05 -8.55 2.05 -7.55 4.15 -4.75 4.15 -1.7 4.15 -0.7 2.25 -0.2 1.3 -0.35 0.35 -0.35 -0.75 -1.25 -2.15 -2.55 -4.1 -4.8 -4.1 L-6.4 -3.9 -6.5 -3.95 Q-5.85 -4.4 -6.05 -4.4 -7.7 -3.95 -8.5 -2.5 -9.05 -1.4 -9.05 -0.25 M-5.6 -0.15 L-4.75 -0.3 -5.0 -1.1 -4.85 -1.75 Q-5.65 -1.7 -5.65 -1.2 L-5.6 -0.15 M-0.15 -2.6 Q0.85 -0.95 0.85 0.35 0.9 1.65 0.25 2.85 -1.1 5.25 -4.6 5.25 -7.75 5.25 -9.1 2.9 L-9.85 0.55 Q-9.85 -5.25 -4.85 -5.25 -1.8 -5.25 -0.15 -2.6 M-2.75 -0.4 L-2.75 -0.75 -3.25 0.4 -3.7 0.9 -2.95 0.1 -2.85 -0.05 -2.75 -0.4 M-1.85 -0.8 Q-1.9 -0.05 -2.2 0.55 -2.8 1.85 -4.15 1.85 -5.6 1.85 -6.2 0.1 L-6.5 -1.8 Q-6.5 -2.75 -4.75 -2.75 -3.05 -2.75 -2.3 -1.85 -1.85 -1.35 -1.85 -0.8" fill="#333333" fill-rule="evenodd" stroke="none"/>
    <path d="M-9.05 -0.25 Q-9.05 -1.4 -8.5 -2.5 -7.7 -3.95 -6.05 -4.4 -5.85 -4.4 -6.5 -3.95 L-6.4 -3.9 -4.8 -4.1 Q-2.55 -4.1 -1.25 -2.15 -0.35 -0.75 -0.35 0.35 -0.2 1.3 -0.7 2.25 -1.7 4.15 -4.75 4.15 -7.55 4.15 -8.55 2.05 -9.05 1.05 -9.05 -0.25 M-5.6 -0.15 L-5.65 -1.2 Q-5.65 -1.7 -4.85 -1.75 L-5.0 -1.1 -4.75 -0.3 -5.6 -0.15 M-1.85 -0.8 Q-1.85 -1.35 -2.3 -1.85 -3.05 -2.75 -4.75 -2.75 -6.5 -2.75 -6.5 -1.8 L-6.2 0.1 Q-5.6 1.85 -4.15 1.85 -2.8 1.85 -2.2 0.55 -1.9 -0.05 -1.85 -0.8" fill="#ffffff" fill-rule="evenodd" stroke="none"/>
  </g>
</svg>
