<?xml version="1.0" encoding="UTF-8" standalone="no"?>
<svg xmlns:xlink="http://www.w3.org/1999/xlink" height="16.9px" width="27.0px" xmlns="http://www.w3.org/2000/svg">
  <g transform="matrix(1.0, 0.0, 0.0, 1.0, 13.65, 8.35)">
    <path d="M11.1 -5.1 L11.55 -4.45 Q11.55 -3.3 10.65 -3.3 L7.4 -3.65 Q4.4 -3.65 1.6 -1.15 L-1.8 2.1 Q-2.45 2.5 -2.45 3.85 -2.45 5.1 -3.9 5.6 L-7.45 6.55 -11.3 7.35 Q-12.75 7.35 -12.75 5.15 -12.75 2.75 -9.05 -1.5 -4.5 -6.8 1.05 -6.8 L6.95 -7.25 Q12.45 -7.45 12.45 -6.0 12.4 -4.95 11.1 -5.1" fill="#d1d0a5" fill-rule="evenodd" stroke="none"/>
    <path d="M6.2 -7.55 L6.2 -7.45 3.55 -4.8 -0.3 -1.1 Q6.65 -6.0 7.35 -6.0 8.4 -6.0 7.95 -4.8 L9.35 -5.7 Q10.55 -6.45 11.1 -6.55 L10.2 -6.85 8.4 -7.4 6.2 -7.55 M1.85 -7.05 L1.85 -7.0 Q1.85 -6.4 -2.85 -2.6 L-8.7 1.95 -8.75 2.0 Q-7.45 1.3 0.2 -4.15 4.35 -7.1 5.65 -7.55 L3.7 -7.3 1.85 -7.05 M5.8 -0.95 L0.95 3.3 Q-3.0 6.4 -6.5 7.45 L-6.5 7.5 -5.85 7.4 -6.75 8.0 -8.65 8.3 -8.7 8.3 -9.8 8.55 Q-12.2 8.55 -13.15 7.6 -13.65 7.1 -13.65 6.6 -13.65 4.8 -13.2 3.3 -12.85 2.2 -12.25 1.55 -11.15 -3.15 -4.25 -6.45 1.05 -8.95 6.5 -8.15 L10.25 -7.35 Q13.35 -6.4 13.35 -5.95 L13.2 -5.6 11.95 -6.25 12.15 -5.35 12.35 -4.65 12.15 -4.2 13.2 -4.25 13.25 -4.1 11.05 -3.2 9.8 -2.7 6.0 -1.1 5.8 -0.95 M8.25 -3.25 L9.15 -3.6 9.15 -3.75 9.15 -3.9 8.25 -3.25 M-1.5 -6.35 Q-1.5 -6.0 -3.6 -4.4 L-6.2 -2.4 -2.0 -5.5 -0.05 -6.9 -1.5 -6.6 -1.5 -6.35 M-5.85 -1.5 L-7.0 -0.65 -6.4 -1.05 -5.85 -1.5 M-2.0 -6.45 Q-5.05 -5.45 -8.15 -2.7 L-11.6 1.0 -11.3 0.85 -7.05 -2.75 -2.0 -6.45 M-6.05 1.85 Q-11.2 5.0 -12.05 5.0 L-12.35 5.0 -12.5 6.45 Q-12.5 7.25 -10.25 7.35 L-7.15 6.35 -7.25 5.85 Q-7.25 5.4 -6.55 4.7 L-5.1 3.45 -5.1 3.3 -7.45 4.8 -9.45 6.0 -9.9 5.8 -10.05 5.55 Q-10.05 5.0 -8.2 3.55 L-6.05 1.95 -6.05 1.85 M-11.6 2.8 L-10.5 1.8 -10.5 1.65 -10.6 1.75 -10.95 1.85 -11.2 1.8 -11.6 2.8" fill="#333333" fill-rule="evenodd" stroke="none"/>
  </g>
</svg>
