<?xml version="1.0" encoding="UTF-8" standalone="no"?>
<svg xmlns:xlink="http://www.w3.org/1999/xlink" height="16.55px" width="28.1px" xmlns="http://www.w3.org/2000/svg">
  <g transform="matrix(1.0, 0.0, 0.0, 1.0, 13.55, 8.45)">
    <path d="M9.4 -6.6 L13.25 -6.1 Q13.6 -5.85 13.35 -5.6 13.35 -5.1 12.15 -4.8 L12.5 -4.0 Q12.5 -3.3 11.6 -3.3 L8.9 -3.75 Q6.8 -3.75 0.8 1.9 -5.15 7.5 -7.75 7.5 -10.0 7.5 -11.25 6.15 -11.85 5.45 -12.05 4.75 -9.45 -2.65 -7.65 -3.5 1.1 -7.65 3.2 -7.55 5.45 -6.6 9.4 -6.6 M2.4 -1.95 L2.75 -2.1 3.0 -2.4 Q2.5 -2.3 2.4 -1.95 M-3.45 1.65 L-2.7 1.25 -2.85 1.25 -3.45 1.65" fill="#d1d0a5" fill-rule="evenodd" stroke="none"/>
    <path d="M7.2 -8.1 L11.8 -7.05 Q14.1 -6.3 14.55 -5.75 L14.25 -5.3 Q13.4 -6.1 11.7 -6.45 L4.8 -6.9 2.0 -6.75 2.0 -6.5 1.7 -5.85 1.2 -5.1 2.95 -5.85 Q4.2 -6.45 4.8 -6.45 5.25 -6.45 5.25 -5.7 L7.7 -6.45 8.6 -6.2 8.85 -6.0 Q9.3 -6.0 10.3 -6.55 11.05 -6.8 10.85 -5.7 L11.7 -5.85 12.3 -5.4 11.85 -4.7 12.2 -4.65 12.3 -4.45 12.15 -4.05 12.0 -3.8 11.95 -3.85 11.7 -3.95 10.5 -3.4 12.2 -3.35 12.15 -3.05 Q6.75 -2.2 2.65 0.6 L-3.4 5.15 -1.35 3.6 Q-1.55 4.65 -3.35 6.15 -5.75 8.1 -8.7 8.1 -11.2 8.1 -12.55 7.25 -13.55 6.65 -13.55 6.15 -13.25 4.95 -12.95 4.8 L-12.75 5.55 -12.65 5.4 -12.75 5.3 -12.8 4.35 Q-12.8 0.65 -10.05 -2.5 -6.75 -6.2 -0.75 -7.5 -6.95 -4.6 -9.75 -1.3 -10.9 0.05 -11.5 1.55 L-7.85 -2.2 -6.4 -3.5 Q-5.65 -4.9 -2.35 -6.65 2.6 -9.35 7.2 -8.0 L7.2 -8.1 M0.75 -6.05 Q-3.85 -4.1 -7.35 -0.95 -9.6 1.05 -12.15 4.4 L-12.25 4.25 -12.25 4.8 Q-10.9 2.85 -6.55 -0.45 L0.75 -6.0 0.75 -6.05 M1.95 -4.2 Q-0.7 -3.05 -2.5 -1.3 L-5.25 1.65 2.1 -4.2 1.95 -4.2 M8.9 -3.25 L10.7 -4.65 10.7 -4.7 8.5 -3.2 8.9 -3.25 M8.0 -4.35 L9.15 -4.95 9.15 -5.0 8.0 -4.4 8.0 -4.35 M1.8 -2.45 Q-0.6 -0.75 -1.4 0.65 L-1.5 0.75 6.9 -5.1 Q4.2 -4.1 1.8 -2.45 M-3.45 2.75 Q-7.2 6.2 -7.8 6.2 -8.5 6.2 -8.3 5.45 -8.3 4.8 -7.5 3.95 L-6.15 2.55 -6.15 2.4 -8.75 5.0 -11.0 6.75 -8.3 7.05 Q-6.3 7.05 -3.95 5.5 L-3.6 5.3 -3.8 5.1 -0.95 1.9 -3.0 3.15 -3.2 2.95 Q-3.25 2.75 -3.45 2.75 M-10.35 4.7 Q-8.3 3.45 -5.4 0.35 -8.45 2.3 -10.35 4.65 L-10.35 4.7" fill="#333333" fill-rule="evenodd" stroke="none"/>
  </g>
</svg>
