<?xml version="1.0" encoding="UTF-8" standalone="no"?>
<svg xmlns:xlink="http://www.w3.org/1999/xlink" height="70.95px" width="14.0px" xmlns="http://www.w3.org/2000/svg">
  <g transform="matrix(1.0, 0.0, 0.0, 1.0, 6.95, 34.95)">
    <path d="M2.25 -33.0 L2.7 -32.3 3.0 -31.75 3.2 -31.55 3.55 -31.2 3.75 -31.0 3.85 -30.9 3.9 -30.8 3.95 -30.7 3.95 -30.65 4.0 -30.55 4.0 -30.45 4.0 -30.35 4.0 -30.25 4.0 -30.15 4.0 -30.05 4.75 -28.9 Q5.3 -27.95 5.25 -26.85 L5.25 -25.65 5.2 -25.55 5.15 -25.45 5.1 -25.4 5.0 -25.3 5.05 -25.2 5.1 -25.1 5.1 -25.0 5.2 -24.8 5.25 -24.65 5.3 -23.95 5.35 -23.45 5.8 -22.15 Q6.25 -20.9 6.1 -19.45 L6.1 -19.0 6.05 -18.9 6.0 -18.8 5.95 -18.75 Q5.9 -17.55 6.15 -16.4 6.45 -14.9 6.35 -13.4 L6.35 -13.3 6.3 -13.2 6.25 -13.1 6.2 -13.0 6.15 -12.9 6.0 -12.8 5.95 -12.75 5.9 -11.25 Q5.9 -10.25 5.4 -9.35 L5.35 -9.15 5.35 -9.05 5.35 -9.0 5.3 -8.8 5.2 -8.5 5.1 -8.25 5.1 -8.15 5.1 -8.05 5.1 -7.95 3.45 -2.95 Q2.8 -0.6 1.35 1.35 L0.5 3.5 -0.2 5.95 -0.2 6.0 -0.2 6.1 -0.2 6.2 -0.2 6.3 -0.3 6.7 -0.55 7.25 -0.65 7.45 -0.75 7.5 -0.8 7.5 -1.25 7.5 -1.45 8.0 -1.9 8.65 -2.0 8.75 -2.5 8.75 -2.75 8.75 -2.85 8.65 -2.95 8.55 -3.05 8.45 -3.05 8.25 -3.05 8.0 -3.1 7.6 -3.15 7.55 -3.25 7.45 -3.35 7.35 -3.45 7.25 -3.45 7.15 -3.5 7.05 -3.6 6.95 -3.75 7.05 -3.9 7.3 -4.05 7.55 -4.15 7.65 -4.2 7.75 -4.3 7.85 -4.4 7.9 -4.45 7.9 -4.65 7.95 -4.75 7.95 -5.0 7.9 -5.1 7.8 -5.2 7.7 -5.3 7.6 -5.35 7.65 -5.45 7.7 -5.55 7.75 -5.75 7.8 -6.0 7.75 -6.1 7.65 -6.2 7.55 -6.3 7.45 -6.35 7.0 -6.3 6.35 -6.3 5.95 -6.15 5.4 -5.9 4.65 -5.8 4.35 -5.8 3.45 -5.75 2.3 -5.75 1.95 -5.35 0.6 -4.65 -1.0 -4.6 -1.05 Q-4.7 -2.25 -4.2 -3.35 L-2.8 -5.85 -2.75 -5.95 -2.65 -6.05 -2.55 -6.15 -1.7 -8.7 -1.7 -9.05 -1.7 -9.2 -1.7 -9.7 -1.7 -9.8 -1.95 -11.0 -1.9 -12.9 -2.1 -14.2 -2.45 -16.35 -3.5 -19.9 -3.75 -21.15 -3.8 -21.2 -3.9 -21.3 -4.0 -21.4 -4.2 -21.8 -4.4 -22.25 -4.6 -22.9 -4.7 -23.3 -4.7 -24.15 -4.7 -25.65 -4.7 -27.15 -4.55 -27.6 -4.45 -28.15 -4.25 -28.8 -4.1 -29.1 -4.1 -29.2 -4.15 -29.3 -4.2 -29.4 -4.05 -30.5 -3.45 -32.15 Q-3.15 -32.85 -2.5 -33.15 L-2.4 -33.3 -2.05 -33.7 -1.8 -33.95 -1.55 -34.15 -1.45 -34.2 -1.25 -34.25 -0.85 -34.25 -0.35 -34.15 -0.2 -34.1 -0.15 -34.0 -0.05 -33.9 0.1 -33.8 0.5 -33.75 0.9 -33.6 0.95 -33.55 0.95 -33.5 1.15 -33.55 1.4 -33.6 2.25 -33.0" fill="#ffffff" fill-rule="evenodd" stroke="none"/>
    <path d="M0.7 -31.9 L1.1 -31.7 1.85 -31.4 1.95 -31.3 2.0 -31.2 2.05 -31.1 2.1 -30.9 2.1 -30.75 2.15 -30.65 2.15 -30.45 2.15 -30.25 2.1 -30.15 2.05 -30.05 2.0 -30.0 1.9 -29.9 2.7 -28.6 3.3 -26.8 3.4 -26.5 3.8 -24.25 4.0 -21.35 4.0 -21.0 4.7 -18.35 Q5.0 -16.75 4.9 -15.05 L4.9 -14.8 4.85 -14.7 4.85 -14.6 4.8 -14.5 4.75 -14.3 4.75 -14.15 4.75 -13.95 4.7 -13.55 4.65 -13.5 Q4.7 -10.45 4.0 -7.55 L3.3 -5.35 Q2.05 -1.85 0.05 1.25 L-0.55 2.6 -1.1 4.45 -1.25 4.8 -1.25 4.9 -1.25 5.0 -1.3 5.1 -1.35 5.2 -1.4 5.25 -1.4 5.45 -1.4 5.55 -1.4 5.75 -1.4 5.95 -1.7 6.7 -1.9 7.45 -1.9 8.0 -1.9 8.1 -1.95 8.2 -2.0 8.25 -2.1 8.35 -2.25 8.45 -2.5 8.5 -2.8 8.45 -2.9 8.35 -3.0 8.25 -3.05 8.2 -3.1 8.1 -3.15 8.0 -3.15 7.7 -3.15 7.25 -3.15 6.85 -3.2 6.85 -3.4 6.85 -3.7 6.8 -3.8 6.75 -3.9 6.85 -3.95 6.95 -4.0 7.0 -4.15 7.2 -4.15 7.3 -4.15 7.4 -4.15 7.5 -4.15 7.6 -4.15 7.7 -4.2 7.8 -4.25 7.85 -4.35 7.95 -4.5 8.05 -4.85 8.1 -5.0 8.2 -5.25 8.25 -5.55 8.2 -5.65 8.1 -5.75 8.0 -5.8 7.95 -5.85 7.85 -5.9 7.75 -5.9 7.35 -5.9 6.9 -5.9 6.5 -5.9 6.45 -5.75 6.05 -5.55 5.5 -5.4 5.2 Q-5.45 4.2 -5.15 3.25 -4.8 1.85 -4.15 0.6 L-4.05 0.35 -3.75 -1.0 -2.9 -2.95 -2.7 -3.3 -2.35 -4.65 -1.65 -6.6 -1.55 -7.0 -1.55 -7.05 -1.55 -7.15 -1.5 -7.25 -1.45 -7.35 -1.35 -7.45 -0.85 -11.25 Q-0.6 -13.75 -1.3 -16.15 -1.5 -18.3 -2.1 -20.35 L-2.9 -22.95 -3.05 -24.15 -3.05 -25.35 -3.15 -25.55 -3.25 -25.75 -3.35 -26.0 -3.3 -26.85 -3.3 -27.7 -3.3 -28.45 -3.2 -28.7 -2.95 -29.2 -2.8 -29.5 Q-2.25 -30.0 -1.95 -30.65 -1.5 -31.75 -0.5 -32.35 L-0.45 -32.35 -0.25 -32.4 0.35 -32.25 0.7 -31.9 M0.1 -5.5 L-0.2 -4.95 -0.4 -4.35 0.0 -5.0 Q0.3 -5.4 0.1 -5.5" fill="#d1d0a5" fill-opacity="0.3019608" fill-rule="evenodd" stroke="none"/>
    <path d="M3.1 -22.4 L3.35 -22.25 3.4 -22.15 3.45 -22.05 3.5 -21.9 3.5 -21.8 3.55 -21.7 3.65 -21.6 3.75 -21.5 3.8 -21.4 3.85 -21.3 3.85 -21.25 3.9 -21.15 3.9 -21.05 3.9 -20.95 5.65 -16.9 Q6.2 -15.15 5.85 -13.35 L5.9 -11.4 5.95 -9.15 5.9 -8.95 5.8 -8.55 5.75 -8.4 5.75 -8.1 5.75 -7.55 5.75 -7.25 5.3 -6.15 4.5 -4.9 3.5 -4.05 2.85 -3.5 Q2.6 -2.5 1.75 -1.8 1.1 -1.25 0.2 -1.5 L-0.2 -1.9 -0.55 -2.35 -0.55 -2.45 -0.55 -2.55 -0.55 -2.75 -0.55 -2.8 -0.6 -2.9 -0.7 -3.0 -0.8 -3.1 -0.85 -3.2 -0.9 -3.3 -0.9 -3.4 -0.9 -3.5 -0.9 -3.65 -0.9 -3.95 -1.0 -4.05 -1.15 -4.15 -1.3 -4.25 Q-2.25 -4.1 -2.9 -4.85 L-3.05 -5.0 -3.05 -5.1 -3.05 -5.3 -3.05 -5.55 -3.05 -5.65 -2.95 -5.85 -2.75 -6.25 -2.7 -6.3 -2.8 -8.55 Q-2.7 -9.85 -1.9 -10.8 L-1.9 -11.4 -1.9 -12.15 -1.9 -12.4 -2.1 -12.8 -2.25 -13.35 -2.3 -13.55 -2.3 -15.3 -2.3 -17.4 -2.3 -17.5 -2.2 -17.95 -2.05 -18.6 -2.05 -18.8 -2.05 -19.05 -2.05 -19.65 -2.05 -19.9 -2.0 -20.0 -1.95 -20.1 -1.9 -20.2 -1.9 -20.3 -1.9 -20.4 -1.9 -20.5 -1.9 -20.55 -1.85 -20.65 -1.8 -20.75 -1.7 -20.85 -1.2 -21.05 -1.1 -21.1 -1.0 -21.2 -0.9 -21.3 -0.7 -21.4 -0.45 -21.45 -0.25 -21.5 0.1 -21.4 0.4 -21.2 0.8 -21.2 1.05 -21.25 Q1.35 -21.6 1.8 -21.75 L2.25 -22.15 2.3 -22.25 2.4 -22.35 2.55 -22.45 2.85 -22.5 3.1 -22.4 M0.75 -3.0 L0.75 -2.9 0.8 -2.8 1.0 -2.95 1.1 -3.05 0.8 -3.1 0.75 -3.05 0.75 -3.0" fill="#d1d0a5" fill-opacity="0.3019608" fill-rule="evenodd" stroke="none"/>
    <path d="M1.3 -14.05 L1.4 -14.15 1.45 -14.25 1.85 -14.35 2.4 -14.2 2.55 -14.0 2.8 -13.65 2.85 -13.55 3.1 -13.45 3.5 -13.3 3.6 -13.2 3.65 -13.15 3.7 -12.95 3.7 -12.4 3.7 -11.75 3.7 -11.45 3.75 -11.35 3.8 -11.25 3.8 -11.15 4.15 -12.2 4.6 -13.8 4.6 -13.9 4.6 -14.0 4.65 -14.05 4.75 -14.25 4.9 -14.45 5.0 -14.5 5.35 -14.65 5.6 -14.55 5.75 -14.5 5.85 -14.35 6.0 -14.1 6.1 -13.9 6.15 -13.8 6.2 -13.75 6.2 -13.65 6.2 -12.5 6.2 -11.0 6.2 -10.9 6.25 -10.8 6.35 -10.65 6.45 -10.45 6.45 -10.15 6.45 -9.7 6.35 -9.4 6.35 -9.3 6.4 -9.25 6.45 -9.05 6.45 -8.95 6.45 -8.85 6.45 -8.75 Q4.85 -5.85 3.65 -2.7 L1.8 2.3 1.7 2.4 1.6 2.6 1.5 2.75 1.4 2.85 1.0 3.0 0.7 3.0 0.55 3.1 0.35 3.2 0.35 3.25 0.3 3.45 0.2 3.65 0.2 3.75 0.2 3.85 0.2 3.95 0.1 4.1 0.05 4.3 -0.05 4.4 -0.15 4.5 -0.15 4.6 -0.2 4.75 -0.3 5.05 -0.3 5.15 -0.3 5.25 -0.3 5.35 -0.4 5.5 -0.55 5.8 -0.55 6.2 -0.55 6.75 -0.55 7.0 -0.55 7.1 -0.6 7.3 -0.65 7.5 -0.75 7.6 -0.85 7.7 -0.95 7.75 -1.15 7.75 -1.25 7.75 -1.55 7.7 -1.65 7.6 -1.75 7.5 -1.8 7.45 -1.85 7.35 -1.9 7.25 -1.9 7.05 -1.9 6.7 -1.9 6.4 -1.95 6.4 -2.05 6.5 -2.15 6.55 -2.2 6.6 -2.4 6.6 -2.7 6.55 -2.8 6.45 -2.9 6.35 -2.95 6.25 -3.0 6.2 -3.05 6.1 -3.05 6.0 -3.05 5.8 -3.05 5.5 -3.05 5.45 -3.1 5.65 -3.15 6.0 -3.15 6.2 -3.2 6.4 -3.35 6.65 -3.4 6.85 -3.5 6.95 -3.9 7.1 -4.2 7.05 -4.3 6.95 -4.45 6.75 -4.5 6.7 -4.55 6.75 -4.6 6.95 -4.65 7.05 -4.7 7.15 -4.95 7.35 -5.05 7.45 -5.05 7.5 -5.05 7.6 -5.05 7.7 -5.05 7.8 -5.05 7.9 -5.1 8.0 -5.15 8.1 -5.25 8.15 -5.35 8.25 -5.45 8.3 -5.65 8.35 -5.95 8.3 -6.05 8.2 -6.15 8.1 -6.2 8.0 -6.25 7.95 -6.3 7.85 -6.2 3.25 Q-6.15 1.15 -4.75 -0.5 L-4.65 -0.7 -4.35 -1.8 -3.8 -3.25 -3.8 -3.3 -3.75 -3.4 -3.75 -3.5 -3.7 -3.6 -3.6 -3.7 -3.5 -3.8 -3.35 -3.85 -3.2 -3.9 -2.95 -4.85 -2.5 -6.15 -2.45 -6.25 -2.4 -7.0 -2.15 -7.75 -2.05 -7.95 -2.05 -8.05 -2.05 -8.15 -2.05 -8.25 -2.1 -8.3 -2.2 -8.4 -2.3 -8.5 -2.35 -9.65 -2.3 -11.15 -2.3 -11.25 -2.55 -12.35 -2.95 -13.95 -2.95 -14.05 -2.95 -14.25 -2.95 -14.5 -2.95 -14.6 -2.85 -14.7 -2.65 -14.85 -2.6 -14.85 -2.4 -14.9 -2.15 -14.85 -2.05 -14.75 -1.95 -14.65 -1.85 -14.5 -1.8 -14.3 -1.75 -14.3 -1.5 -14.25 -1.4 -14.15 -1.3 -14.05 -1.2 -13.9 -1.1 -13.6 -1.1 -13.5 -1.1 -13.4 -1.1 -13.3 -0.95 -12.85 -0.85 -12.4 -0.8 -12.1 -0.7 -12.0 -0.55 -11.9 -0.5 -11.8 -0.45 -11.75 -0.4 -11.55 -0.3 -11.5 -0.25 -11.5 -0.25 -11.6 -0.25 -11.7 0.25 -12.95 1.3 -14.05 M2.85 -9.45 L2.75 -9.25 2.6 -9.0 2.95 -9.25 3.0 -9.55 2.85 -9.45" fill="#d1d0a5" fill-opacity="0.3019608" fill-rule="evenodd" stroke="none"/>
    <path d="M1.25 -31.95 L1.4 -31.75 1.45 -31.65 1.9 -31.4 2.15 -31.2 2.2 -31.1 2.25 -31.0 2.3 -30.9 2.35 -30.8 2.35 -30.75 2.3 -30.65 2.3 -30.55 2.25 -30.45 2.2 -30.35 2.05 -30.25 1.95 -30.2 1.75 -30.15 1.55 -30.05 1.55 -30.0 1.5 -29.9 1.45 -29.8 1.45 -29.75 1.35 -29.65 1.25 -29.55 1.0 -29.5 0.75 -29.55 0.6 -29.65 0.5 -29.75 0.45 -29.8 0.4 -29.9 0.35 -30.0 0.3 -30.1 0.1 -30.3 0.05 -30.4 -0.05 -30.45 -0.2 -30.65 -0.3 -30.75 -0.35 -30.75 -0.55 -30.65 -0.7 -30.55 -0.85 -30.5 -0.9 -30.4 -0.95 -30.3 -1.05 -30.2 -1.2 -30.1 -1.35 -30.0 -1.45 -29.9 -1.75 -29.85 -2.15 -29.85 -2.4 -29.9 -2.55 -30.0 -2.65 -30.05 -2.65 -30.15 -2.7 -30.25 -2.7 -30.35 -2.7 -30.45 -2.7 -30.55 -2.7 -30.75 -2.65 -30.8 -2.6 -30.9 -2.55 -31.0 -2.5 -31.1 -2.4 -31.3 -2.4 -31.4 -2.2 -31.55 -2.1 -31.65 -1.85 -31.8 Q-1.6 -31.9 -1.65 -32.15 L-1.6 -32.2 -1.5 -32.3 -1.4 -32.4 -1.15 -32.45 -0.9 -32.5 0.35 -32.35 1.25 -31.95" fill="#d1d0a5" fill-opacity="0.3019608" fill-rule="evenodd" stroke="none"/>
    <path d="M1.45 -31.05 L1.65 -31.15 1.85 -31.3 2.05 -31.45 2.25 -31.6 2.5 -31.65 1.95 -32.45 Q0.7 -33.75 -1.4 -33.75 L-2.2 -33.15 -3.7 -31.05 -3.45 -31.0 -3.15 -30.85 Q-0.95 -30.45 1.2 -30.9 L1.35 -31.0 1.45 -31.05 M3.35 -32.7 L3.5 -32.65 4.1 -31.65 5.25 -29.1 6.1 -26.1 6.4 -24.6 6.4 -24.4 6.7 -22.6 Q7.05 -20.25 7.05 -17.95 L6.9 -12.6 6.75 -10.45 6.65 -9.9 6.5 -9.4 6.35 -8.85 5.8 -6.8 Q4.4 -2.6 2.25 1.25 L1.1 3.55 0.35 5.75 -0.15 8.1 -0.2 9.0 Q-0.25 11.2 0.1 13.15 0.55 15.75 1.5 18.2 L2.15 20.9 2.3 22.55 Q2.55 25.75 2.1 29.0 1.7 31.75 0.75 34.25 L-0.1 35.45 -0.2 34.9 0.85 32.7 1.4 30.05 1.7 26.6 Q1.85 23.9 1.5 21.0 L1.2 19.25 0.7 17.5 Q-0.85 13.05 -0.9 8.25 L-1.15 8.25 Q-2.1 8.8 -2.4 9.75 L-2.4 9.95 -2.35 10.65 Q-2.25 13.15 -1.5 15.7 L0.1 20.45 0.45 22.0 0.8 25.5 Q1.3 30.5 -0.35 35.2 -0.6 35.9 -1.25 36.0 L-1.3 35.9 -0.35 33.65 -0.35 33.5 -0.25 33.7 Q0.25 31.4 0.35 29.05 0.5 26.5 0.15 23.95 -0.1 21.95 -0.7 20.1 -1.9 16.45 -2.7 12.85 L-2.9 10.4 Q-2.8 8.8 -3.65 7.15 L-4.1 7.65 -4.8 8.95 -4.9 9.35 -4.9 9.55 -4.85 9.95 Q-4.3 14.55 -2.35 18.85 -1.7 20.2 -1.4 21.75 L-0.75 25.3 Q-0.15 29.15 -1.05 33.0 L-1.5 35.05 Q-1.7 35.85 -2.4 35.9 L-2.45 35.7 -2.3 35.3 -2.2 35.05 -1.75 34.15 Q-1.1 32.75 -1.15 31.4 L-1.15 28.95 Q-1.0 25.8 -1.75 22.85 L-2.55 19.95 -3.4 17.4 Q-5.1 13.1 -5.8 8.55 L-6.15 8.3 -6.4 9.3 -6.4 9.45 Q-5.9 10.95 -5.65 12.6 -5.15 15.9 -3.7 18.9 -2.95 20.4 -2.55 22.05 L-2.15 24.1 -1.75 27.5 Q-1.55 29.95 -2.0 32.45 L-2.6 35.2 Q-2.75 35.9 -3.4 36.0 L-3.35 35.6 -2.65 33.5 -2.3 32.05 Q-1.95 28.45 -2.55 24.8 -2.9 22.65 -3.65 20.5 L-4.4 18.7 Q-5.95 15.55 -6.45 12.3 L-6.85 9.45 -6.85 9.3 -6.9 9.05 -6.95 8.05 -6.95 7.7 -6.9 5.65 Q-6.7 2.5 -5.65 -0.2 L-3.9 -4.7 -3.55 -5.9 -3.5 -6.2 -3.25 -7.0 -2.9 -8.8 -2.7 -12.55 Q-2.75 -15.1 -3.8 -18.2 L-4.85 -21.3 -5.35 -23.05 -5.5 -23.9 -5.55 -25.75 -5.4 -28.3 Q-5.2 -29.8 -4.6 -31.15 L-4.65 -31.2 -4.6 -31.3 -4.55 -31.3 -4.55 -31.35 -3.0 -33.85 -2.8 -34.05 -2.0 -34.65 -0.05 -34.8 1.85 -33.95 3.0 -32.8 3.35 -32.7 M2.05 -30.45 L2.0 -30.4 1.85 -30.4 1.7 -30.35 1.75 -30.3 1.75 -30.2 Q3.0 -26.25 3.6 -22.15 L3.65 -22.2 3.8 -22.15 3.85 -21.95 3.65 -21.75 3.75 -20.95 3.85 -20.85 3.9 -20.75 3.85 -20.7 3.75 -20.65 3.85 -19.45 4.0 -16.55 3.95 -13.75 3.95 -13.45 3.8 -12.0 3.8 -11.55 Q3.75 -8.6 2.85 -5.95 2.0 -3.55 0.75 -1.3 L-0.4 1.1 -0.2 1.05 -0.5 1.3 -0.65 1.5 -1.05 2.2 -0.8 2.2 -0.65 2.3 -0.55 2.35 -0.45 2.45 -0.4 2.55 -0.35 2.65 -0.3 2.75 -0.4 2.75 -0.7 2.6 -0.8 2.55 -1.25 2.55 -1.3 2.55 -1.45 2.85 -1.1 2.95 -0.65 3.2 -0.85 3.4 -1.0 3.45 -1.6 3.25 -1.65 3.25 -2.0 4.7 -2.05 4.9 Q-2.55 6.85 -2.45 9.05 L-2.15 8.5 -1.8 7.95 -1.45 7.55 -1.1 7.45 -1.0 7.45 -0.45 6.0 0.3 3.8 1.4 1.1 2.25 -0.55 3.85 -3.85 5.0 -7.4 5.7 -10.3 6.05 -13.45 6.15 -16.65 6.05 -19.25 5.85 -21.05 5.65 -22.6 Q5.6 -24.3 5.15 -25.8 L4.05 -29.45 3.15 -31.2 2.45 -30.7 2.05 -30.45 M0.5 -30.05 L0.4 -30.0 -0.7 -29.9 -1.6 -29.8 Q-2.0 -26.75 -1.65 -23.85 L-1.65 -23.25 -1.6 -22.0 -1.6 -21.8 -1.35 -20.65 -0.3 -17.3 -0.3 -17.15 -0.2 -16.4 -0.1 -15.35 -0.1 -15.15 0.0 -11.65 -0.05 -9.75 0.0 -9.85 0.4 -9.85 0.4 -9.9 0.75 -9.85 1.0 -9.8 1.1 -9.7 1.15 -9.65 Q0.85 -9.35 0.4 -9.45 L-0.1 -9.55 -0.15 -8.9 0.0 -8.9 0.3 -8.75 0.65 -8.65 0.75 -8.55 0.75 -8.5 0.7 -8.35 0.6 -8.3 0.5 -8.3 0.25 -8.3 0.05 -8.35 -0.1 -8.4 -0.2 -8.35 Q-0.5 -6.3 -1.4 -4.45 L-2.85 -1.65 -2.2 -3.75 -1.45 -5.95 Q-0.95 -7.45 -0.7 -9.0 L-0.4 -11.4 -0.45 -13.35 -0.75 -16.1 -1.45 -19.75 -2.0 -22.55 -2.2 -24.25 -2.3 -27.3 Q-2.35 -28.75 -1.9 -29.9 L-2.1 -29.95 -2.4 -30.0 -3.6 -30.4 -3.9 -30.5 Q-4.45 -28.75 -4.6 -26.75 L-4.65 -25.1 -4.65 -23.75 Q-4.65 -23.0 -4.05 -21.6 L-3.05 -18.95 Q-2.25 -16.7 -2.1 -14.75 L-2.0 -12.1 -1.9 -10.05 Q-1.7 -8.7 -2.55 -5.95 L-2.6 -5.75 -2.6 -5.65 -2.65 -5.5 -3.0 -4.75 -3.1 -4.5 -3.35 -3.95 -4.95 0.2 -5.25 1.15 -6.15 5.35 -6.4 8.05 -6.3 7.85 -6.15 7.65 -5.6 7.6 -5.5 7.65 -5.25 8.15 Q-5.15 6.15 -4.7 4.2 L-3.85 0.95 -3.1 -1.0 -3.0 -1.2 -3.0 -0.75 -3.05 -0.45 -3.1 -0.2 -3.5 1.1 -3.9 2.3 -4.25 3.6 -4.5 4.85 -4.75 7.75 -4.15 7.0 -3.75 6.7 -3.45 6.75 -2.95 7.65 -2.85 6.25 Q-2.65 4.4 -1.65 2.45 L-1.7 2.45 -1.8 2.4 -1.8 2.3 -1.7 2.25 -1.6 2.15 -1.5 2.15 0.55 -2.1 Q2.0 -5.2 2.95 -8.8 L3.3 -10.55 3.4 -11.65 3.4 -11.9 3.4 -12.05 3.35 -12.65 3.35 -12.95 3.4 -13.25 3.45 -13.15 3.55 -15.55 3.45 -17.75 3.3 -19.85 3.25 -20.7 3.2 -20.7 3.25 -20.75 3.15 -21.5 2.85 -21.4 Q2.55 -21.3 2.5 -21.55 L2.5 -21.65 2.55 -21.75 2.6 -21.85 3.1 -22.05 2.8 -24.0 2.4 -26.1 1.95 -28.1 1.4 -30.2 0.5 -30.05 M0.8 9.95 L0.8 9.9 1.3 9.9 1.25 9.95 1.2 10.05 1.05 10.15 0.9 10.05 0.8 9.95 M-3.9 9.85 L-3.75 9.85 -3.85 9.9 -3.9 9.85 M-1.2 9.95 L-1.35 10.05 -1.5 9.95 -1.6 9.9 -1.6 9.85 -1.1 9.85 -1.15 9.9 -1.2 9.95" fill="#333333" fill-rule="evenodd" stroke="none"/>
  </g>
</svg>
