<?xml version="1.0" encoding="UTF-8" standalone="no"?>
<svg xmlns:xlink="http://www.w3.org/1999/xlink" height="25.65px" width="11.0px" xmlns="http://www.w3.org/2000/svg">
  <g transform="matrix(1.0, 0.0, 0.0, 1.0, 9.05, 110.5)">
    <path d="M1.45 -109.95 L1.65 -110.0 1.85 -110.0 1.9 -110.0 1.95 -109.85 1.8 -109.65 1.7 -109.55 1.65 -109.45 1.3 -109.25 1.25 -109.2 1.0 -109.15 0.75 -109.1 0.65 -109.2 0.6 -109.3 1.0 -109.6 1.3 -109.75 1.35 -109.85 1.45 -109.9 1.45 -109.95 M0.6 -110.3 Q0.4 -110.15 0.1 -110.3 L0.2 -110.4 0.25 -110.45 0.35 -110.5 0.55 -110.45 0.6 -110.3 M-9.05 -86.8 L-8.95 -86.85 -8.85 -86.95 -8.75 -86.95 -8.6 -87.0 -7.4 -86.8 -6.6 -86.55 -6.45 -86.4 -6.5 -86.35 -6.6 -86.25 -6.75 -86.15 -7.95 -86.25 -9.05 -86.7 -9.05 -86.8 M-7.05 -85.15 L-7.05 -85.05 -7.2 -84.85 Q-7.8 -84.8 -8.25 -85.15 L-8.35 -85.5 -8.25 -85.6 -8.15 -85.65 -7.9 -85.55 -7.75 -85.55 -7.5 -85.45 Q-7.25 -85.4 -7.1 -85.2 L-7.05 -85.15" fill="#333333" fill-rule="evenodd" stroke="none"/>
  </g>
</svg>
