<?xml version="1.0" encoding="UTF-8" standalone="no"?>
<svg xmlns:xlink="http://www.w3.org/1999/xlink" height="106.4px" width="27.5px" xmlns="http://www.w3.org/2000/svg">
  <g transform="matrix(1.0, 0.0, 0.0, 1.0, 13.75, 53.2)">
    <path d="M2.5 -52.2 Q3.15 -51.7 3.85 -51.35 L5.95 -50.3 6.15 -50.1 6.3 -49.95 6.5 -49.75 6.6 -49.55 6.7 -49.4 6.8 -49.2 7.15 -48.8 7.4 -48.45 7.7 -47.9 7.8 -47.7 7.8 -47.5 7.8 -47.3 7.8 -47.1 7.8 -46.95 7.75 -46.75 8.8 -45.65 9.75 -44.45 10.2 -43.35 Q10.15 -39.8 11.55 -36.55 12.4 -34.55 12.5 -32.3 L12.45 -25.55 12.5 -25.5 Q12.75 -25.35 13.0 -25.3 L13.3 -25.1 13.45 -24.95 13.55 -24.75 13.65 -24.55 13.7 -24.35 13.7 -24.2 13.7 -24.0 13.7 -23.8 13.2 -22.7 12.65 -21.55 11.95 -19.7 11.95 -19.1 11.85 -18.2 11.65 -17.65 11.45 -16.85 11.45 -16.7 11.45 -16.5 11.45 -16.3 11.45 -16.1 11.45 -15.95 11.4 -15.75 11.3 -15.55 11.25 -15.4 11.0 -15.0 10.95 -14.6 10.95 -14.05 10.95 -13.5 10.95 -13.1 10.95 -12.55 10.35 -10.7 9.65 -8.05 8.95 -5.8 8.95 -5.6 8.95 -5.45 8.95 -5.25 8.95 -5.05 8.95 -4.85 8.9 -4.7 8.8 -4.5 8.75 -4.3 8.7 -4.1 8.7 -3.95 8.7 -3.75 8.7 -3.55 8.65 -3.35 8.55 -3.2 8.45 -3.0 8.45 -2.8 8.45 -2.6 8.4 -2.45 8.3 -2.25 8.2 -2.05 7.95 -1.7 7.9 -1.5 7.85 -1.3 7.75 -1.1 7.7 -0.95 7.7 -0.75 7.7 -0.55 7.7 -0.35 7.7 -0.2 7.65 0.0 7.55 0.2 7.5 0.4 7.35 0.55 7.15 0.75 7.05 0.8 7.05 1.65 7.05 1.75 6.75 3.05 6.4 4.35 6.4 4.45 6.4 4.65 6.3 4.95 6.3 5.2 6.3 5.7 6.3 5.85 6.25 5.95 6.25 6.05 6.15 6.25 6.15 6.35 6.25 6.55 6.3 6.7 6.3 6.8 6.3 6.9 6.3 7.1 6.15 7.25 5.75 7.65 5.5 7.7 5.25 7.65 5.15 7.55 4.95 7.35 4.85 7.25 4.8 7.2 4.75 7.1 4.45 6.8 4.1 6.45 4.05 6.45 3.85 6.5 3.45 7.0 3.05 7.45 2.95 7.5 2.75 7.55 Q2.35 7.5 2.1 7.2 L1.85 7.0 1.65 6.75 1.45 6.2 1.45 6.1 1.35 6.0 1.3 5.9 1.3 5.8 1.3 5.6 1.3 5.45 1.25 5.35 1.2 5.25 1.2 5.15 1.2 5.05 1.2 4.95 1.15 4.85 1.1 4.75 1.05 4.6 0.5 4.55 -1.15 6.35 -1.4 6.65 -1.45 6.8 -1.5 7.0 -1.5 7.35 -1.45 7.85 -1.45 7.95 -1.5 8.0 -1.55 8.1 -1.6 8.2 Q-1.9 8.4 -2.25 8.4 L-2.65 8.4 -2.75 8.3 -2.85 8.2 -2.85 8.1 -2.9 8.0 -2.9 7.95 -2.9 7.85 -3.0 7.65 -3.15 7.45 -3.2 7.35 -3.2 7.25 -3.2 7.2 -3.2 7.1 -3.25 7.0 -3.3 6.9 -3.3 6.85 -3.55 6.35 -3.55 6.3 -3.75 6.25 -4.0 6.05 -4.2 5.9 -4.2 5.85 -4.25 5.85 -4.45 6.0 -4.55 6.1 -4.55 6.2 -4.6 6.3 -4.65 6.4 -4.65 6.5 -4.65 6.6 -4.7 6.75 -4.8 6.85 -4.9 6.95 -5.15 7.0 -5.4 6.95 -5.55 6.85 -5.65 6.75 -5.65 6.7 -5.7 6.5 -5.7 6.3 -5.7 6.2 -5.75 6.1 -5.8 6.0 -5.8 4.8 -5.8 3.5 -5.8 3.4 -5.85 3.3 -5.9 3.1 -6.0 2.45 -6.4 1.5 -6.4 1.35 -6.4 0.95 -6.35 0.7 -6.35 0.65 -6.45 0.45 -6.55 0.05 -6.7 -0.3 -6.85 -0.7 -6.85 -0.85 -6.85 -1.25 -6.85 -1.6 -6.85 -2.0 -6.8 -2.1 -7.05 -2.25 -7.1 -2.35 -7.15 -2.45 -7.15 -2.55 -7.15 -2.65 -7.15 -2.75 -7.6 -3.95 -7.9 -5.25 Q-8.0 -6.15 -8.45 -6.95 L-9.2 -8.75 -9.2 -8.8 -9.2 -8.9 -9.2 -9.0 -9.15 -9.1 -9.05 -9.2 -8.95 -9.3 -8.85 -9.3 -9.6 -11.0 -9.65 -11.2 -9.7 -11.35 -9.75 -11.55 -9.95 -11.75 -10.05 -11.95 -10.1 -12.1 -10.2 -12.3 -10.2 -12.5 -10.2 -12.7 -10.2 -12.85 -10.35 -13.25 -10.55 -13.8 -10.75 -14.35 -10.85 -14.75 -10.95 -14.95 -10.95 -15.1 -10.95 -15.3 -10.95 -15.5 -10.95 -15.7 -11.0 -15.85 -11.05 -16.05 -11.1 -16.25 -11.2 -16.45 -11.2 -16.6 -11.2 -17.0 -11.2 -17.35 -11.2 -17.75 -11.2 -17.95 -11.25 -18.1 -11.3 -18.3 -11.35 -18.5 -11.45 -18.7 -11.45 -18.85 -11.45 -19.05 -11.45 -19.25 -11.55 -19.45 -11.6 -19.6 -11.7 -19.8 -11.7 -20.0 -11.7 -20.2 -11.7 -20.35 -11.75 -20.55 -11.8 -20.75 -11.85 -20.95 -11.95 -21.1 -11.95 -21.5 -11.9 -22.05 -12.0 -22.65 -12.1 -23.0 -12.2 -23.35 -12.2 -24.85 -12.2 -26.35 -12.2 -28.8 -12.1 -29.0 -12.0 -29.2 -11.95 -29.35 -11.95 -30.85 -11.95 -32.55 -11.95 -35.2 -11.85 -35.35 -11.8 -35.55 -11.7 -35.75 -11.5 -35.95 -11.25 -36.1 -11.2 -36.3 -11.2 -36.7 -11.2 -37.05 -11.2 -37.45 -10.85 -38.35 -10.55 -39.3 -10.2 -40.6 -9.95 -41.35 -9.95 -41.55 -9.95 -41.75 -9.95 -41.95 -9.9 -42.3 -9.85 -42.5 -9.75 -42.7 -9.55 -42.85 -9.35 -43.05 -8.95 -44.55 -8.3 -46.25 -7.2 -48.3 -5.85 -49.6 -4.0 -50.95 -3.25 -51.45 -3.1 -51.5 -2.75 -51.55 -2.35 -51.5 0.5 -52.2 1.0 -52.3 1.75 -52.3 2.5 -52.2 M0.2 -5.45 L-0.1 -4.75 0.45 -5.55 0.7 -6.2 0.2 -5.45 M2.85 4.6 L2.9 4.7 2.9 4.8 2.9 4.9 2.9 5.0 3.0 5.2 3.1 5.45 3.15 5.4 3.2 5.3 3.25 5.2 3.35 5.1 3.3 4.75 3.3 4.55 2.85 4.6 M-1.5 -14.5 L-1.6 -14.1 -1.75 -13.55 -1.4 -13.95 Q-1.1 -14.5 -1.4 -14.5 L-1.5 -14.5" fill="#ffffff" fill-rule="evenodd" stroke="none"/>
    <path d="M4.15 -50.7 L4.95 -50.35 5.05 -50.2 5.15 -50.0 5.2 -49.8 5.15 -49.65 5.15 -49.45 5.15 -49.25 5.2 -49.05 5.2 -48.85 5.2 -48.7 5.15 -48.5 5.05 -48.3 4.9 -48.15 4.7 -47.95 4.25 -47.8 3.8 -47.95 3.55 -48.15 3.45 -48.25 3.45 -48.3 3.0 -48.25 2.9 -48.1 2.75 -47.85 2.55 -47.75 2.2 -47.6 2.0 -47.45 1.8 -47.3 Q0.15 -46.9 -1.45 -47.35 L-1.6 -47.55 -1.75 -47.75 -1.85 -47.95 -2.1 -48.15 -2.3 -48.3 -2.5 -48.5 -2.55 -48.7 -2.6 -48.9 -2.6 -49.05 -2.6 -49.25 -2.6 -49.6 -2.55 -49.8 -2.5 -50.0 -2.3 -50.2 -2.1 -50.35 -1.95 -50.5 3.5 -50.95 4.15 -50.7" fill="#d1d0a5" fill-opacity="0.3019608" fill-rule="evenodd" stroke="none"/>
    <path d="M0.75 -52.7 L0.75 -52.75 1.1 -52.65 1.25 -52.55 Q2.6 -52.85 3.7 -52.1 L5.2 -51.05 6.1 -50.65 6.4 -50.5 6.6 -50.1 6.7 -49.95 6.75 -49.75 6.75 -49.35 6.7 -49.2 6.55 -49.0 6.45 -48.8 6.2 -48.6 5.75 -48.5 5.2 -48.6 4.9 -48.8 4.65 -48.8 4.45 -48.7 4.3 -48.6 4.0 -48.55 3.55 -48.7 3.45 -48.55 3.35 -48.4 3.25 -48.2 3.0 -48.0 2.8 -47.85 2.5 -47.8 2.05 -47.95 1.9 -48.05 0.75 -47.85 0.3 -48.0 0.1 -48.2 -0.05 -48.35 -0.1 -48.75 -0.1 -48.95 -0.15 -49.3 -0.05 -49.85 0.05 -50.05 0.25 -50.25 0.45 -50.45 0.0 -50.65 -0.25 -50.8 -0.45 -51.2 -0.5 -51.4 -0.5 -51.55 -0.5 -51.75 -0.4 -51.95 -0.3 -52.1 -0.2 -52.3 0.05 -52.5 0.3 -52.6 0.45 -52.65 0.75 -52.7" fill="#d1d0a5" fill-opacity="0.3019608" fill-rule="evenodd" stroke="none"/>
    <path d="M5.25 -45.05 Q7.6 -39.85 8.3 -34.2 8.85 -29.55 8.75 -24.8 L7.6 -20.9 6.25 -16.75 6.35 -16.6 6.5 -16.35 6.65 -16.2 6.7 -16.0 6.75 -15.8 6.75 -15.6 6.75 -15.25 6.75 -14.7 6.75 -14.5 Q5.65 -10.45 5.5 -6.25 5.35 -2.25 4.0 1.45 L4.0 1.65 4.0 1.8 3.95 2.0 3.85 2.2 3.75 2.4 3.55 2.55 3.25 2.75 3.25 2.95 3.25 3.3 3.25 3.9 3.25 4.25 3.2 4.45 3.15 4.65 3.05 4.8 2.9 5.0 2.75 5.1 2.6 5.15 2.15 5.25 2.0 5.35 1.9 5.45 0.45 5.7 0.3 5.8 0.15 6.0 -0.35 6.35 -0.75 6.5 -1.25 6.35 -1.95 6.0 -2.05 5.8 -2.2 5.65 -2.5 5.5 -2.95 5.4 -3.1 5.2 -3.4 4.85 -3.45 4.25 -3.3 4.15 -3.25 4.1 -3.0 4.0 -2.5 4.0 -2.05 3.95 -1.75 3.9 -1.35 3.9 -1.3 3.85 -1.25 3.7 -1.25 3.55 -1.75 3.4 -2.0 3.2 -2.1 3.0 -2.2 2.8 -2.25 2.65 -2.25 2.45 -2.25 2.25 -2.25 2.05 -2.2 1.9 -2.05 1.5 -1.85 0.95 -1.75 0.75 -1.75 0.55 -1.75 0.4 -1.75 0.2 -1.75 0.0 -1.5 -1.15 -0.9 -2.8 -0.75 -3.2 -0.75 -3.55 -0.75 -4.3 -0.75 -4.85 0.2 -9.9 Q0.7 -12.5 2.0 -14.8 2.4 -17.85 3.5 -20.7 L5.25 -26.05 5.25 -28.1 5.25 -30.95 5.25 -31.1 Q5.1 -31.4 5.1 -31.7 L4.9 -32.8 4.75 -33.35 4.75 -33.55 4.75 -33.95 4.75 -34.5 4.75 -34.85 4.65 -35.25 4.45 -36.0 4.25 -36.75 4.25 -36.95 4.25 -37.1 4.25 -37.5 4.25 -37.7 4.2 -37.85 4.15 -38.05 4.05 -38.25 4.0 -38.45 4.0 -38.6 4.0 -38.8 4.0 -39.2 4.0 -39.55 3.4 -41.5 Q3.1 -42.85 2.3 -44.05 L2.25 -44.25 2.25 -44.45 2.25 -44.8 2.25 -45.2 2.35 -45.35 2.45 -45.55 2.55 -45.75 2.5 -45.95 2.45 -46.1 2.35 -46.3 2.25 -46.5 2.25 -46.7 2.25 -46.85 2.25 -47.25 2.3 -47.45 2.45 -47.6 2.65 -47.8 2.9 -47.95 3.25 -47.95 3.25 -48.0 3.75 -47.95 4.2 -47.85 4.45 -47.7 4.55 -47.5 4.8 -47.15 5.2 -46.55 5.25 -46.35 5.25 -46.0 5.25 -45.45 5.25 -45.05" fill="#d1d0a5" fill-opacity="0.3019608" fill-rule="evenodd" stroke="none"/>
    <path d="M-6.7 -42.5 L-6.6 -42.35 -6.95 -40.9 -7.35 -39.55 -7.4 -39.35 -7.35 -39.2 -7.3 -39.0 Q-8.25 -35.25 -8.05 -31.3 L-7.85 -25.5 -7.85 -25.3 -7.7 -24.95 -7.6 -24.75 -7.6 -24.35 -7.6 -24.0 -7.6 -23.8 -7.55 -23.6 -7.45 -23.25 -7.35 -23.05 -7.35 -22.7 -7.35 -22.3 -7.35 -22.1 -7.25 -21.95 -6.95 -21.55 -6.9 -21.2 -6.85 -20.8 -6.85 -20.6 -6.75 -20.25 -6.65 -19.85 -6.6 -19.7 -6.65 -18.9 -6.35 -18.2 -6.35 -18.0 -6.35 -17.8 -6.3 -17.6 -6.25 -17.45 -6.2 -17.25 -6.2 -16.85 -6.2 -16.5 -6.2 -16.3 -5.4 -13.45 -4.7 -11.45 -4.7 -9.95 -4.6 -8.45 -4.65 -8.25 -4.75 -7.9 -4.85 -7.7 -4.05 -5.4 -3.35 -3.55 -3.35 -3.0 -3.4 -2.45 -3.45 -2.25 -2.8 0.2 -2.2 2.05 -2.15 4.1 -2.3 6.2 -3.0 6.65 -3.45 6.8 -3.6 6.95 -4.0 7.2 -4.45 7.05 -4.55 6.9 -4.65 6.7 -4.7 6.5 -4.8 6.3 -5.0 6.15 -5.1 5.0 -5.05 3.7 -5.1 3.5 -5.2 3.3 -5.25 3.15 -5.25 2.75 -5.25 2.4 -5.25 2.2 -5.3 2.0 -5.45 1.65 -5.5 1.45 -5.5 0.3 -5.5 -0.8 -6.2 -3.25 Q-6.4 -4.3 -7.05 -5.1 L-7.1 -5.3 -7.1 -5.5 -7.1 -5.7 -8.45 -8.9 -9.35 -11.1 -9.35 -11.5 -9.35 -12.05 -9.35 -12.25 -9.5 -12.6 -9.8 -13.2 -9.9 -13.75 -9.85 -14.3 -9.85 -14.5 -10.1 -14.85 -10.35 -15.25 -10.4 -19.35 -10.25 -22.95 -9.9 -23.2 -9.45 -23.45 -9.4 -23.55 -9.35 -23.95 -9.35 -24.1 -9.4 -24.3 -9.55 -24.7 -9.6 -24.85 -9.6 -30.7 -9.55 -35.55 -9.0 -37.6 -8.6 -39.3 -8.5 -39.5 -8.3 -39.7 -7.85 -41.4 Q-7.65 -42.35 -7.0 -42.7 L-6.7 -42.5" fill="#d1d0a5" fill-opacity="0.3019608" fill-rule="evenodd" stroke="none"/>
    <path d="M6.05 -43.75 L6.55 -43.35 9.35 -39.35 Q10.6 -37.3 11.05 -34.95 L11.15 -34.75 11.3 -34.55 11.5 -34.35 11.6 -34.2 11.7 -34.0 11.75 -33.8 11.75 -33.45 11.75 -33.05 11.75 -32.5 11.75 -32.3 12.05 -31.35 12.25 -30.05 12.25 -29.1 13.1 -24.05 Q13.3 -20.65 11.75 -17.7 L11.75 -17.5 11.75 -17.3 11.75 -17.1 11.75 -16.95 11.75 -16.75 10.95 -13.15 Q10.35 -10.8 9.05 -8.7 L8.95 -8.5 8.35 -4.95 Q7.9 -2.5 6.75 -0.25 L6.7 -0.05 6.7 0.15 6.7 0.3 6.7 0.5 6.7 0.7 6.6 1.05 6.5 1.45 6.45 1.8 6.4 2.0 6.4 2.4 6.4 2.75 6.4 3.15 6.4 3.3 6.3 3.5 6.25 3.7 6.2 3.9 6.15 4.05 6.15 4.45 6.15 4.8 6.15 5.4 6.15 5.55 6.05 5.75 6.0 5.95 5.9 6.15 5.25 6.4 4.05 6.55 3.75 6.65 3.3 6.5 3.1 6.3 2.95 6.15 2.9 5.95 2.9 5.75 2.9 5.4 2.9 5.0 3.2 4.05 3.45 2.75 3.5 2.0 3.55 1.8 3.65 1.65 3.75 1.25 3.9 0.9 3.9 -0.6 3.9 -2.5 3.9 -3.45 3.95 -3.6 4.0 -3.8 4.05 -4.0 4.15 -4.2 4.2 -4.35 4.3 -4.55 4.5 -4.75 4.6 -4.95 4.7 -5.1 4.85 -5.3 5.05 -5.5 5.5 -5.7 5.6 -7.0 Q5.55 -7.95 5.75 -8.9 L5.8 -9.8 7.0 -13.7 7.8 -18.8 7.8 -19.0 7.9 -19.2 7.9 -19.4 7.95 -19.55 8.0 -19.75 8.05 -19.95 8.05 -20.1 8.05 -20.3 8.05 -20.5 8.05 -20.7 8.15 -20.85 8.25 -21.05 8.45 -21.25 8.55 -21.45 8.55 -22.75 8.55 -24.45 8.55 -25.35 8.5 -25.55 8.4 -25.75 8.3 -25.95 8.25 -26.1 8.0 -30.85 Q7.75 -33.8 7.75 -36.8 L7.75 -37.35 7.8 -37.55 7.9 -37.75 7.95 -37.95 7.1 -39.45 Q6.2 -40.4 5.45 -41.5 L5.25 -41.65 4.8 -41.8 4.65 -42.0 4.45 -42.2 4.25 -42.35 4.0 -42.55 3.9 -42.75 3.8 -42.95 3.75 -43.15 3.75 -43.3 3.75 -43.5 3.85 -43.7 3.95 -43.85 4.15 -44.05 4.4 -44.15 4.75 -44.2 4.75 -44.25 5.0 -44.25 5.5 -44.1 6.05 -43.75" fill="#d1d0a5" fill-opacity="0.3019608" fill-rule="evenodd" stroke="none"/>
    <path d="M8.95 -34.3 L9.05 -34.1 9.15 -33.95 9.2 -33.75 9.25 -33.55 9.25 -33.35 9.25 -33.2 9.35 -33.0 9.45 -32.8 9.55 -32.45 9.75 -31.85 9.9 -31.7 10.2 -31.5 10.45 -31.3 11.35 -29.05 Q12.15 -27.4 12.05 -25.5 L12.0 -24.35 11.95 -24.2 11.85 -24.0 11.7 -23.6 11.5 -23.25 11.45 -23.05 11.5 -22.7 11.5 -21.95 11.5 -21.75 11.45 -21.55 11.4 -21.35 11.3 -21.2 11.25 -21.0 11.25 -20.8 11.25 -20.6 11.25 -20.45 11.25 -20.25 10.15 -12.4 Q9.75 -8.85 8.65 -5.45 8.25 -4.15 7.2 -3.2 6.45 1.2 2.2 1.75 L1.1 1.75 Q-1.35 1.3 -3.1 -0.35 L-3.3 -0.75 -3.65 -1.7 -3.8 -2.25 -3.8 -2.45 -4.3 -3.25 -4.95 -4.3 -5.3 -5.25 -5.45 -5.45 -5.6 -5.6 -5.8 -5.8 Q-7.4 -8.4 -7.65 -11.45 -7.95 -15.45 -7.45 -19.3 L-7.5 -20.6 -7.5 -22.1 -7.5 -23.6 -7.4 -24.0 -6.95 -24.95 -6.65 -25.5 -6.55 -25.7 -6.35 -25.85 -6.2 -26.05 -5.8 -26.25 -5.55 -26.45 Q-5.45 -26.55 -5.3 -26.6 L-4.75 -26.75 -4.3 -26.85 Q-3.2 -29.95 -1.15 -32.4 1.45 -35.5 5.25 -36.05 L6.0 -36.0 6.8 -35.75 7.0 -35.55 7.15 -35.35 7.25 -35.2 7.4 -35.1 Q8.05 -35.05 8.55 -34.65 L8.95 -34.3" fill="#d1d0a5" fill-opacity="0.3019608" fill-rule="evenodd" stroke="none"/>
    <path d="M3.9 -51.4 Q2.9 -51.3 2.25 -51.95 L-2.0 -52.05 -4.15 -51.1 Q-5.35 -50.4 -6.25 -49.3 L-6.35 -48.85 -5.1 -48.6 -2.75 -48.35 -0.1 -48.1 3.7 -48.65 6.45 -49.2 4.15 -51.4 3.9 -51.4 M6.75 -50.5 L8.5 -48.35 9.9 -46.05 11.05 -43.55 12.0 -40.9 12.75 -37.9 13.25 -34.65 13.6 -31.35 13.75 -28.05 13.7 -24.65 13.45 -21.2 13.2 -19.5 12.6 -17.2 11.85 -14.0 11.7 -13.4 11.55 -12.8 10.5 -9.65 9.4 -5.9 8.5 -2.2 7.75 1.55 7.35 3.7 5.4 13.85 5.15 17.9 4.6 22.5 3.95 28.1 2.75 39.6 2.3 44.0 2.25 45.35 2.25 45.65 2.25 45.8 Q2.35 48.1 1.9 50.25 L1.55 52.0 1.55 52.2 1.65 52.55 1.65 52.65 1.65 52.75 1.65 52.8 0.65 52.7 0.45 52.65 Q0.1 47.1 0.55 41.5 L0.75 37.3 0.9 33.2 0.95 29.25 1.05 24.65 1.1 22.25 1.3 17.55 1.35 16.35 1.25 16.95 1.2 16.4 Q1.1 13.45 1.55 10.4 L1.5 10.4 1.6 10.05 1.65 9.7 1.8 9.0 0.35 4.9 0.0 5.25 Q-1.2 7.45 -1.35 9.95 L-1.15 12.4 -1.0 14.35 -1.0 15.35 -0.95 17.25 -1.05 16.9 -0.95 22.45 -0.95 22.7 -0.8 26.9 -0.7 28.35 -0.7 29.7 -0.6 32.4 -0.6 32.65 -0.15 39.65 0.0 44.35 0.05 49.05 0.15 53.05 -0.1 53.1 Q-0.4 53.35 -0.6 52.9 L-0.5 52.25 Q-0.85 50.5 -0.8 48.65 L-0.75 45.5 -0.85 41.9 -0.9 39.25 -1.2 33.7 -1.25 31.85 -1.35 28.1 -1.55 24.35 -1.75 20.95 -1.85 17.85 -2.0 14.1 -2.0 11.85 -1.9 11.6 -2.0 11.0 -2.0 10.8 -2.95 9.0 Q-3.4 7.9 -4.15 7.05 -4.4 6.7 -4.5 7.0 L-4.6 7.1 -4.65 7.25 -4.8 8.65 -4.8 10.0 -4.8 11.75 -4.8 11.8 -4.8 11.9 -4.8 11.95 -4.7 12.95 Q-4.0 15.8 -4.2 18.75 L-4.2 18.9 -3.75 25.35 -2.9 32.8 -1.75 43.6 Q-1.25 48.25 -1.05 52.75 L-1.1 53.0 -1.25 53.0 -1.4 52.9 -2.25 48.35 -2.7 42.1 -3.45 33.6 -4.15 27.45 -4.65 22.75 -5.5 12.8 -5.55 11.85 -5.75 10.75 -6.45 7.1 -7.1 3.7 -7.5 1.55 -8.35 -2.2 -9.25 -5.95 -10.45 -9.6 -11.55 -12.75 -11.7 -13.4 -11.8 -14.0 -11.95 -14.85 -12.0 -15.0 Q-13.25 -18.5 -13.55 -22.3 L-13.75 -28.95 -13.6 -31.5 -13.1 -35.55 -12.3 -39.55 -11.35 -42.55 -9.35 -46.85 -8.0 -49.05 Q-6.15 -51.4 -3.45 -52.95 L-2.8 -53.05 Q-0.05 -53.3 2.8 -53.15 L3.65 -52.95 6.75 -50.5 M10.5 -41.55 L9.2 -44.75 7.9 -47.25 7.15 -48.5 6.1 -47.7 4.6 -47.55 Q6.55 -44.0 7.25 -40.0 L7.75 -37.25 Q8.25 -34.4 8.4 -31.25 L8.5 -28.7 8.5 -26.2 8.3 -22.1 7.75 -18.0 7.05 -14.75 6.95 -14.0 6.8 -13.15 6.7 -12.75 6.25 -10.75 6.15 -10.25 6.15 -10.15 6.15 -10.05 6.15 -9.95 6.0 -9.9 5.35 -7.5 4.9 -5.7 3.6 1.75 3.3 3.7 2.75 7.5 3.05 7.05 3.5 6.45 3.6 6.4 3.75 6.35 4.05 6.45 Q5.05 7.35 5.5 8.55 L5.9 6.3 6.4 3.7 6.8 1.6 7.85 -3.25 9.05 -8.05 9.7 -10.5 10.25 -12.45 10.75 -14.0 11.1 -15.3 11.2 -15.7 11.4 -16.9 12.2 -21.7 12.55 -27.75 12.45 -30.35 12.2 -33.65 12.1 -34.55 11.4 -34.75 11.3 -34.8 11.3 -34.9 11.4 -34.95 11.5 -35.05 11.9 -35.1 12.05 -35.1 11.95 -35.75 11.5 -35.65 11.0 -35.5 10.55 -35.65 10.55 -35.75 10.65 -35.8 10.75 -35.9 11.7 -36.25 11.85 -36.3 11.6 -37.55 10.5 -41.55 M3.7 -47.45 L-1.75 -47.2 -3.25 -47.35 -4.3 -45.35 Q-6.05 -41.65 -6.65 -37.65 L-7.2 -31.25 -7.25 -28.8 -7.3 -26.2 -7.15 -23.2 -6.9 -19.55 -6.65 -17.9 -6.2 -15.45 -5.95 -14.0 -5.85 -13.55 -5.05 -10.25 -4.45 -7.8 -3.9 -5.35 Q-2.9 -0.8 -2.2 3.7 L-1.65 7.7 Q-1.3 5.85 -0.1 4.35 0.1 4.1 0.4 4.1 L0.7 4.15 0.9 4.35 2.05 7.3 2.15 6.55 2.6 3.7 2.85 1.85 3.7 -2.9 4.65 -7.8 4.9 -8.7 4.75 -8.65 4.2 -8.9 Q3.85 -8.95 3.65 -9.15 L3.65 -9.25 3.65 -9.35 3.75 -9.45 3.9 -9.5 4.25 -9.55 4.8 -9.35 5.0 -9.2 5.25 -10.25 4.7 -10.4 Q4.3 -10.5 4.2 -10.85 L4.2 -10.9 4.3 -11.05 4.4 -11.05 4.65 -11.1 5.2 -10.9 5.4 -10.8 6.0 -13.55 6.15 -14.0 6.45 -15.45 6.65 -16.65 7.25 -21.45 7.5 -27.5 7.45 -30.05 7.25 -33.45 6.7 -37.6 5.8 -41.6 4.55 -45.35 3.7 -47.45 M4.05 7.2 Q3.05 7.8 2.7 9.2 L2.5 9.55 2.4 9.7 2.15 11.05 2.25 11.2 2.15 13.9 2.1 16.95 1.9 20.1 1.8 22.35 1.7 24.95 1.6 30.5 1.55 34.25 1.4 38.0 1.4 41.7 1.35 44.85 1.2 47.9 1.05 51.4 Q1.6 41.9 2.85 32.45 L3.05 31.0 3.4 26.85 3.7 22.55 3.9 20.15 4.1 17.9 4.45 14.7 Q4.6 13.45 4.9 12.25 4.95 11.35 5.15 10.45 L4.9 9.4 4.05 7.2 M-9.8 -43.5 Q-11.35 -39.75 -11.95 -35.55 L-12.35 -31.45 -12.45 -29.05 -12.65 -26.35 Q-12.8 -24.95 -12.55 -23.3 L-12.1 -20.3 -11.7 -18.15 -11.15 -15.7 -10.7 -14.0 -10.65 -13.85 -9.7 -10.5 -9.65 -10.45 -8.9 -8.05 Q-7.4 -3.3 -6.5 1.6 L-6.1 3.7 -5.45 7.45 -5.45 7.2 -5.4 6.9 -4.5 6.15 -4.4 6.15 -4.25 6.1 -4.0 6.1 -3.45 6.6 -2.4 8.15 -2.55 7.35 -3.05 3.7 -3.65 -0.05 -4.3 -3.8 -5.2 -7.45 -6.05 -10.75 -6.55 -12.7 -6.65 -13.15 -6.75 -14.0 -6.9 -14.75 -7.25 -16.35 -7.8 -20.0 Q-8.3 -24.3 -8.25 -28.7 L-8.15 -31.25 -7.75 -35.3 -7.1 -39.25 -6.45 -42.0 -5.15 -45.75 -4.4 -47.5 Q-5.9 -47.7 -7.3 -48.25 -8.75 -46.0 -9.8 -43.5" fill="#333333" fill-rule="evenodd" stroke="none"/>
  </g>
</svg>
