<?xml version="1.0" encoding="UTF-8" standalone="no"?>
<svg xmlns:xlink="http://www.w3.org/1999/xlink" height="51.35px" width="109.7px" xmlns="http://www.w3.org/2000/svg">
  <g transform="matrix(1.0, 0.0, 0.0, 1.0, 52.95, 26.2)">
    <path d="M0.85 -25.9 L1.0 -25.8 Q3.0 -25.25 5.2 -25.8 6.4 -26.1 7.05 -25.2 8.9 -25.3 10.7 -24.5 L11.15 -24.25 11.6 -24.1 11.85 -24.0 Q17.4 -24.45 22.5 -22.55 L24.65 -21.7 26.0 -20.95 26.7 -20.4 27.4 -20.1 28.35 -19.65 Q29.6 -19.35 30.7 -18.55 31.5 -17.95 32.4 -17.55 L32.85 -17.25 34.6 -16.65 36.0 -16.15 36.25 -16.0 36.4 -15.85 36.5 -15.7 36.8 -15.25 36.9 -15.15 38.55 -14.5 39.5 -13.9 39.75 -13.75 39.85 -13.6 39.95 -13.45 40.0 -13.3 40.15 -13.15 40.3 -13.0 40.6 -12.7 40.7 -12.55 43.7 -10.75 Q44.45 -10.2 44.75 -9.25 L45.3 -8.25 45.75 -7.75 Q46.25 -6.9 47.1 -6.3 L48.1 -5.3 48.65 -4.45 48.9 -3.85 49.05 -3.4 49.15 -2.5 49.25 -2.05 49.3 -1.75 49.45 -1.45 49.65 -1.0 49.75 -0.85 49.85 -0.75 50.0 -0.7 50.7 -0.45 51.85 1.15 53.15 2.9 53.95 3.9 54.35 4.5 54.8 5.15 54.85 5.35 54.9 5.65 55.0 5.8 55.1 5.95 55.25 6.1 55.4 6.25 56.0 8.65 56.15 10.3 56.3 10.9 56.5 11.65 56.65 12.1 56.75 13.0 56.45 13.35 56.3 13.65 56.2 13.95 56.2 14.55 56.2 15.75 56.2 16.5 56.15 16.65 56.1 16.8 56.05 16.95 56.0 17.1 56.0 17.25 56.0 17.4 56.0 17.55 56.0 17.7 56.15 18.05 56.0 18.45 55.95 18.6 55.9 18.75 55.9 18.9 55.9 19.05 55.9 19.35 55.9 19.65 55.85 19.8 55.8 19.95 55.75 20.1 55.65 20.25 51.25 20.45 50.2 20.4 Q47.55 21.1 45.2 22.5 L45.05 22.6 42.6 22.45 41.95 22.2 41.7 22.05 41.55 21.9 41.35 21.8 35.55 22.1 33.45 22.55 33.35 22.7 33.25 22.85 33.15 23.0 Q29.0 23.5 24.8 22.9 L22.75 22.55 22.5 22.4 22.35 22.25 22.2 22.1 Q18.9 22.45 15.9 24.05 14.7 24.65 13.2 24.5 L10.7 24.05 7.15 23.15 6.9 23.0 Q0.25 22.45 -6.05 24.25 L-10.6 25.15 Q-11.15 25.2 -11.65 24.9 -17.5 21.4 -23.9 23.7 -26.25 24.55 -28.45 23.7 L-28.6 23.55 -28.75 23.4 -28.9 23.25 -29.0 23.1 -29.05 22.95 -29.1 22.8 -29.1 22.7 -33.1 22.2 -36.45 22.15 -38.1 22.6 -41.4 23.2 -41.65 23.35 -41.9 23.45 -42.2 23.5 -42.65 23.4 -42.9 23.25 -43.05 23.1 -43.2 22.95 -43.35 23.0 -43.5 23.05 -43.8 23.1 -44.25 23.0 -44.5 22.85 -44.65 22.7 -44.75 22.55 -44.85 22.4 -44.9 22.25 -44.9 22.2 -45.4 22.1 -45.85 22.0 -46.1 21.85 -46.25 21.7 -46.35 21.55 -46.4 21.45 -46.5 21.45 -46.8 21.5 -47.0 21.5 -47.45 21.4 -47.7 21.25 -47.85 21.1 -47.95 20.95 -48.05 20.8 -48.1 20.65 -48.35 20.85 -49.2 21.5 -49.35 21.6 -49.5 21.65 -49.8 21.7 -50.25 21.6 -50.5 21.45 -50.65 21.3 -50.75 21.15 -50.8 21.05 -50.9 21.05 -51.2 21.1 -51.4 21.1 -51.85 21.0 -52.1 20.85 -52.25 20.7 -52.7 20.25 -52.8 20.1 -52.85 19.95 -52.9 19.8 Q-53.0 17.6 -52.75 15.45 -52.55 13.5 -51.85 11.7 -50.65 8.65 -50.0 5.45 -49.7 4.0 -49.05 2.7 -48.4 1.4 -48.05 0.0 L-48.05 -0.15 -48.05 -0.3 -48.05 -0.45 -48.0 -0.6 -47.9 -0.75 -47.8 -0.9 -47.65 -1.05 -47.45 -1.15 -47.05 -1.3 -44.6 -4.6 -43.2 -6.1 -41.6 -8.0 -39.0 -12.1 -38.85 -12.25 -38.65 -12.35 -38.5 -12.4 -38.2 -12.45 -37.8 -12.35 -37.55 -12.2 -37.3 -12.2 -37.15 -12.35 -36.85 -12.65 -36.3 -13.1 Q-35.7 -14.5 -34.55 -15.55 L-31.1 -17.9 -28.9 -19.1 -27.25 -20.0 -27.2 -20.15 -27.15 -20.3 -27.1 -20.45 -27.0 -20.6 -26.85 -20.75 -26.65 -20.9 Q-23.75 -22.05 -20.7 -22.8 L-16.85 -23.85 Q-13.25 -24.9 -9.75 -24.75 L-9.6 -24.6 -9.55 -24.45 -9.45 -24.3 -9.4 -24.05 Q-8.1 -24.15 -6.7 -24.65 L-4.3 -25.3 -2.9 -25.6 -0.2 -26.2 0.2 -26.15 0.85 -25.9 M-42.7 -0.1 L-43.6 1.05 -44.2 1.95 -43.6 2.0 -43.45 1.95 -43.05 0.9 -42.65 -0.1 -42.7 -0.1 M-50.0 13.55 L-50.15 13.55 -50.35 15.05 -50.55 16.25 -50.45 16.2 -50.3 15.9 -50.25 15.75 -50.05 14.55 -49.8 13.65 -50.0 13.55" fill="#ffffff" fill-rule="evenodd" stroke="none"/>
  </g>
</svg>
