<?xml version="1.0" encoding="UTF-8" standalone="no"?>
<svg xmlns:xlink="http://www.w3.org/1999/xlink" height="56.6px" width="109.6px" xmlns="http://www.w3.org/2000/svg">
  <g transform="matrix(1.0, 0.0, 0.0, 1.0, 53.55, 26.6)">
    <path d="M-43.4 -0.5 L-43.25 -0.9 -43.15 -1.25 -43.0 -1.65 -42.75 -2.0 -42.65 -2.4 -42.5 -2.75 -40.85 -5.35 -39.1 -7.6 -37.1 -10.05 -35.15 -12.15 -35.0 -12.5 -34.75 -12.85 -34.35 -13.25 -33.9 -13.65 -33.6 -14.0 -33.25 -14.4 -32.9 -14.75 -32.5 -15.1 -31.5 -15.65 -31.0 -16.0 -30.65 -16.25 -30.0 -16.5 -29.6 -16.85 -29.15 -17.25 -28.9 -17.65 -28.25 -18.0 -27.4 -18.4 -27.0 -18.75 -26.75 -19.0 -25.55 -19.55 -22.9 -20.75 Q-22.1 -21.1 -21.5 -21.75 L-20.75 -22.5 -20.5 -22.7 -19.75 -23.0 -19.4 -23.15 -19.0 -23.25 -18.0 -23.5 -17.5 -23.75 -16.5 -24.0 -16.0 -24.35 -15.5 -24.65 -14.5 -24.9 -14.15 -25.25 -13.85 -25.45 -13.55 -25.55 -13.5 -25.65 -13.0 -25.6 -12.0 -25.45 -11.3 -25.2 -10.5 -24.9 -10.15 -24.5 -10.5 -24.25 -11.0 -24.4 -11.25 -24.5 -12.0 -24.5 -13.0 -24.25 -13.55 -23.9 -14.3 -23.55 -15.4 -23.15 -15.8 -22.75 -16.25 -22.4 -17.5 -21.95 -18.4 -21.6 -19.0 -21.25 -19.4 -20.9 -20.15 -20.5 -20.3 -20.15 -20.5 -19.75 -20.75 -19.4 -21.05 -19.2 -21.75 -18.9 -22.4 -18.5 -22.9 -18.1 -23.25 -17.75 -23.55 -17.55 -24.0 -17.35 -24.75 -17.15 -25.05 -16.75 -25.25 -16.5 -25.5 -16.4 -26.15 -16.15 -26.5 -15.75 -26.85 -15.35 -27.15 -15.0 -27.4 -14.8 -28.0 -14.5 -28.4 -14.15 -30.7 -12.3 -32.65 -9.9 -33.75 -8.5 -34.9 -7.4 -35.0 -7.0 -35.15 -6.65 -35.5 -6.25 -35.9 -5.9 -36.25 -5.5 -36.65 -5.15 -37.4 -4.4 -37.5 -4.0 -37.65 -3.65 -38.0 -3.25 -38.4 -2.9 -38.75 -2.5 -39.0 -2.1 -39.4 -1.4 -39.4 -1.0 -39.5 -0.65 -39.65 -0.25 -39.9 0.1 -40.15 0.5 -40.4 0.85 -40.4 1.25 -40.5 1.6 -40.75 2.0 -41.0 2.4 -41.15 2.75 -41.4 3.1 -41.4 3.85 -41.4 4.25 -41.4 5.0 -41.35 6.1 -41.3 6.5 -41.4 6.85 -41.55 7.25 -41.75 7.6 -41.75 8.0 -41.75 8.35 -41.75 8.75 -41.75 9.1 -41.8 9.5 -41.9 9.85 -42.05 10.25 -42.25 10.6 -42.25 11.35 -42.25 12.1 -42.25 13.6 -42.25 14.35 -42.25 15.1 -42.25 15.85 -42.2 16.25 -42.05 16.65 -41.9 17.0 -41.8 17.4 -41.8 17.75 -41.9 18.1 -42.15 18.5 -42.25 18.9 -42.25 19.25 -42.3 19.6 -42.4 20.0 -42.55 20.35 -42.75 20.75 -43.25 21.15 -43.65 21.5 -44.5 21.75 -45.0 21.75 -45.9 21.5 -46.4 21.1 -46.65 20.75 -46.8 18.1 -46.75 15.85 -46.75 13.6 -46.75 10.6 -46.75 8.75 -46.65 8.35 -46.5 8.0 -46.4 7.6 -46.25 7.25 -46.25 6.85 -46.25 6.5 -46.25 6.1 -46.25 5.75 -46.25 5.35 -46.2 5.0 -46.0 4.6 -45.75 4.25 -45.4 4.0 -45.15 3.85 -44.65 3.6 -44.65 3.25 -44.65 2.85 -44.65 2.5 -44.65 2.1 -44.5 1.75 -44.3 1.35 -44.1 1.0 -43.9 0.6 -43.65 0.25 -43.5 -0.15 -43.4 -0.5" fill="#d1d0a5" fill-opacity="0.3019608" fill-rule="evenodd" stroke="none"/>
    <path d="M-30.4 -6.6 L-30.15 -6.75 -29.5 -7.0 -29.35 -7.35 -29.15 -7.75 -28.9 -8.15 -28.4 -8.5 -27.9 -8.9 -27.35 -9.6 -26.7 -10.4 -26.15 -11.15 -26.0 -11.5 Q-24.55 -13.5 -22.55 -14.95 L-17.6 -18.35 -16.0 -19.15 -14.9 -19.85 -13.65 -20.65 -13.25 -21.0 -12.5 -21.4 -12.0 -21.65 -11.5 -21.75 -10.75 -21.9 -10.5 -22.0 -9.9 -22.25 -9.4 -22.6 -9.0 -22.9 -8.5 -23.0 -7.75 -23.15 -7.05 -23.3 -7.0 -23.4 -6.4 -23.15 -6.0 -22.75 -6.4 -22.1 -7.3 -21.4 -8.15 -21.0 -8.3 -20.65 -8.65 -20.25 -9.0 -20.0 -9.5 -19.85 -10.15 -19.6 -10.5 -19.4 -11.0 -19.25 -11.75 -19.0 -12.1 -18.6 -12.4 -18.25 -12.75 -17.9 -14.5 -16.7 -15.95 -15.7 -16.65 -15.25 -17.0 -14.9 -17.65 -14.5 -18.15 -14.1 -18.5 -13.75 -19.15 -13.4 -19.75 -13.0 -20.15 -12.65 -20.5 -12.25 -21.15 -11.9 -21.75 -11.5 -22.0 -11.15 -22.05 -10.8 -21.8 -10.35 -21.5 -10.0 -21.3 -9.6 -21.15 -9.25 -21.15 -8.9 -21.25 -8.5 -21.4 -8.15 -21.5 -7.75 -22.05 -7.0 -22.65 -6.3 -23.55 -5.15 -23.75 -4.75 -23.9 -4.4 -24.0 -4.0 -24.0 -3.65 -24.4 -2.9 -24.8 -2.15 -25.4 -1.4 -25.75 -1.0 -25.9 -0.65 -26.0 -0.25 -26.15 0.1 -26.65 0.85 -27.3 2.05 -27.95 3.15 -28.15 3.5 -28.15 3.85 -28.3 4.25 -28.5 4.6 -28.6 5.0 -28.65 5.35 -28.65 5.75 -28.75 6.1 -28.9 6.5 -29.15 6.85 -29.25 7.25 -29.4 7.6 -29.5 8.0 -29.5 9.5 -29.5 11.0 -29.7 12.5 -30.0 13.6 -30.0 14.0 -30.0 14.75 -30.0 15.5 -30.05 16.25 -30.15 16.6 -29.9 17.0 -29.5 17.75 -29.3 18.15 -29.1 18.5 -28.9 18.85 -28.75 19.25 -28.65 19.6 -28.5 20.0 -28.65 20.35 -28.75 20.75 -28.9 21.1 -29.25 21.5 -29.5 21.75 -30.5 21.9 -31.75 21.95 -33.0 22.0 -34.0 21.75 -34.5 21.35 -34.75 21.0 -34.9 20.6 -34.95 17.65 -34.85 14.6 -34.9 12.0 -34.9 9.35 -34.25 7.1 -33.75 4.9 -33.5 3.0 -33.5 1.1 -33.25 0.35 -33.0 -0.75 -32.65 -1.9 -32.4 -2.65 -32.15 -3.0 -32.0 -3.4 -31.9 -3.75 -31.9 -4.15 -31.9 -4.5 -31.75 -4.85 -31.5 -5.25 -31.3 -5.65 -31.15 -6.0 -30.75 -6.35 -30.4 -6.6" fill="#d1d0a5" fill-opacity="0.3019608" fill-rule="evenodd" stroke="none"/>
    <path d="M-4.25 -20.8 L-3.5 -21.0 -3.0 -20.85 -2.45 -20.55 -2.25 -20.25 -2.25 -19.9 -2.4 -19.5 -2.55 -19.3 -3.2 -18.9 -3.4 -18.65 -3.4 -18.25 -3.55 -17.9 -3.8 -17.5 -4.15 -17.15 -4.25 -16.75 -4.4 -16.4 -4.65 -15.65 -4.9 -14.9 -4.9 -13.4 Q-4.85 -12.4 -5.1 -11.5 L-5.65 -9.6 -5.75 -9.25 -6.0 -8.85 -6.15 -8.5 -6.4 -8.15 -6.75 -7.0 -6.9 -5.85 Q-7.0 -5.3 -7.25 -4.75 L-7.65 -3.65 -8.65 -2.15 -9.55 -0.6 -10.4 0.85 -10.5 1.65 -10.5 2.35 -10.5 3.1 -10.4 3.85 -10.55 4.25 -10.75 4.65 -10.9 5.0 -11.15 5.35 -11.25 5.75 -11.35 6.15 -11.4 6.5 -11.5 6.85 -11.65 7.25 -11.85 7.65 -12.0 8.0 -11.95 8.35 -11.65 8.75 -11.4 9.15 -11.25 9.5 -11.1 10.6 -11.15 11.75 -11.15 12.85 -11.15 13.6 -11.25 14.0 -11.4 14.35 -11.5 14.75 -11.65 15.1 -11.65 15.5 -11.65 15.85 -11.65 16.25 -11.65 16.6 -11.65 17.0 -11.75 17.35 -11.9 17.75 -12.05 18.1 -12.35 18.5 -12.65 18.85 -12.65 19.25 -12.65 19.6 -12.65 20.35 -12.7 21.1 -12.75 21.5 -12.9 21.85 -13.15 22.25 -13.65 22.6 -13.65 23.0 -13.75 23.35 -13.9 23.75 -14.05 24.1 -14.5 24.5 -14.9 24.75 -15.5 24.85 -16.0 24.85 -16.9 24.6 -17.4 24.25 -17.75 23.85 -17.9 23.5 -18.0 23.1 -18.2 22.95 -18.9 22.6 -19.4 22.25 -19.75 21.85 -19.95 17.75 -19.95 12.85 -19.75 8.35 -19.6 8.0 -19.4 7.6 -19.4 6.5 -19.4 5.0 -19.4 3.5 -19.4 2.75 -19.0 1.25 -18.75 -0.25 -18.4 -2.15 -18.4 -2.5 -18.25 -2.85 -18.05 -3.25 -17.65 -4.0 -17.25 -4.75 -17.15 -5.15 -17.0 -5.5 -16.9 -5.9 -16.75 -6.25 -16.5 -6.65 -16.4 -7.0 -16.25 -7.4 -14.65 -10.5 -12.3 -13.75 -10.4 -15.65 -9.25 -16.0 -8.9 -16.25 -7.85 -17.7 -6.8 -19.35 -5.9 -20.4 -5.0 -20.6 -4.25 -20.8" fill="#d1d0a5" fill-opacity="0.3019608" fill-rule="evenodd" stroke="none"/>
    <path d="M3.35 -22.25 L3.6 -21.9 3.75 -21.5 3.85 -21.15 4.0 -20.75 4.0 -20.4 4.0 -20.0 4.0 -19.65 4.0 -19.25 4.0 -18.9 4.15 -18.5 4.35 -18.15 4.45 -17.75 4.5 -17.4 4.5 -17.0 4.6 -16.65 4.75 -16.25 4.85 -15.9 5.0 -15.5 5.0 -15.15 5.0 -14.75 5.0 -14.4 5.0 -14.0 5.1 -13.65 5.25 -13.25 5.35 -12.9 5.45 -12.5 5.5 -12.15 5.55 -11.8 5.85 -11.35 6.1 -11.0 6.35 -10.65 6.45 -10.25 6.5 -9.9 6.5 -9.5 6.5 -9.15 6.5 -8.75 6.55 -8.4 6.7 -8.0 6.85 -7.65 6.95 -7.25 7.0 -6.9 7.0 -6.5 7.0 -6.15 7.1 -5.75 7.2 -5.35 7.25 -5.0 7.35 -4.65 7.5 -4.25 7.5 -3.9 7.5 -3.5 7.6 -3.1 7.6 -2.75 7.75 -2.4 8.0 -2.0 8.1 -1.65 8.25 -1.25 8.5 -0.9 Q9.1 1.55 9.3 4.0 L9.6 9.6 Q9.7 11.95 9.0 14.1 L9.0 14.5 9.0 14.85 9.0 15.25 9.0 15.6 8.85 16.0 8.6 16.75 8.35 17.5 8.1 18.25 7.85 18.6 7.35 19.4 6.25 20.55 6.0 20.75 5.75 20.85 5.0 20.95 4.5 21.0 3.5 20.75 3.25 20.75 3.2 21.1 3.1 21.5 3.0 21.85 2.7 22.25 2.35 22.6 1.85 23.0 1.0 23.25 0.5 23.25 -0.4 23.0 -0.9 22.6 -1.1 22.25 -1.25 21.85 -4.5 21.45 -5.5 21.25 -6.0 20.85 -6.25 20.5 -6.4 20.1 -6.7 10.35 Q-6.8 5.05 -6.15 -0.15 -5.7 -3.95 -4.65 -7.65 L-4.4 -8.0 -4.25 -8.4 -4.15 -8.75 -4.0 -9.15 -3.8 -9.5 -3.25 -10.6 -2.65 -11.75 -2.25 -12.5 -1.9 -13.6 -1.45 -15.85 -0.9 -17.75 -0.75 -18.15 -0.6 -18.45 -0.3 -18.9 0.0 -19.25 0.0 -19.65 0.0 -20.0 0.0 -20.75 0.1 -21.5 0.3 -21.85 0.6 -22.25 1.1 -22.65 1.95 -22.8 2.0 -22.9 2.85 -22.65 3.35 -22.25" fill="#d1d0a5" fill-opacity="0.3019608" fill-rule="evenodd" stroke="none"/>
    <path d="M1.0 -25.35 L3.25 -25.15 3.6 -24.9 5.0 -24.75 5.6 -24.5 5.95 -24.1 6.2 -23.75 6.25 -23.4 6.1 -23.0 5.85 -22.65 5.5 -22.4 1.75 -22.15 1.5 -22.0 1.0 -21.9 0.25 -22.15 0.0 -22.5 -0.15 -22.9 -0.5 -23.25 -0.8 -23.65 -0.9 -24.0 -0.9 -24.4 -0.85 -24.75 -0.65 -25.15 -0.05 -25.3 0.0 -25.4 1.0 -25.35" fill="#d1d0a5" fill-opacity="0.3019608" fill-rule="evenodd" stroke="none"/>
    <path d="M10.85 -20.75 L11.2 -20.35 11.5 -20.0 11.75 -19.65 11.85 -19.25 11.9 -18.9 12.0 -18.5 12.4 -17.8 12.75 -17.4 13.5 -16.65 14.25 -15.9 15.1 -15.5 16.65 -14.3 18.6 -12.5 20.1 -11.0 20.5 -10.25 20.75 -9.9 21.2 -9.1 21.75 -8.0 22.0 -7.65 22.1 -7.25 22.25 -6.9 22.35 -6.5 22.5 -6.15 22.75 -5.75 24.0 -2.0 25.0 1.35 25.8 5.1 26.5 8.1 26.5 8.5 26.5 8.85 26.5 9.25 26.5 9.6 26.5 10.0 26.6 10.35 26.75 10.75 26.85 11.1 27.0 11.5 27.0 13.0 27.0 15.6 27.0 17.85 27.0 19.35 27.0 19.75 26.85 20.1 26.6 20.5 26.35 20.85 25.85 21.25 25.0 21.5 24.0 21.5 23.0 21.25 22.5 20.85 22.4 20.9 22.35 21.25 22.25 21.6 22.0 22.0 21.75 22.35 21.35 22.6 21.1 22.7 20.5 22.85 19.6 22.6 18.85 22.6 18.1 23.0 17.7 23.35 17.35 23.6 17.1 23.7 16.5 23.85 15.6 23.6 15.1 23.25 14.75 22.85 14.55 21.35 14.6 18.75 14.6 16.85 14.6 15.35 14.75 15.0 14.85 14.6 15.0 14.25 15.1 13.85 14.85 13.65 14.1 13.35 13.75 13.0 13.5 12.6 13.3 11.5 13.35 9.6 13.35 7.35 13.35 5.85 13.25 5.5 13.15 5.1 13.1 4.75 13.0 4.35 12.85 4.0 12.75 2.5 12.2 -0.1 11.75 -2.0 11.35 -3.5 11.35 -3.9 11.35 -4.25 11.15 -5.0 10.95 -5.75 10.6 -7.25 10.5 -9.15 10.5 -9.5 10.35 -9.9 10.25 -10.25 10.1 -10.65 10.0 -11.0 10.0 -11.4 9.5 -12.15 9.0 -12.9 8.25 -14.0 7.6 -15.15 7.5 -15.5 7.35 -15.9 7.1 -16.25 7.0 -16.65 6.85 -17.0 6.6 -17.35 6.25 -17.75 5.85 -18.15 5.55 -18.55 5.35 -18.9 5.25 -19.25 5.25 -19.65 5.25 -20.0 5.5 -20.4 5.75 -20.75 6.1 -21.0 6.35 -21.1 7.0 -21.25 7.5 -21.5 7.75 -21.9 8.45 -22.05 8.5 -22.15 9.1 -21.9 9.35 -21.5 10.35 -21.15 10.85 -20.75" fill="#d1d0a5" fill-opacity="0.3019608" fill-rule="evenodd" stroke="none"/>
    <path d="M15.35 -19.0 L15.0 -19.1 14.1 -19.4 13.6 -19.75 13.3 -20.15 13.1 -20.5 13.1 -20.9 13.15 -21.25 13.25 -21.65 13.4 -22.0 13.6 -22.4 13.5 -22.75 13.5 -23.1 13.6 -23.5 13.85 -23.75 14.0 -23.85 14.45 -23.95 14.5 -24.0 15.25 -23.75 16.1 -23.4 16.6 -23.0 17.0 -22.75 18.75 -22.25 19.6 -22.0 20.1 -21.85 21.35 -21.5 Q24.75 -20.05 27.3 -17.45 L30.7 -13.3 34.35 -8.4 34.5 -8.0 34.75 -7.65 34.85 -7.25 35.0 -6.9 35.1 -6.5 35.15 -6.15 35.25 -5.75 35.4 -5.4 35.6 -5.0 35.75 -4.65 35.95 -4.25 36.1 -3.9 36.5 -3.5 36.85 -3.15 37.2 -2.75 37.45 -2.35 37.6 -2.0 37.7 -1.6 37.75 -1.25 37.75 -0.9 37.75 -0.5 37.75 -0.15 37.75 0.25 38.0 1.0 38.3 2.15 38.7 3.65 39.0 4.75 39.25 5.5 39.35 5.85 39.35 6.6 39.35 7.35 39.35 8.1 39.35 9.6 39.35 10.35 39.25 11.1 39.1 11.5 38.9 11.9 38.7 12.25 38.5 12.6 38.5 13.0 38.5 13.35 38.5 13.75 38.35 14.1 38.25 14.5 38.1 14.85 38.0 15.25 38.0 15.6 38.0 16.0 38.0 16.75 38.0 17.1 38.0 17.85 38.0 18.6 38.0 19.0 37.85 19.35 37.75 19.75 37.55 20.1 37.2 20.5 36.35 21.25 35.85 21.6 35.0 21.85 34.25 21.85 33.85 22.1 33.6 22.2 33.0 22.35 32.1 22.1 31.6 21.75 31.25 21.35 31.15 21.0 31.1 20.6 31.1 20.25 31.1 19.85 31.1 19.5 31.15 19.15 31.25 18.75 31.4 18.4 31.6 18.0 31.6 17.6 31.6 17.25 31.6 16.5 31.6 16.1 31.6 15.35 31.6 14.6 31.75 14.25 32.0 13.85 32.1 13.5 32.25 13.1 32.6 12.75 32.85 12.35 32.95 12.0 33.0 11.6 33.0 11.25 33.0 10.85 33.0 10.5 33.0 10.1 32.75 9.35 32.6 8.65 32.35 7.9 32.05 6.75 32.0 6.0 32.0 5.6 31.85 5.25 31.75 4.85 31.6 4.15 31.5 3.75 31.35 3.35 31.25 3.0 31.0 2.6 30.85 2.25 30.75 1.85 30.6 1.5 30.5 1.1 30.25 0.75 30.1 0.35 30.0 0.0 29.85 -0.4 29.75 -0.75 29.5 -1.15 29.35 -1.5 29.25 -1.9 29.0 -2.25 28.75 -2.65 28.5 -3.0 28.25 -3.4 28.1 -3.75 28.0 -4.15 27.75 -4.5 27.6 -4.85 27.35 -5.25 27.1 -5.65 26.85 -6.0 26.75 -6.4 26.65 -6.75 26.6 -7.1 26.5 -7.5 26.45 -7.85 26.35 -8.25 24.75 -10.4 22.5 -13.05 20.1 -15.5 18.35 -16.5 18.0 -16.9 17.75 -17.25 17.5 -17.65 16.85 -18.0 16.5 -18.4 Q16.15 -18.55 15.85 -18.75 L15.35 -19.0" fill="#d1d0a5" fill-opacity="0.3019608" fill-rule="evenodd" stroke="none"/>
    <path d="M33.6 -16.15 L34.0 -15.9 34.75 -15.65 35.25 -15.25 36.35 -14.5 36.75 -14.25 36.85 -14.25 37.5 -14.35 38.5 -14.4 39.35 -14.15 39.85 -13.75 40.6 -13.0 41.0 -12.65 41.1 -12.25 41.25 -11.9 42.35 -10.75 43.5 -9.65 44.3 -8.5 44.5 -8.15 44.6 -7.75 44.75 -7.4 45.1 -7.0 45.5 -6.65 45.6 -6.25 45.75 -5.9 46.0 -5.5 46.25 -5.15 46.3 -4.75 46.35 -4.0 46.35 -3.65 46.35 -2.9 46.35 -2.5 46.5 -2.15 46.85 -1.4 47.15 -1.0 47.5 -0.65 47.85 0.5 48.2 1.65 48.5 2.75 48.85 3.85 48.85 8.0 48.85 11.75 48.85 15.5 48.85 19.25 48.7 19.6 48.5 20.0 48.35 20.35 48.35 20.75 48.2 21.1 48.0 21.5 47.75 21.85 47.35 22.1 47.1 22.2 46.5 22.35 45.6 22.1 45.1 21.75 44.75 21.35 Q44.5 20.25 44.55 19.1 L44.6 16.85 44.75 14.6 44.6 12.75 44.45 12.4 44.25 12.0 44.25 11.25 44.25 10.5 44.25 9.75 44.25 9.35 44.25 9.0 44.1 8.65 43.85 8.25 43.75 7.5 43.75 6.75 43.75 6.0 43.75 5.6 43.75 5.25 43.7 4.9 43.35 4.15 43.1 3.75 42.75 3.0 42.7 2.65 42.6 2.25 42.35 1.85 42.25 1.5 42.1 1.1 Q41.4 -0.2 40.85 -1.55 40.1 -3.25 38.7 -4.45 37.55 -5.4 36.95 -6.75 L36.5 -7.5 36.5 -7.9 36.5 -8.25 36.5 -8.65 36.5 -9.0 36.5 -9.4 36.45 -9.75 36.25 -10.15 36.05 -10.5 36.0 -10.9 35.6 -11.25 35.25 -11.65 35.0 -12.0 33.4 -13.2 32.0 -14.3 31.6 -14.65 30.1 -15.75 29.55 -16.55 29.1 -17.25 28.5 -17.65 28.1 -18.0 28.0 -18.4 27.85 -18.75 27.45 -19.1 27.0 -19.5 26.7 -19.7 25.6 -20.0 25.4 -20.4 25.35 -20.75 25.65 -20.95 26.0 -21.1 27.0 -21.15 27.25 -21.15 27.75 -20.8 Q28.1 -20.55 28.5 -20.4 L29.1 -20.15 29.35 -19.75 29.6 -19.4 30.2 -19.0 30.75 -18.65 31.0 -18.25 31.6 -17.5 32.0 -17.15 32.25 -16.9 32.5 -16.75 33.1 -16.5 33.6 -16.15" fill="#d1d0a5" fill-opacity="0.3019608" fill-rule="evenodd" stroke="none"/>
    <path d="M12.0 -13.25 L12.25 -12.5 12.5 -11.75 13.25 -11.0 15.55 -8.8 Q17.45 -7.1 18.8 -5.05 20.45 -2.5 22.7 -0.45 L23.25 0.25 23.5 1.0 23.75 1.75 24.0 2.5 24.25 3.25 24.5 4.0 24.75 4.75 24.75 5.5 24.75 7.75 24.75 11.5 24.75 15.25 24.75 19.0 24.5 19.75 24.25 20.5 23.95 21.2 23.25 22.0 22.55 22.75 22.0 23.5 21.5 24.25 20.55 25.0 20.0 25.5 19.5 25.7 18.0 26.0 16.0 25.5 15.1 24.7 14.75 24.25 14.5 24.1 Q7.65 24.1 0.75 24.25 L-1.0 24.75 -12.95 24.75 -14.7 24.25 -15.7 23.45 -16.45 22.75 Q-16.6 22.35 -16.85 22.25 L-18.2 22.0 -18.95 22.75 -19.75 23.45 -20.75 24.2 -22.0 24.95 -22.95 25.5 -23.5 25.7 -25.0 25.9 -28.95 26.0 -30.95 25.5 -31.95 24.75 Q-32.2 24.5 -32.55 24.35 L-34.0 24.05 -34.95 24.0 -36.95 23.5 -37.95 22.75 -38.4 21.95 -38.7 21.25 -38.9 20.5 -38.95 19.75 -38.95 19.0 -38.95 18.25 -39.25 17.5 -39.7 16.75 -39.9 16.0 -40.0 13.75 -39.9 10.0 Q-39.7 8.1 -39.8 6.25 -39.9 4.3 -39.45 2.5 L-39.15 1.75 -38.7 1.0 -38.45 0.25 -38.2 -0.5 -37.95 -1.25 -37.7 -2.0 -37.45 -2.75 -37.0 -3.55 -36.1 -4.9 -34.7 -6.5 -31.7 -9.5 -30.2 -11.0 -28.7 -11.75 -27.7 -12.25 -27.2 -12.5 -26.0 -12.75 -23.7 -13.25 -22.2 -14.0 -21.2 -14.5 -19.95 -14.7 -12.95 -15.25 -11.45 -15.65 -5.0 -16.6 -3.0 -17.0 4.0 -17.0 6.0 -16.5 7.05 -16.05 8.75 -15.5 10.0 -14.75 11.0 -14.0 12.0 -13.25" fill="#d1d0a5" fill-opacity="0.3019608" fill-rule="evenodd" stroke="none"/>
    <path d="M6.0 -17.0 L17.0 -17.0 19.05 -16.65 25.0 -15.85 26.75 -15.5 28.0 -14.75 28.75 -14.0 29.5 -13.25 30.25 -12.5 31.8 -11.05 33.75 -8.75 34.75 -7.25 35.0 -6.5 35.25 -5.75 35.5 -5.0 35.75 -4.25 36.25 -3.5 36.5 -2.75 36.75 -2.0 37.0 -1.25 37.25 -0.5 37.5 0.25 38.0 1.75 38.0 2.5 38.0 3.25 38.25 4.0 38.5 4.75 38.75 5.5 39.0 6.25 39.0 7.0 39.0 7.75 39.0 8.5 39.0 9.25 39.0 10.75 39.0 12.25 39.0 13.0 38.75 13.75 38.5 14.5 38.2 15.2 37.5 15.95 36.5 16.75 36.0 17.5 36.0 18.25 36.0 19.0 35.75 19.75 35.5 20.5 35.2 21.2 34.5 22.0 34.0 22.5 33.5 22.7 32.0 22.9 26.0 23.0 23.75 22.5 22.55 22.75 21.5 23.0 20.55 23.25 Q15.4 24.7 10.0 24.0 L8.05 23.45 6.25 23.0 5.25 23.5 4.0 23.65 -4.0 23.75 -5.7 23.2 -7.0 22.8 -8.75 22.25 -9.7 21.45 -10.5 20.75 -11.25 20.0 -11.75 19.5 -11.95 19.35 -12.95 19.5 -12.95 20.25 -12.95 21.0 -12.95 21.75 -12.95 22.5 -12.95 24.0 -13.05 25.5 -13.2 27.0 -13.5 27.7 -14.0 28.45 -14.75 29.2 -15.45 29.75 -16.95 30.0 -19.2 29.5 -20.45 28.75 -21.2 28.0 -21.45 27.25 -21.7 26.5 -21.95 25.75 -22.2 25.0 -22.45 24.25 -22.7 23.5 -22.7 22.75 -22.7 22.0 -22.7 21.25 Q-22.7 19.75 -22.85 18.25 L-23.0 13.75 -22.85 8.5 -22.7 7.75 -22.4 7.0 -21.95 6.25 -21.95 5.5 -21.95 4.75 -21.95 4.0 -21.9 3.25 -21.7 2.5 -21.4 1.75 -21.0 0.95 -20.65 0.25 -20.2 -0.45 -18.75 -2.05 -18.2 -2.75 -17.95 -3.5 -17.7 -4.25 -17.25 -5.05 -16.9 -5.75 -16.45 -6.5 -15.95 -7.2 -14.45 -8.75 -12.7 -10.25 -12.4 -11.0 -11.95 -11.75 -11.0 -12.5 -9.0 -13.0 -7.25 -13.55 -4.95 -14.25 0.55 -15.65 6.0 -17.0" fill="#d1d0a5" fill-opacity="0.3019608" fill-rule="evenodd" stroke="none"/>
    <path d="M9.6 -25.25 L9.8 -25.1 10.05 -25.2 13.1 -24.95 20.0 -23.95 Q24.4 -22.9 28.7 -20.85 L36.9 -16.2 39.65 -14.5 40.2 -14.25 42.75 -12.3 44.8 -10.35 46.0 -9.0 46.8 -7.85 47.4 -7.15 48.75 -5.25 49.7 -3.95 50.75 -2.35 Q51.2 -1.25 51.8 -0.35 52.9 1.4 53.6 3.2 L54.2 4.8 54.55 5.7 54.85 6.7 Q54.95 7.6 55.2 8.35 L55.65 10.75 55.7 12.2 55.9 14.05 Q56.15 15.1 55.95 16.1 55.65 18.05 56.0 20.05 L55.9 20.95 55.8 21.3 55.85 21.35 55.85 21.45 55.9 21.5 55.95 21.65 55.9 21.7 55.9 21.8 55.85 21.85 55.85 21.95 55.8 22.05 55.7 22.05 55.65 22.1 55.6 22.15 55.5 22.4 55.05 23.1 54.85 23.15 54.75 23.05 54.55 22.95 54.5 22.9 54.45 22.85 54.4 22.8 54.35 22.75 54.35 22.65 54.35 22.45 54.45 22.25 54.45 22.2 54.5 22.0 54.7 21.45 54.65 21.4 54.55 21.35 54.3 21.25 54.0 21.2 53.9 21.1 53.7 20.95 53.35 20.75 Q51.1 20.45 48.9 20.8 L48.7 20.85 Q47.85 21.15 47.1 21.65 L46.4 22.2 46.3 22.2 46.25 22.25 46.25 22.3 46.25 22.35 Q45.95 22.45 45.7 22.65 L45.45 23.35 45.15 24.4 45.05 24.45 44.75 24.6 44.3 24.3 44.15 24.1 44.25 23.85 44.4 23.35 44.4 23.3 44.4 23.2 44.4 23.15 44.4 23.05 44.4 23.0 42.75 22.45 42.1 22.25 Q37.4 21.0 32.9 22.8 L31.95 23.25 31.7 24.15 31.45 24.55 30.75 24.2 30.85 23.9 30.85 23.85 30.8 23.75 30.8 23.7 30.75 23.65 30.7 23.55 30.55 23.4 29.95 23.0 29.65 22.85 29.6 22.85 29.3 22.8 28.8 22.7 28.1 22.45 Q24.65 22.0 21.3 22.55 19.35 22.85 17.6 23.65 L14.85 24.95 14.6 25.45 14.3 25.6 14.25 25.6 14.1 25.65 13.9 25.55 13.7 25.45 13.45 25.35 13.0 25.05 12.5 24.85 12.0 24.65 6.8 23.35 0.55 22.85 -5.0 23.45 -7.95 24.3 -10.1 25.2 -10.1 25.3 -10.2 25.4 -10.25 25.45 -10.3 25.5 -10.35 25.55 -10.4 25.6 -10.6 25.65 -10.7 25.6 -10.9 25.6 -11.0 25.5 -11.25 25.3 -11.55 25.05 Q-14.2 23.65 -17.1 23.1 L-20.3 22.95 -24.5 23.75 -26.6 24.45 -27.2 24.7 -27.15 24.75 -27.15 24.85 -27.15 24.9 -27.2 24.95 -27.2 25.05 -27.25 25.15 -27.3 25.2 -27.4 25.3 -27.6 25.35 -27.8 25.3 -27.9 25.2 -27.95 25.1 -28.2 25.2 -28.3 25.1 -28.35 25.05 -28.35 25.0 -28.35 24.9 -28.3 24.85 -28.25 24.8 -28.65 24.5 -29.25 24.0 -29.4 23.8 Q-32.0 21.55 -35.5 22.0 L-37.6 22.45 Q-39.55 23.0 -41.25 24.1 L-41.4 24.3 -41.9 24.6 -42.15 24.75 -42.15 24.8 -42.15 24.9 -42.2 24.95 -42.25 25.05 -42.35 25.1 -42.4 25.1 -42.5 25.15 -42.65 25.1 -42.75 25.05 -42.8 24.95 -42.85 24.85 -42.85 24.75 -42.9 24.65 -42.9 24.6 -42.9 24.5 -42.95 24.4 -43.0 24.35 -43.0 24.25 -43.1 24.1 -43.1 24.05 -43.2 24.0 -43.4 23.75 -43.6 23.55 -43.75 23.3 Q-45.65 21.95 -47.85 21.3 L-49.25 21.15 Q-50.15 21.25 -51.0 21.7 L-51.9 22.2 -51.9 22.25 -51.8 22.45 -51.8 22.65 -51.8 22.75 -51.85 22.8 -51.9 22.85 -51.95 22.9 -52.0 22.95 -52.2 23.05 -52.3 23.15 -52.5 23.1 -52.75 22.85 -52.8 22.85 -52.9 22.85 -53.05 22.8 -53.1 22.7 -53.15 22.65 -53.15 22.6 -53.15 22.5 -53.1 22.4 -53.05 22.35 -53.05 22.3 -52.95 22.25 -53.4 20.95 -53.5 20.05 Q-53.1 18.05 -53.45 16.1 -53.65 15.1 -53.4 14.05 L-53.15 12.2 -53.1 10.75 -52.65 8.35 -52.3 6.7 -52.0 5.7 -51.6 4.8 -51.0 3.2 -49.15 -0.35 -48.05 -2.35 -47.0 -3.95 -46.0 -5.25 -44.6 -7.15 -44.0 -7.85 -43.15 -9.0 -41.95 -10.35 -39.85 -12.3 Q-38.6 -13.35 -37.2 -14.25 L-36.65 -14.5 -33.8 -16.2 Q-29.85 -18.85 -25.35 -20.85 -20.9 -22.9 -16.4 -23.95 L-9.25 -24.95 -6.15 -25.2 -5.2 -25.45 -3.0 -26.2 -1.6 -26.5 1.6 -26.55 5.25 -26.55 Q7.65 -26.45 9.6 -25.25 M5.25 -25.6 L1.6 -25.65 -3.9 -24.8 -4.6 -24.6 -5.0 -24.35 -5.3 -24.2 -6.15 -24.1 -4.6 -23.3 -2.2 -22.8 -1.25 -22.7 -0.6 -22.65 -0.4 -22.85 -0.25 -22.8 -0.15 -22.75 -0.2 -22.7 -0.2 -22.6 1.6 -22.55 5.95 -22.7 6.25 -22.8 8.55 -23.3 9.8 -23.95 9.85 -24.05 9.85 -24.1 9.25 -24.2 8.95 -24.35 9.05 -24.5 9.1 -24.75 9.05 -24.8 5.25 -25.6 M10.3 -23.45 L10.2 -23.35 9.3 -22.85 10.7 -22.3 12.95 -21.4 13.1 -21.35 13.1 -21.4 13.5 -21.7 13.85 -21.65 13.9 -21.6 13.85 -21.55 13.5 -21.45 13.25 -21.25 13.7 -21.0 13.75 -21.05 13.95 -21.15 14.1 -21.2 14.2 -21.25 14.65 -21.3 14.85 -21.3 14.6 -21.0 14.2 -20.7 Q17.7 -18.7 20.7 -15.75 L23.35 -12.85 23.9 -12.25 24.0 -12.15 25.55 -10.15 27.0 -7.85 28.35 -5.6 Q29.4 -3.9 30.05 -2.0 L30.75 -0.5 31.2 0.95 32.25 4.7 Q33.15 7.75 32.8 14.5 L32.6 12.7 32.6 13.55 32.7 14.05 32.75 14.3 32.8 14.7 32.8 14.8 32.85 15.35 32.85 16.8 32.85 17.55 33.1 17.45 34.0 17.3 34.4 17.3 34.5 17.35 34.55 17.45 34.6 17.5 34.55 17.55 Q34.35 17.8 34.0 17.75 L33.95 17.8 33.9 17.85 33.45 17.9 32.9 18.05 32.85 18.05 32.7 19.3 32.4 21.0 32.1 22.5 34.1 21.7 Q36.7 20.95 39.3 20.9 L42.9 21.55 Q43.85 21.8 44.75 22.2 L44.8 22.2 44.85 22.0 45.0 20.0 45.4 16.35 45.35 14.6 Q45.05 12.8 45.05 11.05 L44.75 5.6 44.6 4.85 44.5 4.6 44.2 3.45 43.8 2.0 43.45 0.85 42.45 -1.8 40.25 -6.15 Q38.9 -8.65 38.85 -8.0 L38.85 -7.85 38.55 -8.7 36.1 -11.25 33.4 -13.1 Q32.6 -13.65 31.9 -14.35 L30.55 -15.75 Q27.6 -18.2 24.25 -19.75 17.75 -22.75 10.5 -23.6 L10.3 -23.45 M16.7 -18.15 Q13.05 -21.15 8.7 -22.6 7.2 -21.95 5.55 -21.75 L6.8 -20.15 6.9 -19.95 8.05 -18.1 8.55 -17.15 9.35 -15.75 9.7 -15.15 11.05 -12.1 11.35 -11.15 12.1 -7.45 12.35 -5.9 Q12.65 -4.35 13.25 -3.15 L13.45 -2.55 13.8 -1.1 Q14.15 -0.05 14.1 0.9 L14.2 1.8 14.55 3.35 14.8 7.05 15.15 11.0 Q15.35 12.95 15.15 14.6 15.0 16.1 15.15 18.0 L15.45 21.9 Q15.55 22.95 15.15 24.15 L15.9 23.75 Q16.8 23.3 17.8 22.95 20.2 21.95 22.75 21.7 L24.0 21.55 27.2 21.55 28.45 21.8 28.6 21.8 Q29.6 21.9 30.45 22.4 L30.95 22.7 31.2 21.3 31.4 20.65 31.45 20.25 31.55 19.85 31.9 17.6 32.0 14.35 32.0 11.85 Q31.95 10.7 32.05 9.75 32.2 8.75 31.8 7.05 L31.05 4.0 30.4 1.85 30.1 0.65 29.5 -0.95 Q29.05 -1.6 28.85 -2.4 28.3 -4.35 27.1 -6.35 25.2 -9.35 22.8 -11.95 L21.5 -13.45 19.5 -15.75 16.7 -18.15 M11.05 -24.1 L16.15 -23.35 Q20.5 -22.45 24.5 -20.65 28.55 -18.8 31.85 -15.75 33.1 -14.4 34.75 -13.4 L37.7 -11.1 39.2 -9.25 39.75 -8.25 Q39.95 -7.4 40.85 -6.45 41.7 -5.5 42.15 -4.15 42.65 -2.85 43.2 -2.05 43.8 -1.25 44.35 0.55 L45.5 4.3 45.75 5.95 45.9 6.9 46.0 9.1 46.1 13.0 46.3 14.75 46.3 16.9 46.0 20.65 45.9 21.4 45.9 21.7 47.45 20.8 48.75 20.2 51.5 19.8 53.2 19.85 Q53.65 19.85 53.95 20.2 L54.15 20.25 55.0 20.6 55.05 20.35 55.05 20.05 55.0 19.8 Q54.65 18.45 54.9 17.05 L55.0 16.3 Q55.15 15.3 54.9 14.25 L54.85 13.45 54.6 10.55 54.1 7.75 53.85 6.75 53.05 4.45 52.85 3.9 Q51.1 0.15 49.05 -3.1 L47.85 -4.75 44.75 -8.75 Q42.9 -11.2 40.95 -12.45 L37.9 -14.45 34.4 -16.55 27.05 -20.25 Q22.35 -22.55 17.8 -23.35 L11.05 -24.1 M2.9 -21.75 L1.6 -21.85 0.6 -21.95 -0.55 -22.05 -2.25 -19.95 -4.6 -15.95 -4.7 -15.75 Q-6.1 -13.7 -6.55 -11.35 -6.7 -10.5 -7.2 -9.3 L-7.2 -9.15 -7.45 -7.5 -7.75 -5.55 Q-8.0 -4.35 -8.55 -3.2 L-8.65 -3.0 -8.65 -2.85 -8.8 -2.65 -8.9 -2.6 -8.95 -2.55 -9.1 -2.5 -9.1 -2.3 -9.1 -2.1 -9.15 -1.55 -9.35 -0.3 -9.75 1.65 -9.9 2.1 -9.95 2.45 Q-9.95 3.7 -10.1 4.65 -10.55 8.05 -10.55 11.4 L-10.6 18.45 -10.75 19.6 Q-11.25 21.9 -10.45 24.15 L-10.3 24.65 -9.95 24.5 -9.75 24.35 -5.7 22.9 -3.5 22.45 3.3 22.1 6.8 22.3 9.15 23.0 10.0 23.25 13.25 24.2 14.1 24.7 14.25 24.15 Q15.0 21.9 14.55 19.6 L14.4 18.45 14.35 11.4 Q14.35 8.05 13.9 4.65 13.75 3.7 13.75 2.45 L13.7 2.1 13.55 1.65 13.15 -0.3 13.0 -1.55 12.95 -2.1 12.95 -2.3 12.95 -2.5 12.8 -2.55 12.75 -2.6 12.65 -2.65 12.5 -2.85 12.5 -3.0 12.4 -3.2 Q11.85 -4.35 11.6 -5.55 L11.35 -7.5 11.1 -9.15 11.1 -9.3 Q10.6 -10.5 10.45 -11.35 10.0 -13.7 8.65 -15.75 L8.55 -15.95 6.3 -19.95 4.95 -21.7 2.9 -21.75 M38.5 -5.4 L38.6 -5.35 38.7 -5.3 38.7 -5.15 38.6 -4.95 38.55 -4.85 37.85 -4.2 37.45 -3.65 37.25 -3.6 37.05 -3.65 37.25 -4.15 37.6 -4.6 37.8 -4.85 37.95 -5.0 38.1 -5.05 38.15 -5.15 38.3 -5.3 38.35 -5.35 38.5 -5.4 M38.7 -3.4 L39.55 -3.95 39.65 -4.0 39.7 -4.1 39.9 -4.2 40.0 -4.15 40.1 -4.0 40.1 -3.95 40.05 -3.8 40.05 -3.7 39.05 -3.1 38.9 -3.0 38.8 -3.05 38.6 -3.1 38.6 -3.2 38.65 -3.35 38.7 -3.4 M38.55 -1.95 L38.55 -2.0 38.55 -2.1 38.65 -2.15 40.4 -2.45 Q40.65 -2.45 40.9 -2.6 L41.0 -2.65 41.15 -2.6 41.25 -2.45 41.3 -2.3 41.3 -2.25 41.25 -2.2 41.25 -2.15 41.2 -2.1 39.0 -1.7 Q38.65 -1.7 38.55 -1.95 M51.1 4.2 L51.3 4.4 51.25 4.45 Q51.1 4.7 50.75 4.65 L50.6 4.75 50.45 4.8 50.4 4.9 50.3 4.95 50.2 5.05 50.15 5.1 50.1 5.15 50.0 5.3 49.9 5.3 49.75 5.3 49.7 5.2 49.65 5.05 49.65 4.85 50.2 4.4 50.7 4.2 50.8 4.2 51.1 4.2 M51.1 6.05 L51.0 6.1 50.9 6.15 50.85 6.25 50.8 6.25 50.7 6.3 50.55 6.25 50.45 6.15 50.4 6.05 50.4 6.0 50.95 5.5 51.6 5.25 51.7 5.25 51.9 5.25 52.05 5.3 52.15 5.4 52.2 5.45 52.2 5.55 52.15 5.6 52.1 5.7 52.05 5.75 51.45 5.9 51.1 6.05 M53.2 8.55 L53.15 8.6 53.1 8.7 Q52.55 9.1 51.9 9.1 L51.7 9.15 51.6 9.15 51.45 9.1 51.4 9.0 51.35 9.0 51.15 8.9 51.2 8.85 51.35 8.8 51.45 8.75 51.5 8.7 52.85 8.3 53.0 8.3 53.1 8.35 53.25 8.5 53.2 8.55 M52.75 6.8 L52.85 6.9 52.9 6.95 52.9 7.05 52.85 7.1 52.75 7.15 52.7 7.25 Q51.85 7.5 51.05 8.05 L50.45 8.55 50.4 8.6 50.3 8.75 50.25 8.85 50.2 8.85 50.0 8.85 49.9 8.8 49.85 8.7 49.8 8.55 49.8 8.4 Q50.35 7.6 51.3 7.15 L52.6 6.75 52.75 6.8 M43.0 6.0 L43.1 6.05 43.2 6.2 43.1 6.35 42.9 6.5 42.3 6.4 42.2 6.35 42.2 6.3 42.3 6.15 43.0 6.0 M43.6 7.1 L43.7 7.15 43.8 7.3 Q43.1 8.0 42.0 7.85 L41.6 7.7 41.6 7.6 41.6 7.55 41.7 7.45 43.3 7.25 43.45 7.15 43.6 7.1 M49.75 12.3 L49.75 12.2 49.8 12.15 49.9 12.15 50.1 12.1 50.2 12.1 51.55 12.15 Q52.1 12.2 52.4 12.55 L52.35 12.6 52.3 12.65 52.2 12.7 51.9 12.7 51.8 12.75 51.1 12.65 49.8 12.35 49.75 12.3 M49.7 13.6 L49.75 13.5 49.8 13.45 49.9 13.4 50.9 13.5 52.2 13.75 52.3 13.85 52.25 13.9 52.2 13.95 52.1 14.0 50.7 14.05 49.85 13.8 49.7 13.6 M49.3 14.55 L49.3 14.45 49.4 14.3 49.5 14.3 49.6 14.35 49.75 14.4 50.4 14.55 51.0 14.6 51.15 14.65 51.15 14.75 51.2 14.8 51.35 14.9 51.25 14.9 51.0 15.0 49.7 14.9 49.55 14.9 49.4 14.75 49.35 14.65 49.3 14.55 M50.2 16.8 L50.35 16.85 50.35 16.95 50.4 17.0 50.5 17.05 50.6 17.1 50.65 17.15 50.6 17.15 50.5 17.15 50.4 17.1 50.35 17.15 50.3 17.15 50.2 17.2 49.9 17.15 49.4 17.05 49.1 16.85 48.8 16.8 48.6 16.7 48.6 16.65 48.6 16.55 48.6 16.5 48.7 16.4 48.8 16.4 49.1 16.4 49.25 16.45 49.6 16.6 50.2 16.8 M41.95 16.45 L41.95 16.4 41.95 16.3 42.05 16.25 42.2 16.2 43.0 16.05 43.4 16.05 43.55 16.1 43.6 16.1 43.85 16.15 43.9 16.25 43.85 16.3 43.8 16.35 43.65 16.4 43.6 16.45 43.55 16.5 42.4 16.7 41.95 16.45 M41.6 17.75 L43.3 17.9 Q43.95 18.0 44.45 18.4 L44.4 18.45 44.35 18.5 44.35 18.6 42.65 18.45 40.9 18.3 40.8 18.3 40.6 18.2 40.6 18.15 40.6 18.05 40.6 18.0 40.7 17.9 40.9 17.85 41.2 17.75 41.6 17.75 M43.75 20.1 L43.7 20.15 43.65 20.2 43.65 20.3 43.5 20.3 43.1 20.35 42.65 20.2 42.3 20.05 42.2 20.0 42.1 19.9 41.65 19.75 41.65 19.65 41.7 19.6 42.1 19.7 42.6 19.7 43.5 19.9 43.75 20.1 M51.6 16.4 L51.8 16.35 53.2 16.6 54.2 16.65 54.6 16.85 54.65 16.95 54.7 17.0 54.7 17.05 54.65 17.1 54.6 17.2 52.9 17.1 51.9 16.95 Q51.5 16.9 51.4 16.65 L51.4 16.55 51.4 16.5 51.5 16.4 51.6 16.4 M52.0 18.05 L51.95 18.0 51.95 17.95 51.95 17.85 51.95 17.8 52.0 17.7 52.1 17.65 52.2 17.65 53.25 17.85 53.9 18.3 53.85 18.35 53.75 18.45 53.7 18.5 53.4 18.5 52.1 18.15 52.0 18.05 M53.9 16.05 L53.6 16.05 53.5 16.1 53.4 16.0 53.35 15.95 53.35 15.9 53.35 15.8 53.4 15.75 53.5 15.75 53.6 15.75 53.95 15.8 54.05 15.85 54.05 15.9 54.0 16.0 53.9 16.05 M53.0 19.25 L52.9 19.35 52.85 19.4 52.7 19.4 52.5 19.45 52.3 19.45 52.0 19.35 51.85 19.3 51.75 19.15 51.75 19.0 51.85 18.95 51.9 18.9 52.0 18.85 52.5 18.9 53.05 19.2 53.0 19.25 M13.2 6.95 L12.55 7.0 12.4 7.05 12.3 6.95 12.25 6.9 12.3 6.85 12.4 6.75 12.5 6.7 12.6 6.65 13.2 6.65 13.55 6.75 13.55 6.8 13.5 6.9 13.4 6.95 13.2 6.95 M-41.9 -8.75 L-45.1 -4.75 -46.3 -3.1 Q-48.45 0.15 -50.25 3.9 L-50.45 4.45 -51.25 6.75 -51.5 7.75 -52.05 10.55 -52.3 13.45 -52.35 14.25 Q-52.6 15.3 -52.45 16.3 L-52.35 17.05 Q-52.1 18.45 -52.45 19.8 L-52.5 20.05 -52.5 20.35 -52.05 21.6 -51.95 21.5 Q-50.8 20.8 -49.55 20.45 L-49.1 20.35 Q-46.6 20.35 -44.5 21.85 L-43.25 22.8 -42.45 23.65 -42.6 23.35 -43.05 21.4 -43.15 20.65 -43.45 17.15 -43.5 17.15 -43.6 17.2 -43.8 17.2 -43.9 17.25 -44.4 17.15 -45.6 17.05 -45.75 17.05 -45.9 17.1 -46.0 17.0 -46.05 16.95 -46.05 16.9 -45.95 16.75 -45.85 16.65 -45.8 16.6 -45.7 16.6 -45.6 16.55 -44.25 16.65 Q-43.8 16.7 -43.5 16.95 L-43.5 16.9 -43.5 14.75 -43.3 13.0 -43.2 9.1 -43.05 6.9 -42.9 5.95 -42.65 4.3 -41.5 0.55 Q-40.9 -1.25 -40.3 -2.05 -39.7 -2.85 -39.2 -4.15 -38.75 -5.5 -37.85 -6.45 -36.95 -7.4 -36.75 -8.25 L-36.15 -9.25 -34.6 -11.1 Q-33.25 -12.4 -31.6 -13.4 -29.9 -14.4 -28.6 -15.75 -25.2 -18.8 -21.0 -20.65 -16.9 -22.45 -12.4 -23.35 L-7.15 -24.1 -14.1 -23.35 Q-18.8 -22.55 -23.65 -20.25 L-31.2 -16.55 -34.85 -14.45 -37.95 -12.45 Q-40.0 -11.2 -41.9 -8.75 M-27.25 -15.75 L-28.65 -14.35 -30.2 -13.1 -32.95 -11.25 -35.5 -8.7 -35.8 -7.8 -35.8 -8.0 Q-35.85 -8.65 -37.25 -6.15 L-39.5 -1.8 -40.55 0.85 -40.9 2.0 -41.3 3.45 -41.65 4.6 -41.75 4.85 -41.9 5.6 -42.2 11.05 Q-42.2 12.8 -42.5 14.6 L-42.55 16.35 -42.15 20.0 -42.0 22.0 Q-41.7 22.65 -41.55 23.35 L-41.45 23.5 -40.75 23.0 Q-38.1 21.35 -35.0 21.35 -32.95 21.05 -31.05 21.85 -29.7 22.4 -28.7 23.4 L-28.6 23.45 -28.75 22.85 -29.15 21.0 -29.45 19.3 -29.6 16.8 -29.6 15.35 -29.55 14.8 -29.55 14.7 -29.5 14.3 -29.45 14.05 -29.35 13.55 -29.35 12.7 -29.55 14.5 Q-29.95 7.75 -29.0 4.7 L-27.95 0.95 -27.45 -0.5 -26.75 -2.0 Q-26.05 -3.9 -25.0 -5.6 L-23.6 -7.85 -22.1 -10.15 -20.5 -12.15 -20.4 -12.25 -19.85 -12.85 -17.1 -15.75 Q-13.5 -19.2 -9.1 -21.4 -8.0 -21.95 -6.8 -22.3 L-5.2 -22.9 -6.6 -23.6 Q-14.05 -22.75 -20.75 -19.75 -24.2 -18.2 -27.25 -15.75 M-25.5 -2.4 Q-25.7 -1.6 -26.15 -0.95 L-26.8 0.65 -27.1 1.85 -27.75 4.0 -28.55 7.05 Q-28.95 8.75 -28.8 9.75 -28.7 10.7 -28.75 11.85 L-28.75 14.35 -28.65 17.6 -28.3 19.85 -28.2 20.25 -28.15 20.65 -27.95 21.3 Q-27.55 22.5 -27.55 23.75 L-27.55 23.9 -27.45 24.2 -27.6 24.3 -27.55 24.3 Q-26.1 23.45 -24.45 23.0 L-21.15 22.45 -19.6 22.25 Q-16.95 22.15 -14.45 22.95 -13.45 23.25 -12.5 23.75 L-11.35 24.2 Q-11.8 23.0 -11.7 21.9 L-11.4 18.0 Q-11.25 16.1 -11.4 14.6 -11.6 12.95 -11.4 11.0 L-11.05 7.05 -10.75 3.35 -10.4 1.8 -10.3 0.9 Q-10.35 -0.05 -10.0 -1.1 -9.75 -1.8 -9.65 -2.55 L-9.45 -3.15 Q-8.8 -4.35 -8.5 -5.9 L-8.25 -7.45 -7.45 -11.15 -7.15 -12.1 -5.75 -15.15 -5.4 -15.75 -4.6 -17.15 -4.05 -18.1 -2.9 -19.95 -2.8 -20.15 -1.15 -22.1 -3.3 -22.45 -4.45 -22.65 -4.6 -22.65 Q-9.15 -21.2 -13.0 -18.15 L-15.85 -15.75 -17.95 -13.45 -19.25 -11.95 Q-21.75 -9.35 -23.7 -6.35 -24.95 -4.35 -25.5 -2.4 M-10.25 -9.65 L-10.2 -9.6 -9.1 -9.5 -8.6 -9.2 Q-8.9 -8.85 -9.5 -8.95 L-10.25 -9.1 -10.3 -9.2 -10.4 -9.25 -10.5 -9.65 -10.45 -9.7 -10.35 -9.7 -10.25 -9.65 M-8.05 -11.05 L-8.05 -11.0 -8.1 -10.9 -8.1 -10.8 -8.3 -10.75 -8.5 -10.75 -9.45 -10.75 -9.65 -10.95 -9.75 -11.0 -9.75 -11.05 -9.75 -11.15 -9.7 -11.2 -9.65 -11.3 -9.5 -11.35 -9.35 -11.3 -8.5 -11.3 -8.05 -11.05 M-30.85 19.4 L-30.85 19.35 -30.8 19.25 -30.75 19.2 -30.6 19.15 -30.1 19.15 -29.65 19.2 -29.6 19.25 -29.5 19.35 -29.5 19.4 -29.55 19.5 -29.65 19.55 -29.7 19.65 -29.8 19.65 -30.85 19.5 -30.85 19.4 M-45.6 18.75 L-45.5 18.65 -45.4 18.6 -44.5 18.75 -43.75 19.05 -43.75 19.1 -43.85 19.2 -43.9 19.25 -44.8 19.15 -45.6 18.9 -45.6 18.8 -45.6 18.75 M-44.5 20.8 L-44.15 21.0 -43.85 21.15 Q-43.9 21.45 -44.3 21.3 L-44.7 21.2 -44.75 21.1 -44.85 20.95 -44.9 20.9 -45.05 20.75 -45.2 20.6 -45.25 20.5 -45.55 20.35 -45.6 20.25 -45.5 20.2 -45.15 20.2 -44.95 20.25 -44.75 20.45 -44.5 20.8" fill="#333333" fill-rule="evenodd" stroke="none"/>
  </g>
</svg>
