<?xml version="1.0" encoding="UTF-8" standalone="no"?>
<svg xmlns:xlink="http://www.w3.org/1999/xlink" height="54.45px" width="109.05px" xmlns="http://www.w3.org/2000/svg">
  <g transform="matrix(1.0, 0.0, 0.0, 1.0, 53.55, 26.9)">
    <path d="M-40.75 -8.25 L-40.25 -9.0 -39.5 -10.1 -38.9 -10.9 -38.15 -12.0 -37.65 -12.35 -37.0 -12.75 -36.75 -13.15 -36.5 -13.5 -36.0 -13.9 -35.15 -14.6 -34.15 -15.4 -33.75 -15.75 -33.4 -16.15 -32.75 -16.5 -32.35 -16.85 -32.0 -17.1 -31.0 -17.6 -30.4 -17.9 -29.9 -18.25 -29.5 -18.65 -29.25 -18.9 -29.0 -19.0 -28.0 -19.5 -27.0 -20.0 -26.4 -20.25 -25.9 -20.5 -25.65 -20.75 -25.5 -20.9 -25.0 -21.0 -24.15 -21.25 -23.5 -21.5 -21.9 -21.7 -21.0 -21.9 -19.5 -22.4 -18.5 -22.5 -17.75 -22.9 -17.4 -23.15 -17.0 -23.25 -16.4 -23.5 -14.5 -24.15 -13.9 -24.25 -13.15 -24.55 -11.65 -25.25 -11.05 -25.45 -11.0 -25.5 -9.5 -25.35 -8.4 -25.05 -8.25 -24.9 Q-8.4 -24.8 -8.5 -24.8 L-9.5 -24.6 -11.15 -24.4 -11.9 -24.0 -14.05 -22.9 -14.8 -22.55 -15.9 -22.15 -16.5 -21.75 -18.05 -21.05 -19.25 -20.45 -19.5 -20.25 -20.0 -20.1 -22.0 -19.5 -22.9 -19.25 -23.5 -19.05 -24.9 -18.75 -25.25 -18.4 -25.9 -18.0 -26.4 -17.65 -27.6 -16.8 -27.75 -16.65 -28.0 -16.5 -28.65 -16.25 -29.0 -15.85 -29.3 -15.5 -29.65 -15.15 -30.4 -14.75 -30.65 -14.4 -31.15 -14.0 -31.4 -13.75 -32.0 -13.5 -32.4 -13.15 -32.55 -12.75 -32.75 -12.4 -32.9 -12.0 -33.0 -11.65 -33.9 -10.15 -34.8 -8.95 -35.95 -7.55 -37.4 -6.0 -39.25 -4.15 -39.4 -3.75 -39.5 -3.4 -39.75 -3.0 -40.0 -2.65 -40.5 -1.85 -40.65 -1.5 -40.9 -1.15 -41.0 -0.75 -41.15 -0.4 -41.4 0.35 -41.5 0.75 -41.65 1.1 -41.75 1.5 -41.9 1.85 -41.9 2.25 -41.85 2.6 -41.8 3.4 -41.75 3.75 -41.8 4.1 -41.9 4.5 -42.15 5.25 -42.35 5.65 -42.55 6.0 -42.75 6.35 -42.75 6.75 -42.75 7.1 -42.75 7.85 -42.9 8.25 -43.0 8.6 -43.25 9.35 -43.4 9.75 -43.5 10.1 -43.65 10.5 -43.75 10.85 -43.75 11.25 -43.75 12.0 -43.75 12.75 -43.75 13.1 -43.75 13.5 -43.75 13.85 -43.75 14.6 -43.75 15.0 -43.65 15.05 -43.0 14.85 -42.5 15.25 -42.5 15.6 Q-42.5 15.8 -42.65 16.0 L-42.7 16.35 -42.65 16.75 -42.65 17.1 -42.75 17.5 -42.9 17.85 -42.9 18.25 -42.85 18.6 -42.8 19.35 -42.75 19.75 -42.75 20.1 -42.75 20.5 -42.75 20.85 -42.75 21.25 -42.9 21.6 -43.15 21.95 -43.9 22.6 -44.5 22.7 -45.5 22.75 -46.4 22.5 -46.9 22.1 -47.15 21.75 -47.25 21.35 -47.25 21.0 -47.25 20.25 -47.25 19.85 -47.25 19.5 -47.25 19.1 -47.25 18.75 -47.3 18.4 -47.5 18.0 -47.65 17.6 -47.8 16.1 -47.75 15.0 -47.75 13.5 -47.75 12.0 -47.75 9.75 -47.75 7.85 -47.75 7.5 -47.65 7.1 -47.5 6.75 -47.25 6.0 -47.15 5.6 -46.9 5.25 -46.7 4.9 -46.15 4.15 -45.75 3.75 -45.6 3.4 -45.4 3.0 -45.25 2.6 -45.15 2.25 -45.15 1.85 -45.15 1.1 -45.0 0.75 -44.75 0.0 -44.5 -0.75 -44.4 -1.15 -44.25 -1.5 -44.15 -1.9 -43.9 -2.65 -43.65 -3.0 -43.5 -3.4 -43.4 -3.75 -43.15 -4.15 -42.95 -4.45 -42.4 -5.25 -42.25 -5.65 -42.15 -6.0 -42.0 -6.4 -41.5 -7.15 -40.75 -8.25" fill="#d1d0a5" fill-opacity="0.3019608" fill-rule="evenodd" stroke="none"/>
    <path d="M-23.35 -15.4 Q-21.4 -16.4 -19.9 -18.0 L-19.65 -18.1 -19.15 -18.25 -17.9 -18.65 Q-15.15 -20.15 -12.2 -21.2 -10.45 -21.8 -8.9 -22.75 L-7.15 -23.75 -7.0 -23.85 -6.55 -23.95 -6.5 -24.0 -5.9 -23.75 -5.65 -23.35 -5.5 -23.0 -5.65 -22.65 -5.9 -22.25 -6.15 -21.9 -6.5 -21.5 Q-6.9 -21.3 -7.25 -21.15 L-7.5 -20.75 -8.75 -20.0 -10.0 -19.25 Q-13.05 -18.1 -15.1 -15.55 L-17.45 -13.05 -20.15 -10.25 -20.25 -9.9 -20.4 -9.5 -20.5 -9.15 -20.75 -8.75 -21.0 -8.4 -21.3 -8.0 -21.65 -7.65 -22.0 -6.85 -22.55 -5.75 -23.0 -5.0 -23.15 -4.65 -25.15 -2.0 -26.1 -0.55 -26.85 0.95 -27.75 2.5 -27.75 2.85 -27.75 3.25 -27.8 3.6 -27.9 4.0 -28.05 4.35 -28.25 4.75 -28.75 5.1 -28.95 6.25 -29.3 7.35 -29.5 8.15 -29.65 8.85 -29.75 9.25 -29.55 10.35 Q-29.3 11.1 -29.2 11.85 L-29.0 12.6 -28.75 13.35 -28.65 13.75 -28.65 15.25 -28.65 16.35 -28.65 17.5 -28.65 18.25 -28.75 19.0 -28.75 19.35 -28.65 20.1 -28.65 20.85 -28.65 21.25 -28.8 21.6 -29.0 22.0 -29.25 22.35 -29.65 22.6 -29.9 22.7 -30.5 22.85 -31.4 22.6 -31.9 22.25 -32.4 21.85 -32.75 22.1 -33.0 22.5 -33.25 22.85 -33.65 23.1 -33.9 23.2 -34.5 23.35 -35.4 23.1 -35.85 22.75 -36.25 22.35 -36.35 22.0 -36.4 21.25 -36.4 20.5 -36.4 19.75 -36.6 19.45 -37.15 19.0 -37.5 18.6 -37.75 18.25 -37.85 17.5 -37.9 16.35 -37.9 15.6 -37.9 14.85 -37.9 14.5 -37.75 14.1 -37.65 13.75 -37.6 13.4 -37.5 13.0 -37.4 12.6 -37.4 9.6 -37.3 7.75 -37.0 5.5 -36.25 2.85 -36.0 2.1 -34.75 -0.15 -33.5 -1.6 -32.55 -2.8 -32.0 -3.85 -31.75 -4.25 -31.6 -5.0 -31.3 -6.1 -31.15 -6.9 -30.9 -7.65 -30.65 -8.0 -30.2 -8.7 -29.65 -9.5 -28.9 -9.9 Q-28.05 -11.7 -26.6 -13.1 -25.15 -14.5 -23.35 -15.4" fill="#d1d0a5" fill-opacity="0.3019608" fill-rule="evenodd" stroke="none"/>
    <path d="M-3.05 -21.55 L-3.0 -21.65 -2.4 -21.4 -2.15 -21.0 -2.0 -20.6 -2.0 -20.25 -2.45 -19.55 Q-2.95 -18.85 -3.55 -18.3 L-4.0 -17.65 -3.9 -17.25 -3.9 -16.9 -3.9 -16.5 -4.0 -16.15 -4.15 -15.75 -4.4 -15.4 -4.65 -15.0 -4.9 -14.65 -5.0 -14.25 -5.15 -13.9 -5.25 -13.5 -5.5 -13.15 -5.65 -12.75 -5.75 -12.4 -6.35 -11.6 -7.1 -10.5 -7.55 -9.75 -7.75 -9.4 -7.5 -9.0 -7.0 -8.65 -6.9 -8.25 -6.75 -7.9 -6.65 -7.5 -6.65 -7.15 -6.65 -6.75 -6.65 -6.4 -6.75 -6.0 -6.9 -5.65 -7.0 -5.25 -7.25 -4.9 -7.4 -4.5 -7.5 -4.15 -7.65 -3.75 -7.65 -3.4 -7.65 -3.0 -7.65 -2.65 -8.5 0.0 -9.3 2.65 -10.15 5.6 -10.15 9.0 -10.15 13.1 -10.15 16.85 -10.15 17.6 -10.0 18.0 -9.8 18.4 -9.6 18.75 -9.25 19.5 -9.15 20.25 -9.15 21.0 -9.15 21.75 -9.25 22.5 -9.4 22.85 -9.65 23.25 -10.15 23.6 -11.35 24.05 -12.65 24.6 -13.5 24.8 -15.5 24.85 -16.4 24.6 -16.9 24.25 -17.25 23.85 -17.35 23.5 -17.4 23.1 -17.4 22.75 -17.4 22.5 -17.4 22.45 -18.0 22.35 -18.9 22.1 -19.4 21.75 -19.7 21.35 -19.9 21.0 -19.95 20.65 -20.15 20.25 -20.75 19.85 -21.15 19.5 -21.5 19.1 -21.75 18.75 -21.85 18.35 -21.9 18.0 -22.0 17.6 -22.15 17.25 -22.15 16.85 -22.15 16.5 -22.1 16.15 -21.9 15.75 -21.5 15.5 -21.0 15.25 -20.85 12.75 -20.9 10.1 -20.9 7.1 -20.9 6.75 -20.7 6.0 -20.45 4.9 -20.25 4.1 -20.0 3.35 -19.75 3.0 -19.75 2.25 -19.75 1.5 -19.75 0.75 -19.75 0.0 -19.0 -2.25 -18.55 -4.15 -18.0 -6.75 -17.9 -7.15 -17.65 -7.5 -17.5 -7.9 -17.4 -8.25 -17.25 -8.65 -17.15 -9.0 -16.9 -9.4 -16.75 -9.75 -16.65 -10.15 -16.5 -10.5 -16.4 -10.9 -14.6 -13.85 Q-13.45 -15.75 -11.8 -17.3 -10.6 -18.4 -9.15 -19.15 L-8.5 -19.25 -8.0 -19.5 -7.65 -19.9 -7.15 -20.15 -6.5 -20.25 -5.65 -20.15 -5.0 -20.25 -4.55 -20.65 -4.15 -21.0 -3.75 -21.4 -3.05 -21.55" fill="#d1d0a5" fill-opacity="0.3019608" fill-rule="evenodd" stroke="none"/>
    <path d="M1.5 -25.4 L2.35 -25.15 2.85 -24.75 3.1 -24.4 3.25 -24.0 3.35 -23.65 3.5 -23.25 3.5 -22.9 3.5 -22.5 3.5 -22.15 3.5 -21.75 3.6 -21.4 3.85 -21.15 4.0 -21.05 4.85 -20.75 5.35 -20.4 5.6 -20.0 5.85 -19.65 Q5.9 -17.15 6.35 -14.75 6.8 -12.1 7.5 -9.5 L9.0 -4.25 9.1 2.5 Q9.2 6.7 8.8 10.75 8.5 13.95 8.35 17.1 L8.2 17.5 8.0 17.9 7.85 18.25 7.6 18.6 7.5 19.0 7.5 19.35 7.5 19.75 7.35 20.1 7.1 20.5 6.85 20.85 6.6 21.25 6.1 21.6 5.75 21.85 5.0 21.95 4.5 21.95 3.75 21.85 2.85 22.0 2.5 22.25 1.5 22.4 -1.5 22.5 -2.5 22.25 -3.0 21.85 -3.25 21.5 -3.4 21.1 -3.65 20.35 -3.85 19.6 -4.0 18.85 -4.25 18.5 -4.4 18.1 Q-4.45 13.9 -5.3 9.8 -6.05 6.35 -6.0 2.75 L-5.75 -7.0 -5.5 -7.4 Q-4.95 -9.0 -4.75 -10.75 L-4.25 -14.15 -3.4 -17.9 -3.4 -18.25 -3.4 -18.65 -3.4 -19.0 -3.2 -19.35 -2.9 -19.75 -2.5 -20.15 -2.15 -20.5 -1.65 -20.75 -1.2 -21.05 -1.0 -21.4 -0.9 -21.75 -0.9 -22.15 -0.85 -22.85 -0.75 -23.65 -0.6 -23.95 -0.25 -24.4 0.1 -24.75 0.6 -25.15 1.45 -25.3 1.5 -25.4" fill="#d1d0a5" fill-opacity="0.3019608" fill-rule="evenodd" stroke="none"/>
    <path d="M11.35 -20.5 L11.85 -20.1 12.45 -19.35 13.1 -18.25 13.35 -18.3 13.75 -18.65 14.25 -18.9 15.0 -19.0 15.85 -18.75 16.35 -18.4 16.6 -18.0 16.85 -17.65 16.95 -17.25 17.0 -16.9 17.25 -16.15 17.5 -15.4 17.7 -15.0 17.9 -14.65 18.1 -14.25 18.25 -13.9 18.5 -13.15 19.0 -11.65 19.1 -11.25 19.25 -10.9 19.45 -10.5 19.85 -9.75 Q20.15 -8.95 20.6 -8.25 L22.45 -2.3 Q23.25 0.7 23.7 3.75 24.15 7.25 24.0 10.85 L24.0 11.25 24.1 11.6 24.2 12.0 24.25 12.35 24.35 12.75 24.5 13.1 24.5 15.0 24.5 16.85 24.5 19.1 24.5 20.25 24.35 20.6 24.1 21.0 23.85 21.35 23.35 21.75 22.5 22.0 22.0 22.0 21.0 21.75 20.5 21.35 20.2 21.0 20.0 20.75 20.0 21.1 20.0 21.5 20.0 21.85 19.85 22.25 19.6 22.6 19.5 23.0 19.35 23.35 19.25 23.75 19.05 24.1 18.75 24.5 18.5 24.75 18.25 24.85 17.25 25.0 16.85 25.35 16.35 25.75 15.5 26.0 14.5 25.75 14.0 25.35 13.75 25.0 13.6 24.6 13.5 24.25 13.5 23.85 13.5 23.1 13.5 22.0 13.6 21.6 13.85 20.85 14.35 19.35 14.5 19.0 Q14.6 16.7 14.1 14.5 L13.0 10.0 11.25 4.35 11.0 3.6 10.95 3.25 10.9 2.5 10.65 1.0 10.6 0.6 10.65 0.25 10.7 -0.15 10.75 -0.85 10.85 -1.65 11.0 -2.0 11.15 -2.4 11.1 -2.75 10.95 -3.1 10.75 -3.5 10.1 -5.4 9.5 -7.25 8.75 -9.5 8.5 -10.65 8.35 -11.0 8.1 -11.4 8.0 -11.75 7.85 -12.15 7.6 -12.5 7.5 -12.9 7.45 -13.25 7.35 -13.65 7.2 -14.0 7.0 -14.4 6.85 -14.75 6.6 -15.5 6.3 -17.0 6.25 -17.4 6.1 -17.75 6.1 -18.15 6.1 -19.25 6.1 -20.75 6.1 -21.15 6.1 -21.5 6.3 -21.85 6.6 -22.25 7.1 -22.65 7.95 -22.8 8.0 -22.9 8.85 -22.65 9.35 -22.25 9.6 -21.85 9.75 -21.5 9.85 -21.15 9.85 -20.9 9.85 -20.8 10.5 -20.75 11.35 -20.5" fill="#d1d0a5" fill-opacity="0.3019608" fill-rule="evenodd" stroke="none"/>
    <path d="M8.85 -26.75 L9.45 -26.8 9.5 -26.9 10.35 -26.65 11.0 -26.5 12.0 -26.25 14.55 -24.9 Q15.7 -24.3 16.5 -23.4 L18.5 -21.35 18.75 -21.15 19.0 -21.0 20.0 -20.75 20.7 -20.35 21.1 -20.15 21.5 -20.0 22.35 -19.75 23.0 -19.4 23.35 -19.0 24.6 -18.2 25.0 -17.9 25.35 -17.5 25.75 -17.15 27.25 -16.0 28.0 -15.25 28.9 -14.15 30.1 -12.65 30.25 -12.25 30.35 -11.9 30.45 -11.5 30.5 -11.15 30.6 -10.75 30.75 -10.4 31.0 -10.0 31.1 -9.65 31.25 -9.25 31.5 -8.9 31.6 -8.5 31.75 -8.15 32.0 -7.75 32.2 -7.35 32.4 -7.0 32.6 -6.65 32.75 -6.25 32.85 -5.9 33.0 -5.5 33.1 -5.15 34.15 -3.25 35.35 -1.3 36.8 0.9 38.25 2.75 38.4 3.1 38.6 3.5 38.85 3.85 39.0 4.25 39.1 4.6 39.35 5.0 39.5 5.35 39.6 5.75 39.75 6.1 39.85 6.5 40.0 6.85 40.0 8.35 40.0 9.5 40.0 10.6 40.0 12.1 39.85 13.6 39.7 14.0 39.5 14.35 39.35 14.75 39.25 15.1 39.1 15.5 39.0 15.85 38.85 16.25 38.6 16.6 38.5 17.0 38.5 17.35 38.5 17.75 38.1 18.5 37.85 18.85 37.5 19.25 37.1 19.6 36.75 19.85 35.85 20.1 35.5 20.9 35.35 21.25 35.1 21.6 34.75 22.0 34.5 22.25 34.25 22.35 33.5 22.5 32.5 22.25 32.0 21.85 31.75 21.5 31.6 21.1 31.5 20.75 31.5 20.35 31.5 20.0 31.35 19.65 31.1 19.25 31.0 18.85 31.0 18.5 31.0 18.1 31.0 17.75 31.1 17.35 31.25 17.0 31.5 16.6 31.35 16.25 31.25 15.85 31.1 15.5 31.0 15.1 31.0 14.75 31.0 14.35 31.0 14.0 31.0 13.6 30.75 12.85 30.6 12.5 30.5 12.1 30.35 11.75 30.25 11.35 30.1 11.0 30.0 10.6 30.0 9.85 30.0 9.5 30.0 9.1 30.0 8.75 30.0 8.35 30.0 8.0 30.0 7.6 30.15 7.25 30.35 6.85 30.6 6.5 30.85 6.1 30.7 5.75 30.5 5.35 30.35 5.0 30.0 4.6 29.6 4.25 29.25 3.85 29.1 3.5 29.0 3.1 28.85 2.75 28.75 2.35 28.6 2.0 28.35 1.6 28.0 0.5 27.85 0.1 27.6 -0.65 27.35 -1.4 27.1 -2.15 27.1 -2.5 27.1 -2.9 27.1 -3.25 27.1 -3.65 27.0 -4.0 26.85 -4.4 26.75 -4.75 26.6 -5.15 26.5 -5.5 Q25.3 -8.1 23.5 -10.25 20.9 -13.3 17.8 -15.85 14.3 -18.75 10.25 -20.65 L10.0 -21.0 9.85 -21.4 9.9 -21.75 10.0 -22.1 10.25 -22.4 10.0 -22.5 9.0 -22.75 8.5 -23.15 8.25 -23.5 8.0 -23.9 7.75 -24.25 7.6 -24.65 7.6 -25.0 7.65 -25.35 7.75 -25.75 8.0 -26.1 8.35 -26.5 8.85 -26.75" fill="#d1d0a5" fill-opacity="0.3019608" fill-rule="evenodd" stroke="none"/>
    <path d="M30.75 -19.5 L31.2 -19.1 31.6 -18.75 32.1 -18.4 Q33.15 -16.9 34.6 -15.75 L37.6 -13.1 Q38.75 -11.9 40.0 -10.9 L40.8 -9.8 41.85 -8.6 Q42.4 -8.0 43.1 -7.5 L43.25 -7.15 43.5 -6.75 43.5 -6.4 43.5 -6.0 43.6 -5.65 43.75 -5.25 43.85 -4.9 43.95 -4.5 44.0 -4.15 44.05 -3.8 44.35 -3.4 44.7 -3.0 45.0 -2.65 45.1 -2.25 45.1 -1.9 45.1 -1.5 45.25 -1.15 45.45 -0.75 45.65 -0.4 45.85 0.0 46.0 0.35 46.1 0.75 46.1 1.1 46.35 1.5 46.5 1.85 46.75 3.0 46.75 4.5 46.75 5.6 46.75 6.75 46.75 7.1 46.9 7.5 47.1 7.85 47.3 11.25 47.25 14.6 47.35 18.35 47.25 21.0 47.1 21.35 46.85 21.75 46.35 22.1 45.5 22.35 44.6 22.1 44.1 21.75 43.75 21.35 Q43.5 19.9 43.55 18.35 L43.65 15.35 43.75 12.35 43.75 9.75 43.7 9.4 43.5 9.0 43.35 8.6 43.2 7.1 43.25 5.6 43.25 4.5 43.25 3.35 43.25 3.0 43.1 2.6 43.0 2.25 42.9 1.85 42.85 1.5 42.65 1.1 42.45 0.75 42.25 0.35 42.1 0.0 42.0 -0.4 41.9 -0.75 41.85 -1.15 41.7 -1.5 41.5 -1.9 41.35 -2.25 41.25 -2.65 41.05 -3.0 41.0 -3.4 41.0 -3.75 40.95 -4.1 40.75 -4.5 40.6 -4.9 40.5 -5.25 40.5 -5.65 37.6 -9.25 34.3 -13.15 31.25 -16.5 31.1 -16.9 31.0 -17.25 30.75 -17.65 30.6 -18.0 30.25 -18.4 29.95 -18.55 28.8 -19.0 28.75 -19.15 29.0 -19.2 29.95 -19.4 30.1 -19.45 30.5 -19.5 30.75 -19.5" fill="#d1d0a5" fill-opacity="0.3019608" fill-rule="evenodd" stroke="none"/>
    <path d="M6.5 -15.2 L7.25 -14.5 7.95 -13.7 8.8 -12.25 10.0 -10.0 10.25 -9.25 10.5 -8.5 11.0 -7.75 11.2 -7.0 11.35 -6.3 11.75 -4.75 12.0 -4.0 12.2 -3.25 12.25 -2.5 13.05 -1.8 14.0 -1.0 14.45 -0.25 14.8 0.45 15.2 1.25 15.55 1.95 16.0 2.75 16.2 3.5 16.25 4.25 16.25 5.0 16.25 5.75 16.25 6.5 16.5 7.25 16.75 8.0 16.95 8.75 17.0 9.5 17.75 10.25 18.25 11.0 18.75 11.75 18.95 13.25 19.0 14.75 19.0 15.5 19.0 16.25 19.0 17.0 19.0 17.75 19.0 18.5 18.7 19.2 18.25 20.0 17.75 20.75 16.75 21.5 14.5 22.0 12.7 23.35 10.0 24.95 8.5 25.75 7.0 26.5 5.0 27.0 3.0 27.0 1.0 26.5 0.0 25.75 -0.45 24.95 -0.75 24.25 Q-0.85 23.85 -1.1 23.8 L-3.0 23.5 -3.75 24.0 -11.0 24.25 -12.95 23.75 Q-17.25 24.3 -21.5 23.95 L-23.0 23.9 -25.95 24.0 -27.95 23.5 -29.2 23.5 -30.95 24.0 -32.95 23.5 -33.95 22.75 -34.95 22.75 -36.95 23.25 -37.95 23.25 -39.95 22.75 -40.95 21.95 -41.65 21.2 -41.95 20.5 Q-42.55 19.0 -42.1 17.45 L-41.95 16.75 -41.95 16.0 -41.95 14.5 -41.95 11.5 -41.95 7.0 -41.95 6.25 -41.45 4.75 -40.95 3.25 -40.7 2.5 -40.45 1.75 -40.2 1.0 -39.95 0.25 -39.7 -0.5 -38.1 -2.9 -37.2 -4.25 -36.7 -5.0 -36.2 -5.7 -34.7 -7.25 -32.95 -8.75 -30.95 -9.2 -28.7 -9.5 -27.75 -10.05 -26.45 -10.75 -25.2 -11.5 -24.45 -12.25 -23.25 -13.05 -22.2 -13.75 -20.95 -14.5 -19.2 -15.0 -18.0 -15.3 -16.2 -15.75 -14.95 -16.5 -13.75 -17.25 -12.95 -17.75 -12.45 -17.9 -11.0 -18.15 -11.0 -18.25 -10.0 -18.2 -8.5 -18.0 -7.5 -17.75 -4.95 -17.95 0.0 -18.0 Q3.7 -17.55 6.5 -15.2" fill="#d1d0a5" fill-opacity="0.3019608" fill-rule="evenodd" stroke="none"/>
    <path d="M9.0 -19.75 L10.0 -19.0 Q10.25 -18.75 10.55 -18.75 L15.0 -18.9 17.0 -19.25 23.0 -19.25 25.0 -18.75 26.0 -17.95 28.25 -15.75 29.0 -15.0 29.75 -14.25 30.55 -13.55 Q32.0 -12.2 32.85 -10.45 L34.25 -8.25 35.25 -7.5 36.25 -6.75 36.7 -6.0 37.05 -5.3 37.45 -4.5 37.8 -3.8 38.25 -3.0 38.5 -2.25 38.75 -1.5 39.25 -0.75 39.35 0.0 39.5 0.75 39.8 1.45 40.2 2.25 40.55 2.95 41.0 3.75 41.25 4.5 41.5 5.25 42.0 6.0 42.45 6.75 42.8 7.45 43.25 8.25 43.25 9.0 43.25 10.5 43.25 11.25 43.25 12.0 43.25 12.75 43.25 13.5 43.25 15.0 43.25 17.25 43.25 18.0 43.15 18.7 42.8 19.5 41.95 20.95 41.25 21.75 40.5 22.5 39.75 23.2 39.0 23.75 38.5 23.95 37.0 24.2 36.0 24.25 34.0 23.75 33.05 22.95 32.35 22.2 32.0 21.5 31.6 21.6 31.0 22.25 30.55 23.0 30.25 23.75 29.5 24.5 28.75 25.25 28.0 25.95 27.0 26.75 25.0 27.25 17.0 27.25 15.0 26.75 14.05 25.95 13.25 25.25 12.5 24.5 11.0 23.75 -3.75 23.75 -5.45 24.5 -6.5 25.0 -8.0 25.15 -11.95 25.25 -13.95 24.75 -14.95 23.95 -15.7 23.2 -16.9 21.7 -17.25 21.0 -17.75 20.25 -18.45 19.45 -18.95 18.75 -19.2 18.0 -19.45 17.25 -19.7 16.5 -19.95 15.75 -20.2 15.0 -20.2 14.25 -20.2 12.0 -20.2 11.25 -20.2 10.5 -20.2 9.75 -20.2 7.5 -20.2 4.5 -20.2 3.75 -19.95 3.0 -19.7 2.25 -19.45 1.5 -19.2 0.75 -18.75 -0.05 -18.4 -0.75 -17.95 -1.5 -17.95 -2.25 -17.95 -3.0 -17.65 -3.75 -17.2 -4.5 -16.45 -5.25 -16.3 -6.0 -16.2 -6.75 -16.2 -7.5 -16.1 -8.2 -15.75 -9.05 -15.0 -10.55 -14.65 -11.25 -14.25 -12.05 -13.9 -12.75 -13.45 -13.5 -12.7 -14.25 -11.5 -15.0 -10.25 -15.75 -9.5 -16.5 -8.7 -17.2 -6.7 -18.7 -5.45 -19.5 -4.5 -20.0 -3.0 -20.15 -3.0 -20.25 7.0 -20.25 9.0 -19.75" fill="#d1d0a5" fill-opacity="0.3019608" fill-rule="evenodd" stroke="none"/>
    <path d="M9.65 -12.5 L8.15 -15.8 6.45 -19.2 Q5.5 -21.05 4.25 -22.35 L-0.2 -22.25 -0.8 -22.1 Q-2.95 -19.2 -4.75 -15.65 -6.55 -12.15 -7.4 -9.5 L-8.5 -5.55 -9.05 -2.5 -9.25 -1.2 -9.35 -1.25 -9.4 -2.05 -9.4 -2.15 -9.8 1.0 -10.85 9.5 -10.95 10.15 Q-11.2 13.65 -11.05 17.1 L-10.4 23.75 -10.35 23.8 -10.3 23.85 -10.15 23.95 -10.05 24.05 -9.95 24.1 -9.75 24.35 Q-9.6 24.4 -9.4 24.5 -7.65 23.7 -5.75 23.1 -3.15 22.25 -0.4 22.1 L6.65 22.75 11.0 23.5 Q12.35 23.75 13.6 24.4 L13.9 21.55 14.35 16.95 Q14.55 14.3 14.3 11.8 L14.05 9.35 13.6 5.15 13.05 0.85 12.7 -2.2 12.8 -0.95 12.4 -2.65 11.75 -6.4 10.75 -9.65 9.65 -12.5 M15.05 -19.2 L12.65 -20.7 10.0 -21.75 7.2 -22.6 5.85 -22.4 5.15 -22.35 6.3 -20.4 7.05 -19.3 7.75 -18.15 8.7 -16.15 10.45 -12.1 11.7 -8.55 12.5 -5.6 12.75 -4.2 13.05 -3.0 13.75 0.8 14.45 6.8 14.95 12.2 Q15.2 14.45 15.1 16.7 L14.85 19.65 14.5 22.65 14.25 24.65 Q14.85 23.9 15.95 23.65 L17.05 23.3 Q20.05 22.0 23.2 21.35 L28.0 21.6 Q29.2 21.85 30.25 22.55 L30.9 23.15 30.9 22.85 31.2 20.6 31.45 18.45 31.7 16.2 31.85 13.95 31.75 10.3 31.55 6.55 Q31.5 4.65 30.75 2.8 L29.3 -0.65 28.0 -3.65 26.5 -6.5 24.4 -9.6 22.05 -12.6 20.1 -15.0 Q18.9 -16.55 17.45 -17.6 L15.05 -19.2 M19.8 -21.65 L16.5 -22.6 14.5 -23.05 12.45 -23.45 10.35 -23.85 8.8 -23.1 11.4 -21.95 Q14.35 -20.5 16.95 -18.7 L18.0 -17.9 18.95 -17.15 19.9 -16.25 21.45 -14.5 23.95 -11.4 25.55 -9.25 26.95 -7.05 28.35 -4.55 29.95 -1.4 31.5 3.1 Q32.2 5.85 32.3 8.05 L32.35 11.0 32.35 13.0 32.35 16.05 32.15 18.55 31.8 21.05 31.45 22.95 32.4 22.35 Q34.5 20.85 37.1 20.4 L37.2 20.35 42.0 20.75 Q43.4 21.05 44.65 21.95 L44.85 18.45 Q44.9 17.0 45.25 15.7 L45.0 12.2 44.6 7.85 43.95 4.05 43.05 0.65 42.4 -1.05 41.7 -2.65 40.95 -4.35 40.5 -4.6 40.5 -4.75 39.7 -6.05 39.35 -6.55 37.45 -9.2 35.85 -11.2 34.3 -12.55 31.35 -15.15 28.65 -17.1 25.7 -18.9 22.65 -20.5 19.8 -21.65 M19.65 -22.65 L17.25 -23.35 13.7 -24.15 11.05 -24.35 10.95 -24.25 17.2 -23.05 20.9 -21.9 23.8 -20.85 24.45 -20.5 26.15 -19.6 27.85 -18.7 28.35 -18.4 31.35 -16.25 34.1 -13.85 35.45 -12.55 38.1 -9.65 39.7 -7.5 40.3 -6.55 41.6 -4.45 Q43.15 -1.8 44.0 1.15 45.05 4.6 45.45 8.2 L45.7 11.3 45.75 14.4 45.75 14.45 45.85 14.75 45.85 15.15 45.8 15.6 45.75 16.15 45.7 17.45 45.5 21.25 45.45 22.15 47.7 20.75 Q49.35 19.95 51.1 19.8 L52.7 19.9 53.8 20.15 53.9 20.2 54.3 20.5 54.4 20.6 54.55 17.75 54.55 13.65 54.05 8.8 53.5 6.4 52.95 4.45 52.25 2.5 Q50.45 -2.2 46.95 -5.85 L44.55 -8.35 43.3 -9.55 42.05 -10.7 40.65 -11.85 38.4 -13.8 34.95 -16.35 34.5 -16.7 34.35 -16.7 34.1 -16.95 32.3 -18.25 31.5 -18.55 31.55 -18.1 31.5 -18.2 30.9 -18.55 Q30.55 -18.75 30.25 -18.9 L30.0 -18.85 29.9 -18.95 29.85 -19.0 29.95 -19.05 29.8 -19.1 26.65 -20.5 24.35 -21.25 22.0 -22.0 19.65 -22.65 M9.7 -25.25 L10.0 -25.1 10.15 -25.0 12.75 -25.0 15.35 -24.6 16.65 -24.4 17.95 -24.2 19.25 -23.85 20.55 -23.55 21.85 -23.15 23.05 -22.75 24.35 -22.3 25.6 -21.9 28.15 -21.1 30.25 -20.2 33.15 -18.6 36.2 -16.55 39.55 -13.95 42.85 -11.4 44.4 -10.0 45.85 -8.6 Q48.75 -5.7 50.95 -2.35 52.75 0.4 53.7 3.55 L54.85 7.75 55.25 9.9 55.4 12.1 55.5 14.45 55.4 19.05 55.0 22.25 54.5 22.3 54.25 22.4 54.3 22.1 54.25 22.05 54.25 21.9 54.2 21.75 54.25 21.75 54.25 21.6 54.25 21.45 54.25 21.3 54.25 21.25 54.2 21.15 53.75 20.85 53.5 20.7 Q49.85 20.0 46.7 22.1 L45.35 23.15 45.3 23.35 45.0 23.2 44.4 23.05 44.55 22.9 44.6 22.6 Q42.65 21.35 40.3 21.05 L36.15 21.4 Q34.0 22.0 32.35 23.5 L32.2 23.55 31.25 23.9 31.25 24.0 31.2 24.0 Q30.95 23.65 30.5 23.6 L30.1 23.6 30.4 23.5 30.4 23.45 30.35 23.35 30.3 23.3 Q28.75 22.25 26.8 22.0 24.25 21.75 21.85 22.45 18.25 23.45 14.85 25.05 L14.5 25.35 14.45 25.4 14.4 25.5 14.35 25.55 14.35 25.6 13.5 25.5 13.55 25.0 13.5 24.95 13.4 24.95 13.2 24.95 Q10.7 23.8 7.95 23.6 L4.7 23.15 -4.75 23.45 -8.85 24.75 -8.5 24.9 -9.2 24.9 -9.55 24.95 -9.8 25.15 -9.8 25.2 -9.9 25.15 -10.05 25.2 -10.9 25.2 -10.9 25.15 -10.9 25.05 -10.85 25.0 -10.8 25.0 -10.9 24.35 Q-13.95 23.5 -17.0 22.95 L-18.1 22.85 Q-23.35 22.55 -27.9 24.95 L-27.9 25.1 -28.3 25.05 -28.3 25.0 -28.45 24.95 -28.5 24.9 -28.5 24.85 -28.5 24.75 -28.5 24.7 -28.45 24.7 -28.55 24.65 -28.65 24.55 -28.75 24.5 -28.75 24.4 -28.8 24.35 -28.8 24.25 Q-33.4 21.4 -38.8 22.45 -40.1 22.7 -41.2 23.45 L-41.5 23.7 -41.6 23.75 -41.55 23.8 -41.5 23.9 -41.5 23.95 -41.5 24.05 -41.5 24.1 -41.5 24.2 -41.55 24.25 -41.6 24.3 -41.65 24.4 -41.7 24.45 -41.75 24.45 -41.9 24.5 -41.95 24.5 -41.95 24.55 -42.05 24.5 -42.35 24.45 -42.35 24.4 -42.5 24.35 -42.7 24.25 -42.8 24.2 Q-43.5 23.25 -44.5 22.55 -46.1 21.55 -47.9 21.1 -49.65 20.75 -51.05 21.65 L-52.15 22.55 -52.15 22.6 -52.15 22.75 -52.15 22.95 -52.15 23.05 -52.05 23.5 -52.45 24.35 Q-53.15 22.9 -53.3 21.3 -53.7 16.75 -53.45 12.1 -53.0 3.0 -47.45 -4.25 -45.05 -7.35 -42.1 -10.0 L-35.35 -15.25 -31.85 -17.75 Q-29.2 -19.65 -25.8 -20.85 L-25.3 -21.0 -20.05 -22.65 Q-14.8 -24.4 -9.45 -24.85 L-8.8 -24.9 -7.3 -25.05 -4.4 -25.85 Q0.0 -27.2 4.7 -26.5 7.35 -26.45 9.65 -25.3 L9.7 -25.25 M6.45 -25.75 L3.75 -26.0 0.15 -26.05 -0.65 -26.0 -3.15 -25.55 -5.35 -24.85 -6.25 -24.45 Q-3.3 -23.25 -0.2 -22.9 1.8 -22.7 3.8 -22.85 L3.8 -23.1 6.7 -23.8 9.55 -24.6 9.45 -24.65 Q8.05 -25.35 6.45 -25.75 M38.4 -5.1 L38.5 -4.95 37.65 -4.5 37.4 -4.45 37.3 -4.4 37.15 -4.2 37.05 -4.25 36.95 -4.35 37.0 -4.5 37.15 -4.65 38.15 -5.1 38.3 -5.15 38.4 -5.1 M38.05 -3.3 L37.95 -3.35 37.95 -3.4 37.95 -3.5 37.95 -3.55 38.0 -3.65 39.35 -4.4 39.7 -4.5 40.05 -4.4 40.2 -4.15 40.15 -4.1 40.1 -4.05 40.0 -4.0 39.9 -4.05 39.85 -4.05 38.7 -3.5 38.55 -3.35 38.35 -3.3 38.2 -3.25 38.05 -3.3 M37.75 -2.2 L37.75 -2.3 37.75 -2.35 37.8 -2.45 40.45 -2.75 40.6 -2.75 41.0 -2.75 41.1 -2.7 41.15 -2.65 41.15 -2.6 41.1 -2.45 41.05 -2.3 37.8 -2.2 37.75 -2.2 M51.9 5.25 L52.0 5.4 50.95 6.1 50.3 6.55 50.1 6.5 49.9 6.45 50.2 5.9 50.7 5.55 50.8 5.45 51.6 5.25 51.8 5.2 51.9 5.25 M52.2 6.55 L52.4 6.75 52.35 6.8 52.3 6.85 52.2 6.9 50.2 7.6 49.6 7.95 49.45 7.85 49.4 7.8 49.4 7.75 49.4 7.65 49.5 7.5 49.6 7.35 Q50.45 6.8 51.5 6.6 L52.0 6.5 52.2 6.55 M52.9 8.35 L53.2 8.6 53.15 8.65 53.1 8.75 53.0 8.8 52.85 8.75 51.3 9.0 50.3 9.2 50.15 9.15 50.05 9.05 49.95 8.95 49.9 8.9 49.95 8.85 50.05 8.75 50.15 8.7 51.75 8.35 52.5 8.25 52.9 8.35 M49.15 5.3 L50.0 4.8 50.4 4.6 50.6 4.65 50.8 4.85 49.9 5.35 49.3 5.6 49.2 5.55 49.05 5.55 49.1 5.45 49.1 5.35 49.15 5.3 M42.8 6.15 L41.85 6.45 41.8 6.5 41.55 6.5 41.35 6.5 41.25 6.45 41.65 6.05 42.5 5.8 42.9 5.7 43.2 5.75 43.6 5.9 42.8 6.15 M43.4 6.9 L43.6 7.05 43.65 7.15 43.65 7.2 43.65 7.3 43.65 7.35 42.15 7.85 42.0 7.9 41.7 7.75 41.6 7.7 41.65 7.6 41.75 7.55 41.8 7.45 41.85 7.4 42.95 7.1 43.05 7.0 43.2 6.9 43.3 6.85 43.4 6.9 M50.6 12.3 L50.9 12.3 Q51.15 12.25 51.25 12.45 L51.3 12.55 51.25 12.6 51.2 12.65 51.1 12.7 50.9 12.7 50.6 12.7 50.5 12.65 50.4 12.6 50.4 12.5 50.4 12.45 50.5 12.35 50.6 12.3 M50.0 13.85 L50.0 13.75 50.0 13.7 50.3 13.55 50.5 13.45 51.6 13.4 Q52.25 13.35 52.6 13.75 L52.55 13.8 52.5 13.85 52.4 13.9 52.2 13.9 50.45 13.95 50.3 14.0 50.2 14.0 50.05 13.95 50.0 13.9 50.0 13.85 M50.1 14.65 L51.9 14.85 51.9 14.9 51.85 15.0 51.8 15.05 49.9 15.0 49.45 14.65 49.5 14.6 49.65 14.6 49.8 14.65 49.95 14.65 50.0 14.65 50.1 14.65 M50.35 16.95 L50.3 17.0 50.2 17.15 50.1 17.2 49.4 17.1 49.1 17.0 49.05 16.9 48.9 16.75 48.9 16.7 48.95 16.6 49.0 16.55 49.1 16.5 49.2 16.55 49.3 16.65 50.05 16.8 50.35 16.95 M41.3 15.5 L41.6 15.45 43.0 15.7 44.15 15.95 44.2 16.0 44.25 16.1 44.25 16.15 44.3 16.25 44.2 16.3 44.0 16.35 43.85 16.35 43.7 16.4 43.15 16.3 41.9 16.05 41.6 15.95 41.2 15.85 41.0 15.8 41.0 15.7 41.0 15.65 41.1 15.55 41.2 15.5 41.3 15.5 M42.85 17.75 L44.0 17.95 44.45 18.3 44.4 18.35 44.35 18.45 44.3 18.5 41.45 18.1 40.3 17.7 40.3 17.6 40.3 17.55 40.4 17.45 40.5 17.4 42.85 17.75 M44.2 19.6 L44.2 19.65 43.85 19.8 43.7 19.85 41.4 19.7 41.1 19.45 41.1 19.3 41.2 19.2 41.3 19.2 42.6 19.3 43.7 19.4 44.2 19.6 M52.1 15.8 L52.2 15.8 52.3 15.75 53.0 15.75 Q53.3 15.7 53.45 16.0 L53.45 16.1 53.4 16.2 53.2 16.2 52.0 16.25 51.9 16.15 51.85 16.1 51.9 16.05 51.9 15.95 52.0 15.85 52.1 15.8 M51.4 17.35 L51.4 17.2 51.5 17.1 51.8 16.95 52.95 17.05 54.15 17.3 54.2 17.35 54.25 17.45 54.25 17.5 54.3 17.65 54.25 17.7 54.2 17.75 54.1 17.8 52.85 17.65 51.85 17.5 51.75 17.5 51.7 17.5 51.6 17.55 51.45 17.45 51.4 17.4 51.4 17.35 M51.2 18.45 L51.3 18.35 51.4 18.3 51.5 18.25 52.7 18.75 53.65 18.9 53.8 19.05 53.9 19.1 53.95 19.2 53.9 19.25 53.85 19.3 53.85 19.35 53.8 19.4 53.7 19.4 53.55 19.4 52.15 19.2 51.75 19.05 51.6 18.95 51.55 18.9 51.25 18.8 51.2 18.7 51.15 18.65 51.15 18.6 51.15 18.5 51.2 18.45 M54.6 24.0 L54.5 24.35 54.4 24.1 54.6 24.0 M32.4 18.25 L32.45 18.15 33.3 17.95 33.4 17.85 33.5 17.8 33.6 17.8 34.3 17.8 34.4 17.85 34.5 17.9 34.55 18.0 34.5 18.05 34.45 18.1 34.45 18.2 34.4 18.2 33.6 18.3 33.5 18.35 33.4 18.4 33.3 18.4 32.6 18.55 32.5 18.55 32.4 18.5 32.35 18.45 32.35 18.4 32.35 18.3 32.4 18.25 M12.8 6.85 L12.75 6.9 12.65 7.05 12.5 7.1 12.05 7.15 12.0 7.15 11.9 7.2 11.8 7.1 11.75 7.0 11.75 6.9 11.9 6.75 12.0 6.7 12.6 6.65 12.7 6.7 12.8 6.85 M-22.6 -8.0 L-23.65 -6.45 -26.5 -0.8 Q-28.15 2.85 -28.5 6.6 L-29.05 11.6 Q-29.35 14.05 -29.0 16.35 L-28.0 24.0 -28.0 24.1 -28.0 24.15 -27.95 24.4 Q-25.45 23.0 -22.6 22.5 L-18.1 22.15 -13.5 22.85 -11.85 23.25 -11.1 23.5 Q-12.1 17.95 -11.65 12.35 L-11.45 9.5 Q-10.85 2.85 -9.55 -3.55 L-9.45 -4.05 Q-9.0 -7.0 -7.9 -9.95 -6.3 -14.15 -4.3 -17.95 L-3.55 -19.1 -2.05 -21.35 -1.45 -22.45 Q-2.45 -22.65 -3.4 -22.45 -6.55 -22.1 -9.35 -20.55 L-14.3 -17.45 -16.15 -15.8 -17.85 -13.8 -20.25 -11.0 -22.6 -8.0 M-24.4 -18.05 Q-27.35 -16.3 -29.9 -14.0 L-31.45 -12.75 -31.75 -12.55 -33.2 -11.05 -34.25 -10.0 -34.9 -9.15 -36.7 -6.8 -36.95 -6.55 -37.6 -5.5 -38.0 -4.7 -38.0 -4.55 -38.45 -4.3 -39.95 -1.05 Q-41.25 2.2 -41.85 5.75 L-42.35 9.95 -42.7 19.05 Q-42.75 20.3 -42.35 21.55 L-42.0 23.3 Q-40.3 22.05 -38.2 21.6 L-34.3 21.45 -30.65 22.5 Q-29.6 22.9 -28.6 23.5 L-28.85 22.35 Q-29.85 17.35 -29.65 12.25 L-29.5 10.7 -29.05 6.55 Q-28.75 2.35 -26.9 -1.35 L-24.7 -5.85 -23.45 -8.15 -22.75 -9.2 -19.2 -13.5 -18.5 -14.4 -17.75 -15.2 -13.8 -18.6 -12.15 -19.65 -10.75 -20.45 -8.05 -21.8 -4.65 -23.15 -6.5 -23.75 -15.35 -21.95 -18.0 -21.05 -24.4 -18.05 M-48.0 -1.85 L-48.35 -1.3 Q-50.35 2.35 -51.5 6.4 -52.85 11.1 -52.7 16.05 L-52.25 21.85 -51.95 21.6 -51.3 21.0 -49.95 20.45 -47.9 20.35 Q-46.15 20.75 -44.55 21.7 L-42.65 23.1 -43.05 19.4 -43.1 17.5 Q-43.5 11.35 -42.55 5.15 -41.9 1.05 -40.1 -2.6 L-38.05 -6.3 -37.65 -6.8 -37.25 -7.45 -37.2 -7.65 Q-36.6 -8.0 -36.4 -8.6 L-36.3 -8.8 -35.6 -9.6 -34.7 -10.7 -32.9 -12.5 -31.5 -13.8 -30.25 -14.75 -28.65 -16.2 Q-27.15 -17.55 -25.55 -18.4 L-25.0 -18.6 -21.5 -20.4 -20.8 -20.75 Q-20.25 -20.95 -19.75 -21.25 L-16.0 -22.4 -14.0 -22.9 -10.6 -23.6 -7.2 -24.2 -10.4 -24.0 -14.05 -23.2 -23.75 -20.4 -27.05 -19.1 -28.0 -18.5 -28.1 -18.35 -28.55 -18.25 -28.75 -18.1 -28.9 -18.0 -28.65 -18.8 -35.9 -13.75 -38.25 -11.85 Q-43.7 -7.4 -48.0 -1.85 M-10.3 -10.7 L-10.3 -10.8 -10.3 -10.85 -10.2 -10.95 -10.1 -11.0 -9.6 -11.0 -9.5 -10.95 -9.45 -10.85 -9.4 -10.8 -9.45 -10.75 -9.5 -10.65 -9.6 -10.6 -10.1 -10.6 -10.2 -10.65 -10.3 -10.7 M-10.3 -9.4 L-10.2 -9.5 -10.1 -9.5 -9.35 -9.45 -8.65 -9.35 -8.65 -9.25 -8.6 -9.2 -8.45 -9.1 -8.55 -9.1 -8.65 -9.05 -8.8 -9.0 -9.2 -8.95 -9.35 -9.0 -10.3 -9.2 -10.3 -9.25 -10.3 -9.35 -10.3 -9.4 M-11.0 -8.0 L-11.15 -8.05 -11.2 -8.15 -11.2 -8.25 -11.2 -8.3 -11.1 -8.4 -11.0 -8.4 -10.7 -8.45 -10.25 -8.3 -9.95 -8.05 -9.95 -8.0 -10.0 -7.9 -10.05 -7.85 -10.1 -7.75 -10.3 -7.8 -10.75 -7.9 -10.8 -7.95 -11.0 -8.0 M-30.55 19.45 L-30.5 19.5 -30.45 19.6 -30.4 19.6 -30.3 19.7 -30.25 19.75 -30.3 19.75 -30.4 19.75 -30.55 19.75 -30.6 19.8 -31.0 19.8 -31.9 19.5 -32.05 19.45 -32.5 19.4 -32.75 19.25 -32.75 19.2 -32.75 19.1 -32.7 19.05 -32.6 19.05 -32.5 19.0 -32.4 19.0 -31.4 19.15 Q-31.0 19.25 -30.55 19.45 M-10.05 27.5 L-10.0 27.5 -10.0 27.55 -10.05 27.5 M-44.05 16.85 L-43.9 16.9 -43.85 16.95 -43.9 16.95 -44.05 16.95 -44.2 16.9 -44.25 16.95 -44.3 16.95 -44.4 17.0 -44.5 17.0 Q-45.15 16.8 -45.8 17.0 L-45.85 17.05 -45.9 17.05 -46.0 17.1 -46.1 17.0 -46.15 16.95 -46.15 16.9 -46.1 16.75 -45.9 16.5 -45.8 16.5 -44.8 16.5 -44.65 16.5 -44.4 16.6 -44.25 16.65 -44.25 16.75 -44.2 16.8 -44.15 16.8 -44.05 16.85 M-44.45 18.55 L-44.5 18.65 -44.6 18.65 -44.9 18.7 -45.1 18.65 -46.1 18.45 -46.15 18.35 -46.15 18.25 -46.1 18.15 -46.0 18.1 -45.8 18.05 -44.85 18.0 -44.3 18.45 -44.35 18.5 -44.45 18.55 M-46.55 18.85 L-46.5 18.9 -46.45 19.0 -44.9 19.7 -44.15 20.0 -44.05 20.15 -43.95 20.3 -43.95 20.4 Q-44.8 20.5 -45.75 20.0 L-46.8 19.35 -46.85 19.2 -46.9 19.05 -46.9 19.0 -46.9 18.9 -46.7 18.8 -46.55 18.85" fill="#333333" fill-rule="evenodd" stroke="none"/>
  </g>
</svg>
