<?xml version="1.0" encoding="UTF-8" standalone="no"?>
<svg xmlns:xlink="http://www.w3.org/1999/xlink" height="65.6px" width="107.6px" xmlns="http://www.w3.org/2000/svg">
  <g transform="matrix(1.0, 0.0, 0.0, 1.0, 52.3, -20.3)">
    <path d="M45.3 22.95 L45.7 23.0 45.75 23.25 45.4 23.65 45.25 23.75 39.7 31.9 30.4 45.35 21.1 58.6 11.85 72.2 Q7.5 79.0 2.5 85.1 L2.2 84.85 2.15 84.75 Q3.6 81.9 5.35 79.25 9.95 72.5 14.9 66.1 L17.3 62.75 26.5 49.4 36.0 35.95 45.15 22.9 45.3 22.95" fill="#333333" fill-rule="evenodd" stroke="none"/>
    <path d="M-10.5 25.05 L-10.6 25.35 -10.6 25.6 -10.5 25.85 -10.25 26.2 -7.1 40.8 -3.85 55.65 -0.6 70.6 Q1.1 78.0 2.3 85.4 L2.25 85.45 2.1 85.55 1.8 85.5 Q-0.1 78.35 -1.55 70.9 L-4.65 56.0 -7.75 41.0 Q-9.25 33.5 -11.15 26.1 L-11.15 25.95 -11.25 25.6 -11.25 25.45 -10.9 24.9 Q-10.85 24.75 -10.6 24.75 L-10.5 25.05" fill="#333333" fill-rule="evenodd" stroke="none"/>
    <path d="M11.8 39.3 L8.95 54.25 6.1 69.25 3.25 84.3 2.85 85.65 2.7 85.8 2.5 85.9 2.25 85.7 2.2 85.55 Q3.45 78.1 4.85 70.7 L7.75 55.7 10.6 40.75 13.45 25.7 Q13.65 24.6 14.3 24.35 13.3 31.75 11.8 39.3" fill="#333333" fill-rule="evenodd" stroke="none"/>
    <path d="M-28.25 23.85 L-28.1 24.15 -28.1 24.5 -28.05 24.65 -27.85 24.75 -27.7 24.9 Q-24.1 31.65 -20.65 38.55 L-13.7 52.6 -6.7 66.6 0.35 80.6 1.55 83.5 1.35 83.7 0.85 83.65 -6.0 70.0 -13.05 55.9 -20.05 41.95 -27.05 27.85 -28.25 25.25 -28.35 25.15 Q-28.45 25.05 -28.5 25.05 L-28.55 24.9 -28.65 24.3 -28.35 23.9 -28.25 23.85" fill="#333333" fill-rule="evenodd" stroke="none"/>
    <path d="M2.05 85.05 L1.9 85.05 -7.55 72.1 -17.4 58.8 -26.95 45.6 -29.4 42.3 -39.25 29.3 Q-41.15 26.65 -42.55 23.85 L-42.6 23.7 -42.2 23.5 Q-37.1 29.55 -32.6 36.25 L-23.05 49.7 -13.4 62.85 -3.8 76.15 2.0 84.2 2.1 84.35 2.5 84.75 2.5 84.95 2.05 85.05" fill="#333333" fill-rule="evenodd" stroke="none"/>
    <path d="M-51.95 20.95 Q-46.6 27.0 -41.55 33.35 L-31.2 46.1 -20.75 58.65 -10.3 71.25 -0.1 83.9 0.0 84.2 -0.15 84.45 -0.65 84.6 -11.0 72.2 -21.3 59.4 -31.6 46.7 -42.05 34.1 -52.2 21.5 Q-52.4 21.2 -52.2 21.0 L-51.95 20.95" fill="#333333" fill-rule="evenodd" stroke="none"/>
    <path d="M31.4 23.3 L31.3 23.55 31.25 23.95 31.2 24.05 31.05 24.2 30.9 24.35 24.2 38.1 17.55 52.3 10.9 66.4 4.1 80.55 Q3.45 81.95 3.05 83.5 L3.25 83.65 3.7 83.65 10.3 69.8 16.9 55.65 23.6 41.5 30.25 27.35 31.4 24.7 31.5 24.55 31.7 24.4 31.75 24.3 31.85 23.65 31.45 23.3 31.4 23.3" fill="#333333" fill-rule="evenodd" stroke="none"/>
    <path d="M54.95 20.3 Q49.75 26.5 44.9 32.85 L34.8 45.7 24.7 58.4 14.55 71.1 4.7 83.9 4.55 84.2 4.75 84.5 5.2 84.6 15.25 72.1 25.3 59.25 35.2 46.35 45.35 33.6 55.15 20.85 55.2 20.4 54.95 20.3" fill="#333333" fill-rule="evenodd" stroke="none"/>
  </g>
</svg>
