<?xml version="1.0" encoding="UTF-8" standalone="no"?>
<svg xmlns:xlink="http://www.w3.org/1999/xlink" height="66.65px" width="107.35px" xmlns="http://www.w3.org/2000/svg">
  <g transform="matrix(1.0, 0.0, 0.0, 1.0, 51.8, -20.05)">
    <path d="M-10.75 24.15 L-10.55 24.25 -10.5 24.4 -10.5 24.6 -10.45 24.75 -10.35 24.9 -10.05 26.35 -9.75 27.95 -9.5 29.1 -9.45 29.25 -9.35 29.6 -9.3 29.85 -9.25 30.2 -9.15 30.35 -7.15 40.2 -5.1 50.15 -3.05 60.15 -1.05 70.1 1.0 80.1 1.4 82.0 1.5 82.1 1.7 83.25 1.95 84.35 2.1 85.2 2.2 85.35 2.25 85.7 2.3 86.0 2.4 86.3 2.4 86.45 1.4 86.3 1.4 86.25 1.3 85.95 1.25 85.6 1.2 85.45 1.25 85.3 1.0 84.15 0.8 83.05 0.6 82.2 0.65 82.05 -1.4 72.25 -3.4 62.3 -5.45 52.3 -7.5 42.3 -9.55 32.35 -9.9 30.4 -9.9 30.25 -9.95 29.95 -10.05 29.6 -10.1 29.3 -10.1 29.1 -10.4 27.6 -10.7 26.0 -10.95 24.9 -10.9 24.75 -10.95 24.6 -11.0 24.4 -10.95 24.25 -10.8 24.15 -10.75 24.15" fill="#333333" fill-rule="evenodd" stroke="none"/>
    <path d="M14.3 24.0 L14.4 23.95 14.6 23.9 14.85 24.05 14.95 24.25 14.95 24.35 14.9 24.55 14.85 24.85 14.8 25.2 14.75 25.35 14.8 25.5 14.75 25.7 14.7 26.0 14.65 26.35 14.6 26.5 14.65 26.65 14.45 27.45 14.3 28.4 14.15 29.25 14.15 29.4 14.05 29.9 13.95 30.5 13.85 31.15 13.8 31.35 13.8 31.55 12.6 38.2 11.3 44.95 10.65 48.65 10.55 48.8 8.8 58.25 6.95 68.0 5.95 73.45 5.85 73.65 5.85 73.8 5.8 73.95 5.8 74.15 5.8 74.3 5.75 74.45 5.75 74.6 5.65 74.8 5.1 77.65 4.55 80.7 4.2 82.5 4.15 82.7 4.1 82.85 4.05 83.0 4.05 83.2 3.95 83.3 3.85 83.8 3.8 84.3 3.7 84.75 3.65 84.95 3.7 85.1 3.55 85.9 3.4 86.6 2.5 86.5 2.65 85.65 2.8 84.85 2.9 84.7 2.95 84.35 3.05 83.85 3.1 83.35 3.15 83.2 3.15 83.1 3.15 82.9 3.2 82.75 3.15 82.6 3.7 79.7 4.3 76.6 4.65 74.65 4.65 74.45 4.65 74.3 4.7 74.15 4.7 74.0 4.75 73.8 4.85 73.7 4.8 73.5 6.6 63.8 8.45 53.95 9.45 48.65 9.45 48.45 10.65 41.85 11.9 35.1 12.65 31.2 12.75 31.0 12.8 30.55 12.95 29.85 13.05 29.25 13.1 29.1 13.15 29.0 13.3 28.15 13.5 27.2 13.65 26.4 13.7 26.25 13.75 26.1 13.8 25.75 13.9 25.4 13.9 25.25 14.0 25.1 14.0 24.95 14.05 24.75 14.1 24.6 14.1 24.45 14.15 24.25 14.15 24.15 14.3 24.0" fill="#333333" fill-rule="evenodd" stroke="none"/>
    <path d="M-27.95 24.2 L-27.85 24.05 -27.55 24.05 -27.45 24.1 -27.35 24.25 -27.3 24.45 -27.25 24.6 -27.25 24.75 -27.2 25.0 -27.15 25.1 -27.1 25.25 -27.0 25.4 -26.9 25.5 -25.6 28.15 -24.25 30.95 -23.45 32.55 -23.4 32.8 -19.8 40.15 -16.2 47.5 -14.2 51.6 -14.05 51.75 -13.65 52.6 -13.15 53.65 -12.75 54.4 -12.65 54.55 -12.25 55.3 -11.85 56.15 -11.5 56.9 -11.35 57.0 -11.15 57.45 -10.85 58.05 -10.55 58.6 -10.5 58.75 -10.4 58.95 -7.55 64.8 -4.6 70.85 -2.85 74.4 -2.8 74.55 -2.3 75.55 -1.7 76.75 -1.2 77.75 -1.15 78.0 -0.75 78.85 -0.25 79.9 0.1 80.65 0.15 80.8 0.8 82.15 1.5 83.6 2.1 84.75 2.1 84.95 2.15 85.1 2.25 85.25 2.25 85.4 2.25 85.6 1.95 85.8 1.75 85.7 1.65 85.6 1.55 85.5 1.45 85.3 0.8 84.0 0.05 82.5 -0.55 81.3 -0.65 81.2 -1.1 80.35 -1.6 79.3 -2.0 78.45 -2.1 78.25 -2.6 77.25 -3.15 76.05 -3.65 75.05 -3.8 74.9 -6.75 68.85 -9.75 62.65 -11.4 59.3 -11.45 59.1 -11.65 58.65 -11.95 58.1 -12.25 57.5 -12.3 57.35 -12.35 57.2 -12.75 56.45 -13.2 55.55 -13.55 54.85 -13.55 54.65 -14.0 53.75 -14.5 52.75 -14.85 51.95 -14.9 51.85 -18.4 44.6 -22.0 37.25 -24.05 33.15 -24.15 33.0 -25.45 30.3 -26.8 27.5 -27.7 25.7 -27.7 25.6 -27.8 25.45 -27.85 25.3 -27.95 25.15 -28.0 25.0 -28.0 24.8 -28.05 24.65 -28.05 24.45 -28.05 24.25 -27.95 24.2" fill="#333333" fill-rule="evenodd" stroke="none"/>
    <path d="M-42.55 22.8 L-42.3 22.85 -42.15 22.95 -42.2 23.15 -42.2 23.35 -42.2 23.6 -42.15 23.7 -42.05 23.8 -41.95 24.0 -41.85 24.1 -41.7 24.25 -41.05 25.15 -40.25 26.2 -39.7 27.0 -39.55 27.1 -39.45 27.25 -39.35 27.35 -39.25 27.5 -39.1 27.65 -34.2 34.4 -29.15 41.45 -26.25 45.45 -26.2 45.6 -22.05 51.35 -17.85 57.15 -15.45 60.5 -15.3 60.65 -14.25 62.1 -13.1 63.7 -12.2 64.9 -12.1 64.95 -6.35 72.95 -0.4 81.2 3.55 86.7 2.2 86.55 -2.15 80.5 -8.05 72.3 -13.0 65.5 -13.0 65.3 -14.1 63.8 -15.25 62.25 -16.1 61.0 -16.15 60.9 -20.2 55.3 -24.4 49.5 -26.8 46.15 -26.95 46.0 -31.95 39.1 -37.05 32.05 -39.95 28.05 -39.95 27.9 -40.05 27.8 -40.15 27.65 -40.25 27.5 -40.3 27.35 -40.95 26.4 -41.75 25.35 -42.3 24.55 -42.4 24.35 -42.5 24.2 -42.6 24.1 -42.7 23.95 -42.8 23.85 -42.85 23.7 -42.8 23.45 -42.75 23.25 -42.75 23.05 -42.6 22.85 -42.55 22.8" fill="#333333" fill-rule="evenodd" stroke="none"/>
    <path d="M-51.55 22.25 L-51.4 22.35 -51.35 22.5 -51.35 22.65 -51.35 22.9 -51.15 22.95 -50.9 23.2 -50.7 23.45 -50.5 23.7 -50.35 23.8 -49.95 24.3 -49.5 24.8 -49.1 25.3 -48.9 25.4 -48.4 26.0 -47.85 26.65 -47.35 27.3 -47.25 27.35 -47.1 27.5 -44.05 31.15 -40.9 34.95 -39.0 37.2 -38.85 37.25 -36.75 39.8 -34.5 42.45 -33.3 43.95 -33.15 44.0 -33.0 44.15 -32.9 44.25 -32.8 44.4 -32.7 44.55 -32.6 44.65 -32.55 44.8 -32.45 44.95 -32.25 45.05 -30.7 46.9 -29.15 48.8 -28.1 50.05 -28.0 50.15 -24.7 54.1 -21.35 58.15 -19.45 60.4 -19.3 60.45 -17.8 62.25 -16.25 64.1 -15.2 65.35 -15.15 65.55 -10.6 71.0 -6.0 76.5 -3.4 79.65 -3.25 79.8 -2.1 81.15 -0.95 82.55 -0.1 83.55 -0.05 83.75 0.1 83.8 0.2 83.95 0.35 84.1 0.45 84.2 0.45 84.35 1.45 85.5 2.3 86.55 1.0 86.4 0.65 86.0 -0.1 85.1 -0.25 85.0 -1.6 83.35 -3.1 81.6 -4.0 80.5 -4.1 80.4 -8.65 74.95 -13.25 69.45 -15.9 66.3 -16.05 66.15 -17.65 64.3 -19.2 62.4 -20.25 61.15 -20.35 61.0 -23.55 57.1 -26.95 53.05 -28.85 50.8 -28.95 50.65 -30.5 48.75 -32.1 46.85 -33.15 45.6 -33.2 45.45 -33.35 45.35 -33.6 45.05 -33.75 44.85 -34.0 44.55 -34.05 44.45 -36.15 41.95 -38.35 39.3 -39.6 37.8 -39.7 37.6 -42.7 33.95 -45.85 30.2 -47.8 27.9 -47.8 27.7 -47.9 27.6 -48.45 26.95 -49.0 26.35 -49.5 25.75 -49.55 25.55 -50.0 25.05 -50.4 24.55 -50.8 24.05 -50.85 23.85 -51.0 23.7 -51.1 23.6 -51.2 23.5 -51.3 23.35 -51.45 23.25 -51.65 23.25 -51.75 23.15 -51.8 22.95 -51.75 22.7 -51.75 22.5 -51.65 22.3 -51.55 22.25" fill="#333333" fill-rule="evenodd" stroke="none"/>
    <path d="M31.85 22.45 L31.85 22.25 31.85 22.05 31.8 22.0 31.65 21.85 31.4 21.85 Q31.3 21.8 31.3 21.9 L31.15 22.05 31.15 22.25 31.1 22.4 31.1 22.55 31.05 22.8 30.95 22.9 30.9 23.05 30.85 23.2 30.75 23.3 29.55 25.95 28.3 28.75 27.55 30.35 27.5 30.6 24.15 37.95 20.8 45.3 18.9 49.4 18.85 49.55 18.45 50.4 18.0 51.45 17.65 52.2 17.5 52.35 17.15 53.1 16.8 53.95 16.45 54.7 16.35 54.8 16.1 55.25 15.85 55.85 15.6 56.4 15.55 56.55 15.4 56.75 12.75 62.6 9.95 68.65 8.35 72.2 8.35 72.35 7.9 73.35 7.35 74.55 6.9 75.55 6.85 75.8 6.45 76.65 6.0 77.7 5.65 78.45 5.65 78.6 5.0 79.95 4.35 81.4 3.8 82.55 3.75 82.75 3.7 82.9 3.6 83.05 3.6 83.2 3.65 83.4 3.95 83.6 4.15 83.5 4.25 83.4 4.3 83.3 4.45 83.1 5.05 81.8 5.7 80.3 6.25 79.1 6.35 79.0 6.75 78.15 7.25 77.1 7.65 76.25 7.75 76.05 8.25 75.05 8.75 73.85 9.25 72.85 9.35 72.7 12.1 66.65 14.9 60.45 16.45 57.1 16.45 56.9 16.7 56.45 16.95 55.9 17.2 55.3 17.25 55.15 17.3 55.0 17.65 54.25 18.05 53.35 18.35 52.65 18.35 52.45 18.8 51.55 19.25 50.55 19.6 49.75 19.6 49.65 22.9 42.4 26.25 35.05 28.1 30.95 28.2 30.8 29.45 28.1 30.7 25.3 31.55 23.5 31.55 23.4 31.6 23.25 31.65 23.1 31.75 22.95 31.8 22.8 31.8 22.6 31.85 22.45" fill="#333333" fill-rule="evenodd" stroke="none"/>
    <path d="M46.35 20.65 L46.25 20.6 46.05 20.65 45.9 20.75 45.95 20.95 45.95 21.15 46.0 21.4 45.9 21.5 45.8 21.6 45.7 21.8 45.65 21.9 45.5 22.05 44.85 22.95 44.15 24.0 43.55 24.8 43.45 24.9 43.35 25.05 43.25 25.15 43.15 25.3 43.0 25.45 38.35 32.2 33.5 39.25 30.75 43.25 30.7 43.4 26.75 49.15 22.75 54.95 20.45 58.3 20.3 58.45 19.3 59.9 18.2 61.5 17.4 62.7 17.25 62.75 11.75 70.75 6.1 79.0 2.3 84.5 3.7 84.35 7.85 78.3 13.5 70.1 18.15 63.3 18.2 63.1 19.2 61.6 20.3 60.05 21.15 58.8 21.2 58.7 25.0 53.1 29.05 47.3 31.35 43.95 31.45 43.8 36.25 36.9 41.05 29.85 43.85 25.85 43.85 25.7 43.95 25.6 44.05 25.45 44.15 25.3 44.25 25.15 44.85 24.2 45.6 23.15 46.15 22.35 46.2 22.15 46.3 22.0 46.4 21.9 46.45 21.75 46.55 21.65 46.6 21.5 46.55 21.25 46.5 21.05 46.5 20.85 46.35 20.65" fill="#333333" fill-rule="evenodd" stroke="none"/>
    <path d="M55.45 20.1 L55.35 20.05 55.15 20.15 55.15 20.3 55.15 20.45 55.1 20.7 54.95 20.75 54.7 21.0 54.55 21.25 54.3 21.5 54.2 21.6 53.8 22.1 53.4 22.6 53.0 23.1 52.8 23.2 52.3 23.8 51.8 24.45 51.3 25.1 51.15 25.15 51.0 25.3 48.1 28.95 45.05 32.75 43.25 35.0 43.15 35.05 41.1 37.6 39.0 40.25 37.8 41.75 37.65 41.8 37.55 41.95 37.45 42.05 37.35 42.2 37.25 42.35 37.15 42.45 37.1 42.6 37.0 42.75 36.85 42.85 35.35 44.7 33.8 46.6 32.8 47.85 32.65 47.95 29.55 51.9 26.3 55.95 24.5 58.2 24.35 58.25 22.9 60.05 21.4 61.9 20.4 63.15 20.35 63.35 16.0 68.8 11.6 74.3 9.05 77.45 9.0 77.6 7.9 78.95 6.8 80.35 6.0 81.35 5.9 81.55 5.8 81.6 5.7 81.75 5.55 81.9 5.45 82.0 5.45 82.15 4.5 83.3 3.7 84.35 4.95 84.2 5.3 83.8 6.0 82.9 6.15 82.8 7.45 81.15 8.9 79.4 9.75 78.3 9.85 78.2 14.2 72.75 18.65 67.25 21.15 64.1 21.35 63.95 22.85 62.1 24.35 60.2 25.35 58.95 25.4 58.8 28.5 54.9 31.75 50.85 33.6 48.6 33.65 48.45 35.2 46.55 36.7 44.65 37.7 43.4 37.75 43.25 37.9 43.15 38.1 42.85 38.3 42.65 38.5 42.35 38.55 42.25 40.6 39.75 42.7 37.1 43.9 35.6 43.95 35.4 46.9 31.75 49.9 28.0 51.75 25.7 51.8 25.5 51.8 25.4 52.35 24.75 52.85 24.15 53.3 23.55 53.45 23.35 53.85 22.85 54.25 22.35 54.65 21.85 54.7 21.65 54.8 21.5 54.9 21.4 55.0 21.3 55.1 21.15 55.25 21.05 55.45 21.05 55.55 20.95 55.55 20.75 55.55 20.5 55.55 20.3 55.45 20.1" fill="#333333" fill-rule="evenodd" stroke="none"/>
  </g>
</svg>
