<?xml version="1.0" encoding="UTF-8" standalone="no"?>
<svg xmlns:xlink="http://www.w3.org/1999/xlink" height="234.7px" width="234.0px" xmlns="http://www.w3.org/2000/svg">
  <g transform="matrix(1.0, 0.0, 0.0, 1.0, 2.25, 2.15)">
    <path d="M196.3 196.3 Q162.65 230.0 115.0 230.0 67.35 230.0 33.7 196.3 0.0 162.65 0.0 115.0 0.0 67.35 33.7 33.7 67.35 0.0 115.0 0.0 162.65 0.0 196.3 33.7 230.0 67.35 230.0 115.0 230.0 162.65 196.3 196.3" fill="#65b3a0" fill-rule="evenodd" stroke="none"/>
    <path d="M216.55 60.4 Q217.2 60.3 215.1 58.7 213.0 57.1 213.0 55.45 213.0 53.85 212.0 53.15 211.05 52.45 210.25 50.45 L208.9 46.85 Q208.35 45.25 207.25 44.85 206.2 44.45 205.0 42.6 203.85 40.8 202.5 40.3 201.15 39.85 200.3 39.2 L198.7 37.55 Q197.95 36.55 198.15 35.3 198.35 34.1 196.3 33.7 L193.95 31.3 191.95 29.2 190.0 27.3 Q188.65 26.15 187.45 25.65 186.25 25.2 185.05 23.55 L183.25 21.45 181.4 20.2 Q180.15 19.45 178.25 18.95 176.4 18.45 175.35 17.5 L173.3 15.6 Q172.3 14.65 171.4 13.3 170.5 12.0 168.2 11.75 165.95 11.55 165.5 10.85 165.05 10.2 163.45 9.7 L159.8 8.7 M223.7 153.85 Q222.7 152.4 223.6 151.05 L225.25 148.0 226.3 145.75 226.95 143.55 227.6 139.95 228.25 136.5 Q228.6 135.1 228.1 133.55 227.6 132.0 228.45 130.65 229.3 129.3 229.4 126.95 229.5 124.65 229.2 124.2 228.9 123.75 229.15 121.85 L229.65 118.85 229.95 116.9 230.0 115.0 229.85 112.5 Q229.9 111.7 229.35 109.3 228.85 106.9 229.3 105.7 L230.1 102.9 Q230.4 101.35 230.0 99.7 229.65 98.1 228.5 96.85 227.35 95.65 227.9 94.2 228.45 92.75 228.3 91.3 228.2 89.9 227.5 88.4 L226.05 85.5 Q225.3 84.1 224.7 82.05 L223.9 79.0 Q223.65 78.0 224.25 76.5 224.9 75.05 223.6 74.25 222.35 73.45 221.8 71.75 L220.85 68.7 Q220.45 67.3 219.6 66.05 L218.1 63.3 M175.35 213.15 Q176.6 211.6 178.15 210.8 179.7 210.05 180.55 209.25 181.45 208.45 182.6 207.9 183.8 207.35 185.65 207.0 187.5 206.65 188.1 205.1 L189.4 202.35 Q190.1 201.1 191.55 200.35 L193.85 198.95 Q194.65 198.35 195.3 197.15 195.95 196.0 196.3 196.3 197.2 195.05 198.3 194.8 199.4 194.55 200.7 193.25 202.05 191.95 202.95 190.25 203.9 188.55 204.4 188.2 204.95 187.9 205.4 185.6 205.85 183.35 207.35 183.0 208.85 182.7 210.15 181.1 211.5 179.5 211.55 177.6 211.65 175.75 213.0 175.0 214.4 174.3 214.4 172.35 214.4 170.4 215.55 169.8 216.75 169.25 217.8 167.55 L219.2 164.95 220.6 162.05 Q221.65 160.05 222.35 159.7 223.05 159.35 222.55 156.9 M156.8 7.45 L154.15 6.65 150.75 5.8 147.45 5.25 Q146.15 5.05 145.35 4.0 144.55 2.95 143.4 2.8 142.25 2.7 140.65 1.8 139.1 0.95 136.7 1.2 L133.9 1.5 131.2 1.0 Q128.85 0.55 127.6 1.05 L124.75 0.95 Q123.1 0.3 121.75 0.95 120.4 1.6 118.8 1.3 117.25 1.05 117.15 0.45 117.1 -0.15 115.0 0.0 L112.0 -0.5 Q109.15 -1.0 108.55 0.2 108.0 1.4 105.7 1.3 103.45 1.25 102.7 0.4 L100.3 0.45 Q98.7 1.4 96.75 1.35 L93.85 1.75 91.15 1.7 Q89.45 1.2 88.05 2.5 86.65 3.85 84.9 4.6 L81.5 4.75 Q79.9 4.2 79.55 4.9 79.25 5.65 77.45 6.15 L74.1 6.85 Q72.5 7.05 71.35 8.25 M68.35 9.5 Q68.5 10.2 66.15 11.2 63.8 12.25 62.6 12.5 61.4 12.8 60.25 13.45 L58.45 14.25 Q57.8 14.35 55.85 15.85 L52.85 18.15 50.4 19.75 47.7 21.5 45.4 23.35 43.0 25.2 Q41.6 26.1 40.8 26.9 L38.7 28.9 36.25 31.25 M33.7 33.7 Q32.65 35.8 31.75 36.55 L29.15 38.2 Q27.45 39.15 27.3 40.8 27.2 42.45 26.55 43.05 L23.85 44.95 Q21.75 46.25 21.3 47.35 20.9 48.45 20.0 49.2 19.1 49.95 18.65 50.95 L17.1 54.05 15.25 57.4 Q14.55 58.65 13.65 59.25 12.75 59.9 12.2 61.85 L11.0 65.35 Q10.35 66.95 9.3 67.6 8.3 68.25 8.0 70.75 7.7 73.25 7.45 73.4 M6.3 76.45 L5.5 79.35 4.6 82.4 Q4.15 84.1 4.2 85.2 4.25 86.35 3.0 87.55 1.75 88.8 1.75 90.7 L1.75 94.25 Q1.75 95.9 1.05 97.2 L-0.25 100.05 Q-0.8 101.65 -0.65 103.75 -0.5 105.85 0.35 107.05 1.2 108.3 0.65 108.7 L-0.45 109.95 Q-1.0 110.85 0.0 115.0 -1.15 117.95 -0.55 118.3 0.05 118.7 0.05 121.2 0.1 123.75 0.3 124.55 0.55 125.4 0.35 126.95 0.15 128.5 1.15 129.45 2.2 130.45 1.9 132.4 1.65 134.4 1.9 135.8 L2.35 138.7 Q2.55 140.2 3.4 141.85 4.3 143.5 4.4 145.05 4.5 146.6 5.3 147.4 6.15 148.25 5.8 150.5 5.5 152.8 5.6 153.85 5.7 154.9 7.25 156.7 8.85 158.55 8.9 159.6 9.0 160.65 9.6 161.95 M11.0 164.95 Q12.2 165.4 12.1 166.9 12.05 168.4 13.25 170.25 L15.45 173.25 Q16.4 174.45 16.35 175.6 16.35 176.8 17.9 178.6 L20.4 181.25 22.85 183.2 24.85 184.75 26.75 187.1 28.5 189.8 29.85 192.0 31.4 194.7 Q31.95 196.0 33.7 196.3 34.8 196.85 35.85 198.1 36.9 199.4 38.0 199.65 39.1 199.95 40.15 201.65 41.25 203.4 43.1 203.8 44.95 204.25 45.5 205.75 46.1 207.3 47.4 208.2 L49.9 210.0 52.55 211.75 55.05 213.35 57.3 214.95 Q58.55 215.85 60.1 216.45 61.65 217.05 62.8 218.2 L64.75 220.05 Q65.55 220.75 67.5 221.0 L70.85 221.6 M73.95 222.85 Q75.45 224.55 76.85 223.95 78.25 223.35 79.7 224.3 81.15 225.25 82.6 225.65 84.1 226.1 85.2 226.65 L88.3 228.05 Q90.25 228.9 91.25 228.45 L94.8 227.95 98.15 228.35 101.05 228.4 Q103.15 227.9 103.8 228.75 104.5 229.6 106.25 229.7 108.05 229.8 109.45 230.55 110.9 231.3 111.7 230.95 112.5 230.6 115.0 230.0 L118.25 230.3 120.7 230.1 123.45 229.2 127.1 229.0 Q128.85 229.35 130.85 229.05 132.85 228.75 133.7 227.95 134.55 227.15 135.8 227.25 L138.6 227.85 Q140.15 228.4 141.45 227.1 142.75 225.8 145.0 225.85 L148.25 225.5 150.2 224.2 Q151.1 223.3 152.95 222.7 L156.3 221.7 159.2 221.2 162.05 221.0 Q163.45 220.95 164.8 219.65 166.15 218.4 167.3 217.65 168.45 216.95 169.95 216.4 171.5 215.9 172.55 214.9" fill="none" stroke="#65b3a0" stroke-linecap="round" stroke-linejoin="round" stroke-width="3.0"/>
  </g>
</svg>
