<?xml version="1.0" encoding="UTF-8" standalone="no"?>
<svg xmlns:xlink="http://www.w3.org/1999/xlink" height="26.0px" width="27.35px" xmlns="http://www.w3.org/2000/svg">
  <g transform="matrix(1.0, 0.0, 0.0, 1.0, 13.4, 13.0)">
    <path d="M13.95 -2.25 Q13.95 1.75 11.7 5.95 8.25 12.45 1.2 12.45 -3.3 12.45 -5.75 9.95 -7.65 7.95 -7.65 5.6 -11.3 5.55 -12.2 4.3 -12.5 3.9 -12.5 2.25 L-11.65 -1.7 Q-10.85 -5.3 -10.85 -7.65 -10.85 -9.05 -6.95 -10.05 -3.05 -11.05 1.55 -10.8 13.95 -10.2 13.95 -2.25" fill="#333333" fill-rule="evenodd" stroke="none"/>
    <path d="M3.6 -1.85 L4.25 -2.3 4.95 -2.6 Q6.3 -2.6 6.05 -0.8 L5.75 1.5 7.1 1.7 7.55 1.4 8.4 1.1 Q10.05 1.1 10.45 2.7 10.65 3.5 10.5 4.35 10.5 6.1 8.95 8.1 6.45 11.25 1.55 11.25 L-3.15 10.95 Q-5.1 10.95 -6.0 9.3 L-6.75 7.25 Q-8.35 5.0 -10.2 4.2 -11.1 3.8 -11.7 3.85 -11.7 2.3 -10.25 0.15 -8.7 -2.15 -6.75 -3.3 -0.6 -6.95 0.25 -5.55 0.3 -3.3 1.65 -3.3 2.35 -3.3 3.6 -1.85 M6.75 6.8 L6.65 6.9 7.5 6.35 6.95 6.0 6.75 6.8 M-9.8 2.4 L-9.75 2.45 Q-9.75 2.0 -9.9 1.95 L-9.8 2.4" fill="#333333" fill-rule="evenodd" stroke="none"/>
    <path d="M-4.05 -0.7 Q-3.75 -0.1 -3.75 0.45 -1.3 -2.35 1.4 -2.15 3.9 -1.95 3.9 0.1 L3.6 3.5 3.5 3.6 4.35 3.35 Q5.7 3.35 5.55 5.1 L6.75 4.8 7.9 4.5 Q9.55 4.5 9.45 5.6 L8.8 8.1 Q7.7 10.5 5.4 10.5 4.8 10.5 4.55 10.1 L4.25 9.6 Q3.8 9.8 2.1 11.05 0.95 11.85 -0.75 11.85 -1.15 11.85 -5.05 9.5 -9.0 7.15 -9.0 6.8 L-8.85 6.3 -8.4 5.7 -8.85 4.95 -8.9 4.4 Q-8.9 3.15 -8.15 1.2 -7.1 -1.55 -5.4 -1.55 -4.55 -1.55 -4.05 -0.7" fill="#333333" fill-rule="evenodd" stroke="none"/>
    <path d="M-7.95 -1.7 Q-7.85 0.25 -7.05 2.75 L-6.3 5.1 -6.45 5.25 Q-8.7 3.9 -8.7 0.75 L-8.65 -0.7 Q-8.5 -1.65 -7.95 -1.7 M-1.35 1.7 L-1.25 1.7 -1.2 1.95 Q-1.2 2.4 -1.55 3.3 -1.95 4.2 -1.95 4.75 -1.95 5.95 -1.3 7.8 -0.75 9.55 -0.05 10.55 -1.35 9.6 -2.1 7.8 -2.7 6.3 -2.7 4.75 -2.7 2.1 -1.35 1.7 M-3.8 3.45 Q-3.8 5.35 -3.45 6.8 L-2.1 10.25 -2.05 10.4 -2.3 10.5 Q-3.45 10.5 -4.5 6.65 -4.5 4.8 -4.05 3.0 -3.8 3.1 -3.8 3.45 M-9.8 2.25 L-9.6 2.75 -9.3 3.35 -9.45 3.6 -10.2 2.5 -10.5 1.75 Q-10.5 1.35 -9.9 1.2 L-9.8 2.25 M-0.5 5.15 L0.45 5.1 0.35 5.2 Q0.2 5.25 0.2 5.5 L0.4 6.95 1.65 8.85 1.55 9.05 1.4 9.15 Q0.4 9.15 -0.6 6.3 L-0.5 5.15" fill="#333333" fill-rule="evenodd" stroke="none"/>
    <path d="M5.3 -11.75 Q3.85 -11.75 3.3 -10.7 3.0 -10.2 3.0 -9.65 L3.05 -9.4 3.45 -9.1 3.2 -8.85 3.25 -8.65 3.05 -8.4 Q2.85 -8.25 2.7 -8.25 2.1 -8.25 1.95 -8.95 L1.95 -9.35 0.9 -9.85 Q-1.55 -10.9 -3.65 -10.9 -7.55 -10.9 -9.45 -8.45 L-10.4 -6.65 -10.6 -5.2 -10.55 -4.5 -9.65 -5.15 -9.35 -4.9 -10.5 -3.7 -10.4 -3.35 Q-10.35 -3.25 -10.6 -3.25 L-10.75 -3.25 -11.6 -1.65 Q-12.4 0.25 -12.4 1.8 -12.4 3.4 -11.6 4.55 -10.4 6.25 -7.75 6.6 -7.25 5.6 -6.35 6.4 L-6.3 6.55 -6.7 7.1 Q-7.1 7.55 -7.1 8.0 -7.1 11.05 0.95 11.75 L3.4 11.35 5.45 10.65 5.5 10.65 5.55 10.8 Q5.55 11.6 3.35 12.35 L0.3 13.0 Q-3.35 13.0 -5.95 11.25 -8.2 9.7 -8.2 8.2 L-8.05 7.4 -8.55 7.35 Q-11.45 7.35 -12.7 4.85 -13.4 3.4 -13.4 1.8 -13.4 -0.15 -12.55 -1.9 L-11.25 -3.85 -11.35 -4.15 -11.35 -5.1 Q-11.45 -6.7 -10.9 -7.3 -10.55 -9.8 -6.75 -11.4 -2.55 -13.1 2.0 -10.15 2.3 -14.0 6.5 -12.65 11.05 -11.2 11.05 -7.6 L10.8 -6.15 10.65 -5.45 Q11.35 -5.8 11.95 -4.9 L12.85 -3.15 13.4 -1.45 13.45 0.15 Q13.45 2.0 12.5 3.85 11.45 5.95 9.6 7.15 L11.55 3.65 Q12.5 1.65 12.5 0.1 L12.2 -2.4 10.5 -4.9 10.45 -4.75 10.35 -4.85 Q10.05 -5.2 10.05 -5.45 L10.25 -6.1 Q10.25 -7.5 9.5 -9.05 8.2 -11.75 5.3 -11.75" fill="#333333" fill-rule="evenodd" stroke="none"/>
  </g>
</svg>
