<?xml version="1.0" encoding="UTF-8" standalone="no"?>
<svg xmlns:xlink="http://www.w3.org/1999/xlink" height="18.75px" width="17.3px" xmlns="http://www.w3.org/2000/svg">
  <g transform="matrix(1.0, 0.0, 0.0, 1.0, 7.5, 9.8)">
    <path d="M-3.85 -9.55 L-3.7 -9.6 -3.65 -9.65 -3.5 -9.7 -3.35 -9.75 -3.1 -9.8 -2.6 -9.75 -1.9 -9.45 -1.05 -8.6 -0.7 -7.65 -0.7 -7.6 -0.75 -7.5 -0.75 -7.45 -0.8 -6.95 Q-0.7 -6.4 -1.05 -6.0 L-1.6 -5.35 -1.7 -5.3 -1.9 -5.15 -2.1 -5.15 1.3 -1.5 5.55 3.05 5.75 3.25 5.75 3.2 5.95 3.05 Q6.55 2.6 7.3 2.55 7.85 2.5 8.25 2.8 L9.15 3.4 9.65 4.3 9.8 5.05 9.75 5.15 9.7 5.3 9.7 5.35 9.65 5.5 9.6 5.55 9.5 5.65 9.45 5.75 9.3 5.95 9.1 6.15 9.05 6.25 9.0 6.3 9.0 6.35 8.95 6.4 8.9 6.5 8.85 6.55 8.75 6.65 8.75 6.7 8.65 6.8 8.55 6.9 Q7.85 7.3 7.15 6.9 L6.45 6.4 6.3 6.3 6.15 6.2 6.4 6.8 Q6.65 7.5 6.3 8.1 L6.2 8.2 6.15 8.25 6.05 8.35 5.95 8.45 5.85 8.65 5.8 8.7 5.6 8.8 5.2 8.9 4.15 8.9 3.15 8.1 2.8 7.7 2.75 7.35 2.6 6.8 2.65 6.25 2.65 6.2 2.65 6.1 2.65 6.05 2.7 6.0 2.75 5.9 2.8 5.85 2.9 5.75 2.95 5.7 3.05 5.6 3.15 5.45 3.2 5.45 2.45 4.7 1.25 3.2 -1.85 -0.35 -3.1 -1.7 -4.15 -2.75 -5.05 -2.95 -5.75 -3.15 Q-6.75 -3.55 -7.35 -4.5 L-7.4 -4.6 -7.5 -5.0 -7.5 -5.1 -7.5 -5.15 -7.45 -5.25 -7.45 -5.3 -7.45 -5.4 -7.45 -5.5 -7.5 -5.7 -7.45 -5.75 -7.4 -5.85 -7.4 -5.9 -7.35 -5.95 -7.3 -6.05 -7.25 -6.2 -7.2 -6.4 -7.1 -6.5 -6.85 -6.8 -6.6 -7.05 Q-6.45 -7.15 -6.25 -7.2 L-6.15 -7.2 -5.4 -6.95 -5.15 -6.8 -5.05 -6.75 -4.85 -6.7 -4.9 -6.85 -4.95 -6.9 -5.05 -7.1 -5.1 -7.25 -5.1 -7.45 -5.15 -7.55 -5.1 -7.6 -5.1 -7.65 -5.05 -7.75 -5.0 -7.8 -5.0 -7.9 -5.0 -8.0 -5.0 -8.1 -5.0 -8.2 -5.0 -8.3 -4.95 -8.35 -4.95 -8.4 -4.9 -8.45 -4.8 -8.55 -4.75 -8.6 -4.6 -8.8 -4.45 -8.95 -4.35 -9.05 -4.3 -9.1 -4.25 -9.15 -4.15 -9.15 -4.1 -9.2 -4.05 -9.25 -4.05 -9.3 -4.0 -9.35 -3.95 -9.4 -3.9 -9.45 -3.85 -9.55" fill="#ffffff" fill-rule="evenodd" stroke="none"/>
  </g>
</svg>
