<?xml version="1.0" encoding="UTF-8" standalone="no"?>
<svg xmlns:xlink="http://www.w3.org/1999/xlink" height="25.65px" width="28.0px" xmlns="http://www.w3.org/2000/svg">
  <g transform="matrix(1.0, 0.0, 0.0, 1.0, 13.4, 12.55)">
    <path d="M9.25 -9.55 L9.45 -9.3 9.65 -9.0 9.75 -8.85 9.85 -8.7 9.95 -8.55 10.05 -8.4 10.05 -8.3 10.15 -8.15 10.2 -8.0 10.2 -7.85 10.2 -7.7 10.2 -7.3 10.2 -7.0 10.2 -6.7 10.2 -6.3 10.2 -5.85 10.2 -5.75 10.2 -5.6 10.15 -5.45 10.05 -5.15 10.05 -5.0 10.0 -4.85 9.95 -4.75 9.95 -4.65 10.45 -4.45 10.9 -4.3 11.25 -4.15 11.45 -4.05 11.85 -3.75 12.25 -3.45 12.45 -3.3 12.7 -3.2 12.95 -3.15 13.25 -3.05 13.5 -2.95 13.6 -2.8 13.75 -2.65 13.8 -2.5 13.9 -2.35 13.95 -2.2 14.0 -2.1 14.0 -1.95 14.0 -1.65 14.0 -1.35 14.0 -1.25 14.0 -1.1 14.0 -0.95 14.0 -0.8 14.0 -0.65 14.05 -0.5 14.1 -0.35 14.1 -0.25 14.15 -0.1 14.15 0.05 14.15 0.35 14.15 0.6 14.15 0.75 14.15 0.9 14.15 1.05 14.15 1.35 14.15 1.45 14.1 1.6 14.1 1.75 14.0 1.9 13.95 2.05 13.85 2.2 13.75 2.3 13.7 2.45 13.65 2.6 13.05 3.3 12.1 3.85 10.95 4.45 10.7 4.55 10.55 4.6 10.55 4.9 10.55 5.3 10.55 5.85 10.55 6.0 10.5 6.15 10.5 6.3 10.45 6.45 10.4 6.75 10.35 7.0 10.25 7.15 10.2 7.3 10.1 7.45 10.05 7.6 10.0 7.7 9.9 7.85 9.85 8.0 9.75 8.15 9.65 8.3 9.55 8.45 9.45 8.55 Q6.45 10.55 3.0 11.45 -2.15 12.75 -6.55 10.15 L-6.7 10.0 -6.95 9.7 -7.4 9.3 -7.65 9.0 -7.7 8.85 -7.75 8.7 -7.8 8.55 -7.8 8.45 -7.8 8.15 -7.8 7.7 -7.8 7.3 -7.8 7.0 -7.8 6.85 Q-7.95 6.55 -8.5 6.55 -10.2 6.5 -11.65 5.6 L-13.1 4.15 -13.15 4.05 -13.2 3.9 -13.25 3.75 -13.25 3.6 -13.25 3.45 -13.25 3.05 -13.25 2.45 -13.25 2.05 -13.25 1.75 -13.25 1.35 -13.25 1.2 -13.2 1.05 -13.15 0.9 -13.1 0.75 -13.0 0.6 -12.95 0.5 -12.85 0.35 -12.75 0.2 -12.7 0.05 -12.6 -0.1 -12.55 -0.25 -12.55 -0.4 -12.55 -0.5 -12.55 -0.65 -12.55 -0.95 -12.55 -1.25 -12.5 -1.35 -12.45 -1.5 -12.4 -1.65 -12.4 -1.8 -12.35 -1.95 -12.3 -2.1 -12.25 -2.2 -12.2 -2.35 -12.1 -2.5 -12.0 -2.65 -11.9 -2.8 -11.85 -2.95 -11.75 -3.05 -11.7 -3.2 -11.6 -3.35 -10.95 -3.95 -9.85 -4.6 -9.6 -4.75 -9.6 -4.85 -9.6 -5.0 -9.6 -5.15 -9.6 -5.3 -9.6 -5.6 -9.6 -5.85 -9.6 -6.15 -9.6 -6.3 -9.6 -6.45 -9.55 -6.6 -9.55 -6.7 -9.45 -7.0 -9.35 -7.3 -9.35 -7.45 -9.25 -7.55 -9.2 -7.7 -9.1 -7.85 -9.05 -8.0 -8.65 -8.6 -6.9 -10.1 Q-5.45 -11.05 -3.7 -11.2 L-3.45 -11.25 -3.4 -11.25 -1.7 -11.2 -0.15 -10.9 0.75 -10.7 1.0 -10.55 1.65 -10.2 2.35 -9.4 2.4 -9.35 2.55 -9.5 2.6 -9.65 2.7 -9.8 2.95 -10.1 3.2 -10.35 3.3 -10.5 3.45 -10.65 3.7 -10.8 3.9 -10.95 4.2 -11.1 4.4 -11.1 4.65 -11.15 4.7 -11.15 6.15 -11.05 7.4 -10.8 8.25 -10.4 8.4 -10.3 8.6 -10.1 8.75 -10.0 9.0 -9.85 9.15 -9.7 9.25 -9.55 M-1.95 -5.75 L-2.55 -5.8 -2.5 -5.75 -1.95 -5.75 M-0.25 7.55 L-0.25 7.65 -0.25 7.8 -0.25 7.95 -0.15 7.9 -0.05 7.8 -0.05 7.65 -0.05 7.55 -0.15 7.4 -0.2 7.35 -0.25 7.4 -0.25 7.55" fill="#333333" fill-rule="evenodd" stroke="none"/>
    <path d="M1.15 -0.35 L1.4 -0.2 2.5 0.5 3.2 1.1 3.5 1.5 3.55 1.65 3.65 1.8 3.75 1.95 3.8 2.1 3.9 2.25 3.95 2.35 4.0 2.5 4.05 2.65 4.1 2.8 4.15 2.95 4.25 3.1 4.35 3.2 4.4 3.35 4.5 3.5 4.55 3.65 4.6 3.8 4.6 3.95 4.6 4.65 4.6 5.2 4.6 5.9 4.6 6.9 4.6 7.05 4.55 7.2 4.5 7.35 4.45 7.5 4.4 7.65 4.35 7.75 4.35 7.9 4.25 8.05 4.2 8.2 4.15 8.5 4.0 8.9 3.9 9.2 3.8 9.45 3.75 9.6 3.7 9.75 3.6 9.9 3.35 10.2 3.05 10.45 2.8 10.75 2.55 10.9 1.85 11.3 1.05 11.6 0.75 11.65 -1.6 11.3 Q-3.85 10.85 -5.55 9.25 L-6.5 8.2 -8.7 7.95 Q-9.95 7.6 -10.95 6.7 L-11.9 5.6 -11.95 5.45 -12.05 5.3 -12.15 5.15 -12.3 5.0 -12.3 4.9 -12.35 4.75 -12.35 4.6 -12.35 4.3 -12.35 4.05 -12.35 3.75 -12.35 3.45 -12.35 3.3 -12.3 3.2 -12.25 2.9 -12.1 2.45 -12.05 2.2 -11.95 1.9 -11.85 1.75 -11.75 1.6 -11.7 1.45 -11.6 1.35 -11.15 0.75 -10.65 0.2 -9.85 -0.35 -9.75 -0.4 -9.6 -0.4 -7.6 -0.3 -7.4 -0.25 -6.25 -0.15 -5.7 -0.05 -5.45 0.1 -5.25 0.25 -5.05 0.4 -4.85 0.5 -4.55 0.5 -4.25 0.4 -3.95 0.25 -3.7 0.1 -3.55 -0.05 -3.3 -0.2 -3.15 -0.3 -2.95 -0.35 -2.35 -0.55 -1.7 -0.65 -0.2 -0.6 0.9 -0.4 1.15 -0.35" fill="#333333" fill-rule="evenodd" stroke="none"/>
    <path d="M10.85 1.05 L10.9 1.2 11.0 1.35 11.1 1.45 11.15 1.6 11.3 1.75 11.4 1.9 11.5 2.05 11.6 2.2 11.7 2.3 11.75 2.45 11.8 2.6 11.8 2.75 11.85 2.9 11.85 3.05 11.85 3.2 11.85 3.3 11.85 3.45 11.85 3.6 11.85 3.75 11.85 4.05 11.85 4.3 11.85 4.45 11.8 4.6 11.8 4.75 11.7 4.9 11.65 5.0 11.6 5.15 11.5 5.3 11.45 5.45 11.35 5.6 11.25 5.75 11.1 5.85 10.9 6.0 10.7 6.15 10.55 6.3 10.35 6.45 10.2 6.6 10.0 6.75 9.85 6.8 9.75 6.85 9.4 6.95 9.25 7.1 9.15 7.25 9.05 7.4 8.95 7.55 8.85 7.65 8.8 7.8 8.75 7.95 8.7 8.1 8.65 8.25 8.45 8.55 8.1 8.95 7.6 9.4 6.85 9.9 6.75 9.95 6.3 10.05 5.75 10.15 5.0 10.3 4.85 10.45 4.75 10.55 4.65 10.7 4.5 10.85 4.35 11.0 4.1 11.15 3.9 11.25 3.7 11.4 3.45 11.55 0.35 11.75 Q-1.4 11.5 -2.9 10.7 L-3.75 10.4 -4.65 9.8 -5.35 8.95 -5.45 8.8 -5.5 8.65 -5.55 8.55 -5.6 8.4 -5.6 8.25 -5.6 8.1 -5.65 7.95 -5.65 7.8 -5.7 7.65 -5.75 7.55 -5.75 7.4 -5.8 7.25 -5.8 7.1 -5.8 6.95 -5.8 6.8 -5.8 6.7 -5.8 6.55 -5.8 6.4 -5.8 6.1 -5.8 5.7 -5.75 5.55 -5.7 5.4 -5.7 5.25 -5.65 5.1 -5.65 5.0 -5.6 4.85 -5.5 4.7 -5.45 4.55 -5.35 4.4 -5.25 4.25 -5.1 4.15 -5.0 3.95 -4.9 3.85 -4.8 3.7 -4.75 3.55 -4.65 3.4 -4.35 3.15 -4.1 2.85 -3.7 2.45 -3.15 1.85 -2.95 1.75 -2.85 1.7 -1.6 1.6 -0.65 1.9 0.05 2.4 0.1 2.45 0.55 2.55 1.15 2.75 1.75 3.0 1.95 3.1 2.0 3.1 2.8 3.05 2.9 3.0 3.1 2.95 4.4 2.85 4.45 2.75 4.5 2.6 4.55 2.45 4.6 2.3 4.65 2.2 4.7 2.05 4.75 1.9 5.0 1.6 5.3 1.35 5.75 1.05 6.15 0.85 6.3 0.7 6.5 0.6 7.1 0.3 7.45 0.2 7.95 0.1 7.95 0.05 8.9 0.05 Q9.35 0.1 9.8 0.3 L10.75 0.9 10.85 1.05" fill="#333333" fill-rule="evenodd" stroke="none"/>
    <path d="M9.3 -11.1 L9.9 -10.4 10.65 -9.2 Q11.45 -7.65 10.95 -5.9 L10.6 -5.2 Q11.75 -4.85 12.75 -3.85 15.0 -1.7 14.5 1.3 L14.3 1.85 14.2 2.05 14.1 2.35 14.0 2.55 13.9 2.7 Q12.3 6.1 8.75 7.5 L8.45 7.7 Q8.2 7.9 7.9 7.6 L7.9 7.45 8.35 7.0 Q11.1 5.35 12.75 2.8 L12.85 2.6 13.0 2.3 13.05 2.1 13.1 1.95 Q13.7 0.95 13.6 -0.15 L13.4 -0.95 Q12.5 -3.35 10.15 -4.85 L10.1 -5.0 10.25 -5.8 10.25 -6.0 10.35 -6.6 Q10.25 -7.15 10.3 -7.65 L10.25 -8.15 Q10.0 -9.55 8.85 -10.5 6.7 -12.1 4.2 -11.5 L3.9 -11.4 3.15 -10.65 2.85 -9.15 2.7 -9.05 2.7 -8.9 2.65 -8.4 Q2.35 -8.15 2.35 -8.55 L2.25 -9.1 2.1 -9.65 2.05 -9.8 1.65 -10.1 Q-2.55 -12.35 -7.5 -9.75 L-8.9 -8.05 -9.4 -7.2 -9.5 -7.1 -10.1 -5.2 -9.75 -4.8 -10.05 -4.55 -10.6 -3.95 Q-11.2 -3.4 -11.45 -2.4 L-11.5 -2.2 -11.6 -2.0 -11.7 -1.75 -11.7 -1.65 Q-12.55 0.65 -12.7 3.15 L-12.45 4.1 -11.7 5.0 Q-9.8 6.45 -7.1 6.4 L-6.9 6.35 -6.9 6.25 -6.7 6.1 -6.15 6.0 -6.1 6.1 -6.1 6.25 -6.35 6.75 -6.3 8.85 -6.25 9.05 -6.1 9.35 -5.7 10.0 -4.9 10.65 -2.7 11.45 Q1.45 12.6 5.45 11.0 6.5 10.65 7.05 9.85 L7.7 9.35 7.5 10.5 7.5 10.55 7.05 11.2 6.9 11.3 5.95 11.95 4.9 12.4 Q0.3 13.9 -4.2 12.25 -6.15 11.6 -7.0 9.75 -7.55 8.5 -7.2 7.35 L-9.5 7.1 Q-12.8 6.75 -13.25 3.75 -13.7 0.9 -12.6 -1.75 L-12.55 -1.95 -12.45 -2.15 -12.4 -2.4 -12.35 -2.6 -11.9 -3.45 -10.95 -4.55 -11.0 -5.6 -10.85 -5.9 -10.6 -6.7 -10.55 -7.0 -10.45 -7.15 -9.5 -8.9 -7.5 -11.0 Q-3.4 -13.75 1.65 -10.85 L2.3 -10.65 Q2.35 -11.2 2.75 -11.55 4.2 -12.9 6.35 -12.4 8.05 -12.2 9.3 -11.1 M0.55 5.95 L0.5 6.25 2.2 8.35 1.4 8.6 Q-0.2 7.65 -0.2 5.95 0.0 5.2 0.55 5.45 L0.55 5.95 M0.2 9.25 L-0.3 9.2 Q-3.05 6.15 -2.15 1.8 L-1.95 1.7 Q-2.0 5.5 0.2 8.9 0.65 9.25 0.2 9.25 M-8.05 -1.65 L-8.0 -1.75 -7.95 -1.8 -7.9 -1.9 -7.75 -1.9 -7.75 -1.95 -7.6 -1.9 -7.55 -1.8 -7.5 -1.75 -7.5 -1.65 -7.45 -1.6 -7.45 -1.55 -7.5 -1.45 -7.5 -1.4 -7.55 -1.3 -7.55 -1.2 -7.55 -1.05 -7.55 -0.9 -7.5 -0.8 -7.5 -0.75 -7.5 0.05 -7.45 0.95 -7.45 1.65 -7.3 2.15 -7.15 2.7 -7.1 3.15 -6.65 3.75 -6.0 4.6 -5.9 4.7 -5.8 4.8 -5.7 4.85 -5.7 4.95 -5.7 5.0 -5.7 5.05 -5.75 5.1 -5.85 5.15 -6.0 5.1 -6.1 5.05 -6.15 5.1 -6.25 5.1 -6.4 5.05 -6.5 5.0 -6.6 4.95 -6.75 4.8 -7.3 4.3 -7.75 3.65 -7.8 3.5 -8.2 1.95 -8.25 1.1 -8.25 -0.6 -8.25 -0.8 -8.2 -0.9 -8.2 -0.95 -8.2 -1.05 -8.2 -1.1 -8.2 -1.2 -8.2 -1.3 -8.15 -1.4 -8.1 -1.45 -8.05 -1.55 -8.05 -1.65 M-3.8 4.35 Q-3.65 7.15 -2.25 9.85 -5.25 8.15 -4.6 4.35 -3.85 3.6 -3.8 4.35 M-9.5 1.35 L-9.45 1.45 -9.45 1.55 -9.45 1.65 -9.5 1.7 -9.5 1.8 -9.55 1.85 -9.55 1.9 -9.6 2.05 -9.6 2.15 -9.6 2.3 -9.6 2.5 -9.6 2.8 -9.6 3.0 -9.55 3.05 -9.55 3.15 -9.5 3.2 -9.5 3.25 -9.45 3.35 -9.4 3.4 -9.4 3.5 -9.1 3.85 -8.8 4.25 -8.6 4.55 -8.6 4.6 -8.55 4.7 -8.55 4.75 -8.55 4.85 -8.6 4.9 -8.6 5.0 -8.7 5.05 -8.8 5.1 -8.9 5.1 -9.05 5.05 -9.45 4.65 -9.95 4.05 -10.15 3.85 -10.15 3.8 -10.2 3.7 -10.25 3.65 -10.25 3.6 -10.3 3.5 -10.3 3.35 -10.35 3.25 -10.4 3.15 -10.4 2.75 -10.4 2.15 -10.25 1.5 -10.2 1.45 -10.15 1.4 -10.15 1.3 -10.05 1.25 -9.95 1.2 -9.85 1.2 -9.85 1.15 -9.75 1.15 -9.6 1.2 -9.55 1.3 -9.5 1.35" fill="#333333" fill-rule="evenodd" stroke="none"/>
  </g>
</svg>
