<?xml version="1.0" encoding="UTF-8" standalone="no"?>
<svg xmlns:xlink="http://www.w3.org/1999/xlink" height="18.5px" width="17.35px" xmlns="http://www.w3.org/2000/svg">
  <g transform="matrix(1.0, 0.0, 0.0, 1.0, 7.8, 9.4)">
    <path d="M1.65 -1.15 L1.85 -0.95 1.95 -0.8 1.95 -0.65 1.95 -0.55 1.95 -0.4 3.05 0.6 5.4 2.8 5.7 2.6 5.85 2.55 6.55 2.65 7.1 2.85 7.35 2.85 7.65 2.95 7.95 3.1 8.45 3.4 8.95 3.75 9.1 4.1 9.35 4.8 9.55 5.3 9.55 5.45 9.55 5.55 9.55 5.7 9.5 5.8 9.45 5.9 9.35 6.0 9.3 6.1 9.25 6.15 9.2 6.25 9.1 6.35 8.9 6.5 8.55 6.65 8.05 6.95 6.65 6.8 6.0 6.55 5.85 7.45 5.7 7.75 5.4 8.25 5.2 8.65 5.1 8.75 5.0 8.8 4.8 8.95 4.7 9.0 4.5 9.05 4.35 9.05 4.2 9.1 2.75 8.25 2.7 8.05 2.65 7.95 2.4 7.55 2.05 7.2 1.95 6.85 1.9 6.45 1.95 6.2 2.0 6.1 2.05 6.0 2.1 5.9 2.25 5.7 2.3 5.6 2.35 5.5 2.4 5.4 2.45 5.3 2.55 5.25 2.6 5.15 2.75 5.1 2.9 5.05 1.05 2.95 -0.35 1.45 -0.45 1.3 -0.45 1.15 -0.45 1.0 -1.3 0.05 -4.5 -3.2 -4.6 -3.3 -4.7 -3.25 -4.75 -3.2 -4.85 -3.1 -4.95 -3.0 -5.05 -2.95 -5.25 -2.9 -5.35 -2.9 -5.55 -2.85 Q-6.3 -3.05 -6.9 -3.45 L-7.65 -4.05 -7.7 -4.35 -7.8 -4.8 -7.7 -5.4 -7.65 -5.5 -7.55 -5.6 -7.5 -5.65 -7.35 -5.85 -7.25 -6.05 -7.05 -6.35 -6.95 -6.55 -6.1 -6.55 -5.3 -6.2 -5.35 -6.4 -5.45 -6.7 -5.6 -7.2 -5.45 -7.5 -5.2 -7.9 -4.95 -8.4 -4.85 -8.6 -4.75 -8.7 -4.65 -8.75 -4.55 -8.85 -4.45 -8.9 -4.35 -9.0 -4.15 -9.1 -3.9 -9.25 -3.65 -9.35 -3.5 -9.4 -3.15 -9.3 -2.8 -9.15 -2.05 -8.6 -1.45 -7.9 -1.4 -7.75 -1.3 -7.55 -1.2 -7.35 -1.15 -7.2 -1.15 -6.95 -1.15 -6.85 -1.2 -6.55 -1.3 -6.4 -1.4 -6.15 -1.55 -5.85 -1.7 -5.55 -1.75 -5.45 -1.8 -5.35 -1.85 -5.25 -1.9 -5.15 -2.05 -5.0 -0.35 -3.25 1.4 -1.35 1.65 -1.15 M-2.9 -7.05 L-3.1 -7.0 -3.25 -7.0 -3.3 -6.9 -3.35 -6.8 -3.5 -6.6 -3.45 -6.55 -3.1 -6.35 -3.0 -6.45 -2.9 -6.55 -2.85 -6.6 -2.8 -6.75 -2.75 -6.85 -2.75 -6.9 -2.85 -7.05 -2.9 -7.05" fill="#ffffff" fill-rule="evenodd" stroke="none"/>
  </g>
</svg>
