<?xml version="1.0" encoding="UTF-8" standalone="no"?>
<svg xmlns:xlink="http://www.w3.org/1999/xlink" height="12.7px" width="19.95px" xmlns="http://www.w3.org/2000/svg">
  <g transform="matrix(1.0, 0.0, 0.0, 1.0, 9.95, 6.35)">
    <path d="M5.45 -6.35 L5.8 -6.3 5.9 -6.3 6.0 -6.2 6.05 -6.25 6.15 -6.3 6.55 -6.35 6.95 -6.25 7.25 -6.1 7.3 -6.1 7.4 -6.05 7.45 -6.05 7.45 -6.0 8.15 -5.7 8.35 -5.6 8.7 -5.35 8.7 -5.3 8.75 -5.2 8.8 -5.15 8.8 -5.05 8.85 -5.05 9.0 -4.9 9.15 -4.65 9.3 -4.45 9.3 -4.35 9.35 -4.3 9.35 -4.15 9.4 -4.05 9.5 -3.85 9.55 -3.75 9.55 -3.6 9.55 -3.5 9.6 -3.4 9.65 -3.3 9.65 -3.25 9.65 -3.1 9.65 -2.8 9.65 -2.55 9.65 -2.35 9.7 -2.3 9.7 -2.05 9.05 -1.3 8.5 -0.85 8.3 -0.7 8.45 -0.6 8.45 -0.55 8.5 -0.45 8.5 -0.4 9.25 0.4 9.75 1.25 9.8 1.25 9.8 1.4 9.85 1.45 9.95 1.5 9.95 1.55 10.0 1.6 10.0 1.7 10.0 1.85 10.0 1.95 9.95 1.95 9.95 2.0 9.9 2.1 9.9 2.15 9.4 2.4 8.95 2.4 8.85 2.3 8.75 2.2 8.75 2.0 8.75 1.8 8.75 1.6 8.8 1.5 8.25 1.7 8.25 1.75 8.25 1.85 8.3 1.9 8.3 1.95 8.35 2.0 8.4 2.1 8.4 2.2 8.4 2.3 8.4 2.35 8.35 2.35 8.35 2.45 8.2 2.5 8.05 2.65 7.2 2.65 7.1 2.55 7.1 2.4 7.1 2.15 7.1 2.05 7.1 2.0 7.15 2.0 7.15 1.95 6.5 2.05 6.5 2.2 6.5 2.3 6.5 2.5 6.45 2.6 6.35 2.7 6.25 2.75 5.05 2.9 4.95 2.8 4.95 2.55 4.95 2.3 4.95 2.1 4.15 2.1 4.15 2.15 4.15 2.3 4.15 2.4 4.15 2.45 4.1 2.6 4.05 2.7 Q3.95 2.8 3.8 2.85 L3.05 2.85 2.95 2.75 2.95 2.7 2.9 2.65 2.9 2.6 2.85 2.55 2.85 2.5 2.8 2.5 2.8 2.45 2.8 2.35 2.8 2.25 2.85 2.25 2.85 2.2 2.9 2.15 2.9 2.1 2.95 2.05 2.95 2.0 3.0 1.95 3.05 1.9 3.05 1.7 3.05 1.6 3.1 1.6 3.2 1.35 3.35 1.1 3.4 1.05 3.4 0.95 3.9 -0.05 4.3 -0.6 Q3.8 -0.65 3.35 -0.85 3.0 -0.95 2.7 -1.2 L2.65 -1.25 2.6 -1.3 2.6 -1.35 2.4 -1.55 2.3 -1.65 2.25 -1.7 2.25 -1.75 2.2 -1.85 2.2 -1.9 2.2 -2.0 2.2 -2.35 2.2 -2.45 2.2 -2.65 2.2 -2.7 2.25 -2.7 2.25 -2.75 2.25 -2.85 2.3 -2.95 2.3 -3.0 2.3 -3.25 2.3 -3.45 2.3 -3.5 2.35 -3.55 2.35 -3.6 2.4 -3.6 2.4 -3.8 2.45 -3.85 2.45 -4.1 2.5 -4.1 2.5 -4.3 2.55 -4.35 2.55 -4.55 2.6 -4.6 2.65 -4.65 2.65 -4.75 2.75 -4.85 2.95 -5.2 2.95 -5.3 3.05 -5.4 3.75 -5.9 Q4.3 -6.25 5.0 -6.3 L5.25 -6.35 5.45 -6.35 M3.15 -3.5 L3.15 -3.45 3.15 -3.25 3.15 -2.95 3.15 -2.7 3.15 -2.65 3.2 -2.6 3.2 -2.5 3.35 -2.4 3.45 -2.35 3.5 -2.3 3.5 -2.2 3.55 -2.2 3.65 -2.05 3.75 -1.95 3.75 -1.9 Q4.45 -1.65 5.15 -1.9 L5.75 -2.25 5.8 -2.3 5.85 -2.35 5.85 -2.4 5.9 -2.45 5.95 -2.45 5.95 -2.5 6.0 -2.55 6.1 -2.65 6.35 -2.45 6.55 -2.2 7.05 -2.05 Q7.9 -1.8 8.45 -2.35 L8.5 -2.4 8.55 -2.45 8.65 -2.6 8.75 -2.7 8.75 -2.8 8.75 -2.95 8.75 -3.1 8.75 -3.3 8.75 -3.45 8.8 -3.5 8.8 -3.6 Q8.9 -4.15 8.4 -4.4 L7.65 -4.8 6.75 -4.7 6.75 -4.65 6.65 -4.6 6.5 -4.55 6.35 -4.45 6.0 -4.0 5.9 -3.65 5.8 -3.9 Q5.65 -4.15 5.35 -4.2 L5.3 -4.25 5.0 -4.35 4.35 -4.35 3.95 -4.3 Q3.55 -4.2 3.3 -3.9 L3.25 -3.85 3.25 -3.8 3.2 -3.75 3.2 -3.55 3.15 -3.5 M0.7 -3.9 L0.8 -3.85 0.8 -3.8 0.85 -3.8 0.85 -3.5 0.75 -3.4 0.65 -3.4 0.2 -3.5 0.15 -3.45 0.1 -3.4 0.05 -3.35 -0.85 -3.4 -0.9 -3.45 -0.9 -3.5 -0.95 -3.5 -0.95 -3.6 -1.0 -3.65 -1.0 -3.7 -1.0 -3.8 -1.0 -3.85 -1.05 -3.85 -1.6 -3.9 -1.8 -3.75 -1.85 -3.7 -1.9 -3.65 -2.0 -3.65 -2.45 -3.65 -2.5 -3.7 -2.55 -3.7 -2.55 -3.75 -2.6 -3.8 -2.6 -3.85 -2.6 -3.95 -2.6 -4.0 -3.4 -4.05 -3.4 -3.9 -3.4 -3.8 -3.45 -3.75 -3.5 -3.7 -3.55 -3.7 -4.5 -3.7 -4.6 -3.7 -4.65 -3.7 -4.75 -3.7 -4.8 -3.75 -4.85 -3.8 -4.9 -3.85 -4.9 -3.95 -5.25 -3.95 -5.3 -3.9 -5.6 -3.8 -5.6 -3.75 -5.55 -3.7 -5.55 -3.65 -5.5 -3.6 -5.5 -3.55 -5.55 -3.5 -5.55 -3.45 -5.6 -3.4 -5.65 -3.35 -5.7 -3.35 -5.75 -3.3 -5.85 -3.3 -5.85 -3.25 -5.9 -3.25 -5.95 -3.2 -6.15 -3.15 -6.7 -3.15 -6.75 -3.2 -6.8 -3.2 -6.8 -3.25 -6.85 -3.3 -6.85 -3.35 -6.9 -3.4 -6.9 -3.45 -7.0 -3.45 -7.55 -3.1 -7.55 -3.05 -7.55 -2.8 -7.6 -2.75 -7.6 -2.7 Q-8.1 -2.3 -8.6 -2.55 L-8.95 -2.35 -9.3 -2.05 -9.35 -2.05 -9.45 -1.95 -9.55 -1.95 -9.65 -1.95 -9.7 -2.0 -9.8 -2.0 -9.9 -2.05 -9.95 -2.1 -9.95 -2.2 -9.9 -2.25 -9.9 -2.3 -9.85 -2.35 -9.8 -2.45 -9.7 -2.5 -9.65 -2.55 -9.65 -2.6 -9.1 -3.05 -9.15 -3.05 -9.15 -3.15 -9.2 -3.15 -9.2 -3.4 -9.15 -3.45 -9.1 -3.45 -9.05 -3.5 -9.05 -3.55 -9.0 -3.6 -8.85 -3.7 -8.55 -3.95 -8.5 -3.95 -8.45 -4.0 -8.35 -4.0 -8.2 -4.0 -8.1 -3.95 -8.05 -3.9 -8.0 -3.85 -7.2 -4.15 -7.2 -4.25 -7.2 -4.4 -7.15 -4.45 -7.15 -4.55 -7.1 -4.55 -7.1 -4.6 -7.05 -4.65 -7.0 -4.7 -6.95 -4.7 -6.65 -4.85 -6.5 -4.85 -6.45 -4.9 -6.1 -4.85 -5.9 -4.7 -5.9 -4.55 -5.2 -4.7 -5.2 -4.8 -5.2 -4.9 -5.2 -5.05 -5.2 -5.1 -5.15 -5.15 -5.1 -5.15 -5.05 -5.2 -5.0 -5.25 -4.95 -5.3 -4.85 -5.3 -4.65 -5.35 -4.55 -5.35 -3.9 -5.35 -3.55 -5.3 -3.5 -5.25 -3.5 -5.2 -3.45 -5.2 -3.45 -5.15 -3.4 -5.05 -3.4 -4.95 -3.4 -4.85 -2.8 -4.85 -2.8 -4.9 -2.85 -4.9 -2.85 -5.05 -2.8 -5.1 -2.7 -5.25 -2.05 -5.3 -1.8 -5.3 -1.6 -5.25 -1.55 -5.2 -1.55 -5.15 -1.5 -5.15 -1.5 -5.1 -1.45 -5.0 -1.45 -4.95 -1.45 -4.85 -1.45 -4.75 -0.75 -4.65 -0.75 -4.7 -0.7 -4.7 -0.6 -4.75 -0.4 -4.75 -0.2 -4.75 0.0 -4.7 0.15 -4.55 0.2 -4.5 0.2 -4.45 0.25 -4.4 0.25 -4.3 0.25 -4.25 0.25 -4.1 0.35 -4.1 0.4 -4.05 0.4 -4.0 0.45 -4.0 0.45 -3.95 0.55 -3.95 0.65 -3.95 0.7 -3.9 M0.6 0.3 L0.85 1.25 1.15 2.3 1.25 2.65 1.25 2.8 1.25 3.65 1.15 4.2 Q0.9 5.05 0.05 5.6 L-0.8 6.15 Q-1.55 6.6 -2.95 6.15 L-4.6 5.4 -4.8 5.0 -4.85 4.7 -4.95 4.45 -5.25 3.65 -5.3 2.25 -5.15 -0.1 Q-5.0 -1.35 -4.5 -1.55 L-4.4 1.8 Q-4.35 3.4 -3.8 4.75 L-2.75 5.1 -2.65 3.85 -3.0 -1.25 -2.7 -1.75 -2.65 -1.75 -2.5 -1.45 -1.95 1.85 -1.65 5.1 -0.2 4.8 0.35 3.85 0.35 3.25 Q0.25 0.75 -1.05 -1.2 -1.25 -1.45 -0.95 -1.75 L-0.8 -1.7 Q0.0 -1.05 0.4 -0.2 L0.6 0.3 M5.2 -0.1 L4.75 -0.2 4.2 0.0 4.05 0.2 4.0 0.25 4.0 0.35 4.0 0.4 4.0 0.5 4.0 0.55 4.05 0.6 4.05 0.7 4.2 0.8 4.35 0.9 4.4 1.0 5.0 1.05 5.35 0.85 5.45 0.55 5.45 0.35 5.45 0.25 5.2 -0.1 M7.3 -0.2 L7.25 -0.15 7.2 0.0 7.15 0.15 7.1 0.2 7.1 0.45 7.15 0.55 7.15 0.6 7.25 0.7 7.25 0.75 8.1 0.8 8.3 0.65 8.35 0.6 8.5 0.25 8.5 0.05 8.5 0.0 8.25 -0.35 7.65 -0.4 7.6 -0.4 7.5 -0.35 7.4 -0.3 7.35 -0.25 7.3 -0.2 M-2.1 -4.9 L-2.1 -4.8 -1.85 -4.8 -1.9 -4.85 -2.1 -4.9 M-3.8 -4.85 L-3.85 -4.9 -3.85 -4.85 -3.8 -4.85" fill="#ffffff" fill-rule="evenodd" stroke="none"/>
  </g>
</svg>
