<?xml version="1.0" encoding="UTF-8" standalone="no"?>
<svg xmlns:xlink="http://www.w3.org/1999/xlink" height="12.4px" width="19.9px" xmlns="http://www.w3.org/2000/svg">
  <g transform="matrix(1.0, 0.0, 0.0, 1.0, 10.05, 6.35)">
    <path d="M5.45 -6.35 L7.4 -6.0 8.65 -5.4 8.9 -5.05 9.35 -4.7 9.6 -4.4 9.6 -4.35 9.65 -4.3 9.65 -4.25 9.7 -4.2 9.7 -4.0 9.75 -3.95 9.75 -3.85 9.75 -3.5 9.75 -3.05 9.75 -2.6 9.75 -2.4 9.7 -2.25 9.6 -2.1 9.5 -1.9 9.3 -1.75 9.3 -1.65 9.25 -1.65 9.25 -1.55 9.2 -1.55 9.15 -1.45 9.1 -1.4 9.0 -1.35 8.95 -1.3 8.9 -1.25 8.8 -1.2 8.15 -0.75 8.55 -0.3 8.7 -0.15 8.75 -0.05 9.05 0.3 9.35 0.55 9.4 0.65 9.5 0.8 9.5 0.85 9.7 1.1 9.85 1.4 9.85 1.5 9.85 1.65 9.85 1.75 9.85 1.9 9.8 1.9 9.8 2.05 9.75 2.15 9.7 2.2 9.0 2.3 8.9 2.2 8.75 2.05 8.75 2.0 8.7 2.0 8.7 1.95 8.7 1.85 8.7 1.6 8.7 1.55 8.2 1.75 8.2 1.85 8.25 1.95 8.25 2.0 8.25 2.15 8.25 2.25 8.25 2.35 8.15 2.45 7.65 2.6 7.3 2.6 7.25 2.55 7.2 2.5 7.15 2.45 7.15 2.4 7.15 2.2 7.15 2.0 6.4 2.05 6.4 2.2 6.4 2.45 6.4 2.55 6.35 2.6 6.35 2.65 5.25 2.8 5.2 2.75 5.15 2.75 5.05 2.65 5.0 2.65 5.0 2.6 4.95 2.55 4.9 2.45 4.9 2.4 4.9 2.3 4.9 2.1 4.95 2.1 4.2 2.05 4.2 2.15 4.2 2.3 4.2 2.35 4.15 2.4 4.05 2.55 4.0 2.6 4.0 2.65 3.9 2.75 3.75 2.85 2.9 2.7 2.85 2.65 2.8 2.65 2.8 2.6 2.8 2.45 2.8 2.3 2.8 2.25 2.85 2.1 2.9 1.95 2.95 1.9 3.0 1.85 3.0 1.8 3.05 1.65 3.1 1.6 3.1 1.55 3.15 1.5 3.2 1.45 3.25 1.3 3.35 1.15 3.35 1.05 3.8 0.05 4.05 -0.35 4.2 -0.5 4.25 -0.6 4.3 -0.65 3.65 -0.75 3.6 -0.75 3.4 -0.85 3.25 -0.9 3.1 -1.0 3.05 -1.05 3.0 -1.1 2.95 -1.1 2.9 -1.15 2.9 -1.2 2.85 -1.25 2.8 -1.3 2.75 -1.35 2.7 -1.4 2.65 -1.4 2.5 -1.55 2.35 -1.75 2.2 -1.9 2.2 -2.0 2.15 -2.05 2.15 -2.15 2.15 -2.3 2.15 -2.35 2.15 -2.45 2.15 -2.6 2.15 -2.7 2.15 -2.75 2.2 -2.85 2.2 -2.9 2.25 -2.95 2.25 -3.1 2.3 -3.15 2.3 -3.35 2.35 -3.35 2.35 -3.5 2.4 -3.55 2.4 -3.9 2.45 -3.95 2.45 -4.05 2.5 -4.1 2.5 -4.25 2.55 -4.25 2.55 -4.45 2.6 -4.5 2.6 -4.55 2.65 -4.6 2.7 -4.65 2.7 -4.7 2.75 -4.7 2.8 -4.75 2.8 -4.85 2.85 -4.85 2.85 -5.05 2.9 -5.05 2.9 -5.15 2.95 -5.2 3.0 -5.25 3.0 -5.35 3.05 -5.35 3.05 -5.4 3.15 -5.5 3.25 -5.6 3.45 -5.7 3.55 -5.75 3.95 -6.0 5.15 -6.3 5.45 -6.35 M3.15 -3.3 L3.1 -3.15 3.1 -3.1 3.1 -2.95 3.1 -2.8 3.1 -2.65 3.1 -2.6 3.3 -2.35 3.5 -2.15 3.55 -2.1 3.6 -2.05 3.7 -1.95 3.7 -1.9 4.8 -1.75 Q5.45 -1.8 5.7 -2.4 L5.9 -2.85 5.9 -3.0 5.9 -3.2 6.0 -3.0 6.0 -2.85 6.05 -2.8 6.05 -2.75 6.1 -2.7 6.1 -2.65 6.15 -2.6 6.15 -2.55 Q6.5 -2.2 7.0 -2.05 L8.3 -2.2 8.8 -2.85 8.8 -3.2 8.8 -3.55 8.8 -3.85 8.8 -3.9 8.75 -3.95 8.6 -4.2 8.4 -4.4 8.35 -4.4 8.3 -4.45 8.25 -4.5 8.2 -4.55 8.15 -4.55 7.7 -4.8 6.95 -4.8 6.8 -4.75 6.7 -4.7 6.6 -4.65 6.05 -4.05 5.9 -3.45 5.35 -4.15 4.1 -4.35 3.55 -4.15 3.25 -3.8 3.25 -3.5 3.2 -3.4 3.15 -3.3 M0.2 -4.65 L0.25 -4.6 0.25 -4.55 0.3 -4.55 0.35 -4.45 0.35 -4.35 0.35 -4.25 0.35 -4.1 0.65 -3.95 0.75 -3.9 0.8 -3.9 0.8 -3.85 0.85 -3.8 0.85 -3.75 0.9 -3.7 0.9 -3.6 0.85 -3.6 0.85 -3.55 0.8 -3.5 0.8 -3.45 0.7 -3.45 0.65 -3.4 0.55 -3.45 0.5 -3.5 0.05 -3.55 0.0 -3.55 0.0 -3.5 -0.05 -3.5 -0.05 -3.4 -0.1 -3.4 -0.25 -3.3 -0.4 -3.25 -0.5 -3.25 -0.85 -3.25 -0.95 -3.35 -0.95 -3.6 -0.9 -3.6 -0.95 -3.65 -0.95 -3.75 -1.0 -3.75 -1.05 -3.75 -1.25 -3.8 -1.5 -3.85 -1.65 -3.85 -1.7 -3.85 -1.7 -3.8 -1.75 -3.75 -1.75 -3.7 -1.8 -3.7 -1.85 -3.65 -1.9 -3.6 -1.95 -3.6 -2.25 -3.6 -2.4 -3.65 -2.5 -3.7 -2.6 -3.7 -2.65 -3.75 -2.7 -3.8 -2.75 -3.8 -2.75 -3.85 -2.8 -3.95 -2.8 -4.0 -3.2 -4.0 -3.25 -4.0 -3.25 -3.8 -3.3 -3.75 -3.3 -3.65 -3.35 -3.65 -3.4 -3.6 -4.6 -3.6 -4.75 -3.6 -4.8 -3.65 -4.85 -3.7 -4.9 -3.8 -4.95 -3.9 -5.6 -3.8 -5.6 -3.75 -5.55 -3.7 -5.55 -3.5 -5.6 -3.5 -5.6 -3.45 -5.65 -3.4 -5.65 -3.35 -5.7 -3.35 -5.75 -3.3 -6.75 -3.25 -6.8 -3.3 -6.85 -3.45 -7.55 -3.2 -7.5 -3.1 -7.5 -3.0 -7.5 -2.8 -7.5 -2.65 -7.55 -2.65 -7.55 -2.55 -7.65 -2.45 -8.4 -2.45 -8.5 -2.55 -8.65 -2.65 -8.7 -2.75 -8.7 -2.8 -8.8 -2.75 -8.95 -2.65 -9.0 -2.6 -9.05 -2.55 -9.1 -2.5 -9.15 -2.45 -9.15 -2.4 -9.2 -2.4 -9.25 -2.35 -9.35 -2.25 -9.4 -2.2 -9.5 -2.2 -9.6 -2.1 -9.7 -2.05 -9.7 -2.0 -9.8 -2.0 -9.9 -2.0 -10.0 -2.1 -10.0 -2.15 -10.05 -2.15 -10.05 -2.3 -10.05 -2.4 -10.0 -2.45 -9.95 -2.45 -9.9 -2.55 -9.85 -2.6 -9.85 -2.65 -9.8 -2.65 -9.8 -2.7 -9.75 -2.75 -9.7 -2.75 -9.7 -2.8 -9.6 -2.85 -9.55 -2.9 -9.45 -2.95 -9.35 -3.05 -9.3 -3.05 -9.3 -3.1 -9.2 -3.15 -9.15 -3.2 -9.1 -3.2 -9.0 -3.25 -9.0 -3.3 -9.0 -3.45 -9.0 -3.55 -8.95 -3.6 -8.95 -3.65 -8.8 -3.75 -8.75 -3.8 -8.7 -3.85 -8.6 -3.9 -8.5 -3.95 -8.45 -4.0 -8.3 -4.05 -8.15 -4.1 -8.05 -4.1 -7.95 -4.05 -7.9 -4.0 -7.85 -3.95 -7.85 -3.85 -7.2 -4.15 -7.25 -4.15 -7.25 -4.2 -7.3 -4.25 -7.3 -4.45 Q-7.1 -4.75 -6.75 -4.85 L-6.4 -4.95 -6.35 -4.95 -6.2 -4.95 -6.05 -4.85 -6.0 -4.8 -6.0 -4.75 -5.95 -4.7 -5.9 -4.65 -5.8 -4.55 -5.2 -4.6 -5.2 -4.65 -5.15 -4.7 -5.2 -4.75 -5.3 -4.85 -5.3 -4.95 -5.3 -5.05 -5.25 -5.1 -5.15 -5.2 -5.1 -5.2 -4.3 -5.35 -3.8 -5.35 -3.7 -5.35 -3.65 -5.3 -3.6 -5.25 -3.6 -5.15 -3.55 -5.15 -3.45 -5.1 -3.4 -5.05 -3.35 -5.0 -3.3 -5.0 -3.3 -4.9 -3.25 -4.85 -2.8 -4.85 -2.8 -4.9 -2.85 -4.9 -2.85 -5.0 -2.85 -5.1 -2.8 -5.2 -2.8 -5.25 -2.7 -5.35 -2.6 -5.4 -2.25 -5.4 -1.85 -5.4 -1.55 -5.35 -1.5 -5.3 -1.5 -5.25 -1.45 -5.25 -1.45 -5.15 -1.45 -4.9 -1.45 -4.7 -0.9 -4.6 -0.8 -4.5 -0.8 -4.55 -0.7 -4.65 -0.6 -4.75 -0.55 -4.75 -0.5 -4.8 -0.25 -4.8 -0.15 -4.75 -0.1 -4.75 -0.05 -4.7 0.0 -4.65 0.2 -4.65 M0.65 3.95 Q0.85 3.3 0.65 3.8 L0.65 3.95 M0.65 0.65 L0.95 1.35 1.1 1.85 1.2 2.9 Q1.45 3.7 1.15 4.4 L0.6 4.95 Q-2.1 7.05 -4.9 5.1 L-5.05 4.65 -5.3 4.0 -5.45 2.6 Q-5.5 1.45 -5.2 0.2 L-4.75 -1.5 Q-4.4 -1.1 -4.5 -0.5 L-4.6 2.05 Q-4.5 3.35 -4.0 4.65 L-2.7 4.65 -2.9 2.95 -3.15 0.35 Q-3.25 -1.0 -2.7 -1.65 L-2.45 -1.1 Q-2.2 0.4 -2.1 1.95 L-1.7 4.65 -1.7 4.7 Q-0.6 4.7 -0.1 4.1 L-0.05 3.9 Q0.4 2.75 0.0 1.55 L-0.7 -0.6 -0.9 -1.8 Q-0.85 -2.25 -0.45 -1.65 L0.2 -0.5 0.65 0.65 M7.5 -0.25 L7.3 -0.05 7.3 0.0 7.25 0.05 7.25 0.1 7.25 0.25 7.25 0.3 7.25 0.4 7.3 0.45 7.3 0.55 7.45 0.65 8.25 0.6 8.3 0.5 8.35 0.35 8.4 0.3 8.4 0.25 8.4 0.15 8.4 0.1 8.4 0.0 8.25 -0.25 7.9 -0.45 7.5 -0.25 M4.65 -0.25 L4.35 -0.1 4.25 0.05 4.2 0.1 4.05 0.4 4.0 0.7 4.0 0.85 4.05 0.9 4.05 1.0 Q4.45 1.35 5.0 1.15 L5.4 0.7 5.4 0.6 5.4 0.35 5.4 0.2 5.4 0.15 5.15 -0.15 4.65 -0.25 M-6.6 -4.4 L-6.65 -4.35 -6.6 -4.35 -6.6 -4.4" fill="#ffffff" fill-rule="evenodd" stroke="none"/>
  </g>
</svg>
