<?xml version="1.0" encoding="UTF-8" standalone="no"?>
<svg xmlns:xlink="http://www.w3.org/1999/xlink" height="25.35px" width="13.6px" xmlns="http://www.w3.org/2000/svg">
  <g transform="matrix(1.0, 0.0, 0.0, 1.0, 9.6, 14.45)">
    <path d="M1.55 -13.75 Q1.95 -13.25 1.85 -12.5 L1.5 -12.1 Q1.85 -11.85 1.7 -10.65 L1.3 -9.65 Q3.0 -13.35 3.75 -14.45 L4.0 -13.55 Q2.55 -11.2 1.05 -7.7 -2.0 -0.85 -2.8 5.5 L-2.7 5.5 -2.65 5.65 Q-2.55 5.8 -2.6 6.0 -2.7 7.05 -3.65 8.75 -4.95 10.9 -6.45 10.9 L-8.35 10.55 -8.75 10.15 -9.0 10.4 Q-9.5 9.3 -9.55 8.05 L-9.45 5.85 Q-9.05 2.35 -5.6 -4.4 -1.9 -11.45 0.75 -13.1 L0.8 -13.05 1.55 -13.75 M-2.95 1.45 Q-2.75 -0.15 -0.8 -4.75 -2.9 -0.2 -3.05 1.0 L-3.1 4.2 -3.1 4.45 -2.95 1.45 M-5.4 -0.8 L-4.45 -2.95 -5.0 -1.85 -5.4 -0.8 M-8.3 5.8 L-8.05 4.4 -8.9 8.5 -8.7 9.8 -8.35 9.3 -8.0 8.8 -8.25 7.65 -8.45 7.05 -8.3 5.8 M-4.25 5.65 Q-4.3 5.05 -4.65 5.2 L-4.3 6.6 Q-4.2 6.2 -4.25 5.65 M-5.35 8.05 L-5.35 8.0 -5.3 8.05 -5.35 7.6 -5.35 8.05" fill="#333333" fill-rule="evenodd" stroke="none"/>
  </g>
</svg>
