<?xml version="1.0" encoding="UTF-8" standalone="no"?>
<svg xmlns:xlink="http://www.w3.org/1999/xlink" height="25.65px" width="7.5px" xmlns="http://www.w3.org/2000/svg">
  <g transform="matrix(1.0, 0.0, 0.0, 1.0, 4.5, 14.55)">
    <path d="M1.8 -13.55 L1.15 -11.7 Q1.7 -12.95 2.15 -13.35 L2.55 -13.2 Q1.45 -11.75 0.7 -9.9 L1.2 -10.8 Q3.0 -13.75 3.0 -12.15 L1.5 -4.65 1.55 -4.5 0.9 0.05 1.2 4.2 0.65 7.45 Q0.65 8.05 -0.25 9.1 L-0.35 9.5 Q-0.85 11.1 -1.5 11.1 L-2.1 10.95 -3.0 10.7 -3.45 10.85 Q-3.8 10.85 -3.9 10.1 L-4.35 9.8 -4.5 8.85 -4.5 8.2 Q-4.45 5.35 -4.05 2.7 L-3.95 2.15 -3.65 0.5 Q-3.1 -2.05 -2.25 -3.9 -1.7 -6.55 -0.95 -7.7 L-0.25 -9.95 1.35 -14.55 1.65 -14.55 1.8 -13.55 M0.3 5.85 L0.3 5.45 0.25 6.0 0.3 5.85 M-2.6 5.7 L-2.7 6.5 -2.25 5.4 -2.6 5.7" fill="#333333" fill-rule="evenodd" stroke="none"/>
  </g>
</svg>
