<?xml version="1.0" encoding="UTF-8" standalone="no"?>
<svg xmlns:xlink="http://www.w3.org/1999/xlink" height="24.95px" width="8.85px" xmlns="http://www.w3.org/2000/svg">
  <g transform="matrix(1.0, 0.0, 0.0, 1.0, 0.7, 13.85)">
    <path d="M0.8 -13.35 L1.15 -13.0 1.15 -13.2 Q3.35 -11.25 4.35 -8.95 4.45 -9.5 4.7 -9.85 L4.55 -10.1 2.75 -12.9 2.85 -13.85 3.15 -13.85 7.0 -7.25 7.35 -4.25 7.6 -4.45 Q8.15 -3.9 8.15 -1.15 8.15 0.5 7.75 2.45 7.3 4.45 6.65 5.2 L5.75 7.75 Q4.2 11.1 1.4 11.1 -0.45 11.1 -0.7 8.9 -0.7 6.2 1.35 3.6 L2.35 2.2 Q2.55 0.55 3.45 -2.4 L3.95 -3.75 Q3.65 -6.5 2.4 -9.35 L0.75 -13.05 0.8 -13.35 M5.1 -9.15 L5.05 -9.05 5.25 -8.4 5.5 -8.4 5.1 -9.15 M6.3 -5.05 L6.35 -4.9 6.35 -5.35 6.3 -5.05 M0.65 7.9 L0.9 7.15 0.85 6.65 0.75 6.65 0.65 6.8 0.65 7.9 M2.2 8.8 L1.45 9.5 2.7 8.95 2.45 8.95 2.2 8.8" fill="#333333" fill-rule="evenodd" stroke="none"/>
  </g>
</svg>
