<?xml version="1.0" encoding="UTF-8" standalone="no"?>
<svg xmlns:xlink="http://www.w3.org/1999/xlink" height="15.15px" width="13.55px" xmlns="http://www.w3.org/2000/svg">
  <g transform="matrix(1.0, 0.0, 0.0, 1.0, 4.4, 13.2)">
    <path d="M7.4 -7.35 L7.85 -4.85 Q6.95 -2.4 5.8 -0.9 L6.9 -1.75 Q7.95 -2.8 7.95 -4.8 7.95 -6.4 7.5 -7.45 L7.4 -7.35 M5.85 -6.95 L5.85 -7.15 5.45 -7.5 5.85 -6.95 M7.7 -8.95 Q9.15 -7.3 9.15 -4.7 9.05 -2.95 8.25 -1.4 6.75 1.45 3.6 1.65 L0.65 1.95 -1.45 1.5 Q-2.7 1.3 -3.2 0.2 L-3.95 -0.45 Q-4.4 -1.1 -4.4 -1.8 -4.4 -2.85 -3.65 -3.5 L-3.15 -4.2 -2.5 -4.5 Q-1.8 -4.75 -0.75 -4.5 L0.3 -4.25 -0.25 -4.25 -0.05 -4.1 1.65 -4.15 2.4 -4.6 2.75 -4.85 3.3 -6.0 3.0 -7.05 2.95 -7.05 2.7 -7.2 2.85 -7.3 2.2 -8.3 Q1.0 -9.85 -1.2 -11.25 -0.5 -12.05 1.75 -10.1 L2.05 -9.8 1.95 -10.1 Q0.55 -11.75 -0.45 -12.3 -0.05 -13.5 1.7 -12.5 1.7 -14.1 4.75 -12.0 7.05 -10.4 7.65 -9.0 L7.7 -8.95 M1.5 -2.25 L2.45 -2.65 2.3 -2.9 2.4 -3.0 2.0 -2.8 1.5 -2.25 M0.35 -2.2 L-0.65 -2.1 -0.75 -2.1 -0.7 -1.95 0.05 -1.95 0.35 -2.2 M-2.55 -1.35 L-2.45 -1.35 -2.05 -1.05 Q-2.0 -0.8 -1.4 -0.75 -1.95 -1.2 -1.95 -2.2 L-1.75 -2.9 -1.85 -2.85 -2.35 -2.15 -2.55 -1.4 -2.55 -1.35" fill="#333333" fill-rule="evenodd" stroke="none"/>
  </g>
</svg>
