<?xml version="1.0" encoding="UTF-8" standalone="no"?>
<svg xmlns:xlink="http://www.w3.org/1999/xlink" height="16.7px" width="14.5px" xmlns="http://www.w3.org/2000/svg">
  <g transform="matrix(1.0, 0.0, 0.0, 1.0, 10.85, 13.55)">
    <path d="M2.0 -13.55 Q3.3 -13.65 3.6 -11.6 L3.65 -8.25 Q3.65 -6.2 1.75 -3.05 0.25 -0.55 -1.9 0.55 L-2.05 0.65 -2.15 0.95 -3.15 1.45 -3.4 1.7 Q-5.0 3.15 -7.1 3.15 -9.5 3.15 -10.25 2.0 -10.55 1.55 -10.55 0.7 L-10.85 0.4 -10.75 -0.05 -10.7 -0.2 -10.7 -0.25 -10.35 -0.9 -10.35 -1.0 Q-10.35 -2.4 -6.45 -3.45 L-4.8 -4.0 Q-2.65 -4.0 -1.5 -7.0 -0.75 -8.9 -0.75 -10.25 L-0.75 -10.5 -0.3 -12.2 0.0 -11.35 0.15 -10.35 0.15 -10.0 Q0.65 -11.15 1.4 -11.65 L2.25 -9.45 2.5 -8.55 2.55 -9.7 2.25 -11.75 Q1.95 -12.4 1.95 -13.3 L2.0 -13.55 M-7.25 -1.55 L-7.7 -1.45 -8.55 -1.25 -7.65 -1.2 -7.25 -1.55" fill="#333333" fill-rule="evenodd" stroke="none"/>
  </g>
</svg>
