<?xml version="1.0" encoding="UTF-8" standalone="no"?>
<svg xmlns:xlink="http://www.w3.org/1999/xlink" height="16.55px" width="8.7px" xmlns="http://www.w3.org/2000/svg">
  <g transform="matrix(1.0, 0.0, 0.0, 1.0, 0.95, 12.9)">
    <path d="M4.7 -0.25 L4.85 -0.15 Q5.6 -0.65 5.8 -1.3 L6.0 -2.25 6.1 -2.4 6.1 -2.5 4.7 -0.25 M1.25 -12.85 L1.7 -12.75 Q2.3 -11.9 2.65 -12.55 L3.95 -11.9 4.5 -11.2 5.35 -10.45 6.55 -8.7 7.2 -7.25 Q7.95 -5.05 7.7 -2.75 L7.3 -1.45 Q6.0 1.3 4.0 3.2 L0.95 3.35 Q-0.2 2.85 -0.9 1.75 -1.1 1.05 -0.75 0.4 -0.2 -0.65 0.9 -1.35 1.85 -1.95 2.7 -3.2 3.55 -4.55 3.35 -6.25 L2.9 -7.9 2.45 -8.8 1.0 -10.4 Q0.4 -11.1 0.4 -11.8 L0.45 -11.85 1.25 -12.85" fill="#333333" fill-rule="evenodd" stroke="none"/>
  </g>
</svg>
