<?xml version="1.0" encoding="UTF-8" standalone="no"?>
<svg xmlns:xlink="http://www.w3.org/1999/xlink" height="25.35px" width="11.15px" xmlns="http://www.w3.org/2000/svg">
  <g transform="matrix(1.0, 0.0, 0.0, 1.0, 7.05, 14.45)">
    <path d="M1.0 -13.05 L1.65 -13.75 2.1 -12.5 1.8 -12.1 Q2.15 -11.85 2.15 -10.65 L1.9 -9.65 Q3.15 -13.35 3.75 -14.45 L4.1 -13.55 Q2.95 -11.2 1.85 -7.7 -0.4 -0.85 -0.45 5.5 L-0.35 5.5 -0.25 5.65 -0.15 6.0 Q-0.15 7.05 -0.9 8.75 -1.95 10.9 -3.45 10.9 L-5.4 10.55 -5.85 10.15 -6.05 10.4 -6.9 8.05 -7.05 5.85 Q-7.05 2.35 -4.4 -4.4 -1.55 -11.45 0.9 -13.1 L1.0 -13.05 M-3.8 -0.8 L-3.1 -2.95 -3.5 -1.85 -3.8 -0.8 M-1.05 1.45 Q-1.05 -0.15 0.35 -4.75 -1.2 -0.2 -1.2 1.0 L-0.9 4.2 -0.85 4.45 -1.05 1.45 M-5.9 5.8 L-5.8 4.4 Q-6.15 6.5 -6.15 8.5 L-5.8 9.8 -5.55 9.3 -5.25 8.8 -5.65 7.65 -5.9 7.05 -5.9 5.8 M-1.85 5.65 Q-2.0 5.05 -2.3 5.2 L-1.8 6.6 -1.85 5.65 M-2.7 8.05 L-2.7 8.0 -2.65 8.05 -2.75 7.6 -2.7 8.05" fill="#333333" fill-rule="evenodd" stroke="none"/>
  </g>
</svg>
