<?xml version="1.0" encoding="UTF-8" standalone="no"?>
<svg xmlns:xlink="http://www.w3.org/1999/xlink" height="14.7px" width="14.7px" xmlns="http://www.w3.org/2000/svg">
  <g transform="matrix(1.0, 0.0, 0.0, 1.0, 8.15, 13.05)">
    <path d="M2.45 -12.75 L2.4 -12.8 2.4 -12.9 2.5 -13.0 2.6 -13.05 2.75 -13.05 2.9 -13.0 3.0 -12.95 3.2 -12.85 3.3 -12.8 3.4 -12.75 3.5 -12.7 3.55 -12.65 3.65 -12.6 3.85 -12.45 3.9 -12.4 4.05 -12.25 4.25 -12.1 4.6 -11.65 4.95 -11.05 5.45 -10.25 5.55 -10.05 5.6 -10.0 5.6 -9.9 5.65 -9.85 5.7 -9.75 5.7 -9.7 5.75 -9.65 5.75 -9.55 5.8 -9.5 5.85 -9.4 5.85 -9.35 5.9 -9.25 5.9 -9.2 5.95 -9.15 6.0 -9.05 6.0 -9.0 6.05 -8.9 6.3 -7.9 6.5 -6.5 6.55 -5.0 6.55 -4.65 6.5 -4.5 6.45 -4.4 6.35 -4.1 6.35 -3.85 6.25 -3.65 6.25 -3.6 6.1 -3.35 5.95 -3.1 5.8 -2.8 5.65 -2.5 5.55 -2.45 5.5 -2.4 5.35 -2.4 5.2 -2.25 5.0 -2.1 4.65 -1.8 4.55 -1.75 4.45 -1.7 4.35 -1.75 Q2.85 0.15 0.4 0.85 L-2.9 1.65 -3.3 1.65 -3.5 1.6 -3.6 1.5 -3.65 1.45 -3.7 1.4 -3.75 1.3 -3.75 1.25 -3.75 1.15 -4.7 1.55 Q-6.6 1.75 -8.0 0.35 L-8.1 0.05 -8.15 -0.8 -8.0 -2.2 -7.8 -2.9 Q-7.2 -4.0 -5.95 -4.3 L-3.45 -4.2 -3.45 -3.95 -0.05 -4.1 0.8 -4.35 1.65 -4.7 1.75 -4.8 1.95 -5.1 2.15 -5.3 2.2 -5.4 2.2 -5.45 2.25 -5.6 2.3 -5.75 2.3 -5.8 2.55 -6.25 2.55 -6.7 2.55 -7.05 2.5 -7.1 2.5 -7.2 2.45 -7.25 2.45 -7.35 2.4 -7.4 2.35 -7.55 2.25 -7.75 2.2 -7.95 2.15 -8.2 2.1 -8.25 1.95 -8.45 1.7 -8.8 1.4 -9.2 1.35 -9.3 1.3 -9.4 1.3 -9.45 1.25 -9.55 1.25 -9.6 1.2 -9.65 1.1 -9.8 0.9 -10.1 0.65 -10.4 0.55 -10.55 0.55 -10.6 0.5 -10.65 0.5 -10.75 0.45 -10.8 0.4 -10.9 0.3 -10.95 0.25 -11.05 0.2 -11.1 0.2 -11.15 0.2 -11.25 0.2 -11.3 0.2 -11.4 0.2 -11.45 0.25 -11.5 0.3 -11.6 0.35 -11.65 0.45 -11.7 0.6 -11.75 0.6 -11.85 0.6 -11.95 0.6 -12.05 0.65 -12.1 0.75 -12.2 0.85 -12.25 0.95 -12.25 1.1 -12.2 1.3 -12.05 1.55 -11.85 1.7 -11.7 1.8 -11.7 2.6 -11.45 2.7 -11.45 2.65 -11.55 2.6 -11.6 2.6 -11.7 2.6 -11.75 2.6 -11.85 2.6 -11.95 2.6 -12.05 2.65 -12.1 2.7 -12.2 2.8 -12.25 2.9 -12.3 3.05 -12.3 3.05 -12.35 3.15 -12.3 2.7 -12.6 2.65 -12.6 2.55 -12.6 2.5 -12.7 2.45 -12.75 M5.2 -9.4 L5.2 -9.5 5.15 -9.55 5.1 -9.65 5.1 -9.7 5.05 -9.75 5.0 -9.85 5.0 -9.9 4.95 -10.0 4.95 -10.05 4.45 -10.85 3.75 -11.8 3.55 -11.95 3.65 -11.85 3.75 -11.7 4.25 -11.0 4.8 -10.1 5.2 -9.3 5.2 -9.2 5.25 -9.15 5.25 -9.1 5.3 -9.0 5.35 -8.95 5.35 -8.85 5.4 -8.8 5.4 -8.75 5.45 -8.65 5.5 -8.6 5.55 -8.5 5.6 -8.45 5.5 -8.75 5.45 -8.85 5.4 -8.9 5.4 -9.0 5.35 -9.05 5.3 -9.15 5.3 -9.25 5.25 -9.35 5.2 -9.4 M0.25 -2.7 L-0.1 -2.65 -0.5 -2.55 -0.8 -2.5 -0.65 -2.45 -0.5 -2.45 -0.1 -2.55 0.3 -2.7 0.25 -2.7 M4.85 -2.45 L4.95 -2.55 5.1 -2.65 5.15 -2.8 5.2 -2.9 5.1 -2.8 4.95 -2.65 4.85 -2.45 M5.75 -4.1 L5.65 -4.05 5.55 -4.0 5.4 -3.95 5.45 -3.9 5.45 -3.85 5.5 -3.8 5.5 -3.7 5.5 -3.65 5.5 -3.55 5.5 -3.5 5.5 -3.4 5.5 -3.35 5.6 -3.6 5.7 -3.75 5.75 -3.85 5.75 -4.0 5.85 -4.3 5.8 -4.25 5.75 -4.2 5.75 -4.1 M5.3 -3.05 L5.35 -3.15 5.25 -3.0 5.25 -2.95 5.3 -3.05 M-3.2 -2.6 L-3.45 -2.6 -3.45 -2.55 -3.2 -2.6" fill="#333333" fill-rule="evenodd" stroke="none"/>
  </g>
</svg>
