<?xml version="1.0" encoding="UTF-8" standalone="no"?>
<svg xmlns:xlink="http://www.w3.org/1999/xlink" height="41.8px" width="41.7px" xmlns="http://www.w3.org/2000/svg">
  <g transform="matrix(1.0, 0.0, 0.0, 1.0, -0.5, -1.5)">
    <path d="M40.2 15.5 L38.8 12.3 Q38.2 10.65 37.6 10.0 L35.75 8.0 33.1 6.15 30.0 4.1 Q28.25 2.95 26.75 2.45 25.25 1.95 24.0 1.95 L21.35 2.05 18.0 2.35 Q16.15 2.4 14.65 3.3 13.15 4.3 11.2 5.15 L8.65 6.6 6.9 8.0 4.55 10.85 Q3.25 12.35 2.65 13.9 2.0 15.45 1.7 17.25 L1.15 20.15 Q0.9 21.3 0.95 22.45 0.95 24.2 1.3 26.0 L2.2 29.3 Q2.7 30.75 3.75 32.4 L5.35 34.8 6.9 36.85 Q8.2 38.3 9.7 39.0 L12.8 40.65 Q14.45 41.6 16.2 42.0 L18.85 42.5 21.35 42.85 25.1 42.45 28.6 41.55 Q30.1 41.1 31.45 40.05 L33.85 38.2 35.75 36.85 Q37.3 35.7 38.15 34.05 L39.9 30.8 Q40.85 29.25 41.1 27.45 L41.5 24.7 41.75 22.45 41.3 18.9 Q41.0 17.15 40.2 15.5 Z" fill="none" stroke="#ffffff" stroke-linecap="round" stroke-linejoin="round" stroke-opacity="0.5019608" stroke-width="1.0"/>
  </g>
</svg>
