<?xml version="1.0" encoding="UTF-8" standalone="no"?>
<svg xmlns:xlink="http://www.w3.org/1999/xlink" height="24.8px" width="11.85px" xmlns="http://www.w3.org/2000/svg">
  <g transform="matrix(1.0, 0.0, 0.0, 1.0, 0.2, 13.7)">
    <path d="M1.8 -13.55 L2.15 -11.5 2.4 -11.5 Q2.7 -8.5 5.1 -3.0 L5.85 -1.7 5.6 -2.45 Q2.55 -9.05 2.45 -12.25 2.4 -13.2 2.85 -13.7 5.35 -3.0 11.6 5.25 L11.55 5.6 11.65 6.65 11.55 7.4 11.55 7.8 Q11.6 8.5 11.05 9.5 10.5 10.4 9.8 10.7 L9.4 11.1 8.85 10.75 Q7.7 10.55 6.6 9.75 L5.75 9.0 5.35 8.85 4.7 7.35 4.7 7.3 Q3.1 5.0 1.8 0.3 0.45 -4.25 -0.2 -9.05 L-0.05 -11.15 Q0.1 -12.7 0.55 -12.6 L0.55 -11.95 0.45 -11.85 Q0.5 -9.85 1.0 -7.45 1.0 -9.7 1.5 -10.45 L1.3 -12.0 1.25 -13.55 1.8 -13.55 M1.7 -9.2 Q1.7 -8.65 2.1 -7.7 L1.7 -9.25 1.7 -9.2 M2.95 -6.85 L2.95 -6.45 3.05 -5.95 3.55 -5.45 Q3.3 -5.8 3.2 -6.3 L2.95 -6.85 M5.4 0.55 L4.8 -0.85 5.3 0.55 5.4 0.55 M10.1 5.1 L10.2 4.9 9.7 4.35 10.1 5.1 M9.0 6.45 L8.3 5.7 8.45 7.8 8.8 7.85 9.0 6.45 M9.8 7.7 L9.95 7.6 9.9 7.5 9.8 7.5 9.8 7.7" fill="#333333" fill-rule="evenodd" stroke="none"/>
  </g>
</svg>
