<?xml version="1.0" encoding="UTF-8" standalone="no"?>
<svg xmlns:xlink="http://www.w3.org/1999/xlink" height="23.6px" width="11.35px" xmlns="http://www.w3.org/2000/svg">
  <g transform="matrix(1.0, 0.0, 0.0, 1.0, -0.5, 13.15)">
    <path d="M8.25 6.7 L7.7 6.7 7.7 7.25 8.25 7.25 8.25 6.7 M6.95 2.0 L6.95 2.7 7.0 2.85 7.05 2.95 7.5 3.0 6.95 2.0 M1.75 -9.45 L2.2 -11.45 Q2.7 -14.05 3.15 -12.7 4.5 -3.95 10.05 3.25 L10.75 3.65 11.35 5.05 Q13.05 10.3 8.7 10.45 L8.25 9.95 Q8.3 11.55 4.8 6.7 1.3 1.85 0.5 -11.45 1.15 -11.0 1.75 -9.45" fill="#333333" fill-rule="evenodd" stroke="none"/>
  </g>
</svg>
