<?xml version="1.0" encoding="UTF-8" standalone="no"?>
<svg xmlns:xlink="http://www.w3.org/1999/xlink" height="16.05px" width="13.9px" xmlns="http://www.w3.org/2000/svg">
  <g transform="matrix(1.0, 0.0, 0.0, 1.0, 10.55, 12.85)">
    <path d="M-8.45 0.3 L-8.5 0.35 -7.65 0.2 -8.45 0.3 M-5.05 -2.0 L-4.65 -2.25 Q-3.45 -2.95 -2.85 -4.2 L-2.5 -4.8 -4.1 -3.25 Q-4.85 -2.65 -5.05 -2.0 M-0.75 -4.05 L-0.8 -4.2 Q-1.0 -5.05 -2.05 -2.9 -2.65 -1.7 -3.65 -0.85 L-4.5 -0.1 Q-3.5 -0.4 -2.75 -1.15 -1.45 -2.45 -0.75 -4.05 M2.2 -12.8 L2.35 -12.85 Q2.9 -12.7 2.8 -12.15 L3.2 -11.8 Q3.6 -9.8 3.0 -8.05 L2.75 -6.4 2.45 -5.6 2.45 -5.45 2.3 -4.95 1.2 -3.0 Q-0.75 0.65 -4.75 2.4 L-6.95 3.05 Q-9.25 3.7 -10.3 1.8 L-10.4 1.05 -10.55 0.3 -10.45 -0.25 -10.0 -1.2 Q-9.3 -2.55 -7.8 -2.95 -3.6 -3.85 -1.4 -7.35 L-1.05 -8.05 -0.7 -9.1 -0.1 -12.2 0.0 -12.2 Q0.45 -12.15 0.45 -11.7 0.55 -12.15 0.9 -12.4 1.55 -12.3 1.9 -11.95 1.7 -12.5 2.2 -12.8" fill="#333333" fill-rule="evenodd" stroke="none"/>
  </g>
</svg>
