<?xml version="1.0" encoding="UTF-8" standalone="no"?>
<svg xmlns:xlink="http://www.w3.org/1999/xlink" height="15.55px" width="13.6px" xmlns="http://www.w3.org/2000/svg">
  <g transform="matrix(1.0, 0.0, 0.0, 1.0, 10.6, 12.65)">
    <path d="M2.7 -12.55 L2.8 -12.4 2.9 -12.3 2.95 -12.15 3.0 -12.0 3.0 -11.7 3.0 -11.3 3.0 -10.85 3.0 -10.55 2.95 -10.45 2.9 -10.3 2.85 -10.15 2.8 -10.0 2.8 -9.85 2.8 -9.7 2.8 -9.6 2.8 -9.45 2.8 -9.3 2.75 -9.15 2.75 -9.0 2.7 -8.85 2.65 -8.7 2.65 -8.45 2.65 -8.0 2.65 -7.6 2.65 -7.3 2.4 -6.45 2.1 -5.3 1.85 -4.3 1.8 -4.2 1.75 -4.05 1.6 -3.9 1.5 -3.75 1.45 -3.6 1.35 -3.45 1.3 -3.35 1.2 -3.2 1.1 -3.05 0.9 -2.75 0.8 -2.6 0.75 -2.5 0.45 -2.05 -0.1 -1.35 -0.55 -0.9 -0.6 -0.75 -0.7 -0.65 -0.8 -0.5 -0.9 -0.35 -1.0 -0.2 -1.85 0.4 -3.1 1.15 -3.3 1.2 -3.5 1.25 -3.8 1.35 -4.05 1.5 -5.0 1.95 -5.2 2.1 -5.35 2.2 -5.65 2.5 -6.0 2.6 -6.1 2.55 -6.2 2.6 -7.2 2.7 -7.35 2.8 -7.45 2.8 -7.7 2.85 -8.25 2.9 -8.95 2.75 -9.15 2.6 -9.6 2.3 -10.05 1.9 -10.45 1.45 -10.5 1.3 -10.55 1.15 -10.6 1.05 -10.6 0.9 -10.6 0.75 -10.6 0.45 -10.6 0.05 -10.6 -0.4 -10.6 -0.55 -10.55 -0.7 -10.45 -0.8 -10.15 -1.1 -9.45 -1.65 -8.8 -2.1 -8.5 -2.2 -8.35 -2.25 -5.4 -3.35 Q-4.45 -3.75 -3.55 -4.35 L-3.2 -4.8 -2.45 -5.5 -2.15 -5.8 -2.1 -5.95 -2.0 -6.05 -1.95 -6.2 -1.85 -6.35 -1.8 -6.5 -1.7 -6.65 -1.7 -6.8 -1.6 -6.95 -1.55 -7.05 -1.45 -7.2 -1.4 -7.35 -1.3 -7.5 -1.25 -7.65 -1.15 -7.8 -1.1 -7.9 -1.0 -8.05 -0.95 -8.2 -0.85 -8.35 -0.8 -8.5 -0.75 -8.65 -0.65 -8.9 -0.5 -9.35 -0.35 -9.9 -0.35 -10.05 -0.35 -10.2 -0.4 -10.35 -0.4 -10.5 -0.4 -10.6 -0.4 -10.75 -0.3 -10.9 -0.1 -11.05 -0.05 -11.2 -0.05 -11.35 -0.05 -11.45 0.0 -11.6 0.1 -11.75 0.2 -11.85 0.45 -11.9 0.75 -11.8 0.9 -11.65 0.95 -11.5 0.95 -11.4 0.95 -11.25 0.95 -11.1 0.95 -10.8 0.95 -10.5 1.0 -10.5 1.25 -10.55 1.3 -10.7 1.3 -10.85 1.3 -11.0 1.3 -11.15 1.3 -11.3 1.35 -11.4 1.4 -11.55 1.6 -11.85 1.7 -12.0 1.7 -12.15 1.75 -12.3 1.85 -12.4 2.0 -12.55 2.35 -12.65 2.7 -12.55" fill="#333333" fill-rule="evenodd" stroke="none"/>
  </g>
</svg>
