<?xml version="1.0" encoding="UTF-8" standalone="no"?>
<svg xmlns:xlink="http://www.w3.org/1999/xlink" height="9.85px" width="16.3px" xmlns="http://www.w3.org/2000/svg">
  <g transform="matrix(1.0, 0.0, 0.0, 1.0, 11.35, 4.5)">
    <path d="M-10.85 2.45 L-6.35 5.15 Q-6.35 5.75 -8.9 4.5 L-11.35 2.8 Q-11.35 2.45 -10.85 2.45" fill="#333333" fill-rule="evenodd" stroke="none"/>
    <path d="M-6.2 -4.1 Q-6.2 -4.5 -5.9 -4.5 -5.35 -4.5 -4.4 -2.6 L-3.5 -0.6 Q-3.5 -0.3 -3.75 -0.15 -6.2 -3.6 -6.2 -4.1" fill="#333333" fill-rule="evenodd" stroke="none"/>
    <path d="M3.1 1.15 L3.75 -1.0 Q4.4 -3.15 4.6 -3.15 L4.95 -2.9 4.95 -2.65 4.3 -0.2 3.35 1.85 Q3.1 1.65 3.1 1.15" fill="#333333" fill-rule="evenodd" stroke="none"/>
  </g>
</svg>
