<?xml version="1.0" encoding="UTF-8" standalone="no"?>
<svg xmlns:xlink="http://www.w3.org/1999/xlink" height="46.0px" width="63.05px" xmlns="http://www.w3.org/2000/svg">
  <g transform="matrix(1.0, 0.0, 0.0, 1.0, 31.5, 23.0)">
    <path d="M10.35 -16.3 L10.45 -16.2 10.5 -16.15 10.55 -16.05 10.55 -15.95 10.6 -15.85 10.6 -15.75 10.6 -15.65 10.6 -15.55 10.6 -15.45 10.6 -15.4 10.6 -15.3 10.6 -15.2 10.6 -15.1 10.55 -15.0 10.55 -14.9 10.5 -14.8 10.45 -14.7 10.4 -14.65 10.3 -14.45 10.15 -14.25 10.05 -14.05 9.9 -13.9 9.95 -13.8 10.1 -13.75 10.3 -13.7 10.45 -13.65 10.6 -13.55 10.7 -13.45 10.8 -13.4 10.85 -13.3 10.9 -13.2 10.95 -13.1 11.0 -13.0 11.05 -12.9 11.05 -12.8 11.1 -12.7 11.1 -12.65 11.1 -12.35 11.1 -11.9 11.1 -11.7 11.1 -11.3 11.05 -10.95 11.0 -10.85 10.85 -10.55 10.65 -10.2 10.55 -10.0 10.4 -9.75 10.2 -9.55 9.95 -9.45 9.85 -9.35 9.7 -9.25 9.45 -9.15 9.25 -9.05 9.1 -9.0 9.05 -8.95 2.3 -8.65 -0.15 -9.15 -0.4 -9.2 -0.6 -9.25 -0.8 -9.3 -0.9 -9.35 -1.1 -9.3 -1.75 -9.15 -2.6 -9.05 -2.7 -9.05 -3.0 -9.0 -3.95 -8.95 -4.3 -8.9 -7.05 -9.05 -8.05 -9.3 -8.2 -9.4 -9.15 -10.15 -9.6 -10.7 -10.1 -11.65 -10.15 -11.75 -10.2 -11.85 -10.2 -11.95 -10.25 -12.05 -10.25 -12.15 -10.25 -12.2 -10.25 -12.3 -10.25 -12.4 -10.3 -12.5 -10.3 -12.6 -10.4 -12.7 -10.4 -12.8 -10.4 -12.9 -10.45 -12.95 -10.45 -13.05 -10.45 -13.15 -10.55 -13.25 -10.55 -13.35 -10.65 -13.45 -10.65 -13.55 -10.65 -13.9 -10.65 -14.3 -10.65 -14.45 -10.65 -14.85 -10.55 -15.3 -10.5 -15.4 -10.5 -15.5 -10.5 -15.6 -10.5 -15.7 -10.5 -15.8 -10.5 -15.9 -10.45 -15.95 -10.45 -16.05 -10.4 -16.15 -10.35 -16.25 -9.95 -17.0 -9.4 -17.55 -8.45 -18.5 -8.2 -18.8 -8.05 -18.85 -6.15 -19.05 -5.15 -19.05 -5.1 -19.15 -5.1 -19.55 -5.1 -19.9 -5.1 -20.1 -5.1 -20.45 -5.05 -20.95 -5.05 -21.05 -5.0 -21.15 -5.0 -21.2 -5.0 -21.3 -5.0 -21.4 -4.95 -21.5 -4.8 -21.65 -4.55 -21.85 -4.25 -22.05 -4.2 -22.05 -4.0 -22.1 -3.65 -22.1 -3.4 -22.0 -3.0 -21.85 -2.6 -21.65 -2.45 -21.55 -2.4 -21.45 -2.3 -21.4 -2.2 -21.3 -2.05 -21.1 -2.0 -21.0 -1.9 -20.9 -1.8 -20.8 -1.75 -20.7 -1.7 -20.65 -1.65 -20.55 -1.65 -20.45 -1.6 -20.35 -1.55 -20.3 -1.45 -20.3 -1.35 -20.4 -1.2 -20.45 -1.1 -20.5 -0.9 -20.55 -0.75 -20.55 -0.55 -20.5 -0.4 -20.45 -0.25 -20.35 -0.15 -20.25 -0.1 -20.15 -0.05 -20.05 0.0 -19.95 0.0 -19.9 0.0 -19.8 0.05 -19.7 0.1 -19.75 0.15 -19.85 0.2 -19.95 0.25 -20.05 0.3 -20.15 0.35 -20.2 0.65 -20.5 1.0 -20.95 1.15 -21.15 1.55 -21.55 1.7 -21.65 1.8 -21.7 1.9 -21.8 2.05 -21.9 2.15 -21.9 2.45 -21.95 2.75 -22.05 3.15 -22.1 3.3 -22.15 3.4 -22.2 3.6 -22.2 4.85 -22.2 5.2 -22.15 5.35 -22.05 5.55 -21.95 5.7 -21.95 5.85 -21.9 5.95 -21.8 6.05 -21.8 6.5 -21.75 6.7 -21.7 6.85 -21.65 7.05 -21.55 7.1 -21.45 7.45 -21.2 7.8 -20.9 7.95 -20.7 8.0 -20.6 8.1 -20.45 8.1 -20.35 8.15 -20.25 8.2 -20.15 8.25 -20.05 8.3 -19.95 8.3 -19.9 8.35 -19.8 8.4 -19.7 8.45 -19.6 8.5 -19.5 8.7 -18.75 8.85 -18.3 8.95 -17.45 8.95 -16.4 8.95 -16.35 9.05 -16.4 9.2 -16.45 9.35 -16.5 9.55 -16.55 9.75 -16.6 9.95 -16.55 10.1 -16.5 10.3 -16.4 10.35 -16.3" fill="#ffffff" fill-rule="evenodd" stroke="none"/>
    <path d="M5.45 -19.6 L5.75 -19.45 5.95 -19.25 6.1 -19.05 6.25 -18.85 6.4 -18.7 6.45 -18.5 6.5 -18.3 6.55 -18.1 6.65 -17.95 6.75 -17.55 6.8 -17.35 6.8 -17.2 6.8 -17.0 6.8 -16.8 6.8 -16.6 6.8 -16.25 6.8 -15.85 6.9 -15.75 Q7.15 -15.6 7.35 -15.55 L7.75 -15.45 8.0 -15.25 8.2 -15.05 8.4 -14.85 8.45 -14.7 8.5 -14.5 8.7 -14.3 8.95 -14.1 9.1 -13.95 9.25 -13.75 9.45 -13.55 9.5 -13.4 9.65 -13.2 9.7 -13.0 9.75 -12.8 9.8 -12.6 9.9 -12.45 9.9 -12.25 9.9 -12.05 9.9 -11.85 9.9 -11.7 9.9 -11.5 9.9 -11.3 9.8 -11.1 9.75 -10.95 9.7 -10.75 9.55 -10.55 9.25 -10.2 8.85 -9.85 8.45 -9.25 8.4 -9.05 8.4 -8.85 8.3 -8.7 8.25 -8.5 8.15 -8.3 8.0 -8.15 7.65 -7.75 7.25 -7.35 7.05 -7.2 6.75 -7.0 6.35 -6.9 5.75 -6.85 5.0 -7.0 4.7 -7.2 4.5 -7.35 4.3 -7.55 4.2 -7.75 3.5 -7.85 3.15 -7.95 2.75 -8.05 2.45 -8.25 2.2 -8.35 1.85 -8.25 1.5 -8.1 1.15 -7.95 0.9 -7.8 0.65 -7.75 Q-1.75 -7.1 -3.7 -8.25 L-3.85 -8.45 -4.05 -8.6 -4.25 -8.8 -4.5 -9.0 -4.85 -9.2 -5.05 -9.35 -5.25 -9.55 -5.35 -9.75 -5.5 -9.95 -5.5 -10.1 -5.55 -10.5 -5.55 -10.85 -5.55 -11.45 -5.5 -11.8 -5.4 -12.0 -5.3 -12.2 -5.2 -12.4 -5.1 -12.55 -4.95 -12.75 -4.75 -12.95 -4.5 -13.1 Q-4.3 -13.2 -4.15 -13.25 L-3.8 -13.35 -3.6 -13.55 -3.35 -13.7 -3.15 -13.75 -2.8 -13.85 -2.8 -14.05 -2.8 -14.45 -2.8 -14.8 -2.8 -15.35 -2.75 -15.75 -2.65 -15.95 -2.55 -16.15 -2.5 -16.3 -2.25 -16.65 -1.85 -17.05 -1.6 -17.2 -1.35 -17.25 0.5 -17.35 0.9 -17.35 0.95 -17.55 1.0 -17.75 1.05 -17.95 1.2 -18.15 1.4 -18.5 1.85 -19.1 2.5 -19.6 2.9 -19.75 3.25 -19.8 4.75 -19.8 5.15 -19.75 5.45 -19.6" fill="#d1d0a5" fill-opacity="0.3019608" fill-rule="evenodd" stroke="none"/>
    <path d="M6.1 -21.0 L6.25 -20.95 7.0 -20.85 7.35 -20.8 7.75 -20.7 8.0 -20.5 8.2 -20.3 8.4 -20.1 8.45 -19.95 8.5 -19.75 8.55 -19.55 8.65 -19.35 8.65 -18.45 8.65 -17.85 8.65 -16.55 8.5 -14.85 8.45 -14.7 8.35 -14.5 8.25 -14.3 8.35 -14.15 8.4 -13.95 8.45 -13.75 8.6 -13.55 8.75 -13.35 8.9 -13.2 8.95 -13.0 9.0 -12.8 9.05 -12.6 9.05 -12.45 9.05 -12.25 9.05 -12.05 9.05 -11.7 9.0 -11.5 9.0 -11.3 8.9 -11.1 8.8 -10.95 8.7 -10.75 8.3 -10.35 8.25 -10.2 8.2 -10.0 8.2 -9.8 8.1 -9.6 8.0 -9.45 7.85 -9.25 7.5 -8.85 7.2 -8.7 6.9 -8.55 6.5 -8.5 6.25 -8.5 4.9 -8.75 4.45 -8.6 4.15 -8.5 3.75 -8.45 2.75 -8.45 2.25 -8.5 2.0 -8.3 0.0 -8.1 -1.15 -8.5 -1.5 -8.7 -1.7 -8.9 -1.8 -9.05 -2.0 -9.25 -2.05 -9.45 -2.1 -9.65 -2.1 -9.8 -2.1 -10.35 -2.1 -10.55 -2.1 -10.95 -2.05 -11.3 -2.0 -11.5 -1.9 -11.7 -1.8 -11.9 -1.75 -12.05 -1.5 -12.45 -1.35 -12.6 -1.3 -12.8 -1.25 -13.0 -1.2 -13.2 -1.0 -13.55 -0.7 -14.15 -0.6 -14.3 -0.4 -14.7 0.25 -15.35 0.4 -15.45 0.65 -15.5 1.95 -15.7 1.9 -16.05 1.9 -16.6 1.9 -16.8 1.9 -17.2 1.9 -17.95 1.9 -18.3 1.95 -18.5 2.0 -18.7 2.05 -18.85 2.2 -19.05 2.4 -19.45 2.55 -19.8 2.7 -20.0 3.05 -20.35 3.45 -20.75 3.75 -20.95 4.15 -21.05 4.5 -21.1 5.0 -21.1 5.5 -21.1 6.1 -21.0" fill="#d1d0a5" fill-opacity="0.3019608" fill-rule="evenodd" stroke="none"/>
    <path d="M-30.4 -2.7 L-30.35 -2.8 -30.3 -2.9 -30.2 -3.0 -30.15 -3.1 -30.1 -3.2 -30.1 -3.3 -30.05 -3.4 -29.7 -3.75 -29.25 -4.25 -28.65 -4.7 -28.15 -5.0 -28.0 -5.05 -27.9 -5.15 -27.9 -5.25 -27.9 -5.35 -27.8 -5.45 -27.7 -5.55 -27.6 -5.6 -27.55 -5.6 -27.35 -5.65 -27.1 -5.75 -26.7 -5.9 -26.5 -6.0 -26.25 -6.05 -23.7 -6.6 -20.6 -6.95 -19.95 -7.0 -19.25 -7.1 -14.85 -7.1 -14.55 -7.05 -13.85 -6.8 -13.05 -6.6 -12.75 -6.5 -12.5 -6.45 -12.25 -6.35 -12.05 -6.3 -11.9 -6.2 -11.85 -6.1 -11.8 -6.05 -11.8 -6.0 -10.25 -6.0 -10.0 -5.9 -9.85 -5.8 -9.75 -5.75 -9.7 -5.65 -9.65 -5.55 -9.55 -5.5 -6.1 -5.45 -5.85 -5.4 -5.7 -5.3 -5.65 -5.2 -5.55 -5.1 -5.55 -5.0 -5.5 -4.9 -5.5 -4.8 -5.5 -4.75 -5.5 -4.65 -5.55 -4.55 -5.55 -4.45 -5.65 -4.35 -5.7 -4.25 -5.75 -4.15 -5.7 -4.05 -5.7 -4.0 -5.75 -3.9 -5.75 -3.8 -5.8 -3.7 -5.85 -3.6 -5.95 -3.5 -6.1 -3.4 -6.35 -3.35 -6.5 -3.35 -6.8 -3.4 -7.5 -3.6 -8.4 -3.95 -9.65 -3.9 -9.8 -3.85 -9.9 -3.75 -10.1 -3.75 -11.3 -3.7 -11.4 -3.65 -11.6 -3.65 -12.8 -3.6 -12.9 -3.6 -14.95 -3.3 -16.85 -3.15 -17.15 -3.1 -19.9 -2.2 -21.7 -1.3 -21.85 -1.2 Q-22.9 -0.45 -24.15 0.0 L-24.3 0.0 -25.35 0.2 -27.3 0.3 -27.4 0.35 -27.7 0.4 -28.15 0.45 -29.25 0.5 -29.55 0.45 -29.7 0.35 -29.85 0.25 -29.95 0.2 -30.05 0.1 -30.1 0.0 -30.1 -0.1 -30.15 -0.2 -30.15 -0.3 -30.15 -0.4 -30.15 -0.5 -30.15 -0.55 -30.15 -0.65 -30.1 -0.85 -30.1 -1.05 -30.1 -1.1 -30.2 -1.25 -30.3 -1.3 -30.4 -1.4 -30.45 -1.5 -30.45 -1.6 -30.5 -1.7 -30.5 -1.8 -30.5 -2.0 -30.5 -2.05 -30.45 -2.25 -30.45 -2.45 -30.45 -2.65 -30.4 -2.7" fill="#a38d88" fill-rule="evenodd" stroke="none"/>
    <path d="M8.1 -5.6 L10.55 -6.45 13.05 -6.9 14.25 -7.0 14.45 -7.05 14.75 -7.1 18.75 -7.0 19.95 -6.9 23.25 -6.2 25.0 -6.05 26.25 -5.8 Q27.45 -5.55 28.45 -4.75 L28.85 -4.5 28.95 -4.4 29.05 -4.3 29.1 -4.2 29.2 -4.1 29.25 -4.0 29.25 -3.9 29.3 -3.8 29.35 -3.75 29.35 -3.65 29.4 -3.55 29.45 -3.45 29.5 -3.35 29.5 -3.25 29.55 -3.15 29.6 -3.05 29.6 -3.0 29.65 -2.9 29.7 -2.8 29.75 -2.7 29.8 -2.6 29.8 -2.5 29.85 -2.4 29.85 -2.3 29.9 -2.25 29.95 -2.15 29.95 -2.05 29.95 -1.95 29.95 -1.85 29.95 -1.75 29.95 -1.65 29.95 -1.55 29.9 -1.5 29.85 -1.4 29.85 -1.3 29.75 -1.2 29.7 -1.1 29.6 -1.0 29.35 -0.9 29.2 -0.85 29.0 -0.8 26.5 -1.05 25.75 -1.1 24.6 -1.25 24.5 -1.3 24.45 -1.3 23.95 -1.4 23.35 -1.5 23.2 -1.6 23.05 -1.7 22.9 -1.8 22.75 -1.9 22.7 -2.0 22.55 -2.05 19.85 -3.0 17.8 -3.5 17.5 -3.55 17.35 -3.6 16.5 -3.65 14.85 -3.85 13.45 -4.1 12.65 -4.15 11.4 -4.25 11.1 -4.3 10.95 -4.4 10.8 -4.5 10.7 -4.55 10.6 -4.65 10.5 -4.75 10.3 -4.65 8.4 -4.4 8.15 -4.5 8.0 -4.55 7.9 -4.65 7.85 -4.75 7.8 -4.85 7.8 -4.95 7.8 -5.05 7.8 -5.15 7.8 -5.25 7.85 -5.3 7.9 -5.4 7.95 -5.5 8.1 -5.6" fill="#a38d88" fill-rule="evenodd" stroke="none"/>
    <path d="M8.65 -7.2 L8.85 -6.5 9.8 -4.95 Q10.75 0.8 11.15 6.55 11.35 10.35 10.45 13.9 10.05 15.5 9.05 17.0 6.25 21.15 1.5 21.55 -3.8 23.3 -7.5 19.5 -8.7 18.35 -9.4 16.8 -11.75 11.6 -10.55 6.05 -10.35 5.15 -10.55 4.25 L-10.95 2.95 -11.0 2.2 Q-9.25 -3.05 -6.55 -7.9 -5.35 -10.1 -2.6 -10.1 L-1.6 -10.0 -0.45 -8.8 -0.35 -8.7 -0.2 -8.35 1.05 -8.25 Q4.15 -11.3 8.1 -8.6 8.7 -8.15 8.65 -7.2" fill="#a38d88" fill-rule="evenodd" stroke="none"/>
    <path d="M-12.2 -6.85 L-11.25 -6.65 -10.75 -6.55 -10.45 -6.35 -10.3 -6.2 -10.2 -6.0 -10.05 -5.8 -9.95 -5.6 -9.9 -5.45 -9.85 -5.25 -9.85 -5.05 -9.9 -4.9 -9.95 -4.7 -10.0 -4.5 -10.15 -4.3 -10.3 -4.1 -10.4 -3.95 -10.5 -3.75 -10.6 -3.55 -10.8 -3.45 -10.95 -3.4 -11.25 -3.35 -18.25 -3.7 -18.55 -3.9 -18.7 -4.0 -18.75 -4.05 -19.25 -4.2 -19.55 -4.35 -19.75 -4.55 -19.85 -4.75 -19.9 -4.95 -19.95 -5.1 -19.95 -5.3 -19.95 -5.5 -19.85 -5.7 -19.75 -5.85 -19.6 -6.05 -19.35 -6.25 -19.1 -6.35 -18.65 -6.5 -18.3 -6.6 -18.1 -6.7 -17.75 -6.75 -16.5 -6.9 -16.5 -6.95 -15.5 -6.95 -12.75 -6.95 -12.2 -6.85" fill="#663333" fill-opacity="0.2" fill-rule="evenodd" stroke="none"/>
    <path d="M-26.95 -3.45 L-26.85 -3.6 -26.7 -3.8 -26.5 -4.0 -26.3 -4.2 -26.1 -4.35 -25.95 -4.55 -25.45 -4.75 -25.05 -4.95 -24.85 -5.1 -24.7 -5.3 -23.05 -5.75 -16.3 -6.35 -16.05 -6.5 -15.85 -6.55 -15.5 -6.6 -14.25 -6.6 -13.75 -6.55 -12.5 -6.35 -12.0 -6.25 -11.6 -6.05 -11.45 -5.85 -11.3 -5.7 -11.15 -5.5 -11.0 -5.3 -10.9 -5.1 -10.8 -4.95 -10.8 -4.75 -10.85 -4.55 -10.85 -4.35 -11.0 -4.2 -11.15 -4.0 -11.3 -3.8 -11.65 -3.65 -11.85 -3.5 -12.15 -3.45 -12.5 -3.35 -13.05 -3.5 -13.75 -3.65 -14.3 -3.75 -14.75 -3.75 -16.65 -2.95 Q-17.55 -2.45 -18.55 -2.1 L-22.95 -0.55 -24.2 0.0 -24.4 0.05 -24.75 0.1 -25.25 0.1 -26.55 -0.05 -26.85 -0.25 -27.05 -0.45 -27.25 -0.65 -27.35 -0.8 -27.5 -1.0 -27.55 -1.2 -27.55 -1.35 -27.55 -1.55 -27.55 -1.75 -27.5 -1.95 -27.5 -2.3 -27.45 -2.7 -27.35 -2.85 -27.2 -3.05 -27.05 -3.25 -26.95 -3.45" fill="#663333" fill-opacity="0.2" fill-rule="evenodd" stroke="none"/>
    <path d="M15.5 -6.5 L15.65 -6.45 16.0 -6.35 16.5 -6.25 16.75 -6.05 16.95 -5.85 17.0 -5.7 17.05 -5.5 17.1 -5.3 17.15 -5.1 17.05 -4.95 17.0 -4.75 16.85 -4.55 16.7 -4.4 16.5 -4.25 16.35 -4.2 15.1 -4.15 13.75 -4.25 13.6 -4.2 11.5 -4.1 11.0 -4.25 10.75 -4.45 10.55 -4.65 10.45 -4.8 10.4 -5.0 10.4 -5.2 10.4 -5.35 10.4 -5.55 10.45 -5.75 10.65 -5.95 10.8 -6.1 11.1 -6.3 11.3 -6.45 11.45 -6.5 11.75 -6.55 12.05 -6.65 12.2 -6.7 12.5 -6.7 12.5 -6.75 14.75 -6.75 15.2 -6.6 15.5 -6.5" fill="#663333" fill-opacity="0.2" fill-rule="evenodd" stroke="none"/>
    <path d="M14.0 -6.35 L19.85 -6.15 22.4 -5.9 Q25.5 -5.45 27.5 -3.2 L27.8 -2.7 27.8 -2.5 27.8 -2.3 27.75 -2.1 27.65 -1.95 27.55 -1.75 27.45 -1.55 27.1 -1.4 26.9 -1.25 26.5 -1.2 25.75 -1.15 25.4 -1.1 25.15 -1.0 24.75 -0.95 24.2 -1.05 23.9 -1.25 23.7 -1.45 23.5 -1.65 23.4 -1.8 23.25 -2.0 23.2 -2.2 23.2 -2.35 23.2 -2.5 23.2 -2.55 22.75 -2.7 22.5 -2.75 22.35 -2.7 22.0 -2.6 21.5 -2.75 21.25 -2.85 21.2 -2.9 15.0 -3.25 14.5 -3.35 14.3 -3.5 13.75 -3.6 13.3 -3.7 13.05 -3.9 12.9 -4.1 12.8 -4.25 12.8 -4.45 12.85 -4.6 12.85 -4.8 12.9 -5.0 12.9 -5.2 12.9 -5.35 12.9 -5.55 12.95 -5.75 13.15 -5.95 13.3 -6.1 13.5 -6.25 13.65 -6.3 14.0 -6.35" fill="#663333" fill-opacity="0.2" fill-rule="evenodd" stroke="none"/>
    <path d="M6.3 -7.75 L6.4 -7.55 6.4 -7.35 6.4 -7.2 6.45 -7.0 6.55 -6.8 6.65 -6.6 6.65 -6.45 6.7 -6.25 6.7 -6.05 6.7 -5.85 6.65 -5.7 6.65 -5.5 6.65 -5.3 6.5 -5.1 6.45 -4.95 6.25 -4.75 6.0 -4.55 5.8 -4.35 5.75 -4.2 5.6 -4.0 5.45 -3.8 5.25 -3.6 4.95 -3.45 Q3.85 -2.9 2.6 -2.75 L-1.75 -2.5 -2.3 -2.65 -2.6 -2.75 -3.5 -2.85 -4.05 -2.95 -4.35 -3.15 -4.6 -3.3 -4.8 -3.5 -5.2 -3.85 -5.35 -4.05 -5.5 -4.25 -5.6 -4.45 -5.65 -4.6 -5.65 -4.8 -5.7 -5.0 -5.7 -5.35 -5.7 -5.55 -5.7 -5.75 -5.65 -6.15 -5.6 -6.3 -5.5 -6.5 -5.05 -7.25 -4.3 -7.95 Q-3.05 -9.05 -1.55 -9.8 L-1.35 -9.85 -1.0 -9.9 -1.0 -9.95 2.25 -9.95 2.75 -9.8 3.65 -9.55 4.75 -9.35 5.25 -9.25 5.65 -9.05 5.8 -8.85 5.95 -8.7 6.05 -8.5 6.15 -8.3 6.25 -8.1 6.25 -7.95 6.3 -7.75" fill="#663333" fill-opacity="0.2" fill-rule="evenodd" stroke="none"/>
    <path d="M5.4 -7.85 L5.45 -7.7 5.5 -7.5 5.55 -7.3 5.65 -7.1 5.65 -6.95 5.65 -6.75 5.65 -6.55 5.65 -6.35 5.65 -6.2 5.65 -6.0 5.65 -5.8 5.55 -5.6 5.5 -5.45 5.45 -5.25 5.35 -5.05 5.25 -4.85 5.05 -4.7 4.75 -4.35 4.5 -4.15 4.2 -3.95 3.25 -3.6 -1.25 -3.6 -3.0 -3.8 -3.25 -4.0 -3.45 -4.2 -3.5 -4.35 -3.55 -4.55 -3.6 -4.75 -3.7 -4.95 -3.75 -5.1 -3.75 -5.3 -3.75 -5.5 -3.75 -5.7 -3.75 -5.85 -3.75 -6.05 -3.75 -6.25 -3.65 -6.45 -3.45 -6.8 -3.3 -7.0 -2.95 -7.4 -2.4 -8.1 -2.05 -8.5 -1.7 -8.7 -0.95 -9.05 -0.55 -9.2 -0.3 -9.25 0.2 -9.35 0.5 -9.4 0.5 -9.45 1.5 -9.4 1.8 -9.35 2.2 -9.25 3.5 -9.05 4.45 -8.8 4.75 -8.6 5.0 -8.45 5.15 -8.25 5.25 -8.05 5.4 -7.85" fill="#663333" fill-opacity="0.2" fill-rule="evenodd" stroke="none"/>
    <path d="M5.7 4.45 L5.8 4.65 5.9 4.8 5.95 5.0 6.0 5.2 6.05 5.4 6.05 5.55 6.05 5.75 6.05 5.95 6.05 6.15 6.05 6.3 6.05 6.5 6.05 6.7 6.05 6.9 6.05 7.05 6.05 7.25 6.0 7.45 5.95 7.65 5.9 7.8 5.8 8.0 5.75 8.2 5.65 8.4 5.55 8.55 5.45 8.75 5.25 8.95 5.05 9.15 5.0 9.3 5.0 9.9 5.0 10.45 4.95 10.65 4.85 11.4 4.65 12.15 4.5 12.3 4.3 12.65 4.0 13.05 3.75 13.45 3.55 13.65 3.45 13.8 3.2 14.0 2.8 14.4 2.55 14.75 2.3 15.15 2.2 15.3 2.0 15.7 1.8 15.9 1.7 16.05 1.45 16.25 1.2 16.45 0.95 16.6 0.65 16.8 0.35 17.0 0.15 17.15 -0.1 17.2 -1.5 17.45 -3.6 17.3 Q-4.35 17.15 -4.95 16.7 L-5.1 16.5 -5.45 16.15 -5.75 15.75 -6.0 15.35 -6.05 15.2 -6.2 15.0 -6.5 14.8 -7.2 14.45 -7.8 14.05 -8.1 13.9 -8.3 13.7 -8.55 13.3 -8.8 12.95 -9.05 12.55 -9.2 12.35 -9.35 12.0 -9.4 11.8 -9.45 10.7 -9.45 9.4 -9.35 7.85 -8.75 5.65 -8.65 5.45 -8.55 5.25 -8.45 5.05 -8.45 4.9 -8.45 4.7 -8.45 4.5 -8.45 4.3 -8.4 4.15 -8.35 3.95 -8.3 3.75 -8.2 3.55 -8.0 3.4 -7.8 3.2 -7.6 3.0 -7.45 2.8 -7.25 2.65 -6.85 2.45 -5.85 2.2 -4.75 2.0 -4.6 1.95 -4.35 1.9 -4.0 1.85 -4.0 1.8 -1.5 1.85 Q-0.9 1.85 -0.35 2.2 L0.0 2.2 0.75 2.2 1.75 2.2 2.25 2.3 2.5 2.5 2.65 2.65 2.9 2.75 3.15 2.8 3.4 2.9 3.65 2.95 3.85 3.0 4.25 3.15 4.5 3.3 5.05 3.7 5.45 4.1 5.7 4.45" fill="#663333" fill-opacity="0.2" fill-rule="evenodd" stroke="none"/>
    <path d="M7.75 1.9 L7.8 2.05 7.85 2.25 7.9 2.45 7.9 2.8 7.9 3.2 7.9 3.55 8.1 3.95 8.4 4.5 8.8 5.25 9.0 5.65 9.1 7.3 9.05 9.75 9.05 12.0 9.05 12.2 9.0 12.4 8.95 12.55 8.9 12.75 8.8 12.95 8.75 13.15 8.65 13.3 8.55 13.5 8.5 13.7 8.45 13.9 8.35 14.05 8.25 14.25 8.05 14.6 7.85 15.0 7.75 15.2 7.55 15.35 7.3 15.55 7.15 15.75 6.75 16.15 6.45 16.3 6.2 16.5 5.8 17.1 5.25 17.85 4.5 18.75 3.95 19.15 3.0 19.7 2.65 19.9 0.9 19.95 -0.75 19.4 -0.95 19.2 -1.35 19.05 -1.75 18.95 -2.05 18.75 -2.25 18.55 -2.35 18.4 -2.5 18.2 -2.55 18.0 -2.6 17.8 -2.65 17.65 -3.0 17.45 -3.3 17.25 -3.7 16.9 -4.25 16.3 -4.8 15.55 -4.9 14.05 -4.85 11.8 -4.85 9.75 -4.85 9.55 -4.85 9.4 -5.0 9.2 -5.3 9.0 -5.5 8.8 -5.6 8.65 -5.75 8.45 -5.8 8.25 -5.85 8.05 -5.95 7.9 -6.0 7.7 -6.1 7.3 -6.1 7.15 -6.1 6.75 -6.1 6.2 -6.1 5.65 -6.05 5.45 -6.0 5.25 -5.85 5.05 -5.85 4.9 -5.85 4.7 -5.8 4.5 -5.75 4.3 -5.6 4.15 -5.3 3.75 -4.75 3.2 Q-3.4 2.35 -1.75 2.6 L-0.6 3.0 0.45 3.0 0.85 2.65 1.3 2.25 2.15 1.75 2.75 1.65 4.25 1.75 4.35 1.65 4.45 1.5 4.5 1.3 4.65 1.15 4.75 0.95 4.95 0.75 5.25 0.55 5.65 0.45 6.0 0.4 6.35 0.45 6.75 0.55 7.0 0.75 7.2 0.95 7.4 1.15 7.45 1.3 7.5 1.5 7.65 1.7 7.75 1.9" fill="#663333" fill-opacity="0.2" fill-rule="evenodd" stroke="none"/>
    <path d="M-30.6 -3.35 L-30.45 -3.55 -30.25 -3.75 -30.05 -3.95 -29.7 -4.3 -29.25 -4.5 -29.0 -4.7 -28.7 -4.85 -28.5 -5.05 -28.3 -5.25 -28.05 -5.45 -27.85 -5.6 -27.5 -5.85 -27.25 -6.0 -27.05 -6.2 -26.85 -6.35 -26.6 -6.5 -25.35 -6.8 -22.7 -7.45 -20.8 -7.55 -20.55 -7.6 -20.25 -7.65 -20.25 -7.7 -19.5 -7.65 -18.5 -7.55 -18.25 -7.5 -17.65 -7.5 -17.25 -7.55 -17.05 -7.5 -16.75 -7.45 -16.2 -7.25 -16.1 -7.2 -16.25 -7.15 -16.75 -7.05 -17.2 -6.95 -17.4 -6.75 -17.5 -6.6 -17.75 -6.55 -18.5 -6.5 -20.4 -6.2 -20.95 -6.0 -21.25 -5.95 -22.2 -5.8 -22.6 -5.6 -23.05 -5.5 -24.45 -5.2 -24.75 -5.0 -25.2 -4.8 -25.6 -4.6 -25.8 -4.45 -26.0 -4.25 -26.25 -4.05 -26.45 -3.85 -26.45 -3.7 -26.5 -3.5 -26.55 -3.3 -26.7 -3.1 -26.8 -2.95 -27.05 -2.75 -27.25 -2.55 -27.35 -2.35 -27.6 -2.2 -27.85 -2.0 -28.05 -1.8 -28.35 -1.6 -28.7 -1.45 -28.95 -1.3 -29.15 -1.25 -29.5 -1.2 -30.05 -1.3 -30.35 -1.5 -30.55 -1.7 -30.65 -1.9 -30.75 -2.05 -30.8 -2.25 -30.8 -2.45 -30.8 -2.6 -30.8 -2.8 -30.75 -3.0 -30.7 -3.2 -30.6 -3.35" fill="#ffffff" fill-opacity="0.101960786" fill-rule="evenodd" stroke="none"/>
    <path d="M0.45 20.2 L0.7 20.4 0.8 20.55 0.9 20.75 0.9 20.95 0.9 21.1 0.9 21.3 0.75 21.5 0.65 21.7 0.45 21.8 0.3 21.85 0.0 21.95 -0.3 22.05 -0.55 22.25 -0.7 22.4 -1.25 22.5 -2.75 22.65 -3.3 22.5 -3.7 22.3 -4.05 22.15 -4.25 21.95 -4.45 21.75 -4.6 21.55 -6.55 20.25 -8.2 18.4 -8.25 18.2 -8.3 18.0 -8.45 17.8 -8.65 17.4 -8.95 16.85 -9.2 16.5 -9.25 16.3 -9.3 16.15 -9.45 15.95 -9.55 15.75 -9.75 15.4 -10.0 15.0 -10.05 14.8 -10.1 14.65 -10.2 14.45 -10.25 14.25 -10.35 13.1 -10.45 11.45 -10.35 9.95 -10.3 9.75 -10.25 9.55 -10.2 7.15 -10.05 4.15 -10.05 1.9 -10.0 1.7 -9.85 1.55 -9.75 1.5 -9.5 1.45 -9.1 1.55 -8.8 1.75 -8.7 1.95 -8.55 2.15 -8.4 4.55 -8.25 7.55 -8.25 9.8 -8.2 10.0 -8.1 10.2 -8.15 11.1 -8.05 12.45 -7.85 13.75 -7.1 15.3 -5.8 17.1 -5.05 18.05 -4.05 18.7 -2.55 19.75 -2.25 19.9 -1.85 19.95 -0.9 20.1 -0.7 20.15 -0.3 20.1 0.0 20.05 0.45 20.2" fill="#ffffff" fill-opacity="0.101960786" fill-rule="evenodd" stroke="none"/>
    <path d="M-3.45 -8.7 L-3.35 -8.5 -3.35 -8.3 -3.3 -8.1 -3.35 -7.95 -3.35 -7.75 -3.45 -7.55 -3.55 -7.35 -3.7 -7.2 -3.75 -7.0 -3.8 -6.8 -3.95 -6.6 -4.05 -6.45 -4.25 -6.25 -4.35 -6.05 -4.45 -5.85 -4.5 -5.7 -4.55 -5.5 -4.55 -5.3 -4.65 -5.15 -4.75 -4.95 -5.1 -4.6 -5.25 -4.45 -5.4 -4.4 -5.75 -4.3 -6.0 -4.3 -6.5 -4.45 -6.8 -4.6 -7.0 -4.8 -7.1 -5.0 -7.15 -5.2 -7.2 -5.35 -7.2 -5.55 -7.2 -5.75 -6.85 -6.3 -6.15 -7.25 -5.5 -8.0 -5.4 -8.2 -5.2 -8.55 -4.85 -8.9 -4.7 -9.05 -4.55 -9.1 -4.25 -9.15 -4.25 -9.2 -3.8 -9.05 -3.55 -8.85 -3.45 -8.7" fill="#ffffff" fill-opacity="0.101960786" fill-rule="evenodd" stroke="none"/>
    <path d="M-6.2 -3.15 L-5.4 -3.25 -5.25 -3.35 -4.95 -3.5 -4.7 -3.6 -4.6 -3.65 -4.4 -3.65 -4.4 -3.7 -2.7 -3.65 Q-1.8 -3.5 -1.15 -2.95 L-0.65 -2.2 -0.65 -2.15 -0.65 -1.95 -0.65 -1.75 -0.65 -1.65 -0.65 -1.55 -0.65 -1.4 -0.6 -1.3 -0.5 -1.1 -0.4 -0.9 -0.35 -0.8 -0.25 -0.65 -0.2 -0.55 -0.15 -0.45 -0.15 -0.35 -0.1 -0.25 -0.1 -0.15 -0.1 0.3 -0.1 0.8 -0.15 1.45 -0.2 2.1 -0.25 2.2 -0.35 2.35 -0.45 2.55 -0.5 2.65 -0.65 2.85 -0.7 2.95 -0.85 3.05 -1.3 3.3 -1.65 3.5 -1.85 3.6 -2.4 3.7 Q-3.55 3.9 -4.7 3.7 L-6.55 3.2 -6.65 3.1 -7.05 2.7 -7.3 2.45 -7.55 2.05 -7.65 1.95 -7.7 1.9 -7.75 1.8 -7.85 1.6 -7.9 1.5 -7.95 1.4 -7.95 1.3 -8.0 1.2 -8.05 1.1 -8.05 1.05 -8.05 0.55 -8.05 0.1 -8.05 -0.65 -8.0 -1.4 -7.95 -1.5 -7.85 -1.7 -7.75 -1.9 -7.7 -1.95 -7.65 -2.05 -7.6 -2.15 -7.5 -2.25 -7.3 -2.45 -7.05 -2.65 -6.95 -2.7 -6.85 -2.8 -6.7 -2.9 -6.55 -3.0 -6.4 -3.1 -6.2 -3.15" fill="#ffffff" fill-rule="evenodd" stroke="none"/>
    <path d="M2.8 -3.8 L4.35 -3.9 4.55 -3.9 4.55 -4.0 4.55 -4.1 4.55 -4.2 4.55 -4.3 4.6 -4.4 4.7 -4.45 4.8 -4.55 4.95 -4.65 5.25 -4.7 5.5 -4.65 6.2 -4.1 6.95 -3.2 7.45 -2.5 7.45 -2.4 7.5 -2.3 7.55 -2.1 7.6 -1.95 7.6 -1.65 7.7 -1.55 7.75 -1.45 7.8 -1.4 7.85 -1.3 7.9 -1.2 7.95 -1.1 7.95 -1.0 8.0 -0.9 8.05 -0.8 8.05 -0.65 8.05 -0.35 8.05 0.05 8.0 0.4 8.0 0.5 7.95 0.6 7.9 0.7 7.85 0.8 7.8 0.85 7.8 0.95 7.75 1.05 7.65 1.25 7.3 1.6 6.6 2.0 6.5 2.1 Q4.7 3.4 2.55 2.5 L1.4 1.85 1.3 1.8 1.2 1.7 1.15 1.6 1.1 1.5 1.1 0.95 1.1 0.1 1.1 -0.75 1.05 -1.3 1.1 -1.4 1.15 -1.6 1.2 -1.8 1.3 -2.05 1.35 -2.35 1.5 -2.55 1.7 -2.8 1.95 -3.2 2.15 -3.4 2.3 -3.45 2.45 -3.55 2.7 -3.75 2.8 -3.8" fill="#ffffff" fill-rule="evenodd" stroke="none"/>
    <path d="M-5.35 -0.15 L-5.0 -0.25 -4.85 -0.3 -4.35 -0.45 -4.1 -0.55 -3.75 -0.6 -2.0 -0.6 -1.5 -0.5 -1.15 -0.3 -0.8 -0.1 -0.65 0.05 -0.5 0.25 -0.45 0.45 -0.4 0.65 -0.35 0.8 -0.35 1.0 -0.35 1.2 -0.35 1.4 -0.35 1.55 -0.45 1.75 -0.5 1.95 -0.55 2.15 -0.65 2.3 -0.75 2.5 -0.9 2.7 -1.05 2.85 -1.5 3.25 -2.0 3.4 -3.0 3.35 -4.5 3.25 -5.0 3.2 -5.35 3.0 -5.7 2.8 -5.85 2.6 -6.0 2.45 -6.1 2.25 -6.2 2.05 -6.25 1.85 -6.25 1.7 -6.25 1.5 -6.25 1.3 -6.25 1.15 -6.2 0.95 -6.1 0.75 -6.0 0.55 -5.9 0.4 -5.8 0.2 -5.7 0.0 -5.5 -0.1 -5.35 -0.15" fill="#d1d0a5" fill-opacity="0.3019608" fill-rule="evenodd" stroke="none"/>
    <path d="M-6.35 -0.5 L-6.0 -0.55 -5.75 -0.55 -4.25 -0.45 -3.75 -0.35 -3.5 -0.25 -3.05 -0.1 -2.8 0.05 -2.7 0.25 -2.55 0.45 -2.45 0.65 -2.4 0.8 -2.35 1.0 -2.35 1.2 -2.35 1.4 -2.35 1.55 -2.35 1.95 -2.35 2.3 -2.45 2.5 -2.5 2.7 -2.6 2.85 -2.75 3.05 -2.95 3.25 -3.2 3.45 -3.35 3.55 -3.75 3.6 -5.25 3.55 -6.25 3.45 -6.6 3.25 -6.95 3.05 -7.1 2.85 -7.25 2.7 -7.3 2.5 -7.3 2.3 -7.3 1.95 -7.3 1.55 -7.3 1.0 -7.3 0.65 -7.3 0.45 -7.2 0.25 -7.05 0.05 -6.85 -0.1 -6.7 -0.3 -6.5 -0.45 -6.35 -0.5" fill="#d1d0a5" fill-opacity="0.3019608" fill-rule="evenodd" stroke="none"/>
    <path d="M4.95 -0.6 L5.15 -0.8 5.3 -1.0 5.5 -1.1 5.65 -1.2 6.0 -1.3 6.25 -1.5 6.65 -1.7 6.9 -1.8 7.25 -1.85 7.75 -1.75 8.0 -1.55 8.2 -1.35 8.25 -1.2 8.3 -1.0 8.4 -0.8 8.45 -0.6 8.55 -0.45 8.65 -0.25 8.65 -0.05 8.7 0.15 8.7 0.3 8.7 0.7 8.7 0.9 8.6 1.05 8.35 1.45 7.75 2.0 7.55 2.15 7.0 2.15 5.25 2.15 4.8 2.0 4.55 1.8 4.45 1.6 4.4 1.45 4.4 1.25 4.4 1.05 4.4 0.85 4.45 0.5 4.45 0.3 4.5 0.15 4.7 -0.05 4.75 -0.25 4.8 -0.45 4.95 -0.6" fill="#d1d0a5" fill-opacity="0.3019608" fill-rule="evenodd" stroke="none"/>
    <path d="M5.25 -0.45 L5.75 -0.3 6.5 -0.2 7.0 -0.05 7.3 0.15 7.45 0.3 7.55 0.5 7.65 0.7 7.65 0.9 7.7 1.05 7.7 1.25 7.7 1.45 7.65 1.6 7.65 1.8 7.55 2.0 7.45 2.2 7.3 2.4 7.0 2.55 6.7 2.75 6.55 2.9 6.35 2.95 6.0 3.0 5.75 3.05 5.6 3.1 5.25 3.2 4.5 3.1 4.15 3.05 3.9 3.0 3.75 2.95 3.25 2.8 2.95 2.65 2.75 2.45 2.55 2.25 2.45 2.05 2.4 1.9 2.35 1.7 2.3 1.5 2.3 1.3 2.3 1.15 2.35 0.75 2.4 0.4 2.45 0.2 2.55 0.0 2.75 -0.2 3.0 -0.3 3.15 -0.35 3.5 -0.4 3.5 -0.45 5.25 -0.45" fill="#d1d0a5" fill-opacity="0.3019608" fill-rule="evenodd" stroke="none"/>
    <path d="M10.9 -14.5 Q12.9 -13.05 11.95 -10.75 11.05 -8.5 8.85 -8.15 9.45 -7.55 9.6 -6.55 14.1 -7.85 18.6 -7.9 L20.0 -7.5 22.8 -7.4 Q24.5 -6.8 25.7 -6.85 L28.1 -5.8 30.7 -3.9 31.55 -1.55 Q31.55 -0.6 30.5 -0.8 30.8 -0.4 31.55 -0.5 30.6 0.85 28.85 0.9 L26.25 0.8 Q25.55 0.0 24.4 0.55 22.85 0.4 20.95 -0.95 L18.5 -2.6 Q16.9 -3.5 14.9 -3.9 11.9 -4.15 10.7 -3.9 10.7 -1.6 11.55 -0.75 11.95 0.3 11.45 1.1 11.95 3.0 12.25 5.8 11.95 6.45 12.0 7.4 12.3 17.9 4.05 22.25 0.8 23.25 -0.15 22.95 -6.3 22.55 -8.15 20.25 L-10.4 17.4 -11.6 13.75 Q-11.4 12.15 -12.0 10.6 L-10.95 1.35 Q-10.35 -1.9 -9.65 -3.15 L-13.1 -3.3 -17.3 -2.9 Q-18.6 -2.1 -20.3 -1.8 -21.9 -1.5 -22.65 -0.25 L-23.45 0.15 -23.85 0.55 Q-24.1 0.9 -24.85 1.1 L-26.3 1.45 -28.45 1.45 Q-31.05 1.25 -31.45 -0.95 -31.8 -2.8 -30.5 -4.2 -27.8 -6.8 -22.1 -7.9 L-16.5 -7.9 -11.15 -7.1 -8.6 -6.05 Q-7.6 -6.4 -7.15 -7.95 -10.1 -8.0 -10.4 -10.05 -10.8 -10.15 -11.25 -11.15 -11.85 -12.55 -11.5 -15.3 -10.5 -18.6 -7.0 -19.05 -4.5 -18.85 -4.35 -17.65 -7.6 -18.7 -9.9 -16.65 -10.95 -14.3 -10.3 -12.45 -9.65 -10.6 -8.05 -9.5 L-5.4 -9.0 Q-7.15 -6.9 -8.6 -2.4 L-7.45 -3.25 Q-6.35 -4.1 -5.5 -3.25 L-4.9 -4.0 -6.2 -4.1 Q-6.6 -4.3 -6.8 -4.8 -6.35 -6.0 -5.1 -5.8 L-3.05 -5.85 -6.5 -6.35 Q-6.15 -7.45 -5.2 -7.95 L0.35 -7.95 Q-0.15 -8.75 -1.75 -8.5 -1.8 -9.3 -0.7 -9.0 -1.3 -9.6 -1.5 -10.6 L1.35 -10.05 Q2.55 -9.9 3.0 -11.6 3.4 -11.0 3.1 -10.1 4.05 -9.75 4.4 -11.05 L5.1 -13.5 Q5.65 -12.3 5.1 -10.85 5.25 -10.45 5.75 -11.0 6.25 -11.55 6.4 -11.15 6.1 -9.35 4.6 -8.75 5.3 -8.15 6.4 -7.95 5.8 -6.45 3.3 -6.9 3.65 -5.95 4.7 -6.2 5.75 -6.4 6.2 -5.85 6.9 -5.9 6.4 -5.0 7.15 -4.7 7.5 -4.0 7.7 -3.65 8.3 -3.7 8.25 -2.75 8.5 -2.3 9.05 0.35 7.75 2.05 8.3 3.1 7.5 3.65 L8.3 4.2 Q7.9 5.75 5.9 5.65 L2.45 6.05 0.65 5.75 Q1.75 6.55 3.55 6.6 L6.95 6.85 Q6.7 8.0 5.65 8.4 1.2 8.55 -1.75 7.65 -3.85 7.85 -6.25 7.65 -5.3 7.95 -4.65 8.65 L1.3 9.05 7.5 9.5 Q7.5 10.95 6.4 11.3 L-2.55 10.8 Q-2.05 11.55 -0.95 11.6 L0.35 11.6 5.1 12.35 6.95 12.15 Q7.45 12.75 8.0 12.65 7.95 13.95 7.15 13.95 6.25 14.0 5.65 14.5 -1.4 15.35 -5.45 14.25 -4.5 15.5 -2.3 15.55 L3.3 16.1 Q2.55 17.85 -0.4 17.4 -0.15 18.3 1.15 18.2 2.4 18.15 3.0 18.75 2.45 19.6 0.65 19.25 L-0.2 18.95 -2.85 18.75 Q-3.25 17.95 -3.3 16.85 L-7.0 15.8 Q-7.6 15.15 -7.55 13.95 -8.35 13.4 -8.35 12.15 -7.55 12.1 -7.55 12.8 -7.55 13.5 -6.8 13.45 -7.5 12.7 -7.0 11.85 -7.5 11.65 -7.55 11.05 -7.45 9.7 -6.25 9.5 -9.05 8.7 -8.9 7.9 -8.7 6.75 -7.55 6.6 L-8.6 5.55 Q-7.15 3.95 -5.2 4.7 -5.8 3.9 -7.3 3.95 L-8.9 2.05 -8.9 -0.45 -8.9 -0.5 -8.8 -0.5 -8.9 -0.8 Q-10.4 5.25 -10.2 11.1 -10.25 14.15 -8.55 17.2 -6.35 18.25 -5.7 19.85 -2.4 21.4 0.9 20.9 1.25 21.25 0.9 21.65 9.2 19.95 10.7 11.35 10.35 7.0 10.7 4.0 10.1 3.15 10.45 1.85 L9.9 0.25 9.9 -1.85 9.55 -2.6 Q9.15 -3.0 9.4 -3.9 8.45 -5.0 8.3 -6.85 7.75 -7.9 7.5 -9.2 L9.1 -9.5 Q10.2 -9.95 10.7 -10.8 11.05 -12.5 10.15 -13.45 L9.1 -13.7 Q9.8 -14.55 10.15 -15.6 L9.9 -16.1 9.05 -16.15 8.3 -16.1 Q8.8 -18.25 8.15 -19.7 7.45 -21.15 5.15 -21.9 3.75 -21.7 3.0 -21.9 1.2 -21.1 0.15 -19.55 0.05 -20.35 0.6 -21.15 L1.2 -21.9 Q3.2 -23.3 4.3 -22.95 8.4 -22.5 9.6 -19.7 10.15 -18.3 9.45 -17.4 10.6 -17.95 11.45 -16.9 11.7 -15.2 10.9 -14.5 M1.05 -1.25 Q0.85 0.45 1.7 1.8 5.85 3.7 7.5 0.75 7.55 -1.8 6.4 -2.65 5.45 -3.8 3.4 -3.4 1.2 -3.0 1.05 -1.25 M0.35 -2.65 Q0.45 -2.35 0.9 -2.65 0.65 -3.1 0.35 -2.65 M11.75 -6.55 L10.5 -6.25 Q9.7 -6.1 10.15 -5.5 L11.45 -5.8 Q13.05 -5.8 14.4 -6.35 L14.4 -5.5 Q17.7 -6.45 18.35 -5.8 L18.8 -4.7 Q20.95 -5.75 21.75 -5.0 L21.5 -4.2 Q23.9 -4.6 25.7 -4.2 25.45 -3.2 24.6 -2.7 26.7 -3.85 27.4 -3.15 27.9 -2.6 27.85 -1.55 29.2 -0.9 29.95 -2.1 28.95 -2.65 28.65 -3.35 L26.25 -5.0 Q23.4 -6.15 19.1 -6.85 L13.85 -6.85 11.75 -6.55 M0.35 4.2 L2.75 3.95 Q1.7 3.0 0.35 4.2 M-28.7 -2.4 Q-28.45 -3.75 -27.35 -4.2 -26.9 -3.75 -27.2 -3.45 L-23.4 -6.35 Q-27.75 -5.7 -30.2 -3.15 -30.75 -2.1 -30.2 -1.3 -29.65 -1.1 -29.45 -0.5 -27.7 0.65 -26.65 0.05 -25.6 -0.6 -24.7 -0.5 -23.5 -1.7 -21.2 -2.65 -26.05 -0.75 -26.8 -1.3 -27.0 -2.45 -25.8 -3.3 -27.75 -1.9 -28.7 -2.4 M-23.9 -3.7 L-21.8 -5.25 Q-20.2 -6.05 -19.95 -6.85 L-22.3 -6.55 Q-22.25 -5.4 -23.1 -4.85 -24.0 -4.25 -23.9 -3.7 M-4.2 -21.45 Q-4.85 -21.05 -5.1 -20.0 -5.3 -22.75 -3.6 -22.35 -1.95 -22.0 -1.7 -20.9 L-1.3 -19.6 Q-2.5 -21.25 -4.2 -21.45 M-5.75 -15.3 Q-5.7 -16.75 -4.4 -16.9 -4.5 -15.45 -5.75 -15.3 M-15.5 -5.0 Q-13.2 -5.0 -11.75 -5.8 L-14.65 -6.35 Q-15.0 -5.55 -15.5 -5.0 M-17.55 -6.55 Q-18.8 -5.25 -20.5 -4.45 -17.9 -5.3 -15.7 -6.55 L-17.55 -6.55 M-8.05 -0.45 Q-8.05 1.15 -7.0 2.35 -5.05 3.35 -2.85 2.9 -1.4 2.35 -1.0 1.5 -0.45 -1.05 -1.75 -2.4 -3.0 -3.55 -5.5 -3.25 -8.05 -2.5 -8.0 -0.45 L-8.05 -0.45" fill="#483e32" fill-rule="evenodd" stroke="none"/>
    <path d="M-3.85 -1.4 Q-4.05 -0.4 -3.1 -0.75 L-3.05 -0.75 Q-2.95 -0.25 -3.2 0.2 -3.85 0.95 -4.75 0.6 L-5.35 0.1 Q-5.65 -0.6 -5.25 -1.35 -4.6 -2.0 -3.75 -1.5 L-3.85 -1.4" fill="#483e32" fill-rule="evenodd" stroke="none"/>
    <path d="M4.95 -1.5 L5.05 -1.5 Q5.65 -0.9 5.2 0.0 L5.1 0.15 Q4.55 0.75 3.6 0.4 L3.3 0.15 3.25 0.15 Q3.1 -0.1 3.1 -0.3 3.0 -0.95 3.45 -1.35 L4.2 -1.4 4.1 -1.1 Q4.1 -0.9 4.25 -0.7 L4.6 -0.6 5.0 -0.7 5.1 -1.1 5.0 -1.45 4.95 -1.5" fill="#483e32" fill-rule="evenodd" stroke="none"/>
  </g>
</svg>
