<?xml version="1.0" encoding="UTF-8" standalone="no"?>
<svg xmlns:xlink="http://www.w3.org/1999/xlink" height="36.95px" width="41.75px" xmlns="http://www.w3.org/2000/svg">
  <g transform="matrix(1.0, 0.0, 0.0, 1.0, 20.4, 17.5)">
    <path d="M1.75 -16.75 L3.0 -15.9 3.55 -15.3 3.75 -15.0 3.95 -14.75 4.1 -14.45 4.7 -14.15 5.25 -13.9 5.55 -13.6 6.1 -13.4 6.6 -13.2 6.95 -12.9 7.25 -12.65 7.5 -12.35 7.7 -12.1 11.55 -10.8 Q13.55 -10.0 15.4 -8.75 L17.15 -7.3 17.55 -6.8 17.65 -6.5 17.75 -6.2 17.85 -5.9 17.95 -5.65 17.95 -5.35 17.95 -5.05 17.95 -4.8 18.05 -4.5 18.25 -4.2 18.4 -3.95 18.5 -3.65 18.7 -3.35 18.8 -3.1 19.0 -2.8 19.1 -2.5 19.1 -1.95 19.1 -1.65 19.1 -1.1 19.1 -0.8 19.1 -0.5 19.1 -0.25 19.1 0.05 19.1 0.35 19.1 0.6 19.0 0.9 18.9 1.2 18.7 1.45 18.5 1.75 18.3 2.0 18.05 2.3 18.15 2.6 18.4 2.9 18.6 3.15 18.8 3.45 19.1 4.3 19.15 4.6 19.25 4.85 19.45 5.45 19.55 5.75 19.65 6.0 19.75 6.3 19.85 6.6 19.95 6.85 19.95 7.15 19.95 7.45 19.95 8.0 19.95 8.3 19.95 8.55 19.95 8.85 19.95 9.15 19.95 9.4 19.95 9.7 19.85 10.0 19.75 10.25 19.6 10.55 19.55 10.85 19.55 11.1 19.55 11.4 19.55 11.7 19.55 12.0 19.55 12.25 19.55 12.55 19.55 12.85 19.45 13.1 19.25 13.4 19.0 13.7 18.7 13.95 18.4 14.25 18.15 14.55 17.85 14.8 17.55 15.1 17.1 15.4 16.7 15.65 16.25 15.95 15.4 16.1 13.95 16.35 13.1 16.5 11.6 16.5 11.05 16.4 10.75 16.35 10.25 16.15 7.05 16.15 5.9 16.15 4.95 16.25 4.6 16.4 3.75 16.7 2.9 16.9 -1.3 16.85 -1.85 16.8 -3.35 16.05 -3.9 15.75 -4.8 15.2 -5.75 14.4 -6.5 13.8 -6.95 13.5 -7.25 13.2 -7.45 12.9 -7.65 12.65 -9.4 11.95 -10.35 11.4 -10.85 11.1 -11.25 10.85 -11.6 10.55 -11.8 10.25 -12.0 10.0 -12.2 9.7 -12.45 9.4 -12.65 9.15 -12.85 8.85 -12.95 8.55 -13.1 8.3 -13.3 8.0 -13.5 7.7 -13.7 7.45 -13.8 7.15 -13.95 6.85 -14.05 6.6 -14.25 6.3 -14.35 6.0 -14.45 5.75 -14.55 5.45 -14.75 5.15 -14.85 4.85 -14.9 4.6 -15.0 4.3 -15.0 4.0 -15.0 3.45 -15.0 3.15 -15.0 2.9 -15.0 2.6 -15.0 2.3 -15.0 2.05 -15.0 1.75 -15.1 1.45 -15.4 1.15 -15.6 0.9 -15.75 0.6 -15.85 0.35 -16.05 0.05 -16.15 -0.25 -16.35 -0.5 -16.45 -0.8 -16.55 -1.1 -16.65 -1.4 -16.7 -1.65 -16.8 -1.95 -16.85 -2.25 -16.9 -2.5 -17.0 -2.8 -17.0 -3.1 -17.0 -3.35 -17.0 -3.65 -17.0 -3.95 -17.6 -4.1 -18.35 -4.3 -18.7 -4.6 -19.0 -4.9 -19.3 -5.15 -19.55 -5.45 -19.85 -5.75 -20.15 -6.0 -20.2 -6.3 -20.3 -6.6 -20.4 -6.85 -20.4 -7.15 -20.4 -7.45 -20.4 -7.7 -20.4 -8.0 -20.4 -8.3 -20.4 -8.55 -20.4 -8.85 -20.4 -9.15 -20.3 -9.45 -20.2 -9.7 -20.15 -10.0 -20.05 -10.3 -19.95 -10.55 -19.75 -10.85 -19.55 -11.1 -19.3 -11.4 -19.0 -11.7 -18.7 -12.0 -18.4 -12.25 -18.15 -12.55 -17.65 -12.85 -17.3 -13.1 -16.9 -13.4 -16.65 -13.7 -16.35 -13.95 -16.05 -14.25 -15.7 -14.55 -15.0 -14.7 -13.6 -15.0 -12.65 -15.2 -12.15 -15.3 -11.7 -15.4 -11.3 -15.5 -11.15 -15.6 -10.75 -15.75 -10.0 -15.85 Q-8.6 -15.85 -7.35 -16.4 L-5.05 -17.1 -2.8 -17.5 -0.55 -17.5 -0.5 -17.45 0.35 -17.3 1.15 -17.0 1.75 -16.75" fill="#5b5546" fill-opacity="0.3019608" fill-rule="evenodd" stroke="none"/>
    <path d="M14.25 3.25 L14.15 3.2 14.1 3.25 14.05 3.55 14.05 3.85 14.05 4.1 14.25 4.7 14.35 5.25 14.55 5.8 14.7 6.1 14.7 5.8 14.7 5.55 14.7 5.25 14.65 4.95 14.55 4.4 14.4 3.85 14.25 3.25 M9.05 -6.4 L9.4 -6.1 10.0 -5.55 10.55 -5.0 10.85 -4.7 11.15 -4.4 11.4 -4.2 12.0 -4.1 12.55 -4.0 12.9 -4.0 13.1 -4.05 13.3 -4.3 13.7 -4.6 14.25 -4.8 14.7 -4.65 14.9 -4.6 15.1 -4.4 15.35 -4.1 15.55 -3.85 15.75 -3.55 15.95 -3.25 16.05 -3.0 16.45 -2.7 16.8 -2.4 17.1 -2.1 17.3 -1.85 17.35 -1.55 17.55 -1.3 17.75 -1.0 17.95 -0.7 18.15 -0.45 18.25 -0.15 18.4 0.15 18.5 0.4 18.7 0.7 18.8 1.0 19.1 1.25 19.25 1.85 19.35 2.15 19.45 2.4 19.5 2.7 19.55 3.0 19.6 3.25 19.65 3.55 19.65 4.4 19.65 5.25 19.65 6.4 19.65 7.25 19.65 7.8 19.65 8.1 19.55 8.4 19.45 8.65 19.15 8.95 18.9 9.25 18.6 9.5 18.3 9.8 17.85 10.05 17.3 10.35 16.55 10.55 15.95 10.75 14.95 11.25 12.95 11.9 11.2 12.25 10.2 12.45 9.7 12.9 9.15 13.5 8.85 13.75 8.45 14.05 7.9 14.35 7.3 14.9 5.7 15.75 4.0 16.2 3.25 16.35 2.5 16.15 1.95 15.85 1.65 15.55 1.45 15.3 1.25 15.0 1.2 14.7 0.9 14.45 -0.15 14.4 -0.7 14.35 -1.2 14.15 -1.55 13.85 -1.85 13.6 -2.15 13.3 -2.4 13.0 -2.9 13.2 -3.45 13.5 -4.3 13.7 -5.8 13.6 Q-7.05 13.5 -8.0 12.7 L-8.85 11.85 -9.25 11.3 -9.35 11.05 -9.45 10.75 -9.5 10.45 -9.6 10.15 -9.65 9.9 -9.7 9.6 -9.8 9.3 -9.8 9.05 -9.8 8.75 -9.8 8.45 -9.8 8.2 -9.8 7.9 -9.8 7.6 -9.8 7.35 -10.4 7.25 -11.15 7.2 -11.7 7.15 -12.15 6.95 -12.55 6.65 -12.85 6.4 -13.1 6.1 -13.3 5.8 -13.4 5.55 -13.5 5.25 -13.6 4.95 -13.6 4.7 -13.6 4.4 -13.7 4.1 -13.8 3.85 -13.9 3.55 -13.95 3.25 -13.95 3.0 -13.95 2.7 -13.95 2.4 -14.7 2.2 -15.2 2.05 -15.6 1.75 -15.75 1.45 -15.95 1.2 -16.05 0.9 -16.15 0.6 -16.25 0.35 -16.25 -0.25 -16.25 -0.5 -16.25 -0.8 -16.25 -1.1 -16.25 -1.4 -16.25 -1.65 -16.25 -1.95 -16.15 -2.25 -16.05 -2.5 -15.95 -2.8 -15.75 -3.1 -15.7 -3.35 -15.5 -3.65 -16.05 -3.7 -16.8 -3.75 -17.4 -3.85 -17.65 -3.95 -17.95 -4.15 -18.35 -4.4 -18.5 -4.7 -18.7 -5.0 -18.8 -5.25 -18.9 -5.55 -18.9 -5.85 -18.9 -6.1 -18.9 -6.4 -18.9 -6.7 -18.9 -6.95 -18.9 -7.25 -18.8 -7.55 -18.7 -7.8 -18.6 -8.1 -18.4 -8.4 -18.35 -8.65 -18.15 -8.95 -17.85 -9.25 -17.5 -9.5 -17.1 -9.8 -16.65 -10.1 -15.45 -11.15 -14.25 -12.05 -13.0 -12.6 -12.25 -12.85 -10.75 -12.85 -10.75 -12.8 -10.2 -12.75 -9.7 -12.55 -8.85 -12.5 -6.95 -12.4 -6.4 -12.35 -5.9 -12.15 -5.25 -11.6 -4.4 -10.75 -3.85 -10.2 -3.3 -9.6 -3.1 -9.35 -3.0 -9.05 -2.9 -8.75 -2.8 -8.5 -2.6 -8.2 -2.5 -7.9 -2.4 -7.65 -2.05 -7.55 -1.65 -7.5 -1.1 -7.4 -0.8 -7.35 -0.45 -7.15 0.15 -6.85 1.0 -6.8 4.0 -6.95 4.8 -7.05 7.6 -6.85 8.3 -6.7 9.05 -6.4" fill="#5b5546" fill-opacity="0.3019608" fill-rule="evenodd" stroke="none"/>
    <path d="M-3.55 3.45 L-3.35 3.15 -3.2 2.9 -3.0 2.6 -2.9 2.3 -2.7 2.05 -2.7 2.0 -3.1 2.05 -3.5 2.6 -4.0 3.2 -4.5 3.75 -4.6 4.0 -4.7 4.3 -4.9 4.6 -4.95 4.9 -5.05 5.45 -5.2 6.0 -5.35 6.6 -5.35 6.85 -5.35 7.7 -5.35 8.55 -5.35 9.4 -4.1 9.4 -4.05 9.15 -4.05 7.7 -4.05 6.0 -4.05 4.6 -3.95 4.3 -3.85 4.0 -3.65 3.75 -3.55 3.45 M4.85 -0.45 L6.1 0.4 6.85 1.0 7.15 1.3 7.35 1.55 7.5 1.85 9.9 2.2 13.7 2.5 14.15 2.7 14.6 3.0 15.0 3.25 15.5 3.55 15.75 3.85 16.05 4.1 16.35 4.4 16.6 4.7 16.9 4.95 17.15 5.0 17.3 4.85 17.3 4.6 17.3 4.3 17.35 4.0 17.6 3.75 17.85 3.45 18.4 3.25 18.9 3.4 19.1 3.45 19.25 3.65 19.45 3.95 19.55 4.2 19.55 4.5 19.75 4.8 19.95 5.05 20.1 5.35 20.3 5.65 20.5 5.9 20.6 6.5 20.9 7.9 21.1 8.75 21.15 9.05 21.2 9.3 21.25 9.6 21.25 9.9 21.25 10.2 21.25 10.45 21.25 10.75 21.25 11.05 21.25 11.3 21.35 11.6 21.35 11.9 21.35 12.15 21.25 12.45 21.15 12.75 21.05 13.0 20.9 13.3 20.8 13.6 20.6 13.85 20.5 14.15 20.1 14.7 19.95 15.0 19.75 15.3 19.45 15.6 19.15 15.85 18.7 16.15 18.4 16.45 18.15 16.7 17.85 17.0 17.55 17.3 Q16.4 18.1 15.0 18.15 L14.25 18.25 13.3 18.4 13.1 18.5 12.75 18.7 12.15 19.0 11.6 19.25 10.85 19.45 10.45 19.45 9.9 19.35 9.5 19.15 8.95 18.9 8.45 18.6 Q5.6 18.2 2.9 17.15 L0.5 16.05 Q-2.0 16.05 -4.4 15.3 L-6.1 14.55 -6.4 14.25 -6.7 13.95 -6.95 13.7 -7.25 13.4 -7.7 13.1 -8.1 12.8 -8.35 12.55 -8.6 12.25 -8.75 12.0 -8.85 11.7 -8.95 11.4 -9.15 11.1 -9.35 10.85 -9.45 10.55 -9.6 10.25 -9.7 10.0 -10.1 8.85 -10.25 8.3 -10.3 8.0 -10.35 7.7 -10.45 7.45 -10.45 7.15 -10.45 6.85 -10.45 6.6 -10.55 6.3 -11.15 6.0 -11.6 5.45 -12.0 4.85 -12.15 4.6 -12.35 4.3 -12.55 4.05 -12.75 3.85 -12.95 4.1 -13.2 4.4 -13.7 4.7 -14.55 4.85 -16.05 4.85 -16.8 4.7 -17.3 4.4 -17.65 4.1 -17.85 3.85 -18.25 3.55 -18.4 3.25 -18.5 3.0 -18.7 2.7 -18.8 2.4 -18.8 2.15 -18.8 1.85 -18.8 1.55 -18.8 1.25 -18.7 1.0 -18.6 0.7 -18.5 0.4 -18.3 0.15 -18.05 -0.15 -17.55 -0.45 -16.8 -0.6 -15.9 -0.75 -15.85 -0.8 -15.7 -1.0 -15.4 -1.3 -14.9 -1.55 -14.15 -1.75 -13.6 -1.65 -13.15 -1.45 -12.55 -1.2 -12.1 -0.9 -11.8 -0.6 -11.6 -0.35 -11.4 -0.05 -10.95 0.1 -10.85 0.05 -10.85 -0.25 -10.75 -0.5 -10.65 -0.8 -10.55 -1.1 -10.35 -1.35 -10.1 -1.65 -9.6 -1.95 -8.85 -2.15 -8.5 -2.1 -7.9 -2.05 -7.45 -1.85 -7.05 -1.55 -6.85 -1.3 -6.7 -1.0 -6.6 -0.7 -6.45 -0.45 -6.4 -0.35 -6.2 -0.55 -6.0 -0.8 -5.85 -1.1 -5.45 -1.35 -4.85 -1.65 -4.0 -1.9 -3.2 -2.15 -2.4 -2.15 -2.4 -2.1 -1.85 -2.05 -1.3 -1.85 -0.45 -1.55 0.05 -1.3 0.5 -1.0 0.9 -0.7 1.35 -0.65 4.0 -0.6 4.85 -0.45" fill="#5b5546" fill-opacity="0.3019608" fill-rule="evenodd" stroke="none"/>
    <path d="M11.2 -2.9 L11.4 -2.6 11.5 -2.3 11.7 -2.05 11.8 -1.75 12.0 -1.5 12.25 -1.2 12.55 -0.9 12.9 -0.9 13.0 -1.0 12.45 -1.85 11.6 -3.0 10.65 -4.1 10.55 -4.2 10.5 -4.2 10.55 -4.05 10.75 -3.75 10.95 -3.45 11.1 -3.2 11.2 -2.9 M7.45 -10.0 L7.45 -9.95 8.0 -9.9 8.75 -9.7 9.5 -9.5 10.15 -9.2 11.1 -8.65 11.6 -8.55 12.25 -8.4 13.7 -6.9 14.4 -6.1 Q15.05 -5.45 15.75 -5.0 L15.95 -4.7 16.15 -4.1 16.25 -3.85 16.35 -3.55 16.4 -3.25 16.55 -2.7 16.6 -2.4 16.8 -2.15 16.9 -1.85 17.0 -1.55 17.0 -0.45 17.0 1.0 17.0 1.85 17.0 3.0 16.9 3.25 16.7 3.55 16.5 3.8 16.25 4.1 16.15 4.4 16.25 4.7 16.25 4.95 16.25 5.8 16.25 6.4 16.25 6.65 16.25 7.25 16.25 7.8 16.15 8.1 16.05 8.4 15.85 8.65 15.75 8.95 15.55 9.25 15.35 9.5 15.1 9.8 14.45 10.05 12.75 10.55 10.45 10.5 9.6 10.35 8.45 9.7 5.95 8.15 4.3 6.85 4.1 7.15 3.85 7.45 3.35 7.7 2.5 7.9 1.95 7.8 1.55 7.6 1.1 7.35 0.9 7.05 0.8 6.75 0.6 6.5 0.5 6.2 0.5 5.65 0.5 5.05 0.5 4.8 0.5 4.5 0.5 3.95 0.5 3.35 0.6 3.05 0.8 2.8 0.9 2.5 1.0 2.2 1.2 1.95 1.4 1.65 1.65 1.35 2.15 1.1 2.35 0.75 2.4 0.5 2.4 -0.05 2.4 -0.9 2.4 -1.45 2.4 -2.05 2.4 -2.9 2.5 -3.2 2.6 -3.45 2.7 -3.75 2.8 -4.05 3.0 -4.3 3.05 -4.6 3.2 -4.9 3.25 -5.15 3.25 -5.45 3.25 -5.75 3.25 -6.0 3.25 -6.3 3.25 -6.6 3.25 -7.15 3.25 -7.45 3.35 -7.7 3.45 -8.0 3.55 -8.3 3.75 -8.55 4.1 -8.85 4.5 -9.15 5.15 -9.4 5.75 -9.6 6.5 -9.8 7.45 -10.0" fill="#5b5546" fill-opacity="0.3019608" fill-rule="evenodd" stroke="none"/>
    <path d="M5.05 -15.2 L5.35 -14.9 5.6 -14.6 5.8 -14.35 5.9 -14.05 6.0 -13.8 6.0 -13.5 6.0 -13.2 6.0 -12.95 5.9 -12.65 5.75 -12.35 5.65 -12.1 6.1 -11.8 6.75 -11.6 9.15 -11.0 9.9 -10.85 10.25 -10.75 10.85 -10.75 11.6 -10.8 12.35 -10.85 13.2 -10.65 Q14.85 -9.9 16.4 -8.95 L17.45 -8.1 19.15 -6.35 19.55 -5.85 19.65 -5.55 19.65 -5.0 19.65 -4.1 19.65 -3.85 19.65 -3.55 19.65 -3.0 19.65 -1.85 19.65 -1.3 19.65 -1.0 19.55 -0.7 19.45 -0.45 19.25 -0.15 19.1 0.15 18.7 0.45 18.4 0.7 18.5 1.0 18.6 1.55 18.7 1.85 18.75 2.15 18.8 2.4 18.9 2.7 18.9 3.0 18.9 3.85 18.9 4.1 18.9 4.4 18.9 4.7 19.0 4.85 19.55 4.85 20.2 5.05 20.4 5.35 20.55 5.65 20.6 5.9 20.55 6.2 20.4 6.5 20.2 6.75 19.45 7.05 19.15 7.3 18.8 7.6 18.05 7.8 17.65 7.9 17.35 8.1 16.5 8.25 14.35 8.4 14.25 8.45 14.05 8.65 13.8 8.95 13.5 9.25 13.2 9.5 12.9 9.8 12.45 10.1 11.6 10.25 10.95 10.3 10.75 10.35 7.1 11.65 Q2.15 12.65 -2.35 10.7 -4.3 9.9 -5.65 8.3 L-6.1 8.1 -6.95 8.3 -8.1 8.3 -8.95 8.1 -10.25 7.7 -10.85 7.4 Q-11.1 7.3 -11.3 7.15 L-11.6 6.85 -11.8 6.6 -12.4 5.75 -12.9 5.15 -13.15 4.9 -13.4 4.6 -13.5 4.3 -13.7 4.0 -13.8 3.75 -13.95 3.45 -14.05 3.15 -14.15 2.9 -14.35 2.6 -14.9 2.05 -16.0 0.85 -16.45 0.35 -16.65 0.05 -16.7 -0.25 -16.8 -0.5 -16.9 -0.8 -17.0 -1.1 -17.2 -1.4 -17.4 -1.65 -17.65 -1.95 -18.25 -2.8 -18.6 -3.35 -18.8 -3.65 -19.0 -3.95 -19.35 -4.2 -19.55 -4.5 -19.75 -4.8 -19.95 -5.05 -20.05 -5.35 -20.2 -5.65 -20.3 -5.95 -20.35 -6.2 -20.4 -6.5 -20.4 -6.8 -20.3 -7.05 -20.2 -7.35 -20.0 -7.6 -19.75 -7.9 -19.25 -8.25 -19.2 -8.5 -19.3 -8.75 -19.4 -9.05 -19.45 -9.35 -19.35 -9.6 -19.15 -9.9 -18.9 -10.2 -18.3 -10.35 -17.55 -10.45 -17.1 -10.65 -17.0 -10.95 -16.8 -11.25 -16.7 -11.5 -16.55 -11.8 -16.35 -12.1 -16.15 -12.35 -15.95 -12.65 Q-15.2 -13.25 -14.25 -13.45 L-12.1 -13.85 -12.0 -13.95 -11.95 -14.25 -11.9 -14.55 -11.8 -14.85 -11.7 -15.1 -11.5 -15.4 -11.25 -15.7 -10.75 -15.95 -10.0 -16.15 -8.5 -16.15 -7.65 -15.95 -6.95 -15.95 -6.2 -16.15 -5.85 -16.25 -5.45 -16.5 -4.95 -16.8 -4.3 -17.05 -3.55 -17.3 -1.3 -17.3 -1.3 -17.25 -0.7 -17.2 Q0.7 -16.65 2.25 -16.4 L4.1 -15.95 4.5 -15.75 4.8 -15.5 5.05 -15.2" fill="#5b5546" fill-opacity="0.3019608" fill-rule="evenodd" stroke="none"/>
    <path d="M8.85 -6.3 L8.9 -6.45 9.0 -6.6 9.05 -6.75 9.1 -6.9 9.2 -7.0 9.35 -7.15 9.65 -7.25 10.0 -7.15 10.2 -7.0 10.25 -6.9 10.3 -6.75 10.3 -5.45 10.3 -4.2 10.3 -3.35 10.35 -3.2 10.35 -3.05 10.35 -2.9 10.35 -2.75 10.1 -1.75 9.75 -0.6 9.45 0.2 9.35 0.35 9.35 0.5 9.3 0.65 9.25 0.8 9.25 0.95 9.35 1.35 9.45 1.65 9.5 1.8 9.55 1.95 9.8 1.95 10.25 1.65 10.5 1.5 10.75 1.35 10.9 1.2 11.2 0.95 11.35 0.8 11.5 0.65 11.55 0.5 11.65 0.35 11.7 0.2 11.75 0.1 11.85 -0.05 11.9 -0.2 11.95 -0.35 11.95 -0.5 11.95 -0.65 11.95 -0.75 11.95 -0.9 11.9 -1.05 11.9 -1.35 11.9 -1.75 11.9 -2.2 11.9 -2.45 11.95 -2.6 11.95 -4.2 11.95 -6.05 11.95 -7.6 12.0 -7.75 12.05 -7.85 12.1 -8.0 12.15 -8.15 12.25 -8.3 12.45 -8.45 12.75 -8.55 12.95 -8.55 12.95 -8.5 13.15 -8.45 13.25 -8.45 13.35 -8.35 13.5 -8.2 13.75 -7.35 13.95 -6.35 14.1 -5.65 14.1 -5.35 14.1 -4.95 14.1 -4.65 14.1 -4.35 14.15 -4.25 14.15 -4.1 14.15 -3.35 14.15 -2.8 14.15 -2.4 14.1 -2.25 14.1 -2.1 14.05 -1.95 14.05 -1.8 14.0 -1.65 14.0 -1.55 14.0 -1.4 14.0 -1.25 13.95 -1.1 13.9 -0.95 13.85 -0.8 13.6 -0.4 13.4 -0.1 13.3 0.05 13.2 0.2 13.15 0.3 13.25 0.6 13.4 1.15 13.5 1.6 13.6 1.8 13.7 1.7 13.85 1.55 14.0 1.4 14.05 1.25 14.1 1.1 14.15 1.0 14.25 0.85 14.35 0.55 14.5 0.0 14.6 -0.45 14.7 -0.7 14.8 -0.85 14.85 -1.0 14.9 -1.15 14.95 -1.3 15.0 -1.45 15.1 -1.55 15.2 -1.7 15.25 -1.85 15.3 -2.0 15.35 -2.15 15.5 -2.3 15.75 -2.25 15.85 -2.1 15.9 -1.95 15.9 -1.8 15.9 -1.65 15.85 -1.55 15.8 -1.4 15.8 -1.25 15.8 -1.1 15.75 -0.95 15.55 -0.25 15.4 0.45 15.3 0.9 15.2 1.05 15.15 1.15 15.1 1.45 15.05 1.6 15.0 1.75 14.95 1.9 14.85 2.0 14.75 2.15 14.65 2.3 14.5 2.45 14.45 2.6 14.4 2.75 14.3 2.85 14.15 3.0 14.0 3.15 13.7 3.25 13.25 3.25 13.0 3.2 12.95 3.15 12.85 3.05 12.8 2.9 12.7 2.8 12.6 2.65 12.55 2.5 12.45 2.2 12.4 2.05 12.35 1.95 12.25 1.85 12.1 2.0 11.95 2.1 11.75 2.25 11.6 2.4 11.35 2.55 10.65 3.0 10.25 3.25 9.9 3.35 9.15 3.4 8.9 3.35 8.8 3.3 8.65 3.2 8.55 3.05 8.45 2.9 8.4 2.8 8.3 2.65 8.25 2.5 8.2 2.35 8.1 2.25 7.95 2.4 7.65 2.7 7.5 2.85 7.35 2.95 6.65 3.35 6.05 3.65 5.75 3.6 5.5 3.6 5.3 3.5 5.05 3.35 4.85 3.2 4.75 3.05 4.65 2.9 4.6 2.8 4.6 2.65 4.6 2.5 4.55 2.35 4.3 2.45 3.95 2.6 3.65 2.7 3.1 2.65 2.85 2.65 2.7 2.55 2.5 2.4 2.45 2.25 2.35 2.1 2.3 2.0 2.2 1.85 2.15 1.7 2.1 1.55 2.0 1.4 1.95 1.25 1.95 1.1 1.95 1.0 1.95 0.85 1.9 0.85 1.7 1.0 1.35 1.1 1.15 1.0 1.05 1.0 0.9 0.9 0.8 0.75 0.75 0.6 0.7 0.45 0.65 0.3 0.65 0.2 0.7 0.05 0.75 -0.1 0.8 -0.25 0.85 -0.4 0.95 -0.55 1.05 -0.65 1.2 -0.8 1.35 -0.95 1.7 -1.05 2.25 -1.05 2.6 -0.95 2.8 -0.8 2.95 -0.7 3.05 -0.55 3.15 -0.4 3.2 -0.25 3.3 -0.1 3.35 0.05 3.35 0.2 3.35 0.45 3.35 0.6 3.35 0.75 3.35 0.9 3.4 1.05 3.5 1.15 3.75 1.15 4.0 1.05 4.2 0.9 4.3 0.75 4.4 0.6 4.4 0.45 4.4 0.3 4.4 -0.7 4.4 -1.65 4.4 -2.4 4.45 -2.5 4.5 -2.65 4.5 -2.8 4.55 -2.95 4.6 -3.1 4.6 -3.25 4.6 -3.35 4.65 -3.5 4.7 -3.65 4.8 -3.8 4.95 -3.95 5.3 -4.05 5.55 -4.05 5.8 -4.0 5.95 -3.9 6.1 -3.75 6.2 -3.6 6.25 -3.45 6.25 -3.35 6.25 -3.2 6.3 -3.05 6.35 -2.75 6.35 -2.6 6.4 -2.45 6.45 -2.35 6.45 -2.05 6.45 -1.6 6.45 -1.2 6.45 -0.9 6.4 -0.65 6.35 -0.35 6.25 -0.05 6.25 0.1 6.2 0.2 6.1 0.35 6.05 0.5 6.0 0.65 5.9 0.8 5.85 0.95 5.8 1.1 5.8 1.2 5.8 1.35 5.8 1.5 5.85 1.65 5.9 1.8 5.95 1.95 6.05 2.05 6.15 2.05 6.7 1.65 7.5 0.85 7.8 0.2 7.8 -0.05 7.8 -0.5 7.8 -0.9 7.8 -1.2 8.15 -2.5 8.5 -4.05 8.75 -5.15 8.75 -5.3 8.75 -5.6 8.75 -5.75 8.75 -5.9 8.75 -6.05 8.8 -6.15 8.85 -6.3" fill="#333333" fill-rule="evenodd" stroke="none"/>
    <path d="M13.5 5.85 L13.75 5.9 13.85 5.95 13.9 6.05 14.05 6.2 14.1 6.35 14.1 6.45 14.1 7.2 14.1 7.9 14.1 8.3 14.15 8.45 14.15 8.6 14.15 8.75 14.1 8.9 14.05 9.05 14.0 9.15 13.95 9.3 13.85 9.45 13.85 9.6 13.8 9.75 13.75 9.9 13.7 10.05 13.7 10.45 13.7 11.0 13.7 11.45 13.7 11.75 13.75 11.85 13.8 12.0 13.85 12.15 13.9 12.3 14.15 12.4 14.4 12.45 14.65 12.45 14.95 12.25 15.3 12.0 15.45 11.85 15.6 11.75 15.6 11.6 15.7 11.3 15.7 11.15 15.75 11.0 15.8 10.9 15.8 10.6 15.8 9.9 15.8 9.15 15.8 8.75 15.85 8.6 15.85 8.45 15.85 8.2 15.85 8.05 15.85 7.9 15.85 7.75 15.9 7.6 15.95 7.45 15.95 7.35 15.95 7.2 15.95 7.05 16.0 6.9 16.05 6.75 16.1 6.6 16.35 6.5 16.5 6.6 16.6 6.65 16.65 6.8 16.7 6.95 16.7 7.1 16.7 7.25 16.7 7.35 16.75 7.5 16.8 7.65 16.8 7.8 16.8 8.1 16.8 8.25 16.8 8.35 16.8 8.5 16.85 8.65 16.85 8.95 16.85 9.65 16.85 10.35 16.85 10.8 16.9 10.95 16.9 11.05 16.9 11.2 16.8 11.65 16.75 11.9 16.7 12.05 16.65 12.2 16.3 12.65 15.7 13.2 15.4 13.5 15.0 13.6 14.65 13.7 14.15 13.6 13.7 13.55 13.45 13.45 13.35 13.45 13.05 13.2 12.95 13.05 12.8 12.9 12.7 12.75 12.65 12.65 12.6 12.5 12.5 12.4 12.4 12.55 12.35 12.7 12.15 12.95 11.35 13.85 10.7 14.25 10.55 14.4 10.3 14.5 10.0 14.65 9.65 14.75 9.35 14.75 9.1 14.7 8.95 14.6 8.75 14.45 8.6 14.35 8.5 14.2 8.45 14.05 8.4 13.9 8.35 13.75 8.3 13.6 8.25 13.5 8.2 13.35 8.2 13.2 8.2 13.05 8.2 12.9 8.2 12.75 8.15 12.65 8.15 12.5 8.1 12.35 8.05 12.2 8.0 12.2 8.0 12.35 7.9 12.65 7.85 12.9 7.8 13.05 7.75 13.2 7.65 13.35 7.6 13.5 7.6 13.6 7.5 13.75 7.4 13.9 7.3 14.05 7.15 14.2 6.9 14.3 6.6 14.45 6.25 14.55 5.85 14.55 5.65 14.5 5.05 14.15 4.7 13.7 4.5 13.45 4.4 13.15 4.3 12.7 4.25 12.45 4.2 12.3 4.1 12.3 4.05 12.45 4.0 12.6 3.95 12.7 3.9 12.85 3.75 13.0 3.65 13.15 3.5 13.3 3.35 13.45 3.1 13.55 2.8 13.7 2.45 13.8 2.15 13.8 1.9 13.75 1.8 13.7 1.65 13.6 1.5 13.5 1.4 13.35 1.3 13.2 1.25 13.05 1.15 12.9 1.05 12.75 1.0 12.65 0.9 12.5 0.85 12.35 0.75 11.9 0.7 11.65 0.65 11.5 0.6 11.35 0.5 11.2 0.45 11.05 0.2 10.2 0.05 9.5 -0.1 9.1 -0.2 8.95 -0.25 8.8 -0.35 8.65 -0.45 8.65 -0.45 8.8 -0.65 9.65 -0.8 10.5 -0.95 11.05 -0.95 11.2 -0.95 11.35 -0.95 11.5 -0.95 11.65 -0.95 11.8 -1.0 11.9 -1.15 12.05 -1.35 12.2 -1.65 12.3 -1.9 12.25 -2.0 12.2 -2.15 12.1 -2.25 11.95 -2.3 11.8 -2.35 11.7 -2.35 11.4 -2.35 11.1 -2.35 10.95 -2.35 10.85 -2.35 10.7 -2.3 10.55 -2.25 10.25 -2.15 9.95 -2.1 9.85 -2.1 9.7 -2.1 9.55 -2.1 9.4 -2.0 9.15 -1.95 8.7 -1.9 8.4 -1.85 8.25 -1.8 8.15 -1.7 8.0 -1.65 7.85 -1.55 7.7 -1.5 7.55 -1.4 7.4 -1.35 7.3 -1.25 7.15 -1.05 7.0 -0.7 6.9 -0.4 6.9 -0.05 7.0 0.25 7.15 0.45 7.3 0.6 7.45 0.7 7.55 0.8 7.7 0.85 7.85 0.95 8.0 1.05 8.15 1.1 8.25 1.2 8.4 1.25 8.55 1.3 8.7 1.35 8.85 1.45 9.15 1.6 9.7 1.7 10.1 1.75 10.4 1.85 10.55 1.95 10.85 2.05 11.25 2.15 11.55 2.15 11.7 2.2 11.8 2.25 11.95 2.3 12.1 2.45 12.25 2.5 12.25 2.65 12.1 2.7 11.95 2.8 11.8 2.85 11.7 3.05 10.85 3.2 10.0 3.25 9.55 3.25 9.4 3.25 9.25 3.3 9.15 3.3 8.7 3.3 8.15 3.3 7.7 3.3 7.4 3.35 7.3 3.35 7.15 3.35 7.0 3.4 6.85 3.4 6.7 3.4 6.55 3.45 6.45 3.45 6.3 3.45 6.15 3.45 6.0 3.45 5.85 3.5 5.7 3.55 5.55 3.65 5.45 3.85 5.3 4.15 5.2 4.35 5.2 4.7 5.3 4.85 5.45 5.0 5.55 5.05 5.7 5.05 5.85 5.05 6.85 5.05 7.85 5.05 8.55 5.1 8.85 5.2 9.25 5.25 9.55 5.25 9.7 5.3 9.85 5.3 10.0 5.3 10.4 5.3 10.7 5.3 10.85 5.3 10.95 5.4 11.25 5.65 11.95 5.75 12.55 5.8 12.8 5.9 12.95 6.05 13.05 6.25 13.0 6.35 12.85 6.45 12.6 6.6 12.0 6.65 11.6 6.7 11.3 6.7 11.0 6.7 10.6 6.7 10.15 6.7 9.9 6.75 9.75 6.8 9.6 6.8 9.45 6.8 9.3 6.8 9.15 6.85 9.05 6.9 8.9 6.9 8.75 6.9 8.6 6.9 8.2 6.9 7.9 6.9 7.75 6.9 7.6 6.95 7.45 7.05 7.05 7.1 6.75 7.15 6.6 7.2 6.45 7.3 6.35 7.35 6.2 7.45 6.05 7.6 5.9 7.95 5.8 8.2 5.85 8.4 5.95 8.6 6.1 8.75 6.25 8.85 6.4 8.9 6.5 9.0 6.8 9.05 6.95 9.1 7.1 9.15 7.25 9.15 7.35 9.15 7.5 9.15 7.65 9.2 7.8 9.25 7.95 9.25 8.95 9.25 9.95 9.25 10.5 9.25 10.65 9.4 11.35 9.5 12.05 9.6 12.5 9.6 12.65 9.6 12.75 9.6 12.9 9.6 13.05 9.65 13.2 9.85 13.2 10.1 13.05 10.45 12.75 10.65 12.65 10.85 12.5 11.15 12.05 11.3 11.8 11.4 11.65 11.5 11.5 11.55 11.35 11.65 11.2 11.75 11.05 11.8 10.9 11.9 10.8 11.95 10.65 12.05 10.5 12.05 10.35 12.1 10.2 12.15 10.05 12.25 9.95 12.3 9.8 12.35 9.65 12.45 9.5 12.45 9.35 12.65 8.5 12.75 7.8 12.9 7.35 12.9 7.1 12.9 6.8 12.9 6.65 12.9 6.5 12.9 6.4 12.95 6.25 13.0 6.1 13.2 5.95 13.5 5.85" fill="#333333" fill-rule="evenodd" stroke="none"/>
    <path d="M1.55 -10.85 L1.6 -10.7 1.7 -10.55 1.7 -10.45 1.7 -9.3 1.7 -7.6 1.7 -6.05 1.6 -5.9 1.55 -5.75 1.45 -5.6 1.4 -5.45 1.35 -5.3 1.25 -5.15 1.2 -5.05 1.15 -4.9 1.05 -4.75 0.25 -3.75 -0.55 -2.9 -1.1 -2.6 Q-1.95 -2.2 -2.9 -2.2 L-3.0 -2.05 -3.05 -1.9 -3.15 -1.75 -3.15 -1.6 -3.65 -1.2 -4.05 -0.9 -4.5 -0.8 -4.9 -0.7 -5.5 -0.7 -5.8 -0.75 -5.95 -0.9 -6.45 -1.45 -6.75 -1.9 -6.95 -2.35 -7.05 -2.75 -7.1 -3.05 -7.45 -2.95 -8.15 -2.7 -8.45 -2.75 -8.7 -2.75 -9.0 -3.0 -9.25 -3.3 -9.4 -3.4 -9.4 -3.55 -9.5 -3.7 -9.6 -3.8 -9.8 -3.65 -9.95 -3.5 -10.1 -3.35 -10.35 -3.3 -10.55 -3.35 -10.65 -3.35 -10.75 -3.45 -10.9 -3.6 -10.95 -3.75 -10.95 -3.9 -11.0 -4.05 -10.95 -4.2 -10.85 -4.3 -10.7 -4.45 -10.55 -4.6 -10.55 -4.75 -10.5 -4.9 -10.45 -5.05 -10.45 -5.15 -10.45 -5.3 -10.45 -5.45 -10.45 -5.6 -10.45 -5.75 -10.4 -6.0 -10.35 -6.3 -10.25 -6.6 -10.25 -6.75 -10.25 -6.9 -10.25 -7.3 -10.25 -7.75 -10.25 -8.0 -10.2 -8.15 -10.1 -8.3 -9.9 -8.45 -9.6 -8.55 -9.4 -8.55 -9.1 -8.45 -8.95 -8.3 -8.8 -8.15 -8.75 -8.0 -8.7 -7.85 -8.65 -7.75 -8.65 -6.9 -8.65 -6.05 -8.65 -5.15 -8.55 -4.9 -8.55 -4.75 -8.5 -4.6 -8.5 -4.45 -8.4 -4.3 -8.35 -4.2 -8.25 -4.05 -8.0 -4.05 -7.65 -4.2 -7.35 -4.3 -7.25 -4.45 -7.25 -4.6 -7.25 -6.15 -7.25 -8.3 -7.25 -10.3 -7.2 -10.45 -7.1 -10.55 -6.9 -10.7 -6.65 -10.8 -6.4 -10.75 -6.25 -10.65 -6.1 -10.5 -6.05 -10.35 -6.0 -10.25 -6.0 -9.8 -6.0 -9.4 -6.0 -9.1 -5.95 -8.8 -5.9 -8.55 -5.85 -8.25 -5.8 -8.1 -5.8 -7.1 -5.8 -5.7 -5.8 -4.4 -5.85 -4.25 -5.9 -4.15 -6.0 -4.0 -6.0 -3.85 -5.95 -3.7 -5.85 -3.3 -5.75 -2.85 -5.7 -2.55 -5.6 -2.45 -5.5 -2.3 -5.4 -2.15 -5.3 -2.0 -4.85 -1.95 -4.6 -2.05 -4.35 -2.2 -4.25 -2.35 -4.15 -2.45 -4.1 -2.6 -4.05 -2.75 -4.0 -2.9 -3.95 -3.05 -3.95 -3.2 -3.95 -3.3 -4.0 -3.45 -4.05 -3.6 -4.1 -3.75 -4.15 -3.9 -4.2 -4.05 -4.2 -4.9 -4.2 -6.05 -4.2 -7.0 -4.2 -7.15 -4.1 -7.6 -4.05 -8.0 -4.0 -8.3 -4.0 -8.6 -4.0 -9.0 -4.0 -9.45 -4.0 -9.7 -3.95 -10.0 -3.9 -10.3 -3.85 -10.55 -3.8 -10.7 -3.8 -10.85 -3.8 -11.3 -3.8 -11.7 -3.8 -12.0 -3.75 -12.15 -3.65 -12.3 -3.45 -12.4 -3.15 -12.5 -2.85 -12.4 -2.7 -12.25 -2.6 -12.15 -2.55 -12.0 -2.55 -11.3 -2.55 -10.55 -2.55 -10.0 -2.5 -9.85 -2.5 -9.7 -2.5 -9.6 -2.45 -9.45 -2.45 -9.3 -2.45 -9.15 -2.4 -9.0 -2.4 -7.6 -2.4 -5.6 -2.4 -3.75 -2.45 -3.6 -2.5 -3.45 -2.05 -3.45 -1.7 -3.6 -1.35 -3.75 -1.05 -4.05 -0.3 -4.9 0.3 -5.6 0.35 -5.75 0.45 -5.9 0.5 -6.05 0.55 -6.15 0.65 -6.3 0.65 -6.45 0.65 -7.75 0.65 -9.15 0.65 -10.45 0.6 -10.55 0.55 -10.7 0.45 -10.85 0.4 -10.9 0.35 -11.05 0.35 -11.2 0.35 -11.35 0.15 -11.9 0.05 -12.45 0.0 -12.9 0.05 -13.05 0.1 -13.15 0.2 -13.3 0.45 -13.4 0.6 -13.35 0.7 -13.25 0.8 -13.15 0.85 -13.0 0.9 -12.85 1.0 -12.7 1.15 -12.15 1.3 -11.55 1.4 -11.15 1.5 -11.0 1.55 -10.85" fill="#333333" fill-rule="evenodd" stroke="none"/>
    <path d="M-12.95 1.55 L-12.95 1.0 -12.95 0.4 -13.0 0.8 -13.0 1.5 -12.95 2.15 -12.95 1.55 M-14.3 0.4 L-14.25 0.25 -14.2 0.15 -14.15 0.0 -14.1 -0.15 -14.05 -0.3 -13.95 -0.45 -13.85 -0.6 -13.8 -0.7 -13.7 -0.85 -13.5 -1.0 -13.2 -1.1 -13.0 -1.15 -12.9 -1.2 -12.85 -1.15 -12.75 -1.1 -12.65 -1.05 -12.6 -0.9 -12.5 -0.8 -12.25 -0.8 -12.05 -0.75 -11.85 -0.7 -11.7 -0.55 -11.65 -0.4 -11.6 -0.25 -11.6 1.3 -11.6 2.9 -11.6 4.0 -11.55 4.15 -11.4 4.75 -11.25 5.15 -11.15 5.55 -11.05 5.7 -10.95 5.85 -10.85 6.0 -10.7 6.15 -10.1 6.2 -9.7 6.1 -9.5 5.95 -9.15 5.65 -9.05 5.5 -8.95 5.25 -8.95 4.95 -8.95 4.1 -8.95 3.4 -8.95 2.85 -8.7 1.7 -8.45 0.7 -8.3 0.0 -8.2 -0.15 -8.0 -0.3 -7.7 -0.4 -7.5 -0.35 -7.35 -0.25 -7.2 -0.1 -7.1 0.05 -7.1 0.2 -7.1 0.3 -7.05 0.45 -7.0 0.6 -6.95 0.75 -6.95 0.9 -6.95 1.9 -6.95 2.9 -6.95 3.6 -7.0 3.75 -7.0 3.85 -7.05 4.0 -7.05 4.15 -7.05 4.3 -7.1 4.45 -7.1 4.6 -7.15 4.7 -7.2 4.85 -7.3 5.0 -7.35 5.15 -7.4 5.3 -7.5 5.45 -7.55 5.55 -7.6 5.7 -7.55 5.85 -7.55 6.0 -7.55 6.3 -7.55 6.45 -7.55 6.55 -7.55 6.85 -7.45 7.0 -7.35 7.15 -7.2 7.3 -7.1 7.4 -7.05 7.55 -6.8 7.6 -6.7 7.55 -6.55 7.45 -6.05 7.05 -5.8 6.75 -5.6 6.45 -5.55 6.35 -5.45 6.2 -5.45 6.05 -5.45 5.9 -5.45 5.75 -5.45 5.6 -5.45 5.5 -5.45 5.35 -5.4 5.2 -5.4 4.9 -5.4 4.2 -5.4 3.65 -5.4 3.2 -5.35 3.05 -5.35 2.9 -5.35 2.8 -5.35 2.65 -5.35 2.5 -5.3 2.35 -5.3 2.2 -5.3 2.05 -5.2 1.95 -5.1 1.8 -4.9 1.7 -4.7 1.75 -4.6 1.8 -4.5 1.9 -4.45 2.05 -4.45 2.15 -4.4 2.3 -4.4 2.45 -4.4 2.6 -4.4 2.75 -4.4 2.9 -4.4 3.0 -4.35 3.15 -4.35 3.6 -4.35 4.15 -4.35 4.6 -4.35 5.0 -4.3 5.15 -4.3 5.45 -4.3 5.7 -4.3 6.0 -4.3 6.15 -4.3 6.45 -4.35 6.55 -4.45 6.7 -4.5 6.85 -4.6 7.0 -4.65 7.15 -4.75 7.25 -5.55 8.15 Q-6.05 8.65 -6.75 8.8 L-7.2 8.8 -7.45 8.75 -7.55 8.7 -7.65 8.6 -7.95 8.45 -8.1 8.3 -8.15 8.2 -8.25 8.05 -8.3 7.9 -8.35 7.75 -8.45 7.6 -8.55 7.45 -8.65 7.35 -8.7 7.2 -8.8 7.1 -8.9 7.05 -9.1 7.2 -9.8 7.4 -10.8 7.45 -11.1 7.35 -11.3 7.25 Q-11.45 7.15 -11.55 7.1 L-11.8 6.95 -11.9 6.8 -12.0 6.65 -12.1 6.5 -12.3 6.25 -12.35 6.1 -12.4 5.95 -12.45 5.8 -12.55 5.65 -12.6 5.55 -12.7 5.1 -12.8 4.8 -12.85 4.7 -12.95 4.4 -12.95 4.25 -12.95 4.1 -12.95 3.95 -12.95 3.8 -12.95 3.7 -13.2 3.6 -13.45 3.55 -13.55 3.5 -13.7 3.4 -13.85 3.25 -13.95 3.1 -14.2 2.85 -14.25 2.7 -14.3 2.55 -14.3 2.1 -14.3 1.4 -14.3 0.85 -14.3 0.4" fill="#333333" fill-rule="evenodd" stroke="none"/>
  </g>
</svg>
