<?xml version="1.0" encoding="UTF-8" standalone="no"?>
<svg xmlns:xlink="http://www.w3.org/1999/xlink" height="41.05px" width="41.2px" xmlns="http://www.w3.org/2000/svg">
  <g transform="matrix(1.0, 0.0, 0.0, 1.0, 20.1, 19.8)">
    <path d="M12.6 -2.05 L13.15 -2.55 13.15 -2.9 11.15 -2.75 11.25 -2.45 Q11.55 -2.15 12.6 -2.05 M3.2 -17.15 Q2.75 -16.65 2.75 -16.15 3.85 -11.25 5.55 -11.25 13.1 -11.25 17.1 -4.7 19.85 -0.2 19.85 4.1 19.45 6.95 18.25 9.75 15.9 15.35 12.1 15.35 10.2 15.35 9.4 14.4 8.65 13.45 7.75 13.45 6.75 13.45 3.65 15.35 L0.35 17.25 Q-1.55 17.25 -6.3 14.95 -12.5 11.95 -15.35 7.7 -17.2 4.95 -18.55 1.9 -20.1 -1.75 -20.1 -4.25 -20.1 -6.7 -18.65 -7.7 -16.55 -9.2 -15.15 -12.4 -16.6 -12.45 -17.25 -13.25 -17.75 -13.8 -17.75 -14.45 -17.75 -16.65 -7.05 -18.85 3.6 -21.05 3.6 -18.15 3.6 -17.65 3.2 -17.15" fill="#ffffff" fill-rule="evenodd" stroke="none"/>
    <path d="M6.05 -6.25 Q11.5 -6.25 11.75 -2.15 L11.7 1.35 Q11.75 3.35 12.6 4.35 L13.0 2.8 Q13.45 1.9 15.5 1.9 17.65 1.9 18.9 5.3 19.75 7.65 19.75 9.3 19.75 10.7 16.45 13.3 12.1 16.7 6.05 16.7 -8.8 16.7 -14.4 8.15 -17.45 3.5 -17.45 -3.8 -17.45 -8.3 -16.75 -9.1 -15.35 -10.7 -11.0 -4.45 L-11.0 -4.55 Q-11.0 -5.5 -10.65 -6.35 -10.0 -7.95 -8.35 -7.95 -5.1 -7.95 -4.4 -3.3 -4.0 -0.85 -4.2 2.85 L-3.5 2.75 Q-4.55 0.6 -3.6 -3.15 -2.5 -7.35 0.35 -7.35 1.1 -7.35 4.15 -5.45 4.65 -5.45 5.1 -5.85 5.55 -6.25 6.05 -6.25" fill="#d1d0a5" fill-opacity="0.3019608" fill-rule="evenodd" stroke="none"/>
    <path d="M3.1 15.55 L3.1 13.55 Q2.6 13.65 2.2 14.0 1.85 14.35 1.85 14.6 1.85 15.65 2.75 15.85 2.75 15.55 3.1 15.55 M15.4 6.95 L15.4 3.25 Q15.05 1.85 14.75 1.7 L14.65 4.45 14.75 7.3 15.4 6.95 M15.9 -6.25 Q20.25 -5.15 21.05 -1.7 L21.1 4.65 Q21.1 6.6 18.75 10.6 15.65 15.95 11.35 15.95 10.45 15.95 9.6 15.15 L8.2 13.85 Q8.2 17.25 7.85 18.2 6.7 21.25 2.25 21.25 -1.2 21.25 -2.65 18.15 -3.45 16.45 -3.45 14.6 -7.1 13.55 -9.05 11.15 -10.65 9.15 -10.65 6.85 -10.65 6.25 -10.4 6.2 L-9.1 6.15 Q-7.85 6.05 -6.85 6.75 L-5.4 7.8 -5.4 7.3 Q-5.9 5.85 -3.95 4.25 -2.1 2.7 1.2 1.8 L1.45 0.2 Q2.0 -1.0 3.75 -1.0 5.65 -1.0 6.6 1.45 L7.2 4.1 Q8.7 3.2 9.3 0.95 L10.0 -3.0 Q10.85 -7.55 15.9 -6.25" fill="#d1d0a5" fill-opacity="0.3019608" fill-rule="evenodd" stroke="none"/>
    <path d="M3.1 9.75 L1.5 9.3 1.5 9.7 3.1 9.75 M-15.65 -2.3 Q-15.15 -4.55 -11.95 -3.1 -11.05 -2.7 -9.65 0.55 -8.3 3.6 -7.8 3.6 8.0 3.6 13.6 5.4 18.65 7.05 18.65 11.4 18.65 12.4 13.05 14.3 6.7 16.5 0.7 16.5 -5.15 16.5 -10.45 11.75 -15.0 7.65 -15.0 4.9 L-14.4 3.7 Q-13.85 2.8 -13.85 2.4 L-13.95 1.7 -14.15 1.55 Q-14.4 1.85 -15.05 1.95 L-16.0 1.9 -16.2 1.2 -15.65 -2.3" fill="#d1d0a5" fill-opacity="0.3019608" fill-rule="evenodd" stroke="none"/>
    <path d="M-13.05 -12.75 Q-10.6 -10.3 -8.9 -5.75 -7.05 -0.7 -7.05 4.85 -7.05 5.95 -8.15 7.05 -9.65 8.55 -12.35 8.55 -16.2 8.55 -18.0 0.85 -18.9 -3.05 -19.05 -7.4 -19.05 -12.7 -17.15 -14.0 -15.5 -15.15 -13.05 -12.75" fill="#d1d0a5" fill-opacity="0.3019608" fill-rule="evenodd" stroke="none"/>
    <path d="M-0.25 10.5 L-1.5 7.75 Q-1.5 6.25 -0.55 7.45 0.35 8.65 0.35 9.75 L-0.25 10.5 M-7.3 7.95 Q-7.25 7.6 -6.8 7.35 -6.4 7.7 -6.1 8.7 L-5.9 9.85 -6.45 10.55 -7.3 9.45 -7.35 8.6 -7.3 7.95 M-5.15 6.1 L-5.5 4.4 -5.35 3.8 Q-2.65 5.45 -0.95 13.05 L-1.05 13.45 -1.4 13.5 Q-2.3 12.7 -3.8 9.55 L-5.15 6.1 M-18.7 -1.75 L-18.3 -4.65 -18.05 -4.65 Q-17.15 1.55 -14.8 5.9 -11.15 12.65 -5.05 12.65 L-4.6 12.5 -4.45 12.35 -4.95 13.25 Q-5.3 13.85 -7.45 13.85 -11.35 13.85 -15.4 6.25 -18.7 0.05 -18.7 -1.75 M4.6 15.3 L5.4 13.55 5.75 14.35 6.0 15.7 Q6.0 16.3 4.4 17.25 2.5 18.35 0.35 18.35 -5.35 18.35 -5.35 14.4 L-4.9 13.55 -4.4 15.7 Q-3.25 16.95 1.85 16.95 3.5 16.95 4.6 15.3 M8.3 8.3 Q8.3 6.4 8.9 5.75 9.9 7.05 10.5 9.05 11.05 10.9 11.05 12.5 L10.4 13.75 Q10.0 13.2 9.15 10.9 L8.3 8.3 M4.3 10.75 Q3.55 9.6 3.55 9.25 3.55 5.9 4.45 8.1 L5.7 11.85 5.3 12.1 4.3 10.75 M12.6 10.8 Q11.4 8.35 11.4 7.4 11.4 5.2 12.65 7.95 13.95 10.7 14.2 13.3 13.8 13.3 12.6 10.8 M3.0 -12.45 L2.7 -12.5 2.65 -12.7 3.0 -14.25 Q3.25 -15.3 2.85 -16.0 1.65 -18.15 -5.3 -18.15 -6.9 -18.15 -10.3 -16.7 -13.9 -15.15 -15.05 -13.75 L-15.3 -13.95 -15.4 -14.05 -15.45 -14.35 Q-15.45 -15.6 -12.4 -17.15 -9.35 -18.7 -5.65 -19.35 4.1 -21.1 4.1 -14.7 L4.05 -13.65 3.6 -12.65 Q12.3 -13.7 16.0 -9.5 18.5 -6.7 18.5 -2.0 L17.9 1.0 18.35 1.1 Q20.0 1.8 20.0 4.15 L20.05 9.4 Q19.95 11.25 18.85 13.0 16.65 16.6 11.7 16.6 8.05 16.6 6.3 14.85 L5.25 12.9 6.7 14.2 Q8.2 15.15 11.65 15.15 15.75 15.15 17.4 13.0 19.35 10.5 19.05 3.95 L19.05 2.25 Q18.45 2.45 17.9 3.1 L17.2 3.65 16.8 3.6 16.75 3.5 16.7 3.2 Q15.6 4.6 14.0 4.6 L13.7 4.55 13.75 4.45 13.75 4.35 Q17.1 1.0 17.1 -1.95 17.1 -5.95 14.8 -8.6 11.4 -12.45 3.5 -12.6 L3.0 -12.45" fill="#333333" fill-rule="evenodd" stroke="none"/>
  </g>
</svg>
