<?xml version="1.0" encoding="UTF-8" standalone="no"?>
<svg xmlns:xlink="http://www.w3.org/1999/xlink" height="54.65px" width="8.35px" xmlns="http://www.w3.org/2000/svg">
  <g transform="matrix(1.0, 0.0, 0.0, 1.0, 3.85, 27.8)">
    <path d="M-1.05 20.7 L-1.2 21.55 -1.15 21.95 -1.05 21.95 -0.55 19.8 -1.05 20.7 M-0.7 24.35 L-1.25 24.3 -0.55 25.0 -0.55 24.85 -0.7 24.35 M-0.6 17.15 L-1.05 18.2 -1.2 18.9 -0.55 17.85 -0.6 17.15 M-1.25 -18.85 L-1.55 -19.8 -1.6 -19.2 -1.55 -10.25 -1.5 -10.25 -1.35 -11.05 -1.25 -18.85 M-1.1 -24.0 L-1.1 -23.75 -1.0 -23.8 -1.0 -24.0 -1.1 -24.0 M1.1 20.7 L1.0 20.05 1.0 20.8 1.1 20.7 M1.55 17.25 L1.8 18.15 1.3 10.6 1.15 16.15 1.55 17.25 M2.15 -21.5 L2.3 -13.35 Q2.45 -10.95 2.1 -10.15 L2.6 0.5 2.6 4.45 3.1 13.65 Q3.5 14.1 3.5 18.4 L3.5 19.2 Q4.5 19.3 4.5 21.85 L3.8 24.4 Q2.45 26.85 -0.95 26.85 -2.4 26.85 -3.25 24.95 -3.85 23.6 -3.85 22.55 -3.85 21.95 -3.5 21.75 L-3.55 20.95 Q-3.55 19.4 -2.9 17.8 L-2.65 6.1 -2.65 5.5 -2.65 -7.95 Q-2.6 -9.2 -2.9 -11.35 L-2.9 -11.5 Q-2.65 -14.2 -2.65 -17.05 L-2.65 -20.45 -2.1 -21.1 -1.7 -20.7 -1.4 -20.25 -1.25 -19.55 -1.25 -20.8 -1.15 -21.8 -1.5 -21.25 -1.85 -21.5 -2.1 -22.8 -2.35 -23.85 -2.25 -24.85 -1.75 -25.25 -1.75 -25.3 Q-1.75 -26.75 -0.45 -26.85 0.0 -28.8 0.45 -26.7 1.55 -26.35 1.95 -24.5 L2.15 -21.5" fill="#333333" fill-rule="evenodd" stroke="none"/>
  </g>
</svg>
