<?xml version="1.0" encoding="UTF-8" standalone="no"?>
<svg xmlns:xlink="http://www.w3.org/1999/xlink" height="52.8px" width="7.15px" xmlns="http://www.w3.org/2000/svg">
  <g transform="matrix(1.0, 0.0, 0.0, 1.0, 3.1, 26.15)">
    <path d="M-1.8 19.55 L-1.45 19.45 -1.6 17.8 -1.8 19.55 M-0.3 -2.0 L-0.25 -1.45 -0.25 -2.85 -0.3 -2.85 -0.3 -2.0 M-0.1 -9.2 L-0.1 -8.45 -0.05 -9.3 -0.1 -9.2 M0.0 22.9 L0.0 23.05 0.05 23.65 0.5 23.7 0.0 22.9 M1.8 22.6 L1.8 22.5 1.6 23.6 1.8 22.6 M0.7 13.9 L0.65 14.1 0.6 16.65 Q0.6 18.35 0.75 19.25 L0.85 19.25 1.0 17.4 0.95 17.05 0.85 13.6 0.75 14.0 0.7 13.9 M0.1 -25.9 L0.6 -26.15 Q1.05 -25.95 1.45 -24.8 L1.8 -23.3 1.7 -22.75 1.55 -22.6 1.6 -20.4 1.6 -19.85 1.6 -19.65 1.8 -9.95 2.85 14.55 3.2 15.3 3.25 16.4 4.05 22.85 3.2 24.75 Q2.0 26.65 0.45 26.65 -1.5 26.65 -2.45 24.8 -3.1 23.55 -3.1 22.35 -3.1 20.6 -2.75 20.2 L-2.25 19.8 -2.5 16.25 -2.55 11.2 Q-2.55 -2.15 -2.1 -3.8 L-1.8 -2.55 -1.8 -3.0 -2.05 -6.55 -1.95 -10.4 -2.05 -23.0 -1.6 -23.5 -1.95 -24.55 Q-1.95 -26.8 -0.2 -25.5 0.8 -24.75 1.25 -23.35 L1.25 -23.45 Q0.45 -25.65 0.1 -25.9" fill="#333333" fill-rule="evenodd" stroke="none"/>
  </g>
</svg>
