<?xml version="1.0" encoding="UTF-8" standalone="no"?>
<svg xmlns:xlink="http://www.w3.org/1999/xlink" height="57.95px" width="115.2px" xmlns="http://www.w3.org/2000/svg">
  <g transform="matrix(1.0, 0.0, 0.0, 1.0, 57.75, 30.1)">
    <path d="M13.45 -18.35 L12.55 -18.3 12.5 -16.05 14.55 -18.2 13.45 -18.35 M21.0 -26.65 Q23.35 -23.45 26.85 -24.3 L34.25 -25.2 Q39.55 -25.2 47.8 -13.2 L53.0 -4.85 55.05 -0.9 55.0 0.45 55.5 1.65 Q55.5 4.05 54.3 4.9 52.35 11.95 45.5 17.1 32.6 26.85 5.0 26.85 L-21.9 25.0 Q-41.15 22.65 -46.75 18.85 -48.3 17.75 -51.75 12.65 -55.0 7.8 -55.0 7.2 L-55.6 -1.45 Q-55.7 -7.95 -53.15 -12.55 -45.45 -26.3 -12.85 -26.3 L-8.4 -26.3 Q-3.95 -26.1 -0.25 -25.05 1.55 -24.55 10.1 -27.2 18.6 -29.9 21.0 -26.65 M47.05 -5.25 L47.0 -3.55 47.5 -3.05 47.85 -3.15 47.05 -5.25 M7.25 18.05 L5.3 18.3 5.05 18.55 9.25 18.55 7.25 18.05 M35.0 14.35 Q34.35 14.85 33.25 16.8 L33.05 17.05 36.3 16.85 Q36.3 15.6 35.0 14.35 M-14.0 17.55 L-16.25 17.6 -14.0 17.55 M-6.25 17.55 Q-6.0 17.1 -6.0 15.8 L-6.0 15.6 -7.75 15.8 -8.0 17.3 -8.0 17.6 -6.25 17.55" fill="#ffffff" fill-rule="evenodd" stroke="none"/>
    <path d="M-48.75 -0.75 Q-52.95 -2.1 -55.55 -5.65 -57.75 -8.6 -57.75 -11.2 -57.75 -13.25 -56.95 -14.6 -55.9 -16.45 -53.2 -17.9 -49.6 -19.85 -45.95 -20.7 L-40.05 -20.55 Q-56.0 -17.9 -56.0 -11.3 -56.0 -8.1 -52.05 -4.6 -48.15 -1.7 -48.15 -1.25 L-48.75 -0.75 M27.25 -26.65 Q29.9 -27.95 34.85 -27.75 40.65 -27.75 44.4 -24.0 47.35 -21.0 47.35 -18.15 L47.2 -17.45 Q51.95 -16.6 53.55 -12.75 54.35 -10.75 54.35 -6.5 L53.75 -4.15 Q55.95 -2.95 56.85 -0.15 57.45 1.8 57.45 5.85 57.05 8.35 55.75 10.75 53.15 15.55 48.5 15.55 L44.8 15.65 44.8 16.1 Q44.8 17.75 42.0 20.25 38.4 23.45 33.45 23.45 31.5 23.45 29.2 22.7 L28.1 22.3 27.2 23.35 Q24.05 26.7 18.15 26.7 15.15 26.7 12.3 25.55 9.55 24.45 9.4 23.15 L6.85 24.8 Q2.75 26.9 -1.75 26.9 -7.0 26.9 -12.0 24.55 L-15.15 22.7 -15.45 22.7 -19.8 22.55 Q-23.45 24.55 -26.6 24.55 -32.7 24.55 -37.3 20.65 L-39.0 19.1 Q-40.05 19.7 -43.55 19.7 -50.9 19.7 -54.7 13.3 -57.15 9.2 -57.15 6.0 -57.15 3.35 -56.15 1.4 -54.8 -1.25 -51.95 -2.05 L-54.8 1.8 Q-55.6 3.4 -55.6 5.55 -55.6 8.9 -53.35 12.2 -49.35 18.05 -40.05 18.05 L-39.9 18.05 Q-40.9 16.8 -40.9 15.95 L-39.95 15.9 -37.2 18.3 Q-32.0 22.6 -26.75 22.6 -23.9 22.6 -21.45 21.4 L-20.3 20.8 -22.05 19.9 Q-23.85 18.9 -24.9 17.85 L-24.8 17.45 Q-23.8 17.55 -21.0 19.0 L-18.95 19.8 -18.65 19.5 -16.5 19.6 -16.1 19.6 -16.2 19.8 -15.65 20.25 -14.9 20.25 -13.2 20.15 -12.75 20.0 Q-6.35 17.75 -6.35 18.1 -6.35 18.9 -9.6 20.75 L-11.0 21.5 -12.8 22.25 -12.45 22.45 Q-7.95 25.15 -1.8 25.15 3.95 25.15 7.4 22.5 L7.65 22.3 7.0 22.25 7.95 22.1 10.25 19.85 Q10.75 19.85 10.7 20.0 L10.8 20.7 Q10.8 21.6 10.0 22.55 L12.9 24.05 Q14.9 24.9 18.15 24.9 24.55 24.9 26.9 21.5 L26.7 21.0 26.8 20.65 26.9 20.7 27.3 20.8 28.05 18.95 Q28.55 17.8 29.15 17.65 L29.3 19.1 Q29.3 20.1 28.8 21.15 L31.55 21.85 Q37.3 21.85 40.7 19.6 42.9 18.1 43.5 16.3 L43.75 14.95 43.35 14.75 43.8 14.75 Q44.3 12.5 44.55 13.2 L44.8 14.7 Q55.9 13.8 55.9 3.7 55.9 0.9 53.7 -2.05 L53.15 -2.65 Q52.2 -0.6 51.15 -0.6 L50.6 -0.4 50.0 -0.25 49.7 -0.3 49.75 -0.4 49.8 -0.55 52.1 -3.85 51.5 -4.55 Q51.5 -5.05 51.7 -4.9 L52.55 -4.65 52.65 -5.0 Q52.95 -5.75 52.95 -8.55 52.95 -14.9 47.05 -16.95 L46.8 -16.3 46.65 -16.35 46.45 -17.15 46.2 -17.2 46.35 -17.35 46.0 -18.6 Q45.35 -20.55 44.3 -21.9 40.9 -26.25 32.8 -26.25 29.75 -26.25 27.55 -25.2 L26.85 -24.75 27.3 -23.2 27.2 -21.5 27.0 -21.55 26.05 -24.25 25.65 -24.15 25.3 -24.25 25.25 -24.45 25.45 -25.1 Q22.75 -28.0 16.05 -28.0 L9.45 -27.25 Q5.35 -26.4 5.35 -25.2 5.35 -24.9 5.5 -24.85 L5.25 -24.75 Q5.75 -23.75 5.75 -22.6 L5.65 -22.25 5.4 -22.25 2.95 -25.4 Q-0.45 -28.2 -6.5 -28.2 -13.2 -28.2 -15.3 -26.25 L-16.3 -24.95 -16.55 -24.65 -15.7 -23.5 -15.85 -23.5 -17.35 -24.35 -17.85 -24.65 -19.0 -25.4 Q-21.25 -26.4 -25.5 -26.4 -32.75 -26.4 -36.45 -23.9 -39.35 -21.95 -39.4 -19.15 L-39.65 -19.35 -40.05 -21.65 Q-40.05 -23.65 -37.0 -25.45 -34.1 -27.15 -29.9 -27.8 -22.0 -29.1 -17.9 -25.95 -17.5 -27.15 -15.4 -28.35 -12.3 -30.1 -7.85 -30.1 L-5.0 -30.05 Q0.8 -29.3 3.65 -26.8 L4.95 -25.35 4.7 -26.05 Q4.7 -27.35 9.95 -28.8 15.25 -30.3 18.2 -29.65 22.15 -29.55 24.95 -27.0 L26.05 -25.9 27.25 -26.65" fill="#333333" fill-rule="evenodd" stroke="none"/>
    <path d="M-21.55 -1.35 Q-21.75 -1.55 -21.9 -1.35 -21.55 -0.3 -21.55 1.4 L-21.35 1.4 Q-21.35 -0.95 -21.55 -1.35 M1.6 -11.6 Q4.5 -10.75 5.4 -10.75 8.7 -10.75 11.45 -12.9 L15.55 -15.95 Q20.55 -18.0 34.2 -4.75 40.45 -5.7 41.55 -1.35 42.1 0.95 41.8 4.95 46.85 3.85 48.1 5.95 48.55 6.65 48.55 9.75 48.55 15.55 42.0 20.75 33.05 27.85 16.2 27.85 13.1 27.85 9.7 25.9 6.3 23.9 5.25 23.9 4.25 23.9 3.65 24.35 3.0 24.8 2.25 24.85 0.1 24.95 -1.9 24.2 -4.0 23.35 -4.65 23.35 L-14.3 22.05 Q-15.25 22.05 -16.6 22.8 -18.0 23.55 -18.9 23.55 -41.4 16.05 -41.4 13.8 -41.4 12.85 -42.15 11.5 -42.9 10.1 -42.9 9.2 -42.9 1.05 -41.6 -2.3 -39.55 -7.4 -33.5 -9.75 -29.35 -11.4 -24.65 -11.4 -19.75 -11.4 -18.15 -9.55 L-17.2 -8.3 Q-16.65 -7.75 -15.65 -7.75 -14.05 -7.75 -10.35 -10.1 -6.7 -12.5 -2.25 -12.5 L1.6 -11.6" fill="#d1d0a5" fill-opacity="0.3019608" fill-rule="evenodd" stroke="none"/>
    <path d="M49.4 14.1 Q46.85 21.3 41.6 21.3 38.95 21.3 37.65 21.85 L34.75 22.4 Q33.85 22.4 32.9 21.5 L31.75 20.35 Q31.05 20.7 29.65 22.45 28.6 23.7 26.4 23.7 25.95 23.7 17.25 20.55 16.3 20.55 13.9 21.3 L10.55 22.05 Q9.65 22.05 7.9 21.2 6.2 20.35 5.25 20.35 3.55 20.35 2.55 22.8 1.6 25.2 -2.25 25.2 -4.45 25.2 -6.45 23.05 -8.5 20.9 -11.15 20.9 -16.15 20.9 -17.05 21.95 -17.95 22.95 -27.25 22.95 -44.55 22.95 -50.5 16.8 -53.7 13.5 -53.7 7.05 -54.05 4.85 -53.7 2.8 -52.95 -1.2 -49.2 -1.2 -47.15 -1.2 -43.8 2.45 L-39.75 7.2 Q-39.55 5.8 -39.05 5.2 -38.25 4.2 -34.75 4.2 -33.35 4.2 -26.9 7.05 -20.45 9.85 -19.85 9.85 -16.95 9.85 -15.85 7.05 -14.75 4.2 -12.05 4.2 -9.25 4.2 -8.1 5.9 -7.45 6.85 -6.55 8.8 -0.4 6.1 8.15 1.75 14.6 -1.55 15.05 -1.55 17.35 -1.55 18.35 -0.45 L19.1 0.65 Q21.55 0.65 27.15 -1.0 31.55 -1.4 31.55 4.85 31.55 5.8 30.7 8.0 29.8 10.25 29.8 11.15 29.8 13.05 30.05 12.0 L31.55 12.2 40.05 5.6 Q46.2 0.75 47.7 0.75 50.4 0.75 50.9 3.3 51.2 4.65 50.9 6.65 50.65 10.45 49.4 14.1" fill="#d1d0a5" fill-opacity="0.3019608" fill-rule="evenodd" stroke="none"/>
    <path d="M4.8 -1.4 Q6.45 -3.15 7.55 -3.8 11.9 -6.4 17.5 -0.75 19.5 1.35 20.4 4.0 21.45 7.0 20.6 9.55 29.6 13.35 31.4 14.7 33.45 16.3 33.45 19.85 35.0 21.25 32.9 22.4 28.85 24.65 10.55 24.65 -21.4 24.65 -30.05 22.4 -33.35 21.55 -34.05 20.2 L-34.2 17.7 Q-34.2 15.5 -32.65 14.65 -31.9 14.2 -29.15 13.75 -24.15 12.95 -24.15 8.15 -24.95 3.5 -24.8 1.0 -24.5 -3.45 -19.65 -3.45 -16.85 -3.45 -14.9 -0.8 L-12.25 2.35 -11.25 1.1 -10.55 -0.2 Q-9.2 -1.75 -3.75 -1.75 L-0.35 -0.85 Q2.05 0.0 3.0 0.0 3.5 0.0 4.8 -1.4" fill="#d1d0a5" fill-opacity="0.3019608" fill-rule="evenodd" stroke="none"/>
    <path d="M-15.95 -23.4 L-16.15 -23.9 -14.95 -22.6 Q-15.65 -22.75 -15.95 -23.4 M-16.75 -9.65 Q-16.75 -8.05 -17.15 -6.5 L-17.25 -6.4 Q-17.8 -7.0 -17.8 -8.4 -17.8 -10.1 -18.0 -10.65 L-16.85 -10.8 -16.75 -9.65 M-12.95 19.0 L-13.1 18.5 Q-13.1 16.8 -12.3 12.95 -11.45 8.8 -10.75 8.0 L-10.35 8.05 Q-10.15 8.15 -10.15 8.5 L-10.5 13.25 Q-10.5 14.25 -10.95 16.0 -11.55 18.3 -12.5 19.1 L-12.95 19.0 M-15.65 19.45 L-16.5 19.6 -16.6 19.05 Q-16.6 18.0 -15.55 14.6 -14.6 11.45 -14.25 10.85 -13.75 11.8 -13.75 13.1 -13.75 15.55 -15.65 19.45 M-7.95 14.3 Q-7.85 13.4 -7.25 13.1 -6.7 13.75 -6.5 15.5 -6.5 17.55 -7.25 17.85 -7.65 17.45 -7.85 16.55 L-8.0 15.6 -7.95 14.3 M10.4 6.25 L10.75 3.5 Q10.75 3.15 11.5 2.6 11.9 3.0 11.9 4.05 L11.8 5.2 10.5 6.6 Q10.4 6.9 10.4 6.25 M1.5 0.65 L1.5 2.3 Q1.5 5.55 0.25 6.35 0.15 6.65 0.15 6.0 L0.0 1.95 Q0.0 -0.45 1.0 -1.0 L1.5 0.65 M4.75 6.85 Q4.2 6.6 4.05 5.6 L4.0 4.05 Q4.0 1.8 5.0 0.65 6.0 -0.5 6.0 1.75 6.0 6.0 4.75 6.85 M0.25 11.5 L1.25 13.45 1.4 14.9 Q1.4 16.65 0.2 19.3 -1.2 22.4 -2.9 22.35 -0.5 17.5 -0.35 16.85 L-0.4 13.0 -0.35 12.4 Q-0.2 11.8 0.25 11.5 M3.75 15.1 Q3.85 14.85 4.5 14.6 5.1 15.35 5.1 18.15 5.1 20.65 4.0 21.75 3.35 21.35 3.35 20.5 L3.8 18.1 Q4.15 16.3 3.75 15.1 M6.9 16.45 Q6.9 16.2 7.75 15.85 8.25 16.4 8.25 19.95 8.25 20.6 7.5 21.1 L7.2 18.8 6.9 16.45 M17.2 13.45 L17.25 15.45 Q17.25 16.45 16.5 18.5 15.75 20.7 15.0 21.45 14.25 21.1 14.25 20.4 14.25 18.7 14.85 16.15 15.5 13.05 16.5 11.75 17.05 12.35 17.2 13.45 M-34.8 12.65 L-35.1 14.1 -34.85 15.9 Q-34.25 17.1 -33.75 19.0 -33.75 19.35 -34.25 19.35 -35.7 19.35 -36.25 16.75 L-36.5 14.1 Q-36.5 11.85 -35.25 11.2 -34.6 11.95 -34.8 12.65 M-40.5 13.95 Q-40.5 12.3 -40.0 12.1 L-39.25 16.05 Q-38.55 18.6 -36.9 20.25 L-37.15 20.6 Q-39.0 19.55 -39.85 17.35 -40.5 15.75 -40.5 13.95 M-32.5 15.4 L-32.4 14.15 Q-32.1 13.5 -31.0 13.6 -30.9 14.1 -31.1 15.25 L-30.75 16.4 -30.1 17.85 -30.5 18.25 -32.35 16.6 -32.5 15.4 M16.5 26.5 L14.75 26.7 Q12.65 26.7 10.25 25.5 7.9 24.35 7.9 23.35 L8.0 23.1 Q8.7 22.95 9.55 23.5 10.85 24.4 11.75 24.75 L13.75 25.25 16.05 24.95 Q16.85 24.65 17.85 26.1 L16.5 26.5 M24.75 -10.15 L24.15 -8.9 Q23.65 -8.0 23.85 -7.5 L23.75 -7.4 Q22.9 -10.95 22.9 -11.7 L23.0 -13.3 Q24.4 -13.4 24.7 -11.85 L24.75 -10.15 M26.3 5.8 L26.15 7.7 26.1 9.2 25.0 10.75 24.55 10.05 24.25 9.5 24.5 5.5 24.7 4.95 24.85 4.35 Q26.2 4.3 26.3 5.8 M22.6 14.85 Q22.6 15.9 21.8 17.6 20.85 19.5 19.75 19.85 19.6 20.25 19.6 19.6 19.6 18.7 20.25 17.4 20.9 16.15 20.9 14.75 L21.15 14.05 21.35 13.35 Q22.3 12.9 22.5 13.65 L22.6 14.85 M27.4 18.1 Q27.4 19.15 26.9 19.6 L24.75 21.0 Q26.65 16.9 27.1 16.35 L27.4 18.1 M35.9 10.0 Q35.9 7.6 36.9 6.6 37.9 5.6 37.9 8.1 L37.85 9.35 Q37.65 9.95 36.75 10.6 L36.1 10.6 Q35.9 10.65 35.9 10.0 M37.85 12.4 L38.0 12.85 Q35.95 20.8 33.0 21.75 32.75 22.15 32.75 21.5 32.75 20.35 34.2 17.15 35.9 13.5 37.5 12.35 L37.85 12.4 M29.85 12.0 L29.5 12.1 Q29.15 12.1 28.25 7.6 28.25 3.85 29.25 6.35 30.25 8.85 30.25 10.1 L29.85 12.0 M32.75 18.55 Q31.95 19.85 29.75 20.85 32.65 16.3 32.0 12.45 33.4 11.9 33.4 15.85 33.4 17.55 32.75 18.55 M50.0 5.25 L50.15 6.9 50.05 8.35 Q49.8 9.2 48.75 9.85 48.65 10.15 48.65 9.5 L48.95 8.35 49.25 7.2 49.1 6.5 48.5 5.5 49.25 5.3 50.0 5.25 M40.85 16.25 Q41.25 17.2 41.25 18.15 41.25 19.45 38.5 21.7 L38.25 21.6 Q39.1 20.55 39.8 18.75 L40.85 16.25" fill="#333333" fill-rule="evenodd" stroke="none"/>
  </g>
</svg>
