<?xml version="1.0" encoding="UTF-8" standalone="no"?>
<svg xmlns:xlink="http://www.w3.org/1999/xlink" height="59.3px" width="112.95px" xmlns="http://www.w3.org/2000/svg">
  <g transform="matrix(1.0, 0.0, 0.0, 1.0, 57.95, 29.3)">
    <path d="M-22.55 13.0 L-22.3 12.4 -22.0 11.8 -21.8 11.2 -22.15 11.2 -22.7 12.6 -22.75 13.2 -22.75 13.4 -22.55 13.0 M-11.55 -11.75 L-11.35 -12.3 -11.6 -12.35 -12.05 -11.3 -12.15 -10.1 -12.1 -8.9 -11.95 -8.65 -11.95 -8.75 -11.95 -9.35 -11.95 -9.9 -11.95 -10.55 -11.75 -11.1 -11.55 -11.75 M17.0 -7.3 L15.9 -8.0 14.75 -8.55 14.5 -8.65 15.0 -7.85 16.5 -6.55 17.25 -6.05 17.8 -5.8 18.35 -6.15 17.8 -6.75 17.0 -7.3 M8.35 -23.8 L9.85 -24.15 14.4 -24.15 16.1 -23.75 17.45 -23.4 18.55 -23.15 19.3 -22.8 20.45 -22.15 21.6 -21.6 22.75 -21.0 23.25 -20.4 23.65 -19.8 24.1 -19.25 24.45 -18.85 25.2 -19.05 25.55 -19.6 25.75 -20.2 25.95 -20.8 26.55 -21.4 27.25 -22.0 28.8 -22.4 37.5 -22.15 38.25 -21.8 39.6 -21.25 41.3 -20.6 42.25 -20.05 42.8 -19.4 44.45 -17.6 45.2 -16.45 45.5 -15.85 45.85 -15.3 46.0 -14.65 46.2 -14.1 46.4 -13.5 46.55 -12.9 46.6 -12.3 46.95 -11.75 47.35 -11.1 47.7 -10.5 47.9 -9.9 48.05 -8.75 48.1 -6.35 48.1 -4.6 48.15 -3.45 48.3 -2.8 49.6 -2.35 Q50.95 -1.85 52.1 -0.85 L53.4 0.35 54.0 0.95 54.2 1.5 54.5 2.15 54.75 2.7 Q55.05 3.55 55.0 4.5 L54.95 6.25 54.95 7.45 54.9 8.05 54.75 8.65 54.35 9.25 53.8 9.8 53.2 10.45 52.65 11.0 51.3 11.55 49.9 12.35 49.6 12.75 49.6 13.4 49.6 13.95 49.6 14.55 49.45 15.15 48.85 15.75 48.3 16.3 47.35 16.9 46.2 17.5 44.7 17.9 42.6 18.3 40.9 19.5 39.3 20.8 39.0 21.3 38.85 21.85 38.0 23.0 36.7 24.2 35.8 24.8 34.85 25.45 32.95 26.0 Q28.7 27.5 24.25 27.2 L20.85 26.6 18.95 26.7 17.85 26.9 Q17.6 27.0 17.4 27.2 L17.05 27.8 16.65 28.35 16.1 29.0 15.15 29.55 13.65 30.0 12.9 29.95 11.75 29.8 11.0 29.35 5.9 28.35 3.05 27.45 1.5 27.65 Q-4.0 28.85 -9.1 27.2 L-10.25 27.2 -11.0 27.45 -14.05 28.0 -18.95 28.35 -20.45 28.0 -23.85 26.15 -25.6 25.05 -26.5 24.45 -26.95 23.9 -27.45 23.25 -27.85 22.7 -28.2 22.05 -28.6 21.5 -30.3 20.85 -31.05 20.45 -31.85 19.9 -32.75 19.3 -33.9 19.3 -35.6 19.7 Q-42.95 20.8 -48.85 16.45 -51.1 14.75 -52.1 12.0 L-52.1 9.65 -52.1 6.65 -52.1 4.9 -52.1 3.7 -51.9 3.15 -51.7 2.5 -51.5 1.95 -51.9 1.3 -52.3 0.75 -52.65 -0.45 -53.05 -1.6 -53.25 -2.25 -53.4 -2.8 -53.6 -3.4 -53.6 -5.2 -53.6 -6.35 -53.6 -7.55 -53.55 -8.15 -53.4 -8.75 Q-52.95 -10.1 -51.95 -11.15 -49.55 -13.45 -46.25 -14.0 L-45.1 -14.3 -44.5 -14.65 -43.55 -15.25 -42.45 -15.85 -38.65 -16.75 -34.55 -17.95 Q-33.9 -18.15 -33.35 -18.6 L-33.15 -19.2 -32.95 -19.8 -32.75 -20.4 -32.6 -21.0 -32.25 -21.6 -31.95 -22.15 -31.6 -22.75 -31.05 -23.35 -30.5 -23.95 -29.55 -24.55 -28.05 -24.95 -26.5 -24.95 -26.5 -24.85 -25.4 -24.8 Q-23.4 -24.15 -21.65 -23.05 -20.1 -22.1 -18.8 -20.75 L-17.8 -19.6 -16.85 -19.4 -15.95 -19.7 -15.7 -20.05 -15.35 -20.6 -14.95 -21.2 -13.05 -22.35 -11.55 -22.9 -9.85 -23.35 -5.3 -23.35 -3.8 -22.95 -1.5 -21.8 -0.4 -21.2 0.55 -20.6 3.8 -20.25 4.55 -20.3 Q4.65 -20.3 4.75 -20.4 L5.1 -20.8 5.7 -21.4 6.25 -22.0 6.8 -22.6 7.4 -23.15 8.35 -23.8" fill="#5b5546" fill-opacity="0.3019608" fill-rule="evenodd" stroke="none"/>
    <path d="M8.1 -0.45 L10.8 -2.8 12.15 -3.35 13.65 -3.8 18.2 -3.7 19.3 -3.6 20.25 -3.25 21.0 -2.6 25.0 -2.2 26.15 -2.0 26.7 -1.85 27.45 -1.45 28.6 -0.85 29.35 -0.45 30.3 -0.7 31.85 -1.0 33.1 -1.4 33.15 -1.6 33.15 -2.25 33.15 -2.8 33.15 -3.4 33.15 -4.6 33.15 -5.2 33.2 -5.8 33.35 -6.35 33.7 -7.0 33.9 -7.55 35.05 -8.75 35.65 -9.35 36.4 -9.9 37.5 -10.55 37.9 -11.1 38.45 -11.75 39.0 -12.3 40.15 -12.9 41.65 -13.3 43.2 -13.3 43.2 -13.2 44.3 -13.1 45.1 -12.7 46.25 -11.55 49.8 -7.95 Q51.0 -6.7 51.65 -5.05 L52.45 -3.25 52.65 -2.6 52.85 -2.05 53.05 -1.45 53.2 -0.85 53.2 0.35 53.2 2.7 53.2 4.5 53.2 6.25 53.2 7.45 53.05 8.05 52.85 8.65 52.65 9.25 52.45 9.8 52.1 10.45 51.5 11.55 50.95 12.75 50.6 13.4 50.45 13.95 50.4 14.55 49.45 16.35 Q46.5 20.5 41.65 22.15 37.95 23.4 34.1 23.65 L32.0 24.35 29.15 25.05 27.3 25.45 26.7 25.6 Q25.55 26.6 24.2 27.1 L21.05 28.45 19.9 29.0 18.2 29.35 15.9 29.3 14.75 29.2 13.85 28.75 12.9 28.2 11.9 27.65 10.6 27.0 9.3 26.9 9.1 27.0 8.5 27.45 6.8 27.8 1.5 27.8 0.0 27.45 -0.95 26.8 -1.9 26.3 -2.85 25.8 -4.55 26.25 -10.6 26.05 -12.3 25.8 -13.05 25.45 -14.2 24.8 -15.15 24.25 -16.1 23.65 -16.65 23.05 -17.2 22.4 -17.6 21.85 -17.8 21.3 -18.0 20.7 -18.2 20.1 -18.2 19.5 -18.2 18.95 -18.2 18.3 -18.2 17.75 -18.2 17.15 -18.2 16.55 -18.0 15.95 -17.8 15.35 -17.6 14.75 -17.25 14.2 -16.5 13.55 -15.7 13.0 -12.85 12.2 -6.05 11.2 -4.6 11.05 -4.35 10.8 -4.0 10.2 -3.8 9.65 -3.2 9.0 -2.25 8.45 -0.75 8.05 1.5 8.0 2.1 7.85 Q3.15 5.3 4.85 3.25 L8.1 -0.45" fill="#5b5546" fill-opacity="0.3019608" fill-rule="evenodd" stroke="none"/>
    <path d="M-31.2 13.55 L-31.45 13.0 -31.65 12.85 -31.8 12.85 -32.0 13.0 -32.3 13.4 -32.3 13.9 -32.0 14.55 -31.25 14.65 -31.05 14.55 -31.0 14.2 -31.2 13.55 M7.75 15.05 L7.0 15.15 5.85 15.75 4.75 16.3 7.2 16.55 8.3 16.25 8.5 16.15 8.3 15.75 7.95 15.15 7.75 15.05 M14.05 10.4 L15.0 11.55 15.7 12.2 16.2 11.55 16.5 11.0 16.6 10.45 16.65 9.8 16.65 9.25 13.25 9.25 14.05 10.4 M19.5 1.55 L20.65 2.15 21.75 2.7 22.75 3.3 23.3 3.9 23.8 4.55 24.05 5.05 Q24.35 5.95 24.3 6.9 L24.25 8.05 24.25 10.45 24.25 11.55 24.25 12.2 24.05 12.75 23.85 13.4 23.65 13.95 23.5 14.55 23.3 15.15 22.9 15.7 21.25 17.55 18.75 19.9 17.4 21.05 17.4 21.7 17.4 22.25 17.25 22.85 16.45 24.05 15.9 24.65 15.3 25.2 14.6 25.8 11.75 26.65 4.9 26.45 Q0.45 25.0 -4.15 24.05 L-4.95 24.05 Q-7.1 25.7 -9.85 25.9 L-14.4 26.25 -17.2 25.15 -19.5 24.05 -20.65 23.45 -21.8 23.45 -23.1 23.85 -26.55 24.45 -30.7 24.45 -31.6 24.05 Q-33.6 23.0 -35.75 22.5 L-38.25 21.7 Q-39.6 20.75 -40.35 19.3 L-40.95 18.15 -41.25 17.5 -41.5 16.95 -42.8 16.6 -45.45 16.0 -46.2 15.9 -47.35 15.75 -48.3 15.35 -49.25 14.75 -50.2 14.2 -50.75 13.55 -51.0 13.0 -51.3 12.35 -51.5 11.8 -51.5 11.2 -51.5 10.65 -51.5 10.0 -51.5 9.45 -51.5 8.8 -51.7 8.25 -51.9 7.65 -52.1 7.05 -52.3 6.45 -52.3 5.25 -52.3 4.7 -52.3 2.3 -52.3 1.15 -52.25 0.5 -52.1 -0.05 -51.85 -0.65 -51.55 -1.25 -50.9 -2.4 -49.85 -4.25 -49.2 -5.3 -48.7 -6.0 -47.75 -6.55 -46.2 -7.0 -43.2 -7.0 -40.9 -7.0 -39.4 -7.35 -37.9 -7.75 -35.6 -7.65 -34.5 -7.5 -33.9 -7.35 -33.35 -6.95 -32.75 -6.35 -31.8 -6.15 -29.6 -6.55 -29.55 -6.8 -29.3 -7.35 -29.0 -8.0 -28.8 -8.55 -28.2 -9.15 -27.3 -9.75 -25.75 -10.1 -24.25 -10.1 -24.25 -10.0 -22.55 -9.75 -21.4 -9.15 -20.45 -8.55 -19.35 -7.35 -18.95 -6.8 -18.55 -6.15 -18.2 -5.6 -15.9 -5.2 -14.8 -5.0 -13.85 -4.6 -12.5 -4.4 -11.35 -4.6 -8.35 -4.3 -6.45 -4.3 -5.3 -4.4 -4.35 -4.25 -4.0 -4.0 -3.2 -3.6 -2.45 -3.25 0.7 -2.8 6.45 -1.45 7.75 -1.05 8.3 -0.65 8.9 -0.05 9.45 0.5 18.55 1.15 19.5 1.55" fill="#5b5546" fill-opacity="0.3019608" fill-rule="evenodd" stroke="none"/>
    <path d="M-30.1 6.65 L-29.15 6.45 -29.95 6.25 -30.7 6.05 -31.45 5.9 -32.2 5.7 -32.3 5.8 -31.65 6.45 -30.1 6.65 M28.05 -24.95 L29.55 -25.35 Q38.4 -26.6 46.25 -22.5 L47.9 -21.8 48.85 -21.2 49.35 -20.55 50.05 -19.45 50.9 -18.2 51.55 -17.05 51.9 -16.45 52.1 -15.85 52.3 -15.3 52.45 -14.65 52.45 -13.5 52.45 -12.3 52.45 -11.1 52.4 -9.95 52.3 -9.35 51.9 -8.75 51.6 -8.15 51.5 -7.55 51.85 -6.95 52.1 -6.4 52.45 -5.75 52.7 -5.2 53.0 -4.6 53.2 -4.0 53.2 -3.4 53.2 -2.25 53.2 -1.05 53.2 0.75 53.15 2.5 53.05 3.15 52.8 3.7 52.45 4.25 51.9 4.9 48.4 7.1 Q42.2 11.3 34.85 11.5 L34.65 11.55 33.15 12.55 Q27.55 15.85 21.2 16.8 L12.5 16.3 11.0 16.3 9.45 16.75 8.7 16.95 Q5.55 18.0 2.3 17.6 -2.0 17.1 -5.7 14.75 L-6.65 14.2 -7.75 14.1 -8.15 14.2 -8.7 14.55 -9.5 15.1 -10.4 15.75 -12.1 16.15 -13.25 15.95 -14.0 15.55 -14.95 14.95 -15.3 14.35 -15.55 13.8 -15.9 13.2 -16.85 13.2 -18.0 13.75 -19.15 14.4 -20.25 14.95 -24.8 15.8 -26.5 16.15 -31.05 16.15 Q-33.5 15.75 -35.7 14.8 -37.65 13.95 -39.75 13.55 L-40.35 13.4 -40.9 13.0 Q-41.4 12.65 -41.9 12.4 L-42.8 12.0 -43.75 12.55 -45.45 13.0 -47.75 13.0 -49.25 12.55 -50.2 12.0 -50.95 11.4 -52.05 9.6 -53.0 7.8 -53.6 6.65 -53.8 6.05 -54.05 4.25 -54.0 2.5 -54.0 0.75 -53.9 -1.05 -53.8 -1.6 -53.55 -2.2 -53.25 -2.8 -52.85 -3.4 -52.45 -4.0 -51.7 -4.6 -50.75 -5.2 -50.2 -5.8 -50.15 -6.35 -50.0 -7.0 -49.8 -7.55 -49.65 -8.15 -49.2 -8.7 -48.7 -9.35 -47.75 -9.9 -46.2 -10.35 -45.75 -10.65 -45.65 -10.9 -45.65 -11.55 -45.4 -12.1 -45.1 -12.75 -44.85 -13.25 -44.5 -13.9 -41.15 -16.35 -38.35 -18.2 -38.05 -18.6 -37.5 -19.8 Q-36.75 -21.55 -35.4 -22.95 -33.35 -25.1 -30.5 -25.75 L-28.8 -26.15 -21.0 -25.75 -20.1 -25.55 -17.05 -26.3 -11.35 -27.4 -4.55 -27.7 -4.55 -27.6 -3.4 -27.55 -2.45 -27.1 -1.7 -26.55 4.9 -25.85 5.5 -25.7 6.25 -25.4 7.4 -24.95 8.15 -25.15 9.1 -25.7 10.6 -26.15 14.35 -25.85 Q18.65 -25.2 22.55 -23.15 L23.65 -22.6 25.9 -22.85 26.15 -23.15 26.55 -23.75 27.1 -24.35 28.05 -24.95" fill="#5b5546" fill-opacity="0.3019608" fill-rule="evenodd" stroke="none"/>
    <path d="M-15.15 -11.75 L-15.15 -11.8 -17.2 -11.75 -17.45 -11.55 -17.05 -10.9 -16.4 -9.8 Q-16.3 -9.65 -16.15 -9.7 -15.9 -9.75 -15.7 -9.9 L-15.55 -10.55 -15.35 -11.1 -15.15 -11.75 M-41.1 -6.55 L-41.3 -7.15 -41.35 -7.3 -41.45 -7.3 -41.8 -6.95 -41.95 -6.35 -41.85 -5.8 -41.2 -4.7 -40.2 -3.35 Q-39.5 -2.4 -38.45 -2.05 L-38.65 -2.4 -39.4 -3.6 -40.15 -4.8 -40.9 -6.0 -41.1 -6.55 M13.7 -8.15 L13.85 -8.75 13.7 -8.8 12.9 -7.95 12.1 -6.8 12.05 -6.2 12.0 -5.6 11.9 -5.0 11.75 -4.4 12.3 -4.35 13.05 -4.6 13.5 -5.25 13.65 -5.8 13.65 -7.0 13.7 -8.15 M21.0 -25.15 L22.55 -24.0 24.6 -22.15 25.55 -21.0 26.7 -20.8 28.8 -21.05 36.75 -21.4 37.7 -21.75 38.65 -22.0 39.6 -21.8 Q42.85 -20.4 45.4 -18.05 47.8 -15.8 49.55 -13.05 L51.5 -9.55 53.05 -6.55 53.2 -6.0 53.4 -5.4 53.6 -4.8 53.8 -4.25 54.0 -3.6 54.15 -3.05 54.35 -2.4 54.55 -1.85 54.55 -0.05 54.55 2.3 54.45 4.7 54.2 6.45 53.9 8.25 53.4 10.0 52.85 10.65 52.3 11.2 51.7 11.8 51.15 12.4 50.0 13.55 49.4 14.15 48.7 14.75 47.35 15.35 45.85 15.95 44.5 16.55 44.2 17.15 44.15 17.75 44.15 18.3 44.15 18.95 44.15 19.5 44.15 20.1 44.1 20.7 43.95 21.3 43.7 21.85 43.35 22.4 42.8 23.05 41.85 23.65 40.15 24.05 39.4 24.0 38.25 23.85 37.5 23.5 Q36.55 23.15 35.6 22.95 L33.9 22.85 33.5 23.05 32.8 23.65 32.2 24.2 31.45 24.8 30.65 25.4 29.75 26.0 25.75 26.85 20.1 27.9 Q15.65 28.85 11.55 27.2 L9.65 27.0 3.8 27.0 2.1 26.8 1.3 26.45 -0.6 27.35 -3.6 28.55 -5.3 29.0 -17.4 28.65 -23.1 28.0 -25.35 26.95 Q-28.25 25.65 -31.25 24.6 -34.0 23.65 -36.55 22.25 L-41.65 21.65 Q-45.7 20.95 -49.45 19.15 -52.25 17.75 -54.95 16.15 L-55.5 15.55 -56.05 14.9 -56.45 14.4 -56.85 13.75 -57.2 13.2 -57.4 12.55 -57.6 12.0 -57.75 11.4 -57.95 10.8 -57.95 10.2 -57.95 9.65 -57.9 9.0 -57.75 8.45 -57.55 7.85 -57.2 7.25 -56.8 6.65 -56.25 6.05 -55.7 5.45 -54.55 4.9 -53.05 4.5 -51.55 4.45 -51.15 4.25 -51.5 3.7 -51.7 3.15 Q-52.05 2.0 -51.95 0.75 L-51.9 -1.05 -51.9 -2.8 -51.9 -4.6 -51.95 -6.35 -51.7 -8.15 -51.5 -8.7 -51.15 -9.35 -50.75 -9.9 -50.4 -10.55 -50.2 -11.1 -50.2 -11.75 -50.15 -12.3 -50.0 -12.9 -49.4 -14.1 -48.7 -15.3 -47.9 -16.45 -47.15 -17.65 -46.25 -18.85 -45.45 -20.05 -40.65 -23.15 Q-37.25 -25.2 -33.7 -26.85 -30.55 -28.3 -27.3 -29.3 L-27.25 -29.2 -26.15 -29.1 -25.2 -28.7 -24.45 -28.1 -24.05 -27.55 -23.7 -26.9 -23.5 -26.35 -23.35 -25.7 -23.3 -25.15 -23.35 -24.55 -23.5 -23.95 -23.7 -23.35 -24.05 -22.8 -24.45 -22.15 -24.8 -21.6 -23.85 -21.25 -23.3 -21.0 -22.55 -20.8 -21.45 -20.9 Q-21.2 -21.0 -21.05 -21.2 L-20.25 -21.75 -18.0 -22.95 -16.65 -23.55 -15.15 -23.95 -7.6 -23.95 -5.9 -23.55 -4.75 -23.15 -4.0 -23.35 -1.85 -24.4 Q0.6 -25.35 3.0 -26.45 L7.55 -27.9 15.9 -27.9 17.6 -27.55 18.7 -26.85 21.0 -25.15" fill="#5b5546" fill-opacity="0.3019608" fill-rule="evenodd" stroke="none"/>
    <path d="M35.75 -18.6 L35.8 -18.75 35.85 -18.9 35.85 -19.05 35.9 -19.2 36.0 -19.35 36.1 -19.45 36.25 -19.6 36.4 -19.75 36.75 -19.85 37.0 -19.8 37.2 -19.75 37.25 -19.7 37.4 -19.6 37.5 -19.45 37.6 -19.35 37.6 -19.2 37.6 -19.05 37.75 -18.6 37.85 -18.2 37.9 -17.9 37.95 -17.75 37.95 -17.65 37.95 -17.5 38.0 -17.35 38.0 -15.65 38.0 -13.5 38.0 -11.65 38.0 -11.5 38.05 -11.4 37.8 -10.55 37.55 -9.7 37.45 -9.25 37.5 -8.95 37.55 -8.7 37.65 -8.4 37.65 -8.25 37.75 -8.1 37.8 -7.95 38.2 -7.95 38.3 -8.0 38.75 -8.45 39.15 -8.85 39.3 -9.0 39.35 -9.15 39.45 -9.3 39.5 -9.45 39.6 -9.6 39.65 -9.7 39.75 -9.85 39.8 -10.0 39.9 -10.15 39.95 -10.3 40.0 -10.45 40.05 -10.55 40.1 -10.7 40.2 -10.85 40.25 -11.0 40.3 -11.15 40.35 -11.3 40.45 -11.4 40.5 -11.55 40.55 -11.7 40.6 -11.85 40.65 -12.0 40.75 -12.15 40.8 -12.3 40.8 -12.4 40.85 -12.55 40.95 -12.7 40.95 -12.85 40.95 -13.25 40.95 -13.7 40.95 -14.1 40.95 -14.25 41.0 -14.4 41.0 -15.55 41.0 -16.7 41.0 -17.4 40.95 -17.55 40.9 -17.65 40.9 -17.8 40.85 -17.95 40.8 -18.1 40.8 -18.25 40.8 -18.4 40.8 -18.5 40.75 -18.65 40.7 -18.8 40.7 -18.95 40.75 -19.1 40.75 -19.25 40.75 -19.4 40.8 -19.5 40.85 -19.65 41.1 -19.75 41.3 -19.7 41.35 -19.65 41.45 -19.55 41.5 -19.4 41.5 -19.3 41.5 -19.15 41.55 -19.0 41.7 -18.45 41.9 -17.85 41.95 -17.6 42.05 -17.45 42.05 -17.3 42.05 -17.15 42.05 -16.15 42.05 -15.15 42.05 -14.45 42.1 -14.3 42.1 -14.15 42.1 -13.6 42.1 -13.05 42.1 -12.75 42.15 -12.6 42.15 -12.45 42.15 -12.3 42.1 -12.2 42.05 -12.05 42.0 -11.9 41.9 -11.75 41.85 -11.6 41.8 -11.45 41.75 -11.35 41.7 -11.2 41.65 -11.05 41.6 -10.9 41.55 -10.75 41.5 -10.6 41.4 -10.5 41.35 -10.35 41.3 -10.2 41.2 -10.05 41.1 -9.75 41.0 -9.5 40.95 -9.35 40.9 -9.2 40.8 -9.05 40.8 -8.9 40.7 -8.75 40.65 -8.65 40.55 -8.5 40.5 -8.35 40.25 -8.05 39.55 -7.35 39.1 -6.9 38.9 -6.8 38.6 -6.65 38.25 -6.55 37.3 -6.6 37.2 -6.65 37.05 -6.75 36.8 -7.0 36.7 -7.15 36.55 -7.15 35.45 -5.85 34.05 -4.9 32.4 -4.65 Q31.8 -4.7 31.3 -5.1 L31.2 -5.2 31.1 -5.35 31.0 -5.5 30.9 -5.65 30.85 -5.8 30.8 -5.95 30.7 -6.05 30.6 -6.35 30.5 -6.65 30.4 -6.9 30.3 -7.0 30.2 -6.9 30.1 -6.75 29.95 -6.6 Q29.5 -6.35 29.05 -6.2 L28.3 -5.95 Q27.7 -6.05 27.2 -6.35 L26.55 -6.8 26.45 -6.9 26.4 -7.05 26.3 -7.2 26.2 -7.35 26.15 -7.5 26.05 -7.65 26.0 -7.8 25.8 -7.8 25.55 -7.65 25.0 -7.35 24.7 -7.25 24.35 -7.35 23.9 -7.6 23.7 -7.75 23.65 -7.85 23.5 -8.0 23.4 -8.0 23.25 -7.9 23.05 -7.75 22.75 -7.65 22.5 -7.7 22.4 -7.75 22.25 -7.8 22.15 -7.95 22.1 -8.1 22.05 -8.25 22.05 -8.4 22.1 -8.55 22.1 -8.7 22.2 -8.8 22.35 -8.95 22.4 -9.1 22.4 -9.25 22.4 -9.4 22.4 -9.55 22.45 -9.65 22.45 -9.8 22.5 -9.95 22.55 -10.1 22.6 -10.25 22.6 -10.4 22.6 -10.5 22.65 -10.65 22.7 -10.8 22.8 -10.95 22.95 -11.1 23.3 -11.2 23.55 -11.15 23.65 -11.1 23.75 -11.0 23.9 -10.85 24.0 -10.55 24.1 -10.15 24.2 -9.85 24.25 -9.7 24.35 -9.6 24.4 -9.45 24.5 -9.3 24.6 -9.15 24.7 -9.0 24.75 -8.9 24.85 -8.85 24.95 -9.0 25.05 -9.15 25.1 -9.3 25.15 -9.45 25.15 -9.55 25.2 -9.7 25.25 -9.85 25.25 -10.0 25.25 -10.3 25.25 -10.55 25.25 -10.7 25.25 -10.85 25.2 -11.0 25.2 -11.15 25.2 -11.3 25.15 -11.4 25.15 -11.55 25.15 -11.7 25.1 -11.85 25.1 -12.0 25.1 -12.15 25.05 -12.3 25.05 -12.55 25.05 -13.15 25.05 -13.7 25.05 -14.0 25.0 -14.1 25.0 -14.25 25.0 -14.4 24.95 -14.55 24.95 -14.7 24.95 -14.85 24.9 -14.95 24.9 -15.1 24.9 -15.4 24.9 -15.7 24.9 -15.85 24.9 -15.95 24.95 -16.1 25.0 -16.25 25.1 -16.4 25.3 -16.55 25.65 -16.65 25.95 -16.55 26.15 -16.4 26.3 -16.25 26.35 -16.1 26.35 -15.95 26.35 -15.85 26.35 -15.7 26.35 -15.55 26.35 -15.4 26.4 -15.25 26.4 -15.1 26.4 -14.95 26.45 -14.85 26.45 -14.7 26.45 -14.55 26.5 -14.4 26.5 -14.25 26.5 -14.1 26.5 -14.0 26.55 -13.85 26.55 -13.7 26.55 -13.55 26.55 -13.4 26.55 -13.25 26.55 -13.15 26.6 -13.0 26.65 -12.85 26.65 -12.7 26.65 -12.4 26.65 -11.7 26.65 -11.15 26.65 -10.85 26.7 -10.7 26.7 -10.55 26.7 -10.45 26.75 -10.3 26.75 -10.15 26.8 -10.0 26.8 -9.85 26.8 -9.7 26.85 -9.55 26.85 -9.45 26.95 -9.3 27.0 -9.15 27.05 -9.0 27.1 -8.85 27.15 -8.7 27.2 -8.6 27.3 -8.45 27.35 -8.3 27.45 -8.15 27.45 -8.0 27.55 -7.85 27.65 -7.75 27.85 -7.6 28.2 -7.45 28.45 -7.45 28.8 -7.6 29.05 -7.75 29.15 -7.9 29.35 -8.15 29.55 -8.45 29.65 -8.6 29.7 -8.7 29.8 -8.85 29.85 -9.0 29.95 -9.15 30.0 -9.45 30.1 -9.85 30.2 -10.15 30.2 -10.3 30.2 -12.55 30.2 -15.95 30.2 -18.95 30.25 -19.1 30.25 -19.25 30.25 -19.4 30.3 -19.5 30.3 -19.65 30.3 -19.8 30.35 -19.95 30.35 -20.1 30.35 -20.25 30.35 -20.35 30.4 -20.5 30.45 -20.65 30.55 -20.8 30.75 -20.95 31.05 -21.05 31.1 -21.0 31.3 -21.0 31.5 -20.9 31.65 -20.75 31.8 -20.6 31.9 -20.45 32.15 -19.75 32.25 -19.05 32.35 -18.6 32.35 -17.2 32.35 -15.8 32.35 -14.65 32.3 -14.5 32.3 -14.35 32.3 -14.2 32.3 -14.05 32.25 -13.95 32.25 -13.8 32.25 -13.65 32.25 -13.5 32.2 -13.35 32.2 -13.2 32.2 -13.1 32.15 -12.95 32.15 -12.8 32.15 -12.65 31.95 -11.65 31.8 -10.65 31.65 -9.95 31.65 -9.55 31.65 -9.1 31.65 -8.8 31.65 -8.7 31.7 -8.55 31.7 -8.4 31.7 -8.25 31.7 -8.1 31.75 -7.95 31.75 -7.8 31.75 -7.7 31.85 -7.25 31.95 -6.85 32.05 -6.55 32.1 -6.4 32.2 -6.25 32.3 -6.1 33.1 -6.05 33.3 -6.1 33.45 -6.15 33.6 -6.25 33.75 -6.4 34.0 -6.55 34.35 -6.85 35.15 -7.7 35.55 -8.25 35.7 -8.7 35.85 -9.1 35.95 -9.4 35.95 -9.55 35.9 -9.65 35.9 -9.8 35.9 -9.95 35.85 -10.1 35.85 -10.25 35.85 -10.4 35.85 -10.5 35.8 -10.65 35.8 -10.8 35.8 -10.95 35.75 -11.1 35.75 -11.25 35.7 -11.4 35.7 -13.35 35.7 -16.05 35.7 -18.5 35.75 -18.6" fill="#333333" fill-rule="evenodd" stroke="none"/>
    <path d="M30.05 -1.8 L30.15 -1.95 30.5 -2.05 30.85 -1.95 31.05 -1.8 31.25 -1.65 31.4 -1.5 31.5 -1.4 31.55 -1.25 31.55 -1.1 31.55 -0.95 31.5 -0.8 31.5 -0.65 31.5 -0.55 31.45 -0.4 31.3 -0.25 31.25 -0.1 31.2 0.05 31.2 0.3 31.2 0.75 31.2 1.05 31.2 1.15 31.3 1.45 31.35 1.6 31.4 1.75 31.45 1.9 31.55 2.0 32.25 2.05 32.45 2.0 32.6 1.95 32.75 1.8 32.9 1.65 33.0 1.5 33.1 1.2 33.25 0.8 33.35 0.5 33.4 0.35 33.5 0.2 33.7 -0.65 33.85 -1.5 33.95 -2.05 33.95 -2.2 33.95 -2.35 34.0 -2.45 34.0 -2.75 34.0 -3.2 34.0 -3.45 34.0 -3.6 34.05 -3.75 34.1 -3.9 34.2 -4.05 34.35 -4.2 34.65 -4.25 34.9 -4.25 35.1 -4.15 35.25 -4.0 35.35 -3.85 35.4 -3.7 35.45 -3.55 35.45 -3.4 35.5 -3.3 35.5 -3.15 35.5 -2.45 35.5 -1.7 35.5 -1.3 35.55 -1.15 35.55 -1.0 35.55 -0.85 35.6 -0.7 35.65 -0.6 35.65 -0.45 35.7 -0.3 35.7 -0.15 35.7 0.15 35.7 0.55 35.7 0.85 35.7 1.0 35.8 1.25 35.85 1.55 35.9 1.7 36.0 1.8 36.1 1.75 36.35 1.45 36.45 1.3 36.55 1.15 36.65 0.9 36.8 0.45 36.85 0.2 36.9 0.05 36.9 -0.1 36.9 -0.25 37.05 -0.95 37.3 -1.95 37.5 -2.65 37.5 -2.8 37.5 -2.95 37.55 -3.25 37.65 -3.8 37.8 -4.35 37.9 -4.65 38.0 -4.8 38.15 -4.95 38.45 -5.05 38.65 -5.0 38.9 -5.0 39.05 -4.9 39.2 -4.75 39.3 -4.6 39.4 -4.45 39.5 -4.3 39.6 -4.05 39.65 -3.75 39.7 -3.6 39.75 -3.45 39.75 -3.05 39.75 -2.6 39.75 -2.35 39.75 -2.2 39.8 -2.05 39.8 -1.9 39.8 -1.75 39.85 -1.6 39.85 -1.5 39.85 -1.35 39.9 -1.05 40.0 -0.5 40.15 0.1 40.2 0.35 40.35 0.5 40.9 0.55 40.95 0.5 41.05 0.4 41.25 0.25 41.35 0.15 41.4 0.0 41.45 -0.15 41.45 -0.3 41.4 -0.45 41.4 -1.55 41.4 -2.85 41.4 -3.85 41.45 -4.0 41.45 -4.15 41.45 -4.25 41.5 -4.4 41.5 -4.55 41.5 -4.7 41.55 -4.85 41.55 -5.0 41.55 -5.15 41.6 -5.25 41.6 -5.4 41.6 -5.55 41.6 -5.7 41.75 -6.55 41.9 -7.4 42.05 -7.95 42.15 -8.1 42.2 -8.25 42.3 -8.4 42.5 -8.55 42.8 -8.65 43.15 -8.55 43.35 -8.4 43.45 -8.25 43.5 -8.1 43.6 -7.95 43.65 -7.8 43.65 -6.25 43.65 -4.15 43.65 -2.3 43.6 -2.0 43.5 -1.4 43.3 -0.85 43.25 -0.6 43.15 -0.45 43.1 -0.3 43.05 -0.15 43.0 0.0 42.95 0.15 42.85 0.25 42.95 0.7 43.05 1.15 43.15 1.4 43.2 1.55 43.3 1.7 43.75 1.7 43.85 1.7 44.0 1.6 44.35 1.2 44.55 0.9 44.65 0.75 44.7 0.6 44.8 0.45 44.85 0.3 44.95 0.2 45.0 0.05 45.05 -0.1 45.1 -0.25 45.2 -0.4 45.55 -1.7 46.05 -3.8 46.55 -5.65 46.55 -5.8 46.55 -5.95 46.6 -6.05 46.6 -6.2 46.6 -6.35 46.65 -6.5 46.65 -6.65 46.7 -6.8 46.7 -6.9 46.7 -7.05 46.75 -7.2 46.75 -7.35 46.75 -8.05 46.75 -8.75 46.75 -9.2 46.8 -9.35 46.9 -9.5 47.05 -9.6 47.35 -9.7 47.6 -9.65 47.75 -9.55 47.85 -9.45 47.95 -9.3 47.95 -9.15 47.95 -8.15 47.95 -7.0 47.95 -6.15 47.9 -5.9 47.85 -5.6 47.8 -5.3 47.75 -5.15 47.75 -5.05 47.75 -4.9 47.7 -4.75 47.7 -4.6 47.7 -4.45 47.7 -4.3 47.65 -4.2 47.65 -2.9 47.65 -1.5 47.65 -0.35 47.7 -0.2 47.7 -0.05 47.7 0.1 47.75 0.25 47.75 0.35 48.1 0.1 48.8 -0.75 49.2 -1.35 49.25 -1.5 49.35 -1.6 49.45 -1.9 49.5 -2.05 49.55 -2.2 49.6 -2.35 49.7 -2.45 49.75 -2.6 49.8 -2.75 49.85 -2.9 49.9 -3.05 49.95 -3.2 50.0 -3.35 50.1 -3.45 50.15 -3.6 50.2 -3.75 50.25 -3.9 50.35 -4.05 50.4 -4.2 50.5 -4.3 50.55 -4.45 50.6 -4.6 50.65 -4.75 50.7 -4.9 50.75 -5.05 50.8 -5.15 50.85 -5.3 50.95 -5.45 51.05 -5.75 51.15 -6.3 51.3 -6.85 51.4 -7.15 51.4 -7.3 51.4 -7.45 51.4 -7.6 51.4 -7.75 51.4 -7.85 51.45 -8.0 51.5 -8.15 51.5 -8.3 51.5 -8.45 51.5 -8.6 51.4 -8.7 51.5 -8.85 51.7 -8.85 51.9 -8.7 51.95 -8.6 51.95 -8.45 51.95 -8.3 51.95 -8.15 52.0 -8.0 52.05 -7.85 52.05 -7.75 52.05 -7.6 52.05 -7.45 52.05 -7.3 52.05 -7.15 52.1 -7.0 52.15 -6.9 52.15 -6.75 52.0 -6.15 51.95 -5.75 51.85 -5.45 51.85 -5.3 51.85 -5.15 51.8 -5.05 51.75 -4.9 51.7 -4.75 51.65 -4.6 51.55 -4.45 51.55 -4.3 51.5 -4.2 51.45 -4.05 51.35 -3.9 51.3 -3.6 51.25 -3.45 51.2 -3.35 51.15 -3.2 51.05 -3.05 50.8 -2.35 50.65 -1.75 50.5 -1.35 50.4 -1.2 50.35 -1.05 50.3 -0.9 50.25 -0.75 50.05 -0.5 49.0 0.8 48.1 1.8 47.8 1.9 47.35 1.85 47.1 1.85 47.0 1.75 46.85 1.6 46.7 1.45 46.6 1.3 46.55 1.15 46.55 1.05 46.55 0.9 46.55 0.75 46.5 0.6 46.5 0.45 46.45 0.3 46.45 0.2 46.4 0.2 46.3 0.3 46.25 0.45 46.2 0.6 46.15 0.75 46.1 0.9 46.05 1.05 45.95 1.15 45.9 1.3 45.7 1.6 45.05 2.45 44.3 3.0 43.95 3.1 43.45 3.1 42.85 2.95 42.5 2.85 42.35 2.7 42.2 2.55 42.15 2.4 42.05 2.25 41.95 2.1 41.9 2.0 41.85 1.85 41.75 1.7 41.7 1.7 41.45 1.85 41.1 1.95 39.95 1.85 39.85 1.85 39.35 1.45 39.15 1.15 39.05 1.05 39.0 0.9 38.9 0.75 38.85 0.6 38.7 -0.1 38.6 -0.8 38.5 -1.2 38.3 -0.2 38.1 0.95 37.8 1.8 37.5 2.25 37.1 2.65 36.85 2.9 36.6 3.05 36.2 3.2 35.8 3.3 35.55 3.25 35.45 3.2 35.35 3.1 34.95 2.7 34.75 2.4 34.65 2.25 34.6 2.1 34.55 2.0 34.5 1.85 34.5 1.75 34.45 1.9 34.35 2.0 34.3 2.15 34.25 2.3 34.15 2.45 33.5 3.0 33.05 3.3 32.6 3.45 32.2 3.55 31.45 3.55 31.1 3.45 30.85 3.3 30.6 3.15 30.45 3.0 30.4 2.9 30.3 2.75 30.2 2.6 30.1 2.45 30.1 2.3 30.05 2.15 29.95 2.0 29.9 1.9 29.9 1.75 29.85 1.6 29.8 1.45 29.8 1.3 29.8 0.45 29.8 -0.4 29.8 -0.95 29.85 -1.1 29.85 -1.25 29.85 -1.4 29.9 -1.55 29.95 -1.65 30.05 -1.8" fill="#333333" fill-rule="evenodd" stroke="none"/>
    <path d="M51.55 2.85 L51.65 2.7 51.85 2.55 52.1 2.45 52.25 2.5 52.4 2.6 52.45 2.75 52.45 2.9 52.45 3.0 52.5 3.15 52.5 3.3 52.5 3.45 52.5 3.6 52.6 3.75 52.6 3.85 52.6 4.15 52.6 4.45 52.6 4.7 52.6 4.85 52.65 5.0 52.65 5.15 52.4 6.45 51.75 8.4 51.25 10.1 50.95 10.55 49.9 11.8 48.9 12.8 48.65 12.95 48.1 13.2 47.8 13.35 47.15 13.3 46.95 13.3 46.75 13.2 46.3 12.9 46.15 12.75 46.05 12.65 45.85 12.35 45.75 12.2 45.65 12.05 45.6 11.9 45.5 11.8 45.45 11.65 45.4 11.5 45.35 11.35 45.3 11.2 45.25 11.05 45.2 10.95 45.2 10.65 45.2 10.35 45.2 10.2 45.2 10.05 45.15 10.1 45.1 10.2 44.7 10.6 44.4 11.05 44.15 11.35 43.35 11.75 42.25 12.05 42.0 12.0 41.9 11.95 41.75 11.85 41.55 11.7 41.35 11.6 41.25 11.45 41.15 11.15 41.0 10.6 40.85 10.05 40.8 9.75 40.8 8.6 40.8 7.45 40.8 6.65 40.8 6.8 40.6 7.35 40.4 7.95 40.3 8.25 40.3 8.35 40.3 8.5 40.25 8.65 40.15 8.8 40.1 8.95 40.05 9.1 39.95 9.2 39.95 9.35 39.9 9.5 39.8 9.65 39.75 9.8 39.7 9.95 39.6 10.05 39.55 10.2 39.5 10.35 39.4 10.5 39.35 10.65 39.25 10.8 39.2 10.95 39.1 11.05 39.05 11.2 38.75 11.65 38.5 11.9 38.35 12.05 37.85 12.3 37.5 12.45 36.95 12.4 36.7 12.4 36.5 12.3 36.25 12.15 36.05 12.0 35.95 11.85 35.9 11.75 35.8 11.6 35.75 11.45 35.7 11.3 35.6 11.15 35.55 11.0 35.45 10.9 35.4 10.75 35.35 10.6 35.25 10.45 35.2 10.3 35.15 10.15 35.05 10.05 35.05 9.9 35.0 9.75 34.95 9.6 34.9 9.5 34.7 9.8 34.15 10.35 33.7 10.65 33.35 10.75 32.4 10.7 32.15 10.7 31.8 10.45 31.15 9.9 30.95 9.6 30.9 9.45 30.8 9.3 30.7 9.05 30.65 8.75 30.6 8.6 30.55 8.45 30.55 8.3 30.55 7.45 30.55 6.6 30.55 6.05 30.6 5.75 30.75 5.2 30.95 4.65 31.0 4.35 31.1 4.2 31.3 4.05 31.65 3.95 32.0 4.0 32.25 4.0 32.45 4.1 32.6 4.25 32.7 4.4 32.8 4.55 32.8 4.7 32.85 4.8 32.9 4.95 32.9 5.1 32.9 5.25 32.85 5.4 32.85 5.65 32.85 5.95 32.85 6.25 32.85 6.4 32.8 6.65 32.7 7.1 32.65 7.35 32.65 7.5 32.55 7.65 32.4 7.8 32.3 7.95 32.2 8.1 32.15 8.25 32.1 8.4 32.05 8.5 32.1 8.65 32.15 8.8 32.25 8.95 32.35 9.05 32.5 9.2 33.2 9.25 33.25 9.2 33.4 9.15 33.5 9.0 33.6 8.85 33.7 8.7 33.75 8.55 33.8 8.4 33.9 8.25 34.15 7.3 34.4 6.15 34.65 5.3 34.75 5.15 34.95 5.0 35.3 4.9 35.45 4.9 35.7 4.95 35.8 5.0 35.95 5.1 36.1 5.25 36.15 5.4 36.2 5.55 36.2 6.65 36.2 7.8 36.2 8.65 36.25 8.95 36.35 9.35 36.45 9.65 36.5 9.8 36.6 9.95 36.65 10.05 36.75 10.2 36.85 10.35 36.9 10.5 37.0 10.65 37.05 10.8 37.1 10.95 37.5 10.95 37.6 10.8 37.75 10.65 37.8 10.5 37.9 10.35 37.95 10.2 38.05 10.05 38.1 9.95 38.15 9.8 38.2 9.65 38.25 9.5 38.35 9.35 38.4 9.2 38.45 9.1 38.55 8.95 38.6 8.8 38.65 8.65 38.75 8.5 38.8 8.35 38.85 8.25 38.95 8.1 39.2 7.25 39.6 6.1 39.9 5.25 39.95 5.1 40.0 4.95 40.05 4.8 40.15 4.7 40.2 4.55 40.25 4.4 40.35 4.25 40.45 4.1 40.6 3.95 40.9 3.85 41.1 3.9 41.35 3.9 41.55 4.0 41.65 4.15 41.75 4.3 41.85 4.6 42.05 5.15 42.2 5.7 42.25 6.0 42.25 7.3 42.25 8.55 42.25 9.55 42.35 9.85 42.4 10.1 42.45 10.4 42.5 10.55 42.6 10.6 42.95 10.5 43.2 10.35 43.4 10.2 43.5 10.1 43.8 9.65 44.0 9.35 44.1 9.2 44.15 9.1 44.25 8.95 44.3 8.8 44.35 8.65 44.4 8.5 44.8 7.25 45.2 5.65 45.5 4.4 45.5 4.25 45.5 4.1 45.55 3.95 45.65 3.4 45.75 2.85 45.85 2.55 45.95 2.4 46.1 2.25 46.4 2.15 46.4 2.2 46.75 2.25 46.95 2.4 47.05 2.55 47.05 2.7 47.05 2.85 47.05 2.95 47.05 3.1 47.05 3.25 47.05 3.4 47.0 3.7 46.95 3.95 46.9 4.25 46.85 4.4 46.85 4.55 46.85 4.7 46.8 4.8 46.8 4.95 46.8 5.1 46.8 5.25 46.75 5.55 46.7 5.8 46.65 6.1 46.6 6.25 46.6 6.4 46.6 6.5 46.55 6.65 46.55 6.8 46.5 6.95 46.5 8.25 46.5 9.5 46.5 10.5 46.55 10.65 46.6 10.8 46.65 10.95 46.7 11.05 46.75 11.2 46.85 11.35 46.9 11.5 47.0 11.65 47.05 11.8 47.25 11.9 47.7 11.95 47.8 11.9 48.15 11.65 49.35 10.35 50.1 9.4 50.45 8.4 50.8 7.3 51.1 6.45 51.2 6.3 51.25 6.15 51.35 5.55 51.5 5.15 51.55 4.85 51.55 4.6 51.55 4.3 51.55 4.0 51.55 3.85 51.6 3.75 51.65 3.6 51.65 3.45 51.65 3.35 51.4 3.35 51.25 3.25 51.25 3.1 51.4 3.0 51.55 2.85" fill="#333333" fill-rule="evenodd" stroke="none"/>
    <path d="M42.5 14.5 L42.55 14.6 42.7 14.7 42.8 14.85 42.9 15.0 42.9 15.15 42.9 15.3 42.9 15.4 42.9 15.55 43.0 15.7 43.0 15.85 43.0 16.15 43.0 16.3 43.0 16.4 43.0 16.55 43.0 16.7 43.05 16.85 43.05 17.0 43.05 17.15 43.05 17.25 42.95 17.4 42.9 17.55 42.85 17.7 42.8 17.85 42.75 18.0 42.7 18.1 42.6 18.25 42.6 18.4 42.5 18.55 42.45 18.7 42.35 18.85 42.25 18.95 42.2 19.1 42.15 19.25 40.95 20.35 Q39.15 21.55 37.0 21.15 L36.85 21.05 36.65 20.9 36.4 20.75 36.3 20.65 36.15 20.75 36.0 20.85 35.8 21.0 35.45 21.1 34.3 21.05 34.2 21.0 34.05 20.9 33.75 20.65 33.65 20.5 33.55 20.35 33.5 20.2 33.45 20.05 33.35 19.9 33.2 19.5 33.15 19.05 33.1 18.8 33.05 18.65 33.05 18.5 33.05 18.2 33.05 17.95 33.05 17.65 33.05 17.5 33.0 17.5 32.9 17.65 32.8 17.8 32.75 17.95 32.7 18.05 32.65 18.2 32.55 18.35 32.5 18.5 32.4 18.65 32.35 18.8 32.25 18.95 32.2 19.05 31.0 20.25 Q30.2 20.85 29.2 21.15 L28.4 21.15 28.2 21.1 28.05 21.0 27.85 20.85 27.8 20.75 27.75 20.6 27.65 20.45 27.6 20.3 27.55 20.15 27.5 20.0 27.45 19.85 27.4 19.75 27.35 19.6 27.35 19.3 27.35 19.15 27.35 19.0 27.35 18.9 27.35 18.75 27.4 18.6 27.4 18.45 27.4 18.3 27.45 18.15 27.45 18.05 27.55 17.9 27.7 17.75 27.8 17.6 28.0 17.45 28.3 17.35 28.5 17.4 28.6 17.45 28.75 17.55 29.05 17.7 29.15 17.85 29.2 18.0 29.15 18.1 29.05 18.25 28.8 18.35 28.75 18.4 28.75 18.5 28.75 18.65 28.75 18.8 28.75 18.95 28.75 19.05 28.75 19.2 28.8 19.35 28.85 19.5 28.95 19.65 29.2 19.65 29.45 19.5 30.5 18.8 31.0 18.2 31.05 18.05 31.15 17.95 31.2 17.8 31.3 17.65 31.35 17.5 31.6 17.2 31.9 16.8 32.05 16.5 32.15 16.35 32.2 16.25 32.3 16.1 32.4 15.95 32.45 15.8 32.55 15.65 32.65 15.5 32.7 15.4 32.8 15.25 32.85 15.1 32.9 14.95 33.0 14.8 33.1 14.65 33.2 14.5 33.4 14.4 33.7 14.3 33.75 14.3 33.95 14.35 34.15 14.45 34.3 14.55 34.35 14.7 34.4 14.85 34.4 15.15 34.4 16.3 34.4 17.4 34.4 18.4 34.5 18.85 34.6 19.25 34.65 19.55 34.7 19.7 35.2 19.7 35.25 19.65 35.35 19.5 35.5 19.35 35.6 19.2 35.6 19.05 35.6 18.8 35.6 17.8 35.6 16.8 35.6 16.1 35.65 15.95 35.7 15.8 35.75 15.65 35.75 15.5 35.75 15.4 35.8 15.25 35.9 15.1 36.1 14.95 36.35 14.85 36.7 14.95 36.85 15.1 36.95 15.25 37.0 15.4 37.0 15.5 37.0 15.8 37.0 16.1 37.0 16.25 37.0 16.35 37.05 16.5 37.05 16.95 37.05 17.65 37.05 18.35 37.05 18.8 37.0 18.95 37.0 19.05 37.0 19.2 36.95 19.35 37.05 19.5 37.15 19.65 37.25 19.75 37.35 19.9 38.9 19.95 39.1 19.9 39.35 19.85 39.65 19.75 40.15 19.45 40.45 19.3 40.6 19.15 40.85 18.9 41.15 18.6 41.25 18.45 41.3 18.3 41.4 18.15 41.5 18.05 41.55 17.9 41.6 17.75 41.7 17.6 41.7 17.45 41.75 17.3 41.8 17.15 41.85 17.05 41.95 16.9 41.95 16.75 41.95 16.45 41.95 16.3 41.95 16.2 41.95 16.05 41.95 15.9 42.0 15.75 42.05 15.6 42.05 15.45 42.05 15.35 42.05 15.2 42.0 15.05 41.9 14.9 41.85 14.75 41.9 14.6 42.0 14.5 42.25 14.4 42.45 14.45 42.5 14.5" fill="#333333" fill-rule="evenodd" stroke="none"/>
    <path d="M14.05 -1.0 L14.1 -1.15 14.15 -1.3 14.25 -1.45 14.35 -1.55 14.5 -1.7 14.85 -1.8 14.95 -1.8 15.2 -1.75 15.3 -1.7 15.45 -1.6 15.55 -1.5 15.6 -1.35 15.65 -1.2 15.65 -1.05 15.65 -0.05 15.65 0.8 15.65 1.35 15.6 1.5 15.6 1.65 15.6 1.8 15.6 1.95 15.55 2.05 15.55 2.2 15.55 2.35 15.55 2.5 15.25 3.65 14.8 5.2 14.4 6.35 14.3 6.45 14.25 6.6 14.2 6.75 14.1 6.9 14.05 7.05 14.0 7.2 14.0 7.45 14.0 8.2 14.0 8.75 14.0 9.05 14.0 9.15 14.05 9.3 14.05 9.45 14.1 9.6 14.65 9.6 14.9 9.45 15.25 8.85 15.9 8.0 16.25 7.6 16.3 7.45 16.4 7.35 16.45 7.2 16.55 7.05 16.6 6.9 16.7 6.75 16.7 6.6 16.8 6.45 17.1 5.35 17.5 4.05 17.75 3.2 17.75 1.95 17.75 0.5 17.75 -0.65 17.8 -0.75 17.8 -0.9 17.8 -1.05 17.85 -1.2 17.85 -1.35 17.9 -1.5 17.9 -1.6 17.9 -1.75 17.9 -1.9 17.9 -2.05 17.9 -2.2 17.95 -2.35 18.05 -2.45 18.15 -2.6 18.25 -2.75 18.45 -2.9 18.75 -3.0 18.75 -2.95 19.0 -2.95 19.1 -2.9 19.25 -2.8 19.35 -2.65 19.4 -2.5 19.4 -2.4 19.4 -1.1 19.4 0.3 19.4 1.45 19.4 1.6 19.4 1.75 19.4 1.9 19.35 2.0 19.35 2.15 19.35 2.3 19.3 2.45 19.3 2.6 19.3 2.75 19.25 2.9 19.2 3.0 19.2 3.15 19.15 3.3 19.1 3.45 19.1 4.6 19.1 5.7 19.1 6.45 19.15 6.55 19.15 6.7 19.15 6.85 19.2 7.0 19.2 7.15 19.2 7.3 19.3 7.7 19.4 8.15 19.5 8.4 19.55 8.55 19.65 8.7 19.7 8.85 19.8 9.0 19.9 9.15 19.95 9.25 20.1 9.4 20.65 9.4 21.15 8.85 21.5 8.25 21.7 8.0 22.05 6.85 22.4 5.55 22.65 4.6 22.65 4.3 22.65 4.15 22.65 4.0 22.65 3.85 22.65 3.75 22.7 3.6 22.7 3.45 22.7 3.3 22.75 3.15 22.75 3.0 22.75 2.9 22.8 2.75 22.8 2.6 22.8 2.45 22.85 2.3 22.85 2.15 22.85 2.0 22.85 1.9 22.9 1.75 22.9 1.6 22.95 1.45 22.95 1.3 22.95 1.15 22.95 1.05 23.0 0.9 23.05 0.75 23.05 0.6 23.05 0.3 23.05 -0.25 23.05 -0.65 23.05 -0.95 23.1 -1.1 23.15 -1.25 23.25 -1.4 23.4 -1.55 23.75 -1.6 24.05 -1.55 24.25 -1.4 24.35 -1.25 24.4 -1.1 24.4 0.2 24.4 1.6 24.4 2.75 24.35 2.9 24.25 3.75 24.1 4.45 23.95 4.85 23.95 5.15 23.95 6.0 23.95 6.7 23.95 7.15 24.0 7.3 24.05 7.4 24.05 7.55 24.1 7.7 24.1 7.85 24.1 8.0 24.1 8.15 24.15 8.25 24.15 8.55 24.15 8.7 24.15 8.85 24.15 9.0 24.15 9.15 24.2 9.25 24.25 9.4 24.35 9.55 24.4 9.7 24.5 9.85 25.3 9.85 25.5 9.7 25.65 9.55 26.05 9.0 26.6 8.3 26.85 7.85 26.9 7.7 27.05 7.15 27.1 6.7 27.2 6.45 27.2 6.3 27.2 6.15 27.25 6.0 27.25 5.85 27.25 5.7 27.25 5.55 27.3 5.45 27.3 5.3 27.3 5.15 27.35 5.0 27.35 4.85 27.35 4.7 27.35 4.6 27.35 4.45 27.4 4.3 27.45 4.15 27.45 4.0 27.45 3.15 27.45 2.3 27.45 1.75 27.4 1.6 27.4 1.45 27.4 1.3 27.4 1.15 27.35 1.05 27.35 0.9 27.35 0.75 27.3 0.6 27.3 0.3 27.3 -0.25 27.3 -0.8 27.3 -1.1 27.25 -1.25 27.2 -1.4 27.1 -1.55 27.0 -1.65 26.75 -1.6 26.7 -1.55 26.7 -1.4 26.55 -1.3 26.45 -1.4 26.45 -1.55 26.4 -1.65 26.4 -1.8 26.35 -1.95 26.45 -2.1 26.55 -2.25 26.65 -2.4 26.9 -2.45 27.1 -2.5 27.4 -2.45 27.65 -2.35 27.75 -2.3 27.85 -2.2 27.95 -2.05 28.05 -1.9 28.1 -1.75 28.15 -1.6 28.2 -1.5 28.3 -1.35 28.35 -1.2 28.4 -1.05 28.4 -0.9 28.4 -0.5 28.4 -0.05 28.4 0.2 28.4 0.35 28.45 0.5 28.45 0.65 28.45 0.8 28.5 0.95 28.5 1.1 28.5 1.2 28.55 1.35 28.55 1.5 28.55 1.65 28.55 1.8 28.6 1.95 28.65 2.05 28.65 2.2 28.65 2.9 28.65 3.65 28.65 4.05 28.7 4.2 28.7 4.35 28.7 4.5 28.7 4.65 28.7 4.75 28.65 4.9 28.65 5.05 28.65 5.2 28.6 5.35 28.6 5.5 28.6 5.6 28.6 5.75 28.55 5.9 28.55 6.05 28.55 6.2 28.55 6.35 28.55 6.5 28.35 7.3 28.2 8.05 28.1 8.45 27.9 8.75 26.85 10.15 25.7 11.15 25.4 11.25 24.25 11.25 23.9 11.15 23.75 11.0 23.5 10.75 23.4 10.6 23.25 10.45 23.2 10.3 23.1 10.15 23.05 10.05 22.95 9.9 22.95 9.75 22.9 9.6 22.85 9.45 22.85 9.3 22.85 9.15 22.85 9.05 22.85 8.9 22.85 8.75 22.8 8.75 22.7 8.9 22.65 9.05 22.55 9.15 21.8 10.15 20.65 10.85 20.1 10.75 19.65 10.7 19.4 10.6 19.2 10.45 18.85 10.05 18.65 9.75 18.55 9.6 18.5 9.45 18.45 9.3 18.4 9.15 18.35 9.05 18.25 8.9 18.15 8.6 17.95 8.05 17.85 7.6 17.8 7.45 17.75 7.6 17.65 7.75 17.6 7.9 17.55 8.05 17.5 8.2 17.45 8.3 17.4 8.45 16.95 9.05 16.25 10.05 15.8 10.6 15.5 10.75 14.9 11.0 14.6 11.1 13.65 11.1 13.3 11.0 13.15 10.9 13.05 10.75 12.95 10.6 12.9 10.45 12.8 10.3 12.7 9.9 12.6 9.6 12.55 9.3 12.55 9.15 12.4 9.3 11.5 10.0 10.6 10.35 9.45 10.15 8.95 9.9 8.85 9.75 8.65 9.45 8.55 9.3 8.45 9.15 8.4 9.05 8.3 8.9 8.25 8.75 8.15 8.6 8.1 8.45 8.05 8.3 8.0 8.2 8.0 8.05 8.0 7.75 8.0 7.45 8.0 7.35 8.0 7.2 7.95 7.05 7.95 6.9 7.95 6.75 7.9 6.6 7.9 6.45 7.9 6.35 7.85 6.35 7.8 6.45 7.8 6.6 7.75 6.75 7.65 6.9 7.6 7.05 7.4 7.3 6.65 8.15 6.0 8.75 5.7 8.85 4.55 8.8 4.25 8.75 4.1 8.65 3.95 8.5 3.9 8.35 3.8 8.25 3.75 8.1 3.65 7.95 3.6 7.8 3.55 7.65 3.5 7.5 3.5 7.35 3.5 7.1 3.5 6.8 3.5 6.65 3.5 6.5 3.55 6.4 3.55 6.25 3.55 6.1 3.55 5.95 3.55 5.8 3.6 5.65 3.65 5.55 3.75 5.4 3.95 5.25 4.0 5.1 4.1 4.95 4.15 4.8 4.25 4.7 4.55 4.6 4.8 4.65 4.85 4.7 5.0 4.75 5.05 4.9 5.1 5.05 5.1 5.2 5.05 5.35 5.0 5.5 4.95 5.6 4.9 5.75 4.9 5.9 4.9 6.05 4.9 6.2 4.9 6.35 4.95 6.45 4.95 6.6 4.95 6.75 4.95 6.9 4.95 7.05 4.95 7.2 5.0 7.35 5.45 7.35 5.85 6.95 6.2 6.45 6.4 6.2 6.45 6.05 6.5 5.9 6.55 5.75 6.65 5.6 6.9 4.5 7.15 3.35 7.35 2.65 7.45 2.5 7.65 2.35 7.95 2.25 8.2 2.3 8.3 2.35 8.45 2.45 8.6 2.6 8.7 2.75 8.8 2.9 8.9 3.15 9.1 3.75 9.2 4.15 9.3 4.45 9.3 4.6 9.3 5.0 9.3 5.45 9.3 5.7 9.3 5.85 9.35 6.0 9.35 6.15 9.35 6.3 9.4 6.45 9.4 6.55 9.4 6.7 9.45 6.85 9.45 7.0 9.45 7.3 9.45 7.55 9.45 7.7 9.45 7.85 9.5 8.0 9.55 8.15 9.6 8.25 9.65 8.4 9.75 8.55 9.85 8.7 9.95 8.85 10.5 8.9 11.15 8.5 11.45 8.25 11.6 8.1 12.0 7.5 12.3 7.1 12.5 6.8 12.55 6.65 12.55 6.25 12.55 5.8 12.55 5.55 12.55 5.4 13.0 3.7 13.6 1.1 14.05 -1.0" fill="#333333" fill-rule="evenodd" stroke="none"/>
    <path d="M15.6 -16.3 L15.55 -16.25 15.55 -16.1 15.5 -15.95 15.5 -15.85 15.45 -15.7 15.45 -15.55 15.45 -15.4 15.4 -15.25 15.4 -15.1 15.35 -14.95 15.35 -14.85 15.35 -14.7 15.3 -14.55 15.3 -14.4 15.3 -14.25 15.25 -14.1 15.25 -12.85 15.25 -10.85 15.25 -8.85 15.3 -8.7 15.3 -8.6 15.35 -8.45 15.4 -8.45 15.5 -8.85 15.65 -9.45 15.85 -10.0 15.85 -11.15 15.85 -12.7 15.85 -14.25 15.8 -14.4 15.8 -14.55 15.8 -14.7 15.75 -14.85 15.75 -14.95 15.75 -15.1 15.75 -15.25 15.7 -15.4 15.7 -15.55 15.7 -15.7 15.65 -15.85 15.65 -15.95 15.65 -16.1 15.6 -16.25 15.6 -16.3 M15.8 -19.1 L16.0 -19.05 16.2 -18.95 16.35 -18.8 16.45 -18.65 16.65 -18.1 16.8 -17.55 16.85 -17.1 16.85 -16.95 16.85 -16.8 16.9 -16.7 16.95 -16.55 16.95 -16.4 16.95 -16.25 16.95 -16.1 17.0 -15.95 17.0 -15.85 17.0 -15.7 17.05 -15.55 17.05 -15.4 17.05 -15.25 17.05 -15.1 17.1 -14.95 17.1 -14.85 17.1 -14.7 17.15 -14.55 17.15 -13.25 17.15 -11.4 17.15 -9.7 16.95 -8.85 16.55 -7.6 16.25 -6.45 17.45 -6.45 17.9 -6.6 18.2 -6.7 18.7 -7.1 19.05 -7.4 19.25 -7.7 19.75 -8.25 20.1 -8.7 20.15 -8.8 20.25 -8.95 20.3 -9.1 20.3 -9.25 20.4 -9.4 20.45 -9.55 20.5 -9.65 20.5 -10.25 20.5 -10.95 20.5 -11.5 20.55 -11.65 20.55 -11.8 20.55 -12.35 20.55 -12.95 20.55 -13.35 20.5 -13.5 20.5 -13.65 20.5 -13.8 20.5 -13.95 20.45 -14.05 20.4 -14.2 20.4 -14.35 20.4 -14.5 20.35 -14.65 20.35 -14.8 20.35 -14.95 20.35 -15.05 20.3 -15.2 20.35 -15.35 20.35 -15.5 20.25 -16.05 20.2 -16.5 20.05 -16.9 20.05 -17.05 20.05 -17.2 20.05 -17.35 20.05 -17.5 20.0 -17.65 20.0 -17.75 20.0 -17.9 19.95 -18.05 19.95 -18.2 19.95 -18.35 19.9 -18.5 19.85 -18.6 19.85 -18.75 19.8 -18.9 19.85 -19.05 19.9 -19.2 20.15 -19.3 20.15 -19.25 20.3 -19.2 20.4 -19.15 20.6 -18.6 20.75 -18.15 20.8 -17.7 20.8 -17.6 20.8 -17.45 20.95 -16.85 21.1 -16.3 21.2 -15.75 21.3 -15.6 21.35 -15.45 21.4 -15.3 21.4 -15.15 21.4 -15.0 21.45 -14.9 21.45 -14.75 21.45 -14.6 21.5 -14.45 21.5 -14.3 21.5 -14.15 21.55 -14.05 21.55 -13.9 21.55 -13.75 21.6 -13.6 21.6 -13.05 21.6 -12.3 21.6 -11.75 21.65 -11.6 21.65 -10.9 21.65 -10.05 21.65 -9.35 21.6 -9.2 21.5 -9.05 21.45 -8.9 21.4 -8.75 21.3 -8.65 21.25 -8.5 21.2 -8.35 21.15 -8.2 21.1 -8.05 21.05 -7.9 21.0 -7.8 19.95 -6.65 18.95 -5.65 18.75 -5.5 18.05 -5.25 17.25 -5.05 16.3 -5.05 15.9 -5.15 15.7 -5.15 14.85 -3.95 Q13.7 -2.6 11.95 -2.35 L11.55 -2.4 Q11.05 -2.55 10.65 -2.85 L10.55 -3.0 10.5 -3.15 10.4 -3.3 10.3 -3.7 10.15 -4.15 10.1 -4.4 10.1 -4.55 10.1 -4.7 10.1 -4.85 10.1 -5.0 10.1 -5.15 9.75 -5.0 9.1 -4.8 8.7 -4.8 8.5 -4.85 8.4 -4.9 8.15 -5.15 7.9 -5.4 7.8 -5.55 7.8 -5.7 7.7 -5.85 7.6 -6.1 7.55 -6.25 7.5 -6.4 7.45 -6.55 6.85 -6.2 6.25 -5.95 5.5 -5.95 5.15 -6.05 4.3 -6.3 4.15 -6.45 3.9 -6.6 3.7 -6.75 3.6 -6.9 3.55 -7.0 3.45 -7.3 3.35 -7.6 3.3 -7.85 3.3 -8.0 3.3 -8.3 3.3 -8.6 3.3 -8.7 3.35 -8.85 3.35 -9.0 3.4 -9.15 3.5 -9.3 3.55 -9.45 3.65 -9.6 3.75 -9.7 3.9 -9.85 4.4 -10.0 4.75 -10.1 5.0 -10.05 5.1 -10.0 5.15 -9.9 5.25 -9.75 5.3 -9.6 5.3 -9.5 5.3 -9.35 5.2 -9.2 5.1 -9.05 4.85 -8.9 4.75 -8.75 4.7 -8.65 4.7 -8.5 4.7 -8.35 4.7 -8.2 4.75 -8.05 4.8 -7.9 4.8 -7.8 4.9 -7.65 5.2 -7.5 5.45 -7.4 6.1 -7.4 6.3 -7.5 6.45 -7.65 6.6 -7.8 6.7 -7.9 6.8 -8.05 6.9 -8.65 7.15 -9.45 7.35 -10.2 7.45 -10.35 7.65 -10.5 7.95 -10.55 8.3 -10.5 8.5 -10.35 8.65 -10.2 8.7 -10.05 8.7 -9.35 8.7 -8.35 8.7 -7.5 8.7 -7.35 8.8 -7.05 8.9 -6.8 8.95 -6.5 9.05 -6.35 9.15 -6.25 9.4 -6.3 9.6 -6.45 9.75 -6.6 9.9 -6.75 10.0 -6.9 10.1 -7.0 10.1 -7.15 10.1 -7.3 10.15 -7.45 10.15 -7.6 10.2 -7.75 10.2 -7.85 10.2 -8.0 10.25 -8.15 10.25 -8.3 10.25 -8.45 10.3 -8.6 10.35 -8.7 10.4 -8.85 10.4 -9.0 10.4 -9.15 10.45 -9.45 10.45 -9.6 10.5 -9.7 10.5 -9.85 10.5 -10.0 10.5 -10.15 10.55 -10.3 10.55 -10.45 10.55 -10.55 10.6 -10.7 10.6 -10.85 10.6 -11.0 10.65 -11.15 10.65 -11.3 10.65 -11.4 10.65 -11.55 10.75 -12.0 10.8 -12.4 10.9 -12.7 10.9 -12.85 10.9 -13.0 10.9 -13.15 10.9 -13.25 10.95 -13.4 11.0 -13.55 11.1 -13.7 11.25 -13.85 11.55 -13.95 11.75 -13.9 12.0 -13.9 12.1 -13.85 12.25 -13.75 12.3 -13.6 12.4 -13.45 12.4 -13.3 12.4 -12.2 12.4 -10.5 12.4 -8.9 12.3 -8.5 12.15 -7.9 12.0 -7.5 11.9 -7.35 11.8 -7.2 11.7 -7.05 11.65 -6.9 11.55 -6.8 11.5 -6.65 11.5 -5.95 11.5 -5.2 11.5 -4.65 11.6 -4.35 11.6 -4.25 11.65 -4.1 11.65 -3.95 11.9 -3.85 12.2 -3.85 12.8 -4.1 13.1 -4.25 13.25 -4.35 14.0 -5.2 14.5 -5.95 14.55 -6.05 14.5 -6.2 14.4 -6.35 14.2 -7.05 14.05 -7.9 13.95 -8.65 13.95 -10.2 13.95 -12.3 13.95 -14.45 14.0 -14.6 14.0 -14.75 14.0 -14.9 14.0 -15.0 14.05 -15.15 14.05 -15.3 14.05 -15.45 14.05 -15.6 14.1 -15.75 14.1 -15.85 14.1 -16.0 14.3 -16.7 14.5 -17.7 14.7 -18.55 14.8 -18.7 14.9 -18.85 15.0 -19.0 15.35 -19.1 15.8 -19.1" fill="#333333" fill-rule="evenodd" stroke="none"/>
    <path d="M-14.2 -0.15 L-14.25 -0.05 -14.35 0.1 -14.4 0.2 -14.4 0.35 -14.4 0.65 -14.4 0.8 -14.4 0.95 -14.4 1.1 -14.4 1.2 -13.95 1.25 -13.6 1.15 -13.3 1.0 -13.1 0.9 -13.0 0.75 -12.9 0.6 -12.8 0.45 -12.75 0.3 -12.95 0.15 -13.1 0.05 -13.3 -0.1 -13.65 -0.15 -13.85 -0.2 -14.1 -0.2 -14.2 -0.15 M1.15 -13.55 L1.2 -13.4 1.35 -13.25 1.4 -13.15 1.5 -13.0 1.55 -12.85 1.55 -12.7 1.65 -12.55 1.75 -12.4 1.8 -12.3 1.85 -12.15 1.85 -12.0 1.85 -11.85 1.9 -11.7 1.9 -11.55 1.95 -11.4 1.95 -11.3 1.95 -11.15 2.0 -11.0 2.0 -10.45 2.0 -9.85 2.0 -9.45 2.05 -9.3 2.05 -8.7 2.05 -8.0 2.05 -7.45 2.1 -7.3 2.1 -6.75 2.1 -6.05 2.1 -5.45 2.15 -5.3 2.15 -5.15 2.15 -5.05 2.15 -4.9 2.15 -4.75 2.1 -4.6 2.1 -4.45 2.1 -4.3 2.05 -4.2 2.05 -4.05 2.05 -3.9 2.05 -3.75 2.0 -3.6 2.0 -3.45 2.0 -3.35 2.0 -3.2 1.8 -2.3 1.5 -1.5 1.35 -0.75 1.25 -0.65 1.2 -0.5 1.15 -0.35 1.05 -0.2 1.0 -0.05 0.95 0.1 0.85 0.2 0.8 0.35 0.75 0.5 0.65 0.65 0.65 0.8 0.55 0.95 -0.5 2.05 -1.65 3.05 -1.9 3.2 -2.05 3.35 -2.2 3.5 -2.5 3.6 -3.2 3.85 -3.6 3.85 -3.8 3.8 -3.95 3.75 -4.2 3.6 -4.4 3.45 -4.5 3.3 -4.55 3.15 -4.55 3.0 -4.6 2.9 -4.6 2.8 -4.7 2.85 -4.85 2.95 -5.0 3.1 -5.25 3.25 -5.65 3.4 -6.05 3.5 -6.5 3.5 -6.55 3.65 -6.6 3.8 -6.65 3.9 -6.7 4.05 -6.8 4.2 -6.85 4.35 -6.95 4.5 -7.0 4.65 -7.1 4.75 -7.15 4.9 -7.25 5.05 -7.3 5.2 -7.9 5.75 Q-8.6 6.3 -9.45 6.55 L-10.05 6.55 -10.25 6.5 -10.4 6.4 -10.6 6.3 -10.8 6.0 -10.95 5.7 -11.05 5.55 -11.1 5.45 -11.2 5.3 -11.25 5.15 -11.35 5.0 -11.4 4.85 -11.45 4.7 -11.5 4.6 -11.55 4.45 -11.55 4.3 -11.55 4.15 -11.6 4.0 -11.6 3.85 -11.6 3.75 -11.65 3.6 -11.65 3.0 -11.65 2.45 -11.65 2.0 -11.65 1.9 -11.7 1.75 -11.75 1.6 -11.8 1.5 -11.85 1.65 -11.95 1.8 -12.1 1.95 -12.25 2.05 -13.1 2.45 -15.45 2.55 -15.65 2.4 -15.75 2.25 -15.85 2.1 -15.9 2.0 -15.9 1.85 -15.9 1.25 -15.9 0.55 -15.9 0.0 -15.85 -0.15 -15.8 -0.3 -15.75 -0.45 -15.65 -0.55 -15.55 -0.75 -15.4 -0.85 -15.4 -1.0 -15.25 -1.15 -14.75 -1.45 -14.5 -1.55 -14.2 -1.65 -13.85 -1.55 -13.4 -1.45 -13.1 -1.35 -12.95 -1.25 -12.85 -1.1 -12.75 -0.95 -12.75 -0.8 -12.65 -0.65 -12.45 -0.55 -12.25 -0.45 -12.15 -0.5 -12.1 -0.65 -12.1 -0.75 -12.05 -0.9 -12.05 -1.05 -12.05 -1.2 -12.05 -1.35 -12.05 -1.5 -12.05 -1.6 -12.0 -1.75 -11.95 -1.9 -11.85 -2.05 -11.7 -2.2 -11.35 -2.3 -11.0 -2.2 -10.85 -2.05 -10.7 -1.9 -10.65 -1.75 -10.65 -1.6 -10.65 -1.5 -10.65 -1.35 -10.6 -1.2 -10.55 -1.05 -10.5 -0.9 -10.45 -0.75 -10.4 -0.65 -10.4 -0.5 -10.4 -0.05 -10.4 0.35 -10.4 0.65 -10.35 0.8 -10.35 0.95 -10.3 1.1 -10.3 1.2 -10.25 1.35 -10.25 1.5 -10.25 1.65 -10.2 1.8 -10.2 2.35 -10.2 2.9 -10.2 3.35 -10.15 3.5 -10.15 3.65 -10.15 3.8 -10.15 3.9 -10.1 4.05 -10.1 4.2 -10.05 4.35 -10.0 4.5 -9.95 4.65 -9.85 4.75 -9.8 4.9 -9.7 5.05 -9.4 5.05 -8.75 4.6 -8.45 4.35 -8.4 4.2 -8.3 4.05 -8.25 3.9 -8.2 3.8 -8.15 3.65 -8.05 3.5 -7.9 3.05 -7.75 2.65 -7.7 2.35 -7.75 2.2 -7.85 1.95 -7.9 1.65 -7.95 1.5 -7.95 1.35 -7.95 1.2 -8.0 1.1 -8.0 -0.2 -8.0 -1.9 -8.0 -3.45 -7.85 -4.05 -7.7 -4.6 -7.6 -5.05 -7.6 -5.15 -7.6 -5.3 -7.6 -5.45 -7.55 -5.6 -7.55 -5.75 -7.5 -5.9 -7.45 -6.05 -7.45 -6.15 -7.45 -6.45 -7.45 -6.75 -7.45 -6.9 -7.4 -7.0 -7.35 -7.15 -7.25 -7.3 -7.15 -7.45 -6.8 -7.55 -6.55 -7.55 -6.35 -7.5 -6.25 -7.45 -6.1 -7.35 -6.0 -7.2 -5.95 -7.05 -5.9 -6.9 -5.9 -6.65 -5.9 -6.35 -5.9 -6.05 -5.9 -5.95 -5.85 -5.8 -5.85 -5.65 -5.85 -5.5 -5.85 -5.35 -5.8 -5.2 -5.8 -5.1 -5.8 -4.95 -5.75 -4.8 -5.75 -3.5 -5.75 -1.8 -5.75 -0.25 -5.75 -0.1 -5.7 0.05 -5.8 0.75 -5.95 1.45 -6.05 2.0 -5.95 2.05 -5.75 2.0 -5.6 1.85 -5.5 1.7 -5.35 1.55 -5.3 1.4 -5.2 1.25 -5.1 1.1 -5.05 1.0 -4.95 0.85 -4.9 0.7 -4.85 0.55 -4.8 0.4 -4.7 0.25 -4.7 0.15 -4.65 0.0 -4.6 -0.15 -4.6 -0.3 -4.6 -0.6 -4.6 -0.85 -4.6 -1.0 -4.55 -1.15 -4.55 -1.3 -4.55 -1.45 -4.55 -1.55 -4.5 -1.7 -4.5 -1.85 -4.5 -2.0 -4.5 -2.15 -4.45 -2.3 -4.45 -2.45 -4.45 -2.55 -4.2 -3.25 -4.05 -4.0 -3.95 -4.55 -3.95 -4.7 -3.95 -4.85 -3.95 -5.0 -3.9 -5.1 -3.85 -5.25 -3.85 -5.4 -3.85 -5.55 -3.7 -6.1 -3.55 -6.7 -3.45 -7.1 -3.45 -7.25 -3.45 -7.7 -3.45 -7.95 -3.45 -8.25 -3.4 -8.4 -3.3 -8.55 -3.1 -8.7 -2.85 -8.75 -2.5 -8.7 -2.35 -8.55 -2.25 -8.4 -2.2 -8.25 -2.2 -6.85 -2.2 -5.15 -2.2 -3.55 -2.4 -2.7 -2.6 -1.85 -2.8 -1.15 -2.9 -1.0 -2.9 -0.85 -3.0 -0.6 -3.1 -0.3 -3.15 0.0 -3.25 0.15 -3.25 0.25 -3.25 0.4 -3.25 1.1 -3.25 1.85 -3.25 2.4 Q-2.25 2.15 -1.5 1.35 L-0.5 0.2 -0.45 0.1 -0.35 -0.05 -0.3 -0.2 -0.25 -0.35 -0.2 -0.5 -0.15 -0.65 -0.1 -0.75 0.0 -0.9 0.05 -1.05 0.1 -1.2 0.2 -1.35 0.25 -1.5 0.35 -1.6 0.5 -2.2 0.7 -2.9 0.85 -3.45 0.85 -3.6 0.85 -3.75 0.85 -3.9 0.9 -4.05 0.9 -4.2 0.9 -4.3 0.9 -4.45 0.95 -4.6 0.95 -4.75 0.95 -4.9 1.0 -5.05 1.0 -5.15 1.05 -5.3 1.05 -5.45 1.05 -6.05 1.05 -6.75 1.05 -7.3 1.1 -7.45 1.1 -7.6 1.1 -8.15 1.1 -8.7 1.1 -9.15 1.15 -9.3 1.15 -9.85 1.15 -10.45 1.15 -10.85 1.1 -11.0 1.1 -11.15 1.05 -11.3 1.05 -11.4 1.05 -11.55 1.0 -11.7 1.0 -11.85 0.95 -12.0 0.95 -12.15 0.95 -12.2 0.85 -12.1 0.65 -12.15 0.65 -12.3 0.65 -12.4 0.65 -12.55 0.65 -12.7 0.65 -12.85 0.65 -13.0 0.6 -13.15 0.55 -13.25 0.45 -13.4 0.5 -13.55 0.55 -13.7 0.75 -13.8 0.8 -13.75 1.0 -13.7 1.15 -13.55" fill="#333333" fill-rule="evenodd" stroke="none"/>
    <path d="M23.75 12.15 L23.8 12.0 23.85 11.85 24.05 11.8 24.25 11.8 24.45 11.85 24.65 11.95 24.7 12.1 24.65 12.25 24.5 12.4 24.5 12.55 24.5 12.7 24.45 12.8 24.4 12.95 24.4 13.1 24.4 13.25 24.4 13.4 24.35 13.65 24.2 14.1 24.1 14.4 24.05 14.5 24.05 14.65 24.05 14.8 24.0 14.95 24.0 15.1 24.0 15.25 23.95 15.4 23.95 15.5 23.95 15.65 23.9 15.8 23.9 15.95 23.9 16.1 23.9 16.25 23.9 16.35 23.85 16.65 23.7 17.2 23.6 17.8 23.5 18.05 23.4 18.2 23.35 18.35 23.25 18.5 23.2 18.65 23.15 18.8 23.05 18.95 23.0 19.05 22.95 19.2 22.9 19.35 22.8 19.5 22.75 19.65 22.65 19.8 22.6 19.9 22.5 20.05 22.45 20.2 22.1 20.6 21.6 21.05 21.4 21.2 20.85 21.35 Q19.7 21.65 18.6 21.35 L18.5 21.25 18.3 21.15 18.3 21.2 18.15 21.6 18.0 22.05 17.95 22.35 17.9 22.5 17.5 22.9 17.05 23.35 16.9 23.45 16.65 23.6 16.1 23.9 15.8 24.0 14.85 24.05 14.55 24.0 14.35 23.9 13.25 23.25 12.85 22.75 12.75 22.5 12.6 21.9 12.5 21.35 12.45 21.2 12.35 21.35 12.25 21.5 12.15 21.65 12.0 21.75 11.7 21.9 11.15 22.15 10.8 22.3 10.05 22.3 9.7 22.2 9.3 21.9 8.75 21.35 8.55 21.05 8.5 20.9 8.4 20.75 8.35 20.65 8.3 20.55 8.2 20.7 8.15 20.8 8.05 20.95 7.95 21.1 7.9 21.25 7.7 21.55 7.55 21.65 7.35 21.8 7.0 21.9 6.9 21.9 6.65 21.85 6.55 21.8 6.4 21.7 6.3 21.6 6.2 21.45 6.2 21.3 6.15 21.15 6.2 21.0 6.25 20.85 6.35 20.75 6.4 20.6 6.5 20.45 6.7 20.3 6.9 20.15 6.9 20.0 7.0 19.85 7.05 19.75 7.15 19.6 7.2 19.45 7.25 19.3 7.3 19.15 7.35 19.0 7.45 18.9 7.5 18.6 7.55 18.15 7.6 17.9 7.65 17.75 7.65 17.45 7.65 16.9 7.65 16.3 7.65 16.05 7.7 15.9 7.75 15.75 7.8 15.6 8.0 15.45 8.35 15.4 8.6 15.4 8.75 15.5 8.9 15.65 9.0 15.8 9.05 15.95 9.05 16.1 9.05 16.25 9.05 16.35 9.05 16.5 9.1 16.65 9.15 16.8 9.2 16.95 9.25 17.1 9.3 17.2 9.3 17.65 9.3 18.05 9.3 18.35 9.3 18.5 9.35 18.65 9.35 18.8 9.35 18.95 9.35 19.05 9.4 19.2 9.4 19.35 9.45 19.5 9.5 19.65 9.6 19.8 9.6 19.9 9.65 20.05 9.7 20.2 9.8 20.35 9.9 20.5 10.0 20.65 10.15 20.75 10.85 20.75 11.1 20.65 11.2 20.5 11.35 20.2 11.55 19.9 11.65 19.8 11.7 19.65 11.8 19.5 11.9 19.35 12.0 19.2 12.1 19.05 12.15 18.95 12.25 18.8 12.25 18.65 12.3 18.5 12.35 18.35 12.4 18.2 12.45 18.05 12.45 17.95 12.45 17.8 12.45 17.65 12.5 17.5 12.5 17.35 12.5 17.2 12.5 17.1 12.5 16.95 12.55 16.8 12.55 16.65 12.55 16.5 12.55 16.35 12.6 16.25 12.6 16.1 12.6 15.95 12.6 15.8 12.65 15.65 12.65 15.5 12.65 15.4 12.65 15.25 12.7 15.1 12.7 14.95 12.7 14.8 12.75 14.65 12.75 14.5 12.75 14.4 12.75 14.25 12.8 14.1 12.8 13.95 12.8 13.8 12.85 13.65 12.85 13.55 12.85 13.4 12.9 13.25 12.9 13.1 12.9 12.95 12.9 12.8 13.0 12.25 13.1 11.7 13.15 11.4 13.15 11.1 13.15 10.85 13.15 10.7 13.15 10.55 13.2 10.4 13.25 10.25 13.35 10.1 13.55 10.0 13.9 9.9 14.2 10.0 14.4 10.15 14.55 10.25 14.6 10.4 14.6 11.95 14.6 13.95 14.6 15.65 14.4 16.65 14.15 17.65 13.9 18.35 13.9 18.5 13.9 19.05 13.9 19.65 13.9 19.9 13.95 20.05 13.95 20.2 13.95 20.35 14.0 20.5 14.0 20.65 14.0 20.75 14.05 21.05 14.1 21.5 14.15 21.75 14.15 21.9 14.45 22.2 14.65 22.35 14.95 22.5 15.7 22.5 15.8 22.5 16.15 22.2 16.45 21.95 16.6 21.8 16.85 20.95 17.1 19.95 17.25 19.25 17.2 19.1 17.2 19.0 17.15 18.85 17.15 18.7 17.15 17.7 17.15 16.7 17.15 16.0 17.2 15.7 17.25 15.4 17.3 15.15 17.35 15.0 17.35 14.85 17.35 14.7 17.4 14.55 17.4 14.45 17.45 14.3 17.45 14.15 17.45 14.0 17.45 13.85 17.5 13.7 17.55 13.6 17.55 13.15 17.55 12.7 17.55 12.45 17.55 12.3 17.6 12.15 17.6 12.0 17.75 11.9 17.85 11.75 18.2 11.65 18.45 11.7 18.6 11.8 18.75 11.9 18.8 12.05 18.85 12.2 18.85 13.6 18.85 15.45 18.85 17.05 18.9 17.15 18.9 17.3 18.9 17.45 18.9 17.6 18.9 17.75 18.85 17.9 18.85 18.05 18.85 18.15 18.8 18.3 18.8 18.45 18.8 18.6 18.8 18.75 18.75 18.9 18.75 19.0 18.75 19.15 18.7 19.3 18.75 19.45 18.85 19.6 18.95 19.75 19.0 19.85 19.15 20.0 20.55 20.05 20.85 19.95 21.0 19.85 21.3 19.55 21.4 19.4 21.5 19.25 21.55 19.1 21.65 18.95 21.7 18.85 21.8 18.7 21.85 18.55 21.95 18.4 22.0 18.25 22.1 18.1 22.1 18.0 22.15 17.85 22.25 17.7 22.3 17.55 22.5 16.85 22.65 16.15 22.8 15.7 22.8 15.55 22.8 15.4 22.8 15.3 22.85 15.15 22.9 15.0 22.9 14.85 22.9 14.7 22.9 14.55 22.95 14.45 23.0 14.3 23.1 14.0 23.2 13.6 23.3 13.3 23.35 13.15 23.45 13.0 23.55 12.85 23.55 12.75 23.6 12.6 23.65 12.45 23.75 12.3 23.75 12.15" fill="#333333" fill-rule="evenodd" stroke="none"/>
    <path d="M1.75 15.35 L1.75 14.35 1.75 14.3 1.7 14.4 1.7 14.5 1.7 14.65 1.65 14.8 1.65 15.5 1.65 16.65 1.7 17.7 1.7 17.6 1.7 17.45 1.7 17.3 1.75 17.15 1.75 16.3 1.75 15.35 M1.4 9.55 L1.55 9.4 1.9 9.3 2.1 9.3 2.45 9.4 2.6 9.55 2.95 9.95 3.15 10.25 3.2 10.4 3.2 12.25 3.2 14.95 3.2 17.5 3.15 17.65 3.15 17.8 3.15 17.95 3.15 18.05 3.1 18.2 3.1 18.35 3.1 18.5 3.1 18.65 3.1 18.8 3.1 18.95 2.9 19.5 2.75 19.9 2.6 20.35 2.5 20.5 2.45 20.65 2.4 20.75 2.35 20.9 2.4 21.05 2.45 21.2 2.55 21.35 2.95 21.35 3.05 21.3 3.2 21.15 3.5 20.85 3.65 20.75 3.85 20.15 4.15 19.3 4.3 18.6 4.3 18.45 4.3 18.3 4.3 18.15 4.35 18.05 4.35 17.9 4.35 17.75 4.4 17.6 4.4 17.45 4.4 17.3 4.45 17.15 4.45 17.05 4.45 16.9 4.45 16.75 4.5 16.6 4.5 16.45 4.5 16.3 4.5 16.2 4.5 16.05 4.55 15.9 4.55 15.75 4.55 15.6 4.55 15.45 4.6 15.35 4.6 15.2 4.6 15.05 4.8 14.35 4.95 13.6 5.1 13.05 5.1 12.5 5.1 11.9 5.1 11.5 5.1 11.35 5.15 11.2 5.15 11.05 5.15 10.8 5.15 10.35 5.15 10.05 5.2 9.95 5.2 9.8 5.2 9.65 5.2 9.5 5.2 9.35 5.3 9.2 5.35 9.1 5.35 8.95 5.4 8.8 5.45 8.65 5.7 8.55 5.7 8.6 5.85 8.65 6.0 8.7 6.0 8.85 6.05 9.0 6.05 9.15 6.15 9.25 6.15 9.4 6.15 9.55 6.15 9.7 6.15 9.85 6.2 10.0 6.2 10.1 6.2 10.4 6.2 10.85 6.2 11.1 6.25 11.25 6.3 11.4 6.3 11.95 6.3 12.55 6.3 12.95 6.35 13.1 6.35 13.25 6.35 13.4 6.35 13.55 6.2 14.1 6.1 14.65 6.0 15.1 6.0 15.25 6.0 15.4 6.0 15.5 6.0 15.65 6.0 15.8 6.0 15.95 6.0 16.1 6.0 16.25 5.95 16.35 5.95 16.5 5.95 16.65 5.95 16.8 5.9 16.95 5.9 17.1 5.9 17.2 5.9 17.35 5.85 17.5 5.85 17.65 5.85 17.8 5.85 17.95 5.8 18.05 5.8 18.2 5.8 18.35 5.75 18.5 5.75 18.65 5.75 18.8 5.6 19.5 5.3 20.35 5.1 21.05 5.0 21.2 4.95 21.35 4.9 21.5 4.8 21.6 4.2 22.2 3.6 22.75 3.3 22.85 2.45 22.75 1.55 22.4 1.45 22.25 1.35 22.1 1.05 22.1 0.6 22.25 0.2 22.35 -0.1 22.3 -0.45 22.2 -0.85 22.1 -2.0 21.15 -2.75 20.3 -2.8 20.15 -2.9 20.0 -2.95 19.85 -3.0 19.75 -3.1 19.6 -3.2 19.5 -3.25 19.55 -3.3 19.7 -3.35 19.85 -3.45 19.95 -3.8 20.4 -4.15 20.7 -4.55 20.75 -5.1 20.75 -5.45 20.7 -5.65 20.55 -5.8 20.4 -6.75 19.4 -7.35 18.55 -7.35 18.4 -7.45 18.25 -7.5 18.1 -7.6 18.0 -7.65 17.9 -7.7 18.05 -7.75 18.15 -7.8 18.3 -7.9 18.45 -8.4 19.2 -9.1 19.75 -9.45 19.85 -9.75 19.8 -10.0 19.7 -10.15 19.55 -10.25 19.4 -10.3 19.25 -10.35 19.1 -10.45 18.95 -10.5 18.85 -10.5 18.7 -10.45 18.55 -10.45 18.4 -10.45 18.25 -10.45 18.1 -10.4 18.0 -10.35 17.85 -10.3 17.7 -10.25 17.55 -10.3 17.4 -10.25 17.25 -10.1 17.15 -9.85 17.15 -9.75 17.3 -9.7 17.45 -9.5 17.6 -9.3 17.65 -9.2 17.65 -9.2 17.5 -9.1 17.25 -9.05 16.95 -9.0 16.65 -9.0 16.5 -9.0 16.35 -8.95 16.25 -8.95 16.1 -8.9 15.95 -8.9 15.25 -8.9 14.65 -8.9 14.1 -8.85 13.95 -8.75 13.8 -8.65 13.65 -8.45 13.55 -8.15 13.45 -7.95 13.45 -7.55 13.55 -7.35 13.65 -7.3 13.8 -7.15 14.25 -7.05 14.65 -7.0 14.95 -6.9 15.1 -6.85 15.25 -6.8 15.4 -6.7 15.5 -6.65 15.65 -6.6 15.8 -6.55 15.95 -6.5 16.1 -6.5 16.25 -6.5 16.35 -6.5 16.5 -6.5 16.65 -6.5 16.8 -6.45 16.95 -6.35 17.1 -6.3 17.2 -6.2 17.35 -6.15 17.5 -6.05 17.65 -6.0 17.8 -5.8 18.05 -5.4 18.65 -5.0 19.05 -4.8 19.15 -4.7 19.1 -4.7 18.95 -4.6 18.55 -4.55 18.1 -4.5 17.85 -4.5 17.7 -4.5 17.55 -4.45 17.4 -4.45 17.25 -4.45 17.15 -4.4 17.0 -4.4 16.85 -4.35 16.7 -4.35 15.3 -4.35 13.3 -4.35 11.45 -4.3 11.3 -4.2 11.15 -4.1 11.0 -3.9 10.9 -3.6 10.8 -3.2 10.9 -3.0 11.0 -2.9 11.15 -2.9 11.3 -2.85 11.45 -2.85 12.45 -2.85 13.45 -2.85 14.3 -2.8 14.45 -2.8 14.55 -2.8 14.7 -2.75 14.85 -2.75 15.0 -2.75 15.15 -2.7 15.3 -2.7 15.4 -2.7 15.55 -2.65 15.7 -2.65 15.85 -2.65 16.0 -2.6 16.15 -2.6 16.3 -2.6 16.4 -2.55 16.55 -2.55 16.7 -2.55 16.85 -2.5 17.0 -2.5 17.15 -2.45 17.25 -2.45 17.4 -2.35 17.55 -2.3 17.7 -2.25 17.85 -2.2 18.0 -2.1 18.1 -2.05 18.25 -2.0 18.4 -1.95 18.55 -1.9 18.7 -1.8 18.85 -1.7 18.95 -1.65 19.1 -1.55 19.25 -1.45 19.4 -1.4 19.55 -1.25 19.7 -0.7 20.25 -0.2 20.7 0.25 20.75 0.5 20.6 0.55 20.5 0.5 20.35 0.45 20.2 0.35 20.05 0.3 19.9 0.25 19.8 0.25 18.35 0.25 16.35 0.25 14.5 0.3 14.4 0.3 14.25 0.3 14.1 0.35 13.95 0.35 13.8 0.35 13.65 0.4 13.55 0.4 13.4 0.4 13.25 0.55 12.55 0.75 11.65 0.95 10.95 0.95 10.85 0.95 10.7 1.0 10.55 1.1 10.25 1.2 10.0 1.3 9.7 1.4 9.55" fill="#333333" fill-rule="evenodd" stroke="none"/>
    <path d="M-2.9 -20.0 L-2.65 -20.1 -2.4 -20.0 -2.3 -19.85 -2.25 -19.7 -2.25 -19.55 -2.2 -19.4 -2.2 -19.3 -2.2 -19.15 -2.2 -19.0 -2.15 -18.85 -2.15 -18.45 -2.15 -18.0 -2.15 -17.7 -2.15 -17.6 -2.2 -17.45 -2.3 -16.85 -2.45 -16.3 -2.55 -16.0 -2.65 -15.85 -2.7 -15.75 -2.7 -15.6 -3.1 -15.05 -3.6 -14.35 -3.9 -13.9 -3.95 -13.75 -4.05 -13.6 -4.15 -13.45 -4.25 -13.3 -4.45 -13.15 -4.75 -13.05 -5.1 -12.95 -5.6 -12.95 -5.9 -13.05 -6.1 -13.2 -6.25 -13.25 -6.3 -13.2 -6.4 -13.1 -6.45 -12.95 -6.5 -12.8 -6.6 -12.65 -6.65 -12.5 -7.85 -10.9 Q-9.1 -9.5 -10.85 -9.3 L-10.9 -9.15 -10.95 -9.0 -11.05 -8.85 -11.15 -8.7 -11.9 -8.3 -12.5 -8.05 -12.8 -8.1 -13.05 -8.1 -13.15 -8.15 -13.3 -8.25 -13.5 -8.4 -13.6 -8.55 -13.65 -8.7 -13.75 -8.95 -13.85 -9.25 -13.9 -9.4 -13.95 -9.55 -14.05 -9.65 -14.1 -9.8 -14.2 -9.95 -14.3 -10.4 -14.4 -10.8 -14.45 -11.05 -14.5 -11.1 -14.65 -10.95 -14.75 -10.8 -14.85 -10.65 -15.0 -10.5 -15.35 -10.45 -15.55 -10.45 -15.7 -10.4 -15.85 -10.5 -15.8 -10.6 -15.8 -10.75 -15.9 -10.9 -15.9 -11.05 -15.85 -11.2 -15.75 -11.35 -15.7 -11.45 -15.55 -11.6 -15.45 -11.75 -15.4 -12.05 -15.3 -12.3 -15.25 -12.6 -15.2 -12.75 -15.2 -14.05 -15.2 -15.3 -15.2 -16.3 -15.15 -16.45 -15.1 -16.6 -15.0 -16.7 -14.85 -16.85 -14.5 -16.95 -14.2 -16.85 -14.0 -16.75 -13.9 -16.6 -13.85 -16.45 -13.75 -16.3 -13.7 -16.0 -13.6 -15.6 -13.55 -15.3 -13.55 -15.15 -13.55 -14.9 -13.55 -14.45 -13.55 -14.15 -13.55 -14.05 -13.5 -13.9 -13.5 -13.75 -13.5 -13.6 -13.45 -13.45 -13.4 -13.3 -13.4 -13.15 -13.4 -13.05 -13.4 -12.9 -13.25 -12.05 -13.05 -11.05 -12.85 -10.35 -12.75 -10.2 -12.75 -10.05 -12.65 -9.9 -12.6 -9.75 -12.55 -9.65 -12.5 -9.55 -12.3 -9.6 -12.15 -9.7 -12.1 -9.85 -12.05 -10.0 -12.05 -10.15 -12.1 -10.3 -12.15 -10.45 -12.2 -10.55 -12.25 -10.7 -12.35 -10.85 -12.65 -11.7 -12.85 -12.7 -12.95 -13.4 -12.95 -13.55 -12.95 -13.7 -13.0 -13.85 -13.0 -14.0 -13.05 -14.1 -13.05 -14.25 -13.05 -14.4 -13.1 -14.55 -13.1 -14.7 -13.1 -14.85 -13.15 -15.0 -13.15 -15.1 -13.15 -15.25 -13.1 -15.4 -13.1 -16.8 -13.1 -18.65 -13.1 -20.25 -13.05 -20.35 -12.95 -20.5 -12.75 -20.65 -12.5 -20.75 -12.25 -20.7 -12.15 -20.65 -12.05 -20.55 -11.9 -20.4 -11.85 -20.3 -11.7 -19.7 -11.55 -19.15 -11.45 -18.85 -11.35 -18.7 -11.15 -17.85 -10.95 -16.85 -10.85 -16.3 -10.85 -16.15 -10.85 -16.0 -10.8 -15.85 -10.8 -15.75 -10.8 -15.6 -10.75 -15.45 -10.75 -15.3 -10.75 -15.15 -10.75 -15.0 -10.7 -14.9 -10.7 -13.6 -10.7 -12.05 -10.7 -10.75 -10.15 -10.7 -9.95 -10.8 Q-9.1 -11.3 -8.55 -12.1 L-7.8 -13.1 -7.75 -13.2 -7.65 -13.35 -7.55 -13.5 -7.5 -13.65 -7.4 -13.8 -7.35 -13.95 -7.3 -14.05 -7.2 -14.2 -7.15 -14.35 -7.1 -14.5 -7.1 -14.65 -7.1 -14.8 -7.1 -14.95 -7.1 -15.05 -7.35 -15.9 -7.55 -17.05 -7.7 -17.9 -7.7 -18.05 -7.7 -18.75 -7.7 -19.45 -7.7 -19.9 -7.65 -20.05 -7.6 -20.2 -7.45 -20.3 -7.2 -20.4 -6.85 -20.3 -6.7 -20.15 -6.5 -19.9 -6.45 -19.75 -6.35 -19.6 -6.25 -19.35 -6.15 -19.05 -6.15 -18.9 -6.1 -18.75 -6.0 -18.6 -6.0 -18.5 -5.95 -18.35 -5.95 -18.2 -5.95 -18.05 -5.9 -17.9 -5.9 -17.75 -5.9 -17.65 -5.9 -17.5 -5.85 -17.35 -5.85 -17.05 -5.85 -16.35 -5.85 -15.65 -5.85 -15.2 -5.9 -15.05 -5.9 -14.95 -5.9 -14.8 -5.9 -14.65 -5.8 -14.5 -5.7 -14.35 -5.6 -14.2 -5.5 -14.05 -5.15 -14.05 -5.05 -14.05 -4.95 -14.15 -4.85 -14.3 -4.8 -14.45 -4.5 -14.9 -3.9 -15.75 -3.5 -16.3 -3.45 -16.45 -3.3 -17.0 -3.15 -17.6 -3.1 -17.85 -3.1 -18.0 -3.1 -18.3 -3.1 -18.55 -3.1 -18.7 -3.1 -18.85 -3.05 -19.0 -3.05 -19.15 -3.05 -19.3 -3.05 -19.4 -3.05 -19.55 -3.0 -19.7 -2.95 -19.85 -2.9 -20.0" fill="#333333" fill-rule="evenodd" stroke="none"/>
    <path d="M-22.15 -17.2 L-22.25 -17.05 -22.3 -16.9 -22.35 -16.75 -22.45 -16.65 -22.5 -16.5 -22.55 -16.35 -22.6 -16.2 -22.9 -15.35 -23.3 -14.1 -23.55 -12.8 -23.55 -12.65 -23.55 -12.25 -23.55 -11.8 -23.55 -11.4 -23.5 -11.4 -23.4 -11.5 -23.3 -11.65 -23.2 -11.8 -23.15 -11.95 -23.05 -12.1 -22.95 -12.25 -22.9 -12.35 -22.8 -12.5 -22.7 -12.65 -22.65 -12.8 -22.55 -12.95 -22.5 -13.1 -22.45 -13.2 -22.35 -13.35 -22.25 -13.5 -22.15 -13.65 -22.1 -13.8 -22.05 -13.95 -22.0 -14.05 -21.9 -14.2 -21.85 -14.35 -21.8 -14.5 -21.75 -14.65 -21.65 -14.8 -21.65 -14.95 -21.65 -15.65 -21.65 -16.5 -21.65 -17.35 -21.65 -17.5 -21.7 -17.6 -21.7 -17.75 -21.75 -17.8 -21.8 -17.75 -21.9 -17.65 -22.0 -17.5 -22.1 -17.35 -22.15 -17.2 M-22.7 -18.65 L-22.6 -18.8 -22.45 -18.95 -22.2 -19.05 -22.0 -19.1 -21.8 -19.15 -21.6 -19.2 -21.25 -19.1 -21.1 -18.95 -20.95 -18.8 -20.7 -18.5 -20.6 -18.4 -20.55 -18.25 -20.5 -18.1 -20.5 -17.95 -20.45 -17.8 -20.4 -17.65 -20.4 -17.1 -20.4 -16.25 -20.4 -15.4 -20.4 -14.7 -20.45 -14.55 -20.5 -14.4 -20.55 -14.25 -20.6 -14.1 -20.7 -14.0 -20.75 -13.85 -20.75 -13.7 -20.8 -13.55 -20.9 -13.4 -20.95 -13.25 -21.0 -13.15 -21.05 -13.0 -21.1 -12.85 -21.15 -12.7 -21.25 -12.55 -21.35 -12.4 -21.4 -12.3 -21.5 -12.15 -21.6 -12.0 -21.65 -11.85 -21.7 -11.7 -21.8 -11.55 -21.85 -11.4 -21.95 -11.3 -22.05 -11.15 -22.15 -11.0 -22.2 -10.85 -22.5 -10.45 -22.65 -10.15 -22.85 -9.85 -23.05 -9.6 -23.1 -9.45 -23.2 -9.3 -23.3 -9.15 -23.35 -9.0 -23.45 -8.85 -23.5 -8.7 -23.55 -8.6 -23.55 -8.3 -23.55 -8.15 -23.55 -8.0 -23.55 -7.85 -23.55 -7.6 -23.55 -7.45 -23.5 -7.3 -23.45 -7.15 -23.35 -7.1 -23.1 -7.2 -22.6 -7.5 -21.95 -7.9 -21.85 -8.05 -21.4 -8.6 -21.05 -9.05 -20.75 -9.5 -20.75 -9.6 -20.65 -9.75 -20.55 -9.9 -20.45 -10.05 -20.35 -10.2 -20.3 -10.35 -20.2 -10.5 -20.15 -10.6 -20.1 -10.75 -20.0 -10.9 -19.95 -11.05 -19.9 -11.2 -19.85 -11.35 -19.8 -11.45 -19.75 -11.6 -19.7 -11.75 -19.7 -12.2 -19.7 -12.75 -19.7 -13.05 -19.7 -13.45 -19.65 -13.6 -19.65 -14.05 -19.65 -14.6 -19.65 -15.0 -19.65 -15.45 -19.6 -15.6 -19.6 -15.75 -19.6 -16.3 -19.6 -16.6 -19.6 -16.85 -19.6 -17.15 -19.55 -17.3 -19.65 -17.7 -19.7 -18.0 -19.75 -18.3 -19.8 -18.55 -19.85 -18.7 -19.95 -18.85 -20.25 -18.8 -20.45 -18.75 -20.65 -18.7 -20.75 -18.8 -20.8 -18.85 -20.85 -19.0 -20.75 -19.15 -20.45 -19.25 -20.25 -19.3 -20.0 -19.35 -19.9 -19.4 -19.7 -19.5 -19.5 -19.45 -19.45 -19.4 -19.35 -19.35 -19.25 -19.2 -19.15 -19.05 -19.1 -18.9 -19.0 -18.75 -18.95 -18.6 -18.8 -18.2 -18.8 -17.9 -18.75 -17.65 -18.65 -17.35 -18.55 -17.2 -18.55 -17.05 -18.55 -16.9 -18.55 -16.5 -18.55 -16.2 -18.55 -15.9 -18.55 -15.65 -18.5 -15.5 -18.5 -15.05 -18.5 -14.5 -18.5 -14.2 -18.5 -13.8 -18.45 -13.65 -18.45 -13.1 -18.45 -12.5 -18.45 -11.95 -18.45 -11.4 -18.5 -11.25 -18.55 -11.1 -18.65 -10.95 -18.7 -10.8 -18.75 -10.65 -18.85 -10.5 -18.9 -10.4 -18.95 -10.25 -19.0 -10.1 -19.05 -9.95 -19.1 -9.8 -19.2 -9.65 -19.25 -9.55 -19.35 -9.4 -19.45 -9.25 -19.55 -9.1 -19.65 -8.95 -19.85 -8.7 -19.85 -8.55 -20.1 -8.25 -21.3 -6.95 Q-22.25 -6.05 -23.45 -5.6 L-23.85 -5.6 -24.1 -5.65 -24.2 -5.7 -24.35 -5.8 -24.4 -5.95 -24.5 -6.05 -24.55 -6.2 -24.65 -6.35 -24.7 -6.5 -24.75 -6.65 -24.75 -6.8 -24.8 -6.9 -24.95 -6.9 -25.2 -6.65 -25.5 -6.35 -25.95 -6.05 -26.25 -6.0 -27.25 -6.05 -27.4 -6.1 -27.6 -6.25 -27.7 -6.4 -27.8 -6.55 -27.9 -6.7 -27.95 -6.85 -28.15 -7.1 -28.2 -7.25 -28.3 -7.4 -28.35 -7.55 -28.45 -7.7 -28.5 -7.85 -28.6 -8.4 -28.65 -8.7 -28.7 -8.95 -28.8 -9.2 -28.8 -9.05 -28.9 -8.9 -28.95 -8.75 -29.05 -8.65 -29.15 -8.5 -29.25 -8.35 -29.3 -8.2 -29.7 -7.65 -29.95 -7.35 -30.4 -6.9 -30.6 -6.8 -31.05 -6.65 -31.45 -6.55 -31.8 -6.55 -32.2 -6.65 -32.7 -6.9 -32.85 -7.05 -32.95 -7.15 -33.0 -7.3 -33.1 -7.45 -33.15 -7.6 -33.25 -7.75 -33.3 -7.85 -33.35 -8.0 -33.45 -8.15 -33.5 -8.3 -33.55 -8.45 -33.6 -8.6 -33.6 -8.7 -33.6 -8.85 -33.6 -9.0 -33.6 -9.15 -33.6 -9.3 -33.65 -9.4 -33.7 -9.45 -33.85 -9.3 -34.0 -9.15 -34.15 -9.0 -34.45 -8.7 -34.9 -8.45 Q-35.35 -8.15 -35.95 -8.05 L-36.55 -8.05 -36.85 -8.15 -37.1 -8.3 -37.3 -8.45 -37.55 -8.6 -37.65 -8.7 -37.7 -8.85 -37.9 -9.4 -38.05 -10.0 -38.2 -10.7 -38.35 -11.3 -38.35 -11.7 -38.35 -12.3 -38.35 -12.7 -38.35 -13.15 -38.3 -13.25 -38.3 -13.4 -38.3 -13.55 -38.25 -13.7 -38.2 -13.85 -38.1 -13.95 -37.95 -14.1 -37.7 -14.2 -37.45 -14.15 -37.35 -14.1 -37.25 -14.0 -37.15 -13.9 -37.1 -13.75 -37.05 -13.6 -37.05 -13.45 -37.0 -13.3 -37.0 -12.9 -37.0 -12.3 -37.0 -12.05 -37.0 -11.6 -36.9 -11.2 -36.75 -10.45 -36.65 -10.05 -36.55 -9.6 -36.45 -9.5 -35.95 -9.45 -35.6 -9.6 -35.2 -9.85 -34.9 -10.15 -34.8 -10.3 -34.75 -10.45 -34.65 -10.55 -34.5 -11.15 -34.35 -11.7 -34.2 -12.4 -34.1 -13.0 -34.0 -13.1 -33.85 -13.25 -33.5 -13.35 -33.25 -13.3 -33.1 -13.2 -32.95 -13.1 -32.9 -12.95 -32.85 -12.8 -32.85 -12.65 -32.85 -12.5 -32.85 -12.35 -32.75 -12.1 -32.7 -11.95 -32.65 -11.8 -32.6 -11.65 -32.55 -11.4 -32.55 -11.25 -32.55 -11.1 -32.5 -10.95 -32.5 -10.8 -32.5 -10.65 -32.45 -10.25 -32.4 -10.1 -32.35 -9.8 -32.3 -9.55 -32.3 -9.4 -32.3 -9.25 -32.3 -9.1 -32.3 -8.95 -32.3 -8.8 -32.2 -8.7 -32.15 -8.55 -32.05 -8.4 -31.95 -8.25 -31.9 -8.1 -31.8 -7.95 -31.4 -7.9 -31.25 -8.0 -31.15 -8.05 -31.0 -8.2 -30.85 -8.35 -30.65 -8.65 -30.55 -8.75 -30.5 -8.9 -30.4 -9.05 -30.3 -9.2 -30.2 -9.35 -30.15 -9.5 -30.05 -9.6 -30.0 -9.75 -29.95 -9.9 -29.85 -10.05 -29.8 -10.2 -29.75 -10.35 -29.7 -10.5 -29.65 -10.6 -29.6 -10.75 -29.55 -10.9 -29.45 -11.05 -29.4 -11.2 -29.35 -11.35 -29.3 -11.45 -29.2 -11.6 -29.2 -11.75 -29.05 -12.2 -29.0 -12.45 -28.95 -12.75 -28.85 -13.05 -28.85 -13.45 -28.85 -14.6 -28.85 -15.6 -28.85 -16.3 -28.8 -16.45 -28.8 -16.6 -28.65 -16.7 -28.55 -16.85 -28.2 -16.95 -27.95 -16.9 -27.9 -16.85 -27.75 -16.75 -27.65 -16.65 -27.55 -16.5 -27.55 -16.35 -27.55 -14.05 -27.55 -11.65 -27.55 -9.95 -27.45 -9.5 -27.3 -8.8 -27.2 -8.4 -27.05 -7.95 -27.0 -7.8 -26.95 -7.7 -26.85 -7.55 -26.75 -7.4 -26.4 -7.4 -26.3 -7.45 -25.75 -8.0 -25.2 -8.55 -24.9 -9.15 -24.9 -9.6 -24.9 -10.85 -24.9 -11.85 -24.9 -12.7 -24.55 -14.25 -24.2 -15.55 -23.8 -16.7 -23.7 -16.8 -23.65 -16.95 -23.6 -17.1 -23.5 -17.25 -23.45 -17.4 -23.45 -17.55 -23.35 -17.65 -23.3 -17.8 -23.2 -17.95 -23.15 -18.1 -23.05 -18.25 -22.95 -18.4 -22.8 -18.55 -22.7 -18.65" fill="#333333" fill-rule="evenodd" stroke="none"/>
    <path d="M-38.75 -1.6 L-38.6 -1.75 -38.25 -1.85 -38.0 -1.8 -37.8 -1.7 -37.7 -1.55 -37.6 -1.45 -37.55 -1.3 -37.55 -1.15 -37.55 -1.0 -37.15 0.4 -36.75 2.25 -36.3 3.8 -36.2 3.95 -36.15 4.25 -36.1 4.55 -36.05 4.7 -36.0 4.8 -35.95 4.95 -35.85 5.1 -35.65 5.25 -35.15 5.3 -34.95 5.2 -34.4 4.9 -34.15 4.75 -33.9 4.5 -32.95 3.5 -32.45 2.9 -32.4 2.8 -32.35 2.65 -32.25 2.35 -32.15 2.05 -32.05 1.8 -32.0 1.65 -31.9 1.5 -31.85 1.35 -31.65 0.8 -31.5 0.35 -31.45 0.1 -31.35 -0.05 -31.25 -0.35 -31.15 -0.9 -31.05 -1.5 -31.0 -1.75 -31.0 -2.6 -31.0 -3.45 -31.0 -4.05 -30.95 -4.2 -30.9 -4.3 -30.8 -4.45 -30.6 -4.6 -30.3 -4.7 -30.3 -4.65 -29.95 -4.6 -29.8 -4.45 -29.65 -4.3 -29.5 -4.2 -29.45 -4.05 -29.4 -3.9 -29.4 -3.75 -29.4 -3.6 -29.4 -3.45 -29.4 -3.35 -29.35 -3.2 -29.35 -3.05 -29.3 -2.9 -29.3 -2.75 -29.3 -2.6 -29.25 -2.35 -29.2 -2.05 -29.15 -1.75 -29.1 -1.6 -29.1 -1.5 -29.1 -1.35 -29.05 -1.2 -29.05 -1.05 -29.0 -0.9 -29.0 -0.75 -28.95 -0.65 -28.95 -0.5 -28.95 -0.35 -28.9 -0.2 -28.9 -0.05 -28.9 0.1 -28.9 0.2 -28.85 0.35 -28.85 0.5 -28.85 0.65 -28.85 0.8 -28.8 0.95 -28.8 1.1 -28.8 1.2 -28.8 1.35 -28.8 1.5 -28.8 1.65 -28.75 1.8 -28.7 1.95 -28.7 2.05 -28.7 2.2 -28.7 2.35 -28.65 2.5 -28.65 2.65 -28.65 2.8 -28.6 2.95 -28.55 3.05 -28.55 3.2 -28.55 3.35 -28.5 3.5 -28.5 3.65 -28.5 3.8 -28.35 4.5 -28.1 5.2 -27.95 5.6 -27.9 5.75 -27.8 5.9 -27.7 6.05 -27.6 6.2 -26.6 6.2 -26.2 5.9 -25.65 5.35 -25.45 5.05 -25.4 4.9 -25.3 4.75 -25.2 4.65 -25.2 4.5 -25.1 4.35 -25.05 4.2 -25.05 2.05 -25.05 -0.9 -25.05 -3.6 -25.0 -3.75 -24.95 -3.9 -24.85 -4.05 -24.7 -4.2 -24.35 -4.25 -24.05 -4.2 -23.85 -4.05 -23.6 -3.75 -23.45 -3.6 -23.4 -3.45 -23.35 -3.3 -23.25 -2.6 -23.1 -1.9 -23.0 -1.5 -23.0 -0.2 -23.0 1.2 -23.0 2.2 -23.15 2.95 -23.35 3.65 -23.45 4.05 -23.55 4.2 -23.6 4.35 -23.65 4.5 -23.65 4.65 -23.65 4.75 -23.6 4.9 -23.6 5.05 -23.6 5.2 -23.55 5.5 -23.5 5.9 -23.4 6.2 -23.4 6.35 -23.25 6.5 -22.9 6.9 -22.65 7.2 -22.55 7.35 -22.3 7.4 -21.45 7.4 -21.0 7.15 -20.6 6.9 -20.35 6.75 -20.25 6.6 -20.15 6.45 -20.1 6.35 -20.05 6.2 -19.95 6.05 -19.9 5.9 -19.8 5.35 -19.75 4.9 -19.7 4.65 -19.7 4.35 -19.7 3.8 -19.7 3.2 -19.7 2.9 -19.75 2.8 -19.95 2.05 -20.2 1.35 -20.3 0.95 -20.3 0.8 -20.3 0.65 -20.45 -0.35 -20.65 -1.5 -20.8 -2.2 -20.8 -2.45 -20.8 -3.2 -20.8 -3.75 -20.8 -4.05 -20.75 -4.2 -20.65 -4.3 -20.55 -4.45 -20.25 -4.55 -20.0 -4.5 -19.9 -4.45 -19.85 -4.35 -19.7 -4.25 -19.65 -4.1 -19.55 -3.95 -19.45 -3.8 -19.25 -2.5 -18.8 -0.7 -18.5 0.75 -18.5 1.05 -18.5 1.75 -18.5 2.3 -18.5 2.6 -18.45 2.75 -18.45 2.9 -18.45 3.0 -18.4 3.15 -18.3 3.3 -18.2 3.6 -18.1 3.85 -18.1 4.0 -18.05 4.15 -17.85 4.45 -17.5 4.9 -17.3 5.15 -17.25 5.3 -17.3 5.45 -17.35 5.55 -17.45 5.7 -17.8 5.8 -18.0 5.75 -18.1 5.7 -18.2 5.6 -18.35 5.5 Q-18.45 5.4 -18.5 5.4 L-18.55 5.45 -18.6 5.7 -18.65 6.0 -18.7 6.3 -18.75 6.45 -18.85 6.55 -18.9 6.7 -18.95 6.85 -19.0 7.0 -19.05 7.15 -19.15 7.3 -19.2 7.4 -19.25 7.55 -20.2 8.25 -21.4 8.8 -22.75 8.65 -23.15 8.55 -23.3 8.45 -23.45 8.3 -23.95 7.75 -24.4 7.15 -24.6 6.9 -24.65 6.75 -24.7 6.6 -24.75 6.5 -24.85 6.45 -25.1 6.75 -25.75 7.3 -26.15 7.6 -26.5 7.7 -28.05 7.65 -28.55 7.25 -28.85 6.85 -29.1 6.55 -29.15 6.45 -29.25 6.3 -29.55 5.45 -29.8 4.45 -29.95 3.75 -29.95 3.6 -29.95 3.45 -30.0 3.3 -30.0 3.15 -30.05 3.0 -30.05 2.9 -30.05 2.75 -30.1 2.6 -30.1 2.45 -30.15 2.3 -30.15 2.15 -30.15 2.0 -30.2 1.9 -30.2 1.75 -30.2 1.6 -30.25 1.45 -30.25 1.3 -30.25 1.15 -30.3 1.25 -30.35 1.4 -30.4 1.55 -30.45 1.7 -30.55 1.85 -30.6 2.1 -30.7 2.4 -30.8 2.7 -30.85 2.85 -30.95 2.95 -31.0 3.1 -31.05 3.25 -31.1 3.4 -31.15 3.55 -32.45 5.15 Q-33.6 6.35 -35.15 6.75 L-35.8 6.75 -36.1 6.65 -36.5 6.4 -36.7 6.25 -36.85 6.1 -36.95 5.95 -37.1 5.8 -37.2 5.65 -37.3 5.55 -37.55 4.7 -37.8 3.8 Q-37.85 3.5 -38.05 3.4 L-38.1 3.55 -38.25 3.7 -38.4 3.8 -39.15 4.2 -39.95 4.5 -40.45 4.45 -40.7 4.45 -40.8 4.4 -41.2 4.15 -41.4 4.0 -41.6 3.85 -41.7 3.75 -41.8 3.6 -41.9 3.45 -41.95 3.3 -42.05 3.15 -42.1 3.0 -42.15 2.9 -42.15 2.75 -42.15 2.6 -42.15 2.45 -42.15 2.3 -42.15 2.15 -42.2 1.9 -42.3 1.6 -42.35 1.3 -42.35 1.15 -42.3 1.05 -42.3 0.9 -42.3 0.75 -42.25 0.6 -42.2 0.45 -42.1 0.35 -42.0 0.2 -41.7 0.05 -41.4 -0.05 -41.2 0.0 -41.1 0.05 -40.75 0.15 -40.65 0.25 -40.6 0.4 -40.55 0.55 -40.55 0.7 -40.55 0.85 -40.4 1.0 -40.4 1.1 -40.6 1.1 -40.8 1.0 -40.95 1.1 -40.9 1.25 -40.85 1.4 -40.8 1.55 -40.75 1.7 -40.7 1.85 -40.7 2.0 -40.7 2.1 -40.7 2.25 -40.7 2.4 -40.7 2.55 -40.65 2.7 -40.55 2.8 -40.4 2.95 -39.9 3.0 -39.65 2.9 -39.45 2.8 -39.3 2.65 -39.25 2.5 -39.15 2.35 -39.1 2.2 -39.1 2.05 -39.05 1.95 -39.0 1.8 -38.95 1.65 -38.95 1.5 -38.95 0.5 -38.95 -0.5 -38.95 -1.2 -38.9 -1.35 -38.85 -1.5 -38.75 -1.6" fill="#333333" fill-rule="evenodd" stroke="none"/>
    <path d="M-17.2 7.65 L-17.15 7.7 -16.85 7.75 -16.7 7.9 -16.6 8.05 -16.55 8.3 -16.5 8.6 -16.45 8.9 -16.4 9.05 -16.4 10.05 -16.4 11.0 -16.4 11.75 -16.4 11.85 -16.35 12.0 -16.3 12.15 -16.3 12.3 -16.3 12.45 -16.3 12.6 -16.3 12.7 -16.3 12.85 -16.25 13.15 -16.2 13.45 -16.15 13.7 -16.1 13.85 -16.1 14.0 -16.1 14.15 -15.95 14.55 -15.8 15.0 -15.75 15.3 -15.7 15.4 -15.6 15.55 -15.55 15.7 -15.5 15.85 -15.45 16.0 -15.4 16.15 -15.35 16.3 -15.3 16.4 -15.2 16.55 -15.1 16.7 -15.05 16.85 -14.95 17.0 -14.85 17.1 -14.7 17.3 -14.6 17.4 -14.0 17.4 -13.95 17.25 -13.85 17.15 -13.75 17.0 -13.7 16.85 -13.65 16.7 -13.65 16.55 -13.65 16.4 -13.65 16.3 -13.65 16.15 -13.6 16.0 -13.6 15.0 -13.6 13.85 -13.6 13.0 -13.6 12.85 -13.6 12.6 -13.6 12.15 -13.6 11.85 -13.6 11.75 -13.6 11.6 -13.65 11.45 -13.7 11.3 -13.7 11.15 -13.7 11.0 -13.65 10.9 -13.65 10.75 -13.65 10.6 -13.6 10.45 -13.55 10.3 -13.5 10.15 -13.25 10.05 -13.05 10.15 -13.0 10.15 -12.95 10.25 -12.8 10.85 -12.7 11.25 -12.65 11.55 -12.55 11.7 -12.55 11.8 -12.55 11.95 -12.55 12.25 -12.55 12.55 -12.55 12.7 -12.55 12.8 -12.5 12.95 -12.5 13.95 -12.5 15.1 -12.5 15.95 -12.45 16.1 -12.45 16.35 -12.45 16.8 -12.45 17.1 -12.45 17.2 -12.5 17.35 -12.6 17.5 -12.7 17.65 -12.75 17.8 -12.85 17.95 -12.9 18.05 -12.95 18.2 -13.1 18.35 -13.25 18.5 -13.75 18.65 -14.2 18.7 -14.5 18.75 -14.9 18.65 -15.25 18.5 -15.7 18.1 -15.9 17.8 -16.05 17.65 -16.1 17.5 -16.2 17.35 -16.3 17.2 -16.35 17.1 -16.4 16.95 -16.5 16.8 -16.55 16.65 -16.6 16.5 -16.65 16.35 -16.75 16.25 -16.8 16.25 -17.0 17.05 -17.25 18.05 -17.45 18.8 -17.55 18.95 -17.65 19.35 -17.8 19.8 -17.9 20.05 -17.95 20.2 -18.1 20.35 -18.2 20.5 -18.4 20.65 -18.75 20.75 -19.05 20.7 -19.3 20.7 -19.5 20.6 -19.85 20.45 -20.0 20.3 -20.9 19.45 -21.4 18.9 -21.45 18.75 -21.55 18.6 -21.6 18.45 -21.65 18.3 -21.7 18.15 -21.75 18.05 -21.85 17.9 -21.9 17.75 -21.95 17.6 -22.05 17.45 -22.15 17.3 -22.2 17.15 -22.3 17.05 -22.4 16.9 -22.5 16.75 -22.55 16.6 -22.6 16.45 -22.7 16.3 -22.75 16.2 -22.85 16.05 -22.9 15.9 -23.1 15.35 -23.25 14.9 -23.35 14.85 -23.35 15.0 -23.35 15.15 -23.35 15.3 -23.35 15.4 -23.35 15.55 -23.3 15.7 -23.3 15.85 -23.3 16.0 -23.3 16.15 -23.35 16.3 -23.35 16.4 -23.35 16.55 -23.4 16.85 -23.45 17.15 -23.5 17.4 -23.5 17.55 -23.5 17.7 -23.5 17.85 -23.6 18.1 -23.6 18.25 -23.65 18.4 -23.7 18.55 -23.8 18.7 -23.85 18.85 -23.95 18.95 -24.0 19.1 -24.1 19.25 -24.2 19.4 -24.25 19.55 -24.35 19.7 -24.4 19.85 -24.6 19.95 -25.0 20.05 -25.3 20.05 -26.35 19.7 -27.05 19.25 -27.25 18.95 -27.35 18.85 -27.4 18.85 -27.45 18.95 -27.45 19.1 -27.5 19.25 -27.6 19.4 -27.9 19.7 -28.0 19.8 -28.2 19.95 -28.6 20.05 -28.9 20.05 -29.2 20.0 -29.3 19.95 -29.45 19.9 -29.7 19.75 -29.9 19.6 -30.4 19.15 -30.85 18.6 -31.05 18.3 -31.1 18.15 -31.2 18.05 -31.25 17.9 -31.3 17.75 -31.4 17.6 -31.45 17.45 -31.7 17.55 -31.95 17.7 -32.35 17.8 -33.4 17.7 -33.5 17.7 -33.9 17.3 -34.35 16.75 -34.55 16.45 -34.6 16.3 -34.7 16.2 -34.75 16.05 -34.85 15.9 -34.9 15.75 -34.95 15.6 -35.0 15.45 -35.0 15.35 -35.0 15.2 -35.0 15.05 -34.95 14.9 -34.9 14.75 -34.9 14.6 -34.9 14.5 -34.85 14.35 -34.8 14.2 -34.7 14.05 -34.5 13.9 -34.35 13.75 -34.1 13.65 -33.75 13.75 -33.65 13.9 -33.6 14.05 -33.55 14.2 -33.55 14.35 -33.55 14.5 -33.55 14.6 -33.55 14.75 -33.5 14.9 -33.45 15.05 -33.45 15.2 -33.4 15.35 -33.3 15.45 -33.25 15.6 -33.2 15.75 -33.1 15.9 -33.0 16.05 -32.9 16.2 -32.6 16.1 -32.55 16.05 -32.55 15.05 -32.55 14.05 -32.55 13.35 -32.5 13.2 -32.4 13.05 -32.35 12.9 -32.15 12.75 -31.8 12.7 -31.5 12.7 -31.35 12.8 -31.2 12.95 -31.1 13.1 -31.05 13.25 -31.0 13.4 -30.95 13.55 -30.85 13.65 -30.7 14.5 -30.5 15.5 -30.35 16.1 -30.25 16.25 -30.2 16.35 -30.15 16.5 -30.1 16.65 -30.05 16.8 -29.95 16.95 -29.9 17.1 -29.85 17.2 -29.8 17.35 -29.7 17.5 -29.5 17.8 -29.4 17.95 -29.3 18.05 -29.1 18.2 -29.0 18.2 -28.95 18.15 -28.95 17.15 -28.95 15.9 -28.95 14.9 -29.0 14.6 -29.05 14.35 -29.1 14.05 -29.15 13.9 -29.15 13.75 -29.15 13.6 -29.2 13.35 -29.25 13.05 -29.3 12.75 -29.35 12.65 -29.35 12.5 -29.35 12.2 -29.35 11.9 -29.35 11.8 -29.35 11.65 -29.3 11.5 -29.2 11.35 -29.1 11.2 -28.9 11.05 -28.6 10.95 -28.3 11.05 -28.2 11.05 -28.05 11.15 -27.95 11.3 -27.9 11.45 -27.85 11.6 -27.85 11.75 -27.85 11.85 -27.8 12.0 -27.75 12.15 -27.7 12.3 -27.65 12.45 -27.65 12.6 -27.65 12.85 -27.65 13.15 -27.65 13.3 -27.65 13.45 -27.6 13.6 -27.6 13.7 -27.6 13.85 -27.55 14.0 -27.55 14.15 -27.5 14.3 -27.5 14.45 -27.5 14.55 -27.35 15.3 -27.1 16.15 -26.95 16.7 -26.55 17.25 -26.15 17.85 -26.0 18.1 -25.8 18.25 -25.5 18.35 -25.3 18.3 -25.2 18.15 -25.1 17.75 -25.05 17.3 -25.0 17.05 -24.95 16.9 -24.95 16.75 -24.95 16.6 -24.9 16.3 -24.85 16.05 -24.8 15.9 -24.75 15.75 -24.75 14.2 -24.75 12.05 -24.75 10.2 -24.8 9.95 -24.9 9.65 -24.9 9.5 -24.95 9.35 -24.95 9.2 -24.95 9.1 -24.95 8.95 -24.95 8.8 -24.95 8.65 -24.9 8.5 -24.85 8.35 -24.75 8.25 -24.55 8.1 -24.25 8.0 -24.0 8.05 -23.9 8.1 -23.75 8.2 -23.6 8.3 -23.5 8.6 -23.45 8.9 -23.35 9.15 -23.3 9.3 -23.2 9.45 -23.15 9.75 -23.1 10.05 -23.05 10.3 -23.0 10.45 -23.0 10.6 -23.0 10.75 -22.95 10.9 -22.8 11.3 -22.65 11.75 -22.55 12.0 -22.5 12.15 -22.2 13.3 -21.8 14.55 -21.5 15.55 -21.4 15.7 -21.3 15.85 -21.25 16.0 -21.15 16.15 -21.05 16.3 -20.95 16.4 -20.9 16.55 -20.8 16.7 -20.75 16.85 -20.7 17.0 -20.6 17.15 -20.55 17.25 -20.5 17.4 -20.4 17.55 -20.35 17.7 -20.3 17.85 -20.2 18.0 -20.15 18.1 -19.8 18.55 -19.35 18.95 -19.1 19.1 -18.85 18.25 -18.5 17.1 -18.25 16.3 -18.25 16.15 -18.25 16.0 -18.25 15.85 -18.2 15.7 -18.15 15.55 -18.15 15.4 -18.15 15.3 -18.1 15.15 -18.1 15.0 -18.1 14.85 -18.1 14.7 -18.05 14.55 -18.0 14.45 -18.0 14.3 -18.0 14.15 -18.0 14.0 -17.95 13.85 -17.95 13.7 -17.95 13.6 -17.9 13.45 -17.9 13.3 -17.9 13.15 -17.9 13.0 -17.85 12.85 -17.85 11.85 -17.85 10.6 -17.85 9.6 -17.8 9.45 -17.8 9.05 -17.8 8.6 -17.8 8.3 -17.8 8.2 -17.75 8.05 -17.65 7.9 -17.45 7.75 -17.2 7.65" fill="#333333" fill-rule="evenodd" stroke="none"/>
    <path d="M-40.45 7.0 L-40.25 7.3 -40.15 7.4 -40.1 7.55 -40.05 7.7 -40.0 7.85 -39.95 8.0 -39.85 8.15 -39.8 8.25 -39.7 8.4 -39.6 8.7 -39.4 9.4 -39.15 10.1 -38.95 10.7 -38.95 10.85 -38.95 11.4 -38.95 11.95 -38.95 12.4 -38.9 12.55 -38.9 12.7 -38.9 12.8 -38.95 12.95 -39.25 13.4 -39.65 13.8 -40.0 14.1 -40.35 14.2 -41.65 14.15 -43.4 13.05 -44.45 12.05 -44.5 11.9 -44.6 11.8 -44.65 11.65 -44.75 11.5 -44.8 11.4 -44.85 11.55 -44.85 11.8 -44.85 12.25 -44.85 12.7 -44.85 12.95 -44.85 13.1 -44.9 13.25 -44.95 13.4 -45.05 13.5 -45.2 13.65 -45.4 13.8 -45.8 13.95 -46.2 14.05 -46.95 13.95 -47.55 13.7 -47.95 13.3 -48.8 12.45 -49.45 11.75 -49.5 11.6 -49.6 11.45 -49.65 11.3 -49.75 11.15 -49.8 11.0 -49.85 10.9 -49.95 10.9 -50.15 11.0 -50.35 11.15 -50.6 11.3 -51.35 11.6 -51.7 11.7 -51.95 11.65 -52.0 11.6 -52.1 11.5 -52.25 11.35 -52.35 11.2 -52.35 11.05 -52.3 10.95 -52.2 10.8 -51.4 10.35 -50.75 9.95 -50.65 9.8 -50.6 9.65 -50.5 9.5 -50.5 9.35 -50.45 9.2 -50.4 9.1 -50.4 8.95 -50.4 8.8 -50.35 8.65 -50.25 8.5 -50.1 8.35 -49.8 8.25 -49.55 8.35 -49.45 8.35 -49.35 8.45 -49.1 8.75 -49.0 8.9 -49.0 9.05 -49.0 9.15 -49.0 9.3 -48.95 9.45 -48.8 9.9 -48.65 10.3 -48.6 10.6 -48.5 10.75 -48.45 10.9 -48.4 11.0 -48.35 11.15 -48.1 11.45 -47.35 12.15 -46.7 12.7 -46.1 12.7 -46.05 12.6 -46.05 11.0 -46.05 9.45 -46.05 8.2 -46.0 8.05 -45.9 7.9 -45.75 7.75 -45.45 7.65 -45.1 7.75 -44.95 7.9 -44.85 8.05 -44.8 8.2 -44.7 8.3 -44.65 8.45 -44.55 8.6 -44.4 8.75 -44.3 8.9 -44.2 9.05 -44.2 9.15 -44.15 9.45 -44.1 9.75 -44.0 10.05 -43.95 10.15 -43.9 10.3 -43.85 10.45 -43.75 10.6 -43.7 10.75 -43.6 10.9 -43.55 11.0 -43.45 11.15 -43.4 11.3 -42.6 12.15 -41.4 12.85 -40.5 12.9 -40.45 12.85 -40.4 12.75 -40.25 12.65 -40.15 12.5 -40.1 12.35 -40.1 12.2 -40.1 11.8 -40.1 11.35 -40.1 11.05 -40.45 9.95 -40.8 8.8 -41.15 7.8 -41.25 7.65 -41.3 7.5 -41.4 7.35 -41.45 7.25 -41.55 7.1 -41.6 6.95 -41.7 6.8 -41.75 6.65 -41.8 6.5 -41.7 6.4 -41.55 6.25 -41.3 6.15 -41.25 6.15 -41.1 6.2 -40.95 6.3 -40.85 6.45 -40.8 6.55 -40.7 6.7 -40.45 7.0" fill="#333333" fill-rule="evenodd" stroke="none"/>
  </g>
</svg>
