<?xml version="1.0" encoding="UTF-8" standalone="no"?>
<svg xmlns:xlink="http://www.w3.org/1999/xlink" height="61.5px" width="116.7px" xmlns="http://www.w3.org/2000/svg">
  <g transform="matrix(1.0, 0.0, 0.0, 1.0, 59.15, 28.45)">
    <path d="M-50.6 -7.65 L-50.95 -6.95 -51.15 -6.4 -51.15 -5.75 -51.15 -5.15 -51.15 -4.45 -51.15 -3.85 -51.15 -3.25 -51.0 -2.6 -50.8 -1.95 -50.6 -1.35 -50.25 -0.7 Q-49.95 -0.45 -49.65 -0.4 L-49.45 -0.45 -49.8 -1.15 -50.05 -1.75 -50.05 -2.4 -50.05 -4.3 -50.05 -6.2 -50.05 -8.05 -50.1 -8.25 -50.2 -8.25 -50.4 -8.05 -50.6 -7.65 M-42.0 -6.55 L-42.1 -5.95 -42.1 -5.35 -42.0 -5.0 -40.0 -4.7 -40.4 -5.35 -40.55 -5.95 -40.75 -6.55 -41.15 -7.25 -41.15 -7.35 -41.65 -7.15 -42.0 -6.55 M46.35 -8.85 L46.25 -8.9 46.2 -7.85 46.2 -6.55 46.2 -5.35 46.75 -4.7 48.25 -4.7 48.25 -4.9 48.1 -5.5 47.9 -6.2 47.7 -6.8 47.3 -7.4 46.95 -8.05 46.55 -8.7 46.35 -8.85 M13.6 -12.45 L13.05 -12.9 12.3 -13.5 Q12.2 -13.6 12.05 -13.65 L11.75 -13.6 11.9 -13.35 12.85 -12.7 13.6 -12.45 M17.6 -27.6 L17.6 -27.5 18.7 -27.35 20.8 -26.35 23.8 -25.0 25.75 -23.8 26.5 -23.4 27.45 -23.6 28.95 -24.05 30.45 -24.05 31.95 -24.1 33.3 -24.25 34.25 -24.6 35.75 -25.1 39.55 -25.0 40.7 -24.8 41.25 -24.65 41.8 -24.2 Q43.0 -22.8 44.5 -21.75 L46.35 -20.45 48.25 -19.2 49.2 -18.55 49.75 -17.95 50.75 -16.65 51.25 -16.0 51.7 -15.4 52.05 -14.8 52.45 -14.15 53.0 -13.5 53.25 -12.9 53.95 -11.6 54.35 -11.0 54.65 -10.35 54.95 -9.8 55.25 -9.05 55.45 -8.45 55.6 -7.85 55.7 -7.25 55.85 -6.55 56.05 -5.95 56.2 -5.35 56.2 -4.7 56.2 -3.4 56.2 -2.2 56.2 -1.55 56.2 -0.9 56.2 -0.3 56.2 0.35 56.05 0.95 55.6 1.6 55.15 2.3 54.9 2.85 55.25 3.5 55.4 4.15 55.45 4.75 55.7 5.35 56.0 6.0 56.2 6.65 56.2 7.3 56.2 7.9 56.2 8.5 56.2 9.2 56.2 9.8 56.2 10.45 56.2 11.05 56.05 11.65 55.8 12.3 55.25 12.95 54.7 13.55 54.1 14.15 53.4 14.85 51.85 15.3 51.1 15.65 49.4 16.15 49.2 16.35 Q46.8 18.9 43.55 19.9 L39.9 20.75 35.0 21.4 32.15 22.15 25.75 23.1 25.35 23.25 24.6 23.7 Q21.65 25.75 18.45 27.25 16.75 28.05 14.9 28.35 L10.75 28.9 10.2 29.3 8.5 29.75 -0.45 29.45 -4.2 28.25 -7.05 27.05 -9.7 27.6 -17.25 28.0 -18.4 27.85 -19.15 27.4 -20.1 26.8 -21.05 26.15 -21.8 25.55 -22.4 24.95 -23.35 24.5 -24.45 24.25 -25.05 24.1 -25.8 23.65 -26.95 24.05 -28.65 24.5 -32.05 24.2 -32.8 24.1 -33.55 23.85 -34.3 23.65 -35.05 23.45 -35.8 23.05 -36.75 22.4 -37.55 21.8 -38.5 21.15 -39.05 20.5 -39.6 19.9 -40.2 19.25 -41.35 18.65 -42.65 17.95 -43.6 17.35 -44.35 16.75 -45.3 16.1 -45.85 15.45 -47.0 14.15 -47.95 12.95 -48.35 12.35 -48.7 11.65 -49.05 11.05 -49.3 10.45 -49.85 9.8 -50.8 9.2 -51.75 8.5 -52.5 7.95 Q-52.95 7.55 -53.45 7.25 L-54.2 6.7 -55.15 6.0 -55.7 5.35 -56.1 4.75 -56.5 4.15 -56.85 3.5 -57.25 2.85 -57.6 2.25 -57.8 1.6 -58.0 0.95 -58.35 0.35 -58.4 -0.3 -58.55 -0.9 -58.75 -1.55 -58.95 -2.2 -59.15 -2.8 -59.15 -3.4 -59.15 -4.7 -59.15 -5.35 -59.15 -5.95 -59.15 -6.55 -59.15 -7.25 -59.15 -7.85 -59.15 -8.45 -58.95 -9.15 -58.75 -9.75 -58.55 -10.35 -58.2 -11.0 -57.8 -11.6 -57.45 -12.3 -57.05 -12.9 -56.65 -13.5 -56.1 -14.15 -54.2 -15.4 -53.25 -16.05 -52.5 -16.65 -51.55 -17.3 -50.6 -17.95 -49.1 -18.35 -39.6 -18.55 -38.7 -19.0 -37.55 -19.6 -36.4 -20.25 -34.6 -22.9 -32.0 -25.2 Q-30.45 -26.45 -28.6 -27.1 L-27.1 -27.6 -19.95 -27.15 -18.4 -26.8 -16.9 -26.3 -15.4 -26.65 -13.65 -27.15 -11.95 -27.6 -2.85 -27.15 Q-0.15 -26.5 2.25 -24.8 L3.95 -23.6 4.9 -23.2 5.65 -23.4 7.2 -24.55 9.45 -25.85 12.3 -27.1 13.8 -27.6 17.6 -27.6" fill="#5b5546" fill-opacity="0.3019608" fill-rule="evenodd" stroke="none"/>
    <path d="M25.55 0.5 L25.55 0.45 Q23.45 0.35 21.4 0.5 L21.0 0.75 20.6 1.4 20.2 2.0 19.65 2.65 20.4 3.1 21.35 3.2 21.95 3.1 22.9 2.45 24.0 1.8 25.15 1.2 25.55 0.5 M3.6 -3.2 L4.7 -3.85 6.2 -4.3 13.4 -3.95 14.0 -3.85 14.75 -4.1 15.75 -5.25 17.2 -6.55 18.15 -7.25 19.1 -7.85 20.6 -8.3 Q25.45 -9.05 29.9 -6.95 L30.65 -6.55 31.8 -6.8 Q32.85 -7.5 33.45 -8.7 L34.1 -9.95 34.45 -10.55 34.8 -11.25 35.75 -11.85 37.3 -12.3 41.85 -12.3 41.85 -12.2 42.95 -11.95 43.35 -11.85 44.1 -11.45 Q45.55 -10.8 46.6 -9.55 L49.45 -6.4 Q50.55 -5.3 51.25 -3.85 L51.5 -3.25 51.7 -1.95 52.05 -0.7 52.45 0.5 52.6 1.2 52.8 1.8 52.8 2.45 52.8 3.7 52.8 5.55 52.8 8.1 52.75 9.35 52.6 10.0 52.3 10.65 52.05 11.3 52.0 11.9 51.7 13.15 51.5 13.8 51.3 14.45 51.1 15.05 50.1 16.2 47.15 18.25 46.45 18.9 46.2 19.45 46.2 20.1 46.2 20.7 46.15 21.3 46.0 22.0 45.55 22.55 Q44.25 24.1 42.55 25.1 L40.3 26.4 39.35 27.05 38.8 27.65 37.65 28.3 36.5 28.9 35.0 29.3 30.45 29.25 29.35 29.1 28.95 28.9 28.0 29.05 Q21.35 30.45 14.95 28.25 L13.25 27.65 11.9 27.65 10.95 28.3 9.25 28.75 Q1.5 31.35 -6.5 29.95 -10.35 29.35 -13.6 26.85 -16.85 24.45 -18.8 20.7 L-18.95 20.1 -19.15 19.45 -19.35 18.85 -19.55 18.2 -19.75 17.55 -19.75 16.95 -19.75 15.65 -19.75 13.8 -19.75 11.9 -19.7 11.3 -19.55 10.6 -19.25 9.95 Q-18.7 8.35 -17.25 7.5 L-14.95 6.35 -13.5 5.8 -12.35 6.0 -11.95 6.0 -11.75 4.95 -11.4 3.7 -11.2 3.1 -11.0 2.45 -10.85 1.8 -10.45 1.2 -10.05 0.6 -9.5 -0.1 -8.95 -0.7 -8.75 -1.35 -8.55 -1.95 -8.15 -2.6 -7.6 -3.25 -6.65 -3.85 -5.15 -4.3 -2.9 -4.2 -1.75 -4.0 -1.15 -3.85 -0.4 -3.4 0.75 -2.85 1.85 -2.4 2.8 -2.6 3.6 -3.2" fill="#5b5546" fill-opacity="0.3019608" fill-rule="evenodd" stroke="none"/>
    <path d="M16.25 -4.3 L16.8 -3.65 17.55 -2.35 17.8 -1.8 18.1 -1.1 18.35 -0.45 18.5 0.15 18.55 0.75 18.55 1.4 18.55 2.0 18.55 2.65 18.35 3.3 18.25 3.9 18.35 4.5 18.7 5.2 18.9 5.8 19.1 6.45 19.3 7.05 19.3 7.7 19.3 8.35 19.3 8.95 19.3 10.25 19.3 10.85 19.3 11.45 19.3 12.1 19.5 12.75 19.65 13.4 19.85 14.0 19.85 15.9 19.85 17.15 19.85 18.4 19.85 19.65 19.85 20.3 19.85 20.95 19.65 21.55 19.5 22.2 19.3 23.45 19.25 24.1 19.1 24.7 18.9 25.35 18.5 25.95 17.95 26.6 17.4 27.25 Q6.15 34.95 -7.05 32.4 -12.5 31.3 -16.9 27.4 L-30.5 26.4 Q-37.3 25.7 -42.65 21.05 -45.45 18.65 -47.75 15.65 L-52.0 11.8 -54.2 8.75 -55.7 6.25 -56.1 5.55 -56.3 4.95 -56.5 4.35 -56.85 3.7 -56.9 3.1 -57.05 2.45 -57.25 1.8 -57.45 1.2 -57.45 0.5 -57.45 -0.1 -57.45 -0.7 -57.45 -1.35 -57.45 -1.95 -57.45 -2.6 -57.45 -3.25 -57.25 -3.85 -57.05 -4.45 -56.85 -5.15 -56.65 -5.75 -56.35 -6.4 -56.05 -6.95 -55.7 -7.65 -54.2 -8.9 -52.7 -10.2 -52.1 -10.8 -51.55 -11.4 -50.6 -12.05 -49.1 -12.45 -43.8 -12.45 -43.75 -12.35 -42.1 -12.05 -38.65 -10.25 Q-36.9 -9.3 -35.7 -7.55 L-34.55 -5.75 -34.3 -5.15 -34.05 -4.6 -33.35 -3.85 -32.4 -3.4 -31.5 -3.65 -29.0 -4.85 Q-26.0 -6.15 -22.8 -6.7 L-22.75 -7.0 -22.7 -7.65 -22.55 -8.3 -22.4 -8.9 -22.2 -9.5 -21.8 -10.1 -21.25 -10.8 -20.3 -11.4 -18.8 -11.85 -14.25 -11.85 -12.55 -11.4 -11.6 -10.8 -11.0 -10.2 -10.45 -9.5 -9.9 -8.9 -9.3 -8.3 -8.55 -7.85 8.1 -7.2 10.4 -6.8 Q13.45 -5.95 16.25 -4.3" fill="#5b5546" fill-opacity="0.3019608" fill-rule="evenodd" stroke="none"/>
    <path d="M48.1 -1.15 L47.7 -1.75 47.9 -1.75 48.45 -1.75 49.0 -1.55 50.15 -1.15 50.9 -0.45 51.2 0.15 51.3 0.75 51.3 1.4 51.15 1.85 50.85 1.85 Q50.65 1.7 50.6 1.35 L50.55 0.75 50.25 0.2 49.6 -0.45 48.1 -1.15" fill="#5b5546" fill-opacity="0.3019608" fill-rule="evenodd" stroke="none"/>
    <path d="M11.7 14.95 L11.7 15.45 12.85 16.0 14.95 16.7 16.05 16.5 15.75 15.9 15.45 15.3 15.15 14.6 14.95 14.0 14.7 13.85 14.2 13.85 13.4 14.0 12.65 14.2 12.1 14.45 11.7 14.95 M31.15 11.3 L31.2 10.6 31.1 10.05 30.65 9.4 29.9 8.75 Q29.7 8.6 29.5 8.6 L25.35 8.75 26.55 9.7 Q27.8 10.5 28.75 11.75 L29.5 12.75 30.25 12.5 30.95 11.85 31.15 11.3 M3.0 1.2 L3.95 0.5 5.85 -0.1 Q10.1 -1.4 14.55 -0.7 L16.25 -0.3 17.4 0.35 18.55 0.95 19.85 1.2 21.75 0.7 Q26.6 -0.75 31.6 0.5 L32.35 0.95 33.3 1.2 33.85 0.75 34.65 0.15 35.45 -0.65 35.6 -1.15 35.8 -1.75 36.1 -2.4 36.35 -3.05 37.1 -3.65 38.0 -4.3 38.8 -4.9 40.3 -5.35 41.45 -5.15 41.65 -5.15 42.05 -5.5 42.75 -6.2 44.1 -6.55 45.6 -6.2 46.4 -5.6 Q46.55 -5.4 46.75 -5.35 L46.6 -5.75 46.35 -6.4 46.2 -7.0 46.0 -7.65 45.6 -8.3 Q45.15 -8.55 44.65 -8.9 L44.15 -9.55 43.9 -10.2 44.65 -10.85 45.25 -11.4 46.35 -11.85 46.95 -12.0 47.9 -12.3 47.9 -12.2 Q48.55 -11.95 49.2 -11.85 L49.6 -11.25 49.95 -10.55 50.15 -9.95 50.35 -9.35 50.9 -8.7 51.3 -8.05 51.5 -7.4 51.7 -6.8 51.85 -6.2 Q51.75 -4.85 51.9 -3.65 L52.05 -1.15 52.1 1.4 51.85 3.3 51.5 3.9 51.25 4.5 51.0 5.2 50.9 5.8 50.9 7.05 50.9 8.95 50.9 10.85 50.85 12.1 50.75 13.4 50.35 14.0 50.0 14.65 49.8 15.3 49.75 15.9 49.6 16.5 49.4 17.15 48.85 17.75 48.25 18.4 47.7 19.05 46.35 20.3 44.85 20.7 41.05 21.55 39.55 21.5 38.4 21.4 37.85 20.95 35.6 21.4 30.45 22.0 Q29.6 22.5 28.7 22.95 15.95 28.8 2.45 24.5 L1.45 25.1 0.35 25.75 -1.35 26.2 -7.05 25.75 -9.3 25.35 -15.75 25.0 -19.9 24.3 -21.05 24.5 Q-26.25 25.5 -30.9 23.25 L-35.8 22.45 Q-37.75 22.1 -39.45 20.95 L-41.75 18.45 Q-42.85 17.35 -43.55 15.85 L-44.35 14.0 -45.3 13.55 -46.45 13.4 -47.2 12.9 -47.95 12.35 -48.7 11.05 -49.05 10.4 -49.3 9.8 -49.85 8.5 -49.85 7.9 -49.85 7.3 -49.85 6.65 -49.85 6.0 -49.85 5.4 -50.05 4.75 -50.25 4.15 -50.4 3.5 -50.6 2.85 -50.6 2.25 -50.6 0.95 -50.6 -0.3 -50.55 -1.55 -50.4 -2.8 -50.1 -3.45 -49.85 -4.1 -49.3 -4.7 -48.35 -5.35 -46.8 -5.75 -46.05 -6.2 -44.55 -6.55 -42.85 -6.2 -42.1 -5.5 -41.55 -4.9 -41.15 -4.25 -40.95 -3.65 -40.8 -3.05 -40.75 -2.4 -40.75 -1.75 -40.75 -1.15 -40.0 -1.15 -38.5 -1.55 -36.95 -1.45 -35.85 -1.35 -34.9 -0.9 -34.3 -0.3 -33.8 0.35 -33.4 0.95 -33.2 1.6 -32.4 1.8 -30.15 1.8 -28.45 2.25 -27.7 2.65 -26.35 2.7 -24.5 3.0 -21.65 3.9 -20.9 4.55 -20.3 5.2 -19.75 5.8 -19.1 5.65 -18.8 5.2 -18.2 4.5 -17.25 3.9 -15.75 3.5 -12.7 3.5 -11.95 3.5 -11.2 3.1 -9.7 2.65 -6.7 2.8 Q-4.6 3.0 -2.7 3.9 L-1.95 4.55 -1.35 5.2 -0.65 5.25 -0.2 4.95 0.2 4.35 1.3 3.1 1.85 2.45 3.0 1.2" fill="#5b5546" fill-opacity="0.3019608" fill-rule="evenodd" stroke="none"/>
    <path d="M20.6 -26.75 L21.95 -26.15 22.7 -25.5 23.3 -24.9 24.0 -24.25 24.8 -23.6 25.95 -23.2 27.05 -23.1 27.45 -23.2 28.4 -23.8 32.0 -24.4 33.5 -24.4 34.65 -24.25 35.4 -23.8 36.5 -23.2 Q37.1 -22.9 37.65 -22.55 L38.6 -21.95 39.15 -21.25 39.75 -20.65 43.7 -19.95 44.85 -19.6 Q45.7 -19.25 46.55 -19.0 L47.5 -18.35 48.45 -17.7 49.2 -17.1 49.95 -16.45 50.35 -15.85 50.75 -15.25 51.1 -14.55 51.3 -13.95 51.7 -12.7 52.05 -11.4 52.25 -10.8 52.45 -10.2 52.6 -9.5 52.6 -8.9 52.6 -7.65 52.6 -6.4 52.6 -5.75 52.6 -3.85 52.6 -2.6 52.6 -1.95 52.6 -1.35 52.45 -0.7 52.2 0.5 52.05 1.2 51.85 1.8 51.7 2.45 51.5 3.1 50.5 4.3 49.95 4.95 47.7 7.5 46.55 8.75 46.0 9.4 45.05 10.0 43.35 10.4 42.95 10.45 42.2 10.6 40.9 11.05 40.1 11.65 39.75 12.35 39.35 12.95 38.8 13.55 38.2 14.15 37.45 14.85 35.0 15.45 34.05 15.65 31.2 16.35 28.2 16.95 26.65 17.15 26.1 17.55 Q16.85 20.7 7.0 18.7 4.3 18.15 1.65 17.15 L0.35 17.2 0.15 17.4 -0.25 17.7 -1.15 18.4 -2.85 18.85 Q-8.5 19.9 -13.8 17.95 -15.65 17.25 -17.65 16.95 L-18.4 16.55 Q-19.35 16.2 -20.3 16.0 L-22.0 15.8 -22.4 15.9 -23.15 16.35 -24.3 16.95 -25.4 17.55 -27.1 18.0 -34.3 17.7 -34.9 17.55 -35.95 16.45 -36.4 15.9 -36.75 15.2 -36.95 14.6 -37.15 14.0 -37.1 13.4 -37.0 12.75 -36.95 12.1 -36.95 11.45 -36.8 10.85 -36.7 10.25 -36.8 9.55 -39.8 7.75 -44.0 4.55 -44.7 3.85 -47.5 0.7 -48.35 -0.45 -48.5 -1.15 -48.7 -1.75 -48.9 -2.4 -49.1 -3.05 -49.3 -3.65 -49.45 -4.3 -49.45 -4.9 -49.45 -6.2 -49.45 -6.8 -49.45 -7.4 -49.4 -8.05 -49.3 -8.7 -49.05 -9.3 -48.7 -9.95 -48.35 -10.55 -48.05 -11.25 -47.95 -11.85 -47.95 -12.45 -47.95 -13.1 -47.95 -13.75 -47.95 -14.35 -47.75 -15.0 -47.6 -15.6 -47.4 -16.3 -47.0 -16.9 -46.6 -17.5 -46.05 -18.15 -45.5 -18.8 -44.9 -19.4 Q-42.75 -20.6 -40.35 -20.9 L-33.55 -21.5 -32.8 -21.7 -32.05 -21.9 -30.9 -22.15 -30.15 -22.35 -29.35 -22.95 -28.25 -23.55 -26.55 -24.2 -24.85 -24.65 -18.75 -24.1 -16.9 -23.7 -16.3 -23.8 -15.4 -24.5 -14.6 -25.05 -13.5 -25.7 -11.95 -26.15 -8.95 -25.95 Q-6.15 -25.65 -3.5 -24.7 L-0.6 -23.6 0.15 -23.6 0.7 -24.25 1.65 -24.9 3.2 -25.15 8.3 -25.6 8.3 -25.7 8.7 -26.1 9.45 -26.75 10.2 -27.35 11.55 -28.0 13.05 -28.45 16.05 -28.45 16.1 -28.3 17.75 -28.05 19.3 -27.35 20.6 -26.75" fill="#5b5546" fill-opacity="0.3019608" fill-rule="evenodd" stroke="none"/>
    <path d="M-13.85 7.7 L-14.0 7.75 -16.05 10.1 -18.2 12.75 -17.85 13.4 -16.9 13.8 -12.9 13.4 -13.25 11.45 -13.55 9.6 -13.85 7.7 M-18.4 -9.5 L-18.5 -9.6 -18.8 -9.15 -19.35 -7.85 -19.9 -6.55 -19.9 -5.95 -19.9 -5.35 -19.9 -4.7 -19.9 -4.1 -19.9 -3.4 -20.25 -2.15 -20.65 -0.35 Q-20.95 0.6 -20.5 1.4 L-20.2 1.15 -19.9 0.5 -19.75 -0.1 -19.35 -0.7 -19.15 -1.35 -18.95 -1.95 -18.65 -2.65 -18.4 -3.25 -18.4 -3.85 -18.4 -5.75 -18.4 -7.65 -18.4 -9.5 M-28.25 -8.9 L-28.25 -9.5 -28.25 -10.2 -28.3 -10.8 -28.45 -11.4 -28.65 -11.5 -29.05 -10.55 -29.4 -9.35 -29.75 -8.05 -29.75 -7.4 -29.75 -5.5 -29.75 -3.65 -29.75 -1.75 -29.7 -1.15 -29.6 -1.05 -29.2 -1.35 -29.05 -2.6 -29.0 -4.45 -29.0 -6.4 -28.8 -7.0 -28.65 -7.65 -28.45 -8.3 -28.25 -8.9 M6.95 14.6 L6.6 14.5 6.45 14.65 6.4 15.3 6.65 15.9 7.0 16.5 7.55 17.15 8.15 17.75 8.85 18.4 10.4 18.4 10.95 17.75 10.05 17.1 8.5 15.9 6.95 14.6 M42.75 8.5 L42.7 8.55 42.6 9.8 42.65 11.05 42.75 11.65 42.75 11.05 42.75 10.45 42.75 9.8 42.75 9.2 42.75 8.5 M31.05 1.6 L30.95 1.5 Q30.5 2.0 30.6 2.85 L30.75 4.05 31.05 4.75 31.05 4.15 31.05 3.5 31.05 2.85 31.05 2.25 31.05 1.6 M18.15 -12.05 L17.55 -12.7 16.8 -13.35 16.45 -13.45 15.75 -13.4 Q15.5 -13.35 15.3 -13.1 L14.55 -12.5 Q13.5 -11.8 12.85 -10.55 L12.3 -9.35 12.7 -4.9 Q12.8 -1.7 12.45 1.4 L11.9 7.05 12.3 7.7 12.65 8.35 15.1 10.25 17.95 12.1 18.7 12.35 19.5 11.9 19.85 11.3 20.6 10.0 21.0 9.4 21.35 8.75 21.55 8.1 21.75 7.5 21.9 6.85 21.95 6.25 21.6 5.55 21.0 4.3 20.75 3.75 20.4 3.1 20.25 2.45 20.05 1.8 19.85 1.2 19.65 0.5 19.3 -0.1 19.1 -0.7 18.65 -3.85 Q18.25 -6.0 18.35 -8.3 18.45 -10.2 18.15 -12.05 M14.55 -23.6 L16.25 -23.25 20.6 -22.75 21.35 -23.0 22.9 -23.4 24.4 -23.3 26.1 -22.95 Q28.1 -22.4 29.9 -21.25 L31.95 -20.0 32.55 -19.6 34.25 -19.6 35.75 -19.2 36.9 -18.55 37.85 -17.95 39.55 -16.05 41.15 -14.05 43.3 -11.0 44.5 -9.15 46.0 -6.55 46.75 -5.35 47.15 -4.1 47.3 -3.4 47.5 -2.8 47.7 -2.2 48.25 -0.3 48.45 0.35 48.65 0.95 48.85 1.6 49.2 2.25 50.9 2.65 51.85 2.6 51.85 2.45 51.85 2.0 51.8 0.75 51.65 -0.45 51.5 -1.15 51.3 -1.75 50.75 -3.65 50.55 -4.3 50.35 -4.9 50.15 -5.5 49.8 -6.2 49.6 -6.8 48.7 -8.05 47.0 -10.6 45.8 -12.45 43.75 -15.0 42.6 -16.3 42.0 -16.9 40.7 -17.55 39.55 -18.15 39.15 -18.8 38.6 -19.4 37.3 -19.85 36.55 -20.05 35.6 -20.45 35.25 -21.1 35.0 -21.7 35.25 -22.35 35.6 -23.0 36.55 -23.4 37.3 -23.6 38.6 -23.8 39.55 -24.05 40.5 -23.75 40.7 -23.6 41.25 -23.15 41.85 -22.55 43.15 -22.1 44.65 -21.5 45.25 -20.9 46.95 -19.0 47.5 -18.35 48.1 -17.7 48.65 -17.1 49.6 -16.45 51.0 -14.6 51.8 -13.3 Q52.4 -12.25 53.1 -11.35 L54.0 -10.2 54.5 -9.5 55.1 -8.9 55.25 -8.3 55.45 -7.65 55.85 -7.0 56.05 -6.4 56.2 -5.75 56.4 -5.15 56.6 -4.45 57.1 -2.6 57.2 -1.95 57.35 -1.35 57.55 -0.7 57.55 -0.1 57.55 0.5 57.55 1.2 57.55 1.8 57.55 3.7 57.55 4.35 57.5 4.95 57.35 5.55 56.95 6.2 56.4 6.85 55.85 7.5 55.25 8.05 54.5 8.75 53.2 9.05 50.9 9.4 50.0 9.7 49.95 9.8 49.95 10.25 49.95 10.85 49.95 11.45 49.95 12.1 49.95 12.75 49.95 14.0 49.95 14.6 49.9 15.3 49.8 15.9 49.4 16.5 49.0 17.1 48.45 17.75 47.9 18.4 47.3 19.05 46.35 19.65 44.85 20.1 40.3 20.1 38.8 19.65 37.65 19.1 36.5 18.6 35.4 19.25 34.45 19.9 33.15 20.4 32.9 20.5 32.55 20.95 32.0 21.55 30.85 22.8 30.25 23.45 29.7 24.1 29.15 24.7 22.3 27.8 Q19.45 29.05 16.45 29.65 13.8 30.15 11.15 29.55 L10.2 29.1 9.05 28.5 0.95 27.7 Q-2.25 27.2 -4.9 25.05 -6.15 24.0 -7.6 23.25 L-9.7 23.65 -10.65 24.3 -11.55 24.95 -12.35 25.55 -13.3 26.2 -15.75 26.8 Q-20.6 28.1 -25.6 27.35 L-27.3 27.05 -28.05 26.55 -30.5 24.65 -31.05 24.05 -31.5 23.5 -32.05 22.8 -35.45 22.3 -36.95 22.0 -38.1 21.3 -39.05 20.7 -39.8 20.1 -40.55 19.45 -43.8 19.0 -45.3 18.6 -46.45 18.0 -47.35 17.35 -48.15 16.7 -48.9 16.1 -49.3 15.5 -49.8 14.85 -50.25 14.2 -51.35 12.35 -51.75 11.65 -52.1 11.05 -52.5 10.45 Q-53.55 7.7 -53.8 4.75 L-54.05 -2.8 -54.05 -7.25 -53.7 -10.95 -52.7 -14.8 -52.25 -15.4 -50.55 -17.2 -48.85 -18.5 -47.55 -19.1 -46.05 -19.6 -43.8 -19.55 -42.65 -19.4 -41.7 -19.6 -41.1 -20.2 -39.75 -21.4 Q-38.05 -22.55 -36.15 -23.15 L-32.45 -24.1 -32.25 -24.25 -31.65 -24.65 -30.5 -25.2 -28.8 -25.85 -27.1 -26.3 -24.1 -26.3 -24.05 -26.2 -22.95 -26.15 -20.7 -25.5 -19.4 -25.05 -18.2 -24.45 -17.1 -23.8 -15.75 -23.6 -14.25 -23.75 -11.95 -23.8 -10.25 -23.4 -9.3 -22.75 -8.55 -22.35 -7.8 -22.55 -6.05 -23.75 -4.95 -24.45 -3.6 -25.05 -2.1 -25.5 0.15 -25.5 1.85 -25.0 3.2 -24.45 4.5 -23.8 5.45 -23.4 7.75 -23.55 14.55 -23.6" fill="#5b5546" fill-opacity="0.3019608" fill-rule="evenodd" stroke="none"/>
    <path d="M33.45 -18.15 L33.4 -18.45 33.35 -18.7 33.15 -18.4 33.0 -17.65 32.8 -16.95 32.8 -16.8 32.8 -16.7 32.8 -16.55 32.8 -16.4 32.8 -16.25 32.8 -16.1 32.8 -15.95 32.75 -15.85 32.75 -15.7 32.75 -15.55 32.7 -15.4 32.7 -15.25 32.7 -15.1 32.7 -14.95 32.7 -14.85 32.65 -14.7 32.65 -14.55 32.65 -14.4 32.65 -14.25 32.65 -14.1 32.6 -14.0 32.6 -13.85 32.6 -13.7 32.6 -13.55 32.55 -13.4 32.55 -13.25 32.55 -12.85 32.5 -12.4 32.6 -12.1 32.65 -12.2 32.75 -12.3 32.8 -12.45 32.85 -12.6 32.95 -12.75 33.0 -12.9 33.1 -13.05 33.25 -13.45 33.4 -14.15 33.6 -14.9 33.6 -15.45 33.6 -16.3 33.6 -17.15 33.55 -17.3 33.5 -17.45 33.5 -17.6 33.5 -17.7 33.5 -17.85 33.45 -18.15 M37.4 -18.7 L37.45 -18.85 37.6 -19.0 37.9 -19.1 38.1 -19.05 38.15 -19.0 38.3 -18.9 38.4 -18.75 38.5 -18.6 38.6 -18.5 38.65 -18.35 38.7 -18.2 38.7 -18.05 38.7 -17.9 38.75 -17.75 38.75 -17.65 38.8 -17.5 38.85 -17.35 38.85 -15.8 38.85 -14.2 38.85 -12.95 38.85 -12.8 38.9 -12.65 38.85 -12.35 38.7 -11.65 38.55 -10.95 38.4 -10.5 38.4 -10.4 38.4 -9.95 38.4 -9.55 38.4 -9.25 38.4 -9.1 38.45 -8.95 38.5 -8.8 38.55 -8.7 38.6 -8.55 38.65 -8.4 38.65 -8.25 38.65 -8.1 38.65 -7.95 38.65 -7.8 38.95 -7.8 39.4 -8.1 40.05 -8.85 40.3 -9.3 40.35 -9.45 40.45 -9.6 40.5 -9.7 40.55 -9.85 40.65 -10.0 40.7 -10.15 40.8 -10.3 40.8 -10.45 40.9 -10.55 40.95 -10.7 41.05 -10.85 41.1 -11.0 41.15 -11.15 41.25 -11.3 41.3 -11.4 41.35 -11.55 41.4 -11.7 41.4 -12.0 41.4 -12.55 41.4 -13.0 41.4 -13.25 41.45 -13.4 41.45 -13.55 41.45 -14.7 41.45 -15.85 41.45 -16.55 41.4 -16.7 41.4 -16.8 41.4 -16.95 41.35 -17.1 41.35 -17.25 41.35 -17.4 41.35 -17.55 41.35 -17.65 41.35 -17.8 41.4 -17.95 41.45 -18.1 41.5 -18.25 41.7 -18.35 41.9 -18.3 41.95 -18.25 42.05 -18.15 42.05 -18.0 42.1 -17.85 42.1 -17.7 42.1 -17.6 42.1 -17.45 42.1 -17.3 42.15 -17.15 42.15 -17.0 42.15 -16.85 42.2 -16.75 42.2 -16.6 42.2 -16.45 42.25 -16.3 42.3 -16.15 42.3 -15.85 42.3 -15.0 42.3 -14.15 42.3 -13.6 42.35 -13.45 42.35 -13.15 42.35 -12.45 42.35 -11.75 42.35 -11.35 42.25 -11.2 42.2 -11.05 42.15 -10.9 42.05 -10.75 42.0 -10.6 41.95 -10.5 41.9 -10.35 41.8 -10.2 41.8 -10.05 41.75 -9.9 41.7 -9.75 41.65 -9.6 41.6 -9.5 41.5 -9.35 41.45 -9.2 41.35 -9.05 41.3 -8.9 41.0 -8.5 40.25 -7.5 39.4 -6.8 39.05 -6.7 38.25 -6.7 38.0 -6.8 37.85 -6.9 37.8 -7.05 37.7 -7.2 37.65 -7.35 37.6 -7.5 37.6 -7.65 37.6 -7.8 37.6 -7.9 37.6 -8.05 37.55 -8.2 37.5 -8.35 37.45 -8.5 37.4 -8.5 37.1 -8.1 36.55 -7.5 36.1 -7.05 35.85 -6.9 35.4 -6.65 35.2 -6.5 34.85 -6.4 33.1 -6.45 32.65 -6.8 32.05 -7.4 31.9 -7.7 31.85 -7.8 31.75 -7.95 31.65 -8.1 31.6 -8.25 31.45 -8.35 30.85 -8.1 30.5 -7.95 30.0 -8.0 29.7 -8.0 29.6 -8.05 29.5 -8.15 29.35 -8.25 29.2 -8.3 28.75 -7.75 28.1 -6.9 27.45 -6.3 27.1 -6.2 26.55 -6.25 26.3 -6.25 26.2 -6.3 26.05 -6.4 25.95 -6.55 25.85 -6.7 25.75 -6.85 25.65 -6.95 25.6 -7.1 25.55 -7.25 25.55 -7.4 25.55 -7.7 25.55 -7.95 25.55 -8.1 25.55 -8.25 25.6 -8.4 25.6 -8.7 25.6 -9.55 25.6 -10.25 25.6 -10.65 25.55 -10.55 25.55 -10.45 25.55 -10.3 25.55 -10.15 25.45 -10.0 25.2 -9.9 24.95 -10.0 24.9 -10.15 24.85 -10.3 24.85 -10.45 24.85 -10.55 24.8 -10.7 24.7 -10.85 24.6 -11.0 24.55 -11.15 24.55 -11.3 24.55 -11.4 24.55 -11.55 24.6 -11.7 24.6 -11.85 24.65 -12.0 24.6 -12.15 24.6 -12.3 24.6 -12.4 24.6 -12.55 24.65 -12.85 24.75 -13.15 24.8 -13.4 24.8 -13.55 24.8 -13.7 24.8 -14.0 24.8 -14.25 24.8 -14.4 24.8 -14.55 24.85 -14.7 24.9 -14.85 24.9 -14.95 24.95 -15.1 25.05 -15.25 25.1 -15.4 25.2 -15.55 25.4 -15.7 25.75 -15.8 25.95 -15.8 26.35 -15.7 26.5 -15.55 26.65 -15.4 26.7 -15.25 26.8 -15.1 26.85 -14.95 26.95 -14.85 27.0 -14.55 27.1 -14.25 27.15 -14.0 27.2 -13.85 27.2 -12.0 27.15 -10.0 27.25 -8.5 27.3 -8.55 27.65 -8.95 28.0 -9.4 28.2 -9.65 28.25 -9.8 28.3 -9.95 28.35 -10.1 28.4 -10.25 28.45 -10.4 28.5 -10.5 28.55 -10.65 28.6 -10.8 28.6 -12.35 28.6 -13.95 28.6 -15.2 28.65 -15.35 28.65 -15.5 28.65 -15.65 28.7 -15.8 28.7 -15.9 28.7 -16.05 28.75 -16.2 28.75 -16.35 28.75 -16.5 28.8 -16.65 28.8 -16.75 28.8 -16.9 28.85 -17.05 28.85 -17.2 28.85 -17.35 28.9 -17.5 28.9 -17.6 28.95 -17.75 28.95 -17.9 28.95 -18.05 29.05 -18.5 29.1 -18.75 29.2 -19.05 29.2 -19.2 29.2 -19.35 29.2 -19.45 29.2 -19.6 29.25 -19.75 29.35 -19.9 29.45 -20.05 29.65 -20.2 30.0 -20.25 30.1 -20.3 30.4 -20.2 30.5 -20.2 30.65 -20.1 30.75 -19.95 30.85 -19.8 30.9 -19.5 31.0 -19.25 31.0 -19.1 31.05 -18.95 31.05 -17.25 31.05 -15.4 31.05 -13.85 31.0 -13.55 30.9 -13.0 30.85 -12.55 30.8 -12.3 30.8 -12.15 30.8 -12.0 30.7 -11.7 30.55 -11.3 30.4 -10.85 30.3 -10.55 30.25 -10.4 30.2 -10.3 30.25 -10.15 30.3 -10.0 30.3 -9.85 30.35 -9.75 30.45 -9.6 30.65 -9.65 30.8 -9.8 30.95 -9.95 31.1 -10.1 31.2 -10.25 31.25 -10.4 31.25 -10.5 31.25 -10.8 31.25 -11.1 31.25 -11.25 31.25 -11.4 31.2 -11.5 31.2 -11.8 31.2 -12.5 31.2 -13.2 31.2 -13.65 31.25 -13.8 31.25 -13.95 31.25 -14.05 31.25 -14.2 31.25 -14.35 31.3 -14.5 31.3 -14.65 31.3 -14.8 31.3 -14.95 31.3 -15.05 31.35 -15.2 31.35 -15.35 31.35 -15.5 31.35 -15.65 31.4 -15.8 31.4 -15.9 31.4 -16.05 31.4 -16.2 31.45 -16.35 31.45 -16.5 31.45 -16.65 31.45 -16.75 31.5 -16.9 31.5 -17.05 31.5 -17.2 31.55 -17.35 31.55 -17.5 31.55 -17.65 31.6 -17.75 31.9 -18.75 32.1 -19.6 32.25 -20.2 32.35 -20.3 32.45 -20.45 32.55 -20.6 32.65 -20.75 32.8 -20.9 33.15 -21.0 33.15 -20.95 33.4 -20.9 33.5 -20.9 33.7 -20.8 34.0 -20.65 34.15 -20.5 34.25 -20.35 34.3 -20.25 34.35 -20.1 34.45 -19.95 34.55 -19.65 34.65 -19.25 34.7 -18.8 34.75 -18.5 34.75 -18.4 34.75 -18.25 34.8 -18.1 34.8 -17.95 34.85 -17.8 34.85 -17.65 34.85 -17.55 34.9 -17.4 34.9 -17.25 34.9 -17.1 34.95 -16.95 35.0 -16.8 35.0 -16.55 35.0 -15.7 35.0 -14.95 35.0 -14.55 34.95 -14.4 34.8 -13.7 34.6 -13.0 34.5 -12.55 34.4 -12.4 34.35 -12.3 34.25 -12.15 34.2 -12.0 34.1 -11.85 34.05 -11.7 33.95 -11.55 33.9 -11.4 33.8 -11.3 33.75 -11.15 33.65 -11.0 33.45 -10.7 33.25 -10.45 33.15 -10.3 33.1 -10.15 33.0 -10.0 32.8 -9.7 32.6 -9.4 32.6 -9.3 32.6 -9.15 32.65 -9.0 32.7 -8.85 32.8 -8.7 32.85 -8.6 32.9 -8.45 33.0 -8.3 33.1 -8.15 33.15 -8.0 33.3 -7.9 33.5 -7.75 34.75 -7.7 35.35 -8.05 36.3 -9.05 36.75 -9.75 36.8 -9.9 36.85 -10.05 36.9 -10.2 37.0 -10.35 37.15 -10.75 37.25 -11.05 37.3 -11.35 37.35 -11.45 37.35 -13.6 37.35 -16.3 37.35 -18.55 37.4 -18.7" fill="#333333" fill-rule="evenodd" stroke="none"/>
    <path d="M30.0 -2.3 L30.2 -2.25 30.4 -2.15 30.55 -2.0 30.7 -1.85 30.8 -1.7 30.85 -1.55 30.95 -1.45 31.0 -1.3 31.0 -1.15 31.1 -1.0 31.15 -0.85 31.25 -0.7 31.4 -0.3 31.55 0.15 31.6 0.4 31.65 0.55 31.75 0.7 31.8 0.85 31.85 1.0 31.9 1.1 32.1 1.4 32.35 1.7 32.5 1.85 33.55 1.85 33.7 1.7 33.85 1.55 34.0 1.4 34.05 1.25 34.15 1.1 34.25 1.0 34.3 0.85 34.4 0.7 34.45 0.55 34.5 0.4 34.55 0.25 34.55 0.15 34.65 0.0 34.7 -0.15 34.75 -0.3 34.8 -0.45 34.8 -0.6 34.8 -0.7 34.8 -0.85 34.8 -1.0 34.85 -1.15 34.85 -1.3 34.85 -1.45 34.9 -1.55 34.9 -1.85 34.9 -2.3 34.9 -2.7 34.9 -3.0 34.95 -3.3 35.0 -3.55 35.05 -3.85 35.1 -4.0 35.1 -4.15 35.1 -4.25 35.1 -4.4 35.15 -4.55 35.2 -4.7 35.3 -4.85 35.45 -5.0 35.8 -5.1 36.05 -5.0 36.15 -5.0 36.25 -4.9 36.4 -4.75 36.45 -4.6 36.5 -4.45 36.5 -3.6 36.5 -2.6 36.5 -1.9 36.65 -1.05 36.85 -0.35 37.05 0.2 37.15 0.35 37.2 0.5 37.25 0.65 37.3 0.8 37.4 0.95 37.6 1.2 37.7 1.35 37.8 1.5 38.25 1.55 38.4 1.5 38.5 1.4 38.6 1.25 38.9 0.85 39.05 0.55 39.15 0.4 39.2 0.25 39.3 0.15 39.35 -0.15 39.4 -0.45 39.45 -0.7 39.5 -0.85 39.5 -2.15 39.5 -3.4 39.5 -4.4 39.6 -4.7 39.65 -5.0 39.65 -5.1 39.7 -5.25 39.7 -5.4 39.7 -5.55 39.7 -5.7 39.75 -5.85 39.8 -6.0 39.9 -6.1 40.0 -6.25 40.35 -6.35 40.7 -6.25 40.85 -6.1 40.95 -6.0 41.0 -5.85 41.0 -4.55 41.0 -3.15 41.0 -2.0 40.95 -1.85 40.95 -1.7 40.95 -1.55 40.95 -1.45 40.9 -1.3 40.85 -1.15 40.85 -1.0 40.85 -0.85 40.8 -0.7 40.8 -0.45 40.8 -0.15 40.8 0.0 40.8 0.15 40.85 0.25 40.95 0.4 41.0 0.55 41.05 0.7 41.1 0.85 41.2 1.0 41.25 1.1 41.35 1.25 42.25 1.35 42.5 1.35 42.85 1.25 43.25 0.95 44.2 0.0 44.65 -0.7 44.7 -0.85 44.7 -1.15 44.7 -1.85 44.7 -2.55 44.7 -3.0 44.75 -3.15 44.75 -3.3 44.75 -3.4 44.8 -3.55 44.8 -3.7 44.8 -3.85 44.8 -4.0 44.85 -4.15 44.85 -4.25 44.85 -4.4 44.9 -4.55 44.9 -4.7 44.95 -4.85 44.95 -5.0 45.0 -5.15 45.0 -5.25 45.0 -5.4 45.05 -5.55 45.05 -5.7 45.05 -6.0 45.05 -6.25 45.05 -6.4 45.05 -6.55 45.1 -6.7 45.15 -6.85 45.2 -6.95 45.25 -7.1 45.3 -7.25 45.35 -7.4 45.55 -7.55 45.85 -7.65 45.85 -7.6 46.15 -7.55 46.3 -7.4 46.4 -7.25 46.45 -7.1 46.45 -5.85 46.45 -4.25 46.45 -3.15 46.4 -3.0 46.4 -2.85 46.35 -2.7 46.35 -2.55 46.35 -2.45 46.35 -2.3 46.2 -1.55 46.05 -0.85 45.95 -0.45 45.95 -0.15 45.95 0.15 45.95 0.25 45.95 0.4 45.95 0.55 46.0 0.7 46.05 0.85 46.1 1.0 46.35 1.0 46.55 0.85 46.85 0.4 47.3 -0.15 47.65 -0.6 47.7 -0.7 47.75 -0.85 47.85 -1.0 48.2 -2.15 48.6 -3.4 48.85 -4.4 48.85 -4.55 48.85 -4.7 48.85 -4.85 48.9 -5.0 48.9 -5.15 48.9 -5.25 49.0 -5.4 49.05 -5.7 49.15 -6.1 49.25 -6.4 49.3 -6.55 49.3 -6.7 49.3 -6.85 49.35 -6.95 49.4 -7.1 49.45 -7.25 49.7 -7.35 49.85 -7.3 49.9 -7.25 50.0 -7.15 50.05 -7.0 50.05 -6.9 50.05 -6.75 50.05 -6.6 50.15 -6.45 50.15 -6.3 50.15 -6.15 50.15 -6.05 50.05 -5.75 50.0 -5.45 50.0 -5.3 49.95 -5.15 49.95 -5.05 49.95 -4.9 49.95 -4.75 49.9 -4.6 49.85 -4.45 49.85 -4.3 49.85 -4.2 49.8 -4.05 49.8 -3.9 49.8 -3.75 49.8 -3.6 49.55 -2.6 49.25 -1.65 49.05 -0.9 48.95 -0.75 48.9 -0.65 48.85 -0.5 48.8 -0.35 48.75 -0.2 48.65 -0.05 48.6 0.1 48.55 0.2 48.5 0.35 48.35 0.5 47.6 1.45 46.75 2.2 46.4 2.3 45.65 2.3 45.35 2.2 45.2 2.05 45.1 1.95 45.05 1.8 44.95 1.65 44.9 1.5 44.85 1.35 44.75 1.25 44.65 1.4 44.5 1.55 44.4 1.7 44.25 1.85 44.0 2.0 43.55 2.25 43.35 2.4 41.55 2.65 40.6 2.45 40.45 2.35 40.35 2.2 40.15 1.95 40.05 1.8 39.95 1.7 39.85 1.85 39.65 2.1 39.45 2.4 39.3 2.55 38.65 2.8 38.25 2.9 37.7 2.9 37.45 2.85 37.35 2.85 37.05 2.6 36.8 2.45 36.6 2.3 36.5 2.15 36.35 1.9 36.15 1.6 36.05 1.45 36.0 1.3 35.9 1.15 35.8 1.1 35.75 1.1 35.7 1.25 35.6 1.4 35.55 1.55 35.45 1.7 35.4 1.85 35.35 2.0 35.15 2.25 34.7 2.7 34.4 2.95 34.15 3.1 33.7 3.25 33.35 3.35 31.95 3.3 31.65 3.05 31.05 2.35 30.7 1.95 30.65 1.8 30.55 1.65 30.5 1.5 30.4 1.35 30.25 0.95 30.15 0.5 30.05 0.25 30.05 0.1 29.9 0.0 29.9 0.05 29.8 0.2 29.75 0.3 29.65 0.45 29.6 0.6 29.5 0.75 29.45 0.9 29.35 1.05 29.3 1.15 28.95 1.6 28.65 1.9 28.5 2.0 28.3 2.15 27.85 2.3 27.45 2.4 26.9 2.4 26.65 2.35 26.55 2.3 26.45 2.2 26.35 2.05 26.25 1.95 26.2 1.8 26.2 1.65 26.25 1.5 26.3 1.35 26.35 1.2 26.4 1.1 26.5 0.95 26.6 0.8 26.9 0.7 27.25 0.75 27.45 0.85 27.55 0.9 27.75 0.8 27.9 0.65 28.05 0.5 28.1 0.35 28.2 0.2 28.25 0.1 28.35 -0.05 28.35 -0.2 28.45 -0.35 28.5 -0.5 28.6 -0.65 28.65 -0.75 28.75 -0.9 28.8 -1.05 28.85 -1.2 28.95 -1.35 29.0 -1.5 29.1 -1.6 29.15 -1.75 29.3 -1.9 29.45 -2.05 29.65 -2.2 30.0 -2.3" fill="#333333" fill-rule="evenodd" stroke="none"/>
    <path d="M53.05 2.15 L53.1 2.3 53.1 2.45 53.1 2.6 53.1 2.75 53.1 2.9 53.15 3.0 53.15 3.3 53.15 3.6 53.15 3.75 53.15 3.85 53.2 4.0 53.2 4.15 53.2 4.3 53.2 4.45 53.15 4.6 53.1 4.7 53.1 4.85 53.1 5.0 53.1 5.15 53.05 5.3 53.05 5.45 53.05 5.55 53.05 5.7 52.75 6.85 52.45 8.0 52.1 9.0 52.0 9.15 51.95 9.25 51.85 9.4 51.8 9.55 51.75 9.7 51.65 9.85 51.6 10.0 51.55 10.1 50.1 12.0 48.3 13.4 47.95 13.5 47.8 13.45 47.55 13.4 47.45 13.4 47.3 13.3 47.05 13.15 47.0 13.0 46.9 12.85 46.85 12.75 46.65 13.05 46.2 13.45 45.9 13.75 45.6 13.9 45.3 14.05 Q45.15 14.1 45.05 14.2 L44.7 14.3 43.75 14.3 43.45 14.2 43.25 14.05 43.15 13.9 43.05 13.75 42.95 13.6 42.85 13.5 42.8 13.35 42.7 13.2 42.65 13.05 42.6 12.9 42.55 12.75 42.5 12.65 42.45 12.35 42.35 11.9 42.25 11.65 42.1 11.8 41.5 12.35 40.7 12.9 40.35 13.0 39.6 13.0 39.25 12.9 39.05 12.75 39.0 12.65 38.8 12.35 38.7 12.2 38.6 12.05 38.55 11.9 38.45 11.8 38.4 11.65 38.35 11.5 38.25 11.4 38.15 11.45 37.95 11.75 37.7 12.0 37.5 12.15 37.2 12.25 36.35 12.25 36.05 12.15 35.7 11.85 35.5 11.6 35.4 11.45 35.35 11.3 35.3 11.15 35.2 11.0 35.15 10.9 35.1 10.75 35.1 10.45 35.1 10.15 35.1 10.05 35.1 9.9 34.6 10.25 32.65 11.1 31.3 11.0 30.85 10.85 30.5 10.6 30.2 10.3 30.1 10.15 30.0 9.9 29.9 9.6 29.85 9.45 29.8 9.3 29.8 9.05 29.8 8.6 29.8 8.3 29.8 8.2 29.75 8.05 29.35 8.15 29.0 8.25 28.6 8.2 28.35 8.15 28.1 8.1 27.95 7.95 27.85 7.8 27.8 7.65 27.75 7.5 27.8 7.35 27.85 7.25 27.95 7.1 28.1 6.95 29.15 6.65 29.9 6.5 30.0 6.45 30.2 6.4 30.5 6.3 30.85 6.4 31.0 6.55 31.15 6.65 31.2 6.8 31.2 6.95 31.2 7.8 31.2 8.5 31.2 9.1 31.25 9.2 31.3 9.35 31.4 9.5 31.65 9.6 31.8 9.65 32.8 9.6 33.55 9.3 33.75 9.15 34.1 8.7 34.45 8.3 34.6 8.05 34.65 7.9 34.75 7.75 34.85 7.6 34.9 7.45 34.95 7.35 35.0 7.2 35.1 7.05 35.3 6.9 35.6 6.8 35.95 6.9 36.25 7.2 36.35 7.35 36.45 7.45 36.5 7.6 36.5 8.6 36.5 9.6 36.5 10.45 36.6 10.6 36.65 10.75 36.9 10.75 37.0 10.6 37.1 10.45 37.25 10.3 37.3 10.15 37.35 10.05 37.45 9.9 37.5 9.75 37.6 9.6 37.65 9.3 37.7 9.05 37.7 8.9 37.75 8.75 37.75 8.6 37.75 8.45 37.8 8.2 37.85 7.9 37.9 7.6 37.95 7.45 37.95 7.35 37.95 6.9 37.95 6.45 37.95 6.2 38.0 6.05 38.05 5.9 38.15 5.75 38.3 5.6 38.65 5.55 38.9 5.55 39.05 5.65 39.2 5.8 39.3 5.95 39.35 6.1 39.35 7.35 39.35 8.65 39.35 9.8 39.4 10.05 39.5 10.35 39.55 10.5 39.55 10.65 39.65 10.8 39.7 10.95 39.75 11.05 39.8 11.2 39.9 11.35 39.95 11.5 40.15 11.5 40.25 11.5 40.85 10.95 41.65 10.0 42.2 9.15 42.25 9.0 42.35 8.85 42.4 8.7 42.5 8.55 42.55 8.4 42.6 8.25 42.65 8.15 42.85 7.3 43.1 6.45 43.25 5.7 43.35 5.55 43.35 5.45 43.45 5.0 43.6 4.45 43.7 4.0 43.8 3.85 43.9 3.75 44.05 3.6 44.4 3.5 44.6 3.55 44.7 3.6 44.85 3.7 44.95 3.8 45.0 3.95 45.05 4.1 45.05 4.25 45.05 4.8 45.05 5.4 45.05 5.8 45.0 5.95 44.75 6.65 44.55 7.25 44.4 7.8 44.3 7.95 44.2 8.25 44.0 8.8 43.9 9.35 43.8 9.8 43.8 9.95 43.8 10.05 43.75 10.2 43.75 10.35 43.7 10.5 43.7 10.8 43.7 11.05 43.7 11.2 43.7 11.35 43.75 11.5 43.85 11.9 43.95 12.35 44.05 12.65 44.15 12.75 44.8 12.8 45.2 12.6 45.85 11.9 46.25 11.3 46.3 11.15 46.4 11.0 46.45 10.9 46.55 10.75 46.6 10.6 46.7 10.45 46.75 10.3 46.85 10.15 46.9 10.05 47.0 9.9 47.05 9.75 47.1 9.6 47.15 9.45 47.25 9.3 47.3 9.15 47.4 9.05 47.45 8.9 47.55 8.75 47.6 8.6 47.65 8.45 47.7 8.3 47.8 8.2 48.2 6.9 48.55 5.5 48.9 4.35 49.0 4.2 49.1 3.9 49.15 3.8 49.2 3.65 49.25 3.5 49.35 3.35 49.5 3.2 49.8 3.1 50.05 3.15 50.15 3.2 50.3 3.3 50.4 3.45 50.45 3.6 50.5 3.75 50.5 4.0 50.5 4.3 50.5 4.6 50.5 4.7 50.45 4.85 50.4 5.0 50.35 5.15 50.25 5.3 49.9 6.45 49.55 7.7 49.25 8.85 49.15 9.0 49.1 9.15 49.05 9.25 48.95 9.4 48.9 9.55 48.85 9.7 48.8 9.85 48.5 10.7 48.3 11.4 48.25 11.9 48.4 11.85 48.9 11.45 49.75 10.45 50.4 9.6 50.45 9.45 50.55 9.3 50.6 9.15 50.65 9.05 50.7 8.9 50.75 8.75 50.85 8.6 50.9 8.45 51.0 8.3 51.35 7.35 51.65 6.35 51.85 5.5 51.95 5.35 52.0 5.2 52.0 5.05 52.0 4.9 52.05 4.65 52.1 4.35 52.15 4.05 52.2 3.9 52.2 3.65 52.2 3.35 52.2 3.2 52.2 3.05 52.0 2.95 52.1 2.85 52.2 2.7 52.2 2.55 52.25 2.4 52.2 2.25 52.25 2.1 52.4 2.0 52.65 1.9 52.85 1.95 52.95 2.0 53.05 2.15" fill="#333333" fill-rule="evenodd" stroke="none"/>
    <path d="M42.4 16.1 L42.6 15.95 42.75 15.8 43.0 15.7 43.2 15.75 43.3 15.85 43.4 16.0 43.45 16.15 43.5 16.3 43.55 16.4 43.6 16.55 43.6 16.7 43.6 16.85 43.6 17.0 43.6 17.15 43.65 17.25 43.65 17.55 43.65 17.85 43.65 18.0 43.65 18.1 43.65 18.25 43.7 18.4 43.7 18.55 43.7 18.7 43.65 18.85 43.6 18.95 43.5 19.1 43.5 19.25 43.45 19.4 43.35 19.55 43.3 19.7 43.25 19.85 43.2 19.95 43.15 20.1 42.95 20.4 42.75 20.7 42.65 20.8 42.6 20.95 42.55 21.1 42.45 21.25 41.1 22.55 39.55 23.65 39.4 23.8 37.7 24.0 36.95 23.75 36.8 23.6 36.6 23.45 36.5 23.3 36.35 23.2 36.35 23.05 36.25 22.9 36.2 22.75 36.15 22.6 36.1 22.5 36.05 22.4 35.9 22.55 35.75 22.65 35.55 22.8 35.4 22.95 35.05 23.05 34.3 23.05 33.95 22.95 33.65 22.65 33.35 22.4 33.25 22.25 33.15 22.1 33.1 21.95 33.0 21.8 32.9 21.65 32.85 21.55 32.8 21.4 32.7 21.25 32.65 21.1 32.55 20.95 32.5 20.8 32.45 20.7 32.45 20.4 32.45 18.95 32.45 17.55 32.45 16.55 32.4 16.55 32.05 17.7 31.75 18.85 31.5 19.55 31.4 19.7 31.25 20.1 31.05 20.7 30.9 21.25 30.8 21.55 30.7 21.65 30.65 21.8 30.55 21.95 30.5 22.1 30.4 22.25 30.35 22.4 30.25 22.55 30.2 22.65 30.05 22.8 29.9 22.95 29.55 23.05 29.0 23.05 28.75 23.0 28.6 22.9 28.4 22.75 28.35 22.6 28.3 22.5 28.2 22.35 28.1 22.2 28.0 22.05 27.9 21.9 27.7 22.0 27.4 22.3 27.25 22.4 27.05 22.55 26.7 22.65 26.15 22.65 25.9 22.6 25.7 22.55 24.4 21.55 23.6 20.95 23.45 20.8 23.35 20.7 23.15 20.55 22.95 20.4 22.75 20.25 22.7 20.1 22.65 19.95 22.55 19.85 22.45 19.7 22.4 19.55 22.4 19.4 22.5 19.25 22.55 19.1 22.7 18.95 22.95 18.95 23.2 18.95 23.65 19.2 23.95 19.35 24.2 19.5 24.35 19.65 24.5 19.8 24.65 19.9 24.85 20.05 25.1 20.2 25.4 20.5 25.65 20.75 25.8 20.9 26.05 21.05 26.35 21.15 26.55 21.1 26.7 20.95 26.75 20.55 26.9 19.95 27.05 19.4 27.15 19.1 27.25 18.95 27.3 18.85 27.35 18.7 27.35 18.4 27.35 17.15 27.35 16.0 27.35 15.3 27.4 15.15 27.45 15.0 27.5 14.85 27.7 14.7 28.05 14.6 28.3 14.65 28.45 14.75 28.6 14.9 28.7 15.05 28.75 15.2 28.75 15.35 28.75 16.9 28.75 18.45 28.75 19.6 28.85 20.0 29.0 20.6 29.1 21.0 29.2 21.25 29.3 21.2 29.4 21.05 29.55 20.65 29.75 20.05 29.9 19.65 30.0 19.35 30.1 19.2 30.1 19.05 30.45 17.9 30.8 16.8 31.0 16.1 31.1 15.95 31.25 15.5 31.45 14.8 31.65 14.25 31.75 13.95 31.85 13.8 31.9 13.65 31.95 13.55 32.0 13.4 32.1 13.25 32.2 13.1 32.3 12.95 32.5 12.8 32.8 12.7 33.15 12.7 33.15 12.75 33.4 12.75 33.6 12.85 33.7 13.0 33.8 13.15 33.85 13.3 33.85 15.7 33.85 18.25 33.85 20.4 33.95 20.55 34.0 20.7 34.1 20.8 34.2 20.95 34.3 21.1 34.35 21.25 34.45 21.4 34.55 21.55 34.8 21.55 34.9 21.5 34.95 21.35 35.05 21.2 35.1 21.05 35.2 20.9 35.25 20.75 35.35 20.65 35.45 20.5 35.55 20.35 35.6 20.2 35.7 20.05 35.8 19.9 35.85 19.8 35.95 19.35 36.1 18.95 36.2 18.65 36.25 18.5 36.25 18.35 36.25 18.2 36.3 17.95 36.6 16.8 36.85 15.8 37.05 15.25 37.05 15.1 37.05 14.95 37.1 14.8 37.15 14.65 37.25 14.55 37.35 14.4 37.7 14.3 37.95 14.35 38.05 14.4 38.15 14.5 38.25 14.6 38.35 14.75 38.35 14.9 38.35 15.2 38.35 15.45 38.35 15.6 38.35 15.75 38.35 15.9 38.3 16.05 38.25 16.2 38.2 16.3 38.15 16.45 38.1 16.6 38.05 16.75 38.0 16.9 37.95 17.05 37.95 17.15 37.95 17.3 37.9 17.45 37.9 17.6 37.9 17.75 37.8 18.15 37.6 18.75 37.45 19.3 37.4 19.6 37.4 20.0 37.4 20.85 37.4 21.7 37.4 22.15 37.45 22.3 37.5 22.45 37.55 22.55 37.65 22.7 38.55 22.75 39.1 22.55 40.0 22.0 40.5 21.7 40.75 21.4 41.25 20.85 41.5 20.6 41.6 20.45 41.65 20.3 41.7 20.15 41.9 19.85 42.1 19.6 42.2 19.45 42.3 19.3 42.35 19.15 42.45 19.0 42.5 18.9 42.55 18.75 42.6 18.6 42.65 18.45 42.7 18.3 42.7 18.05 42.7 17.75 42.7 17.6 42.7 17.45 42.7 17.3 42.75 17.15 42.75 17.05 42.75 16.9 42.75 16.75 42.75 16.6 42.6 16.45 42.4 16.35 42.35 16.25 42.4 16.1" fill="#333333" fill-rule="evenodd" stroke="none"/>
    <path d="M16.15 2.0 L16.15 1.95 16.1 1.95 16.05 2.05 16.0 2.2 15.9 2.35 15.8 2.8 15.7 3.35 15.55 3.9 15.55 4.5 15.5 5.05 15.6 5.55 15.75 5.25 15.9 4.7 16.05 4.1 16.05 3.95 16.05 3.8 16.05 3.7 16.1 3.55 16.1 3.4 16.1 3.25 16.1 3.1 16.15 2.95 16.15 2.85 16.15 2.55 16.15 2.25 16.15 2.0 M15.9 -0.65 L16.15 -0.8 16.5 -0.9 16.8 -0.8 17.0 -0.65 17.15 -0.55 17.25 -0.4 17.35 -0.25 17.4 -0.1 17.45 0.05 17.5 0.2 17.5 0.3 17.5 0.45 17.55 0.6 17.55 0.75 17.55 0.9 17.6 1.05 17.6 1.6 17.6 2.45 17.6 3.0 17.6 3.3 17.55 3.45 17.55 3.6 17.55 3.75 17.55 3.85 17.5 4.0 17.5 4.15 17.5 4.3 17.5 4.45 17.4 4.7 17.3 5.15 17.2 5.45 17.15 5.55 17.1 5.7 17.0 5.85 16.95 6.0 16.9 6.3 16.85 6.45 16.8 6.55 16.75 6.7 16.7 6.85 16.65 7.0 16.6 7.15 16.5 7.3 16.45 7.4 16.4 7.55 16.3 7.7 16.25 7.85 16.2 8.0 16.1 8.15 16.05 8.25 15.95 8.4 15.9 8.55 15.95 8.7 16.0 8.85 16.05 9.0 16.15 9.15 16.2 9.25 16.3 9.4 16.35 9.55 16.45 9.7 16.6 9.85 16.7 10.0 17.65 10.05 17.8 10.0 18.55 9.3 18.9 8.85 19.1 8.6 19.15 8.45 19.25 8.3 19.4 8.05 19.5 7.9 19.6 7.75 19.7 7.6 19.75 7.45 19.85 7.35 19.9 7.2 19.95 7.05 20.0 6.9 20.0 6.75 20.0 6.6 20.0 6.45 20.0 6.35 20.3 4.5 20.7 2.5 21.15 0.95 21.2 0.8 21.3 0.65 21.45 0.5 21.8 0.4 22.1 0.5 22.3 0.65 22.4 0.8 22.45 0.95 22.45 1.5 22.45 2.35 22.45 3.2 22.45 3.65 22.4 3.8 22.4 3.9 22.4 4.05 22.35 4.2 22.35 4.35 22.35 4.5 22.35 4.65 22.15 5.5 21.85 6.35 21.75 6.75 21.65 6.9 21.6 7.05 21.5 7.2 21.45 7.35 21.35 7.45 21.3 7.6 21.3 7.9 21.3 8.05 21.3 8.2 21.3 8.3 21.3 8.45 21.35 8.6 21.45 8.9 21.5 9.05 21.55 9.15 21.6 9.3 21.7 9.45 22.55 9.5 23.0 9.15 23.9 8.3 24.25 7.85 24.3 7.7 24.4 7.55 24.45 7.4 24.5 7.3 24.5 7.15 24.55 7.0 24.6 6.85 24.7 6.7 24.75 6.55 24.75 6.45 24.75 6.3 24.75 6.15 24.75 6.0 24.85 5.85 24.95 5.7 25.2 5.6 25.5 5.7 25.6 5.85 25.65 6.0 25.65 6.15 25.65 6.3 25.65 6.45 25.65 6.55 25.7 6.7 25.7 6.85 25.65 7.15 25.6 7.4 25.6 7.55 25.55 7.7 25.55 7.85 25.45 8.0 25.4 8.15 25.35 8.25 25.25 8.4 25.2 8.55 24.65 9.15 23.7 10.1 23.05 10.7 22.75 10.8 21.4 10.8 21.2 10.8 21.05 10.7 20.7 10.4 20.6 10.25 20.5 10.1 20.4 10.0 20.35 9.85 20.3 9.7 20.25 9.6 20.2 9.55 20.1 9.7 19.1 10.85 Q18.45 11.35 17.6 11.5 L16.85 11.5 16.5 11.4 16.1 11.25 15.85 11.1 15.55 10.8 15.45 10.7 15.3 10.55 15.15 10.4 15.1 10.25 15.0 10.1 14.95 10.0 14.9 10.0 14.45 10.55 14.0 11.0 13.65 11.25 13.25 11.35 11.95 11.35 11.6 11.25 11.35 11.1 11.15 10.85 11.05 10.7 10.9 10.55 10.8 10.4 10.75 10.25 10.65 10.1 10.55 10.0 10.5 9.85 10.4 9.7 10.35 9.55 10.25 9.4 10.2 9.25 10.1 9.15 10.0 8.85 9.95 8.55 9.9 8.25 9.9 8.15 9.85 8.0 9.85 7.85 9.85 7.7 9.85 7.55 9.85 7.4 9.85 7.3 9.85 7.2 9.75 7.35 9.65 7.45 9.6 7.6 9.5 7.75 9.4 7.9 9.35 8.05 9.2 8.2 9.1 8.3 8.85 8.45 8.55 8.6 8.15 8.7 7.4 8.6 7.0 8.45 6.75 8.3 6.6 8.15 6.5 8.05 6.4 7.9 6.35 7.75 6.25 7.6 6.15 7.45 6.1 7.35 6.0 7.2 5.95 7.05 5.9 6.9 5.8 6.75 5.75 6.6 5.65 6.45 5.6 6.35 5.5 6.2 5.45 6.05 5.35 5.9 5.2 5.5 5.05 4.9 4.9 4.5 4.8 4.25 4.7 4.4 4.65 4.55 4.6 4.7 4.5 4.8 4.45 4.95 4.35 5.1 4.25 5.25 4.25 5.4 4.15 5.55 4.1 5.65 4.0 5.8 3.9 5.95 3.8 6.1 3.7 6.25 3.6 6.4 3.4 6.5 3.05 6.6 2.75 6.55 2.65 6.5 2.55 6.45 2.45 6.3 2.4 6.15 2.35 6.0 2.3 5.85 2.35 5.7 2.4 5.55 2.45 5.45 2.5 5.3 2.6 5.15 2.7 5.0 2.75 4.85 2.85 4.7 2.9 4.6 3.0 4.45 3.1 4.3 3.15 4.15 3.25 4.0 3.3 3.85 3.35 3.6 3.4 3.45 3.45 3.3 3.5 3.15 3.6 3.0 3.65 2.9 3.75 2.75 3.85 2.6 3.9 2.45 4.0 2.3 4.25 2.15 4.55 2.05 4.75 2.1 5.05 2.15 5.15 2.15 5.45 2.25 5.7 2.4 5.8 2.55 5.9 2.7 6.0 2.85 6.0 2.95 6.05 3.1 6.1 3.25 6.2 3.4 6.25 3.7 6.4 4.1 6.45 4.4 6.5 4.55 6.55 4.7 6.65 4.8 6.7 4.95 6.75 5.1 6.8 5.25 6.85 5.4 6.9 5.55 6.95 5.65 7.0 5.8 7.1 5.95 7.15 6.1 7.25 6.25 7.3 6.4 7.4 6.5 7.5 6.65 7.55 6.8 7.65 6.95 7.75 7.1 8.1 7.1 8.2 6.95 8.25 6.8 8.35 6.65 8.55 6.4 8.65 6.25 8.7 6.1 8.8 5.95 9.25 4.55 9.6 3.1 9.85 2.1 9.85 2.0 9.85 1.85 9.85 1.7 9.85 1.55 9.85 1.4 9.9 1.25 9.95 1.1 10.0 1.0 10.05 0.85 10.1 0.7 10.2 0.55 10.3 0.4 10.5 0.25 10.8 0.2 11.1 0.25 11.2 0.25 11.35 0.35 11.4 0.5 11.5 0.65 11.55 0.8 11.55 0.95 11.55 1.1 11.55 1.2 11.55 1.35 11.55 1.5 11.5 1.65 11.5 1.95 11.45 2.05 11.4 2.2 11.35 2.35 11.35 4.35 11.35 6.2 11.35 7.6 11.4 7.9 11.45 8.2 11.5 8.45 11.55 8.6 11.6 8.75 11.7 8.9 11.8 9.05 11.85 9.15 11.95 9.3 12.05 9.45 12.15 9.6 12.25 9.75 13.0 9.8 13.6 9.15 14.0 8.55 14.2 8.25 14.25 8.15 14.2 8.0 14.2 7.85 14.2 7.7 14.2 7.55 14.15 7.4 14.1 7.3 14.1 7.0 14.1 5.7 14.1 4.45 14.1 3.6 14.25 3.15 14.35 2.6 14.45 2.15 14.55 1.9 14.65 1.75 14.7 1.6 14.8 1.45 14.85 1.3 14.9 1.15 14.95 1.05 15.0 0.9 15.1 0.75 15.2 0.45 15.3 0.2 15.35 0.05 15.4 -0.1 15.45 -0.25 15.55 -0.4 15.65 -0.55 15.9 -0.65" fill="#333333" fill-rule="evenodd" stroke="none"/>
    <path d="M15.2 -18.75 L15.35 -18.65 15.5 -18.5 15.6 -18.4 15.7 -18.25 15.75 -18.1 15.8 -17.95 15.8 -17.8 15.8 -17.65 15.8 -17.55 15.8 -17.4 15.85 -16.95 15.9 -16.55 15.95 -16.25 16.0 -16.1 16.0 -15.95 16.0 -15.25 16.0 -14.55 16.0 -14.1 15.95 -14.0 15.95 -13.85 15.95 -13.7 15.9 -13.55 15.9 -13.4 15.9 -13.25 15.85 -13.15 15.85 -13.0 15.85 -12.85 15.85 -12.7 15.85 -12.55 15.85 -12.4 15.7 -12.0 15.65 -11.55 15.6 -11.3 15.55 -11.15 15.55 -11.0 15.55 -10.85 15.5 -10.7 15.3 -10.15 15.1 -9.6 15.0 -9.3 14.95 -9.15 14.85 -8.85 14.75 -8.6 14.7 -8.45 14.65 -8.3 14.55 -8.15 14.5 -8.0 14.5 -7.85 14.5 -7.75 14.5 -7.6 14.7 -6.6 15.0 -5.6 15.15 -4.9 15.25 -4.75 15.3 -4.6 15.4 -4.45 15.7 -4.05 16.0 -3.75 16.25 -3.6 16.55 -3.5 17.15 -3.55 17.35 -3.6 17.4 -3.65 17.8 -4.05 18.35 -4.75 18.65 -5.15 18.7 -5.3 18.8 -5.45 18.85 -5.6 18.95 -5.75 19.0 -5.9 19.1 -6.05 19.15 -6.15 19.25 -6.3 19.3 -6.45 19.4 -6.6 19.55 -7.3 19.75 -8.0 19.9 -8.45 19.9 -9.7 19.9 -11.3 19.9 -12.4 19.95 -12.55 19.95 -12.7 19.95 -13.25 19.95 -13.85 19.95 -14.1 20.0 -14.25 20.0 -14.55 20.0 -14.95 20.0 -15.25 20.0 -15.4 19.95 -15.55 19.9 -15.7 19.9 -15.85 20.0 -15.95 20.1 -16.1 20.3 -16.2 20.5 -16.15 20.6 -16.1 20.75 -15.85 20.85 -15.6 20.9 -15.45 20.95 -15.3 20.95 -15.15 20.95 -14.9 20.95 -14.6 20.95 -14.45 20.95 -14.3 21.0 -14.15 21.0 -14.05 21.0 -13.45 21.0 -12.9 21.0 -12.6 21.05 -12.45 21.05 -11.2 21.05 -9.6 21.05 -8.5 21.1 -8.35 21.1 -8.2 21.1 -8.05 21.1 -7.9 21.05 -7.8 20.8 -7.05 20.6 -6.35 20.45 -5.95 20.35 -5.8 20.3 -5.65 20.25 -5.5 20.2 -5.35 20.1 -5.2 20.05 -5.1 19.95 -4.95 19.9 -4.8 19.8 -4.65 19.75 -4.5 19.55 -4.2 18.7 -3.25 17.95 -2.5 17.4 -2.4 16.95 -2.3 16.7 -2.25 Q15.75 -2.35 15.0 -2.95 L14.3 -3.8 14.25 -3.95 14.15 -4.1 14.05 -4.25 13.85 -4.95 13.65 -5.65 13.55 -6.05 12.6 -5.15 Q12.05 -4.65 11.35 -4.45 L9.85 -4.45 9.55 -4.55 9.35 -4.7 8.6 -5.25 8.3 -5.55 8.25 -5.7 8.15 -5.85 8.1 -6.0 8.0 -6.1 7.95 -6.25 7.85 -6.4 7.8 -6.55 7.75 -6.7 7.65 -6.85 7.6 -6.95 7.5 -7.1 7.4 -7.25 7.3 -7.35 7.2 -7.4 6.9 -7.0 6.15 -6.0 5.55 -5.4 5.15 -5.3 4.8 -5.4 4.45 -5.55 4.3 -5.7 4.15 -5.85 4.1 -6.0 4.05 -6.1 4.0 -6.25 4.0 -6.4 4.0 -6.55 3.8 -7.4 3.7 -8.25 3.6 -8.7 3.6 -8.8 3.6 -9.65 3.6 -10.5 3.6 -11.05 3.5 -10.9 3.25 -10.5 3.05 -10.2 2.95 -10.05 2.9 -9.9 2.8 -9.75 2.65 -9.6 2.5 -9.5 1.55 -8.9 1.2 -8.65 0.95 -8.5 0.65 -8.4 -0.2 -8.4 -0.5 -8.5 -0.7 -8.65 -0.8 -8.75 -0.85 -8.9 -0.9 -9.05 -0.9 -9.2 -0.9 -9.35 -0.9 -9.5 -0.95 -9.6 -0.9 -9.75 -0.9 -9.9 -0.8 -10.05 -0.65 -10.2 -0.6 -10.35 -0.6 -10.45 -0.55 -10.6 -0.3 -10.75 -0.1 -10.6 -0.05 -10.45 0.0 -10.35 0.0 -10.2 0.15 -10.05 0.25 -9.9 0.5 -9.9 0.9 -10.2 1.45 -10.5 1.6 -10.6 1.7 -10.75 1.9 -11.05 2.0 -11.2 2.1 -11.35 2.15 -11.45 2.25 -11.6 2.45 -11.9 2.5 -12.05 2.6 -12.2 2.65 -12.3 2.75 -12.45 2.85 -12.6 2.95 -12.75 3.0 -12.9 3.05 -13.05 3.1 -13.15 3.15 -13.3 3.2 -13.45 3.3 -13.6 3.35 -13.9 3.45 -14.15 3.5 -14.45 3.55 -14.6 3.55 -14.75 3.55 -14.9 3.55 -15.0 3.6 -15.15 3.6 -15.3 3.6 -15.45 3.6 -15.6 3.65 -15.75 3.65 -15.85 3.65 -16.6 3.65 -17.3 3.65 -17.7 3.7 -17.85 3.75 -18.0 3.85 -18.15 4.05 -18.3 4.35 -18.4 4.6 -18.35 4.7 -18.3 4.85 -18.2 5.0 -18.05 5.05 -17.9 5.1 -17.75 5.1 -16.2 5.1 -14.2 5.1 -12.65 5.1 -12.5 5.1 -11.25 5.1 -9.95 5.1 -8.95 5.15 -8.8 5.25 -8.25 5.4 -7.7 5.45 -7.5 5.55 -7.6 5.9 -8.0 6.05 -8.3 6.15 -8.45 6.2 -8.6 6.25 -8.7 6.35 -8.85 6.4 -9.0 6.45 -9.15 6.55 -9.3 6.6 -9.45 6.6 -9.6 6.55 -9.85 6.5 -10.15 6.5 -10.3 6.45 -10.45 6.45 -10.55 6.45 -10.7 6.45 -10.85 6.4 -11.0 6.4 -11.15 6.4 -11.3 6.4 -11.4 6.35 -11.55 6.35 -11.7 6.35 -11.85 6.35 -12.0 6.3 -12.15 6.3 -13.25 6.3 -14.55 6.3 -15.4 6.25 -15.55 6.25 -15.7 6.25 -15.85 6.25 -15.95 6.25 -16.1 6.2 -16.25 6.2 -16.4 6.2 -16.55 6.2 -16.7 6.2 -16.8 6.2 -16.95 6.15 -17.1 6.15 -18.25 6.15 -19.5 6.15 -20.35 6.2 -20.5 6.25 -20.65 6.35 -20.8 6.55 -20.95 6.9 -21.05 6.9 -21.0 7.1 -21.0 7.3 -20.9 7.45 -20.75 7.55 -20.6 7.85 -19.65 8.15 -18.65 8.35 -17.9 8.35 -17.75 8.35 -17.65 8.4 -17.5 8.4 -17.35 8.4 -17.2 8.45 -17.05 8.45 -16.9 8.45 -16.75 8.45 -16.65 8.5 -16.5 8.5 -16.35 8.5 -16.2 8.5 -16.05 8.55 -15.9 8.55 -14.35 8.55 -12.35 8.55 -10.8 8.4 -10.4 8.25 -9.95 8.15 -9.65 8.1 -9.55 8.2 -9.25 8.25 -8.95 8.3 -8.8 8.3 -8.7 8.4 -8.55 8.45 -8.4 8.55 -8.25 8.6 -8.1 8.7 -7.95 8.75 -7.8 8.8 -7.7 8.9 -7.55 8.95 -7.4 9.05 -7.25 9.15 -7.1 9.2 -6.95 9.3 -6.85 9.35 -6.7 9.45 -6.55 9.5 -6.4 9.65 -6.25 9.8 -6.1 10.0 -6.0 11.25 -5.95 11.35 -6.0 11.45 -6.05 11.7 -6.2 11.85 -6.35 12.1 -6.65 12.25 -6.8 12.35 -6.9 12.4 -7.05 12.5 -7.2 12.6 -7.35 12.65 -7.5 12.75 -7.65 12.8 -7.8 12.9 -7.9 13.0 -8.05 13.05 -8.2 13.1 -8.35 13.15 -8.5 13.2 -8.65 13.25 -8.75 13.25 -9.75 13.25 -10.75 13.25 -11.45 13.3 -11.6 13.3 -11.75 13.3 -11.9 13.3 -12.05 13.35 -12.2 13.35 -12.3 13.35 -12.45 13.35 -12.6 13.4 -12.75 13.4 -12.9 13.4 -13.05 13.4 -13.15 13.45 -13.3 13.45 -13.45 13.45 -13.6 13.5 -13.9 13.55 -14.15 13.6 -14.45 13.65 -14.6 13.65 -14.75 13.65 -14.9 13.7 -15.15 13.75 -15.45 13.8 -15.75 13.85 -15.85 13.85 -16.0 13.85 -16.15 13.9 -16.3 13.9 -16.45 13.9 -16.6 13.9 -16.75 14.0 -17.3 14.15 -17.85 14.2 -18.15 14.3 -18.3 14.35 -18.45 14.5 -18.55 14.7 -18.7 14.95 -18.8 15.2 -18.75" fill="#333333" fill-rule="evenodd" stroke="none"/>
    <path d="M-3.65 -21.2 L-3.5 -21.05 -3.3 -20.8 -3.15 -20.65 -3.05 -20.5 -3.0 -20.35 -2.95 -20.25 -2.9 -20.1 -2.7 -19.35 -2.5 -18.5 -2.35 -17.8 -2.35 -17.65 -2.35 -17.55 -2.3 -17.4 -2.3 -17.25 -2.3 -17.1 -2.3 -16.95 -2.25 -16.8 -2.2 -16.7 -2.2 -16.55 -2.2 -15.85 -2.2 -15.25 -2.2 -14.85 -2.25 -14.7 -2.4 -14.25 -2.55 -13.85 -2.65 -13.55 -2.75 -13.4 -2.85 -13.25 -2.9 -13.15 -2.95 -13.0 -3.05 -12.85 -3.1 -12.7 -3.2 -12.55 -3.3 -12.4 -3.35 -12.3 -3.45 -12.15 -3.5 -12.0 -3.75 -11.7 -4.15 -11.3 -4.55 -11.0 -4.85 -10.9 -5.1 -10.9 -5.7 -11.15 -5.95 -11.3 -6.25 -11.55 -6.5 -11.85 -6.7 -12.15 -6.75 -12.3 -6.85 -12.4 -6.95 -12.55 -7.0 -12.7 -7.1 -12.85 -7.3 -13.15 -7.35 -13.25 -7.4 -13.35 -7.45 -13.2 -7.45 -12.25 -7.45 -11.25 -7.45 -10.4 -7.5 -10.25 -7.55 -10.1 -7.85 -9.65 -8.3 -9.1 -8.75 -8.7 -9.1 -8.6 -9.65 -8.6 -10.3 -8.85 -10.75 -9.1 -11.2 -9.7 -11.5 -10.1 -11.7 -10.35 -11.8 -10.2 -12.0 -9.9 -12.25 -9.65 -12.4 -9.5 -12.65 -9.35 -12.85 -9.2 -13.25 -9.1 -13.75 -9.1 -14.05 -9.15 -15.05 -9.85 -15.55 -10.4 -15.6 -10.5 -15.7 -10.65 -15.75 -10.8 -15.8 -10.95 -15.85 -11.1 -15.95 -11.25 -16.05 -11.5 -16.1 -11.8 -16.15 -12.1 -16.2 -12.25 -16.2 -12.35 -16.2 -12.5 -16.2 -12.65 -16.25 -12.8 -16.2 -12.95 -16.2 -13.1 -16.2 -13.35 -16.2 -13.65 -16.2 -13.95 -16.2 -14.05 -16.1 -14.35 -16.05 -14.65 -16.0 -14.8 -15.95 -14.95 -15.85 -15.05 -15.65 -15.2 -15.1 -15.4 -14.75 -15.5 -14.2 -15.45 -13.95 -15.4 -13.85 -15.35 -13.75 -15.25 -13.6 -15.1 -13.6 -14.95 -13.6 -14.85 -13.6 -14.7 -13.55 -14.55 -13.4 -14.4 -13.3 -14.25 -13.25 -14.1 -13.25 -14.0 -13.35 -13.85 -13.6 -13.75 -13.75 -13.8 -13.8 -13.85 -13.9 -13.95 -14.0 -14.05 -14.15 -14.2 -14.65 -14.1 -14.7 -14.0 -14.75 -13.85 -14.75 -13.7 -14.75 -13.55 -14.75 -13.4 -14.75 -13.25 -14.75 -13.15 -14.7 -13.0 -14.65 -12.85 -14.65 -12.7 -14.65 -12.55 -14.6 -12.4 -14.6 -12.3 -14.6 -12.15 -14.55 -12.0 -14.5 -11.85 -14.5 -11.7 -14.45 -11.55 -14.35 -11.4 -14.3 -11.3 -14.2 -11.15 -14.05 -11.0 -13.9 -10.85 -13.65 -10.7 -13.25 -10.7 -13.2 -10.7 -13.15 -10.8 -12.9 -11.1 -12.8 -11.25 -12.75 -11.4 -12.7 -11.5 -12.6 -11.65 -12.6 -11.8 -12.6 -12.5 -12.6 -13.2 -12.6 -13.8 -12.85 -14.75 -13.2 -16.05 -13.4 -17.05 -13.4 -17.35 -13.4 -17.65 -13.4 -17.9 -13.4 -18.05 -13.35 -18.2 -13.3 -18.35 -13.2 -18.5 -13.0 -18.6 -12.7 -18.7 -12.35 -18.6 -12.15 -18.45 -12.0 -18.35 -11.95 -18.2 -11.95 -18.05 -11.95 -17.9 -11.95 -17.75 -11.6 -16.5 -11.2 -14.65 -10.95 -12.95 -10.95 -12.8 -10.95 -12.65 -10.9 -12.5 -10.85 -12.35 -10.85 -12.25 -10.85 -12.1 -10.75 -11.95 -10.65 -11.65 -10.6 -11.5 -10.55 -11.4 -10.5 -11.25 -10.3 -10.95 -10.05 -10.5 -9.85 -10.25 -9.65 -10.1 -9.2 -10.1 -9.1 -10.25 -8.9 -10.55 -8.8 -10.65 -8.8 -10.8 -8.8 -12.25 -8.8 -13.95 -8.8 -15.35 -8.85 -15.5 -8.85 -15.65 -8.85 -15.8 -8.85 -15.9 -8.9 -16.05 -8.9 -16.2 -8.9 -16.35 -8.9 -16.5 -8.9 -16.65 -9.05 -17.35 -9.2 -18.05 -9.35 -18.6 -9.35 -18.75 -9.35 -19.45 -9.35 -20.05 -9.35 -20.45 -9.3 -20.6 -9.25 -20.75 -9.15 -20.9 -9.05 -21.05 -8.7 -21.15 -8.35 -21.05 -8.2 -20.9 -8.1 -20.75 -7.9 -19.9 -7.7 -19.05 -7.55 -18.35 -7.55 -18.2 -7.55 -18.05 -7.5 -17.9 -7.5 -17.75 -7.5 -17.65 -7.5 -17.5 -7.35 -16.8 -7.15 -16.05 -7.0 -15.5 -6.9 -15.35 -6.85 -15.2 -6.8 -15.05 -6.7 -14.95 -6.65 -14.8 -6.6 -14.65 -6.5 -14.5 -6.5 -14.35 -6.3 -14.05 -6.0 -13.65 -5.8 -13.35 -5.75 -13.2 -5.65 -13.1 -5.6 -12.95 -5.55 -12.8 -5.45 -12.65 -5.3 -12.5 -5.15 -12.35 -4.9 -12.3 -4.8 -12.4 -4.65 -12.55 -4.6 -12.7 -4.5 -12.85 -4.45 -13.0 -4.35 -13.15 -4.25 -13.25 -4.2 -13.4 -4.1 -13.55 -4.0 -13.7 -3.95 -13.85 -3.85 -14.0 -3.8 -14.1 -3.7 -14.4 -3.6 -14.7 -3.5 -14.95 -3.45 -15.1 -3.45 -15.85 -3.45 -16.55 -3.45 -17.1 -3.5 -17.25 -3.5 -17.4 -3.5 -17.55 -3.55 -17.65 -3.55 -17.8 -3.55 -17.95 -3.55 -18.1 -3.55 -18.25 -3.6 -18.4 -3.65 -18.65 -3.7 -18.95 -3.75 -19.25 -3.8 -19.25 -3.8 -18.95 -3.8 -18.65 -3.8 -18.4 -3.8 -18.25 -3.85 -18.15 -3.95 -18.1 -4.05 -18.25 -4.05 -18.4 -4.05 -18.5 -4.05 -18.95 -4.05 -19.4 -4.05 -19.65 -4.1 -19.8 -4.15 -19.95 -4.15 -20.1 -4.15 -20.25 -4.2 -20.35 -4.25 -20.5 -4.35 -20.65 -4.4 -20.8 -4.4 -20.95 -4.3 -21.1 -4.15 -21.2 -3.9 -21.3 -3.65 -21.2" fill="#333333" fill-rule="evenodd" stroke="none"/>
    <path d="M2.75 -6.25 L3.0 -6.25 3.15 -6.1 3.25 -6.0 3.35 -5.85 3.4 -5.7 3.5 -5.55 3.65 -5.4 3.7 -5.25 3.7 -5.15 3.7 -5.0 3.7 -4.85 3.7 -4.7 3.75 -4.55 3.75 -4.15 3.75 -3.7 3.75 -3.4 3.75 -3.3 3.8 -3.15 3.8 -3.0 3.5 -1.85 3.15 -0.7 2.9 0.15 2.8 0.25 2.7 0.4 2.6 0.55 2.55 0.7 2.45 0.85 2.4 1.0 2.3 1.1 2.25 1.25 2.15 1.4 1.0 2.75 -0.75 3.95 -2.45 4.15 -4.0 3.5 -4.15 3.35 -4.45 2.9 -4.7 2.7 -4.75 2.75 -4.85 2.9 -4.9 3.0 -4.95 3.15 -5.0 3.3 -5.1 3.45 -5.15 3.6 -5.2 3.75 -6.15 4.8 Q-6.95 5.45 -7.95 5.8 L-8.25 5.8 -8.6 5.7 -9.25 5.4 -9.45 5.3 -9.55 5.15 -9.65 5.0 -9.75 4.85 -9.85 4.7 -9.9 4.6 -10.0 4.45 -10.05 4.3 -10.2 4.2 -10.6 4.3 -11.1 4.3 -11.45 4.2 -13.05 3.05 -13.65 2.2 -13.7 2.05 -13.8 1.95 -13.85 1.8 -13.95 1.65 -14.05 1.5 -14.45 1.6 -14.6 1.55 -14.75 1.4 -14.9 1.25 -14.95 1.1 -15.0 1.0 -15.0 0.85 -14.95 0.7 -14.9 0.55 -14.85 0.4 -14.85 0.25 -14.85 0.15 -14.85 0.0 -14.85 -0.15 -14.9 -0.3 -14.9 -0.45 -14.9 -0.7 -14.9 -1.0 -14.9 -1.3 -14.9 -1.45 -14.85 -1.55 -14.8 -1.7 -14.7 -1.85 -14.5 -2.0 -14.2 -2.1 -13.95 -2.05 -13.85 -2.0 -13.75 -1.9 -13.6 -1.75 -13.55 -1.6 -13.5 -1.5 -13.5 -1.35 -13.5 -1.2 -13.5 -1.05 -13.5 -0.9 -13.45 -0.75 -13.4 -0.65 -13.4 -0.5 -13.35 -0.35 -13.25 -0.2 -13.2 -0.05 -13.1 0.1 -13.0 0.2 -12.95 0.35 -12.85 0.5 -12.8 0.65 -12.75 0.8 -12.7 0.95 -12.65 1.1 -12.55 1.2 -12.5 1.35 -12.4 1.5 -12.35 1.65 -12.2 1.8 -12.1 1.95 -12.0 2.05 -11.9 2.2 -11.75 2.35 -11.4 2.65 -11.15 2.8 -10.65 2.8 -10.55 2.65 -10.45 2.5 -10.4 2.35 -10.35 2.2 -10.35 0.65 -10.35 -0.75 -10.35 -1.9 -10.3 -2.05 -10.3 -2.2 -10.3 -2.35 -10.25 -2.45 -10.25 -2.6 -10.25 -2.75 -10.25 -2.9 -10.2 -3.05 -10.15 -3.2 -10.15 -3.35 -10.15 -3.45 -10.1 -3.75 -9.95 -4.2 -9.9 -4.45 -9.85 -4.6 -9.75 -4.75 -9.7 -4.9 -9.6 -5.05 -9.4 -5.15 -9.1 -5.25 -8.85 -5.2 -8.75 -5.15 -8.6 -5.05 -8.45 -4.95 -8.35 -4.65 -8.25 -4.25 -8.2 -3.95 -8.2 -3.8 -8.2 -2.4 -8.2 -0.65 -8.2 0.75 -8.2 0.9 -8.35 1.45 -8.5 2.0 -8.6 2.3 -8.7 2.45 -8.8 2.6 -8.9 2.75 -8.95 2.9 -8.95 3.0 -8.95 3.15 -8.95 3.3 -8.9 3.45 -8.8 3.6 -8.7 3.75 -8.65 3.85 -8.55 4.0 -8.45 4.15 -8.35 4.3 -8.05 4.3 -7.95 4.3 -7.75 4.2 -7.25 3.9 -7.05 3.8 -6.95 3.65 -6.7 3.35 -6.5 3.05 -6.45 2.9 -6.4 2.8 -6.3 2.65 -6.25 2.5 -6.2 2.35 -6.15 2.2 -6.05 2.05 -5.95 1.8 -5.85 1.5 -5.75 1.2 -5.7 1.1 -5.6 0.95 -5.6 0.8 -5.55 0.65 -5.55 -0.65 -5.55 -1.75 -5.55 -2.75 -5.5 -2.9 -5.5 -3.05 -5.5 -3.2 -5.45 -3.35 -5.45 -3.45 -5.45 -3.6 -5.4 -3.75 -5.4 -3.9 -5.4 -4.05 -5.35 -4.2 -5.35 -4.3 -5.35 -4.45 -5.3 -4.6 -5.3 -4.75 -5.3 -4.9 -5.25 -5.05 -5.25 -5.15 -5.25 -5.3 -5.2 -5.45 -5.2 -5.6 -5.15 -5.75 -5.1 -5.9 -5.05 -6.05 -4.95 -6.15 -4.9 -6.3 -4.85 -6.45 -4.8 -6.6 -4.75 -6.75 -4.7 -6.9 -4.65 -7.0 -4.6 -7.15 -4.5 -7.3 -4.4 -7.45 -4.25 -7.6 -3.9 -7.7 -3.9 -7.65 -3.7 -7.65 -3.5 -7.55 -3.35 -7.4 -3.25 -7.25 -3.2 -7.1 -3.15 -6.95 -3.1 -6.85 -3.1 -5.55 -3.1 -4.15 -3.1 -3.0 -3.4 -1.7 -3.75 -0.3 -4.0 0.85 -3.95 1.0 -3.9 1.1 -3.85 1.25 -3.8 1.4 -3.75 1.55 -3.7 1.7 -3.6 1.85 -3.4 2.1 -3.15 2.4 -3.0 2.55 -2.8 2.7 -2.6 2.85 -1.75 2.9 -1.5 2.85 Q-0.35 2.6 0.4 1.7 L1.1 0.7 1.15 0.55 1.25 0.4 1.35 0.25 1.45 0.15 1.5 0.0 1.55 -0.15 1.65 -0.3 1.75 -0.45 1.85 -0.6 1.95 -0.85 2.1 -1.3 2.2 -1.55 2.25 -1.7 2.35 -1.85 2.45 -2.15 2.55 -2.55 2.7 -3.0 2.8 -3.3 2.8 -3.4 2.8 -3.7 2.8 -4.0 2.8 -4.25 2.8 -4.4 2.85 -4.55 2.85 -4.7 2.85 -4.85 2.85 -5.0 2.85 -5.15 2.85 -5.25 2.8 -5.4 2.75 -5.55 2.7 -5.7 2.65 -5.85 2.35 -5.85 2.25 -5.9 2.3 -6.05 2.5 -6.1 2.6 -6.15 2.75 -6.25" fill="#333333" fill-rule="evenodd" stroke="none"/>
    <path d="M-29.05 -17.95 L-29.0 -17.8 -28.95 -17.65 -28.95 -17.55 -28.95 -17.4 -28.95 -17.25 -28.9 -17.1 -28.9 -16.95 -28.85 -16.8 -28.8 -16.7 -28.8 -16.55 -28.8 -16.4 -28.8 -16.25 -28.8 -16.1 -28.8 -15.95 -28.8 -15.85 -28.75 -15.7 -28.75 -15.55 -28.75 -15.4 -28.7 -15.25 -28.7 -14.95 -28.7 -14.55 -28.7 -14.1 -28.7 -13.55 -28.65 -13.4 -28.65 -13.25 -28.65 -12.55 -28.65 -12.0 -28.65 -11.3 -28.65 -11.15 -28.75 -10.85 -28.85 -10.45 -28.9 -10.0 -28.9 -9.85 -28.85 -9.7 -28.85 -9.6 -28.85 -9.45 -28.8 -9.3 -28.8 -9.15 -28.75 -9.0 -28.7 -8.85 -28.65 -8.7 -28.55 -8.6 -28.5 -8.45 -28.4 -8.3 -28.35 -8.15 -28.3 -8.0 -28.25 -7.85 -28.2 -7.75 -28.1 -7.6 -28.05 -7.45 -28.0 -7.3 -27.95 -7.15 -27.9 -7.0 -27.85 -6.9 -27.8 -6.75 -27.75 -6.6 -27.6 -6.45 -26.9 -6.4 -26.55 -6.65 -25.8 -7.35 -25.2 -8.2 -25.2 -8.5 -25.2 -9.2 -25.2 -9.75 -25.2 -10.5 -25.2 -10.6 -25.2 -10.75 -25.2 -10.9 -25.15 -11.05 -25.1 -11.2 -25.1 -11.35 -25.1 -11.45 -25.1 -11.6 -25.05 -11.75 -25.05 -11.9 -25.05 -12.05 -25.0 -12.2 -25.0 -12.3 -25.0 -12.45 -24.95 -12.6 -24.95 -12.75 -24.95 -12.9 -24.95 -13.05 -24.9 -13.15 -24.9 -13.3 -24.9 -13.45 -24.9 -13.6 -24.85 -13.75 -24.85 -15.0 -24.85 -16.0 -24.85 -17.0 -24.8 -17.15 -24.75 -17.3 -24.7 -17.45 -24.65 -17.6 -24.6 -17.7 -24.5 -17.85 -24.35 -18.0 -24.05 -18.1 -23.85 -18.1 -23.6 -18.05 -23.5 -18.0 -23.45 -17.9 -23.3 -17.75 -23.2 -17.65 -23.15 -17.5 -23.1 -17.35 -23.0 -17.2 -22.95 -17.05 -22.9 -16.9 -22.85 -16.75 -22.8 -16.65 -22.7 -16.5 -22.7 -16.35 -22.65 -16.2 -22.65 -16.05 -22.65 -15.05 -22.65 -14.2 -22.65 -13.35 -22.6 -13.2 -22.6 -12.95 -22.6 -12.35 -22.6 -11.8 -22.6 -11.25 -22.95 -10.25 -23.4 -8.95 -23.75 -7.8 -23.85 -7.7 -23.95 -7.55 -24.0 -7.4 -24.0 -7.25 -24.0 -7.1 -24.0 -6.95 -24.0 -6.85 -24.0 -6.7 -23.95 -6.55 -23.9 -6.4 -23.9 -6.25 -23.85 -6.1 -23.75 -6.0 -23.7 -5.85 -23.6 -5.7 -22.9 -5.6 -22.75 -5.6 -22.55 -5.65 -22.45 -5.7 -22.3 -5.8 -21.95 -6.05 -21.6 -6.35 -21.35 -6.65 -20.95 -7.05 -20.65 -7.5 -20.6 -7.65 -20.5 -7.8 -20.45 -7.9 -20.35 -8.05 -20.3 -8.2 -20.2 -8.35 -20.15 -8.5 -20.05 -8.65 -20.05 -8.75 -19.85 -9.35 -19.65 -9.9 -19.55 -10.5 -19.45 -10.6 -19.4 -10.9 -19.3 -11.5 -19.2 -12.05 -19.05 -12.6 -19.05 -12.75 -19.05 -13.6 -19.05 -14.3 -19.05 -15.0 -19.1 -15.15 -19.15 -15.3 -19.15 -15.45 -19.15 -15.6 -19.15 -15.75 -19.2 -15.85 -19.2 -16.0 -19.2 -16.15 -19.2 -16.3 -19.2 -16.45 -19.25 -16.6 -19.25 -16.7 -19.3 -16.85 -19.3 -17.0 -19.35 -17.15 -19.45 -17.3 -19.55 -17.45 -19.65 -17.6 -19.8 -17.65 -19.9 -17.55 -20.15 -17.6 -20.2 -17.7 -20.15 -17.85 -20.05 -18.0 -20.1 -18.15 -20.05 -18.3 -19.9 -18.45 -19.85 -18.45 -19.6 -18.45 -19.3 -18.3 -19.25 -18.3 -19.05 -18.05 -18.85 -17.75 -18.55 -17.5 -18.45 -17.2 -18.4 -16.9 -18.35 -16.5 -18.2 -16.05 -18.2 -15.9 -18.2 -15.8 -18.15 -15.65 -18.15 -15.5 -18.15 -15.35 -18.15 -15.2 -18.1 -15.05 -18.1 -14.95 -18.05 -14.8 -18.05 -14.65 -18.05 -13.8 -18.05 -13.1 -18.05 -12.25 -18.1 -11.95 -18.2 -11.5 -18.25 -11.1 -18.35 -10.65 -18.35 -10.5 -18.35 -10.4 -18.35 -10.25 -18.6 -9.55 -18.75 -8.95 -18.95 -8.25 -19.05 -8.1 -19.1 -7.95 -19.2 -7.8 -19.25 -7.7 -19.35 -7.55 -19.4 -7.4 -19.5 -7.25 -19.55 -7.1 -19.65 -6.95 -19.7 -6.85 -20.0 -6.4 -20.8 -5.6 -21.8 -4.7 -22.3 -4.55 -22.9 -4.35 -23.9 -4.4 -24.1 -4.5 -24.3 -4.65 -24.5 -4.8 -24.6 -4.95 -24.7 -5.1 -24.8 -5.2 -24.9 -5.35 -24.95 -5.5 -25.0 -5.65 -25.05 -5.8 -25.1 -5.95 -25.15 -6.05 -25.25 -5.95 -25.75 -5.55 -26.35 -5.15 -26.7 -5.05 -27.85 -5.0 -28.05 -5.05 -28.15 -5.1 -28.3 -5.2 -28.75 -5.6 -29.05 -6.05 -29.1 -6.15 -29.15 -6.3 -29.25 -6.45 -29.3 -6.6 -29.35 -6.75 -29.4 -6.9 -29.45 -7.0 -29.55 -7.15 -29.6 -7.3 -29.65 -7.45 -29.7 -7.6 -29.7 -7.75 -29.8 -7.85 -29.85 -8.0 -29.85 -8.15 -29.95 -8.05 -30.0 -7.9 -30.1 -7.8 -30.2 -7.65 -30.35 -7.5 -30.5 -7.35 -31.0 -7.05 Q-31.35 -6.75 -31.8 -6.7 L-32.2 -6.7 -32.4 -6.75 -32.55 -6.85 -32.75 -6.95 -32.85 -7.1 -32.95 -7.25 -33.0 -7.4 -33.2 -7.7 -33.35 -7.95 -33.55 -8.25 -33.65 -8.55 -33.75 -8.95 -33.8 -9.4 Q-33.8 -9.75 -34.0 -9.6 L-34.8 -8.7 Q-35.55 -8.0 -36.6 -7.8 L-36.75 -7.7 -37.1 -7.6 -37.7 -7.6 -38.0 -7.7 -38.25 -7.85 -38.65 -8.15 -38.9 -8.4 -38.95 -8.55 -39.0 -8.7 -39.1 -8.8 -39.15 -8.95 -39.15 -9.1 -39.15 -9.25 -39.15 -9.4 -39.15 -9.55 -39.15 -9.65 -39.1 -9.8 -39.1 -9.95 -39.1 -10.1 -39.1 -10.25 -39.05 -10.4 -39.0 -10.5 -38.9 -10.65 -38.75 -10.8 -38.45 -10.9 -38.2 -10.85 -37.5 -10.7 -37.35 -10.55 -36.75 -10.4 -36.65 -10.35 -36.65 -10.2 -36.75 -10.05 -37.35 -9.9 -37.5 -9.75 -37.7 -9.6 -37.7 -9.5 -37.7 -9.35 -37.6 -9.2 -37.1 -9.1 -37.05 -9.1 -36.6 -9.25 -35.95 -9.55 -35.55 -9.95 -35.2 -10.4 -34.8 -10.95 -34.7 -11.25 -34.6 -11.65 -34.5 -12.1 -34.3 -12.65 -34.2 -12.8 -34.05 -12.95 -33.7 -13.05 -33.45 -13.0 -33.35 -12.95 -33.25 -12.85 -33.1 -12.7 -33.0 -12.55 -32.95 -12.4 -32.85 -12.3 -32.8 -12.15 -32.8 -12.0 -32.8 -11.85 -32.8 -11.7 -32.8 -11.55 -32.75 -11.4 -32.55 -10.4 -32.4 -9.7 -32.25 -8.85 -32.15 -8.7 -32.05 -8.6 -31.95 -8.45 -31.85 -8.3 -31.65 -8.3 -31.45 -8.45 -31.25 -8.7 -31.05 -9.0 -30.95 -9.15 -30.9 -9.3 -30.8 -9.45 -30.7 -9.6 -30.65 -9.7 -30.55 -9.85 -30.5 -10.0 -30.45 -10.15 -30.35 -10.3 -30.35 -10.45 -30.35 -10.7 -30.35 -11.4 -30.35 -12.0 -30.35 -12.7 -30.4 -12.85 -30.4 -13.0 -30.4 -13.15 -30.4 -13.25 -30.45 -13.4 -30.5 -13.55 -30.5 -13.7 -30.5 -13.85 -30.55 -14.0 -30.55 -14.1 -30.55 -14.25 -30.55 -14.4 -30.55 -15.7 -30.55 -16.8 -30.55 -17.8 -30.55 -17.95 -30.5 -18.1 -30.4 -18.25 -30.25 -18.4 -29.9 -18.5 -29.6 -18.35 -29.3 -18.25 -29.15 -18.1 -29.05 -17.95" fill="#333333" fill-rule="evenodd" stroke="none"/>
    <path d="M-23.0 -0.65 L-23.05 -0.7 -23.15 -0.45 -23.25 0.15 -23.45 0.7 -23.45 1.7 -23.45 3.4 -23.4 5.05 -23.25 4.6 -23.15 4.0 -23.0 3.45 -23.0 2.45 -23.0 0.9 -23.0 -0.65 M-38.3 -0.55 L-38.05 -0.7 -37.8 -0.8 -37.5 -0.9 -37.3 -0.9 -36.95 -0.8 -36.45 -0.4 -36.05 0.05 -35.95 0.2 -35.95 0.3 -35.85 0.45 -35.8 0.6 -35.7 0.75 -35.65 0.9 -35.55 1.05 -35.5 1.15 -35.45 1.3 -35.35 1.45 -35.3 1.6 -35.2 1.75 -35.15 1.9 -35.05 2.0 -35.05 2.15 -34.95 2.3 -34.85 2.45 -34.8 2.6 -34.7 2.75 -34.45 3.0 -34.35 3.15 -34.25 3.3 -33.9 3.6 -33.7 3.7 -33.45 3.85 -32.6 3.9 -32.5 3.85 -32.4 3.8 -32.3 3.65 -32.15 3.5 -32.05 3.35 -32.0 3.2 -31.9 3.05 -31.8 2.9 -31.75 2.8 -31.65 2.65 -31.55 2.35 -31.45 2.05 -31.4 1.8 -31.35 1.65 -31.35 1.5 -31.35 1.35 -31.3 1.2 -31.3 1.1 -31.3 0.95 -31.25 0.8 -31.25 0.65 -31.25 0.5 -31.25 0.35 -31.2 0.2 -31.2 0.1 -31.2 -0.05 -31.15 -0.2 -31.15 -0.35 -31.1 -0.5 -31.1 -0.65 -31.05 -0.75 -31.05 -0.9 -31.05 -1.05 -31.0 -1.2 -31.0 -1.35 -30.95 -1.5 -30.95 -1.6 -30.9 -1.75 -30.9 -1.9 -30.9 -2.05 -30.85 -2.2 -30.85 -2.35 -30.8 -2.45 -30.8 -2.6 -30.8 -2.75 -30.8 -2.9 -30.75 -3.05 -30.7 -3.2 -30.6 -3.35 -30.45 -3.45 -30.1 -3.55 -29.85 -3.5 -29.7 -3.4 -29.55 -3.3 -29.4 -3.15 -29.25 -3.0 -29.15 -2.7 -29.05 -2.45 -29.0 -2.3 -28.95 -2.15 -28.95 -0.3 -28.95 1.85 -28.95 3.7 -28.85 4.1 -28.75 4.55 -28.65 4.8 -28.65 4.95 -28.55 5.1 -28.5 5.25 -28.45 5.4 -28.4 5.55 -28.35 5.65 -28.3 5.8 -28.2 5.95 -28.0 6.25 -27.8 6.55 -27.7 6.65 -27.45 6.8 Q-27.2 6.95 -26.9 7.05 L-26.65 7.2 -25.35 7.2 -25.15 7.1 -24.8 6.95 -24.65 6.8 -24.55 6.65 -24.6 6.5 -24.65 6.4 -24.65 4.7 -24.65 2.4 -24.65 0.4 -24.4 -0.55 -24.1 -1.7 -23.85 -2.55 -23.75 -2.7 -23.55 -3.0 -23.35 -3.25 -23.25 -3.4 -22.9 -3.5 -22.65 -3.5 -22.35 -3.4 -22.15 -3.3 -22.05 -3.15 -22.0 -3.0 -21.9 -2.45 -21.8 -2.0 -21.75 -1.7 -21.75 -1.55 -21.75 -1.45 -21.7 -1.3 -21.7 -1.15 -21.7 -1.0 -21.65 -0.85 -21.65 0.4 -21.65 2.0 -21.65 3.25 -21.65 3.4 -21.65 3.55 -21.65 3.7 -21.65 3.8 -21.65 3.95 -21.8 4.7 -21.95 5.4 -22.1 5.8 -22.2 5.95 -22.3 6.1 -22.4 6.25 -22.45 6.4 -22.55 6.5 -22.7 6.8 -22.8 6.95 -22.9 7.1 -22.85 7.25 -22.7 7.35 -22.55 7.5 Q-22.35 7.65 -22.1 7.75 L-21.9 7.8 -21.7 7.85 -21.45 7.85 -20.75 7.65 -19.95 7.35 -19.85 7.25 -19.55 6.95 -19.45 6.8 -19.35 6.65 -19.3 6.5 -19.2 6.4 -19.15 6.25 -19.05 6.1 -19.0 5.95 -18.95 5.8 -18.95 5.65 -18.95 5.55 -18.95 4.4 -18.95 3.25 -18.95 2.4 -18.9 2.25 -18.85 2.1 -18.85 1.85 -18.85 1.1 -18.85 0.55 -18.85 0.25 -18.85 0.15 -18.9 0.0 -18.95 -0.15 -18.95 -0.3 -18.95 -0.45 -18.95 -0.6 -18.95 -0.7 -18.95 -0.85 -18.95 -1.15 -18.95 -1.45 -18.95 -1.55 -18.95 -1.7 -18.9 -1.85 -18.85 -2.0 -18.85 -2.15 -18.85 -2.3 -18.8 -2.45 -18.65 -2.55 -18.4 -2.55 -18.3 -2.4 -18.25 -2.3 -18.25 -2.15 -18.25 -2.0 -18.2 -1.85 -18.15 -1.7 -18.15 -1.55 -18.15 -1.45 -18.15 -1.3 -18.15 -1.15 -18.15 -1.0 -18.15 -0.85 -18.1 -0.7 -18.1 -0.6 -18.05 -0.45 -18.05 -0.3 -18.05 -0.15 -18.05 0.0 -18.0 0.15 -18.0 0.25 -18.0 0.4 -17.9 0.55 -17.9 0.7 -17.9 1.1 -17.9 1.55 -17.9 2.0 -17.9 2.1 -17.8 2.25 -17.8 2.4 -17.8 3.55 -17.8 4.8 -17.8 5.8 -17.75 5.95 -17.75 6.1 -17.75 6.25 -17.8 6.4 -17.9 6.5 -17.95 6.65 -18.05 6.8 -18.1 6.95 -18.15 7.1 -18.2 7.25 -18.55 7.65 -19.1 8.2 -19.45 8.5 -20.95 9.0 -21.6 9.15 -22.2 9.0 -22.55 8.9 -22.75 8.85 -23.35 8.45 -23.7 8.15 -23.8 8.05 -24.65 8.4 -25.3 8.65 -26.75 8.55 -27.6 8.35 -27.85 8.25 -29.1 7.25 -29.5 6.65 -29.55 6.5 -29.65 6.4 -29.7 6.25 -29.7 6.1 -29.75 5.95 -29.8 5.8 -29.85 5.65 -29.95 5.55 -30.0 5.4 -30.15 4.8 -30.3 4.25 -30.4 3.95 -30.4 3.8 -30.4 3.7 -30.4 3.55 -30.4 3.4 -30.4 3.3 -30.5 3.45 -30.55 3.6 -30.6 3.75 -30.7 3.85 -30.75 4.0 -30.95 4.3 -31.55 4.85 -31.85 5.15 -32.5 5.3 -33.5 5.4 -33.85 5.3 -34.1 5.15 Q-34.9 4.7 -35.5 4.0 L-36.1 3.15 -36.15 3.0 -36.25 2.9 -36.35 2.75 -36.4 2.6 -36.5 2.45 -36.55 2.3 -36.65 2.15 -36.7 2.0 -36.8 1.9 -36.8 1.75 -36.85 1.6 -36.95 1.45 -37.0 1.3 -37.1 1.15 -37.15 1.05 -37.25 0.9 -37.35 0.9 -37.4 1.05 -37.45 1.15 -37.55 1.3 -37.6 1.45 -37.7 1.6 -37.7 1.75 -37.9 2.0 -38.6 2.85 -39.2 3.45 -39.9 3.65 -40.35 3.75 -41.4 3.75 -41.8 3.65 -42.05 3.5 -42.5 3.2 -42.65 3.05 -42.7 2.9 -42.8 2.8 -42.9 2.65 -43.2 2.55 -43.3 2.5 -43.45 2.4 -43.55 2.25 -43.65 2.1 -43.7 1.95 -43.7 1.85 -43.65 1.7 -43.6 1.55 -43.5 1.4 -43.3 1.25 -43.0 1.2 -42.6 1.1 -42.3 1.15 -42.15 1.3 Q-41.85 1.45 -41.65 1.7 L-41.45 2.0 -41.35 2.1 -40.35 2.2 -40.05 2.2 -39.85 2.15 -39.85 2.1 -39.5 1.75 -39.1 1.2 -38.9 0.9 -38.85 0.75 -38.75 0.6 -38.65 0.3 -38.6 0.05 -38.55 -0.1 -38.5 -0.25 -38.4 -0.4 -38.3 -0.55" fill="#333333" fill-rule="evenodd" stroke="none"/>
    <path d="M21.1 14.05 L21.25 14.1 21.35 14.15 21.45 14.25 21.55 14.4 21.6 14.5 21.65 14.65 21.65 14.8 21.7 14.95 21.75 15.1 21.75 15.4 21.75 15.8 21.75 16.25 21.75 16.5 21.8 16.65 21.8 16.95 21.8 17.5 21.8 18.05 21.8 18.35 21.75 18.5 21.75 18.65 21.75 18.8 21.7 18.95 21.7 19.05 21.7 19.2 21.65 19.35 21.65 19.5 21.55 19.65 21.5 19.8 21.4 19.9 21.35 20.05 21.25 20.2 21.2 20.35 21.15 20.5 20.9 20.75 20.35 21.35 20.1 21.65 19.25 22.0 17.6 22.35 17.2 22.25 16.75 22.1 16.5 22.0 16.05 22.55 15.65 23.15 15.4 23.4 15.1 23.55 14.55 23.85 14.25 24.0 13.9 24.1 13.05 24.0 12.95 24.0 12.8 23.9 12.65 23.75 12.4 23.6 12.3 23.45 12.25 23.35 12.15 23.05 12.0 22.6 11.85 22.2 11.8 22.05 10.85 23.05 9.9 23.75 9.55 23.85 8.35 23.85 8.0 23.75 7.8 23.6 7.65 23.45 7.45 23.2 7.35 23.05 7.25 22.9 7.2 22.75 7.15 22.6 7.1 22.5 7.1 22.35 7.05 22.2 7.05 21.75 7.05 21.35 7.05 21.05 7.05 20.9 7.0 21.05 6.9 21.35 6.8 21.65 6.75 21.75 6.65 21.9 6.45 22.05 6.05 22.15 5.8 22.1 5.7 22.05 5.6 21.95 5.45 21.8 5.4 21.65 5.35 21.55 5.35 21.4 5.3 21.25 5.35 21.1 5.35 20.95 5.4 20.8 5.5 20.7 5.85 19.7 6.15 18.55 6.45 17.7 6.55 17.55 6.6 17.4 6.65 17.25 6.7 17.15 6.75 17.0 6.85 16.85 6.9 16.7 6.9 16.55 7.0 16.4 7.05 16.3 7.15 16.15 7.2 16.0 7.3 15.85 7.4 15.7 7.65 15.55 7.95 15.45 8.35 15.55 8.55 15.7 8.65 15.85 8.7 16.0 8.7 16.15 8.7 17.0 8.7 18.0 8.7 18.7 8.7 18.85 8.65 18.95 8.65 19.1 8.65 19.25 8.65 19.4 8.6 19.55 8.6 19.7 8.6 20.55 8.6 21.4 8.6 21.95 8.65 22.1 8.7 22.25 9.5 22.3 9.85 22.05 10.3 21.6 10.55 21.35 10.6 21.2 10.7 21.05 11.0 20.65 11.2 20.35 11.3 20.2 11.35 20.05 11.4 19.9 11.45 19.8 11.55 19.65 11.6 19.5 11.7 19.35 11.75 19.2 11.8 19.05 11.8 18.8 11.8 18.5 11.8 18.2 11.8 18.05 11.9 17.8 12.1 17.25 12.2 16.65 12.25 16.35 12.25 16.25 12.25 16.1 12.3 15.95 12.35 15.8 12.35 15.65 12.35 15.5 12.35 15.4 12.4 15.25 12.45 15.1 12.45 14.95 12.45 14.8 12.45 14.65 12.5 14.5 12.5 14.4 12.55 14.25 12.55 14.1 12.55 13.95 12.6 13.8 12.6 13.55 12.6 13.25 12.6 12.95 12.6 12.8 12.65 12.7 12.7 12.55 12.8 12.4 12.95 12.25 13.25 12.15 13.25 12.2 13.5 12.2 13.7 12.3 13.85 12.45 13.9 12.6 13.95 12.7 13.95 13.85 13.95 15.15 13.95 16.15 13.9 16.3 13.8 16.85 13.65 17.3 13.6 17.55 13.6 17.7 13.6 17.85 13.55 18.0 13.45 18.55 13.3 19.1 13.2 19.4 13.2 19.7 13.2 20.4 13.2 21.1 13.2 21.55 13.3 21.8 13.4 22.25 13.5 22.55 13.5 22.65 14.0 22.65 14.25 22.5 14.5 22.4 14.95 21.8 15.45 21.1 15.75 20.7 15.8 20.55 15.85 20.4 15.9 20.25 15.95 20.1 16.0 19.95 16.1 19.8 16.1 19.7 16.1 19.55 16.1 19.4 16.1 19.25 16.15 19.1 16.4 18.4 16.65 17.7 16.75 17.25 16.85 17.15 16.9 17.0 16.9 16.85 16.9 16.7 16.9 16.55 16.95 16.3 17.0 16.0 17.1 15.7 17.15 15.55 17.25 15.4 17.3 15.3 17.35 15.15 17.4 15.0 17.4 14.85 17.4 14.7 17.4 14.55 17.4 14.45 17.4 14.3 17.45 14.15 17.55 14.0 17.7 13.85 18.0 13.75 18.25 13.8 18.4 13.9 18.5 14.05 18.6 14.2 18.6 14.35 18.6 14.75 18.6 15.2 18.6 15.45 18.6 15.6 18.6 15.75 18.55 15.9 18.55 16.05 18.5 16.2 18.5 16.3 18.5 16.45 18.5 16.6 18.3 17.45 18.05 18.45 17.8 19.15 17.7 19.3 17.6 19.6 17.55 19.85 17.5 20.0 17.45 20.15 17.35 20.3 17.35 20.45 17.35 20.6 17.35 20.75 17.35 20.85 17.4 21.0 17.65 21.1 18.45 21.1 18.7 21.05 18.9 20.95 19.2 20.8 19.4 20.7 19.85 20.25 20.1 19.95 20.2 19.85 20.25 19.7 20.3 19.55 20.4 19.4 20.45 19.25 20.5 19.1 20.55 18.95 20.55 18.85 20.55 18.7 20.6 18.55 20.6 18.4 20.6 18.25 20.6 18.1 20.65 18.0 20.65 17.7 20.65 17.25 20.65 17.0 20.65 16.85 20.7 16.7 20.7 16.4 20.7 15.85 20.7 15.3 20.7 15.0 20.65 14.85 20.6 14.7 20.6 14.55 20.65 14.45 20.7 14.3 20.85 14.15 21.1 14.05" fill="#333333" fill-rule="evenodd" stroke="none"/>
    <path d="M-0.2 11.6 L-0.35 12.0 -0.35 12.7 -0.4 13.85 -0.3 14.95 -0.25 14.75 -0.2 14.35 -0.1 13.9 -0.1 13.2 -0.1 12.05 -0.1 10.95 -0.15 11.15 -0.2 11.6 M0.8 8.3 L0.95 8.75 1.15 9.6 1.3 10.3 1.35 10.6 1.35 10.9 1.35 12.15 1.35 13.45 1.35 14.3 1.2 14.85 1.05 15.45 1.0 15.7 0.95 15.85 0.95 16.0 0.95 16.15 0.75 16.7 0.6 17.25 0.5 17.55 0.5 17.7 0.4 17.85 0.35 18.0 0.25 18.1 0.15 18.25 0.1 18.4 0.0 18.55 -0.1 18.7 -0.15 18.85 -0.1 18.95 0.0 19.25 0.05 19.4 0.05 19.55 0.1 19.7 0.2 19.85 0.3 19.95 0.95 20.0 1.15 19.9 1.4 19.8 1.5 19.65 2.1 18.95 2.5 18.35 2.65 18.05 2.7 17.95 2.75 17.8 2.8 17.65 2.85 17.5 2.9 17.35 3.0 17.2 3.5 15.8 3.9 14.25 4.2 13.25 4.2 12.8 4.2 12.1 4.15 11.55 4.15 11.3 4.0 11.45 4.0 11.6 4.0 11.75 4.0 11.85 4.0 12.0 4.0 12.15 4.0 12.3 3.9 12.45 3.7 12.45 3.65 12.3 3.6 12.15 3.6 12.0 3.6 11.85 3.6 11.75 3.6 11.6 3.6 11.45 3.55 11.3 3.45 11.15 3.5 11.0 3.55 10.9 3.75 10.75 3.9 10.6 3.95 10.45 4.0 10.3 4.25 10.15 4.55 10.05 4.9 10.15 5.1 10.45 5.2 10.6 5.3 10.75 5.3 10.9 5.3 11.3 5.3 12.15 5.3 12.85 5.3 13.15 5.35 13.3 5.35 13.45 5.35 13.6 5.35 13.7 4.9 15.4 4.35 17.25 3.9 18.7 3.45 19.25 2.55 20.55 1.7 21.25 1.0 21.45 -0.25 21.35 -0.5 21.25 -0.65 21.15 -0.8 21.0 -0.85 20.85 -0.95 20.75 -1.05 20.6 -1.15 20.45 -1.2 20.45 -1.3 20.6 -1.4 20.7 -1.55 20.85 -1.8 21.0 -2.7 21.6 -3.2 21.85 -3.6 21.95 -4.15 21.95 -4.45 21.9 -4.65 21.8 -4.85 21.65 -5.1 21.55 -5.5 21.1 -5.7 20.8 -5.8 20.7 -5.9 20.55 -5.95 20.4 -6.05 20.25 -6.1 20.1 -6.2 19.95 -6.25 19.8 -6.25 19.7 -6.3 19.8 -6.4 19.9 -6.45 20.05 -6.5 20.2 -6.5 20.35 -6.55 20.5 -6.6 20.65 -6.7 20.75 -6.75 20.9 -6.8 21.05 -7.0 21.35 -7.15 21.5 -7.3 21.65 -7.4 21.75 -7.65 21.9 -7.9 22.05 -8.25 22.15 -8.9 22.15 -9.15 22.1 -9.25 22.05 -9.35 21.95 -9.55 21.8 -9.95 21.4 -10.25 21.1 -10.35 20.95 -10.5 20.8 -10.55 20.7 -10.65 20.55 -10.75 20.4 -10.85 20.25 -10.95 20.1 -10.95 19.95 -11.05 19.85 -11.1 19.7 -11.2 19.55 -11.25 19.4 -11.3 19.25 -11.35 19.1 -11.4 18.95 -11.5 18.85 -11.55 18.7 -11.55 18.55 -11.6 18.4 -11.6 18.25 -11.6 18.1 -11.6 18.0 -11.65 17.85 -11.65 17.8 -11.75 17.9 -11.75 18.0 -11.8 18.3 -11.9 18.6 -11.9 18.75 -11.95 18.9 -12.2 19.15 -12.35 19.3 -12.5 19.45 -12.7 19.6 -13.05 19.7 -13.6 19.65 -13.85 19.65 -13.95 19.6 -14.05 19.5 -14.2 19.35 -14.3 19.2 -14.35 19.05 -14.45 18.95 -14.5 18.8 -14.55 18.65 -14.6 18.5 -14.7 18.35 -14.75 18.2 -14.75 18.05 -14.7 17.95 -14.7 17.8 -14.7 17.65 -14.7 17.5 -14.7 17.35 -14.65 17.2 -14.6 17.1 -14.6 16.95 -14.6 16.8 -14.6 16.65 -14.55 16.5 -14.5 16.35 -14.5 16.25 -14.5 16.1 -14.5 15.95 -14.5 15.8 -14.4 15.65 -14.25 15.5 -14.0 15.4 -13.95 15.4 -13.9 15.25 -13.8 15.1 -13.65 15.1 -13.7 15.25 -13.7 15.4 -13.7 15.5 -13.6 15.65 -13.55 15.8 -13.55 15.95 -13.55 16.1 -13.55 16.25 -13.45 16.35 -13.4 16.5 -13.4 16.65 -13.4 16.8 -13.4 16.95 -13.35 17.1 -13.3 17.2 -13.3 17.35 -13.3 17.5 -13.3 17.65 Q-13.15 17.6 -13.15 17.35 L-13.0 16.35 -12.75 15.4 -12.65 14.8 -12.65 14.65 -12.65 14.5 -12.65 14.4 -12.65 14.25 -12.65 14.1 -12.6 13.95 -12.5 13.8 -12.4 13.65 -12.2 13.55 -11.85 13.45 -11.6 13.5 -11.5 13.55 -11.35 13.65 -11.2 13.75 -11.1 13.9 -11.0 14.05 -10.95 14.35 -10.75 15.2 -10.6 16.05 -10.45 16.45 -10.35 16.6 -10.3 16.75 -10.2 17.05 -10.2 17.2 -10.15 17.3 -10.1 17.45 -10.1 17.6 -10.1 17.75 -10.1 17.9 -10.05 18.15 -9.95 18.45 -9.95 18.6 -9.9 18.75 -9.8 18.9 -9.75 19.0 -9.7 19.15 -9.6 19.3 -9.5 19.45 -9.45 19.6 -9.35 19.75 -9.25 19.85 -9.15 20.0 -9.0 20.15 -8.85 20.3 -8.7 20.45 -8.5 20.55 -8.3 20.5 -8.2 20.35 -8.15 20.2 -8.05 20.05 -8.0 19.9 -7.95 19.8 -7.9 19.65 -7.85 19.5 -7.8 19.35 -7.7 19.2 -7.65 19.05 -7.55 18.95 -7.5 18.8 -7.4 18.65 -7.35 18.5 -7.35 18.35 -7.3 18.2 -7.3 18.05 -7.3 17.95 -7.3 17.8 -7.3 17.65 -7.25 17.5 -7.25 17.35 -7.25 17.2 -7.25 17.1 -7.2 16.95 -7.2 16.8 -7.2 16.65 -7.2 16.5 -7.15 16.35 -7.15 16.25 -7.15 16.1 -7.1 15.95 -7.1 15.8 -7.1 15.65 -7.1 15.5 -7.05 15.4 -7.05 15.25 -7.05 15.1 -7.05 14.95 -7.0 14.8 -7.0 14.5 -7.0 13.55 -7.0 12.55 -7.0 12.1 -7.05 11.95 -7.05 11.8 -7.05 11.7 -7.1 11.55 -7.1 11.4 -7.1 11.25 -7.15 11.1 -7.15 10.7 -7.15 9.85 -7.15 9.15 -7.15 8.85 -7.1 8.7 -7.05 8.55 -6.95 8.4 -6.75 8.25 -6.45 8.2 -6.1 8.25 -5.9 8.4 -5.75 8.55 -5.7 8.7 -5.7 8.85 -5.7 9.0 -5.7 9.15 -5.7 9.25 -5.7 9.4 -5.7 9.55 -5.65 9.7 -5.65 9.85 -5.6 10.0 -5.6 10.1 -5.6 10.25 -5.6 10.4 -5.55 10.55 -5.55 10.95 -5.55 11.55 -5.55 12.1 -5.55 12.4 -5.5 12.55 -5.5 12.8 -5.5 14.1 -5.5 15.4 -5.5 16.1 -5.45 16.25 -5.4 16.35 -5.4 16.5 -5.4 16.65 -5.4 16.8 -5.35 16.95 -5.35 17.1 -5.35 17.2 -5.3 17.35 -5.2 17.65 -5.1 17.95 -5.05 18.05 -5.0 18.2 -4.9 18.35 -4.9 18.5 -4.8 18.95 -4.75 19.2 -4.75 19.35 -4.7 19.5 -4.65 19.65 -4.6 19.8 -4.5 19.9 -4.4 20.05 -4.25 20.2 -4.1 20.35 -3.75 20.4 -3.55 20.3 -3.05 20.0 -2.85 19.9 -2.6 19.75 -2.5 19.6 -2.2 19.15 -2.0 18.9 -1.95 18.75 -1.85 18.6 -1.8 18.45 -1.8 16.3 -1.8 13.75 -1.8 11.8 -1.75 11.65 -1.45 10.35 -1.05 9.1 -0.8 8.35 -0.7 8.25 -0.5 8.1 -0.2 8.0 0.2 8.0 0.45 8.05 0.55 8.1 0.65 8.2 0.8 8.3" fill="#333333" fill-rule="evenodd" stroke="none"/>
    <path d="M-17.95 5.7 L-17.85 5.55 -17.6 5.5 -17.4 5.55 -17.35 5.55 -17.3 5.7 -17.2 5.8 -17.2 5.95 -17.1 6.1 -17.1 6.25 -17.15 6.4 -17.2 6.5 -17.2 6.65 -17.2 6.8 -17.2 6.95 -17.2 7.1 -17.15 7.25 -17.05 7.5 -17.0 7.65 -17.0 7.8 -17.0 7.95 -17.0 8.1 -16.95 8.25 -16.95 8.35 -16.9 8.5 -16.9 8.65 -16.8 8.8 -16.75 8.95 -16.75 9.1 -16.7 9.2 -16.7 9.35 -16.7 9.5 -16.65 9.65 -16.65 9.8 -16.65 9.95 -16.6 10.05 -16.6 10.2 -16.6 10.35 -16.55 10.5 -16.5 10.65 -16.5 10.8 -16.45 10.95 -16.45 11.05 -16.45 11.2 -16.45 11.35 -16.45 11.5 -16.4 11.65 -16.4 11.8 -16.4 11.9 -16.4 12.05 -16.35 12.2 -16.35 13.2 -16.35 14.35 -16.35 15.45 -16.4 15.6 -16.5 15.75 -16.6 15.9 -16.7 16.05 -16.85 16.2 -16.9 16.3 -17.3 16.75 Q-17.65 17.05 -18.1 17.15 L-19.5 17.15 -19.85 17.05 -20.05 16.9 -20.25 16.75 -20.5 16.6 -20.65 16.45 -20.75 16.35 -20.75 16.5 -20.75 16.65 -20.75 17.1 -20.75 17.5 -20.75 17.8 -20.8 17.95 -21.0 18.2 -21.2 18.5 -21.5 18.8 -21.8 18.9 -22.65 19.15 -23.3 19.15 -24.5 18.75 -25.4 18.2 -25.4 18.65 -25.4 19.05 -25.4 19.35 -25.45 19.5 -25.55 19.8 -25.65 20.05 -25.7 20.2 -25.95 20.5 -26.35 20.9 -26.65 21.2 -27.0 21.3 -28.4 21.3 -28.8 21.2 -30.95 19.4 -32.3 17.65 -32.4 17.55 -32.45 17.7 -32.55 17.85 -32.7 17.95 -32.9 18.1 -33.25 18.2 -34.9 18.05 Q-36.1 17.7 -36.85 16.65 L-36.9 16.5 -36.95 16.35 -36.95 16.25 -37.0 16.1 -36.95 15.95 -36.9 15.8 -36.8 15.65 -36.7 15.5 -36.35 15.4 -36.1 15.5 -36.0 15.5 -35.35 16.05 -34.55 16.45 -34.1 16.4 -34.1 16.3 -34.1 16.05 -34.1 15.75 -34.1 15.45 -34.1 15.35 -34.25 14.75 -34.55 13.75 -34.8 12.9 -34.9 12.75 -34.95 12.65 -35.05 12.2 -35.2 11.8 -35.3 11.5 -35.3 11.35 -35.3 11.2 -35.3 11.05 -35.25 10.95 -35.2 10.8 -35.15 10.65 -35.0 10.5 -34.85 10.35 -34.45 10.25 -34.15 10.3 -34.0 10.4 -33.7 10.7 -33.55 10.85 -33.4 10.95 -33.35 11.1 -33.25 11.4 -33.2 11.7 -33.15 11.8 -33.05 11.95 -33.0 12.1 -32.9 12.25 -32.85 12.4 -32.75 12.55 -32.7 12.7 -32.6 12.8 -32.55 12.95 -32.45 13.1 -32.4 13.25 -32.35 13.4 -32.25 13.55 -32.2 13.65 -32.1 13.8 -32.05 13.95 -31.95 14.1 -31.9 14.25 -31.8 14.4 -31.75 14.5 -31.65 14.65 -31.6 14.8 -31.5 14.95 -31.4 15.4 -31.2 15.95 -31.05 16.35 -30.85 16.65 -30.2 17.65 -29.65 18.5 -28.9 19.05 -28.25 19.5 -27.35 19.5 -27.25 19.35 -27.2 19.2 -27.15 19.05 -27.1 18.95 -27.1 17.95 -27.1 16.95 -27.1 16.1 -27.15 15.95 -27.2 15.65 -27.2 15.5 -27.25 15.4 -27.25 15.25 -27.25 15.1 -27.3 14.95 -27.3 14.8 -27.35 14.65 -27.45 14.5 -27.5 14.4 -27.55 14.1 -27.55 13.95 -27.6 13.8 -27.6 13.65 -27.6 13.55 -27.8 12.95 -27.95 12.4 -28.05 11.95 -28.05 11.7 -28.05 11.4 -28.05 11.1 -28.05 10.95 -27.95 10.85 -27.9 10.7 -27.85 10.55 -27.65 10.4 -27.25 10.3 -27.0 10.35 -26.8 10.45 -26.65 10.6 -26.55 10.75 -26.45 10.9 -26.25 11.45 -26.15 12.0 -26.1 12.45 -26.1 12.6 -26.1 12.7 -25.95 13.45 -25.75 14.3 -25.5 15.0 -25.4 15.15 -25.3 15.3 -25.25 15.4 -25.2 15.55 -25.1 15.7 -25.0 15.85 -24.95 16.0 -24.85 16.15 -24.8 16.3 -24.7 16.4 -24.65 16.55 -24.5 16.7 -24.4 16.85 -24.3 17.0 -24.1 17.15 -23.9 17.25 -23.55 17.4 -23.3 17.5 -22.65 17.5 -22.45 17.4 -22.4 17.25 -22.4 16.55 -22.4 15.55 -22.4 14.7 -22.45 14.55 -22.45 14.45 -22.45 14.3 -22.45 14.15 -22.5 14.0 -22.5 13.85 -22.5 13.7 -22.65 12.85 -22.85 11.9 -23.1 11.0 -23.1 10.9 -23.1 10.45 -23.1 10.05 -23.1 9.75 -23.05 9.6 -23.0 9.45 -22.95 9.3 -22.85 9.15 -22.65 9.05 -22.35 8.95 -22.1 9.0 -21.9 9.1 -21.8 9.25 -21.65 9.35 -21.65 9.5 -21.6 9.65 -21.6 9.95 -21.6 10.2 -21.6 10.5 -21.6 10.65 -21.35 11.5 -21.05 12.9 -20.75 14.2 -20.5 14.5 -20.05 15.05 -19.65 15.45 -19.4 15.6 -18.15 15.6 -17.9 15.35 -17.7 15.1 -17.7 14.95 -17.7 14.1 -17.7 13.25 -17.7 12.55 -17.75 12.4 -17.75 12.25 -17.75 12.1 -17.75 11.95 -17.8 11.8 -17.8 11.7 -17.8 11.55 -17.8 11.4 -17.8 11.25 -17.85 11.1 -17.85 10.95 -17.85 10.7 -17.85 10.4 -17.85 10.25 -17.9 10.1 -17.9 10.0 -17.9 9.85 -17.95 9.7 -17.95 9.55 -17.95 9.4 -17.95 9.25 -18.0 9.15 -17.95 9.0 -17.95 8.85 -18.0 8.7 -18.0 8.55 -18.0 8.4 -18.0 8.25 -18.1 8.0 -18.1 7.7 -18.1 7.55 -18.1 7.45 -18.05 7.25 -18.05 7.15 -18.05 7.0 -18.05 6.85 -18.05 6.7 -18.05 6.55 -18.0 6.45 -18.0 6.3 -18.0 6.15 -18.0 6.0 -18.0 5.85 -17.95 5.7" fill="#333333" fill-rule="evenodd" stroke="none"/>
    <path d="M-39.85 11.4 L-39.85 12.25 -39.85 12.7 -39.9 12.8 -39.95 12.95 -40.0 13.1 -40.35 13.5 -40.7 13.8 -40.95 13.95 -41.3 14.05 -42.05 14.05 -42.25 14.0 -42.35 13.95 -42.5 13.85 -42.7 13.7 -42.95 13.6 -43.05 13.45 -43.55 12.85 -43.9 12.4 -44.1 12.15 -44.15 12.0 -44.25 11.85 -44.35 11.75 -44.4 11.6 -44.5 11.5 -44.55 11.55 -44.6 11.7 -45.5 12.65 Q-46.05 13.1 -46.7 13.2 L-47.15 13.2 -47.5 13.1 -47.7 12.95 -47.95 12.8 -48.05 12.7 -48.15 12.55 -48.2 12.4 -48.3 12.25 -48.35 12.1 -48.4 11.95 -48.4 11.8 -48.4 11.7 -48.4 11.55 -48.35 11.4 -48.35 11.25 -48.35 11.1 -48.35 10.95 -48.35 10.85 -48.3 10.7 -48.2 10.55 -48.1 10.4 -48.0 10.25 -47.95 10.1 -47.85 10.0 -47.75 9.85 -47.7 9.7 -47.5 9.55 -47.25 9.7 -47.2 9.85 -47.1 9.95 -46.95 10.1 -46.9 10.25 -46.9 10.4 -46.9 10.55 -46.95 10.7 -47.0 10.85 -47.0 10.95 -47.0 11.1 -47.0 11.25 -46.95 11.4 -46.95 11.55 -46.95 11.6 -46.6 11.7 -46.35 11.55 -46.2 11.4 -46.05 11.25 -45.95 11.1 -45.85 10.85 -45.8 10.55 -45.75 10.4 -45.75 10.25 -45.7 10.1 -45.7 9.7 -45.7 9.25 -45.7 9.0 -45.7 8.7 -45.65 8.55 -45.6 8.4 -45.5 8.3 -45.35 8.15 -45.0 8.05 -44.8 8.1 -44.6 8.2 -44.45 8.3 -44.3 8.45 -44.2 8.6 -44.15 9.05 -44.05 9.45 -43.95 9.75 -43.85 10.05 -43.75 10.15 -43.7 10.3 -43.6 10.45 -43.5 10.6 -43.4 10.75 -43.35 10.9 -43.25 11.0 -43.2 11.15 -43.1 11.3 -43.05 11.45 -43.0 11.6 -42.55 12.15 -42.3 12.45 -42.0 12.7 -41.4 12.75 -41.3 12.65 -41.15 12.55 -41.1 12.4 -41.1 11.95 -41.1 11.25 -41.1 10.55 -41.1 10.1 -41.15 10.0 -41.2 9.7 -41.2 9.55 -41.25 9.4 -41.3 9.25 -41.3 9.15 -41.3 9.0 -41.35 8.7 -41.45 8.4 -41.5 8.25 -41.55 8.15 -41.6 8.0 -41.7 7.85 -41.75 7.7 -41.8 7.55 -41.9 7.45 -42.05 7.3 -42.2 7.3 -42.25 7.4 -42.35 7.55 -42.4 7.7 -42.45 7.85 -42.5 8.0 -42.65 8.15 -42.9 8.15 -43.0 8.0 -43.05 7.85 -42.95 7.7 -42.9 7.55 -42.8 7.3 -42.75 7.15 -42.75 7.0 -42.7 6.85 -42.55 6.7 -42.3 6.55 -42.15 6.45 -41.85 6.35 -41.55 6.45 -41.4 6.55 -41.2 6.7 -41.0 6.85 -40.9 7.0 -40.85 7.15 -40.75 7.3 -40.7 7.4 -40.65 7.55 -40.55 7.7 -40.45 8.0 -40.25 8.7 -40.0 9.7 -39.85 10.25 -39.85 10.7 -39.85 11.4" fill="#333333" fill-rule="evenodd" stroke="none"/>
  </g>
</svg>
