<?xml version="1.0" encoding="UTF-8" standalone="no"?>
<svg xmlns:xlink="http://www.w3.org/1999/xlink" height="56.15px" width="114.95px" xmlns="http://www.w3.org/2000/svg">
  <g transform="matrix(1.0, 0.0, 0.0, 1.0, 58.5, 29.05)">
    <path d="M-38.2 -15.5 L-36.9 -15.7 -39.2 -15.85 -41.8 -15.7 -38.2 -15.5 M8.6 -27.6 L6.75 -28.0 Q17.4 -25.95 21.0 -24.7 22.2 -24.45 34.75 -24.45 46.75 -24.45 51.65 -10.0 54.45 -1.7 54.45 9.1 54.45 9.4 50.3 11.75 45.25 14.5 39.45 17.0 21.95 24.45 8.25 24.45 -8.75 24.45 -14.0 22.4 L-16.65 21.0 Q-17.85 20.35 -19.85 20.35 L-21.9 21.4 Q-24.55 22.4 -27.65 22.4 -43.8 22.4 -51.85 14.05 -57.0 8.7 -57.0 3.85 -57.0 1.85 -55.45 0.0 -53.4 -2.5 -52.5 -5.1 -56.95 -5.6 -58.1 -7.7 -58.5 -8.4 -58.5 -10.55 -58.5 -17.7 -44.15 -21.65 -28.2 -26.05 8.6 -27.6" fill="#ffffff" fill-rule="evenodd" stroke="none"/>
    <path d="M4.4 -26.0 Q5.25 -26.85 6.85 -27.5 10.0 -28.8 14.5 -29.0 19.05 -29.2 22.1 -28.05 25.6 -26.75 25.6 -24.2 L25.5 -23.8 25.15 -23.75 21.9 -25.95 Q19.35 -27.45 17.7 -27.45 10.35 -27.45 7.05 -25.55 L5.6 -24.2 5.85 -22.6 5.7 -22.2 5.35 -22.1 4.15 -23.0 3.95 -22.9 3.55 -23.3 3.4 -23.6 1.8 -25.05 Q-1.55 -27.4 -6.1 -27.4 -12.6 -27.4 -15.2 -26.45 L-16.9 -25.4 Q-15.85 -24.8 -15.85 -24.2 L-15.95 -23.8 -16.25 -23.75 -18.05 -24.55 -21.1 -25.55 Q-25.55 -26.95 -28.25 -26.95 -34.5 -26.95 -36.65 -22.65 L-37.8 -19.7 Q-38.4 -18.35 -39.25 -18.35 -39.75 -18.35 -39.45 -18.45 L-39.55 -18.7 Q-39.2 -19.15 -39.0 -19.8 -55.35 -21.3 -55.35 -11.25 -55.35 -7.85 -51.75 -4.3 L-48.15 -1.2 Q-48.15 -0.9 -48.7 -0.65 -49.3 -0.35 -50.0 -0.35 -51.45 -0.35 -52.75 -1.4 L-53.85 0.15 Q-55.75 2.85 -55.75 5.45 -55.75 8.6 -53.4 12.0 -49.75 17.3 -42.15 17.7 L-42.35 16.6 Q-42.35 14.1 -40.65 16.25 L-38.0 19.6 Q-35.3 21.35 -33.2 22.05 -30.0 23.15 -25.65 23.15 -23.6 23.15 -21.15 21.55 L-20.6 21.15 -23.25 20.05 Q-26.65 18.35 -26.65 17.35 L-26.1 16.8 -23.15 18.6 Q-19.75 20.2 -15.05 20.2 -11.8 20.2 -9.55 18.75 L-6.7 16.45 Q-7.55 19.35 -7.95 19.85 -9.4 21.65 -13.05 22.0 L-11.7 22.95 Q-8.5 24.95 -4.4 24.95 3.85 24.95 7.3 22.35 L9.05 20.65 Q9.7 19.95 10.35 20.05 10.15 20.4 9.7 21.65 L9.65 21.75 9.75 21.8 9.75 21.95 9.45 22.2 8.2 23.85 Q5.25 26.65 -2.0 26.65 -7.5 26.65 -11.75 24.3 -13.95 23.1 -14.75 22.05 L-18.95 21.6 -20.55 23.0 Q-23.35 25.05 -26.9 25.05 -32.35 25.05 -37.45 22.1 -40.55 20.3 -41.7 18.55 -43.3 19.25 -44.65 19.25 -50.15 19.25 -54.35 13.9 -57.5 9.85 -57.5 7.9 -57.5 3.55 -57.05 2.15 -56.2 -0.55 -53.5 -2.2 -54.6 -3.5 -55.5 -5.6 -57.1 -9.35 -57.1 -11.1 -57.1 -14.75 -55.2 -17.3 -52.05 -21.45 -44.35 -21.5 L-38.65 -21.1 -38.65 -21.25 -38.0 -23.8 Q-36.65 -26.85 -29.5 -28.6 -26.8 -28.8 -21.45 -27.2 L-18.5 -26.2 Q-18.15 -27.5 -14.75 -28.3 L-6.35 -28.95 Q1.6 -28.6 4.4 -26.0 M29.45 -26.6 Q32.65 -27.2 37.0 -26.45 41.5 -25.7 44.5 -23.85 47.9 -21.75 47.9 -19.0 L48.0 -17.45 Q51.85 -17.35 53.75 -12.65 54.95 -9.6 54.95 -6.95 54.95 -5.2 54.1 -3.35 55.05 -2.55 55.6 -1.35 56.45 0.45 56.45 3.45 56.45 6.65 55.35 9.8 53.15 16.1 47.7 16.1 L45.25 16.05 Q45.05 17.85 42.45 20.35 38.95 23.75 34.0 23.75 30.75 23.75 28.1 22.8 L26.85 22.25 26.4 22.65 Q23.1 25.65 17.3 25.65 15.0 25.65 12.6 24.45 10.55 23.4 10.2 22.6 L10.65 22.2 Q12.05 22.95 16.05 23.85 22.7 23.85 25.65 21.25 L25.5 20.7 25.55 20.4 25.55 20.5 25.7 20.3 Q25.8 20.15 26.1 20.15 L26.55 20.3 27.55 18.65 Q28.1 17.55 28.5 17.4 L28.7 18.8 Q28.7 19.8 27.9 21.0 L28.05 21.05 Q30.35 21.9 33.9 21.9 38.0 21.9 41.2 19.2 43.4 17.3 43.8 15.9 L43.6 15.85 Q42.95 15.7 42.95 15.15 42.95 14.95 43.65 14.8 L43.45 14.55 Q44.5 13.5 44.95 14.3 L45.05 14.55 48.9 13.65 Q54.85 11.3 54.85 3.3 54.85 0.9 54.3 -0.45 L53.35 -2.05 Q52.1 -0.35 50.25 -0.65 51.45 -1.2 52.45 -3.3 L51.3 -4.65 52.8 -4.15 Q53.45 -5.85 53.45 -7.05 53.45 -10.1 51.75 -13.05 50.3 -15.55 48.05 -16.75 L48.05 -16.6 47.95 -16.25 47.7 -16.2 47.35 -16.4 47.3 -17.1 45.1 -17.7 47.2 -17.55 Q46.5 -19.95 43.55 -22.1 39.35 -25.2 33.15 -25.2 30.75 -25.2 28.8 -24.5 27.15 -23.85 26.55 -23.05 26.05 -23.35 26.05 -23.95 26.05 -25.9 29.45 -26.6" fill="#333333" fill-rule="evenodd" stroke="none"/>
    <path d="M3.25 -8.95 L6.8 -7.35 8.45 -7.45 8.8 -7.75 Q9.05 -8.65 8.85 -10.9 9.25 -12.9 12.8 -14.2 21.5 -15.9 34.75 -4.7 39.5 -0.7 43.25 3.65 46.65 7.6 46.65 8.6 46.65 11.6 45.95 12.85 44.7 15.2 40.2 17.7 38.15 18.85 28.25 21.3 16.9 24.1 11.25 24.1 6.45 24.1 3.2 22.7 -0.05 21.3 -2.25 21.3 L-19.5 20.15 Q-20.0 20.15 -20.75 21.75 -21.95 23.35 -25.0 23.35 -33.5 23.35 -40.85 19.25 -47.5 15.5 -47.5 12.35 -47.45 11.2 -46.8 10.15 -45.45 8.05 -42.35 8.05 L-39.8 8.55 -38.25 9.0 Q-37.8 7.4 -36.55 6.15 L-35.4 4.95 Q-35.4 4.05 -36.15 3.0 -36.9 2.0 -36.9 1.05 -36.9 -0.05 -36.15 -1.2 -34.95 -3.15 -32.15 -3.15 -31.4 -3.15 -28.95 -1.6 -26.55 -0.1 -23.6 -0.1 -22.4 -0.1 -20.85 -1.75 L-17.55 -5.3 Q-12.3 -10.55 -4.95 -10.55 -0.35 -10.55 3.25 -8.95" fill="#d1d0a5" fill-opacity="0.3019608" fill-rule="evenodd" stroke="none"/>
    <path d="M40.6 5.35 Q41.25 6.35 41.4 7.5 48.5 -1.5 50.6 -0.6 51.8 -0.1 51.8 6.3 51.8 9.65 41.65 18.3 31.3 27.1 26.8 27.1 25.35 27.1 23.25 25.05 21.2 22.95 16.1 22.95 12.8 22.95 10.4 24.6 8.0 26.25 0.75 26.25 L-16.7 23.8 -30.65 21.3 Q-32.75 21.3 -33.35 22.35 -33.95 23.35 -36.35 23.35 -40.7 23.35 -45.8 17.2 -50.3 11.75 -50.3 9.45 -50.6 7.9 -50.15 6.45 -49.25 3.65 -45.45 3.65 -36.75 3.65 -33.0 5.85 -24.95 10.55 -19.3 12.55 -17.7 9.75 -16.0 7.8 -12.8 4.05 -7.95 4.05 -5.75 4.05 -4.25 4.85 -3.4 5.3 -2.05 6.35 -2.05 4.85 -1.6 3.85 -0.8 1.95 2.25 1.95 3.45 1.95 11.15 5.0 18.85 8.05 22.1 8.05 23.3 8.05 23.55 6.85 L23.65 4.25 Q23.8 0.45 27.9 0.45 32.6 0.45 33.1 3.55 33.4 5.35 33.25 9.55 33.7 8.95 34.3 6.25 35.3 3.85 37.75 3.85 39.55 3.85 40.6 5.35" fill="#d1d0a5" fill-opacity="0.3019608" fill-rule="evenodd" stroke="none"/>
    <path d="M-17.7 -10.35 Q-11.65 -14.75 -7.7 -13.05 -3.15 -11.05 -3.15 -1.2 -3.15 0.7 -4.05 3.5 -5.35 7.5 -8.05 10.7 -6.1 10.85 -3.85 11.9 -1.9 12.85 3.0 12.95 L1.2 12.55 Q-1.3 10.95 -1.3 7.7 -1.4 6.3 -0.9 5.1 0.1 2.7 3.0 2.7 3.8 2.7 7.0 4.15 10.25 5.65 11.3 5.7 10.5 1.75 10.7 -0.35 11.0 -4.2 15.8 -4.2 29.4 -4.2 39.45 14.6 39.45 16.25 39.0 17.2 37.85 19.4 34.4 19.4 32.95 19.4 31.0 18.65 L27.0 17.15 Q26.8 18.15 26.2 19.0 25.0 20.7 22.65 20.7 21.6 20.7 19.55 19.3 17.55 17.9 15.05 17.9 14.25 17.9 13.35 18.55 L11.4 20.05 Q7.95 22.2 0.75 22.2 -9.15 22.2 -15.1 16.35 L-18.6 12.35 Q-20.15 10.5 -21.25 10.5 -24.5 10.5 -26.05 14.7 -27.55 18.85 -29.5 18.85 -32.3 18.85 -32.3 14.6 -32.3 8.35 -27.75 0.85 -23.45 -6.15 -17.7 -10.35" fill="#d1d0a5" fill-opacity="0.3019608" fill-rule="evenodd" stroke="none"/>
    <path d="M-33.0 20.8 Q-33.65 20.25 -34.75 17.65 -35.85 15.1 -35.85 14.4 -35.85 8.95 -34.15 13.95 -33.35 16.45 -32.5 20.05 L-32.7 20.55 -33.0 20.8 M-37.25 18.15 L-36.0 20.25 -36.55 20.8 Q-38.65 20.3 -39.6 17.6 -40.25 15.8 -40.25 13.65 -40.25 11.75 -39.4 10.5 -38.55 9.25 -38.55 13.6 -38.55 15.85 -37.25 18.15 M-32.8 14.4 Q-32.8 11.8 -31.2 14.6 -29.6 17.4 -29.6 18.7 L-29.8 19.2 -30.1 19.4 -31.75 16.8 -32.8 14.4 M-1.65 14.85 Q-0.85 13.8 -0.85 16.15 -0.85 16.75 -2.25 19.95 L-4.0 23.7 -4.35 22.1 -2.65 17.4 Q-2.35 15.75 -1.65 14.85 M-17.8 13.95 L-18.25 13.8 Q-16.35 11.65 -16.35 15.85 -16.35 17.45 -16.7 18.0 L-19.15 20.3 -19.45 20.1 -17.95 16.85 -17.75 14.3 -17.8 13.95 M-10.55 11.9 L-10.45 11.75 Q-9.25 11.35 -8.9 12.4 L-8.8 14.1 Q-8.8 15.6 -9.15 16.1 L-11.55 18.7 -11.9 18.4 -10.25 15.85 Q-9.8 15.05 -9.8 13.7 L-10.55 11.9 M-13.7 12.95 L-14.5 11.45 Q-12.6 10.4 -11.95 12.6 -11.7 13.5 -11.7 15.3 -11.7 16.1 -13.5 18.05 -15.4 20.05 -16.4 20.1 L-14.6 17.1 Q-13.3 15.2 -13.3 14.0 L-13.7 12.95 M-7.3 8.8 Q-6.0 7.8 -5.65 8.7 L-5.55 10.05 -5.55 11.35 Q-5.8 12.6 -7.1 12.6 -7.55 12.6 -7.55 12.05 L-6.75 11.1 -6.7 10.25 -6.9 9.6 -7.3 8.8 M-3.5 7.0 Q-2.9 7.35 -2.9 8.9 -3.85 14.4 -5.3 14.4 L-5.65 14.35 -5.65 14.2 -5.7 14.2 -5.75 13.9 -5.0 11.0 -3.5 7.0 M14.4 17.15 L14.1 17.05 Q15.8 15.15 15.8 18.75 15.1 20.95 13.55 20.95 L13.1 20.85 13.05 20.35 14.55 17.5 14.4 17.15 M18.1 13.3 Q18.8 13.7 18.8 16.2 L17.85 19.3 Q16.65 22.3 15.25 22.3 14.95 22.3 14.9 22.15 L14.9 21.9 Q15.85 20.4 16.75 17.5 17.7 14.1 18.1 13.3 M0.6 20.9 L1.75 18.05 Q2.4 14.65 2.8 15.1 3.15 15.5 3.15 17.55 2.0 23.9 0.25 23.9 -0.25 23.9 -0.15 23.7 -0.15 22.7 0.6 20.9 M5.45 16.55 L5.35 15.45 Q4.85 15.8 4.7 15.75 L4.7 15.65 Q6.3 13.8 6.8 15.2 L7.05 17.8 6.25 20.5 Q5.25 23.15 4.15 23.15 L3.8 23.1 3.8 22.95 Q3.7 23.2 3.7 22.7 3.7 22.15 4.6 20.2 5.45 18.25 5.45 16.55 M2.85 8.6 L2.8 8.35 Q3.1 4.95 4.8 2.45 6.5 -0.05 6.5 2.1 L5.2 5.35 Q3.8 8.7 3.2 8.7 L2.85 8.6 M0.6 1.35 Q1.15 0.15 1.15 2.35 1.15 4.45 0.3 4.45 -0.2 4.45 -0.1 4.25 L-0.15 3.9 Q0.1 2.35 0.6 1.35 M11.45 2.75 L11.0 4.5 9.35 6.7 8.95 6.5 9.8 4.1 Q10.4 2.6 11.35 2.4 L11.45 2.75 M34.25 12.05 Q35.0 13.2 35.0 14.8 35.0 15.8 34.1 17.45 32.85 19.7 31.0 19.7 L30.6 19.6 30.55 19.5 32.3 16.8 Q33.35 15.15 33.4 13.95 33.45 10.9 34.25 12.05 M38.1 13.25 Q38.85 11.45 39.05 11.45 39.3 11.45 39.3 14.15 L38.2 17.4 Q36.75 20.6 34.85 20.6 L33.4 19.95 33.45 19.8 Q35.8 18.7 38.1 13.25 M20.65 16.45 Q21.65 12.15 22.25 12.55 22.7 12.8 22.7 15.35 L20.85 19.75 Q18.85 24.25 18.1 24.25 L17.55 23.95 17.35 23.45 Q17.35 23.2 18.7 20.45 L20.65 16.45 M29.15 18.4 L28.85 18.2 Q29.7 17.45 29.85 16.25 30.05 14.9 30.4 14.4 30.95 14.9 30.95 16.75 30.95 17.9 29.15 18.4 M24.35 10.45 L23.75 9.45 Q23.75 8.9 24.6 7.3 25.4 5.75 25.4 5.4 25.4 3.6 26.1 3.9 26.8 4.2 26.8 5.95 26.8 6.65 24.35 10.45 M31.2 6.0 L31.15 8.85 Q30.85 11.65 29.65 11.65 L29.3 11.55 29.25 11.45 29.2 11.1 29.5 10.55 29.75 9.8 29.7 5.05 Q29.55 2.75 30.35 3.75 31.2 4.75 31.2 6.0 M23.1 -12.1 Q23.55 -11.7 23.55 -10.85 L23.4 -9.4 Q23.1 -8.7 22.35 -8.75 22.7 -9.25 22.6 -10.45 22.5 -11.55 23.1 -12.1" fill="#333333" fill-rule="evenodd" stroke="none"/>
  </g>
</svg>
