<?xml version="1.0" encoding="UTF-8" standalone="no"?>
<svg xmlns:xlink="http://www.w3.org/1999/xlink" height="56.35px" width="115.5px" xmlns="http://www.w3.org/2000/svg">
  <g transform="matrix(1.0, 0.0, 0.0, 1.0, 57.35, 29.8)">
    <path d="M37.25 -23.3 Q38.0 -22.55 39.45 -22.55 40.4 -22.55 41.65 -23.5 42.95 -24.45 43.85 -24.45 48.05 -24.45 51.25 -10.0 53.7 0.95 53.7 6.0 53.7 6.9 46.3 14.2 38.25 22.2 34.75 22.2 L31.65 21.4 Q29.5 20.55 28.55 20.55 25.3 20.55 19.15 22.5 13.05 24.45 6.0 24.45 -33.9 24.45 -47.65 18.9 -53.3 16.6 -55.35 13.15 -56.8 10.7 -56.8 6.55 -56.8 5.15 -55.6 1.8 -54.45 -1.6 -54.45 -2.95 -56.25 -7.85 -56.25 -9.8 -56.25 -16.75 -39.35 -21.05 -22.55 -25.35 4.4 -25.35 5.7 -25.35 5.9 -25.7 L6.3 -26.4 Q7.5 -27.45 16.55 -27.45 31.6 -27.45 35.5 -25.0 L37.25 -23.3" fill="#ffffff" fill-rule="evenodd" stroke="none"/>
    <path d="M5.85 -21.4 L5.6 -21.4 Q0.25 -26.9 -1.65 -27.65 L-10.75 -28.15 Q-11.9 -28.15 -14.65 -26.8 L-17.75 -24.85 -17.6 -24.35 -17.25 -23.5 -20.1 -25.5 Q-22.35 -26.6 -27.95 -26.6 -35.2 -26.6 -37.3 -23.45 -38.4 -21.85 -38.3 -19.7 L-38.9 -20.95 -39.1 -22.35 Q-39.1 -24.05 -36.2 -26.25 -31.95 -29.45 -24.8 -28.2 -22.75 -28.1 -20.15 -26.7 L-18.45 -25.6 Q-18.4 -27.95 -14.65 -29.1 -11.1 -30.15 -6.2 -29.65 -1.15 -29.1 2.2 -27.2 6.0 -25.0 6.0 -21.7 L5.95 -21.35 5.85 -21.4 M14.95 -27.95 Q11.4 -27.95 8.8 -26.25 L5.7 -24.55 Q5.4 -24.55 5.3 -24.7 L5.2 -24.95 Q10.75 -31.5 19.15 -29.15 22.3 -28.3 24.6 -26.4 26.8 -24.65 26.8 -23.15 L26.75 -22.85 26.7 -22.95 23.2 -25.65 Q19.4 -27.95 14.95 -27.95 M30.5 -26.65 L36.55 -27.3 Q41.8 -26.8 45.3 -24.0 48.3 -21.6 48.3 -19.35 L48.05 -18.1 Q52.7 -15.9 54.3 -13.15 55.55 -11.0 55.55 -6.9 55.65 -5.25 55.25 -3.7 55.0 -2.6 54.55 -1.85 55.95 -1.0 56.45 1.4 56.75 2.75 56.75 6.15 56.75 8.85 55.45 11.25 53.15 15.5 47.55 15.5 L45.7 15.4 45.95 16.1 Q45.95 18.1 43.7 20.05 40.35 23.0 33.6 23.0 29.45 23.0 27.05 21.95 L25.95 22.7 Q21.9 25.35 16.05 25.35 11.95 25.35 9.35 23.75 L8.15 22.9 6.7 24.2 Q3.35 26.55 -2.7 26.55 -6.15 26.55 -10.5 25.15 -13.85 24.05 -14.95 22.85 L-15.95 22.85 -19.95 22.3 -20.7 23.0 Q-23.25 24.55 -28.3 24.55 -34.05 24.55 -38.5 22.5 -42.85 20.45 -43.0 17.85 L-43.7 18.15 Q-45.25 18.75 -46.5 18.75 -51.0 18.75 -54.2 13.0 -56.55 8.7 -56.55 6.45 -56.55 1.6 -56.2 0.15 -55.7 -2.2 -54.25 -2.9 L-55.1 -3.8 Q-57.35 -6.35 -57.35 -8.9 -57.35 -12.95 -54.95 -16.0 -51.75 -20.15 -44.8 -21.75 L-40.65 -21.35 Q-38.95 -20.95 -38.95 -20.5 -38.95 -19.65 -39.75 -19.65 L-41.85 -20.35 Q-50.3 -20.35 -53.8 -15.1 -55.75 -12.2 -55.75 -8.85 -55.75 -7.3 -53.0 -4.95 L-47.1 -0.2 Q-47.2 -0.05 -47.4 -0.05 -50.35 -0.3 -52.55 -1.65 L-53.05 -1.2 Q-52.8 -1.45 -52.9 -1.85 L-53.0 -1.9 Q-53.8 -0.9 -54.45 1.05 -55.2 3.1 -55.2 4.4 -55.2 7.95 -53.35 11.5 -50.15 17.55 -43.0 17.6 -42.95 16.85 -42.5 16.25 L-41.8 17.3 -41.55 17.2 -41.65 17.35 -41.7 17.4 Q-40.1 19.55 -38.15 20.65 -34.6 22.65 -28.3 22.65 -24.1 22.65 -21.4 21.9 L-21.45 21.9 Q-25.7 20.7 -25.7 19.15 L-26.05 18.55 -26.45 17.95 -26.35 17.6 -26.05 17.55 Q-24.95 18.8 -22.2 19.8 -19.05 20.95 -15.85 20.95 -12.95 20.95 -9.45 18.6 L-7.75 17.6 Q-7.2 17.5 -7.2 18.5 -7.2 19.5 -9.35 20.95 -10.9 22.05 -12.85 22.5 L-10.15 23.55 Q-6.3 24.8 -2.55 24.8 2.4 24.8 5.1 22.85 8.25 20.55 10.1 20.25 L8.95 21.95 9.5 22.65 Q11.35 23.5 19.05 23.5 21.15 23.5 24.05 21.9 L25.45 21.05 Q24.95 20.55 24.95 20.05 24.95 19.75 25.1 19.75 L25.2 19.8 26.4 20.4 27.75 19.15 27.0 19.0 Q28.1 18.0 28.65 18.2 29.1 18.35 29.1 19.25 29.1 20.0 28.2 20.95 L33.6 21.15 Q39.75 21.15 42.6 18.9 L45.35 15.35 43.25 14.75 Q41.55 14.15 41.55 13.95 L41.65 13.55 42.05 13.45 44.15 13.9 Q52.2 13.9 54.45 9.35 55.2 7.85 55.2 3.6 54.95 -0.2 54.1 -1.3 53.3 -0.5 52.1 -0.5 51.6 -0.2 50.15 -0.2 L50.2 -0.35 51.5 -1.05 52.75 -3.2 Q53.95 -5.2 53.95 -6.95 53.95 -10.25 52.8 -12.35 51.65 -14.45 48.0 -17.9 47.8 -17.35 47.55 -17.35 L47.2 -17.4 47.1 -17.5 Q46.95 -19.55 44.65 -22.0 41.35 -25.6 35.7 -25.6 L32.85 -25.35 30.2 -25.05 29.25 -24.65 28.65 -24.45 28.05 -24.3 27.65 -24.35 27.6 -24.45 27.5 -24.85 Q27.5 -25.85 30.5 -26.65" fill="#333333" fill-rule="evenodd" stroke="none"/>
    <path d="M-10.2 6.85 L-10.95 6.35 Q-12.3 5.55 -12.8 5.7 L-11.3 6.5 -10.2 6.85 M11.5 9.55 Q9.25 8.25 8.8 8.25 9.6 9.0 10.35 9.4 L11.5 9.55 M28.7 7.45 L20.25 4.2 19.6 4.15 19.5 4.2 Q21.25 4.9 22.9 6.8 24.95 8.35 30.05 8.25 L28.7 7.45 M21.75 -5.0 Q27.25 -2.35 29.4 -1.95 34.65 -11.3 43.0 -3.1 45.95 -0.2 48.35 4.05 50.5 7.85 50.5 9.45 50.5 12.0 49.7 12.7 48.35 13.8 42.0 15.45 44.7 20.25 38.05 22.65 30.45 25.3 9.75 25.3 4.1 25.3 -7.5 23.6 L-18.15 21.85 Q-38.6 21.85 -42.25 18.7 L-43.6 16.55 Q-44.15 15.55 -46.4 15.55 -47.3 15.55 -48.15 16.35 -49.0 17.15 -49.95 17.15 -52.3 17.15 -54.45 12.75 -56.25 9.1 -56.25 7.3 -56.25 6.3 -54.45 2.95 -52.25 -1.2 -49.95 -1.2 -48.15 -1.2 -46.45 1.35 -44.75 3.85 -42.8 3.85 -38.5 3.85 -36.95 6.0 -34.55 9.35 -33.25 10.1 L-33.05 9.65 -33.05 9.35 Q-33.45 5.55 -28.8 1.1 -23.75 -3.8 -17.4 -3.8 L-11.85 -3.4 Q-10.7 -3.1 -8.3 -1.65 -7.95 -2.0 -7.95 -2.9 L-7.8 -4.45 Q-7.1 -6.25 -1.85 -6.25 -0.05 -6.25 2.25 -5.2 4.55 -4.2 5.4 -4.2 6.25 -4.2 6.25 -5.7 7.15 -7.2 12.8 -7.2 17.1 -7.2 21.75 -5.0" fill="#d1d0a5" fill-opacity="0.3019608" fill-rule="evenodd" stroke="none"/>
    <path d="M27.55 12.95 L27.35 12.35 Q22.85 7.85 19.75 5.6 L19.55 5.35 24.75 13.8 27.55 12.95 M47.6 -7.75 Q53.4 -7.75 56.25 -2.7 58.0 0.4 58.0 2.9 58.3 4.4 57.95 5.75 57.2 8.35 53.7 8.35 52.5 8.35 51.4 7.65 L50.05 6.55 44.65 13.8 Q42.0 17.45 39.3 19.2 32.05 23.7 8.7 23.7 L-6.3 23.65 Q-4.95 23.1 -8.7 22.05 -14.05 20.55 -23.4 19.6 -23.95 19.6 -24.1 20.0 L-24.4 20.9 Q-25.2 22.2 -29.5 22.2 -42.25 22.2 -46.2 12.6 -47.7 8.9 -47.7 1.8 -48.15 -0.95 -47.7 -3.55 -46.8 -8.7 -42.35 -8.7 -38.7 -8.7 -35.6 -5.45 L-29.55 1.75 Q-19.9 12.2 -0.8 12.2 0.35 12.2 0.85 11.65 L1.5 10.7 -7.85 6.15 Q-11.15 4.55 -11.15 1.7 -11.15 0.45 -10.8 -0.1 -9.75 -1.65 -6.05 -1.65 L-2.5 -1.1 1.2 -0.1 1.0 -0.65 Q0.85 -11.8 14.95 -6.9 20.4 -4.95 25.95 -1.2 31.35 2.4 33.8 5.6 L39.45 -2.2 Q44.05 -7.75 47.6 -7.75" fill="#d1d0a5" fill-opacity="0.3019608" fill-rule="evenodd" stroke="none"/>
    <path d="M39.55 16.2 Q37.85 18.45 31.75 19.8 17.3 22.95 -34.1 22.95 -44.15 22.95 -49.75 19.05 -54.45 15.8 -54.45 11.35 -54.75 9.75 -54.35 8.35 -53.6 5.6 -49.95 5.6 -47.1 5.6 -46.6 6.4 L-46.15 8.25 Q-44.8 10.85 -30.05 10.85 -23.8 10.85 -9.9 7.0 2.95 3.4 8.6 4.05 10.6 0.65 15.95 0.25 20.65 -0.05 26.65 1.9 32.25 3.7 36.3 6.5 40.5 9.4 40.5 11.6 40.5 14.95 39.55 16.2" fill="#d1d0a5" fill-opacity="0.3019608" fill-rule="evenodd" stroke="none"/>
    <path d="M-33.8 19.7 L-34.0 20.3 -34.45 21.05 -34.9 20.85 Q-36.4 15.1 -36.4 14.2 -36.4 12.25 -35.1 14.95 -33.8 17.65 -33.8 19.7 M-30.95 18.0 L-31.15 20.7 -32.3 17.8 Q-33.1 15.2 -33.1 13.95 -33.1 9.5 -30.95 18.0 M-37.95 18.9 L-38.15 20.85 -38.35 21.0 -38.75 21.05 Q-39.7 21.05 -40.65 11.3 -40.65 9.0 -39.3 12.6 -37.95 16.15 -37.95 18.9 M-1.7 16.4 Q-0.6 12.65 -0.2 12.85 0.05 12.95 0.05 15.4 L-1.0 19.35 Q-2.4 23.45 -3.9 23.45 L-4.5 22.9 Q-2.15 18.45 -1.7 16.4 M-12.15 20.05 L-12.2 19.8 Q-11.25 14.5 -11.15 12.35 -9.6 6.6 -9.6 14.75 L-9.95 17.6 Q-10.5 20.4 -11.65 20.4 L-12.05 20.25 -12.15 20.05 M-16.5 21.55 L-16.65 21.4 -16.75 20.3 Q-16.75 19.4 -15.95 17.05 -15.1 14.5 -15.0 13.85 -14.1 10.05 -13.7 10.65 -13.45 11.1 -13.45 13.45 -13.45 15.1 -14.4 17.75 -15.4 20.45 -16.5 21.55 M-17.9 13.5 L-17.7 14.75 Q-17.7 15.45 -18.3 16.5 L-19.4 18.35 -19.85 17.5 -19.4 16.2 Q-18.95 14.95 -18.95 13.7 L-19.1 13.1 -19.35 12.65 -18.75 12.25 Q-18.2 12.6 -17.9 13.5 M-6.05 8.9 Q-5.65 9.05 -5.65 9.85 L-5.7 10.65 Q-5.95 11.2 -6.8 11.35 L-6.85 11.25 Q-6.55 10.75 -6.5 9.85 -6.45 9.15 -6.05 8.9 M-4.05 9.65 Q-3.15 7.3 -2.75 7.3 L-2.65 8.85 Q-2.65 9.5 -3.45 11.75 -4.2 13.95 -4.5 14.3 L-4.8 14.0 -4.9 12.8 Q-4.9 11.9 -4.05 9.65 M16.75 14.65 Q18.05 11.3 18.05 14.8 L17.35 18.85 Q16.4 23.05 15.15 23.05 14.85 23.05 14.75 22.9 L14.65 22.65 Q15.55 17.75 16.75 14.65 M3.5 16.6 Q3.5 18.05 2.55 20.75 1.15 24.5 -0.95 24.5 -1.45 24.5 -1.4 24.25 L1.5 18.95 Q3.5 15.4 3.5 16.6 M5.8 14.45 Q5.55 13.35 5.7 12.9 7.15 12.65 7.15 15.8 L6.4 19.2 Q5.35 22.6 3.8 22.6 L3.15 22.75 2.65 22.95 2.4 22.7 Q4.45 20.3 5.15 18.45 5.8 16.8 5.8 14.45 M5.95 8.0 L5.9 7.75 Q6.7 5.75 8.35 3.55 10.4 0.85 10.4 3.6 L9.05 5.85 Q7.45 8.1 6.25 8.1 L5.95 8.0 M0.75 3.0 Q1.65 2.0 2.2 2.65 2.55 3.15 2.55 3.8 2.55 5.45 1.9 6.35 L1.6 6.1 1.4 4.55 0.75 3.0 M5.1 2.5 Q6.35 -0.3 6.35 3.7 4.8 9.1 3.8 9.1 L3.45 9.05 3.5 9.0 3.4 8.6 Q4.05 5.05 5.1 2.5 M35.35 15.1 Q35.35 16.45 34.7 17.25 34.0 18.2 31.85 19.3 L33.9 13.9 Q35.35 10.55 35.35 15.1 M36.95 16.45 L37.9 13.8 Q38.45 10.5 38.95 11.2 39.4 11.8 39.4 13.55 L38.45 16.6 Q37.3 19.7 36.25 19.7 L35.85 19.6 35.75 19.5 35.65 19.15 36.95 16.45 M24.1 17.15 Q24.25 15.25 24.8 16.15 25.3 17.05 25.3 18.0 L24.9 19.65 Q24.25 21.45 23.15 21.45 L22.85 21.4 22.8 21.25 22.75 21.25 22.7 20.95 Q22.7 20.4 23.35 19.25 24.0 18.05 24.1 17.15 M21.6 13.2 Q22.35 13.4 22.35 15.2 L21.0 18.9 Q19.3 22.6 17.5 22.6 L17.1 22.45 17.0 22.15 19.15 18.75 Q20.85 16.25 20.85 15.1 20.85 13.05 21.6 13.2 M28.7 16.65 Q28.35 15.3 28.5 14.7 29.75 14.85 30.05 15.45 L30.15 16.6 29.9 18.15 Q29.45 19.65 28.5 19.65 L28.05 19.45 27.95 19.15 28.45 17.8 28.7 16.65 M25.05 8.7 L26.45 4.8 Q27.45 2.2 27.45 5.65 27.45 7.95 25.15 10.15 L25.05 10.0 25.05 8.7 M30.85 4.35 Q31.95 4.65 31.95 6.5 31.95 7.45 30.9 8.9 29.7 10.55 28.6 10.4 L28.55 10.3 30.75 7.35 Q31.15 6.65 31.15 4.95 L30.95 4.5 30.85 4.35 M20.45 -9.75 Q20.45 -10.8 20.85 -11.5 21.4 -12.6 22.7 -12.45 L22.8 -12.0 21.9 -10.7 20.65 -9.5 20.5 -9.45 20.45 -9.75" fill="#333333" fill-rule="evenodd" stroke="none"/>
  </g>
</svg>
