<?xml version="1.0" encoding="UTF-8" standalone="no"?>
<svg xmlns:xlink="http://www.w3.org/1999/xlink" height="14.4px" width="31.25px" xmlns="http://www.w3.org/2000/svg">
  <g transform="matrix(1.0, 0.0, 0.0, 1.0, 17.4, 6.75)">
    <path d="M2.75 -6.75 L5.85 -6.25 10.7 -6.05 Q11.85 -6.05 12.9 -5.3 13.85 -4.65 13.85 -4.05 13.85 -2.9 10.75 -2.05 L1.4 0.75 Q-1.3 1.75 -7.0 5.1 -11.3 7.65 -13.8 7.65 L-14.4 7.6 -15.6 7.5 Q-16.8 7.5 -16.8 6.4 -16.8 6.0 -16.05 5.15 -17.4 4.95 -17.4 2.9 -17.4 2.05 -16.3 0.65 L-14.45 -1.95 Q-13.2 -4.2 -11.45 -4.65 L0.6 -6.75 2.75 -6.75" fill="#d1d0a5" fill-rule="evenodd" stroke="none"/>
  </g>
</svg>
