<?xml version="1.0" encoding="UTF-8" standalone="no"?>
<svg xmlns:xlink="http://www.w3.org/1999/xlink" height="15.2px" width="35.15px" xmlns="http://www.w3.org/2000/svg">
  <g transform="matrix(1.0, 0.0, 0.0, 1.0, 18.05, 8.0)">
    <path d="M2.8 -2.25 L5.75 -3.05 8.1 -3.75 4.9 -3.05 2.8 -2.25 M3.05 -6.15 Q3.85 -6.15 4.25 -5.75 4.65 -5.45 4.65 -4.95 L4.85 -4.95 5.7 -5.45 Q6.8 -6.0 8.6 -6.0 8.8 -6.0 8.95 -5.8 L9.3 -5.6 12.4 -5.9 6.95 -6.5 -1.8 -6.0 -1.25 -6.0 Q-0.8 -6.0 -0.65 -5.7 L-0.45 -5.4 Q0.9 -5.4 1.3 -5.75 1.65 -6.15 3.05 -6.15 M14.8 -6.3 L16.2 -6.45 Q17.0 -6.45 17.1 -5.3 17.1 -4.25 13.1 -2.85 L14.1 -2.9 15.1 -2.85 15.9 -2.1 15.9 -1.85 15.3 -1.8 Q15.1 -1.8 14.95 -1.95 L14.65 -2.1 Q10.9 -2.1 2.85 0.9 -1.25 2.4 -5.4 4.25 L-5.75 4.05 Q-4.5 2.9 -2.15 1.7 L-5.3 3.05 -7.8 4.0 -7.8 4.05 -7.85 4.45 -7.05 3.95 -5.55 3.25 -7.75 4.4 -7.9 4.5 Q-8.2 5.2 -9.5 5.95 -11.55 7.2 -14.45 7.2 -15.45 7.2 -16.2 6.7 -17.35 6.4 -17.7 5.2 L-17.85 3.85 -18.05 2.0 -17.7 1.65 -17.55 1.95 -17.4 1.1 -17.3 1.15 -17.25 0.5 Q-17.25 -1.5 -12.85 -4.1 -6.15 -8.0 6.25 -8.0 L12.05 -7.4 Q13.8 -7.0 14.8 -6.3 M-8.55 -4.45 Q-10.65 -3.75 -12.2 -2.8 -15.95 -0.5 -15.95 1.8 L-15.65 3.35 Q-15.65 4.05 -16.5 4.05 L-16.85 3.95 -16.85 4.05 -16.7 4.45 -16.65 4.5 Q-16.25 5.0 -15.05 5.15 -15.45 4.85 -15.45 4.0 L-15.2 3.4 -14.55 2.7 -15.0 2.05 -15.15 1.5 Q-15.15 -0.5 -11.2 -3.05 L-8.55 -4.45 M-11.75 5.4 L-11.7 5.5 Q-10.25 5.15 -9.0 4.4 L-13.45 5.25 -11.85 5.4 -11.75 5.4 M-4.8 -0.6 L3.75 -4.5 Q0.2 -3.3 -4.95 -0.95 -10.85 1.7 -13.25 3.55 L-4.8 -0.6" fill="#333333" fill-rule="evenodd" stroke="none"/>
  </g>
</svg>
