<?xml version="1.0" encoding="UTF-8" standalone="no"?>
<svg xmlns:xlink="http://www.w3.org/1999/xlink" height="15.0px" width="35.1px" xmlns="http://www.w3.org/2000/svg">
  <g transform="matrix(1.0, 0.0, 0.0, 1.0, 18.3, 7.95)">
    <path d="M8.0 -6.2 Q8.0 -5.8 3.2 -2.9 L-2.0 0.15 8.25 -4.1 Q7.8 -4.3 7.8 -4.95 7.8 -5.85 10.4 -5.85 L10.65 -5.8 8.0 -6.3 8.0 -6.2 M4.35 -6.65 Q4.35 -6.4 -0.25 -3.5 -5.85 0.05 -9.45 3.0 L-1.65 -2.4 Q3.2 -5.7 5.7 -6.6 L4.35 -6.7 4.35 -6.65 M15.15 -3.0 L15.7 -2.85 16.8 -2.7 5.85 0.15 5.3 0.3 4.65 0.55 2.15 1.35 0.05 2.1 -4.8 4.2 Q-9.25 5.9 -11.8 5.9 L-12.15 5.85 -11.7 5.65 -12.3 5.7 -12.9 5.45 -12.9 5.0 Q-14.3 5.05 -14.4 4.4 L-14.25 3.15 -14.15 3.0 Q-15.35 3.3 -15.85 2.8 L-16.05 2.2 Q-16.05 1.6 -15.45 0.9 L-13.95 -0.6 -14.4 -0.95 Q-14.4 -1.7 -13.2 -2.75 L-11.5 -3.9 -12.5 -3.45 -12.8 -3.65 -10.8 -5.05 -9.2 -5.85 -7.2 -6.75 -6.3 -7.05 3.15 -7.95 10.8 -7.2 Q15.75 -6.35 15.65 -5.1 L15.65 -4.9 15.45 -4.85 10.85 -5.75 15.45 -4.1 Q15.45 -3.7 13.9 -2.95 L15.15 -3.0 M-13.95 -1.2 L-8.6 -4.5 -7.75 -5.0 -8.7 -4.95 -10.4 -4.3 -12.5 -2.75 -13.85 -1.5 -13.95 -1.2 M-13.5 -2.85 L-15.7 -0.5 Q-17.0 1.15 -17.0 1.95 -17.0 3.85 -16.15 4.7 -14.65 6.15 -10.45 6.1 -11.0 6.2 -11.1 6.5 -11.3 7.05 -13.1 7.05 -16.6 7.05 -17.7 5.1 -18.3 4.1 -18.3 2.05 -18.3 0.9 -17.0 -0.75 -15.45 -2.7 -13.5 -2.85 M-2.9 -6.3 Q-2.75 -6.3 -2.75 -5.9 -2.75 -5.8 -7.05 -2.4 -11.75 1.25 -13.2 3.75 L-13.2 3.8 -5.1 -2.6 Q-1.2 -5.7 1.45 -6.75 -6.85 -6.7 -7.25 -5.85 L-7.1 -5.35 Q-5.2 -6.35 -4.55 -5.85 L-3.45 -6.5 -2.9 -6.3 M-6.95 -4.1 Q-9.2 -2.9 -11.35 -1.3 -13.85 0.55 -14.7 1.8 L-14.7 1.95 Q-12.55 0.8 -10.5 -1.0 L-6.95 -4.1 M-0.3 1.1 L-3.4 2.55 -0.6 1.35 -0.25 1.15 -0.3 1.1 M-9.75 4.9 L-8.9 4.6 -6.8 3.9 -7.15 3.7 -7.55 3.5 -9.25 4.6 -9.75 4.9" fill="#333333" fill-rule="evenodd" stroke="none"/>
  </g>
</svg>
