<?xml version="1.0" encoding="UTF-8" standalone="no"?>
<svg xmlns:xlink="http://www.w3.org/1999/xlink" height="15.9px" width="36.2px" xmlns="http://www.w3.org/2000/svg">
  <g transform="matrix(1.0, 0.0, 0.0, 1.0, 18.1, 7.95)">
    <path d="M14.25 -4.4 L14.0 -3.7 13.45 -3.5 13.95 -3.5 17.75 -3.9 17.85 -3.75 17.9 -3.3 18.1 -3.3 17.85 -3.25 13.25 -1.8 5.9 0.3 Q3.5 1.0 -3.35 3.9 -4.45 4.35 -5.35 4.75 L-6.9 5.65 Q-8.25 6.35 -9.15 6.65 L-9.5 6.95 Q-10.75 7.95 -12.25 7.95 -16.15 7.95 -17.3 6.4 L-18.0 4.2 -17.35 4.25 Q-18.1 3.2 -18.1 1.85 -18.1 -1.8 -13.4 -4.65 -8.2 -7.8 0.0 -7.95 L9.2 -7.55 Q13.0 -6.95 13.0 -5.65 L13.0 -5.55 Q14.25 -5.1 14.25 -4.4 M-14.0 -0.85 L-12.5 -1.65 Q-13.0 -2.0 -13.15 -2.55 -16.1 -0.4 -16.85 4.2 L-17.1 4.4 -16.1 5.15 Q-14.95 6.35 -13.0 6.35 L-11.5 6.3 -11.5 6.1 -11.75 6.2 -12.3 6.05 -12.5 5.8 -10.75 4.5 -11.5 4.75 -14.15 5.1 Q-16.25 5.1 -16.25 4.4 -16.25 3.75 -14.6 2.65 -13.0 1.55 -10.75 0.7 L-10.25 0.45 -14.9 0.7 Q-15.1 0.75 -15.1 0.1 -15.1 -0.35 -14.0 -0.85 M-1.6 -1.3 L-7.75 0.95 -13.0 3.45 -13.25 3.6 Q-12.05 3.4 -7.55 1.55 -3.05 -0.3 -1.35 -1.3 L-1.6 -1.3 M1.4 -1.9 Q6.25 -3.4 12.4 -3.5 L11.25 -3.75 9.75 -4.05 Q8.0 -4.05 1.15 -2.15 L1.4 -1.9 M4.75 -4.65 Q0.15 -4.3 -3.35 -3.35 L-11.6 -0.55 Q-4.7 -1.95 4.25 -4.55 L4.75 -4.65" fill="#333333" fill-rule="evenodd" stroke="none"/>
  </g>
</svg>
