<?xml version="1.0" encoding="UTF-8" standalone="no"?>
<svg xmlns:xlink="http://www.w3.org/1999/xlink" height="65.45px" width="37.0px" xmlns="http://www.w3.org/2000/svg">
  <g transform="matrix(1.0, 0.0, 0.0, 1.0, 18.25, 32.7)">
    <path d="M13.2 -28.45 Q13.4 -27.5 12.8 -25.9 L12.0 -23.8 12.0 -23.75 13.8 -24.0 15.5 -24.25 Q17.8 -24.25 18.5 -22.7 L18.75 -21.0 Q18.75 -17.6 17.25 -15.0 14.8 -10.75 9.0 -10.75 L3.05 -10.35 Q-2.8 -10.85 -3.1 -15.55 -3.35 -16.0 -4.6 -16.0 L-7.25 -14.4 Q-10.05 -12.8 -11.5 -12.8 -15.15 -12.8 -16.95 -17.25 -17.9 -19.45 -18.1 -21.75 -18.1 -25.35 -11.2 -28.0 -5.45 -30.25 -0.75 -30.25 L3.5 -31.55 Q12.55 -31.55 13.2 -28.45" fill="#ffffff" fill-rule="evenodd" stroke="none"/>
    <path d="M5.6 -9.3 L2.9 -8.9 Q2.65 -8.9 -4.75 -12.6 L-12.25 -16.35 -13.15 -15.75 Q-13.85 -15.2 -14.75 -15.2 -16.7 -15.2 -17.5 -18.65 -14.15 -23.35 -13.1 -23.35 -12.45 -23.35 -10.25 -21.45 L-7.7 -19.3 -7.45 -19.7 -7.3 -22.05 Q-6.8 -24.2 -4.9 -24.2 -4.4 -24.2 -3.7 -23.6 -3.0 -23.05 -2.7 -23.05 -1.2 -23.05 -0.2 -24.45 L1.15 -26.5 Q2.65 -28.0 7.7 -20.3 L10.05 -22.05 Q12.3 -23.6 13.55 -23.6 15.95 -23.6 15.95 -21.5 10.55 -9.75 8.3 -9.75 L5.6 -9.3" fill="#d1d0a5" fill-opacity="0.3019608" fill-rule="evenodd" stroke="none"/>
    <path d="M13.9 -17.5 L11.95 -13.7 Q9.75 -9.85 8.7 -9.85 8.25 -9.85 7.6 -10.55 L6.8 -11.65 0.7 -10.05 -2.75 -9.5 Q-6.5 -9.5 -12.25 -12.05 -18.15 -14.7 -18.15 -16.65 -18.15 -17.55 -17.75 -18.3 -17.1 -19.7 -15.4 -19.7 -14.5 -19.7 -13.25 -18.3 L-11.7 -16.95 -10.2 -17.35 -8.75 -17.8 -5.0 -17.15 -1.25 -16.2 -1.2 -16.5 -1.05 -17.9 Q-0.65 -19.0 0.8 -19.0 4.75 -19.0 5.7 -17.9 L6.6 -16.85 Q7.05 -16.85 11.25 -19.4 13.9 -21.05 13.9 -17.5" fill="#d1d0a5" fill-opacity="0.3019608" fill-rule="evenodd" stroke="none"/>
    <path d="M6.75 -29.85 Q5.3 -29.85 3.05 -28.6 L1.3 -27.55 1.6 -25.7 Q0.25 -26.35 -0.65 -28.55 -1.5 -30.5 -1.75 -30.5 -5.25 -30.5 -7.95 -29.0 L-10.25 -27.55 -10.15 -27.5 -10.15 -26.35 -10.3 -26.55 Q-10.4 -26.75 -10.75 -26.75 -15.05 -26.75 -15.85 -23.8 L-16.0 -22.0 -13.75 -21.7 Q-16.9 -19.0 -16.9 -18.05 -16.9 -16.4 -16.25 -15.75 -14.95 -14.45 -10.7 -14.45 L-9.7 -14.55 -8.5 -15.85 -8.15 -15.8 Q-8.0 -15.75 -8.0 -15.35 L-8.05 -15.0 -7.35 -15.25 -7.25 -15.1 -8.2 -14.6 -11.5 -7.45 Q-13.05 -3.7 -13.9 -0.1 L-12.55 -0.5 -1.15 -2.6 -0.9 -2.7 -4.4 -2.5 -10.55 -3.1 Q-10.9 -3.25 -10.9 -3.9 -10.9 -5.95 -4.95 -7.55 L1.6 -8.95 -7.35 -9.3 Q-8.35 -9.45 -8.35 -9.95 -8.35 -10.55 -3.75 -12.85 L-2.9 -13.2 -3.9 -13.2 -5.25 -13.1 Q-6.35 -13.1 -6.75 -13.5 -5.4 -14.6 -0.25 -14.5 L-0.1 -14.35 0.0 -13.85 Q0.0 -13.3 -1.55 -12.25 -3.05 -11.25 -4.35 -10.85 3.85 -10.3 7.35 -10.95 L9.85 -11.45 Q7.85 -15.1 7.85 -15.8 L7.9 -16.2 11.05 -12.6 Q15.25 -14.5 16.3 -16.45 16.75 -17.35 16.75 -20.25 16.75 -22.25 15.25 -23.7 13.15 -25.7 8.75 -25.7 L8.7 -25.7 8.0 -24.75 7.75 -24.95 7.95 -25.85 7.6 -26.0 7.5 -26.2 8.0 -26.25 8.25 -28.2 Q8.25 -29.85 6.75 -29.85 M-7.55 -31.45 Q-3.05 -33.95 -0.35 -31.5 0.65 -30.5 1.05 -28.8 L1.65 -29.25 Q3.3 -30.3 4.95 -30.85 9.75 -32.55 9.75 -28.5 9.75 -27.65 9.1 -26.35 15.05 -26.85 17.1 -23.9 18.25 -22.25 18.25 -18.1 18.25 -16.6 16.9 -14.6 15.15 -12.0 12.5 -12.0 L11.85 -12.2 11.1 -12.55 Q13.15 -9.85 14.35 -6.8 15.1 -6.65 15.25 -5.65 L15.05 -4.9 15.45 -3.3 Q16.4 0.7 16.4 10.15 L16.4 11.45 16.5 11.55 16.6 12.15 16.35 12.65 16.15 15.2 17.0 13.4 17.35 13.5 17.5 13.9 Q15.15 23.15 12.25 27.1 9.0 31.95 3.5 32.3 3.25 32.7 3.25 32.05 L5.65 30.55 Q8.65 28.7 11.0 25.25 11.95 23.8 12.55 21.9 L13.5 18.5 14.1 13.7 12.4 14.15 4.4 16.25 6.4 15.9 10.85 15.5 Q12.15 15.5 12.5 16.05 L12.6 16.65 Q12.6 17.65 2.9 19.85 L-10.9 22.75 -2.8 21.25 Q4.6 19.9 11.25 19.9 11.75 19.9 12.05 20.3 L12.25 20.8 Q12.25 21.95 9.6 22.55 L6.3 23.15 8.1 22.9 Q8.9 22.9 9.25 23.3 L9.5 23.8 Q9.5 24.6 6.8 25.65 L3.0 26.75 2.75 26.8 4.15 26.6 5.25 26.4 Q6.85 26.4 6.85 27.4 6.85 28.9 -1.4 28.9 L-5.0 28.4 -5.1 27.85 Q-5.1 27.35 -4.4 26.75 L-3.75 26.4 -8.1 26.9 Q-6.15 28.6 -3.7 29.85 4.15 29.3 6.6 27.95 L8.15 26.6 Q8.9 25.85 10.0 25.55 9.2 26.1 7.1 28.7 4.45 30.85 -0.65 31.05 L2.25 31.8 Q1.8 32.9 -1.0 32.75 -7.4 32.75 -11.45 26.85 L-12.15 26.8 Q-12.35 26.7 -12.35 26.05 L-12.2 25.75 -13.0 24.3 Q-15.2 24.0 -15.3 23.55 L-14.15 22.3 -14.15 22.25 Q-16.1 22.45 -16.1 21.1 -16.1 20.55 -14.8 19.9 L-16.15 14.75 -16.65 11.25 Q-16.65 7.25 -16.2 3.55 L-16.25 2.85 Q-16.25 2.1 -15.9 1.5 L-15.1 -2.75 Q-13.5 -9.45 -10.5 -13.5 L-13.9 -13.1 Q-16.1 -13.1 -17.35 -14.65 -18.25 -15.75 -18.25 -16.4 -18.25 -19.75 -17.8 -20.7 L-17.15 -21.55 -17.4 -24.35 Q-17.4 -25.9 -15.15 -27.3 -13.35 -28.45 -11.55 -28.05 -11.15 -29.45 -7.55 -31.45 M2.85 -5.9 L12.15 -6.8 11.25 -8.9 10.85 -9.6 Q7.8 -7.75 -5.35 -4.85 L2.85 -5.9 M-15.0 8.5 L-14.9 11.5 Q-12.05 10.2 -4.25 7.5 4.45 4.5 10.9 2.65 L10.95 2.65 11.0 3.05 Q11.0 5.4 -8.9 11.05 L-9.0 11.1 Q-3.7 10.3 11.25 6.9 12.2 6.9 12.5 7.4 L12.65 7.9 -8.9 15.9 3.1 12.95 Q11.0 11.1 14.3 11.0 L14.6 5.05 Q14.6 0.8 13.3 -3.6 11.8 -2.95 9.3 -2.3 L-3.15 0.4 -3.4 0.5 2.2 -0.7 Q7.85 -1.85 11.0 -1.85 12.9 -1.85 13.5 -1.3 L13.75 -0.65 Q13.75 0.35 8.1 2.3 L1.0 4.55 -10.5 7.9 Q-11.45 7.9 -11.8 7.3 L-12.0 6.6 Q-12.0 5.5 -8.15 4.4 L-5.05 3.55 -5.95 3.75 -12.15 4.4 -14.7 4.25 -15.0 8.5 M-8.95 14.0 L-0.6 11.0 -0.4 10.9 -4.15 11.9 -14.8 12.55 -14.1 16.5 Q-12.8 15.55 -8.95 14.0 M-13.5 18.5 L-13.25 19.25 -10.15 18.05 -12.75 18.55 -13.5 18.5 M-2.1 26.0 L-2.3 26.05 -2.25 26.05 -2.1 26.0 M-10.35 24.5 L-10.2 24.65 -9.75 24.5 -10.35 24.5" fill="#333333" fill-rule="evenodd" stroke="none"/>
  </g>
</svg>
