<?xml version="1.0" encoding="UTF-8" standalone="no"?>
<svg xmlns:xlink="http://www.w3.org/1999/xlink" height="25.45px" width="39.6px" xmlns="http://www.w3.org/2000/svg">
  <g transform="matrix(1.0, 0.0, 0.0, 1.0, 19.8, 12.75)">
    <path d="M4.35 -12.25 L5.75 -12.75 6.15 -12.75 6.15 -12.7 6.7 -12.65 7.0 -12.55 7.4 -12.4 7.95 -12.1 8.25 -11.8 8.5 -11.5 8.7 -11.25 8.8 -10.95 9.0 -10.65 9.2 -10.4 9.55 -10.1 9.85 -9.8 10.15 -9.55 10.4 -9.25 10.8 -8.95 11.25 -8.8 11.65 -8.7 12.0 -8.6 12.7 -8.4 13.05 -8.1 13.35 -7.85 13.65 -7.55 13.9 -7.25 14.2 -6.95 14.4 -6.7 14.5 -6.4 14.6 -6.15 14.65 -5.85 14.75 -5.55 14.85 -5.3 14.85 -4.7 14.85 -4.4 14.85 -4.15 14.85 -3.85 14.85 -3.55 14.85 -3.3 14.85 -3.0 14.75 -2.7 15.25 -2.55 16.1 -2.3 17.5 -1.75 17.8 -1.5 18.35 -0.9 18.95 -0.35 19.2 -0.05 19.7 0.5 19.8 0.8 19.8 1.35 19.8 1.9 19.8 2.5 19.8 3.05 19.8 3.35 19.8 3.9 19.7 4.2 19.6 4.5 19.4 4.75 19.2 5.05 19.05 5.35 18.85 5.6 18.55 5.9 18.25 6.2 17.2 6.75 16.1 7.3 14.95 7.9 13.55 8.15 7.3 8.95 7.2 9.2 6.7 9.75 6.45 10.05 6.15 10.35 5.85 10.65 5.6 10.9 5.3 11.2 4.85 11.5 4.45 11.75 3.95 12.05 2.95 12.35 2.15 12.5 -0.3 12.7 -0.85 12.6 -2.75 12.15 Q-3.7 11.85 -4.55 11.35 L-5.6 10.55 -6.05 10.25 -7.1 9.95 -7.7 9.7 -7.95 9.4 -8.15 9.1 -8.35 8.85 -8.55 8.55 -8.7 8.25 -8.9 8.0 -9.1 7.7 -9.2 7.4 -9.4 7.15 -9.5 6.85 -9.65 6.55 -9.75 6.3 -12.8 6.35 -13.55 6.25 -16.75 5.9 -17.25 5.7 -17.6 5.4 -18.2 4.85 -18.75 4.3 -19.05 4.0 -19.5 3.45 -19.6 3.15 -19.7 2.85 -19.8 2.6 -19.8 2.0 -19.8 1.75 -19.8 1.15 -19.8 0.3 -19.8 -0.55 -19.8 -1.1 -19.8 -1.7 -19.7 -1.95 -19.6 -2.25 -19.5 -2.55 -19.4 -2.8 -19.35 -3.1 -19.25 -3.4 -18.85 -3.95 -18.3 -4.8 -17.7 -5.65 -17.3 -6.2 -16.75 -6.8 -16.2 -7.05 -15.45 -7.25 -14.7 -7.25 -13.35 -7.25 -10.8 -7.45 -10.25 -8.0 -9.65 -8.55 -8.9 -9.15 -7.85 -9.75 -4.75 -10.1 -3.8 -10.65 -3.2 -10.95 -1.8 -11.45 0.1 -11.35 0.95 -11.25 2.15 -10.95 3.3 -11.7 4.35 -12.25" fill="#5b5546" fill-opacity="0.3019608" fill-rule="evenodd" stroke="none"/>
    <path d="M8.05 -4.35 L9.55 -4.35 11.05 -4.15 13.15 -4.1 13.35 -4.05 13.6 -3.85 13.9 -3.55 14.2 -3.3 14.3 -3.0 14.5 -2.7 14.7 -2.45 14.95 -2.15 15.25 -1.85 15.45 -1.6 15.5 -1.3 15.7 -1.0 15.8 -0.75 15.8 -0.45 15.8 -0.15 15.8 0.1 15.9 0.4 16.0 0.7 16.1 1.0 16.1 1.25 16.1 1.85 16.1 2.4 16.1 2.95 16.1 3.8 16.1 4.4 16.1 4.65 16.0 4.95 15.8 5.25 15.6 5.5 15.05 6.1 14.5 6.65 14.2 6.95 13.9 7.25 12.75 7.75 11.9 8.05 11.0 8.35 10.9 8.65 10.7 8.95 10.6 9.2 10.4 9.5 10.3 9.8 10.15 10.05 9.9 10.35 9.65 10.6 9.25 10.9 8.4 11.1 8.05 11.2 7.75 11.4 7.0 11.6 6.6 11.75 5.75 11.95 5.0 11.95 4.45 11.85 4.15 11.75 3.6 11.6 2.75 11.65 0.45 11.65 -0.1 11.6 -0.55 11.35 -1.05 11.1 -1.45 10.85 -1.9 10.55 -2.2 10.25 -2.45 9.95 -2.75 9.7 -3.2 9.4 -3.6 9.1 -4.0 8.85 -4.2 8.55 -4.45 8.25 -4.55 8.0 -4.75 7.7 -4.85 7.4 -5.05 7.15 -5.2 6.85 -5.4 6.55 -5.6 6.3 -5.7 6.0 -5.8 5.7 -5.9 5.45 -5.95 5.15 -6.05 4.85 -6.15 4.55 -6.15 4.0 -6.15 3.45 -6.15 2.6 -6.15 2.0 -6.15 1.15 -6.15 0.6 -6.15 0.3 -6.05 0.05 -5.95 -0.25 -5.9 -0.55 -5.4 -1.1 -5.05 -1.7 -4.35 -2.55 -3.8 -3.1 -3.5 -3.4 -2.95 -3.65 -2.2 -3.85 0.1 -3.8 0.95 -3.75 1.6 -3.85 2.35 -4.05 3.95 -3.85 5.3 -3.4 5.85 -3.2 6.25 -3.3 6.55 -3.55 6.8 -3.85 7.3 -4.15 8.05 -4.35" fill="#5b5546" fill-opacity="0.3019608" fill-rule="evenodd" stroke="none"/>
    <path d="M3.7 1.45 L3.8 1.75 3.95 2.0 4.05 2.3 4.25 2.6 4.35 2.85 4.65 3.15 4.9 3.45 5.2 3.7 5.5 4.0 5.75 4.3 5.95 4.55 6.05 4.85 6.15 5.15 6.15 5.45 6.15 5.7 6.05 6.0 6.05 6.3 6.05 6.55 6.05 6.85 6.05 7.15 6.05 7.4 6.05 7.7 5.95 8.0 5.75 8.25 5.6 8.55 5.4 8.8 5.1 9.1 4.75 9.4 3.85 9.55 2.95 9.7 2.45 9.85 1.6 10.05 1.25 10.05 0.65 9.95 0.1 9.9 -0.45 9.75 -0.65 9.7 -1.05 9.5 -2.55 9.3 -3.15 9.2 -3.5 9.1 -3.9 9.05 -6.75 8.95 -7.5 8.75 -7.95 8.45 -8.25 8.15 -8.8 7.9 -9.3 7.6 -11.65 7.35 -13.55 7.05 -14.1 6.95 -15.15 6.4 -15.9 5.9 -16.45 5.3 -16.95 4.75 -17.15 4.5 -17.25 4.2 -17.35 3.9 -17.45 3.65 -17.45 3.35 -17.45 3.05 -17.45 2.75 -17.45 2.5 -17.45 2.2 -17.45 1.9 -17.45 1.65 -17.35 1.35 -17.25 1.05 -17.15 0.8 -17.05 0.5 -17.05 0.2 -17.05 -0.05 -17.05 -0.35 -16.95 -0.65 -16.85 -0.9 -16.75 -1.2 -16.7 -1.5 -16.6 -1.75 -16.5 -2.05 -16.4 -2.35 -16.2 -2.6 -15.9 -2.9 -15.45 -3.2 -14.7 -3.4 -14.1 -3.3 -13.65 -3.1 -13.1 -3.0 -12.4 -3.2 -11.65 -3.4 -10.15 -3.4 -10.15 -3.35 -9.55 -3.3 -9.0 -3.1 -8.15 -2.8 -7.7 -2.55 -7.4 -2.25 -7.1 -1.95 -6.85 -1.7 -6.55 -1.4 -6.25 -1.1 -6.05 -0.9 -5.7 -1.0 -5.2 -1.3 -4.45 -1.5 -1.05 -1.5 -0.2 -1.3 0.25 -1.0 1.1 -0.45 1.5 -0.15 1.8 0.1 2.1 0.4 2.55 0.6 2.85 0.7 3.1 0.9 3.4 1.15 3.7 1.45" fill="#5b5546" fill-opacity="0.3019608" fill-rule="evenodd" stroke="none"/>
    <path d="M6.55 -11.55 L6.55 -11.5 7.3 -11.35 7.85 -11.05 9.75 -9.9 10.6 -9.35 10.9 -9.05 11.55 -8.2 11.95 -7.65 12.3 -7.1 13.35 -5.9 14.2 -4.8 14.3 -4.5 14.4 -4.25 14.6 -3.65 14.75 -3.1 14.8 -2.8 14.85 -2.55 14.85 -2.25 14.85 -1.7 14.85 -1.4 14.85 -0.8 14.85 -0.55 14.85 0.05 14.85 1.15 14.85 1.75 14.75 2.0 14.55 2.3 14.3 2.6 14.0 2.85 13.55 3.15 13.15 3.45 12.7 3.7 12.0 3.9 11.65 4.05 11.55 4.2 11.45 4.5 11.25 4.75 11.0 5.05 10.7 5.35 9.25 6.1 7.85 6.55 3.5 6.45 2.85 6.6 2.0 6.75 -0.65 6.7 -1.7 6.55 -2.55 6.75 -5.2 6.75 -6.05 6.55 -6.9 6.35 -7.2 6.25 -8.75 5.2 -9.55 4.4 Q-10.95 3.9 -12.4 3.75 L-14.6 3.15 -14.95 2.85 -15.35 2.55 -15.95 2.05 -16.7 1.15 -17.05 0.6 -17.15 0.3 -17.25 0.05 -17.35 -0.25 -17.6 -0.55 -17.7 -0.8 -17.9 -1.1 -17.95 -1.4 -18.0 -1.7 -18.0 -2.25 -18.0 -2.55 -18.0 -2.8 -18.0 -3.1 -18.0 -3.4 -17.95 -3.65 -17.9 -3.95 -17.7 -4.25 -17.6 -4.5 -17.35 -4.8 -16.95 -5.1 -16.85 -5.35 -16.75 -5.65 -16.7 -5.95 -16.6 -6.2 -16.15 -6.75 -15.6 -7.35 -15.25 -7.6 -14.7 -7.95 -13.95 -8.1 -11.3 -8.25 -10.7 -8.5 -10.5 -8.8 -10.4 -9.05 -9.2 -9.9 -7.5 -10.4 -6.75 -10.4 -4.25 -10.0 -2.55 -9.55 -1.9 -9.55 0.65 -10.25 3.7 -10.1 4.45 -10.2 4.55 -10.5 4.75 -10.75 4.9 -11.05 5.4 -11.35 6.15 -11.55 6.55 -11.55" fill="#5b5546" fill-opacity="0.3019608" fill-rule="evenodd" stroke="none"/>
    <path d="M7.8 -1.3 L7.8 -2.3 7.7 -1.6 7.7 -0.6 7.8 0.3 7.8 -0.3 7.8 -1.3 M2.35 -4.45 L2.45 -4.6 2.65 -4.75 2.9 -4.85 3.1 -4.85 3.35 -4.8 3.45 -4.7 3.6 -4.55 3.7 -4.4 3.8 -4.25 3.85 -4.15 3.95 -4.0 4.05 -3.85 4.1 -3.7 4.2 -3.55 4.25 -3.4 4.3 -3.25 4.3 -1.7 4.3 0.0 4.3 1.25 4.25 1.4 4.1 2.15 3.9 2.7 3.75 3.1 3.65 3.25 3.6 3.4 3.55 3.55 3.5 3.7 3.4 3.85 3.35 3.95 3.3 4.1 3.3 4.25 3.35 4.4 3.4 4.7 3.45 4.95 3.45 5.1 3.5 5.25 3.6 5.4 3.7 5.55 3.9 5.65 4.65 5.7 5.2 5.45 5.95 4.75 6.25 4.3 6.3 4.15 6.35 4.0 6.45 3.9 6.5 3.75 6.55 3.6 6.65 3.45 6.65 3.3 6.65 3.15 6.6 3.0 6.6 2.9 6.6 2.75 6.55 2.6 6.55 2.45 6.55 2.3 6.5 2.15 6.5 0.6 6.5 -1.1 6.5 -2.5 6.55 -2.65 6.65 -3.35 6.85 -4.1 7.0 -4.5 7.1 -4.65 7.15 -4.8 7.35 -4.95 7.65 -5.05 7.85 -5.05 7.85 -5.0 8.05 -5.0 8.2 -4.9 8.35 -4.75 8.5 -4.6 8.6 -4.45 8.65 -4.3 8.85 -3.6 8.95 -3.05 9.0 -2.6 9.0 -1.35 9.0 -0.2 9.0 0.65 8.95 0.8 8.7 1.65 8.45 2.35 8.3 2.8 8.2 2.95 8.15 3.05 8.1 3.2 8.05 3.35 8.0 3.5 7.95 3.65 7.9 3.8 7.9 4.05 7.9 4.2 7.9 4.35 7.9 4.5 7.9 4.65 8.0 4.75 8.05 4.8 8.35 4.75 8.55 4.6 8.95 4.3 9.45 4.0 9.95 3.45 10.5 2.75 10.75 2.3 10.8 2.15 10.9 2.05 11.0 1.9 11.05 1.75 11.1 1.6 11.2 1.45 11.25 1.3 11.3 1.2 11.4 1.05 11.45 0.9 11.55 0.75 11.55 0.6 11.55 0.45 11.55 0.3 11.6 0.2 11.65 0.05 11.65 -0.1 11.65 -0.25 11.65 -0.4 11.7 -0.55 11.7 -0.8 11.7 -1.1 11.7 -1.25 11.7 -1.4 11.7 -1.5 11.75 -1.65 11.75 -1.8 11.75 -1.95 11.75 -2.1 11.8 -2.25 11.8 -2.35 11.8 -2.5 11.8 -2.65 11.75 -2.8 11.7 -2.95 11.65 -3.1 11.7 -3.25 11.75 -3.35 12.0 -3.45 12.25 -3.35 12.35 -3.25 12.45 -3.1 12.45 -2.95 12.55 -2.8 12.55 -2.65 12.55 -2.5 12.55 -2.35 12.6 -2.25 12.6 -2.1 12.6 -1.95 12.6 -1.8 12.6 -1.65 12.65 -1.5 12.65 -1.25 12.65 -0.8 12.65 -0.55 12.65 -0.25 12.6 -0.1 12.6 0.05 12.6 0.2 12.6 0.35 12.55 0.45 12.5 0.6 12.5 0.75 12.5 0.9 12.5 1.05 12.45 1.2 12.45 1.3 12.35 1.45 12.3 1.6 12.25 1.75 12.15 1.9 12.1 2.05 12.05 2.15 11.95 2.3 11.9 2.45 11.8 2.6 11.7 2.75 11.6 2.9 11.55 3.0 10.2 4.65 8.15 6.15 7.85 6.25 7.65 6.25 7.4 6.2 7.3 6.15 7.2 6.05 7.1 5.9 7.05 5.75 6.9 5.65 6.8 5.65 6.35 6.05 5.85 6.5 5.4 6.75 5.0 6.9 4.6 7.0 3.65 6.9 3.15 6.65 3.0 6.55 2.7 6.25 2.55 6.1 2.4 5.95 2.35 5.8 2.3 5.65 2.25 5.55 2.25 5.4 2.15 5.4 2.05 5.55 2.0 5.65 1.85 5.8 1.75 5.95 1.4 6.05 0.9 6.05 0.65 6.0 0.35 5.75 0.05 5.45 -0.05 5.35 -0.1 5.25 -0.2 5.4 -0.35 5.55 -0.7 5.65 -0.95 5.55 -1.25 5.4 -1.35 5.35 -1.45 5.2 -1.5 5.05 -1.45 4.9 -1.35 4.8 -1.15 4.65 -1.1 4.5 -1.1 4.2 -1.1 3.65 -1.1 3.05 -1.1 2.65 -1.05 2.5 -1.0 2.35 -0.95 2.2 -0.95 2.1 -0.9 1.95 -0.8 1.8 -0.6 1.65 -0.3 1.55 -0.1 1.6 0.0 1.65 0.1 1.75 0.25 1.9 0.35 2.05 0.45 2.15 0.55 2.45 0.7 2.9 0.8 3.3 0.85 3.6 0.85 3.75 0.85 3.9 0.85 4.0 0.85 4.15 0.85 4.3 0.9 4.45 0.95 4.6 1.0 4.7 1.15 4.65 1.6 4.2 1.8 3.9 1.9 3.65 1.9 1.8 1.9 -0.6 1.9 -2.6 1.95 -2.75 2.05 -3.45 2.2 -4.05 2.35 -4.45" fill="#333333" fill-rule="evenodd" stroke="none"/>
    <path d="M-6.95 -4.85 L-6.95 -4.8 -6.7 -4.75 -6.6 -4.75 -6.45 -4.65 -6.3 -4.5 -6.2 -4.35 -6.1 -4.1 -6.05 -3.8 -6.0 -3.65 -5.95 -3.5 -5.95 -3.1 -5.95 -2.65 -5.95 -2.35 -5.95 -2.25 -5.9 -2.1 -5.9 -0.95 -5.9 0.2 -5.9 1.05 -6.0 1.3 -6.1 1.6 -6.2 1.9 -6.25 2.05 -6.3 2.15 -6.35 2.3 -6.4 2.45 -6.45 2.6 -6.5 2.75 -6.6 2.9 -6.55 3.3 -6.45 3.75 -6.4 4.0 -6.35 4.15 -6.1 4.45 -5.9 4.6 -5.7 4.75 -5.05 4.8 -4.85 4.8 -4.45 4.5 -3.75 3.8 -3.5 3.35 -3.45 3.2 -3.35 3.05 -3.3 2.95 -3.2 2.8 -3.1 2.5 -2.95 2.05 -2.85 1.65 -2.75 1.35 -2.75 1.1 -2.75 0.65 -2.75 0.25 -2.75 -0.05 -2.7 -0.2 -2.7 -0.5 -2.7 -0.9 -2.7 -1.35 -2.7 -1.6 -2.7 -1.75 -2.75 -1.9 -2.8 -2.0 -2.8 -2.15 -2.8 -2.3 -2.8 -2.55 -2.8 -2.7 -2.8 -2.85 -2.8 -3.0 -2.9 -3.15 -2.95 -3.25 -3.0 -3.4 -2.95 -3.55 -2.8 -3.7 -2.6 -3.8 -2.35 -3.7 -2.15 -3.55 -2.0 -3.4 -2.0 -3.25 -1.95 -3.15 -1.9 -3.0 -1.85 -2.85 -1.75 -2.7 -1.75 -2.55 -1.75 -2.4 -1.75 -2.3 -1.75 -2.15 -1.75 -2.0 -1.75 -1.85 -1.7 -1.7 -1.7 -1.45 -1.7 -1.0 -1.7 -0.6 -1.7 -0.3 -1.65 -0.15 -1.65 0.15 -1.65 0.7 -1.65 1.25 -1.65 1.7 -1.8 2.1 -1.9 2.55 -1.95 2.85 -2.0 3.0 -2.1 3.1 -2.15 3.25 -2.25 3.4 -2.3 3.55 -2.4 3.7 -2.45 3.85 -2.55 3.95 -2.6 4.1 -2.9 4.55 -3.5 5.25 -4.05 5.65 -4.7 5.95 -5.05 6.05 -5.8 6.05 -6.05 6.0 -6.35 5.75 -7.1 5.2 -7.45 4.8 -7.5 4.65 -7.55 4.5 -7.6 4.35 -7.7 4.25 -8.65 4.95 -10.75 5.9 -11.9 5.85 -12.55 5.65 -12.8 5.5 -13.0 5.35 -13.25 5.2 -13.35 5.05 -13.4 4.9 -13.5 4.65 -13.6 4.35 -13.65 4.05 -13.7 3.9 -13.9 4.0 -14.15 4.15 -14.35 4.3 -15.45 4.5 -17.2 4.35 -17.35 4.25 -17.65 3.95 -17.9 3.7 -18.0 3.55 -18.05 3.4 -18.15 3.25 -18.2 3.1 -18.2 2.7 -18.2 2.4 -18.2 2.1 -18.2 2.0 -18.15 1.85 -18.1 1.7 -18.0 1.55 -17.85 1.4 -17.7 1.25 -17.35 1.2 -17.1 1.2 -17.0 1.2 -16.85 1.2 -16.6 1.15 -16.25 1.2 -16.15 1.35 -16.1 1.5 -16.1 1.65 -16.1 1.8 -16.15 1.95 -16.25 2.1 -16.55 2.15 -16.75 2.25 -16.85 2.25 -16.85 2.35 -16.9 2.5 -16.9 2.65 -16.9 2.8 -16.8 2.95 -16.7 3.05 -16.45 3.15 -15.0 3.1 -14.95 3.1 -14.75 3.0 -14.6 2.85 -14.4 2.55 -14.3 2.4 -14.2 2.25 -14.15 2.1 -14.1 2.0 -14.1 1.85 -14.05 1.7 -14.05 1.4 -14.05 0.85 -14.05 0.4 -14.05 0.15 -14.0 0.0 -13.95 -0.15 -13.85 -0.3 -13.7 -0.45 -13.4 -0.55 -13.15 -0.5 -12.95 -0.4 -12.8 -0.25 -12.75 -0.1 -12.7 0.05 -12.7 0.2 -12.7 0.3 -12.65 0.45 -12.6 0.6 -12.55 0.75 -12.55 0.9 -12.55 1.2 -12.55 1.9 -12.55 2.6 -12.55 3.0 -12.45 3.3 -12.35 3.75 -12.25 4.0 -12.25 4.15 -12.15 4.3 -11.9 4.45 -11.65 4.55 -10.65 4.5 -9.3 3.75 -8.35 3.05 -8.25 2.95 -8.15 2.8 -8.05 2.65 -8.0 2.5 -7.95 2.35 -7.95 0.65 -7.95 -1.45 -7.95 -3.2 -7.85 -3.45 -7.75 -3.9 -7.65 -4.15 -7.6 -4.3 -7.5 -4.45 -7.4 -4.6 -7.2 -4.75 -6.95 -4.85" fill="#333333" fill-rule="evenodd" stroke="none"/>
  </g>
</svg>
