<?xml version="1.0" encoding="UTF-8" standalone="no"?>
<svg xmlns:xlink="http://www.w3.org/1999/xlink" height="20.25px" width="36.85px" xmlns="http://www.w3.org/2000/svg">
  <g transform="matrix(1.0, 0.0, 0.0, 1.0, 19.8, 12.1)">
    <path d="M9.5 -10.2 L10.05 -9.65 10.35 -9.35 10.55 -9.1 10.7 -8.8 11.5 -8.5 12.45 -7.7 13.0 -7.1 13.3 -6.8 13.55 -6.55 13.85 -6.25 13.95 -5.95 14.15 -5.7 14.2 -5.4 14.3 -5.1 14.4 -4.85 14.4 -4.55 14.4 -4.25 14.6 -4.0 14.85 -3.7 15.05 -3.4 15.25 -3.1 15.35 -2.85 15.45 -2.55 15.65 -2.3 15.9 -1.95 16.1 -1.7 16.2 -1.4 16.4 -1.15 16.5 -0.85 16.5 -0.55 16.5 -0.3 16.5 0.0 16.6 0.3 16.7 0.55 16.8 0.85 16.85 1.15 16.85 1.4 16.85 2.0 16.85 2.85 16.85 3.4 16.85 3.7 16.85 4.0 16.85 4.25 16.8 4.55 16.6 4.85 16.5 5.1 16.0 5.7 15.75 5.95 15.45 6.25 15.15 6.55 14.9 6.8 14.0 7.35 13.45 7.65 12.6 7.95 11.75 8.15 9.5 8.15 8.65 7.95 7.9 7.7 6.85 7.6 6.55 7.75 5.7 7.95 2.65 7.95 -0.15 7.4 -1.0 7.2 -1.7 6.9 -2.25 6.85 -3.75 6.8 -4.15 6.8 -4.7 6.7 -5.0 6.65 -5.2 6.45 -5.55 6.15 -5.85 5.9 -6.45 5.7 -7.0 5.6 -7.45 5.5 -7.55 5.5 -9.0 5.95 -9.85 6.15 -10.85 6.35 -10.85 6.45 -10.95 6.75 -11.05 7.0 -11.25 7.3 -11.55 7.6 -12.0 7.85 -12.85 8.05 -13.45 7.95 -13.7 7.85 -14.0 7.65 -14.25 7.4 -14.45 7.1 -14.65 6.8 -14.75 6.55 -15.35 5.7 -16.65 4.0 -16.9 3.7 -17.55 2.9 -18.65 1.4 -19.0 0.85 -19.1 0.55 -19.3 0.3 -19.4 0.0 -19.4 -0.3 -19.4 -0.55 -19.4 -0.85 -19.3 -1.15 -19.2 -1.4 -19.1 -1.7 -18.9 -1.95 -18.65 -2.25 -18.15 -2.55 -17.4 -2.75 -17.3 -2.85 -17.2 -3.1 -17.1 -3.4 -16.95 -3.7 -16.85 -3.95 -16.45 -4.5 -15.9 -5.1 -15.6 -5.4 -15.2 -5.65 -14.75 -5.95 -13.9 -6.25 -13.7 -6.5 -13.45 -6.8 -13.15 -7.1 -12.2 -7.65 -11.65 -7.95 -10.95 -8.2 -10.2 -8.4 -9.45 -8.4 -9.0 -8.45 -8.9 -8.5 -8.7 -8.7 -8.4 -9.0 -7.95 -9.3 -7.15 -9.4 -4.8 -9.65 -4.6 -9.95 -4.55 -10.2 -4.25 -10.5 -3.95 -10.8 -3.65 -11.05 -3.3 -11.35 -2.8 -11.65 -1.95 -11.9 -1.1 -12.1 0.0 -12.1 0.0 -12.05 0.6 -12.0 0.95 -11.95 1.7 -11.75 2.1 -11.65 2.65 -11.45 3.35 -11.15 4.95 -11.05 7.95 -11.0 8.8 -10.8 9.5 -10.2" fill="#5b5546" fill-opacity="0.3019608" fill-rule="evenodd" stroke="none"/>
    <path d="M1.15 -6.15 L1.15 -6.1 1.7 -6.05 2.4 -5.75 4.0 -4.9 4.75 -4.35 5.15 -4.05 5.6 -4.05 6.1 -4.35 6.85 -4.55 7.5 -4.75 7.95 -5.0 8.75 -5.2 Q10.3 -5.35 11.75 -4.6 L12.8 -4.05 13.3 -3.8 13.55 -3.5 13.85 -3.2 13.95 -2.95 14.15 -2.65 14.5 -2.35 15.55 -1.5 16.0 -0.95 16.2 -0.65 16.4 -0.35 16.5 -0.1 16.7 0.2 16.8 0.5 16.85 0.75 16.95 1.05 17.05 1.35 17.05 2.2 17.05 3.05 17.05 3.6 17.05 3.9 17.05 4.15 17.05 4.45 16.95 4.75 16.85 5.0 16.4 5.55 15.75 6.15 15.35 6.45 14.95 6.7 14.5 7.0 10.9 7.8 6.25 7.7 6.1 7.7 5.8 7.85 4.95 8.05 0.55 7.7 -1.05 7.05 -1.6 6.8 -2.15 7.1 -3.0 7.3 -4.9 7.3 -6.3 6.75 Q-7.15 6.4 -7.7 5.65 L-8.15 5.1 -8.3 4.85 -8.4 4.55 -8.6 4.25 -8.7 4.0 -8.9 3.7 -9.0 3.4 -9.05 3.15 -9.15 2.85 -9.15 2.55 -9.15 2.3 -9.15 2.0 -9.15 1.7 -9.05 1.4 -9.0 1.15 -8.9 0.85 -8.8 0.55 -8.7 0.3 -8.6 0.0 -8.15 -0.5 -5.85 -2.25 -4.35 -2.85 -4.25 -2.95 -4.25 -3.1 -4.25 -3.4 -4.25 -3.7 -4.25 -3.95 -4.15 -4.25 -4.05 -4.55 -3.85 -4.85 -3.65 -5.1 -3.4 -5.4 -2.9 -5.65 -2.25 -5.95 -1.5 -6.15 1.15 -6.15" fill="#5b5546" fill-opacity="0.3019608" fill-rule="evenodd" stroke="none"/>
    <path d="M0.85 -2.35 L1.25 -2.15 1.8 -1.85 2.2 -1.6 2.4 -1.3 2.55 -1.05 2.75 -0.75 3.35 -0.75 3.9 -1.05 4.55 -1.3 5.3 -1.5 6.85 -1.5 7.4 -1.4 7.9 -1.25 8.25 -0.95 8.75 -0.65 9.2 -0.4 9.75 -0.1 10.05 0.2 10.35 0.5 10.55 0.75 10.6 1.05 10.8 1.35 10.9 1.6 11.0 1.9 11.0 2.2 11.0 2.75 11.0 3.3 11.0 3.6 11.0 3.9 11.0 4.15 10.9 4.45 10.8 4.75 10.55 5.0 10.25 5.3 9.75 5.6 9.2 5.9 3.05 6.55 2.65 6.75 1.9 6.9 0.8 6.85 -0.55 6.65 -1.3 6.55 -1.7 6.35 -2.05 6.05 -2.55 5.9 -3.4 6.05 -5.65 6.05 -6.5 5.9 -7.35 5.65 -7.65 5.6 -8.05 5.7 -8.6 5.95 -9.45 6.15 -10.5 6.35 -11.35 6.55 -12.85 6.5 -13.45 6.45 -13.8 6.25 -16.3 5.55 -18.15 4.65 -18.85 3.8 -19.2 3.2 -19.4 2.95 -19.6 2.65 -19.7 2.35 -19.8 2.1 -19.8 1.8 -19.8 1.5 -19.8 1.25 -19.8 0.95 -19.8 0.65 -19.7 0.4 -19.6 0.1 -19.5 -0.2 -19.3 -0.45 -19.0 -0.75 -18.55 -1.05 -17.9 -1.25 -17.9 -1.3 -17.9 -1.8 -17.9 -2.35 -17.9 -2.65 -17.9 -2.95 -17.9 -3.2 -17.8 -3.5 -17.7 -3.8 -17.5 -4.05 -17.3 -4.35 -17.1 -4.65 -16.75 -4.9 -16.25 -5.2 -15.5 -5.4 -14.4 -5.4 -13.55 -5.2 -13.05 -4.9 -12.6 -4.65 -12.1 -4.55 -11.35 -4.7 -11.25 -4.85 -11.15 -5.1 -10.95 -5.4 -10.7 -5.7 -10.2 -5.95 -9.45 -6.15 -9.05 -6.15 -9.05 -6.1 -8.5 -6.05 -8.05 -5.85 -7.65 -5.55 -7.35 -5.3 -7.1 -5.0 -6.9 -4.75 -6.8 -4.45 -6.7 -4.15 -6.6 -3.9 -6.25 -3.8 -4.05 -3.9 Q-2.3 -3.75 -0.75 -2.95 L-0.45 -2.65 -0.15 -2.45 0.4 -2.45 0.85 -2.35" fill="#5b5546" fill-opacity="0.3019608" fill-rule="evenodd" stroke="none"/>
    <path d="M6.85 -11.1 L6.85 -11.05 7.7 -10.9 8.55 -10.6 9.2 -10.3 10.15 -9.5 Q11.0 -9.0 11.95 -8.8 L12.6 -8.6 13.0 -8.4 14.0 -7.55 14.8 -6.75 15.25 -6.15 15.45 -5.85 15.55 -5.6 15.75 -5.3 15.85 -5.0 15.95 -4.75 16.0 -4.45 16.0 -4.15 16.0 -3.9 16.0 -3.6 16.0 -3.3 16.0 -3.05 16.1 -2.75 16.25 -2.2 16.4 -1.6 16.5 -1.3 16.6 -1.05 16.7 -0.75 16.7 -0.2 16.7 0.1 16.7 0.4 16.7 0.65 16.7 0.95 16.7 1.25 16.6 1.5 16.5 1.8 16.4 2.1 16.3 2.35 16.2 2.65 16.0 2.95 15.75 3.2 15.45 3.5 14.2 4.05 13.35 4.35 12.5 4.55 9.1 4.45 7.1 4.15 6.65 4.1 6.3 3.85 5.9 3.6 5.5 3.3 4.65 3.2 4.35 3.4 3.9 3.7 3.05 3.9 -1.5 3.55 -5.3 3.2 -7.2 3.5 -10.0 3.25 -11.55 3.1 -11.75 3.15 -12.0 3.3 -12.85 3.5 -14.4 3.5 -15.1 3.25 -16.25 2.7 -16.65 2.45 -17.05 2.2 -17.2 1.9 -17.4 1.6 -17.6 1.35 -17.7 1.05 -17.8 0.75 -17.9 0.5 -18.0 0.2 -18.0 -0.35 -18.0 -0.65 -18.0 -0.95 -18.0 -1.25 -18.0 -1.5 -18.0 -1.8 -17.9 -2.1 -17.8 -2.35 -17.7 -2.65 -17.6 -2.95 -17.5 -3.2 -17.4 -3.5 -17.2 -3.8 -17.0 -4.05 -16.75 -4.35 -16.3 -4.65 -15.4 -5.15 -14.7 -5.5 -14.2 -5.75 -13.9 -6.05 -13.55 -6.35 -12.75 -6.65 -12.65 -6.9 -12.65 -7.2 -12.65 -7.5 -12.6 -7.75 -12.5 -8.05 -12.3 -8.35 -12.1 -8.6 -11.7 -8.9 -11.15 -9.2 -10.6 -9.45 -9.85 -9.6 -5.85 -9.85 -5.0 -10.1 -4.15 -10.3 -3.0 -10.3 -2.45 -10.2 -2.0 -10.05 -0.75 -9.45 -0.15 -9.2 0.6 -8.9 1.15 -8.9 1.25 -9.2 1.45 -9.45 1.9 -10.05 2.2 -10.3 2.6 -10.6 3.05 -10.9 3.8 -11.1 6.85 -11.1" fill="#5b5546" fill-opacity="0.3019608" fill-rule="evenodd" stroke="none"/>
    <path d="M2.8 -3.95 L2.8 -3.85 2.8 -3.0 2.8 -2.0 2.8 -1.3 2.85 -1.15 2.85 -1.0 2.85 -0.85 2.85 -0.7 2.8 -0.55 2.8 -0.45 2.8 0.3 2.8 1.0 2.8 1.55 2.95 2.25 3.15 3.1 3.25 3.7 3.7 3.7 3.8 3.55 3.9 3.4 3.95 3.25 4.0 3.1 4.1 3.0 4.2 2.25 4.4 1.4 4.55 0.85 4.55 0.55 4.55 0.15 4.55 -0.15 4.55 -0.3 4.55 -0.55 4.65 -0.85 4.65 -1.0 4.7 -1.15 4.7 -1.3 4.7 -1.4 4.7 -1.55 4.75 -1.7 4.85 -1.85 5.0 -2.0 5.3 -2.05 5.4 -2.1 5.65 -2.05 5.75 -2.0 5.85 -1.9 5.95 -1.75 6.0 -1.6 6.0 -1.45 6.0 -1.35 6.25 -0.05 6.65 1.95 7.15 3.8 7.25 3.9 7.25 3.8 7.25 3.65 7.25 3.5 7.55 2.35 7.9 0.8 8.2 -0.6 8.2 -0.9 8.2 -1.2 8.2 -1.35 8.2 -1.45 8.3 -1.75 8.35 -1.9 8.4 -2.05 8.4 -2.2 8.5 -2.3 8.65 -2.45 8.9 -2.55 9.05 -2.5 9.2 -2.4 9.35 -2.3 9.4 -2.15 9.45 -2.0 9.45 -1.85 9.5 -1.7 9.55 -1.55 9.55 -0.55 9.55 0.4 9.55 1.25 9.6 1.4 9.6 1.55 9.6 1.7 9.6 1.85 9.55 2.15 9.5 2.4 9.45 2.55 9.45 2.7 9.35 2.85 9.3 3.0 9.25 3.1 9.2 3.25 9.15 3.4 9.05 3.55 9.0 3.7 8.9 3.8 8.6 4.25 8.35 4.55 8.25 4.7 8.25 4.85 8.2 4.95 8.25 5.1 8.3 5.25 8.35 5.4 8.4 5.55 9.0 5.6 9.1 5.5 11.05 3.8 12.1 2.35 12.15 2.1 12.2 1.8 12.25 1.65 12.3 1.5 12.3 1.35 12.3 1.25 12.3 1.1 12.3 0.95 12.35 0.8 12.35 0.65 12.4 0.5 12.55 0.35 12.8 0.4 12.85 0.55 12.9 0.7 12.95 0.85 12.95 1.0 12.95 1.15 12.95 1.25 12.95 1.4 13.0 1.55 13.0 1.7 12.95 2.0 12.9 2.25 12.85 2.55 12.8 2.7 12.7 2.85 12.55 3.1 12.45 3.25 12.35 3.4 12.3 3.55 11.0 5.1 Q10.25 5.9 9.3 6.4 L9.0 6.5 8.1 6.5 7.9 6.45 7.8 6.4 7.75 6.3 7.7 6.15 7.6 6.0 7.5 5.85 7.45 5.7 7.4 5.6 7.35 5.45 7.25 5.3 6.8 5.3 6.5 5.2 6.4 5.05 6.3 4.9 6.2 4.65 6.2 4.5 6.15 4.35 6.1 4.2 6.0 4.05 5.8 3.35 5.6 2.5 5.5 2.0 5.45 2.1 5.35 2.55 5.3 3.0 5.25 3.25 5.15 3.4 5.1 3.55 5.05 3.7 4.95 3.85 4.9 3.95 4.8 4.1 4.75 4.25 4.65 4.4 4.55 4.55 4.4 4.7 3.95 4.8 3.6 4.9 3.2 4.9 2.95 4.85 2.75 4.8 2.5 4.65 2.35 4.5 2.25 4.35 2.15 4.05 2.05 3.8 2.0 3.55 1.95 3.6 1.9 3.75 1.35 4.45 Q1.0 4.75 0.55 4.85 L0.1 4.85 -0.2 4.75 -0.35 4.6 -0.45 4.45 -0.5 4.3 -0.55 4.15 -0.55 4.0 -0.55 3.9 -0.55 3.75 -0.5 3.6 -0.5 3.45 -0.5 3.3 -0.5 3.15 -0.45 3.05 -0.4 2.9 -0.4 2.75 -0.3 2.6 -0.2 2.45 -0.05 2.3 0.15 2.2 0.3 2.05 0.5 2.2 0.55 2.3 0.55 2.45 0.6 2.6 0.65 2.75 0.7 2.9 0.75 2.95 0.8 2.85 0.9 2.7 0.95 2.55 1.05 2.4 1.1 2.15 1.15 1.85 1.2 1.55 1.25 1.4 1.25 1.25 1.25 1.15 1.3 1.0 1.3 0.85 1.35 0.7 1.35 0.55 1.35 0.4 1.4 0.3 1.5 -0.3 1.6 -0.85 1.7 -1.15 1.7 -2.15 1.7 -3.15 1.7 -3.85 1.75 -4.0 1.85 -4.1 1.95 -4.25 2.25 -4.35 2.6 -4.25 2.7 -4.1 2.8 -3.95" fill="#333333" fill-rule="evenodd" stroke="none"/>
    <path d="M-6.45 -3.15 L-6.45 -3.85 -6.55 -3.65 -6.7 -3.1 -6.9 -2.5 -6.9 -1.65 -6.9 -0.65 -6.85 0.25 -6.7 -0.15 -6.6 -0.55 -6.55 -1.0 -6.55 -1.15 -6.55 -1.3 -6.5 -1.45 -6.5 -1.55 -6.45 -1.7 -6.45 -2.4 -6.45 -3.15 M-14.65 -0.1 L-14.65 -0.25 -14.6 -0.4 -14.5 -0.5 -14.35 -0.65 -14.1 -0.75 -13.85 -0.7 -13.7 -0.6 -13.55 -0.5 -13.5 -0.35 -13.5 -0.2 -13.5 -0.05 -13.5 0.1 -13.45 0.25 -13.45 0.5 -13.45 0.8 -13.45 0.95 -13.45 1.1 -13.45 1.25 -13.35 1.5 -13.25 1.95 -13.15 2.2 -13.1 2.5 -13.0 2.65 -12.95 2.8 -12.9 2.95 -12.75 3.05 -12.5 3.2 -12.3 3.35 -12.1 3.5 -11.7 3.5 -11.6 3.5 -11.3 3.25 -11.15 3.1 -11.05 3.0 -10.9 2.85 -10.85 2.7 -10.8 2.55 -10.7 2.4 -10.65 2.15 -10.5 1.7 -10.4 1.4 -10.35 1.15 -10.25 1.0 -10.2 0.85 -10.2 0.7 -10.2 0.55 -10.15 0.4 -10.15 0.3 -10.1 0.15 -10.1 -0.15 -10.1 -0.7 -10.1 -1.3 -10.1 -1.7 -10.0 -2.0 -9.95 -2.3 -9.9 -2.55 -9.85 -2.7 -9.8 -2.85 -9.8 -3.0 -9.8 -3.15 -9.8 -3.25 -9.8 -3.4 -9.8 -3.55 -9.75 -3.7 -9.75 -3.85 -9.7 -4.0 -9.6 -4.1 -9.55 -4.25 -9.4 -4.4 -9.1 -4.5 -8.9 -4.45 -8.85 -4.4 -8.7 -4.3 -8.6 -4.15 -8.6 -4.05 -8.6 -3.6 -8.6 -3.2 -8.6 -2.9 -8.6 -2.6 -8.65 -2.45 -8.65 -2.3 -8.65 -2.2 -8.7 -1.9 -8.8 -1.35 -8.9 -0.75 -8.95 -0.35 -8.95 0.1 -8.95 0.5 -8.95 0.8 -8.95 1.1 -8.85 1.35 -8.8 1.65 -8.7 1.95 -8.7 2.1 -8.65 2.2 -8.05 2.25 -7.95 2.15 -7.95 0.55 -7.95 -1.3 -7.95 -2.7 -7.9 -2.85 -7.7 -3.55 -7.5 -4.1 -7.45 -4.55 -7.35 -4.7 -7.3 -4.85 -7.2 -5.0 -7.1 -5.1 -7.0 -5.25 -6.9 -5.4 -6.75 -5.55 -6.45 -5.65 -6.25 -5.65 -6.25 -5.6 -6.05 -5.55 -6.0 -5.55 -5.85 -5.45 -5.75 -5.3 -5.65 -5.0 -5.55 -4.75 -5.5 -4.45 -5.45 -4.3 -5.4 -4.15 -5.4 -4.05 -5.4 -3.05 -5.4 -2.2 -5.4 -1.45 -5.45 -1.35 -5.45 -1.2 -5.45 -1.05 -5.5 -0.9 -5.65 -0.05 -5.8 0.65 -6.0 1.25 -6.1 1.35 -6.25 1.65 -6.45 1.95 -6.55 2.1 -6.65 2.2 -6.7 2.35 -6.6 2.5 -6.5 2.8 -6.5 2.95 -6.45 3.05 -6.4 3.2 -6.35 3.35 -6.25 3.5 -6.15 3.65 -6.05 3.8 -5.75 3.95 -4.9 3.95 -4.8 3.95 -4.65 3.85 -4.45 3.7 -4.25 3.55 -4.0 3.4 -3.9 3.25 -3.75 3.1 -3.65 3.0 -3.55 2.85 -3.5 2.7 -3.45 2.55 -3.4 2.4 -3.3 2.25 -3.25 2.15 -3.2 2.0 -3.2 1.85 -3.15 1.7 -3.15 1.55 -3.15 1.4 -3.1 1.25 -3.1 1.15 -3.1 1.0 -3.05 0.85 -3.05 0.7 -3.0 0.55 -3.0 0.3 -3.0 0.0 -3.0 -0.15 -3.0 -0.3 -3.0 -0.45 -2.95 -0.55 -2.95 -0.85 -2.95 -1.15 -2.95 -1.4 -2.95 -1.55 -2.95 -1.7 -2.9 -1.85 -2.9 -2.0 -2.9 -2.15 -2.9 -2.3 -2.9 -2.4 -2.9 -2.55 -2.9 -2.7 -2.85 -2.85 -2.85 -3.0 -2.85 -3.15 -2.85 -3.25 -2.8 -3.4 -2.75 -3.55 -2.55 -3.7 -2.3 -3.55 -2.25 -3.4 -2.2 -3.25 -2.2 -3.15 -2.2 -3.0 -2.2 -2.85 -2.15 -2.7 -2.15 -2.55 -2.15 -2.4 -2.15 -2.3 -2.15 -2.15 -2.15 -2.0 -2.1 -1.85 -2.1 -1.55 -2.1 -1.3 -2.1 -1.0 -2.1 -0.85 -2.1 -0.7 -2.05 -0.55 -2.05 -0.3 -2.05 0.0 -2.05 0.15 -2.05 0.3 -2.05 0.4 -2.0 0.55 -2.0 0.7 -2.0 0.85 -2.0 1.0 -2.0 1.15 -2.05 1.25 -2.05 1.4 -2.05 1.55 -2.1 1.7 -2.1 1.85 -2.1 2.0 -2.15 2.15 -2.15 2.25 -2.2 2.4 -2.25 2.55 -2.35 2.7 -2.4 2.85 -2.45 3.0 -2.5 3.1 -2.6 3.25 -2.75 3.55 -3.0 3.85 -3.1 3.95 -3.2 4.1 -3.4 4.25 -4.05 4.7 -4.4 4.95 -4.75 5.05 Q-5.75 5.15 -6.6 4.65 L-7.25 3.95 -7.3 3.85 -7.4 3.7 -7.45 3.55 -7.5 3.4 -7.5 3.25 -7.65 3.3 -7.95 3.35 -8.8 3.4 -9.0 3.35 -9.2 3.25 -9.4 3.1 -9.55 2.95 -9.65 2.9 -9.7 2.95 -9.75 3.05 -9.8 3.2 -9.9 3.35 -9.95 3.5 -10.35 3.95 -10.8 4.35 -11.25 4.65 -11.55 4.75 -12.2 4.7 -12.45 4.7 -12.55 4.6 -13.4 4.0 -13.85 3.6 -13.9 3.45 -14.0 3.3 -14.05 3.15 -14.1 3.05 -14.2 2.9 -14.25 2.6 -14.45 2.05 -14.55 1.6 -14.7 1.2 -14.7 1.05 -14.7 0.9 -14.7 0.75 -14.7 0.6 -14.7 0.45 -14.7 0.35 -14.65 0.2 -14.65 0.05 -14.65 -0.1" fill="#333333" fill-rule="evenodd" stroke="none"/>
  </g>
</svg>
