<?xml version="1.0" encoding="UTF-8" standalone="no"?>
<svg xmlns:xlink="http://www.w3.org/1999/xlink" height="65.4px" width="37.1px" xmlns="http://www.w3.org/2000/svg">
  <g transform="matrix(1.0, 0.0, 0.0, 1.0, 18.35, 32.4)">
    <path d="M-9.35 -21.5 L-9.35 -21.6 Q-9.6 -22.45 -11.9 -23.3 L-10.9 -22.3 Q-10.25 -21.75 -9.35 -21.5 M-0.6 -24.6 L-0.8 -24.65 0.0 -24.2 -0.6 -24.6 M3.8 -31.2 Q3.8 -33.75 7.05 -30.95 10.25 -28.1 10.25 -27.15 L10.2 -26.75 Q11.9 -26.7 14.7 -24.55 17.4 -22.5 17.4 -21.6 17.4 -20.8 17.05 -20.15 16.45 -19.0 15.0 -19.65 L15.15 -19.55 15.8 -18.25 16.2 -17.15 16.05 -15.85 Q15.65 -14.6 14.65 -14.6 13.5 -14.6 13.35 -13.3 13.25 -12.05 12.05 -12.2 12.45 -11.8 12.3 -11.0 12.15 -10.05 11.1 -10.05 10.85 -10.05 9.3 -10.8 7.75 -11.6 7.45 -11.6 6.8 -11.25 6.55 -11.25 5.55 -11.25 -5.85 -15.15 L-5.85 -15.05 Q-5.85 -13.65 -7.05 -13.65 L-9.15 -14.0 -9.5 -13.3 Q-9.85 -12.95 -10.35 -12.95 -17.85 -12.95 -17.85 -17.6 L-17.55 -19.3 Q-16.9 -20.85 -15.0 -20.85 L-13.65 -20.55 -13.5 -20.7 -13.4 -21.15 -14.95 -22.85 Q-16.5 -24.7 -16.5 -25.5 -16.5 -27.05 -14.1 -27.05 L-12.6 -26.9 -12.65 -27.0 -12.8 -28.7 Q-12.7 -29.7 -11.6 -30.05 -10.05 -30.55 -8.2 -31.7 L-3.9 -31.95 Q-0.3 -31.95 1.35 -30.95 2.85 -30.0 4.7 -30.15 L4.5 -30.15 Q3.8 -30.95 3.8 -31.2" fill="#ffffff" fill-rule="evenodd" stroke="none"/>
    <path d="M11.85 -15.3 L11.45 -15.8 11.1 -16.2 Q10.65 -15.9 10.65 -15.45 L11.85 -15.3 M11.45 -20.25 Q15.65 -17.25 15.65 -15.3 15.65 -13.0 14.75 -12.05 13.4 -10.7 9.35 -10.7 3.65 -10.7 2.8 -11.4 2.95 -12.15 2.15 -12.15 1.8 -12.15 1.25 -11.75 0.7 -11.4 0.3 -11.4 -4.9 -11.4 -7.95 -13.45 -10.3 -15.05 -12.45 -14.4 -15.9 -13.35 -16.95 -16.15 -17.45 -17.55 -17.3 -19.15 -17.3 -21.75 -14.9 -21.75 -14.25 -21.75 -13.45 -20.8 -12.65 -19.85 -11.7 -19.85 -10.35 -19.85 -9.9 -21.15 -9.5 -22.5 -8.1 -22.5 -7.7 -22.5 -6.55 -21.45 -5.35 -20.45 -4.25 -20.45 L-3.2 -20.6 Q-3.65 -21.15 -3.15 -22.15 -2.6 -23.25 -1.2 -23.25 -0.3 -23.25 1.0 -22.35 2.55 -21.35 3.2 -21.15 6.75 -23.7 11.45 -20.25" fill="#d1d0a5" fill-opacity="0.3019608" fill-rule="evenodd" stroke="none"/>
    <path d="M12.15 -13.05 Q10.6 -11.85 8.45 -11.85 -4.55 -11.85 -11.75 -14.35 -15.35 -15.6 -16.35 -16.95 -16.2 -19.05 -13.7 -19.05 L-9.9 -18.5 Q-7.6 -17.75 -5.3 -17.45 -4.9 -19.35 -2.6 -19.35 3.95 -19.35 8.85 -17.75 13.4 -16.3 13.4 -14.7 13.4 -14.0 12.15 -13.05" fill="#d1d0a5" fill-opacity="0.3019608" fill-rule="evenodd" stroke="none"/>
    <path d="M-9.55 26.55 L-8.6 26.9 -6.05 26.6 0.15 26.4 -10.0 25.4 -10.7 25.2 -9.55 26.55 M-14.25 6.1 L-14.95 6.05 -15.1 7.25 -12.9 6.8 -7.65 6.2 Q-11.25 6.45 -14.25 6.1 M-5.1 12.15 L-5.1 12.05 -8.15 12.5 -11.9 12.9 Q-13.95 12.9 -13.95 11.55 -13.95 10.7 -12.55 10.4 L-7.2 9.3 -7.35 9.2 -14.1 9.5 -15.25 9.45 -15.3 12.0 -14.95 15.55 Q-14.75 14.4 -11.8 13.55 L-5.1 12.15 M-12.05 -5.0 L-12.35 -5.05 -12.95 -3.35 -10.8 -3.9 -5.7 -4.55 -12.05 -5.0 M-10.9 -8.95 L-11.4 -7.55 -10.85 -7.75 -5.55 -9.0 -6.0 -9.05 -8.3 -8.7 -10.9 -8.95 M7.35 29.25 L7.1 29.1 8.55 27.8 5.85 28.2 0.15 28.35 0.3 28.5 Q1.05 28.95 1.05 29.3 L0.8 29.95 Q0.5 30.45 -0.2 30.45 L-4.65 30.35 Q-2.35 31.35 0.3 31.35 5.05 31.35 8.55 29.0 L8.4 29.0 8.1 29.0 7.35 29.25 M0.9 18.15 L0.75 18.15 -12.15 19.55 -12.9 19.05 -13.2 18.3 Q-13.2 17.7 -11.9 17.1 -14.3 17.0 -14.85 16.25 L-14.55 17.6 -13.8 20.6 Q-13.8 21.55 -11.55 24.25 L-11.3 24.55 -11.3 24.5 -10.9 23.7 Q-10.45 23.1 -9.75 23.1 L-2.3 23.2 2.4 23.25 -0.5 23.0 Q-7.1 23.0 -8.9 22.2 -9.85 21.8 -9.45 21.35 -9.45 20.05 -5.6 19.3 L0.9 18.15 M14.15 11.2 L14.15 10.6 Q12.95 11.3 10.35 11.75 L8.3 12.0 Q10.1 12.0 10.1 13.15 10.1 14.15 7.45 14.75 L3.65 15.45 7.95 15.15 Q10.0 15.15 10.6 15.7 L10.85 16.3 Q10.85 17.35 8.4 18.6 5.75 20.0 3.0 20.0 L-1.4 20.75 -0.6 20.85 1.1 20.9 5.75 21.2 Q8.65 21.2 9.95 21.9 10.8 22.35 10.8 23.0 10.8 24.6 8.15 24.8 L8.3 24.9 9.75 25.55 10.0 25.8 Q11.25 23.75 12.3 20.75 14.15 15.4 14.15 11.2 M14.05 7.9 L13.8 8.0 14.05 8.05 14.05 7.9 M13.65 2.4 L13.55 1.2 Q12.8 1.95 -4.7 3.15 L-6.5 3.35 -10.3 3.75 -14.1 4.35 -11.0 4.55 10.05 3.2 12.6 3.3 Q13.4 3.5 13.4 4.2 13.4 5.5 11.1 5.75 L1.95 6.65 2.55 6.65 8.2 6.35 12.95 6.0 13.95 6.2 13.65 2.4 M11.3 -7.5 L10.65 -9.8 Q9.2 -8.95 4.15 -8.25 L-7.8 -6.6 -4.2 -6.5 9.15 -7.4 11.3 -7.5 M4.7 -0.55 L0.05 -0.3 -9.8 0.0 -13.8 -0.35 -14.5 3.05 -9.2 2.25 Q-11.7 2.05 -11.7 1.4 -11.7 0.6 -10.65 0.6 L-3.75 0.85 2.5 1.05 7.55 0.7 11.55 0.35 13.15 0.65 13.5 0.9 11.95 -5.3 1.05 -3.75 -3.75 -2.9 -7.2 -2.4 -5.75 -2.3 4.65 -2.6 6.85 -2.2 Q7.5 -1.9 7.5 -1.4 7.5 -0.85 4.7 -0.55 M0.85 -26.45 L0.3 -24.9 -0.15 -26.95 Q-0.15 -29.05 -1.05 -30.0 -2.05 -31.1 -4.5 -31.1 -6.1 -31.1 -8.4 -29.35 L-11.4 -27.0 -11.5 -27.0 Q-11.6 -26.7 -11.9 -26.7 L-12.3 -26.9 -13.7 -27.15 Q-15.55 -27.15 -16.1 -25.8 L-16.35 -24.0 Q-16.35 -23.3 -15.2 -22.25 L-14.1 -21.1 Q-14.1 -20.55 -15.05 -20.55 L-15.5 -20.6 -16.0 -19.85 Q-16.85 -18.45 -16.85 -17.05 -16.85 -15.8 -14.6 -14.7 -12.5 -13.65 -10.55 -13.65 -9.85 -13.65 -9.25 -14.3 L-9.15 -14.35 -8.9 -14.7 -7.95 -16.05 -7.7 -15.8 -7.55 -14.85 Q-8.25 -12.85 -9.55 -12.25 L-9.95 -11.25 -8.45 -11.6 -3.75 -12.2 -7.35 -12.6 Q-8.0 -12.8 -8.0 -13.25 -8.0 -13.9 -4.8 -14.55 -1.65 -15.2 -1.65 -14.15 L-1.7 -13.95 -3.6 -13.8 -2.5 -13.65 2.4 -13.45 Q4.8 -13.2 4.8 -12.35 4.8 -11.9 4.2 -11.65 L2.6 -11.3 3.05 -11.25 9.25 -11.55 10.05 -11.5 10.05 -11.55 10.05 -11.75 9.6 -13.25 10.05 -13.95 Q10.35 -14.15 10.35 -13.8 10.35 -13.55 10.9 -12.35 17.15 -16.55 17.15 -20.7 17.15 -22.6 15.15 -23.75 13.4 -24.8 10.95 -24.8 L9.8 -24.85 9.35 -24.0 Q9.05 -24.45 9.05 -24.75 L9.05 -25.0 Q8.45 -25.15 8.0 -25.4 L8.1 -25.65 8.85 -25.75 9.1 -28.1 Q8.8 -30.5 6.2 -30.5 4.55 -30.5 2.9 -28.95 L1.2 -26.9 1.05 -26.95 0.85 -26.45 M1.25 -29.25 L1.85 -30.0 Q3.55 -31.95 6.25 -31.95 9.0 -31.95 10.05 -30.2 L10.5 -28.35 10.2 -26.1 11.25 -26.25 Q15.5 -26.25 17.55 -23.55 18.6 -22.2 18.75 -20.8 16.8 -12.0 12.15 -12.0 L11.2 -11.65 11.55 -10.85 12.75 -7.95 12.85 -7.6 13.55 -7.65 Q15.15 -7.65 15.15 -6.75 15.15 -6.2 13.45 -5.65 L13.65 -4.65 Q15.45 2.65 15.45 4.7 L15.65 10.05 Q15.65 15.7 14.4 19.8 L12.45 25.15 Q15.35 21.2 15.35 17.9 L15.3 17.25 Q16.1 17.4 16.1 18.65 16.1 22.5 12.9 26.85 8.35 33.0 0.15 33.0 -4.1 33.0 -7.35 30.15 L-11.0 29.4 Q-12.2 28.85 -11.75 28.3 L-11.3 27.65 -12.3 26.6 Q-14.0 25.15 -15.3 21.45 -17.0 16.6 -17.0 11.8 -17.0 10.2 -16.4 5.75 -17.9 5.35 -17.9 4.65 -17.9 4.0 -16.1 3.45 L-15.3 -2.0 Q-13.65 -7.3 -11.05 -11.6 L-10.75 -12.05 Q-14.7 -12.05 -16.9 -14.3 -18.05 -15.4 -18.35 -16.55 -18.35 -18.8 -16.75 -20.6 L-16.25 -21.1 Q-17.05 -21.9 -17.75 -23.75 -17.75 -26.8 -14.55 -27.9 L-11.6 -27.95 Q-11.2 -28.85 -9.65 -29.95 -7.6 -31.4 -5.15 -32.0 0.6 -33.55 1.25 -29.25" fill="#333333" fill-rule="evenodd" stroke="none"/>
  </g>
</svg>
