<?xml version="1.0" encoding="UTF-8" standalone="no"?>
<svg xmlns:xlink="http://www.w3.org/1999/xlink" height="33.35px" width="59.15px" xmlns="http://www.w3.org/2000/svg">
  <g transform="matrix(1.0, 0.0, 0.0, 1.0, 29.6, 16.65)">
    <path d="M-23.05 -7.95 L-22.75 -8.1 -22.35 -8.25 -22.1 -8.3 -21.45 -8.5 -21.05 -8.6 -18.95 -8.85 -18.8 -9.05 -18.7 -9.25 -18.5 -9.35 -18.35 -9.4 -18.0 -9.45 -18.0 -9.5 -15.25 -9.55 -13.5 -9.3 -10.75 -9.2 -9.45 -8.9 Q-10.45 -9.1 -8.65 -8.35 -6.7 -7.5 -6.1 -6.9 L-6.1 -5.65 -10.2 -5.55 -10.3 -5.35 -10.55 -5.2 -10.9 -5.05 -11.3 -4.95 -11.5 -4.8 -11.65 -4.75 -12.0 -4.7 -12.5 -4.55 -14.2 -3.7 -17.2 -2.4 Q-21.85 -0.65 -26.75 -1.35 L-27.0 -1.55 -27.2 -1.75 -27.3 -1.95 -27.45 -2.1 -27.5 -2.3 -27.5 -2.5 -27.5 -2.7 -27.5 -2.8 -27.55 -2.85 -27.8 -2.9 -27.9 -2.9 -28.05 -3.0 -28.15 -3.1 -28.2 -3.15 -28.2 -3.25 -28.25 -3.3 -28.25 -3.35 -28.25 -3.45 -28.25 -3.65 -28.25 -3.8 -28.25 -3.9 -28.25 -4.0 -28.2 -4.15 -28.15 -4.3 -28.15 -4.35 -28.1 -4.45 -28.0 -4.55 -27.95 -4.6 -27.95 -4.75 -27.9 -4.8 -27.5 -5.35 Q-27.2 -5.8 -26.7 -5.9 L-26.65 -5.9 -26.45 -6.1 -26.0 -6.45 -25.75 -6.6 -25.05 -7.0 -24.5 -7.35 -24.1 -7.5 -23.85 -7.55 -23.65 -7.65 -23.3 -7.75 -23.05 -7.95" fill="#a38d88" fill-rule="evenodd" stroke="none"/>
    <path d="M12.4 -13.75 L12.9 -13.85 14.0 -14.4 15.45 -14.95 15.65 -15.0 16.85 -15.15 16.9 -15.15 16.9 -15.2 17.0 -15.2 17.05 -15.25 17.1 -15.25 17.2 -15.3 17.25 -15.3 17.25 -15.35 17.35 -15.45 17.4 -15.5 17.5 -15.55 17.6 -15.55 18.25 -15.55 19.25 -15.55 19.3 -15.55 21.95 -15.5 22.45 -15.45 24.55 -15.0 25.2 -14.6 25.3 -14.55 25.4 -14.5 25.45 -14.45 25.55 -14.35 25.6 -14.3 25.7 -14.25 25.8 -14.15 25.8 -14.1 25.85 -14.1 25.85 -14.05 26.0 -14.05 27.0 -13.8 27.5 -13.7 27.75 -13.5 27.85 -13.3 27.95 -13.15 28.05 -12.95 28.05 -12.75 28.05 -12.55 28.05 -12.35 28.05 -12.2 28.05 -11.8 28.05 -11.6 28.0 -11.45 27.9 -11.25 27.8 -11.05 27.65 -10.85 27.45 -10.7 27.25 -10.55 27.1 -10.5 26.65 -10.35 26.25 -10.2 26.0 -10.05 25.9 -10.0 25.6 -9.95 Q24.3 -9.8 23.0 -9.95 L22.85 -9.95 20.05 -9.9 18.6 -10.0 16.9 -10.2 16.8 -10.25 14.05 -10.25 13.5 -10.15 11.15 -10.0 11.0 -9.9 10.9 -9.8 10.5 -9.75 9.75 -9.6 9.5 -9.45 9.2 -9.25 8.8 -9.05 8.6 -8.9 8.45 -8.75 8.3 -8.7 8.0 -8.6 7.55 -8.75 7.3 -8.95 7.2 -9.15 7.15 -9.3 7.15 -9.5 7.15 -9.7 7.2 -9.85 7.25 -10.05 7.4 -10.25 7.55 -10.45 7.75 -10.65 7.8 -10.8 7.85 -11.0 7.95 -11.2 8.15 -11.3 8.2 -11.35 8.6 -11.5 9.05 -11.7 9.3 -11.85 9.65 -12.05 9.95 -12.25 10.5 -12.45 10.8 -12.6 11.15 -12.8 11.3 -13.0 11.45 -13.2 11.65 -13.35 12.0 -13.55 12.25 -13.7 12.4 -13.75" fill="#a38d88" fill-rule="evenodd" stroke="none"/>
    <path d="M7.8 -9.45 Q10.0 -7.9 11.7 -5.7 L14.4 -1.75 Q14.9 -0.9 14.8 0.15 16.3 3.5 15.6 7.45 15.25 9.35 14.05 11.05 L12.15 13.05 Q10.0 14.75 7.3 15.1 L3.1 15.4 -2.65 14.6 Q-5.25 13.9 -6.75 11.55 -7.8 9.85 -8.25 8.1 L-8.65 6.4 -8.9 3.05 -8.65 -0.25 Q-8.55 -1.0 -8.1 -1.5 L-8.3 -2.3 -6.65 -7.2 -6.3 -7.75 -4.5 -9.3 -3.55 -9.8 Q-0.85 -11.75 2.25 -11.7 L5.05 -11.4 6.6 -10.75 Q7.25 -10.45 7.6 -9.8 L7.8 -9.45" fill="#a38d88" fill-rule="evenodd" stroke="none"/>
    <path d="M4.3 7.55 L9.75 7.7 10.0 8.05 10.9 8.45 Q13.7 11.05 11.3 13.55 9.2 15.7 6.15 15.45 L1.45 14.4 Q0.1 12.5 0.2 10.25 1.75 8.1 4.3 7.55" fill="#ffcc33" fill-rule="evenodd" stroke="none"/>
    <path d="M-20.5 -6.7 L-19.8 -6.8 -19.5 -7.0 -19.2 -7.15 Q-19.05 -7.25 -18.85 -7.3 L-18.5 -7.35 -16.3 -7.5 -15.8 -7.7 -15.25 -7.8 -14.25 -7.8 -13.5 -7.8 -13.0 -7.8 -12.5 -7.7 -12.25 -7.55 -11.75 -7.5 -11.35 -7.45 -10.5 -7.55 -10.0 -7.6 -8.25 -7.55 -7.25 -7.4 -6.85 -7.3 -6.7 -7.1 -6.6 -6.95 -6.6 -6.75 -6.6 -6.55 -6.7 -6.35 -6.85 -6.2 -7.25 -6.1 -8.25 -5.95 -10.05 -5.8 -10.45 -5.7 -10.75 -5.55 -10.85 -5.35 -11.15 -5.2 -11.4 -5.05 -11.75 -4.95 -12.6 -4.75 -13.05 -4.6 -13.2 -4.45 -13.3 -4.25 -13.4 -4.05 -13.5 -3.85 -13.7 -3.7 -13.8 -3.5 -14.05 -3.3 -14.5 -3.1 -15.55 -2.35 -17.2 -1.45 Q-17.8 -1.1 -18.5 -0.9 L-21.5 -0.6 -22.05 -0.75 -22.5 -0.85 -23.05 -1.0 -23.35 -1.2 -23.55 -1.4 -23.7 -1.55 -23.8 -1.75 -23.95 -1.95 -24.05 -2.15 -24.1 -2.3 -24.15 -2.5 -24.2 -2.7 -24.2 -2.85 -24.2 -3.05 -24.2 -3.25 -24.1 -3.45 -24.05 -3.6 -24.0 -3.8 -23.9 -4.0 -23.8 -4.2 -23.65 -4.4 -23.5 -4.55 -23.4 -4.75 -23.3 -4.95 -23.15 -5.15 -23.0 -5.3 -22.6 -5.65 -22.05 -6.05 -21.7 -6.25 -21.3 -6.45 -21.05 -6.55 -20.85 -6.6 -20.5 -6.7" fill="#663333" fill-opacity="0.2" fill-rule="evenodd" stroke="none"/>
    <path d="M-20.45 -7.6 L-19.85 -7.8 -19.35 -7.95 -19.1 -8.0 -18.75 -8.05 -17.0 -8.05 -16.5 -7.9 -16.05 -7.75 -15.75 -7.55 -15.55 -7.35 -15.4 -7.3 -14.95 -7.1 -14.65 -6.95 -14.35 -6.75 -14.25 -6.55 -14.15 -6.4 -14.05 -6.2 -14.05 -6.0 -14.0 -5.8 -14.0 -5.6 -14.0 -5.45 -14.05 -5.25 -14.05 -5.05 -14.15 -4.85 -14.25 -4.7 -14.35 -4.5 -14.6 -4.3 -14.8 -4.15 -15.25 -3.75 -15.8 -3.4 -16.1 -3.2 -16.3 -3.0 -16.5 -2.8 -16.7 -2.6 -16.85 -2.45 -18.4 -1.8 Q-19.95 -1.1 -21.6 -0.7 L-24.55 -0.5 -24.85 -0.35 -25.25 -0.35 -25.75 -0.3 -26.3 -0.45 -26.6 -0.6 -26.95 -0.8 -27.15 -1.0 -27.5 -1.4 -27.55 -1.55 -27.6 -1.75 -27.6 -1.95 -27.6 -2.1 -27.6 -2.3 -27.55 -2.5 -27.35 -2.85 -27.05 -3.4 -26.75 -3.8 -26.1 -4.35 -26.05 -4.55 -25.95 -4.75 -25.75 -4.95 -25.35 -5.3 -25.0 -5.7 -24.7 -5.9 -23.55 -6.6 -22.4 -7.0 -21.2 -7.25 -20.8 -7.45 -20.45 -7.6" fill="#663333" fill-opacity="0.2" fill-rule="evenodd" stroke="none"/>
    <path d="M11.7 -12.7 L12.05 -12.85 12.4 -13.0 12.75 -13.05 13.2 -13.2 13.75 -13.35 19.25 -13.8 22.75 -13.8 23.3 -13.75 26.0 -13.5 26.5 -13.45 26.8 -13.25 27.0 -13.05 27.15 -12.85 27.2 -12.7 27.25 -12.5 27.3 -12.3 27.3 -12.1 27.3 -11.95 27.3 -11.75 27.3 -11.55 27.3 -11.4 27.25 -11.2 27.2 -11.0 27.05 -10.8 26.95 -10.65 26.75 -10.45 26.55 -10.3 26.4 -10.25 26.0 -10.2 24.75 -10.05 24.2 -9.85 23.9 -9.75 23.5 -9.7 23.0 -9.55 22.5 -9.45 19.5 -9.45 18.95 -9.55 18.75 -9.7 18.5 -9.75 17.95 -9.85 17.7 -10.05 17.5 -10.25 17.35 -10.3 16.25 -10.35 15.95 -10.3 11.25 -9.6 10.9 -9.45 10.5 -9.25 10.25 -9.05 9.95 -8.85 9.5 -8.75 9.25 -8.75 8.75 -8.85 8.5 -9.05 8.4 -9.25 8.3 -9.45 8.25 -9.65 8.25 -9.8 8.25 -10.0 8.3 -10.2 8.4 -10.35 8.4 -10.55 8.4 -10.75 8.45 -10.95 8.55 -11.1 8.75 -11.3 9.0 -11.5 9.5 -11.65 10.0 -11.8 10.5 -11.95 10.85 -12.15 11.2 -12.3 11.4 -12.5 11.7 -12.7" fill="#663333" fill-opacity="0.2" fill-rule="evenodd" stroke="none"/>
    <path d="M16.65 -12.7 L16.7 -12.85 16.75 -13.05 16.85 -13.25 17.0 -13.45 17.2 -13.6 17.4 -13.8 17.7 -14.0 18.3 -14.2 18.65 -14.3 19.0 -14.35 20.5 -14.4 20.5 -14.45 21.25 -14.45 23.3 -14.1 25.3 -13.7 27.5 -12.8 27.7 -12.6 27.8 -12.45 27.95 -12.25 28.05 -12.05 28.15 -11.85 28.15 -11.7 28.2 -11.5 28.15 -11.3 28.15 -11.1 28.05 -10.95 27.95 -10.75 27.8 -10.55 27.65 -10.35 27.25 -10.2 26.7 -10.0 26.55 -9.9 26.4 -9.8 26.0 -9.7 25.5 -9.55 19.0 -9.9 17.45 -10.05 17.15 -10.25 16.95 -10.45 16.85 -10.65 16.75 -10.8 16.7 -11.0 16.7 -11.2 16.65 -11.35 16.65 -11.55 16.65 -11.75 16.65 -12.1 16.65 -12.3 16.65 -12.5 16.65 -12.7" fill="#663333" fill-opacity="0.2" fill-rule="evenodd" stroke="none"/>
    <path d="M3.8 -2.6 L3.9 -2.45 4.0 -2.25 4.0 -2.1 4.0 -1.95 4.05 -1.75 4.15 -1.55 4.2 -1.35 4.3 -1.2 4.45 -1.0 4.65 -0.8 4.8 -0.6 5.2 -0.45 7.0 -0.25 7.7 -0.35 7.8 -0.45 8.35 -0.8 8.8 -0.95 9.35 -1.35 9.55 -1.5 9.75 -1.7 9.9 -1.85 10.0 -2.05 10.05 -2.25 10.15 -2.45 10.2 -2.6 10.25 -2.8 10.25 -3.35 10.5 -3.25 10.65 -3.2 11.0 -3.15 11.35 -3.1 11.75 -3.0 12.05 -2.8 12.25 -2.6 12.6 -2.25 12.95 -1.85 13.4 -1.3 13.65 -0.95 13.75 -0.75 13.8 -0.55 13.9 -0.35 13.95 -0.2 13.95 0.0 13.95 0.2 14.0 0.35 14.1 0.55 14.2 0.75 14.3 0.95 14.45 1.3 14.7 2.05 14.8 3.0 14.8 4.15 14.8 5.25 14.75 5.45 14.7 5.8 14.55 6.2 14.4 6.75 14.3 7.15 14.15 7.7 14.0 7.9 13.8 8.25 13.6 8.6 13.1 9.2 12.75 9.55 12.55 9.75 12.25 9.95 12.0 10.1 11.95 10.15 11.9 9.95 11.8 9.75 11.75 9.55 11.6 9.4 11.3 9.0 11.1 8.8 10.85 8.65 10.55 8.45 10.15 8.3 9.8 8.25 9.65 8.15 9.3 7.95 8.5 7.85 5.25 7.75 5.25 7.8 4.9 7.85 4.55 7.9 4.2 8.05 3.2 8.45 2.55 8.75 2.45 8.85 2.3 8.55 2.25 8.4 2.15 8.0 2.0 7.6 1.85 7.05 1.8 6.7 1.65 6.15 1.65 5.4 1.6 4.05 1.75 2.0 2.0 0.85 2.0 0.8 2.2 0.6 2.3 0.45 2.45 0.25 2.55 0.05 2.65 -0.1 2.7 -0.3 2.75 -0.5 2.9 -0.85 2.95 -1.05 3.0 -1.25 3.0 -1.45 3.0 -1.6 3.0 -1.8 3.0 -1.85 3.2 -2.15 3.6 -2.7 3.7 -2.75 3.8 -2.6" fill="#663333" fill-opacity="0.2" fill-rule="evenodd" stroke="none"/>
    <path d="M3.8 -2.6 L3.9 -2.45 4.0 -2.25 4.0 -2.1 4.0 -1.95 4.05 -1.75 4.15 -1.55 4.2 -1.35 4.3 -1.2 4.45 -1.0 4.65 -0.8 4.8 -0.6 5.2 -0.45 7.0 -0.25 7.7 -0.35 7.8 -0.45 8.25 -0.7 9.15 -0.1 9.25 0.05 9.4 0.25 9.5 0.45 9.65 0.65 9.75 0.8 9.95 1.0 10.0 1.2 10.1 1.4 10.2 1.55 10.25 2.15 10.25 2.9 10.25 4.2 10.2 5.1 9.8 6.65 9.7 6.8 9.65 7.0 9.55 7.2 9.5 7.4 9.4 7.55 9.3 7.75 9.2 7.95 8.5 7.85 5.25 7.75 5.25 7.8 4.9 7.85 4.55 7.9 4.2 8.05 3.2 8.45 2.55 8.75 2.25 8.95 2.05 9.15 1.7 9.5 1.15 10.05 0.8 10.45 0.7 10.65 0.65 10.8 0.55 11.0 0.5 11.2 0.5 11.4 0.5 11.55 0.5 11.75 0.5 11.95 0.5 12.3 0.5 12.5 0.5 12.7 0.5 12.9 0.55 13.05 0.65 13.25 0.7 13.45 0.8 13.6 Q-1.3 13.45 -3.4 12.4 L-5.25 11.25 -5.35 11.05 -5.65 10.7 -5.8 10.5 -5.95 10.3 -6.25 9.95 -6.6 9.4 -6.7 9.2 -6.75 9.0 -6.8 8.8 -6.95 8.65 -7.1 8.05 -7.25 7.5 -7.4 6.2 -7.45 5.25 -7.45 4.15 -7.45 3.95 -7.3 3.55 -7.2 3.2 -7.0 2.65 -6.7 1.7 -6.45 0.95 -6.25 0.4 -5.65 -0.55 -4.5 -1.8 -4.5 -1.7 -4.45 -1.5 -4.35 -1.3 -4.3 -1.1 -4.2 -0.95 -3.85 -0.55 -3.7 -0.4 -3.45 -0.2 -3.3 0.0 -3.1 0.2 -2.95 0.4 -2.55 0.55 -2.1 0.7 -2.05 0.75 -1.95 0.9 -1.1 1.1 0.75 1.2 1.45 1.15 1.7 1.0 2.0 0.8 2.2 0.6 2.3 0.45 2.45 0.25 2.55 0.05 2.65 -0.1 2.7 -0.3 2.75 -0.5 2.9 -0.85 2.95 -1.05 3.0 -1.25 3.0 -1.45 3.0 -1.6 3.0 -1.8 3.0 -2.0 3.0 -2.35 3.0 -2.55 3.0 -2.75 2.95 -2.95 2.9 -3.05 3.1 -3.05 3.5 -2.95 3.65 -2.8 3.8 -2.6" fill="#663333" fill-opacity="0.2" fill-rule="evenodd" stroke="none"/>
    <path d="M11.25 9.0 L11.65 9.2 11.8 9.4 11.95 9.55 12.0 9.75 12.05 9.95 12.15 10.15 12.15 10.3 12.15 10.5 12.2 10.7 12.25 10.85 12.4 11.05 12.4 11.25 12.4 11.45 12.45 11.8 12.45 12.55 12.45 13.15 12.4 13.3 12.3 13.5 12.25 13.7 12.15 13.9 12.0 14.05 11.8 14.25 11.75 14.45 11.7 14.65 11.65 14.8 11.5 15.0 11.4 15.2 11.25 15.4 10.95 15.55 10.65 15.7 10.25 15.75 9.7 15.65 9.3 15.45 9.15 15.25 8.95 15.05 8.75 14.85 8.65 14.7 8.55 14.5 8.5 14.3 8.5 14.15 8.5 13.95 8.5 13.75 8.45 13.55 8.4 13.4 8.3 13.2 8.25 13.0 8.15 12.85 7.7 12.6 7.45 12.5 6.95 12.4 6.55 12.2 6.25 12.05 6.05 12.25 5.95 12.45 5.9 12.65 5.85 12.8 5.85 13.0 5.9 13.2 5.85 13.35 5.8 13.55 5.75 13.75 5.75 13.95 5.75 14.15 5.7 14.3 5.65 14.5 5.55 14.7 5.5 14.9 5.4 15.05 5.1 15.25 4.9 15.4 4.5 15.45 4.0 15.3 3.7 15.15 3.5 14.95 3.4 14.75 3.4 14.65 3.4 14.6 3.05 14.65 2.95 14.8 2.75 14.95 2.6 15.0 2.25 15.05 1.75 14.95 1.5 14.75 1.35 14.55 1.25 14.4 1.2 14.2 1.2 14.0 1.2 13.8 1.2 13.65 1.25 13.45 2.0 12.3 3.65 10.4 4.3 9.9 4.65 9.75 5.05 9.65 5.4 9.45 5.55 9.25 5.8 9.05 6.15 8.95 6.5 8.9 10.75 8.9 11.25 9.0" fill="#663333" fill-opacity="0.2" fill-rule="evenodd" stroke="none"/>
    <path d="M10.8 11.05 L11.0 11.25 11.1 11.45 11.2 11.65 11.25 11.8 11.25 12.2 11.2 12.95 11.15 13.85 11.15 14.05 11.05 14.25 10.95 14.45 10.8 14.65 10.5 14.8 10.0 14.95 9.5 14.8 9.2 14.65 9.0 14.45 8.9 14.25 8.85 14.05 8.8 13.9 8.8 13.7 8.8 13.5 8.75 13.4 8.25 13.2 7.75 13.05 7.4 12.9 7.2 12.7 7.05 12.5 6.95 12.3 6.95 12.15 6.95 11.95 6.95 11.75 7.0 11.55 7.15 11.4 7.3 11.2 7.65 11.0 7.9 10.9 8.25 10.85 9.5 10.8 9.5 10.75 10.0 10.75 10.5 10.9 10.8 11.05" fill="#663333" fill-opacity="0.2" fill-rule="evenodd" stroke="none"/>
    <path d="M3.35 -4.05 L3.7 -3.85 3.9 -3.7 4.05 -3.5 4.25 -3.3 4.45 -3.1 4.5 -2.95 4.55 -2.75 4.65 -2.55 4.65 -2.35 4.65 -2.2 4.65 -2.0 4.65 -1.8 4.65 -1.45 4.65 -1.05 4.55 -0.9 4.45 -0.7 4.3 -0.5 4.1 -0.3 3.75 0.0 3.6 0.05 3.25 0.2 3.0 0.3 2.5 0.4 1.0 0.35 0.5 0.25 0.2 0.05 -0.1 -0.1 -0.3 -0.3 -0.45 -0.5 -0.55 -0.7 -0.6 -0.85 -0.6 -1.05 -0.7 -1.25 -0.7 -1.45 -0.7 -1.6 -0.7 -1.8 -0.65 -2.0 -0.6 -2.2 -0.55 -2.35 -0.45 -2.55 -0.4 -2.75 -0.35 -2.95 -0.3 -3.1 -0.2 -3.3 -0.1 -3.5 0.0 -3.7 0.2 -3.85 0.5 -4.05 1.0 -4.2 1.4 -4.25 1.75 -4.3 2.25 -4.35 2.5 -4.35 3.0 -4.25 3.35 -4.05" fill="#663333" fill-opacity="0.2" fill-rule="evenodd" stroke="none"/>
    <path d="M3.25 -4.05 L3.65 -3.85 3.8 -3.7 3.95 -3.5 4.05 -3.3 4.15 -3.1 4.15 -2.95 4.2 -2.75 4.15 -2.4 4.1 -1.6 4.15 -0.85 4.05 -0.7 4.0 -0.5 3.95 -0.3 3.9 -0.1 3.75 0.05 3.7 0.25 3.6 0.45 3.5 0.65 3.3 0.8 3.2 1.0 2.95 1.2 2.45 1.4 1.95 1.55 1.0 1.9 -0.25 1.9 -0.8 1.75 -1.1 1.55 -1.45 1.35 -1.7 1.2 -1.8 1.0 -1.95 0.8 -2.0 0.65 -2.05 0.45 -2.05 0.25 -2.15 0.05 -2.25 -0.1 -2.35 -0.3 -2.4 -0.5 -2.45 -0.7 -2.45 -0.85 -2.45 -1.25 -2.45 -1.6 -2.45 -1.8 -2.35 -2.0 -2.25 -2.2 -2.15 -2.35 -1.9 -2.75 -1.75 -2.95 -1.65 -3.1 -1.55 -3.3 -1.45 -3.5 -1.25 -3.7 -0.35 -4.0 2.25 -4.2 2.75 -4.2 3.25 -4.05" fill="#663333" fill-opacity="0.2" fill-rule="evenodd" stroke="none"/>
    <path d="M5.05 -1.85 L5.15 -2.05 5.25 -2.25 5.45 -2.45 5.8 -2.8 6.25 -2.95 6.65 -3.05 6.9 -3.25 7.15 -3.35 7.5 -3.4 7.5 -3.45 8.5 -3.45 9.0 -3.3 9.3 -3.1 9.45 -2.95 9.55 -2.75 9.65 -2.55 9.65 -2.35 9.7 -2.2 9.7 -2.0 9.7 -1.6 9.7 -1.45 9.65 -1.25 9.55 -1.05 9.5 -0.85 9.35 -0.7 9.2 -0.5 8.8 -0.1 8.15 0.4 7.75 0.45 7.0 0.35 6.5 0.25 6.25 0.05 6.05 -0.1 5.75 -0.25 5.3 -0.35 5.15 -0.55 5.0 -0.75 5.0 -0.95 5.0 -1.1 5.05 -1.3 5.05 -1.7 5.05 -1.85" fill="#663333" fill-opacity="0.2" fill-rule="evenodd" stroke="none"/>
    <path d="M10.0 -5.6 L10.5 -5.55 11.0 -5.5 11.4 -5.35 11.55 -5.2 11.7 -5.0 11.75 -4.8 11.7 -4.65 11.65 -4.45 11.55 -4.25 11.3 -4.05 11.3 -3.7 11.3 -3.3 11.3 -2.55 11.3 -1.8 11.25 -1.45 11.2 -1.25 11.05 -1.05 10.95 -0.85 10.8 -0.7 10.55 -0.5 10.25 -0.3 9.75 -0.2 8.0 -0.3 7.25 -0.45 6.95 -0.6 6.75 -0.8 6.65 -1.0 6.6 -1.2 6.55 -1.35 6.45 -1.55 6.15 -1.75 5.95 -1.95 5.85 -2.15 5.75 -2.3 5.7 -2.5 5.7 -2.7 5.7 -2.85 5.7 -3.05 5.7 -3.45 5.7 -3.8 5.75 -4.0 5.9 -4.2 6.0 -4.35 6.2 -4.55 6.4 -4.75 6.7 -4.95 7.25 -5.05 8.55 -5.2 8.8 -5.35 9.05 -5.5 9.2 -5.55 9.5 -5.6 10.0 -5.6" fill="#663333" fill-opacity="0.2" fill-rule="evenodd" stroke="none"/>
    <path d="M-26.05 -7.7 Q-23.8 -8.75 -21.4 -9.0 L-18.1 -9.4 -17.0 -9.55 -15.75 -9.5 -14.2 -9.4 -12.2 -9.05 -11.6 -8.95 -11.35 -8.75 -11.2 -8.55 -11.2 -8.35 -11.35 -8.4 -11.6 -8.5 -11.75 -8.5 -12.2 -8.45 -18.1 -7.75 -22.95 -6.9 Q-25.25 -6.3 -27.35 -5.1 L-27.6 -4.95 -27.85 -4.75 -28.05 -4.55 -28.35 -4.35 -28.75 -4.25 -29.2 -4.2 -29.3 -4.0 -29.6 -3.95 -29.55 -4.1 -29.45 -4.3 -29.4 -4.5 -29.45 -4.7 -29.5 -4.9 -29.5 -5.05 -29.45 -5.25 -29.35 -5.45 -29.2 -5.6 -28.95 -5.8 -28.75 -6.0 -28.5 -6.2 -28.2 -6.55 -26.05 -7.7" fill="#ffffff" fill-opacity="0.101960786" fill-rule="evenodd" stroke="none"/>
    <path d="M-3.7 -9.7 L-3.55 -9.5 -3.5 -9.3 -3.5 -9.1 -3.55 -8.95 -3.6 -8.75 -3.7 -8.6 -3.75 -8.6 -4.05 -8.5 -4.3 -8.1 -4.65 -7.55 -4.85 -7.2 -4.95 -7.0 -5.0 -6.8 -5.1 -6.6 -5.2 -6.45 -5.25 -6.25 -5.35 -6.05 -5.45 -5.85 -5.5 -5.7 -5.55 -5.5 -5.7 -5.3 -5.9 -4.0 -6.1 -2.7 -6.35 -1.35 -6.35 -1.2 -6.35 -1.0 -6.3 -0.8 -6.35 -0.45 -6.4 0.15 -6.45 0.7 -6.5 1.05 -6.35 2.95 -6.3 4.8 -6.2 6.7 -6.15 6.85 -6.05 7.05 -6.0 7.25 -5.85 7.65 -5.75 8.0 -5.6 8.4 -4.65 9.95 -3.55 11.2 Q-3.25 11.4 -3.2 11.75 L-3.1 11.95 -2.85 12.3 -2.45 12.7 -2.55 12.85 -2.75 13.0 -3.2 12.85 -3.55 12.75 -4.0 12.9 -4.45 12.75 -4.85 12.35 -5.5 11.85 Q-5.7 11.7 -5.85 11.65 L-6.65 10.7 -7.3 9.75 -7.6 9.2 -7.7 9.0 -7.8 8.65 -7.95 8.25 -8.0 8.05 -8.1 7.9 -8.2 7.7 -8.25 7.5 -8.3 7.3 -8.4 5.25 -8.5 3.2 -8.55 1.3 -8.5 1.15 -8.45 0.95 -8.35 0.75 -8.1 -1.3 -7.65 -3.35 -7.3 -5.45 -7.25 -5.6 -7.15 -5.8 -7.05 -6.0 -6.95 -6.2 -6.85 -6.35 -6.8 -6.55 -6.7 -6.75 -6.6 -6.95 -6.55 -7.1 -6.1 -7.9 -5.45 -8.85 -4.85 -9.5 -4.75 -9.55 -4.35 -9.65 -4.0 -9.8 -3.7 -9.7" fill="#ffffff" fill-opacity="0.101960786" fill-rule="evenodd" stroke="none"/>
    <path d="M1.8 -5.6 L1.95 -5.45 2.0 -5.25 1.95 -5.05 1.8 -4.85 1.5 -4.75 1.0 -4.65 0.3 -4.5 -0.15 -4.3 -0.7 -4.1 -1.0 -3.95 -1.2 -3.75 -1.45 -3.55 -1.7 -3.4 -2.0 -3.2 -2.35 -2.8 -3.3 -1.9 -3.95 -1.15 -4.1 -0.95 -4.55 -0.75 -4.75 -0.6 -4.95 -0.75 -4.95 -0.95 -5.05 -1.1 -5.15 -1.3 -5.2 -1.5 -5.15 -1.7 -5.1 -1.85 -5.0 -2.05 -4.9 -2.25 -4.7 -2.6 -3.4 -3.95 -2.2 -4.9 -0.2 -5.8 0.25 -5.9 0.25 -5.95 1.0 -5.85 1.5 -5.75 1.8 -5.6" fill="#ffffff" fill-opacity="0.101960786" fill-rule="evenodd" stroke="none"/>
    <path d="M15.7 -13.2 L12.8 -11.85 12.6 -11.7 12.4 -11.5 12.15 -11.3 11.6 -10.95 11.3 -10.75 11.2 -10.55 11.05 -10.35 10.95 -10.2 10.9 -10.0 10.75 -9.9 10.5 -9.8 10.2 -9.95 10.1 -10.15 10.05 -10.3 10.15 -10.5 10.2 -10.7 10.3 -10.85 10.45 -11.05 10.55 -11.25 10.55 -11.45 10.55 -11.6 10.65 -11.8 10.75 -12.0 12.25 -13.05 14.6 -14.3 Q16.2 -14.95 17.95 -15.25 L18.45 -15.35 18.75 -15.4 18.75 -15.45 19.75 -15.35 20.5 -15.3 21.25 -15.25 21.55 -15.1 21.8 -14.9 21.9 -14.75 21.8 -14.6 21.55 -14.35 21.25 -14.25 18.05 -13.9 15.7 -13.2" fill="#ffffff" fill-opacity="0.101960786" fill-rule="evenodd" stroke="none"/>
    <path d="M4.45 7.65 L5.0 7.55 5.0 7.5 5.5 7.65 5.9 7.8 6.0 8.0 6.1 8.2 6.2 8.4 6.15 8.55 6.15 8.75 6.05 8.95 5.95 9.15 5.7 9.3 Q4.95 9.55 4.3 9.9 L3.05 10.65 2.9 10.8 2.7 11.0 2.55 11.2 2.45 11.4 2.2 11.55 1.75 11.7 1.3 11.55 1.05 11.35 0.9 11.15 0.8 11.0 0.8 10.8 0.85 10.65 0.95 10.25 1.05 9.9 1.2 9.7 1.35 9.5 1.7 9.15 1.9 8.95 2.55 8.55 Q3.4 7.95 4.45 7.65" fill="#ffffff" fill-opacity="0.101960786" fill-rule="evenodd" stroke="none"/>
    <path d="M3.0 8.55 L3.15 8.5 3.65 8.4 3.9 8.25 4.4 8.15 4.65 8.0 4.95 7.95 5.9 7.8 7.25 7.5 8.25 7.5 8.7 7.65 8.95 7.8 9.05 8.0 9.25 8.2 9.3 8.4 9.4 8.55 9.4 8.75 9.4 8.95 9.3 9.15 9.2 9.3 9.0 9.5 8.8 9.65 8.5 9.7 8.2 9.6 8.05 9.55 7.25 9.65 6.0 9.9 5.5 10.0 5.25 10.2 4.65 10.4 4.2 10.6 3.75 10.9 3.6 10.95 3.3 11.0 3.0 11.05 2.55 10.95 2.4 10.75 2.25 10.55 2.2 10.35 2.2 10.2 2.2 10.0 2.2 9.8 2.2 9.65 2.2 9.45 2.3 9.25 2.65 8.9 3.0 8.55" fill="#ffffff" fill-opacity="0.101960786" fill-rule="evenodd" stroke="none"/>
    <path d="M22.25 -10.1 Q23.3 -10.15 23.25 -11.7 22.2 -10.8 22.25 -10.1 M27.5 -10.0 Q26.5 -8.7 17.45 -9.15 12.2 -9.9 9.5 -9.15 9.45 -11.2 11.6 -12.35 L10.9 -10.85 14.95 -14.1 Q14.55 -12.5 13.45 -11.35 15.45 -13.3 17.8 -14.95 17.35 -12.5 15.5 -11.25 16.65 -11.5 17.95 -12.9 18.9 -14.25 21.0 -14.65 20.55 -12.9 19.15 -11.85 21.35 -13.1 23.0 -14.8 20.2 -15.85 15.7 -14.75 11.25 -13.5 7.9 -10.25 8.3 -9.35 9.2 -8.55 10.0 -8.5 11.9 -5.7 L15.15 -0.3 Q16.5 2.45 16.4 6.0 16.2 8.85 14.85 11.05 12.4 13.8 12.35 13.4 10.7 15.75 7.65 16.4 4.6 17.05 1.1 16.3 -2.5 16.4 -6.05 14.05 -7.55 13.0 -8.2 11.6 -9.6 9.25 -9.6 5.9 -9.3 4.25 -9.35 2.15 L-8.75 -0.75 Q-8.15 -4.5 -7.15 -5.1 -9.25 1.3 -7.6 8.65 -6.8 10.75 -5.65 11.65 -4.85 11.9 -4.7 12.75 -2.8 14.0 -0.8 14.1 -1.1 12.0 -0.75 11.35 -3.65 12.15 -3.95 10.95 -3.95 9.35 -3.0 8.55 L-4.85 8.6 Q-5.85 9.0 -6.8 8.6 -6.2 5.5 -2.8 4.75 -3.45 4.45 -4.5 5.05 L-6.5 5.1 Q-6.45 3.95 -5.5 3.6 -7.45 3.5 -7.3 3.15 -6.55 2.15 -5.35 1.5 -4.95 1.8 -5.6 2.15 L-3.25 2.25 Q-4.45 1.5 -5.2 -0.25 -5.6 -1.9 -5.5 -3.65 -4.15 -5.95 -1.8 -7.45 L-5.2 -6.55 Q-3.95 -9.25 -0.6 -10.15 0.75 -10.2 1.65 -10.65 1.6 -9.9 0.55 -9.95 L-1.05 -9.0 Q2.4 -10.35 5.45 -10.35 1.4 -12.1 -3.5 -9.9 L-6.6 -7.15 Q-5.8 -9.2 -4.15 -10.45 -1.4 -12.8 2.05 -12.5 5.5 -12.2 7.45 -10.55 10.35 -14.15 14.1 -15.6 17.8 -17.0 22.0 -16.5 L26.1 -15.7 28.55 -14.15 Q30.4 -13.05 28.8 -11.3 27.95 -10.75 27.5 -10.0 M26.25 -10.45 Q27.4 -11.1 27.85 -12.3 27.0 -13.4 25.7 -13.9 L25.2 -12.4 Q26.75 -12.75 26.35 -11.8 25.9 -10.8 26.25 -10.45 M6.35 -9.95 Q5.55 -10.45 5.2 -9.55 6.05 -9.45 6.35 -9.95 M6.75 -8.5 Q7.6 -8.35 7.7 -7.4 L8.95 -7.25 7.9 -8.65 Q7.3 -9.45 6.75 -8.5 M6.35 -6.7 Q4.0 -6.75 3.05 -5.0 L3.4 -4.2 6.4 -4.9 9.15 -5.0 Q8.8 -6.7 6.35 -6.7 M7.0 -3.7 Q5.45 -3.85 4.05 -3.05 4.8 -1.6 4.45 -0.5 9.15 0.6 9.45 -3.65 L7.0 -3.7 M0.95 -5.35 Q-1.2 -6.25 -2.95 -4.7 -4.7 -3.2 -4.1 -0.85 -3.25 2.2 1.75 0.6 3.7 -0.75 2.9 -2.95 -0.3 -2.75 -3.4 -1.45 -2.95 -2.6 -1.1 -3.3 0.75 -4.1 2.2 -4.0 2.3 -4.55 0.95 -5.35 M10.6 -1.35 Q11.95 -1.65 12.35 -0.9 11.55 0.1 8.75 0.9 L13.05 0.8 Q12.9 1.7 12.0 2.05 L9.05 2.55 Q6.8 2.95 4.7 3.5 L1.5 4.4 -1.0 5.45 Q-1.4 5.95 -2.4 5.9 -2.85 6.8 -2.1 6.15 L0.45 5.35 1.55 5.25 10.4 3.0 Q12.0 2.4 14.1 2.2 L14.7 2.65 Q14.6 3.65 13.1 4.85 14.0 4.95 13.3 5.7 12.7 6.4 13.1 7.45 12.7 8.0 11.75 8.15 13.0 9.25 12.85 11.35 14.25 10.3 14.35 8.75 15.3 8.0 15.3 6.4 L15.4 3.75 Q14.0 -0.5 11.55 -3.4 11.35 -2.15 10.6 -1.35 M-11.35 -7.5 Q-10.55 -6.8 -11.75 -5.95 -9.65 -6.8 -7.2 -6.4 -7.0 -5.45 -8.05 -5.45 -9.05 -5.55 -9.35 -5.05 -11.15 -5.15 -13.3 -3.95 -15.5 -2.7 -19.15 -1.0 L-22.8 0.15 Q-29.65 1.85 -29.5 -0.4 -29.8 -3.45 -28.45 -5.15 -23.65 -10.2 -14.45 -10.4 -8.15 -9.6 -7.6 -7.5 -13.05 -9.6 -18.15 -8.9 L-22.15 -2.5 Q-20.2 -3.5 -19.2 -5.3 -18.15 -7.15 -16.0 -8.0 -15.7 -6.75 -16.95 -5.55 L-14.25 -7.85 Q-13.4 -7.9 -13.6 -6.75 L-11.35 -7.5 M-17.35 -3.25 Q-16.25 -3.35 -16.0 -4.15 -16.9 -3.9 -17.35 -3.25 M10.55 8.75 Q8.65 7.2 5.7 7.55 2.7 7.85 1.25 9.7 -0.45 11.75 1.2 13.65 1.15 11.6 2.15 11.05 1.7 12.9 2.35 14.15 2.8 14.65 3.85 14.65 3.2 12.7 5.05 11.65 4.45 12.95 5.25 14.2 6.05 15.25 7.8 14.5 8.55 12.8 7.6 11.1 8.5 11.1 8.85 11.85 9.7 14.05 9.05 14.65 10.5 14.35 11.45 12.3 12.4 10.3 10.55 8.75 M6.8 11.75 Q7.15 13.5 5.5 13.55 5.15 11.8 6.8 11.75 M9.25 6.95 Q10.2 5.7 11.65 4.95 7.0 5.75 3.2 7.45 6.4 6.25 9.25 6.95 M-1.2 9.25 Q1.05 9.35 2.05 7.55 -0.05 8.0 -1.2 9.25 M-22.0 -6.55 Q-22.7 -5.3 -23.75 -4.4 L-24.5 -2.6 Q-21.95 -5.35 -19.8 -8.45 -20.9 -8.6 -21.2 -8.05 -20.9 -7.6 -21.4 -6.6 L-22.0 -6.55 M-22.4 -7.9 L-25.4 -6.25 -26.7 -5.3 Q-27.8 -4.55 -27.5 -4.05 -27.1 -4.85 -26.65 -4.4 -27.55 -2.95 -27.35 -2.35 L-24.9 -4.9 Q-23.65 -5.95 -23.1 -6.75 -22.05 -7.45 -22.4 -7.9 M-26.45 -2.45 L-27.0 -1.5 Q-25.75 -1.75 -26.45 -2.45 M-20.4 -1.8 Q-19.05 -2.15 -18.15 -2.85 -20.65 -2.85 -20.4 -1.8" fill="#483e32" fill-rule="evenodd" stroke="none"/>
  </g>
</svg>
