<?xml version="1.0" encoding="UTF-8" standalone="no"?>
<svg xmlns:xlink="http://www.w3.org/1999/xlink" height="23.65px" width="28.7px" xmlns="http://www.w3.org/2000/svg">
  <g transform="matrix(1.0, 0.0, 0.0, 1.0, 14.1, 12.85)">
    <path d="M-9.1 -7.0 L-9.3 -7.05 -9.5 -7.15 -9.8 -7.45 -9.9 -7.55 -9.55 -7.0 -9.3 -6.45 -9.15 -6.35 -8.85 -6.05 -8.55 -5.75 -8.5 -5.7 -8.35 -5.7 -8.45 -5.85 -8.65 -5.95 -8.9 -6.2 -9.0 -6.55 -8.95 -6.75 -8.85 -6.9 -8.75 -7.0 -8.7 -7.05 -8.8 -7.05 -8.95 -7.05 -9.1 -7.0 M-11.0 -5.1 L-10.9 -5.2 -10.95 -5.3 -11.15 -5.35 -11.35 -5.35 -11.4 -5.35 -11.3 -5.1 -11.1 -5.0 -11.0 -5.1 M11.0 2.75 L10.95 2.95 11.25 3.45 11.45 3.55 11.6 3.55 11.8 3.6 11.95 3.55 12.05 3.5 12.15 3.4 12.2 3.2 12.2 2.9 12.15 2.8 11.85 2.4 11.75 2.4 11.55 2.4 11.4 2.4 11.3 2.5 11.2 2.6 11.1 2.65 11.0 2.75 M2.8 -1.6 L3.75 -0.85 5.5 0.4 7.2 1.45 7.8 1.9 8.1 2.1 8.1 1.85 8.15 1.6 8.2 1.45 8.25 1.3 8.35 1.15 8.45 1.05 8.6 1.0 8.7 0.9 8.8 0.75 8.9 0.65 9.2 0.4 9.5 0.3 9.75 0.15 10.1 -0.05 10.25 -0.15 10.35 -0.2 10.5 -0.3 10.6 -0.3 10.75 -0.35 10.9 -0.35 11.1 -0.35 11.25 -0.4 11.45 -0.3 11.65 -0.2 11.85 -0.2 12.0 -0.2 12.2 -0.15 12.4 -0.05 12.7 0.2 12.95 0.4 13.05 0.65 13.1 0.75 13.3 0.95 13.55 1.15 13.95 1.85 14.15 2.2 14.35 2.45 14.55 2.85 14.6 3.2 14.5 3.6 14.4 3.95 14.3 4.1 14.25 4.25 14.15 4.4 14.05 4.55 13.1 5.1 12.1 5.7 11.5 6.05 11.15 6.25 11.1 6.3 11.1 6.35 11.15 6.55 11.15 6.65 11.15 6.85 11.2 7.1 11.35 7.45 11.5 7.7 11.55 7.9 11.6 8.2 11.6 8.5 11.6 9.05 11.55 9.2 11.45 9.4 11.35 9.5 11.25 9.6 11.15 9.7 10.55 10.05 10.05 10.35 9.85 10.55 9.6 10.65 9.45 10.7 9.15 10.8 9.0 10.8 8.8 10.75 8.55 10.55 8.25 10.35 7.95 10.15 7.7 9.9 7.55 9.8 7.3 9.55 6.55 8.65 6.3 8.25 6.15 8.0 6.05 7.85 5.95 7.6 5.95 7.4 6.0 7.2 6.05 7.05 6.1 6.85 6.15 6.65 6.25 6.5 6.35 6.4 6.45 6.25 6.35 5.95 6.35 5.85 6.3 5.85 6.15 5.85 5.95 5.85 3.5 4.6 Q0.35 2.65 -2.55 0.35 -5.25 -1.85 -8.3 -3.5 L-8.4 -3.35 -8.5 -3.2 -8.6 -3.1 -8.7 -3.0 -8.8 -2.9 -8.9 -2.8 -9.05 -2.75 -9.15 -2.65 -9.3 -2.6 -9.35 -2.45 -9.45 -2.35 -9.55 -2.2 -9.7 -2.15 -9.8 -2.05 -9.95 -2.0 -10.05 -1.95 -10.2 -1.85 -10.3 -1.85 -10.5 -1.85 -10.65 -1.8 -10.8 -1.8 -10.95 -1.85 -11.2 -1.95 -11.4 -2.15 -11.55 -2.25 -11.7 -2.4 -11.8 -2.5 -11.95 -2.55 -12.15 -2.65 -12.65 -2.95 -12.95 -3.15 -13.25 -3.5 -13.85 -4.5 -14.0 -4.8 -14.1 -5.05 -14.1 -5.25 -14.1 -5.5 -14.05 -5.7 -13.95 -5.9 -13.85 -6.25 -13.8 -6.4 -13.7 -6.55 -13.6 -6.65 -13.5 -6.75 -13.4 -6.9 -13.3 -7.0 -13.25 -7.15 -13.05 -7.35 -12.6 -7.75 -12.2 -7.95 -12.1 -8.0 -11.85 -8.15 -11.6 -8.3 -11.45 -8.35 -11.3 -8.35 -11.1 -8.3 -10.9 -8.25 -10.7 -8.2 -10.55 -8.15 -10.4 -8.1 -10.55 -8.35 -10.7 -8.65 -10.8 -8.7 -10.95 -8.95 -11.4 -9.6 -11.5 -9.95 -11.5 -10.2 -11.6 -10.55 -11.7 -10.85 -11.7 -11.05 -11.7 -11.35 -11.7 -11.6 -11.6 -11.8 -11.55 -11.9 -11.45 -12.0 -11.35 -12.1 -11.2 -12.2 -10.85 -12.4 -10.6 -12.6 -10.4 -12.75 -10.25 -12.8 -10.1 -12.85 -9.45 -12.85 -8.8 -12.8 -8.25 -12.7 -7.9 -12.7 -7.7 -12.6 -7.5 -12.45 -7.25 -12.25 -7.0 -12.1 -6.75 -11.85 -6.25 -10.8 -5.85 -9.55 -5.85 -9.35 -6.0 -8.75 -6.15 -8.35 -6.25 -8.05 -6.35 -7.95 -6.45 -7.85 -6.55 -7.7 -6.7 -7.65 -6.8 -7.6 -6.95 -7.5 -6.95 -7.45 -6.85 -7.4 -6.7 -7.4 -6.55 -7.45 -6.4 -7.45 -6.2 -7.4 -5.95 -7.25 -5.7 -7.0 -5.65 -6.8 -5.45 -6.55 -3.7 -5.5 -1.4 -3.95 0.55 -2.95 1.4 -2.35 2.1 -1.95 2.8 -1.6" fill="#ffffff" fill-rule="evenodd" stroke="none"/>
  </g>
</svg>
