<?xml version="1.0" encoding="UTF-8" standalone="no"?>
<svg xmlns:xlink="http://www.w3.org/1999/xlink" height="22.45px" width="28.0px" xmlns="http://www.w3.org/2000/svg">
  <g transform="matrix(1.0, 0.0, 0.0, 1.0, 13.7, 12.5)">
    <path d="M12.75 -0.4 L14.3 1.85 Q14.25 3.6 13.2 4.7 L11.6 5.9 11.35 6.05 10.35 5.9 10.75 6.75 10.85 7.1 11.05 8.15 10.95 8.65 Q10.3 9.6 9.15 9.95 L8.1 9.8 Q6.25 9.45 5.85 7.65 L5.75 6.8 5.55 5.3 Q-1.45 0.9 -8.15 -4.05 L-8.75 -3.35 Q-9.6 -2.5 -10.75 -2.25 L-13.3 -4.8 -13.7 -6.65 -13.05 -7.7 Q-11.95 -8.75 -10.25 -8.6 L-10.55 -9.6 -10.2 -10.45 -10.25 -11.05 -10.1 -11.35 -9.7 -11.85 -8.3 -12.5 Q-7.35 -12.55 -6.5 -11.95 -5.55 -11.2 -5.05 -10.0 -4.55 -8.95 -5.2 -7.95 L-5.8 -7.15 8.4 2.6 Q9.15 1.25 10.45 0.45 L12.2 -0.5 12.75 -0.4 M11.75 2.9 L11.35 3.15 11.05 3.35 11.9 2.85 Q12.3 2.4 11.75 2.9 M6.95 3.95 L6.8 3.85 Q6.2 3.75 6.45 3.9 L6.95 3.95 M-10.5 -4.95 Q-10.8 -4.5 -10.25 -4.35 -9.95 -4.2 -9.85 -4.5 L-9.8 -4.7 -10.5 -6.1 -10.5 -4.95 M-7.3 -6.0 L-7.95 -6.6 -7.75 -5.65 -6.8 -5.1 Q-6.6 -5.65 -7.3 -6.0" fill="#ffffff" fill-rule="evenodd" stroke="none"/>
  </g>
</svg>
