<?xml version="1.0" encoding="UTF-8" standalone="no"?>
<svg xmlns:xlink="http://www.w3.org/1999/xlink" height="34.05px" width="22.85px" xmlns="http://www.w3.org/2000/svg">
  <g transform="matrix(1.0, 0.0, 0.0, 1.0, 16.4, 28.1)">
    <path d="M0.45 -1.85 L0.5 -2.65 -3.8 -3.05 -4.2 -3.1 -2.75 -2.5 -2.65 -2.6 Q-1.85 -2.7 0.45 -1.85 M0.95 -26.2 L0.5 -25.7 0.1 -25.6 Q-3.15 -23.7 -3.4 -23.7 L-3.7 -23.8 -6.1 -20.65 Q-8.65 -17.45 -10.55 -12.55 L-10.6 -12.0 Q-10.6 -9.55 -9.5 -7.95 L-8.8 -7.45 Q-6.6 -5.75 -5.1 -5.2 -2.4 -4.15 1.05 -4.05 L1.6 -4.0 5.95 -0.9 Q6.4 0.0 6.4 1.65 6.55 2.45 6.1 3.2 5.4 4.4 3.5 4.65 L5.2 5.05 4.1 5.35 2.35 5.95 Q-5.25 5.65 -11.05 0.45 -13.7 -0.7 -14.95 -3.95 -16.35 -5.95 -16.35 -7.5 L-16.3 -9.6 -16.4 -11.7 Q-16.4 -12.9 -15.75 -14.4 -15.45 -16.8 -14.8 -18.3 -12.95 -22.6 -7.65 -25.15 -6.7 -26.95 -2.25 -27.75 L1.7 -28.05 1.7 -27.85 Q1.7 -26.85 0.95 -26.2 M-6.65 0.2 L-6.35 0.4 -6.55 -0.05 -6.65 0.2 M-1.05 1.45 L-1.7 1.1 -2.9 0.5 -3.95 0.65 -3.9 0.75 -3.15 1.9 -3.1 1.9 Q-2.8 1.9 -2.85 1.75 L-2.9 1.6 -1.05 1.45 M-4.1 -24.4 L-4.1 -24.5 -6.2 -23.65 -6.4 -23.45 -6.6 -23.2 Q-5.4 -24.1 -4.1 -24.4 M-10.0 -20.95 L-10.0 -21.05 -10.25 -20.65 -10.0 -20.95 M-3.55 -25.7 L-3.05 -25.85 -2.05 -26.7 -2.1 -26.7 -3.6 -25.95 -3.55 -25.7 M0.35 3.0 L2.05 2.85 2.15 2.8 2.15 2.75 1.65 2.4 -0.6 2.55 Q0.0 2.75 0.35 3.0 M3.35 0.6 L2.6 1.35 2.75 1.35 3.45 1.2 3.6 0.75 3.35 0.6" fill="#333333" fill-rule="evenodd" stroke="none"/>
  </g>
</svg>
