<?xml version="1.0" encoding="UTF-8" standalone="no"?>
<svg xmlns:xlink="http://www.w3.org/1999/xlink" height="53.95px" width="9.9px" xmlns="http://www.w3.org/2000/svg">
  <g transform="matrix(1.0, 0.0, 0.0, 1.0, 2.0, 26.6)">
    <path d="M2.35 -23.45 L2.45 -22.25 2.3 -21.45 2.7 -18.4 3.05 -13.85 4.15 -6.05 4.85 3.55 Q5.5 6.0 5.8 9.5 L6.0 13.75 6.4 14.25 6.4 15.0 6.3 17.85 Q7.3 18.5 7.9 23.55 7.95 24.55 7.25 25.75 6.35 27.35 4.8 27.35 3.5 27.35 2.65 26.5 1.45 25.95 0.95 24.65 L0.55 22.25 Q0.4 20.7 0.55 19.9 0.05 14.5 -0.7 -2.65 L-1.2 -14.4 -1.35 -15.15 -1.45 -15.65 -1.55 -16.6 -1.65 -17.4 Q-2.1 -22.25 -1.85 -24.05 L-1.4 -23.95 -1.7 -24.1 -2.0 -24.55 Q-1.4 -26.6 -0.25 -26.6 0.7 -26.6 1.6 -25.2 L2.35 -23.45 M1.8 -12.75 L2.25 -9.55 2.85 -4.7 2.1 -11.5 1.95 -12.6 1.8 -12.75 M3.1 -0.2 L3.05 -0.9 3.05 -0.75 3.1 -0.2 M1.7 0.8 L1.35 0.9 0.9 0.8 Q1.95 11.95 3.35 19.45 2.8 15.2 2.3 8.35 L1.7 0.8" fill="#333333" fill-rule="evenodd" stroke="none"/>
  </g>
</svg>
