<?xml version="1.0" encoding="UTF-8" standalone="no"?>
<svg xmlns:xlink="http://www.w3.org/1999/xlink" height="52.5px" width="10.9px" xmlns="http://www.w3.org/2000/svg">
  <g transform="matrix(1.0, 0.0, 0.0, 1.0, 9.75, 25.7)">
    <path d="M-1.9 23.8 L-1.9 23.9 -1.9 24.35 -1.65 24.25 -1.5 24.1 -1.4 23.55 -1.35 23.4 -1.9 23.8 M-4.05 14.9 L-4.2 14.35 -4.1 14.9 -4.05 14.9 M-4.85 10.8 L-4.9 10.15 -5.4 8.35 -4.7 14.1 -4.6 13.05 -4.5 13.05 -4.85 10.8 M-5.0 2.05 L-4.95 0.65 Q-5.25 0.95 -5.6 0.95 L-5.8 0.95 -5.8 1.2 -5.1 4.9 -5.15 3.65 -5.0 2.05 M-7.45 -3.95 L-7.55 -5.25 -7.55 -6.4 -8.1 -2.2 -8.3 1.0 Q-7.7 -0.6 -7.45 -3.95 M-4.1 -16.95 L-4.1 -16.9 -4.05 -17.05 -4.1 -16.95 M-0.65 -24.6 L-0.85 -24.1 -0.65 -24.6 M-0.5 -23.55 L-0.7 -23.85 -1.6 -20.55 -0.45 -22.5 0.05 -23.45 -0.5 -23.55 M1.1 -25.25 L1.15 -23.6 -0.35 -21.4 -1.3 -20.2 -2.45 -16.4 -2.6 -15.75 -3.45 -10.75 -4.05 -6.3 -4.0 -3.75 -4.15 3.7 -4.15 5.05 -3.45 9.55 -2.0 16.65 -1.6 17.25 Q-0.7 18.7 -0.55 20.25 0.2 21.85 0.2 22.6 0.2 23.3 -0.2 23.65 L-0.3 24.0 Q-0.5 24.65 -1.05 25.0 L-1.1 25.05 Q-2.2 26.8 -4.25 26.8 -6.35 26.8 -7.05 24.8 L-7.45 22.15 Q-7.35 22.15 -7.2 22.25 L-8.3 18.1 Q-9.75 12.6 -9.75 6.95 L-9.5 4.0 -9.55 0.6 Q-9.55 -4.8 -7.25 -13.15 L-7.15 -13.9 Q-6.8 -15.9 -5.95 -17.4 -3.7 -24.0 -0.95 -25.7 L-0.55 -25.25 1.1 -25.25" fill="#333333" fill-rule="evenodd" stroke="none"/>
  </g>
</svg>
