<?xml version="1.0" encoding="UTF-8" standalone="no"?>
<svg xmlns:xlink="http://www.w3.org/1999/xlink" height="37.25px" width="23.6px" xmlns="http://www.w3.org/2000/svg">
  <g transform="matrix(1.0, 0.0, 0.0, 1.0, 9.45, 25.9)">
    <path d="M-0.45 3.3 L-0.1 3.6 0.5 3.65 Q-1.05 2.2 -1.6 2.2 L-0.45 3.3 M-7.4 -15.9 L-6.9 -16.25 -6.75 -17.05 -6.7 -17.55 -7.4 -15.9 M-7.25 -14.35 L-7.55 -13.8 Q-8.1 -12.75 -8.1 -11.2 L-7.95 -10.8 -7.5 -12.4 -7.5 -12.7 -7.25 -14.35 M9.25 10.1 L9.05 10.15 9.1 10.3 9.85 10.45 9.7 10.3 9.25 10.1 M9.6 9.35 L9.75 9.6 9.8 9.6 9.8 9.75 9.8 9.8 10.2 9.7 10.1 9.65 9.65 9.2 9.6 9.35 M0.95 -24.3 L0.65 -23.45 0.7 -23.5 0.5 -23.2 0.15 -22.75 0.05 -22.6 -0.45 -21.9 -0.45 -21.65 -2.6 -17.1 Q-4.55 -13.1 -4.75 -9.2 L-4.35 -8.6 -4.35 -8.25 Q-4.35 -5.1 -1.75 -2.0 1.65 2.05 7.85 2.6 L8.1 2.65 8.65 2.8 9.75 3.2 11.8 3.85 12.75 4.3 12.9 4.35 13.3 4.8 13.55 5.05 13.6 5.2 14.1 8.15 14.15 8.45 13.55 10.45 Q12.95 10.75 12.55 11.15 L7.95 11.35 Q6.0 10.7 5.45 10.7 L5.25 10.75 4.25 10.05 Q0.55 9.1 -2.6 5.35 -5.15 3.55 -6.8 1.0 -9.45 -3.0 -9.45 -7.8 -9.45 -14.85 -8.1 -17.15 -6.9 -20.5 -5.25 -22.7 -2.8 -26.05 0.1 -25.9 L-0.2 -25.55 0.75 -25.35 0.95 -24.3 M0.15 -23.9 L0.15 -25.1 -0.6 -25.15 -1.3 -24.4 Q-0.7 -24.5 -0.7 -23.5 L-0.75 -23.2 0.15 -23.9" fill="#333333" fill-rule="evenodd" stroke="none"/>
  </g>
</svg>
