<?xml version="1.0" encoding="UTF-8" standalone="no"?>
<svg xmlns:xlink="http://www.w3.org/1999/xlink" height="40.8px" width="12.35px" xmlns="http://www.w3.org/2000/svg">
  <g transform="matrix(1.0, 0.0, 0.0, 1.0, 11.45, 26.65)">
    <path d="M-3.2 9.1 L-2.85 9.25 Q-2.55 9.05 -3.2 8.45 L-3.2 9.1 M-9.85 7.55 L-9.95 7.1 -10.1 6.65 -10.2 6.15 -10.2 6.0 -10.2 5.95 -9.75 7.65 -9.85 7.55 M-5.35 0.15 L-5.1 1.35 Q-4.8 4.05 -3.15 5.45 L-5.35 0.15 M-2.25 -23.15 L-2.25 -23.8 -2.7 -23.8 -2.7 -23.15 -2.25 -23.15 M0.2 -26.65 L0.6 -26.4 Q1.1 -26.05 0.7 -25.55 L0.3 -24.55 0.9 -25.0 Q-3.85 -19.9 -6.45 -13.1 L-5.85 -5.55 Q-5.7 -2.0 -2.25 2.4 1.15 6.75 -0.4 13.2 -6.05 16.0 -8.25 10.35 -10.05 5.6 -10.75 0.9 L-11.4 -4.9 Q-12.25 -17.6 -2.15 -26.1 L0.2 -26.65" fill="#333333" fill-rule="evenodd" stroke="none"/>
  </g>
</svg>
