<?xml version="1.0" encoding="UTF-8" standalone="no"?>
<svg xmlns:xlink="http://www.w3.org/1999/xlink" height="46.05px" width="15.65px" xmlns="http://www.w3.org/2000/svg">
  <g transform="matrix(1.0, 0.0, 0.0, 1.0, 4.85, 27.4)">
    <path d="M8.5 15.35 L8.35 15.35 8.4 16.0 8.4 16.35 8.75 15.35 8.5 15.35 M5.65 10.15 L7.05 11.55 Q7.05 12.05 7.5 12.55 L7.95 13.4 7.8 13.85 7.85 13.95 8.15 13.3 7.1 10.95 7.0 11.0 Q6.35 10.75 5.75 10.1 L5.65 10.15 M-0.25 4.4 L-2.0 1.95 Q-0.85 6.35 1.1 9.9 L1.35 9.9 1.3 9.3 -0.25 4.4 M-1.95 -21.0 L-1.95 -21.1 -2.35 -19.75 Q-3.6 -15.3 -3.6 -12.4 L-3.55 -10.15 Q-3.4 -13.3 -2.8 -16.2 L-1.95 -21.0 M-0.25 -19.3 L-0.25 -19.35 -0.35 -22.0 -0.85 -20.6 -1.6 -16.25 -1.65 -16.05 -0.75 -18.25 -0.25 -19.3 M-1.45 -22.65 L-1.3 -22.4 -1.05 -23.05 -1.35 -23.05 -1.45 -22.65 M1.7 -26.8 L1.7 -26.4 2.1 -26.15 2.35 -24.05 1.5 -19.9 0.45 -16.55 0.3 -15.9 0.35 -15.05 0.65 -16.1 0.95 -16.1 1.05 -15.1 0.4 -13.25 0.25 -12.9 -0.1 -9.15 Q-0.25 -7.6 1.3 -1.85 2.0 0.6 3.85 4.2 L6.0 7.05 6.95 7.9 8.35 9.6 10.15 11.55 10.8 13.35 Q10.8 14.65 10.2 15.6 9.65 16.45 9.6 17.8 L8.15 18.3 7.0 18.65 5.5 18.4 Q3.0 18.0 1.3 15.1 0.15 13.1 -0.05 11.85 L-2.15 6.2 Q-4.0 -0.05 -4.85 -6.75 -4.85 -12.85 -4.45 -15.5 -3.95 -19.15 -2.4 -22.75 L-2.15 -23.2 -1.7 -24.15 -2.0 -25.4 -1.3 -25.65 -1.45 -25.85 Q-0.8 -26.4 -0.3 -26.3 L-0.2 -26.65 -0.25 -26.8 -0.1 -27.3 Q1.7 -27.6 1.7 -26.8" fill="#333333" fill-rule="evenodd" stroke="none"/>
  </g>
</svg>
