<?xml version="1.0" encoding="UTF-8" standalone="no"?>
<svg xmlns:xlink="http://www.w3.org/1999/xlink" height="44.6px" width="15.75px" xmlns="http://www.w3.org/2000/svg">
  <g transform="matrix(1.0, 0.0, 0.0, 1.0, 4.9, 27.05)">
    <path d="M-1.7 -22.95 L-1.7 -22.9 -1.75 -22.8 -1.8 -22.75 -1.8 -22.65 -1.85 -22.6 -1.85 -22.55 -1.9 -22.45 -1.95 -22.4 -1.95 -22.3 -2.0 -22.25 -2.05 -22.15 -2.05 -22.1 -2.1 -22.05 -2.1 -21.95 -2.15 -21.9 -2.15 -21.8 -2.2 -21.75 -2.25 -21.7 -2.25 -21.6 -2.3 -21.55 -2.3 -21.45 -2.35 -21.4 -2.35 -21.3 -2.4 -21.25 -2.75 -19.75 Q-1.9 -21.75 -0.7 -23.6 L-0.65 -24.85 -1.15 -24.05 -1.55 -23.25 -1.6 -23.15 -1.6 -23.1 -1.65 -23.0 -1.7 -22.95 M5.9 11.95 Q5.45 10.85 5.2 11.6 L5.9 11.95 M4.95 5.6 L4.8 5.85 Q8.1 9.2 9.55 13.25 10.0 14.05 10.05 14.95 L10.05 14.65 10.2 13.9 10.15 13.1 10.1 12.45 10.05 12.4 10.05 12.3 10.0 12.25 9.95 12.15 9.95 12.1 9.9 12.05 9.85 11.95 9.85 11.9 9.8 11.8 8.4 9.75 5.35 6.1 4.95 5.6 M1.45 -26.95 L1.55 -26.9 1.6 -26.85 1.7 -26.75 1.75 -26.7 1.85 -26.6 1.95 -26.55 2.0 -26.5 2.1 -26.4 2.15 -26.35 2.25 -26.0 2.35 -24.85 2.35 -24.15 2.25 -23.35 2.2 -23.3 2.2 -23.2 2.15 -23.15 2.15 -23.05 2.1 -23.0 2.1 -22.95 2.05 -22.85 2.0 -22.8 2.0 -22.7 1.95 -22.65 1.95 -22.6 1.95 -22.5 1.9 -22.45 1.85 -22.35 1.85 -22.3 1.8 -22.2 1.8 -22.15 1.75 -22.1 1.7 -22.0 1.65 -21.95 1.65 -21.85 1.6 -21.8 1.55 -21.7 1.55 -21.65 1.5 -21.6 1.5 -21.5 1.45 -21.45 1.4 -21.35 1.4 -21.3 1.35 -21.25 1.3 -21.15 1.3 -21.1 1.25 -21.0 1.25 -20.95 1.2 -20.85 0.35 -15.3 Q-1.7 -6.45 2.95 1.9 L2.7 1.9 2.75 2.0 2.8 2.05 2.85 2.15 3.15 2.5 3.5 2.85 3.75 3.2 5.25 5.0 8.05 8.3 Q9.45 9.8 10.45 11.6 L10.5 11.65 10.5 11.7 10.55 11.8 10.55 11.85 10.6 11.95 10.65 12.0 10.65 12.1 10.7 12.15 10.75 12.2 10.8 12.6 10.8 13.2 10.85 13.85 10.85 14.35 10.8 14.4 10.75 14.7 10.75 14.85 10.7 15.0 10.65 15.2 10.35 15.55 10.15 15.75 10.0 15.95 9.75 16.95 Q3.4 19.35 1.15 12.4 L1.0 12.15 -0.45 9.45 -0.5 9.4 -0.5 9.35 -0.55 9.25 -0.6 9.2 -0.6 9.1 -0.65 9.05 -0.65 9.0 -0.7 8.9 -0.7 8.85 -0.75 8.75 -0.8 8.7 -0.8 8.6 -0.85 8.55 -0.9 8.5 -0.9 8.4 -0.95 8.35 -1.45 6.85 -1.85 5.15 Q-4.6 -1.25 -4.9 -8.5 L-4.6 -8.9 -4.9 -11.35 -4.45 -11.9 Q-4.35 -14.7 -3.6 -17.35 L-3.5 -19.15 -3.3 -20.85 -3.25 -20.9 -3.2 -21.0 -3.2 -21.05 -3.15 -21.15 -3.15 -21.2 -3.1 -21.25 -3.0 -21.5 -2.95 -21.7 -2.9 -21.85 -2.85 -22.0 -2.8 -22.05 -2.8 -22.15 -2.75 -22.2 -2.7 -22.25 -2.7 -22.35 -2.65 -22.4 -2.6 -22.5 -2.6 -22.55 -2.55 -22.6 -2.55 -22.7 -2.5 -22.75 -2.5 -22.85 -2.45 -22.9 -2.4 -23.0 -2.4 -23.05 -2.35 -23.1 -2.3 -23.2 -2.3 -23.25 -2.25 -23.35 -2.2 -23.4 -2.15 -23.45 -2.15 -23.55 -2.1 -23.6 -1.7 -24.4 -1.0 -25.65 -0.15 -26.6 0.0 -26.65 0.15 -26.6 0.2 -26.6 0.25 -26.5 0.25 -26.45 0.25 -26.35 0.25 -26.3 0.1 -26.05 0.0 -25.95 -0.15 -25.8 -0.55 -25.05 -0.55 -25.0 0.2 -25.5 0.25 -25.75 Q0.5 -26.15 1.0 -25.9 L1.25 -24.65 1.3 -23.15 1.35 -23.25 1.45 -23.75 1.55 -24.65 1.55 -25.3 1.45 -25.95 1.35 -26.0 1.3 -26.1 1.2 -26.15 1.15 -26.2 1.05 -26.3 0.85 -26.35 0.65 -26.4 0.55 -26.4 0.45 -26.45 0.4 -26.55 0.35 -26.6 0.35 -26.65 0.35 -26.75 0.35 -26.8 0.4 -26.9 0.5 -26.95 0.65 -27.0 0.85 -27.05 1.1 -27.05 1.25 -27.0 1.45 -26.95" fill="#333333" fill-rule="evenodd" stroke="none"/>
  </g>
</svg>
