<?xml version="1.0" encoding="UTF-8" standalone="no"?>
<svg xmlns:xlink="http://www.w3.org/1999/xlink" height="44.0px" width="14.8px" xmlns="http://www.w3.org/2000/svg">
  <g transform="matrix(1.0, 0.0, 0.0, 1.0, 4.75, 26.05)">
    <path d="M-1.25 -2.2 L-0.65 -0.9 Q0.65 1.6 2.4 3.95 0.0 -0.25 -1.1 -5.05 L-1.25 -2.2 M8.55 16.25 L8.6 16.15 Q5.6 18.0 3.0 15.55 L3.05 15.65 3.2 15.9 3.35 16.1 3.85 16.45 Q5.1 17.4 6.65 17.2 L7.8 16.8 8.55 16.25 M6.15 14.5 L5.55 14.5 5.55 15.45 6.15 15.45 6.15 14.5 M6.05 12.45 L6.6 13.15 5.95 12.0 6.05 12.45 M8.1 11.05 L8.1 11.15 Q8.65 11.4 8.1 11.05 M1.7 11.5 L1.75 11.55 1.8 11.65 1.8 11.7 1.95 12.0 2.2 12.4 2.5 12.85 2.5 12.9 2.55 13.0 2.65 13.2 2.8 13.55 3.0 13.85 3.0 13.9 3.05 14.0 3.3 14.05 4.5 15.45 1.7 11.45 1.7 11.5 M2.25 -23.05 L2.45 -22.35 Q-1.35 -13.4 0.5 -4.05 1.3 0.0 6.1 6.55 10.9 13.05 9.9 14.95 L9.65 15.35 9.6 15.6 9.6 15.8 9.5 16.0 Q9.2 16.8 8.4 17.3 6.65 18.35 4.7 17.7 L4.35 17.5 3.85 17.25 3.65 17.1 3.45 16.95 3.05 16.65 3.0 16.6 2.95 16.5 2.95 16.45 2.9 16.4 2.65 16.05 2.5 15.8 2.4 15.55 2.4 15.45 2.45 15.4 2.45 15.3 2.4 15.1 2.35 14.9 2.3 14.7 2.25 14.45 2.35 14.4 2.45 14.4 2.5 14.45 2.55 14.5 2.6 14.1 2.4 13.75 1.9 12.85 1.3 11.9 1.25 11.85 1.2 11.8 1.2 11.7 1.15 11.65 1.1 11.55 1.1 11.5 1.05 11.4 1.0 11.35 0.95 11.3 0.95 11.2 0.9 11.15 0.9 11.05 0.85 11.0 0.85 10.95 0.8 10.85 0.75 10.8 0.7 10.7 0.7 10.65 0.65 10.55 0.45 10.2 0.1 9.5 -0.25 8.8 -0.3 8.7 -0.3 8.65 -0.35 8.6 -0.4 8.5 -0.4 8.45 -0.4 8.35 -0.45 8.3 -0.5 8.25 -0.5 8.15 -0.55 8.1 -0.6 8.0 -0.6 7.95 -0.65 7.85 -0.7 7.8 -0.7 7.75 -0.75 7.65 -0.75 7.6 -0.8 7.5 -0.85 7.45 -0.85 7.3 -0.9 7.15 -0.95 7.0 -1.0 6.95 -1.05 6.9 -1.05 6.8 -1.1 6.75 -1.1 6.65 -1.15 6.6 -1.2 6.5 -1.2 6.45 -1.25 6.4 -1.25 6.3 -1.3 6.25 -1.3 6.15 -1.35 6.1 -1.35 6.05 -1.4 5.95 -1.45 5.9 -1.45 5.8 -1.5 5.75 -1.55 5.65 -1.55 5.6 -1.6 5.55 -1.65 5.45 -1.65 5.4 -1.7 5.3 -1.75 5.25 -1.75 5.15 -1.75 5.1 -1.8 5.05 -1.85 4.95 -1.85 4.9 -1.9 4.8 -1.95 4.75 -1.95 4.7 -2.0 4.6 -2.1 4.25 -2.2 3.8 -2.35 3.45 -2.35 3.35 -2.4 3.05 -2.55 2.7 -2.65 2.35 -2.7 2.2 -2.75 2.05 -2.8 2.0 -2.85 1.9 -2.85 1.85 -2.9 1.75 -2.9 1.7 -2.95 1.6 -2.95 1.55 -3.0 1.5 -3.0 1.4 -3.0 1.35 -3.0 1.25 -2.95 1.25 Q-4.85 -5.05 -4.75 -12.0 L-4.15 -12.5 Q-4.05 -20.0 -0.3 -26.05 L1.75 -25.55 1.95 -23.3 2.25 -23.05" fill="#333333" fill-rule="evenodd" stroke="none"/>
  </g>
</svg>
