<?xml version="1.0" encoding="UTF-8" standalone="no"?>
<svg xmlns:xlink="http://www.w3.org/1999/xlink" height="33.2px" width="22.25px" xmlns="http://www.w3.org/2000/svg">
  <g transform="matrix(1.0, 0.0, 0.0, 1.0, 16.6, 28.2)">
    <path d="M-3.3 0.85 L-3.4 0.9 Q-3.4 1.25 -2.95 1.25 -2.55 0.7 -3.3 0.85 M-2.8 2.2 Q-3.0 1.7 -2.9 2.2 L-2.8 2.2 M-6.75 -3.2 L-7.5 -3.45 -5.35 -2.15 Q-5.9 -2.95 -6.75 -3.2 M-13.0 -6.05 L-12.8 -4.55 Q-12.5 -2.9 -10.8 -1.95 L-13.0 -6.05 M-10.65 -21.1 L-11.05 -21.5 Q-12.55 -19.7 -13.35 -17.3 L-13.8 -15.8 -12.9 -16.25 -10.65 -21.1 M-2.5 -25.5 L-2.5 -25.45 -2.2 -24.85 -1.8 -25.6 -2.4 -25.6 -2.5 -25.5 M3.65 0.95 L3.75 0.25 3.0 -0.6 3.15 0.65 2.35 2.15 3.65 0.95 M1.45 1.05 L1.55 0.05 0.95 1.4 -0.4 1.95 0.6 1.85 1.45 1.05 M0.45 -28.0 L0.6 -27.85 0.75 -27.65 0.85 -27.55 1.1 -27.2 1.2 -26.95 1.3 -26.55 1.2 -25.95 1.1 -25.75 0.95 -25.65 0.8 -25.6 0.65 -25.65 0.55 -25.75 0.45 -26.0 0.4 -26.65 0.25 -26.8 0.2 -26.85 0.2 -26.65 -0.35 -25.35 Q-1.3 -23.3 -3.4 -22.3 L-3.95 -22.4 Q-10.9 -16.55 -10.25 -7.55 -6.5 -3.45 -0.75 -2.7 1.05 -3.5 2.85 -3.05 L4.85 -2.3 Q7.0 1.85 3.2 3.9 1.05 5.0 -1.35 5.0 -11.15 3.8 -15.45 -4.5 L-16.15 -4.5 Q-18.55 -17.5 -8.2 -25.8 L-6.7 -26.3 -7.55 -25.4 Q-4.7 -26.8 -1.9 -28.0 L-1.15 -27.95 -0.8 -28.15 -0.65 -28.2 -0.5 -28.2 -0.35 -28.2 -0.25 -28.15 -0.1 -28.15 0.05 -28.15 0.2 -28.15 0.35 -28.05 0.45 -28.0" fill="#333333" fill-rule="evenodd" stroke="none"/>
  </g>
</svg>
