<?xml version="1.0" encoding="UTF-8" standalone="no"?>
<svg xmlns:xlink="http://www.w3.org/1999/xlink" height="24.85px" width="28.4px" xmlns="http://www.w3.org/2000/svg">
  <g transform="matrix(1.0, 0.0, 0.0, 1.0, -7.0, 1.5)">
    <path d="M20.0 -0.35 L23.5 -0.35 23.75 -0.3 24.35 -0.2 25.65 0.1 27.05 0.35 27.3 0.4 27.55 0.45 27.8 0.55 28.9 0.65 29.3 0.7 29.5 0.85 29.75 0.95 30.0 1.0 30.1 1.05 30.25 1.15 30.55 1.4 30.75 1.55 30.9 1.7 31.15 1.85 31.4 2.15 31.6 2.4 31.8 2.7 32.25 3.15 32.4 3.3 32.5 3.4 32.55 3.55 32.6 3.7 32.7 3.85 32.75 4.0 32.8 4.15 32.85 4.25 32.9 4.4 32.95 4.55 33.05 4.7 33.1 4.85 33.15 5.0 33.25 5.1 33.3 5.25 33.35 5.4 33.4 5.55 33.45 5.7 33.5 5.85 33.55 6.0 33.65 6.1 33.7 6.25 33.7 6.4 33.7 6.55 33.7 6.7 33.75 6.85 33.75 7.25 33.75 8.4 33.75 8.95 33.75 9.65 33.75 10.4 33.75 10.5 33.75 10.65 33.75 10.8 33.7 10.95 33.6 11.1 33.55 11.25 33.55 11.35 33.55 11.5 33.55 11.8 33.55 12.1 33.55 12.25 33.55 12.35 33.55 12.5 33.5 12.65 33.4 12.8 33.4 12.95 33.35 13.1 33.3 13.2 33.2 13.35 32.9 13.65 32.65 13.95 32.55 14.1 32.4 14.2 32.3 14.35 32.25 14.5 32.15 14.65 32.05 14.8 31.95 14.95 31.85 15.05 31.8 15.2 31.65 15.35 31.55 15.5 31.4 15.65 31.25 15.75 31.05 15.9 30.95 16.05 30.85 16.2 30.75 16.35 30.7 16.5 30.55 16.65 30.4 16.75 30.25 16.9 30.1 17.05 29.95 17.2 29.75 17.35 29.55 17.5 29.4 17.6 29.35 17.75 29.3 17.9 29.15 18.05 28.95 18.2 28.6 18.3 28.2 18.4 27.85 18.5 Q26.8 18.9 25.85 19.4 L22.8 20.55 21.8 20.85 21.4 20.95 15.7 20.9 15.45 20.9 15.25 20.8 14.95 20.7 14.65 20.65 14.5 20.55 14.1 20.45 14.0 20.4 13.85 20.3 13.8 20.2 13.7 20.05 13.65 19.9 13.6 19.75 13.6 19.6 13.6 19.35 13.6 19.2 13.6 19.05 13.6 18.9 13.6 18.75 13.55 18.6 13.5 18.5 13.4 18.35 13.4 18.2 13.4 18.05 13.5 17.9 13.55 17.75 13.65 17.6 13.8 17.5 14.2 17.4 15.35 17.4 15.6 17.45 15.8 17.55 16.3 17.6 16.55 17.65 16.85 17.65 18.7 17.6 20.95 17.0 Q24.1 16.1 27.0 14.4 L28.85 13.05 29.15 12.75 29.4 12.6 29.75 12.5 29.85 12.45 29.9 12.35 29.95 12.25 30.0 12.1 30.1 11.8 30.2 11.5 30.3 11.25 30.45 10.8 30.5 10.65 30.55 10.5 30.6 10.4 30.55 10.25 30.5 10.1 30.5 9.95 30.5 9.65 30.5 9.4 30.5 9.1 30.5 8.8 30.5 8.4 30.5 8.25 30.5 8.1 30.5 7.95 30.4 7.85 30.25 7.7 30.05 7.55 29.95 7.4 29.85 7.25 29.8 7.1 29.75 6.95 29.7 6.85 29.65 6.7 29.6 6.55 29.5 6.4 29.4 6.25 29.2 6.1 29.0 5.95 28.8 5.85 28.6 5.55 28.45 5.4 28.35 5.25 28.25 5.1 28.15 5.0 28.1 4.85 27.9 4.55 27.65 4.3 27.5 4.1 27.4 4.0 27.25 3.85 26.15 3.7 25.85 3.65 25.0 3.6 24.7 3.55 24.5 3.45 23.6 3.35 16.65 3.25 16.35 3.15 16.15 3.0 16.05 2.85 15.95 2.7 15.9 2.55 15.85 2.45 15.65 2.45 14.75 2.9 14.5 3.0 14.3 3.15 14.1 3.3 13.8 3.35 13.55 3.3 13.45 3.3 13.3 3.2 13.15 3.05 13.05 2.9 13.05 2.75 13.0 2.6 13.05 2.5 13.05 2.35 13.1 2.2 13.15 2.05 14.15 1.3 16.95 0.0 17.6 -0.15 19.7 -0.25 20.0 -0.35" fill="#d1d0a5" fill-rule="evenodd" stroke="none"/>
    <path d="M27.35 4.4 L27.55 4.5 27.95 4.6 28.1 4.7 28.25 4.85 28.5 5.0 28.75 5.1 28.9 5.25 29.0 5.4 29.15 5.55 29.4 5.85 29.5 6.0 29.55 6.1 29.65 6.25 29.75 6.4 29.85 6.55 29.9 6.7 30.0 6.85 30.05 6.95 30.1 7.1 30.1 7.4 30.1 7.55 30.1 7.7 30.1 7.8 30.1 8.1 30.1 8.25 30.15 8.4 30.15 8.55 30.15 8.7 30.15 8.8 30.15 9.25 30.15 9.55 30.15 9.65 30.15 9.8 30.15 10.1 30.15 10.25 30.1 10.4 30.0 10.5 30.0 10.65 29.95 10.8 29.9 10.95 29.8 11.1 29.7 11.25 29.65 11.35 29.55 11.5 29.5 11.65 29.35 11.8 29.2 11.95 29.05 12.1 28.9 12.25 28.6 12.4 28.4 12.5 28.25 12.65 28.2 12.8 28.1 12.95 28.05 13.1 27.95 13.2 27.8 13.35 27.55 13.5 27.35 13.65 27.2 13.8 26.9 14.05 26.65 14.2 26.35 14.35 26.25 14.4 26.1 14.55 25.95 14.7 25.75 14.85 25.45 14.95 25.35 14.95 24.9 15.2 24.6 15.35 24.25 15.4 23.55 15.5 23.35 15.55 22.55 15.8 22.25 15.85 22.05 15.95 Q21.9 16.05 21.8 16.1 L21.4 16.2 20.65 16.4 20.45 16.45 20.25 16.55 19.9 16.65 15.6 16.55 15.55 16.55 15.4 16.45 13.8 16.3 13.4 16.25 13.2 16.1 13.1 15.95 13.05 15.85 13.0 15.7 12.95 15.55 12.95 15.4 12.95 15.25 12.95 15.1 12.9 14.95 12.85 14.85 12.8 14.7 12.8 14.55 12.8 14.4 12.7 14.25 12.65 14.1 12.6 14.0 12.6 13.15 12.6 12.25 12.6 12.0 12.6 11.3 12.6 11.15 12.6 10.7 12.6 10.55 12.65 10.45 12.7 10.3 12.7 10.15 12.75 10.0 12.8 9.85 12.8 9.7 12.8 9.6 12.8 9.45 12.8 9.3 12.8 9.15 12.8 9.0 12.8 8.85 12.85 8.75 12.85 8.6 12.9 8.45 12.9 8.3 12.95 8.15 12.95 8.0 13.05 7.85 13.1 7.75 13.15 7.6 13.15 7.45 13.15 7.3 13.15 7.15 13.15 7.0 13.2 6.9 13.25 6.75 13.3 6.6 13.35 6.45 13.35 6.3 13.35 6.15 13.4 6.0 13.45 5.9 13.55 5.75 13.65 5.6 13.7 5.45 13.8 5.3 13.8 5.15 13.85 5.05 14.0 4.9 14.2 4.75 14.6 4.65 14.75 4.65 16.4 4.7 16.5 4.7 16.65 4.6 16.9 4.45 17.25 4.35 18.7 4.3 19.15 4.25 26.9 4.25 27.15 4.25 27.35 4.4" fill="#ffffff" fill-rule="evenodd" stroke="none"/>
    <path d="M17.05 -0.3 L19.25 -0.9 20.95 -1.3 21.6 -1.5 27.3 -1.5 27.3 -1.45 27.75 -1.4 28.15 -1.3 28.5 -1.25 28.8 -1.2 29.25 -1.1 29.45 -1.0 30.95 -0.25 32.1 0.3 32.6 0.6 33.15 1.15 33.7 1.75 34.0 2.0 34.2 2.3 34.4 2.6 34.45 2.85 34.65 3.15 34.85 3.7 35.0 4.3 35.15 5.15 35.25 5.7 35.35 6.0 35.4 6.25 35.4 6.55 35.4 7.1 35.4 7.7 35.4 8.55 35.4 9.1 35.4 9.4 35.4 9.7 35.35 9.95 35.35 10.25 35.35 10.55 35.25 10.8 35.2 11.1 35.15 11.4 35.15 11.65 35.15 11.95 35.05 12.25 35.0 12.5 34.95 12.8 34.75 13.1 34.55 13.35 34.4 13.65 34.2 13.95 34.0 14.2 33.8 14.5 33.7 14.8 33.35 15.35 32.4 16.5 31.25 17.65 30.4 18.5 30.1 18.75 29.65 19.05 26.45 20.75 23.85 22.2 23.4 22.45 21.9 22.7 12.9 23.35 12.4 23.3 9.85 22.25 8.8 21.7 8.35 21.4 8.05 21.15 7.95 20.85 7.85 20.55 7.6 20.3 7.3 20.0 7.1 19.7 7.05 19.45 7.0 19.15 7.2 18.9 7.5 18.6 7.95 18.4 8.55 18.6 8.8 18.85 9.1 19.15 9.55 19.35 11.1 20.0 11.95 20.25 12.8 20.45 16.75 20.35 22.65 19.75 22.75 19.7 23.1 19.55 25.85 18.1 27.95 16.95 28.4 16.7 29.25 15.85 30.4 14.7 31.45 13.3 32.0 12.45 32.2 12.15 32.3 11.85 32.4 11.55 32.45 11.3 32.5 11.0 32.6 10.7 32.6 10.45 32.6 10.15 32.65 9.85 32.65 9.6 32.65 9.3 32.75 9.0 32.75 8.75 32.75 8.15 32.75 7.3 32.75 6.75 32.75 6.45 32.75 6.2 32.75 5.9 32.7 5.6 32.65 5.35 32.6 5.05 32.55 4.75 32.5 4.45 32.3 4.2 32.2 3.9 32.0 3.6 31.9 3.35 31.65 3.05 Q30.85 2.3 29.85 1.85 L28.1 1.1 27.55 0.85 Q24.35 0.85 21.15 1.0 L18.2 1.4 17.8 1.45 17.45 1.55 16.95 1.75 16.05 2.25 14.6 2.85 14.05 3.1 13.9 3.25 13.85 3.5 13.55 3.8 12.9 3.7 12.8 3.45 12.9 3.15 13.0 2.85 13.05 2.6 13.25 2.3 13.35 2.0 13.55 1.75 14.0 1.45 14.85 0.85 15.25 0.6 15.7 0.3 16.1 0.0 17.05 -0.3" fill="#333333" fill-rule="evenodd" stroke="none"/>
    <path d="M16.7 3.4 L18.4 3.0 19.75 2.75 20.25 2.65 24.75 2.65 25.1 2.7 25.4 2.75 25.7 2.8 25.9 2.85 26.25 2.9 26.4 2.95 27.6 3.45 28.5 3.8 28.9 4.0 29.35 4.35 29.75 4.7 30.0 4.9 30.15 5.05 30.3 5.25 30.35 5.4 30.5 5.6 30.65 5.95 30.8 6.35 30.9 6.9 31.0 7.25 31.05 7.45 31.1 7.6 31.1 7.8 31.1 8.15 31.1 8.55 31.1 9.05 31.1 9.45 31.1 9.6 31.1 9.8 31.05 9.95 31.05 10.15 31.05 10.35 31.0 10.5 30.95 10.7 30.9 10.9 30.9 11.05 30.9 11.25 30.8 11.45 30.8 11.6 30.75 11.8 30.6 12.0 30.45 12.15 30.3 12.35 30.15 12.55 30.0 12.7 29.85 12.9 29.75 13.05 29.5 13.45 28.75 14.15 27.85 14.9 27.15 15.45 26.95 15.6 26.6 15.8 24.05 16.9 22.05 17.8 21.65 17.95 20.5 18.15 13.45 18.55 13.05 18.5 11.05 17.85 10.2 17.5 9.85 17.3 9.6 17.15 9.55 16.95 9.45 16.75 9.25 16.6 9.05 16.4 8.9 16.2 8.85 16.05 8.8 15.85 8.95 15.7 9.2 15.5 9.55 15.4 10.0 15.5 10.2 15.65 10.45 15.85 10.8 16.0 12.0 16.4 12.7 16.55 13.35 16.7 16.45 16.65 21.1 16.25 21.15 16.2 21.45 16.1 23.6 15.2 Q24.4 14.85 25.25 14.45 L25.6 14.3 26.25 13.75 27.15 13.0 28.0 12.1 28.45 11.55 28.6 11.4 28.65 11.2 28.75 11.0 28.8 10.85 28.8 10.65 28.9 10.45 28.9 10.3 28.9 10.1 28.95 9.9 28.95 9.75 28.95 9.55 29.0 9.35 29.0 9.2 29.0 8.8 29.0 8.25 29.0 7.9 29.0 7.75 29.0 7.55 29.0 7.4 29.0 7.2 28.95 7.0 28.9 6.85 28.85 6.65 28.8 6.45 28.65 6.3 28.6 6.1 28.45 5.9 28.35 5.75 28.15 5.55 26.75 4.8 25.35 4.3 24.95 4.15 19.9 4.25 17.6 4.5 17.3 4.55 17.0 4.6 16.6 4.7 15.9 5.05 14.75 5.4 14.35 5.6 14.2 5.7 14.2 5.85 13.95 6.05 13.45 5.95 13.35 5.8 13.45 5.6 13.5 5.4 13.55 5.25 13.7 5.05 13.8 4.9 13.95 4.7 14.3 4.55 14.95 4.15 15.25 4.0 15.65 3.8 15.95 3.6 16.7 3.4" fill="#333333" fill-rule="evenodd" stroke="none"/>
    <path d="M22.35 9.45 Q23.8 9.0 25.1 8.2 L25.8 7.9 26.9 7.35 27.35 7.05 27.65 7.0 28.0 6.85 28.45 6.75 28.8 6.65 29.1 6.75 29.25 6.9 29.25 7.0 29.25 7.15 29.1 7.3 29.0 7.45 28.7 7.45 28.3 7.65 Q25.3 9.35 22.1 10.6 18.75 11.95 15.15 11.75 L14.85 11.65 14.7 11.5 14.65 11.35 14.65 11.25 14.65 11.1 14.7 10.95 14.85 10.8 15.15 10.7 18.15 10.65 20.7 9.95 22.35 9.45" fill="#333333" fill-rule="evenodd" stroke="none"/>
    <path d="M25.35 5.15 L25.4 5.3 25.4 5.45 25.45 5.6 25.55 5.75 25.65 5.9 25.85 6.45 26.0 7.0 26.2 7.6 26.25 7.75 26.3 7.85 26.35 8.0 26.45 8.15 26.5 8.3 26.55 8.45 26.6 8.6 26.6 8.7 26.65 8.85 26.65 9.0 26.65 9.15 26.65 9.3 26.7 9.45 26.7 9.6 26.7 9.7 26.75 9.85 26.75 10.0 26.85 10.15 27.1 10.85 27.3 11.7 27.4 12.4 27.4 12.55 27.4 13.25 27.4 14.0 27.4 14.55 27.3 14.7 27.2 14.85 26.9 14.95 26.6 14.85 26.45 14.7 26.4 14.55 26.35 14.4 26.35 14.25 26.35 13.7 26.35 13.15 26.35 12.7 26.2 11.85 26.0 11.0 25.75 10.3 25.75 10.15 25.75 10.0 25.75 9.85 25.75 9.7 25.7 9.6 25.7 9.45 25.7 9.3 25.7 9.15 25.65 9.0 25.65 8.85 25.6 8.7 25.55 8.6 25.5 8.45 25.4 8.3 25.4 8.15 25.35 8.0 25.25 7.85 25.0 7.15 24.75 6.3 24.55 5.6 24.5 5.45 24.45 5.3 24.4 5.15 24.35 5.05 24.3 4.9 24.2 4.75 24.15 4.6 24.05 4.45 24.05 4.3 23.95 4.2 23.9 4.05 23.95 3.9 24.0 3.75 24.25 3.65 24.25 3.7 24.5 3.75 24.55 3.9 24.65 4.05 24.75 4.2 24.85 4.3 24.9 4.45 25.0 4.6 25.05 4.75 25.2 4.9 25.25 5.05 25.35 5.15" fill="#333333" fill-rule="evenodd" stroke="none"/>
    <path d="M20.3 4.85 L20.4 5.0 20.6 5.7 20.85 6.55 21.05 7.4 21.05 7.55 21.05 7.7 21.1 7.8 21.1 7.95 21.1 8.1 21.15 8.25 21.15 8.4 21.2 8.55 21.2 8.7 21.2 8.8 21.25 8.95 21.3 9.1 21.3 9.25 21.3 9.8 21.3 10.4 21.3 10.95 21.35 11.1 21.35 11.25 21.35 11.35 21.4 11.5 21.4 11.65 21.45 11.8 21.45 11.95 21.45 12.1 21.55 12.35 21.6 12.65 21.65 12.95 21.65 13.1 21.65 13.2 21.7 13.35 21.7 13.5 21.7 13.65 21.75 13.8 21.75 14.2 21.75 14.65 21.75 15.05 21.75 15.2 21.8 15.5 21.85 15.8 21.9 16.05 21.9 16.65 21.9 17.2 21.9 17.75 21.8 17.9 21.75 18.05 21.4 18.15 21.15 18.1 21.1 18.05 21.0 17.95 20.9 17.8 20.9 17.65 20.9 17.55 20.9 17.25 20.9 16.8 20.9 16.55 20.85 16.4 20.85 16.25 20.85 16.1 20.8 15.85 20.75 15.55 20.7 15.4 20.7 15.25 20.7 14.85 20.7 14.4 20.7 14.0 20.65 13.85 20.65 13.7 20.6 13.55 20.6 13.4 20.6 13.25 20.55 13.15 20.55 13.0 20.55 12.85 20.5 12.7 20.5 12.55 20.5 12.4 20.5 12.25 20.5 12.15 20.45 12.0 20.45 11.85 20.45 11.7 20.4 11.55 20.4 11.4 20.35 11.3 20.35 10.45 20.35 9.6 20.35 8.7 20.3 8.6 20.3 8.45 20.25 8.3 20.25 8.15 20.25 8.0 20.2 7.85 20.2 7.75 20.2 7.6 20.15 7.45 20.05 7.0 19.95 6.6 19.85 6.15 19.85 6.0 19.85 5.9 19.75 5.6 19.7 5.3 19.65 5.05 19.55 4.9 19.5 4.75 19.45 4.6 19.4 4.45 19.35 4.3 19.4 4.2 19.4 4.05 19.45 3.9 19.6 3.75 19.7 3.75 19.9 3.9 20.0 4.15 20.0 4.25 20.1 4.4 20.15 4.55 20.2 4.7 20.3 4.85" fill="#333333" fill-rule="evenodd" stroke="none"/>
    <path d="M26.9 -0.6 L27.25 -0.6 27.65 -0.5 28.4 0.1 29.15 0.9 29.55 1.35 29.6 1.5 29.7 1.6 29.8 1.75 29.85 1.9 29.95 2.05 30.05 2.2 30.15 2.05 30.2 1.9 30.3 1.75 30.5 1.6 30.85 1.55 31.15 1.55 31.35 1.65 31.45 1.8 31.65 2.1 31.75 2.25 31.9 2.4 32.0 2.5 32.05 2.65 32.1 2.8 32.15 2.95 32.2 3.1 32.25 3.25 32.35 3.35 32.4 3.5 32.45 3.65 32.5 3.8 32.5 3.95 32.6 4.1 32.65 4.35 32.75 4.95 32.8 5.35 32.85 5.65 32.9 5.8 32.9 5.95 32.9 6.05 32.95 6.35 33.05 6.8 33.1 7.2 33.15 7.5 33.2 7.65 33.2 8.05 33.2 9.5 33.2 11.05 33.2 11.9 33.15 12.05 33.1 12.2 32.95 12.3 32.75 12.45 32.4 12.6 32.0 12.7 31.7 12.6 31.4 12.45 31.2 12.3 31.15 12.2 31.1 12.05 31.05 11.9 31.1 11.75 31.2 11.6 31.35 11.45 31.55 11.3 31.6 11.2 31.6 10.75 31.6 9.6 31.6 8.65 31.6 8.05 31.55 7.9 31.5 7.8 31.5 7.65 31.5 7.5 31.25 7.6 30.85 7.7 30.6 7.6 30.5 7.6 30.35 7.5 30.25 7.35 30.15 7.2 30.1 7.05 30.0 6.9 29.95 6.8 29.9 6.65 29.85 6.5 29.85 6.35 29.85 6.2 29.8 5.95 29.75 5.8 29.75 5.65 29.7 5.5 29.65 5.35 29.55 5.2 29.5 5.1 29.4 4.95 29.35 4.8 29.3 4.65 29.2 4.5 29.15 4.35 29.1 4.25 29.05 4.1 29.0 3.95 28.95 3.8 28.9 3.65 28.85 3.5 28.8 3.35 28.75 3.25 28.65 3.1 28.6 2.95 28.5 2.8 28.4 2.65 28.35 2.5 28.05 2.1 27.6 1.65 27.4 1.4 27.3 1.4 27.15 1.8 26.95 2.5 26.8 3.1 26.7 3.35 26.6 3.5 26.55 3.65 26.45 3.8 26.4 3.95 26.3 4.1 26.25 4.25 26.15 4.35 25.95 4.5 25.55 4.6 25.4 4.6 25.1 4.55 25.0 4.5 24.85 4.4 24.7 4.25 24.55 4.15 24.5 4.0 24.45 3.85 24.4 3.7 24.35 3.55 24.25 3.4 24.2 3.3 24.1 3.15 24.05 3.0 23.9 2.85 23.5 2.4 23.3 2.15 23.2 2.0 23.1 2.0 23.1 2.3 23.1 2.85 23.1 3.3 23.1 3.55 23.1 3.7 23.05 3.85 23.0 4.0 22.9 4.15 22.7 4.25 22.35 4.35 22.05 4.3 21.95 4.25 21.85 4.2 21.2 3.45 20.75 2.9 20.45 2.6 20.2 2.5 19.9 2.4 19.85 2.45 19.85 3.0 19.85 3.4 19.85 3.7 19.85 3.85 19.85 4.0 19.8 4.15 19.65 4.25 19.45 4.4 19.15 4.5 18.9 4.45 18.8 4.4 18.65 4.3 18.3 4.25 18.2 4.15 18.0 4.0 17.85 3.85 17.65 3.7 17.55 3.55 17.05 3.15 16.8 2.85 16.6 2.7 16.45 2.55 16.1 2.6 15.85 2.55 15.75 2.45 15.65 2.35 15.6 2.2 15.55 2.05 15.6 1.9 15.7 1.75 15.9 1.6 16.1 1.5 16.45 1.4 16.65 1.35 16.9 1.4 17.0 1.45 17.1 1.55 17.25 1.65 17.35 1.8 17.6 1.9 17.7 1.95 17.8 2.05 17.95 2.2 18.05 2.35 18.25 2.45 18.3 2.45 18.4 2.45 18.4 2.3 18.4 2.15 18.4 2.0 18.4 1.85 18.4 1.7 18.4 1.55 18.4 1.45 18.35 1.3 18.4 1.15 18.5 1.0 18.6 0.85 18.8 0.7 19.15 0.65 19.7 0.65 20.05 0.7 20.35 0.85 20.95 1.15 21.2 1.3 21.4 1.45 21.6 1.45 21.6 1.4 21.6 1.25 21.6 1.1 21.6 0.95 21.65 0.8 21.7 0.65 21.75 0.55 21.85 0.4 21.95 0.25 22.2 0.1 22.55 0.0 22.9 0.0 23.2 0.05 24.25 0.85 24.95 1.7 25.35 2.1 25.4 1.9 25.5 1.6 25.6 1.35 25.65 1.2 25.7 1.05 25.7 0.9 25.7 0.75 25.7 0.65 25.8 0.5 25.85 0.35 25.9 0.2 26.0 0.05 26.05 -0.1 26.2 -0.25 26.35 -0.35 26.5 -0.5 26.9 -0.6" fill="#333333" fill-rule="evenodd" stroke="none"/>
    <path d="M30.75 12.15 L30.8 12.25 30.85 12.4 30.9 12.55 31.0 12.7 31.1 12.85 31.2 13.0 31.2 13.15 31.2 13.25 31.2 13.4 31.25 13.55 31.25 13.7 31.25 13.85 31.25 14.0 31.25 14.1 31.3 14.25 31.3 14.55 31.3 15.4 31.3 16.1 31.3 16.7 31.25 16.8 31.15 16.95 31.1 17.1 30.95 17.25 30.75 17.5 30.65 17.65 30.45 17.8 30.1 17.9 29.9 17.9 29.7 17.85 29.6 17.8 29.45 17.7 29.35 17.6 29.3 17.45 29.25 17.3 29.2 17.15 29.15 17.0 29.05 16.85 29.0 16.7 28.85 16.45 28.75 16.3 28.6 16.2 28.55 16.15 28.55 16.7 28.55 17.15 28.55 17.6 28.55 17.85 28.4 18.3 28.3 18.7 28.15 19.15 28.05 19.4 28.0 19.55 27.95 19.7 27.8 19.85 27.6 20.0 26.7 20.1 26.0 20.1 25.8 20.0 25.45 19.85 25.3 19.7 24.95 19.4 24.8 19.3 24.7 19.2 24.6 19.35 24.55 19.45 24.45 19.6 24.35 19.75 24.1 19.9 23.9 20.05 23.65 20.2 23.3 20.3 22.35 20.3 22.0 20.2 21.8 20.05 21.55 19.9 21.35 19.8 21.25 19.85 21.25 20.15 21.25 20.4 21.25 20.7 21.25 21.0 21.2 21.15 21.15 21.25 21.0 21.4 20.85 21.55 20.45 21.65 Q19.5 21.75 18.75 21.15 L17.85 20.45 17.85 20.6 17.8 20.75 17.75 20.9 17.6 21.05 17.4 21.2 17.05 21.25 15.9 21.25 15.55 21.2 15.35 21.05 15.0 20.75 14.9 20.6 14.8 20.45 14.75 20.3 14.65 20.2 14.65 20.05 14.55 19.9 14.5 19.75 14.4 19.6 14.35 19.45 14.3 19.35 14.25 19.2 14.2 19.05 14.2 18.9 14.25 18.75 14.3 18.6 14.4 18.5 14.5 18.35 14.65 18.2 14.95 18.1 15.2 18.15 15.3 18.2 15.45 18.3 15.55 18.45 15.6 18.55 15.7 18.7 15.75 18.85 15.9 19.0 15.95 19.15 16.05 19.3 16.1 19.4 16.2 19.55 16.25 19.55 16.25 19.0 16.25 18.55 16.25 18.15 16.25 17.85 16.35 17.7 16.4 17.6 16.45 17.45 16.65 17.3 17.05 17.2 17.3 17.25 17.4 17.3 17.55 17.4 17.7 17.55 17.8 17.65 17.85 17.8 17.9 17.95 18.25 18.4 18.9 19.1 19.4 19.65 19.6 19.75 19.65 19.7 19.65 19.55 19.65 19.4 19.65 19.3 19.65 19.15 19.6 19.0 19.55 18.85 19.5 18.7 19.5 18.55 19.5 18.3 19.5 18.0 19.5 17.85 19.5 17.7 19.55 17.6 19.65 17.45 19.75 17.3 19.95 17.15 20.25 17.05 20.55 17.1 20.65 17.15 20.85 17.25 21.1 17.4 21.5 17.8 21.95 18.25 22.45 18.65 23.1 18.7 23.25 18.6 23.3 18.5 23.3 17.9 23.3 17.5 23.3 17.05 23.3 16.75 23.35 16.65 23.45 16.5 23.55 16.35 23.7 16.2 24.05 16.1 24.35 16.15 24.5 16.25 24.65 16.4 24.75 16.55 24.8 16.7 24.85 16.8 24.95 16.95 25.05 17.1 25.1 17.25 25.4 17.65 25.8 18.1 26.25 18.5 26.8 18.55 26.9 18.5 26.95 18.35 27.0 18.05 27.05 17.9 27.1 17.75 27.15 17.6 27.15 17.2 27.15 16.65 27.15 16.2 27.15 15.8 27.15 15.65 27.2 15.5 27.25 15.35 27.25 15.2 27.3 15.05 27.3 14.95 27.3 14.8 27.3 14.65 27.3 14.5 27.35 14.35 27.45 14.2 27.55 14.1 27.7 13.95 27.9 13.8 28.2 13.7 28.45 13.75 28.75 13.85 28.95 14.0 29.15 14.25 29.3 14.4 29.4 14.55 29.5 14.7 29.55 14.85 29.6 14.95 29.65 15.1 29.7 15.25 29.8 15.4 29.85 15.55 29.9 15.7 30.05 15.75 30.05 15.3 30.05 15.0 30.05 14.6 30.05 14.3 30.1 14.15 30.1 14.05 30.1 13.9 30.1 13.75 30.1 13.6 30.15 13.45 30.15 13.3 30.15 13.15 30.15 13.05 30.15 12.9 30.05 12.75 30.0 12.6 29.85 12.45 29.7 12.3 29.65 12.2 29.7 12.05 29.85 11.9 30.1 11.8 30.3 11.75 30.3 11.8 30.6 11.85 30.7 12.0 30.75 12.15" fill="#333333" fill-rule="evenodd" stroke="none"/>
  </g>
</svg>
