<?xml version="1.0" encoding="UTF-8" standalone="no"?>
<svg xmlns:xlink="http://www.w3.org/1999/xlink" height="21.3px" width="21.15px" xmlns="http://www.w3.org/2000/svg">
  <g transform="matrix(1.0, 0.0, 0.0, 1.0, 8.6, 11.25)">
    <path d="M-3.6 -11.05 L-1.5 -11.15 -1.2 -11.25 2.3 -11.25 2.55 -11.2 3.15 -11.1 4.45 -10.8 5.85 -10.55 6.1 -10.5 6.35 -10.45 6.6 -10.35 7.7 -10.25 8.1 -10.2 8.3 -10.05 8.55 -9.95 8.8 -9.9 8.9 -9.85 9.05 -9.75 9.35 -9.5 9.55 -9.35 9.7 -9.2 9.95 -9.05 10.2 -8.75 10.4 -8.5 10.6 -8.2 11.05 -7.75 11.2 -7.6 11.3 -7.5 11.35 -7.35 11.4 -7.2 11.5 -7.05 11.55 -6.9 11.6 -6.75 11.65 -6.65 11.7 -6.5 11.75 -6.35 11.85 -6.2 11.9 -6.05 11.95 -5.9 12.05 -5.8 12.1 -5.65 12.15 -5.5 12.2 -5.35 12.25 -5.2 12.3 -5.05 12.35 -4.9 12.45 -4.8 12.5 -4.65 12.5 -4.5 12.5 -4.35 12.5 -4.2 12.55 -4.05 12.55 -3.65 12.55 -2.5 12.55 -1.95 12.55 -1.25 12.55 -0.5 12.55 -0.4 12.55 -0.25 12.55 -0.1 12.5 0.05 12.4 0.2 12.35 0.35 12.35 0.45 12.35 0.6 12.35 0.9 12.35 1.2 12.35 1.35 12.35 1.45 12.35 1.6 12.3 1.75 12.2 1.9 12.2 2.05 12.15 2.2 12.1 2.3 12.0 2.45 11.7 2.75 11.45 3.05 11.35 3.2 11.2 3.3 11.1 3.45 11.05 3.6 10.95 3.75 10.85 3.9 10.75 4.05 10.65 4.15 10.6 4.3 10.45 4.45 10.35 4.6 10.2 4.75 10.05 4.85 9.85 5.0 9.75 5.15 9.65 5.3 9.55 5.45 9.5 5.6 9.35 5.75 9.2 5.85 9.05 6.0 8.9 6.15 8.75 6.3 8.55 6.45 8.35 6.6 8.2 6.7 8.15 6.85 8.1 7.0 7.95 7.15 7.75 7.3 7.4 7.4 7.0 7.5 6.65 7.6 Q5.6 8.0 4.65 8.5 3.2 9.3 1.6 9.65 L0.6 9.95 0.2 10.05 -5.5 10.0 -5.75 10.0 -5.95 9.9 -6.25 9.8 -6.55 9.75 -6.7 9.65 -7.1 9.55 -7.2 9.5 -7.35 9.4 -7.4 9.3 -7.5 9.15 -7.55 9.0 -7.6 8.85 -7.6 8.7 -7.6 8.45 -7.6 8.3 -7.6 8.15 -7.6 8.0 -7.6 7.85 -7.65 7.7 -7.7 7.6 -7.8 7.45 -7.8 7.3 -7.8 7.15 -7.7 7.0 -7.65 6.85 -7.55 6.7 -7.4 6.6 -7.0 6.5 -5.85 6.5 -5.6 6.55 -5.4 6.65 -4.9 6.7 -4.65 6.75 -4.35 6.75 -2.5 6.7 -0.25 6.1 Q2.9 5.2 5.8 3.5 L7.65 2.15 7.95 1.85 8.2 1.7 8.55 1.6 8.65 1.55 8.7 1.45 8.75 1.35 8.8 1.2 8.9 0.9 9.0 0.6 9.1 0.35 9.25 -0.1 9.3 -0.25 9.35 -0.4 9.4 -0.5 9.35 -0.65 9.3 -0.8 9.3 -0.95 9.3 -1.25 9.3 -1.5 9.3 -1.8 9.3 -2.1 9.3 -2.5 9.3 -2.65 9.3 -2.8 9.3 -2.95 9.2 -3.05 9.05 -3.2 8.85 -3.35 8.75 -3.5 8.65 -3.65 8.6 -3.8 8.55 -3.95 8.5 -4.05 8.45 -4.2 8.4 -4.35 8.3 -4.5 8.2 -4.65 8.0 -4.8 7.8 -4.95 7.6 -5.05 7.4 -5.35 7.25 -5.5 7.15 -5.65 7.05 -5.8 6.95 -5.9 6.9 -6.05 6.7 -6.35 6.45 -6.6 6.3 -6.8 6.2 -6.9 6.05 -7.05 4.95 -7.2 4.65 -7.25 3.8 -7.3 3.5 -7.35 3.3 -7.45 2.4 -7.55 -4.55 -7.65 -4.85 -7.75 -5.05 -7.9 -5.15 -8.05 -5.25 -8.2 -5.3 -8.35 -5.35 -8.45 -5.55 -8.45 -6.45 -8.0 -6.7 -7.9 -6.9 -7.75 -7.1 -7.6 -7.4 -7.55 -7.65 -7.6 -7.75 -7.6 -7.9 -7.7 -8.05 -7.85 -8.15 -8.0 -8.15 -8.15 -8.2 -8.3 -8.15 -8.4 -8.15 -8.55 -8.1 -8.7 -8.05 -8.85 -7.05 -9.6 -4.25 -10.9 -3.6 -11.05" fill="#d1d0a5" fill-rule="evenodd" stroke="none"/>
    <path d="M6.15 -6.5 L6.35 -6.4 6.75 -6.3 6.9 -6.2 7.05 -6.05 7.3 -5.9 7.55 -5.8 7.7 -5.65 7.8 -5.5 7.95 -5.35 8.2 -5.05 8.3 -4.9 8.35 -4.8 8.45 -4.65 8.55 -4.5 8.65 -4.35 8.7 -4.2 8.8 -4.05 8.85 -3.95 8.9 -3.8 8.9 -3.5 8.9 -3.35 8.9 -3.2 8.9 -3.1 8.9 -2.8 8.9 -2.65 8.95 -2.5 8.95 -2.35 8.95 -2.2 8.95 -2.1 8.95 -1.65 8.95 -1.35 8.95 -1.25 8.95 -1.1 8.95 -0.8 8.95 -0.65 8.9 -0.5 8.8 -0.4 8.8 -0.25 8.75 -0.1 8.7 0.05 8.6 0.2 8.5 0.35 8.45 0.45 8.35 0.6 8.3 0.75 8.15 0.9 8.0 1.05 7.85 1.2 7.7 1.35 7.4 1.5 7.2 1.6 7.05 1.75 7.0 1.9 6.9 2.05 6.85 2.2 6.75 2.3 6.6 2.45 6.35 2.6 6.15 2.75 6.0 2.9 5.7 3.15 5.45 3.3 5.15 3.45 5.05 3.5 4.9 3.65 4.75 3.8 4.55 3.95 4.25 4.05 4.15 4.05 3.7 4.3 3.4 4.45 3.05 4.5 2.35 4.6 2.15 4.65 1.35 4.9 1.05 4.95 0.85 5.05 0.6 5.2 0.2 5.3 -0.55 5.5 -0.75 5.55 -0.95 5.65 -1.3 5.75 -5.6 5.65 -5.65 5.65 -5.8 5.55 -7.4 5.4 -7.8 5.35 -8.0 5.2 -8.1 5.05 -8.15 4.95 -8.2 4.8 -8.25 4.65 -8.25 4.5 -8.25 4.35 -8.25 4.2 -8.3 4.05 -8.35 3.95 -8.4 3.8 -8.4 3.65 -8.4 3.5 -8.5 3.35 -8.55 3.2 -8.6 3.1 -8.6 2.25 -8.6 1.35 -8.6 1.1 -8.6 0.4 -8.6 0.25 -8.6 -0.2 -8.6 -0.35 -8.55 -0.45 -8.5 -0.6 -8.5 -0.75 -8.45 -0.9 -8.4 -1.05 -8.4 -1.2 -8.4 -1.3 -8.4 -1.45 -8.4 -1.6 -8.4 -1.75 -8.4 -1.9 -8.4 -2.05 -8.35 -2.15 -8.35 -2.3 -8.3 -2.45 -8.3 -2.6 -8.25 -2.75 -8.25 -2.9 -8.15 -3.05 -8.1 -3.15 -8.05 -3.3 -8.05 -3.45 -8.05 -3.6 -8.05 -3.75 -8.05 -3.9 -8.0 -4.0 -7.95 -4.15 -7.9 -4.3 -7.85 -4.45 -7.85 -4.6 -7.85 -4.75 -7.8 -4.9 -7.75 -5.0 -7.65 -5.15 -7.55 -5.3 -7.5 -5.45 -7.4 -5.6 -7.4 -5.75 -7.35 -5.85 -7.2 -6.0 -7.0 -6.15 -6.6 -6.25 -6.45 -6.25 -4.8 -6.2 -4.7 -6.2 -4.55 -6.3 -4.3 -6.45 -3.95 -6.55 -2.5 -6.6 -2.05 -6.65 5.7 -6.65 5.95 -6.65 6.15 -6.5" fill="#ffffff" fill-rule="evenodd" stroke="none"/>
  </g>
</svg>
