<?xml version="1.0" encoding="UTF-8" standalone="no"?>
<svg xmlns:xlink="http://www.w3.org/1999/xlink" height="10.3px" width="29.95px" xmlns="http://www.w3.org/2000/svg">
  <g transform="matrix(1.0, 0.0, 0.0, 1.0, 13.65, 5.75)">
    <path d="M5.8 -5.15 L5.0 -2.7 Q4.15 -0.35 3.95 -0.35 3.75 -0.35 3.7 -0.5 L3.7 -0.65 4.6 -3.1 Q5.0 -4.85 5.7 -5.4 L5.8 -5.15" fill="#333333" fill-rule="evenodd" stroke="none"/>
    <path d="M16.3 2.2 Q16.3 2.65 15.2 2.85 L12.9 3.35 9.8 4.1 9.55 4.0 9.55 3.9 12.45 2.9 15.75 1.9 Q16.3 1.9 16.3 2.2" fill="#333333" fill-rule="evenodd" stroke="none"/>
    <path d="M-3.7 -1.2 L-3.8 -1.15 Q-7.05 -4.65 -7.05 -5.35 -7.05 -6.1 -6.55 -5.4 L-5.45 -3.85 -3.6 -1.45 -3.7 -1.2" fill="#333333" fill-rule="evenodd" stroke="none"/>
    <path d="M-8.5 4.55 Q-8.7 4.35 -10.5 3.45 -12.45 2.5 -12.95 2.5 L-13.2 2.6 Q-13.5 2.6 -13.65 2.0 -13.65 1.5 -11.0 2.65 -8.4 3.75 -8.4 4.2 L-8.5 4.55" fill="#333333" fill-rule="evenodd" stroke="none"/>
  </g>
</svg>
