<?xml version="1.0" encoding="UTF-8" standalone="no"?>
<svg xmlns:xlink="http://www.w3.org/1999/xlink" height="20.0px" width="20.0px" xmlns="http://www.w3.org/2000/svg">
  <g transform="matrix(1.0, 0.0, 0.0, 1.0, 0.0, 0.0)">
    <path d="M0.0 10.0 Q0.0 5.9 2.95 2.95 5.9 0.0 10.0 0.0 14.15 0.0 17.1 2.95 20.0 5.85 20.0 10.0 20.0 14.15 17.1 17.1 14.15 20.0 10.0 20.0 5.85 20.0 2.95 17.1 0.0 14.15 0.0 10.0" fill="#93c7b7" fill-rule="evenodd" stroke="none"/>
    <path d="M12.25 5.25 Q12.55 5.0 12.7 4.9 L13.3 4.8 12.9 5.2 13.75 5.0 14.0 5.1 13.65 5.4 12.75 5.7 Q13.8 5.7 14.65 6.35 15.55 7.05 15.85 8.3 L15.9 8.5 16.1 8.55 17.6 8.5 Q17.55 9.0 16.35 9.25 L16.1 9.3 16.35 9.35 17.7 9.45 16.95 9.95 15.95 10.15 Q15.65 11.35 14.85 12.35 L13.1 13.8 10.5 14.75 7.7 14.85 5.1 14.0 Q3.85 13.3 3.0 12.1 4.2 13.05 5.65 13.05 7.25 13.05 8.45 11.9 L7.75 11.75 7.45 11.4 7.5 11.0 7.9 10.6 6.9 10.45 6.25 9.9 6.2 9.7 6.35 9.55 Q6.6 9.35 7.15 9.3 6.5 9.15 6.1 8.8 5.7 8.5 5.6 8.05 L5.55 7.85 5.7 7.8 6.4 7.7 5.6 7.05 5.2 6.25 Q5.15 5.9 5.25 5.9 L5.6 6.0 Q7.25 6.65 8.1 7.1 L10.1 8.45 10.85 6.6 11.8 5.35 12.3 4.9 12.25 5.25" fill="#ffffff" fill-rule="evenodd" stroke="none"/>
  </g>
</svg>
