<?xml version="1.0" encoding="UTF-8" standalone="no"?>
<svg xmlns:xlink="http://www.w3.org/1999/xlink" height="82.3px" width="462.75px" xmlns="http://www.w3.org/2000/svg">
  <g transform="matrix(1.0, 0.0, 0.0, 1.0, 11.05, 11.15)">
    <path d="M450.8 -10.15 L450.8 70.25 -10.15 70.25 -10.15 -10.15 450.8 -10.15" fill="#65b3a0" fill-opacity="0.14901961" fill-rule="evenodd" stroke="none"/>
    <path d="M6.5 -10.2 L4.6 -10.2 2.7 -10.15 0.95 -9.9 Q0.05 -9.65 -1.1 -9.9 L-3.05 -10.25 -5.05 -10.25 -7.15 -10.2 -8.65 -10.2 -10.15 -10.15 Q-9.9 -8.95 -10.05 -8.1 L-10.1 -6.2 Q-10.0 -5.15 -10.2 -3.95 -10.35 -2.7 -10.15 -1.9 -9.95 -1.1 -10.1 -0.25 L-10.1 1.6 -10.15 3.7 -10.25 6.05 Q-10.15 7.3 -10.3 8.0 L-10.5 9.85 -10.45 11.9 -10.0 13.85 Q-9.7 14.85 -9.95 15.8 L-10.1 17.85 Q-9.95 18.9 -10.1 19.8 L-10.05 21.65 Q-9.8 22.6 -10.05 23.55 L-10.2 25.5 -9.9 27.9 Q-9.65 29.3 -10.0 30.05 -10.3 30.8 -10.25 31.6 L-10.1 33.45 Q-10.05 34.55 -10.3 35.7 -10.55 36.9 -10.2 38.05 -9.8 39.25 -10.0 40.05 L-10.2 41.85 Q-10.15 42.85 -10.4 43.9 -10.6 44.95 -10.35 45.9 -10.05 46.85 -10.1 47.7 L-10.15 49.7 -9.95 51.6 Q-9.75 52.4 -9.95 53.65 L-10.15 56.15 -9.9 58.1 Q-9.65 58.85 -9.85 59.75 L-10.2 61.75 -10.3 64.0 -10.25 65.9 -10.2 67.75 -10.0 69.4 Q-9.9 69.95 -10.15 70.25 L-8.2 70.15 -6.3 70.35 -4.4 70.3 -2.05 70.2 Q-0.75 70.0 0.0 70.2 L1.85 70.25 3.9 70.1 6.05 70.1 8.2 69.95 10.2 70.05 12.1 70.2 13.75 70.15 15.85 70.2 17.9 70.25 19.55 70.3 21.75 70.5 23.9 70.45 25.8 70.4 27.9 70.45 29.8 70.05 Q30.6 69.9 31.7 70.05 L33.85 70.4 35.7 70.45 37.7 70.1 Q38.85 69.95 40.05 70.1 L42.0 70.4 43.6 70.55 45.75 70.45 47.9 70.35 49.85 70.3 51.7 70.3 53.6 70.25 55.7 70.25 57.95 70.1 Q59.2 69.95 60.0 70.1 L61.85 70.25 63.7 70.35 65.65 70.35 67.55 70.3 69.6 70.3 71.75 70.2 73.65 70.05 75.6 70.1 77.85 70.0 Q79.15 69.8 79.75 70.0 80.4 70.2 81.65 70.0 L83.9 70.15 85.9 70.3 87.8 70.2 89.6 70.35 91.7 70.6 93.9 70.5 96.05 70.25 97.95 70.1 99.95 70.0 101.95 70.15 104.0 70.5 106.0 70.6 107.8 70.5 110.0 70.3 112.0 70.3 114.1 70.25 116.0 70.1 117.9 70.4 119.95 70.45 121.9 70.05 Q123.0 69.9 123.9 70.05 L125.8 70.45 Q126.85 70.65 127.95 70.45 L130.15 70.2 132.1 70.2 133.75 70.45 135.95 70.4 138.25 69.95 140.0 70.0 141.8 70.4 143.8 70.45 145.75 70.25 147.8 70.2 149.9 70.25 151.9 70.3 153.95 70.2 156.1 70.25 157.95 70.2 159.8 70.2 161.85 70.25 163.9 70.15 165.85 70.05 167.75 70.1 169.8 70.2 171.85 70.25 173.8 70.35 175.75 70.4 177.8 70.3 179.7 70.3 181.7 70.3 183.8 70.15 185.95 70.15 188.15 70.2 190.05 70.2 191.85 70.3 194.05 70.5 Q195.25 70.75 196.05 70.5 L198.0 70.25 200.1 70.25 202.1 70.35 203.9 70.15 205.75 70.1 207.75 70.3 209.95 70.45 212.2 70.55 213.95 70.35 215.7 70.25 217.7 70.05 Q218.85 69.9 219.75 70.05 L222.0 70.25 223.9 70.2 225.65 70.45 227.9 70.3 229.75 70.05 231.75 70.2 233.9 70.25 235.95 70.05 Q237.05 69.85 238.0 70.05 L240.0 70.5 241.95 70.45 243.9 70.05 245.9 69.8 248.05 69.9 250.0 70.1 252.0 70.1 254.05 70.15 255.85 70.1 Q256.85 69.95 257.8 70.1 L259.85 70.35 261.95 70.4 264.1 70.25 266.05 70.05 267.85 70.1 269.95 70.25 271.95 70.05 Q272.85 69.85 273.85 70.05 L276.0 70.25 278.05 70.25 280.0 70.2 281.95 70.2 284.0 70.25 286.0 70.25 288.1 70.2 290.1 70.2 291.85 70.35 293.95 70.3 295.7 70.1 297.7 70.1 300.0 70.15 301.95 70.3 303.9 70.1 305.8 69.95 307.65 70.0 309.8 70.1 311.95 70.25 313.9 70.5 Q315.0 70.75 315.85 70.5 L317.85 70.3 319.95 70.1 321.95 69.95 323.9 69.95 325.95 70.2 327.8 70.55 329.55 70.4 331.6 70.3 333.7 70.5 335.75 70.4 337.7 70.0 339.7 70.05 341.85 70.4 343.85 70.35 345.9 70.45 Q347.0 70.7 348.0 70.45 L349.85 70.1 351.9 70.0 353.95 70.2 355.85 70.25 357.85 70.25 359.85 70.2 361.95 70.15 364.2 70.2 366.15 70.2 368.05 70.2 369.95 70.3 371.75 70.35 373.7 70.25 375.65 70.25 377.75 70.25 379.9 70.25 381.9 70.2 383.8 70.25 385.6 70.45 387.8 70.4 390.0 70.15 392.05 70.15 394.05 70.15 395.85 70.3 397.85 70.25 400.05 70.2 402.15 70.35 404.0 70.25 405.95 70.15 407.7 70.1 409.55 70.2 412.0 70.25 414.15 70.45 416.15 70.45 418.05 70.15 419.65 69.95 421.45 70.05 423.7 70.1 425.9 69.85 427.65 69.95 429.65 70.2 431.75 70.25 433.6 70.2 435.6 70.2 437.7 70.25 440.0 70.35 442.05 70.2 443.85 70.25 445.95 70.45 448.15 70.3 449.4 70.25 450.8 70.25 451.0 68.05 451.1 66.2 450.95 64.5 450.85 62.45 451.1 60.1 Q451.3 58.95 451.1 57.9 L450.85 56.05 450.6 54.05 Q450.4 52.9 450.75 52.05 451.1 51.25 450.95 50.4 L450.8 48.55 450.8 46.3 450.65 44.05 450.65 42.2 450.75 40.0 450.75 38.05 450.7 36.35 450.65 34.45 450.7 32.4 450.9 30.3 Q451.1 29.4 450.95 28.3 L450.8 26.2 450.55 24.2 Q450.35 23.25 450.65 22.5 451.0 21.75 450.9 20.7 L450.55 18.45 Q450.3 17.3 450.75 16.45 451.2 15.65 451.05 14.5 L450.9 12.2 450.95 10.35 450.7 8.65 Q450.4 7.65 450.6 6.3 L450.7 4.1 450.7 2.15 450.9 0.15 450.9 -1.85 450.85 -3.85 450.7 -5.8 Q450.45 -6.8 450.6 -7.8 L450.75 -9.15 450.8 -10.15 448.85 -10.0 446.95 -10.25 445.1 -10.3 442.9 -10.15 440.8 -10.1 438.9 -10.15 436.8 -10.1 434.7 -10.35 Q433.8 -10.6 432.7 -10.35 L430.55 -10.15 428.6 -10.15 426.75 -10.25 424.85 -10.1 422.85 -9.95 421.0 -10.1 419.1 -10.1 416.75 -10.15 414.65 -10.2 412.95 -10.15 410.9 -10.0 408.9 -9.95 406.95 -10.35 404.9 -10.65 402.9 -10.55 400.7 -10.3 Q399.6 -10.15 398.65 -10.3 L396.55 -10.4 394.35 -10.25 392.4 -10.4 390.5 -10.45 388.75 -10.0 387.0 -9.9 384.9 -10.3 382.6 -10.35 380.65 -10.1 378.85 -10.15 376.65 -10.3 374.5 -10.2 372.8 -10.15 370.95 -10.15 369.0 -10.2 367.15 -10.2 364.8 -10.35 362.7 -10.35 360.95 -10.05 358.8 -9.85 356.75 -9.75 355.0 -9.9 353.05 -10.4 350.85 -10.6 349.0 -10.45 346.95 -10.25 344.65 -10.4 Q343.5 -10.6 342.7 -10.4 L340.85 -10.15 338.9 -10.2 336.9 -10.25 334.9 -10.25 333.15 -10.3 330.95 -10.05 328.45 -9.95 326.55 -10.15 324.8 -10.05 322.75 -9.95 320.75 -10.2 318.75 -10.35 316.8 -10.2 314.85 -10.15 313.0 -10.15 311.0 -10.05 308.85 -9.95 306.85 -10.05 304.9 -10.15 302.95 -10.4 Q301.95 -10.6 300.85 -10.4 L298.85 -10.2 297.0 -10.2 295.15 -10.35 Q294.25 -10.55 293.0 -10.35 L290.55 -10.05 288.55 -10.05 286.8 -10.2 284.8 -10.15 282.8 -10.3 280.75 -10.55 278.75 -10.25 276.8 -9.85 274.65 -10.05 272.65 -10.2 270.85 -10.15 268.9 -10.15 266.75 -10.15 264.75 -10.0 263.1 -10.05 261.05 -9.95 Q259.85 -9.65 258.9 -9.95 L256.85 -10.2 254.75 -10.35 252.75 -10.3 250.8 -10.15 248.9 -10.2 246.85 -10.3 244.9 -10.15 243.0 -10.05 241.05 -10.15 239.1 -10.15 237.15 -10.0 235.25 -10.25 232.9 -10.65 230.7 -10.45 228.7 -10.3 226.7 -10.15 224.8 -9.9 222.9 -9.95 220.85 -10.3 218.7 -10.05 216.7 -9.85 214.85 -9.9 Q213.9 -9.75 212.9 -10.2 L210.85 -10.6 208.65 -10.45 206.85 -10.35 205.05 -10.3 202.9 -10.15 200.7 -9.95 Q199.6 -9.75 198.65 -9.95 L196.55 -10.3 194.6 -10.25 192.95 -10.1 190.8 -9.95 188.65 -9.75 186.8 -10.05 185.0 -10.25 182.85 -9.95 180.6 -9.7 178.75 -9.9 176.7 -10.25 174.7 -10.1 172.75 -10.0 170.6 -10.15 168.85 -10.2 166.85 -10.25 164.6 -10.3 162.75 -10.25 160.8 -10.15 158.8 -10.2 156.7 -10.3 154.8 -10.1 Q153.95 -9.9 152.75 -10.1 L150.65 -10.3 148.7 -10.35 146.7 -10.25 144.9 -10.2 142.8 -10.1 140.65 -10.0 138.75 -10.0 136.75 -10.15 134.8 -10.25 132.55 -10.2 130.6 -10.15 129.05 -10.05 127.1 -10.0 124.7 -10.3 Q123.35 -10.6 122.6 -10.3 L120.75 -10.15 118.9 -10.05 117.1 -10.2 115.0 -10.3 113.05 -10.0 111.0 -10.05 108.8 -10.3 106.8 -10.15 104.9 -10.05 103.1 -10.4 Q102.2 -10.6 100.85 -10.4 99.55 -10.15 98.55 -10.4 L96.8 -10.55 94.95 -10.3 92.8 -10.35 90.75 -10.15 Q89.8 -9.7 88.9 -9.7 L86.95 -9.8 84.85 -10.2 82.55 -10.25 80.6 -10.2 78.8 -10.3 76.8 -10.1 74.8 -10.15 72.75 -10.1 70.65 -10.05 68.8 -10.0 66.9 -9.95 64.7 -10.05 62.7 -10.0 60.8 -10.15 58.8 -10.25 56.95 -10.15 54.95 -10.15 52.85 -10.2 50.8 -10.2 48.85 -10.15 46.7 -10.3 44.55 -10.1 42.75 -9.8 40.8 -10.1 38.85 -10.05 36.95 -9.95 35.0 -10.2 32.85 -9.95 30.7 -10.0 28.6 -10.1 26.6 -10.15 24.8 -10.05 22.8 -9.9 20.8 -10.1 19.05 -10.0 17.05 -10.0 15.0 -10.1 12.85 -9.9 10.65 -9.75 8.6 -10.0 6.5 -10.2 Z" fill="none" stroke="#65b3a0" stroke-linecap="round" stroke-linejoin="round" stroke-opacity="0.14901961" stroke-width="1.0"/>
  </g>
</svg>
