<?xml version="1.0" encoding="UTF-8" standalone="no"?>
<svg xmlns:xlink="http://www.w3.org/1999/xlink" height="52.0px" width="48.8px" xmlns="http://www.w3.org/2000/svg">
  <g transform="matrix(1.0, 0.0, 0.0, 1.0, -5.85, -4.0)">
    <path d="M31.05 40.0 L31.65 40.0 Q32.35 43.6 30.4 48.1 33.05 44.85 37.75 43.55 39.05 45.5 39.05 48.0 39.05 51.3 36.7 53.6 34.35 56.0 31.05 56.0 27.75 56.0 25.35 53.6 23.05 51.3 23.05 48.0 23.05 44.65 25.35 42.3 27.75 40.0 31.05 40.0" fill="#90c7b7" fill-rule="evenodd" stroke="none"/>
    <path d="M15.05 18.4 L15.8 18.45 Q16.6 22.6 14.3 27.75 17.35 24.0 22.75 22.5 24.25 24.75 24.25 27.6 24.25 31.4 21.55 34.1 18.9 36.8 15.05 36.8 11.25 36.8 8.55 34.1 5.85 31.4 5.85 27.6 5.85 23.8 8.55 21.1 11.25 18.4 15.05 18.4" fill="#90c7b7" fill-rule="evenodd" stroke="none"/>
    <path d="M43.4 4.05 Q44.45 9.55 41.45 16.4 45.5 11.4 52.65 9.45 54.65 12.4 54.65 16.2 54.65 21.25 51.05 24.8 47.5 28.4 42.45 28.4 37.4 28.4 33.8 24.8 30.25 21.25 30.25 16.2 30.25 11.15 33.8 7.55 37.4 4.0 42.45 4.0 L43.4 4.05" fill="#90c7b7" fill-rule="evenodd" stroke="none"/>
  </g>
</svg>
