<?xml version="1.0" encoding="UTF-8" standalone="no"?>
<svg xmlns:xlink="http://www.w3.org/1999/xlink" height="25.55px" width="47.8px" xmlns="http://www.w3.org/2000/svg">
  <g transform="matrix(1.0, 0.0, 0.0, 1.0, -6.3, -17.75)">
    <path d="M45.45 28.15 L45.4 28.0 45.45 28.0 45.25 27.3 45.25 25.3 45.3 24.35 Q45.3 23.95 45.45 23.65 45.6 23.15 46.0 22.85 L46.45 22.6 47.55 22.2 49.15 22.35 49.6 22.45 49.65 22.4 49.8 22.35 49.95 22.45 50.0 22.6 50.0 22.7 49.9 24.4 50.0 26.4 50.05 28.15 50.0 29.75 50.0 31.75 49.95 33.6 49.95 35.2 49.85 37.15 49.75 37.55 Q49.55 38.25 49.0 38.45 L48.85 38.5 47.45 38.75 46.4 38.5 46.05 38.25 Q45.7 37.85 45.45 36.9 45.2 36.05 45.3 35.1 L45.25 33.6 45.25 31.0 45.45 30.2 45.45 30.0 45.5 29.55 45.45 28.15 M46.3 23.2 Q45.8 23.65 45.75 24.4 L45.65 26.25 Q45.6 27.2 45.85 27.85 L45.95 29.6 45.65 31.3 Q45.45 31.95 45.6 33.0 L45.75 35.15 Q45.65 35.95 45.9 36.8 L46.45 37.95 Q46.7 38.3 47.45 38.3 L48.8 38.05 Q49.25 37.85 49.4 37.1 L49.5 35.2 49.5 33.55 49.55 31.75 49.55 29.7 49.6 28.15 49.55 26.4 49.45 24.45 Q49.4 23.65 49.5 22.9 L49.05 22.75 49.0 22.75 47.65 22.65 Q46.85 22.8 46.3 23.2 M50.2 32.9 L50.15 32.75 50.15 30.25 50.2 29.95 50.25 29.65 50.6 28.1 50.65 28.05 50.9 27.65 Q51.25 27.3 51.95 27.35 L53.1 27.65 53.45 27.85 53.5 27.9 53.8 28.35 54.1 29.3 54.05 30.7 54.05 33.1 54.0 33.25 53.85 33.35 51.9 33.65 Q50.7 33.7 50.35 33.1 L50.25 32.95 50.2 32.9 M52.3 33.1 L53.55 32.95 53.55 30.65 53.55 30.6 53.6 29.35 Q53.55 28.65 53.15 28.25 52.65 27.85 51.95 27.85 51.25 27.8 51.05 28.25 L50.7 29.75 50.45 31.55 50.45 32.0 50.65 32.75 Q50.75 33.05 51.1 33.1 L51.85 33.15 52.3 33.1 M20.3 18.5 L20.7 19.6 Q21.0 20.8 20.8 21.85 L20.55 23.65 20.45 25.3 20.6 27.15 20.45 28.9 Q20.3 29.25 20.3 29.7 L20.3 29.95 20.35 30.4 20.65 32.25 20.65 34.2 20.65 35.95 Q20.75 37.0 20.45 38.0 L20.3 38.7 20.3 39.5 20.35 39.8 20.55 41.75 20.3 42.75 19.75 43.1 19.65 43.1 18.0 43.3 16.85 43.1 16.45 42.8 15.95 41.85 15.85 41.3 15.75 39.65 15.8 38.1 Q15.75 37.2 15.95 36.25 L15.95 34.75 15.9 34.35 15.85 34.35 Q15.5 33.25 15.45 32.2 15.45 31.2 15.6 30.4 L15.75 28.75 15.55 27.0 15.4 25.3 15.6 23.4 15.9 21.45 15.95 21.45 15.95 21.35 15.95 20.25 15.9 20.1 15.9 20.05 Q15.75 19.35 15.75 17.95 L15.8 17.85 15.9 17.8 16.05 17.75 16.15 17.85 16.85 17.85 18.5 17.75 19.75 17.95 19.9 18.05 20.3 18.5 M20.3 19.95 L20.25 19.7 Q20.05 18.7 19.6 18.4 L18.55 18.2 18.5 18.2 16.9 18.3 16.2 18.35 16.4 19.95 Q16.6 20.8 16.4 21.55 L16.05 23.45 15.95 24.55 15.9 25.35 15.95 26.7 16.0 26.9 16.2 28.75 16.05 30.5 15.95 31.2 15.9 32.2 15.95 32.75 16.3 34.2 Q16.65 35.35 16.45 36.3 16.2 37.2 16.25 38.05 L16.2 39.7 16.3 41.2 16.8 42.55 Q17.15 42.95 18.0 42.85 L19.6 42.65 Q20.1 42.6 20.1 41.75 L19.9 39.9 Q19.7 38.9 20.0 37.85 L20.05 37.85 Q20.3 36.9 20.15 36.0 20.1 35.0 20.2 34.15 L20.15 32.35 19.9 30.5 Q19.75 29.55 20.0 28.75 L20.1 27.2 20.0 25.35 20.1 23.6 20.3 22.1 20.35 21.8 20.35 21.75 Q20.5 20.9 20.3 19.95 M10.05 31.6 L9.6 32.9 9.65 32.9 9.45 33.1 Q9.05 33.5 8.25 33.4 L7.2 33.1 6.75 32.75 6.45 32.1 6.3 31.05 6.4 29.2 6.45 29.0 6.7 27.95 6.75 27.95 6.9 27.65 Q7.25 27.3 8.15 27.45 L10.0 27.4 10.15 27.45 10.25 27.55 10.3 27.7 10.3 27.95 9.85 28.0 9.85 27.95 9.45 28.0 9.3 28.0 8.5 27.9 8.0 27.9 Q7.3 27.8 7.2 28.1 L6.85 29.3 6.75 31.05 Q6.8 32.05 7.15 32.5 7.5 32.9 8.3 32.95 L8.75 32.95 Q9.4 33.05 9.7 32.65 L9.7 32.6 10.05 31.6 10.1 31.3 10.1 31.25 10.2 30.65 10.1 31.35 10.05 31.6" fill="#ffffff" fill-rule="evenodd" stroke="none"/>
    <path d="M42.75 18.2 L44.0 18.15 44.75 18.2 Q44.45 19.25 44.5 19.95 L44.65 21.65 44.75 23.65 44.65 25.3 44.65 25.35 Q44.55 26.2 44.6 27.25 L44.7 29.1 44.7 30.7 44.85 32.55 44.85 32.6 45.0 33.25 45.0 34.0 44.95 34.25 44.95 34.3 44.85 36.3 44.9 38.35 44.9 39.8 44.45 41.6 44.4 41.6 43.9 42.75 43.85 42.75 42.6 43.1 41.8 43.1 41.4 42.85 41.45 42.85 41.0 41.3 Q40.9 40.3 41.05 39.6 41.2 38.85 40.8 37.8 L40.65 37.45 40.65 34.85 40.75 34.45 Q41.05 33.35 40.75 32.4 L40.65 32.05 40.65 30.65 40.65 27.9 40.9 27.1 Q41.25 25.95 41.05 25.05 L40.75 23.4 40.65 22.45 40.65 19.6 40.7 19.45 Q40.9 18.8 41.4 18.5 L42.75 18.2 M45.0 20.3 L44.95 19.95 45.0 19.1 45.0 20.3 M45.45 28.15 L45.5 29.55 45.45 30.0 45.45 28.15 M46.3 23.2 Q46.85 22.8 47.65 22.65 L49.0 22.75 49.05 22.75 49.5 22.9 Q49.4 23.65 49.45 24.45 L49.55 26.4 49.6 28.15 49.55 29.7 49.55 31.75 49.5 33.55 49.5 35.2 49.4 37.1 Q49.25 37.85 48.8 38.05 L47.45 38.3 Q46.7 38.3 46.45 37.95 L45.9 36.8 Q45.65 35.95 45.75 35.15 L45.6 33.0 Q45.45 31.95 45.65 31.3 L45.95 29.6 45.85 27.85 Q45.6 27.2 45.65 26.25 L45.75 24.4 Q45.8 23.65 46.3 23.2 M50.2 32.9 L50.25 32.95 50.35 33.1 50.2 33.1 50.2 32.9 M51.1 33.1 Q50.75 33.05 50.65 32.75 L50.45 32.0 50.45 31.55 50.7 29.75 51.05 28.25 Q51.25 27.8 51.95 27.85 52.65 27.85 53.15 28.25 53.55 28.65 53.6 29.35 L53.55 30.6 53.55 30.65 53.55 32.95 52.3 33.1 51.1 33.1 M19.75 17.95 L20.3 17.95 20.3 18.5 19.9 18.05 19.75 17.95 M20.3 42.75 L20.3 43.1 19.75 43.1 20.3 42.75 M15.95 24.55 L16.05 23.45 16.4 21.55 Q16.6 20.8 16.4 19.95 L16.2 18.35 16.9 18.3 18.5 18.2 18.55 18.2 19.6 18.4 Q20.05 18.7 20.25 19.7 L20.3 19.95 20.3 22.1 20.1 23.6 20.0 25.35 20.1 27.2 20.0 28.75 Q19.75 29.55 19.9 30.5 L20.15 32.35 20.2 34.15 Q20.1 35.0 20.15 36.0 20.3 36.9 20.05 37.85 L20.0 37.85 Q19.7 38.9 19.9 39.9 L20.1 41.75 Q20.1 42.6 19.6 42.65 L18.0 42.85 Q17.15 42.95 16.8 42.55 L16.3 41.2 16.2 39.7 16.25 38.05 Q16.2 37.2 16.45 36.3 16.65 35.35 16.3 34.2 L15.95 32.75 15.95 31.2 16.05 30.5 16.2 28.75 16.0 26.9 15.95 26.7 15.95 24.55 M11.25 22.8 L11.65 22.85 13.25 22.75 14.25 22.9 14.25 22.85 14.6 22.5 14.6 22.6 15.25 22.6 15.25 25.05 15.15 25.8 Q14.9 26.75 14.8 27.65 14.85 27.0 14.95 27.35 L15.05 26.8 15.05 28.45 15.1 29.75 15.25 30.45 15.25 31.4 15.2 31.7 15.15 33.45 15.15 35.15 15.1 37.05 Q15.05 37.7 14.6 38.1 L13.4 38.35 12.0 38.1 Q11.55 37.9 11.35 37.25 11.05 36.45 11.05 35.6 L11.15 33.85 11.05 31.9 11.0 31.5 11.0 30.45 11.05 29.95 11.15 28.15 11.2 26.4 11.2 24.45 Q11.1 23.6 11.25 22.8 M11.0 22.6 L11.25 22.6 11.0 22.65 11.0 22.6 M15.25 27.4 L15.25 28.7 15.2 27.8 15.25 27.4 M10.05 31.6 L9.7 32.6 9.7 32.65 Q9.4 33.05 8.75 32.95 7.95 32.9 7.6 32.5 7.25 32.05 7.2 31.05 L7.3 29.3 7.65 28.1 Q7.7 27.95 8.0 27.9 L8.5 27.9 9.3 28.0 9.45 28.0 9.85 28.0 10.3 27.95 10.25 29.85 10.25 29.9 10.25 30.5 10.2 30.65 10.1 31.25 10.1 31.3 10.05 31.6 M38.45 28.0 L39.95 27.9 39.8 28.45 39.8 29.95 39.8 31.75 Q39.75 32.45 39.35 32.65 L37.85 32.9 36.05 32.8 34.3 33.0 33.75 33.1 31.4 33.1 30.7 33.05 28.85 32.8 27.1 32.95 25.4 32.95 23.35 32.8 22.0 32.6 21.3 31.75 21.3 31.7 21.05 30.3 Q21.05 29.6 21.5 28.75 L21.5 28.8 Q21.9 27.95 22.4 27.85 L23.1 27.65 28.4 27.65 29.15 27.75 Q30.6 27.95 31.35 27.75 L32.0 27.65 32.5 27.65 32.95 27.7 34.75 28.0 36.55 28.15 38.45 28.0 M36.55 27.7 L35.4 27.65 37.35 27.65 36.55 27.7 M40.2 32.15 L40.2 33.1 39.55 33.1 Q40.1 32.85 40.2 32.15" fill="#90c7b7" fill-rule="evenodd" stroke="none"/>
  </g>
</svg>
