<?xml version="1.0" encoding="UTF-8" standalone="no"?>
<svg xmlns:xlink="http://www.w3.org/1999/xlink" height="50.95px" width="52.6px" xmlns="http://www.w3.org/2000/svg">
  <g transform="matrix(1.0, 0.0, 0.0, 1.0, -4.15, -2.6)">
    <path d="M43.4 27.85 L40.7 29.0 39.1 25.35 42.25 24.0 Q41.25 21.8 39.4 19.95 L38.15 18.85 37.95 18.65 36.8 21.55 33.05 20.05 34.4 16.7 Q32.1 15.85 29.45 15.85 L27.45 16.0 28.75 19.0 25.1 20.6 23.6 17.1 Q21.4 18.1 19.55 19.95 L18.1 21.65 21.3 22.9 19.8 26.65 16.2 25.25 Q15.45 27.4 15.45 29.85 L15.6 31.9 15.65 32.35 18.75 30.95 20.35 34.6 16.9 36.15 Q17.9 38.1 19.55 39.75 L21.45 41.35 21.5 41.4 22.65 38.4 26.4 39.9 25.1 43.2 29.45 43.85 30.8 43.8 31.9 43.65 30.7 40.95 34.35 39.35 35.7 42.45 Q37.7 41.45 39.4 39.75 L40.85 38.1 38.15 37.05 39.65 33.3 42.75 34.5 Q43.5 32.35 43.5 29.85 L43.4 27.85 M45.55 45.95 Q38.85 52.6 29.5 52.6 20.05 52.6 13.35 45.95 6.75 39.25 6.75 29.8 6.75 20.45 13.35 13.75 20.05 7.1 29.5 7.1 38.85 7.1 45.55 13.75 52.25 20.45 52.25 29.8 52.25 35.45 49.85 40.15 L48.7 42.15 46.75 44.7 45.9 45.6 45.55 45.95 M22.4 22.85 Q24.8 20.45 28.05 20.0 L29.45 19.95 Q32.95 19.95 35.65 22.1 L36.3 22.75 36.4 22.85 Q38.7 25.1 39.25 28.0 L39.4 29.85 Q39.4 32.95 37.75 35.35 L36.4 36.85 Q33.9 39.35 30.55 39.7 L29.45 39.75 Q26.1 39.75 23.65 37.9 L22.4 36.85 Q19.95 34.45 19.6 31.2 L19.5 29.85 Q19.5 26.65 21.3 24.2 L22.4 22.85 M29.45 22.25 L28.6 22.3 Q26.0 22.55 24.1 24.5 L23.75 24.9 Q21.9 27.0 21.9 29.85 L21.95 30.65 Q22.2 33.25 24.1 35.2 L24.75 35.8 Q26.75 37.4 29.45 37.4 L30.6 37.35 Q33.0 37.0 34.8 35.2 L35.3 34.7 Q37.05 32.6 37.05 29.85 L37.0 28.75 Q36.65 26.3 34.8 24.5 L34.3 24.05 Q32.25 22.25 29.45 22.25 32.25 22.25 34.3 24.05 L34.8 24.5 Q36.65 26.3 37.0 28.75 L37.05 29.85 Q37.05 32.6 35.3 34.7 L34.8 35.2 Q33.0 37.0 30.6 37.35 L29.45 37.4 Q26.75 37.4 24.75 35.8 L24.1 35.2 Q22.2 33.25 21.95 30.65 L21.9 29.85 Q21.9 27.0 23.75 24.9 L24.1 24.5 Q26.0 22.55 28.6 22.3 L29.45 22.25" fill="#93c7b7" fill-rule="evenodd" stroke="none"/>
    <path d="M55.4 40.6 L56.25 39.7 54.25 38.7 M22.4 22.85 Q24.8 20.45 28.05 20.0 L29.45 19.95 Q32.95 19.95 35.65 22.1 L36.3 22.75 36.4 22.85 Q38.7 25.1 39.25 28.0 L39.4 29.85 Q39.4 32.95 37.75 35.35 L36.4 36.85 Q33.9 39.35 30.55 39.7 L29.45 39.75 Q26.1 39.75 23.65 37.9 L22.4 36.85 Q19.95 34.45 19.6 31.2 L19.5 29.85 Q19.5 26.65 21.3 24.2 L22.4 22.85 M29.45 22.25 Q32.25 22.25 34.3 24.05 L34.8 24.5 Q36.65 26.3 37.0 28.75 L37.05 29.85 Q37.05 32.6 35.3 34.7 L34.8 35.2 Q33.0 37.0 30.6 37.35 L29.45 37.4 Q26.75 37.4 24.75 35.8 L24.1 35.2 Q22.2 33.25 21.95 30.65 L21.9 29.85 Q21.9 27.0 23.75 24.9 L24.1 24.5 Q26.0 22.55 28.6 22.3 L29.45 22.25 Z" fill="none" stroke="#ffffff" stroke-linecap="round" stroke-linejoin="round" stroke-width="1.0"/>
    <path d="M48.1 16.7 L46.7 15.45 45.35 13.8 Q44.65 13.0 43.75 12.6 42.9 12.2 42.4 11.4 L41.05 10.05 39.2 9.1 37.4 8.45 M52.25 30.3 Q52.55 29.4 52.3 28.4 L51.95 26.4 51.6 24.45 51.25 22.5 Q51.15 21.5 50.35 20.7 49.6 19.9 49.3 18.75 49.0 17.65 48.5 17.3 M48.7 42.15 Q49.55 41.2 49.55 40.4 49.6 39.6 50.25 38.8 50.9 38.05 51.05 37.15 L51.55 35.05 52.0 32.9 52.25 31.0 M35.4 51.8 Q36.25 51.2 37.15 51.15 38.1 51.15 38.95 50.3 39.8 49.5 40.75 49.0 L42.45 48.1 44.0 47.05 45.05 46.05 Q45.35 45.6 45.9 45.6 M36.7 8.25 L34.6 7.95 Q33.8 7.55 32.55 7.5 L30.5 7.3 28.9 7.15 27.05 7.25 24.9 7.6 22.85 8.05 M22.15 8.25 L20.25 9.05 Q19.45 9.35 18.55 9.8 L16.95 10.95 Q16.25 11.65 15.25 11.9 14.3 12.15 13.75 13.0 L12.5 14.65 M12.0 15.2 L10.8 16.5 9.7 18.0 8.65 20.0 7.8 22.05 Q7.5 23.0 7.35 23.95 L7.15 25.8 7.05 27.9 6.75 30.1 M6.75 30.85 Q6.4 32.35 6.5 32.95 L7.05 34.5 7.85 36.55 8.5 38.55 9.45 40.45 10.65 42.05 Q11.25 42.65 11.5 43.9 M12.0 44.45 L13.6 45.85 15.0 47.1 16.45 48.3 18.15 49.65 Q19.0 50.2 19.75 50.4 L21.65 51.25 Q22.85 51.95 23.85 51.95 M24.65 52.15 L26.45 52.25 28.5 52.35 30.65 52.45 32.7 52.15 34.7 52.0" fill="none" stroke="#93c7b7" stroke-linecap="round" stroke-linejoin="round" stroke-width="0.5"/>
    <path d="M45.35 32.75 Q45.85 31.65 45.7 30.5 L45.45 28.65 45.2 26.65 44.8 24.65 44.05 23.0 43.0 21.2 M42.25 20.15 L41.25 18.7 Q40.85 18.3 40.6 18.35 39.5 18.1 38.9 17.25 L37.6 15.9 Q36.9 15.35 35.85 15.1 L34.05 14.45 32.0 13.95 29.9 13.8 28.0 14.05 25.95 14.15 M34.4 45.2 L35.95 44.35 37.75 43.35 39.8 42.1 Q40.85 41.4 41.3 40.75 L42.2 39.3 43.5 37.7 Q44.35 36.95 44.65 35.8 L45.1 33.95 M24.75 14.4 L22.65 15.05 Q21.55 15.3 20.9 15.9 L19.6 17.05 Q18.95 17.6 18.05 18.45 L16.65 20.1 15.5 21.7 Q14.85 22.55 14.65 23.55 M14.2 24.7 Q13.9 25.5 13.9 26.75 L13.75 28.9 13.35 30.9 Q13.1 32.0 13.4 32.9 L14.05 34.95 Q14.4 36.15 15.0 36.8 15.6 37.5 16.0 38.45 16.4 39.4 17.1 40.15 L18.5 41.85 Q19.2 42.75 20.25 43.0 M21.3 43.75 Q22.25 43.9 23.15 44.55 24.1 45.25 25.05 45.3 L27.0 45.6 29.05 45.8 31.2 45.6 33.15 45.55" fill="none" stroke="#ffffff" stroke-linecap="round" stroke-linejoin="round" stroke-width="1.0"/>
    <path d="M7.75 40.05 L9.6 42.4 11.55 44.95 5.3 48.2 7.75 40.05" fill="#93c7b7" fill-rule="evenodd" stroke="none"/>
    <path d="M7.75 40.05 L9.6 42.4 11.55 44.95 5.3 48.2 7.75 40.05 Z" fill="none" stroke="#ffffff" stroke-linecap="round" stroke-linejoin="round" stroke-width="1.0"/>
    <path d="M53.2 48.65 L46.95 45.4 48.9 42.85 50.75 40.5 53.2 48.65" fill="#93c7b7" fill-rule="evenodd" stroke="none"/>
    <path d="M53.2 48.65 L50.75 40.5 48.9 42.85 46.95 45.4 53.2 48.65 Z" fill="none" stroke="#ffffff" stroke-linecap="round" stroke-linejoin="round" stroke-width="1.0"/>
    <path d="M31.45 22.25 L29.25 22.25 27.45 22.25 27.45 3.1 31.45 3.1 31.45 22.25 M23.4 34.8 L24.75 35.95 8.1 53.05 4.65 49.6 21.85 31.75 23.35 34.75 23.4 34.8 M35.3 34.8 L35.2 34.8 35.35 34.75 35.3 34.8 35.35 34.75 36.85 31.75 54.05 49.6 50.6 53.05 33.95 35.95 35.3 34.8" fill="#93c7b7" fill-rule="evenodd" stroke="none"/>
    <path d="M31.45 22.25 L31.45 3.1 27.45 3.1 27.45 22.25 M23.4 34.8 L23.35 34.75 21.85 31.75 4.65 49.6 8.1 53.05 24.75 35.95 23.4 34.8 M35.3 34.8 L35.35 34.75 36.85 31.75 54.05 49.6 50.6 53.05 33.95 35.95 35.3 34.8 Z" fill="none" stroke="#ffffff" stroke-linecap="round" stroke-linejoin="round" stroke-width="1.0"/>
    <path d="M43.05 40.05 L43.0 40.1 41.75 40.55 17.25 40.55 16.0 40.1 Q15.4 39.65 15.35 38.9 15.2 38.2 15.6 37.6 L15.6 37.65 25.2 21.0 25.2 20.95 25.3 20.85 27.8 16.4 Q28.15 15.8 28.85 15.55 29.5 15.25 30.2 15.55 L30.15 15.55 Q30.85 15.8 31.25 16.4 L31.2 16.4 43.45 37.65 43.5 37.65 Q43.8 38.2 43.7 38.9 L43.65 38.95 Q43.5 39.6 43.05 40.05 M29.1 16.35 Q28.75 16.45 28.55 16.85 L28.4 17.1 35.5 25.55 30.5 16.85 29.9 16.35 29.15 16.35 29.1 16.35 M29.5 20.45 L27.85 23.25 38.3 35.65 29.5 20.45 M23.85 24.95 L36.3 39.75 40.6 39.75 25.6 21.9 23.85 24.95 M25.25 27.9 L23.35 31.15 28.3 37.0 32.95 37.0 25.25 27.9 M21.6 37.0 L20.6 35.9 19.9 37.0 21.6 37.0 M24.9 39.75 L29.5 39.75 21.1 29.8 19.25 32.95 24.9 39.75" fill="#90c7b7" fill-rule="evenodd" stroke="none"/>
    <path d="M29.1 16.35 L29.15 16.35 29.9 16.35 30.5 16.85 35.5 25.55 28.4 17.1 28.55 16.85 Q28.75 16.45 29.1 16.35 M23.85 24.95 L25.6 21.9 40.6 39.75 36.3 39.75 23.85 24.95 M24.9 39.75 L19.25 32.95 21.1 29.8 29.5 39.75 24.9 39.75" fill="#92c7b7" fill-rule="evenodd" stroke="none"/>
    <path d="M29.5 20.45 L38.3 35.65 27.85 23.25 29.5 20.45 M21.6 37.0 L19.9 37.0 20.6 35.9 21.6 37.0 M25.25 27.9 L32.95 37.0 28.3 37.0 23.35 31.15 25.25 27.9" fill="#93c7b7" fill-rule="evenodd" stroke="none"/>
    <path d="M43.05 40.05 Q43.5 39.6 43.65 38.95 L43.7 38.9 Q43.8 38.2 43.5 37.65 L43.45 37.65 31.2 16.4 31.25 16.4 Q30.85 15.8 30.15 15.55 L30.2 15.55 Q29.5 15.25 28.85 15.55 28.15 15.8 27.8 16.4 L25.3 20.85 25.2 20.95 25.2 21.0 15.6 37.65 15.6 37.6 Q15.2 38.2 15.35 38.9 15.4 39.65 16.0 40.1 L17.25 40.55 41.75 40.55 43.0 40.1 43.05 40.05 Z" fill="none" stroke="#ffffff" stroke-linecap="round" stroke-linejoin="round" stroke-width="1.0"/>
  </g>
</svg>
