<?xml version="1.0" encoding="UTF-8" standalone="no"?>
<svg xmlns:xlink="http://www.w3.org/1999/xlink" height="51.3px" width="56.35px" xmlns="http://www.w3.org/2000/svg">
  <g transform="matrix(1.0, 0.0, 0.0, 1.0, -2.45, -8.9)">
    <path d="M40.75 17.1 L40.9 18.65 Q40.9 20.2 40.3 21.5 L37.25 21.55 37.35 21.5 37.45 21.15 37.3 20.8 37.15 20.7 37.4 18.65 37.35 17.75 40.6 17.15 40.75 17.1 M33.95 9.5 L34.1 9.25 Q34.2 9.05 34.45 9.05 L34.8 9.2 Q35.5 9.8 36.3 9.9 37.4 10.0 38.35 10.45 39.25 10.9 40.15 11.6 L40.2 11.65 41.9 12.9 Q42.95 13.6 43.3 14.9 L43.3 14.85 44.1 16.8 Q44.65 17.8 44.8 19.0 L44.9 20.35 45.0 20.4 45.25 20.5 45.3 20.5 45.35 20.55 47.2 21.3 48.9 21.95 48.95 21.95 51.1 22.65 53.1 23.7 Q54.0 24.3 55.1 24.7 56.4 25.15 57.0 26.0 L58.1 27.75 58.1 27.7 Q58.65 28.65 58.75 29.7 L58.65 31.75 58.45 32.1 58.05 32.15 57.85 32.05 57.75 31.95 57.65 31.55 57.75 29.8 57.25 28.2 57.2 28.2 56.2 26.6 Q55.7 25.95 54.75 25.65 53.5 25.2 52.55 24.55 51.65 23.95 50.75 23.6 L48.7 22.9 Q47.55 22.65 46.75 22.2 L45.05 21.5 44.75 21.45 Q44.35 21.55 44.3 21.75 L44.3 21.8 Q44.5 22.7 43.7 23.75 L43.7 23.7 42.15 25.0 40.2 25.7 Q38.95 26.1 37.85 25.7 37.05 25.4 36.35 25.7 L36.0 25.75 35.7 25.45 35.7 25.1 Q35.75 24.9 35.95 24.8 L38.2 24.75 Q38.95 25.0 39.9 24.75 L39.95 24.75 41.75 24.1 42.9 23.1 Q43.4 22.5 43.3 21.95 43.15 21.2 43.75 20.8 L43.75 20.6 43.8 20.45 43.85 20.4 43.8 19.15 43.25 17.3 42.35 15.15 Q42.05 14.2 41.35 13.75 L39.55 12.4 37.9 11.35 36.2 10.9 Q35.1 10.8 34.15 9.95 L33.95 9.6 33.95 9.5 M57.7 32.2 L57.8 32.5 57.7 32.85 57.35 33.0 Q56.45 33.05 55.95 33.7 L55.95 33.65 Q55.15 34.7 53.75 34.6 L53.7 34.6 52.45 34.8 51.15 35.3 51.0 35.5 50.55 35.75 49.05 36.8 Q48.1 37.5 47.15 37.8 L47.2 37.8 45.4 38.45 43.25 39.1 41.35 39.6 40.95 39.6 40.7 39.35 40.7 39.25 40.7 38.95 Q40.75 38.75 40.95 38.7 41.85 38.3 43.1 38.1 L45.0 37.55 Q45.95 37.15 46.85 36.85 L46.9 36.85 Q47.7 36.6 48.45 36.0 L48.95 35.7 49.1 35.55 48.85 35.6 48.9 35.6 48.85 35.6 47.0 35.9 44.9 36.25 Q43.65 36.5 42.5 36.25 L40.65 35.95 38.7 35.95 36.65 35.9 36.3 35.7 36.2 35.35 36.4 35.0 36.75 34.9 38.65 34.95 40.7 34.95 42.75 35.3 44.7 35.25 46.9 34.9 46.95 34.9 48.6 34.65 48.65 34.6 50.7 34.4 51.85 33.95 51.9 33.95 Q52.4 33.55 53.8 33.6 54.65 33.7 55.15 33.05 55.95 32.05 57.3 32.0 57.5 32.0 57.65 32.15 L57.7 32.2 M40.4 39.3 L40.35 39.65 40.05 39.9 38.0 40.35 35.8 40.35 35.3 40.3 34.3 40.3 34.1 40.3 32.7 40.45 31.9 40.4 31.7 40.4 29.7 40.0 29.55 39.95 29.6 40.0 28.7 39.8 27.95 39.8 27.55 39.7 27.4 39.45 27.35 39.4 27.35 39.25 27.45 39.05 27.45 39.0 Q27.55 38.85 27.8 38.8 L29.95 39.05 31.8 39.4 31.9 39.4 31.95 39.4 32.55 39.4 33.95 39.3 35.95 39.35 37.85 39.35 39.75 38.95 40.15 38.95 40.4 39.25 40.4 39.3 M26.15 39.6 Q25.05 39.65 24.0 39.1 L23.95 39.1 23.2 38.75 Q22.7 38.5 22.25 38.4 L22.1 38.35 20.25 37.8 18.3 37.1 16.15 36.15 16.15 36.2 Q15.0 35.7 14.25 35.05 L12.7 33.8 11.3 32.3 10.1 30.6 9.05 29.1 9.0 29.05 7.5 28.05 5.9 27.1 4.15 25.8 2.9 24.25 Q2.2 23.15 2.65 22.0 3.0 21.0 3.85 20.15 L5.5 18.85 7.1 17.9 7.15 17.85 Q8.1 17.4 9.35 17.5 L9.4 17.5 Q10.35 17.6 11.35 17.1 L11.7 17.1 12.0 17.35 12.05 17.5 12.05 17.7 11.8 18.0 Q10.5 18.65 9.25 18.5 L7.6 18.75 6.05 19.7 6.05 19.65 4.55 20.9 4.55 20.85 Q3.9 21.5 3.6 22.35 3.3 23.05 3.75 23.7 L4.9 25.1 4.85 25.1 6.4 26.2 8.05 27.2 8.0 27.2 9.65 28.3 Q10.85 29.1 11.5 29.35 L13.3 30.0 Q14.55 30.35 15.3 30.65 L17.05 31.3 17.35 31.55 17.4 31.9 17.15 32.2 16.75 32.25 14.95 31.6 14.9 31.55 13.05 30.95 13.0 30.95 11.1 30.25 11.15 30.3 11.1 30.3 12.15 31.75 13.35 33.0 13.35 33.05 14.85 34.25 14.9 34.3 Q15.55 34.8 16.55 35.25 L18.65 36.15 20.55 36.85 20.6 36.85 22.35 37.4 22.3 37.35 Q23.25 37.55 24.45 38.2 L26.5 38.55 26.85 38.65 27.05 39.0 27.05 39.2 26.95 39.35 26.65 39.55 26.15 39.6 M12.25 17.5 L12.3 17.2 12.6 16.95 14.75 16.7 16.8 16.8 18.45 16.6 18.5 16.6 19.55 16.5 20.3 15.0 20.35 14.95 21.3 13.35 Q21.9 12.45 23.0 11.65 L23.05 11.65 24.9 10.5 26.75 9.65 Q28.1 9.0 29.2 9.2 L31.1 9.2 33.1 8.9 33.5 9.0 33.7 9.3 33.7 9.5 33.65 9.7 33.3 9.9 31.25 10.2 29.05 10.2 Q28.2 10.1 27.15 10.55 L27.2 10.55 25.3 11.4 25.35 11.4 Q24.65 11.75 23.6 12.5 L22.15 13.85 21.2 15.45 20.3 17.15 19.9 18.6 19.7 19.65 Q19.95 20.0 19.75 20.65 L21.1 21.6 Q21.75 22.2 22.55 22.2 L22.6 22.2 Q23.65 22.25 24.9 22.8 L26.95 23.6 27.0 23.6 28.85 24.0 30.95 24.25 32.65 24.35 32.7 24.35 35.05 24.75 Q35.2 24.8 35.35 24.95 L35.4 25.35 35.15 25.65 34.8 25.7 32.75 25.35 30.8 25.25 28.75 25.0 26.65 24.55 24.5 23.7 22.55 23.2 Q21.4 23.2 20.45 22.35 L19.05 21.4 19.0 21.4 18.75 21.2 18.7 21.1 18.65 20.8 18.8 20.1 18.7 19.85 Q18.7 18.95 18.95 18.3 L18.95 18.25 19.2 17.45 18.75 17.55 16.9 17.8 14.6 17.7 14.55 17.7 12.95 17.9 12.55 17.85 12.3 17.6 12.25 17.5 M54.35 27.05 L54.45 27.4 54.15 28.15 Q54.15 29.0 53.6 29.35 L52.45 29.65 51.2 29.6 51.15 29.55 50.75 29.35 50.7 29.35 50.7 29.3 Q49.95 28.8 50.1 28.05 L50.15 28.0 50.2 27.8 Q50.3 27.2 50.75 26.75 51.2 26.25 51.9 26.2 L52.85 25.85 53.0 25.8 53.25 25.9 53.3 25.95 53.8 26.25 53.95 26.4 54.1 26.7 54.1 26.85 54.35 27.05 M43.55 27.4 L43.85 27.6 44.6 28.05 Q45.15 28.6 45.15 29.45 L45.15 29.85 45.0 30.3 44.6 30.9 Q44.0 31.45 43.15 31.45 42.45 31.45 41.95 31.05 41.0 30.8 40.8 29.8 40.55 28.6 41.4 27.7 41.45 27.6 41.6 27.6 L43.55 27.4 M32.35 11.9 L34.1 11.65 Q36.8 11.65 38.75 13.55 39.9 14.75 40.4 16.15 L37.1 16.75 37.05 16.75 Q36.65 14.95 35.3 13.55 34.0 12.3 32.35 11.9 M31.2 27.0 L31.4 26.95 31.6 27.0 Q33.4 27.8 33.35 28.55 L33.35 28.6 33.35 29.0 33.4 29.45 Q33.4 30.3 32.85 30.9 32.25 31.45 31.4 31.45 L30.65 31.3 Q30.25 31.2 30.0 30.9 29.5 30.4 29.45 29.7 29.3 29.1 29.55 28.55 L29.55 28.5 Q29.95 27.65 31.2 27.0 M19.6 33.1 Q18.8 32.65 18.05 32.65 L17.7 32.5 17.55 32.15 17.7 31.8 Q17.85 31.65 18.05 31.65 19.1 31.65 20.1 32.25 20.95 32.7 21.95 32.8 L22.0 32.8 23.85 33.0 25.5 33.2 Q26.45 33.3 27.55 33.85 L29.3 34.15 31.6 34.25 33.5 34.85 Q34.2 35.15 35.35 34.85 L35.7 34.9 35.95 35.2 35.9 35.55 35.6 35.8 33.1 35.75 33.15 35.8 31.3 35.2 29.5 35.15 Q28.3 35.4 27.1 34.75 26.15 34.3 25.4 34.2 L23.75 34.0 21.85 33.8 Q20.65 33.7 19.6 33.1 M18.0 26.45 L18.3 25.95 18.3 25.9 19.35 24.75 21.5 24.8 Q22.4 25.65 22.7 26.75 23.05 28.2 21.55 28.65 L19.65 28.75 Q18.9 28.6 18.0 26.95 L17.9 26.7 18.0 26.45 M11.3 23.15 L10.15 22.45 Q9.25 21.65 10.0 20.35 10.7 19.2 12.0 19.25 13.25 19.3 13.85 20.5 L13.85 20.45 Q14.5 21.6 13.7 22.85 L13.5 23.0 13.3 23.05 11.3 23.15" fill="#ffffff" fill-rule="evenodd" stroke="none"/>
    <path d="M40.75 17.1 L40.6 17.15 37.35 17.75 37.4 18.65 37.15 20.7 37.3 20.8 37.45 21.15 37.35 21.5 37.25 21.55 40.3 21.5 Q40.9 20.2 40.9 18.65 L40.75 17.1 M33.95 9.5 L33.95 9.6 34.15 9.95 Q35.1 10.8 36.2 10.9 L37.9 11.35 39.55 12.4 41.35 13.75 Q42.05 14.2 42.35 15.15 L43.25 17.3 43.8 19.15 43.85 20.4 43.8 20.45 43.75 20.6 43.75 20.8 Q43.15 21.2 43.3 21.95 43.4 22.5 42.9 23.1 L41.75 24.1 39.95 24.75 39.9 24.75 Q38.95 25.0 38.2 24.75 L35.95 24.8 Q35.75 24.9 35.7 25.1 L35.7 25.45 36.0 25.75 36.35 25.7 Q37.05 25.4 37.85 25.7 38.95 26.1 40.2 25.7 L42.15 25.0 43.7 23.7 43.7 23.75 Q44.5 22.7 44.3 21.8 L44.3 21.75 Q44.35 21.55 44.75 21.45 L45.05 21.5 46.75 22.2 Q47.55 22.65 48.7 22.9 L50.75 23.6 Q51.65 23.95 52.55 24.55 53.5 25.2 54.75 25.65 55.7 25.95 56.2 26.6 L57.2 28.2 57.25 28.2 57.75 29.8 57.65 31.55 57.75 31.95 57.85 32.05 57.7 32.2 57.65 32.15 Q57.5 32.0 57.3 32.0 55.95 32.05 55.15 33.05 54.65 33.7 53.8 33.6 52.4 33.55 51.9 33.95 L51.85 33.95 50.7 34.4 48.65 34.6 48.6 34.65 46.95 34.9 46.9 34.9 44.7 35.25 42.75 35.3 40.7 34.95 38.65 34.95 36.75 34.9 36.4 35.0 36.2 35.35 36.3 35.7 36.65 35.9 38.7 35.95 40.65 35.95 42.5 36.25 Q43.65 36.5 44.9 36.25 L47.0 35.9 48.85 35.6 48.95 35.7 48.45 36.0 Q47.7 36.6 46.9 36.85 L46.85 36.85 Q45.95 37.15 45.0 37.55 L43.1 38.1 Q41.85 38.3 40.95 38.7 40.75 38.75 40.7 38.95 L40.7 39.25 40.4 39.3 40.4 39.25 40.15 38.95 39.75 38.95 37.85 39.35 35.95 39.35 33.95 39.3 32.55 39.4 31.95 39.4 31.9 39.4 31.8 39.4 29.95 39.05 27.8 38.8 Q27.55 38.85 27.45 39.0 L27.45 39.05 27.35 39.25 27.35 39.4 27.4 39.45 27.15 39.6 27.1 40.05 26.9 41.75 26.05 43.35 Q25.6 44.0 25.55 45.25 L25.4 45.6 25.05 45.7 24.7 45.55 24.55 45.2 Q24.6 43.6 25.2 42.8 L25.2 42.75 25.95 41.45 26.1 40.1 26.1 40.05 26.15 39.6 26.65 39.55 26.95 39.35 27.05 39.2 27.05 39.0 26.85 38.65 26.5 38.55 24.45 38.2 Q23.25 37.55 22.3 37.35 L22.35 37.4 20.6 36.85 20.55 36.85 18.65 36.15 16.55 35.25 Q15.55 34.8 14.9 34.3 L14.85 34.25 13.35 33.05 13.35 33.0 12.15 31.75 11.1 30.3 11.15 30.3 11.1 30.25 13.0 30.95 13.05 30.95 14.9 31.55 14.95 31.6 16.75 32.25 17.15 32.2 17.4 31.9 17.35 31.55 17.05 31.3 15.3 30.65 Q14.55 30.35 13.3 30.0 L11.5 29.35 Q10.85 29.1 9.65 28.3 L8.0 27.2 8.05 27.2 6.4 26.2 4.85 25.1 4.9 25.1 3.75 23.7 Q3.3 23.05 3.6 22.35 3.9 21.5 4.55 20.85 L4.55 20.9 6.05 19.65 6.05 19.7 7.6 18.75 9.25 18.5 Q10.5 18.65 11.8 18.0 L12.05 17.7 12.05 17.5 12.25 17.5 12.3 17.6 12.55 17.85 12.95 17.9 14.55 17.7 14.6 17.7 16.9 17.8 18.75 17.55 19.2 17.45 18.95 18.25 18.95 18.3 Q18.7 18.95 18.7 19.85 L18.8 20.1 18.65 20.8 18.7 21.1 18.75 21.2 19.0 21.4 19.05 21.4 20.45 22.35 Q21.4 23.2 22.55 23.2 L24.5 23.7 26.65 24.55 28.75 25.0 30.8 25.25 32.75 25.35 34.8 25.7 35.15 25.65 35.4 25.35 35.35 24.95 Q35.2 24.8 35.05 24.75 L32.7 24.35 32.65 24.35 30.95 24.25 28.85 24.0 27.0 23.6 26.95 23.6 24.9 22.8 Q23.65 22.25 22.6 22.2 L22.55 22.2 Q21.75 22.2 21.1 21.6 L19.75 20.65 Q19.95 20.0 19.7 19.65 L19.9 18.6 20.3 17.15 21.2 15.45 22.15 13.85 23.6 12.5 Q24.65 11.75 25.35 11.4 L25.3 11.4 27.2 10.55 27.15 10.55 Q28.2 10.1 29.05 10.2 L31.25 10.2 33.3 9.9 33.65 9.7 33.7 9.5 33.95 9.5 M35.3 40.3 L35.3 41.1 35.45 42.45 35.35 42.85 35.0 43.0 34.65 42.9 34.45 42.55 34.3 41.25 34.3 41.15 34.3 40.3 35.3 40.3 M32.7 40.45 L32.75 41.25 33.0 42.5 Q33.25 43.45 32.8 44.65 L32.5 44.9 32.15 44.95 31.85 44.65 31.85 44.3 Q32.15 43.45 32.05 42.75 L31.75 41.35 31.75 41.3 31.7 40.4 31.9 40.4 32.7 40.45 M29.7 40.0 L29.3 41.1 29.25 42.7 29.15 44.6 28.7 46.5 Q28.4 47.45 28.75 48.35 L28.7 48.75 28.4 49.0 28.05 48.95 27.8 48.65 Q27.4 47.45 27.75 46.25 L28.15 44.4 28.25 42.75 28.25 42.7 28.3 41.0 28.7 39.8 29.6 40.0 29.55 39.95 29.7 40.0 M23.2 38.75 L22.65 39.75 22.65 39.8 21.75 41.05 21.7 41.1 20.8 42.55 20.8 42.5 20.0 44.4 20.05 44.4 19.2 46.25 19.2 46.2 18.35 47.95 18.35 47.9 17.2 49.85 16.9 50.1 16.5 50.05 16.3 49.75 Q16.2 49.55 16.35 49.35 L17.5 47.4 18.3 45.8 19.1 44.05 19.1 44.0 19.9 42.1 21.0 40.4 21.05 40.35 21.75 39.35 21.8 39.3 22.25 38.4 Q22.7 38.5 23.2 38.75 M54.35 27.05 L54.1 26.85 54.1 26.7 53.95 26.4 53.8 26.25 53.3 25.95 53.25 25.9 53.0 25.8 52.85 25.85 51.9 26.2 Q51.2 26.25 50.75 26.75 50.3 27.2 50.2 27.8 L50.15 28.0 50.1 28.05 Q49.95 28.8 50.7 29.3 L50.7 29.35 50.75 29.35 51.15 29.55 51.2 29.6 52.45 29.65 53.6 29.35 Q54.15 29.0 54.15 28.15 L54.45 27.4 54.35 27.05 M43.55 27.4 L41.6 27.6 Q41.45 27.6 41.4 27.7 40.55 28.6 40.8 29.8 41.0 30.8 41.95 31.05 42.45 31.45 43.15 31.45 44.0 31.45 44.6 30.9 L45.0 30.3 45.15 29.85 45.15 29.45 Q45.15 28.6 44.6 28.05 L43.85 27.6 43.55 27.4 M32.35 11.9 Q34.0 12.3 35.3 13.55 36.65 14.95 37.05 16.75 L37.1 16.75 40.4 16.15 Q39.9 14.75 38.75 13.55 36.8 11.65 34.1 11.65 L32.35 11.9 M11.3 23.15 L13.3 23.05 13.5 23.0 13.7 22.85 Q14.5 21.6 13.85 20.45 L13.85 20.5 Q13.25 19.3 12.0 19.25 10.7 19.2 10.0 20.35 9.25 21.65 10.15 22.45 L11.3 23.15 M18.0 26.45 L17.9 26.7 18.0 26.95 Q18.9 28.6 19.65 28.75 L21.55 28.65 Q23.05 28.2 22.7 26.75 22.4 25.65 21.5 24.8 L19.35 24.75 18.3 25.9 18.3 25.95 18.0 26.45 M19.6 33.1 Q20.65 33.7 21.85 33.8 L23.75 34.0 25.4 34.2 Q26.15 34.3 27.1 34.75 28.3 35.4 29.5 35.15 L31.3 35.2 33.15 35.8 33.1 35.75 35.6 35.8 35.9 35.55 35.95 35.2 35.7 34.9 35.35 34.85 Q34.2 35.15 33.5 34.85 L31.6 34.25 29.3 34.15 27.55 33.85 Q26.45 33.3 25.5 33.2 L23.85 33.0 22.0 32.8 21.95 32.8 Q20.95 32.7 20.1 32.25 19.1 31.65 18.05 31.65 17.85 31.65 17.7 31.8 L17.55 32.15 17.7 32.5 18.05 32.65 Q18.8 32.65 19.6 33.1 M31.2 27.0 Q29.95 27.65 29.55 28.5 L29.55 28.55 Q29.3 29.1 29.45 29.7 29.5 30.4 30.0 30.9 30.25 31.2 30.65 31.3 L31.4 31.45 Q32.25 31.45 32.85 30.9 33.4 30.3 33.4 29.45 L33.35 29.0 33.35 28.6 33.35 28.55 Q33.4 27.8 31.6 27.0 L31.4 26.95 31.2 27.0 M28.1 49.2 Q28.3 49.2 28.45 49.35 L28.55 49.75 28.4 51.6 28.15 53.45 27.8 55.65 Q27.7 56.7 27.75 57.85 L27.55 59.9 27.3 60.15 26.9 60.2 26.6 59.95 26.6 59.55 26.75 57.9 Q26.7 56.7 26.8 55.55 L27.15 53.3 27.4 51.5 27.55 49.7 Q27.55 49.45 27.7 49.35 27.85 49.2 28.1 49.2 M24.45 45.95 L24.85 45.95 25.1 46.2 25.1 46.6 24.55 48.25 Q24.2 49.3 24.0 50.35 23.75 51.5 23.15 52.3 22.7 52.9 22.55 54.05 22.35 55.45 21.85 56.3 L21.4 57.8 20.95 59.9 20.65 60.15 20.3 60.2 20.0 59.9 20.0 59.55 20.4 57.75 20.4 57.7 Q20.5 56.75 20.95 55.85 L21.0 55.8 21.55 53.9 Q21.8 52.5 22.35 51.7 22.85 51.1 23.0 50.15 L23.6 47.95 24.2 46.2 Q24.25 46.0 24.45 45.95 M16.5 51.05 Q15.65 52.0 15.45 52.9 15.2 54.05 14.55 54.85 L14.55 54.9 13.3 56.3 13.25 56.3 Q12.8 56.9 12.7 57.95 12.65 59.55 11.55 60.15 L11.2 60.2 10.9 59.95 10.85 59.6 11.05 59.3 Q11.65 58.85 11.7 57.9 L11.7 57.85 Q11.8 56.4 12.55 55.65 L12.55 55.6 13.75 54.25 13.8 54.25 Q14.3 53.6 14.45 52.7 14.65 51.5 15.8 50.35 L16.15 50.2 16.5 50.35 16.65 50.7 16.5 51.05 M31.9 45.45 Q32.0 45.25 32.2 45.25 L32.55 45.3 32.8 45.6 32.75 45.95 Q32.5 46.45 32.7 47.35 33.0 48.6 32.9 49.7 32.8 50.6 33.1 51.3 33.4 52.15 33.3 53.45 33.2 54.5 33.4 55.5 L33.5 57.55 33.5 59.7 33.4 60.05 33.05 60.2 32.65 60.1 32.5 59.75 32.5 57.45 32.5 57.4 32.4 55.7 Q32.2 54.6 32.3 53.35 32.4 52.35 32.15 51.65 31.8 50.8 31.9 49.6 L31.75 47.6 31.7 47.55 Q31.4 46.15 31.9 45.45 M34.95 43.25 L35.3 43.3 35.55 43.6 35.8 45.8 Q35.75 46.65 36.0 47.7 L36.25 49.8 36.25 51.45 36.25 51.5 36.3 53.4 36.5 55.6 36.8 57.65 36.9 59.75 36.75 60.1 36.4 60.2 36.05 60.05 35.9 59.7 35.8 57.8 35.5 55.75 35.5 55.7 35.3 53.5 35.25 51.45 35.25 49.85 35.25 49.8 35.0 47.9 35.05 47.9 Q34.75 46.75 34.8 45.75 L34.6 43.85 34.65 43.45 Q34.75 43.25 34.95 43.25" fill="#93c7b7" fill-rule="evenodd" stroke="none"/>
  </g>
</svg>
