<?xml version="1.0" encoding="UTF-8" standalone="no"?>
<svg xmlns:xlink="http://www.w3.org/1999/xlink" height="46.35px" width="44.25px" xmlns="http://www.w3.org/2000/svg">
  <g transform="matrix(1.0, 0.0, 0.0, 1.0, -20.4, 7.3)">
    <path d="M43.2 2.15 Q42.7 0.65 41.05 0.65 39.35 0.65 38.45 2.15 37.5 3.6 37.2 5.55 36.95 6.65 37.1 7.8 37.2 8.9 37.85 9.55 38.35 10.3 39.4 10.3 40.9 10.3 41.95 8.8 43.05 7.35 43.35 5.55 43.65 3.6 43.2 2.15 M37.55 -5.5 L39.25 -6.5 41.8 -6.8 Q44.7 -6.8 46.0 -4.35 47.35 -1.9 46.85 1.7 45.2 11.05 39.1 11.2 36.65 11.2 35.4 9.5 34.2 7.85 34.75 4.8 35.05 2.85 36.15 1.6 37.25 0.25 38.8 -0.1 L40.6 -0.3 42.85 0.15 Q43.85 0.65 44.1 1.45 L44.25 -1.2 Q44.25 -2.9 43.7 -4.4 43.1 -5.9 41.8 -5.95 39.1 -5.95 37.35 -1.6 L36.9 -1.6 37.55 -5.5" fill="#90c7b7" fill-rule="evenodd" stroke="none"/>
    <path d="M63.4 -2.55 Q63.4 0.65 59.6 1.6 61.6 2.0 63.05 3.15 64.35 4.45 64.35 6.3 64.35 8.8 62.35 10.15 60.35 11.5 56.95 11.5 L47.95 11.5 47.95 10.95 Q50.7 10.95 50.7 9.2 L50.7 -5.05 Q50.7 -6.8 47.95 -6.8 L47.95 -7.3 55.6 -7.3 Q63.4 -7.3 63.4 -2.55 M53.65 -5.35 L53.65 1.1 55.95 1.1 Q58.15 1.1 59.3 0.15 60.5 -0.75 60.5 -2.4 60.5 -5.5 57.15 -6.1 L55.15 -6.2 53.95 -6.05 Q53.65 -5.9 53.65 -5.35 M55.95 10.45 Q58.45 10.45 59.7 9.5 61.1 8.6 61.1 6.2 61.1 2.2 55.1 2.2 L53.65 2.2 53.65 8.95 Q53.65 9.8 54.05 10.1 L55.95 10.45" fill="#90c7b7" fill-rule="evenodd" stroke="none"/>
    <path d="M55.1 24.8 L56.85 23.1 58.2 21.75 57.6 25.45 60.35 25.45 60.2 26.4 57.45 26.4 56.2 34.05 Q55.75 37.05 57.0 37.05 L57.85 36.9 59.0 36.0 59.3 36.3 Q57.3 38.55 55.3 38.55 53.95 38.55 53.6 37.7 53.3 36.8 53.65 34.6 L55.0 26.4 54.2 26.4 53.6 26.35 Q53.45 26.25 53.45 25.95 L55.1 24.8" fill="#90c7b7" fill-rule="evenodd" stroke="none"/>
    <path d="M47.3 30.0 Q46.75 28.5 45.15 28.5 43.4 28.5 42.55 30.0 41.55 31.45 41.25 33.4 41.05 34.5 41.2 35.65 41.25 36.75 41.95 37.4 42.45 38.15 43.5 38.15 45.0 38.15 46.0 36.65 47.15 35.2 47.45 33.4 47.75 31.45 47.3 30.0 M43.35 21.35 L45.85 21.05 Q48.75 21.05 50.1 23.5 51.45 25.95 50.9 29.55 49.3 38.9 43.2 39.05 40.75 39.05 39.5 37.35 38.3 35.7 38.8 32.65 39.1 30.75 40.25 29.45 41.35 28.15 42.9 27.75 L44.7 27.55 Q45.95 27.55 46.9 28.0 47.95 28.5 48.15 29.3 L48.3 26.65 Q48.3 24.95 47.8 23.45 47.2 21.95 45.85 21.9 43.2 21.9 41.4 26.25 L40.95 26.25 41.65 22.35 43.35 21.35" fill="#90c7b7" fill-rule="evenodd" stroke="none"/>
    <path d="M34.0 15.35 L64.65 15.35 64.65 16.85 34.0 16.85 34.0 15.35" fill="#90c7b7" fill-rule="evenodd" stroke="none"/>
    <path d="M20.4 15.2 L30.35 15.2 30.35 17.05 20.4 17.05 20.4 15.2" fill="#90c7b7" fill-rule="evenodd" stroke="none"/>
  </g>
</svg>
