<?xml version="1.0" encoding="UTF-8" standalone="no"?>
<svg xmlns:xlink="http://www.w3.org/1999/xlink" height="49.6px" width="37.75px" xmlns="http://www.w3.org/2000/svg">
  <g transform="matrix(1.0, 0.0, 0.0, 1.0, -11.5, -5.0)">
    <path d="M49.0 30.65 Q49.0 33.1 43.55 34.8 L40.0 35.7 39.85 35.75 Q41.8 38.6 41.8 42.25 41.8 47.1 38.4 50.5 34.95 53.95 30.15 53.95 25.3 53.95 21.9 50.5 18.5 47.1 18.5 42.25 18.5 38.55 20.55 35.7 L20.1 35.6 17.2 34.8 Q14.4 33.9 13.05 32.85 11.75 31.8 11.75 30.65 11.75 29.45 13.05 28.4 14.4 27.35 17.2 26.4 22.7 24.7 30.4 24.7 38.1 24.7 43.55 26.4 49.0 28.2 49.0 30.65 M30.05 5.25 Q33.2 5.25 35.35 7.45 37.55 9.65 37.55 12.75 37.55 15.75 35.6 17.85 33.05 21.3 32.3 24.4 L27.4 24.35 Q26.55 20.85 24.25 17.75 L24.35 17.65 Q22.55 15.6 22.55 12.75 22.55 9.65 24.75 7.45 26.95 5.25 30.05 5.25 M31.4 34.95 L31.05 35.75 Q30.7 36.15 30.15 36.15 29.65 36.15 29.25 35.75 28.9 35.4 28.9 34.95 26.6 35.3 24.9 37.0 L24.9 37.05 24.0 38.1 23.9 38.25 Q22.7 40.0 22.7 42.25 22.7 45.35 24.9 47.5 L24.9 47.55 Q27.05 49.7 30.15 49.7 33.2 49.7 35.4 47.55 37.55 45.35 37.55 42.25 37.6 39.95 36.35 38.15 L35.4 37.05 Q33.7 35.3 31.4 34.95" fill="#90c7b7" fill-rule="evenodd" stroke="none"/>
    <path d="M48.0 28.9 Q47.65 28.25 46.55 27.7 L45.1 27.0 43.55 26.4 41.7 25.8 39.8 25.5 37.75 25.3 35.8 24.8 33.95 24.55 32.2 24.6 30.4 24.7 28.85 24.45 26.65 24.55 24.5 25.1 22.5 25.4 20.5 25.55 19.1 25.8 17.2 26.4 Q16.15 26.55 15.3 27.05 L14.15 27.75 13.05 28.4 Q12.45 28.75 12.15 29.4 L11.75 30.65 Q12.45 31.65 12.3 32.1 12.15 32.6 13.05 32.85 L14.75 33.8 16.25 34.45 17.2 34.8 18.9 35.1 20.1 35.6 20.35 35.25 21.5 33.9 22.05 33.45 Q22.5 33.05 23.45 32.35 24.4 31.7 25.1 31.4 L26.85 30.85 28.9 30.45 28.9 28.95 29.25 28.05 Q29.75 28.2 30.15 27.7 30.1 27.45 31.05 28.05 31.5 28.05 31.4 28.95 L31.4 30.5 33.4 30.9 Q34.35 30.95 35.15 31.4 35.95 31.9 36.5 32.1 L38.45 33.9 39.45 34.9 40.0 35.7 Q41.5 34.95 41.75 35.1 L43.55 34.8 45.45 34.35 Q46.45 33.95 47.1 33.05 L48.1 32.15 Q48.45 32.1 49.0 30.65 L48.0 28.9 M41.9 40.35 L41.4 38.35 40.95 37.15 40.0 35.7 39.9 35.85 40.7 37.05 Q41.25 37.6 41.25 38.55 L41.5 40.5 41.8 42.25 41.3 43.55 41.0 45.0 40.5 47.25 Q40.15 48.3 39.4 49.05 L38.4 50.5 37.1 51.65 35.85 52.3 33.95 53.15 31.85 53.75 30.15 53.95 28.7 53.65 27.3 53.5 25.35 52.95 24.85 52.8 25.1 52.9 26.95 53.8 Q27.85 54.25 28.35 54.2 L30.0 54.35 32.2 54.15 Q33.4 54.1 34.05 53.65 34.75 53.25 35.7 52.9 L36.95 52.25 38.45 50.8 39.65 49.35 Q40.2 48.7 40.55 47.45 L41.3 45.45 41.6 44.25 Q41.5 43.8 42.0 42.35 L41.9 40.35 M35.35 7.45 L33.65 6.25 32.5 5.7 30.05 5.25 27.85 5.85 26.55 6.2 24.75 7.45 Q24.05 7.95 23.5 8.9 L22.75 10.45 22.55 12.75 Q22.65 13.95 22.9 14.95 23.2 16.0 23.65 16.35 24.1 16.7 24.35 17.65 L24.25 17.75 Q24.5 18.85 25.15 19.8 L26.3 21.5 26.9 22.7 27.4 24.35 29.55 24.4 30.9 24.45 32.3 24.4 Q32.45 23.3 33.0 22.25 L33.85 20.55 34.55 19.45 35.6 17.85 Q35.75 17.0 36.4 15.95 L37.25 14.5 37.55 12.75 37.1 11.05 36.7 9.3 Q36.55 8.65 35.35 7.45 M18.05 42.35 Q17.95 43.15 18.15 44.0 L18.65 46.2 Q18.9 47.5 19.45 48.25 L20.5 49.25 Q21.0 49.45 21.5 50.8 22.25 50.9 22.9 51.4 L21.9 50.5 20.85 49.3 20.1 48.2 Q19.55 47.55 19.3 46.4 L18.9 44.3 18.5 42.25 Q18.85 41.9 18.55 41.05 18.3 40.25 18.85 39.5 L19.8 37.45 Q20.15 36.15 20.55 35.7 L20.1 35.6 19.25 37.15 Q18.75 38.0 18.5 39.15 L18.0 40.95 Q17.7 41.55 18.05 42.35 M31.4 30.5 L31.4 32.45 31.25 33.75 Q31.15 34.25 31.4 34.85 L31.4 34.95 Q32.1 35.55 33.35 36.0 L34.75 36.35 35.4 37.05 Q35.2 37.45 36.35 38.15 L37.2 39.4 37.55 42.25 37.15 44.25 36.9 45.9 Q36.85 46.6 35.4 47.55 L33.75 48.7 32.35 49.15 30.15 49.7 Q29.2 49.25 28.15 49.15 L26.7 48.85 24.9 47.55 Q24.6 47.55 24.9 47.5 L24.0 45.8 23.4 44.3 22.7 42.25 23.1 40.25 23.45 39.1 23.9 38.25 Q24.35 38.1 24.0 38.1 L24.9 37.05 Q24.45 37.25 24.9 37.0 25.95 36.75 26.75 36.3 L27.95 35.25 Q28.3 34.7 28.85 34.95 L28.9 34.85 28.95 32.65 28.9 31.15 28.9 30.45 M31.4 34.95 Q31.15 35.25 31.05 35.75 L30.15 36.15 29.25 35.75 28.9 34.95 28.85 34.95 M24.85 52.8 Q24.0 52.35 23.25 51.7 L22.9 51.4 23.4 51.85 Q24.05 52.45 24.85 52.8 Z" fill="none" stroke="#ffffff" stroke-linecap="round" stroke-linejoin="round" stroke-width="0.5"/>
    <path d="M34.15 8.7 Q35.25 9.75 35.25 11.3 L35.25 11.65 33.6 11.65 33.6 11.3 Q33.6 9.75 32.55 8.7 31.75 7.9 30.75 7.7 L31.55 7.6 Q33.05 7.6 34.15 8.7 M31.05 17.05 Q31.4 15.55 32.65 13.8 L33.4 12.65 35.0 12.65 34.25 13.8 Q33.0 15.55 32.65 17.05 L31.05 17.05" fill="#ffffff" fill-rule="evenodd" stroke="none"/>
  </g>
</svg>
