<?xml version="1.0" encoding="UTF-8" standalone="no"?>
<svg xmlns:xlink="http://www.w3.org/1999/xlink" height="32.15px" width="47.2px" xmlns="http://www.w3.org/2000/svg">
  <g transform="matrix(1.0, 0.0, 0.0, 1.0, -8.35, -14.6)">
    <path d="M50.05 21.85 Q51.5 20.95 52.7 22.2 L54.95 24.5 Q56.15 25.7 54.95 26.95 L54.3 27.4 52.4 28.8 Q47.0 33.0 42.8 39.15 L41.9 39.65 41.15 39.65 40.35 39.15 39.2 38.0 38.45 37.3 38.05 36.85 34.05 32.85 Q33.3 32.1 33.5 31.4 33.55 30.9 34.05 30.4 L36.3 28.1 Q37.55 26.85 38.8 28.1 L41.55 30.9 Q44.85 24.95 50.05 21.85 M52.3 28.0 L52.25 27.95 Q46.85 32.2 42.6 38.4 L41.9 38.8 41.3 38.8 40.6 38.4 39.45 37.3 39.45 37.2 38.75 36.55 38.25 36.1 34.3 32.15 33.85 31.55 33.85 31.6 Q33.85 32.15 34.35 32.65 L38.8 37.05 39.5 37.75 40.65 38.95 Q40.95 39.25 41.35 39.35 L41.95 39.35 42.65 38.95 Q44.95 35.5 47.15 33.1 49.6 30.2 52.2 28.25 L52.3 28.0 M18.8 46.7 L18.95 46.7 18.95 46.75 18.85 46.75 Q18.65 46.7 18.8 46.7 M16.65 46.2 L16.65 46.15 16.75 46.15 16.65 46.2 M10.95 34.1 L10.95 34.15 11.05 34.2 11.15 34.2 11.25 34.1 10.95 34.1 M10.85 34.8 L11.05 34.7 11.0 34.7 10.85 34.65 10.75 34.7 10.6 34.7 10.85 34.8 M11.45 34.7 L11.45 34.8 11.45 35.0 Q11.5 35.15 11.9 35.2 L12.1 35.2 12.15 35.15 12.15 35.05 11.9 35.05 11.65 34.85 11.45 34.7 M13.6 27.35 L13.85 27.35 14.05 27.4 14.2 27.35 14.2 27.2 14.25 27.1 14.05 27.1 14.15 27.15 14.0 27.2 13.85 27.2 13.6 27.2 13.5 27.35 13.5 27.45 13.6 27.45 13.6 27.35 M14.2 26.1 L14.2 25.9 13.85 25.9 13.6 25.95 13.6 26.1 13.85 26.15 14.2 26.1 M15.1 24.95 L15.05 24.85 15.0 24.85 14.75 24.85 14.55 24.95 14.3 25.0 14.25 25.0 14.3 25.05 14.5 25.1 14.9 25.05 15.1 24.95 M15.1 25.2 L14.9 25.15 14.55 25.2 14.25 25.2 14.1 25.3 14.2 25.5 14.7 25.4 15.1 25.2 M16.8 28.4 L16.65 28.25 16.55 28.25 16.25 28.1 16.25 28.25 16.1 28.25 16.0 28.1 15.65 28.1 15.65 28.25 15.6 28.1 15.45 28.25 15.6 28.3 Q15.45 28.3 15.55 28.4 L15.6 28.45 16.1 28.6 16.55 28.5 16.8 28.4 M19.95 25.2 L19.9 25.2 19.65 25.2 19.5 25.2 19.4 25.15 19.3 25.05 19.45 24.75 19.15 24.45 18.9 24.75 18.95 25.1 18.8 25.25 18.45 25.4 18.6 25.5 18.75 25.5 18.5 25.55 18.35 25.7 18.65 25.75 18.75 25.9 18.5 25.9 18.45 25.95 Q18.65 26.1 18.5 26.2 L18.45 26.3 18.45 26.4 18.45 26.65 18.35 26.85 18.4 26.85 18.35 26.9 18.4 26.95 18.45 27.0 18.3 27.3 18.35 27.5 18.25 27.5 18.3 27.85 18.35 28.25 18.25 28.25 18.05 28.35 18.25 28.45 18.35 28.55 18.25 28.75 18.05 28.85 18.1 28.95 18.25 29.15 18.0 29.15 17.9 29.25 18.05 29.4 18.25 29.45 18.05 29.5 18.05 29.55 17.9 29.55 17.9 29.6 18.05 29.6 18.0 29.95 17.9 30.15 18.0 30.2 18.05 30.2 17.9 30.5 17.6 30.85 17.8 30.85 17.9 30.9 17.95 31.05 17.9 31.15 17.75 31.25 17.5 31.45 17.6 31.5 17.6 31.55 17.6 31.6 Q17.8 31.65 17.6 31.7 L17.55 31.75 17.4 31.8 17.55 31.95 17.6 32.0 17.55 32.0 17.55 32.05 17.6 32.05 17.55 32.2 17.5 32.3 17.5 32.45 17.5 32.6 17.45 32.65 17.45 32.7 17.5 32.8 17.5 32.85 17.55 32.9 17.4 32.9 17.5 33.0 17.6 33.1 17.9 33.05 18.05 33.0 18.45 33.0 18.95 33.0 19.0 32.9 19.85 33.05 20.55 33.0 20.95 32.9 21.1 32.8 21.2 32.65 21.25 32.45 21.1 32.35 21.0 32.35 21.15 32.2 21.1 32.15 20.9 32.0 20.8 31.75 20.95 31.7 21.0 31.65 20.95 31.6 20.8 31.6 20.95 31.5 21.1 31.3 21.15 31.25 21.1 31.2 20.95 31.15 20.8 31.05 20.75 30.85 20.75 30.6 20.8 30.5 20.75 30.4 20.8 30.4 20.8 30.35 20.7 30.25 Q20.55 30.2 20.75 30.15 L20.65 30.1 20.55 30.1 20.65 30.0 Q20.55 29.9 20.75 29.9 L20.65 29.55 20.55 29.35 20.5 29.15 20.45 28.95 20.5 28.9 20.55 28.85 20.5 28.8 20.45 28.8 20.3 28.4 20.25 27.95 20.25 27.7 20.15 27.5 20.05 27.35 20.25 27.15 20.15 27.0 20.15 26.85 20.25 26.85 20.1 26.65 Q20.0 26.6 20.25 26.45 L20.0 26.3 20.0 26.15 19.9 26.1 19.6 25.95 19.7 25.9 19.9 25.85 Q19.65 25.7 19.7 25.55 L19.5 25.3 20.0 25.3 19.95 25.2 M18.0 19.45 L17.6 19.6 17.5 19.6 17.4 19.6 17.35 19.6 17.5 19.65 18.0 19.7 18.25 19.6 18.0 19.45 M13.95 18.9 L14.0 18.8 14.0 18.7 13.85 18.7 13.6 18.65 13.5 18.7 13.55 18.85 13.6 18.9 13.95 18.9 M37.55 14.6 L37.35 14.7 37.15 14.7 37.3 14.65 37.55 14.6 M21.35 19.6 L21.6 19.6 21.6 19.5 21.6 19.4 21.5 19.45 21.35 19.6 M25.55 15.2 L25.45 15.2 25.45 15.35 25.55 15.45 25.45 15.45 25.3 15.45 25.3 15.6 25.45 15.65 25.55 15.65 25.75 15.75 25.9 15.9 25.75 15.95 25.45 16.1 25.5 16.15 25.55 16.2 25.75 16.2 25.9 16.2 26.05 16.4 26.0 16.6 25.9 16.75 25.9 16.95 26.0 17.0 25.9 17.0 25.9 17.05 26.0 17.05 25.8 17.2 25.9 17.3 25.6 17.35 25.55 17.5 25.75 17.55 26.0 17.5 26.0 17.55 26.15 17.6 26.15 17.55 26.25 17.6 26.15 17.7 26.15 17.8 26.15 17.85 26.0 17.9 26.15 18.0 26.25 18.05 26.25 18.1 26.15 18.25 26.35 18.4 26.55 18.6 26.35 18.6 26.25 18.6 26.35 18.9 26.25 19.15 26.4 19.15 26.55 19.25 26.45 19.2 26.25 19.25 26.25 19.4 26.45 19.4 26.55 19.4 26.55 19.45 26.55 19.6 26.45 19.6 26.55 19.65 26.7 19.85 26.55 19.85 26.8 20.15 26.9 20.3 26.6 20.3 26.55 20.4 26.6 20.45 26.7 20.55 26.8 20.55 26.9 20.6 26.9 20.75 27.0 20.85 26.9 20.9 26.7 20.95 27.0 20.95 26.9 21.1 27.05 21.3 27.05 21.35 26.9 21.45 27.05 21.45 27.0 21.55 27.05 21.75 27.05 21.8 27.1 22.0 27.35 22.2 27.35 22.4 27.05 22.45 27.1 22.5 27.35 22.55 Q27.15 22.65 27.25 22.7 L27.35 22.9 27.35 23.0 27.4 23.0 27.4 23.35 27.55 23.55 27.6 23.75 27.55 24.0 27.55 24.1 27.7 24.2 27.6 24.2 27.7 24.25 Q27.9 24.25 27.75 24.35 L27.55 24.5 27.6 24.65 27.7 24.85 27.55 24.85 27.45 24.95 27.4 25.0 27.65 25.05 28.0 25.1 27.8 25.1 27.7 25.2 27.9 25.5 28.1 25.7 Q28.0 25.75 28.05 25.85 L28.1 25.95 28.05 26.05 28.0 26.1 28.0 26.15 28.05 26.2 28.0 26.2 Q28.3 26.35 28.2 26.65 L28.2 26.9 28.3 27.2 28.3 27.45 28.2 27.45 28.2 27.5 28.3 27.5 28.3 27.7 28.55 27.7 Q28.3 27.75 28.5 27.8 L28.65 27.9 28.55 27.95 28.15 27.95 27.7 28.1 27.9 28.25 28.2 28.25 28.5 28.1 28.55 28.1 28.6 28.25 28.65 28.45 28.7 28.6 28.65 28.8 28.4 28.9 28.3 28.95 28.5 29.05 28.65 29.1 Q28.95 29.15 28.95 29.35 28.75 29.45 28.95 29.55 L28.95 29.6 28.65 29.65 Q28.75 29.8 28.95 29.8 L29.1 29.9 29.0 29.95 28.95 30.05 29.1 30.15 29.1 30.4 29.15 30.6 29.2 30.85 29.15 30.85 28.95 30.85 28.95 30.95 28.95 31.05 28.95 31.2 29.2 31.25 29.2 31.2 29.3 31.25 29.4 31.3 29.4 31.55 29.4 31.65 29.3 31.75 29.1 31.75 29.35 31.85 29.4 32.05 29.4 32.2 29.2 32.35 29.2 32.45 29.4 32.45 29.5 32.45 29.5 32.5 29.5 32.6 29.4 32.55 29.4 32.7 29.5 32.7 29.5 32.9 29.6 32.9 29.7 32.9 29.75 33.3 29.7 33.65 29.85 33.65 29.9 33.85 29.85 34.1 30.15 34.2 30.0 34.2 29.85 34.2 30.0 34.25 30.15 34.3 Q29.9 34.35 30.0 34.45 L30.15 34.65 30.15 34.7 30.2 34.7 30.15 34.95 Q30.05 35.05 30.3 35.25 L30.2 35.25 30.2 35.3 30.3 35.3 30.05 35.4 29.85 35.45 30.15 35.6 30.3 35.7 30.3 35.95 30.3 36.15 30.55 36.15 30.65 36.25 30.6 36.65 30.3 36.9 30.4 36.95 30.65 36.9 30.7 37.1 30.75 37.35 30.75 37.6 30.85 37.85 30.9 38.05 30.8 38.15 30.75 38.15 30.95 39.1 31.3 40.05 31.25 40.1 31.2 40.1 31.25 40.2 31.2 40.4 31.35 40.5 31.5 40.65 31.45 40.85 31.5 41.15 31.5 41.2 31.55 41.2 31.55 41.3 31.55 41.5 31.65 41.65 31.5 41.9 31.5 41.85 31.3 41.85 30.4 41.85 29.5 41.9 29.3 41.85 28.95 41.9 28.95 41.85 28.8 41.85 28.4 41.85 28.0 41.9 28.0 41.85 27.55 41.85 27.05 41.85 27.0 41.9 26.9 41.85 26.7 41.9 25.85 41.8 24.9 41.9 24.8 41.85 24.65 41.9 24.25 41.85 24.2 41.9 23.45 41.85 22.9 41.85 22.85 41.8 22.85 41.7 22.9 41.8 23.05 41.7 22.9 41.5 23.1 41.3 22.9 41.2 22.65 41.15 Q22.4 41.1 22.5 40.9 L22.65 40.7 22.6 40.35 Q22.4 40.25 22.55 40.15 L22.55 40.25 22.8 40.3 22.9 40.25 22.9 40.15 22.65 40.05 22.55 40.05 22.4 39.85 22.55 39.65 22.4 39.6 22.35 39.5 22.35 39.3 22.25 39.1 22.25 39.0 22.35 38.8 22.35 38.7 22.25 38.55 22.3 38.6 22.35 38.65 22.55 38.5 22.2 38.35 22.25 38.15 22.1 38.1 22.25 38.1 22.35 38.05 22.1 37.6 22.1 37.35 21.75 37.1 21.35 37.1 19.6 37.1 17.6 37.1 17.3 37.15 16.9 37.4 16.95 37.5 16.9 37.6 16.85 37.7 16.65 37.85 16.85 37.9 16.9 38.05 16.85 38.1 16.85 38.2 16.65 38.35 16.55 38.4 16.55 38.45 16.65 38.45 16.65 38.5 16.55 38.5 16.55 38.55 16.75 38.6 16.85 38.7 16.5 38.65 16.35 38.7 16.5 38.75 16.65 38.8 16.75 38.95 16.85 39.05 16.85 39.2 16.85 39.3 16.65 39.5 16.55 39.55 16.65 39.65 16.65 39.85 16.55 39.9 16.35 39.9 16.35 40.05 16.4 40.15 16.55 40.25 16.4 40.55 16.25 40.8 16.3 40.85 16.1 40.85 15.95 40.75 15.7 40.75 15.65 40.8 15.85 41.05 16.35 41.1 16.55 41.3 16.25 41.3 Q16.15 41.3 16.2 41.45 L16.35 41.5 16.25 41.5 16.25 41.65 16.3 41.7 16.35 41.65 16.5 41.75 16.35 41.85 16.2 41.85 16.1 41.7 15.6 41.85 15.0 41.85 14.65 41.85 14.25 41.85 14.2 41.85 14.2 41.8 14.0 41.8 14.0 41.85 14.0 41.9 13.5 41.9 13.15 41.85 13.05 41.85 13.0 41.9 12.65 41.9 12.35 41.85 12.0 41.85 11.45 41.9 11.45 41.85 11.25 41.85 11.15 41.8 11.05 41.8 10.95 41.8 10.85 41.9 10.6 41.9 10.85 41.85 10.75 41.8 10.6 41.7 10.4 41.8 10.35 41.8 10.3 41.75 10.3 41.7 9.8 41.8 9.65 41.9 9.35 41.85 8.95 41.85 8.85 41.9 8.65 41.9 8.4 41.85 8.4 41.8 8.4 41.65 8.65 41.6 8.85 41.5 8.75 41.45 8.5 41.45 8.4 41.4 8.4 41.3 8.7 41.35 8.85 41.2 8.65 41.25 8.5 41.2 8.4 41.15 8.4 41.1 8.4 40.95 8.5 40.85 8.6 40.75 8.5 40.6 8.75 40.65 8.75 40.5 8.85 40.4 8.75 40.35 8.5 40.35 8.9 40.25 8.95 40.15 Q9.15 40.15 8.95 40.1 L8.85 40.05 8.75 40.1 8.5 40.1 Q8.45 39.9 8.7 39.85 L8.95 39.65 8.9 39.6 8.85 39.55 8.75 39.5 8.75 39.45 8.85 39.5 8.95 39.35 8.85 39.2 8.85 39.25 8.75 39.15 8.85 39.05 8.8 38.9 8.85 38.75 8.85 38.65 8.9 38.65 8.95 38.55 8.95 38.25 8.95 37.95 8.95 37.85 9.15 37.85 9.3 37.85 9.3 37.65 9.15 37.65 8.95 37.6 8.95 37.55 8.95 37.45 9.15 37.3 9.3 37.05 9.35 37.05 9.35 37.0 9.4 37.1 9.65 37.05 9.65 37.0 9.45 36.95 9.3 37.0 9.15 36.85 9.3 36.65 9.35 36.55 9.3 36.45 9.4 36.25 9.3 36.15 9.35 36.1 9.35 36.05 9.3 35.9 9.35 35.7 9.35 35.45 9.35 35.2 9.45 35.05 9.65 35.0 9.55 34.9 9.65 34.8 9.75 34.7 10.0 34.6 9.8 34.45 9.65 34.4 9.75 34.25 9.65 34.2 9.7 34.15 10.0 34.1 9.75 33.95 9.65 33.8 9.75 33.55 9.65 33.3 9.95 33.3 10.0 33.2 10.0 33.15 10.05 33.15 10.0 33.1 10.05 33.0 10.05 32.9 10.0 32.85 10.05 32.8 10.05 32.7 10.0 32.7 10.05 32.45 10.3 32.2 10.05 32.15 10.0 32.05 10.1 31.95 10.3 31.75 10.2 31.75 10.05 31.7 10.1 31.6 10.05 31.55 10.2 31.6 10.3 31.65 10.45 31.6 10.5 31.55 10.55 31.6 10.85 31.65 10.95 31.6 10.95 31.55 10.85 31.45 10.75 31.3 Q10.6 31.3 10.5 31.45 L10.5 31.3 10.3 31.55 10.35 31.4 10.35 31.25 10.3 31.25 10.4 31.2 10.5 31.15 10.4 31.05 10.3 31.05 10.3 30.85 10.35 30.55 10.5 30.4 10.5 30.25 10.45 30.25 10.35 30.2 10.45 30.15 10.6 30.15 10.6 30.1 10.75 30.15 10.95 30.05 10.8 29.7 10.6 29.45 10.85 29.5 10.85 29.45 10.85 29.4 Q10.65 29.35 10.85 29.3 L10.75 29.3 10.5 29.3 10.65 29.25 10.85 29.15 10.75 29.05 10.85 28.95 10.75 28.95 10.95 28.9 11.05 28.75 10.85 28.75 10.85 28.35 10.85 28.3 10.6 28.3 10.8 27.95 10.95 27.55 10.9 27.5 10.85 27.5 11.05 27.45 11.05 27.35 10.95 27.35 10.95 27.25 11.05 27.15 10.95 27.1 10.95 27.0 11.05 27.0 11.05 27.1 11.3 27.1 11.45 27.0 11.4 26.9 11.25 26.85 11.4 26.85 11.3 26.75 11.05 26.7 10.95 26.7 11.15 26.35 11.4 26.2 11.25 26.1 11.25 25.95 11.3 25.9 11.4 25.9 11.25 25.85 11.05 25.8 11.25 25.75 11.25 25.7 Q11.35 25.6 11.4 25.65 L11.4 25.7 11.6 25.6 11.45 25.5 11.4 25.5 11.25 25.55 11.25 25.4 11.3 25.4 11.4 25.35 11.4 25.25 11.4 25.2 11.45 25.0 11.4 24.85 11.5 24.8 11.45 24.7 11.4 24.65 11.45 24.55 11.45 24.45 Q11.3 24.3 11.45 24.25 L11.65 24.1 11.5 24.1 11.4 24.05 11.45 24.05 11.6 23.9 Q11.5 23.75 11.65 23.7 L11.5 23.55 11.45 23.35 11.65 23.25 11.9 23.25 11.7 23.2 11.65 23.15 11.65 22.95 12.1 22.85 12.0 22.7 11.9 22.65 12.0 22.6 12.1 22.6 11.9 22.6 Q11.7 22.6 11.9 22.55 L11.95 22.45 11.9 22.35 12.15 22.3 12.15 22.2 12.1 22.1 12.15 21.95 12.1 21.95 12.1 21.65 12.35 21.45 12.45 21.3 12.45 21.05 12.4 21.0 12.35 21.0 12.25 20.9 12.45 20.8 12.45 20.75 12.35 20.7 12.45 20.7 12.45 20.6 12.25 20.6 12.15 20.6 12.25 20.45 12.15 20.3 12.45 20.35 12.6 20.4 12.55 20.3 12.45 20.25 12.5 20.2 12.6 20.15 12.6 20.0 12.45 19.95 12.55 19.85 12.6 19.7 12.6 19.85 Q12.95 19.85 12.95 19.65 L13.0 19.45 12.95 19.4 12.95 19.25 13.0 19.35 13.0 19.4 13.15 19.3 13.0 19.2 13.0 19.15 12.95 19.15 12.95 19.0 12.95 18.9 12.7 18.9 12.6 18.8 12.7 18.75 12.95 18.7 12.95 18.65 12.95 18.55 12.75 18.55 12.7 18.45 12.95 18.45 12.95 18.35 12.7 18.45 12.6 18.3 12.6 18.25 12.9 18.25 12.95 18.25 12.95 18.15 13.0 18.25 13.15 18.25 13.4 18.1 13.3 17.9 13.05 18.0 12.95 17.9 12.9 17.9 12.95 17.8 13.0 17.75 13.25 17.75 13.3 17.7 13.0 17.6 13.0 17.55 13.0 17.5 13.1 17.5 13.15 17.5 13.1 17.35 12.95 17.35 13.05 17.3 13.15 17.3 13.1 17.05 13.3 16.95 13.15 16.75 13.15 16.5 13.3 16.5 13.15 16.3 13.15 16.2 13.3 16.1 13.5 16.0 13.3 15.9 13.3 15.7 13.5 15.7 13.6 15.65 13.55 15.65 13.5 15.6 13.6 15.5 13.5 15.4 13.3 15.4 13.3 15.45 13.25 15.4 13.15 15.35 13.4 15.35 13.5 15.35 13.3 15.2 13.6 15.2 13.85 15.35 14.1 15.25 14.25 15.2 14.25 15.4 14.5 15.4 14.5 15.35 14.3 15.2 14.5 15.2 14.9 15.15 15.3 15.15 15.6 15.15 15.95 15.15 16.1 15.15 16.25 15.2 16.3 15.2 16.35 15.2 16.5 15.25 16.55 15.35 16.7 15.2 16.75 15.15 16.85 15.2 16.9 15.35 17.35 15.15 17.9 15.15 18.3 15.15 18.75 15.15 18.95 15.2 19.15 15.2 19.2 15.15 19.3 15.15 20.0 15.15 20.45 15.35 20.55 15.35 20.75 15.45 20.8 15.45 20.8 15.4 21.0 15.2 21.25 15.15 21.25 15.2 21.45 15.15 21.6 15.15 21.6 15.2 21.65 15.15 22.05 15.15 22.35 15.15 22.9 15.15 23.45 15.1 23.6 15.15 23.7 15.15 23.95 15.2 24.2 15.2 24.35 15.15 24.45 15.15 24.5 15.25 24.65 15.35 25.05 15.2 25.55 15.2" fill="#93c7b7" fill-rule="evenodd" stroke="none"/>
  </g>
</svg>
