<?xml version="1.0" encoding="UTF-8" standalone="no"?>
<svg xmlns:xlink="http://www.w3.org/1999/xlink" height="40.4px" width="50.7px" xmlns="http://www.w3.org/2000/svg">
  <g transform="matrix(1.0, 0.0, 0.0, 1.0, -4.9, -11.8)">
    <path d="M16.45 36.95 L16.45 30.55 8.25 26.95 8.25 36.3 Q8.6 36.5 8.85 36.85 9.4 37.6 9.4 38.75 9.4 39.8 8.85 40.55 L8.5 41.0 9.75 51.2 Q7.6 53.15 4.9 51.2 L6.5 41.1 6.05 40.55 Q5.5 39.8 5.5 38.75 5.5 37.6 6.05 36.85 L7.0 36.15 7.0 26.35 5.3 25.6 29.15 11.9 55.2 23.6 55.2 25.7 46.75 30.55 46.75 38.6 46.1 39.15 Q40.45 43.85 32.4 43.85 24.4 43.85 20.7 41.75 16.95 39.6 16.45 36.95" fill="#93c7b7" fill-rule="evenodd" stroke="none"/>
    <path d="M46.75 38.6 Q50.25 35.5 51.35 31.55 M46.75 38.6 L46.1 39.15 Q40.45 43.85 32.4 43.85 24.4 43.85 20.7 41.75 16.95 39.6 16.45 36.95 14.35 34.5 13.55 31.55" fill="none" stroke="#ffffff" stroke-linecap="round" stroke-linejoin="round" stroke-width="1.0"/>
    <path d="M55.2 23.6 L53.45 22.85 51.9 22.2 50.05 21.4 47.95 20.55 46.35 19.85 44.6 19.1 42.6 18.1 40.8 17.2 M31.85 37.45 L33.5 37.6 Q34.4 37.55 35.3 37.0 36.2 36.45 37.15 36.0 L39.05 35.15 40.6 34.3 42.15 33.0 44.1 31.8 45.4 31.3 46.75 30.55 Q47.35 30.0 48.35 29.5 L50.2 28.6 51.85 27.6 52.95 26.85 55.2 25.7 M43.25 43.0 L44.95 42.2 46.2 41.1 Q46.7 40.5 46.55 39.55 46.45 38.65 46.5 37.3 46.55 35.95 46.75 35.1 L46.95 33.3 46.75 31.3 Q46.4 31.35 46.75 30.55 M29.8 12.2 Q28.6 12.35 28.0 12.65 L26.45 13.5 24.8 14.45 23.1 15.45 Q22.1 16.05 21.25 16.6 L19.75 17.5 18.25 18.25 16.15 19.5 M39.8 16.7 Q38.9 16.55 38.0 15.95 37.1 15.35 35.95 15.1 L34.1 14.35 32.45 13.4 30.8 12.7 M15.15 20.0 L13.4 20.75 Q12.55 21.05 11.55 21.8 L9.8 22.85 Q9.05 23.15 8.15 23.85 L6.9 25.1 6.05 25.8 Q5.6 26.05 7.0 26.35 M8.25 26.95 L10.15 27.7 Q11.2 28.05 11.95 28.55 L13.85 29.4 Q14.95 29.7 15.1 29.9 L16.45 30.55 Q16.85 31.15 17.95 31.4 L20.15 32.15 22.15 32.95 23.6 33.65 Q24.15 34.0 25.4 34.2 26.7 34.45 27.4 35.15 28.15 35.9 29.1 36.25 L30.85 36.95 M16.45 30.55 Q15.95 31.75 16.15 32.6 L16.55 34.55 16.75 36.55 16.4 38.45 Q16.05 39.4 16.6 40.1 L17.6 41.65 Q18.1 42.55 19.15 42.8 L21.05 43.3 M22.15 43.55 L24.0 43.9 26.05 44.25 28.2 44.5 30.4 44.75 32.25 44.9 34.05 44.55 36.25 44.1 38.25 44.0 40.3 43.8 42.15 43.3" fill="none" stroke="#ffffff" stroke-linecap="round" stroke-linejoin="round" stroke-width="0.8500000000000001"/>
  </g>
</svg>
