<?xml version="1.0" encoding="UTF-8" standalone="no"?>
<svg xmlns:xlink="http://www.w3.org/1999/xlink" height="15.55px" width="18.85px" xmlns="http://www.w3.org/2000/svg">
  <g transform="matrix(1.0, 0.0, 0.0, 1.0, -19.85, -37.2)">
    <path d="M19.95 43.05 L20.55 43.05 21.3 43.0 22.85 43.4 Q23.25 43.7 23.5 44.35 L23.8 45.35 24.4 43.95 Q24.9 42.95 25.7 42.9 L27.15 42.9 27.15 43.6 27.1 44.0 26.75 44.0 26.4 43.95 Q26.0 43.95 25.7 44.25 25.35 44.65 24.95 45.6 L24.45 46.85 25.7 50.4 Q26.05 51.5 27.1 51.5 L27.8 51.4 27.8 52.55 25.15 52.7 Q24.6 52.75 24.1 51.7 L23.7 50.75 23.4 49.9 22.6 51.9 Q22.1 52.75 21.3 52.75 L19.85 52.75 19.9 51.6 Q20.95 51.65 21.4 51.2 L22.05 50.0 22.75 48.0 22.15 46.3 21.4 44.7 Q21.1 44.3 20.65 44.3 L20.0 44.35 19.95 43.05 M28.55 41.25 L28.45 37.3 37.5 37.2 37.45 40.15 35.45 40.25 35.4 39.45 35.0 39.05 34.05 38.85 33.0 38.9 31.35 38.95 31.35 42.8 33.7 42.5 Q36.65 42.5 38.1 44.95 38.7 45.9 38.7 47.1 38.7 48.25 38.2 49.5 L37.25 51.1 Q35.7 52.85 32.8 52.75 30.9 52.65 29.3 51.4 28.25 50.2 28.35 48.35 L29.6 48.4 30.7 48.4 Q30.85 50.85 33.1 51.1 35.05 50.8 35.1 48.25 L34.9 46.55 Q34.45 45.25 33.3 45.1 L31.9 45.0 28.8 45.4 28.55 41.25" fill="#90c7b7" fill-rule="evenodd" stroke="none"/>
  </g>
</svg>
