<?xml version="1.0" encoding="UTF-8" standalone="no"?>
<svg xmlns:xlink="http://www.w3.org/1999/xlink" height="15.75px" width="27.35px" xmlns="http://www.w3.org/2000/svg">
  <g transform="matrix(1.0, 0.0, 0.0, 1.0, -15.95, -37.05)">
    <path d="M42.7 44.95 Q43.3 45.9 43.3 47.1 43.3 48.25 42.8 49.5 L41.85 51.1 Q40.3 52.85 37.4 52.75 35.5 52.65 33.9 51.4 32.85 50.2 32.95 48.35 L34.2 48.4 35.3 48.4 Q35.45 50.85 37.7 51.1 39.65 50.8 39.7 48.25 L39.5 46.55 Q39.05 45.25 37.9 45.1 L36.5 45.0 33.4 45.4 33.15 41.25 33.05 37.3 42.1 37.2 42.05 40.15 40.05 40.25 40.0 39.45 39.6 39.05 38.65 38.85 37.6 38.9 35.95 38.95 35.95 42.8 38.3 42.5 Q41.25 42.5 42.7 44.95 M17.4 43.0 Q18.35 43.0 18.95 43.4 19.35 43.7 19.6 44.35 L19.9 45.35 20.5 43.95 Q21.0 42.95 21.8 42.9 L23.25 42.9 23.25 43.6 23.2 44.0 22.85 44.0 22.5 43.95 Q22.1 43.95 21.8 44.25 21.45 44.65 21.05 45.6 L20.55 46.85 21.8 50.4 Q22.15 51.5 23.2 51.5 L23.9 51.4 23.9 52.55 21.25 52.7 Q20.7 52.75 20.2 51.7 L19.8 50.75 19.5 49.9 18.7 51.9 Q18.2 52.75 17.4 52.75 L15.95 52.75 16.0 51.6 Q17.05 51.65 17.5 51.2 L18.15 50.0 18.85 48.0 18.25 46.3 17.5 44.7 Q17.2 44.3 16.75 44.3 L16.1 44.35 16.05 43.05 16.65 43.05 17.4 43.0 M26.3 39.6 Q26.1 39.45 25.75 39.45 L24.5 39.8 24.55 37.75 27.15 37.45 29.95 37.05 29.9 39.7 29.85 43.2 29.8 48.9 Q29.8 50.4 30.2 50.7 L31.9 50.8 31.9 52.8 24.55 52.8 24.6 52.05 24.6 51.0 25.9 50.95 Q26.85 50.85 26.85 49.5 L26.85 49.15 26.8 48.95 26.8 40.75 Q26.8 39.95 26.3 39.6" fill="#90c7b7" fill-rule="evenodd" stroke="none"/>
  </g>
</svg>
