<?xml version="1.0" encoding="UTF-8" standalone="no"?>
<svg xmlns:xlink="http://www.w3.org/1999/xlink" height="46.4px" width="46.5px" xmlns="http://www.w3.org/2000/svg">
  <g transform="matrix(1.0, 0.0, 0.0, 1.0, -1.8, -1.8)">
    <path d="M42.5 10.5 Q42.0 9.65 41.0 8.95 39.4 8.0 37.7 6.7 36.05 5.45 34.2 4.45 32.35 3.4 30.4 3.05 L27.4 2.75 25.0 2.35 21.15 2.55 Q19.35 2.75 17.25 3.7 L13.15 5.7 Q11.2 6.8 10.5 7.25 9.85 7.7 8.95 8.95 L6.25 12.25 Q4.8 13.95 4.05 15.9 3.3 17.8 2.7 19.65 2.15 21.5 2.4 22.95 2.7 24.4 2.35 25.0 L2.85 29.3 Q3.25 31.1 4.15 33.05 L6.05 36.6 7.45 39.25 Q7.95 40.3 8.95 41.0 10.5 42.8 12.15 43.85 13.85 44.9 15.75 45.75 17.65 46.6 19.85 47.05 L23.05 47.35 25.0 47.65 29.2 47.45 33.05 46.2 Q35.0 45.35 36.85 43.95 38.8 42.6 39.5 42.15 L41.0 41.0 43.5 37.6 Q44.75 36.0 45.55 33.95 L46.8 29.95 47.6 26.95 Q47.95 25.9 47.65 25.0 47.8 23.35 47.35 20.9 46.95 18.5 46.1 16.7 L44.15 13.2 42.5 10.5 Z" fill="none" stroke="#90c7b7" stroke-linecap="round" stroke-linejoin="round" stroke-opacity="0.5019608" stroke-width="1.5"/>
    <path d="M25.05 12.6 Q22.85 12.6 21.25 14.15 20.25 15.15 19.85 16.55 19.5 17.9 19.85 19.3 L15.75 20.3 Q15.15 17.85 15.8 15.4 16.5 12.95 18.3 11.2 21.1 8.4 25.05 8.4 29.05 8.4 31.8 11.2 34.6 13.95 34.6 18.0 34.6 21.95 31.8 24.75 L27.7 28.85 Q26.8 30.1 26.8 31.35 L26.8 33.8 22.55 33.8 22.55 31.35 Q22.55 27.5 25.9 24.65 L28.8 21.7 Q30.4 20.2 30.4 17.95 30.4 15.75 28.8 14.15 27.3 12.6 25.05 12.6" fill="#93c7b7" fill-rule="evenodd" stroke="none"/>
    <path d="M31.8 11.2 Q31.0 10.85 30.75 10.3 30.55 9.8 30.15 9.75 L29.5 9.6 28.85 9.25 27.8 8.85 26.7 8.75 25.95 8.75 25.05 8.4 23.8 8.4 23.05 8.5 22.2 8.9 21.2 9.25 20.25 9.75 19.4 10.3 18.85 10.75 18.3 11.2 Q17.55 11.1 17.45 11.7 L17.05 12.85 16.5 13.8 16.15 14.25 15.8 15.4 Q15.5 16.0 15.5 16.45 L15.5 17.5 15.5 18.4 15.55 19.1 15.75 20.3 16.75 20.4 17.55 20.35 18.55 19.85 19.45 19.35 19.85 19.3 19.65 18.0 19.75 17.5 19.85 16.55 20.25 15.75 20.5 15.0 21.25 14.15 Q21.35 13.8 21.85 13.55 L22.9 12.85 Q23.4 12.45 23.65 12.5 L24.4 12.8 Q24.85 13.0 25.05 12.6 25.25 12.2 25.8 12.7 26.35 13.2 26.95 12.95 L28.0 13.0 Q28.4 13.3 28.8 14.15 28.75 14.45 29.2 14.9 L29.75 15.85 30.05 16.55 30.35 17.45 30.4 17.95 30.25 19.1 30.05 20.0 29.95 20.8 Q29.85 21.35 28.8 21.7 L27.9 22.55 27.55 23.1 27.0 23.8 Q26.7 24.15 26.2 24.2 25.75 24.3 25.9 24.65 L25.05 25.35 24.45 25.85 23.85 26.6 Q23.55 27.2 23.6 27.95 23.7 28.7 23.25 28.95 22.85 29.25 22.75 29.7 L22.6 30.25 22.55 31.35 22.35 32.3 Q22.25 33.1 22.5 33.45 L22.65 33.8 Q23.3 33.75 23.6 34.0 L24.5 33.85 Q25.05 33.45 25.5 33.55 26.0 33.7 26.2 33.95 26.4 34.25 26.8 33.8 L27.1 32.8 27.0 31.95 26.8 31.35 Q26.4 30.5 26.95 30.15 L27.45 29.5 Q27.4 29.25 27.7 28.85 L28.5 28.35 Q29.0 28.3 29.25 27.65 L29.75 26.7 30.4 26.05 30.9 25.5 31.8 24.75 32.45 24.1 32.85 23.2 33.45 22.5 33.9 21.6 34.3 20.55 34.65 19.3 Q34.9 18.6 34.75 18.45 34.6 18.35 34.6 18.0 L34.45 16.8 Q34.5 16.2 34.15 15.85 33.85 15.5 34.0 15.1 34.2 14.7 33.75 14.15 L33.2 13.3 32.95 12.35 Q32.85 11.8 32.6 11.85 32.35 11.9 31.8 11.2 Z" fill="none" stroke="#90c7b7" stroke-linecap="round" stroke-linejoin="round" stroke-width="1.0"/>
    <path d="M22.35 39.25 Q22.35 38.2 23.0 37.5 23.65 36.85 24.7 36.85 25.7 36.85 26.4 37.5 27.0 38.2 27.0 39.25 27.0 40.3 26.35 40.95 25.7 41.65 24.7 41.65 L24.65 41.65 Q23.65 41.65 23.0 40.95 22.35 40.3 22.35 39.25" fill="#93c7b7" fill-rule="evenodd" stroke="none"/>
    <path d="M24.7 36.85 Q25.2 36.85 25.45 37.15 25.75 37.45 26.4 37.5 L26.95 37.95 27.0 39.25 26.9 39.8 26.35 40.95 Q26.1 40.9 25.85 41.15 L24.7 41.65 24.65 41.65 Q24.3 41.3 24.0 41.4 23.75 41.5 23.0 40.95 L22.8 40.15 22.35 39.25 22.35 38.7 Q22.25 38.45 23.0 37.5 23.65 37.2 24.0 37.05 L24.7 36.85 Z" fill="none" stroke="#90c7b7" stroke-linecap="round" stroke-linejoin="round" stroke-width="1.0"/>
  </g>
</svg>
