<?xml version="1.0" encoding="UTF-8" standalone="no"?>
<svg xmlns:xlink="http://www.w3.org/1999/xlink" height="43.4px" width="49.4px" xmlns="http://www.w3.org/2000/svg">
  <g transform="matrix(1.0, 0.0, 0.0, 1.0, -5.7, -9.0)">
    <path d="M40.35 18.35 L40.35 18.6 40.65 18.6 40.35 18.35 M29.4 12.45 L28.5 12.5 26.9 12.6 26.15 12.7 25.9 12.7 24.95 12.7 24.3 13.25 24.25 13.25 Q23.6 13.75 22.95 13.9 L22.9 14.0 22.85 15.1 22.7 16.35 22.55 17.7 22.45 17.9 23.0 17.85 23.05 17.8 24.0 17.65 24.05 17.6 25.45 17.6 25.5 17.6 27.05 17.9 28.1 18.2 28.65 18.1 Q29.4 17.75 30.15 18.1 L30.9 18.2 30.95 18.15 32.4 18.15 32.45 18.2 33.2 18.1 33.25 18.05 Q33.85 17.7 34.2 17.65 L35.25 17.55 35.3 17.55 36.85 17.8 36.9 17.8 37.0 18.0 37.1 17.9 37.3 17.4 37.3 16.5 37.3 16.45 36.95 15.3 36.95 15.25 36.7 14.4 36.25 13.6 35.65 13.0 34.85 12.75 33.65 12.65 32.55 12.6 31.85 12.65 30.7 12.7 29.4 12.45 M48.65 18.05 L49.8 18.2 50.85 18.5 51.8 18.95 51.85 19.0 52.85 19.9 53.85 21.2 54.4 22.45 54.4 22.4 Q54.85 23.2 54.75 23.8 L54.5 25.05 54.5 25.75 54.8 26.95 54.9 27.95 54.9 28.0 54.95 29.5 54.95 29.55 54.9 30.75 54.75 31.7 54.7 32.85 54.75 33.95 54.95 34.65 Q55.2 35.2 54.95 35.85 L54.85 37.05 54.85 38.35 54.85 38.4 54.95 39.55 54.95 39.6 54.85 41.05 54.85 41.0 54.65 41.85 54.7 42.65 54.75 43.8 54.85 44.65 54.85 44.75 54.8 46.05 Q54.85 47.2 54.45 47.5 L53.95 48.25 53.95 48.2 Q53.55 48.75 53.5 49.15 L52.75 50.35 Q52.0 50.9 51.35 50.9 51.1 50.9 50.85 51.2 L50.75 51.25 Q50.1 51.9 49.45 51.8 L48.3 51.95 48.35 51.95 Q47.3 52.25 46.55 51.95 L45.95 51.85 44.85 52.15 43.25 52.3 42.35 52.3 41.05 52.3 40.0 52.0 40.1 52.0 39.2 52.2 Q37.95 52.65 37.55 51.95 L37.5 51.9 36.9 51.65 Q36.5 51.45 36.15 51.65 L34.75 51.95 34.7 51.95 33.4 51.95 32.2 51.75 31.25 51.7 31.35 51.7 30.05 51.75 29.1 51.75 28.3 51.9 28.25 51.95 Q27.85 52.15 26.9 51.95 L26.85 51.95 25.45 51.8 24.35 51.85 24.4 51.85 Q23.55 52.1 23.15 51.85 L22.65 51.85 22.7 51.85 21.1 52.1 19.4 51.9 18.9 51.8 18.85 51.8 17.6 51.65 16.9 51.7 16.9 51.65 15.9 52.1 15.85 52.15 14.2 52.2 12.95 51.9 12.9 51.9 11.95 51.8 Q11.45 51.75 10.9 51.4 L10.85 51.35 Q10.5 51.1 10.0 50.95 L9.1 50.7 9.05 50.7 8.0 49.7 7.95 49.65 7.2 49.15 Q6.15 49.0 6.25 47.75 L6.25 47.7 6.25 46.85 6.25 46.9 5.95 45.65 5.95 45.6 5.95 44.35 5.95 44.3 6.05 43.25 5.9 42.3 5.85 42.2 Q5.75 41.55 5.95 40.8 L5.95 40.75 6.15 39.75 6.15 39.7 6.25 38.8 6.15 37.85 6.1 37.8 5.95 36.35 5.95 35.7 Q5.85 35.3 6.2 34.4 L6.2 33.15 5.9 32.2 5.9 32.15 Q5.55 31.6 5.85 30.7 L5.85 30.65 6.35 29.5 6.4 29.45 6.35 28.9 5.85 27.7 Q5.45 27.0 6.05 26.05 L6.1 26.0 6.3 25.65 Q6.05 25.3 6.1 24.3 L6.15 23.2 Q6.05 22.4 6.85 21.75 L6.95 21.75 7.25 21.35 Q7.3 20.85 7.7 20.1 L7.75 20.05 Q8.25 19.15 8.95 19.0 9.45 18.75 10.05 18.65 L11.35 18.55 12.0 18.2 12.1 18.15 Q12.9 17.35 13.55 17.65 14.0 17.7 14.9 18.1 L16.0 18.25 17.4 18.15 17.55 18.2 17.75 18.2 17.8 18.2 18.75 17.7 18.8 17.65 19.55 17.65 19.55 17.6 19.55 16.35 19.45 15.25 19.45 15.15 Q19.45 14.45 19.6 13.85 L19.65 13.75 Q19.8 13.15 20.25 12.6 L20.5 11.85 20.5 11.8 Q20.5 10.9 21.05 10.55 L21.1 10.45 Q21.6 10.15 22.2 10.1 L22.25 10.1 22.95 9.95 23.0 9.9 24.5 9.45 24.55 9.45 26.25 9.5 26.3 9.55 26.4 9.55 26.45 9.5 27.85 9.4 28.9 9.25 30.8 9.2 31.9 9.55 31.85 9.5 32.65 9.55 32.7 9.55 33.65 9.65 34.25 9.65 35.5 9.3 35.55 9.3 37.4 9.3 Q38.45 9.45 38.9 10.1 L38.95 10.15 39.45 10.75 39.5 10.8 40.45 11.75 Q41.2 12.65 40.65 13.55 40.5 13.75 40.75 14.05 41.55 15.0 40.8 15.85 L40.8 15.9 Q40.6 16.2 40.7 16.5 L41.1 17.45 41.25 17.7 41.8 17.7 41.85 17.7 43.05 17.85 43.1 17.9 43.95 17.95 45.35 18.15 46.3 18.1 46.35 18.1 47.8 17.95 48.6 18.05 48.65 18.05" fill="#90c7b7" fill-rule="evenodd" stroke="none"/>
    <path d="M45.0 21.55 L46.25 21.9 Q47.15 22.15 47.35 22.35 L47.9 22.75 49.1 22.85 49.95 22.95 50.4 23.9 51.0 24.9 51.35 25.8 51.7 26.95 Q51.9 27.55 51.65 27.45 L51.7 28.55 51.6 29.55 51.75 30.55 51.8 31.45 Q51.65 31.6 51.65 32.25 L51.5 33.6 Q51.35 34.3 51.5 34.6 L51.7 35.4 51.8 36.65 51.9 37.75 51.95 38.5 51.85 39.5 51.75 40.5 51.7 41.35 51.6 42.35 Q51.55 42.95 51.75 43.45 52.0 43.95 51.65 44.4 L50.9 45.35 Q50.5 45.85 50.4 46.2 L49.95 46.8 49.05 47.35 48.1 47.9 47.25 48.15 Q46.8 48.15 46.25 48.55 L45.45 49.0 44.7 48.85 43.55 48.7 42.3 48.75 41.3 48.65 40.25 48.75 39.25 48.85 38.4 48.9 37.45 48.95 36.25 49.05 Q35.65 49.25 35.1 49.05 L34.35 49.0 33.5 48.95 32.4 48.75 31.4 48.75 30.2 48.75 29.4 48.7 28.55 48.6 27.2 48.55 26.15 48.65 25.15 48.85 Q24.55 49.05 24.2 48.85 L23.45 48.6 Q23.05 48.55 22.4 48.85 L21.4 48.9 20.45 48.7 19.4 48.75 18.35 48.5 17.35 48.4 16.5 48.5 15.7 48.7 14.65 48.6 13.55 48.2 12.75 47.7 11.9 47.05 11.2 46.5 10.8 45.9 10.25 44.85 Q9.85 44.15 9.95 43.6 L10.0 42.8 9.95 42.1 9.95 41.2 9.95 40.2 10.15 39.05 Q10.4 38.55 10.15 37.85 L9.8 36.6 9.75 35.75 9.8 34.85 9.7 33.8 9.6 32.9 9.75 31.9 10.05 30.95 Q10.2 30.5 9.95 30.15 9.75 29.8 9.9 28.95 L10.0 27.85 10.0 26.8 10.05 25.85 10.35 25.2 10.9 24.25 11.45 23.6 12.25 22.95 13.05 22.2 Q13.3 21.9 14.1 21.95 L15.4 21.7 Q15.85 21.45 16.35 21.55 L17.45 21.7 18.4 21.55 19.35 21.45 20.55 21.3 21.55 21.35 22.45 21.55 23.45 21.8 24.4 21.75 25.35 21.55 26.35 21.55 27.3 21.7 28.3 21.6 29.35 21.5 30.25 21.55 31.15 21.5 32.25 21.45 33.4 21.5 34.35 21.5 35.4 21.55 36.45 21.55 37.35 21.65 38.4 21.7 39.35 21.55 40.55 21.65 41.7 21.7 42.5 21.6 43.5 21.6 44.35 21.5 45.0 21.55 Z" fill="none" stroke="#ffffff" stroke-linecap="round" stroke-linejoin="round" stroke-width="1.0"/>
    <path d="M19.15 35.7 L19.75 35.0 20.35 34.25 20.9 33.55 21.1 33.35 21.5 33.35 21.65 33.65 22.05 34.6 22.1 34.6 22.35 35.25 22.65 36.1 23.0 36.95 23.4 37.75 23.7 38.7 24.05 39.45 24.4 40.35 24.7 41.0 24.75 41.15 24.8 41.4 25.05 42.05 Q25.4 42.7 25.15 43.1 24.9 43.5 24.1 43.5 L23.25 43.3 22.3 43.2 21.4 43.0 20.55 42.95 19.55 42.75 19.55 42.85 18.65 42.7 17.8 42.55 17.75 42.55 16.85 42.45 15.95 42.3 Q15.15 42.25 15.05 41.8 L15.05 41.75 14.95 41.4 15.1 41.0 15.2 40.75 15.6 40.35 15.8 40.05 16.4 39.35 16.95 38.6 17.5 37.85 17.6 37.75 18.05 37.1 18.65 36.4 19.15 35.7" fill="#ffffff" fill-rule="evenodd" stroke="none"/>
    <path d="M19.85 36.9 L19.85 36.95 19.6 37.3 19.0 37.8 18.45 38.6 17.8 39.35 17.8 39.4 17.25 40.25 17.3 40.2 Q17.1 40.6 17.25 40.9 L17.95 41.35 19.1 41.5 20.3 41.6 21.65 41.85 22.9 41.9 23.4 41.55 23.35 40.7 22.95 39.7 22.95 39.65 22.5 38.6 22.5 38.55 21.95 37.35 21.35 36.15 Q21.15 35.85 21.0 35.95 20.7 35.95 20.5 36.25 L20.5 36.15 19.85 36.9 M19.6 36.6 L20.15 35.95 Q20.5 35.55 20.95 35.45 21.3 35.35 21.75 35.95 L22.4 37.2 22.35 37.2 22.95 38.4 22.9 38.4 23.4 39.5 23.35 39.5 23.8 40.6 23.85 41.7 Q23.6 42.3 22.95 42.35 L22.9 42.35 21.55 42.3 20.25 42.1 19.0 41.95 17.8 41.75 16.85 41.1 Q16.55 40.7 16.85 40.1 L17.4 39.1 17.5 39.1 18.05 38.3 18.15 38.3 18.65 37.55 18.7 37.55 19.25 36.95 19.6 36.6" fill="#90c7b7" fill-rule="evenodd" stroke="none"/>
    <path d="M31.85 30.9 Q31.85 29.0 33.2 27.65 34.55 26.3 36.45 26.3 38.35 26.3 39.75 27.65 41.1 29.0 41.1 30.9 41.1 32.8 39.75 34.15 38.35 35.5 36.45 35.5 34.55 35.5 33.2 34.15 31.85 32.8 31.85 30.9" fill="#ffffff" fill-rule="evenodd" stroke="none"/>
    <path d="M36.4 27.65 L35.4 27.85 34.45 28.3 33.75 28.95 33.3 29.8 Q33.1 30.25 33.05 30.75 L33.1 31.8 33.55 32.8 34.25 33.6 35.2 34.1 36.25 34.3 37.3 34.2 38.15 33.85 38.85 33.25 39.35 32.5 39.65 31.55 39.7 30.55 39.4 29.6 38.8 28.75 38.0 28.1 37.35 27.8 36.4 27.65 Z" fill="none" stroke="#90c7b7" stroke-linecap="round" stroke-linejoin="round" stroke-width="0.35000000000000003"/>
    <path d="M46.2 39.9 L31.85 45.6 30.05 41.1 44.4 35.45 46.2 39.9" fill="#ffffff" fill-rule="evenodd" stroke="none"/>
    <path d="M44.4 35.45 L43.5 35.85 42.6 36.25 41.7 36.65 40.8 37.0 39.9 37.4 39.0 37.75 38.1 38.1 37.2 38.4 36.3 38.75 35.4 39.1 34.5 39.45 33.6 39.8 32.7 40.1 31.75 40.45 30.9 40.8 Q30.5 41.0 30.4 41.3 L30.5 42.1 30.85 43.0 31.2 43.9 31.55 44.75 32.05 45.2 32.85 45.1 33.75 44.7 34.65 44.3 35.55 43.9 36.45 43.55 37.35 43.25 38.25 42.9 39.15 42.55 40.05 42.2 40.95 41.85 41.85 41.55 42.75 41.2 43.65 40.85 44.55 40.5 45.4 40.15 45.85 39.6 45.7 38.85 45.3 37.95 44.95 37.05 44.7 36.35 44.4 35.45 Z" fill="none" stroke="#90c7b7" stroke-linecap="round" stroke-linejoin="round" stroke-width="0.5"/>
  </g>
</svg>
