<?xml version="1.0" encoding="UTF-8" standalone="no"?>
<svg xmlns:xlink="http://www.w3.org/1999/xlink" height="35.15px" width="46.1px" xmlns="http://www.w3.org/2000/svg">
  <g transform="matrix(1.0, 0.0, 0.0, 1.0, -8.3, -13.15)">
    <path d="M40.6 20.25 L40.6 38.25 40.35 38.8 39.8 39.05 Q39.45 39.05 39.2 38.8 38.95 38.6 38.95 38.25 L38.95 20.25 Q38.95 19.95 39.2 19.7 39.45 19.45 39.8 19.45 40.15 19.45 40.35 19.7 L40.6 20.25 M47.75 23.5 Q48.1 23.8 48.1 24.25 L48.1 26.0 54.15 26.0 Q54.4 26.0 54.4 26.2 L54.4 36.75 54.15 36.95 48.1 36.95 48.1 41.3 Q48.1 41.75 47.75 42.05 L47.05 42.35 46.9 42.35 46.8 42.35 39.1 42.35 Q38.65 42.35 38.35 42.05 38.05 41.75 38.05 41.3 38.05 40.85 38.35 40.55 38.65 40.25 39.1 40.25 L46.0 40.25 46.0 24.25 Q46.0 23.8 46.3 23.5 46.6 23.2 47.05 23.2 47.45 23.2 47.75 23.5 M42.6 20.25 L42.85 19.7 Q43.05 19.45 43.4 19.45 L44.0 19.7 44.25 20.25 44.25 38.25 44.0 38.8 43.4 39.05 Q43.05 39.05 42.85 38.8 L42.6 38.25 42.6 20.25 M25.4 18.25 Q24.25 19.45 24.25 21.1 24.25 22.75 25.4 23.9 26.55 25.1 28.2 25.1 29.9 25.1 31.05 23.9 32.2 22.75 32.2 21.1 32.2 19.45 31.05 18.25 29.9 17.1 28.2 17.1 26.55 17.1 25.4 18.25 26.55 17.1 28.2 17.1 29.9 17.1 31.05 18.25 32.2 19.45 32.2 21.1 32.2 22.75 31.05 23.9 29.9 25.1 28.2 25.1 26.55 25.1 25.4 23.9 24.25 22.75 24.25 21.1 24.25 19.45 25.4 18.25 M36.0 15.2 Q37.1 16.3 37.1 17.85 L37.1 43.7 Q37.1 45.25 36.0 46.35 34.95 47.45 33.4 47.45 L12.8 47.45 Q11.25 47.45 10.2 46.35 9.1 45.25 9.1 43.7 L9.1 17.85 Q9.1 16.3 10.2 15.2 11.25 14.05 12.8 14.05 L33.4 14.05 Q34.95 14.05 36.0 15.2 M17.7 32.05 Q15.5 32.05 13.9 33.65 12.35 35.2 12.35 37.45 12.35 39.65 13.9 41.2 15.5 42.8 17.7 42.8 19.95 42.8 21.5 41.2 23.1 39.65 23.1 37.45 23.1 35.2 21.5 33.65 19.95 32.05 17.7 32.05 19.95 32.05 21.5 33.65 23.1 35.2 23.1 37.45 23.1 39.65 21.5 41.2 19.95 42.8 17.7 42.8 15.5 42.8 13.9 41.2 12.35 39.65 12.35 37.45 12.35 35.2 13.9 33.65 15.5 32.05 17.7 32.05" fill="#90c7b7" fill-rule="evenodd" stroke="none"/>
    <path d="M25.4 18.25 Q26.55 17.1 28.2 17.1 29.9 17.1 31.05 18.25 32.2 19.45 32.2 21.1 32.2 22.75 31.05 23.9 29.9 25.1 28.2 25.1 26.55 25.1 25.4 23.9 24.25 22.75 24.25 21.1 24.25 19.45 25.4 18.25 M17.7 32.05 Q19.95 32.05 21.5 33.65 23.1 35.2 23.1 37.45 23.1 39.65 21.5 41.2 19.95 42.8 17.7 42.8 15.5 42.8 13.9 41.2 12.35 39.65 12.35 37.45 12.35 35.2 13.9 33.65 15.5 32.05 17.7 32.05 Z" fill="none" stroke="#ffffff" stroke-linecap="round" stroke-linejoin="round" stroke-width="2.0"/>
    <path d="M23.5 14.0 L25.75 14.0 27.7 14.0 29.55 14.2 31.5 14.35 33.7 14.4 Q35.1 14.45 35.2 14.8 35.35 15.15 36.0 15.2 L36.7 17.05 37.0 18.8 37.35 20.9 Q37.5 22.0 37.3 22.95 37.1 23.95 37.3 25.15 37.5 26.35 37.3 27.35 L37.2 29.2 37.15 31.05 37.0 33.05 36.95 35.0 36.8 36.95 Q36.65 37.95 37.0 38.85 37.35 39.8 37.25 40.65 L37.2 42.95 Q37.25 44.35 36.6 44.95 35.95 45.6 35.6 46.5 35.25 47.4 34.2 47.6 L32.3 47.8 30.35 47.7 28.2 47.55 26.1 47.45 24.15 47.25 22.3 47.35 Q21.3 47.65 20.25 47.35 19.25 47.1 18.15 47.35 L16.2 47.45 14.35 47.2 12.3 47.25 Q11.3 47.4 10.65 46.8 10.0 46.2 9.45 44.95 8.95 43.7 9.0 42.8 L9.3 40.9 9.25 38.85 Q9.05 37.8 9.2 36.9 L9.2 34.9 9.0 33.05 Q8.95 32.35 9.2 31.3 9.5 30.25 9.3 29.3 9.15 28.4 9.35 27.2 9.55 26.0 9.35 24.95 L8.9 22.75 Q8.7 21.6 8.85 20.8 L8.95 19.05 Q8.9 18.1 9.15 17.15 9.4 16.2 10.1 15.65 10.85 15.15 11.75 14.85 L13.9 14.4 16.0 13.95 17.8 13.85 19.7 13.75 21.65 13.8 23.5 14.0 Z" fill="none" stroke="#90c7b7" stroke-linecap="round" stroke-linejoin="round" stroke-width="1.0"/>
  </g>
</svg>
