<?xml version="1.0" encoding="UTF-8" standalone="no"?>
<svg xmlns:xlink="http://www.w3.org/1999/xlink" height="50.35px" width="43.85px" xmlns="http://www.w3.org/2000/svg">
  <g transform="matrix(1.0, 0.0, 0.0, 1.0, -8.1, -4.75)">
    <path d="M41.95 23.75 L42.05 23.45 41.85 23.75 35.25 23.95 35.1 23.95 35.1 23.65 35.05 23.95 Q29.65 22.2 24.7 24.3 L24.65 24.1 24.45 24.15 17.8 23.9 17.65 23.45 17.75 23.85 17.75 23.95 Q14.95 22.05 12.15 23.55 L11.9 23.3 11.95 23.65 Q10.8 22.25 8.7 23.35 L8.45 23.1 8.4 22.2 Q8.4 15.3 14.7 10.4 20.0 6.3 27.2 5.65 L27.25 5.8 26.9 5.85 26.95 6.15 Q26.95 5.95 27.25 5.8 L27.55 5.65 27.9 5.5 28.9 5.3 29.45 5.3 30.2 5.25 30.4 5.25 30.9 5.25 31.1 5.3 32.25 5.45 32.3 5.45 32.5 5.5 33.1 5.75 33.45 6.15 33.55 5.85 33.6 5.55 Q40.1 6.4 45.05 10.25 51.35 15.1 51.35 22.0 L51.3 22.85 50.9 23.15 Q48.85 22.1 47.75 23.5 L47.8 23.15 47.55 23.4 Q44.8 21.85 41.95 23.75 M24.3 23.6 L24.45 24.15 24.3 23.6" fill="#90c7b7" fill-rule="evenodd" stroke="none"/>
    <path d="M41.85 23.75 L41.95 23.75 42.05 23.45 41.85 23.75 30.5 44.25 35.1 24.0 35.05 24.05 35.05 23.95 35.1 23.95 35.25 23.95 35.1 24.0 35.1 23.95 35.1 23.65 35.05 23.95 M47.55 23.4 L47.8 23.15 47.75 23.5 47.55 23.4 30.7 44.05 50.9 23.15 51.25 23.3 51.6 23.3 M50.9 23.15 L51.3 22.85 M17.75 23.95 L17.75 23.85 17.65 23.45 M24.45 24.15 L24.3 23.6 M17.8 23.9 L29.9 43.9 24.5 24.3 24.45 24.15 24.7 24.3 24.5 24.3 M17.75 23.95 L17.8 23.9 17.75 23.85 M29.9 43.9 L30.2 44.65 30.45 44.35 30.5 44.25 M30.7 44.05 L30.35 44.55 30.2 44.65 30.3 45.1 M30.7 44.05 L30.45 44.35 30.35 44.55 M8.7 23.35 L28.65 45.1 M12.15 23.55 L29.3 44.6" fill="none" stroke="#90c7b7" stroke-linecap="round" stroke-linejoin="round" stroke-width="0.75"/>
    <path d="M32.25 5.45 L32.3 5.5 M32.8 6.65 L32.85 5.95 32.8 5.85 M27.25 5.85 L27.55 5.65 M27.45 6.6 L27.1 6.05 27.25 5.85 M29.5 5.15 L28.85 5.0 M29.5 5.15 L29.95 5.3 30.35 5.3 M8.45 23.5 L8.45 23.1" fill="none" stroke="#90c7b7" stroke-linecap="round" stroke-linejoin="round" stroke-width="0.5"/>
    <path d="M32.3 5.5 L32.8 5.85 33.05 5.8 33.2 5.75 34.15 5.7 35.25 5.8 36.05 6.0 37.0 6.25 Q37.5 6.35 38.2 6.75 38.9 7.15 39.35 7.15 L40.2 7.3 41.05 7.8 41.9 8.4 42.95 8.9 44.2 9.55 45.15 10.25 45.85 10.85 46.7 11.55 47.65 12.2 48.35 12.9 49.0 13.85 49.45 14.7 49.55 15.5 49.95 16.5 50.5 17.45 51.0 18.5 51.25 19.6 51.0 20.6 Q50.8 21.3 51.15 21.45 51.55 21.65 51.3 22.25 51.05 22.85 51.25 23.3 M35.1 23.65 Q35.45 23.35 35.3 22.8 L35.15 21.7 35.15 20.65 35.35 19.6 Q35.6 19.1 35.45 18.8 L35.25 17.95 35.0 16.75 34.8 15.5 34.75 14.45 34.6 13.55 34.1 12.6 33.7 11.75 33.45 11.15 32.95 10.3 32.3 9.3 31.75 8.7 31.35 7.9 Q31.25 7.4 30.6 7.05 L30.0 7.05 29.35 7.05 28.75 8.15 28.15 9.05 27.75 9.4 27.35 10.0 26.7 11.15 Q26.35 11.6 26.3 12.25 26.25 12.9 25.8 12.95 25.4 13.05 25.25 13.8 L24.75 14.95 Q24.35 15.3 24.5 15.95 24.7 16.6 24.4 17.0 L24.0 17.95 Q23.95 18.5 24.2 19.05 24.45 19.6 24.15 20.1 23.85 20.6 24.15 21.05 24.45 21.55 24.25 21.95 24.1 22.35 24.3 23.1 L24.65 24.05 24.7 24.1 Q24.9 24.35 25.6 24.1 L26.5 23.9 27.35 23.6 28.5 23.35 Q29.0 23.45 29.6 23.0 30.2 22.6 30.55 22.75 L31.6 23.1 32.7 23.3 Q33.1 23.3 33.45 23.65 33.8 24.0 34.2 23.95 L35.05 23.95 36.1 23.85 36.85 23.35 37.9 23.2 38.8 23.2 39.8 23.1 40.65 23.25 41.95 23.75 43.15 23.4 44.05 22.9 45.0 22.75 45.75 22.75 Q46.15 22.7 46.4 23.0 46.65 23.35 47.75 23.5 L47.95 23.35 47.5 22.05 47.8 20.95 47.95 20.1 47.55 19.35 47.3 18.35 47.1 17.25 46.8 16.3 46.5 15.75 45.9 14.9 45.3 14.1 44.8 13.3 44.25 12.3 43.8 11.6 43.25 10.95 42.2 10.2 Q41.6 9.85 41.35 9.5 L40.75 9.0 39.9 8.65 39.0 8.2 38.15 7.65 37.35 7.2 36.45 6.8 35.4 6.45 34.35 6.05 33.65 5.8 33.2 5.75 M30.6 7.05 L31.6 6.95 32.65 7.05 33.7 7.15 Q34.1 7.15 34.3 7.45 L35.2 7.95 Q35.95 8.15 36.15 8.75 L36.65 9.55 Q36.95 9.8 37.6 10.05 L38.5 10.6 39.1 11.55 39.65 12.55 40.2 13.25 40.75 14.25 41.15 15.2 41.75 15.9 Q42.1 16.35 42.05 16.95 42.0 17.55 42.1 17.8 L42.25 18.8 Q42.25 19.6 42.4 19.85 42.6 20.15 42.25 20.85 41.95 21.6 42.1 21.9 L42.25 22.6 42.05 23.45 M50.9 23.15 L50.2 22.9 49.0 22.8 48.45 22.95 47.95 23.35 M28.85 5.0 L30.05 5.2 30.35 5.3 31.1 5.3 Q31.85 5.85 31.95 5.65 L32.25 5.45 M8.7 23.35 L9.55 23.2 Q9.6 22.85 10.15 23.05 L11.15 23.25 11.85 23.4 Q12.35 22.8 12.05 22.2 L11.8 21.25 11.9 20.35 12.15 19.45 12.45 18.3 Q12.55 17.55 12.8 17.3 L13.1 16.5 13.25 15.45 Q13.4 15.0 13.7 14.9 L14.25 14.25 14.85 13.15 15.55 12.3 16.15 11.5 16.85 10.9 17.65 10.6 18.3 9.95 Q18.6 9.35 19.1 9.4 19.6 9.45 19.85 8.75 20.1 8.05 20.7 8.2 21.35 8.4 21.8 7.95 L22.75 7.2 Q23.3 6.85 23.65 6.85 L24.3 6.55 Q24.6 6.3 25.3 6.2 L26.4 6.0 27.25 5.85 M8.45 23.1 L8.35 22.2 8.45 21.1 8.6 20.0 8.75 19.35 8.95 18.4 9.25 17.25 9.7 16.45 9.95 15.55 Q10.0 15.05 10.65 14.5 L11.45 13.75 11.7 13.1 Q11.9 12.65 12.65 12.3 13.4 11.95 13.35 11.35 13.35 10.75 13.75 10.85 14.2 10.95 14.7 10.45 L15.65 9.7 Q16.1 9.4 16.7 9.0 17.3 8.6 17.5 8.7 17.75 8.8 18.2 8.3 18.65 7.8 19.1 7.8 L20.2 7.65 21.05 7.2 Q21.25 6.9 21.75 6.7 L22.6 6.5 23.65 6.4 24.9 6.1 25.85 5.85 26.8 5.65 27.75 5.3 28.45 5.35 29.5 5.15 M29.35 7.05 L28.35 7.15 27.4 7.25 26.65 7.1 Q26.45 6.9 25.95 7.4 L24.9 8.2 Q24.35 8.5 24.05 9.0 23.8 9.55 23.2 9.45 22.65 9.4 22.3 10.0 L21.4 10.85 Q20.8 11.05 20.75 11.55 L20.2 12.4 Q19.7 12.7 19.35 13.1 19.05 13.5 19.05 13.95 L18.6 14.8 Q18.1 15.25 18.15 15.7 18.25 16.15 17.85 16.55 17.5 16.95 17.55 17.7 L17.45 19.0 Q17.25 19.6 17.45 20.0 17.7 20.4 17.4 21.1 17.1 21.8 17.3 22.05 L17.5 22.7 17.65 23.45 M24.65 24.05 Q24.0 23.5 23.55 23.55 L22.7 23.5 21.9 23.35 20.8 23.45 19.7 23.65 19.0 24.0 17.75 23.95 Q17.35 24.05 17.1 23.75 L16.15 23.05 Q15.5 22.65 15.0 22.8 L14.2 22.9 13.3 22.85 Q12.7 22.95 12.15 23.55 L11.85 23.4" fill="none" stroke="#ffffff" stroke-linecap="round" stroke-linejoin="round" stroke-width="0.5"/>
    <path d="M33.85 44.55 L32.45 45.15 30.65 45.05 30.6 45.0 Q30.2 44.75 29.55 45.0 L29.6 45.0 28.15 44.75 28.1 44.75 27.95 44.7 27.1 44.75 25.35 45.05 25.3 45.05 24.3 45.25 24.05 45.2 23.9 45.0 23.85 44.95 23.9 44.7 24.15 44.5 25.35 44.45 25.45 44.4 26.8 44.2 28.4 44.15 29.45 44.3 30.9 44.45 32.35 44.5 33.2 44.15 33.3 44.15 34.9 44.2 35.1 44.4 35.1 44.5 35.1 44.65 34.9 44.8 35.7 44.8 35.85 44.7 36.4 44.4 Q36.45 44.25 36.65 44.25 36.85 44.2 36.9 44.4 L36.95 44.55 36.9 44.8 36.6 45.15 35.5 45.5 34.65 45.55 Q34.1 45.55 33.85 45.95 L32.8 46.75 32.85 46.75 31.45 47.2 31.55 47.15 Q31.05 47.25 30.5 47.95 L30.6 50.4 30.65 50.3 30.65 50.65 30.7 50.55 Q30.85 50.55 30.95 50.7 L31.05 50.95 31.2 51.35 32.15 52.0 33.05 52.55 33.1 52.55 Q33.65 53.0 34.4 53.25 L35.4 53.55 35.45 53.55 36.7 53.95 36.4 53.3 Q35.95 52.95 36.4 51.85 L37.0 50.3 Q37.15 49.85 36.85 49.3 36.35 48.65 36.45 48.0 L36.65 46.5 36.75 46.25 37.0 46.2 37.25 46.4 37.25 46.55 37.1 48.2 Q37.0 48.5 37.4 48.95 L37.4 49.0 Q37.85 49.8 37.65 50.5 L37.15 52.0 37.1 52.1 Q36.85 52.7 36.95 53.0 L37.1 53.3 37.25 54.05 37.25 54.25 Q37.7 54.55 37.6 54.8 L37.45 55.05 37.15 55.0 37.0 54.95 36.95 54.75 36.4 54.6 36.35 54.6 35.2 54.95 35.0 55.0 34.8 54.8 34.8 54.7 34.8 54.55 34.9 54.45 35.4 54.2 35.35 54.2 34.15 53.85 32.8 53.2 31.65 52.45 31.6 52.4 31.05 51.95 Q30.45 51.7 30.45 51.3 L30.35 51.35 30.25 51.45 29.45 51.7 28.55 51.45 28.45 51.2 Q27.9 51.6 27.7 51.95 L26.65 52.85 25.55 53.6 24.35 54.05 23.35 54.25 Q23.2 54.25 22.9 54.6 L22.65 54.95 22.4 55.1 22.15 55.0 22.1 54.8 Q22.05 54.7 22.15 54.55 L22.6 54.15 Q23.1 53.55 23.35 53.6 L24.2 53.45 25.15 53.1 25.25 53.05 26.3 52.3 27.2 51.55 28.15 50.65 28.1 48.35 28.05 48.3 Q27.65 47.75 26.9 47.75 25.85 47.9 25.3 47.0 24.95 46.5 24.45 46.4 L24.4 46.4 22.95 46.3 22.15 46.05 Q21.9 45.8 22.0 45.5 L21.8 45.45 21.65 45.2 21.75 44.95 22.0 44.8 Q22.4 44.75 22.6 45.05 L22.7 45.4 22.65 45.55 23.05 45.7 24.45 45.75 Q25.45 45.9 25.9 46.7 26.15 47.2 26.8 47.15 L26.85 47.15 28.1 47.45 28.35 47.25 28.35 47.15 Q28.85 46.8 29.3 46.8 29.8 46.7 30.05 47.15 L30.35 47.3 31.35 46.55 32.55 46.05 33.4 45.5 34.45 44.95 34.7 44.8 34.65 44.75 33.95 44.5 33.85 44.5 33.85 44.55 M22.15 48.1 L21.85 47.15 21.85 46.95 22.05 46.8 22.1 46.8 22.35 46.9 Q22.45 46.9 22.55 47.05 L22.7 47.65 22.7 47.7 22.9 49.0 22.65 50.45 22.65 50.5 22.45 51.6 22.7 52.95 22.65 53.1 22.45 53.35 22.4 53.3 22.15 53.3 22.0 53.1 21.75 51.6 21.8 51.55 22.0 50.25 22.15 49.5 22.35 49.0 22.15 48.1 M29.8 47.95 L29.85 47.8 29.8 47.7 29.65 47.55 29.35 47.45 28.85 47.55 28.7 47.95 28.85 50.5 28.85 50.65 28.9 50.8 28.95 51.0 29.35 51.05 29.85 50.9 29.9 50.75 29.95 50.45 29.9 50.45 29.8 47.95" fill="#ffffff" fill-rule="evenodd" stroke="none"/>
    <path d="M23.85 44.95 L23.9 45.0 24.05 45.2 24.3 45.25 25.3 45.05 25.35 45.05 27.1 44.75 27.95 44.7 28.1 44.75 28.15 44.75 29.6 45.0 29.55 45.0 Q30.2 44.75 30.6 45.0 L30.65 45.05 32.45 45.15 33.85 44.55 33.95 44.5 34.65 44.75 34.7 44.8 34.45 44.95 33.4 45.5 32.55 46.05 31.35 46.55 30.35 47.3 30.05 47.15 Q29.8 46.7 29.3 46.8 28.85 46.8 28.35 47.15 L28.35 47.25 28.1 47.45 26.85 47.15 26.8 47.15 Q26.15 47.2 25.9 46.7 25.45 45.9 24.45 45.75 L23.05 45.7 22.65 45.55 22.7 45.4 Q23.15 45.0 23.85 44.95 M22.15 46.05 L22.95 46.3 24.4 46.4 24.45 46.4 Q24.95 46.5 25.3 47.0 25.85 47.9 26.9 47.75 27.65 47.75 28.05 48.3 L28.1 48.35 28.15 50.65 27.2 51.55 26.3 52.3 25.25 53.05 25.15 53.1 24.2 53.45 23.35 53.6 Q23.1 53.55 22.6 54.15 L22.4 53.3 22.45 53.35 22.65 53.1 22.7 52.95 22.45 51.6 22.65 50.5 22.65 50.45 22.9 49.0 22.7 47.7 22.7 47.65 22.55 47.05 Q22.45 46.9 22.35 46.9 L22.1 46.8 22.15 46.05 M22.9 54.6 Q23.2 54.25 23.35 54.25 L24.35 54.05 25.55 53.6 26.65 52.85 27.7 51.95 Q27.9 51.6 28.45 51.2 L28.55 51.45 29.45 51.7 30.25 51.45 30.35 51.35 30.45 51.3 Q30.45 51.7 31.05 51.95 L31.6 52.4 31.65 52.45 32.8 53.2 34.15 53.85 35.35 54.2 35.4 54.2 34.9 54.45 34.8 54.55 34.8 54.7 24.4 55.05 Q23.4 55.1 22.9 54.6 M37.1 53.3 L36.95 53.0 Q36.85 52.7 37.1 52.1 L37.15 52.0 37.15 52.5 37.1 53.3 M37.0 46.2 L36.75 46.25 36.65 46.5 36.45 48.0 Q36.35 48.65 36.85 49.3 37.15 49.85 37.0 50.3 L36.4 51.85 Q35.95 52.95 36.4 53.3 L36.7 53.95 35.45 53.55 35.4 53.55 34.4 53.25 Q33.65 53.0 33.1 52.55 L33.05 52.55 32.15 52.0 31.2 51.35 31.05 50.95 30.95 50.7 Q30.85 50.55 30.7 50.55 L30.65 50.65 30.65 50.3 30.6 50.4 30.5 47.95 Q31.05 47.25 31.55 47.15 L31.45 47.2 32.85 46.75 32.8 46.75 33.85 45.95 Q34.1 45.55 34.65 45.55 L35.5 45.5 36.6 45.15 37.0 46.2 M35.85 44.7 L35.7 44.8 34.9 44.8 35.1 44.65 35.1 44.5 35.85 44.7 M22.15 48.1 L22.35 49.0 22.15 49.5 22.15 48.1 M29.8 47.95 L29.9 50.45 29.95 50.45 29.9 50.75 29.85 50.9 29.35 51.05 28.95 51.0 28.9 50.8 28.85 50.65 28.85 50.5 28.7 47.95 28.85 47.55 29.35 47.45 29.65 47.55 29.8 47.7 29.85 47.8 29.8 47.95" fill="#90c7b7" fill-rule="evenodd" stroke="none"/>
  </g>
</svg>
