<?xml version="1.0" encoding="UTF-8" standalone="no"?>
<svg xmlns:xlink="http://www.w3.org/1999/xlink" height="48.55px" width="30.45px" xmlns="http://www.w3.org/2000/svg">
  <g transform="matrix(1.0, 0.0, 0.0, 1.0, -14.45, -5.5)">
    <path d="M38.55 6.35 L38.9 6.45 39.15 6.8 39.2 7.65 39.15 8.3 Q39.15 9.1 38.65 9.7 L38.45 9.95 Q38.0 10.35 37.55 10.35 L37.5 10.35 37.4 10.35 Q36.9 10.4 36.7 10.1 L36.65 9.95 36.75 9.8 36.75 9.75 36.95 9.7 37.1 9.8 37.5 9.85 38.25 9.4 Q38.65 8.9 38.65 8.3 38.65 7.55 38.8 7.35 L38.7 7.0 38.6 6.85 38.5 6.85 38.35 6.75 38.3 6.55 38.4 6.4 38.45 6.4 38.55 6.35 M27.45 14.85 L27.7 14.85 30.95 14.85 30.95 27.7 27.45 27.7 27.45 26.65 27.45 14.85 M21.6 40.45 L27.85 33.1 27.5 38.5 31.85 39.05 24.2 48.25 25.2 41.25 25.2 41.2 21.6 40.45" fill="#ffffff" fill-rule="evenodd" stroke="none"/>
    <path d="M38.55 6.35 L38.45 6.4 38.4 6.4 38.3 6.55 38.35 6.75 38.5 6.85 38.6 6.85 38.7 7.0 38.8 7.35 Q38.65 7.55 38.65 8.3 38.65 8.9 38.25 9.4 L37.5 9.85 37.1 9.8 36.95 9.7 36.75 9.75 36.75 9.8 36.65 9.95 31.85 9.95 31.85 14.0 Q31.85 14.85 31.05 14.85 L30.95 14.85 27.7 14.85 27.45 14.85 Q26.55 14.85 26.55 14.0 L26.55 9.95 18.55 9.95 Q17.7 9.95 17.7 9.05 L17.7 6.35 Q17.7 5.5 18.55 5.5 L37.7 5.5 Q38.55 5.5 38.55 6.35 M37.4 10.35 L37.5 10.35 37.55 10.35 Q38.0 10.35 38.45 9.95 L37.65 10.4 37.4 10.35 M27.7 14.85 L27.7 13.45 27.7 14.85 M30.95 27.7 L37.45 27.7 37.45 27.4 37.45 27.3 37.55 27.25 37.65 27.3 37.7 27.4 37.7 27.7 44.35 27.7 44.1 51.45 37.7 53.45 37.7 53.55 37.45 53.45 15.0 53.45 15.0 27.7 27.45 27.7 30.95 27.7 M21.6 40.45 L25.2 41.2 25.2 41.25 24.2 48.25 31.85 39.05 27.5 38.5 27.85 33.1 21.6 40.45 M37.7 27.7 L37.7 53.45 37.7 27.7 M37.45 27.7 L37.45 53.45 37.45 27.7" fill="#90c7b7" fill-rule="evenodd" stroke="none"/>
    <path d="M30.95 14.85 L30.95 27.7 M27.45 27.7 L27.45 26.65 27.45 14.85" fill="none" stroke="#90c7b7" stroke-linecap="round" stroke-linejoin="round" stroke-width="0.5"/>
    <path d="M21.6 40.45 L27.85 33.1 27.5 38.5 31.85 39.05 24.2 48.25 25.2 41.25 25.2 41.2 21.6 40.45 M30.95 27.7 L27.45 27.7 M37.45 53.45 L37.45 27.7 M37.7 53.45 L37.7 27.7" fill="none" stroke="#ffffff" stroke-linecap="round" stroke-linejoin="round" stroke-width="0.5"/>
    <path d="M37.7 27.7 L38.8 27.7 39.8 27.5 Q40.5 27.35 40.65 27.7 L41.35 27.85 42.45 27.75 43.25 27.9 43.9 28.3 Q44.35 28.65 44.1 28.85 43.9 29.05 44.3 29.75 44.75 30.5 44.65 30.8 L44.55 31.75 44.2 33.0 Q43.9 33.6 44.1 34.1 44.35 34.65 44.2 34.95 44.05 35.25 44.15 35.75 L44.4 36.9 Q44.55 37.55 44.3 37.95 L44.0 38.8 44.2 40.0 44.5 41.0 44.65 41.9 Q44.7 42.65 44.4 42.9 44.15 43.2 44.05 43.9 L44.15 45.15 44.3 46.3 44.3 47.15 44.45 48.05 Q44.6 48.7 44.4 49.25 L44.2 50.25 43.8 51.1 43.25 51.8 42.5 52.1 41.4 52.25 Q40.8 52.4 40.4 52.75 40.0 53.15 39.6 53.2 L38.7 53.45 37.85 53.65 Q37.55 53.65 37.65 53.55 L36.2 53.4 35.35 53.65 34.45 53.75 33.6 53.6 32.5 53.45 31.4 53.2 30.3 53.4 29.45 53.75 28.3 53.55 26.95 53.2 26.4 53.15 25.45 53.3 24.2 53.6 23.55 53.55 Q23.25 53.2 22.5 53.3 L21.2 53.4 20.25 53.35 19.4 53.15 Q19.0 52.95 18.3 53.35 17.65 53.8 17.3 53.6 L16.3 53.2 15.55 53.15 15.0 53.45 M15.0 49.4 Q15.3 48.45 15.1 48.35 14.95 48.3 14.95 47.6 L14.9 46.3 14.95 45.05 15.2 44.15 15.1 43.4 14.9 42.4 14.95 41.35 15.2 40.5 15.35 39.55 15.2 38.45 Q15.05 38.05 15.25 37.5 L15.2 36.4 Q15.0 35.9 15.15 35.3 L15.3 34.35 15.15 33.4 14.95 32.45 14.85 31.6 14.75 30.75 14.7 29.75 14.8 28.4 Q14.95 27.65 15.35 27.55 L16.15 27.65 17.05 27.6 18.2 27.55 19.25 27.5 20.1 27.6 21.15 27.75 22.25 27.75 23.2 27.75 24.25 27.9 25.3 27.95 26.3 27.7 26.9 27.6 27.45 27.7 M30.95 27.7 L31.95 28.05 32.9 27.9 34.0 27.85 35.2 27.8 36.35 27.75 Q36.9 27.95 36.9 27.55 36.9 27.2 37.45 27.7 M37.65 53.55 L37.7 53.45" fill="none" stroke="#90c7b7" stroke-linecap="round" stroke-linejoin="round" stroke-width="0.5"/>
    <path d="M36.75 9.8 L36.5 8.8 36.45 7.9 36.6 6.75 Q36.7 6.05 37.15 5.95 37.6 5.85 38.45 6.4" fill="none" stroke="#ffffff" stroke-linecap="round" stroke-linejoin="round" stroke-width="0.5"/>
  </g>
</svg>
