<?xml version="1.0" encoding="UTF-8" standalone="no"?>
<svg xmlns:xlink="http://www.w3.org/1999/xlink" height="52.5px" width="36.9px" xmlns="http://www.w3.org/2000/svg">
  <g transform="matrix(1.0, 0.0, 0.0, 1.0, -11.75, -5.2)">
    <path d="M13.75 45.3 L13.55 45.2 Q11.45 43.9 12.75 42.5 L47.65 42.5 Q48.95 43.9 46.75 45.2 L46.6 45.3 Q47.8 46.4 45.85 47.5 L45.4 47.85 43.3 53.75 17.05 53.75 15.0 47.85 14.55 47.5 Q12.55 46.4 13.75 45.3 L27.65 45.3 27.95 44.9 Q28.9 43.95 30.3 43.95 31.7 43.95 32.6 44.9 L33.0 45.3 46.6 45.3 33.0 45.3 32.6 44.9 Q31.7 43.95 30.3 43.95 28.9 43.95 27.95 44.9 L27.65 45.3 13.75 45.3 M15.0 47.85 L27.1 47.85 27.05 47.2 Q27.05 46.2 27.65 45.3 27.05 46.2 27.05 47.2 L27.1 47.85 Q27.25 48.8 27.95 49.5 28.9 50.55 30.3 50.55 31.7 50.55 32.6 49.5 33.4 48.8 33.5 47.85 L33.6 47.2 Q33.6 46.2 33.0 45.3 33.6 46.2 33.6 47.2 L33.5 47.85 Q33.4 48.8 32.6 49.5 31.7 50.55 30.3 50.55 28.9 50.55 27.95 49.5 27.25 48.8 27.1 47.85 L15.0 47.85 M38.3 54.25 Q38.25 55.05 37.3 55.65 L37.3 55.55 37.35 55.5 Q38.2 55.0 38.3 54.25 M34.45 54.4 Q34.3 55.55 33.25 56.35 32.15 57.1 30.7 57.2 L30.2 57.2 30.05 57.2 29.1 57.15 Q28.1 56.95 27.35 56.35 L26.95 55.95 26.65 55.6 Q26.25 55.2 26.2 54.65 L26.15 54.4 34.45 54.4 M24.15 55.8 Q23.0 55.15 22.95 54.25 L23.0 54.25 23.05 54.45 Q23.25 55.2 24.15 55.8 M33.5 47.85 L45.4 47.85 33.5 47.85" fill="#90c7b7" fill-rule="evenodd" stroke="none"/>
    <path d="M13.75 45.3 L13.55 45.2 Q11.45 43.9 12.75 42.5 L47.65 42.5 Q48.95 43.9 46.75 45.2 L46.6 45.3 33.0 45.3 32.6 44.9 Q31.7 43.95 30.3 43.95 28.9 43.95 27.95 44.9 L27.65 45.3 Q27.05 46.2 27.05 47.2 L27.1 47.85 Q27.25 48.8 27.95 49.5 28.9 50.55 30.3 50.55 31.7 50.55 32.6 49.5 33.4 48.8 33.5 47.85 L33.6 47.2 Q33.6 46.2 33.0 45.3 M45.4 47.85 L43.3 53.75 17.05 53.75 15.0 47.85 27.1 47.85 M13.75 45.3 L27.65 45.3 M37.35 55.5 L38.3 54.05 38.3 54.25 M34.45 54.4 Q34.3 55.55 33.25 56.35 32.15 57.1 30.7 57.2 L30.2 57.2 30.05 57.2 29.1 57.15 Q28.1 56.95 27.35 56.35 L26.95 55.95 26.65 55.6 M24.15 55.8 Q23.75 55.35 23.65 54.75 M47.05 42.15 L12.5 42.15 M45.4 47.85 L33.5 47.85" fill="none" stroke="#ffffff" stroke-linecap="round" stroke-linejoin="round" stroke-width="1.0"/>
    <path d="M44.4 42.15 L15.45 42.15 15.45 5.7 44.4 5.7 44.4 42.15 M26.8 18.1 L26.5 15.45 26.25 15.45 26.2 18.4 26.8 18.1" fill="url(#gradient0)" fill-rule="evenodd" stroke="none"/>
    <path d="M44.4 15.7 Q44.0 14.25 44.3 13.45 44.6 12.65 44.25 11.85 43.95 11.05 44.15 9.85 L44.65 8.1 Q44.9 7.55 44.4 5.7 M44.4 26.9 Q43.95 26.1 44.15 24.9 L44.4 23.0 44.4 21.1 44.25 18.85 Q44.15 17.9 44.4 16.9 M44.4 42.15 L44.65 40.35 44.45 38.15 44.35 35.85 Q44.4 34.9 44.6 33.9 44.8 32.95 44.6 32.15 44.4 31.35 44.6 30.1 44.8 28.85 44.4 28.15 M15.45 5.7 Q15.85 7.0 15.7 7.85 L15.35 9.5 Q15.15 10.3 15.3 11.5 L15.4 13.95 15.4 15.95 15.45 17.5 15.4 19.65 15.45 21.7 M15.45 36.25 L15.75 38.25 Q15.85 39.25 15.4 39.6 14.95 39.95 15.45 42.15 M15.45 22.95 L15.6 24.85 Q15.45 25.7 15.45 27.0 L15.5 29.15 15.65 30.95 15.45 32.95 Q15.2 33.95 15.45 34.95" fill="none" stroke="#d9ece6" stroke-linecap="round" stroke-linejoin="round" stroke-width="1.0"/>
  </g>
  <defs>
    <linearGradient gradientTransform="matrix(-2.0E-4, -0.0214, 0.0184, -3.0E-4, 29.85, 23.95)" gradientUnits="userSpaceOnUse" id="gradient0" spreadMethod="pad" x1="-819.2" x2="819.2">
      <stop offset="0.0" stop-color="#c9e4dc"/>
      <stop offset="0.6705882352941176" stop-color="#ffffff"/>
    </linearGradient>
  </defs>
</svg>
