<?xml version="1.0" encoding="UTF-8" standalone="no"?>
<svg xmlns:xlink="http://www.w3.org/1999/xlink" height="25.25px" width="17.1px" xmlns="http://www.w3.org/2000/svg">
  <g transform="matrix(1.0, 0.0, 0.0, 1.0, 65.2, -0.05)">
    <path d="M-54.35 5.95 Q-54.35 5.1 -55.1 4.6 -55.7 4.15 -56.45 4.15 -58.7 4.1 -59.25 5.4 L-59.45 7.6 -61.1 7.65 -62.5 7.55 Q-62.45 5.05 -61.7 3.95 -60.3 1.85 -56.1 2.0 -53.25 2.05 -51.7 3.45 -50.15 4.9 -50.15 7.3 -50.15 8.8 -50.85 9.75 -52.3 11.8 -53.9 13.45 L-56.4 16.5 Q-58.4 18.9 -58.3 21.0 L-56.5 21.05 -53.7 20.75 Q-53.0 20.25 -53.0 18.05 L-50.25 18.2 -50.05 23.35 -58.15 23.35 -60.7 23.35 -63.25 23.3 -63.2 20.3 -62.95 18.3 Q-62.6 17.15 -61.65 16.2 L-58.05 11.55 -56.4 9.6 -54.85 7.55 Q-54.35 6.7 -54.35 5.95" fill="#ffffff" fill-rule="evenodd" stroke="none"/>
    <path d="M-54.35 5.95 Q-54.35 6.7 -54.85 7.55 L-56.4 9.6 -58.05 11.55 -61.65 16.2 Q-62.6 17.15 -62.95 18.3 L-63.2 20.3 -63.25 23.3 -60.7 23.35 -58.15 23.35 -50.05 23.35 -50.25 18.2 -53.0 18.05 Q-53.0 20.25 -53.7 20.75 L-56.5 21.05 -58.3 21.0 Q-58.4 18.9 -56.4 16.5 L-53.9 13.45 Q-52.3 11.8 -50.85 9.75 -50.15 8.8 -50.15 7.3 -50.15 4.9 -51.7 3.45 -53.25 2.05 -56.1 2.0 -60.3 1.85 -61.7 3.95 -62.45 5.05 -62.5 7.55 L-61.1 7.65 -59.45 7.6 -59.25 5.4 Q-58.7 4.1 -56.45 4.15 -55.7 4.15 -55.1 4.6 -54.35 5.1 -54.35 5.95 Z" fill="none" stroke="#ffffff" stroke-linecap="round" stroke-linejoin="round" stroke-width="3.95"/>
    <path d="M-56.1 2.0 Q-53.25 2.05 -51.7 3.45 -50.15 4.9 -50.15 7.3 -50.15 8.8 -50.85 9.75 -52.3 11.8 -53.9 13.45 L-56.4 16.5 Q-58.4 18.9 -58.3 21.0 L-56.5 21.05 -53.7 20.75 Q-53.0 20.25 -53.0 18.05 L-50.25 18.2 -50.05 23.35 -58.15 23.35 -60.7 23.35 -63.25 23.3 -63.2 20.3 -62.95 18.3 Q-62.6 17.15 -61.65 16.2 L-58.05 11.55 -56.4 9.6 -54.85 7.55 Q-54.35 6.7 -54.35 5.95 -54.35 5.1 -55.1 4.6 -55.7 4.15 -56.45 4.15 -58.7 4.1 -59.25 5.4 L-59.45 7.6 -61.1 7.65 -62.5 7.55 Q-62.45 5.05 -61.7 3.95 -60.3 1.85 -56.1 2.0" fill="#90c7b7" fill-rule="evenodd" stroke="none"/>
  </g>
</svg>
