<?xml version="1.0" encoding="UTF-8" standalone="no"?>
<svg xmlns:xlink="http://www.w3.org/1999/xlink" height="72.95px" width="62.95px" xmlns="http://www.w3.org/2000/svg">
  <g transform="matrix(1.0, 0.0, 0.0, 1.0, 14.55, -4.6)">
    <path d="M37.35 55.5 Q38.2 55.0 38.3 54.25 38.25 55.05 37.3 55.65 L37.3 55.55 37.35 55.5 M22.95 54.25 L23.0 54.25 23.05 54.45 23.05 54.5 Q23.25 55.2 24.15 55.8 23.15 55.25 23.0 54.5 L22.95 54.25" fill="#90c7b7" fill-rule="evenodd" stroke="none"/>
    <path d="M38.3 54.25 Q38.2 55.0 37.35 55.5 M34.35 54.85 Q34.1 55.7 33.25 56.35 32.15 57.1 30.7 57.2 L30.2 57.2 30.05 57.2 29.1 57.15 Q28.1 56.95 27.35 56.35 L26.95 55.95" fill="none" stroke="#ffffff" stroke-linecap="round" stroke-linejoin="round" stroke-width="1.0"/>
    <path d="M43.5 20.95 L43.5 21.3 Q43.35 21.3 43.5 21.4 L43.35 21.5 43.3 21.7 36.15 17.7 36.25 17.5 36.45 17.5 36.45 17.45 36.95 17.3 37.5 17.25 37.75 17.25 37.95 17.25 38.15 17.25 38.35 17.3 38.55 17.3 38.65 17.45 38.9 17.6 39.0 17.7 39.2 17.6 39.1 17.7 39.4 17.7 39.65 17.8 39.65 18.0 39.95 18.25 40.05 18.55 Q40.05 18.45 40.35 18.45 L40.6 18.4 Q41.0 18.2 41.25 18.65 L41.25 18.85 41.4 18.75 41.6 18.85 41.75 18.85 41.85 19.05 42.35 19.2 42.35 19.3 42.35 19.5 42.55 19.6 42.55 20.05 42.6 20.25 42.7 20.45 42.7 20.55 42.9 20.55 43.0 20.75 Q43.15 20.95 43.15 20.8 L43.5 20.95" fill="#ffffff" fill-rule="evenodd" stroke="none"/>
    <path d="M7.85 39.65 L6.55 39.7 7.1 39.65 7.1 39.5 8.15 39.25 8.6 39.25 8.95 39.25 9.15 39.25 9.2 39.25 9.9 39.25 9.95 39.25 10.1 39.25 10.55 39.15 10.65 39.05 10.85 38.95 11.05 38.95 11.2 38.75 11.5 38.7 11.6 38.7 11.85 38.7 12.15 38.55 12.35 38.7 12.7 38.7 12.9 38.4 13.4 38.5 13.6 38.4 14.35 38.55 14.4 38.55 14.7 38.95 15.2 38.75 15.3 38.75 15.3 38.7 15.5 38.7 15.75 38.55 16.15 38.7 16.5 38.75 16.8 38.75 17.0 38.75 17.2 38.55 17.65 38.7 17.65 38.55 17.75 38.55 17.95 38.7 18.4 38.5 18.6 38.55 18.8 38.7 19.0 38.7 19.2 38.7 Q19.25 38.55 19.35 38.7 L19.65 38.55 19.75 38.4 20.2 38.4 20.3 38.5 20.6 38.5 20.8 38.55 20.9 38.55 20.95 38.7 21.35 38.5 21.55 38.55 22.1 38.55 22.25 38.5 22.5 38.4 22.6 38.55 22.95 38.4 23.05 38.5 23.65 38.55 23.9 38.55 24.2 38.7 24.4 38.75 24.4 38.95 24.6 38.75 24.6 38.4 24.8 38.1 24.85 38.0 24.95 37.6 25.05 37.55 24.95 37.25 25.05 37.15 25.25 36.95 25.25 36.6 24.8 36.6 24.2 36.65 24.2 36.5 24.1 36.6 23.65 36.6 23.55 36.5 23.25 36.5 22.95 36.5 22.8 36.4 22.6 36.6 22.4 36.6 22.25 36.65 21.85 36.65 21.35 36.6 20.95 36.85 20.7 36.8 20.5 36.95 20.5 36.85 20.2 36.95 19.95 37.25 19.35 37.25 19.2 37.55 19.05 37.4 18.8 37.4 18.6 37.6 18.4 37.6 17.85 37.9 Q17.65 37.9 17.85 38.1 L17.55 38.1 17.25 38.2 16.7 38.3 16.7 38.4 Q16.45 38.4 16.45 38.5 L16.05 38.5 15.5 38.2 15.35 38.1 15.3 38.1 15.3 38.0 15.1 37.9 15.1 37.75 15.0 37.35 15.2 37.15 14.9 36.95 15.0 36.95 15.0 36.5 15.1 36.4 15.1 36.1 15.2 36.1 15.2 35.9 15.35 35.75 15.35 35.55 15.7 35.25 15.75 35.05 15.75 34.85 16.15 34.85 Q16.15 34.6 16.3 34.6 L16.45 34.4 16.65 34.3 Q16.7 34.1 16.7 34.3 L16.9 34.1 17.1 34.05 17.2 33.9 17.65 33.75 17.55 33.55 17.75 33.55 18.05 33.55 18.05 33.45 18.25 33.35 18.3 33.35 18.4 33.3 18.85 33.3 19.2 32.95 19.25 32.95 19.55 32.95 19.95 32.95 20.15 32.9 20.5 32.8 20.9 32.9 21.1 32.9 21.55 32.9 21.75 32.95 21.9 33.1 22.1 32.9 22.5 33.1 22.7 32.95 22.7 33.15 23.7 33.35 24.0 33.45 24.2 33.65 24.6 33.65 24.45 33.75 24.6 33.85 24.45 33.9 24.8 33.9 25.15 34.1 25.25 34.25 25.4 34.3 25.55 34.25 25.55 34.4 26.0 34.6 26.2 34.5 26.3 34.3 26.4 34.25 26.3 34.1 26.5 34.1 26.3 34.05 26.2 33.9 25.75 33.75 25.15 33.3 25.15 33.1 25.15 32.95 24.95 32.4 25.15 32.4 25.05 32.15 25.25 31.75 25.35 31.75 25.25 31.45 25.25 31.25 25.35 31.05 25.15 31.0 25.15 30.9 25.25 30.6 25.25 30.3 25.35 30.25 25.25 30.05 25.35 30.05 25.4 29.85 25.75 29.55 25.9 29.45 26.1 29.55 26.2 29.4 26.5 29.4 26.5 29.25 26.55 29.1 26.5 29.0 26.55 28.8 26.7 28.9 26.7 28.65 26.95 28.15 27.25 27.7 27.35 27.75 27.5 27.7 Q27.7 27.5 27.85 27.55 L28.2 27.5 28.55 27.55 28.65 27.5 28.55 27.35 28.85 27.5 28.95 27.35 Q28.75 27.2 28.95 27.2 L29.25 27.2 29.3 27.1 29.5 27.1 29.5 27.0 Q29.6 26.9 29.8 27.2 30.25 27.0 30.4 27.3 L30.55 27.2 30.85 27.1 Q30.95 27.0 31.15 27.0 L31.2 26.8 31.4 26.75 31.6 26.8 32.15 26.75 32.35 26.8 32.75 26.8 33.1 27.0 Q33.25 27.0 33.25 27.1 L33.5 27.2 33.6 27.3 34.05 27.3 34.25 27.35 34.35 27.35 34.35 27.7 34.55 27.55 34.65 27.7 34.9 27.95 35.0 27.95 35.4 27.85 35.8 28.05 36.0 28.15 36.15 28.25 36.15 28.3 36.25 28.5 36.35 28.45 36.35 28.65 36.55 28.65 36.6 28.7 36.75 28.7 36.95 28.8 37.1 28.8 37.0 29.0 37.1 28.9 37.3 29.1 37.1 29.4 37.4 29.25 37.4 29.4 37.3 29.75 37.4 29.85 37.4 30.05 37.7 30.25 Q37.95 30.25 37.95 30.4 L37.95 30.5 38.15 30.4 Q38.15 30.7 38.25 30.6 L38.45 31.0 38.35 31.0 38.45 31.05 38.35 31.25 38.35 31.55 38.25 31.65 38.25 31.95 38.1 31.75 38.1 32.0 37.95 32.15 38.25 32.2 38.45 32.4 38.35 32.5 38.25 32.9 38.35 32.9 38.45 33.1 38.15 33.1 38.1 33.55 37.7 33.75 37.3 33.9 37.4 34.05 37.4 34.25 37.0 34.4 37.0 34.5 36.8 34.6 36.8 34.7 36.55 34.8 Q36.25 34.8 36.05 35.15 L36.15 35.35 36.15 35.55 36.25 35.65 36.35 35.75 36.35 36.0 36.45 35.85 36.55 35.85 Q36.6 35.55 36.8 35.55 L37.1 35.45 37.2 35.55 37.2 35.35 37.4 35.35 37.7 35.45 37.55 35.25 37.75 35.25 37.95 35.35 37.95 35.25 38.15 35.15 38.45 35.05 38.7 35.0 39.1 35.0 39.3 35.0 39.6 34.85 39.65 35.0 40.7 34.6 40.9 34.7 Q40.9 34.6 41.1 34.6 L41.2 34.6 41.45 34.6 41.4 34.7 41.65 34.7 41.95 34.8 42.2 34.8 42.4 34.85 43.1 34.8 43.1 34.85 43.35 35.0 43.55 35.05 43.75 35.25 44.15 35.45 44.45 35.55 44.6 35.85 44.9 35.9 45.1 36.1 45.1 36.2 45.2 36.2 45.2 36.4 45.25 36.3 45.35 36.5 45.55 36.65 45.95 36.85 45.95 37.15 46.05 37.05 46.1 37.15 46.05 37.35 46.1 37.4 46.1 37.55 46.3 37.6 46.5 37.75 46.4 38.0 46.4 38.1 46.6 38.3 46.65 38.55 Q46.8 38.7 46.6 38.7 L46.8 38.75 46.8 38.95 46.8 39.35 46.8 39.45 46.85 39.65 47.0 39.85 46.85 40.0 47.0 40.0 46.85 40.2 47.0 40.4 46.8 40.95 46.4 41.15 46.3 41.35 45.75 41.6 45.55 41.6 45.2 41.5 45.0 41.6 44.8 41.45 44.8 41.35 44.5 41.45 44.5 41.5 44.3 41.15 44.25 41.25 44.15 41.25 43.95 41.05 43.85 40.95 Q43.3 40.6 43.0 40.6 L42.8 40.4 42.55 40.3 42.55 40.1 42.15 39.9 42.05 39.9 41.75 39.85 41.75 39.65 41.4 39.45 41.2 39.25 40.9 39.25 40.7 39.05 40.5 38.9 40.35 38.75 39.95 38.95 39.85 38.75 39.85 38.9 39.5 38.7 39.2 38.7 39.2 38.5 39.0 38.5 38.85 38.4 38.65 38.3 38.25 38.3 38.25 38.1 37.9 38.2 37.9 38.0 37.7 38.0 37.5 38.1 37.2 38.0 37.0 38.1 36.95 37.8 36.35 38.1 36.45 38.1 36.55 38.3 36.35 38.55 36.45 38.55 36.45 38.9 36.55 38.95 36.6 39.45 36.55 39.5 36.6 39.7 36.75 39.7 36.55 39.85 36.6 41.05 36.75 41.25 36.6 41.45 36.75 41.45 Q36.6 41.6 36.75 41.7 L36.6 42.2 36.45 42.2 36.6 42.25 36.45 42.45 36.55 42.45 36.55 42.95 36.45 43.0 36.55 43.2 36.45 43.5 36.45 43.8 36.25 43.9 36.45 44.1 Q36.25 44.15 36.35 44.3 36.25 44.15 36.25 44.35 L36.35 44.75 36.45 44.85 36.35 45.1 Q36.15 45.1 36.15 45.45 L36.05 45.6 35.9 45.9 36.05 45.8 36.0 45.9 35.85 46.05 35.8 46.25 35.65 46.45 35.65 46.35 35.6 46.65 35.4 46.95 35.3 47.1 35.3 47.3 35.2 47.3 35.0 47.6 34.85 48.0 34.55 48.05 34.25 48.45 33.9 48.6 33.8 48.55 33.6 48.75 33.5 48.95 33.4 49.0 33.4 49.2 33.4 49.7 33.3 49.75 33.3 49.95 33.25 49.9 33.3 50.1 32.95 50.35 Q33.05 50.65 32.55 51.05 L32.35 51.05 32.15 51.3 32.1 51.65 31.8 52.05 31.6 52.25 31.4 52.55 31.35 52.45 30.45 53.1 30.45 53.25 30.2 53.25 30.0 53.4 Q29.9 53.85 29.6 53.75 L29.45 53.65 Q29.3 53.85 29.45 53.85 L29.5 54.05 29.45 54.2 29.5 54.4 29.5 54.6 29.45 54.7 29.45 55.0 29.45 55.3 29.5 55.5 29.45 56.15 29.45 56.5 29.3 56.7 29.5 56.8 29.45 57.1 29.45 57.4 29.5 57.4 29.45 57.65 29.45 57.85 29.5 58.1 29.45 58.3 29.5 58.85 29.6 58.85 29.5 59.05 29.5 59.25 29.6 59.35 29.45 59.55 29.6 59.65 29.6 59.8 29.6 60.6 29.5 60.6 29.6 60.7 Q29.45 60.9 29.7 60.95 29.5 61.1 29.7 61.25 29.5 61.55 29.7 61.55 L29.6 61.55 29.5 61.75 29.6 62.05 29.45 62.3 29.6 62.4 29.6 62.8 29.5 62.95 29.6 63.15 29.6 63.35 29.7 63.45 29.6 63.65 29.7 63.7 29.7 63.9 29.8 64.1 29.8 64.45 29.7 64.85 29.8 65.05 29.7 65.15 29.7 65.35 29.8 65.55 29.7 65.75 29.8 65.9 29.7 66.1 29.7 66.35 29.8 66.35 29.8 66.95 29.5 67.05 29.8 67.15 29.7 67.45 29.8 67.65 29.9 68.0 29.9 68.3 30.0 68.45 29.9 68.55 30.0 69.05 Q29.9 69.25 30.05 69.25 L30.05 69.4 30.2 69.6 30.4 69.8 30.45 70.05 30.75 70.0 30.65 70.2 30.85 70.55 30.95 70.55 30.95 70.65 31.2 70.75 31.35 70.95 31.4 71.0 31.4 71.2 31.6 71.35 31.8 71.5 31.7 71.8 31.9 71.95 31.95 72.1 31.95 72.35 Q32.1 72.55 31.9 72.55 L32.1 72.65 31.95 72.9 32.1 73.05 32.3 73.4 32.15 73.9 32.15 74.0 32.15 74.25 32.1 74.55 31.9 74.25 31.8 74.25 31.9 74.05 31.8 73.8 31.9 73.8 31.9 73.7 31.7 73.6 31.8 73.25 31.7 73.1 31.8 73.05 31.5 72.85 31.5 72.75 31.4 72.65 31.35 72.65 31.4 73.4 31.6 73.7 31.6 74.05 31.4 74.45 31.5 74.45 31.4 74.85 31.2 74.85 31.0 75.1 30.75 75.1 30.2 75.2 29.9 75.3 29.7 75.2 29.7 75.4 29.5 75.2 29.25 75.3 29.25 74.9 29.05 74.85 28.95 74.65 28.65 74.35 28.65 74.45 28.75 74.55 28.85 74.75 28.85 74.9 29.05 75.3 28.85 75.3 29.05 75.6 28.95 75.65 28.75 75.65 28.85 76.25 28.75 76.25 28.75 76.45 28.55 76.55 28.45 76.75 28.3 76.6 28.0 76.75 27.7 76.35 27.65 76.15 27.9 76.0 27.85 75.6 27.7 75.2 27.85 75.1 27.65 75.0 27.65 74.75 27.5 74.45 27.35 74.25 27.25 74.25 27.25 74.45 27.35 74.65 27.35 75.1 Q27.65 75.4 27.45 75.65 L27.65 76.35 27.45 76.55 27.5 76.8 27.25 77.0 27.05 77.2 26.95 77.2 26.9 77.3 26.7 77.3 26.55 77.4 Q26.4 77.3 26.4 77.55 L26.0 77.5 25.8 77.5 25.75 77.5 25.55 77.55 Q25.35 77.4 25.15 77.55 L24.95 77.5 24.3 77.5 24.4 77.3 24.0 77.3 23.7 77.0 23.65 77.1 23.25 77.1 23.15 76.95 22.85 76.95 22.8 76.6 22.7 76.55 22.5 76.25 22.4 76.15 22.5 76.0 22.25 75.3 22.4 74.9 22.4 74.45 22.5 74.35 22.5 74.15 22.6 74.15 22.5 74.05 22.5 73.8 22.8 73.8 22.7 73.5 22.95 73.05 23.15 72.65 23.15 72.55 23.35 72.55 23.25 72.45 23.45 72.35 23.35 72.1 23.55 71.95 23.45 71.9 23.65 71.7 23.65 71.2 23.7 71.0 23.65 70.95 23.85 70.65 23.65 70.45 23.65 69.8 23.7 69.4 23.45 69.15 23.55 69.05 23.45 68.75 23.45 68.45 23.55 68.3 23.45 67.7 23.45 67.35 23.45 66.75 23.45 66.55 23.35 66.5 23.35 66.1 23.25 65.8 23.35 65.35 23.35 64.95 23.15 63.8 23.05 63.15 23.05 63.05 23.15 62.7 23.15 62.3 23.05 62.05 23.05 61.9 22.95 61.75 22.95 61.35 22.95 61.1 22.85 60.9 22.95 60.3 22.85 60.3 22.85 59.55 22.85 59.35 22.8 59.0 22.8 58.4 22.8 58.1 22.7 57.55 22.7 57.45 22.6 56.9 22.7 56.7 22.6 56.7 22.5 56.5 22.6 56.3 22.6 56.05 22.5 55.7 22.6 55.5 22.3 55.5 22.25 55.55 22.1 55.55 21.85 55.7 21.55 55.7 21.3 55.75 21.15 55.85 21.1 55.75 20.95 55.85 20.8 55.75 20.7 55.85 20.4 55.95 20.15 56.05 19.95 55.75 19.75 55.85 19.55 55.75 19.25 55.7 19.2 55.55 18.85 55.5 18.8 55.5 18.8 55.35 18.7 55.15 18.6 55.15 18.4 55.15 18.1 55.15 17.85 55.35 17.45 55.5 16.05 55.7 16.15 55.55 15.85 55.5 15.7 55.5 15.1 55.35 15.0 55.5 15.1 55.3 14.8 55.35 14.55 55.35 14.55 55.15 14.35 55.3 14.2 55.15 14.05 55.15 13.95 55.3 13.75 55.15 13.75 55.35 13.4 55.5 13.2 55.5 12.15 55.7 11.95 55.55 11.85 55.7 11.65 55.55 11.6 55.55 11.5 55.35 11.4 55.5 11.3 55.35 11.05 55.15 10.7 55.1 10.55 55.0 10.45 55.15 10.65 55.55 Q10.55 55.5 10.45 55.7 L10.7 55.55 10.85 55.85 Q10.7 56.05 10.85 56.05 10.7 56.5 10.85 56.5 L10.9 56.7 Q10.7 56.7 10.85 57.2 L10.9 57.4 10.9 57.55 10.9 57.65 11.05 57.85 Q10.85 57.95 11.1 58.4 L11.05 58.5 11.05 58.8 10.9 58.85 11.2 59.05 11.1 60.5 11.2 60.6 11.2 60.9 11.2 61.9 11.3 62.1 11.4 62.4 11.4 62.95 11.3 63.15 11.4 63.35 11.3 63.55 11.5 63.7 11.5 63.9 11.4 64.1 11.5 64.4 11.5 64.45 11.6 64.85 11.6 65.15 11.5 65.55 11.5 65.75 11.6 65.8 11.6 65.9 11.4 66.0 11.6 66.3 11.6 66.55 11.6 66.75 11.6 66.95 11.6 67.45 11.5 67.5 11.65 67.65 11.6 67.85 11.6 68.2 11.5 68.4 11.6 68.65 11.5 68.75 11.65 69.15 11.65 69.3 11.8 69.4 11.85 69.4 11.85 69.7 12.15 69.8 12.15 70.05 12.15 70.25 12.25 70.25 12.65 70.75 12.65 70.85 13.1 71.15 13.4 71.7 13.45 71.9 13.65 72.15 13.6 72.3 13.65 72.3 13.6 72.35 13.75 72.55 13.75 72.65 13.6 72.85 13.75 72.9 13.85 73.05 13.7 73.15 13.85 73.25 13.75 73.5 13.85 73.8 13.65 73.9 13.75 74.0 13.45 74.0 13.4 74.05 13.2 74.0 13.1 73.7 13.0 73.5 12.8 73.3 12.9 73.1 12.8 72.85 12.9 72.75 12.7 72.65 12.7 72.55 12.45 72.35 12.45 72.3 12.35 72.15 12.35 72.35 12.45 72.35 12.8 73.3 Q12.7 73.4 12.9 73.5 L12.8 74.05 13.0 74.05 12.9 74.25 13.0 74.35 13.0 74.45 12.9 74.55 Q12.7 74.55 12.65 74.75 L12.45 74.75 12.25 74.85 11.95 74.75 11.8 74.9 11.3 74.9 11.1 74.85 10.85 74.85 10.7 74.85 10.65 74.65 10.55 74.45 10.55 74.15 Q10.45 74.25 10.35 74.05 L10.25 74.05 10.25 73.7 9.95 73.25 9.95 73.1 9.75 72.9 9.9 72.75 9.6 72.65 9.75 72.55 9.6 72.55 9.6 72.45 9.5 72.35 9.4 72.15 9.4 72.1 9.2 71.8 9.0 71.7 9.0 71.9 9.4 72.35 9.5 72.35 9.6 72.65 9.6 72.85 9.7 73.05 9.9 73.05 9.95 73.25 9.95 73.5 10.1 73.7 10.15 74.0 10.15 74.25 10.25 74.25 10.25 74.55 10.55 74.65 10.45 74.9 10.55 75.2 10.65 75.6 10.65 75.85 10.35 76.0 10.25 75.85 10.25 76.15 9.9 76.05 9.75 76.15 9.7 75.65 9.5 75.5 9.7 75.3 9.6 75.2 9.6 74.9 9.4 74.9 9.4 74.55 9.2 74.35 8.75 73.7 8.75 73.9 Q9.15 74.05 8.95 74.15 L9.0 74.25 9.0 74.55 9.15 74.65 8.95 74.85 9.2 74.9 9.3 75.3 9.2 75.4 9.3 75.65 9.3 76.0 Q9.5 76.15 9.3 76.25 L9.2 76.25 9.2 76.45 8.95 76.45 8.6 76.45 8.55 76.75 8.25 76.75 8.15 76.75 7.85 76.8 Q7.65 76.8 7.6 76.95 L7.4 76.95 6.95 76.95 6.25 76.95 6.1 76.8 5.5 76.75 5.3 76.95 5.1 76.75 5.1 76.55 4.95 76.6 4.75 76.35 4.55 76.25 4.35 76.05 4.3 75.8 4.35 75.65 4.15 75.3 4.15 74.65 4.35 74.45 4.15 74.25 4.35 74.0 4.35 73.5 4.55 73.25 4.55 73.1 4.75 72.85 4.65 72.55 4.85 72.35 4.85 72.15 5.05 72.1 5.05 71.6 4.95 71.6 5.25 71.35 5.1 71.2 5.25 71.0 5.25 70.75 5.25 70.2 5.25 70.0 5.1 69.25 Q5.05 69.15 5.25 69.15 5.1 69.05 5.1 68.75 L5.25 68.65 5.05 68.55 5.1 68.55 5.1 68.3 4.95 68.2 5.1 68.2 5.05 67.9 5.05 67.65 5.05 67.5 5.1 67.45 4.95 67.35 5.05 67.15 5.05 66.95 4.95 66.5 4.95 66.35 5.05 66.1 4.95 65.9 4.85 65.9 5.05 65.6 4.85 65.6 4.95 65.55 4.85 65.55 4.85 65.35 4.85 65.25 4.85 64.95 4.85 64.8 4.95 64.65 4.75 64.6 4.85 63.65 4.75 63.35 4.75 63.25 4.65 62.85 4.65 62.7 4.55 62.4 4.75 62.4 4.65 62.25 4.65 61.55 4.65 61.15 4.65 61.1 4.55 60.7 4.65 60.7 4.55 60.4 4.5 59.95 4.65 59.95 4.55 59.8 4.55 59.75 Q4.5 59.8 4.35 59.65 4.65 59.45 4.35 59.35 L4.55 59.35 4.35 59.0 4.5 58.8 4.35 58.1 4.3 57.85 4.3 57.25 4.3 56.9 4.3 56.5 4.1 56.05 4.1 55.75 4.15 55.35 4.1 55.1 4.1 54.9 3.9 54.8 4.0 54.6 3.9 54.55 4.0 54.35 4.0 53.95 3.9 53.75 3.8 53.4 3.55 53.45 2.75 53.4 2.75 53.45 2.45 53.25 2.25 53.45 2.25 53.4 2.1 53.25 2.0 53.25 1.6 53.0 1.5 52.7 1.5 52.55 1.25 52.55 0.95 52.6 0.95 52.55 0.5 52.45 0.4 52.35 0.2 52.35 0.1 52.45 -0.1 52.7 -0.1 52.9 0.0 53.25 -0.1 53.6 -0.1 53.85 -0.3 53.75 Q-0.3 54.05 -0.5 53.95 L-0.65 54.15 -0.85 54.15 -0.75 54.6 -1.1 54.7 -1.25 55.0 -1.25 55.3 -1.45 55.3 -1.3 55.35 -1.45 55.55 Q-1.3 55.7 -1.45 55.75 L-1.5 55.85 -1.7 55.85 -1.6 56.05 -1.7 56.15 Q-1.8 56.3 -2.05 56.3 L-2.2 56.5 -2.4 56.3 -2.55 56.5 -2.85 56.3 -3.15 56.65 -3.15 56.7 -3.35 56.7 -3.2 57.0 -3.6 57.2 -3.8 57.25 -4.0 57.2 Q-3.9 57.45 -4.05 57.55 L-3.9 57.45 -4.15 57.85 -4.35 57.85 -4.45 58.05 -4.45 58.2 -4.55 58.2 -4.65 58.4 Q-4.85 58.3 -4.85 58.5 L-4.95 58.4 -5.1 58.7 -5.5 58.7 -5.75 58.7 -5.75 58.8 -6.15 58.7 -6.65 58.7 -6.9 59.0 -7.1 59.0 -7.3 59.25 -7.6 59.25 -7.8 59.35 -8.45 59.45 -9.3 59.2 -9.7 58.7 -9.7 58.6 -9.95 58.5 -9.85 58.6 -10.15 58.7 -10.45 58.7 -10.6 58.8 -11.1 58.8 Q-11.15 58.6 -11.3 58.7 L-11.15 58.5 -11.35 58.6 -11.35 58.3 -11.7 58.2 -11.7 57.95 -12.45 57.85 -12.65 57.75 -12.5 57.65 -12.9 57.45 -13.1 57.45 Q-13.1 57.2 -13.25 57.25 L-13.2 57.2 Q-13.25 57.1 -13.4 57.1 L-13.6 56.7 -13.65 56.65 -13.85 56.3 Q-13.65 56.25 -13.75 56.15 L-13.75 56.05 -13.75 55.85 -13.85 55.75 -13.65 55.7 -13.75 55.35 -13.75 55.1 -14.05 55.0 -14.15 54.8 -14.2 54.7 -14.2 54.6 -14.35 54.4 -14.4 54.15 -14.4 53.85 -14.35 53.4 -14.2 53.25 -14.15 53.2 -14.35 53.2 -14.2 53.1 -14.4 53.0 -14.55 52.6 -14.4 52.6 -14.35 52.35 -14.35 52.25 Q-14.2 52.25 -14.2 51.95 L-14.05 51.95 Q-13.85 51.65 -13.75 51.8 L-13.6 51.65 -13.6 51.5 -13.85 50.9 -13.85 50.85 -13.85 50.55 -13.85 50.35 -13.75 50.15 -13.85 49.95 -13.6 49.95 -13.65 49.9 -13.25 49.4 -13.2 49.3 -13.0 49.3 -12.9 49.2 -12.7 49.2 -12.5 49.1 -12.65 48.95 Q-12.3 49.0 -12.5 48.8 L-12.15 48.6 -11.95 48.25 -11.5 48.25 -11.5 48.35 -11.35 48.15 -11.3 48.0 -11.5 47.85 -11.3 47.85 -11.3 47.5 -11.0 47.4 -10.8 47.3 -10.7 47.2 -10.55 47.3 -10.35 47.05 -10.35 46.95 -9.95 47.05 -9.75 46.85 -9.7 47.05 -9.7 46.95 -9.4 46.85 -9.3 47.05 -9.1 46.85 -9.1 46.65 -8.8 46.65 -8.75 46.35 -8.65 46.35 -8.45 46.2 Q-8.25 46.2 -8.15 46.05 L-8.05 46.0 -7.65 45.9 -7.5 45.8 -7.1 46.0 -6.85 46.0 -6.65 45.9 Q-6.35 45.9 -6.45 46.0 L-5.95 45.9 -5.75 45.8 -5.7 45.6 -4.85 45.6 -4.55 45.7 Q-4.55 45.3 -4.1 45.3 -3.8 45.25 -3.8 45.45 L-3.5 45.45 -3.05 45.5 -2.85 45.5 -2.45 45.45 Q-2.25 45.3 -2.2 45.45 L-2.2 45.1 -2.45 45.1 -2.25 44.85 -2.25 44.5 Q-2.05 44.55 -2.2 44.35 L-1.9 44.1 -1.7 43.9 -1.45 43.8 -1.45 43.7 -1.45 43.2 -1.45 43.15 -1.25 42.95 -1.05 42.4 -0.85 42.25 -0.75 42.2 -0.15 41.9 -0.1 41.7 0.0 41.6 0.2 41.6 0.1 41.45 0.3 41.45 0.3 41.35 0.6 41.05 0.65 41.05 0.95 41.05 0.95 40.85 1.25 41.05 1.45 41.05 Q1.5 40.95 1.7 40.95 L1.8 40.75 2.0 40.6 Q2.2 40.45 2.2 40.6 L2.4 40.45 2.65 40.4 2.95 40.4 3.2 40.3 3.4 40.3 3.7 40.45 3.8 40.2 4.15 39.85 4.35 39.85 4.65 39.85 Q5.05 39.7 5.5 39.85 L5.45 39.9 4.75 40.1 4.65 40.3 4.35 40.45 4.1 40.45 4.0 40.6 3.8 40.65 3.7 40.95 3.55 40.85 2.65 40.65 1.9 41.35 1.8 41.5 Q1.15 41.15 0.75 41.5 L0.5 41.6 0.4 41.7 0.3 42.25 0.0 42.0 -0.3 42.4 -0.5 42.45 -0.85 43.15 -0.95 43.35 -1.05 43.4 -1.05 43.7 -1.1 43.6 -1.25 43.8 -1.05 43.8 -1.05 43.9 -1.1 44.1 -1.25 44.3 -1.3 44.15 -1.45 44.15 -1.5 44.3 -1.45 44.55 -1.7 44.65 -1.7 44.85 -1.8 44.75 -1.9 45.05 -1.8 45.1 -1.8 45.5 -1.8 45.6 -1.9 45.6 -2.45 45.7 -2.75 45.9 -2.85 46.05 -2.95 46.2 -3.05 45.9 -3.05 45.8 -3.15 45.7 -3.35 45.6 -3.6 45.6 -3.8 45.8 -3.9 45.7 -4.1 45.8 -4.15 46.0 -4.15 46.05 -4.25 46.0 -4.55 45.8 -4.75 46.0 -4.95 45.9 -5.0 45.9 -5.2 46.05 -5.4 46.05 -5.5 46.35 -5.55 46.25 -5.75 46.45 -5.95 46.35 -6.1 46.2 -6.35 46.25 -6.55 46.2 -6.85 46.25 -7.1 46.35 -7.4 46.35 -7.65 46.55 -8.15 46.55 -8.45 46.85 -8.55 46.95 -8.8 47.05 -8.8 47.3 -8.95 47.4 -9.1 47.5 -9.3 47.4 -9.2 47.3 -9.5 47.3 -9.6 47.2 -9.75 47.3 -10.05 47.2 -10.35 47.5 -10.6 47.8 -10.7 48.0 -10.9 48.0 Q-10.7 48.25 -10.9 48.25 -10.7 48.25 -10.9 48.45 L-10.9 48.75 -11.15 48.75 Q-11.3 48.6 -11.3 48.75 L-11.5 48.6 -11.7 48.6 -11.95 48.6 -12.15 48.8 -11.95 49.0 -12.05 49.2 -12.05 49.3 -12.05 49.5 -12.25 49.5 -12.5 49.55 -12.45 49.55 -12.7 49.7 -13.0 49.75 -13.1 49.95 -13.2 50.1 -13.4 50.7 -13.45 50.85 -13.45 51.2 -13.25 51.6 -13.4 51.8 -13.6 52.15 -13.75 52.15 -13.75 52.55 -13.95 52.7 -13.95 52.9 -13.85 52.7 -13.75 53.0 -13.95 53.25 -14.05 53.45 -14.05 53.85 -13.95 54.15 -13.95 54.35 -13.85 54.6 -13.6 54.6 -13.25 54.9 -13.25 55.35 -13.2 55.75 -13.25 56.25 -13.2 56.45 -13.1 56.65 -12.9 56.7 -12.9 57.1 -12.7 57.2 -12.65 57.25 -12.3 57.45 -12.25 57.45 -11.85 57.65 -11.5 57.55 -11.3 57.55 -11.3 57.75 -11.1 58.1 -10.9 58.2 -10.8 58.4 -10.45 58.2 -10.15 58.2 -10.05 58.05 -9.6 58.05 -9.4 58.2 -9.3 58.3 -9.2 58.5 -9.1 58.7 -8.45 59.05 -8.05 59.2 -7.8 59.0 -7.6 59.05 -7.5 58.85 -7.05 58.7 -7.05 58.6 -6.85 58.5 -6.85 58.4 -6.45 58.3 -6.25 58.4 -6.1 58.5 -5.95 58.4 -5.95 58.5 -5.75 58.3 -5.3 58.3 -5.2 58.1 -5.1 58.1 -5.0 57.85 -4.95 57.95 -4.85 57.75 -4.65 57.55 -4.45 57.45 -4.55 57.25 -4.45 57.1 -4.1 56.7 -4.0 56.7 -3.7 56.65 -3.35 56.5 -3.35 56.3 Q-3.2 56.25 -3.35 56.25 L-3.4 55.95 -2.85 55.95 -2.75 56.05 -2.45 55.95 -2.2 55.75 -2.0 55.5 -1.7 55.1 -1.6 55.0 -1.7 54.7 -1.5 54.8 -1.5 54.6 -1.5 54.2 -1.3 54.35 -1.05 53.95 -1.1 53.65 -0.95 53.65 -0.75 53.65 Q-0.65 53.45 -0.55 53.65 L-0.5 53.4 -0.5 53.2 -0.55 53.1 -0.5 52.8 -0.75 52.8 -0.5 52.7 -0.35 52.35 -0.3 52.45 -0.15 52.25 -0.35 51.8 -0.3 51.65 -0.5 51.65 -0.55 51.4 -0.85 51.05 -0.95 50.85 -0.75 50.55 -1.25 50.55 Q-1.1 50.35 -1.45 50.45 L-1.5 50.35 -1.5 50.15 -1.8 49.9 -1.6 49.9 -1.6 49.7 -1.45 49.75 -1.45 50.1 -1.3 50.15 -1.25 50.15 -1.05 50.25 -0.65 50.45 -0.55 50.65 -0.3 51.05 Q-0.5 51.1 -0.3 51.3 L-0.15 51.5 -0.1 51.4 -0.15 51.6 0.1 51.5 0.1 51.8 0.3 51.65 0.4 51.95 0.5 51.95 0.95 52.25 1.05 52.15 1.05 52.35 1.45 52.35 1.6 52.35 1.7 52.55 1.6 52.6 1.9 52.6 2.2 52.8 2.1 52.9 2.25 53.0 2.45 52.9 2.75 53.0 2.85 52.9 3.0 53.2 3.35 53.0 4.1 53.1 Q4.1 53.0 4.3 53.0 L4.35 53.0 4.5 52.7 4.65 52.8 4.65 52.7 4.85 52.8 4.75 52.9 5.5 53.2 5.7 53.2 6.1 53.25 6.25 53.4 6.55 53.4 6.95 53.2 6.95 53.6 6.95 53.75 7.05 53.85 7.3 53.75 7.2 53.95 7.5 54.15 7.65 54.05 7.85 54.35 7.85 54.2 8.05 54.4 8.25 54.6 8.6 54.7 8.95 54.7 8.8 54.9 9.15 54.8 9.0 54.9 9.3 54.8 9.75 55.0 9.95 54.8 10.1 54.9 10.25 54.8 10.7 54.4 Q10.65 54.7 10.85 54.6 L11.2 54.8 11.3 54.9 11.4 54.9 12.05 55.1 12.45 55.15 12.55 55.15 12.9 55.15 13.1 55.1 13.25 55.1 13.4 55.0 Q13.6 55.1 13.95 54.8 L13.85 54.7 Q13.95 54.8 14.05 54.6 L14.05 54.55 14.2 54.55 14.4 54.7 14.7 54.9 14.9 54.9 15.35 55.1 15.5 55.15 15.7 55.1 16.05 55.1 16.45 55.1 17.25 55.1 17.55 55.0 17.85 54.9 17.95 54.9 18.1 54.9 18.85 54.8 19.0 55.0 18.85 55.0 19.0 55.15 19.05 55.15 19.55 55.3 19.65 55.15 19.65 55.35 20.15 55.3 20.4 55.35 20.5 55.5 20.9 55.3 21.3 55.3 22.1 55.1 22.25 55.15 22.6 55.0 22.6 54.8 22.8 55.0 23.05 55.0 22.95 55.1 22.95 55.15 23.15 55.35 23.45 55.3 23.7 55.35 Q23.85 55.15 24.0 55.35 L23.9 55.2 24.1 55.15 24.2 55.35 24.1 55.1 24.3 55.1 24.45 55.15 24.6 55.1 24.85 55.0 24.95 54.9 25.15 54.7 25.35 54.7 25.8 54.35 Q25.8 54.2 26.0 54.2 L26.1 54.35 26.0 54.4 25.8 54.55 25.8 54.9 25.9 54.8 25.8 55.1 26.1 54.9 26.3 55.0 26.55 55.0 Q26.7 54.9 26.7 55.1 L27.35 55.1 27.5 54.9 27.7 54.9 27.9 54.8 28.4 54.7 28.3 54.6 28.4 54.6 28.65 54.4 28.95 54.15 28.95 54.05 29.05 53.85 28.95 53.85 29.05 53.65 28.95 53.6 29.3 53.4 29.45 53.4 29.9 53.25 30.0 53.2 30.0 53.1 30.2 53.0 30.65 52.6 Q30.45 52.45 30.75 52.45 L30.55 52.35 30.65 52.25 30.75 52.05 30.95 51.95 31.0 52.15 31.0 52.05 31.4 51.95 31.35 51.8 31.5 51.8 31.7 51.5 31.9 51.1 31.7 51.1 31.7 50.9 31.95 50.7 32.15 50.7 32.3 50.55 32.65 50.25 32.75 49.95 32.95 49.9 33.1 49.5 33.05 49.2 32.95 49.2 32.55 49.4 32.5 49.5 32.15 49.5 31.7 49.7 31.5 49.7 31.4 49.55 30.95 49.95 30.65 49.55 30.45 49.75 30.25 49.7 29.8 49.7 29.5 49.75 29.25 49.9 29.05 49.7 27.65 49.3 27.5 49.3 Q27.35 49.1 27.15 49.2 L27.15 49.1 26.75 49.1 26.7 49.0 26.7 48.95 26.75 48.8 26.55 48.95 26.2 48.55 26.0 48.55 25.8 48.35 25.4 48.05 25.4 48.0 Q25.35 47.85 25.05 47.8 L25.15 47.65 24.95 47.65 24.95 47.6 24.6 47.1 24.45 46.95 24.6 46.75 24.45 46.75 24.4 46.55 24.2 46.35 24.0 46.2 24.0 45.9 23.9 45.7 23.85 45.45 23.65 45.05 23.65 44.75 23.7 44.55 23.55 44.1 23.65 43.7 23.7 43.6 23.55 43.4 23.65 43.15 23.7 42.95 23.65 42.45 23.85 42.4 23.7 42.0 23.9 41.8 23.9 41.45 24.0 41.05 24.0 40.45 24.1 40.4 24.1 40.3 Q24.1 40.0 24.3 40.0 L24.2 39.85 24.3 39.65 24.3 39.45 24.4 39.35 24.2 39.15 24.1 39.05 24.0 39.05 23.85 39.05 23.7 38.95 23.55 38.95 22.85 38.9 22.4 39.05 22.1 39.05 21.85 39.15 21.75 38.95 21.45 38.95 21.3 38.9 Q21.15 38.95 20.95 39.05 L20.95 39.15 20.7 39.15 20.6 38.95 20.3 38.9 19.8 38.9 19.55 38.95 19.45 39.15 19.05 39.25 19.05 38.95 18.6 38.95 18.4 38.95 18.1 39.05 17.95 38.9 17.95 38.95 17.75 38.95 17.65 39.15 17.4 39.15 17.2 39.15 17.0 39.15 16.65 39.35 16.65 39.15 16.5 39.15 16.25 39.25 15.95 39.25 15.35 39.15 15.2 39.25 15.1 39.35 14.9 39.35 14.9 39.45 14.4 39.35 14.6 39.35 14.4 39.15 14.2 39.15 14.05 39.05 13.85 38.95 13.45 38.95 13.1 38.9 13.0 38.95 Q12.8 38.95 12.8 39.05 L11.85 39.05 Q11.65 39.05 11.6 39.25 L11.4 39.25 11.2 39.15 11.05 39.35 10.9 39.25 10.7 39.45 10.85 39.5 10.55 39.65 Q10.45 39.5 10.35 39.5 L9.95 39.35 9.95 39.45 9.5 39.35 9.0 39.45 8.95 39.5 8.8 39.5 8.45 39.5 Q8.25 39.5 8.35 39.65 L8.15 39.65 8.15 39.7 7.85 39.85 7.8 40.0 7.6 39.85 7.5 40.1 7.1 40.0 6.95 39.9 6.75 39.9 6.45 39.9 7.85 39.65 M25.8 55.1 Q25.75 55.3 26.0 55.3 L25.8 55.55 25.9 55.95 25.8 56.25 26.0 56.8 26.0 56.9 Q25.75 56.9 25.8 57.1 26.0 57.25 25.8 57.25 L25.8 57.45 25.9 57.85 25.9 58.05 25.9 58.2 25.9 58.5 25.9 59.0 25.9 59.45 26.0 59.55 Q25.8 59.65 26.0 59.8 L26.0 60.75 26.0 61.1 26.1 61.25 26.2 61.45 26.1 61.85 26.2 61.85 26.1 62.25 26.2 62.5 26.1 62.6 26.2 62.6 26.2 62.95 26.2 63.7 26.2 63.9 26.3 64.4 26.3 64.8 26.3 64.95 Q26.2 65.05 26.4 65.15 L26.2 65.15 26.4 65.55 26.3 65.75 26.4 65.6 Q26.3 65.75 26.5 65.9 L26.3 65.9 26.4 66.2 26.4 66.1 26.5 66.35 26.3 66.5 26.4 66.5 26.5 66.55 26.3 66.55 26.4 66.85 26.55 67.05 26.55 67.35 26.5 67.7 26.5 67.85 26.5 67.9 26.55 67.9 26.55 68.45 26.7 68.75 26.55 68.95 26.55 69.15 26.7 69.4 26.7 69.7 26.75 69.9 26.7 70.05 26.75 70.45 26.75 70.85 26.9 71.0 26.95 71.0 27.05 71.35 27.05 71.5 27.15 71.5 27.15 71.8 27.45 71.8 27.35 71.6 27.25 71.2 27.05 71.35 27.05 71.15 26.95 70.95 26.95 70.45 26.9 70.2 26.95 69.9 26.9 69.8 26.95 69.6 27.15 69.25 27.05 68.85 27.05 68.55 27.05 68.4 27.05 67.85 26.95 67.15 27.05 67.05 26.9 66.95 26.95 66.75 26.95 66.2 26.95 65.8 26.9 65.55 26.95 65.05 26.9 65.05 26.95 64.8 26.9 64.1 26.75 64.1 26.9 63.9 26.9 63.8 26.75 63.55 26.9 63.35 26.75 63.35 26.7 63.15 26.75 62.95 26.7 62.6 26.75 62.4 26.75 61.75 26.55 61.65 26.55 61.45 26.55 61.25 26.55 60.95 26.5 60.5 26.5 60.0 26.55 59.8 26.5 59.75 26.75 59.25 26.5 59.35 26.7 59.25 Q26.7 59.05 26.4 59.05 L26.55 58.85 26.4 58.8 26.55 58.6 26.55 57.75 26.5 57.45 26.5 57.2 26.4 57.2 26.5 56.45 26.4 56.25 26.3 56.25 Q26.5 55.95 26.3 55.75 L26.55 55.5 26.5 55.3 26.1 55.3 25.8 55.1 M0.2 46.25 L0.0 46.25 0.0 46.55 -0.15 46.35 -0.3 46.2 -0.5 46.0 -0.55 46.05 -0.55 45.8 -0.75 45.6 -0.65 45.25 -0.35 44.75 -0.3 44.55 -0.1 44.65 -0.1 44.85 -0.3 44.95 -0.3 45.3 -0.35 45.45 -0.5 45.5 -0.3 45.7 -0.15 45.9 Q0.0 46.05 -0.1 46.25 L0.1 46.2 0.2 46.25 M0.5 43.2 L0.75 43.15 0.5 43.4 0.3 44.1 0.2 44.35 0.3 44.5 0.4 44.55 0.3 44.65 0.0 44.75 0.1 44.65 0.1 44.55 -0.1 44.5 -0.1 43.8 0.0 43.6 0.2 43.5 0.3 43.2 0.5 43.2 M36.8 29.25 L36.8 29.2 36.35 29.1 36.15 28.9 36.05 28.9 35.85 28.8 35.8 28.9 35.8 28.65 Q35.6 28.15 35.1 28.3 L34.85 28.45 Q34.55 28.3 34.55 28.45 L34.45 28.25 34.25 28.05 34.05 27.95 34.15 27.85 33.9 27.7 Q33.9 27.55 33.6 27.7 L33.7 27.55 33.4 27.7 33.1 27.35 33.05 27.35 32.85 27.3 32.65 27.2 32.5 27.2 32.3 27.2 31.95 27.2 31.5 27.3 31.0 27.35 30.85 27.55 30.55 27.75 30.45 27.75 29.5 27.5 29.45 27.55 29.25 27.75 29.05 27.55 28.85 27.75 28.65 27.85 28.55 28.05 28.1 27.95 28.0 28.15 27.85 28.05 27.65 28.05 27.25 28.65 27.05 28.7 26.75 29.2 26.75 29.25 26.75 29.55 26.9 29.55 26.55 29.65 26.4 29.55 26.4 29.75 Q26.0 29.85 25.75 30.05 L25.8 30.25 25.75 30.4 25.6 31.05 Q25.75 31.05 25.9 31.2 L25.8 31.35 26.0 31.75 25.4 32.2 25.35 32.5 25.35 32.8 25.55 32.95 25.75 33.1 25.75 33.15 26.0 33.35 26.2 33.45 26.2 33.35 26.4 33.55 26.5 33.55 26.7 33.35 26.7 33.15 27.05 32.9 27.7 32.8 27.85 32.6 28.1 32.6 28.1 32.4 28.45 32.5 28.75 32.5 28.85 32.6 29.15 32.5 29.45 32.5 29.5 32.5 30.0 32.4 30.0 32.35 30.2 32.6 30.4 32.7 30.45 32.4 30.65 32.6 30.75 32.4 Q30.75 32.6 30.85 32.45 L30.75 32.6 30.95 32.5 31.2 32.7 31.4 32.7 31.6 32.9 31.7 32.95 31.9 32.95 32.3 32.95 32.65 32.95 32.65 33.15 32.95 33.1 33.1 33.1 Q33.1 33.3 33.25 33.15 L33.4 33.15 33.6 33.35 33.7 33.35 33.9 33.55 33.9 33.45 34.35 33.45 34.35 33.55 34.55 33.55 34.75 33.75 Q34.85 33.55 34.85 33.75 L34.9 33.75 35.1 34.05 35.6 34.05 35.6 34.25 Q35.6 34.05 35.65 34.25 L36.0 34.25 36.25 34.3 36.35 34.3 36.6 34.1 Q36.75 33.9 37.0 33.85 L37.2 33.75 37.2 33.55 37.55 33.45 37.7 33.3 38.1 33.1 37.9 32.8 37.95 32.7 37.7 32.4 37.55 32.15 37.75 31.95 37.95 31.55 37.95 31.45 37.95 31.2 38.1 31.0 37.75 30.9 37.55 30.7 37.4 30.5 37.3 30.6 37.1 30.4 37.2 30.4 37.2 30.25 37.0 29.95 Q37.2 29.75 37.0 29.55 L36.8 29.45 36.8 29.25 M30.75 36.4 L30.65 35.75 30.55 35.55 30.25 35.45 30.25 35.25 30.05 35.05 30.05 34.85 Q29.9 35.05 29.7 34.85 L29.45 34.8 29.15 34.8 29.05 34.7 Q29.15 34.6 28.75 34.5 L28.3 34.6 27.9 35.0 Q27.7 34.85 27.65 35.05 L27.5 35.15 27.5 35.35 27.25 35.65 27.05 36.0 26.95 36.2 27.15 36.4 Q26.95 36.5 27.15 36.85 L27.05 36.95 27.15 37.25 27.25 37.25 27.25 37.4 27.35 37.6 27.65 37.75 27.45 37.8 28.3 38.3 28.4 38.4 28.65 38.5 29.45 38.3 29.6 38.2 29.6 38.1 29.7 38.2 29.8 38.0 30.0 38.2 30.05 38.1 30.05 37.9 30.2 37.8 30.25 37.8 30.4 37.75 30.45 37.55 30.65 37.15 30.75 36.85 30.85 36.65 30.75 36.5 30.75 36.4 M31.8 35.55 L31.7 35.45 31.15 36.0 31.15 36.4 31.0 36.6 30.95 36.95 31.0 37.05 31.0 37.25 31.0 37.8 31.15 38.0 31.15 38.4 31.35 38.3 31.4 38.4 31.4 38.5 31.35 38.5 31.5 38.55 31.6 38.55 31.7 38.7 31.7 38.9 32.35 38.9 32.35 38.95 32.55 39.05 32.55 39.15 33.1 39.05 33.25 38.95 33.6 38.9 Q33.7 38.7 33.9 38.9 L33.8 38.7 34.05 38.5 34.45 38.1 Q34.45 37.8 34.55 37.8 L34.65 37.55 34.55 37.55 34.55 37.25 Q34.75 36.95 34.55 37.05 L34.75 36.95 34.55 36.85 34.45 36.4 34.65 36.1 34.35 36.1 34.05 35.85 34.05 35.75 34.0 35.55 33.7 35.55 33.4 35.45 33.4 35.35 33.05 35.35 32.75 35.25 32.55 35.35 32.35 35.25 32.5 35.35 32.3 35.35 Q32.1 35.55 31.8 35.55 M28.1 52.15 L28.3 52.25 28.55 52.15 28.75 52.15 29.05 52.05 28.75 52.35 28.4 52.45 28.3 52.55 27.9 52.55 27.85 52.55 27.45 52.35 Q27.25 52.35 27.35 52.15 L26.95 51.95 26.95 51.85 26.95 51.6 27.05 51.65 27.25 51.85 27.45 51.85 27.35 52.05 27.5 51.95 27.65 52.25 28.1 52.15 M28.65 51.6 L28.65 51.5 28.4 51.4 28.3 51.4 Q28.1 51.4 27.85 51.2 L27.7 50.9 28.0 50.9 28.0 51.1 28.2 51.05 28.3 51.3 28.45 51.2 28.45 51.3 28.75 51.2 29.05 51.3 29.25 51.1 29.45 51.2 29.25 51.3 29.3 51.4 Q29.15 51.6 29.05 51.5 L28.65 51.6 M33.1 46.35 L33.05 46.2 32.85 46.2 32.55 46.2 32.65 46.05 32.65 45.9 32.35 45.8 32.35 45.9 32.35 46.05 Q32.55 46.55 32.85 46.45 L32.95 46.35 33.1 46.55 33.1 46.45 33.25 46.45 33.1 46.35 33.4 46.35 33.4 46.2 33.3 46.2 33.1 46.35 M26.1 45.25 L26.0 45.3 25.9 44.95 25.9 44.65 25.75 45.05 25.75 45.3 25.9 45.5 Q26.3 45.9 26.4 45.8 L26.7 45.6 Q26.95 45.6 26.95 45.45 L26.7 45.45 26.4 45.5 26.2 45.3 Q26.0 45.5 26.1 45.25 M26.95 51.6 L26.9 51.6 26.9 51.5 26.95 51.6 M-3.2 52.55 L-3.2 52.45 -3.35 52.55 -3.4 52.35 -3.2 52.15 -3.05 52.45 -2.45 52.7 -2.4 52.6 -2.25 52.9 -2.45 52.8 -2.55 52.9 -2.95 53.0 -3.2 52.55 M-1.8 52.45 L-1.45 52.55 Q-1.45 52.45 -1.3 52.45 L-1.25 52.35 -1.25 52.55 -1.3 52.7 -1.7 52.9 -1.9 52.8 -2.2 52.9 -2.25 52.9 -2.25 52.55 -1.9 52.6 -1.8 52.6 -1.8 52.45 M-0.35 49.75 L-0.5 49.55 -0.3 49.4 -0.35 49.75 0.0 49.95 0.1 50.15 0.3 50.25 0.3 50.45 0.4 50.55 0.6 50.45 0.65 50.45 0.95 50.65 1.15 50.65 1.05 50.85 0.95 50.9 0.6 50.9 0.3 50.65 0.2 50.7 0.2 50.45 -0.1 50.45 -0.3 50.35 Q-0.15 50.25 -0.35 50.1 L-0.3 49.95 Q-0.5 49.95 -0.35 49.75 M-1.3 46.55 L-1.6 46.75 -1.6 46.95 -1.7 47.2 -1.6 47.3 -1.7 47.4 -1.5 47.5 -1.6 47.6 -1.45 47.65 -1.45 48.0 -1.6 48.0 -1.8 47.65 -2.0 47.1 -2.0 47.05 -1.9 46.85 -1.7 46.55 -1.6 46.45 -1.5 46.35 -1.3 46.55 M1.45 49.75 L1.35 49.9 1.25 49.75 1.45 49.75 M2.85 50.65 L3.0 50.85 2.85 50.7 2.4 51.05 2.25 50.9 2.0 50.7 1.7 50.85 1.8 50.65 1.7 50.65 1.7 50.45 1.5 50.55 1.5 50.45 1.35 50.35 1.45 50.25 1.25 50.15 1.35 49.9 1.45 50.1 1.8 50.35 1.9 50.45 2.0 50.55 Q2.2 50.45 2.2 50.65 L2.25 50.55 2.45 50.55 2.65 50.65 Q2.85 50.45 2.85 50.65 M2.95 51.8 L3.0 51.65 3.15 51.8 2.95 51.95 2.55 52.25 2.2 52.15 2.0 51.95 1.7 51.85 1.6 51.65 1.5 51.6 1.45 51.6 1.5 51.1 1.7 51.1 1.6 51.4 1.8 51.4 Q1.8 51.6 2.1 51.5 L2.0 51.65 2.0 51.85 2.25 51.8 2.65 51.85 2.95 51.8 M7.5 54.9 L7.5 54.55 Q7.2 54.6 6.95 54.35 L6.85 54.35 6.95 54.4 6.95 54.7 6.95 54.8 6.85 54.9 6.95 55.1 6.85 55.15 6.85 55.35 6.95 55.5 7.05 55.75 7.1 55.95 6.95 56.05 7.05 56.05 7.05 56.5 7.1 57.0 7.1 57.2 7.1 57.55 7.2 57.75 7.2 58.05 7.2 58.1 7.2 58.3 7.3 58.3 7.3 58.7 7.2 58.85 7.3 59.2 7.3 59.25 7.2 59.25 7.3 59.45 7.3 59.55 7.4 59.8 7.5 60.15 7.4 60.3 7.4 60.5 7.5 60.75 7.4 60.95 7.6 61.1 7.5 61.35 7.6 61.65 7.5 61.9 7.6 62.1 7.6 62.25 7.45 62.25 7.6 62.4 7.65 62.7 7.65 63.15 7.5 63.15 7.5 63.45 7.5 63.65 7.6 63.7 7.5 63.8 7.6 64.45 7.6 64.8 7.65 65.15 7.8 65.25 7.85 67.25 7.8 67.35 7.85 67.65 7.85 68.1 8.0 68.1 7.85 68.3 8.0 68.55 7.85 69.3 8.05 69.5 8.05 69.9 8.05 70.05 8.05 70.25 8.05 70.55 8.25 70.75 8.25 70.95 8.45 71.15 8.55 71.35 8.75 71.7 8.95 71.7 9.0 71.5 8.8 71.35 8.75 71.2 8.55 70.95 8.35 70.85 8.25 70.75 8.15 70.45 8.25 70.25 Q8.55 70.25 8.6 70.05 L8.6 69.5 8.55 69.3 8.75 69.3 8.75 68.95 8.8 68.75 8.8 68.65 8.95 68.45 8.75 67.5 8.8 67.15 8.95 66.75 8.75 66.2 8.75 66.0 8.6 65.9 8.75 65.75 8.75 65.35 8.6 64.8 8.55 64.4 8.6 64.3 8.55 64.0 8.55 63.7 8.45 63.35 8.45 63.05 8.45 62.8 8.45 62.4 8.45 61.55 8.35 61.25 8.25 60.4 8.35 60.15 8.25 59.95 8.25 59.45 Q8.05 59.25 8.15 59.0 L8.05 58.8 8.05 58.4 8.0 57.95 8.05 57.45 8.05 57.1 8.0 57.1 7.85 57.0 7.85 56.65 7.8 56.3 7.8 55.85 7.5 55.55 7.6 55.5 7.6 55.1 7.5 54.9 M6.55 52.15 Q6.65 52.35 6.75 52.25 L6.85 52.35 7.05 52.25 7.1 52.35 7.4 52.35 7.5 52.25 7.6 52.45 7.3 52.55 7.4 52.6 7.1 52.55 6.85 52.7 6.75 52.55 6.75 52.6 6.55 52.6 6.35 52.55 6.25 52.25 6.55 52.15 M5.7 51.65 Q5.9 51.8 5.9 51.6 L6.0 51.85 Q6.2 51.65 6.1 51.85 L6.2 51.95 6.25 52.25 6.1 52.45 6.0 52.35 6.1 52.25 5.9 52.05 Q5.9 51.85 5.7 51.95 L5.7 51.65 M8.0 52.55 L8.05 52.45 8.05 52.7 8.15 52.7 8.15 52.8 8.35 52.9 8.55 53.0 8.6 53.0 8.75 53.2 Q8.6 53.0 8.8 53.0 L8.75 53.1 9.15 53.2 9.4 53.2 9.7 53.1 9.75 53.1 9.3 53.4 8.8 53.25 8.75 53.4 8.6 53.25 8.45 53.25 8.15 53.2 8.15 53.1 8.05 53.0 8.05 52.8 7.85 52.6 Q7.85 52.25 8.0 52.55 M10.55 52.05 L10.45 52.15 10.85 52.45 10.7 52.6 11.1 52.8 11.8 52.9 11.95 52.9 12.05 53.0 12.05 53.2 Q11.85 53.1 11.95 53.25 L11.3 53.2 10.7 53.0 10.55 52.7 10.45 52.55 10.45 52.6 Q10.25 52.45 10.35 52.15 L10.35 52.05 10.45 51.85 10.55 52.05 M10.35 51.2 L10.55 51.4 10.25 51.5 10.35 51.5 10.15 51.6 9.7 51.65 9.75 51.6 9.5 51.6 9.2 51.3 9.15 51.1 9.0 51.05 9.0 50.9 8.95 51.05 8.8 50.7 8.75 50.65 8.75 50.45 8.8 50.25 8.95 50.25 8.95 50.35 9.15 50.55 9.0 50.7 9.2 50.7 9.15 50.85 9.3 50.9 9.2 50.9 9.4 51.05 9.6 51.2 9.6 51.1 9.75 51.2 10.1 51.3 10.35 51.2 M17.55 54.05 L17.55 53.85 17.95 53.95 18.1 54.05 18.3 53.85 18.6 53.85 19.0 53.45 19.0 53.4 19.05 53.65 19.0 53.75 18.8 53.75 18.8 54.05 18.4 54.15 18.5 54.2 18.25 54.2 17.85 54.15 17.55 54.05 M15.7 52.55 L15.35 52.35 15.35 51.95 15.3 52.05 15.3 51.8 15.55 52.25 15.75 52.35 15.75 52.25 15.85 52.25 16.05 52.45 16.15 52.45 16.3 52.45 16.7 52.55 16.8 52.55 17.0 52.55 17.1 52.45 17.1 52.6 16.7 52.8 16.3 52.8 16.25 52.7 16.15 52.8 16.05 52.7 Q16.05 52.45 15.85 52.55 L15.7 52.55 M15.95 51.8 L16.15 51.65 15.95 51.6 16.25 51.5 16.3 51.5 16.45 51.65 Q16.65 51.95 16.65 51.75 L16.65 51.95 17.0 51.85 17.4 51.85 17.65 51.5 17.65 51.8 17.65 51.95 17.2 52.25 17.2 52.15 16.8 52.15 16.7 52.15 16.5 51.85 16.25 51.95 15.95 51.8 M28.45 73.25 L28.4 73.1 28.2 73.05 28.1 72.9 28.1 73.25 28.4 73.1 28.3 73.3 28.4 73.3 28.4 73.6 28.45 73.8 28.55 73.8 28.55 74.05 28.75 74.15 28.75 73.9 28.55 73.8 28.55 73.7 28.4 73.3 28.45 73.25 M27.35 72.15 L27.45 72.15 27.65 72.3 27.7 72.45 27.9 72.65 27.85 72.85 28.0 72.9 28.1 72.85 27.9 72.65 27.9 72.45 27.7 72.35 27.65 72.15 27.45 71.95 27.35 72.15 M20.4 53.95 L20.7 54.05 21.35 53.95 21.55 53.95 21.45 54.15 21.35 54.35 21.15 54.35 20.95 54.4 20.6 54.2 20.3 54.35 20.4 54.15 20.3 54.2 20.3 54.05 20.0 54.2 19.8 53.95 19.65 53.75 20.0 53.75 20.15 53.85 20.3 53.85 20.2 54.05 20.4 53.95 M20.7 52.55 Q20.7 52.25 20.9 52.45 L20.8 52.55 20.95 52.7 21.1 52.7 21.1 52.9 21.35 52.8 21.45 53.0 21.75 53.0 21.75 53.1 21.9 53.2 22.05 53.2 22.95 53.0 22.95 53.1 23.25 52.8 23.35 52.8 23.35 52.9 23.65 52.9 23.55 53.0 23.45 53.1 23.35 53.25 23.25 53.25 22.8 53.4 22.4 53.6 22.1 53.6 21.9 53.4 21.75 53.6 21.65 53.4 21.45 53.2 21.35 53.25 21.35 53.2 21.15 53.0 20.9 53.0 20.8 52.9 20.7 52.7 20.7 52.55 M27.5 54.05 L27.65 53.85 27.85 54.15 27.7 54.35 27.35 54.4 27.25 54.4 26.95 54.55 Q26.75 54.4 26.7 54.55 L26.55 54.35 26.55 54.2 27.05 54.2 27.15 54.2 27.25 54.15 Q27.45 53.95 27.5 54.05 M27.45 53.2 L27.7 53.2 27.65 53.45 27.25 53.6 26.95 53.6 26.55 53.65 26.4 53.6 26.1 53.4 26.4 53.25 26.7 53.25 26.7 53.45 27.15 53.45 27.45 53.4 27.45 53.2 M-2.85 53.85 L-2.55 53.75 -2.75 53.85 Q-2.55 54.05 -2.75 54.15 L-2.85 54.35 -2.95 54.4 -2.95 54.55 -3.15 54.6 -3.35 54.7 -3.4 54.7 -3.6 54.8 -3.9 54.6 -4.1 54.55 -4.15 54.35 -4.0 54.4 Q-3.8 54.6 -3.2 54.2 L-3.05 54.15 -2.95 54.15 -2.75 53.85 -2.85 53.85 M-9.4 56.9 L-9.4 57.1 -9.7 57.25 -9.95 57.4 -10.45 57.2 -10.8 57.2 -10.9 57.2 -10.8 57.0 -11.0 56.8 -11.1 56.9 Q-11.0 56.65 -11.15 56.7 L-11.3 56.5 -11.15 56.3 -11.1 56.3 -10.9 56.5 -10.9 56.65 -10.8 56.8 -10.45 56.8 -10.35 57.0 -10.35 57.1 -10.25 57.1 -10.05 57.2 -9.4 56.9 -9.3 56.7 -9.2 56.9 -9.4 56.9 M-7.2 57.75 L-7.4 57.95 Q-7.5 57.75 -7.5 57.95 L-7.75 58.2 -7.8 58.05 -8.05 58.05 -8.45 58.05 -8.75 57.95 -9.1 57.85 -9.0 57.75 -9.3 57.55 -9.3 57.45 Q-9.5 57.45 -9.3 57.2 L-9.3 57.4 -8.95 57.4 -9.0 57.55 -8.55 57.75 Q-8.35 57.75 -8.45 57.85 L-8.25 57.95 -7.85 57.95 -7.6 57.65 -7.5 57.45 -7.3 57.55 -7.2 57.75 M-7.4 56.7 L-7.1 56.8 -6.85 56.7 Q-7.05 56.5 -6.85 56.5 -6.7 56.45 -6.85 56.3 L-6.65 56.5 -6.85 56.9 -6.7 56.8 -6.85 57.0 -6.9 56.9 -6.9 57.2 -7.65 57.0 -7.85 57.0 -8.0 56.7 -8.15 56.65 -8.35 56.5 -8.35 56.3 -8.15 56.3 -8.15 56.5 -7.85 56.65 -7.6 56.8 -7.4 56.8 -7.4 56.7 M-9.95 54.15 L-9.85 54.35 -9.75 54.35 -9.5 54.9 -9.4 54.8 Q-9.4 55.0 -9.2 54.9 L-9.0 55.1 -8.75 55.15 -8.45 55.15 -8.05 55.1 -8.05 54.9 -7.85 55.0 -7.85 54.9 -7.65 54.9 -7.65 55.1 -7.85 55.15 -8.45 55.5 -8.8 55.55 Q-9.0 55.3 -9.3 55.3 L-9.4 55.15 -9.4 55.3 -9.75 55.0 -9.95 54.8 -9.85 54.7 -9.95 54.6 -10.05 54.6 -10.05 54.4 -10.25 54.35 -9.95 54.15 M-12.05 53.25 L-12.05 53.45 -12.25 53.6 -12.15 54.05 -11.85 54.4 -11.75 54.4 -11.55 54.55 -11.5 54.6 -11.3 54.7 -11.35 54.9 Q-11.55 55.1 -12.05 54.55 L-12.3 54.35 -12.15 54.2 -12.3 53.75 -12.3 53.6 -12.25 53.4 -12.05 53.25" fill="#90c7b7" fill-rule="evenodd" stroke="none"/>
    <path d="M28.55 36.0 L28.85 36.2 28.95 35.9 28.75 35.75 28.95 35.65 29.15 35.65 29.45 35.85 29.5 35.85 29.7 35.9 29.8 36.0 30.0 36.2 30.0 36.5 30.05 36.65 30.0 36.85 30.0 37.05 Q29.9 36.95 29.8 37.15 L29.8 37.25 29.7 37.35 29.3 37.55 29.15 37.75 29.15 37.55 29.05 37.75 28.95 37.55 28.75 37.55 28.65 37.35 28.4 37.4 28.2 37.15 28.3 37.05 28.1 36.8 28.2 36.65 28.3 36.4 28.3 36.0 28.4 35.9 28.45 36.0 28.55 36.0 M31.9 36.85 L31.95 36.85 32.15 36.5 32.15 36.8 32.35 36.85 32.5 36.8 32.65 36.65 32.65 36.6 32.5 36.5 32.65 36.5 Q32.95 36.2 32.85 36.5 L33.1 36.4 33.05 36.5 33.4 36.4 33.5 36.65 33.4 36.85 33.5 36.8 33.7 36.95 33.7 37.35 33.6 37.6 33.6 37.75 33.5 37.9 33.5 38.1 33.25 38.3 32.85 38.3 32.65 38.3 32.55 38.3 32.3 38.1 32.1 38.0 Q31.95 37.9 32.1 37.8 L31.95 37.75 31.7 37.6 31.8 37.4 31.7 37.15 31.9 36.85" fill="#93c7b7" fill-rule="evenodd" stroke="none"/>
    <path d="M7.85 39.65 L6.45 39.9 6.75 39.9 6.95 39.9 7.1 40.0 7.5 40.1 7.6 39.85 7.8 40.0 7.85 39.85 8.15 39.7 8.15 39.65 8.35 39.65 Q8.25 39.5 8.45 39.5 L8.8 39.5 8.95 39.5 9.0 39.45 9.5 39.35 9.95 39.45 9.95 39.35 10.35 39.5 Q10.45 39.5 10.55 39.65 L10.85 39.5 10.7 39.45 10.9 39.25 11.05 39.35 11.2 39.15 11.4 39.25 11.6 39.25 Q11.65 39.05 11.85 39.05 L12.8 39.05 Q12.8 38.95 13.0 38.95 L13.1 38.9 13.45 38.95 13.85 38.95 14.05 39.05 14.2 39.15 14.4 39.15 14.6 39.35 14.4 39.35 14.9 39.45 14.9 39.35 15.1 39.35 15.2 39.25 15.35 39.15 15.95 39.25 16.25 39.25 16.5 39.15 16.65 39.15 16.65 39.35 17.0 39.15 17.2 39.15 17.4 39.15 17.65 39.15 17.75 38.95 17.95 38.95 17.95 38.9 18.1 39.05 18.4 38.95 18.6 38.95 19.05 38.95 19.05 39.25 19.45 39.15 19.55 38.95 19.8 38.9 20.3 38.9 20.6 38.95 20.7 39.15 20.95 39.15 20.95 39.05 Q21.15 38.95 21.3 38.9 L21.45 38.95 21.75 38.95 21.85 39.15 22.1 39.05 22.4 39.05 22.85 38.9 23.55 38.95 M33.05 49.2 L33.1 49.5 32.95 49.9 32.75 49.95 32.65 50.25 32.3 50.55 32.15 50.7 31.95 50.7 31.7 50.9 31.7 51.1 31.9 51.1 31.7 51.5 31.5 51.8 31.35 51.8 31.4 51.95 31.0 52.05 31.0 52.15 30.95 51.95 30.75 52.05 30.65 52.25 30.55 52.35 30.75 52.45 Q30.45 52.45 30.65 52.6 L30.2 53.0 30.0 53.1 30.0 53.2 29.9 53.25 29.45 53.4 29.3 53.4 28.95 53.6 29.05 53.65 28.95 53.85 29.05 53.85 28.95 54.05 28.95 54.15 28.65 54.4 28.4 54.6 28.3 54.6 28.4 54.7 27.9 54.8 27.7 54.9 27.5 54.9 27.35 55.1 26.7 55.1 Q26.7 54.9 26.55 55.0 L26.3 55.0 26.1 54.9 25.8 55.1 25.9 54.8 25.8 54.9 25.8 54.55 26.0 54.4 26.1 54.35 26.0 54.2 Q25.8 54.2 25.8 54.35 L25.35 54.7 25.15 54.7 24.95 54.9 24.85 55.0 24.6 55.1 24.45 55.15 24.3 55.1 24.1 55.1 24.2 55.35 24.1 55.15 23.9 55.2 24.0 55.35 Q23.85 55.15 23.7 55.35 L23.45 55.3 23.15 55.35 22.95 55.15 22.95 55.1 23.05 55.0 22.8 55.0 22.6 54.8 22.6 55.0 22.25 55.15 22.1 55.1 21.3 55.3 20.9 55.3 20.5 55.5 20.4 55.35 20.15 55.3 19.65 55.35 19.65 55.15 19.55 55.3 19.05 55.15 19.0 55.15 18.85 55.0 19.0 55.0 18.85 54.8 18.1 54.9 17.95 54.9 17.85 54.9 17.55 55.0 17.25 55.1 16.45 55.1 16.05 55.1 15.7 55.1 15.5 55.15 15.35 55.1 14.9 54.9 14.7 54.9 14.4 54.7 14.2 54.55 14.05 54.55 14.05 54.6 Q13.95 54.8 13.85 54.7 L13.95 54.8 Q13.6 55.1 13.4 55.0 L13.25 55.1 13.1 55.1 12.9 55.15 12.55 55.15 12.45 55.15 12.05 55.1 11.4 54.9 11.3 54.9 11.2 54.8 10.85 54.6 Q10.65 54.7 10.7 54.4 L10.25 54.8 10.1 54.9 9.95 54.8 9.75 55.0 9.3 54.8 9.0 54.9 9.15 54.8 8.8 54.9 8.95 54.7 8.6 54.7 8.25 54.6 8.05 54.4 7.85 54.2 7.85 54.35 7.65 54.05 7.5 54.15 7.2 53.95 7.3 53.75 7.05 53.85 6.95 53.75 6.95 53.6 6.95 53.2 6.55 53.4 6.25 53.4 6.1 53.25 5.7 53.2 5.5 53.2 4.75 52.9 4.85 52.8 4.65 52.7 4.65 52.8 4.5 52.7 4.35 53.0 4.3 53.0 Q4.1 53.0 4.1 53.1 L3.35 53.0 3.0 53.2 2.85 52.9 2.75 53.0 2.45 52.9 2.25 53.0 2.1 52.9 2.2 52.8 1.9 52.6 1.6 52.6 1.7 52.55 1.6 52.35 1.45 52.35 1.05 52.35 1.05 52.15 0.95 52.25 0.5 51.95 0.4 51.95 0.3 51.65 0.1 51.8 0.1 51.5 -0.15 51.6 -0.1 51.4 -0.15 51.5 -0.3 51.3 Q-0.5 51.1 -0.3 51.05 L-0.55 50.65 -0.65 50.45 -1.05 50.25 -1.25 50.15 -1.3 50.15 -1.45 50.1 -1.45 49.75 -1.6 49.7 -1.6 49.9 -1.8 49.9 -1.5 50.15 -1.5 50.35 -1.45 50.45 Q-1.1 50.35 -1.25 50.55 L-0.75 50.55 -0.95 50.85 -0.85 51.05 -0.55 51.4 -0.5 51.65 -0.3 51.65 -0.35 51.8 -0.15 52.25 -0.3 52.45 -0.35 52.35 -0.5 52.7 -0.75 52.8 -0.5 52.8 -0.55 53.1 -0.5 53.2 -0.5 53.4 -0.55 53.65 Q-0.65 53.45 -0.75 53.65 L-0.95 53.65 -1.1 53.65 -1.05 53.95 -1.3 54.35 -1.5 54.2 -1.5 54.6 -1.5 54.8 -1.7 54.7 -1.6 55.0 -1.7 55.1 -2.0 55.5 -2.2 55.75 -2.45 55.95 -2.75 56.05 -2.85 55.95 -3.4 55.95 -3.35 56.25 Q-3.2 56.25 -3.35 56.3 L-3.35 56.5 -3.7 56.65 -4.0 56.7 -4.1 56.7 -4.45 57.1 -4.55 57.25 -4.45 57.45 -4.65 57.55 -4.85 57.75 -4.95 57.95 -5.0 57.85 -5.1 58.1 -5.2 58.1 -5.3 58.3 -5.75 58.3 -5.95 58.5 -5.95 58.4 -6.1 58.5 -6.25 58.4 -6.45 58.3 -6.85 58.4 -6.85 58.5 -7.05 58.6 -7.05 58.7 -7.5 58.85 -7.6 59.05 -7.8 59.0 -8.05 59.2 -8.45 59.05 -9.1 58.7 -9.2 58.5 -9.3 58.3 -9.4 58.2 -9.6 58.05 -10.05 58.05 -10.15 58.2 -10.45 58.2 -10.8 58.4 -10.9 58.2 -11.1 58.1 -11.3 57.75 -11.3 57.55 -11.5 57.55 -11.85 57.65 -12.25 57.45 -12.3 57.45 -12.65 57.25 -12.7 57.2 -12.9 57.1 -12.9 56.7 -13.1 56.65 -13.2 56.45 -13.25 56.25 -13.2 55.75 -13.25 55.35 -13.25 54.9 -13.6 54.6 -13.85 54.6 -13.95 54.35 -13.95 54.15 -14.05 53.85 -14.05 53.45 -13.95 53.25 -13.75 53.0 -13.85 52.7 -13.95 52.9 -13.95 52.7 -13.75 52.55 -13.75 52.15 -13.6 52.15 -13.4 51.8 -13.25 51.6 -13.45 51.2 -13.45 50.85 -13.4 50.7 -13.2 50.1 -13.1 49.95 -13.0 49.75 -12.7 49.7 -12.45 49.55 -12.5 49.55 -12.25 49.5 -12.05 49.5 -12.05 49.3 -12.05 49.2 -11.95 49.0 -12.15 48.8 -11.95 48.6 -11.7 48.6 -11.5 48.6 -11.3 48.75 Q-11.3 48.6 -11.15 48.75 M-10.9 48.45 Q-10.7 48.25 -10.9 48.25 -10.7 48.25 -10.9 48.0 L-10.7 48.0 -10.6 47.8 -10.35 47.5 -10.05 47.2 -9.75 47.3 -9.6 47.2 -9.5 47.3 -9.2 47.3 -9.3 47.4 -9.1 47.5 -8.95 47.4 -8.8 47.3 -8.8 47.05 M-8.45 46.85 L-8.15 46.55 -7.65 46.55 -7.4 46.35 -7.1 46.35 -6.85 46.25 -6.55 46.2 -6.35 46.25 -6.1 46.2 -5.95 46.35 -5.75 46.45 -5.55 46.25 -5.5 46.35 -5.4 46.05 -5.2 46.05 -5.0 45.9 -4.95 45.9 -4.75 46.0 -4.55 45.8 -4.25 46.0 -4.15 46.05 -4.15 46.0 -4.1 45.8 -3.9 45.7 -3.8 45.8 -3.6 45.6 -3.35 45.6 -3.15 45.7 -3.05 45.8 -3.05 45.9 -2.95 46.2 -2.85 46.05 -2.75 45.9 -2.45 45.7 -1.9 45.6 -1.8 45.6 -1.8 45.5 -1.8 45.1 -1.9 45.05 -1.8 44.75 -1.7 44.85 -1.7 44.65 -1.45 44.55 -1.5 44.3 -1.45 44.15 -1.3 44.15 -1.25 44.3 -1.1 44.1 -1.05 43.9 -1.05 43.8 -1.25 43.8 -1.1 43.6 -1.05 43.7 -1.05 43.4 -0.95 43.35 -0.85 43.15 -0.5 42.45 -0.3 42.4 0.0 42.0 0.3 42.25 0.4 41.7 0.5 41.6 0.75 41.5 Q1.15 41.15 1.8 41.5 L1.9 41.35 2.65 40.65 3.55 40.85 3.7 40.95 3.8 40.65 4.0 40.6 4.1 40.45 4.35 40.45 4.65 40.3 4.75 40.1 5.45 39.9 M7.85 39.65 L6.2 39.85 5.9 39.7 Q5.8 39.7 5.6 39.85 L5.45 39.7 5.5 39.85 M36.8 29.25 L36.8 29.45 37.0 29.55 Q37.2 29.75 37.0 29.95 L37.2 30.25 37.2 30.4 37.1 30.4 37.3 30.6 37.4 30.5 37.55 30.7 37.75 30.9 38.1 31.0 37.95 31.2 37.95 31.45 37.95 31.55 37.75 31.95 37.55 32.15 37.7 32.4 37.95 32.7 37.9 32.8 38.1 33.1 37.7 33.3 37.55 33.45 37.2 33.55 37.2 33.75 37.0 33.85 Q36.75 33.9 36.6 34.1 L36.35 34.3 36.25 34.3 36.0 34.25 35.65 34.25 Q35.6 34.05 35.6 34.25 L35.6 34.05 35.1 34.05 34.9 33.75 34.85 33.75 Q34.85 33.55 34.75 33.75 L34.55 33.55 34.35 33.55 34.35 33.45 33.9 33.45 33.9 33.55 33.7 33.35 33.6 33.35 33.4 33.15 33.25 33.15 Q33.1 33.3 33.1 33.1 L32.95 33.1 32.65 33.15 32.65 32.95 32.3 32.95 31.9 32.95 31.7 32.95 31.6 32.9 31.4 32.7 31.2 32.7 30.95 32.5 30.75 32.6 30.85 32.45 Q30.75 32.6 30.75 32.4 L30.65 32.6 30.45 32.4 30.4 32.7 30.2 32.6 30.0 32.35 30.0 32.4 29.5 32.5 29.45 32.5 29.15 32.5 28.85 32.6 28.75 32.5 28.45 32.5 28.1 32.4 28.1 32.6 27.85 32.6 27.7 32.8 27.05 32.9 26.7 33.15 26.7 33.35 26.5 33.55 26.4 33.55 26.2 33.35 26.2 33.45 26.0 33.35 25.75 33.15 25.75 33.1 25.55 32.95 25.35 32.8 25.35 32.5 25.4 32.2 26.0 31.75 25.8 31.35 25.9 31.2 Q25.75 31.05 25.6 31.05 L25.75 30.4 25.8 30.25 25.75 30.05 Q26.0 29.85 26.4 29.75 L26.4 29.55 26.55 29.65 26.9 29.55 26.75 29.55 26.75 29.25 26.75 29.2 27.05 28.7 27.25 28.65 27.65 28.05 27.85 28.05 28.0 28.15 28.1 27.95 28.55 28.05 28.65 27.85 28.85 27.75 29.05 27.55 29.25 27.75 29.45 27.55 29.5 27.5 30.45 27.75 30.55 27.75 30.85 27.55 31.0 27.35 31.5 27.3 31.95 27.2 32.3 27.2 32.5 27.2 32.65 27.2 32.85 27.3 33.05 27.35 33.1 27.35 33.4 27.7 33.7 27.55 33.6 27.7 Q33.9 27.55 33.9 27.7 L34.15 27.85 34.05 27.95 34.25 28.05 34.45 28.25 34.55 28.45 Q34.55 28.3 34.85 28.45 L35.1 28.3 Q35.6 28.15 35.8 28.65 L35.8 28.9 35.85 28.8 36.05 28.9 36.15 28.9 36.35 29.1 36.8 29.2 36.8 29.25 Z" fill="none" stroke="#93c7b7" stroke-linecap="round" stroke-linejoin="round" stroke-width="0.4"/>
    <path d="M-5.95 47.35 L-6.0 47.4 -5.95 47.35" fill="#2d2c2e" fill-rule="evenodd" stroke="none"/>
    <path d="M42.85 48.3 L40.2 50.45 Q38.6 51.45 36.75 52.05 L35.7 52.4 34.0 52.75 31.0 52.95 27.35 52.65 26.9 52.5 26.85 52.5 26.4 52.4 25.25 52.05 Q23.95 51.6 22.75 50.95 20.85 49.9 19.15 48.3 L19.05 48.2 Q14.2 43.6 14.2 37.1 14.2 30.55 19.15 25.9 24.05 21.3 31.0 21.3 38.0 21.3 42.85 25.9 47.8 30.55 47.8 37.1 47.8 40.35 46.6 43.15 L45.5 45.25 42.85 48.3 Z" fill="none" stroke="#93c7b7" stroke-linecap="round" stroke-linejoin="round" stroke-width="1.25"/>
    <path d="M13.95 5.1 L46.0 5.3 29.9 18.6 13.95 5.1" fill="#93c7b7" fill-rule="evenodd" stroke="none"/>
    <path d="M13.95 5.1 L46.0 5.3 29.9 18.6 13.95 5.1 Z" fill="none" stroke="#93c7b7" stroke-linecap="round" stroke-linejoin="round" stroke-width="1.0"/>
    <path d="M30.7 7.8 L30.7 9.65 30.65 12.6 Q30.65 13.4 30.8 13.5 L31.7 13.55 31.7 14.65 27.9 14.6 27.9 14.2 27.9 13.65 28.65 13.65 Q29.1 13.6 29.1 12.9 L29.1 12.7 29.1 8.35 28.8 7.75 28.55 7.65 Q28.3 7.65 27.9 7.9 L27.9 6.8 29.25 6.65 30.75 6.45 30.7 7.8" fill="#ffffff" fill-rule="evenodd" stroke="none"/>
  </g>
</svg>
