<?xml version="1.0" encoding="UTF-8" standalone="no"?>
<svg xmlns:xlink="http://www.w3.org/1999/xlink" height="56.1px" width="55.5px" xmlns="http://www.w3.org/2000/svg">
  <g transform="matrix(1.0, 0.0, 0.0, 1.0, -3.7, -3.55)">
    <path d="M3.7 59.55 Q3.7 56.35 5.9 54.1 8.15 51.9 11.35 51.9 L59.2 51.9 59.2 59.65 3.7 59.65 3.7 59.55" fill="#93c7b7" fill-rule="evenodd" stroke="none"/>
    <path d="M46.65 5.05 L46.95 5.2 47.25 5.4 47.25 5.5 47.6 5.85 47.6 6.15 47.65 6.35 47.65 6.45 47.6 6.6 47.55 6.75 47.45 6.8 47.4 6.95 47.3 7.05 47.15 7.15 47.05 7.35 46.9 7.5 46.3 7.85 46.25 7.85 45.95 8.15 Q45.7 8.25 45.6 8.3 L45.35 8.5 45.05 8.8 44.85 9.0 44.5 9.55 44.25 9.9 44.0 10.3 43.75 10.65 43.6 10.95 43.4 11.15 43.4 11.2 43.25 11.35 43.15 11.6 42.95 12.0 42.9 12.05 42.6 12.45 42.45 12.65 42.35 12.9 42.3 13.0 42.25 13.05 42.05 13.3 41.9 13.5 41.9 13.55 41.9 13.65 Q41.7 13.8 41.65 14.05 L41.55 14.15 41.45 14.3 41.3 14.45 41.15 14.7 41.0 15.05 40.95 15.0 40.9 15.0 40.75 14.85 40.6 14.75 40.55 14.65 40.5 14.65 40.15 14.4 39.15 13.8 39.15 13.7 39.4 13.35 39.6 13.05 39.6 12.85 39.7 12.75 39.7 12.65 39.75 12.65 39.8 12.5 39.85 12.5 40.05 12.05 40.1 11.85 40.2 11.75 40.3 11.7 40.35 11.55 40.4 11.4 40.45 11.35 40.55 11.25 40.6 11.1 40.7 10.95 40.75 10.95 40.75 10.8 40.8 10.8 40.9 10.55 40.95 10.4 41.25 10.0 41.45 9.7 41.55 9.4 41.75 9.1 42.2 7.9 42.15 7.85 42.2 7.8 42.25 7.6 42.3 7.4 42.3 7.1 42.35 6.9 42.35 6.85 42.3 6.3 42.35 5.8 42.35 5.75 42.35 5.4 42.35 5.1 42.35 5.05 42.4 5.05 42.4 4.9 42.45 4.75 42.45 4.6 42.55 4.45 42.55 4.3 42.65 4.1 42.75 4.0 42.9 3.85 43.05 3.7 43.25 3.7 43.4 3.65 43.45 3.6 44.0 3.6 44.5 3.8 44.8 4.0 45.1 4.25 45.2 4.35 45.25 4.5 45.35 4.55 45.45 4.6 45.5 4.7 45.9 4.8 46.05 4.8 46.2 4.85 46.25 4.9 46.35 4.9 46.45 4.9 46.5 5.0 46.6 5.0 46.65 5.05 M41.0 15.35 L41.25 15.7 41.3 15.8 41.3 15.85 41.25 16.0 41.35 16.1 41.25 16.5 Q41.1 17.05 40.35 17.0 L40.25 17.05 40.2 17.0 40.1 17.0 39.95 17.0 39.8 17.0 39.7 16.95 39.6 16.95 39.6 16.9 39.15 16.75 38.75 16.7 38.65 16.65 38.6 16.65 38.55 16.6 38.4 16.6 38.35 16.55 37.9 16.45 37.35 16.3 36.2 16.05 36.15 16.05 36.05 16.05 35.95 16.05 35.85 16.0 35.8 16.0 35.65 16.0 35.6 16.05 35.55 16.0 35.45 16.0 35.25 15.95 35.1 15.95 34.95 15.95 34.85 15.95 34.7 15.95 34.4 16.0 34.25 15.95 34.1 16.0 34.15 16.1 34.2 16.25 34.3 16.55 34.3 16.7 34.35 16.8 34.35 17.0 34.4 17.05 34.4 17.15 34.45 17.2 34.45 17.35 34.55 17.5 34.55 17.55 34.65 18.25 34.85 18.3 35.0 18.45 35.05 18.45 35.05 18.5 35.35 18.65 35.55 18.9 35.55 18.95 35.6 18.95 35.65 19.0 35.7 19.1 35.75 19.05 35.85 19.05 35.85 18.95 35.9 18.95 35.95 18.9 36.0 18.75 36.1 18.6 36.25 18.45 36.25 18.3 36.3 18.2 36.45 18.05 36.5 17.95 36.65 17.9 36.65 17.8 36.65 17.7 36.7 17.6 36.8 17.55 36.9 17.45 36.9 17.3 36.95 17.25 37.0 17.2 37.05 17.05 37.2 16.95 37.25 16.85 37.3 16.8 37.4 16.75 37.5 16.55 38.25 16.7 38.9 16.9 39.05 16.9 39.25 16.95 39.55 17.0 39.6 17.1 39.7 17.15 39.35 17.75 39.0 18.35 38.6 19.1 38.4 19.35 38.35 19.6 37.95 20.15 37.65 20.65 37.65 20.7 37.5 20.8 37.45 20.9 37.4 21.0 37.25 21.15 37.25 21.2 37.1 21.45 37.0 21.7 36.85 21.85 36.75 22.0 36.65 22.2 37.0 22.75 37.2 23.4 37.2 24.2 37.25 24.1 37.25 24.15 37.25 24.25 37.3 24.3 37.35 24.4 37.4 24.45 37.4 24.6 37.45 24.7 37.45 24.95 37.45 25.0 37.45 25.05 37.4 25.0 37.6 25.55 37.7 26.1 37.6 26.75 37.35 27.35 37.65 27.85 37.65 27.95 37.8 28.15 37.95 28.4 38.0 28.6 37.9 29.15 37.7 29.55 38.05 30.55 Q38.15 31.25 37.85 31.6 L38.1 31.25 38.0 31.45 37.95 31.7 37.95 31.8 38.05 32.0 38.1 32.15 38.2 32.35 38.2 32.45 38.2 32.6 38.15 32.6 38.2 32.65 38.2 32.7 38.15 32.65 38.1 32.75 38.05 32.9 37.9 32.95 37.75 33.1 37.75 33.35 37.85 33.5 37.8 34.0 37.75 34.05 37.75 34.15 37.7 34.25 37.7 34.35 37.85 34.4 37.9 34.55 38.0 34.6 38.0 34.7 38.05 34.85 38.05 35.05 38.05 35.1 37.95 35.3 37.8 35.45 37.85 35.5 37.8 35.55 37.9 35.75 38.0 36.0 38.05 36.65 37.85 37.0 37.95 37.1 38.15 37.2 38.5 37.4 38.55 37.4 38.8 37.5 39.0 37.6 39.4 37.75 39.45 37.75 40.55 38.2 40.7 38.3 40.85 38.4 41.1 38.45 41.4 38.6 41.75 38.8 42.0 38.95 42.1 39.05 42.25 39.05 42.25 39.1 42.3 39.1 42.55 39.25 42.7 39.35 42.85 39.4 42.95 39.45 43.05 39.55 43.1 39.55 43.3 39.7 43.45 39.85 43.55 39.95 43.6 40.0 43.75 40.15 43.9 40.3 44.0 40.5 44.2 40.65 44.15 40.65 44.15 40.7 44.2 40.7 44.3 41.0 44.35 41.0 44.35 41.15 44.4 41.3 44.45 41.45 44.5 41.6 44.5 41.75 44.5 41.9 44.45 42.25 44.45 42.6 44.45 43.25 44.4 43.45 44.35 43.65 44.3 44.35 44.25 44.55 44.3 44.9 44.15 45.6 44.1 45.75 44.1 45.9 44.0 46.4 43.9 46.55 43.9 46.8 43.9 46.9 43.85 47.0 43.85 47.1 43.8 47.2 43.75 47.45 43.65 47.7 43.65 47.9 43.65 48.0 43.65 48.15 43.65 48.2 43.65 48.3 43.6 48.3 43.55 48.85 43.7 49.3 43.75 49.3 43.8 49.55 43.95 49.8 43.95 49.95 44.1 50.25 44.2 50.5 44.3 50.75 44.35 50.9 44.45 51.2 44.45 51.55 44.5 51.7 44.45 51.85 44.4 51.9 44.4 52.0 44.4 52.1 44.2 52.2 44.15 52.2 43.75 52.4 43.25 52.5 43.15 52.45 43.05 52.25 43.1 52.1 43.05 51.95 43.1 51.75 43.05 51.55 43.05 51.25 42.85 50.9 42.8 50.8 42.85 50.8 42.8 50.65 42.7 50.65 42.6 50.6 42.7 51.1 42.85 51.6 42.85 51.95 42.75 52.35 42.8 52.45 42.65 52.55 42.55 52.65 42.3 52.65 42.1 52.75 42.0 52.8 41.85 52.8 41.65 52.9 40.2 52.85 40.05 52.75 39.9 52.75 39.5 52.5 39.4 52.3 39.3 52.05 39.25 51.8 39.3 51.5 39.35 51.45 39.3 51.35 39.3 51.15 39.35 51.05 39.4 50.85 39.45 50.7 39.5 50.55 39.5 50.5 39.55 50.3 39.65 50.15 39.8 49.9 39.85 49.75 39.95 49.7 40.0 49.6 40.1 49.45 40.15 49.25 40.35 49.1 40.7 48.4 40.7 48.35 41.3 46.5 41.35 46.25 41.4 46.15 41.45 46.05 41.4 45.9 41.45 45.7 41.5 45.7 41.55 45.05 41.65 44.95 41.6 44.75 41.65 44.75 41.65 44.7 41.65 44.45 41.75 44.3 41.75 44.15 41.8 43.9 41.8 43.65 41.8 43.6 41.9 42.6 41.9 42.35 41.9 42.1 41.85 42.0 41.7 41.75 41.4 41.5 41.2 41.4 41.05 41.3 40.95 41.2 40.95 41.15 40.8 41.1 40.6 40.95 40.4 40.85 40.25 40.75 39.5 40.4 39.3 40.25 39.1 40.15 39.05 40.15 39.0 40.2 38.95 40.15 38.9 40.1 38.7 40.0 38.55 39.95 38.15 39.75 37.95 39.65 36.6 39.15 36.3 39.4 35.85 39.65 35.45 40.45 Q35.15 40.75 34.65 40.85 L33.8 40.7 33.75 40.65 33.75 40.6 33.5 40.55 33.3 40.5 32.95 40.95 Q32.8 41.15 32.45 41.2 L31.75 41.15 31.2 41.25 31.1 41.3 30.95 41.3 30.55 41.7 30.65 41.95 30.65 42.05 30.55 42.2 30.55 42.35 30.45 42.45 30.5 42.95 30.45 43.1 30.4 43.4 29.8 44.0 29.7 44.1 29.65 44.1 29.65 44.25 29.65 44.35 29.3 45.05 28.95 45.2 28.8 45.25 28.65 45.35 28.65 45.55 28.55 45.75 28.3 46.1 28.1 46.3 27.9 46.35 Q27.7 46.55 27.4 46.55 L26.05 46.7 25.8 47.05 25.75 47.15 25.65 47.25 25.45 47.5 25.3 47.6 25.15 47.65 24.9 47.75 24.6 47.8 24.4 47.75 24.15 47.75 23.9 47.85 23.6 47.9 23.25 47.95 22.8 47.9 22.7 47.9 22.5 47.8 22.45 47.8 22.25 47.8 22.1 47.7 21.95 47.65 21.6 47.45 21.5 47.35 21.4 47.2 20.8 47.7 20.5 47.9 20.2 48.2 19.95 48.4 19.75 48.5 19.55 48.75 Q19.35 48.9 19.25 49.0 L19.25 49.2 19.1 49.5 19.05 49.65 19.05 49.8 19.05 49.9 19.05 50.05 19.05 50.15 19.1 50.35 19.05 50.45 19.05 50.65 18.95 51.1 18.6 51.75 18.1 52.4 18.0 52.45 17.8 52.55 17.8 52.6 17.25 52.6 16.6 52.5 16.4 52.4 16.1 52.15 16.15 52.0 16.2 52.05 Q17.1 51.7 17.3 51.05 L17.45 50.5 17.35 50.3 17.2 50.8 17.05 51.2 16.85 51.3 16.7 51.45 16.55 51.55 16.45 51.6 16.4 51.6 16.35 51.7 15.9 51.85 15.5 51.75 15.25 51.6 14.75 51.25 14.5 50.95 14.3 50.6 14.0 50.2 13.95 50.1 13.9 50.0 13.75 49.75 13.75 49.65 13.75 49.45 13.8 49.35 13.8 49.25 13.95 49.05 14.05 48.95 14.15 48.8 14.3 48.65 14.45 48.55 14.6 48.5 14.7 48.35 14.8 48.3 Q14.85 48.2 15.05 48.1 L15.3 47.95 15.5 47.95 15.6 47.85 15.7 47.8 15.8 47.8 15.8 47.75 16.1 47.6 16.25 47.55 16.45 47.5 16.95 47.25 17.4 47.0 17.85 46.8 18.0 46.6 18.15 46.5 18.75 46.15 19.25 45.75 19.25 45.7 19.4 45.65 19.45 45.55 19.5 45.55 19.65 45.45 19.15 44.7 18.9 44.7 18.45 44.3 18.3 44.0 18.3 43.65 18.25 43.3 18.35 43.15 18.2 43.0 18.15 42.85 18.05 42.45 18.1 42.05 18.25 41.85 18.3 41.7 18.45 41.6 18.55 41.55 18.85 41.35 18.85 41.15 18.85 40.95 18.9 40.85 18.9 40.7 18.9 40.55 18.95 40.5 19.1 40.4 19.15 40.25 19.2 40.2 19.3 40.0 19.4 39.95 19.5 39.85 19.55 39.8 19.8 39.7 Q19.9 39.55 20.05 39.55 L20.25 39.5 20.45 39.45 20.65 39.45 20.85 39.4 20.9 39.4 21.0 39.35 21.15 39.0 21.4 38.75 21.45 38.6 21.6 38.5 21.7 38.45 21.75 38.45 21.7 38.4 21.95 38.3 22.1 38.2 22.3 38.2 22.7 38.3 23.05 38.35 23.2 38.05 23.2 38.0 23.25 38.0 23.35 37.8 23.45 37.8 23.45 37.7 23.5 37.7 23.55 37.7 23.6 37.65 24.0 37.4 24.3 37.35 24.5 37.35 24.75 37.4 25.1 37.35 25.4 36.95 25.35 36.75 25.35 36.65 25.15 36.85 25.05 36.9 24.95 37.0 24.75 37.05 24.7 37.0 24.65 37.0 24.6 37.0 24.45 37.0 24.35 36.95 24.25 36.95 24.1 36.9 23.95 36.8 23.8 36.75 23.65 36.7 23.5 36.55 23.35 36.45 23.25 36.4 23.2 36.35 23.15 36.35 22.9 36.05 22.6 35.85 22.4 35.5 22.3 35.35 22.2 35.15 22.0 34.8 21.8 34.5 21.55 34.3 21.35 34.0 21.15 33.75 20.9 33.5 20.6 33.15 20.45 33.05 20.35 32.9 20.25 32.85 20.15 32.75 20.15 32.65 20.05 32.55 20.0 32.55 19.8 32.3 19.65 32.15 19.65 32.1 19.5 32.05 19.4 31.95 19.0 31.35 18.55 30.85 18.35 30.45 18.3 30.3 18.2 30.25 18.0 29.8 17.95 29.1 17.95 28.4 18.25 27.5 18.6 27.0 18.7 26.95 18.75 26.85 18.8 26.75 Q18.85 26.7 19.05 26.55 L19.35 26.3 19.5 26.1 19.55 26.0 19.75 25.9 19.9 25.75 19.9 25.7 20.05 25.6 20.2 25.45 20.3 25.35 20.35 25.3 20.4 25.25 20.5 25.2 20.6 25.1 20.7 25.05 20.8 24.95 20.95 24.9 21.1 24.75 21.2 24.65 21.4 24.5 Q21.5 24.35 21.6 24.35 21.75 24.2 21.95 24.15 L22.25 23.85 22.45 23.75 22.55 23.65 22.9 23.45 23.2 23.2 23.25 23.15 23.4 23.05 23.65 22.9 23.65 22.85 23.7 22.8 23.75 22.8 24.0 22.65 24.3 22.5 24.3 22.4 24.4 22.4 24.45 22.35 24.55 22.3 24.6 22.0 24.85 21.75 24.85 21.6 24.9 21.45 24.9 21.2 24.9 21.05 25.1 20.75 25.15 20.6 25.25 20.45 25.25 20.4 25.25 20.25 25.2 20.05 25.2 19.8 25.2 19.65 25.3 19.35 25.4 19.1 25.55 18.8 25.85 18.5 25.9 18.5 26.0 18.4 26.1 18.3 26.15 18.2 26.15 18.1 26.2 18.05 26.2 17.9 26.25 17.3 26.3 17.05 26.35 16.9 26.3 16.75 26.3 16.65 25.4 16.75 25.05 16.95 24.7 17.05 24.5 17.1 24.3 17.15 24.15 17.15 23.9 17.3 23.65 17.4 22.75 17.7 22.15 17.9 21.9 18.1 21.05 18.55 20.1 19.0 Q19.6 19.0 19.5 18.6 L19.35 18.3 19.3 17.85 19.45 17.45 19.6 17.1 19.75 16.85 19.75 16.8 19.8 16.7 20.0 16.55 20.15 16.35 20.2 16.3 20.25 16.2 20.6 15.8 20.7 15.7 20.8 15.65 20.9 15.6 20.95 15.5 21.3 15.25 21.7 15.0 22.0 14.8 22.3 14.75 23.15 14.6 23.25 14.55 23.3 14.6 23.8 14.65 23.9 14.65 24.0 14.65 24.2 14.7 24.55 14.75 24.95 14.85 25.3 14.85 25.6 15.0 25.95 15.1 26.1 15.2 26.35 15.25 26.6 15.4 26.75 14.45 26.55 14.45 26.35 14.4 26.3 14.4 26.25 14.3 26.2 14.3 26.2 14.25 26.05 14.05 25.95 14.0 25.4 13.35 25.4 13.1 25.4 12.85 25.45 12.75 25.5 12.6 25.45 12.5 25.55 12.45 25.6 12.35 25.65 12.3 25.75 12.2 25.8 12.15 25.75 12.05 25.6 11.8 25.6 11.4 25.8 11.05 25.9 11.0 26.05 10.9 26.05 10.7 26.15 10.45 26.2 10.45 26.35 10.15 26.65 9.95 26.75 9.9 26.85 9.85 27.0 9.8 27.2 9.75 27.35 9.75 27.5 9.75 27.8 9.75 Q27.85 9.7 28.05 9.55 L28.15 9.55 28.3 9.5 28.35 9.55 28.65 9.55 28.75 9.4 28.95 9.3 29.15 9.05 29.25 9.1 Q29.3 9.0 29.5 9.0 L29.8 9.0 29.95 9.05 30.1 9.0 30.15 9.05 30.25 9.05 30.25 9.1 30.45 9.15 30.6 9.2 30.7 9.15 30.8 9.05 31.45 8.95 Q32.35 8.95 32.65 9.5 L32.9 9.7 32.95 9.8 32.95 9.85 33.05 9.95 33.1 10.1 33.65 10.15 34.0 10.4 34.05 10.85 34.05 11.0 34.05 11.15 34.1 11.3 34.2 11.4 34.25 11.5 34.3 11.6 34.3 11.65 34.3 11.8 34.35 12.05 34.45 12.4 34.4 12.75 34.4 12.9 34.35 13.05 34.25 13.05 34.25 13.15 34.2 13.25 34.05 13.45 33.7 13.7 33.6 13.7 33.3 13.6 33.35 13.8 33.45 14.05 33.45 14.1 33.5 14.25 33.65 14.45 33.8 14.4 33.9 14.35 34.2 14.2 34.6 14.05 34.8 14.0 34.95 13.95 35.1 13.9 35.3 13.85 35.6 13.75 35.9 13.65 36.05 13.65 36.1 13.6 36.3 13.6 36.45 13.6 36.5 13.55 38.0 13.5 38.25 13.55 38.45 13.7 38.85 13.8 39.05 13.9 39.25 14.0 39.25 14.05 Q39.8 14.25 40.15 14.6 L40.2 14.6 40.6 14.95 41.0 15.35 M32.8 10.15 L32.55 9.7 32.1 9.45 31.6 9.25 31.2 9.3 30.85 9.4 30.7 9.5 30.5 9.5 30.25 9.3 29.9 9.3 29.7 9.35 29.6 9.3 Q29.15 9.45 29.0 9.7 L28.9 9.7 28.85 9.85 28.75 9.8 28.65 9.8 28.5 9.75 28.3 9.75 28.2 9.8 28.0 9.85 28.05 9.95 28.0 10.05 27.65 10.0 27.2 10.05 26.75 10.2 26.6 10.4 26.45 10.6 26.3 10.8 26.4 10.9 26.3 11.05 26.15 11.1 26.1 11.2 26.05 11.25 26.05 11.4 26.05 11.5 26.1 12.0 26.2 12.05 26.3 12.1 26.15 12.15 26.05 12.2 25.8 12.5 25.75 12.8 25.7 13.1 25.7 13.35 Q25.9 13.7 26.25 13.75 L26.35 14.0 26.55 14.1 26.8 14.2 26.85 14.05 27.0 14.0 27.05 13.85 27.05 13.75 27.15 13.7 27.3 13.7 27.5 13.7 27.7 13.65 28.1 13.55 28.25 13.4 28.45 13.35 28.75 13.25 29.05 13.15 29.1 13.2 29.3 13.15 29.5 13.15 29.6 13.15 29.8 13.1 30.05 13.1 30.1 13.05 30.25 13.05 30.45 13.0 30.65 13.05 31.0 13.1 31.15 13.15 31.6 13.1 32.0 13.1 32.2 13.15 32.45 13.2 32.5 13.25 32.65 13.3 32.8 13.3 32.85 13.35 32.95 13.35 33.05 13.4 33.15 13.45 33.2 13.45 33.3 13.45 33.35 13.4 33.8 13.3 33.95 13.05 34.0 12.95 34.05 12.85 34.1 12.75 34.15 12.6 34.15 12.4 34.15 12.25 34.1 12.1 34.0 12.1 33.9 12.05 34.0 11.95 34.05 11.85 34.05 11.75 34.0 11.65 33.9 11.4 33.75 11.35 33.75 11.1 33.8 10.8 33.5 10.4 33.0 10.3 32.9 10.25 32.8 10.15 M31.4 12.25 L30.6 12.15 30.6 12.1 31.25 12.1 31.7 11.9 31.8 11.8 31.8 11.75 31.95 11.6 32.0 11.6 32.0 11.55 32.05 11.55 32.05 11.5 32.1 11.3 32.1 11.25 32.2 11.2 32.2 11.25 32.25 11.3 32.25 11.35 32.3 11.4 32.15 11.75 31.4 12.25 M32.85 12.1 L33.0 11.9 33.0 11.85 33.05 11.8 33.05 11.55 33.1 11.55 33.15 11.55 33.2 11.6 33.25 11.6 33.25 11.7 33.25 11.8 33.2 12.0 33.1 12.15 33.1 12.25 32.95 12.35 32.9 12.45 32.8 12.45 32.45 12.6 32.1 12.55 32.1 12.45 32.15 12.5 32.15 12.45 32.2 12.45 32.45 12.4 32.6 12.3 32.7 12.25 32.7 12.2 32.85 12.1 M29.45 15.25 L29.35 15.3 29.3 15.45 29.55 15.55 29.65 15.45 Q29.95 15.55 29.9 15.9 L29.6 16.4 29.1 16.55 28.8 16.4 28.6 16.15 Q28.45 15.7 28.75 15.4 L29.45 15.25 M30.35 15.25 L30.3 15.4 30.25 15.55 30.5 16.2 31.0 16.7 31.7 16.85 Q32.35 16.8 32.7 16.15 L32.75 16.05 32.8 15.95 32.9 15.5 32.75 15.1 32.7 14.95 32.65 14.85 32.45 14.7 32.2 14.5 32.1 14.45 31.9 14.35 31.4 14.3 Q31.0 14.4 30.75 14.65 L30.35 15.25 M28.25 14.65 L27.85 15.05 27.6 15.45 27.65 16.0 27.8 16.4 28.0 16.7 28.85 17.05 Q29.6 17.0 29.95 16.45 L30.05 16.25 30.15 16.05 30.2 15.8 30.15 15.55 30.05 15.25 29.95 15.0 29.55 14.6 28.9 14.5 28.5 14.55 28.25 14.65 M33.65 12.0 L33.7 12.0 33.7 12.15 33.75 12.35 33.75 12.4 33.6 12.65 33.4 12.85 33.15 12.95 32.95 12.95 32.95 12.9 32.9 12.85 Q32.9 12.8 33.05 12.75 L33.25 12.7 33.4 12.5 33.6 12.2 33.65 12.2 33.6 12.05 33.65 12.0 M27.5 13.0 L27.55 13.0 27.65 12.95 27.7 12.9 27.8 12.95 27.65 13.2 27.3 13.3 27.15 13.25 27.05 13.25 26.8 13.1 26.55 12.9 26.55 12.8 26.5 12.7 26.5 12.55 26.6 12.55 26.7 12.6 Q26.7 12.95 27.05 13.1 L27.5 13.05 27.5 13.0 M25.95 18.95 L25.8 19.2 25.7 19.5 25.55 19.8 25.55 19.95 25.55 20.05 25.55 20.2 25.6 20.3 25.65 20.4 25.7 20.4 25.65 20.55 25.4 20.8 25.25 21.05 25.25 21.25 25.15 21.4 25.15 21.6 25.15 21.65 25.2 21.7 25.2 21.75 25.15 21.9 25.1 22.0 25.1 22.1 25.0 22.1 24.9 22.15 24.85 22.3 24.95 22.75 25.1 23.15 25.35 23.3 25.4 23.45 25.25 24.0 25.35 24.65 25.05 24.7 25.05 25.0 25.1 25.3 Q24.85 25.55 24.8 26.15 L24.8 26.35 24.95 26.55 25.1 26.7 25.15 26.8 25.25 26.9 25.1 27.25 24.95 27.6 24.8 28.25 24.75 28.5 Q24.65 29.0 25.15 29.5 L25.1 29.65 25.05 29.9 25.15 30.1 25.25 30.3 25.3 30.35 25.3 30.4 25.3 30.55 25.25 30.65 25.25 30.9 25.25 31.05 25.25 31.3 25.25 31.4 25.2 31.75 25.3 32.05 25.55 32.15 25.75 32.3 25.9 32.25 26.05 32.3 26.2 32.55 26.4 32.9 26.45 32.9 26.45 32.95 26.45 33.2 26.45 33.25 26.45 33.4 26.45 33.45 26.45 33.55 26.45 33.7 26.4 33.9 26.45 34.0 26.4 34.2 26.35 34.4 26.25 34.55 26.2 34.6 26.1 34.65 26.0 34.65 25.2 34.55 24.45 34.45 Q24.65 34.65 25.05 34.7 L25.15 34.75 25.9 35.05 26.0 35.15 26.05 35.25 26.0 35.35 25.95 35.55 25.9 35.6 25.9 35.75 25.8 36.0 25.7 36.3 25.65 36.25 25.7 36.7 25.75 36.9 25.8 36.95 25.85 37.05 25.95 37.15 26.0 37.2 26.2 37.4 26.25 37.4 26.3 37.5 26.3 37.55 Q26.2 37.85 26.4 38.2 L26.7 38.55 26.7 38.6 26.85 38.7 26.95 38.85 27.6 38.95 27.75 38.9 27.9 38.9 27.9 39.1 27.9 39.25 27.9 39.4 27.9 39.5 27.95 39.55 27.95 39.65 27.95 39.75 28.05 40.05 28.2 40.2 28.4 40.4 28.45 40.4 28.6 40.45 28.75 40.45 28.85 40.45 29.1 41.05 29.75 41.2 29.95 41.1 30.1 41.05 30.25 40.95 30.4 41.0 30.45 41.0 30.65 41.0 30.85 41.05 31.0 41.05 31.1 41.05 31.15 41.0 31.2 41.0 31.4 40.8 31.75 40.9 32.3 40.9 32.75 40.65 32.8 40.55 32.95 40.45 33.05 40.3 33.05 40.2 33.3 40.2 33.45 40.3 33.5 40.3 33.6 40.35 33.7 40.4 33.75 40.35 33.75 40.4 34.55 40.5 34.7 40.45 34.85 40.4 34.9 40.35 35.0 40.35 35.15 40.25 35.4 40.1 35.5 39.9 35.55 39.65 35.6 39.45 Q35.55 39.35 35.65 39.3 L35.75 39.4 35.95 39.25 36.05 39.2 36.25 39.0 36.3 38.7 36.35 38.35 36.3 38.0 36.2 38.0 36.1 37.85 36.6 37.45 36.65 37.4 36.75 37.3 36.8 37.2 36.85 37.1 36.85 37.0 36.95 37.0 37.05 37.0 37.45 36.9 37.75 36.7 37.55 35.7 37.45 35.7 37.45 35.6 37.4 35.55 37.5 35.35 37.65 35.05 Q37.6 35.0 37.7 34.9 L37.65 34.7 37.5 34.6 37.45 34.45 37.35 34.4 37.3 34.35 37.35 34.3 37.35 34.15 37.4 34.05 37.4 33.85 37.4 33.75 37.4 33.65 37.3 33.05 37.5 32.95 37.65 32.7 37.75 32.45 37.75 32.15 37.75 32.0 37.65 31.9 37.6 31.75 37.6 31.65 37.6 31.5 37.7 31.35 37.65 31.05 37.6 30.95 37.6 30.75 37.6 30.7 37.6 30.55 37.6 30.45 37.6 30.2 37.5 30.05 37.5 30.0 37.45 29.85 37.3 29.65 37.3 29.5 37.5 29.3 37.6 28.95 37.55 28.75 37.55 28.5 37.25 28.05 37.25 27.6 37.1 27.45 37.15 27.25 37.25 26.8 37.35 26.3 37.35 26.1 37.3 25.85 37.25 25.65 37.15 25.4 37.15 25.35 37.1 25.35 37.05 25.3 37.05 25.1 37.05 24.8 36.95 24.6 36.8 24.45 36.9 24.0 36.85 23.8 36.8 23.6 36.65 23.05 36.6 22.95 36.55 22.85 36.25 22.2 35.95 21.75 36.0 21.25 36.0 21.2 36.0 21.15 35.95 21.1 35.85 20.95 35.75 20.8 35.5 20.65 35.3 20.5 35.35 20.4 35.4 20.25 35.45 20.0 35.5 19.75 35.45 19.55 35.4 19.25 34.85 18.65 34.85 18.7 34.8 18.75 35.0 20.0 34.95 21.1 34.9 21.3 34.85 21.85 34.75 21.95 34.7 22.05 34.65 22.1 34.55 22.3 34.5 22.4 34.4 22.6 34.35 22.65 34.3 22.7 34.3 22.75 34.15 23.0 34.05 23.1 33.95 23.2 33.8 23.35 33.8 23.4 Q33.75 23.4 33.65 23.5 L33.6 23.6 33.45 23.65 33.35 23.75 33.1 23.95 32.85 24.15 32.8 24.2 32.65 24.25 32.5 24.3 32.35 24.35 32.3 24.45 32.0 24.5 31.75 24.65 31.6 24.75 31.4 24.75 31.2 24.75 31.0 24.75 31.0 24.8 30.9 24.8 30.7 24.85 30.6 24.85 30.25 24.85 29.25 24.75 29.05 24.7 28.95 24.6 28.85 24.55 28.5 24.5 Q28.35 24.3 28.1 24.25 L27.9 24.05 27.65 23.9 27.6 23.85 27.5 23.8 27.45 23.8 27.3 23.65 27.25 23.6 27.2 23.5 27.05 23.35 26.95 23.25 26.9 23.15 26.75 22.95 26.6 22.75 26.5 22.5 26.4 22.3 26.35 22.3 26.35 22.25 26.25 21.8 26.2 21.55 26.2 21.4 26.15 21.3 26.15 21.1 26.05 21.05 26.05 20.9 26.05 20.7 26.05 20.65 26.05 20.55 26.0 20.5 26.05 20.1 26.0 19.75 26.05 19.65 26.05 19.5 26.1 19.15 26.1 18.8 26.05 18.8 26.0 18.85 26.0 18.9 25.95 18.95 M35.15 23.75 L35.25 23.85 35.25 24.0 35.25 24.2 35.2 24.2 35.2 24.3 35.15 24.4 35.15 24.45 34.95 24.7 34.95 24.8 34.9 24.85 34.85 24.95 Q34.8 24.95 34.7 25.05 L34.55 25.15 34.55 25.2 34.5 25.15 34.45 25.2 34.4 25.2 34.45 25.25 34.3 25.25 34.2 25.15 34.1 25.0 34.15 25.0 34.15 24.95 34.2 25.0 34.35 24.95 34.45 24.95 34.5 24.9 34.6 24.8 34.65 24.8 34.65 24.7 34.7 24.65 34.85 24.5 34.95 24.25 35.0 24.15 35.05 23.95 35.05 23.75 35.1 23.8 35.15 23.75 M33.35 21.6 L33.3 21.45 33.25 21.35 33.15 21.75 33.1 21.85 32.9 21.85 32.7 21.85 32.55 21.8 32.8 22.05 33.05 22.05 33.2 22.0 33.3 22.0 33.35 21.8 33.35 21.65 33.35 21.6 M31.2 15.1 L31.45 15.0 31.7 15.05 31.65 15.15 31.55 15.2 31.65 15.35 31.8 15.4 31.85 15.35 31.9 15.2 Q32.25 15.5 32.1 15.85 L31.6 16.3 31.0 16.15 Q30.75 15.85 30.85 15.5 L30.95 15.25 31.2 15.1 M28.55 22.3 L28.8 22.1 28.8 21.8 28.3 22.15 28.25 22.1 28.15 22.05 28.0 21.95 28.05 22.05 28.1 22.15 28.35 22.35 28.55 22.3 M25.2 37.6 L25.15 37.6 25.05 37.65 24.95 37.7 24.35 37.75 23.85 37.95 23.45 38.2 23.3 38.4 23.15 38.65 23.1 38.65 22.5 38.6 21.55 39.05 21.45 39.1 21.35 39.2 21.2 39.45 21.05 39.75 20.8 39.75 20.55 39.8 20.45 39.9 20.4 39.85 20.35 39.85 19.85 40.05 19.65 40.2 19.3 40.5 19.1 41.0 Q19.05 41.35 19.15 41.5 L19.0 41.65 18.9 41.75 18.8 41.85 18.75 41.9 18.6 41.95 18.35 42.55 18.45 42.85 18.6 43.15 18.55 43.25 18.55 43.4 18.55 43.65 18.7 43.95 18.8 44.2 19.0 44.2 19.2 44.2 19.3 44.25 19.4 44.6 19.55 44.85 19.95 45.15 20.0 45.25 20.15 45.05 20.4 44.9 20.45 44.8 20.6 44.75 Q20.75 44.6 20.85 44.55 L21.0 44.4 21.05 44.35 Q21.15 44.25 21.2 44.25 L21.3 44.15 21.4 44.05 21.45 44.05 21.65 43.95 21.8 43.8 21.9 43.7 22.05 43.55 22.25 43.35 22.4 43.3 22.45 43.2 22.6 43.15 22.6 43.05 22.7 43.0 22.75 43.0 23.1 42.65 23.45 42.3 23.9 42.0 24.15 41.8 24.4 41.55 24.5 41.4 24.7 41.25 24.85 41.1 25.1 40.9 25.15 40.85 25.25 40.75 25.3 40.7 25.4 40.6 25.7 40.3 26.0 40.0 26.4 39.55 26.65 39.35 26.75 39.25 26.8 39.15 26.5 38.9 26.25 38.7 26.05 38.5 25.95 38.2 25.9 38.1 25.9 37.95 25.85 37.75 25.85 37.55 25.7 37.45 25.6 37.25 25.35 37.5 25.3 37.6 25.2 37.6 M19.85 44.3 L19.65 44.15 19.5 43.85 19.75 44.05 20.0 44.15 20.25 44.15 20.35 44.1 20.45 44.1 20.5 44.2 20.5 44.3 20.05 44.4 19.85 44.3 M19.65 42.2 L19.75 42.25 19.8 42.35 19.65 42.85 19.7 43.15 19.8 43.35 20.05 43.4 20.3 43.55 20.0 43.55 19.8 43.55 19.65 43.45 19.55 43.2 19.45 43.05 19.4 42.8 19.4 42.55 19.55 42.35 19.6 42.3 19.65 42.2 M36.25 25.45 L36.3 25.45 36.3 25.5 36.35 25.5 36.4 25.7 36.45 25.95 36.35 26.15 36.35 26.25 36.1 26.5 36.1 26.55 35.9 26.7 35.7 26.65 35.7 26.5 35.8 26.5 35.85 26.45 35.95 26.4 36.0 26.3 36.05 26.2 36.15 26.0 36.2 25.7 36.25 25.65 36.25 25.6 36.25 25.5 36.25 25.45 M35.05 32.95 L35.3 32.95 35.45 32.85 35.7 32.75 36.0 32.6 36.0 32.55 36.05 32.45 36.15 32.35 36.2 32.2 36.2 32.1 36.3 32.1 36.35 32.1 36.4 32.1 36.35 32.15 36.35 32.2 36.35 32.3 36.35 32.35 36.05 32.8 Q35.8 33.05 35.45 33.1 L35.2 33.15 35.0 33.05 35.05 32.95 M35.15 31.9 L35.15 31.85 35.2 31.85 35.4 31.85 35.6 31.8 35.6 31.75 35.7 31.65 35.85 31.55 36.0 31.4 36.15 31.05 36.1 31.05 36.2 30.95 36.3 31.05 36.25 31.05 36.25 31.1 36.25 31.15 36.3 31.4 36.15 31.6 36.15 31.65 35.95 31.8 35.65 31.95 35.25 32.05 35.2 32.0 35.2 31.95 35.15 32.0 35.15 31.9 M35.25 25.05 L35.3 25.1 35.35 25.1 35.35 25.2 35.4 25.2 35.2 25.65 34.8 26.0 34.75 26.0 34.8 26.05 34.75 26.1 34.55 26.2 34.35 26.25 34.35 26.3 33.75 26.35 33.75 26.3 34.25 26.1 34.3 26.05 34.45 25.9 34.7 25.8 34.85 25.65 35.0 25.55 35.0 25.45 35.1 25.4 35.1 25.3 35.15 25.2 35.25 25.05 M35.7 28.1 L35.7 28.0 35.75 28.0 35.7 27.95 35.75 27.85 35.9 27.85 35.85 28.35 35.5 28.7 35.5 28.75 35.4 28.75 35.35 28.75 35.2 28.85 35.15 28.75 35.25 28.65 35.45 28.55 35.5 28.45 35.6 28.25 35.7 28.25 35.65 28.15 35.75 28.15 35.7 28.1 M32.45 36.1 L32.4 36.15 32.35 36.1 32.3 36.05 32.25 35.95 32.4 35.95 32.45 35.9 32.65 36.0 33.3 36.0 33.35 35.95 33.55 35.85 33.7 35.85 33.8 35.85 33.8 35.95 33.65 36.0 33.55 36.1 33.2 36.25 32.85 36.25 32.5 36.15 32.45 36.15 32.45 36.1 M35.25 36.75 L35.6 36.7 Q35.65 36.6 35.85 36.5 L35.95 36.4 36.1 36.3 36.15 36.2 36.2 36.05 36.2 36.15 36.3 36.25 36.25 36.4 36.2 36.55 35.9 36.75 35.75 36.8 35.55 36.95 35.4 36.9 35.25 36.9 35.25 36.8 35.25 36.75 M25.7 28.9 L25.75 29.1 25.85 29.3 26.0 29.45 26.15 29.55 26.2 29.6 26.3 29.65 26.3 29.8 26.05 29.7 25.65 29.55 25.55 29.35 25.45 29.0 25.45 28.9 25.45 28.7 25.55 28.65 25.6 28.65 25.65 28.7 25.65 28.85 25.7 28.9 M25.75 30.2 L25.85 30.3 25.95 30.4 26.0 30.45 26.15 30.55 26.3 30.6 26.3 30.65 26.75 30.75 26.7 30.8 26.7 30.85 26.65 30.85 26.25 30.8 25.8 30.6 25.55 30.35 25.65 30.3 25.75 30.2 M24.55 25.4 L24.6 25.4 24.55 25.35 24.55 25.05 24.5 25.05 23.7 25.65 22.9 26.2 22.55 26.45 22.2 26.8 22.05 26.85 21.9 26.95 21.85 27.05 21.8 27.1 Q21.7 27.15 21.55 27.3 L21.25 27.55 21.15 27.65 21.05 27.8 20.95 27.9 20.8 28.0 20.75 28.1 20.7 28.15 20.65 28.2 20.6 28.3 20.5 28.5 20.45 28.65 20.45 28.85 20.45 29.15 20.55 29.25 20.65 29.45 20.75 29.75 21.0 30.05 21.2 30.3 21.55 30.7 21.9 31.0 22.05 31.15 22.2 31.35 22.4 31.55 22.65 31.75 22.8 31.85 22.85 31.85 23.0 31.95 23.1 32.0 23.45 32.05 23.85 32.0 24.35 32.05 24.8 32.0 24.85 31.9 24.8 31.6 24.75 31.25 24.8 31.15 24.8 31.05 24.8 30.95 24.8 30.85 24.85 30.8 24.8 30.7 24.9 30.55 24.95 30.4 24.65 30.05 24.65 29.9 24.65 29.85 24.65 29.65 24.7 29.45 24.6 29.2 24.5 29.05 24.5 28.95 24.5 28.85 24.45 28.85 24.45 28.75 24.35 28.6 24.35 28.35 24.4 28.25 24.4 27.9 24.45 27.85 24.45 27.75 24.5 27.7 24.55 27.55 Q24.5 27.4 24.6 27.3 L24.75 27.05 24.8 27.05 24.9 26.95 24.8 26.85 24.7 26.75 24.7 26.7 24.6 26.6 24.45 26.35 24.45 26.1 24.45 25.85 24.5 25.6 24.55 25.4 M20.25 29.1 L20.25 29.05 20.2 29.0 20.25 29.1 M29.65 38.4 L29.55 38.55 29.35 38.6 29.25 38.65 28.95 38.7 28.65 38.6 28.4 38.5 28.25 38.4 28.2 38.35 28.1 38.2 28.05 38.1 28.1 38.1 28.1 38.0 28.15 38.0 28.4 38.2 28.7 38.4 28.75 38.4 29.15 38.45 29.55 38.35 29.65 38.4 M28.5 40.7 L28.35 40.9 28.15 41.05 28.15 41.1 27.9 41.4 27.55 41.75 26.9 42.4 26.85 42.5 26.7 42.6 26.25 43.05 26.15 43.15 25.55 43.65 25.05 44.05 24.7 44.3 24.4 44.55 24.05 44.95 23.7 45.25 23.45 45.4 22.05 46.65 21.6 47.0 21.9 47.25 22.0 47.3 22.1 47.35 22.15 47.35 22.25 47.45 22.35 47.4 22.4 47.45 22.5 47.5 22.7 47.55 22.8 47.55 22.95 47.55 23.0 47.55 23.6 47.55 24.15 47.4 24.3 47.35 24.45 47.35 24.6 47.45 25.15 47.35 Q25.15 47.25 25.25 47.3 L25.4 47.15 25.5 47.0 25.7 46.75 25.7 46.65 25.75 46.55 25.75 46.45 25.8 46.4 25.85 46.35 26.0 46.4 26.15 46.45 26.4 46.45 26.7 46.4 26.9 46.4 27.1 46.4 27.15 46.35 27.2 46.3 27.3 46.3 27.35 46.3 27.35 46.25 27.8 46.1 Q27.9 46.05 28.05 45.95 L28.25 45.75 28.35 45.6 28.35 45.4 28.35 45.2 28.45 45.0 28.75 44.85 29.0 44.75 29.25 44.5 29.35 44.2 29.35 44.0 29.5 44.0 29.6 43.8 29.7 43.7 29.9 43.4 29.95 43.1 30.0 42.75 30.0 42.6 29.95 42.35 30.15 42.25 30.25 42.0 30.15 41.65 30.25 41.65 30.35 41.6 30.35 41.55 30.5 41.4 30.55 41.2 30.4 41.3 30.15 41.35 30.0 41.45 29.8 41.45 29.5 41.4 29.35 41.3 29.2 41.25 29.1 41.2 28.85 41.05 28.8 40.95 28.75 40.8 28.75 40.75 28.7 40.7 28.5 40.7 M28.95 42.7 L29.1 43.0 29.1 43.25 28.95 43.7 28.4 43.9 28.3 43.9 28.2 43.9 28.1 43.9 28.05 43.85 28.0 43.75 28.3 43.75 28.35 43.7 28.7 43.5 28.9 43.25 28.95 42.75 28.95 42.7 M23.7 46.4 L23.55 46.3 23.45 46.25 23.35 46.1 23.4 46.05 23.6 46.2 24.15 46.25 24.75 46.0 24.75 45.95 24.8 45.9 24.9 45.85 24.9 45.95 24.95 45.9 25.0 45.9 25.0 46.0 24.9 46.0 24.9 46.05 24.75 46.1 24.75 46.15 24.75 46.2 24.6 46.2 24.4 46.3 24.15 46.45 23.95 46.45 23.9 46.45 23.75 46.4 23.7 46.4 M22.75 46.65 L23.2 46.8 23.75 46.65 23.8 46.65 23.9 46.65 23.9 46.7 24.0 46.7 24.0 46.85 23.65 47.0 23.2 47.0 23.05 46.95 22.85 46.9 22.6 46.75 22.45 46.55 22.6 46.5 22.7 46.6 22.75 46.65 M27.1 44.75 L27.45 44.7 27.55 44.55 27.55 44.45 27.65 44.5 27.7 44.55 27.2 44.95 27.0 44.9 26.8 44.75 26.8 44.65 27.1 44.75 M25.85 45.2 L26.0 45.25 26.15 45.4 26.35 45.45 26.75 45.45 27.3 45.3 27.35 45.3 27.4 45.35 27.35 45.45 27.35 45.5 27.25 45.55 27.15 45.65 27.05 45.7 26.75 45.7 26.55 45.65 26.0 45.5 25.9 45.4 25.85 45.2 M34.3 37.45 L34.35 37.45 34.35 37.4 34.45 37.4 34.5 37.4 34.5 37.45 34.35 37.7 34.15 37.85 33.95 37.9 33.7 37.9 33.6 37.95 33.45 37.9 33.35 37.9 33.25 37.8 33.25 37.75 33.4 37.75 33.5 37.8 33.5 37.75 33.8 37.7 33.9 37.7 34.0 37.7 Q34.1 37.5 34.3 37.5 L34.3 37.45 M34.7 38.5 L34.8 38.3 34.85 38.25 34.8 38.2 34.85 38.1 34.95 38.1 35.0 38.2 34.95 38.8 34.9 38.8 34.85 38.9 34.75 39.0 34.55 39.2 34.25 39.3 33.8 39.3 33.8 39.25 33.75 39.2 33.85 39.15 33.95 39.15 34.1 39.1 34.3 39.1 34.3 39.05 34.4 39.0 34.45 38.9 34.5 38.9 34.55 38.85 34.6 38.85 34.6 38.75 34.65 38.7 34.7 38.5 M33.7 38.65 L33.55 39.05 33.55 39.1 33.0 39.4 32.3 39.45 32.25 39.45 32.25 39.4 32.2 39.4 32.15 39.4 32.15 39.35 32.1 39.35 32.1 39.3 32.1 39.25 32.2 39.25 32.35 39.25 33.0 39.15 33.05 39.15 33.25 39.0 33.35 38.85 33.4 38.85 33.55 38.7 33.65 38.6 33.7 38.65" fill="#90c7b7" fill-rule="evenodd" stroke="none"/>
    <path d="M32.8 10.15 L32.9 10.25 33.0 10.3 33.5 10.4 33.8 10.8 33.75 11.1 33.75 11.35 33.9 11.4 34.0 11.65 34.05 11.75 34.05 11.85 34.0 11.95 33.9 12.05 34.0 12.1 34.1 12.1 34.15 12.25 34.15 12.4 34.15 12.6 34.1 12.75 34.05 12.85 34.0 12.95 33.95 13.05 33.8 13.3 33.35 13.4 33.3 13.45 33.2 13.45 33.15 13.45 33.05 13.4 32.95 13.35 32.85 13.35 32.8 13.3 32.65 13.3 32.5 13.25 32.45 13.2 32.2 13.15 32.0 13.1 31.6 13.1 31.15 13.15 31.0 13.1 30.65 13.05 30.45 13.0 30.25 13.05 30.1 13.05 30.05 13.1 29.8 13.1 29.6 13.15 29.5 13.15 29.3 13.15 29.1 13.2 29.05 13.15 28.75 13.25 28.45 13.35 28.25 13.4 28.1 13.55 27.7 13.65 27.5 13.7 27.3 13.7 27.15 13.7 27.05 13.75 27.05 13.85 27.0 14.0 26.85 14.05 26.8 14.2 26.55 14.1 26.35 14.0 26.25 13.75 Q25.9 13.7 25.7 13.35 L25.7 13.1 25.75 12.8 25.8 12.5 26.05 12.2 26.15 12.15 26.3 12.1 26.2 12.05 26.1 12.0 26.05 11.5 26.05 11.4 26.05 11.25 26.1 11.2 26.15 11.1 26.3 11.05 26.4 10.9 26.3 10.8 26.45 10.6 26.6 10.4 26.75 10.2 27.2 10.05 27.65 10.0 28.0 10.05 28.05 9.95 28.0 9.85 28.2 9.8 28.3 9.75 28.5 9.75 28.65 9.8 28.75 9.8 28.85 9.85 28.9 9.7 29.0 9.7 Q29.15 9.45 29.6 9.3 L29.7 9.35 29.9 9.3 30.25 9.3 30.5 9.5 30.7 9.5 30.85 9.4 31.2 9.3 31.6 9.25 32.1 9.45 32.55 9.7 32.8 10.15 M31.4 12.25 L32.15 11.75 32.3 11.4 32.25 11.35 32.25 11.3 32.2 11.25 32.2 11.2 32.1 11.25 32.1 11.3 32.05 11.5 32.05 11.55 32.0 11.55 32.0 11.6 31.95 11.6 31.8 11.75 31.8 11.8 31.7 11.9 31.25 12.1 30.6 12.1 30.6 12.15 31.4 12.25 M32.85 12.1 L32.7 12.2 32.7 12.25 32.6 12.3 32.45 12.4 32.2 12.45 32.15 12.45 32.15 12.5 32.1 12.45 32.1 12.55 32.45 12.6 32.8 12.45 32.9 12.45 32.95 12.35 33.1 12.25 33.1 12.15 33.2 12.0 33.25 11.8 33.25 11.7 33.25 11.6 33.2 11.6 33.15 11.55 33.1 11.55 33.05 11.55 33.05 11.8 33.0 11.85 33.0 11.9 32.85 12.1 M33.65 12.0 L33.6 12.05 33.65 12.2 33.6 12.2 33.4 12.5 33.25 12.7 33.05 12.75 Q32.9 12.8 32.9 12.85 L32.95 12.9 32.95 12.95 33.15 12.95 33.4 12.85 33.6 12.65 33.75 12.4 33.75 12.35 33.7 12.15 33.7 12.0 33.65 12.0 M28.25 14.65 L28.5 14.55 28.9 14.5 29.55 14.6 29.95 15.0 30.05 15.25 30.15 15.55 30.2 15.8 30.15 16.05 30.05 16.25 29.95 16.45 Q29.6 17.0 28.85 17.05 L28.0 16.7 27.8 16.4 27.65 16.0 27.6 15.45 27.85 15.05 28.25 14.65 M30.35 15.25 L30.75 14.65 Q31.0 14.4 31.4 14.3 L31.9 14.35 32.1 14.45 32.2 14.5 32.45 14.7 32.65 14.85 32.7 14.95 32.75 15.1 32.9 15.5 32.8 15.95 32.75 16.05 32.7 16.15 Q32.35 16.8 31.7 16.85 L31.0 16.7 30.5 16.2 30.25 15.55 30.3 15.4 30.35 15.25 M29.45 15.25 L28.75 15.4 Q28.45 15.7 28.6 16.15 L28.8 16.4 29.1 16.55 29.6 16.4 29.9 15.9 Q29.95 15.55 29.65 15.45 L29.55 15.55 29.3 15.45 29.35 15.3 29.45 15.25 M25.15 21.6 L25.15 21.4 25.25 21.25 25.25 21.05 25.4 20.8 25.65 20.55 25.7 20.4 25.65 20.4 25.6 20.3 25.55 20.2 25.55 20.05 25.55 19.95 25.55 19.8 25.7 19.5 25.8 19.2 25.95 18.95 26.0 18.9 26.0 18.85 26.05 18.8 26.1 18.8 26.1 19.15 26.05 19.5 26.05 19.65 26.0 19.75 26.05 20.1 26.0 20.5 26.05 20.55 26.05 20.65 26.05 20.7 26.05 20.9 26.05 21.05 26.15 21.1 26.15 21.3 26.2 21.4 26.2 21.55 26.25 21.8 26.35 22.25 26.35 22.3 26.4 22.3 26.5 22.5 26.6 22.75 26.75 22.95 26.9 23.15 26.95 23.25 27.05 23.35 27.2 23.5 27.25 23.6 27.3 23.65 27.45 23.8 27.5 23.8 27.6 23.85 27.65 23.9 27.9 24.05 28.1 24.25 Q28.35 24.3 28.5 24.5 L28.85 24.55 28.95 24.6 29.05 24.7 29.25 24.75 30.25 24.85 30.6 24.85 30.7 24.85 30.9 24.8 31.0 24.8 31.0 24.75 31.2 24.75 31.4 24.75 31.6 24.75 31.75 24.65 32.0 24.5 32.3 24.45 32.35 24.35 32.5 24.3 32.65 24.25 32.8 24.2 32.85 24.15 33.1 23.95 33.35 23.75 33.45 23.65 33.6 23.6 33.65 23.5 Q33.75 23.4 33.8 23.4 L33.8 23.35 33.95 23.2 34.05 23.1 34.15 23.0 34.3 22.75 34.3 22.7 34.35 22.65 34.4 22.6 34.5 22.4 34.55 22.3 34.65 22.1 34.7 22.05 34.75 21.95 34.85 21.85 34.9 21.3 34.95 21.1 35.0 20.0 34.8 18.75 34.85 18.7 34.85 18.65 35.4 19.25 35.45 19.55 35.5 19.75 35.45 20.0 35.4 20.25 35.35 20.4 35.3 20.5 35.5 20.65 35.75 20.8 35.85 20.95 35.95 21.1 36.0 21.15 36.0 21.2 36.0 21.25 35.95 21.75 36.25 22.2 36.55 22.85 36.6 22.95 36.65 23.05 36.8 23.6 36.85 23.8 36.9 24.0 36.8 24.45 36.95 24.6 37.05 24.8 37.05 25.1 37.05 25.3 37.1 25.35 37.15 25.35 37.15 25.4 37.25 25.65 37.3 25.85 37.35 26.1 37.35 26.3 37.25 26.8 37.15 27.25 37.1 27.45 37.25 27.6 37.25 28.05 37.55 28.5 37.55 28.75 37.6 28.95 37.5 29.3 37.3 29.5 37.3 29.65 37.45 29.85 37.5 30.0 37.5 30.05 37.6 30.2 37.6 30.45 37.6 30.55 37.6 30.7 37.6 30.75 37.6 30.95 37.65 31.05 37.7 31.35 37.6 31.5 37.6 31.65 37.6 31.75 37.65 31.9 37.75 32.0 37.75 32.15 37.75 32.45 37.65 32.7 37.5 32.95 37.3 33.05 37.4 33.65 37.4 33.75 37.4 33.85 37.4 34.05 37.35 34.15 37.35 34.3 37.3 34.35 37.35 34.4 37.45 34.45 37.5 34.6 37.65 34.7 37.7 34.9 Q37.6 35.0 37.65 35.05 L37.5 35.35 37.4 35.55 37.45 35.6 37.45 35.7 37.55 35.7 37.75 36.7 37.45 36.9 37.05 37.0 36.95 37.0 36.85 37.0 36.85 37.1 36.8 37.2 36.75 37.3 36.65 37.4 36.6 37.45 36.1 37.85 36.2 38.0 36.3 38.0 36.35 38.35 36.3 38.7 36.25 39.0 36.05 39.2 35.95 39.25 35.75 39.4 35.65 39.3 Q35.55 39.35 35.6 39.45 L35.55 39.65 35.5 39.9 35.4 40.1 35.15 40.25 35.0 40.35 34.9 40.35 34.85 40.4 34.7 40.45 34.55 40.5 33.75 40.4 33.75 40.35 33.7 40.4 33.6 40.35 33.5 40.3 33.45 40.3 33.3 40.2 33.05 40.2 33.05 40.3 32.95 40.45 32.8 40.55 32.75 40.65 32.3 40.9 31.75 40.9 31.4 40.8 31.2 41.0 31.15 41.0 31.1 41.05 31.0 41.05 30.85 41.05 30.65 41.0 30.45 41.0 30.4 41.0 30.25 40.95 30.1 41.05 29.95 41.1 29.75 41.2 29.1 41.05 28.85 40.45 28.75 40.45 28.6 40.45 28.45 40.4 28.4 40.4 28.2 40.2 28.05 40.05 27.95 39.75 27.95 39.65 27.95 39.55 27.9 39.5 27.9 39.4 27.9 39.25 27.9 39.1 27.9 38.9 27.75 38.9 27.6 38.95 26.95 38.85 26.85 38.7 26.7 38.6 26.7 38.55 26.4 38.2 Q26.2 37.85 26.3 37.55 L26.3 37.5 26.25 37.4 26.2 37.4 26.0 37.2 25.95 37.15 25.85 37.05 25.8 36.95 25.75 36.9 25.7 36.7 25.65 36.25 25.7 36.3 25.8 36.0 25.9 35.75 25.9 35.6 25.95 35.55 26.0 35.35 26.05 35.25 26.0 35.15 25.9 35.05 25.15 34.75 25.05 34.7 Q24.65 34.65 24.45 34.45 L25.2 34.55 26.0 34.65 26.1 34.65 26.2 34.6 26.25 34.55 26.35 34.4 26.4 34.2 26.45 34.0 26.4 33.9 26.45 33.7 26.45 33.55 26.45 33.45 26.45 33.4 26.45 33.25 26.45 33.2 26.45 32.95 26.45 32.9 26.4 32.9 26.2 32.55 26.05 32.3 25.9 32.25 25.75 32.3 25.55 32.15 25.3 32.05 25.2 31.75 25.25 31.4 25.25 31.3 25.25 31.05 25.25 30.9 25.25 30.65 25.3 30.55 25.3 30.4 25.3 30.35 25.25 30.3 25.15 30.1 25.05 29.9 25.1 29.65 25.15 29.5 Q24.65 29.0 24.75 28.5 L24.8 28.25 24.95 27.6 25.1 27.25 25.25 26.9 25.15 26.8 25.1 26.7 24.95 26.55 24.8 26.35 24.8 26.15 Q24.85 25.55 25.1 25.3 L25.05 25.0 25.05 24.7 25.35 24.65 25.25 24.0 25.4 23.45 25.35 23.3 25.1 23.15 24.95 22.75 24.85 22.3 24.9 22.15 25.0 22.1 25.1 22.1 25.1 22.0 25.15 21.9 25.2 21.75 25.2 21.7 25.15 21.65 25.15 21.6 M27.5 13.0 L27.5 13.05 27.05 13.1 Q26.7 12.95 26.7 12.6 L26.6 12.55 26.5 12.55 26.5 12.7 26.55 12.8 26.55 12.9 26.8 13.1 27.05 13.25 27.15 13.25 27.3 13.3 27.65 13.2 27.8 12.95 27.7 12.9 27.65 12.95 27.55 13.0 27.5 13.0 M28.55 22.3 L28.35 22.35 28.1 22.15 28.05 22.05 28.0 21.95 28.15 22.05 28.25 22.1 28.3 22.15 28.8 21.8 28.8 22.1 28.55 22.3 M31.2 15.1 L30.95 15.25 30.85 15.5 Q30.75 15.85 31.0 16.15 L31.6 16.3 32.1 15.85 Q32.25 15.5 31.9 15.2 L31.85 15.35 31.8 15.4 31.65 15.35 31.55 15.2 31.65 15.15 31.7 15.05 31.45 15.0 31.2 15.1 M33.35 21.6 L33.35 21.65 33.35 21.8 33.3 22.0 33.2 22.0 33.05 22.05 32.8 22.05 32.55 21.8 32.7 21.85 32.9 21.85 33.1 21.85 33.15 21.75 33.25 21.35 33.3 21.45 33.35 21.6 M35.15 23.75 L35.1 23.8 35.05 23.75 35.05 23.95 35.0 24.15 34.95 24.25 34.85 24.5 34.7 24.65 34.65 24.7 34.65 24.8 34.6 24.8 34.5 24.9 34.45 24.95 34.35 24.95 34.2 25.0 34.15 24.95 34.15 25.0 34.1 25.0 34.2 25.15 34.3 25.25 34.45 25.25 34.4 25.2 34.45 25.2 34.5 25.15 34.55 25.2 34.55 25.15 34.7 25.05 Q34.8 24.95 34.85 24.95 L34.9 24.85 34.95 24.8 34.95 24.7 35.15 24.45 35.15 24.4 35.2 24.3 35.2 24.2 35.25 24.2 35.25 24.0 35.25 23.85 35.15 23.75 M18.8 44.2 L18.7 43.95 18.55 43.65 18.55 43.4 18.55 43.25 18.6 43.15 18.45 42.85 18.35 42.55 18.6 41.95 18.75 41.9 18.8 41.85 18.9 41.75 19.0 41.65 19.15 41.5 Q19.05 41.35 19.1 41.0 L19.3 40.5 19.65 40.2 19.85 40.05 20.35 39.85 20.4 39.85 20.45 39.9 20.55 39.8 20.8 39.75 21.05 39.75 21.2 39.45 21.35 39.2 21.45 39.1 21.55 39.05 22.5 38.6 23.1 38.65 23.15 38.65 23.3 38.4 23.45 38.2 23.85 37.95 24.35 37.75 24.95 37.7 25.05 37.65 25.15 37.6 25.2 37.6 25.3 37.6 25.35 37.5 25.6 37.25 25.7 37.45 25.85 37.55 25.85 37.75 25.9 37.95 25.9 38.1 25.95 38.2 26.05 38.5 26.25 38.7 26.5 38.9 26.8 39.15 26.75 39.25 26.65 39.35 26.4 39.55 26.0 40.0 25.7 40.3 25.4 40.6 25.3 40.7 25.25 40.75 25.15 40.85 25.1 40.9 24.85 41.1 24.7 41.25 24.5 41.4 24.4 41.55 24.15 41.8 23.9 42.0 23.45 42.3 23.1 42.65 22.75 43.0 22.7 43.0 22.6 43.05 22.6 43.15 22.45 43.2 22.4 43.3 22.25 43.35 22.05 43.55 21.9 43.7 21.8 43.8 21.65 43.95 21.45 44.05 21.4 44.05 21.3 44.15 21.2 44.25 Q21.15 44.25 21.05 44.35 L21.0 44.4 20.85 44.55 Q20.75 44.6 20.6 44.75 L20.45 44.8 20.4 44.9 20.15 45.05 20.0 45.25 19.95 45.15 19.55 44.85 19.4 44.6 19.3 44.25 19.2 44.2 19.0 44.2 18.8 44.2 M19.65 42.2 L19.6 42.3 19.55 42.35 19.4 42.55 19.4 42.8 19.45 43.05 19.55 43.2 19.65 43.45 19.8 43.55 20.0 43.55 20.3 43.55 20.05 43.4 19.8 43.35 19.7 43.15 19.65 42.85 19.8 42.35 19.75 42.25 19.65 42.2 M19.85 44.3 L20.05 44.4 20.5 44.3 20.5 44.2 20.45 44.1 20.35 44.1 20.25 44.15 20.0 44.15 19.75 44.05 19.5 43.85 19.65 44.15 19.85 44.3 M36.25 25.45 L36.25 25.5 36.25 25.6 36.25 25.65 36.2 25.7 36.15 26.0 36.05 26.2 36.0 26.3 35.95 26.4 35.85 26.45 35.8 26.5 35.7 26.5 35.7 26.65 35.9 26.7 36.1 26.55 36.1 26.5 36.35 26.25 36.35 26.15 36.45 25.95 36.4 25.7 36.35 25.5 36.3 25.5 36.3 25.45 36.25 25.45 M35.7 28.1 L35.75 28.15 35.65 28.15 35.7 28.25 35.6 28.25 35.5 28.45 35.45 28.55 35.25 28.65 35.15 28.75 35.2 28.85 35.35 28.75 35.4 28.75 35.5 28.75 35.5 28.7 35.85 28.35 35.9 27.85 35.75 27.85 35.7 27.95 35.75 28.0 35.7 28.0 35.7 28.1 M35.25 25.05 L35.15 25.2 35.1 25.3 35.1 25.4 35.0 25.45 35.0 25.55 34.85 25.65 34.7 25.8 34.45 25.9 34.3 26.05 34.25 26.1 33.75 26.3 33.75 26.35 34.35 26.3 34.35 26.25 34.55 26.2 34.75 26.1 34.8 26.05 34.75 26.0 34.8 26.0 35.2 25.65 35.4 25.2 35.35 25.2 35.35 25.1 35.3 25.1 35.25 25.05 M35.15 31.9 L35.15 32.0 35.2 31.95 35.2 32.0 35.25 32.05 35.65 31.95 35.95 31.8 36.15 31.65 36.15 31.6 36.3 31.4 36.25 31.15 36.25 31.1 36.25 31.05 36.3 31.05 36.2 30.95 36.1 31.05 36.15 31.05 36.0 31.4 35.85 31.55 35.7 31.65 35.6 31.75 35.6 31.8 35.4 31.85 35.2 31.85 35.15 31.85 35.15 31.9 M35.05 32.95 L35.0 33.05 35.2 33.15 35.45 33.1 Q35.8 33.05 36.05 32.8 L36.35 32.35 36.35 32.3 36.35 32.2 36.35 32.15 36.4 32.1 36.35 32.1 36.3 32.1 36.2 32.1 36.2 32.2 36.15 32.35 36.05 32.45 36.0 32.55 36.0 32.6 35.7 32.75 35.45 32.85 35.3 32.95 35.05 32.95 M25.75 30.2 L25.65 30.3 25.55 30.35 25.8 30.6 26.25 30.8 26.65 30.85 26.7 30.85 26.7 30.8 26.75 30.75 26.3 30.65 26.3 30.6 26.15 30.55 26.0 30.45 25.95 30.4 25.85 30.3 25.75 30.2 M25.7 28.9 L25.65 28.85 25.65 28.7 25.6 28.65 25.55 28.65 25.45 28.7 25.45 28.9 25.45 29.0 25.55 29.35 25.65 29.55 26.05 29.7 26.3 29.8 26.3 29.65 26.2 29.6 26.15 29.55 26.0 29.45 25.85 29.3 25.75 29.1 25.7 28.9 M35.25 36.75 L35.25 36.8 35.25 36.9 35.4 36.9 35.55 36.95 35.75 36.8 35.9 36.75 36.2 36.55 36.25 36.4 36.3 36.25 36.2 36.15 36.2 36.05 36.15 36.2 36.1 36.3 35.95 36.4 35.85 36.5 Q35.65 36.6 35.6 36.7 L35.25 36.75 M32.45 36.1 L32.45 36.15 32.5 36.15 32.85 36.25 33.2 36.25 33.55 36.1 33.65 36.0 33.8 35.95 33.8 35.85 33.7 35.85 33.55 35.85 33.35 35.95 33.3 36.0 32.65 36.0 32.45 35.9 32.4 35.95 32.25 35.95 32.3 36.05 32.35 36.1 32.4 36.15 32.45 36.1 M20.25 29.1 L20.2 29.0 20.25 29.05 20.25 29.1 M21.6 47.0 L22.05 46.65 23.45 45.4 23.7 45.25 24.05 44.95 24.4 44.55 24.7 44.3 25.05 44.05 25.55 43.65 26.15 43.15 26.25 43.05 26.7 42.6 26.85 42.5 26.9 42.4 27.55 41.75 27.9 41.4 28.15 41.1 28.15 41.05 28.35 40.9 28.5 40.7 28.7 40.7 28.75 40.75 28.75 40.8 28.8 40.95 28.85 41.05 29.1 41.2 29.2 41.25 29.35 41.3 29.5 41.4 29.8 41.45 30.0 41.45 30.15 41.35 30.4 41.3 30.55 41.2 30.5 41.4 30.35 41.55 30.35 41.6 30.25 41.65 30.15 41.65 30.25 42.0 30.15 42.25 29.95 42.35 30.0 42.6 30.0 42.75 29.95 43.1 29.9 43.4 29.7 43.7 29.6 43.8 29.5 44.0 29.35 44.0 29.35 44.2 29.25 44.5 29.0 44.75 28.75 44.85 28.45 45.0 28.35 45.2 28.35 45.4 28.35 45.6 28.25 45.75 28.05 45.95 Q27.9 46.05 27.8 46.1 L27.35 46.25 27.35 46.3 27.3 46.3 27.2 46.3 27.15 46.35 27.1 46.4 26.9 46.4 26.7 46.4 26.4 46.45 26.15 46.45 26.0 46.4 25.85 46.35 25.8 46.4 25.75 46.45 25.75 46.55 25.7 46.65 25.7 46.75 25.5 47.0 25.4 47.15 25.25 47.3 Q25.15 47.25 25.15 47.35 L24.6 47.45 24.45 47.35 24.3 47.35 24.15 47.4 23.6 47.55 23.0 47.55 22.95 47.55 22.8 47.55 22.7 47.55 22.5 47.5 22.4 47.45 22.35 47.4 22.25 47.45 22.15 47.35 22.1 47.35 22.0 47.3 21.9 47.25 21.6 47.0 M29.65 38.4 L29.55 38.35 29.15 38.45 28.75 38.4 28.7 38.4 28.4 38.2 28.15 38.0 28.1 38.0 28.1 38.1 28.05 38.1 28.1 38.2 28.2 38.35 28.25 38.4 28.4 38.5 28.65 38.6 28.95 38.7 29.25 38.65 29.35 38.6 29.55 38.55 29.65 38.4 M34.3 37.45 L34.3 37.5 Q34.1 37.5 34.0 37.7 L33.9 37.7 33.8 37.7 33.5 37.75 33.5 37.8 33.4 37.75 33.25 37.75 33.25 37.8 33.35 37.9 33.45 37.9 33.6 37.95 33.7 37.9 33.95 37.9 34.15 37.85 34.35 37.7 34.5 37.45 34.5 37.4 34.45 37.4 34.35 37.4 34.35 37.45 34.3 37.45 M25.85 45.2 L25.9 45.4 26.0 45.5 26.55 45.65 26.75 45.7 27.05 45.7 27.15 45.65 27.25 45.55 27.35 45.5 27.35 45.45 27.4 45.35 27.35 45.3 27.3 45.3 26.75 45.45 26.35 45.45 26.15 45.4 26.0 45.25 25.85 45.2 M27.1 44.75 L26.8 44.65 26.8 44.75 27.0 44.9 27.2 44.95 27.7 44.55 27.65 44.5 27.55 44.45 27.55 44.55 27.45 44.7 27.1 44.75 M22.75 46.65 L22.7 46.6 22.6 46.5 22.45 46.55 22.6 46.75 22.85 46.9 23.05 46.95 23.2 47.0 23.65 47.0 24.0 46.85 24.0 46.7 23.9 46.7 23.9 46.65 23.8 46.65 23.75 46.65 23.2 46.8 22.75 46.65 M23.7 46.4 L23.75 46.4 23.9 46.45 23.95 46.45 24.15 46.45 24.4 46.3 24.6 46.2 24.75 46.2 24.75 46.15 24.75 46.1 24.9 46.05 24.9 46.0 25.0 46.0 25.0 45.9 24.95 45.9 24.9 45.95 24.9 45.85 24.8 45.9 24.75 45.95 24.75 46.0 24.15 46.25 23.6 46.2 23.4 46.05 23.35 46.1 23.45 46.25 23.55 46.3 23.7 46.4 M28.95 42.7 L28.95 42.75 28.9 43.25 28.7 43.5 28.35 43.7 28.3 43.75 28.0 43.75 28.05 43.85 28.1 43.9 28.2 43.9 28.3 43.9 28.4 43.9 28.95 43.7 29.1 43.25 29.1 43.0 28.95 42.7 M34.7 38.5 L34.65 38.7 34.6 38.75 34.6 38.85 34.55 38.85 34.5 38.9 34.45 38.9 34.4 39.0 34.3 39.05 34.3 39.1 34.1 39.1 33.95 39.15 33.85 39.15 33.75 39.2 33.8 39.25 33.8 39.3 34.25 39.3 34.55 39.2 34.75 39.0 34.85 38.9 34.9 38.8 34.95 38.8 35.0 38.2 34.95 38.1 34.85 38.1 34.8 38.2 34.85 38.25 34.8 38.3 34.7 38.5 M33.7 38.65 L33.65 38.6 33.55 38.7 33.4 38.85 33.35 38.85 33.25 39.0 33.05 39.15 33.0 39.15 32.35 39.25 32.2 39.25 32.1 39.25 32.1 39.3 32.1 39.35 32.15 39.35 32.15 39.4 32.2 39.4 32.25 39.4 32.25 39.45 32.3 39.45 33.0 39.4 33.55 39.1 33.55 39.05 33.7 38.65" fill="#ffffff" fill-rule="evenodd" stroke="none"/>
    <path d="M32.8 10.15 L32.55 9.7 32.1 9.45 31.6 9.25 31.2 9.3 30.85 9.4 30.7 9.5 30.5 9.5 30.25 9.3 29.9 9.3 29.7 9.35 29.6 9.3 Q29.15 9.45 29.0 9.7 L28.9 9.7 28.85 9.85 28.75 9.8 28.65 9.8 28.5 9.75 28.3 9.75 28.2 9.8 28.0 9.85 28.05 9.95 28.0 10.05 27.65 10.0 27.2 10.05 26.75 10.2 26.6 10.4 26.45 10.6 26.3 10.8 26.4 10.9 26.3 11.05 26.15 11.1 26.1 11.2 26.05 11.25 26.05 11.4 26.05 11.5 26.1 12.0 26.2 12.05 26.3 12.1 26.15 12.15 26.05 12.2 25.8 12.5 25.75 12.8 25.7 13.1 25.7 13.35 Q25.9 13.7 26.25 13.75 L26.35 14.0 26.55 14.1 26.8 14.2 26.85 14.05 27.0 14.0 27.05 13.85 27.05 13.75 27.15 13.7 27.3 13.7 27.5 13.7 27.7 13.65 28.1 13.55 28.25 13.4 28.45 13.35 28.75 13.25 29.05 13.15 29.1 13.2 29.3 13.15 29.5 13.15 29.6 13.15 29.8 13.1 30.05 13.1 30.1 13.05 30.25 13.05 30.45 13.0 30.65 13.05 31.0 13.1 31.15 13.15 31.6 13.1 32.0 13.1 32.2 13.15 32.45 13.2 32.5 13.25 32.65 13.3 32.8 13.3 32.85 13.35 32.95 13.35 33.05 13.4 33.15 13.45 33.2 13.45 33.3 13.45 33.35 13.4 33.8 13.3 33.95 13.05 34.0 12.95 34.05 12.85 34.1 12.75 34.15 12.6 34.15 12.4 34.15 12.25 34.1 12.1 34.0 12.1 33.9 12.05 34.0 11.95 34.05 11.85 34.05 11.75 34.0 11.65 33.9 11.4 33.75 11.35 33.75 11.1 33.8 10.8 33.5 10.4 33.0 10.3 32.9 10.25 32.8 10.15 M25.15 21.6 L25.15 21.65 25.2 21.7 25.2 21.75 25.15 21.9 25.1 22.0 25.1 22.1 25.0 22.1 24.9 22.15 24.85 22.3 24.95 22.75 25.1 23.15 25.35 23.3 25.4 23.45 25.25 24.0 25.35 24.65 25.05 24.7 25.05 25.0 25.1 25.3 Q24.85 25.55 24.8 26.15 L24.8 26.35 24.95 26.55 25.1 26.7 25.15 26.8 25.25 26.9 25.1 27.25 24.95 27.6 24.8 28.25 24.75 28.5 Q24.65 29.0 25.15 29.5 L25.1 29.65 25.05 29.9 25.15 30.1 25.25 30.3 25.3 30.35 25.3 30.4 25.3 30.55 25.25 30.65 M25.95 37.15 L26.0 37.2 26.2 37.4 26.25 37.4 26.3 37.5 26.3 37.55 Q26.2 37.85 26.4 38.2 L26.7 38.55 26.7 38.6 26.85 38.7 26.95 38.85 27.6 38.95 27.75 38.9 27.9 38.9 27.9 39.1 27.9 39.25 27.9 39.4 27.9 39.5 27.95 39.55 27.95 39.65 27.95 39.75 28.05 40.05 28.2 40.2 28.4 40.4 28.45 40.4 28.6 40.45 28.75 40.45 28.85 40.45 29.1 41.05 29.75 41.2 29.95 41.1 30.1 41.05 30.25 40.95 30.4 41.0 30.45 41.0 30.65 41.0 30.85 41.05 31.0 41.05 31.1 41.05 31.15 41.0 31.2 41.0 31.4 40.8 31.75 40.9 32.3 40.9 32.75 40.65 32.8 40.55 32.95 40.45 33.05 40.3 33.05 40.2 33.3 40.2 33.45 40.3 33.5 40.3 33.6 40.35 33.7 40.4 33.75 40.35 33.75 40.4 34.55 40.5 34.7 40.45 34.85 40.4 34.9 40.35 35.0 40.35 35.15 40.25 35.4 40.1 35.5 39.9 35.55 39.65 35.6 39.45 Q35.55 39.35 35.65 39.3 L35.75 39.4 35.95 39.25 36.05 39.2 36.25 39.0 36.3 38.7 36.35 38.35 36.3 38.0 36.2 38.0 36.1 37.85 36.6 37.45 36.65 37.4 36.75 37.3 36.8 37.2 36.85 37.1 36.85 37.0 36.95 37.0 37.05 37.0 37.45 36.9 37.75 36.7 37.55 35.7 37.45 35.7 37.45 35.6 37.4 35.55 37.5 35.35 37.65 35.05 Q37.6 35.0 37.7 34.9 L37.65 34.7 37.5 34.6 37.45 34.45 37.35 34.4 37.3 34.35 37.35 34.3 37.35 34.15 37.4 34.05 37.4 33.85 37.4 33.75 37.4 33.65 37.3 33.05 37.5 32.95 37.65 32.7 37.75 32.45 37.75 32.15 37.75 32.0 37.65 31.9 37.6 31.75 37.6 31.65 37.6 31.5 37.7 31.35 37.65 31.05 37.6 30.95 37.6 30.75 37.6 30.7 37.6 30.55 37.6 30.45 37.6 30.2 37.5 30.05 37.5 30.0 37.45 29.85 37.3 29.65 37.3 29.5 37.5 29.3 37.6 28.95 37.55 28.75 37.55 28.5 37.25 28.05 37.25 27.6 37.1 27.45 37.15 27.25 37.25 26.8 37.35 26.3 37.35 26.1 37.3 25.85 37.25 25.65 37.15 25.4 37.15 25.35 37.1 25.35 37.05 25.3 37.05 25.1 37.05 24.8 36.95 24.6 36.8 24.45 36.9 24.0 36.85 23.8 36.8 23.6 36.65 23.05 36.6 22.95 36.55 22.85 36.25 22.2 35.95 21.75 36.0 21.25 36.0 21.2 M34.85 18.65 L34.85 18.7 34.8 18.75 M26.1 18.8 L26.05 18.8 26.0 18.85 26.0 18.9 25.95 18.95 M18.8 44.2 L18.7 43.95 18.55 43.65 18.55 43.4 18.55 43.25 18.6 43.15 18.45 42.85 18.35 42.55 18.6 41.95 18.75 41.9 18.8 41.85 18.9 41.75 19.0 41.65 19.15 41.5 Q19.05 41.35 19.1 41.0 L19.3 40.5 19.65 40.2 19.85 40.05 20.35 39.85 20.4 39.85 20.45 39.9 20.55 39.8 20.8 39.75 21.05 39.75 21.2 39.45 21.35 39.2 21.45 39.1 21.55 39.05 22.5 38.6 23.1 38.65 23.15 38.65 23.3 38.4 23.45 38.2 23.85 37.95 24.35 37.75 24.95 37.7 25.05 37.65 25.15 37.6 25.2 37.6 M21.6 47.0 L21.9 47.25 22.0 47.3 22.1 47.35 22.15 47.35 22.25 47.45 22.35 47.4 22.4 47.45 22.5 47.5 22.7 47.55 22.8 47.55 22.95 47.55 23.0 47.55 23.6 47.55 24.15 47.4 24.3 47.35 24.45 47.35 24.6 47.45 25.15 47.35 Q25.15 47.25 25.25 47.3 L25.4 47.15 25.5 47.0 25.7 46.75 25.7 46.65 25.75 46.55 25.75 46.45 25.8 46.4 25.85 46.35 26.0 46.4 26.15 46.45 26.4 46.45 26.7 46.4 26.9 46.4 27.1 46.4 27.15 46.35 27.2 46.3 27.3 46.3 27.35 46.3 27.35 46.25 27.8 46.1 Q27.9 46.05 28.05 45.95 L28.25 45.75 28.35 45.6 28.35 45.4 28.35 45.2 28.45 45.0 28.75 44.85 29.0 44.75 29.25 44.5 29.35 44.2 29.35 44.0 29.5 44.0 29.6 43.8 29.7 43.7 29.9 43.4 29.95 43.1 30.0 42.75 30.0 42.6 29.95 42.35 30.15 42.25 30.25 42.0 30.15 41.65 30.25 41.65 30.35 41.6 30.35 41.55 30.5 41.4 30.55 41.2 30.4 41.3 30.15 41.35 30.0 41.45 29.8 41.45 29.5 41.4 29.35 41.3 29.2 41.25 29.1 41.2 28.85 41.05 28.8 40.95 28.75 40.8 28.75 40.75 28.7 40.7 28.5 40.7" fill="none" stroke="#93c7b7" stroke-linecap="round" stroke-linejoin="round" stroke-width="0.5"/>
  </g>
</svg>
