<?xml version="1.0" encoding="UTF-8" standalone="no"?>
<svg xmlns:xlink="http://www.w3.org/1999/xlink" height="46.75px" width="44.85px" xmlns="http://www.w3.org/2000/svg">
  <g transform="matrix(1.0, 0.0, 0.0, 1.0, -7.7, -7.65)">
    <path d="M42.1 9.2 L21.35 27.1 20.15 26.1 40.9 8.15 42.1 9.2 M24.85 30.1 L43.9 10.8 45.35 12.05 27.25 32.2 24.85 30.1 M47.55 13.9 L49.2 15.35 32.5 36.75 30.45 34.95 47.55 13.9 M50.85 16.8 L52.05 17.8 37.05 40.6 35.8 39.6 50.85 16.8" fill="#ffffff" fill-rule="evenodd" stroke="none"/>
    <path d="M42.1 9.2 L43.9 10.8 24.85 30.1 21.35 27.1 24.85 30.1 27.25 32.2 30.45 34.95 27.25 32.2 45.35 12.05 47.55 13.9 30.45 34.95 32.5 36.75 35.8 39.6 37.05 40.6 52.05 17.8 52.3 18.0 37.5 41.0 37.45 41.0 37.3 41.2 Q34.75 44.05 30.9 44.3 26.9 44.6 23.9 42.0 L20.75 39.3 Q17.75 36.7 17.45 32.7 17.15 28.75 19.75 25.75 L19.75 25.7 40.5 7.85 40.9 8.15 20.15 26.1 19.75 25.75 20.15 26.1 21.35 27.1 42.1 9.2 M49.2 15.35 L50.85 16.8 35.8 39.6 32.5 36.75 49.2 15.35 M37.45 41.0 L37.05 40.6 37.45 41.0" fill="#90c7b7" fill-rule="evenodd" stroke="none"/>
    <path d="M42.1 9.2 L21.35 27.1 M24.85 30.1 L43.9 10.8 M37.05 40.6 L52.05 17.8 M35.8 39.6 L50.85 16.8 M40.9 8.15 L20.15 26.1 M30.45 34.95 L47.55 13.9 M49.2 15.35 L32.5 36.75 M45.35 12.05 L27.25 32.2" fill="none" stroke="#90c7b7" stroke-linecap="round" stroke-linejoin="round" stroke-width="1.0"/>
    <path d="M21.35 27.1 L24.85 30.1 27.25 32.2 30.45 34.95 32.5 36.75 35.8 39.6 37.05 40.6 37.45 41.0 M20.15 26.1 L19.75 25.75 M20.15 26.1 L21.35 27.1" fill="none" stroke="#ffffff" stroke-linecap="round" stroke-linejoin="round" stroke-width="1.0"/>
    <path d="M47.9 25.0 L48.7 23.4 50.0 21.6 51.1 19.9 52.0 18.6 52.3 18.0 M38.9 38.9 L40.0 37.4 41.1 35.25 42.15 33.4 43.3 32.1 44.4 30.35 45.4 28.4 46.5 26.9 47.7 25.3 M40.5 7.85 Q39.45 8.5 38.75 9.3 L37.6 10.7 Q37.2 11.25 36.25 11.75 L34.5 12.95 32.95 14.35 31.35 15.7 29.8 16.9 28.45 18.3 M28.15 18.5 L26.55 19.8 24.85 21.1 23.4 22.35 Q22.9 23.0 22.2 23.45 21.55 23.9 20.75 24.9 L19.6 26.55 18.25 28.05 M18.15 28.35 Q17.6 29.2 17.45 30.2 L17.25 32.35 17.5 34.45 Q17.75 35.45 18.4 36.3 L19.6 38.0 20.95 39.5 22.55 40.8 24.3 42.0 Q25.35 42.6 25.8 43.3 M26.1 43.5 L27.9 43.9 30.2 44.2 32.3 43.85 34.25 43.55 Q35.3 43.3 35.95 42.55 L37.55 40.85 38.7 39.2" fill="none" stroke="#90c7b7" stroke-linecap="round" stroke-linejoin="round" stroke-width="0.1"/>
    <path d="M25.8 34.05 Q26.85 34.45 27.45 35.45 L35.65 49.45 Q36.25 50.45 36.05 51.6 35.85 52.75 34.95 53.5 34.05 54.25 32.9 54.3 L16.65 54.4 Q15.5 54.4 14.6 53.65 13.7 52.9 13.5 51.75 13.25 50.6 13.85 49.55 L21.9 35.45 Q22.5 34.45 23.55 34.05 24.7 33.65 25.8 34.05 M23.85 34.8 Q23.0 35.1 22.55 35.85 L14.5 49.95 Q14.1 50.75 14.25 51.6 14.4 52.5 15.1 53.05 15.75 53.6 16.65 53.6 L32.9 53.5 Q33.8 53.5 34.45 52.9 35.15 52.35 35.3 51.5 35.45 50.6 35.0 49.8 L26.8 35.85 Q26.35 35.05 25.5 34.8 L25.5 34.75 23.85 34.8 M26.65 41.6 Q26.65 40.75 26.05 40.1 25.45 39.5 24.55 39.5 23.7 39.5 23.1 40.1 22.5 40.75 22.5 41.6 22.5 42.45 23.1 43.05 23.7 43.7 24.55 43.7 25.45 43.7 26.05 43.05 26.65 42.45 26.65 41.6 M27.55 41.6 Q27.55 42.85 26.7 43.7 25.8 44.55 24.55 44.55 23.35 44.55 22.45 43.7 21.6 42.8 21.6 41.6 21.6 40.35 22.45 39.5 23.35 38.6 24.55 38.6 25.8 38.6 26.7 39.5 27.55 40.35 27.55 41.6" fill="#ffffff" fill-rule="evenodd" stroke="none"/>
    <path d="M27.55 41.6 Q27.55 40.35 26.7 39.5 25.8 38.6 24.55 38.6 23.35 38.6 22.45 39.5 21.6 40.35 21.6 41.6 21.6 42.8 22.45 43.7 23.35 44.55 24.55 44.55 25.8 44.55 26.7 43.7 27.55 42.85 27.55 41.6 M26.65 41.6 Q26.65 42.45 26.05 43.05 25.45 43.7 24.55 43.7 23.7 43.7 23.1 43.05 22.5 42.45 22.5 41.6 22.5 40.75 23.1 40.1 23.7 39.5 24.55 39.5 25.45 39.5 26.05 40.1 26.65 40.75 26.65 41.6 M23.85 34.8 L25.5 34.75 25.5 34.8 Q26.35 35.05 26.8 35.85 L35.0 49.8 Q35.45 50.6 35.3 51.5 35.15 52.35 34.45 52.9 33.8 53.5 32.9 53.5 L16.65 53.6 Q15.75 53.6 15.1 53.05 14.4 52.5 14.25 51.6 14.1 50.75 14.5 49.95 L22.55 35.85 Q23.0 35.1 23.85 34.8" fill="#90c7b7" fill-rule="evenodd" stroke="none"/>
    <path d="M8.45 53.65 L8.35 53.9 8.1 54.05 7.85 53.95 7.7 53.7 7.7 53.3 Q7.7 52.1 8.3 51.25 8.95 50.35 9.9 50.35 L42.5 50.35 Q43.45 50.35 44.1 51.25 44.7 52.1 44.7 53.3 L44.7 53.7 44.55 53.95 44.25 54.05 44.0 53.9 43.9 53.65 43.9 53.6 43.95 53.3 Q43.95 52.35 43.45 51.7 43.05 51.1 42.5 51.1 L9.9 51.1 Q9.3 51.1 8.95 51.7 L8.9 51.7 Q8.45 52.35 8.45 53.3 L8.45 53.6 8.45 53.65" fill="#ffffff" fill-rule="evenodd" stroke="none"/>
    <path d="M8.45 53.65 L8.45 53.6 8.45 53.3 Q8.45 52.35 8.9 51.7 L8.95 51.7 Q9.3 51.1 9.9 51.1 L42.5 51.1 Q43.05 51.1 43.45 51.7 43.95 52.35 43.95 53.3 L43.9 53.6 43.9 53.65 8.45 53.65" fill="#90c7b7" fill-rule="evenodd" stroke="none"/>
  </g>
</svg>
