<?xml version="1.0" encoding="UTF-8" standalone="no"?>
<svg xmlns:xlink="http://www.w3.org/1999/xlink" height="41.65px" width="41.6px" xmlns="http://www.w3.org/2000/svg">
  <g transform="matrix(1.0, 0.0, 0.0, 1.0, -10.0, -9.3)">
    <path d="M11.5 22.95 L11.65 22.5 Q13.2 18.65 16.3 15.6 18.9 13.0 22.0 11.55 25.95 9.6 30.8 9.6 35.95 9.6 40.25 11.85 42.95 13.3 45.3 15.6 48.95 19.3 50.35 23.85 L46.6 27.0 46.45 27.1 46.7 27.25 Q47.15 31.65 46.25 36.05 L46.25 36.2 46.4 36.1 49.8 37.95 Q48.25 41.6 45.3 44.55 42.6 47.25 39.4 48.75 36.1 50.3 32.3 50.55 L30.8 50.6 29.25 50.55 Q25.6 50.3 22.55 48.95 19.1 47.45 16.3 44.55 13.2 41.55 11.7 37.8 L16.3 36.25 16.4 36.2 16.3 36.15 16.3 27.1 16.35 27.05 11.5 22.95 M26.55 14.4 L24.05 22.45 32.0 27.3 39.35 22.25 39.3 22.15 36.1 14.55 35.95 14.3 26.55 14.4 M32.0 37.1 L31.95 37.1 24.1 41.3 24.2 41.4 26.2 47.7 26.3 47.95 35.45 47.9 39.0 41.15 32.0 37.1" fill="#ffffff" fill-rule="evenodd" stroke="none"/>
    <path d="M50.35 23.85 Q51.3 26.75 51.3 30.1 51.3 34.3 49.8 37.95 L46.4 36.1 46.25 36.05 Q47.15 31.65 46.7 27.25 L46.45 27.1 46.6 27.0 50.35 23.85 M11.7 37.8 Q10.3 34.25 10.3 30.1 10.3 26.3 11.5 22.95 L16.35 27.05 16.3 27.1 16.3 36.15 16.3 36.25 11.7 37.8 M26.55 14.4 L35.95 14.3 36.1 14.55 39.3 22.15 39.35 22.25 32.0 27.3 24.05 22.45 26.55 14.4 M32.0 37.1 L39.0 41.15 35.45 47.9 26.3 47.95 26.2 47.7 24.2 41.4 24.1 41.3 31.95 37.1 32.0 37.1" fill="#90c7b7" fill-rule="evenodd" stroke="none"/>
    <path d="M46.6 27.0 L48.3 25.45 49.35 24.8 50.35 23.85 49.6 21.85 48.75 20.45 47.7 18.65 Q47.25 17.55 46.65 17.1 L45.45 15.7 Q44.85 14.75 43.7 14.15 L42.15 13.05 M41.35 12.55 L40.25 11.85 Q39.45 12.05 39.15 12.6 L37.95 13.7 36.1 14.55 37.05 16.6 37.8 18.15 38.65 20.1 39.25 21.6 39.3 22.15 40.95 23.15 42.5 24.15 44.15 25.5 45.6 26.8 46.5 28.15 Q46.85 28.9 46.8 30.05 L46.75 32.1 46.5 33.5 Q46.3 33.95 46.25 36.05 L46.3 36.05 46.55 36.1 46.5 36.15 Q47.6 36.5 47.65 36.85 47.75 37.25 49.8 37.95 L50.25 35.9 50.85 33.8 51.0 32.0 50.85 30.3 Q50.8 29.35 51.1 28.35 51.45 27.35 50.9 26.1 M39.3 22.15 Q38.95 22.65 38.3 22.75 L36.9 23.5 35.3 24.75 33.7 26.05 32.0 27.3 32.3 29.75 31.9 31.25 Q31.6 32.1 31.85 33.15 L32.05 35.35 32.0 37.1 32.15 37.5 32.6 37.75 Q33.2 37.95 34.0 38.5 L35.6 39.45 37.25 40.2 Q38.15 40.55 38.95 41.25 L40.1 40.4 41.4 39.55 43.15 38.55 Q44.2 38.0 44.85 37.2 45.55 36.45 46.25 36.2 L46.3 36.05 M46.25 36.2 L46.5 36.15 46.4 36.1 46.55 36.1 M38.95 41.25 L37.9 43.0 37.0 45.05 36.45 46.45 35.5 47.8 Q36.25 48.05 36.8 48.35 L39.4 48.75 Q39.9 48.15 40.85 47.7 L42.7 46.85 44.35 45.7 45.95 44.05 47.2 42.35 48.25 40.5 49.35 39.05 M50.7 25.15 L50.35 23.85 M40.25 11.85 Q39.0 11.6 38.25 11.15 L36.55 10.35 34.6 10.0 32.65 9.8 30.6 9.65 28.65 9.7 M27.65 9.8 L25.9 10.0 24.3 10.7 22.0 11.55 23.65 12.85 Q24.4 13.55 25.05 13.6 25.75 13.65 26.55 14.4 L28.25 14.15 Q29.4 13.95 30.4 14.15 L32.55 14.5 34.65 14.5 36.1 14.55 M26.55 14.4 Q25.8 15.35 25.65 16.05 L25.2 17.95 24.75 20.2 24.6 21.75 24.55 21.95 24.1 22.25 25.4 23.1 27.25 24.1 29.2 25.35 30.35 26.2 32.0 27.3 32.0 26.1 31.85 24.55 Q31.75 23.55 32.0 22.6 M11.65 22.5 L11.5 22.95 Q12.8 24.2 13.25 24.3 13.75 24.45 14.7 25.5 L16.0 26.75 Q17.35 26.75 18.0 25.8 18.65 24.9 19.4 24.6 L21.2 24.0 Q22.25 23.7 22.65 23.1 23.05 22.5 24.1 22.25 M38.85 21.8 Q38.85 21.6 39.3 22.15 M22.0 11.55 L20.2 12.75 18.7 13.75 17.35 15.05 15.5 16.6 Q14.55 17.25 14.05 18.25 13.6 19.25 12.85 19.9 12.15 20.6 12.1 21.5 M11.5 22.95 Q11.65 23.9 11.2 24.7 10.8 25.55 10.8 26.7 L10.55 29.15 Q10.3 30.4 10.35 30.9 L10.4 32.65 10.5 34.75 Q10.6 35.7 11.35 36.9 L11.7 37.8 13.35 36.85 Q14.05 36.5 14.7 36.4 L16.3 36.25 16.3 36.15 16.25 34.05 15.95 32.05 Q15.85 31.15 16.25 30.25 16.65 29.4 16.4 28.95 16.15 28.55 16.3 27.1 L16.0 26.75 15.65 27.0 M22.15 48.75 L22.55 48.95 Q24.05 48.3 24.85 48.35 25.7 48.4 26.2 47.7 L25.85 46.65 25.35 45.5 24.65 43.45 Q24.25 42.2 24.2 41.4 L22.35 40.45 20.75 39.5 19.2 38.1 18.1 37.25 Q17.7 37.1 16.4 36.2 L16.4 36.25 16.3 36.25 M16.4 36.25 L16.3 36.15 M11.7 37.8 L12.4 39.3 Q12.6 40.15 13.35 41.05 L14.8 42.75 16.15 44.3 17.65 45.7 19.4 47.05 21.1 48.2 M32.0 37.1 L30.25 38.25 28.3 39.0 Q27.2 39.4 26.6 40.05 L25.45 40.85 Q24.9 41.05 24.2 41.4 M35.5 47.8 L33.3 48.05 31.6 48.2 29.75 47.95 27.8 47.85 26.2 47.7 Q27.8 47.45 27.85 47.2 M38.0 41.85 Q38.45 41.8 38.95 41.25 M35.55 50.1 L37.1 49.6 39.4 48.75 M22.55 48.95 L24.4 49.65 26.55 50.4 28.4 50.55 30.25 50.55 32.4 50.6 34.55 50.3" fill="none" stroke="#90c7b7" stroke-linecap="round" stroke-linejoin="round" stroke-width="0.75"/>
  </g>
</svg>
