<?xml version="1.0" encoding="UTF-8" standalone="no"?>
<svg xmlns:xlink="http://www.w3.org/1999/xlink" height="345.45px" width="306.9px" xmlns="http://www.w3.org/2000/svg">
  <g transform="matrix(1.0, 0.0, 0.0, 1.0, 248.85, 287.4)">
    <path d="M41.85 2.3 L42.75 2.3 41.2 6.05 38.55 12.4 36.2 17.95 35.65 16.85 37.6 12.0 40.2 6.05 41.85 2.3 M54.4 6.05 L58.05 2.5 58.05 3.4 55.45 6.05 44.8 16.85 40.6 21.0 39.5 20.85 44.1 16.15 54.4 6.05 M-41.75 -65.0 L-41.75 -65.35 -27.5 -62.25 -41.75 -65.0 M-41.75 -99.75 L-41.75 -100.25 -23.65 -100.0 -41.75 -99.75 M-41.75 -134.6 L-41.75 -135.0 -27.5 -137.75 -41.75 -134.6 M-41.75 -171.45 L-41.75 -171.55 -38.4 -172.95 -41.75 -171.45 M-211.15 -278.05 L-211.05 -287.4 -210.9 -278.05 -211.15 -278.05 M-174.5 -278.05 L-173.3 -283.6 -174.35 -278.05 -174.5 -278.05 M-247.75 -278.05 L-248.85 -283.6 -247.6 -278.05 -247.75 -278.05 M48.7 22.35 L58.05 18.45 58.05 19.4 50.6 22.65 48.7 22.35 M58.05 30.2 L58.05 31.1 50.3 31.15 46.95 31.15 48.0 30.1 50.3 30.1 58.05 30.2 M42.2 35.85 L42.7 35.4 48.95 37.95 58.05 41.95 58.05 42.85 48.55 38.9 42.25 36.15 42.2 35.85 M9.25 22.25 L2.3 19.25 2.3 18.35 11.15 22.0 9.25 22.25 M2.3 2.3 L2.45 2.3 6.3 6.05 16.55 16.15 20.9 20.6 19.8 20.75 15.8 16.85 5.25 6.05 2.3 3.05 2.3 2.3 M23.2 22.55 L29.55 9.45 35.95 22.6 50.1 24.85 39.8 35.0 42.2 49.45 29.45 42.6 16.75 49.35 19.2 34.95 8.85 24.6 23.2 22.55 M20.4 6.05 L23.0 12.0 24.25 15.1 23.75 16.25 22.05 12.4 19.45 6.05 17.9 2.3 18.8 2.3 20.4 6.05 M30.8 2.3 L30.85 6.05 30.85 7.05 29.8 4.95 29.85 2.3 30.8 2.3 M44.1 45.15 L43.65 44.7 43.4 43.05 44.8 44.45 58.05 57.95 58.05 58.05 57.25 58.05 44.1 45.15 M10.3 31.15 L2.3 31.1 2.3 30.2 10.3 30.1 11.1 30.1 12.15 31.15 10.3 31.15 M16.55 37.05 Q14.5 37.9 12.1 38.9 L2.3 42.95 2.3 42.05 11.7 37.95 16.75 35.9 16.55 37.05 M14.85 46.8 L3.4 58.05 2.5 58.05 15.15 45.1 14.85 46.8 M30.9 29.65 L30.9 26.7 30.95 24.45 28.55 24.75 26.35 25.05 26.35 26.8 Q26.95 26.5 27.4 26.5 L27.85 26.6 Q28.25 26.9 28.25 27.6 L28.3 34.55 28.3 34.75 28.3 35.0 Q28.3 36.15 27.5 36.25 L26.4 36.3 26.4 37.15 26.35 37.8 Q30.6 37.75 32.6 37.85 L32.6 36.15 31.15 36.0 Q30.8 35.8 30.8 34.5 L30.9 29.65 M23.35 48.45 L23.0 49.3 19.2 58.05 18.25 58.05 21.9 49.2 Q22.65 48.85 23.35 48.45 M30.85 46.0 L30.85 50.65 30.8 58.05 29.9 58.05 29.8 50.65 29.8 45.45 30.85 46.0 M39.25 50.55 L42.4 58.05 41.4 58.05 37.8 49.8 39.25 50.55" fill="#90c7b7" fill-rule="evenodd" stroke="none"/>
    <path d="M30.9 29.65 L30.8 34.5 Q30.8 35.8 31.15 36.0 L32.6 36.15 32.6 37.85 Q30.6 37.75 26.35 37.8 L26.4 37.15 26.4 36.3 27.5 36.25 Q28.3 36.15 28.3 35.0 L28.3 34.75 28.3 34.55 28.25 27.6 Q28.25 26.9 27.85 26.6 L27.4 26.5 Q26.95 26.5 26.35 26.8 L26.35 25.05 28.55 24.75 30.95 24.45 30.9 26.7 30.9 29.65" fill="#ffffff" fill-rule="evenodd" stroke="none"/>
  </g>
</svg>
