<?xml version="1.0" encoding="UTF-8" standalone="no"?>
<svg xmlns:xlink="http://www.w3.org/1999/xlink" height="345.45px" width="306.9px" xmlns="http://www.w3.org/2000/svg">
  <g transform="matrix(1.0, 0.0, 0.0, 1.0, 248.85, 287.4)">
    <path d="M41.85 2.3 L42.75 2.3 41.2 6.05 38.55 12.4 36.2 17.95 35.65 16.85 37.6 12.0 40.2 6.05 41.85 2.3 M58.05 3.4 L55.45 6.05 44.8 16.85 40.6 21.0 39.5 20.85 44.1 16.15 54.4 6.05 58.05 2.5 58.05 3.4 M-41.75 -65.0 L-41.75 -65.35 -27.5 -62.25 -41.75 -65.0 M-41.75 -134.6 L-41.75 -135.0 -27.5 -137.75 -41.75 -134.6 M-41.75 -99.75 L-41.75 -100.25 -23.65 -100.0 -41.75 -99.75 M-41.75 -171.45 L-41.75 -171.55 -38.4 -172.95 -41.75 -171.45 M-211.05 -287.4 L-210.9 -278.05 -211.15 -278.05 -211.05 -287.4 M-173.3 -283.6 L-174.35 -278.05 -174.5 -278.05 -173.3 -283.6 M-248.85 -283.6 L-247.6 -278.05 -247.75 -278.05 -248.85 -283.6 M48.7 22.35 L58.05 18.45 58.05 19.4 50.6 22.65 48.7 22.35 M58.05 30.2 L58.05 31.1 50.3 31.15 46.95 31.15 48.0 30.1 50.3 30.1 58.05 30.2 M42.7 35.4 L48.95 37.95 58.05 41.95 58.05 42.85 48.55 38.9 42.25 36.15 42.2 35.85 42.7 35.4 M10.3 30.1 L11.1 30.1 12.15 31.15 10.3 31.15 2.3 31.1 2.3 30.2 10.3 30.1 M9.25 22.25 L2.3 19.25 2.3 18.35 11.15 22.0 9.25 22.25 M2.45 2.3 L6.3 6.05 16.55 16.15 20.9 20.6 19.8 20.75 15.8 16.85 5.25 6.05 2.3 3.05 2.3 2.3 2.45 2.3 M29.55 9.45 L35.95 22.6 50.1 24.85 39.8 35.0 42.2 49.45 29.45 42.6 16.75 49.35 19.2 34.95 8.85 24.6 23.2 22.55 29.55 9.45 M20.4 6.05 L23.0 12.0 24.25 15.1 23.75 16.25 22.05 12.4 19.45 6.05 17.9 2.3 18.8 2.3 20.4 6.05 M30.8 2.3 L30.85 6.05 30.85 7.05 29.8 4.95 29.85 2.3 30.8 2.3 M43.65 44.7 L43.4 43.05 44.8 44.45 58.05 57.95 58.05 58.05 57.25 58.05 44.1 45.15 43.65 44.7 M16.55 37.05 Q14.5 37.9 12.1 38.9 L2.3 42.95 2.3 42.05 11.7 37.95 16.75 35.9 16.55 37.05 M14.85 46.8 L3.4 58.05 2.5 58.05 15.15 45.1 14.85 46.8 M26.25 28.9 L27.9 27.05 27.95 25.25 25.75 25.25 20.55 25.3 20.4 27.8 21.05 27.85 21.95 27.95 Q22.0 27.2 22.25 27.0 22.5 26.75 23.05 26.7 L25.7 26.75 22.1 30.65 22.15 32.15 Q24.05 32.15 24.9 32.75 25.7 33.35 25.7 34.6 25.65 36.1 25.1 36.9 24.65 37.5 24.1 37.45 23.4 37.4 22.85 36.8 22.15 36.1 22.05 34.85 L20.2 34.8 Q20.5 37.6 22.45 38.55 23.2 38.95 24.25 38.95 L24.6 38.9 Q26.7 38.5 27.55 37.45 28.55 36.2 28.6 34.0 28.6 32.95 27.8 32.05 26.7 30.95 24.7 30.7 L26.25 28.9 M32.8 28.1 Q33.2 26.2 33.75 26.1 34.5 25.95 35.05 28.25 L35.5 32.15 35.1 35.4 Q34.7 37.2 34.05 37.25 33.55 37.3 33.1 35.95 32.6 34.6 32.45 32.2 L32.4 31.5 Q32.4 29.75 32.8 28.1 M37.6 28.05 Q36.95 26.4 35.75 25.5 35.0 24.95 33.9 24.95 L33.05 25.05 Q32.05 25.3 31.1 26.6 29.95 28.0 29.8 29.6 L29.7 31.75 Q29.7 37.2 32.85 38.5 L34.05 38.75 Q35.7 38.75 36.6 37.55 38.35 35.3 38.3 31.75 38.25 29.7 37.6 28.05 M23.0 49.3 L19.2 58.05 18.25 58.05 21.9 49.2 Q22.65 48.85 23.35 48.45 L23.0 49.3 M30.85 46.0 L30.85 50.65 30.8 58.05 29.9 58.05 29.8 50.65 29.8 45.45 30.85 46.0 M39.25 50.55 L42.4 58.05 41.4 58.05 37.8 49.8 39.25 50.55" fill="#90c7b7" fill-rule="evenodd" stroke="none"/>
    <path d="M37.6 28.05 Q38.25 29.7 38.3 31.75 38.35 35.3 36.6 37.55 35.7 38.75 34.05 38.75 L32.85 38.5 Q29.7 37.2 29.7 31.75 L29.8 29.6 Q29.95 28.0 31.1 26.6 32.05 25.3 33.05 25.05 L33.9 24.95 Q35.0 24.95 35.75 25.5 36.95 26.4 37.6 28.05 M32.8 28.1 Q32.4 29.75 32.4 31.5 L32.45 32.2 Q32.6 34.6 33.1 35.95 33.55 37.3 34.05 37.25 34.7 37.2 35.1 35.4 L35.5 32.15 35.05 28.25 Q34.5 25.95 33.75 26.1 33.2 26.2 32.8 28.1 M26.25 28.9 L24.7 30.7 Q26.7 30.95 27.8 32.05 28.6 32.95 28.6 34.0 28.55 36.2 27.55 37.45 26.7 38.5 24.6 38.9 L24.25 38.95 Q23.2 38.95 22.45 38.55 20.5 37.6 20.2 34.8 L22.05 34.85 Q22.15 36.1 22.85 36.8 23.4 37.4 24.1 37.45 24.65 37.5 25.1 36.9 25.65 36.1 25.7 34.6 25.7 33.35 24.9 32.75 24.05 32.15 22.15 32.15 L22.1 30.65 25.7 26.75 23.05 26.7 Q22.5 26.75 22.25 27.0 22.0 27.2 21.95 27.95 L21.05 27.85 20.4 27.8 20.55 25.3 25.75 25.25 27.95 25.25 27.9 27.05 26.25 28.9" fill="#ffffff" fill-rule="evenodd" stroke="none"/>
  </g>
</svg>
