<?xml version="1.0" encoding="UTF-8" standalone="no"?>
<svg xmlns:xlink="http://www.w3.org/1999/xlink" height="123.2px" width="214.15px" xmlns="http://www.w3.org/2000/svg">
  <g transform="matrix(1.0, 0.0, 0.0, 1.0, -8.25, -0.95)">
    <path d="M72.65 39.15 Q64.4 34.95 54.15 34.9 41.05 34.85 33.65 42.0 26.3 49.35 26.2 62.0 26.15 74.85 33.45 82.95 L33.4 82.95 Q40.5 90.7 50.0 90.8 56.4 90.8 62.85 87.45 L63.0 87.4 Q69.8 84.05 75.95 77.7 L93.1 57.2 Q80.25 43.2 72.6 39.1 L72.65 39.15 M206.65 18.55 Q222.55 35.6 222.4 63.4 222.3 93.75 203.0 110.6 L203.0 110.65 Q187.4 124.3 169.0 124.15 154.55 124.1 140.55 114.3 L140.5 114.25 Q128.5 106.2 114.6 87.7 97.2 107.9 86.25 114.05 L86.3 114.0 Q73.4 121.5 59.7 121.4 38.5 121.35 23.3 104.95 8.15 88.75 8.25 62.2 8.4 36.35 22.65 20.8 37.15 4.55 55.75 4.75 68.1 4.75 80.95 13.6 91.6 20.85 105.5 42.1 123.05 20.25 133.6 12.75 L133.55 12.8 Q149.75 0.85 167.7 0.95 190.5 1.05 206.65 18.55 M163.4 35.7 L163.45 35.7 Q149.2 45.15 126.55 73.05 134.95 82.15 144.65 86.95 155.55 92.35 168.4 92.4 185.1 92.45 195.35 83.45 205.05 74.7 205.1 61.0 205.15 47.35 197.65 39.05 190.2 31.1 179.6 31.05 170.6 31.0 163.4 35.7" fill="#ffffff" fill-rule="evenodd" stroke="none"/>
  </g>
</svg>
