<?xml version="1.0" encoding="UTF-8" standalone="no"?>
<svg xmlns:xlink="http://www.w3.org/1999/xlink" height="40.3px" width="24.35px" xmlns="http://www.w3.org/2000/svg">
  <g transform="matrix(1.0, 0.0, 0.0, 1.0, 0.4, 0.2)">
    <path d="M21.4 17.4 L22.8 20.7 Q23.5 22.8 23.5 24.05 23.5 25.35 22.65 26.75 21.6 28.35 19.95 29.05 L19.7 29.2 18.9 29.85 Q18.4 29.0 18.45 27.7 L18.45 25.8 Q18.65 24.15 19.15 22.3 20.1 18.7 21.4 17.4 M12.8 35.5 Q10.75 38.2 9.7 38.8 8.5 39.45 5.3 39.45 2.7 39.45 1.3 38.4 -0.1 37.35 0.0 35.4 0.1 33.4 2.65 29.7 3.9 29.7 7.3 31.35 11.35 33.35 12.8 35.5 M8.9 11.8 L7.4 8.85 16.4 5.45 16.7 5.35 16.75 5.35 17.75 8.8 17.7 8.9 17.55 9.05 17.5 9.05 17.35 9.0 8.9 11.8" fill="#90c7b7" fill-rule="evenodd" stroke="none"/>
    <path d="M18.9 29.85 L16.45 32.0 12.8 35.5 Q11.35 33.35 7.3 31.35 3.9 29.7 2.65 29.7 3.8 28.2 7.2 24.85 10.0 21.5 10.0 17.55 10.0 14.55 8.9 11.8 L17.35 9.0 17.5 9.05 17.55 9.05 Q19.25 13.65 21.4 17.4 20.1 18.7 19.15 22.3 18.65 24.15 18.45 25.8 L18.45 27.7 Q18.4 29.0 18.9 29.85 M7.4 8.85 Q4.75 4.65 4.7 3.7 L9.45 1.95 14.5 0.0 16.4 5.45 7.4 8.85" fill="#ffffff" fill-rule="evenodd" stroke="none"/>
    <path d="M20.7 16.05 L20.15 15.45 Q19.8 15.3 19.7 14.7 L19.4 13.7 19.2 12.9 18.9 12.0 18.6 11.05 18.25 10.1 17.55 9.05 17.4 9.1 17.35 9.0 17.45 9.0 17.5 8.9 17.5 8.85 Q17.1 8.25 17.1 7.65 L16.9 6.65 Q16.65 6.3 16.55 5.85 L16.25 4.9 15.9 3.7 15.6 2.6 15.0 1.7 14.55 0.95 14.2 0.45 13.5 0.3 12.4 0.65 11.35 1.15 10.4 1.6 9.45 2.0 8.45 2.35 7.45 2.85 6.3 3.3 5.4 3.55 5.0 3.7 5.1 4.35 5.65 5.7 6.15 6.8 6.4 7.65 Q6.45 8.2 7.0 8.6 7.6 9.05 7.85 9.75 L8.15 10.75 8.65 11.6 9.15 12.6 9.4 13.5 9.7 14.5 9.75 15.45 9.7 16.6 9.85 17.6 10.0 18.3 9.8 19.35 9.45 20.35 8.95 21.3 8.3 22.4 Q8.05 22.8 7.95 23.3 L7.55 24.25 6.9 25.05 6.35 25.9 5.7 26.45 Q5.35 26.45 5.05 26.85 L4.6 27.5 3.65 28.55 2.85 29.3 2.25 29.85 1.45 30.65 1.0 31.45 0.65 32.5 0.4 33.5 0.2 34.45 0.25 35.3 0.15 36.3 Q0.0 36.8 0.5 37.3 L1.2 38.1 Q1.35 38.35 2.05 38.6 L3.25 39.1 4.0 39.3 4.8 39.5 6.2 39.55 7.45 39.15 8.3 39.0 9.3 38.8 10.05 38.35 10.8 37.95 Q11.3 37.7 11.3 37.05 11.35 36.4 11.75 36.1 12.2 35.85 12.5 35.2 12.8 34.6 13.35 34.45 L14.25 34.15 15.2 33.55 15.95 32.75 16.45 32.15 17.2 31.35 17.8 30.5 18.45 29.6 Q18.85 29.05 19.4 28.9 L20.6 28.6 Q21.2 28.5 21.45 28.15 L22.3 27.5 Q22.85 27.2 22.9 26.75 L23.15 25.6 23.4 24.7 23.45 23.95 23.2 23.0 Q22.95 22.7 22.8 21.75 L22.6 20.7 22.25 20.0 21.85 19.05 21.8 18.0 Q21.85 17.45 21.4 16.95 L20.7 16.05 M17.5 8.9 L17.55 8.95 17.6 9.0 17.55 9.05 M17.6 9.0 L17.45 9.0 17.4 9.1" fill="none" stroke="#ffffff" stroke-linecap="round" stroke-linejoin="round" stroke-width="1.0"/>
  </g>
</svg>
