<?xml version="1.0" encoding="UTF-8" standalone="no"?>
<svg xmlns:xlink="http://www.w3.org/1999/xlink" height="42.5px" width="46.95px" xmlns="http://www.w3.org/2000/svg">
  <g transform="matrix(1.0, 0.0, 0.0, 1.0, -6.75, -9.55)">
    <path d="M52.65 10.25 L52.75 10.1 52.85 10.05 53.05 10.05 53.05 10.45 52.85 10.45 52.65 10.25 M47.3 15.7 L47.6 16.0 47.5 16.1 47.3 15.7 M41.1 43.35 L41.2 45.75 37.4 45.75 36.2 45.75 35.05 45.7 35.05 44.3 35.15 43.4 Q35.3 42.85 35.75 42.4 L37.45 40.2 38.2 39.35 38.95 38.35 39.2 37.6 Q39.2 37.2 38.85 37.0 L38.2 36.75 Q37.15 36.75 36.9 37.35 L36.8 38.4 36.05 38.4 35.35 38.35 Q35.4 37.2 35.75 36.7 36.4 35.7 38.35 35.75 39.7 35.8 40.4 36.45 41.15 37.1 41.15 38.25 41.15 38.95 40.8 39.4 L39.4 41.1 38.2 42.55 Q37.3 43.65 37.3 44.65 L38.15 44.65 39.5 44.5 Q39.8 44.3 39.8 43.25 L41.1 43.35 M33.2 35.85 L33.15 37.5 33.15 39.65 33.1 43.2 Q33.1 44.15 33.35 44.3 L34.4 44.4 34.4 45.65 29.85 45.6 29.85 45.15 29.9 44.5 30.7 44.45 Q31.25 44.4 31.25 43.6 L31.25 43.35 31.25 38.15 30.95 37.4 30.6 37.35 29.85 37.55 29.85 36.25 31.45 36.1 33.2 35.85" fill="#ffffff" fill-rule="evenodd" stroke="none"/>
    <path d="M52.85 10.45 L52.85 45.35 47.3 51.0 7.55 51.0 7.55 15.1 Q10.75 12.8 13.9 10.45 L52.45 10.45 52.65 10.25 52.85 10.45 M47.5 16.1 L47.6 16.0 47.3 15.7 47.3 16.2 47.5 16.1 M41.1 43.35 L39.8 43.25 Q39.8 44.3 39.5 44.5 L38.15 44.65 37.3 44.65 Q37.3 43.65 38.2 42.55 L39.4 41.1 40.8 39.4 Q41.15 38.95 41.15 38.25 41.15 37.1 40.4 36.45 39.7 35.8 38.35 35.75 36.4 35.7 35.75 36.7 35.4 37.2 35.35 38.35 L36.05 38.4 36.8 38.4 36.9 37.35 Q37.15 36.75 38.2 36.75 L38.85 37.0 Q39.2 37.2 39.2 37.6 L38.95 38.35 38.2 39.35 37.45 40.2 35.75 42.4 Q35.3 42.85 35.15 43.4 L35.05 44.3 35.05 45.7 36.2 45.75 37.4 45.75 41.2 45.75 41.1 43.35 M33.2 35.85 L31.45 36.1 29.85 36.25 29.85 37.55 30.6 37.35 30.95 37.4 31.25 38.15 31.25 43.35 31.25 43.6 Q31.25 44.4 30.7 44.45 L29.9 44.5 29.85 45.15 29.85 45.6 34.4 45.65 34.4 44.4 33.35 44.3 Q33.1 44.15 33.1 43.2 L33.15 39.65 33.15 37.5 33.2 35.85" fill="#90c7b7" fill-rule="evenodd" stroke="none"/>
    <path d="M50.65 10.7 L49.25 10.25 48.15 10.1 47.3 10.1 46.35 10.3 45.45 10.55 44.35 10.6 Q43.75 10.75 43.4 10.4 43.1 10.1 42.7 10.05 L41.45 10.2 40.25 10.4 39.3 10.45 38.15 10.55 37.35 10.75 36.25 10.7 35.3 10.5 34.4 10.2 Q33.65 10.05 33.1 10.2 32.6 10.4 32.4 10.55 32.2 10.7 31.85 10.4 L31.1 11.55 30.5 12.25 30.0 12.95 29.55 13.8 29.15 14.6 Q29.0 15.0 28.4 14.95 27.8 14.95 27.85 15.7 L29.2 15.75 29.95 15.75 30.75 15.95 31.95 16.05 32.95 15.95 Q33.15 15.8 33.9 15.6 L34.9 15.45 35.9 15.55 37.0 15.7 37.85 15.95 38.65 16.05 39.55 15.8 40.75 15.65 41.85 15.75 42.85 15.6 Q43.35 15.25 43.6 15.45 43.85 15.65 44.7 15.45 45.6 15.25 45.8 15.45 L46.4 15.7 Q46.85 15.7 47.3 16.2 47.45 15.6 47.75 15.35 L48.65 14.5 49.25 13.75 Q49.25 13.6 49.8 13.0 L50.7 12.35 51.35 11.8 51.75 11.1 52.45 10.45 51.65 10.5 Q51.4 10.95 50.65 10.7 M52.45 10.45 Q52.55 9.95 52.75 10.1 M52.85 10.45 L53.0 11.8 Q53.15 12.4 52.95 12.5 52.75 12.6 53.0 13.05 53.25 13.5 52.8 14.15 52.4 14.8 52.7 15.25 53.0 15.7 52.95 16.45 L52.7 17.55 Q52.45 17.9 52.7 18.55 L52.75 19.6 52.45 20.4 Q52.35 20.85 52.6 21.65 L52.8 22.7 52.8 23.3 52.65 24.5 Q52.5 25.3 52.7 25.5 L53.0 26.25 52.95 27.4 52.7 28.4 Q52.55 28.8 52.65 29.35 L52.65 30.6 Q52.6 31.3 52.95 31.6 53.35 31.9 53.05 32.45 L52.55 33.45 Q52.35 33.95 52.65 34.4 53.0 34.85 52.9 35.4 L53.0 36.45 Q53.2 36.95 52.85 37.4 52.55 37.85 52.85 38.4 53.15 39.0 52.9 39.55 L52.7 40.5 52.85 41.25 52.95 42.25 52.75 43.5 Q52.6 44.1 52.7 44.7 L52.6 45.8 52.15 46.2 51.35 46.6 Q50.85 47.0 50.45 47.35 L49.8 48.05 49.1 48.65 Q48.65 48.95 48.55 49.55 L48.35 50.25 47.3 51.0 46.75 51.2 Q46.45 51.35 46.65 51.55 M47.3 51.0 Q47.8 50.25 47.55 49.8 L47.3 49.05 47.3 48.0 47.25 47.15 Q47.15 46.95 47.2 46.45 L47.35 45.15 Q47.45 44.35 47.15 43.8 46.85 43.3 47.3 42.8 47.75 42.35 47.5 41.7 L47.3 40.85 47.3 40.35 47.05 39.25 Q46.8 38.5 47.05 38.0 L47.45 36.9 47.6 35.85 47.45 34.9 47.25 33.95 47.3 32.95 47.2 32.1 47.0 31.1 Q46.95 30.5 47.2 30.0 47.45 29.5 47.15 29.0 46.9 28.5 47.1 28.05 L47.3 27.05 47.25 25.9 47.5 24.9 Q47.75 24.45 47.4 24.1 47.05 23.75 47.15 23.15 L47.55 21.8 Q47.8 21.1 47.3 20.75 46.85 20.45 47.15 20.2 47.45 19.95 47.35 19.2 L47.35 18.0 47.25 17.05 Q47.1 16.6 47.3 16.2 M7.55 15.1 L8.45 14.45 8.9 14.05 9.6 13.4 Q9.95 13.0 10.75 12.65 L11.85 12.05 12.25 11.45 Q12.4 11.1 13.25 10.9 L14.45 10.5 14.9 10.4 15.75 10.45 17.0 10.4 18.0 10.4 19.2 10.45 20.2 10.45 20.95 10.45 22.2 10.45 23.2 10.45 24.0 10.25 24.85 10.1 25.9 10.35 27.1 10.45 27.95 10.45 28.75 10.45 29.8 10.2 Q30.5 10.05 30.8 10.2 L31.85 10.4 M27.85 15.7 L26.9 15.85 Q26.5 16.05 26.1 15.85 L25.15 15.7 23.95 15.75 22.95 15.7 21.95 15.65 20.8 15.75 19.75 15.7 18.8 15.65 17.9 15.75 Q17.45 15.85 17.15 15.55 L16.1 15.3 14.85 15.5 13.8 15.7 12.8 15.75 11.85 15.65 11.0 15.6 10.15 15.65 8.8 15.55 Q8.05 15.5 7.95 15.75 L7.7 16.55 7.5 17.75 7.55 18.6 7.45 19.35 Q7.3 19.85 7.45 20.45 L7.45 21.45 Q7.35 21.85 7.65 22.3 8.0 22.8 7.75 23.35 L7.6 24.3 7.75 25.1 7.65 26.15 7.45 27.35 Q7.4 27.9 7.6 28.3 7.8 28.75 7.65 29.4 L7.6 30.45 7.45 31.6 7.3 32.6 7.25 33.4 7.35 34.45 7.6 35.5 7.6 36.45 7.5 37.4 7.55 38.4 7.7 39.35 7.75 40.35 7.75 41.45 7.6 42.5 Q7.45 43.05 7.6 43.35 L7.7 44.3 7.6 45.6 Q7.6 46.35 7.75 46.8 7.9 47.3 7.65 47.75 L7.35 48.4 7.45 49.25 7.6 50.15 8.05 50.8 Q8.45 51.2 8.9 51.0 L9.7 50.9 10.65 51.15 11.95 51.35 13.1 51.35 13.95 51.15 15.0 50.85 16.05 50.75 16.95 51.1 17.9 51.2 19.1 51.15 Q19.8 51.25 20.1 50.95 20.45 50.65 20.95 50.8 L21.95 51.05 22.95 51.05 23.95 50.75 24.95 50.8 26.15 51.0 27.2 51.1 27.95 51.0 28.75 50.85 29.85 50.9 30.95 50.95 32.1 51.0 33.15 51.1 34.0 51.05 35.05 51.1 36.0 51.1 36.95 51.0 37.9 50.75 39.0 50.85 40.25 51.1 41.35 51.0 42.25 50.95 43.2 51.05 44.3 51.05 45.25 51.0 46.1 51.05 46.6 51.15 46.75 51.2" fill="none" stroke="#ffffff" stroke-linecap="round" stroke-linejoin="round" stroke-width="1.0"/>
  </g>
</svg>
