<?xml version="1.0" encoding="UTF-8" standalone="no"?>
<svg xmlns:xlink="http://www.w3.org/1999/xlink" height="42.95px" width="46.85px" xmlns="http://www.w3.org/2000/svg">
  <g transform="matrix(1.0, 0.0, 0.0, 1.0, -6.85, -9.1)">
    <path d="M52.85 10.45 L52.85 45.35 47.3 51.0 7.55 51.0 7.55 15.7 47.3 15.7 47.3 16.2 47.5 16.1 47.6 16.0 52.45 10.45 52.65 10.25 52.85 10.45 M41.05 44.85 Q42.3 43.2 42.3 40.6 42.25 39.1 41.75 37.9 41.3 36.7 40.4 36.05 39.85 35.6 39.05 35.6 L38.45 35.7 Q37.7 35.9 37.0 36.8 36.2 37.85 36.05 39.05 L36.0 40.6 Q36.0 44.6 38.3 45.55 L39.15 45.7 Q40.4 45.7 41.05 44.85 M33.0 37.1 L33.25 37.35 33.3 37.8 34.5 37.75 34.55 35.95 28.95 36.0 29.0 38.45 29.15 41.0 31.1 40.75 31.95 40.85 Q32.65 40.9 32.95 41.75 L33.1 42.8 Q33.05 44.4 31.85 44.6 30.4 44.4 30.35 42.9 L29.65 42.9 28.85 42.85 Q28.8 44.0 29.45 44.75 30.45 45.55 31.65 45.6 33.45 45.65 34.4 44.6 L35.0 43.55 35.3 42.1 Q35.3 41.35 34.95 40.75 34.05 39.25 32.2 39.25 L30.75 39.4 30.75 37.05 31.75 37.0 32.4 36.95 33.0 37.1 M38.0 40.9 L38.0 40.4 Q38.0 39.15 38.25 37.95 38.55 36.55 38.95 36.45 39.5 36.35 39.9 38.05 L40.25 40.9 39.95 43.25 Q39.65 44.6 39.15 44.65 38.8 44.65 38.45 43.65 38.15 42.65 38.0 40.9" fill="#90c7b7" fill-rule="evenodd" stroke="none"/>
    <path d="M52.65 10.25 L52.75 10.1 52.85 10.05 53.05 10.05 53.05 10.45 52.85 10.45 52.65 10.25 M7.55 15.7 L7.55 15.1 Q10.75 12.8 13.9 10.45 L15.3 9.9 42.55 10.35 43.5 10.4 52.45 10.45 47.6 16.0 47.5 16.1 47.3 15.7 7.55 15.7 M41.05 44.85 Q40.4 45.7 39.15 45.7 L38.3 45.55 Q36.0 44.6 36.0 40.6 L36.05 39.05 Q36.2 37.85 37.0 36.8 37.7 35.9 38.45 35.7 L39.05 35.6 Q39.85 35.6 40.4 36.05 41.3 36.7 41.75 37.9 42.25 39.1 42.3 40.6 42.3 43.2 41.05 44.85 M33.0 37.1 L32.4 36.95 31.75 37.0 30.75 37.05 30.75 39.4 32.2 39.25 Q34.05 39.25 34.95 40.75 35.3 41.35 35.3 42.1 L35.0 43.55 34.4 44.6 Q33.45 45.65 31.65 45.6 30.45 45.55 29.45 44.75 28.8 44.0 28.85 42.85 L29.65 42.9 30.35 42.9 Q30.4 44.4 31.85 44.6 33.05 44.4 33.1 42.8 L32.95 41.75 Q32.65 40.9 31.95 40.85 L31.1 40.75 29.15 41.0 29.0 38.45 28.95 36.0 34.55 35.95 34.5 37.75 33.3 37.8 33.25 37.35 33.0 37.1 M38.0 40.9 Q38.15 42.65 38.45 43.65 38.8 44.65 39.15 44.65 39.65 44.6 39.95 43.25 L40.25 40.9 39.9 38.05 Q39.5 36.35 38.95 36.45 38.55 36.55 38.25 37.95 38.0 39.15 38.0 40.4 L38.0 40.9" fill="#ffffff" fill-rule="evenodd" stroke="none"/>
    <path d="M46.4 10.4 L45.4 10.25 44.2 10.3 43.35 10.35 42.75 10.55 41.65 10.65 40.5 10.5 39.5 10.15 Q38.95 9.9 38.35 10.35 37.8 10.8 37.4 10.55 L36.5 10.3 35.45 10.25 34.6 10.15 33.65 10.2 32.45 10.1 31.25 10.25 30.05 10.65 29.35 10.25 Q29.1 9.85 28.5 10.0 L27.2 10.2 26.4 10.3 25.75 10.35 24.45 10.35 23.1 10.3 22.35 10.2 21.6 10.2 20.45 9.95 19.65 9.9 18.7 10.05 17.55 10.0 16.5 9.75 15.75 9.6 Q15.5 9.65 15.3 9.9 M41.5 14.0 Q40.85 13.55 40.5 13.55 L40.0 13.5 M37.0 13.5 Q36.7 13.05 36.75 12.65 36.8 12.3 35.95 12.05 L34.8 11.9 34.0 12.15 Q33.6 12.35 33.3 12.15 33.0 12.0 33.1 12.65 L33.1 13.6 33.0 14.0 M30.5 13.5 Q30.75 13.05 30.35 12.7 29.95 12.35 29.9 12.0 29.9 11.7 29.0 12.0 M26.5 15.0 L26.3 13.95 25.55 13.3 Q25.05 13.0 25.05 12.65 25.1 12.3 24.0 12.0 M19.6 14.0 L20.45 13.85 21.5 14.0 22.5 14.4 23.25 14.9 24.0 15.0" fill="none" stroke="#90c7b7" stroke-linecap="round" stroke-linejoin="round" stroke-width="1.0"/>
    <path d="M52.45 10.45 L51.75 11.1 51.35 11.8 50.7 12.35 49.8 13.0 Q49.25 13.6 49.25 13.75 L48.65 14.5 47.75 15.35 Q47.45 15.6 47.3 16.2 47.1 16.6 47.25 17.05 L47.35 18.0 47.35 19.2 Q47.45 19.95 47.15 20.2 46.85 20.45 47.3 20.75 47.8 21.1 47.55 21.8 L47.15 23.15 Q47.05 23.75 47.4 24.1 47.75 24.45 47.5 24.9 L47.25 25.9 47.3 27.05 47.1 28.05 Q46.9 28.5 47.15 29.0 47.45 29.5 47.2 30.0 46.95 30.5 47.0 31.1 L47.2 32.1 47.3 32.95 47.25 33.95 47.45 34.9 47.6 35.85 47.45 36.9 47.05 38.0 Q46.8 38.5 47.05 39.25 L47.3 40.35 47.3 40.85 47.5 41.7 Q47.75 42.35 47.3 42.8 46.85 43.3 47.15 43.8 47.45 44.35 47.35 45.15 L47.2 46.45 Q47.15 46.95 47.25 47.15 L47.3 48.0 47.3 49.05 47.55 49.8 Q47.8 50.25 47.3 51.0 L48.25 50.1 48.7 49.65 49.4 48.9 50.05 48.35 50.7 47.95 51.55 46.95 52.0 45.9 Q52.05 45.5 52.65 45.1 53.3 44.7 53.05 44.05 L52.85 43.2 52.85 42.7 52.6 41.6 Q52.35 40.85 52.6 40.35 L53.0 39.25 53.15 38.2 53.0 37.25 52.8 36.3 52.85 35.3 52.75 34.45 52.55 33.45 Q52.5 32.85 52.75 32.35 53.0 31.85 52.7 31.35 52.45 30.85 52.65 30.4 L52.85 29.4 52.8 28.25 53.05 27.25 Q53.3 26.8 52.95 26.45 52.6 26.1 52.7 25.5 L53.1 24.15 Q53.35 23.45 52.85 23.1 52.4 22.8 52.7 22.55 53.0 22.3 52.9 21.55 L52.9 20.35 52.8 19.15 52.65 18.15 52.65 17.25 Q52.6 16.7 52.8 16.3 L53.15 15.6 53.0 14.65 Q52.75 14.05 53.0 13.45 53.3 12.85 52.85 12.35 52.4 11.85 52.65 11.6 L52.85 10.45 M15.3 9.9 L14.2 10.5 13.35 10.85 12.9 11.25 11.95 11.85 Q11.25 12.15 11.05 12.5 L10.35 13.1 9.5 13.6 8.85 14.15 8.4 14.7 7.55 15.1 M47.3 16.2 Q46.85 15.7 46.4 15.7 L45.8 15.45 Q45.6 15.25 44.7 15.45 43.85 15.65 43.6 15.45 43.35 15.25 42.85 15.6 L41.85 15.75 40.75 15.65 39.55 15.8 38.65 16.05 37.85 15.95 37.0 15.7 35.9 15.55 34.9 15.45 33.9 15.6 Q33.15 15.8 32.95 15.95 L31.95 16.05 30.75 15.95 29.95 15.75 28.95 15.75 28.1 15.7 27.0 15.55 25.9 15.85 24.95 15.9 23.9 15.5 Q23.5 15.35 22.9 15.5 L21.8 15.9 Q21.35 16.1 20.95 15.9 L20.15 15.65 19.1 15.65 17.75 15.9 16.95 15.85 Q16.75 15.55 16.25 15.4 L15.0 15.45 13.8 15.85 12.8 15.9 11.75 15.7 10.8 15.65 9.9 15.7 8.9 15.75 8.15 15.85 7.9 16.5 7.65 17.35 Q7.5 17.8 7.5 18.35 L7.55 19.4 7.6 20.3 7.55 21.2 7.45 22.25 7.5 23.35 7.55 24.4 7.5 25.5 7.45 26.55 7.5 27.45 7.4 28.45 7.4 29.45 7.5 30.3 7.65 31.3 7.85 32.35 7.75 33.35 7.55 34.45 7.75 35.65 Q7.95 36.4 7.75 36.65 7.55 36.9 7.7 37.4 L7.8 38.4 7.8 39.5 7.6 40.3 Q7.35 40.5 7.45 41.25 L7.45 42.45 Q7.35 42.9 7.65 43.6 L7.9 44.7 7.65 45.5 7.4 46.4 7.4 47.2 7.45 48.2 Q7.4 48.9 7.7 49.4 8.0 49.9 7.7 50.25 7.45 50.6 7.9 51.05 8.4 51.5 9.0 51.05 9.6 50.65 9.85 50.8 L10.85 50.95 12.0 51.0 13.05 50.8 Q13.65 50.6 14.1 50.8 L15.1 51.25 16.05 51.2 17.0 50.8 18.0 50.55 19.15 50.65 20.1 50.85 21.1 50.85 22.15 50.9 22.95 50.85 Q23.45 50.7 23.9 50.85 L24.95 51.1 26.05 51.15 27.2 51.0 28.15 50.8 28.95 50.85 30.05 51.0 31.05 50.8 Q31.45 50.6 31.95 50.8 L33.1 51.0 34.15 51.0 35.1 50.95 36.05 50.95 37.1 51.0 38.1 51.0 39.2 50.95 40.2 50.95 40.95 51.1 42.05 51.05 42.8 50.85 43.8 50.85 45.1 50.9 46.05 51.05 Q46.5 51.15 46.75 50.85 47.05 50.6 47.3 51.0 46.3 51.25 46.65 51.55" fill="none" stroke="#ffffff" stroke-linecap="round" stroke-linejoin="round" stroke-width="1.0"/>
  </g>
</svg>
