<?xml version="1.0" encoding="UTF-8" standalone="no"?>
<svg xmlns:xlink="http://www.w3.org/1999/xlink" height="42.7px" width="47.0px" xmlns="http://www.w3.org/2000/svg">
  <g transform="matrix(1.0, 0.0, 0.0, 1.0, -6.75, -13.4)">
    <path d="M52.85 14.45 L52.85 49.35 47.3 55.0 7.55 55.0 7.55 19.95 14.2 19.95 24.7 20.45 37.4 21.0 41.3 21.15 Q44.55 21.25 46.5 20.35 L47.3 19.95 47.3 20.2 47.5 20.1 48.25 19.3 51.1 16.6 52.6 15.0 52.05 14.95 52.45 14.45 52.65 14.25 52.85 14.45 M41.15 39.95 L35.55 40.0 35.6 42.45 35.75 45.0 37.7 44.75 38.55 44.85 Q39.25 44.9 39.55 45.75 L39.7 46.8 Q39.65 48.4 38.45 48.6 37.0 48.4 36.95 46.9 L36.25 46.9 35.45 46.85 Q35.4 48.0 36.05 48.75 37.05 49.55 38.25 49.6 40.05 49.65 41.0 48.6 L41.6 47.55 41.9 46.1 Q41.9 45.35 41.55 44.75 40.65 43.25 38.8 43.25 L37.35 43.4 37.35 41.05 38.35 41.0 39.0 40.95 39.6 41.1 39.85 41.35 39.9 41.8 41.1 41.75 41.15 39.95 M29.3 39.9 L29.3 42.55 30.55 42.55 Q30.55 41.6 30.8 41.3 L31.75 41.05 32.3 41.05 33.05 41.05 31.95 43.25 Q31.45 44.4 31.2 45.65 30.9 47.1 30.75 49.5 L32.85 49.6 Q32.95 46.35 33.6 44.1 34.2 42.1 35.05 41.2 L35.1 40.5 35.1 39.95 32.5 39.9 29.3 39.9" fill="#90c7b7" fill-rule="evenodd" stroke="none"/>
    <path d="M52.65 14.25 L52.75 14.1 52.85 14.05 53.05 14.05 53.05 14.45 52.85 14.45 52.65 14.25 M41.15 39.95 L41.1 41.75 39.9 41.8 39.85 41.35 39.6 41.1 39.0 40.95 38.35 41.0 37.35 41.05 37.35 43.4 38.8 43.25 Q40.65 43.25 41.55 44.75 41.9 45.35 41.9 46.1 L41.6 47.55 41.0 48.6 Q40.05 49.65 38.25 49.6 37.05 49.55 36.05 48.75 35.4 48.0 35.45 46.85 L36.25 46.9 36.95 46.9 Q37.0 48.4 38.45 48.6 39.65 48.4 39.7 46.8 L39.55 45.75 Q39.25 44.9 38.55 44.85 L37.7 44.75 35.75 45.0 35.6 42.45 35.55 40.0 41.15 39.95 M29.3 39.9 L32.5 39.9 35.1 39.95 35.1 40.5 35.05 41.2 Q34.2 42.1 33.6 44.1 32.95 46.35 32.85 49.6 L30.75 49.5 Q30.9 47.1 31.2 45.65 31.45 44.4 31.95 43.25 L33.05 41.05 32.3 41.05 31.75 41.05 30.8 41.3 Q30.55 41.6 30.55 42.55 L29.3 42.55 29.3 39.9" fill="#ffffff" fill-rule="evenodd" stroke="none"/>
    <path d="M52.85 14.05 Q52.6 13.9 52.8 13.9" fill="none" stroke="#90c7b7" stroke-linecap="round" stroke-linejoin="round" stroke-width="1.0"/>
    <path d="M48.25 19.3 L47.9 19.65 47.45 20.15 47.3 20.2 Q47.35 21.0 47.5 21.0 47.7 21.0 47.7 21.8 47.75 22.6 47.4 23.3 47.1 24.0 47.15 24.45 L47.35 25.05 47.35 26.0 47.1 27.0 47.3 28.0 Q47.6 28.75 47.35 29.3 47.15 29.9 47.25 30.2 L47.55 30.75 47.4 31.95 47.2 33.05 47.15 33.85 Q47.0 34.5 47.15 35.0 L47.3 35.85 47.35 36.95 47.4 37.9 47.5 38.8 47.6 39.95 47.55 40.85 47.35 41.95 Q47.1 42.65 47.2 43.15 L47.25 44.1 47.2 45.0 47.4 45.9 Q47.6 46.35 47.4 46.8 47.2 47.3 47.35 47.95 47.55 48.6 47.35 49.0 47.15 49.45 47.45 49.95 47.75 50.5 47.35 50.9 46.95 51.35 47.0 51.95 L47.25 53.05 47.3 54.0 47.3 55.0 48.0 54.3 48.65 53.65 49.1 52.85 50.15 52.1 50.95 51.45 Q51.0 51.1 51.55 50.8 52.1 50.55 52.25 50.0 L52.75 49.1 Q53.15 48.7 52.95 48.25 L52.75 47.35 52.8 46.45 52.75 45.5 Q52.65 45.0 52.9 44.3 L53.1 43.2 53.15 42.3 53.05 41.15 52.95 40.25 52.9 39.3 52.85 38.2 52.7 37.35 Q52.55 36.85 52.7 36.2 L52.75 35.4 52.95 34.3 53.1 33.1 52.8 32.55 Q52.7 32.25 52.9 31.65 53.15 31.1 52.85 30.35 L52.65 29.35 52.9 28.35 52.9 27.4 52.7 26.8 Q52.65 26.35 52.95 25.65 53.3 24.95 53.25 24.15 53.25 23.35 53.05 23.1 L52.85 22.25 52.85 21.2 52.85 20.25 52.8 19.25 53.1 18.25 Q53.35 17.8 52.9 17.5 52.5 17.2 52.7 16.35 L52.75 15.4 Q52.6 15.3 52.7 14.35 L52.65 14.25 M52.45 14.45 Q52.25 14.3 52.05 14.95 M52.75 14.1 L52.7 14.35 M7.6 19.2 Q8.4 19.0 8.5 18.6 L8.9 17.95 Q9.2 17.7 9.55 17.6 L10.1 17.25 M7.55 19.95 Q7.75 20.1 7.55 20.65 7.35 21.2 7.3 22.05 L7.25 23.2 7.4 23.75 7.5 24.8 7.6 25.8 7.7 26.55 7.5 27.8 7.5 28.8 7.6 29.65 7.45 30.8 Q7.25 31.45 7.35 31.95 7.5 32.45 7.3 32.95 7.15 33.45 7.4 34.2 7.7 34.95 7.6 35.3 7.55 35.7 7.65 35.9 L7.65 36.85 7.55 38.05 7.65 38.9 7.65 39.85 7.65 40.95 7.6 41.95 7.4 43.0 Q7.4 43.55 7.55 43.85 L7.6 44.8 7.4 45.8 7.45 46.85 7.65 47.85 7.5 48.75 Q7.3 49.25 7.35 49.9 L7.65 51.0 7.95 51.95 Q8.0 52.5 7.65 53.1 7.3 53.7 7.45 54.25 7.65 54.8 7.95 54.9 L8.6 55.15 9.45 55.05 10.55 54.95 11.35 55.15 12.1 55.05 13.25 54.95 14.45 55.05 15.25 55.15 16.05 55.05 17.4 55.0 18.65 55.25 19.7 55.1 20.6 54.9 21.5 55.05 22.35 54.95 Q22.6 54.75 23.05 55.1 L24.05 55.25 25.35 54.95 26.5 54.85 27.4 55.0 28.4 55.1 29.6 55.0 30.75 54.95 31.75 54.95 32.6 55.0 33.6 54.95 34.55 54.85 35.25 54.9 36.15 54.95 37.35 54.95 38.45 55.0 39.45 55.0 40.55 54.75 41.5 54.85 Q42.0 55.25 42.55 55.25 L43.55 55.15 44.65 55.0 45.65 54.9 46.3 54.9 47.3 55.0 46.65 55.55" fill="none" stroke="#ffffff" stroke-linecap="round" stroke-linejoin="round" stroke-width="1.0"/>
  </g>
</svg>
