<?xml version="1.0" encoding="UTF-8" standalone="no"?>
<svg xmlns:xlink="http://www.w3.org/1999/xlink" height="17.3px" width="74.15px" xmlns="http://www.w3.org/2000/svg">
  <g transform="matrix(1.0, 0.0, 0.0, 1.0, 4.75, -5.0)">
    <path d="M69.05 14.9 L60.55 21.95 46.0 20.45 52.55 13.9 69.05 14.9" fill="#90c7b7" fill-rule="evenodd" stroke="none"/>
    <path d="M66.7 14.7 L65.75 14.55 64.7 14.5 63.8 14.55 Q63.65 14.65 63.1 14.35 L61.8 14.4 Q61.1 14.8 60.75 14.7 L59.95 14.55 58.95 14.45 57.7 14.45 Q57.0 14.5 56.85 14.2 L56.15 14.15 54.8 14.25 53.65 14.2 52.95 14.1 52.55 13.9 51.85 14.75 51.15 15.55 50.3 16.1 49.65 16.7 49.0 17.4 48.3 18.1 47.7 18.65 46.95 19.3 46.5 20.2 Q46.35 20.65 46.6 20.6 L47.5 20.6 48.65 20.85 49.65 20.95 Q50.15 20.75 50.55 20.95 L51.55 21.1 52.5 21.2 53.45 21.3 54.7 21.55 55.65 21.8 56.65 21.7 57.9 21.55 58.8 21.65 59.7 21.7 60.6 21.55 61.35 21.3 62.2 21.0 63.2 20.35 64.15 19.45 64.7 18.8 65.35 18.1 66.3 17.4 66.85 16.75 67.35 15.95 Q67.7 15.5 68.35 15.35 69.0 15.25 68.85 15.0 68.75 14.75 68.05 14.75 L66.7 14.7 Z" fill="none" stroke="#ffffff" stroke-linecap="round" stroke-linejoin="round" stroke-width="1.0"/>
    <path d="M18.3 13.0 L9.8 20.05 -4.75 18.55 1.8 12.0 18.3 13.0" fill="#90c7b7" fill-rule="evenodd" stroke="none"/>
    <path d="M1.8 12.0 L0.95 13.05 0.25 13.65 -0.35 14.25 -0.9 15.0 -1.4 15.7 Q-1.6 16.05 -2.4 16.15 -3.2 16.3 -3.3 16.75 L-3.65 17.65 -4.0 18.2 Q-4.15 18.35 -3.7 18.35 -3.25 18.35 -2.95 18.65 L-2.05 18.8 Q-1.45 18.6 -1.15 19.05 -0.8 19.5 0.0 19.35 L0.95 19.0 1.7 19.15 2.85 19.4 4.05 19.4 4.95 19.45 5.9 19.65 6.8 19.7 7.65 19.75 8.8 19.95 9.75 19.85 10.7 19.4 11.5 19.0 12.4 18.6 13.25 17.95 13.75 17.1 14.5 16.25 15.4 15.55 16.2 15.0 16.85 14.35 17.3 13.7 17.65 13.15 Q17.8 12.9 17.25 12.95 L16.2 12.75 Q15.7 12.5 15.2 12.75 L14.45 12.8 13.4 12.55 12.15 12.55 11.15 12.45 10.2 12.45 8.95 12.2 8.0 12.15 7.4 12.1 6.35 12.05 5.2 12.3 4.1 12.45 Q3.55 12.55 3.2 12.15 2.85 11.8 2.5 11.9 L1.8 12.0 Z" fill="none" stroke="#ffffff" stroke-linecap="round" stroke-linejoin="round" stroke-width="1.0"/>
    <path d="M44.55 8.0 Q45.5 9.05 47.2 10.0 48.15 10.5 50.35 10.5 L51.2 13.25 Q51.6 14.55 52.05 14.95 L52.6 15.0 51.1 16.6 48.25 19.3 47.3 19.95 46.5 20.35 Q44.55 21.25 41.3 21.15 L37.4 21.0 24.7 20.45 14.2 19.95 7.55 19.95 7.4 19.9 7.35 19.35 7.6 19.2 Q8.25 18.85 10.15 18.5 L9.95 14.55 Q9.9 12.2 11.7 12.0 15.95 11.4 15.95 8.0 17.4 8.45 19.9 7.4 23.05 6.05 23.35 6.0 L27.25 5.9 30.5 6.0 Q36.05 6.0 38.2 7.0 L41.25 7.15 Q43.75 7.15 44.55 8.0" fill="#ffffff" fill-rule="evenodd" stroke="none"/>
    <path d="M7.4 19.9 L8.65 20.05 9.5 19.8 10.55 19.8 11.5 19.75 12.65 19.95 14.05 20.25 14.95 20.0 15.8 19.65 Q16.3 19.45 16.85 19.65 L17.95 19.95 18.95 20.0 19.95 20.25 20.95 20.4 21.8 20.5 Q22.15 20.7 22.8 20.5 L24.15 20.4 24.95 20.4 25.7 20.2 26.9 20.5 28.0 20.85 29.15 21.05 Q29.65 21.3 30.2 21.05 L31.25 20.7 32.55 20.75 33.6 20.7 Q33.9 20.45 34.5 20.7 L35.5 20.9 36.25 20.65 37.5 20.8 38.65 21.05 39.2 20.9 40.15 20.95 41.5 21.15 42.45 21.1 43.55 21.0 Q44.5 21.0 44.8 20.65 45.15 20.35 45.5 20.4 L46.45 20.4 Q47.1 20.3 47.65 19.9 L48.55 19.1 49.15 18.5 49.85 17.85 50.65 17.0 51.3 16.3 51.9 15.8 52.15 15.25 51.9 14.5 51.4 13.6 51.15 12.7 50.8 11.6 50.15 10.7 49.6 10.55 48.6 10.45 47.55 10.05 Q47.3 9.9 47.05 9.9 L46.05 9.45 Q45.35 9.0 45.15 8.6 L44.65 7.9 43.9 7.65 42.75 7.35 41.55 7.1 40.6 7.2 39.7 7.2 38.75 7.05 Q38.3 7.05 37.9 6.65 37.5 6.3 37.1 6.35 L35.75 6.25 34.8 6.2 34.0 6.0 32.9 5.85 32.1 5.85 31.05 5.7 29.95 5.85 29.15 6.05 28.15 5.85 27.0 5.6 25.95 5.6 25.15 5.55 Q25.0 5.4 24.1 5.9 L22.75 6.4 Q22.35 6.4 21.8 6.7 L20.95 7.05 20.0 7.25 18.95 7.5 18.45 7.8 Q18.35 8.05 17.75 8.1 L16.65 8.3 Q16.2 8.45 16.0 8.75 L15.65 9.4 15.05 10.3 14.6 11.1 13.95 11.4 12.7 11.7 11.6 12.1 Q11.2 12.3 10.85 12.65 L10.25 13.05 Q10.05 13.1 10.25 13.8 10.45 14.5 10.2 14.8 L9.9 15.8 Q9.85 16.5 9.95 16.9 L9.8 18.05 9.3 18.8 8.65 18.8 Q8.2 18.75 7.8 19.0 L7.35 19.35" fill="none" stroke="#90c7b7" stroke-linecap="round" stroke-linejoin="round" stroke-width="1.0"/>
    <path d="M48.0 13.0 L47.8 12.15 48.0 11.5 M43.5 18.0 L43.75 17.15 43.95 16.3 44.05 15.55 43.8 14.45 43.25 13.65 42.65 13.15 Q42.4 12.85 41.9 12.8 L41.0 12.5 M33.0 9.5 L32.9 8.55 32.6 7.75 32.2 7.5 31.65 7.45 30.5 7.5 M21.5 10.5 Q21.45 10.95 20.85 10.6 20.25 10.25 19.7 10.25 19.2 10.25 19.3 10.85 19.4 11.5 19.15 11.75 18.95 12.0 19.0 13.0 M27.5 13.0 L27.1 12.05 26.85 11.05 26.8 10.25 26.0 9.5 M28.0 18.5 L26.95 18.45 25.85 18.3 25.15 17.75 Q24.7 17.55 24.7 16.95 L24.75 16.1 24.5 15.5 M14.5 17.0 L13.45 16.95 12.75 16.55 Q12.5 16.5 12.45 15.9 L12.45 14.85 Q12.5 14.4 12.7 14.0 12.95 13.65 13.15 13.65 L14.5 13.5" fill="none" stroke="#90c7b7" stroke-linecap="round" stroke-linejoin="round" stroke-width="1.0"/>
  </g>
</svg>
