<?xml version="1.0" encoding="UTF-8" standalone="no"?>
<svg xmlns:xlink="http://www.w3.org/1999/xlink" height="26.65px" width="43.25px" xmlns="http://www.w3.org/2000/svg">
  <g transform="matrix(1.0, 0.0, 0.0, 1.0, -8.4, -20.2)">
    <path d="M31.6 21.05 L50.25 21.05 51.45 32.8 51.15 33.05 Q43.4 34.15 39.1 40.65 L31.7 32.9 31.6 21.05 M37.65 43.15 L37.45 43.55 36.35 46.3 23.9 46.3 22.95 43.95 22.6 43.2 30.1 35.15 37.65 43.15 M21.15 40.65 Q17.6 35.35 11.75 33.65 L9.05 33.05 9.0 33.0 8.75 33.0 8.8 32.7 9.95 21.05 28.7 21.05 28.7 32.75 21.15 40.65" fill="#90c7b7" fill-rule="evenodd" stroke="none"/>
    <path d="M31.6 21.05 L31.7 32.9 39.1 40.65 37.65 43.15 30.1 35.15 22.6 43.2 21.15 40.65 28.7 32.75 28.7 21.05 31.6 21.05" fill="#ffffff" fill-rule="evenodd" stroke="none"/>
    <path d="M43.15 21.05 L44.8 20.95 47.1 20.8 48.85 21.05 49.75 22.4 50.5 23.9 Q50.9 24.5 50.75 25.95 M42.8 36.6 Q41.7 37.25 41.35 37.75 L40.0 39.3 38.4 41.2 Q37.75 42.15 37.5 43.05 L37.05 44.65 Q36.85 45.3 35.85 45.65 L33.9 46.2 31.95 46.3 M50.85 27.15 Q50.6 28.1 50.85 29.1 L51.15 31.05 Q51.2 32.05 50.65 32.7 50.1 33.35 49.15 33.35 L47.4 33.85 45.75 34.85 Q45.0 35.35 43.75 35.85 M18.0 21.05 Q19.4 20.6 20.3 20.7 L22.05 20.95 23.9 21.05 25.95 21.05 27.3 21.05 28.4 21.05 M31.9 21.05 L33.85 21.0 35.95 21.05 38.1 21.05 39.95 21.2 41.9 21.05 M28.7 21.05 L30.45 20.8 Q31.2 20.65 31.6 21.05 M9.0 30.25 L9.25 28.1 9.2 26.25 Q9.1 25.3 9.4 24.0 9.75 22.75 10.25 22.2 L11.35 21.55 12.6 21.35 14.5 21.15 16.75 21.05 M19.8 38.85 L18.55 37.65 17.05 36.45 15.05 35.1 Q14.0 34.5 13.2 34.2 L11.35 33.6 9.9 32.75 8.9 31.5 M30.7 46.3 L28.6 46.05 26.65 46.1 24.95 46.0 Q24.05 45.7 23.65 44.85 23.25 44.0 22.65 43.3 22.1 42.6 21.85 41.75 21.6 40.9 20.55 39.8" fill="none" stroke="#90c7b7" stroke-linecap="round" stroke-linejoin="round" stroke-width="1.0"/>
  </g>
</svg>
