<?xml version="1.0" encoding="UTF-8" standalone="no"?>
<svg xmlns:xlink="http://www.w3.org/1999/xlink" height="54.55px" width="42.55px" xmlns="http://www.w3.org/2000/svg">
  <g transform="matrix(1.0, 0.0, 0.0, 1.0, -8.95, -2.25)">
    <path d="M46.8 38.4 L12.85 38.4 12.85 36.8 46.8 36.8 46.8 38.4 M40.35 18.45 L40.35 20.1 18.65 20.1 18.65 18.45 40.35 18.45 M8.95 55.2 L51.5 55.2 51.5 56.8 8.95 56.8 8.95 55.2" fill="#90c7b7" fill-rule="evenodd" stroke="none"/>
    <path d="M23.2 21.15 Q23.65 21.25 24.0 21.6 24.4 21.95 24.4 22.4 L24.4 22.45 24.3 22.95 24.3 23.15 24.3 23.25 24.2 23.35 24.0 23.45 23.95 23.55 23.85 23.7 23.75 23.7 23.1 23.75 23.05 23.75 22.45 23.75 Q21.95 23.8 21.9 23.35 L21.8 23.2 21.75 23.15 21.65 22.4 21.65 22.35 22.1 21.45 22.35 21.1 22.45 21.05 Q22.55 20.85 22.65 20.9 22.95 20.8 23.05 21.15 L23.2 21.15 M19.85 24.55 L20.0 24.75 20.25 24.75 Q20.75 24.6 21.35 24.75 L21.35 24.7 22.95 24.75 24.3 24.55 25.45 24.75 Q26.0 24.95 26.2 25.15 26.5 25.5 27.4 25.75 L28.0 26.85 28.35 28.05 28.2 29.3 27.7 29.9 26.6 30.0 Q26.1 29.9 25.85 29.4 L25.8 29.4 Q25.4 28.65 24.75 28.6 L24.7 28.6 23.35 28.8 Q22.55 29.05 22.05 29.6 L21.95 29.8 22.05 30.1 21.95 30.25 21.85 30.15 21.6 30.1 20.3 30.6 20.25 30.6 19.15 30.8 Q18.6 30.7 18.1 30.4 17.65 30.05 17.5 29.5 L17.55 29.5 17.35 28.2 Q17.3 27.65 17.7 27.05 L18.55 25.85 19.55 25.15 19.7 24.95 19.7 24.65 19.85 24.55 M22.2 24.1 L21.65 24.05 22.1 24.0 22.2 24.1 M21.55 35.35 L21.95 35.35 22.1 35.3 21.5 35.3 21.55 35.35 M18.85 32.95 L18.75 32.85 18.45 32.15 Q18.35 31.95 18.85 31.7 L18.95 31.7 19.05 31.75 19.05 31.85 19.45 31.85 19.65 34.75 19.95 34.75 19.75 31.85 20.45 31.7 20.55 31.7 20.65 34.75 20.95 34.75 20.85 31.6 21.05 31.55 21.65 31.25 21.7 34.75 22.05 34.75 21.95 31.0 22.15 30.85 22.6 30.3 22.65 30.1 22.8 30.0 22.8 34.75 23.1 34.75 23.1 29.7 23.3 29.6 23.75 29.4 23.95 29.4 23.85 34.75 24.15 34.75 24.3 29.5 24.4 29.5 24.5 29.6 24.9 29.85 25.1 30.0 24.9 34.75 25.2 34.75 25.4 30.3 25.95 30.8 26.15 30.9 25.95 34.75 26.25 34.75 26.45 31.1 26.6 31.1 26.65 31.2 27.05 31.25 27.1 31.2 27.2 31.2 27.3 31.25 27.35 31.4 27.3 32.0 27.1 32.7 27.0 33.3 27.0 33.35 27.1 34.05 26.9 34.75 26.9 35.1 26.95 35.15 27.0 35.25 27.0 35.4 26.9 35.45 25.95 35.55 25.5 35.55 24.6 35.45 24.1 35.4 23.45 35.35 23.4 35.3 22.95 35.3 22.75 35.35 22.1 35.65 21.45 35.65 20.95 35.55 20.45 35.5 20.0 35.5 19.25 35.45 19.2 35.45 19.1 35.45 19.05 35.4 19.05 35.15 18.95 34.65 18.95 34.35 18.85 32.95" fill="#90c7b7" fill-rule="evenodd" stroke="none"/>
    <path d="M19.85 24.55 L19.85 24.5 19.85 24.25 20.05 24.05 Q20.65 23.85 21.45 24.05 L21.5 24.05 21.65 24.05 22.2 24.1 22.8 24.05 24.25 23.85 25.65 24.05 25.7 24.05 Q26.45 24.35 26.75 24.7 L27.7 25.15 27.9 25.3 28.65 26.5 28.6 26.5 Q29.0 27.25 29.05 28.05 L28.9 29.45 28.9 29.4 Q28.8 30.25 28.0 30.55 L26.5 30.7 Q25.6 30.55 25.2 29.75 25.0 29.3 24.65 29.3 L23.75 29.4 23.55 29.45 22.55 30.1 22.25 30.2 22.05 30.1 21.95 29.8 22.05 29.6 Q22.55 29.05 23.35 28.8 L24.7 28.6 24.75 28.6 Q25.4 28.65 25.8 29.4 L25.85 29.4 Q26.1 29.9 26.6 30.0 L27.7 29.9 28.2 29.3 28.35 28.05 28.0 26.85 27.4 25.75 Q26.5 25.5 26.2 25.15 26.0 24.95 25.45 24.75 L24.3 24.55 22.95 24.75 21.35 24.7 21.35 24.75 Q20.75 24.6 20.25 24.75 L20.0 24.75 19.85 24.55 M21.95 30.25 L22.0 30.4 21.95 30.65 21.75 30.8 Q21.2 30.9 20.6 31.25 L20.6 31.2 19.05 31.5 Q18.35 31.4 17.7 30.95 17.05 30.45 16.85 29.7 L16.85 29.65 16.65 28.3 Q16.6 27.5 17.1 26.7 L17.15 26.65 18.0 25.45 Q18.45 24.85 19.25 24.5 L19.5 24.45 19.7 24.65 19.7 24.95 19.55 25.15 18.55 25.85 17.7 27.05 Q17.3 27.65 17.35 28.2 L17.55 29.5 17.5 29.5 Q17.65 30.05 18.1 30.4 18.6 30.7 19.15 30.8 L20.25 30.6 20.3 30.6 21.6 30.1 21.85 30.15 21.95 30.25" fill="#ffffff" fill-rule="evenodd" stroke="none"/>
    <path d="M36.85 24.35 L37.45 24.25 38.95 24.1 40.35 24.3 Q41.15 24.55 41.45 24.95 L42.35 25.35 42.4 25.35 42.6 25.55 43.3 26.75 Q43.7 27.5 43.75 28.3 L43.6 29.7 43.6 29.65 Q43.45 30.5 42.7 30.8 L41.15 30.95 Q40.3 30.8 39.9 29.95 L39.35 29.5 38.4 29.65 38.25 29.7 Q37.6 29.9 37.2 30.3 L36.95 30.45 36.75 30.35 36.75 30.3 36.6 30.05 36.75 29.85 Q37.2 29.3 38.05 29.0 L39.4 28.85 39.45 28.85 Q40.05 28.85 40.5 29.65 L40.55 29.65 Q40.75 30.1 41.3 30.25 L42.4 30.15 42.4 30.1 42.9 29.55 42.9 29.5 43.05 28.3 42.7 27.1 42.1 26.0 Q41.15 25.7 40.9 25.4 L40.1 24.95 39.0 24.8 37.6 24.95 36.0 24.95 34.95 24.95 34.65 24.95 34.55 24.8 34.55 24.7 34.55 24.5 34.75 24.3 36.15 24.25 36.2 24.25 36.3 24.3 36.85 24.35 M36.65 30.5 L36.7 30.6 36.65 30.9 36.45 31.0 Q35.85 31.15 35.25 31.5 L35.25 31.45 Q34.55 31.9 33.75 31.75 L33.7 31.75 32.4 31.15 Q31.75 30.65 31.5 29.95 L31.5 29.9 31.35 28.5 Q31.25 27.75 31.8 26.9 L31.85 26.9 32.7 25.65 Q33.15 25.1 33.95 24.7 L34.15 24.7 34.4 24.9 34.4 25.15 34.2 25.35 Q33.6 25.6 33.2 26.1 L33.25 26.1 32.4 27.25 Q32.0 27.85 32.0 28.45 L32.25 29.75 32.2 29.75 32.8 30.6 33.85 31.0 34.95 30.85 35.0 30.85 36.3 30.35 36.55 30.4 36.65 30.5" fill="#ffffff" fill-rule="evenodd" stroke="none"/>
    <path d="M36.85 24.35 L36.3 24.3 36.8 24.2 36.85 24.35 M34.55 24.8 L34.65 24.95 34.95 24.95 36.0 24.95 37.6 24.95 39.0 24.8 40.1 24.95 40.9 25.4 Q41.15 25.7 42.1 26.0 L42.7 27.1 43.05 28.3 42.9 29.5 42.9 29.55 42.4 30.1 42.4 30.15 41.3 30.25 Q40.75 30.1 40.55 29.65 L40.5 29.65 Q40.05 28.85 39.45 28.85 L39.4 28.85 38.05 29.0 Q37.2 29.3 36.75 29.85 L36.6 30.05 36.75 30.3 36.75 30.35 36.65 30.5 36.55 30.4 36.3 30.35 35.0 30.85 34.95 30.85 33.85 31.0 32.8 30.6 32.2 29.75 32.25 29.75 32.0 28.45 Q32.0 27.85 32.4 27.25 L33.25 26.1 33.2 26.1 Q33.6 25.6 34.2 25.35 L34.4 25.15 34.4 24.9 34.55 24.8 M38.25 29.7 L38.4 29.65 38.45 29.65 38.65 29.65 38.55 35.0 38.85 35.0 39.0 29.7 39.15 29.85 39.55 30.05 39.75 30.25 39.6 35.0 39.9 35.0 40.05 30.55 40.6 31.0 40.85 31.15 40.6 35.0 40.95 35.0 41.15 31.3 41.35 31.4 41.7 31.5 41.75 31.45 41.9 31.4 42.0 31.5 42.05 31.6 42.0 32.25 41.75 32.95 41.7 33.55 41.7 33.6 41.75 34.25 41.6 35.0 41.6 35.3 41.65 35.4 41.7 35.5 41.7 35.65 41.6 35.7 40.6 35.8 40.15 35.8 39.3 35.7 38.8 35.65 38.1 35.55 38.05 35.5 37.6 35.5 37.45 35.6 36.8 35.85 36.15 35.85 35.65 35.8 35.15 35.75 34.65 35.75 33.95 35.7 33.9 35.7 33.8 35.65 33.75 35.65 33.7 35.55 33.7 35.35 33.65 34.9 33.65 34.55 33.55 33.15 33.45 33.1 33.1 32.4 Q33.05 32.15 33.55 31.95 L33.65 31.95 33.75 32.0 33.75 32.1 34.15 32.1 34.3 35.0 34.65 35.0 34.45 32.1 35.15 31.95 35.2 31.9 35.35 35.0 35.65 35.0 35.5 31.85 36.3 31.5 36.35 35.0 36.75 35.0 36.6 31.25 36.85 31.05 37.3 30.5 37.35 30.35 37.45 30.2 37.45 35.0 37.8 35.0 37.8 29.95 37.95 29.85 38.25 29.7 M37.05 21.3 L37.15 21.3 37.35 21.15 Q37.65 21.05 37.7 21.35 L37.7 21.4 37.9 21.35 Q38.35 21.5 38.65 21.85 39.05 22.2 39.05 22.65 L39.0 23.2 39.0 23.4 39.0 23.45 38.9 23.6 38.7 23.7 38.65 23.8 38.5 23.95 38.45 23.95 37.8 24.0 37.75 24.0 37.1 24.0 Q36.65 24.0 36.6 23.55 L36.45 23.45 36.45 23.4 36.3 22.65 36.3 22.6 36.8 21.7 37.05 21.3 M36.2 35.5 L36.25 35.55 36.65 35.6 36.8 35.5 36.2 35.5" fill="#90c7b7" fill-rule="evenodd" stroke="none"/>
    <path d="M15.1 48.6 L15.15 48.75 15.1 49.05 14.9 49.15 Q14.3 49.3 13.7 49.6 13.0 50.05 12.2 49.9 L12.15 49.9 10.85 49.3 9.95 48.05 9.95 48.0 9.75 46.65 Q9.7 45.85 10.25 45.05 L10.3 45.05 11.15 43.8 Q11.6 43.2 12.4 42.85 L12.6 42.85 12.85 43.05 12.85 43.3 12.65 43.5 Q12.05 43.7 11.65 44.25 L11.7 44.25 10.85 45.4 Q10.4 46.0 10.45 46.6 L10.7 47.9 10.65 47.9 Q10.8 48.45 11.25 48.75 11.75 49.1 12.3 49.15 L13.4 49.0 13.45 49.0 Q14.1 48.6 14.7 48.5 L15.0 48.55 15.1 48.6 M13.0 42.95 L13.0 42.85 13.0 42.6 13.2 42.45 14.6 42.4 14.75 42.45 15.3 42.5 15.9 42.4 17.35 42.25 18.8 42.45 19.9 43.1 Q20.1 43.3 20.8 43.5 L20.85 43.5 21.05 43.7 21.75 44.9 21.7 44.9 22.15 46.4 22.05 47.85 22.05 47.8 Q21.9 48.6 21.1 48.95 L19.6 49.1 Q18.75 48.95 18.35 48.1 L17.8 47.65 16.85 47.8 16.7 47.85 Q16.05 48.0 15.65 48.45 L15.4 48.55 15.15 48.5 15.15 48.45 15.05 48.2 15.15 48.0 Q15.65 47.45 16.5 47.15 L17.85 46.95 Q18.5 47.0 18.95 47.8 19.2 48.25 19.75 48.4 L20.85 48.3 20.85 48.25 21.35 47.7 21.35 47.65 21.5 46.4 Q21.5 45.85 21.1 45.25 L20.55 44.15 Q19.6 43.85 19.35 43.55 L18.55 43.1 17.4 42.95 16.05 43.1 14.45 43.1 13.4 43.1 13.1 43.1 13.0 42.95" fill="#ffffff" fill-rule="evenodd" stroke="none"/>
    <path d="M15.1 48.6 L15.0 48.55 14.7 48.5 Q14.1 48.6 13.45 49.0 L13.4 49.0 12.3 49.15 Q11.75 49.1 11.25 48.75 10.8 48.45 10.65 47.9 L10.7 47.9 10.45 46.6 Q10.4 46.0 10.85 45.4 L11.7 44.25 11.65 44.25 Q12.05 43.7 12.65 43.5 L12.85 43.3 12.85 43.05 13.0 42.95 13.1 43.1 13.4 43.1 14.45 43.1 16.05 43.1 17.4 42.95 18.55 43.1 19.35 43.55 Q19.6 43.85 20.55 44.15 L21.1 45.25 Q21.5 45.85 21.5 46.4 L21.35 47.65 21.35 47.7 20.85 48.25 20.85 48.3 19.75 48.4 Q19.2 48.25 18.95 47.8 18.5 47.0 17.85 46.95 L16.5 47.15 Q15.65 47.45 15.15 48.0 L15.05 48.2 15.15 48.45 15.15 48.5 15.1 48.6 M14.75 42.45 L15.2 42.35 15.3 42.5 14.75 42.45 M16.85 47.8 L17.1 47.8 17.0 53.15 17.3 53.15 17.4 47.85 17.5 47.9 17.6 48.0 18.0 48.2 18.2 48.4 18.05 53.15 18.35 53.15 18.5 48.7 19.05 49.15 19.3 49.3 19.05 53.15 19.4 53.15 19.55 49.45 19.7 49.5 19.8 49.55 20.15 49.6 20.2 49.6 20.35 49.55 20.45 49.6 20.5 49.75 20.45 50.4 20.2 51.1 20.15 51.7 20.15 51.75 20.2 52.4 20.0 53.15 20.0 53.45 20.05 53.55 20.15 53.65 20.15 53.8 20.0 53.85 19.05 53.95 18.6 53.95 17.75 53.85 17.25 53.8 16.55 53.7 16.5 53.65 16.05 53.65 15.9 53.75 15.2 54.0 14.6 54.0 14.1 53.95 13.55 53.9 13.1 53.9 12.4 53.85 12.35 53.85 12.25 53.8 12.2 53.8 12.15 53.7 12.15 53.5 12.1 53.05 12.1 52.7 11.95 51.3 11.9 51.25 11.55 50.55 Q11.45 50.3 11.95 50.1 L12.1 50.1 12.2 50.15 12.2 50.2 12.6 50.2 12.75 53.15 13.05 53.15 12.9 50.2 13.55 50.1 13.65 50.05 13.8 53.15 14.1 53.15 13.95 50.0 14.2 49.9 14.75 49.6 14.8 53.15 15.15 53.15 15.05 49.4 15.25 49.2 15.7 48.65 15.75 48.5 15.9 48.35 15.9 53.15 16.25 53.15 16.25 48.05 16.4 48.0 16.7 47.85 16.85 47.8 M16.3 39.5 Q16.75 39.65 17.1 39.95 17.5 40.35 17.5 40.8 L17.45 41.35 17.45 41.55 17.4 41.6 17.3 41.75 Q17.25 41.75 17.15 41.85 L17.1 41.95 16.95 42.1 16.85 42.1 16.25 42.1 16.2 42.1 15.55 42.1 Q15.1 42.15 15.05 41.7 L14.9 41.55 14.75 40.8 14.75 40.75 15.2 39.85 15.5 39.45 15.6 39.4 15.75 39.3 Q16.1 39.2 16.15 39.5 L16.15 39.55 Q16.2 39.45 16.3 39.5 M14.65 53.7 L15.1 53.75 15.2 53.65 14.6 53.65 14.65 53.7" fill="#90c7b7" fill-rule="evenodd" stroke="none"/>
    <path d="M29.85 39.5 L29.85 39.55 30.05 39.5 Q30.5 39.65 30.8 39.95 L31.25 40.8 31.2 41.35 31.2 41.55 31.15 41.6 31.05 41.75 30.85 41.85 30.8 41.95 30.7 42.1 30.6 42.1 29.95 42.1 29.9 42.1 29.25 42.1 Q28.8 42.15 28.75 41.7 L28.6 41.55 28.5 40.8 28.5 40.75 Q28.55 40.45 28.95 39.85 L29.2 39.45 29.3 39.4 29.5 39.3 Q29.8 39.2 29.85 39.5 M28.8 48.6 L28.7 48.55 28.45 48.5 Q27.85 48.6 27.15 49.0 L27.1 49.0 26.0 49.15 24.95 48.75 Q24.5 48.45 24.35 47.9 L24.4 47.9 24.2 46.6 Q24.15 46.0 24.55 45.4 L25.4 44.25 Q25.8 43.7 26.4 43.5 L26.55 43.3 26.55 43.05 26.7 42.95 26.85 43.1 27.1 43.1 28.15 43.1 29.75 43.1 31.15 42.95 32.3 43.1 33.05 43.55 Q33.35 43.85 34.25 44.15 L34.85 45.25 35.2 46.4 35.1 47.65 35.1 47.7 34.55 48.25 34.55 48.3 33.45 48.4 32.7 47.8 32.65 47.8 Q32.25 47.0 31.6 46.95 L31.55 46.95 30.25 47.15 Q29.35 47.45 28.9 48.0 L28.75 48.2 28.9 48.45 28.9 48.5 28.8 48.6 M28.5 42.45 L28.95 42.35 29.05 42.5 28.5 42.45 M30.55 47.8 L30.8 47.8 30.75 53.15 31.0 53.15 31.15 47.85 31.25 47.9 31.3 48.0 31.75 48.2 31.9 48.4 31.8 53.15 32.05 53.15 32.25 48.7 33.0 49.3 32.8 53.15 33.1 53.15 33.3 49.45 33.45 49.5 33.5 49.55 33.9 49.6 33.95 49.6 34.05 49.55 34.15 49.6 34.2 49.75 34.15 50.4 33.95 51.1 33.9 51.7 33.9 51.75 33.95 52.4 33.75 53.15 33.75 53.45 33.8 53.55 33.9 53.65 33.9 53.8 33.75 53.85 32.8 53.95 32.35 53.95 31.45 53.85 30.95 53.8 30.25 53.7 30.25 53.65 29.75 53.65 29.65 53.75 28.95 54.0 28.3 54.0 27.8 53.95 27.3 53.9 26.85 53.9 26.1 53.85 26.05 53.85 25.95 53.8 25.9 53.7 25.9 53.5 25.85 53.05 25.85 52.7 25.7 51.3 25.6 51.25 25.3 50.55 Q25.2 50.3 25.7 50.1 L25.85 50.1 25.95 50.15 25.95 50.2 26.35 50.2 26.45 53.15 26.8 53.15 26.6 50.2 27.3 50.1 27.4 50.05 27.55 53.15 27.8 53.15 27.65 50.0 27.95 49.9 28.5 49.6 28.55 53.15 28.9 53.15 28.75 49.4 29.0 49.2 29.45 48.65 29.5 48.5 29.65 48.35 29.65 53.15 29.95 53.15 29.95 48.05 30.15 48.0 30.4 47.85 30.55 47.8 M28.95 53.65 L28.35 53.65 28.4 53.7 28.8 53.75 28.95 53.65" fill="#90c7b7" fill-rule="evenodd" stroke="none"/>
    <path d="M26.55 43.05 L26.55 43.3 26.4 43.5 Q25.8 43.7 25.4 44.25 L24.55 45.4 Q24.15 46.0 24.2 46.6 L24.4 47.9 24.35 47.9 Q24.5 48.45 24.95 48.75 L26.0 49.15 27.1 49.0 27.15 49.0 Q27.85 48.6 28.45 48.5 L28.7 48.55 28.8 48.6 28.85 48.75 28.8 49.05 28.6 49.15 Q28.05 49.3 27.45 49.6 26.7 50.05 25.95 49.9 L25.9 49.9 24.55 49.3 Q23.9 48.8 23.7 48.05 L23.7 48.0 23.5 46.65 Q23.4 45.85 23.95 45.05 L24.0 45.05 24.85 43.8 Q25.35 43.2 26.1 42.85 L26.35 42.85 26.55 43.05 M28.9 48.5 L28.9 48.45 28.75 48.2 28.9 48.0 Q29.35 47.45 30.25 47.15 L31.55 46.95 31.6 46.95 Q32.25 47.0 32.65 47.8 L32.7 47.8 33.45 48.4 34.55 48.3 34.55 48.25 35.1 47.7 35.1 47.65 35.2 46.4 34.85 45.25 34.25 44.15 Q33.35 43.85 33.05 43.55 L32.3 43.1 31.15 42.95 29.75 43.1 28.15 43.1 27.1 43.1 26.85 43.1 26.7 42.95 26.7 42.85 26.7 42.6 26.95 42.45 28.3 42.4 28.35 42.4 28.5 42.45 29.05 42.5 29.65 42.4 31.1 42.25 32.5 42.45 Q33.3 42.7 33.6 43.1 33.85 43.3 34.55 43.5 L34.75 43.7 35.5 44.9 35.45 44.9 35.9 46.4 35.75 47.85 35.75 47.8 Q35.6 48.6 34.85 48.95 L33.35 49.1 Q32.45 48.95 32.05 48.1 31.85 47.7 31.5 47.65 L30.55 47.8 30.4 47.85 Q29.75 48.0 29.35 48.45 L29.15 48.55 28.9 48.5" fill="#ffffff" fill-rule="evenodd" stroke="none"/>
    <path d="M42.75 42.5 L43.35 42.4 44.8 42.25 46.25 42.45 47.35 43.1 48.25 43.5 48.3 43.5 48.5 43.7 49.2 44.9 49.15 44.9 Q49.6 45.65 49.65 46.4 L49.5 47.85 49.5 47.8 Q49.35 48.6 48.55 48.95 L47.05 49.1 Q46.2 48.95 45.8 48.1 L45.25 47.65 44.25 47.8 44.15 47.85 Q43.5 48.0 43.1 48.45 L42.85 48.55 42.65 48.5 42.65 48.45 42.5 48.2 42.65 48.0 Q43.1 47.45 43.95 47.15 L45.3 46.95 Q45.95 47.0 46.4 47.8 46.65 48.25 47.2 48.4 L48.3 48.3 48.3 48.25 48.8 47.7 48.8 47.65 48.95 46.4 Q48.95 45.85 48.55 45.25 L48.0 44.15 Q47.05 43.85 46.8 43.55 L46.0 43.1 44.85 42.95 43.5 43.1 41.9 43.1 40.85 43.1 40.55 43.1 40.45 42.95 40.45 42.85 40.45 42.6 40.65 42.45 42.05 42.4 42.1 42.4 42.2 42.45 42.75 42.5 M40.3 43.05 L40.3 43.3 40.1 43.5 39.1 44.25 39.15 44.25 38.3 45.4 Q37.85 46.0 37.9 46.6 L38.15 47.9 38.1 47.9 Q38.25 48.45 38.7 48.75 L39.75 49.15 40.85 49.0 40.9 49.0 Q41.55 48.6 42.15 48.5 L42.45 48.55 42.55 48.6 42.6 48.75 42.55 49.05 42.35 49.15 Q41.75 49.3 41.15 49.6 L39.65 49.9 39.6 49.9 Q38.9 49.75 38.3 49.3 37.65 48.8 37.4 48.05 L37.4 48.0 Q37.25 47.4 37.25 46.65 37.15 45.85 37.7 45.05 L37.75 45.05 38.6 43.8 Q39.05 43.2 39.85 42.85 L40.05 42.85 40.3 43.05" fill="#ffffff" fill-rule="evenodd" stroke="none"/>
    <path d="M42.75 42.5 L42.2 42.45 42.65 42.35 42.75 42.5 M40.45 42.95 L40.55 43.1 40.85 43.1 41.9 43.1 43.5 43.1 44.85 42.95 46.0 43.1 46.8 43.55 Q47.05 43.85 48.0 44.15 L48.55 45.25 Q48.95 45.85 48.95 46.4 L48.8 47.65 48.8 47.7 48.3 48.25 48.3 48.3 47.2 48.4 Q46.65 48.25 46.4 47.8 45.95 47.0 45.3 46.95 L43.95 47.15 Q43.1 47.45 42.65 48.0 L42.5 48.2 42.65 48.45 42.65 48.5 42.55 48.6 42.45 48.55 42.15 48.5 Q41.55 48.6 40.9 49.0 L40.85 49.0 39.75 49.15 38.7 48.75 Q38.25 48.45 38.1 47.9 L38.15 47.9 37.9 46.6 Q37.85 46.0 38.3 45.4 L39.15 44.25 39.1 44.25 40.1 43.5 40.3 43.3 40.3 43.05 40.45 42.95 M44.15 47.85 L44.25 47.8 44.55 47.8 44.45 53.15 44.75 53.15 44.85 47.85 44.95 47.9 45.05 48.0 45.45 48.2 45.65 48.4 45.5 53.15 45.8 53.15 45.95 48.7 46.5 49.15 46.75 49.3 46.5 53.15 46.85 53.15 47.0 49.45 47.15 49.5 47.25 49.55 47.6 49.6 47.65 49.6 47.8 49.55 47.9 49.6 47.95 49.75 47.9 50.4 47.65 51.1 47.6 51.7 47.6 51.75 47.65 52.4 47.45 53.15 47.45 53.45 47.5 53.55 47.6 53.65 47.6 53.8 47.45 53.85 46.5 53.95 46.05 53.95 45.2 53.85 44.7 53.8 44.0 53.7 43.95 53.65 43.5 53.65 43.35 53.75 42.65 54.0 42.05 54.0 41.55 53.95 41.0 53.9 40.55 53.9 39.85 53.85 39.8 53.85 39.7 53.8 39.65 53.8 39.6 53.7 39.6 53.5 39.55 53.05 39.55 52.7 39.4 51.3 39.35 51.25 39.0 50.55 Q38.9 50.3 39.4 50.1 L39.55 50.1 39.65 50.15 39.65 50.2 40.05 50.2 40.2 53.15 40.5 53.15 40.35 50.2 41.0 50.1 41.1 50.05 41.25 53.15 41.55 53.15 41.4 50.0 41.65 49.9 42.2 49.6 42.25 53.15 42.65 53.15 42.5 49.4 42.7 49.2 43.15 48.65 43.2 48.5 43.35 48.35 43.35 53.15 43.7 53.15 43.7 48.05 43.85 48.0 44.15 47.85 M43.6 39.5 L43.6 39.55 Q43.65 39.45 43.75 39.5 44.25 39.65 44.55 39.95 44.95 40.35 44.95 40.8 L44.9 41.35 44.9 41.55 44.85 41.6 44.8 41.75 44.6 41.85 44.55 41.95 44.4 42.1 44.3 42.1 43.7 42.1 43.65 42.1 43.0 42.1 Q42.55 42.15 42.5 41.7 L42.35 41.55 42.2 40.8 42.2 40.75 Q42.25 40.45 42.65 39.85 L42.95 39.45 43.05 39.4 Q43.15 39.25 43.2 39.3 43.55 39.2 43.6 39.5 M42.1 53.65 L42.1 53.7 42.55 53.75 42.65 53.65 42.1 53.65" fill="#90c7b7" fill-rule="evenodd" stroke="none"/>
    <path d="M31.15 4.5 L31.1 4.6 31.0 4.75 30.85 4.85 30.8 4.95 30.65 5.05 30.6 5.05 29.9 5.1 29.85 5.1 29.25 5.1 Q28.8 5.15 28.75 4.7 L28.6 4.55 28.6 4.5 28.45 3.8 28.45 3.75 28.95 2.8 29.2 2.45 29.3 2.4 29.45 2.25 Q29.8 2.2 29.8 2.5 L29.8 2.55 30.05 2.5 Q30.5 2.65 30.8 2.95 31.2 3.35 31.2 3.8 L31.15 4.3 31.15 4.5 M29.05 5.45 L28.45 5.4 28.95 5.3 29.05 5.45 M26.7 5.95 L26.8 6.1 27.1 6.1 28.15 6.1 29.75 6.1 31.1 5.95 32.25 6.1 33.05 6.5 Q33.3 6.85 34.25 7.1 L34.8 8.2 Q35.15 8.8 35.15 9.4 L35.05 10.65 34.55 11.25 34.55 11.3 33.45 11.4 Q32.9 11.25 32.7 10.75 L32.65 10.75 Q32.2 10.0 31.6 9.95 L31.55 9.95 30.2 10.15 Q29.35 10.4 28.9 10.95 L28.75 11.2 28.9 11.45 28.8 11.6 28.7 11.5 28.4 11.45 27.15 11.95 27.1 11.95 26.0 12.15 24.95 11.75 Q24.45 11.45 24.35 10.85 L24.4 10.85 24.15 9.55 Q24.1 9.0 24.5 8.4 L25.4 7.25 25.35 7.25 Q25.75 6.7 26.4 6.45 L26.55 6.3 26.55 6.05 26.7 5.95 M30.4 10.8 L30.55 10.75 30.8 10.75 30.7 16.1 30.95 16.1 31.1 10.8 31.2 10.85 31.35 10.95 31.7 11.2 31.9 11.4 31.75 16.1 32.05 16.1 32.2 11.7 32.8 12.15 33.0 12.25 32.8 16.1 33.1 16.1 33.25 12.45 33.4 12.5 33.5 12.55 33.85 12.6 33.95 12.6 34.05 12.55 34.15 12.6 34.2 12.75 34.15 13.35 33.95 14.1 33.85 14.65 33.85 14.7 33.95 15.4 33.7 16.1 33.7 16.45 33.75 16.55 33.85 16.65 33.85 16.75 33.7 16.8 32.8 16.9 32.3 16.9 31.45 16.8 30.95 16.75 30.25 16.7 30.2 16.65 29.75 16.65 29.6 16.75 28.95 17.0 28.3 17.0 27.8 16.9 27.25 16.85 26.8 16.85 26.1 16.8 26.05 16.8 25.95 16.75 25.9 16.75 25.85 16.7 25.85 16.5 25.8 16.0 25.8 15.65 25.65 14.3 25.6 14.2 25.25 13.5 Q25.2 13.3 25.65 13.05 L25.8 13.05 25.9 13.1 25.9 13.2 26.35 13.2 26.45 16.1 26.75 16.1 26.6 13.2 27.25 13.05 27.4 13.0 27.5 16.1 27.8 16.1 27.65 12.95 27.9 12.9 28.45 12.6 28.5 16.1 28.9 16.1 28.75 12.35 29.0 12.2 29.45 11.65 29.45 11.45 29.6 11.35 29.6 16.1 29.9 16.1 29.9 11.05 30.15 10.95 30.4 10.8 M28.3 16.65 L28.35 16.7 28.8 16.75 28.95 16.65 28.3 16.65" fill="#90c7b7" fill-rule="evenodd" stroke="none"/>
    <path d="M29.05 5.45 L29.6 5.35 31.05 5.25 32.5 5.4 Q33.25 5.7 33.6 6.1 L34.5 6.45 34.55 6.45 34.75 6.65 35.5 7.9 35.45 7.9 35.9 9.4 35.75 10.8 35.75 10.75 Q35.6 11.6 34.8 11.9 L33.3 12.05 Q32.45 11.9 32.05 11.05 L31.5 10.65 30.55 10.75 30.4 10.8 29.35 11.45 29.1 11.55 28.9 11.45 28.75 11.2 28.9 10.95 Q29.35 10.4 30.2 10.15 L31.55 9.95 31.6 9.95 Q32.2 10.0 32.65 10.75 L32.7 10.75 Q32.9 11.25 33.45 11.4 L34.55 11.3 34.55 11.25 35.05 10.65 35.15 9.4 Q35.15 8.8 34.8 8.2 L34.25 7.1 Q33.3 6.85 33.05 6.5 L32.25 6.1 31.1 5.95 29.75 6.1 28.15 6.1 27.1 6.1 26.8 6.1 26.7 5.95 26.7 5.8 26.7 5.6 26.9 5.4 28.3 5.35 28.45 5.4 29.05 5.45 M28.8 11.6 L28.85 11.75 28.8 12.0 28.6 12.15 Q28.0 12.25 27.45 12.6 L25.9 12.9 25.85 12.9 Q25.2 12.75 24.5 12.25 23.9 11.8 23.7 11.05 L23.7 11.0 23.5 9.6 Q23.35 8.85 23.95 8.0 L24.0 8.0 24.85 6.8 Q25.3 6.2 26.1 5.8 L26.35 5.8 26.55 6.05 26.55 6.3 26.4 6.45 Q25.75 6.7 25.35 7.25 L25.4 7.25 24.5 8.4 Q24.1 9.0 24.15 9.55 L24.4 10.85 24.35 10.85 Q24.45 11.45 24.95 11.75 L26.0 12.15 27.1 11.95 27.15 11.95 28.4 11.45 28.7 11.5 28.8 11.6" fill="#ffffff" fill-rule="evenodd" stroke="none"/>
  </g>
</svg>
