<?xml version="1.0" encoding="UTF-8" standalone="no"?>
<svg xmlns:xlink="http://www.w3.org/1999/xlink" height="34.5px" width="51.8px" xmlns="http://www.w3.org/2000/svg">
  <g transform="matrix(1.0, 0.0, 0.0, 1.0, -3.75, -14.55)">
    <path d="M43.65 15.2 L45.3 15.2 45.3 15.05 47.95 15.05 47.3 15.45 Q46.45 16.05 45.8 16.95 L45.55 17.3 45.3 17.75 45.3 18.25 45.55 17.8 45.8 17.45 Q46.45 16.55 47.3 15.95 47.9 15.5 48.65 15.2 L49.75 15.2 50.15 15.4 Q52.6 16.75 52.95 20.55 L53.05 21.3 45.05 24.95 38.9 24.95 Q38.9 22.35 39.45 20.4 40.55 16.4 43.65 15.2 M35.0 24.95 L17.6 24.95 Q17.6 22.35 18.15 20.4 19.25 16.4 22.35 15.2 L39.75 15.2 Q36.65 16.4 35.55 20.4 35.0 22.35 35.0 24.95 M13.7 24.95 L8.65 24.95 Q8.05 23.25 9.0 19.95 9.95 16.65 13.35 15.2 L18.45 15.2 Q15.35 16.4 14.25 20.4 13.7 22.35 13.7 24.95 M38.95 26.75 L45.05 26.75 45.05 26.8 44.3 27.25 48.55 25.05 48.8 25.05 48.8 24.9 51.45 23.55 52.95 23.55 52.95 24.25 52.95 25.05 52.95 25.4 52.95 27.0 52.7 42.15 46.0 47.35 38.95 47.35 38.95 26.75 M35.45 47.35 L17.45 47.35 17.45 26.75 35.45 26.75 35.45 47.35 M13.95 47.35 L8.75 47.35 8.55 47.1 8.55 27.0 Q8.55 26.75 8.75 26.75 L13.95 26.75 13.95 47.35" fill="#90c7b7" fill-rule="evenodd" stroke="none"/>
    <path d="M38.9 24.95 L35.0 24.95 Q35.0 22.35 35.55 20.4 36.65 16.4 39.75 15.2 L43.65 15.2 Q40.55 16.4 39.45 20.4 38.9 22.35 38.9 24.95 M17.6 24.95 L13.7 24.95 Q13.7 22.35 14.25 20.4 15.35 16.4 18.45 15.2 L18.65 15.1 19.5 15.1 19.45 15.2 22.35 15.2 Q19.25 16.4 18.15 20.4 17.6 22.35 17.6 24.95 M38.95 26.75 L38.95 47.35 35.45 47.35 35.45 26.75 38.95 26.75 M17.45 47.35 L13.95 47.35 13.95 26.75 17.45 26.75 17.45 47.35" fill="#ffffff" fill-rule="evenodd" stroke="none"/>
    <path d="M43.85 27.5 Q44.1 27.65 45.05 26.8" fill="none" stroke="#90c7b7" stroke-linecap="round" stroke-linejoin="round" stroke-width="1.0"/>
    <path d="M38.9 24.95 Q38.6 23.95 38.9 22.9 L39.4 21.0 39.95 19.25 40.9 17.45 41.75 16.1 Q42.05 15.7 43.65 15.2 M55.05 25.0 L53.85 23.95 53.1 23.1 M47.95 15.05 Q46.7 15.75 46.1 16.2 45.5 16.65 45.3 17.75 M45.3 18.25 Q44.9 19.0 44.8 20.0 44.75 21.0 44.3 21.95 L43.8 23.4 43.9 24.95 M44.3 26.65 Q44.05 26.85 44.3 26.05 M43.8 48.05 Q43.8 47.8 44.3 47.9 L44.15 45.7 44.15 43.9 44.45 42.0 Q44.6 40.85 44.4 39.8 L44.25 37.95 44.45 35.95 Q44.65 34.85 44.4 34.0 44.2 33.2 44.35 32.1 L44.35 29.9 44.3 27.85 M52.7 42.15 L50.65 43.15 49.0 44.3 Q48.2 45.05 47.9 45.9 47.6 46.75 46.7 47.2 L45.35 47.65 44.3 47.9 44.3 48.55 M17.55 25.0 L17.85 23.15 18.0 21.2 Q17.95 20.5 18.4 19.15 18.85 17.85 19.45 17.3 L20.35 16.35 22.35 15.2 M35.0 24.95 Q34.55 23.85 34.9 22.85 L35.4 20.85 Q35.55 19.85 35.85 18.9 36.15 18.0 37.0 17.5 L38.05 16.45 Q38.2 15.9 39.75 15.2 M18.45 15.2 L16.85 16.25 15.6 17.65 14.65 19.5 Q14.15 20.55 14.0 21.5 L13.8 22.95 13.7 24.95 M17.5 26.05 L17.45 26.75 Q17.85 26.75 17.45 28.5 L17.55 30.75 17.75 32.85 17.65 34.65 17.45 36.45 17.65 38.45 Q17.85 39.5 17.65 40.45 L17.45 42.5 M17.45 26.75 L17.2 27.45 Q16.95 28.1 17.45 28.5 M13.95 32.15 Q13.5 30.9 13.75 30.0 L14.0 28.6 13.95 26.75 M13.95 47.35 L14.05 45.35 Q14.15 44.35 13.85 43.35 13.55 42.35 13.95 41.35 14.35 40.35 14.15 39.4 L13.85 37.35 Q13.8 36.25 14.05 35.2 14.3 34.15 13.95 33.35 M4.5 24.05 L4.5 25.0 Q4.65 24.7 4.95 24.8 L5.0 24.8 5.0 24.5 M5.05 25.35 L6.5 25.4 7.0 24.85 6.4 24.7 5.0 24.8 M4.5 25.3 Q4.0 25.75 4.5 25.0 M7.0 24.85 L7.5 24.85 M17.45 43.75 Q17.2 44.75 17.4 45.15 17.65 45.6 17.45 47.35 M35.45 34.05 Q35.2 33.1 35.3 32.05 L35.5 30.05 35.65 28.45 35.45 26.75 M38.95 30.05 Q38.6 29.05 38.6 28.5 L38.95 26.75 M38.95 47.35 L38.85 45.35 38.85 43.45 39.05 41.35 39.2 39.3 39.2 37.3 39.05 35.35 Q38.9 34.35 39.05 33.3 39.2 32.3 38.95 31.35 M35.45 47.35 L35.45 45.35 35.6 43.15 Q35.8 41.95 35.6 41.1 35.45 40.3 35.65 39.15 35.85 38.05 35.65 37.15 L35.45 35.35" fill="none" stroke="#ffffff" stroke-linecap="round" stroke-linejoin="round" stroke-width="1.0"/>
    <path d="M26.7 30.2 Q27.5 30.2 28.0 30.65 28.55 31.05 28.55 31.7 28.55 32.3 28.0 32.75 L27.5 33.1 28.9 36.85 24.95 36.85 26.4 33.15 25.4 32.75 Q24.95 32.3 24.95 31.7 24.95 31.05 25.4 30.65 25.95 30.2 26.7 30.2" fill="#ffffff" fill-rule="evenodd" stroke="none"/>
    <path d="M8.9 24.65 L43.4 24.65" fill="none" stroke="#90c7b7" stroke-linecap="round" stroke-linejoin="round" stroke-width="1.0"/>
    <path d="M8.9 26.9 L43.4 26.9" fill="none" stroke="#90c7b7" stroke-linecap="round" stroke-linejoin="round" stroke-width="1.0"/>
    <path d="M13.9 15.65 L48.4 15.65" fill="none" stroke="#90c7b7" stroke-linecap="round" stroke-linejoin="round" stroke-width="1.0"/>
    <path d="M8.9 47.15 L43.4 47.15" fill="none" stroke="#90c7b7" stroke-linecap="round" stroke-linejoin="round" stroke-width="1.0"/>
  </g>
</svg>
