<?xml version="1.0" encoding="UTF-8" standalone="no"?>
<svg xmlns:xlink="http://www.w3.org/1999/xlink" height="50.35px" width="36.85px" xmlns="http://www.w3.org/2000/svg">
  <g transform="matrix(1.0, 0.0, 0.0, 1.0, -10.2, -3.8)">
    <path d="M39.15 37.3 L39.45 37.4 39.5 37.4 39.8 37.45 40.2 37.45 40.4 37.45 40.45 37.45 Q41.7 37.35 42.6 36.5 L42.65 36.5 Q43.65 35.45 43.65 34.05 43.65 32.65 42.65 31.65 41.7 30.75 40.45 30.7 L40.4 30.7 40.15 30.65 39.8 30.7 39.5 30.75 39.45 30.75 39.2 30.75 39.15 30.75 39.1 30.8 39.1 30.85 39.15 30.85 39.15 30.95 39.1 31.0 39.15 31.9 39.15 32.0 39.15 32.6 39.1 32.75 Q38.95 33.1 39.05 33.5 L39.15 34.15 39.15 35.65 39.1 35.85 39.1 36.75 39.15 36.8 39.15 36.9 39.1 36.95 39.1 37.25 39.15 37.3 M39.15 27.6 L39.15 27.85 39.6 27.8 40.2 27.8 40.55 27.8 40.65 27.8 Q43.0 27.9 44.65 29.6 L44.7 29.6 Q46.5 31.45 46.5 34.05 46.5 36.65 44.7 38.5 43.0 40.15 40.65 40.35 L40.55 40.35 40.4 40.35 40.2 40.35 39.6 40.3 39.15 40.25 39.1 40.25 39.05 40.35 Q38.9 40.7 39.05 41.1 L39.1 41.9 39.1 42.7 39.1 43.55 39.1 44.4 39.15 44.4 39.15 44.45 39.15 44.55 39.1 44.6 39.15 45.3 39.15 45.35 39.15 46.0 39.1 46.15 39.0 46.95 38.75 47.75 38.3 48.3 37.7 48.5 36.75 48.6 36.7 48.6 36.5 48.6 35.8 48.6 34.9 48.6 34.15 48.6 34.05 48.6 33.45 48.6 33.3 48.6 32.4 48.6 31.55 48.6 30.8 48.6 29.95 48.6 29.8 48.6 29.75 48.6 28.8 48.55 28.2 48.6 27.2 48.6 26.45 48.6 25.65 48.6 25.6 48.6 25.4 48.6 24.8 48.6 23.9 48.6 23.8 48.6 23.0 48.55 22.2 48.6 21.3 48.6 20.4 48.6 19.7 48.6 19.65 48.6 19.55 48.6 19.55 48.55 18.95 48.1 Q18.5 47.8 18.45 47.4 L18.3 46.6 18.35 45.85 18.3 44.85 18.25 44.45 18.25 43.45 18.3 43.25 18.3 42.5 18.3 42.45 18.25 42.45 18.25 42.35 18.3 42.35 18.3 42.3 18.3 41.5 18.35 40.65 18.35 39.75 18.3 38.95 18.3 38.15 18.3 37.35 18.25 36.6 18.25 36.55 18.25 35.95 18.3 35.75 18.25 35.7 18.25 35.6 18.3 35.6 18.3 35.55 18.25 35.2 18.25 34.75 18.25 33.9 18.25 33.05 18.25 33.0 18.3 32.25 18.3 31.45 18.3 30.65 18.25 29.75 18.3 28.95 18.3 28.9 18.25 28.9 18.25 28.8 18.3 28.8 18.35 27.9 18.3 27.1 18.3 26.3 18.3 25.5 18.35 24.65 18.4 23.8 Q18.4 23.4 18.7 23.0 L19.15 22.6 19.15 22.5 19.3 22.45 19.3 22.5 20.1 22.4 20.3 22.35 20.85 22.35 21.7 22.35 22.25 22.35 22.5 22.4 23.25 22.45 24.1 22.4 25.0 22.45 25.85 22.35 25.9 22.35 27.35 22.35 27.45 22.35 28.25 22.4 28.3 22.4 28.3 22.35 28.4 22.35 28.45 22.4 28.5 22.4 28.95 22.35 29.9 22.35 30.2 22.4 31.0 22.45 31.75 22.4 32.6 22.4 32.85 22.35 34.0 22.35 34.15 22.45 35.05 22.45 35.9 22.4 35.95 22.35 36.05 22.35 36.05 22.4 36.1 22.4 36.85 22.45 37.6 22.5 38.3 22.7 38.85 23.25 39.1 24.0 39.15 24.35 39.15 24.85 39.15 25.25 39.1 25.7 39.1 25.75 39.15 25.75 39.15 25.85 39.1 25.85 39.1 26.8 39.05 27.6 39.05 27.85 39.1 27.85 39.15 27.6 M39.15 40.35 L39.15 41.35 39.1 41.1 Q39.05 40.7 39.15 40.35 M26.85 3.8 L27.1 4.15 Q25.55 5.2 24.75 5.9 22.9 7.5 22.9 9.05 22.9 10.3 23.9 11.25 L26.05 12.75 28.2 14.25 Q29.2 15.25 29.2 16.6 29.2 17.4 28.25 18.25 L25.25 20.85 24.7 21.25 24.4 20.85 26.4 17.85 26.9 16.6 Q26.9 15.25 25.9 14.25 L23.7 12.75 21.5 11.25 Q20.55 10.3 20.55 9.05 20.55 7.5 22.75 6.1 L24.9 4.95 26.85 3.8 M31.45 7.5 L32.85 6.7 33.05 7.0 Q31.95 7.75 31.35 8.2 30.05 9.35 30.05 10.5 30.05 11.35 30.75 12.05 L32.25 13.1 Q33.4 13.75 33.85 14.2 34.55 14.9 34.55 15.9 34.55 16.45 33.9 17.05 L31.7 18.9 31.35 19.2 31.15 18.9 32.55 16.75 32.9 15.9 Q32.9 14.9 32.15 14.2 L30.65 13.1 29.1 12.05 Q28.35 11.35 28.35 10.5 28.35 9.35 29.95 8.4 L31.45 7.5 M39.1 23.6 L38.95 23.2 38.4 22.6 37.6 22.4 36.95 22.35 37.35 22.35 Q38.85 22.35 39.1 23.6 M18.9 22.65 L18.6 22.95 Q18.3 23.35 18.3 23.8 L18.25 24.65 18.25 24.15 Q18.25 23.05 18.9 22.65 M18.25 39.5 L18.3 39.75 18.25 40.65 18.25 39.5 M18.25 46.6 L18.35 47.4 Q18.4 47.85 18.85 48.15 L19.4 48.6 Q18.25 48.25 18.25 46.8 L18.25 46.6 M39.15 32.85 L39.15 33.65 39.1 33.5 Q39.05 33.15 39.15 32.85 M38.25 48.5 L38.35 48.4 38.85 47.8 39.1 46.95 39.15 46.35 39.15 46.8 Q39.15 48.1 38.25 48.5 M39.6 54.15 L17.65 54.15 14.4 53.95 Q12.8 53.6 11.7 52.55 L10.2 50.5 47.05 50.5 45.5 52.55 Q44.4 53.6 42.8 53.95 L39.6 54.15" fill="#90c7b7" fill-rule="evenodd" stroke="none"/>
    <path d="M39.15 37.3 L39.1 37.25 39.1 36.95 39.15 36.9 39.2 36.95 39.2 37.0 39.15 37.3 M39.15 36.8 L39.1 36.75 39.1 35.85 39.15 35.65 39.25 35.1 39.2 34.35 39.15 34.15 39.05 33.5 Q38.95 33.1 39.1 32.75 L39.15 32.6 39.15 32.0 39.15 31.9 39.1 31.0 39.15 30.95 39.2 31.0 39.2 31.05 39.15 31.3 39.15 31.5 39.25 31.85 Q39.4 32.45 39.15 32.75 L39.2 32.75 39.15 32.85 Q39.05 33.15 39.1 33.5 L39.15 33.65 39.3 34.35 39.35 35.1 39.35 35.15 39.2 35.85 39.2 36.75 39.2 36.8 39.15 36.8 M39.15 30.85 L39.1 30.85 39.1 30.8 39.15 30.75 39.2 30.75 39.2 30.85 39.15 30.85 M39.15 27.6 L39.1 27.85 39.05 27.85 39.05 27.6 39.1 26.8 39.1 25.85 39.15 25.85 39.2 25.85 39.2 26.8 39.15 27.4 39.15 27.6 M39.15 25.75 L39.1 25.75 39.1 25.7 39.15 25.25 39.15 24.85 39.15 24.35 39.1 24.0 38.85 23.25 38.3 22.7 37.6 22.5 36.85 22.45 36.1 22.4 36.05 22.4 36.05 22.35 36.05 22.3 36.1 22.3 36.9 22.35 36.95 22.35 37.6 22.4 38.4 22.6 38.95 23.2 39.1 23.6 39.2 23.95 39.3 24.85 39.2 25.75 39.15 25.75 M35.95 22.35 L35.9 22.4 35.05 22.45 34.15 22.45 34.0 22.35 33.45 22.3 32.85 22.35 32.6 22.4 31.75 22.4 31.0 22.45 30.2 22.4 29.9 22.35 29.35 22.3 28.95 22.35 28.5 22.4 28.45 22.4 28.4 22.35 28.4 22.3 28.45 22.3 29.35 22.2 30.2 22.3 30.95 22.3 31.8 22.3 32.6 22.3 33.4 22.15 34.2 22.3 34.3 22.35 35.0 22.35 35.05 22.35 35.9 22.3 35.95 22.35 M28.3 22.35 L28.3 22.4 28.25 22.4 27.45 22.35 27.35 22.35 26.65 22.25 25.9 22.35 25.85 22.35 25.0 22.45 24.1 22.4 23.25 22.45 22.5 22.4 22.25 22.35 21.7 22.35 20.85 22.35 20.3 22.35 20.1 22.4 19.3 22.5 19.3 22.45 19.3 22.4 20.05 22.3 20.9 22.25 21.7 22.25 22.55 22.3 22.85 22.35 23.05 22.35 23.25 22.3 24.1 22.3 24.65 22.35 25.0 22.35 25.35 22.35 25.8 22.25 25.85 22.25 26.65 22.15 27.4 22.25 28.25 22.3 28.3 22.3 28.3 22.35 M19.15 22.5 L19.15 22.6 18.7 23.0 Q18.4 23.4 18.4 23.8 L18.35 24.65 18.3 25.5 18.3 26.3 18.3 27.1 18.35 27.9 18.3 28.8 18.25 28.8 18.2 28.8 18.2 28.75 18.25 28.4 18.25 27.9 18.25 27.55 18.25 27.1 Q18.15 26.75 18.2 26.3 L18.2 25.5 18.25 24.7 18.25 24.65 18.3 23.8 Q18.3 23.35 18.6 22.95 L18.9 22.65 19.1 22.5 19.15 22.5 M18.25 28.9 L18.3 28.9 18.3 28.95 18.25 29.75 18.3 30.65 18.3 31.45 18.3 32.25 18.25 33.0 18.25 33.05 18.25 33.9 18.25 34.75 18.25 35.2 18.3 35.55 18.3 35.6 18.25 35.6 18.2 35.55 Q18.1 35.15 18.15 34.75 L18.15 33.9 18.15 33.05 18.2 32.25 18.2 31.45 18.2 30.65 18.15 29.75 Q18.1 29.3 18.2 28.95 L18.25 28.9 M18.25 35.7 L18.3 35.75 18.25 35.95 18.25 36.55 18.25 36.6 18.3 37.35 18.3 38.15 18.3 38.95 18.35 39.75 18.35 40.65 18.3 41.5 18.3 42.3 18.3 42.35 18.25 42.35 18.2 42.35 18.2 42.3 18.2 41.5 18.25 40.7 18.25 40.65 18.3 39.75 18.25 39.5 18.25 39.45 18.2 38.95 18.2 38.15 18.25 37.35 18.15 36.55 Q18.05 36.15 18.2 35.75 L18.25 35.7 M18.25 42.45 L18.3 42.45 18.3 42.5 18.3 43.25 18.25 43.45 18.2 43.95 18.25 44.45 18.3 44.85 18.35 45.85 18.3 46.6 18.45 47.4 Q18.5 47.8 18.95 48.1 L19.55 48.55 19.55 48.6 19.4 48.6 18.85 48.15 Q18.4 47.85 18.35 47.4 L18.25 46.6 18.25 45.85 18.25 45.8 18.25 45.1 18.25 44.9 18.1 43.95 18.2 43.2 18.2 42.55 18.2 42.5 18.25 42.45 M25.6 48.6 L25.65 48.6 26.45 48.6 27.2 48.6 27.2 48.65 27.95 48.7 28.2 48.6 28.8 48.55 29.75 48.6 29.8 48.6 29.8 48.65 29.75 48.65 29.75 48.7 29.55 48.6 28.85 48.6 28.75 48.6 27.95 48.8 27.2 48.75 26.45 48.65 25.65 48.7 25.6 48.65 25.6 48.6 M36.7 48.6 L36.75 48.6 37.7 48.5 38.3 48.3 38.75 47.75 39.0 46.95 39.1 46.15 39.15 46.0 39.15 45.35 39.15 45.3 39.1 44.6 39.15 44.55 39.2 44.55 39.2 44.6 39.3 45.35 39.2 46.2 39.15 46.35 39.1 46.95 38.85 47.8 38.35 48.4 38.25 48.5 38.1 48.55 38.05 48.55 38.0 48.6 37.7 48.6 37.35 48.6 37.0 48.6 36.75 48.7 36.7 48.65 36.7 48.6 M39.15 44.45 L39.15 44.4 39.1 44.4 39.1 43.55 39.1 42.7 39.1 41.9 39.05 41.1 Q38.9 40.7 39.05 40.35 L39.1 40.25 39.15 40.25 39.15 40.35 Q39.05 40.7 39.1 41.1 L39.15 41.35 39.15 41.9 39.15 42.05 39.15 42.7 39.15 42.85 39.15 43.55 39.2 44.4 39.15 44.45" fill="#ffffff" fill-rule="evenodd" stroke="none"/>
    <path d="M30.65 32.3 L31.25 31.05 30.65 32.3 M31.25 31.05 L33.4 32.05 Q34.8 32.75 34.15 34.15 L31.6 39.55 Q30.95 40.95 29.5 40.3 L24.15 37.7 Q22.7 37.05 23.35 35.7 L25.95 30.25 Q26.55 28.85 28.0 29.55 L30.35 30.7 31.25 31.05" fill="#ffffff" fill-rule="evenodd" stroke="none"/>
    <path d="M31.25 31.05 L33.9 25.4 M31.25 31.05 L30.65 32.3" fill="none" stroke="#90c7b7" stroke-linecap="round" stroke-linejoin="round" stroke-width="1.0"/>
    <path d="M30.35 30.7 L34.1 22.85" fill="none" stroke="#ffffff" stroke-linecap="round" stroke-linejoin="round" stroke-width="1.0"/>
  </g>
</svg>
