<?xml version="1.0" encoding="UTF-8" standalone="no"?>
<svg xmlns:xlink="http://www.w3.org/1999/xlink" height="60.0px" width="60.05px" xmlns="http://www.w3.org/2000/svg">
  <g transform="matrix(1.0, 0.0, 0.0, 1.0, 0.0, 0.0)">
    <path d="M0.0 60.0 L0.0 0.0 60.05 0.0 60.05 60.0 0.0 60.0" fill="#ffffff" fill-rule="evenodd" stroke="none"/>
    <path d="M42.9 27.5 L42.9 44.6 17.3 44.6 17.3 27.5 42.9 27.5" fill="#e66b7f" fill-rule="evenodd" stroke="none"/>
    <path d="M42.9 40.3 L43.25 42.45 Q43.5 43.05 42.9 44.6 L40.4 44.65 37.6 44.45 34.9 44.6 32.6 44.45 30.15 44.45 27.65 44.55 24.85 44.55 21.9 44.6 20.05 44.65 17.3 44.6 17.35 41.95 17.3 39.35 Q17.15 38.05 17.35 36.8 17.65 35.55 17.15 34.0 16.8 32.5 17.0 31.65 L17.25 30.1 17.3 27.5 Q18.8 27.35 19.85 27.5 L22.35 27.75 24.85 27.7 27.55 27.3 30.1 27.1 32.7 27.55 35.7 27.5 Q36.95 26.9 38.15 27.15 L39.75 27.45 42.9 27.5 Q43.35 28.35 43.15 29.9 L43.0 32.85 42.8 35.45 Q42.5 36.6 42.65 37.7 L42.9 40.3 Z" fill="none" stroke="#e66b7f" stroke-linecap="round" stroke-linejoin="round" stroke-width="0.5"/>
    <path d="M23.85 24.0 L23.85 30.35 Q23.85 32.95 25.75 34.85 27.55 36.65 30.15 36.65 32.7 36.65 34.55 34.85 36.35 32.95 36.35 30.35 L36.35 24.0 Q36.35 21.4 34.55 19.55 32.7 17.75 30.15 17.75 27.55 17.75 25.75 19.55 23.85 21.4 23.85 24.0 M37.45 16.65 Q40.5 19.75 40.5 24.0 L40.5 30.35 Q40.5 34.65 37.45 37.75 34.4 40.8 30.15 40.8 25.75 40.8 22.75 37.75 19.75 34.65 19.75 30.35 L19.75 24.0 Q19.75 19.75 22.75 16.65 25.75 13.6 30.15 13.6 34.4 13.6 37.45 16.65" fill="#e66b7f" fill-rule="evenodd" stroke="none"/>
    <path d="M19.75 24.0 Q19.3 25.2 19.45 26.65 19.65 28.15 19.4 28.8 19.1 29.5 19.75 30.35 L19.95 32.95 Q20.15 34.25 20.8 35.35 21.45 36.55 22.0 37.0 L22.75 37.75 Q23.65 38.7 24.95 39.25 26.25 39.9 26.85 39.9 27.5 40.0 30.15 40.8 L32.75 40.35 Q34.25 40.3 35.3 39.45 L36.5 38.6 37.45 37.75 Q38.1 36.6 38.95 35.9 39.85 35.15 40.0 33.55 40.2 31.9 40.65 31.35 41.1 30.8 40.5 30.35 L40.55 27.75 40.55 25.55 40.5 24.0 Q40.1 22.45 40.0 21.35 L39.4 19.2 38.55 17.45 Q38.15 16.8 37.45 16.65 36.85 15.2 35.35 14.9 L33.6 14.55 30.15 13.6 Q29.25 13.55 27.9 14.1 L25.45 15.15 23.55 15.8 Q22.85 16.05 22.75 16.65 21.6 17.6 21.0 18.75 L20.15 20.4 19.75 24.0 M24.25 21.9 L25.75 19.55 Q27.2 19.2 27.5 18.6 27.9 18.1 30.15 17.75 31.8 17.6 32.5 18.2 L34.55 19.55 35.7 21.35 36.35 24.0 Q36.15 25.05 36.35 26.45 L36.65 28.55 Q36.85 29.25 36.35 30.35 L36.0 32.2 34.55 34.85 32.85 35.7 30.15 36.65 28.15 36.4 Q27.55 36.45 25.75 34.85 L24.6 33.1 23.85 30.35 23.85 27.7 23.85 25.7 23.85 24.0 Q23.95 22.45 24.25 21.9 Z" fill="none" stroke="#e66b7f" stroke-linecap="round" stroke-linejoin="round" stroke-width="1.0"/>
    <path d="M32.5 34.85 Q32.5 35.8 31.8 36.55 31.15 37.25 30.15 37.25 29.2 37.25 28.5 36.55 27.75 35.9 27.75 34.85 27.75 33.85 28.5 33.2 29.2 32.5 30.15 32.5 31.15 32.5 31.8 33.2 32.5 33.85 32.5 34.85" fill="#ffffff" fill-rule="evenodd" stroke="none"/>
    <path d="M27.45 40.75 L30.15 34.85 32.85 40.75 27.45 40.75" fill="#ffffff" fill-rule="evenodd" stroke="none"/>
  </g>
</svg>
