<?xml version="1.0" encoding="UTF-8" standalone="no"?>
<svg xmlns:xlink="http://www.w3.org/1999/xlink" height="62.1px" width="62.4px" xmlns="http://www.w3.org/2000/svg">
  <g transform="matrix(1.0, 0.0, 0.0, 1.0, 1.2, 0.9)">
    <path d="M24.3 -0.1 L20.95 0.3 17.9 0.2 15.1 -0.1 12.4 0.05 9.25 0.05 5.8 0.0 2.8 0.1 Q1.65 0.15 0.85 1.15 0.1 2.2 0.05 3.3 L0.05 6.05 0.05 9.15 -0.1 12.0 -0.1 15.1 Q0.0 16.85 -0.15 18.15 L-0.25 20.9 Q-0.25 22.4 0.2 23.9 0.65 25.4 0.45 26.7 L0.15 30.0 0.05 33.5 -0.05 36.2 0.05 38.7 Q0.2 40.0 -0.05 41.7 L-0.15 45.05 Q-0.05 46.7 -0.1 48.3 L-0.25 51.25 -0.45 54.0 Q-0.55 55.4 0.05 56.9 0.65 58.4 0.3 59.4 L0.15 59.95 3.05 59.75 6.1 59.9 9.05 60.0 12.05 60.35 14.9 60.25 17.85 60.0 20.95 60.0 23.65 59.8 26.9 59.5 30.55 59.65 33.5 60.15 36.25 60.2 39.0 59.85 Q40.4 59.7 41.85 59.85 L44.65 60.0 47.65 60.0 50.7 59.7 Q52.05 59.4 53.75 59.7 L56.95 59.8 Q58.45 59.6 59.05 59.05 59.65 58.5 60.1 57.15 60.6 55.8 60.3 54.2 L59.85 50.95 59.6 47.95 Q59.5 46.6 59.7 45.1 L59.85 42.35 59.6 39.25 Q59.45 37.4 59.95 35.8 60.5 34.2 59.9 32.7 59.3 31.25 59.7 29.9 L60.25 27.1 Q60.4 25.6 60.2 24.25 L59.9 21.05 59.8 18.05 Q59.8 16.9 60.1 15.25 60.45 13.6 60.0 11.9 59.55 10.2 60.0 8.9 60.5 7.6 60.4 6.1 60.35 4.65 60.45 3.15 60.55 1.65 59.5 1.0 58.5 0.4 57.15 0.05 L53.85 -0.05 50.6 0.0 48.15 -0.1 45.3 0.25 Q43.6 0.55 42.2 0.25 L39.2 -0.05 36.25 -0.05 32.9 0.15 30.0 0.2 27.65 -0.1 24.3 -0.1 Z" fill="none" stroke="#65b3a0" stroke-linecap="round" stroke-linejoin="round" stroke-width="1.5"/>
  </g>
</svg>
