<?xml version="1.0" encoding="UTF-8" standalone="no"?>
<svg xmlns:xlink="http://www.w3.org/1999/xlink" height="422.85px" width="574.9px" xmlns="http://www.w3.org/2000/svg">
  <g transform="matrix(1.0, 0.0, 0.0, 1.0, 1.0, 0.95)">
    <path d="M573.0 420.95 L0.0 420.95 0.0 0.0 573.0 0.0 573.0 420.95" fill="#ffffff" fill-rule="evenodd" stroke="none"/>
    <path d="M10.75 -0.1 L8.95 0.05 6.9 0.0 4.95 0.05 2.9 0.05 Q1.85 -0.05 1.15 0.4 L0.2 1.4 Q-0.05 1.95 -0.05 2.95 L0.05 5.0 0.15 6.95 0.1 9.0 0.0 11.05 -0.1 13.2 -0.1 15.15 0.0 16.95 -0.05 19.0 -0.15 21.0 0.0 23.05 0.2 25.05 Q0.25 25.95 -0.1 26.8 -0.45 27.7 -0.25 28.95 L0.0 31.25 0.05 33.25 -0.05 35.15 -0.1 37.0 0.1 38.8 0.2 41.05 0.2 43.35 0.2 45.25 0.05 47.1 0.05 48.95 0.1 51.0 -0.1 53.15 -0.2 55.15 0.0 56.95 0.0 58.95 -0.15 61.0 -0.1 63.15 -0.2 65.15 -0.1 67.15 0.2 69.1 0.25 70.95 0.2 73.15 0.15 75.15 0.0 76.85 -0.2 78.8 -0.15 80.95 0.0 82.8 0.05 84.7 0.05 86.75 0.0 89.05 0.05 91.3 0.15 93.25 -0.1 95.1 -0.4 97.15 Q-0.45 98.3 0.0 99.1 0.45 99.9 0.4 101.15 0.4 102.45 0.0 103.2 -0.4 104.0 -0.3 104.85 L-0.1 106.7 0.05 108.6 0.05 110.65 0.1 112.85 Q0.25 113.95 0.05 114.9 L-0.3 116.85 -0.25 118.95 0.0 121.0 -0.05 123.0 -0.05 124.95 -0.2 126.9 Q-0.35 127.95 -0.05 128.9 0.25 129.85 0.1 130.9 L-0.1 132.95 Q-0.2 133.9 0.1 134.75 L0.45 136.65 Q0.5 137.75 0.15 138.9 L-0.1 141.0 -0.05 142.7 -0.2 144.65 -0.25 146.9 Q-0.15 148.0 -0.35 149.1 L-0.5 151.05 -0.5 153.15 -0.35 155.2 -0.1 156.95 -0.05 158.85 -0.1 160.8 0.2 163.1 0.45 165.15 0.2 167.15 -0.05 169.35 -0.15 171.15 Q-0.3 171.95 0.05 172.85 0.4 173.75 0.25 174.9 L0.0 177.05 -0.1 179.0 0.1 181.15 0.05 183.2 -0.05 184.9 -0.1 186.65 -0.15 188.75 0.2 191.05 Q0.4 192.05 0.2 193.05 L0.0 194.9 0.25 196.65 Q0.5 197.6 0.1 198.6 -0.25 199.6 -0.25 200.8 L-0.2 203.0 -0.1 204.95 0.1 206.95 Q0.25 208.0 -0.1 208.9 -0.4 209.8 -0.2 210.9 0.05 212.0 -0.2 213.0 -0.45 214.0 -0.2 214.95 0.1 215.9 0.0 216.9 L-0.05 218.7 0.05 220.8 Q0.15 222.1 -0.1 223.25 -0.35 224.4 -0.05 225.25 0.3 226.15 0.1 227.25 L-0.1 229.0 -0.2 230.85 -0.1 233.05 0.0 235.05 -0.15 236.75 -0.1 238.6 0.2 240.8 Q0.35 241.95 0.15 242.95 L-0.2 245.1 Q-0.4 246.2 -0.2 247.2 L0.2 249.15 Q0.45 250.1 0.3 251.05 L0.2 252.85 0.15 254.75 0.05 256.7 -0.25 258.8 Q-0.5 260.0 -0.1 261.15 0.35 262.35 0.15 263.2 0.0 264.05 0.25 265.0 0.5 266.0 0.25 267.05 L0.0 268.95 -0.2 270.95 Q-0.35 272.2 -0.15 273.1 0.1 274.0 -0.05 274.95 L-0.05 277.0 0.0 279.0 -0.05 281.05 -0.05 283.1 -0.1 285.05 0.05 287.05 Q0.2 288.15 -0.15 289.05 -0.45 290.0 -0.2 290.95 L0.1 293.2 0.1 295.05 -0.1 296.95 0.05 298.95 Q0.3 299.65 0.15 300.9 0.0 302.2 0.15 303.0 L0.25 304.9 -0.05 306.85 -0.25 309.05 -0.1 311.15 -0.05 312.75 Q0.0 313.7 -0.25 315.0 -0.5 316.3 -0.15 317.05 0.2 317.85 0.15 318.8 L0.1 320.75 0.05 323.0 0.0 325.15 0.2 327.0 0.35 328.9 0.1 330.9 -0.15 333.1 -0.2 335.2 -0.1 337.1 -0.1 339.0 -0.1 341.15 0.15 343.15 Q0.4 344.0 0.1 345.0 L-0.1 346.95 0.1 348.95 -0.15 351.15 Q-0.45 352.3 -0.35 353.15 L-0.25 355.05 -0.1 357.1 0.0 359.1 0.05 360.95 0.05 363.1 0.0 364.95 -0.15 366.6 Q-0.3 367.6 0.05 368.75 L0.4 371.15 0.0 373.0 Q-0.3 373.7 -0.15 375.05 L-0.1 377.1 -0.3 378.65 -0.2 380.55 0.0 382.8 -0.05 385.0 0.15 386.75 Q0.4 387.55 -0.05 388.75 -0.5 390.0 -0.3 391.2 L0.2 393.25 Q0.45 394.15 0.3 395.15 L0.3 397.05 Q0.45 398.0 0.1 399.0 -0.2 400.0 -0.1 401.1 0.0 402.2 -0.15 403.0 L0.0 404.75 Q0.35 405.65 0.35 407.0 L0.25 409.15 0.0 411.1 0.0 413.25 -0.1 415.1 -0.3 417.2 -0.25 419.1 0.5 420.45 Q1.15 421.25 2.3 421.25 L4.3 421.25 5.95 421.1 7.9 420.9 10.05 420.95 11.95 421.05 14.0 421.0 16.2 421.0 18.1 421.1 19.9 420.9 21.95 420.6 24.1 421.0 26.1 421.3 28.25 421.4 30.25 421.1 32.05 420.9 34.05 421.2 35.95 420.9 38.05 420.7 40.3 420.95 42.2 420.95 44.1 421.05 46.2 421.0 48.35 420.85 50.2 421.15 51.9 421.3 54.15 421.2 56.4 420.85 Q57.3 420.55 58.2 420.85 L60.15 421.05 62.15 420.8 64.3 420.75 66.55 420.9 68.35 421.0 70.1 421.05 72.1 420.8 74.1 420.5 76.1 420.65 78.15 421.0 80.0 421.2 81.95 421.1 Q83.1 420.95 84.15 421.1 L86.15 420.95 87.95 420.8 89.9 421.0 92.15 421.0 94.1 420.75 95.95 420.7 98.05 420.85 100.25 420.7 102.3 420.8 104.2 421.15 106.15 420.85 107.95 420.75 109.75 420.8 111.85 420.75 114.1 420.8 116.0 420.65 118.0 420.75 120.05 420.9 122.2 420.9 124.1 420.8 Q124.85 420.65 125.95 420.8 L128.1 421.05 130.0 420.9 Q130.9 420.65 132.05 420.9 L134.3 421.25 136.1 421.25 137.85 420.85 140.2 420.75 142.25 420.95 144.05 420.95 146.0 420.95 148.0 420.95 150.1 421.0 152.05 420.75 153.85 420.7 156.0 421.0 157.85 421.05 159.8 421.2 162.0 421.15 164.2 421.0 166.2 420.9 168.05 420.8 170.05 420.65 172.2 420.75 174.05 421.05 175.95 420.8 177.9 420.85 179.9 421.0 182.0 420.65 184.1 420.6 186.2 420.9 188.05 420.8 190.1 420.75 192.05 420.95 194.15 420.95 196.15 420.9 198.05 420.65 200.0 420.5 202.05 420.75 204.15 420.9 206.1 420.9 208.0 420.7 209.75 420.65 Q210.6 420.85 211.85 420.65 213.1 420.5 214.1 420.65 L216.15 420.9 218.1 421.1 220.1 421.2 222.2 420.9 224.2 420.95 Q225.15 421.3 226.0 420.95 L228.15 420.75 230.2 421.05 232.05 421.05 234.15 421.0 236.1 420.85 238.1 420.6 240.0 420.7 241.85 420.95 244.15 420.9 246.45 420.85 248.3 420.9 249.95 420.95 251.85 421.0 254.05 421.1 256.05 421.1 258.0 421.15 260.35 421.15 262.15 420.9 263.9 420.8 265.9 421.1 267.7 421.15 269.75 420.8 Q270.85 420.65 272.0 420.8 L274.1 420.9 276.05 420.95 278.2 420.95 280.2 420.95 282.05 420.8 284.0 420.75 285.85 420.8 287.8 420.85 290.05 420.75 292.05 420.9 293.9 421.15 296.0 421.0 297.85 420.85 299.9 420.75 302.3 420.65 304.2 420.85 306.0 421.05 308.15 421.0 310.15 420.9 312.25 420.9 314.2 420.95 316.1 420.85 318.3 420.9 320.3 421.0 322.15 420.95 324.35 420.95 326.3 420.85 328.3 420.7 330.2 420.8 331.95 420.9 333.9 420.7 335.85 420.75 338.25 420.8 340.15 420.8 341.8 420.9 344.15 421.0 346.35 421.0 348.15 421.15 349.95 421.05 351.95 420.8 353.85 420.95 356.1 421.1 358.3 421.2 360.1 420.95 362.1 420.85 364.25 420.95 366.25 420.95 368.1 421.05 370.05 421.05 372.05 420.95 374.15 420.85 376.1 421.05 378.25 421.15 380.3 420.9 381.9 420.9 383.9 420.95 386.3 420.8 388.3 420.85 390.2 421.0 392.3 421.0 394.1 421.0 396.1 420.95 398.1 421.0 400.1 420.95 402.05 421.0 404.3 421.05 406.3 421.0 408.25 421.0 410.4 421.0 412.05 421.1 413.75 421.15 415.8 420.9 417.8 420.85 420.05 420.9 422.2 420.85 424.3 420.95 426.45 421.0 428.05 420.9 429.9 421.15 Q431.1 421.4 432.1 421.15 L434.2 420.95 436.25 421.1 438.15 421.15 440.25 421.0 442.25 420.95 444.1 420.9 446.05 420.65 448.25 420.45 450.3 420.7 452.15 420.95 454.15 420.95 456.1 420.8 Q457.15 420.65 458.1 420.8 L460.05 420.9 462.05 420.8 464.0 420.85 465.85 420.7 467.95 420.75 470.35 420.95 472.25 421.1 474.05 421.0 476.25 420.85 478.3 420.85 480.25 420.75 482.2 421.05 484.3 421.1 Q485.5 420.95 486.4 421.1 L488.2 421.1 490.3 420.8 492.25 420.95 494.05 421.1 496.15 420.95 498.25 420.75 500.2 420.95 502.1 420.9 504.2 420.6 506.15 421.05 508.05 421.15 510.05 420.9 512.1 420.9 513.95 421.1 515.75 421.1 517.7 421.05 520.0 421.0 522.25 420.9 524.15 420.95 526.3 420.95 528.3 420.9 530.1 420.7 532.2 420.85 534.2 421.2 536.1 421.0 538.15 420.9 540.15 421.0 542.0 420.9 543.75 420.65 546.05 420.9 548.2 421.05 550.1 420.95 552.05 421.0 553.85 421.1 555.9 421.25 558.0 421.1 560.15 420.8 562.15 420.6 564.2 420.65 566.0 420.7 568.05 420.9 570.3 421.1 571.65 420.65 Q572.15 420.35 572.45 419.55 L572.8 417.95 572.75 416.0 572.6 413.85 Q572.55 412.85 572.75 411.95 573.0 411.05 572.9 409.8 572.85 408.6 572.95 407.75 L572.95 405.85 572.95 403.75 572.95 401.8 573.15 399.85 Q573.35 398.85 573.15 397.8 L572.95 396.05 572.8 394.35 572.6 391.9 572.8 389.6 572.95 387.7 572.8 385.9 Q572.65 385.2 572.85 384.0 L573.2 381.75 Q573.35 380.7 573.15 379.95 L572.8 378.1 Q572.6 377.0 572.95 375.95 573.3 374.9 573.15 373.85 L573.05 371.85 573.25 369.75 Q573.4 368.55 573.2 367.75 573.0 367.0 573.05 365.95 L573.05 363.9 572.9 361.9 572.9 359.7 573.0 357.9 573.05 355.85 573.2 353.4 573.15 351.45 573.1 349.7 573.2 347.85 573.4 345.9 573.35 343.9 573.1 341.9 572.9 339.7 572.9 337.6 573.0 335.8 573.05 333.95 572.95 331.85 572.7 329.9 572.6 327.85 Q572.6 326.5 572.9 325.65 L573.05 323.85 572.95 321.9 573.0 319.9 573.1 317.6 573.1 315.5 Q573.0 314.65 573.05 313.65 L573.1 311.8 573.05 309.9 573.0 307.85 572.8 305.85 Q572.6 304.9 572.7 303.75 L573.1 301.7 Q573.45 300.85 573.35 299.85 L573.3 297.9 573.2 295.65 573.15 293.6 573.15 292.05 Q573.0 291.25 573.0 289.95 L572.95 287.75 572.9 286.05 572.95 284.05 573.15 281.7 Q573.35 280.6 573.05 279.8 572.75 279.05 572.8 277.9 L573.0 276.0 Q573.2 275.3 573.05 274.1 L572.8 271.9 Q572.7 270.95 572.85 269.95 L572.95 268.05 573.0 266.0 573.1 263.85 572.95 261.7 572.9 259.6 Q573.0 258.7 573.25 257.75 573.5 256.85 573.3 255.65 573.1 254.5 573.2 253.9 L573.05 252.25 572.75 250.3 572.95 248.3 573.2 245.9 573.2 243.75 573.05 241.9 572.9 239.8 572.75 237.8 572.65 235.9 572.9 233.9 Q573.2 232.85 573.1 231.95 573.0 231.05 573.2 229.85 573.45 228.65 573.0 227.75 572.55 226.9 572.8 225.7 L573.0 223.8 573.2 222.0 Q573.4 220.85 573.0 219.7 572.65 218.6 572.8 217.65 L573.0 215.75 573.0 213.75 573.0 211.9 573.0 209.85 573.0 207.8 573.0 206.05 572.8 204.05 572.75 201.9 572.9 199.85 Q572.9 198.85 573.2 197.95 573.5 197.05 573.2 195.9 572.95 194.8 573.0 193.9 L573.0 191.75 572.9 189.7 572.8 188.0 572.85 186.2 572.95 184.1 Q572.95 182.85 573.1 181.65 573.25 180.5 573.05 179.75 572.9 179.0 572.9 178.1 L572.95 176.0 573.0 173.9 572.95 172.0 Q572.9 170.95 573.15 169.9 573.4 168.85 573.25 167.65 L572.95 165.8 Q572.8 165.15 572.95 164.0 L573.25 161.95 573.2 159.9 Q573.0 158.85 573.2 157.7 573.4 156.55 573.2 155.55 L573.0 153.6 573.0 151.85 572.85 149.9 Q572.75 148.7 572.9 147.85 L573.0 145.9 573.1 143.95 573.25 141.85 573.25 139.8 573.35 137.9 Q573.5 136.75 573.25 135.9 573.0 135.05 573.2 133.95 573.4 132.85 573.2 131.8 L573.0 129.7 573.1 127.8 573.3 125.9 573.15 124.1 572.95 122.0 Q572.9 120.75 573.0 119.7 L573.0 117.8 573.1 116.05 Q573.3 115.2 573.0 114.25 572.7 113.3 572.85 112.05 L573.0 109.7 572.9 107.9 572.8 105.9 Q572.75 104.55 572.85 103.6 L573.1 101.8 Q573.3 100.95 573.1 100.05 572.95 99.15 572.95 97.85 L572.85 95.55 572.8 93.7 573.15 91.85 Q573.4 90.9 573.1 89.9 L572.85 87.95 572.9 85.95 573.1 83.85 573.35 81.75 573.4 79.65 Q573.45 78.7 573.0 77.75 572.6 76.85 572.8 75.8 L573.25 73.8 Q573.5 72.8 573.25 71.9 L572.95 69.7 572.95 67.6 573.0 66.05 573.1 64.05 573.15 61.95 573.05 59.85 573.0 57.75 573.0 55.8 573.0 53.7 573.1 51.7 573.2 49.65 573.2 47.75 573.05 45.8 572.95 43.65 573.2 41.5 Q573.45 40.45 573.3 39.5 L573.1 37.8 573.2 35.8 Q573.3 34.6 573.05 33.7 572.8 32.8 573.1 31.8 573.4 30.85 573.2 29.95 L573.0 27.95 572.95 25.7 572.95 23.9 572.85 21.95 572.6 19.8 Q572.55 18.9 572.75 17.9 573.0 16.95 572.85 16.1 572.75 15.25 572.8 14.2 L572.7 12.05 Q572.55 10.95 572.7 9.8 L572.8 7.75 572.9 5.85 Q573.05 4.9 572.8 3.8 572.55 2.75 572.75 2.5 L573.0 0.0 571.0 -0.2 568.85 0.0 566.9 0.35 564.9 -0.05 563.1 -0.15 560.9 0.0 558.9 0.0 556.95 -0.2 554.85 -0.15 552.8 0.35 550.6 0.15 548.9 -0.1 547.15 0.0 544.95 -0.1 542.85 -0.3 541.15 -0.2 539.15 0.15 536.85 0.15 534.95 0.0 533.2 -0.25 Q532.45 -0.45 531.2 -0.25 L529.05 0.0 527.05 0.0 524.95 0.0 523.0 0.0 520.95 -0.05 519.0 -0.1 517.05 -0.1 514.95 0.0 513.2 0.0 511.0 -0.05 508.85 0.05 506.95 0.2 504.65 0.1 502.8 0.05 501.0 0.1 499.05 0.2 497.25 0.4 495.35 0.4 493.3 0.25 490.95 0.15 488.9 0.0 Q488.25 -0.2 486.95 0.0 L485.05 0.15 483.2 -0.1 481.0 -0.2 479.15 -0.1 476.95 0.05 474.85 -0.1 472.85 -0.4 470.85 -0.2 469.2 0.0 467.05 0.25 465.15 0.35 463.2 -0.05 460.75 -0.3 458.75 -0.05 456.9 0.05 454.8 0.2 452.95 -0.05 451.0 -0.2 448.95 0.0 447.0 -0.05 445.2 0.0 443.15 0.0 440.85 0.05 439.05 0.05 437.15 0.2 435.0 0.0 Q434.0 -0.45 433.05 0.0 432.15 0.45 430.9 0.0 L428.9 -0.25 427.25 -0.05 425.15 0.1 423.0 0.15 420.9 -0.05 418.95 -0.25 416.95 -0.3 415.0 -0.2 413.05 -0.25 411.0 -0.2 409.0 -0.1 406.9 0.0 405.1 -0.1 403.2 -0.1 400.8 0.0 398.85 0.0 397.0 0.1 395.0 0.1 393.05 -0.05 391.0 0.05 389.0 0.1 386.8 0.1 384.7 -0.1 382.9 -0.15 380.9 0.05 379.15 0.0 377.2 -0.2 Q376.0 -0.4 375.0 -0.2 L372.9 0.0 370.9 -0.05 369.1 -0.1 367.05 -0.1 365.2 0.0 363.25 0.05 361.0 0.05 359.0 0.05 357.1 0.2 355.1 0.2 352.95 0.05 351.1 0.0 349.1 0.0 347.0 -0.15 345.15 0.0 343.1 0.15 340.85 -0.05 338.75 -0.2 336.85 -0.4 334.95 0.0 333.05 0.25 331.3 0.1 329.15 0.05 326.85 -0.05 325.05 0.15 323.35 0.1 Q322.45 -0.1 321.3 0.1 320.2 0.3 319.2 0.1 L317.25 -0.05 315.15 0.05 313.25 -0.15 311.05 -0.3 308.75 -0.35 306.75 -0.3 304.8 0.0 302.9 0.0 300.8 -0.05 298.85 -0.15 Q298.05 -0.35 297.1 -0.15 L295.15 0.25 293.05 0.35 291.05 0.05 288.95 -0.15 286.9 -0.1 284.8 -0.05 283.05 0.05 281.35 0.05 279.15 0.25 Q278.0 0.5 277.2 0.25 L275.3 0.0 273.1 -0.05 271.05 -0.05 269.15 0.05 267.1 0.05 264.95 -0.1 262.95 -0.3 260.9 0.0 258.95 0.35 257.05 0.15 255.1 0.1 253.15 0.15 251.05 -0.05 249.0 0.0 247.0 -0.05 245.0 -0.05 242.75 -0.2 Q241.5 -0.4 240.8 -0.2 L239.05 0.0 237.0 0.1 235.1 -0.1 233.0 -0.2 230.9 -0.25 Q230.05 -0.45 229.05 -0.25 L227.05 0.0 225.0 0.0 223.1 0.0 221.2 -0.1 218.85 -0.2 216.7 -0.3 214.85 -0.2 213.0 -0.1 210.85 0.05 208.65 0.15 206.95 -0.25 Q206.05 -0.45 205.0 -0.25 L202.8 0.1 200.7 0.2 198.9 0.1 197.2 -0.1 195.25 0.05 193.05 0.1 191.0 0.1 189.1 0.35 187.15 0.45 185.05 0.15 183.15 -0.3 181.15 -0.25 179.1 0.15 Q178.2 0.35 177.1 0.15 L175.0 0.0 173.2 -0.05 171.1 0.0 168.85 0.05 167.1 -0.1 165.1 -0.1 163.05 -0.05 160.95 -0.05 158.9 -0.05 157.0 0.05 154.9 0.05 152.95 -0.05 151.15 -0.2 149.35 -0.1 147.05 0.1 144.85 -0.05 143.1 -0.05 141.1 0.0 139.0 -0.05 137.0 -0.25 Q136.05 -0.45 135.15 -0.25 L133.3 0.1 131.15 0.1 129.1 0.05 126.85 0.3 124.7 0.25 122.95 0.15 121.0 0.35 119.05 0.4 117.05 0.2 114.9 0.05 112.85 0.15 111.1 0.2 109.05 0.25 106.95 0.1 105.0 -0.25 102.95 -0.3 100.95 -0.15 99.0 -0.25 96.95 -0.45 95.0 -0.45 93.05 -0.45 90.9 -0.3 88.9 0.1 87.0 0.15 84.85 0.0 82.9 -0.15 80.8 -0.15 78.75 0.25 76.8 0.1 75.0 0.0 73.1 -0.05 71.1 -0.2 69.15 0.0 67.0 -0.2 64.85 -0.25 Q63.7 -0.1 62.8 -0.25 L61.0 -0.4 59.15 -0.2 57.05 0.2 Q55.95 0.4 54.8 0.2 L52.9 0.0 51.0 0.0 48.95 -0.15 47.1 -0.1 45.1 0.2 43.0 0.1 40.9 -0.25 Q39.85 -0.45 39.1 -0.25 L37.0 -0.05 34.85 -0.05 32.9 0.0 30.85 0.0 29.05 -0.25 Q28.15 -0.45 27.1 -0.25 L25.0 0.0 23.0 0.15 21.25 0.15 19.25 0.0 16.85 -0.1 14.95 -0.1 12.85 -0.2 10.75 -0.1 Z" fill="none" stroke="#ffffff" stroke-linecap="round" stroke-linejoin="round" stroke-width="1.0"/>
    <path d="M568.1 5.05 L566.15 5.2 564.25 5.35 562.25 5.45 560.1 5.25 558.3 5.2 556.3 5.15 553.9 5.0 552.05 5.2 549.95 5.25 547.85 5.15 546.1 5.35 544.25 5.3 542.2 5.1 540.2 5.25 538.2 5.1 536.05 5.0 534.2 5.05 532.1 4.95 529.9 4.9 527.85 4.9 525.85 5.05 523.95 4.8 522.15 4.6 520.15 4.7 518.1 4.8 516.2 5.0 514.0 5.1 511.7 5.05 509.9 5.05 508.15 5.05 506.15 4.85 504.1 4.9 502.1 5.25 500.05 5.4 498.1 5.2 496.1 5.15 494.2 5.15 492.2 5.05 490.05 5.0 488.1 5.0 486.3 5.0 484.25 5.0 482.0 4.9 480.0 4.85 478.1 5.05 476.1 5.15 474.1 5.15 472.1 5.05 470.0 5.2 468.05 5.25 466.1 5.05 464.05 5.25 Q463.1 5.45 461.95 5.25 L459.85 5.05 458.0 4.95 455.85 5.0 453.8 4.95 452.15 4.9 450.1 5.25 447.95 5.4 446.05 5.05 444.35 5.1 442.3 5.2 440.1 5.1 438.1 5.05 436.2 4.95 434.2 4.9 432.15 5.1 430.3 5.2 428.3 5.0 426.05 5.0 424.15 5.05 422.2 5.15 420.1 5.15 417.95 5.25 415.75 5.2 413.8 5.0 411.8 5.0 409.85 5.05 408.0 5.05 406.05 5.2 403.9 5.0 Q402.75 4.65 401.8 5.0 L400.0 5.25 398.1 5.1 396.0 5.15 394.1 5.0 392.25 4.85 390.35 5.0 388.3 5.15 385.85 5.05 383.8 4.9 382.25 4.9 380.3 5.2 378.0 5.45 375.85 5.2 373.7 5.15 371.85 5.2 370.3 5.15 368.3 5.15 365.95 5.2 Q364.85 5.4 363.95 5.2 L361.85 4.9 359.8 5.0 357.8 5.15 355.85 5.2 354.1 5.25 352.1 5.05 350.15 5.0 348.1 5.0 345.85 5.0 343.85 5.05 342.3 5.0 340.2 5.0 338.0 5.05 336.15 5.05 334.1 5.05 332.05 4.95 330.05 5.0 328.0 5.05 326.05 5.0 324.1 5.05 322.25 5.15 320.25 5.1 318.1 4.85 316.0 4.8 314.05 4.95 311.95 5.15 309.9 5.2 308.1 5.0 305.9 4.95 304.05 5.1 302.45 4.9 300.05 4.8 298.1 4.9 296.4 4.9 294.2 5.15 292.15 5.05 Q291.15 4.75 290.05 5.05 L288.3 5.25 286.15 4.85 283.9 4.8 282.1 5.15 280.0 5.05 277.95 4.9 276.05 5.2 274.0 5.2 272.05 5.1 270.25 5.1 268.2 5.05 266.2 5.0 264.4 4.95 262.25 5.2 259.9 5.35 258.0 4.95 256.1 4.85 253.95 5.15 251.85 5.25 249.8 4.95 248.0 4.85 246.3 5.15 244.45 5.05 242.3 5.0 240.05 5.05 238.2 5.0 236.2 5.0 234.15 5.05 232.15 5.2 230.1 5.15 228.1 4.95 226.1 4.95 224.1 4.9 222.0 5.0 219.9 4.95 218.15 4.8 216.3 5.0 214.2 5.05 212.35 4.7 210.3 4.75 208.2 5.0 206.35 5.25 204.25 5.3 202.2 5.05 200.35 4.8 198.4 5.0 196.1 5.15 194.0 4.8 192.2 4.8 190.0 4.95 187.95 5.05 186.0 5.05 183.85 5.15 181.75 5.15 179.85 5.0 178.05 5.25 Q177.05 5.5 175.95 5.25 L174.15 5.0 172.5 4.95 170.35 5.2 168.25 5.4 166.2 5.35 164.15 5.15 Q163.15 4.95 162.1 5.15 L160.1 5.2 158.1 5.15 156.1 5.25 154.3 5.1 152.1 5.05 149.75 5.0 147.95 4.85 146.05 4.9 143.9 5.15 141.95 5.15 140.1 5.0 138.25 4.95 136.15 5.0 134.05 5.0 132.1 5.15 130.1 5.25 128.2 5.15 126.25 4.9 124.1 4.85 122.05 5.3 120.05 5.2 117.95 5.05 115.85 5.3 113.8 5.25 112.15 5.2 110.2 5.05 108.0 4.9 106.1 5.05 104.05 5.05 102.05 5.15 100.1 4.9 97.95 4.85 96.0 5.05 94.35 4.85 92.25 4.65 89.95 4.8 87.9 5.05 85.85 4.8 84.0 4.6 82.1 4.75 80.1 5.05 78.1 4.85 Q77.15 4.55 76.3 4.85 L74.2 4.9 72.05 5.0 70.15 5.25 68.1 5.2 66.1 5.15 64.1 4.75 62.0 4.8 60.25 5.05 58.3 5.05 56.05 5.2 53.9 5.2 51.7 5.1 50.05 5.0 48.3 4.75 46.35 5.0 44.15 5.15 41.95 5.0 40.15 5.05 38.2 5.25 Q37.2 5.5 36.15 5.25 L34.3 5.15 32.25 5.15 30.1 5.0 28.05 4.8 26.15 4.7 24.2 5.05 22.1 5.45 20.2 5.35 18.15 5.15 16.05 5.25 13.95 5.2 11.8 5.05 10.05 5.05 8.05 5.3 Q6.7 5.55 6.55 5.3 6.45 5.05 5.55 5.05 5.25 6.05 5.3 7.2 5.35 8.4 5.65 9.3 6.0 10.2 5.8 11.05 L5.55 12.95 5.55 15.05 5.45 17.1 Q5.3 18.05 5.4 18.95 L5.55 20.8 5.5 22.9 5.45 25.05 5.25 27.05 Q5.1 28.05 5.3 29.0 L5.6 30.8 5.65 32.95 Q5.6 34.3 5.8 35.2 6.0 36.1 5.85 37.15 L5.5 39.05 5.3 40.95 5.3 43.0 5.25 45.1 5.5 47.1 Q5.7 48.1 5.55 49.05 5.45 50.05 5.5 51.0 L5.55 52.95 5.75 54.9 5.7 57.0 5.35 58.85 Q5.2 59.65 5.3 60.95 L5.55 63.05 5.6 64.9 5.6 67.2 5.55 69.3 Q5.4 70.25 5.65 71.05 5.9 71.85 5.75 73.15 L5.6 75.45 5.55 77.25 5.55 78.8 5.5 80.65 5.55 83.05 5.55 85.0 5.45 86.75 5.45 88.95 5.7 91.0 Q5.9 92.0 5.5 93.15 5.1 94.3 5.25 95.15 L5.5 97.05 5.5 99.05 5.6 101.0 5.65 102.95 5.5 105.0 5.35 107.05 Q5.3 108.05 5.55 109.1 5.85 110.15 5.75 111.1 L5.6 113.05 5.4 114.9 5.45 117.1 5.5 119.25 5.5 121.15 Q5.55 122.25 5.75 123.15 6.0 124.05 5.85 125.0 L5.55 127.0 5.45 129.15 5.5 131.4 5.35 133.35 Q5.25 134.25 5.45 135.3 L5.7 137.05 5.65 139.0 5.55 141.15 Q5.45 141.95 5.5 143.0 L5.55 145.25 5.5 147.3 5.5 149.15 Q5.45 150.2 5.55 151.15 L5.55 153.2 5.5 155.3 5.5 157.3 5.65 159.3 5.7 161.0 Q5.55 161.65 5.55 162.9 L5.55 165.15 5.55 166.9 5.4 168.8 5.4 171.0 5.55 173.05 5.55 175.1 5.45 177.05 5.3 179.1 Q5.3 180.35 5.55 181.35 5.85 182.35 5.75 183.15 L5.5 184.95 Q5.35 185.95 5.5 187.25 L5.65 189.35 5.55 191.1 5.45 192.9 5.5 194.8 5.65 196.95 5.75 199.15 5.7 201.1 Q5.55 202.0 5.55 203.0 L5.5 205.0 5.5 207.1 5.3 209.25 Q5.1 210.25 5.35 211.25 L5.6 213.05 5.4 214.75 Q5.25 215.7 5.4 217.0 L5.55 219.35 5.5 221.2 5.65 223.05 5.9 225.05 5.65 227.1 Q5.3 228.1 5.4 229.1 L5.45 231.3 5.55 233.05 5.6 234.65 5.55 236.85 5.55 239.05 5.6 241.1 5.6 243.1 5.35 245.05 Q5.15 246.05 5.35 246.8 L5.6 248.95 5.7 251.2 5.7 253.1 5.55 255.15 5.55 257.1 5.6 259.1 5.4 261.15 Q5.25 262.05 5.35 263.25 L5.5 265.25 5.55 267.05 5.45 268.95 5.45 270.85 5.55 273.1 5.55 275.2 5.45 276.95 5.35 278.9 5.45 280.9 5.55 283.0 5.4 285.0 Q5.25 286.05 5.4 286.9 L5.55 288.9 5.45 291.15 5.35 293.2 5.5 295.15 5.45 297.1 Q5.25 298.05 5.5 299.05 L5.9 300.95 5.65 303.05 5.3 304.95 5.35 306.85 5.45 309.05 5.45 311.05 5.3 313.1 Q5.1 314.15 5.3 315.1 L5.5 317.1 5.3 319.15 5.1 321.05 5.35 323.0 5.5 324.95 5.55 326.85 Q5.75 327.85 5.55 328.85 5.35 329.9 5.45 330.9 L5.6 333.0 5.6 335.05 Q5.55 336.0 5.65 336.95 L5.7 339.05 5.55 341.1 5.25 343.0 Q5.15 344.05 5.5 345.05 5.9 346.1 5.7 347.1 5.5 348.15 5.65 349.05 5.8 349.95 5.45 351.2 5.1 352.45 5.1 353.3 L5.35 355.05 5.45 356.95 5.25 359.05 Q5.1 360.15 5.25 361.2 L5.55 363.25 Q5.75 364.25 5.4 365.0 5.05 365.8 5.2 366.85 L5.35 368.8 5.6 370.95 Q5.9 372.3 5.6 373.15 5.35 374.0 5.6 375.15 5.85 376.3 5.5 377.3 5.2 378.3 5.4 379.2 L5.6 381.05 5.55 383.25 5.35 385.25 Q5.15 386.05 5.55 387.05 6.0 388.1 5.6 388.95 5.25 389.85 5.4 391.15 L5.45 393.3 5.45 395.05 5.45 396.9 Q5.3 397.85 5.45 398.9 L5.7 401.15 5.7 403.2 5.35 404.8 Q5.15 405.55 5.45 407.0 L5.9 409.1 5.85 410.65 5.65 412.3 5.55 415.05 7.35 414.95 9.35 414.95 11.55 414.9 13.45 415.0 15.3 415.2 17.45 414.95 19.7 414.85 21.65 415.05 23.7 415.1 25.7 415.3 27.55 415.4 29.5 415.25 31.7 415.1 33.65 415.05 35.45 414.9 37.55 414.9 39.45 415.1 41.4 415.1 43.7 415.05 45.95 415.05 47.9 414.85 49.7 414.65 51.35 414.7 53.1 414.9 55.35 415.0 57.55 415.0 59.55 415.05 61.65 415.1 63.6 415.05 65.65 415.05 67.45 415.1 69.45 414.9 71.75 415.1 73.45 415.15 75.5 415.05 77.6 415.2 79.75 415.2 81.8 415.25 83.65 414.9 85.75 414.85 87.75 414.95 89.5 414.75 91.45 414.8 93.55 415.15 95.55 415.2 97.55 415.1 99.75 415.1 101.55 414.85 Q102.2 414.65 103.4 414.85 L105.3 415.2 107.3 415.3 109.35 415.1 111.35 415.0 113.55 414.8 115.4 414.7 117.2 414.8 119.15 414.85 121.55 415.05 123.8 415.1 125.5 414.8 127.25 414.85 129.3 415.05 131.7 415.2 133.95 415.3 135.7 415.3 137.55 415.25 139.6 415.15 141.5 415.2 143.55 415.15 145.5 414.85 Q146.4 414.7 147.5 414.85 L149.6 415.25 151.65 415.45 153.7 415.2 155.8 415.05 157.7 414.95 159.4 414.9 161.4 415.1 163.55 415.05 165.55 415.05 167.45 415.05 169.45 415.05 171.3 415.0 173.3 415.2 175.35 415.25 177.35 415.1 179.55 415.1 181.55 415.15 183.6 415.15 185.55 415.0 187.6 415.1 189.6 415.1 191.7 414.85 Q192.85 414.7 193.85 414.85 L195.75 415.25 Q196.65 415.45 197.55 415.25 L199.7 415.05 201.55 415.05 203.35 415.05 205.55 414.95 207.6 415.0 209.8 415.0 211.75 415.15 213.4 415.25 Q214.3 415.05 215.4 415.25 L217.25 415.15 219.3 414.95 221.55 415.0 223.75 415.0 225.85 415.15 227.45 415.2 229.55 415.1 231.75 414.95 233.65 414.8 235.65 414.95 237.5 415.1 239.55 415.0 241.35 414.95 243.35 414.95 245.55 415.0 247.5 415.0 249.3 415.1 251.5 415.1 253.7 415.25 255.55 415.1 257.65 414.7 259.65 414.8 261.65 415.0 263.8 414.85 Q264.95 414.65 265.65 414.85 L267.35 415.15 269.45 415.15 271.55 415.05 273.7 414.85 275.7 414.8 277.75 414.85 279.75 414.85 281.35 415.0 283.2 415.05 285.4 415.05 287.6 415.05 289.75 414.95 291.65 414.95 293.55 415.1 295.45 414.95 297.6 415.15 299.7 415.3 301.5 414.95 303.5 414.95 305.55 415.3 307.55 415.45 309.65 415.2 311.75 415.05 313.65 415.1 315.4 415.2 317.3 415.15 319.45 415.05 321.75 414.8 323.95 414.9 325.75 415.35 327.5 415.25 329.5 415.1 331.4 415.0 333.25 415.15 335.35 415.25 337.5 415.15 339.35 415.15 341.45 415.25 343.6 415.3 345.6 415.05 347.8 415.2 349.75 415.05 351.7 414.9 353.7 415.05 355.7 415.2 357.7 415.2 359.55 415.05 361.55 415.15 363.5 415.2 365.55 415.25 367.6 415.05 369.65 415.15 371.65 415.5 373.65 415.3 375.7 415.1 377.8 415.15 379.7 415.25 381.65 414.9 383.75 414.8 385.55 415.1 387.25 415.2 389.35 414.85 391.6 414.8 393.75 415.0 395.7 415.0 397.75 415.0 399.65 415.2 401.4 415.0 403.35 414.8 405.5 415.1 407.7 415.0 409.5 415.1 411.6 415.0 413.6 414.95 415.45 415.2 417.5 415.25 419.55 415.15 421.55 415.0 423.45 415.05 425.5 415.2 Q426.65 415.45 427.6 415.2 L429.4 415.05 431.4 414.95 433.35 414.85 435.45 414.9 437.65 414.95 439.75 414.8 441.75 414.75 443.55 415.2 445.55 415.25 Q446.55 415.05 447.45 415.25 L449.7 415.1 451.75 414.95 453.65 415.05 455.45 414.95 457.3 415.2 459.5 415.25 461.6 415.05 463.45 415.05 465.3 414.9 467.5 414.9 469.55 415.2 471.65 415.05 473.85 415.1 475.85 415.15 477.65 415.0 479.7 415.05 481.55 415.0 483.2 415.0 485.35 415.05 487.5 415.25 489.5 415.2 491.5 415.0 493.4 415.15 495.5 415.1 497.55 415.1 499.45 415.15 501.25 415.25 503.15 415.2 505.25 415.25 507.35 415.1 Q508.45 414.75 509.5 415.1 L511.55 415.45 513.65 415.2 515.65 415.0 517.35 414.95 519.15 414.95 521.3 415.25 523.7 415.15 525.8 414.9 527.7 414.9 529.5 414.7 531.4 414.75 533.55 414.95 535.4 415.0 537.5 414.95 539.65 414.85 541.45 414.95 543.55 415.05 545.45 415.05 547.4 415.3 549.6 415.35 Q550.65 415.2 551.5 415.35 L553.45 415.45 555.5 415.2 557.3 415.05 559.3 415.25 Q560.5 415.45 561.4 415.25 L563.6 414.8 565.65 414.9 Q566.45 415.3 567.0 415.3 L568.1 415.05 568.0 412.8 568.05 410.85 568.1 408.95 568.05 407.1 567.75 405.1 567.6 403.0 567.85 401.0 568.15 398.8 568.3 396.75 Q568.5 395.65 568.3 394.85 568.1 394.05 568.05 393.1 L568.05 391.3 567.9 389.5 Q567.75 388.55 568.0 387.25 L568.15 385.15 568.15 383.1 568.2 380.75 568.0 378.75 Q567.75 377.9 567.8 376.95 L567.9 375.05 568.2 373.05 568.4 371.0 568.35 369.05 567.95 366.85 Q567.65 365.65 567.9 364.85 L568.1 363.25 568.0 361.2 567.85 359.0 Q567.8 358.05 568.1 357.25 L568.45 355.1 568.35 353.0 568.25 351.25 568.2 349.2 568.05 347.1 568.05 345.05 568.1 343.0 567.95 340.95 Q567.8 339.9 568.1 338.95 L568.45 336.95 568.4 334.8 568.05 333.15 Q567.8 332.55 568.0 331.25 568.2 329.95 567.9 329.05 567.6 328.2 567.8 327.3 568.05 326.45 567.9 325.2 567.8 323.95 568.0 322.9 568.2 321.85 567.95 320.95 567.7 320.05 567.7 319.0 L567.8 316.9 568.05 315.0 568.15 313.0 568.2 310.7 568.3 308.85 Q568.45 308.15 568.1 307.3 567.75 306.5 567.85 305.25 L568.1 303.0 568.1 301.05 Q568.0 300.15 568.2 299.0 568.45 297.9 568.3 297.05 L567.95 295.15 Q567.75 294.1 568.15 293.15 568.55 292.2 568.3 291.1 L568.05 289.05 568.05 286.9 568.1 284.85 568.05 283.05 568.1 281.35 568.0 279.3 568.0 276.85 568.1 274.85 568.1 272.95 568.05 271.0 568.05 269.2 568.1 267.1 568.1 265.0 568.0 263.0 568.0 261.0 568.25 259.1 568.25 256.85 567.9 254.7 Q567.75 253.8 567.9 252.7 L568.1 250.85 567.95 249.25 567.75 247.25 567.85 244.8 568.0 242.75 568.2 241.15 568.15 239.15 568.0 237.0 568.3 235.15 Q568.5 234.3 568.1 233.2 567.7 232.1 567.95 231.05 568.2 230.05 568.05 229.2 567.9 228.35 567.9 227.2 567.9 226.05 568.2 225.05 568.5 224.1 568.35 223.05 568.2 222.0 568.4 221.25 568.6 220.5 568.3 219.25 L568.0 216.95 568.0 214.9 Q568.05 213.85 568.25 213.05 568.5 212.3 568.15 211.0 567.8 209.7 567.85 208.9 L568.1 206.95 Q568.35 205.75 568.2 205.0 L568.2 203.05 568.35 200.9 568.3 199.1 568.15 196.95 567.95 194.85 Q567.85 193.95 568.15 192.95 L568.3 191.1 568.1 189.2 568.2 187.15 568.1 185.1 567.8 183.25 Q567.7 182.35 567.95 181.2 L568.1 179.05 Q568.05 178.05 568.15 177.15 L568.2 175.0 568.1 173.0 568.05 171.2 567.9 169.15 Q567.8 168.2 567.85 167.15 L568.2 165.05 568.45 162.9 568.45 161.15 568.3 159.15 568.05 157.2 568.05 155.3 568.0 153.1 567.9 151.0 568.0 148.7 568.1 146.6 567.95 144.75 Q567.85 143.85 568.05 142.9 L568.15 140.95 568.0 139.1 568.25 137.0 Q568.55 135.85 568.15 134.95 567.75 134.05 568.0 132.9 568.3 131.8 568.2 130.9 L568.1 129.05 568.1 126.85 568.0 124.65 568.1 122.9 Q568.3 122.2 568.0 121.25 567.75 120.3 567.95 118.95 L568.1 116.9 567.9 115.1 Q567.75 114.0 568.15 113.0 568.55 112.05 568.3 111.2 L567.95 109.25 Q567.8 108.2 568.0 107.15 L568.15 105.05 568.1 103.0 568.15 101.1 568.2 99.2 568.1 96.85 568.1 94.8 567.85 93.0 Q567.6 91.95 567.8 91.0 L568.05 88.95 568.1 86.7 Q568.15 85.6 567.85 84.65 567.6 83.75 568.0 82.95 568.45 82.15 568.3 81.05 568.15 80.0 568.3 78.9 L568.3 76.95 Q568.15 76.15 568.25 74.85 568.4 73.6 568.15 72.7 L567.85 70.9 568.05 69.05 568.4 67.0 Q568.55 66.0 568.15 64.95 567.8 63.95 568.05 62.85 L568.25 60.8 568.15 58.85 568.15 56.95 568.15 54.95 568.05 52.85 Q568.1 51.85 568.3 50.95 568.5 50.05 568.15 49.05 567.8 48.05 567.85 47.05 567.9 46.1 568.2 45.3 568.5 44.5 568.3 43.25 L568.1 41.15 568.05 39.2 Q568.05 38.2 568.2 37.15 L568.3 34.85 568.2 32.75 567.85 30.95 Q567.6 30.05 567.8 29.1 568.05 28.15 567.8 27.15 567.6 26.15 567.85 25.0 L568.0 23.15 568.05 21.2 568.1 18.95 568.05 16.9 567.95 15.0 567.9 13.1 568.1 10.85 568.35 8.85 568.25 7.65 Q568.1 7.25 568.1 5.05 Z" fill="none" stroke="#90c7b7" stroke-linecap="round" stroke-linejoin="round" stroke-opacity="0.5019608" stroke-width="1.0"/>
  </g>
</svg>
