<?xml version="1.0" encoding="UTF-8" standalone="no"?>
<svg xmlns:xlink="http://www.w3.org/1999/xlink" height="253.7px" width="21.15px" xmlns="http://www.w3.org/2000/svg">
  <g transform="matrix(1.0, 0.0, 0.0, 1.0, 14.7, -6.8)">
    <path d="M5.7 259.8 L-14.0 259.8 -14.0 7.3 5.7 7.3 5.7 259.8" fill="#acd5c9" fill-rule="evenodd" stroke="none"/>
    <path d="M5.7 7.3 L3.8 7.2 1.85 7.3 -0.05 7.3 -2.5 7.3 -4.55 7.4 -6.3 7.4 -8.3 7.3 -10.4 7.2 -12.0 7.45 -14.0 7.3 Q-13.6 8.1 -14.05 9.2 -14.45 10.35 -14.25 11.2 -14.0 12.05 -14.2 13.15 L-14.2 15.2 Q-14.0 16.1 -13.95 17.0 L-14.0 19.05 -14.15 21.3 -14.1 23.3 -14.15 25.0 -14.35 27.3 -14.25 29.55 -13.9 31.3 Q-13.7 32.3 -13.85 33.35 L-14.0 35.35 -14.05 37.25 -14.1 39.25 -14.15 41.3 -14.0 43.35 -13.9 45.3 -13.85 47.25 -13.95 49.25 -14.2 51.2 -14.15 53.35 -14.0 55.2 -13.85 57.0 Q-13.65 58.0 -13.8 59.2 L-13.95 61.15 -14.05 63.0 -13.8 65.15 Q-13.5 66.25 -13.55 67.25 L-13.7 69.2 -13.65 71.0 Q-13.5 71.85 -13.75 72.8 L-14.0 75.1 -13.8 77.35 Q-13.6 78.3 -13.9 79.35 L-14.2 81.3 -13.95 83.05 Q-13.7 83.95 -13.8 85.2 -13.9 86.45 -14.15 87.6 L-14.35 89.4 -14.2 91.4 -14.1 93.45 -13.85 95.25 Q-13.7 96.3 -13.85 97.3 L-14.05 99.2 -13.9 101.1 -13.65 103.4 -13.55 105.45 -13.7 107.2 -13.75 109.35 Q-13.65 110.6 -13.85 111.35 L-14.15 113.1 -14.1 115.35 -14.0 117.55 -14.05 119.35 -14.0 121.05 -14.05 123.2 -13.85 125.4 Q-13.6 126.3 -13.65 127.1 L-13.85 129.05 -14.0 131.25 -14.0 133.1 -14.1 135.25 -14.1 137.45 -14.15 139.1 -14.1 141.15 Q-13.9 142.45 -14.0 143.15 L-14.1 144.95 -13.95 147.3 Q-13.8 148.6 -14.1 149.45 -14.35 150.3 -14.2 151.5 L-14.0 153.5 -14.15 155.25 -14.15 157.5 -14.05 159.4 -13.95 161.25 Q-13.85 162.5 -14.05 163.25 L-14.25 165.15 -13.95 167.1 Q-13.65 167.9 -13.85 169.05 L-14.05 171.2 -14.15 173.3 -14.1 175.3 -13.9 177.25 -13.95 179.1 -14.25 181.05 Q-14.4 182.2 -14.1 183.15 -13.75 184.1 -14.1 185.2 -14.4 186.35 -14.1 187.3 -13.75 188.25 -13.9 189.5 L-13.95 191.6 Q-13.85 192.5 -14.05 193.4 L-14.3 195.25 -14.15 197.35 -13.8 199.4 -13.8 201.45 Q-13.85 202.6 -14.05 203.3 -14.25 204.0 -14.1 205.2 -13.9 206.4 -14.15 207.2 -14.4 208.0 -14.3 209.2 L-13.85 211.35 Q-13.55 212.3 -13.9 213.3 -14.2 214.3 -13.9 215.25 -13.6 216.2 -13.8 217.4 L-14.0 219.5 -13.75 221.35 Q-13.55 222.3 -13.75 223.4 L-13.95 225.35 -13.9 227.25 -13.9 229.3 -14.0 231.2 -14.15 233.25 -14.05 235.3 Q-13.8 236.25 -13.7 237.35 -13.6 238.5 -13.8 239.35 L-14.0 241.25 -14.0 243.2 -14.0 245.35 Q-14.0 246.55 -14.15 247.45 L-14.15 249.3 -13.9 251.35 -13.9 253.35 -13.8 255.05 -13.7 257.1 -13.9 258.8 -14.0 259.8 -12.05 259.85 -10.15 259.6 Q-9.2 259.4 -8.25 259.6 L-6.2 259.85 -3.85 259.8 -1.8 259.75 0.15 260.0 Q1.35 260.25 2.25 260.0 L3.6 259.65 5.7 259.8 5.5 257.5 5.25 255.75 5.5 253.9 5.95 251.8 Q6.15 250.65 5.95 249.7 L5.7 247.8 5.65 245.7 5.65 243.5 5.65 241.6 5.7 239.55 5.7 237.5 5.7 235.9 5.75 233.9 5.7 231.75 5.65 229.6 5.55 227.4 5.6 225.55 5.9 223.75 Q6.15 222.8 5.9 221.9 5.7 221.0 5.65 219.9 L5.65 217.75 5.5 215.8 5.55 213.75 5.75 211.5 5.7 209.55 5.65 207.55 5.75 205.55 5.7 203.8 5.55 201.8 5.65 199.8 5.55 197.8 5.45 195.8 5.6 193.8 5.6 191.8 5.7 189.65 5.8 187.8 Q5.7 187.05 5.9 185.95 6.15 184.9 5.75 183.85 5.35 182.85 5.3 181.85 L5.5 179.8 5.65 177.65 5.5 175.65 5.55 173.65 5.75 171.65 5.65 169.65 5.6 167.65 5.8 165.65 5.8 163.7 5.5 161.8 5.35 159.75 5.4 157.55 5.7 155.6 Q6.0 154.9 5.8 153.95 L5.6 151.95 5.65 149.85 5.55 147.85 5.6 145.8 Q5.8 144.75 5.55 143.75 5.35 142.8 5.65 141.85 L5.95 139.65 5.8 137.5 5.6 135.75 5.6 133.85 5.75 131.9 5.75 129.9 5.55 127.9 5.55 125.85 5.65 123.8 5.7 121.85 Q5.7 120.8 5.85 119.95 L6.05 117.9 Q6.15 116.7 5.75 115.95 5.35 115.2 5.3 113.75 L5.4 111.65 5.5 109.9 Q5.45 108.9 5.7 107.65 5.95 106.4 5.8 105.65 5.65 104.9 5.8 103.7 L5.85 101.4 5.65 99.55 Q5.6 98.8 5.9 97.75 6.2 96.7 5.95 95.75 L5.55 93.6 Q5.45 92.45 5.75 91.65 6.05 90.9 5.75 89.95 5.5 89.0 5.5 87.9 5.5 86.8 5.65 85.65 L5.65 83.6 Q5.55 82.7 5.6 81.6 L5.85 79.9 Q6.05 79.3 5.85 78.0 L5.7 75.5 5.7 73.6 5.65 71.85 5.65 69.95 5.7 67.8 5.65 65.8 5.65 63.85 5.8 61.65 5.75 59.8 5.5 57.9 Q5.35 56.85 5.5 55.7 L5.75 53.65 5.95 51.8 6.1 49.9 5.75 47.8 Q5.4 46.65 5.45 45.6 L5.5 43.65 5.5 41.65 5.4 39.8 Q5.35 39.1 5.6 38.1 5.85 37.1 5.75 36.0 5.7 34.95 5.8 33.85 L5.8 31.75 5.7 29.8 5.7 28.0 5.75 26.25 5.8 24.1 5.7 21.7 5.45 19.9 Q5.3 19.25 5.55 18.15 L5.75 15.95 5.8 14.05 5.85 12.1 5.9 9.85 Q5.95 8.8 5.65 8.35 5.4 7.95 5.7 7.3 Z" fill="none" stroke="#acd5c9" stroke-linecap="round" stroke-linejoin="round" stroke-width="0.75"/>
  </g>
</svg>
