<?xml version="1.0" encoding="UTF-8" standalone="no"?>
<svg xmlns:xlink="http://www.w3.org/1999/xlink" height="119.25px" width="16.4px" xmlns="http://www.w3.org/2000/svg">
  <g transform="matrix(1.0, 0.0, 0.0, 1.0, 0.8, 0.35)">
    <path d="M14.75 0.3 L14.75 118.05 0.0 118.05 0.0 0.3 14.75 0.3" fill="#ffffff" fill-rule="evenodd" stroke="none"/>
    <path d="M10.9 0.45 L8.95 0.35 6.95 0.2 4.8 0.2 2.7 0.4 1.15 0.35 0.0 0.3 0.0 2.25 0.1 4.15 0.1 6.35 Q-0.05 7.25 0.1 8.25 L0.05 10.3 -0.1 12.5 -0.1 14.75 -0.05 16.75 0.1 18.5 0.1 20.4 -0.15 22.55 Q-0.3 23.6 0.1 24.45 0.5 25.3 0.2 26.2 -0.1 27.1 0.15 28.1 0.4 29.1 0.2 30.25 L0.0 32.35 0.1 34.4 0.0 36.3 -0.05 38.05 0.25 40.15 0.4 42.35 0.05 44.3 -0.3 46.35 -0.2 48.55 0.15 50.5 Q0.4 51.3 0.2 52.3 0.0 53.3 0.05 54.35 L0.15 56.15 0.0 57.9 -0.2 60.15 -0.15 62.35 -0.05 64.45 Q0.0 65.65 -0.1 66.4 -0.2 67.2 0.1 68.15 0.45 69.15 0.35 70.3 L-0.05 72.25 Q-0.35 73.1 -0.3 74.25 L0.0 76.4 Q0.3 77.4 0.0 78.35 -0.3 79.35 -0.2 80.05 L0.05 82.25 Q0.25 83.75 -0.1 84.65 -0.4 85.6 0.0 86.45 0.45 87.3 0.35 88.15 L0.1 90.2 -0.05 92.35 0.0 94.1 0.05 96.1 0.05 98.4 0.0 100.45 Q0.0 101.55 0.25 102.4 0.5 103.25 0.2 104.25 -0.05 105.3 0.0 106.3 L0.1 108.1 0.05 110.1 -0.05 112.3 0.0 114.05 0.0 115.5 0.0 118.05 1.8 117.75 3.75 118.15 5.85 118.3 8.05 118.05 10.15 118.1 12.0 118.1 13.5 117.95 14.75 118.05 14.7 116.1 14.7 113.8 14.55 111.9 Q14.4 111.15 14.55 110.0 L14.65 107.8 14.6 105.9 14.7 104.05 14.75 102.2 14.6 100.25 14.6 98.15 Q14.7 97.1 14.95 96.2 15.2 95.35 15.0 94.3 L14.8 92.3 14.85 90.2 Q14.95 89.15 14.65 88.1 14.4 87.05 14.55 86.05 L14.7 84.25 14.7 82.1 14.85 79.8 15.05 77.9 15.0 75.9 14.9 73.95 14.85 72.0 14.7 69.9 14.7 68.05 14.9 65.85 15.05 63.8 15.0 62.0 14.85 60.05 14.7 58.1 14.55 55.9 Q14.5 54.7 14.6 53.75 14.75 52.85 14.5 52.15 14.25 51.45 14.5 50.25 L14.65 47.9 14.55 45.95 14.55 44.15 Q14.55 43.15 14.85 42.1 15.2 41.1 14.75 39.9 14.3 38.75 14.5 37.85 L14.9 36.1 14.85 34.15 Q14.7 33.05 14.85 32.15 15.05 31.3 14.65 30.15 14.3 29.05 14.5 28.05 L14.7 26.05 14.55 24.0 Q14.45 23.0 14.6 22.1 L14.85 20.05 14.85 17.95 14.85 16.05 14.75 14.1 Q14.6 13.1 14.85 11.9 15.1 10.75 14.95 9.75 L14.75 7.95 14.6 6.1 14.55 3.95 14.65 2.2 14.75 0.3 12.9 0.4 10.9 0.45 Z" fill="none" stroke="#ffffff" stroke-linecap="round" stroke-linejoin="round" stroke-width="1.0"/>
    <path d="M11.5 1.05 Q10.5 0.8 9.6 1.05 L7.65 1.25 5.65 1.25 3.7 1.3 2.15 1.5 Q1.6 1.65 1.25 1.3 L1.15 3.05 1.25 5.05 1.3 7.25 1.3 9.25 1.35 11.3 1.3 13.5 1.1 15.35 Q0.95 16.1 1.1 17.45 L1.15 19.7 0.95 21.45 Q0.85 22.3 1.1 23.3 L1.45 25.3 1.4 27.25 Q1.25 28.25 1.4 29.2 1.6 30.15 1.4 31.1 L1.1 33.15 Q0.95 34.25 1.1 35.2 L1.15 37.0 1.25 39.2 1.5 41.45 Q1.65 42.35 1.4 43.3 1.2 44.25 1.4 45.05 L1.35 47.05 Q1.15 48.3 1.45 49.45 1.75 50.65 1.5 51.5 L1.2 53.25 1.3 55.1 1.45 57.3 1.45 59.45 Q1.45 60.4 1.1 61.35 0.75 62.3 1.1 63.3 L1.55 65.15 1.5 67.15 1.3 69.1 1.3 71.15 1.3 73.25 1.2 75.3 1.2 77.35 1.45 79.45 Q1.6 80.6 1.35 81.3 1.15 82.0 1.2 83.15 L1.2 85.5 1.2 87.5 1.25 89.35 1.05 91.2 0.95 92.95 0.9 95.25 Q0.9 96.65 1.15 97.45 L1.4 99.3 1.15 101.45 Q0.9 102.65 1.05 103.2 L1.25 104.9 1.2 106.95 1.25 109.05 1.15 111.2 Q0.95 112.2 1.15 113.05 L1.3 114.35 1.25 116.55 3.1 116.3 5.25 116.1 7.2 116.3 9.15 116.45 11.0 116.45 12.55 116.45 13.6 116.55 13.8 114.45 13.65 112.45 Q13.4 111.5 13.65 110.55 13.95 109.65 13.65 108.5 13.4 107.4 13.6 106.4 L13.8 104.5 Q13.85 103.6 13.5 102.5 13.2 101.45 13.2 100.6 13.25 99.8 13.6 98.65 13.95 97.55 13.8 96.35 L13.65 94.35 13.7 92.45 13.65 90.4 Q13.55 89.55 13.7 88.6 L13.55 86.4 Q13.25 85.15 13.3 84.3 L13.25 82.3 Q13.2 81.1 13.4 80.3 L13.6 78.7 13.8 76.75 Q14.0 75.6 13.8 74.7 13.6 73.8 13.55 72.8 L13.5 70.65 13.35 68.5 13.15 66.3 Q13.15 65.1 13.3 64.2 L13.65 62.45 Q13.9 61.55 13.8 60.5 13.7 59.5 13.9 58.6 L13.85 56.75 Q13.6 55.8 13.6 54.5 L13.65 52.5 13.6 50.7 13.45 48.7 13.25 46.45 Q13.25 45.05 13.4 44.4 L13.4 42.7 Q13.25 41.7 13.35 40.7 L13.75 38.6 Q14.0 37.5 13.8 36.4 L13.6 34.4 13.45 32.7 Q13.3 32.0 13.4 30.85 L13.5 28.65 13.7 26.7 13.8 24.7 13.9 22.65 13.85 20.4 13.6 18.55 13.55 16.5 13.45 14.15 13.7 12.5 Q13.95 11.75 13.65 10.85 13.4 10.0 13.55 8.75 L13.75 6.55 13.65 4.45 13.65 2.9 13.6 1.3 11.5 1.05 Z" fill="none" stroke="#90c7b7" stroke-linecap="round" stroke-linejoin="round" stroke-opacity="0.5019608" stroke-width="0.75"/>
  </g>
</svg>
