<?xml version="1.0" encoding="UTF-8" standalone="no"?>
<svg xmlns:xlink="http://www.w3.org/1999/xlink" height="422.9px" width="574.95px" xmlns="http://www.w3.org/2000/svg">
  <g transform="matrix(1.0, 0.0, 0.0, 1.0, -32.0, -28.05)">
    <path d="M606.0 449.95 L33.0 449.95 33.0 29.0 606.0 29.0 606.0 449.95" fill="#ffffff" fill-rule="evenodd" stroke="none"/>
    <path d="M583.95 29.25 L581.85 29.2 579.65 29.3 577.75 29.1 575.8 29.0 573.75 29.0 571.95 29.15 570.2 29.15 568.0 28.8 565.85 29.0 563.9 29.35 561.9 28.95 560.1 28.85 557.9 29.0 555.9 29.0 553.95 28.8 551.85 28.85 549.8 29.35 547.6 29.15 545.9 28.9 544.15 29.0 541.95 28.9 539.85 28.7 538.15 28.8 536.15 29.15 533.85 29.15 531.95 29.0 530.2 28.75 Q529.45 28.55 528.2 28.75 L526.05 29.0 524.05 29.0 521.95 29.0 520.0 29.0 517.95 28.95 516.0 28.9 514.05 28.9 511.95 29.0 510.2 29.0 508.0 28.95 505.85 29.05 503.95 29.2 501.65 29.1 499.8 29.05 498.0 29.1 496.05 29.2 494.25 29.4 492.35 29.4 490.3 29.25 487.95 29.15 485.9 29.0 Q485.25 28.8 483.95 29.0 L482.05 29.15 480.2 28.9 478.0 28.8 476.15 28.9 473.95 29.05 471.85 28.9 469.85 28.6 467.85 28.8 466.2 29.0 464.05 29.25 462.15 29.35 460.2 28.95 457.75 28.7 455.75 28.95 453.9 29.05 451.8 29.2 449.95 28.95 448.0 28.8 445.95 29.0 444.0 28.95 442.2 29.0 440.15 29.0 437.85 29.05 436.05 29.05 434.15 29.2 432.0 29.0 Q431.0 28.55 430.05 29.0 429.15 29.45 427.9 29.0 L425.9 28.75 424.25 28.95 422.15 29.1 420.0 29.15 417.9 28.95 415.95 28.75 413.95 28.7 412.0 28.8 410.05 28.75 408.0 28.8 406.0 28.9 403.9 29.0 402.1 28.9 400.2 28.9 397.8 29.0 395.85 29.0 394.0 29.1 392.0 29.1 390.05 28.95 388.0 29.05 386.0 29.1 383.8 29.1 381.7 28.9 379.9 28.85 377.9 29.05 376.15 29.0 374.2 28.8 Q373.0 28.6 372.0 28.8 L369.9 29.0 367.9 28.95 366.1 28.9 364.05 28.9 362.2 29.0 360.25 29.05 358.0 29.05 356.0 29.05 354.1 29.2 352.1 29.2 349.95 29.05 348.1 29.0 346.1 29.0 344.0 28.85 342.15 29.0 340.1 29.15 337.85 28.95 335.75 28.8 333.85 28.6 Q332.95 28.55 331.95 29.0 L330.05 29.25 328.3 29.1 326.15 29.05 323.85 28.95 322.05 29.15 320.35 29.1 Q319.45 28.9 318.3 29.1 317.2 29.3 316.2 29.1 L314.25 28.95 312.15 29.05 310.25 28.85 308.05 28.7 305.75 28.65 303.75 28.7 301.8 29.0 299.9 29.0 297.8 28.95 295.85 28.85 Q295.05 28.65 294.1 28.85 L292.15 29.25 290.05 29.35 288.05 29.05 285.95 28.85 283.9 28.9 281.8 28.95 280.05 29.05 278.35 29.05 276.15 29.25 Q275.0 29.5 274.2 29.25 L272.3 29.0 270.1 28.95 268.05 28.95 266.15 29.05 264.1 29.05 261.95 28.9 259.95 28.7 257.9 29.0 255.95 29.35 254.05 29.15 252.1 29.1 250.15 29.15 248.05 28.95 246.0 29.0 244.0 28.95 242.0 28.95 239.75 28.8 Q238.5 28.6 237.8 28.8 L236.05 29.0 234.0 29.1 232.1 28.9 230.0 28.8 227.9 28.75 Q227.05 28.55 226.05 28.75 L224.05 29.0 222.0 29.0 220.1 29.0 218.2 28.9 215.85 28.8 213.7 28.7 211.85 28.8 210.0 28.9 207.85 29.05 205.65 29.15 203.95 28.75 Q203.05 28.55 202.0 28.75 L199.8 29.1 197.7 29.2 195.9 29.1 194.2 28.9 192.25 29.05 190.05 29.1 188.0 29.1 186.1 29.35 184.15 29.45 182.05 29.15 180.15 28.7 178.15 28.75 176.1 29.15 Q175.2 29.35 174.1 29.15 L172.0 29.0 170.2 28.95 168.1 29.0 165.85 29.05 164.1 28.9 162.1 28.9 160.05 28.95 157.95 28.95 155.9 28.95 154.0 29.05 151.9 29.05 149.95 28.95 148.15 28.8 146.35 28.9 144.05 29.1 141.85 28.95 140.1 28.95 138.1 29.0 136.0 28.95 134.0 28.75 Q133.05 28.55 132.15 28.75 L130.3 29.1 128.15 29.1 126.1 29.05 123.85 29.3 121.7 29.25 119.95 29.15 118.0 29.35 116.05 29.4 114.05 29.2 111.9 29.05 109.85 29.15 108.1 29.2 106.05 29.25 103.95 29.1 102.0 28.75 99.95 28.7 97.95 28.85 96.0 28.75 93.95 28.55 92.0 28.55 90.05 28.55 87.9 28.7 85.9 29.1 84.0 29.15 81.85 29.0 79.9 28.85 Q79.05 28.7 77.8 28.85 L75.75 29.25 73.8 29.1 72.0 29.0 70.1 28.95 68.1 28.8 66.15 29.0 64.0 28.8 61.85 28.75 59.8 28.75 58.0 28.6 56.15 28.8 54.05 29.2 Q52.95 29.4 51.8 29.2 L49.9 29.0 48.0 29.0 45.95 28.85 44.1 28.9 42.1 29.2 40.0 29.1 37.9 28.75 Q36.85 28.55 36.1 28.75 L34.5 28.95 33.0 29.0 32.9 31.05 33.0 32.9 32.95 34.75 Q32.9 35.9 33.0 36.95 L32.85 39.25 Q32.6 40.45 33.0 41.15 33.4 41.9 33.25 42.95 L32.9 45.0 Q32.75 46.05 32.85 47.05 L32.95 49.15 33.1 51.05 33.1 53.1 33.0 55.2 32.8 56.95 Q32.6 57.9 33.0 59.0 33.4 60.15 33.2 60.95 L33.0 63.05 32.8 65.15 32.7 66.8 32.85 68.8 32.9 70.95 32.8 72.75 32.6 74.75 32.7 77.15 32.9 79.2 33.0 81.0 33.05 83.05 32.85 85.3 32.6 87.25 Q32.55 88.05 32.85 89.2 33.2 90.4 32.95 91.15 32.75 91.9 33.05 92.95 33.4 94.05 33.05 95.0 32.75 96.0 33.1 97.1 33.5 98.25 33.35 99.05 L33.0 101.0 Q32.75 102.15 32.8 103.05 L32.95 105.05 33.0 107.15 Q33.0 108.25 33.15 109.0 L33.15 111.1 32.95 113.05 33.05 115.0 33.1 117.15 Q33.0 118.0 33.05 118.9 L33.25 120.95 Q33.45 122.1 33.2 123.0 L33.0 125.2 Q33.0 126.5 33.15 127.35 33.35 128.2 33.0 129.1 32.7 130.05 32.85 131.05 33.05 132.05 32.85 133.2 32.7 134.35 32.85 135.0 L33.05 136.8 33.2 138.95 Q33.3 139.95 33.0 141.0 32.7 142.1 32.75 143.05 L32.65 145.05 Q32.5 146.1 32.65 147.05 32.85 148.0 32.7 148.9 L32.75 150.7 33.15 152.8 Q33.45 154.05 33.2 155.05 33.0 156.1 33.2 156.85 L33.3 158.8 33.1 161.0 33.05 163.0 33.0 164.95 32.8 166.85 32.85 168.65 33.0 171.0 33.05 173.15 32.9 174.95 32.85 176.95 33.0 179.0 33.05 180.8 33.05 182.7 33.05 184.95 32.9 187.1 Q32.65 188.2 32.85 189.25 L33.25 191.35 Q33.45 192.4 33.2 193.2 33.0 194.0 32.95 195.0 32.95 196.0 33.1 196.85 33.3 197.7 33.0 198.95 32.7 200.25 32.7 201.3 L32.85 203.05 33.1 204.95 33.15 207.1 32.8 209.05 Q32.5 210.05 32.75 211.0 L33.05 213.05 33.0 214.85 32.75 216.8 32.85 218.75 32.95 220.5 32.75 222.9 32.6 225.15 32.95 226.95 Q33.25 227.95 32.95 229.0 32.7 230.1 32.9 231.2 L33.15 233.0 33.25 234.75 33.2 236.8 32.95 238.7 Q32.75 239.6 32.8 240.75 L32.7 243.1 Q32.55 244.25 32.8 245.1 L33.1 246.9 33.15 248.9 33.1 251.05 33.0 253.0 32.9 254.8 32.9 256.85 33.15 259.05 33.15 261.05 32.9 263.0 32.85 265.0 32.75 267.05 32.5 269.25 Q32.5 270.4 32.65 271.25 L32.95 273.1 33.0 275.15 32.85 277.05 32.85 279.05 33.0 281.1 32.9 283.05 32.95 285.1 32.85 286.9 Q32.65 287.65 32.6 288.85 32.6 290.1 32.75 291.2 L33.0 293.15 32.95 295.05 Q32.8 296.1 32.8 297.05 L32.7 299.15 32.8 301.15 33.0 303.0 33.0 304.8 32.95 306.75 33.1 308.95 Q33.3 310.0 33.15 311.0 L33.0 313.15 33.1 315.25 33.15 317.1 33.15 319.0 33.15 321.15 Q33.05 322.35 33.2 323.2 L33.2 325.0 33.0 326.75 32.9 328.6 32.95 330.85 32.85 332.8 Q32.65 333.6 32.8 334.95 L32.9 337.15 32.7 338.9 Q32.55 339.85 32.7 340.9 L32.95 342.95 33.2 344.9 Q33.4 345.95 33.25 347.05 L32.9 348.95 Q32.65 349.75 32.8 350.8 L33.05 352.9 33.2 355.2 Q33.3 356.45 32.95 357.25 32.65 358.05 32.8 359.1 L32.95 361.05 32.95 363.0 32.95 364.95 33.0 367.05 32.95 369.35 32.95 371.3 32.9 373.05 Q32.8 373.9 33.0 374.85 L33.1 376.7 33.25 378.7 33.45 380.85 33.25 383.15 33.05 384.95 33.0 386.85 Q32.95 388.25 33.15 389.05 33.4 389.85 33.2 390.95 L33.0 393.25 33.0 395.0 33.0 396.7 32.9 398.75 32.9 400.9 33.0 403.35 32.9 405.4 33.05 407.35 33.1 409.3 32.75 411.0 Q32.5 411.8 32.6 412.85 L32.85 414.9 32.9 417.05 Q32.8 418.25 32.95 419.05 33.15 419.85 32.95 421.15 L32.85 423.2 32.95 425.1 32.95 427.2 32.8 429.05 Q32.7 429.95 32.95 430.75 33.25 431.55 33.1 432.8 L32.9 435.1 32.9 437.05 32.95 438.95 32.75 440.9 Q32.65 441.9 32.7 443.1 L32.9 445.15 33.05 446.95 33.15 448.35 33.0 449.95 34.9 450.2 36.95 450.15 Q38.05 449.95 39.0 450.15 40.0 450.35 41.2 450.15 L43.4 450.05 45.25 450.0 47.1 449.85 49.1 449.8 51.05 449.65 53.0 449.85 54.9 450.1 56.7 450.1 59.0 449.85 61.1 449.9 63.15 450.1 Q64.45 449.95 65.4 450.1 L67.4 450.1 69.25 449.95 71.1 449.85 73.0 449.9 74.8 450.05 76.9 450.0 78.9 449.9 80.9 449.95 83.0 450.1 84.75 450.0 87.05 449.95 89.35 449.85 91.0 449.8 92.75 450.15 94.9 450.1 96.85 450.05 98.9 450.05 100.9 449.85 103.05 450.05 105.3 450.15 107.3 450.2 Q108.4 450.4 109.2 450.2 L110.95 449.75 112.75 449.7 114.8 449.8 117.05 449.7 119.05 449.8 121.2 449.95 123.4 450.2 125.3 450.25 126.9 450.05 128.8 449.95 130.7 449.9 132.75 449.75 134.95 450.0 136.95 449.95 138.95 449.8 141.15 449.75 143.3 450.0 145.2 450.1 147.2 449.75 149.2 449.75 150.85 449.85 152.8 450.05 155.0 450.1 157.15 449.75 159.15 449.65 161.05 449.8 162.9 449.8 164.75 449.8 166.65 449.85 168.75 450.1 170.95 449.95 173.05 450.0 Q174.15 450.45 175.1 450.3 L176.85 449.95 178.9 449.6 181.05 449.7 182.85 449.95 184.9 450.0 186.95 450.1 188.9 450.2 191.0 450.2 193.05 450.05 194.95 450.0 196.9 450.15 199.15 450.2 200.9 449.95 202.9 449.9 205.05 449.8 Q205.9 449.65 206.95 449.8 L209.05 449.9 211.15 450.15 213.0 450.25 214.85 450.1 216.8 450.05 219.1 449.9 221.3 449.85 222.85 449.9 224.65 450.05 226.75 449.9 228.7 449.6 230.7 449.8 Q231.8 450.05 232.65 449.8 L234.8 449.7 236.95 449.9 238.95 449.95 241.0 450.0 243.1 450.1 245.3 450.05 247.15 449.75 Q247.9 449.6 248.95 449.75 L251.1 450.0 253.05 449.9 Q254.0 449.7 255.2 449.9 L257.2 450.15 258.85 449.9 260.95 449.85 263.2 450.2 265.1 449.95 266.8 450.0 268.85 450.2 271.1 449.85 273.0 449.8 275.15 450.15 277.15 450.1 Q277.95 449.75 278.9 449.75 L280.95 449.65 283.0 449.8 285.15 449.95 287.15 449.8 288.9 449.95 290.65 450.0 292.85 450.1 294.95 449.85 296.8 449.65 298.85 449.85 301.0 449.75 303.2 449.55 305.05 449.55 307.0 449.55 309.15 449.6 311.05 449.6 313.05 449.75 315.15 449.95 317.1 449.95 319.05 450.2 320.95 450.05 323.0 449.7 324.85 449.95 Q325.7 450.15 326.85 449.95 328.0 449.75 329.1 449.95 L331.0 450.05 332.9 449.95 335.1 450.05 337.15 449.85 338.9 449.65 340.8 449.85 342.65 450.15 344.9 450.2 347.15 450.0 348.9 449.95 351.0 449.95 352.95 450.05 355.05 450.0 357.2 449.9 359.05 449.7 361.05 449.65 362.9 449.75 365.0 449.8 367.1 449.95 369.05 449.8 371.05 449.7 372.95 449.95 375.0 450.15 376.85 450.05 378.8 449.95 380.9 450.15 382.9 449.9 385.1 449.7 Q386.2 449.95 387.05 449.7 L388.9 449.65 390.75 450.15 392.9 449.95 395.0 449.55 396.85 449.85 398.9 450.05 400.6 449.95 402.9 450.0 405.15 449.9 407.0 450.05 409.0 450.1 411.05 450.0 413.2 450.05 415.0 449.9 416.95 449.9 419.1 449.9 420.85 449.7 422.7 449.75 424.8 450.0 426.9 450.05 429.0 450.2 431.0 450.1 433.1 449.95 434.95 449.75 Q435.8 449.55 436.9 449.75 L438.9 449.8 Q439.75 449.65 440.85 449.8 L443.1 449.8 445.15 449.8 446.95 449.9 448.8 449.9 450.85 450.1 452.95 450.15 454.9 450.1 456.95 449.95 459.0 449.8 461.25 450.0 463.2 450.05 465.0 450.1 467.1 449.8 469.05 449.75 471.0 449.95 472.95 450.05 474.85 450.0 477.05 450.05 479.05 450.1 480.75 450.0 482.8 450.0 485.0 449.95 486.95 449.9 489.0 449.85 491.0 449.95 492.75 449.7 494.75 449.75 497.2 450.15 499.1 450.25 500.75 450.05 502.8 449.9 504.9 450.05 506.8 449.95 508.8 449.8 510.95 449.9 512.95 449.8 514.95 449.85 516.95 449.95 518.95 450.15 Q519.95 450.4 521.0 450.15 L522.95 450.05 524.9 450.3 527.0 450.45 529.15 450.35 531.35 449.85 533.15 449.6 535.05 449.8 536.85 450.05 538.85 450.2 541.25 450.25 543.1 450.1 544.8 449.95 546.9 449.8 549.3 449.75 551.2 449.9 552.8 450.0 554.9 449.8 557.0 449.6 559.0 449.85 560.85 449.95 562.8 449.75 564.9 449.9 566.75 450.0 568.7 449.6 570.8 449.7 572.85 449.95 574.8 449.75 576.85 449.85 578.8 450.05 580.8 449.95 582.85 449.8 584.85 449.95 586.95 449.9 588.85 449.55 590.8 449.75 592.65 449.9 594.65 449.95 596.85 449.95 598.95 449.8 601.1 449.85 603.15 450.0 604.4 449.95 606.0 449.95 605.9 447.9 605.85 445.75 Q605.75 444.65 606.0 443.8 606.3 442.95 606.2 441.8 L606.0 439.8 606.0 437.95 606.0 436.05 605.95 434.05 606.0 431.95 605.9 429.9 605.9 427.9 606.0 426.1 606.05 424.05 605.95 421.8 606.0 419.9 606.0 417.7 606.0 415.45 606.0 413.55 606.0 411.9 605.85 410.1 Q605.75 409.05 606.05 408.0 606.4 406.95 606.2 406.0 606.0 405.1 606.15 404.0 L606.15 402.15 Q606.0 401.45 606.0 400.45 L606.1 398.45 Q606.2 397.45 605.95 396.4 605.75 395.35 605.9 394.2 L606.15 392.0 Q606.25 390.95 606.0 389.85 605.8 388.75 606.05 387.85 606.3 386.95 606.0 385.9 605.75 384.85 605.9 383.9 606.05 382.95 605.85 381.95 L605.65 379.8 605.85 377.95 606.05 376.1 606.3 374.0 Q606.5 373.1 606.25 372.1 L605.95 370.0 605.9 367.95 606.15 366.0 606.2 363.95 606.0 361.85 606.0 359.85 606.05 357.9 605.95 356.05 605.9 354.15 605.85 352.2 605.8 350.15 605.85 347.9 605.85 346.05 605.9 344.15 606.0 342.0 606.0 340.0 605.85 338.0 Q605.75 336.95 606.0 336.0 606.25 335.1 606.1 334.0 L606.0 331.95 605.95 330.0 606.0 327.75 605.9 325.85 Q605.75 325.2 605.85 323.85 L606.0 321.75 606.25 319.9 Q606.45 318.9 606.25 317.9 L606.0 315.75 606.0 313.8 606.05 311.9 606.0 309.85 605.8 308.15 Q605.6 307.4 605.8 306.3 L606.0 304.05 606.1 301.7 Q606.2 300.55 605.85 299.5 605.55 298.45 605.85 297.85 606.15 297.3 606.1 296.1 L605.95 293.75 605.95 291.65 606.0 289.75 606.05 287.9 606.1 285.9 606.05 284.05 606.0 282.0 606.0 279.85 605.95 277.95 605.75 275.95 Q605.65 274.95 605.7 273.75 L605.7 271.85 605.85 270.0 606.2 267.95 606.4 266.15 606.25 264.1 606.05 261.95 606.0 259.95 605.95 257.85 605.95 255.6 605.9 253.6 605.9 251.9 606.2 250.05 Q606.45 249.05 606.3 247.9 L605.85 245.95 Q605.6 245.1 605.6 243.85 605.6 242.6 605.75 241.85 L605.9 240.1 606.1 237.8 606.15 235.7 Q606.0 234.95 606.0 234.0 L606.15 231.8 606.15 229.85 606.0 228.05 605.85 225.95 605.7 223.95 605.6 221.95 Q605.6 220.9 605.75 220.0 L606.2 218.3 Q606.5 217.45 606.45 216.25 L606.15 214.1 Q605.9 213.15 605.95 212.05 L606.0 210.2 605.95 208.2 Q605.95 206.95 606.1 205.9 L606.1 204.05 Q605.95 203.25 606.15 201.9 L606.2 199.75 605.95 198.0 606.05 196.2 606.3 194.15 Q606.5 193.0 606.05 191.95 605.65 190.95 605.8 190.0 L605.85 187.95 Q605.8 186.8 605.9 185.85 L605.95 183.7 605.95 181.7 606.05 179.95 606.05 177.9 605.95 175.95 605.85 174.05 Q605.8 173.1 606.0 172.2 L606.2 170.3 606.0 168.1 605.8 165.95 605.7 163.9 Q605.6 162.9 605.75 161.9 L605.75 160.05 605.65 158.0 605.85 156.15 606.05 154.35 605.85 152.1 605.6 149.85 Q605.6 148.75 606.0 148.05 606.4 147.35 606.2 146.25 L605.95 144.05 605.8 141.9 605.85 139.8 605.95 137.8 605.95 135.85 Q606.0 134.8 606.2 133.85 606.45 132.95 606.15 131.95 605.9 130.95 605.95 129.85 L605.75 128.05 Q605.5 127.3 605.7 125.85 L606.05 123.7 Q606.2 122.95 605.95 121.95 605.7 120.95 605.9 120.2 L606.2 118.25 606.1 116.0 605.9 113.75 605.85 111.85 Q605.8 111.15 606.1 109.95 606.4 108.75 606.05 107.85 605.75 106.95 605.8 105.9 605.9 104.85 606.15 104.0 606.45 103.15 606.15 101.85 605.9 100.55 605.95 99.6 L605.8 97.7 Q605.65 96.75 605.85 95.75 L606.0 93.85 605.95 91.75 606.0 89.75 606.0 88.0 606.15 86.0 Q606.35 84.95 606.15 83.95 L606.1 82.1 605.85 79.95 Q605.55 78.65 605.75 77.7 L605.95 75.85 606.0 73.9 Q606.15 72.9 605.9 71.95 605.65 71.0 605.8 70.0 L606.15 67.75 Q606.35 66.5 606.05 65.7 605.75 64.9 606.0 63.9 606.25 62.95 606.1 61.7 L606.0 59.7 605.75 57.8 Q605.5 56.65 605.75 55.85 606.05 55.05 605.75 53.95 605.5 52.9 605.75 51.85 L606.0 49.85 606.05 47.85 606.15 45.9 606.05 43.75 Q605.95 42.6 606.1 41.9 L606.3 40.2 Q606.35 39.2 606.0 38.1 605.7 37.0 605.95 36.1 L606.25 34.2 606.1 32.05 606.0 30.4 606.0 29.0 604.2 29.2 602.3 29.15 600.3 29.0 598.2 29.15 595.95 29.1 593.85 28.75 591.85 28.6 590.05 28.65 588.25 29.05 586.15 29.4 583.95 29.25 Z" fill="none" stroke="#ffffff" stroke-linecap="round" stroke-linejoin="round" stroke-width="1.0"/>
    <path d="M585.5 34.0 L583.45 34.1 581.5 33.9 579.5 34.0 577.4 33.95 575.45 34.2 573.4 34.35 571.35 34.2 569.45 34.15 567.55 33.9 565.45 34.0 563.4 34.1 561.4 33.9 559.45 33.85 557.25 33.85 555.15 34.0 553.2 33.85 Q552.3 33.6 551.2 33.85 L549.3 33.9 547.35 33.8 545.1 33.9 542.95 33.65 541.0 33.8 539.15 34.0 537.45 33.95 535.4 33.85 Q534.05 33.7 533.1 33.85 L531.25 34.1 529.25 33.9 527.1 33.65 525.15 33.8 523.4 33.95 521.15 34.0 519.15 33.9 517.35 33.75 515.2 33.85 513.2 34.0 511.2 34.0 509.25 34.2 507.25 33.95 504.95 33.9 503.05 33.95 501.2 33.9 499.4 33.85 497.45 34.0 495.4 34.05 493.4 33.9 Q492.15 34.2 491.15 33.9 L489.1 33.75 487.1 34.1 485.15 34.25 483.4 34.05 481.35 33.8 479.2 33.9 477.05 34.1 475.1 34.3 473.15 34.1 471.0 33.9 469.1 34.0 467.05 33.95 465.05 33.95 462.9 34.0 460.7 34.0 458.8 34.15 457.0 34.0 454.95 33.85 452.95 34.2 Q452.1 34.5 451.05 34.2 L448.95 33.95 446.95 33.9 444.9 33.8 442.75 33.75 440.75 33.75 438.85 33.95 437.0 34.25 435.0 34.35 433.0 34.15 431.0 34.1 429.0 34.15 426.95 33.9 424.85 33.8 422.8 33.95 421.0 33.95 419.2 34.1 417.25 34.1 415.05 34.0 412.95 33.85 411.0 34.05 409.0 34.3 407.15 34.3 405.3 34.35 403.25 34.2 400.95 34.15 398.85 34.1 396.95 34.0 395.05 34.2 393.1 34.05 Q392.1 33.65 390.95 34.05 L388.65 34.35 386.65 34.1 384.95 33.8 382.9 33.85 380.7 34.25 378.85 34.2 376.9 34.15 374.8 34.05 372.75 33.8 370.55 33.85 368.4 34.0 366.65 33.9 364.65 34.1 362.45 34.2 360.65 33.95 358.8 34.0 356.65 34.1 354.65 34.0 352.75 34.25 Q351.75 34.55 350.95 34.25 L348.9 34.0 346.75 33.95 344.75 33.95 342.7 34.0 340.75 33.85 Q339.8 33.7 338.85 33.85 L336.9 34.1 334.7 34.15 332.85 33.9 331.0 33.75 328.9 33.95 327.1 34.1 324.65 34.2 322.55 34.15 320.75 34.0 318.65 34.0 316.65 34.1 314.65 34.3 312.75 34.25 310.6 34.05 308.45 34.0 306.6 34.0 304.4 34.05 302.45 34.0 300.8 33.85 298.95 33.85 296.5 34.05 294.25 34.05 292.7 34.1 290.5 34.05 288.15 34.05 286.6 34.05 284.75 34.0 282.55 34.05 280.5 34.05 278.25 34.0 276.3 33.95 274.5 33.95 272.3 33.95 270.3 34.0 268.45 34.2 266.65 34.35 264.55 34.1 262.3 33.95 260.45 34.0 258.7 33.95 256.6 34.2 254.4 34.15 Q253.35 34.0 252.6 34.15 251.9 34.35 250.45 34.15 249.0 34.0 248.15 34.15 247.4 34.35 246.2 34.15 L244.2 34.1 242.55 34.2 240.65 34.0 238.4 33.9 236.35 33.95 234.45 34.1 232.2 33.9 Q231.0 33.65 230.15 33.9 L228.45 34.0 226.45 34.0 224.3 34.1 222.3 34.05 220.25 33.9 218.35 33.9 216.45 34.1 214.4 34.15 212.45 34.0 210.45 34.1 208.15 34.15 206.15 34.15 204.25 34.15 202.2 34.1 200.3 34.05 198.4 34.15 196.15 34.3 194.1 34.1 192.25 34.0 190.3 34.1 188.25 34.0 186.3 33.9 184.0 33.9 182.0 33.75 180.2 33.8 178.2 33.95 176.1 34.05 174.25 34.05 172.4 34.2 170.25 34.3 168.2 33.95 166.15 33.85 164.1 34.15 162.15 34.1 Q161.15 33.85 160.3 34.1 L158.35 34.15 155.95 34.1 153.65 34.1 151.7 33.9 149.95 33.85 147.95 33.75 145.85 33.55 144.0 33.6 141.85 33.7 139.8 33.95 138.25 34.2 136.35 34.1 133.9 33.8 131.85 33.85 130.1 34.05 128.05 33.85 125.9 33.7 124.0 34.0 122.05 34.15 120.05 34.2 117.95 34.35 115.95 34.0 113.8 33.9 111.8 34.15 110.1 34.0 108.3 33.95 106.4 34.2 104.25 34.25 101.7 34.05 99.5 34.2 97.65 34.15 95.85 33.85 93.7 33.9 91.7 34.05 89.95 34.1 87.9 34.1 85.8 34.1 83.8 34.35 81.75 34.15 80.0 33.65 78.1 33.75 75.9 34.0 74.0 33.95 72.1 33.95 69.8 33.95 67.65 34.0 65.8 34.05 63.85 34.2 Q62.85 34.5 61.85 34.2 L59.95 34.05 58.05 34.05 55.95 34.1 53.8 34.15 51.55 34.05 49.55 34.05 47.75 34.2 45.75 34.35 43.6 34.2 41.6 33.75 Q40.8 33.55 39.9 33.75 L38.35 34.0 37.65 34.0 37.85 35.85 Q38.1 37.15 37.95 38.15 37.8 39.15 37.9 40.35 L37.8 42.35 37.5 44.2 37.5 46.15 37.85 48.05 Q38.05 49.15 37.85 50.1 L37.65 52.3 37.65 54.35 37.65 56.3 37.8 58.55 Q37.95 59.8 37.75 60.55 37.55 61.3 37.6 62.45 L37.6 64.35 37.4 66.25 37.25 68.35 37.2 70.4 Q37.2 71.5 37.35 72.35 L37.6 74.15 37.7 76.5 37.75 78.45 37.85 80.15 37.8 82.4 37.65 84.45 37.45 86.55 Q37.25 87.8 37.5 88.7 L37.95 90.8 Q38.15 91.95 37.9 92.7 37.65 93.45 37.55 94.65 L37.55 96.85 37.65 98.7 37.7 100.7 37.7 102.6 37.55 104.65 Q37.45 105.85 37.6 106.8 L37.7 108.7 37.4 110.75 Q37.15 111.75 37.45 112.65 37.75 113.55 37.5 114.85 37.3 116.25 37.4 117.15 L37.6 118.9 37.75 120.85 37.55 122.7 Q37.3 123.55 37.5 124.7 37.75 125.95 37.6 126.8 L37.65 128.75 37.75 131.15 Q37.65 132.4 37.8 133.15 L37.95 134.75 37.7 136.8 Q37.55 138.0 37.7 138.85 37.9 139.75 37.75 140.7 L37.65 142.65 37.55 144.75 Q37.4 145.9 37.5 147.0 L37.7 148.95 37.7 151.0 37.6 153.15 37.6 154.95 37.55 157.15 37.6 159.2 37.55 161.15 37.4 163.5 Q37.35 164.6 37.6 165.5 37.9 166.45 37.5 167.35 37.15 168.3 37.55 169.35 38.0 170.45 37.75 171.5 37.55 172.5 37.6 173.55 L37.6 175.4 37.7 177.2 37.7 179.4 37.65 181.6 37.85 183.5 37.8 185.55 37.55 187.55 37.6 189.45 37.55 191.5 Q37.5 192.6 37.6 193.5 L37.65 195.3 37.65 197.3 37.4 199.3 37.2 201.4 Q37.25 202.5 37.6 203.6 38.0 204.75 37.85 205.65 L37.9 207.75 38.1 209.8 Q38.15 210.75 37.8 211.8 37.45 212.85 37.45 213.85 L37.55 215.85 37.65 217.95 37.65 219.85 37.65 221.85 37.6 223.9 37.7 226.05 37.95 227.95 37.8 229.7 37.65 231.9 37.8 234.15 37.95 236.25 37.8 238.1 Q37.55 239.15 37.6 240.1 L37.65 242.15 37.8 244.35 Q37.95 245.55 37.75 246.1 37.55 246.7 37.6 247.85 L37.8 250.3 Q38.0 251.65 37.8 252.4 L37.6 254.15 37.4 256.45 Q37.2 257.75 37.5 258.5 37.8 259.3 37.7 260.25 L37.6 262.4 37.55 264.45 Q37.45 265.35 37.75 266.35 38.05 267.45 37.75 268.35 37.5 269.3 37.55 270.25 L37.4 272.25 Q37.2 273.3 37.6 274.55 38.0 275.8 37.9 276.8 37.8 277.75 37.95 278.5 38.15 279.25 37.85 280.15 37.55 281.05 37.8 282.25 38.1 283.4 37.85 284.3 L37.55 286.45 37.55 288.55 37.65 290.25 37.7 292.3 37.7 294.55 37.6 296.65 Q37.55 297.7 37.75 298.4 L37.95 300.45 37.8 302.9 37.6 304.75 37.6 306.55 37.9 308.55 Q38.15 309.45 37.9 310.55 37.65 311.7 37.55 312.75 37.45 313.75 37.65 314.75 37.9 315.8 37.55 316.75 37.25 317.75 37.5 318.55 L37.9 320.6 Q38.05 321.8 37.85 322.8 L37.65 324.8 37.65 326.9 37.45 328.95 Q37.25 329.9 37.5 330.8 L37.8 333.0 37.75 335.1 37.6 337.25 37.6 339.25 37.65 340.85 37.85 342.9 37.9 344.85 Q37.7 345.6 37.65 347.0 L37.65 349.35 37.6 351.15 37.6 353.2 37.35 355.2 Q37.15 356.15 37.45 357.0 37.8 357.9 37.5 359.05 37.2 360.25 37.65 361.2 38.1 362.15 37.75 363.15 37.45 364.15 37.55 365.2 L37.5 367.2 Q37.35 368.2 37.5 369.25 L37.5 371.3 37.4 373.4 37.45 375.4 37.45 377.25 37.5 379.2 37.85 381.35 Q38.05 382.55 37.75 383.7 37.45 384.85 37.55 385.7 L37.7 387.5 37.6 389.45 Q37.5 390.4 37.55 391.5 L37.75 393.75 37.8 395.7 37.7 397.7 Q37.7 398.9 37.85 399.75 38.05 400.65 37.75 401.85 L37.35 403.9 37.15 405.65 37.35 407.6 37.45 409.8 37.4 411.95 37.5 413.9 37.55 415.8 37.35 417.9 Q37.2 418.8 37.45 419.8 L37.7 421.85 37.65 424.0 37.85 425.95 38.05 427.8 37.85 429.9 37.55 432.15 37.45 434.1 37.4 435.9 Q37.35 437.0 37.7 438.2 38.05 439.4 37.85 440.15 L37.65 442.05 Q37.7 443.25 37.45 443.45 37.2 443.7 37.65 445.2 L39.65 445.45 41.6 445.2 43.8 445.1 45.85 444.9 47.45 444.8 49.45 445.0 51.7 445.2 53.55 445.35 55.75 445.2 58.0 444.9 59.85 445.1 61.65 445.25 63.6 445.1 65.95 445.1 68.0 445.15 69.65 445.1 71.8 445.3 74.0 445.4 75.95 445.45 77.8 445.7 80.05 445.3 82.15 445.05 83.8 445.2 85.8 445.15 87.95 444.95 89.65 445.2 91.6 445.45 93.65 445.35 95.9 445.5 98.0 445.4 100.1 445.1 Q101.3 444.95 102.05 445.1 L103.75 445.3 105.7 445.25 107.8 445.15 109.9 445.15 111.95 445.35 113.95 445.35 115.75 445.15 117.7 445.15 120.05 445.2 122.1 445.2 124.2 445.1 126.4 444.9 128.3 444.95 130.0 445.05 131.9 445.05 134.1 445.1 136.1 445.15 138.0 445.1 140.05 445.15 142.05 445.1 144.15 445.25 146.35 445.3 148.25 444.95 149.95 445.0 152.0 445.15 154.25 445.1 156.3 445.05 158.2 445.05 160.05 445.15 162.05 445.35 164.05 445.4 165.9 445.25 167.85 445.15 170.05 445.0 171.95 444.9 173.95 445.05 175.95 445.2 177.95 445.0 Q179.05 444.85 179.9 445.0 L181.9 445.15 184.05 445.45 186.2 445.6 188.2 445.35 190.3 445.4 192.35 445.2 194.2 445.05 196.4 445.3 198.4 445.25 200.2 445.25 202.0 445.25 203.9 445.15 206.3 445.25 208.35 445.35 210.1 445.25 211.95 445.0 214.2 444.95 216.4 445.05 218.25 445.1 220.3 445.15 222.3 445.25 224.25 445.15 226.3 444.85 228.3 444.85 230.35 445.1 232.25 445.35 234.15 445.5 236.05 445.45 237.8 445.3 240.0 445.05 242.25 445.25 244.3 445.3 246.1 445.15 248.1 445.25 250.3 444.95 252.3 445.2 254.35 445.45 256.45 445.4 258.45 445.25 260.35 444.85 262.4 444.8 264.3 444.8 266.25 444.85 268.65 445.2 270.8 445.3 272.55 445.25 274.5 445.1 276.4 445.15 278.4 445.05 280.55 445.0 282.5 445.05 284.5 444.95 286.65 445.15 288.45 445.45 290.3 445.35 292.55 445.1 294.55 445.15 296.5 445.2 298.7 445.25 300.75 445.05 Q301.7 444.85 302.6 445.05 L304.45 445.25 306.35 445.3 308.35 445.35 310.7 445.2 312.65 445.15 314.5 445.1 316.55 445.05 318.5 445.2 320.5 445.25 322.5 445.2 324.4 444.95 326.35 445.15 Q327.5 445.55 328.35 445.15 L330.45 444.9 332.8 445.15 334.8 445.25 336.5 445.25 338.55 445.1 340.45 445.0 342.65 445.1 344.8 445.15 346.7 445.0 348.7 445.1 350.85 445.3 352.75 445.4 354.6 445.25 356.6 445.05 358.3 445.15 360.25 445.35 362.75 445.35 364.7 445.15 366.75 445.2 368.9 445.3 370.75 445.35 372.95 445.15 374.95 445.2 376.7 445.3 378.7 444.9 380.7 445.0 382.7 445.4 Q383.7 445.6 384.8 445.4 L386.9 445.1 388.6 445.15 390.6 445.25 392.8 445.25 394.85 445.1 396.75 445.05 398.75 445.2 400.8 445.2 402.8 445.2 404.9 445.15 406.75 445.35 Q407.55 445.55 408.7 445.35 L410.8 445.2 412.8 445.15 414.8 445.1 416.8 445.35 418.85 445.15 421.05 444.95 423.1 445.25 424.8 445.15 426.75 445.15 428.75 445.0 430.8 444.9 432.9 445.1 434.7 445.15 436.9 445.0 439.15 445.25 440.8 445.3 442.8 445.2 444.85 445.15 446.8 444.85 448.95 445.1 450.9 445.35 452.95 445.2 455.0 445.2 456.9 445.2 458.95 445.25 461.0 445.45 462.9 445.35 464.75 445.1 466.9 445.3 468.8 445.4 471.05 445.15 473.25 445.2 475.25 445.2 477.1 445.2 479.0 445.25 481.15 445.2 483.1 445.1 485.25 445.1 487.15 445.2 488.85 445.4 491.0 445.3 493.0 445.35 494.75 445.55 497.05 445.45 499.1 445.3 500.9 445.3 503.05 445.15 505.25 444.95 507.3 444.8 509.2 444.9 511.1 445.05 513.15 445.05 515.2 444.95 517.0 445.25 519.0 445.65 521.35 445.7 523.45 445.2 Q524.3 444.75 525.05 444.8 L526.9 444.85 529.15 444.85 531.25 445.05 533.1 444.95 535.25 444.8 537.35 444.9 539.4 445.1 541.25 445.25 543.05 445.2 545.35 445.35 547.35 445.4 549.25 445.25 551.35 445.1 553.45 445.2 555.4 445.05 557.35 445.0 559.35 445.35 561.5 445.45 563.5 445.3 565.35 445.45 Q566.4 445.7 567.35 445.45 L569.3 445.4 571.35 445.3 573.2 445.1 575.25 445.15 577.35 445.15 579.3 445.15 581.3 445.35 583.5 445.4 585.75 445.45 587.6 445.25 Q588.35 444.85 589.2 445.0 L591.25 444.95 593.2 445.0 595.05 445.25 597.05 445.2 599.2 445.4 601.05 445.6 Q601.75 445.65 601.5 445.2 L601.35 443.25 Q601.25 442.3 601.4 441.3 L601.55 439.4 601.65 437.25 601.7 435.05 601.65 433.0 601.5 430.95 Q601.3 429.9 601.55 429.1 601.85 428.3 601.7 427.2 L601.7 425.3 601.7 423.25 601.6 421.0 601.5 418.85 601.4 416.8 601.3 414.9 601.25 412.9 601.35 410.85 601.3 408.7 Q601.05 407.45 601.15 406.6 L601.4 404.8 601.35 402.9 Q601.2 401.9 601.4 400.9 L601.55 399.05 601.45 397.0 601.45 394.55 601.45 392.4 601.45 390.55 601.45 388.45 601.4 386.5 Q601.3 385.65 601.35 384.55 L601.55 382.45 Q601.7 381.55 601.45 380.55 601.2 379.55 601.3 378.5 L601.45 376.45 601.35 374.5 Q601.2 373.5 601.35 372.7 L601.4 370.8 601.4 368.35 601.4 366.1 Q601.3 365.3 601.6 364.45 601.9 363.6 601.85 362.55 L601.9 360.3 601.9 358.05 601.7 356.1 601.3 354.3 Q601.15 353.3 601.4 352.0 601.7 350.75 601.6 350.0 L601.45 348.2 601.4 346.1 601.3 344.25 Q601.2 343.45 601.45 342.05 L601.5 339.85 601.4 338.05 601.5 336.0 601.55 334.0 601.55 332.25 Q601.45 331.4 601.7 330.2 602.0 329.05 601.7 328.05 601.4 327.05 601.7 325.95 602.0 324.95 601.7 324.15 601.4 323.4 601.55 322.45 L601.5 320.25 Q601.35 319.1 601.5 318.05 L601.7 315.85 Q601.75 314.8 601.45 313.9 601.2 313.05 601.35 312.0 L601.5 309.65 601.35 307.65 601.3 305.9 601.25 303.9 Q601.1 302.8 601.3 301.6 L601.45 299.6 601.3 297.9 Q601.2 297.1 601.25 296.05 L601.25 293.75 Q601.25 292.4 601.4 291.35 L601.55 289.5 601.5 287.6 601.45 285.5 601.35 283.35 Q601.35 282.3 601.6 281.65 601.9 280.95 601.7 279.75 L601.5 277.75 601.4 275.7 601.4 273.5 601.5 271.7 601.55 269.55 601.5 267.25 601.5 265.45 601.45 263.4 601.45 261.15 601.5 259.4 601.5 257.45 601.5 255.3 601.75 253.3 Q601.95 252.3 601.7 251.25 601.5 250.3 601.6 249.3 L601.45 247.05 Q601.25 245.8 601.5 245.0 L601.85 243.2 Q601.95 242.2 601.7 241.4 601.45 240.6 601.5 239.5 L601.5 237.4 601.55 235.2 601.55 232.95 601.65 231.0 Q601.85 230.25 601.65 229.15 L601.45 226.9 Q601.45 225.75 601.6 224.9 601.8 224.1 601.65 223.05 L601.5 220.85 601.5 219.05 601.75 217.3 601.9 214.9 601.7 212.8 601.5 210.9 601.5 208.95 601.3 207.15 Q601.1 206.2 601.4 205.1 L601.55 203.05 601.25 200.65 601.1 198.45 601.2 196.65 601.4 194.9 601.5 192.7 601.4 190.45 601.25 188.65 601.3 186.6 Q601.5 185.45 601.3 184.6 601.1 183.8 601.15 182.45 L601.1 180.55 Q601.05 180.0 601.4 178.85 601.75 177.7 601.35 176.45 601.0 175.2 601.25 174.55 L601.6 172.7 Q601.75 171.5 601.35 170.4 601.0 169.35 601.25 168.4 L601.55 166.6 601.75 164.55 601.8 162.4 601.6 160.4 601.6 158.35 601.6 156.3 601.45 154.35 601.4 152.3 601.45 150.2 601.55 148.3 601.8 146.1 Q602.0 144.8 601.75 143.8 L601.5 142.0 601.45 140.15 601.45 138.2 601.5 136.1 Q601.5 134.95 601.65 134.0 L601.8 132.05 601.45 129.9 Q601.2 128.85 601.45 127.95 601.7 127.05 601.55 126.15 L601.45 124.35 601.5 122.2 601.4 119.9 Q601.25 118.9 601.4 118.0 L601.4 116.0 Q601.3 114.85 601.6 113.8 601.95 112.8 601.7 111.85 601.5 110.9 601.55 109.75 L601.7 107.55 601.6 105.6 601.4 103.75 601.55 101.7 601.6 99.75 Q601.5 98.9 601.55 97.8 L601.4 95.95 Q601.2 95.15 601.25 93.9 L601.2 91.7 601.3 89.7 601.55 87.75 601.55 85.7 601.45 83.6 Q601.4 82.6 601.5 81.6 L601.65 79.5 601.7 77.5 601.7 75.6 601.55 73.6 Q601.4 72.65 601.55 71.45 L601.65 69.35 601.55 67.65 601.7 65.85 Q601.85 64.85 601.6 63.75 L601.3 61.4 601.4 59.2 601.45 57.2 601.45 55.3 601.45 53.3 601.25 51.2 Q601.15 50.3 601.2 49.4 L601.5 47.6 Q601.75 46.7 601.65 45.6 L601.5 43.35 Q601.45 42.25 601.55 41.05 L601.6 38.9 601.5 37.25 601.45 35.85 601.5 34.0 599.9 33.8 597.6 33.9 595.25 34.15 593.3 34.05 591.5 33.8 589.7 33.85 587.75 33.8 585.5 34.0 Z" fill="none" stroke="#90c7b7" stroke-linecap="round" stroke-linejoin="round" stroke-opacity="0.5019608" stroke-width="1.0"/>
  </g>
</svg>
