<?xml version="1.0" encoding="UTF-8" standalone="no"?>
<svg xmlns:xlink="http://www.w3.org/1999/xlink" height="46.8px" width="46.8px" xmlns="http://www.w3.org/2000/svg">
  <g transform="matrix(1.0, 0.0, 0.0, 1.0, -1.6, -1.6)">
    <path d="M47.65 25.0 Q47.25 22.05 46.5 19.2 45.8 16.35 44.9 15.1 L41.0 8.95 36.35 6.25 32.35 3.7 Q30.7 2.55 25.0 2.35 L19.6 3.2 Q16.55 3.55 15.45 4.75 14.35 5.95 8.95 8.95 L5.4 13.9 Q3.5 16.55 3.15 17.8 2.8 19.05 2.35 25.0 2.5 27.85 3.3 30.8 L4.6 34.85 Q5.1 35.95 8.95 41.0 11.25 43.2 13.8 44.25 16.4 45.3 17.75 46.1 19.1 46.95 25.0 47.65 27.85 47.5 31.15 46.55 L35.5 45.3 Q36.55 44.95 41.0 41.0 43.55 39.1 44.65 36.25 45.8 33.4 46.65 32.05 47.5 30.75 47.65 25.0 Z" fill="none" stroke="#e66b7f" stroke-linecap="round" stroke-linejoin="round" stroke-opacity="0.5019608" stroke-width="1.5"/>
    <path d="M25.7 17.9 L19.05 17.9 19.05 12.8 25.7 12.8 Q31.6 12.8 35.75 16.95 39.95 21.1 39.95 27.0 39.95 32.9 35.75 37.05 31.6 41.2 25.7 41.2 19.85 41.2 15.7 37.05 11.5 32.9 11.5 27.0 L16.65 27.0 Q16.65 30.75 19.3 33.45 21.95 36.1 25.7 36.1 29.5 36.1 32.15 33.45 34.8 30.75 34.8 27.0 34.8 23.25 32.15 20.6 29.5 17.9 25.7 17.9" fill="#e66b7f" fill-rule="evenodd" stroke="none"/>
    <path d="M26.85 18.15 L27.95 18.2 28.75 18.3 29.55 18.85 30.4 19.3 30.85 19.45 32.15 20.6 Q32.95 20.6 32.85 21.1 32.8 21.65 33.15 21.9 33.55 22.2 33.65 22.85 L34.1 24.2 34.45 25.2 34.5 25.95 34.8 27.0 34.65 28.1 34.45 29.1 34.25 30.0 33.6 31.0 Q33.1 31.55 33.3 31.9 33.55 32.3 33.1 32.45 32.65 32.6 32.15 33.45 31.65 33.7 31.35 34.05 L30.6 34.7 29.45 35.05 28.45 35.25 27.7 35.65 26.8 36.0 26.05 36.1 25.7 36.1 24.8 35.9 24.1 35.8 22.95 35.8 Q22.35 35.85 21.9 35.5 L21.0 34.9 20.25 34.55 Q19.9 34.45 19.3 33.45 L18.65 32.8 18.2 31.9 17.9 31.05 17.45 30.15 16.85 29.4 Q16.7 29.15 16.65 28.3 L16.4 27.3 Q16.2 27.15 16.65 27.0 L15.85 27.15 14.7 27.25 13.65 27.0 Q13.15 26.8 12.65 27.0 L11.95 27.1 11.5 27.0 Q11.8 27.2 11.9 28.05 12.05 28.9 11.75 29.15 11.45 29.45 11.55 29.9 L11.9 30.75 12.5 31.9 12.75 33.0 Q12.7 33.4 13.25 34.0 13.85 34.65 13.7 34.85 13.6 35.05 14.1 35.25 L14.75 35.8 15.7 37.05 Q15.6 37.6 16.3 37.7 L17.5 38.45 Q17.95 39.1 18.25 39.15 L19.1 39.45 20.0 39.95 21.1 40.25 22.1 40.6 22.85 40.85 24.05 40.95 25.05 41.15 25.7 41.2 26.7 41.3 27.75 41.25 28.75 40.95 29.5 40.6 Q29.8 40.4 30.35 40.15 L31.4 39.85 32.4 39.5 33.55 39.1 Q34.2 38.95 34.2 38.4 34.2 37.85 34.45 38.05 34.7 38.3 35.75 37.05 36.35 36.3 36.55 36.35 L37.25 35.8 Q37.75 35.2 37.7 34.65 37.65 34.1 38.05 33.9 38.45 33.7 38.65 32.95 L38.95 32.1 39.3 31.2 39.7 29.95 39.8 28.9 39.85 28.05 39.9 27.45 39.95 27.0 40.0 25.85 39.6 24.85 39.45 23.8 Q39.5 23.4 39.15 22.9 38.85 22.45 38.85 22.1 L38.65 21.3 38.35 20.3 37.9 19.5 Q37.6 19.25 37.4 18.6 37.25 18.0 36.9 17.95 36.55 17.95 36.5 17.55 36.45 17.2 35.75 16.95 35.5 16.4 35.05 16.3 L34.25 15.8 33.4 15.1 32.55 14.6 31.55 14.15 Q30.9 13.95 30.65 13.65 30.45 13.35 29.85 13.2 L28.85 13.05 27.85 12.95 26.8 13.05 26.1 13.0 25.7 12.8 24.9 12.6 23.45 12.7 22.4 13.0 21.55 13.0 20.7 12.9 19.8 13.0 Q19.35 13.15 19.05 12.8 19.45 13.65 19.25 13.95 19.05 14.3 19.15 14.8 L19.15 15.9 19.15 16.75 19.3 17.15 19.05 17.9 Q19.45 18.25 19.95 18.2 L21.0 18.1 22.05 18.0 22.85 17.85 23.8 17.9 24.85 17.85 25.7 17.9 26.85 18.15 Z" fill="none" stroke="#e66b7f" stroke-linecap="round" stroke-linejoin="round" stroke-width="0.5"/>
    <path d="M19.55 15.35 L25.4 20.7 21.9 24.5 11.95 15.35 21.9 6.2 25.4 10.0 19.55 15.35" fill="#e66b7f" fill-rule="evenodd" stroke="none"/>
    <path d="M23.1 7.9 Q22.55 7.65 22.65 7.4 22.8 7.15 22.4 6.8 L21.9 6.2 Q21.25 6.65 21.1 7.1 L20.65 7.6 20.05 8.05 19.25 8.8 18.3 9.4 Q17.75 9.65 17.45 10.15 L16.55 11.15 15.85 11.85 15.35 12.35 14.65 13.05 13.8 13.85 12.95 14.5 12.35 14.8 Q12.1 14.85 11.95 15.35 12.6 15.35 12.8 16.1 L13.1 16.9 13.8 17.3 14.75 18.2 15.4 18.75 16.15 19.35 16.85 20.2 17.85 20.95 Q18.65 21.4 18.85 21.85 L19.45 22.5 19.95 23.1 20.55 23.8 21.3 24.4 21.9 24.5 Q22.0 24.15 22.45 23.8 L23.25 23.05 23.9 22.35 24.35 21.55 24.85 20.85 Q25.2 20.6 25.4 20.7 25.05 19.85 24.8 19.75 L24.1 19.2 Q23.7 18.8 23.1 18.5 22.55 18.25 22.5 17.8 22.45 17.35 22.1 17.15 L21.0 16.45 Q20.3 15.95 20.15 16.0 L19.55 15.35 Q19.85 14.75 20.45 14.5 L21.35 13.95 21.9 13.25 22.4 12.65 23.1 12.1 Q23.65 11.75 24.15 11.5 24.7 11.3 24.55 10.8 24.4 10.35 25.4 10.0 25.05 9.95 24.6 9.5 L23.9 8.6 23.1 7.9 Z" fill="none" stroke="#e66b7f" stroke-linecap="round" stroke-linejoin="round" stroke-width="0.5"/>
  </g>
</svg>
