<?xml version="1.0" encoding="UTF-8" standalone="no"?>
<svg xmlns:xlink="http://www.w3.org/1999/xlink" height="28.35px" width="63.95px" xmlns="http://www.w3.org/2000/svg">
  <g transform="matrix(1.0, 0.0, 0.0, 1.0, 32.55, 0.5)">
    <path d="M30.7 27.0 L-31.75 27.0 -31.75 7.3 30.7 7.3 30.7 27.0" fill="#ffffff" fill-rule="evenodd" stroke="none"/>
    <path d="M-7.6 7.15 L-9.5 7.5 -11.1 7.3 -13.05 7.2 -15.15 7.45 -16.9 7.5 -18.7 7.3 -20.5 7.15 -22.55 7.3 -24.45 7.4 -26.1 7.4 -27.65 7.2 -29.45 7.05 -30.9 7.2 -31.75 7.3 -31.95 9.45 -32.05 11.25 -31.95 13.25 -31.85 15.3 -31.65 17.55 -31.65 19.55 -31.65 21.2 Q-31.5 22.1 -31.65 23.2 L-31.7 24.75 -31.75 27.0 Q-30.8 26.55 -29.95 26.75 L-28.1 27.0 -26.4 27.1 -24.45 27.1 -22.7 27.0 -21.0 27.05 -19.05 27.1 -17.45 27.1 -15.55 27.15 -13.5 27.35 -11.65 27.25 -10.0 27.05 -8.0 26.85 -6.05 26.9 -4.45 27.05 -2.8 26.85 -0.85 26.7 1.05 26.9 2.8 27.0 4.55 26.85 6.3 26.8 8.35 27.05 10.25 27.05 11.85 26.8 13.7 26.7 15.75 26.95 17.5 27.1 19.2 27.15 21.2 27.1 Q22.2 26.95 23.15 27.1 L24.95 27.1 26.75 26.95 28.55 27.15 29.85 27.0 Q30.4 26.7 30.7 27.0 L30.85 24.6 30.7 22.7 30.55 20.95 30.7 19.0 30.7 16.9 Q30.65 15.85 30.75 15.05 L30.95 13.1 30.8 11.0 30.7 9.7 30.7 7.3 Q29.75 7.55 29.0 7.3 L27.1 7.2 25.25 7.3 23.4 7.3 21.55 7.25 19.75 7.2 17.95 7.15 16.1 7.25 14.15 7.2 12.5 7.2 10.75 7.3 8.6 7.1 6.85 7.25 5.15 7.3 Q4.3 7.0 3.2 7.3 L1.3 7.35 -0.55 7.25 -2.5 7.35 -4.0 7.45 -5.7 7.2 -7.6 7.15 Z" fill="none" stroke="#ffffff" stroke-linecap="round" stroke-linejoin="round" stroke-width="1.0"/>
    <path d="M0.05 0.0 L8.75 8.7 -8.65 8.7 0.05 0.0" fill="#ffffff" fill-rule="evenodd" stroke="none"/>
    <path d="M-1.25 1.35 L-2.8 2.95 -4.1 4.5 -5.45 5.7 -6.95 7.1 -8.0 8.0 -8.65 8.7 -6.8 8.7 -4.75 8.75 -2.5 8.5 -0.7 8.6 1.4 8.9 3.45 8.7 5.3 8.7 6.75 8.9 8.75 8.7 Q7.7 8.35 7.05 7.35 L5.95 5.9 4.7 4.55 3.15 3.0 1.65 1.65 0.6 0.6 0.05 0.0 -1.25 1.35 Z" fill="none" stroke="#ffffff" stroke-linecap="round" stroke-linejoin="round" stroke-width="1.0"/>
  </g>
</svg>
