<?xml version="1.0" encoding="UTF-8" standalone="no"?>
<svg xmlns:xlink="http://www.w3.org/1999/xlink" height="41.1px" width="50.95px" xmlns="http://www.w3.org/2000/svg">
  <g transform="matrix(1.0, 0.0, 0.0, 1.0, 25.45, 20.55)">
    <path d="M3.8 -19.1 L3.8 -17.8 4.9 -18.2 6.5 -18.4 Q9.0 -18.4 10.0 -16.8 L10.5 -15.15 10.05 -14.05 11.15 -12.9 11.65 -12.15 11.6 -11.55 Q11.6 -10.7 11.1 -9.8 10.55 -8.9 9.75 -8.35 L8.65 -7.95 7.45 -7.7 7.95 -6.9 9.1 -4.6 11.0 -4.15 11.4 -4.25 12.6 -4.4 14.8 -4.0 16.7 -3.65 Q17.25 -3.65 17.85 -3.05 21.05 -3.0 23.15 -0.3 24.75 1.8 24.75 3.55 L24.5 5.25 Q23.9 6.6 21.95 6.6 19.55 6.6 17.3 4.3 L14.6 0.8 Q13.6 -0.5 10.05 -1.9 L9.95 -1.9 11.05 1.55 Q11.35 2.5 11.35 4.7 11.35 10.15 10.25 12.5 8.15 16.9 1.25 19.25 L-1.5 19.25 Q-7.1 18.4 -9.0 12.9 -10.0 10.0 -10.0 4.4 -10.0 2.9 -9.15 -0.35 L-8.65 -2.05 -11.4 -1.05 Q-12.6 -0.35 -14.9 1.8 L-17.7 4.4 Q-20.85 6.85 -23.0 6.85 -24.8 6.85 -25.2 5.9 L-25.25 4.95 Q-25.25 1.95 -22.35 -0.4 -18.6 -3.35 -10.9 -4.45 L-8.25 -4.4 -7.85 -4.3 -7.65 -4.75 -6.3 -6.95 -6.35 -7.05 -6.3 -7.95 -8.0 -7.75 Q-9.8 -7.75 -10.15 -8.55 L-10.15 -9.4 -9.65 -11.35 Q-9.0 -12.95 -8.0 -12.8 L-8.5 -14.8 -8.2 -15.7 Q-7.55 -16.25 -5.7 -16.25 -4.55 -16.25 -4.15 -15.9 L-3.95 -15.5 -3.5 -15.8 -3.75 -17.2 Q-3.75 -18.15 -2.8 -18.9 -1.5 -19.9 1.1 -19.9 3.5 -19.9 3.8 -19.1" fill="#fffef8" fill-rule="evenodd" stroke="none"/>
    <path d="M-25.4 4.25 L-25.25 3.1 Q-25.25 0.5 -20.45 -2.2 -14.95 -5.3 -8.2 -4.35 L-8.1 -4.2 Q-8.55 -3.85 -9.1 -3.85 L-10.05 -4.05 Q-17.75 -4.05 -22.1 0.25 -24.35 2.5 -24.85 4.1 -24.75 3.95 -24.55 3.9 L-24.9 4.8 -24.75 5.75 Q-24.35 6.5 -22.75 6.5 -20.4 6.5 -18.05 4.75 L-15.7 2.65 -15.6 2.65 -15.55 2.85 -15.55 3.0 -15.25 1.9 Q-15.25 0.75 -12.8 -0.95 -10.15 -2.75 -8.25 -2.1 -8.65 -1.8 -10.35 -1.2 -11.95 -0.7 -12.95 0.25 L-15.45 3.3 -15.6 3.25 Q-15.9 4.3 -17.8 5.65 -20.25 7.4 -22.7 7.4 -24.15 7.4 -24.9 6.7 -25.45 6.25 -25.45 5.85 L-25.25 4.7 -25.4 4.25 M-17.7 0.4 Q-16.65 -0.9 -13.9 -1.95 -10.85 -3.1 -8.9 -2.5 L-9.3 -2.35 Q-10.5 -2.35 -13.95 -0.95 L-17.45 0.55 -17.7 0.4 M-17.65 1.0 L-17.75 1.0 -17.45 0.8 -17.65 1.0 M5.6 -12.35 L5.85 -12.35 6.2 -11.2 6.25 -10.2 6.15 -9.0 6.0 -8.95 Q5.8 -9.25 5.85 -10.15 L5.6 -11.3 5.6 -12.35 M-1.3 -11.35 L-1.15 -11.2 -1.7 -10.35 Q-1.9 -9.9 -1.65 -9.5 L-1.65 -9.4 -2.15 -10.05 -1.95 -10.8 -1.3 -11.35 M-2.55 -12.95 Q-3.55 -11.9 -3.55 -9.85 L-3.35 -9.25 Q-3.8 -9.7 -3.85 -10.0 L-3.9 -10.7 -3.75 -11.95 -2.85 -13.1 -2.55 -12.95 M-3.9 -13.35 Q-4.55 -12.65 -4.55 -11.55 L-4.35 -9.5 Q-4.75 -9.95 -4.75 -11.2 L-4.7 -12.25 -4.2 -13.45 -3.9 -13.35 M7.85 -12.0 L7.45 -9.75 7.35 -9.75 7.2 -10.95 7.25 -11.65 7.7 -12.2 7.8 -12.2 7.85 -12.0 M8.7 -10.1 L8.95 -10.95 9.2 -10.95 9.35 -10.65 8.9 -9.7 8.7 -10.1 M9.35 -4.65 L13.9 -4.65 Q17.7 -4.65 21.8 -1.65 25.9 1.3 24.65 3.7 L23.95 2.0 Q22.95 -0.15 20.45 -1.6 17.9 -3.1 16.55 -3.5 L8.9 -3.9 8.6 -4.3 Q8.6 -4.6 9.35 -4.65 M11.6 -1.45 Q14.7 -0.65 16.35 2.15 18.05 5.1 20.0 6.1 L20.2 6.15 21.25 6.4 Q24.2 6.4 24.55 5.15 L25.15 3.25 Q25.5 3.6 25.5 4.1 24.9 7.25 22.4 7.25 L20.05 7.05 18.5 6.35 17.3 5.3 16.0 2.75 Q14.9 0.25 11.6 -1.25 L11.6 -1.45 M10.7 -2.35 L11.85 -2.5 Q15.3 -2.5 17.0 -0.5 L16.9 -0.35 Q15.85 -1.0 13.1 -1.65 L10.65 -2.2 10.7 -2.35 M17.5 0.05 L18.35 -0.05 18.75 0.25 Q18.8 0.4 18.55 0.4 L17.55 0.35 Q17.45 0.45 17.45 0.2 L17.5 0.05 M18.95 0.9 L18.95 0.45 19.85 0.65 19.9 0.8 19.85 1.1 19.4 1.15 19.0 1.1 18.95 0.9 M6.1 10.95 L5.4 11.55 5.4 11.3 5.15 11.3 5.15 11.9 5.25 11.95 5.75 11.55 6.25 11.0 6.1 10.95 M4.3 11.6 L4.15 11.95 4.15 12.0 4.5 11.95 4.5 11.55 4.3 11.6 M4.7 12.65 L3.5 12.4 3.5 12.05 Q3.5 11.15 5.2 10.45 6.9 9.8 6.9 10.9 6.9 11.4 6.5 11.9 5.9 12.65 4.7 12.65 M-5.35 12.0 L-5.55 11.4 Q-5.55 9.95 -4.35 10.25 -3.15 10.5 -3.15 11.5 -3.2 12.6 -3.8 12.6 -4.9 12.6 -5.35 12.0" fill="#5b5546" fill-rule="evenodd" stroke="none"/>
    <path d="M-4.25 -17.35 Q-4.25 -18.3 -3.05 -19.3 -1.65 -20.5 0.3 -20.5 2.15 -20.65 3.05 -20.05 3.8 -19.6 3.8 -18.85 L3.6 -18.0 3.5 -18.0 2.95 -19.3 Q2.35 -19.85 0.8 -19.85 -1.8 -19.85 -2.95 -18.5 -3.65 -17.7 -3.65 -17.05 L-3.2 -15.75 -3.25 -15.5 -3.45 -15.35 -4.1 -16.45 -4.25 -17.35 M-4.05 -15.2 L-4.65 -15.75 -6.0 -16.05 Q-7.8 -16.05 -8.15 -15.05 L-8.2 -14.0 -7.85 -13.25 -7.5 -12.5 -7.6 -12.4 Q-8.75 -12.9 -8.75 -15.7 -8.75 -16.5 -6.45 -16.8 -4.1 -17.1 -3.85 -15.55 L-3.9 -15.35 -4.05 -15.2 M4.3 -17.55 Q4.05 -17.65 4.05 -17.9 4.05 -19.3 7.6 -18.6 11.15 -17.9 11.15 -14.75 11.15 -13.55 10.05 -13.05 L9.75 -13.15 10.25 -14.65 Q10.25 -15.5 9.55 -16.5 8.45 -18.05 6.35 -18.05 L4.3 -17.55 M1.8 -9.35 L1.55 -9.45 Q1.2 -9.1 0.85 -8.9 0.0 -8.35 -1.4 -8.35 -3.2 -8.35 -4.0 -8.95 L-4.45 -9.55 -4.4 -9.75 -3.75 -9.4 -0.3 -9.05 Q0.45 -9.05 1.4 -9.55 L1.2 -9.8 Q1.2 -10.3 1.95 -10.1 L3.8 -9.45 3.05 -9.1 1.8 -9.35 M-10.4 -11.45 Q-9.7 -12.85 -8.05 -12.45 -9.0 -12.5 -9.65 -11.35 L-10.1 -9.75 -9.95 -8.7 Q-9.5 -7.85 -7.75 -7.85 L-6.4 -8.1 -5.8 -8.45 -5.75 -8.45 -5.7 -8.3 Q-5.7 -7.9 -6.6 -7.5 -7.6 -7.05 -8.75 -7.05 -9.95 -7.05 -10.5 -8.15 L-10.8 -9.25 Q-10.8 -10.55 -10.4 -11.45 M-5.7 -6.9 Q-7.25 -4.8 -8.3 -1.95 -9.75 1.85 -9.7 4.95 L-9.7 7.55 Q-9.5 10.2 -8.65 12.3 -6.2 19.1 1.8 19.15 L2.55 18.85 3.2 18.7 6.25 16.8 Q8.4 14.9 9.5 12.65 11.35 8.85 11.15 4.45 10.95 0.15 8.95 -4.1 L7.45 -6.9 7.7 -6.9 7.5 -7.4 7.0 -7.45 6.9 -7.85 7.3 -8.05 7.25 -8.2 7.3 -8.7 7.5 -8.7 7.8 -8.2 9.05 -8.6 Q11.2 -9.45 11.2 -10.75 L11.05 -11.6 10.3 -12.75 Q11.45 -12.6 11.8 -11.6 L12.0 -10.0 Q12.0 -9.15 10.8 -8.25 9.6 -7.4 8.35 -7.35 L8.7 -6.7 8.5 -6.7 Q11.65 -1.25 12.0 4.75 12.2 8.5 10.45 12.9 7.4 20.55 0.05 20.55 L-3.15 20.3 -3.25 20.05 -2.55 20.1 0.1 19.75 -0.75 19.75 Q-6.95 19.75 -9.35 13.55 -10.6 10.5 -10.65 6.7 L-10.7 3.2 -9.5 -1.2 Q-8.75 -3.8 -7.9 -5.25 L-6.7 -6.9 Q-5.75 -7.9 -4.5 -8.35 L-5.7 -6.9" fill="#5b5546" fill-rule="evenodd" stroke="none"/>
    <path d="M3.7 -4.45 L3.75 -4.65 3.6 -4.75 Q2.0 -4.75 1.4 -3.35 1.1 -2.65 1.1 -1.9 1.1 -1.1 1.45 -0.35 2.05 0.95 3.4 0.95 6.1 0.95 6.75 -1.65 6.75 -2.35 5.9 -3.5 5.0 -4.65 4.1 -4.95 L3.7 -4.45 M4.95 -1.5 Q4.95 -0.55 3.95 -0.55 2.9 -0.55 2.6 -0.95 L2.5 -1.4 Q2.5 -2.3 3.75 -2.4 4.95 -2.5 4.95 -1.5 M0.85 -0.05 L0.45 -1.85 Q0.45 -5.8 4.1 -5.5 7.75 -5.15 7.75 -1.65 7.75 -0.6 6.65 0.45 5.3 1.7 3.35 1.7 1.6 1.7 0.85 -0.05" fill="#5b5546" fill-rule="evenodd" stroke="none"/>
    <path d="M-0.3 -4.35 L0.35 -2.9 0.7 -1.55 Q0.7 -0.55 0.1 0.45 -0.8 1.9 -2.6 1.9 -6.4 1.9 -6.4 -1.55 -6.4 -4.7 -3.65 -4.7 L-2.4 -4.35 Q-4.7 -4.4 -5.45 -3.3 -5.8 -2.8 -5.8 -1.6 -5.8 -0.7 -5.35 0.0 -4.7 1.05 -3.15 1.05 -1.55 1.05 -0.7 -0.05 -0.15 -0.8 -0.15 -1.5 -0.15 -2.45 -0.75 -3.4 -1.75 -5.0 -3.95 -5.0 L-4.6 -4.6 -4.7 -4.65 Q-3.8 -5.6 -2.35 -5.35 -1.2 -5.15 -0.3 -4.35 M-4.3 -0.85 Q-4.3 -2.45 -3.05 -2.5 -1.8 -2.55 -1.95 -1.75 -2.1 -1.0 -2.45 -0.7 -2.85 -0.45 -3.15 -0.35 L-3.9 -0.55 -4.3 -0.85 M-3.95 -1.45 L-3.9 -1.45 -3.75 -2.0 -3.9 -1.95 -3.95 -1.45" fill="#5b5546" fill-rule="evenodd" stroke="none"/>
    <path d="M12.15 -2.2 L11.75 -1.85 11.3 -1.4 10.95 -1.45 11.2 -1.95 Q11.55 -2.4 12.15 -2.2 M15.45 -1.45 L12.8 -0.8 11.35 0.05 12.75 -1.05 Q14.0 -1.8 15.45 -1.45 M17.55 -0.95 Q14.85 -0.5 12.75 0.6 L12.45 0.55 Q13.05 -0.05 14.55 -0.55 L17.55 -0.95 M22.65 5.6 L22.15 5.7 21.95 5.6 Q22.4 5.3 22.95 5.3 L22.65 5.6 M21.55 4.35 L21.1 4.55 20.9 4.75 19.9 4.7 19.85 4.55 19.9 4.45 21.2 4.2 21.55 4.35 M21.2 3.05 L19.35 3.45 18.2 3.3 18.2 3.1 22.25 2.6 21.2 3.05 M19.6 0.1 L16.75 0.85 16.3 0.85 16.1 0.8 Q16.6 0.45 17.8 0.25 L19.6 0.1 M17.1 1.65 L20.55 1.3 18.25 2.05 17.15 2.0 17.05 1.85 17.1 1.65 M2.55 10.8 L-2.4 10.95 -6.15 10.9 -6.2 10.8 -5.5 10.55 0.65 10.55 2.55 10.8 M2.7 15.05 L2.1 15.25 -0.45 15.4 -4.1 15.1 -4.65 14.7 -4.6 14.7 -1.0 15.35 2.7 14.95 2.7 15.05 M2.45 13.55 L2.7 13.65 1.9 13.85 -1.3 14.0 -4.65 14.05 -4.75 13.75 -5.05 13.55 1.1 13.75 2.45 13.55 M4.0 16.8 L1.15 16.95 -2.35 16.65 Q-4.0 16.35 -4.15 16.05 L-4.15 15.95 -2.0 16.45 Q-0.3 16.7 4.45 16.4 L4.5 16.5 4.0 16.8 M4.45 17.8 Q3.05 18.5 1.45 18.5 L-3.15 17.35 -3.05 17.3 Q-1.95 17.9 1.45 18.15 L3.4 18.0 4.45 17.8 M-11.85 -1.05 L-13.7 -1.1 -16.4 -1.65 -14.25 -1.85 Q-11.2 -1.6 -11.05 -1.05 L-11.05 -0.95 Q-11.35 -1.05 -11.35 -1.1 L-11.85 -1.05 M-13.0 -2.1 L-13.1 -2.15 Q-12.5 -2.75 -11.1 -2.65 L-9.95 -2.15 Q-9.3 -1.85 -9.15 -1.5 L-9.2 -1.4 Q-9.65 -1.5 -10.5 -2.05 L-13.0 -2.1 M-18.5 -0.4 Q-13.9 -1.85 -12.0 0.05 L-13.1 -0.1 -18.5 -0.4 M-2.35 -7.45 Q-1.0 -7.65 0.2 -7.45 L-2.1 -7.2 -3.75 -7.1 -4.65 -7.2 -2.35 -7.45 M-2.25 -7.95 L-3.9 -7.7 -3.95 -7.9 Q-3.35 -8.45 -2.25 -8.55 L-0.55 -8.55 Q-0.95 -8.2 -2.25 -7.95 M-8.5 -1.45 L-9.75 -2.1 -11.4 -2.9 Q-10.7 -3.1 -9.65 -2.45 L-8.5 -1.55 -8.5 -1.45 M-4.75 -5.9 Q-3.35 -6.85 -1.95 -6.4 L-4.65 -5.7 -4.75 -5.9 M-4.7 4.05 L-7.25 4.4 -7.6 4.35 -7.8 4.3 Q-3.95 2.85 -0.2 3.05 L-4.7 4.05 M-0.05 4.9 L-4.5 5.5 -7.6 6.1 -8.15 6.05 Q-6.1 5.25 -5.5 5.15 L-1.5 4.8 -0.05 4.9 M-6.25 0.35 L-6.6 0.2 -6.5 0.15 -6.3 0.15 -6.05 0.35 -6.25 0.35 M-6.05 1.55 Q-5.0 1.35 -4.7 1.55 -5.05 1.55 -5.5 1.8 L-6.75 2.0 -7.4 1.85 -6.05 1.55 M-8.0 3.35 Q-8.0 3.0 -5.8 2.75 L-2.75 2.6 -7.85 3.45 -8.0 3.35 M-7.55 7.25 L-7.5 7.1 -1.8 6.6 -4.15 6.9 -6.85 7.45 -7.35 7.45 -7.5 7.45 -7.55 7.25 M-5.8 7.85 L-3.25 7.6 -0.4 7.25 Q2.45 7.05 2.45 7.8 L-4.95 8.1 -6.9 8.55 -6.95 8.25 Q-6.95 7.9 -5.8 7.85 M-7.15 9.45 L-3.1 9.25 Q0.7 9.05 0.55 9.3 L-6.0 9.5 -6.5 9.6 -7.15 9.45 M-5.7 12.25 L-0.45 12.6 -1.75 12.75 -5.4 12.9 -5.6 12.55 -5.75 12.35 -5.7 12.25 M-15.5 2.1 L-14.7 2.3 -20.35 2.35 -20.55 2.3 -19.0 2.05 -15.5 2.1 M-13.05 1.35 L-20.6 0.55 -16.05 0.7 Q-14.95 0.8 -13.05 1.35 M-22.05 3.55 L-17.9 3.6 -21.6 3.7 -22.05 3.55" fill="#5b5546" fill-rule="evenodd" stroke="none"/>
    <path d="M7.35 -7.0 Q8.4 -7.0 8.8 -6.3 9.15 -5.75 9.0 -5.25 L9.0 -5.15 Q11.5 -4.65 11.9 -3.25 12.15 -2.5 12.0 -1.25 12.65 -1.1 13.1 -0.55 L13.4 0.2 Q13.4 0.9 11.15 1.9 L11.0 2.0 Q12.0 2.3 12.3 2.75 L12.5 3.55 Q12.5 3.95 12.1 4.25 11.55 4.65 9.65 5.5 10.25 6.2 10.25 7.05 L10.0 9.15 Q10.0 10.25 8.6 10.75 10.0 11.0 10.0 12.55 10.0 13.65 9.25 14.0 10.75 14.45 10.75 15.5 10.75 16.8 7.35 17.7 L3.4 18.35 0.0 19.0 Q-5.7 19.0 -7.55 18.15 -8.5 17.65 -8.5 16.5 -8.5 16.15 -8.1 15.7 -7.65 15.1 -7.5 14.5 L-9.5 13.2 Q-10.0 12.85 -10.0 12.25 -10.0 11.4 -9.8 11.15 L-8.4 9.9 -8.9 8.5 Q-8.9 7.65 -8.3 7.1 L-9.25 5.45 -9.8 3.7 -9.1 2.8 Q-8.4 2.05 -8.4 1.75 -8.4 1.1 -10.15 0.65 -11.9 0.2 -11.9 -0.5 -11.9 -1.45 -9.7 -2.95 -7.5 -4.5 -7.5 -4.8 -7.5 -5.4 -6.35 -6.5 L-5.25 -7.55 -5.5 -8.25 -5.75 -8.95 Q-5.75 -10.25 -4.75 -10.3 L-0.75 -10.15 3.25 -10.5 Q4.65 -10.5 4.1 -8.75 L5.6 -8.8 Q7.6 -8.8 7.7 -7.95 L7.35 -7.0 M0.75 -2.0 Q0.65 -1.25 1.05 -0.45 1.85 1.25 4.35 1.25 6.0 1.25 6.9 0.0 7.5 -0.9 7.5 -1.9 7.5 -4.7 4.15 -4.7 0.75 -4.7 0.75 -2.0 M2.9 12.6 Q-0.75 13.7 -1.5 14.25 L1.2 13.4 2.9 12.6 M-7.0 -1.5 Q-7.1 -0.9 -6.75 -0.35 -6.15 0.75 -4.1 0.75 L-3.4 0.75 -3.0 0.75 Q-1.7 0.75 -0.75 -0.4 0.0 -1.35 0.0 -1.9 0.0 -3.25 -1.4 -3.9 L2.25 -5.4 -1.4 -4.5 -2.2 -4.15 -2.5 -4.25 Q-3.7 -4.55 -4.3 -3.95 -7.0 -3.6 -7.0 -1.5" fill="#5b5546" fill-opacity="0.3019608" fill-rule="evenodd" stroke="none"/>
    <path d="M0.9 -6.35 L-1.05 -4.55 Q-0.3 -4.2 -0.1 -3.75 L0.0 -2.9 -0.05 -2.4 Q-0.35 -3.8 -2.5 -4.25 -3.7 -4.55 -4.35 -3.95 -7.0 -3.6 -7.0 -1.5 -7.1 -0.9 -6.75 -0.35 -6.2 0.7 -4.3 0.75 L-4.75 1.1 -4.8 1.25 -3.85 0.75 -3.4 0.75 -3.0 0.75 Q-1.7 0.75 -0.75 -0.4 L-0.3 -1.05 -0.25 -1.05 Q1.05 -1.05 1.1 0.15 1.1 1.2 0.6 1.65 0.1 2.1 -1.75 2.75 L-1.9 2.85 Q-0.65 2.8 -0.3 3.5 -0.05 4.0 -0.25 4.65 L-0.25 4.75 2.5 4.8 Q3.15 5.3 3.15 5.95 3.15 6.85 1.4 7.95 L-2.75 10.25 -2.75 10.35 0.95 8.45 Q4.15 6.75 4.5 6.75 6.05 6.75 6.15 8.2 6.15 8.8 5.6 9.45 4.85 10.3 3.6 10.65 4.95 10.85 5.3 11.7 5.65 12.5 5.0 13.15 6.25 13.35 8.0 17.25 8.0 17.9 6.05 19.0 3.75 20.25 1.25 20.25 -1.85 20.25 -5.15 17.65 -7.4 15.85 -8.3 14.4 -8.8 13.75 -8.85 12.85 -8.9 11.45 -9.05 11.0 -9.2 10.45 -10.05 9.5 -10.8 8.6 -10.8 8.0 L-8.65 1.35 Q-8.65 0.75 -9.0 -0.3 L-9.4 -2.0 Q-9.4 -6.05 -3.35 -8.65 -1.05 -9.65 0.75 -9.75 2.65 -9.85 2.65 -8.9 2.65 -8.2 0.9 -6.35 M-3.25 6.9 L-2.2 6.25 -3.05 6.75 -3.25 6.9" fill="#5b5546" fill-opacity="0.3019608" fill-rule="evenodd" stroke="none"/>
    <path d="M-11.1 -4.1 Q-8.55 -4.25 -8.55 -2.65 -8.55 -2.3 -14.95 2.3 -21.55 7.0 -22.75 7.0 -23.7 7.0 -24.35 6.15 L-24.75 5.25 Q-24.75 1.25 -16.65 -2.45 -13.4 -3.95 -11.1 -4.1" fill="#5b5546" fill-opacity="0.3019608" fill-rule="evenodd" stroke="none"/>
    <path d="M-8.5 -1.75 Q-8.5 -0.7 -11.4 0.0 L-16.25 1.4 -18.95 3.3 -21.5 4.9 Q-23.2 4.9 -23.05 3.7 -23.05 0.55 -15.75 -1.65 -8.5 -3.8 -8.5 -1.75" fill="#5b5546" fill-opacity="0.3019608" fill-rule="evenodd" stroke="none"/>
    <path d="M22.9 -0.5 Q23.15 -0.3 23.15 1.85 L23.6 2.7 24.0 3.4 Q24.0 3.7 22.8 5.0 L21.25 6.25 Q19.75 6.25 15.25 1.65 11.0 -2.65 11.0 -3.0 11.0 -4.0 16.5 -3.8 20.65 -1.6 22.9 -0.5" fill="#5b5546" fill-opacity="0.3019608" fill-rule="evenodd" stroke="none"/>
    <path d="M10.25 -1.05 L10.15 -1.75 Q10.15 -3.95 15.35 -2.4 20.5 -0.9 20.5 1.55 20.3 3.0 19.25 3.0 17.85 3.0 15.1 1.4 12.3 -0.25 11.5 -0.25 10.55 -0.25 10.25 -1.05" fill="#5b5546" fill-opacity="0.3019608" fill-rule="evenodd" stroke="none"/>
  </g>
</svg>
