<?xml version="1.0" encoding="UTF-8" standalone="no"?>
<svg xmlns:xlink="http://www.w3.org/1999/xlink" height="23.95px" width="51.2px" xmlns="http://www.w3.org/2000/svg">
  <g transform="matrix(1.0, 0.0, 0.0, 1.0, 25.2, 11.95)">
    <path d="M9.4 -10.05 L10.9 -10.5 Q11.7 -10.5 11.6 -9.85 L14.75 -9.65 16.35 -9.55 17.35 -9.65 19.4 -9.2 Q20.65 -8.7 20.65 -8.1 22.6 -7.45 23.15 -6.65 L23.2 -6.25 Q23.25 -6.0 23.5 -5.85 L24.0 -5.1 23.9 -4.8 24.4 -4.35 24.9 -3.7 Q24.9 -1.7 20.75 -1.7 18.65 -1.7 18.3 -2.6 L15.95 -2.8 14.7 -3.5 Q13.75 -3.55 13.15 -4.0 12.7 -4.05 12.05 -4.4 11.35 -4.7 11.0 -5.25 L10.55 -6.0 9.3 -6.55 Q8.5 -6.85 8.5 -7.4 L7.6 -7.5 8.45 -6.45 9.45 -4.95 Q11.4 -0.7 11.4 1.25 11.4 2.55 11.05 2.95 L11.25 3.45 Q11.25 4.45 10.3 5.65 L8.4 7.95 7.45 9.0 6.45 9.4 5.45 9.7 3.7 10.55 1.6 11.05 -0.25 10.75 -0.25 10.8 -0.9 10.75 -1.05 10.85 -4.3 10.85 -4.65 10.5 Q-6.15 10.6 -6.15 10.0 L-5.9 9.55 Q-8.5 9.0 -9.75 6.95 L-10.7 5.25 -10.75 4.0 -10.7 0.2 -9.8 -3.4 -8.9 -5.15 -8.3 -5.55 -7.7 -6.85 -7.4 -7.4 -9.0 -7.15 Q-9.3 -6.45 -11.05 -5.35 -12.0 -4.75 -14.0 -3.7 -14.85 -3.15 -17.15 -2.4 L-21.3 -1.6 -23.35 -1.6 -24.6 -2.25 -24.85 -2.9 -24.5 -3.45 Q-24.2 -3.65 -24.2 -4.0 L-23.9 -4.7 -23.6 -5.0 -23.7 -5.4 Q-23.7 -5.9 -22.6 -6.95 L-20.75 -8.25 Q-20.1 -8.45 -19.25 -8.95 L-18.1 -9.45 -16.1 -9.65 -13.85 -9.9 -10.5 -9.9 -10.15 -9.65 -8.75 -9.65 -6.55 -8.9 -6.25 -8.75 -4.4 -10.3 -1.1 -11.85 0.65 -11.85 2.4 -11.15 2.9 -10.9 3.15 -10.9 Q3.75 -10.9 4.5 -10.25 L5.2 -9.5 Q5.4 -9.25 6.15 -8.75 L6.35 -8.65 6.65 -8.85 8.3 -9.55 Q8.4 -9.55 9.4 -10.05 M10.1 1.9 L9.95 2.35 10.0 2.6 10.05 2.55 10.1 1.95 10.1 1.9" fill="#fffef8" fill-rule="evenodd" stroke="none"/>
    <path d="M7.0 -4.55 Q7.0 -6.7 3.7 -7.1 0.4 -7.5 0.4 -4.45 0.4 -3.8 0.85 -3.15 1.65 -2.0 3.5 -2.0 5.6 -2.0 6.5 -3.15 7.0 -3.8 7.0 -4.55 M7.5 -9.0 L11.0 -9.35 14.6 -9.75 Q20.25 -9.75 20.75 -9.0 20.25 -7.9 20.25 -7.3 21.45 -7.95 22.05 -7.1 22.5 -6.4 22.35 -5.55 23.85 -4.9 25.3 -4.55 26.0 -4.25 26.0 -3.15 26.0 -2.3 25.65 -2.0 24.9 -1.4 22.35 -1.4 L19.45 -1.0 Q16.6 -1.1 16.4 -3.3 L14.9 -3.5 14.65 -3.1 10.1 -2.9 10.1 -1.4 12.05 -0.25 12.6 0.25 Q12.6 1.85 8.65 5.85 L6.0 8.25 6.0 8.2 Q6.65 6.5 6.65 5.35 6.65 4.85 6.1 4.35 5.2 3.5 3.3 3.5 L1.3 3.8 0.2 4.1 -0.25 3.8 -2.6 3.5 Q-5.4 3.5 -6.15 4.9 -6.5 5.6 -6.35 6.4 L-6.25 7.5 -5.0 8.75 -5.15 10.05 -5.0 10.35 -5.1 10.35 Q-7.95 10.35 -8.25 9.65 L-8.05 8.5 Q-10.2 8.15 -10.7 7.65 L-10.8 6.9 -10.0 4.65 -9.25 2.6 -10.05 1.3 -10.9 -0.25 -10.5 -2.1 Q-9.85 -3.9 -8.75 -5.0 L-8.55 -5.15 Q-11.65 -4.2 -13.8 -2.9 -15.0 -2.15 -17.25 -2.15 L-19.5 -2.8 Q-20.0 -2.8 -21.0 -2.2 -22.0 -1.65 -22.5 -1.65 -23.8 -1.65 -24.0 -2.65 L-24.0 -3.75 Q-24.0 -5.1 -21.7 -7.25 -19.0 -9.75 -15.85 -9.75 L-14.95 -9.5 -14.05 -9.25 -13.4 -9.5 -12.75 -9.8 -10.8 -9.35 -7.6 -8.9 Q-6.4 -8.9 -5.05 -9.7 -3.7 -10.5 -2.1 -10.5 L4.3 -9.75 7.5 -9.0 M-0.6 -5.2 Q-0.6 -7.8 -3.2 -7.55 -5.85 -7.3 -5.85 -4.5 -5.85 -3.95 -5.5 -3.5 -4.95 -2.75 -3.75 -2.75 -0.6 -2.75 -0.6 -5.2" fill="#595345" fill-opacity="0.3019608" fill-rule="evenodd" stroke="none"/>
    <path d="M-22.55 -2.8 Q-22.75 -3.2 -22.55 -3.65 -22.55 -6.15 -16.4 -7.4 L-8.75 -8.25 -6.9 -8.0 Q-6.75 -8.3 -6.75 -7.65 -6.75 -7.25 -7.0 -7.15 L-7.75 -7.15 Q-8.6 -7.15 -9.45 -6.35 L-11.25 -4.6 Q-14.3 -2.05 -20.35 -2.05 -22.2 -2.05 -22.55 -2.8" fill="#595345" fill-opacity="0.3019608" fill-rule="evenodd" stroke="none"/>
    <path d="M7.65 -7.0 Q7.65 -8.25 15.25 -7.65 17.25 -7.55 18.0 -6.95 L19.6 -5.4 21.5 -5.55 Q22.65 -5.55 22.6 -4.35 22.6 -3.25 20.85 -3.0 L21.0 -2.75 21.15 -2.25 Q21.15 -1.65 20.5 -1.3 L19.5 -1.05 Q18.45 -1.05 18.3 -1.55 L18.35 -2.5 14.75 -3.35 Q12.7 -4.0 12.6 -5.25 L8.5 -5.95 Q7.65 -6.3 7.65 -7.0" fill="#595345" fill-opacity="0.3019608" fill-rule="evenodd" stroke="none"/>
    <path d="M1.6 -7.85 L2.35 -7.1 Q0.4 -6.8 0.4 -4.45 L0.4 -4.35 -0.95 -3.85 Q-0.6 -4.4 -0.6 -5.2 -0.6 -6.5 -1.2 -7.05 L0.0 -7.45 1.6 -7.85 M1.55 -9.8 Q2.6 -9.8 2.6 -9.1 2.6 -8.5 1.65 -8.15 L-1.3 -7.15 Q-1.95 -7.65 -3.2 -7.55 L-4.65 -7.1 Q-5.75 -6.8 -6.25 -5.85 -6.6 -5.15 -6.6 -4.3 -6.75 -3.7 -6.5 -3.15 -6.0 -2.0 -4.0 -2.0 -2.1 -2.0 -1.25 -3.4 L-1.15 -3.6 -1.0 -3.8 0.45 -4.2 Q0.5 -3.7 0.85 -3.15 1.65 -2.0 3.5 -2.0 L4.0 -2.0 3.75 -1.75 Q3.35 -1.45 2.15 -1.1 L1.95 -1.05 3.05 -1.25 Q3.55 -1.25 3.9 -0.85 4.25 -0.5 4.65 -0.5 5.5 -0.5 5.5 0.4 5.5 1.0 3.8 1.65 L0.45 3.0 1.3 2.75 2.25 2.5 Q3.1 2.5 3.1 3.4 L3.1 3.5 1.3 3.8 0.2 4.1 -0.25 3.8 -2.6 3.5 Q-5.4 3.5 -6.15 4.9 -6.5 5.6 -6.35 6.4 L-6.25 7.5 Q-6.05 8.05 -5.25 8.6 L-6.4 8.75 Q-8.15 8.75 -7.5 7.3 -8.2 6.85 -9.7 6.3 -10.5 6.0 -10.5 5.35 L-10.2 4.95 -9.8 4.4 Q-10.1 4.25 -10.1 3.7 L-9.95 3.1 -9.05 2.35 -9.85 1.85 -9.9 1.5 Q-9.9 1.1 -9.2 0.45 L-9.5 -0.25 Q-9.5 -0.7 -8.85 -1.15 L-7.65 -2.0 Q-8.35 -2.25 -8.35 -2.8 L-8.0 -3.65 -8.5 -4.5 -8.0 -5.15 -6.8 -6.0 -7.05 -6.55 Q-7.05 -8.15 -3.6 -9.95 -0.05 -11.85 0.8 -9.65 L1.55 -9.8" fill="#595345" fill-opacity="0.3019608" fill-rule="evenodd" stroke="none"/>
    <path d="M9.95 -5.0 L9.85 -5.5 Q9.85 -6.1 11.15 -7.05 12.55 -8.05 13.45 -7.8 11.65 -7.4 10.8 -6.45 L10.05 -5.0 9.95 -5.0 M8.75 -5.55 Q8.85 -6.0 9.75 -6.85 L11.05 -8.0 Q10.95 -7.5 10.15 -6.7 L8.9 -5.5 8.75 -5.55 M14.75 -7.5 L14.95 -7.3 12.75 -6.05 Q11.7 -5.2 11.4 -4.55 L11.35 -4.7 Q11.35 -5.3 12.55 -6.35 13.8 -7.45 14.75 -7.5 M15.0 -2.7 L14.95 -2.85 Q14.95 -3.8 16.05 -5.05 17.2 -6.4 18.15 -6.15 L18.1 -5.85 17.8 -5.9 16.6 -4.7 15.0 -2.75 15.0 -2.7 M15.05 -5.55 Q16.25 -6.75 17.4 -6.8 L15.45 -5.15 13.55 -3.8 15.05 -5.55 M11.6 -3.5 Q11.6 -3.9 13.45 -5.45 15.3 -7.0 16.05 -7.25 L11.75 -3.25 11.6 -3.5 M19.45 -5.0 L18.8 -4.2 17.9 -3.5 17.9 -3.45 17.85 -3.6 18.45 -4.5 19.25 -5.25 19.45 -5.0 M21.3 -4.1 L21.35 -3.95 20.95 -3.45 20.55 -3.15 20.55 -3.1 20.5 -3.25 20.9 -4.0 Q20.9 -4.15 21.2 -4.15 L21.3 -4.1 M-14.65 -6.85 Q-15.7 -6.85 -16.75 -5.6 L-17.95 -3.5 -18.1 -3.5 -18.15 -3.65 Q-18.15 -4.3 -16.9 -5.7 -15.5 -7.3 -14.45 -7.15 L-14.4 -6.8 -14.65 -6.85 M-17.0 -5.85 L-17.8 -5.3 Q-17.8 -5.05 -18.05 -4.9 L-18.25 -5.0 -17.5 -6.0 -17.0 -5.85 M-16.15 -3.8 Q-16.0 -5.4 -13.25 -7.9 L-14.95 -5.8 Q-15.95 -4.55 -16.05 -3.85 L-16.15 -3.8 M-13.45 -6.05 Q-12.25 -7.4 -10.45 -8.0 L-13.25 -5.9 -14.75 -3.85 -15.15 -3.8 -13.45 -6.05 M-11.35 -6.6 L-9.0 -8.05 -8.95 -7.8 -9.05 -7.9 Q-10.25 -6.95 -13.3 -4.9 L-11.35 -6.6 M-0.95 -10.5 L-2.65 -10.0 -4.2 -9.65 -4.2 -9.6 -4.25 -9.75 Q-4.25 -10.4 -0.95 -10.5 M-5.3 -7.55 L-3.5 -8.05 Q-4.05 -7.6 -6.3 -7.05 L-5.3 -7.55 M-5.6 -8.7 L-2.9 -9.4 0.05 -9.5 Q-3.95 -8.9 -5.5 -8.3 L-5.6 -8.7 M-8.25 -0.35 L-4.8 -1.25 1.05 -1.55 -3.75 -0.85 -7.85 -0.25 -8.25 -0.35 M-6.25 -2.3 L-3.55 -2.55 Q-5.25 -2.55 -6.35 -2.0 L-7.5 -1.3 -7.6 -1.35 -6.25 -2.3 M-4.65 2.5 L-6.8 2.85 -8.25 3.55 -8.8 3.4 Q-8.0 2.45 -4.5 2.05 -1.45 1.7 1.3 1.95 L-2.05 2.1 -4.65 2.5 M-0.05 0.95 L0.95 1.2 Q-8.15 1.65 -8.75 2.65 L-9.25 2.5 Q-8.75 2.0 -6.85 1.5 L-2.85 1.0 -0.05 0.95 M-8.7 4.45 Q-8.45 4.1 -6.4 3.85 L-3.95 3.75 -8.25 4.55 -8.7 4.45 M-6.4 0.15 L-1.0 -0.55 2.55 -0.3 -4.5 0.25 -9.55 1.25 -9.65 1.15 Q-7.8 0.35 -6.4 0.15" fill="#595345" fill-rule="evenodd" stroke="none"/>
    <path d="M1.55 -11.95 Q3.9 -11.4 4.95 -10.35 L6.0 -9.25 Q10.9 -6.05 11.7 1.6 L11.8 3.05 11.55 4.2 11.55 4.35 Q11.0 5.15 10.9 6.05 10.75 6.0 10.7 6.3 L9.05 8.3 9.05 8.35 Q8.9 8.35 8.9 8.5 5.7 11.8 -0.6 12.0 -7.15 11.9 -9.6 8.3 -11.95 4.7 -11.5 2.05 L-10.95 -1.25 Q-10.2 -4.15 -8.35 -6.6 L-6.6 -9.05 Q-5.5 -10.65 -3.2 -11.3 L-1.75 -11.7 -1.15 -11.8 1.55 -11.95 M-1.8 -11.25 L-2.2 -11.2 -2.7 -11.0 -3.25 -10.7 -4.85 -9.9 -5.4 -9.3 Q-7.05 -7.65 -7.9 -6.1 -9.25 -4.1 -9.95 -1.95 L-9.85 -1.9 -9.8 -1.75 -10.65 0.75 Q-11.05 3.8 -9.8 6.25 -7.55 10.65 -1.05 10.7 6.95 10.65 9.25 6.0 10.15 3.75 9.9 1.1 L10.1 1.1 10.65 3.7 10.5 5.7 10.85 4.8 10.8 1.65 Q10.5 -1.45 9.35 -4.0 8.3 -6.35 6.4 -8.6 L6.25 -8.35 3.5 -10.4 Q1.2 -11.85 -0.65 -11.6 L-1.4 -11.4 -1.8 -11.25 M-0.75 -5.15 Q-0.75 -5.75 -1.2 -6.3 -1.9 -7.2 -3.45 -7.2 -4.0 -6.8 -4.15 -7.05 L-3.9 -7.25 Q-4.85 -7.0 -5.55 -6.3 -6.1 -5.65 -6.1 -5.1 L-5.95 -3.7 Q-5.5 -2.7 -3.85 -2.7 -1.9 -2.7 -1.15 -3.8 -0.75 -4.4 -0.75 -5.15 M-2.45 -4.25 L-2.55 -4.2 Q-3.05 -3.9 -3.4 -3.85 L-3.25 -3.85 Q-3.0 -3.85 -2.45 -4.25 M-0.15 -4.75 L-0.2 -4.3 -0.1 -3.65 -0.4 -3.2 Q-1.25 -1.9 -3.15 -1.85 L-3.3 -1.8 -4.95 -1.7 Q-6.05 -1.7 -7.05 -2.4 L-7.85 -3.15 -7.85 -3.7 Q-7.6 -3.75 -6.9 -3.15 L-6.15 -2.75 -6.35 -3.0 Q-6.7 -3.5 -6.7 -4.3 -6.7 -7.7 -3.25 -8.0 -0.65 -8.25 0.0 -6.45 0.65 -8.25 3.25 -8.0 5.65 -7.8 6.35 -6.05 6.7 -5.3 6.7 -4.3 L6.6 -3.65 6.35 -3.0 6.3 -2.9 6.5 -3.0 7.7 -3.5 7.75 -3.3 Q7.75 -2.9 7.0 -2.4 6.15 -1.85 5.1 -1.85 L4.2 -1.9 3.3 -1.85 Q1.3 -1.85 0.4 -3.2 -0.1 -3.95 -0.15 -4.75 M2.15 -4.9 L2.15 -4.65 2.55 -4.8 3.15 -5.0 Q2.95 -5.2 2.9 -5.65 2.3 -5.65 2.2 -5.45 L2.15 -4.9 M0.75 -5.15 Q0.75 -4.4 1.15 -3.8 1.9 -2.7 3.85 -2.7 5.5 -2.7 5.95 -3.7 L6.1 -5.1 Q6.1 -5.65 5.55 -6.3 4.85 -7.0 3.9 -7.25 L4.15 -7.05 Q4.0 -6.8 3.45 -7.2 1.9 -7.2 1.2 -6.3 0.75 -5.75 0.75 -5.15 M4.75 -4.75 Q4.75 -3.2 3.65 -3.2 2.75 -3.2 2.2 -3.6 1.75 -3.9 1.75 -4.15 1.75 -5.95 3.25 -5.95 4.75 -6.0 4.75 -4.75 M3.95 -4.2 L3.1 -3.85 3.25 -3.85 Q3.5 -3.85 4.05 -4.25 L3.95 -4.2 M-3.25 -5.95 Q-1.75 -6.0 -1.75 -4.75 -1.75 -3.2 -2.85 -3.2 L-4.3 -3.6 -4.75 -4.15 Q-4.75 -5.95 -3.25 -5.95 M-4.35 -4.65 L-3.95 -4.8 -3.35 -5.0 -3.6 -5.65 -4.3 -5.45 -4.35 -4.9 -4.35 -4.65" fill="#595345" fill-rule="evenodd" stroke="none"/>
    <path d="M-6.35 1.8 L-6.9 1.7 -6.85 1.75 -6.35 1.8 M-5.35 1.4 L-5.1 2.15 Q-5.1 3.1 -5.95 3.1 -6.9 3.1 -7.7 2.4 L-8.3 1.65 Q-8.3 0.85 -7.9 0.75 L-6.2 0.75 Q-5.7 0.75 -5.35 1.4 M5.85 1.85 L6.45 1.9 Q6.8 1.9 7.15 1.5 L7.15 1.4 Q6.55 1.4 5.9 1.8 L5.85 1.85 M5.15 1.15 Q5.95 0.55 7.15 0.55 8.15 0.55 8.1 0.95 8.1 1.45 7.45 2.05 6.65 2.75 5.55 2.75 4.5 2.75 4.5 2.1 4.5 1.6 5.15 1.15" fill="#595345" fill-rule="evenodd" stroke="none"/>
    <path d="M-10.8 -6.5 L-14.95 -6.0 -18.2 -4.85 -20.6 -3.55 Q-19.6 -5.7 -15.8 -6.6 L-6.8 -7.45 Q-6.9 -7.15 -8.75 -6.8 -9.9 -5.0 -13.6 -3.25 -17.5 -1.35 -20.45 -1.35 -23.4 -1.35 -24.2 -1.9 L-24.6 -2.65 -24.7 -2.45 -24.9 -2.4 -25.2 -3.3 -25.2 -3.8 Q-25.2 -6.6 -20.0 -9.15 -13.8 -12.2 -6.75 -9.1 L-7.05 -8.8 -8.4 -9.2 -10.75 -9.6 Q-16.95 -9.6 -19.2 -8.65 -22.2 -7.35 -24.5 -2.85 L-24.1 -2.5 Q-23.45 -2.1 -22.55 -2.1 -18.1 -2.1 -13.85 -4.05 -11.45 -5.15 -9.5 -6.65 L-10.8 -6.5" fill="#595345" fill-rule="evenodd" stroke="none"/>
    <path d="M10.8 -6.5 L14.95 -6.0 18.2 -4.85 20.6 -3.55 Q19.6 -5.7 15.8 -6.6 L6.8 -7.45 Q6.9 -7.15 8.75 -6.8 9.9 -5.0 13.6 -3.25 17.5 -1.35 20.45 -1.35 23.4 -1.35 24.2 -1.9 L24.6 -2.65 24.7 -2.45 24.9 -2.4 25.2 -3.3 25.2 -3.8 Q25.2 -6.6 20.0 -9.15 13.8 -12.2 6.75 -9.1 L7.05 -8.8 8.4 -9.2 10.75 -9.6 Q16.95 -9.6 19.2 -8.65 22.2 -7.35 24.5 -2.85 L24.1 -2.5 Q23.45 -2.1 22.55 -2.1 18.1 -2.1 13.85 -4.05 11.45 -5.15 9.5 -6.65 L10.8 -6.5" fill="#595345" fill-rule="evenodd" stroke="none"/>
    <path d="M-6.45 4.05 Q-4.35 2.35 0.6 3.15 L4.6 2.95 Q6.75 2.95 7.5 4.45 7.85 5.15 7.85 6.15 7.85 7.15 6.7 8.95 5.2 11.3 3.15 11.3 L1.3 11.2 0.4 11.0 0.35 10.9 0.4 10.75 Q3.6 11.35 5.65 8.9 7.1 7.2 7.1 6.15 7.1 2.85 1.0 3.4 L0.95 3.7 0.45 3.75 -2.9 3.55 Q-5.35 3.55 -6.4 5.1 -7.0 5.95 -7.0 6.8 -7.0 8.55 -5.5 9.65 -4.05 10.65 -0.3 11.6 -0.3 11.85 -0.6 11.85 -4.0 11.85 -6.0 10.2 -7.75 8.75 -7.75 6.85 -7.75 5.05 -6.45 4.05" fill="#595345" fill-rule="evenodd" stroke="none"/>
    <path d="M0.9 5.3 Q2.6 5.3 3.5 6.5 4.05 7.25 4.05 7.8 4.05 8.7 3.1 9.6 1.9 10.75 -0.05 10.75 -2.85 10.75 -3.6 9.35 L-3.85 7.85 Q-3.85 5.5 -1.15 5.5 L-0.8 5.4 0.9 5.3 M-1.6 5.95 L-1.7 5.85 Q-2.75 5.85 -3.15 6.8 L-3.35 7.85 Q-3.35 10.05 -0.6 10.05 1.45 10.05 2.55 9.1 3.3 8.45 3.3 7.8 3.3 5.95 -0.85 5.95 L-1.3 6.05 -1.6 5.95" fill="#595345" fill-rule="evenodd" stroke="none"/>
  </g>
</svg>
