<?xml version="1.0" encoding="UTF-8" standalone="no"?>
<svg xmlns:xlink="http://www.w3.org/1999/xlink" height="48.35px" width="54.25px" xmlns="http://www.w3.org/2000/svg">
  <g transform="matrix(1.0, 0.0, 0.0, 1.0, -1.35, -1.3)">
    <path d="M52.8 1.9 L50.9 1.7 48.7 1.9 46.75 2.0 44.95 1.9 42.75 1.95 40.75 1.95 38.9 1.95 36.9 1.85 34.85 1.8 32.7 1.9 30.75 2.0 28.9 1.9 26.9 1.95 24.75 2.2 22.8 1.85 20.75 1.75 18.7 1.95 17.0 1.9 15.15 1.9 12.8 2.05 10.85 2.05 9.0 1.95 6.7 2.2 4.75 2.4 Q3.9 2.4 3.4 2.0 L2.0 1.95 1.95 3.95 2.05 6.1 2.0 8.2 1.95 10.05 1.95 11.95 1.9 13.85 1.85 15.65 1.75 17.75 1.85 19.95 2.1 22.05 2.25 24.0 2.15 25.7 2.05 27.7 2.0 29.9 1.85 32.0 1.85 34.05 2.15 36.0 Q2.35 36.95 2.15 37.85 2.0 38.8 2.0 39.8 L2.15 41.85 Q2.35 42.9 2.15 44.05 L1.9 46.05 1.7 47.45 2.0 49.05 3.6 48.85 5.8 48.7 Q7.0 48.55 7.95 48.7 L10.0 48.9 12.0 49.0 13.85 49.15 15.9 49.2 18.05 48.95 20.0 48.95 22.2 48.8 24.3 48.75 26.3 49.05 28.3 49.05 30.1 48.95 32.1 49.0 34.15 49.05 35.85 49.0 37.9 49.0 40.05 49.0 41.9 49.05 43.75 49.1 45.85 49.25 47.9 49.15 49.85 49.1 51.95 49.2 53.65 48.95 54.9 49.05 Q54.65 48.05 54.75 47.0 L54.85 44.85 55.05 42.85 Q55.3 42.05 55.15 41.2 L54.8 39.05 Q54.6 37.7 54.8 36.7 L54.95 34.95 Q54.85 34.2 55.05 33.2 55.3 32.25 55.0 31.15 L54.7 28.9 54.9 27.0 Q55.1 26.25 54.95 25.15 L54.8 23.05 54.85 21.0 54.85 19.0 55.0 17.0 55.0 15.0 54.9 13.1 54.9 10.95 54.75 8.75 Q54.6 7.8 54.8 6.9 L55.15 5.15 Q55.35 4.3 55.1 3.7 L54.9 1.95 52.8 1.9 Z" fill="none" stroke="#90c7b7" stroke-linecap="round" stroke-linejoin="round" stroke-opacity="0.5019608" stroke-width="0.75"/>
  </g>
</svg>
