<?xml version="1.0" encoding="UTF-8" standalone="no"?>
<svg xmlns:xlink="http://www.w3.org/1999/xlink" height="52.75px" width="58.8px" xmlns="http://www.w3.org/2000/svg">
  <g transform="matrix(1.0, 0.0, 0.0, 1.0, 0.9, 0.9)">
    <path d="M0.0 0.0 L57.0 0.0 57.0 51.0 0.0 51.0 0.0 0.0" fill="#65b3a0" fill-rule="evenodd" stroke="none"/>
    <path d="M1.0 -0.3 L0.0 0.0 Q0.45 0.5 0.0 0.8 -0.45 1.15 -0.15 2.0 0.15 2.9 -0.1 3.35 -0.35 3.8 -0.1 3.95 0.15 4.1 0.1 4.85 L-0.1 6.0 -0.1 7.0 -0.05 7.8 -0.15 8.85 Q-0.1 9.7 -0.2 10.35 L-0.4 11.15 -0.1 11.9 Q0.3 12.5 0.15 13.0 L-0.05 13.9 -0.15 14.7 0.15 15.8 Q0.5 16.55 0.15 17.15 L-0.15 18.15 -0.05 19.0 Q0.0 19.5 0.2 19.75 0.45 20.05 0.2 20.75 L0.05 22.0 0.05 23.0 -0.05 24.0 0.0 25.0 -0.05 25.95 0.0 26.9 0.05 27.9 -0.05 29.0 Q-0.05 29.6 0.2 30.0 0.5 30.4 0.0 30.95 -0.45 31.5 -0.15 32.05 0.2 32.6 -0.05 33.2 L-0.35 34.1 -0.2 35.05 0.0 36.1 0.05 37.2 0.25 38.4 0.35 39.4 0.3 40.25 -0.05 41.15 Q-0.4 41.75 -0.1 42.0 0.25 42.3 -0.05 43.0 -0.3 43.7 0.05 44.15 0.4 44.65 0.2 44.9 L0.0 45.8 Q0.0 46.45 0.15 46.9 0.35 47.35 -0.05 48.05 -0.45 48.75 -0.15 48.9 0.2 49.1 -0.15 49.35 -0.5 49.65 0.0 51.0 L0.75 51.05 2.05 50.95 3.0 50.9 3.7 51.1 Q4.05 51.4 4.75 51.3 L5.85 51.0 6.75 51.1 7.75 51.15 8.85 51.0 10.05 51.05 11.1 51.05 12.05 51.05 12.95 51.05 14.1 50.9 Q14.85 50.75 15.35 50.9 L15.9 51.05 16.8 51.1 18.05 50.85 18.95 50.65 19.8 50.85 20.8 51.0 22.15 51.0 23.25 51.25 24.15 51.2 25.3 50.95 Q26.0 51.0 26.1 51.25 L26.75 51.2 28.05 50.9 29.0 50.9 29.7 50.9 30.9 51.15 31.9 51.25 32.8 51.1 33.85 50.95 34.8 50.85 35.8 50.85 37.15 50.9 38.15 51.05 39.0 51.0 40.0 50.95 41.0 51.15 42.15 51.0 Q42.75 50.65 43.05 50.75 L43.9 51.2 Q44.45 51.5 45.15 51.2 L46.2 50.9 47.0 51.05 48.15 51.15 49.15 50.8 49.95 50.7 51.2 50.7 52.25 50.8 53.05 50.95 53.9 51.0 55.0 51.05 55.85 51.0 57.0 51.0 56.95 49.75 57.05 48.8 Q57.0 48.2 57.2 47.85 L57.35 47.25 57.1 46.2 56.95 44.95 56.9 44.0 Q56.85 43.5 57.1 43.05 57.4 42.65 57.15 41.85 56.95 41.05 57.15 40.55 57.35 40.1 56.9 39.65 56.5 39.25 56.95 38.9 57.45 38.55 57.1 38.25 56.75 37.95 56.75 37.1 L56.9 35.95 56.9 35.1 56.85 34.0 57.0 33.05 56.9 31.95 56.75 30.75 56.95 29.8 56.9 28.8 Q56.65 28.15 56.85 27.85 L56.9 27.25 Q56.7 26.9 56.85 26.2 L57.2 24.9 Q57.35 24.3 57.15 24.05 57.0 23.85 57.15 23.15 57.3 22.45 57.1 22.05 L56.7 21.0 Q56.5 20.4 56.7 20.0 L56.95 19.15 57.05 18.1 57.1 16.95 57.0 15.95 57.0 15.1 57.1 14.2 57.05 13.2 56.8 12.3 Q56.6 11.85 56.8 11.15 L57.0 9.85 57.05 8.8 57.15 7.95 57.1 7.0 56.8 6.0 Q56.65 5.45 56.8 4.9 L57.0 3.9 57.1 2.95 57.2 2.0 57.0 1.25 Q56.85 1.0 57.0 0.0 L56.0 -0.2 Q55.05 -0.35 54.85 0.0 54.65 0.4 53.9 0.35 53.15 0.3 52.9 -0.05 L52.1 -0.15 50.9 0.0 49.9 0.0 48.95 -0.2 47.85 -0.15 46.8 0.35 45.6 0.15 44.9 -0.1 44.15 0.0 42.95 -0.1 41.85 -0.3 41.15 -0.2 Q41.0 0.05 40.15 0.15 L38.85 0.15 37.95 0.0 Q37.5 0.0 37.2 -0.25 36.95 -0.45 36.2 -0.25 L35.05 0.0 34.05 0.0 32.95 0.0 32.0 0.0 30.95 -0.05 30.0 -0.1 29.05 -0.1 27.95 0.0 27.2 0.0 26.0 -0.05 24.85 0.05 23.95 0.2 22.65 0.1 21.8 0.05 21.0 0.1 20.05 0.2 19.25 0.4 18.35 0.4 17.3 0.25 15.95 0.15 14.9 0.0 Q14.75 -0.2 13.95 0.0 L13.05 0.15 12.2 -0.1 11.0 -0.2 10.15 -0.1 8.95 0.05 7.85 -0.1 Q7.7 -0.4 6.85 -0.4 L5.85 -0.2 5.2 0.0 4.05 0.25 3.15 0.35 Q2.9 0.35 2.2 -0.05 L1.0 -0.3 Z" fill="none" stroke="#65b3a0" stroke-linecap="round" stroke-linejoin="round" stroke-width="1.0"/>
  </g>
</svg>
